,note,step,duration,channel,velocity
0,36.0,42,300,2.0,64.0
1,48.0,0,300,2.0,64.0
2,55.0,0,300,0.0,64.0
3,60.0,0,300,0.0,64.0
4,43.0,0,300,2.0,64.0
5,39.0,0,300,2.0,64.0
6,51.0,0,300,0.0,64.0
7,55.0,0,20,0.0,64.0
8,60.0,0,20,0.0,64.0
9,51.0,87,20,2.0,64.0
10,59.0,0,90,0.0,64.0
11,50.0,33,90,2.0,64.0
12,62.0,0,90,0.0,64.0
13,55.0,0,90,0.0,64.0
14,48.0,0,20,2.0,64.0
15,60.0,0,20,0.0,64.0
16,63.0,246,20,0.0,64.0
17,55.0,0,20,0.0,64.0
18,54.0,0,240,2.0,64.0
19,57.0,96,240,0.0,64.0
20,60.0,0,240,0.0,64.0
21,63.0,0,240,0.0,64.0
22,59.0,0,90,0.0,64.0
23,55.0,132,90,2.0,64.0
24,62.0,0,90,0.0,64.0
25,44.0,324,20,2.0,64.0
26,56.0,0,300,2.0,64.0
27,59.0,0,300,0.0,64.0
28,65.0,42,300,0.0,64.0
29,62.0,0,300,0.0,64.0
30,65.0,0,20,0.0,64.0
31,59.0,0,20,0.0,64.0
32,56.0,87,20,2.0,64.0
33,62.0,0,20,0.0,64.0
34,67.0,0,90,0.0,64.0
35,62.0,33,90,0.0,64.0
36,55.0,0,90,2.0,64.0
37,59.0,0,90,0.0,64.0
38,59.0,0,20,0.0,64.0
39,68.0,246,20,0.0,64.0
40,62.0,0,20,0.0,64.0
41,53.0,0,20,2.0,64.0
42,59.0,0,240,0.0,64.0
43,68.0,96,240,0.0,64.0
44,62.0,0,240,0.0,64.0
45,51.0,132,330,2.0,64.0
46,60.0,0,90,0.0,64.0
47,67.0,0,90,0.0,64.0
48,63.0,0,90,0.0,64.0
49,51.0,324,20,2.0,64.0
50,63.0,0,300,2.0,64.0
51,72.0,0,300,0.0,64.0
52,69.0,42,300,0.0,64.0
53,66.0,0,300,0.0,64.0
54,69.0,0,20,0.0,64.0
55,66.0,0,20,0.0,64.0
56,63.0,87,20,2.0,64.0
57,72.0,0,20,0.0,64.0
58,62.0,0,90,2.0,64.0
59,74.0,33,90,0.0,64.0
60,69.0,0,90,0.0,64.0
61,66.0,0,90,0.0,64.0
62,69.0,0,20,0.0,64.0
63,66.0,0,20,0.0,64.0
64,75.0,0,20,0.0,64.0
65,60.0,246,20,2.0,64.0
66,75.0,0,240,0.0,64.0
67,60.0,0,240,2.0,64.0
68,66.0,48,240,0.0,64.0
69,69.0,0,240,0.0,64.0
70,67.0,0,40,0.0,64.0
71,74.0,0,40,0.0,64.0
72,62.0,66,40,0.0,64.0
73,59.0,0,40,2.0,64.0
74,66.0,0,20,0.0,64.0
75,63.0,0,20,2.0,64.0
76,72.0,0,20,0.0,64.0
77,69.0,87,20,0.0,64.0
78,66.0,0,90,0.0,64.0
79,62.0,0,90,2.0,64.0
80,74.0,33,90,0.0,64.0
81,69.0,0,90,0.0,64.0
82,60.0,0,20,2.0,64.0
83,69.0,0,20,0.0,64.0
84,75.0,0,20,0.0,64.0
85,66.0,246,20,0.0,64.0
86,75.0,120,240,0.0,64.0
87,69.0,0,240,0.0,64.0
88,66.0,0,240,0.0,64.0
89,60.0,0,240,2.0,64.0
90,67.0,0,120,0.0,64.0
91,59.0,0,120,2.0,64.0
92,62.0,0,120,2.0,64.0
93,74.0,120,120,0.0,64.0
94,64.0,0,120,2.0,64.0
95,76.0,0,120,0.0,64.0
96,67.0,0,120,0.0,64.0
97,58.0,72,120,2.0,64.0
98,65.0,0,60,2.0,64.0
99,72.0,0,15,0.0,64.0
100,77.0,0,60,0.0,64.0
101,68.0,198,60,0.0,64.0
102,60.0,0,15,2.0,64.0
103,56.0,0,60,2.0,64.0
104,80.0,15,150,0.0,64.0
105,46.0,2,180,2.0,64.0
106,34.0,0,180,2.0,64.0
107,79.0,15,15,0.0,64.0
108,80.0,15,15,0.0,64.0
109,82.0,15,15,0.0,64.0
110,80.0,15,15,0.0,64.0
111,79.0,15,15,0.0,64.0
112,77.0,15,15,0.0,64.0
113,75.0,15,15,0.0,64.0
114,74.0,15,15,0.0,64.0
115,72.0,15,15,0.0,64.0
116,70.0,7,15,0.0,64.0
117,68.0,5,15,0.0,64.0
118,67.0,7,15,0.0,64.0
119,65.0,7,15,0.0,64.0
120,63.0,7,15,0.0,64.0
121,62.0,7,15,0.0,64.0
122,65.0,7,15,0.0,64.0
123,68.0,7,15,0.0,64.0
124,65.0,7,15,0.0,64.0
125,62.0,45,15,0.0,64.0
126,63.0,36,60,0.0,64.0
127,51.0,24,40,2.0,64.0
128,39.0,0,40,2.0,64.0
129,58.0,0,40,2.0,64.0
130,55.0,60,40,2.0,64.0
131,51.0,0,40,2.0,64.0
132,63.0,36,180,0.0,64.0
133,75.0,0,180,0.0,64.0
134,58.0,0,40,2.0,64.0
135,51.0,60,40,2.0,64.0
136,55.0,0,40,2.0,64.0
137,51.0,0,40,2.0,64.0
138,58.0,0,40,2.0,64.0
139,55.0,60,40,2.0,64.0
140,55.0,0,40,2.0,64.0
141,58.0,0,40,2.0,64.0
142,51.0,24,40,2.0,64.0
143,58.0,6,40,2.0,64.0
144,55.0,0,40,2.0,64.0
145,51.0,0,40,2.0,64.0
146,75.0,54,20,0.0,64.0
147,63.0,0,20,0.0,64.0
148,58.0,24,40,2.0,64.0
149,51.0,0,40,2.0,64.0
150,55.0,0,40,2.0,64.0
151,65.0,36,60,0.0,64.0
152,77.0,0,60,0.0,64.0
153,58.0,0,40,2.0,64.0
154,55.0,0,40,2.0,64.0
155,51.0,6,40,2.0,64.0
156,79.0,54,20,0.0,64.0
157,67.0,0,20,0.0,64.0
158,79.0,48,120,0.0,64.0
159,67.0,0,120,0.0,64.0
160,60.0,0,40,2.0,64.0
161,56.0,60,40,2.0,64.0
162,51.0,0,40,2.0,64.0
163,56.0,12,40,2.0,64.0
164,60.0,0,40,2.0,64.0
165,51.0,0,40,2.0,64.0
166,60.0,0,40,2.0,64.0
167,51.0,0,40,2.0,64.0
168,77.0,0,40,0.0,64.0
169,65.0,60,40,0.0,64.0
170,56.0,0,40,2.0,64.0
171,51.0,6,40,2.0,64.0
172,60.0,0,40,2.0,64.0
173,56.0,0,40,2.0,64.0
174,65.0,54,20,0.0,64.0
175,50.0,24,40,2.0,64.0
176,56.0,0,60,1.0,64.0
177,38.0,0,40,2.0,64.0
178,53.0,0,60,1.0,64.0
179,59.0,0,60,1.0,64.0
180,65.0,36,60,0.0,64.0
181,38.0,0,40,2.0,64.0
182,50.0,6,40,2.0,64.0
183,56.0,0,20,1.0,64.0
184,53.0,0,20,1.0,64.0
185,59.0,0,20,1.0,64.0
186,65.0,54,20,0.0,64.0
187,65.0,0,60,0.0,64.0
188,53.0,0,60,1.0,64.0
189,36.0,0,40,2.0,64.0
190,60.0,0,60,1.0,64.0
191,56.0,36,60,1.0,64.0
192,48.0,24,40,2.0,64.0
193,36.0,6,40,2.0,64.0
194,48.0,0,40,2.0,64.0
195,65.0,54,20,0.0,64.0
196,60.0,0,20,1.0,64.0
197,56.0,0,20,1.0,64.0
198,53.0,0,20,1.0,64.0
199,35.0,24,40,2.0,64.0
200,47.0,0,40,2.0,64.0
201,53.0,36,60,1.0,64.0
202,56.0,0,60,1.0,64.0
203,62.0,0,60,1.0,64.0
204,65.0,0,60,1.0,64.0
205,50.0,0,40,2.0,64.0
206,53.0,0,40,2.0,64.0
207,56.0,0,40,2.0,64.0
208,47.0,60,40,2.0,64.0
209,50.0,0,40,2.0,64.0
210,47.0,0,40,2.0,64.0
211,56.0,0,40,2.0,64.0
212,53.0,60,40,2.0,64.0
213,65.0,0,180,0.0,64.0
214,77.0,36,180,0.0,64.0
215,50.0,60,40,2.0,64.0
216,53.0,0,40,2.0,64.0
217,47.0,0,40,2.0,64.0
218,56.0,0,40,2.0,64.0
219,50.0,0,40,2.0,64.0
220,56.0,0,40,2.0,64.0
221,53.0,0,40,2.0,64.0
222,46.0,24,40,2.0,64.0
223,56.0,0,40,2.0,64.0
224,50.0,0,40,2.0,64.0
225,53.0,6,40,2.0,64.0
226,46.0,0,40,2.0,64.0
227,65.0,54,20,0.0,64.0
228,77.0,0,20,0.0,64.0
229,53.0,24,40,2.0,64.0
230,67.0,0,60,0.0,64.0
231,46.0,0,40,2.0,64.0
232,79.0,36,60,0.0,64.0
233,56.0,0,40,2.0,64.0
234,50.0,0,40,2.0,64.0
235,56.0,0,40,2.0,64.0
236,53.0,0,40,2.0,64.0
237,46.0,0,40,2.0,64.0
238,50.0,6,40,2.0,64.0
239,68.0,54,20,0.0,64.0
240,80.0,0,20,0.0,64.0
241,80.0,0,120,0.0,64.0
242,68.0,48,120,0.0,64.0
243,55.0,0,40,2.0,64.0
244,49.0,0,40,2.0,64.0
245,46.0,60,40,2.0,64.0
246,52.0,0,40,2.0,64.0
247,52.0,0,40,2.0,64.0
248,55.0,12,40,2.0,64.0
249,49.0,0,40,2.0,64.0
250,46.0,0,40,2.0,64.0
251,67.0,0,40,0.0,64.0
252,79.0,60,40,0.0,64.0
253,52.0,0,40,2.0,64.0
254,55.0,0,40,2.0,64.0
255,49.0,0,40,2.0,64.0
256,46.0,0,40,2.0,64.0
257,52.0,6,40,2.0,64.0
258,49.0,0,40,2.0,64.0
259,46.0,0,40,2.0,64.0
260,55.0,0,40,2.0,64.0
261,61.0,0,20,0.0,64.0
262,67.0,54,20,0.0,64.0
263,55.0,0,20,0.0,64.0
264,64.0,0,20,0.0,64.0
265,61.0,0,60,0.0,64.0
266,64.0,36,60,0.0,64.0
267,69.0,0,60,0.0,64.0
268,57.0,0,60,0.0,64.0
269,45.0,24,40,2.0,64.0
270,33.0,0,40,2.0,64.0
271,45.0,0,40,2.0,64.0
272,33.0,6,40,2.0,64.0
273,69.0,54,20,0.0,64.0
274,61.0,0,20,0.0,64.0
275,57.0,0,20,0.0,64.0
276,64.0,0,20,0.0,64.0
277,31.0,24,40,2.0,64.0
278,58.0,36,60,0.0,64.0
279,70.0,0,60,0.0,64.0
280,61.0,0,60,0.0,64.0
281,43.0,0,40,2.0,64.0
282,64.0,0,60,0.0,64.0
283,43.0,0,40,2.0,64.0
284,31.0,6,40,2.0,64.0
285,70.0,0,20,0.0,64.0
286,61.0,54,20,0.0,64.0
287,58.0,0,20,0.0,64.0
288,64.0,0,20,0.0,64.0
289,62.0,0,60,0.0,64.0
290,69.0,36,60,0.0,64.0
291,57.0,0,60,0.0,64.0
292,66.0,0,60,0.0,64.0
293,30.0,24,40,2.0,64.0
294,42.0,0,40,2.0,64.0
295,62.0,60,40,2.0,64.0
296,57.0,0,40,2.0,64.0
297,54.0,0,40,2.0,64.0
298,69.0,0,180,0.0,64.0
299,81.0,36,180,0.0,64.0
300,62.0,60,40,2.0,64.0
301,54.0,0,40,2.0,64.0
302,57.0,0,40,2.0,64.0
303,54.0,0,40,2.0,64.0
304,62.0,60,40,2.0,64.0
305,57.0,0,40,2.0,64.0
306,54.0,0,40,2.0,64.0
307,57.0,0,40,2.0,64.0
308,62.0,24,40,2.0,64.0
309,54.0,0,40,2.0,64.0
310,57.0,0,40,2.0,64.0
311,62.0,6,40,2.0,64.0
312,69.0,54,20,0.0,64.0
313,81.0,0,20,0.0,64.0
314,57.0,24,40,2.0,64.0
315,54.0,0,40,2.0,64.0
316,62.0,0,40,2.0,64.0
317,83.0,0,60,0.0,64.0
318,71.0,36,60,0.0,64.0
319,62.0,0,40,2.0,64.0
320,54.0,0,40,2.0,64.0
321,57.0,6,40,2.0,64.0
322,72.0,54,20,0.0,64.0
323,84.0,0,20,0.0,64.0
324,84.0,0,120,0.0,64.0
325,72.0,48,120,0.0,64.0
326,62.0,60,40,2.0,64.0
327,53.0,0,40,2.0,64.0
328,56.0,0,40,2.0,64.0
329,62.0,12,40,2.0,64.0
330,53.0,0,40,2.0,64.0
331,56.0,0,40,2.0,64.0
332,71.0,0,40,0.0,64.0
333,83.0,0,40,0.0,64.0
334,56.0,60,40,2.0,64.0
335,62.0,0,40,2.0,64.0
336,53.0,0,40,2.0,64.0
337,62.0,0,40,2.0,64.0
338,56.0,60,40,2.0,64.0
339,53.0,0,40,2.0,64.0
340,53.0,60,40,2.0,64.0
341,59.0,0,40,2.0,64.0
342,50.0,0,40,2.0,64.0
343,59.0,0,40,2.0,64.0
344,50.0,0,40,2.0,64.0
345,53.0,60,40,2.0,64.0
346,53.0,0,40,2.0,64.0
347,59.0,0,40,2.0,64.0
348,50.0,24,40,2.0,64.0
349,83.0,36,60,0.0,64.0
350,71.0,0,60,0.0,64.0
351,50.0,6,40,2.0,64.0
352,59.0,0,40,2.0,64.0
353,53.0,0,40,2.0,64.0
354,72.0,54,20,0.0,64.0
355,84.0,0,20,0.0,64.0
356,50.0,0,40,2.0,64.0
357,47.0,60,40,2.0,64.0
358,85.0,48,120,0.0,64.0
359,73.0,0,120,0.0,64.0
360,56.0,0,40,2.0,64.0
361,56.0,12,40,2.0,64.0
362,47.0,0,40,2.0,64.0
363,50.0,0,40,2.0,64.0
364,86.0,0,90,0.0,64.0
365,74.0,12,90,0.0,64.0
366,50.0,0,40,2.0,64.0
367,47.0,0,40,2.0,64.0
368,56.0,48,40,2.0,64.0
369,47.0,0,40,2.0,64.0
370,50.0,0,40,2.0,64.0
371,56.0,60,40,2.0,64.0
372,44.0,0,40,2.0,64.0
373,53.0,60,40,2.0,64.0
374,47.0,0,40,2.0,64.0
375,44.0,0,40,2.0,64.0
376,47.0,60,40,2.0,64.0
377,53.0,0,40,2.0,64.0
378,44.0,0,40,2.0,64.0
379,47.0,0,40,2.0,64.0
380,53.0,24,40,2.0,64.0
381,74.0,36,60,0.0,64.0
382,86.0,0,60,0.0,64.0
383,47.0,0,40,2.0,64.0
384,44.0,6,40,2.0,64.0
385,53.0,0,40,2.0,64.0
386,87.0,54,20,0.0,64.0
387,75.0,0,20,0.0,64.0
388,47.0,60,40,2.0,64.0
389,53.0,0,40,2.0,64.0
390,76.0,0,120,0.0,64.0
391,88.0,48,120,0.0,64.0
392,43.0,0,40,2.0,64.0
393,53.0,12,40,2.0,64.0
394,43.0,0,40,2.0,64.0
395,47.0,0,40,2.0,64.0
396,53.0,0,40,2.0,64.0
397,47.0,60,40,2.0,64.0
398,43.0,0,40,2.0,64.0
399,77.0,0,180,0.0,64.0
400,89.0,36,180,0.0,64.0
401,53.0,60,40,2.0,64.0
402,47.0,0,40,2.0,64.0
403,43.0,0,40,2.0,64.0
404,48.0,24,40,2.0,64.0
405,53.0,0,40,2.0,64.0
406,44.0,0,40,2.0,64.0
407,48.0,60,40,2.0,64.0
408,44.0,0,40,2.0,64.0
409,53.0,0,40,2.0,64.0
410,89.0,0,90,0.0,64.0
411,48.0,0,40,2.0,64.0
412,44.0,48,40,2.0,64.0
413,77.0,12,90,0.0,64.0
414,53.0,0,40,2.0,64.0
415,53.0,0,40,2.0,64.0
416,44.0,108,40,2.0,64.0
417,48.0,0,40,2.0,64.0
418,43.0,0,90,2.0,64.0
419,47.0,48,90,2.0,64.0
420,53.0,0,90,2.0,64.0
421,89.0,0,150,0.0,64.0
422,77.0,21,150,0.0,64.0
423,87.0,15,15,0.0,64.0
424,86.0,15,15,0.0,64.0
425,89.0,15,15,0.0,64.0
426,87.0,15,15,0.0,64.0
427,86.0,15,15,0.0,64.0
428,84.0,57,15,0.0,64.0
429,83.0,60,60,0.0,64.0
430,83.0,60,60,0.0,64.0
431,67.0,0,60,1.0,64.0
432,77.0,60,60,0.0,64.0
433,83.0,0,60,0.0,64.0
434,74.0,0,60,1.0,64.0
435,77.0,0,60,0.0,64.0
436,67.0,0,60,1.0,64.0
437,74.0,99,60,1.0,64.0
438,83.0,0,60,0.0,64.0
439,84.0,528,90,0.0,64.0
440,75.0,0,90,0.0,64.0
441,68.0,0,90,1.0,64.0
442,72.0,0,90,1.0,64.0
443,84.0,21,150,0.0,64.0
444,83.0,15,15,0.0,64.0
445,84.0,10,15,0.0,64.0
446,86.0,10,15,0.0,64.0
447,84.0,10,15,0.0,64.0
448,82.0,10,15,0.0,64.0
449,80.0,10,15,0.0,64.0
450,79.0,10,15,0.0,64.0
451,82.0,57,15,0.0,64.0
452,80.0,60,60,0.0,64.0
453,80.0,51,60,0.0,64.0
454,60.0,0,40,1.0,64.0
455,62.0,9,40,1.0,64.0
456,53.0,0,40,1.0,64.0
457,80.0,51,60,0.0,64.0
458,60.0,0,40,1.0,64.0
459,62.0,0,40,1.0,64.0
460,53.0,9,40,1.0,64.0
461,80.0,63,60,0.0,64.0
462,79.0,36,60,0.0,64.0
463,60.0,32,90,1.0,64.0
464,55.0,0,90,1.0,64.0
465,63.0,0,90,1.0,64.0
466,87.0,10,60,0.0,64.0
467,86.0,10,15,0.0,64.0
468,85.0,10,15,0.0,64.0
469,84.0,10,15,0.0,64.0
470,83.0,10,15,0.0,64.0
471,82.0,10,15,0.0,64.0
472,81.0,10,15,0.0,64.0
473,80.0,10,15,0.0,64.0
474,79.0,8,15,0.0,64.0
475,78.0,7,15,0.0,64.0
476,77.0,7,15,0.0,64.0
477,76.0,7,15,0.0,64.0
478,75.0,7,15,0.0,64.0
479,74.0,7,15,0.0,64.0
480,50.0,0,90,1.0,64.0
481,53.0,6,90,1.0,64.0
482,43.0,0,90,1.0,64.0
483,73.0,7,15,0.0,64.0
484,72.0,7,15,0.0,64.0
485,71.0,7,15,0.0,64.0
486,70.0,7,15,0.0,64.0
487,69.0,7,15,0.0,64.0
488,68.0,7,15,0.0,64.0
489,67.0,7,15,0.0,64.0
490,66.0,7,15,0.0,64.0
491,65.0,7,15,0.0,64.0
492,64.0,7,15,0.0,64.0
493,63.0,7,15,0.0,64.0
494,61.0,7,15,0.0,64.0
495,62.0,1,15,0.0,64.0
496,60.0,7,15,0.0,64.0
497,59.0,205,15,0.0,64.0
498,68.0,60,210,0.0,64.0
499,59.0,82,60,0.0,64.0
500,36.0,120,90,2.0,64.0
501,60.0,0,570,0.0,64.0
502,48.0,120,90,2.0,64.0
503,36.0,120,90,2.0,64.0
504,48.0,120,90,2.0,64.0
505,36.0,120,90,2.0,64.0
506,48.0,120,90,2.0,64.0
507,36.0,48,90,2.0,64.0
508,58.0,72,150,0.0,64.0
509,64.0,0,150,0.0,64.0
510,48.0,120,90,2.0,64.0
511,36.0,48,90,2.0,64.0
512,65.0,0,150,0.0,64.0
513,56.0,72,150,0.0,64.0
514,48.0,120,90,2.0,64.0
515,64.0,72,150,0.0,64.0
516,67.0,0,150,0.0,64.0
517,36.0,48,90,2.0,64.0
518,48.0,120,90,2.0,64.0
519,36.0,48,90,2.0,64.0
520,68.0,0,150,0.0,64.0
521,65.0,72,150,0.0,64.0
522,48.0,120,90,2.0,64.0
523,62.0,0,150,0.0,64.0
524,71.0,72,150,0.0,64.0
525,36.0,48,90,2.0,64.0
526,48.0,120,90,2.0,64.0
527,36.0,48,90,2.0,64.0
528,72.0,0,150,0.0,64.0
529,63.0,72,150,0.0,64.0
530,48.0,120,90,2.0,64.0
531,64.0,72,390,0.0,64.0
532,72.0,0,390,0.0,64.0
533,36.0,120,90,2.0,64.0
534,48.0,120,90,2.0,64.0
535,36.0,48,90,2.0,64.0
536,48.0,120,90,2.0,64.0
537,76.0,72,150,0.0,64.0
538,70.0,0,150,0.0,64.0
539,36.0,48,90,2.0,64.0
540,48.0,120,90,2.0,64.0
541,77.0,72,150,0.0,64.0
542,68.0,0,150,0.0,64.0
543,36.0,48,90,2.0,64.0
544,48.0,120,90,2.0,64.0
545,79.0,72,150,0.0,64.0
546,76.0,0,150,0.0,64.0
547,36.0,48,90,2.0,64.0
548,48.0,120,90,2.0,64.0
549,36.0,48,90,2.0,64.0
550,80.0,0,150,0.0,64.0
551,77.0,72,150,0.0,64.0
552,48.0,120,90,2.0,64.0
553,36.0,48,90,2.0,64.0
554,83.0,72,150,0.0,64.0
555,74.0,0,150,0.0,64.0
556,48.0,120,90,2.0,64.0
557,79.0,0,300,0.0,64.0
558,36.0,120,90,2.0,64.0
559,75.0,48,300,0.0,64.0
560,84.0,0,300,0.0,64.0
561,72.0,0,300,0.0,64.0
562,48.0,72,90,2.0,64.0
563,36.0,120,90,2.0,64.0
564,48.0,120,90,2.0,64.0
565,67.0,0,300,0.0,64.0
566,71.0,0,300,0.0,64.0
567,79.0,0,300,0.0,64.0
568,77.0,48,300,0.0,64.0
569,38.0,120,90,2.0,64.0
570,50.0,72,90,2.0,64.0
571,38.0,120,90,2.0,64.0
572,50.0,120,90,2.0,64.0
573,39.0,120,90,2.0,64.0
574,67.0,48,300,0.0,64.0
575,72.0,0,300,0.0,64.0
576,75.0,0,300,0.0,64.0
577,51.0,72,90,2.0,64.0
578,39.0,120,90,2.0,64.0
579,51.0,120,90,2.0,64.0
580,41.0,120,90,2.0,64.0
581,68.0,0,300,0.0,64.0
582,74.0,48,300,0.0,64.0
583,65.0,0,300,0.0,64.0
584,53.0,72,90,2.0,64.0
585,41.0,120,90,2.0,64.0
586,53.0,120,90,2.0,64.0
587,43.0,120,90,2.0,64.0
588,72.0,0,1440,0.0,64.0
589,67.0,96,480,1.0,64.0
590,63.0,0,1440,0.0,64.0
591,55.0,120,90,2.0,64.0
592,43.0,120,90,2.0,64.0
593,55.0,24,90,2.0,64.0
594,44.0,120,90,2.0,64.0
595,66.0,96,480,1.0,64.0
596,56.0,120,90,2.0,64.0
597,44.0,120,90,2.0,64.0
598,56.0,24,90,2.0,64.0
599,42.0,120,90,2.0,64.0
600,69.0,96,480,1.0,64.0
601,54.0,120,90,2.0,64.0
602,42.0,120,90,2.0,64.0
603,54.0,24,90,2.0,64.0
604,71.0,0,390,0.0,64.0
605,65.0,96,480,1.0,64.0
606,43.0,120,90,2.0,64.0
607,62.0,72,390,0.0,64.0
608,55.0,120,90,2.0,64.0
609,43.0,48,90,2.0,64.0
610,55.0,24,90,2.0,64.0
611,60.0,0,150,0.0,64.0
612,63.0,72,150,0.0,64.0
613,36.0,48,90,2.0,64.0
614,72.0,0,150,0.0,64.0
615,48.0,120,90,2.0,64.0
616,36.0,120,90,2.0,64.0
617,60.0,72,390,0.0,64.0
618,48.0,120,90,2.0,64.0
619,36.0,48,90,2.0,64.0
620,48.0,120,90,2.0,64.0
621,36.0,48,90,2.0,64.0
622,64.0,72,150,0.0,64.0
623,58.0,0,150,0.0,64.0
624,48.0,120,90,2.0,64.0
625,36.0,48,90,2.0,64.0
626,56.0,72,150,0.0,64.0
627,65.0,0,150,0.0,64.0
628,48.0,120,90,2.0,64.0
629,36.0,48,90,2.0,64.0
630,67.0,72,150,0.0,64.0
631,64.0,0,150,0.0,64.0
632,48.0,120,90,2.0,64.0
633,36.0,48,90,2.0,64.0
634,68.0,72,150,0.0,64.0
635,65.0,0,150,0.0,64.0
636,48.0,120,90,2.0,64.0
637,62.0,0,150,0.0,64.0
638,36.0,48,90,2.0,64.0
639,71.0,72,150,0.0,64.0
640,48.0,120,90,2.0,64.0
641,36.0,48,90,2.0,64.0
642,63.0,0,150,0.0,64.0
643,72.0,72,150,0.0,64.0
644,48.0,120,90,2.0,64.0
645,64.0,0,390,0.0,64.0
646,72.0,72,390,0.0,64.0
647,36.0,120,90,2.0,64.0
648,48.0,120,90,2.0,64.0
649,36.0,48,90,2.0,64.0
650,48.0,120,90,2.0,64.0
651,76.0,72,150,0.0,64.0
652,70.0,0,150,0.0,64.0
653,36.0,48,90,2.0,64.0
654,48.0,120,90,2.0,64.0
655,36.0,48,90,2.0,64.0
656,68.0,0,150,0.0,64.0
657,77.0,72,150,0.0,64.0
658,48.0,120,90,2.0,64.0
659,36.0,48,90,2.0,64.0
660,76.0,72,150,0.0,64.0
661,79.0,0,150,0.0,64.0
662,48.0,120,90,2.0,64.0
663,77.0,0,150,0.0,64.0
664,80.0,72,150,0.0,64.0
665,36.0,48,90,2.0,64.0
666,48.0,120,90,2.0,64.0
667,74.0,72,150,0.0,64.0
668,36.0,48,90,2.0,64.0
669,83.0,0,150,0.0,64.0
670,48.0,120,90,2.0,64.0
671,79.0,0,300,0.0,64.0
672,36.0,120,90,2.0,64.0
673,72.0,0,300,0.0,64.0
674,75.0,48,300,0.0,64.0
675,84.0,0,300,0.0,64.0
676,48.0,72,90,2.0,64.0
677,36.0,120,90,2.0,64.0
678,48.0,120,90,2.0,64.0
679,38.0,120,90,2.0,64.0
680,79.0,0,300,0.0,64.0
681,71.0,0,300,0.0,64.0
682,67.0,48,300,0.0,64.0
683,77.0,0,300,0.0,64.0
684,50.0,72,90,2.0,64.0
685,38.0,120,90,2.0,64.0
686,50.0,120,90,2.0,64.0
687,75.0,48,300,0.0,64.0
688,72.0,0,300,0.0,64.0
689,67.0,0,300,0.0,64.0
690,39.0,120,90,2.0,64.0
691,51.0,72,90,2.0,64.0
692,39.0,120,90,2.0,64.0
693,51.0,120,90,2.0,64.0
694,41.0,120,90,2.0,64.0
695,68.0,48,300,0.0,64.0
696,74.0,0,300,0.0,64.0
697,65.0,0,300,0.0,64.0
698,53.0,72,90,2.0,64.0
699,41.0,120,90,2.0,64.0
700,53.0,120,90,2.0,64.0
701,63.0,0,1920,0.0,64.0
702,72.0,0,1920,0.0,64.0
703,43.0,120,90,2.0,64.0
704,67.0,96,480,1.0,64.0
705,55.0,120,90,2.0,64.0
706,43.0,120,90,2.0,64.0
707,55.0,24,90,2.0,64.0
708,44.0,120,90,2.0,64.0
709,66.0,96,480,1.0,64.0
710,56.0,120,90,2.0,64.0
711,44.0,120,90,2.0,64.0
712,56.0,24,90,2.0,64.0
713,42.0,120,90,2.0,64.0
714,69.0,192,960,1.0,64.0
715,54.0,120,90,2.0,64.0
716,42.0,120,90,2.0,64.0
717,54.0,120,90,2.0,64.0
718,42.0,120,90,2.0,64.0
719,54.0,120,90,2.0,64.0
720,42.0,120,90,2.0,64.0
721,54.0,24,90,2.0,64.0
722,67.0,0,180,1.0,64.0
723,55.0,0,180,2.0,64.0
724,43.0,0,180,2.0,64.0
725,71.0,240,180,0.0,64.0
726,62.0,0,180,0.0,64.0
727,59.0,0,180,2.0,64.0
728,62.0,240,180,2.0,64.0
729,79.0,0,660,0.0,64.0
730,62.0,0,180,2.0,64.0
731,67.0,240,660,0.0,64.0
732,59.0,240,180,2.0,64.0
733,62.0,240,180,2.0,64.0
734,59.0,0,180,2.0,64.0
735,55.0,0,180,2.0,64.0
736,63.0,240,180,2.0,64.0
737,60.0,0,180,2.0,64.0
738,60.0,0,180,2.0,64.0
739,67.0,72,600,0.0,64.0
740,63.0,240,180,2.0,64.0
741,79.0,0,600,0.0,64.0
742,63.0,168,180,2.0,64.0
743,60.0,0,180,2.0,64.0
744,62.0,0,180,2.0,64.0
745,65.0,48,180,2.0,64.0
746,77.0,120,120,0.0,64.0
747,74.0,120,120,0.0,64.0
748,71.0,120,120,0.0,64.0
749,67.0,120,120,0.0,64.0
750,65.0,120,120,0.0,64.0
751,62.0,120,120,0.0,64.0
752,59.0,120,120,0.0,64.0
753,60.0,120,120,0.0,64.0
754,63.0,120,120,0.0,64.0
755,60.0,120,120,0.0,64.0
756,55.0,120,120,0.0,64.0
757,54.0,120,120,0.0,64.0
758,32.0,0,120,2.0,64.0
759,44.0,0,120,2.0,64.0
760,60.0,120,120,0.0,64.0
761,32.0,120,120,2.0,64.0
762,56.0,0,120,0.0,64.0
763,54.0,192,120,0.0,64.0
764,44.0,0,120,2.0,64.0
765,55.0,0,180,0.0,64.0
766,31.0,240,180,2.0,64.0
767,43.0,0,180,2.0,64.0
768,59.0,240,180,2.0,64.0
769,62.0,0,180,2.0,64.0
770,59.0,0,180,2.0,64.0
771,62.0,240,180,2.0,64.0
772,79.0,0,660,0.0,64.0
773,67.0,0,660,0.0,64.0
774,59.0,240,180,2.0,64.0
775,62.0,0,180,2.0,64.0
776,55.0,240,180,2.0,64.0
777,60.0,240,180,2.0,64.0
778,63.0,0,180,2.0,64.0
779,60.0,0,180,2.0,64.0
780,79.0,72,600,0.0,64.0
781,63.0,240,180,2.0,64.0
782,67.0,0,600,0.0,64.0
783,60.0,168,180,2.0,64.0
784,63.0,0,180,2.0,64.0
785,65.0,0,180,2.0,64.0
786,62.0,48,180,2.0,64.0
787,77.0,120,120,0.0,64.0
788,74.0,120,120,0.0,64.0
789,71.0,120,120,0.0,64.0
790,67.0,120,120,0.0,64.0
791,65.0,120,120,0.0,64.0
792,62.0,120,120,0.0,64.0
793,59.0,120,120,0.0,64.0
794,60.0,120,120,0.0,64.0
795,63.0,120,120,0.0,64.0
796,60.0,120,120,0.0,64.0
797,55.0,120,120,0.0,64.0
798,54.0,0,120,0.0,64.0
799,32.0,120,120,2.0,64.0
800,44.0,120,120,2.0,64.0
801,60.0,0,120,0.0,64.0
802,32.0,0,120,2.0,64.0
803,56.0,120,120,0.0,64.0
804,44.0,96,120,2.0,64.0
805,54.0,0,120,0.0,64.0
806,55.0,72,150,0.0,64.0
807,31.0,48,90,2.0,64.0
808,43.0,120,90,2.0,64.0
809,66.0,72,150,0.0,64.0
810,31.0,48,90,2.0,64.0
811,43.0,120,90,2.0,64.0
812,67.0,72,150,0.0,64.0
813,31.0,48,90,2.0,64.0
814,43.0,120,90,2.0,64.0
815,72.0,72,150,0.0,64.0
816,66.0,0,150,0.0,64.0
817,31.0,48,90,2.0,64.0
818,43.0,120,90,2.0,64.0
819,67.0,72,150,0.0,64.0
820,31.0,48,90,2.0,64.0
821,71.0,0,150,0.0,64.0
822,43.0,120,90,2.0,64.0
823,72.0,0,150,0.0,64.0
824,31.0,48,90,2.0,64.0
825,78.0,72,150,0.0,64.0
826,43.0,120,90,2.0,64.0
827,71.0,72,150,0.0,64.0
828,79.0,0,150,0.0,64.0
829,31.0,48,90,2.0,64.0
830,43.0,120,90,2.0,64.0
831,78.0,72,150,0.0,64.0
832,31.0,48,90,2.0,64.0
833,84.0,0,150,0.0,64.0
834,43.0,120,90,2.0,64.0
835,31.0,48,90,2.0,64.0
836,83.0,72,150,0.0,64.0
837,79.0,0,150,0.0,64.0
838,43.0,120,90,2.0,64.0
839,31.0,120,90,2.0,64.0
840,43.0,120,90,2.0,64.0
841,31.0,120,90,2.0,64.0
842,43.0,120,90,2.0,64.0
843,31.0,120,90,2.0,64.0
844,43.0,120,90,2.0,64.0
845,31.0,120,90,2.0,64.0
846,58.0,0,960,0.0,64.0
847,61.0,96,960,0.0,64.0
848,63.0,0,1110,0.0,64.0
849,43.0,120,90,2.0,64.0
850,31.0,120,90,2.0,64.0
851,43.0,120,90,2.0,64.0
852,31.0,120,90,2.0,64.0
853,43.0,120,90,2.0,64.0
854,31.0,120,90,2.0,64.0
855,43.0,24,90,2.0,64.0
856,60.0,72,150,0.0,64.0
857,32.0,48,90,2.0,64.0
858,44.0,120,90,2.0,64.0
859,32.0,48,90,2.0,64.0
860,67.0,0,150,0.0,64.0
861,73.0,72,150,0.0,64.0
862,44.0,120,90,2.0,64.0
863,32.0,48,90,2.0,64.0
864,72.0,0,150,0.0,64.0
865,68.0,72,150,0.0,64.0
866,44.0,120,90,2.0,64.0
867,79.0,72,150,0.0,64.0
868,73.0,0,150,0.0,64.0
869,32.0,48,90,2.0,64.0
870,44.0,120,90,2.0,64.0
871,72.0,0,150,0.0,64.0
872,32.0,48,90,2.0,64.0
873,80.0,72,150,0.0,64.0
874,44.0,120,90,2.0,64.0
875,79.0,72,150,0.0,64.0
876,85.0,0,150,0.0,64.0
877,32.0,48,90,2.0,64.0
878,44.0,120,90,2.0,64.0
879,32.0,48,90,2.0,64.0
880,84.0,72,150,0.0,64.0
881,80.0,0,150,0.0,64.0
882,44.0,120,90,2.0,64.0
883,79.0,0,150,0.0,64.0
884,85.0,72,150,0.0,64.0
885,32.0,48,90,2.0,64.0
886,44.0,120,90,2.0,64.0
887,84.0,72,150,0.0,64.0
888,32.0,48,90,2.0,64.0
889,80.0,0,150,0.0,64.0
890,44.0,120,90,2.0,64.0
891,32.0,120,90,2.0,64.0
892,44.0,120,90,2.0,64.0
893,32.0,120,90,2.0,64.0
894,44.0,120,90,2.0,64.0
895,32.0,120,90,2.0,64.0
896,44.0,120,90,2.0,64.0
897,60.0,0,960,0.0,64.0
898,66.0,0,960,0.0,64.0
899,63.0,96,960,0.0,64.0
900,33.0,120,90,2.0,64.0
901,45.0,120,90,2.0,64.0
902,33.0,120,90,2.0,64.0
903,45.0,120,90,2.0,64.0
904,33.0,120,90,2.0,64.0
905,45.0,120,90,2.0,64.0
906,33.0,120,90,2.0,64.0
907,45.0,24,90,2.0,64.0
908,34.0,48,90,2.0,64.0
909,62.0,72,150,0.0,64.0
910,65.0,0,150,0.0,64.0
911,46.0,120,90,2.0,64.0
912,69.0,72,150,0.0,64.0
913,75.0,0,150,0.0,64.0
914,34.0,48,90,2.0,64.0
915,46.0,120,90,2.0,64.0
916,34.0,48,90,2.0,64.0
917,74.0,0,150,0.0,64.0
918,70.0,72,150,0.0,64.0
919,46.0,120,90,2.0,64.0
920,81.0,0,150,0.0,64.0
921,75.0,72,150,0.0,64.0
922,34.0,48,90,2.0,64.0
923,46.0,120,90,2.0,64.0
924,34.0,48,90,2.0,64.0
925,74.0,72,150,0.0,64.0
926,82.0,0,150,0.0,64.0
927,46.0,120,90,2.0,64.0
928,34.0,48,90,2.0,64.0
929,87.0,72,150,0.0,64.0
930,81.0,0,150,0.0,64.0
931,46.0,120,90,2.0,64.0
932,82.0,0,150,0.0,64.0
933,86.0,72,150,0.0,64.0
934,34.0,48,90,2.0,64.0
935,46.0,120,90,2.0,64.0
936,81.0,0,150,0.0,64.0
937,87.0,72,150,0.0,64.0
938,34.0,48,90,2.0,64.0
939,46.0,120,90,2.0,64.0
940,34.0,48,90,2.0,64.0
941,82.0,0,150,0.0,64.0
942,86.0,72,150,0.0,64.0
943,46.0,120,90,2.0,64.0
944,34.0,120,90,2.0,64.0
945,46.0,120,90,2.0,64.0
946,75.0,96,480,0.0,64.0
947,81.0,0,480,0.0,64.0
948,34.0,120,90,2.0,64.0
949,46.0,120,90,2.0,64.0
950,34.0,120,90,2.0,64.0
951,46.0,24,90,2.0,64.0
952,74.0,24,180,0.0,64.0
953,34.0,96,90,2.0,64.0
954,82.0,0,180,0.0,64.0
955,46.0,120,90,2.0,64.0
956,34.0,120,90,2.0,64.0
957,46.0,120,90,2.0,64.0
958,34.0,120,90,2.0,64.0
959,75.0,0,480,0.0,64.0
960,69.0,96,480,0.0,64.0
961,46.0,120,90,2.0,64.0
962,34.0,120,90,2.0,64.0
963,46.0,24,90,2.0,64.0
964,34.0,96,90,2.0,64.0
965,74.0,24,180,0.0,64.0
966,70.0,0,180,0.0,64.0
967,46.0,120,90,2.0,64.0
968,34.0,120,90,2.0,64.0
969,46.0,120,90,2.0,64.0
970,69.0,96,480,0.0,64.0
971,63.0,0,480,0.0,64.0
972,34.0,120,90,2.0,64.0
973,46.0,120,90,2.0,64.0
974,34.0,120,90,2.0,64.0
975,46.0,24,90,2.0,64.0
976,62.0,24,180,0.0,64.0
977,70.0,0,180,0.0,64.0
978,34.0,96,90,2.0,64.0
979,46.0,120,90,2.0,64.0
980,34.0,120,90,2.0,64.0
981,46.0,120,90,2.0,64.0
982,34.0,120,90,2.0,64.0
983,57.0,0,480,0.0,64.0
984,63.0,144,480,0.0,64.0
985,46.0,120,90,2.0,64.0
986,34.0,120,90,2.0,64.0
987,46.0,24,90,2.0,64.0
988,34.0,288,180,2.0,64.0
989,62.0,48,150,0.0,64.0
990,58.0,0,150,0.0,64.0
991,46.0,0,180,2.0,64.0
992,57.0,240,240,0.0,64.0
993,58.0,240,240,0.0,64.0
994,57.0,240,240,0.0,64.0
995,58.0,240,240,0.0,64.0
996,57.0,240,240,0.0,64.0
997,58.0,240,240,0.0,64.0
998,57.0,384,240,0.0,64.0
999,58.0,96,780,1.0,64.0
1000,63.0,0,180,1.0,64.0
1001,66.0,192,180,1.0,64.0
1002,46.0,48,150,2.0,64.0
1003,66.0,0,180,1.0,64.0
1004,63.0,96,180,1.0,64.0
1005,51.0,48,150,2.0,64.0
1006,63.0,192,180,1.0,64.0
1007,66.0,0,180,1.0,64.0
1008,53.0,48,150,2.0,64.0
1009,54.0,240,150,2.0,64.0
1010,58.0,96,780,1.0,64.0
1011,63.0,0,180,1.0,64.0
1012,70.0,48,150,0.0,64.0
1013,66.0,192,180,1.0,64.0
1014,66.0,96,180,1.0,64.0
1015,63.0,0,180,1.0,64.0
1016,75.0,48,150,0.0,64.0
1017,77.0,48,150,0.0,64.0
1018,66.0,0,180,1.0,64.0
1019,63.0,108,180,1.0,64.0
1020,70.0,372,60,0.0,64.0
1021,58.0,144,780,1.0,64.0
1022,78.0,48,660,0.0,64.0
1023,63.0,0,180,1.0,64.0
1024,66.0,240,180,1.0,64.0
1025,63.0,0,180,1.0,64.0
1026,66.0,48,180,1.0,64.0
1027,66.0,48,180,1.0,64.0
1028,63.0,0,180,1.0,64.0
1029,75.0,60,240,0.0,64.0
1030,58.0,144,780,1.0,64.0
1031,70.0,372,60,0.0,64.0
1032,78.0,48,660,0.0,64.0
1033,63.0,0,180,1.0,64.0
1034,66.0,240,180,1.0,64.0
1035,66.0,0,180,1.0,64.0
1036,63.0,48,180,1.0,64.0
1037,66.0,48,180,1.0,64.0
1038,75.0,192,240,0.0,64.0
1039,63.0,0,180,1.0,64.0
1040,74.0,192,180,0.0,64.0
1041,58.0,96,780,1.0,64.0
1042,46.0,48,150,2.0,64.0
1043,68.0,0,180,1.0,64.0
1044,65.0,192,180,1.0,64.0
1045,68.0,96,180,1.0,64.0
1046,53.0,48,150,2.0,64.0
1047,65.0,0,180,1.0,64.0
1048,65.0,192,180,1.0,64.0
1049,54.0,48,150,2.0,64.0
1050,68.0,0,180,1.0,64.0
1051,58.0,144,780,1.0,64.0
1052,56.0,288,150,2.0,64.0
1053,68.0,0,180,1.0,64.0
1054,70.0,192,240,0.0,64.0
1055,65.0,48,180,1.0,64.0
1056,65.0,0,180,1.0,64.0
1057,80.0,48,240,0.0,64.0
1058,68.0,48,180,1.0,64.0
1059,65.0,0,180,1.0,64.0
1060,68.0,48,180,1.0,64.0
1061,78.0,60,240,0.0,64.0
1062,58.0,144,780,1.0,64.0
1063,80.0,180,60,0.0,64.0
1064,78.0,192,180,0.0,64.0
1065,77.0,108,180,0.0,64.0
1066,68.0,0,180,1.0,64.0
1067,65.0,0,180,1.0,64.0
1068,68.0,48,180,1.0,64.0
1069,78.0,132,60,0.0,64.0
1070,65.0,0,180,1.0,64.0
1071,77.0,48,180,0.0,64.0
1072,75.0,108,180,0.0,64.0
1073,65.0,0,180,1.0,64.0
1074,68.0,0,180,1.0,64.0
1075,77.0,180,60,0.0,64.0
1076,58.0,96,780,1.0,64.0
1077,75.0,144,180,0.0,64.0
1078,68.0,0,180,1.0,64.0
1079,65.0,192,180,1.0,64.0
1080,74.0,48,150,0.0,64.0
1081,68.0,0,180,1.0,64.0
1082,65.0,96,180,1.0,64.0
1083,72.0,48,150,0.0,64.0
1084,68.0,0,180,1.0,64.0
1085,65.0,192,180,1.0,64.0
1086,74.0,48,150,0.0,64.0
1087,58.0,96,780,1.0,64.0
1088,75.0,240,150,0.0,64.0
1089,66.0,192,180,1.0,64.0
1090,63.0,0,180,1.0,64.0
1091,46.0,48,150,2.0,64.0
1092,66.0,0,180,1.0,64.0
1093,63.0,96,180,1.0,64.0
1094,51.0,48,150,2.0,64.0
1095,63.0,0,180,1.0,64.0
1096,66.0,192,180,1.0,64.0
1097,53.0,48,150,2.0,64.0
1098,54.0,288,150,2.0,64.0
1099,58.0,144,780,1.0,64.0
1100,63.0,240,180,1.0,64.0
1101,66.0,0,180,1.0,64.0
1102,70.0,0,180,0.0,64.0
1103,75.0,0,180,0.0,64.0
1104,66.0,96,180,1.0,64.0
1105,63.0,0,180,1.0,64.0
1106,66.0,108,180,1.0,64.0
1107,63.0,0,180,1.0,64.0
1108,77.0,0,180,0.0,64.0
1109,70.0,372,60,0.0,64.0
1110,58.0,144,780,1.0,64.0
1111,78.0,48,660,0.0,64.0
1112,63.0,240,180,1.0,64.0
1113,66.0,0,180,1.0,64.0
1114,66.0,0,180,1.0,64.0
1115,63.0,48,180,1.0,64.0
1116,75.0,60,240,0.0,64.0
1117,63.0,0,180,1.0,64.0
1118,66.0,48,180,1.0,64.0
1119,58.0,144,780,1.0,64.0
1120,70.0,372,60,0.0,64.0
1121,78.0,48,660,0.0,64.0
1122,66.0,240,180,1.0,64.0
1123,63.0,0,180,1.0,64.0
1124,66.0,48,180,1.0,64.0
1125,63.0,0,180,1.0,64.0
1126,63.0,48,180,1.0,64.0
1127,66.0,0,180,1.0,64.0
1128,75.0,192,240,0.0,64.0
1129,56.0,96,780,1.0,64.0
1130,72.0,192,180,0.0,64.0
1131,66.0,0,180,1.0,64.0
1132,63.0,192,180,1.0,64.0
1133,44.0,48,150,2.0,64.0
1134,66.0,0,180,1.0,64.0
1135,51.0,48,150,2.0,64.0
1136,63.0,96,180,1.0,64.0
1137,63.0,0,180,1.0,64.0
1138,66.0,192,180,1.0,64.0
1139,53.0,48,150,2.0,64.0
1140,54.0,288,150,2.0,64.0
1141,56.0,144,780,1.0,64.0
1142,68.0,192,240,0.0,64.0
1143,66.0,0,180,1.0,64.0
1144,63.0,48,180,1.0,64.0
1145,63.0,0,180,1.0,64.0
1146,66.0,48,180,1.0,64.0
1147,78.0,48,240,0.0,64.0
1148,63.0,48,180,1.0,64.0
1149,66.0,0,180,1.0,64.0
1150,77.0,60,240,0.0,64.0
1151,78.0,180,60,0.0,64.0
1152,56.0,144,780,1.0,64.0
1153,77.0,192,180,0.0,64.0
1154,75.0,108,180,0.0,64.0
1155,63.0,0,180,1.0,64.0
1156,66.0,0,180,1.0,64.0
1157,77.0,132,60,0.0,64.0
1158,63.0,48,180,1.0,64.0
1159,66.0,0,180,1.0,64.0
1160,75.0,48,180,0.0,64.0
1161,66.0,96,180,1.0,64.0
1162,73.0,0,180,0.0,64.0
1163,63.0,0,180,1.0,64.0
1164,56.0,96,780,1.0,64.0
1165,75.0,192,40,0.0,64.0
1166,73.0,144,180,0.0,64.0
1167,72.0,48,150,0.0,64.0
1168,66.0,192,180,1.0,64.0
1169,63.0,0,180,1.0,64.0
1170,70.0,48,150,0.0,64.0
1171,66.0,0,180,1.0,64.0
1172,63.0,96,180,1.0,64.0
1173,63.0,192,180,1.0,64.0
1174,66.0,0,180,1.0,64.0
1175,72.0,48,150,0.0,64.0
1176,56.0,96,780,1.0,64.0
1177,73.0,240,150,0.0,64.0
1178,65.0,192,180,1.0,64.0
1179,61.0,0,180,1.0,64.0
1180,44.0,48,150,2.0,64.0
1181,49.0,48,150,2.0,64.0
1182,61.0,96,180,1.0,64.0
1183,65.0,0,180,1.0,64.0
1184,61.0,0,180,1.0,64.0
1185,51.0,48,150,2.0,64.0
1186,65.0,192,180,1.0,64.0
1187,56.0,96,780,1.0,64.0
1188,53.0,240,150,2.0,64.0
1189,61.0,192,180,1.0,64.0
1190,65.0,0,180,1.0,64.0
1191,68.0,48,150,0.0,64.0
1192,61.0,96,180,1.0,64.0
1193,65.0,0,180,1.0,64.0
1194,73.0,48,150,0.0,64.0
1195,75.0,48,150,0.0,64.0
1196,61.0,108,180,1.0,64.0
1197,65.0,0,180,1.0,64.0
1198,68.0,372,60,0.0,64.0
1199,56.0,144,780,1.0,64.0
1200,77.0,48,660,0.0,64.0
1201,61.0,240,180,1.0,64.0
1202,65.0,0,180,1.0,64.0
1203,61.0,48,180,1.0,64.0
1204,65.0,0,180,1.0,64.0
1205,73.0,60,240,0.0,64.0
1206,61.0,0,180,1.0,64.0
1207,65.0,48,180,1.0,64.0
1208,56.0,144,780,1.0,64.0
1209,68.0,372,60,0.0,64.0
1210,77.0,48,660,0.0,64.0
1211,61.0,0,180,1.0,64.0
1212,65.0,240,180,1.0,64.0
1213,65.0,0,180,1.0,64.0
1214,61.0,48,180,1.0,64.0
1215,61.0,0,180,1.0,64.0
1216,73.0,192,240,0.0,64.0
1217,65.0,48,180,1.0,64.0
1218,56.0,96,780,1.0,64.0
1219,72.0,192,180,0.0,64.0
1220,44.0,48,150,2.0,64.0
1221,66.0,192,180,1.0,64.0
1222,63.0,0,180,1.0,64.0
1223,51.0,48,150,2.0,64.0
1224,63.0,96,180,1.0,64.0
1225,66.0,0,180,1.0,64.0
1226,63.0,0,180,1.0,64.0
1227,66.0,192,180,1.0,64.0
1228,53.0,48,150,2.0,64.0
1229,56.0,144,780,1.0,64.0
1230,54.0,288,150,2.0,64.0
1231,68.0,192,240,0.0,64.0
1232,63.0,0,180,1.0,64.0
1233,66.0,48,180,1.0,64.0
1234,63.0,48,180,1.0,64.0
1235,66.0,0,180,1.0,64.0
1236,78.0,48,240,0.0,64.0
1237,63.0,0,180,1.0,64.0
1238,77.0,60,240,0.0,64.0
1239,66.0,48,180,1.0,64.0
1240,56.0,144,780,1.0,64.0
1241,78.0,180,60,0.0,64.0
1242,77.0,192,180,0.0,64.0
1243,63.0,0,180,1.0,64.0
1244,66.0,108,180,1.0,64.0
1245,75.0,0,180,0.0,64.0
1246,66.0,0,180,1.0,64.0
1247,77.0,132,60,0.0,64.0
1248,63.0,48,180,1.0,64.0
1249,75.0,48,180,0.0,64.0
1250,66.0,0,180,1.0,64.0
1251,63.0,0,180,1.0,64.0
1252,73.0,96,180,0.0,64.0
1253,56.0,96,780,1.0,64.0
1254,75.0,192,40,0.0,64.0
1255,73.0,192,180,0.0,64.0
1256,72.0,0,180,0.0,64.0
1257,63.0,0,180,1.0,64.0
1258,66.0,192,180,1.0,64.0
1259,70.0,48,150,0.0,64.0
1260,63.0,96,180,1.0,64.0
1261,66.0,0,180,1.0,64.0
1262,63.0,240,180,1.0,64.0
1263,66.0,0,180,1.0,64.0
1264,72.0,48,150,0.0,64.0
1265,73.0,192,180,0.0,64.0
1266,61.0,48,390,1.0,64.0
1267,49.0,240,240,2.0,64.0
1268,68.0,0,180,1.0,64.0
1269,65.0,48,180,1.0,64.0
1270,59.0,48,390,1.0,64.0
1271,56.0,144,240,2.0,64.0
1272,47.0,192,240,2.0,64.0
1273,68.0,0,180,1.0,64.0
1274,65.0,48,180,1.0,64.0
1275,58.0,144,780,1.0,64.0
1276,46.0,240,180,2.0,64.0
1277,68.0,0,180,1.0,64.0
1278,65.0,240,180,1.0,64.0
1279,70.0,0,180,0.0,64.0
1280,68.0,0,180,1.0,64.0
1281,65.0,0,180,1.0,64.0
1282,80.0,96,180,0.0,64.0
1283,78.0,0,180,0.0,64.0
1284,65.0,108,180,1.0,64.0
1285,68.0,0,180,1.0,64.0
1286,80.0,180,60,0.0,64.0
1287,58.0,144,780,1.0,64.0
1288,78.0,192,180,0.0,64.0
1289,77.0,108,180,0.0,64.0
1290,65.0,0,180,1.0,64.0
1291,68.0,0,180,1.0,64.0
1292,68.0,48,180,1.0,64.0
1293,65.0,0,180,1.0,64.0
1294,78.0,132,60,0.0,64.0
1295,77.0,48,180,0.0,64.0
1296,75.0,0,180,0.0,64.0
1297,65.0,108,180,1.0,64.0
1298,68.0,0,180,1.0,64.0
1299,77.0,180,60,0.0,64.0
1300,58.0,96,780,1.0,64.0
1301,75.0,144,180,0.0,64.0
1302,68.0,192,180,1.0,64.0
1303,65.0,0,180,1.0,64.0
1304,74.0,48,150,0.0,64.0
1305,68.0,0,180,1.0,64.0
1306,72.0,48,150,0.0,64.0
1307,65.0,96,180,1.0,64.0
1308,74.0,48,150,0.0,64.0
1309,65.0,0,180,1.0,64.0
1310,68.0,192,180,1.0,64.0
1311,63.0,48,390,1.0,64.0
1312,75.0,240,150,0.0,64.0
1313,66.0,48,180,1.0,64.0
1314,51.0,240,240,2.0,64.0
1315,70.0,0,180,1.0,64.0
1316,58.0,144,240,2.0,64.0
1317,61.0,48,390,1.0,64.0
1318,70.0,0,180,1.0,64.0
1319,65.0,48,180,1.0,64.0
1320,49.0,192,240,2.0,64.0
1321,60.0,144,780,1.0,64.0
1322,48.0,240,180,2.0,64.0
1323,72.0,0,180,0.0,64.0
1324,67.0,240,180,1.0,64.0
1325,70.0,0,180,1.0,64.0
1326,82.0,96,180,0.0,64.0
1327,70.0,0,180,1.0,64.0
1328,67.0,0,180,1.0,64.0
1329,70.0,0,180,1.0,64.0
1330,67.0,108,180,1.0,64.0
1331,80.0,0,180,0.0,64.0
1332,82.0,180,60,0.0,64.0
1333,60.0,144,780,1.0,64.0
1334,80.0,192,180,0.0,64.0
1335,79.0,0,180,0.0,64.0
1336,67.0,108,180,1.0,64.0
1337,70.0,0,180,1.0,64.0
1338,80.0,132,60,0.0,64.0
1339,70.0,0,180,1.0,64.0
1340,67.0,48,180,1.0,64.0
1341,79.0,48,180,0.0,64.0
1342,67.0,0,180,1.0,64.0
1343,70.0,108,180,1.0,64.0
1344,77.0,0,180,0.0,64.0
1345,79.0,180,60,0.0,64.0
1346,60.0,144,780,1.0,64.0
1347,77.0,192,180,0.0,64.0
1348,67.0,0,180,1.0,64.0
1349,76.0,240,180,0.0,64.0
1350,70.0,0,180,1.0,64.0
1351,67.0,0,180,1.0,64.0
1352,74.0,48,240,0.0,64.0
1353,70.0,48,180,1.0,64.0
1354,70.0,108,180,1.0,64.0
1355,67.0,0,180,1.0,64.0
1356,76.0,0,180,0.0,64.0
1357,80.0,180,60,0.0,64.0
1358,65.0,144,780,1.0,64.0
1359,79.0,192,180,0.0,64.0
1360,72.0,0,180,1.0,64.0
1361,68.0,108,180,1.0,64.0
1362,77.0,0,180,0.0,64.0
1363,68.0,48,180,1.0,64.0
1364,72.0,0,180,1.0,64.0
1365,79.0,132,60,0.0,64.0
1366,77.0,48,180,0.0,64.0
1367,72.0,0,180,1.0,64.0
1368,75.0,0,180,0.0,64.0
1369,68.0,108,180,1.0,64.0
1370,58.0,192,480,1.0,64.0
1371,77.0,180,60,0.0,64.0
1372,75.0,192,180,0.0,64.0
1373,68.0,0,180,1.0,64.0
1374,74.0,48,180,0.0,64.0
1375,65.0,0,180,1.0,64.0
1376,65.0,0,180,1.0,64.0
1377,59.0,60,480,1.0,64.0
1378,68.0,48,180,1.0,64.0
1379,72.0,192,240,0.0,64.0
1380,68.0,48,180,1.0,64.0
1381,74.0,0,180,0.0,64.0
1382,65.0,0,180,1.0,64.0
1383,79.0,180,60,0.0,64.0
1384,60.0,144,780,1.0,64.0
1385,77.0,192,180,0.0,64.0
1386,75.0,0,180,0.0,64.0
1387,63.0,0,180,1.0,64.0
1388,67.0,108,180,1.0,64.0
1389,63.0,48,180,1.0,64.0
1390,67.0,0,180,1.0,64.0
1391,77.0,132,60,0.0,64.0
1392,75.0,48,180,0.0,64.0
1393,63.0,0,180,1.0,64.0
1394,67.0,108,180,1.0,64.0
1395,74.0,0,180,0.0,64.0
1396,56.0,144,780,1.0,64.0
1397,75.0,180,60,0.0,64.0
1398,74.0,192,180,0.0,64.0
1399,65.0,108,180,1.0,64.0
1400,63.0,0,180,1.0,64.0
1401,72.0,0,180,0.0,64.0
1402,74.0,132,60,0.0,64.0
1403,65.0,48,180,1.0,64.0
1404,63.0,0,180,1.0,64.0
1405,72.0,48,180,0.0,64.0
1406,71.0,108,180,0.0,64.0
1407,63.0,0,180,1.0,64.0
1408,65.0,0,180,1.0,64.0
1409,58.0,96,780,1.0,64.0
1410,74.0,180,60,0.0,64.0
1411,72.0,144,180,0.0,64.0
1412,67.0,192,180,1.0,64.0
1413,63.0,0,180,1.0,64.0
1414,70.0,48,150,0.0,64.0
1415,70.0,48,150,0.0,64.0
1416,67.0,96,180,1.0,64.0
1417,63.0,0,180,1.0,64.0
1418,63.0,0,180,1.0,64.0
1419,67.0,108,180,1.0,64.0
1420,70.0,48,150,0.0,64.0
1421,58.0,96,780,1.0,64.0
1422,74.0,180,60,0.0,64.0
1423,72.0,144,180,0.0,64.0
1424,62.0,192,180,1.0,64.0
1425,65.0,0,180,1.0,64.0
1426,70.0,48,150,0.0,64.0
1427,62.0,0,180,1.0,64.0
1428,65.0,96,180,1.0,64.0
1429,70.0,48,150,0.0,64.0
1430,70.0,48,150,0.0,64.0
1431,62.0,264,180,1.0,64.0
1432,65.0,0,180,1.0,64.0
1433,51.0,72,1350,2.0,64.0
1434,63.0,120,90,1.0,64.0
1435,58.0,0,90,1.0,64.0
1436,55.0,0,90,1.0,64.0
1437,67.0,120,90,1.0,64.0
1438,63.0,120,90,1.0,64.0
1439,58.0,0,90,1.0,64.0
1440,55.0,120,90,1.0,64.0
1441,75.0,0,870,0.0,64.0
1442,58.0,0,90,1.0,64.0
1443,63.0,120,90,1.0,64.0
1444,67.0,0,90,1.0,64.0
1445,55.0,120,90,1.0,64.0
1446,58.0,120,90,1.0,64.0
1447,63.0,0,90,1.0,64.0
1448,55.0,120,90,1.0,64.0
1449,67.0,0,90,1.0,64.0
1450,58.0,120,90,1.0,64.0
1451,63.0,0,90,1.0,64.0
1452,55.0,48,90,1.0,64.0
1453,67.0,0,90,1.0,64.0
1454,63.0,0,90,1.0,64.0
1455,58.0,240,90,1.0,64.0
1456,75.0,72,390,0.0,64.0
1457,51.0,0,390,2.0,64.0
1458,63.0,120,90,1.0,64.0
1459,58.0,0,90,1.0,64.0
1460,55.0,0,90,1.0,64.0
1461,67.0,48,90,1.0,64.0
1462,63.0,0,90,1.0,64.0
1463,58.0,240,90,1.0,64.0
1464,49.0,0,1350,2.0,64.0
1465,58.0,0,90,1.0,64.0
1466,63.0,120,90,1.0,64.0
1467,55.0,120,90,1.0,64.0
1468,67.0,0,90,1.0,64.0
1469,63.0,0,90,1.0,64.0
1470,58.0,120,90,1.0,64.0
1471,55.0,120,90,1.0,64.0
1472,75.0,72,870,0.0,64.0
1473,58.0,120,90,1.0,64.0
1474,63.0,0,90,1.0,64.0
1475,55.0,120,90,1.0,64.0
1476,67.0,0,90,1.0,64.0
1477,58.0,0,90,1.0,64.0
1478,63.0,120,90,1.0,64.0
1479,55.0,120,90,1.0,64.0
1480,67.0,0,90,1.0,64.0
1481,63.0,120,90,1.0,64.0
1482,58.0,0,90,1.0,64.0
1483,55.0,0,90,1.0,64.0
1484,67.0,48,90,1.0,64.0
1485,58.0,0,90,1.0,64.0
1486,63.0,240,90,1.0,64.0
1487,75.0,72,390,0.0,64.0
1488,49.0,0,390,2.0,64.0
1489,63.0,0,90,1.0,64.0
1490,58.0,120,90,1.0,64.0
1491,67.0,0,90,1.0,64.0
1492,55.0,48,90,1.0,64.0
1493,63.0,96,90,1.0,64.0
1494,58.0,0,90,1.0,64.0
1495,48.0,0,60,2.0,64.0
1496,75.0,144,60,0.0,64.0
1497,56.0,0,90,2.0,64.0
1498,63.0,120,90,0.0,64.0
1499,51.0,0,90,2.0,64.0
1500,68.0,120,90,0.0,64.0
1501,63.0,0,90,0.0,64.0
1502,56.0,96,90,2.0,64.0
1503,76.0,144,60,0.0,64.0
1504,46.0,0,60,2.0,64.0
1505,55.0,0,90,2.0,64.0
1506,64.0,120,90,0.0,64.0
1507,72.0,0,90,0.0,64.0
1508,48.0,120,90,2.0,64.0
1509,64.0,96,90,0.0,64.0
1510,55.0,0,90,2.0,64.0
1511,44.0,144,60,2.0,64.0
1512,77.0,0,60,0.0,64.0
1513,56.0,0,90,2.0,64.0
1514,65.0,120,90,0.0,64.0
1515,48.0,0,90,2.0,64.0
1516,72.0,120,90,0.0,64.0
1517,65.0,0,90,0.0,64.0
1518,56.0,96,90,2.0,64.0
1519,79.0,144,60,0.0,64.0
1520,43.0,0,60,2.0,64.0
1521,67.0,0,90,0.0,64.0
1522,55.0,120,90,2.0,64.0
1523,48.0,0,90,2.0,64.0
1524,72.0,120,90,0.0,64.0
1525,55.0,0,90,2.0,64.0
1526,67.0,96,90,0.0,64.0
1527,41.0,0,60,2.0,64.0
1528,80.0,144,60,0.0,64.0
1529,68.0,0,90,0.0,64.0
1530,53.0,120,90,2.0,64.0
1531,72.0,120,90,0.0,64.0
1532,48.0,0,90,2.0,64.0
1533,68.0,96,90,0.0,64.0
1534,53.0,0,90,2.0,64.0
1535,81.0,144,60,0.0,64.0
1536,39.0,0,60,2.0,64.0
1537,51.0,0,90,2.0,64.0
1538,69.0,120,90,0.0,64.0
1539,72.0,120,90,0.0,64.0
1540,41.0,0,90,2.0,64.0
1541,51.0,96,90,2.0,64.0
1542,69.0,0,90,0.0,64.0
1543,82.0,0,60,0.0,64.0
1544,38.0,144,60,2.0,64.0
1545,70.0,0,90,0.0,64.0
1546,50.0,120,90,2.0,64.0
1547,41.0,120,90,2.0,64.0
1548,77.0,0,90,0.0,64.0
1549,70.0,0,90,0.0,64.0
1550,50.0,96,90,2.0,64.0
1551,84.0,0,60,0.0,64.0
1552,36.0,144,60,2.0,64.0
1553,72.0,0,90,0.0,64.0
1554,48.0,120,90,2.0,64.0
1555,41.0,0,90,2.0,64.0
1556,77.0,120,90,0.0,64.0
1557,48.0,96,90,2.0,64.0
1558,72.0,0,90,0.0,64.0
1559,34.0,144,60,2.0,64.0
1560,85.0,0,60,0.0,64.0
1561,73.0,0,90,0.0,64.0
1562,46.0,120,90,2.0,64.0
1563,77.0,0,90,0.0,64.0
1564,41.0,120,90,2.0,64.0
1565,73.0,0,90,0.0,64.0
1566,46.0,96,90,2.0,64.0
1567,86.0,144,60,0.0,64.0
1568,32.0,0,60,2.0,64.0
1569,74.0,0,90,0.0,64.0
1570,44.0,120,90,2.0,64.0
1571,41.0,120,90,2.0,64.0
1572,77.0,0,90,0.0,64.0
1573,44.0,96,90,2.0,64.0
1574,74.0,0,90,0.0,64.0
1575,87.0,144,60,0.0,64.0
1576,31.0,0,60,2.0,64.0
1577,75.0,120,90,0.0,64.0
1578,43.0,0,90,2.0,64.0
1579,82.0,0,90,0.0,64.0
1580,39.0,120,90,2.0,64.0
1581,43.0,0,90,2.0,64.0
1582,75.0,96,90,0.0,64.0
1583,31.0,144,60,2.0,64.0
1584,83.0,0,60,0.0,64.0
1585,43.0,120,90,2.0,64.0
1586,71.0,0,90,0.0,64.0
1587,75.0,0,90,0.0,64.0
1588,39.0,120,90,2.0,64.0
1589,71.0,0,90,0.0,64.0
1590,43.0,168,90,2.0,64.0
1591,44.0,72,150,2.0,64.0
1592,32.0,0,150,2.0,64.0
1593,72.0,120,90,0.0,64.0
1594,75.0,120,90,0.0,64.0
1595,72.0,96,90,0.0,64.0
1596,84.0,144,60,0.0,64.0
1597,72.0,120,90,0.0,64.0
1598,75.0,120,90,0.0,64.0
1599,72.0,168,90,0.0,64.0
1600,46.0,72,150,2.0,64.0
1601,34.0,0,150,2.0,64.0
1602,65.0,120,90,0.0,64.0
1603,68.0,120,90,0.0,64.0
1604,65.0,96,90,0.0,64.0
1605,74.0,144,60,0.0,64.0
1606,65.0,120,90,0.0,64.0
1607,68.0,120,90,0.0,64.0
1608,65.0,240,90,0.0,64.0
1609,51.0,0,1350,2.0,64.0
1610,63.0,120,90,1.0,64.0
1611,58.0,0,90,1.0,64.0
1612,67.0,0,90,1.0,64.0
1613,55.0,120,90,1.0,64.0
1614,58.0,120,90,1.0,64.0
1615,63.0,0,90,1.0,64.0
1616,75.0,72,870,0.0,64.0
1617,55.0,120,90,1.0,64.0
1618,58.0,0,90,1.0,64.0
1619,63.0,120,90,1.0,64.0
1620,67.0,120,90,1.0,64.0
1621,55.0,0,90,1.0,64.0
1622,63.0,0,90,1.0,64.0
1623,58.0,120,90,1.0,64.0
1624,55.0,0,90,1.0,64.0
1625,67.0,120,90,1.0,64.0
1626,63.0,120,90,1.0,64.0
1627,58.0,0,90,1.0,64.0
1628,67.0,48,90,1.0,64.0
1629,55.0,0,90,1.0,64.0
1630,58.0,240,90,1.0,64.0
1631,63.0,0,90,1.0,64.0
1632,51.0,0,390,2.0,64.0
1633,75.0,72,390,0.0,64.0
1634,58.0,0,90,1.0,64.0
1635,63.0,120,90,1.0,64.0
1636,55.0,48,90,1.0,64.0
1637,67.0,0,90,1.0,64.0
1638,58.0,240,90,1.0,64.0
1639,63.0,0,90,1.0,64.0
1640,49.0,72,1350,2.0,64.0
1641,58.0,120,90,1.0,64.0
1642,63.0,0,90,1.0,64.0
1643,67.0,120,90,1.0,64.0
1644,55.0,0,90,1.0,64.0
1645,58.0,120,90,1.0,64.0
1646,63.0,0,90,1.0,64.0
1647,55.0,120,90,1.0,64.0
1648,75.0,0,870,0.0,64.0
1649,63.0,0,90,1.0,64.0
1650,58.0,120,90,1.0,64.0
1651,67.0,0,90,1.0,64.0
1652,55.0,120,90,1.0,64.0
1653,58.0,120,90,1.0,64.0
1654,63.0,0,90,1.0,64.0
1655,67.0,0,90,1.0,64.0
1656,55.0,120,90,1.0,64.0
1657,63.0,0,90,1.0,64.0
1658,58.0,120,90,1.0,64.0
1659,67.0,48,90,1.0,64.0
1660,55.0,0,90,1.0,64.0
1661,63.0,0,90,1.0,64.0
1662,58.0,240,90,1.0,64.0
1663,75.0,0,390,0.0,64.0
1664,49.0,72,390,2.0,64.0
1665,58.0,0,90,1.0,64.0
1666,63.0,120,90,1.0,64.0
1667,67.0,48,90,1.0,64.0
1668,55.0,0,90,1.0,64.0
1669,63.0,96,90,1.0,64.0
1670,58.0,0,90,1.0,64.0
1671,48.0,0,60,2.0,64.0
1672,75.0,144,60,0.0,64.0
1673,56.0,0,90,2.0,64.0
1674,63.0,120,90,0.0,64.0
1675,51.0,0,90,2.0,64.0
1676,68.0,120,90,0.0,64.0
1677,56.0,0,90,2.0,64.0
1678,63.0,96,90,0.0,64.0
1679,76.0,144,60,0.0,64.0
1680,46.0,0,60,2.0,64.0
1681,64.0,0,90,0.0,64.0
1682,55.0,120,90,2.0,64.0
1683,72.0,120,90,0.0,64.0
1684,48.0,0,90,2.0,64.0
1685,64.0,0,90,0.0,64.0
1686,55.0,96,90,2.0,64.0
1687,44.0,0,60,2.0,64.0
1688,77.0,144,60,0.0,64.0
1689,56.0,120,90,2.0,64.0
1690,65.0,0,90,0.0,64.0
1691,72.0,0,90,0.0,64.0
1692,48.0,120,90,2.0,64.0
1693,65.0,0,90,0.0,64.0
1694,56.0,96,90,2.0,64.0
1695,79.0,144,60,0.0,64.0
1696,43.0,0,60,2.0,64.0
1697,55.0,0,90,2.0,64.0
1698,67.0,120,90,0.0,64.0
1699,48.0,0,90,2.0,64.0
1700,72.0,120,90,0.0,64.0
1701,55.0,0,90,2.0,64.0
1702,67.0,96,90,0.0,64.0
1703,41.0,0,60,2.0,64.0
1704,80.0,144,60,0.0,64.0
1705,68.0,0,90,0.0,64.0
1706,53.0,120,90,2.0,64.0
1707,72.0,0,90,0.0,64.0
1708,48.0,120,90,2.0,64.0
1709,68.0,0,90,0.0,64.0
1710,53.0,96,90,2.0,64.0
1711,81.0,144,60,0.0,64.0
1712,39.0,0,60,2.0,64.0
1713,51.0,120,90,2.0,64.0
1714,69.0,0,90,0.0,64.0
1715,72.0,0,90,0.0,64.0
1716,41.0,120,90,2.0,64.0
1717,69.0,96,90,0.0,64.0
1718,51.0,0,90,2.0,64.0
1719,38.0,0,60,2.0,64.0
1720,82.0,144,60,0.0,64.0
1721,70.0,120,90,0.0,64.0
1722,50.0,0,90,2.0,64.0
1723,77.0,0,90,0.0,64.0
1724,41.0,120,90,2.0,64.0
1725,70.0,96,90,0.0,64.0
1726,50.0,0,90,2.0,64.0
1727,36.0,0,60,2.0,64.0
1728,84.0,144,60,0.0,64.0
1729,48.0,0,90,2.0,64.0
1730,72.0,120,90,0.0,64.0
1731,41.0,0,90,2.0,64.0
1732,77.0,120,90,0.0,64.0
1733,48.0,0,90,2.0,64.0
1734,72.0,96,90,0.0,64.0
1735,85.0,0,60,0.0,64.0
1736,34.0,144,60,2.0,64.0
1737,46.0,120,90,2.0,64.0
1738,73.0,0,90,0.0,64.0
1739,77.0,0,90,0.0,64.0
1740,41.0,120,90,2.0,64.0
1741,73.0,0,90,0.0,64.0
1742,46.0,96,90,2.0,64.0
1743,86.0,0,60,0.0,64.0
1744,32.0,144,60,2.0,64.0
1745,74.0,0,90,0.0,64.0
1746,44.0,120,90,2.0,64.0
1747,77.0,0,90,0.0,64.0
1748,41.0,120,90,2.0,64.0
1749,74.0,96,90,0.0,64.0
1750,44.0,0,90,2.0,64.0
1751,87.0,144,60,0.0,64.0
1752,31.0,0,60,2.0,64.0
1753,43.0,120,90,2.0,64.0
1754,75.0,0,90,0.0,64.0
1755,39.0,120,90,2.0,64.0
1756,82.0,0,90,0.0,64.0
1757,75.0,0,90,0.0,64.0
1758,43.0,96,90,2.0,64.0
1759,88.0,0,60,0.0,64.0
1760,31.0,144,60,2.0,64.0
1761,76.0,120,90,0.0,64.0
1762,43.0,0,90,2.0,64.0
1763,31.0,0,90,2.0,64.0
1764,82.0,120,90,0.0,64.0
1765,43.0,0,90,2.0,64.0
1766,76.0,168,90,0.0,64.0
1767,44.0,72,150,2.0,64.0
1768,32.0,0,150,2.0,64.0
1769,80.0,120,90,0.0,64.0
1770,84.0,120,90,0.0,64.0
1771,80.0,96,90,0.0,64.0
1772,89.0,144,60,0.0,64.0
1773,80.0,120,90,0.0,64.0
1774,84.0,120,90,0.0,64.0
1775,80.0,168,90,0.0,64.0
1776,34.0,0,150,2.0,64.0
1777,46.0,72,150,2.0,64.0
1778,77.0,120,90,0.0,64.0
1779,80.0,120,90,0.0,64.0
1780,77.0,96,90,0.0,64.0
1781,86.0,144,60,0.0,64.0
1782,77.0,120,90,0.0,64.0
1783,80.0,120,90,0.0,64.0
1784,77.0,168,90,0.0,64.0
1785,75.0,48,150,0.0,64.0
1786,51.0,0,180,2.0,64.0
1787,39.0,240,180,2.0,64.0
1788,87.0,120,480,0.0,64.0
1789,67.0,0,180,1.0,64.0
1790,63.0,240,180,1.0,64.0
1791,67.0,48,180,1.0,64.0
1792,63.0,0,180,1.0,64.0
1793,67.0,48,180,1.0,64.0
1794,63.0,0,180,1.0,64.0
1795,86.0,72,120,0.0,64.0
1796,87.0,120,120,0.0,64.0
1797,60.0,72,780,1.0,64.0
1798,89.0,120,120,0.0,64.0
1799,87.0,120,120,0.0,64.0
1800,67.0,48,180,1.0,64.0
1801,86.0,72,120,0.0,64.0
1802,63.0,0,180,1.0,64.0
1803,84.0,120,120,0.0,64.0
1804,67.0,0,180,1.0,64.0
1805,63.0,48,180,1.0,64.0
1806,83.0,72,120,0.0,64.0
1807,84.0,48,120,0.0,64.0
1808,67.0,0,180,1.0,64.0
1809,63.0,48,180,1.0,64.0
1810,86.0,72,120,0.0,64.0
1811,84.0,120,120,0.0,64.0
1812,56.0,72,780,1.0,64.0
1813,82.0,120,120,0.0,64.0
1814,80.0,120,120,0.0,64.0
1815,79.0,72,120,0.0,64.0
1816,65.0,48,180,1.0,64.0
1817,63.0,0,180,1.0,64.0
1818,77.0,120,120,0.0,64.0
1819,76.0,72,120,0.0,64.0
1820,65.0,48,180,1.0,64.0
1821,63.0,0,180,1.0,64.0
1822,77.0,48,120,0.0,64.0
1823,79.0,72,120,0.0,64.0
1824,63.0,0,180,1.0,64.0
1825,65.0,48,180,1.0,64.0
1826,77.0,120,120,0.0,64.0
1827,75.0,120,120,0.0,64.0
1828,58.0,72,780,1.0,64.0
1829,74.0,120,120,0.0,64.0
1830,65.0,48,180,1.0,64.0
1831,62.0,0,180,1.0,64.0
1832,72.0,72,120,0.0,64.0
1833,70.0,120,120,0.0,64.0
1834,62.0,48,180,1.0,64.0
1835,69.0,72,120,0.0,64.0
1836,65.0,0,180,1.0,64.0
1837,70.0,48,120,0.0,64.0
1838,72.0,72,120,0.0,64.0
1839,62.0,48,180,1.0,64.0
1840,65.0,0,180,1.0,64.0
1841,68.0,144,120,0.0,64.0
1842,67.0,288,150,0.0,64.0
1843,51.0,72,780,2.0,64.0
1844,63.0,240,180,1.0,64.0
1845,55.0,0,180,1.0,64.0
1846,87.0,0,480,0.0,64.0
1847,75.0,48,480,0.0,64.0
1848,63.0,0,180,1.0,64.0
1849,55.0,48,180,1.0,64.0
1850,86.0,72,120,0.0,64.0
1851,55.0,0,180,1.0,64.0
1852,63.0,48,180,1.0,64.0
1853,87.0,120,120,0.0,64.0
1854,89.0,120,120,0.0,64.0
1855,48.0,72,780,2.0,64.0
1856,87.0,120,120,0.0,64.0
1857,86.0,72,120,0.0,64.0
1858,51.0,48,180,1.0,64.0
1859,60.0,0,180,1.0,64.0
1860,55.0,0,180,1.0,64.0
1861,84.0,120,120,0.0,64.0
1862,83.0,72,120,0.0,64.0
1863,55.0,48,180,1.0,64.0
1864,60.0,0,180,1.0,64.0
1865,51.0,0,180,1.0,64.0
1866,84.0,48,120,0.0,64.0
1867,86.0,72,120,0.0,64.0
1868,51.0,0,180,1.0,64.0
1869,55.0,48,180,1.0,64.0
1870,60.0,0,180,1.0,64.0
1871,84.0,120,120,0.0,64.0
1872,82.0,120,120,0.0,64.0
1873,44.0,72,780,2.0,64.0
1874,80.0,120,120,0.0,64.0
1875,51.0,0,180,1.0,64.0
1876,79.0,72,120,0.0,64.0
1877,56.0,48,180,1.0,64.0
1878,53.0,0,180,1.0,64.0
1879,77.0,120,120,0.0,64.0
1880,51.0,0,180,1.0,64.0
1881,76.0,72,120,0.0,64.0
1882,53.0,48,180,1.0,64.0
1883,56.0,0,180,1.0,64.0
1884,77.0,48,120,0.0,64.0
1885,56.0,0,180,1.0,64.0
1886,51.0,48,180,1.0,64.0
1887,53.0,0,180,1.0,64.0
1888,79.0,72,120,0.0,64.0
1889,77.0,120,120,0.0,64.0
1890,75.0,120,120,0.0,64.0
1891,46.0,72,780,2.0,64.0
1892,74.0,120,120,0.0,64.0
1893,72.0,72,120,0.0,64.0
1894,58.0,48,180,1.0,64.0
1895,50.0,0,180,1.0,64.0
1896,53.0,0,180,1.0,64.0
1897,70.0,120,120,0.0,64.0
1898,50.0,48,180,1.0,64.0
1899,69.0,72,120,0.0,64.0
1900,53.0,0,180,1.0,64.0
1901,58.0,0,180,1.0,64.0
1902,70.0,48,120,0.0,64.0
1903,58.0,0,180,1.0,64.0
1904,50.0,48,180,1.0,64.0
1905,53.0,0,180,1.0,64.0
1906,72.0,72,120,0.0,64.0
1907,70.0,96,120,0.0,64.0
1908,39.0,48,90,2.0,64.0
1909,75.0,72,150,0.0,64.0
1910,51.0,120,90,2.0,64.0
1911,39.0,120,90,2.0,64.0
1912,63.0,72,390,0.0,64.0
1913,51.0,120,90,2.0,64.0
1914,39.0,48,90,2.0,64.0
1915,51.0,120,90,2.0,64.0
1916,39.0,48,90,2.0,64.0
1917,61.0,0,150,0.0,64.0
1918,67.0,72,150,0.0,64.0
1919,51.0,120,90,2.0,64.0
1920,60.0,0,150,0.0,64.0
1921,39.0,48,90,2.0,64.0
1922,68.0,72,150,0.0,64.0
1923,51.0,120,90,2.0,64.0
1924,39.0,48,90,2.0,64.0
1925,67.0,72,150,0.0,64.0
1926,70.0,0,150,0.0,64.0
1927,51.0,120,90,2.0,64.0
1928,68.0,0,150,0.0,64.0
1929,72.0,72,150,0.0,64.0
1930,39.0,48,90,2.0,64.0
1931,51.0,120,90,2.0,64.0
1932,74.0,72,150,0.0,64.0
1933,68.0,0,150,0.0,64.0
1934,39.0,48,90,2.0,64.0
1935,51.0,120,90,2.0,64.0
1936,75.0,72,150,0.0,64.0
1937,39.0,48,90,2.0,64.0
1938,67.0,0,150,0.0,64.0
1939,51.0,120,90,2.0,64.0
1940,75.0,72,390,0.0,64.0
1941,39.0,120,90,2.0,64.0
1942,51.0,120,90,2.0,64.0
1943,39.0,48,90,2.0,64.0
1944,51.0,120,90,2.0,64.0
1945,79.0,72,150,0.0,64.0
1946,73.0,0,150,0.0,64.0
1947,39.0,48,90,2.0,64.0
1948,51.0,120,90,2.0,64.0
1949,39.0,48,90,2.0,64.0
1950,80.0,0,150,0.0,64.0
1951,72.0,72,150,0.0,64.0
1952,51.0,120,90,2.0,64.0
1953,82.0,72,150,0.0,64.0
1954,39.0,48,90,2.0,64.0
1955,79.0,0,150,0.0,64.0
1956,51.0,120,90,2.0,64.0
1957,84.0,0,150,0.0,64.0
1958,39.0,48,90,2.0,64.0
1959,80.0,72,150,0.0,64.0
1960,51.0,120,90,2.0,64.0
1961,39.0,48,90,2.0,64.0
1962,80.0,72,150,0.0,64.0
1963,86.0,0,150,0.0,64.0
1964,51.0,120,90,2.0,64.0
1965,87.0,0,780,0.0,64.0
1966,79.0,48,780,0.0,64.0
1967,39.0,120,90,2.0,64.0
1968,51.0,120,90,2.0,64.0
1969,39.0,120,90,2.0,64.0
1970,51.0,120,90,2.0,64.0
1971,39.0,120,90,2.0,64.0
1972,51.0,72,90,2.0,64.0
1973,39.0,120,90,2.0,64.0
1974,51.0,120,90,2.0,64.0
1975,75.0,0,780,0.0,64.0
1976,39.0,120,90,2.0,64.0
1977,67.0,48,780,0.0,64.0
1978,51.0,120,90,2.0,64.0
1979,39.0,120,90,2.0,64.0
1980,51.0,120,90,2.0,64.0
1981,39.0,120,90,2.0,64.0
1982,51.0,72,90,2.0,64.0
1983,39.0,120,90,2.0,64.0
1984,51.0,120,90,2.0,64.0
1985,79.0,0,780,0.0,64.0
1986,87.0,48,780,0.0,64.0
1987,36.0,120,90,2.0,64.0
1988,48.0,120,90,2.0,64.0
1989,36.0,120,90,2.0,64.0
1990,48.0,120,90,2.0,64.0
1991,36.0,120,90,2.0,64.0
1992,48.0,72,90,2.0,64.0
1993,36.0,120,90,2.0,64.0
1994,48.0,120,90,2.0,64.0
1995,67.0,0,780,0.0,64.0
1996,34.0,120,90,2.0,64.0
1997,75.0,48,780,0.0,64.0
1998,46.0,120,90,2.0,64.0
1999,34.0,120,90,2.0,64.0
2000,46.0,120,90,2.0,64.0
2001,34.0,120,90,2.0,64.0
2002,46.0,72,90,2.0,64.0
2003,34.0,120,90,2.0,64.0
2004,46.0,120,90,2.0,64.0
2005,84.0,48,780,0.0,64.0
2006,87.0,0,780,0.0,64.0
2007,32.0,120,90,2.0,64.0
2008,44.0,120,90,2.0,64.0
2009,32.0,120,90,2.0,64.0
2010,44.0,120,90,2.0,64.0
2011,32.0,120,90,2.0,64.0
2012,44.0,72,90,2.0,64.0
2013,32.0,120,90,2.0,64.0
2014,44.0,120,90,2.0,64.0
2015,75.0,48,780,0.0,64.0
2016,31.0,120,90,2.0,64.0
2017,72.0,0,780,0.0,64.0
2018,43.0,120,90,2.0,64.0
2019,31.0,120,90,2.0,64.0
2020,43.0,120,90,2.0,64.0
2021,31.0,120,90,2.0,64.0
2022,43.0,72,90,2.0,64.0
2023,31.0,120,90,2.0,64.0
2024,43.0,936,90,2.0,64.0
2025,84.0,0,900,0.0,64.0
2026,86.0,0,900,0.0,64.0
2027,30.0,0,900,2.0,64.0
2028,42.0,960,900,2.0,64.0
2029,81.0,0,900,0.0,64.0
2030,31.0,0,900,2.0,64.0
2031,43.0,0,900,2.0,64.0
2032,53.0,0,900,0.0,64.0
2033,59.0,144,900,0.0,64.0
2034,62.0,0,900,0.0,64.0
2035,36.0,120,90,2.0,64.0
2036,60.0,0,570,0.0,64.0
2037,48.0,120,90,2.0,64.0
2038,36.0,120,90,2.0,64.0
2039,48.0,120,90,2.0,64.0
2040,36.0,120,90,2.0,64.0
2041,48.0,120,90,2.0,64.0
2042,64.0,0,150,0.0,64.0
2043,58.0,72,150,0.0,64.0
2044,36.0,48,90,2.0,64.0
2045,48.0,120,90,2.0,64.0
2046,65.0,72,150,0.0,64.0
2047,56.0,0,150,0.0,64.0
2048,36.0,48,90,2.0,64.0
2049,48.0,120,90,2.0,64.0
2050,64.0,0,150,0.0,64.0
2051,36.0,48,90,2.0,64.0
2052,67.0,72,150,0.0,64.0
2053,48.0,120,90,2.0,64.0
2054,36.0,48,90,2.0,64.0
2055,65.0,72,150,0.0,64.0
2056,68.0,0,150,0.0,64.0
2057,48.0,120,90,2.0,64.0
2058,71.0,0,150,0.0,64.0
2059,62.0,72,150,0.0,64.0
2060,36.0,48,90,2.0,64.0
2061,48.0,120,90,2.0,64.0
2062,36.0,48,90,2.0,64.0
2063,63.0,72,150,0.0,64.0
2064,72.0,0,150,0.0,64.0
2065,48.0,120,90,2.0,64.0
2066,72.0,0,390,0.0,64.0
2067,64.0,72,390,0.0,64.0
2068,36.0,120,90,2.0,64.0
2069,48.0,120,90,2.0,64.0
2070,36.0,48,90,2.0,64.0
2071,48.0,120,90,2.0,64.0
2072,36.0,48,90,2.0,64.0
2073,70.0,72,150,0.0,64.0
2074,76.0,0,150,0.0,64.0
2075,48.0,120,90,2.0,64.0
2076,36.0,48,90,2.0,64.0
2077,68.0,72,150,0.0,64.0
2078,77.0,0,150,0.0,64.0
2079,48.0,120,90,2.0,64.0
2080,36.0,48,90,2.0,64.0
2081,79.0,0,150,0.0,64.0
2082,76.0,72,150,0.0,64.0
2083,48.0,120,90,2.0,64.0
2084,80.0,72,150,0.0,64.0
2085,77.0,0,150,0.0,64.0
2086,36.0,48,90,2.0,64.0
2087,48.0,120,90,2.0,64.0
2088,36.0,48,90,2.0,64.0
2089,83.0,0,150,0.0,64.0
2090,74.0,72,150,0.0,64.0
2091,48.0,120,90,2.0,64.0
2092,36.0,120,90,2.0,64.0
2093,84.0,0,300,0.0,64.0
2094,72.0,48,300,0.0,64.0
2095,75.0,0,300,0.0,64.0
2096,79.0,0,300,0.0,64.0
2097,48.0,72,90,2.0,64.0
2098,36.0,120,90,2.0,64.0
2099,48.0,120,90,2.0,64.0
2100,71.0,0,300,0.0,64.0
2101,79.0,0,300,0.0,64.0
2102,77.0,48,300,0.0,64.0
2103,38.0,120,90,2.0,64.0
2104,67.0,0,300,0.0,64.0
2105,50.0,72,90,2.0,64.0
2106,38.0,120,90,2.0,64.0
2107,50.0,120,90,2.0,64.0
2108,67.0,0,300,0.0,64.0
2109,75.0,48,300,0.0,64.0
2110,39.0,120,90,2.0,64.0
2111,72.0,0,300,0.0,64.0
2112,51.0,72,90,2.0,64.0
2113,39.0,120,90,2.0,64.0
2114,51.0,120,90,2.0,64.0
2115,74.0,0,300,0.0,64.0
2116,68.0,0,300,0.0,64.0
2117,41.0,120,90,2.0,64.0
2118,65.0,48,300,0.0,64.0
2119,53.0,72,90,2.0,64.0
2120,41.0,120,90,2.0,64.0
2121,53.0,120,90,2.0,64.0
2122,67.0,96,480,1.0,64.0
2123,72.0,0,1440,0.0,64.0
2124,63.0,96,1440,0.0,64.0
2125,43.0,120,90,2.0,64.0
2126,55.0,120,90,2.0,64.0
2127,43.0,120,90,2.0,64.0
2128,55.0,24,90,2.0,64.0
2129,66.0,96,480,1.0,64.0
2130,44.0,120,90,2.0,64.0
2131,56.0,120,90,2.0,64.0
2132,44.0,120,90,2.0,64.0
2133,56.0,24,90,2.0,64.0
2134,69.0,0,480,1.0,64.0
2135,42.0,120,90,2.0,64.0
2136,54.0,120,90,2.0,64.0
2137,42.0,120,90,2.0,64.0
2138,54.0,24,90,2.0,64.0
2139,71.0,72,390,0.0,64.0
2140,43.0,120,90,2.0,64.0
2141,65.0,96,480,1.0,64.0
2142,62.0,0,390,0.0,64.0
2143,55.0,120,90,2.0,64.0
2144,43.0,48,90,2.0,64.0
2145,55.0,24,90,2.0,64.0
2146,36.0,48,90,2.0,64.0
2147,63.0,72,150,0.0,64.0
2148,72.0,0,150,0.0,64.0
2149,60.0,0,150,0.0,64.0
2150,48.0,120,90,2.0,64.0
2151,36.0,120,90,2.0,64.0
2152,60.0,72,390,0.0,64.0
2153,48.0,120,90,2.0,64.0
2154,36.0,48,90,2.0,64.0
2155,48.0,120,90,2.0,64.0
2156,58.0,0,150,0.0,64.0
2157,64.0,72,150,0.0,64.0
2158,36.0,48,90,2.0,64.0
2159,48.0,120,90,2.0,64.0
2160,36.0,48,90,2.0,64.0
2161,56.0,72,150,0.0,64.0
2162,65.0,0,150,0.0,64.0
2163,48.0,120,90,2.0,64.0
2164,36.0,48,90,2.0,64.0
2165,64.0,0,150,0.0,64.0
2166,67.0,72,150,0.0,64.0
2167,48.0,120,90,2.0,64.0
2168,68.0,0,150,0.0,64.0
2169,65.0,72,150,0.0,64.0
2170,36.0,48,90,2.0,64.0
2171,48.0,120,90,2.0,64.0
2172,62.0,72,150,0.0,64.0
2173,71.0,0,150,0.0,64.0
2174,36.0,48,90,2.0,64.0
2175,48.0,120,90,2.0,64.0
2176,72.0,0,150,0.0,64.0
2177,63.0,72,150,0.0,64.0
2178,36.0,48,90,2.0,64.0
2179,48.0,120,90,2.0,64.0
2180,64.0,0,390,0.0,64.0
2181,72.0,72,390,0.0,64.0
2182,36.0,120,90,2.0,64.0
2183,48.0,120,90,2.0,64.0
2184,36.0,48,90,2.0,64.0
2185,48.0,120,90,2.0,64.0
2186,36.0,48,90,2.0,64.0
2187,76.0,72,150,0.0,64.0
2188,70.0,0,150,0.0,64.0
2189,48.0,120,90,2.0,64.0
2190,68.0,0,150,0.0,64.0
2191,77.0,72,150,0.0,64.0
2192,36.0,48,90,2.0,64.0
2193,48.0,120,90,2.0,64.0
2194,76.0,72,150,0.0,64.0
2195,36.0,48,90,2.0,64.0
2196,79.0,0,150,0.0,64.0
2197,48.0,120,90,2.0,64.0
2198,77.0,72,150,0.0,64.0
2199,80.0,0,150,0.0,64.0
2200,36.0,48,90,2.0,64.0
2201,48.0,120,90,2.0,64.0
2202,74.0,72,150,0.0,64.0
2203,36.0,48,90,2.0,64.0
2204,83.0,0,150,0.0,64.0
2205,48.0,120,90,2.0,64.0
2206,79.0,0,300,0.0,64.0
2207,84.0,0,300,0.0,64.0
2208,75.0,48,300,0.0,64.0
2209,72.0,0,300,0.0,64.0
2210,36.0,120,90,2.0,64.0
2211,48.0,72,90,2.0,64.0
2212,36.0,120,90,2.0,64.0
2213,48.0,120,90,2.0,64.0
2214,79.0,0,300,0.0,64.0
2215,71.0,0,300,0.0,64.0
2216,67.0,0,300,0.0,64.0
2217,77.0,48,300,0.0,64.0
2218,38.0,120,90,2.0,64.0
2219,50.0,72,90,2.0,64.0
2220,38.0,120,90,2.0,64.0
2221,50.0,120,90,2.0,64.0
2222,39.0,120,90,2.0,64.0
2223,67.0,0,300,0.0,64.0
2224,75.0,48,300,0.0,64.0
2225,72.0,0,300,0.0,64.0
2226,51.0,72,90,2.0,64.0
2227,39.0,120,90,2.0,64.0
2228,51.0,120,90,2.0,64.0
2229,41.0,120,90,2.0,64.0
2230,65.0,48,300,0.0,64.0
2231,68.0,0,300,0.0,64.0
2232,74.0,0,300,0.0,64.0
2233,53.0,72,90,2.0,64.0
2234,41.0,120,90,2.0,64.0
2235,53.0,120,90,2.0,64.0
2236,72.0,0,1920,0.0,64.0
2237,43.0,120,90,2.0,64.0
2238,67.0,96,480,1.0,64.0
2239,63.0,0,1920,0.0,64.0
2240,55.0,120,90,2.0,64.0
2241,43.0,120,90,2.0,64.0
2242,55.0,24,90,2.0,64.0
2243,44.0,120,90,2.0,64.0
2244,66.0,96,480,1.0,64.0
2245,56.0,120,90,2.0,64.0
2246,44.0,120,90,2.0,64.0
2247,56.0,24,90,2.0,64.0
2248,69.0,192,960,1.0,64.0
2249,42.0,120,90,2.0,64.0
2250,54.0,120,90,2.0,64.0
2251,42.0,120,90,2.0,64.0
2252,54.0,120,90,2.0,64.0
2253,42.0,120,90,2.0,64.0
2254,54.0,120,90,2.0,64.0
2255,42.0,120,90,2.0,64.0
2256,54.0,24,90,2.0,64.0
2257,43.0,0,180,2.0,64.0
2258,55.0,0,180,2.0,64.0
2259,71.0,0,180,0.0,64.0
2260,62.0,240,180,0.0,64.0
2261,67.0,0,180,1.0,64.0
2262,59.0,240,180,2.0,64.0
2263,62.0,0,180,2.0,64.0
2264,62.0,0,180,2.0,64.0
2265,59.0,240,180,2.0,64.0
2266,67.0,0,660,0.0,64.0
2267,79.0,0,660,0.0,64.0
2268,62.0,240,180,2.0,64.0
2269,59.0,0,180,2.0,64.0
2270,55.0,240,180,2.0,64.0
2271,63.0,240,180,2.0,64.0
2272,60.0,0,180,2.0,64.0
2273,60.0,240,180,2.0,64.0
2274,63.0,0,180,2.0,64.0
2275,79.0,0,600,0.0,64.0
2276,67.0,72,600,0.0,64.0
2277,63.0,168,180,2.0,64.0
2278,60.0,0,180,2.0,64.0
2279,65.0,48,180,2.0,64.0
2280,62.0,0,180,2.0,64.0
2281,77.0,120,120,0.0,64.0
2282,74.0,120,120,0.0,64.0
2283,71.0,120,120,0.0,64.0
2284,67.0,120,120,0.0,64.0
2285,65.0,120,120,0.0,64.0
2286,62.0,120,120,0.0,64.0
2287,59.0,120,120,0.0,64.0
2288,60.0,120,120,0.0,64.0
2289,63.0,120,120,0.0,64.0
2290,60.0,120,120,0.0,64.0
2291,55.0,120,120,0.0,64.0
2292,54.0,0,120,0.0,64.0
2293,32.0,120,120,2.0,64.0
2294,60.0,0,120,0.0,64.0
2295,44.0,120,120,2.0,64.0
2296,56.0,0,120,0.0,64.0
2297,32.0,120,120,2.0,64.0
2298,44.0,0,120,2.0,64.0
2299,54.0,192,120,0.0,64.0
2300,55.0,0,180,0.0,64.0
2301,31.0,0,180,2.0,64.0
2302,43.0,240,180,2.0,64.0
2303,62.0,240,180,2.0,64.0
2304,59.0,0,180,2.0,64.0
2305,67.0,0,660,0.0,64.0
2306,79.0,0,660,0.0,64.0
2307,62.0,240,180,2.0,64.0
2308,59.0,0,180,2.0,64.0
2309,62.0,240,180,2.0,64.0
2310,59.0,0,180,2.0,64.0
2311,55.0,240,180,2.0,64.0
2312,60.0,0,180,2.0,64.0
2313,63.0,240,180,2.0,64.0
2314,79.0,72,600,0.0,64.0
2315,67.0,0,600,0.0,64.0
2316,63.0,0,180,2.0,64.0
2317,60.0,240,180,2.0,64.0
2318,63.0,168,180,2.0,64.0
2319,60.0,0,180,2.0,64.0
2320,62.0,48,180,2.0,64.0
2321,65.0,0,180,2.0,64.0
2322,77.0,120,120,0.0,64.0
2323,74.0,120,120,0.0,64.0
2324,71.0,120,120,0.0,64.0
2325,67.0,120,120,0.0,64.0
2326,65.0,120,120,0.0,64.0
2327,62.0,120,120,0.0,64.0
2328,59.0,120,120,0.0,64.0
2329,60.0,120,120,0.0,64.0
2330,63.0,120,120,0.0,64.0
2331,60.0,120,120,0.0,64.0
2332,55.0,120,120,0.0,64.0
2333,54.0,0,120,0.0,64.0
2334,32.0,120,120,2.0,64.0
2335,60.0,0,120,0.0,64.0
2336,44.0,120,120,2.0,64.0
2337,56.0,0,120,0.0,64.0
2338,32.0,120,120,2.0,64.0
2339,44.0,0,120,2.0,64.0
2340,54.0,96,120,0.0,64.0
2341,31.0,48,90,2.0,64.0
2342,55.0,72,150,0.0,64.0
2343,43.0,120,90,2.0,64.0
2344,31.0,48,90,2.0,64.0
2345,66.0,72,150,0.0,64.0
2346,43.0,120,90,2.0,64.0
2347,31.0,48,90,2.0,64.0
2348,67.0,72,150,0.0,64.0
2349,43.0,120,90,2.0,64.0
2350,31.0,48,90,2.0,64.0
2351,72.0,72,150,0.0,64.0
2352,66.0,0,150,0.0,64.0
2353,43.0,120,90,2.0,64.0
2354,71.0,72,150,0.0,64.0
2355,31.0,48,90,2.0,64.0
2356,67.0,0,150,0.0,64.0
2357,43.0,120,90,2.0,64.0
2358,72.0,72,150,0.0,64.0
2359,78.0,0,150,0.0,64.0
2360,31.0,48,90,2.0,64.0
2361,43.0,120,90,2.0,64.0
2362,79.0,72,150,0.0,64.0
2363,71.0,0,150,0.0,64.0
2364,31.0,48,90,2.0,64.0
2365,43.0,120,90,2.0,64.0
2366,78.0,0,150,0.0,64.0
2367,84.0,72,150,0.0,64.0
2368,31.0,48,90,2.0,64.0
2369,43.0,120,90,2.0,64.0
2370,83.0,72,150,0.0,64.0
2371,79.0,0,150,0.0,64.0
2372,31.0,48,90,2.0,64.0
2373,43.0,120,90,2.0,64.0
2374,31.0,120,90,2.0,64.0
2375,43.0,120,90,2.0,64.0
2376,31.0,120,90,2.0,64.0
2377,43.0,120,90,2.0,64.0
2378,31.0,120,90,2.0,64.0
2379,43.0,120,90,2.0,64.0
2380,31.0,120,90,2.0,64.0
2381,63.0,72,1110,0.0,64.0
2382,61.0,0,960,0.0,64.0
2383,58.0,96,960,0.0,64.0
2384,43.0,120,90,2.0,64.0
2385,31.0,120,90,2.0,64.0
2386,43.0,120,90,2.0,64.0
2387,31.0,120,90,2.0,64.0
2388,43.0,120,90,2.0,64.0
2389,31.0,120,90,2.0,64.0
2390,43.0,24,90,2.0,64.0
2391,60.0,0,150,0.0,64.0
2392,32.0,48,90,2.0,64.0
2393,44.0,120,90,2.0,64.0
2394,73.0,0,150,0.0,64.0
2395,67.0,72,150,0.0,64.0
2396,32.0,48,90,2.0,64.0
2397,44.0,120,90,2.0,64.0
2398,32.0,48,90,2.0,64.0
2399,68.0,0,150,0.0,64.0
2400,72.0,72,150,0.0,64.0
2401,44.0,120,90,2.0,64.0
2402,73.0,0,150,0.0,64.0
2403,79.0,72,150,0.0,64.0
2404,32.0,48,90,2.0,64.0
2405,44.0,120,90,2.0,64.0
2406,72.0,0,150,0.0,64.0
2407,80.0,72,150,0.0,64.0
2408,32.0,48,90,2.0,64.0
2409,44.0,120,90,2.0,64.0
2410,85.0,72,150,0.0,64.0
2411,79.0,0,150,0.0,64.0
2412,32.0,48,90,2.0,64.0
2413,44.0,120,90,2.0,64.0
2414,80.0,72,150,0.0,64.0
2415,84.0,0,150,0.0,64.0
2416,32.0,48,90,2.0,64.0
2417,44.0,120,90,2.0,64.0
2418,79.0,72,150,0.0,64.0
2419,85.0,0,150,0.0,64.0
2420,32.0,48,90,2.0,64.0
2421,44.0,120,90,2.0,64.0
2422,84.0,0,150,0.0,64.0
2423,80.0,72,150,0.0,64.0
2424,32.0,48,90,2.0,64.0
2425,44.0,120,90,2.0,64.0
2426,32.0,120,90,2.0,64.0
2427,44.0,120,90,2.0,64.0
2428,32.0,120,90,2.0,64.0
2429,44.0,120,90,2.0,64.0
2430,32.0,120,90,2.0,64.0
2431,44.0,120,90,2.0,64.0
2432,33.0,120,90,2.0,64.0
2433,63.0,0,960,0.0,64.0
2434,66.0,0,960,0.0,64.0
2435,60.0,96,960,0.0,64.0
2436,45.0,120,90,2.0,64.0
2437,33.0,120,90,2.0,64.0
2438,45.0,120,90,2.0,64.0
2439,33.0,120,90,2.0,64.0
2440,45.0,120,90,2.0,64.0
2441,33.0,120,90,2.0,64.0
2442,45.0,24,90,2.0,64.0
2443,65.0,72,150,0.0,64.0
2444,34.0,48,90,2.0,64.0
2445,62.0,0,150,0.0,64.0
2446,46.0,120,90,2.0,64.0
2447,34.0,48,90,2.0,64.0
2448,75.0,0,150,0.0,64.0
2449,69.0,72,150,0.0,64.0
2450,46.0,120,90,2.0,64.0
2451,74.0,72,150,0.0,64.0
2452,70.0,0,150,0.0,64.0
2453,34.0,48,90,2.0,64.0
2454,46.0,120,90,2.0,64.0
2455,75.0,72,150,0.0,64.0
2456,81.0,0,150,0.0,64.0
2457,34.0,48,90,2.0,64.0
2458,46.0,120,90,2.0,64.0
2459,34.0,48,90,2.0,64.0
2460,74.0,0,150,0.0,64.0
2461,82.0,72,150,0.0,64.0
2462,46.0,120,90,2.0,64.0
2463,34.0,48,90,2.0,64.0
2464,87.0,72,150,0.0,64.0
2465,81.0,0,150,0.0,64.0
2466,46.0,120,90,2.0,64.0
2467,34.0,48,90,2.0,64.0
2468,82.0,0,150,0.0,64.0
2469,86.0,72,150,0.0,64.0
2470,46.0,120,90,2.0,64.0
2471,34.0,48,90,2.0,64.0
2472,87.0,72,150,0.0,64.0
2473,81.0,0,150,0.0,64.0
2474,46.0,120,90,2.0,64.0
2475,34.0,48,90,2.0,64.0
2476,82.0,0,150,0.0,64.0
2477,86.0,72,150,0.0,64.0
2478,46.0,120,90,2.0,64.0
2479,34.0,120,90,2.0,64.0
2480,46.0,120,90,2.0,64.0
2481,34.0,120,90,2.0,64.0
2482,75.0,96,480,0.0,64.0
2483,81.0,0,480,0.0,64.0
2484,46.0,120,90,2.0,64.0
2485,34.0,120,90,2.0,64.0
2486,46.0,24,90,2.0,64.0
2487,82.0,0,180,0.0,64.0
2488,74.0,24,180,0.0,64.0
2489,34.0,96,90,2.0,64.0
2490,46.0,120,90,2.0,64.0
2491,34.0,120,90,2.0,64.0
2492,46.0,120,90,2.0,64.0
2493,34.0,120,90,2.0,64.0
2494,75.0,96,480,0.0,64.0
2495,69.0,0,480,0.0,64.0
2496,46.0,120,90,2.0,64.0
2497,34.0,120,90,2.0,64.0
2498,46.0,24,90,2.0,64.0
2499,34.0,96,90,2.0,64.0
2500,70.0,0,180,0.0,64.0
2501,74.0,24,180,0.0,64.0
2502,46.0,120,90,2.0,64.0
2503,34.0,120,90,2.0,64.0
2504,46.0,120,90,2.0,64.0
2505,69.0,96,480,0.0,64.0
2506,63.0,0,480,0.0,64.0
2507,34.0,120,90,2.0,64.0
2508,46.0,120,90,2.0,64.0
2509,34.0,120,90,2.0,64.0
2510,46.0,24,90,2.0,64.0
2511,62.0,24,180,0.0,64.0
2512,70.0,0,180,0.0,64.0
2513,34.0,96,90,2.0,64.0
2514,46.0,120,90,2.0,64.0
2515,34.0,120,90,2.0,64.0
2516,46.0,120,90,2.0,64.0
2517,57.0,144,480,0.0,64.0
2518,63.0,0,480,0.0,64.0
2519,34.0,120,90,2.0,64.0
2520,46.0,120,90,2.0,64.0
2521,34.0,120,90,2.0,64.0
2522,46.0,24,90,2.0,64.0
2523,34.0,0,180,2.0,64.0
2524,46.0,288,180,2.0,64.0
2525,62.0,0,150,0.0,64.0
2526,58.0,48,150,0.0,64.0
2527,57.0,240,240,0.0,64.0
2528,58.0,240,240,0.0,64.0
2529,57.0,240,240,0.0,64.0
2530,58.0,240,240,0.0,64.0
2531,57.0,240,240,0.0,64.0
2532,58.0,240,240,0.0,64.0
2533,57.0,384,240,0.0,64.0
2534,58.0,96,780,1.0,64.0
2535,63.0,0,180,1.0,64.0
2536,66.0,192,180,1.0,64.0
2537,46.0,48,150,2.0,64.0
2538,63.0,96,180,1.0,64.0
2539,51.0,48,150,2.0,64.0
2540,66.0,0,180,1.0,64.0
2541,53.0,48,150,2.0,64.0
2542,63.0,192,180,1.0,64.0
2543,66.0,0,180,1.0,64.0
2544,58.0,96,780,1.0,64.0
2545,54.0,240,150,2.0,64.0
2546,66.0,192,180,1.0,64.0
2547,63.0,0,180,1.0,64.0
2548,70.0,48,150,0.0,64.0
2549,66.0,96,180,1.0,64.0
2550,63.0,0,180,1.0,64.0
2551,75.0,48,150,0.0,64.0
2552,66.0,0,180,1.0,64.0
2553,63.0,108,180,1.0,64.0
2554,77.0,48,150,0.0,64.0
2555,70.0,372,60,0.0,64.0
2556,58.0,144,780,1.0,64.0
2557,78.0,48,660,0.0,64.0
2558,63.0,240,180,1.0,64.0
2559,66.0,0,180,1.0,64.0
2560,63.0,0,180,1.0,64.0
2561,66.0,48,180,1.0,64.0
2562,75.0,60,240,0.0,64.0
2563,66.0,0,180,1.0,64.0
2564,63.0,48,180,1.0,64.0
2565,70.0,372,60,0.0,64.0
2566,58.0,144,780,1.0,64.0
2567,78.0,48,660,0.0,64.0
2568,66.0,240,180,1.0,64.0
2569,63.0,0,180,1.0,64.0
2570,66.0,0,180,1.0,64.0
2571,63.0,48,180,1.0,64.0
2572,75.0,192,240,0.0,64.0
2573,66.0,48,180,1.0,64.0
2574,63.0,0,180,1.0,64.0
2575,74.0,192,180,0.0,64.0
2576,58.0,96,780,1.0,64.0
2577,68.0,192,180,1.0,64.0
2578,65.0,0,180,1.0,64.0
2579,46.0,48,150,2.0,64.0
2580,53.0,48,150,2.0,64.0
2581,68.0,0,180,1.0,64.0
2582,65.0,96,180,1.0,64.0
2583,65.0,192,180,1.0,64.0
2584,68.0,0,180,1.0,64.0
2585,54.0,48,150,2.0,64.0
2586,58.0,144,780,1.0,64.0
2587,56.0,288,150,2.0,64.0
2588,65.0,48,180,1.0,64.0
2589,68.0,0,180,1.0,64.0
2590,70.0,192,240,0.0,64.0
2591,80.0,48,240,0.0,64.0
2592,68.0,48,180,1.0,64.0
2593,65.0,0,180,1.0,64.0
2594,65.0,0,180,1.0,64.0
2595,78.0,60,240,0.0,64.0
2596,68.0,48,180,1.0,64.0
2597,80.0,180,60,0.0,64.0
2598,58.0,144,780,1.0,64.0
2599,78.0,192,180,0.0,64.0
2600,77.0,0,180,0.0,64.0
2601,65.0,0,180,1.0,64.0
2602,68.0,108,180,1.0,64.0
2603,68.0,0,180,1.0,64.0
2604,78.0,132,60,0.0,64.0
2605,65.0,48,180,1.0,64.0
2606,77.0,48,180,0.0,64.0
2607,65.0,0,180,1.0,64.0
2608,68.0,0,180,1.0,64.0
2609,75.0,108,180,0.0,64.0
2610,77.0,180,60,0.0,64.0
2611,58.0,96,780,1.0,64.0
2612,75.0,144,180,0.0,64.0
2613,68.0,192,180,1.0,64.0
2614,65.0,0,180,1.0,64.0
2615,74.0,48,150,0.0,64.0
2616,72.0,48,150,0.0,64.0
2617,68.0,0,180,1.0,64.0
2618,65.0,96,180,1.0,64.0
2619,65.0,192,180,1.0,64.0
2620,74.0,48,150,0.0,64.0
2621,68.0,0,180,1.0,64.0
2622,75.0,240,150,0.0,64.0
2623,58.0,96,780,1.0,64.0
2624,66.0,192,180,1.0,64.0
2625,46.0,48,150,2.0,64.0
2626,63.0,0,180,1.0,64.0
2627,66.0,96,180,1.0,64.0
2628,63.0,0,180,1.0,64.0
2629,51.0,48,150,2.0,64.0
2630,53.0,48,150,2.0,64.0
2631,66.0,192,180,1.0,64.0
2632,63.0,0,180,1.0,64.0
2633,54.0,288,150,2.0,64.0
2634,58.0,144,780,1.0,64.0
2635,63.0,0,180,1.0,64.0
2636,66.0,240,180,1.0,64.0
2637,70.0,0,180,0.0,64.0
2638,75.0,96,180,0.0,64.0
2639,66.0,0,180,1.0,64.0
2640,63.0,0,180,1.0,64.0
2641,66.0,108,180,1.0,64.0
2642,77.0,0,180,0.0,64.0
2643,63.0,0,180,1.0,64.0
2644,70.0,372,60,0.0,64.0
2645,58.0,144,780,1.0,64.0
2646,78.0,48,660,0.0,64.0
2647,66.0,0,180,1.0,64.0
2648,63.0,240,180,1.0,64.0
2649,63.0,48,180,1.0,64.0
2650,66.0,0,180,1.0,64.0
2651,63.0,48,180,1.0,64.0
2652,66.0,0,180,1.0,64.0
2653,75.0,60,240,0.0,64.0
2654,70.0,372,60,0.0,64.0
2655,58.0,144,780,1.0,64.0
2656,78.0,48,660,0.0,64.0
2657,63.0,0,180,1.0,64.0
2658,66.0,240,180,1.0,64.0
2659,66.0,48,180,1.0,64.0
2660,63.0,0,180,1.0,64.0
2661,75.0,192,240,0.0,64.0
2662,63.0,0,180,1.0,64.0
2663,66.0,48,180,1.0,64.0
2664,56.0,96,780,1.0,64.0
2665,72.0,192,180,0.0,64.0
2666,44.0,48,150,2.0,64.0
2667,63.0,192,180,1.0,64.0
2668,66.0,0,180,1.0,64.0
2669,63.0,0,180,1.0,64.0
2670,51.0,48,150,2.0,64.0
2671,66.0,96,180,1.0,64.0
2672,53.0,48,150,2.0,64.0
2673,66.0,0,180,1.0,64.0
2674,63.0,192,180,1.0,64.0
2675,54.0,288,150,2.0,64.0
2676,56.0,144,780,1.0,64.0
2677,68.0,192,240,0.0,64.0
2678,66.0,48,180,1.0,64.0
2679,63.0,0,180,1.0,64.0
2680,78.0,48,240,0.0,64.0
2681,66.0,48,180,1.0,64.0
2682,63.0,0,180,1.0,64.0
2683,63.0,48,180,1.0,64.0
2684,77.0,60,240,0.0,64.0
2685,66.0,0,180,1.0,64.0
2686,56.0,144,780,1.0,64.0
2687,78.0,180,60,0.0,64.0
2688,77.0,192,180,0.0,64.0
2689,75.0,108,180,0.0,64.0
2690,63.0,0,180,1.0,64.0
2691,66.0,0,180,1.0,64.0
2692,66.0,48,180,1.0,64.0
2693,63.0,0,180,1.0,64.0
2694,77.0,132,60,0.0,64.0
2695,75.0,48,180,0.0,64.0
2696,73.0,0,180,0.0,64.0
2697,66.0,0,180,1.0,64.0
2698,63.0,96,180,1.0,64.0
2699,75.0,192,40,0.0,64.0
2700,56.0,96,780,1.0,64.0
2701,73.0,144,180,0.0,64.0
2702,72.0,48,150,0.0,64.0
2703,63.0,192,180,1.0,64.0
2704,66.0,0,180,1.0,64.0
2705,63.0,96,180,1.0,64.0
2706,70.0,48,150,0.0,64.0
2707,66.0,0,180,1.0,64.0
2708,66.0,192,180,1.0,64.0
2709,63.0,0,180,1.0,64.0
2710,72.0,48,150,0.0,64.0
2711,73.0,240,150,0.0,64.0
2712,56.0,96,780,1.0,64.0
2713,61.0,0,180,1.0,64.0
2714,65.0,192,180,1.0,64.0
2715,44.0,48,150,2.0,64.0
2716,49.0,48,150,2.0,64.0
2717,61.0,0,180,1.0,64.0
2718,65.0,96,180,1.0,64.0
2719,51.0,48,150,2.0,64.0
2720,65.0,0,180,1.0,64.0
2721,61.0,192,180,1.0,64.0
2722,53.0,240,150,2.0,64.0
2723,56.0,96,780,1.0,64.0
2724,61.0,192,180,1.0,64.0
2725,65.0,0,180,1.0,64.0
2726,68.0,48,150,0.0,64.0
2727,73.0,48,150,0.0,64.0
2728,61.0,0,180,1.0,64.0
2729,65.0,96,180,1.0,64.0
2730,75.0,48,150,0.0,64.0
2731,61.0,108,180,1.0,64.0
2732,65.0,0,180,1.0,64.0
2733,68.0,372,60,0.0,64.0
2734,56.0,144,780,1.0,64.0
2735,77.0,48,660,0.0,64.0
2736,61.0,240,180,1.0,64.0
2737,65.0,0,180,1.0,64.0
2738,61.0,0,180,1.0,64.0
2739,65.0,48,180,1.0,64.0
2740,61.0,48,180,1.0,64.0
2741,65.0,0,180,1.0,64.0
2742,73.0,60,240,0.0,64.0
2743,68.0,372,60,0.0,64.0
2744,56.0,144,780,1.0,64.0
2745,77.0,48,660,0.0,64.0
2746,61.0,240,180,1.0,64.0
2747,65.0,0,180,1.0,64.0
2748,61.0,48,180,1.0,64.0
2749,65.0,0,180,1.0,64.0
2750,65.0,0,180,1.0,64.0
2751,61.0,48,180,1.0,64.0
2752,73.0,192,240,0.0,64.0
2753,72.0,192,180,0.0,64.0
2754,56.0,96,780,1.0,64.0
2755,66.0,0,180,1.0,64.0
2756,63.0,192,180,1.0,64.0
2757,44.0,48,150,2.0,64.0
2758,63.0,96,180,1.0,64.0
2759,66.0,0,180,1.0,64.0
2760,51.0,48,150,2.0,64.0
2761,53.0,48,150,2.0,64.0
2762,66.0,0,180,1.0,64.0
2763,63.0,192,180,1.0,64.0
2764,56.0,144,780,1.0,64.0
2765,54.0,288,150,2.0,64.0
2766,63.0,0,180,1.0,64.0
2767,68.0,192,240,0.0,64.0
2768,66.0,48,180,1.0,64.0
2769,78.0,48,240,0.0,64.0
2770,66.0,48,180,1.0,64.0
2771,63.0,0,180,1.0,64.0
2772,77.0,60,240,0.0,64.0
2773,63.0,0,180,1.0,64.0
2774,66.0,48,180,1.0,64.0
2775,78.0,180,60,0.0,64.0
2776,56.0,144,780,1.0,64.0
2777,77.0,192,180,0.0,64.0
2778,66.0,0,180,1.0,64.0
2779,63.0,0,180,1.0,64.0
2780,75.0,108,180,0.0,64.0
2781,66.0,48,180,1.0,64.0
2782,63.0,0,180,1.0,64.0
2783,77.0,132,60,0.0,64.0
2784,75.0,48,180,0.0,64.0
2785,66.0,0,180,1.0,64.0
2786,63.0,96,180,1.0,64.0
2787,73.0,0,180,0.0,64.0
2788,75.0,192,40,0.0,64.0
2789,56.0,96,780,1.0,64.0
2790,73.0,192,180,0.0,64.0
2791,66.0,192,180,1.0,64.0
2792,63.0,0,180,1.0,64.0
2793,72.0,0,180,0.0,64.0
2794,63.0,96,180,1.0,64.0
2795,70.0,48,150,0.0,64.0
2796,66.0,0,180,1.0,64.0
2797,72.0,48,150,0.0,64.0
2798,66.0,240,180,1.0,64.0
2799,63.0,0,180,1.0,64.0
2800,73.0,192,180,0.0,64.0
2801,61.0,48,390,1.0,64.0
2802,65.0,48,180,1.0,64.0
2803,49.0,240,240,2.0,64.0
2804,68.0,0,180,1.0,64.0
2805,56.0,144,240,2.0,64.0
2806,59.0,48,390,1.0,64.0
2807,68.0,0,180,1.0,64.0
2808,65.0,48,180,1.0,64.0
2809,47.0,192,240,2.0,64.0
2810,58.0,144,780,1.0,64.0
2811,46.0,240,180,2.0,64.0
2812,70.0,0,180,0.0,64.0
2813,68.0,0,180,1.0,64.0
2814,65.0,240,180,1.0,64.0
2815,80.0,0,180,0.0,64.0
2816,68.0,96,180,1.0,64.0
2817,65.0,0,180,1.0,64.0
2818,68.0,0,180,1.0,64.0
2819,78.0,0,180,0.0,64.0
2820,65.0,108,180,1.0,64.0
2821,58.0,144,780,1.0,64.0
2822,80.0,180,60,0.0,64.0
2823,78.0,192,180,0.0,64.0
2824,77.0,108,180,0.0,64.0
2825,68.0,0,180,1.0,64.0
2826,65.0,0,180,1.0,64.0
2827,65.0,48,180,1.0,64.0
2828,68.0,0,180,1.0,64.0
2829,78.0,132,60,0.0,64.0
2830,77.0,48,180,0.0,64.0
2831,65.0,108,180,1.0,64.0
2832,68.0,0,180,1.0,64.0
2833,75.0,0,180,0.0,64.0
2834,77.0,180,60,0.0,64.0
2835,58.0,96,780,1.0,64.0
2836,75.0,144,180,0.0,64.0
2837,68.0,0,180,1.0,64.0
2838,65.0,192,180,1.0,64.0
2839,74.0,48,150,0.0,64.0
2840,72.0,48,150,0.0,64.0
2841,65.0,96,180,1.0,64.0
2842,68.0,0,180,1.0,64.0
2843,74.0,48,150,0.0,64.0
2844,65.0,192,180,1.0,64.0
2845,68.0,0,180,1.0,64.0
2846,63.0,48,390,1.0,64.0
2847,75.0,240,150,0.0,64.0
2848,66.0,48,180,1.0,64.0
2849,51.0,240,240,2.0,64.0
2850,70.0,0,180,1.0,64.0
2851,61.0,48,390,1.0,64.0
2852,58.0,144,240,2.0,64.0
2853,70.0,48,180,1.0,64.0
2854,65.0,0,180,1.0,64.0
2855,49.0,192,240,2.0,64.0
2856,48.0,240,180,2.0,64.0
2857,60.0,144,780,1.0,64.0
2858,72.0,0,180,0.0,64.0
2859,67.0,0,180,1.0,64.0
2860,70.0,240,180,1.0,64.0
2861,70.0,96,180,1.0,64.0
2862,67.0,0,180,1.0,64.0
2863,82.0,0,180,0.0,64.0
2864,67.0,108,180,1.0,64.0
2865,80.0,0,180,0.0,64.0
2866,70.0,0,180,1.0,64.0
2867,60.0,144,780,1.0,64.0
2868,82.0,180,60,0.0,64.0
2869,80.0,192,180,0.0,64.0
2870,70.0,0,180,1.0,64.0
2871,79.0,108,180,0.0,64.0
2872,67.0,0,180,1.0,64.0
2873,70.0,0,180,1.0,64.0
2874,67.0,48,180,1.0,64.0
2875,80.0,132,60,0.0,64.0
2876,79.0,48,180,0.0,64.0
2877,77.0,108,180,0.0,64.0
2878,67.0,0,180,1.0,64.0
2879,70.0,0,180,1.0,64.0
2880,60.0,144,780,1.0,64.0
2881,79.0,180,60,0.0,64.0
2882,77.0,192,180,0.0,64.0
2883,67.0,0,180,1.0,64.0
2884,70.0,240,180,1.0,64.0
2885,76.0,0,180,0.0,64.0
2886,70.0,48,180,1.0,64.0
2887,74.0,48,240,0.0,64.0
2888,67.0,0,180,1.0,64.0
2889,70.0,0,180,1.0,64.0
2890,76.0,0,180,0.0,64.0
2891,67.0,108,180,1.0,64.0
2892,65.0,144,780,1.0,64.0
2893,80.0,180,60,0.0,64.0
2894,79.0,192,180,0.0,64.0
2895,77.0,108,180,0.0,64.0
2896,72.0,0,180,1.0,64.0
2897,68.0,0,180,1.0,64.0
2898,72.0,0,180,1.0,64.0
2899,68.0,48,180,1.0,64.0
2900,79.0,132,60,0.0,64.0
2901,77.0,48,180,0.0,64.0
2902,72.0,108,180,1.0,64.0
2903,75.0,0,180,0.0,64.0
2904,68.0,0,180,1.0,64.0
2905,77.0,180,60,0.0,64.0
2906,58.0,192,480,1.0,64.0
2907,75.0,192,180,0.0,64.0
2908,68.0,0,180,1.0,64.0
2909,74.0,48,180,0.0,64.0
2910,65.0,0,180,1.0,64.0
2911,68.0,48,180,1.0,64.0
2912,65.0,0,180,1.0,64.0
2913,72.0,192,240,0.0,64.0
2914,59.0,60,480,1.0,64.0
2915,74.0,0,180,0.0,64.0
2916,65.0,0,180,1.0,64.0
2917,68.0,48,180,1.0,64.0
2918,60.0,144,780,1.0,64.0
2919,79.0,180,60,0.0,64.0
2920,77.0,192,180,0.0,64.0
2921,63.0,0,180,1.0,64.0
2922,75.0,108,180,0.0,64.0
2923,67.0,0,180,1.0,64.0
2924,77.0,132,60,0.0,64.0
2925,63.0,48,180,1.0,64.0
2926,67.0,0,180,1.0,64.0
2927,75.0,48,180,0.0,64.0
2928,74.0,108,180,0.0,64.0
2929,67.0,0,180,1.0,64.0
2930,63.0,0,180,1.0,64.0
2931,75.0,180,60,0.0,64.0
2932,56.0,144,780,1.0,64.0
2933,74.0,192,180,0.0,64.0
2934,72.0,108,180,0.0,64.0
2935,65.0,0,180,1.0,64.0
2936,63.0,0,180,1.0,64.0
2937,63.0,48,180,1.0,64.0
2938,65.0,0,180,1.0,64.0
2939,74.0,132,60,0.0,64.0
2940,72.0,48,180,0.0,64.0
2941,65.0,108,180,1.0,64.0
2942,63.0,0,180,1.0,64.0
2943,71.0,0,180,0.0,64.0
2944,58.0,96,780,1.0,64.0
2945,74.0,180,60,0.0,64.0
2946,72.0,144,180,0.0,64.0
2947,63.0,192,180,1.0,64.0
2948,67.0,0,180,1.0,64.0
2949,70.0,48,150,0.0,64.0
2950,70.0,48,150,0.0,64.0
2951,63.0,0,180,1.0,64.0
2952,67.0,96,180,1.0,64.0
2953,70.0,48,150,0.0,64.0
2954,63.0,108,180,1.0,64.0
2955,67.0,0,180,1.0,64.0
2956,74.0,180,60,0.0,64.0
2957,58.0,96,780,1.0,64.0
2958,72.0,144,180,0.0,64.0
2959,65.0,0,180,1.0,64.0
2960,70.0,48,150,0.0,64.0
2961,62.0,192,180,1.0,64.0
2962,70.0,48,150,0.0,64.0
2963,65.0,96,180,1.0,64.0
2964,62.0,0,180,1.0,64.0
2965,62.0,0,180,1.0,64.0
2966,70.0,48,150,0.0,64.0
2967,65.0,264,180,1.0,64.0
2968,51.0,0,1350,2.0,64.0
2969,58.0,0,90,1.0,64.0
2970,63.0,120,90,1.0,64.0
2971,67.0,0,90,1.0,64.0
2972,55.0,120,90,1.0,64.0
2973,63.0,120,90,1.0,64.0
2974,58.0,0,90,1.0,64.0
2975,75.0,72,870,0.0,64.0
2976,55.0,120,90,1.0,64.0
2977,63.0,0,90,1.0,64.0
2978,58.0,120,90,1.0,64.0
2979,67.0,0,90,1.0,64.0
2980,55.0,120,90,1.0,64.0
2981,58.0,120,90,1.0,64.0
2982,63.0,0,90,1.0,64.0
2983,55.0,120,90,1.0,64.0
2984,67.0,0,90,1.0,64.0
2985,58.0,120,90,1.0,64.0
2986,63.0,0,90,1.0,64.0
2987,55.0,0,90,1.0,64.0
2988,67.0,48,90,1.0,64.0
2989,63.0,0,90,1.0,64.0
2990,58.0,240,90,1.0,64.0
2991,51.0,0,390,2.0,64.0
2992,75.0,72,390,0.0,64.0
2993,58.0,0,90,1.0,64.0
2994,63.0,120,90,1.0,64.0
2995,55.0,0,90,1.0,64.0
2996,67.0,48,90,1.0,64.0
2997,63.0,240,90,1.0,64.0
2998,58.0,0,90,1.0,64.0
2999,49.0,0,1350,2.0,64.0
3000,63.0,120,90,1.0,64.0
3001,58.0,0,90,1.0,64.0
3002,55.0,0,90,1.0,64.0
3003,67.0,120,90,1.0,64.0
3004,63.0,120,90,1.0,64.0
3005,58.0,0,90,1.0,64.0
3006,75.0,72,870,0.0,64.0
3007,55.0,120,90,1.0,64.0
3008,63.0,120,90,1.0,64.0
3009,58.0,0,90,1.0,64.0
3010,67.0,0,90,1.0,64.0
3011,55.0,120,90,1.0,64.0
3012,63.0,0,90,1.0,64.0
3013,58.0,120,90,1.0,64.0
3014,55.0,120,90,1.0,64.0
3015,67.0,0,90,1.0,64.0
3016,63.0,120,90,1.0,64.0
3017,58.0,0,90,1.0,64.0
3018,55.0,48,90,1.0,64.0
3019,67.0,0,90,1.0,64.0
3020,58.0,240,90,1.0,64.0
3021,63.0,0,90,1.0,64.0
3022,49.0,72,390,2.0,64.0
3023,75.0,0,390,0.0,64.0
3024,58.0,0,90,1.0,64.0
3025,63.0,120,90,1.0,64.0
3026,67.0,48,90,1.0,64.0
3027,55.0,0,90,1.0,64.0
3028,63.0,96,90,1.0,64.0
3029,58.0,0,90,1.0,64.0
3030,75.0,144,60,0.0,64.0
3031,48.0,0,60,2.0,64.0
3032,56.0,120,90,2.0,64.0
3033,63.0,0,90,0.0,64.0
3034,51.0,0,90,2.0,64.0
3035,68.0,120,90,0.0,64.0
3036,56.0,96,90,2.0,64.0
3037,63.0,0,90,0.0,64.0
3038,46.0,0,60,2.0,64.0
3039,76.0,144,60,0.0,64.0
3040,55.0,120,90,2.0,64.0
3041,64.0,0,90,0.0,64.0
3042,48.0,0,90,2.0,64.0
3043,72.0,120,90,0.0,64.0
3044,55.0,0,90,2.0,64.0
3045,64.0,96,90,0.0,64.0
3046,44.0,0,60,2.0,64.0
3047,77.0,144,60,0.0,64.0
3048,65.0,0,90,0.0,64.0
3049,56.0,120,90,2.0,64.0
3050,72.0,0,90,0.0,64.0
3051,48.0,120,90,2.0,64.0
3052,65.0,96,90,0.0,64.0
3053,56.0,0,90,2.0,64.0
3054,79.0,144,60,0.0,64.0
3055,43.0,0,60,2.0,64.0
3056,67.0,120,90,0.0,64.0
3057,55.0,0,90,2.0,64.0
3058,72.0,0,90,0.0,64.0
3059,48.0,120,90,2.0,64.0
3060,55.0,96,90,2.0,64.0
3061,67.0,0,90,0.0,64.0
3062,80.0,144,60,0.0,64.0
3063,41.0,0,60,2.0,64.0
3064,68.0,0,90,0.0,64.0
3065,53.0,120,90,2.0,64.0
3066,48.0,120,90,2.0,64.0
3067,72.0,0,90,0.0,64.0
3068,53.0,0,90,2.0,64.0
3069,68.0,96,90,0.0,64.0
3070,81.0,0,60,0.0,64.0
3071,39.0,144,60,2.0,64.0
3072,51.0,120,90,2.0,64.0
3073,69.0,0,90,0.0,64.0
3074,72.0,0,90,0.0,64.0
3075,41.0,120,90,2.0,64.0
3076,69.0,96,90,0.0,64.0
3077,51.0,0,90,2.0,64.0
3078,82.0,0,60,0.0,64.0
3079,38.0,144,60,2.0,64.0
3080,70.0,0,90,0.0,64.0
3081,50.0,120,90,2.0,64.0
3082,41.0,0,90,2.0,64.0
3083,77.0,120,90,0.0,64.0
3084,50.0,0,90,2.0,64.0
3085,70.0,96,90,0.0,64.0
3086,36.0,144,60,2.0,64.0
3087,84.0,0,60,0.0,64.0
3088,72.0,0,90,0.0,64.0
3089,48.0,120,90,2.0,64.0
3090,77.0,120,90,0.0,64.0
3091,41.0,0,90,2.0,64.0
3092,48.0,0,90,2.0,64.0
3093,72.0,96,90,0.0,64.0
3094,85.0,0,60,0.0,64.0
3095,34.0,144,60,2.0,64.0
3096,46.0,0,90,2.0,64.0
3097,73.0,120,90,0.0,64.0
3098,41.0,0,90,2.0,64.0
3099,77.0,120,90,0.0,64.0
3100,46.0,96,90,2.0,64.0
3101,73.0,0,90,0.0,64.0
3102,86.0,0,60,0.0,64.0
3103,32.0,144,60,2.0,64.0
3104,44.0,0,90,2.0,64.0
3105,74.0,120,90,0.0,64.0
3106,41.0,0,90,2.0,64.0
3107,77.0,120,90,0.0,64.0
3108,44.0,0,90,2.0,64.0
3109,74.0,96,90,0.0,64.0
3110,87.0,144,60,0.0,64.0
3111,31.0,0,60,2.0,64.0
3112,43.0,0,90,2.0,64.0
3113,75.0,120,90,0.0,64.0
3114,82.0,120,90,0.0,64.0
3115,39.0,0,90,2.0,64.0
3116,43.0,0,90,2.0,64.0
3117,75.0,96,90,0.0,64.0
3118,31.0,0,60,2.0,64.0
3119,83.0,144,60,0.0,64.0
3120,43.0,0,90,2.0,64.0
3121,71.0,120,90,0.0,64.0
3122,39.0,120,90,2.0,64.0
3123,75.0,0,90,0.0,64.0
3124,43.0,168,90,2.0,64.0
3125,71.0,0,90,0.0,64.0
3126,32.0,72,150,2.0,64.0
3127,44.0,0,150,2.0,64.0
3128,72.0,120,90,0.0,64.0
3129,75.0,120,90,0.0,64.0
3130,72.0,96,90,0.0,64.0
3131,84.0,144,60,0.0,64.0
3132,72.0,120,90,0.0,64.0
3133,75.0,120,90,0.0,64.0
3134,72.0,168,90,0.0,64.0
3135,46.0,0,150,2.0,64.0
3136,34.0,72,150,2.0,64.0
3137,65.0,120,90,0.0,64.0
3138,68.0,120,90,0.0,64.0
3139,65.0,96,90,0.0,64.0
3140,74.0,144,60,0.0,64.0
3141,65.0,120,90,0.0,64.0
3142,68.0,120,90,0.0,64.0
3143,65.0,240,90,0.0,64.0
3144,51.0,0,1350,2.0,64.0
3145,63.0,120,90,1.0,64.0
3146,58.0,0,90,1.0,64.0
3147,55.0,120,90,1.0,64.0
3148,67.0,0,90,1.0,64.0
3149,58.0,120,90,1.0,64.0
3150,63.0,0,90,1.0,64.0
3151,75.0,72,870,0.0,64.0
3152,55.0,120,90,1.0,64.0
3153,58.0,120,90,1.0,64.0
3154,63.0,0,90,1.0,64.0
3155,55.0,120,90,1.0,64.0
3156,67.0,0,90,1.0,64.0
3157,58.0,120,90,1.0,64.0
3158,63.0,0,90,1.0,64.0
3159,55.0,120,90,1.0,64.0
3160,67.0,0,90,1.0,64.0
3161,63.0,0,90,1.0,64.0
3162,58.0,120,90,1.0,64.0
3163,67.0,48,90,1.0,64.0
3164,55.0,0,90,1.0,64.0
3165,63.0,240,90,1.0,64.0
3166,58.0,0,90,1.0,64.0
3167,75.0,72,390,0.0,64.0
3168,51.0,0,390,2.0,64.0
3169,63.0,120,90,1.0,64.0
3170,58.0,0,90,1.0,64.0
3171,67.0,48,90,1.0,64.0
3172,55.0,0,90,1.0,64.0
3173,63.0,0,90,1.0,64.0
3174,58.0,240,90,1.0,64.0
3175,49.0,0,1350,2.0,64.0
3176,58.0,120,90,1.0,64.0
3177,63.0,0,90,1.0,64.0
3178,55.0,0,90,1.0,64.0
3179,67.0,120,90,1.0,64.0
3180,63.0,120,90,1.0,64.0
3181,58.0,0,90,1.0,64.0
3182,55.0,120,90,1.0,64.0
3183,75.0,72,870,0.0,64.0
3184,58.0,120,90,1.0,64.0
3185,63.0,0,90,1.0,64.0
3186,55.0,120,90,1.0,64.0
3187,67.0,0,90,1.0,64.0
3188,63.0,120,90,1.0,64.0
3189,58.0,0,90,1.0,64.0
3190,55.0,120,90,1.0,64.0
3191,67.0,0,90,1.0,64.0
3192,58.0,120,90,1.0,64.0
3193,63.0,0,90,1.0,64.0
3194,67.0,48,90,1.0,64.0
3195,55.0,0,90,1.0,64.0
3196,63.0,0,90,1.0,64.0
3197,58.0,240,90,1.0,64.0
3198,75.0,72,390,0.0,64.0
3199,49.0,0,390,2.0,64.0
3200,58.0,120,90,1.0,64.0
3201,63.0,0,90,1.0,64.0
3202,55.0,0,90,1.0,64.0
3203,67.0,48,90,1.0,64.0
3204,63.0,96,90,1.0,64.0
3205,58.0,0,90,1.0,64.0
3206,48.0,144,60,2.0,64.0
3207,75.0,0,60,0.0,64.0
3208,63.0,120,90,0.0,64.0
3209,56.0,0,90,2.0,64.0
3210,51.0,0,90,2.0,64.0
3211,68.0,120,90,0.0,64.0
3212,56.0,0,90,2.0,64.0
3213,63.0,96,90,0.0,64.0
3214,46.0,0,60,2.0,64.0
3215,76.0,144,60,0.0,64.0
3216,64.0,0,90,0.0,64.0
3217,55.0,120,90,2.0,64.0
3218,72.0,0,90,0.0,64.0
3219,48.0,120,90,2.0,64.0
3220,64.0,96,90,0.0,64.0
3221,55.0,0,90,2.0,64.0
3222,77.0,0,60,0.0,64.0
3223,44.0,144,60,2.0,64.0
3224,56.0,0,90,2.0,64.0
3225,65.0,120,90,0.0,64.0
3226,72.0,0,90,0.0,64.0
3227,48.0,120,90,2.0,64.0
3228,56.0,96,90,2.0,64.0
3229,65.0,0,90,0.0,64.0
3230,79.0,144,60,0.0,64.0
3231,43.0,0,60,2.0,64.0
3232,67.0,0,90,0.0,64.0
3233,55.0,120,90,2.0,64.0
3234,72.0,120,90,0.0,64.0
3235,48.0,0,90,2.0,64.0
3236,55.0,0,90,2.0,64.0
3237,67.0,96,90,0.0,64.0
3238,80.0,0,60,0.0,64.0
3239,41.0,144,60,2.0,64.0
3240,68.0,120,90,0.0,64.0
3241,53.0,0,90,2.0,64.0
3242,48.0,120,90,2.0,64.0
3243,72.0,0,90,0.0,64.0
3244,53.0,0,90,2.0,64.0
3245,68.0,96,90,0.0,64.0
3246,39.0,0,60,2.0,64.0
3247,81.0,144,60,0.0,64.0
3248,51.0,0,90,2.0,64.0
3249,69.0,120,90,0.0,64.0
3250,41.0,120,90,2.0,64.0
3251,72.0,0,90,0.0,64.0
3252,69.0,0,90,0.0,64.0
3253,51.0,96,90,2.0,64.0
3254,38.0,0,60,2.0,64.0
3255,82.0,144,60,0.0,64.0
3256,50.0,0,90,2.0,64.0
3257,70.0,120,90,0.0,64.0
3258,41.0,120,90,2.0,64.0
3259,77.0,0,90,0.0,64.0
3260,70.0,0,90,0.0,64.0
3261,50.0,96,90,2.0,64.0
3262,84.0,144,60,0.0,64.0
3263,36.0,0,60,2.0,64.0
3264,72.0,120,90,0.0,64.0
3265,48.0,0,90,2.0,64.0
3266,41.0,0,90,2.0,64.0
3267,77.0,120,90,0.0,64.0
3268,48.0,0,90,2.0,64.0
3269,72.0,96,90,0.0,64.0
3270,34.0,0,60,2.0,64.0
3271,85.0,144,60,0.0,64.0
3272,46.0,120,90,2.0,64.0
3273,73.0,0,90,0.0,64.0
3274,77.0,0,90,0.0,64.0
3275,41.0,120,90,2.0,64.0
3276,73.0,0,90,0.0,64.0
3277,46.0,96,90,2.0,64.0
3278,32.0,0,60,2.0,64.0
3279,86.0,144,60,0.0,64.0
3280,44.0,120,90,2.0,64.0
3281,74.0,0,90,0.0,64.0
3282,77.0,0,90,0.0,64.0
3283,41.0,120,90,2.0,64.0
3284,44.0,0,90,2.0,64.0
3285,74.0,96,90,0.0,64.0
3286,31.0,0,60,2.0,64.0
3287,87.0,144,60,0.0,64.0
3288,43.0,120,90,2.0,64.0
3289,75.0,0,90,0.0,64.0
3290,39.0,0,90,2.0,64.0
3291,82.0,120,90,0.0,64.0
3292,43.0,0,90,2.0,64.0
3293,75.0,96,90,0.0,64.0
3294,31.0,0,60,2.0,64.0
3295,88.0,144,60,0.0,64.0
3296,43.0,120,90,2.0,64.0
3297,76.0,0,90,0.0,64.0
3298,82.0,0,90,0.0,64.0
3299,31.0,120,90,2.0,64.0
3300,76.0,0,90,0.0,64.0
3301,43.0,168,90,2.0,64.0
3302,44.0,72,150,2.0,64.0
3303,32.0,0,150,2.0,64.0
3304,80.0,120,90,0.0,64.0
3305,84.0,120,90,0.0,64.0
3306,80.0,96,90,0.0,64.0
3307,89.0,144,60,0.0,64.0
3308,80.0,120,90,0.0,64.0
3309,84.0,120,90,0.0,64.0
3310,80.0,168,90,0.0,64.0
3311,46.0,72,150,2.0,64.0
3312,34.0,0,150,2.0,64.0
3313,77.0,120,90,0.0,64.0
3314,80.0,120,90,0.0,64.0
3315,77.0,96,90,0.0,64.0
3316,86.0,144,60,0.0,64.0
3317,77.0,120,90,0.0,64.0
3318,80.0,120,90,0.0,64.0
3319,77.0,168,90,0.0,64.0
3320,75.0,48,150,0.0,64.0
3321,39.0,0,180,2.0,64.0
3322,51.0,240,180,2.0,64.0
3323,67.0,0,180,1.0,64.0
3324,63.0,240,180,1.0,64.0
3325,87.0,120,480,0.0,64.0
3326,67.0,0,180,1.0,64.0
3327,63.0,48,180,1.0,64.0
3328,86.0,72,120,0.0,64.0
3329,67.0,48,180,1.0,64.0
3330,63.0,0,180,1.0,64.0
3331,87.0,120,120,0.0,64.0
3332,60.0,72,780,1.0,64.0
3333,89.0,120,120,0.0,64.0
3334,87.0,120,120,0.0,64.0
3335,86.0,72,120,0.0,64.0
3336,63.0,0,180,1.0,64.0
3337,67.0,48,180,1.0,64.0
3338,84.0,120,120,0.0,64.0
3339,67.0,0,180,1.0,64.0
3340,83.0,72,120,0.0,64.0
3341,63.0,48,180,1.0,64.0
3342,84.0,48,120,0.0,64.0
3343,63.0,48,180,1.0,64.0
3344,67.0,0,180,1.0,64.0
3345,86.0,72,120,0.0,64.0
3346,84.0,120,120,0.0,64.0
3347,56.0,72,780,1.0,64.0
3348,82.0,120,120,0.0,64.0
3349,80.0,120,120,0.0,64.0
3350,79.0,72,120,0.0,64.0
3351,65.0,48,180,1.0,64.0
3352,63.0,0,180,1.0,64.0
3353,77.0,120,120,0.0,64.0
3354,65.0,0,180,1.0,64.0
3355,76.0,72,120,0.0,64.0
3356,63.0,48,180,1.0,64.0
3357,77.0,48,120,0.0,64.0
3358,65.0,48,180,1.0,64.0
3359,63.0,0,180,1.0,64.0
3360,79.0,72,120,0.0,64.0
3361,77.0,120,120,0.0,64.0
3362,75.0,120,120,0.0,64.0
3363,58.0,72,780,1.0,64.0
3364,74.0,120,120,0.0,64.0
3365,65.0,0,180,1.0,64.0
3366,62.0,48,180,1.0,64.0
3367,72.0,72,120,0.0,64.0
3368,70.0,120,120,0.0,64.0
3369,69.0,72,120,0.0,64.0
3370,62.0,0,180,1.0,64.0
3371,65.0,48,180,1.0,64.0
3372,70.0,48,120,0.0,64.0
3373,72.0,72,120,0.0,64.0
3374,62.0,48,180,1.0,64.0
3375,65.0,0,180,1.0,64.0
3376,68.0,144,120,0.0,64.0
3377,51.0,72,780,2.0,64.0
3378,67.0,288,150,0.0,64.0
3379,75.0,0,480,0.0,64.0
3380,63.0,0,180,1.0,64.0
3381,55.0,240,180,1.0,64.0
3382,87.0,48,480,0.0,64.0
3383,55.0,48,180,1.0,64.0
3384,63.0,0,180,1.0,64.0
3385,63.0,48,180,1.0,64.0
3386,55.0,0,180,1.0,64.0
3387,86.0,72,120,0.0,64.0
3388,87.0,120,120,0.0,64.0
3389,89.0,120,120,0.0,64.0
3390,48.0,72,780,2.0,64.0
3391,87.0,120,120,0.0,64.0
3392,55.0,48,180,1.0,64.0
3393,60.0,0,180,1.0,64.0
3394,51.0,0,180,1.0,64.0
3395,86.0,72,120,0.0,64.0
3396,84.0,120,120,0.0,64.0
3397,51.0,48,180,1.0,64.0
3398,60.0,0,180,1.0,64.0
3399,55.0,0,180,1.0,64.0
3400,83.0,72,120,0.0,64.0
3401,84.0,48,120,0.0,64.0
3402,55.0,48,180,1.0,64.0
3403,51.0,0,180,1.0,64.0
3404,60.0,0,180,1.0,64.0
3405,86.0,72,120,0.0,64.0
3406,84.0,120,120,0.0,64.0
3407,82.0,120,120,0.0,64.0
3408,44.0,72,780,2.0,64.0
3409,80.0,120,120,0.0,64.0
3410,53.0,0,180,1.0,64.0
3411,56.0,48,180,1.0,64.0
3412,51.0,0,180,1.0,64.0
3413,79.0,72,120,0.0,64.0
3414,77.0,120,120,0.0,64.0
3415,76.0,72,120,0.0,64.0
3416,53.0,0,180,1.0,64.0
3417,56.0,0,180,1.0,64.0
3418,51.0,48,180,1.0,64.0
3419,77.0,48,120,0.0,64.0
3420,79.0,72,120,0.0,64.0
3421,56.0,0,180,1.0,64.0
3422,51.0,48,180,1.0,64.0
3423,53.0,0,180,1.0,64.0
3424,77.0,120,120,0.0,64.0
3425,46.0,72,780,2.0,64.0
3426,75.0,120,120,0.0,64.0
3427,74.0,120,120,0.0,64.0
3428,58.0,0,180,1.0,64.0
3429,72.0,72,120,0.0,64.0
3430,53.0,0,180,1.0,64.0
3431,50.0,48,180,1.0,64.0
3432,70.0,120,120,0.0,64.0
3433,53.0,48,180,1.0,64.0
3434,58.0,0,180,1.0,64.0
3435,50.0,0,180,1.0,64.0
3436,69.0,72,120,0.0,64.0
3437,70.0,48,120,0.0,64.0
3438,72.0,72,120,0.0,64.0
3439,53.0,0,180,1.0,64.0
3440,50.0,48,180,1.0,64.0
3441,58.0,0,180,1.0,64.0
3442,70.0,96,120,0.0,64.0
3443,75.0,72,150,0.0,64.0
3444,39.0,48,90,2.0,64.0
3445,51.0,120,90,2.0,64.0
3446,63.0,72,390,0.0,64.0
3447,39.0,120,90,2.0,64.0
3448,51.0,120,90,2.0,64.0
3449,39.0,48,90,2.0,64.0
3450,51.0,120,90,2.0,64.0
3451,61.0,72,150,0.0,64.0
3452,67.0,0,150,0.0,64.0
3453,39.0,48,90,2.0,64.0
3454,51.0,120,90,2.0,64.0
3455,60.0,72,150,0.0,64.0
3456,68.0,0,150,0.0,64.0
3457,39.0,48,90,2.0,64.0
3458,51.0,120,90,2.0,64.0
3459,70.0,72,150,0.0,64.0
3460,67.0,0,150,0.0,64.0
3461,39.0,48,90,2.0,64.0
3462,51.0,120,90,2.0,64.0
3463,68.0,72,150,0.0,64.0
3464,72.0,0,150,0.0,64.0
3465,39.0,48,90,2.0,64.0
3466,51.0,120,90,2.0,64.0
3467,39.0,48,90,2.0,64.0
3468,68.0,0,150,0.0,64.0
3469,74.0,72,150,0.0,64.0
3470,51.0,120,90,2.0,64.0
3471,39.0,48,90,2.0,64.0
3472,75.0,72,150,0.0,64.0
3473,67.0,0,150,0.0,64.0
3474,51.0,120,90,2.0,64.0
3475,39.0,120,90,2.0,64.0
3476,75.0,72,390,0.0,64.0
3477,51.0,120,90,2.0,64.0
3478,39.0,48,90,2.0,64.0
3479,51.0,120,90,2.0,64.0
3480,39.0,48,90,2.0,64.0
3481,79.0,0,150,0.0,64.0
3482,73.0,72,150,0.0,64.0
3483,51.0,120,90,2.0,64.0
3484,80.0,72,150,0.0,64.0
3485,72.0,0,150,0.0,64.0
3486,39.0,48,90,2.0,64.0
3487,51.0,120,90,2.0,64.0
3488,82.0,0,150,0.0,64.0
3489,39.0,48,90,2.0,64.0
3490,79.0,72,150,0.0,64.0
3491,51.0,120,90,2.0,64.0
3492,84.0,0,150,0.0,64.0
3493,39.0,48,90,2.0,64.0
3494,80.0,72,150,0.0,64.0
3495,51.0,120,90,2.0,64.0
3496,80.0,72,150,0.0,64.0
3497,86.0,0,150,0.0,64.0
3498,39.0,48,90,2.0,64.0
3499,51.0,120,90,2.0,64.0
3500,39.0,120,90,2.0,64.0
3501,87.0,0,780,0.0,64.0
3502,79.0,48,780,0.0,64.0
3503,51.0,120,90,2.0,64.0
3504,39.0,120,90,2.0,64.0
3505,51.0,120,90,2.0,64.0
3506,39.0,120,90,2.0,64.0
3507,51.0,72,90,2.0,64.0
3508,39.0,120,90,2.0,64.0
3509,51.0,120,90,2.0,64.0
3510,75.0,48,780,0.0,64.0
3511,39.0,120,90,2.0,64.0
3512,67.0,0,780,0.0,64.0
3513,51.0,120,90,2.0,64.0
3514,39.0,120,90,2.0,64.0
3515,51.0,120,90,2.0,64.0
3516,39.0,120,90,2.0,64.0
3517,51.0,72,90,2.0,64.0
3518,39.0,120,90,2.0,64.0
3519,51.0,120,90,2.0,64.0
3520,87.0,0,780,0.0,64.0
3521,79.0,48,780,0.0,64.0
3522,36.0,120,90,2.0,64.0
3523,48.0,120,90,2.0,64.0
3524,36.0,120,90,2.0,64.0
3525,48.0,120,90,2.0,64.0
3526,36.0,120,90,2.0,64.0
3527,48.0,72,90,2.0,64.0
3528,36.0,120,90,2.0,64.0
3529,48.0,120,90,2.0,64.0
3530,34.0,120,90,2.0,64.0
3531,67.0,0,780,0.0,64.0
3532,75.0,48,780,0.0,64.0
3533,46.0,120,90,2.0,64.0
3534,34.0,120,90,2.0,64.0
3535,46.0,120,90,2.0,64.0
3536,34.0,120,90,2.0,64.0
3537,46.0,72,90,2.0,64.0
3538,34.0,120,90,2.0,64.0
3539,46.0,120,90,2.0,64.0
3540,87.0,0,780,0.0,64.0
3541,84.0,48,780,0.0,64.0
3542,32.0,120,90,2.0,64.0
3543,44.0,120,90,2.0,64.0
3544,32.0,120,90,2.0,64.0
3545,44.0,120,90,2.0,64.0
3546,32.0,120,90,2.0,64.0
3547,44.0,72,90,2.0,64.0
3548,32.0,120,90,2.0,64.0
3549,44.0,120,90,2.0,64.0
3550,72.0,0,780,0.0,64.0
3551,75.0,48,780,0.0,64.0
3552,31.0,120,90,2.0,64.0
3553,43.0,120,90,2.0,64.0
3554,31.0,120,90,2.0,64.0
3555,43.0,120,90,2.0,64.0
3556,31.0,120,90,2.0,64.0
3557,43.0,72,90,2.0,64.0
3558,31.0,120,90,2.0,64.0
3559,43.0,936,90,2.0,64.0
3560,42.0,0,900,2.0,64.0
3561,30.0,0,900,2.0,64.0
3562,81.0,960,900,0.0,64.0
3563,84.0,0,900,0.0,64.0
3564,86.0,0,900,0.0,64.0
3565,42.0,0,900,2.0,64.0
3566,54.0,360,900,2.0,64.0
3567,57.0,0,900,0.0,64.0
3568,60.0,0,900,0.0,64.0
3569,62.0,0,900,0.0,64.0
3570,31.0,0,300,2.0,64.0
3571,67.0,0,300,0.0,64.0
3572,62.0,42,300,0.0,64.0
3573,58.0,0,300,0.0,64.0
3574,55.0,0,300,0.0,64.0
3575,34.0,0,300,2.0,64.0
3576,38.0,0,300,2.0,64.0
3577,43.0,0,300,2.0,64.0
3578,67.0,0,30,0.0,64.0
3579,58.0,3,20,2.0,64.0
3580,62.0,75,30,0.0,64.0
3581,57.0,33,90,2.0,64.0
3582,69.0,9,60,0.0,64.0
3583,62.0,0,60,0.0,64.0
3584,66.0,0,60,0.0,64.0
3585,55.0,246,20,2.0,64.0
3586,67.0,0,20,0.0,64.0
3587,62.0,0,20,0.0,64.0
3588,70.0,0,20,0.0,64.0
3589,61.0,0,240,2.0,64.0
3590,70.0,0,240,0.0,64.0
3591,64.0,96,240,0.0,64.0
3592,67.0,0,240,0.0,64.0
3593,69.0,0,90,0.0,64.0
3594,66.0,0,90,0.0,64.0
3595,62.0,138,90,2.0,64.0
3596,51.0,318,20,2.0,64.0
3597,69.0,42,300,0.0,64.0
3598,66.0,0,300,0.0,64.0
3599,72.0,0,300,0.0,64.0
3600,63.0,0,300,2.0,64.0
3601,66.0,0,20,0.0,64.0
3602,69.0,0,20,0.0,64.0
3603,72.0,87,20,0.0,64.0
3604,63.0,0,20,2.0,64.0
3605,69.0,0,90,0.0,64.0
3606,66.0,0,90,0.0,64.0
3607,74.0,0,90,0.0,64.0
3608,62.0,33,90,2.0,64.0
3609,60.0,0,20,2.0,64.0
3610,66.0,0,20,0.0,64.0
3611,69.0,0,20,0.0,64.0
3612,75.0,246,20,0.0,64.0
3613,58.0,48,300,2.0,64.0
3614,66.0,0,240,0.0,64.0
3615,69.0,0,240,0.0,64.0
3616,75.0,48,240,0.0,64.0
3617,74.0,0,90,0.0,64.0
3618,70.0,138,90,0.0,64.0
3619,67.0,0,90,0.0,64.0
3620,51.0,318,20,2.0,64.0
3621,69.0,42,300,0.0,64.0
3622,66.0,0,300,0.0,64.0
3623,72.0,0,300,0.0,64.0
3624,63.0,0,300,2.0,64.0
3625,66.0,78,20,0.0,64.0
3626,69.0,0,20,0.0,64.0
3627,72.0,0,20,0.0,64.0
3628,63.0,0,20,2.0,64.0
3629,69.0,42,60,0.0,64.0
3630,74.0,0,60,0.0,64.0
3631,66.0,0,60,0.0,64.0
3632,62.0,0,60,2.0,64.0
3633,75.0,0,20,0.0,64.0
3634,66.0,0,20,0.0,64.0
3635,69.0,126,20,0.0,64.0
3636,60.0,0,20,2.0,64.0
3637,69.0,0,240,0.0,64.0
3638,75.0,0,240,0.0,64.0
3639,66.0,108,240,0.0,64.0
3640,60.0,120,120,2.0,64.0
3641,59.0,132,240,2.0,64.0
3642,64.0,114,240,0.0,64.0
3643,67.0,0,240,0.0,64.0
3644,76.0,0,240,0.0,64.0
3645,59.0,126,240,2.0,64.0
3646,69.0,108,240,0.0,64.0
3647,63.0,0,240,0.0,64.0
3648,66.0,0,240,0.0,64.0
3649,47.0,132,240,2.0,64.0
3650,59.0,0,240,0.0,64.0
3651,64.0,0,240,0.0,64.0
3652,67.0,108,240,0.0,64.0
3653,47.0,132,240,2.0,64.0
3654,66.0,108,240,0.0,64.0
3655,57.0,0,240,0.0,64.0
3656,63.0,0,240,0.0,64.0
3657,60.0,0,240,0.0,64.0
3658,35.0,234,240,2.0,64.0
3659,63.0,6,330,0.0,64.0
3660,54.0,0,330,0.0,64.0
3661,57.0,0,330,0.0,64.0
3662,35.0,108,240,2.0,64.0
3663,64.0,84,120,0.0,64.0
3664,40.0,36,90,2.0,64.0
3665,52.0,120,90,2.0,64.0
3666,69.0,84,120,0.0,64.0
3667,40.0,36,90,2.0,64.0
3668,52.0,120,90,2.0,64.0
3669,67.0,84,120,0.0,64.0
3670,40.0,36,90,2.0,64.0
3671,52.0,120,90,2.0,64.0
3672,40.0,36,90,2.0,64.0
3673,75.0,0,120,0.0,64.0
3674,69.0,84,120,0.0,64.0
3675,52.0,120,90,2.0,64.0
3676,76.0,84,120,0.0,64.0
3677,40.0,36,90,2.0,64.0
3678,67.0,0,120,0.0,64.0
3679,52.0,120,90,2.0,64.0
3680,40.0,36,90,2.0,64.0
3681,81.0,84,120,0.0,64.0
3682,75.0,0,120,0.0,64.0
3683,52.0,120,90,2.0,64.0
3684,76.0,0,120,0.0,64.0
3685,79.0,84,120,0.0,64.0
3686,40.0,36,90,2.0,64.0
3687,52.0,120,90,2.0,64.0
3688,81.0,0,120,0.0,64.0
3689,87.0,84,120,0.0,64.0
3690,40.0,36,90,2.0,64.0
3691,52.0,168,90,2.0,64.0
3692,79.0,48,150,0.0,64.0
3693,88.0,0,150,0.0,64.0
3694,40.0,240,180,2.0,64.0
3695,52.0,0,180,2.0,64.0
3696,59.0,0,180,2.0,64.0
3697,55.0,192,180,2.0,64.0
3698,59.0,240,180,2.0,64.0
3699,55.0,0,180,2.0,64.0
3700,76.0,0,150,0.0,64.0
3701,64.0,48,150,0.0,64.0
3702,59.0,0,180,2.0,64.0
3703,55.0,240,180,2.0,64.0
3704,52.0,192,180,2.0,64.0
3705,64.0,0,150,0.0,64.0
3706,76.0,48,150,0.0,64.0
3707,59.0,192,180,2.0,64.0
3708,55.0,0,180,2.0,64.0
3709,66.0,0,150,0.0,64.0
3710,78.0,48,150,0.0,64.0
3711,55.0,192,180,2.0,64.0
3712,59.0,0,180,2.0,64.0
3713,67.0,48,150,0.0,64.0
3714,59.0,0,180,2.0,64.0
3715,55.0,240,180,2.0,64.0
3716,79.0,0,150,0.0,64.0
3717,67.0,144,480,0.0,64.0
3718,52.0,240,180,2.0,64.0
3719,79.0,0,480,0.0,64.0
3720,57.0,0,180,2.0,64.0
3721,60.0,48,180,2.0,64.0
3722,57.0,0,180,2.0,64.0
3723,78.0,48,150,0.0,64.0
3724,66.0,0,150,0.0,64.0
3725,60.0,240,180,2.0,64.0
3726,60.0,0,180,2.0,64.0
3727,57.0,240,180,2.0,64.0
3728,51.0,192,180,2.0,64.0
3729,66.0,0,150,0.0,64.0
3730,60.0,192,180,2.0,64.0
3731,57.0,0,180,2.0,64.0
3732,78.0,48,150,0.0,64.0
3733,57.0,192,180,2.0,64.0
3734,60.0,0,180,2.0,64.0
3735,79.0,48,150,0.0,64.0
3736,67.0,0,150,0.0,64.0
3737,57.0,0,180,2.0,64.0
3738,81.0,48,150,0.0,64.0
3739,69.0,0,150,0.0,64.0
3740,60.0,144,180,2.0,64.0
3741,38.0,48,90,2.0,64.0
3742,69.0,72,150,0.0,64.0
3743,81.0,0,150,0.0,64.0
3744,50.0,120,90,2.0,64.0
3745,38.0,48,90,2.0,64.0
3746,67.0,72,150,0.0,64.0
3747,50.0,120,90,2.0,64.0
3748,66.0,72,150,0.0,64.0
3749,38.0,48,90,2.0,64.0
3750,50.0,120,90,2.0,64.0
3751,73.0,72,150,0.0,64.0
3752,67.0,0,150,0.0,64.0
3753,38.0,48,90,2.0,64.0
3754,50.0,120,90,2.0,64.0
3755,74.0,72,150,0.0,64.0
3756,66.0,0,150,0.0,64.0
3757,38.0,48,90,2.0,64.0
3758,50.0,120,90,2.0,64.0
3759,38.0,48,90,2.0,64.0
3760,79.0,0,150,0.0,64.0
3761,73.0,72,150,0.0,64.0
3762,50.0,120,90,2.0,64.0
3763,78.0,72,150,0.0,64.0
3764,38.0,48,90,2.0,64.0
3765,74.0,0,150,0.0,64.0
3766,50.0,120,90,2.0,64.0
3767,79.0,72,150,0.0,64.0
3768,85.0,0,150,0.0,64.0
3769,38.0,48,90,2.0,64.0
3770,50.0,168,90,2.0,64.0
3771,50.0,240,180,2.0,64.0
3772,38.0,0,180,2.0,64.0
3773,78.0,48,150,0.0,64.0
3774,86.0,0,150,0.0,64.0
3775,60.0,192,180,2.0,64.0
3776,57.0,0,180,2.0,64.0
3777,60.0,240,180,2.0,64.0
3778,57.0,0,180,2.0,64.0
3779,78.0,0,150,0.0,64.0
3780,66.0,48,150,0.0,64.0
3781,57.0,0,180,2.0,64.0
3782,60.0,240,180,2.0,64.0
3783,50.0,192,180,2.0,64.0
3784,66.0,0,150,0.0,64.0
3785,60.0,0,180,2.0,64.0
3786,57.0,192,180,2.0,64.0
3787,78.0,48,150,0.0,64.0
3788,67.0,48,150,0.0,64.0
3789,57.0,192,180,2.0,64.0
3790,60.0,0,180,2.0,64.0
3791,79.0,0,150,0.0,64.0
3792,60.0,0,180,2.0,64.0
3793,57.0,240,180,2.0,64.0
3794,69.0,0,150,0.0,64.0
3795,81.0,48,150,0.0,64.0
3796,81.0,0,480,0.0,64.0
3797,50.0,240,180,2.0,64.0
3798,69.0,144,480,0.0,64.0
3799,58.0,48,180,2.0,64.0
3800,55.0,0,180,2.0,64.0
3801,67.0,48,150,0.0,64.0
3802,55.0,240,180,2.0,64.0
3803,58.0,0,180,2.0,64.0
3804,79.0,0,150,0.0,64.0
3805,55.0,0,180,2.0,64.0
3806,58.0,240,180,2.0,64.0
3807,49.0,192,180,2.0,64.0
3808,58.0,192,180,2.0,64.0
3809,79.0,48,150,0.0,64.0
3810,67.0,0,150,0.0,64.0
3811,55.0,0,180,2.0,64.0
3812,81.0,48,150,0.0,64.0
3813,55.0,0,180,2.0,64.0
3814,58.0,192,180,2.0,64.0
3815,69.0,0,150,0.0,64.0
3816,55.0,144,180,2.0,64.0
3817,58.0,0,180,2.0,64.0
3818,70.0,48,150,0.0,64.0
3819,82.0,0,150,0.0,64.0
3820,70.0,48,90,0.0,64.0
3821,36.0,72,150,2.0,64.0
3822,48.0,0,150,2.0,64.0
3823,82.0,120,90,0.0,64.0
3824,49.0,96,240,2.0,64.0
3825,70.0,120,90,0.0,64.0
3826,82.0,24,90,0.0,64.0
3827,70.0,48,90,0.0,64.0
3828,48.0,72,150,2.0,64.0
3829,82.0,120,90,0.0,64.0
3830,70.0,120,90,0.0,64.0
3831,53.0,96,240,2.0,64.0
3832,82.0,24,90,0.0,64.0
3833,70.0,48,90,0.0,64.0
3834,52.0,72,150,2.0,64.0
3835,82.0,120,90,0.0,64.0
3836,61.0,96,240,2.0,64.0
3837,70.0,120,90,0.0,64.0
3838,82.0,24,90,0.0,64.0
3839,60.0,72,150,2.0,64.0
3840,70.0,48,90,0.0,64.0
3841,82.0,120,90,0.0,64.0
3842,65.0,96,240,2.0,64.0
3843,70.0,120,90,0.0,64.0
3844,82.0,24,90,0.0,64.0
3845,70.0,48,90,0.0,64.0
3846,64.0,72,150,2.0,64.0
3847,82.0,120,90,0.0,64.0
3848,70.0,120,90,0.0,64.0
3849,66.0,96,240,2.0,64.0
3850,82.0,24,90,0.0,64.0
3851,67.0,72,150,2.0,64.0
3852,70.0,48,90,0.0,64.0
3853,82.0,120,90,0.0,64.0
3854,70.0,120,90,0.0,64.0
3855,82.0,120,90,0.0,64.0
3856,70.0,120,90,0.0,64.0
3857,82.0,120,90,0.0,64.0
3858,70.0,120,90,0.0,64.0
3859,82.0,120,90,0.0,64.0
3860,70.0,120,90,0.0,64.0
3861,82.0,120,90,0.0,64.0
3862,70.0,120,90,0.0,64.0
3863,82.0,120,90,0.0,64.0
3864,69.0,120,90,0.0,64.0
3865,81.0,120,90,0.0,64.0
3866,69.0,120,90,0.0,64.0
3867,42.0,96,240,2.0,64.0
3868,81.0,24,90,0.0,64.0
3869,41.0,72,150,2.0,64.0
3870,69.0,48,90,0.0,64.0
3871,81.0,120,90,0.0,64.0
3872,49.0,96,240,2.0,64.0
3873,69.0,120,90,0.0,64.0
3874,81.0,24,90,0.0,64.0
3875,69.0,48,90,0.0,64.0
3876,48.0,72,150,2.0,64.0
3877,81.0,120,90,0.0,64.0
3878,54.0,96,240,2.0,64.0
3879,69.0,120,90,0.0,64.0
3880,81.0,24,90,0.0,64.0
3881,69.0,48,90,0.0,64.0
3882,53.0,72,150,2.0,64.0
3883,81.0,120,90,0.0,64.0
3884,61.0,96,240,2.0,64.0
3885,69.0,120,90,0.0,64.0
3886,81.0,24,90,0.0,64.0
3887,60.0,72,150,2.0,64.0
3888,69.0,48,90,0.0,64.0
3889,81.0,120,90,0.0,64.0
3890,69.0,120,90,0.0,64.0
3891,64.0,96,240,2.0,64.0
3892,81.0,24,90,0.0,64.0
3893,69.0,48,90,0.0,64.0
3894,65.0,72,150,2.0,64.0
3895,81.0,120,90,0.0,64.0
3896,69.0,120,90,0.0,64.0
3897,81.0,120,90,0.0,64.0
3898,69.0,120,90,0.0,64.0
3899,81.0,120,90,0.0,64.0
3900,69.0,120,90,0.0,64.0
3901,81.0,120,90,0.0,64.0
3902,69.0,120,90,0.0,64.0
3903,81.0,120,90,0.0,64.0
3904,69.0,120,90,0.0,64.0
3905,81.0,120,90,0.0,64.0
3906,68.0,120,90,0.0,64.0
3907,80.0,120,90,0.0,64.0
3908,48.0,96,240,2.0,64.0
3909,68.0,120,90,0.0,64.0
3910,80.0,24,90,0.0,64.0
3911,68.0,120,90,0.0,64.0
3912,47.0,96,240,2.0,64.0
3913,80.0,24,90,0.0,64.0
3914,68.0,120,90,0.0,64.0
3915,50.0,96,240,2.0,64.0
3916,80.0,24,90,0.0,64.0
3917,53.0,72,150,2.0,64.0
3918,68.0,48,90,0.0,64.0
3919,80.0,120,90,0.0,64.0
3920,68.0,120,90,0.0,64.0
3921,60.0,96,240,2.0,64.0
3922,80.0,24,90,0.0,64.0
3923,59.0,96,240,2.0,64.0
3924,68.0,120,90,0.0,64.0
3925,80.0,24,90,0.0,64.0
3926,62.0,96,240,2.0,64.0
3927,68.0,120,90,0.0,64.0
3928,80.0,24,90,0.0,64.0
3929,68.0,48,90,0.0,64.0
3930,65.0,72,150,2.0,64.0
3931,80.0,120,90,0.0,64.0
3932,68.0,120,90,0.0,64.0
3933,80.0,120,90,0.0,64.0
3934,68.0,48,90,0.0,64.0
3935,62.0,72,150,2.0,64.0
3936,80.0,120,90,0.0,64.0
3937,68.0,120,90,0.0,64.0
3938,80.0,120,90,0.0,64.0
3939,59.0,72,150,2.0,64.0
3940,68.0,48,90,0.0,64.0
3941,80.0,120,90,0.0,64.0
3942,67.0,120,90,0.0,64.0
3943,79.0,120,90,0.0,64.0
3944,55.0,72,150,2.0,64.0
3945,67.0,48,90,0.0,64.0
3946,79.0,120,90,0.0,64.0
3947,65.0,120,90,0.0,64.0
3948,77.0,120,90,0.0,64.0
3949,49.0,72,150,2.0,64.0
3950,65.0,48,90,0.0,64.0
3951,61.0,0,150,2.0,64.0
3952,77.0,120,90,0.0,64.0
3953,64.0,120,90,0.0,64.0
3954,76.0,120,90,0.0,64.0
3955,58.0,0,150,2.0,64.0
3956,46.0,72,150,2.0,64.0
3957,64.0,48,90,0.0,64.0
3958,76.0,120,90,0.0,64.0
3959,61.0,120,90,0.0,64.0
3960,73.0,120,90,0.0,64.0
3961,43.0,0,150,2.0,64.0
3962,55.0,72,150,2.0,64.0
3963,61.0,48,90,0.0,64.0
3964,73.0,120,90,0.0,64.0
3965,60.0,120,90,0.0,64.0
3966,72.0,120,90,0.0,64.0
3967,60.0,48,90,0.0,64.0
3968,40.0,0,150,2.0,64.0
3969,52.0,72,150,2.0,64.0
3970,72.0,120,90,0.0,64.0
3971,58.0,120,90,0.0,64.0
3972,70.0,120,90,0.0,64.0
3973,58.0,48,90,0.0,64.0
3974,41.0,72,150,2.0,64.0
3975,53.0,0,150,2.0,64.0
3976,70.0,120,90,0.0,64.0
3977,56.0,120,90,0.0,64.0
3978,68.0,120,90,0.0,64.0
3979,56.0,120,90,0.0,64.0
3980,68.0,120,90,0.0,64.0
3981,55.0,120,90,0.0,64.0
3982,67.0,120,90,0.0,64.0
3983,55.0,96,90,1.0,64.0
3984,29.0,0,180,2.0,64.0
3985,41.0,24,180,2.0,64.0
3986,67.0,120,90,1.0,64.0
3987,53.0,120,90,1.0,64.0
3988,65.0,120,90,1.0,64.0
3989,53.0,120,90,1.0,64.0
3990,65.0,120,90,1.0,64.0
3991,51.0,120,90,1.0,64.0
3992,63.0,120,90,1.0,64.0
3993,42.0,24,180,2.0,64.0
3994,30.0,0,180,2.0,64.0
3995,51.0,96,90,1.0,64.0
3996,63.0,120,90,1.0,64.0
3997,50.0,120,90,1.0,64.0
3998,62.0,120,90,1.0,64.0
3999,50.0,120,90,1.0,64.0
4000,62.0,120,90,1.0,64.0
4001,51.0,120,90,1.0,64.0
4002,63.0,120,90,1.0,64.0
4003,42.0,24,180,2.0,64.0
4004,30.0,0,180,2.0,64.0
4005,51.0,96,90,1.0,64.0
4006,63.0,120,90,1.0,64.0
4007,50.0,120,90,1.0,64.0
4008,62.0,120,90,1.0,64.0
4009,50.0,120,90,1.0,64.0
4010,62.0,120,90,1.0,64.0
4011,48.0,120,90,1.0,64.0
4012,60.0,120,90,1.0,64.0
4013,31.0,96,90,2.0,64.0
4014,59.0,0,180,1.0,64.0
4015,47.0,24,180,1.0,64.0
4016,43.0,120,90,2.0,64.0
4017,31.0,120,90,2.0,64.0
4018,43.0,120,90,2.0,64.0
4019,49.0,96,120,1.0,64.0
4020,31.0,24,90,2.0,64.0
4021,43.0,24,90,2.0,64.0
4022,56.0,96,120,1.0,64.0
4023,52.0,96,120,1.0,64.0
4024,31.0,24,90,2.0,64.0
4025,49.0,96,120,1.0,64.0
4026,43.0,24,90,2.0,64.0
4027,50.0,96,120,1.0,64.0
4028,31.0,24,90,2.0,64.0
4029,56.0,96,120,1.0,64.0
4030,43.0,24,90,2.0,64.0
4031,53.0,96,120,1.0,64.0
4032,31.0,24,90,2.0,64.0
4033,50.0,96,120,1.0,64.0
4034,43.0,24,90,2.0,64.0
4035,31.0,24,90,2.0,64.0
4036,48.0,96,120,1.0,64.0
4037,43.0,24,90,2.0,64.0
4038,56.0,96,120,1.0,64.0
4039,31.0,24,90,2.0,64.0
4040,51.0,96,120,1.0,64.0
4041,43.0,24,90,2.0,64.0
4042,48.0,96,120,1.0,64.0
4043,31.0,24,90,2.0,64.0
4044,47.0,96,120,1.0,64.0
4045,55.0,96,120,1.0,64.0
4046,43.0,24,90,2.0,64.0
4047,50.0,96,120,1.0,64.0
4048,31.0,24,90,2.0,64.0
4049,47.0,96,120,1.0,64.0
4050,43.0,24,90,2.0,64.0
4051,31.0,24,90,2.0,64.0
4052,49.0,96,120,1.0,64.0
4053,56.0,96,120,1.0,64.0
4054,43.0,24,90,2.0,64.0
4055,31.0,24,90,2.0,64.0
4056,52.0,96,120,1.0,64.0
4057,43.0,24,90,2.0,64.0
4058,49.0,96,120,1.0,64.0
4059,50.0,96,120,1.0,64.0
4060,31.0,24,90,2.0,64.0
4061,56.0,96,120,1.0,64.0
4062,43.0,24,90,2.0,64.0
4063,31.0,24,90,2.0,64.0
4064,53.0,96,120,1.0,64.0
4065,43.0,24,90,2.0,64.0
4066,50.0,96,120,1.0,64.0
4067,48.0,96,120,1.0,64.0
4068,31.0,24,90,2.0,64.0
4069,55.0,96,120,1.0,64.0
4070,43.0,24,90,2.0,64.0
4071,51.0,96,120,1.0,64.0
4072,31.0,24,90,2.0,64.0
4073,43.0,24,90,2.0,64.0
4074,48.0,96,120,1.0,64.0
4075,55.0,0,180,1.0,64.0
4076,50.0,24,180,1.0,64.0
4077,31.0,96,90,2.0,64.0
4078,47.0,0,180,1.0,64.0
4079,43.0,120,90,2.0,64.0
4080,31.0,36,90,2.0,64.0
4081,64.0,84,120,0.0,64.0
4082,43.0,120,90,2.0,64.0
4083,65.0,84,120,0.0,64.0
4084,31.0,36,90,2.0,64.0
4085,43.0,120,90,2.0,64.0
4086,64.0,84,120,0.0,64.0
4087,73.0,0,120,0.0,64.0
4088,31.0,36,90,2.0,64.0
4089,43.0,120,90,2.0,64.0
4090,65.0,0,120,0.0,64.0
4091,74.0,84,120,0.0,64.0
4092,31.0,36,90,2.0,64.0
4093,43.0,120,90,2.0,64.0
4094,31.0,36,90,2.0,64.0
4095,76.0,84,120,0.0,64.0
4096,73.0,0,120,0.0,64.0
4097,43.0,120,90,2.0,64.0
4098,31.0,36,90,2.0,64.0
4099,74.0,0,120,0.0,64.0
4100,77.0,84,120,0.0,64.0
4101,43.0,120,90,2.0,64.0
4102,31.0,36,90,2.0,64.0
4103,76.0,0,120,0.0,64.0
4104,85.0,84,120,0.0,64.0
4105,43.0,168,90,2.0,64.0
4106,31.0,240,480,2.0,64.0
4107,77.0,0,150,1.0,64.0
4108,86.0,240,150,0.0,64.0
4109,88.0,96,150,0.0,64.0
4110,85.0,0,150,1.0,64.0
4111,43.0,240,480,1.0,64.0
4112,35.0,240,480,2.0,64.0
4113,89.0,96,870,0.0,64.0
4114,86.0,0,870,1.0,64.0
4115,36.0,60,480,2.0,64.0
4116,43.0,144,15,1.0,64.0
4117,84.0,0,480,1.0,64.0
4118,30.0,0,480,2.0,64.0
4119,89.0,60,60,0.0,64.0
4120,87.0,60,60,0.0,64.0
4121,89.0,60,60,0.0,64.0
4122,87.0,0,60,0.0,64.0
4123,89.0,60,60,0.0,64.0
4124,43.0,0,240,1.0,64.0
4125,87.0,60,60,0.0,64.0
4126,86.0,60,60,0.0,64.0
4127,87.0,96,60,0.0,64.0
4128,83.0,24,180,1.0,64.0
4129,31.0,96,90,2.0,64.0
4130,86.0,0,180,0.0,64.0
4131,43.0,120,90,2.0,64.0
4132,31.0,120,90,2.0,64.0
4133,43.0,120,90,2.0,64.0
4134,31.0,24,90,2.0,64.0
4135,49.0,96,120,1.0,64.0
4136,56.0,96,120,1.0,64.0
4137,43.0,24,90,2.0,64.0
4138,31.0,24,90,2.0,64.0
4139,52.0,96,120,1.0,64.0
4140,43.0,24,90,2.0,64.0
4141,49.0,96,120,1.0,64.0
4142,31.0,24,90,2.0,64.0
4143,50.0,96,120,1.0,64.0
4144,56.0,96,120,1.0,64.0
4145,43.0,24,90,2.0,64.0
4146,31.0,24,90,2.0,64.0
4147,53.0,96,120,1.0,64.0
4148,50.0,96,120,1.0,64.0
4149,43.0,24,90,2.0,64.0
4150,31.0,24,90,2.0,64.0
4151,48.0,96,120,1.0,64.0
4152,56.0,96,120,1.0,64.0
4153,43.0,24,90,2.0,64.0
4154,31.0,24,90,2.0,64.0
4155,51.0,96,120,1.0,64.0
4156,43.0,24,90,2.0,64.0
4157,48.0,96,120,1.0,64.0
4158,47.0,96,120,1.0,64.0
4159,31.0,24,90,2.0,64.0
4160,55.0,96,120,1.0,64.0
4161,43.0,24,90,2.0,64.0
4162,50.0,96,120,1.0,64.0
4163,31.0,24,90,2.0,64.0
4164,43.0,24,90,2.0,64.0
4165,47.0,96,120,1.0,64.0
4166,31.0,24,90,2.0,64.0
4167,49.0,96,120,1.0,64.0
4168,56.0,96,120,1.0,64.0
4169,43.0,24,90,2.0,64.0
4170,52.0,96,120,1.0,64.0
4171,31.0,24,90,2.0,64.0
4172,49.0,96,120,1.0,64.0
4173,43.0,24,90,2.0,64.0
4174,50.0,96,120,1.0,64.0
4175,31.0,24,90,2.0,64.0
4176,56.0,96,120,1.0,64.0
4177,43.0,24,90,2.0,64.0
4178,31.0,24,90,2.0,64.0
4179,53.0,96,120,1.0,64.0
4180,43.0,24,90,2.0,64.0
4181,50.0,96,120,1.0,64.0
4182,31.0,24,90,2.0,64.0
4183,48.0,96,120,1.0,64.0
4184,43.0,24,90,2.0,64.0
4185,55.0,96,120,1.0,64.0
4186,31.0,24,90,2.0,64.0
4187,51.0,96,120,1.0,64.0
4188,48.0,96,120,1.0,64.0
4189,43.0,24,90,2.0,64.0
4190,50.0,0,180,1.0,64.0
4191,55.0,0,180,1.0,64.0
4192,47.0,24,180,1.0,64.0
4193,31.0,96,90,2.0,64.0
4194,43.0,120,90,2.0,64.0
4195,64.0,84,120,0.0,64.0
4196,31.0,36,90,2.0,64.0
4197,43.0,120,90,2.0,64.0
4198,31.0,36,90,2.0,64.0
4199,65.0,84,120,0.0,64.0
4200,43.0,120,90,2.0,64.0
4201,31.0,36,90,2.0,64.0
4202,64.0,84,120,0.0,64.0
4203,73.0,0,120,0.0,64.0
4204,43.0,120,90,2.0,64.0
4205,31.0,36,90,2.0,64.0
4206,65.0,0,120,0.0,64.0
4207,74.0,84,120,0.0,64.0
4208,43.0,120,90,2.0,64.0
4209,76.0,0,120,0.0,64.0
4210,31.0,36,90,2.0,64.0
4211,73.0,84,120,0.0,64.0
4212,43.0,120,90,2.0,64.0
4213,31.0,36,90,2.0,64.0
4214,74.0,84,120,0.0,64.0
4215,77.0,0,120,0.0,64.0
4216,43.0,120,90,2.0,64.0
4217,85.0,84,120,0.0,64.0
4218,76.0,0,120,0.0,64.0
4219,31.0,36,90,2.0,64.0
4220,43.0,168,90,2.0,64.0
4221,86.0,0,150,0.0,64.0
4222,31.0,240,480,2.0,64.0
4223,77.0,240,150,1.0,64.0
4224,88.0,96,150,0.0,64.0
4225,85.0,0,150,1.0,64.0
4226,35.0,240,480,2.0,64.0
4227,86.0,96,870,1.0,64.0
4228,89.0,0,870,0.0,64.0
4229,43.0,240,15,1.0,64.0
4230,36.0,60,480,2.0,64.0
4231,43.0,144,15,1.0,64.0
4232,84.0,0,480,1.0,64.0
4233,30.0,0,480,2.0,64.0
4234,89.0,60,60,0.0,64.0
4235,87.0,60,60,0.0,64.0
4236,89.0,60,60,0.0,64.0
4237,87.0,60,60,0.0,64.0
4238,89.0,60,60,0.0,64.0
4239,43.0,144,240,1.0,64.0
4240,87.0,60,60,0.0,64.0
4241,86.0,60,60,0.0,64.0
4242,87.0,0,60,0.0,64.0
4243,31.0,240,480,2.0,64.0
4244,83.0,0,150,1.0,64.0
4245,86.0,240,150,0.0,64.0
4246,85.0,0,150,1.0,64.0
4247,88.0,96,150,0.0,64.0
4248,86.0,96,870,1.0,64.0
4249,35.0,240,480,2.0,64.0
4250,89.0,0,870,0.0,64.0
4251,43.0,240,15,1.0,64.0
4252,36.0,60,480,2.0,64.0
4253,43.0,144,15,1.0,64.0
4254,89.0,60,60,0.0,64.0
4255,84.0,0,480,1.0,64.0
4256,30.0,0,480,2.0,64.0
4257,87.0,60,60,0.0,64.0
4258,89.0,60,60,0.0,64.0
4259,87.0,60,60,0.0,64.0
4260,43.0,0,15,1.0,64.0
4261,89.0,60,60,0.0,64.0
4262,87.0,60,60,0.0,64.0
4263,86.0,60,60,0.0,64.0
4264,87.0,144,60,0.0,64.0
4265,83.0,240,150,1.0,64.0
4266,31.0,240,480,2.0,64.0
4267,86.0,0,150,0.0,64.0
4268,88.0,0,150,0.0,64.0
4269,85.0,96,150,1.0,64.0
4270,35.0,240,480,2.0,64.0
4271,86.0,0,870,1.0,64.0
4272,89.0,96,870,0.0,64.0
4273,43.0,240,15,1.0,64.0
4274,36.0,60,480,2.0,64.0
4275,43.0,0,480,1.0,64.0
4276,89.0,60,60,0.0,64.0
4277,84.0,0,480,1.0,64.0
4278,30.0,0,480,2.0,64.0
4279,87.0,60,60,0.0,64.0
4280,89.0,60,60,0.0,64.0
4281,87.0,60,60,0.0,64.0
4282,89.0,60,60,0.0,64.0
4283,43.0,0,240,1.0,64.0
4284,87.0,60,60,0.0,64.0
4285,86.0,60,60,0.0,64.0
4286,87.0,96,60,0.0,64.0
4287,83.0,96,90,1.0,64.0
4288,43.0,24,180,1.0,64.0
4289,31.0,0,180,2.0,64.0
4290,86.0,0,90,0.0,64.0
4291,89.0,120,90,0.0,64.0
4292,86.0,120,90,0.0,64.0
4293,84.0,120,90,0.0,64.0
4294,83.0,120,90,0.0,64.0
4295,89.0,120,90,0.0,64.0
4296,86.0,120,90,0.0,64.0
4297,84.0,120,90,0.0,64.0
4298,83.0,120,90,0.0,64.0
4299,89.0,120,90,0.0,64.0
4300,86.0,120,90,0.0,64.0
4301,84.0,120,90,0.0,64.0
4302,83.0,120,90,0.0,64.0
4303,86.0,120,90,0.0,64.0
4304,83.0,120,90,0.0,64.0
4305,79.0,120,90,0.0,64.0
4306,80.0,120,90,0.0,64.0
4307,82.0,120,90,0.0,64.0
4308,80.0,120,90,0.0,64.0
4309,79.0,120,90,0.0,64.0
4310,77.0,120,90,0.0,64.0
4311,80.0,120,90,0.0,64.0
4312,77.0,120,90,0.0,64.0
4313,75.0,120,90,0.0,64.0
4314,74.0,120,90,0.0,64.0
4315,77.0,120,90,0.0,64.0
4316,74.0,120,90,0.0,64.0
4317,72.0,120,90,0.0,64.0
4318,71.0,120,90,0.0,64.0
4319,74.0,120,90,0.0,64.0
4320,71.0,120,90,0.0,64.0
4321,67.0,120,90,0.0,64.0
4322,68.0,120,90,0.0,64.0
4323,70.0,120,90,0.0,64.0
4324,68.0,120,90,0.0,64.0
4325,67.0,120,90,0.0,64.0
4326,65.0,120,90,0.0,64.0
4327,68.0,120,90,0.0,64.0
4328,65.0,120,90,0.0,64.0
4329,63.0,120,90,0.0,64.0
4330,62.0,120,90,0.0,64.0
4331,65.0,120,90,0.0,64.0
4332,62.0,120,90,0.0,64.0
4333,60.0,120,90,0.0,64.0
4334,59.0,120,90,0.0,64.0
4335,62.0,120,90,0.0,64.0
4336,59.0,120,90,0.0,64.0
4337,55.0,120,90,0.0,64.0
4338,56.0,120,90,1.0,64.0
4339,58.0,120,90,1.0,64.0
4340,56.0,120,90,1.0,64.0
4341,55.0,120,90,1.0,64.0
4342,53.0,120,90,1.0,64.0
4343,51.0,120,90,1.0,64.0
4344,50.0,120,90,1.0,64.0
4345,48.0,120,90,1.0,64.0
4346,47.0,120,90,1.0,64.0
4347,48.0,120,90,1.0,64.0
4348,47.0,120,90,1.0,64.0
4349,44.0,120,90,1.0,64.0
4350,43.0,120,90,2.0,64.0
4351,41.0,120,90,2.0,64.0
4352,39.0,120,90,2.0,64.0
4353,38.0,120,90,2.0,64.0
4354,36.0,120,90,2.0,64.0
4355,60.0,120,570,0.0,64.0
4356,48.0,120,90,2.0,64.0
4357,36.0,120,90,2.0,64.0
4358,48.0,120,90,2.0,64.0
4359,36.0,0,90,2.0,64.0
4360,48.0,120,90,2.0,64.0
4361,58.0,0,150,0.0,64.0
4362,64.0,72,150,0.0,64.0
4363,36.0,48,90,2.0,64.0
4364,48.0,120,90,2.0,64.0
4365,36.0,48,90,2.0,64.0
4366,65.0,0,150,0.0,64.0
4367,56.0,72,150,0.0,64.0
4368,48.0,120,90,2.0,64.0
4369,67.0,0,150,0.0,64.0
4370,36.0,48,90,2.0,64.0
4371,64.0,72,150,0.0,64.0
4372,48.0,120,90,2.0,64.0
4373,36.0,48,90,2.0,64.0
4374,68.0,0,150,0.0,64.0
4375,65.0,72,150,0.0,64.0
4376,48.0,120,90,2.0,64.0
4377,62.0,72,150,0.0,64.0
4378,71.0,0,150,0.0,64.0
4379,36.0,48,90,2.0,64.0
4380,48.0,120,90,2.0,64.0
4381,36.0,48,90,2.0,64.0
4382,63.0,0,150,0.0,64.0
4383,72.0,72,150,0.0,64.0
4384,48.0,120,90,2.0,64.0
4385,72.0,72,390,0.0,64.0
4386,64.0,0,390,0.0,64.0
4387,36.0,120,90,2.0,64.0
4388,48.0,120,90,2.0,64.0
4389,36.0,48,90,2.0,64.0
4390,48.0,120,90,2.0,64.0
4391,76.0,72,150,0.0,64.0
4392,70.0,0,150,0.0,64.0
4393,36.0,48,90,2.0,64.0
4394,48.0,120,90,2.0,64.0
4395,68.0,72,150,0.0,64.0
4396,77.0,0,150,0.0,64.0
4397,36.0,48,90,2.0,64.0
4398,48.0,120,90,2.0,64.0
4399,36.0,48,90,2.0,64.0
4400,79.0,72,150,0.0,64.0
4401,76.0,0,150,0.0,64.0
4402,48.0,120,90,2.0,64.0
4403,36.0,48,90,2.0,64.0
4404,77.0,72,150,0.0,64.0
4405,80.0,0,150,0.0,64.0
4406,48.0,120,90,2.0,64.0
4407,83.0,0,150,0.0,64.0
4408,74.0,72,150,0.0,64.0
4409,36.0,48,90,2.0,64.0
4410,48.0,120,90,2.0,64.0
4411,72.0,0,300,0.0,64.0
4412,79.0,48,300,0.0,64.0
4413,84.0,0,300,0.0,64.0
4414,75.0,0,300,0.0,64.0
4415,36.0,120,90,2.0,64.0
4416,48.0,72,90,2.0,64.0
4417,36.0,120,90,2.0,64.0
4418,48.0,120,90,2.0,64.0
4419,38.0,120,90,2.0,64.0
4420,77.0,0,300,0.0,64.0
4421,67.0,0,300,0.0,64.0
4422,79.0,0,300,0.0,64.0
4423,71.0,48,300,0.0,64.0
4424,50.0,72,90,2.0,64.0
4425,38.0,120,90,2.0,64.0
4426,50.0,120,90,2.0,64.0
4427,39.0,120,90,2.0,64.0
4428,67.0,48,300,0.0,64.0
4429,75.0,0,300,0.0,64.0
4430,72.0,0,300,0.0,64.0
4431,51.0,72,90,2.0,64.0
4432,39.0,120,90,2.0,64.0
4433,51.0,120,90,2.0,64.0
4434,74.0,48,300,0.0,64.0
4435,68.0,0,300,0.0,64.0
4436,65.0,0,300,0.0,64.0
4437,41.0,120,90,2.0,64.0
4438,53.0,72,90,2.0,64.0
4439,41.0,120,90,2.0,64.0
4440,53.0,120,90,2.0,64.0
4441,67.0,96,480,1.0,64.0
4442,43.0,120,90,2.0,64.0
4443,63.0,0,1440,0.0,64.0
4444,72.0,96,1440,0.0,64.0
4445,55.0,120,90,2.0,64.0
4446,43.0,120,90,2.0,64.0
4447,55.0,24,90,2.0,64.0
4448,66.0,96,480,1.0,64.0
4449,43.0,120,90,2.0,64.0
4450,55.0,120,90,2.0,64.0
4451,43.0,120,90,2.0,64.0
4452,55.0,24,90,2.0,64.0
4453,41.0,120,90,2.0,64.0
4454,69.0,0,480,1.0,64.0
4455,53.0,120,90,2.0,64.0
4456,41.0,120,90,2.0,64.0
4457,53.0,24,90,2.0,64.0
4458,65.0,0,480,1.0,64.0
4459,43.0,120,90,2.0,64.0
4460,71.0,0,480,0.0,64.0
4461,62.0,96,480,0.0,64.0
4462,55.0,120,90,2.0,64.0
4463,43.0,120,90,2.0,64.0
4464,55.0,24,90,2.0,64.0
4465,60.0,72,150,0.0,64.0
4466,63.0,0,150,0.0,64.0
4467,72.0,0,150,0.0,64.0
4468,36.0,48,90,2.0,64.0
4469,48.0,120,90,2.0,64.0
4470,60.0,72,390,0.0,64.0
4471,36.0,120,90,2.0,64.0
4472,48.0,120,90,2.0,64.0
4473,36.0,48,90,2.0,64.0
4474,48.0,120,90,2.0,64.0
4475,36.0,48,90,2.0,64.0
4476,64.0,72,150,0.0,64.0
4477,58.0,0,150,0.0,64.0
4478,48.0,120,90,2.0,64.0
4479,36.0,48,90,2.0,64.0
4480,65.0,0,150,0.0,64.0
4481,56.0,72,150,0.0,64.0
4482,48.0,120,90,2.0,64.0
4483,67.0,72,150,0.0,64.0
4484,64.0,0,150,0.0,64.0
4485,36.0,48,90,2.0,64.0
4486,48.0,120,90,2.0,64.0
4487,68.0,72,150,0.0,64.0
4488,65.0,0,150,0.0,64.0
4489,36.0,48,90,2.0,64.0
4490,48.0,120,90,2.0,64.0
4491,71.0,72,150,0.0,64.0
4492,62.0,0,150,0.0,64.0
4493,36.0,48,90,2.0,64.0
4494,48.0,120,90,2.0,64.0
4495,36.0,48,90,2.0,64.0
4496,72.0,72,150,0.0,64.0
4497,63.0,0,150,0.0,64.0
4498,48.0,120,90,2.0,64.0
4499,36.0,120,90,2.0,64.0
4500,64.0,0,390,0.0,64.0
4501,72.0,72,390,0.0,64.0
4502,48.0,120,90,2.0,64.0
4503,36.0,48,90,2.0,64.0
4504,48.0,120,90,2.0,64.0
4505,70.0,72,150,0.0,64.0
4506,76.0,0,150,0.0,64.0
4507,36.0,48,90,2.0,64.0
4508,48.0,120,90,2.0,64.0
4509,77.0,0,150,0.0,64.0
4510,68.0,72,150,0.0,64.0
4511,36.0,48,90,2.0,64.0
4512,48.0,120,90,2.0,64.0
4513,36.0,48,90,2.0,64.0
4514,76.0,72,150,0.0,64.0
4515,79.0,0,150,0.0,64.0
4516,48.0,120,90,2.0,64.0
4517,77.0,0,150,0.0,64.0
4518,80.0,72,150,0.0,64.0
4519,36.0,48,90,2.0,64.0
4520,48.0,120,90,2.0,64.0
4521,83.0,72,150,0.0,64.0
4522,74.0,0,150,0.0,64.0
4523,36.0,48,90,2.0,64.0
4524,48.0,120,90,2.0,64.0
4525,36.0,120,90,2.0,64.0
4526,72.0,0,300,0.0,64.0
4527,79.0,0,300,0.0,64.0
4528,84.0,0,300,0.0,64.0
4529,75.0,48,300,0.0,64.0
4530,48.0,72,90,2.0,64.0
4531,36.0,120,90,2.0,64.0
4532,48.0,120,90,2.0,64.0
4533,36.0,120,90,2.0,64.0
4534,80.0,0,300,0.0,64.0
4535,75.0,48,300,0.0,64.0
4536,68.0,0,300,0.0,64.0
4537,48.0,72,90,2.0,64.0
4538,36.0,120,90,2.0,64.0
4539,48.0,120,90,2.0,64.0
4540,77.0,48,300,0.0,64.0
4541,73.0,0,300,0.0,64.0
4542,68.0,0,300,0.0,64.0
4543,37.0,120,90,2.0,64.0
4544,49.0,72,90,2.0,64.0
4545,37.0,120,90,2.0,64.0
4546,49.0,120,90,2.0,64.0
4547,72.0,48,300,0.0,64.0
4548,66.0,0,300,0.0,64.0
4549,75.0,0,300,0.0,64.0
4550,39.0,120,90,2.0,64.0
4551,51.0,72,90,2.0,64.0
4552,39.0,120,90,2.0,64.0
4553,51.0,120,90,2.0,64.0
4554,41.0,120,90,2.0,64.0
4555,73.0,0,300,0.0,64.0
4556,68.0,0,300,0.0,64.0
4557,65.0,48,300,0.0,64.0
4558,53.0,72,90,2.0,64.0
4559,41.0,120,90,2.0,64.0
4560,53.0,120,90,2.0,64.0
4561,42.0,120,90,2.0,64.0
4562,61.0,0,300,0.0,64.0
4563,70.0,0,300,0.0,64.0
4564,66.0,48,300,0.0,64.0
4565,54.0,72,90,2.0,64.0
4566,42.0,120,90,2.0,64.0
4567,54.0,120,90,2.0,64.0
4568,44.0,120,90,2.0,64.0
4569,65.0,96,480,1.0,64.0
4570,61.0,0,480,1.0,64.0
4571,68.0,96,960,0.0,64.0
4572,56.0,120,90,2.0,64.0
4573,44.0,120,90,2.0,64.0
4574,56.0,24,90,2.0,64.0
4575,63.0,0,480,1.0,64.0
4576,60.0,0,480,1.0,64.0
4577,44.0,120,90,2.0,64.0
4578,56.0,120,90,2.0,64.0
4579,44.0,120,90,2.0,64.0
4580,56.0,24,90,2.0,64.0
4581,44.0,120,90,2.0,64.0
4582,62.0,48,300,0.0,64.0
4583,70.0,0,300,0.0,64.0
4584,65.0,0,300,0.0,64.0
4585,56.0,72,90,2.0,64.0
4586,44.0,120,90,2.0,64.0
4587,56.0,120,90,2.0,64.0
4588,38.0,120,90,2.0,64.0
4589,82.0,0,300,0.0,64.0
4590,70.0,0,300,0.0,64.0
4591,77.0,48,300,0.0,64.0
4592,50.0,72,90,2.0,64.0
4593,38.0,120,90,2.0,64.0
4594,50.0,120,90,2.0,64.0
4595,75.0,0,300,0.0,64.0
4596,70.0,0,300,0.0,64.0
4597,39.0,120,90,2.0,64.0
4598,78.0,48,300,0.0,64.0
4599,51.0,72,90,2.0,64.0
4600,39.0,120,90,2.0,64.0
4601,51.0,120,90,2.0,64.0
4602,74.0,0,300,0.0,64.0
4603,77.0,48,300,0.0,64.0
4604,68.0,0,300,0.0,64.0
4605,41.0,120,90,2.0,64.0
4606,53.0,72,90,2.0,64.0
4607,41.0,120,90,2.0,64.0
4608,53.0,120,90,2.0,64.0
4609,75.0,0,300,0.0,64.0
4610,70.0,48,300,0.0,64.0
4611,66.0,0,300,0.0,64.0
4612,42.0,120,90,2.0,64.0
4613,54.0,72,90,2.0,64.0
4614,42.0,120,90,2.0,64.0
4615,54.0,120,90,2.0,64.0
4616,44.0,120,90,2.0,64.0
4617,71.0,0,300,0.0,64.0
4618,68.0,48,300,0.0,64.0
4619,63.0,0,300,0.0,64.0
4620,56.0,72,90,2.0,64.0
4621,44.0,120,90,2.0,64.0
4622,56.0,120,90,2.0,64.0
4623,70.0,0,960,0.0,64.0
4624,63.0,96,480,1.0,64.0
4625,66.0,0,480,1.0,64.0
4626,46.0,120,90,2.0,64.0
4627,58.0,120,90,2.0,64.0
4628,46.0,120,90,2.0,64.0
4629,58.0,24,90,2.0,64.0
4630,62.0,0,480,1.0,64.0
4631,65.0,96,480,1.0,64.0
4632,46.0,120,90,2.0,64.0
4633,58.0,120,90,2.0,64.0
4634,46.0,120,90,2.0,64.0
4635,58.0,24,90,2.0,64.0
4636,64.0,0,300,0.0,64.0
4637,46.0,120,90,2.0,64.0
4638,67.0,48,300,0.0,64.0
4639,72.0,0,300,0.0,64.0
4640,58.0,72,90,2.0,64.0
4641,46.0,120,90,2.0,64.0
4642,58.0,120,90,2.0,64.0
4643,84.0,0,300,0.0,64.0
4644,40.0,120,90,2.0,64.0
4645,79.0,0,300,0.0,64.0
4646,72.0,48,300,0.0,64.0
4647,52.0,72,90,2.0,64.0
4648,40.0,120,90,2.0,64.0
4649,52.0,120,90,2.0,64.0
4650,80.0,0,300,0.0,64.0
4651,77.0,0,300,0.0,64.0
4652,41.0,120,90,2.0,64.0
4653,72.0,48,300,0.0,64.0
4654,53.0,72,90,2.0,64.0
4655,41.0,120,90,2.0,64.0
4656,53.0,120,90,2.0,64.0
4657,76.0,0,300,0.0,64.0
4658,79.0,48,300,0.0,64.0
4659,70.0,0,300,0.0,64.0
4660,43.0,120,90,2.0,64.0
4661,55.0,72,90,2.0,64.0
4662,43.0,120,90,2.0,64.0
4663,55.0,120,90,2.0,64.0
4664,72.0,0,300,0.0,64.0
4665,77.0,48,300,0.0,64.0
4666,68.0,0,300,0.0,64.0
4667,44.0,120,90,2.0,64.0
4668,56.0,72,90,2.0,64.0
4669,44.0,120,90,2.0,64.0
4670,56.0,120,90,2.0,64.0
4671,73.0,48,300,0.0,64.0
4672,65.0,0,300,0.0,64.0
4673,46.0,120,90,2.0,64.0
4674,58.0,72,90,2.0,64.0
4675,46.0,120,90,2.0,64.0
4676,58.0,120,90,2.0,64.0
4677,48.0,120,90,2.0,64.0
4678,72.0,0,300,0.0,64.0
4679,65.0,48,300,0.0,64.0
4680,60.0,72,90,2.0,64.0
4681,48.0,120,90,2.0,64.0
4682,60.0,120,90,2.0,64.0
4683,49.0,120,90,2.0,64.0
4684,65.0,48,300,0.0,64.0
4685,71.0,0,300,0.0,64.0
4686,61.0,72,90,2.0,64.0
4687,49.0,120,90,2.0,64.0
4688,61.0,168,90,2.0,64.0
4689,64.0,0,150,0.0,64.0
4690,60.0,0,150,2.0,64.0
4691,72.0,336,150,0.0,64.0
4692,48.0,0,150,2.0,64.0
4693,59.0,240,240,1.0,64.0
4694,60.0,240,240,1.0,64.0
4695,59.0,240,240,1.0,64.0
4696,60.0,240,240,1.0,64.0
4697,59.0,240,240,1.0,64.0
4698,60.0,240,240,1.0,64.0
4699,59.0,384,240,1.0,64.0
4700,60.0,96,780,1.0,64.0
4701,48.0,48,150,2.0,64.0
4702,65.0,192,180,1.0,64.0
4703,68.0,0,180,1.0,64.0
4704,65.0,96,180,1.0,64.0
4705,68.0,0,180,1.0,64.0
4706,53.0,48,150,2.0,64.0
4707,55.0,48,150,2.0,64.0
4708,65.0,0,180,1.0,64.0
4709,68.0,192,180,1.0,64.0
4710,56.0,288,150,2.0,64.0
4711,60.0,144,780,1.0,64.0
4712,72.0,0,180,0.0,64.0
4713,65.0,240,180,1.0,64.0
4714,68.0,0,180,1.0,64.0
4715,68.0,0,180,1.0,64.0
4716,77.0,0,180,0.0,64.0
4717,65.0,96,180,1.0,64.0
4718,79.0,108,180,0.0,64.0
4719,65.0,0,180,1.0,64.0
4720,68.0,0,180,1.0,64.0
4721,60.0,144,780,1.0,64.0
4722,72.0,372,60,0.0,64.0
4723,80.0,48,660,0.0,64.0
4724,68.0,240,180,1.0,64.0
4725,65.0,0,180,1.0,64.0
4726,68.0,48,180,1.0,64.0
4727,65.0,0,180,1.0,64.0
4728,77.0,60,240,0.0,64.0
4729,65.0,48,180,1.0,64.0
4730,68.0,0,180,1.0,64.0
4731,72.0,372,60,0.0,64.0
4732,60.0,144,780,1.0,64.0
4733,80.0,48,660,0.0,64.0
4734,65.0,240,180,1.0,64.0
4735,68.0,0,180,1.0,64.0
4736,65.0,48,180,1.0,64.0
4737,68.0,0,180,1.0,64.0
4738,77.0,192,240,0.0,64.0
4739,65.0,0,180,1.0,64.0
4740,68.0,48,180,1.0,64.0
4741,60.0,96,780,1.0,64.0
4742,76.0,192,180,0.0,64.0
4743,67.0,192,180,1.0,64.0
4744,48.0,48,150,2.0,64.0
4745,70.0,0,180,1.0,64.0
4746,55.0,48,150,2.0,64.0
4747,70.0,96,180,1.0,64.0
4748,67.0,0,180,1.0,64.0
4749,70.0,0,180,1.0,64.0
4750,67.0,192,180,1.0,64.0
4751,56.0,48,150,2.0,64.0
4752,60.0,144,780,1.0,64.0
4753,58.0,288,150,2.0,64.0
4754,72.0,240,180,0.0,64.0
4755,70.0,0,180,1.0,64.0
4756,67.0,0,180,1.0,64.0
4757,67.0,0,180,1.0,64.0
4758,70.0,96,180,1.0,64.0
4759,82.0,0,180,0.0,64.0
4760,80.0,0,180,0.0,64.0
4761,67.0,108,180,1.0,64.0
4762,70.0,0,180,1.0,64.0
4763,60.0,144,780,1.0,64.0
4764,82.0,180,60,0.0,64.0
4765,80.0,192,180,0.0,64.0
4766,70.0,108,180,1.0,64.0
4767,67.0,0,180,1.0,64.0
4768,79.0,0,180,0.0,64.0
4769,67.0,0,180,1.0,64.0
4770,70.0,48,180,1.0,64.0
4771,80.0,132,60,0.0,64.0
4772,79.0,48,180,0.0,64.0
4773,77.0,0,180,0.0,64.0
4774,70.0,0,180,1.0,64.0
4775,67.0,108,180,1.0,64.0
4776,79.0,180,60,0.0,64.0
4777,60.0,96,780,1.0,64.0
4778,77.0,144,180,0.0,64.0
4779,76.0,48,150,0.0,64.0
4780,70.0,192,180,1.0,64.0
4781,67.0,0,180,1.0,64.0
4782,70.0,96,180,1.0,64.0
4783,74.0,48,150,0.0,64.0
4784,67.0,0,180,1.0,64.0
4785,70.0,0,180,1.0,64.0
4786,76.0,48,150,0.0,64.0
4787,67.0,192,180,1.0,64.0
4788,77.0,240,150,0.0,64.0
4789,60.0,96,780,1.0,64.0
4790,48.0,48,150,2.0,64.0
4791,65.0,0,180,1.0,64.0
4792,68.0,192,180,1.0,64.0
4793,53.0,48,150,2.0,64.0
4794,68.0,96,180,1.0,64.0
4795,65.0,0,180,1.0,64.0
4796,68.0,0,180,1.0,64.0
4797,55.0,48,150,2.0,64.0
4798,65.0,192,180,1.0,64.0
4799,56.0,240,150,2.0,64.0
4800,60.0,96,780,1.0,64.0
4801,65.0,0,180,1.0,64.0
4802,68.0,192,180,1.0,64.0
4803,72.0,48,150,0.0,64.0
4804,77.0,48,150,0.0,64.0
4805,68.0,0,180,1.0,64.0
4806,65.0,96,180,1.0,64.0
4807,65.0,0,180,1.0,64.0
4808,68.0,108,180,1.0,64.0
4809,80.0,48,150,0.0,64.0
4810,72.0,372,60,0.0,64.0
4811,56.0,144,780,1.0,64.0
4812,84.0,48,660,0.0,64.0
4813,65.0,0,180,1.0,64.0
4814,60.0,240,180,1.0,64.0
4815,65.0,48,180,1.0,64.0
4816,60.0,0,180,1.0,64.0
4817,77.0,60,240,0.0,64.0
4818,65.0,48,180,1.0,64.0
4819,60.0,0,180,1.0,64.0
4820,56.0,144,780,1.0,64.0
4821,77.0,372,60,0.0,64.0
4822,89.0,48,660,0.0,64.0
4823,60.0,240,180,1.0,64.0
4824,65.0,0,180,1.0,64.0
4825,65.0,48,180,1.0,64.0
4826,60.0,0,180,1.0,64.0
4827,84.0,192,240,0.0,64.0
4828,65.0,48,180,1.0,64.0
4829,60.0,0,180,1.0,64.0
4830,83.0,192,180,0.0,64.0
4831,55.0,96,780,1.0,64.0
4832,62.0,0,180,1.0,64.0
4833,65.0,192,180,1.0,64.0
4834,43.0,48,150,2.0,64.0
4835,65.0,96,180,1.0,64.0
4836,62.0,0,180,1.0,64.0
4837,50.0,48,150,2.0,64.0
4838,51.0,48,150,2.0,64.0
4839,65.0,0,180,1.0,64.0
4840,62.0,192,180,1.0,64.0
4841,53.0,240,150,2.0,64.0
4842,55.0,96,780,1.0,64.0
4843,67.0,48,150,0.0,64.0
4844,62.0,0,180,1.0,64.0
4845,65.0,192,180,1.0,64.0
4846,77.0,48,150,0.0,64.0
4847,62.0,0,180,1.0,64.0
4848,65.0,96,180,1.0,64.0
4849,75.0,48,150,0.0,64.0
4850,65.0,0,180,1.0,64.0
4851,62.0,108,180,1.0,64.0
4852,55.0,144,780,1.0,64.0
4853,77.0,180,60,0.0,64.0
4854,75.0,192,180,0.0,64.0
4855,65.0,0,180,1.0,64.0
4856,62.0,0,180,1.0,64.0
4857,74.0,108,180,0.0,64.0
4858,62.0,0,180,1.0,64.0
4859,65.0,48,180,1.0,64.0
4860,75.0,132,60,0.0,64.0
4861,74.0,48,180,0.0,64.0
4862,62.0,0,180,1.0,64.0
4863,72.0,0,180,0.0,64.0
4864,65.0,108,180,1.0,64.0
4865,55.0,96,780,1.0,64.0
4866,74.0,180,60,0.0,64.0
4867,72.0,144,180,0.0,64.0
4868,62.0,192,180,1.0,64.0
4869,71.0,48,150,0.0,64.0
4870,65.0,0,180,1.0,64.0
4871,69.0,48,150,0.0,64.0
4872,62.0,96,180,1.0,64.0
4873,65.0,0,180,1.0,64.0
4874,62.0,192,180,1.0,64.0
4875,65.0,0,180,1.0,64.0
4876,71.0,48,150,0.0,64.0
4877,55.0,96,780,1.0,64.0
4878,72.0,240,150,0.0,64.0
4879,60.0,0,180,1.0,64.0
4880,63.0,192,180,1.0,64.0
4881,43.0,48,150,2.0,64.0
4882,63.0,0,180,1.0,64.0
4883,48.0,48,150,2.0,64.0
4884,60.0,96,180,1.0,64.0
4885,50.0,48,150,2.0,64.0
4886,63.0,0,180,1.0,64.0
4887,60.0,192,180,1.0,64.0
4888,55.0,96,780,1.0,64.0
4889,51.0,240,150,2.0,64.0
4890,60.0,192,180,1.0,64.0
4891,63.0,0,180,1.0,64.0
4892,79.0,48,150,0.0,64.0
4893,63.0,96,180,1.0,64.0
4894,60.0,0,180,1.0,64.0
4895,84.0,48,150,0.0,64.0
4896,63.0,0,180,1.0,64.0
4897,86.0,48,150,0.0,64.0
4898,60.0,108,180,1.0,64.0
4899,79.0,372,60,0.0,64.0
4900,55.0,144,780,1.0,64.0
4901,87.0,48,660,0.0,64.0
4902,63.0,240,180,1.0,64.0
4903,60.0,0,180,1.0,64.0
4904,63.0,48,180,1.0,64.0
4905,60.0,0,180,1.0,64.0
4906,84.0,60,240,0.0,64.0
4907,60.0,48,180,1.0,64.0
4908,63.0,0,180,1.0,64.0
4909,79.0,372,60,0.0,64.0
4910,55.0,144,780,1.0,64.0
4911,87.0,48,660,0.0,64.0
4912,60.0,240,180,1.0,64.0
4913,63.0,0,180,1.0,64.0
4914,60.0,48,180,1.0,64.0
4915,63.0,0,180,1.0,64.0
4916,60.0,0,180,1.0,64.0
4917,63.0,48,180,1.0,64.0
4918,84.0,144,240,0.0,64.0
4919,83.0,240,150,0.0,64.0
4920,55.0,96,780,1.0,64.0
4921,43.0,48,150,2.0,64.0
4922,62.0,192,180,1.0,64.0
4923,65.0,0,180,1.0,64.0
4924,65.0,96,180,1.0,64.0
4925,62.0,0,180,1.0,64.0
4926,50.0,48,150,2.0,64.0
4927,62.0,0,180,1.0,64.0
4928,51.0,48,150,2.0,64.0
4929,65.0,192,180,1.0,64.0
4930,55.0,144,780,1.0,64.0
4931,53.0,288,150,2.0,64.0
4932,62.0,48,180,1.0,64.0
4933,65.0,0,180,1.0,64.0
4934,79.0,192,240,0.0,64.0
4935,65.0,0,180,1.0,64.0
4936,89.0,48,240,0.0,64.0
4937,62.0,48,180,1.0,64.0
4938,62.0,0,180,1.0,64.0
4939,87.0,60,240,0.0,64.0
4940,65.0,48,180,1.0,64.0
4941,55.0,144,780,1.0,64.0
4942,89.0,180,60,0.0,64.0
4943,87.0,192,180,0.0,64.0
4944,62.0,0,180,1.0,64.0
4945,65.0,108,180,1.0,64.0
4946,86.0,0,180,0.0,64.0
4947,87.0,132,60,0.0,64.0
4948,62.0,48,180,1.0,64.0
4949,65.0,0,180,1.0,64.0
4950,86.0,48,180,0.0,64.0
4951,65.0,0,180,1.0,64.0
4952,84.0,0,180,0.0,64.0
4953,62.0,108,180,1.0,64.0
4954,86.0,180,60,0.0,64.0
4955,55.0,144,780,1.0,64.0
4956,84.0,192,180,0.0,64.0
4957,83.0,0,180,0.0,64.0
4958,62.0,240,180,1.0,64.0
4959,65.0,0,180,1.0,64.0
4960,62.0,0,180,1.0,64.0
4961,65.0,48,180,1.0,64.0
4962,81.0,48,240,0.0,64.0
4963,62.0,48,180,1.0,64.0
4964,65.0,0,180,1.0,64.0
4965,83.0,60,240,0.0,64.0
4966,87.0,180,60,0.0,64.0
4967,60.0,144,780,1.0,64.0
4968,86.0,192,180,0.0,64.0
4969,84.0,0,180,0.0,64.0
4970,63.0,0,180,1.0,64.0
4971,67.0,108,180,1.0,64.0
4972,86.0,132,60,0.0,64.0
4973,67.0,48,180,1.0,64.0
4974,63.0,0,180,1.0,64.0
4975,84.0,48,180,0.0,64.0
4976,82.0,0,180,0.0,64.0
4977,63.0,0,180,1.0,64.0
4978,67.0,108,180,1.0,64.0
4979,84.0,180,60,0.0,64.0
4980,53.0,144,780,1.0,64.0
4981,82.0,192,180,0.0,64.0
4982,81.0,240,180,0.0,64.0
4983,65.0,0,180,1.0,64.0
4984,63.0,0,180,1.0,64.0
4985,65.0,48,180,1.0,64.0
4986,63.0,0,180,1.0,64.0
4987,79.0,48,240,0.0,64.0
4988,63.0,48,180,1.0,64.0
4989,65.0,0,180,1.0,64.0
4990,81.0,60,240,0.0,64.0
4991,58.0,144,780,1.0,64.0
4992,85.0,180,60,0.0,64.0
4993,84.0,192,180,0.0,64.0
4994,61.0,0,180,1.0,64.0
4995,82.0,108,180,0.0,64.0
4996,65.0,0,180,1.0,64.0
4997,84.0,132,60,0.0,64.0
4998,65.0,48,180,1.0,64.0
4999,61.0,0,180,1.0,64.0
5000,82.0,48,180,0.0,64.0
5001,65.0,108,180,1.0,64.0
5002,61.0,0,180,1.0,64.0
5003,80.0,0,180,0.0,64.0
5004,51.0,144,780,1.0,64.0
5005,82.0,180,60,0.0,64.0
5006,80.0,192,180,0.0,64.0
5007,79.0,240,180,0.0,64.0
5008,63.0,0,180,1.0,64.0
5009,61.0,0,180,1.0,64.0
5010,61.0,0,180,1.0,64.0
5011,63.0,48,180,1.0,64.0
5012,77.0,48,240,0.0,64.0
5013,79.0,60,240,0.0,64.0
5014,61.0,48,180,1.0,64.0
5015,63.0,0,180,1.0,64.0
5016,84.0,180,60,0.0,64.0
5017,56.0,144,780,1.0,64.0
5018,82.0,192,180,0.0,64.0
5019,63.0,108,180,1.0,64.0
5020,60.0,0,180,1.0,64.0
5021,80.0,0,180,0.0,64.0
5022,82.0,132,60,0.0,64.0
5023,60.0,48,180,1.0,64.0
5024,63.0,0,180,1.0,64.0
5025,80.0,48,180,0.0,64.0
5026,60.0,108,180,1.0,64.0
5027,63.0,0,180,1.0,64.0
5028,79.0,0,180,0.0,64.0
5029,80.0,180,60,0.0,64.0
5030,56.0,96,780,1.0,64.0
5031,79.0,144,180,0.0,64.0
5032,60.0,192,180,1.0,64.0
5033,63.0,0,180,1.0,64.0
5034,78.0,48,150,0.0,64.0
5035,60.0,96,180,1.0,64.0
5036,63.0,0,180,1.0,64.0
5037,78.0,48,150,0.0,64.0
5038,78.0,48,150,0.0,64.0
5039,63.0,108,180,1.0,64.0
5040,60.0,0,180,1.0,64.0
5041,82.0,180,60,0.0,64.0
5042,55.0,96,780,1.0,64.0
5043,80.0,144,180,0.0,64.0
5044,60.0,192,180,1.0,64.0
5045,79.0,48,150,0.0,64.0
5046,63.0,0,180,1.0,64.0
5047,60.0,0,180,1.0,64.0
5048,63.0,96,180,1.0,64.0
5049,79.0,48,150,0.0,64.0
5050,79.0,48,150,0.0,64.0
5051,60.0,0,180,1.0,64.0
5052,63.0,108,180,1.0,64.0
5053,82.0,180,60,0.0,64.0
5054,55.0,96,780,1.0,64.0
5055,80.0,144,180,0.0,64.0
5056,62.0,192,180,1.0,64.0
5057,59.0,0,180,1.0,64.0
5058,79.0,48,150,0.0,64.0
5059,62.0,96,180,1.0,64.0
5060,79.0,48,150,0.0,64.0
5061,59.0,0,180,1.0,64.0
5062,79.0,48,150,0.0,64.0
5063,59.0,288,180,1.0,64.0
5064,62.0,0,180,1.0,64.0
5065,48.0,96,1350,2.0,64.0
5066,60.0,120,120,1.0,64.0
5067,55.0,0,120,1.0,64.0
5068,51.0,120,120,1.0,64.0
5069,63.0,0,120,1.0,64.0
5070,60.0,0,120,1.0,64.0
5071,55.0,120,120,1.0,64.0
5072,51.0,120,120,1.0,64.0
5073,72.0,0,870,0.0,64.0
5074,60.0,120,120,1.0,64.0
5075,55.0,0,120,1.0,64.0
5076,51.0,120,120,1.0,64.0
5077,63.0,0,120,1.0,64.0
5078,55.0,120,120,1.0,64.0
5079,60.0,0,120,1.0,64.0
5080,63.0,120,120,1.0,64.0
5081,51.0,0,120,1.0,64.0
5082,60.0,120,120,1.0,64.0
5083,55.0,0,120,1.0,64.0
5084,63.0,0,120,1.0,64.0
5085,51.0,24,120,1.0,64.0
5086,60.0,0,120,1.0,64.0
5087,55.0,240,120,1.0,64.0
5088,72.0,96,390,0.0,64.0
5089,48.0,0,390,2.0,64.0
5090,60.0,0,120,1.0,64.0
5091,55.0,120,120,1.0,64.0
5092,63.0,24,120,1.0,64.0
5093,51.0,0,120,1.0,64.0
5094,55.0,240,120,1.0,64.0
5095,60.0,0,120,1.0,64.0
5096,46.0,96,1350,2.0,64.0
5097,61.0,120,120,1.0,64.0
5098,55.0,0,120,1.0,64.0
5099,64.0,0,120,1.0,64.0
5100,52.0,120,120,1.0,64.0
5101,61.0,120,120,1.0,64.0
5102,55.0,0,120,1.0,64.0
5103,52.0,120,120,1.0,64.0
5104,73.0,0,870,0.0,64.0
5105,61.0,120,120,1.0,64.0
5106,55.0,0,120,1.0,64.0
5107,64.0,0,120,1.0,64.0
5108,52.0,120,120,1.0,64.0
5109,61.0,120,120,1.0,64.0
5110,55.0,0,120,1.0,64.0
5111,64.0,120,120,1.0,64.0
5112,52.0,0,120,1.0,64.0
5113,55.0,0,120,1.0,64.0
5114,61.0,120,120,1.0,64.0
5115,64.0,24,120,1.0,64.0
5116,52.0,0,120,1.0,64.0
5117,61.0,240,120,1.0,64.0
5118,55.0,0,120,1.0,64.0
5119,46.0,96,390,2.0,64.0
5120,73.0,0,390,0.0,64.0
5121,61.0,120,120,1.0,64.0
5122,55.0,0,120,1.0,64.0
5123,52.0,24,120,1.0,64.0
5124,64.0,0,120,1.0,64.0
5125,61.0,72,120,1.0,64.0
5126,55.0,0,120,1.0,64.0
5127,44.0,144,60,2.0,64.0
5128,72.0,0,60,0.0,64.0
5129,56.0,120,90,2.0,64.0
5130,60.0,0,90,0.0,64.0
5131,65.0,0,90,0.0,64.0
5132,48.0,120,90,2.0,64.0
5133,60.0,96,90,0.0,64.0
5134,56.0,0,90,2.0,64.0
5135,76.0,0,60,0.0,64.0
5136,46.0,144,60,2.0,64.0
5137,58.0,0,90,2.0,64.0
5138,64.0,120,90,0.0,64.0
5139,72.0,0,90,0.0,64.0
5140,48.0,120,90,2.0,64.0
5141,64.0,96,90,0.0,64.0
5142,58.0,0,90,2.0,64.0
5143,77.0,0,60,0.0,64.0
5144,44.0,144,60,2.0,64.0
5145,65.0,0,90,0.0,64.0
5146,56.0,120,90,2.0,64.0
5147,48.0,0,90,2.0,64.0
5148,72.0,120,90,0.0,64.0
5149,56.0,96,90,2.0,64.0
5150,65.0,0,90,0.0,64.0
5151,79.0,144,60,0.0,64.0
5152,43.0,0,60,2.0,64.0
5153,67.0,120,90,0.0,64.0
5154,55.0,0,90,2.0,64.0
5155,48.0,0,90,2.0,64.0
5156,72.0,120,90,0.0,64.0
5157,55.0,96,90,2.0,64.0
5158,67.0,0,90,0.0,64.0
5159,41.0,0,60,2.0,64.0
5160,80.0,144,60,0.0,64.0
5161,53.0,120,90,2.0,64.0
5162,68.0,0,90,0.0,64.0
5163,48.0,0,90,2.0,64.0
5164,72.0,120,90,0.0,64.0
5165,53.0,96,90,2.0,64.0
5166,68.0,0,90,0.0,64.0
5167,39.0,144,60,2.0,64.0
5168,81.0,0,60,0.0,64.0
5169,51.0,0,90,2.0,64.0
5170,69.0,120,90,0.0,64.0
5171,72.0,120,90,0.0,64.0
5172,48.0,0,90,2.0,64.0
5173,69.0,0,90,0.0,64.0
5174,51.0,96,90,2.0,64.0
5175,38.0,0,60,2.0,64.0
5176,83.0,144,60,0.0,64.0
5177,71.0,120,90,0.0,64.0
5178,50.0,0,90,2.0,64.0
5179,43.0,0,90,2.0,64.0
5180,77.0,120,90,0.0,64.0
5181,50.0,0,90,2.0,64.0
5182,71.0,96,90,0.0,64.0
5183,36.0,0,60,2.0,64.0
5184,84.0,144,60,0.0,64.0
5185,48.0,0,90,2.0,64.0
5186,72.0,120,90,0.0,64.0
5187,43.0,120,90,2.0,64.0
5188,77.0,0,90,0.0,64.0
5189,72.0,0,90,0.0,64.0
5190,48.0,96,90,2.0,64.0
5191,86.0,144,60,0.0,64.0
5192,35.0,0,60,2.0,64.0
5193,47.0,0,90,2.0,64.0
5194,74.0,120,90,0.0,64.0
5195,77.0,0,90,0.0,64.0
5196,43.0,120,90,2.0,64.0
5197,74.0,96,90,0.0,64.0
5198,47.0,0,90,2.0,64.0
5199,34.0,0,60,2.0,64.0
5200,88.0,144,60,0.0,64.0
5201,76.0,0,90,0.0,64.0
5202,46.0,120,90,2.0,64.0
5203,79.0,120,90,0.0,64.0
5204,36.0,0,90,2.0,64.0
5205,46.0,96,90,2.0,64.0
5206,76.0,0,90,0.0,64.0
5207,32.0,0,60,2.0,64.0
5208,89.0,144,60,0.0,64.0
5209,77.0,0,90,0.0,64.0
5210,44.0,120,90,2.0,64.0
5211,36.0,0,90,2.0,64.0
5212,80.0,120,90,0.0,64.0
5213,44.0,0,90,2.0,64.0
5214,77.0,96,90,0.0,64.0
5215,29.0,0,60,2.0,64.0
5216,86.0,144,60,0.0,64.0
5217,41.0,120,90,2.0,64.0
5218,77.0,0,90,0.0,64.0
5219,36.0,120,90,2.0,64.0
5220,80.0,0,90,0.0,64.0
5221,77.0,0,90,0.0,64.0
5222,41.0,216,90,2.0,64.0
5223,31.0,24,180,2.0,64.0
5224,43.0,0,180,2.0,64.0
5225,75.0,120,90,0.0,64.0
5226,79.0,120,90,0.0,64.0
5227,75.0,96,90,0.0,64.0
5228,84.0,144,60,0.0,64.0
5229,75.0,120,90,0.0,64.0
5230,79.0,120,90,0.0,64.0
5231,75.0,216,90,0.0,64.0
5232,43.0,24,180,2.0,64.0
5233,55.0,0,180,2.0,64.0
5234,74.0,120,90,0.0,64.0
5235,77.0,120,90,0.0,64.0
5236,74.0,96,90,0.0,64.0
5237,83.0,144,60,0.0,64.0
5238,74.0,120,90,0.0,64.0
5239,77.0,120,90,0.0,64.0
5240,74.0,264,90,0.0,64.0
5241,48.0,0,1350,2.0,64.0
5242,60.0,0,120,1.0,64.0
5243,55.0,120,120,1.0,64.0
5244,51.0,120,120,1.0,64.0
5245,63.0,0,120,1.0,64.0
5246,55.0,0,120,1.0,64.0
5247,60.0,120,120,1.0,64.0
5248,51.0,120,120,1.0,64.0
5249,72.0,96,870,0.0,64.0
5250,55.0,120,120,1.0,64.0
5251,60.0,0,120,1.0,64.0
5252,51.0,120,120,1.0,64.0
5253,63.0,0,120,1.0,64.0
5254,55.0,0,120,1.0,64.0
5255,60.0,120,120,1.0,64.0
5256,51.0,0,120,1.0,64.0
5257,63.0,120,120,1.0,64.0
5258,55.0,120,120,1.0,64.0
5259,60.0,0,120,1.0,64.0
5260,51.0,24,120,1.0,64.0
5261,63.0,0,120,1.0,64.0
5262,60.0,240,120,1.0,64.0
5263,55.0,0,120,1.0,64.0
5264,48.0,96,390,2.0,64.0
5265,72.0,0,390,0.0,64.0
5266,55.0,0,120,1.0,64.0
5267,60.0,120,120,1.0,64.0
5268,63.0,0,120,1.0,64.0
5269,51.0,24,120,1.0,64.0
5270,55.0,0,120,1.0,64.0
5271,60.0,240,120,1.0,64.0
5272,46.0,0,1350,2.0,64.0
5273,61.0,0,120,1.0,64.0
5274,55.0,120,120,1.0,64.0
5275,52.0,0,120,1.0,64.0
5276,64.0,120,120,1.0,64.0
5277,55.0,120,120,1.0,64.0
5278,61.0,0,120,1.0,64.0
5279,52.0,120,120,1.0,64.0
5280,73.0,96,870,0.0,64.0
5281,55.0,0,120,1.0,64.0
5282,61.0,120,120,1.0,64.0
5283,64.0,120,120,1.0,64.0
5284,52.0,0,120,1.0,64.0
5285,61.0,120,120,1.0,64.0
5286,55.0,0,120,1.0,64.0
5287,64.0,0,120,1.0,64.0
5288,52.0,120,120,1.0,64.0
5289,61.0,0,120,1.0,64.0
5290,55.0,120,120,1.0,64.0
5291,64.0,24,120,1.0,64.0
5292,52.0,0,120,1.0,64.0
5293,61.0,240,120,1.0,64.0
5294,55.0,0,120,1.0,64.0
5295,46.0,0,390,2.0,64.0
5296,73.0,96,390,0.0,64.0
5297,55.0,0,120,1.0,64.0
5298,61.0,120,120,1.0,64.0
5299,52.0,24,120,1.0,64.0
5300,64.0,0,120,1.0,64.0
5301,61.0,0,120,1.0,64.0
5302,55.0,72,120,1.0,64.0
5303,44.0,144,60,2.0,64.0
5304,72.0,0,60,0.0,64.0
5305,60.0,0,90,0.0,64.0
5306,56.0,120,90,2.0,64.0
5307,65.0,120,90,0.0,64.0
5308,48.0,0,90,2.0,64.0
5309,60.0,0,90,0.0,64.0
5310,56.0,96,90,2.0,64.0
5311,46.0,144,60,2.0,64.0
5312,76.0,0,60,0.0,64.0
5313,58.0,120,90,2.0,64.0
5314,64.0,0,90,0.0,64.0
5315,48.0,0,90,2.0,64.0
5316,72.0,120,90,0.0,64.0
5317,58.0,0,90,2.0,64.0
5318,64.0,96,90,0.0,64.0
5319,44.0,144,60,2.0,64.0
5320,77.0,0,60,0.0,64.0
5321,65.0,120,90,0.0,64.0
5322,56.0,0,90,2.0,64.0
5323,72.0,0,90,0.0,64.0
5324,48.0,120,90,2.0,64.0
5325,56.0,0,90,2.0,64.0
5326,65.0,96,90,0.0,64.0
5327,79.0,144,60,0.0,64.0
5328,43.0,0,60,2.0,64.0
5329,55.0,0,90,2.0,64.0
5330,67.0,120,90,0.0,64.0
5331,48.0,0,90,2.0,64.0
5332,72.0,120,90,0.0,64.0
5333,67.0,0,90,0.0,64.0
5334,55.0,96,90,2.0,64.0
5335,80.0,144,60,0.0,64.0
5336,41.0,0,60,2.0,64.0
5337,68.0,0,90,0.0,64.0
5338,53.0,120,90,2.0,64.0
5339,48.0,120,90,2.0,64.0
5340,72.0,0,90,0.0,64.0
5341,68.0,0,90,0.0,64.0
5342,53.0,96,90,2.0,64.0
5343,81.0,144,60,0.0,64.0
5344,39.0,0,60,2.0,64.0
5345,69.0,120,90,0.0,64.0
5346,51.0,0,90,2.0,64.0
5347,72.0,120,90,0.0,64.0
5348,48.0,0,90,2.0,64.0
5349,51.0,0,90,2.0,64.0
5350,69.0,96,90,0.0,64.0
5351,38.0,0,60,2.0,64.0
5352,83.0,144,60,0.0,64.0
5353,50.0,120,90,2.0,64.0
5354,71.0,0,90,0.0,64.0
5355,43.0,0,90,2.0,64.0
5356,77.0,120,90,0.0,64.0
5357,71.0,0,90,0.0,64.0
5358,50.0,96,90,2.0,64.0
5359,84.0,0,60,0.0,64.0
5360,36.0,144,60,2.0,64.0
5361,72.0,0,90,0.0,64.0
5362,48.0,120,90,2.0,64.0
5363,43.0,0,90,2.0,64.0
5364,77.0,120,90,0.0,64.0
5365,48.0,0,90,2.0,64.0
5366,72.0,96,90,0.0,64.0
5367,35.0,0,60,2.0,64.0
5368,86.0,144,60,0.0,64.0
5369,47.0,0,90,2.0,64.0
5370,74.0,120,90,0.0,64.0
5371,43.0,0,90,2.0,64.0
5372,77.0,120,90,0.0,64.0
5373,74.0,96,90,0.0,64.0
5374,47.0,0,90,2.0,64.0
5375,34.0,0,60,2.0,64.0
5376,88.0,144,60,0.0,64.0
5377,46.0,120,90,2.0,64.0
5378,76.0,0,90,0.0,64.0
5379,36.0,120,90,2.0,64.0
5380,79.0,0,90,0.0,64.0
5381,46.0,96,90,2.0,64.0
5382,76.0,0,90,0.0,64.0
5383,89.0,144,60,0.0,64.0
5384,32.0,0,60,2.0,64.0
5385,44.0,0,90,2.0,64.0
5386,77.0,120,90,0.0,64.0
5387,36.0,0,90,2.0,64.0
5388,80.0,120,90,0.0,64.0
5389,44.0,0,90,2.0,64.0
5390,77.0,96,90,0.0,64.0
5391,29.0,144,60,2.0,64.0
5392,86.0,0,60,0.0,64.0
5393,77.0,0,90,0.0,64.0
5394,41.0,120,90,2.0,64.0
5395,80.0,120,90,0.0,64.0
5396,36.0,0,90,2.0,64.0
5397,41.0,0,90,2.0,64.0
5398,77.0,216,90,0.0,64.0
5399,43.0,24,180,2.0,64.0
5400,31.0,0,180,2.0,64.0
5401,75.0,120,90,0.0,64.0
5402,79.0,120,90,0.0,64.0
5403,75.0,96,90,0.0,64.0
5404,84.0,144,60,0.0,64.0
5405,75.0,120,90,0.0,64.0
5406,79.0,120,90,0.0,64.0
5407,75.0,216,90,0.0,64.0
5408,55.0,0,180,2.0,64.0
5409,43.0,24,180,2.0,64.0
5410,74.0,120,90,0.0,64.0
5411,77.0,120,90,0.0,64.0
5412,74.0,96,90,0.0,64.0
5413,83.0,144,60,0.0,64.0
5414,74.0,120,90,0.0,64.0
5415,77.0,120,90,0.0,64.0
5416,74.0,168,90,0.0,64.0
5417,72.0,48,150,0.0,64.0
5418,48.0,240,180,2.0,64.0
5419,84.0,120,480,0.0,64.0
5420,60.0,240,180,1.0,64.0
5421,63.0,0,180,1.0,64.0
5422,63.0,48,180,1.0,64.0
5423,60.0,0,180,1.0,64.0
5424,83.0,72,120,0.0,64.0
5425,63.0,48,180,1.0,64.0
5426,60.0,0,180,1.0,64.0
5427,84.0,120,120,0.0,64.0
5428,86.0,120,120,0.0,64.0
5429,56.0,72,780,2.0,64.0
5430,84.0,120,120,0.0,64.0
5431,60.0,0,180,1.0,64.0
5432,82.0,72,120,0.0,64.0
5433,63.0,48,180,1.0,64.0
5434,80.0,120,120,0.0,64.0
5435,63.0,48,180,1.0,64.0
5436,60.0,0,180,1.0,64.0
5437,79.0,72,120,0.0,64.0
5438,80.0,48,120,0.0,64.0
5439,63.0,48,180,1.0,64.0
5440,82.0,72,120,0.0,64.0
5441,60.0,0,180,1.0,64.0
5442,80.0,120,120,0.0,64.0
5443,53.0,72,780,2.0,64.0
5444,79.0,120,120,0.0,64.0
5445,77.0,120,120,0.0,64.0
5446,62.0,48,180,1.0,64.0
5447,60.0,0,180,1.0,64.0
5448,75.0,72,120,0.0,64.0
5449,74.0,120,120,0.0,64.0
5450,62.0,0,180,1.0,64.0
5451,60.0,48,180,1.0,64.0
5452,73.0,72,120,0.0,64.0
5453,74.0,48,120,0.0,64.0
5454,75.0,72,120,0.0,64.0
5455,62.0,48,180,1.0,64.0
5456,60.0,0,180,1.0,64.0
5457,74.0,120,120,0.0,64.0
5458,55.0,72,780,2.0,64.0
5459,72.0,120,120,0.0,64.0
5460,71.0,120,120,0.0,64.0
5461,62.0,0,180,1.0,64.0
5462,68.0,72,120,0.0,64.0
5463,59.0,48,180,1.0,64.0
5464,67.0,120,120,0.0,64.0
5465,66.0,72,120,0.0,64.0
5466,62.0,0,180,1.0,64.0
5467,59.0,48,180,1.0,64.0
5468,67.0,48,120,0.0,64.0
5469,59.0,0,180,1.0,64.0
5470,62.0,48,180,1.0,64.0
5471,68.0,72,120,0.0,64.0
5472,65.0,144,120,0.0,64.0
5473,63.0,288,150,0.0,64.0
5474,48.0,72,780,2.0,64.0
5475,60.0,0,180,1.0,64.0
5476,72.0,48,480,0.0,64.0
5477,84.0,0,480,0.0,64.0
5478,51.0,240,180,1.0,64.0
5479,51.0,0,180,1.0,64.0
5480,60.0,48,180,1.0,64.0
5481,51.0,48,180,1.0,64.0
5482,60.0,0,180,1.0,64.0
5483,83.0,72,120,0.0,64.0
5484,84.0,120,120,0.0,64.0
5485,44.0,72,780,2.0,64.0
5486,86.0,120,120,0.0,64.0
5487,84.0,120,120,0.0,64.0
5488,82.0,72,120,0.0,64.0
5489,51.0,0,180,1.0,64.0
5490,56.0,48,180,1.0,64.0
5491,48.0,0,180,1.0,64.0
5492,80.0,120,120,0.0,64.0
5493,56.0,0,180,1.0,64.0
5494,51.0,0,180,1.0,64.0
5495,79.0,72,120,0.0,64.0
5496,48.0,48,180,1.0,64.0
5497,80.0,48,120,0.0,64.0
5498,82.0,72,120,0.0,64.0
5499,56.0,0,180,1.0,64.0
5500,48.0,0,180,1.0,64.0
5501,51.0,48,180,1.0,64.0
5502,80.0,120,120,0.0,64.0
5503,41.0,72,780,2.0,64.0
5504,79.0,120,120,0.0,64.0
5505,77.0,120,120,0.0,64.0
5506,75.0,72,120,0.0,64.0
5507,48.0,0,180,1.0,64.0
5508,53.0,0,180,1.0,64.0
5509,50.0,48,180,1.0,64.0
5510,74.0,120,120,0.0,64.0
5511,48.0,0,180,1.0,64.0
5512,53.0,48,180,1.0,64.0
5513,50.0,0,180,1.0,64.0
5514,73.0,72,120,0.0,64.0
5515,74.0,48,120,0.0,64.0
5516,48.0,48,180,1.0,64.0
5517,75.0,72,120,0.0,64.0
5518,53.0,0,180,1.0,64.0
5519,50.0,0,180,1.0,64.0
5520,74.0,120,120,0.0,64.0
5521,72.0,120,120,0.0,64.0
5522,43.0,72,780,2.0,64.0
5523,71.0,120,120,0.0,64.0
5524,68.0,72,120,0.0,64.0
5525,55.0,0,180,1.0,64.0
5526,47.0,0,180,1.0,64.0
5527,50.0,48,180,1.0,64.0
5528,67.0,120,120,0.0,64.0
5529,66.0,72,120,0.0,64.0
5530,55.0,48,180,1.0,64.0
5531,47.0,0,180,1.0,64.0
5532,50.0,0,180,1.0,64.0
5533,67.0,48,120,0.0,64.0
5534,47.0,48,180,1.0,64.0
5535,55.0,0,180,1.0,64.0
5536,50.0,0,180,1.0,64.0
5537,68.0,72,120,0.0,64.0
5538,67.0,96,120,0.0,64.0
5539,72.0,72,150,0.0,64.0
5540,36.0,48,90,2.0,64.0
5541,48.0,120,90,2.0,64.0
5542,36.0,120,90,2.0,64.0
5543,60.0,72,390,0.0,64.0
5544,48.0,120,90,2.0,64.0
5545,36.0,48,90,2.0,64.0
5546,48.0,120,90,2.0,64.0
5547,58.0,72,150,0.0,64.0
5548,64.0,0,150,0.0,64.0
5549,36.0,48,90,2.0,64.0
5550,48.0,120,90,2.0,64.0
5551,36.0,48,90,2.0,64.0
5552,56.0,0,150,0.0,64.0
5553,65.0,72,150,0.0,64.0
5554,48.0,120,90,2.0,64.0
5555,64.0,72,150,0.0,64.0
5556,67.0,0,150,0.0,64.0
5557,36.0,48,90,2.0,64.0
5558,48.0,120,90,2.0,64.0
5559,68.0,0,150,0.0,64.0
5560,65.0,72,150,0.0,64.0
5561,36.0,48,90,2.0,64.0
5562,48.0,120,90,2.0,64.0
5563,71.0,72,150,0.0,64.0
5564,36.0,48,90,2.0,64.0
5565,62.0,0,150,0.0,64.0
5566,48.0,120,90,2.0,64.0
5567,63.0,72,150,0.0,64.0
5568,36.0,48,90,2.0,64.0
5569,72.0,0,150,0.0,64.0
5570,48.0,120,90,2.0,64.0
5571,64.0,0,300,0.0,64.0
5572,36.0,120,90,2.0,64.0
5573,72.0,48,300,0.0,64.0
5574,48.0,72,90,2.0,64.0
5575,36.0,120,90,2.0,64.0
5576,48.0,120,90,2.0,64.0
5577,36.0,48,90,2.0,64.0
5578,76.0,0,150,0.0,64.0
5579,70.0,72,150,0.0,64.0
5580,48.0,120,90,2.0,64.0
5581,68.0,0,150,0.0,64.0
5582,36.0,48,90,2.0,64.0
5583,77.0,72,150,0.0,64.0
5584,48.0,120,90,2.0,64.0
5585,79.0,0,150,0.0,64.0
5586,76.0,72,150,0.0,64.0
5587,36.0,48,90,2.0,64.0
5588,48.0,120,90,2.0,64.0
5589,80.0,0,150,0.0,64.0
5590,77.0,72,150,0.0,64.0
5591,36.0,48,90,2.0,64.0
5592,48.0,120,90,2.0,64.0
5593,36.0,48,90,2.0,64.0
5594,74.0,72,150,0.0,64.0
5595,83.0,0,150,0.0,64.0
5596,48.0,120,90,2.0,64.0
5597,72.0,24,900,0.0,64.0
5598,84.0,0,900,0.0,64.0
5599,75.0,0,900,0.0,64.0
5600,36.0,120,90,2.0,64.0
5601,48.0,120,90,2.0,64.0
5602,36.0,120,90,2.0,64.0
5603,48.0,120,90,2.0,64.0
5604,36.0,120,90,2.0,64.0
5605,48.0,120,90,2.0,64.0
5606,36.0,96,90,2.0,64.0
5607,48.0,120,90,2.0,64.0
5608,60.0,0,900,0.0,64.0
5609,34.0,120,90,2.0,64.0
5610,63.0,0,900,0.0,64.0
5611,72.0,24,900,0.0,64.0
5612,46.0,120,90,2.0,64.0
5613,34.0,120,90,2.0,64.0
5614,46.0,120,90,2.0,64.0
5615,34.0,120,90,2.0,64.0
5616,46.0,120,90,2.0,64.0
5617,34.0,96,90,2.0,64.0
5618,46.0,120,90,2.0,64.0
5619,32.0,120,90,2.0,64.0
5620,84.0,0,900,0.0,64.0
5621,72.0,24,900,0.0,64.0
5622,75.0,0,900,0.0,64.0
5623,44.0,120,90,2.0,64.0
5624,32.0,120,90,2.0,64.0
5625,44.0,120,90,2.0,64.0
5626,32.0,120,90,2.0,64.0
5627,44.0,120,90,2.0,64.0
5628,32.0,96,90,2.0,64.0
5629,44.0,120,90,2.0,64.0
5630,60.0,0,900,0.0,64.0
5631,63.0,0,900,0.0,64.0
5632,72.0,24,900,0.0,64.0
5633,31.0,120,90,2.0,64.0
5634,43.0,120,90,2.0,64.0
5635,31.0,120,90,2.0,64.0
5636,43.0,120,90,2.0,64.0
5637,31.0,120,90,2.0,64.0
5638,43.0,120,90,2.0,64.0
5639,31.0,96,90,2.0,64.0
5640,43.0,936,90,2.0,64.0
5641,42.0,1008,900,2.0,64.0
5642,87.0,0,900,0.0,64.0
5643,84.0,0,900,0.0,64.0
5644,81.0,0,900,0.0,64.0
5645,30.0,0,900,2.0,64.0
5646,75.0,0,900,0.0,64.0
5647,63.0,0,960,0.0,64.0
5648,54.0,0,960,1.0,64.0
5649,57.0,0,960,1.0,64.0
5650,60.0,354,960,0.0,64.0
5651,51.0,0,960,2.0,64.0
5652,48.0,0,960,2.0,64.0
5653,45.0,0,960,2.0,64.0
5654,42.0,0,960,2.0,64.0
5655,63.0,0,20,2.0,64.0
5656,66.0,0,20,0.0,64.0
5657,72.0,87,20,0.0,64.0
5658,69.0,0,20,0.0,64.0
5659,69.0,0,90,0.0,64.0
5660,66.0,0,90,0.0,64.0
5661,62.0,33,90,2.0,64.0
5662,74.0,0,90,0.0,64.0
5663,60.0,246,20,2.0,64.0
5664,66.0,0,20,0.0,64.0
5665,75.0,0,20,0.0,64.0
5666,69.0,0,20,0.0,64.0
5667,60.0,0,240,2.0,64.0
5668,75.0,96,240,0.0,64.0
5669,69.0,0,240,0.0,64.0
5670,66.0,0,240,0.0,64.0
5671,67.0,0,90,0.0,64.0
5672,71.0,0,90,0.0,64.0
5673,74.0,0,90,0.0,64.0
5674,59.0,498,90,2.0,64.0
5675,68.0,0,20,1.0,64.0
5676,71.0,0,20,0.0,64.0
5677,77.0,87,20,0.0,64.0
5678,74.0,0,20,0.0,64.0
5679,71.0,0,90,0.0,64.0
5680,67.0,33,90,1.0,64.0
5681,79.0,0,90,0.0,64.0
5682,74.0,0,90,0.0,64.0
5683,65.0,0,20,1.0,64.0
5684,74.0,0,20,0.0,64.0
5685,71.0,246,20,0.0,64.0
5686,80.0,0,20,0.0,64.0
5687,71.0,0,240,0.0,64.0
5688,74.0,0,240,0.0,64.0
5689,80.0,96,240,0.0,64.0
5690,65.0,0,240,1.0,64.0
5691,63.0,498,90,1.0,64.0
5692,79.0,0,90,0.0,64.0
5693,72.0,0,90,0.0,64.0
5694,75.0,0,90,0.0,64.0
5695,79.0,0,20,0.0,64.0
5696,70.0,78,20,0.0,64.0
5697,67.0,0,20,1.0,64.0
5698,64.0,0,20,1.0,64.0
5699,61.0,0,20,1.0,64.0
5700,82.0,0,20,0.0,64.0
5701,76.0,0,20,0.0,64.0
5702,79.0,0,60,0.0,64.0
5703,72.0,0,60,0.0,64.0
5704,84.0,0,60,0.0,64.0
5705,67.0,42,60,1.0,64.0
5706,64.0,0,60,1.0,64.0
5707,60.0,0,60,1.0,64.0
5708,76.0,0,60,0.0,64.0
5709,79.0,0,20,0.0,64.0
5710,73.0,0,20,0.0,64.0
5711,85.0,198,20,0.0,64.0
5712,76.0,0,20,0.0,64.0
5713,67.0,0,20,1.0,64.0
5714,58.0,0,20,1.0,64.0
5715,64.0,0,20,1.0,64.0
5716,64.0,0,180,1.0,64.0
5717,67.0,0,180,1.0,64.0
5718,58.0,48,180,1.0,64.0
5719,56.0,120,360,1.0,64.0
5720,85.0,0,240,0.0,64.0
5721,79.0,0,240,0.0,64.0
5722,76.0,0,240,0.0,64.0
5723,73.0,120,240,0.0,64.0
5724,84.0,0,120,0.0,64.0
5725,68.0,0,120,1.0,64.0
5726,60.0,0,120,1.0,64.0
5727,65.0,0,120,1.0,64.0
5728,72.0,0,120,0.0,64.0
5729,64.0,0,120,1.0,64.0
5730,82.0,0,120,0.0,64.0
5731,70.0,0,120,0.0,64.0
5732,55.0,120,120,1.0,64.0
5733,68.0,0,120,0.0,64.0
5734,80.0,0,120,0.0,64.0
5735,65.0,0,120,1.0,64.0
5736,60.0,0,15,1.0,64.0
5737,53.0,120,120,1.0,64.0
5738,60.0,0,15,1.0,64.0
5739,79.0,0,120,0.0,64.0
5740,67.0,0,120,0.0,64.0
5741,51.0,120,120,1.0,64.0
5742,55.0,0,120,1.0,64.0
5743,50.0,0,120,1.0,64.0
5744,77.0,0,120,0.0,64.0
5745,65.0,120,120,0.0,64.0
5746,59.0,0,120,1.0,64.0
5747,75.0,0,120,0.0,64.0
5748,63.0,0,120,0.0,64.0
5749,55.0,0,15,1.0,64.0
5750,60.0,0,120,1.0,64.0
5751,48.0,0,120,1.0,64.0
5752,53.0,120,120,1.0,64.0
5753,74.0,120,120,0.0,64.0
5754,65.0,0,120,0.0,64.0
5755,68.0,0,120,0.0,64.0
5756,31.0,120,120,2.0,64.0
5757,43.0,0,120,2.0,64.0
5758,53.0,0,120,1.0,64.0
5759,59.0,102,120,1.0,64.0
5760,50.0,0,120,1.0,64.0
5761,36.0,120,90,2.0,64.0
5762,60.0,120,570,0.0,64.0
5763,48.0,120,90,2.0,64.0
5764,36.0,120,90,2.0,64.0
5765,48.0,120,90,2.0,64.0
5766,36.0,0,90,2.0,64.0
5767,48.0,120,90,2.0,64.0
5768,36.0,48,90,2.0,64.0
5769,58.0,0,150,0.0,64.0
5770,64.0,72,150,0.0,64.0
5771,48.0,120,90,2.0,64.0
5772,36.0,48,90,2.0,64.0
5773,65.0,0,150,0.0,64.0
5774,56.0,72,150,0.0,64.0
5775,48.0,120,90,2.0,64.0
5776,67.0,0,150,0.0,64.0
5777,36.0,48,90,2.0,64.0
5778,64.0,72,150,0.0,64.0
5779,48.0,120,90,2.0,64.0
5780,36.0,48,90,2.0,64.0
5781,68.0,72,150,0.0,64.0
5782,65.0,0,150,0.0,64.0
5783,48.0,120,90,2.0,64.0
5784,36.0,48,90,2.0,64.0
5785,71.0,0,150,0.0,64.0
5786,62.0,72,150,0.0,64.0
5787,48.0,120,90,2.0,64.0
5788,72.0,72,150,0.0,64.0
5789,63.0,0,150,0.0,64.0
5790,36.0,48,90,2.0,64.0
5791,48.0,120,90,2.0,64.0
5792,36.0,120,90,2.0,64.0
5793,72.0,0,390,0.0,64.0
5794,64.0,72,390,0.0,64.0
5795,48.0,120,90,2.0,64.0
5796,36.0,48,90,2.0,64.0
5797,48.0,120,90,2.0,64.0
5798,70.0,72,150,0.0,64.0
5799,36.0,48,90,2.0,64.0
5800,76.0,0,150,0.0,64.0
5801,48.0,120,90,2.0,64.0
5802,77.0,72,150,0.0,64.0
5803,68.0,0,150,0.0,64.0
5804,36.0,48,90,2.0,64.0
5805,48.0,120,90,2.0,64.0
5806,36.0,48,90,2.0,64.0
5807,79.0,0,150,0.0,64.0
5808,76.0,72,150,0.0,64.0
5809,48.0,120,90,2.0,64.0
5810,36.0,48,90,2.0,64.0
5811,80.0,0,150,0.0,64.0
5812,77.0,72,150,0.0,64.0
5813,48.0,120,90,2.0,64.0
5814,36.0,48,90,2.0,64.0
5815,83.0,72,150,0.0,64.0
5816,74.0,0,150,0.0,64.0
5817,48.0,120,90,2.0,64.0
5818,75.0,48,300,0.0,64.0
5819,84.0,0,300,0.0,64.0
5820,36.0,120,90,2.0,64.0
5821,48.0,72,90,2.0,64.0
5822,36.0,120,90,2.0,64.0
5823,48.0,120,90,2.0,64.0
5824,34.0,120,90,2.0,64.0
5825,72.0,48,300,0.0,64.0
5826,75.0,0,300,0.0,64.0
5827,84.0,0,300,0.0,64.0
5828,46.0,72,90,2.0,64.0
5829,34.0,120,90,2.0,64.0
5830,46.0,120,90,2.0,64.0
5831,32.0,120,90,2.0,64.0
5832,72.0,0,300,0.0,64.0
5833,84.0,48,300,0.0,64.0
5834,75.0,0,300,0.0,64.0
5835,44.0,72,90,2.0,64.0
5836,32.0,120,90,2.0,64.0
5837,44.0,120,90,2.0,64.0
5838,31.0,120,90,2.0,64.0
5839,72.0,0,300,0.0,64.0
5840,84.0,0,300,0.0,64.0
5841,75.0,48,300,0.0,64.0
5842,43.0,72,90,2.0,64.0
5843,31.0,120,90,2.0,64.0
5844,43.0,216,90,2.0,64.0
5845,75.0,960,180,0.0,64.0
5846,81.0,0,180,0.0,64.0
5847,84.0,0,180,0.0,64.0
5848,87.0,0,180,0.0,64.0
5849,42.0,0,180,2.0,64.0
5850,30.0,0,180,2.0,64.0
5851,57.0,0,180,2.0,64.0
5852,60.0,0,180,2.0,64.0
5853,63.0,0,180,2.0,64.0
5854,54.0,960,180,2.0,64.0
5855,75.0,0,180,0.0,64.0
5856,72.0,0,180,0.0,64.0
5857,69.0,0,180,0.0,64.0
5858,66.0,0,180,0.0,64.0
5859,72.0,0,180,0.0,64.0
5860,67.0,0,180,0.0,64.0
5861,55.0,0,180,2.0,64.0
5862,63.0,0,180,2.0,64.0
5863,75.0,0,180,0.0,64.0
5864,60.0,0,180,2.0,64.0
5865,79.0,960,180,0.0,64.0
5866,43.0,0,180,2.0,64.0
5867,31.0,0,180,2.0,64.0
5868,50.0,0,180,1.0,64.0
5869,53.0,0,180,1.0,64.0
5870,59.0,960,180,1.0,64.0
5871,55.0,0,180,1.0,64.0
5872,38.0,0,180,2.0,64.0
5873,35.0,0,180,2.0,64.0
5874,48.0,2112,180,2.0,64.0
5875,36.0,0,180,2.0,64.0
5876,39.0,0,180,2.0,64.0
5877,43.0,0,180,2.0,64.0
5878,51.0,0,180,1.0,64.0
5879,55.0,0,180,1.0,64.0
5880,60.0,0,180,1.0,64.0
5881,48.0,0,390,2.0,64.0
