tick,type,time,meta,track,frame_rate,hours,minutes,seconds,frames,sub_frames,tempo,numerator,denominator,clocks_per_click,notated_32nd_notes_per_beat,key,control,value,channel,program,pitch,note,velocity
0,track_name,0,1,0,,,,,,,,,,,,,,,,,,,
0,control_change,0,0,4,,,,,,,,,,,,,32,0,3,,,,
0,program_change,0,0,4,,,,,,,,,,,,,,,3,0,,,
0,control_change,0,0,4,,,,,,,,,,,,,10,55,3,,,,
0,control_change,0,0,4,,,,,,,,,,,,,91,91,3,,,,
0,control_change,0,0,4,,,,,,,,,,,,,93,28,3,,,,
0,control_change,0,0,4,,,,,,,,,,,,,64,0,3,,,,
0,control_change,0,0,4,,,,,,,,,,,,,1,0,3,,,,
0,pitchwheel,0,0,4,,,,,,,,,,,,,,,3,,0,,
0,control_change,0,0,4,,,,,,,,,,,,,7,117,3,,,,
0,control_change,0,0,4,,,,,,,,,,,,,0,0,3,,,,
0,track_name,0,1,2,,,,,,,,,,,,,,,,,,,
0,program_change,0,0,1,,,,,,,,,,,,,,,0,0,,,
0,control_change,0,0,1,,,,,,,,,,,,,10,73,0,,,,
0,control_change,0,0,1,,,,,,,,,,,,,91,91,0,,,,
0,control_change,0,0,1,,,,,,,,,,,,,93,28,0,,,,
0,control_change,0,0,1,,,,,,,,,,,,,64,0,0,,,,
0,control_change,0,0,1,,,,,,,,,,,,,1,0,0,,,,
0,control_change,0,0,1,,,,,,,,,,,,,7,127,0,,,,
0,control_change,0,0,1,,,,,,,,,,,,,32,0,0,,,,
0,control_change,0,0,1,,,,,,,,,,,,,0,0,0,,,,
0,pitchwheel,0,0,1,,,,,,,,,,,,,,,0,,0,,
0,track_name,0,1,4,,,,,,,,,,,,,,,,,,,
0,instrument_name,0,1,4,,,,,,,,,,,,,,,,,,,
0,control_change,0,0,3,,,,,,,,,,,,,10,64,2,,,,
0,control_change,0,0,2,,,,,,,,,,,,,0,0,1,,,,
0,control_change,0,0,2,,,,,,,,,,,,,32,0,1,,,,
0,program_change,0,0,2,,,,,,,,,,,,,,,1,0,,,
0,control_change,0,0,2,,,,,,,,,,,,,10,64,1,,,,
0,control_change,0,0,2,,,,,,,,,,,,,91,91,1,,,,
0,control_change,0,0,2,,,,,,,,,,,,,93,28,1,,,,
0,control_change,0,0,2,,,,,,,,,,,,,64,0,1,,,,
0,control_change,0,0,2,,,,,,,,,,,,,1,0,1,,,,
0,pitchwheel,0,0,2,,,,,,,,,,,,,,,1,,0,,
0,control_change,0,0,2,,,,,,,,,,,,,7,117,1,,,,
0,instrument_name,0,1,3,,,,,,,,,,,,,,,,,,,
0,track_name,0,1,3,,,,,,,,,,,,,,,,,,,
0,control_change,0,0,3,,,,,,,,,,,,,0,0,2,,,,
0,control_change,0,0,3,,,,,,,,,,,,,32,0,2,,,,
0,program_change,0,0,3,,,,,,,,,,,,,,,2,0,,,
0,control_change,0,0,3,,,,,,,,,,,,,7,112,2,,,,
0,pitchwheel,0,0,3,,,,,,,,,,,,,,,2,,0,,
0,control_change,0,0,3,,,,,,,,,,,,,1,0,2,,,,
0,control_change,0,0,3,,,,,,,,,,,,,64,0,2,,,,
0,control_change,0,0,3,,,,,,,,,,,,,93,28,2,,,,
0,control_change,0,0,3,,,,,,,,,,,,,91,91,2,,,,
0,track_name,0,1,1,,,,,,,,,,,,,,,,,,,
0,instrument_name,0,1,1,,,,,,,,,,,,,,,,,,,
0,instrument_name,0,1,2,,,,,,,,,,,,,,,,,,,
0,smpte_offset,0,1,0,25,32,0,0,0,0,,,,,,,,,,,,,
0,set_tempo,0,1,0,,,,,,,600000,,,,,,,,,,,,
0,marker,0,1,0,,,,,,,,,,,,,,,,,,,
0,key_signature,0,1,0,,,,,,,,,,,,C,,,,,,,
0,time_signature,0,1,0,,,,,,,,2,4,24,8,,,,,,,,
960,control_change,960,0,1,,,,,,,,,,,,,64,0,0,,,,
960,marker,0,1,0,,,,,,,,,,,,,,,,,,,
960,set_tempo,960,1,0,,,,,,,428571,,,,,,,,,,,,
960,control_change,960,0,4,,,,,,,,,,,,,64,0,3,,,,
1800,set_tempo,840,1,0,,,,,,,434782,,,,,,,,,,,,
1800,note_on,840,0,1,,,,,,,,,,,,,,,0,,,79,91
1920,control_change,120,0,1,,,,,,,,,,,,,64,0,0,,,,
1920,marker,0,1,0,,,,,,,,,,,,,,,,,,,
1920,note_on,1920,0,3,,,,,,,,,,,,,,,2,,,59,76
1920,note_on,0,0,3,,,,,,,,,,,,,,,2,,,62,76
1920,control_change,0,0,4,,,,,,,,,,,,,64,0,3,,,,
1920,note_on,960,0,4,,,,,,,,,,,,,,,3,,,55,76
1920,set_tempo,120,1,0,,,,,,,428571,,,,,,,,,,,,
2640,note_off,720,0,1,,,,,,,,,,,,,,,0,,,79,0
2640,note_on,0,0,1,,,,,,,,,,,,,,,0,,,78,79
2640,note_off,720,0,4,,,,,,,,,,,,,,,3,,,55,0
2640,note_off,720,0,3,,,,,,,,,,,,,,,2,,,59,0
2640,note_off,0,0,3,,,,,,,,,,,,,,,2,,,62,0
2760,note_off,120,0,1,,,,,,,,,,,,,,,0,,,78,0
2760,note_on,0,0,1,,,,,,,,,,,,,,,0,,,76,77
2880,note_on,0,0,1,,,,,,,,,,,,,,,0,,,74,75
2880,marker,960,1,0,,,,,,,,,,,,,,,,,,,
2880,note_off,120,0,1,,,,,,,,,,,,,,,0,,,76,0
3000,note_on,0,0,1,,,,,,,,,,,,,,,0,,,75,74
3000,note_off,120,0,1,,,,,,,,,,,,,,,0,,,74,0
3120,note_on,0,0,1,,,,,,,,,,,,,,,0,,,76,72
3120,note_off,120,0,1,,,,,,,,,,,,,,,0,,,75,0
3240,note_on,0,0,1,,,,,,,,,,,,,,,0,,,71,70
3240,note_off,120,0,1,,,,,,,,,,,,,,,0,,,76,0
3360,note_off,120,0,1,,,,,,,,,,,,,,,0,,,71,0
3360,note_on,0,0,1,,,,,,,,,,,,,,,0,,,74,68
3480,note_on,0,0,1,,,,,,,,,,,,,,,0,,,72,66
3480,note_off,120,0,1,,,,,,,,,,,,,,,0,,,74,0
3600,note_off,120,0,1,,,,,,,,,,,,,,,0,,,72,0
3600,note_on,0,0,1,,,,,,,,,,,,,,,0,,,71,65
3720,note_on,0,0,1,,,,,,,,,,,,,,,0,,,69,61
3720,note_off,120,0,1,,,,,,,,,,,,,,,0,,,71,0
3840,note_off,120,0,1,,,,,,,,,,,,,,,0,,,69,0
3840,note_on,0,0,1,,,,,,,,,,,,,,,0,,,67,59
3840,marker,0,1,0,,,,,,,,,,,,,,,,,,,
3840,set_tempo,960,1,0,,,,,,,441176,,,,,,,,,,,,
4200,note_off,360,0,1,,,,,,,,,,,,,,,0,,,67,0
4560,set_tempo,720,1,0,,,,,,,434782,,,,,,,,,,,,
4680,note_on,4680,0,2,,,,,,,,,,,,,,,1,,,59,43
4680,control_change,0,0,2,,,,,,,,,,,,,64,127,1,,,,
4680,note_on,0,0,2,,,,,,,,,,,,,,,1,,,62,43
4680,note_on,0,0,1,,,,,,,,,,,,,,,0,,,67,42
4680,control_change,480,0,1,,,,,,,,,,,,,64,127,0,,,,
4800,note_on,2160,0,4,,,,,,,,,,,,,,,3,,,55,42
4800,note_on,0,0,4,,,,,,,,,,,,,,,3,,,43,42
4800,marker,240,1,0,,,,,,,,,,,,,,,,,,,
4920,note_off,120,0,4,,,,,,,,,,,,,,,3,,,55,0
4920,note_off,0,0,4,,,,,,,,,,,,,,,3,,,43,0
5160,note_on,0,0,2,,,,,,,,,,,,,,,1,,,62,45
5160,note_off,480,0,1,,,,,,,,,,,,,,,0,,,67,0
5160,note_on,0,0,2,,,,,,,,,,,,,,,1,,,59,45
5160,note_off,0,0,2,,,,,,,,,,,,,,,1,,,62,0
5160,note_on,0,0,1,,,,,,,,,,,,,,,0,,,71,46
5160,note_off,480,0,2,,,,,,,,,,,,,,,1,,,59,0
5280,note_on,360,0,4,,,,,,,,,,,,,,,3,,,55,44
5280,note_on,0,0,4,,,,,,,,,,,,,,,3,,,43,44
5400,note_off,0,0,4,,,,,,,,,,,,,,,3,,,43,0
5400,note_off,120,0,4,,,,,,,,,,,,,,,3,,,55,0
5520,set_tempo,720,1,0,,,,,,,441176,,,,,,,,,,,,
5640,note_on,0,0,1,,,,,,,,,,,,,,,0,,,67,41
5640,note_off,0,0,2,,,,,,,,,,,,,,,1,,,62,0
5640,note_off,480,0,2,,,,,,,,,,,,,,,1,,,59,0
5640,note_on,0,0,2,,,,,,,,,,,,,,,1,,,62,41
5640,note_off,480,0,1,,,,,,,,,,,,,,,0,,,71,0
5640,note_on,0,0,2,,,,,,,,,,,,,,,1,,,59,41
5760,note_on,0,0,4,,,,,,,,,,,,,,,3,,,55,42
5760,note_on,360,0,4,,,,,,,,,,,,,,,3,,,43,42
5880,note_off,0,0,4,,,,,,,,,,,,,,,3,,,55,0
5880,note_off,120,0,4,,,,,,,,,,,,,,,3,,,43,0
6120,note_off,480,0,1,,,,,,,,,,,,,,,0,,,67,0
6120,note_off,480,0,2,,,,,,,,,,,,,,,1,,,62,0
6120,note_off,0,0,2,,,,,,,,,,,,,,,1,,,59,0
6240,control_change,120,0,1,,,,,,,,,,,,,64,0,0,,,,
6240,control_change,120,0,2,,,,,,,,,,,,,64,0,1,,,,
6240,control_change,360,0,4,,,,,,,,,,,,,64,0,3,,,,
6600,set_tempo,1080,1,0,,,,,,,434782,,,,,,,,,,,,
6600,control_change,0,0,2,,,,,,,,,,,,,64,127,1,,,,
6600,control_change,0,0,1,,,,,,,,,,,,,64,127,0,,,,
6600,note_on,360,0,2,,,,,,,,,,,,,,,1,,,59,55
6600,note_on,0,0,2,,,,,,,,,,,,,,,1,,,62,55
6600,note_on,360,0,1,,,,,,,,,,,,,,,0,,,67,53
6720,note_on,480,0,4,,,,,,,,,,,,,,,3,,,55,54
6720,note_on,0,0,4,,,,,,,,,,,,,,,3,,,43,54
6840,note_off,120,0,4,,,,,,,,,,,,,,,3,,,55,0
6840,note_off,0,0,4,,,,,,,,,,,,,,,3,,,43,0
7080,note_off,480,0,1,,,,,,,,,,,,,,,0,,,67,0
7080,note_off,480,0,2,,,,,,,,,,,,,,,1,,,59,0
7080,note_off,0,0,2,,,,,,,,,,,,,,,1,,,62,0
7080,note_on,0,0,1,,,,,,,,,,,,,,,0,,,74,57
7080,note_on,0,0,2,,,,,,,,,,,,,,,1,,,62,57
7080,note_on,0,0,2,,,,,,,,,,,,,,,1,,,67,57
7080,note_on,0,0,2,,,,,,,,,,,,,,,1,,,71,57
7200,note_on,360,0,4,,,,,,,,,,,,,,,3,,,55,56
7200,note_on,0,0,4,,,,,,,,,,,,,,,3,,,43,56
7320,note_off,0,0,4,,,,,,,,,,,,,,,3,,,43,0
7320,note_off,120,0,4,,,,,,,,,,,,,,,3,,,55,0
7440,set_tempo,840,1,0,,,,,,,441176,,,,,,,,,,,,
7560,note_off,480,0,2,,,,,,,,,,,,,,,1,,,71,0
7560,note_off,0,0,2,,,,,,,,,,,,,,,1,,,62,0
7560,note_on,0,0,2,,,,,,,,,,,,,,,1,,,59,54
7560,note_on,0,0,2,,,,,,,,,,,,,,,1,,,62,54
7560,note_off,480,0,1,,,,,,,,,,,,,,,0,,,74,0
7560,note_on,0,0,1,,,,,,,,,,,,,,,0,,,67,54
7560,note_off,0,0,2,,,,,,,,,,,,,,,1,,,67,0
7680,note_on,0,0,4,,,,,,,,,,,,,,,3,,,55,55
7680,note_on,360,0,4,,,,,,,,,,,,,,,3,,,43,55
7800,note_off,120,0,4,,,,,,,,,,,,,,,3,,,43,0
7800,note_off,0,0,4,,,,,,,,,,,,,,,3,,,55,0
8040,note_off,480,0,2,,,,,,,,,,,,,,,1,,,59,0
8040,note_off,0,0,2,,,,,,,,,,,,,,,1,,,62,0
8040,note_off,480,0,1,,,,,,,,,,,,,,,0,,,67,0
8160,control_change,120,0,2,,,,,,,,,,,,,64,0,1,,,,
8160,control_change,120,0,1,,,,,,,,,,,,,64,0,0,,,,
8520,note_on,0,0,2,,,,,,,,,,,,,,,1,,,59,78
8520,note_on,360,0,2,,,,,,,,,,,,,,,1,,,67,78
8520,control_change,0,0,2,,,,,,,,,,,,,64,127,1,,,,
8520,note_on,0,0,2,,,,,,,,,,,,,,,1,,,62,78
8520,set_tempo,1080,1,0,,,,,,,434782,,,,,,,,,,,,
8520,control_change,0,0,1,,,,,,,,,,,,,64,127,0,,,,
8520,note_on,360,0,1,,,,,,,,,,,,,,,0,,,71,78
8640,note_on,0,0,4,,,,,,,,,,,,,,,3,,,43,78
8640,note_on,840,0,4,,,,,,,,,,,,,,,3,,,55,78
8760,note_off,120,0,4,,,,,,,,,,,,,,,3,,,55,0
8760,note_off,0,0,4,,,,,,,,,,,,,,,3,,,43,0
9000,note_on,0,0,2,,,,,,,,,,,,,,,1,,,76,83
9000,note_off,0,0,2,,,,,,,,,,,,,,,1,,,59,0
9000,note_off,0,0,2,,,,,,,,,,,,,,,1,,,62,0
9000,note_on,0,0,2,,,,,,,,,,,,,,,1,,,71,83
9000,note_off,480,0,1,,,,,,,,,,,,,,,0,,,71,0
9000,note_on,0,0,1,,,,,,,,,,,,,,,0,,,79,83
9000,note_off,480,0,2,,,,,,,,,,,,,,,1,,,67,0
9000,note_on,0,0,2,,,,,,,,,,,,,,,1,,,67,83
9120,note_on,360,0,4,,,,,,,,,,,,,,,3,,,40,81
9120,note_on,0,0,4,,,,,,,,,,,,,,,3,,,52,81
9240,note_off,120,0,4,,,,,,,,,,,,,,,3,,,40,0
9240,note_off,0,0,4,,,,,,,,,,,,,,,3,,,52,0
9360,set_tempo,840,1,0,,,,,,,441176,,,,,,,,,,,,
9480,note_on,0,0,2,,,,,,,,,,,,,,,1,,,66,79
9480,note_on,0,0,2,,,,,,,,,,,,,,,1,,,74,79
9480,note_on,0,0,2,,,,,,,,,,,,,,,1,,,69,79
9480,control_change,480,0,2,,,,,,,,,,,,,64,0,1,,,,
9480,note_off,0,0,2,,,,,,,,,,,,,,,1,,,76,0
9480,note_on,0,0,1,,,,,,,,,,,,,,,0,,,78,79
9480,note_off,0,0,1,,,,,,,,,,,,,,,0,,,79,0
9480,control_change,480,0,1,,,,,,,,,,,,,64,0,0,,,,
9480,note_off,0,0,2,,,,,,,,,,,,,,,1,,,67,0
9480,note_off,0,0,2,,,,,,,,,,,,,,,1,,,71,0
9600,note_on,360,0,4,,,,,,,,,,,,,,,3,,,57,78
9600,note_on,0,0,4,,,,,,,,,,,,,,,3,,,45,78
9720,note_off,0,0,4,,,,,,,,,,,,,,,3,,,45,0
9720,note_off,120,0,4,,,,,,,,,,,,,,,3,,,57,0
9960,note_off,0,0,2,,,,,,,,,,,,,,,1,,,66,0
9960,note_off,480,0,2,,,,,,,,,,,,,,,1,,,69,0
9960,note_off,0,0,2,,,,,,,,,,,,,,,1,,,74,0
9960,note_off,480,0,1,,,,,,,,,,,,,,,0,,,78,0
10080,control_change,120,0,2,,,,,,,,,,,,,64,0,1,,,,
10080,control_change,120,0,1,,,,,,,,,,,,,64,0,0,,,,
10320,set_tempo,960,1,0,,,,,,,454545,,,,,,,,,,,,
10560,note_on,0,0,2,,,,,,,,,,,,,,,1,,,69,52
10560,note_on,480,0,1,,,,,,,,,,,,,,,0,,,74,52
10560,note_on,480,0,2,,,,,,,,,,,,,,,1,,,66,52
10560,note_on,0,0,4,,,,,,,,,,,,,,,3,,,45,55
10560,note_on,840,0,4,,,,,,,,,,,,,,,3,,,57,55
10680,note_off,120,0,2,,,,,,,,,,,,,,,1,,,66,0
10680,note_off,0,0,2,,,,,,,,,,,,,,,1,,,69,0
10680,note_off,0,0,4,,,,,,,,,,,,,,,3,,,45,0
10680,note_off,120,0,4,,,,,,,,,,,,,,,3,,,57,0
10680,note_off,120,0,1,,,,,,,,,,,,,,,0,,,74,0
11040,note_on,0,0,4,,,,,,,,,,,,,,,3,,,33,51
11040,note_on,360,0,4,,,,,,,,,,,,,,,3,,,45,51
11040,note_on,0,0,2,,,,,,,,,,,,,,,1,,,64,48
11040,note_on,360,0,1,,,,,,,,,,,,,,,0,,,73,48
11040,note_on,0,0,2,,,,,,,,,,,,,,,1,,,69,48
11040,note_on,360,0,2,,,,,,,,,,,,,,,1,,,67,48
11160,note_off,120,0,2,,,,,,,,,,,,,,,1,,,67,0
11160,note_off,120,0,1,,,,,,,,,,,,,,,0,,,73,0
11160,note_off,120,0,4,,,,,,,,,,,,,,,3,,,45,0
11160,note_off,0,0,4,,,,,,,,,,,,,,,3,,,33,0
11160,note_off,0,0,2,,,,,,,,,,,,,,,1,,,64,0
11160,note_off,0,0,2,,,,,,,,,,,,,,,1,,,69,0
11520,note_on,0,0,2,,,,,,,,,,,,,,,1,,,66,44
11520,note_on,360,0,2,,,,,,,,,,,,,,,1,,,69,44
11520,note_on,0,0,2,,,,,,,,,,,,,,,1,,,62,44
11520,note_on,360,0,1,,,,,,,,,,,,,,,0,,,74,44
11520,note_on,0,0,4,,,,,,,,,,,,,,,3,,,38,46
11520,note_on,360,0,4,,,,,,,,,,,,,,,3,,,50,46
11520,set_tempo,1200,1,0,,,,,,,461538,,,,,,,,,,,,
11640,note_off,120,0,1,,,,,,,,,,,,,,,0,,,74,0
11640,note_off,0,0,2,,,,,,,,,,,,,,,1,,,66,0
11640,note_off,0,0,4,,,,,,,,,,,,,,,3,,,38,0
11640,note_off,120,0,4,,,,,,,,,,,,,,,3,,,50,0
11640,note_off,0,0,2,,,,,,,,,,,,,,,1,,,62,0
11640,note_off,120,0,2,,,,,,,,,,,,,,,1,,,69,0
12000,set_tempo,480,1,0,,,,,,,600000,,,,,,,,,,,,
12360,set_tempo,360,1,0,,,,,,,434782,,,,,,,,,,,,
12360,note_on,720,0,1,,,,,,,,,,,,,,,0,,,77,91
12480,note_on,840,0,4,,,,,,,,,,,,,,,3,,,65,90
12480,set_tempo,120,1,0,,,,,,,428571,,,,,,,,,,,,
13200,note_off,720,0,4,,,,,,,,,,,,,,,3,,,65,0
13200,note_off,840,0,1,,,,,,,,,,,,,,,0,,,77,0
13200,note_on,0,0,4,,,,,,,,,,,,,,,3,,,64,79
13200,note_on,0,0,1,,,,,,,,,,,,,,,0,,,76,80
13320,note_on,0,0,4,,,,,,,,,,,,,,,3,,,62,77
13320,note_off,120,0,4,,,,,,,,,,,,,,,3,,,64,0
13320,note_on,0,0,1,,,,,,,,,,,,,,,0,,,74,79
13320,note_off,120,0,1,,,,,,,,,,,,,,,0,,,76,0
13440,note_on,0,0,4,,,,,,,,,,,,,,,3,,,60,76
13440,note_off,120,0,4,,,,,,,,,,,,,,,3,,,62,0
13440,note_off,120,0,1,,,,,,,,,,,,,,,0,,,74,0
13440,note_on,0,0,1,,,,,,,,,,,,,,,0,,,72,77
13560,note_on,0,0,1,,,,,,,,,,,,,,,0,,,73,76
13560,note_off,120,0,1,,,,,,,,,,,,,,,0,,,72,0
13560,note_on,0,0,4,,,,,,,,,,,,,,,3,,,61,74
13560,note_off,120,0,4,,,,,,,,,,,,,,,3,,,60,0
13680,note_on,0,0,1,,,,,,,,,,,,,,,0,,,74,74
13680,note_off,120,0,1,,,,,,,,,,,,,,,0,,,73,0
13680,note_on,0,0,4,,,,,,,,,,,,,,,3,,,62,73
13680,note_off,120,0,4,,,,,,,,,,,,,,,3,,,61,0
13800,note_on,0,0,4,,,,,,,,,,,,,,,3,,,57,71
13800,note_on,0,0,1,,,,,,,,,,,,,,,0,,,69,73
13800,note_off,120,0,1,,,,,,,,,,,,,,,0,,,74,0
13800,note_off,120,0,4,,,,,,,,,,,,,,,3,,,62,0
13920,note_on,0,0,1,,,,,,,,,,,,,,,0,,,72,71
13920,note_off,120,0,1,,,,,,,,,,,,,,,0,,,69,0
13920,note_off,120,0,4,,,,,,,,,,,,,,,3,,,57,0
13920,note_on,0,0,4,,,,,,,,,,,,,,,3,,,60,69
14040,note_on,0,0,4,,,,,,,,,,,,,,,3,,,58,67
14040,note_on,0,0,1,,,,,,,,,,,,,,,0,,,70,70
14040,note_off,120,0,1,,,,,,,,,,,,,,,0,,,72,0
14040,note_off,120,0,4,,,,,,,,,,,,,,,3,,,60,0
14160,note_off,120,0,4,,,,,,,,,,,,,,,3,,,58,0
14160,note_on,0,0,4,,,,,,,,,,,,,,,3,,,57,64
14160,note_off,120,0,1,,,,,,,,,,,,,,,0,,,70,0
14160,note_on,0,0,1,,,,,,,,,,,,,,,0,,,69,68
14280,note_off,120,0,4,,,,,,,,,,,,,,,3,,,57,0
14280,note_on,0,0,4,,,,,,,,,,,,,,,3,,,55,62
14280,note_on,0,0,1,,,,,,,,,,,,,,,0,,,67,66
14280,note_off,120,0,1,,,,,,,,,,,,,,,0,,,69,0
14400,note_on,0,0,4,,,,,,,,,,,,,,,3,,,53,59
14400,note_off,120,0,4,,,,,,,,,,,,,,,3,,,55,0
14400,set_tempo,1920,1,0,,,,,,,441176,,,,,,,,,,,,
14400,note_off,120,0,1,,,,,,,,,,,,,,,0,,,67,0
14400,note_on,0,0,1,,,,,,,,,,,,,,,0,,,65,65
14760,note_off,360,0,4,,,,,,,,,,,,,,,3,,,53,0
14760,note_off,360,0,1,,,,,,,,,,,,,,,0,,,65,0
15120,set_tempo,720,1,0,,,,,,,434782,,,,,,,,,,,,
15240,note_on,0,0,2,,,,,,,,,,,,,,,1,,,60,41
15240,control_change,3600,0,2,,,,,,,,,,,,,64,127,1,,,,
15240,note_on,0,0,2,,,,,,,,,,,,,,,1,,,57,41
15240,note_on,0,0,1,,,,,,,,,,,,,,,0,,,65,42
15240,control_change,480,0,1,,,,,,,,,,,,,64,127,0,,,,
15360,note_on,600,0,4,,,,,,,,,,,,,,,3,,,53,40
15360,note_on,0,0,4,,,,,,,,,,,,,,,3,,,41,40
15480,note_off,120,0,4,,,,,,,,,,,,,,,3,,,53,0
15480,note_off,0,0,4,,,,,,,,,,,,,,,3,,,41,0
15720,note_on,0,0,1,,,,,,,,,,,,,,,0,,,69,46
15720,note_off,480,0,2,,,,,,,,,,,,,,,1,,,57,0
15720,note_on,0,0,2,,,,,,,,,,,,,,,1,,,57,44
15720,note_on,0,0,2,,,,,,,,,,,,,,,1,,,60,44
15720,note_off,0,0,2,,,,,,,,,,,,,,,1,,,60,0
15720,note_off,480,0,1,,,,,,,,,,,,,,,0,,,65,0
15840,note_on,0,0,4,,,,,,,,,,,,,,,3,,,41,45
15840,note_on,360,0,4,,,,,,,,,,,,,,,3,,,53,45
15960,note_off,0,0,4,,,,,,,,,,,,,,,3,,,41,0
15960,note_off,120,0,4,,,,,,,,,,,,,,,3,,,53,0
16080,set_tempo,960,1,0,,,,,,,441176,,,,,,,,,,,,
16200,note_off,480,0,1,,,,,,,,,,,,,,,0,,,69,0
16200,note_on,0,0,1,,,,,,,,,,,,,,,0,,,65,42
16200,note_on,0,0,2,,,,,,,,,,,,,,,1,,,57,42
16200,note_off,480,0,2,,,,,,,,,,,,,,,1,,,57,0
16200,note_off,0,0,2,,,,,,,,,,,,,,,1,,,60,0
16200,note_on,0,0,2,,,,,,,,,,,,,,,1,,,60,42
16320,note_on,360,0,4,,,,,,,,,,,,,,,3,,,53,43
16320,note_on,0,0,4,,,,,,,,,,,,,,,3,,,41,43
16440,note_off,120,0,4,,,,,,,,,,,,,,,3,,,53,0
16440,note_off,0,0,4,,,,,,,,,,,,,,,3,,,41,0
16680,note_off,0,0,2,,,,,,,,,,,,,,,1,,,57,0
16680,note_off,480,0,1,,,,,,,,,,,,,,,0,,,65,0
16680,note_off,480,0,2,,,,,,,,,,,,,,,1,,,60,0
16800,control_change,120,0,2,,,,,,,,,,,,,64,0,1,,,,
16800,control_change,120,0,1,,,,,,,,,,,,,64,0,0,,,,
17160,set_tempo,1080,1,0,,,,,,,434782,,,,,,,,,,,,
17160,control_change,0,0,2,,,,,,,,,,,,,64,127,1,,,,
17160,note_on,0,0,2,,,,,,,,,,,,,,,1,,,60,50
17160,note_on,360,0,1,,,,,,,,,,,,,,,0,,,65,50
17160,control_change,0,0,1,,,,,,,,,,,,,64,127,0,,,,
17160,note_on,360,0,2,,,,,,,,,,,,,,,1,,,57,50
17280,note_on,840,0,4,,,,,,,,,,,,,,,3,,,53,50
17280,note_on,0,0,4,,,,,,,,,,,,,,,3,,,41,50
17400,note_off,120,0,4,,,,,,,,,,,,,,,3,,,53,0
17400,note_off,0,0,4,,,,,,,,,,,,,,,3,,,41,0
17640,note_on,0,0,1,,,,,,,,,,,,,,,0,,,72,54
17640,note_off,480,0,1,,,,,,,,,,,,,,,0,,,65,0
17640,note_on,0,0,2,,,,,,,,,,,,,,,1,,,60,54
17640,note_on,0,0,2,,,,,,,,,,,,,,,1,,,69,54
17640,note_on,0,0,2,,,,,,,,,,,,,,,1,,,65,54
17640,note_off,0,0,2,,,,,,,,,,,,,,,1,,,60,0
17640,note_off,480,0,2,,,,,,,,,,,,,,,1,,,57,0
17760,note_on,0,0,4,,,,,,,,,,,,,,,3,,,41,53
17760,note_on,360,0,4,,,,,,,,,,,,,,,3,,,53,53
17880,note_off,0,0,4,,,,,,,,,,,,,,,3,,,41,0
17880,note_off,120,0,4,,,,,,,,,,,,,,,3,,,53,0
18000,set_tempo,840,1,0,,,,,,,441176,,,,,,,,,,,,
18120,note_on,0,0,2,,,,,,,,,,,,,,,1,,,57,52
18120,note_off,480,0,1,,,,,,,,,,,,,,,0,,,72,0
18120,note_on,0,0,2,,,,,,,,,,,,,,,1,,,60,52
18120,note_off,480,0,2,,,,,,,,,,,,,,,1,,,65,0
18120,note_off,0,0,2,,,,,,,,,,,,,,,1,,,69,0
18120,note_off,0,0,2,,,,,,,,,,,,,,,1,,,60,0
18120,note_on,0,0,1,,,,,,,,,,,,,,,0,,,65,52
18240,note_on,0,0,4,,,,,,,,,,,,,,,3,,,53,50
18240,note_on,360,0,4,,,,,,,,,,,,,,,3,,,41,50
18360,note_off,0,0,4,,,,,,,,,,,,,,,3,,,53,0
18360,note_off,120,0,4,,,,,,,,,,,,,,,3,,,41,0
18600,note_off,480,0,1,,,,,,,,,,,,,,,0,,,65,0
18600,note_off,0,0,2,,,,,,,,,,,,,,,1,,,60,0
18600,note_off,480,0,2,,,,,,,,,,,,,,,1,,,57,0
18720,control_change,120,0,2,,,,,,,,,,,,,64,0,1,,,,
18720,control_change,120,0,1,,,,,,,,,,,,,64,0,0,,,,
19080,note_on,360,0,2,,,,,,,,,,,,,,,1,,,60,78
19080,note_on,0,0,2,,,,,,,,,,,,,,,1,,,57,78
19080,note_on,0,0,2,,,,,,,,,,,,,,,1,,,65,78
19080,control_change,0,0,2,,,,,,,,,,,,,64,127,1,,,,
19080,set_tempo,1080,1,0,,,,,,,434782,,,,,,,,,,,,
19080,note_on,360,0,1,,,,,,,,,,,,,,,0,,,69,78
19080,control_change,0,0,1,,,,,,,,,,,,,64,127,0,,,,
19200,note_on,840,0,4,,,,,,,,,,,,,,,3,,,53,77
19200,note_on,0,0,4,,,,,,,,,,,,,,,3,,,41,77
19320,note_off,120,0,4,,,,,,,,,,,,,,,3,,,53,0
19320,note_off,0,0,4,,,,,,,,,,,,,,,3,,,41,0
19560,note_off,480,0,2,,,,,,,,,,,,,,,1,,,60,0
19560,note_on,0,0,1,,,,,,,,,,,,,,,0,,,77,83
19560,note_off,480,0,1,,,,,,,,,,,,,,,0,,,69,0
19560,note_on,0,0,2,,,,,,,,,,,,,,,1,,,74,83
19560,note_off,0,0,2,,,,,,,,,,,,,,,1,,,65,0
19560,note_on,0,0,2,,,,,,,,,,,,,,,1,,,65,83
19560,note_off,0,0,2,,,,,,,,,,,,,,,1,,,57,0
19560,note_on,0,0,2,,,,,,,,,,,,,,,1,,,69,83
19680,note_on,360,0,4,,,,,,,,,,,,,,,3,,,38,81
19680,note_on,0,0,4,,,,,,,,,,,,,,,3,,,50,81
19800,note_off,120,0,4,,,,,,,,,,,,,,,3,,,38,0
19800,note_off,0,0,4,,,,,,,,,,,,,,,3,,,50,0
19910,set_tempo,830,1,0,,,,,,,441176,,,,,,,,,,,,
20040,note_on,0,0,1,,,,,,,,,,,,,,,0,,,76,77
20040,note_off,0,0,1,,,,,,,,,,,,,,,0,,,77,0
20040,control_change,480,0,1,,,,,,,,,,,,,64,0,0,,,,
20040,note_on,0,0,2,,,,,,,,,,,,,,,1,,,67,77
20040,note_on,0,0,2,,,,,,,,,,,,,,,1,,,72,77
20040,note_on,0,0,2,,,,,,,,,,,,,,,1,,,64,77
20040,control_change,480,0,2,,,,,,,,,,,,,64,0,1,,,,
20040,note_off,0,0,2,,,,,,,,,,,,,,,1,,,65,0
20040,note_off,0,0,2,,,,,,,,,,,,,,,1,,,69,0
20040,note_off,0,0,2,,,,,,,,,,,,,,,1,,,74,0
20160,note_on,0,0,4,,,,,,,,,,,,,,,3,,,43,79
20160,note_on,360,0,4,,,,,,,,,,,,,,,3,,,55,79
20280,note_off,0,0,4,,,,,,,,,,,,,,,3,,,43,0
20280,note_off,120,0,4,,,,,,,,,,,,,,,3,,,55,0
20520,note_off,480,0,2,,,,,,,,,,,,,,,1,,,72,0
20520,note_off,0,0,2,,,,,,,,,,,,,,,1,,,67,0
20520,note_off,480,0,1,,,,,,,,,,,,,,,0,,,76,0
20520,note_off,0,0,2,,,,,,,,,,,,,,,1,,,64,0
20640,control_change,120,0,2,,,,,,,,,,,,,64,0,1,,,,
20640,control_change,120,0,1,,,,,,,,,,,,,64,0,0,,,,
20880,set_tempo,970,1,0,,,,,,,447761,,,,,,,,,,,,
21120,note_on,480,0,2,,,,,,,,,,,,,,,1,,,67,44
21120,note_on,0,0,4,,,,,,,,,,,,,,,3,,,43,52
21120,note_on,0,0,2,,,,,,,,,,,,,,,1,,,64,44
21120,note_on,480,0,1,,,,,,,,,,,,,,,0,,,72,44
21120,note_on,840,0,4,,,,,,,,,,,,,,,3,,,55,52
21240,note_off,0,0,2,,,,,,,,,,,,,,,1,,,64,0
21240,note_off,120,0,2,,,,,,,,,,,,,,,1,,,67,0
21240,note_off,120,0,1,,,,,,,,,,,,,,,0,,,72,0
21240,note_off,120,0,4,,,,,,,,,,,,,,,3,,,55,0
21240,note_off,0,0,4,,,,,,,,,,,,,,,3,,,43,0
21600,note_on,0,0,2,,,,,,,,,,,,,,,1,,,65,47
21600,note_on,360,0,2,,,,,,,,,,,,,,,1,,,67,47
21600,note_on,360,0,1,,,,,,,,,,,,,,,0,,,71,47
21600,note_on,360,0,4,,,,,,,,,,,,,,,3,,,31,50
21600,note_on,0,0,4,,,,,,,,,,,,,,,3,,,43,50
21600,note_on,0,0,2,,,,,,,,,,,,,,,1,,,62,47
21720,note_off,120,0,4,,,,,,,,,,,,,,,3,,,31,0
21720,note_off,0,0,2,,,,,,,,,,,,,,,1,,,65,0
21720,note_off,0,0,2,,,,,,,,,,,,,,,1,,,62,0
21720,note_off,120,0,2,,,,,,,,,,,,,,,1,,,67,0
21720,note_off,120,0,1,,,,,,,,,,,,,,,0,,,71,0
21720,note_off,0,0,4,,,,,,,,,,,,,,,3,,,43,0
22080,note_on,360,0,4,,,,,,,,,,,,,,,3,,,48,47
22080,note_on,0,0,2,,,,,,,,,,,,,,,1,,,67,45
22080,note_on,360,0,2,,,,,,,,,,,,,,,1,,,60,45
22080,set_tempo,1200,1,0,,,,,,,454545,,,,,,,,,,,,
22080,note_on,360,0,1,,,,,,,,,,,,,,,0,,,72,45
22080,note_on,0,0,2,,,,,,,,,,,,,,,1,,,64,45
22080,note_on,0,0,4,,,,,,,,,,,,,,,3,,,36,47
22200,note_off,120,0,4,,,,,,,,,,,,,,,3,,,48,0
22200,note_off,0,0,4,,,,,,,,,,,,,,,3,,,36,0
22200,note_off,0,0,2,,,,,,,,,,,,,,,1,,,67,0
22200,note_off,120,0,1,,,,,,,,,,,,,,,0,,,72,0
22200,note_off,0,0,2,,,,,,,,,,,,,,,1,,,64,0
22200,note_off,120,0,2,,,,,,,,,,,,,,,1,,,60,0
22560,control_change,360,0,1,,,,,,,,,,,,,64,0,0,,,,
22560,control_change,360,0,4,,,,,,,,,,,,,64,0,3,,,,
22560,control_change,360,0,2,,,,,,,,,,,,,64,0,1,,,,
22800,set_tempo,720,1,0,,,,,,,434782,,,,,,,,,,,,
22920,note_on,0,0,2,,,,,,,,,,,,,,,1,,,64,90
22920,control_change,0,0,1,,,,,,,,,,,,,64,127,0,,,,
22920,note_on,360,0,1,,,,,,,,,,,,,,,0,,,76,90
22920,note_on,360,0,2,,,,,,,,,,,,,,,1,,,72,90
22920,note_on,0,0,2,,,,,,,,,,,,,,,1,,,67,90
22920,control_change,0,0,2,,,,,,,,,,,,,64,127,1,,,,
23040,note_on,480,0,4,,,,,,,,,,,,,,,3,,,48,88
23040,note_on,0,0,4,,,,,,,,,,,,,,,3,,,60,88
23160,note_off,0,0,4,,,,,,,,,,,,,,,3,,,60,0
23160,note_off,120,0,4,,,,,,,,,,,,,,,3,,,48,0
23400,note_off,480,0,1,,,,,,,,,,,,,,,0,,,76,0
23400,note_on,0,0,1,,,,,,,,,,,,,,,0,,,84,96
23400,note_off,480,0,2,,,,,,,,,,,,,,,1,,,72,0
23400,note_off,0,0,2,,,,,,,,,,,,,,,1,,,67,0
23400,note_off,0,0,2,,,,,,,,,,,,,,,1,,,64,0
23400,note_on,0,0,2,,,,,,,,,,,,,,,1,,,72,96
23400,note_on,0,0,2,,,,,,,,,,,,,,,1,,,81,96
23400,note_on,0,0,2,,,,,,,,,,,,,,,1,,,76,96
23520,note_on,0,0,4,,,,,,,,,,,,,,,3,,,45,97
23520,note_on,360,0,4,,,,,,,,,,,,,,,3,,,57,97
23640,note_off,0,0,4,,,,,,,,,,,,,,,3,,,45,0
23640,note_off,120,0,4,,,,,,,,,,,,,,,3,,,57,0
23750,set_tempo,950,1,0,,,,,,,441176,,,,,,,,,,,,
23880,control_change,480,0,1,,,,,,,,,,,,,64,0,0,,,,
23880,note_off,0,0,1,,,,,,,,,,,,,,,0,,,84,0
23880,note_on,0,0,1,,,,,,,,,,,,,,,0,,,83,91
23880,note_on,0,0,2,,,,,,,,,,,,,,,1,,,74,91
23880,note_on,0,0,2,,,,,,,,,,,,,,,1,,,79,91
23880,control_change,480,0,2,,,,,,,,,,,,,64,0,1,,,,
23880,note_off,0,0,2,,,,,,,,,,,,,,,1,,,72,0
23880,note_off,0,0,2,,,,,,,,,,,,,,,1,,,81,0
23880,note_off,0,0,2,,,,,,,,,,,,,,,1,,,76,0
23880,note_on,0,0,2,,,,,,,,,,,,,,,1,,,71,91
24000,note_on,360,0,4,,,,,,,,,,,,,,,3,,,50,90
24000,note_on,0,0,4,,,,,,,,,,,,,,,3,,,62,90
24120,note_off,0,0,4,,,,,,,,,,,,,,,3,,,62,0
24120,note_off,120,0,4,,,,,,,,,,,,,,,3,,,50,0
24360,note_off,480,0,2,,,,,,,,,,,,,,,1,,,79,0
24360,note_off,0,0,2,,,,,,,,,,,,,,,1,,,74,0
24360,note_off,480,0,1,,,,,,,,,,,,,,,0,,,83,0
24360,note_off,0,0,2,,,,,,,,,,,,,,,1,,,71,0
24480,control_change,120,0,2,,,,,,,,,,,,,64,0,1,,,,
24480,control_change,120,0,1,,,,,,,,,,,,,64,0,0,,,,
24720,set_tempo,970,1,0,,,,,,,447761,,,,,,,,,,,,
24960,note_on,480,0,1,,,,,,,,,,,,,,,0,,,79,55
24960,note_on,0,0,2,,,,,,,,,,,,,,,1,,,71,55
24960,note_on,0,0,4,,,,,,,,,,,,,,,3,,,50,55
24960,note_on,840,0,4,,,,,,,,,,,,,,,3,,,62,55
24960,note_on,480,0,2,,,,,,,,,,,,,,,1,,,74,55
25080,note_off,0,0,2,,,,,,,,,,,,,,,1,,,71,0
25080,note_off,120,0,2,,,,,,,,,,,,,,,1,,,74,0
25080,note_off,120,0,1,,,,,,,,,,,,,,,0,,,79,0
25080,note_off,120,0,4,,,,,,,,,,,,,,,3,,,62,0
25080,note_off,0,0,4,,,,,,,,,,,,,,,3,,,50,0
25440,note_on,360,0,1,,,,,,,,,,,,,,,0,,,78,53
25440,note_on,0,0,4,,,,,,,,,,,,,,,3,,,38,53
25440,note_on,360,0,4,,,,,,,,,,,,,,,3,,,50,53
25440,note_on,360,0,2,,,,,,,,,,,,,,,1,,,69,53
25440,note_on,0,0,2,,,,,,,,,,,,,,,1,,,74,53
25560,note_off,0,0,2,,,,,,,,,,,,,,,1,,,74,0
25560,note_off,0,0,4,,,,,,,,,,,,,,,3,,,38,0
25560,note_off,120,0,4,,,,,,,,,,,,,,,3,,,50,0
25560,note_off,120,0,2,,,,,,,,,,,,,,,1,,,69,0
25560,note_off,120,0,1,,,,,,,,,,,,,,,0,,,78,0
25920,note_on,360,0,2,,,,,,,,,,,,,,,1,,,74,50
25920,note_on,0,0,2,,,,,,,,,,,,,,,1,,,71,50
25920,set_tempo,1200,1,0,,,,,,,454545,,,,,,,,,,,,
25920,note_on,360,0,1,,,,,,,,,,,,,,,0,,,79,50
25920,note_on,0,0,4,,,,,,,,,,,,,,,3,,,43,50
25920,note_on,360,0,4,,,,,,,,,,,,,,,3,,,55,50
26040,note_off,120,0,1,,,,,,,,,,,,,,,0,,,79,0
26040,note_off,120,0,2,,,,,,,,,,,,,,,1,,,74,0
26040,note_off,0,0,2,,,,,,,,,,,,,,,1,,,71,0
26040,note_off,0,0,4,,,,,,,,,,,,,,,3,,,43,0
26040,note_off,120,0,4,,,,,,,,,,,,,,,3,,,55,0
26880,note_on,840,0,4,,,,,,,,,,,,,,,3,,,50,49
26880,note_on,0,0,4,,,,,,,,,,,,,,,3,,,62,49
26880,note_on,840,0,1,,,,,,,,,,,,,,,0,,,83,46
26880,note_on,0,0,2,,,,,,,,,,,,,,,1,,,79,46
26880,note_on,0,0,2,,,,,,,,,,,,,,,1,,,71,46
26880,note_on,840,0,2,,,,,,,,,,,,,,,1,,,74,46
27000,note_off,120,0,4,,,,,,,,,,,,,,,3,,,50,0
27000,note_off,0,0,2,,,,,,,,,,,,,,,1,,,79,0
27000,note_off,120,0,2,,,,,,,,,,,,,,,1,,,74,0
27000,note_off,0,0,4,,,,,,,,,,,,,,,3,,,62,0
27000,note_off,120,0,1,,,,,,,,,,,,,,,0,,,83,0
27000,note_off,0,0,2,,,,,,,,,,,,,,,1,,,71,0
27360,note_on,360,0,1,,,,,,,,,,,,,,,0,,,81,43
27360,note_on,360,0,4,,,,,,,,,,,,,,,3,,,38,47
27360,note_on,0,0,4,,,,,,,,,,,,,,,3,,,50,47
27360,note_on,0,0,2,,,,,,,,,,,,,,,1,,,69,43
27360,note_on,0,0,2,,,,,,,,,,,,,,,1,,,74,43
27360,note_on,360,0,2,,,,,,,,,,,,,,,1,,,78,43
27480,note_off,120,0,4,,,,,,,,,,,,,,,3,,,38,0
27480,note_off,0,0,2,,,,,,,,,,,,,,,1,,,69,0
27480,note_off,0,0,2,,,,,,,,,,,,,,,1,,,74,0
27480,note_off,120,0,2,,,,,,,,,,,,,,,1,,,78,0
27480,note_off,120,0,1,,,,,,,,,,,,,,,0,,,81,0
27480,note_off,0,0,4,,,,,,,,,,,,,,,3,,,50,0
27840,note_on,0,0,4,,,,,,,,,,,,,,,3,,,55,45
27840,note_on,360,0,4,,,,,,,,,,,,,,,3,,,43,45
27840,note_on,0,0,2,,,,,,,,,,,,,,,1,,,71,41
27840,set_tempo,1920,1,0,,,,,,,461538,,,,,,,,,,,,
27840,note_on,0,0,2,,,,,,,,,,,,,,,1,,,79,41
27840,note_on,360,0,2,,,,,,,,,,,,,,,1,,,74,41
27840,note_on,360,0,1,,,,,,,,,,,,,,,0,,,83,41
27960,note_off,120,0,2,,,,,,,,,,,,,,,1,,,74,0
27960,note_off,0,0,2,,,,,,,,,,,,,,,1,,,79,0
27960,note_off,0,0,2,,,,,,,,,,,,,,,1,,,71,0
27960,note_off,120,0,1,,,,,,,,,,,,,,,0,,,83,0
27960,note_off,120,0,4,,,,,,,,,,,,,,,3,,,43,0
27960,note_off,0,0,4,,,,,,,,,,,,,,,3,,,55,0
28800,note_on,0,0,4,,,,,,,,,,,,,,,3,,,50,42
28800,note_on,0,0,2,,,,,,,,,,,,,,,1,,,74,36
28800,note_on,0,0,2,,,,,,,,,,,,,,,1,,,83,36
28800,note_on,840,0,2,,,,,,,,,,,,,,,1,,,79,36
28800,note_on,840,0,4,,,,,,,,,,,,,,,3,,,62,42
28800,note_on,840,0,1,,,,,,,,,,,,,,,0,,,86,36
28920,note_off,0,0,2,,,,,,,,,,,,,,,1,,,83,0
28920,note_off,120,0,2,,,,,,,,,,,,,,,1,,,79,0
28920,note_off,0,0,2,,,,,,,,,,,,,,,1,,,74,0
28920,note_off,120,0,4,,,,,,,,,,,,,,,3,,,62,0
28920,note_off,0,0,4,,,,,,,,,,,,,,,3,,,50,0
28920,note_off,120,0,1,,,,,,,,,,,,,,,0,,,86,0
29280,note_on,360,0,1,,,,,,,,,,,,,,,0,,,86,34
29280,note_on,360,0,2,,,,,,,,,,,,,,,1,,,78,34
29280,note_on,0,0,2,,,,,,,,,,,,,,,1,,,74,34
29280,note_on,0,0,4,,,,,,,,,,,,,,,3,,,50,40
29280,note_on,360,0,4,,,,,,,,,,,,,,,3,,,38,40
29280,note_on,0,0,2,,,,,,,,,,,,,,,1,,,81,34
29400,note_off,120,0,4,,,,,,,,,,,,,,,3,,,38,0
29400,note_off,0,0,2,,,,,,,,,,,,,,,1,,,74,0
29400,note_off,0,0,2,,,,,,,,,,,,,,,1,,,81,0
29400,note_off,120,0,2,,,,,,,,,,,,,,,1,,,78,0
29400,note_off,120,0,1,,,,,,,,,,,,,,,0,,,86,0
29400,note_off,0,0,4,,,,,,,,,,,,,,,3,,,50,0
29520,set_tempo,1680,1,0,,,,,,,472440,,,,,,,,,,,,
29760,note_on,360,0,4,,,,,,,,,,,,,,,3,,,43,39
29760,note_on,0,0,4,,,,,,,,,,,,,,,3,,,55,39
29760,note_on,360,0,1,,,,,,,,,,,,,,,0,,,79,32
29880,note_off,120,0,1,,,,,,,,,,,,,,,0,,,79,0
29880,note_on,0,0,1,,,,,,,,,,,,,,,0,,,82,39
29880,note_off,120,0,4,,,,,,,,,,,,,,,3,,,43,0
29880,note_off,0,0,4,,,,,,,,,,,,,,,3,,,55,0
29910,set_tempo,390,1,0,,,,,,,434782,,,,,,,,,,,,
30000,note_on,0,0,1,,,,,,,,,,,,,,,0,,,83,39
30000,note_off,120,0,1,,,,,,,,,,,,,,,0,,,82,0
30120,note_off,120,0,1,,,,,,,,,,,,,,,0,,,83,0
30120,note_on,0,0,1,,,,,,,,,,,,,,,0,,,78,40
30240,note_off,120,0,1,,,,,,,,,,,,,,,0,,,78,0
30240,note_on,0,0,1,,,,,,,,,,,,,,,0,,,81,40
30360,note_off,120,0,1,,,,,,,,,,,,,,,0,,,81,0
30360,note_on,0,0,1,,,,,,,,,,,,,,,0,,,79,41
30480,note_on,0,0,1,,,,,,,,,,,,,,,0,,,78,42
30480,note_off,120,0,1,,,,,,,,,,,,,,,0,,,79,0
30600,note_on,0,0,1,,,,,,,,,,,,,,,0,,,76,42
30600,note_off,120,0,1,,,,,,,,,,,,,,,0,,,78,0
30720,note_on,0,0,1,,,,,,,,,,,,,,,0,,,74,43
30720,note_off,120,0,1,,,,,,,,,,,,,,,0,,,76,0
30720,note_on,840,0,4,,,,,,,,,,,,,,,3,,,62,36
30840,note_on,0,0,1,,,,,,,,,,,,,,,0,,,75,43
30840,note_off,120,0,4,,,,,,,,,,,,,,,3,,,62,0
30840,note_on,0,0,4,,,,,,,,,,,,,,,3,,,63,41
30840,note_off,120,0,1,,,,,,,,,,,,,,,0,,,74,0
30960,note_off,120,0,1,,,,,,,,,,,,,,,0,,,75,0
30960,note_on,0,0,1,,,,,,,,,,,,,,,0,,,76,44
30960,note_off,120,0,4,,,,,,,,,,,,,,,3,,,63,0
30960,note_on,0,0,4,,,,,,,,,,,,,,,3,,,64,41
31080,note_on,0,0,4,,,,,,,,,,,,,,,3,,,59,42
31080,note_off,120,0,4,,,,,,,,,,,,,,,3,,,64,0
31080,note_on,0,0,1,,,,,,,,,,,,,,,0,,,71,44
31080,note_off,120,0,1,,,,,,,,,,,,,,,0,,,76,0
31200,note_off,120,0,1,,,,,,,,,,,,,,,0,,,71,0
31200,note_on,0,0,4,,,,,,,,,,,,,,,3,,,62,42
31200,note_on,0,0,1,,,,,,,,,,,,,,,0,,,74,45
31200,note_off,120,0,4,,,,,,,,,,,,,,,3,,,59,0
31320,note_on,0,0,4,,,,,,,,,,,,,,,3,,,60,43
31320,note_off,120,0,1,,,,,,,,,,,,,,,0,,,74,0
31320,note_on,0,0,1,,,,,,,,,,,,,,,0,,,72,46
31320,note_off,120,0,4,,,,,,,,,,,,,,,3,,,62,0
31440,note_off,120,0,1,,,,,,,,,,,,,,,0,,,72,0
31440,note_on,0,0,1,,,,,,,,,,,,,,,0,,,71,46
31440,note_off,120,0,4,,,,,,,,,,,,,,,3,,,60,0
31440,note_on,0,0,4,,,,,,,,,,,,,,,3,,,59,44
31560,note_on,0,0,4,,,,,,,,,,,,,,,3,,,57,44
31560,note_off,120,0,4,,,,,,,,,,,,,,,3,,,59,0
31560,note_off,120,0,1,,,,,,,,,,,,,,,0,,,71,0
31560,note_on,0,0,1,,,,,,,,,,,,,,,0,,,69,47
31620,set_tempo,1710,1,0,,,,,,,441176,,,,,,,,,,,,
31680,control_change,120,0,4,,,,,,,,,,,,,64,0,3,,,,
31680,note_off,0,0,4,,,,,,,,,,,,,,,3,,,57,0
31680,note_on,0,0,1,,,,,,,,,,,,,,,0,,,67,47
31680,control_change,2280,0,2,,,,,,,,,,,,,64,0,1,,,,
31680,note_off,0,0,1,,,,,,,,,,,,,,,0,,,69,0
31680,control_change,120,0,1,,,,,,,,,,,,,64,0,0,,,,
31680,note_on,0,0,4,,,,,,,,,,,,,,,3,,,55,45
31792,set_tempo,172,1,0,,,,,,,434782,,,,,,,,,,,,
31800,note_off,120,0,4,,,,,,,,,,,,,,,3,,,55,0
31800,note_on,0,0,4,,,,,,,,,,,,,,,3,,,58,45
31800,note_off,120,0,1,,,,,,,,,,,,,,,0,,,67,0
31800,note_on,0,0,1,,,,,,,,,,,,,,,0,,,70,48
31920,note_on,0,0,1,,,,,,,,,,,,,,,0,,,71,48
31920,note_off,120,0,1,,,,,,,,,,,,,,,0,,,70,0
31920,note_on,0,0,4,,,,,,,,,,,,,,,3,,,59,46
31920,note_off,120,0,4,,,,,,,,,,,,,,,3,,,58,0
32040,note_off,120,0,4,,,,,,,,,,,,,,,3,,,59,0
32040,note_off,120,0,1,,,,,,,,,,,,,,,0,,,71,0
32040,note_on,0,0,1,,,,,,,,,,,,,,,0,,,66,49
32040,note_on,0,0,4,,,,,,,,,,,,,,,3,,,54,47
32160,note_on,0,0,1,,,,,,,,,,,,,,,0,,,69,50
32160,note_on,0,0,4,,,,,,,,,,,,,,,3,,,57,47
32160,note_off,120,0,1,,,,,,,,,,,,,,,0,,,66,0
32160,note_off,120,0,4,,,,,,,,,,,,,,,3,,,54,0
32280,note_on,0,0,4,,,,,,,,,,,,,,,3,,,55,48
32280,note_on,0,0,1,,,,,,,,,,,,,,,0,,,67,50
32280,note_off,120,0,1,,,,,,,,,,,,,,,0,,,69,0
32280,note_off,120,0,4,,,,,,,,,,,,,,,3,,,57,0
32400,note_off,120,0,1,,,,,,,,,,,,,,,0,,,67,0
32400,note_off,120,0,4,,,,,,,,,,,,,,,3,,,55,0
32400,note_on,0,0,1,,,,,,,,,,,,,,,0,,,66,51
32400,note_on,0,0,4,,,,,,,,,,,,,,,3,,,54,49
32520,note_off,120,0,1,,,,,,,,,,,,,,,0,,,66,0
32520,note_on,0,0,1,,,,,,,,,,,,,,,0,,,64,51
32520,note_on,0,0,4,,,,,,,,,,,,,,,3,,,52,49
32520,note_off,120,0,4,,,,,,,,,,,,,,,3,,,54,0
32640,note_off,120,0,1,,,,,,,,,,,,,,,0,,,64,0
32640,note_off,120,0,4,,,,,,,,,,,,,,,3,,,52,0
32640,note_on,0,0,4,,,,,,,,,,,,,,,3,,,50,50
32640,note_on,0,0,1,,,,,,,,,,,,,,,0,,,62,52
32760,note_off,120,0,1,,,,,,,,,,,,,,,0,,,62,0
32760,note_on,0,0,1,,,,,,,,,,,,,,,0,,,63,52
32760,note_off,120,0,4,,,,,,,,,,,,,,,3,,,50,0
32760,note_on,0,0,4,,,,,,,,,,,,,,,3,,,51,50
32880,note_on,0,0,4,,,,,,,,,,,,,,,3,,,52,51
32880,note_off,120,0,4,,,,,,,,,,,,,,,3,,,51,0
32880,note_on,0,0,1,,,,,,,,,,,,,,,0,,,64,53
32880,note_off,120,0,1,,,,,,,,,,,,,,,0,,,63,0
33000,note_off,120,0,4,,,,,,,,,,,,,,,3,,,52,0
33000,note_on,0,0,4,,,,,,,,,,,,,,,3,,,47,52
33000,note_on,0,0,1,,,,,,,,,,,,,,,0,,,59,54
33000,note_off,120,0,1,,,,,,,,,,,,,,,0,,,64,0
33120,note_on,0,0,4,,,,,,,,,,,,,,,3,,,50,52
33120,note_on,0,0,1,,,,,,,,,,,,,,,0,,,62,54
33120,note_off,120,0,1,,,,,,,,,,,,,,,0,,,59,0
33120,note_off,120,0,4,,,,,,,,,,,,,,,3,,,47,0
33240,note_on,0,0,1,,,,,,,,,,,,,,,0,,,60,55
33240,note_off,120,0,1,,,,,,,,,,,,,,,0,,,62,0
33240,note_on,0,0,4,,,,,,,,,,,,,,,3,,,48,53
33240,note_off,120,0,4,,,,,,,,,,,,,,,3,,,50,0
33360,note_on,0,0,1,,,,,,,,,,,,,,,0,,,59,55
33360,note_off,120,0,1,,,,,,,,,,,,,,,0,,,60,0
33360,note_on,0,0,4,,,,,,,,,,,,,,,3,,,47,53
33360,note_off,120,0,4,,,,,,,,,,,,,,,3,,,48,0
33480,note_on,0,0,1,,,,,,,,,,,,,,,0,,,57,56
33480,note_off,120,0,1,,,,,,,,,,,,,,,0,,,59,0
33480,note_off,120,0,4,,,,,,,,,,,,,,,3,,,47,0
33480,note_on,0,0,4,,,,,,,,,,,,,,,3,,,45,54
33540,set_tempo,1748,1,0,,,,,,,441176,,,,,,,,,,,,
33600,note_on,0,0,1,,,,,,,,,,,,,,,0,,,55,56
33600,note_off,120,0,1,,,,,,,,,,,,,,,0,,,57,0
33600,note_on,0,0,4,,,,,,,,,,,,,,,3,,,43,55
33600,note_off,120,0,4,,,,,,,,,,,,,,,3,,,45,0
33705,set_tempo,165,1,0,,,,,,,434782,,,,,,,,,,,,
33720,note_on,0,0,4,,,,,,,,,,,,,,,3,,,46,55
33720,note_off,120,0,4,,,,,,,,,,,,,,,3,,,43,0
33720,note_off,120,0,1,,,,,,,,,,,,,,,0,,,55,0
33720,note_on,0,0,1,,,,,,,,,,,,,,,0,,,58,57
33840,note_off,120,0,4,,,,,,,,,,,,,,,3,,,46,0
33840,note_on,0,0,4,,,,,,,,,,,,,,,3,,,47,56
33840,note_off,120,0,1,,,,,,,,,,,,,,,0,,,58,0
33840,note_on,0,0,1,,,,,,,,,,,,,,,0,,,59,58
33960,note_off,120,0,1,,,,,,,,,,,,,,,0,,,59,0
33960,note_on,0,0,1,,,,,,,,,,,,,,,0,,,54,58
33960,note_on,0,0,4,,,,,,,,,,,,,,,3,,,42,57
33960,note_off,120,0,4,,,,,,,,,,,,,,,3,,,47,0
34080,note_off,120,0,1,,,,,,,,,,,,,,,0,,,54,0
34080,note_on,0,0,1,,,,,,,,,,,,,,,0,,,57,59
34080,note_off,120,0,4,,,,,,,,,,,,,,,3,,,42,0
34080,note_on,0,0,4,,,,,,,,,,,,,,,3,,,45,57
34200,note_off,120,0,4,,,,,,,,,,,,,,,3,,,45,0
34200,note_on,0,0,4,,,,,,,,,,,,,,,3,,,43,58
34200,note_off,120,0,1,,,,,,,,,,,,,,,0,,,57,0
34200,note_on,0,0,1,,,,,,,,,,,,,,,0,,,55,59
34320,note_off,120,0,4,,,,,,,,,,,,,,,3,,,43,0
34320,note_on,0,0,4,,,,,,,,,,,,,,,3,,,42,58
34320,note_off,120,0,1,,,,,,,,,,,,,,,0,,,55,0
34320,note_on,0,0,1,,,,,,,,,,,,,,,0,,,54,60
34440,note_off,120,0,1,,,,,,,,,,,,,,,0,,,54,0
34440,note_off,120,0,4,,,,,,,,,,,,,,,3,,,42,0
34440,note_on,0,0,4,,,,,,,,,,,,,,,3,,,40,59
34440,note_on,0,0,1,,,,,,,,,,,,,,,0,,,52,60
34560,note_off,120,0,1,,,,,,,,,,,,,,,0,,,52,0
34560,note_on,0,0,1,,,,,,,,,,,,,,,0,,,50,61
34560,note_off,120,0,4,,,,,,,,,,,,,,,3,,,40,0
34560,note_on,0,0,4,,,,,,,,,,,,,,,3,,,38,60
34680,note_off,120,0,1,,,,,,,,,,,,,,,0,,,50,0
34680,note_on,0,0,1,,,,,,,,,,,,,,,0,,,51,62
34680,note_off,120,0,4,,,,,,,,,,,,,,,3,,,38,0
34680,note_on,0,0,4,,,,,,,,,,,,,,,3,,,39,60
34800,note_off,120,0,4,,,,,,,,,,,,,,,3,,,39,0
34800,note_off,120,0,1,,,,,,,,,,,,,,,0,,,51,0
34800,note_on,0,0,1,,,,,,,,,,,,,,,0,,,52,62
34800,note_on,0,0,4,,,,,,,,,,,,,,,3,,,40,61
34920,note_off,120,0,4,,,,,,,,,,,,,,,3,,,40,0
34920,note_off,120,0,1,,,,,,,,,,,,,,,0,,,52,0
34920,note_on,0,0,1,,,,,,,,,,,,,,,0,,,47,63
34920,note_on,0,0,4,,,,,,,,,,,,,,,3,,,35,61
35040,note_on,0,0,4,,,,,,,,,,,,,,,3,,,38,62
35040,note_off,120,0,4,,,,,,,,,,,,,,,3,,,35,0
35040,note_off,120,0,1,,,,,,,,,,,,,,,0,,,47,0
35040,note_on,0,0,1,,,,,,,,,,,,,,,0,,,50,63
35160,note_on,0,0,4,,,,,,,,,,,,,,,3,,,36,63
35160,note_off,120,0,1,,,,,,,,,,,,,,,0,,,50,0
35160,note_on,0,0,1,,,,,,,,,,,,,,,0,,,48,64
35160,note_off,120,0,4,,,,,,,,,,,,,,,3,,,38,0
35280,note_off,120,0,4,,,,,,,,,,,,,,,3,,,36,0
35280,note_on,0,0,4,,,,,,,,,,,,,,,3,,,35,63
35280,note_off,120,0,1,,,,,,,,,,,,,,,0,,,48,0
35280,note_on,0,0,1,,,,,,,,,,,,,,,0,,,47,64
35400,note_off,120,0,4,,,,,,,,,,,,,,,3,,,35,0
35400,note_off,120,0,1,,,,,,,,,,,,,,,0,,,47,0
35400,note_on,0,0,1,,,,,,,,,,,,,,,0,,,45,65
35400,note_on,0,0,4,,,,,,,,,,,,,,,3,,,33,64
35460,set_tempo,1755,1,0,,,,,,,441176,,,,,,,,,,,,
35520,note_on,0,0,1,,,,,,,,,,,,,,,0,,,43,66
35520,note_off,120,0,4,,,,,,,,,,,,,,,3,,,33,0
35520,note_on,0,0,4,,,,,,,,,,,,,,,3,,,31,65
35520,note_off,120,0,1,,,,,,,,,,,,,,,0,,,45,0
35520,set_tempo,60,1,0,,,,,,,434782,,,,,,,,,,,,
35640,note_on,0,0,1,,,,,,,,,,,,,,,0,,,42,66
35640,note_off,120,0,1,,,,,,,,,,,,,,,0,,,43,0
35640,note_off,120,0,4,,,,,,,,,,,,,,,3,,,31,0
35640,note_on,0,0,4,,,,,,,,,,,,,,,3,,,30,65
35760,note_on,0,0,1,,,,,,,,,,,,,,,0,,,43,67
35760,note_off,120,0,1,,,,,,,,,,,,,,,0,,,42,0
35760,note_off,120,0,4,,,,,,,,,,,,,,,3,,,30,0
35760,note_on,0,0,4,,,,,,,,,,,,,,,3,,,31,66
35880,note_on,0,0,1,,,,,,,,,,,,,,,0,,,45,67
35880,note_off,120,0,1,,,,,,,,,,,,,,,0,,,43,0
35880,note_off,120,0,4,,,,,,,,,,,,,,,3,,,31,0
35880,note_on,0,0,4,,,,,,,,,,,,,,,3,,,33,66
36000,note_on,0,0,1,,,,,,,,,,,,,,,0,,,46,68
36000,note_off,120,0,1,,,,,,,,,,,,,,,0,,,45,0
36000,note_off,120,0,4,,,,,,,,,,,,,,,3,,,33,0
36000,note_on,0,0,4,,,,,,,,,,,,,,,3,,,34,67
36120,note_off,120,0,1,,,,,,,,,,,,,,,0,,,46,0
36120,note_on,0,0,1,,,,,,,,,,,,,,,0,,,47,68
36120,note_off,120,0,4,,,,,,,,,,,,,,,3,,,34,0
36120,note_on,0,0,4,,,,,,,,,,,,,,,3,,,35,68
36240,note_on,0,0,1,,,,,,,,,,,,,,,0,,,48,69
36240,note_off,120,0,1,,,,,,,,,,,,,,,0,,,47,0
36240,note_on,0,0,4,,,,,,,,,,,,,,,3,,,36,68
36240,note_off,120,0,4,,,,,,,,,,,,,,,3,,,35,0
36360,note_on,0,0,1,,,,,,,,,,,,,,,0,,,49,70
36360,note_off,120,0,1,,,,,,,,,,,,,,,0,,,48,0
36360,note_on,0,0,4,,,,,,,,,,,,,,,3,,,37,69
36360,note_off,120,0,4,,,,,,,,,,,,,,,3,,,36,0
36480,note_on,0,0,4,,,,,,,,,,,,,,,3,,,38,69
36480,note_off,120,0,4,,,,,,,,,,,,,,,3,,,37,0
36480,note_on,0,0,1,,,,,,,,,,,,,,,0,,,50,70
36480,note_off,120,0,1,,,,,,,,,,,,,,,0,,,49,0
36600,note_on,0,0,1,,,,,,,,,,,,,,,0,,,49,71
36600,note_off,120,0,4,,,,,,,,,,,,,,,3,,,38,0
36600,note_off,120,0,1,,,,,,,,,,,,,,,0,,,50,0
36600,note_on,0,0,4,,,,,,,,,,,,,,,3,,,37,70
36720,note_off,120,0,1,,,,,,,,,,,,,,,0,,,49,0
36720,note_off,120,0,4,,,,,,,,,,,,,,,3,,,37,0
36720,note_on,0,0,4,,,,,,,,,,,,,,,3,,,38,71
36720,note_on,0,0,1,,,,,,,,,,,,,,,0,,,50,71
36840,note_on,0,0,4,,,,,,,,,,,,,,,3,,,40,71
36840,note_off,120,0,4,,,,,,,,,,,,,,,3,,,38,0
36840,note_on,0,0,1,,,,,,,,,,,,,,,0,,,52,72
36840,note_off,120,0,1,,,,,,,,,,,,,,,0,,,50,0
36960,note_on,0,0,1,,,,,,,,,,,,,,,0,,,54,72
36960,note_off,120,0,4,,,,,,,,,,,,,,,3,,,40,0
36960,note_off,120,0,1,,,,,,,,,,,,,,,0,,,52,0
36960,note_on,0,0,4,,,,,,,,,,,,,,,3,,,42,72
37080,note_on,0,0,1,,,,,,,,,,,,,,,0,,,50,73
37080,note_off,120,0,1,,,,,,,,,,,,,,,0,,,54,0
37080,note_on,0,0,4,,,,,,,,,,,,,,,3,,,38,73
37080,note_off,120,0,4,,,,,,,,,,,,,,,3,,,42,0
37200,note_off,120,0,4,,,,,,,,,,,,,,,3,,,38,0
37200,note_on,0,0,4,,,,,,,,,,,,,,,3,,,40,73
37200,note_off,120,0,1,,,,,,,,,,,,,,,0,,,50,0
37200,note_on,0,0,1,,,,,,,,,,,,,,,0,,,52,73
37320,note_off,120,0,4,,,,,,,,,,,,,,,3,,,40,0
37320,note_off,120,0,1,,,,,,,,,,,,,,,0,,,52,0
37320,note_on,0,0,1,,,,,,,,,,,,,,,0,,,54,74
37320,note_on,0,0,4,,,,,,,,,,,,,,,3,,,42,74
37380,set_tempo,1860,1,0,,,,,,,441176,,,,,,,,,,,,
37440,note_on,0,0,4,,,,,,,,,,,,,,,3,,,43,74
37440,note_off,120,0,1,,,,,,,,,,,,,,,0,,,54,0
37440,note_on,0,0,1,,,,,,,,,,,,,,,0,,,55,75
37440,note_off,120,0,4,,,,,,,,,,,,,,,3,,,42,0
37440,set_tempo,60,1,0,,,,,,,434782,,,,,,,,,,,,
37560,note_off,120,0,1,,,,,,,,,,,,,,,0,,,55,0
37560,note_off,120,0,4,,,,,,,,,,,,,,,3,,,43,0
37560,note_on,0,0,4,,,,,,,,,,,,,,,3,,,42,75
37560,note_on,0,0,1,,,,,,,,,,,,,,,0,,,54,75
37680,note_off,120,0,1,,,,,,,,,,,,,,,0,,,54,0
37680,note_on,0,0,1,,,,,,,,,,,,,,,0,,,55,76
37680,note_on,0,0,4,,,,,,,,,,,,,,,3,,,43,76
37680,note_off,120,0,4,,,,,,,,,,,,,,,3,,,42,0
37800,note_off,120,0,4,,,,,,,,,,,,,,,3,,,43,0
37800,note_on,0,0,1,,,,,,,,,,,,,,,0,,,57,76
37800,note_off,120,0,1,,,,,,,,,,,,,,,0,,,55,0
37800,note_on,0,0,4,,,,,,,,,,,,,,,3,,,45,76
37920,note_on,0,0,1,,,,,,,,,,,,,,,0,,,58,77
37920,note_off,120,0,1,,,,,,,,,,,,,,,0,,,57,0
37920,note_off,120,0,4,,,,,,,,,,,,,,,3,,,45,0
37920,note_on,0,0,4,,,,,,,,,,,,,,,3,,,46,77
38040,note_on,0,0,1,,,,,,,,,,,,,,,0,,,59,77
38040,note_off,120,0,4,,,,,,,,,,,,,,,3,,,46,0
38040,note_on,0,0,4,,,,,,,,,,,,,,,3,,,47,77
38040,note_off,120,0,1,,,,,,,,,,,,,,,0,,,58,0
38160,note_off,120,0,1,,,,,,,,,,,,,,,0,,,59,0
38160,note_on,0,0,1,,,,,,,,,,,,,,,0,,,60,78
38160,note_off,120,0,4,,,,,,,,,,,,,,,3,,,47,0
38160,note_on,0,0,4,,,,,,,,,,,,,,,3,,,48,78
38280,note_off,120,0,1,,,,,,,,,,,,,,,0,,,60,0
38280,set_tempo,840,1,0,,,,,,,441176,,,,,,,,,,,,
38280,note_off,120,0,4,,,,,,,,,,,,,,,3,,,48,0
38280,note_on,0,0,1,,,,,,,,,,,,,,,0,,,61,80
38280,note_on,0,0,4,,,,,,,,,,,,,,,3,,,49,80
38400,note_on,0,0,4,,,,,,,,,,,,,,,3,,,50,80
38400,note_on,0,0,1,,,,,,,,,,,,,,,0,,,62,80
38400,note_off,120,0,4,,,,,,,,,,,,,,,3,,,49,0
38400,note_off,120,0,1,,,,,,,,,,,,,,,0,,,61,0
38478,note_off,78,0,4,,,,,,,,,,,,,,,3,,,50,0
38478,note_off,78,0,1,,,,,,,,,,,,,,,0,,,62,0
38520,control_change,42,0,1,,,,,,,,,,,,,64,127,0,,,,
38520,note_on,0,0,1,,,,,,,,,,,,,,,0,,,62,80
38520,set_tempo,240,1,0,,,,,,,434782,,,,,,,,,,,,
38520,control_change,42,0,4,,,,,,,,,,,,,64,127,3,,,,
38520,note_on,0,0,4,,,,,,,,,,,,,,,3,,,50,80
38640,note_off,120,0,4,,,,,,,,,,,,,,,3,,,50,0
38640,note_on,0,0,4,,,,,,,,,,,,,,,3,,,54,81
38640,note_off,120,0,1,,,,,,,,,,,,,,,0,,,62,0
38640,note_on,0,0,1,,,,,,,,,,,,,,,0,,,66,81
38760,note_off,120,0,1,,,,,,,,,,,,,,,0,,,66,0
38760,note_on,0,0,1,,,,,,,,,,,,,,,0,,,69,81
38760,note_off,120,0,4,,,,,,,,,,,,,,,3,,,54,0
38760,note_on,0,0,4,,,,,,,,,,,,,,,3,,,57,81
38880,note_on,0,0,4,,,,,,,,,,,,,,,3,,,62,81
38880,note_off,120,0,4,,,,,,,,,,,,,,,3,,,57,0
38880,note_off,120,0,1,,,,,,,,,,,,,,,0,,,69,0
38880,note_on,0,0,1,,,,,,,,,,,,,,,0,,,74,82
38958,note_off,78,0,4,,,,,,,,,,,,,,,3,,,62,0
38958,note_off,78,0,1,,,,,,,,,,,,,,,0,,,74,0
39000,note_on,42,0,1,,,,,,,,,,,,,,,0,,,74,82
39000,note_on,42,0,4,,,,,,,,,,,,,,,3,,,62,82
39120,note_off,120,0,1,,,,,,,,,,,,,,,0,,,74,0
39120,note_on,0,0,1,,,,,,,,,,,,,,,0,,,78,82
39120,note_on,0,0,4,,,,,,,,,,,,,,,3,,,66,82
39120,note_off,120,0,4,,,,,,,,,,,,,,,3,,,62,0
39240,note_on,0,0,1,,,,,,,,,,,,,,,0,,,81,83
39240,note_on,0,0,4,,,,,,,,,,,,,,,3,,,69,83
39240,set_tempo,720,1,0,,,,,,,441176,,,,,,,,,,,,
39240,note_off,120,0,4,,,,,,,,,,,,,,,3,,,66,0
39240,note_off,120,0,1,,,,,,,,,,,,,,,0,,,78,0
39360,note_off,120,0,4,,,,,,,,,,,,,,,3,,,69,0
39360,note_off,120,0,1,,,,,,,,,,,,,,,0,,,81,0
39360,note_on,0,0,4,,,,,,,,,,,,,,,3,,,74,92
39360,note_on,0,0,1,,,,,,,,,,,,,,,0,,,86,93
39438,note_off,78,0,4,,,,,,,,,,,,,,,3,,,74,0
39438,note_off,78,0,1,,,,,,,,,,,,,,,0,,,86,0
39465,set_tempo,225,1,0,,,,,,,434782,,,,,,,,,,,,
39480,note_on,42,0,4,,,,,,,,,,,,,,,3,,,74,83
39480,note_on,42,0,1,,,,,,,,,,,,,,,0,,,86,83
39600,note_on,0,0,1,,,,,,,,,,,,,,,0,,,81,84
39600,note_on,0,0,4,,,,,,,,,,,,,,,3,,,69,84
39600,note_off,120,0,4,,,,,,,,,,,,,,,3,,,74,0
39600,note_off,120,0,1,,,,,,,,,,,,,,,0,,,86,0
39720,note_on,0,0,1,,,,,,,,,,,,,,,0,,,78,84
39720,note_on,0,0,4,,,,,,,,,,,,,,,3,,,66,84
39720,note_off,120,0,1,,,,,,,,,,,,,,,0,,,81,0
39720,note_off,120,0,4,,,,,,,,,,,,,,,3,,,69,0
39840,note_on,0,0,4,,,,,,,,,,,,,,,3,,,62,84
39840,note_off,120,0,4,,,,,,,,,,,,,,,3,,,66,0
39840,note_on,0,0,1,,,,,,,,,,,,,,,0,,,74,85
39840,note_off,120,0,1,,,,,,,,,,,,,,,0,,,78,0
39918,note_off,78,0,4,,,,,,,,,,,,,,,3,,,62,0
39918,note_off,78,0,1,,,,,,,,,,,,,,,0,,,74,0
39960,note_on,42,0,4,,,,,,,,,,,,,,,3,,,62,85
39960,note_on,42,0,1,,,,,,,,,,,,,,,0,,,74,85
40080,note_off,120,0,4,,,,,,,,,,,,,,,3,,,62,0
40080,note_off,120,0,1,,,,,,,,,,,,,,,0,,,74,0
40080,note_on,0,0,1,,,,,,,,,,,,,,,0,,,69,85
40080,note_on,0,0,4,,,,,,,,,,,,,,,3,,,57,85
40200,note_off,120,0,1,,,,,,,,,,,,,,,0,,,69,0
40200,note_on,0,0,1,,,,,,,,,,,,,,,0,,,66,86
40200,note_off,120,0,4,,,,,,,,,,,,,,,3,,,57,0
40200,set_tempo,735,1,0,,,,,,,447761,,,,,,,,,,,,
40200,note_on,0,0,4,,,,,,,,,,,,,,,3,,,54,86
40320,note_off,120,0,4,,,,,,,,,,,,,,,3,,,54,0
40320,note_on,0,0,4,,,,,,,,,,,,,,,3,,,50,86
40320,note_off,120,0,1,,,,,,,,,,,,,,,0,,,66,0
40320,note_on,0,0,1,,,,,,,,,,,,,,,0,,,62,86
40380,control_change,60,0,1,,,,,,,,,,,,,64,0,0,,,,
40380,control_change,60,0,4,,,,,,,,,,,,,64,0,3,,,,
40398,note_off,18,0,1,,,,,,,,,,,,,,,0,,,62,0
40398,note_off,18,0,4,,,,,,,,,,,,,,,3,,,50,0
40440,note_on,42,0,4,,,,,,,,,,,,,,,3,,,50,86
40440,set_tempo,240,1,0,,,,,,,434782,,,,,,,,,,,,
40440,note_on,42,0,1,,,,,,,,,,,,,,,0,,,62,86
40440,control_change,0,0,1,,,,,,,,,,,,,64,127,0,,,,
40440,control_change,0,0,4,,,,,,,,,,,,,64,127,3,,,,
40560,note_off,120,0,4,,,,,,,,,,,,,,,3,,,50,0
40560,note_on,0,0,1,,,,,,,,,,,,,,,0,,,66,87
40560,note_off,120,0,1,,,,,,,,,,,,,,,0,,,62,0
40560,note_on,0,0,4,,,,,,,,,,,,,,,3,,,54,87
40680,note_on,0,0,1,,,,,,,,,,,,,,,0,,,69,87
40680,note_off,120,0,1,,,,,,,,,,,,,,,0,,,66,0
40680,note_on,0,0,4,,,,,,,,,,,,,,,3,,,57,87
40680,note_off,120,0,4,,,,,,,,,,,,,,,3,,,54,0
40800,note_on,0,0,4,,,,,,,,,,,,,,,3,,,62,88
40800,note_on,0,0,1,,,,,,,,,,,,,,,0,,,74,88
40800,note_off,120,0,1,,,,,,,,,,,,,,,0,,,69,0
40800,note_off,120,0,4,,,,,,,,,,,,,,,3,,,57,0
40878,note_off,78,0,4,,,,,,,,,,,,,,,3,,,62,0
40878,note_off,78,0,1,,,,,,,,,,,,,,,0,,,74,0
40920,note_on,42,0,1,,,,,,,,,,,,,,,0,,,74,88
40920,note_on,42,0,4,,,,,,,,,,,,,,,3,,,62,88
41040,note_on,0,0,1,,,,,,,,,,,,,,,0,,,78,88
41040,note_off,120,0,1,,,,,,,,,,,,,,,0,,,74,0
41040,note_off,120,0,4,,,,,,,,,,,,,,,3,,,62,0
41040,note_on,0,0,4,,,,,,,,,,,,,,,3,,,66,88
41160,note_off,120,0,1,,,,,,,,,,,,,,,0,,,78,0
41160,note_off,120,0,4,,,,,,,,,,,,,,,3,,,66,0
41160,note_on,0,0,4,,,,,,,,,,,,,,,3,,,69,89
41160,note_on,0,0,1,,,,,,,,,,,,,,,0,,,81,89
41160,set_tempo,720,1,0,,,,,,,441176,,,,,,,,,,,,
41280,note_off,120,0,1,,,,,,,,,,,,,,,0,,,81,0
41280,note_on,0,0,1,,,,,,,,,,,,,,,0,,,86,96
41280,note_on,0,0,4,,,,,,,,,,,,,,,3,,,74,99
41280,note_off,120,0,4,,,,,,,,,,,,,,,3,,,69,0
41358,note_off,78,0,1,,,,,,,,,,,,,,,0,,,86,0
41358,note_off,78,0,4,,,,,,,,,,,,,,,3,,,74,0
41370,set_tempo,210,1,0,,,,,,,434782,,,,,,,,,,,,
41400,note_on,42,0,4,,,,,,,,,,,,,,,3,,,74,89
41400,note_on,42,0,1,,,,,,,,,,,,,,,0,,,86,89
41520,note_on,0,0,4,,,,,,,,,,,,,,,3,,,69,90
41520,note_off,120,0,4,,,,,,,,,,,,,,,3,,,74,0
41520,note_on,0,0,1,,,,,,,,,,,,,,,0,,,81,90
41520,note_off,120,0,1,,,,,,,,,,,,,,,0,,,86,0
41640,note_on,0,0,4,,,,,,,,,,,,,,,3,,,66,90
41640,note_off,120,0,4,,,,,,,,,,,,,,,3,,,69,0
41640,note_on,0,0,1,,,,,,,,,,,,,,,0,,,78,90
41640,note_off,120,0,1,,,,,,,,,,,,,,,0,,,81,0
41760,note_off,120,0,4,,,,,,,,,,,,,,,3,,,66,0
41760,note_on,0,0,1,,,,,,,,,,,,,,,0,,,74,91
41760,note_off,120,0,1,,,,,,,,,,,,,,,0,,,78,0
41760,note_on,0,0,4,,,,,,,,,,,,,,,3,,,62,91
41838,note_off,78,0,4,,,,,,,,,,,,,,,3,,,62,0
41838,note_off,78,0,1,,,,,,,,,,,,,,,0,,,74,0
41880,note_on,42,0,1,,,,,,,,,,,,,,,0,,,74,91
41880,note_on,42,0,4,,,,,,,,,,,,,,,3,,,62,91
42000,note_on,0,0,4,,,,,,,,,,,,,,,3,,,57,91
42000,note_off,120,0,4,,,,,,,,,,,,,,,3,,,62,0
42000,note_off,120,0,1,,,,,,,,,,,,,,,0,,,74,0
42000,note_on,0,0,1,,,,,,,,,,,,,,,0,,,69,91
42120,set_tempo,750,1,0,,,,,,,441176,,,,,,,,,,,,
42120,note_on,0,0,4,,,,,,,,,,,,,,,3,,,54,92
42120,note_off,120,0,4,,,,,,,,,,,,,,,3,,,57,0
42120,note_off,120,0,1,,,,,,,,,,,,,,,0,,,69,0
42120,note_on,0,0,1,,,,,,,,,,,,,,,0,,,66,92
42240,note_off,120,0,1,,,,,,,,,,,,,,,0,,,66,0
42240,note_on,0,0,4,,,,,,,,,,,,,,,3,,,50,92
42240,note_off,120,0,4,,,,,,,,,,,,,,,3,,,54,0
42240,note_on,0,0,1,,,,,,,,,,,,,,,0,,,62,92
42318,note_off,78,0,1,,,,,,,,,,,,,,,0,,,62,0
42318,note_off,78,0,4,,,,,,,,,,,,,,,3,,,50,0
42360,note_on,42,0,1,,,,,,,,,,,,,,,0,,,74,92
42360,note_on,42,0,4,,,,,,,,,,,,,,,3,,,62,92
42360,set_tempo,240,1,0,,,,,,,434782,,,,,,,,,,,,
42480,note_off,120,0,1,,,,,,,,,,,,,,,0,,,74,0
42480,note_off,120,0,4,,,,,,,,,,,,,,,3,,,62,0
42480,note_on,0,0,4,,,,,,,,,,,,,,,3,,,57,93
42480,note_on,0,0,1,,,,,,,,,,,,,,,0,,,69,93
42600,note_off,120,0,4,,,,,,,,,,,,,,,3,,,57,0
42600,note_on,0,0,4,,,,,,,,,,,,,,,3,,,54,93
42600,set_tempo,240,1,0,,,,,,,441176,,,,,,,,,,,,
42600,note_off,120,0,1,,,,,,,,,,,,,,,0,,,69,0
42600,note_on,0,0,1,,,,,,,,,,,,,,,0,,,66,93
42720,note_off,120,0,1,,,,,,,,,,,,,,,0,,,66,0
42720,note_off,120,0,4,,,,,,,,,,,,,,,3,,,54,0
42720,note_on,0,0,4,,,,,,,,,,,,,,,3,,,50,94
42720,note_on,0,0,1,,,,,,,,,,,,,,,0,,,62,94
42798,note_off,78,0,4,,,,,,,,,,,,,,,3,,,50,0
42798,note_off,78,0,1,,,,,,,,,,,,,,,0,,,62,0
42840,note_on,42,0,1,,,,,,,,,,,,,,,0,,,62,94
42840,note_on,42,0,4,,,,,,,,,,,,,,,3,,,50,94
42960,note_off,120,0,4,,,,,,,,,,,,,,,3,,,50,0
42960,note_off,120,0,1,,,,,,,,,,,,,,,0,,,62,0
42960,note_on,0,0,1,,,,,,,,,,,,,,,0,,,57,94
42960,note_on,0,0,4,,,,,,,,,,,,,,,3,,,45,94
42960,set_tempo,360,1,0,,,,,,,447761,,,,,,,,,,,,
43080,note_on,0,0,4,,,,,,,,,,,,,,,3,,,42,95
43080,note_on,0,0,1,,,,,,,,,,,,,,,0,,,54,95
43080,note_off,120,0,1,,,,,,,,,,,,,,,0,,,57,0
43080,set_tempo,120,1,0,,,,,,,508474,,,,,,,,,,,,
43080,note_off,120,0,4,,,,,,,,,,,,,,,3,,,45,0
43200,note_off,120,0,4,,,,,,,,,,,,,,,3,,,42,0
43200,set_tempo,120,1,0,,,,,,,1935483,,,,,,,,,,,,
43200,note_off,120,0,1,,,,,,,,,,,,,,,0,,,54,0
43200,note_on,0,0,1,,,,,,,,,,,,,,,0,,,50,103
43200,note_on,0,0,4,,,,,,,,,,,,,,,3,,,38,104
44160,note_off,960,0,1,,,,,,,,,,,,,,,0,,,50,0
44160,set_tempo,960,1,0,,,,,,,428571,,,,,,,,,,,,
44160,note_off,960,0,4,,,,,,,,,,,,,,,3,,,38,0
44640,control_change,480,0,1,,,,,,,,,,,,,64,0,0,,,,
44640,control_change,480,0,4,,,,,,,,,,,,,64,0,3,,,,
45000,set_tempo,840,1,0,,,,,,,434782,,,,,,,,,,,,
45000,note_on,360,0,1,,,,,,,,,,,,,,,0,,,79,88
45120,note_on,480,0,4,,,,,,,,,,,,,,,3,,,55,71
45120,set_tempo,120,1,0,,,,,,,428571,,,,,,,,,,,,
45120,note_on,0,0,3,,,,,,,,,,,,,,,2,,,62,71
45120,note_on,42480,0,3,,,,,,,,,,,,,,,2,,,59,71
45840,note_off,720,0,3,,,,,,,,,,,,,,,2,,,59,0
45840,note_off,840,0,1,,,,,,,,,,,,,,,0,,,79,0
45840,note_on,0,0,1,,,,,,,,,,,,,,,0,,,78,75
45840,note_off,720,0,4,,,,,,,,,,,,,,,3,,,55,0
45840,note_off,0,0,3,,,,,,,,,,,,,,,2,,,62,0
45960,note_off,120,0,1,,,,,,,,,,,,,,,0,,,78,0
45960,note_on,0,0,1,,,,,,,,,,,,,,,0,,,76,73
46080,note_off,120,0,1,,,,,,,,,,,,,,,0,,,76,0
46080,note_on,0,0,1,,,,,,,,,,,,,,,0,,,74,71
46200,note_on,0,0,1,,,,,,,,,,,,,,,0,,,75,69
46200,note_off,120,0,1,,,,,,,,,,,,,,,0,,,74,0
46320,note_on,0,0,1,,,,,,,,,,,,,,,0,,,76,68
46320,note_off,120,0,1,,,,,,,,,,,,,,,0,,,75,0
46440,note_off,120,0,1,,,,,,,,,,,,,,,0,,,76,0
46440,note_on,0,0,1,,,,,,,,,,,,,,,0,,,71,66
46560,note_off,120,0,1,,,,,,,,,,,,,,,0,,,71,0
46560,note_on,0,0,1,,,,,,,,,,,,,,,0,,,74,64
46680,note_on,0,0,1,,,,,,,,,,,,,,,0,,,72,62
46680,note_off,120,0,1,,,,,,,,,,,,,,,0,,,74,0
46800,note_on,0,0,1,,,,,,,,,,,,,,,0,,,71,60
46800,note_off,120,0,1,,,,,,,,,,,,,,,0,,,72,0
46920,note_on,0,0,1,,,,,,,,,,,,,,,0,,,69,61
46920,note_off,120,0,1,,,,,,,,,,,,,,,0,,,71,0
47040,set_tempo,1920,1,0,,,,,,,441176,,,,,,,,,,,,
47040,note_on,0,0,1,,,,,,,,,,,,,,,0,,,67,57
47040,note_off,120,0,1,,,,,,,,,,,,,,,0,,,69,0
47400,note_off,360,0,1,,,,,,,,,,,,,,,0,,,67,0
47760,set_tempo,720,1,0,,,,,,,434782,,,,,,,,,,,,
47880,note_on,0,0,1,,,,,,,,,,,,,,,0,,,67,43
47880,control_change,480,0,1,,,,,,,,,,,,,64,127,0,,,,
47880,note_on,16200,0,2,,,,,,,,,,,,,,,1,,,62,41
47880,note_on,0,0,2,,,,,,,,,,,,,,,1,,,59,41
47880,control_change,0,0,2,,,,,,,,,,,,,64,127,1,,,,
48000,note_on,2160,0,4,,,,,,,,,,,,,,,3,,,43,39
48000,note_on,0,0,4,,,,,,,,,,,,,,,3,,,55,39
48120,note_off,120,0,4,,,,,,,,,,,,,,,3,,,43,0
48120,note_off,0,0,4,,,,,,,,,,,,,,,3,,,55,0
48360,note_on,0,0,2,,,,,,,,,,,,,,,1,,,59,46
48360,note_on,0,0,2,,,,,,,,,,,,,,,1,,,62,46
48360,note_off,480,0,2,,,,,,,,,,,,,,,1,,,62,0
48360,note_off,480,0,1,,,,,,,,,,,,,,,0,,,67,0
48360,note_on,0,0,1,,,,,,,,,,,,,,,0,,,71,46
48360,note_off,0,0,2,,,,,,,,,,,,,,,1,,,59,0
48480,note_on,360,0,4,,,,,,,,,,,,,,,3,,,43,43
48480,note_on,0,0,4,,,,,,,,,,,,,,,3,,,55,43
48600,note_off,0,0,4,,,,,,,,,,,,,,,3,,,55,0
48600,note_off,120,0,4,,,,,,,,,,,,,,,3,,,43,0
48720,set_tempo,960,1,0,,,,,,,441176,,,,,,,,,,,,
48840,note_off,0,0,2,,,,,,,,,,,,,,,1,,,59,0
48840,note_on,0,0,1,,,,,,,,,,,,,,,0,,,67,42
48840,note_off,480,0,1,,,,,,,,,,,,,,,0,,,71,0
48840,note_on,0,0,2,,,,,,,,,,,,,,,1,,,62,41
48840,note_on,0,0,2,,,,,,,,,,,,,,,1,,,59,41
48840,note_off,480,0,2,,,,,,,,,,,,,,,1,,,62,0
48960,note_on,360,0,4,,,,,,,,,,,,,,,3,,,55,41
48960,note_on,0,0,4,,,,,,,,,,,,,,,3,,,43,41
49080,note_off,120,0,4,,,,,,,,,,,,,,,3,,,55,0
49080,note_off,0,0,4,,,,,,,,,,,,,,,3,,,43,0
49320,note_off,480,0,1,,,,,,,,,,,,,,,0,,,67,0
49320,note_off,480,0,2,,,,,,,,,,,,,,,1,,,59,0
49320,note_off,0,0,2,,,,,,,,,,,,,,,1,,,62,0
49440,control_change,120,0,2,,,,,,,,,,,,,64,0,1,,,,
49440,control_change,120,0,1,,,,,,,,,,,,,64,0,0,,,,
49800,note_on,0,0,2,,,,,,,,,,,,,,,1,,,59,50
49800,control_change,0,0,2,,,,,,,,,,,,,64,127,1,,,,
49800,note_on,360,0,2,,,,,,,,,,,,,,,1,,,62,50
49800,control_change,0,0,1,,,,,,,,,,,,,64,127,0,,,,
49800,set_tempo,1080,1,0,,,,,,,434782,,,,,,,,,,,,
49800,note_on,360,0,1,,,,,,,,,,,,,,,0,,,67,50
49920,note_on,840,0,4,,,,,,,,,,,,,,,3,,,43,48
49920,note_on,0,0,4,,,,,,,,,,,,,,,3,,,55,48
50040,note_off,120,0,4,,,,,,,,,,,,,,,3,,,43,0
50040,note_off,0,0,4,,,,,,,,,,,,,,,3,,,55,0
50280,note_on,0,0,1,,,,,,,,,,,,,,,0,,,74,52
50280,note_off,480,0,1,,,,,,,,,,,,,,,0,,,67,0
50280,note_on,0,0,2,,,,,,,,,,,,,,,1,,,67,52
50280,note_off,480,0,2,,,,,,,,,,,,,,,1,,,62,0
50280,note_off,0,0,2,,,,,,,,,,,,,,,1,,,59,0
50280,note_on,0,0,2,,,,,,,,,,,,,,,1,,,71,52
50280,note_on,0,0,2,,,,,,,,,,,,,,,1,,,62,52
50400,note_on,360,0,4,,,,,,,,,,,,,,,3,,,43,55
50400,note_on,0,0,4,,,,,,,,,,,,,,,3,,,55,55
50520,note_off,120,0,4,,,,,,,,,,,,,,,3,,,43,0
50520,note_off,0,0,4,,,,,,,,,,,,,,,3,,,55,0
50640,set_tempo,840,1,0,,,,,,,441176,,,,,,,,,,,,
50760,note_off,480,0,1,,,,,,,,,,,,,,,0,,,74,0
50760,note_on,0,0,1,,,,,,,,,,,,,,,0,,,67,50
50760,note_on,0,0,2,,,,,,,,,,,,,,,1,,,59,50
50760,note_off,0,0,2,,,,,,,,,,,,,,,1,,,71,0
50760,note_on,0,0,2,,,,,,,,,,,,,,,1,,,62,50
50760,note_off,480,0,2,,,,,,,,,,,,,,,1,,,62,0
50760,note_off,0,0,2,,,,,,,,,,,,,,,1,,,67,0
50880,note_on,360,0,4,,,,,,,,,,,,,,,3,,,55,50
50880,note_on,0,0,4,,,,,,,,,,,,,,,3,,,43,50
51000,note_off,0,0,4,,,,,,,,,,,,,,,3,,,43,0
51000,note_off,120,0,4,,,,,,,,,,,,,,,3,,,55,0
51240,note_off,480,0,1,,,,,,,,,,,,,,,0,,,67,0
51240,note_off,0,0,2,,,,,,,,,,,,,,,1,,,59,0
51240,note_off,480,0,2,,,,,,,,,,,,,,,1,,,62,0
51360,control_change,120,0,1,,,,,,,,,,,,,64,0,0,,,,
51360,control_change,120,0,2,,,,,,,,,,,,,64,0,1,,,,
51720,note_on,0,0,2,,,,,,,,,,,,,,,1,,,59,79
51720,set_tempo,1080,1,0,,,,,,,434782,,,,,,,,,,,,
51720,note_on,360,0,1,,,,,,,,,,,,,,,0,,,71,79
51720,control_change,0,0,1,,,,,,,,,,,,,64,127,0,,,,
51720,control_change,0,0,2,,,,,,,,,,,,,64,127,1,,,,
51720,note_on,360,0,2,,,,,,,,,,,,,,,1,,,62,79
51720,note_on,0,0,2,,,,,,,,,,,,,,,1,,,67,79
51840,note_on,0,0,4,,,,,,,,,,,,,,,3,,,55,79
51840,note_on,840,0,4,,,,,,,,,,,,,,,3,,,43,79
51960,note_off,0,0,4,,,,,,,,,,,,,,,3,,,55,0
51960,note_off,120,0,4,,,,,,,,,,,,,,,3,,,43,0
52200,note_off,480,0,1,,,,,,,,,,,,,,,0,,,71,0
52200,note_off,0,0,2,,,,,,,,,,,,,,,1,,,59,0
52200,note_off,480,0,2,,,,,,,,,,,,,,,1,,,62,0
52200,note_on,0,0,1,,,,,,,,,,,,,,,0,,,79,86
52200,note_on,0,0,2,,,,,,,,,,,,,,,1,,,71,86
52200,note_on,0,0,2,,,,,,,,,,,,,,,1,,,76,86
52200,note_on,0,0,2,,,,,,,,,,,,,,,1,,,67,86
52200,note_off,0,0,2,,,,,,,,,,,,,,,1,,,67,0
52320,note_on,360,0,4,,,,,,,,,,,,,,,3,,,52,85
52320,note_on,0,0,4,,,,,,,,,,,,,,,3,,,40,85
52440,note_off,120,0,4,,,,,,,,,,,,,,,3,,,52,0
52440,note_off,0,0,4,,,,,,,,,,,,,,,3,,,40,0
52570,set_tempo,850,1,0,,,,,,,441176,,,,,,,,,,,,
52680,note_on,0,0,2,,,,,,,,,,,,,,,1,,,73,79
52680,note_off,0,0,2,,,,,,,,,,,,,,,1,,,67,0
52680,note_off,0,0,2,,,,,,,,,,,,,,,1,,,76,0
52680,note_off,0,0,2,,,,,,,,,,,,,,,1,,,71,0
52680,note_on,0,0,2,,,,,,,,,,,,,,,1,,,66,79
52680,note_on,0,0,2,,,,,,,,,,,,,,,1,,,70,79
52680,note_on,0,0,1,,,,,,,,,,,,,,,0,,,78,79
52680,note_off,0,0,1,,,,,,,,,,,,,,,0,,,79,0
52680,control_change,480,0,1,,,,,,,,,,,,,64,0,0,,,,
52680,control_change,480,0,2,,,,,,,,,,,,,64,0,1,,,,
52800,note_on,360,0,4,,,,,,,,,,,,,,,3,,,54,79
52800,note_on,0,0,4,,,,,,,,,,,,,,,3,,,42,79
52920,note_off,0,0,4,,,,,,,,,,,,,,,3,,,42,0
52920,note_off,120,0,4,,,,,,,,,,,,,,,3,,,54,0
53160,note_off,0,0,2,,,,,,,,,,,,,,,1,,,73,0
53160,note_off,0,0,2,,,,,,,,,,,,,,,1,,,70,0
53160,note_off,480,0,2,,,,,,,,,,,,,,,1,,,66,0
53160,note_off,480,0,1,,,,,,,,,,,,,,,0,,,78,0
53280,control_change,120,0,1,,,,,,,,,,,,,64,0,0,,,,
53280,control_change,120,0,2,,,,,,,,,,,,,64,0,1,,,,
53520,set_tempo,950,1,0,,,,,,,447761,,,,,,,,,,,,
53760,note_on,840,0,4,,,,,,,,,,,,,,,3,,,67,53
53760,note_on,480,0,1,,,,,,,,,,,,,,,0,,,76,55
53760,note_on,480,0,2,,,,,,,,,,,,,,,1,,,71,55
53880,note_off,120,0,4,,,,,,,,,,,,,,,3,,,67,0
53880,note_off,120,0,2,,,,,,,,,,,,,,,1,,,71,0
53880,note_off,120,0,1,,,,,,,,,,,,,,,0,,,76,0
54240,note_on,360,0,4,,,,,,,,,,,,,,,3,,,67,50
54240,note_on,360,0,1,,,,,,,,,,,,,,,0,,,77,52
54240,note_on,360,0,2,,,,,,,,,,,,,,,1,,,71,52
54360,note_off,120,0,1,,,,,,,,,,,,,,,0,,,77,0
54360,note_off,120,0,2,,,,,,,,,,,,,,,1,,,71,0
54360,note_off,120,0,4,,,,,,,,,,,,,,,3,,,67,0
54720,note_on,360,0,2,,,,,,,,,,,,,,,1,,,70,49
54720,set_tempo,1200,1,0,,,,,,,461538,,,,,,,,,,,,
54720,note_on,360,0,4,,,,,,,,,,,,,,,3,,,66,47
54720,note_on,360,0,1,,,,,,,,,,,,,,,0,,,78,49
54840,note_off,120,0,4,,,,,,,,,,,,,,,3,,,66,0
54840,note_off,120,0,2,,,,,,,,,,,,,,,1,,,70,0
54840,note_off,120,0,1,,,,,,,,,,,,,,,0,,,78,0
55470,set_tempo,750,1,0,,,,,,,434782,,,,,,,,,,,,
55560,note_on,0,0,1,,,,,,,,,,,,,,,0,,,71,89
55560,control_change,720,0,2,,,,,,,,,,,,,64,127,1,,,,
55560,note_on,0,0,2,,,,,,,,,,,,,,,1,,,64,89
55560,note_on,0,0,2,,,,,,,,,,,,,,,1,,,67,89
55560,note_on,0,0,2,,,,,,,,,,,,,,,1,,,59,89
55560,control_change,720,0,1,,,,,,,,,,,,,64,127,0,,,,
55680,note_on,840,0,4,,,,,,,,,,,,,,,3,,,55,88
55680,note_on,0,0,4,,,,,,,,,,,,,,,3,,,43,88
55800,note_off,120,0,4,,,,,,,,,,,,,,,3,,,55,0
55800,note_off,0,0,4,,,,,,,,,,,,,,,3,,,43,0
56040,note_off,480,0,1,,,,,,,,,,,,,,,0,,,71,0
56040,note_off,0,0,2,,,,,,,,,,,,,,,1,,,67,0
56040,note_off,0,0,2,,,,,,,,,,,,,,,1,,,59,0
56040,note_on,0,0,2,,,,,,,,,,,,,,,1,,,67,96
56040,note_on,0,0,2,,,,,,,,,,,,,,,1,,,76,96
56040,note_on,0,0,2,,,,,,,,,,,,,,,1,,,71,96
56040,note_on,0,0,1,,,,,,,,,,,,,,,0,,,79,96
56040,note_off,480,0,2,,,,,,,,,,,,,,,1,,,64,0
56160,note_on,0,0,4,,,,,,,,,,,,,,,3,,,40,96
56160,note_on,360,0,4,,,,,,,,,,,,,,,3,,,52,96
56280,note_off,0,0,4,,,,,,,,,,,,,,,3,,,40,0
56280,note_off,120,0,4,,,,,,,,,,,,,,,3,,,52,0
56390,set_tempo,920,1,0,,,,,,,441176,,,,,,,,,,,,
56520,note_on,0,0,2,,,,,,,,,,,,,,,1,,,70,91
56520,note_on,0,0,1,,,,,,,,,,,,,,,0,,,78,91
56520,control_change,480,0,1,,,,,,,,,,,,,64,0,0,,,,
56520,note_on,0,0,2,,,,,,,,,,,,,,,1,,,73,91
56520,note_on,0,0,2,,,,,,,,,,,,,,,1,,,66,91
56520,note_off,0,0,2,,,,,,,,,,,,,,,1,,,71,0
56520,note_off,0,0,2,,,,,,,,,,,,,,,1,,,76,0
56520,control_change,480,0,2,,,,,,,,,,,,,64,0,1,,,,
56520,note_off,0,0,1,,,,,,,,,,,,,,,0,,,79,0
56520,note_off,0,0,2,,,,,,,,,,,,,,,1,,,67,0
56640,note_on,0,0,4,,,,,,,,,,,,,,,3,,,42,89
56640,note_on,360,0,4,,,,,,,,,,,,,,,3,,,54,89
56760,note_off,0,0,4,,,,,,,,,,,,,,,3,,,42,0
56760,note_off,120,0,4,,,,,,,,,,,,,,,3,,,54,0
57000,note_off,480,0,1,,,,,,,,,,,,,,,0,,,78,0
57000,note_off,0,0,2,,,,,,,,,,,,,,,1,,,70,0
57000,note_off,0,0,2,,,,,,,,,,,,,,,1,,,73,0
57000,note_off,480,0,2,,,,,,,,,,,,,,,1,,,66,0
57120,control_change,120,0,2,,,,,,,,,,,,,64,0,1,,,,
57120,control_change,120,0,1,,,,,,,,,,,,,64,0,0,,,,
57600,set_tempo,1210,1,0,,,,,,,447761,,,,,,,,,,,,
57600,note_on,0,0,4,,,,,,,,,,,,,,,3,,,55,57
57600,note_on,480,0,1,,,,,,,,,,,,,,,0,,,71,55
57600,control_change,0,0,1,,,,,,,,,,,,,64,0,0,,,,
57600,note_on,480,0,2,,,,,,,,,,,,,,,1,,,64,55
57600,control_change,0,0,2,,,,,,,,,,,,,64,0,1,,,,
57600,control_change,840,0,4,,,,,,,,,,,,,64,0,3,,,,
57720,note_off,120,0,4,,,,,,,,,,,,,,,3,,,55,0
57720,note_off,120,0,2,,,,,,,,,,,,,,,1,,,64,0
57720,note_off,120,0,1,,,,,,,,,,,,,,,0,,,71,0
58080,note_on,360,0,1,,,,,,,,,,,,,,,0,,,71,53
58080,note_on,360,0,2,,,,,,,,,,,,,,,1,,,65,53
58080,note_on,360,0,4,,,,,,,,,,,,,,,3,,,55,55
58200,note_off,120,0,1,,,,,,,,,,,,,,,0,,,71,0
58200,note_off,120,0,2,,,,,,,,,,,,,,,1,,,65,0
58200,note_off,120,0,4,,,,,,,,,,,,,,,3,,,55,0
58560,note_on,360,0,1,,,,,,,,,,,,,,,0,,,70,51
58560,set_tempo,960,1,0,,,,,,,454545,,,,,,,,,,,,
58560,note_on,360,0,4,,,,,,,,,,,,,,,3,,,54,52
58560,note_on,360,0,2,,,,,,,,,,,,,,,1,,,66,51
58680,note_off,120,0,4,,,,,,,,,,,,,,,3,,,54,0
58680,note_off,120,0,2,,,,,,,,,,,,,,,1,,,66,0
58680,note_off,120,0,1,,,,,,,,,,,,,,,0,,,70,0
59520,note_on,840,0,4,,,,,,,,,,,,,,,3,,,67,47
59520,note_on,840,0,2,,,,,,,,,,,,,,,1,,,71,46
59520,note_on,840,0,1,,,,,,,,,,,,,,,0,,,76,46
59640,note_off,120,0,2,,,,,,,,,,,,,,,1,,,71,0
59640,note_off,120,0,4,,,,,,,,,,,,,,,3,,,67,0
59640,note_off,120,0,1,,,,,,,,,,,,,,,0,,,76,0
60000,note_on,360,0,2,,,,,,,,,,,,,,,1,,,71,44
60000,note_on,360,0,4,,,,,,,,,,,,,,,3,,,67,45
60000,note_on,360,0,1,,,,,,,,,,,,,,,0,,,77,44
60120,note_off,120,0,4,,,,,,,,,,,,,,,3,,,67,0
60120,note_off,120,0,1,,,,,,,,,,,,,,,0,,,77,0
60120,note_off,120,0,2,,,,,,,,,,,,,,,1,,,71,0
60480,note_on,360,0,4,,,,,,,,,,,,,,,3,,,66,42
60480,note_on,360,0,1,,,,,,,,,,,,,,,0,,,78,41
60480,set_tempo,1920,1,0,,,,,,,461538,,,,,,,,,,,,
60480,note_on,360,0,2,,,,,,,,,,,,,,,1,,,70,41
60600,note_off,120,0,2,,,,,,,,,,,,,,,1,,,70,0
60600,note_off,120,0,4,,,,,,,,,,,,,,,3,,,66,0
60600,note_off,120,0,1,,,,,,,,,,,,,,,0,,,78,0
61440,note_on,840,0,2,,,,,,,,,,,,,,,1,,,64,37
61440,note_on,840,0,4,,,,,,,,,,,,,,,3,,,43,37
61440,note_on,840,0,1,,,,,,,,,,,,,,,0,,,71,37
61440,note_on,0,0,4,,,,,,,,,,,,,,,3,,,31,37
61440,note_on,0,0,2,,,,,,,,,,,,,,,1,,,59,37
61560,note_off,0,0,4,,,,,,,,,,,,,,,3,,,31,0
61560,note_off,120,0,4,,,,,,,,,,,,,,,3,,,43,0
61560,note_off,120,0,2,,,,,,,,,,,,,,,1,,,64,0
61560,note_off,0,0,2,,,,,,,,,,,,,,,1,,,59,0
61560,note_off,120,0,1,,,,,,,,,,,,,,,0,,,71,0
61920,note_on,0,0,4,,,,,,,,,,,,,,,3,,,31,34
61920,note_on,360,0,2,,,,,,,,,,,,,,,1,,,65,34
61920,note_on,0,0,2,,,,,,,,,,,,,,,1,,,59,34
61920,note_on,360,0,1,,,,,,,,,,,,,,,0,,,71,34
61920,note_on,360,0,4,,,,,,,,,,,,,,,3,,,43,34
62040,note_off,0,0,4,,,,,,,,,,,,,,,3,,,31,0
62040,note_off,120,0,1,,,,,,,,,,,,,,,0,,,71,0
62040,note_off,120,0,2,,,,,,,,,,,,,,,1,,,65,0
62040,note_off,0,0,2,,,,,,,,,,,,,,,1,,,59,0
62040,note_off,120,0,4,,,,,,,,,,,,,,,3,,,43,0
62160,set_tempo,1680,1,0,,,,,,,508474,,,,,,,,,,,,
62400,note_on,0,0,4,,,,,,,,,,,,,,,3,,,30,32
62400,note_on,360,0,2,,,,,,,,,,,,,,,1,,,58,35
62400,note_on,360,0,1,,,,,,,,,,,,,,,0,,,70,35
62400,note_on,360,0,4,,,,,,,,,,,,,,,3,,,42,32
62400,note_on,0,0,2,,,,,,,,,,,,,,,1,,,66,35
62400,set_tempo,240,1,0,,,,,,,465116,,,,,,,,,,,,
62520,note_off,0,0,4,,,,,,,,,,,,,,,3,,,30,0
62520,note_off,120,0,4,,,,,,,,,,,,,,,3,,,42,0
62520,set_tempo,120,1,0,,,,,,,447761,,,,,,,,,,,,
62520,note_off,120,0,2,,,,,,,,,,,,,,,1,,,58,0
62520,note_on,0,0,1,,,,,,,,,,,,,,,0,,,66,36
62520,note_off,120,0,1,,,,,,,,,,,,,,,0,,,70,0
62520,note_off,0,0,2,,,,,,,,,,,,,,,1,,,66,0
62640,note_on,0,0,1,,,,,,,,,,,,,,,0,,,65,37
62640,note_off,120,0,1,,,,,,,,,,,,,,,0,,,66,0
62760,note_on,0,0,1,,,,,,,,,,,,,,,0,,,66,39
62760,note_off,120,0,1,,,,,,,,,,,,,,,0,,,65,0
62880,note_on,0,0,1,,,,,,,,,,,,,,,0,,,65,40
62880,note_off,120,0,1,,,,,,,,,,,,,,,0,,,66,0
63000,note_off,120,0,1,,,,,,,,,,,,,,,0,,,65,0
63000,note_on,0,0,1,,,,,,,,,,,,,,,0,,,66,41
63120,note_on,0,0,1,,,,,,,,,,,,,,,0,,,65,42
63120,note_off,120,0,1,,,,,,,,,,,,,,,0,,,66,0
63240,note_off,120,0,1,,,,,,,,,,,,,,,0,,,65,0
63240,note_on,0,0,1,,,,,,,,,,,,,,,0,,,66,43
63360,note_off,120,0,1,,,,,,,,,,,,,,,0,,,66,0
63360,note_on,0,0,1,,,,,,,,,,,,,,,0,,,65,45
63480,note_off,120,0,1,,,,,,,,,,,,,,,0,,,65,0
63480,note_on,0,0,1,,,,,,,,,,,,,,,0,,,66,46
63600,note_on,0,0,1,,,,,,,,,,,,,,,0,,,65,47
63600,note_off,120,0,1,,,,,,,,,,,,,,,0,,,66,0
63720,note_off,120,0,1,,,,,,,,,,,,,,,0,,,65,0
63720,note_on,0,0,1,,,,,,,,,,,,,,,0,,,66,48
63840,note_on,0,0,1,,,,,,,,,,,,,,,0,,,65,49
63840,note_off,120,0,1,,,,,,,,,,,,,,,0,,,66,0
63960,note_off,120,0,1,,,,,,,,,,,,,,,0,,,65,0
63960,note_on,0,0,1,,,,,,,,,,,,,,,0,,,66,50
63980,set_tempo,1460,1,0,,,,,,,461538,,,,,,,,,,,,
64080,note_on,0,0,1,,,,,,,,,,,,,,,0,,,68,52
64080,note_off,120,0,1,,,,,,,,,,,,,,,0,,,66,0
64080,set_tempo,100,1,0,,,,,,,461538,,,,,,,,,,,,
64200,set_tempo,120,1,0,,,,,,,500000,,,,,,,,,,,,
64200,note_off,120,0,1,,,,,,,,,,,,,,,0,,,68,0
64200,note_on,0,0,1,,,,,,,,,,,,,,,0,,,66,53
64320,set_tempo,120,1,0,,,,,,,487804,,,,,,,,,,,,
64320,note_on,1800,0,4,,,,,,,,,,,,,,,3,,,47,49
64320,control_change,120,0,1,,,,,,,,,,,,,64,0,0,,,,
64320,control_change,1800,0,2,,,,,,,,,,,,,64,0,1,,,,
64320,note_on,0,0,1,,,,,,,,,,,,,,,0,,,66,54
64320,note_off,0,0,1,,,,,,,,,,,,,,,0,,,66,0
64420,set_tempo,100,1,0,,,,,,,447761,,,,,,,,,,,,
64500,note_off,180,0,1,,,,,,,,,,,,,,,0,,,66,0
64560,note_on,0,0,3,,,,,,,,,,,,,,,2,,,54,40
64560,note_on,60,0,1,,,,,,,,,,,,,,,0,,,75,59
64560,note_on,0,0,3,,,,,,,,,,,,,,,2,,,63,40
64560,note_on,18720,0,3,,,,,,,,,,,,,,,2,,,59,40
64800,note_on,0,0,3,,,,,,,,,,,,,,,2,,,63,41
64800,note_off,240,0,3,,,,,,,,,,,,,,,2,,,59,0
64800,note_off,0,0,3,,,,,,,,,,,,,,,2,,,54,0
64800,note_on,0,0,3,,,,,,,,,,,,,,,2,,,59,41
64800,note_off,0,0,3,,,,,,,,,,,,,,,2,,,63,0
64800,note_on,0,0,3,,,,,,,,,,,,,,,2,,,54,41
65040,note_on,0,0,3,,,,,,,,,,,,,,,2,,,59,41
65040,note_on,0,0,3,,,,,,,,,,,,,,,2,,,54,41
65040,note_on,0,0,3,,,,,,,,,,,,,,,2,,,63,41
65040,note_off,0,0,3,,,,,,,,,,,,,,,2,,,59,0
65040,note_off,480,0,1,,,,,,,,,,,,,,,0,,,75,0
65040,note_on,0,0,1,,,,,,,,,,,,,,,0,,,73,55
65040,note_off,0,0,3,,,,,,,,,,,,,,,2,,,63,0
65040,note_off,240,0,3,,,,,,,,,,,,,,,2,,,54,0
65280,note_off,0,0,3,,,,,,,,,,,,,,,2,,,59,0
65280,note_off,0,0,3,,,,,,,,,,,,,,,2,,,54,0
65280,note_off,240,0,3,,,,,,,,,,,,,,,2,,,63,0
65280,note_on,0,0,4,,,,,,,,,,,,,,,3,,,47,50
65280,note_off,960,0,4,,,,,,,,,,,,,,,3,,,47,0
65280,note_off,240,0,1,,,,,,,,,,,,,,,0,,,73,0
65280,note_on,0,0,1,,,,,,,,,,,,,,,0,,,71,53
65460,note_off,180,0,1,,,,,,,,,,,,,,,0,,,71,0
65520,note_on,240,0,3,,,,,,,,,,,,,,,2,,,63,42
65520,note_on,60,0,1,,,,,,,,,,,,,,,0,,,75,65
65520,note_on,0,0,3,,,,,,,,,,,,,,,2,,,54,42
65520,note_on,0,0,3,,,,,,,,,,,,,,,2,,,59,42
65760,note_on,0,0,3,,,,,,,,,,,,,,,2,,,54,43
65760,note_off,240,0,3,,,,,,,,,,,,,,,2,,,63,0
65760,note_off,0,0,3,,,,,,,,,,,,,,,2,,,59,0
65760,note_on,0,0,3,,,,,,,,,,,,,,,2,,,59,43
65760,note_on,0,0,3,,,,,,,,,,,,,,,2,,,63,43
65760,note_off,0,0,3,,,,,,,,,,,,,,,2,,,54,0
66000,note_off,480,0,1,,,,,,,,,,,,,,,0,,,75,0
66000,note_off,240,0,3,,,,,,,,,,,,,,,2,,,63,0
66000,note_on,0,0,1,,,,,,,,,,,,,,,0,,,71,62
66000,note_off,0,0,3,,,,,,,,,,,,,,,2,,,54,0
66000,note_off,0,0,3,,,,,,,,,,,,,,,2,,,59,0
66000,note_on,0,0,3,,,,,,,,,,,,,,,2,,,63,43
66000,note_on,0,0,3,,,,,,,,,,,,,,,2,,,59,43
66000,note_on,0,0,3,,,,,,,,,,,,,,,2,,,54,43
66240,note_off,0,0,3,,,,,,,,,,,,,,,2,,,59,0
66240,note_off,240,0,3,,,,,,,,,,,,,,,2,,,63,0
66240,note_off,0,0,3,,,,,,,,,,,,,,,2,,,54,0
66240,note_off,240,0,1,,,,,,,,,,,,,,,0,,,71,0
66240,note_on,0,0,4,,,,,,,,,,,,,,,3,,,42,52
66240,note_on,0,0,1,,,,,,,,,,,,,,,0,,,70,60
66240,note_off,960,0,4,,,,,,,,,,,,,,,3,,,47,0
66420,set_tempo,2000,1,0,,,,,,,454545,,,,,,,,,,,,
66420,note_off,180,0,1,,,,,,,,,,,,,,,0,,,70,0
66480,set_tempo,60,1,0,,,,,,,447761,,,,,,,,,,,,
66480,note_on,60,0,1,,,,,,,,,,,,,,,0,,,78,64
66480,note_on,240,0,3,,,,,,,,,,,,,,,2,,,61,44
66480,note_on,0,0,3,,,,,,,,,,,,,,,2,,,54,44
66480,note_on,0,0,3,,,,,,,,,,,,,,,2,,,64,44
66720,note_off,240,0,3,,,,,,,,,,,,,,,2,,,61,0
66720,note_off,0,0,3,,,,,,,,,,,,,,,2,,,64,0
66720,note_on,0,0,3,,,,,,,,,,,,,,,2,,,61,44
66720,note_on,0,0,3,,,,,,,,,,,,,,,2,,,54,44
66720,note_on,0,0,3,,,,,,,,,,,,,,,2,,,64,44
66720,note_off,0,0,3,,,,,,,,,,,,,,,2,,,54,0
66960,note_off,480,0,1,,,,,,,,,,,,,,,0,,,78,0
66960,note_on,0,0,1,,,,,,,,,,,,,,,0,,,78,72
66960,note_on,0,0,3,,,,,,,,,,,,,,,2,,,64,45
66960,note_on,0,0,3,,,,,,,,,,,,,,,2,,,61,45
66960,note_off,240,0,3,,,,,,,,,,,,,,,2,,,61,0
66960,note_off,0,0,3,,,,,,,,,,,,,,,2,,,54,0
66960,note_off,0,0,3,,,,,,,,,,,,,,,2,,,64,0
66960,note_on,0,0,3,,,,,,,,,,,,,,,2,,,54,45
67200,note_off,960,0,4,,,,,,,,,,,,,,,3,,,42,0
67200,note_off,240,0,3,,,,,,,,,,,,,,,2,,,61,0
67200,note_off,0,0,3,,,,,,,,,,,,,,,2,,,54,0
67200,note_on,0,0,4,,,,,,,,,,,,,,,3,,,46,53
67200,note_off,0,0,3,,,,,,,,,,,,,,,2,,,64,0
67440,note_on,0,0,3,,,,,,,,,,,,,,,2,,,61,45
67440,note_on,240,0,3,,,,,,,,,,,,,,,2,,,54,45
67440,note_on,0,0,3,,,,,,,,,,,,,,,2,,,64,45
67440,note_off,480,0,1,,,,,,,,,,,,,,,0,,,78,0
67440,note_on,0,0,1,,,,,,,,,,,,,,,0,,,80,67
67560,note_on,0,0,1,,,,,,,,,,,,,,,0,,,78,65
67560,note_off,120,0,1,,,,,,,,,,,,,,,0,,,80,0
67680,note_off,0,0,3,,,,,,,,,,,,,,,2,,,61,0
67680,note_off,0,0,3,,,,,,,,,,,,,,,2,,,64,0
67680,note_on,0,0,4,,,,,,,,,,,,,,,3,,,42,54
67680,note_off,480,0,4,,,,,,,,,,,,,,,3,,,46,0
67680,note_off,120,0,1,,,,,,,,,,,,,,,0,,,78,0
67680,note_on,0,0,1,,,,,,,,,,,,,,,0,,,76,63
67680,note_off,240,0,3,,,,,,,,,,,,,,,2,,,54,0
67800,note_off,120,0,1,,,,,,,,,,,,,,,0,,,76,0
67800,note_on,0,0,1,,,,,,,,,,,,,,,0,,,75,62
67920,note_on,0,0,1,,,,,,,,,,,,,,,0,,,76,60
67920,note_on,0,0,3,,,,,,,,,,,,,,,2,,,64,44
67920,note_on,0,0,3,,,,,,,,,,,,,,,2,,,61,44
67920,note_on,240,0,3,,,,,,,,,,,,,,,2,,,54,44
67920,note_off,120,0,1,,,,,,,,,,,,,,,0,,,75,0
68040,note_on,0,0,1,,,,,,,,,,,,,,,0,,,73,58
68040,note_off,120,0,1,,,,,,,,,,,,,,,0,,,76,0
68140,set_tempo,1660,1,0,,,,,,,454545,,,,,,,,,,,,
68160,note_off,480,0,4,,,,,,,,,,,,,,,3,,,42,0
68160,note_off,0,0,3,,,,,,,,,,,,,,,2,,,61,0
68160,note_off,0,0,3,,,,,,,,,,,,,,,2,,,64,0
68160,note_on,0,0,1,,,,,,,,,,,,,,,0,,,71,59
68160,note_off,120,0,1,,,,,,,,,,,,,,,0,,,73,0
68160,note_on,0,0,4,,,,,,,,,,,,,,,3,,,47,54
68160,note_off,240,0,3,,,,,,,,,,,,,,,2,,,54,0
68210,set_tempo,70,1,0,,,,,,,447761,,,,,,,,,,,,
68340,note_off,180,0,1,,,,,,,,,,,,,,,0,,,71,0
68400,note_on,240,0,3,,,,,,,,,,,,,,,2,,,63,44
68400,note_on,0,0,3,,,,,,,,,,,,,,,2,,,59,44
68400,note_on,0,0,3,,,,,,,,,,,,,,,2,,,54,44
68400,note_on,60,0,1,,,,,,,,,,,,,,,0,,,75,65
68640,note_off,240,0,3,,,,,,,,,,,,,,,2,,,63,0
68640,note_off,0,0,3,,,,,,,,,,,,,,,2,,,59,0
68640,note_on,0,0,3,,,,,,,,,,,,,,,2,,,59,44
68640,note_off,0,0,3,,,,,,,,,,,,,,,2,,,54,0
68640,note_on,0,0,3,,,,,,,,,,,,,,,2,,,54,44
68640,note_on,0,0,3,,,,,,,,,,,,,,,2,,,63,44
68880,note_off,240,0,3,,,,,,,,,,,,,,,2,,,63,0
68880,note_off,480,0,1,,,,,,,,,,,,,,,0,,,75,0
68880,note_off,0,0,3,,,,,,,,,,,,,,,2,,,59,0
68880,note_on,0,0,1,,,,,,,,,,,,,,,0,,,73,61
68880,note_on,0,0,3,,,,,,,,,,,,,,,2,,,54,43
68880,note_on,0,0,3,,,,,,,,,,,,,,,2,,,63,43
68880,note_on,0,0,3,,,,,,,,,,,,,,,2,,,59,43
68880,note_off,0,0,3,,,,,,,,,,,,,,,2,,,54,0
69120,note_off,960,0,4,,,,,,,,,,,,,,,3,,,47,0
69120,note_off,240,0,3,,,,,,,,,,,,,,,2,,,63,0
69120,note_off,240,0,1,,,,,,,,,,,,,,,0,,,73,0
69120,note_on,0,0,1,,,,,,,,,,,,,,,0,,,71,58
69120,note_on,0,0,4,,,,,,,,,,,,,,,3,,,47,56
69120,note_off,0,0,3,,,,,,,,,,,,,,,2,,,59,0
69120,note_off,0,0,3,,,,,,,,,,,,,,,2,,,54,0
69300,note_off,180,0,1,,,,,,,,,,,,,,,0,,,71,0
69360,note_on,0,0,3,,,,,,,,,,,,,,,2,,,63,43
69360,note_on,240,0,3,,,,,,,,,,,,,,,2,,,54,43
69360,note_on,60,0,1,,,,,,,,,,,,,,,0,,,75,63
69360,note_on,0,0,3,,,,,,,,,,,,,,,2,,,59,43
69600,note_off,0,0,3,,,,,,,,,,,,,,,2,,,59,0
69600,note_on,0,0,3,,,,,,,,,,,,,,,2,,,63,42
69600,note_off,0,0,3,,,,,,,,,,,,,,,2,,,63,0
69600,note_on,0,0,3,,,,,,,,,,,,,,,2,,,54,42
69600,note_on,0,0,3,,,,,,,,,,,,,,,2,,,59,42
69600,note_off,240,0,3,,,,,,,,,,,,,,,2,,,54,0
69840,note_off,0,0,3,,,,,,,,,,,,,,,2,,,54,0
69840,note_on,0,0,1,,,,,,,,,,,,,,,0,,,71,55
69840,note_off,480,0,1,,,,,,,,,,,,,,,0,,,75,0
69840,note_on,0,0,3,,,,,,,,,,,,,,,2,,,54,42
69840,note_on,0,0,3,,,,,,,,,,,,,,,2,,,59,42
69840,note_on,0,0,3,,,,,,,,,,,,,,,2,,,63,42
69840,note_off,0,0,3,,,,,,,,,,,,,,,2,,,59,0
69840,note_off,240,0,3,,,,,,,,,,,,,,,2,,,63,0
70080,note_on,0,0,4,,,,,,,,,,,,,,,3,,,42,53
70080,note_off,960,0,4,,,,,,,,,,,,,,,3,,,47,0
70080,note_off,240,0,1,,,,,,,,,,,,,,,0,,,71,0
70080,note_off,240,0,3,,,,,,,,,,,,,,,2,,,63,0
70080,note_off,0,0,3,,,,,,,,,,,,,,,2,,,54,0
70080,note_on,0,0,3,,,,,,,,,,,,,,,2,,,54,42
70080,note_on,0,0,3,,,,,,,,,,,,,,,2,,,61,42
70080,note_on,0,0,3,,,,,,,,,,,,,,,2,,,64,42
70080,note_off,0,0,3,,,,,,,,,,,,,,,2,,,59,0
70080,note_on,0,0,1,,,,,,,,,,,,,,,0,,,70,57
70260,note_off,180,0,1,,,,,,,,,,,,,,,0,,,70,0
70320,note_on,60,0,1,,,,,,,,,,,,,,,0,,,73,54
70320,note_off,240,0,3,,,,,,,,,,,,,,,2,,,54,0
70320,note_off,0,0,3,,,,,,,,,,,,,,,2,,,61,0
70320,note_off,0,0,3,,,,,,,,,,,,,,,2,,,64,0
70320,note_on,0,0,3,,,,,,,,,,,,,,,2,,,61,42
70320,note_on,0,0,3,,,,,,,,,,,,,,,2,,,54,42
70320,note_on,0,0,3,,,,,,,,,,,,,,,2,,,64,42
70440,note_off,120,0,1,,,,,,,,,,,,,,,0,,,73,0
70440,note_on,0,0,1,,,,,,,,,,,,,,,0,,,71,53
70560,note_on,0,0,3,,,,,,,,,,,,,,,2,,,64,41
70560,note_off,0,0,3,,,,,,,,,,,,,,,2,,,54,0
70560,note_off,240,0,3,,,,,,,,,,,,,,,2,,,61,0
70560,note_off,120,0,1,,,,,,,,,,,,,,,0,,,71,0
70560,note_off,0,0,3,,,,,,,,,,,,,,,2,,,64,0
70560,note_on,0,0,3,,,,,,,,,,,,,,,2,,,61,41
70560,note_on,0,0,3,,,,,,,,,,,,,,,2,,,54,41
70560,note_on,0,0,1,,,,,,,,,,,,,,,0,,,70,52
70680,note_off,120,0,1,,,,,,,,,,,,,,,0,,,70,0
70680,note_on,0,0,1,,,,,,,,,,,,,,,0,,,71,51
70800,note_off,0,0,3,,,,,,,,,,,,,,,2,,,64,0
70800,note_off,120,0,1,,,,,,,,,,,,,,,0,,,71,0
70800,note_off,240,0,3,,,,,,,,,,,,,,,2,,,61,0
70800,note_off,0,0,3,,,,,,,,,,,,,,,2,,,54,0
70800,note_on,0,0,1,,,,,,,,,,,,,,,0,,,73,49
70920,note_off,120,0,1,,,,,,,,,,,,,,,0,,,73,0
70920,note_on,0,0,1,,,,,,,,,,,,,,,0,,,70,48
71040,note_off,960,0,4,,,,,,,,,,,,,,,3,,,42,0
71040,note_off,120,0,1,,,,,,,,,,,,,,,0,,,70,0
71040,note_on,0,0,4,,,,,,,,,,,,,,,3,,,47,46
71040,note_on,0,0,1,,,,,,,,,,,,,,,0,,,71,47
71160,note_on,120,0,4,,,,,,,,,,,,,,,3,,,59,45
71280,note_on,0,0,4,,,,,,,,,,,,,,,3,,,57,44
71280,note_off,0,0,4,,,,,,,,,,,,,,,3,,,59,0
71280,note_off,120,0,4,,,,,,,,,,,,,,,3,,,47,0
71280,note_off,240,0,1,,,,,,,,,,,,,,,0,,,71,0
71400,note_off,120,0,4,,,,,,,,,,,,,,,3,,,57,0
71400,note_on,0,0,4,,,,,,,,,,,,,,,3,,,55,44
71520,note_off,120,0,4,,,,,,,,,,,,,,,3,,,55,0
71520,note_on,0,0,4,,,,,,,,,,,,,,,3,,,54,43
71640,note_off,120,0,4,,,,,,,,,,,,,,,3,,,54,0
71640,note_on,0,0,4,,,,,,,,,,,,,,,3,,,52,42
71760,set_tempo,3550,1,0,,,,,,,454545,,,,,,,,,,,,
71760,note_on,0,0,4,,,,,,,,,,,,,,,3,,,50,41
71760,note_off,120,0,4,,,,,,,,,,,,,,,3,,,52,0
71880,note_off,120,0,4,,,,,,,,,,,,,,,3,,,50,0
71880,note_on,0,0,4,,,,,,,,,,,,,,,3,,,49,40
71880,set_tempo,120,1,0,,,,,,,465116,,,,,,,,,,,,
72000,note_on,0,0,2,,,,,,,,,,,,,,,1,,,59,36
72000,control_change,0,0,2,,,,,,,,,,,,,64,0,1,,,,
72000,note_on,7680,0,2,,,,,,,,,,,,,,,1,,,62,36
72000,note_off,120,0,4,,,,,,,,,,,,,,,3,,,49,0
72000,note_on,0,0,4,,,,,,,,,,,,,,,3,,,47,50
72000,control_change,720,0,1,,,,,,,,,,,,,64,0,0,,,,
72040,set_tempo,160,1,0,,,,,,,447761,,,,,,,,,,,,
72060,control_change,60,0,2,,,,,,,,,,,,,64,127,1,,,,
72060,control_change,60,0,1,,,,,,,,,,,,,64,127,0,,,,
72120,note_on,60,0,1,,,,,,,,,,,,,,,0,,,66,36
72120,note_off,0,0,2,,,,,,,,,,,,,,,1,,,59,0
72120,note_off,60,0,2,,,,,,,,,,,,,,,1,,,62,0
72180,note_off,180,0,4,,,,,,,,,,,,,,,3,,,47,0
72240,note_off,120,0,1,,,,,,,,,,,,,,,0,,,66,0
72240,note_on,120,0,2,,,,,,,,,,,,,,,1,,,59,37
72240,note_on,0,0,2,,,,,,,,,,,,,,,1,,,62,37
72240,note_on,60,0,4,,,,,,,,,,,,,,,3,,,50,55
72360,note_off,0,0,2,,,,,,,,,,,,,,,1,,,62,0
72360,note_off,120,0,2,,,,,,,,,,,,,,,1,,,59,0
72360,note_on,120,0,1,,,,,,,,,,,,,,,0,,,66,37
72480,note_off,120,0,1,,,,,,,,,,,,,,,0,,,66,0
72480,note_on,120,0,2,,,,,,,,,,,,,,,1,,,59,37
72480,note_on,0,0,2,,,,,,,,,,,,,,,1,,,62,37
72600,note_off,120,0,2,,,,,,,,,,,,,,,1,,,59,0
72600,note_off,0,0,2,,,,,,,,,,,,,,,1,,,62,0
72600,note_on,120,0,1,,,,,,,,,,,,,,,0,,,66,38
72720,note_off,480,0,4,,,,,,,,,,,,,,,3,,,50,0
72720,note_on,0,0,2,,,,,,,,,,,,,,,1,,,62,38
72720,note_on,0,0,4,,,,,,,,,,,,,,,3,,,49,52
72720,note_on,120,0,2,,,,,,,,,,,,,,,1,,,59,38
72720,note_off,120,0,1,,,,,,,,,,,,,,,0,,,66,0
72840,note_off,120,0,2,,,,,,,,,,,,,,,1,,,59,0
72840,note_off,0,0,2,,,,,,,,,,,,,,,1,,,62,0
72840,note_on,120,0,1,,,,,,,,,,,,,,,0,,,66,38
72960,note_off,240,0,4,,,,,,,,,,,,,,,3,,,49,0
72960,note_off,120,0,1,,,,,,,,,,,,,,,0,,,66,0
72960,note_on,0,0,4,,,,,,,,,,,,,,,3,,,47,50
72960,note_on,120,0,2,,,,,,,,,,,,,,,1,,,59,39
72960,note_on,0,0,2,,,,,,,,,,,,,,,1,,,62,39
73080,note_off,120,0,2,,,,,,,,,,,,,,,1,,,59,0
73080,note_off,0,0,2,,,,,,,,,,,,,,,1,,,62,0
73080,note_on,120,0,1,,,,,,,,,,,,,,,0,,,66,39
73140,note_off,180,0,4,,,,,,,,,,,,,,,3,,,47,0
73200,note_on,60,0,4,,,,,,,,,,,,,,,3,,,50,59
73200,note_off,120,0,1,,,,,,,,,,,,,,,0,,,66,0
73200,note_on,120,0,2,,,,,,,,,,,,,,,1,,,59,40
73200,note_on,0,0,2,,,,,,,,,,,,,,,1,,,62,40
73320,note_off,0,0,2,,,,,,,,,,,,,,,1,,,62,0
73320,note_on,120,0,1,,,,,,,,,,,,,,,0,,,66,40
73320,note_off,120,0,2,,,,,,,,,,,,,,,1,,,59,0
73440,note_on,120,0,2,,,,,,,,,,,,,,,1,,,59,40
73440,note_on,0,0,2,,,,,,,,,,,,,,,1,,,62,40
73440,note_off,120,0,1,,,,,,,,,,,,,,,0,,,66,0
73560,note_off,120,0,2,,,,,,,,,,,,,,,1,,,59,0
73560,note_off,0,0,2,,,,,,,,,,,,,,,1,,,62,0
73560,note_on,120,0,1,,,,,,,,,,,,,,,0,,,66,41
73680,note_off,120,0,1,,,,,,,,,,,,,,,0,,,66,0
73680,note_off,480,0,4,,,,,,,,,,,,,,,3,,,50,0
73680,note_on,0,0,4,,,,,,,,,,,,,,,3,,,47,55
73680,note_on,120,0,2,,,,,,,,,,,,,,,1,,,59,41
73680,note_on,0,0,2,,,,,,,,,,,,,,,1,,,62,41
73800,note_off,0,0,2,,,,,,,,,,,,,,,1,,,62,0
73800,note_on,120,0,1,,,,,,,,,,,,,,,0,,,66,42
73800,note_off,120,0,2,,,,,,,,,,,,,,,1,,,59,0
73920,control_change,120,0,1,,,,,,,,,,,,,64,0,0,,,,
73920,control_change,120,0,2,,,,,,,,,,,,,64,0,1,,,,
73920,note_on,0,0,2,,,,,,,,,,,,,,,1,,,61,42
73920,note_on,0,0,2,,,,,,,,,,,,,,,1,,,64,42
73920,note_off,240,0,4,,,,,,,,,,,,,,,3,,,47,0
73920,note_on,0,0,4,,,,,,,,,,,,,,,3,,,46,52
73920,note_off,0,0,1,,,,,,,,,,,,,,,0,,,66,0
73980,control_change,60,0,1,,,,,,,,,,,,,64,127,0,,,,
73980,control_change,60,0,2,,,,,,,,,,,,,64,127,1,,,,
74040,note_off,0,0,2,,,,,,,,,,,,,,,1,,,64,0
74040,note_off,60,0,2,,,,,,,,,,,,,,,1,,,61,0
74040,note_on,60,0,1,,,,,,,,,,,,,,,0,,,66,42
74100,set_tempo,2060,1,0,,,,,,,454545,,,,,,,,,,,,
74100,note_off,180,0,4,,,,,,,,,,,,,,,3,,,46,0
74160,note_on,0,0,2,,,,,,,,,,,,,,,1,,,64,43
74160,note_off,120,0,1,,,,,,,,,,,,,,,0,,,66,0
74160,note_on,60,0,4,,,,,,,,,,,,,,,3,,,54,64
74160,set_tempo,60,1,0,,,,,,,447761,,,,,,,,,,,,
74160,note_on,120,0,2,,,,,,,,,,,,,,,1,,,61,43
74280,note_on,120,0,1,,,,,,,,,,,,,,,0,,,66,43
74280,note_off,120,0,2,,,,,,,,,,,,,,,1,,,61,0
74280,note_off,0,0,2,,,,,,,,,,,,,,,1,,,64,0
74400,note_on,0,0,2,,,,,,,,,,,,,,,1,,,61,43
74400,note_off,120,0,1,,,,,,,,,,,,,,,0,,,66,0
74400,note_on,120,0,2,,,,,,,,,,,,,,,1,,,58,43
74520,note_off,0,0,2,,,,,,,,,,,,,,,1,,,61,0
74520,note_off,120,0,2,,,,,,,,,,,,,,,1,,,58,0
74520,note_on,120,0,1,,,,,,,,,,,,,,,0,,,66,44
74640,note_off,120,0,1,,,,,,,,,,,,,,,0,,,66,0
74640,note_on,0,0,2,,,,,,,,,,,,,,,1,,,61,44
74640,note_on,120,0,2,,,,,,,,,,,,,,,1,,,58,44
74640,note_off,480,0,4,,,,,,,,,,,,,,,3,,,54,0
74640,note_on,0,0,4,,,,,,,,,,,,,,,3,,,54,67
74760,note_off,0,0,2,,,,,,,,,,,,,,,1,,,61,0
74760,note_off,120,0,2,,,,,,,,,,,,,,,1,,,58,0
74760,note_on,120,0,1,,,,,,,,,,,,,,,0,,,66,45
74880,note_on,0,0,2,,,,,,,,,,,,,,,1,,,61,43
74880,note_on,120,0,2,,,,,,,,,,,,,,,1,,,58,43
74880,note_off,120,0,1,,,,,,,,,,,,,,,0,,,66,0
75000,note_on,120,0,1,,,,,,,,,,,,,,,0,,,66,43
75000,note_off,0,0,2,,,,,,,,,,,,,,,1,,,61,0
75000,note_off,120,0,2,,,,,,,,,,,,,,,1,,,58,0
75059,note_off,419,0,4,,,,,,,,,,,,,,,3,,,54,0
75120,note_on,120,0,2,,,,,,,,,,,,,,,1,,,58,42
75120,note_off,120,0,1,,,,,,,,,,,,,,,0,,,66,0
75120,note_on,61,0,4,,,,,,,,,,,,,,,3,,,55,60
75120,note_on,0,0,2,,,,,,,,,,,,,,,1,,,61,42
75240,note_on,120,0,1,,,,,,,,,,,,,,,0,,,66,42
75240,note_on,0,0,4,,,,,,,,,,,,,,,3,,,54,58
75240,note_off,120,0,4,,,,,,,,,,,,,,,3,,,55,0
75240,note_off,120,0,2,,,,,,,,,,,,,,,1,,,58,0
75240,note_off,0,0,2,,,,,,,,,,,,,,,1,,,61,0
75360,note_on,120,0,2,,,,,,,,,,,,,,,1,,,58,41
75360,note_on,0,0,4,,,,,,,,,,,,,,,3,,,52,56
75360,note_off,120,0,4,,,,,,,,,,,,,,,3,,,54,0
75360,note_on,0,0,2,,,,,,,,,,,,,,,1,,,61,41
75360,note_off,120,0,1,,,,,,,,,,,,,,,0,,,66,0
75480,note_off,120,0,2,,,,,,,,,,,,,,,1,,,58,0
75480,note_off,0,0,2,,,,,,,,,,,,,,,1,,,61,0
75480,note_off,120,0,4,,,,,,,,,,,,,,,3,,,52,0
75480,note_on,0,0,4,,,,,,,,,,,,,,,3,,,50,54
75480,note_on,120,0,1,,,,,,,,,,,,,,,0,,,66,40
75600,note_on,0,0,2,,,,,,,,,,,,,,,1,,,61,40
75600,note_off,120,0,1,,,,,,,,,,,,,,,0,,,66,0
75600,note_on,0,0,4,,,,,,,,,,,,,,,3,,,52,52
75600,note_off,120,0,4,,,,,,,,,,,,,,,3,,,50,0
75600,note_on,120,0,2,,,,,,,,,,,,,,,1,,,58,40
75720,set_tempo,1560,1,0,,,,,,,454545,,,,,,,,,,,,
75720,note_off,0,0,2,,,,,,,,,,,,,,,1,,,61,0
75720,note_on,0,0,4,,,,,,,,,,,,,,,3,,,49,50
75720,note_off,120,0,4,,,,,,,,,,,,,,,3,,,52,0
75720,note_off,120,0,2,,,,,,,,,,,,,,,1,,,58,0
75720,note_on,120,0,1,,,,,,,,,,,,,,,0,,,66,39
75840,control_change,120,0,2,,,,,,,,,,,,,64,0,1,,,,
75840,note_on,0,0,2,,,,,,,,,,,,,,,1,,,59,40
75840,control_change,120,0,1,,,,,,,,,,,,,64,0,0,,,,
75840,note_on,0,0,2,,,,,,,,,,,,,,,1,,,62,40
75840,note_off,120,0,4,,,,,,,,,,,,,,,3,,,49,0
75840,note_on,0,0,4,,,,,,,,,,,,,,,3,,,47,49
75840,note_off,0,0,1,,,,,,,,,,,,,,,0,,,66,0
75840,set_tempo,120,1,0,,,,,,,447761,,,,,,,,,,,,
75900,control_change,60,0,1,,,,,,,,,,,,,64,127,0,,,,
75900,control_change,60,0,2,,,,,,,,,,,,,64,127,1,,,,
75960,note_off,0,0,2,,,,,,,,,,,,,,,1,,,62,0
75960,note_off,60,0,2,,,,,,,,,,,,,,,1,,,59,0
75960,note_on,60,0,1,,,,,,,,,,,,,,,0,,,66,40
76020,note_off,180,0,4,,,,,,,,,,,,,,,3,,,47,0
76080,note_off,120,0,1,,,,,,,,,,,,,,,0,,,66,0
76080,note_on,0,0,2,,,,,,,,,,,,,,,1,,,59,41
76080,note_on,60,0,4,,,,,,,,,,,,,,,3,,,50,61
76080,note_on,120,0,2,,,,,,,,,,,,,,,1,,,62,41
76200,note_off,120,0,2,,,,,,,,,,,,,,,1,,,62,0
76200,note_on,120,0,1,,,,,,,,,,,,,,,0,,,66,41
76200,note_off,0,0,2,,,,,,,,,,,,,,,1,,,59,0
76320,control_change,120,0,1,,,,,,,,,,,,,64,0,0,,,,
76320,note_off,0,0,1,,,,,,,,,,,,,,,0,,,66,0
76320,control_change,0,0,1,,,,,,,,,,,,,64,0,0,,,,
76320,note_on,0,0,2,,,,,,,,,,,,,,,1,,,59,41
76320,control_change,0,0,2,,,,,,,,,,,,,64,0,1,,,,
76320,note_on,0,0,2,,,,,,,,,,,,,,,1,,,65,41
76320,control_change,120,0,2,,,,,,,,,,,,,64,0,1,,,,
76380,control_change,0,0,1,,,,,,,,,,,,,64,127,0,,,,
76380,control_change,60,0,1,,,,,,,,,,,,,64,127,0,,,,
76380,control_change,60,0,2,,,,,,,,,,,,,64,127,1,,,,
76380,control_change,0,0,2,,,,,,,,,,,,,64,127,1,,,,
76440,note_off,60,0,2,,,,,,,,,,,,,,,1,,,65,0
76440,note_off,0,0,2,,,,,,,,,,,,,,,1,,,59,0
76440,note_on,60,0,1,,,,,,,,,,,,,,,0,,,68,42
76560,note_on,120,0,2,,,,,,,,,,,,,,,1,,,59,42
76560,note_on,0,0,2,,,,,,,,,,,,,,,1,,,65,42
76560,note_off,120,0,1,,,,,,,,,,,,,,,0,,,68,0
76560,note_off,480,0,4,,,,,,,,,,,,,,,3,,,50,0
76560,note_on,0,0,4,,,,,,,,,,,,,,,3,,,50,54
76680,note_off,120,0,2,,,,,,,,,,,,,,,1,,,59,0
76680,note_on,120,0,1,,,,,,,,,,,,,,,0,,,68,44
76680,note_off,0,0,2,,,,,,,,,,,,,,,1,,,65,0
76800,note_on,0,0,2,,,,,,,,,,,,,,,1,,,67,44
76800,note_off,0,0,1,,,,,,,,,,,,,,,0,,,68,0
76800,control_change,120,0,2,,,,,,,,,,,,,64,0,1,,,,
76800,note_on,0,0,4,,,,,,,,,,,,,,,3,,,49,69
76800,note_on,0,0,2,,,,,,,,,,,,,,,1,,,64,44
76800,control_change,120,0,1,,,,,,,,,,,,,64,0,0,,,,
76800,note_off,240,0,4,,,,,,,,,,,,,,,3,,,50,0
76860,control_change,60,0,2,,,,,,,,,,,,,64,127,1,,,,
76860,control_change,60,0,1,,,,,,,,,,,,,64,127,0,,,,
76920,note_on,60,0,1,,,,,,,,,,,,,,,0,,,69,45
76920,note_off,60,0,2,,,,,,,,,,,,,,,1,,,64,0
76920,note_off,0,0,2,,,,,,,,,,,,,,,1,,,67,0
76980,note_off,180,0,4,,,,,,,,,,,,,,,3,,,49,0
77040,note_off,120,0,1,,,,,,,,,,,,,,,0,,,69,0
77040,note_on,60,0,4,,,,,,,,,,,,,,,3,,,52,63
77040,note_on,120,0,2,,,,,,,,,,,,,,,1,,,64,45
77040,note_on,0,0,2,,,,,,,,,,,,,,,1,,,67,45
77160,note_off,0,0,2,,,,,,,,,,,,,,,1,,,67,0
77160,note_on,120,0,1,,,,,,,,,,,,,,,0,,,69,46
77160,note_off,120,0,4,,,,,,,,,,,,,,,3,,,52,0
77160,note_off,120,0,2,,,,,,,,,,,,,,,1,,,64,0
77160,note_on,0,0,4,,,,,,,,,,,,,,,3,,,50,62
77280,note_off,120,0,4,,,,,,,,,,,,,,,3,,,50,0
77280,note_on,120,0,2,,,,,,,,,,,,,,,1,,,64,47
77280,note_on,0,0,4,,,,,,,,,,,,,,,3,,,49,60
77280,note_off,120,0,1,,,,,,,,,,,,,,,0,,,69,0
77280,note_on,0,0,2,,,,,,,,,,,,,,,1,,,67,47
77400,note_on,120,0,1,,,,,,,,,,,,,,,0,,,69,47
77400,note_off,0,0,2,,,,,,,,,,,,,,,1,,,67,0
77400,note_off,120,0,4,,,,,,,,,,,,,,,3,,,49,0
77400,note_off,120,0,2,,,,,,,,,,,,,,,1,,,64,0
77400,note_on,0,0,4,,,,,,,,,,,,,,,3,,,50,59
77520,note_off,120,0,1,,,,,,,,,,,,,,,0,,,69,0
77520,note_on,0,0,4,,,,,,,,,,,,,,,3,,,52,57
77520,note_on,120,0,2,,,,,,,,,,,,,,,1,,,64,48
77520,note_on,0,0,2,,,,,,,,,,,,,,,1,,,67,48
77520,note_off,120,0,4,,,,,,,,,,,,,,,3,,,50,0
77640,note_off,0,0,2,,,,,,,,,,,,,,,1,,,67,0
77640,note_on,0,0,4,,,,,,,,,,,,,,,3,,,49,56
77640,note_off,120,0,4,,,,,,,,,,,,,,,3,,,52,0
77640,set_tempo,1800,1,0,,,,,,,454545,,,,,,,,,,,,
77640,note_on,120,0,1,,,,,,,,,,,,,,,0,,,69,48
77640,note_off,120,0,2,,,,,,,,,,,,,,,1,,,64,0
77760,set_tempo,120,1,0,,,,,,,447761,,,,,,,,,,,,
77760,control_change,120,0,2,,,,,,,,,,,,,64,0,1,,,,
77760,note_on,0,0,4,,,,,,,,,,,,,,,3,,,50,54
77760,note_off,120,0,4,,,,,,,,,,,,,,,3,,,49,0
77760,note_on,0,0,2,,,,,,,,,,,,,,,1,,,62,49
77760,control_change,120,0,1,,,,,,,,,,,,,64,0,0,,,,
77760,note_off,0,0,1,,,,,,,,,,,,,,,0,,,69,0
77760,note_on,0,0,2,,,,,,,,,,,,,,,1,,,66,49
77820,control_change,60,0,2,,,,,,,,,,,,,64,127,1,,,,
77820,control_change,60,0,1,,,,,,,,,,,,,64,127,0,,,,
77880,note_on,60,0,1,,,,,,,,,,,,,,,0,,,69,49
77880,note_off,60,0,2,,,,,,,,,,,,,,,1,,,66,0
77880,note_off,0,0,2,,,,,,,,,,,,,,,1,,,62,0
77940,note_off,180,0,4,,,,,,,,,,,,,,,3,,,50,0
78000,note_on,60,0,4,,,,,,,,,,,,,,,3,,,54,71
78000,note_on,0,0,2,,,,,,,,,,,,,,,1,,,62,50
78000,note_on,120,0,2,,,,,,,,,,,,,,,1,,,66,50
78000,note_off,120,0,1,,,,,,,,,,,,,,,0,,,69,0
78120,note_on,120,0,1,,,,,,,,,,,,,,,0,,,69,51
78120,note_off,0,0,2,,,,,,,,,,,,,,,1,,,62,0
78120,note_off,120,0,2,,,,,,,,,,,,,,,1,,,66,0
78240,note_on,0,0,2,,,,,,,,,,,,,,,1,,,69,51
78240,note_on,0,0,2,,,,,,,,,,,,,,,1,,,63,51
78240,control_change,120,0,2,,,,,,,,,,,,,64,0,1,,,,
78240,control_change,120,0,1,,,,,,,,,,,,,64,0,0,,,,
78240,note_off,0,0,1,,,,,,,,,,,,,,,0,,,69,0
78300,control_change,60,0,2,,,,,,,,,,,,,64,127,1,,,,
78300,control_change,60,0,1,,,,,,,,,,,,,64,127,0,,,,
78360,note_off,60,0,2,,,,,,,,,,,,,,,1,,,63,0
78360,note_off,0,0,2,,,,,,,,,,,,,,,1,,,69,0
78360,note_on,60,0,1,,,,,,,,,,,,,,,0,,,72,52
78480,note_on,0,0,4,,,,,,,,,,,,,,,3,,,54,63
78480,note_off,480,0,4,,,,,,,,,,,,,,,3,,,54,0
78480,note_on,0,0,2,,,,,,,,,,,,,,,1,,,69,52
78480,note_on,120,0,2,,,,,,,,,,,,,,,1,,,63,52
78480,note_off,120,0,1,,,,,,,,,,,,,,,0,,,72,0
78600,note_off,0,0,2,,,,,,,,,,,,,,,1,,,69,0
78600,note_off,120,0,2,,,,,,,,,,,,,,,1,,,63,0
78600,note_on,120,0,1,,,,,,,,,,,,,,,0,,,72,53
78720,note_on,0,0,2,,,,,,,,,,,,,,,1,,,68,53
78720,control_change,120,0,2,,,,,,,,,,,,,64,0,1,,,,
78720,note_on,0,0,4,,,,,,,,,,,,,,,3,,,53,81
78720,note_off,240,0,4,,,,,,,,,,,,,,,3,,,54,0
78720,control_change,120,0,1,,,,,,,,,,,,,64,0,0,,,,
78720,note_off,0,0,1,,,,,,,,,,,,,,,0,,,72,0
78720,note_on,0,0,2,,,,,,,,,,,,,,,1,,,71,53
78780,control_change,60,0,2,,,,,,,,,,,,,64,127,1,,,,
78780,control_change,60,0,1,,,,,,,,,,,,,64,127,0,,,,
78840,note_off,60,0,2,,,,,,,,,,,,,,,1,,,68,0
78840,note_off,0,0,2,,,,,,,,,,,,,,,1,,,71,0
78840,note_on,60,0,1,,,,,,,,,,,,,,,0,,,73,54
78900,note_off,180,0,4,,,,,,,,,,,,,,,3,,,53,0
78960,note_on,60,0,4,,,,,,,,,,,,,,,3,,,56,78
78960,note_on,120,0,2,,,,,,,,,,,,,,,1,,,68,55
78960,note_on,0,0,2,,,,,,,,,,,,,,,1,,,71,55
78960,note_off,120,0,1,,,,,,,,,,,,,,,0,,,73,0
79080,note_off,120,0,4,,,,,,,,,,,,,,,3,,,56,0
79080,note_on,0,0,4,,,,,,,,,,,,,,,3,,,54,77
79080,note_off,0,0,2,,,,,,,,,,,,,,,1,,,71,0
79080,note_on,120,0,1,,,,,,,,,,,,,,,0,,,73,55
79080,note_off,120,0,2,,,,,,,,,,,,,,,1,,,68,0
79200,note_off,120,0,4,,,,,,,,,,,,,,,3,,,54,0
79200,note_on,0,0,4,,,,,,,,,,,,,,,3,,,53,76
79200,note_on,0,0,2,,,,,,,,,,,,,,,1,,,71,56
79200,note_on,120,0,2,,,,,,,,,,,,,,,1,,,68,56
79200,note_off,120,0,1,,,,,,,,,,,,,,,0,,,73,0
79320,note_off,120,0,2,,,,,,,,,,,,,,,1,,,68,0
79320,note_off,120,0,4,,,,,,,,,,,,,,,3,,,53,0
79320,note_on,0,0,4,,,,,,,,,,,,,,,3,,,54,74
79320,note_off,0,0,2,,,,,,,,,,,,,,,1,,,71,0
79320,note_on,120,0,1,,,,,,,,,,,,,,,0,,,73,56
79440,note_off,120,0,4,,,,,,,,,,,,,,,3,,,54,0
79440,note_on,0,0,4,,,,,,,,,,,,,,,3,,,56,73
79440,note_off,120,0,1,,,,,,,,,,,,,,,0,,,73,0
79440,note_on,120,0,2,,,,,,,,,,,,,,,1,,,68,57
79440,note_on,0,0,2,,,,,,,,,,,,,,,1,,,71,57
79560,set_tempo,1800,1,0,,,,,,,454545,,,,,,,,,,,,
79560,note_off,120,0,2,,,,,,,,,,,,,,,1,,,68,0
79560,note_off,120,0,4,,,,,,,,,,,,,,,3,,,56,0
79560,note_on,0,0,4,,,,,,,,,,,,,,,3,,,53,72
79560,note_off,0,0,2,,,,,,,,,,,,,,,1,,,71,0
79560,note_on,120,0,1,,,,,,,,,,,,,,,0,,,73,57
79680,control_change,120,0,2,,,,,,,,,,,,,64,0,1,,,,
79680,note_off,0,0,1,,,,,,,,,,,,,,,0,,,73,0
79680,note_on,0,0,4,,,,,,,,,,,,,,,3,,,54,70
79680,note_on,0,0,2,,,,,,,,,,,,,,,1,,,66,58
79680,note_off,120,0,4,,,,,,,,,,,,,,,3,,,53,0
79680,set_tempo,120,1,0,,,,,,,447761,,,,,,,,,,,,
79680,control_change,120,0,1,,,,,,,,,,,,,64,0,0,,,,
79680,note_on,0,0,2,,,,,,,,,,,,,,,1,,,69,58
79740,control_change,60,0,1,,,,,,,,,,,,,64,127,0,,,,
79740,control_change,60,0,2,,,,,,,,,,,,,64,127,1,,,,
79800,note_on,60,0,1,,,,,,,,,,,,,,,0,,,73,59
79800,note_off,0,0,2,,,,,,,,,,,,,,,1,,,69,0
79800,note_off,60,0,2,,,,,,,,,,,,,,,1,,,66,0
79860,note_off,180,0,4,,,,,,,,,,,,,,,3,,,54,0
79920,note_off,120,0,1,,,,,,,,,,,,,,,0,,,73,0
79920,note_on,60,0,4,,,,,,,,,,,,,,,3,,,57,83
79920,note_on,0,0,2,,,,,,,,,,,,,,,1,,,69,59
79920,note_on,120,0,2,,,,,,,,,,,,,,,1,,,66,59
80040,note_off,0,0,2,,,,,,,,,,,,,,,1,,,69,0
80040,note_off,120,0,2,,,,,,,,,,,,,,,1,,,66,0
80040,note_on,120,0,1,,,,,,,,,,,,,,,0,,,73,60
80160,note_on,0,0,2,,,,,,,,,,,,,,,1,,,69,60
80160,note_off,120,0,1,,,,,,,,,,,,,,,0,,,73,0
80160,note_on,120,0,2,,,,,,,,,,,,,,,1,,,66,60
80280,note_off,120,0,2,,,,,,,,,,,,,,,1,,,66,0
80280,note_off,0,0,2,,,,,,,,,,,,,,,1,,,69,0
80280,note_on,120,0,1,,,,,,,,,,,,,,,0,,,73,61
80400,note_on,0,0,4,,,,,,,,,,,,,,,3,,,57,73
80400,note_off,480,0,4,,,,,,,,,,,,,,,3,,,57,0
80400,note_on,120,0,2,,,,,,,,,,,,,,,1,,,66,61
80400,note_on,0,0,2,,,,,,,,,,,,,,,1,,,69,61
80400,note_off,120,0,1,,,,,,,,,,,,,,,0,,,73,0
80520,note_on,120,0,1,,,,,,,,,,,,,,,0,,,73,62
80520,note_off,120,0,2,,,,,,,,,,,,,,,1,,,66,0
80520,note_off,0,0,2,,,,,,,,,,,,,,,1,,,69,0
80640,note_on,0,0,4,,,,,,,,,,,,,,,3,,,57,70
80640,note_off,0,0,1,,,,,,,,,,,,,,,0,,,73,0
80640,control_change,120,0,2,,,,,,,,,,,,,64,0,1,,,,
80640,control_change,120,0,1,,,,,,,,,,,,,64,0,0,,,,
80640,note_off,240,0,4,,,,,,,,,,,,,,,3,,,57,0
80640,note_on,0,0,2,,,,,,,,,,,,,,,1,,,66,65
80700,control_change,60,0,2,,,,,,,,,,,,,64,127,1,,,,
80700,control_change,60,0,1,,,,,,,,,,,,,64,127,0,,,,
80760,note_off,60,0,2,,,,,,,,,,,,,,,1,,,66,0
80760,note_on,60,0,1,,,,,,,,,,,,,,,0,,,75,65
80880,note_off,240,0,4,,,,,,,,,,,,,,,3,,,57,0
80880,note_on,0,0,4,,,,,,,,,,,,,,,3,,,47,78
80880,note_off,120,0,1,,,,,,,,,,,,,,,0,,,75,0
80880,note_on,120,0,2,,,,,,,,,,,,,,,1,,,71,64
81000,note_on,120,0,1,,,,,,,,,,,,,,,0,,,75,64
81000,note_off,120,0,2,,,,,,,,,,,,,,,1,,,71,0
81120,note_off,0,0,1,,,,,,,,,,,,,,,0,,,75,0
81120,control_change,120,0,1,,,,,,,,,,,,,64,0,0,,,,
81120,control_change,120,0,2,,,,,,,,,,,,,64,0,1,,,,
81120,note_on,0,0,2,,,,,,,,,,,,,,,1,,,67,63
81180,control_change,60,0,1,,,,,,,,,,,,,64,127,0,,,,
81180,control_change,60,0,2,,,,,,,,,,,,,64,127,1,,,,
81240,note_on,60,0,1,,,,,,,,,,,,,,,0,,,76,63
81240,note_off,60,0,2,,,,,,,,,,,,,,,1,,,67,0
81360,note_on,120,0,2,,,,,,,,,,,,,,,1,,,71,63
81360,note_on,0,0,4,,,,,,,,,,,,,,,3,,,55,69
81360,note_off,480,0,4,,,,,,,,,,,,,,,3,,,47,0
81360,note_off,120,0,1,,,,,,,,,,,,,,,0,,,76,0
81480,note_on,120,0,1,,,,,,,,,,,,,,,0,,,76,62
81480,note_off,120,0,2,,,,,,,,,,,,,,,1,,,71,0
81600,note_on,0,0,2,,,,,,,,,,,,,,,1,,,64,62
81600,control_change,120,0,2,,,,,,,,,,,,,64,0,1,,,,
81600,note_on,0,0,4,,,,,,,,,,,,,,,3,,,55,67
81600,note_off,0,0,1,,,,,,,,,,,,,,,0,,,76,0
81600,control_change,120,0,1,,,,,,,,,,,,,64,0,0,,,,
81600,note_off,240,0,4,,,,,,,,,,,,,,,3,,,55,0
81660,control_change,60,0,1,,,,,,,,,,,,,64,127,0,,,,
81660,control_change,60,0,2,,,,,,,,,,,,,64,127,1,,,,
81720,note_off,60,0,2,,,,,,,,,,,,,,,1,,,64,0
81720,note_on,60,0,1,,,,,,,,,,,,,,,0,,,73,61
81840,note_on,0,0,4,,,,,,,,,,,,,,,3,,,45,75
81840,note_off,120,0,1,,,,,,,,,,,,,,,0,,,73,0
81840,note_off,240,0,4,,,,,,,,,,,,,,,3,,,55,0
81840,note_on,120,0,2,,,,,,,,,,,,,,,1,,,69,61
81960,note_off,120,0,2,,,,,,,,,,,,,,,1,,,69,0
81960,note_on,120,0,1,,,,,,,,,,,,,,,0,,,73,60
82080,control_change,120,0,2,,,,,,,,,,,,,64,0,1,,,,
82080,note_on,0,0,2,,,,,,,,,,,,,,,1,,,66,60
82080,control_change,120,0,1,,,,,,,,,,,,,64,0,0,,,,
82080,note_off,0,0,1,,,,,,,,,,,,,,,0,,,73,0
82140,control_change,60,0,1,,,,,,,,,,,,,64,127,0,,,,
82140,control_change,60,0,2,,,,,,,,,,,,,64,127,1,,,,
82200,note_on,60,0,1,,,,,,,,,,,,,,,0,,,74,59
82200,note_off,60,0,2,,,,,,,,,,,,,,,1,,,66,0
82320,note_off,480,0,4,,,,,,,,,,,,,,,3,,,45,0
82320,note_on,120,0,2,,,,,,,,,,,,,,,1,,,69,59
82320,note_off,120,0,1,,,,,,,,,,,,,,,0,,,74,0
82320,note_on,0,0,4,,,,,,,,,,,,,,,3,,,54,65
82440,note_on,120,0,1,,,,,,,,,,,,,,,0,,,74,58
82440,note_off,120,0,2,,,,,,,,,,,,,,,1,,,69,0
82560,control_change,120,0,1,,,,,,,,,,,,,64,0,0,,,,
82560,control_change,120,0,2,,,,,,,,,,,,,64,0,1,,,,
82560,note_on,0,0,2,,,,,,,,,,,,,,,1,,,62,58
82560,note_off,0,0,1,,,,,,,,,,,,,,,0,,,74,0
82560,note_on,0,0,4,,,,,,,,,,,,,,,3,,,54,62
82560,note_off,240,0,4,,,,,,,,,,,,,,,3,,,54,0
82620,control_change,60,0,2,,,,,,,,,,,,,64,127,1,,,,
82620,control_change,60,0,1,,,,,,,,,,,,,64,127,0,,,,
82680,note_off,60,0,2,,,,,,,,,,,,,,,1,,,62,0
82680,note_on,60,0,1,,,,,,,,,,,,,,,0,,,71,57
82800,note_off,240,0,4,,,,,,,,,,,,,,,3,,,54,0
82800,note_on,0,0,4,,,,,,,,,,,,,,,3,,,43,73
82800,note_off,120,0,1,,,,,,,,,,,,,,,0,,,71,0
82800,note_on,120,0,2,,,,,,,,,,,,,,,1,,,67,57
82920,note_on,120,0,1,,,,,,,,,,,,,,,0,,,71,56
82920,note_off,120,0,2,,,,,,,,,,,,,,,1,,,67,0
83040,control_change,120,0,1,,,,,,,,,,,,,64,0,0,,,,
83040,control_change,120,0,2,,,,,,,,,,,,,64,0,1,,,,
83040,note_on,0,0,2,,,,,,,,,,,,,,,1,,,64,56
83040,note_off,0,0,1,,,,,,,,,,,,,,,0,,,71,0
83100,control_change,60,0,2,,,,,,,,,,,,,64,127,1,,,,
83100,control_change,60,0,1,,,,,,,,,,,,,64,127,0,,,,
83160,note_off,60,0,2,,,,,,,,,,,,,,,1,,,64,0
83160,note_on,60,0,1,,,,,,,,,,,,,,,0,,,73,55
83280,note_on,0,0,4,,,,,,,,,,,,,,,3,,,52,65
83280,note_off,120,0,1,,,,,,,,,,,,,,,0,,,73,0
83280,note_on,120,0,2,,,,,,,,,,,,,,,1,,,67,56
83280,note_off,480,0,4,,,,,,,,,,,,,,,3,,,43,0
83400,note_on,120,0,1,,,,,,,,,,,,,,,0,,,73,54
83400,note_off,120,0,2,,,,,,,,,,,,,,,1,,,67,0
83520,note_off,240,0,4,,,,,,,,,,,,,,,3,,,52,0
83520,note_on,0,0,4,,,,,,,,,,,,,,,3,,,52,64
83520,note_on,0,0,2,,,,,,,,,,,,,,,1,,,61,55
83520,control_change,120,0,1,,,,,,,,,,,,,64,0,0,,,,
83520,control_change,120,0,2,,,,,,,,,,,,,64,0,1,,,,
83520,note_off,0,0,1,,,,,,,,,,,,,,,0,,,73,0
83580,control_change,60,0,2,,,,,,,,,,,,,64,127,1,,,,
83580,control_change,60,0,1,,,,,,,,,,,,,64,127,0,,,,
83640,note_off,60,0,2,,,,,,,,,,,,,,,1,,,61,0
83640,note_on,60,0,1,,,,,,,,,,,,,,,0,,,70,53
83760,note_off,120,0,1,,,,,,,,,,,,,,,0,,,70,0
83760,note_on,120,0,2,,,,,,,,,,,,,,,1,,,66,54
83760,note_on,240,0,4,,,,,,,,,,,,,,,3,,,42,62
83880,note_off,120,0,2,,,,,,,,,,,,,,,1,,,66,0
83880,note_on,120,0,1,,,,,,,,,,,,,,,0,,,70,52
84000,note_on,0,0,2,,,,,,,,,,,,,,,1,,,59,53
84000,control_change,120,0,2,,,,,,,,,,,,,64,0,1,,,,
84000,note_off,240,0,4,,,,,,,,,,,,,,,3,,,42,0
84000,note_on,0,0,4,,,,,,,,,,,,,,,3,,,43,61
84000,note_off,0,0,1,,,,,,,,,,,,,,,0,,,70,0
84000,control_change,120,0,1,,,,,,,,,,,,,64,0,0,,,,
84060,control_change,60,0,1,,,,,,,,,,,,,64,127,0,,,,
84060,control_change,60,0,2,,,,,,,,,,,,,64,127,1,,,,
84120,note_on,60,0,1,,,,,,,,,,,,,,,0,,,71,51
84120,note_off,60,0,2,,,,,,,,,,,,,,,1,,,59,0
84240,note_off,240,0,4,,,,,,,,,,,,,,,3,,,52,0
84240,note_on,0,0,4,,,,,,,,,,,,,,,3,,,50,59
84240,note_on,120,0,2,,,,,,,,,,,,,,,1,,,59,52
84240,note_off,120,0,1,,,,,,,,,,,,,,,0,,,71,0
84360,note_on,120,0,1,,,,,,,,,,,,,,,0,,,71,50
84360,note_off,120,0,2,,,,,,,,,,,,,,,1,,,59,0
84420,set_tempo,4740,1,0,,,,,,,454545,,,,,,,,,,,,
84480,note_off,240,0,4,,,,,,,,,,,,,,,3,,,43,0
84480,note_on,0,0,2,,,,,,,,,,,,,,,1,,,67,51
84480,control_change,120,0,2,,,,,,,,,,,,,64,0,1,,,,
84480,note_off,0,0,4,,,,,,,,,,,,,,,3,,,50,0
84480,note_on,0,0,4,,,,,,,,,,,,,,,3,,,50,58
84480,note_on,0,0,4,,,,,,,,,,,,,,,3,,,40,63
84480,control_change,120,0,1,,,,,,,,,,,,,64,0,0,,,,
84480,note_off,0,0,1,,,,,,,,,,,,,,,0,,,71,0
84540,control_change,60,0,2,,,,,,,,,,,,,64,127,1,,,,
84540,control_change,60,0,1,,,,,,,,,,,,,64,127,0,,,,
84600,note_on,60,0,1,,,,,,,,,,,,,,,0,,,79,49
84600,note_off,60,0,2,,,,,,,,,,,,,,,1,,,67,0
84720,note_on,120,0,2,,,,,,,,,,,,,,,1,,,67,50
84720,note_on,0,0,4,,,,,,,,,,,,,,,3,,,49,56
84720,note_off,240,0,4,,,,,,,,,,,,,,,3,,,50,0
84720,note_off,120,0,1,,,,,,,,,,,,,,,0,,,79,0
84840,note_on,120,0,1,,,,,,,,,,,,,,,0,,,79,48
84840,note_off,120,0,2,,,,,,,,,,,,,,,1,,,67,0
84960,note_off,0,0,1,,,,,,,,,,,,,,,0,,,79,0
84960,note_on,0,0,2,,,,,,,,,,,,,,,1,,,61,49
84960,control_change,120,0,2,,,,,,,,,,,,,64,0,1,,,,
84960,note_off,240,0,4,,,,,,,,,,,,,,,3,,,40,0
84960,control_change,120,0,1,,,,,,,,,,,,,64,0,0,,,,
84960,note_off,0,0,4,,,,,,,,,,,,,,,3,,,49,0
84960,note_on,0,0,4,,,,,,,,,,,,,,,3,,,42,60
84960,note_on,0,0,4,,,,,,,,,,,,,,,3,,,47,55
85020,control_change,60,0,1,,,,,,,,,,,,,64,127,0,,,,
85020,control_change,60,0,2,,,,,,,,,,,,,64,127,1,,,,
85080,note_on,60,0,1,,,,,,,,,,,,,,,0,,,73,47
85080,note_off,60,0,2,,,,,,,,,,,,,,,1,,,61,0
85200,note_off,0,0,1,,,,,,,,,,,,,,,0,,,73,0
85200,control_change,0,0,2,,,,,,,,,,,,,64,0,1,,,,
85200,note_on,120,0,2,,,,,,,,,,,,,,,1,,,66,48
85200,set_tempo,780,1,0,,,,,,,461538,,,,,,,,,,,,
85200,note_off,240,0,4,,,,,,,,,,,,,,,3,,,47,0
85200,note_on,0,0,4,,,,,,,,,,,,,,,3,,,46,53
85200,control_change,120,0,1,,,,,,,,,,,,,64,0,0,,,,
85260,control_change,60,0,2,,,,,,,,,,,,,64,127,1,,,,
85260,control_change,60,0,1,,,,,,,,,,,,,64,127,0,,,,
85320,note_off,60,0,2,,,,,,,,,,,,,,,1,,,66,0
85320,set_tempo,120,1,0,,,,,,,480000,,,,,,,,,,,,
85320,note_on,60,0,1,,,,,,,,,,,,,,,0,,,78,46
85440,note_on,0,0,4,,,,,,,,,,,,,,,3,,,35,57
85440,note_on,0,0,4,,,,,,,,,,,,,,,3,,,47,57
85440,note_on,0,0,1,,,,,,,,,,,,,,,0,,,59,44
85440,note_on,0,0,1,,,,,,,,,,,,,,,0,,,71,44
85440,control_change,120,0,2,,,,,,,,,,,,,64,0,1,,,,
85440,note_off,240,0,4,,,,,,,,,,,,,,,3,,,42,0
85440,note_off,0,0,4,,,,,,,,,,,,,,,3,,,46,0
85440,note_off,0,0,1,,,,,,,,,,,,,,,0,,,78,0
85440,control_change,120,0,1,,,,,,,,,,,,,64,0,0,,,,
85480,set_tempo,160,1,0,,,,,,,447761,,,,,,,,,,,,
85620,note_off,180,0,1,,,,,,,,,,,,,,,0,,,71,0
85620,note_off,0,0,1,,,,,,,,,,,,,,,0,,,59,0
85680,note_on,0,0,3,,,,,,,,,,,,,,,2,,,59,40
85680,note_on,60,0,1,,,,,,,,,,,,,,,0,,,74,51
85680,note_on,14880,0,3,,,,,,,,,,,,,,,2,,,62,40
85920,note_off,240,0,3,,,,,,,,,,,,,,,2,,,62,0
85920,note_off,0,0,3,,,,,,,,,,,,,,,2,,,59,0
85920,note_on,0,0,3,,,,,,,,,,,,,,,2,,,62,41
85920,note_on,0,0,3,,,,,,,,,,,,,,,2,,,59,41
86160,note_off,480,0,1,,,,,,,,,,,,,,,0,,,74,0
86160,note_on,0,0,3,,,,,,,,,,,,,,,2,,,62,42
86160,note_on,0,0,3,,,,,,,,,,,,,,,2,,,59,42
86160,note_off,0,0,3,,,,,,,,,,,,,,,2,,,59,0
86160,note_off,240,0,3,,,,,,,,,,,,,,,2,,,62,0
86160,note_on,0,0,1,,,,,,,,,,,,,,,0,,,74,46
86400,note_off,240,0,3,,,,,,,,,,,,,,,2,,,62,0
86400,note_off,0,0,3,,,,,,,,,,,,,,,2,,,59,0
86400,note_off,0,0,4,,,,,,,,,,,,,,,3,,,47,0
86400,note_off,960,0,4,,,,,,,,,,,,,,,3,,,35,0
86400,note_off,240,0,1,,,,,,,,,,,,,,,0,,,74,0
86400,note_on,0,0,1,,,,,,,,,,,,,,,0,,,73,58
86400,note_on,0,0,4,,,,,,,,,,,,,,,3,,,45,55
86580,note_off,180,0,1,,,,,,,,,,,,,,,0,,,73,0
86640,note_on,60,0,1,,,,,,,,,,,,,,,0,,,76,55
86640,note_on,0,0,3,,,,,,,,,,,,,,,2,,,61,44
86640,note_on,240,0,3,,,,,,,,,,,,,,,2,,,57,44
86640,note_on,0,0,3,,,,,,,,,,,,,,,2,,,64,44
86760,note_on,0,0,1,,,,,,,,,,,,,,,0,,,74,54
86760,note_off,120,0,1,,,,,,,,,,,,,,,0,,,76,0
86880,note_off,240,0,3,,,,,,,,,,,,,,,2,,,57,0
86880,note_on,0,0,3,,,,,,,,,,,,,,,2,,,57,45
86880,note_off,0,0,3,,,,,,,,,,,,,,,2,,,64,0
86880,note_on,0,0,3,,,,,,,,,,,,,,,2,,,64,45
86880,note_off,0,0,3,,,,,,,,,,,,,,,2,,,61,0
86880,note_on,0,0,3,,,,,,,,,,,,,,,2,,,61,45
86880,note_off,120,0,1,,,,,,,,,,,,,,,0,,,74,0
86880,note_on,0,0,1,,,,,,,,,,,,,,,0,,,73,53
87000,note_off,120,0,1,,,,,,,,,,,,,,,0,,,73,0
87000,note_on,0,0,1,,,,,,,,,,,,,,,0,,,74,52
87120,note_off,120,0,1,,,,,,,,,,,,,,,0,,,74,0
87120,note_on,0,0,1,,,,,,,,,,,,,,,0,,,76,52
87120,note_off,240,0,3,,,,,,,,,,,,,,,2,,,57,0
87120,note_off,0,0,3,,,,,,,,,,,,,,,2,,,61,0
87120,note_off,0,0,3,,,,,,,,,,,,,,,2,,,64,0
87120,note_on,0,0,3,,,,,,,,,,,,,,,2,,,57,46
87120,note_on,0,0,3,,,,,,,,,,,,,,,2,,,61,46
87120,note_on,0,0,3,,,,,,,,,,,,,,,2,,,64,46
87240,note_off,120,0,1,,,,,,,,,,,,,,,0,,,76,0
87240,note_on,0,0,1,,,,,,,,,,,,,,,0,,,73,51
87240,set_tempo,1760,1,0,,,,,,,454545,,,,,,,,,,,,
87360,note_on,0,0,4,,,,,,,,,,,,,,,3,,,50,59
87360,note_on,0,0,1,,,,,,,,,,,,,,,0,,,74,50
87360,note_off,240,0,3,,,,,,,,,,,,,,,2,,,57,0
87360,note_off,0,0,3,,,,,,,,,,,,,,,2,,,61,0
87360,note_off,120,0,1,,,,,,,,,,,,,,,0,,,73,0
87360,note_off,0,0,3,,,,,,,,,,,,,,,2,,,64,0
87360,note_off,960,0,4,,,,,,,,,,,,,,,3,,,45,0
87430,set_tempo,190,1,0,,,,,,,447761,,,,,,,,,,,,
87540,note_off,180,0,1,,,,,,,,,,,,,,,0,,,74,0
87600,note_on,240,0,3,,,,,,,,,,,,,,,2,,,62,48
87600,note_on,0,0,3,,,,,,,,,,,,,,,2,,,66,48
87600,note_on,60,0,1,,,,,,,,,,,,,,,0,,,78,61
87840,note_off,0,0,3,,,,,,,,,,,,,,,2,,,66,0
87840,note_off,240,0,3,,,,,,,,,,,,,,,2,,,62,0
87840,note_on,0,0,3,,,,,,,,,,,,,,,2,,,66,49
87840,note_on,0,0,3,,,,,,,,,,,,,,,2,,,62,49
88080,note_on,0,0,1,,,,,,,,,,,,,,,0,,,78,57
88080,note_off,480,0,1,,,,,,,,,,,,,,,0,,,78,0
88080,note_on,0,0,3,,,,,,,,,,,,,,,2,,,62,50
88080,note_off,240,0,3,,,,,,,,,,,,,,,2,,,62,0
88080,note_off,0,0,3,,,,,,,,,,,,,,,2,,,66,0
88080,note_on,0,0,3,,,,,,,,,,,,,,,2,,,66,50
88320,note_on,0,0,1,,,,,,,,,,,,,,,0,,,77,70
88320,note_off,240,0,1,,,,,,,,,,,,,,,0,,,78,0
88320,note_off,960,0,4,,,,,,,,,,,,,,,3,,,50,0
88320,note_on,0,0,4,,,,,,,,,,,,,,,3,,,49,62
88320,note_off,0,0,3,,,,,,,,,,,,,,,2,,,62,0
88320,note_off,240,0,3,,,,,,,,,,,,,,,2,,,66,0
88500,note_off,180,0,1,,,,,,,,,,,,,,,0,,,77,0
88560,note_on,240,0,3,,,,,,,,,,,,,,,2,,,68,52
88560,note_on,60,0,1,,,,,,,,,,,,,,,0,,,80,65
88560,note_on,0,0,3,,,,,,,,,,,,,,,2,,,65,52
88560,note_on,0,0,3,,,,,,,,,,,,,,,2,,,61,52
88680,note_on,0,0,1,,,,,,,,,,,,,,,0,,,78,64
88680,note_off,120,0,1,,,,,,,,,,,,,,,0,,,80,0
88800,note_off,120,0,1,,,,,,,,,,,,,,,0,,,78,0
88800,note_on,0,0,1,,,,,,,,,,,,,,,0,,,77,63
88800,note_off,240,0,3,,,,,,,,,,,,,,,2,,,68,0
88800,note_off,0,0,3,,,,,,,,,,,,,,,2,,,61,0
88800,note_off,0,0,3,,,,,,,,,,,,,,,2,,,65,0
88800,note_on,0,0,3,,,,,,,,,,,,,,,2,,,61,53
88800,note_on,0,0,3,,,,,,,,,,,,,,,2,,,68,53
88800,note_on,0,0,3,,,,,,,,,,,,,,,2,,,65,53
88920,note_off,120,0,1,,,,,,,,,,,,,,,0,,,77,0
88920,note_on,0,0,1,,,,,,,,,,,,,,,0,,,78,62
89040,note_on,0,0,3,,,,,,,,,,,,,,,2,,,61,54
89040,note_on,0,0,3,,,,,,,,,,,,,,,2,,,68,54
89040,note_off,120,0,1,,,,,,,,,,,,,,,0,,,78,0
89040,note_on,0,0,3,,,,,,,,,,,,,,,2,,,65,54
89040,note_on,0,0,1,,,,,,,,,,,,,,,0,,,80,62
89040,note_off,0,0,3,,,,,,,,,,,,,,,2,,,68,0
89040,note_off,240,0,3,,,,,,,,,,,,,,,2,,,61,0
89040,note_off,0,0,3,,,,,,,,,,,,,,,2,,,65,0
89160,note_off,120,0,1,,,,,,,,,,,,,,,0,,,80,0
89160,set_tempo,1730,1,0,,,,,,,454545,,,,,,,,,,,,
89160,note_on,0,0,1,,,,,,,,,,,,,,,0,,,77,61
89280,note_off,120,0,1,,,,,,,,,,,,,,,0,,,77,0
89280,note_on,0,0,4,,,,,,,,,,,,,,,3,,,54,65
89280,note_off,960,0,4,,,,,,,,,,,,,,,3,,,49,0
89280,note_on,0,0,1,,,,,,,,,,,,,,,0,,,78,60
89280,note_off,240,0,3,,,,,,,,,,,,,,,2,,,68,0
89280,note_off,0,0,3,,,,,,,,,,,,,,,2,,,61,0
89280,note_off,0,0,3,,,,,,,,,,,,,,,2,,,65,0
89340,set_tempo,180,1,0,,,,,,,447761,,,,,,,,,,,,
89460,note_off,180,0,1,,,,,,,,,,,,,,,0,,,78,0
89520,note_on,0,0,3,,,,,,,,,,,,,,,2,,,69,56
89520,note_on,60,0,1,,,,,,,,,,,,,,,0,,,81,71
89520,note_on,240,0,3,,,,,,,,,,,,,,,2,,,66,56
89760,note_off,240,0,3,,,,,,,,,,,,,,,2,,,66,0
89760,note_off,0,0,3,,,,,,,,,,,,,,,2,,,69,0
89760,note_on,0,0,3,,,,,,,,,,,,,,,2,,,66,57
89760,note_on,0,0,3,,,,,,,,,,,,,,,2,,,69,57
90000,note_on,0,0,1,,,,,,,,,,,,,,,0,,,81,68
90000,note_off,480,0,1,,,,,,,,,,,,,,,0,,,81,0
90000,note_on,0,0,3,,,,,,,,,,,,,,,2,,,69,58
90000,note_off,240,0,3,,,,,,,,,,,,,,,2,,,66,0
90000,note_off,0,0,3,,,,,,,,,,,,,,,2,,,69,0
90000,note_on,0,0,3,,,,,,,,,,,,,,,2,,,66,58
90187,set_tempo,847,1,0,,,,,,,454545,,,,,,,,,,,,
90240,note_off,240,0,3,,,,,,,,,,,,,,,2,,,66,0
90240,note_off,240,0,1,,,,,,,,,,,,,,,0,,,81,0
90240,note_on,0,0,1,,,,,,,,,,,,,,,0,,,81,66
90240,set_tempo,53,1,0,,,,,,,447761,,,,,,,,,,,,
90240,note_on,0,0,4,,,,,,,,,,,,,,,3,,,51,69
90240,note_off,960,0,4,,,,,,,,,,,,,,,3,,,54,0
90240,note_off,0,0,3,,,,,,,,,,,,,,,2,,,69,0
90360,note_on,4920,0,2,,,,,,,,,,,,,,,1,,,71,65
90480,note_on,240,0,3,,,,,,,,,,,,,,,2,,,63,60
90480,note_off,120,0,2,,,,,,,,,,,,,,,1,,,71,0
90480,note_on,0,0,2,,,,,,,,,,,,,,,1,,,70,65
90480,note_on,0,0,3,,,,,,,,,,,,,,,2,,,66,60
90600,note_on,0,0,2,,,,,,,,,,,,,,,1,,,71,66
90600,note_off,120,0,2,,,,,,,,,,,,,,,1,,,70,0
90720,note_off,120,0,2,,,,,,,,,,,,,,,1,,,71,0
90720,note_off,240,0,3,,,,,,,,,,,,,,,2,,,63,0
90720,note_on,0,0,2,,,,,,,,,,,,,,,1,,,71,66
90720,note_off,0,0,3,,,,,,,,,,,,,,,2,,,66,0
90720,note_off,480,0,4,,,,,,,,,,,,,,,3,,,51,0
90720,note_on,0,0,4,,,,,,,,,,,,,,,3,,,52,70
90840,note_off,600,0,1,,,,,,,,,,,,,,,0,,,81,0
90840,note_on,0,0,1,,,,,,,,,,,,,,,0,,,79,70
90960,note_on,240,0,3,,,,,,,,,,,,,,,2,,,64,62
90960,note_on,0,0,1,,,,,,,,,,,,,,,0,,,78,71
90960,note_off,120,0,1,,,,,,,,,,,,,,,0,,,79,0
90960,note_on,0,0,3,,,,,,,,,,,,,,,2,,,67,62
91080,note_off,120,0,1,,,,,,,,,,,,,,,0,,,78,0
91080,note_on,0,0,1,,,,,,,,,,,,,,,0,,,79,71
91160,set_tempo,920,1,0,,,,,,,454545,,,,,,,,,,,,
91200,note_on,0,0,4,,,,,,,,,,,,,,,3,,,49,72
91200,note_off,120,0,1,,,,,,,,,,,,,,,0,,,79,0
91200,set_tempo,40,1,0,,,,,,,447761,,,,,,,,,,,,
91200,note_off,0,0,3,,,,,,,,,,,,,,,2,,,67,0
91200,note_off,480,0,4,,,,,,,,,,,,,,,3,,,52,0
91200,note_on,0,0,1,,,,,,,,,,,,,,,0,,,79,72
91200,note_off,240,0,3,,,,,,,,,,,,,,,2,,,64,0
91320,note_on,0,0,2,,,,,,,,,,,,,,,1,,,69,69
91320,note_off,600,0,2,,,,,,,,,,,,,,,1,,,71,0
91440,note_off,120,0,2,,,,,,,,,,,,,,,1,,,69,0
91440,note_on,0,0,2,,,,,,,,,,,,,,,1,,,68,69
91440,note_on,240,0,3,,,,,,,,,,,,,,,2,,,61,64
91440,note_on,0,0,3,,,,,,,,,,,,,,,2,,,64,64
91560,note_on,0,0,2,,,,,,,,,,,,,,,1,,,69,70
91560,note_off,120,0,2,,,,,,,,,,,,,,,1,,,68,0
91680,note_off,0,0,3,,,,,,,,,,,,,,,2,,,64,0
91680,note_off,480,0,4,,,,,,,,,,,,,,,3,,,49,0
91680,note_off,120,0,2,,,,,,,,,,,,,,,1,,,69,0
91680,note_off,240,0,3,,,,,,,,,,,,,,,2,,,61,0
91680,note_on,0,0,2,,,,,,,,,,,,,,,1,,,69,71
91680,note_on,0,0,4,,,,,,,,,,,,,,,3,,,50,73
91800,note_off,600,0,1,,,,,,,,,,,,,,,0,,,79,0
91800,note_on,0,0,1,,,,,,,,,,,,,,,0,,,78,75
91920,note_on,0,0,3,,,,,,,,,,,,,,,2,,,62,66
91920,note_on,240,0,3,,,,,,,,,,,,,,,2,,,66,66
91920,note_on,0,0,1,,,,,,,,,,,,,,,0,,,77,75
91920,note_off,120,0,1,,,,,,,,,,,,,,,0,,,78,0
92040,note_on,0,0,1,,,,,,,,,,,,,,,0,,,78,76
92040,note_off,120,0,1,,,,,,,,,,,,,,,0,,,77,0
92120,set_tempo,920,1,0,,,,,,,454545,,,,,,,,,,,,
92160,note_off,0,0,3,,,,,,,,,,,,,,,2,,,62,0
92160,set_tempo,40,1,0,,,,,,,447761,,,,,,,,,,,,
92160,note_off,240,0,3,,,,,,,,,,,,,,,2,,,66,0
92160,note_off,480,0,4,,,,,,,,,,,,,,,3,,,50,0
92160,note_on,0,0,1,,,,,,,,,,,,,,,0,,,78,76
92160,note_off,120,0,1,,,,,,,,,,,,,,,0,,,78,0
92160,note_on,0,0,4,,,,,,,,,,,,,,,3,,,47,75
92280,note_on,0,0,2,,,,,,,,,,,,,,,1,,,67,73
92280,note_off,600,0,2,,,,,,,,,,,,,,,1,,,69,0
92400,note_on,240,0,3,,,,,,,,,,,,,,,2,,,62,68
92400,note_on,0,0,3,,,,,,,,,,,,,,,2,,,59,68
92400,note_on,0,0,2,,,,,,,,,,,,,,,1,,,66,74
92400,note_off,120,0,2,,,,,,,,,,,,,,,1,,,67,0
92520,note_on,0,0,2,,,,,,,,,,,,,,,1,,,67,74
92520,note_off,120,0,2,,,,,,,,,,,,,,,1,,,66,0
92640,note_off,0,0,3,,,,,,,,,,,,,,,2,,,59,0
92640,note_off,480,0,4,,,,,,,,,,,,,,,3,,,47,0
92640,note_on,0,0,2,,,,,,,,,,,,,,,1,,,67,75
92640,note_on,0,0,4,,,,,,,,,,,,,,,3,,,49,77
92640,note_off,240,0,3,,,,,,,,,,,,,,,2,,,62,0
92640,note_off,120,0,2,,,,,,,,,,,,,,,1,,,67,0
92760,note_off,600,0,1,,,,,,,,,,,,,,,0,,,78,0
92760,note_on,0,0,1,,,,,,,,,,,,,,,0,,,76,79
92880,note_off,120,0,1,,,,,,,,,,,,,,,0,,,76,0
92880,note_on,240,0,3,,,,,,,,,,,,,,,2,,,61,70
92880,note_on,0,0,1,,,,,,,,,,,,,,,0,,,78,80
92880,note_on,0,0,3,,,,,,,,,,,,,,,2,,,64,70
93000,note_on,0,0,1,,,,,,,,,,,,,,,0,,,76,81
93000,note_off,120,0,1,,,,,,,,,,,,,,,0,,,78,0
93090,set_tempo,930,1,0,,,,,,,454545,,,,,,,,,,,,
93120,note_on,0,0,2,,,,,,,,,,,,,,,1,,,66,77
93120,note_off,480,0,4,,,,,,,,,,,,,,,3,,,49,0
93120,note_on,0,0,1,,,,,,,,,,,,,,,0,,,76,81
93120,note_off,120,0,1,,,,,,,,,,,,,,,0,,,76,0
93120,note_off,0,0,3,,,,,,,,,,,,,,,2,,,64,0
93120,note_off,240,0,3,,,,,,,,,,,,,,,2,,,61,0
93120,note_off,480,0,2,,,,,,,,,,,,,,,1,,,67,0
93120,note_on,0,0,4,,,,,,,,,,,,,,,3,,,46,78
93240,note_off,120,0,1,,,,,,,,,,,,,,,0,,,76,0
93240,note_on,0,0,1,,,,,,,,,,,,,,,0,,,76,80
93360,note_on,0,0,1,,,,,,,,,,,,,,,0,,,78,80
93360,note_off,120,0,1,,,,,,,,,,,,,,,0,,,76,0
93360,note_on,240,0,3,,,,,,,,,,,,,,,2,,,58,70
93360,note_on,0,0,3,,,,,,,,,,,,,,,2,,,61,70
93480,note_off,120,0,1,,,,,,,,,,,,,,,0,,,78,0
93480,note_on,0,0,1,,,,,,,,,,,,,,,0,,,76,79
93488,note_off,368,0,2,,,,,,,,,,,,,,,1,,,66,0
93600,note_on,112,0,2,,,,,,,,,,,,,,,1,,,66,75
93600,note_off,120,0,1,,,,,,,,,,,,,,,0,,,76,0
93600,note_on,0,0,4,,,,,,,,,,,,,,,3,,,47,74
93600,note_off,480,0,4,,,,,,,,,,,,,,,3,,,46,0
93600,note_off,0,0,3,,,,,,,,,,,,,,,2,,,61,0
93600,note_off,240,0,3,,,,,,,,,,,,,,,2,,,58,0
93720,note_on,120,0,1,,,,,,,,,,,,,,,0,,,74,77
93840,note_on,240,0,3,,,,,,,,,,,,,,,2,,,62,68
93840,note_on,0,0,3,,,,,,,,,,,,,,,2,,,59,68
93840,note_on,0,0,1,,,,,,,,,,,,,,,0,,,76,77
93840,note_off,120,0,1,,,,,,,,,,,,,,,0,,,74,0
93960,note_off,120,0,1,,,,,,,,,,,,,,,0,,,76,0
93960,note_on,0,0,1,,,,,,,,,,,,,,,0,,,74,76
93968,note_off,368,0,2,,,,,,,,,,,,,,,1,,,66,0
94040,set_tempo,950,1,0,,,,,,,461538,,,,,,,,,,,,
94080,note_off,480,0,4,,,,,,,,,,,,,,,3,,,47,0
94080,note_off,240,0,3,,,,,,,,,,,,,,,2,,,62,0
94080,note_off,120,0,1,,,,,,,,,,,,,,,0,,,74,0
94080,note_on,0,0,2,,,,,,,,,,,,,,,1,,,64,73
94080,note_off,0,0,3,,,,,,,,,,,,,,,2,,,59,0
94080,note_on,112,0,2,,,,,,,,,,,,,,,1,,,67,73
94080,note_on,0,0,4,,,,,,,,,,,,,,,3,,,40,72
94200,note_on,120,0,1,,,,,,,,,,,,,,,0,,,73,74
94320,note_off,120,0,1,,,,,,,,,,,,,,,0,,,73,0
94320,note_on,240,0,3,,,,,,,,,,,,,,,2,,,52,66
94320,note_on,0,0,1,,,,,,,,,,,,,,,0,,,74,74
94440,note_off,120,0,1,,,,,,,,,,,,,,,0,,,74,0
94440,note_on,0,0,1,,,,,,,,,,,,,,,0,,,73,73
94448,note_off,368,0,2,,,,,,,,,,,,,,,1,,,67,0
94448,note_off,0,0,2,,,,,,,,,,,,,,,1,,,64,0
94560,note_off,480,0,4,,,,,,,,,,,,,,,3,,,40,0
94560,note_on,112,0,2,,,,,,,,,,,,,,,1,,,64,70
94560,note_off,120,0,1,,,,,,,,,,,,,,,0,,,73,0
94560,note_on,0,0,4,,,,,,,,,,,,,,,3,,,42,70
94560,note_off,240,0,3,,,,,,,,,,,,,,,2,,,52,0
94560,note_on,0,0,2,,,,,,,,,,,,,,,1,,,61,70
94680,note_on,120,0,1,,,,,,,,,,,,,,,0,,,70,71
94800,note_on,240,0,3,,,,,,,,,,,,,,,2,,,54,63
94800,note_off,120,0,1,,,,,,,,,,,,,,,0,,,70,0
94800,note_on,0,0,1,,,,,,,,,,,,,,,0,,,71,70
94920,note_off,120,0,1,,,,,,,,,,,,,,,0,,,71,0
94920,note_on,0,0,1,,,,,,,,,,,,,,,0,,,70,70
94927,set_tempo,887,1,0,,,,,,,480000,,,,,,,,,,,,
94928,note_off,368,0,2,,,,,,,,,,,,,,,1,,,64,0
94928,note_off,0,0,2,,,,,,,,,,,,,,,1,,,61,0
95040,note_off,120,0,1,,,,,,,,,,,,,,,0,,,70,0
95040,note_on,0,0,1,,,,,,,,,,,,,,,0,,,71,69
95040,note_off,480,0,4,,,,,,,,,,,,,,,3,,,42,0
95040,note_off,240,0,3,,,,,,,,,,,,,,,2,,,54,0
95040,note_on,0,0,4,,,,,,,,,,,,,,,3,,,47,67
95080,set_tempo,153,1,0,,,,,,,461538,,,,,,,,,,,,
95280,note_on,0,0,3,,,,,,,,,,,,,,,2,,,66,43
95280,note_on,0,0,3,,,,,,,,,,,,,,,2,,,62,43
95280,note_on,240,0,3,,,,,,,,,,,,,,,2,,,54,43
95520,note_off,480,0,4,,,,,,,,,,,,,,,3,,,47,0
95520,note_off,240,0,3,,,,,,,,,,,,,,,2,,,54,0
95520,note_off,480,0,1,,,,,,,,,,,,,,,0,,,71,0
95520,note_off,0,0,3,,,,,,,,,,,,,,,2,,,66,0
95520,note_off,0,0,3,,,,,,,,,,,,,,,2,,,62,0
95520,note_on,0,0,3,,,,,,,,,,,,,,,2,,,54,46
95520,note_on,0,0,3,,,,,,,,,,,,,,,2,,,62,46
95520,note_on,0,0,3,,,,,,,,,,,,,,,2,,,66,46
95760,note_on,0,0,3,,,,,,,,,,,,,,,2,,,54,49
95760,note_on,0,0,3,,,,,,,,,,,,,,,2,,,66,49
95760,note_on,0,0,3,,,,,,,,,,,,,,,2,,,62,49
95760,note_off,0,0,3,,,,,,,,,,,,,,,2,,,62,0
95760,note_off,0,0,3,,,,,,,,,,,,,,,2,,,66,0
95760,note_off,240,0,3,,,,,,,,,,,,,,,2,,,54,0
95760,note_on,240,0,1,,,,,,,,,,,,,,,0,,,74,52
95947,set_tempo,867,1,0,,,,,,,465116,,,,,,,,,,,,
96000,note_on,480,0,4,,,,,,,,,,,,,,,3,,,42,61
96000,set_tempo,53,1,0,,,,,,,461538,,,,,,,,,,,,
96000,note_off,240,0,1,,,,,,,,,,,,,,,0,,,74,0
96000,note_on,0,0,1,,,,,,,,,,,,,,,0,,,73,57
96000,note_off,240,0,3,,,,,,,,,,,,,,,2,,,66,0
96000,note_off,0,0,3,,,,,,,,,,,,,,,2,,,54,0
96000,note_off,0,0,3,,,,,,,,,,,,,,,2,,,62,0
96240,note_on,0,0,3,,,,,,,,,,,,,,,2,,,66,51
96240,note_on,240,0,3,,,,,,,,,,,,,,,2,,,64,51
96240,note_on,0,0,3,,,,,,,,,,,,,,,2,,,54,51
96480,note_off,240,0,3,,,,,,,,,,,,,,,2,,,64,0
96480,note_off,0,0,3,,,,,,,,,,,,,,,2,,,66,0
96480,note_off,0,0,3,,,,,,,,,,,,,,,2,,,54,0
96480,note_on,0,0,3,,,,,,,,,,,,,,,2,,,64,48
96480,note_on,0,0,3,,,,,,,,,,,,,,,2,,,54,48
96480,note_on,0,0,3,,,,,,,,,,,,,,,2,,,66,48
96720,note_off,240,0,3,,,,,,,,,,,,,,,2,,,64,0
96720,note_on,0,0,3,,,,,,,,,,,,,,,2,,,66,46
96720,note_off,720,0,1,,,,,,,,,,,,,,,0,,,73,0
96720,note_on,0,0,1,,,,,,,,,,,,,,,0,,,70,52
96720,note_off,0,0,3,,,,,,,,,,,,,,,2,,,54,0
96720,note_off,0,0,3,,,,,,,,,,,,,,,2,,,66,0
96720,note_on,0,0,3,,,,,,,,,,,,,,,2,,,64,46
96720,note_on,0,0,3,,,,,,,,,,,,,,,2,,,54,46
96727,set_tempo,727,1,0,,,,,,,465116,,,,,,,,,,,,
96960,note_off,240,0,3,,,,,,,,,,,,,,,2,,,64,0
96960,note_off,0,0,3,,,,,,,,,,,,,,,2,,,54,0
96960,note_off,0,0,3,,,,,,,,,,,,,,,2,,,66,0
96960,note_off,240,0,1,,,,,,,,,,,,,,,0,,,70,0
96960,set_tempo,233,1,0,,,,,,,461538,,,,,,,,,,,,
96960,note_off,960,0,4,,,,,,,,,,,,,,,3,,,42,0
96960,note_on,0,0,4,,,,,,,,,,,,,,,3,,,47,52
96960,note_on,0,0,1,,,,,,,,,,,,,,,0,,,71,50
97200,note_on,0,0,3,,,,,,,,,,,,,,,2,,,66,45
97200,note_on,0,0,3,,,,,,,,,,,,,,,2,,,54,45
97200,note_on,240,0,3,,,,,,,,,,,,,,,2,,,63,45
97440,note_on,0,0,3,,,,,,,,,,,,,,,2,,,66,47
97440,note_on,0,0,3,,,,,,,,,,,,,,,2,,,63,47
97440,note_off,0,0,3,,,,,,,,,,,,,,,2,,,66,0
97440,note_off,0,0,3,,,,,,,,,,,,,,,2,,,54,0
97440,note_off,240,0,3,,,,,,,,,,,,,,,2,,,63,0
97440,note_on,0,0,3,,,,,,,,,,,,,,,2,,,54,47
97440,note_off,480,0,4,,,,,,,,,,,,,,,3,,,47,0
97440,note_off,480,0,1,,,,,,,,,,,,,,,0,,,71,0
97680,note_on,240,0,1,,,,,,,,,,,,,,,0,,,75,55
97680,note_on,0,0,3,,,,,,,,,,,,,,,2,,,66,50
97680,note_on,0,0,3,,,,,,,,,,,,,,,2,,,63,50
97680,note_on,0,0,3,,,,,,,,,,,,,,,2,,,54,50
97680,note_off,0,0,3,,,,,,,,,,,,,,,2,,,54,0
97680,note_off,0,0,3,,,,,,,,,,,,,,,2,,,66,0
97680,note_off,240,0,3,,,,,,,,,,,,,,,2,,,63,0
97860,set_tempo,900,1,0,,,,,,,465116,,,,,,,,,,,,
97920,note_off,240,0,1,,,,,,,,,,,,,,,0,,,75,0
97920,note_on,0,0,1,,,,,,,,,,,,,,,0,,,73,57
97920,note_on,480,0,4,,,,,,,,,,,,,,,3,,,42,58
97920,set_tempo,60,1,0,,,,,,,461538,,,,,,,,,,,,
97920,note_off,0,0,3,,,,,,,,,,,,,,,2,,,66,0
97920,note_off,0,0,3,,,,,,,,,,,,,,,2,,,63,0
97920,note_off,240,0,3,,,,,,,,,,,,,,,2,,,54,0
98160,note_on,0,0,3,,,,,,,,,,,,,,,2,,,66,51
98160,note_on,0,0,3,,,,,,,,,,,,,,,2,,,54,51
98160,note_on,240,0,3,,,,,,,,,,,,,,,2,,,64,51
98400,note_on,0,0,3,,,,,,,,,,,,,,,2,,,54,48
98400,note_on,0,0,3,,,,,,,,,,,,,,,2,,,66,48
98400,note_on,0,0,3,,,,,,,,,,,,,,,2,,,64,48
98400,note_off,0,0,3,,,,,,,,,,,,,,,2,,,54,0
98400,note_off,240,0,3,,,,,,,,,,,,,,,2,,,64,0
98400,note_off,0,0,3,,,,,,,,,,,,,,,2,,,66,0
98640,note_on,0,0,3,,,,,,,,,,,,,,,2,,,64,46
98640,note_off,0,0,3,,,,,,,,,,,,,,,2,,,66,0
98640,note_off,240,0,3,,,,,,,,,,,,,,,2,,,64,0
98640,note_off,0,0,3,,,,,,,,,,,,,,,2,,,54,0
98640,note_on,0,0,3,,,,,,,,,,,,,,,2,,,66,46
98640,note_on,0,0,3,,,,,,,,,,,,,,,2,,,54,46
98640,note_off,720,0,1,,,,,,,,,,,,,,,0,,,73,0
98640,note_on,0,0,1,,,,,,,,,,,,,,,0,,,70,51
98647,set_tempo,727,1,0,,,,,,,465116,,,,,,,,,,,,
98880,note_on,0,0,4,,,,,,,,,,,,,,,3,,,47,52
98880,note_off,0,0,3,,,,,,,,,,,,,,,2,,,54,0
98880,note_on,0,0,1,,,,,,,,,,,,,,,0,,,71,49
98880,note_off,960,0,4,,,,,,,,,,,,,,,3,,,42,0
98880,note_off,240,0,1,,,,,,,,,,,,,,,0,,,70,0
98880,note_off,0,0,3,,,,,,,,,,,,,,,2,,,66,0
98880,note_off,240,0,3,,,,,,,,,,,,,,,2,,,64,0
98880,set_tempo,233,1,0,,,,,,,461538,,,,,,,,,,,,
99120,note_on,240,0,3,,,,,,,,,,,,,,,2,,,54,29
99120,note_on,0,0,3,,,,,,,,,,,,,,,2,,,66,29
99120,note_on,0,0,3,,,,,,,,,,,,,,,2,,,62,29
99360,note_on,0,0,3,,,,,,,,,,,,,,,2,,,62,31
99360,note_off,480,0,4,,,,,,,,,,,,,,,3,,,47,0
99360,note_on,0,0,3,,,,,,,,,,,,,,,2,,,54,31
99360,note_off,0,0,3,,,,,,,,,,,,,,,2,,,66,0
99360,note_off,0,0,3,,,,,,,,,,,,,,,2,,,62,0
99360,note_off,240,0,3,,,,,,,,,,,,,,,2,,,54,0
99360,note_off,480,0,1,,,,,,,,,,,,,,,0,,,71,0
99360,note_on,0,0,3,,,,,,,,,,,,,,,2,,,66,31
99600,note_on,240,0,1,,,,,,,,,,,,,,,0,,,74,37
99600,note_on,0,0,3,,,,,,,,,,,,,,,2,,,66,34
99600,note_on,0,0,3,,,,,,,,,,,,,,,2,,,62,34
99600,note_on,0,0,3,,,,,,,,,,,,,,,2,,,54,34
99600,note_off,0,0,3,,,,,,,,,,,,,,,2,,,66,0
99600,note_off,0,0,3,,,,,,,,,,,,,,,2,,,62,0
99600,note_off,240,0,3,,,,,,,,,,,,,,,2,,,54,0
99780,set_tempo,900,1,0,,,,,,,465116,,,,,,,,,,,,
99840,note_off,240,0,1,,,,,,,,,,,,,,,0,,,74,0
99840,note_off,0,0,3,,,,,,,,,,,,,,,2,,,66,0
99840,note_off,240,0,3,,,,,,,,,,,,,,,2,,,54,0
99840,set_tempo,60,1,0,,,,,,,461538,,,,,,,,,,,,
99840,note_on,480,0,4,,,,,,,,,,,,,,,3,,,42,46
99840,note_on,0,0,1,,,,,,,,,,,,,,,0,,,73,41
99840,note_off,0,0,3,,,,,,,,,,,,,,,2,,,62,0
100080,note_on,0,0,3,,,,,,,,,,,,,,,2,,,54,36
100080,note_on,0,0,3,,,,,,,,,,,,,,,2,,,66,36
100080,note_on,240,0,3,,,,,,,,,,,,,,,2,,,64,36
100320,note_on,0,0,3,,,,,,,,,,,,,,,2,,,64,34
100320,note_on,0,0,3,,,,,,,,,,,,,,,2,,,66,34
100320,note_off,0,0,3,,,,,,,,,,,,,,,2,,,66,0
100320,note_off,0,0,3,,,,,,,,,,,,,,,2,,,54,0
100320,note_off,240,0,3,,,,,,,,,,,,,,,2,,,64,0
100320,note_on,0,0,3,,,,,,,,,,,,,,,2,,,54,34
100560,note_off,720,0,1,,,,,,,,,,,,,,,0,,,73,0
100560,note_on,0,0,1,,,,,,,,,,,,,,,0,,,70,41
100560,note_off,240,0,3,,,,,,,,,,,,,,,2,,,66,0
100560,note_off,0,0,3,,,,,,,,,,,,,,,2,,,64,0
100560,note_on,0,0,3,,,,,,,,,,,,,,,2,,,66,33
100560,note_on,0,0,3,,,,,,,,,,,,,,,2,,,54,33
100560,note_on,0,0,3,,,,,,,,,,,,,,,2,,,64,33
100560,note_off,0,0,3,,,,,,,,,,,,,,,2,,,54,0
100582,set_tempo,742,1,0,,,,,,,465116,,,,,,,,,,,,
100800,note_on,0,0,3,,,,,,,,,,,,,,,2,,,62,36
100800,note_off,0,0,3,,,,,,,,,,,,,,,2,,,66,0
100800,note_off,0,0,3,,,,,,,,,,,,,,,2,,,54,0
100800,note_off,240,0,3,,,,,,,,,,,,,,,2,,,64,0
100800,note_off,240,0,1,,,,,,,,,,,,,,,0,,,70,0
100800,note_on,0,0,3,,,,,,,,,,,,,,,2,,,66,36
100800,note_on,0,0,4,,,,,,,,,,,,,,,3,,,47,41
100800,note_on,0,0,1,,,,,,,,,,,,,,,0,,,71,42
100800,set_tempo,218,1,0,,,,,,,461538,,,,,,,,,,,,
100800,note_off,960,0,4,,,,,,,,,,,,,,,3,,,42,0
100800,note_on,0,0,3,,,,,,,,,,,,,,,2,,,54,36
100956,note_off,156,0,1,,,,,,,,,,,,,,,0,,,71,0
101040,note_off,240,0,4,,,,,,,,,,,,,,,3,,,47,0
101040,note_off,240,0,3,,,,,,,,,,,,,,,2,,,66,0
101040,note_off,0,0,3,,,,,,,,,,,,,,,2,,,54,0
101040,note_on,0,0,3,,,,,,,,,,,,,,,2,,,54,38
101040,note_on,0,0,3,,,,,,,,,,,,,,,2,,,62,38
101040,note_on,84,0,1,,,,,,,,,,,,,,,0,,,74,44
101040,note_off,0,0,3,,,,,,,,,,,,,,,2,,,62,0
101040,note_on,0,0,3,,,,,,,,,,,,,,,2,,,66,38
101196,note_off,156,0,1,,,,,,,,,,,,,,,0,,,74,0
101280,note_on,84,0,1,,,,,,,,,,,,,,,0,,,73,45
101280,note_on,240,0,4,,,,,,,,,,,,,,,3,,,42,41
101280,note_on,0,0,3,,,,,,,,,,,,,,,2,,,54,39
101280,note_on,0,0,3,,,,,,,,,,,,,,,2,,,66,39
101280,note_on,0,0,3,,,,,,,,,,,,,,,2,,,64,39
101280,note_off,0,0,3,,,,,,,,,,,,,,,2,,,54,0
101280,note_off,0,0,3,,,,,,,,,,,,,,,2,,,62,0
101280,note_off,240,0,3,,,,,,,,,,,,,,,2,,,66,0
101436,note_off,156,0,1,,,,,,,,,,,,,,,0,,,73,0
101520,note_on,84,0,1,,,,,,,,,,,,,,,0,,,70,47
101520,note_on,0,0,3,,,,,,,,,,,,,,,2,,,54,41
101520,note_off,240,0,4,,,,,,,,,,,,,,,3,,,42,0
101520,note_off,240,0,3,,,,,,,,,,,,,,,2,,,64,0
101520,note_off,0,0,3,,,,,,,,,,,,,,,2,,,66,0
101520,note_off,0,0,3,,,,,,,,,,,,,,,2,,,54,0
101520,note_on,0,0,3,,,,,,,,,,,,,,,2,,,66,41
101520,note_on,0,0,3,,,,,,,,,,,,,,,2,,,64,41
101676,note_off,156,0,1,,,,,,,,,,,,,,,0,,,70,0
101760,note_off,240,0,3,,,,,,,,,,,,,,,2,,,54,0
101760,note_off,0,0,3,,,,,,,,,,,,,,,2,,,66,0
101760,note_on,84,0,1,,,,,,,,,,,,,,,0,,,71,48
101760,note_on,0,0,3,,,,,,,,,,,,,,,2,,,66,42
101760,note_on,0,0,3,,,,,,,,,,,,,,,2,,,62,42
101760,note_off,0,0,3,,,,,,,,,,,,,,,2,,,64,0
101760,note_on,0,0,3,,,,,,,,,,,,,,,2,,,54,42
101760,note_on,240,0,4,,,,,,,,,,,,,,,3,,,47,47
101916,note_off,156,0,3,,,,,,,,,,,,,,,2,,,66,0
101916,note_off,156,0,1,,,,,,,,,,,,,,,0,,,71,0
101916,note_off,0,0,3,,,,,,,,,,,,,,,2,,,62,0
101916,note_off,0,0,3,,,,,,,,,,,,,,,2,,,54,0
102000,note_off,240,0,4,,,,,,,,,,,,,,,3,,,47,0
102000,note_on,84,0,1,,,,,,,,,,,,,,,0,,,74,49
102000,note_on,84,0,3,,,,,,,,,,,,,,,2,,,66,43
102000,note_on,0,0,3,,,,,,,,,,,,,,,2,,,62,43
102000,note_on,0,0,3,,,,,,,,,,,,,,,2,,,54,43
102156,note_off,156,0,1,,,,,,,,,,,,,,,0,,,74,0
102156,note_off,156,0,3,,,,,,,,,,,,,,,2,,,66,0
102156,note_off,0,0,3,,,,,,,,,,,,,,,2,,,62,0
102156,note_off,0,0,3,,,,,,,,,,,,,,,2,,,54,0
102240,note_on,240,0,4,,,,,,,,,,,,,,,3,,,42,50
102240,note_on,84,0,1,,,,,,,,,,,,,,,0,,,73,51
102240,note_on,0,0,3,,,,,,,,,,,,,,,2,,,54,45
102240,note_on,84,0,3,,,,,,,,,,,,,,,2,,,66,45
102240,note_on,0,0,3,,,,,,,,,,,,,,,2,,,64,45
102396,note_off,156,0,3,,,,,,,,,,,,,,,2,,,66,0
102396,note_off,0,0,3,,,,,,,,,,,,,,,2,,,64,0
102396,note_off,0,0,3,,,,,,,,,,,,,,,2,,,54,0
102396,note_off,156,0,1,,,,,,,,,,,,,,,0,,,73,0
102480,note_on,84,0,3,,,,,,,,,,,,,,,2,,,54,46
102480,note_on,0,0,3,,,,,,,,,,,,,,,2,,,66,46
102480,note_on,84,0,1,,,,,,,,,,,,,,,0,,,70,52
102480,note_off,240,0,4,,,,,,,,,,,,,,,3,,,42,0
102480,note_on,0,0,3,,,,,,,,,,,,,,,2,,,64,46
102636,note_off,0,0,3,,,,,,,,,,,,,,,2,,,64,0
102636,note_off,0,0,3,,,,,,,,,,,,,,,2,,,66,0
102636,note_off,156,0,1,,,,,,,,,,,,,,,0,,,70,0
102636,note_off,156,0,3,,,,,,,,,,,,,,,2,,,54,0
102720,note_on,84,0,1,,,,,,,,,,,,,,,0,,,71,54
102720,note_on,240,0,4,,,,,,,,,,,,,,,3,,,47,53
102720,note_on,0,0,3,,,,,,,,,,,,,,,2,,,62,48
102720,note_on,84,0,3,,,,,,,,,,,,,,,2,,,54,48
102720,note_on,0,0,3,,,,,,,,,,,,,,,2,,,66,48
102876,note_off,156,0,3,,,,,,,,,,,,,,,2,,,54,0
102876,note_off,0,0,3,,,,,,,,,,,,,,,2,,,62,0
102876,note_off,156,0,1,,,,,,,,,,,,,,,0,,,71,0
102876,note_off,0,0,3,,,,,,,,,,,,,,,2,,,66,0
102960,note_on,84,0,1,,,,,,,,,,,,,,,0,,,74,55
102960,note_on,84,0,3,,,,,,,,,,,,,,,2,,,54,49
102960,note_on,0,0,3,,,,,,,,,,,,,,,2,,,62,49
102960,note_on,0,0,3,,,,,,,,,,,,,,,2,,,66,49
103116,note_off,156,0,1,,,,,,,,,,,,,,,0,,,74,0
103116,note_off,156,0,3,,,,,,,,,,,,,,,2,,,54,0
103116,note_off,0,0,3,,,,,,,,,,,,,,,2,,,62,0
103116,note_off,0,0,3,,,,,,,,,,,,,,,2,,,66,0
103200,note_on,0,0,4,,,,,,,,,,,,,,,3,,,42,55
103200,note_off,480,0,4,,,,,,,,,,,,,,,3,,,47,0
103200,note_on,84,0,1,,,,,,,,,,,,,,,0,,,73,56
103200,note_on,0,0,3,,,,,,,,,,,,,,,2,,,66,50
103200,note_on,84,0,3,,,,,,,,,,,,,,,2,,,54,50
103200,note_on,0,0,3,,,,,,,,,,,,,,,2,,,64,50
103356,note_off,156,0,1,,,,,,,,,,,,,,,0,,,73,0
103356,note_off,0,0,3,,,,,,,,,,,,,,,2,,,66,0
103356,note_off,156,0,3,,,,,,,,,,,,,,,2,,,54,0
103356,note_off,0,0,3,,,,,,,,,,,,,,,2,,,64,0
103440,note_on,0,0,3,,,,,,,,,,,,,,,2,,,54,52
103440,note_on,84,0,1,,,,,,,,,,,,,,,0,,,70,58
103440,note_on,84,0,3,,,,,,,,,,,,,,,2,,,64,52
103440,note_on,0,0,3,,,,,,,,,,,,,,,2,,,66,52
103596,note_off,156,0,1,,,,,,,,,,,,,,,0,,,70,0
103596,note_off,0,0,3,,,,,,,,,,,,,,,2,,,66,0
103596,note_off,0,0,3,,,,,,,,,,,,,,,2,,,54,0
103596,note_off,156,0,3,,,,,,,,,,,,,,,2,,,64,0
103680,note_on,0,0,3,,,,,,,,,,,,,,,2,,,54,53
103680,note_on,0,0,3,,,,,,,,,,,,,,,2,,,66,53
103680,note_on,84,0,1,,,,,,,,,,,,,,,0,,,71,59
103680,note_on,0,0,4,,,,,,,,,,,,,,,3,,,47,58
103680,note_off,480,0,4,,,,,,,,,,,,,,,3,,,42,0
103680,set_tempo,2880,1,0,,,,,,,454545,,,,,,,,,,,,
103680,note_on,84,0,3,,,,,,,,,,,,,,,2,,,62,53
103836,note_off,0,0,3,,,,,,,,,,,,,,,2,,,54,0
103836,note_off,156,0,3,,,,,,,,,,,,,,,2,,,62,0
103836,note_off,156,0,1,,,,,,,,,,,,,,,0,,,71,0
103836,note_off,0,0,3,,,,,,,,,,,,,,,2,,,66,0
103920,note_on,84,0,3,,,,,,,,,,,,,,,2,,,54,55
103920,note_on,0,0,3,,,,,,,,,,,,,,,2,,,62,55
103920,note_on,84,0,1,,,,,,,,,,,,,,,0,,,74,61
103920,note_on,0,0,3,,,,,,,,,,,,,,,2,,,66,55
104076,note_off,156,0,1,,,,,,,,,,,,,,,0,,,74,0
104076,note_off,0,0,3,,,,,,,,,,,,,,,2,,,66,0
104076,note_off,0,0,3,,,,,,,,,,,,,,,2,,,62,0
104076,note_off,156,0,3,,,,,,,,,,,,,,,2,,,54,0
104160,note_on,84,0,1,,,,,,,,,,,,,,,0,,,73,62
104160,note_on,0,0,4,,,,,,,,,,,,,,,3,,,42,56
104160,note_off,480,0,4,,,,,,,,,,,,,,,3,,,47,0
104160,note_on,0,0,3,,,,,,,,,,,,,,,2,,,54,56
104160,note_on,0,0,3,,,,,,,,,,,,,,,2,,,66,56
104160,note_on,84,0,3,,,,,,,,,,,,,,,2,,,64,56
104272,set_tempo,592,1,0,,,,,,,480000,,,,,,,,,,,,
104316,note_off,0,0,3,,,,,,,,,,,,,,,2,,,66,0
104316,note_off,0,0,3,,,,,,,,,,,,,,,2,,,54,0
104316,note_off,156,0,1,,,,,,,,,,,,,,,0,,,73,0
104316,note_off,156,0,3,,,,,,,,,,,,,,,2,,,64,0
104392,set_tempo,120,1,0,,,,,,,517241,,,,,,,,,,,,
104400,note_on,84,0,3,,,,,,,,,,,,,,,2,,,64,57
104400,note_on,0,0,3,,,,,,,,,,,,,,,2,,,66,57
104400,note_on,0,0,3,,,,,,,,,,,,,,,2,,,54,57
104400,note_on,84,0,1,,,,,,,,,,,,,,,0,,,70,63
104556,note_off,156,0,3,,,,,,,,,,,,,,,2,,,64,0
104556,note_off,0,0,3,,,,,,,,,,,,,,,2,,,66,0
104556,note_off,0,0,3,,,,,,,,,,,,,,,2,,,54,0
104556,note_off,156,0,1,,,,,,,,,,,,,,,0,,,70,0
104640,note_on,84,0,1,,,,,,,,,,,,,,,0,,,71,63
104640,note_on,0,0,4,,,,,,,,,,,,,,,3,,,47,57
104640,note_off,480,0,4,,,,,,,,,,,,,,,3,,,42,0
104640,note_on,9712,0,2,,,,,,,,,,,,,,,1,,,66,63
104640,note_on,0,0,3,,,,,,,,,,,,,,,2,,,66,57
104640,note_on,0,0,2,,,,,,,,,,,,,,,1,,,62,63
104640,note_on,0,0,3,,,,,,,,,,,,,,,2,,,62,57
104640,note_on,84,0,3,,,,,,,,,,,,,,,2,,,54,57
104880,note_off,0,0,3,,,,,,,,,,,,,,,2,,,66,0
104880,note_off,240,0,3,,,,,,,,,,,,,,,2,,,62,0
104952,note_off,312,0,1,,,,,,,,,,,,,,,0,,,71,0
104952,note_off,0,0,2,,,,,,,,,,,,,,,1,,,62,0
104952,note_off,312,0,2,,,,,,,,,,,,,,,1,,,66,0
105120,note_off,240,0,3,,,,,,,,,,,,,,,2,,,54,0
105120,note_off,480,0,4,,,,,,,,,,,,,,,3,,,47,0
105480,note_on,528,0,1,,,,,,,,,,,,,,,0,,,62,41
105480,note_on,528,0,2,,,,,,,,,,,,,,,1,,,59,41
105480,note_on,0,0,2,,,,,,,,,,,,,,,1,,,54,41
105600,note_on,0,0,4,,,,,,,,,,,,,,,3,,,35,40
105600,note_on,480,0,4,,,,,,,,,,,,,,,3,,,47,40
105960,note_off,0,0,4,,,,,,,,,,,,,,,3,,,35,0
105960,note_off,0,0,2,,,,,,,,,,,,,,,1,,,54,0
105960,note_off,480,0,2,,,,,,,,,,,,,,,1,,,59,0
105960,note_off,360,0,4,,,,,,,,,,,,,,,3,,,47,0
105960,note_off,480,0,1,,,,,,,,,,,,,,,0,,,62,0
106320,set_tempo,1928,1,0,,,,,,,526315,,,,,,,,,,,,
106440,note_on,480,0,1,,,,,,,,,,,,,,,0,,,59,35
106440,note_on,0,0,2,,,,,,,,,,,,,,,1,,,50,35
106440,note_on,480,0,2,,,,,,,,,,,,,,,1,,,54,35
106560,note_on,600,0,4,,,,,,,,,,,,,,,3,,,47,34
106560,note_on,0,0,4,,,,,,,,,,,,,,,3,,,35,34
106920,note_off,0,0,4,,,,,,,,,,,,,,,3,,,35,0
106920,note_off,360,0,4,,,,,,,,,,,,,,,3,,,47,0
106920,note_off,480,0,2,,,,,,,,,,,,,,,1,,,54,0
106920,note_off,480,0,1,,,,,,,,,,,,,,,0,,,59,0
106920,note_off,0,0,2,,,,,,,,,,,,,,,1,,,50,0
107400,set_tempo,1080,1,0,,,,,,,540540,,,,,,,,,,,,
107520,control_change,0,0,1,,,,,,,,,,,,,64,0,0,,,,
107520,note_on,600,0,1,,,,,,,,,,,,,,,0,,,47,38
107520,control_change,0,0,4,,,,,,,,,,,,,64,0,3,,,,
107520,note_on,600,0,4,,,,,,,,,,,,,,,3,,,35,33
107640,note_off,120,0,1,,,,,,,,,,,,,,,0,,,47,0
107640,note_off,120,0,4,,,,,,,,,,,,,,,3,,,35,0
108000,set_tempo,600,1,0,,,,,,,750000,,,,,,,,,,,,
108000,note_on,360,0,1,,,,,,,,,,,,,,,0,,,50,46
108000,note_on,360,0,4,,,,,,,,,,,,,,,3,,,38,42
108120,note_off,120,0,1,,,,,,,,,,,,,,,0,,,50,0
108120,note_off,120,0,4,,,,,,,,,,,,,,,3,,,38,0
108360,set_tempo,360,1,0,,,,,,,434782,,,,,,,,,,,,
108360,note_on,240,0,1,,,,,,,,,,,,,,,0,,,79,84
108480,note_on,3360,0,3,,,,,,,,,,,,,,,2,,,59,75
108480,note_on,360,0,4,,,,,,,,,,,,,,,3,,,55,80
108480,note_on,0,0,3,,,,,,,,,,,,,,,2,,,62,75
108480,set_tempo,120,1,0,,,,,,,428571,,,,,,,,,,,,
109200,note_off,840,0,1,,,,,,,,,,,,,,,0,,,79,0
109200,note_on,0,0,1,,,,,,,,,,,,,,,0,,,78,73
109200,note_off,0,0,3,,,,,,,,,,,,,,,2,,,62,0
109200,note_off,720,0,3,,,,,,,,,,,,,,,2,,,59,0
109200,note_off,720,0,4,,,,,,,,,,,,,,,3,,,55,0
109320,note_off,120,0,1,,,,,,,,,,,,,,,0,,,78,0
109320,note_on,0,0,1,,,,,,,,,,,,,,,0,,,76,72
109440,note_on,0,0,1,,,,,,,,,,,,,,,0,,,74,70
109440,note_off,120,0,1,,,,,,,,,,,,,,,0,,,76,0
109560,note_on,0,0,1,,,,,,,,,,,,,,,0,,,75,69
109560,note_off,120,0,1,,,,,,,,,,,,,,,0,,,74,0
109680,note_on,0,0,1,,,,,,,,,,,,,,,0,,,76,67
109680,note_off,120,0,1,,,,,,,,,,,,,,,0,,,75,0
109800,note_on,0,0,1,,,,,,,,,,,,,,,0,,,71,66
109800,note_off,120,0,1,,,,,,,,,,,,,,,0,,,76,0
109920,note_off,120,0,1,,,,,,,,,,,,,,,0,,,71,0
109920,note_on,0,0,1,,,,,,,,,,,,,,,0,,,74,64
110040,note_on,0,0,1,,,,,,,,,,,,,,,0,,,72,63
110040,note_off,120,0,1,,,,,,,,,,,,,,,0,,,74,0
110160,note_on,0,0,1,,,,,,,,,,,,,,,0,,,71,62
110160,note_off,120,0,1,,,,,,,,,,,,,,,0,,,72,0
110280,note_on,0,0,1,,,,,,,,,,,,,,,0,,,69,58
110280,note_off,120,0,1,,,,,,,,,,,,,,,0,,,71,0
110400,note_on,0,0,1,,,,,,,,,,,,,,,0,,,67,55
110400,set_tempo,1920,1,0,,,,,,,441176,,,,,,,,,,,,
110400,note_off,120,0,1,,,,,,,,,,,,,,,0,,,69,0
110760,note_off,360,0,1,,,,,,,,,,,,,,,0,,,67,0
111120,set_tempo,720,1,0,,,,,,,434782,,,,,,,,,,,,
111240,control_change,4320,0,2,,,,,,,,,,,,,64,127,1,,,,
111240,note_on,0,0,2,,,,,,,,,,,,,,,1,,,62,43
111240,note_on,0,0,2,,,,,,,,,,,,,,,1,,,59,43
111240,note_on,0,0,1,,,,,,,,,,,,,,,0,,,67,43
111240,control_change,480,0,1,,,,,,,,,,,,,64,127,0,,,,
111360,note_on,2160,0,4,,,,,,,,,,,,,,,3,,,43,43
111360,note_on,0,0,4,,,,,,,,,,,,,,,3,,,55,43
111480,note_off,0,0,4,,,,,,,,,,,,,,,3,,,55,0
111480,note_off,120,0,4,,,,,,,,,,,,,,,3,,,43,0
111720,note_off,480,0,1,,,,,,,,,,,,,,,0,,,67,0
111720,note_on,0,0,1,,,,,,,,,,,,,,,0,,,71,46
111720,note_off,480,0,2,,,,,,,,,,,,,,,1,,,62,0
111720,note_off,0,0,2,,,,,,,,,,,,,,,1,,,59,0
111720,note_on,0,0,2,,,,,,,,,,,,,,,1,,,62,46
111720,note_on,0,0,2,,,,,,,,,,,,,,,1,,,59,46
111840,note_on,0,0,4,,,,,,,,,,,,,,,3,,,55,46
111840,note_on,360,0,4,,,,,,,,,,,,,,,3,,,43,46
111960,note_off,120,0,4,,,,,,,,,,,,,,,3,,,43,0
111960,note_off,0,0,4,,,,,,,,,,,,,,,3,,,55,0
112080,set_tempo,960,1,0,,,,,,,441176,,,,,,,,,,,,
112200,note_off,0,0,2,,,,,,,,,,,,,,,1,,,59,0
112200,note_off,480,0,2,,,,,,,,,,,,,,,1,,,62,0
112200,note_on,0,0,2,,,,,,,,,,,,,,,1,,,59,43
112200,note_off,480,0,1,,,,,,,,,,,,,,,0,,,71,0
112200,note_on,0,0,1,,,,,,,,,,,,,,,0,,,67,44
112200,note_on,0,0,2,,,,,,,,,,,,,,,1,,,62,43
112320,note_on,0,0,4,,,,,,,,,,,,,,,3,,,43,43
112320,note_on,360,0,4,,,,,,,,,,,,,,,3,,,55,43
112440,note_off,120,0,4,,,,,,,,,,,,,,,3,,,55,0
112440,note_off,0,0,4,,,,,,,,,,,,,,,3,,,43,0
112680,note_off,0,0,2,,,,,,,,,,,,,,,1,,,62,0
112680,note_off,480,0,2,,,,,,,,,,,,,,,1,,,59,0
112680,note_off,480,0,1,,,,,,,,,,,,,,,0,,,67,0
112800,control_change,120,0,2,,,,,,,,,,,,,64,0,1,,,,
112800,control_change,120,0,1,,,,,,,,,,,,,64,0,0,,,,
113160,set_tempo,1080,1,0,,,,,,,434782,,,,,,,,,,,,
113160,note_on,360,0,2,,,,,,,,,,,,,,,1,,,62,55
113160,control_change,0,0,1,,,,,,,,,,,,,64,127,0,,,,
113160,note_on,360,0,1,,,,,,,,,,,,,,,0,,,67,55
113160,note_on,0,0,2,,,,,,,,,,,,,,,1,,,59,55
113160,control_change,0,0,2,,,,,,,,,,,,,64,127,1,,,,
113280,note_on,840,0,4,,,,,,,,,,,,,,,3,,,43,54
113280,note_on,0,0,4,,,,,,,,,,,,,,,3,,,55,54
113400,note_off,120,0,4,,,,,,,,,,,,,,,3,,,43,0
113400,note_off,0,0,4,,,,,,,,,,,,,,,3,,,55,0
113640,note_on,0,0,1,,,,,,,,,,,,,,,0,,,74,57
113640,note_on,0,0,2,,,,,,,,,,,,,,,1,,,71,57
113640,note_on,0,0,2,,,,,,,,,,,,,,,1,,,62,57
113640,note_off,0,0,2,,,,,,,,,,,,,,,1,,,59,0
113640,note_off,480,0,2,,,,,,,,,,,,,,,1,,,62,0
113640,note_off,480,0,1,,,,,,,,,,,,,,,0,,,67,0
113640,note_on,0,0,2,,,,,,,,,,,,,,,1,,,67,57
113760,note_on,0,0,4,,,,,,,,,,,,,,,3,,,55,56
113760,note_on,360,0,4,,,,,,,,,,,,,,,3,,,43,56
113880,note_off,120,0,4,,,,,,,,,,,,,,,3,,,43,0
113880,note_off,0,0,4,,,,,,,,,,,,,,,3,,,55,0
114000,set_tempo,840,1,0,,,,,,,441176,,,,,,,,,,,,
114120,note_on,0,0,1,,,,,,,,,,,,,,,0,,,67,54
114120,note_on,0,0,2,,,,,,,,,,,,,,,1,,,59,54
114120,note_on,0,0,2,,,,,,,,,,,,,,,1,,,62,54
114120,note_off,480,0,1,,,,,,,,,,,,,,,0,,,74,0
114120,note_off,0,0,2,,,,,,,,,,,,,,,1,,,67,0
114120,note_off,480,0,2,,,,,,,,,,,,,,,1,,,62,0
114120,note_off,0,0,2,,,,,,,,,,,,,,,1,,,71,0
114240,note_on,0,0,4,,,,,,,,,,,,,,,3,,,43,54
114240,note_on,360,0,4,,,,,,,,,,,,,,,3,,,55,54
114360,note_off,0,0,4,,,,,,,,,,,,,,,3,,,43,0
114360,note_off,120,0,4,,,,,,,,,,,,,,,3,,,55,0
114600,note_off,0,0,2,,,,,,,,,,,,,,,1,,,59,0
114600,note_off,480,0,2,,,,,,,,,,,,,,,1,,,62,0
114600,note_off,480,0,1,,,,,,,,,,,,,,,0,,,67,0
114720,control_change,120,0,2,,,,,,,,,,,,,64,0,1,,,,
114720,control_change,120,0,1,,,,,,,,,,,,,64,0,0,,,,
114960,set_tempo,960,1,0,,,,,,,428571,,,,,,,,,,,,
115080,note_on,360,0,2,,,,,,,,,,,,,,,1,,,55,74
115080,control_change,0,0,2,,,,,,,,,,,,,64,127,1,,,,
115080,control_change,0,0,1,,,,,,,,,,,,,64,127,0,,,,
115080,note_on,360,0,1,,,,,,,,,,,,,,,0,,,67,74
115200,note_on,840,0,4,,,,,,,,,,,,,,,3,,,53,75
115200,note_on,0,0,4,,,,,,,,,,,,,,,3,,,41,75
115380,note_off,180,0,4,,,,,,,,,,,,,,,3,,,53,0
115380,note_off,0,0,4,,,,,,,,,,,,,,,3,,,41,0
115560,note_off,480,0,2,,,,,,,,,,,,,,,1,,,55,0
115560,note_off,480,0,1,,,,,,,,,,,,,,,0,,,67,0
115560,note_on,0,0,2,,,,,,,,,,,,,,,1,,,67,77
115560,note_on,0,0,1,,,,,,,,,,,,,,,0,,,79,77
115680,note_on,0,0,4,,,,,,,,,,,,,,,3,,,53,78
115680,note_on,0,0,4,,,,,,,,,,,,,,,3,,,59,78
115680,note_on,300,0,4,,,,,,,,,,,,,,,3,,,62,78
115860,note_off,0,0,4,,,,,,,,,,,,,,,3,,,59,0
115860,note_off,180,0,4,,,,,,,,,,,,,,,3,,,62,0
115860,note_off,0,0,4,,,,,,,,,,,,,,,3,,,53,0
116040,note_off,480,0,1,,,,,,,,,,,,,,,0,,,79,0
116040,note_on,0,0,1,,,,,,,,,,,,,,,0,,,67,80
116040,note_off,480,0,2,,,,,,,,,,,,,,,1,,,67,0
116040,note_on,0,0,2,,,,,,,,,,,,,,,1,,,55,80
116160,note_on,300,0,4,,,,,,,,,,,,,,,3,,,51,80
116160,note_on,0,0,4,,,,,,,,,,,,,,,3,,,39,80
116340,note_off,180,0,4,,,,,,,,,,,,,,,3,,,51,0
116340,note_off,0,0,4,,,,,,,,,,,,,,,3,,,39,0
116520,note_on,0,0,2,,,,,,,,,,,,,,,1,,,67,83
116520,note_off,480,0,2,,,,,,,,,,,,,,,1,,,55,0
116520,note_off,480,0,1,,,,,,,,,,,,,,,0,,,67,0
116520,note_on,0,0,1,,,,,,,,,,,,,,,0,,,79,83
116640,note_on,300,0,4,,,,,,,,,,,,,,,3,,,51,83
116640,note_on,0,0,4,,,,,,,,,,,,,,,3,,,60,83
116640,note_on,0,0,4,,,,,,,,,,,,,,,3,,,55,83
116820,note_off,180,0,4,,,,,,,,,,,,,,,3,,,51,0
116820,note_off,0,0,4,,,,,,,,,,,,,,,3,,,60,0
116820,note_off,0,0,4,,,,,,,,,,,,,,,3,,,55,0
117000,note_off,480,0,2,,,,,,,,,,,,,,,1,,,67,0
117000,note_off,480,0,1,,,,,,,,,,,,,,,0,,,79,0
117000,note_on,0,0,1,,,,,,,,,,,,,,,0,,,67,85
117000,note_on,0,0,2,,,,,,,,,,,,,,,1,,,55,85
117120,note_on,300,0,4,,,,,,,,,,,,,,,3,,,38,86
117120,note_on,0,0,4,,,,,,,,,,,,,,,3,,,50,86
117300,note_off,180,0,4,,,,,,,,,,,,,,,3,,,38,0
117300,note_off,0,0,4,,,,,,,,,,,,,,,3,,,50,0
117480,note_off,480,0,1,,,,,,,,,,,,,,,0,,,67,0
117480,note_on,0,0,1,,,,,,,,,,,,,,,0,,,79,88
117480,note_on,0,0,2,,,,,,,,,,,,,,,1,,,67,88
117480,note_off,480,0,2,,,,,,,,,,,,,,,1,,,55,0
117600,note_on,0,0,4,,,,,,,,,,,,,,,3,,,50,89
117600,note_on,0,0,4,,,,,,,,,,,,,,,3,,,53,89
117600,note_on,300,0,4,,,,,,,,,,,,,,,3,,,59,89
117780,note_off,180,0,4,,,,,,,,,,,,,,,3,,,59,0
117780,note_off,0,0,4,,,,,,,,,,,,,,,3,,,50,0
117780,note_off,0,0,4,,,,,,,,,,,,,,,3,,,53,0
117840,set_tempo,2880,1,0,,,,,,,434782,,,,,,,,,,,,
117960,note_on,0,0,1,,,,,,,,,,,,,,,0,,,67,84
117960,note_off,480,0,1,,,,,,,,,,,,,,,0,,,79,0
117960,note_on,0,0,2,,,,,,,,,,,,,,,1,,,55,84
117960,note_off,480,0,2,,,,,,,,,,,,,,,1,,,67,0
118080,note_on,300,0,4,,,,,,,,,,,,,,,3,,,48,85
118080,note_on,0,0,4,,,,,,,,,,,,,,,3,,,39,85
118080,note_on,0,0,4,,,,,,,,,,,,,,,3,,,36,85
118080,note_on,0,0,4,,,,,,,,,,,,,,,3,,,43,85
118260,note_off,0,0,4,,,,,,,,,,,,,,,3,,,39,0
118260,note_off,0,0,4,,,,,,,,,,,,,,,3,,,36,0
118260,note_off,0,0,4,,,,,,,,,,,,,,,3,,,43,0
118260,note_off,180,0,4,,,,,,,,,,,,,,,3,,,48,0
118440,note_off,480,0,2,,,,,,,,,,,,,,,1,,,55,0
118440,note_off,480,0,1,,,,,,,,,,,,,,,0,,,67,0
118680,control_change,240,0,2,,,,,,,,,,,,,64,0,1,,,,
118680,control_change,240,0,1,,,,,,,,,,,,,64,0,0,,,,
118800,set_tempo,960,1,0,,,,,,,434782,,,,,,,,,,,,
118920,note_on,240,0,1,,,,,,,,,,,,,,,0,,,72,55
118920,control_change,0,0,1,,,,,,,,,,,,,64,127,0,,,,
118920,control_change,240,0,2,,,,,,,,,,,,,64,127,1,,,,
119040,note_on,0,0,4,,,,,,,,,,,,,,,3,,,60,47
119040,note_on,780,0,4,,,,,,,,,,,,,,,3,,,67,47
119040,note_on,0,0,4,,,,,,,,,,,,,,,3,,,63,47
119220,note_off,0,0,4,,,,,,,,,,,,,,,3,,,60,0
119220,note_off,0,0,4,,,,,,,,,,,,,,,3,,,63,0
119220,note_off,180,0,4,,,,,,,,,,,,,,,3,,,67,0
119400,note_on,0,0,1,,,,,,,,,,,,,,,0,,,75,53
119400,note_off,480,0,1,,,,,,,,,,,,,,,0,,,72,0
119520,note_on,300,0,4,,,,,,,,,,,,,,,3,,,67,46
119520,note_on,0,0,4,,,,,,,,,,,,,,,3,,,60,46
119520,note_on,0,0,4,,,,,,,,,,,,,,,3,,,63,46
119700,note_off,180,0,4,,,,,,,,,,,,,,,3,,,67,0
119700,note_off,0,0,4,,,,,,,,,,,,,,,3,,,60,0
119700,note_off,0,0,4,,,,,,,,,,,,,,,3,,,63,0
119760,set_tempo,960,1,0,,,,,,,441176,,,,,,,,,,,,
119880,note_off,480,0,1,,,,,,,,,,,,,,,0,,,75,0
119880,note_on,0,0,1,,,,,,,,,,,,,,,0,,,72,52
120000,note_on,300,0,4,,,,,,,,,,,,,,,3,,,60,44
120000,note_on,0,0,4,,,,,,,,,,,,,,,3,,,67,44
120000,note_on,0,0,4,,,,,,,,,,,,,,,3,,,63,44
120180,note_off,180,0,4,,,,,,,,,,,,,,,3,,,60,0
120180,note_off,0,0,4,,,,,,,,,,,,,,,3,,,67,0
120180,note_off,0,0,4,,,,,,,,,,,,,,,3,,,63,0
120360,note_off,480,0,1,,,,,,,,,,,,,,,0,,,72,0
120480,control_change,120,0,1,,,,,,,,,,,,,64,0,0,,,,
120480,control_change,1560,0,2,,,,,,,,,,,,,64,0,1,,,,
120840,control_change,360,0,2,,,,,,,,,,,,,64,127,1,,,,
120840,control_change,0,0,1,,,,,,,,,,,,,64,127,0,,,,
120840,note_on,360,0,1,,,,,,,,,,,,,,,0,,,72,48
120840,set_tempo,1080,1,0,,,,,,,434782,,,,,,,,,,,,
120960,note_on,0,0,4,,,,,,,,,,,,,,,3,,,63,42
120960,note_on,780,0,4,,,,,,,,,,,,,,,3,,,67,42
121140,note_off,0,0,4,,,,,,,,,,,,,,,3,,,63,0
121140,note_off,180,0,4,,,,,,,,,,,,,,,3,,,67,0
121320,note_off,480,0,1,,,,,,,,,,,,,,,0,,,72,0
121320,note_on,0,0,1,,,,,,,,,,,,,,,0,,,84,47
121440,note_on,0,0,4,,,,,,,,,,,,,,,3,,,63,40
121440,note_on,300,0,4,,,,,,,,,,,,,,,3,,,67,40
121620,note_off,180,0,4,,,,,,,,,,,,,,,3,,,67,0
121620,note_off,0,0,4,,,,,,,,,,,,,,,3,,,63,0
121680,set_tempo,840,1,0,,,,,,,441176,,,,,,,,,,,,
121800,note_off,480,0,1,,,,,,,,,,,,,,,0,,,84,0
121800,note_on,0,0,1,,,,,,,,,,,,,,,0,,,72,45
121920,note_on,0,0,4,,,,,,,,,,,,,,,3,,,63,39
121920,note_on,300,0,4,,,,,,,,,,,,,,,3,,,67,39
122100,note_off,180,0,4,,,,,,,,,,,,,,,3,,,67,0
122100,note_off,0,0,4,,,,,,,,,,,,,,,3,,,63,0
122280,note_off,480,0,1,,,,,,,,,,,,,,,0,,,72,0
122400,control_change,120,0,1,,,,,,,,,,,,,64,0,0,,,,
122400,control_change,1560,0,2,,,,,,,,,,,,,64,0,1,,,,
122640,set_tempo,960,1,0,,,,,,,428571,,,,,,,,,,,,
122760,note_on,360,0,1,,,,,,,,,,,,,,,0,,,72,78
122760,control_change,0,0,1,,,,,,,,,,,,,64,127,0,,,,
122760,control_change,0,0,2,,,,,,,,,,,,,64,127,1,,,,
122760,note_on,360,0,2,,,,,,,,,,,,,,,1,,,60,78
122880,note_on,0,0,4,,,,,,,,,,,,,,,3,,,46,80
122880,note_on,780,0,4,,,,,,,,,,,,,,,3,,,58,80
123060,note_off,180,0,4,,,,,,,,,,,,,,,3,,,58,0
123060,note_off,0,0,4,,,,,,,,,,,,,,,3,,,46,0
123240,note_on,0,0,2,,,,,,,,,,,,,,,1,,,72,80
123240,note_on,0,0,1,,,,,,,,,,,,,,,0,,,84,80
123240,note_off,480,0,1,,,,,,,,,,,,,,,0,,,72,0
123240,note_off,480,0,2,,,,,,,,,,,,,,,1,,,60,0
123360,note_on,300,0,4,,,,,,,,,,,,,,,3,,,67,82
123360,note_on,0,0,4,,,,,,,,,,,,,,,3,,,64,82
123360,note_on,0,0,4,,,,,,,,,,,,,,,3,,,58,82
123540,note_off,0,0,4,,,,,,,,,,,,,,,3,,,58,0
123540,note_off,180,0,4,,,,,,,,,,,,,,,3,,,67,0
123540,note_off,0,0,4,,,,,,,,,,,,,,,3,,,64,0
123720,note_on,0,0,2,,,,,,,,,,,,,,,1,,,60,82
123720,note_on,0,0,1,,,,,,,,,,,,,,,0,,,72,82
123720,note_off,480,0,2,,,,,,,,,,,,,,,1,,,72,0
123720,note_off,480,0,1,,,,,,,,,,,,,,,0,,,84,0
123840,note_on,0,0,4,,,,,,,,,,,,,,,3,,,57,84
123840,note_on,300,0,4,,,,,,,,,,,,,,,3,,,45,84
124020,note_off,180,0,4,,,,,,,,,,,,,,,3,,,45,0
124020,note_off,0,0,4,,,,,,,,,,,,,,,3,,,57,0
124200,note_off,480,0,1,,,,,,,,,,,,,,,0,,,72,0
124200,note_on,0,0,2,,,,,,,,,,,,,,,1,,,72,83
124200,note_off,480,0,2,,,,,,,,,,,,,,,1,,,60,0
124200,note_on,0,0,1,,,,,,,,,,,,,,,0,,,84,83
124320,note_on,300,0,4,,,,,,,,,,,,,,,3,,,65,85
124320,note_on,0,0,4,,,,,,,,,,,,,,,3,,,60,85
124320,note_on,0,0,4,,,,,,,,,,,,,,,3,,,57,85
124500,note_off,0,0,4,,,,,,,,,,,,,,,3,,,57,0
124500,note_off,180,0,4,,,,,,,,,,,,,,,3,,,65,0
124500,note_off,0,0,4,,,,,,,,,,,,,,,3,,,60,0
124680,note_on,0,0,1,,,,,,,,,,,,,,,0,,,72,85
124680,note_off,480,0,1,,,,,,,,,,,,,,,0,,,84,0
124680,note_off,480,0,2,,,,,,,,,,,,,,,1,,,72,0
124680,note_on,0,0,2,,,,,,,,,,,,,,,1,,,60,85
124800,note_on,300,0,4,,,,,,,,,,,,,,,3,,,55,87
124800,note_on,0,0,4,,,,,,,,,,,,,,,3,,,43,87
124980,note_off,180,0,4,,,,,,,,,,,,,,,3,,,55,0
124980,note_off,0,0,4,,,,,,,,,,,,,,,3,,,43,0
125160,note_on,0,0,1,,,,,,,,,,,,,,,0,,,84,87
125160,note_on,0,0,2,,,,,,,,,,,,,,,1,,,72,87
125160,note_off,480,0,1,,,,,,,,,,,,,,,0,,,72,0
125160,note_off,480,0,2,,,,,,,,,,,,,,,1,,,60,0
125280,note_on,300,0,4,,,,,,,,,,,,,,,3,,,64,89
125280,note_on,0,0,4,,,,,,,,,,,,,,,3,,,55,89
125280,note_on,0,0,4,,,,,,,,,,,,,,,3,,,58,89
125460,note_off,0,0,4,,,,,,,,,,,,,,,3,,,58,0
125460,note_off,0,0,4,,,,,,,,,,,,,,,3,,,55,0
125460,note_off,180,0,4,,,,,,,,,,,,,,,3,,,64,0
125640,note_on,0,0,2,,,,,,,,,,,,,,,1,,,60,89
125640,note_off,480,0,1,,,,,,,,,,,,,,,0,,,84,0
125640,note_off,480,0,2,,,,,,,,,,,,,,,1,,,72,0
125640,note_on,0,0,1,,,,,,,,,,,,,,,0,,,72,89
125760,note_on,300,0,4,,,,,,,,,,,,,,,3,,,53,91
125760,note_on,0,0,4,,,,,,,,,,,,,,,3,,,41,91
125940,note_off,180,0,4,,,,,,,,,,,,,,,3,,,53,0
125940,note_off,0,0,4,,,,,,,,,,,,,,,3,,,41,0
126120,note_off,480,0,2,,,,,,,,,,,,,,,1,,,60,0
126120,note_on,0,0,2,,,,,,,,,,,,,,,1,,,72,90
126120,note_on,0,0,1,,,,,,,,,,,,,,,0,,,84,90
126120,note_off,480,0,1,,,,,,,,,,,,,,,0,,,72,0
126240,note_on,0,0,4,,,,,,,,,,,,,,,3,,,60,92
126240,note_on,0,0,4,,,,,,,,,,,,,,,3,,,57,92
126240,note_on,300,0,4,,,,,,,,,,,,,,,3,,,53,92
126360,set_tempo,3720,1,0,,,,,,,434782,,,,,,,,,,,,
126420,note_off,0,0,4,,,,,,,,,,,,,,,3,,,60,0
126420,note_off,0,0,4,,,,,,,,,,,,,,,3,,,57,0
126420,note_off,180,0,4,,,,,,,,,,,,,,,3,,,53,0
126480,set_tempo,120,1,0,,,,,,,428571,,,,,,,,,,,,
126480,control_change,360,0,2,,,,,,,,,,,,,64,0,1,,,,
126480,control_change,360,0,1,,,,,,,,,,,,,64,0,0,,,,
126600,note_off,120,0,2,,,,,,,,,,,,,,,1,,,72,0
126600,note_on,0,0,2,,,,,,,,,,,,,,,1,,,65,92
126600,control_change,0,0,2,,,,,,,,,,,,,64,127,1,,,,
126600,control_change,0,0,1,,,,,,,,,,,,,64,127,0,,,,
126600,note_on,0,0,1,,,,,,,,,,,,,,,0,,,77,92
126600,note_off,120,0,1,,,,,,,,,,,,,,,0,,,84,0
126720,note_on,300,0,4,,,,,,,,,,,,,,,3,,,63,94
126720,note_on,0,0,4,,,,,,,,,,,,,,,3,,,51,94
126900,note_off,180,0,4,,,,,,,,,,,,,,,3,,,63,0
126900,note_off,0,0,4,,,,,,,,,,,,,,,3,,,51,0
127080,note_off,480,0,2,,,,,,,,,,,,,,,1,,,65,0
127080,note_on,0,0,1,,,,,,,,,,,,,,,0,,,89,94
127080,note_off,480,0,1,,,,,,,,,,,,,,,0,,,77,0
127080,note_on,0,0,2,,,,,,,,,,,,,,,1,,,77,94
127200,note_on,300,0,4,,,,,,,,,,,,,,,3,,,72,96
127200,note_on,0,0,4,,,,,,,,,,,,,,,3,,,63,96
127200,note_on,0,0,4,,,,,,,,,,,,,,,3,,,69,96
127380,note_off,0,0,4,,,,,,,,,,,,,,,3,,,63,0
127380,note_off,180,0,4,,,,,,,,,,,,,,,3,,,72,0
127380,note_off,0,0,4,,,,,,,,,,,,,,,3,,,69,0
127560,note_on,0,0,2,,,,,,,,,,,,,,,1,,,65,96
127560,note_off,480,0,2,,,,,,,,,,,,,,,1,,,77,0
127560,note_off,480,0,1,,,,,,,,,,,,,,,0,,,89,0
127560,note_on,0,0,1,,,,,,,,,,,,,,,0,,,77,96
127680,note_on,300,0,4,,,,,,,,,,,,,,,3,,,62,98
127680,note_on,0,0,4,,,,,,,,,,,,,,,3,,,50,98
127860,note_off,180,0,4,,,,,,,,,,,,,,,3,,,62,0
127860,note_off,0,0,4,,,,,,,,,,,,,,,3,,,50,0
128040,note_on,0,0,2,,,,,,,,,,,,,,,1,,,77,97
128040,note_off,480,0,2,,,,,,,,,,,,,,,1,,,65,0
128040,note_on,0,0,1,,,,,,,,,,,,,,,0,,,89,97
128040,note_off,480,0,1,,,,,,,,,,,,,,,0,,,77,0
128160,note_on,300,0,4,,,,,,,,,,,,,,,3,,,62,99
128160,note_on,0,0,4,,,,,,,,,,,,,,,3,,,65,99
128160,note_on,0,0,4,,,,,,,,,,,,,,,3,,,70,99
128340,note_off,180,0,4,,,,,,,,,,,,,,,3,,,62,0
128340,note_off,0,0,4,,,,,,,,,,,,,,,3,,,65,0
128340,note_off,0,0,4,,,,,,,,,,,,,,,3,,,70,0
128520,note_on,0,0,1,,,,,,,,,,,,,,,0,,,77,99
128520,note_off,480,0,1,,,,,,,,,,,,,,,0,,,89,0
128520,note_off,480,0,2,,,,,,,,,,,,,,,1,,,77,0
128520,note_on,0,0,2,,,,,,,,,,,,,,,1,,,65,99
128640,note_on,300,0,4,,,,,,,,,,,,,,,3,,,60,101
128640,note_on,0,0,4,,,,,,,,,,,,,,,3,,,48,101
128820,note_off,180,0,4,,,,,,,,,,,,,,,3,,,60,0
128820,note_off,0,0,4,,,,,,,,,,,,,,,3,,,48,0
129000,note_off,480,0,1,,,,,,,,,,,,,,,0,,,77,0
129000,note_on,0,0,1,,,,,,,,,,,,,,,0,,,89,101
129000,note_off,480,0,2,,,,,,,,,,,,,,,1,,,65,0
129000,note_on,0,0,2,,,,,,,,,,,,,,,1,,,77,101
129120,note_on,300,0,4,,,,,,,,,,,,,,,3,,,69,103
129120,note_on,0,0,4,,,,,,,,,,,,,,,3,,,60,103
129120,note_on,0,0,4,,,,,,,,,,,,,,,3,,,63,103
129300,note_off,180,0,4,,,,,,,,,,,,,,,3,,,69,0
129300,note_off,0,0,4,,,,,,,,,,,,,,,3,,,60,0
129300,note_off,0,0,4,,,,,,,,,,,,,,,3,,,63,0
129360,set_tempo,2880,1,0,,,,,,,434782,,,,,,,,,,,,
129480,note_off,480,0,2,,,,,,,,,,,,,,,1,,,77,0
129480,note_on,0,0,2,,,,,,,,,,,,,,,1,,,65,94
129480,note_on,0,0,1,,,,,,,,,,,,,,,0,,,77,94
129480,note_off,480,0,1,,,,,,,,,,,,,,,0,,,89,0
129600,note_on,300,0,4,,,,,,,,,,,,,,,3,,,46,99
129600,note_on,0,0,4,,,,,,,,,,,,,,,3,,,53,99
129600,note_on,0,0,4,,,,,,,,,,,,,,,3,,,50,99
129600,note_on,0,0,4,,,,,,,,,,,,,,,3,,,58,99
129661,note_off,181,0,2,,,,,,,,,,,,,,,1,,,65,0
129717,note_off,237,0,1,,,,,,,,,,,,,,,0,,,77,0
129720,control_change,3,0,1,,,,,,,,,,,,,64,0,0,,,,
129720,note_on,0,0,1,,,,,,,,,,,,,,,0,,,85,91
129720,control_change,59,0,2,,,,,,,,,,,,,64,0,1,,,,
129750,set_tempo,390,1,0,,,,,,,428571,,,,,,,,,,,,
129780,note_off,0,0,4,,,,,,,,,,,,,,,3,,,50,0
129780,note_off,0,0,4,,,,,,,,,,,,,,,3,,,53,0
129780,note_off,180,0,4,,,,,,,,,,,,,,,3,,,46,0
129780,note_off,0,0,4,,,,,,,,,,,,,,,3,,,58,0
129840,note_off,120,0,1,,,,,,,,,,,,,,,0,,,85,0
129840,note_on,0,0,1,,,,,,,,,,,,,,,0,,,86,91
129960,note_on,0,0,1,,,,,,,,,,,,,,,0,,,81,91
129960,note_off,120,0,1,,,,,,,,,,,,,,,0,,,86,0
130080,note_on,0,0,1,,,,,,,,,,,,,,,0,,,84,90
130080,note_off,120,0,1,,,,,,,,,,,,,,,0,,,81,0
130200,note_off,120,0,1,,,,,,,,,,,,,,,0,,,84,0
130200,note_on,0,0,1,,,,,,,,,,,,,,,0,,,82,90
130320,note_off,120,0,1,,,,,,,,,,,,,,,0,,,82,0
130320,note_on,0,0,1,,,,,,,,,,,,,,,0,,,81,89
130440,note_off,120,0,1,,,,,,,,,,,,,,,0,,,81,0
130440,note_on,0,0,1,,,,,,,,,,,,,,,0,,,79,89
130560,note_on,0,0,1,,,,,,,,,,,,,,,0,,,77,88
130560,note_off,120,0,1,,,,,,,,,,,,,,,0,,,79,0
130680,note_off,120,0,1,,,,,,,,,,,,,,,0,,,77,0
130680,note_on,0,0,1,,,,,,,,,,,,,,,0,,,78,88
130800,note_on,0,0,1,,,,,,,,,,,,,,,0,,,79,87
130800,note_off,120,0,1,,,,,,,,,,,,,,,0,,,78,0
130920,note_off,120,0,1,,,,,,,,,,,,,,,0,,,79,0
130920,note_on,0,0,1,,,,,,,,,,,,,,,0,,,74,87
131040,note_off,120,0,1,,,,,,,,,,,,,,,0,,,74,0
131040,note_on,0,0,1,,,,,,,,,,,,,,,0,,,77,86
131160,note_off,120,0,1,,,,,,,,,,,,,,,0,,,77,0
131160,note_on,0,0,1,,,,,,,,,,,,,,,0,,,75,86
131280,note_off,120,0,1,,,,,,,,,,,,,,,0,,,75,0
131280,note_on,0,0,1,,,,,,,,,,,,,,,0,,,74,85
131400,note_on,0,0,1,,,,,,,,,,,,,,,0,,,72,85
131400,note_off,120,0,1,,,,,,,,,,,,,,,0,,,74,0
131460,set_tempo,1710,1,0,,,,,,,441176,,,,,,,,,,,,
131520,note_on,1740,0,4,,,,,,,,,,,,,,,3,,,58,87
131520,note_on,0,0,1,,,,,,,,,,,,,,,0,,,70,84
131520,note_off,120,0,1,,,,,,,,,,,,,,,0,,,72,0
131640,note_on,0,0,4,,,,,,,,,,,,,,,3,,,61,87
131640,note_off,120,0,4,,,,,,,,,,,,,,,3,,,58,0
131640,note_off,120,0,1,,,,,,,,,,,,,,,0,,,70,0
131640,note_on,0,0,1,,,,,,,,,,,,,,,0,,,73,84
131647,set_tempo,187,1,0,,,,,,,434782,,,,,,,,,,,,
131760,note_on,0,0,4,,,,,,,,,,,,,,,3,,,62,86
131760,note_off,120,0,1,,,,,,,,,,,,,,,0,,,73,0
131760,note_on,0,0,1,,,,,,,,,,,,,,,0,,,74,83
131760,note_off,120,0,4,,,,,,,,,,,,,,,3,,,61,0
131880,note_on,0,0,1,,,,,,,,,,,,,,,0,,,69,83
131880,note_off,120,0,1,,,,,,,,,,,,,,,0,,,74,0
131880,note_off,120,0,4,,,,,,,,,,,,,,,3,,,62,0
131880,note_on,0,0,4,,,,,,,,,,,,,,,3,,,57,85
132000,note_off,120,0,4,,,,,,,,,,,,,,,3,,,57,0
132000,note_on,0,0,4,,,,,,,,,,,,,,,3,,,60,85
132000,note_on,0,0,1,,,,,,,,,,,,,,,0,,,72,82
132000,note_off,120,0,1,,,,,,,,,,,,,,,0,,,69,0
132120,note_off,120,0,4,,,,,,,,,,,,,,,3,,,60,0
132120,note_on,0,0,1,,,,,,,,,,,,,,,0,,,70,82
132120,note_off,120,0,1,,,,,,,,,,,,,,,0,,,72,0
132120,note_on,0,0,4,,,,,,,,,,,,,,,3,,,58,84
132240,note_off,120,0,1,,,,,,,,,,,,,,,0,,,70,0
132240,note_on,0,0,1,,,,,,,,,,,,,,,0,,,69,81
132240,note_off,120,0,4,,,,,,,,,,,,,,,3,,,58,0
132240,note_on,0,0,4,,,,,,,,,,,,,,,3,,,57,84
132360,note_on,0,0,1,,,,,,,,,,,,,,,0,,,67,81
132360,note_off,120,0,4,,,,,,,,,,,,,,,3,,,57,0
132360,note_on,0,0,4,,,,,,,,,,,,,,,3,,,55,83
132360,note_off,120,0,1,,,,,,,,,,,,,,,0,,,69,0
132480,note_off,120,0,1,,,,,,,,,,,,,,,0,,,67,0
132480,note_on,0,0,1,,,,,,,,,,,,,,,0,,,65,80
132480,note_on,0,0,4,,,,,,,,,,,,,,,3,,,53,83
132480,note_off,120,0,4,,,,,,,,,,,,,,,3,,,55,0
132600,note_on,0,0,4,,,,,,,,,,,,,,,3,,,54,82
132600,note_off,120,0,1,,,,,,,,,,,,,,,0,,,65,0
132600,note_on,0,0,1,,,,,,,,,,,,,,,0,,,66,80
132600,note_off,120,0,4,,,,,,,,,,,,,,,3,,,53,0
132720,note_on,0,0,4,,,,,,,,,,,,,,,3,,,55,82
132720,note_off,120,0,4,,,,,,,,,,,,,,,3,,,54,0
132720,note_on,0,0,1,,,,,,,,,,,,,,,0,,,67,79
132720,note_off,120,0,1,,,,,,,,,,,,,,,0,,,66,0
132840,note_off,120,0,1,,,,,,,,,,,,,,,0,,,67,0
132840,note_off,120,0,4,,,,,,,,,,,,,,,3,,,55,0
132840,note_on,0,0,1,,,,,,,,,,,,,,,0,,,62,79
132840,note_on,0,0,4,,,,,,,,,,,,,,,3,,,50,81
132960,note_off,120,0,1,,,,,,,,,,,,,,,0,,,62,0
132960,note_on,0,0,4,,,,,,,,,,,,,,,3,,,53,80
132960,note_on,0,0,1,,,,,,,,,,,,,,,0,,,65,78
132960,note_off,120,0,4,,,,,,,,,,,,,,,3,,,50,0
133080,note_on,0,0,4,,,,,,,,,,,,,,,3,,,51,80
133080,note_on,0,0,1,,,,,,,,,,,,,,,0,,,63,78
133080,note_off,120,0,4,,,,,,,,,,,,,,,3,,,53,0
133080,note_off,120,0,1,,,,,,,,,,,,,,,0,,,65,0
133200,note_off,120,0,4,,,,,,,,,,,,,,,3,,,51,0
133200,note_on,0,0,4,,,,,,,,,,,,,,,3,,,50,79
133200,note_on,0,0,1,,,,,,,,,,,,,,,0,,,62,77
133200,note_off,120,0,1,,,,,,,,,,,,,,,0,,,63,0
133320,note_on,0,0,1,,,,,,,,,,,,,,,0,,,60,77
133320,note_off,120,0,1,,,,,,,,,,,,,,,0,,,62,0
133320,note_off,120,0,4,,,,,,,,,,,,,,,3,,,50,0
133320,note_on,0,0,4,,,,,,,,,,,,,,,3,,,48,79
133380,set_tempo,1733,1,0,,,,,,,441176,,,,,,,,,,,,
133440,note_off,120,0,4,,,,,,,,,,,,,,,3,,,48,0
133440,note_off,120,0,1,,,,,,,,,,,,,,,0,,,60,0
133440,note_on,0,0,1,,,,,,,,,,,,,,,0,,,58,76
133440,note_on,0,0,4,,,,,,,,,,,,,,,3,,,46,78
133552,set_tempo,172,1,0,,,,,,,434782,,,,,,,,,,,,
133560,note_on,0,0,4,,,,,,,,,,,,,,,3,,,49,78
133560,note_off,120,0,4,,,,,,,,,,,,,,,3,,,46,0
133560,note_off,120,0,1,,,,,,,,,,,,,,,0,,,58,0
133560,note_on,0,0,1,,,,,,,,,,,,,,,0,,,61,76
133680,note_on,0,0,4,,,,,,,,,,,,,,,3,,,50,77
133680,note_off,120,0,4,,,,,,,,,,,,,,,3,,,49,0
133680,note_off,120,0,1,,,,,,,,,,,,,,,0,,,61,0
133680,note_on,0,0,1,,,,,,,,,,,,,,,0,,,62,75
133800,note_on,0,0,4,,,,,,,,,,,,,,,3,,,45,77
133800,note_off,120,0,4,,,,,,,,,,,,,,,3,,,50,0
133800,note_on,0,0,1,,,,,,,,,,,,,,,0,,,57,75
133800,note_off,120,0,1,,,,,,,,,,,,,,,0,,,62,0
133920,note_off,120,0,1,,,,,,,,,,,,,,,0,,,57,0
133920,note_on,0,0,1,,,,,,,,,,,,,,,0,,,60,74
133920,note_on,0,0,4,,,,,,,,,,,,,,,3,,,48,76
133920,note_off,120,0,4,,,,,,,,,,,,,,,3,,,45,0
134040,note_on,0,0,1,,,,,,,,,,,,,,,0,,,58,74
134040,note_off,120,0,4,,,,,,,,,,,,,,,3,,,48,0
134040,note_on,0,0,4,,,,,,,,,,,,,,,3,,,46,75
134040,note_off,120,0,1,,,,,,,,,,,,,,,0,,,60,0
134160,note_off,120,0,4,,,,,,,,,,,,,,,3,,,46,0
134160,note_on,0,0,1,,,,,,,,,,,,,,,0,,,57,73
134160,note_off,120,0,1,,,,,,,,,,,,,,,0,,,58,0
134160,note_on,0,0,4,,,,,,,,,,,,,,,3,,,45,75
134280,note_on,0,0,4,,,,,,,,,,,,,,,3,,,43,74
134280,note_off,120,0,4,,,,,,,,,,,,,,,3,,,45,0
134280,note_off,120,0,1,,,,,,,,,,,,,,,0,,,57,0
134280,note_on,0,0,1,,,,,,,,,,,,,,,0,,,55,73
134400,note_off,120,0,1,,,,,,,,,,,,,,,0,,,55,0
134400,note_on,0,0,1,,,,,,,,,,,,,,,0,,,53,72
134400,note_off,120,0,4,,,,,,,,,,,,,,,3,,,43,0
134400,note_on,0,0,4,,,,,,,,,,,,,,,3,,,41,74
134520,note_off,120,0,1,,,,,,,,,,,,,,,0,,,53,0
134520,note_on,0,0,1,,,,,,,,,,,,,,,0,,,55,72
134520,note_off,120,0,4,,,,,,,,,,,,,,,3,,,41,0
134520,note_on,0,0,4,,,,,,,,,,,,,,,3,,,43,73
134640,note_on,0,0,4,,,,,,,,,,,,,,,3,,,44,73
134640,note_off,120,0,4,,,,,,,,,,,,,,,3,,,43,0
134640,note_on,0,0,1,,,,,,,,,,,,,,,0,,,56,72
134640,note_off,120,0,1,,,,,,,,,,,,,,,0,,,55,0
134760,note_off,120,0,1,,,,,,,,,,,,,,,0,,,56,0
134760,note_off,120,0,4,,,,,,,,,,,,,,,3,,,44,0
134760,note_on,0,0,1,,,,,,,,,,,,,,,0,,,55,71
134760,note_on,0,0,4,,,,,,,,,,,,,,,3,,,43,72
134880,note_off,120,0,4,,,,,,,,,,,,,,,3,,,43,0
134880,note_on,0,0,4,,,,,,,,,,,,,,,3,,,41,72
134880,note_off,120,0,1,,,,,,,,,,,,,,,0,,,55,0
134880,note_on,0,0,1,,,,,,,,,,,,,,,0,,,53,71
135000,note_on,0,0,1,,,,,,,,,,,,,,,0,,,51,70
135000,note_off,120,0,1,,,,,,,,,,,,,,,0,,,53,0
135000,note_off,120,0,4,,,,,,,,,,,,,,,3,,,41,0
135000,note_on,0,0,4,,,,,,,,,,,,,,,3,,,39,71
135120,note_off,120,0,4,,,,,,,,,,,,,,,3,,,39,0
135120,note_off,120,0,1,,,,,,,,,,,,,,,0,,,51,0
135120,note_on,0,0,1,,,,,,,,,,,,,,,0,,,50,70
135120,note_on,0,0,4,,,,,,,,,,,,,,,3,,,38,71
135240,note_off,120,0,1,,,,,,,,,,,,,,,0,,,50,0
135240,note_on,0,0,1,,,,,,,,,,,,,,,0,,,48,69
135240,note_on,0,0,4,,,,,,,,,,,,,,,3,,,36,72
135240,note_off,120,0,4,,,,,,,,,,,,,,,3,,,38,0
135300,set_tempo,1748,1,0,,,,,,,441176,,,,,,,,,,,,
135360,set_tempo,60,1,0,,,,,,,434782,,,,,,,,,,,,
135360,note_off,120,0,1,,,,,,,,,,,,,,,0,,,48,0
135360,note_on,0,0,1,,,,,,,,,,,,,,,0,,,47,69
135360,note_on,0,0,4,,,,,,,,,,,,,,,3,,,47,72
135360,note_off,120,0,4,,,,,,,,,,,,,,,3,,,36,0
135480,note_on,0,0,4,,,,,,,,,,,,,,,3,,,50,73
135480,note_off,120,0,4,,,,,,,,,,,,,,,3,,,47,0
135600,note_off,120,0,4,,,,,,,,,,,,,,,3,,,50,0
135600,note_on,0,0,4,,,,,,,,,,,,,,,3,,,48,73
135720,note_off,120,0,4,,,,,,,,,,,,,,,3,,,48,0
135720,note_on,0,0,4,,,,,,,,,,,,,,,3,,,51,74
135720,note_off,360,0,1,,,,,,,,,,,,,,,0,,,47,0
135840,note_off,120,0,4,,,,,,,,,,,,,,,3,,,51,0
135840,note_on,0,0,4,,,,,,,,,,,,,,,3,,,50,74
135840,note_on,120,0,1,,,,,,,,,,,,,,,0,,,79,88
135960,note_off,120,0,4,,,,,,,,,,,,,,,3,,,50,0
135960,note_on,0,0,4,,,,,,,,,,,,,,,3,,,53,75
136080,note_off,120,0,4,,,,,,,,,,,,,,,3,,,53,0
136080,note_on,0,0,4,,,,,,,,,,,,,,,3,,,51,76
136200,note_on,0,0,4,,,,,,,,,,,,,,,3,,,55,76
136200,note_off,120,0,4,,,,,,,,,,,,,,,3,,,51,0
136320,note_off,120,0,4,,,,,,,,,,,,,,,3,,,55,0
136320,note_on,0,0,4,,,,,,,,,,,,,,,3,,,53,77
136440,note_off,120,0,4,,,,,,,,,,,,,,,3,,,53,0
136440,note_on,0,0,4,,,,,,,,,,,,,,,3,,,56,77
136560,note_off,120,0,4,,,,,,,,,,,,,,,3,,,56,0
136560,note_on,0,0,4,,,,,,,,,,,,,,,3,,,55,78
136680,note_off,120,0,4,,,,,,,,,,,,,,,3,,,55,0
136680,note_on,0,0,4,,,,,,,,,,,,,,,3,,,53,78
136800,note_on,0,0,1,,,,,,,,,,,,,,,0,,,77,77
136800,note_on,0,0,4,,,,,,,,,,,,,,,3,,,51,79
136800,note_off,960,0,1,,,,,,,,,,,,,,,0,,,79,0
136800,note_off,120,0,4,,,,,,,,,,,,,,,3,,,53,0
136860,note_on,60,0,1,,,,,,,,,,,,,,,0,,,79,78
136905,note_off,45,0,1,,,,,,,,,,,,,,,0,,,77,0
136920,note_on,15,0,1,,,,,,,,,,,,,,,0,,,77,79
136920,note_off,120,0,4,,,,,,,,,,,,,,,3,,,51,0
136920,note_on,0,0,4,,,,,,,,,,,,,,,3,,,50,79
136968,note_off,48,0,1,,,,,,,,,,,,,,,0,,,79,0
136980,note_on,12,0,1,,,,,,,,,,,,,,,0,,,79,81
137032,note_off,52,0,1,,,,,,,,,,,,,,,0,,,77,0
137040,note_on,8,0,1,,,,,,,,,,,,,,,0,,,77,82
137040,note_off,120,0,4,,,,,,,,,,,,,,,3,,,50,0
137040,note_on,0,0,4,,,,,,,,,,,,,,,3,,,48,80
137070,note_off,30,0,1,,,,,,,,,,,,,,,0,,,79,0
137080,note_on,10,0,1,,,,,,,,,,,,,,,0,,,79,83
137115,note_off,35,0,1,,,,,,,,,,,,,,,0,,,77,0
137120,note_on,5,0,1,,,,,,,,,,,,,,,0,,,77,83
137160,note_on,0,0,4,,,,,,,,,,,,,,,3,,,47,81
137160,note_off,120,0,4,,,,,,,,,,,,,,,3,,,48,0
137160,note_off,40,0,1,,,,,,,,,,,,,,,0,,,79,0
137160,set_tempo,1800,1,0,,,,,,,434782,,,,,,,,,,,,
137160,note_on,0,0,1,,,,,,,,,,,,,,,0,,,76,84
137208,note_off,48,0,1,,,,,,,,,,,,,,,0,,,77,0
137220,set_tempo,60,1,0,,,,,,,441176,,,,,,,,,,,,
137220,note_on,12,0,1,,,,,,,,,,,,,,,0,,,77,85
137265,note_off,45,0,1,,,,,,,,,,,,,,,0,,,76,0
137280,note_off,120,0,4,,,,,,,,,,,,,,,3,,,47,0
137280,note_on,0,0,1,,,,,,,,,,,,,,,0,,,75,87
137280,note_on,0,0,4,,,,,,,,,,,,,,,3,,,48,81
137280,note_off,15,0,1,,,,,,,,,,,,,,,0,,,77,0
137400,note_off,120,0,1,,,,,,,,,,,,,,,0,,,75,0
137400,note_on,0,0,1,,,,,,,,,,,,,,,0,,,86,85
137460,set_tempo,240,1,0,,,,,,,428571,,,,,,,,,,,,
137520,note_off,120,0,1,,,,,,,,,,,,,,,0,,,86,0
137520,note_on,0,0,1,,,,,,,,,,,,,,,0,,,87,85
137640,note_off,120,0,1,,,,,,,,,,,,,,,0,,,87,0
137640,note_on,0,0,1,,,,,,,,,,,,,,,0,,,82,84
137760,note_off,480,0,4,,,,,,,,,,,,,,,3,,,48,0
137760,note_off,120,0,1,,,,,,,,,,,,,,,0,,,82,0
137760,note_on,0,0,1,,,,,,,,,,,,,,,0,,,86,84
137880,note_off,120,0,1,,,,,,,,,,,,,,,0,,,86,0
137880,note_on,0,0,1,,,,,,,,,,,,,,,0,,,84,84
138000,note_off,120,0,1,,,,,,,,,,,,,,,0,,,84,0
138000,note_on,0,0,1,,,,,,,,,,,,,,,0,,,82,83
138120,note_off,120,0,1,,,,,,,,,,,,,,,0,,,82,0
138120,note_on,0,0,1,,,,,,,,,,,,,,,0,,,80,83
138240,note_on,0,0,1,,,,,,,,,,,,,,,0,,,79,83
138240,note_off,120,0,1,,,,,,,,,,,,,,,0,,,80,0
138360,note_off,120,0,1,,,,,,,,,,,,,,,0,,,79,0
138360,note_on,0,0,1,,,,,,,,,,,,,,,0,,,80,82
138480,note_off,120,0,1,,,,,,,,,,,,,,,0,,,80,0
138480,note_on,0,0,1,,,,,,,,,,,,,,,0,,,79,82
138600,note_off,120,0,1,,,,,,,,,,,,,,,0,,,79,0
138600,note_on,0,0,1,,,,,,,,,,,,,,,0,,,78,82
138720,note_off,120,0,1,,,,,,,,,,,,,,,0,,,78,0
138720,note_on,0,0,1,,,,,,,,,,,,,,,0,,,79,81
138840,note_on,0,0,1,,,,,,,,,,,,,,,0,,,77,81
138840,note_off,120,0,1,,,,,,,,,,,,,,,0,,,79,0
138960,note_on,0,0,1,,,,,,,,,,,,,,,0,,,75,81
138960,note_off,120,0,1,,,,,,,,,,,,,,,0,,,77,0
139080,note_off,120,0,1,,,,,,,,,,,,,,,0,,,75,0
139080,note_on,0,0,1,,,,,,,,,,,,,,,0,,,74,81
139140,set_tempo,1680,1,0,,,,,,,441176,,,,,,,,,,,,
139200,note_off,120,0,1,,,,,,,,,,,,,,,0,,,74,0
139200,note_on,0,0,1,,,,,,,,,,,,,,,0,,,72,80
139200,note_on,1440,0,4,,,,,,,,,,,,,,,3,,,60,79
139297,set_tempo,157,1,0,,,,,,,434782,,,,,,,,,,,,
139320,note_off,120,0,4,,,,,,,,,,,,,,,3,,,60,0
139320,note_on,0,0,4,,,,,,,,,,,,,,,3,,,62,79
139320,note_off,120,0,1,,,,,,,,,,,,,,,0,,,72,0
139320,note_on,0,0,1,,,,,,,,,,,,,,,0,,,74,80
139440,note_off,120,0,4,,,,,,,,,,,,,,,3,,,62,0
139440,note_on,0,0,4,,,,,,,,,,,,,,,3,,,63,79
139440,note_on,0,0,1,,,,,,,,,,,,,,,0,,,75,80
139440,note_off,120,0,1,,,,,,,,,,,,,,,0,,,74,0
139560,note_on,0,0,1,,,,,,,,,,,,,,,0,,,70,79
139560,note_off,120,0,1,,,,,,,,,,,,,,,0,,,75,0
139560,note_off,120,0,4,,,,,,,,,,,,,,,3,,,63,0
139560,note_on,0,0,4,,,,,,,,,,,,,,,3,,,58,78
139680,note_off,120,0,1,,,,,,,,,,,,,,,0,,,70,0
139680,note_off,120,0,4,,,,,,,,,,,,,,,3,,,58,0
139680,note_on,0,0,4,,,,,,,,,,,,,,,3,,,62,78
139680,note_on,0,0,1,,,,,,,,,,,,,,,0,,,74,79
139800,note_on,0,0,1,,,,,,,,,,,,,,,0,,,72,79
139800,note_on,0,0,4,,,,,,,,,,,,,,,3,,,60,78
139800,note_off,120,0,4,,,,,,,,,,,,,,,3,,,62,0
139800,note_off,120,0,1,,,,,,,,,,,,,,,0,,,74,0
139920,note_on,0,0,4,,,,,,,,,,,,,,,3,,,58,78
139920,note_off,120,0,4,,,,,,,,,,,,,,,3,,,60,0
139920,note_on,0,0,1,,,,,,,,,,,,,,,0,,,70,78
139920,note_off,120,0,1,,,,,,,,,,,,,,,0,,,72,0
140040,note_off,120,0,4,,,,,,,,,,,,,,,3,,,58,0
140040,note_off,120,0,1,,,,,,,,,,,,,,,0,,,70,0
140040,note_on,0,0,4,,,,,,,,,,,,,,,3,,,56,77
140040,note_on,0,0,1,,,,,,,,,,,,,,,0,,,68,78
140160,note_off,120,0,4,,,,,,,,,,,,,,,3,,,56,0
140160,note_on,0,0,4,,,,,,,,,,,,,,,3,,,55,77
140160,note_on,0,0,1,,,,,,,,,,,,,,,0,,,67,78
140160,note_off,120,0,1,,,,,,,,,,,,,,,0,,,68,0
140280,note_off,120,0,4,,,,,,,,,,,,,,,3,,,55,0
140280,note_on,0,0,1,,,,,,,,,,,,,,,0,,,68,77
140280,note_off,120,0,1,,,,,,,,,,,,,,,0,,,67,0
140280,note_on,0,0,4,,,,,,,,,,,,,,,3,,,56,77
140400,note_on,0,0,1,,,,,,,,,,,,,,,0,,,67,77
140400,note_off,120,0,4,,,,,,,,,,,,,,,3,,,56,0
140400,note_on,0,0,4,,,,,,,,,,,,,,,3,,,55,76
140400,note_off,120,0,1,,,,,,,,,,,,,,,0,,,68,0
140520,note_off,120,0,1,,,,,,,,,,,,,,,0,,,67,0
140520,note_on,0,0,1,,,,,,,,,,,,,,,0,,,66,77
140520,note_off,120,0,4,,,,,,,,,,,,,,,3,,,55,0
140520,note_on,0,0,4,,,,,,,,,,,,,,,3,,,54,76
140640,note_on,0,0,1,,,,,,,,,,,,,,,0,,,67,76
140640,note_off,120,0,1,,,,,,,,,,,,,,,0,,,66,0
140640,note_off,120,0,4,,,,,,,,,,,,,,,3,,,54,0
140640,note_on,0,0,4,,,,,,,,,,,,,,,3,,,55,76
140760,note_on,0,0,1,,,,,,,,,,,,,,,0,,,65,76
140760,note_off,120,0,1,,,,,,,,,,,,,,,0,,,67,0
140760,note_on,0,0,4,,,,,,,,,,,,,,,3,,,53,76
140760,note_off,120,0,4,,,,,,,,,,,,,,,3,,,55,0
140880,note_on,0,0,4,,,,,,,,,,,,,,,3,,,51,75
140880,note_off,120,0,1,,,,,,,,,,,,,,,0,,,65,0
140880,note_off,120,0,4,,,,,,,,,,,,,,,3,,,53,0
140880,note_on,0,0,1,,,,,,,,,,,,,,,0,,,63,76
141000,note_off,120,0,4,,,,,,,,,,,,,,,3,,,51,0
141000,note_on,0,0,1,,,,,,,,,,,,,,,0,,,62,75
141000,note_off,120,0,1,,,,,,,,,,,,,,,0,,,63,0
141000,note_on,0,0,4,,,,,,,,,,,,,,,3,,,50,75
141060,set_tempo,1763,1,0,,,,,,,441176,,,,,,,,,,,,
141120,note_on,0,0,4,,,,,,,,,,,,,,,3,,,48,75
141120,note_off,120,0,4,,,,,,,,,,,,,,,3,,,50,0
141120,note_off,120,0,1,,,,,,,,,,,,,,,0,,,62,0
141120,note_on,0,0,1,,,,,,,,,,,,,,,0,,,60,75
141240,note_on,0,0,4,,,,,,,,,,,,,,,3,,,50,74
141240,note_off,120,0,4,,,,,,,,,,,,,,,3,,,48,0
141240,note_on,0,0,1,,,,,,,,,,,,,,,0,,,62,75
141240,note_off,120,0,1,,,,,,,,,,,,,,,0,,,60,0
141247,set_tempo,187,1,0,,,,,,,434782,,,,,,,,,,,,
141360,note_off,120,0,4,,,,,,,,,,,,,,,3,,,50,0
141360,note_on,0,0,4,,,,,,,,,,,,,,,3,,,51,74
141360,note_on,0,0,1,,,,,,,,,,,,,,,0,,,63,74
141360,note_off,120,0,1,,,,,,,,,,,,,,,0,,,62,0
141480,note_off,120,0,1,,,,,,,,,,,,,,,0,,,63,0
141480,note_on,0,0,4,,,,,,,,,,,,,,,3,,,46,74
141480,note_on,0,0,1,,,,,,,,,,,,,,,0,,,58,74
141480,note_off,120,0,4,,,,,,,,,,,,,,,3,,,51,0
141600,note_off,120,0,1,,,,,,,,,,,,,,,0,,,58,0
141600,note_on,0,0,4,,,,,,,,,,,,,,,3,,,50,73
141600,note_off,120,0,4,,,,,,,,,,,,,,,3,,,46,0
141600,note_on,0,0,1,,,,,,,,,,,,,,,0,,,62,74
141720,note_off,120,0,1,,,,,,,,,,,,,,,0,,,62,0
141720,note_on,0,0,1,,,,,,,,,,,,,,,0,,,60,73
141720,note_on,0,0,4,,,,,,,,,,,,,,,3,,,48,73
141720,note_off,120,0,4,,,,,,,,,,,,,,,3,,,50,0
141840,note_on,0,0,1,,,,,,,,,,,,,,,0,,,58,73
141840,note_on,0,0,4,,,,,,,,,,,,,,,3,,,46,73
141840,note_off,120,0,1,,,,,,,,,,,,,,,0,,,60,0
141840,note_off,120,0,4,,,,,,,,,,,,,,,3,,,48,0
141960,note_off,120,0,1,,,,,,,,,,,,,,,0,,,58,0
141960,note_off,120,0,4,,,,,,,,,,,,,,,3,,,46,0
141960,note_on,0,0,4,,,,,,,,,,,,,,,3,,,44,73
141960,note_on,0,0,1,,,,,,,,,,,,,,,0,,,56,73
142080,note_off,120,0,4,,,,,,,,,,,,,,,3,,,44,0
142080,note_on,0,0,4,,,,,,,,,,,,,,,3,,,43,72
142080,note_on,0,0,1,,,,,,,,,,,,,,,0,,,55,72
142080,note_off,120,0,1,,,,,,,,,,,,,,,0,,,56,0
142200,note_off,120,0,1,,,,,,,,,,,,,,,0,,,55,0
142200,note_on,0,0,1,,,,,,,,,,,,,,,0,,,57,72
142200,note_off,120,0,4,,,,,,,,,,,,,,,3,,,43,0
142200,note_on,0,0,4,,,,,,,,,,,,,,,3,,,45,72
142320,note_on,0,0,1,,,,,,,,,,,,,,,0,,,58,72
142320,note_off,120,0,1,,,,,,,,,,,,,,,0,,,57,0
142320,note_off,120,0,4,,,,,,,,,,,,,,,3,,,45,0
142320,note_on,0,0,4,,,,,,,,,,,,,,,3,,,46,72
142440,note_on,0,0,4,,,,,,,,,,,,,,,3,,,45,71
142440,note_off,120,0,4,,,,,,,,,,,,,,,3,,,46,0
142440,note_on,0,0,1,,,,,,,,,,,,,,,0,,,57,71
142440,note_off,120,0,1,,,,,,,,,,,,,,,0,,,58,0
142560,note_on,0,0,1,,,,,,,,,,,,,,,0,,,55,71
142560,note_off,120,0,1,,,,,,,,,,,,,,,0,,,57,0
142560,note_off,120,0,4,,,,,,,,,,,,,,,3,,,45,0
142560,note_on,0,0,4,,,,,,,,,,,,,,,3,,,43,71
142680,note_off,120,0,1,,,,,,,,,,,,,,,0,,,55,0
142680,note_on,0,0,1,,,,,,,,,,,,,,,0,,,53,71
142680,note_on,0,0,4,,,,,,,,,,,,,,,3,,,41,71
142680,note_off,120,0,4,,,,,,,,,,,,,,,3,,,43,0
142800,note_on,0,0,1,,,,,,,,,,,,,,,0,,,52,70
142800,note_off,120,0,1,,,,,,,,,,,,,,,0,,,53,0
142800,note_on,0,0,4,,,,,,,,,,,,,,,3,,,40,70
142800,note_off,120,0,4,,,,,,,,,,,,,,,3,,,41,0
142920,note_on,0,0,1,,,,,,,,,,,,,,,0,,,50,70
142920,note_off,120,0,1,,,,,,,,,,,,,,,0,,,52,0
142920,note_off,120,0,4,,,,,,,,,,,,,,,3,,,40,0
142920,note_on,0,0,4,,,,,,,,,,,,,,,3,,,38,72
142980,set_tempo,1733,1,0,,,,,,,441176,,,,,,,,,,,,
143040,note_off,120,0,1,,,,,,,,,,,,,,,0,,,50,0
143040,note_on,0,0,1,,,,,,,,,,,,,,,0,,,49,70
143040,note_off,120,0,4,,,,,,,,,,,,,,,3,,,38,0
143040,note_on,0,0,4,,,,,,,,,,,,,,,3,,,37,72
143040,set_tempo,60,1,0,,,,,,,434782,,,,,,,,,,,,
143160,note_off,120,0,4,,,,,,,,,,,,,,,3,,,37,0
143160,note_on,0,0,4,,,,,,,,,,,,,,,3,,,40,73
143280,note_on,0,0,4,,,,,,,,,,,,,,,3,,,38,74
143280,note_off,120,0,4,,,,,,,,,,,,,,,3,,,40,0
143400,note_off,120,0,4,,,,,,,,,,,,,,,3,,,38,0
143400,note_on,0,0,4,,,,,,,,,,,,,,,3,,,41,74
143400,note_off,360,0,1,,,,,,,,,,,,,,,0,,,49,0
143520,note_off,120,0,4,,,,,,,,,,,,,,,3,,,41,0
143520,note_on,0,0,4,,,,,,,,,,,,,,,3,,,40,75
143520,note_on,120,0,1,,,,,,,,,,,,,,,0,,,81,88
143640,note_on,0,0,4,,,,,,,,,,,,,,,3,,,43,75
143640,note_off,120,0,4,,,,,,,,,,,,,,,3,,,40,0
143760,note_on,0,0,4,,,,,,,,,,,,,,,3,,,41,76
143760,note_off,120,0,4,,,,,,,,,,,,,,,3,,,43,0
143880,note_off,120,0,4,,,,,,,,,,,,,,,3,,,41,0
143880,note_on,0,0,4,,,,,,,,,,,,,,,3,,,45,77
144000,note_off,120,0,4,,,,,,,,,,,,,,,3,,,45,0
144000,note_on,0,0,4,,,,,,,,,,,,,,,3,,,43,77
144120,note_off,120,0,4,,,,,,,,,,,,,,,3,,,43,0
144120,note_on,0,0,4,,,,,,,,,,,,,,,3,,,46,78
144240,note_off,120,0,4,,,,,,,,,,,,,,,3,,,46,0
144240,note_on,0,0,4,,,,,,,,,,,,,,,3,,,45,78
144360,note_off,120,0,4,,,,,,,,,,,,,,,3,,,45,0
144360,note_on,0,0,4,,,,,,,,,,,,,,,3,,,43,79
144480,note_off,120,0,4,,,,,,,,,,,,,,,3,,,43,0
144480,note_on,0,0,4,,,,,,,,,,,,,,,3,,,41,80
144480,note_on,0,0,1,,,,,,,,,,,,,,,0,,,79,81
144480,note_off,960,0,1,,,,,,,,,,,,,,,0,,,81,0
144540,note_on,60,0,1,,,,,,,,,,,,,,,0,,,81,83
144596,note_off,56,0,1,,,,,,,,,,,,,,,0,,,79,0
144600,note_off,120,0,4,,,,,,,,,,,,,,,3,,,41,0
144600,note_on,4,0,1,,,,,,,,,,,,,,,0,,,79,84
144600,note_on,0,0,4,,,,,,,,,,,,,,,3,,,40,80
144652,note_off,52,0,1,,,,,,,,,,,,,,,0,,,81,0
144660,note_on,8,0,1,,,,,,,,,,,,,,,0,,,81,85
144712,note_off,52,0,1,,,,,,,,,,,,,,,0,,,79,0
144720,note_off,120,0,4,,,,,,,,,,,,,,,3,,,40,0
144720,note_on,8,0,1,,,,,,,,,,,,,,,0,,,79,87
144720,note_on,0,0,4,,,,,,,,,,,,,,,3,,,38,81
144740,note_off,20,0,1,,,,,,,,,,,,,,,0,,,81,0
144760,note_on,20,0,1,,,,,,,,,,,,,,,0,,,81,88
144791,note_off,31,0,1,,,,,,,,,,,,,,,0,,,79,0
144800,note_on,9,0,1,,,,,,,,,,,,,,,0,,,79,89
144840,set_tempo,1800,1,0,,,,,,,434782,,,,,,,,,,,,
144840,note_off,40,0,1,,,,,,,,,,,,,,,0,,,81,0
144840,note_off,120,0,4,,,,,,,,,,,,,,,3,,,38,0
144840,note_on,0,0,1,,,,,,,,,,,,,,,0,,,77,90
144840,note_on,0,0,4,,,,,,,,,,,,,,,3,,,37,81
144880,note_off,40,0,1,,,,,,,,,,,,,,,0,,,79,0
144900,set_tempo,60,1,0,,,,,,,441176,,,,,,,,,,,,
144900,note_on,20,0,1,,,,,,,,,,,,,,,0,,,79,91
144933,note_off,33,0,1,,,,,,,,,,,,,,,0,,,77,0
144960,note_off,120,0,4,,,,,,,,,,,,,,,3,,,37,0
144960,note_on,0,0,4,,,,,,,,,,,,,,,3,,,38,82
144960,note_on,27,0,1,,,,,,,,,,,,,,,0,,,77,93
144963,note_off,3,0,1,,,,,,,,,,,,,,,0,,,79,0
145080,note_on,0,0,1,,,,,,,,,,,,,,,0,,,76,93
145080,note_off,117,0,1,,,,,,,,,,,,,,,0,,,77,0
145140,set_tempo,240,1,0,,,,,,,428571,,,,,,,,,,,,
145200,note_on,0,0,1,,,,,,,,,,,,,,,0,,,77,93
145200,note_off,120,0,1,,,,,,,,,,,,,,,0,,,76,0
145320,note_on,0,0,1,,,,,,,,,,,,,,,0,,,73,93
145320,note_off,120,0,1,,,,,,,,,,,,,,,0,,,77,0
145440,note_off,120,0,1,,,,,,,,,,,,,,,0,,,73,0
145440,note_off,480,0,4,,,,,,,,,,,,,,,3,,,38,0
145440,note_on,0,0,1,,,,,,,,,,,,,,,0,,,76,92
145560,note_off,120,0,1,,,,,,,,,,,,,,,0,,,76,0
145560,note_on,0,0,1,,,,,,,,,,,,,,,0,,,74,92
145680,note_on,0,0,1,,,,,,,,,,,,,,,0,,,72,92
145680,note_off,120,0,1,,,,,,,,,,,,,,,0,,,74,0
145800,note_on,0,0,1,,,,,,,,,,,,,,,0,,,70,91
145800,note_off,120,0,1,,,,,,,,,,,,,,,0,,,72,0
145920,note_on,0,0,1,,,,,,,,,,,,,,,0,,,69,91
145920,note_off,120,0,1,,,,,,,,,,,,,,,0,,,70,0
146040,note_on,0,0,1,,,,,,,,,,,,,,,0,,,70,91
146040,note_off,120,0,1,,,,,,,,,,,,,,,0,,,69,0
146160,note_off,120,0,1,,,,,,,,,,,,,,,0,,,70,0
146160,note_on,0,0,1,,,,,,,,,,,,,,,0,,,69,90
146280,note_off,120,0,1,,,,,,,,,,,,,,,0,,,69,0
146280,note_on,0,0,1,,,,,,,,,,,,,,,0,,,68,90
146400,note_off,120,0,1,,,,,,,,,,,,,,,0,,,68,0
146400,note_on,0,0,1,,,,,,,,,,,,,,,0,,,69,90
146520,note_off,120,0,1,,,,,,,,,,,,,,,0,,,69,0
146520,note_on,0,0,1,,,,,,,,,,,,,,,0,,,67,89
146640,note_on,0,0,1,,,,,,,,,,,,,,,0,,,65,89
146640,note_off,120,0,1,,,,,,,,,,,,,,,0,,,67,0
146760,note_on,0,0,1,,,,,,,,,,,,,,,0,,,64,89
146760,note_off,120,0,1,,,,,,,,,,,,,,,0,,,65,0
146820,set_tempo,1680,1,0,,,,,,,441176,,,,,,,,,,,,
146880,note_on,0,0,1,,,,,,,,,,,,,,,0,,,62,88
146880,note_off,120,0,1,,,,,,,,,,,,,,,0,,,64,0
146880,note_on,1440,0,4,,,,,,,,,,,,,,,3,,,50,85
147000,note_off,120,0,4,,,,,,,,,,,,,,,3,,,50,0
147000,note_on,0,0,4,,,,,,,,,,,,,,,3,,,52,85
147000,set_tempo,180,1,0,,,,,,,434782,,,,,,,,,,,,
147000,note_off,120,0,1,,,,,,,,,,,,,,,0,,,62,0
147000,note_on,0,0,1,,,,,,,,,,,,,,,0,,,64,88
147120,note_off,120,0,1,,,,,,,,,,,,,,,0,,,64,0
147120,note_on,0,0,1,,,,,,,,,,,,,,,0,,,65,88
147120,note_on,0,0,4,,,,,,,,,,,,,,,3,,,53,85
147120,note_off,120,0,4,,,,,,,,,,,,,,,3,,,52,0
147240,note_off,120,0,1,,,,,,,,,,,,,,,0,,,65,0
147240,note_on,0,0,1,,,,,,,,,,,,,,,0,,,61,87
147240,note_on,0,0,4,,,,,,,,,,,,,,,3,,,49,84
147240,note_off,120,0,4,,,,,,,,,,,,,,,3,,,53,0
147360,note_off,120,0,1,,,,,,,,,,,,,,,0,,,61,0
147360,note_on,0,0,1,,,,,,,,,,,,,,,0,,,64,87
147360,note_on,0,0,4,,,,,,,,,,,,,,,3,,,52,84
147360,note_off,120,0,4,,,,,,,,,,,,,,,3,,,49,0
147480,note_on,0,0,4,,,,,,,,,,,,,,,3,,,50,84
147480,note_off,120,0,4,,,,,,,,,,,,,,,3,,,52,0
147480,note_on,0,0,1,,,,,,,,,,,,,,,0,,,62,87
147480,note_off,120,0,1,,,,,,,,,,,,,,,0,,,64,0
147600,note_on,0,0,1,,,,,,,,,,,,,,,0,,,60,86
147600,note_off,120,0,1,,,,,,,,,,,,,,,0,,,62,0
147600,note_off,120,0,4,,,,,,,,,,,,,,,3,,,50,0
147600,note_on,0,0,4,,,,,,,,,,,,,,,3,,,48,83
147720,note_off,120,0,4,,,,,,,,,,,,,,,3,,,48,0
147720,note_on,0,0,1,,,,,,,,,,,,,,,0,,,58,86
147720,note_on,0,0,4,,,,,,,,,,,,,,,3,,,46,83
147720,note_off,120,0,1,,,,,,,,,,,,,,,0,,,60,0
147840,note_on,0,0,1,,,,,,,,,,,,,,,0,,,57,86
147840,note_off,120,0,1,,,,,,,,,,,,,,,0,,,58,0
147840,note_off,120,0,4,,,,,,,,,,,,,,,3,,,46,0
147840,note_on,0,0,4,,,,,,,,,,,,,,,3,,,45,83
147960,note_on,0,0,1,,,,,,,,,,,,,,,0,,,58,85
147960,note_off,120,0,1,,,,,,,,,,,,,,,0,,,57,0
147960,note_off,120,0,4,,,,,,,,,,,,,,,3,,,45,0
147960,note_on,0,0,4,,,,,,,,,,,,,,,3,,,46,82
148080,note_on,0,0,1,,,,,,,,,,,,,,,0,,,60,85
148080,note_on,0,0,4,,,,,,,,,,,,,,,3,,,48,82
148080,note_off,120,0,1,,,,,,,,,,,,,,,0,,,58,0
148080,note_off,120,0,4,,,,,,,,,,,,,,,3,,,46,0
148200,note_off,120,0,1,,,,,,,,,,,,,,,0,,,60,0
148200,note_on,0,0,1,,,,,,,,,,,,,,,0,,,58,84
148200,note_on,0,0,4,,,,,,,,,,,,,,,3,,,46,82
148200,note_off,120,0,4,,,,,,,,,,,,,,,3,,,48,0
148320,note_off,120,0,4,,,,,,,,,,,,,,,3,,,46,0
148320,note_on,0,0,4,,,,,,,,,,,,,,,3,,,45,81
148320,note_on,0,0,1,,,,,,,,,,,,,,,0,,,57,84
148320,note_off,120,0,1,,,,,,,,,,,,,,,0,,,58,0
148440,note_on,0,0,1,,,,,,,,,,,,,,,0,,,58,84
148440,note_off,120,0,1,,,,,,,,,,,,,,,0,,,57,0
148440,note_on,0,0,4,,,,,,,,,,,,,,,3,,,46,81
148440,note_off,120,0,4,,,,,,,,,,,,,,,3,,,45,0
148560,note_on,0,0,1,,,,,,,,,,,,,,,0,,,57,83
148560,note_off,120,0,1,,,,,,,,,,,,,,,0,,,58,0
148560,note_on,0,0,4,,,,,,,,,,,,,,,3,,,45,81
148560,note_off,120,0,4,,,,,,,,,,,,,,,3,,,46,0
148680,note_on,0,0,4,,,,,,,,,,,,,,,3,,,43,80
148680,note_off,120,0,4,,,,,,,,,,,,,,,3,,,45,0
148680,note_on,0,0,1,,,,,,,,,,,,,,,0,,,55,83
148680,note_off,120,0,1,,,,,,,,,,,,,,,0,,,57,0
148740,set_tempo,1740,1,0,,,,,,,441176,,,,,,,,,,,,
148800,note_on,0,0,1,,,,,,,,,,,,,,,0,,,54,83
148800,note_off,120,0,4,,,,,,,,,,,,,,,3,,,43,0
148800,note_on,0,0,4,,,,,,,,,,,,,,,3,,,42,80
148800,note_off,120,0,1,,,,,,,,,,,,,,,0,,,55,0
148912,set_tempo,172,1,0,,,,,,,434782,,,,,,,,,,,,
148920,note_on,0,0,4,,,,,,,,,,,,,,,3,,,45,80
148920,note_off,120,0,4,,,,,,,,,,,,,,,3,,,42,0
148920,note_off,120,0,1,,,,,,,,,,,,,,,0,,,54,0
148920,note_on,0,0,1,,,,,,,,,,,,,,,0,,,57,82
149040,note_off,120,0,4,,,,,,,,,,,,,,,3,,,45,0
149040,note_off,120,0,1,,,,,,,,,,,,,,,0,,,57,0
149040,note_on,0,0,1,,,,,,,,,,,,,,,0,,,55,82
149040,note_on,0,0,4,,,,,,,,,,,,,,,3,,,43,79
149160,note_off,120,0,4,,,,,,,,,,,,,,,3,,,43,0
149160,note_on,0,0,4,,,,,,,,,,,,,,,3,,,46,79
149160,note_off,120,0,1,,,,,,,,,,,,,,,0,,,55,0
149160,note_on,0,0,1,,,,,,,,,,,,,,,0,,,58,82
149280,note_off,120,0,4,,,,,,,,,,,,,,,3,,,46,0
149280,note_off,120,0,1,,,,,,,,,,,,,,,0,,,58,0
149280,note_on,0,0,1,,,,,,,,,,,,,,,0,,,57,81
149280,note_on,0,0,4,,,,,,,,,,,,,,,3,,,45,79
149400,note_on,0,0,1,,,,,,,,,,,,,,,0,,,60,81
149400,note_off,120,0,1,,,,,,,,,,,,,,,0,,,57,0
149400,note_off,120,0,4,,,,,,,,,,,,,,,3,,,45,0
149400,note_on,0,0,4,,,,,,,,,,,,,,,3,,,48,78
149520,note_off,120,0,1,,,,,,,,,,,,,,,0,,,60,0
149520,note_on,0,0,1,,,,,,,,,,,,,,,0,,,58,81
149520,note_off,120,0,4,,,,,,,,,,,,,,,3,,,48,0
149520,note_on,0,0,4,,,,,,,,,,,,,,,3,,,46,78
149640,note_on,0,0,1,,,,,,,,,,,,,,,0,,,62,80
149640,note_off,120,0,4,,,,,,,,,,,,,,,3,,,46,0
149640,note_on,0,0,4,,,,,,,,,,,,,,,3,,,50,78
149640,note_off,120,0,1,,,,,,,,,,,,,,,0,,,58,0
149760,note_off,120,0,1,,,,,,,,,,,,,,,0,,,62,0
149760,note_off,120,0,4,,,,,,,,,,,,,,,3,,,50,0
149760,note_on,0,0,4,,,,,,,,,,,,,,,3,,,48,77
149760,note_on,0,0,1,,,,,,,,,,,,,,,0,,,60,80
149880,note_off,120,0,4,,,,,,,,,,,,,,,3,,,48,0
149880,note_off,120,0,1,,,,,,,,,,,,,,,0,,,60,0
149880,note_on,0,0,1,,,,,,,,,,,,,,,0,,,63,80
149880,note_on,0,0,4,,,,,,,,,,,,,,,3,,,51,77
150000,note_off,120,0,1,,,,,,,,,,,,,,,0,,,63,0
150000,note_on,0,0,4,,,,,,,,,,,,,,,3,,,50,77
150000,note_on,0,0,1,,,,,,,,,,,,,,,0,,,62,79
150000,note_off,120,0,4,,,,,,,,,,,,,,,3,,,51,0
150120,note_off,120,0,4,,,,,,,,,,,,,,,3,,,50,0
150120,note_on,0,0,4,,,,,,,,,,,,,,,3,,,48,76
150120,note_on,0,0,1,,,,,,,,,,,,,,,0,,,60,79
150120,note_off,120,0,1,,,,,,,,,,,,,,,0,,,62,0
150240,note_off,120,0,4,,,,,,,,,,,,,,,3,,,48,0
150240,note_on,0,0,1,,,,,,,,,,,,,,,0,,,58,79
150240,note_off,120,0,1,,,,,,,,,,,,,,,0,,,60,0
150240,note_on,0,0,4,,,,,,,,,,,,,,,3,,,46,76
150360,note_on,0,0,4,,,,,,,,,,,,,,,3,,,45,76
150360,note_on,0,0,1,,,,,,,,,,,,,,,0,,,57,78
150360,note_off,120,0,4,,,,,,,,,,,,,,,3,,,46,0
150360,note_off,120,0,1,,,,,,,,,,,,,,,0,,,58,0
150480,note_off,120,0,1,,,,,,,,,,,,,,,0,,,57,0
150480,note_on,0,0,4,,,,,,,,,,,,,,,3,,,43,75
150480,note_on,0,0,1,,,,,,,,,,,,,,,0,,,55,78
150480,note_off,120,0,4,,,,,,,,,,,,,,,3,,,45,0
150600,note_off,120,0,4,,,,,,,,,,,,,,,3,,,43,0
150600,note_on,0,0,4,,,,,,,,,,,,,,,3,,,41,75
150600,note_on,0,0,1,,,,,,,,,,,,,,,0,,,53,78
150600,note_off,120,0,1,,,,,,,,,,,,,,,0,,,55,0
150660,set_tempo,1748,1,0,,,,,,,441176,,,,,,,,,,,,
150720,note_off,120,0,4,,,,,,,,,,,,,,,3,,,41,0
150720,note_on,0,0,4,,,,,,,,,,,,,,,3,,,43,75
150720,note_on,0,0,1,,,,,,,,,,,,,,,0,,,55,77
150720,note_off,120,0,1,,,,,,,,,,,,,,,0,,,53,0
150720,set_tempo,60,1,0,,,,,,,434782,,,,,,,,,,,,
150840,note_off,120,0,1,,,,,,,,,,,,,,,0,,,55,0
150840,note_on,0,0,1,,,,,,,,,,,,,,,0,,,57,77
150840,note_on,0,0,4,,,,,,,,,,,,,,,3,,,45,74
150840,note_off,120,0,4,,,,,,,,,,,,,,,3,,,43,0
150960,note_on,0,0,1,,,,,,,,,,,,,,,0,,,58,77
150960,note_on,0,0,4,,,,,,,,,,,,,,,3,,,46,74
150960,note_off,120,0,1,,,,,,,,,,,,,,,0,,,57,0
150960,note_off,120,0,4,,,,,,,,,,,,,,,3,,,45,0
151080,note_on,0,0,1,,,,,,,,,,,,,,,0,,,57,76
151080,note_off,120,0,1,,,,,,,,,,,,,,,0,,,58,0
151080,note_on,0,0,4,,,,,,,,,,,,,,,3,,,45,74
151080,note_off,120,0,4,,,,,,,,,,,,,,,3,,,46,0
151200,note_off,120,0,1,,,,,,,,,,,,,,,0,,,57,0
151200,note_on,0,0,1,,,,,,,,,,,,,,,0,,,55,76
151200,note_off,120,0,4,,,,,,,,,,,,,,,3,,,45,0
151200,note_on,0,0,4,,,,,,,,,,,,,,,3,,,43,73
151320,note_off,120,0,4,,,,,,,,,,,,,,,3,,,43,0
151320,note_on,0,0,4,,,,,,,,,,,,,,,3,,,41,73
151320,note_off,120,0,1,,,,,,,,,,,,,,,0,,,55,0
151320,note_on,0,0,1,,,,,,,,,,,,,,,0,,,53,76
151440,note_off,120,0,1,,,,,,,,,,,,,,,0,,,53,0
151440,note_on,0,0,1,,,,,,,,,,,,,,,0,,,51,75
151440,note_off,120,0,4,,,,,,,,,,,,,,,3,,,41,0
151440,note_on,0,0,4,,,,,,,,,,,,,,,3,,,39,73
151560,note_off,120,0,1,,,,,,,,,,,,,,,0,,,51,0
151560,note_on,0,0,1,,,,,,,,,,,,,,,0,,,50,75
151560,note_off,120,0,4,,,,,,,,,,,,,,,3,,,39,0
151560,note_on,0,0,4,,,,,,,,,,,,,,,3,,,38,72
151680,note_on,0,0,1,,,,,,,,,,,,,,,0,,,49,75
151680,note_off,120,0,1,,,,,,,,,,,,,,,0,,,50,0
151680,note_on,0,0,4,,,,,,,,,,,,,,,3,,,37,72
151680,note_off,120,0,4,,,,,,,,,,,,,,,3,,,38,0
151800,note_off,120,0,4,,,,,,,,,,,,,,,3,,,37,0
151800,note_on,0,0,4,,,,,,,,,,,,,,,3,,,38,72
151800,note_on,0,0,1,,,,,,,,,,,,,,,0,,,50,74
151800,note_off,120,0,1,,,,,,,,,,,,,,,0,,,49,0
151920,note_off,120,0,4,,,,,,,,,,,,,,,3,,,38,0
151920,note_on,0,0,1,,,,,,,,,,,,,,,0,,,52,74
151920,note_off,120,0,1,,,,,,,,,,,,,,,0,,,50,0
151920,note_on,0,0,4,,,,,,,,,,,,,,,3,,,40,71
152040,note_on,0,0,1,,,,,,,,,,,,,,,0,,,50,74
152040,note_off,120,0,4,,,,,,,,,,,,,,,3,,,40,0
152040,note_on,0,0,4,,,,,,,,,,,,,,,3,,,38,71
152040,note_off,120,0,1,,,,,,,,,,,,,,,0,,,52,0
152160,note_off,120,0,1,,,,,,,,,,,,,,,0,,,50,0
152160,note_on,0,0,1,,,,,,,,,,,,,,,0,,,49,74
152160,note_off,120,0,4,,,,,,,,,,,,,,,3,,,38,0
152160,note_on,0,0,4,,,,,,,,,,,,,,,3,,,37,72
152280,note_off,120,0,1,,,,,,,,,,,,,,,0,,,49,0
152280,note_on,0,0,1,,,,,,,,,,,,,,,0,,,55,74
152280,note_off,120,0,4,,,,,,,,,,,,,,,3,,,37,0
152280,note_on,0,0,4,,,,,,,,,,,,,,,3,,,43,72
152400,note_off,120,0,1,,,,,,,,,,,,,,,0,,,55,0
152400,note_on,0,0,1,,,,,,,,,,,,,,,0,,,52,74
152400,note_on,0,0,4,,,,,,,,,,,,,,,3,,,40,72
152400,note_off,120,0,4,,,,,,,,,,,,,,,3,,,43,0
152520,note_on,0,0,4,,,,,,,,,,,,,,,3,,,37,72
152520,note_off,120,0,1,,,,,,,,,,,,,,,0,,,52,0
152520,note_off,120,0,4,,,,,,,,,,,,,,,3,,,40,0
152520,note_on,0,0,1,,,,,,,,,,,,,,,0,,,49,74
152580,set_tempo,1860,1,0,,,,,,,441176,,,,,,,,,,,,
152640,note_on,0,0,1,,,,,,,,,,,,,,,0,,,50,75
152640,note_off,120,0,1,,,,,,,,,,,,,,,0,,,49,0
152640,set_tempo,60,1,0,,,,,,,434782,,,,,,,,,,,,
152640,note_off,120,0,4,,,,,,,,,,,,,,,3,,,37,0
152640,note_on,0,0,4,,,,,,,,,,,,,,,3,,,38,72
152760,note_off,120,0,1,,,,,,,,,,,,,,,0,,,50,0
152760,note_on,0,0,1,,,,,,,,,,,,,,,0,,,54,75
152760,note_off,120,0,4,,,,,,,,,,,,,,,3,,,38,0
152760,note_on,0,0,4,,,,,,,,,,,,,,,3,,,42,72
152880,note_on,0,0,4,,,,,,,,,,,,,,,3,,,45,72
152880,note_on,0,0,1,,,,,,,,,,,,,,,0,,,57,75
152880,note_off,120,0,1,,,,,,,,,,,,,,,0,,,54,0
152880,note_off,120,0,4,,,,,,,,,,,,,,,3,,,42,0
153000,note_off,120,0,4,,,,,,,,,,,,,,,3,,,45,0
153000,note_on,0,0,1,,,,,,,,,,,,,,,0,,,54,75
153000,note_off,120,0,1,,,,,,,,,,,,,,,0,,,57,0
153000,note_on,0,0,4,,,,,,,,,,,,,,,3,,,42,73
153120,note_on,0,0,4,,,,,,,,,,,,,,,3,,,46,73
153120,note_on,0,0,1,,,,,,,,,,,,,,,0,,,58,75
153120,note_off,120,0,1,,,,,,,,,,,,,,,0,,,54,0
153120,note_off,120,0,4,,,,,,,,,,,,,,,3,,,42,0
153240,note_off,120,0,1,,,,,,,,,,,,,,,0,,,58,0
153240,note_on,0,0,4,,,,,,,,,,,,,,,3,,,43,73
153240,note_on,0,0,1,,,,,,,,,,,,,,,0,,,55,76
153240,note_off,120,0,4,,,,,,,,,,,,,,,3,,,46,0
153360,note_off,120,0,1,,,,,,,,,,,,,,,0,,,55,0
153360,note_on,0,0,1,,,,,,,,,,,,,,,0,,,51,76
153360,note_on,0,0,4,,,,,,,,,,,,,,,3,,,39,73
153360,note_off,120,0,4,,,,,,,,,,,,,,,3,,,43,0
153480,note_on,0,0,4,,,,,,,,,,,,,,,3,,,37,73
153480,note_on,0,0,1,,,,,,,,,,,,,,,0,,,49,76
153480,note_off,120,0,1,,,,,,,,,,,,,,,0,,,51,0
153480,note_off,120,0,4,,,,,,,,,,,,,,,3,,,39,0
153600,note_off,120,0,4,,,,,,,,,,,,,,,3,,,37,0
153600,note_on,0,0,4,,,,,,,,,,,,,,,3,,,38,73
153600,note_on,0,0,1,,,,,,,,,,,,,,,0,,,50,76
153600,note_off,120,0,1,,,,,,,,,,,,,,,0,,,49,0
153720,note_off,120,0,4,,,,,,,,,,,,,,,3,,,38,0
153720,note_on,0,0,1,,,,,,,,,,,,,,,0,,,54,77
153720,note_off,120,0,1,,,,,,,,,,,,,,,0,,,50,0
153720,note_on,0,0,4,,,,,,,,,,,,,,,3,,,42,73
153840,note_on,0,0,4,,,,,,,,,,,,,,,3,,,45,73
153840,note_off,120,0,4,,,,,,,,,,,,,,,3,,,42,0
153840,note_off,120,0,1,,,,,,,,,,,,,,,0,,,54,0
153840,note_on,0,0,1,,,,,,,,,,,,,,,0,,,57,77
153960,note_off,120,0,1,,,,,,,,,,,,,,,0,,,57,0
153960,note_on,0,0,1,,,,,,,,,,,,,,,0,,,54,77
153960,note_on,0,0,4,,,,,,,,,,,,,,,3,,,42,74
153960,note_off,120,0,4,,,,,,,,,,,,,,,3,,,45,0
154080,note_off,120,0,1,,,,,,,,,,,,,,,0,,,54,0
154080,note_on,0,0,1,,,,,,,,,,,,,,,0,,,58,77
154080,note_on,0,0,4,,,,,,,,,,,,,,,3,,,46,74
154080,note_off,120,0,4,,,,,,,,,,,,,,,3,,,42,0
154200,note_on,0,0,4,,,,,,,,,,,,,,,3,,,43,74
154200,note_off,120,0,1,,,,,,,,,,,,,,,0,,,58,0
154200,note_on,0,0,1,,,,,,,,,,,,,,,0,,,55,77
154200,note_off,120,0,4,,,,,,,,,,,,,,,3,,,46,0
154320,note_on,0,0,1,,,,,,,,,,,,,,,0,,,51,78
154320,note_on,0,0,4,,,,,,,,,,,,,,,3,,,39,74
154320,note_off,120,0,4,,,,,,,,,,,,,,,3,,,43,0
154320,note_off,120,0,1,,,,,,,,,,,,,,,0,,,55,0
154440,note_on,0,0,1,,,,,,,,,,,,,,,0,,,49,78
154440,note_off,120,0,1,,,,,,,,,,,,,,,0,,,51,0
154440,note_off,120,0,4,,,,,,,,,,,,,,,3,,,39,0
154440,note_on,0,0,4,,,,,,,,,,,,,,,3,,,37,74
154560,note_on,0,0,4,,,,,,,,,,,,,,,3,,,38,74
154560,note_off,120,0,4,,,,,,,,,,,,,,,3,,,37,0
154560,note_on,0,0,1,,,,,,,,,,,,,,,0,,,50,78
154560,note_off,120,0,1,,,,,,,,,,,,,,,0,,,49,0
154680,note_off,120,0,4,,,,,,,,,,,,,,,3,,,38,0
154680,note_on,0,0,1,,,,,,,,,,,,,,,0,,,54,78
154680,note_off,120,0,1,,,,,,,,,,,,,,,0,,,50,0
154680,note_on,0,0,4,,,,,,,,,,,,,,,3,,,42,74
154800,note_on,0,0,1,,,,,,,,,,,,,,,0,,,57,78
154800,note_off,120,0,1,,,,,,,,,,,,,,,0,,,54,0
154800,note_off,120,0,4,,,,,,,,,,,,,,,3,,,42,0
154800,note_on,0,0,4,,,,,,,,,,,,,,,3,,,45,75
154920,note_on,0,0,1,,,,,,,,,,,,,,,0,,,54,79
154920,note_off,120,0,1,,,,,,,,,,,,,,,0,,,57,0
154920,note_on,0,0,4,,,,,,,,,,,,,,,3,,,42,75
154920,note_off,120,0,4,,,,,,,,,,,,,,,3,,,45,0
155040,note_on,0,0,4,,,,,,,,,,,,,,,3,,,46,75
155040,note_off,120,0,4,,,,,,,,,,,,,,,3,,,42,0
155040,note_on,0,0,1,,,,,,,,,,,,,,,0,,,58,79
155040,note_off,120,0,1,,,,,,,,,,,,,,,0,,,54,0
155160,note_on,0,0,1,,,,,,,,,,,,,,,0,,,55,79
155160,note_off,120,0,4,,,,,,,,,,,,,,,3,,,46,0
155160,note_on,0,0,4,,,,,,,,,,,,,,,3,,,43,75
155160,note_off,120,0,1,,,,,,,,,,,,,,,0,,,58,0
155280,note_off,120,0,4,,,,,,,,,,,,,,,3,,,43,0
155280,note_on,0,0,4,,,,,,,,,,,,,,,3,,,39,75
155280,note_on,0,0,1,,,,,,,,,,,,,,,0,,,51,79
155280,note_off,120,0,1,,,,,,,,,,,,,,,0,,,55,0
155400,note_off,120,0,1,,,,,,,,,,,,,,,0,,,51,0
155400,note_on,0,0,4,,,,,,,,,,,,,,,3,,,37,75
155400,note_on,0,0,1,,,,,,,,,,,,,,,0,,,49,80
155400,note_off,120,0,4,,,,,,,,,,,,,,,3,,,39,0
155520,note_off,120,0,4,,,,,,,,,,,,,,,3,,,37,0
155520,note_off,120,0,1,,,,,,,,,,,,,,,0,,,49,0
155520,note_on,0,0,4,,,,,,,,,,,,,,,3,,,38,75
155520,note_on,0,0,1,,,,,,,,,,,,,,,0,,,50,80
155640,note_on,0,0,1,,,,,,,,,,,,,,,0,,,54,80
155640,note_on,0,0,4,,,,,,,,,,,,,,,3,,,42,76
155640,note_off,120,0,4,,,,,,,,,,,,,,,3,,,38,0
155640,note_off,120,0,1,,,,,,,,,,,,,,,0,,,50,0
155760,note_on,0,0,1,,,,,,,,,,,,,,,0,,,57,80
155760,note_off,120,0,4,,,,,,,,,,,,,,,3,,,42,0
155760,note_on,0,0,4,,,,,,,,,,,,,,,3,,,45,76
155760,note_off,120,0,1,,,,,,,,,,,,,,,0,,,54,0
155880,note_on,0,0,4,,,,,,,,,,,,,,,3,,,42,76
155880,note_on,0,0,1,,,,,,,,,,,,,,,0,,,54,80
155880,note_off,120,0,4,,,,,,,,,,,,,,,3,,,45,0
155880,note_off,120,0,1,,,,,,,,,,,,,,,0,,,57,0
156000,note_off,120,0,4,,,,,,,,,,,,,,,3,,,42,0
156000,note_off,120,0,1,,,,,,,,,,,,,,,0,,,54,0
156000,note_on,0,0,1,,,,,,,,,,,,,,,0,,,58,81
156000,note_on,0,0,4,,,,,,,,,,,,,,,3,,,46,76
156120,note_off,120,0,4,,,,,,,,,,,,,,,3,,,46,0
156120,note_off,120,0,1,,,,,,,,,,,,,,,0,,,58,0
156120,note_on,0,0,1,,,,,,,,,,,,,,,0,,,55,81
156120,note_on,0,0,4,,,,,,,,,,,,,,,3,,,43,76
156240,note_off,120,0,4,,,,,,,,,,,,,,,3,,,43,0
156240,note_on,0,0,4,,,,,,,,,,,,,,,3,,,39,76
156240,note_off,120,0,1,,,,,,,,,,,,,,,0,,,55,0
156240,note_on,0,0,1,,,,,,,,,,,,,,,0,,,51,81
156360,note_off,120,0,4,,,,,,,,,,,,,,,3,,,39,0
156360,note_on,0,0,4,,,,,,,,,,,,,,,3,,,37,76
156360,set_tempo,3720,1,0,,,,,,,434782,,,,,,,,,,,,
156360,note_off,120,0,1,,,,,,,,,,,,,,,0,,,51,0
156360,note_on,0,0,1,,,,,,,,,,,,,,,0,,,49,81
156480,note_off,120,0,1,,,,,,,,,,,,,,,0,,,49,0
156480,note_on,0,0,1,,,,,,,,,,,,,,,0,,,50,81
156480,note_off,120,0,4,,,,,,,,,,,,,,,3,,,37,0
156480,note_on,0,0,4,,,,,,,,,,,,,,,3,,,38,77
156540,control_change,60,0,1,,,,,,,,,,,,,64,0,0,,,,
156570,set_tempo,210,1,0,,,,,,,428571,,,,,,,,,,,,
156600,note_on,0,0,4,,,,,,,,,,,,,,,3,,,38,77
156600,control_change,0,0,1,,,,,,,,,,,,,64,127,0,,,,
156600,note_on,0,0,1,,,,,,,,,,,,,,,0,,,50,82
156600,note_off,60,0,1,,,,,,,,,,,,,,,0,,,50,0
156600,note_off,120,0,4,,,,,,,,,,,,,,,3,,,38,0
156720,note_off,120,0,4,,,,,,,,,,,,,,,3,,,38,0
156720,note_on,0,0,4,,,,,,,,,,,,,,,3,,,42,77
156720,note_on,0,0,1,,,,,,,,,,,,,,,0,,,54,82
156720,note_off,120,0,1,,,,,,,,,,,,,,,0,,,50,0
156840,note_off,120,0,4,,,,,,,,,,,,,,,3,,,42,0
156840,note_on,0,0,4,,,,,,,,,,,,,,,3,,,45,77
156840,note_on,0,0,1,,,,,,,,,,,,,,,0,,,57,82
156840,note_off,120,0,1,,,,,,,,,,,,,,,0,,,54,0
156960,note_on,0,0,4,,,,,,,,,,,,,,,3,,,50,77
156960,note_off,120,0,4,,,,,,,,,,,,,,,3,,,45,0
156960,note_off,120,0,1,,,,,,,,,,,,,,,0,,,57,0
156960,note_on,0,0,1,,,,,,,,,,,,,,,0,,,62,82
157080,note_off,120,0,1,,,,,,,,,,,,,,,0,,,62,0
157080,note_on,0,0,1,,,,,,,,,,,,,,,0,,,62,83
157080,note_off,120,0,4,,,,,,,,,,,,,,,3,,,50,0
157080,note_on,0,0,4,,,,,,,,,,,,,,,3,,,50,77
157200,note_off,120,0,1,,,,,,,,,,,,,,,0,,,62,0
157200,note_on,0,0,1,,,,,,,,,,,,,,,0,,,66,83
157200,note_off,120,0,4,,,,,,,,,,,,,,,3,,,50,0
157200,note_on,0,0,4,,,,,,,,,,,,,,,3,,,54,77
157320,note_off,120,0,4,,,,,,,,,,,,,,,3,,,54,0
157320,note_on,0,0,4,,,,,,,,,,,,,,,3,,,57,77
157320,note_on,0,0,1,,,,,,,,,,,,,,,0,,,69,83
157320,note_off,120,0,1,,,,,,,,,,,,,,,0,,,66,0
157440,note_on,0,0,1,,,,,,,,,,,,,,,0,,,74,83
157440,note_off,120,0,1,,,,,,,,,,,,,,,0,,,69,0
157440,note_off,120,0,4,,,,,,,,,,,,,,,3,,,57,0
157440,note_on,0,0,4,,,,,,,,,,,,,,,3,,,62,78
157560,note_on,0,0,4,,,,,,,,,,,,,,,3,,,62,78
157560,note_off,120,0,1,,,,,,,,,,,,,,,0,,,74,0
157560,note_on,0,0,1,,,,,,,,,,,,,,,0,,,74,83
157560,note_off,120,0,4,,,,,,,,,,,,,,,3,,,62,0
157680,note_on,0,0,4,,,,,,,,,,,,,,,3,,,66,78
157680,note_off,120,0,4,,,,,,,,,,,,,,,3,,,62,0
157680,note_off,120,0,1,,,,,,,,,,,,,,,0,,,74,0
157680,note_on,0,0,1,,,,,,,,,,,,,,,0,,,78,84
157800,note_on,0,0,4,,,,,,,,,,,,,,,3,,,69,78
157800,set_tempo,1230,1,0,,,,,,,441176,,,,,,,,,,,,
157800,note_off,120,0,4,,,,,,,,,,,,,,,3,,,66,0
157800,note_on,0,0,1,,,,,,,,,,,,,,,0,,,81,84
157800,note_off,120,0,1,,,,,,,,,,,,,,,0,,,78,0
157920,note_on,0,0,4,,,,,,,,,,,,,,,3,,,74,78
157920,note_off,120,0,1,,,,,,,,,,,,,,,0,,,81,0
157920,note_off,120,0,4,,,,,,,,,,,,,,,3,,,69,0
157920,note_on,0,0,1,,,,,,,,,,,,,,,0,,,86,84
158040,set_tempo,240,1,0,,,,,,,434782,,,,,,,,,,,,
158040,note_off,120,0,4,,,,,,,,,,,,,,,3,,,74,0
158040,note_on,0,0,4,,,,,,,,,,,,,,,3,,,74,78
158040,note_on,0,0,1,,,,,,,,,,,,,,,0,,,86,84
158040,note_off,120,0,1,,,,,,,,,,,,,,,0,,,86,0
158160,note_off,120,0,1,,,,,,,,,,,,,,,0,,,86,0
158160,note_on,0,0,1,,,,,,,,,,,,,,,0,,,81,85
158160,note_on,0,0,4,,,,,,,,,,,,,,,3,,,69,78
158160,note_off,120,0,4,,,,,,,,,,,,,,,3,,,74,0
158280,note_on,0,0,4,,,,,,,,,,,,,,,3,,,66,79
158280,note_off,120,0,4,,,,,,,,,,,,,,,3,,,69,0
158280,note_on,0,0,1,,,,,,,,,,,,,,,0,,,78,85
158280,note_off,120,0,1,,,,,,,,,,,,,,,0,,,81,0
158400,note_on,0,0,1,,,,,,,,,,,,,,,0,,,74,85
158400,note_off,120,0,4,,,,,,,,,,,,,,,3,,,66,0
158400,note_on,0,0,4,,,,,,,,,,,,,,,3,,,62,79
158400,note_off,120,0,1,,,,,,,,,,,,,,,0,,,78,0
158520,note_on,0,0,1,,,,,,,,,,,,,,,0,,,74,85
158520,note_off,120,0,1,,,,,,,,,,,,,,,0,,,74,0
158520,note_on,0,0,4,,,,,,,,,,,,,,,3,,,62,79
158520,note_off,120,0,4,,,,,,,,,,,,,,,3,,,62,0
158640,note_off,120,0,4,,,,,,,,,,,,,,,3,,,62,0
158640,note_on,0,0,1,,,,,,,,,,,,,,,0,,,69,85
158640,note_off,120,0,1,,,,,,,,,,,,,,,0,,,74,0
158640,note_on,0,0,4,,,,,,,,,,,,,,,3,,,57,79
158760,note_on,0,0,4,,,,,,,,,,,,,,,3,,,54,79
158760,note_on,0,0,1,,,,,,,,,,,,,,,0,,,66,86
158760,note_off,120,0,1,,,,,,,,,,,,,,,0,,,69,0
158760,note_off,120,0,4,,,,,,,,,,,,,,,3,,,57,0
158880,note_on,0,0,1,,,,,,,,,,,,,,,0,,,62,86
158880,note_off,120,0,1,,,,,,,,,,,,,,,0,,,66,0
158880,note_on,0,0,4,,,,,,,,,,,,,,,3,,,50,79
158880,note_off,120,0,4,,,,,,,,,,,,,,,3,,,54,0
159000,note_on,0,0,1,,,,,,,,,,,,,,,0,,,62,86
159000,note_off,120,0,1,,,,,,,,,,,,,,,0,,,62,0
159000,note_on,0,0,4,,,,,,,,,,,,,,,3,,,50,79
159000,note_off,120,0,4,,,,,,,,,,,,,,,3,,,50,0
159120,note_on,0,0,1,,,,,,,,,,,,,,,0,,,57,86
159120,note_off,120,0,4,,,,,,,,,,,,,,,3,,,50,0
159120,note_off,120,0,1,,,,,,,,,,,,,,,0,,,62,0
159120,note_on,0,0,4,,,,,,,,,,,,,,,3,,,45,80
159240,note_off,120,0,1,,,,,,,,,,,,,,,0,,,57,0
159240,note_on,0,0,1,,,,,,,,,,,,,,,0,,,54,86
159240,note_on,0,0,4,,,,,,,,,,,,,,,3,,,42,80
159240,note_off,120,0,4,,,,,,,,,,,,,,,3,,,45,0
159240,set_tempo,1200,1,0,,,,,,,441176,,,,,,,,,,,,
159360,note_off,120,0,1,,,,,,,,,,,,,,,0,,,54,0
159360,note_off,120,0,4,,,,,,,,,,,,,,,3,,,42,0
159360,note_on,0,0,1,,,,,,,,,,,,,,,0,,,50,87
159360,note_on,0,0,4,,,,,,,,,,,,,,,3,,,38,80
159450,set_tempo,210,1,0,,,,,,,434782,,,,,,,,,,,,
159480,note_on,0,0,1,,,,,,,,,,,,,,,0,,,50,87
159480,note_on,0,0,4,,,,,,,,,,,,,,,3,,,38,80
159480,note_off,120,0,4,,,,,,,,,,,,,,,3,,,38,0
159480,note_off,120,0,1,,,,,,,,,,,,,,,0,,,50,0
159600,note_off,120,0,1,,,,,,,,,,,,,,,0,,,50,0
159600,note_on,0,0,1,,,,,,,,,,,,,,,0,,,54,87
159600,note_on,0,0,4,,,,,,,,,,,,,,,3,,,42,80
159600,note_off,120,0,4,,,,,,,,,,,,,,,3,,,38,0
159720,note_off,120,0,1,,,,,,,,,,,,,,,0,,,54,0
159720,note_on,0,0,1,,,,,,,,,,,,,,,0,,,57,87
159720,note_on,0,0,4,,,,,,,,,,,,,,,3,,,45,80
159720,note_off,120,0,4,,,,,,,,,,,,,,,3,,,42,0
159840,note_off,120,0,1,,,,,,,,,,,,,,,0,,,57,0
159840,note_on,0,0,1,,,,,,,,,,,,,,,0,,,62,88
159840,note_off,120,0,4,,,,,,,,,,,,,,,3,,,45,0
159840,note_on,0,0,4,,,,,,,,,,,,,,,3,,,50,80
159960,note_on,0,0,1,,,,,,,,,,,,,,,0,,,62,88
159960,note_off,120,0,1,,,,,,,,,,,,,,,0,,,62,0
159960,note_on,0,0,4,,,,,,,,,,,,,,,3,,,50,80
159960,note_off,120,0,4,,,,,,,,,,,,,,,3,,,50,0
160080,note_on,0,0,4,,,,,,,,,,,,,,,3,,,45,81
160080,note_off,120,0,1,,,,,,,,,,,,,,,0,,,62,0
160080,note_on,0,0,1,,,,,,,,,,,,,,,0,,,57,88
160080,note_off,120,0,4,,,,,,,,,,,,,,,3,,,50,0
160200,set_tempo,750,1,0,,,,,,,441176,,,,,,,,,,,,
160200,note_on,0,0,4,,,,,,,,,,,,,,,3,,,42,81
160200,note_on,0,0,1,,,,,,,,,,,,,,,0,,,54,88
160200,note_off,120,0,1,,,,,,,,,,,,,,,0,,,57,0
160200,note_off,120,0,4,,,,,,,,,,,,,,,3,,,45,0
160320,note_on,0,0,1,,,,,,,,,,,,,,,0,,,50,88
160320,note_off,120,0,1,,,,,,,,,,,,,,,0,,,54,0
160320,note_off,120,0,4,,,,,,,,,,,,,,,3,,,42,0
160320,note_on,0,0,4,,,,,,,,,,,,,,,3,,,38,81
160380,control_change,60,0,1,,,,,,,,,,,,,64,0,0,,,,
160380,control_change,60,0,4,,,,,,,,,,,,,64,0,3,,,,
160410,set_tempo,210,1,0,,,,,,,428571,,,,,,,,,,,,
160440,note_off,60,0,1,,,,,,,,,,,,,,,0,,,50,0
160440,control_change,0,0,1,,,,,,,,,,,,,64,127,0,,,,
160440,note_off,60,0,4,,,,,,,,,,,,,,,3,,,38,0
160440,note_on,0,0,4,,,,,,,,,,,,,,,3,,,38,81
160440,control_change,0,0,4,,,,,,,,,,,,,64,127,3,,,,
160440,note_on,0,0,1,,,,,,,,,,,,,,,0,,,50,89
160560,note_off,120,0,4,,,,,,,,,,,,,,,3,,,38,0
160560,note_on,0,0,4,,,,,,,,,,,,,,,3,,,42,81
160560,note_on,0,0,1,,,,,,,,,,,,,,,0,,,54,89
160560,note_off,120,0,1,,,,,,,,,,,,,,,0,,,50,0
160680,note_off,120,0,4,,,,,,,,,,,,,,,3,,,42,0
160680,note_off,120,0,1,,,,,,,,,,,,,,,0,,,54,0
160680,note_on,0,0,1,,,,,,,,,,,,,,,0,,,57,89
160680,note_on,0,0,4,,,,,,,,,,,,,,,3,,,45,81
160800,note_off,120,0,4,,,,,,,,,,,,,,,3,,,45,0
160800,note_on,0,0,4,,,,,,,,,,,,,,,3,,,48,81
160800,note_on,0,0,1,,,,,,,,,,,,,,,0,,,60,89
160800,note_off,120,0,1,,,,,,,,,,,,,,,0,,,57,0
160920,note_off,120,0,4,,,,,,,,,,,,,,,3,,,48,0
160920,note_on,0,0,1,,,,,,,,,,,,,,,0,,,62,89
160920,note_off,120,0,1,,,,,,,,,,,,,,,0,,,60,0
160920,note_on,0,0,4,,,,,,,,,,,,,,,3,,,50,82
161040,note_off,120,0,1,,,,,,,,,,,,,,,0,,,62,0
161040,note_on,0,0,4,,,,,,,,,,,,,,,3,,,54,82
161040,note_on,0,0,1,,,,,,,,,,,,,,,0,,,66,90
161040,note_off,120,0,4,,,,,,,,,,,,,,,3,,,50,0
161160,note_off,120,0,1,,,,,,,,,,,,,,,0,,,66,0
161160,note_on,0,0,1,,,,,,,,,,,,,,,0,,,69,90
161160,note_off,120,0,4,,,,,,,,,,,,,,,3,,,54,0
161160,note_on,0,0,4,,,,,,,,,,,,,,,3,,,57,82
161280,note_off,120,0,4,,,,,,,,,,,,,,,3,,,57,0
161280,note_on,0,0,4,,,,,,,,,,,,,,,3,,,60,82
161280,note_on,0,0,1,,,,,,,,,,,,,,,0,,,72,90
161280,note_off,120,0,1,,,,,,,,,,,,,,,0,,,69,0
161400,note_off,120,0,1,,,,,,,,,,,,,,,0,,,72,0
161400,note_off,120,0,4,,,,,,,,,,,,,,,3,,,60,0
161400,note_on,0,0,4,,,,,,,,,,,,,,,3,,,62,82
161400,note_on,0,0,1,,,,,,,,,,,,,,,0,,,74,90
161520,note_on,0,0,4,,,,,,,,,,,,,,,3,,,66,82
161520,note_on,0,0,1,,,,,,,,,,,,,,,0,,,78,91
161520,note_off,120,0,1,,,,,,,,,,,,,,,0,,,74,0
161520,note_off,120,0,4,,,,,,,,,,,,,,,3,,,62,0
161640,note_on,0,0,1,,,,,,,,,,,,,,,0,,,81,91
161640,note_on,0,0,4,,,,,,,,,,,,,,,3,,,69,82
161640,note_off,120,0,4,,,,,,,,,,,,,,,3,,,66,0
161640,set_tempo,1230,1,0,,,,,,,441176,,,,,,,,,,,,
161640,note_off,120,0,1,,,,,,,,,,,,,,,0,,,78,0
161760,note_off,120,0,1,,,,,,,,,,,,,,,0,,,81,0
161760,note_on,0,0,1,,,,,,,,,,,,,,,0,,,84,91
161760,note_on,0,0,4,,,,,,,,,,,,,,,3,,,72,83
161760,note_off,120,0,4,,,,,,,,,,,,,,,3,,,69,0
161880,note_on,0,0,1,,,,,,,,,,,,,,,0,,,84,91
161880,note_off,120,0,4,,,,,,,,,,,,,,,3,,,72,0
161880,note_on,0,0,4,,,,,,,,,,,,,,,3,,,72,83
161880,note_off,120,0,1,,,,,,,,,,,,,,,0,,,84,0
161895,set_tempo,255,1,0,,,,,,,434782,,,,,,,,,,,,
162000,note_off,120,0,1,,,,,,,,,,,,,,,0,,,84,0
162000,note_on,0,0,1,,,,,,,,,,,,,,,0,,,81,91
162000,note_on,0,0,4,,,,,,,,,,,,,,,3,,,69,83
162000,note_off,120,0,4,,,,,,,,,,,,,,,3,,,72,0
162120,note_off,120,0,1,,,,,,,,,,,,,,,0,,,81,0
162120,note_on,0,0,1,,,,,,,,,,,,,,,0,,,78,92
162120,note_on,0,0,4,,,,,,,,,,,,,,,3,,,66,83
162120,note_off,120,0,4,,,,,,,,,,,,,,,3,,,69,0
162240,note_off,120,0,1,,,,,,,,,,,,,,,0,,,78,0
162240,note_on,0,0,1,,,,,,,,,,,,,,,0,,,74,92
162240,note_on,0,0,4,,,,,,,,,,,,,,,3,,,62,83
162240,note_off,120,0,4,,,,,,,,,,,,,,,3,,,66,0
162360,note_on,0,0,4,,,,,,,,,,,,,,,3,,,60,83
162360,note_off,120,0,4,,,,,,,,,,,,,,,3,,,62,0
162360,note_on,0,0,1,,,,,,,,,,,,,,,0,,,72,92
162360,note_off,120,0,1,,,,,,,,,,,,,,,0,,,74,0
162480,note_on,0,0,1,,,,,,,,,,,,,,,0,,,69,92
162480,note_off,120,0,1,,,,,,,,,,,,,,,0,,,72,0
162480,note_off,120,0,4,,,,,,,,,,,,,,,3,,,60,0
162480,note_on,0,0,4,,,,,,,,,,,,,,,3,,,57,83
162600,note_off,120,0,1,,,,,,,,,,,,,,,0,,,69,0
162600,note_on,0,0,1,,,,,,,,,,,,,,,0,,,66,92
162600,note_on,0,0,4,,,,,,,,,,,,,,,3,,,54,84
162600,note_off,120,0,4,,,,,,,,,,,,,,,3,,,57,0
162720,note_off,120,0,1,,,,,,,,,,,,,,,0,,,66,0
162720,note_off,120,0,4,,,,,,,,,,,,,,,3,,,54,0
162720,note_on,0,0,1,,,,,,,,,,,,,,,0,,,62,93
162720,note_on,0,0,4,,,,,,,,,,,,,,,3,,,50,84
162840,note_off,120,0,1,,,,,,,,,,,,,,,0,,,62,0
162840,note_on,0,0,1,,,,,,,,,,,,,,,0,,,60,93
162840,note_off,120,0,4,,,,,,,,,,,,,,,3,,,50,0
162840,note_on,0,0,4,,,,,,,,,,,,,,,3,,,48,84
162960,note_off,120,0,1,,,,,,,,,,,,,,,0,,,60,0
162960,note_on,0,0,1,,,,,,,,,,,,,,,0,,,57,93
162960,note_off,120,0,4,,,,,,,,,,,,,,,3,,,48,0
162960,note_on,0,0,4,,,,,,,,,,,,,,,3,,,45,84
163080,note_off,120,0,4,,,,,,,,,,,,,,,3,,,45,0
163080,note_on,0,0,4,,,,,,,,,,,,,,,3,,,42,84
163080,set_tempo,1185,1,0,,,,,,,441176,,,,,,,,,,,,
163080,note_off,120,0,1,,,,,,,,,,,,,,,0,,,57,0
163080,note_on,0,0,1,,,,,,,,,,,,,,,0,,,54,93
163200,note_off,120,0,1,,,,,,,,,,,,,,,0,,,54,0
163200,note_on,0,0,1,,,,,,,,,,,,,,,0,,,50,94
163200,note_on,0,0,4,,,,,,,,,,,,,,,3,,,38,84
163200,note_off,120,0,4,,,,,,,,,,,,,,,3,,,42,0
163305,set_tempo,225,1,0,,,,,,,434782,,,,,,,,,,,,
163320,note_off,120,0,4,,,,,,,,,,,,,,,3,,,38,0
163320,note_off,120,0,1,,,,,,,,,,,,,,,0,,,50,0
163320,note_on,0,0,1,,,,,,,,,,,,,,,0,,,50,94
163320,note_on,0,0,4,,,,,,,,,,,,,,,3,,,38,84
163440,note_off,120,0,1,,,,,,,,,,,,,,,0,,,50,0
163440,note_on,0,0,4,,,,,,,,,,,,,,,3,,,42,84
163440,note_off,120,0,4,,,,,,,,,,,,,,,3,,,38,0
163440,note_on,0,0,1,,,,,,,,,,,,,,,0,,,54,94
163560,note_off,120,0,1,,,,,,,,,,,,,,,0,,,54,0
163560,note_on,0,0,4,,,,,,,,,,,,,,,3,,,45,85
163560,set_tempo,255,1,0,,,,,,,441176,,,,,,,,,,,,
163560,note_on,0,0,1,,,,,,,,,,,,,,,0,,,57,94
163560,note_off,120,0,4,,,,,,,,,,,,,,,3,,,42,0
163680,note_off,120,0,4,,,,,,,,,,,,,,,3,,,45,0
163680,note_on,0,0,1,,,,,,,,,,,,,,,0,,,60,94
163680,note_off,120,0,1,,,,,,,,,,,,,,,0,,,57,0
163680,note_on,0,0,4,,,,,,,,,,,,,,,3,,,48,85
163800,note_off,120,0,4,,,,,,,,,,,,,,,3,,,48,0
163800,note_on,0,0,4,,,,,,,,,,,,,,,3,,,48,85
163800,note_on,0,0,1,,,,,,,,,,,,,,,0,,,60,95
163800,note_off,120,0,1,,,,,,,,,,,,,,,0,,,60,0
163920,note_on,0,0,4,,,,,,,,,,,,,,,3,,,45,85
163920,set_tempo,360,1,0,,,,,,,447761,,,,,,,,,,,,
163920,note_on,0,0,1,,,,,,,,,,,,,,,0,,,57,95
163920,note_off,120,0,4,,,,,,,,,,,,,,,3,,,48,0
163920,note_off,120,0,1,,,,,,,,,,,,,,,0,,,60,0
164040,note_off,120,0,4,,,,,,,,,,,,,,,3,,,45,0
164040,set_tempo,120,1,0,,,,,,,508474,,,,,,,,,,,,
164040,note_on,0,0,4,,,,,,,,,,,,,,,3,,,42,85
164040,note_on,0,0,1,,,,,,,,,,,,,,,0,,,54,95
164040,note_off,120,0,1,,,,,,,,,,,,,,,0,,,57,0
164160,note_on,0,0,1,,,,,,,,,,,,,,,0,,,50,95
164160,note_off,120,0,1,,,,,,,,,,,,,,,0,,,54,0
164160,note_on,0,0,4,,,,,,,,,,,,,,,3,,,38,85
164160,note_off,120,0,4,,,,,,,,,,,,,,,3,,,42,0
164265,set_tempo,225,1,0,,,,,,,428571,,,,,,,,,,,,
164520,note_off,360,0,4,,,,,,,,,,,,,,,3,,,38,0
164520,note_off,360,0,1,,,,,,,,,,,,,,,0,,,50,0
164520,note_on,0,0,1,,,,,,,,,,,,,,,0,,,50,63
164640,note_on,120,0,4,,,,,,,,,,,,,,,3,,,54,61
164760,note_off,120,0,4,,,,,,,,,,,,,,,3,,,54,0
165000,note_off,480,0,1,,,,,,,,,,,,,,,0,,,50,0
165000,note_on,0,0,1,,,,,,,,,,,,,,,0,,,50,62
165120,note_on,360,0,4,,,,,,,,,,,,,,,3,,,57,60
165240,note_off,120,0,4,,,,,,,,,,,,,,,3,,,57,0
165480,note_on,0,0,1,,,,,,,,,,,,,,,0,,,50,62
165480,note_off,480,0,1,,,,,,,,,,,,,,,0,,,50,0
165600,note_on,360,0,4,,,,,,,,,,,,,,,3,,,60,59
165720,note_off,120,0,4,,,,,,,,,,,,,,,3,,,60,0
165960,note_on,0,0,1,,,,,,,,,,,,,,,0,,,50,61
165960,note_off,480,0,1,,,,,,,,,,,,,,,0,,,50,0
166080,note_on,360,0,4,,,,,,,,,,,,,,,3,,,66,59
166200,note_off,120,0,4,,,,,,,,,,,,,,,3,,,66,0
166440,note_off,480,0,1,,,,,,,,,,,,,,,0,,,50,0
166440,note_on,0,0,1,,,,,,,,,,,,,,,0,,,50,60
166560,note_on,360,0,4,,,,,,,,,,,,,,,3,,,69,58
166680,note_off,120,0,4,,,,,,,,,,,,,,,3,,,69,0
166920,note_off,480,0,1,,,,,,,,,,,,,,,0,,,50,0
166920,note_on,0,0,1,,,,,,,,,,,,,,,0,,,50,59
167040,note_on,360,0,4,,,,,,,,,,,,,,,3,,,72,57
167160,note_off,120,0,4,,,,,,,,,,,,,,,3,,,72,0
167400,note_off,480,0,1,,,,,,,,,,,,,,,0,,,50,0
167400,note_on,0,0,1,,,,,,,,,,,,,,,0,,,50,58
167520,note_on,360,0,4,,,,,,,,,,,,,,,3,,,78,56
167640,note_off,120,0,4,,,,,,,,,,,,,,,3,,,78,0
167880,note_on,0,0,1,,,,,,,,,,,,,,,0,,,50,57
167880,note_off,480,0,1,,,,,,,,,,,,,,,0,,,50,0
167880,set_tempo,3615,1,0,,,,,,,441176,,,,,,,,,,,,
168000,note_on,360,0,4,,,,,,,,,,,,,,,3,,,38,88
168090,set_tempo,210,1,0,,,,,,,428571,,,,,,,,,,,,
168120,note_off,120,0,4,,,,,,,,,,,,,,,3,,,38,0
168360,note_off,480,0,1,,,,,,,,,,,,,,,0,,,50,0
168360,note_on,0,0,1,,,,,,,,,,,,,,,0,,,50,56
168480,note_on,360,0,4,,,,,,,,,,,,,,,3,,,57,55
168480,note_on,0,0,4,,,,,,,,,,,,,,,3,,,54,55
168600,note_off,120,0,4,,,,,,,,,,,,,,,3,,,57,0
168600,note_off,0,0,4,,,,,,,,,,,,,,,3,,,54,0
168840,note_off,480,0,1,,,,,,,,,,,,,,,0,,,50,0
168840,note_on,0,0,1,,,,,,,,,,,,,,,0,,,50,56
168960,note_on,360,0,4,,,,,,,,,,,,,,,3,,,60,54
168960,note_on,0,0,4,,,,,,,,,,,,,,,3,,,57,54
169080,note_off,0,0,4,,,,,,,,,,,,,,,3,,,57,0
169080,note_off,120,0,4,,,,,,,,,,,,,,,3,,,60,0
169320,note_off,480,0,1,,,,,,,,,,,,,,,0,,,50,0
169320,note_on,0,0,1,,,,,,,,,,,,,,,0,,,50,55
169440,note_on,0,0,4,,,,,,,,,,,,,,,3,,,60,53
169440,note_on,360,0,4,,,,,,,,,,,,,,,3,,,66,53
169560,note_off,0,0,4,,,,,,,,,,,,,,,3,,,60,0
169560,note_off,120,0,4,,,,,,,,,,,,,,,3,,,66,0
169800,note_off,480,0,1,,,,,,,,,,,,,,,0,,,50,0
169800,note_on,0,0,1,,,,,,,,,,,,,,,0,,,50,54
169920,note_on,360,0,4,,,,,,,,,,,,,,,3,,,69,53
169920,note_on,0,0,4,,,,,,,,,,,,,,,3,,,66,53
170040,note_off,120,0,4,,,,,,,,,,,,,,,3,,,69,0
170040,note_off,0,0,4,,,,,,,,,,,,,,,3,,,66,0
170280,note_on,0,0,1,,,,,,,,,,,,,,,0,,,50,53
170280,note_off,480,0,1,,,,,,,,,,,,,,,0,,,50,0
170400,note_on,360,0,4,,,,,,,,,,,,,,,3,,,69,52
170400,note_on,0,0,4,,,,,,,,,,,,,,,3,,,72,52
170520,note_off,120,0,4,,,,,,,,,,,,,,,3,,,69,0
170520,note_off,0,0,4,,,,,,,,,,,,,,,3,,,72,0
170760,note_off,480,0,1,,,,,,,,,,,,,,,0,,,50,0
170760,note_on,0,0,1,,,,,,,,,,,,,,,0,,,50,52
170880,note_on,360,0,4,,,,,,,,,,,,,,,3,,,78,51
170880,note_on,0,0,4,,,,,,,,,,,,,,,3,,,72,51
171000,note_off,120,0,4,,,,,,,,,,,,,,,3,,,78,0
171000,note_off,0,0,4,,,,,,,,,,,,,,,3,,,72,0
171240,note_off,480,0,1,,,,,,,,,,,,,,,0,,,50,0
171240,note_on,0,0,1,,,,,,,,,,,,,,,0,,,50,51
171360,note_on,360,0,4,,,,,,,,,,,,,,,3,,,81,50
171360,note_on,0,0,4,,,,,,,,,,,,,,,3,,,78,50
171480,note_off,120,0,4,,,,,,,,,,,,,,,3,,,81,0
171480,note_off,0,0,4,,,,,,,,,,,,,,,3,,,78,0
171720,note_off,480,0,1,,,,,,,,,,,,,,,0,,,50,0
171720,set_tempo,3630,1,0,,,,,,,441176,,,,,,,,,,,,
171720,note_on,0,0,1,,,,,,,,,,,,,,,0,,,50,51
171840,note_on,360,0,4,,,,,,,,,,,,,,,3,,,38,77
171960,note_off,120,0,4,,,,,,,,,,,,,,,3,,,38,0
171960,set_tempo,240,1,0,,,,,,,428571,,,,,,,,,,,,
172200,note_off,480,0,1,,,,,,,,,,,,,,,0,,,50,0
172200,note_on,0,0,1,,,,,,,,,,,,,,,0,,,50,50
172320,note_on,360,0,4,,,,,,,,,,,,,,,3,,,60,49
172320,note_on,0,0,4,,,,,,,,,,,,,,,3,,,57,49
172440,note_off,120,0,4,,,,,,,,,,,,,,,3,,,60,0
172440,note_off,0,0,4,,,,,,,,,,,,,,,3,,,57,0
172680,note_on,0,0,1,,,,,,,,,,,,,,,0,,,50,49
172680,note_off,480,0,1,,,,,,,,,,,,,,,0,,,50,0
172800,note_on,360,0,4,,,,,,,,,,,,,,,3,,,66,48
172800,note_on,0,0,4,,,,,,,,,,,,,,,3,,,60,48
172920,note_off,0,0,4,,,,,,,,,,,,,,,3,,,60,0
172920,note_off,120,0,4,,,,,,,,,,,,,,,3,,,66,0
173160,note_on,0,0,1,,,,,,,,,,,,,,,0,,,50,48
173160,note_off,480,0,1,,,,,,,,,,,,,,,0,,,50,0
173280,note_on,0,0,4,,,,,,,,,,,,,,,3,,,66,47
173280,note_on,360,0,4,,,,,,,,,,,,,,,3,,,69,47
173400,note_off,120,0,4,,,,,,,,,,,,,,,3,,,69,0
173400,note_off,0,0,4,,,,,,,,,,,,,,,3,,,66,0
173640,note_on,0,0,1,,,,,,,,,,,,,,,0,,,50,47
173640,note_off,480,0,1,,,,,,,,,,,,,,,0,,,50,0
173760,note_on,360,0,4,,,,,,,,,,,,,,,3,,,69,47
173760,note_on,0,0,4,,,,,,,,,,,,,,,3,,,72,47
173880,note_off,120,0,4,,,,,,,,,,,,,,,3,,,69,0
173880,note_off,0,0,4,,,,,,,,,,,,,,,3,,,72,0
174120,note_off,480,0,1,,,,,,,,,,,,,,,0,,,50,0
174120,note_on,0,0,1,,,,,,,,,,,,,,,0,,,50,46
174240,note_on,360,0,4,,,,,,,,,,,,,,,3,,,72,46
174240,note_on,0,0,4,,,,,,,,,,,,,,,3,,,78,46
174360,note_off,120,0,4,,,,,,,,,,,,,,,3,,,72,0
174360,note_off,0,0,4,,,,,,,,,,,,,,,3,,,78,0
174600,note_off,480,0,1,,,,,,,,,,,,,,,0,,,50,0
174600,note_on,0,0,1,,,,,,,,,,,,,,,0,,,50,45
174720,note_on,360,0,4,,,,,,,,,,,,,,,3,,,81,45
174720,note_on,0,0,4,,,,,,,,,,,,,,,3,,,78,45
174840,note_off,120,0,4,,,,,,,,,,,,,,,3,,,81,0
174840,note_off,0,0,4,,,,,,,,,,,,,,,3,,,78,0
175080,note_off,480,0,1,,,,,,,,,,,,,,,0,,,50,0
175080,note_on,0,0,1,,,,,,,,,,,,,,,0,,,50,45
175200,note_on,0,0,4,,,,,,,,,,,,,,,3,,,84,44
175200,note_on,360,0,4,,,,,,,,,,,,,,,3,,,81,44
175320,note_off,0,0,4,,,,,,,,,,,,,,,3,,,84,0
175320,note_off,120,0,4,,,,,,,,,,,,,,,3,,,81,0
175560,note_off,480,0,1,,,,,,,,,,,,,,,0,,,50,0
175560,note_on,0,0,1,,,,,,,,,,,,,,,0,,,50,44
175680,note_on,0,0,4,,,,,,,,,,,,,,,3,,,87,44
175680,note_on,360,0,4,,,,,,,,,,,,,,,3,,,84,44
175680,control_change,45960,0,2,,,,,,,,,,,,,64,127,1,,,,
175800,note_off,0,0,4,,,,,,,,,,,,,,,3,,,87,0
175800,note_off,120,0,4,,,,,,,,,,,,,,,3,,,84,0
176040,note_off,480,0,1,,,,,,,,,,,,,,,0,,,50,0
176520,note_on,840,0,2,,,,,,,,,,,,,,,1,,,54,42
176520,note_on,480,0,1,,,,,,,,,,,,,,,0,,,60,42
176520,note_on,0,0,2,,,,,,,,,,,,,,,1,,,50,42
176520,note_on,0,0,2,,,,,,,,,,,,,,,1,,,57,42
176640,note_on,840,0,4,,,,,,,,,,,,,,,3,,,38,42
176880,note_off,240,0,4,,,,,,,,,,,,,,,3,,,38,0
177000,note_off,480,0,2,,,,,,,,,,,,,,,1,,,54,0
177000,note_off,0,0,2,,,,,,,,,,,,,,,1,,,57,0
177000,note_off,0,0,2,,,,,,,,,,,,,,,1,,,50,0
177000,note_off,480,0,1,,,,,,,,,,,,,,,0,,,60,0
177480,note_on,480,0,1,,,,,,,,,,,,,,,0,,,50,40
177600,note_on,0,0,4,,,,,,,,,,,,,,,3,,,84,41
177600,note_on,720,0,4,,,,,,,,,,,,,,,3,,,87,41
177840,note_off,0,0,4,,,,,,,,,,,,,,,3,,,84,0
177840,note_off,240,0,4,,,,,,,,,,,,,,,3,,,87,0
177960,note_off,480,0,1,,,,,,,,,,,,,,,0,,,50,0
178440,note_on,1440,0,2,,,,,,,,,,,,,,,1,,,50,39
178440,note_on,0,0,2,,,,,,,,,,,,,,,1,,,54,39
178440,note_on,480,0,1,,,,,,,,,,,,,,,0,,,60,39
178440,note_on,0,0,2,,,,,,,,,,,,,,,1,,,57,39
178560,note_on,720,0,4,,,,,,,,,,,,,,,3,,,38,39
178800,note_off,240,0,4,,,,,,,,,,,,,,,3,,,38,0
178920,note_off,480,0,1,,,,,,,,,,,,,,,0,,,60,0
178920,note_off,480,0,2,,,,,,,,,,,,,,,1,,,50,0
178920,note_off,0,0,2,,,,,,,,,,,,,,,1,,,54,0
178920,note_off,0,0,2,,,,,,,,,,,,,,,1,,,57,0
179280,set_tempo,7320,1,0,,,,,,,434782,,,,,,,,,,,,
179400,note_on,480,0,1,,,,,,,,,,,,,,,0,,,50,37
179520,note_on,720,0,4,,,,,,,,,,,,,,,3,,,84,38
179520,note_on,0,0,4,,,,,,,,,,,,,,,3,,,87,38
179760,note_off,240,0,4,,,,,,,,,,,,,,,3,,,84,0
179760,note_off,0,0,4,,,,,,,,,,,,,,,3,,,87,0
179880,note_off,480,0,1,,,,,,,,,,,,,,,0,,,50,0
180360,note_on,480,0,1,,,,,,,,,,,,,,,0,,,60,35
180360,note_on,0,0,2,,,,,,,,,,,,,,,1,,,57,35
180360,note_on,1440,0,2,,,,,,,,,,,,,,,1,,,50,35
180360,note_on,0,0,2,,,,,,,,,,,,,,,1,,,54,35
180480,note_on,720,0,4,,,,,,,,,,,,,,,3,,,38,36
180720,note_off,240,0,4,,,,,,,,,,,,,,,3,,,38,0
180840,note_off,0,0,2,,,,,,,,,,,,,,,1,,,57,0
180840,note_off,480,0,2,,,,,,,,,,,,,,,1,,,50,0
180840,note_off,0,0,2,,,,,,,,,,,,,,,1,,,54,0
180840,note_off,480,0,1,,,,,,,,,,,,,,,0,,,60,0
181320,note_on,480,0,2,,,,,,,,,,,,,,,1,,,50,34
181320,note_on,0,0,2,,,,,,,,,,,,,,,1,,,54,34
181320,note_on,480,0,1,,,,,,,,,,,,,,,0,,,60,34
181320,note_on,0,0,2,,,,,,,,,,,,,,,1,,,57,34
181440,note_on,720,0,4,,,,,,,,,,,,,,,3,,,38,35
181680,note_off,240,0,4,,,,,,,,,,,,,,,3,,,38,0
181800,note_off,0,0,2,,,,,,,,,,,,,,,1,,,54,0
181800,note_off,0,0,2,,,,,,,,,,,,,,,1,,,57,0
181800,note_off,480,0,2,,,,,,,,,,,,,,,1,,,50,0
181800,note_off,480,0,1,,,,,,,,,,,,,,,0,,,60,0
183120,set_tempo,3840,1,0,,,,,,,441176,,,,,,,,,,,,
183240,note_on,1440,0,1,,,,,,,,,,,,,,,0,,,60,30
183240,note_on,0,0,2,,,,,,,,,,,,,,,1,,,50,30
183240,note_on,1440,0,2,,,,,,,,,,,,,,,1,,,57,30
183240,note_on,0,0,2,,,,,,,,,,,,,,,1,,,54,30
183360,note_on,1680,0,4,,,,,,,,,,,,,,,3,,,51,32
183600,note_off,240,0,4,,,,,,,,,,,,,,,3,,,51,0
183720,note_off,480,0,1,,,,,,,,,,,,,,,0,,,60,0
183720,note_off,0,0,2,,,,,,,,,,,,,,,1,,,50,0
183720,note_off,0,0,2,,,,,,,,,,,,,,,1,,,54,0
183720,note_off,480,0,2,,,,,,,,,,,,,,,1,,,57,0
185040,set_tempo,1920,1,0,,,,,,,447761,,,,,,,,,,,,
185160,note_on,0,0,2,,,,,,,,,,,,,,,1,,,50,27
185160,note_on,0,0,2,,,,,,,,,,,,,,,1,,,54,27
185160,note_on,1440,0,2,,,,,,,,,,,,,,,1,,,57,27
185160,note_on,1440,0,1,,,,,,,,,,,,,,,0,,,60,27
185280,note_on,1680,0,4,,,,,,,,,,,,,,,3,,,38,29
185520,note_off,240,0,4,,,,,,,,,,,,,,,3,,,38,0
185640,note_off,0,0,2,,,,,,,,,,,,,,,1,,,54,0
185640,note_off,0,0,2,,,,,,,,,,,,,,,1,,,50,0
185640,note_off,480,0,1,,,,,,,,,,,,,,,0,,,60,0
185640,note_off,480,0,2,,,,,,,,,,,,,,,1,,,57,0
186250,set_tempo,1210,1,0,,,,,,,1666666,,,,,,,,,,,,
186720,control_change,1080,0,2,,,,,,,,,,,,,64,0,1,,,,
186720,control_change,1080,0,1,,,,,,,,,,,,,64,0,0,,,,
186720,control_change,1200,0,4,,,,,,,,,,,,,64,0,3,,,,
187080,set_tempo,830,1,0,,,,,,,434782,,,,,,,,,,,,
187080,note_on,360,0,1,,,,,,,,,,,,,,,0,,,79,89
187200,set_tempo,120,1,0,,,,,,,428571,,,,,,,,,,,,
187200,note_on,480,0,4,,,,,,,,,,,,,,,3,,,55,80
187200,note_on,78000,0,3,,,,,,,,,,,,,,,2,,,59,80
187200,note_on,0,0,3,,,,,,,,,,,,,,,2,,,62,80
187920,note_off,0,0,3,,,,,,,,,,,,,,,2,,,62,0
187920,note_off,840,0,1,,,,,,,,,,,,,,,0,,,79,0
187920,note_off,720,0,4,,,,,,,,,,,,,,,3,,,55,0
187920,note_off,720,0,3,,,,,,,,,,,,,,,2,,,59,0
187920,note_on,0,0,1,,,,,,,,,,,,,,,0,,,78,78
188040,note_off,120,0,1,,,,,,,,,,,,,,,0,,,78,0
188040,note_on,0,0,1,,,,,,,,,,,,,,,0,,,76,76
188160,note_on,0,0,1,,,,,,,,,,,,,,,0,,,74,75
188160,note_off,120,0,1,,,,,,,,,,,,,,,0,,,76,0
188280,note_on,0,0,1,,,,,,,,,,,,,,,0,,,75,73
188280,note_off,120,0,1,,,,,,,,,,,,,,,0,,,74,0
188400,note_off,120,0,1,,,,,,,,,,,,,,,0,,,75,0
188400,note_on,0,0,1,,,,,,,,,,,,,,,0,,,76,72
188520,note_off,120,0,1,,,,,,,,,,,,,,,0,,,76,0
188520,note_on,0,0,1,,,,,,,,,,,,,,,0,,,71,70
188640,note_off,120,0,1,,,,,,,,,,,,,,,0,,,71,0
188640,note_on,0,0,1,,,,,,,,,,,,,,,0,,,74,69
188760,note_off,120,0,1,,,,,,,,,,,,,,,0,,,74,0
188760,note_on,0,0,1,,,,,,,,,,,,,,,0,,,72,67
188880,note_off,120,0,1,,,,,,,,,,,,,,,0,,,72,0
188880,note_on,0,0,1,,,,,,,,,,,,,,,0,,,71,66
189000,note_on,0,0,1,,,,,,,,,,,,,,,0,,,69,64
189000,note_off,120,0,1,,,,,,,,,,,,,,,0,,,71,0
189120,note_on,0,0,1,,,,,,,,,,,,,,,0,,,67,61
189120,set_tempo,1920,1,0,,,,,,,441176,,,,,,,,,,,,
189120,note_off,120,0,1,,,,,,,,,,,,,,,0,,,69,0
189480,note_off,360,0,1,,,,,,,,,,,,,,,0,,,67,0
189840,set_tempo,720,1,0,,,,,,,434782,,,,,,,,,,,,
189960,note_on,3240,0,2,,,,,,,,,,,,,,,1,,,62,42
189960,control_change,0,0,2,,,,,,,,,,,,,64,127,1,,,,
189960,note_on,0,0,2,,,,,,,,,,,,,,,1,,,59,42
189960,note_on,0,0,1,,,,,,,,,,,,,,,0,,,67,43
189960,control_change,480,0,1,,,,,,,,,,,,,64,127,0,,,,
190080,note_on,0,0,4,,,,,,,,,,,,,,,3,,,55,43
190080,note_on,2160,0,4,,,,,,,,,,,,,,,3,,,43,43
190200,note_off,0,0,4,,,,,,,,,,,,,,,3,,,55,0
190200,note_off,120,0,4,,,,,,,,,,,,,,,3,,,43,0
190440,note_off,480,0,2,,,,,,,,,,,,,,,1,,,62,0
190440,note_on,0,0,2,,,,,,,,,,,,,,,1,,,62,46
190440,note_on,0,0,2,,,,,,,,,,,,,,,1,,,59,46
190440,note_off,480,0,1,,,,,,,,,,,,,,,0,,,67,0
190440,note_off,0,0,2,,,,,,,,,,,,,,,1,,,59,0
190440,note_on,0,0,1,,,,,,,,,,,,,,,0,,,71,46
190560,note_on,0,0,4,,,,,,,,,,,,,,,3,,,55,46
190560,note_on,360,0,4,,,,,,,,,,,,,,,3,,,43,46
190680,note_off,0,0,4,,,,,,,,,,,,,,,3,,,55,0
190680,note_off,120,0,4,,,,,,,,,,,,,,,3,,,43,0
190800,set_tempo,960,1,0,,,,,,,441176,,,,,,,,,,,,
190920,note_off,480,0,2,,,,,,,,,,,,,,,1,,,62,0
190920,note_off,0,0,2,,,,,,,,,,,,,,,1,,,59,0
190920,note_on,0,0,2,,,,,,,,,,,,,,,1,,,59,43
190920,note_on,0,0,1,,,,,,,,,,,,,,,0,,,67,42
190920,note_off,480,0,1,,,,,,,,,,,,,,,0,,,71,0
190920,note_on,0,0,2,,,,,,,,,,,,,,,1,,,62,43
191040,note_on,360,0,4,,,,,,,,,,,,,,,3,,,55,45
191040,note_on,0,0,4,,,,,,,,,,,,,,,3,,,43,45
191160,note_off,120,0,4,,,,,,,,,,,,,,,3,,,55,0
191160,note_off,0,0,4,,,,,,,,,,,,,,,3,,,43,0
191400,note_off,480,0,2,,,,,,,,,,,,,,,1,,,59,0
191400,note_off,0,0,2,,,,,,,,,,,,,,,1,,,62,0
191400,note_off,480,0,1,,,,,,,,,,,,,,,0,,,67,0
191520,control_change,120,0,2,,,,,,,,,,,,,64,0,1,,,,
191520,control_change,120,0,1,,,,,,,,,,,,,64,0,0,,,,
191880,set_tempo,1080,1,0,,,,,,,428571,,,,,,,,,,,,
191880,note_on,0,0,2,,,,,,,,,,,,,,,1,,,59,55
191880,control_change,0,0,2,,,,,,,,,,,,,64,127,1,,,,
191880,note_on,360,0,2,,,,,,,,,,,,,,,1,,,62,55
191880,control_change,0,0,1,,,,,,,,,,,,,64,127,0,,,,
191880,note_on,360,0,1,,,,,,,,,,,,,,,0,,,67,55
192000,note_on,840,0,4,,,,,,,,,,,,,,,3,,,43,54
192000,note_on,0,0,4,,,,,,,,,,,,,,,3,,,55,54
192120,note_off,0,0,4,,,,,,,,,,,,,,,3,,,55,0
192120,note_off,120,0,4,,,,,,,,,,,,,,,3,,,43,0
192360,note_on,0,0,2,,,,,,,,,,,,,,,1,,,62,57
192360,note_off,0,0,2,,,,,,,,,,,,,,,1,,,59,0
192360,note_on,0,0,1,,,,,,,,,,,,,,,0,,,74,57
192360,note_on,0,0,2,,,,,,,,,,,,,,,1,,,71,57
192360,note_off,480,0,1,,,,,,,,,,,,,,,0,,,67,0
192360,note_on,0,0,2,,,,,,,,,,,,,,,1,,,67,57
192360,note_off,480,0,2,,,,,,,,,,,,,,,1,,,62,0
192480,note_on,0,0,4,,,,,,,,,,,,,,,3,,,55,56
192480,note_on,360,0,4,,,,,,,,,,,,,,,3,,,43,56
192600,note_off,0,0,4,,,,,,,,,,,,,,,3,,,55,0
192600,note_off,120,0,4,,,,,,,,,,,,,,,3,,,43,0
192720,set_tempo,840,1,0,,,,,,,441176,,,,,,,,,,,,
192840,note_off,480,0,2,,,,,,,,,,,,,,,1,,,62,0
192840,note_off,0,0,2,,,,,,,,,,,,,,,1,,,67,0
192840,note_off,0,0,2,,,,,,,,,,,,,,,1,,,71,0
192840,note_on,0,0,1,,,,,,,,,,,,,,,0,,,67,55
192840,note_off,480,0,1,,,,,,,,,,,,,,,0,,,74,0
192840,note_on,0,0,2,,,,,,,,,,,,,,,1,,,62,55
192840,note_on,0,0,2,,,,,,,,,,,,,,,1,,,59,55
192960,note_on,0,0,4,,,,,,,,,,,,,,,3,,,43,54
192960,note_on,360,0,4,,,,,,,,,,,,,,,3,,,55,54
193080,note_off,0,0,4,,,,,,,,,,,,,,,3,,,43,0
193080,note_off,120,0,4,,,,,,,,,,,,,,,3,,,55,0
193320,note_off,480,0,1,,,,,,,,,,,,,,,0,,,67,0
193320,note_off,480,0,2,,,,,,,,,,,,,,,1,,,62,0
193320,note_off,0,0,2,,,,,,,,,,,,,,,1,,,59,0
193440,control_change,120,0,1,,,,,,,,,,,,,64,0,0,,,,
193440,control_change,120,0,2,,,,,,,,,,,,,64,0,1,,,,
193800,control_change,0,0,1,,,,,,,,,,,,,64,127,0,,,,
193800,note_on,360,0,1,,,,,,,,,,,,,,,0,,,71,78
193800,note_on,0,0,2,,,,,,,,,,,,,,,1,,,62,78
193800,note_on,360,0,2,,,,,,,,,,,,,,,1,,,59,78
193800,set_tempo,1080,1,0,,,,,,,428571,,,,,,,,,,,,
193800,note_on,0,0,2,,,,,,,,,,,,,,,1,,,67,78
193800,control_change,0,0,2,,,,,,,,,,,,,64,127,1,,,,
193920,note_on,0,0,4,,,,,,,,,,,,,,,3,,,55,78
193920,note_on,840,0,4,,,,,,,,,,,,,,,3,,,43,78
194040,note_off,0,0,4,,,,,,,,,,,,,,,3,,,55,0
194040,note_off,120,0,4,,,,,,,,,,,,,,,3,,,43,0
194280,note_off,480,0,2,,,,,,,,,,,,,,,1,,,59,0
194280,note_off,0,0,2,,,,,,,,,,,,,,,1,,,62,0
194280,note_on,0,0,1,,,,,,,,,,,,,,,0,,,79,83
194280,note_off,480,0,1,,,,,,,,,,,,,,,0,,,71,0
194280,note_on,0,0,2,,,,,,,,,,,,,,,1,,,76,83
194280,note_on,0,0,2,,,,,,,,,,,,,,,1,,,71,83
194280,note_on,0,0,2,,,,,,,,,,,,,,,1,,,67,83
194280,note_off,0,0,2,,,,,,,,,,,,,,,1,,,67,0
194400,note_on,0,0,4,,,,,,,,,,,,,,,3,,,40,81
194400,note_on,360,0,4,,,,,,,,,,,,,,,3,,,52,81
194520,note_off,120,0,4,,,,,,,,,,,,,,,3,,,52,0
194520,note_off,0,0,4,,,,,,,,,,,,,,,3,,,40,0
194640,set_tempo,840,1,0,,,,,,,441176,,,,,,,,,,,,
194760,note_off,0,0,1,,,,,,,,,,,,,,,0,,,79,0
194760,note_on,0,0,1,,,,,,,,,,,,,,,0,,,78,79
194760,note_on,0,0,2,,,,,,,,,,,,,,,1,,,69,79
194760,note_on,0,0,2,,,,,,,,,,,,,,,1,,,74,79
194760,control_change,480,0,2,,,,,,,,,,,,,64,0,1,,,,
194760,note_off,0,0,2,,,,,,,,,,,,,,,1,,,67,0
194760,control_change,480,0,1,,,,,,,,,,,,,64,0,0,,,,
194760,note_on,0,0,2,,,,,,,,,,,,,,,1,,,66,79
194760,note_off,0,0,2,,,,,,,,,,,,,,,1,,,76,0
194760,note_off,0,0,2,,,,,,,,,,,,,,,1,,,71,0
194880,note_on,0,0,4,,,,,,,,,,,,,,,3,,,57,78
194880,note_on,360,0,4,,,,,,,,,,,,,,,3,,,45,78
195000,note_off,120,0,4,,,,,,,,,,,,,,,3,,,45,0
195000,note_off,0,0,4,,,,,,,,,,,,,,,3,,,57,0
195240,note_off,480,0,2,,,,,,,,,,,,,,,1,,,66,0
195240,note_off,480,0,1,,,,,,,,,,,,,,,0,,,78,0
195240,note_off,0,0,2,,,,,,,,,,,,,,,1,,,69,0
195240,note_off,0,0,2,,,,,,,,,,,,,,,1,,,74,0
195360,control_change,120,0,1,,,,,,,,,,,,,64,0,0,,,,
195360,control_change,120,0,2,,,,,,,,,,,,,64,0,1,,,,
195600,set_tempo,960,1,0,,,,,,,454545,,,,,,,,,,,,
195840,note_on,480,0,1,,,,,,,,,,,,,,,0,,,74,52
195840,note_on,840,0,4,,,,,,,,,,,,,,,3,,,45,55
195840,note_on,0,0,4,,,,,,,,,,,,,,,3,,,57,55
195840,note_on,480,0,2,,,,,,,,,,,,,,,1,,,69,52
195840,note_on,0,0,2,,,,,,,,,,,,,,,1,,,66,52
195960,note_off,120,0,4,,,,,,,,,,,,,,,3,,,45,0
195960,note_off,0,0,4,,,,,,,,,,,,,,,3,,,57,0
195960,note_off,120,0,2,,,,,,,,,,,,,,,1,,,69,0
195960,note_off,0,0,2,,,,,,,,,,,,,,,1,,,66,0
195960,note_off,120,0,1,,,,,,,,,,,,,,,0,,,74,0
196320,note_on,0,0,2,,,,,,,,,,,,,,,1,,,67,48
196320,note_on,0,0,2,,,,,,,,,,,,,,,1,,,69,48
196320,note_on,360,0,4,,,,,,,,,,,,,,,3,,,33,51
196320,note_on,0,0,4,,,,,,,,,,,,,,,3,,,45,51
196320,note_on,360,0,2,,,,,,,,,,,,,,,1,,,64,48
196320,note_on,360,0,1,,,,,,,,,,,,,,,0,,,73,48
196440,note_off,0,0,2,,,,,,,,,,,,,,,1,,,67,0
196440,note_off,120,0,2,,,,,,,,,,,,,,,1,,,64,0
196440,note_off,0,0,2,,,,,,,,,,,,,,,1,,,69,0
196440,note_off,0,0,4,,,,,,,,,,,,,,,3,,,45,0
196440,note_off,120,0,4,,,,,,,,,,,,,,,3,,,33,0
196440,note_off,120,0,1,,,,,,,,,,,,,,,0,,,73,0
196800,note_on,360,0,2,,,,,,,,,,,,,,,1,,,66,44
196800,note_on,0,0,2,,,,,,,,,,,,,,,1,,,69,44
196800,note_on,360,0,4,,,,,,,,,,,,,,,3,,,38,48
196800,note_on,0,0,4,,,,,,,,,,,,,,,3,,,50,48
196800,note_on,0,0,2,,,,,,,,,,,,,,,1,,,62,44
196800,set_tempo,1200,1,0,,,,,,,461538,,,,,,,,,,,,
196800,note_on,360,0,1,,,,,,,,,,,,,,,0,,,74,44
196920,note_off,120,0,1,,,,,,,,,,,,,,,0,,,74,0
196920,note_off,120,0,2,,,,,,,,,,,,,,,1,,,66,0
196920,note_off,0,0,2,,,,,,,,,,,,,,,1,,,62,0
196920,note_off,0,0,2,,,,,,,,,,,,,,,1,,,69,0
196920,note_off,0,0,4,,,,,,,,,,,,,,,3,,,50,0
196920,note_off,120,0,4,,,,,,,,,,,,,,,3,,,38,0
197280,control_change,360,0,1,,,,,,,,,,,,,64,0,0,,,,
197280,control_change,360,0,2,,,,,,,,,,,,,64,0,1,,,,
197280,control_change,360,0,4,,,,,,,,,,,,,64,0,3,,,,
197520,set_tempo,720,1,0,,,,,,,465116,,,,,,,,,,,,
197640,set_tempo,120,1,0,,,,,,,434782,,,,,,,,,,,,
197640,control_change,0,0,1,,,,,,,,,,,,,64,127,0,,,,
197640,note_on,0,0,2,,,,,,,,,,,,,,,1,,,67,85
197640,note_on,0,0,2,,,,,,,,,,,,,,,1,,,72,85
197640,control_change,0,0,2,,,,,,,,,,,,,64,127,1,,,,
197640,note_on,360,0,2,,,,,,,,,,,,,,,1,,,64,85
197640,note_on,360,0,1,,,,,,,,,,,,,,,0,,,76,85
197760,note_on,480,0,4,,,,,,,,,,,,,,,3,,,60,85
197760,note_on,0,0,4,,,,,,,,,,,,,,,3,,,48,85
197880,note_off,120,0,4,,,,,,,,,,,,,,,3,,,60,0
197880,note_off,0,0,4,,,,,,,,,,,,,,,3,,,48,0
198120,note_off,0,0,2,,,,,,,,,,,,,,,1,,,67,0
198120,note_off,0,0,2,,,,,,,,,,,,,,,1,,,72,0
198120,note_on,0,0,2,,,,,,,,,,,,,,,1,,,76,91
198120,note_off,480,0,2,,,,,,,,,,,,,,,1,,,64,0
198120,note_off,480,0,1,,,,,,,,,,,,,,,0,,,76,0
198120,note_on,0,0,2,,,,,,,,,,,,,,,1,,,81,91
198120,note_on,0,0,1,,,,,,,,,,,,,,,0,,,84,91
198120,note_on,0,0,2,,,,,,,,,,,,,,,1,,,72,91
198240,note_on,0,0,4,,,,,,,,,,,,,,,3,,,57,89
198240,note_on,360,0,4,,,,,,,,,,,,,,,3,,,45,89
198360,note_off,0,0,4,,,,,,,,,,,,,,,3,,,57,0
198360,note_off,120,0,4,,,,,,,,,,,,,,,3,,,45,0
198470,set_tempo,830,1,0,,,,,,,441176,,,,,,,,,,,,
198600,note_on,0,0,1,,,,,,,,,,,,,,,0,,,83,86
198600,note_off,0,0,1,,,,,,,,,,,,,,,0,,,84,0
198600,control_change,480,0,1,,,,,,,,,,,,,64,0,0,,,,
198600,note_on,0,0,2,,,,,,,,,,,,,,,1,,,74,86
198600,note_on,0,0,2,,,,,,,,,,,,,,,1,,,71,86
198600,note_off,0,0,2,,,,,,,,,,,,,,,1,,,76,0
198600,note_off,0,0,2,,,,,,,,,,,,,,,1,,,81,0
198600,note_on,0,0,2,,,,,,,,,,,,,,,1,,,79,86
198600,note_off,0,0,2,,,,,,,,,,,,,,,1,,,72,0
198600,control_change,480,0,2,,,,,,,,,,,,,64,0,1,,,,
198720,note_on,360,0,4,,,,,,,,,,,,,,,3,,,62,86
198720,note_on,0,0,4,,,,,,,,,,,,,,,3,,,50,86
198840,note_off,120,0,4,,,,,,,,,,,,,,,3,,,62,0
198840,note_off,0,0,4,,,,,,,,,,,,,,,3,,,50,0
199080,note_off,480,0,2,,,,,,,,,,,,,,,1,,,71,0
199080,note_off,0,0,2,,,,,,,,,,,,,,,1,,,74,0
199080,note_off,0,0,2,,,,,,,,,,,,,,,1,,,79,0
199080,note_off,480,0,1,,,,,,,,,,,,,,,0,,,83,0
199200,control_change,120,0,2,,,,,,,,,,,,,64,0,1,,,,
199200,control_change,120,0,1,,,,,,,,,,,,,64,0,0,,,,
199440,set_tempo,970,1,0,,,,,,,447761,,,,,,,,,,,,
199680,note_on,0,0,2,,,,,,,,,,,,,,,1,,,74,55
199680,note_on,480,0,2,,,,,,,,,,,,,,,1,,,71,55
199680,note_on,480,0,1,,,,,,,,,,,,,,,0,,,79,55
199680,note_on,0,0,4,,,,,,,,,,,,,,,3,,,62,53
199680,note_on,840,0,4,,,,,,,,,,,,,,,3,,,50,53
199800,note_off,120,0,4,,,,,,,,,,,,,,,3,,,50,0
199800,note_off,120,0,2,,,,,,,,,,,,,,,1,,,71,0
199800,note_off,0,0,4,,,,,,,,,,,,,,,3,,,62,0
199800,note_off,120,0,1,,,,,,,,,,,,,,,0,,,79,0
199800,note_off,0,0,2,,,,,,,,,,,,,,,1,,,74,0
200160,note_on,360,0,1,,,,,,,,,,,,,,,0,,,78,53
200160,note_on,0,0,2,,,,,,,,,,,,,,,1,,,69,53
200160,note_on,360,0,4,,,,,,,,,,,,,,,3,,,38,52
200160,note_on,0,0,4,,,,,,,,,,,,,,,3,,,50,52
200160,note_on,360,0,2,,,,,,,,,,,,,,,1,,,74,53
200280,note_off,120,0,2,,,,,,,,,,,,,,,1,,,74,0
200280,note_off,0,0,2,,,,,,,,,,,,,,,1,,,69,0
200280,note_off,120,0,1,,,,,,,,,,,,,,,0,,,78,0
200280,note_off,120,0,4,,,,,,,,,,,,,,,3,,,38,0
200280,note_off,0,0,4,,,,,,,,,,,,,,,3,,,50,0
200640,note_on,360,0,4,,,,,,,,,,,,,,,3,,,43,50
200640,note_on,0,0,2,,,,,,,,,,,,,,,1,,,74,51
200640,note_on,360,0,1,,,,,,,,,,,,,,,0,,,79,51
200640,note_on,0,0,4,,,,,,,,,,,,,,,3,,,55,50
200640,note_on,360,0,2,,,,,,,,,,,,,,,1,,,71,51
200640,set_tempo,1200,1,0,,,,,,,454545,,,,,,,,,,,,
200760,note_off,120,0,2,,,,,,,,,,,,,,,1,,,71,0
200760,note_off,0,0,2,,,,,,,,,,,,,,,1,,,74,0
200760,note_off,120,0,1,,,,,,,,,,,,,,,0,,,79,0
200760,note_off,0,0,4,,,,,,,,,,,,,,,3,,,55,0
200760,note_off,120,0,4,,,,,,,,,,,,,,,3,,,43,0
201120,control_change,360,0,4,,,,,,,,,,,,,64,0,3,,,,
201120,control_change,360,0,1,,,,,,,,,,,,,64,0,0,,,,
201120,control_change,360,0,2,,,,,,,,,,,,,64,0,1,,,,
201360,set_tempo,720,1,0,,,,,,,434782,,,,,,,,,,,,
201480,note_on,360,0,1,,,,,,,,,,,,,,,0,,,76,90
201480,control_change,0,0,1,,,,,,,,,,,,,64,127,0,,,,
201480,note_on,360,0,2,,,,,,,,,,,,,,,1,,,64,90
201480,note_on,0,0,2,,,,,,,,,,,,,,,1,,,67,90
201480,note_on,0,0,2,,,,,,,,,,,,,,,1,,,72,90
201480,control_change,0,0,2,,,,,,,,,,,,,64,127,1,,,,
201600,note_on,0,0,4,,,,,,,,,,,,,,,3,,,48,94
201600,note_on,480,0,4,,,,,,,,,,,,,,,3,,,60,94
201720,note_off,0,0,4,,,,,,,,,,,,,,,3,,,48,0
201720,note_off,120,0,4,,,,,,,,,,,,,,,3,,,60,0
201960,note_off,480,0,2,,,,,,,,,,,,,,,1,,,64,0
201960,note_off,0,0,2,,,,,,,,,,,,,,,1,,,67,0
201960,note_off,0,0,2,,,,,,,,,,,,,,,1,,,72,0
201960,note_on,0,0,2,,,,,,,,,,,,,,,1,,,76,96
201960,note_on,0,0,2,,,,,,,,,,,,,,,1,,,81,96
201960,note_on,0,0,2,,,,,,,,,,,,,,,1,,,72,96
201960,note_on,0,0,1,,,,,,,,,,,,,,,0,,,84,96
201960,note_off,480,0,1,,,,,,,,,,,,,,,0,,,76,0
202080,note_on,0,0,4,,,,,,,,,,,,,,,3,,,57,100
202080,note_on,360,0,4,,,,,,,,,,,,,,,3,,,45,100
202200,note_off,0,0,4,,,,,,,,,,,,,,,3,,,57,0
202200,note_off,120,0,4,,,,,,,,,,,,,,,3,,,45,0
202310,set_tempo,950,1,0,,,,,,,441176,,,,,,,,,,,,
202440,control_change,480,0,1,,,,,,,,,,,,,64,0,0,,,,
202440,note_off,0,0,1,,,,,,,,,,,,,,,0,,,84,0
202440,note_on,0,0,1,,,,,,,,,,,,,,,0,,,83,92
202440,note_on,0,0,2,,,,,,,,,,,,,,,1,,,75,92
202440,note_on,0,0,2,,,,,,,,,,,,,,,1,,,78,92
202440,note_on,0,0,2,,,,,,,,,,,,,,,1,,,71,92
202440,control_change,480,0,2,,,,,,,,,,,,,64,0,1,,,,
202440,note_off,0,0,2,,,,,,,,,,,,,,,1,,,72,0
202440,note_off,0,0,2,,,,,,,,,,,,,,,1,,,81,0
202440,note_off,0,0,2,,,,,,,,,,,,,,,1,,,76,0
202560,note_on,360,0,4,,,,,,,,,,,,,,,3,,,47,95
202560,note_on,0,0,4,,,,,,,,,,,,,,,3,,,59,95
202680,note_off,120,0,4,,,,,,,,,,,,,,,3,,,47,0
202680,note_off,0,0,4,,,,,,,,,,,,,,,3,,,59,0
202920,note_off,480,0,1,,,,,,,,,,,,,,,0,,,83,0
202920,note_off,0,0,2,,,,,,,,,,,,,,,1,,,78,0
202920,note_off,480,0,2,,,,,,,,,,,,,,,1,,,71,0
202920,note_off,0,0,2,,,,,,,,,,,,,,,1,,,75,0
203040,control_change,120,0,1,,,,,,,,,,,,,64,0,0,,,,
203040,control_change,120,0,2,,,,,,,,,,,,,64,0,1,,,,
203280,set_tempo,970,1,0,,,,,,,447761,,,,,,,,,,,,
203520,control_change,0,0,1,,,,,,,,,,,,,64,0,0,,,,
203520,set_tempo,240,1,0,,,,,,,447761,,,,,,,,,,,,
203520,note_on,0,0,4,,,,,,,,,,,,,,,3,,,72,53
203520,control_change,840,0,4,,,,,,,,,,,,,64,0,3,,,,
203520,control_change,0,0,2,,,,,,,,,,,,,64,0,1,,,,
203520,note_on,480,0,2,,,,,,,,,,,,,,,1,,,76,53
203520,note_on,480,0,1,,,,,,,,,,,,,,,0,,,81,53
203640,note_off,120,0,2,,,,,,,,,,,,,,,1,,,76,0
203640,note_off,120,0,1,,,,,,,,,,,,,,,0,,,81,0
203640,note_off,120,0,4,,,,,,,,,,,,,,,3,,,72,0
204000,note_on,360,0,1,,,,,,,,,,,,,,,0,,,82,51
204000,note_on,360,0,2,,,,,,,,,,,,,,,1,,,76,51
204000,note_on,360,0,4,,,,,,,,,,,,,,,3,,,72,52
204120,note_off,120,0,1,,,,,,,,,,,,,,,0,,,82,0
204120,note_off,120,0,2,,,,,,,,,,,,,,,1,,,76,0
204120,note_off,120,0,4,,,,,,,,,,,,,,,3,,,72,0
204480,note_on,360,0,2,,,,,,,,,,,,,,,1,,,75,50
204480,note_on,360,0,1,,,,,,,,,,,,,,,0,,,83,50
204480,set_tempo,960,1,0,,,,,,,454545,,,,,,,,,,,,
204480,note_on,360,0,4,,,,,,,,,,,,,,,3,,,71,50
204600,note_off,120,0,1,,,,,,,,,,,,,,,0,,,83,0
204600,note_off,120,0,2,,,,,,,,,,,,,,,1,,,75,0
204600,note_off,120,0,4,,,,,,,,,,,,,,,3,,,71,0
205440,note_on,840,0,1,,,,,,,,,,,,,,,0,,,76,46
205440,note_on,840,0,2,,,,,,,,,,,,,,,1,,,69,46
205440,note_on,840,0,4,,,,,,,,,,,,,,,3,,,60,47
205560,note_off,120,0,1,,,,,,,,,,,,,,,0,,,76,0
205560,note_off,120,0,4,,,,,,,,,,,,,,,3,,,60,0
205560,note_off,120,0,2,,,,,,,,,,,,,,,1,,,69,0
205920,note_on,360,0,4,,,,,,,,,,,,,,,3,,,60,45
205920,note_on,360,0,1,,,,,,,,,,,,,,,0,,,76,44
205920,note_on,360,0,2,,,,,,,,,,,,,,,1,,,70,44
206040,note_off,120,0,4,,,,,,,,,,,,,,,3,,,60,0
206040,note_off,120,0,1,,,,,,,,,,,,,,,0,,,76,0
206040,note_off,120,0,2,,,,,,,,,,,,,,,1,,,70,0
206400,set_tempo,1920,1,0,,,,,,,461538,,,,,,,,,,,,
206400,note_on,360,0,4,,,,,,,,,,,,,,,3,,,59,43
206400,note_on,360,0,2,,,,,,,,,,,,,,,1,,,71,43
206400,note_on,360,0,1,,,,,,,,,,,,,,,0,,,75,43
206520,note_off,120,0,1,,,,,,,,,,,,,,,0,,,75,0
206520,note_off,120,0,2,,,,,,,,,,,,,,,1,,,71,0
206520,note_off,120,0,4,,,,,,,,,,,,,,,3,,,59,0
207360,note_on,0,0,2,,,,,,,,,,,,,,,1,,,57,41
207360,note_on,840,0,2,,,,,,,,,,,,,,,1,,,64,41
207360,note_on,0,0,4,,,,,,,,,,,,,,,3,,,48,40
207360,note_on,840,0,1,,,,,,,,,,,,,,,0,,,69,41
207360,note_on,840,0,4,,,,,,,,,,,,,,,3,,,36,40
207480,note_off,0,0,4,,,,,,,,,,,,,,,3,,,48,0
207480,note_off,120,0,2,,,,,,,,,,,,,,,1,,,64,0
207480,note_off,0,0,2,,,,,,,,,,,,,,,1,,,57,0
207480,note_off,120,0,4,,,,,,,,,,,,,,,3,,,36,0
207480,note_off,120,0,1,,,,,,,,,,,,,,,0,,,69,0
207840,note_on,0,0,2,,,,,,,,,,,,,,,1,,,58,37
207840,note_on,360,0,1,,,,,,,,,,,,,,,0,,,70,37
207840,note_on,360,0,2,,,,,,,,,,,,,,,1,,,64,37
207840,note_on,0,0,4,,,,,,,,,,,,,,,3,,,48,38
207840,note_on,360,0,4,,,,,,,,,,,,,,,3,,,36,38
207960,note_off,120,0,1,,,,,,,,,,,,,,,0,,,70,0
207960,note_off,0,0,4,,,,,,,,,,,,,,,3,,,48,0
207960,note_off,0,0,2,,,,,,,,,,,,,,,1,,,58,0
207960,note_off,120,0,2,,,,,,,,,,,,,,,1,,,64,0
207960,note_off,120,0,4,,,,,,,,,,,,,,,3,,,36,0
208080,set_tempo,1680,1,0,,,,,,,508474,,,,,,,,,,,,
208320,note_on,360,0,2,,,,,,,,,,,,,,,1,,,63,35
208320,note_on,0,0,2,,,,,,,,,,,,,,,1,,,59,35
208320,set_tempo,240,1,0,,,,,,,465116,,,,,,,,,,,,
208320,note_on,0,0,4,,,,,,,,,,,,,,,3,,,35,37
208320,note_on,360,0,1,,,,,,,,,,,,,,,0,,,71,35
208320,note_on,360,0,4,,,,,,,,,,,,,,,3,,,47,37
208440,note_off,120,0,2,,,,,,,,,,,,,,,1,,,63,0
208440,note_off,120,0,4,,,,,,,,,,,,,,,3,,,47,0
208440,note_off,0,0,4,,,,,,,,,,,,,,,3,,,35,0
208440,note_off,0,0,2,,,,,,,,,,,,,,,1,,,59,0
208440,set_tempo,120,1,0,,,,,,,447761,,,,,,,,,,,,
208560,note_off,240,0,1,,,,,,,,,,,,,,,0,,,71,0
208560,note_on,0,0,1,,,,,,,,,,,,,,,0,,,70,35
208680,note_off,120,0,1,,,,,,,,,,,,,,,0,,,70,0
208680,note_on,0,0,1,,,,,,,,,,,,,,,0,,,71,37
208800,note_off,120,0,1,,,,,,,,,,,,,,,0,,,71,0
208800,note_on,0,0,1,,,,,,,,,,,,,,,0,,,70,38
208920,note_off,120,0,1,,,,,,,,,,,,,,,0,,,70,0
208920,note_on,0,0,1,,,,,,,,,,,,,,,0,,,71,39
209040,note_on,0,0,1,,,,,,,,,,,,,,,0,,,70,41
209040,note_off,120,0,1,,,,,,,,,,,,,,,0,,,71,0
209160,note_on,0,0,1,,,,,,,,,,,,,,,0,,,71,42
209160,note_off,120,0,1,,,,,,,,,,,,,,,0,,,70,0
209280,note_on,0,0,1,,,,,,,,,,,,,,,0,,,70,43
209280,note_off,120,0,1,,,,,,,,,,,,,,,0,,,71,0
209400,note_on,0,0,1,,,,,,,,,,,,,,,0,,,71,45
209400,note_off,120,0,1,,,,,,,,,,,,,,,0,,,70,0
209520,note_on,0,0,1,,,,,,,,,,,,,,,0,,,70,46
209520,note_off,120,0,1,,,,,,,,,,,,,,,0,,,71,0
209640,note_on,0,0,1,,,,,,,,,,,,,,,0,,,71,48
209640,note_off,120,0,1,,,,,,,,,,,,,,,0,,,70,0
209760,note_on,0,0,1,,,,,,,,,,,,,,,0,,,70,49
209760,note_off,120,0,1,,,,,,,,,,,,,,,0,,,71,0
209880,note_on,0,0,1,,,,,,,,,,,,,,,0,,,71,50
209880,note_off,120,0,1,,,,,,,,,,,,,,,0,,,70,0
209900,set_tempo,1460,1,0,,,,,,,461538,,,,,,,,,,,,
210000,set_tempo,100,1,0,,,,,,,461538,,,,,,,,,,,,
210000,note_on,0,0,1,,,,,,,,,,,,,,,0,,,73,52
210000,note_off,120,0,1,,,,,,,,,,,,,,,0,,,71,0
210120,set_tempo,120,1,0,,,,,,,500000,,,,,,,,,,,,
210120,note_on,0,0,1,,,,,,,,,,,,,,,0,,,71,53
210120,note_off,120,0,1,,,,,,,,,,,,,,,0,,,73,0
210240,control_change,1800,0,2,,,,,,,,,,,,,64,0,1,,,,
210240,control_change,120,0,1,,,,,,,,,,,,,64,0,0,,,,
210240,note_on,1800,0,4,,,,,,,,,,,,,,,3,,,52,51
210240,note_on,0,0,1,,,,,,,,,,,,,,,0,,,71,54
210240,note_off,0,0,1,,,,,,,,,,,,,,,0,,,71,0
210240,set_tempo,120,1,0,,,,,,,487804,,,,,,,,,,,,
210340,set_tempo,100,1,0,,,,,,,447761,,,,,,,,,,,,
210420,note_off,180,0,1,,,,,,,,,,,,,,,0,,,71,0
210480,note_on,60,0,1,,,,,,,,,,,,,,,0,,,80,59
210480,note_on,22560,0,3,,,,,,,,,,,,,,,2,,,64,40
210480,note_on,0,0,3,,,,,,,,,,,,,,,2,,,68,40
210480,note_on,0,0,3,,,,,,,,,,,,,,,2,,,59,40
210720,note_on,0,0,3,,,,,,,,,,,,,,,2,,,59,41
210720,note_on,0,0,3,,,,,,,,,,,,,,,2,,,64,41
210720,note_off,0,0,3,,,,,,,,,,,,,,,2,,,59,0
210720,note_off,0,0,3,,,,,,,,,,,,,,,2,,,68,0
210720,note_off,240,0,3,,,,,,,,,,,,,,,2,,,64,0
210720,note_on,0,0,3,,,,,,,,,,,,,,,2,,,68,41
210960,note_on,0,0,3,,,,,,,,,,,,,,,2,,,68,41
210960,note_on,0,0,3,,,,,,,,,,,,,,,2,,,59,41
210960,note_on,0,0,3,,,,,,,,,,,,,,,2,,,64,41
210960,note_off,0,0,3,,,,,,,,,,,,,,,2,,,59,0
210960,note_off,0,0,3,,,,,,,,,,,,,,,2,,,68,0
210960,note_off,480,0,1,,,,,,,,,,,,,,,0,,,80,0
210960,note_on,0,0,1,,,,,,,,,,,,,,,0,,,78,55
210960,note_off,240,0,3,,,,,,,,,,,,,,,2,,,64,0
211200,note_off,960,0,4,,,,,,,,,,,,,,,3,,,52,0
211200,note_on,0,0,4,,,,,,,,,,,,,,,3,,,52,52
211200,note_off,240,0,3,,,,,,,,,,,,,,,2,,,64,0
211200,note_off,0,0,3,,,,,,,,,,,,,,,2,,,59,0
211200,note_off,0,0,3,,,,,,,,,,,,,,,2,,,68,0
211200,note_off,240,0,1,,,,,,,,,,,,,,,0,,,78,0
211200,note_on,0,0,1,,,,,,,,,,,,,,,0,,,76,54
211380,note_off,180,0,1,,,,,,,,,,,,,,,0,,,76,0
211440,note_on,60,0,1,,,,,,,,,,,,,,,0,,,80,60
211440,note_on,240,0,3,,,,,,,,,,,,,,,2,,,59,42
211440,note_on,0,0,3,,,,,,,,,,,,,,,2,,,64,42
211440,note_on,0,0,3,,,,,,,,,,,,,,,2,,,68,42
211680,note_off,0,0,3,,,,,,,,,,,,,,,2,,,68,0
211680,note_on,0,0,3,,,,,,,,,,,,,,,2,,,64,43
211680,note_on,0,0,3,,,,,,,,,,,,,,,2,,,59,43
211680,note_on,0,0,3,,,,,,,,,,,,,,,2,,,68,43
211680,note_off,240,0,3,,,,,,,,,,,,,,,2,,,59,0
211680,note_off,0,0,3,,,,,,,,,,,,,,,2,,,64,0
211920,note_on,0,0,3,,,,,,,,,,,,,,,2,,,68,43
211920,note_on,0,0,3,,,,,,,,,,,,,,,2,,,64,43
211920,note_on,0,0,3,,,,,,,,,,,,,,,2,,,59,43
211920,note_off,0,0,3,,,,,,,,,,,,,,,2,,,68,0
211920,note_off,0,0,3,,,,,,,,,,,,,,,2,,,59,0
211920,note_off,240,0,3,,,,,,,,,,,,,,,2,,,64,0
211920,note_on,0,0,1,,,,,,,,,,,,,,,0,,,76,58
211920,note_off,480,0,1,,,,,,,,,,,,,,,0,,,80,0
212160,note_on,0,0,1,,,,,,,,,,,,,,,0,,,75,57
212160,note_off,240,0,1,,,,,,,,,,,,,,,0,,,76,0
212160,note_off,0,0,3,,,,,,,,,,,,,,,2,,,68,0
212160,note_off,960,0,4,,,,,,,,,,,,,,,3,,,52,0
212160,note_off,0,0,3,,,,,,,,,,,,,,,2,,,64,0
212160,note_off,240,0,3,,,,,,,,,,,,,,,2,,,59,0
212160,note_on,0,0,4,,,,,,,,,,,,,,,3,,,47,54
212340,set_tempo,2000,1,0,,,,,,,454545,,,,,,,,,,,,
212340,note_off,180,0,1,,,,,,,,,,,,,,,0,,,75,0
212400,note_on,60,0,1,,,,,,,,,,,,,,,0,,,83,63
212400,note_on,240,0,3,,,,,,,,,,,,,,,2,,,69,44
212400,note_on,0,0,3,,,,,,,,,,,,,,,2,,,66,44
212400,note_on,0,0,3,,,,,,,,,,,,,,,2,,,59,44
212400,set_tempo,60,1,0,,,,,,,447761,,,,,,,,,,,,
212640,note_off,0,0,3,,,,,,,,,,,,,,,2,,,66,0
212640,note_on,0,0,3,,,,,,,,,,,,,,,2,,,66,44
212640,note_off,0,0,3,,,,,,,,,,,,,,,2,,,59,0
212640,note_off,240,0,3,,,,,,,,,,,,,,,2,,,69,0
212640,note_on,0,0,3,,,,,,,,,,,,,,,2,,,59,44
212640,note_on,0,0,3,,,,,,,,,,,,,,,2,,,69,44
212880,note_on,0,0,3,,,,,,,,,,,,,,,2,,,59,45
212880,note_on,0,0,3,,,,,,,,,,,,,,,2,,,69,45
212880,note_off,0,0,3,,,,,,,,,,,,,,,2,,,66,0
212880,note_off,0,0,3,,,,,,,,,,,,,,,2,,,59,0
212880,note_off,240,0,3,,,,,,,,,,,,,,,2,,,69,0
212880,note_off,480,0,1,,,,,,,,,,,,,,,0,,,83,0
212880,note_on,0,0,1,,,,,,,,,,,,,,,0,,,83,69
212880,note_on,0,0,3,,,,,,,,,,,,,,,2,,,66,45
213120,note_on,0,0,4,,,,,,,,,,,,,,,3,,,51,55
213120,note_off,960,0,4,,,,,,,,,,,,,,,3,,,47,0
213120,note_off,240,0,3,,,,,,,,,,,,,,,2,,,69,0
213120,note_off,0,0,3,,,,,,,,,,,,,,,2,,,59,0
213120,note_off,0,0,3,,,,,,,,,,,,,,,2,,,66,0
213360,note_on,240,0,3,,,,,,,,,,,,,,,2,,,69,45
213360,note_on,0,0,3,,,,,,,,,,,,,,,2,,,66,45
213360,note_on,0,0,3,,,,,,,,,,,,,,,2,,,59,45
213360,note_off,480,0,1,,,,,,,,,,,,,,,0,,,83,0
213360,note_on,0,0,1,,,,,,,,,,,,,,,0,,,85,64
213480,note_off,120,0,1,,,,,,,,,,,,,,,0,,,85,0
213480,note_on,0,0,1,,,,,,,,,,,,,,,0,,,83,62
213600,note_off,0,0,3,,,,,,,,,,,,,,,2,,,59,0
213600,note_off,0,0,3,,,,,,,,,,,,,,,2,,,66,0
213600,note_off,240,0,3,,,,,,,,,,,,,,,2,,,69,0
213600,note_off,120,0,1,,,,,,,,,,,,,,,0,,,83,0
213600,note_on,0,0,1,,,,,,,,,,,,,,,0,,,81,61
213600,note_on,0,0,4,,,,,,,,,,,,,,,3,,,47,56
213600,note_off,480,0,4,,,,,,,,,,,,,,,3,,,51,0
213720,note_on,0,0,1,,,,,,,,,,,,,,,0,,,80,59
213720,note_off,120,0,1,,,,,,,,,,,,,,,0,,,81,0
213840,note_on,0,0,3,,,,,,,,,,,,,,,2,,,66,44
213840,note_on,0,0,3,,,,,,,,,,,,,,,2,,,59,44
213840,note_off,120,0,1,,,,,,,,,,,,,,,0,,,80,0
213840,note_on,0,0,1,,,,,,,,,,,,,,,0,,,81,58
213840,note_on,240,0,3,,,,,,,,,,,,,,,2,,,69,44
213960,note_off,120,0,1,,,,,,,,,,,,,,,0,,,81,0
213960,note_on,0,0,1,,,,,,,,,,,,,,,0,,,78,56
214040,set_tempo,1640,1,0,,,,,,,454545,,,,,,,,,,,,
214080,note_off,120,0,1,,,,,,,,,,,,,,,0,,,78,0
214080,note_on,0,0,1,,,,,,,,,,,,,,,0,,,76,59
214080,note_on,0,0,4,,,,,,,,,,,,,,,3,,,52,57
214080,note_off,480,0,4,,,,,,,,,,,,,,,3,,,47,0
214080,note_off,240,0,3,,,,,,,,,,,,,,,2,,,69,0
214080,note_off,0,0,3,,,,,,,,,,,,,,,2,,,66,0
214080,note_off,0,0,3,,,,,,,,,,,,,,,2,,,59,0
214140,set_tempo,100,1,0,,,,,,,447761,,,,,,,,,,,,
214260,note_off,180,0,1,,,,,,,,,,,,,,,0,,,76,0
214320,note_on,0,0,3,,,,,,,,,,,,,,,2,,,68,44
214320,note_on,60,0,1,,,,,,,,,,,,,,,0,,,80,63
214320,note_on,240,0,3,,,,,,,,,,,,,,,2,,,59,44
214320,note_on,0,0,3,,,,,,,,,,,,,,,2,,,64,44
214560,note_on,0,0,3,,,,,,,,,,,,,,,2,,,68,44
214560,note_on,0,0,3,,,,,,,,,,,,,,,2,,,59,44
214560,note_off,240,0,3,,,,,,,,,,,,,,,2,,,59,0
214560,note_off,0,0,3,,,,,,,,,,,,,,,2,,,64,0
214560,note_off,0,0,3,,,,,,,,,,,,,,,2,,,68,0
214560,note_on,0,0,3,,,,,,,,,,,,,,,2,,,64,44
214800,note_off,240,0,3,,,,,,,,,,,,,,,2,,,64,0
214800,note_on,0,0,1,,,,,,,,,,,,,,,0,,,78,58
214800,note_off,480,0,1,,,,,,,,,,,,,,,0,,,80,0
214800,note_off,0,0,3,,,,,,,,,,,,,,,2,,,68,0
214800,note_off,0,0,3,,,,,,,,,,,,,,,2,,,59,0
214800,note_on,0,0,3,,,,,,,,,,,,,,,2,,,59,43
214800,note_on,0,0,3,,,,,,,,,,,,,,,2,,,68,43
214800,note_on,0,0,3,,,,,,,,,,,,,,,2,,,64,43
215040,note_off,960,0,4,,,,,,,,,,,,,,,3,,,52,0
215040,note_off,240,0,1,,,,,,,,,,,,,,,0,,,78,0
215040,note_on,0,0,1,,,,,,,,,,,,,,,0,,,76,56
215040,note_on,0,0,4,,,,,,,,,,,,,,,3,,,52,58
215040,note_off,0,0,3,,,,,,,,,,,,,,,2,,,68,0
215040,note_off,0,0,3,,,,,,,,,,,,,,,2,,,59,0
215040,note_off,240,0,3,,,,,,,,,,,,,,,2,,,64,0
215220,note_off,180,0,1,,,,,,,,,,,,,,,0,,,76,0
215280,note_on,0,0,3,,,,,,,,,,,,,,,2,,,68,43
215280,note_on,0,0,3,,,,,,,,,,,,,,,2,,,59,43
215280,note_on,60,0,1,,,,,,,,,,,,,,,0,,,80,58
215280,note_on,240,0,3,,,,,,,,,,,,,,,2,,,64,43
215520,note_off,240,0,3,,,,,,,,,,,,,,,2,,,64,0
215520,note_off,0,0,3,,,,,,,,,,,,,,,2,,,59,0
215520,note_on,0,0,3,,,,,,,,,,,,,,,2,,,64,42
215520,note_on,0,0,3,,,,,,,,,,,,,,,2,,,59,42
215520,note_on,0,0,3,,,,,,,,,,,,,,,2,,,68,42
215520,note_off,0,0,3,,,,,,,,,,,,,,,2,,,68,0
215760,note_off,0,0,3,,,,,,,,,,,,,,,2,,,68,0
215760,note_on,0,0,3,,,,,,,,,,,,,,,2,,,68,42
215760,note_off,480,0,1,,,,,,,,,,,,,,,0,,,80,0
215760,note_on,0,0,1,,,,,,,,,,,,,,,0,,,76,55
215760,note_on,0,0,3,,,,,,,,,,,,,,,2,,,59,42
215760,note_on,0,0,3,,,,,,,,,,,,,,,2,,,64,42
215760,note_off,240,0,3,,,,,,,,,,,,,,,2,,,64,0
215760,note_off,0,0,3,,,,,,,,,,,,,,,2,,,59,0
216000,note_on,0,0,4,,,,,,,,,,,,,,,3,,,47,52
216000,note_off,240,0,3,,,,,,,,,,,,,,,2,,,59,0
216000,note_off,0,0,3,,,,,,,,,,,,,,,2,,,64,0
216000,note_off,240,0,1,,,,,,,,,,,,,,,0,,,76,0
216000,note_off,0,0,3,,,,,,,,,,,,,,,2,,,68,0
216000,note_on,0,0,1,,,,,,,,,,,,,,,0,,,75,59
216000,note_off,960,0,4,,,,,,,,,,,,,,,3,,,52,0
216000,note_on,0,0,3,,,,,,,,,,,,,,,2,,,69,42
216000,note_on,0,0,3,,,,,,,,,,,,,,,2,,,66,42
216000,note_on,0,0,3,,,,,,,,,,,,,,,2,,,59,42
216180,note_off,180,0,1,,,,,,,,,,,,,,,0,,,75,0
216240,note_on,0,0,3,,,,,,,,,,,,,,,2,,,59,42
216240,note_on,0,0,3,,,,,,,,,,,,,,,2,,,69,42
216240,note_off,0,0,3,,,,,,,,,,,,,,,2,,,59,0
216240,note_off,0,0,3,,,,,,,,,,,,,,,2,,,66,0
216240,note_off,240,0,3,,,,,,,,,,,,,,,2,,,69,0
216240,note_on,60,0,1,,,,,,,,,,,,,,,0,,,78,59
216240,note_on,0,0,3,,,,,,,,,,,,,,,2,,,66,42
216360,note_off,120,0,1,,,,,,,,,,,,,,,0,,,78,0
216360,note_on,0,0,1,,,,,,,,,,,,,,,0,,,76,58
216480,note_off,0,0,3,,,,,,,,,,,,,,,2,,,59,0
216480,note_on,0,0,3,,,,,,,,,,,,,,,2,,,66,41
216480,note_on,0,0,3,,,,,,,,,,,,,,,2,,,59,41
216480,note_on,0,0,1,,,,,,,,,,,,,,,0,,,75,57
216480,note_off,120,0,1,,,,,,,,,,,,,,,0,,,76,0
216480,note_off,240,0,3,,,,,,,,,,,,,,,2,,,69,0
216480,note_on,0,0,3,,,,,,,,,,,,,,,2,,,69,41
216480,note_off,0,0,3,,,,,,,,,,,,,,,2,,,66,0
216600,note_on,0,0,1,,,,,,,,,,,,,,,0,,,76,56
216600,note_off,120,0,1,,,,,,,,,,,,,,,0,,,75,0
216720,note_off,0,0,3,,,,,,,,,,,,,,,2,,,59,0
216720,note_off,240,0,3,,,,,,,,,,,,,,,2,,,69,0
216720,note_off,0,0,3,,,,,,,,,,,,,,,2,,,66,0
216720,note_off,120,0,1,,,,,,,,,,,,,,,0,,,76,0
216720,note_on,0,0,1,,,,,,,,,,,,,,,0,,,78,56
216840,note_off,120,0,1,,,,,,,,,,,,,,,0,,,78,0
216840,note_on,0,0,1,,,,,,,,,,,,,,,0,,,75,55
216960,note_on,0,0,4,,,,,,,,,,,,,,,3,,,52,46
216960,note_on,0,0,1,,,,,,,,,,,,,,,0,,,76,52
216960,note_off,960,0,4,,,,,,,,,,,,,,,3,,,47,0
216960,note_off,120,0,1,,,,,,,,,,,,,,,0,,,75,0
217080,note_on,120,0,4,,,,,,,,,,,,,,,3,,,64,47
217200,note_off,0,0,4,,,,,,,,,,,,,,,3,,,64,0
217200,note_off,120,0,4,,,,,,,,,,,,,,,3,,,52,0
217200,note_off,240,0,1,,,,,,,,,,,,,,,0,,,76,0
217200,note_on,0,0,4,,,,,,,,,,,,,,,3,,,62,46
217320,note_off,120,0,4,,,,,,,,,,,,,,,3,,,62,0
217320,note_on,0,0,4,,,,,,,,,,,,,,,3,,,60,45
217440,note_off,120,0,4,,,,,,,,,,,,,,,3,,,60,0
217440,note_on,0,0,4,,,,,,,,,,,,,,,3,,,59,44
217560,note_off,120,0,4,,,,,,,,,,,,,,,3,,,59,0
217560,note_on,0,0,4,,,,,,,,,,,,,,,3,,,57,42
217680,set_tempo,3540,1,0,,,,,,,454545,,,,,,,,,,,,
217680,note_off,120,0,4,,,,,,,,,,,,,,,3,,,57,0
217680,note_on,0,0,4,,,,,,,,,,,,,,,3,,,55,41
217800,set_tempo,120,1,0,,,,,,,465116,,,,,,,,,,,,
217800,note_off,120,0,4,,,,,,,,,,,,,,,3,,,55,0
217800,note_on,0,0,4,,,,,,,,,,,,,,,3,,,54,40
217920,note_on,0,0,2,,,,,,,,,,,,,,,1,,,64,36
217920,control_change,0,0,2,,,,,,,,,,,,,64,0,1,,,,
217920,note_on,7680,0,2,,,,,,,,,,,,,,,1,,,67,36
217920,note_off,120,0,4,,,,,,,,,,,,,,,3,,,54,0
217920,note_on,0,0,4,,,,,,,,,,,,,,,3,,,52,50
217920,control_change,720,0,1,,,,,,,,,,,,,64,0,0,,,,
217970,set_tempo,170,1,0,,,,,,,447761,,,,,,,,,,,,
217980,control_change,60,0,2,,,,,,,,,,,,,64,127,1,,,,
217980,control_change,60,0,1,,,,,,,,,,,,,64,127,0,,,,
218040,note_on,60,0,1,,,,,,,,,,,,,,,0,,,71,36
218040,note_off,60,0,2,,,,,,,,,,,,,,,1,,,67,0
218040,note_off,0,0,2,,,,,,,,,,,,,,,1,,,64,0
218100,note_off,180,0,4,,,,,,,,,,,,,,,3,,,52,0
218160,note_on,120,0,2,,,,,,,,,,,,,,,1,,,67,37
218160,note_on,0,0,2,,,,,,,,,,,,,,,1,,,64,37
218160,note_off,120,0,1,,,,,,,,,,,,,,,0,,,71,0
218160,note_on,60,0,4,,,,,,,,,,,,,,,3,,,55,57
218280,note_on,120,0,1,,,,,,,,,,,,,,,0,,,71,37
218280,note_off,120,0,2,,,,,,,,,,,,,,,1,,,67,0
218280,note_off,0,0,2,,,,,,,,,,,,,,,1,,,64,0
218400,note_on,120,0,2,,,,,,,,,,,,,,,1,,,67,37
218400,note_on,0,0,2,,,,,,,,,,,,,,,1,,,64,37
218400,note_off,120,0,1,,,,,,,,,,,,,,,0,,,71,0
218520,note_on,120,0,1,,,,,,,,,,,,,,,0,,,71,38
218520,note_off,0,0,2,,,,,,,,,,,,,,,1,,,64,0
218520,note_off,120,0,2,,,,,,,,,,,,,,,1,,,67,0
218640,note_on,120,0,2,,,,,,,,,,,,,,,1,,,67,38
218640,note_off,120,0,1,,,,,,,,,,,,,,,0,,,71,0
218640,note_on,0,0,4,,,,,,,,,,,,,,,3,,,54,52
218640,note_off,480,0,4,,,,,,,,,,,,,,,3,,,55,0
218640,note_on,0,0,2,,,,,,,,,,,,,,,1,,,64,38
218760,note_off,0,0,2,,,,,,,,,,,,,,,1,,,64,0
218760,note_on,120,0,1,,,,,,,,,,,,,,,0,,,71,38
218760,note_off,120,0,2,,,,,,,,,,,,,,,1,,,67,0
218880,note_off,120,0,1,,,,,,,,,,,,,,,0,,,71,0
218880,note_on,0,0,2,,,,,,,,,,,,,,,1,,,64,39
218880,note_off,240,0,4,,,,,,,,,,,,,,,3,,,54,0
218880,note_on,120,0,2,,,,,,,,,,,,,,,1,,,67,39
218880,note_on,0,0,4,,,,,,,,,,,,,,,3,,,52,50
219000,note_off,120,0,2,,,,,,,,,,,,,,,1,,,67,0
219000,note_off,0,0,2,,,,,,,,,,,,,,,1,,,64,0
219000,note_on,120,0,1,,,,,,,,,,,,,,,0,,,71,39
219060,note_off,180,0,4,,,,,,,,,,,,,,,3,,,52,0
219120,note_on,0,0,2,,,,,,,,,,,,,,,1,,,64,40
219120,note_on,120,0,2,,,,,,,,,,,,,,,1,,,67,40
219120,note_off,120,0,1,,,,,,,,,,,,,,,0,,,71,0
219120,note_on,60,0,4,,,,,,,,,,,,,,,3,,,55,61
219240,note_off,0,0,2,,,,,,,,,,,,,,,1,,,64,0
219240,note_off,120,0,2,,,,,,,,,,,,,,,1,,,67,0
219240,note_on,120,0,1,,,,,,,,,,,,,,,0,,,71,40
219360,note_off,120,0,1,,,,,,,,,,,,,,,0,,,71,0
219360,note_on,120,0,2,,,,,,,,,,,,,,,1,,,67,40
219360,note_on,0,0,2,,,,,,,,,,,,,,,1,,,64,40
219480,note_on,120,0,1,,,,,,,,,,,,,,,0,,,71,41
219480,note_off,120,0,2,,,,,,,,,,,,,,,1,,,67,0
219480,note_off,0,0,2,,,,,,,,,,,,,,,1,,,64,0
219600,note_on,0,0,2,,,,,,,,,,,,,,,1,,,64,41
219600,note_on,120,0,2,,,,,,,,,,,,,,,1,,,67,41
219600,note_off,480,0,4,,,,,,,,,,,,,,,3,,,55,0
219600,note_on,0,0,4,,,,,,,,,,,,,,,3,,,52,54
219600,note_off,120,0,1,,,,,,,,,,,,,,,0,,,71,0
219720,note_off,0,0,2,,,,,,,,,,,,,,,1,,,64,0
219720,note_on,120,0,1,,,,,,,,,,,,,,,0,,,71,42
219720,note_off,120,0,2,,,,,,,,,,,,,,,1,,,67,0
219840,control_change,120,0,2,,,,,,,,,,,,,64,0,1,,,,
219840,note_on,0,0,2,,,,,,,,,,,,,,,1,,,66,42
219840,note_on,0,0,2,,,,,,,,,,,,,,,1,,,69,42
219840,note_off,0,0,1,,,,,,,,,,,,,,,0,,,71,0
219840,control_change,120,0,1,,,,,,,,,,,,,64,0,0,,,,
219840,note_on,0,0,4,,,,,,,,,,,,,,,3,,,51,52
219840,note_off,240,0,4,,,,,,,,,,,,,,,3,,,52,0
219900,control_change,60,0,2,,,,,,,,,,,,,64,127,1,,,,
219900,control_change,60,0,1,,,,,,,,,,,,,64,127,0,,,,
219960,note_off,0,0,2,,,,,,,,,,,,,,,1,,,66,0
219960,note_off,60,0,2,,,,,,,,,,,,,,,1,,,69,0
219960,note_on,60,0,1,,,,,,,,,,,,,,,0,,,71,42
220020,set_tempo,2050,1,0,,,,,,,454545,,,,,,,,,,,,
220020,note_off,180,0,4,,,,,,,,,,,,,,,3,,,51,0
220080,note_on,0,0,2,,,,,,,,,,,,,,,1,,,66,43
220080,note_on,120,0,2,,,,,,,,,,,,,,,1,,,69,43
220080,note_off,120,0,1,,,,,,,,,,,,,,,0,,,71,0
220080,note_on,60,0,4,,,,,,,,,,,,,,,3,,,59,58
220080,set_tempo,60,1,0,,,,,,,447761,,,,,,,,,,,,
220200,note_on,120,0,1,,,,,,,,,,,,,,,0,,,71,43
220200,note_off,120,0,2,,,,,,,,,,,,,,,1,,,69,0
220200,note_off,0,0,2,,,,,,,,,,,,,,,1,,,66,0
220320,note_on,120,0,2,,,,,,,,,,,,,,,1,,,66,43
220320,note_on,0,0,2,,,,,,,,,,,,,,,1,,,63,43
220320,note_off,120,0,1,,,,,,,,,,,,,,,0,,,71,0
220440,note_on,120,0,1,,,,,,,,,,,,,,,0,,,71,44
220440,note_off,0,0,2,,,,,,,,,,,,,,,1,,,63,0
220440,note_off,120,0,2,,,,,,,,,,,,,,,1,,,66,0
220560,note_on,0,0,4,,,,,,,,,,,,,,,3,,,59,62
220560,note_off,480,0,4,,,,,,,,,,,,,,,3,,,59,0
220560,note_on,120,0,2,,,,,,,,,,,,,,,1,,,66,44
220560,note_on,0,0,2,,,,,,,,,,,,,,,1,,,63,44
220560,note_off,120,0,1,,,,,,,,,,,,,,,0,,,71,0
220680,note_off,0,0,2,,,,,,,,,,,,,,,1,,,63,0
220680,note_off,120,0,2,,,,,,,,,,,,,,,1,,,66,0
220680,note_on,120,0,1,,,,,,,,,,,,,,,0,,,71,45
220800,note_on,120,0,2,,,,,,,,,,,,,,,1,,,66,43
220800,note_on,0,0,2,,,,,,,,,,,,,,,1,,,63,43
220800,note_off,120,0,1,,,,,,,,,,,,,,,0,,,71,0
220920,note_off,120,0,2,,,,,,,,,,,,,,,1,,,66,0
220920,note_off,0,0,2,,,,,,,,,,,,,,,1,,,63,0
220920,note_on,120,0,1,,,,,,,,,,,,,,,0,,,71,43
220979,note_off,419,0,4,,,,,,,,,,,,,,,3,,,59,0
221040,note_off,120,0,1,,,,,,,,,,,,,,,0,,,71,0
221040,note_on,61,0,4,,,,,,,,,,,,,,,3,,,60,62
221040,note_on,120,0,2,,,,,,,,,,,,,,,1,,,66,42
221040,note_on,0,0,2,,,,,,,,,,,,,,,1,,,63,42
221160,note_on,120,0,1,,,,,,,,,,,,,,,0,,,71,42
221160,note_off,120,0,2,,,,,,,,,,,,,,,1,,,66,0
221160,note_off,0,0,2,,,,,,,,,,,,,,,1,,,63,0
221160,note_off,120,0,4,,,,,,,,,,,,,,,3,,,60,0
221160,note_on,0,0,4,,,,,,,,,,,,,,,3,,,59,59
221280,note_on,120,0,2,,,,,,,,,,,,,,,1,,,66,41
221280,note_on,0,0,2,,,,,,,,,,,,,,,1,,,63,41
221280,note_off,120,0,4,,,,,,,,,,,,,,,3,,,59,0
221280,note_on,0,0,4,,,,,,,,,,,,,,,3,,,57,57
221280,note_off,120,0,1,,,,,,,,,,,,,,,0,,,71,0
221400,note_on,0,0,4,,,,,,,,,,,,,,,3,,,55,54
221400,note_off,120,0,4,,,,,,,,,,,,,,,3,,,57,0
221400,note_on,120,0,1,,,,,,,,,,,,,,,0,,,71,40
221400,note_off,120,0,2,,,,,,,,,,,,,,,1,,,66,0
221400,note_off,0,0,2,,,,,,,,,,,,,,,1,,,63,0
221520,note_on,0,0,4,,,,,,,,,,,,,,,3,,,57,52
221520,note_off,120,0,4,,,,,,,,,,,,,,,3,,,55,0
221520,note_off,120,0,1,,,,,,,,,,,,,,,0,,,71,0
221520,note_on,0,0,2,,,,,,,,,,,,,,,1,,,63,40
221520,note_on,120,0,2,,,,,,,,,,,,,,,1,,,66,40
221640,note_off,120,0,4,,,,,,,,,,,,,,,3,,,57,0
221640,note_off,0,0,2,,,,,,,,,,,,,,,1,,,63,0
221640,note_off,120,0,2,,,,,,,,,,,,,,,1,,,66,0
221640,set_tempo,1560,1,0,,,,,,,454545,,,,,,,,,,,,
221640,note_on,120,0,1,,,,,,,,,,,,,,,0,,,71,39
221640,note_on,0,0,4,,,,,,,,,,,,,,,3,,,54,49
221760,note_off,0,0,1,,,,,,,,,,,,,,,0,,,71,0
221760,control_change,120,0,1,,,,,,,,,,,,,64,0,0,,,,
221760,control_change,120,0,2,,,,,,,,,,,,,64,0,1,,,,
221760,note_on,0,0,2,,,,,,,,,,,,,,,1,,,64,40
221760,note_off,120,0,4,,,,,,,,,,,,,,,3,,,54,0
221760,note_on,0,0,4,,,,,,,,,,,,,,,3,,,52,50
221760,note_on,0,0,2,,,,,,,,,,,,,,,1,,,67,40
221760,set_tempo,120,1,0,,,,,,,447761,,,,,,,,,,,,
221820,control_change,60,0,2,,,,,,,,,,,,,64,127,1,,,,
221820,control_change,60,0,1,,,,,,,,,,,,,64,127,0,,,,
221880,note_on,60,0,1,,,,,,,,,,,,,,,0,,,71,41
221880,note_off,0,0,2,,,,,,,,,,,,,,,1,,,64,0
221880,note_off,60,0,2,,,,,,,,,,,,,,,1,,,67,0
221940,note_off,180,0,4,,,,,,,,,,,,,,,3,,,52,0
222000,note_on,60,0,4,,,,,,,,,,,,,,,3,,,55,58
222000,note_on,120,0,2,,,,,,,,,,,,,,,1,,,67,41
222000,note_off,120,0,1,,,,,,,,,,,,,,,0,,,71,0
222000,note_on,0,0,2,,,,,,,,,,,,,,,1,,,64,41
222120,note_off,120,0,2,,,,,,,,,,,,,,,1,,,67,0
222120,note_on,120,0,1,,,,,,,,,,,,,,,0,,,71,42
222120,note_off,0,0,2,,,,,,,,,,,,,,,1,,,64,0
222240,note_off,120,0,1,,,,,,,,,,,,,,,0,,,71,0
222240,note_on,0,0,2,,,,,,,,,,,,,,,1,,,64,43
222240,note_on,120,0,2,,,,,,,,,,,,,,,1,,,67,43
222360,note_on,120,0,1,,,,,,,,,,,,,,,0,,,71,43
222360,note_off,0,0,2,,,,,,,,,,,,,,,1,,,64,0
222360,note_off,120,0,2,,,,,,,,,,,,,,,1,,,67,0
222480,note_on,0,0,2,,,,,,,,,,,,,,,1,,,64,44
222480,note_on,120,0,2,,,,,,,,,,,,,,,1,,,67,44
222480,note_off,120,0,1,,,,,,,,,,,,,,,0,,,71,0
222480,note_off,480,0,4,,,,,,,,,,,,,,,3,,,55,0
222480,note_on,0,0,4,,,,,,,,,,,,,,,3,,,54,55
222600,note_off,0,0,2,,,,,,,,,,,,,,,1,,,64,0
222600,note_off,120,0,2,,,,,,,,,,,,,,,1,,,67,0
222600,note_on,120,0,1,,,,,,,,,,,,,,,0,,,71,45
222720,note_on,120,0,2,,,,,,,,,,,,,,,1,,,67,46
222720,note_on,0,0,2,,,,,,,,,,,,,,,1,,,64,46
222720,note_off,240,0,4,,,,,,,,,,,,,,,3,,,54,0
222720,note_on,0,0,4,,,,,,,,,,,,,,,3,,,52,52
222720,note_off,120,0,1,,,,,,,,,,,,,,,0,,,71,0
222840,note_on,120,0,1,,,,,,,,,,,,,,,0,,,71,46
222840,note_off,120,0,2,,,,,,,,,,,,,,,1,,,67,0
222840,note_off,0,0,2,,,,,,,,,,,,,,,1,,,64,0
222900,note_off,180,0,4,,,,,,,,,,,,,,,3,,,52,0
222960,note_on,60,0,4,,,,,,,,,,,,,,,3,,,55,67
222960,note_off,120,0,1,,,,,,,,,,,,,,,0,,,71,0
222960,note_on,0,0,2,,,,,,,,,,,,,,,1,,,64,47
222960,note_on,120,0,2,,,,,,,,,,,,,,,1,,,67,47
223080,note_off,120,0,2,,,,,,,,,,,,,,,1,,,67,0
223080,note_off,0,0,2,,,,,,,,,,,,,,,1,,,64,0
223080,note_on,120,0,1,,,,,,,,,,,,,,,0,,,71,48
223200,note_on,120,0,2,,,,,,,,,,,,,,,1,,,67,49
223200,note_on,0,0,2,,,,,,,,,,,,,,,1,,,64,49
223200,note_on,0,0,2,,,,,,,,,,,,,,,1,,,70,49
223200,note_off,120,0,1,,,,,,,,,,,,,,,0,,,71,0
223320,note_off,120,0,2,,,,,,,,,,,,,,,1,,,67,0
223320,note_on,120,0,1,,,,,,,,,,,,,,,0,,,73,49
223320,note_off,0,0,2,,,,,,,,,,,,,,,1,,,70,0
223320,note_off,0,0,2,,,,,,,,,,,,,,,1,,,64,0
223440,note_off,120,0,1,,,,,,,,,,,,,,,0,,,73,0
223440,note_off,480,0,4,,,,,,,,,,,,,,,3,,,55,0
223440,note_on,0,0,4,,,,,,,,,,,,,,,3,,,55,62
223440,note_on,0,0,2,,,,,,,,,,,,,,,1,,,70,50
223440,note_on,0,0,2,,,,,,,,,,,,,,,1,,,64,50
223440,note_on,120,0,2,,,,,,,,,,,,,,,1,,,67,50
223560,note_off,0,0,2,,,,,,,,,,,,,,,1,,,64,0
223560,note_on,120,0,1,,,,,,,,,,,,,,,0,,,73,51
223560,note_off,120,0,2,,,,,,,,,,,,,,,1,,,67,0
223560,note_off,0,0,2,,,,,,,,,,,,,,,1,,,70,0
223680,note_off,0,0,1,,,,,,,,,,,,,,,0,,,73,0
223680,note_on,0,0,2,,,,,,,,,,,,,,,1,,,69,52
223680,note_on,0,0,4,,,,,,,,,,,,,,,3,,,54,64
223680,note_off,240,0,4,,,,,,,,,,,,,,,3,,,55,0
223680,control_change,120,0,1,,,,,,,,,,,,,64,0,0,,,,
223680,control_change,120,0,2,,,,,,,,,,,,,64,0,1,,,,
223680,note_on,0,0,2,,,,,,,,,,,,,,,1,,,72,52
223740,control_change,60,0,1,,,,,,,,,,,,,64,127,0,,,,
223740,control_change,60,0,2,,,,,,,,,,,,,64,127,1,,,,
223800,note_on,0,0,4,,,,,,,,,,,,,,,3,,,57,65
223800,note_off,120,0,4,,,,,,,,,,,,,,,3,,,54,0
223800,note_on,60,0,1,,,,,,,,,,,,,,,0,,,74,53
223800,note_off,60,0,2,,,,,,,,,,,,,,,1,,,69,0
223800,note_off,0,0,2,,,,,,,,,,,,,,,1,,,72,0
223920,note_on,0,0,4,,,,,,,,,,,,,,,3,,,55,67
223920,note_off,120,0,4,,,,,,,,,,,,,,,3,,,57,0
223920,note_on,120,0,2,,,,,,,,,,,,,,,1,,,69,54
223920,note_on,0,0,2,,,,,,,,,,,,,,,1,,,72,54
223920,note_off,120,0,1,,,,,,,,,,,,,,,0,,,74,0
224040,note_off,120,0,4,,,,,,,,,,,,,,,3,,,55,0
224040,note_off,120,0,2,,,,,,,,,,,,,,,1,,,69,0
224040,note_on,120,0,1,,,,,,,,,,,,,,,0,,,74,55
224040,note_on,0,0,4,,,,,,,,,,,,,,,3,,,59,69
224040,note_off,0,0,2,,,,,,,,,,,,,,,1,,,72,0
224160,note_off,120,0,4,,,,,,,,,,,,,,,3,,,59,0
224160,note_on,120,0,2,,,,,,,,,,,,,,,1,,,66,56
224160,note_on,0,0,4,,,,,,,,,,,,,,,3,,,57,70
224160,note_on,0,0,2,,,,,,,,,,,,,,,1,,,69,56
224160,note_off,120,0,1,,,,,,,,,,,,,,,0,,,74,0
224280,note_off,120,0,2,,,,,,,,,,,,,,,1,,,66,0
224280,note_off,0,0,2,,,,,,,,,,,,,,,1,,,69,0
224280,note_on,0,0,4,,,,,,,,,,,,,,,3,,,60,72
224280,note_off,120,0,4,,,,,,,,,,,,,,,3,,,57,0
224280,note_on,120,0,1,,,,,,,,,,,,,,,0,,,74,58
224400,note_off,120,0,4,,,,,,,,,,,,,,,3,,,60,0
224400,note_off,120,0,1,,,,,,,,,,,,,,,0,,,74,0
224400,note_on,120,0,2,,,,,,,,,,,,,,,1,,,66,59
224400,note_on,0,0,4,,,,,,,,,,,,,,,3,,,59,73
224400,note_on,0,0,2,,,,,,,,,,,,,,,1,,,69,59
224520,note_on,120,0,1,,,,,,,,,,,,,,,0,,,74,60
224520,note_off,120,0,2,,,,,,,,,,,,,,,1,,,66,0
224520,note_off,0,0,2,,,,,,,,,,,,,,,1,,,69,0
224520,note_on,0,0,4,,,,,,,,,,,,,,,3,,,62,75
224520,note_off,120,0,4,,,,,,,,,,,,,,,3,,,59,0
224640,note_on,120,0,2,,,,,,,,,,,,,,,1,,,66,61
224640,note_off,120,0,1,,,,,,,,,,,,,,,0,,,74,0
224640,note_on,0,0,2,,,,,,,,,,,,,,,1,,,69,61
224640,note_off,120,0,4,,,,,,,,,,,,,,,3,,,62,0
224640,note_on,0,0,4,,,,,,,,,,,,,,,3,,,60,75
224760,note_off,0,0,2,,,,,,,,,,,,,,,1,,,69,0
224760,note_off,120,0,2,,,,,,,,,,,,,,,1,,,66,0
224760,note_on,0,0,4,,,,,,,,,,,,,,,3,,,59,71
224760,note_off,120,0,4,,,,,,,,,,,,,,,3,,,60,0
224760,note_on,120,0,1,,,,,,,,,,,,,,,0,,,74,60
224880,note_off,120,0,4,,,,,,,,,,,,,,,3,,,59,0
224880,note_on,0,0,4,,,,,,,,,,,,,,,3,,,57,68
224880,note_on,0,0,2,,,,,,,,,,,,,,,1,,,69,59
224880,note_on,120,0,2,,,,,,,,,,,,,,,1,,,66,59
224880,note_off,120,0,1,,,,,,,,,,,,,,,0,,,74,0
225000,note_off,120,0,2,,,,,,,,,,,,,,,1,,,66,0
225000,note_on,120,0,1,,,,,,,,,,,,,,,0,,,74,57
225000,note_on,0,0,4,,,,,,,,,,,,,,,3,,,55,64
225000,note_off,0,0,2,,,,,,,,,,,,,,,1,,,69,0
225000,note_off,120,0,4,,,,,,,,,,,,,,,3,,,57,0
225120,note_on,120,0,2,,,,,,,,,,,,,,,1,,,66,56
225120,note_on,0,0,4,,,,,,,,,,,,,,,3,,,54,61
225120,note_on,0,0,2,,,,,,,,,,,,,,,1,,,69,56
225120,note_off,120,0,4,,,,,,,,,,,,,,,3,,,55,0
225120,note_off,120,0,1,,,,,,,,,,,,,,,0,,,74,0
225240,note_on,120,0,1,,,,,,,,,,,,,,,0,,,74,54
225240,note_off,120,0,4,,,,,,,,,,,,,,,3,,,54,0
225240,note_on,0,0,4,,,,,,,,,,,,,,,3,,,52,57
225240,note_off,0,0,2,,,,,,,,,,,,,,,1,,,69,0
225240,note_off,120,0,2,,,,,,,,,,,,,,,1,,,66,0
225360,note_off,120,0,1,,,,,,,,,,,,,,,0,,,74,0
225360,note_off,120,0,4,,,,,,,,,,,,,,,3,,,52,0
225360,note_on,0,0,4,,,,,,,,,,,,,,,3,,,50,53
225360,note_on,0,0,2,,,,,,,,,,,,,,,1,,,69,53
225360,note_on,120,0,2,,,,,,,,,,,,,,,1,,,66,53
225480,set_tempo,3720,1,0,,,,,,,454545,,,,,,,,,,,,
225480,note_off,0,0,2,,,,,,,,,,,,,,,1,,,69,0
225480,note_on,120,0,1,,,,,,,,,,,,,,,0,,,74,51
225480,note_off,120,0,4,,,,,,,,,,,,,,,3,,,50,0
225480,note_on,0,0,4,,,,,,,,,,,,,,,3,,,48,50
225480,note_off,120,0,2,,,,,,,,,,,,,,,1,,,66,0
225600,control_change,120,0,2,,,,,,,,,,,,,64,0,1,,,,
225600,note_on,0,0,2,,,,,,,,,,,,,,,1,,,67,50
225600,control_change,120,0,1,,,,,,,,,,,,,64,0,0,,,,
225600,note_off,0,0,1,,,,,,,,,,,,,,,0,,,74,0
225600,note_on,0,0,1,,,,,,,,,,,,,,,0,,,74,50
225600,note_off,120,0,4,,,,,,,,,,,,,,,3,,,48,0
225600,note_on,0,0,4,,,,,,,,,,,,,,,3,,,47,51
225650,set_tempo,170,1,0,,,,,,,447761,,,,,,,,,,,,
225780,note_off,180,0,2,,,,,,,,,,,,,,,1,,,67,0
225780,note_off,180,0,1,,,,,,,,,,,,,,,0,,,74,0
225840,note_on,60,0,1,,,,,,,,,,,,,,,0,,,83,59
225840,note_on,9120,0,3,,,,,,,,,,,,,,,2,,,55,40
225840,note_on,0,0,3,,,,,,,,,,,,,,,2,,,62,40
225840,note_on,0,0,3,,,,,,,,,,,,,,,2,,,59,40
226080,note_off,0,0,3,,,,,,,,,,,,,,,2,,,62,0
226080,note_off,0,0,3,,,,,,,,,,,,,,,2,,,59,0
226080,note_off,240,0,3,,,,,,,,,,,,,,,2,,,55,0
226080,note_on,0,0,4,,,,,,,,,,,,,,,3,,,43,51
226080,note_off,480,0,4,,,,,,,,,,,,,,,3,,,47,0
226320,note_on,0,0,3,,,,,,,,,,,,,,,2,,,62,42
226320,note_on,0,0,3,,,,,,,,,,,,,,,2,,,59,42
226320,note_on,0,0,1,,,,,,,,,,,,,,,0,,,81,55
226320,note_off,480,0,1,,,,,,,,,,,,,,,0,,,83,0
226320,note_on,240,0,3,,,,,,,,,,,,,,,2,,,55,42
226560,note_off,240,0,1,,,,,,,,,,,,,,,0,,,81,0
226560,note_on,0,0,1,,,,,,,,,,,,,,,0,,,79,54
226560,note_off,0,0,3,,,,,,,,,,,,,,,2,,,62,0
226560,note_off,0,0,3,,,,,,,,,,,,,,,2,,,59,0
226560,note_on,0,0,4,,,,,,,,,,,,,,,3,,,43,52
226560,note_off,480,0,4,,,,,,,,,,,,,,,3,,,43,0
226560,note_off,240,0,3,,,,,,,,,,,,,,,2,,,55,0
226740,note_off,180,0,1,,,,,,,,,,,,,,,0,,,79,0
226800,note_on,0,0,3,,,,,,,,,,,,,,,2,,,62,43
226800,note_on,0,0,3,,,,,,,,,,,,,,,2,,,59,43
226800,note_on,240,0,3,,,,,,,,,,,,,,,2,,,55,43
226800,note_on,60,0,1,,,,,,,,,,,,,,,0,,,83,60
227040,note_off,0,0,3,,,,,,,,,,,,,,,2,,,59,0
227040,note_off,240,0,3,,,,,,,,,,,,,,,2,,,55,0
227040,note_on,0,0,3,,,,,,,,,,,,,,,2,,,59,44
227040,note_off,0,0,3,,,,,,,,,,,,,,,2,,,62,0
227040,note_on,0,0,3,,,,,,,,,,,,,,,2,,,55,44
227040,note_on,0,0,3,,,,,,,,,,,,,,,2,,,62,44
227280,note_off,240,0,3,,,,,,,,,,,,,,,2,,,55,0
227280,note_off,0,0,3,,,,,,,,,,,,,,,2,,,59,0
227280,note_off,0,0,3,,,,,,,,,,,,,,,2,,,62,0
227280,note_on,0,0,3,,,,,,,,,,,,,,,2,,,62,45
227280,note_on,0,0,3,,,,,,,,,,,,,,,2,,,59,45
227280,note_on,0,0,3,,,,,,,,,,,,,,,2,,,55,45
227280,note_off,480,0,1,,,,,,,,,,,,,,,0,,,83,0
227280,note_on,0,0,1,,,,,,,,,,,,,,,0,,,79,58
227520,note_off,0,0,3,,,,,,,,,,,,,,,2,,,62,0
227520,note_off,0,0,3,,,,,,,,,,,,,,,2,,,59,0
227520,note_off,240,0,3,,,,,,,,,,,,,,,2,,,55,0
227520,note_off,240,0,1,,,,,,,,,,,,,,,0,,,79,0
227520,note_on,0,0,4,,,,,,,,,,,,,,,3,,,50,55
227520,note_on,0,0,1,,,,,,,,,,,,,,,0,,,78,57
227520,note_off,960,0,4,,,,,,,,,,,,,,,3,,,43,0
227700,note_off,180,0,1,,,,,,,,,,,,,,,0,,,78,0
227700,set_tempo,2050,1,0,,,,,,,454545,,,,,,,,,,,,
227760,note_on,0,0,3,,,,,,,,,,,,,,,2,,,62,47
227760,note_on,0,0,3,,,,,,,,,,,,,,,2,,,57,47
227760,note_on,240,0,3,,,,,,,,,,,,,,,2,,,60,47
227760,set_tempo,60,1,0,,,,,,,447761,,,,,,,,,,,,
227760,note_on,60,0,1,,,,,,,,,,,,,,,0,,,86,64
228000,note_on,0,0,3,,,,,,,,,,,,,,,2,,,62,47
228000,note_on,0,0,3,,,,,,,,,,,,,,,2,,,60,47
228000,note_off,240,0,3,,,,,,,,,,,,,,,2,,,60,0
228000,note_on,0,0,3,,,,,,,,,,,,,,,2,,,57,47
228000,note_off,0,0,3,,,,,,,,,,,,,,,2,,,57,0
228000,note_off,0,0,3,,,,,,,,,,,,,,,2,,,62,0
228240,note_on,0,0,3,,,,,,,,,,,,,,,2,,,62,48
228240,note_on,0,0,3,,,,,,,,,,,,,,,2,,,57,48
228240,note_on,0,0,3,,,,,,,,,,,,,,,2,,,60,48
228240,note_off,0,0,3,,,,,,,,,,,,,,,2,,,62,0
228240,note_off,0,0,3,,,,,,,,,,,,,,,2,,,57,0
228240,note_off,240,0,3,,,,,,,,,,,,,,,2,,,60,0
228240,note_on,0,0,1,,,,,,,,,,,,,,,0,,,86,68
228240,note_off,480,0,1,,,,,,,,,,,,,,,0,,,86,0
228480,note_on,0,0,4,,,,,,,,,,,,,,,3,,,54,57
228480,note_off,960,0,4,,,,,,,,,,,,,,,3,,,50,0
228480,note_off,0,0,3,,,,,,,,,,,,,,,2,,,62,0
228480,note_off,240,0,3,,,,,,,,,,,,,,,2,,,60,0
228480,note_off,0,0,3,,,,,,,,,,,,,,,2,,,57,0
228720,note_on,0,0,3,,,,,,,,,,,,,,,2,,,62,45
228720,note_on,240,0,3,,,,,,,,,,,,,,,2,,,60,45
228720,note_off,480,0,1,,,,,,,,,,,,,,,0,,,86,0
228720,note_on,0,0,1,,,,,,,,,,,,,,,0,,,88,64
228720,note_on,0,0,3,,,,,,,,,,,,,,,2,,,57,45
228840,note_off,120,0,1,,,,,,,,,,,,,,,0,,,88,0
228840,note_on,0,0,1,,,,,,,,,,,,,,,0,,,86,62
228960,note_off,240,0,3,,,,,,,,,,,,,,,2,,,60,0
228960,note_off,0,0,3,,,,,,,,,,,,,,,2,,,57,0
228960,note_off,0,0,3,,,,,,,,,,,,,,,2,,,62,0
228960,note_off,480,0,4,,,,,,,,,,,,,,,3,,,54,0
228960,note_on,0,0,1,,,,,,,,,,,,,,,0,,,84,61
228960,note_on,0,0,4,,,,,,,,,,,,,,,3,,,50,59
228960,note_off,120,0,1,,,,,,,,,,,,,,,0,,,86,0
229080,note_off,120,0,1,,,,,,,,,,,,,,,0,,,84,0
229080,note_on,0,0,1,,,,,,,,,,,,,,,0,,,83,59
229200,note_off,120,0,1,,,,,,,,,,,,,,,0,,,83,0
229200,note_on,0,0,1,,,,,,,,,,,,,,,0,,,84,58
229200,note_on,240,0,3,,,,,,,,,,,,,,,2,,,60,44
229200,note_on,0,0,3,,,,,,,,,,,,,,,2,,,57,44
229200,note_on,0,0,3,,,,,,,,,,,,,,,2,,,62,44
229320,set_tempo,1560,1,0,,,,,,,454545,,,,,,,,,,,,
229320,note_off,120,0,1,,,,,,,,,,,,,,,0,,,84,0
229320,note_on,0,0,1,,,,,,,,,,,,,,,0,,,81,56
229440,note_off,240,0,3,,,,,,,,,,,,,,,2,,,60,0
229440,note_off,0,0,3,,,,,,,,,,,,,,,2,,,57,0
229440,note_off,0,0,3,,,,,,,,,,,,,,,2,,,62,0
229440,note_off,120,0,1,,,,,,,,,,,,,,,0,,,81,0
229440,note_on,0,0,4,,,,,,,,,,,,,,,3,,,55,60
229440,note_off,480,0,4,,,,,,,,,,,,,,,3,,,50,0
229440,note_on,0,0,1,,,,,,,,,,,,,,,0,,,79,59
229500,set_tempo,180,1,0,,,,,,,447761,,,,,,,,,,,,
229620,note_off,180,0,1,,,,,,,,,,,,,,,0,,,79,0
229680,note_on,0,0,3,,,,,,,,,,,,,,,2,,,62,44
229680,note_on,240,0,3,,,,,,,,,,,,,,,2,,,59,44
229680,note_on,60,0,1,,,,,,,,,,,,,,,0,,,83,61
229920,note_off,0,0,3,,,,,,,,,,,,,,,2,,,62,0
229920,note_off,240,0,3,,,,,,,,,,,,,,,2,,,59,0
229920,note_on,0,0,4,,,,,,,,,,,,,,,3,,,43,57
229920,note_off,480,0,4,,,,,,,,,,,,,,,3,,,55,0
230160,note_on,0,0,3,,,,,,,,,,,,,,,2,,,59,43
230160,note_on,240,0,3,,,,,,,,,,,,,,,2,,,55,43
230160,note_off,480,0,1,,,,,,,,,,,,,,,0,,,83,0
230160,note_on,0,0,1,,,,,,,,,,,,,,,0,,,81,57
230160,note_on,0,0,3,,,,,,,,,,,,,,,2,,,62,43
230400,note_on,0,0,1,,,,,,,,,,,,,,,0,,,79,55
230400,note_off,240,0,3,,,,,,,,,,,,,,,2,,,55,0
230400,note_on,0,0,4,,,,,,,,,,,,,,,3,,,43,54
230400,note_off,480,0,4,,,,,,,,,,,,,,,3,,,43,0
230400,note_off,0,0,3,,,,,,,,,,,,,,,2,,,59,0
230400,note_off,0,0,3,,,,,,,,,,,,,,,2,,,62,0
230400,note_off,240,0,1,,,,,,,,,,,,,,,0,,,81,0
230580,note_off,180,0,1,,,,,,,,,,,,,,,0,,,79,0
230640,note_on,60,0,1,,,,,,,,,,,,,,,0,,,83,58
230640,note_on,0,0,3,,,,,,,,,,,,,,,2,,,62,43
230640,note_on,0,0,3,,,,,,,,,,,,,,,2,,,59,43
230640,note_on,240,0,3,,,,,,,,,,,,,,,2,,,55,43
230880,note_off,0,0,3,,,,,,,,,,,,,,,2,,,62,0
230880,note_on,0,0,3,,,,,,,,,,,,,,,2,,,59,42
230880,note_on,0,0,3,,,,,,,,,,,,,,,2,,,62,42
230880,note_on,0,0,3,,,,,,,,,,,,,,,2,,,55,42
230880,note_off,240,0,3,,,,,,,,,,,,,,,2,,,55,0
230880,note_off,0,0,3,,,,,,,,,,,,,,,2,,,59,0
231120,note_on,0,0,3,,,,,,,,,,,,,,,2,,,59,42
231120,note_on,0,0,1,,,,,,,,,,,,,,,0,,,79,55
231120,note_off,480,0,1,,,,,,,,,,,,,,,0,,,83,0
231120,note_off,240,0,3,,,,,,,,,,,,,,,2,,,55,0
231120,note_off,0,0,3,,,,,,,,,,,,,,,2,,,59,0
231120,note_off,0,0,3,,,,,,,,,,,,,,,2,,,62,0
231120,note_on,0,0,3,,,,,,,,,,,,,,,2,,,55,42
231120,note_on,0,0,3,,,,,,,,,,,,,,,2,,,62,42
231360,note_on,0,0,3,,,,,,,,,,,,,,,2,,,62,42
231360,note_on,0,0,3,,,,,,,,,,,,,,,2,,,57,42
231360,note_on,0,0,3,,,,,,,,,,,,,,,2,,,60,42
231360,note_off,0,0,3,,,,,,,,,,,,,,,2,,,62,0
231360,note_off,0,0,3,,,,,,,,,,,,,,,2,,,59,0
231360,note_off,240,0,3,,,,,,,,,,,,,,,2,,,55,0
231360,note_on,0,0,4,,,,,,,,,,,,,,,3,,,50,47
231360,note_off,240,0,1,,,,,,,,,,,,,,,0,,,79,0
231360,note_on,0,0,1,,,,,,,,,,,,,,,0,,,78,59
231360,note_off,960,0,4,,,,,,,,,,,,,,,3,,,43,0
231540,note_off,180,0,1,,,,,,,,,,,,,,,0,,,78,0
231600,note_on,60,0,1,,,,,,,,,,,,,,,0,,,81,57
231600,note_off,240,0,3,,,,,,,,,,,,,,,2,,,60,0
231600,note_off,0,0,3,,,,,,,,,,,,,,,2,,,57,0
231600,note_off,0,0,3,,,,,,,,,,,,,,,2,,,62,0
231600,note_on,0,0,3,,,,,,,,,,,,,,,2,,,60,42
231600,note_on,0,0,3,,,,,,,,,,,,,,,2,,,57,42
231600,note_on,0,0,3,,,,,,,,,,,,,,,2,,,62,42
231720,note_off,120,0,1,,,,,,,,,,,,,,,0,,,81,0
231720,note_on,0,0,1,,,,,,,,,,,,,,,0,,,79,56
231840,note_on,0,0,1,,,,,,,,,,,,,,,0,,,78,55
231840,note_off,0,0,3,,,,,,,,,,,,,,,2,,,62,0
231840,note_on,0,0,3,,,,,,,,,,,,,,,2,,,60,41
231840,note_on,0,0,3,,,,,,,,,,,,,,,2,,,57,41
231840,note_on,0,0,3,,,,,,,,,,,,,,,2,,,62,41
231840,note_off,120,0,1,,,,,,,,,,,,,,,0,,,79,0
231840,note_off,0,0,3,,,,,,,,,,,,,,,2,,,57,0
231840,note_off,240,0,3,,,,,,,,,,,,,,,2,,,60,0
231960,note_off,120,0,1,,,,,,,,,,,,,,,0,,,78,0
231960,note_on,0,0,1,,,,,,,,,,,,,,,0,,,79,54
232080,note_off,120,0,1,,,,,,,,,,,,,,,0,,,79,0
232080,note_on,0,0,1,,,,,,,,,,,,,,,0,,,81,53
232080,note_off,0,0,3,,,,,,,,,,,,,,,2,,,57,0
232080,note_off,240,0,3,,,,,,,,,,,,,,,2,,,60,0
232080,note_off,0,0,3,,,,,,,,,,,,,,,2,,,62,0
232200,note_off,120,0,1,,,,,,,,,,,,,,,0,,,81,0
232200,note_on,0,0,1,,,,,,,,,,,,,,,0,,,78,52
232320,note_off,960,0,4,,,,,,,,,,,,,,,3,,,50,0
232320,note_on,0,0,4,,,,,,,,,,,,,,,3,,,43,46
232320,note_off,120,0,1,,,,,,,,,,,,,,,0,,,78,0
232320,note_on,0,0,1,,,,,,,,,,,,,,,0,,,79,51
232440,note_on,120,0,4,,,,,,,,,,,,,,,3,,,55,47
232560,note_on,0,0,4,,,,,,,,,,,,,,,3,,,54,46
232560,note_off,0,0,4,,,,,,,,,,,,,,,3,,,55,0
232560,note_off,120,0,4,,,,,,,,,,,,,,,3,,,43,0
232560,note_off,240,0,1,,,,,,,,,,,,,,,0,,,79,0
232680,note_off,120,0,4,,,,,,,,,,,,,,,3,,,54,0
232680,note_on,0,0,4,,,,,,,,,,,,,,,3,,,52,45
232800,note_off,120,0,4,,,,,,,,,,,,,,,3,,,52,0
232800,note_on,0,0,4,,,,,,,,,,,,,,,3,,,50,44
232920,note_off,120,0,4,,,,,,,,,,,,,,,3,,,50,0
232920,note_on,0,0,4,,,,,,,,,,,,,,,3,,,48,43
233040,note_off,120,0,4,,,,,,,,,,,,,,,3,,,48,0
233040,note_on,0,0,4,,,,,,,,,,,,,,,3,,,47,41
233040,set_tempo,3540,1,0,,,,,,,454545,,,,,,,,,,,,
233160,set_tempo,120,1,0,,,,,,,465116,,,,,,,,,,,,
233160,note_off,120,0,4,,,,,,,,,,,,,,,3,,,47,0
233160,note_on,0,0,4,,,,,,,,,,,,,,,3,,,45,40
233280,note_on,0,0,4,,,,,,,,,,,,,,,3,,,43,50
233280,note_on,0,0,2,,,,,,,,,,,,,,,1,,,59,36
233280,note_on,0,0,2,,,,,,,,,,,,,,,1,,,55,36
233280,control_change,7500,0,2,,,,,,,,,,,,,64,0,1,,,,
233280,control_change,720,0,1,,,,,,,,,,,,,64,0,0,,,,
233280,note_off,120,0,4,,,,,,,,,,,,,,,3,,,45,0
233340,control_change,60,0,1,,,,,,,,,,,,,64,127,0,,,,
233340,control_change,60,0,2,,,,,,,,,,,,,64,127,1,,,,
233350,set_tempo,190,1,0,,,,,,,447761,,,,,,,,,,,,
233400,note_on,60,0,1,,,,,,,,,,,,,,,0,,,62,36
233400,note_off,0,0,2,,,,,,,,,,,,,,,1,,,59,0
233400,note_off,60,0,2,,,,,,,,,,,,,,,1,,,55,0
233460,note_off,180,0,4,,,,,,,,,,,,,,,3,,,43,0
233520,note_off,120,0,1,,,,,,,,,,,,,,,0,,,62,0
233520,note_on,0,0,2,,,,,,,,,,,,,,,1,,,59,37
233520,note_on,60,0,4,,,,,,,,,,,,,,,3,,,47,59
233520,note_on,120,0,2,,,,,,,,,,,,,,,1,,,55,37
233640,note_on,120,0,1,,,,,,,,,,,,,,,0,,,62,37
233640,note_off,120,0,2,,,,,,,,,,,,,,,1,,,55,0
233640,note_off,0,0,2,,,,,,,,,,,,,,,1,,,59,0
233760,note_off,120,0,1,,,,,,,,,,,,,,,0,,,62,0
233760,note_on,120,0,2,,,,,,,,,,,,,,,1,,,55,37
233760,note_on,0,0,2,,,,,,,,,,,,,,,1,,,59,37
233880,note_off,120,0,2,,,,,,,,,,,,,,,1,,,55,0
233880,note_on,120,0,1,,,,,,,,,,,,,,,0,,,62,38
233880,note_off,0,0,2,,,,,,,,,,,,,,,1,,,59,0
234000,note_on,0,0,2,,,,,,,,,,,,,,,1,,,59,38
234000,note_on,0,0,4,,,,,,,,,,,,,,,3,,,45,52
234000,note_off,120,0,1,,,,,,,,,,,,,,,0,,,62,0
234000,note_off,480,0,4,,,,,,,,,,,,,,,3,,,47,0
234000,note_on,120,0,2,,,,,,,,,,,,,,,1,,,55,38
234120,note_on,120,0,1,,,,,,,,,,,,,,,0,,,62,38
234120,note_off,0,0,2,,,,,,,,,,,,,,,1,,,59,0
234120,note_off,120,0,2,,,,,,,,,,,,,,,1,,,55,0
234240,note_on,0,0,2,,,,,,,,,,,,,,,1,,,59,39
234240,note_on,120,0,2,,,,,,,,,,,,,,,1,,,55,39
234240,note_off,240,0,4,,,,,,,,,,,,,,,3,,,45,0
234240,note_off,120,0,1,,,,,,,,,,,,,,,0,,,62,0
234240,note_on,0,0,4,,,,,,,,,,,,,,,3,,,43,50
234360,note_on,120,0,1,,,,,,,,,,,,,,,0,,,62,39
234360,note_off,120,0,2,,,,,,,,,,,,,,,1,,,55,0
234360,note_off,0,0,2,,,,,,,,,,,,,,,1,,,59,0
234420,note_off,180,0,4,,,,,,,,,,,,,,,3,,,43,0
234480,note_on,60,0,4,,,,,,,,,,,,,,,3,,,47,60
234480,note_on,120,0,2,,,,,,,,,,,,,,,1,,,55,40
234480,note_on,0,0,2,,,,,,,,,,,,,,,1,,,59,40
234480,note_off,120,0,1,,,,,,,,,,,,,,,0,,,62,0
234600,note_on,120,0,1,,,,,,,,,,,,,,,0,,,62,40
234600,note_off,120,0,2,,,,,,,,,,,,,,,1,,,55,0
234600,note_off,0,0,2,,,,,,,,,,,,,,,1,,,59,0
234720,note_off,120,0,1,,,,,,,,,,,,,,,0,,,62,0
234720,note_on,120,0,2,,,,,,,,,,,,,,,1,,,55,40
234720,note_on,0,0,2,,,,,,,,,,,,,,,1,,,59,40
234840,note_on,120,0,1,,,,,,,,,,,,,,,0,,,62,41
234840,note_off,0,0,2,,,,,,,,,,,,,,,1,,,59,0
234840,note_off,120,0,2,,,,,,,,,,,,,,,1,,,55,0
234960,note_off,120,0,1,,,,,,,,,,,,,,,0,,,62,0
234960,note_on,0,0,2,,,,,,,,,,,,,,,1,,,59,41
234960,note_on,120,0,2,,,,,,,,,,,,,,,1,,,55,41
234960,note_off,480,0,4,,,,,,,,,,,,,,,3,,,47,0
234960,note_on,0,0,4,,,,,,,,,,,,,,,3,,,43,54
235080,note_off,0,0,2,,,,,,,,,,,,,,,1,,,59,0
235080,note_off,120,0,2,,,,,,,,,,,,,,,1,,,55,0
235080,note_on,120,0,1,,,,,,,,,,,,,,,0,,,62,42
235200,note_on,0,0,4,,,,,,,,,,,,,,,3,,,42,52
235200,note_off,240,0,4,,,,,,,,,,,,,,,3,,,43,0
235200,note_off,0,0,1,,,,,,,,,,,,,,,0,,,62,0
235200,note_on,0,0,2,,,,,,,,,,,,,,,1,,,60,42
235200,control_change,120,0,1,,,,,,,,,,,,,64,0,0,,,,
235200,control_change,120,0,2,,,,,,,,,,,,,64,0,1,,,,
235200,note_on,0,0,2,,,,,,,,,,,,,,,1,,,57,42
235260,control_change,60,0,2,,,,,,,,,,,,,64,127,1,,,,
235260,control_change,60,0,1,,,,,,,,,,,,,64,127,0,,,,
235320,note_off,0,0,2,,,,,,,,,,,,,,,1,,,57,0
235320,note_off,60,0,2,,,,,,,,,,,,,,,1,,,60,0
235320,note_on,60,0,1,,,,,,,,,,,,,,,0,,,62,42
235380,set_tempo,2030,1,0,,,,,,,454545,,,,,,,,,,,,
235380,note_off,180,0,4,,,,,,,,,,,,,,,3,,,42,0
235440,set_tempo,60,1,0,,,,,,,447761,,,,,,,,,,,,
235440,note_on,0,0,2,,,,,,,,,,,,,,,1,,,57,43
235440,note_on,120,0,2,,,,,,,,,,,,,,,1,,,60,43
235440,note_off,120,0,1,,,,,,,,,,,,,,,0,,,62,0
235440,note_on,60,0,4,,,,,,,,,,,,,,,3,,,50,61
235560,note_off,0,0,2,,,,,,,,,,,,,,,1,,,57,0
235560,note_on,120,0,1,,,,,,,,,,,,,,,0,,,62,43
235560,note_off,120,0,2,,,,,,,,,,,,,,,1,,,60,0
235680,note_on,120,0,2,,,,,,,,,,,,,,,1,,,57,43
235680,note_on,0,0,2,,,,,,,,,,,,,,,1,,,54,43
235680,note_off,120,0,1,,,,,,,,,,,,,,,0,,,62,0
235800,note_off,0,0,2,,,,,,,,,,,,,,,1,,,54,0
235800,note_on,120,0,1,,,,,,,,,,,,,,,0,,,62,44
235800,note_off,120,0,2,,,,,,,,,,,,,,,1,,,57,0
235920,note_on,120,0,2,,,,,,,,,,,,,,,1,,,57,44
235920,note_off,480,0,4,,,,,,,,,,,,,,,3,,,50,0
235920,note_on,0,0,4,,,,,,,,,,,,,,,3,,,50,67
235920,note_on,0,0,2,,,,,,,,,,,,,,,1,,,54,44
235920,note_off,120,0,1,,,,,,,,,,,,,,,0,,,62,0
236040,note_off,120,0,2,,,,,,,,,,,,,,,1,,,57,0
236040,note_off,0,0,2,,,,,,,,,,,,,,,1,,,54,0
236040,note_on,120,0,1,,,,,,,,,,,,,,,0,,,62,45
236160,note_off,120,0,1,,,,,,,,,,,,,,,0,,,62,0
236160,note_on,0,0,2,,,,,,,,,,,,,,,1,,,54,43
236160,note_on,120,0,2,,,,,,,,,,,,,,,1,,,57,43
236280,note_off,0,0,2,,,,,,,,,,,,,,,1,,,54,0
236280,note_on,120,0,1,,,,,,,,,,,,,,,0,,,62,43
236280,note_off,120,0,2,,,,,,,,,,,,,,,1,,,57,0
236339,note_off,419,0,4,,,,,,,,,,,,,,,3,,,50,0
236400,note_on,120,0,2,,,,,,,,,,,,,,,1,,,57,42
236400,note_on,61,0,4,,,,,,,,,,,,,,,3,,,52,60
236400,note_off,120,0,1,,,,,,,,,,,,,,,0,,,62,0
236400,note_on,0,0,2,,,,,,,,,,,,,,,1,,,54,42
236520,note_off,120,0,2,,,,,,,,,,,,,,,1,,,57,0
236520,note_off,0,0,2,,,,,,,,,,,,,,,1,,,54,0
236520,note_off,120,0,4,,,,,,,,,,,,,,,3,,,52,0
236520,note_on,0,0,4,,,,,,,,,,,,,,,3,,,50,58
236520,note_on,120,0,1,,,,,,,,,,,,,,,0,,,62,42
236640,note_off,120,0,1,,,,,,,,,,,,,,,0,,,62,0
236640,note_off,120,0,4,,,,,,,,,,,,,,,3,,,50,0
236640,note_on,0,0,4,,,,,,,,,,,,,,,3,,,48,56
236640,note_on,120,0,2,,,,,,,,,,,,,,,1,,,57,41
236640,note_on,0,0,2,,,,,,,,,,,,,,,1,,,54,41
236760,note_on,120,0,1,,,,,,,,,,,,,,,0,,,62,40
236760,note_off,120,0,4,,,,,,,,,,,,,,,3,,,48,0
236760,note_on,0,0,4,,,,,,,,,,,,,,,3,,,47,54
236760,note_off,0,0,2,,,,,,,,,,,,,,,1,,,54,0
236760,note_off,120,0,2,,,,,,,,,,,,,,,1,,,57,0
236880,note_on,120,0,2,,,,,,,,,,,,,,,1,,,57,40
236880,note_on,0,0,4,,,,,,,,,,,,,,,3,,,48,52
236880,note_off,120,0,1,,,,,,,,,,,,,,,0,,,62,0
236880,note_off,120,0,4,,,,,,,,,,,,,,,3,,,47,0
236880,note_on,0,0,2,,,,,,,,,,,,,,,1,,,54,40
237000,note_off,120,0,2,,,,,,,,,,,,,,,1,,,57,0
237000,note_off,0,0,2,,,,,,,,,,,,,,,1,,,54,0
237000,note_on,120,0,1,,,,,,,,,,,,,,,0,,,62,40
237000,set_tempo,1560,1,0,,,,,,,454545,,,,,,,,,,,,
237000,note_on,0,0,4,,,,,,,,,,,,,,,3,,,45,50
237000,note_off,120,0,4,,,,,,,,,,,,,,,3,,,48,0
237120,note_on,0,0,4,,,,,,,,,,,,,,,3,,,43,48
237120,note_on,0,0,2,,,,,,,,,,,,,,,1,,,59,40
237120,note_off,0,0,1,,,,,,,,,,,,,,,0,,,62,0
237120,control_change,120,0,1,,,,,,,,,,,,,64,0,0,,,,
237120,set_tempo,120,1,0,,,,,,,447761,,,,,,,,,,,,
237120,note_on,0,0,2,,,,,,,,,,,,,,,1,,,55,40
237120,note_off,120,0,4,,,,,,,,,,,,,,,3,,,45,0
237120,control_change,120,0,2,,,,,,,,,,,,,64,0,1,,,,
237180,control_change,60,0,2,,,,,,,,,,,,,64,127,1,,,,
237180,control_change,60,0,1,,,,,,,,,,,,,64,127,0,,,,
237240,note_off,0,0,2,,,,,,,,,,,,,,,1,,,59,0
237240,note_on,60,0,1,,,,,,,,,,,,,,,0,,,62,41
237240,note_off,60,0,2,,,,,,,,,,,,,,,1,,,55,0
237300,note_off,180,0,4,,,,,,,,,,,,,,,3,,,43,0
237360,note_off,120,0,1,,,,,,,,,,,,,,,0,,,62,0
237360,note_on,60,0,4,,,,,,,,,,,,,,,3,,,47,60
237360,note_on,0,0,2,,,,,,,,,,,,,,,1,,,59,41
237360,note_on,120,0,2,,,,,,,,,,,,,,,1,,,55,41
237480,note_off,0,0,2,,,,,,,,,,,,,,,1,,,59,0
237480,note_off,120,0,2,,,,,,,,,,,,,,,1,,,55,0
237480,note_on,120,0,1,,,,,,,,,,,,,,,0,,,62,42
237600,note_on,0,0,2,,,,,,,,,,,,,,,1,,,62,42
237600,note_on,0,0,2,,,,,,,,,,,,,,,1,,,56,42
237600,control_change,120,0,2,,,,,,,,,,,,,64,0,1,,,,
237600,control_change,120,0,1,,,,,,,,,,,,,64,0,0,,,,
237600,note_off,0,0,1,,,,,,,,,,,,,,,0,,,62,0
237600,control_change,0,0,1,,,,,,,,,,,,,64,0,0,,,,
237600,control_change,0,0,2,,,,,,,,,,,,,64,0,1,,,,
237660,control_change,0,0,1,,,,,,,,,,,,,64,127,0,,,,
237660,control_change,60,0,2,,,,,,,,,,,,,64,127,1,,,,
237660,control_change,0,0,2,,,,,,,,,,,,,64,127,1,,,,
237660,control_change,60,0,1,,,,,,,,,,,,,64,127,0,,,,
237720,note_on,60,0,1,,,,,,,,,,,,,,,0,,,66,43
237720,note_off,0,0,2,,,,,,,,,,,,,,,1,,,62,0
237720,note_off,60,0,2,,,,,,,,,,,,,,,1,,,56,0
237840,note_on,120,0,2,,,,,,,,,,,,,,,1,,,56,43
237840,note_on,0,0,2,,,,,,,,,,,,,,,1,,,62,43
237840,note_on,0,0,4,,,,,,,,,,,,,,,3,,,47,51
237840,note_off,480,0,4,,,,,,,,,,,,,,,3,,,47,0
237840,note_off,120,0,1,,,,,,,,,,,,,,,0,,,66,0
237960,note_off,0,0,2,,,,,,,,,,,,,,,1,,,62,0
237960,note_off,120,0,2,,,,,,,,,,,,,,,1,,,56,0
237960,note_on,120,0,1,,,,,,,,,,,,,,,0,,,66,44
238080,control_change,120,0,2,,,,,,,,,,,,,64,0,1,,,,
238080,control_change,120,0,1,,,,,,,,,,,,,64,0,0,,,,
238080,note_on,0,0,2,,,,,,,,,,,,,,,1,,,61,44
238080,note_off,0,0,1,,,,,,,,,,,,,,,0,,,66,0
238080,note_on,0,0,2,,,,,,,,,,,,,,,1,,,64,44
238080,note_off,240,0,4,,,,,,,,,,,,,,,3,,,47,0
238080,note_on,0,0,4,,,,,,,,,,,,,,,3,,,46,73
238140,control_change,60,0,1,,,,,,,,,,,,,64,127,0,,,,
238140,control_change,60,0,2,,,,,,,,,,,,,64,127,1,,,,
238200,note_off,0,0,2,,,,,,,,,,,,,,,1,,,64,0
238200,note_off,60,0,2,,,,,,,,,,,,,,,1,,,61,0
238200,note_on,60,0,1,,,,,,,,,,,,,,,0,,,66,45
238260,note_off,180,0,4,,,,,,,,,,,,,,,3,,,46,0
238320,note_on,0,0,2,,,,,,,,,,,,,,,1,,,64,45
238320,note_on,120,0,2,,,,,,,,,,,,,,,1,,,61,45
238320,note_off,120,0,1,,,,,,,,,,,,,,,0,,,66,0
238320,note_on,60,0,4,,,,,,,,,,,,,,,3,,,49,70
238440,note_off,120,0,4,,,,,,,,,,,,,,,3,,,49,0
238440,note_on,0,0,4,,,,,,,,,,,,,,,3,,,47,68
238440,note_on,120,0,1,,,,,,,,,,,,,,,0,,,66,46
238440,note_off,0,0,2,,,,,,,,,,,,,,,1,,,64,0
238440,note_off,120,0,2,,,,,,,,,,,,,,,1,,,61,0
238560,note_off,120,0,1,,,,,,,,,,,,,,,0,,,66,0
238560,note_on,120,0,2,,,,,,,,,,,,,,,1,,,61,46
238560,note_on,0,0,4,,,,,,,,,,,,,,,3,,,46,66
238560,note_on,0,0,2,,,,,,,,,,,,,,,1,,,64,46
238560,note_off,120,0,4,,,,,,,,,,,,,,,3,,,47,0
238680,note_on,120,0,1,,,,,,,,,,,,,,,0,,,66,47
238680,note_off,120,0,2,,,,,,,,,,,,,,,1,,,61,0
238680,note_off,0,0,2,,,,,,,,,,,,,,,1,,,64,0
238680,note_off,120,0,4,,,,,,,,,,,,,,,3,,,46,0
238680,note_on,0,0,4,,,,,,,,,,,,,,,3,,,47,64
238800,note_on,0,0,4,,,,,,,,,,,,,,,3,,,49,63
238800,note_off,120,0,4,,,,,,,,,,,,,,,3,,,47,0
238800,note_off,120,0,1,,,,,,,,,,,,,,,0,,,66,0
238800,note_on,0,0,2,,,,,,,,,,,,,,,1,,,64,47
238800,note_on,120,0,2,,,,,,,,,,,,,,,1,,,61,47
238920,note_off,120,0,2,,,,,,,,,,,,,,,1,,,64,0
238920,note_on,0,0,4,,,,,,,,,,,,,,,3,,,46,61
238920,note_off,120,0,4,,,,,,,,,,,,,,,3,,,49,0
238920,set_tempo,1800,1,0,,,,,,,454545,,,,,,,,,,,,
238920,note_on,120,0,1,,,,,,,,,,,,,,,0,,,66,48
238927,note_off,7,0,2,,,,,,,,,,,,,,,1,,,61,0
239040,note_on,0,0,4,,,,,,,,,,,,,,,3,,,47,59
239040,note_off,120,0,4,,,,,,,,,,,,,,,3,,,46,0
239040,note_off,0,0,1,,,,,,,,,,,,,,,0,,,66,0
239040,control_change,120,0,1,,,,,,,,,,,,,64,0,0,,,,
239040,set_tempo,120,1,0,,,,,,,447761,,,,,,,,,,,,
239040,control_change,113,0,2,,,,,,,,,,,,,64,0,1,,,,
239040,note_on,0,0,2,,,,,,,,,,,,,,,1,,,62,49
239040,note_on,0,0,2,,,,,,,,,,,,,,,1,,,59,49
239100,control_change,60,0,1,,,,,,,,,,,,,64,127,0,,,,
239100,control_change,60,0,2,,,,,,,,,,,,,64,127,1,,,,
239160,note_off,60,0,2,,,,,,,,,,,,,,,1,,,62,0
239160,note_off,0,0,2,,,,,,,,,,,,,,,1,,,59,0
239160,note_on,60,0,1,,,,,,,,,,,,,,,0,,,66,49
239220,note_off,180,0,4,,,,,,,,,,,,,,,3,,,47,0
239280,note_on,60,0,4,,,,,,,,,,,,,,,3,,,50,73
239280,note_on,0,0,2,,,,,,,,,,,,,,,1,,,59,50
239280,note_on,120,0,2,,,,,,,,,,,,,,,1,,,62,50
239280,note_off,120,0,1,,,,,,,,,,,,,,,0,,,66,0
239400,note_off,0,0,2,,,,,,,,,,,,,,,1,,,59,0
239400,note_on,120,0,1,,,,,,,,,,,,,,,0,,,66,50
239400,note_off,120,0,2,,,,,,,,,,,,,,,1,,,62,0
239520,control_change,120,0,1,,,,,,,,,,,,,64,0,0,,,,
239520,note_off,0,0,1,,,,,,,,,,,,,,,0,,,66,0
239520,control_change,120,0,2,,,,,,,,,,,,,64,0,1,,,,
239520,note_on,0,0,2,,,,,,,,,,,,,,,1,,,65,51
239520,note_on,0,0,2,,,,,,,,,,,,,,,1,,,59,51
239580,control_change,60,0,1,,,,,,,,,,,,,64,127,0,,,,
239580,control_change,60,0,2,,,,,,,,,,,,,64,127,1,,,,
239640,note_off,0,0,2,,,,,,,,,,,,,,,1,,,59,0
239640,note_off,60,0,2,,,,,,,,,,,,,,,1,,,65,0
239640,note_on,60,0,1,,,,,,,,,,,,,,,0,,,68,51
239760,note_on,120,0,2,,,,,,,,,,,,,,,1,,,65,52
239760,note_off,480,0,4,,,,,,,,,,,,,,,3,,,50,0
239760,note_on,0,0,4,,,,,,,,,,,,,,,3,,,50,67
239760,note_off,120,0,1,,,,,,,,,,,,,,,0,,,68,0
239760,note_on,0,0,2,,,,,,,,,,,,,,,1,,,59,52
239880,note_on,120,0,1,,,,,,,,,,,,,,,0,,,68,52
239880,note_off,0,0,2,,,,,,,,,,,,,,,1,,,59,0
239880,note_off,120,0,2,,,,,,,,,,,,,,,1,,,65,0
240000,note_off,240,0,4,,,,,,,,,,,,,,,3,,,50,0
240000,control_change,120,0,1,,,,,,,,,,,,,64,0,0,,,,
240000,note_off,0,0,1,,,,,,,,,,,,,,,0,,,68,0
240000,note_on,0,0,4,,,,,,,,,,,,,,,3,,,49,83
240000,note_on,0,0,2,,,,,,,,,,,,,,,1,,,67,53
240000,note_on,0,0,2,,,,,,,,,,,,,,,1,,,64,53
240000,control_change,120,0,2,,,,,,,,,,,,,64,0,1,,,,
240060,control_change,60,0,2,,,,,,,,,,,,,64,127,1,,,,
240060,control_change,60,0,1,,,,,,,,,,,,,64,127,0,,,,
240120,note_off,60,0,2,,,,,,,,,,,,,,,1,,,67,0
240120,note_off,0,0,2,,,,,,,,,,,,,,,1,,,64,0
240120,note_on,60,0,1,,,,,,,,,,,,,,,0,,,69,53
240180,note_off,180,0,4,,,,,,,,,,,,,,,3,,,49,0
240240,note_on,120,0,2,,,,,,,,,,,,,,,1,,,67,54
240240,note_on,0,0,2,,,,,,,,,,,,,,,1,,,64,54
240240,note_on,60,0,4,,,,,,,,,,,,,,,3,,,52,80
240240,note_off,120,0,1,,,,,,,,,,,,,,,0,,,69,0
240360,note_on,120,0,1,,,,,,,,,,,,,,,0,,,69,54
240360,note_off,0,0,2,,,,,,,,,,,,,,,1,,,64,0
240360,note_off,120,0,2,,,,,,,,,,,,,,,1,,,67,0
240360,note_off,120,0,4,,,,,,,,,,,,,,,3,,,52,0
240360,note_on,0,0,4,,,,,,,,,,,,,,,3,,,50,79
240480,note_off,120,0,4,,,,,,,,,,,,,,,3,,,50,0
240480,note_on,0,0,4,,,,,,,,,,,,,,,3,,,49,77
240480,note_off,120,0,1,,,,,,,,,,,,,,,0,,,69,0
240480,note_on,0,0,2,,,,,,,,,,,,,,,1,,,64,55
240480,note_on,120,0,2,,,,,,,,,,,,,,,1,,,67,55
240600,note_on,120,0,1,,,,,,,,,,,,,,,0,,,69,55
240600,note_on,0,0,4,,,,,,,,,,,,,,,3,,,50,76
240600,note_off,120,0,2,,,,,,,,,,,,,,,1,,,67,0
240600,note_off,0,0,2,,,,,,,,,,,,,,,1,,,64,0
240600,note_off,120,0,4,,,,,,,,,,,,,,,3,,,49,0
240720,note_on,120,0,2,,,,,,,,,,,,,,,1,,,67,56
240720,note_on,0,0,2,,,,,,,,,,,,,,,1,,,64,56
240720,note_on,0,0,4,,,,,,,,,,,,,,,3,,,52,75
240720,note_off,120,0,1,,,,,,,,,,,,,,,0,,,69,0
240720,note_off,120,0,4,,,,,,,,,,,,,,,3,,,50,0
240840,note_on,120,0,1,,,,,,,,,,,,,,,0,,,69,56
240840,note_on,0,0,4,,,,,,,,,,,,,,,3,,,49,73
240840,note_off,120,0,2,,,,,,,,,,,,,,,1,,,67,0
240840,note_off,0,0,2,,,,,,,,,,,,,,,1,,,64,0
240840,note_off,120,0,4,,,,,,,,,,,,,,,3,,,52,0
240840,set_tempo,1800,1,0,,,,,,,454545,,,,,,,,,,,,
240960,set_tempo,120,1,0,,,,,,,447761,,,,,,,,,,,,
240960,control_change,120,0,2,,,,,,,,,,,,,64,0,1,,,,
240960,note_on,0,0,2,,,,,,,,,,,,,,,1,,,65,57
240960,note_on,0,0,2,,,,,,,,,,,,,,,1,,,62,57
240960,note_off,120,0,4,,,,,,,,,,,,,,,3,,,49,0
240960,note_on,0,0,4,,,,,,,,,,,,,,,3,,,50,72
240960,control_change,120,0,1,,,,,,,,,,,,,64,0,0,,,,
240960,note_off,0,0,1,,,,,,,,,,,,,,,0,,,69,0
241020,control_change,60,0,2,,,,,,,,,,,,,64,127,1,,,,
241020,control_change,60,0,1,,,,,,,,,,,,,64,127,0,,,,
241080,note_on,60,0,1,,,,,,,,,,,,,,,0,,,69,58
241080,note_off,0,0,2,,,,,,,,,,,,,,,1,,,62,0
241080,note_off,60,0,2,,,,,,,,,,,,,,,1,,,65,0
241140,note_off,180,0,4,,,,,,,,,,,,,,,3,,,50,0
241200,note_on,0,0,2,,,,,,,,,,,,,,,1,,,62,58
241200,note_on,120,0,2,,,,,,,,,,,,,,,1,,,65,58
241200,note_on,60,0,4,,,,,,,,,,,,,,,3,,,53,83
241200,note_off,120,0,1,,,,,,,,,,,,,,,0,,,69,0
241320,note_off,0,0,2,,,,,,,,,,,,,,,1,,,62,0
241320,note_off,120,0,2,,,,,,,,,,,,,,,1,,,65,0
241320,note_on,120,0,1,,,,,,,,,,,,,,,0,,,69,59
241440,note_on,120,0,2,,,,,,,,,,,,,,,1,,,65,59
241440,note_on,0,0,2,,,,,,,,,,,,,,,1,,,62,59
241440,note_off,120,0,1,,,,,,,,,,,,,,,0,,,69,0
241560,note_on,120,0,1,,,,,,,,,,,,,,,0,,,69,60
241560,note_off,120,0,2,,,,,,,,,,,,,,,1,,,65,0
241560,note_off,0,0,2,,,,,,,,,,,,,,,1,,,62,0
241680,note_on,120,0,2,,,,,,,,,,,,,,,1,,,65,60
241680,note_off,120,0,1,,,,,,,,,,,,,,,0,,,69,0
241680,note_on,0,0,2,,,,,,,,,,,,,,,1,,,62,60
241680,note_on,0,0,4,,,,,,,,,,,,,,,3,,,53,76
241680,note_off,480,0,4,,,,,,,,,,,,,,,3,,,53,0
241800,note_on,120,0,1,,,,,,,,,,,,,,,0,,,69,61
241800,note_off,120,0,2,,,,,,,,,,,,,,,1,,,65,0
241800,note_off,0,0,2,,,,,,,,,,,,,,,1,,,62,0
241860,set_tempo,900,1,0,,,,,,,454545,,,,,,,,,,,,
241920,note_on,0,0,4,,,,,,,,,,,,,,,3,,,53,73
241920,set_tempo,60,1,0,,,,,,,447761,,,,,,,,,,,,
241920,control_change,120,0,2,,,,,,,,,,,,,64,0,1,,,,
241920,note_on,0,0,2,,,,,,,,,,,,,,,1,,,62,63
241920,control_change,120,0,1,,,,,,,,,,,,,64,0,0,,,,
241920,note_off,0,0,1,,,,,,,,,,,,,,,0,,,69,0
241920,note_off,240,0,4,,,,,,,,,,,,,,,3,,,53,0
241980,control_change,60,0,2,,,,,,,,,,,,,64,127,1,,,,
241980,control_change,60,0,1,,,,,,,,,,,,,64,127,0,,,,
242040,note_off,60,0,2,,,,,,,,,,,,,,,1,,,62,0
242040,note_on,60,0,1,,,,,,,,,,,,,,,0,,,71,65
242160,note_off,240,0,4,,,,,,,,,,,,,,,3,,,53,0
242160,note_on,0,0,4,,,,,,,,,,,,,,,3,,,43,81
242160,note_off,120,0,1,,,,,,,,,,,,,,,0,,,71,0
242160,note_on,120,0,2,,,,,,,,,,,,,,,1,,,67,63
242280,note_off,120,0,2,,,,,,,,,,,,,,,1,,,67,0
242280,note_on,120,0,1,,,,,,,,,,,,,,,0,,,71,64
242400,note_off,0,0,1,,,,,,,,,,,,,,,0,,,71,0
242400,control_change,120,0,1,,,,,,,,,,,,,64,0,0,,,,
242400,note_on,0,0,2,,,,,,,,,,,,,,,1,,,64,62
242400,control_change,120,0,2,,,,,,,,,,,,,64,0,1,,,,
242460,control_change,60,0,1,,,,,,,,,,,,,64,127,0,,,,
242460,control_change,60,0,2,,,,,,,,,,,,,64,127,1,,,,
242520,note_on,60,0,1,,,,,,,,,,,,,,,0,,,72,63
242520,note_off,60,0,2,,,,,,,,,,,,,,,1,,,64,0
242640,note_on,120,0,2,,,,,,,,,,,,,,,1,,,67,61
242640,note_off,480,0,4,,,,,,,,,,,,,,,3,,,43,0
242640,note_on,0,0,4,,,,,,,,,,,,,,,3,,,52,76
242640,note_off,120,0,1,,,,,,,,,,,,,,,0,,,72,0
242760,note_on,120,0,1,,,,,,,,,,,,,,,0,,,72,62
242760,note_off,120,0,2,,,,,,,,,,,,,,,1,,,67,0
242880,note_off,240,0,4,,,,,,,,,,,,,,,3,,,52,0
242880,note_on,0,0,4,,,,,,,,,,,,,,,3,,,52,73
242880,note_on,0,0,2,,,,,,,,,,,,,,,1,,,61,60
242880,control_change,120,0,1,,,,,,,,,,,,,64,0,0,,,,
242880,note_off,0,0,1,,,,,,,,,,,,,,,0,,,72,0
242880,control_change,120,0,2,,,,,,,,,,,,,64,0,1,,,,
242940,control_change,60,0,2,,,,,,,,,,,,,64,127,1,,,,
242940,control_change,60,0,1,,,,,,,,,,,,,64,127,0,,,,
243000,note_off,60,0,2,,,,,,,,,,,,,,,1,,,61,0
243000,note_on,60,0,1,,,,,,,,,,,,,,,0,,,70,61
243120,note_off,240,0,4,,,,,,,,,,,,,,,3,,,52,0
243120,note_on,120,0,2,,,,,,,,,,,,,,,1,,,66,59
243120,note_on,0,0,4,,,,,,,,,,,,,,,3,,,42,77
243120,note_off,120,0,1,,,,,,,,,,,,,,,0,,,70,0
243240,note_on,120,0,1,,,,,,,,,,,,,,,0,,,70,60
243240,note_off,120,0,2,,,,,,,,,,,,,,,1,,,66,0
243360,note_off,0,0,1,,,,,,,,,,,,,,,0,,,70,0
243360,control_change,120,0,1,,,,,,,,,,,,,64,0,0,,,,
243360,control_change,120,0,2,,,,,,,,,,,,,64,0,1,,,,
243360,note_on,0,0,2,,,,,,,,,,,,,,,1,,,62,58
243420,control_change,60,0,2,,,,,,,,,,,,,64,127,1,,,,
243420,control_change,60,0,1,,,,,,,,,,,,,64,127,0,,,,
243480,note_off,60,0,2,,,,,,,,,,,,,,,1,,,62,0
243480,note_on,60,0,1,,,,,,,,,,,,,,,0,,,71,59
243600,note_on,120,0,2,,,,,,,,,,,,,,,1,,,66,57
243600,note_off,480,0,4,,,,,,,,,,,,,,,3,,,42,0
243600,note_on,0,0,4,,,,,,,,,,,,,,,3,,,50,67
243600,note_off,120,0,1,,,,,,,,,,,,,,,0,,,71,0
243720,note_on,120,0,1,,,,,,,,,,,,,,,0,,,71,58
243720,note_off,120,0,2,,,,,,,,,,,,,,,1,,,66,0
243840,note_off,0,0,1,,,,,,,,,,,,,,,0,,,71,0
243840,control_change,120,0,1,,,,,,,,,,,,,64,0,0,,,,
243840,control_change,120,0,2,,,,,,,,,,,,,64,0,1,,,,
243840,note_off,240,0,4,,,,,,,,,,,,,,,3,,,50,0
243840,note_on,0,0,4,,,,,,,,,,,,,,,3,,,50,63
243840,note_on,0,0,2,,,,,,,,,,,,,,,1,,,59,56
243900,control_change,60,0,1,,,,,,,,,,,,,64,127,0,,,,
243900,control_change,60,0,2,,,,,,,,,,,,,64,127,1,,,,
243960,note_on,60,0,1,,,,,,,,,,,,,,,0,,,68,57
243960,note_off,60,0,2,,,,,,,,,,,,,,,1,,,59,0
244080,note_off,240,0,4,,,,,,,,,,,,,,,3,,,50,0
244080,note_on,0,0,4,,,,,,,,,,,,,,,3,,,40,70
244080,note_off,120,0,1,,,,,,,,,,,,,,,0,,,68,0
244080,note_on,120,0,2,,,,,,,,,,,,,,,1,,,64,55
244200,note_on,120,0,1,,,,,,,,,,,,,,,0,,,68,56
244200,note_off,120,0,2,,,,,,,,,,,,,,,1,,,64,0
244320,control_change,120,0,2,,,,,,,,,,,,,64,0,1,,,,
244320,note_on,0,0,2,,,,,,,,,,,,,,,1,,,60,54
244320,control_change,120,0,1,,,,,,,,,,,,,64,0,0,,,,
244320,note_off,0,0,1,,,,,,,,,,,,,,,0,,,68,0
244380,control_change,60,0,2,,,,,,,,,,,,,64,127,1,,,,
244380,control_change,60,0,1,,,,,,,,,,,,,64,127,0,,,,
244440,note_on,60,0,1,,,,,,,,,,,,,,,0,,,69,55
244440,note_off,60,0,2,,,,,,,,,,,,,,,1,,,60,0
244560,note_on,120,0,2,,,,,,,,,,,,,,,1,,,64,53
244560,note_off,120,0,1,,,,,,,,,,,,,,,0,,,69,0
244560,note_off,480,0,4,,,,,,,,,,,,,,,3,,,40,0
244560,note_on,0,0,4,,,,,,,,,,,,,,,3,,,48,65
244680,note_on,120,0,1,,,,,,,,,,,,,,,0,,,69,55
244680,note_off,120,0,2,,,,,,,,,,,,,,,1,,,64,0
244800,note_on,0,0,4,,,,,,,,,,,,,,,3,,,48,64
244800,control_change,120,0,1,,,,,,,,,,,,,64,0,0,,,,
244800,note_off,0,0,1,,,,,,,,,,,,,,,0,,,69,0
244800,control_change,120,0,2,,,,,,,,,,,,,64,0,1,,,,
244800,note_off,240,0,4,,,,,,,,,,,,,,,3,,,48,0
244800,note_on,0,0,2,,,,,,,,,,,,,,,1,,,57,52
244860,control_change,60,0,2,,,,,,,,,,,,,64,127,1,,,,
244860,control_change,60,0,1,,,,,,,,,,,,,64,127,0,,,,
244920,note_on,60,0,1,,,,,,,,,,,,,,,0,,,66,54
244920,note_off,60,0,2,,,,,,,,,,,,,,,1,,,57,0
245040,note_on,240,0,4,,,,,,,,,,,,,,,3,,,38,62
245040,note_off,120,0,1,,,,,,,,,,,,,,,0,,,66,0
245040,note_on,120,0,2,,,,,,,,,,,,,,,1,,,62,51
245160,note_off,120,0,2,,,,,,,,,,,,,,,1,,,62,0
245160,note_on,120,0,1,,,,,,,,,,,,,,,0,,,66,53
245280,control_change,120,0,2,,,,,,,,,,,,,64,0,1,,,,
245280,note_off,0,0,1,,,,,,,,,,,,,,,0,,,66,0
245280,control_change,120,0,1,,,,,,,,,,,,,64,0,0,,,,
245280,note_off,240,0,4,,,,,,,,,,,,,,,3,,,38,0
245280,note_on,0,0,2,,,,,,,,,,,,,,,1,,,55,50
245280,note_on,0,0,4,,,,,,,,,,,,,,,3,,,40,60
245340,control_change,60,0,2,,,,,,,,,,,,,64,127,1,,,,
245340,control_change,60,0,1,,,,,,,,,,,,,64,127,0,,,,
245400,note_on,60,0,1,,,,,,,,,,,,,,,0,,,67,52
245400,note_off,60,0,2,,,,,,,,,,,,,,,1,,,55,0
245520,note_on,0,0,4,,,,,,,,,,,,,,,3,,,47,59
245520,note_off,120,0,1,,,,,,,,,,,,,,,0,,,67,0
245520,note_on,120,0,2,,,,,,,,,,,,,,,1,,,67,49
245520,note_off,240,0,4,,,,,,,,,,,,,,,3,,,48,0
245640,note_on,120,0,1,,,,,,,,,,,,,,,0,,,79,51
245640,note_off,120,0,2,,,,,,,,,,,,,,,1,,,67,0
245700,set_tempo,3780,1,0,,,,,,,454545,,,,,,,,,,,,
245760,control_change,120,0,2,,,,,,,,,,,,,64,0,1,,,,
245760,note_on,0,0,2,,,,,,,,,,,,,,,1,,,64,48
245760,control_change,120,0,1,,,,,,,,,,,,,64,0,0,,,,
245760,note_on,0,0,4,,,,,,,,,,,,,,,3,,,36,62
245760,note_on,0,0,4,,,,,,,,,,,,,,,3,,,47,57
245760,note_off,0,0,4,,,,,,,,,,,,,,,3,,,47,0
245760,note_off,240,0,4,,,,,,,,,,,,,,,3,,,40,0
245760,note_off,0,0,1,,,,,,,,,,,,,,,0,,,79,0
245820,control_change,60,0,2,,,,,,,,,,,,,64,127,1,,,,
245820,control_change,60,0,1,,,,,,,,,,,,,64,127,0,,,,
245880,note_on,60,0,1,,,,,,,,,,,,,,,0,,,76,50
245880,note_off,60,0,2,,,,,,,,,,,,,,,1,,,64,0
246000,note_off,120,0,1,,,,,,,,,,,,,,,0,,,76,0
246000,note_on,0,0,4,,,,,,,,,,,,,,,3,,,45,55
246000,note_off,240,0,4,,,,,,,,,,,,,,,3,,,47,0
246000,note_on,120,0,2,,,,,,,,,,,,,,,1,,,64,47
246120,note_off,120,0,2,,,,,,,,,,,,,,,1,,,64,0
246120,note_on,120,0,1,,,,,,,,,,,,,,,0,,,76,49
246240,control_change,120,0,2,,,,,,,,,,,,,64,0,1,,,,
246240,note_on,0,0,2,,,,,,,,,,,,,,,1,,,57,46
246240,note_on,0,0,4,,,,,,,,,,,,,,,3,,,38,59
246240,note_on,0,0,4,,,,,,,,,,,,,,,3,,,43,54
246240,note_off,0,0,4,,,,,,,,,,,,,,,3,,,45,0
246240,note_off,240,0,4,,,,,,,,,,,,,,,3,,,36,0
246240,note_off,0,0,1,,,,,,,,,,,,,,,0,,,76,0
246240,control_change,120,0,1,,,,,,,,,,,,,64,0,0,,,,
246300,control_change,60,0,2,,,,,,,,,,,,,64,127,1,,,,
246300,control_change,60,0,1,,,,,,,,,,,,,64,127,0,,,,
246360,note_on,60,0,1,,,,,,,,,,,,,,,0,,,69,48
246360,note_off,60,0,2,,,,,,,,,,,,,,,1,,,57,0
246480,note_on,0,0,4,,,,,,,,,,,,,,,3,,,42,52
246480,note_off,240,0,4,,,,,,,,,,,,,,,3,,,43,0
246480,note_on,120,0,2,,,,,,,,,,,,,,,1,,,62,45
246480,control_change,120,0,1,,,,,,,,,,,,,64,0,0,,,,
246480,note_off,0,0,1,,,,,,,,,,,,,,,0,,,69,0
246480,control_change,0,0,2,,,,,,,,,,,,,64,0,1,,,,
246480,set_tempo,780,1,0,,,,,,,461538,,,,,,,,,,,,
246540,control_change,60,0,1,,,,,,,,,,,,,64,127,0,,,,
246540,control_change,60,0,2,,,,,,,,,,,,,64,127,1,,,,
246600,note_on,60,0,1,,,,,,,,,,,,,,,0,,,74,47
246600,set_tempo,120,1,0,,,,,,,480000,,,,,,,,,,,,
246600,note_off,60,0,2,,,,,,,,,,,,,,,1,,,62,0
246720,note_off,0,0,1,,,,,,,,,,,,,,,0,,,74,0
246720,control_change,120,0,1,,,,,,,,,,,,,64,0,0,,,,
246720,note_off,240,0,4,,,,,,,,,,,,,,,3,,,38,0
246720,note_off,0,0,4,,,,,,,,,,,,,,,3,,,42,0
246720,note_on,0,0,4,,,,,,,,,,,,,,,3,,,43,55
246720,note_on,0,0,4,,,,,,,,,,,,,,,3,,,31,55
246720,note_on,0,0,1,,,,,,,,,,,,,,,0,,,67,46
246720,control_change,0,0,2,,,,,,,,,,,,,64,0,1,,,,
246720,note_on,120,0,2,,,,,,,,,,,,,,,1,,,55,44
246790,set_tempo,190,1,0,,,,,,,447761,,,,,,,,,,,,
246900,note_off,180,0,1,,,,,,,,,,,,,,,0,,,67,0
246900,note_off,180,0,2,,,,,,,,,,,,,,,1,,,55,0
246960,note_on,60,0,1,,,,,,,,,,,,,,,0,,,71,51
246960,note_on,0,0,3,,,,,,,,,,,,,,,2,,,59,40
246960,note_on,14880,0,3,,,,,,,,,,,,,,,2,,,55,40
247200,note_on,0,0,3,,,,,,,,,,,,,,,2,,,59,41
247200,note_off,0,0,3,,,,,,,,,,,,,,,2,,,59,0
247200,note_off,240,0,3,,,,,,,,,,,,,,,2,,,55,0
247200,note_on,0,0,3,,,,,,,,,,,,,,,2,,,55,41
247440,note_off,480,0,1,,,,,,,,,,,,,,,0,,,71,0
247440,note_on,0,0,3,,,,,,,,,,,,,,,2,,,59,42
247440,note_on,0,0,3,,,,,,,,,,,,,,,2,,,55,42
247440,note_off,0,0,3,,,,,,,,,,,,,,,2,,,59,0
247440,note_off,240,0,3,,,,,,,,,,,,,,,2,,,55,0
247440,note_on,0,0,1,,,,,,,,,,,,,,,0,,,71,46
247680,note_off,240,0,3,,,,,,,,,,,,,,,2,,,55,0
247680,note_off,960,0,4,,,,,,,,,,,,,,,3,,,43,0
247680,note_off,0,0,3,,,,,,,,,,,,,,,2,,,59,0
247680,note_on,0,0,4,,,,,,,,,,,,,,,3,,,42,55
247680,note_off,240,0,1,,,,,,,,,,,,,,,0,,,71,0
247680,note_on,0,0,1,,,,,,,,,,,,,,,0,,,70,58
247680,note_off,0,0,4,,,,,,,,,,,,,,,3,,,31,0
247815,note_off,135,0,1,,,,,,,,,,,,,,,0,,,70,0
247920,note_on,105,0,1,,,,,,,,,,,,,,,0,,,73,55
247920,note_on,240,0,3,,,,,,,,,,,,,,,2,,,61,44
247920,note_on,0,0,3,,,,,,,,,,,,,,,2,,,58,44
247920,note_on,0,0,3,,,,,,,,,,,,,,,2,,,54,44
248040,note_on,0,0,1,,,,,,,,,,,,,,,0,,,71,54
248040,note_off,120,0,1,,,,,,,,,,,,,,,0,,,73,0
248160,note_on,0,0,3,,,,,,,,,,,,,,,2,,,54,45
248160,note_on,0,0,3,,,,,,,,,,,,,,,2,,,58,45
248160,note_off,0,0,3,,,,,,,,,,,,,,,2,,,58,0
248160,note_off,0,0,3,,,,,,,,,,,,,,,2,,,54,0
248160,note_on,0,0,1,,,,,,,,,,,,,,,0,,,70,53
248160,note_on,0,0,3,,,,,,,,,,,,,,,2,,,61,45
248160,note_off,120,0,1,,,,,,,,,,,,,,,0,,,71,0
248160,note_off,240,0,3,,,,,,,,,,,,,,,2,,,61,0
248280,note_off,120,0,1,,,,,,,,,,,,,,,0,,,70,0
248280,note_on,0,0,1,,,,,,,,,,,,,,,0,,,71,52
248400,note_off,0,0,3,,,,,,,,,,,,,,,2,,,58,0
248400,note_on,0,0,1,,,,,,,,,,,,,,,0,,,73,52
248400,note_off,120,0,1,,,,,,,,,,,,,,,0,,,71,0
248400,note_off,240,0,3,,,,,,,,,,,,,,,2,,,61,0
248400,note_on,0,0,3,,,,,,,,,,,,,,,2,,,54,46
248400,note_on,0,0,3,,,,,,,,,,,,,,,2,,,58,46
248400,note_on,0,0,3,,,,,,,,,,,,,,,2,,,61,46
248400,note_off,0,0,3,,,,,,,,,,,,,,,2,,,54,0
248520,note_on,0,0,1,,,,,,,,,,,,,,,0,,,70,51
248520,note_off,120,0,1,,,,,,,,,,,,,,,0,,,73,0
248520,set_tempo,1730,1,0,,,,,,,454545,,,,,,,,,,,,
248640,note_on,0,0,1,,,,,,,,,,,,,,,0,,,71,50
248640,note_off,120,0,1,,,,,,,,,,,,,,,0,,,70,0
248640,note_off,960,0,4,,,,,,,,,,,,,,,3,,,42,0
248640,note_off,240,0,3,,,,,,,,,,,,,,,2,,,61,0
248640,note_off,0,0,3,,,,,,,,,,,,,,,2,,,58,0
248640,note_off,0,0,3,,,,,,,,,,,,,,,2,,,54,0
248640,note_on,0,0,4,,,,,,,,,,,,,,,3,,,47,58
248690,set_tempo,170,1,0,,,,,,,447761,,,,,,,,,,,,
248820,note_off,180,0,1,,,,,,,,,,,,,,,0,,,71,0
248880,note_on,240,0,3,,,,,,,,,,,,,,,2,,,62,48
248880,note_on,0,0,3,,,,,,,,,,,,,,,2,,,59,48
248880,note_on,60,0,1,,,,,,,,,,,,,,,0,,,74,65
249120,note_on,0,0,3,,,,,,,,,,,,,,,2,,,59,49
249120,note_off,240,0,3,,,,,,,,,,,,,,,2,,,62,0
249120,note_off,0,0,3,,,,,,,,,,,,,,,2,,,59,0
249120,note_on,0,0,3,,,,,,,,,,,,,,,2,,,62,49
249360,note_off,480,0,1,,,,,,,,,,,,,,,0,,,74,0
249360,note_on,0,0,1,,,,,,,,,,,,,,,0,,,74,60
249360,note_on,0,0,3,,,,,,,,,,,,,,,2,,,59,50
249360,note_off,240,0,3,,,,,,,,,,,,,,,2,,,62,0
249360,note_off,0,0,3,,,,,,,,,,,,,,,2,,,59,0
249360,note_on,0,0,3,,,,,,,,,,,,,,,2,,,62,50
249600,note_on,0,0,4,,,,,,,,,,,,,,,3,,,45,61
249600,note_off,960,0,4,,,,,,,,,,,,,,,3,,,47,0
249600,note_off,240,0,1,,,,,,,,,,,,,,,0,,,74,0
249600,note_on,0,0,1,,,,,,,,,,,,,,,0,,,73,70
249600,note_off,240,0,3,,,,,,,,,,,,,,,2,,,62,0
249600,note_off,0,0,3,,,,,,,,,,,,,,,2,,,59,0
249780,note_off,180,0,1,,,,,,,,,,,,,,,0,,,73,0
249840,note_on,0,0,3,,,,,,,,,,,,,,,2,,,57,52
249840,note_on,0,0,3,,,,,,,,,,,,,,,2,,,64,52
249840,note_on,240,0,3,,,,,,,,,,,,,,,2,,,61,52
249840,note_on,60,0,1,,,,,,,,,,,,,,,0,,,76,65
249960,note_off,120,0,1,,,,,,,,,,,,,,,0,,,76,0
249960,note_on,0,0,1,,,,,,,,,,,,,,,0,,,74,64
250080,note_on,0,0,1,,,,,,,,,,,,,,,0,,,73,63
250080,note_off,120,0,1,,,,,,,,,,,,,,,0,,,74,0
250080,note_on,0,0,3,,,,,,,,,,,,,,,2,,,61,53
250080,note_on,0,0,3,,,,,,,,,,,,,,,2,,,57,53
250080,note_off,0,0,3,,,,,,,,,,,,,,,2,,,57,0
250080,note_off,240,0,3,,,,,,,,,,,,,,,2,,,61,0
250080,note_off,0,0,3,,,,,,,,,,,,,,,2,,,64,0
250080,note_on,0,0,3,,,,,,,,,,,,,,,2,,,64,53
250200,note_on,0,0,1,,,,,,,,,,,,,,,0,,,74,62
250200,note_off,120,0,1,,,,,,,,,,,,,,,0,,,73,0
250320,note_on,0,0,3,,,,,,,,,,,,,,,2,,,61,54
250320,note_off,120,0,1,,,,,,,,,,,,,,,0,,,74,0
250320,note_on,0,0,3,,,,,,,,,,,,,,,2,,,57,54
250320,note_on,0,0,1,,,,,,,,,,,,,,,0,,,76,62
250320,note_on,0,0,3,,,,,,,,,,,,,,,2,,,64,54
250320,note_off,240,0,3,,,,,,,,,,,,,,,2,,,61,0
250320,note_off,0,0,3,,,,,,,,,,,,,,,2,,,64,0
250320,note_off,0,0,3,,,,,,,,,,,,,,,2,,,57,0
250440,note_off,120,0,1,,,,,,,,,,,,,,,0,,,76,0
250440,note_on,0,0,1,,,,,,,,,,,,,,,0,,,73,61
250440,set_tempo,1750,1,0,,,,,,,454545,,,,,,,,,,,,
250560,note_off,0,0,3,,,,,,,,,,,,,,,2,,,64,0
250560,note_off,120,0,1,,,,,,,,,,,,,,,0,,,73,0
250560,note_on,0,0,1,,,,,,,,,,,,,,,0,,,74,60
250560,note_on,0,0,4,,,,,,,,,,,,,,,3,,,50,65
250560,note_off,240,0,3,,,,,,,,,,,,,,,2,,,61,0
250560,note_off,0,0,3,,,,,,,,,,,,,,,2,,,57,0
250560,note_off,960,0,4,,,,,,,,,,,,,,,3,,,45,0
250600,set_tempo,160,1,0,,,,,,,447761,,,,,,,,,,,,
250740,note_off,180,0,1,,,,,,,,,,,,,,,0,,,74,0
250800,note_on,240,0,3,,,,,,,,,,,,,,,2,,,65,56
250800,note_on,0,0,3,,,,,,,,,,,,,,,2,,,62,56
250800,note_on,60,0,1,,,,,,,,,,,,,,,0,,,77,71
251040,note_on,0,0,3,,,,,,,,,,,,,,,2,,,62,57
251040,note_on,0,0,3,,,,,,,,,,,,,,,2,,,65,57
251040,note_off,0,0,3,,,,,,,,,,,,,,,2,,,62,0
251040,note_off,240,0,3,,,,,,,,,,,,,,,2,,,65,0
251280,note_off,480,0,1,,,,,,,,,,,,,,,0,,,77,0
251280,note_on,0,0,3,,,,,,,,,,,,,,,2,,,62,58
251280,note_off,240,0,3,,,,,,,,,,,,,,,2,,,65,0
251280,note_off,0,0,3,,,,,,,,,,,,,,,2,,,62,0
251280,note_on,0,0,3,,,,,,,,,,,,,,,2,,,65,58
251280,note_on,0,0,1,,,,,,,,,,,,,,,0,,,77,68
251467,set_tempo,867,1,0,,,,,,,454545,,,,,,,,,,,,
251520,set_tempo,53,1,0,,,,,,,447761,,,,,,,,,,,,
251520,note_off,0,0,3,,,,,,,,,,,,,,,2,,,62,0
251520,note_off,240,0,3,,,,,,,,,,,,,,,2,,,65,0
251520,note_off,240,0,1,,,,,,,,,,,,,,,0,,,77,0
251520,note_off,960,0,4,,,,,,,,,,,,,,,3,,,50,0
251520,note_on,0,0,4,,,,,,,,,,,,,,,3,,,47,68
251520,note_on,0,0,1,,,,,,,,,,,,,,,0,,,77,66
251640,note_on,4740,0,2,,,,,,,,,,,,,,,1,,,67,62
251760,note_off,120,0,2,,,,,,,,,,,,,,,1,,,67,0
251760,note_on,0,0,3,,,,,,,,,,,,,,,2,,,59,60
251760,note_on,0,0,2,,,,,,,,,,,,,,,1,,,66,62
251760,note_on,240,0,3,,,,,,,,,,,,,,,2,,,62,60
251880,note_off,120,0,2,,,,,,,,,,,,,,,1,,,66,0
251880,note_on,0,0,2,,,,,,,,,,,,,,,1,,,67,63
252000,note_off,240,0,3,,,,,,,,,,,,,,,2,,,62,0
252000,note_off,120,0,2,,,,,,,,,,,,,,,1,,,67,0
252000,note_on,0,0,2,,,,,,,,,,,,,,,1,,,67,64
252000,note_on,0,0,4,,,,,,,,,,,,,,,3,,,48,70
252000,note_off,0,0,3,,,,,,,,,,,,,,,2,,,59,0
252000,note_off,480,0,4,,,,,,,,,,,,,,,3,,,47,0
252120,note_on,0,0,1,,,,,,,,,,,,,,,0,,,76,70
252120,note_off,600,0,1,,,,,,,,,,,,,,,0,,,77,0
252240,note_off,120,0,1,,,,,,,,,,,,,,,0,,,76,0
252240,note_on,0,0,1,,,,,,,,,,,,,,,0,,,75,71
252240,note_on,0,0,3,,,,,,,,,,,,,,,2,,,64,62
252240,note_on,240,0,3,,,,,,,,,,,,,,,2,,,60,62
252360,note_on,0,0,1,,,,,,,,,,,,,,,0,,,76,71
252360,note_off,120,0,1,,,,,,,,,,,,,,,0,,,75,0
252470,set_tempo,950,1,0,,,,,,,454545,,,,,,,,,,,,
252480,note_off,0,0,3,,,,,,,,,,,,,,,2,,,64,0
252480,note_off,120,0,1,,,,,,,,,,,,,,,0,,,76,0
252480,note_off,480,0,4,,,,,,,,,,,,,,,3,,,48,0
252480,note_on,0,0,1,,,,,,,,,,,,,,,0,,,76,72
252480,note_off,240,0,3,,,,,,,,,,,,,,,2,,,60,0
252480,set_tempo,10,1,0,,,,,,,447761,,,,,,,,,,,,
252480,note_on,0,0,4,,,,,,,,,,,,,,,3,,,46,71
252600,note_on,0,0,2,,,,,,,,,,,,,,,1,,,66,67
252600,note_off,600,0,2,,,,,,,,,,,,,,,1,,,67,0
252720,note_on,0,0,2,,,,,,,,,,,,,,,1,,,65,68
252720,note_off,120,0,2,,,,,,,,,,,,,,,1,,,66,0
252720,note_on,0,0,3,,,,,,,,,,,,,,,2,,,58,64
252720,note_on,240,0,3,,,,,,,,,,,,,,,2,,,61,64
252840,note_on,0,0,2,,,,,,,,,,,,,,,1,,,66,68
252840,note_off,120,0,2,,,,,,,,,,,,,,,1,,,65,0
252960,note_off,0,0,3,,,,,,,,,,,,,,,2,,,58,0
252960,note_off,240,0,3,,,,,,,,,,,,,,,2,,,61,0
252960,note_off,120,0,2,,,,,,,,,,,,,,,1,,,66,0
252960,note_off,480,0,4,,,,,,,,,,,,,,,3,,,46,0
252960,note_on,0,0,4,,,,,,,,,,,,,,,3,,,47,73
252960,note_on,0,0,2,,,,,,,,,,,,,,,1,,,66,69
253080,note_on,0,0,1,,,,,,,,,,,,,,,0,,,74,75
253080,note_off,600,0,1,,,,,,,,,,,,,,,0,,,76,0
253200,note_off,120,0,1,,,,,,,,,,,,,,,0,,,74,0
253200,note_on,240,0,3,,,,,,,,,,,,,,,2,,,62,66
253200,note_on,0,0,3,,,,,,,,,,,,,,,2,,,59,66
253200,note_on,0,0,1,,,,,,,,,,,,,,,0,,,73,75
253320,note_off,120,0,1,,,,,,,,,,,,,,,0,,,73,0
253320,note_on,0,0,1,,,,,,,,,,,,,,,0,,,74,76
253420,set_tempo,940,1,0,,,,,,,454545,,,,,,,,,,,,
253440,note_on,0,0,4,,,,,,,,,,,,,,,3,,,44,75
253440,note_off,120,0,1,,,,,,,,,,,,,,,0,,,74,0
253440,set_tempo,20,1,0,,,,,,,447761,,,,,,,,,,,,
253440,note_off,0,0,3,,,,,,,,,,,,,,,2,,,59,0
253440,note_off,240,0,3,,,,,,,,,,,,,,,2,,,62,0
253440,note_on,0,0,1,,,,,,,,,,,,,,,0,,,74,76
253440,note_off,480,0,4,,,,,,,,,,,,,,,3,,,47,0
253560,note_on,0,0,2,,,,,,,,,,,,,,,1,,,64,72
253560,note_off,600,0,2,,,,,,,,,,,,,,,1,,,66,0
253680,note_on,0,0,3,,,,,,,,,,,,,,,2,,,59,68
253680,note_on,240,0,3,,,,,,,,,,,,,,,2,,,56,68
253680,note_off,120,0,2,,,,,,,,,,,,,,,1,,,64,0
253680,note_on,0,0,2,,,,,,,,,,,,,,,1,,,63,73
253800,note_off,120,0,2,,,,,,,,,,,,,,,1,,,63,0
253800,note_on,0,0,2,,,,,,,,,,,,,,,1,,,64,74
253920,note_on,0,0,2,,,,,,,,,,,,,,,1,,,64,74
253920,note_off,0,0,3,,,,,,,,,,,,,,,2,,,59,0
253920,note_off,120,0,2,,,,,,,,,,,,,,,1,,,64,0
253920,note_off,240,0,3,,,,,,,,,,,,,,,2,,,56,0
253920,note_on,0,0,4,,,,,,,,,,,,,,,3,,,45,76
253920,note_off,480,0,4,,,,,,,,,,,,,,,3,,,44,0
254040,note_off,600,0,1,,,,,,,,,,,,,,,0,,,74,0
254040,note_on,0,0,1,,,,,,,,,,,,,,,0,,,72,79
254160,note_on,0,0,3,,,,,,,,,,,,,,,2,,,57,70
254160,note_off,120,0,1,,,,,,,,,,,,,,,0,,,72,0
254160,note_on,0,0,1,,,,,,,,,,,,,,,0,,,74,80
254160,note_on,240,0,3,,,,,,,,,,,,,,,2,,,60,70
254280,note_off,120,0,1,,,,,,,,,,,,,,,0,,,74,0
254280,note_on,0,0,1,,,,,,,,,,,,,,,0,,,72,81
254390,set_tempo,950,1,0,,,,,,,454545,,,,,,,,,,,,
254400,note_off,480,0,4,,,,,,,,,,,,,,,3,,,45,0
254400,note_on,0,0,4,,,,,,,,,,,,,,,3,,,42,78
254400,note_off,0,0,3,,,,,,,,,,,,,,,2,,,57,0
254400,note_off,240,0,3,,,,,,,,,,,,,,,2,,,60,0
254400,note_off,480,0,2,,,,,,,,,,,,,,,1,,,64,0
254400,note_on,0,0,2,,,,,,,,,,,,,,,1,,,62,77
254508,note_off,228,0,1,,,,,,,,,,,,,,,0,,,72,0
254520,note_on,12,0,1,,,,,,,,,,,,,,,0,,,72,80
254640,note_off,120,0,1,,,,,,,,,,,,,,,0,,,72,0
254640,note_on,0,0,1,,,,,,,,,,,,,,,0,,,74,80
254640,note_on,0,0,3,,,,,,,,,,,,,,,2,,,54,70
254640,note_on,240,0,3,,,,,,,,,,,,,,,2,,,57,70
254760,note_on,0,0,1,,,,,,,,,,,,,,,0,,,72,79
254760,note_off,120,0,1,,,,,,,,,,,,,,,0,,,74,0
254849,note_off,449,0,2,,,,,,,,,,,,,,,1,,,62,0
254880,note_off,120,0,1,,,,,,,,,,,,,,,0,,,72,0
254880,note_on,0,0,4,,,,,,,,,,,,,,,3,,,43,74
254880,note_off,480,0,4,,,,,,,,,,,,,,,3,,,42,0
254880,note_off,240,0,3,,,,,,,,,,,,,,,2,,,57,0
254880,note_off,0,0,3,,,,,,,,,,,,,,,2,,,54,0
254880,note_on,31,0,2,,,,,,,,,,,,,,,1,,,62,74
255000,note_on,120,0,1,,,,,,,,,,,,,,,0,,,71,77
255120,note_on,0,0,3,,,,,,,,,,,,,,,2,,,59,68
255120,note_on,0,0,1,,,,,,,,,,,,,,,0,,,72,77
255120,note_off,120,0,1,,,,,,,,,,,,,,,0,,,71,0
255120,note_on,240,0,3,,,,,,,,,,,,,,,2,,,55,68
255240,note_on,0,0,1,,,,,,,,,,,,,,,0,,,71,76
255240,note_off,120,0,1,,,,,,,,,,,,,,,0,,,72,0
255320,set_tempo,930,1,0,,,,,,,461538,,,,,,,,,,,,
255329,note_off,449,0,2,,,,,,,,,,,,,,,1,,,62,0
255360,note_off,240,0,3,,,,,,,,,,,,,,,2,,,55,0
255360,note_on,0,0,4,,,,,,,,,,,,,,,3,,,36,72
255360,note_off,480,0,4,,,,,,,,,,,,,,,3,,,43,0
255360,note_on,31,0,2,,,,,,,,,,,,,,,1,,,64,70
255360,note_off,120,0,1,,,,,,,,,,,,,,,0,,,71,0
255360,note_off,0,0,3,,,,,,,,,,,,,,,2,,,59,0
255360,note_on,0,0,2,,,,,,,,,,,,,,,1,,,60,70
255480,note_on,120,0,1,,,,,,,,,,,,,,,0,,,69,74
255600,note_on,240,0,3,,,,,,,,,,,,,,,2,,,48,66
255600,note_off,120,0,1,,,,,,,,,,,,,,,0,,,69,0
255600,note_on,0,0,1,,,,,,,,,,,,,,,0,,,71,74
255720,note_off,120,0,1,,,,,,,,,,,,,,,0,,,71,0
255720,note_on,0,0,1,,,,,,,,,,,,,,,0,,,69,73
255809,note_off,0,0,2,,,,,,,,,,,,,,,1,,,60,0
255809,note_off,449,0,2,,,,,,,,,,,,,,,1,,,64,0
255840,note_off,120,0,1,,,,,,,,,,,,,,,0,,,69,0
255840,note_on,0,0,2,,,,,,,,,,,,,,,1,,,57,67
255840,note_off,480,0,4,,,,,,,,,,,,,,,3,,,36,0
255840,note_on,0,0,4,,,,,,,,,,,,,,,3,,,38,70
255840,note_on,31,0,2,,,,,,,,,,,,,,,1,,,60,67
255840,note_off,240,0,3,,,,,,,,,,,,,,,2,,,48,0
255960,note_on,120,0,1,,,,,,,,,,,,,,,0,,,66,71
256080,note_on,0,0,1,,,,,,,,,,,,,,,0,,,67,70
256080,note_off,120,0,1,,,,,,,,,,,,,,,0,,,66,0
256080,note_on,240,0,3,,,,,,,,,,,,,,,2,,,50,63
256200,note_off,120,0,1,,,,,,,,,,,,,,,0,,,67,0
256200,note_on,0,0,1,,,,,,,,,,,,,,,0,,,66,70
256207,set_tempo,887,1,0,,,,,,,480000,,,,,,,,,,,,
256289,note_off,0,0,2,,,,,,,,,,,,,,,1,,,57,0
256289,note_off,449,0,2,,,,,,,,,,,,,,,1,,,60,0
256320,note_on,0,0,1,,,,,,,,,,,,,,,0,,,67,69
256320,note_off,120,0,1,,,,,,,,,,,,,,,0,,,66,0
256320,note_off,240,0,3,,,,,,,,,,,,,,,2,,,50,0
256320,note_on,0,0,4,,,,,,,,,,,,,,,3,,,43,72
256320,note_off,480,0,4,,,,,,,,,,,,,,,3,,,38,0
256360,set_tempo,153,1,0,,,,,,,461538,,,,,,,,,,,,
256560,note_on,0,0,3,,,,,,,,,,,,,,,2,,,50,43
256560,note_on,0,0,3,,,,,,,,,,,,,,,2,,,59,43
256560,note_on,240,0,3,,,,,,,,,,,,,,,2,,,62,43
256800,note_off,240,0,3,,,,,,,,,,,,,,,2,,,62,0
256800,note_off,0,0,3,,,,,,,,,,,,,,,2,,,50,0
256800,note_off,0,0,3,,,,,,,,,,,,,,,2,,,59,0
256800,note_on,0,0,3,,,,,,,,,,,,,,,2,,,50,46
256800,note_on,0,0,3,,,,,,,,,,,,,,,2,,,59,46
256800,note_off,480,0,1,,,,,,,,,,,,,,,0,,,67,0
256800,note_on,0,0,3,,,,,,,,,,,,,,,2,,,62,46
257040,note_on,0,0,3,,,,,,,,,,,,,,,2,,,59,49
257040,note_on,0,0,3,,,,,,,,,,,,,,,2,,,62,49
257040,note_on,240,0,1,,,,,,,,,,,,,,,0,,,71,52
257040,note_off,240,0,3,,,,,,,,,,,,,,,2,,,62,0
257040,note_on,0,0,3,,,,,,,,,,,,,,,2,,,50,49
257040,note_off,0,0,3,,,,,,,,,,,,,,,2,,,50,0
257040,note_off,0,0,3,,,,,,,,,,,,,,,2,,,59,0
257227,set_tempo,867,1,0,,,,,,,465116,,,,,,,,,,,,
257280,note_on,0,0,4,,,,,,,,,,,,,,,3,,,38,63
257280,note_off,0,0,3,,,,,,,,,,,,,,,2,,,59,0
257280,note_off,0,0,3,,,,,,,,,,,,,,,2,,,62,0
257280,note_off,240,0,3,,,,,,,,,,,,,,,2,,,50,0
257280,note_off,240,0,1,,,,,,,,,,,,,,,0,,,71,0
257280,note_on,0,0,1,,,,,,,,,,,,,,,0,,,69,57
257280,note_off,960,0,4,,,,,,,,,,,,,,,3,,,43,0
257280,set_tempo,53,1,0,,,,,,,461538,,,,,,,,,,,,
257520,note_on,240,0,3,,,,,,,,,,,,,,,2,,,50,51
257520,note_on,0,0,3,,,,,,,,,,,,,,,2,,,62,51
257520,note_on,0,0,3,,,,,,,,,,,,,,,2,,,60,51
257760,note_on,0,0,3,,,,,,,,,,,,,,,2,,,60,48
257760,note_on,0,0,3,,,,,,,,,,,,,,,2,,,50,48
257760,note_on,0,0,3,,,,,,,,,,,,,,,2,,,62,48
257760,note_off,240,0,3,,,,,,,,,,,,,,,2,,,50,0
257760,note_off,0,0,3,,,,,,,,,,,,,,,2,,,62,0
257760,note_off,0,0,3,,,,,,,,,,,,,,,2,,,60,0
258000,note_off,720,0,1,,,,,,,,,,,,,,,0,,,69,0
258000,note_off,0,0,3,,,,,,,,,,,,,,,2,,,50,0
258000,note_off,240,0,3,,,,,,,,,,,,,,,2,,,62,0
258000,note_off,0,0,3,,,,,,,,,,,,,,,2,,,60,0
258000,note_on,0,0,1,,,,,,,,,,,,,,,0,,,66,52
258000,note_on,0,0,3,,,,,,,,,,,,,,,2,,,50,46
258000,note_on,0,0,3,,,,,,,,,,,,,,,2,,,60,46
258000,note_on,0,0,3,,,,,,,,,,,,,,,2,,,62,46
258007,set_tempo,727,1,0,,,,,,,465116,,,,,,,,,,,,
258240,note_off,240,0,1,,,,,,,,,,,,,,,0,,,66,0
258240,note_off,960,0,4,,,,,,,,,,,,,,,3,,,38,0
258240,note_on,0,0,4,,,,,,,,,,,,,,,3,,,43,49
258240,note_on,0,0,1,,,,,,,,,,,,,,,0,,,67,50
258240,set_tempo,233,1,0,,,,,,,461538,,,,,,,,,,,,
258240,note_off,240,0,3,,,,,,,,,,,,,,,2,,,62,0
258240,note_off,0,0,3,,,,,,,,,,,,,,,2,,,50,0
258240,note_off,0,0,3,,,,,,,,,,,,,,,2,,,60,0
258480,note_on,0,0,3,,,,,,,,,,,,,,,2,,,50,45
258480,note_on,0,0,3,,,,,,,,,,,,,,,2,,,58,45
258480,note_on,240,0,3,,,,,,,,,,,,,,,2,,,62,45
258720,note_on,0,0,3,,,,,,,,,,,,,,,2,,,62,46
258720,note_on,0,0,3,,,,,,,,,,,,,,,2,,,50,46
258720,note_off,240,0,3,,,,,,,,,,,,,,,2,,,62,0
258720,note_on,0,0,3,,,,,,,,,,,,,,,2,,,58,46
258720,note_off,0,0,3,,,,,,,,,,,,,,,2,,,50,0
258720,note_off,0,0,3,,,,,,,,,,,,,,,2,,,58,0
258720,note_off,480,0,1,,,,,,,,,,,,,,,0,,,67,0
258960,note_on,0,0,3,,,,,,,,,,,,,,,2,,,50,48
258960,note_on,0,0,3,,,,,,,,,,,,,,,2,,,62,48
258960,note_off,0,0,3,,,,,,,,,,,,,,,2,,,58,0
258960,note_on,0,0,3,,,,,,,,,,,,,,,2,,,58,48
258960,note_off,240,0,3,,,,,,,,,,,,,,,2,,,50,0
258960,note_on,240,0,1,,,,,,,,,,,,,,,0,,,70,50
258960,note_off,0,0,3,,,,,,,,,,,,,,,2,,,62,0
259140,set_tempo,900,1,0,,,,,,,465116,,,,,,,,,,,,
259200,note_on,0,0,4,,,,,,,,,,,,,,,3,,,38,54
259200,note_on,0,0,1,,,,,,,,,,,,,,,0,,,69,53
259200,note_off,960,0,4,,,,,,,,,,,,,,,3,,,43,0
259200,note_off,240,0,1,,,,,,,,,,,,,,,0,,,70,0
259200,note_off,240,0,3,,,,,,,,,,,,,,,2,,,62,0
259200,note_off,0,0,3,,,,,,,,,,,,,,,2,,,58,0
259200,note_off,0,0,3,,,,,,,,,,,,,,,2,,,50,0
259200,set_tempo,60,1,0,,,,,,,461538,,,,,,,,,,,,
259440,note_on,240,0,3,,,,,,,,,,,,,,,2,,,62,45
259440,note_on,0,0,3,,,,,,,,,,,,,,,2,,,60,45
259440,note_on,0,0,3,,,,,,,,,,,,,,,2,,,50,45
259680,note_off,0,0,3,,,,,,,,,,,,,,,2,,,50,0
259680,note_off,0,0,3,,,,,,,,,,,,,,,2,,,60,0
259680,note_on,0,0,3,,,,,,,,,,,,,,,2,,,62,41
259680,note_on,0,0,3,,,,,,,,,,,,,,,2,,,50,41
259680,note_off,240,0,3,,,,,,,,,,,,,,,2,,,62,0
259680,note_on,0,0,3,,,,,,,,,,,,,,,2,,,60,41
259920,note_on,0,0,1,,,,,,,,,,,,,,,0,,,66,48
259920,note_off,720,0,1,,,,,,,,,,,,,,,0,,,69,0
259920,note_on,0,0,3,,,,,,,,,,,,,,,2,,,62,37
259920,note_on,0,0,3,,,,,,,,,,,,,,,2,,,60,37
259920,note_on,0,0,3,,,,,,,,,,,,,,,2,,,50,37
259920,note_off,240,0,3,,,,,,,,,,,,,,,2,,,50,0
259920,note_off,0,0,3,,,,,,,,,,,,,,,2,,,62,0
259920,note_off,0,0,3,,,,,,,,,,,,,,,2,,,60,0
259927,set_tempo,727,1,0,,,,,,,465116,,,,,,,,,,,,
260160,note_off,960,0,4,,,,,,,,,,,,,,,3,,,38,0
260160,note_on,0,0,4,,,,,,,,,,,,,,,3,,,43,45
260160,set_tempo,233,1,0,,,,,,,461538,,,,,,,,,,,,
260160,note_on,0,0,1,,,,,,,,,,,,,,,0,,,67,45
260160,note_off,0,0,3,,,,,,,,,,,,,,,2,,,60,0
260160,note_off,0,0,3,,,,,,,,,,,,,,,2,,,62,0
260160,note_off,240,0,3,,,,,,,,,,,,,,,2,,,50,0
260160,note_off,240,0,1,,,,,,,,,,,,,,,0,,,66,0
260400,note_on,240,0,3,,,,,,,,,,,,,,,2,,,62,29
260400,note_on,0,0,3,,,,,,,,,,,,,,,2,,,50,29
260400,note_on,0,0,3,,,,,,,,,,,,,,,2,,,59,29
260640,note_on,0,0,3,,,,,,,,,,,,,,,2,,,62,31
260640,note_on,0,0,3,,,,,,,,,,,,,,,2,,,59,31
260640,note_on,0,0,3,,,,,,,,,,,,,,,2,,,50,31
260640,note_off,240,0,3,,,,,,,,,,,,,,,2,,,62,0
260640,note_off,0,0,3,,,,,,,,,,,,,,,2,,,50,0
260640,note_off,0,0,3,,,,,,,,,,,,,,,2,,,59,0
260640,note_off,480,0,1,,,,,,,,,,,,,,,0,,,67,0
260880,note_on,240,0,1,,,,,,,,,,,,,,,0,,,71,37
260880,note_off,0,0,3,,,,,,,,,,,,,,,2,,,59,0
260880,note_on,0,0,3,,,,,,,,,,,,,,,2,,,62,34
260880,note_on,0,0,3,,,,,,,,,,,,,,,2,,,50,34
260880,note_on,0,0,3,,,,,,,,,,,,,,,2,,,59,34
260880,note_off,0,0,3,,,,,,,,,,,,,,,2,,,50,0
260880,note_off,240,0,3,,,,,,,,,,,,,,,2,,,62,0
261060,set_tempo,900,1,0,,,,,,,465116,,,,,,,,,,,,
261120,note_off,960,0,4,,,,,,,,,,,,,,,3,,,43,0
261120,note_off,240,0,1,,,,,,,,,,,,,,,0,,,71,0
261120,note_on,0,0,1,,,,,,,,,,,,,,,0,,,69,41
261120,set_tempo,60,1,0,,,,,,,461538,,,,,,,,,,,,
261120,note_off,0,0,3,,,,,,,,,,,,,,,2,,,59,0
261120,note_off,0,0,3,,,,,,,,,,,,,,,2,,,50,0
261120,note_off,240,0,3,,,,,,,,,,,,,,,2,,,62,0
261120,note_on,0,0,4,,,,,,,,,,,,,,,3,,,38,42
261360,note_on,0,0,3,,,,,,,,,,,,,,,2,,,50,36
261360,note_on,0,0,3,,,,,,,,,,,,,,,2,,,60,36
261360,note_on,240,0,3,,,,,,,,,,,,,,,2,,,62,36
261600,note_on,0,0,3,,,,,,,,,,,,,,,2,,,62,34
261600,note_on,0,0,3,,,,,,,,,,,,,,,2,,,60,34
261600,note_on,0,0,3,,,,,,,,,,,,,,,2,,,50,34
261600,note_off,0,0,3,,,,,,,,,,,,,,,2,,,60,0
261600,note_off,240,0,3,,,,,,,,,,,,,,,2,,,62,0
261600,note_off,0,0,3,,,,,,,,,,,,,,,2,,,50,0
261840,note_on,0,0,3,,,,,,,,,,,,,,,2,,,60,33
261840,note_on,0,0,3,,,,,,,,,,,,,,,2,,,50,33
261840,note_off,720,0,1,,,,,,,,,,,,,,,0,,,69,0
261840,note_on,0,0,1,,,,,,,,,,,,,,,0,,,66,41
261840,note_on,0,0,3,,,,,,,,,,,,,,,2,,,62,33
261840,note_off,240,0,3,,,,,,,,,,,,,,,2,,,50,0
261840,note_off,0,0,3,,,,,,,,,,,,,,,2,,,60,0
261840,note_off,0,0,3,,,,,,,,,,,,,,,2,,,62,0
261862,set_tempo,742,1,0,,,,,,,465116,,,,,,,,,,,,
262080,note_off,0,0,3,,,,,,,,,,,,,,,2,,,60,0
262080,note_off,0,0,3,,,,,,,,,,,,,,,2,,,50,0
262080,note_off,240,0,3,,,,,,,,,,,,,,,2,,,62,0
262080,note_on,0,0,3,,,,,,,,,,,,,,,2,,,59,37
262080,set_tempo,218,1,0,,,,,,,461538,,,,,,,,,,,,
262080,note_on,0,0,3,,,,,,,,,,,,,,,2,,,50,37
262080,note_on,0,0,3,,,,,,,,,,,,,,,2,,,62,37
262080,note_on,0,0,4,,,,,,,,,,,,,,,3,,,43,42
262080,note_off,960,0,4,,,,,,,,,,,,,,,3,,,38,0
262080,note_on,0,0,1,,,,,,,,,,,,,,,0,,,67,42
262080,note_off,240,0,1,,,,,,,,,,,,,,,0,,,66,0
262236,note_off,156,0,1,,,,,,,,,,,,,,,0,,,67,0
262320,note_off,240,0,4,,,,,,,,,,,,,,,3,,,43,0
262320,note_on,84,0,1,,,,,,,,,,,,,,,0,,,71,44
262320,note_off,240,0,3,,,,,,,,,,,,,,,2,,,50,0
262320,note_off,0,0,3,,,,,,,,,,,,,,,2,,,62,0
262320,note_on,0,0,3,,,,,,,,,,,,,,,2,,,62,39
262320,note_off,0,0,3,,,,,,,,,,,,,,,2,,,59,0
262320,note_on,0,0,3,,,,,,,,,,,,,,,2,,,50,39
262320,note_on,0,0,3,,,,,,,,,,,,,,,2,,,59,39
262476,note_off,156,0,1,,,,,,,,,,,,,,,0,,,71,0
262560,note_off,240,0,3,,,,,,,,,,,,,,,2,,,50,0
262560,note_on,0,0,3,,,,,,,,,,,,,,,2,,,62,40
262560,note_on,0,0,3,,,,,,,,,,,,,,,2,,,50,40
262560,note_off,0,0,3,,,,,,,,,,,,,,,2,,,59,0
262560,note_off,0,0,3,,,,,,,,,,,,,,,2,,,62,0
262560,note_on,84,0,1,,,,,,,,,,,,,,,0,,,69,45
262560,note_on,240,0,4,,,,,,,,,,,,,,,3,,,38,45
262560,note_on,0,0,3,,,,,,,,,,,,,,,2,,,60,40
262716,note_off,156,0,1,,,,,,,,,,,,,,,0,,,69,0
262800,note_off,240,0,3,,,,,,,,,,,,,,,2,,,50,0
262800,note_off,240,0,4,,,,,,,,,,,,,,,3,,,38,0
262800,note_on,0,0,3,,,,,,,,,,,,,,,2,,,50,42
262800,note_on,84,0,1,,,,,,,,,,,,,,,0,,,66,47
262800,note_on,0,0,3,,,,,,,,,,,,,,,2,,,62,42
262800,note_off,0,0,3,,,,,,,,,,,,,,,2,,,62,0
262800,note_on,0,0,3,,,,,,,,,,,,,,,2,,,60,42
262800,note_off,0,0,3,,,,,,,,,,,,,,,2,,,60,0
262956,note_off,156,0,1,,,,,,,,,,,,,,,0,,,66,0
263040,note_on,0,0,3,,,,,,,,,,,,,,,2,,,62,43
263040,note_on,84,0,1,,,,,,,,,,,,,,,0,,,67,48
263040,note_on,240,0,4,,,,,,,,,,,,,,,3,,,43,48
263040,note_off,240,0,3,,,,,,,,,,,,,,,2,,,60,0
263040,note_off,0,0,3,,,,,,,,,,,,,,,2,,,62,0
263040,note_on,0,0,3,,,,,,,,,,,,,,,2,,,50,43
263040,note_on,0,0,3,,,,,,,,,,,,,,,2,,,59,43
263040,note_off,0,0,3,,,,,,,,,,,,,,,2,,,50,0
263196,note_off,156,0,3,,,,,,,,,,,,,,,2,,,50,0
263196,note_off,156,0,1,,,,,,,,,,,,,,,0,,,67,0
263196,note_off,0,0,3,,,,,,,,,,,,,,,2,,,62,0
263196,note_off,0,0,3,,,,,,,,,,,,,,,2,,,59,0
263280,note_off,240,0,4,,,,,,,,,,,,,,,3,,,43,0
263280,note_on,84,0,1,,,,,,,,,,,,,,,0,,,71,50
263280,note_on,0,0,3,,,,,,,,,,,,,,,2,,,59,45
263280,note_on,0,0,3,,,,,,,,,,,,,,,2,,,62,45
263280,note_on,84,0,3,,,,,,,,,,,,,,,2,,,50,45
263436,note_off,0,0,3,,,,,,,,,,,,,,,2,,,62,0
263436,note_off,156,0,1,,,,,,,,,,,,,,,0,,,71,0
263436,note_off,0,0,3,,,,,,,,,,,,,,,2,,,59,0
263436,note_off,156,0,3,,,,,,,,,,,,,,,2,,,50,0
263520,note_on,240,0,4,,,,,,,,,,,,,,,3,,,38,52
263520,note_on,84,0,1,,,,,,,,,,,,,,,0,,,69,51
263520,note_on,0,0,3,,,,,,,,,,,,,,,2,,,62,47
263520,note_on,0,0,3,,,,,,,,,,,,,,,2,,,60,47
263520,note_on,84,0,3,,,,,,,,,,,,,,,2,,,50,47
263676,note_off,156,0,1,,,,,,,,,,,,,,,0,,,69,0
263676,note_off,0,0,3,,,,,,,,,,,,,,,2,,,62,0
263676,note_off,156,0,3,,,,,,,,,,,,,,,2,,,50,0
263676,note_off,0,0,3,,,,,,,,,,,,,,,2,,,60,0
263760,note_on,84,0,3,,,,,,,,,,,,,,,2,,,60,48
263760,note_on,0,0,3,,,,,,,,,,,,,,,2,,,62,48
263760,note_on,84,0,1,,,,,,,,,,,,,,,0,,,66,53
263760,note_off,240,0,4,,,,,,,,,,,,,,,3,,,38,0
263760,note_on,0,0,3,,,,,,,,,,,,,,,2,,,50,48
263916,note_off,156,0,1,,,,,,,,,,,,,,,0,,,66,0
263916,note_off,0,0,3,,,,,,,,,,,,,,,2,,,50,0
263916,note_off,0,0,3,,,,,,,,,,,,,,,2,,,62,0
263916,note_off,156,0,3,,,,,,,,,,,,,,,2,,,60,0
264000,note_on,0,0,3,,,,,,,,,,,,,,,2,,,59,50
264000,note_on,240,0,4,,,,,,,,,,,,,,,3,,,43,55
264000,note_on,84,0,1,,,,,,,,,,,,,,,0,,,67,55
264000,note_on,0,0,3,,,,,,,,,,,,,,,2,,,50,50
264000,note_on,84,0,3,,,,,,,,,,,,,,,2,,,62,50
264156,note_off,0,0,3,,,,,,,,,,,,,,,2,,,50,0
264156,note_off,0,0,3,,,,,,,,,,,,,,,2,,,59,0
264156,note_off,156,0,1,,,,,,,,,,,,,,,0,,,67,0
264156,note_off,156,0,3,,,,,,,,,,,,,,,2,,,62,0
264240,note_on,84,0,1,,,,,,,,,,,,,,,0,,,71,56
264240,note_on,84,0,3,,,,,,,,,,,,,,,2,,,62,51
264240,note_on,0,0,3,,,,,,,,,,,,,,,2,,,50,51
264240,note_on,0,0,3,,,,,,,,,,,,,,,2,,,59,51
264396,note_off,156,0,3,,,,,,,,,,,,,,,2,,,62,0
264396,note_off,156,0,1,,,,,,,,,,,,,,,0,,,71,0
264396,note_off,0,0,3,,,,,,,,,,,,,,,2,,,50,0
264396,note_off,0,0,3,,,,,,,,,,,,,,,2,,,59,0
264480,note_on,84,0,1,,,,,,,,,,,,,,,0,,,69,58
264480,note_on,0,0,4,,,,,,,,,,,,,,,3,,,38,58
264480,note_off,480,0,4,,,,,,,,,,,,,,,3,,,43,0
264480,note_on,0,0,3,,,,,,,,,,,,,,,2,,,60,53
264480,note_on,0,0,3,,,,,,,,,,,,,,,2,,,50,53
264480,note_on,84,0,3,,,,,,,,,,,,,,,2,,,62,53
264636,note_off,0,0,3,,,,,,,,,,,,,,,2,,,60,0
264636,note_off,0,0,3,,,,,,,,,,,,,,,2,,,50,0
264636,note_off,156,0,1,,,,,,,,,,,,,,,0,,,69,0
264636,note_off,156,0,3,,,,,,,,,,,,,,,2,,,62,0
264720,note_on,84,0,1,,,,,,,,,,,,,,,0,,,66,59
264720,note_on,84,0,3,,,,,,,,,,,,,,,2,,,50,55
264720,note_on,0,0,3,,,,,,,,,,,,,,,2,,,62,55
264720,note_on,0,0,3,,,,,,,,,,,,,,,2,,,60,55
264876,note_off,0,0,3,,,,,,,,,,,,,,,2,,,60,0
264876,note_off,0,0,3,,,,,,,,,,,,,,,2,,,62,0
264876,note_off,156,0,1,,,,,,,,,,,,,,,0,,,66,0
264876,note_off,156,0,3,,,,,,,,,,,,,,,2,,,50,0
264960,note_off,480,0,4,,,,,,,,,,,,,,,3,,,38,0
264960,note_on,0,0,4,,,,,,,,,,,,,,,3,,,43,61
264960,set_tempo,2880,1,0,,,,,,,454545,,,,,,,,,,,,
264960,note_on,84,0,3,,,,,,,,,,,,,,,2,,,62,56
264960,note_on,0,0,3,,,,,,,,,,,,,,,2,,,50,56
264960,note_on,0,0,3,,,,,,,,,,,,,,,2,,,59,56
264960,note_on,84,0,1,,,,,,,,,,,,,,,0,,,67,61
265116,note_off,156,0,1,,,,,,,,,,,,,,,0,,,67,0
265116,note_off,156,0,3,,,,,,,,,,,,,,,2,,,62,0
265116,note_off,0,0,3,,,,,,,,,,,,,,,2,,,50,0
265116,note_off,0,0,3,,,,,,,,,,,,,,,2,,,59,0
265200,note_on,84,0,1,,,,,,,,,,,,,,,0,,,71,62
265200,note_on,0,0,3,,,,,,,,,,,,,,,2,,,59,58
265200,note_on,84,0,3,,,,,,,,,,,,,,,2,,,62,58
265200,note_on,0,0,3,,,,,,,,,,,,,,,2,,,50,58
265356,note_off,0,0,3,,,,,,,,,,,,,,,2,,,59,0
265356,note_off,0,0,3,,,,,,,,,,,,,,,2,,,50,0
265356,note_off,156,0,3,,,,,,,,,,,,,,,2,,,62,0
265356,note_off,156,0,1,,,,,,,,,,,,,,,0,,,71,0
265440,note_off,480,0,4,,,,,,,,,,,,,,,3,,,43,0
265440,note_on,0,0,3,,,,,,,,,,,,,,,2,,,60,59
265440,note_on,0,0,3,,,,,,,,,,,,,,,2,,,62,59
265440,note_on,84,0,3,,,,,,,,,,,,,,,2,,,50,59
265440,note_on,0,0,4,,,,,,,,,,,,,,,3,,,38,64
265440,note_on,84,0,1,,,,,,,,,,,,,,,0,,,69,64
265552,set_tempo,592,1,0,,,,,,,480000,,,,,,,,,,,,
265596,note_off,0,0,3,,,,,,,,,,,,,,,2,,,60,0
265596,note_off,156,0,3,,,,,,,,,,,,,,,2,,,50,0
265596,note_off,156,0,1,,,,,,,,,,,,,,,0,,,69,0
265596,note_off,0,0,3,,,,,,,,,,,,,,,2,,,62,0
265672,set_tempo,120,1,0,,,,,,,517241,,,,,,,,,,,,
265680,note_on,0,0,3,,,,,,,,,,,,,,,2,,,62,61
265680,note_on,0,0,3,,,,,,,,,,,,,,,2,,,60,61
265680,note_on,84,0,1,,,,,,,,,,,,,,,0,,,66,65
265680,note_on,84,0,3,,,,,,,,,,,,,,,2,,,50,61
265836,note_off,0,0,3,,,,,,,,,,,,,,,2,,,62,0
265836,note_off,156,0,3,,,,,,,,,,,,,,,2,,,50,0
265836,note_off,156,0,1,,,,,,,,,,,,,,,0,,,66,0
265836,note_off,0,0,3,,,,,,,,,,,,,,,2,,,60,0
265920,note_on,84,0,3,,,,,,,,,,,,,,,2,,,62,63
265920,note_on,0,0,3,,,,,,,,,,,,,,,2,,,50,63
265920,note_on,0,0,3,,,,,,,,,,,,,,,2,,,59,63
265920,note_on,84,0,1,,,,,,,,,,,,,,,0,,,67,67
265920,note_on,0,0,4,,,,,,,,,,,,,,,3,,,43,68
265920,note_on,9631,0,2,,,,,,,,,,,,,,,1,,,62,67
265920,note_on,0,0,2,,,,,,,,,,,,,,,1,,,59,67
265920,note_off,480,0,4,,,,,,,,,,,,,,,3,,,38,0
266160,note_off,0,0,3,,,,,,,,,,,,,,,2,,,59,0
266160,note_off,240,0,3,,,,,,,,,,,,,,,2,,,62,0
266232,note_off,312,0,1,,,,,,,,,,,,,,,0,,,67,0
266232,note_off,0,0,2,,,,,,,,,,,,,,,1,,,59,0
266232,note_off,312,0,2,,,,,,,,,,,,,,,1,,,62,0
266400,note_off,240,0,3,,,,,,,,,,,,,,,2,,,50,0
266400,note_off,480,0,4,,,,,,,,,,,,,,,3,,,43,0
266760,note_on,0,0,2,,,,,,,,,,,,,,,1,,,55,49
266760,note_on,528,0,2,,,,,,,,,,,,,,,1,,,50,49
266760,note_on,528,0,1,,,,,,,,,,,,,,,0,,,59,49
266880,note_on,480,0,4,,,,,,,,,,,,,,,3,,,31,47
266880,note_on,0,0,4,,,,,,,,,,,,,,,3,,,43,47
267240,note_off,480,0,2,,,,,,,,,,,,,,,1,,,50,0
267240,note_off,0,0,2,,,,,,,,,,,,,,,1,,,55,0
267240,note_off,480,0,1,,,,,,,,,,,,,,,0,,,59,0
267240,note_off,360,0,4,,,,,,,,,,,,,,,3,,,31,0
267240,note_off,0,0,4,,,,,,,,,,,,,,,3,,,43,0
267600,set_tempo,1928,1,0,,,,,,,526315,,,,,,,,,,,,
267720,note_on,480,0,1,,,,,,,,,,,,,,,0,,,55,39
267720,note_on,480,0,2,,,,,,,,,,,,,,,1,,,50,39
267720,note_on,0,0,2,,,,,,,,,,,,,,,1,,,47,39
267840,note_on,600,0,4,,,,,,,,,,,,,,,3,,,31,34
267840,note_on,0,0,4,,,,,,,,,,,,,,,3,,,43,34
268200,note_off,0,0,4,,,,,,,,,,,,,,,3,,,43,0
268200,note_off,0,0,2,,,,,,,,,,,,,,,1,,,47,0
268200,note_off,480,0,2,,,,,,,,,,,,,,,1,,,50,0
268200,note_off,480,0,1,,,,,,,,,,,,,,,0,,,55,0
268200,note_off,360,0,4,,,,,,,,,,,,,,,3,,,31,0
268680,set_tempo,1080,1,0,,,,,,,540540,,,,,,,,,,,,
268800,note_on,600,0,1,,,,,,,,,,,,,,,0,,,35,36
268800,control_change,0,0,1,,,,,,,,,,,,,64,0,0,,,,
268800,control_change,0,0,4,,,,,,,,,,,,,64,0,3,,,,
268800,note_on,600,0,4,,,,,,,,,,,,,,,3,,,35,34
268920,note_off,120,0,1,,,,,,,,,,,,,,,0,,,35,0
268920,note_off,120,0,4,,,,,,,,,,,,,,,3,,,35,0
269270,set_tempo,590,1,0,,,,,,,750000,,,,,,,,,,,,
269280,note_on,360,0,4,,,,,,,,,,,,,,,3,,,38,43
269280,note_on,360,0,1,,,,,,,,,,,,,,,0,,,38,48
269400,note_off,120,0,1,,,,,,,,,,,,,,,0,,,38,0
269400,note_off,120,0,4,,,,,,,,,,,,,,,3,,,38,0
269640,set_tempo,370,1,0,,,,,,,434782,,,,,,,,,,,,
269700,note_on,300,0,1,,,,,,,,,,,,,,,0,,,79,95
269760,note_on,0,0,4,,,,,,,,,,,,,,,3,,,55,92
269760,control_change,360,0,4,,,,,,,,,,,,,64,0,3,,,,
269760,note_on,3360,0,3,,,,,,,,,,,,,,,2,,,59,82
269760,set_tempo,120,1,0,,,,,,,428571,,,,,,,,,,,,
269760,note_on,0,0,3,,,,,,,,,,,,,,,2,,,62,82
269760,control_change,60,0,1,,,,,,,,,,,,,64,0,0,,,,
270480,note_on,0,0,1,,,,,,,,,,,,,,,0,,,78,85
270480,note_off,720,0,3,,,,,,,,,,,,,,,2,,,59,0
270480,note_off,720,0,4,,,,,,,,,,,,,,,3,,,55,0
270480,note_off,720,0,1,,,,,,,,,,,,,,,0,,,79,0
270480,note_off,0,0,3,,,,,,,,,,,,,,,2,,,62,0
270600,note_off,120,0,1,,,,,,,,,,,,,,,0,,,78,0
270600,note_on,0,0,1,,,,,,,,,,,,,,,0,,,76,83
270720,note_on,0,0,1,,,,,,,,,,,,,,,0,,,74,81
270720,note_off,120,0,1,,,,,,,,,,,,,,,0,,,76,0
270840,note_on,0,0,1,,,,,,,,,,,,,,,0,,,75,78
270840,note_off,120,0,1,,,,,,,,,,,,,,,0,,,74,0
270960,note_on,0,0,1,,,,,,,,,,,,,,,0,,,76,76
270960,note_off,120,0,1,,,,,,,,,,,,,,,0,,,75,0
271080,note_on,0,0,1,,,,,,,,,,,,,,,0,,,71,73
271080,note_off,120,0,1,,,,,,,,,,,,,,,0,,,76,0
271200,note_on,0,0,1,,,,,,,,,,,,,,,0,,,74,71
271200,note_off,120,0,1,,,,,,,,,,,,,,,0,,,71,0
271320,note_on,0,0,1,,,,,,,,,,,,,,,0,,,72,68
271320,note_off,120,0,1,,,,,,,,,,,,,,,0,,,74,0
271440,note_on,0,0,1,,,,,,,,,,,,,,,0,,,71,66
271440,note_off,120,0,1,,,,,,,,,,,,,,,0,,,72,0
271560,note_on,0,0,1,,,,,,,,,,,,,,,0,,,69,63
271560,note_off,120,0,1,,,,,,,,,,,,,,,0,,,71,0
271620,set_tempo,1860,1,0,,,,,,,441176,,,,,,,,,,,,
271680,control_change,120,0,1,,,,,,,,,,,,,64,0,0,,,,
271680,note_off,0,0,1,,,,,,,,,,,,,,,0,,,69,0
271680,note_on,0,0,1,,,,,,,,,,,,,,,0,,,67,60
271680,control_change,1200,0,4,,,,,,,,,,,,,64,0,3,,,,
271680,note_on,0,0,4,,,,,,,,,,,,,,,3,,,55,45
271800,note_off,120,0,4,,,,,,,,,,,,,,,3,,,55,0
271800,note_off,120,0,1,,,,,,,,,,,,,,,0,,,67,0
271800,note_on,0,0,4,,,,,,,,,,,,,,,3,,,58,45
271800,note_on,0,0,1,,,,,,,,,,,,,,,0,,,70,60
271867,set_tempo,247,1,0,,,,,,,434782,,,,,,,,,,,,
271920,note_on,0,0,1,,,,,,,,,,,,,,,0,,,71,60
271920,note_off,120,0,1,,,,,,,,,,,,,,,0,,,70,0
271920,note_off,120,0,4,,,,,,,,,,,,,,,3,,,58,0
271920,note_on,0,0,4,,,,,,,,,,,,,,,3,,,59,46
272040,note_on,0,0,4,,,,,,,,,,,,,,,3,,,54,47
272040,note_off,120,0,4,,,,,,,,,,,,,,,3,,,59,0
272040,note_on,0,0,1,,,,,,,,,,,,,,,0,,,66,61
272040,note_off,120,0,1,,,,,,,,,,,,,,,0,,,71,0
272160,note_off,120,0,1,,,,,,,,,,,,,,,0,,,66,0
272160,note_off,120,0,4,,,,,,,,,,,,,,,3,,,54,0
272160,note_on,0,0,4,,,,,,,,,,,,,,,3,,,57,47
272160,note_on,0,0,1,,,,,,,,,,,,,,,0,,,69,61
272280,note_off,120,0,4,,,,,,,,,,,,,,,3,,,57,0
272280,note_on,0,0,4,,,,,,,,,,,,,,,3,,,55,48
272280,note_off,120,0,1,,,,,,,,,,,,,,,0,,,69,0
272280,note_on,0,0,1,,,,,,,,,,,,,,,0,,,67,61
272400,note_on,0,0,4,,,,,,,,,,,,,,,3,,,54,49
272400,note_off,120,0,4,,,,,,,,,,,,,,,3,,,55,0
272400,note_off,120,0,1,,,,,,,,,,,,,,,0,,,67,0
272400,note_on,0,0,1,,,,,,,,,,,,,,,0,,,66,62
272520,note_off,120,0,4,,,,,,,,,,,,,,,3,,,54,0
272520,note_on,0,0,4,,,,,,,,,,,,,,,3,,,52,49
272520,note_off,120,0,1,,,,,,,,,,,,,,,0,,,66,0
272520,note_on,0,0,1,,,,,,,,,,,,,,,0,,,64,62
272640,note_on,0,0,4,,,,,,,,,,,,,,,3,,,50,50
272640,note_off,120,0,4,,,,,,,,,,,,,,,3,,,52,0
272640,note_off,120,0,1,,,,,,,,,,,,,,,0,,,64,0
272640,note_on,0,0,1,,,,,,,,,,,,,,,0,,,62,62
272760,note_off,120,0,1,,,,,,,,,,,,,,,0,,,62,0
272760,note_off,120,0,4,,,,,,,,,,,,,,,3,,,50,0
272760,note_on,0,0,4,,,,,,,,,,,,,,,3,,,51,50
272760,note_on,0,0,1,,,,,,,,,,,,,,,0,,,63,63
272880,note_off,120,0,4,,,,,,,,,,,,,,,3,,,51,0
272880,note_on,0,0,4,,,,,,,,,,,,,,,3,,,52,51
272880,note_off,120,0,1,,,,,,,,,,,,,,,0,,,63,0
272880,note_on,0,0,1,,,,,,,,,,,,,,,0,,,64,63
273000,note_off,120,0,4,,,,,,,,,,,,,,,3,,,52,0
273000,note_on,0,0,4,,,,,,,,,,,,,,,3,,,47,52
273000,note_on,0,0,1,,,,,,,,,,,,,,,0,,,59,63
273000,note_off,120,0,1,,,,,,,,,,,,,,,0,,,64,0
273120,note_off,120,0,1,,,,,,,,,,,,,,,0,,,59,0
273120,note_off,120,0,4,,,,,,,,,,,,,,,3,,,47,0
273120,note_on,0,0,1,,,,,,,,,,,,,,,0,,,62,64
273120,note_on,0,0,4,,,,,,,,,,,,,,,3,,,50,52
273240,note_on,0,0,4,,,,,,,,,,,,,,,3,,,48,53
273240,note_off,120,0,1,,,,,,,,,,,,,,,0,,,62,0
273240,note_off,120,0,4,,,,,,,,,,,,,,,3,,,50,0
273240,note_on,0,0,1,,,,,,,,,,,,,,,0,,,60,64
273360,note_off,120,0,1,,,,,,,,,,,,,,,0,,,60,0
273360,note_on,0,0,1,,,,,,,,,,,,,,,0,,,59,65
273360,note_on,0,0,4,,,,,,,,,,,,,,,3,,,47,53
273360,note_off,120,0,4,,,,,,,,,,,,,,,3,,,48,0
273480,note_on,0,0,4,,,,,,,,,,,,,,,3,,,45,54
273480,note_off,120,0,4,,,,,,,,,,,,,,,3,,,47,0
273480,note_off,120,0,1,,,,,,,,,,,,,,,0,,,59,0
273480,note_on,0,0,1,,,,,,,,,,,,,,,0,,,57,65
273540,set_tempo,1673,1,0,,,,,,,441176,,,,,,,,,,,,
273600,note_on,0,0,1,,,,,,,,,,,,,,,0,,,55,65
273600,note_off,120,0,4,,,,,,,,,,,,,,,3,,,45,0
273600,note_on,0,0,4,,,,,,,,,,,,,,,3,,,43,55
273600,note_off,120,0,1,,,,,,,,,,,,,,,0,,,57,0
273697,set_tempo,157,1,0,,,,,,,434782,,,,,,,,,,,,
273720,note_on,0,0,1,,,,,,,,,,,,,,,0,,,58,66
273720,note_off,120,0,4,,,,,,,,,,,,,,,3,,,43,0
273720,note_on,0,0,4,,,,,,,,,,,,,,,3,,,46,55
273720,note_off,120,0,1,,,,,,,,,,,,,,,0,,,55,0
273840,note_on,0,0,1,,,,,,,,,,,,,,,0,,,59,66
273840,note_off,120,0,1,,,,,,,,,,,,,,,0,,,58,0
273840,note_off,120,0,4,,,,,,,,,,,,,,,3,,,46,0
273840,note_on,0,0,4,,,,,,,,,,,,,,,3,,,47,56
273960,note_on,0,0,1,,,,,,,,,,,,,,,0,,,54,66
273960,note_off,120,0,1,,,,,,,,,,,,,,,0,,,59,0
273960,note_on,0,0,4,,,,,,,,,,,,,,,3,,,42,57
273960,note_off,120,0,4,,,,,,,,,,,,,,,3,,,47,0
274080,note_on,0,0,4,,,,,,,,,,,,,,,3,,,45,57
274080,note_off,120,0,4,,,,,,,,,,,,,,,3,,,42,0
274080,note_off,120,0,1,,,,,,,,,,,,,,,0,,,54,0
274080,note_on,0,0,1,,,,,,,,,,,,,,,0,,,57,67
274200,note_off,120,0,4,,,,,,,,,,,,,,,3,,,45,0
274200,note_on,0,0,4,,,,,,,,,,,,,,,3,,,43,58
274200,note_on,0,0,1,,,,,,,,,,,,,,,0,,,55,67
274200,note_off,120,0,1,,,,,,,,,,,,,,,0,,,57,0
274320,note_off,120,0,1,,,,,,,,,,,,,,,0,,,55,0
274320,note_off,120,0,4,,,,,,,,,,,,,,,3,,,43,0
274320,note_on,0,0,4,,,,,,,,,,,,,,,3,,,42,58
274320,note_on,0,0,1,,,,,,,,,,,,,,,0,,,54,67
274440,note_off,120,0,4,,,,,,,,,,,,,,,3,,,42,0
274440,note_on,0,0,1,,,,,,,,,,,,,,,0,,,52,68
274440,note_off,120,0,1,,,,,,,,,,,,,,,0,,,54,0
274440,note_on,0,0,4,,,,,,,,,,,,,,,3,,,40,59
274560,note_on,0,0,1,,,,,,,,,,,,,,,0,,,50,68
274560,note_off,120,0,1,,,,,,,,,,,,,,,0,,,52,0
274560,note_off,120,0,4,,,,,,,,,,,,,,,3,,,40,0
274560,note_on,0,0,4,,,,,,,,,,,,,,,3,,,38,60
274680,note_off,120,0,4,,,,,,,,,,,,,,,3,,,38,0
274680,note_on,0,0,4,,,,,,,,,,,,,,,3,,,39,60
274680,note_on,0,0,1,,,,,,,,,,,,,,,0,,,51,68
274680,note_off,120,0,1,,,,,,,,,,,,,,,0,,,50,0
274800,note_on,0,0,1,,,,,,,,,,,,,,,0,,,52,69
274800,note_off,120,0,1,,,,,,,,,,,,,,,0,,,51,0
274800,note_on,0,0,4,,,,,,,,,,,,,,,3,,,40,61
274800,note_off,120,0,4,,,,,,,,,,,,,,,3,,,39,0
274920,note_on,0,0,1,,,,,,,,,,,,,,,0,,,47,69
274920,note_off,120,0,1,,,,,,,,,,,,,,,0,,,52,0
274920,note_on,0,0,4,,,,,,,,,,,,,,,3,,,35,61
274920,note_off,120,0,4,,,,,,,,,,,,,,,3,,,40,0
275040,note_off,120,0,1,,,,,,,,,,,,,,,0,,,47,0
275040,note_on,0,0,1,,,,,,,,,,,,,,,0,,,50,69
275040,note_on,0,0,4,,,,,,,,,,,,,,,3,,,38,62
275040,note_off,120,0,4,,,,,,,,,,,,,,,3,,,35,0
275160,note_off,120,0,1,,,,,,,,,,,,,,,0,,,50,0
275160,note_on,0,0,4,,,,,,,,,,,,,,,3,,,36,63
275160,note_on,0,0,1,,,,,,,,,,,,,,,0,,,48,70
275160,note_off,120,0,4,,,,,,,,,,,,,,,3,,,38,0
275280,note_on,0,0,1,,,,,,,,,,,,,,,0,,,47,70
275280,note_off,120,0,1,,,,,,,,,,,,,,,0,,,48,0
275280,note_on,0,0,4,,,,,,,,,,,,,,,3,,,35,63
275280,note_off,120,0,4,,,,,,,,,,,,,,,3,,,36,0
275400,note_on,0,0,1,,,,,,,,,,,,,,,0,,,45,70
275400,note_off,120,0,1,,,,,,,,,,,,,,,0,,,47,0
275400,note_on,0,0,4,,,,,,,,,,,,,,,3,,,33,64
275400,note_off,120,0,4,,,,,,,,,,,,,,,3,,,35,0
275460,set_tempo,1763,1,0,,,,,,,441176,,,,,,,,,,,,
275520,note_off,120,0,1,,,,,,,,,,,,,,,0,,,45,0
275520,note_on,0,0,4,,,,,,,,,,,,,,,3,,,31,65
275520,note_off,120,0,4,,,,,,,,,,,,,,,3,,,33,0
275520,note_on,0,0,1,,,,,,,,,,,,,,,0,,,43,71
275602,set_tempo,142,1,0,,,,,,,434782,,,,,,,,,,,,
275640,note_off,120,0,4,,,,,,,,,,,,,,,3,,,31,0
275640,note_on,0,0,4,,,,,,,,,,,,,,,3,,,30,65
275640,note_off,120,0,1,,,,,,,,,,,,,,,0,,,43,0
275640,note_on,0,0,1,,,,,,,,,,,,,,,0,,,42,71
275760,note_off,120,0,1,,,,,,,,,,,,,,,0,,,42,0
275760,note_on,0,0,1,,,,,,,,,,,,,,,0,,,43,71
275760,note_off,120,0,4,,,,,,,,,,,,,,,3,,,30,0
275760,note_on,0,0,4,,,,,,,,,,,,,,,3,,,31,66
275880,note_off,120,0,1,,,,,,,,,,,,,,,0,,,43,0
275880,note_on,0,0,4,,,,,,,,,,,,,,,3,,,33,66
275880,note_off,120,0,4,,,,,,,,,,,,,,,3,,,31,0
275880,note_on,0,0,1,,,,,,,,,,,,,,,0,,,45,72
276000,note_on,0,0,1,,,,,,,,,,,,,,,0,,,46,72
276000,note_off,120,0,4,,,,,,,,,,,,,,,3,,,33,0
276000,note_on,0,0,4,,,,,,,,,,,,,,,3,,,34,67
276000,note_off,120,0,1,,,,,,,,,,,,,,,0,,,45,0
276120,note_off,120,0,4,,,,,,,,,,,,,,,3,,,34,0
276120,note_on,0,0,4,,,,,,,,,,,,,,,3,,,35,68
276120,note_on,0,0,1,,,,,,,,,,,,,,,0,,,47,72
276120,note_off,120,0,1,,,,,,,,,,,,,,,0,,,46,0
276240,note_on,0,0,1,,,,,,,,,,,,,,,0,,,48,73
276240,note_off,120,0,1,,,,,,,,,,,,,,,0,,,47,0
276240,note_off,120,0,4,,,,,,,,,,,,,,,3,,,35,0
276240,note_on,0,0,4,,,,,,,,,,,,,,,3,,,36,68
276360,note_on,0,0,1,,,,,,,,,,,,,,,0,,,49,73
276360,note_off,120,0,1,,,,,,,,,,,,,,,0,,,48,0
276360,note_off,120,0,4,,,,,,,,,,,,,,,3,,,36,0
276360,note_on,0,0,4,,,,,,,,,,,,,,,3,,,37,69
276480,note_off,120,0,1,,,,,,,,,,,,,,,0,,,49,0
276480,note_on,0,0,1,,,,,,,,,,,,,,,0,,,50,73
276480,note_off,120,0,4,,,,,,,,,,,,,,,3,,,37,0
276480,note_on,0,0,4,,,,,,,,,,,,,,,3,,,38,69
276600,note_on,0,0,4,,,,,,,,,,,,,,,3,,,37,70
276600,note_on,0,0,1,,,,,,,,,,,,,,,0,,,49,74
276600,note_off,120,0,4,,,,,,,,,,,,,,,3,,,38,0
276600,note_off,120,0,1,,,,,,,,,,,,,,,0,,,50,0
276720,note_on,0,0,4,,,,,,,,,,,,,,,3,,,38,71
276720,note_off,120,0,4,,,,,,,,,,,,,,,3,,,37,0
276720,note_on,0,0,1,,,,,,,,,,,,,,,0,,,50,74
276720,note_off,120,0,1,,,,,,,,,,,,,,,0,,,49,0
276840,note_on,0,0,4,,,,,,,,,,,,,,,3,,,40,71
276840,note_off,120,0,4,,,,,,,,,,,,,,,3,,,38,0
276840,note_on,0,0,1,,,,,,,,,,,,,,,0,,,52,74
276840,note_off,120,0,1,,,,,,,,,,,,,,,0,,,50,0
276960,note_on,0,0,1,,,,,,,,,,,,,,,0,,,54,75
276960,note_off,120,0,1,,,,,,,,,,,,,,,0,,,52,0
276960,note_off,120,0,4,,,,,,,,,,,,,,,3,,,40,0
276960,note_on,0,0,4,,,,,,,,,,,,,,,3,,,42,72
277080,note_off,120,0,4,,,,,,,,,,,,,,,3,,,42,0
277080,note_on,0,0,1,,,,,,,,,,,,,,,0,,,50,75
277080,note_off,120,0,1,,,,,,,,,,,,,,,0,,,54,0
277080,note_on,0,0,4,,,,,,,,,,,,,,,3,,,38,73
277200,note_on,0,0,1,,,,,,,,,,,,,,,0,,,52,76
277200,note_off,120,0,1,,,,,,,,,,,,,,,0,,,50,0
277200,note_on,0,0,4,,,,,,,,,,,,,,,3,,,40,73
277200,note_off,120,0,4,,,,,,,,,,,,,,,3,,,38,0
277320,note_off,120,0,1,,,,,,,,,,,,,,,0,,,52,0
277320,note_on,0,0,4,,,,,,,,,,,,,,,3,,,42,74
277320,note_off,120,0,4,,,,,,,,,,,,,,,3,,,40,0
277320,note_on,0,0,1,,,,,,,,,,,,,,,0,,,54,76
277380,set_tempo,1778,1,0,,,,,,,441176,,,,,,,,,,,,
277440,set_tempo,60,1,0,,,,,,,434782,,,,,,,,,,,,
277440,note_off,120,0,4,,,,,,,,,,,,,,,3,,,42,0
277440,note_on,0,0,4,,,,,,,,,,,,,,,3,,,43,74
277440,note_on,0,0,1,,,,,,,,,,,,,,,0,,,55,76
277440,note_off,120,0,1,,,,,,,,,,,,,,,0,,,54,0
277560,note_on,0,0,1,,,,,,,,,,,,,,,0,,,54,77
277560,note_off,120,0,1,,,,,,,,,,,,,,,0,,,55,0
277560,note_on,0,0,4,,,,,,,,,,,,,,,3,,,42,75
277560,note_off,120,0,4,,,,,,,,,,,,,,,3,,,43,0
277680,note_on,0,0,4,,,,,,,,,,,,,,,3,,,43,76
277680,note_off,120,0,1,,,,,,,,,,,,,,,0,,,54,0
277680,note_off,120,0,4,,,,,,,,,,,,,,,3,,,42,0
277680,note_on,0,0,1,,,,,,,,,,,,,,,0,,,55,77
277800,note_on,0,0,4,,,,,,,,,,,,,,,3,,,45,76
277800,note_off,120,0,4,,,,,,,,,,,,,,,3,,,43,0
277800,note_off,120,0,1,,,,,,,,,,,,,,,0,,,55,0
277800,note_on,0,0,1,,,,,,,,,,,,,,,0,,,57,77
277920,note_off,120,0,4,,,,,,,,,,,,,,,3,,,45,0
277920,note_on,0,0,4,,,,,,,,,,,,,,,3,,,46,77
277920,note_off,120,0,1,,,,,,,,,,,,,,,0,,,57,0
277920,note_on,0,0,1,,,,,,,,,,,,,,,0,,,58,78
278040,note_off,120,0,1,,,,,,,,,,,,,,,0,,,58,0
278040,note_on,0,0,1,,,,,,,,,,,,,,,0,,,59,78
278040,note_on,0,0,4,,,,,,,,,,,,,,,3,,,47,77
278040,note_off,120,0,4,,,,,,,,,,,,,,,3,,,46,0
278160,note_on,0,0,1,,,,,,,,,,,,,,,0,,,60,78
278160,note_off,120,0,4,,,,,,,,,,,,,,,3,,,47,0
278160,note_off,120,0,1,,,,,,,,,,,,,,,0,,,59,0
278160,note_on,0,0,4,,,,,,,,,,,,,,,3,,,48,78
278280,note_on,0,0,1,,,,,,,,,,,,,,,0,,,61,79
278280,note_on,0,0,4,,,,,,,,,,,,,,,3,,,49,79
278280,note_off,120,0,4,,,,,,,,,,,,,,,3,,,48,0
278280,set_tempo,840,1,0,,,,,,,441176,,,,,,,,,,,,
278280,note_off,120,0,1,,,,,,,,,,,,,,,0,,,60,0
278400,note_on,0,0,1,,,,,,,,,,,,,,,0,,,62,79
278400,note_off,120,0,1,,,,,,,,,,,,,,,0,,,61,0
278400,note_on,0,0,4,,,,,,,,,,,,,,,3,,,50,79
278400,note_off,120,0,4,,,,,,,,,,,,,,,3,,,49,0
278478,note_off,78,0,4,,,,,,,,,,,,,,,3,,,50,0
278478,note_off,78,0,1,,,,,,,,,,,,,,,0,,,62,0
278490,set_tempo,210,1,0,,,,,,,434782,,,,,,,,,,,,
278520,note_on,0,0,1,,,,,,,,,,,,,,,0,,,62,79
278520,control_change,42,0,4,,,,,,,,,,,,,64,127,3,,,,
278520,note_on,0,0,4,,,,,,,,,,,,,,,3,,,50,80
278520,control_change,42,0,1,,,,,,,,,,,,,64,127,0,,,,
278640,note_on,0,0,1,,,,,,,,,,,,,,,0,,,66,80
278640,note_off,120,0,1,,,,,,,,,,,,,,,0,,,62,0
278640,note_on,0,0,4,,,,,,,,,,,,,,,3,,,54,80
278640,note_off,120,0,4,,,,,,,,,,,,,,,3,,,50,0
278760,note_off,120,0,4,,,,,,,,,,,,,,,3,,,54,0
278760,note_on,0,0,4,,,,,,,,,,,,,,,3,,,57,80
278760,note_off,120,0,1,,,,,,,,,,,,,,,0,,,66,0
278760,note_on,0,0,1,,,,,,,,,,,,,,,0,,,69,80
278880,note_on,0,0,1,,,,,,,,,,,,,,,0,,,74,80
278880,note_off,120,0,1,,,,,,,,,,,,,,,0,,,69,0
278880,note_on,0,0,4,,,,,,,,,,,,,,,3,,,62,81
278880,note_off,120,0,4,,,,,,,,,,,,,,,3,,,57,0
278958,note_off,78,0,1,,,,,,,,,,,,,,,0,,,74,0
278958,note_off,78,0,4,,,,,,,,,,,,,,,3,,,62,0
279000,note_on,42,0,1,,,,,,,,,,,,,,,0,,,74,81
279000,note_on,42,0,4,,,,,,,,,,,,,,,3,,,62,81
279120,note_on,0,0,1,,,,,,,,,,,,,,,0,,,78,81
279120,note_off,120,0,1,,,,,,,,,,,,,,,0,,,74,0
279120,note_off,120,0,4,,,,,,,,,,,,,,,3,,,62,0
279120,note_on,0,0,4,,,,,,,,,,,,,,,3,,,66,81
279240,set_tempo,750,1,0,,,,,,,441176,,,,,,,,,,,,
279240,note_on,0,0,1,,,,,,,,,,,,,,,0,,,81,81
279240,note_off,120,0,1,,,,,,,,,,,,,,,0,,,78,0
279240,note_off,120,0,4,,,,,,,,,,,,,,,3,,,66,0
279240,note_on,0,0,4,,,,,,,,,,,,,,,3,,,69,82
279360,note_on,0,0,1,,,,,,,,,,,,,,,0,,,86,92
279360,note_off,120,0,1,,,,,,,,,,,,,,,0,,,81,0
279360,note_on,0,0,4,,,,,,,,,,,,,,,3,,,74,93
279360,note_off,120,0,4,,,,,,,,,,,,,,,3,,,69,0
279438,note_off,78,0,1,,,,,,,,,,,,,,,0,,,86,0
279438,note_off,78,0,4,,,,,,,,,,,,,,,3,,,74,0
279450,set_tempo,210,1,0,,,,,,,434782,,,,,,,,,,,,
279480,note_on,42,0,1,,,,,,,,,,,,,,,0,,,86,83
279480,note_on,42,0,4,,,,,,,,,,,,,,,3,,,74,82
279600,note_on,0,0,4,,,,,,,,,,,,,,,3,,,69,82
279600,note_off,120,0,1,,,,,,,,,,,,,,,0,,,86,0
279600,note_off,120,0,4,,,,,,,,,,,,,,,3,,,74,0
279600,note_on,0,0,1,,,,,,,,,,,,,,,0,,,81,83
279720,note_on,0,0,4,,,,,,,,,,,,,,,3,,,66,83
279720,note_off,120,0,4,,,,,,,,,,,,,,,3,,,69,0
279720,note_off,120,0,1,,,,,,,,,,,,,,,0,,,81,0
279720,note_on,0,0,1,,,,,,,,,,,,,,,0,,,78,83
279840,note_on,0,0,1,,,,,,,,,,,,,,,0,,,74,84
279840,note_on,0,0,4,,,,,,,,,,,,,,,3,,,62,83
279840,note_off,120,0,4,,,,,,,,,,,,,,,3,,,66,0
279840,note_off,120,0,1,,,,,,,,,,,,,,,0,,,78,0
279918,note_off,78,0,4,,,,,,,,,,,,,,,3,,,62,0
279918,note_off,78,0,1,,,,,,,,,,,,,,,0,,,74,0
279960,note_on,42,0,4,,,,,,,,,,,,,,,3,,,62,83
279960,note_on,42,0,1,,,,,,,,,,,,,,,0,,,74,84
280080,note_off,120,0,1,,,,,,,,,,,,,,,0,,,74,0
280080,note_on,0,0,1,,,,,,,,,,,,,,,0,,,69,84
280080,note_on,0,0,4,,,,,,,,,,,,,,,3,,,57,84
280080,note_off,120,0,4,,,,,,,,,,,,,,,3,,,62,0
280200,note_off,120,0,1,,,,,,,,,,,,,,,0,,,69,0
280200,note_on,0,0,1,,,,,,,,,,,,,,,0,,,66,85
280200,note_off,120,0,4,,,,,,,,,,,,,,,3,,,57,0
280200,note_on,0,0,4,,,,,,,,,,,,,,,3,,,54,84
280200,set_tempo,750,1,0,,,,,,,441176,,,,,,,,,,,,
280320,note_off,120,0,4,,,,,,,,,,,,,,,3,,,54,0
280320,note_off,120,0,1,,,,,,,,,,,,,,,0,,,66,0
280320,note_on,0,0,1,,,,,,,,,,,,,,,0,,,62,85
280320,note_on,0,0,4,,,,,,,,,,,,,,,3,,,50,84
280380,control_change,60,0,1,,,,,,,,,,,,,64,0,0,,,,
280380,control_change,60,0,4,,,,,,,,,,,,,64,0,3,,,,
280398,note_off,18,0,4,,,,,,,,,,,,,,,3,,,50,0
280398,note_off,18,0,1,,,,,,,,,,,,,,,0,,,62,0
280425,set_tempo,225,1,0,,,,,,,434782,,,,,,,,,,,,
280440,control_change,0,0,1,,,,,,,,,,,,,64,127,0,,,,
280440,note_on,42,0,1,,,,,,,,,,,,,,,0,,,62,85
280440,control_change,0,0,4,,,,,,,,,,,,,64,127,3,,,,
280440,note_on,42,0,4,,,,,,,,,,,,,,,3,,,50,84
280560,note_on,0,0,1,,,,,,,,,,,,,,,0,,,66,86
280560,note_off,120,0,1,,,,,,,,,,,,,,,0,,,62,0
280560,note_on,0,0,4,,,,,,,,,,,,,,,3,,,54,85
280560,note_off,120,0,4,,,,,,,,,,,,,,,3,,,50,0
280680,note_off,120,0,1,,,,,,,,,,,,,,,0,,,66,0
280680,note_on,0,0,1,,,,,,,,,,,,,,,0,,,69,86
280680,note_off,120,0,4,,,,,,,,,,,,,,,3,,,54,0
280680,note_on,0,0,4,,,,,,,,,,,,,,,3,,,57,85
280800,note_off,120,0,1,,,,,,,,,,,,,,,0,,,69,0
280800,note_on,0,0,1,,,,,,,,,,,,,,,0,,,74,86
280800,note_off,120,0,4,,,,,,,,,,,,,,,3,,,57,0
280800,note_on,0,0,4,,,,,,,,,,,,,,,3,,,62,85
280878,note_off,78,0,1,,,,,,,,,,,,,,,0,,,74,0
280878,note_off,78,0,4,,,,,,,,,,,,,,,3,,,62,0
280920,note_on,42,0,1,,,,,,,,,,,,,,,0,,,74,87
280920,note_on,42,0,4,,,,,,,,,,,,,,,3,,,62,86
281040,note_on,0,0,4,,,,,,,,,,,,,,,3,,,66,86
281040,note_on,0,0,1,,,,,,,,,,,,,,,0,,,78,87
281040,note_off,120,0,1,,,,,,,,,,,,,,,0,,,74,0
281040,note_off,120,0,4,,,,,,,,,,,,,,,3,,,62,0
281160,note_on,0,0,1,,,,,,,,,,,,,,,0,,,81,87
281160,note_off,120,0,1,,,,,,,,,,,,,,,0,,,78,0
281160,set_tempo,735,1,0,,,,,,,441176,,,,,,,,,,,,
281160,note_off,120,0,4,,,,,,,,,,,,,,,3,,,66,0
281160,note_on,0,0,4,,,,,,,,,,,,,,,3,,,69,86
281280,note_on,0,0,4,,,,,,,,,,,,,,,3,,,74,98
281280,note_off,120,0,4,,,,,,,,,,,,,,,3,,,69,0
281280,note_off,120,0,1,,,,,,,,,,,,,,,0,,,81,0
281280,note_on,0,0,1,,,,,,,,,,,,,,,0,,,86,98
281358,note_off,78,0,4,,,,,,,,,,,,,,,3,,,74,0
281358,note_off,78,0,1,,,,,,,,,,,,,,,0,,,86,0
281385,set_tempo,225,1,0,,,,,,,434782,,,,,,,,,,,,
281400,note_on,42,0,4,,,,,,,,,,,,,,,3,,,74,87
281400,note_on,42,0,1,,,,,,,,,,,,,,,0,,,86,88
281520,note_on,0,0,1,,,,,,,,,,,,,,,0,,,81,88
281520,note_on,0,0,4,,,,,,,,,,,,,,,3,,,69,87
281520,note_off,120,0,4,,,,,,,,,,,,,,,3,,,74,0
281520,note_off,120,0,1,,,,,,,,,,,,,,,0,,,86,0
281640,note_off,120,0,1,,,,,,,,,,,,,,,0,,,81,0
281640,note_on,0,0,1,,,,,,,,,,,,,,,0,,,78,88
281640,note_on,0,0,4,,,,,,,,,,,,,,,3,,,66,87
281640,note_off,120,0,4,,,,,,,,,,,,,,,3,,,69,0
281760,note_off,120,0,1,,,,,,,,,,,,,,,0,,,78,0
281760,note_on,0,0,1,,,,,,,,,,,,,,,0,,,74,89
281760,note_off,120,0,4,,,,,,,,,,,,,,,3,,,66,0
281760,note_on,0,0,4,,,,,,,,,,,,,,,3,,,62,88
281838,note_off,78,0,4,,,,,,,,,,,,,,,3,,,62,0
281838,note_off,78,0,1,,,,,,,,,,,,,,,0,,,74,0
281880,note_on,42,0,4,,,,,,,,,,,,,,,3,,,62,88
281880,note_on,42,0,1,,,,,,,,,,,,,,,0,,,74,89
282000,note_off,120,0,4,,,,,,,,,,,,,,,3,,,62,0
282000,note_off,120,0,1,,,,,,,,,,,,,,,0,,,74,0
282000,note_on,0,0,1,,,,,,,,,,,,,,,0,,,69,89
282000,note_on,0,0,4,,,,,,,,,,,,,,,3,,,57,88
282120,set_tempo,735,1,0,,,,,,,441176,,,,,,,,,,,,
282120,note_off,120,0,1,,,,,,,,,,,,,,,0,,,69,0
282120,note_on,0,0,1,,,,,,,,,,,,,,,0,,,66,90
282120,note_off,120,0,4,,,,,,,,,,,,,,,3,,,57,0
282120,note_on,0,0,4,,,,,,,,,,,,,,,3,,,54,88
282240,note_off,120,0,1,,,,,,,,,,,,,,,0,,,66,0
282240,note_on,0,0,1,,,,,,,,,,,,,,,0,,,62,90
282240,note_off,120,0,4,,,,,,,,,,,,,,,3,,,54,0
282240,note_on,0,0,4,,,,,,,,,,,,,,,3,,,50,89
282318,note_off,78,0,4,,,,,,,,,,,,,,,3,,,50,0
282318,note_off,78,0,1,,,,,,,,,,,,,,,0,,,62,0
282330,set_tempo,210,1,0,,,,,,,434782,,,,,,,,,,,,
282360,note_on,42,0,4,,,,,,,,,,,,,,,3,,,62,89
282360,note_on,42,0,1,,,,,,,,,,,,,,,0,,,74,90
282480,note_off,120,0,1,,,,,,,,,,,,,,,0,,,74,0
282480,note_on,0,0,1,,,,,,,,,,,,,,,0,,,69,91
282480,note_off,120,0,4,,,,,,,,,,,,,,,3,,,62,0
282480,note_on,0,0,4,,,,,,,,,,,,,,,3,,,57,89
282600,set_tempo,270,1,0,,,,,,,441176,,,,,,,,,,,,
282600,note_off,120,0,4,,,,,,,,,,,,,,,3,,,57,0
282600,note_on,0,0,4,,,,,,,,,,,,,,,3,,,54,90
282600,note_on,0,0,1,,,,,,,,,,,,,,,0,,,66,91
282600,note_off,120,0,1,,,,,,,,,,,,,,,0,,,69,0
282720,note_on,0,0,4,,,,,,,,,,,,,,,3,,,50,90
282720,note_off,120,0,4,,,,,,,,,,,,,,,3,,,54,0
282720,note_on,0,0,1,,,,,,,,,,,,,,,0,,,62,91
282720,note_off,120,0,1,,,,,,,,,,,,,,,0,,,66,0
282798,note_off,78,0,4,,,,,,,,,,,,,,,3,,,50,0
282798,note_off,78,0,1,,,,,,,,,,,,,,,0,,,62,0
282840,note_on,42,0,1,,,,,,,,,,,,,,,0,,,62,92
282840,note_on,42,0,4,,,,,,,,,,,,,,,3,,,50,90
282960,note_off,120,0,4,,,,,,,,,,,,,,,3,,,50,0
282960,note_off,120,0,1,,,,,,,,,,,,,,,0,,,62,0
282960,note_on,0,0,1,,,,,,,,,,,,,,,0,,,57,92
282960,set_tempo,360,1,0,,,,,,,447761,,,,,,,,,,,,
282960,note_on,0,0,4,,,,,,,,,,,,,,,3,,,45,91
283080,note_on,0,0,4,,,,,,,,,,,,,,,3,,,42,91
283080,note_off,120,0,4,,,,,,,,,,,,,,,3,,,45,0
283080,note_on,0,0,1,,,,,,,,,,,,,,,0,,,54,92
283080,set_tempo,120,1,0,,,,,,,508474,,,,,,,,,,,,
283080,note_off,120,0,1,,,,,,,,,,,,,,,0,,,57,0
283200,set_tempo,120,1,0,,,,,,,1818181,,,,,,,,,,,,
283200,note_on,0,0,4,,,,,,,,,,,,,,,3,,,38,102
283200,note_off,120,0,4,,,,,,,,,,,,,,,3,,,42,0
283200,note_off,120,0,1,,,,,,,,,,,,,,,0,,,54,0
283200,note_on,0,0,1,,,,,,,,,,,,,,,0,,,50,102
284160,note_off,960,0,1,,,,,,,,,,,,,,,0,,,50,0
284160,note_off,960,0,4,,,,,,,,,,,,,,,3,,,38,0
284640,control_change,480,0,1,,,,,,,,,,,,,64,0,0,,,,
284640,control_change,480,0,4,,,,,,,,,,,,,64,0,3,,,,
284880,set_tempo,1680,1,0,,,,,,,441176,,,,,,,,,,,,
285000,note_on,0,0,2,,,,,,,,,,,,,,,1,,,62,57
285000,note_on,16800,0,2,,,,,,,,,,,,,,,1,,,66,57
285000,note_on,360,0,1,,,,,,,,,,,,,,,0,,,69,57
285120,note_on,14640,0,3,,,,,,,,,,,,,,,2,,,60,55
285120,note_on,0,0,3,,,,,,,,,,,,,,,2,,,57,55
285120,note_on,480,0,4,,,,,,,,,,,,,,,3,,,50,55
286080,note_off,960,0,4,,,,,,,,,,,,,,,3,,,50,0
286080,note_off,0,0,3,,,,,,,,,,,,,,,2,,,57,0
286080,note_off,960,0,3,,,,,,,,,,,,,,,2,,,60,0
286080,note_off,0,0,2,,,,,,,,,,,,,,,1,,,62,0
286080,note_on,0,0,4,,,,,,,,,,,,,,,3,,,69,46
286080,note_on,0,0,1,,,,,,,,,,,,,,,0,,,81,48
286080,note_off,1080,0,2,,,,,,,,,,,,,,,1,,,66,0
286080,note_off,1080,0,1,,,,,,,,,,,,,,,0,,,69,0
286200,note_off,120,0,1,,,,,,,,,,,,,,,0,,,81,0
286200,note_off,120,0,4,,,,,,,,,,,,,,,3,,,69,0
286560,note_on,360,0,1,,,,,,,,,,,,,,,0,,,84,46
286560,note_on,360,0,4,,,,,,,,,,,,,,,3,,,72,45
286680,note_off,120,0,4,,,,,,,,,,,,,,,3,,,72,0
286680,note_off,120,0,1,,,,,,,,,,,,,,,0,,,84,0
287040,note_on,360,0,4,,,,,,,,,,,,,,,3,,,62,43
287040,note_on,360,0,1,,,,,,,,,,,,,,,0,,,74,43
287040,set_tempo,2160,1,0,,,,,,,447761,,,,,,,,,,,,
287160,note_off,120,0,4,,,,,,,,,,,,,,,3,,,62,0
287160,note_off,120,0,1,,,,,,,,,,,,,,,0,,,74,0
288000,set_tempo,960,1,0,,,,,,,461538,,,,,,,,,,,,
288720,set_tempo,720,1,0,,,,,,,441176,,,,,,,,,,,,
288840,note_on,0,0,2,,,,,,,,,,,,,,,1,,,66,52
288840,note_on,1680,0,1,,,,,,,,,,,,,,,0,,,69,52
288840,note_on,2760,0,2,,,,,,,,,,,,,,,1,,,62,52
288960,note_on,1800,0,4,,,,,,,,,,,,,,,3,,,50,51
288960,note_on,0,0,3,,,,,,,,,,,,,,,2,,,60,51
288960,note_on,2880,0,3,,,,,,,,,,,,,,,2,,,57,51
289672,note_off,832,0,2,,,,,,,,,,,,,,,1,,,62,0
289680,note_on,840,0,1,,,,,,,,,,,,,,,0,,,73,51
289680,note_off,8,0,2,,,,,,,,,,,,,,,1,,,66,0
289687,note_off,7,0,1,,,,,,,,,,,,,,,0,,,69,0
289760,note_off,73,0,1,,,,,,,,,,,,,,,0,,,73,0
289760,note_on,0,0,1,,,,,,,,,,,,,,,0,,,74,50
289840,note_off,80,0,1,,,,,,,,,,,,,,,0,,,74,0
289840,note_on,0,0,1,,,,,,,,,,,,,,,0,,,76,49
289920,note_off,80,0,1,,,,,,,,,,,,,,,0,,,76,0
289920,note_on,0,0,1,,,,,,,,,,,,,,,0,,,74,48
289920,note_off,960,0,4,,,,,,,,,,,,,,,3,,,50,0
289920,note_off,960,0,3,,,,,,,,,,,,,,,2,,,57,0
289920,note_off,0,0,3,,,,,,,,,,,,,,,2,,,60,0
289920,set_tempo,1200,1,0,,,,,,,441176,,,,,,,,,,,,
290160,note_off,240,0,1,,,,,,,,,,,,,,,0,,,74,0
290760,note_on,1080,0,2,,,,,,,,,,,,,,,1,,,59,49
290760,note_on,0,0,2,,,,,,,,,,,,,,,1,,,62,49
290760,note_on,0,0,2,,,,,,,,,,,,,,,1,,,67,49
290760,note_on,600,0,1,,,,,,,,,,,,,,,0,,,71,49
290880,note_on,960,0,4,,,,,,,,,,,,,,,3,,,43,48
290880,note_on,0,0,3,,,,,,,,,,,,,,,2,,,47,48
290880,note_on,0,0,3,,,,,,,,,,,,,,,2,,,50,48
290880,note_on,960,0,3,,,,,,,,,,,,,,,2,,,55,48
291480,note_off,720,0,2,,,,,,,,,,,,,,,1,,,59,0
291480,note_off,0,0,2,,,,,,,,,,,,,,,1,,,67,0
291480,note_off,720,0,1,,,,,,,,,,,,,,,0,,,71,0
291480,note_off,0,0,2,,,,,,,,,,,,,,,1,,,62,0
291600,note_on,120,0,1,,,,,,,,,,,,,,,0,,,73,49
291680,note_off,80,0,1,,,,,,,,,,,,,,,0,,,73,0
291680,note_on,0,0,1,,,,,,,,,,,,,,,0,,,74,48
291760,note_on,0,0,1,,,,,,,,,,,,,,,0,,,76,46
291760,note_off,80,0,1,,,,,,,,,,,,,,,0,,,74,0
291840,note_off,80,0,1,,,,,,,,,,,,,,,0,,,76,0
291840,note_off,0,0,3,,,,,,,,,,,,,,,2,,,50,0
291840,note_on,0,0,1,,,,,,,,,,,,,,,0,,,74,45
291840,note_off,0,0,3,,,,,,,,,,,,,,,2,,,47,0
291840,note_off,960,0,4,,,,,,,,,,,,,,,3,,,43,0
291840,note_off,960,0,3,,,,,,,,,,,,,,,2,,,55,0
292080,note_off,240,0,1,,,,,,,,,,,,,,,0,,,74,0
292680,note_on,0,0,2,,,,,,,,,,,,,,,1,,,66,47
292680,note_on,0,0,2,,,,,,,,,,,,,,,1,,,62,47
292680,control_change,1200,0,2,,,,,,,,,,,,,64,127,1,,,,
292680,control_change,600,0,1,,,,,,,,,,,,,64,127,0,,,,
292680,note_on,0,0,1,,,,,,,,,,,,,,,0,,,72,47
292800,note_on,0,0,4,,,,,,,,,,,,,,,3,,,60,46
292800,note_on,960,0,4,,,,,,,,,,,,,,,3,,,50,46
292800,note_on,0,0,4,,,,,,,,,,,,,,,3,,,57,46
292920,note_off,0,0,4,,,,,,,,,,,,,,,3,,,60,0
292920,note_off,0,0,4,,,,,,,,,,,,,,,3,,,57,0
292920,note_off,120,0,4,,,,,,,,,,,,,,,3,,,50,0
293640,note_off,960,0,1,,,,,,,,,,,,,,,0,,,72,0
293640,note_on,0,0,1,,,,,,,,,,,,,,,0,,,78,46
293640,note_off,960,0,2,,,,,,,,,,,,,,,1,,,66,0
293640,note_on,0,0,2,,,,,,,,,,,,,,,1,,,66,46
293640,note_on,0,0,2,,,,,,,,,,,,,,,1,,,72,46
293640,note_off,0,0,2,,,,,,,,,,,,,,,1,,,62,0
293760,note_on,840,0,4,,,,,,,,,,,,,,,3,,,38,45
293760,note_on,0,0,4,,,,,,,,,,,,,,,3,,,50,45
293880,note_off,0,0,4,,,,,,,,,,,,,,,3,,,50,0
293880,note_off,120,0,4,,,,,,,,,,,,,,,3,,,38,0
294592,note_off,952,0,2,,,,,,,,,,,,,,,1,,,66,0
294600,note_on,0,0,2,,,,,,,,,,,,,,,1,,,67,44
294600,note_on,0,0,2,,,,,,,,,,,,,,,1,,,71,44
294600,control_change,8,0,2,,,,,,,,,,,,,64,0,1,,,,
294600,control_change,960,0,1,,,,,,,,,,,,,64,0,0,,,,
294600,note_off,0,0,1,,,,,,,,,,,,,,,0,,,78,0
294600,note_on,0,0,1,,,,,,,,,,,,,,,0,,,79,44
294600,note_off,0,0,2,,,,,,,,,,,,,,,1,,,72,0
294720,note_on,840,0,4,,,,,,,,,,,,,,,3,,,43,44
294720,note_on,0,0,4,,,,,,,,,,,,,,,3,,,55,44
294720,set_tempo,4800,1,0,,,,,,,447761,,,,,,,,,,,,
294840,note_off,240,0,2,,,,,,,,,,,,,,,1,,,67,0
294840,note_off,120,0,4,,,,,,,,,,,,,,,3,,,43,0
294840,note_off,0,0,4,,,,,,,,,,,,,,,3,,,55,0
294840,note_off,240,0,1,,,,,,,,,,,,,,,0,,,79,0
294847,note_off,7,0,2,,,,,,,,,,,,,,,1,,,71,0
295200,note_on,360,0,4,,,,,,,,,,,,,,,3,,,43,42
295200,note_on,0,0,4,,,,,,,,,,,,,,,3,,,55,42
295200,note_on,360,0,1,,,,,,,,,,,,,,,0,,,67,42
295200,note_on,0,0,2,,,,,,,,,,,,,,,1,,,59,42
295200,note_on,353,0,2,,,,,,,,,,,,,,,1,,,62,42
295320,note_off,120,0,4,,,,,,,,,,,,,,,3,,,43,0
295320,note_off,120,0,1,,,,,,,,,,,,,,,0,,,67,0
295320,note_off,0,0,2,,,,,,,,,,,,,,,1,,,59,0
295320,note_off,0,0,4,,,,,,,,,,,,,,,3,,,55,0
295320,note_off,120,0,2,,,,,,,,,,,,,,,1,,,62,0
295680,set_tempo,960,1,0,,,,,,,461538,,,,,,,,,,,,
296400,set_tempo,720,1,0,,,,,,,441176,,,,,,,,,,,,
296520,note_on,0,0,2,,,,,,,,,,,,,,,1,,,62,42
296520,note_on,1200,0,2,,,,,,,,,,,,,,,1,,,66,42
296520,note_on,1200,0,1,,,,,,,,,,,,,,,0,,,69,42
296640,note_on,0,0,4,,,,,,,,,,,,,,,3,,,57,42
296640,note_on,0,0,4,,,,,,,,,,,,,,,3,,,60,42
296640,note_on,1320,0,4,,,,,,,,,,,,,,,3,,,50,42
297352,note_off,832,0,2,,,,,,,,,,,,,,,1,,,62,0
297360,note_off,8,0,2,,,,,,,,,,,,,,,1,,,66,0
297360,note_on,840,0,1,,,,,,,,,,,,,,,0,,,74,41
297367,note_off,7,0,1,,,,,,,,,,,,,,,0,,,69,0
297440,note_on,0,0,1,,,,,,,,,,,,,,,0,,,78,39
297440,note_off,73,0,1,,,,,,,,,,,,,,,0,,,74,0
297520,note_off,80,0,1,,,,,,,,,,,,,,,0,,,78,0
297520,note_on,0,0,1,,,,,,,,,,,,,,,0,,,81,38
297600,note_off,960,0,4,,,,,,,,,,,,,,,3,,,50,0
297600,note_on,0,0,1,,,,,,,,,,,,,,,0,,,86,37
297600,note_off,80,0,1,,,,,,,,,,,,,,,0,,,81,0
297600,note_off,0,0,4,,,,,,,,,,,,,,,3,,,57,0
297600,note_off,0,0,4,,,,,,,,,,,,,,,3,,,60,0
297840,note_off,240,0,1,,,,,,,,,,,,,,,0,,,86,0
298440,note_on,0,0,2,,,,,,,,,,,,,,,1,,,62,39
298440,note_on,600,0,1,,,,,,,,,,,,,,,0,,,71,39
298440,note_on,0,0,2,,,,,,,,,,,,,,,1,,,59,39
298440,note_on,1080,0,2,,,,,,,,,,,,,,,1,,,67,39
298560,note_on,0,0,4,,,,,,,,,,,,,,,3,,,43,40
298560,note_on,0,0,4,,,,,,,,,,,,,,,3,,,47,40
298560,note_on,0,0,4,,,,,,,,,,,,,,,3,,,50,40
298560,note_on,960,0,4,,,,,,,,,,,,,,,3,,,55,40
299265,note_off,825,0,2,,,,,,,,,,,,,,,1,,,62,0
299265,note_off,0,0,2,,,,,,,,,,,,,,,1,,,59,0
299272,note_off,7,0,2,,,,,,,,,,,,,,,1,,,67,0
299280,note_off,840,0,1,,,,,,,,,,,,,,,0,,,71,0
299280,note_on,0,0,1,,,,,,,,,,,,,,,0,,,74,39
299360,note_off,80,0,1,,,,,,,,,,,,,,,0,,,74,0
299360,note_on,0,0,1,,,,,,,,,,,,,,,0,,,79,38
299440,note_on,0,0,1,,,,,,,,,,,,,,,0,,,83,37
299440,note_off,80,0,1,,,,,,,,,,,,,,,0,,,79,0
299520,note_on,0,0,1,,,,,,,,,,,,,,,0,,,86,35
299520,note_off,0,0,4,,,,,,,,,,,,,,,3,,,43,0
299520,note_off,0,0,4,,,,,,,,,,,,,,,3,,,47,0
299520,note_off,0,0,4,,,,,,,,,,,,,,,3,,,50,0
299520,note_off,960,0,4,,,,,,,,,,,,,,,3,,,55,0
299520,note_off,80,0,1,,,,,,,,,,,,,,,0,,,83,0
299760,note_off,240,0,1,,,,,,,,,,,,,,,0,,,86,0
300360,control_change,1088,0,2,,,,,,,,,,,,,64,127,1,,,,
300360,note_on,0,0,2,,,,,,,,,,,,,,,1,,,62,37
300360,note_on,0,0,2,,,,,,,,,,,,,,,1,,,66,37
300360,control_change,600,0,1,,,,,,,,,,,,,64,127,0,,,,
300360,note_on,0,0,1,,,,,,,,,,,,,,,0,,,72,37
300480,note_on,0,0,4,,,,,,,,,,,,,,,3,,,50,37
300480,note_on,960,0,4,,,,,,,,,,,,,,,3,,,60,37
300480,note_on,0,0,4,,,,,,,,,,,,,,,3,,,57,37
300600,note_off,0,0,4,,,,,,,,,,,,,,,3,,,50,0
300600,note_off,120,0,4,,,,,,,,,,,,,,,3,,,60,0
300600,note_off,0,0,4,,,,,,,,,,,,,,,3,,,57,0
301320,note_off,960,0,2,,,,,,,,,,,,,,,1,,,62,0
301320,note_on,0,0,2,,,,,,,,,,,,,,,1,,,66,35
301320,note_on,0,0,2,,,,,,,,,,,,,,,1,,,72,35
301320,note_off,0,0,2,,,,,,,,,,,,,,,1,,,66,0
301320,note_on,0,0,1,,,,,,,,,,,,,,,0,,,78,35
301320,note_off,960,0,1,,,,,,,,,,,,,,,0,,,72,0
301440,note_on,0,0,4,,,,,,,,,,,,,,,3,,,38,36
301440,note_on,840,0,4,,,,,,,,,,,,,,,3,,,50,36
301560,note_off,120,0,4,,,,,,,,,,,,,,,3,,,50,0
301560,note_off,0,0,4,,,,,,,,,,,,,,,3,,,38,0
302272,note_off,952,0,2,,,,,,,,,,,,,,,1,,,66,0
302280,note_on,0,0,2,,,,,,,,,,,,,,,1,,,67,34
302280,control_change,960,0,1,,,,,,,,,,,,,64,0,0,,,,
302280,note_off,0,0,1,,,,,,,,,,,,,,,0,,,78,0
302280,note_on,0,0,1,,,,,,,,,,,,,,,0,,,79,34
302280,control_change,8,0,2,,,,,,,,,,,,,64,0,1,,,,
302280,note_off,0,0,2,,,,,,,,,,,,,,,1,,,72,0
302280,note_on,0,0,2,,,,,,,,,,,,,,,1,,,71,34
302400,note_on,840,0,4,,,,,,,,,,,,,,,3,,,55,35
302400,set_tempo,6000,1,0,,,,,,,447761,,,,,,,,,,,,
302400,note_on,0,0,4,,,,,,,,,,,,,,,3,,,43,35
302520,note_off,0,0,4,,,,,,,,,,,,,,,3,,,43,0
302520,note_off,240,0,1,,,,,,,,,,,,,,,0,,,79,0
302520,note_off,120,0,4,,,,,,,,,,,,,,,3,,,55,0
302520,note_off,240,0,2,,,,,,,,,,,,,,,1,,,67,0
302527,note_off,7,0,2,,,,,,,,,,,,,,,1,,,71,0
302880,note_on,360,0,1,,,,,,,,,,,,,,,0,,,67,30
302880,note_on,0,0,4,,,,,,,,,,,,,,,3,,,43,32
302880,note_on,360,0,4,,,,,,,,,,,,,,,3,,,55,32
303000,note_off,120,0,4,,,,,,,,,,,,,,,3,,,55,0
303000,note_off,0,0,4,,,,,,,,,,,,,,,3,,,43,0
303000,note_off,120,0,1,,,,,,,,,,,,,,,0,,,67,0
303360,set_tempo,960,1,0,,,,,,,461538,,,,,,,,,,,,
304200,note_on,1673,0,2,,,,,,,,,,,,,,,1,,,66,32
304200,note_on,0,0,2,,,,,,,,,,,,,,,1,,,62,32
304200,set_tempo,840,1,0,,,,,,,447761,,,,,,,,,,,,
304200,note_on,1200,0,1,,,,,,,,,,,,,,,0,,,72,32
304320,note_on,1320,0,4,,,,,,,,,,,,,,,3,,,50,33
304320,note_on,0,0,4,,,,,,,,,,,,,,,3,,,57,33
304320,note_on,0,0,4,,,,,,,,,,,,,,,3,,,60,33
304440,note_off,120,0,4,,,,,,,,,,,,,,,3,,,50,0
304440,note_off,0,0,4,,,,,,,,,,,,,,,3,,,57,0
304440,note_off,0,0,4,,,,,,,,,,,,,,,3,,,60,0
305160,note_on,0,0,2,,,,,,,,,,,,,,,1,,,69,30
305160,note_on,0,0,2,,,,,,,,,,,,,,,1,,,78,30
305160,note_off,960,0,2,,,,,,,,,,,,,,,1,,,66,0
305160,note_off,0,0,2,,,,,,,,,,,,,,,1,,,62,0
305160,note_off,960,0,1,,,,,,,,,,,,,,,0,,,72,0
305160,note_on,0,0,1,,,,,,,,,,,,,,,0,,,81,30
305280,note_off,0,0,2,,,,,,,,,,,,,,,1,,,69,0
305280,note_off,120,0,2,,,,,,,,,,,,,,,1,,,78,0
305280,note_on,840,0,4,,,,,,,,,,,,,,,3,,,38,32
305280,note_on,0,0,4,,,,,,,,,,,,,,,3,,,50,32
305400,note_off,120,0,4,,,,,,,,,,,,,,,3,,,38,0
305400,note_off,0,0,4,,,,,,,,,,,,,,,3,,,50,0
306120,note_on,0,0,2,,,,,,,,,,,,,,,1,,,71,29
306120,note_on,840,0,2,,,,,,,,,,,,,,,1,,,79,29
306120,note_on,0,0,1,,,,,,,,,,,,,,,0,,,83,29
306120,note_off,960,0,1,,,,,,,,,,,,,,,0,,,81,0
306240,note_on,0,0,4,,,,,,,,,,,,,,,3,,,55,31
306240,set_tempo,2040,1,0,,,,,,,454545,,,,,,,,,,,,
306240,note_on,840,0,4,,,,,,,,,,,,,,,3,,,43,31
306360,note_off,120,0,4,,,,,,,,,,,,,,,3,,,43,0
306360,note_off,0,0,4,,,,,,,,,,,,,,,3,,,55,0
306360,note_off,240,0,1,,,,,,,,,,,,,,,0,,,83,0
306360,note_off,240,0,2,,,,,,,,,,,,,,,1,,,71,0
306367,note_off,7,0,2,,,,,,,,,,,,,,,1,,,79,0
306720,note_on,360,0,1,,,,,,,,,,,,,,,0,,,71,26
306720,note_on,0,0,4,,,,,,,,,,,,,,,3,,,55,28
306720,note_on,0,0,2,,,,,,,,,,,,,,,1,,,62,26
306720,note_on,360,0,4,,,,,,,,,,,,,,,3,,,43,28
306720,note_on,353,0,2,,,,,,,,,,,,,,,1,,,67,26
306720,note_on,0,0,2,,,,,,,,,,,,,,,1,,,59,26
306840,note_off,120,0,4,,,,,,,,,,,,,,,3,,,43,0
306840,note_off,0,0,4,,,,,,,,,,,,,,,3,,,55,0
306840,note_off,120,0,2,,,,,,,,,,,,,,,1,,,67,0
306840,note_off,0,0,2,,,,,,,,,,,,,,,1,,,62,0
306840,note_off,0,0,2,,,,,,,,,,,,,,,1,,,59,0
306840,note_off,120,0,1,,,,,,,,,,,,,,,0,,,71,0
307200,set_tempo,960,1,0,,,,,,,472440,,,,,,,,,,,,
307920,set_tempo,720,1,0,,,,,,,441176,,,,,,,,,,,,
308040,control_change,1200,0,2,,,,,,,,,,,,,64,127,1,,,,
308040,note_on,0,0,2,,,,,,,,,,,,,,,1,,,72,97
308040,note_on,0,0,2,,,,,,,,,,,,,,,1,,,62,97
308040,note_on,0,0,2,,,,,,,,,,,,,,,1,,,69,97
308040,note_on,0,0,1,,,,,,,,,,,,,,,0,,,74,97
308040,control_change,1200,0,1,,,,,,,,,,,,,64,127,0,,,,
308160,note_on,1320,0,4,,,,,,,,,,,,,,,3,,,50,97
308160,note_on,0,0,4,,,,,,,,,,,,,,,3,,,57,97
308160,note_on,0,0,4,,,,,,,,,,,,,,,3,,,60,97
308340,note_off,0,0,4,,,,,,,,,,,,,,,3,,,60,0
308340,note_off,0,0,4,,,,,,,,,,,,,,,3,,,57,0
308340,note_off,180,0,4,,,,,,,,,,,,,,,3,,,50,0
309000,note_off,0,0,2,,,,,,,,,,,,,,,1,,,69,0
309000,note_on,0,0,2,,,,,,,,,,,,,,,1,,,81,94
309000,note_on,960,0,1,,,,,,,,,,,,,,,0,,,86,94
309000,note_off,0,0,2,,,,,,,,,,,,,,,1,,,62,0
309000,note_off,960,0,2,,,,,,,,,,,,,,,1,,,72,0
309000,note_on,0,0,2,,,,,,,,,,,,,,,1,,,78,94
309007,note_off,7,0,1,,,,,,,,,,,,,,,0,,,74,0
309120,note_on,0,0,4,,,,,,,,,,,,,,,3,,,50,93
309120,note_on,780,0,4,,,,,,,,,,,,,,,3,,,38,93
309300,note_off,180,0,4,,,,,,,,,,,,,,,3,,,38,0
309300,note_off,0,0,4,,,,,,,,,,,,,,,3,,,50,0
309960,note_off,0,0,2,,,,,,,,,,,,,,,1,,,78,0
309960,note_off,0,0,1,,,,,,,,,,,,,,,0,,,86,0
309960,note_on,0,0,1,,,,,,,,,,,,,,,0,,,83,91
309960,control_change,960,0,2,,,,,,,,,,,,,64,0,1,,,,
309960,note_off,0,0,2,,,,,,,,,,,,,,,1,,,81,0
309960,control_change,953,0,1,,,,,,,,,,,,,64,0,0,,,,
309960,note_on,0,0,2,,,,,,,,,,,,,,,1,,,79,91
309960,note_on,0,0,2,,,,,,,,,,,,,,,1,,,71,91
309960,note_on,0,0,2,,,,,,,,,,,,,,,1,,,67,91
310080,note_on,780,0,4,,,,,,,,,,,,,,,3,,,43,89
310080,note_on,0,0,4,,,,,,,,,,,,,,,3,,,55,89
310080,set_tempo,2160,1,0,,,,,,,447761,,,,,,,,,,,,
310200,note_off,0,0,2,,,,,,,,,,,,,,,1,,,67,0
310200,note_off,120,0,4,,,,,,,,,,,,,,,3,,,43,0
310200,note_off,0,0,4,,,,,,,,,,,,,,,3,,,55,0
310200,note_off,240,0,2,,,,,,,,,,,,,,,1,,,79,0
310207,note_off,7,0,2,,,,,,,,,,,,,,,1,,,71,0
310207,note_off,247,0,1,,,,,,,,,,,,,,,0,,,83,0
310560,note_on,353,0,1,,,,,,,,,,,,,,,0,,,59,89
310560,note_on,360,0,4,,,,,,,,,,,,,,,3,,,43,87
310560,note_on,0,0,4,,,,,,,,,,,,,,,3,,,55,87
310680,note_off,120,0,4,,,,,,,,,,,,,,,3,,,43,0
310680,note_off,120,0,1,,,,,,,,,,,,,,,0,,,59,0
310680,note_off,0,0,4,,,,,,,,,,,,,,,3,,,55,0
311520,set_tempo,1440,1,0,,,,,,,526315,,,,,,,,,,,,
312000,note_on,1320,0,4,,,,,,,,,,,,,,,3,,,31,47
312000,note_on,0,0,4,,,,,,,,,,,,,,,3,,,43,47
312000,note_on,1320,0,1,,,,,,,,,,,,,,,0,,,79,47
312000,note_on,0,0,2,,,,,,,,,,,,,,,1,,,71,47
312000,note_on,1793,0,2,,,,,,,,,,,,,,,1,,,74,47
312000,note_on,0,0,2,,,,,,,,,,,,,,,1,,,67,47
312120,note_off,120,0,1,,,,,,,,,,,,,,,0,,,79,0
312120,note_off,0,0,2,,,,,,,,,,,,,,,1,,,71,0
312120,note_off,0,0,2,,,,,,,,,,,,,,,1,,,67,0
312120,note_off,0,0,4,,,,,,,,,,,,,,,3,,,43,0
312120,note_off,120,0,4,,,,,,,,,,,,,,,3,,,31,0
312120,note_off,120,0,2,,,,,,,,,,,,,,,1,,,74,0
312480,note_on,360,0,2,,,,,,,,,,,,,,,1,,,50,43
312480,note_on,0,0,2,,,,,,,,,,,,,,,1,,,47,43
312480,note_on,0,0,4,,,,,,,,,,,,,,,3,,,43,43
312480,note_on,360,0,4,,,,,,,,,,,,,,,3,,,31,43
312480,note_on,360,0,1,,,,,,,,,,,,,,,0,,,55,43
312600,note_off,120,0,2,,,,,,,,,,,,,,,1,,,50,0
312600,note_off,0,0,2,,,,,,,,,,,,,,,1,,,47,0
312600,note_off,0,0,4,,,,,,,,,,,,,,,3,,,43,0
312600,note_off,120,0,4,,,,,,,,,,,,,,,3,,,31,0
312600,note_off,120,0,1,,,,,,,,,,,,,,,0,,,55,0
313920,control_change,0,0,2,,,,,,,,,,,,,64,0,1,,,,
313920,control_change,0,0,2,,,,,,,,,,,,,1,0,1,,,,
313920,pitchwheel,0,0,2,,,,,,,,,,,,,,,1,,0,,
313920,control_change,1320,0,2,,,,,,,,,,,,,7,117,1,,,,
313920,control_change,1320,0,4,,,,,,,,,,,,,7,117,3,,,,
313920,pitchwheel,0,0,4,,,,,,,,,,,,,,,3,,0,,
313920,control_change,0,0,4,,,,,,,,,,,,,64,0,3,,,,
313920,control_change,0,0,4,,,,,,,,,,,,,93,28,3,,,,
313920,control_change,0,0,4,,,,,,,,,,,,,91,91,3,,,,
313920,control_change,0,0,4,,,,,,,,,,,,,10,55,3,,,,
313920,control_change,0,0,4,,,,,,,,,,,,,0,0,3,,,,
313920,control_change,0,0,2,,,,,,,,,,,,,93,28,1,,,,
313920,control_change,0,0,4,,,,,,,,,,,,,32,0,3,,,,
313920,control_change,1320,0,1,,,,,,,,,,,,,10,73,0,,,,
313920,control_change,0,0,1,,,,,,,,,,,,,91,91,0,,,,
313920,control_change,0,0,1,,,,,,,,,,,,,93,28,0,,,,
313920,control_change,0,0,1,,,,,,,,,,,,,64,0,0,,,,
313920,control_change,0,0,1,,,,,,,,,,,,,1,0,0,,,,
313920,control_change,0,0,1,,,,,,,,,,,,,7,127,0,,,,
313920,control_change,0,0,1,,,,,,,,,,,,,0,0,0,,,,
313920,control_change,0,0,1,,,,,,,,,,,,,32,0,0,,,,
313920,pitchwheel,0,0,1,,,,,,,,,,,,,,,0,,0,,
313920,program_change,0,0,1,,,,,,,,,,,,,,,0,0,,,
313920,program_change,0,0,4,,,,,,,,,,,,,,,3,0,,,
313920,control_change,0,0,2,,,,,,,,,,,,,91,91,1,,,,
313920,control_change,0,0,4,,,,,,,,,,,,,1,0,3,,,,
313920,control_change,0,0,2,,,,,,,,,,,,,0,0,1,,,,
313920,control_change,0,0,2,,,,,,,,,,,,,10,64,1,,,,
313920,time_signature,0,1,0,,,,,,,,9,8,24,8,,,,,,,,
313920,set_tempo,2400,1,0,,,,,,,750000,,,,,,,,,,,,
313920,program_change,0,0,3,,,,,,,,,,,,,,,2,0,,,
313920,control_change,0,0,3,,,,,,,,,,,,,32,0,2,,,,
313920,control_change,0,0,3,,,,,,,,,,,,,0,0,2,,,,
313920,control_change,0,0,3,,,,,,,,,,,,,7,112,2,,,,
313920,pitchwheel,0,0,3,,,,,,,,,,,,,,,2,,0,,
313920,control_change,0,0,3,,,,,,,,,,,,,1,0,2,,,,
313920,marker,0,1,0,,,,,,,,,,,,,,,,,,,
313920,control_change,0,0,3,,,,,,,,,,,,,93,28,2,,,,
313920,control_change,0,0,3,,,,,,,,,,,,,91,91,2,,,,
313920,control_change,22080,0,3,,,,,,,,,,,,,10,64,2,,,,
313920,control_change,0,0,3,,,,,,,,,,,,,64,0,2,,,,
313920,control_change,0,0,2,,,,,,,,,,,,,32,0,1,,,,
313920,program_change,0,0,2,,,,,,,,,,,,,,,1,0,,,
316080,control_change,0,0,1,,,,,,,,,,,,,64,0,0,,,,
316080,note_on,2160,0,1,,,,,,,,,,,,,,,0,,,72,34
316080,set_tempo,2160,1,0,,,,,,,491803,,,,,,,,,,,,
316080,control_change,0,0,3,,,,,,,,,,,,,64,0,2,,,,
316080,note_on,2160,0,3,,,,,,,,,,,,,,,2,,,52,32
316080,note_on,2160,0,4,,,,,,,,,,,,,,,3,,,48,44
316160,note_on,80,0,1,,,,,,,,,,,,,,,0,,,74,34
316190,set_tempo,110,1,0,,,,,,,472440,,,,,,,,,,,,
316230,note_off,70,0,1,,,,,,,,,,,,,,,0,,,72,0
316240,note_on,10,0,1,,,,,,,,,,,,,,,0,,,72,35
316260,note_off,180,0,3,,,,,,,,,,,,,,,2,,,52,0
316310,note_off,70,0,1,,,,,,,,,,,,,,,0,,,74,0
316320,note_on,10,0,1,,,,,,,,,,,,,,,0,,,74,35
316390,note_off,70,0,1,,,,,,,,,,,,,,,0,,,72,0
316400,note_on,10,0,1,,,,,,,,,,,,,,,0,,,72,36
316470,note_off,70,0,1,,,,,,,,,,,,,,,0,,,74,0
316480,note_on,10,0,1,,,,,,,,,,,,,,,0,,,74,36
316550,note_off,70,0,1,,,,,,,,,,,,,,,0,,,72,0
316560,note_on,10,0,1,,,,,,,,,,,,,,,0,,,72,37
316560,note_on,300,0,3,,,,,,,,,,,,,,,2,,,55,33
316630,note_off,70,0,1,,,,,,,,,,,,,,,0,,,74,0
316640,note_on,10,0,1,,,,,,,,,,,,,,,0,,,74,37
316710,note_off,70,0,1,,,,,,,,,,,,,,,0,,,72,0
316720,note_on,10,0,1,,,,,,,,,,,,,,,0,,,72,38
316750,note_off,190,0,3,,,,,,,,,,,,,,,2,,,55,0
316790,note_off,70,0,1,,,,,,,,,,,,,,,0,,,74,0
316800,note_on,10,0,1,,,,,,,,,,,,,,,0,,,74,38
316870,note_off,70,0,1,,,,,,,,,,,,,,,0,,,72,0
316880,note_on,10,0,1,,,,,,,,,,,,,,,0,,,72,39
316950,note_off,70,0,1,,,,,,,,,,,,,,,0,,,74,0
316960,note_on,10,0,1,,,,,,,,,,,,,,,0,,,74,39
317030,note_off,70,0,1,,,,,,,,,,,,,,,0,,,72,0
317040,note_on,10,0,1,,,,,,,,,,,,,,,0,,,72,40
317040,note_on,290,0,3,,,,,,,,,,,,,,,2,,,60,34
317110,note_off,70,0,1,,,,,,,,,,,,,,,0,,,74,0
317120,note_on,10,0,1,,,,,,,,,,,,,,,0,,,74,40
317190,note_off,70,0,1,,,,,,,,,,,,,,,0,,,72,0
317200,note_on,10,0,1,,,,,,,,,,,,,,,0,,,72,40
317230,note_off,190,0,3,,,,,,,,,,,,,,,2,,,60,0
317270,note_off,70,0,1,,,,,,,,,,,,,,,0,,,74,0
317280,note_on,10,0,1,,,,,,,,,,,,,,,0,,,74,41
317350,note_off,70,0,1,,,,,,,,,,,,,,,0,,,72,0
317360,note_on,10,0,1,,,,,,,,,,,,,,,0,,,72,41
317430,note_off,70,0,1,,,,,,,,,,,,,,,0,,,74,0
317440,note_on,10,0,1,,,,,,,,,,,,,,,0,,,74,42
317510,note_off,70,0,1,,,,,,,,,,,,,,,0,,,72,0
317520,note_on,10,0,1,,,,,,,,,,,,,,,0,,,72,42
317520,note_on,290,0,3,,,,,,,,,,,,,,,2,,,52,35
317590,note_off,70,0,1,,,,,,,,,,,,,,,0,,,74,0
317600,note_on,10,0,1,,,,,,,,,,,,,,,0,,,74,43
317670,note_off,70,0,1,,,,,,,,,,,,,,,0,,,72,0
317680,note_on,10,0,1,,,,,,,,,,,,,,,0,,,72,43
317710,note_off,190,0,3,,,,,,,,,,,,,,,2,,,52,0
317750,note_off,70,0,1,,,,,,,,,,,,,,,0,,,74,0
317760,note_on,10,0,1,,,,,,,,,,,,,,,0,,,74,44
317830,note_off,70,0,1,,,,,,,,,,,,,,,0,,,72,0
317840,note_on,10,0,1,,,,,,,,,,,,,,,0,,,72,44
317910,note_off,70,0,1,,,,,,,,,,,,,,,0,,,74,0
317920,note_on,10,0,1,,,,,,,,,,,,,,,0,,,74,45
317975,note_off,55,0,1,,,,,,,,,,,,,,,0,,,72,0
318000,note_on,25,0,1,,,,,,,,,,,,,,,0,,,72,45
318000,note_on,290,0,3,,,,,,,,,,,,,,,2,,,55,36
318070,note_off,70,0,1,,,,,,,,,,,,,,,0,,,74,0
318080,note_on,10,0,1,,,,,,,,,,,,,,,0,,,74,46
318150,note_off,70,0,1,,,,,,,,,,,,,,,0,,,72,0
318160,note_on,10,0,1,,,,,,,,,,,,,,,0,,,72,46
318185,note_off,185,0,3,,,,,,,,,,,,,,,2,,,55,0
318230,note_off,70,0,1,,,,,,,,,,,,,,,0,,,74,0
318240,note_on,10,0,1,,,,,,,,,,,,,,,0,,,74,47
318310,note_off,70,0,1,,,,,,,,,,,,,,,0,,,72,0
318320,note_on,10,0,1,,,,,,,,,,,,,,,0,,,72,47
318390,note_off,70,0,1,,,,,,,,,,,,,,,0,,,74,0
318400,note_on,10,0,1,,,,,,,,,,,,,,,0,,,74,48
318470,note_off,70,0,1,,,,,,,,,,,,,,,0,,,72,0
318480,note_on,10,0,1,,,,,,,,,,,,,,,0,,,72,48
318480,note_on,295,0,3,,,,,,,,,,,,,,,2,,,60,38
318550,note_off,70,0,1,,,,,,,,,,,,,,,0,,,74,0
318560,note_on,10,0,1,,,,,,,,,,,,,,,0,,,74,48
318600,note_off,40,0,1,,,,,,,,,,,,,,,0,,,72,0
318640,note_on,40,0,1,,,,,,,,,,,,,,,0,,,72,49
318670,note_off,190,0,3,,,,,,,,,,,,,,,2,,,60,0
318710,note_off,70,0,1,,,,,,,,,,,,,,,0,,,74,0
318720,note_on,10,0,1,,,,,,,,,,,,,,,0,,,71,49
318765,note_off,45,0,1,,,,,,,,,,,,,,,0,,,72,0
318780,set_tempo,2590,1,0,,,,,,,476190,,,,,,,,,,,,
318840,set_tempo,60,1,0,,,,,,,483870,,,,,,,,,,,,
318840,note_on,75,0,1,,,,,,,,,,,,,,,0,,,72,52
318885,note_off,45,0,1,,,,,,,,,,,,,,,0,,,71,0
318960,note_on,290,0,3,,,,,,,,,,,,,,,2,,,52,41
318960,note_on,75,0,1,,,,,,,,,,,,,,,0,,,76,55
318960,set_tempo,120,1,0,,,,,,,472440,,,,,,,,,,,,
319040,note_off,80,0,1,,,,,,,,,,,,,,,0,,,72,0
319150,note_off,190,0,3,,,,,,,,,,,,,,,2,,,52,0
319440,note_on,290,0,3,,,,,,,,,,,,,,,2,,,55,40
319630,note_off,190,0,3,,,,,,,,,,,,,,,2,,,55,0
319920,note_on,290,0,3,,,,,,,,,,,,,,,2,,,60,39
320110,note_off,190,0,3,,,,,,,,,,,,,,,2,,,60,0
320280,note_on,1240,0,1,,,,,,,,,,,,,,,0,,,72,48
320280,set_tempo,1320,1,0,,,,,,,491803,,,,,,,,,,,,
320285,note_off,5,0,1,,,,,,,,,,,,,,,0,,,76,0
320400,set_tempo,120,1,0,,,,,,,472440,,,,,,,,,,,,
320400,note_on,0,0,1,,,,,,,,,,,,,,,0,,,67,46
320400,note_off,4320,0,4,,,,,,,,,,,,,,,3,,,48,0
320400,note_on,290,0,3,,,,,,,,,,,,,,,2,,,52,38
320400,note_off,115,0,1,,,,,,,,,,,,,,,0,,,72,0
320400,note_on,0,0,4,,,,,,,,,,,,,,,3,,,48,48
320590,note_off,190,0,3,,,,,,,,,,,,,,,2,,,52,0
320880,note_on,290,0,3,,,,,,,,,,,,,,,2,,,55,37
321070,note_off,190,0,3,,,,,,,,,,,,,,,2,,,55,0
321360,note_on,290,0,3,,,,,,,,,,,,,,,2,,,60,36
321550,note_off,190,0,3,,,,,,,,,,,,,,,2,,,60,0
321840,note_on,290,0,3,,,,,,,,,,,,,,,2,,,52,35
322030,note_off,190,0,3,,,,,,,,,,,,,,,2,,,52,0
322320,note_on,290,0,3,,,,,,,,,,,,,,,2,,,55,34
322515,note_off,195,0,3,,,,,,,,,,,,,,,2,,,55,0
322800,note_on,285,0,3,,,,,,,,,,,,,,,2,,,60,34
322800,note_on,2400,0,1,,,,,,,,,,,,,,,0,,,66,40
322805,note_off,5,0,1,,,,,,,,,,,,,,,0,,,67,0
322955,note_off,150,0,1,,,,,,,,,,,,,,,0,,,66,0
322990,note_off,190,0,3,,,,,,,,,,,,,,,2,,,60,0
323040,note_on,85,0,1,,,,,,,,,,,,,,,0,,,67,40
323195,note_off,155,0,1,,,,,,,,,,,,,,,0,,,67,0
323280,note_on,290,0,3,,,,,,,,,,,,,,,2,,,52,35
323280,note_on,85,0,1,,,,,,,,,,,,,,,0,,,68,41
323435,note_off,155,0,1,,,,,,,,,,,,,,,0,,,68,0
323470,note_off,190,0,3,,,,,,,,,,,,,,,2,,,52,0
323520,note_on,85,0,1,,,,,,,,,,,,,,,0,,,69,42
323675,note_off,155,0,1,,,,,,,,,,,,,,,0,,,69,0
323760,note_on,85,0,1,,,,,,,,,,,,,,,0,,,70,43
323760,note_on,290,0,3,,,,,,,,,,,,,,,2,,,55,35
323915,note_off,155,0,1,,,,,,,,,,,,,,,0,,,70,0
323950,note_off,190,0,3,,,,,,,,,,,,,,,2,,,55,0
324000,note_on,85,0,1,,,,,,,,,,,,,,,0,,,71,43
324155,note_off,155,0,1,,,,,,,,,,,,,,,0,,,71,0
324240,note_on,290,0,3,,,,,,,,,,,,,,,2,,,60,36
324240,note_on,85,0,1,,,,,,,,,,,,,,,0,,,72,44
324390,set_tempo,3990,1,0,,,,,,,480000,,,,,,,,,,,,
324395,note_off,155,0,1,,,,,,,,,,,,,,,0,,,72,0
324430,note_off,190,0,3,,,,,,,,,,,,,,,2,,,60,0
324460,set_tempo,70,1,0,,,,,,,483870,,,,,,,,,,,,
324480,note_on,85,0,1,,,,,,,,,,,,,,,0,,,73,45
324635,note_off,155,0,1,,,,,,,,,,,,,,,0,,,73,0
324720,note_on,4320,0,4,,,,,,,,,,,,,,,3,,,47,47
324720,set_tempo,260,1,0,,,,,,,491803,,,,,,,,,,,,
324720,note_on,290,0,3,,,,,,,,,,,,,,,2,,,53,37
324720,note_on,85,0,1,,,,,,,,,,,,,,,0,,,74,45
324735,note_off,15,0,4,,,,,,,,,,,,,,,3,,,48,0
324800,note_on,80,0,1,,,,,,,,,,,,,,,0,,,76,40
324840,set_tempo,120,1,0,,,,,,,472440,,,,,,,,,,,,
324870,note_off,70,0,1,,,,,,,,,,,,,,,0,,,74,0
324880,note_on,10,0,1,,,,,,,,,,,,,,,0,,,74,40
324910,note_off,190,0,3,,,,,,,,,,,,,,,2,,,53,0
324950,note_off,70,0,1,,,,,,,,,,,,,,,0,,,76,0
324960,note_on,10,0,1,,,,,,,,,,,,,,,0,,,76,41
325030,note_off,70,0,1,,,,,,,,,,,,,,,0,,,74,0
325040,note_on,10,0,1,,,,,,,,,,,,,,,0,,,74,41
325110,note_off,70,0,1,,,,,,,,,,,,,,,0,,,76,0
325120,note_on,10,0,1,,,,,,,,,,,,,,,0,,,76,42
325190,note_off,70,0,1,,,,,,,,,,,,,,,0,,,74,0
325200,note_on,290,0,3,,,,,,,,,,,,,,,2,,,55,38
325200,note_on,10,0,1,,,,,,,,,,,,,,,0,,,74,42
325270,note_off,70,0,1,,,,,,,,,,,,,,,0,,,76,0
325280,note_on,10,0,1,,,,,,,,,,,,,,,0,,,76,43
325350,note_off,70,0,1,,,,,,,,,,,,,,,0,,,74,0
325360,note_on,10,0,1,,,,,,,,,,,,,,,0,,,74,44
325390,note_off,190,0,3,,,,,,,,,,,,,,,2,,,55,0
325430,note_off,70,0,1,,,,,,,,,,,,,,,0,,,76,0
325440,note_on,10,0,1,,,,,,,,,,,,,,,0,,,76,44
325510,note_off,70,0,1,,,,,,,,,,,,,,,0,,,74,0
325520,note_on,10,0,1,,,,,,,,,,,,,,,0,,,74,45
325590,note_off,70,0,1,,,,,,,,,,,,,,,0,,,76,0
325600,note_on,10,0,1,,,,,,,,,,,,,,,0,,,76,45
325670,note_off,70,0,1,,,,,,,,,,,,,,,0,,,74,0
325680,note_on,290,0,3,,,,,,,,,,,,,,,2,,,62,39
325680,note_on,10,0,1,,,,,,,,,,,,,,,0,,,74,46
325750,note_off,70,0,1,,,,,,,,,,,,,,,0,,,76,0
325760,note_on,10,0,1,,,,,,,,,,,,,,,0,,,76,46
325830,note_off,70,0,1,,,,,,,,,,,,,,,0,,,74,0
325840,note_on,10,0,1,,,,,,,,,,,,,,,0,,,74,47
325870,note_off,190,0,3,,,,,,,,,,,,,,,2,,,62,0
325910,note_off,70,0,1,,,,,,,,,,,,,,,0,,,76,0
325920,note_on,10,0,1,,,,,,,,,,,,,,,0,,,76,47
325990,note_off,70,0,1,,,,,,,,,,,,,,,0,,,74,0
326000,note_on,10,0,1,,,,,,,,,,,,,,,0,,,74,48
326070,note_off,70,0,1,,,,,,,,,,,,,,,0,,,76,0
326080,note_on,10,0,1,,,,,,,,,,,,,,,0,,,76,48
326150,note_off,70,0,1,,,,,,,,,,,,,,,0,,,74,0
326160,note_on,10,0,1,,,,,,,,,,,,,,,0,,,74,49
326160,note_on,290,0,3,,,,,,,,,,,,,,,2,,,53,40
326230,note_off,70,0,1,,,,,,,,,,,,,,,0,,,76,0
326240,note_on,10,0,1,,,,,,,,,,,,,,,0,,,76,50
326310,note_off,70,0,1,,,,,,,,,,,,,,,0,,,74,0
326320,note_on,10,0,1,,,,,,,,,,,,,,,0,,,74,50
326350,note_off,190,0,3,,,,,,,,,,,,,,,2,,,53,0
326390,note_off,70,0,1,,,,,,,,,,,,,,,0,,,76,0
326400,note_on,10,0,1,,,,,,,,,,,,,,,0,,,76,51
326470,note_off,70,0,1,,,,,,,,,,,,,,,0,,,74,0
326480,note_on,10,0,1,,,,,,,,,,,,,,,0,,,74,51
326545,note_off,65,0,1,,,,,,,,,,,,,,,0,,,76,0
326560,note_on,15,0,1,,,,,,,,,,,,,,,0,,,76,52
326625,note_off,65,0,1,,,,,,,,,,,,,,,0,,,74,0
326640,note_on,15,0,1,,,,,,,,,,,,,,,0,,,74,52
326640,note_on,290,0,3,,,,,,,,,,,,,,,2,,,55,41
326710,note_off,70,0,1,,,,,,,,,,,,,,,0,,,76,0
326720,note_on,10,0,1,,,,,,,,,,,,,,,0,,,76,53
326790,note_off,70,0,1,,,,,,,,,,,,,,,0,,,74,0
326800,note_on,10,0,1,,,,,,,,,,,,,,,0,,,74,53
326835,note_off,195,0,3,,,,,,,,,,,,,,,2,,,55,0
326870,note_off,70,0,1,,,,,,,,,,,,,,,0,,,76,0
326880,note_on,10,0,1,,,,,,,,,,,,,,,0,,,76,54
326950,note_off,70,0,1,,,,,,,,,,,,,,,0,,,74,0
326960,note_on,10,0,1,,,,,,,,,,,,,,,0,,,74,54
327030,note_off,70,0,1,,,,,,,,,,,,,,,0,,,76,0
327040,note_on,10,0,1,,,,,,,,,,,,,,,0,,,76,55
327110,note_off,70,0,1,,,,,,,,,,,,,,,0,,,74,0
327120,note_on,10,0,1,,,,,,,,,,,,,,,0,,,74,56
327120,note_on,285,0,3,,,,,,,,,,,,,,,2,,,62,42
327190,note_off,70,0,1,,,,,,,,,,,,,,,0,,,76,0
327200,note_on,10,0,1,,,,,,,,,,,,,,,0,,,76,56
327270,note_off,70,0,1,,,,,,,,,,,,,,,0,,,74,0
327280,note_on,10,0,1,,,,,,,,,,,,,,,0,,,74,57
327310,note_off,190,0,3,,,,,,,,,,,,,,,2,,,62,0
327350,note_off,70,0,1,,,,,,,,,,,,,,,0,,,76,0
327360,note_on,10,0,1,,,,,,,,,,,,,,,0,,,73,57
327415,note_off,55,0,1,,,,,,,,,,,,,,,0,,,74,0
327420,set_tempo,2580,1,0,,,,,,,476190,,,,,,,,,,,,
327480,note_on,65,0,1,,,,,,,,,,,,,,,0,,,74,60
327480,set_tempo,60,1,0,,,,,,,483870,,,,,,,,,,,,
327540,note_off,60,0,1,,,,,,,,,,,,,,,0,,,73,0
327600,note_on,290,0,3,,,,,,,,,,,,,,,2,,,53,43
327600,set_tempo,120,1,0,,,,,,,472440,,,,,,,,,,,,
327600,note_on,60,0,1,,,,,,,,,,,,,,,0,,,77,63
327675,note_off,75,0,1,,,,,,,,,,,,,,,0,,,74,0
327790,note_off,190,0,3,,,,,,,,,,,,,,,2,,,53,0
328080,note_on,290,0,3,,,,,,,,,,,,,,,2,,,55,40
328270,note_off,190,0,3,,,,,,,,,,,,,,,2,,,55,0
328560,note_on,290,0,3,,,,,,,,,,,,,,,2,,,62,39
328750,note_off,190,0,3,,,,,,,,,,,,,,,2,,,62,0
328920,set_tempo,1320,1,0,,,,,,,491803,,,,,,,,,,,,
328920,note_on,0,0,1,,,,,,,,,,,,,,,0,,,74,58
328920,note_off,1245,0,1,,,,,,,,,,,,,,,0,,,77,0
329025,note_off,4290,0,4,,,,,,,,,,,,,,,3,,,47,0
329040,note_on,290,0,3,,,,,,,,,,,,,,,2,,,53,38
329040,set_tempo,120,1,0,,,,,,,472440,,,,,,,,,,,,
329040,note_off,120,0,1,,,,,,,,,,,,,,,0,,,74,0
329040,note_on,0,0,1,,,,,,,,,,,,,,,0,,,67,56
329040,note_on,15,0,4,,,,,,,,,,,,,,,3,,,47,50
329230,note_off,190,0,3,,,,,,,,,,,,,,,2,,,53,0
329520,note_on,290,0,3,,,,,,,,,,,,,,,2,,,55,37
329710,note_off,190,0,3,,,,,,,,,,,,,,,2,,,55,0
330000,note_on,290,0,3,,,,,,,,,,,,,,,2,,,62,36
330190,note_off,190,0,3,,,,,,,,,,,,,,,2,,,62,0
330480,note_on,290,0,3,,,,,,,,,,,,,,,2,,,53,35
330670,note_off,190,0,3,,,,,,,,,,,,,,,2,,,53,0
330960,note_on,290,0,3,,,,,,,,,,,,,,,2,,,55,36
331150,note_off,190,0,3,,,,,,,,,,,,,,,2,,,55,0
331430,note_off,2390,0,1,,,,,,,,,,,,,,,0,,,67,0
331440,note_on,10,0,1,,,,,,,,,,,,,,,0,,,67,50
331440,note_on,290,0,3,,,,,,,,,,,,,,,2,,,62,36
331595,note_off,155,0,1,,,,,,,,,,,,,,,0,,,67,0
331630,note_off,190,0,3,,,,,,,,,,,,,,,2,,,62,0
331680,note_on,85,0,1,,,,,,,,,,,,,,,0,,,69,52
331835,note_off,155,0,1,,,,,,,,,,,,,,,0,,,69,0
331920,note_on,290,0,3,,,,,,,,,,,,,,,2,,,53,37
331920,note_off,2880,0,4,,,,,,,,,,,,,,,3,,,47,0
331920,note_on,0,0,4,,,,,,,,,,,,,,,3,,,43,52
331920,note_on,85,0,1,,,,,,,,,,,,,,,0,,,70,53
332075,note_off,155,0,1,,,,,,,,,,,,,,,0,,,70,0
332110,note_off,190,0,3,,,,,,,,,,,,,,,2,,,53,0
332160,note_on,85,0,1,,,,,,,,,,,,,,,0,,,71,55
332315,note_off,155,0,1,,,,,,,,,,,,,,,0,,,71,0
332400,note_on,85,0,1,,,,,,,,,,,,,,,0,,,72,56
332400,note_on,290,0,3,,,,,,,,,,,,,,,2,,,55,38
332555,note_off,155,0,1,,,,,,,,,,,,,,,0,,,72,0
332595,note_off,195,0,3,,,,,,,,,,,,,,,2,,,55,0
332640,note_on,85,0,1,,,,,,,,,,,,,,,0,,,73,58
332795,note_off,155,0,1,,,,,,,,,,,,,,,0,,,73,0
332880,note_on,85,0,1,,,,,,,,,,,,,,,0,,,74,59
332880,note_on,285,0,3,,,,,,,,,,,,,,,2,,,59,39
332930,set_tempo,3890,1,0,,,,,,,480000,,,,,,,,,,,,
333035,note_off,155,0,1,,,,,,,,,,,,,,,0,,,74,0
333070,note_off,190,0,3,,,,,,,,,,,,,,,2,,,59,0
333120,note_on,85,0,1,,,,,,,,,,,,,,,0,,,75,61
333120,set_tempo,190,1,0,,,,,,,500000,,,,,,,,,,,,
333275,note_off,155,0,1,,,,,,,,,,,,,,,0,,,75,0
333280,note_on,19360,0,2,,,,,,,,,,,,,,,1,,,64,66
333350,note_off,1430,0,4,,,,,,,,,,,,,,,3,,,43,0
333360,note_on,290,0,3,,,,,,,,,,,,,,,2,,,52,39
333360,note_on,10,0,4,,,,,,,,,,,,,,,3,,,48,53
333360,note_on,85,0,1,,,,,,,,,,,,,,,0,,,76,71
333360,set_tempo,240,1,0,,,,,,,472440,,,,,,,,,,,,
333550,note_off,190,0,3,,,,,,,,,,,,,,,2,,,52,0
333840,note_on,290,0,3,,,,,,,,,,,,,,,2,,,55,38
334030,note_off,190,0,3,,,,,,,,,,,,,,,2,,,55,0
334320,note_on,290,0,3,,,,,,,,,,,,,,,2,,,60,39
334510,note_off,190,0,3,,,,,,,,,,,,,,,2,,,60,0
334510,note_off,1150,0,4,,,,,,,,,,,,,,,3,,,48,0
334680,set_tempo,1320,1,0,,,,,,,487804,,,,,,,,,,,,
334710,note_off,1350,0,1,,,,,,,,,,,,,,,0,,,76,0
334720,note_on,1440,0,2,,,,,,,,,,,,,,,1,,,65,70
334730,note_off,10,0,2,,,,,,,,,,,,,,,1,,,64,0
334800,note_on,290,0,4,,,,,,,,,,,,,,,3,,,45,54
334800,note_on,90,0,1,,,,,,,,,,,,,,,0,,,77,73
334800,set_tempo,120,1,0,,,,,,,472440,,,,,,,,,,,,
335280,note_on,770,0,3,,,,,,,,,,,,,,,2,,,57,40
335470,note_off,190,0,3,,,,,,,,,,,,,,,2,,,57,0
335760,note_on,290,0,3,,,,,,,,,,,,,,,2,,,60,40
335950,note_off,1150,0,4,,,,,,,,,,,,,,,3,,,45,0
335950,note_off,190,0,3,,,,,,,,,,,,,,,2,,,60,0
336120,set_tempo,1320,1,0,,,,,,,487804,,,,,,,,,,,,
336125,note_off,1325,0,1,,,,,,,,,,,,,,,0,,,77,0
336160,note_on,1430,0,2,,,,,,,,,,,,,,,1,,,67,74
336165,note_off,5,0,2,,,,,,,,,,,,,,,1,,,65,0
336240,set_tempo,120,1,0,,,,,,,472440,,,,,,,,,,,,
336240,note_on,290,0,4,,,,,,,,,,,,,,,3,,,40,55
336240,note_on,115,0,1,,,,,,,,,,,,,,,0,,,79,77
336720,note_on,0,0,3,,,,,,,,,,,,,,,2,,,52,41
336720,note_on,770,0,3,,,,,,,,,,,,,,,2,,,55,41
336915,note_off,0,0,3,,,,,,,,,,,,,,,2,,,52,0
336915,note_off,195,0,3,,,,,,,,,,,,,,,2,,,55,0
337200,note_on,285,0,3,,,,,,,,,,,,,,,2,,,55,41
337200,note_on,0,0,3,,,,,,,,,,,,,,,2,,,60,41
337390,note_off,190,0,3,,,,,,,,,,,,,,,2,,,55,0
337390,note_off,0,0,3,,,,,,,,,,,,,,,2,,,60,0
337390,note_off,1150,0,4,,,,,,,,,,,,,,,3,,,40,0
337560,set_tempo,1320,1,0,,,,,,,487804,,,,,,,,,,,,
337665,note_off,1500,0,2,,,,,,,,,,,,,,,1,,,67,0
337665,note_off,1425,0,1,,,,,,,,,,,,,,,0,,,79,0
337680,note_on,15,0,1,,,,,,,,,,,,,,,0,,,80,76
337680,note_on,290,0,4,,,,,,,,,,,,,,,3,,,41,57
337680,set_tempo,120,1,0,,,,,,,472440,,,,,,,,,,,,
338040,set_tempo,360,1,0,,,,,,,487804,,,,,,,,,,,,
338045,note_off,365,0,1,,,,,,,,,,,,,,,0,,,80,0
338160,note_on,115,0,1,,,,,,,,,,,,,,,0,,,81,86
338160,set_tempo,120,1,0,,,,,,,472440,,,,,,,,,,,,
338160,note_on,770,0,3,,,,,,,,,,,,,,,2,,,53,42
338160,note_on,0,0,3,,,,,,,,,,,,,,,2,,,57,42
338350,note_off,0,0,3,,,,,,,,,,,,,,,2,,,57,0
338350,note_off,190,0,3,,,,,,,,,,,,,,,2,,,53,0
338640,note_on,290,0,3,,,,,,,,,,,,,,,2,,,57,42
338640,note_on,0,0,3,,,,,,,,,,,,,,,2,,,60,42
338830,note_off,1150,0,4,,,,,,,,,,,,,,,3,,,41,0
338830,note_off,190,0,3,,,,,,,,,,,,,,,2,,,57,0
338830,note_off,0,0,3,,,,,,,,,,,,,,,2,,,60,0
339120,note_on,290,0,4,,,,,,,,,,,,,,,3,,,41,60
339600,note_off,1440,0,1,,,,,,,,,,,,,,,0,,,81,0
339600,note_on,0,0,1,,,,,,,,,,,,,,,0,,,81,87
339600,note_on,770,0,3,,,,,,,,,,,,,,,2,,,53,43
339600,note_on,0,0,3,,,,,,,,,,,,,,,2,,,57,43
339790,note_off,0,0,3,,,,,,,,,,,,,,,2,,,57,0
339790,note_off,190,0,3,,,,,,,,,,,,,,,2,,,53,0
340080,note_on,0,0,3,,,,,,,,,,,,,,,2,,,57,43
340080,note_on,290,0,3,,,,,,,,,,,,,,,2,,,61,43
340270,note_off,0,0,3,,,,,,,,,,,,,,,2,,,57,0
340270,note_off,190,0,3,,,,,,,,,,,,,,,2,,,61,0
340270,note_off,1150,0,4,,,,,,,,,,,,,,,3,,,41,0
340500,set_tempo,2340,1,0,,,,,,,480000,,,,,,,,,,,,
340560,set_tempo,60,1,0,,,,,,,472440,,,,,,,,,,,,
340560,note_on,290,0,4,,,,,,,,,,,,,,,3,,,41,54
340935,note_off,1335,0,1,,,,,,,,,,,,,,,0,,,81,0
340960,note_on,25,0,1,,,,,,,,,,,,,,,0,,,79,72
341040,note_on,0,0,3,,,,,,,,,,,,,,,2,,,57,41
341040,note_on,770,0,3,,,,,,,,,,,,,,,2,,,53,41
341040,note_on,80,0,1,,,,,,,,,,,,,,,0,,,77,77
341080,note_off,40,0,1,,,,,,,,,,,,,,,0,,,79,0
341235,note_off,0,0,3,,,,,,,,,,,,,,,2,,,57,0
341235,note_off,195,0,3,,,,,,,,,,,,,,,2,,,53,0
341280,note_off,200,0,1,,,,,,,,,,,,,,,0,,,77,0
341280,note_on,0,0,1,,,,,,,,,,,,,,,0,,,76,75
341520,note_on,285,0,3,,,,,,,,,,,,,,,2,,,57,40
341520,note_on,0,0,1,,,,,,,,,,,,,,,0,,,77,74
341520,note_on,0,0,3,,,,,,,,,,,,,,,2,,,62,40
341520,note_off,240,0,1,,,,,,,,,,,,,,,0,,,76,0
341710,note_off,0,0,3,,,,,,,,,,,,,,,2,,,62,0
341710,note_off,1150,0,4,,,,,,,,,,,,,,,3,,,41,0
341710,note_off,190,0,3,,,,,,,,,,,,,,,2,,,57,0
341760,note_on,0,0,1,,,,,,,,,,,,,,,0,,,74,73
341760,note_off,240,0,1,,,,,,,,,,,,,,,0,,,77,0
341880,set_tempo,1320,1,0,,,,,,,487804,,,,,,,,,,,,
342000,note_on,0,0,1,,,,,,,,,,,,,,,0,,,72,72
342000,note_off,240,0,1,,,,,,,,,,,,,,,0,,,74,0
342000,set_tempo,120,1,0,,,,,,,472440,,,,,,,,,,,,
342000,note_on,290,0,4,,,,,,,,,,,,,,,3,,,43,51
342385,note_off,385,0,1,,,,,,,,,,,,,,,0,,,72,0
342400,note_on,15,0,1,,,,,,,,,,,,,,,0,,,74,67
342480,note_on,0,0,3,,,,,,,,,,,,,,,2,,,60,39
342480,note_on,80,0,1,,,,,,,,,,,,,,,0,,,72,70
342480,note_on,770,0,3,,,,,,,,,,,,,,,2,,,55,39
342520,note_off,40,0,1,,,,,,,,,,,,,,,0,,,74,0
342670,note_off,0,0,3,,,,,,,,,,,,,,,2,,,60,0
342670,note_off,190,0,3,,,,,,,,,,,,,,,2,,,55,0
342840,note_off,320,0,1,,,,,,,,,,,,,,,0,,,72,0
342840,note_on,0,0,1,,,,,,,,,,,,,,,0,,,71,67
342960,note_off,120,0,1,,,,,,,,,,,,,,,0,,,71,0
342960,note_on,0,0,3,,,,,,,,,,,,,,,2,,,64,39
342960,note_on,290,0,3,,,,,,,,,,,,,,,2,,,60,39
342960,note_on,0,0,1,,,,,,,,,,,,,,,0,,,72,66
343150,note_off,1150,0,4,,,,,,,,,,,,,,,3,,,43,0
343150,note_off,190,0,3,,,,,,,,,,,,,,,2,,,60,0
343150,note_off,0,0,3,,,,,,,,,,,,,,,2,,,64,0
343320,note_on,0,0,1,,,,,,,,,,,,,,,0,,,76,62
343320,set_tempo,1320,1,0,,,,,,,487804,,,,,,,,,,,,
343320,note_off,360,0,1,,,,,,,,,,,,,,,0,,,72,0
343440,set_tempo,120,1,0,,,,,,,472440,,,,,,,,,,,,
343440,note_off,120,0,1,,,,,,,,,,,,,,,0,,,76,0
343440,note_on,290,0,4,,,,,,,,,,,,,,,3,,,43,48
343440,note_on,0,0,1,,,,,,,,,,,,,,,0,,,67,61
343920,note_on,770,0,3,,,,,,,,,,,,,,,2,,,55,37
343920,note_on,0,0,3,,,,,,,,,,,,,,,2,,,60,37
344110,note_off,0,0,3,,,,,,,,,,,,,,,2,,,60,0
344110,note_off,190,0,3,,,,,,,,,,,,,,,2,,,55,0
344400,note_on,290,0,3,,,,,,,,,,,,,,,2,,,64,37
344400,note_on,0,0,3,,,,,,,,,,,,,,,2,,,60,37
344590,note_off,190,0,3,,,,,,,,,,,,,,,2,,,64,0
344590,note_off,0,0,3,,,,,,,,,,,,,,,2,,,60,0
344590,note_off,1150,0,4,,,,,,,,,,,,,,,3,,,43,0
344820,set_tempo,1380,1,0,,,,,,,480000,,,,,,,,,,,,
344880,note_on,290,0,4,,,,,,,,,,,,,,,3,,,43,45
344880,set_tempo,60,1,0,,,,,,,472440,,,,,,,,,,,,
345000,note_on,1560,0,1,,,,,,,,,,,,,,,0,,,69,56
345005,note_off,5,0,1,,,,,,,,,,,,,,,0,,,67,0
345120,note_off,115,0,1,,,,,,,,,,,,,,,0,,,69,0
345120,note_on,0,0,1,,,,,,,,,,,,,,,0,,,67,56
345240,note_on,0,0,1,,,,,,,,,,,,,,,0,,,66,57
345240,note_off,120,0,1,,,,,,,,,,,,,,,0,,,67,0
345360,note_on,0,0,3,,,,,,,,,,,,,,,2,,,62,36
345360,note_on,770,0,3,,,,,,,,,,,,,,,2,,,55,36
345360,note_off,120,0,1,,,,,,,,,,,,,,,0,,,66,0
345360,note_on,0,0,1,,,,,,,,,,,,,,,0,,,67,54
345440,note_on,0,0,1,,,,,,,,,,,,,,,0,,,69,56
345440,note_off,80,0,1,,,,,,,,,,,,,,,0,,,67,0
345520,note_on,0,0,1,,,,,,,,,,,,,,,0,,,71,57
345520,note_off,80,0,1,,,,,,,,,,,,,,,0,,,69,0
345555,note_off,0,0,3,,,,,,,,,,,,,,,2,,,62,0
345555,note_off,195,0,3,,,,,,,,,,,,,,,2,,,55,0
345600,note_off,80,0,1,,,,,,,,,,,,,,,0,,,71,0
345600,note_on,0,0,1,,,,,,,,,,,,,,,0,,,72,59
345650,set_tempo,770,1,0,,,,,,,480000,,,,,,,,,,,,
345680,note_off,80,0,1,,,,,,,,,,,,,,,0,,,72,0
345680,note_on,0,0,1,,,,,,,,,,,,,,,0,,,74,60
345750,set_tempo,100,1,0,,,,,,,504201,,,,,,,,,,,,
345760,note_on,0,0,1,,,,,,,,,,,,,,,0,,,76,62
345760,note_off,80,0,1,,,,,,,,,,,,,,,0,,,74,0
345840,note_off,80,0,1,,,,,,,,,,,,,,,0,,,76,0
345840,note_on,0,0,3,,,,,,,,,,,,,,,2,,,65,35
345840,note_on,285,0,3,,,,,,,,,,,,,,,2,,,62,35
345840,set_tempo,90,1,0,,,,,,,535714,,,,,,,,,,,,
345840,note_on,0,0,1,,,,,,,,,,,,,,,0,,,77,67
346030,note_off,0,0,3,,,,,,,,,,,,,,,2,,,65,0
346030,note_off,190,0,3,,,,,,,,,,,,,,,2,,,62,0
346030,note_off,1150,0,4,,,,,,,,,,,,,,,3,,,43,0
346080,note_off,240,0,1,,,,,,,,,,,,,,,0,,,77,0
346200,note_on,120,0,1,,,,,,,,,,,,,,,0,,,71,59
346320,note_on,290,0,3,,,,,,,,,,,,,,,2,,,48,35
346320,note_on,8655,0,2,,,,,,,,,,,,,,,1,,,65,55
346320,note_off,120,0,1,,,,,,,,,,,,,,,0,,,71,0
346320,note_on,0,0,1,,,,,,,,,,,,,,,0,,,74,58
346510,note_off,190,0,3,,,,,,,,,,,,,,,2,,,48,0
346800,note_on,290,0,3,,,,,,,,,,,,,,,2,,,55,34
346990,note_off,190,0,3,,,,,,,,,,,,,,,2,,,55,0
347280,note_on,290,0,3,,,,,,,,,,,,,,,2,,,59,34
347470,note_off,190,0,3,,,,,,,,,,,,,,,2,,,59,0
347505,set_tempo,1665,1,0,,,,,,,540540,,,,,,,,,,,,
347760,note_off,1440,0,1,,,,,,,,,,,,,,,0,,,74,0
347760,note_on,0,0,1,,,,,,,,,,,,,,,0,,,72,40
347760,note_on,0,0,3,,,,,,,,,,,,,,,2,,,48,33
347760,note_off,1440,0,2,,,,,,,,,,,,,,,1,,,65,0
347760,note_on,290,0,3,,,,,,,,,,,,,,,2,,,60,33
347760,note_on,0,0,2,,,,,,,,,,,,,,,1,,,64,40
348000,note_off,240,0,2,,,,,,,,,,,,,,,1,,,64,0
348000,note_off,0,0,3,,,,,,,,,,,,,,,2,,,48,0
348000,set_tempo,495,1,0,,,,,,,560747,,,,,,,,,,,,
348000,note_off,240,0,1,,,,,,,,,,,,,,,0,,,72,0
348000,note_off,240,0,3,,,,,,,,,,,,,,,2,,,60,0
348240,note_on,240,0,1,,,,,,,,,,,,,,,0,,,67,40
348240,set_tempo,240,1,0,,,,,,,500000,,,,,,,,,,,,
348240,note_on,2210,0,4,,,,,,,,,,,,,,,3,,,55,38
348720,note_off,480,0,1,,,,,,,,,,,,,,,0,,,67,0
348720,note_on,0,0,1,,,,,,,,,,,,,,,0,,,66,41
348720,note_on,0,0,4,,,,,,,,,,,,,,,3,,,54,40
348720,note_off,480,0,4,,,,,,,,,,,,,,,3,,,55,0
349200,note_on,0,0,1,,,,,,,,,,,,,,,0,,,65,41
349200,note_off,480,0,1,,,,,,,,,,,,,,,0,,,66,0
349200,note_off,480,0,4,,,,,,,,,,,,,,,3,,,54,0
349200,note_on,0,0,4,,,,,,,,,,,,,,,3,,,53,41
349680,note_on,0,0,1,,,,,,,,,,,,,,,0,,,64,42
349680,note_off,480,0,1,,,,,,,,,,,,,,,0,,,65,0
349680,note_off,480,0,4,,,,,,,,,,,,,,,3,,,53,0
349680,note_on,0,0,4,,,,,,,,,,,,,,,3,,,52,43
350040,set_tempo,1800,1,0,,,,,,,504201,,,,,,,,,,,,
350160,note_off,480,0,4,,,,,,,,,,,,,,,3,,,52,0
350160,note_on,0,0,4,,,,,,,,,,,,,,,3,,,50,45
350160,note_off,480,0,1,,,,,,,,,,,,,,,0,,,64,0
350160,note_on,0,0,1,,,,,,,,,,,,,,,0,,,62,42
350320,set_tempo,280,1,0,,,,,,,517241,,,,,,,,,,,,
350535,note_off,375,0,4,,,,,,,,,,,,,,,3,,,50,0
350600,note_on,65,0,4,,,,,,,,,,,,,,,3,,,36,51
350640,note_on,40,0,4,,,,,,,,,,,,,,,3,,,48,38
350640,note_on,0,0,1,,,,,,,,,,,,,,,0,,,60,43
350640,note_off,480,0,1,,,,,,,,,,,,,,,0,,,62,0
350720,note_on,80,0,4,,,,,,,,,,,,,,,3,,,50,38
350760,set_tempo,440,1,0,,,,,,,472440,,,,,,,,,,,,
350785,note_off,65,0,4,,,,,,,,,,,,,,,3,,,48,0
350800,note_on,15,0,4,,,,,,,,,,,,,,,3,,,48,38
350865,note_off,65,0,4,,,,,,,,,,,,,,,3,,,50,0
350880,note_on,15,0,4,,,,,,,,,,,,,,,3,,,50,39
350945,note_off,65,0,4,,,,,,,,,,,,,,,3,,,48,0
350960,note_on,15,0,4,,,,,,,,,,,,,,,3,,,48,39
351025,note_off,65,0,4,,,,,,,,,,,,,,,3,,,50,0
351040,note_on,15,0,4,,,,,,,,,,,,,,,3,,,50,40
351105,note_off,65,0,4,,,,,,,,,,,,,,,3,,,48,0
351120,note_off,480,0,1,,,,,,,,,,,,,,,0,,,60,0
351120,note_on,15,0,4,,,,,,,,,,,,,,,3,,,48,40
351120,note_on,0,0,3,,,,,,,,,,,,,,,2,,,55,32
351120,note_on,3120,0,3,,,,,,,,,,,,,,,2,,,64,32
351120,note_on,0,0,3,,,,,,,,,,,,,,,2,,,60,32
351185,note_off,65,0,4,,,,,,,,,,,,,,,3,,,50,0
351200,note_on,15,0,4,,,,,,,,,,,,,,,3,,,50,41
351265,note_off,65,0,4,,,,,,,,,,,,,,,3,,,48,0
351280,note_on,15,0,4,,,,,,,,,,,,,,,3,,,48,41
351345,note_off,65,0,4,,,,,,,,,,,,,,,3,,,50,0
351360,note_on,15,0,4,,,,,,,,,,,,,,,3,,,50,42
351425,note_off,65,0,4,,,,,,,,,,,,,,,3,,,48,0
351440,note_on,15,0,4,,,,,,,,,,,,,,,3,,,48,42
351505,note_off,65,0,4,,,,,,,,,,,,,,,3,,,50,0
351520,note_on,15,0,4,,,,,,,,,,,,,,,3,,,50,43
351585,note_off,65,0,4,,,,,,,,,,,,,,,3,,,48,0
351600,note_off,0,0,3,,,,,,,,,,,,,,,2,,,55,0
351600,note_on,0,0,3,,,,,,,,,,,,,,,2,,,60,33
351600,note_on,0,0,3,,,,,,,,,,,,,,,2,,,64,33
351600,note_on,0,0,3,,,,,,,,,,,,,,,2,,,55,33
351600,note_off,480,0,3,,,,,,,,,,,,,,,2,,,64,0
351600,note_on,15,0,4,,,,,,,,,,,,,,,3,,,48,43
351600,note_off,0,0,3,,,,,,,,,,,,,,,2,,,60,0
351665,note_off,65,0,4,,,,,,,,,,,,,,,3,,,50,0
351680,note_on,15,0,4,,,,,,,,,,,,,,,3,,,50,43
351745,note_off,65,0,4,,,,,,,,,,,,,,,3,,,48,0
351760,note_on,15,0,4,,,,,,,,,,,,,,,3,,,48,44
351825,note_off,65,0,4,,,,,,,,,,,,,,,3,,,50,0
351840,note_on,15,0,4,,,,,,,,,,,,,,,3,,,50,44
351905,note_off,65,0,4,,,,,,,,,,,,,,,3,,,48,0
351920,note_on,15,0,4,,,,,,,,,,,,,,,3,,,48,45
351985,note_off,65,0,4,,,,,,,,,,,,,,,3,,,50,0
352000,note_on,15,0,4,,,,,,,,,,,,,,,3,,,50,45
352065,note_off,65,0,4,,,,,,,,,,,,,,,3,,,48,0
352080,note_on,15,0,4,,,,,,,,,,,,,,,3,,,48,46
352080,note_off,480,0,3,,,,,,,,,,,,,,,2,,,55,0
352080,note_off,0,0,3,,,,,,,,,,,,,,,2,,,64,0
352080,note_off,0,0,3,,,,,,,,,,,,,,,2,,,60,0
352080,note_on,0,0,3,,,,,,,,,,,,,,,2,,,55,34
352080,note_on,0,0,3,,,,,,,,,,,,,,,2,,,64,34
352080,note_on,0,0,3,,,,,,,,,,,,,,,2,,,60,34
352145,note_off,65,0,4,,,,,,,,,,,,,,,3,,,50,0
352160,note_on,15,0,4,,,,,,,,,,,,,,,3,,,50,46
352225,note_off,65,0,4,,,,,,,,,,,,,,,3,,,48,0
352240,note_on,15,0,4,,,,,,,,,,,,,,,3,,,48,47
352305,note_off,65,0,4,,,,,,,,,,,,,,,3,,,50,0
352320,note_on,15,0,4,,,,,,,,,,,,,,,3,,,50,47
352385,note_off,65,0,4,,,,,,,,,,,,,,,3,,,48,0
352400,note_on,15,0,4,,,,,,,,,,,,,,,3,,,48,48
352465,note_off,65,0,4,,,,,,,,,,,,,,,3,,,50,0
352480,note_on,15,0,4,,,,,,,,,,,,,,,3,,,50,48
352545,note_off,65,0,4,,,,,,,,,,,,,,,3,,,48,0
352560,note_off,0,0,3,,,,,,,,,,,,,,,2,,,60,0
352560,note_off,0,0,3,,,,,,,,,,,,,,,2,,,64,0
352560,note_off,480,0,3,,,,,,,,,,,,,,,2,,,55,0
352560,note_on,0,0,3,,,,,,,,,,,,,,,2,,,64,35
352560,note_on,15,0,4,,,,,,,,,,,,,,,3,,,48,48
352560,note_on,0,0,3,,,,,,,,,,,,,,,2,,,55,35
352560,note_on,0,0,3,,,,,,,,,,,,,,,2,,,60,35
352625,note_off,65,0,4,,,,,,,,,,,,,,,3,,,50,0
352640,note_on,15,0,4,,,,,,,,,,,,,,,3,,,50,49
352705,note_off,65,0,4,,,,,,,,,,,,,,,3,,,48,0
352720,note_on,15,0,4,,,,,,,,,,,,,,,3,,,48,49
352785,note_off,65,0,4,,,,,,,,,,,,,,,3,,,50,0
352800,note_on,15,0,4,,,,,,,,,,,,,,,3,,,50,50
352865,note_off,65,0,4,,,,,,,,,,,,,,,3,,,48,0
352880,note_on,15,0,4,,,,,,,,,,,,,,,3,,,48,50
352945,note_off,65,0,4,,,,,,,,,,,,,,,3,,,50,0
352960,note_on,15,0,4,,,,,,,,,,,,,,,3,,,50,51
353025,note_off,65,0,4,,,,,,,,,,,,,,,3,,,48,0
353040,note_off,480,0,3,,,,,,,,,,,,,,,2,,,55,0
353040,note_off,0,0,3,,,,,,,,,,,,,,,2,,,60,0
353040,note_off,0,0,3,,,,,,,,,,,,,,,2,,,64,0
353040,note_on,0,0,3,,,,,,,,,,,,,,,2,,,55,37
353040,note_on,0,0,3,,,,,,,,,,,,,,,2,,,64,37
353040,note_on,0,0,3,,,,,,,,,,,,,,,2,,,60,37
353040,note_on,15,0,4,,,,,,,,,,,,,,,3,,,48,51
353105,note_off,65,0,4,,,,,,,,,,,,,,,3,,,50,0
353120,note_on,15,0,4,,,,,,,,,,,,,,,3,,,50,52
353185,note_off,65,0,4,,,,,,,,,,,,,,,3,,,48,0
353200,note_on,15,0,4,,,,,,,,,,,,,,,3,,,48,52
353260,note_off,60,0,4,,,,,,,,,,,,,,,3,,,50,0
353280,note_on,20,0,4,,,,,,,,,,,,,,,3,,,47,53
353340,set_tempo,2580,1,0,,,,,,,480000,,,,,,,,,,,,
353385,note_off,105,0,4,,,,,,,,,,,,,,,3,,,48,0
353400,note_on,15,0,4,,,,,,,,,,,,,,,3,,,48,53
353400,set_tempo,60,1,0,,,,,,,487804,,,,,,,,,,,,
353465,note_off,65,0,4,,,,,,,,,,,,,,,3,,,47,0
353520,note_off,0,0,3,,,,,,,,,,,,,,,2,,,64,0
353520,note_on,55,0,4,,,,,,,,,,,,,,,3,,,52,57
353520,note_off,480,0,3,,,,,,,,,,,,,,,2,,,55,0
353520,note_off,0,0,3,,,,,,,,,,,,,,,2,,,60,0
353520,set_tempo,120,1,0,,,,,,,472440,,,,,,,,,,,,
353520,note_on,0,0,3,,,,,,,,,,,,,,,2,,,64,38
353520,note_on,0,0,3,,,,,,,,,,,,,,,2,,,55,38
353520,note_on,0,0,3,,,,,,,,,,,,,,,2,,,60,38
353570,note_off,50,0,4,,,,,,,,,,,,,,,3,,,48,0
354000,note_on,0,0,3,,,,,,,,,,,,,,,2,,,64,39
354000,note_off,480,0,3,,,,,,,,,,,,,,,2,,,60,0
354000,note_off,0,0,3,,,,,,,,,,,,,,,2,,,64,0
354000,note_off,0,0,3,,,,,,,,,,,,,,,2,,,55,0
354000,note_on,0,0,3,,,,,,,,,,,,,,,2,,,60,39
354000,note_on,0,0,3,,,,,,,,,,,,,,,2,,,55,39
354480,note_off,480,0,3,,,,,,,,,,,,,,,2,,,60,0
354480,note_off,0,0,3,,,,,,,,,,,,,,,2,,,55,0
354480,note_off,0,0,3,,,,,,,,,,,,,,,2,,,64,0
354480,note_on,0,0,3,,,,,,,,,,,,,,,2,,,55,40
354480,note_on,0,0,3,,,,,,,,,,,,,,,2,,,64,40
354480,note_on,0,0,3,,,,,,,,,,,,,,,2,,,60,40
354840,set_tempo,1320,1,0,,,,,,,487804,,,,,,,,,,,,
354840,note_on,1270,0,4,,,,,,,,,,,,,,,3,,,48,53
354855,note_off,15,0,4,,,,,,,,,,,,,,,3,,,36,0
354860,note_off,5,0,4,,,,,,,,,,,,,,,3,,,52,0
354960,note_off,0,0,3,,,,,,,,,,,,,,,2,,,60,0
354960,set_tempo,120,1,0,,,,,,,472440,,,,,,,,,,,,
354960,note_off,480,0,3,,,,,,,,,,,,,,,2,,,55,0
354960,note_off,0,0,3,,,,,,,,,,,,,,,2,,,64,0
354960,note_off,100,0,4,,,,,,,,,,,,,,,3,,,48,0
354960,note_on,0,0,4,,,,,,,,,,,,,,,3,,,43,52
355080,note_on,3960,0,1,,,,,,,,,,,,,,,0,,,60,40
355200,note_on,120,0,1,,,,,,,,,,,,,,,0,,,64,40
355280,note_off,80,0,1,,,,,,,,,,,,,,,0,,,60,0
355320,note_on,40,0,1,,,,,,,,,,,,,,,0,,,62,41
355400,note_off,80,0,1,,,,,,,,,,,,,,,0,,,64,0
355440,note_on,480,0,4,,,,,,,,,,,,,,,3,,,55,51
355440,note_on,40,0,1,,,,,,,,,,,,,,,0,,,65,41
355520,note_off,80,0,1,,,,,,,,,,,,,,,0,,,62,0
355560,note_on,40,0,1,,,,,,,,,,,,,,,0,,,64,42
355640,note_off,80,0,1,,,,,,,,,,,,,,,0,,,65,0
355680,note_on,40,0,1,,,,,,,,,,,,,,,0,,,67,42
355760,note_off,80,0,1,,,,,,,,,,,,,,,0,,,64,0
355800,note_on,40,0,1,,,,,,,,,,,,,,,0,,,65,43
355880,note_off,80,0,1,,,,,,,,,,,,,,,0,,,67,0
355920,note_on,960,0,3,,,,,,,,,,,,,,,2,,,60,38
355920,note_on,40,0,1,,,,,,,,,,,,,,,0,,,69,44
356000,note_off,80,0,1,,,,,,,,,,,,,,,0,,,65,0
356040,note_on,40,0,1,,,,,,,,,,,,,,,0,,,67,44
356120,note_off,80,0,1,,,,,,,,,,,,,,,0,,,69,0
356160,note_on,40,0,1,,,,,,,,,,,,,,,0,,,71,45
356240,note_off,80,0,1,,,,,,,,,,,,,,,0,,,67,0
356280,note_on,40,0,1,,,,,,,,,,,,,,,0,,,69,45
356360,note_off,80,0,1,,,,,,,,,,,,,,,0,,,71,0
356400,note_off,480,0,3,,,,,,,,,,,,,,,2,,,60,0
356400,note_on,0,0,3,,,,,,,,,,,,,,,2,,,64,37
356400,note_on,0,0,3,,,,,,,,,,,,,,,2,,,60,37
356400,note_on,40,0,1,,,,,,,,,,,,,,,0,,,72,46
356480,note_off,80,0,1,,,,,,,,,,,,,,,0,,,69,0
356520,note_on,40,0,1,,,,,,,,,,,,,,,0,,,71,46
356600,note_off,80,0,1,,,,,,,,,,,,,,,0,,,72,0
356640,note_on,40,0,1,,,,,,,,,,,,,,,0,,,74,47
356720,note_off,80,0,1,,,,,,,,,,,,,,,0,,,71,0
356760,note_on,40,0,1,,,,,,,,,,,,,,,0,,,72,47
356840,note_off,80,0,1,,,,,,,,,,,,,,,0,,,74,0
356880,note_on,0,0,3,,,,,,,,,,,,,,,2,,,64,36
356880,note_off,0,0,3,,,,,,,,,,,,,,,2,,,60,0
356880,note_off,480,0,3,,,,,,,,,,,,,,,2,,,64,0
356880,note_on,40,0,1,,,,,,,,,,,,,,,0,,,76,48
356880,note_on,0,0,3,,,,,,,,,,,,,,,2,,,60,36
356960,note_on,0,0,1,,,,,,,,,,,,,,,0,,,74,48
356960,note_off,80,0,1,,,,,,,,,,,,,,,0,,,72,0
357015,note_off,55,0,1,,,,,,,,,,,,,,,0,,,76,0
357040,note_on,25,0,1,,,,,,,,,,,,,,,0,,,77,49
357095,note_off,55,0,1,,,,,,,,,,,,,,,0,,,74,0
357120,note_on,25,0,1,,,,,,,,,,,,,,,0,,,76,49
357175,note_off,55,0,1,,,,,,,,,,,,,,,0,,,77,0
357200,note_on,25,0,1,,,,,,,,,,,,,,,0,,,79,50
357255,note_off,55,0,1,,,,,,,,,,,,,,,0,,,76,0
357280,note_on,25,0,1,,,,,,,,,,,,,,,0,,,77,50
357335,note_off,55,0,1,,,,,,,,,,,,,,,0,,,79,0
357360,note_off,480,0,3,,,,,,,,,,,,,,,2,,,64,0
357360,note_on,25,0,1,,,,,,,,,,,,,,,0,,,81,50
357360,note_on,0,0,3,,,,,,,,,,,,,,,2,,,60,36
357360,note_on,0,0,3,,,,,,,,,,,,,,,2,,,64,36
357360,note_off,0,0,3,,,,,,,,,,,,,,,2,,,60,0
357415,note_off,55,0,1,,,,,,,,,,,,,,,0,,,77,0
357440,note_on,25,0,1,,,,,,,,,,,,,,,0,,,79,51
357495,note_off,55,0,1,,,,,,,,,,,,,,,0,,,81,0
357520,note_on,25,0,1,,,,,,,,,,,,,,,0,,,83,51
357575,note_off,55,0,1,,,,,,,,,,,,,,,0,,,79,0
357600,note_on,25,0,1,,,,,,,,,,,,,,,0,,,81,51
357655,note_off,55,0,1,,,,,,,,,,,,,,,0,,,83,0
357680,note_on,25,0,1,,,,,,,,,,,,,,,0,,,84,52
357735,note_off,55,0,1,,,,,,,,,,,,,,,0,,,81,0
357760,note_on,25,0,1,,,,,,,,,,,,,,,0,,,83,52
357780,set_tempo,2820,1,0,,,,,,,480000,,,,,,,,,,,,
357815,note_off,55,0,1,,,,,,,,,,,,,,,0,,,84,0
357840,note_on,25,0,1,,,,,,,,,,,,,,,0,,,86,52
357840,set_tempo,60,1,0,,,,,,,472440,,,,,,,,,,,,
357840,note_on,0,0,3,,,,,,,,,,,,,,,2,,,60,35
357840,note_on,0,0,3,,,,,,,,,,,,,,,2,,,64,35
357840,note_off,0,0,3,,,,,,,,,,,,,,,2,,,60,0
357840,note_off,480,0,3,,,,,,,,,,,,,,,2,,,64,0
357895,note_off,55,0,1,,,,,,,,,,,,,,,0,,,83,0
357920,note_on,25,0,1,,,,,,,,,,,,,,,0,,,84,53
357975,note_off,55,0,1,,,,,,,,,,,,,,,0,,,86,0
358000,note_on,25,0,1,,,,,,,,,,,,,,,0,,,88,53
358055,note_off,55,0,1,,,,,,,,,,,,,,,0,,,84,0
358080,note_on,25,0,1,,,,,,,,,,,,,,,0,,,86,53
358135,note_off,55,0,1,,,,,,,,,,,,,,,0,,,88,0
358160,note_on,25,0,1,,,,,,,,,,,,,,,0,,,84,52
358215,note_off,55,0,1,,,,,,,,,,,,,,,0,,,86,0
358240,note_on,25,0,1,,,,,,,,,,,,,,,0,,,83,52
358295,note_off,55,0,1,,,,,,,,,,,,,,,0,,,84,0
358320,note_on,25,0,1,,,,,,,,,,,,,,,0,,,81,51
358320,note_on,0,0,3,,,,,,,,,,,,,,,2,,,64,34
358320,note_off,0,0,3,,,,,,,,,,,,,,,2,,,60,0
358320,note_on,0,0,3,,,,,,,,,,,,,,,2,,,60,34
358320,note_off,480,0,3,,,,,,,,,,,,,,,2,,,64,0
358375,note_off,55,0,1,,,,,,,,,,,,,,,0,,,83,0
358400,note_on,25,0,1,,,,,,,,,,,,,,,0,,,79,50
358455,note_off,55,0,1,,,,,,,,,,,,,,,0,,,81,0
358480,note_on,25,0,1,,,,,,,,,,,,,,,0,,,77,50
358535,note_off,55,0,1,,,,,,,,,,,,,,,0,,,79,0
358560,note_on,25,0,1,,,,,,,,,,,,,,,0,,,76,49
358615,note_off,55,0,1,,,,,,,,,,,,,,,0,,,77,0
358640,note_on,25,0,1,,,,,,,,,,,,,,,0,,,74,48
358695,note_off,55,0,1,,,,,,,,,,,,,,,0,,,76,0
358720,note_on,25,0,1,,,,,,,,,,,,,,,0,,,72,47
358760,note_off,40,0,1,,,,,,,,,,,,,,,0,,,74,0
358800,note_on,0,0,3,,,,,,,,,,,,,,,2,,,64,34
358800,note_off,0,0,3,,,,,,,,,,,,,,,2,,,60,0
358800,note_on,0,0,3,,,,,,,,,,,,,,,2,,,60,34
358800,note_off,480,0,3,,,,,,,,,,,,,,,2,,,64,0
358800,note_on,40,0,1,,,,,,,,,,,,,,,0,,,71,47
358840,note_off,40,0,1,,,,,,,,,,,,,,,0,,,72,0
358880,note_on,40,0,1,,,,,,,,,,,,,,,0,,,69,47
358920,note_off,40,0,1,,,,,,,,,,,,,,,0,,,71,0
358960,note_on,40,0,1,,,,,,,,,,,,,,,0,,,67,46
359000,note_off,40,0,1,,,,,,,,,,,,,,,0,,,69,0
359040,note_on,40,0,1,,,,,,,,,,,,,,,0,,,65,45
359080,note_off,40,0,1,,,,,,,,,,,,,,,0,,,67,0
359100,note_on,20,0,1,,,,,,,,,,,,,,,0,,,64,44
359120,set_tempo,1280,1,0,,,,,,,487804,,,,,,,,,,,,
359140,note_off,40,0,1,,,,,,,,,,,,,,,0,,,65,0
359160,set_tempo,40,1,0,,,,,,,500000,,,,,,,,,,,,
359160,note_on,20,0,1,,,,,,,,,,,,,,,0,,,62,43
359200,note_off,40,0,1,,,,,,,,,,,,,,,0,,,64,0
359205,note_off,3765,0,4,,,,,,,,,,,,,,,3,,,55,0
359210,note_off,5,0,4,,,,,,,,,,,,,,,3,,,43,0
359220,note_on,20,0,1,,,,,,,,,,,,,,,0,,,60,43
359220,set_tempo,60,1,0,,,,,,,550458,,,,,,,,,,,,
359240,note_on,30,0,4,,,,,,,,,,,,,,,3,,,38,54
359260,note_off,40,0,1,,,,,,,,,,,,,,,0,,,62,0
359280,note_off,20,0,1,,,,,,,,,,,,,,,0,,,60,0
359280,note_on,0,0,1,,,,,,,,,,,,,,,0,,,59,42
359280,note_off,0,0,3,,,,,,,,,,,,,,,2,,,60,0
359280,note_off,480,0,3,,,,,,,,,,,,,,,2,,,64,0
359280,set_tempo,60,1,0,,,,,,,500000,,,,,,,,,,,,
359280,note_on,40,0,4,,,,,,,,,,,,,,,3,,,50,38
359360,note_on,80,0,4,,,,,,,,,,,,,,,3,,,52,36
359400,set_tempo,120,1,0,,,,,,,472440,,,,,,,,,,,,
359425,note_off,65,0,4,,,,,,,,,,,,,,,3,,,50,0
359440,note_on,15,0,4,,,,,,,,,,,,,,,3,,,50,37
359505,note_off,65,0,4,,,,,,,,,,,,,,,3,,,52,0
359520,note_on,15,0,4,,,,,,,,,,,,,,,3,,,52,37
359585,note_off,65,0,4,,,,,,,,,,,,,,,3,,,50,0
359600,note_on,15,0,4,,,,,,,,,,,,,,,3,,,50,38
359665,note_off,65,0,4,,,,,,,,,,,,,,,3,,,52,0
359680,note_on,15,0,4,,,,,,,,,,,,,,,3,,,52,38
359745,note_off,65,0,4,,,,,,,,,,,,,,,3,,,50,0
359760,note_on,0,0,3,,,,,,,,,,,,,,,2,,,55,32
359760,note_off,480,0,1,,,,,,,,,,,,,,,0,,,59,0
359760,note_on,15,0,4,,,,,,,,,,,,,,,3,,,50,39
359760,note_on,0,0,3,,,,,,,,,,,,,,,2,,,65,32
359760,note_on,480,0,3,,,,,,,,,,,,,,,2,,,59,32
359825,note_off,65,0,4,,,,,,,,,,,,,,,3,,,52,0
359840,note_on,15,0,4,,,,,,,,,,,,,,,3,,,52,39
359905,note_off,65,0,4,,,,,,,,,,,,,,,3,,,50,0
359920,note_on,15,0,4,,,,,,,,,,,,,,,3,,,50,40
359985,note_off,65,0,4,,,,,,,,,,,,,,,3,,,52,0
360000,note_on,15,0,4,,,,,,,,,,,,,,,3,,,52,41
360065,note_off,65,0,4,,,,,,,,,,,,,,,3,,,50,0
360080,note_on,15,0,4,,,,,,,,,,,,,,,3,,,50,41
360145,note_off,65,0,4,,,,,,,,,,,,,,,3,,,52,0
360160,note_on,15,0,4,,,,,,,,,,,,,,,3,,,52,42
360225,note_off,65,0,4,,,,,,,,,,,,,,,3,,,50,0
360240,note_on,0,0,3,,,,,,,,,,,,,,,2,,,55,33
360240,note_on,0,0,3,,,,,,,,,,,,,,,2,,,65,33
360240,note_on,0,0,3,,,,,,,,,,,,,,,2,,,59,33
360240,note_off,0,0,3,,,,,,,,,,,,,,,2,,,65,0
360240,note_off,0,0,3,,,,,,,,,,,,,,,2,,,55,0
360240,note_off,480,0,3,,,,,,,,,,,,,,,2,,,59,0
360240,note_on,15,0,4,,,,,,,,,,,,,,,3,,,50,42
360305,note_off,65,0,4,,,,,,,,,,,,,,,3,,,52,0
360320,note_on,15,0,4,,,,,,,,,,,,,,,3,,,52,43
360385,note_off,65,0,4,,,,,,,,,,,,,,,3,,,50,0
360400,note_on,15,0,4,,,,,,,,,,,,,,,3,,,50,43
360465,note_off,65,0,4,,,,,,,,,,,,,,,3,,,52,0
360480,note_on,15,0,4,,,,,,,,,,,,,,,3,,,52,44
360545,note_off,65,0,4,,,,,,,,,,,,,,,3,,,50,0
360560,note_on,15,0,4,,,,,,,,,,,,,,,3,,,50,45
360625,note_off,65,0,4,,,,,,,,,,,,,,,3,,,52,0
360640,note_on,15,0,4,,,,,,,,,,,,,,,3,,,52,45
360705,note_off,65,0,4,,,,,,,,,,,,,,,3,,,50,0
360720,note_off,0,0,3,,,,,,,,,,,,,,,2,,,65,0
360720,note_on,15,0,4,,,,,,,,,,,,,,,3,,,50,46
360720,note_off,480,0,3,,,,,,,,,,,,,,,2,,,59,0
360720,note_off,0,0,3,,,,,,,,,,,,,,,2,,,55,0
360720,note_on,0,0,3,,,,,,,,,,,,,,,2,,,59,35
360720,note_on,0,0,3,,,,,,,,,,,,,,,2,,,65,35
360720,note_on,0,0,3,,,,,,,,,,,,,,,2,,,55,35
360785,note_off,65,0,4,,,,,,,,,,,,,,,3,,,52,0
360800,note_on,15,0,4,,,,,,,,,,,,,,,3,,,52,46
360865,note_off,65,0,4,,,,,,,,,,,,,,,3,,,50,0
360880,note_on,15,0,4,,,,,,,,,,,,,,,3,,,50,47
360945,note_off,65,0,4,,,,,,,,,,,,,,,3,,,52,0
360960,note_on,15,0,4,,,,,,,,,,,,,,,3,,,52,47
361025,note_off,65,0,4,,,,,,,,,,,,,,,3,,,50,0
361040,note_on,15,0,4,,,,,,,,,,,,,,,3,,,50,48
361105,note_off,65,0,4,,,,,,,,,,,,,,,3,,,52,0
361120,note_on,15,0,4,,,,,,,,,,,,,,,3,,,52,49
361185,note_off,65,0,4,,,,,,,,,,,,,,,3,,,50,0
361200,note_off,0,0,3,,,,,,,,,,,,,,,2,,,65,0
361200,note_off,480,0,3,,,,,,,,,,,,,,,2,,,59,0
361200,note_on,15,0,4,,,,,,,,,,,,,,,3,,,50,49
361200,note_on,0,0,3,,,,,,,,,,,,,,,2,,,65,36
361200,note_on,0,0,3,,,,,,,,,,,,,,,2,,,59,36
361200,note_off,0,0,3,,,,,,,,,,,,,,,2,,,55,0
361200,note_on,0,0,3,,,,,,,,,,,,,,,2,,,55,36
361265,note_off,65,0,4,,,,,,,,,,,,,,,3,,,52,0
361280,note_on,15,0,4,,,,,,,,,,,,,,,3,,,52,50
361345,note_off,65,0,4,,,,,,,,,,,,,,,3,,,50,0
361360,note_on,15,0,4,,,,,,,,,,,,,,,3,,,50,50
361425,note_off,65,0,4,,,,,,,,,,,,,,,3,,,52,0
361440,note_on,15,0,4,,,,,,,,,,,,,,,3,,,52,51
361505,note_off,65,0,4,,,,,,,,,,,,,,,3,,,50,0
361520,note_on,15,0,4,,,,,,,,,,,,,,,3,,,50,51
361585,note_off,65,0,4,,,,,,,,,,,,,,,3,,,52,0
361600,note_on,15,0,4,,,,,,,,,,,,,,,3,,,52,52
361665,note_off,65,0,4,,,,,,,,,,,,,,,3,,,50,0
361680,note_on,15,0,4,,,,,,,,,,,,,,,3,,,50,53
361680,note_on,0,0,3,,,,,,,,,,,,,,,2,,,59,38
361680,note_off,480,0,3,,,,,,,,,,,,,,,2,,,59,0
361680,note_off,0,0,3,,,,,,,,,,,,,,,2,,,65,0
361680,note_off,0,0,3,,,,,,,,,,,,,,,2,,,55,0
361680,note_on,0,0,3,,,,,,,,,,,,,,,2,,,55,38
361680,note_on,0,0,3,,,,,,,,,,,,,,,2,,,65,38
361745,note_off,65,0,4,,,,,,,,,,,,,,,3,,,52,0
361760,note_on,15,0,4,,,,,,,,,,,,,,,3,,,52,53
361825,note_off,65,0,4,,,,,,,,,,,,,,,3,,,50,0
361840,note_on,15,0,4,,,,,,,,,,,,,,,3,,,50,54
361905,note_off,65,0,4,,,,,,,,,,,,,,,3,,,52,0
361920,note_on,15,0,4,,,,,,,,,,,,,,,3,,,49,54
361980,set_tempo,2580,1,0,,,,,,,480000,,,,,,,,,,,,
361985,note_off,65,0,4,,,,,,,,,,,,,,,3,,,50,0
362040,note_on,55,0,4,,,,,,,,,,,,,,,3,,,50,55
362040,set_tempo,60,1,0,,,,,,,487804,,,,,,,,,,,,
362100,note_off,60,0,4,,,,,,,,,,,,,,,3,,,49,0
362160,note_on,0,0,3,,,,,,,,,,,,,,,2,,,55,39
362160,note_on,60,0,4,,,,,,,,,,,,,,,3,,,53,61
362160,note_off,480,0,3,,,,,,,,,,,,,,,2,,,59,0
362160,note_off,0,0,3,,,,,,,,,,,,,,,2,,,55,0
362160,note_off,0,0,3,,,,,,,,,,,,,,,2,,,65,0
362160,note_on,0,0,3,,,,,,,,,,,,,,,2,,,59,39
362160,note_on,0,0,3,,,,,,,,,,,,,,,2,,,65,39
362160,set_tempo,120,1,0,,,,,,,472440,,,,,,,,,,,,
362225,note_off,65,0,4,,,,,,,,,,,,,,,3,,,50,0
362640,note_on,0,0,3,,,,,,,,,,,,,,,2,,,59,41
362640,note_on,0,0,3,,,,,,,,,,,,,,,2,,,65,41
362640,note_off,0,0,3,,,,,,,,,,,,,,,2,,,65,0
362640,note_off,0,0,3,,,,,,,,,,,,,,,2,,,55,0
362640,note_on,0,0,3,,,,,,,,,,,,,,,2,,,55,41
362640,note_off,480,0,3,,,,,,,,,,,,,,,2,,,59,0
363120,note_on,0,0,3,,,,,,,,,,,,,,,2,,,55,42
363120,note_on,0,0,3,,,,,,,,,,,,,,,2,,,65,42
363120,note_on,0,0,3,,,,,,,,,,,,,,,2,,,59,42
363120,note_off,0,0,3,,,,,,,,,,,,,,,2,,,65,0
363120,note_off,480,0,3,,,,,,,,,,,,,,,2,,,59,0
363120,note_off,0,0,3,,,,,,,,,,,,,,,2,,,55,0
363480,set_tempo,1320,1,0,,,,,,,487804,,,,,,,,,,,,
363480,note_off,1255,0,4,,,,,,,,,,,,,,,3,,,53,0
363480,note_on,0,0,4,,,,,,,,,,,,,,,3,,,50,58
363600,note_on,0,0,4,,,,,,,,,,,,,,,3,,,43,58
363600,note_off,120,0,4,,,,,,,,,,,,,,,3,,,50,0
363600,set_tempo,120,1,0,,,,,,,472440,,,,,,,,,,,,
363600,note_off,0,0,3,,,,,,,,,,,,,,,2,,,55,0
363600,note_off,0,0,3,,,,,,,,,,,,,,,2,,,65,0
363600,note_off,480,0,3,,,,,,,,,,,,,,,2,,,59,0
363605,note_off,5,0,4,,,,,,,,,,,,,,,3,,,38,0
363720,note_on,3960,0,1,,,,,,,,,,,,,,,0,,,59,48
363840,note_on,120,0,1,,,,,,,,,,,,,,,0,,,62,49
363885,note_off,45,0,1,,,,,,,,,,,,,,,0,,,59,0
363960,note_on,75,0,1,,,,,,,,,,,,,,,0,,,60,49
364005,note_off,45,0,1,,,,,,,,,,,,,,,0,,,62,0
364080,note_on,75,0,1,,,,,,,,,,,,,,,0,,,64,50
364080,note_on,475,0,4,,,,,,,,,,,,,,,3,,,55,56
364125,note_off,45,0,1,,,,,,,,,,,,,,,0,,,60,0
364200,note_on,75,0,1,,,,,,,,,,,,,,,0,,,62,50
364245,note_off,45,0,1,,,,,,,,,,,,,,,0,,,64,0
364320,note_on,75,0,1,,,,,,,,,,,,,,,0,,,65,51
364365,note_off,45,0,1,,,,,,,,,,,,,,,0,,,62,0
364440,note_on,75,0,1,,,,,,,,,,,,,,,0,,,64,51
364485,note_off,45,0,1,,,,,,,,,,,,,,,0,,,65,0
364560,note_on,75,0,1,,,,,,,,,,,,,,,0,,,67,52
364560,note_on,960,0,3,,,,,,,,,,,,,,,2,,,62,45
364605,note_off,45,0,1,,,,,,,,,,,,,,,0,,,64,0
364680,note_on,75,0,1,,,,,,,,,,,,,,,0,,,65,52
364725,note_off,45,0,1,,,,,,,,,,,,,,,0,,,67,0
364800,note_on,75,0,1,,,,,,,,,,,,,,,0,,,69,53
364845,note_off,45,0,1,,,,,,,,,,,,,,,0,,,65,0
364920,note_on,75,0,1,,,,,,,,,,,,,,,0,,,67,53
364965,note_off,45,0,1,,,,,,,,,,,,,,,0,,,69,0
365040,note_off,480,0,3,,,,,,,,,,,,,,,2,,,62,0
365040,note_on,0,0,3,,,,,,,,,,,,,,,2,,,65,44
365040,note_on,75,0,1,,,,,,,,,,,,,,,0,,,71,53
365040,note_on,0,0,3,,,,,,,,,,,,,,,2,,,62,44
365085,note_off,45,0,1,,,,,,,,,,,,,,,0,,,67,0
365160,note_on,75,0,1,,,,,,,,,,,,,,,0,,,69,54
365205,note_off,45,0,1,,,,,,,,,,,,,,,0,,,71,0
365280,note_on,75,0,1,,,,,,,,,,,,,,,0,,,72,54
365325,note_off,45,0,1,,,,,,,,,,,,,,,0,,,69,0
365400,note_on,75,0,1,,,,,,,,,,,,,,,0,,,71,55
365445,note_off,45,0,1,,,,,,,,,,,,,,,0,,,72,0
365520,note_on,75,0,1,,,,,,,,,,,,,,,0,,,74,55
365520,note_off,480,0,3,,,,,,,,,,,,,,,2,,,62,0
365520,note_off,0,0,3,,,,,,,,,,,,,,,2,,,65,0
365520,note_on,0,0,3,,,,,,,,,,,,,,,2,,,62,44
365520,note_on,0,0,3,,,,,,,,,,,,,,,2,,,65,44
365565,note_off,45,0,1,,,,,,,,,,,,,,,0,,,71,0
365600,note_on,35,0,1,,,,,,,,,,,,,,,0,,,72,56
365645,note_off,45,0,1,,,,,,,,,,,,,,,0,,,74,0
365680,note_on,35,0,1,,,,,,,,,,,,,,,0,,,76,56
365725,note_off,45,0,1,,,,,,,,,,,,,,,0,,,72,0
365740,note_on,0,0,1,,,,,,,,,,,,,,,0,,,76,56
365740,note_off,15,0,1,,,,,,,,,,,,,,,0,,,76,0
365760,note_on,20,0,1,,,,,,,,,,,,,,,0,,,74,56
365805,note_off,45,0,1,,,,,,,,,,,,,,,0,,,76,0
365840,note_on,35,0,1,,,,,,,,,,,,,,,0,,,77,57
365885,note_off,45,0,1,,,,,,,,,,,,,,,0,,,74,0
365920,note_on,35,0,1,,,,,,,,,,,,,,,0,,,76,57
365965,note_off,45,0,1,,,,,,,,,,,,,,,0,,,77,0
366000,note_on,0,0,3,,,,,,,,,,,,,,,2,,,65,43
366000,note_off,480,0,3,,,,,,,,,,,,,,,2,,,62,0
366000,note_off,0,0,3,,,,,,,,,,,,,,,2,,,65,0
366000,note_on,35,0,1,,,,,,,,,,,,,,,0,,,79,57
366000,note_on,0,0,3,,,,,,,,,,,,,,,2,,,62,43
366045,note_off,45,0,1,,,,,,,,,,,,,,,0,,,76,0
366080,note_on,35,0,1,,,,,,,,,,,,,,,0,,,77,58
366125,note_off,45,0,1,,,,,,,,,,,,,,,0,,,79,0
366160,note_on,35,0,1,,,,,,,,,,,,,,,0,,,81,58
366205,note_off,45,0,1,,,,,,,,,,,,,,,0,,,77,0
366240,note_on,35,0,1,,,,,,,,,,,,,,,0,,,79,58
366285,note_off,45,0,1,,,,,,,,,,,,,,,0,,,81,0
366320,note_on,35,0,1,,,,,,,,,,,,,,,0,,,83,59
366365,note_off,45,0,1,,,,,,,,,,,,,,,0,,,79,0
366400,note_on,35,0,1,,,,,,,,,,,,,,,0,,,81,59
366420,set_tempo,2820,1,0,,,,,,,480000,,,,,,,,,,,,
366445,note_off,45,0,1,,,,,,,,,,,,,,,0,,,83,0
366480,note_off,480,0,3,,,,,,,,,,,,,,,2,,,62,0
366480,note_on,35,0,1,,,,,,,,,,,,,,,0,,,84,59
366480,set_tempo,60,1,0,,,,,,,472440,,,,,,,,,,,,
366480,note_off,0,0,3,,,,,,,,,,,,,,,2,,,65,0
366480,note_on,0,0,3,,,,,,,,,,,,,,,2,,,62,43
366480,note_on,0,0,3,,,,,,,,,,,,,,,2,,,65,43
366525,note_off,45,0,1,,,,,,,,,,,,,,,0,,,81,0
366560,note_on,35,0,1,,,,,,,,,,,,,,,0,,,83,59
366605,note_off,45,0,1,,,,,,,,,,,,,,,0,,,84,0
366640,note_on,35,0,1,,,,,,,,,,,,,,,0,,,86,60
366685,note_off,45,0,1,,,,,,,,,,,,,,,0,,,83,0
366720,note_on,35,0,1,,,,,,,,,,,,,,,0,,,84,60
366765,note_off,45,0,1,,,,,,,,,,,,,,,0,,,86,0
366800,note_on,35,0,1,,,,,,,,,,,,,,,0,,,88,60
366845,note_off,45,0,1,,,,,,,,,,,,,,,0,,,84,0
366880,note_on,35,0,1,,,,,,,,,,,,,,,0,,,86,61
366925,note_off,45,0,1,,,,,,,,,,,,,,,0,,,88,0
366960,note_off,480,0,3,,,,,,,,,,,,,,,2,,,62,0
366960,note_on,0,0,3,,,,,,,,,,,,,,,2,,,65,42
366960,note_on,0,0,3,,,,,,,,,,,,,,,2,,,62,42
366960,note_on,35,0,1,,,,,,,,,,,,,,,0,,,89,61
366960,note_off,0,0,3,,,,,,,,,,,,,,,2,,,65,0
367005,note_off,45,0,1,,,,,,,,,,,,,,,0,,,86,0
367020,note_on,15,0,1,,,,,,,,,,,,,,,0,,,88,61
367065,note_off,45,0,1,,,,,,,,,,,,,,,0,,,89,0
367080,note_on,15,0,1,,,,,,,,,,,,,,,0,,,86,61
367125,note_off,45,0,1,,,,,,,,,,,,,,,0,,,88,0
367140,note_on,15,0,1,,,,,,,,,,,,,,,0,,,84,60
367185,note_off,45,0,1,,,,,,,,,,,,,,,0,,,86,0
367200,note_on,15,0,1,,,,,,,,,,,,,,,0,,,83,63
367245,note_off,45,0,1,,,,,,,,,,,,,,,0,,,84,0
367260,note_on,15,0,1,,,,,,,,,,,,,,,0,,,81,62
367305,note_off,45,0,1,,,,,,,,,,,,,,,0,,,83,0
367320,note_on,15,0,1,,,,,,,,,,,,,,,0,,,79,61
367365,note_off,45,0,1,,,,,,,,,,,,,,,0,,,81,0
367380,note_on,15,0,1,,,,,,,,,,,,,,,0,,,83,60
367425,note_off,45,0,1,,,,,,,,,,,,,,,0,,,79,0
367440,note_off,0,0,3,,,,,,,,,,,,,,,2,,,65,0
367440,note_on,0,0,3,,,,,,,,,,,,,,,2,,,62,42
367440,note_on,0,0,3,,,,,,,,,,,,,,,2,,,65,42
367440,note_on,15,0,1,,,,,,,,,,,,,,,0,,,86,59
367440,note_off,480,0,3,,,,,,,,,,,,,,,2,,,62,0
367485,note_off,45,0,1,,,,,,,,,,,,,,,0,,,83,0
367500,note_on,15,0,1,,,,,,,,,,,,,,,0,,,84,58
367545,note_off,45,0,1,,,,,,,,,,,,,,,0,,,86,0
367560,note_on,15,0,1,,,,,,,,,,,,,,,0,,,83,57
367605,note_off,45,0,1,,,,,,,,,,,,,,,0,,,84,0
367620,note_on,15,0,1,,,,,,,,,,,,,,,0,,,81,56
367665,note_off,45,0,1,,,,,,,,,,,,,,,0,,,83,0
367680,note_on,15,0,1,,,,,,,,,,,,,,,0,,,79,55
367725,note_off,45,0,1,,,,,,,,,,,,,,,0,,,81,0
367740,note_on,15,0,1,,,,,,,,,,,,,,,0,,,77,54
367785,note_off,45,0,1,,,,,,,,,,,,,,,0,,,79,0
367800,note_on,15,0,1,,,,,,,,,,,,,,,0,,,76,53
367800,set_tempo,1320,1,0,,,,,,,487804,,,,,,,,,,,,
367845,note_off,45,0,1,,,,,,,,,,,,,,,0,,,77,0
367860,set_tempo,60,1,0,,,,,,,508474,,,,,,,,,,,,
367860,note_on,15,0,1,,,,,,,,,,,,,,,0,,,74,52
367905,note_off,45,0,1,,,,,,,,,,,,,,,0,,,76,0
367920,note_off,3840,0,4,,,,,,,,,,,,,,,3,,,43,0
367920,note_off,0,0,3,,,,,,,,,,,,,,,2,,,65,0
367920,note_off,15,0,1,,,,,,,,,,,,,,,0,,,74,0
367920,note_on,0,0,1,,,,,,,,,,,,,,,0,,,75,60
367920,note_off,480,0,3,,,,,,,,,,,,,,,2,,,62,0
367920,note_on,0,0,4,,,,,,,,,,,,,,,3,,,48,59
367935,note_off,15,0,4,,,,,,,,,,,,,,,3,,,55,0
368030,set_tempo,170,1,0,,,,,,,472440,,,,,,,,,,,,
368160,note_on,0,0,1,,,,,,,,,,,,,,,0,,,76,67
368160,note_off,240,0,1,,,,,,,,,,,,,,,0,,,75,0
368400,note_on,480,0,3,,,,,,,,,,,,,,,2,,,55,43
368400,note_on,0,0,3,,,,,,,,,,,,,,,2,,,60,43
368590,note_off,190,0,3,,,,,,,,,,,,,,,2,,,55,0
368590,note_off,0,0,3,,,,,,,,,,,,,,,2,,,60,0
368880,note_on,290,0,3,,,,,,,,,,,,,,,2,,,64,43
368880,note_on,0,0,3,,,,,,,,,,,,,,,2,,,60,43
369000,set_tempo,970,1,0,,,,,,,491803,,,,,,,,,,,,
369070,note_off,190,0,3,,,,,,,,,,,,,,,2,,,64,0
369070,note_off,0,0,3,,,,,,,,,,,,,,,2,,,60,0
369100,note_off,1165,0,4,,,,,,,,,,,,,,,3,,,48,0
369120,set_tempo,120,1,0,,,,,,,472440,,,,,,,,,,,,
369225,note_off,1065,0,1,,,,,,,,,,,,,,,0,,,76,0
369240,note_on,21240,0,2,,,,,,,,,,,,,,,1,,,76,71
369360,note_on,135,0,1,,,,,,,,,,,,,,,0,,,84,75
369360,note_on,260,0,4,,,,,,,,,,,,,,,3,,,45,58
369840,note_on,770,0,3,,,,,,,,,,,,,,,2,,,60,42
369840,note_on,0,0,3,,,,,,,,,,,,,,,2,,,57,42
370030,note_off,190,0,3,,,,,,,,,,,,,,,2,,,60,0
370030,note_off,0,0,3,,,,,,,,,,,,,,,2,,,57,0
370320,note_on,290,0,3,,,,,,,,,,,,,,,2,,,64,41
370320,note_on,0,0,3,,,,,,,,,,,,,,,2,,,60,41
370485,note_off,1125,0,4,,,,,,,,,,,,,,,3,,,45,0
370510,note_off,190,0,3,,,,,,,,,,,,,,,2,,,64,0
370510,note_off,0,0,3,,,,,,,,,,,,,,,2,,,60,0
370740,set_tempo,1620,1,0,,,,,,,480000,,,,,,,,,,,,
370800,set_tempo,60,1,0,,,,,,,472440,,,,,,,,,,,,
370800,note_on,315,0,4,,,,,,,,,,,,,,,3,,,43,56
371040,note_on,1680,0,1,,,,,,,,,,,,,,,0,,,83,69
371040,note_off,1800,0,2,,,,,,,,,,,,,,,1,,,76,0
371045,note_off,5,0,1,,,,,,,,,,,,,,,0,,,84,0
371195,note_off,150,0,1,,,,,,,,,,,,,,,0,,,83,0
371280,note_on,85,0,1,,,,,,,,,,,,,,,0,,,81,68
371280,note_on,0,0,3,,,,,,,,,,,,,,,2,,,60,40
371280,note_on,770,0,3,,,,,,,,,,,,,,,2,,,55,40
371435,note_off,155,0,1,,,,,,,,,,,,,,,0,,,81,0
371470,note_off,0,0,3,,,,,,,,,,,,,,,2,,,60,0
371470,note_off,190,0,3,,,,,,,,,,,,,,,2,,,55,0
371520,note_on,85,0,1,,,,,,,,,,,,,,,0,,,79,67
371675,note_off,155,0,1,,,,,,,,,,,,,,,0,,,79,0
371760,note_on,85,0,1,,,,,,,,,,,,,,,0,,,78,66
371760,note_on,290,0,3,,,,,,,,,,,,,,,2,,,64,40
371760,note_on,0,0,3,,,,,,,,,,,,,,,2,,,60,40
371915,note_off,155,0,1,,,,,,,,,,,,,,,0,,,78,0
371925,note_off,1125,0,4,,,,,,,,,,,,,,,3,,,43,0
371950,note_off,0,0,3,,,,,,,,,,,,,,,2,,,60,0
371950,note_off,190,0,3,,,,,,,,,,,,,,,2,,,64,0
372000,note_on,85,0,1,,,,,,,,,,,,,,,0,,,76,65
372120,set_tempo,1320,1,0,,,,,,,487804,,,,,,,,,,,,
372155,note_off,155,0,1,,,,,,,,,,,,,,,0,,,76,0
372240,set_tempo,120,1,0,,,,,,,472440,,,,,,,,,,,,
372240,note_on,85,0,1,,,,,,,,,,,,,,,0,,,76,64
372240,note_on,315,0,4,,,,,,,,,,,,,,,3,,,42,55
372720,note_on,770,0,3,,,,,,,,,,,,,,,2,,,60,39
372720,note_off,480,0,1,,,,,,,,,,,,,,,0,,,76,0
372720,note_on,0,0,3,,,,,,,,,,,,,,,2,,,57,39
372720,note_on,0,0,1,,,,,,,,,,,,,,,0,,,74,62
372910,note_off,0,0,3,,,,,,,,,,,,,,,2,,,57,0
372910,note_off,190,0,3,,,,,,,,,,,,,,,2,,,60,0
373200,note_on,0,0,3,,,,,,,,,,,,,,,2,,,60,39
373200,note_on,290,0,3,,,,,,,,,,,,,,,2,,,62,39
373365,note_off,1125,0,4,,,,,,,,,,,,,,,3,,,42,0
373390,note_off,190,0,3,,,,,,,,,,,,,,,2,,,62,0
373390,note_off,0,0,3,,,,,,,,,,,,,,,2,,,60,0
373680,note_on,315,0,4,,,,,,,,,,,,,,,3,,,42,53
373835,note_off,1115,0,1,,,,,,,,,,,,,,,0,,,74,0
373920,note_on,85,0,1,,,,,,,,,,,,,,,0,,,73,59
374075,note_off,155,0,1,,,,,,,,,,,,,,,0,,,73,0
374160,note_on,85,0,1,,,,,,,,,,,,,,,0,,,74,59
374160,note_on,0,0,3,,,,,,,,,,,,,,,2,,,57,38
374160,note_on,770,0,3,,,,,,,,,,,,,,,2,,,60,38
374315,note_off,155,0,1,,,,,,,,,,,,,,,0,,,74,0
374350,note_off,0,0,3,,,,,,,,,,,,,,,2,,,57,0
374350,note_off,190,0,3,,,,,,,,,,,,,,,2,,,60,0
374400,note_on,85,0,1,,,,,,,,,,,,,,,0,,,73,59
374555,note_off,155,0,1,,,,,,,,,,,,,,,0,,,73,0
374640,note_on,85,0,1,,,,,,,,,,,,,,,0,,,74,59
374640,note_on,290,0,3,,,,,,,,,,,,,,,2,,,62,37
374640,note_on,0,0,3,,,,,,,,,,,,,,,2,,,60,37
374795,note_off,155,0,1,,,,,,,,,,,,,,,0,,,74,0
374805,note_off,1125,0,4,,,,,,,,,,,,,,,3,,,42,0
374830,note_off,190,0,3,,,,,,,,,,,,,,,2,,,62,0
374830,note_off,0,0,3,,,,,,,,,,,,,,,2,,,60,0
374880,note_on,85,0,1,,,,,,,,,,,,,,,0,,,73,58
375035,note_off,155,0,1,,,,,,,,,,,,,,,0,,,73,0
375060,set_tempo,2820,1,0,,,,,,,480000,,,,,,,,,,,,
375120,set_tempo,60,1,0,,,,,,,472440,,,,,,,,,,,,
375120,note_on,85,0,1,,,,,,,,,,,,,,,0,,,74,58
375120,note_on,315,0,4,,,,,,,,,,,,,,,3,,,43,52
375275,note_off,155,0,1,,,,,,,,,,,,,,,0,,,74,0
375360,note_on,85,0,1,,,,,,,,,,,,,,,0,,,73,58
375515,note_off,155,0,1,,,,,,,,,,,,,,,0,,,73,0
375600,note_on,0,0,3,,,,,,,,,,,,,,,2,,,55,36
375600,note_on,770,0,3,,,,,,,,,,,,,,,2,,,59,36
375600,note_on,85,0,1,,,,,,,,,,,,,,,0,,,74,57
375755,note_off,155,0,1,,,,,,,,,,,,,,,0,,,74,0
375790,note_off,190,0,3,,,,,,,,,,,,,,,2,,,59,0
375790,note_off,0,0,3,,,,,,,,,,,,,,,2,,,55,0
375840,note_on,85,0,1,,,,,,,,,,,,,,,0,,,76,57
375995,note_off,155,0,1,,,,,,,,,,,,,,,0,,,76,0
376080,note_on,290,0,3,,,,,,,,,,,,,,,2,,,62,36
376080,note_on,0,0,3,,,,,,,,,,,,,,,2,,,59,36
376080,note_on,85,0,1,,,,,,,,,,,,,,,0,,,78,57
376235,note_off,155,0,1,,,,,,,,,,,,,,,0,,,78,0
376245,note_off,1125,0,4,,,,,,,,,,,,,,,3,,,43,0
376270,note_off,190,0,3,,,,,,,,,,,,,,,2,,,62,0
376270,note_off,0,0,3,,,,,,,,,,,,,,,2,,,59,0
376320,note_on,85,0,1,,,,,,,,,,,,,,,0,,,79,56
376440,set_tempo,1320,1,0,,,,,,,487804,,,,,,,,,,,,
376475,note_off,155,0,1,,,,,,,,,,,,,,,0,,,79,0
376560,note_on,315,0,4,,,,,,,,,,,,,,,3,,,36,50
376560,set_tempo,120,1,0,,,,,,,472440,,,,,,,,,,,,
376560,note_on,85,0,1,,,,,,,,,,,,,,,0,,,69,56
376715,note_off,155,0,1,,,,,,,,,,,,,,,0,,,69,0
376800,note_on,85,0,1,,,,,,,,,,,,,,,0,,,68,56
376955,note_off,155,0,1,,,,,,,,,,,,,,,0,,,68,0
377040,note_on,0,0,3,,,,,,,,,,,,,,,2,,,48,35
377040,note_on,770,0,3,,,,,,,,,,,,,,,2,,,52,35
377040,note_on,85,0,1,,,,,,,,,,,,,,,0,,,69,56
377195,note_off,155,0,1,,,,,,,,,,,,,,,0,,,69,0
377230,note_off,190,0,3,,,,,,,,,,,,,,,2,,,52,0
377230,note_off,0,0,3,,,,,,,,,,,,,,,2,,,48,0
377280,note_on,85,0,1,,,,,,,,,,,,,,,0,,,71,55
377435,note_off,155,0,1,,,,,,,,,,,,,,,0,,,71,0
377520,note_on,85,0,1,,,,,,,,,,,,,,,0,,,72,57
377520,note_on,0,0,3,,,,,,,,,,,,,,,2,,,57,35
377520,note_on,290,0,3,,,,,,,,,,,,,,,2,,,52,35
377620,note_off,100,0,1,,,,,,,,,,,,,,,0,,,72,0
377680,note_on,60,0,1,,,,,,,,,,,,,,,0,,,74,57
377685,note_off,1125,0,4,,,,,,,,,,,,,,,3,,,36,0
377710,note_off,0,0,3,,,,,,,,,,,,,,,2,,,57,0
377710,note_off,190,0,3,,,,,,,,,,,,,,,2,,,52,0
377760,set_tempo,1200,1,0,,,,,,,480000,,,,,,,,,,,,
377780,note_off,100,0,1,,,,,,,,,,,,,,,0,,,74,0
377830,set_tempo,70,1,0,,,,,,,487804,,,,,,,,,,,,
377840,note_on,60,0,1,,,,,,,,,,,,,,,0,,,76,58
377940,note_off,100,0,1,,,,,,,,,,,,,,,0,,,76,0
378000,note_on,315,0,4,,,,,,,,,,,,,,,3,,,38,49
378000,note_on,60,0,1,,,,,,,,,,,,,,,0,,,76,66
378050,set_tempo,220,1,0,,,,,,,472440,,,,,,,,,,,,
378480,note_on,770,0,3,,,,,,,,,,,,,,,2,,,50,34
378480,note_on,0,0,3,,,,,,,,,,,,,,,2,,,55,34
378480,note_off,480,0,1,,,,,,,,,,,,,,,0,,,76,0
378480,note_on,0,0,1,,,,,,,,,,,,,,,0,,,62,54
378670,note_off,190,0,3,,,,,,,,,,,,,,,2,,,50,0
378670,note_off,0,0,3,,,,,,,,,,,,,,,2,,,55,0
378960,note_on,290,0,3,,,,,,,,,,,,,,,2,,,59,33
378960,note_on,0,0,3,,,,,,,,,,,,,,,2,,,55,33
379125,note_off,1125,0,4,,,,,,,,,,,,,,,3,,,38,0
379150,note_off,190,0,3,,,,,,,,,,,,,,,2,,,59,0
379150,note_off,0,0,3,,,,,,,,,,,,,,,2,,,55,0
379440,note_on,315,0,4,,,,,,,,,,,,,,,3,,,38,47
379680,note_on,1200,0,1,,,,,,,,,,,,,,,0,,,64,52
379700,note_off,20,0,1,,,,,,,,,,,,,,,0,,,62,0
379800,note_on,0,0,1,,,,,,,,,,,,,,,0,,,62,52
379800,note_off,100,0,1,,,,,,,,,,,,,,,0,,,64,0
379920,note_on,0,0,3,,,,,,,,,,,,,,,2,,,50,32
379920,note_on,770,0,3,,,,,,,,,,,,,,,2,,,57,32
379920,note_on,0,0,1,,,,,,,,,,,,,,,0,,,61,52
379920,note_off,120,0,1,,,,,,,,,,,,,,,0,,,62,0
380075,note_off,155,0,1,,,,,,,,,,,,,,,0,,,61,0
380110,note_off,0,0,3,,,,,,,,,,,,,,,2,,,50,0
380110,note_off,190,0,3,,,,,,,,,,,,,,,2,,,57,0
380160,note_on,85,0,1,,,,,,,,,,,,,,,0,,,62,52
380315,note_off,155,0,1,,,,,,,,,,,,,,,0,,,62,0
380400,note_on,85,0,1,,,,,,,,,,,,,,,0,,,64,51
380400,note_on,290,0,3,,,,,,,,,,,,,,,2,,,60,32
380400,note_on,0,0,3,,,,,,,,,,,,,,,2,,,57,32
380520,set_tempo,2470,1,0,,,,,,,487804,,,,,,,,,,,,
380555,note_off,155,0,1,,,,,,,,,,,,,,,0,,,64,0
380565,note_off,1125,0,4,,,,,,,,,,,,,,,3,,,38,0
380590,note_off,190,0,3,,,,,,,,,,,,,,,2,,,60,0
380590,note_off,0,0,3,,,,,,,,,,,,,,,2,,,57,0
380640,set_tempo,120,1,0,,,,,,,500000,,,,,,,,,,,,
380640,note_on,85,0,1,,,,,,,,,,,,,,,0,,,66,51
380760,note_off,120,0,1,,,,,,,,,,,,,,,0,,,66,0
380760,set_tempo,120,1,0,,,,,,,500000,,,,,,,,,,,,
380800,note_on,40,0,1,,,,,,,,,,,,,,,0,,,66,51
380880,note_on,80,0,1,,,,,,,,,,,,,,,0,,,69,59
380880,note_on,315,0,4,,,,,,,,,,,,,,,3,,,38,44
380920,note_off,40,0,1,,,,,,,,,,,,,,,0,,,66,0
380940,set_tempo,180,1,0,,,,,,,476190,,,,,,,,,,,,
381360,note_on,770,0,3,,,,,,,,,,,,,,,2,,,55,31
381360,note_on,0,0,3,,,,,,,,,,,,,,,2,,,60,31
381550,note_off,190,0,3,,,,,,,,,,,,,,,2,,,55,0
381550,note_off,0,0,3,,,,,,,,,,,,,,,2,,,60,0
381840,note_on,290,0,3,,,,,,,,,,,,,,,2,,,60,30
381840,note_on,0,0,3,,,,,,,,,,,,,,,2,,,62,30
382005,note_off,1125,0,4,,,,,,,,,,,,,,,3,,,38,0
382030,note_off,190,0,3,,,,,,,,,,,,,,,2,,,60,0
382030,note_off,0,0,3,,,,,,,,,,,,,,,2,,,62,0
382200,set_tempo,1260,1,0,,,,,,,504201,,,,,,,,,,,,
382320,note_on,290,0,3,,,,,,,,,,,,,,,2,,,59,30
382320,note_on,0,0,3,,,,,,,,,,,,,,,2,,,55,30
382320,note_on,11280,0,2,,,,,,,,,,,,,,,1,,,67,42
382335,note_off,1415,0,1,,,,,,,,,,,,,,,0,,,69,0
382560,set_tempo,360,1,0,,,,,,,666666,,,,,,,,,,,,
382560,note_off,240,0,2,,,,,,,,,,,,,,,1,,,67,0
382565,note_off,0,0,3,,,,,,,,,,,,,,,2,,,55,0
382565,note_off,245,0,3,,,,,,,,,,,,,,,2,,,59,0
382800,set_tempo,240,1,0,,,,,,,487804,,,,,,,,,,,,
382800,note_on,240,0,2,,,,,,,,,,,,,,,1,,,67,34
383110,note_off,310,0,2,,,,,,,,,,,,,,,1,,,67,0
383280,note_on,170,0,2,,,,,,,,,,,,,,,1,,,67,35
383590,note_off,310,0,2,,,,,,,,,,,,,,,1,,,67,0
383760,note_on,170,0,2,,,,,,,,,,,,,,,1,,,67,37
384240,note_off,480,0,2,,,,,,,,,,,,,,,1,,,67,0
384240,note_on,0,0,2,,,,,,,,,,,,,,,1,,,66,39
384720,note_off,480,0,2,,,,,,,,,,,,,,,1,,,66,0
384720,note_on,0,0,2,,,,,,,,,,,,,,,1,,,67,41
385080,set_tempo,2280,1,0,,,,,,,491803,,,,,,,,,,,,
385200,set_tempo,120,1,0,,,,,,,487804,,,,,,,,,,,,
385200,note_off,480,0,2,,,,,,,,,,,,,,,1,,,67,0
385200,note_on,0,0,2,,,,,,,,,,,,,,,1,,,67,42
385680,note_on,0,0,2,,,,,,,,,,,,,,,1,,,66,44
385680,note_off,480,0,2,,,,,,,,,,,,,,,1,,,67,0
386160,note_off,480,0,2,,,,,,,,,,,,,,,1,,,66,0
386160,note_on,0,0,2,,,,,,,,,,,,,,,1,,,67,46
386160,note_on,3595,0,3,,,,,,,,,,,,,,,2,,,63,38
386640,note_off,480,0,2,,,,,,,,,,,,,,,1,,,67,0
386640,note_off,480,0,3,,,,,,,,,,,,,,,2,,,63,0
386640,note_on,0,0,3,,,,,,,,,,,,,,,2,,,63,39
386640,note_on,0,0,2,,,,,,,,,,,,,,,1,,,67,48
387120,note_off,480,0,2,,,,,,,,,,,,,,,1,,,67,0
387120,note_on,0,0,2,,,,,,,,,,,,,,,1,,,66,49
387120,note_off,480,0,3,,,,,,,,,,,,,,,2,,,63,0
387120,note_on,0,0,3,,,,,,,,,,,,,,,2,,,62,41
387600,note_off,480,0,3,,,,,,,,,,,,,,,2,,,62,0
387600,note_on,0,0,3,,,,,,,,,,,,,,,2,,,63,43
387600,note_off,480,0,2,,,,,,,,,,,,,,,1,,,66,0
387600,note_on,0,0,2,,,,,,,,,,,,,,,1,,,67,51
388080,note_off,480,0,3,,,,,,,,,,,,,,,2,,,63,0
388080,note_off,480,0,2,,,,,,,,,,,,,,,1,,,67,0
388080,note_on,0,0,2,,,,,,,,,,,,,,,1,,,67,53
388080,note_on,0,0,3,,,,,,,,,,,,,,,2,,,63,45
388560,note_on,0,0,3,,,,,,,,,,,,,,,2,,,62,47
388560,note_off,480,0,3,,,,,,,,,,,,,,,2,,,63,0
388560,note_off,480,0,2,,,,,,,,,,,,,,,1,,,67,0
388560,note_on,0,0,2,,,,,,,,,,,,,,,1,,,66,55
389040,note_on,0,0,2,,,,,,,,,,,,,,,1,,,70,56
389040,note_on,0,0,3,,,,,,,,,,,,,,,2,,,63,48
389040,note_off,480,0,3,,,,,,,,,,,,,,,2,,,62,0
389040,note_off,480,0,2,,,,,,,,,,,,,,,1,,,66,0
389040,note_on,6705,0,1,,,,,,,,,,,,,,,0,,,73,56
389040,note_on,0,0,2,,,,,,,,,,,,,,,1,,,67,56
389055,set_tempo,3855,1,0,,,,,,,491803,,,,,,,,,,,,
389520,note_on,7515,0,4,,,,,,,,,,,,,,,3,,,57,68
389520,set_tempo,465,1,0,,,,,,,487804,,,,,,,,,,,,
389520,note_off,480,0,1,,,,,,,,,,,,,,,0,,,73,0
389520,note_on,0,0,1,,,,,,,,,,,,,,,0,,,73,62
389520,note_on,0,0,2,,,,,,,,,,,,,,,1,,,67,62
389520,note_on,0,0,2,,,,,,,,,,,,,,,1,,,70,62
389520,note_off,0,0,2,,,,,,,,,,,,,,,1,,,67,0
389520,note_off,480,0,3,,,,,,,,,,,,,,,2,,,63,0
389520,note_off,480,0,2,,,,,,,,,,,,,,,1,,,70,0
389520,note_on,0,0,3,,,,,,,,,,,,,,,2,,,64,56
390000,note_on,0,0,2,,,,,,,,,,,,,,,1,,,66,54
390000,note_off,480,0,2,,,,,,,,,,,,,,,1,,,67,0
390000,note_on,0,0,3,,,,,,,,,,,,,,,2,,,63,48
390000,note_off,480,0,3,,,,,,,,,,,,,,,2,,,64,0
390480,note_on,0,0,3,,,,,,,,,,,,,,,2,,,64,47
390480,note_off,480,0,2,,,,,,,,,,,,,,,1,,,66,0
390480,note_on,0,0,2,,,,,,,,,,,,,,,1,,,67,52
390480,note_off,480,0,3,,,,,,,,,,,,,,,2,,,63,0
390960,note_off,480,0,3,,,,,,,,,,,,,,,2,,,64,0
390960,note_on,0,0,3,,,,,,,,,,,,,,,2,,,64,46
390960,note_off,480,0,2,,,,,,,,,,,,,,,1,,,67,0
390960,note_on,0,0,2,,,,,,,,,,,,,,,1,,,67,50
391440,note_off,480,0,2,,,,,,,,,,,,,,,1,,,67,0
391440,note_on,0,0,2,,,,,,,,,,,,,,,1,,,66,48
391440,note_on,0,0,3,,,,,,,,,,,,,,,2,,,63,44
391440,note_off,480,0,3,,,,,,,,,,,,,,,2,,,64,0
391890,note_off,450,0,2,,,,,,,,,,,,,,,1,,,70,0
391890,note_off,2370,0,1,,,,,,,,,,,,,,,0,,,73,0
391920,note_on,0,0,2,,,,,,,,,,,,,,,1,,,67,46
391920,note_on,0,0,3,,,,,,,,,,,,,,,2,,,64,43
391920,note_off,480,0,3,,,,,,,,,,,,,,,2,,,63,0
391920,note_on,30,0,1,,,,,,,,,,,,,,,0,,,73,49
391920,note_on,0,0,2,,,,,,,,,,,,,,,1,,,70,46
391920,note_off,30,0,2,,,,,,,,,,,,,,,1,,,66,0
392370,note_off,2850,0,4,,,,,,,,,,,,,,,3,,,57,0
392400,note_off,480,0,2,,,,,,,,,,,,,,,1,,,67,0
392400,note_off,0,0,2,,,,,,,,,,,,,,,1,,,70,0
392400,note_on,30,0,4,,,,,,,,,,,,,,,3,,,57,53
392400,note_on,0,0,2,,,,,,,,,,,,,,,1,,,67,44
392400,note_on,0,0,2,,,,,,,,,,,,,,,1,,,70,44
392400,note_off,480,0,3,,,,,,,,,,,,,,,2,,,64,0
392400,note_on,0,0,3,,,,,,,,,,,,,,,2,,,64,42
392400,note_off,480,0,1,,,,,,,,,,,,,,,0,,,73,0
392400,note_on,0,0,1,,,,,,,,,,,,,,,0,,,73,47
392880,note_off,480,0,3,,,,,,,,,,,,,,,2,,,64,0
392880,note_on,0,0,3,,,,,,,,,,,,,,,2,,,65,41
392880,note_on,0,0,2,,,,,,,,,,,,,,,1,,,69,43
392880,note_off,0,0,2,,,,,,,,,,,,,,,1,,,67,0
392880,note_off,480,0,2,,,,,,,,,,,,,,,1,,,70,0
392880,note_off,480,0,1,,,,,,,,,,,,,,,0,,,73,0
392880,note_on,0,0,1,,,,,,,,,,,,,,,0,,,74,46
393360,note_on,0,0,2,,,,,,,,,,,,,,,1,,,69,41
393360,note_on,0,0,1,,,,,,,,,,,,,,,0,,,76,44
393360,note_off,480,0,2,,,,,,,,,,,,,,,1,,,69,0
393360,note_on,0,0,3,,,,,,,,,,,,,,,2,,,61,39
393360,note_off,480,0,3,,,,,,,,,,,,,,,2,,,65,0
393360,note_off,480,0,1,,,,,,,,,,,,,,,0,,,74,0
393590,set_tempo,4070,1,0,,,,,,,500000,,,,,,,,,,,,
393840,note_on,1440,0,4,,,,,,,,,,,,,,,3,,,50,45
393840,note_on,0,0,2,,,,,,,,,,,,,,,1,,,69,39
393840,note_off,480,0,1,,,,,,,,,,,,,,,0,,,76,0
393840,note_on,0,0,1,,,,,,,,,,,,,,,0,,,76,42
393840,note_off,480,0,3,,,,,,,,,,,,,,,2,,,61,0
393840,note_off,480,0,2,,,,,,,,,,,,,,,1,,,69,0
393840,note_on,0,0,3,,,,,,,,,,,,,,,2,,,61,38
393855,note_off,15,0,4,,,,,,,,,,,,,,,3,,,57,0
395280,note_off,1440,0,2,,,,,,,,,,,,,,,1,,,69,0
395280,note_on,0,0,2,,,,,,,,,,,,,,,1,,,69,34
395280,note_on,0,0,1,,,,,,,,,,,,,,,0,,,77,34
395280,note_on,0,0,3,,,,,,,,,,,,,,,2,,,62,32
395280,note_off,1440,0,3,,,,,,,,,,,,,,,2,,,61,0
395280,note_off,1440,0,1,,,,,,,,,,,,,,,0,,,76,0
395295,set_tempo,1705,1,0,,,,,,,526315,,,,,,,,,,,,
395640,note_off,1785,0,4,,,,,,,,,,,,,,,3,,,50,0
395640,note_off,360,0,2,,,,,,,,,,,,,,,1,,,69,0
395645,note_off,365,0,3,,,,,,,,,,,,,,,2,,,62,0
395645,note_off,365,0,1,,,,,,,,,,,,,,,0,,,77,0
395760,note_on,120,0,2,,,,,,,,,,,,,,,1,,,65,30
395760,set_tempo,465,1,0,,,,,,,487804,,,,,,,,,,,,
396155,note_off,395,0,2,,,,,,,,,,,,,,,1,,,65,0
396240,note_on,85,0,2,,,,,,,,,,,,,,,1,,,65,31
396635,note_off,395,0,2,,,,,,,,,,,,,,,1,,,65,0
396720,note_on,85,0,2,,,,,,,,,,,,,,,1,,,65,33
397200,note_off,480,0,2,,,,,,,,,,,,,,,1,,,65,0
397200,note_on,0,0,2,,,,,,,,,,,,,,,1,,,64,34
397680,note_off,480,0,2,,,,,,,,,,,,,,,1,,,64,0
397680,note_on,0,0,2,,,,,,,,,,,,,,,1,,,65,36
398040,set_tempo,2280,1,0,,,,,,,491803,,,,,,,,,,,,
398160,note_off,480,0,2,,,,,,,,,,,,,,,1,,,65,0
398160,note_on,0,0,2,,,,,,,,,,,,,,,1,,,65,38
398160,set_tempo,120,1,0,,,,,,,487804,,,,,,,,,,,,
398640,note_off,480,0,2,,,,,,,,,,,,,,,1,,,65,0
398640,note_on,0,0,2,,,,,,,,,,,,,,,1,,,64,39
399120,note_on,0,0,2,,,,,,,,,,,,,,,1,,,65,41
399120,note_on,3475,0,3,,,,,,,,,,,,,,,2,,,61,36
399120,note_off,480,0,2,,,,,,,,,,,,,,,1,,,64,0
399600,note_on,0,0,3,,,,,,,,,,,,,,,2,,,61,39
399600,note_off,480,0,3,,,,,,,,,,,,,,,2,,,61,0
399600,note_off,480,0,2,,,,,,,,,,,,,,,1,,,65,0
399600,note_on,0,0,2,,,,,,,,,,,,,,,1,,,65,42
400080,note_off,480,0,3,,,,,,,,,,,,,,,2,,,61,0
400080,note_off,480,0,2,,,,,,,,,,,,,,,1,,,65,0
400080,note_on,0,0,2,,,,,,,,,,,,,,,1,,,64,44
400080,note_on,0,0,3,,,,,,,,,,,,,,,2,,,60,41
400560,note_off,480,0,2,,,,,,,,,,,,,,,1,,,64,0
400560,note_on,0,0,2,,,,,,,,,,,,,,,1,,,65,46
400560,note_off,480,0,3,,,,,,,,,,,,,,,2,,,60,0
400560,note_on,0,0,3,,,,,,,,,,,,,,,2,,,61,44
401040,note_off,480,0,2,,,,,,,,,,,,,,,1,,,65,0
401040,note_on,0,0,2,,,,,,,,,,,,,,,1,,,65,47
401040,note_on,0,0,3,,,,,,,,,,,,,,,2,,,61,47
401040,note_off,480,0,3,,,,,,,,,,,,,,,2,,,61,0
401520,note_off,480,0,3,,,,,,,,,,,,,,,2,,,61,0
401520,note_on,0,0,3,,,,,,,,,,,,,,,2,,,60,49
401520,note_on,0,0,2,,,,,,,,,,,,,,,1,,,64,49
401520,note_off,480,0,2,,,,,,,,,,,,,,,1,,,65,0
402000,note_on,0,0,2,,,,,,,,,,,,,,,1,,,68,53
402000,note_on,0,0,3,,,,,,,,,,,,,,,2,,,61,52
402000,note_on,0,0,2,,,,,,,,,,,,,,,1,,,65,53
402000,note_off,480,0,2,,,,,,,,,,,,,,,1,,,64,0
402000,note_on,6355,0,1,,,,,,,,,,,,,,,0,,,71,53
402000,set_tempo,3840,1,0,,,,,,,491803,,,,,,,,,,,,
402000,note_off,480,0,3,,,,,,,,,,,,,,,2,,,60,0
402480,set_tempo,480,1,0,,,,,,,487804,,,,,,,,,,,,
402480,note_on,6840,0,4,,,,,,,,,,,,,,,3,,,55,70
402480,note_off,480,0,2,,,,,,,,,,,,,,,1,,,65,0
402480,note_off,0,0,2,,,,,,,,,,,,,,,1,,,68,0
402480,note_on,0,0,2,,,,,,,,,,,,,,,1,,,68,62
402480,note_on,0,0,2,,,,,,,,,,,,,,,1,,,65,62
402480,note_on,0,0,1,,,,,,,,,,,,,,,0,,,71,62
402480,note_off,480,0,3,,,,,,,,,,,,,,,2,,,61,0
402480,note_on,0,0,3,,,,,,,,,,,,,,,2,,,62,58
402480,note_off,480,0,1,,,,,,,,,,,,,,,0,,,71,0
402960,note_on,0,0,3,,,,,,,,,,,,,,,2,,,61,51
402960,note_off,480,0,3,,,,,,,,,,,,,,,2,,,62,0
402960,note_on,0,0,2,,,,,,,,,,,,,,,1,,,64,54
402960,note_off,480,0,2,,,,,,,,,,,,,,,1,,,65,0
403440,note_off,480,0,2,,,,,,,,,,,,,,,1,,,64,0
403440,note_off,480,0,3,,,,,,,,,,,,,,,2,,,61,0
403440,note_on,0,0,3,,,,,,,,,,,,,,,2,,,62,49
403440,note_on,0,0,2,,,,,,,,,,,,,,,1,,,65,53
403920,note_off,480,0,2,,,,,,,,,,,,,,,1,,,65,0
403920,note_off,480,0,3,,,,,,,,,,,,,,,2,,,62,0
403920,note_on,0,0,3,,,,,,,,,,,,,,,2,,,62,48
403920,note_on,0,0,2,,,,,,,,,,,,,,,1,,,65,51
404400,note_off,480,0,3,,,,,,,,,,,,,,,2,,,62,0
404400,note_on,0,0,3,,,,,,,,,,,,,,,2,,,61,47
404400,note_off,480,0,2,,,,,,,,,,,,,,,1,,,65,0
404400,note_on,0,0,2,,,,,,,,,,,,,,,1,,,64,49
404850,note_off,450,0,2,,,,,,,,,,,,,,,1,,,68,0
404865,note_off,2385,0,1,,,,,,,,,,,,,,,0,,,71,0
404880,note_on,15,0,1,,,,,,,,,,,,,,,0,,,71,54
404880,note_off,30,0,2,,,,,,,,,,,,,,,1,,,64,0
404880,note_on,0,0,2,,,,,,,,,,,,,,,1,,,65,47
404880,note_on,0,0,2,,,,,,,,,,,,,,,1,,,68,47
404880,note_off,480,0,3,,,,,,,,,,,,,,,2,,,61,0
404880,note_on,0,0,3,,,,,,,,,,,,,,,2,,,62,45
405345,note_off,2865,0,4,,,,,,,,,,,,,,,3,,,55,0
405360,note_on,0,0,2,,,,,,,,,,,,,,,1,,,68,46
405360,note_on,0,0,3,,,,,,,,,,,,,,,2,,,62,44
405360,note_on,0,0,1,,,,,,,,,,,,,,,0,,,71,53
405360,note_off,480,0,1,,,,,,,,,,,,,,,0,,,71,0
405360,note_on,15,0,4,,,,,,,,,,,,,,,3,,,55,57
405360,note_off,480,0,3,,,,,,,,,,,,,,,2,,,62,0
405360,note_on,0,0,2,,,,,,,,,,,,,,,1,,,65,46
405360,note_off,0,0,2,,,,,,,,,,,,,,,1,,,68,0
405360,note_off,480,0,2,,,,,,,,,,,,,,,1,,,65,0
405840,note_off,0,0,2,,,,,,,,,,,,,,,1,,,68,0
405840,note_off,480,0,2,,,,,,,,,,,,,,,1,,,65,0
405840,note_off,480,0,3,,,,,,,,,,,,,,,2,,,62,0
405840,note_on,0,0,3,,,,,,,,,,,,,,,2,,,64,43
405840,note_on,0,0,1,,,,,,,,,,,,,,,0,,,72,52
405840,note_on,0,0,2,,,,,,,,,,,,,,,1,,,67,44
405840,note_off,480,0,1,,,,,,,,,,,,,,,0,,,71,0
406320,note_off,480,0,3,,,,,,,,,,,,,,,2,,,64,0
406320,note_on,960,0,4,,,,,,,,,,,,,,,3,,,59,52
406320,note_on,0,0,2,,,,,,,,,,,,,,,1,,,67,43
406320,note_off,480,0,1,,,,,,,,,,,,,,,0,,,72,0
406320,note_off,480,0,2,,,,,,,,,,,,,,,1,,,67,0
406320,note_on,0,0,1,,,,,,,,,,,,,,,0,,,74,51
406630,set_tempo,4150,1,0,,,,,,,500000,,,,,,,,,,,,
406800,note_off,480,0,2,,,,,,,,,,,,,,,1,,,67,0
406800,note_on,0,0,2,,,,,,,,,,,,,,,1,,,67,43
406800,note_off,480,0,1,,,,,,,,,,,,,,,0,,,74,0
406800,note_off,480,0,4,,,,,,,,,,,,,,,3,,,55,0
406800,note_on,0,0,1,,,,,,,,,,,,,,,0,,,76,55
406800,note_off,0,0,4,,,,,,,,,,,,,,,3,,,59,0
406800,set_tempo,170,1,0,,,,,,,487804,,,,,,,,,,,,
406800,note_on,0,0,4,,,,,,,,,,,,,,,3,,,60,50
407280,note_on,0,0,2,,,,,,,,,,,,,,,1,,,67,42
407280,note_off,480,0,2,,,,,,,,,,,,,,,1,,,67,0
407760,note_on,0,0,2,,,,,,,,,,,,,,,1,,,68,42
407760,note_off,480,0,2,,,,,,,,,,,,,,,1,,,67,0
408180,set_tempo,1380,1,0,,,,,,,491803,,,,,,,,,,,,
408240,note_on,0,0,4,,,,,,,,,,,,,,,3,,,53,51
408240,note_off,1440,0,4,,,,,,,,,,,,,,,3,,,60,0
408240,set_tempo,60,1,0,,,,,,,487804,,,,,,,,,,,,
408240,note_on,0,0,1,,,,,,,,,,,,,,,0,,,74,52
408240,note_off,480,0,2,,,,,,,,,,,,,,,1,,,68,0
408240,note_off,1440,0,1,,,,,,,,,,,,,,,0,,,76,0
408720,note_on,480,0,2,,,,,,,,,,,,,,,1,,,68,41
409200,note_on,0,0,2,,,,,,,,,,,,,,,1,,,69,40
409200,note_off,480,0,2,,,,,,,,,,,,,,,1,,,68,0
409620,set_tempo,1380,1,0,,,,,,,491803,,,,,,,,,,,,
409680,note_off,480,0,2,,,,,,,,,,,,,,,1,,,69,0
409680,note_on,0,0,4,,,,,,,,,,,,,,,3,,,54,49
409680,note_off,1440,0,4,,,,,,,,,,,,,,,3,,,53,0
409680,note_on,0,0,1,,,,,,,,,,,,,,,0,,,72,49
409680,note_off,1440,0,1,,,,,,,,,,,,,,,0,,,74,0
409680,set_tempo,60,1,0,,,,,,,487804,,,,,,,,,,,,
410160,note_on,480,0,2,,,,,,,,,,,,,,,1,,,69,39
410640,note_off,480,0,2,,,,,,,,,,,,,,,1,,,69,0
410640,note_on,0,0,2,,,,,,,,,,,,,,,1,,,62,39
411000,set_tempo,1320,1,0,,,,,,,491803,,,,,,,,,,,,
411120,note_off,1440,0,4,,,,,,,,,,,,,,,3,,,54,0
411120,note_off,480,0,2,,,,,,,,,,,,,,,1,,,62,0
411120,set_tempo,120,1,0,,,,,,,487804,,,,,,,,,,,,
411120,note_on,0,0,4,,,,,,,,,,,,,,,3,,,43,46
411120,note_off,1440,0,1,,,,,,,,,,,,,,,0,,,72,0
411120,note_on,0,0,1,,,,,,,,,,,,,,,0,,,71,46
411120,note_on,0,0,2,,,,,,,,,,,,,,,1,,,62,38
411600,note_on,5280,0,3,,,,,,,,,,,,,,,2,,,55,32
412080,note_off,960,0,1,,,,,,,,,,,,,,,0,,,71,0
412080,note_off,960,0,2,,,,,,,,,,,,,,,1,,,62,0
412080,note_off,480,0,3,,,,,,,,,,,,,,,2,,,55,0
412080,note_on,0,0,3,,,,,,,,,,,,,,,2,,,55,34
412560,note_on,480,0,2,,,,,,,,,,,,,,,1,,,67,41
412560,note_off,480,0,3,,,,,,,,,,,,,,,2,,,55,0
412560,note_on,0,0,3,,,,,,,,,,,,,,,2,,,55,36
413040,note_on,960,0,1,,,,,,,,,,,,,,,0,,,69,39
413040,note_off,480,0,3,,,,,,,,,,,,,,,2,,,55,0
413040,note_on,0,0,3,,,,,,,,,,,,,,,2,,,55,38
413520,note_off,480,0,1,,,,,,,,,,,,,,,0,,,69,0
413520,note_on,0,0,1,,,,,,,,,,,,,,,0,,,71,43
413520,note_off,480,0,3,,,,,,,,,,,,,,,2,,,55,0
413520,note_on,0,0,3,,,,,,,,,,,,,,,2,,,55,40
413520,note_on,960,0,2,,,,,,,,,,,,,,,1,,,65,40
413535,note_off,15,0,2,,,,,,,,,,,,,,,1,,,67,0
413940,set_tempo,2820,1,0,,,,,,,491803,,,,,,,,,,,,
414000,note_off,480,0,3,,,,,,,,,,,,,,,2,,,55,0
414000,note_on,0,0,1,,,,,,,,,,,,,,,0,,,72,47
414000,note_off,480,0,1,,,,,,,,,,,,,,,0,,,71,0
414000,note_on,0,0,3,,,,,,,,,,,,,,,2,,,55,43
414000,note_on,0,0,2,,,,,,,,,,,,,,,1,,,64,39
414000,note_off,465,0,2,,,,,,,,,,,,,,,1,,,65,0
414000,set_tempo,60,1,0,,,,,,,487804,,,,,,,,,,,,
414480,note_off,480,0,3,,,,,,,,,,,,,,,2,,,55,0
414480,note_on,0,0,3,,,,,,,,,,,,,,,2,,,55,41
414480,note_off,480,0,2,,,,,,,,,,,,,,,1,,,64,0
414480,note_on,0,0,2,,,,,,,,,,,,,,,1,,,62,38
414900,note_off,900,0,1,,,,,,,,,,,,,,,0,,,72,0
414960,note_on,0,0,2,,,,,,,,,,,,,,,1,,,60,37
414960,note_off,480,0,2,,,,,,,,,,,,,,,1,,,62,0
414960,note_on,0,0,3,,,,,,,,,,,,,,,2,,,55,39
414960,note_off,480,0,3,,,,,,,,,,,,,,,2,,,55,0
414960,note_on,60,0,1,,,,,,,,,,,,,,,0,,,66,43
415320,set_tempo,1320,1,0,,,,,,,491803,,,,,,,,,,,,
415410,note_off,4290,0,4,,,,,,,,,,,,,,,3,,,43,0
415440,set_tempo,120,1,0,,,,,,,487804,,,,,,,,,,,,
415440,note_on,0,0,1,,,,,,,,,,,,,,,0,,,69,41
415440,note_on,30,0,4,,,,,,,,,,,,,,,3,,,43,40
415440,note_off,480,0,3,,,,,,,,,,,,,,,2,,,55,0
415440,note_off,480,0,2,,,,,,,,,,,,,,,1,,,60,0
415440,note_on,0,0,2,,,,,,,,,,,,,,,1,,,59,36
415440,note_off,480,0,1,,,,,,,,,,,,,,,0,,,66,0
415920,note_off,480,0,1,,,,,,,,,,,,,,,0,,,69,0
415920,note_on,0,0,1,,,,,,,,,,,,,,,0,,,67,38
415920,note_on,480,0,3,,,,,,,,,,,,,,,2,,,55,37
416400,note_off,480,0,3,,,,,,,,,,,,,,,2,,,55,0
416400,note_off,480,0,1,,,,,,,,,,,,,,,0,,,67,0
416400,note_on,0,0,3,,,,,,,,,,,,,,,2,,,55,39
416415,note_off,975,0,2,,,,,,,,,,,,,,,1,,,59,0
416880,note_off,480,0,3,,,,,,,,,,,,,,,2,,,55,0
416880,note_on,465,0,2,,,,,,,,,,,,,,,1,,,67,38
416880,note_on,0,0,3,,,,,,,,,,,,,,,2,,,55,41
416880,note_on,480,0,1,,,,,,,,,,,,,,,0,,,71,38
417360,note_off,480,0,3,,,,,,,,,,,,,,,2,,,55,0
417360,note_on,0,0,3,,,,,,,,,,,,,,,2,,,55,43
417360,note_off,480,0,1,,,,,,,,,,,,,,,0,,,71,0
417360,note_on,0,0,1,,,,,,,,,,,,,,,0,,,69,40
417825,note_off,945,0,2,,,,,,,,,,,,,,,1,,,67,0
417840,note_on,0,0,1,,,,,,,,,,,,,,,0,,,71,42
417840,note_on,15,0,2,,,,,,,,,,,,,,,1,,,65,42
417840,note_off,480,0,3,,,,,,,,,,,,,,,2,,,55,0
417840,note_on,0,0,3,,,,,,,,,,,,,,,2,,,55,45
417840,note_off,480,0,1,,,,,,,,,,,,,,,0,,,69,0
417920,note_on,0,0,1,,,,,,,,,,,,,,,0,,,72,43
417920,note_off,80,0,1,,,,,,,,,,,,,,,0,,,71,0
418000,note_off,80,0,1,,,,,,,,,,,,,,,0,,,72,0
418000,note_on,0,0,1,,,,,,,,,,,,,,,0,,,71,43
418080,note_on,0,0,1,,,,,,,,,,,,,,,0,,,69,43
418080,note_off,80,0,1,,,,,,,,,,,,,,,0,,,71,0
418200,note_on,0,0,1,,,,,,,,,,,,,,,0,,,71,44
418200,note_off,120,0,1,,,,,,,,,,,,,,,0,,,69,0
418260,set_tempo,2820,1,0,,,,,,,491803,,,,,,,,,,,,
418320,note_on,0,0,3,,,,,,,,,,,,,,,2,,,55,49
418320,note_off,480,0,3,,,,,,,,,,,,,,,2,,,55,0
418320,note_off,480,0,2,,,,,,,,,,,,,,,1,,,65,0
418320,note_on,0,0,2,,,,,,,,,,,,,,,1,,,64,45
418320,note_on,0,0,1,,,,,,,,,,,,,,,0,,,74,47
418320,note_off,120,0,1,,,,,,,,,,,,,,,0,,,71,0
418320,set_tempo,60,1,0,,,,,,,487804,,,,,,,,,,,,
418800,note_on,0,0,1,,,,,,,,,,,,,,,0,,,72,45
418800,note_on,0,0,3,,,,,,,,,,,,,,,2,,,55,47
418800,note_off,480,0,3,,,,,,,,,,,,,,,2,,,55,0
418800,note_off,480,0,2,,,,,,,,,,,,,,,1,,,64,0
418800,note_on,0,0,2,,,,,,,,,,,,,,,1,,,62,43
418800,note_off,480,0,1,,,,,,,,,,,,,,,0,,,74,0
419280,note_off,480,0,1,,,,,,,,,,,,,,,0,,,72,0
419280,note_on,0,0,1,,,,,,,,,,,,,,,0,,,66,43
419280,note_on,0,0,3,,,,,,,,,,,,,,,2,,,55,44
419280,note_off,480,0,3,,,,,,,,,,,,,,,2,,,55,0
419280,note_on,0,0,2,,,,,,,,,,,,,,,1,,,60,40
419280,note_off,480,0,2,,,,,,,,,,,,,,,1,,,62,0
419640,set_tempo,1320,1,0,,,,,,,491803,,,,,,,,,,,,
419745,note_off,4305,0,4,,,,,,,,,,,,,,,3,,,43,0
419760,note_off,480,0,1,,,,,,,,,,,,,,,0,,,66,0
419760,set_tempo,120,1,0,,,,,,,487804,,,,,,,,,,,,
419760,note_off,480,0,3,,,,,,,,,,,,,,,2,,,55,0
419760,note_off,480,0,2,,,,,,,,,,,,,,,1,,,60,0
419760,note_on,15,0,4,,,,,,,,,,,,,,,3,,,43,42
419760,note_on,0,0,1,,,,,,,,,,,,,,,0,,,67,41
419760,note_on,0,0,2,,,,,,,,,,,,,,,1,,,59,38
420240,note_on,480,0,3,,,,,,,,,,,,,,,2,,,55,44
420240,note_off,480,0,2,,,,,,,,,,,,,,,1,,,59,0
420240,note_off,480,0,1,,,,,,,,,,,,,,,0,,,67,0
420480,note_on,240,0,2,,,,,,,,,,,,,,,1,,,65,43
420480,note_on,720,0,4,,,,,,,,,,,,,,,3,,,47,45
420480,note_on,240,0,1,,,,,,,,,,,,,,,0,,,74,43
420720,note_on,0,0,4,,,,,,,,,,,,,,,3,,,48,46
420720,note_off,240,0,1,,,,,,,,,,,,,,,0,,,74,0
420720,note_on,0,0,1,,,,,,,,,,,,,,,0,,,72,44
420720,note_off,240,0,4,,,,,,,,,,,,,,,3,,,47,0
420720,note_on,0,0,2,,,,,,,,,,,,,,,1,,,64,44
420720,note_off,240,0,2,,,,,,,,,,,,,,,1,,,65,0
420960,note_on,0,0,4,,,,,,,,,,,,,,,3,,,51,47
420960,note_off,240,0,2,,,,,,,,,,,,,,,1,,,64,0
420960,note_on,0,0,2,,,,,,,,,,,,,,,1,,,60,46
420960,note_off,240,0,1,,,,,,,,,,,,,,,0,,,72,0
420960,note_on,0,0,1,,,,,,,,,,,,,,,0,,,66,46
420960,note_off,240,0,4,,,,,,,,,,,,,,,3,,,48,0
421200,note_on,0,0,2,,,,,,,,,,,,,,,1,,,59,47
421200,note_off,0,0,4,,,,,,,,,,,,,,,3,,,51,0
421200,note_on,0,0,4,,,,,,,,,,,,,,,3,,,50,48
421200,note_off,240,0,2,,,,,,,,,,,,,,,1,,,60,0
421200,note_on,0,0,4,,,,,,,,,,,,,,,3,,,43,48
421200,note_off,240,0,4,,,,,,,,,,,,,,,3,,,43,0
421200,note_off,240,0,1,,,,,,,,,,,,,,,0,,,66,0
421200,note_on,0,0,1,,,,,,,,,,,,,,,0,,,67,47
421665,note_off,1425,0,3,,,,,,,,,,,,,,,2,,,55,0
421680,note_off,480,0,1,,,,,,,,,,,,,,,0,,,67,0
421680,note_off,480,0,4,,,,,,,,,,,,,,,3,,,50,0
421680,note_off,480,0,2,,,,,,,,,,,,,,,1,,,59,0
421680,note_on,15,0,3,,,,,,,,,,,,,,,2,,,55,51
421800,set_tempo,2040,1,0,,,,,,,491803,,,,,,,,,,,,
421920,set_tempo,120,1,0,,,,,,,487804,,,,,,,,,,,,
421920,note_on,240,0,1,,,,,,,,,,,,,,,0,,,74,52
421920,note_on,240,0,2,,,,,,,,,,,,,,,1,,,65,52
421920,note_on,240,0,4,,,,,,,,,,,,,,,3,,,47,52
422160,note_off,240,0,2,,,,,,,,,,,,,,,1,,,65,0
422160,note_off,240,0,4,,,,,,,,,,,,,,,3,,,47,0
422160,note_on,0,0,4,,,,,,,,,,,,,,,3,,,48,53
422160,note_on,0,0,1,,,,,,,,,,,,,,,0,,,72,53
422160,note_on,0,0,2,,,,,,,,,,,,,,,1,,,64,53
422160,note_off,240,0,1,,,,,,,,,,,,,,,0,,,74,0
422400,note_on,0,0,4,,,,,,,,,,,,,,,3,,,45,54
422400,note_off,240,0,4,,,,,,,,,,,,,,,3,,,48,0
422400,note_on,0,0,1,,,,,,,,,,,,,,,0,,,66,55
422400,note_off,240,0,1,,,,,,,,,,,,,,,0,,,72,0
422400,note_on,0,0,2,,,,,,,,,,,,,,,1,,,60,55
422400,note_off,240,0,2,,,,,,,,,,,,,,,1,,,64,0
422520,set_tempo,600,1,0,,,,,,,491803,,,,,,,,,,,,
422640,note_on,0,0,1,,,,,,,,,,,,,,,0,,,67,56
422640,note_off,240,0,1,,,,,,,,,,,,,,,0,,,66,0
422640,note_off,240,0,4,,,,,,,,,,,,,,,3,,,43,0
422640,note_off,0,0,4,,,,,,,,,,,,,,,3,,,45,0
422640,note_on,0,0,4,,,,,,,,,,,,,,,3,,,43,55
422640,note_on,0,0,2,,,,,,,,,,,,,,,1,,,59,56
422640,note_off,240,0,2,,,,,,,,,,,,,,,1,,,60,0
423110,note_off,1430,0,3,,,,,,,,,,,,,,,2,,,55,0
423120,note_on,10,0,3,,,,,,,,,,,,,,,2,,,55,58
423120,note_off,480,0,1,,,,,,,,,,,,,,,0,,,67,0
423120,note_off,480,0,2,,,,,,,,,,,,,,,1,,,59,0
423240,set_tempo,720,1,0,,,,,,,500000,,,,,,,,,,,,
423360,note_on,720,0,4,,,,,,,,,,,,,,,3,,,47,59
423360,note_on,240,0,1,,,,,,,,,,,,,,,0,,,74,60
423360,note_on,240,0,2,,,,,,,,,,,,,,,1,,,65,60
423390,set_tempo,150,1,0,,,,,,,517241,,,,,,,,,,,,
423600,note_on,0,0,2,,,,,,,,,,,,,,,1,,,64,62
423600,note_off,240,0,1,,,,,,,,,,,,,,,0,,,74,0
423600,note_on,0,0,1,,,,,,,,,,,,,,,0,,,72,62
423600,note_on,0,0,4,,,,,,,,,,,,,,,3,,,48,60
423600,note_off,240,0,4,,,,,,,,,,,,,,,3,,,47,0
423600,note_off,240,0,2,,,,,,,,,,,,,,,1,,,65,0
423675,set_tempo,285,1,0,,,,,,,526315,,,,,,,,,,,,
423840,note_on,0,0,1,,,,,,,,,,,,,,,0,,,66,63
423840,note_on,0,0,2,,,,,,,,,,,,,,,1,,,60,63
423840,note_off,240,0,2,,,,,,,,,,,,,,,1,,,64,0
423840,note_off,240,0,1,,,,,,,,,,,,,,,0,,,72,0
423840,note_on,0,0,4,,,,,,,,,,,,,,,3,,,51,61
423840,note_off,240,0,4,,,,,,,,,,,,,,,3,,,48,0
423855,set_tempo,180,1,0,,,,,,,600000,,,,,,,,,,,,
424080,note_off,240,0,1,,,,,,,,,,,,,,,0,,,66,0
424080,control_change,960,0,3,,,,,,,,,,,,,64,127,2,,,,
424080,note_on,0,0,1,,,,,,,,,,,,,,,0,,,67,67
424080,note_on,0,0,4,,,,,,,,,,,,,,,3,,,50,56
424080,note_on,0,0,2,,,,,,,,,,,,,,,1,,,59,67
424080,note_off,0,0,2,,,,,,,,,,,,,,,1,,,60,0
424080,control_change,240,0,2,,,,,,,,,,,,,64,127,1,,,,
424080,note_on,0,0,3,,,,,,,,,,,,,,,2,,,55,62
424080,control_change,240,0,4,,,,,,,,,,,,,64,127,3,,,,
424080,set_tempo,225,1,0,,,,,,,504201,,,,,,,,,,,,
424080,note_off,0,0,4,,,,,,,,,,,,,,,3,,,43,0
424080,note_on,0,0,4,,,,,,,,,,,,,,,3,,,43,62
424080,note_off,0,0,4,,,,,,,,,,,,,,,3,,,51,0
424080,note_off,0,0,3,,,,,,,,,,,,,,,2,,,55,0
424160,note_off,80,0,1,,,,,,,,,,,,,,,0,,,67,0
424160,note_on,0,0,1,,,,,,,,,,,,,,,0,,,69,59
424160,set_tempo,80,1,0,,,,,,,487804,,,,,,,,,,,,
424240,note_on,0,0,1,,,,,,,,,,,,,,,0,,,67,56
424240,note_off,80,0,1,,,,,,,,,,,,,,,0,,,69,0
424320,note_off,80,0,1,,,,,,,,,,,,,,,0,,,67,0
424320,note_on,0,0,1,,,,,,,,,,,,,,,0,,,69,55
424400,note_off,80,0,1,,,,,,,,,,,,,,,0,,,69,0
424400,note_on,0,0,1,,,,,,,,,,,,,,,0,,,67,54
424480,note_off,80,0,1,,,,,,,,,,,,,,,0,,,67,0
424480,note_on,0,0,1,,,,,,,,,,,,,,,0,,,69,53
424560,note_off,80,0,1,,,,,,,,,,,,,,,0,,,69,0
424560,note_on,0,0,1,,,,,,,,,,,,,,,0,,,67,52
424640,note_on,0,0,1,,,,,,,,,,,,,,,0,,,69,51
424640,note_off,80,0,1,,,,,,,,,,,,,,,0,,,67,0
424720,note_on,0,0,1,,,,,,,,,,,,,,,0,,,67,51
424720,note_off,80,0,1,,,,,,,,,,,,,,,0,,,69,0
424800,note_on,0,0,1,,,,,,,,,,,,,,,0,,,69,51
424800,note_off,80,0,1,,,,,,,,,,,,,,,0,,,67,0
424880,note_on,0,0,1,,,,,,,,,,,,,,,0,,,67,50
424880,note_off,80,0,1,,,,,,,,,,,,,,,0,,,69,0
424960,note_on,0,0,1,,,,,,,,,,,,,,,0,,,69,50
424960,note_off,80,0,1,,,,,,,,,,,,,,,0,,,67,0
425040,note_on,0,0,1,,,,,,,,,,,,,,,0,,,67,50
425040,note_off,80,0,1,,,,,,,,,,,,,,,0,,,69,0
425120,note_on,0,0,1,,,,,,,,,,,,,,,0,,,69,49
425120,note_off,80,0,1,,,,,,,,,,,,,,,0,,,67,0
425200,note_on,0,0,1,,,,,,,,,,,,,,,0,,,67,49
425200,note_off,80,0,1,,,,,,,,,,,,,,,0,,,69,0
425280,note_on,0,0,1,,,,,,,,,,,,,,,0,,,69,48
425280,note_off,80,0,1,,,,,,,,,,,,,,,0,,,67,0
425360,note_off,80,0,1,,,,,,,,,,,,,,,0,,,69,0
425360,note_on,0,0,1,,,,,,,,,,,,,,,0,,,67,48
425440,note_on,0,0,1,,,,,,,,,,,,,,,0,,,69,48
425440,note_off,80,0,1,,,,,,,,,,,,,,,0,,,67,0
425520,note_on,0,0,1,,,,,,,,,,,,,,,0,,,67,47
425520,note_off,80,0,1,,,,,,,,,,,,,,,0,,,69,0
425600,note_on,0,0,1,,,,,,,,,,,,,,,0,,,69,47
425600,note_off,80,0,1,,,,,,,,,,,,,,,0,,,67,0
425680,note_off,80,0,1,,,,,,,,,,,,,,,0,,,69,0
425680,note_on,0,0,1,,,,,,,,,,,,,,,0,,,67,46
425760,note_off,80,0,1,,,,,,,,,,,,,,,0,,,67,0
425760,note_on,0,0,1,,,,,,,,,,,,,,,0,,,69,46
425840,note_on,0,0,1,,,,,,,,,,,,,,,0,,,67,46
425840,note_off,80,0,1,,,,,,,,,,,,,,,0,,,69,0
425920,note_on,0,0,1,,,,,,,,,,,,,,,0,,,69,45
425920,note_off,80,0,1,,,,,,,,,,,,,,,0,,,67,0
426000,note_off,80,0,1,,,,,,,,,,,,,,,0,,,69,0
426000,note_on,0,0,1,,,,,,,,,,,,,,,0,,,67,45
426000,note_off,1920,0,4,,,,,,,,,,,,,,,3,,,50,0
426000,note_off,0,0,4,,,,,,,,,,,,,,,3,,,43,0
426000,note_off,1920,0,3,,,,,,,,,,,,,,,2,,,55,0
426080,note_off,80,0,1,,,,,,,,,,,,,,,0,,,67,0
426080,note_on,0,0,1,,,,,,,,,,,,,,,0,,,69,44
426120,set_tempo,1960,1,0,,,,,,,495867,,,,,,,,,,,,
426160,note_on,0,0,1,,,,,,,,,,,,,,,0,,,67,44
426160,note_off,80,0,1,,,,,,,,,,,,,,,0,,,69,0
426180,set_tempo,60,1,0,,,,,,,1578947,,,,,,,,,,,,
426230,note_off,70,0,1,,,,,,,,,,,,,,,0,,,67,0
426240,note_on,10,0,1,,,,,,,,,,,,,,,0,,,67,44
426240,set_tempo,60,1,0,,,,,,,652173,,,,,,,,,,,,
426360,note_on,120,0,1,,,,,,,,,,,,,,,0,,,66,46
426360,set_tempo,120,1,0,,,,,,,361445,,,,,,,,,,,,
426380,note_off,20,0,1,,,,,,,,,,,,,,,0,,,67,0
426480,set_tempo,120,1,0,,,,,,,355029,,,,,,,,,,,,
426480,note_off,100,0,1,,,,,,,,,,,,,,,0,,,66,0
426480,note_on,0,0,1,,,,,,,,,,,,,,,0,,,67,47
426600,note_on,0,0,1,,,,,,,,,,,,,,,0,,,62,47
426600,note_off,120,0,1,,,,,,,,,,,,,,,0,,,67,0
426670,note_off,2590,0,2,,,,,,,,,,,,,,,1,,,59,0
426720,note_on,0,0,1,,,,,,,,,,,,,,,0,,,64,48
426720,note_off,120,0,1,,,,,,,,,,,,,,,0,,,62,0
426840,note_off,120,0,1,,,,,,,,,,,,,,,0,,,64,0
426840,note_on,0,0,1,,,,,,,,,,,,,,,0,,,66,48
426960,note_off,120,0,1,,,,,,,,,,,,,,,0,,,66,0
426960,note_on,0,0,1,,,,,,,,,,,,,,,0,,,67,49
427080,note_off,120,0,1,,,,,,,,,,,,,,,0,,,67,0
427080,note_on,0,0,1,,,,,,,,,,,,,,,0,,,69,49
427200,note_off,120,0,1,,,,,,,,,,,,,,,0,,,69,0
427200,note_on,0,0,1,,,,,,,,,,,,,,,0,,,71,50
427320,note_off,120,0,1,,,,,,,,,,,,,,,0,,,71,0
427320,note_on,0,0,1,,,,,,,,,,,,,,,0,,,69,50
427440,note_on,0,0,1,,,,,,,,,,,,,,,0,,,67,51
427440,note_off,120,0,1,,,,,,,,,,,,,,,0,,,69,0
427560,note_on,0,0,1,,,,,,,,,,,,,,,0,,,69,51
427560,note_off,120,0,1,,,,,,,,,,,,,,,0,,,67,0
427680,note_on,0,0,1,,,,,,,,,,,,,,,0,,,71,51
427680,note_off,120,0,1,,,,,,,,,,,,,,,0,,,69,0
427800,note_on,0,0,1,,,,,,,,,,,,,,,0,,,72,52
427800,note_off,120,0,1,,,,,,,,,,,,,,,0,,,71,0
427920,note_on,0,0,1,,,,,,,,,,,,,,,0,,,74,52
427920,note_off,120,0,1,,,,,,,,,,,,,,,0,,,72,0
428040,note_off,120,0,1,,,,,,,,,,,,,,,0,,,74,0
428040,note_on,0,0,1,,,,,,,,,,,,,,,0,,,72,53
428160,note_on,0,0,1,,,,,,,,,,,,,,,0,,,71,53
428160,note_off,120,0,1,,,,,,,,,,,,,,,0,,,72,0
428280,note_on,0,0,1,,,,,,,,,,,,,,,0,,,72,54
428280,note_off,120,0,1,,,,,,,,,,,,,,,0,,,71,0
428400,note_on,0,0,1,,,,,,,,,,,,,,,0,,,74,54
428400,note_off,120,0,1,,,,,,,,,,,,,,,0,,,72,0
428520,note_on,0,0,1,,,,,,,,,,,,,,,0,,,76,55
428520,note_off,120,0,1,,,,,,,,,,,,,,,0,,,74,0
428640,note_on,0,0,1,,,,,,,,,,,,,,,0,,,78,55
428640,note_off,120,0,1,,,,,,,,,,,,,,,0,,,76,0
428760,note_off,120,0,1,,,,,,,,,,,,,,,0,,,78,0
428760,note_on,0,0,1,,,,,,,,,,,,,,,0,,,79,56
428880,note_on,0,0,1,,,,,,,,,,,,,,,0,,,78,56
428880,note_off,120,0,1,,,,,,,,,,,,,,,0,,,79,0
429000,note_off,120,0,1,,,,,,,,,,,,,,,0,,,78,0
429000,note_on,0,0,1,,,,,,,,,,,,,,,0,,,76,57
429120,note_on,0,0,1,,,,,,,,,,,,,,,0,,,74,57
429120,note_off,120,0,1,,,,,,,,,,,,,,,0,,,76,0
429240,note_off,120,0,1,,,,,,,,,,,,,,,0,,,74,0
429240,note_on,0,0,1,,,,,,,,,,,,,,,0,,,76,58
429360,note_off,120,0,1,,,,,,,,,,,,,,,0,,,76,0
429360,note_on,0,0,1,,,,,,,,,,,,,,,0,,,78,58
429480,note_off,120,0,1,,,,,,,,,,,,,,,0,,,78,0
429480,note_on,0,0,1,,,,,,,,,,,,,,,0,,,79,59
429600,note_off,120,0,1,,,,,,,,,,,,,,,0,,,79,0
429600,note_on,0,0,1,,,,,,,,,,,,,,,0,,,81,59
429720,note_off,120,0,1,,,,,,,,,,,,,,,0,,,81,0
429720,note_on,0,0,1,,,,,,,,,,,,,,,0,,,83,59
429840,note_on,0,0,1,,,,,,,,,,,,,,,0,,,81,60
429840,note_off,120,0,1,,,,,,,,,,,,,,,0,,,83,0
429960,note_off,120,0,1,,,,,,,,,,,,,,,0,,,81,0
429960,note_on,0,0,1,,,,,,,,,,,,,,,0,,,79,60
430080,note_off,120,0,1,,,,,,,,,,,,,,,0,,,79,0
430080,note_on,0,0,1,,,,,,,,,,,,,,,0,,,81,61
430200,note_off,120,0,1,,,,,,,,,,,,,,,0,,,81,0
430200,note_on,0,0,1,,,,,,,,,,,,,,,0,,,83,61
430320,note_off,120,0,1,,,,,,,,,,,,,,,0,,,83,0
430320,note_on,0,0,1,,,,,,,,,,,,,,,0,,,84,62
430440,note_off,120,0,1,,,,,,,,,,,,,,,0,,,84,0
430440,note_on,0,0,1,,,,,,,,,,,,,,,0,,,86,62
430560,set_tempo,4080,1,0,,,,,,,357142,,,,,,,,,,,,
430560,note_off,120,0,1,,,,,,,,,,,,,,,0,,,86,0
430560,note_on,0,0,1,,,,,,,,,,,,,,,0,,,88,65
430680,note_off,120,0,1,,,,,,,,,,,,,,,0,,,88,0
430680,note_on,0,0,1,,,,,,,,,,,,,,,0,,,89,64
430680,set_tempo,120,1,0,,,,,,,355029,,,,,,,,,,,,
430800,note_on,0,0,1,,,,,,,,,,,,,,,0,,,88,64
430800,note_off,120,0,1,,,,,,,,,,,,,,,0,,,89,0
430920,note_on,0,0,1,,,,,,,,,,,,,,,0,,,86,63
430920,note_off,120,0,1,,,,,,,,,,,,,,,0,,,88,0
431040,note_on,0,0,1,,,,,,,,,,,,,,,0,,,85,62
431040,note_off,120,0,1,,,,,,,,,,,,,,,0,,,86,0
431160,note_on,0,0,1,,,,,,,,,,,,,,,0,,,88,61
431160,note_off,120,0,1,,,,,,,,,,,,,,,0,,,85,0
431280,note_on,0,0,1,,,,,,,,,,,,,,,0,,,86,60
431280,note_off,120,0,1,,,,,,,,,,,,,,,0,,,88,0
431400,note_on,0,0,1,,,,,,,,,,,,,,,0,,,84,59
431400,note_off,120,0,1,,,,,,,,,,,,,,,0,,,86,0
431520,note_off,120,0,1,,,,,,,,,,,,,,,0,,,84,0
431520,note_on,0,0,1,,,,,,,,,,,,,,,0,,,83,58
431640,note_off,120,0,1,,,,,,,,,,,,,,,0,,,83,0
431640,note_on,0,0,1,,,,,,,,,,,,,,,0,,,84,57
431760,note_off,120,0,1,,,,,,,,,,,,,,,0,,,84,0
431760,note_on,0,0,1,,,,,,,,,,,,,,,0,,,83,56
431880,note_on,0,0,1,,,,,,,,,,,,,,,0,,,81,56
431880,note_off,120,0,1,,,,,,,,,,,,,,,0,,,83,0
432000,note_off,120,0,1,,,,,,,,,,,,,,,0,,,81,0
432000,note_on,0,0,1,,,,,,,,,,,,,,,0,,,84,55
432120,note_off,120,0,1,,,,,,,,,,,,,,,0,,,84,0
432120,note_on,0,0,1,,,,,,,,,,,,,,,0,,,83,54
432240,note_on,0,0,1,,,,,,,,,,,,,,,0,,,86,53
432240,note_off,120,0,1,,,,,,,,,,,,,,,0,,,83,0
432360,note_on,0,0,1,,,,,,,,,,,,,,,0,,,84,52
432360,note_off,120,0,1,,,,,,,,,,,,,,,0,,,86,0
432480,note_on,0,0,1,,,,,,,,,,,,,,,0,,,83,51
432480,note_off,120,0,1,,,,,,,,,,,,,,,0,,,84,0
432600,note_on,0,0,1,,,,,,,,,,,,,,,0,,,81,50
432600,set_tempo,1920,1,0,,,,,,,357142,,,,,,,,,,,,
432600,note_off,120,0,1,,,,,,,,,,,,,,,0,,,83,0
432720,note_on,0,0,1,,,,,,,,,,,,,,,0,,,79,49
432720,note_off,120,0,1,,,,,,,,,,,,,,,0,,,81,0
432720,set_tempo,120,1,0,,,,,,,491803,,,,,,,,,,,,
432840,set_tempo,120,1,0,,,,,,,504201,,,,,,,,,,,,
432840,note_on,0,0,1,,,,,,,,,,,,,,,0,,,80,49
432840,note_off,120,0,1,,,,,,,,,,,,,,,0,,,79,0
432960,note_on,0,0,1,,,,,,,,,,,,,,,0,,,83,48
432960,set_tempo,120,1,0,,,,,,,588235,,,,,,,,,,,,
432960,note_off,120,0,1,,,,,,,,,,,,,,,0,,,80,0
433200,set_tempo,240,1,0,,,,,,,571428,,,,,,,,,,,,
433200,note_off,240,0,1,,,,,,,,,,,,,,,0,,,83,0
433200,note_on,0,0,1,,,,,,,,,,,,,,,0,,,81,46
433440,note_off,240,0,1,,,,,,,,,,,,,,,0,,,81,0
433440,note_on,0,0,1,,,,,,,,,,,,,,,0,,,79,44
433470,set_tempo,270,1,0,,,,,,,540540,,,,,,,,,,,,
433680,note_on,0,0,1,,,,,,,,,,,,,,,0,,,77,42
433680,note_off,240,0,1,,,,,,,,,,,,,,,0,,,79,0
433680,set_tempo,210,1,0,,,,,,,731707,,,,,,,,,,,,
433920,set_tempo,240,1,0,,,,,,,869565,,,,,,,,,,,,
433920,note_on,0,0,1,,,,,,,,,,,,,,,0,,,76,41
433920,note_off,240,0,1,,,,,,,,,,,,,,,0,,,77,0
434160,note_off,240,0,1,,,,,,,,,,,,,,,0,,,76,0
434160,note_on,0,0,1,,,,,,,,,,,,,,,0,,,74,39
434410,set_tempo,490,1,0,,,,,,,2307692,,,,,,,,,,,,
434865,note_off,705,0,1,,,,,,,,,,,,,,,0,,,74,0
434880,control_change,8880,0,3,,,,,,,,,,,,,64,0,2,,,,
434880,control_change,8880,0,4,,,,,,,,,,,,,64,0,3,,,,
434880,note_on,0,0,3,,,,,,,,,,,,,,,2,,,52,32
434880,note_on,0,0,4,,,,,,,,,,,,,,,3,,,48,47
434880,set_tempo,470,1,0,,,,,,,491803,,,,,,,,,,,,
434880,control_change,0,0,3,,,,,,,,,,,,,64,0,2,,,,
434880,control_change,8210,0,2,,,,,,,,,,,,,64,0,1,,,,
434880,note_on,15,0,1,,,,,,,,,,,,,,,0,,,72,34
434880,control_change,0,0,1,,,,,,,,,,,,,64,0,0,,,,
434960,note_on,80,0,1,,,,,,,,,,,,,,,0,,,74,35
435000,set_tempo,120,1,0,,,,,,,472440,,,,,,,,,,,,
435030,note_off,70,0,1,,,,,,,,,,,,,,,0,,,72,0
435040,note_on,10,0,1,,,,,,,,,,,,,,,0,,,72,35
435060,note_off,180,0,3,,,,,,,,,,,,,,,2,,,52,0
435110,note_off,70,0,1,,,,,,,,,,,,,,,0,,,74,0
435120,note_on,10,0,1,,,,,,,,,,,,,,,0,,,74,36
435190,note_off,70,0,1,,,,,,,,,,,,,,,0,,,72,0
435200,note_on,10,0,1,,,,,,,,,,,,,,,0,,,72,36
435270,note_off,70,0,1,,,,,,,,,,,,,,,0,,,74,0
435280,note_on,10,0,1,,,,,,,,,,,,,,,0,,,74,36
435350,note_off,70,0,1,,,,,,,,,,,,,,,0,,,72,0
435360,note_on,10,0,1,,,,,,,,,,,,,,,0,,,72,37
435360,note_on,300,0,3,,,,,,,,,,,,,,,2,,,55,33
435430,note_off,70,0,1,,,,,,,,,,,,,,,0,,,74,0
435440,note_on,10,0,1,,,,,,,,,,,,,,,0,,,74,37
435510,note_off,70,0,1,,,,,,,,,,,,,,,0,,,72,0
435520,note_on,10,0,1,,,,,,,,,,,,,,,0,,,72,38
435550,note_off,190,0,3,,,,,,,,,,,,,,,2,,,55,0
435590,note_off,70,0,1,,,,,,,,,,,,,,,0,,,74,0
435600,note_on,10,0,1,,,,,,,,,,,,,,,0,,,74,38
435670,note_off,70,0,1,,,,,,,,,,,,,,,0,,,72,0
435680,note_on,10,0,1,,,,,,,,,,,,,,,0,,,72,39
435750,note_off,70,0,1,,,,,,,,,,,,,,,0,,,74,0
435760,note_on,10,0,1,,,,,,,,,,,,,,,0,,,74,39
435830,note_off,70,0,1,,,,,,,,,,,,,,,0,,,72,0
435840,note_on,10,0,1,,,,,,,,,,,,,,,0,,,72,40
435840,note_on,290,0,3,,,,,,,,,,,,,,,2,,,60,34
435910,note_off,70,0,1,,,,,,,,,,,,,,,0,,,74,0
435920,note_on,10,0,1,,,,,,,,,,,,,,,0,,,74,40
435990,note_off,70,0,1,,,,,,,,,,,,,,,0,,,72,0
436000,note_on,10,0,1,,,,,,,,,,,,,,,0,,,72,41
436030,note_off,190,0,3,,,,,,,,,,,,,,,2,,,60,0
436070,note_off,70,0,1,,,,,,,,,,,,,,,0,,,74,0
436080,note_on,10,0,1,,,,,,,,,,,,,,,0,,,74,41
436150,note_off,70,0,1,,,,,,,,,,,,,,,0,,,72,0
436160,note_on,10,0,1,,,,,,,,,,,,,,,0,,,72,41
436230,note_off,70,0,1,,,,,,,,,,,,,,,0,,,74,0
436240,note_on,10,0,1,,,,,,,,,,,,,,,0,,,74,42
436310,note_off,70,0,1,,,,,,,,,,,,,,,0,,,72,0
436320,note_on,10,0,1,,,,,,,,,,,,,,,0,,,72,42
436320,note_on,290,0,3,,,,,,,,,,,,,,,2,,,52,35
436390,note_off,70,0,1,,,,,,,,,,,,,,,0,,,74,0
436400,note_on,10,0,1,,,,,,,,,,,,,,,0,,,74,43
436470,note_off,70,0,1,,,,,,,,,,,,,,,0,,,72,0
436480,note_on,10,0,1,,,,,,,,,,,,,,,0,,,72,43
436510,note_off,190,0,3,,,,,,,,,,,,,,,2,,,52,0
436550,note_off,70,0,1,,,,,,,,,,,,,,,0,,,74,0
436560,note_on,10,0,1,,,,,,,,,,,,,,,0,,,74,44
436630,note_off,70,0,1,,,,,,,,,,,,,,,0,,,72,0
436640,note_on,10,0,1,,,,,,,,,,,,,,,0,,,72,44
436710,note_off,70,0,1,,,,,,,,,,,,,,,0,,,74,0
436720,note_on,10,0,1,,,,,,,,,,,,,,,0,,,74,45
436790,note_off,70,0,1,,,,,,,,,,,,,,,0,,,72,0
436800,note_on,10,0,1,,,,,,,,,,,,,,,0,,,72,45
436800,note_on,290,0,3,,,,,,,,,,,,,,,2,,,55,37
436870,note_off,70,0,1,,,,,,,,,,,,,,,0,,,74,0
436880,note_on,10,0,1,,,,,,,,,,,,,,,0,,,74,46
436950,note_off,70,0,1,,,,,,,,,,,,,,,0,,,72,0
436960,note_on,10,0,1,,,,,,,,,,,,,,,0,,,72,46
436985,note_off,185,0,3,,,,,,,,,,,,,,,2,,,55,0
437030,note_off,70,0,1,,,,,,,,,,,,,,,0,,,74,0
437040,note_on,10,0,1,,,,,,,,,,,,,,,0,,,74,47
437110,note_off,70,0,1,,,,,,,,,,,,,,,0,,,72,0
437120,note_on,10,0,1,,,,,,,,,,,,,,,0,,,72,47
437190,note_off,70,0,1,,,,,,,,,,,,,,,0,,,74,0
437200,note_on,10,0,1,,,,,,,,,,,,,,,0,,,74,47
437270,note_off,70,0,1,,,,,,,,,,,,,,,0,,,72,0
437280,note_on,10,0,1,,,,,,,,,,,,,,,0,,,72,48
437280,note_on,295,0,3,,,,,,,,,,,,,,,2,,,60,38
437350,note_off,70,0,1,,,,,,,,,,,,,,,0,,,74,0
437360,note_on,10,0,1,,,,,,,,,,,,,,,0,,,74,48
437400,note_off,40,0,1,,,,,,,,,,,,,,,0,,,72,0
437440,note_on,40,0,1,,,,,,,,,,,,,,,0,,,72,49
437470,note_off,190,0,3,,,,,,,,,,,,,,,2,,,60,0
437510,note_off,70,0,1,,,,,,,,,,,,,,,0,,,74,0
437520,note_on,10,0,1,,,,,,,,,,,,,,,0,,,71,49
437580,set_tempo,2580,1,0,,,,,,,476190,,,,,,,,,,,,
437625,note_off,105,0,1,,,,,,,,,,,,,,,0,,,72,0
437640,set_tempo,60,1,0,,,,,,,483870,,,,,,,,,,,,
437640,note_on,15,0,1,,,,,,,,,,,,,,,0,,,72,52
437715,note_off,75,0,1,,,,,,,,,,,,,,,0,,,71,0
437760,set_tempo,120,1,0,,,,,,,472440,,,,,,,,,,,,
437760,note_on,45,0,1,,,,,,,,,,,,,,,0,,,76,55
437760,note_on,290,0,3,,,,,,,,,,,,,,,2,,,52,39
437810,note_off,50,0,1,,,,,,,,,,,,,,,0,,,72,0
437950,note_off,190,0,3,,,,,,,,,,,,,,,2,,,52,0
438240,note_on,290,0,3,,,,,,,,,,,,,,,2,,,55,40
438430,note_off,190,0,3,,,,,,,,,,,,,,,2,,,55,0
438720,note_on,290,0,3,,,,,,,,,,,,,,,2,,,60,41
438910,note_off,190,0,3,,,,,,,,,,,,,,,2,,,60,0
439080,note_on,1270,0,1,,,,,,,,,,,,,,,0,,,72,50
439080,set_tempo,1320,1,0,,,,,,,491803,,,,,,,,,,,,
439085,note_off,5,0,1,,,,,,,,,,,,,,,0,,,76,0
439200,note_on,290,0,3,,,,,,,,,,,,,,,2,,,52,40
439200,note_on,0,0,4,,,,,,,,,,,,,,,3,,,48,49
439200,note_off,4320,0,4,,,,,,,,,,,,,,,3,,,48,0
439200,note_on,0,0,1,,,,,,,,,,,,,,,0,,,67,49
439200,note_off,115,0,1,,,,,,,,,,,,,,,0,,,72,0
439200,set_tempo,120,1,0,,,,,,,472440,,,,,,,,,,,,
439390,note_off,190,0,3,,,,,,,,,,,,,,,2,,,52,0
439680,note_on,290,0,3,,,,,,,,,,,,,,,2,,,55,40
439870,note_off,190,0,3,,,,,,,,,,,,,,,2,,,55,0
440160,note_on,290,0,3,,,,,,,,,,,,,,,2,,,60,39
440350,note_off,190,0,3,,,,,,,,,,,,,,,2,,,60,0
440640,note_on,290,0,3,,,,,,,,,,,,,,,2,,,52,39
440830,note_off,190,0,3,,,,,,,,,,,,,,,2,,,52,0
441120,note_on,290,0,3,,,,,,,,,,,,,,,2,,,55,38
441315,note_off,195,0,3,,,,,,,,,,,,,,,2,,,55,0
441600,note_on,285,0,3,,,,,,,,,,,,,,,2,,,60,38
441600,note_on,2400,0,1,,,,,,,,,,,,,,,0,,,66,38
441605,note_off,5,0,1,,,,,,,,,,,,,,,0,,,67,0
441755,note_off,150,0,1,,,,,,,,,,,,,,,0,,,66,0
441790,note_off,190,0,3,,,,,,,,,,,,,,,2,,,60,0
441840,note_on,85,0,1,,,,,,,,,,,,,,,0,,,67,39
441995,note_off,155,0,1,,,,,,,,,,,,,,,0,,,67,0
442080,note_on,290,0,3,,,,,,,,,,,,,,,2,,,52,36
442080,note_on,85,0,1,,,,,,,,,,,,,,,0,,,68,40
442235,note_off,155,0,1,,,,,,,,,,,,,,,0,,,68,0
442270,note_off,190,0,3,,,,,,,,,,,,,,,2,,,52,0
442320,note_on,85,0,1,,,,,,,,,,,,,,,0,,,69,41
442475,note_off,155,0,1,,,,,,,,,,,,,,,0,,,69,0
442560,note_on,290,0,3,,,,,,,,,,,,,,,2,,,55,37
442560,note_on,85,0,1,,,,,,,,,,,,,,,0,,,70,42
442715,note_off,155,0,1,,,,,,,,,,,,,,,0,,,70,0
442750,note_off,190,0,3,,,,,,,,,,,,,,,2,,,55,0
442800,note_on,85,0,1,,,,,,,,,,,,,,,0,,,71,43
442955,note_off,155,0,1,,,,,,,,,,,,,,,0,,,71,0
443040,note_on,85,0,1,,,,,,,,,,,,,,,0,,,72,44
443040,note_on,290,0,3,,,,,,,,,,,,,,,2,,,60,38
443160,set_tempo,3960,1,0,,,,,,,480000,,,,,,,,,,,,
443195,note_off,155,0,1,,,,,,,,,,,,,,,0,,,72,0
443230,note_off,190,0,3,,,,,,,,,,,,,,,2,,,60,0
443280,note_on,85,0,1,,,,,,,,,,,,,,,0,,,73,45
443295,set_tempo,135,1,0,,,,,,,491803,,,,,,,,,,,,
443435,note_off,155,0,1,,,,,,,,,,,,,,,0,,,73,0
443520,note_on,290,0,3,,,,,,,,,,,,,,,2,,,53,39
443520,note_on,4320,0,4,,,,,,,,,,,,,,,3,,,47,48
443520,set_tempo,225,1,0,,,,,,,491803,,,,,,,,,,,,
443520,note_on,85,0,1,,,,,,,,,,,,,,,0,,,74,42
443535,note_off,15,0,4,,,,,,,,,,,,,,,3,,,48,0
443600,note_on,80,0,1,,,,,,,,,,,,,,,0,,,76,42
443630,set_tempo,110,1,0,,,,,,,472440,,,,,,,,,,,,
443670,note_off,70,0,1,,,,,,,,,,,,,,,0,,,74,0
443680,note_on,10,0,1,,,,,,,,,,,,,,,0,,,74,43
443710,note_off,190,0,3,,,,,,,,,,,,,,,2,,,53,0
443750,note_off,70,0,1,,,,,,,,,,,,,,,0,,,76,0
443760,note_on,10,0,1,,,,,,,,,,,,,,,0,,,76,43
443830,note_off,70,0,1,,,,,,,,,,,,,,,0,,,74,0
443840,note_on,10,0,1,,,,,,,,,,,,,,,0,,,74,44
443910,note_off,70,0,1,,,,,,,,,,,,,,,0,,,76,0
443920,note_on,10,0,1,,,,,,,,,,,,,,,0,,,76,44
443990,note_off,70,0,1,,,,,,,,,,,,,,,0,,,74,0
444000,note_on,10,0,1,,,,,,,,,,,,,,,0,,,74,45
444000,note_on,290,0,3,,,,,,,,,,,,,,,2,,,55,40
444070,note_off,70,0,1,,,,,,,,,,,,,,,0,,,76,0
444080,note_on,10,0,1,,,,,,,,,,,,,,,0,,,76,45
444150,note_off,70,0,1,,,,,,,,,,,,,,,0,,,74,0
444160,note_on,10,0,1,,,,,,,,,,,,,,,0,,,74,46
444190,note_off,190,0,3,,,,,,,,,,,,,,,2,,,55,0
444230,note_off,70,0,1,,,,,,,,,,,,,,,0,,,76,0
444240,note_on,10,0,1,,,,,,,,,,,,,,,0,,,76,46
444310,note_off,70,0,1,,,,,,,,,,,,,,,0,,,74,0
444320,note_on,10,0,1,,,,,,,,,,,,,,,0,,,74,47
444390,note_off,70,0,1,,,,,,,,,,,,,,,0,,,76,0
444400,note_on,10,0,1,,,,,,,,,,,,,,,0,,,76,47
444470,note_off,70,0,1,,,,,,,,,,,,,,,0,,,74,0
444480,note_on,10,0,1,,,,,,,,,,,,,,,0,,,74,48
444480,note_on,290,0,3,,,,,,,,,,,,,,,2,,,62,42
444550,note_off,70,0,1,,,,,,,,,,,,,,,0,,,76,0
444560,note_on,10,0,1,,,,,,,,,,,,,,,0,,,76,48
444630,note_off,70,0,1,,,,,,,,,,,,,,,0,,,74,0
444640,note_on,10,0,1,,,,,,,,,,,,,,,0,,,74,49
444670,note_off,190,0,3,,,,,,,,,,,,,,,2,,,62,0
444710,note_off,70,0,1,,,,,,,,,,,,,,,0,,,76,0
444720,note_on,10,0,1,,,,,,,,,,,,,,,0,,,76,49
444790,note_off,70,0,1,,,,,,,,,,,,,,,0,,,74,0
444800,note_on,10,0,1,,,,,,,,,,,,,,,0,,,74,49
444870,note_off,70,0,1,,,,,,,,,,,,,,,0,,,76,0
444880,note_on,10,0,1,,,,,,,,,,,,,,,0,,,76,50
444950,note_off,70,0,1,,,,,,,,,,,,,,,0,,,74,0
444960,note_on,10,0,1,,,,,,,,,,,,,,,0,,,74,50
444960,note_on,290,0,3,,,,,,,,,,,,,,,2,,,53,43
445030,note_off,70,0,1,,,,,,,,,,,,,,,0,,,76,0
445040,note_on,10,0,1,,,,,,,,,,,,,,,0,,,76,51
445110,note_off,70,0,1,,,,,,,,,,,,,,,0,,,74,0
445120,note_on,10,0,1,,,,,,,,,,,,,,,0,,,74,51
445150,note_off,190,0,3,,,,,,,,,,,,,,,2,,,53,0
445190,note_off,70,0,1,,,,,,,,,,,,,,,0,,,76,0
445200,note_on,10,0,1,,,,,,,,,,,,,,,0,,,76,52
445270,note_off,70,0,1,,,,,,,,,,,,,,,0,,,74,0
445280,note_on,10,0,1,,,,,,,,,,,,,,,0,,,74,52
445345,note_off,65,0,1,,,,,,,,,,,,,,,0,,,76,0
445360,note_on,15,0,1,,,,,,,,,,,,,,,0,,,76,53
445440,note_on,0,0,1,,,,,,,,,,,,,,,0,,,74,53
445440,note_off,80,0,1,,,,,,,,,,,,,,,0,,,74,0
445440,note_on,290,0,3,,,,,,,,,,,,,,,2,,,55,44
445510,note_off,70,0,1,,,,,,,,,,,,,,,0,,,76,0
445520,note_on,10,0,1,,,,,,,,,,,,,,,0,,,76,54
445590,note_off,70,0,1,,,,,,,,,,,,,,,0,,,74,0
445600,note_on,10,0,1,,,,,,,,,,,,,,,0,,,74,54
445635,note_off,195,0,3,,,,,,,,,,,,,,,2,,,55,0
445670,note_off,70,0,1,,,,,,,,,,,,,,,0,,,76,0
445680,note_on,10,0,1,,,,,,,,,,,,,,,0,,,76,55
445750,note_off,70,0,1,,,,,,,,,,,,,,,0,,,74,0
445760,note_on,10,0,1,,,,,,,,,,,,,,,0,,,74,55
445830,note_off,70,0,1,,,,,,,,,,,,,,,0,,,76,0
445840,note_on,10,0,1,,,,,,,,,,,,,,,0,,,76,55
445910,note_off,70,0,1,,,,,,,,,,,,,,,0,,,74,0
445920,note_on,285,0,3,,,,,,,,,,,,,,,2,,,62,45
445920,note_on,10,0,1,,,,,,,,,,,,,,,0,,,74,56
445990,note_off,70,0,1,,,,,,,,,,,,,,,0,,,76,0
446000,note_on,10,0,1,,,,,,,,,,,,,,,0,,,76,56
446070,note_off,70,0,1,,,,,,,,,,,,,,,0,,,74,0
446080,note_on,10,0,1,,,,,,,,,,,,,,,0,,,74,57
446110,note_off,190,0,3,,,,,,,,,,,,,,,2,,,62,0
446150,note_off,70,0,1,,,,,,,,,,,,,,,0,,,76,0
446160,note_on,10,0,1,,,,,,,,,,,,,,,0,,,73,57
446220,set_tempo,2590,1,0,,,,,,,480000,,,,,,,,,,,,
446280,note_off,120,0,1,,,,,,,,,,,,,,,0,,,74,0
446280,note_on,0,0,1,,,,,,,,,,,,,,,0,,,74,61
446290,set_tempo,70,1,0,,,,,,,483870,,,,,,,,,,,,
446340,note_off,60,0,1,,,,,,,,,,,,,,,0,,,73,0
446400,note_on,290,0,3,,,,,,,,,,,,,,,2,,,53,47
446400,set_tempo,110,1,0,,,,,,,472440,,,,,,,,,,,,
446400,note_on,60,0,1,,,,,,,,,,,,,,,0,,,79,63
446460,note_off,60,0,1,,,,,,,,,,,,,,,0,,,74,0
446590,note_off,190,0,3,,,,,,,,,,,,,,,2,,,53,0
446880,note_on,290,0,3,,,,,,,,,,,,,,,2,,,55,47
447070,note_off,190,0,3,,,,,,,,,,,,,,,2,,,55,0
447360,note_on,290,0,3,,,,,,,,,,,,,,,2,,,62,46
447525,note_off,1065,0,1,,,,,,,,,,,,,,,0,,,79,0
447540,note_on,15,0,1,,,,,,,,,,,,,,,0,,,77,58
447550,note_off,190,0,3,,,,,,,,,,,,,,,2,,,62,0
447600,note_on,0,0,1,,,,,,,,,,,,,,,0,,,76,58
447600,note_off,60,0,1,,,,,,,,,,,,,,,0,,,77,0
447660,note_on,0,0,1,,,,,,,,,,,,,,,0,,,74,57
447660,note_off,60,0,1,,,,,,,,,,,,,,,0,,,76,0
447720,note_on,0,0,1,,,,,,,,,,,,,,,0,,,72,57
447720,note_off,60,0,1,,,,,,,,,,,,,,,0,,,74,0
447720,set_tempo,1320,1,0,,,,,,,491803,,,,,,,,,,,,
447780,note_off,60,0,1,,,,,,,,,,,,,,,0,,,72,0
447780,note_on,0,0,1,,,,,,,,,,,,,,,0,,,71,57
447825,note_off,4290,0,4,,,,,,,,,,,,,,,3,,,47,0
447840,set_tempo,120,1,0,,,,,,,472440,,,,,,,,,,,,
447840,note_on,0,0,1,,,,,,,,,,,,,,,0,,,69,56
447840,note_on,15,0,4,,,,,,,,,,,,,,,3,,,47,51
447840,note_on,290,0,3,,,,,,,,,,,,,,,2,,,53,44
447840,note_off,60,0,1,,,,,,,,,,,,,,,0,,,71,0
448030,note_off,190,0,3,,,,,,,,,,,,,,,2,,,53,0
448200,note_off,360,0,1,,,,,,,,,,,,,,,0,,,69,0
448320,note_on,290,0,3,,,,,,,,,,,,,,,2,,,55,43
448320,note_on,120,0,1,,,,,,,,,,,,,,,0,,,67,54
448510,note_off,190,0,3,,,,,,,,,,,,,,,2,,,55,0
448800,note_on,290,0,3,,,,,,,,,,,,,,,2,,,62,41
448990,note_off,190,0,3,,,,,,,,,,,,,,,2,,,62,0
449280,note_on,290,0,3,,,,,,,,,,,,,,,2,,,53,40
449470,note_off,190,0,3,,,,,,,,,,,,,,,2,,,53,0
449760,note_on,290,0,3,,,,,,,,,,,,,,,2,,,55,38
449950,note_off,190,0,3,,,,,,,,,,,,,,,2,,,55,0
450225,note_off,1905,0,1,,,,,,,,,,,,,,,0,,,67,0
450240,note_on,15,0,1,,,,,,,,,,,,,,,0,,,67,48
450240,note_on,290,0,3,,,,,,,,,,,,,,,2,,,62,39
450395,note_off,155,0,1,,,,,,,,,,,,,,,0,,,67,0
450430,note_off,190,0,3,,,,,,,,,,,,,,,2,,,62,0
450480,note_on,85,0,1,,,,,,,,,,,,,,,0,,,69,50
450635,note_off,155,0,1,,,,,,,,,,,,,,,0,,,69,0
450720,note_on,85,0,1,,,,,,,,,,,,,,,0,,,70,52
450720,note_off,2880,0,4,,,,,,,,,,,,,,,3,,,47,0
450720,note_on,0,0,4,,,,,,,,,,,,,,,3,,,43,53
450720,note_on,290,0,3,,,,,,,,,,,,,,,2,,,53,40
450875,note_off,155,0,1,,,,,,,,,,,,,,,0,,,70,0
450910,note_off,190,0,3,,,,,,,,,,,,,,,2,,,53,0
450960,note_on,85,0,1,,,,,,,,,,,,,,,0,,,71,53
451115,note_off,155,0,1,,,,,,,,,,,,,,,0,,,71,0
451200,note_on,85,0,1,,,,,,,,,,,,,,,0,,,72,55
451200,note_on,290,0,3,,,,,,,,,,,,,,,2,,,55,41
451355,note_off,155,0,1,,,,,,,,,,,,,,,0,,,72,0
451395,note_off,195,0,3,,,,,,,,,,,,,,,2,,,55,0
451440,note_on,85,0,1,,,,,,,,,,,,,,,0,,,73,57
451595,note_off,155,0,1,,,,,,,,,,,,,,,0,,,73,0
451680,note_on,85,0,1,,,,,,,,,,,,,,,0,,,74,58
451680,note_on,285,0,3,,,,,,,,,,,,,,,2,,,59,42
451800,set_tempo,3960,1,0,,,,,,,487804,,,,,,,,,,,,
451835,note_off,155,0,1,,,,,,,,,,,,,,,0,,,74,0
451870,note_off,190,0,3,,,,,,,,,,,,,,,2,,,59,0
451920,note_on,85,0,1,,,,,,,,,,,,,,,0,,,75,60
451920,set_tempo,120,1,0,,,,,,,491803,,,,,,,,,,,,
452075,note_off,155,0,1,,,,,,,,,,,,,,,0,,,75,0
452150,note_off,1430,0,4,,,,,,,,,,,,,,,3,,,43,0
452160,note_on,85,0,1,,,,,,,,,,,,,,,0,,,76,61
452160,note_on,10,0,4,,,,,,,,,,,,,,,3,,,48,54
452160,note_on,290,0,3,,,,,,,,,,,,,,,2,,,52,44
452200,set_tempo,280,1,0,,,,,,,472440,,,,,,,,,,,,
452240,note_off,80,0,1,,,,,,,,,,,,,,,0,,,76,0
452240,note_on,0,0,1,,,,,,,,,,,,,,,0,,,77,62
452320,note_on,0,0,1,,,,,,,,,,,,,,,0,,,76,63
452320,note_off,80,0,1,,,,,,,,,,,,,,,0,,,77,0
452350,note_off,190,0,3,,,,,,,,,,,,,,,2,,,52,0
452400,note_off,80,0,1,,,,,,,,,,,,,,,0,,,76,0
452400,note_on,0,0,1,,,,,,,,,,,,,,,0,,,75,65
452520,note_off,120,0,1,,,,,,,,,,,,,,,0,,,75,0
452520,note_on,0,0,1,,,,,,,,,,,,,,,0,,,76,67
452640,note_off,120,0,1,,,,,,,,,,,,,,,0,,,76,0
452640,note_on,290,0,3,,,,,,,,,,,,,,,2,,,55,45
452640,note_on,0,0,1,,,,,,,,,,,,,,,0,,,84,71
452830,note_off,190,0,3,,,,,,,,,,,,,,,2,,,55,0
452880,note_off,240,0,1,,,,,,,,,,,,,,,0,,,84,0
453120,note_on,290,0,3,,,,,,,,,,,,,,,2,,,60,44
453310,note_off,1150,0,4,,,,,,,,,,,,,,,3,,,48,0
453310,note_off,190,0,3,,,,,,,,,,,,,,,2,,,60,0
453530,set_tempo,1330,1,0,,,,,,,487804,,,,,,,,,,,,
453600,note_on,290,0,4,,,,,,,,,,,,,,,3,,,45,55
453600,set_tempo,70,1,0,,,,,,,472440,,,,,,,,,,,,
453600,note_on,720,0,1,,,,,,,,,,,,,,,0,,,77,61
453680,note_on,0,0,1,,,,,,,,,,,,,,,0,,,79,63
453680,note_off,80,0,1,,,,,,,,,,,,,,,0,,,77,0
453760,note_off,80,0,1,,,,,,,,,,,,,,,0,,,79,0
453760,note_on,0,0,1,,,,,,,,,,,,,,,0,,,77,65
453840,note_off,80,0,1,,,,,,,,,,,,,,,0,,,77,0
453840,note_on,0,0,1,,,,,,,,,,,,,,,0,,,76,67
453960,note_off,120,0,1,,,,,,,,,,,,,,,0,,,76,0
453960,note_on,0,0,1,,,,,,,,,,,,,,,0,,,77,69
454080,note_on,770,0,3,,,,,,,,,,,,,,,2,,,57,44
454080,note_off,120,0,1,,,,,,,,,,,,,,,0,,,77,0
454080,note_on,0,0,1,,,,,,,,,,,,,,,0,,,84,73
454270,note_off,190,0,3,,,,,,,,,,,,,,,2,,,57,0
454320,note_off,240,0,1,,,,,,,,,,,,,,,0,,,84,0
454560,note_on,290,0,3,,,,,,,,,,,,,,,2,,,60,45
454750,note_off,1150,0,4,,,,,,,,,,,,,,,3,,,45,0
454750,note_off,190,0,3,,,,,,,,,,,,,,,2,,,60,0
454970,set_tempo,1370,1,0,,,,,,,487804,,,,,,,,,,,,
455040,note_on,290,0,4,,,,,,,,,,,,,,,3,,,40,56
455040,set_tempo,70,1,0,,,,,,,472440,,,,,,,,,,,,
455040,note_on,720,0,1,,,,,,,,,,,,,,,0,,,79,65
455120,note_on,0,0,1,,,,,,,,,,,,,,,0,,,81,67
455120,note_off,80,0,1,,,,,,,,,,,,,,,0,,,79,0
455200,note_off,80,0,1,,,,,,,,,,,,,,,0,,,81,0
455200,note_on,0,0,1,,,,,,,,,,,,,,,0,,,79,69
455280,note_off,80,0,1,,,,,,,,,,,,,,,0,,,79,0
455280,note_on,0,0,1,,,,,,,,,,,,,,,0,,,78,70
455400,note_on,0,0,1,,,,,,,,,,,,,,,0,,,79,73
455400,note_off,120,0,1,,,,,,,,,,,,,,,0,,,78,0
455520,note_on,0,0,1,,,,,,,,,,,,,,,0,,,84,77
455520,note_off,120,0,1,,,,,,,,,,,,,,,0,,,79,0
455520,note_on,0,0,3,,,,,,,,,,,,,,,2,,,55,45
455520,note_on,770,0,3,,,,,,,,,,,,,,,2,,,52,45
455715,note_off,0,0,3,,,,,,,,,,,,,,,2,,,55,0
455715,note_off,195,0,3,,,,,,,,,,,,,,,2,,,52,0
455760,note_off,240,0,1,,,,,,,,,,,,,,,0,,,84,0
456000,note_on,0,0,3,,,,,,,,,,,,,,,2,,,55,45
456000,note_on,285,0,3,,,,,,,,,,,,,,,2,,,60,45
456190,note_off,0,0,3,,,,,,,,,,,,,,,2,,,55,0
456190,note_off,190,0,3,,,,,,,,,,,,,,,2,,,60,0
456190,note_off,1150,0,4,,,,,,,,,,,,,,,3,,,40,0
456360,set_tempo,1320,1,0,,,,,,,487804,,,,,,,,,,,,
456480,note_on,290,0,4,,,,,,,,,,,,,,,3,,,41,57
456480,set_tempo,120,1,0,,,,,,,472440,,,,,,,,,,,,
456480,note_on,720,0,1,,,,,,,,,,,,,,,0,,,80,78
456840,set_tempo,360,1,0,,,,,,,487804,,,,,,,,,,,,
456845,note_off,365,0,1,,,,,,,,,,,,,,,0,,,80,0
456960,note_on,770,0,3,,,,,,,,,,,,,,,2,,,57,44
456960,note_on,0,0,3,,,,,,,,,,,,,,,2,,,53,44
456960,set_tempo,120,1,0,,,,,,,472440,,,,,,,,,,,,
456960,note_on,115,0,1,,,,,,,,,,,,,,,0,,,81,83
457150,note_off,190,0,3,,,,,,,,,,,,,,,2,,,57,0
457150,note_off,0,0,3,,,,,,,,,,,,,,,2,,,53,0
457440,note_on,290,0,3,,,,,,,,,,,,,,,2,,,60,44
457440,note_on,0,0,3,,,,,,,,,,,,,,,2,,,57,44
457630,note_off,190,0,3,,,,,,,,,,,,,,,2,,,60,0
457630,note_off,1150,0,4,,,,,,,,,,,,,,,3,,,41,0
457630,note_off,0,0,3,,,,,,,,,,,,,,,2,,,57,0
457920,note_on,290,0,4,,,,,,,,,,,,,,,3,,,41,59
458400,note_on,0,0,1,,,,,,,,,,,,,,,0,,,81,87
458400,note_off,1440,0,1,,,,,,,,,,,,,,,0,,,81,0
458400,note_on,770,0,3,,,,,,,,,,,,,,,2,,,57,43
458400,note_on,0,0,3,,,,,,,,,,,,,,,2,,,53,43
458590,note_off,190,0,3,,,,,,,,,,,,,,,2,,,57,0
458590,note_off,0,0,3,,,,,,,,,,,,,,,2,,,53,0
458880,note_on,0,0,3,,,,,,,,,,,,,,,2,,,61,42
458880,note_on,290,0,3,,,,,,,,,,,,,,,2,,,57,42
459070,note_off,1150,0,4,,,,,,,,,,,,,,,3,,,41,0
459070,note_off,0,0,3,,,,,,,,,,,,,,,2,,,61,0
459070,note_off,190,0,3,,,,,,,,,,,,,,,2,,,57,0
459300,set_tempo,2340,1,0,,,,,,,480000,,,,,,,,,,,,
459360,note_on,290,0,4,,,,,,,,,,,,,,,3,,,41,56
459360,set_tempo,60,1,0,,,,,,,472440,,,,,,,,,,,,
459735,note_off,1335,0,1,,,,,,,,,,,,,,,0,,,81,0
459760,note_on,25,0,1,,,,,,,,,,,,,,,0,,,79,75
459840,note_on,0,0,3,,,,,,,,,,,,,,,2,,,53,41
459840,note_on,770,0,3,,,,,,,,,,,,,,,2,,,57,41
459840,note_on,80,0,1,,,,,,,,,,,,,,,0,,,77,74
459880,note_off,40,0,1,,,,,,,,,,,,,,,0,,,79,0
460035,note_off,0,0,3,,,,,,,,,,,,,,,2,,,53,0
460035,note_off,195,0,3,,,,,,,,,,,,,,,2,,,57,0
460080,note_off,200,0,1,,,,,,,,,,,,,,,0,,,77,0
460080,note_on,0,0,1,,,,,,,,,,,,,,,0,,,76,71
460320,note_on,0,0,1,,,,,,,,,,,,,,,0,,,77,69
460320,note_off,240,0,1,,,,,,,,,,,,,,,0,,,76,0
460320,note_on,285,0,3,,,,,,,,,,,,,,,2,,,62,41
460320,note_on,0,0,3,,,,,,,,,,,,,,,2,,,57,41
460510,note_off,1150,0,4,,,,,,,,,,,,,,,3,,,41,0
460510,note_off,0,0,3,,,,,,,,,,,,,,,2,,,57,0
460510,note_off,190,0,3,,,,,,,,,,,,,,,2,,,62,0
460560,note_off,240,0,1,,,,,,,,,,,,,,,0,,,77,0
460560,note_on,0,0,1,,,,,,,,,,,,,,,0,,,74,66
460680,set_tempo,1320,1,0,,,,,,,487804,,,,,,,,,,,,
460800,set_tempo,120,1,0,,,,,,,472440,,,,,,,,,,,,
460800,note_off,240,0,1,,,,,,,,,,,,,,,0,,,74,0
460800,note_on,0,0,1,,,,,,,,,,,,,,,0,,,72,64
460800,note_on,290,0,4,,,,,,,,,,,,,,,3,,,43,53
460920,note_on,0,0,1,,,,,,,,,,,,,,,0,,,74,64
460920,note_off,120,0,1,,,,,,,,,,,,,,,0,,,72,0
461040,note_on,0,0,1,,,,,,,,,,,,,,,0,,,72,64
461040,note_off,120,0,1,,,,,,,,,,,,,,,0,,,74,0
461160,note_on,0,0,1,,,,,,,,,,,,,,,0,,,71,64
461160,note_off,120,0,1,,,,,,,,,,,,,,,0,,,72,0
461280,note_on,0,0,1,,,,,,,,,,,,,,,0,,,72,64
461280,note_off,120,0,1,,,,,,,,,,,,,,,0,,,71,0
461280,note_on,770,0,3,,,,,,,,,,,,,,,2,,,60,40
461280,note_on,0,0,3,,,,,,,,,,,,,,,2,,,55,40
461435,note_off,155,0,1,,,,,,,,,,,,,,,0,,,72,0
461470,note_off,0,0,3,,,,,,,,,,,,,,,2,,,55,0
461470,note_off,190,0,3,,,,,,,,,,,,,,,2,,,60,0
461520,note_on,85,0,1,,,,,,,,,,,,,,,0,,,74,65
461675,note_off,155,0,1,,,,,,,,,,,,,,,0,,,74,0
461760,note_on,290,0,3,,,,,,,,,,,,,,,2,,,64,39
461760,note_on,85,0,1,,,,,,,,,,,,,,,0,,,76,66
461760,note_on,0,0,3,,,,,,,,,,,,,,,2,,,60,39
461915,note_off,155,0,1,,,,,,,,,,,,,,,0,,,76,0
461950,note_off,190,0,3,,,,,,,,,,,,,,,2,,,64,0
461950,note_off,0,0,3,,,,,,,,,,,,,,,2,,,60,0
461950,note_off,1150,0,4,,,,,,,,,,,,,,,3,,,43,0
462000,note_on,85,0,1,,,,,,,,,,,,,,,0,,,77,67
462120,set_tempo,1320,1,0,,,,,,,487804,,,,,,,,,,,,
462155,note_off,155,0,1,,,,,,,,,,,,,,,0,,,77,0
462240,note_on,290,0,4,,,,,,,,,,,,,,,3,,,43,49
462240,note_on,85,0,1,,,,,,,,,,,,,,,0,,,79,68
462240,set_tempo,120,1,0,,,,,,,472440,,,,,,,,,,,,
462395,note_off,155,0,1,,,,,,,,,,,,,,,0,,,79,0
462480,note_on,85,0,1,,,,,,,,,,,,,,,0,,,81,69
462635,note_off,155,0,1,,,,,,,,,,,,,,,0,,,81,0
462720,note_on,85,0,1,,,,,,,,,,,,,,,0,,,83,70
462720,note_on,0,0,3,,,,,,,,,,,,,,,2,,,55,38
462720,note_on,770,0,3,,,,,,,,,,,,,,,2,,,60,38
462875,note_off,155,0,1,,,,,,,,,,,,,,,0,,,83,0
462910,note_off,190,0,3,,,,,,,,,,,,,,,2,,,60,0
462910,note_off,0,0,3,,,,,,,,,,,,,,,2,,,55,0
462960,note_on,85,0,1,,,,,,,,,,,,,,,0,,,84,71
463115,note_off,155,0,1,,,,,,,,,,,,,,,0,,,84,0
463200,note_on,290,0,3,,,,,,,,,,,,,,,2,,,60,37
463200,note_on,0,0,3,,,,,,,,,,,,,,,2,,,64,37
463200,note_on,85,0,1,,,,,,,,,,,,,,,0,,,86,72
463320,set_tempo,1080,1,0,,,,,,,491803,,,,,,,,,,,,
463355,note_off,155,0,1,,,,,,,,,,,,,,,0,,,86,0
463390,note_off,190,0,3,,,,,,,,,,,,,,,2,,,60,0
463390,note_off,1150,0,4,,,,,,,,,,,,,,,3,,,43,0
463390,note_off,0,0,3,,,,,,,,,,,,,,,2,,,64,0
463440,set_tempo,120,1,0,,,,,,,517241,,,,,,,,,,,,
463440,note_on,85,0,1,,,,,,,,,,,,,,,0,,,88,73
463560,note_on,120,0,1,,,,,,,,,,,,,,,0,,,86,74
463570,set_tempo,130,1,0,,,,,,,491803,,,,,,,,,,,,
463595,note_off,35,0,1,,,,,,,,,,,,,,,0,,,88,0
463620,note_on,0,0,1,,,,,,,,,,,,,,,0,,,88,74
463620,note_off,25,0,1,,,,,,,,,,,,,,,0,,,86,0
463680,note_off,60,0,1,,,,,,,,,,,,,,,0,,,88,0
463680,note_on,290,0,4,,,,,,,,,,,,,,,3,,,43,46
463680,note_on,0,0,1,,,,,,,,,,,,,,,0,,,89,76
464160,note_on,770,0,3,,,,,,,,,,,,,,,2,,,62,36
464160,note_on,0,0,3,,,,,,,,,,,,,,,2,,,55,36
464355,note_off,0,0,3,,,,,,,,,,,,,,,2,,,55,0
464355,note_off,195,0,3,,,,,,,,,,,,,,,2,,,62,0
464400,note_off,720,0,1,,,,,,,,,,,,,,,0,,,89,0
464640,note_on,285,0,3,,,,,,,,,,,,,,,2,,,65,36
464640,set_tempo,1070,1,0,,,,,,,500000,,,,,,,,,,,,
464640,note_on,0,0,3,,,,,,,,,,,,,,,2,,,62,36
464830,note_off,190,0,3,,,,,,,,,,,,,,,2,,,65,0
464830,note_off,0,0,3,,,,,,,,,,,,,,,2,,,62,0
464830,note_off,1150,0,4,,,,,,,,,,,,,,,3,,,43,0
465000,set_tempo,360,1,0,,,,,,,504201,,,,,,,,,,,,
465000,note_on,600,0,1,,,,,,,,,,,,,,,0,,,71,66
465120,note_off,120,0,1,,,,,,,,,,,,,,,0,,,71,0
465120,note_on,0,0,1,,,,,,,,,,,,,,,0,,,65,60
465120,note_on,0,0,1,,,,,,,,,,,,,,,0,,,74,60
465120,note_on,290,0,3,,,,,,,,,,,,,,,2,,,48,35
465310,note_off,190,0,3,,,,,,,,,,,,,,,2,,,48,0
465600,note_on,290,0,3,,,,,,,,,,,,,,,2,,,55,35
465790,note_off,190,0,3,,,,,,,,,,,,,,,2,,,55,0
466080,note_on,290,0,3,,,,,,,,,,,,,,,2,,,59,34
466270,note_off,190,0,3,,,,,,,,,,,,,,,2,,,59,0
466455,set_tempo,1455,1,0,,,,,,,517241,,,,,,,,,,,,
466560,note_on,0,0,1,,,,,,,,,,,,,,,0,,,64,38
466560,note_off,1440,0,1,,,,,,,,,,,,,,,0,,,65,0
466560,note_off,0,0,1,,,,,,,,,,,,,,,0,,,74,0
466560,note_on,0,0,1,,,,,,,,,,,,,,,0,,,72,38
466560,note_on,290,0,3,,,,,,,,,,,,,,,2,,,60,34
466560,note_on,0,0,3,,,,,,,,,,,,,,,2,,,48,34
466805,note_off,245,0,3,,,,,,,,,,,,,,,2,,,60,0
466815,note_off,255,0,1,,,,,,,,,,,,,,,0,,,72,0
466815,note_off,10,0,3,,,,,,,,,,,,,,,2,,,48,0
466815,note_off,0,0,1,,,,,,,,,,,,,,,0,,,64,0
467040,note_on,225,0,1,,,,,,,,,,,,,,,0,,,67,41
467040,note_on,225,0,3,,,,,,,,,,,,,,,2,,,55,41
467055,set_tempo,600,1,0,,,,,,,500000,,,,,,,,,,,,
467520,note_on,0,0,3,,,,,,,,,,,,,,,2,,,51,40
467520,note_off,480,0,1,,,,,,,,,,,,,,,0,,,67,0
467520,note_on,0,0,1,,,,,,,,,,,,,,,0,,,63,39
467520,note_off,480,0,3,,,,,,,,,,,,,,,2,,,55,0
468000,note_on,0,0,3,,,,,,,,,,,,,,,2,,,48,38
468000,note_on,0,0,1,,,,,,,,,,,,,,,0,,,60,37
468000,note_off,480,0,1,,,,,,,,,,,,,,,0,,,63,0
468000,note_off,480,0,3,,,,,,,,,,,,,,,2,,,51,0
468480,note_off,480,0,1,,,,,,,,,,,,,,,0,,,60,0
468480,note_on,0,0,1,,,,,,,,,,,,,,,0,,,55,35
468480,note_on,0,0,3,,,,,,,,,,,,,,,2,,,43,36
468480,note_off,480,0,3,,,,,,,,,,,,,,,2,,,48,0
468720,set_tempo,1665,1,0,,,,,,,504201,,,,,,,,,,,,
468960,note_on,0,0,3,,,,,,,,,,,,,,,2,,,39,35
468960,note_off,480,0,1,,,,,,,,,,,,,,,0,,,55,0
468960,note_on,0,0,1,,,,,,,,,,,,,,,0,,,51,33
468960,note_off,480,0,3,,,,,,,,,,,,,,,2,,,43,0
469080,set_tempo,360,1,0,,,,,,,535714,,,,,,,,,,,,
469440,note_off,480,0,1,,,,,,,,,,,,,,,0,,,51,0
469440,control_change,480,0,3,,,,,,,,,,,,,64,127,2,,,,
469440,note_on,4610,0,4,,,,,,,,,,,,,,,3,,,36,43
469440,note_off,0,0,3,,,,,,,,,,,,,,,2,,,39,0
469440,note_on,0,0,1,,,,,,,,,,,,,,,0,,,48,34
469470,set_tempo,390,1,0,,,,,,,461538,,,,,,,,,,,,
469680,note_on,240,0,3,,,,,,,,,,,,,,,2,,,39,33
469920,note_off,240,0,3,,,,,,,,,,,,,,,2,,,39,0
469920,note_on,0,0,3,,,,,,,,,,,,,,,2,,,43,33
470040,control_change,120,0,3,,,,,,,,,,,,,64,0,2,,,,
470075,note_off,35,0,3,,,,,,,,,,,,,,,2,,,43,0
470160,note_on,85,0,3,,,,,,,,,,,,,,,2,,,43,32
470315,note_off,155,0,3,,,,,,,,,,,,,,,2,,,43,0
470400,note_on,85,0,3,,,,,,,,,,,,,,,2,,,43,32
470555,note_off,155,0,3,,,,,,,,,,,,,,,2,,,43,0
470640,note_on,85,0,3,,,,,,,,,,,,,,,2,,,43,31
470795,note_off,155,0,3,,,,,,,,,,,,,,,2,,,43,0
470820,set_tempo,1350,1,0,,,,,,,465116,,,,,,,,,,,,
470880,set_tempo,60,1,0,,,,,,,461538,,,,,,,,,,,,
470880,note_on,0,0,4,,,,,,,,,,,,,,,3,,,36,40
470880,note_off,1440,0,4,,,,,,,,,,,,,,,3,,,36,0
470880,control_change,85,0,3,,,,,,,,,,,,,64,127,2,,,,
471120,note_on,240,0,3,,,,,,,,,,,,,,,2,,,39,30
471360,note_off,240,0,3,,,,,,,,,,,,,,,2,,,39,0
471360,note_on,0,0,3,,,,,,,,,,,,,,,2,,,43,30
471480,control_change,120,0,3,,,,,,,,,,,,,64,0,2,,,,
471515,note_off,35,0,3,,,,,,,,,,,,,,,2,,,43,0
471600,note_on,85,0,3,,,,,,,,,,,,,,,2,,,43,29
471755,note_off,155,0,3,,,,,,,,,,,,,,,2,,,43,0
471840,note_on,85,0,3,,,,,,,,,,,,,,,2,,,43,29
471995,note_off,155,0,3,,,,,,,,,,,,,,,2,,,43,0
472080,note_on,85,0,3,,,,,,,,,,,,,,,2,,,43,29
472235,note_off,155,0,3,,,,,,,,,,,,,,,2,,,43,0
472260,set_tempo,1380,1,0,,,,,,,465116,,,,,,,,,,,,
472320,set_tempo,60,1,0,,,,,,,461538,,,,,,,,,,,,
472320,note_off,1440,0,4,,,,,,,,,,,,,,,3,,,36,0
472320,note_on,0,0,4,,,,,,,,,,,,,,,3,,,36,37
472320,control_change,85,0,3,,,,,,,,,,,,,64,127,2,,,,
472560,note_on,240,0,3,,,,,,,,,,,,,,,2,,,39,28
472800,note_off,240,0,3,,,,,,,,,,,,,,,2,,,39,0
472800,note_on,0,0,3,,,,,,,,,,,,,,,2,,,43,28
472920,control_change,120,0,3,,,,,,,,,,,,,64,0,2,,,,
472955,note_off,35,0,3,,,,,,,,,,,,,,,2,,,43,0
473040,note_on,85,0,3,,,,,,,,,,,,,,,2,,,43,28
473195,note_off,155,0,3,,,,,,,,,,,,,,,2,,,43,0
473280,note_on,85,0,3,,,,,,,,,,,,,,,2,,,43,28
473435,note_off,155,0,3,,,,,,,,,,,,,,,2,,,43,0
473520,note_on,85,0,3,,,,,,,,,,,,,,,2,,,43,28
473520,set_tempo,1200,1,0,,,,,,,465116,,,,,,,,,,,,
473640,set_tempo,120,1,0,,,,,,,472440,,,,,,,,,,,,
473675,note_off,155,0,3,,,,,,,,,,,,,,,2,,,43,0
473760,set_tempo,120,1,0,,,,,,,461538,,,,,,,,,,,,
473760,note_off,1440,0,4,,,,,,,,,,,,,,,3,,,36,0
473760,note_on,0,0,4,,,,,,,,,,,,,,,3,,,36,36
473760,note_on,38880,0,2,,,,,,,,,,,,,,,1,,,63,42
473760,control_change,85,0,3,,,,,,,,,,,,,64,127,2,,,,
473760,note_off,4320,0,1,,,,,,,,,,,,,,,0,,,48,0
473760,note_on,0,0,1,,,,,,,,,,,,,,,0,,,75,46
474000,note_on,240,0,3,,,,,,,,,,,,,,,2,,,39,29
474240,note_on,0,0,3,,,,,,,,,,,,,,,2,,,44,29
474240,note_off,240,0,3,,,,,,,,,,,,,,,2,,,39,0
474360,control_change,120,0,3,,,,,,,,,,,,,64,0,2,,,,
474395,note_off,35,0,3,,,,,,,,,,,,,,,2,,,44,0
474480,note_on,85,0,3,,,,,,,,,,,,,,,2,,,44,30
474635,note_off,155,0,3,,,,,,,,,,,,,,,2,,,44,0
474720,note_on,85,0,3,,,,,,,,,,,,,,,2,,,44,30
474875,note_off,155,0,3,,,,,,,,,,,,,,,2,,,44,0
474960,note_on,85,0,3,,,,,,,,,,,,,,,2,,,44,30
475115,note_off,155,0,3,,,,,,,,,,,,,,,2,,,44,0
475140,set_tempo,1380,1,0,,,,,,,465116,,,,,,,,,,,,
475200,note_on,0,0,4,,,,,,,,,,,,,,,3,,,36,38
475200,note_off,1440,0,4,,,,,,,,,,,,,,,3,,,36,0
475200,control_change,85,0,3,,,,,,,,,,,,,64,127,2,,,,
475200,note_on,0,0,2,,,,,,,,,,,,,,,1,,,60,44
475200,note_on,0,0,1,,,,,,,,,,,,,,,0,,,72,48
475200,note_off,1440,0,1,,,,,,,,,,,,,,,0,,,75,0
475200,set_tempo,60,1,0,,,,,,,461538,,,,,,,,,,,,
475200,note_off,1440,0,2,,,,,,,,,,,,,,,1,,,63,0
475440,note_on,240,0,3,,,,,,,,,,,,,,,2,,,39,31
475680,note_on,0,0,3,,,,,,,,,,,,,,,2,,,44,31
475680,note_off,240,0,3,,,,,,,,,,,,,,,2,,,39,0
475800,control_change,120,0,3,,,,,,,,,,,,,64,0,2,,,,
475835,note_off,35,0,3,,,,,,,,,,,,,,,2,,,44,0
475920,note_on,85,0,3,,,,,,,,,,,,,,,2,,,44,32
476075,note_off,155,0,3,,,,,,,,,,,,,,,2,,,44,0
476160,note_on,85,0,3,,,,,,,,,,,,,,,2,,,44,32
476315,note_off,155,0,3,,,,,,,,,,,,,,,2,,,44,0
476400,note_on,85,0,3,,,,,,,,,,,,,,,2,,,44,32
476555,note_off,155,0,3,,,,,,,,,,,,,,,2,,,44,0
476580,set_tempo,1380,1,0,,,,,,,465116,,,,,,,,,,,,
476640,note_on,0,0,4,,,,,,,,,,,,,,,3,,,36,40
476640,note_off,1440,0,2,,,,,,,,,,,,,,,1,,,60,0
476640,note_on,0,0,2,,,,,,,,,,,,,,,1,,,56,47
476640,note_off,1440,0,4,,,,,,,,,,,,,,,3,,,36,0
476640,control_change,85,0,3,,,,,,,,,,,,,64,127,2,,,,
476640,note_on,0,0,1,,,,,,,,,,,,,,,0,,,68,51
476640,set_tempo,60,1,0,,,,,,,461538,,,,,,,,,,,,
476640,note_off,1440,0,1,,,,,,,,,,,,,,,0,,,72,0
476880,note_on,240,0,3,,,,,,,,,,,,,,,2,,,39,33
477120,note_on,0,0,3,,,,,,,,,,,,,,,2,,,44,33
477120,note_off,240,0,3,,,,,,,,,,,,,,,2,,,39,0
477240,control_change,120,0,3,,,,,,,,,,,,,64,0,2,,,,
477275,note_off,35,0,3,,,,,,,,,,,,,,,2,,,44,0
477360,note_on,85,0,3,,,,,,,,,,,,,,,2,,,44,33
477515,note_off,155,0,3,,,,,,,,,,,,,,,2,,,44,0
477600,note_on,85,0,3,,,,,,,,,,,,,,,2,,,44,34
477755,note_off,155,0,3,,,,,,,,,,,,,,,2,,,44,0
477840,note_on,85,0,3,,,,,,,,,,,,,,,2,,,44,34
477970,set_tempo,1330,1,0,,,,,,,472440,,,,,,,,,,,,
477995,note_off,155,0,3,,,,,,,,,,,,,,,2,,,44,0
478080,set_tempo,110,1,0,,,,,,,461538,,,,,,,,,,,,
478080,control_change,85,0,3,,,,,,,,,,,,,64,127,2,,,,
478080,note_on,0,0,2,,,,,,,,,,,,,,,1,,,53,49
478080,note_on,0,0,1,,,,,,,,,,,,,,,0,,,65,54
478080,note_off,1440,0,1,,,,,,,,,,,,,,,0,,,68,0
478080,note_on,0,0,4,,,,,,,,,,,,,,,3,,,37,42
478080,note_off,1440,0,4,,,,,,,,,,,,,,,3,,,36,0
478080,note_off,1440,0,2,,,,,,,,,,,,,,,1,,,56,0
478320,note_on,240,0,3,,,,,,,,,,,,,,,2,,,41,35
478560,note_off,240,0,3,,,,,,,,,,,,,,,2,,,41,0
478560,note_on,0,0,3,,,,,,,,,,,,,,,2,,,44,35
478680,control_change,120,0,3,,,,,,,,,,,,,64,0,2,,,,
478715,note_off,35,0,3,,,,,,,,,,,,,,,2,,,44,0
478800,note_on,85,0,3,,,,,,,,,,,,,,,2,,,44,35
478955,note_off,155,0,3,,,,,,,,,,,,,,,2,,,44,0
479040,note_on,85,0,3,,,,,,,,,,,,,,,2,,,44,36
479195,note_off,155,0,3,,,,,,,,,,,,,,,2,,,44,0
479280,note_on,85,0,3,,,,,,,,,,,,,,,2,,,44,36
479435,note_off,155,0,3,,,,,,,,,,,,,,,2,,,44,0
479460,set_tempo,1380,1,0,,,,,,,465116,,,,,,,,,,,,
479520,control_change,85,0,3,,,,,,,,,,,,,64,127,2,,,,
479520,set_tempo,60,1,0,,,,,,,461538,,,,,,,,,,,,
479520,note_off,1440,0,4,,,,,,,,,,,,,,,3,,,37,0
479520,note_on,0,0,4,,,,,,,,,,,,,,,3,,,37,44
479760,note_on,240,0,3,,,,,,,,,,,,,,,2,,,41,37
480000,note_on,0,0,3,,,,,,,,,,,,,,,2,,,44,37
480000,note_off,240,0,3,,,,,,,,,,,,,,,2,,,41,0
480120,control_change,120,0,3,,,,,,,,,,,,,64,0,2,,,,
480155,note_off,35,0,3,,,,,,,,,,,,,,,2,,,44,0
480240,note_on,85,0,3,,,,,,,,,,,,,,,2,,,44,37
480395,note_off,155,0,3,,,,,,,,,,,,,,,2,,,44,0
480480,note_on,85,0,3,,,,,,,,,,,,,,,2,,,44,38
480635,note_off,155,0,3,,,,,,,,,,,,,,,2,,,44,0
480720,note_on,85,0,3,,,,,,,,,,,,,,,2,,,44,38
480875,note_off,155,0,3,,,,,,,,,,,,,,,2,,,44,0
480900,set_tempo,1380,1,0,,,,,,,465116,,,,,,,,,,,,
480960,note_on,0,0,4,,,,,,,,,,,,,,,3,,,37,46
480960,set_tempo,60,1,0,,,,,,,461538,,,,,,,,,,,,
480960,note_off,1440,0,4,,,,,,,,,,,,,,,3,,,37,0
480960,control_change,85,0,3,,,,,,,,,,,,,64,127,2,,,,
481200,note_on,240,0,3,,,,,,,,,,,,,,,2,,,41,38
481440,note_off,240,0,3,,,,,,,,,,,,,,,2,,,41,0
481440,note_on,0,0,3,,,,,,,,,,,,,,,2,,,45,39
481560,control_change,120,0,3,,,,,,,,,,,,,64,0,2,,,,
481595,note_off,35,0,3,,,,,,,,,,,,,,,2,,,45,0
481680,note_on,85,0,3,,,,,,,,,,,,,,,2,,,45,39
481835,note_off,155,0,3,,,,,,,,,,,,,,,2,,,45,0
481910,note_off,3830,0,1,,,,,,,,,,,,,,,0,,,65,0
481920,note_on,85,0,3,,,,,,,,,,,,,,,2,,,45,39
481920,note_on,10,0,1,,,,,,,,,,,,,,,0,,,65,56
482075,note_off,155,0,3,,,,,,,,,,,,,,,2,,,45,0
482160,note_on,85,0,3,,,,,,,,,,,,,,,2,,,45,40
482160,note_on,240,0,1,,,,,,,,,,,,,,,0,,,77,56
482280,set_tempo,1320,1,0,,,,,,,472440,,,,,,,,,,,,
482315,note_off,155,0,3,,,,,,,,,,,,,,,2,,,45,0
482370,note_off,210,0,1,,,,,,,,,,,,,,,0,,,65,0
482400,note_on,0,0,1,,,,,,,,,,,,,,,0,,,77,60
482400,note_on,0,0,4,,,,,,,,,,,,,,,3,,,37,48
482400,note_off,1440,0,4,,,,,,,,,,,,,,,3,,,37,0
482400,set_tempo,120,1,0,,,,,,,461538,,,,,,,,,,,,
482400,note_off,30,0,1,,,,,,,,,,,,,,,0,,,77,0
482400,note_off,4320,0,2,,,,,,,,,,,,,,,1,,,53,0
482400,note_on,0,0,2,,,,,,,,,,,,,,,1,,,65,57
482400,control_change,85,0,3,,,,,,,,,,,,,64,127,2,,,,
482640,note_on,240,0,3,,,,,,,,,,,,,,,2,,,41,40
482880,note_on,0,0,3,,,,,,,,,,,,,,,2,,,46,41
482880,note_off,240,0,3,,,,,,,,,,,,,,,2,,,41,0
483000,control_change,120,0,3,,,,,,,,,,,,,64,0,2,,,,
483035,note_off,35,0,3,,,,,,,,,,,,,,,2,,,46,0
483120,note_on,85,0,3,,,,,,,,,,,,,,,2,,,46,41
483275,note_off,155,0,3,,,,,,,,,,,,,,,2,,,46,0
483360,note_on,85,0,3,,,,,,,,,,,,,,,2,,,46,41
483515,note_off,155,0,3,,,,,,,,,,,,,,,2,,,46,0
483600,note_on,0,0,1,,,,,,,,,,,,,,,0,,,75,62
483600,note_off,1200,0,1,,,,,,,,,,,,,,,0,,,77,0
483600,note_on,0,0,2,,,,,,,,,,,,,,,1,,,63,59
483600,note_off,1200,0,2,,,,,,,,,,,,,,,1,,,65,0
483600,note_on,85,0,3,,,,,,,,,,,,,,,2,,,46,42
483755,note_off,155,0,3,,,,,,,,,,,,,,,2,,,46,0
483780,set_tempo,1380,1,0,,,,,,,465116,,,,,,,,,,,,
483840,note_on,0,0,1,,,,,,,,,,,,,,,0,,,75,62
483840,note_off,240,0,1,,,,,,,,,,,,,,,0,,,75,0
483840,note_off,1440,0,4,,,,,,,,,,,,,,,3,,,37,0
483840,note_off,240,0,2,,,,,,,,,,,,,,,1,,,63,0
483840,control_change,85,0,3,,,,,,,,,,,,,64,127,2,,,,
483840,note_on,0,0,2,,,,,,,,,,,,,,,1,,,63,59
483840,note_on,0,0,4,,,,,,,,,,,,,,,3,,,37,50
483840,set_tempo,60,1,0,,,,,,,461538,,,,,,,,,,,,
484080,note_on,240,0,3,,,,,,,,,,,,,,,2,,,41,42
484320,note_on,0,0,1,,,,,,,,,,,,,,,0,,,73,63
484320,note_off,240,0,3,,,,,,,,,,,,,,,2,,,41,0
484320,note_on,0,0,3,,,,,,,,,,,,,,,2,,,46,43
484320,note_on,0,0,2,,,,,,,,,,,,,,,1,,,61,60
484320,note_off,480,0,2,,,,,,,,,,,,,,,1,,,63,0
484320,note_off,480,0,1,,,,,,,,,,,,,,,0,,,75,0
484440,control_change,120,0,3,,,,,,,,,,,,,64,0,2,,,,
484475,note_off,35,0,3,,,,,,,,,,,,,,,2,,,46,0
484560,note_on,85,0,3,,,,,,,,,,,,,,,2,,,46,43
484715,note_off,155,0,3,,,,,,,,,,,,,,,2,,,46,0
484800,note_on,85,0,3,,,,,,,,,,,,,,,2,,,46,43
484955,note_off,155,0,3,,,,,,,,,,,,,,,2,,,46,0
485040,note_off,720,0,2,,,,,,,,,,,,,,,1,,,61,0
485040,note_on,0,0,2,,,,,,,,,,,,,,,1,,,60,61
485040,note_on,720,0,1,,,,,,,,,,,,,,,0,,,72,64
485040,note_on,85,0,3,,,,,,,,,,,,,,,2,,,46,43
485045,note_off,5,0,1,,,,,,,,,,,,,,,0,,,73,0
485195,note_off,155,0,3,,,,,,,,,,,,,,,2,,,46,0
485220,set_tempo,1380,1,0,,,,,,,465116,,,,,,,,,,,,
485280,note_off,235,0,1,,,,,,,,,,,,,,,0,,,72,0
485280,control_change,85,0,3,,,,,,,,,,,,,64,127,2,,,,
485280,note_off,1440,0,4,,,,,,,,,,,,,,,3,,,37,0
485280,note_on,0,0,4,,,,,,,,,,,,,,,3,,,38,52
485280,note_on,0,0,2,,,,,,,,,,,,,,,1,,,60,62
485280,note_off,240,0,2,,,,,,,,,,,,,,,1,,,60,0
485280,set_tempo,60,1,0,,,,,,,461538,,,,,,,,,,,,
485280,note_on,0,0,1,,,,,,,,,,,,,,,0,,,72,65
485520,note_on,240,0,3,,,,,,,,,,,,,,,2,,,41,44
485760,note_on,0,0,1,,,,,,,,,,,,,,,0,,,70,66
485760,note_off,240,0,3,,,,,,,,,,,,,,,2,,,41,0
485760,note_on,0,0,3,,,,,,,,,,,,,,,2,,,46,44
485760,note_off,480,0,2,,,,,,,,,,,,,,,1,,,60,0
485760,note_on,0,0,2,,,,,,,,,,,,,,,1,,,58,63
485760,note_off,480,0,1,,,,,,,,,,,,,,,0,,,72,0
485880,control_change,120,0,3,,,,,,,,,,,,,64,0,2,,,,
485915,note_off,35,0,3,,,,,,,,,,,,,,,2,,,46,0
486000,note_on,85,0,3,,,,,,,,,,,,,,,2,,,46,45
486155,note_off,155,0,3,,,,,,,,,,,,,,,2,,,46,0
486240,note_on,85,0,3,,,,,,,,,,,,,,,2,,,46,45
486395,note_off,155,0,3,,,,,,,,,,,,,,,2,,,46,0
486480,note_off,720,0,2,,,,,,,,,,,,,,,1,,,58,0
486480,note_on,0,0,2,,,,,,,,,,,,,,,1,,,56,64
486480,note_on,0,0,1,,,,,,,,,,,,,,,0,,,68,67
486480,note_off,720,0,1,,,,,,,,,,,,,,,0,,,70,0
486480,note_on,85,0,3,,,,,,,,,,,,,,,2,,,46,45
486600,set_tempo,1320,1,0,,,,,,,465116,,,,,,,,,,,,
486635,note_off,155,0,3,,,,,,,,,,,,,,,2,,,46,0
486720,control_change,85,0,3,,,,,,,,,,,,,64,127,2,,,,
486720,note_on,0,0,1,,,,,,,,,,,,,,,0,,,67,67
486720,note_off,240,0,1,,,,,,,,,,,,,,,0,,,68,0
486720,note_off,240,0,2,,,,,,,,,,,,,,,1,,,56,0
486720,note_on,0,0,4,,,,,,,,,,,,,,,3,,,39,54
486720,note_on,0,0,2,,,,,,,,,,,,,,,1,,,55,64
486720,note_off,1440,0,4,,,,,,,,,,,,,,,3,,,38,0
486720,set_tempo,120,1,0,,,,,,,461538,,,,,,,,,,,,
486960,note_on,240,0,3,,,,,,,,,,,,,,,2,,,46,46
487200,note_off,240,0,3,,,,,,,,,,,,,,,2,,,46,0
487200,note_on,0,0,3,,,,,,,,,,,,,,,2,,,49,46
487320,control_change,120,0,3,,,,,,,,,,,,,64,0,2,,,,
487355,note_off,35,0,3,,,,,,,,,,,,,,,2,,,49,0
487440,note_on,85,0,3,,,,,,,,,,,,,,,2,,,49,47
487595,note_off,155,0,3,,,,,,,,,,,,,,,2,,,49,0
487680,note_on,85,0,3,,,,,,,,,,,,,,,2,,,49,47
487835,note_off,155,0,3,,,,,,,,,,,,,,,2,,,49,0
487920,note_on,85,0,3,,,,,,,,,,,,,,,2,,,49,47
488075,note_off,155,0,3,,,,,,,,,,,,,,,2,,,49,0
488100,set_tempo,1380,1,0,,,,,,,465116,,,,,,,,,,,,
488160,note_on,0,0,2,,,,,,,,,,,,,,,1,,,67,67
488160,control_change,85,0,3,,,,,,,,,,,,,64,127,2,,,,
488160,note_off,1440,0,1,,,,,,,,,,,,,,,0,,,67,0
488160,note_on,0,0,1,,,,,,,,,,,,,,,0,,,73,70
488160,note_on,0,0,4,,,,,,,,,,,,,,,3,,,40,56
488160,note_off,1440,0,2,,,,,,,,,,,,,,,1,,,55,0
488160,note_on,0,0,2,,,,,,,,,,,,,,,1,,,61,67
488160,set_tempo,60,1,0,,,,,,,461538,,,,,,,,,,,,
488160,note_off,1440,0,4,,,,,,,,,,,,,,,3,,,39,0
488400,note_on,240,0,3,,,,,,,,,,,,,,,2,,,46,48
488640,note_on,0,0,3,,,,,,,,,,,,,,,2,,,52,48
488640,note_off,240,0,3,,,,,,,,,,,,,,,2,,,46,0
488760,control_change,120,0,3,,,,,,,,,,,,,64,0,2,,,,
488795,note_off,35,0,3,,,,,,,,,,,,,,,2,,,52,0
488880,note_on,85,0,3,,,,,,,,,,,,,,,2,,,52,48
489035,note_off,155,0,3,,,,,,,,,,,,,,,2,,,52,0
489120,note_on,85,0,3,,,,,,,,,,,,,,,2,,,52,49
489275,note_off,155,0,3,,,,,,,,,,,,,,,2,,,52,0
489360,note_on,85,0,3,,,,,,,,,,,,,,,2,,,52,49
489515,note_off,155,0,3,,,,,,,,,,,,,,,2,,,52,0
489540,set_tempo,1380,1,0,,,,,,,465116,,,,,,,,,,,,
489600,control_change,85,0,3,,,,,,,,,,,,,64,127,2,,,,
489600,set_tempo,60,1,0,,,,,,,461538,,,,,,,,,,,,
489600,note_off,1440,0,4,,,,,,,,,,,,,,,3,,,40,0
489600,note_on,0,0,4,,,,,,,,,,,,,,,3,,,41,55
489600,note_on,0,0,1,,,,,,,,,,,,,,,0,,,72,73
489600,note_off,1440,0,1,,,,,,,,,,,,,,,0,,,73,0
489600,note_on,0,0,2,,,,,,,,,,,,,,,1,,,68,69
489600,note_on,0,0,2,,,,,,,,,,,,,,,1,,,60,69
489600,note_off,0,0,2,,,,,,,,,,,,,,,1,,,67,0
489600,note_off,1440,0,2,,,,,,,,,,,,,,,1,,,61,0
489840,note_on,240,0,3,,,,,,,,,,,,,,,2,,,44,49
490080,note_off,240,0,3,,,,,,,,,,,,,,,2,,,44,0
490080,note_on,0,0,3,,,,,,,,,,,,,,,2,,,53,49
490200,control_change,120,0,3,,,,,,,,,,,,,64,0,2,,,,
490235,note_off,35,0,3,,,,,,,,,,,,,,,2,,,53,0
490320,note_on,85,0,3,,,,,,,,,,,,,,,2,,,53,48
490475,note_off,155,0,3,,,,,,,,,,,,,,,2,,,53,0
490560,note_on,85,0,3,,,,,,,,,,,,,,,2,,,53,47
490715,note_off,155,0,3,,,,,,,,,,,,,,,2,,,53,0
490800,note_on,85,0,3,,,,,,,,,,,,,,,2,,,53,47
490920,set_tempo,1320,1,0,,,,,,,465116,,,,,,,,,,,,
490955,note_off,155,0,3,,,,,,,,,,,,,,,2,,,53,0
491040,control_change,85,0,3,,,,,,,,,,,,,64,127,2,,,,
491040,note_on,0,0,2,,,,,,,,,,,,,,,1,,,58,65
491040,note_off,1440,0,1,,,,,,,,,,,,,,,0,,,72,0
491040,note_off,0,0,2,,,,,,,,,,,,,,,1,,,68,0
491040,note_on,0,0,2,,,,,,,,,,,,,,,1,,,61,65
491040,set_tempo,120,1,0,,,,,,,461538,,,,,,,,,,,,
491040,note_on,0,0,1,,,,,,,,,,,,,,,0,,,70,68
491040,note_off,1440,0,4,,,,,,,,,,,,,,,3,,,41,0
491040,note_on,0,0,4,,,,,,,,,,,,,,,3,,,37,49
491040,note_off,1440,0,2,,,,,,,,,,,,,,,1,,,60,0
491280,note_on,240,0,3,,,,,,,,,,,,,,,2,,,49,45
491520,note_on,0,0,3,,,,,,,,,,,,,,,2,,,53,44
491520,note_off,240,0,3,,,,,,,,,,,,,,,2,,,49,0
491640,control_change,120,0,3,,,,,,,,,,,,,64,0,2,,,,
491675,note_off,35,0,3,,,,,,,,,,,,,,,2,,,53,0
491760,note_on,85,0,3,,,,,,,,,,,,,,,2,,,53,44
491915,note_off,155,0,3,,,,,,,,,,,,,,,2,,,53,0
492000,note_on,85,0,3,,,,,,,,,,,,,,,2,,,53,43
492155,note_off,155,0,3,,,,,,,,,,,,,,,2,,,53,0
492240,note_on,85,0,3,,,,,,,,,,,,,,,2,,,53,42
492395,note_off,155,0,3,,,,,,,,,,,,,,,2,,,53,0
492420,set_tempo,1380,1,0,,,,,,,465116,,,,,,,,,,,,
492480,note_off,0,0,2,,,,,,,,,,,,,,,1,,,61,0
492480,note_on,0,0,4,,,,,,,,,,,,,,,3,,,39,46
492480,note_off,1440,0,4,,,,,,,,,,,,,,,3,,,37,0
492480,note_on,0,0,2,,,,,,,,,,,,,,,1,,,60,61
492480,note_on,0,0,2,,,,,,,,,,,,,,,1,,,56,61
492480,set_tempo,60,1,0,,,,,,,461538,,,,,,,,,,,,
492480,note_on,0,0,1,,,,,,,,,,,,,,,0,,,68,64
492480,note_off,1440,0,1,,,,,,,,,,,,,,,0,,,70,0
492480,control_change,85,0,3,,,,,,,,,,,,,64,127,2,,,,
492480,note_off,1440,0,2,,,,,,,,,,,,,,,1,,,58,0
492720,note_on,240,0,3,,,,,,,,,,,,,,,2,,,48,41
492960,note_off,240,0,3,,,,,,,,,,,,,,,2,,,48,0
492960,note_on,0,0,3,,,,,,,,,,,,,,,2,,,51,40
493080,control_change,120,0,3,,,,,,,,,,,,,64,0,2,,,,
493115,note_off,35,0,3,,,,,,,,,,,,,,,2,,,51,0
493200,note_on,85,0,3,,,,,,,,,,,,,,,2,,,51,39
493355,note_off,155,0,3,,,,,,,,,,,,,,,2,,,51,0
493440,note_on,85,0,3,,,,,,,,,,,,,,,2,,,51,39
493595,note_off,155,0,3,,,,,,,,,,,,,,,2,,,51,0
493680,note_on,85,0,3,,,,,,,,,,,,,,,2,,,51,38
493835,note_off,155,0,3,,,,,,,,,,,,,,,2,,,51,0
493860,set_tempo,1380,1,0,,,,,,,465116,,,,,,,,,,,,
493920,note_on,0,0,2,,,,,,,,,,,,,,,1,,,55,57
493920,note_off,1440,0,2,,,,,,,,,,,,,,,1,,,60,0
493920,note_off,0,0,2,,,,,,,,,,,,,,,1,,,56,0
493920,note_on,0,0,2,,,,,,,,,,,,,,,1,,,61,57
493920,note_on,0,0,2,,,,,,,,,,,,,,,1,,,58,57
493920,note_on,0,0,4,,,,,,,,,,,,,,,3,,,39,47
493920,control_change,85,0,3,,,,,,,,,,,,,64,127,2,,,,
493920,note_off,1440,0,1,,,,,,,,,,,,,,,0,,,68,0
493920,note_on,0,0,1,,,,,,,,,,,,,,,0,,,63,61
493920,note_off,1440,0,4,,,,,,,,,,,,,,,3,,,39,0
494160,note_on,240,0,3,,,,,,,,,,,,,,,2,,,46,37
494400,note_off,240,0,3,,,,,,,,,,,,,,,2,,,46,0
494400,note_on,0,0,3,,,,,,,,,,,,,,,2,,,49,36
494520,control_change,120,0,3,,,,,,,,,,,,,64,0,2,,,,
494555,note_off,35,0,3,,,,,,,,,,,,,,,2,,,49,0
494640,note_on,85,0,3,,,,,,,,,,,,,,,2,,,49,35
494795,note_off,155,0,3,,,,,,,,,,,,,,,2,,,49,0
494880,note_on,85,0,3,,,,,,,,,,,,,,,2,,,49,35
494985,set_tempo,1125,1,0,,,,,,,480000,,,,,,,,,,,,
495035,note_off,155,0,3,,,,,,,,,,,,,,,2,,,49,0
495120,note_on,85,0,3,,,,,,,,,,,,,,,2,,,49,34
495120,set_tempo,135,1,0,,,,,,,535714,,,,,,,,,,,,
495275,note_off,155,0,3,,,,,,,,,,,,,,,2,,,49,0
495360,note_on,0,0,1,,,,,,,,,,,,,,,0,,,63,57
495360,note_off,1440,0,1,,,,,,,,,,,,,,,0,,,63,0
495360,note_on,0,0,4,,,,,,,,,,,,,,,3,,,44,71
495360,note_off,0,0,2,,,,,,,,,,,,,,,1,,,55,0
495360,note_off,1440,0,2,,,,,,,,,,,,,,,1,,,61,0
495360,control_change,1440,0,4,,,,,,,,,,,,,64,127,3,,,,
495360,note_on,0,0,2,,,,,,,,,,,,,,,1,,,60,53
495360,note_on,0,0,2,,,,,,,,,,,,,,,1,,,56,53
495360,note_off,0,0,2,,,,,,,,,,,,,,,1,,,58,0
495360,note_on,0,0,4,,,,,,,,,,,,,,,3,,,32,71
495360,note_off,0,0,4,,,,,,,,,,,,,,,3,,,39,0
495465,set_tempo,345,1,0,,,,,,,461538,,,,,,,,,,,,
495515,note_off,155,0,1,,,,,,,,,,,,,,,0,,,63,0
495600,note_on,325,0,3,,,,,,,,,,,,,,,2,,,60,49
495600,note_on,0,0,3,,,,,,,,,,,,,,,2,,,56,49
495600,note_on,0,0,3,,,,,,,,,,,,,,,2,,,63,49
495755,note_off,155,0,3,,,,,,,,,,,,,,,2,,,60,0
495755,note_off,0,0,3,,,,,,,,,,,,,,,2,,,63,0
495755,note_off,0,0,3,,,,,,,,,,,,,,,2,,,56,0
495840,note_on,85,0,3,,,,,,,,,,,,,,,2,,,60,36
495840,note_on,0,0,3,,,,,,,,,,,,,,,2,,,63,36
495840,note_on,0,0,3,,,,,,,,,,,,,,,2,,,56,36
495995,note_off,155,0,3,,,,,,,,,,,,,,,2,,,60,0
495995,note_off,0,0,3,,,,,,,,,,,,,,,2,,,56,0
495995,note_off,0,0,3,,,,,,,,,,,,,,,2,,,63,0
496080,note_on,0,0,3,,,,,,,,,,,,,,,2,,,56,30
496080,note_on,85,0,3,,,,,,,,,,,,,,,2,,,60,30
496080,note_on,0,0,3,,,,,,,,,,,,,,,2,,,63,30
496235,note_off,0,0,3,,,,,,,,,,,,,,,2,,,56,0
496235,note_off,0,0,3,,,,,,,,,,,,,,,2,,,63,0
496235,note_off,155,0,3,,,,,,,,,,,,,,,2,,,60,0
496320,note_on,0,0,3,,,,,,,,,,,,,,,2,,,56,30
496320,note_off,960,0,4,,,,,,,,,,,,,,,3,,,32,0
496320,note_on,0,0,3,,,,,,,,,,,,,,,2,,,63,30
496320,note_off,0,0,4,,,,,,,,,,,,,,,3,,,44,0
496320,note_on,85,0,3,,,,,,,,,,,,,,,2,,,60,30
496475,note_off,0,0,3,,,,,,,,,,,,,,,2,,,56,0
496475,note_off,0,0,3,,,,,,,,,,,,,,,2,,,63,0
496475,note_off,155,0,3,,,,,,,,,,,,,,,2,,,60,0
496560,note_on,0,0,3,,,,,,,,,,,,,,,2,,,63,30
496560,note_on,0,0,3,,,,,,,,,,,,,,,2,,,56,30
496560,note_on,85,0,3,,,,,,,,,,,,,,,2,,,60,30
496715,note_off,155,0,3,,,,,,,,,,,,,,,2,,,60,0
496715,note_off,0,0,3,,,,,,,,,,,,,,,2,,,63,0
496715,note_off,0,0,3,,,,,,,,,,,,,,,2,,,56,0
496800,note_on,0,0,3,,,,,,,,,,,,,,,2,,,63,30
496800,note_on,0,0,3,,,,,,,,,,,,,,,2,,,56,30
496800,note_on,85,0,3,,,,,,,,,,,,,,,2,,,60,30
496955,note_off,0,0,3,,,,,,,,,,,,,,,2,,,56,0
496955,note_off,155,0,3,,,,,,,,,,,,,,,2,,,60,0
496955,note_off,0,0,3,,,,,,,,,,,,,,,2,,,63,0
497040,note_on,85,0,3,,,,,,,,,,,,,,,2,,,60,30
497040,note_on,0,0,3,,,,,,,,,,,,,,,2,,,63,30
497040,note_on,0,0,3,,,,,,,,,,,,,,,2,,,56,30
497195,note_off,155,0,3,,,,,,,,,,,,,,,2,,,60,0
497195,note_off,0,0,3,,,,,,,,,,,,,,,2,,,56,0
497195,note_off,0,0,3,,,,,,,,,,,,,,,2,,,63,0
497280,note_on,0,0,3,,,,,,,,,,,,,,,2,,,63,31
497280,note_on,0,0,3,,,,,,,,,,,,,,,2,,,56,31
497280,note_on,85,0,3,,,,,,,,,,,,,,,2,,,60,31
497435,note_off,155,0,3,,,,,,,,,,,,,,,2,,,60,0
497435,note_off,0,0,3,,,,,,,,,,,,,,,2,,,56,0
497435,note_off,0,0,3,,,,,,,,,,,,,,,2,,,63,0
497520,note_on,0,0,3,,,,,,,,,,,,,,,2,,,56,31
497520,note_on,0,0,3,,,,,,,,,,,,,,,2,,,63,31
497520,note_on,85,0,3,,,,,,,,,,,,,,,2,,,60,31
497675,note_off,0,0,3,,,,,,,,,,,,,,,2,,,63,0
497675,note_off,155,0,3,,,,,,,,,,,,,,,2,,,60,0
497675,note_off,0,0,3,,,,,,,,,,,,,,,2,,,56,0
497760,note_on,0,0,3,,,,,,,,,,,,,,,2,,,56,31
497760,note_on,0,0,3,,,,,,,,,,,,,,,2,,,63,31
497760,note_on,85,0,3,,,,,,,,,,,,,,,2,,,60,31
497915,note_off,155,0,3,,,,,,,,,,,,,,,2,,,60,0
497915,note_off,0,0,3,,,,,,,,,,,,,,,2,,,63,0
497915,note_off,0,0,3,,,,,,,,,,,,,,,2,,,56,0
498000,note_on,0,0,3,,,,,,,,,,,,,,,2,,,56,31
498000,note_on,85,0,3,,,,,,,,,,,,,,,2,,,60,31
498000,note_on,0,0,3,,,,,,,,,,,,,,,2,,,63,31
498155,note_off,0,0,3,,,,,,,,,,,,,,,2,,,63,0
498155,note_off,0,0,3,,,,,,,,,,,,,,,2,,,56,0
498155,note_off,155,0,3,,,,,,,,,,,,,,,2,,,60,0
498240,note_on,85,0,3,,,,,,,,,,,,,,,2,,,60,31
498240,note_on,0,0,3,,,,,,,,,,,,,,,2,,,63,31
498240,note_on,0,0,3,,,,,,,,,,,,,,,2,,,56,31
498395,note_off,155,0,3,,,,,,,,,,,,,,,2,,,60,0
498395,note_off,0,0,3,,,,,,,,,,,,,,,2,,,63,0
498395,note_off,0,0,3,,,,,,,,,,,,,,,2,,,56,0
498480,note_on,85,0,3,,,,,,,,,,,,,,,2,,,60,32
498480,note_on,0,0,3,,,,,,,,,,,,,,,2,,,63,32
498480,note_on,0,0,3,,,,,,,,,,,,,,,2,,,56,32
498635,note_off,0,0,3,,,,,,,,,,,,,,,2,,,56,0
498635,note_off,155,0,3,,,,,,,,,,,,,,,2,,,60,0
498635,note_off,0,0,3,,,,,,,,,,,,,,,2,,,63,0
498720,note_on,85,0,3,,,,,,,,,,,,,,,2,,,60,32
498720,note_on,0,0,3,,,,,,,,,,,,,,,2,,,63,32
498720,note_on,0,0,3,,,,,,,,,,,,,,,2,,,56,32
498875,note_off,155,0,3,,,,,,,,,,,,,,,2,,,60,0
498875,note_off,0,0,3,,,,,,,,,,,,,,,2,,,63,0
498875,note_off,0,0,3,,,,,,,,,,,,,,,2,,,56,0
498960,note_on,85,0,3,,,,,,,,,,,,,,,2,,,60,32
498960,note_on,0,0,3,,,,,,,,,,,,,,,2,,,63,32
498960,note_on,0,0,3,,,,,,,,,,,,,,,2,,,56,32
499115,note_off,155,0,3,,,,,,,,,,,,,,,2,,,60,0
499115,note_off,0,0,3,,,,,,,,,,,,,,,2,,,63,0
499115,note_off,0,0,3,,,,,,,,,,,,,,,2,,,56,0
499200,note_on,85,0,3,,,,,,,,,,,,,,,2,,,60,32
499200,note_on,0,0,3,,,,,,,,,,,,,,,2,,,56,32
499200,note_on,0,0,3,,,,,,,,,,,,,,,2,,,63,32
499355,note_off,155,0,3,,,,,,,,,,,,,,,2,,,60,0
499355,note_off,0,0,3,,,,,,,,,,,,,,,2,,,63,0
499355,note_off,0,0,3,,,,,,,,,,,,,,,2,,,56,0
499440,note_on,85,0,3,,,,,,,,,,,,,,,2,,,60,32
499440,note_on,0,0,3,,,,,,,,,,,,,,,2,,,63,32
499440,note_on,0,0,3,,,,,,,,,,,,,,,2,,,56,32
499450,set_tempo,3985,1,0,,,,,,,465116,,,,,,,,,,,,
499595,note_off,0,0,3,,,,,,,,,,,,,,,2,,,56,0
499595,note_off,155,0,3,,,,,,,,,,,,,,,2,,,60,0
499595,note_off,0,0,3,,,,,,,,,,,,,,,2,,,63,0
499600,note_on,4085,0,1,,,,,,,,,,,,,,,0,,,84,58
499640,note_on,40,0,1,,,,,,,,,,,,,,,0,,,85,60
499660,note_off,20,0,1,,,,,,,,,,,,,,,0,,,84,0
499680,note_on,20,0,1,,,,,,,,,,,,,,,0,,,87,68
499680,control_change,3360,0,4,,,,,,,,,,,,,64,0,3,,,,
499680,note_on,0,0,3,,,,,,,,,,,,,,,2,,,60,32
499680,note_on,0,0,3,,,,,,,,,,,,,,,2,,,63,32
499680,note_on,85,0,3,,,,,,,,,,,,,,,2,,,56,32
499700,note_off,20,0,1,,,,,,,,,,,,,,,0,,,85,0
499800,set_tempo,350,1,0,,,,,,,461538,,,,,,,,,,,,
499835,note_off,0,0,3,,,,,,,,,,,,,,,2,,,60,0
499835,note_off,155,0,3,,,,,,,,,,,,,,,2,,,56,0
499835,note_off,0,0,3,,,,,,,,,,,,,,,2,,,63,0
499870,note_off,170,0,1,,,,,,,,,,,,,,,0,,,87,0
499920,note_on,0,0,3,,,,,,,,,,,,,,,2,,,63,33
499920,note_on,50,0,1,,,,,,,,,,,,,,,0,,,85,57
499920,note_on,85,0,3,,,,,,,,,,,,,,,2,,,56,33
499920,note_on,0,0,3,,,,,,,,,,,,,,,2,,,60,33
500075,note_off,155,0,1,,,,,,,,,,,,,,,0,,,85,0
500075,note_off,155,0,3,,,,,,,,,,,,,,,2,,,56,0
500075,note_off,0,0,3,,,,,,,,,,,,,,,2,,,63,0
500075,note_off,0,0,3,,,,,,,,,,,,,,,2,,,60,0
500160,note_on,85,0,1,,,,,,,,,,,,,,,0,,,84,57
500160,note_on,85,0,3,,,,,,,,,,,,,,,2,,,56,33
500160,note_on,0,0,3,,,,,,,,,,,,,,,2,,,63,33
500160,note_on,0,0,3,,,,,,,,,,,,,,,2,,,60,33
500310,note_off,4950,0,2,,,,,,,,,,,,,,,1,,,60,0
500315,note_off,155,0,3,,,,,,,,,,,,,,,2,,,56,0
500315,note_off,0,0,3,,,,,,,,,,,,,,,2,,,63,0
500315,note_off,0,0,3,,,,,,,,,,,,,,,2,,,60,0
500315,note_off,155,0,1,,,,,,,,,,,,,,,0,,,84,0
500395,note_off,85,0,2,,,,,,,,,,,,,,,1,,,56,0
500400,note_on,85,0,3,,,,,,,,,,,,,,,2,,,56,33
500400,note_on,0,0,3,,,,,,,,,,,,,,,2,,,63,33
500400,note_on,0,0,3,,,,,,,,,,,,,,,2,,,60,33
500400,note_on,85,0,1,,,,,,,,,,,,,,,0,,,82,58
500555,note_off,155,0,3,,,,,,,,,,,,,,,2,,,56,0
500555,note_off,0,0,3,,,,,,,,,,,,,,,2,,,63,0
500555,note_off,155,0,1,,,,,,,,,,,,,,,0,,,82,0
500555,note_off,0,0,3,,,,,,,,,,,,,,,2,,,60,0
500640,note_on,85,0,3,,,,,,,,,,,,,,,2,,,56,33
500640,note_on,0,0,3,,,,,,,,,,,,,,,2,,,60,33
500640,note_on,85,0,1,,,,,,,,,,,,,,,0,,,80,59
500640,note_on,0,0,3,,,,,,,,,,,,,,,2,,,63,33
500795,note_off,155,0,3,,,,,,,,,,,,,,,2,,,56,0
500795,note_off,0,0,3,,,,,,,,,,,,,,,2,,,63,0
500795,note_off,0,0,3,,,,,,,,,,,,,,,2,,,60,0
500795,note_off,155,0,1,,,,,,,,,,,,,,,0,,,80,0
500880,note_on,85,0,3,,,,,,,,,,,,,,,2,,,56,33
500880,note_on,0,0,3,,,,,,,,,,,,,,,2,,,63,33
500880,note_on,0,0,3,,,,,,,,,,,,,,,2,,,60,33
500880,note_on,85,0,1,,,,,,,,,,,,,,,0,,,79,59
501035,note_off,155,0,3,,,,,,,,,,,,,,,2,,,56,0
501035,note_off,0,0,3,,,,,,,,,,,,,,,2,,,60,0
501035,note_off,0,0,3,,,,,,,,,,,,,,,2,,,63,0
501035,note_off,155,0,1,,,,,,,,,,,,,,,0,,,79,0
501120,note_on,85,0,1,,,,,,,,,,,,,,,0,,,77,60
501120,note_on,85,0,3,,,,,,,,,,,,,,,2,,,63,33
501120,note_on,0,0,3,,,,,,,,,,,,,,,2,,,56,33
501120,note_on,0,0,3,,,,,,,,,,,,,,,2,,,60,33
501275,note_off,155,0,3,,,,,,,,,,,,,,,2,,,63,0
501275,note_off,155,0,1,,,,,,,,,,,,,,,0,,,77,0
501275,note_off,0,0,3,,,,,,,,,,,,,,,2,,,60,0
501275,note_off,0,0,3,,,,,,,,,,,,,,,2,,,56,0
501360,note_on,85,0,1,,,,,,,,,,,,,,,0,,,75,61
501360,note_on,0,0,3,,,,,,,,,,,,,,,2,,,60,34
501360,note_on,0,0,3,,,,,,,,,,,,,,,2,,,63,34
501360,note_on,85,0,3,,,,,,,,,,,,,,,2,,,56,34
501515,note_off,155,0,1,,,,,,,,,,,,,,,0,,,75,0
501515,note_off,0,0,3,,,,,,,,,,,,,,,2,,,63,0
501515,note_off,155,0,3,,,,,,,,,,,,,,,2,,,56,0
501515,note_off,0,0,3,,,,,,,,,,,,,,,2,,,60,0
501600,note_on,85,0,3,,,,,,,,,,,,,,,2,,,56,34
501600,note_on,0,0,3,,,,,,,,,,,,,,,2,,,63,34
501600,note_on,0,0,3,,,,,,,,,,,,,,,2,,,60,34
501600,note_on,85,0,1,,,,,,,,,,,,,,,0,,,73,61
501755,note_off,155,0,3,,,,,,,,,,,,,,,2,,,56,0
501755,note_off,155,0,1,,,,,,,,,,,,,,,0,,,73,0
501755,note_off,0,0,3,,,,,,,,,,,,,,,2,,,60,0
501755,note_off,0,0,3,,,,,,,,,,,,,,,2,,,63,0
501840,note_on,85,0,3,,,,,,,,,,,,,,,2,,,56,34
501840,note_on,0,0,3,,,,,,,,,,,,,,,2,,,63,34
501840,note_on,0,0,3,,,,,,,,,,,,,,,2,,,60,34
501840,note_on,85,0,1,,,,,,,,,,,,,,,0,,,72,62
501995,note_off,0,0,3,,,,,,,,,,,,,,,2,,,60,0
501995,note_off,0,0,3,,,,,,,,,,,,,,,2,,,63,0
501995,note_off,155,0,3,,,,,,,,,,,,,,,2,,,56,0
501995,note_off,155,0,1,,,,,,,,,,,,,,,0,,,72,0
502080,note_on,85,0,1,,,,,,,,,,,,,,,0,,,70,63
502080,note_on,0,0,3,,,,,,,,,,,,,,,2,,,60,34
502080,note_on,0,0,3,,,,,,,,,,,,,,,2,,,56,34
502080,note_on,85,0,3,,,,,,,,,,,,,,,2,,,63,34
502235,note_off,155,0,3,,,,,,,,,,,,,,,2,,,63,0
502235,note_off,0,0,3,,,,,,,,,,,,,,,2,,,56,0
502235,note_off,155,0,1,,,,,,,,,,,,,,,0,,,70,0
502235,note_off,0,0,3,,,,,,,,,,,,,,,2,,,60,0
502320,note_on,85,0,1,,,,,,,,,,,,,,,0,,,68,63
502320,note_on,85,0,3,,,,,,,,,,,,,,,2,,,56,34
502320,note_on,0,0,3,,,,,,,,,,,,,,,2,,,63,34
502320,note_on,0,0,3,,,,,,,,,,,,,,,2,,,60,34
502475,note_off,0,0,3,,,,,,,,,,,,,,,2,,,63,0
502475,note_off,155,0,1,,,,,,,,,,,,,,,0,,,68,0
502475,note_off,155,0,3,,,,,,,,,,,,,,,2,,,56,0
502475,note_off,0,0,3,,,,,,,,,,,,,,,2,,,60,0
502560,note_on,85,0,3,,,,,,,,,,,,,,,2,,,56,35
502560,note_on,0,0,3,,,,,,,,,,,,,,,2,,,63,35
502560,note_on,85,0,1,,,,,,,,,,,,,,,0,,,67,64
502560,note_on,0,0,3,,,,,,,,,,,,,,,2,,,60,35
502715,note_off,155,0,3,,,,,,,,,,,,,,,2,,,56,0
502715,note_off,0,0,3,,,,,,,,,,,,,,,2,,,60,0
502715,note_off,0,0,3,,,,,,,,,,,,,,,2,,,63,0
502715,note_off,155,0,1,,,,,,,,,,,,,,,0,,,67,0
502800,note_on,85,0,3,,,,,,,,,,,,,,,2,,,63,35
502800,note_on,0,0,3,,,,,,,,,,,,,,,2,,,60,35
502800,note_on,85,0,1,,,,,,,,,,,,,,,0,,,68,65
502800,note_on,0,0,3,,,,,,,,,,,,,,,2,,,56,35
502955,note_off,155,0,1,,,,,,,,,,,,,,,0,,,68,0
502955,note_off,155,0,3,,,,,,,,,,,,,,,2,,,63,0
502955,note_off,0,0,3,,,,,,,,,,,,,,,2,,,60,0
502955,note_off,0,0,3,,,,,,,,,,,,,,,2,,,56,0
503040,note_on,0,0,3,,,,,,,,,,,,,,,2,,,60,35
503040,note_on,85,0,3,,,,,,,,,,,,,,,2,,,56,35
503040,note_on,0,0,3,,,,,,,,,,,,,,,2,,,63,35
503040,note_on,85,0,1,,,,,,,,,,,,,,,0,,,70,67
503195,note_off,155,0,3,,,,,,,,,,,,,,,2,,,56,0
503195,note_off,0,0,3,,,,,,,,,,,,,,,2,,,60,0
503195,note_off,0,0,3,,,,,,,,,,,,,,,2,,,63,0
503195,note_off,155,0,1,,,,,,,,,,,,,,,0,,,70,0
503280,note_on,85,0,3,,,,,,,,,,,,,,,2,,,56,35
503280,note_on,0,0,3,,,,,,,,,,,,,,,2,,,60,35
503280,note_on,0,0,3,,,,,,,,,,,,,,,2,,,63,35
503280,note_on,85,0,1,,,,,,,,,,,,,,,0,,,68,68
503435,note_off,0,0,3,,,,,,,,,,,,,,,2,,,60,0
503435,note_off,0,0,3,,,,,,,,,,,,,,,2,,,63,0
503435,note_off,155,0,3,,,,,,,,,,,,,,,2,,,56,0
503435,note_off,155,0,1,,,,,,,,,,,,,,,0,,,68,0
503520,note_on,0,0,3,,,,,,,,,,,,,,,2,,,60,35
503520,note_on,0,0,3,,,,,,,,,,,,,,,2,,,56,35
503520,note_on,85,0,3,,,,,,,,,,,,,,,2,,,63,35
503520,note_on,85,0,1,,,,,,,,,,,,,,,0,,,72,69
503675,note_off,155,0,1,,,,,,,,,,,,,,,0,,,72,0
503675,note_off,0,0,3,,,,,,,,,,,,,,,2,,,56,0
503675,note_off,155,0,3,,,,,,,,,,,,,,,2,,,63,0
503675,note_off,0,0,3,,,,,,,,,,,,,,,2,,,60,0
503760,note_on,85,0,3,,,,,,,,,,,,,,,2,,,63,35
503760,note_on,0,0,3,,,,,,,,,,,,,,,2,,,60,35
503760,note_on,0,0,3,,,,,,,,,,,,,,,2,,,56,35
503760,note_on,85,0,1,,,,,,,,,,,,,,,0,,,68,74
503775,set_tempo,3975,1,0,,,,,,,465116,,,,,,,,,,,,
503915,note_off,155,0,1,,,,,,,,,,,,,,,0,,,68,0
503915,note_off,0,0,3,,,,,,,,,,,,,,,2,,,60,0
503915,note_off,155,0,3,,,,,,,,,,,,,,,2,,,63,0
503915,note_off,0,0,3,,,,,,,,,,,,,,,2,,,56,0
504000,note_on,0,0,1,,,,,,,,,,,,,,,0,,,67,80
504000,note_on,4320,0,4,,,,,,,,,,,,,,,3,,,46,49
504000,note_on,0,0,3,,,,,,,,,,,,,,,2,,,61,69
504000,note_on,0,0,3,,,,,,,,,,,,,,,2,,,63,69
504000,control_change,0,0,4,,,,,,,,,,,,,64,127,3,,,,
504000,note_on,85,0,3,,,,,,,,,,,,,,,2,,,58,69
504000,note_on,0,0,4,,,,,,,,,,,,,,,3,,,36,49
504000,control_change,85,0,1,,,,,,,,,,,,,64,127,0,,,,
504110,set_tempo,335,1,0,,,,,,,461538,,,,,,,,,,,,
504190,note_off,0,0,3,,,,,,,,,,,,,,,2,,,61,0
504190,note_off,0,0,3,,,,,,,,,,,,,,,2,,,63,0
504190,note_off,190,0,3,,,,,,,,,,,,,,,2,,,58,0
504190,note_off,0,0,4,,,,,,,,,,,,,,,3,,,36,0
504190,note_off,190,0,4,,,,,,,,,,,,,,,3,,,46,0
504240,note_off,240,0,1,,,,,,,,,,,,,,,0,,,67,0
504240,note_on,50,0,3,,,,,,,,,,,,,,,2,,,61,46
504240,note_on,0,0,3,,,,,,,,,,,,,,,2,,,63,46
504240,note_on,0,0,3,,,,,,,,,,,,,,,2,,,58,46
504395,note_off,155,0,3,,,,,,,,,,,,,,,2,,,61,0
504395,note_off,0,0,3,,,,,,,,,,,,,,,2,,,63,0
504395,note_off,0,0,3,,,,,,,,,,,,,,,2,,,58,0
504480,note_on,0,0,3,,,,,,,,,,,,,,,2,,,61,36
504480,note_on,0,0,3,,,,,,,,,,,,,,,2,,,58,36
504480,note_on,85,0,3,,,,,,,,,,,,,,,2,,,63,36
504635,note_off,155,0,3,,,,,,,,,,,,,,,2,,,63,0
504635,note_off,0,0,3,,,,,,,,,,,,,,,2,,,61,0
504635,note_off,0,0,3,,,,,,,,,,,,,,,2,,,58,0
504720,note_on,85,0,3,,,,,,,,,,,,,,,2,,,61,36
504720,note_on,0,0,3,,,,,,,,,,,,,,,2,,,63,36
504720,note_on,0,0,3,,,,,,,,,,,,,,,2,,,58,36
504875,note_off,0,0,3,,,,,,,,,,,,,,,2,,,63,0
504875,note_off,155,0,3,,,,,,,,,,,,,,,2,,,61,0
504875,note_off,0,0,3,,,,,,,,,,,,,,,2,,,58,0
504960,note_on,0,0,3,,,,,,,,,,,,,,,2,,,58,36
504960,note_on,85,0,3,,,,,,,,,,,,,,,2,,,63,36
504960,note_on,0,0,3,,,,,,,,,,,,,,,2,,,61,36
505115,note_off,0,0,3,,,,,,,,,,,,,,,2,,,61,0
505115,note_off,155,0,3,,,,,,,,,,,,,,,2,,,63,0
505115,note_off,0,0,3,,,,,,,,,,,,,,,2,,,58,0
505200,note_on,0,0,3,,,,,,,,,,,,,,,2,,,61,37
505200,note_on,0,0,3,,,,,,,,,,,,,,,2,,,58,37
505200,note_on,85,0,3,,,,,,,,,,,,,,,2,,,63,37
505355,note_off,155,0,3,,,,,,,,,,,,,,,2,,,63,0
505355,note_off,0,0,3,,,,,,,,,,,,,,,2,,,58,0
505355,note_off,0,0,3,,,,,,,,,,,,,,,2,,,61,0
505440,note_on,85,0,3,,,,,,,,,,,,,,,2,,,61,37
505440,note_on,0,0,3,,,,,,,,,,,,,,,2,,,63,37
505440,note_on,0,0,3,,,,,,,,,,,,,,,2,,,58,37
505595,note_off,0,0,3,,,,,,,,,,,,,,,2,,,63,0
505595,note_off,155,0,3,,,,,,,,,,,,,,,2,,,61,0
505595,note_off,0,0,3,,,,,,,,,,,,,,,2,,,58,0
505680,note_on,0,0,3,,,,,,,,,,,,,,,2,,,58,37
505680,note_on,85,0,3,,,,,,,,,,,,,,,2,,,61,37
505680,note_on,0,0,3,,,,,,,,,,,,,,,2,,,63,37
505835,note_off,0,0,3,,,,,,,,,,,,,,,2,,,58,0
505835,note_off,0,0,3,,,,,,,,,,,,,,,2,,,63,0
505835,note_off,155,0,3,,,,,,,,,,,,,,,2,,,61,0
505920,note_on,0,0,3,,,,,,,,,,,,,,,2,,,61,37
505920,note_on,0,0,3,,,,,,,,,,,,,,,2,,,58,37
505920,note_on,85,0,3,,,,,,,,,,,,,,,2,,,63,37
506075,note_off,0,0,3,,,,,,,,,,,,,,,2,,,61,0
506075,note_off,155,0,3,,,,,,,,,,,,,,,2,,,63,0
506075,note_off,0,0,3,,,,,,,,,,,,,,,2,,,58,0
506160,note_on,0,0,3,,,,,,,,,,,,,,,2,,,58,38
506160,note_on,0,0,3,,,,,,,,,,,,,,,2,,,61,38
506160,note_on,85,0,3,,,,,,,,,,,,,,,2,,,63,38
506315,note_off,0,0,3,,,,,,,,,,,,,,,2,,,61,0
506315,note_off,155,0,3,,,,,,,,,,,,,,,2,,,63,0
506315,note_off,0,0,3,,,,,,,,,,,,,,,2,,,58,0
506400,note_on,85,0,3,,,,,,,,,,,,,,,2,,,63,38
506400,note_on,0,0,3,,,,,,,,,,,,,,,2,,,61,38
506400,note_on,0,0,3,,,,,,,,,,,,,,,2,,,58,38
506555,note_off,0,0,3,,,,,,,,,,,,,,,2,,,58,0
506555,note_off,155,0,3,,,,,,,,,,,,,,,2,,,63,0
506555,note_off,0,0,3,,,,,,,,,,,,,,,2,,,61,0
506640,note_on,85,0,3,,,,,,,,,,,,,,,2,,,61,38
506640,note_on,0,0,3,,,,,,,,,,,,,,,2,,,63,38
506640,note_on,0,0,3,,,,,,,,,,,,,,,2,,,58,38
506795,note_off,0,0,3,,,,,,,,,,,,,,,2,,,58,0
506795,note_off,0,0,3,,,,,,,,,,,,,,,2,,,63,0
506795,note_off,155,0,3,,,,,,,,,,,,,,,2,,,61,0
506880,note_on,0,0,3,,,,,,,,,,,,,,,2,,,58,39
506880,note_on,85,0,3,,,,,,,,,,,,,,,2,,,61,39
506880,note_on,0,0,3,,,,,,,,,,,,,,,2,,,63,39
507035,note_off,0,0,3,,,,,,,,,,,,,,,2,,,63,0
507035,note_off,0,0,3,,,,,,,,,,,,,,,2,,,58,0
507035,note_off,155,0,3,,,,,,,,,,,,,,,2,,,61,0
507120,note_on,85,0,3,,,,,,,,,,,,,,,2,,,63,39
507120,note_on,0,0,3,,,,,,,,,,,,,,,2,,,61,39
507120,note_on,0,0,3,,,,,,,,,,,,,,,2,,,58,39
507275,note_off,155,0,3,,,,,,,,,,,,,,,2,,,63,0
507275,note_off,0,0,3,,,,,,,,,,,,,,,2,,,61,0
507275,note_off,0,0,3,,,,,,,,,,,,,,,2,,,58,0
507360,note_on,0,0,3,,,,,,,,,,,,,,,2,,,63,39
507360,note_on,85,0,3,,,,,,,,,,,,,,,2,,,61,39
507360,note_on,0,0,3,,,,,,,,,,,,,,,2,,,58,39
507515,note_off,0,0,3,,,,,,,,,,,,,,,2,,,58,0
507515,note_off,155,0,3,,,,,,,,,,,,,,,2,,,61,0
507515,note_off,0,0,3,,,,,,,,,,,,,,,2,,,63,0
507600,note_on,0,0,3,,,,,,,,,,,,,,,2,,,63,39
507600,note_on,85,0,3,,,,,,,,,,,,,,,2,,,61,39
507600,note_on,0,0,3,,,,,,,,,,,,,,,2,,,58,39
507755,note_off,0,0,3,,,,,,,,,,,,,,,2,,,58,0
507755,note_off,0,0,3,,,,,,,,,,,,,,,2,,,63,0
507755,note_off,155,0,3,,,,,,,,,,,,,,,2,,,61,0
507840,note_on,0,0,3,,,,,,,,,,,,,,,2,,,58,40
507840,note_on,85,0,3,,,,,,,,,,,,,,,2,,,61,40
507840,note_on,0,0,3,,,,,,,,,,,,,,,2,,,63,40
507995,note_off,155,0,3,,,,,,,,,,,,,,,2,,,61,0
507995,note_off,0,0,3,,,,,,,,,,,,,,,2,,,63,0
507995,note_off,0,0,3,,,,,,,,,,,,,,,2,,,58,0
508080,control_change,3890,0,4,,,,,,,,,,,,,64,0,3,,,,
508080,set_tempo,3970,1,0,,,,,,,465116,,,,,,,,,,,,
508080,note_on,85,0,3,,,,,,,,,,,,,,,2,,,61,40
508080,note_on,0,0,3,,,,,,,,,,,,,,,2,,,63,40
508080,note_on,0,0,3,,,,,,,,,,,,,,,2,,,58,40
508235,note_off,0,0,3,,,,,,,,,,,,,,,2,,,58,0
508235,note_off,0,0,3,,,,,,,,,,,,,,,2,,,63,0
508235,note_off,155,0,3,,,,,,,,,,,,,,,2,,,61,0
508240,note_on,160,0,4,,,,,,,,,,,,,,,3,,,55,58
508280,note_on,40,0,4,,,,,,,,,,,,,,,3,,,56,60
508300,note_off,20,0,4,,,,,,,,,,,,,,,3,,,55,0
508320,note_on,85,0,3,,,,,,,,,,,,,,,2,,,61,40
508320,note_on,0,0,3,,,,,,,,,,,,,,,2,,,63,40
508320,note_on,20,0,4,,,,,,,,,,,,,,,3,,,58,66
508320,control_change,4080,0,1,,,,,,,,,,,,,64,0,0,,,,
508340,note_off,20,0,4,,,,,,,,,,,,,,,3,,,56,0
508410,set_tempo,330,1,0,,,,,,,461538,,,,,,,,,,,,
508475,note_off,155,0,3,,,,,,,,,,,,,,,2,,,61,0
508475,note_off,0,0,3,,,,,,,,,,,,,,,2,,,63,0
508510,note_off,170,0,4,,,,,,,,,,,,,,,3,,,58,0
508560,note_on,85,0,3,,,,,,,,,,,,,,,2,,,63,41
508560,note_on,0,0,3,,,,,,,,,,,,,,,2,,,61,41
508560,note_on,50,0,4,,,,,,,,,,,,,,,3,,,56,60
508715,note_off,155,0,4,,,,,,,,,,,,,,,3,,,56,0
508715,note_off,155,0,3,,,,,,,,,,,,,,,2,,,63,0
508715,note_off,0,0,3,,,,,,,,,,,,,,,2,,,61,0
508800,note_on,0,0,3,,,,,,,,,,,,,,,2,,,63,41
508800,note_on,85,0,3,,,,,,,,,,,,,,,2,,,61,41
508800,note_on,85,0,4,,,,,,,,,,,,,,,3,,,55,61
508955,note_off,155,0,4,,,,,,,,,,,,,,,3,,,55,0
508955,note_off,0,0,3,,,,,,,,,,,,,,,2,,,63,0
508955,note_off,155,0,3,,,,,,,,,,,,,,,2,,,61,0
509040,note_on,85,0,3,,,,,,,,,,,,,,,2,,,63,41
509040,note_on,0,0,3,,,,,,,,,,,,,,,2,,,61,41
509040,note_on,85,0,4,,,,,,,,,,,,,,,3,,,53,62
509195,note_off,155,0,3,,,,,,,,,,,,,,,2,,,63,0
509195,note_off,0,0,3,,,,,,,,,,,,,,,2,,,61,0
509195,note_off,155,0,4,,,,,,,,,,,,,,,3,,,53,0
509280,note_on,85,0,3,,,,,,,,,,,,,,,2,,,63,42
509280,note_on,85,0,4,,,,,,,,,,,,,,,3,,,51,62
509280,note_on,0,0,3,,,,,,,,,,,,,,,2,,,61,42
509435,note_off,0,0,3,,,,,,,,,,,,,,,2,,,61,0
509435,note_off,155,0,3,,,,,,,,,,,,,,,2,,,63,0
509435,note_off,155,0,4,,,,,,,,,,,,,,,3,,,51,0
509520,note_on,0,0,3,,,,,,,,,,,,,,,2,,,61,42
509520,note_on,85,0,3,,,,,,,,,,,,,,,2,,,63,42
509520,note_on,85,0,4,,,,,,,,,,,,,,,3,,,49,63
509675,note_off,0,0,3,,,,,,,,,,,,,,,2,,,61,0
509675,note_off,155,0,3,,,,,,,,,,,,,,,2,,,63,0
509675,note_off,155,0,4,,,,,,,,,,,,,,,3,,,49,0
509760,note_on,0,0,3,,,,,,,,,,,,,,,2,,,61,42
509760,note_on,85,0,3,,,,,,,,,,,,,,,2,,,63,42
509760,note_on,85,0,4,,,,,,,,,,,,,,,3,,,48,64
509915,note_off,0,0,3,,,,,,,,,,,,,,,2,,,61,0
509915,note_off,155,0,3,,,,,,,,,,,,,,,2,,,63,0
509915,note_off,155,0,4,,,,,,,,,,,,,,,3,,,48,0
510000,note_on,85,0,4,,,,,,,,,,,,,,,3,,,46,65
510000,note_on,0,0,3,,,,,,,,,,,,,,,2,,,61,42
510000,note_on,85,0,3,,,,,,,,,,,,,,,2,,,63,42
510155,note_off,155,0,4,,,,,,,,,,,,,,,3,,,46,0
510155,note_off,0,0,3,,,,,,,,,,,,,,,2,,,61,0
510155,note_off,155,0,3,,,,,,,,,,,,,,,2,,,63,0
510240,note_on,85,0,4,,,,,,,,,,,,,,,3,,,44,66
510240,note_on,85,0,3,,,,,,,,,,,,,,,2,,,63,43
510240,note_on,0,0,3,,,,,,,,,,,,,,,2,,,61,43
510395,note_off,0,0,3,,,,,,,,,,,,,,,2,,,61,0
510395,note_off,155,0,3,,,,,,,,,,,,,,,2,,,63,0
510395,note_off,155,0,4,,,,,,,,,,,,,,,3,,,44,0
510480,note_on,85,0,4,,,,,,,,,,,,,,,3,,,43,66
510480,note_on,0,0,3,,,,,,,,,,,,,,,2,,,61,43
510480,note_on,85,0,3,,,,,,,,,,,,,,,2,,,63,43
510635,note_off,155,0,4,,,,,,,,,,,,,,,3,,,43,0
510635,note_off,0,0,3,,,,,,,,,,,,,,,2,,,61,0
510635,note_off,155,0,3,,,,,,,,,,,,,,,2,,,63,0
510720,note_on,85,0,4,,,,,,,,,,,,,,,3,,,41,67
510720,note_on,85,0,3,,,,,,,,,,,,,,,2,,,63,43
510720,note_on,0,0,3,,,,,,,,,,,,,,,2,,,61,43
510875,note_off,155,0,4,,,,,,,,,,,,,,,3,,,41,0
510875,note_off,155,0,3,,,,,,,,,,,,,,,2,,,63,0
510875,note_off,0,0,3,,,,,,,,,,,,,,,2,,,61,0
510960,note_on,85,0,4,,,,,,,,,,,,,,,3,,,39,68
510960,note_on,85,0,3,,,,,,,,,,,,,,,2,,,63,44
510960,note_on,0,0,3,,,,,,,,,,,,,,,2,,,61,44
511115,note_off,155,0,3,,,,,,,,,,,,,,,2,,,63,0
511115,note_off,0,0,3,,,,,,,,,,,,,,,2,,,61,0
511115,note_off,155,0,4,,,,,,,,,,,,,,,3,,,39,0
511200,note_on,85,0,3,,,,,,,,,,,,,,,2,,,61,44
511200,note_on,0,0,3,,,,,,,,,,,,,,,2,,,63,44
511200,note_on,0,0,3,,,,,,,,,,,,,,,2,,,58,44
511200,note_on,85,0,4,,,,,,,,,,,,,,,3,,,38,68
511355,note_off,155,0,4,,,,,,,,,,,,,,,3,,,38,0
511355,note_off,0,0,3,,,,,,,,,,,,,,,2,,,63,0
511355,note_off,0,0,3,,,,,,,,,,,,,,,2,,,58,0
511355,note_off,155,0,3,,,,,,,,,,,,,,,2,,,61,0
511440,note_on,85,0,4,,,,,,,,,,,,,,,3,,,39,70
511440,note_on,85,0,3,,,,,,,,,,,,,,,2,,,61,44
511440,note_on,0,0,3,,,,,,,,,,,,,,,2,,,58,44
511440,note_on,0,0,3,,,,,,,,,,,,,,,2,,,63,44
511595,note_off,0,0,3,,,,,,,,,,,,,,,2,,,58,0
511595,note_off,0,0,3,,,,,,,,,,,,,,,2,,,63,0
511595,note_off,155,0,3,,,,,,,,,,,,,,,2,,,61,0
511595,note_off,155,0,4,,,,,,,,,,,,,,,3,,,39,0
511680,note_on,85,0,4,,,,,,,,,,,,,,,3,,,41,71
511680,note_on,0,0,3,,,,,,,,,,,,,,,2,,,58,44
511680,note_on,0,0,3,,,,,,,,,,,,,,,2,,,61,44
511680,note_on,85,0,3,,,,,,,,,,,,,,,2,,,63,44
511835,note_off,155,0,3,,,,,,,,,,,,,,,2,,,63,0
511835,note_off,0,0,3,,,,,,,,,,,,,,,2,,,61,0
511835,note_off,155,0,4,,,,,,,,,,,,,,,3,,,41,0
511835,note_off,0,0,3,,,,,,,,,,,,,,,2,,,58,0
511920,note_on,85,0,4,,,,,,,,,,,,,,,3,,,39,73
511920,note_on,0,0,3,,,,,,,,,,,,,,,2,,,63,45
511920,note_on,0,0,3,,,,,,,,,,,,,,,2,,,58,45
511920,note_on,85,0,3,,,,,,,,,,,,,,,2,,,61,45
512075,note_off,155,0,4,,,,,,,,,,,,,,,3,,,39,0
512075,note_off,155,0,3,,,,,,,,,,,,,,,2,,,61,0
512075,note_off,0,0,3,,,,,,,,,,,,,,,2,,,63,0
512075,note_off,0,0,3,,,,,,,,,,,,,,,2,,,58,0
512160,note_on,85,0,3,,,,,,,,,,,,,,,2,,,61,45
512160,note_on,0,0,3,,,,,,,,,,,,,,,2,,,63,45
512160,note_on,0,0,3,,,,,,,,,,,,,,,2,,,58,45
512160,note_on,85,0,4,,,,,,,,,,,,,,,3,,,43,75
512315,note_off,155,0,4,,,,,,,,,,,,,,,3,,,43,0
512315,note_off,0,0,3,,,,,,,,,,,,,,,2,,,63,0
512315,note_off,0,0,3,,,,,,,,,,,,,,,2,,,58,0
512315,note_off,155,0,3,,,,,,,,,,,,,,,2,,,61,0
512385,set_tempo,3975,1,0,,,,,,,465116,,,,,,,,,,,,
512400,note_on,85,0,3,,,,,,,,,,,,,,,2,,,61,45
512400,note_on,0,0,3,,,,,,,,,,,,,,,2,,,63,45
512400,note_on,0,0,3,,,,,,,,,,,,,,,2,,,58,45
512400,note_on,85,0,4,,,,,,,,,,,,,,,3,,,39,77
512555,note_off,155,0,3,,,,,,,,,,,,,,,2,,,61,0
512555,note_off,155,0,4,,,,,,,,,,,,,,,3,,,39,0
512555,note_off,0,0,3,,,,,,,,,,,,,,,2,,,58,0
512555,note_off,0,0,3,,,,,,,,,,,,,,,2,,,63,0
512640,note_on,85,0,3,,,,,,,,,,,,,,,2,,,63,73
512640,note_on,0,0,4,,,,,,,,,,,,,,,3,,,44,92
512640,note_on,0,0,3,,,,,,,,,,,,,,,2,,,60,73
512640,note_on,0,0,4,,,,,,,,,,,,,,,3,,,32,92
512640,control_change,85,0,4,,,,,,,,,,,,,64,127,3,,,,
512750,set_tempo,365,1,0,,,,,,,461538,,,,,,,,,,,,
512830,note_off,190,0,3,,,,,,,,,,,,,,,2,,,63,0
512830,note_off,0,0,3,,,,,,,,,,,,,,,2,,,60,0
512880,note_on,50,0,3,,,,,,,,,,,,,,,2,,,60,55
512880,note_on,0,0,3,,,,,,,,,,,,,,,2,,,63,55
512880,note_on,0,0,3,,,,,,,,,,,,,,,2,,,56,55
513035,note_off,155,0,3,,,,,,,,,,,,,,,2,,,60,0
513035,note_off,0,0,3,,,,,,,,,,,,,,,2,,,63,0
513035,note_off,0,0,3,,,,,,,,,,,,,,,2,,,56,0
513120,note_on,0,0,3,,,,,,,,,,,,,,,2,,,63,44
513120,note_on,85,0,3,,,,,,,,,,,,,,,2,,,60,44
513120,note_on,0,0,3,,,,,,,,,,,,,,,2,,,56,44
513275,note_off,155,0,3,,,,,,,,,,,,,,,2,,,60,0
513275,note_off,0,0,3,,,,,,,,,,,,,,,2,,,63,0
513275,note_off,0,0,3,,,,,,,,,,,,,,,2,,,56,0
513360,note_on,0,0,3,,,,,,,,,,,,,,,2,,,56,44
513360,note_on,85,0,3,,,,,,,,,,,,,,,2,,,63,44
513360,note_on,0,0,3,,,,,,,,,,,,,,,2,,,60,44
513515,note_off,0,0,3,,,,,,,,,,,,,,,2,,,60,0
513515,note_off,155,0,3,,,,,,,,,,,,,,,2,,,63,0
513515,note_off,0,0,3,,,,,,,,,,,,,,,2,,,56,0
513600,note_on,0,0,3,,,,,,,,,,,,,,,2,,,56,44
513600,note_on,85,0,3,,,,,,,,,,,,,,,2,,,60,44
513600,note_on,0,0,3,,,,,,,,,,,,,,,2,,,63,44
513755,note_off,155,0,3,,,,,,,,,,,,,,,2,,,60,0
513755,note_off,0,0,3,,,,,,,,,,,,,,,2,,,63,0
513755,note_off,0,0,3,,,,,,,,,,,,,,,2,,,56,0
513840,note_on,85,0,3,,,,,,,,,,,,,,,2,,,63,44
513840,note_on,0,0,3,,,,,,,,,,,,,,,2,,,60,44
513840,note_on,0,0,3,,,,,,,,,,,,,,,2,,,56,44
513995,note_off,155,0,3,,,,,,,,,,,,,,,2,,,63,0
513995,note_off,0,0,3,,,,,,,,,,,,,,,2,,,56,0
513995,note_off,0,0,3,,,,,,,,,,,,,,,2,,,60,0
514080,note_off,1440,0,4,,,,,,,,,,,,,,,3,,,32,0
514080,note_on,0,0,3,,,,,,,,,,,,,,,2,,,56,45
514080,note_off,0,0,4,,,,,,,,,,,,,,,3,,,44,0
514080,note_on,85,0,3,,,,,,,,,,,,,,,2,,,60,45
514080,note_on,0,0,3,,,,,,,,,,,,,,,2,,,63,45
514235,note_off,155,0,3,,,,,,,,,,,,,,,2,,,60,0
514235,note_off,0,0,3,,,,,,,,,,,,,,,2,,,63,0
514235,note_off,0,0,3,,,,,,,,,,,,,,,2,,,56,0
514320,note_on,85,0,3,,,,,,,,,,,,,,,2,,,63,45
514320,note_on,0,0,3,,,,,,,,,,,,,,,2,,,60,45
514320,note_on,0,0,3,,,,,,,,,,,,,,,2,,,56,45
514475,note_off,0,0,3,,,,,,,,,,,,,,,2,,,56,0
514475,note_off,0,0,3,,,,,,,,,,,,,,,2,,,60,0
514475,note_off,155,0,3,,,,,,,,,,,,,,,2,,,63,0
514560,note_on,85,0,3,,,,,,,,,,,,,,,2,,,60,45
514560,note_on,0,0,3,,,,,,,,,,,,,,,2,,,56,45
514560,note_on,0,0,3,,,,,,,,,,,,,,,2,,,63,45
514715,note_off,155,0,3,,,,,,,,,,,,,,,2,,,60,0
514715,note_off,0,0,3,,,,,,,,,,,,,,,2,,,63,0
514715,note_off,0,0,3,,,,,,,,,,,,,,,2,,,56,0
514800,note_on,85,0,3,,,,,,,,,,,,,,,2,,,60,46
514800,note_on,0,0,3,,,,,,,,,,,,,,,2,,,63,46
514800,note_on,0,0,3,,,,,,,,,,,,,,,2,,,56,46
514955,note_off,155,0,3,,,,,,,,,,,,,,,2,,,60,0
514955,note_off,0,0,3,,,,,,,,,,,,,,,2,,,63,0
514955,note_off,0,0,3,,,,,,,,,,,,,,,2,,,56,0
515040,note_on,85,0,3,,,,,,,,,,,,,,,2,,,60,46
515040,note_on,0,0,3,,,,,,,,,,,,,,,2,,,63,46
515040,note_on,0,0,3,,,,,,,,,,,,,,,2,,,56,46
515195,note_off,155,0,3,,,,,,,,,,,,,,,2,,,60,0
515195,note_off,0,0,3,,,,,,,,,,,,,,,2,,,63,0
515195,note_off,0,0,3,,,,,,,,,,,,,,,2,,,56,0
515280,note_on,85,0,3,,,,,,,,,,,,,,,2,,,60,46
515280,note_on,0,0,3,,,,,,,,,,,,,,,2,,,63,46
515280,note_on,0,0,3,,,,,,,,,,,,,,,2,,,56,46
515435,note_off,0,0,3,,,,,,,,,,,,,,,2,,,56,0
515435,note_off,0,0,3,,,,,,,,,,,,,,,2,,,63,0
515435,note_off,155,0,3,,,,,,,,,,,,,,,2,,,60,0
515520,note_on,85,0,3,,,,,,,,,,,,,,,2,,,64,46
515520,note_on,0,0,3,,,,,,,,,,,,,,,2,,,60,46
515520,note_on,0,0,3,,,,,,,,,,,,,,,2,,,56,46
515675,note_off,155,0,3,,,,,,,,,,,,,,,2,,,64,0
515675,note_off,0,0,3,,,,,,,,,,,,,,,2,,,60,0
515675,note_off,0,0,3,,,,,,,,,,,,,,,2,,,56,0
515760,note_on,85,0,3,,,,,,,,,,,,,,,2,,,64,47
515760,note_on,0,0,3,,,,,,,,,,,,,,,2,,,60,47
515760,note_on,0,0,3,,,,,,,,,,,,,,,2,,,56,47
515915,note_off,155,0,3,,,,,,,,,,,,,,,2,,,64,0
515915,note_off,0,0,3,,,,,,,,,,,,,,,2,,,56,0
515915,note_off,0,0,3,,,,,,,,,,,,,,,2,,,60,0
516000,note_on,0,0,3,,,,,,,,,,,,,,,2,,,60,47
516000,note_on,85,0,3,,,,,,,,,,,,,,,2,,,64,47
516000,note_on,0,0,3,,,,,,,,,,,,,,,2,,,56,47
516155,note_off,0,0,3,,,,,,,,,,,,,,,2,,,60,0
516155,note_off,155,0,3,,,,,,,,,,,,,,,2,,,64,0
516155,note_off,0,0,3,,,,,,,,,,,,,,,2,,,56,0
516240,note_on,0,0,3,,,,,,,,,,,,,,,2,,,60,47
516240,note_on,85,0,3,,,,,,,,,,,,,,,2,,,64,47
516240,note_on,0,0,3,,,,,,,,,,,,,,,2,,,56,47
516395,note_off,0,0,3,,,,,,,,,,,,,,,2,,,56,0
516395,note_off,0,0,3,,,,,,,,,,,,,,,2,,,60,0
516395,note_off,155,0,3,,,,,,,,,,,,,,,2,,,64,0
516480,note_on,85,0,3,,,,,,,,,,,,,,,2,,,64,48
516480,note_on,0,0,3,,,,,,,,,,,,,,,2,,,60,48
516480,note_on,0,0,3,,,,,,,,,,,,,,,2,,,56,48
516635,note_off,155,0,3,,,,,,,,,,,,,,,2,,,64,0
516635,note_off,0,0,3,,,,,,,,,,,,,,,2,,,60,0
516635,note_off,0,0,3,,,,,,,,,,,,,,,2,,,56,0
516720,note_on,85,0,3,,,,,,,,,,,,,,,2,,,64,48
516720,note_on,0,0,3,,,,,,,,,,,,,,,2,,,60,48
516720,note_on,0,0,3,,,,,,,,,,,,,,,2,,,56,48
516750,set_tempo,4000,1,0,,,,,,,465116,,,,,,,,,,,,
516875,note_off,155,0,3,,,,,,,,,,,,,,,2,,,64,0
516875,note_off,0,0,3,,,,,,,,,,,,,,,2,,,56,0
516875,note_off,0,0,3,,,,,,,,,,,,,,,2,,,60,0
516880,note_on,8560,0,1,,,,,,,,,,,,,,,0,,,80,68
516890,control_change,2810,0,4,,,,,,,,,,,,,64,0,3,,,,
516920,note_on,40,0,1,,,,,,,,,,,,,,,0,,,82,71
516940,note_off,20,0,1,,,,,,,,,,,,,,,0,,,80,0
516960,note_on,20,0,1,,,,,,,,,,,,,,,0,,,84,78
516960,note_on,85,0,3,,,,,,,,,,,,,,,2,,,60,48
516960,note_on,0,0,3,,,,,,,,,,,,,,,2,,,53,48
516960,note_on,0,0,3,,,,,,,,,,,,,,,2,,,56,48
516960,note_on,0,0,3,,,,,,,,,,,,,,,2,,,65,48
516980,note_off,20,0,1,,,,,,,,,,,,,,,0,,,82,0
517070,set_tempo,320,1,0,,,,,,,461538,,,,,,,,,,,,
517115,note_off,0,0,3,,,,,,,,,,,,,,,2,,,53,0
517115,note_off,0,0,3,,,,,,,,,,,,,,,2,,,65,0
517115,note_off,0,0,3,,,,,,,,,,,,,,,2,,,56,0
517115,note_off,155,0,3,,,,,,,,,,,,,,,2,,,60,0
517150,note_off,170,0,1,,,,,,,,,,,,,,,0,,,84,0
517200,note_on,50,0,1,,,,,,,,,,,,,,,0,,,82,72
517200,note_on,85,0,3,,,,,,,,,,,,,,,2,,,53,49
517200,note_on,0,0,3,,,,,,,,,,,,,,,2,,,56,49
517200,note_on,0,0,3,,,,,,,,,,,,,,,2,,,60,49
517355,note_off,155,0,1,,,,,,,,,,,,,,,0,,,82,0
517355,note_off,155,0,3,,,,,,,,,,,,,,,2,,,53,0
517355,note_off,0,0,3,,,,,,,,,,,,,,,2,,,60,0
517355,note_off,0,0,3,,,,,,,,,,,,,,,2,,,56,0
517440,note_on,0,0,3,,,,,,,,,,,,,,,2,,,56,49
517440,note_on,0,0,3,,,,,,,,,,,,,,,2,,,53,49
517440,note_on,85,0,3,,,,,,,,,,,,,,,2,,,60,49
517440,note_on,85,0,1,,,,,,,,,,,,,,,0,,,80,72
517595,note_off,0,0,3,,,,,,,,,,,,,,,2,,,53,0
517595,note_off,155,0,1,,,,,,,,,,,,,,,0,,,80,0
517595,note_off,0,0,3,,,,,,,,,,,,,,,2,,,56,0
517595,note_off,155,0,3,,,,,,,,,,,,,,,2,,,60,0
517680,note_on,85,0,1,,,,,,,,,,,,,,,0,,,79,73
517680,note_on,0,0,3,,,,,,,,,,,,,,,2,,,60,49
517680,note_on,85,0,3,,,,,,,,,,,,,,,2,,,53,49
517680,note_on,0,0,3,,,,,,,,,,,,,,,2,,,56,49
517835,note_off,155,0,1,,,,,,,,,,,,,,,0,,,79,0
517835,note_off,155,0,3,,,,,,,,,,,,,,,2,,,53,0
517835,note_off,0,0,3,,,,,,,,,,,,,,,2,,,60,0
517835,note_off,0,0,3,,,,,,,,,,,,,,,2,,,56,0
517920,note_on,85,0,3,,,,,,,,,,,,,,,2,,,60,49
517920,note_on,0,0,3,,,,,,,,,,,,,,,2,,,56,49
517920,note_on,0,0,3,,,,,,,,,,,,,,,2,,,53,49
517920,note_on,85,0,1,,,,,,,,,,,,,,,0,,,77,74
518075,note_off,155,0,3,,,,,,,,,,,,,,,2,,,60,0
518075,note_off,155,0,1,,,,,,,,,,,,,,,0,,,77,0
518075,note_off,0,0,3,,,,,,,,,,,,,,,2,,,56,0
518075,note_off,0,0,3,,,,,,,,,,,,,,,2,,,53,0
518160,note_on,85,0,3,,,,,,,,,,,,,,,2,,,60,50
518160,note_on,0,0,3,,,,,,,,,,,,,,,2,,,56,50
518160,note_on,0,0,3,,,,,,,,,,,,,,,2,,,53,50
518160,note_on,85,0,1,,,,,,,,,,,,,,,0,,,75,74
518315,note_off,155,0,1,,,,,,,,,,,,,,,0,,,75,0
518315,note_off,0,0,3,,,,,,,,,,,,,,,2,,,56,0
518315,note_off,0,0,3,,,,,,,,,,,,,,,2,,,53,0
518315,note_off,155,0,3,,,,,,,,,,,,,,,2,,,60,0
518400,note_on,85,0,1,,,,,,,,,,,,,,,0,,,73,75
518400,note_on,0,0,3,,,,,,,,,,,,,,,2,,,56,50
518400,note_on,85,0,3,,,,,,,,,,,,,,,2,,,60,50
518400,note_on,0,0,3,,,,,,,,,,,,,,,2,,,53,50
518555,note_off,155,0,1,,,,,,,,,,,,,,,0,,,73,0
518555,note_off,155,0,3,,,,,,,,,,,,,,,2,,,60,0
518555,note_off,0,0,3,,,,,,,,,,,,,,,2,,,56,0
518555,note_off,0,0,3,,,,,,,,,,,,,,,2,,,53,0
518640,note_on,0,0,3,,,,,,,,,,,,,,,2,,,53,50
518640,note_on,85,0,1,,,,,,,,,,,,,,,0,,,72,76
518640,note_on,85,0,3,,,,,,,,,,,,,,,2,,,60,50
518640,note_on,0,0,3,,,,,,,,,,,,,,,2,,,56,50
518795,note_off,0,0,3,,,,,,,,,,,,,,,2,,,56,0
518795,note_off,0,0,3,,,,,,,,,,,,,,,2,,,53,0
518795,note_off,155,0,3,,,,,,,,,,,,,,,2,,,60,0
518795,note_off,155,0,1,,,,,,,,,,,,,,,0,,,72,0
518880,note_on,0,0,3,,,,,,,,,,,,,,,2,,,56,51
518880,note_on,85,0,3,,,,,,,,,,,,,,,2,,,60,51
518880,note_on,0,0,3,,,,,,,,,,,,,,,2,,,53,51
518880,note_on,85,0,1,,,,,,,,,,,,,,,0,,,70,76
519035,note_off,155,0,1,,,,,,,,,,,,,,,0,,,70,0
519035,note_off,155,0,3,,,,,,,,,,,,,,,2,,,60,0
519035,note_off,0,0,3,,,,,,,,,,,,,,,2,,,56,0
519035,note_off,0,0,3,,,,,,,,,,,,,,,2,,,53,0
519120,note_on,85,0,1,,,,,,,,,,,,,,,0,,,68,77
519120,note_on,85,0,3,,,,,,,,,,,,,,,2,,,60,51
519120,note_on,0,0,3,,,,,,,,,,,,,,,2,,,56,51
519120,note_on,0,0,3,,,,,,,,,,,,,,,2,,,53,51
519275,note_off,155,0,1,,,,,,,,,,,,,,,0,,,68,0
519275,note_off,155,0,3,,,,,,,,,,,,,,,2,,,60,0
519275,note_off,0,0,3,,,,,,,,,,,,,,,2,,,56,0
519275,note_off,0,0,3,,,,,,,,,,,,,,,2,,,53,0
519360,note_on,85,0,1,,,,,,,,,,,,,,,0,,,67,78
519360,note_on,0,0,3,,,,,,,,,,,,,,,2,,,53,51
519360,note_on,0,0,3,,,,,,,,,,,,,,,2,,,56,51
519360,note_on,85,0,3,,,,,,,,,,,,,,,2,,,60,51
519515,note_off,155,0,3,,,,,,,,,,,,,,,2,,,60,0
519515,note_off,0,0,3,,,,,,,,,,,,,,,2,,,53,0
519515,note_off,0,0,3,,,,,,,,,,,,,,,2,,,56,0
519515,note_off,155,0,1,,,,,,,,,,,,,,,0,,,67,0
519600,note_on,85,0,3,,,,,,,,,,,,,,,2,,,60,52
519600,note_on,0,0,3,,,,,,,,,,,,,,,2,,,53,52
519600,note_on,0,0,3,,,,,,,,,,,,,,,2,,,56,52
519600,note_on,85,0,1,,,,,,,,,,,,,,,0,,,65,78
519755,note_off,155,0,1,,,,,,,,,,,,,,,0,,,65,0
519755,note_off,0,0,3,,,,,,,,,,,,,,,2,,,53,0
519755,note_off,0,0,3,,,,,,,,,,,,,,,2,,,56,0
519755,note_off,155,0,3,,,,,,,,,,,,,,,2,,,60,0
519840,note_on,0,0,3,,,,,,,,,,,,,,,2,,,60,52
519840,note_on,0,0,3,,,,,,,,,,,,,,,2,,,56,52
519840,note_on,85,0,3,,,,,,,,,,,,,,,2,,,53,52
519840,note_on,85,0,1,,,,,,,,,,,,,,,0,,,64,78
519995,note_off,155,0,1,,,,,,,,,,,,,,,0,,,64,0
519995,note_off,155,0,3,,,,,,,,,,,,,,,2,,,53,0
519995,note_off,0,0,3,,,,,,,,,,,,,,,2,,,60,0
519995,note_off,0,0,3,,,,,,,,,,,,,,,2,,,56,0
520080,note_on,0,0,3,,,,,,,,,,,,,,,2,,,56,52
520080,note_on,85,0,1,,,,,,,,,,,,,,,0,,,65,80
520080,note_on,85,0,3,,,,,,,,,,,,,,,2,,,53,52
520080,note_on,0,0,3,,,,,,,,,,,,,,,2,,,60,52
520235,note_off,0,0,3,,,,,,,,,,,,,,,2,,,56,0
520235,note_off,0,0,3,,,,,,,,,,,,,,,2,,,60,0
520235,note_off,155,0,1,,,,,,,,,,,,,,,0,,,65,0
520235,note_off,155,0,3,,,,,,,,,,,,,,,2,,,53,0
520320,note_on,0,0,3,,,,,,,,,,,,,,,2,,,60,52
520320,note_on,85,0,3,,,,,,,,,,,,,,,2,,,53,52
520320,note_on,85,0,1,,,,,,,,,,,,,,,0,,,67,81
520320,note_on,0,0,3,,,,,,,,,,,,,,,2,,,56,52
520475,note_off,155,0,3,,,,,,,,,,,,,,,2,,,53,0
520475,note_off,0,0,3,,,,,,,,,,,,,,,2,,,60,0
520475,note_off,0,0,3,,,,,,,,,,,,,,,2,,,56,0
520475,note_off,155,0,1,,,,,,,,,,,,,,,0,,,67,0
520560,note_on,85,0,3,,,,,,,,,,,,,,,2,,,60,53
520560,note_on,0,0,3,,,,,,,,,,,,,,,2,,,53,53
520560,note_on,0,0,3,,,,,,,,,,,,,,,2,,,56,53
520560,note_on,85,0,1,,,,,,,,,,,,,,,0,,,65,83
520715,note_off,155,0,3,,,,,,,,,,,,,,,2,,,60,0
520715,note_off,155,0,1,,,,,,,,,,,,,,,0,,,65,0
520715,note_off,0,0,3,,,,,,,,,,,,,,,2,,,53,0
520715,note_off,0,0,3,,,,,,,,,,,,,,,2,,,56,0
520800,note_on,0,0,3,,,,,,,,,,,,,,,2,,,53,53
520800,note_on,0,0,3,,,,,,,,,,,,,,,2,,,56,53
520800,note_on,85,0,1,,,,,,,,,,,,,,,0,,,68,85
520800,note_on,85,0,3,,,,,,,,,,,,,,,2,,,60,53
520955,note_off,0,0,3,,,,,,,,,,,,,,,2,,,53,0
520955,note_off,0,0,3,,,,,,,,,,,,,,,2,,,56,0
520955,note_off,155,0,3,,,,,,,,,,,,,,,2,,,60,0
520955,note_off,155,0,1,,,,,,,,,,,,,,,0,,,68,0
521040,note_on,85,0,1,,,,,,,,,,,,,,,0,,,65,86
521040,set_tempo,3970,1,0,,,,,,,465116,,,,,,,,,,,,
521040,note_on,0,0,3,,,,,,,,,,,,,,,2,,,53,53
521040,note_on,0,0,3,,,,,,,,,,,,,,,2,,,56,53
521040,note_on,85,0,3,,,,,,,,,,,,,,,2,,,60,53
521195,note_off,155,0,3,,,,,,,,,,,,,,,2,,,60,0
521195,note_off,0,0,3,,,,,,,,,,,,,,,2,,,56,0
521195,note_off,0,0,3,,,,,,,,,,,,,,,2,,,53,0
521195,note_off,155,0,1,,,,,,,,,,,,,,,0,,,65,0
521280,note_on,0,0,3,,,,,,,,,,,,,,,2,,,55,82
521280,control_change,0,0,4,,,,,,,,,,,,,64,127,3,,,,
521280,note_on,4390,0,4,,,,,,,,,,,,,,,3,,,43,71
521280,note_on,0,0,1,,,,,,,,,,,,,,,0,,,64,93
521280,control_change,85,0,1,,,,,,,,,,,,,64,127,0,,,,
521280,note_on,85,0,3,,,,,,,,,,,,,,,2,,,58,82
521280,note_on,0,0,3,,,,,,,,,,,,,,,2,,,60,82
521280,note_on,0,0,4,,,,,,,,,,,,,,,3,,,31,71
521390,set_tempo,350,1,0,,,,,,,461538,,,,,,,,,,,,
521470,note_off,0,0,3,,,,,,,,,,,,,,,2,,,55,0
521470,note_off,0,0,3,,,,,,,,,,,,,,,2,,,60,0
521470,note_off,190,0,4,,,,,,,,,,,,,,,3,,,43,0
521470,note_off,0,0,4,,,,,,,,,,,,,,,3,,,31,0
521470,note_off,190,0,3,,,,,,,,,,,,,,,2,,,58,0
521520,note_off,240,0,1,,,,,,,,,,,,,,,0,,,64,0
521520,note_on,50,0,3,,,,,,,,,,,,,,,2,,,60,65
521520,note_on,0,0,3,,,,,,,,,,,,,,,2,,,58,65
521520,note_on,0,0,3,,,,,,,,,,,,,,,2,,,55,65
521675,note_off,155,0,3,,,,,,,,,,,,,,,2,,,60,0
521675,note_off,0,0,3,,,,,,,,,,,,,,,2,,,58,0
521675,note_off,0,0,3,,,,,,,,,,,,,,,2,,,55,0
521760,note_on,85,0,3,,,,,,,,,,,,,,,2,,,58,50
521760,note_on,0,0,3,,,,,,,,,,,,,,,2,,,55,50
521760,note_on,0,0,3,,,,,,,,,,,,,,,2,,,60,50
521915,note_off,155,0,3,,,,,,,,,,,,,,,2,,,58,0
521915,note_off,0,0,3,,,,,,,,,,,,,,,2,,,60,0
521915,note_off,0,0,3,,,,,,,,,,,,,,,2,,,55,0
522000,note_on,85,0,3,,,,,,,,,,,,,,,2,,,60,50
522000,note_on,0,0,3,,,,,,,,,,,,,,,2,,,58,50
522000,note_on,0,0,3,,,,,,,,,,,,,,,2,,,55,50
522155,note_off,155,0,3,,,,,,,,,,,,,,,2,,,60,0
522155,note_off,0,0,3,,,,,,,,,,,,,,,2,,,58,0
522155,note_off,0,0,3,,,,,,,,,,,,,,,2,,,55,0
522240,note_on,0,0,3,,,,,,,,,,,,,,,2,,,55,50
522240,note_on,85,0,3,,,,,,,,,,,,,,,2,,,60,50
522240,note_on,0,0,3,,,,,,,,,,,,,,,2,,,58,50
522395,note_off,155,0,3,,,,,,,,,,,,,,,2,,,60,0
522395,note_off,0,0,3,,,,,,,,,,,,,,,2,,,58,0
522395,note_off,0,0,3,,,,,,,,,,,,,,,2,,,55,0
522480,note_on,0,0,3,,,,,,,,,,,,,,,2,,,55,51
522480,note_on,85,0,3,,,,,,,,,,,,,,,2,,,60,51
522480,note_on,0,0,3,,,,,,,,,,,,,,,2,,,58,51
522635,note_off,0,0,3,,,,,,,,,,,,,,,2,,,55,0
522635,note_off,0,0,3,,,,,,,,,,,,,,,2,,,58,0
522635,note_off,155,0,3,,,,,,,,,,,,,,,2,,,60,0
522720,note_on,0,0,3,,,,,,,,,,,,,,,2,,,55,51
522720,note_on,85,0,3,,,,,,,,,,,,,,,2,,,60,51
522720,note_on,0,0,3,,,,,,,,,,,,,,,2,,,58,51
522875,note_off,155,0,3,,,,,,,,,,,,,,,2,,,60,0
522875,note_off,0,0,3,,,,,,,,,,,,,,,2,,,58,0
522875,note_off,0,0,3,,,,,,,,,,,,,,,2,,,55,0
522960,note_on,85,0,3,,,,,,,,,,,,,,,2,,,60,51
522960,note_on,0,0,3,,,,,,,,,,,,,,,2,,,58,51
522960,note_on,0,0,3,,,,,,,,,,,,,,,2,,,55,51
523115,note_off,0,0,3,,,,,,,,,,,,,,,2,,,58,0
523115,note_off,0,0,3,,,,,,,,,,,,,,,2,,,55,0
523115,note_off,155,0,3,,,,,,,,,,,,,,,2,,,60,0
523200,note_on,85,0,3,,,,,,,,,,,,,,,2,,,60,52
523200,note_on,0,0,3,,,,,,,,,,,,,,,2,,,58,52
523200,note_on,0,0,3,,,,,,,,,,,,,,,2,,,55,52
523355,note_off,155,0,3,,,,,,,,,,,,,,,2,,,60,0
523355,note_off,0,0,3,,,,,,,,,,,,,,,2,,,58,0
523355,note_off,0,0,3,,,,,,,,,,,,,,,2,,,55,0
523440,note_on,0,0,3,,,,,,,,,,,,,,,2,,,58,52
523440,note_on,0,0,3,,,,,,,,,,,,,,,2,,,55,52
523440,note_on,85,0,3,,,,,,,,,,,,,,,2,,,60,52
523595,note_off,155,0,3,,,,,,,,,,,,,,,2,,,60,0
523595,note_off,0,0,3,,,,,,,,,,,,,,,2,,,55,0
523595,note_off,0,0,3,,,,,,,,,,,,,,,2,,,58,0
523680,note_on,85,0,3,,,,,,,,,,,,,,,2,,,60,53
523680,note_on,0,0,3,,,,,,,,,,,,,,,2,,,55,53
523680,note_on,0,0,3,,,,,,,,,,,,,,,2,,,58,53
523835,note_off,155,0,3,,,,,,,,,,,,,,,2,,,60,0
523835,note_off,0,0,3,,,,,,,,,,,,,,,2,,,55,0
523835,note_off,0,0,3,,,,,,,,,,,,,,,2,,,58,0
523920,note_on,85,0,3,,,,,,,,,,,,,,,2,,,60,53
523920,note_on,0,0,3,,,,,,,,,,,,,,,2,,,55,53
523920,note_on,0,0,3,,,,,,,,,,,,,,,2,,,58,53
524075,note_off,155,0,3,,,,,,,,,,,,,,,2,,,60,0
524075,note_off,0,0,3,,,,,,,,,,,,,,,2,,,58,0
524075,note_off,0,0,3,,,,,,,,,,,,,,,2,,,55,0
524160,note_on,85,0,3,,,,,,,,,,,,,,,2,,,60,53
524160,note_on,0,0,3,,,,,,,,,,,,,,,2,,,58,53
524160,note_on,0,0,3,,,,,,,,,,,,,,,2,,,55,53
524315,note_off,0,0,3,,,,,,,,,,,,,,,2,,,58,0
524315,note_off,155,0,3,,,,,,,,,,,,,,,2,,,60,0
524315,note_off,0,0,3,,,,,,,,,,,,,,,2,,,55,0
524400,note_on,85,0,3,,,,,,,,,,,,,,,2,,,60,54
524400,note_on,0,0,3,,,,,,,,,,,,,,,2,,,55,54
524400,note_on,0,0,3,,,,,,,,,,,,,,,2,,,58,54
524555,note_off,155,0,3,,,,,,,,,,,,,,,2,,,60,0
524555,note_off,0,0,3,,,,,,,,,,,,,,,2,,,55,0
524555,note_off,0,0,3,,,,,,,,,,,,,,,2,,,58,0
524640,note_on,85,0,3,,,,,,,,,,,,,,,2,,,60,54
524640,note_on,0,0,3,,,,,,,,,,,,,,,2,,,55,54
524640,note_on,0,0,3,,,,,,,,,,,,,,,2,,,58,54
524795,note_off,0,0,3,,,,,,,,,,,,,,,2,,,58,0
524795,note_off,0,0,3,,,,,,,,,,,,,,,2,,,55,0
524795,note_off,155,0,3,,,,,,,,,,,,,,,2,,,60,0
524880,note_on,0,0,3,,,,,,,,,,,,,,,2,,,55,54
524880,note_on,0,0,3,,,,,,,,,,,,,,,2,,,58,54
524880,note_on,85,0,3,,,,,,,,,,,,,,,2,,,60,54
525035,note_off,155,0,3,,,,,,,,,,,,,,,2,,,60,0
525035,note_off,0,0,3,,,,,,,,,,,,,,,2,,,58,0
525035,note_off,0,0,3,,,,,,,,,,,,,,,2,,,55,0
525120,note_on,0,0,3,,,,,,,,,,,,,,,2,,,55,55
525120,control_change,3650,0,4,,,,,,,,,,,,,64,0,3,,,,
525120,note_on,85,0,3,,,,,,,,,,,,,,,2,,,60,55
525120,note_on,0,0,3,,,,,,,,,,,,,,,2,,,58,55
525275,note_off,0,0,3,,,,,,,,,,,,,,,2,,,55,0
525275,note_off,0,0,3,,,,,,,,,,,,,,,2,,,58,0
525275,note_off,155,0,3,,,,,,,,,,,,,,,2,,,60,0
525345,set_tempo,3955,1,0,,,,,,,465116,,,,,,,,,,,,
525360,note_on,0,0,3,,,,,,,,,,,,,,,2,,,58,55
525360,note_on,85,0,3,,,,,,,,,,,,,,,2,,,60,55
525360,note_on,0,0,3,,,,,,,,,,,,,,,2,,,55,55
525515,note_off,155,0,3,,,,,,,,,,,,,,,2,,,60,0
525515,note_off,0,0,3,,,,,,,,,,,,,,,2,,,55,0
525515,note_off,0,0,3,,,,,,,,,,,,,,,2,,,58,0
525520,note_on,400,0,4,,,,,,,,,,,,,,,3,,,52,76
525560,note_on,40,0,4,,,,,,,,,,,,,,,3,,,53,80
525580,note_off,20,0,4,,,,,,,,,,,,,,,3,,,52,0
525600,note_on,20,0,4,,,,,,,,,,,,,,,3,,,55,84
525600,control_change,4080,0,1,,,,,,,,,,,,,64,0,0,,,,
525600,note_on,85,0,3,,,,,,,,,,,,,,,2,,,60,55
525600,note_on,0,0,3,,,,,,,,,,,,,,,2,,,58,55
525620,note_off,20,0,4,,,,,,,,,,,,,,,3,,,53,0
525710,set_tempo,365,1,0,,,,,,,461538,,,,,,,,,,,,
525755,note_off,0,0,3,,,,,,,,,,,,,,,2,,,58,0
525755,note_off,155,0,3,,,,,,,,,,,,,,,2,,,60,0
525790,note_off,170,0,4,,,,,,,,,,,,,,,3,,,55,0
525840,note_on,85,0,3,,,,,,,,,,,,,,,2,,,60,56
525840,note_on,0,0,3,,,,,,,,,,,,,,,2,,,58,56
525840,note_on,50,0,4,,,,,,,,,,,,,,,3,,,53,80
525995,note_off,155,0,3,,,,,,,,,,,,,,,2,,,60,0
525995,note_off,0,0,3,,,,,,,,,,,,,,,2,,,58,0
525995,note_off,155,0,4,,,,,,,,,,,,,,,3,,,53,0
526080,note_on,85,0,3,,,,,,,,,,,,,,,2,,,60,56
526080,note_on,0,0,3,,,,,,,,,,,,,,,2,,,58,56
526080,note_on,85,0,4,,,,,,,,,,,,,,,3,,,52,80
526235,note_off,155,0,3,,,,,,,,,,,,,,,2,,,60,0
526235,note_off,0,0,3,,,,,,,,,,,,,,,2,,,58,0
526235,note_off,155,0,4,,,,,,,,,,,,,,,3,,,52,0
526320,note_on,85,0,4,,,,,,,,,,,,,,,3,,,49,81
526320,note_on,0,0,3,,,,,,,,,,,,,,,2,,,58,57
526320,note_on,85,0,3,,,,,,,,,,,,,,,2,,,60,57
526475,note_off,155,0,3,,,,,,,,,,,,,,,2,,,60,0
526475,note_off,0,0,3,,,,,,,,,,,,,,,2,,,58,0
526475,note_off,155,0,4,,,,,,,,,,,,,,,3,,,49,0
526560,note_on,0,0,3,,,,,,,,,,,,,,,2,,,58,57
526560,note_on,85,0,3,,,,,,,,,,,,,,,2,,,60,57
526560,note_on,85,0,4,,,,,,,,,,,,,,,3,,,48,81
526715,note_off,0,0,3,,,,,,,,,,,,,,,2,,,58,0
526715,note_off,155,0,3,,,,,,,,,,,,,,,2,,,60,0
526715,note_off,155,0,4,,,,,,,,,,,,,,,3,,,48,0
526800,note_on,85,0,4,,,,,,,,,,,,,,,3,,,46,82
526800,note_on,85,0,3,,,,,,,,,,,,,,,2,,,60,57
526800,note_on,0,0,3,,,,,,,,,,,,,,,2,,,58,57
526955,note_off,155,0,4,,,,,,,,,,,,,,,3,,,46,0
526955,note_off,155,0,3,,,,,,,,,,,,,,,2,,,60,0
526955,note_off,0,0,3,,,,,,,,,,,,,,,2,,,58,0
527040,note_on,85,0,4,,,,,,,,,,,,,,,3,,,44,82
527040,note_on,85,0,3,,,,,,,,,,,,,,,2,,,60,58
527040,note_on,0,0,3,,,,,,,,,,,,,,,2,,,58,58
527195,note_off,155,0,4,,,,,,,,,,,,,,,3,,,44,0
527195,note_off,0,0,3,,,,,,,,,,,,,,,2,,,58,0
527195,note_off,155,0,3,,,,,,,,,,,,,,,2,,,60,0
527280,note_on,0,0,3,,,,,,,,,,,,,,,2,,,58,58
527280,note_on,85,0,3,,,,,,,,,,,,,,,2,,,60,58
527280,note_on,85,0,4,,,,,,,,,,,,,,,3,,,43,83
527435,note_off,0,0,3,,,,,,,,,,,,,,,2,,,58,0
527435,note_off,155,0,3,,,,,,,,,,,,,,,2,,,60,0
527435,note_off,155,0,4,,,,,,,,,,,,,,,3,,,43,0
527520,note_on,85,0,4,,,,,,,,,,,,,,,3,,,41,83
527520,note_on,85,0,3,,,,,,,,,,,,,,,2,,,60,58
527520,note_on,0,0,3,,,,,,,,,,,,,,,2,,,58,58
527675,note_off,155,0,4,,,,,,,,,,,,,,,3,,,41,0
527675,note_off,155,0,3,,,,,,,,,,,,,,,2,,,60,0
527675,note_off,0,0,3,,,,,,,,,,,,,,,2,,,58,0
527760,note_on,85,0,4,,,,,,,,,,,,,,,3,,,40,84
527760,note_on,85,0,3,,,,,,,,,,,,,,,2,,,60,59
527760,note_on,0,0,3,,,,,,,,,,,,,,,2,,,58,59
527915,note_off,155,0,4,,,,,,,,,,,,,,,3,,,40,0
527950,note_off,190,0,3,,,,,,,,,,,,,,,2,,,60,0
527950,note_off,0,0,3,,,,,,,,,,,,,,,2,,,58,0
528000,note_on,50,0,3,,,,,,,,,,,,,,,2,,,60,59
528000,note_on,0,0,3,,,,,,,,,,,,,,,2,,,58,59
528000,note_on,85,0,4,,,,,,,,,,,,,,,3,,,37,84
528155,note_off,155,0,3,,,,,,,,,,,,,,,2,,,60,0
528155,note_off,155,0,4,,,,,,,,,,,,,,,3,,,37,0
528155,note_off,0,0,3,,,,,,,,,,,,,,,2,,,58,0
528240,note_on,85,0,3,,,,,,,,,,,,,,,2,,,60,59
528240,note_on,0,0,3,,,,,,,,,,,,,,,2,,,58,59
528240,note_on,85,0,4,,,,,,,,,,,,,,,3,,,36,84
528395,note_off,155,0,3,,,,,,,,,,,,,,,2,,,60,0
528395,note_off,0,0,3,,,,,,,,,,,,,,,2,,,58,0
528395,note_off,155,0,4,,,,,,,,,,,,,,,3,,,36,0
528480,note_on,0,0,3,,,,,,,,,,,,,,,2,,,55,60
528480,note_on,0,0,3,,,,,,,,,,,,,,,2,,,58,60
528480,note_on,85,0,4,,,,,,,,,,,,,,,3,,,35,84
528480,note_on,85,0,3,,,,,,,,,,,,,,,2,,,60,60
528635,note_off,155,0,4,,,,,,,,,,,,,,,3,,,35,0
528635,note_off,0,0,3,,,,,,,,,,,,,,,2,,,55,0
528635,note_off,0,0,3,,,,,,,,,,,,,,,2,,,58,0
528635,note_off,155,0,3,,,,,,,,,,,,,,,2,,,60,0
528720,note_on,85,0,3,,,,,,,,,,,,,,,2,,,60,60
528720,note_on,0,0,3,,,,,,,,,,,,,,,2,,,55,60
528720,note_on,0,0,3,,,,,,,,,,,,,,,2,,,58,60
528720,note_on,85,0,4,,,,,,,,,,,,,,,3,,,36,85
528875,note_off,155,0,3,,,,,,,,,,,,,,,2,,,60,0
528875,note_off,0,0,3,,,,,,,,,,,,,,,2,,,55,0
528875,note_off,0,0,3,,,,,,,,,,,,,,,2,,,58,0
528875,note_off,155,0,4,,,,,,,,,,,,,,,3,,,36,0
528960,note_on,85,0,3,,,,,,,,,,,,,,,2,,,60,61
528960,note_on,0,0,3,,,,,,,,,,,,,,,2,,,58,61
528960,note_on,0,0,3,,,,,,,,,,,,,,,2,,,55,61
528960,note_on,85,0,4,,,,,,,,,,,,,,,3,,,37,87
529115,note_off,155,0,3,,,,,,,,,,,,,,,2,,,60,0
529115,note_off,155,0,4,,,,,,,,,,,,,,,3,,,37,0
529115,note_off,0,0,3,,,,,,,,,,,,,,,2,,,55,0
529115,note_off,0,0,3,,,,,,,,,,,,,,,2,,,58,0
529200,note_on,85,0,4,,,,,,,,,,,,,,,3,,,36,88
529200,note_on,0,0,3,,,,,,,,,,,,,,,2,,,55,61
529200,note_on,0,0,3,,,,,,,,,,,,,,,2,,,58,61
529200,note_on,85,0,3,,,,,,,,,,,,,,,2,,,60,61
529355,note_off,0,0,3,,,,,,,,,,,,,,,2,,,55,0
529355,note_off,0,0,3,,,,,,,,,,,,,,,2,,,58,0
529355,note_off,155,0,3,,,,,,,,,,,,,,,2,,,60,0
529355,note_off,155,0,4,,,,,,,,,,,,,,,3,,,36,0
529440,note_on,0,0,3,,,,,,,,,,,,,,,2,,,55,61
529440,note_on,0,0,3,,,,,,,,,,,,,,,2,,,58,61
529440,note_on,85,0,3,,,,,,,,,,,,,,,2,,,60,61
529440,note_on,85,0,4,,,,,,,,,,,,,,,3,,,40,90
529595,note_off,0,0,3,,,,,,,,,,,,,,,2,,,58,0
529595,note_off,0,0,3,,,,,,,,,,,,,,,2,,,55,0
529595,note_off,155,0,3,,,,,,,,,,,,,,,2,,,60,0
529595,note_off,155,0,4,,,,,,,,,,,,,,,3,,,40,0
529680,note_on,85,0,4,,,,,,,,,,,,,,,3,,,36,91
529680,note_on,85,0,3,,,,,,,,,,,,,,,2,,,60,62
529680,note_on,0,0,3,,,,,,,,,,,,,,,2,,,58,62
529680,note_on,0,0,3,,,,,,,,,,,,,,,2,,,55,62
529800,set_tempo,4090,1,0,,,,,,,465116,,,,,,,,,,,,
529835,note_off,155,0,3,,,,,,,,,,,,,,,2,,,60,0
529835,note_off,0,0,3,,,,,,,,,,,,,,,2,,,55,0
529835,note_off,155,0,4,,,,,,,,,,,,,,,3,,,36,0
529835,note_off,0,0,3,,,,,,,,,,,,,,,2,,,58,0
529920,note_on,0,0,3,,,,,,,,,,,,,,,2,,,53,88
529920,note_on,0,0,3,,,,,,,,,,,,,,,2,,,56,88
529920,note_on,85,0,4,,,,,,,,,,,,,,,3,,,29,102
529920,note_on,0,0,4,,,,,,,,,,,,,,,3,,,41,102
529920,note_on,85,0,3,,,,,,,,,,,,,,,2,,,60,88
530030,set_tempo,230,1,0,,,,,,,461538,,,,,,,,,,,,
530110,note_off,190,0,3,,,,,,,,,,,,,,,2,,,60,0
530110,note_off,0,0,3,,,,,,,,,,,,,,,2,,,56,0
530110,note_off,0,0,3,,,,,,,,,,,,,,,2,,,53,0
530160,note_on,50,0,3,,,,,,,,,,,,,,,2,,,56,71
530160,note_on,0,0,3,,,,,,,,,,,,,,,2,,,61,71
530160,note_on,0,0,3,,,,,,,,,,,,,,,2,,,53,71
530315,note_off,155,0,3,,,,,,,,,,,,,,,2,,,56,0
530315,note_off,0,0,3,,,,,,,,,,,,,,,2,,,61,0
530315,note_off,0,0,3,,,,,,,,,,,,,,,2,,,53,0
530400,note_on,0,0,3,,,,,,,,,,,,,,,2,,,56,60
530400,note_on,85,0,3,,,,,,,,,,,,,,,2,,,61,60
530400,note_on,0,0,3,,,,,,,,,,,,,,,2,,,53,60
530555,note_off,155,0,3,,,,,,,,,,,,,,,2,,,61,0
530555,note_off,0,0,3,,,,,,,,,,,,,,,2,,,56,0
530555,note_off,0,0,3,,,,,,,,,,,,,,,2,,,53,0
530640,note_on,85,0,3,,,,,,,,,,,,,,,2,,,61,60
530640,note_on,0,0,3,,,,,,,,,,,,,,,2,,,53,60
530640,note_on,0,0,3,,,,,,,,,,,,,,,2,,,56,60
530795,note_off,155,0,3,,,,,,,,,,,,,,,2,,,61,0
530795,note_off,0,0,3,,,,,,,,,,,,,,,2,,,56,0
530795,note_off,0,0,3,,,,,,,,,,,,,,,2,,,53,0
530880,note_on,85,0,3,,,,,,,,,,,,,,,2,,,61,60
530880,note_on,0,0,3,,,,,,,,,,,,,,,2,,,56,60
530880,note_on,0,0,3,,,,,,,,,,,,,,,2,,,53,60
531035,note_off,155,0,3,,,,,,,,,,,,,,,2,,,61,0
531035,note_off,0,0,3,,,,,,,,,,,,,,,2,,,56,0
531035,note_off,0,0,3,,,,,,,,,,,,,,,2,,,53,0
531120,note_on,85,0,3,,,,,,,,,,,,,,,2,,,61,61
531120,note_on,0,0,3,,,,,,,,,,,,,,,2,,,56,61
531120,note_on,0,0,3,,,,,,,,,,,,,,,2,,,53,61
531275,note_off,0,0,3,,,,,,,,,,,,,,,2,,,56,0
531275,note_off,155,0,3,,,,,,,,,,,,,,,2,,,61,0
531275,note_off,0,0,3,,,,,,,,,,,,,,,2,,,53,0
531360,note_off,1440,0,4,,,,,,,,,,,,,,,3,,,29,0
531360,note_off,0,0,4,,,,,,,,,,,,,,,3,,,41,0
531360,note_on,0,0,4,,,,,,,,,,,,,,,3,,,41,70
531360,note_on,0,0,3,,,,,,,,,,,,,,,2,,,53,61
531360,note_on,0,0,3,,,,,,,,,,,,,,,2,,,56,61
531360,note_on,85,0,3,,,,,,,,,,,,,,,2,,,61,61
531360,note_on,5760,0,1,,,,,,,,,,,,,,,0,,,80,78
531515,note_off,0,0,3,,,,,,,,,,,,,,,2,,,53,0
531515,note_off,0,0,3,,,,,,,,,,,,,,,2,,,56,0
531515,note_off,155,0,3,,,,,,,,,,,,,,,2,,,61,0
531600,note_on,0,0,3,,,,,,,,,,,,,,,2,,,53,62
531600,note_on,85,0,3,,,,,,,,,,,,,,,2,,,56,62
531600,note_on,0,0,3,,,,,,,,,,,,,,,2,,,61,62
531600,note_on,0,0,1,,,,,,,,,,,,,,,0,,,77,75
531600,note_off,240,0,1,,,,,,,,,,,,,,,0,,,80,0
531755,note_off,155,0,3,,,,,,,,,,,,,,,2,,,56,0
531755,note_off,0,0,3,,,,,,,,,,,,,,,2,,,53,0
531755,note_off,0,0,3,,,,,,,,,,,,,,,2,,,61,0
531840,note_on,0,0,1,,,,,,,,,,,,,,,0,,,73,72
531840,note_on,0,0,3,,,,,,,,,,,,,,,2,,,53,62
531840,note_on,0,0,3,,,,,,,,,,,,,,,2,,,61,62
531840,note_on,85,0,3,,,,,,,,,,,,,,,2,,,56,62
531840,note_off,240,0,1,,,,,,,,,,,,,,,0,,,77,0
531995,note_off,0,0,3,,,,,,,,,,,,,,,2,,,61,0
531995,note_off,155,0,1,,,,,,,,,,,,,,,0,,,73,0
531995,note_off,0,0,3,,,,,,,,,,,,,,,2,,,53,0
531995,note_off,155,0,3,,,,,,,,,,,,,,,2,,,56,0
532080,note_on,85,0,1,,,,,,,,,,,,,,,0,,,73,72
532080,note_on,85,0,3,,,,,,,,,,,,,,,2,,,56,62
532080,note_on,0,0,3,,,,,,,,,,,,,,,2,,,61,62
532080,note_on,0,0,3,,,,,,,,,,,,,,,2,,,53,62
532235,note_off,0,0,3,,,,,,,,,,,,,,,2,,,61,0
532235,note_off,0,0,3,,,,,,,,,,,,,,,2,,,53,0
532235,note_off,155,0,3,,,,,,,,,,,,,,,2,,,56,0
532235,note_off,155,0,1,,,,,,,,,,,,,,,0,,,73,0
532320,note_on,0,0,3,,,,,,,,,,,,,,,2,,,53,63
532320,note_on,85,0,1,,,,,,,,,,,,,,,0,,,73,73
532320,note_on,0,0,3,,,,,,,,,,,,,,,2,,,61,63
532320,note_on,85,0,3,,,,,,,,,,,,,,,2,,,56,63
532475,note_off,0,0,3,,,,,,,,,,,,,,,2,,,53,0
532475,note_off,0,0,3,,,,,,,,,,,,,,,2,,,61,0
532475,note_off,155,0,3,,,,,,,,,,,,,,,2,,,56,0
532475,note_off,155,0,1,,,,,,,,,,,,,,,0,,,73,0
532560,note_on,85,0,1,,,,,,,,,,,,,,,0,,,73,73
532560,note_on,0,0,3,,,,,,,,,,,,,,,2,,,56,63
532560,note_on,0,0,3,,,,,,,,,,,,,,,2,,,53,63
532560,note_on,85,0,3,,,,,,,,,,,,,,,2,,,61,63
532715,note_off,155,0,1,,,,,,,,,,,,,,,0,,,73,0
532715,note_off,0,0,3,,,,,,,,,,,,,,,2,,,56,0
532715,note_off,0,0,3,,,,,,,,,,,,,,,2,,,53,0
532715,note_off,155,0,3,,,,,,,,,,,,,,,2,,,61,0
532800,note_off,1440,0,4,,,,,,,,,,,,,,,3,,,41,0
532800,note_on,0,0,3,,,,,,,,,,,,,,,2,,,55,63
532800,note_on,85,0,3,,,,,,,,,,,,,,,2,,,60,63
532800,note_on,0,0,4,,,,,,,,,,,,,,,3,,,39,64
532800,note_on,0,0,3,,,,,,,,,,,,,,,2,,,51,63
532955,note_off,155,0,3,,,,,,,,,,,,,,,2,,,60,0
532955,note_off,0,0,3,,,,,,,,,,,,,,,2,,,55,0
532955,note_off,0,0,3,,,,,,,,,,,,,,,2,,,51,0
533040,note_on,0,0,3,,,,,,,,,,,,,,,2,,,51,64
533040,note_on,85,0,3,,,,,,,,,,,,,,,2,,,60,64
533040,note_on,0,0,3,,,,,,,,,,,,,,,2,,,55,64
533195,note_off,0,0,3,,,,,,,,,,,,,,,2,,,51,0
533195,note_off,0,0,3,,,,,,,,,,,,,,,2,,,55,0
533195,note_off,155,0,3,,,,,,,,,,,,,,,2,,,60,0
533280,note_on,0,0,3,,,,,,,,,,,,,,,2,,,55,64
533280,note_on,0,0,3,,,,,,,,,,,,,,,2,,,51,64
533280,note_on,85,0,3,,,,,,,,,,,,,,,2,,,60,64
533435,note_off,0,0,3,,,,,,,,,,,,,,,2,,,51,0
533435,note_off,0,0,3,,,,,,,,,,,,,,,2,,,55,0
533435,note_off,155,0,3,,,,,,,,,,,,,,,2,,,60,0
533520,note_on,85,0,3,,,,,,,,,,,,,,,2,,,60,64
533520,note_on,0,0,3,,,,,,,,,,,,,,,2,,,51,64
533520,note_on,0,0,3,,,,,,,,,,,,,,,2,,,55,64
533675,note_off,155,0,3,,,,,,,,,,,,,,,2,,,60,0
533675,note_off,0,0,3,,,,,,,,,,,,,,,2,,,55,0
533675,note_off,0,0,3,,,,,,,,,,,,,,,2,,,51,0
533760,note_on,85,0,3,,,,,,,,,,,,,,,2,,,60,65
533760,note_on,0,0,3,,,,,,,,,,,,,,,2,,,51,65
533760,note_on,0,0,3,,,,,,,,,,,,,,,2,,,55,65
533915,note_off,0,0,3,,,,,,,,,,,,,,,2,,,55,0
533915,note_off,155,0,3,,,,,,,,,,,,,,,2,,,60,0
533915,note_off,0,0,3,,,,,,,,,,,,,,,2,,,51,0
534000,set_tempo,3970,1,0,,,,,,,465116,,,,,,,,,,,,
534000,note_on,85,0,3,,,,,,,,,,,,,,,2,,,60,65
534000,note_on,0,0,3,,,,,,,,,,,,,,,2,,,55,65
534000,note_on,0,0,3,,,,,,,,,,,,,,,2,,,51,65
534155,note_off,155,0,3,,,,,,,,,,,,,,,2,,,60,0
534155,note_off,0,0,3,,,,,,,,,,,,,,,2,,,55,0
534155,note_off,0,0,3,,,,,,,,,,,,,,,2,,,51,0
534225,note_off,1425,0,4,,,,,,,,,,,,,,,3,,,39,0
534240,note_on,15,0,4,,,,,,,,,,,,,,,3,,,38,94
534240,note_on,0,0,3,,,,,,,,,,,,,,,2,,,53,88
534240,note_on,85,0,3,,,,,,,,,,,,,,,2,,,59,88
534240,note_on,0,0,3,,,,,,,,,,,,,,,2,,,50,88
534360,set_tempo,360,1,0,,,,,,,461538,,,,,,,,,,,,
534430,note_off,0,0,3,,,,,,,,,,,,,,,2,,,50,0
534430,note_off,0,0,3,,,,,,,,,,,,,,,2,,,53,0
534430,note_off,190,0,3,,,,,,,,,,,,,,,2,,,59,0
534480,note_on,50,0,3,,,,,,,,,,,,,,,2,,,59,74
534480,note_on,0,0,3,,,,,,,,,,,,,,,2,,,53,74
534480,note_on,0,0,3,,,,,,,,,,,,,,,2,,,50,74
534635,note_off,155,0,3,,,,,,,,,,,,,,,2,,,59,0
534635,note_off,0,0,3,,,,,,,,,,,,,,,2,,,53,0
534635,note_off,0,0,3,,,,,,,,,,,,,,,2,,,50,0
534720,note_on,0,0,3,,,,,,,,,,,,,,,2,,,50,66
534720,note_on,0,0,3,,,,,,,,,,,,,,,2,,,53,66
534720,note_on,85,0,3,,,,,,,,,,,,,,,2,,,59,66
534875,note_off,155,0,3,,,,,,,,,,,,,,,2,,,59,0
534875,note_off,0,0,3,,,,,,,,,,,,,,,2,,,53,0
534875,note_off,0,0,3,,,,,,,,,,,,,,,2,,,50,0
534960,note_on,0,0,3,,,,,,,,,,,,,,,2,,,50,66
534960,note_on,85,0,3,,,,,,,,,,,,,,,2,,,59,66
534960,note_on,0,0,3,,,,,,,,,,,,,,,2,,,53,66
535115,note_off,155,0,3,,,,,,,,,,,,,,,2,,,59,0
535115,note_off,0,0,3,,,,,,,,,,,,,,,2,,,50,0
535115,note_off,0,0,3,,,,,,,,,,,,,,,2,,,53,0
535200,note_on,0,0,3,,,,,,,,,,,,,,,2,,,53,66
535200,note_on,85,0,3,,,,,,,,,,,,,,,2,,,59,66
535200,note_on,0,0,3,,,,,,,,,,,,,,,2,,,50,66
535355,note_off,0,0,3,,,,,,,,,,,,,,,2,,,53,0
535355,note_off,0,0,3,,,,,,,,,,,,,,,2,,,50,0
535355,note_off,155,0,3,,,,,,,,,,,,,,,2,,,59,0
535440,note_on,0,0,3,,,,,,,,,,,,,,,2,,,50,67
535440,note_on,0,0,3,,,,,,,,,,,,,,,2,,,53,67
535440,note_on,85,0,3,,,,,,,,,,,,,,,2,,,59,67
535595,note_off,0,0,3,,,,,,,,,,,,,,,2,,,50,0
535595,note_off,0,0,3,,,,,,,,,,,,,,,2,,,53,0
535595,note_off,155,0,3,,,,,,,,,,,,,,,2,,,59,0
535680,note_on,0,0,3,,,,,,,,,,,,,,,2,,,53,67
535680,note_on,85,0,3,,,,,,,,,,,,,,,2,,,50,67
535680,note_off,1440,0,4,,,,,,,,,,,,,,,3,,,38,0
535680,note_on,0,0,4,,,,,,,,,,,,,,,3,,,38,67
535680,note_on,2965,0,1,,,,,,,,,,,,,,,0,,,77,83
535680,note_on,0,0,3,,,,,,,,,,,,,,,2,,,59,67
535835,note_off,0,0,3,,,,,,,,,,,,,,,2,,,53,0
535835,note_off,155,0,3,,,,,,,,,,,,,,,2,,,50,0
535835,note_off,0,0,3,,,,,,,,,,,,,,,2,,,59,0
535920,note_on,85,0,3,,,,,,,,,,,,,,,2,,,53,67
535920,note_on,0,0,1,,,,,,,,,,,,,,,0,,,74,78
535920,note_off,240,0,1,,,,,,,,,,,,,,,0,,,77,0
535920,note_on,0,0,3,,,,,,,,,,,,,,,2,,,59,67
535920,note_on,0,0,3,,,,,,,,,,,,,,,2,,,50,67
536075,note_off,155,0,3,,,,,,,,,,,,,,,2,,,53,0
536075,note_off,0,0,3,,,,,,,,,,,,,,,2,,,50,0
536075,note_off,0,0,3,,,,,,,,,,,,,,,2,,,59,0
536160,note_on,0,0,1,,,,,,,,,,,,,,,0,,,71,77
536160,note_off,240,0,1,,,,,,,,,,,,,,,0,,,74,0
536160,note_on,85,0,3,,,,,,,,,,,,,,,2,,,53,67
536160,note_on,0,0,3,,,,,,,,,,,,,,,2,,,50,67
536160,note_on,0,0,3,,,,,,,,,,,,,,,2,,,59,67
536315,note_off,0,0,3,,,,,,,,,,,,,,,2,,,50,0
536315,note_off,155,0,3,,,,,,,,,,,,,,,2,,,53,0
536315,note_off,155,0,1,,,,,,,,,,,,,,,0,,,71,0
536315,note_off,0,0,3,,,,,,,,,,,,,,,2,,,59,0
536400,note_on,0,0,3,,,,,,,,,,,,,,,2,,,50,67
536400,note_on,0,0,3,,,,,,,,,,,,,,,2,,,59,67
536400,note_on,85,0,1,,,,,,,,,,,,,,,0,,,71,77
536400,note_on,85,0,3,,,,,,,,,,,,,,,2,,,53,67
536555,note_off,155,0,3,,,,,,,,,,,,,,,2,,,53,0
536555,note_off,0,0,3,,,,,,,,,,,,,,,2,,,50,0
536555,note_off,0,0,3,,,,,,,,,,,,,,,2,,,59,0
536555,note_off,155,0,1,,,,,,,,,,,,,,,0,,,71,0
536640,note_on,85,0,3,,,,,,,,,,,,,,,2,,,53,68
536640,note_on,0,0,3,,,,,,,,,,,,,,,2,,,50,68
536640,note_on,0,0,3,,,,,,,,,,,,,,,2,,,59,68
536640,note_on,85,0,1,,,,,,,,,,,,,,,0,,,71,77
536795,note_off,155,0,3,,,,,,,,,,,,,,,2,,,53,0
536795,note_off,0,0,3,,,,,,,,,,,,,,,2,,,59,0
536795,note_off,155,0,1,,,,,,,,,,,,,,,0,,,71,0
536795,note_off,0,0,3,,,,,,,,,,,,,,,2,,,50,0
536880,note_on,85,0,1,,,,,,,,,,,,,,,0,,,71,77
536880,note_on,0,0,3,,,,,,,,,,,,,,,2,,,59,68
536880,note_on,0,0,3,,,,,,,,,,,,,,,2,,,50,68
536880,note_on,85,0,3,,,,,,,,,,,,,,,2,,,53,68
537035,note_off,0,0,3,,,,,,,,,,,,,,,2,,,50,0
537035,note_off,155,0,1,,,,,,,,,,,,,,,0,,,71,0
537035,note_off,0,0,3,,,,,,,,,,,,,,,2,,,59,0
537035,note_off,155,0,3,,,,,,,,,,,,,,,2,,,53,0
537120,note_on,1440,0,4,,,,,,,,,,,,,,,3,,,36,68
537120,note_on,85,0,3,,,,,,,,,,,,,,,2,,,56,68
537120,note_on,0,0,3,,,,,,,,,,,,,,,2,,,51,68
537120,note_on,0,0,3,,,,,,,,,,,,,,,2,,,48,68
537135,note_off,15,0,4,,,,,,,,,,,,,,,3,,,38,0
537275,note_off,0,0,3,,,,,,,,,,,,,,,2,,,51,0
537275,note_off,0,0,3,,,,,,,,,,,,,,,2,,,48,0
537275,note_off,155,0,3,,,,,,,,,,,,,,,2,,,56,0
537360,note_on,85,0,3,,,,,,,,,,,,,,,2,,,56,68
537360,note_on,0,0,3,,,,,,,,,,,,,,,2,,,51,68
537360,note_on,0,0,3,,,,,,,,,,,,,,,2,,,48,68
537515,note_off,0,0,3,,,,,,,,,,,,,,,2,,,51,0
537515,note_off,0,0,3,,,,,,,,,,,,,,,2,,,48,0
537515,note_off,155,0,3,,,,,,,,,,,,,,,2,,,56,0
537600,note_on,0,0,3,,,,,,,,,,,,,,,2,,,48,69
537600,note_on,0,0,3,,,,,,,,,,,,,,,2,,,51,69
537600,note_on,85,0,3,,,,,,,,,,,,,,,2,,,56,69
537755,note_off,155,0,3,,,,,,,,,,,,,,,2,,,56,0
537755,note_off,0,0,3,,,,,,,,,,,,,,,2,,,51,0
537755,note_off,0,0,3,,,,,,,,,,,,,,,2,,,48,0
537840,note_on,85,0,3,,,,,,,,,,,,,,,2,,,56,69
537840,note_on,0,0,3,,,,,,,,,,,,,,,2,,,51,69
537840,note_on,0,0,3,,,,,,,,,,,,,,,2,,,48,69
537995,note_off,155,0,3,,,,,,,,,,,,,,,2,,,56,0
537995,note_off,0,0,3,,,,,,,,,,,,,,,2,,,51,0
537995,note_off,0,0,3,,,,,,,,,,,,,,,2,,,48,0
538080,note_on,0,0,3,,,,,,,,,,,,,,,2,,,48,69
538080,note_on,0,0,3,,,,,,,,,,,,,,,2,,,51,69
538080,note_on,85,0,3,,,,,,,,,,,,,,,2,,,56,69
538235,note_off,155,0,3,,,,,,,,,,,,,,,2,,,56,0
538235,note_off,0,0,3,,,,,,,,,,,,,,,2,,,51,0
538235,note_off,0,0,3,,,,,,,,,,,,,,,2,,,48,0
538320,note_on,85,0,3,,,,,,,,,,,,,,,2,,,56,69
538320,note_on,0,0,3,,,,,,,,,,,,,,,2,,,51,69
538320,note_on,0,0,3,,,,,,,,,,,,,,,2,,,48,69
538320,set_tempo,3960,1,0,,,,,,,465116,,,,,,,,,,,,
538475,note_off,155,0,3,,,,,,,,,,,,,,,2,,,56,0
538475,note_off,0,0,3,,,,,,,,,,,,,,,2,,,48,0
538475,note_off,0,0,3,,,,,,,,,,,,,,,2,,,51,0
538560,note_on,1425,0,4,,,,,,,,,,,,,,,3,,,35,95
538560,note_on,85,0,3,,,,,,,,,,,,,,,2,,,50,92
538560,note_on,0,0,3,,,,,,,,,,,,,,,2,,,55,92
538560,note_on,0,0,3,,,,,,,,,,,,,,,2,,,47,92
538575,note_off,15,0,4,,,,,,,,,,,,,,,3,,,36,0
538650,set_tempo,330,1,0,,,,,,,461538,,,,,,,,,,,,
538750,note_off,190,0,3,,,,,,,,,,,,,,,2,,,50,0
538750,note_off,0,0,3,,,,,,,,,,,,,,,2,,,47,0
538750,note_off,0,0,3,,,,,,,,,,,,,,,2,,,55,0
538800,note_on,0,0,3,,,,,,,,,,,,,,,2,,,50,77
538800,note_on,0,0,3,,,,,,,,,,,,,,,2,,,47,77
538800,note_on,50,0,3,,,,,,,,,,,,,,,2,,,55,77
538955,note_off,155,0,3,,,,,,,,,,,,,,,2,,,55,0
538955,note_off,0,0,3,,,,,,,,,,,,,,,2,,,50,0
538955,note_off,0,0,3,,,,,,,,,,,,,,,2,,,47,0
539040,note_on,85,0,3,,,,,,,,,,,,,,,2,,,55,70
539040,note_on,0,0,3,,,,,,,,,,,,,,,2,,,47,70
539040,note_on,0,0,3,,,,,,,,,,,,,,,2,,,50,70
539195,note_off,155,0,3,,,,,,,,,,,,,,,2,,,55,0
539195,note_off,0,0,3,,,,,,,,,,,,,,,2,,,50,0
539195,note_off,0,0,3,,,,,,,,,,,,,,,2,,,47,0
539280,note_on,85,0,3,,,,,,,,,,,,,,,2,,,55,70
539280,note_on,0,0,3,,,,,,,,,,,,,,,2,,,50,70
539280,note_on,0,0,3,,,,,,,,,,,,,,,2,,,47,70
539435,note_off,0,0,3,,,,,,,,,,,,,,,2,,,47,0
539435,note_off,155,0,3,,,,,,,,,,,,,,,2,,,55,0
539435,note_off,0,0,3,,,,,,,,,,,,,,,2,,,50,0
539520,note_on,0,0,3,,,,,,,,,,,,,,,2,,,47,70
539520,note_on,0,0,3,,,,,,,,,,,,,,,2,,,50,70
539520,note_on,85,0,3,,,,,,,,,,,,,,,2,,,55,70
539675,note_off,0,0,3,,,,,,,,,,,,,,,2,,,47,0
539675,note_off,0,0,3,,,,,,,,,,,,,,,2,,,50,0
539675,note_off,155,0,3,,,,,,,,,,,,,,,2,,,55,0
539760,note_on,85,0,3,,,,,,,,,,,,,,,2,,,55,70
539760,note_on,0,0,3,,,,,,,,,,,,,,,2,,,50,70
539760,note_on,0,0,3,,,,,,,,,,,,,,,2,,,47,70
539915,note_off,155,0,3,,,,,,,,,,,,,,,2,,,55,0
539915,note_off,0,0,3,,,,,,,,,,,,,,,2,,,50,0
539915,note_off,0,0,3,,,,,,,,,,,,,,,2,,,47,0
540000,note_on,2965,0,1,,,,,,,,,,,,,,,0,,,86,87
540000,note_on,0,0,4,,,,,,,,,,,,,,,3,,,35,82
540000,note_off,1425,0,4,,,,,,,,,,,,,,,3,,,35,0
540000,note_on,85,0,3,,,,,,,,,,,,,,,2,,,50,82
540000,note_on,0,0,3,,,,,,,,,,,,,,,2,,,55,82
540000,note_on,0,0,3,,,,,,,,,,,,,,,2,,,47,82
540155,note_off,155,0,3,,,,,,,,,,,,,,,2,,,50,0
540155,note_off,0,0,3,,,,,,,,,,,,,,,2,,,55,0
540155,note_off,0,0,3,,,,,,,,,,,,,,,2,,,47,0
540240,note_on,85,0,3,,,,,,,,,,,,,,,2,,,50,73
540240,note_on,0,0,3,,,,,,,,,,,,,,,2,,,55,73
540240,note_on,0,0,3,,,,,,,,,,,,,,,2,,,47,73
540240,note_on,0,0,1,,,,,,,,,,,,,,,0,,,83,81
540240,note_off,240,0,1,,,,,,,,,,,,,,,0,,,86,0
540395,note_off,155,0,3,,,,,,,,,,,,,,,2,,,50,0
540395,note_off,0,0,3,,,,,,,,,,,,,,,2,,,55,0
540395,note_off,0,0,3,,,,,,,,,,,,,,,2,,,47,0
540480,note_on,0,0,1,,,,,,,,,,,,,,,0,,,77,78
540480,note_on,85,0,3,,,,,,,,,,,,,,,2,,,50,71
540480,note_on,0,0,3,,,,,,,,,,,,,,,2,,,55,71
540480,note_on,0,0,3,,,,,,,,,,,,,,,2,,,47,71
540480,note_off,240,0,1,,,,,,,,,,,,,,,0,,,83,0
540635,note_off,0,0,3,,,,,,,,,,,,,,,2,,,47,0
540635,note_off,155,0,1,,,,,,,,,,,,,,,0,,,77,0
540635,note_off,0,0,3,,,,,,,,,,,,,,,2,,,55,0
540635,note_off,155,0,3,,,,,,,,,,,,,,,2,,,50,0
540720,note_on,0,0,3,,,,,,,,,,,,,,,2,,,47,71
540720,note_on,0,0,3,,,,,,,,,,,,,,,2,,,55,71
540720,note_on,85,0,3,,,,,,,,,,,,,,,2,,,50,71
540720,note_on,85,0,1,,,,,,,,,,,,,,,0,,,77,79
540875,note_off,155,0,3,,,,,,,,,,,,,,,2,,,50,0
540875,note_off,0,0,3,,,,,,,,,,,,,,,2,,,47,0
540875,note_off,0,0,3,,,,,,,,,,,,,,,2,,,55,0
540875,note_off,155,0,1,,,,,,,,,,,,,,,0,,,77,0
540960,note_on,0,0,3,,,,,,,,,,,,,,,2,,,47,71
540960,note_on,85,0,1,,,,,,,,,,,,,,,0,,,77,79
540960,note_on,85,0,3,,,,,,,,,,,,,,,2,,,50,71
540960,note_on,0,0,3,,,,,,,,,,,,,,,2,,,55,71
541115,note_off,0,0,3,,,,,,,,,,,,,,,2,,,55,0
541115,note_off,155,0,1,,,,,,,,,,,,,,,0,,,77,0
541115,note_off,0,0,3,,,,,,,,,,,,,,,2,,,47,0
541115,note_off,155,0,3,,,,,,,,,,,,,,,2,,,50,0
541200,note_on,0,0,3,,,,,,,,,,,,,,,2,,,55,72
541200,note_on,0,0,3,,,,,,,,,,,,,,,2,,,47,72
541200,note_on,85,0,3,,,,,,,,,,,,,,,2,,,50,72
541200,note_on,85,0,1,,,,,,,,,,,,,,,0,,,77,79
541355,note_off,0,0,3,,,,,,,,,,,,,,,2,,,55,0
541355,note_off,155,0,3,,,,,,,,,,,,,,,2,,,50,0
541355,note_off,155,0,1,,,,,,,,,,,,,,,0,,,77,0
541355,note_off,0,0,3,,,,,,,,,,,,,,,2,,,47,0
541440,note_on,85,0,3,,,,,,,,,,,,,,,2,,,48,82
541440,note_on,0,0,3,,,,,,,,,,,,,,,2,,,51,82
541440,note_on,0,0,3,,,,,,,,,,,,,,,2,,,55,82
541440,note_off,1440,0,4,,,,,,,,,,,,,,,3,,,35,0
541440,note_on,0,0,4,,,,,,,,,,,,,,,3,,,36,79
541440,note_on,85,0,1,,,,,,,,,,,,,,,0,,,84,89
541595,note_off,0,0,3,,,,,,,,,,,,,,,2,,,55,0
541595,note_off,155,0,3,,,,,,,,,,,,,,,2,,,48,0
541595,note_off,0,0,3,,,,,,,,,,,,,,,2,,,51,0
541680,note_on,85,0,3,,,,,,,,,,,,,,,2,,,51,74
541680,note_on,0,0,3,,,,,,,,,,,,,,,2,,,55,74
541680,note_on,0,0,3,,,,,,,,,,,,,,,2,,,48,74
541680,note_on,0,0,1,,,,,,,,,,,,,,,0,,,79,85
541680,note_off,240,0,1,,,,,,,,,,,,,,,0,,,84,0
541835,note_off,0,0,3,,,,,,,,,,,,,,,2,,,48,0
541835,note_off,0,0,3,,,,,,,,,,,,,,,2,,,55,0
541835,note_off,155,0,3,,,,,,,,,,,,,,,2,,,51,0
541920,note_on,0,0,3,,,,,,,,,,,,,,,2,,,55,72
541920,note_on,0,0,3,,,,,,,,,,,,,,,2,,,51,72
541920,note_on,85,0,3,,,,,,,,,,,,,,,2,,,48,72
541920,note_on,0,0,1,,,,,,,,,,,,,,,0,,,75,80
541920,note_off,240,0,1,,,,,,,,,,,,,,,0,,,79,0
542075,note_off,155,0,1,,,,,,,,,,,,,,,0,,,75,0
542075,note_off,0,0,3,,,,,,,,,,,,,,,2,,,55,0
542075,note_off,0,0,3,,,,,,,,,,,,,,,2,,,51,0
542075,note_off,155,0,3,,,,,,,,,,,,,,,2,,,48,0
542160,note_on,0,0,3,,,,,,,,,,,,,,,2,,,48,73
542160,note_on,85,0,3,,,,,,,,,,,,,,,2,,,51,73
542160,note_on,0,0,3,,,,,,,,,,,,,,,2,,,55,73
542160,note_on,85,0,1,,,,,,,,,,,,,,,0,,,75,81
542315,note_off,0,0,3,,,,,,,,,,,,,,,2,,,55,0
542315,note_off,155,0,1,,,,,,,,,,,,,,,0,,,75,0
542315,note_off,155,0,3,,,,,,,,,,,,,,,2,,,51,0
542315,note_off,0,0,3,,,,,,,,,,,,,,,2,,,48,0
542400,note_on,0,0,3,,,,,,,,,,,,,,,2,,,51,73
542400,note_on,0,0,3,,,,,,,,,,,,,,,2,,,55,73
542400,note_on,85,0,1,,,,,,,,,,,,,,,0,,,75,81
542400,note_on,85,0,3,,,,,,,,,,,,,,,2,,,48,73
542555,note_off,155,0,1,,,,,,,,,,,,,,,0,,,75,0
542555,note_off,0,0,3,,,,,,,,,,,,,,,2,,,55,0
542555,note_off,0,0,3,,,,,,,,,,,,,,,2,,,51,0
542555,note_off,155,0,3,,,,,,,,,,,,,,,2,,,48,0
542640,note_on,85,0,3,,,,,,,,,,,,,,,2,,,51,73
542640,note_on,85,0,1,,,,,,,,,,,,,,,0,,,75,81
542640,note_on,0,0,3,,,,,,,,,,,,,,,2,,,55,73
542640,note_on,0,0,3,,,,,,,,,,,,,,,2,,,48,73
542795,note_off,0,0,3,,,,,,,,,,,,,,,2,,,48,0
542795,note_off,0,0,3,,,,,,,,,,,,,,,2,,,55,0
542795,note_off,155,0,1,,,,,,,,,,,,,,,0,,,75,0
542795,note_off,155,0,3,,,,,,,,,,,,,,,2,,,51,0
542880,note_on,85,0,1,,,,,,,,,,,,,,,0,,,80,89
542880,note_on,1440,0,4,,,,,,,,,,,,,,,3,,,41,96
542895,note_off,15,0,4,,,,,,,,,,,,,,,3,,,36,0
543120,note_on,0,0,1,,,,,,,,,,,,,,,0,,,77,84
543120,note_off,240,0,1,,,,,,,,,,,,,,,0,,,80,0
543120,note_on,325,0,3,,,,,,,,,,,,,,,2,,,56,77
543120,note_on,0,0,3,,,,,,,,,,,,,,,2,,,53,77
543120,note_on,0,0,3,,,,,,,,,,,,,,,2,,,61,77
543275,note_off,0,0,3,,,,,,,,,,,,,,,2,,,53,0
543275,note_off,0,0,3,,,,,,,,,,,,,,,2,,,61,0
543275,note_off,155,0,3,,,,,,,,,,,,,,,2,,,56,0
543360,note_on,0,0,3,,,,,,,,,,,,,,,2,,,68,74
543360,note_on,0,0,3,,,,,,,,,,,,,,,2,,,53,74
543360,note_on,85,0,3,,,,,,,,,,,,,,,2,,,65,74
543360,note_on,0,0,3,,,,,,,,,,,,,,,2,,,56,74
543360,note_on,0,0,3,,,,,,,,,,,,,,,2,,,61,74
543360,note_off,240,0,1,,,,,,,,,,,,,,,0,,,77,0
543360,note_on,0,0,1,,,,,,,,,,,,,,,0,,,73,82
543515,note_off,155,0,3,,,,,,,,,,,,,,,2,,,65,0
543515,note_off,155,0,1,,,,,,,,,,,,,,,0,,,73,0
543515,note_off,0,0,3,,,,,,,,,,,,,,,2,,,56,0
543515,note_off,0,0,3,,,,,,,,,,,,,,,2,,,61,0
543515,note_off,0,0,3,,,,,,,,,,,,,,,2,,,53,0
543515,note_off,0,0,3,,,,,,,,,,,,,,,2,,,68,0
543600,note_on,0,0,3,,,,,,,,,,,,,,,2,,,53,74
543600,note_on,0,0,3,,,,,,,,,,,,,,,2,,,56,74
543600,note_on,0,0,3,,,,,,,,,,,,,,,2,,,61,74
543600,note_on,85,0,3,,,,,,,,,,,,,,,2,,,65,74
543600,note_on,85,0,1,,,,,,,,,,,,,,,0,,,73,83
543600,note_on,0,0,3,,,,,,,,,,,,,,,2,,,68,74
543755,note_off,155,0,1,,,,,,,,,,,,,,,0,,,73,0
543755,note_off,155,0,3,,,,,,,,,,,,,,,2,,,65,0
543755,note_off,0,0,3,,,,,,,,,,,,,,,2,,,68,0
543755,note_off,0,0,3,,,,,,,,,,,,,,,2,,,61,0
543755,note_off,0,0,3,,,,,,,,,,,,,,,2,,,56,0
543755,note_off,0,0,3,,,,,,,,,,,,,,,2,,,53,0
543840,note_on,0,0,3,,,,,,,,,,,,,,,2,,,53,74
543840,note_on,0,0,3,,,,,,,,,,,,,,,2,,,68,74
543840,note_on,0,0,3,,,,,,,,,,,,,,,2,,,61,74
543840,note_on,85,0,1,,,,,,,,,,,,,,,0,,,73,83
543840,note_on,85,0,3,,,,,,,,,,,,,,,2,,,65,74
543840,note_on,0,0,3,,,,,,,,,,,,,,,2,,,56,74
543995,note_off,155,0,3,,,,,,,,,,,,,,,2,,,65,0
543995,note_off,0,0,3,,,,,,,,,,,,,,,2,,,68,0
543995,note_off,0,0,3,,,,,,,,,,,,,,,2,,,56,0
543995,note_off,0,0,3,,,,,,,,,,,,,,,2,,,61,0
543995,note_off,0,0,3,,,,,,,,,,,,,,,2,,,53,0
543995,note_off,155,0,1,,,,,,,,,,,,,,,0,,,73,0
544080,note_on,85,0,3,,,,,,,,,,,,,,,2,,,65,74
544080,note_on,0,0,3,,,,,,,,,,,,,,,2,,,68,74
544080,note_on,0,0,3,,,,,,,,,,,,,,,2,,,56,74
544080,note_on,85,0,1,,,,,,,,,,,,,,,0,,,73,83
544080,note_on,0,0,3,,,,,,,,,,,,,,,2,,,53,74
544080,note_on,0,0,3,,,,,,,,,,,,,,,2,,,61,74
544235,note_off,0,0,3,,,,,,,,,,,,,,,2,,,53,0
544235,note_off,0,0,3,,,,,,,,,,,,,,,2,,,61,0
544235,note_off,0,0,3,,,,,,,,,,,,,,,2,,,56,0
544235,note_off,0,0,3,,,,,,,,,,,,,,,2,,,68,0
544235,note_off,155,0,1,,,,,,,,,,,,,,,0,,,73,0
544235,note_off,155,0,3,,,,,,,,,,,,,,,2,,,65,0
544260,set_tempo,5610,1,0,,,,,,,465116,,,,,,,,,,,,
544320,note_on,0,0,4,,,,,,,,,,,,,,,3,,,41,98
544320,note_on,85,0,1,,,,,,,,,,,,,,,0,,,80,96
544320,note_off,1425,0,4,,,,,,,,,,,,,,,3,,,41,0
544430,set_tempo,170,1,0,,,,,,,461538,,,,,,,,,,,,
544560,note_on,0,0,3,,,,,,,,,,,,,,,2,,,56,79
544560,note_on,325,0,3,,,,,,,,,,,,,,,2,,,61,79
544560,note_off,240,0,1,,,,,,,,,,,,,,,0,,,80,0
544560,note_on,0,0,1,,,,,,,,,,,,,,,0,,,77,90
544560,note_on,0,0,3,,,,,,,,,,,,,,,2,,,53,79
544715,note_off,0,0,3,,,,,,,,,,,,,,,2,,,56,0
544715,note_off,155,0,3,,,,,,,,,,,,,,,2,,,61,0
544715,note_off,0,0,3,,,,,,,,,,,,,,,2,,,53,0
544800,note_off,240,0,1,,,,,,,,,,,,,,,0,,,77,0
544800,note_on,0,0,3,,,,,,,,,,,,,,,2,,,56,75
544800,note_on,85,0,3,,,,,,,,,,,,,,,2,,,65,75
544800,note_on,0,0,3,,,,,,,,,,,,,,,2,,,68,75
544800,note_on,0,0,3,,,,,,,,,,,,,,,2,,,53,75
544800,note_on,0,0,3,,,,,,,,,,,,,,,2,,,61,75
544800,note_on,0,0,1,,,,,,,,,,,,,,,0,,,73,84
544955,note_off,155,0,1,,,,,,,,,,,,,,,0,,,73,0
544955,note_off,0,0,3,,,,,,,,,,,,,,,2,,,68,0
544955,note_off,0,0,3,,,,,,,,,,,,,,,2,,,53,0
544955,note_off,155,0,3,,,,,,,,,,,,,,,2,,,65,0
544955,note_off,0,0,3,,,,,,,,,,,,,,,2,,,56,0
544955,note_off,0,0,3,,,,,,,,,,,,,,,2,,,61,0
545040,note_on,0,0,3,,,,,,,,,,,,,,,2,,,68,75
545040,note_on,85,0,1,,,,,,,,,,,,,,,0,,,73,85
545040,note_on,85,0,3,,,,,,,,,,,,,,,2,,,65,75
545040,note_on,0,0,3,,,,,,,,,,,,,,,2,,,56,75
545040,note_on,0,0,3,,,,,,,,,,,,,,,2,,,61,75
545040,note_on,0,0,3,,,,,,,,,,,,,,,2,,,53,75
545195,note_off,0,0,3,,,,,,,,,,,,,,,2,,,56,0
545195,note_off,0,0,3,,,,,,,,,,,,,,,2,,,61,0
545195,note_off,0,0,3,,,,,,,,,,,,,,,2,,,68,0
545195,note_off,0,0,3,,,,,,,,,,,,,,,2,,,53,0
545195,note_off,155,0,1,,,,,,,,,,,,,,,0,,,73,0
545195,note_off,155,0,3,,,,,,,,,,,,,,,2,,,65,0
545280,note_on,0,0,3,,,,,,,,,,,,,,,2,,,53,75
545280,note_on,85,0,3,,,,,,,,,,,,,,,2,,,65,75
545280,note_on,0,0,3,,,,,,,,,,,,,,,2,,,68,75
545280,note_on,0,0,3,,,,,,,,,,,,,,,2,,,56,75
545280,note_on,85,0,1,,,,,,,,,,,,,,,0,,,73,85
545280,note_on,0,0,3,,,,,,,,,,,,,,,2,,,61,75
545435,note_off,155,0,3,,,,,,,,,,,,,,,2,,,65,0
545435,note_off,155,0,1,,,,,,,,,,,,,,,0,,,73,0
545435,note_off,0,0,3,,,,,,,,,,,,,,,2,,,68,0
545435,note_off,0,0,3,,,,,,,,,,,,,,,2,,,53,0
545435,note_off,0,0,3,,,,,,,,,,,,,,,2,,,61,0
545435,note_off,0,0,3,,,,,,,,,,,,,,,2,,,56,0
545520,note_on,85,0,3,,,,,,,,,,,,,,,2,,,65,75
545520,note_on,0,0,3,,,,,,,,,,,,,,,2,,,68,75
545520,note_on,0,0,3,,,,,,,,,,,,,,,2,,,56,75
545520,note_on,85,0,1,,,,,,,,,,,,,,,0,,,73,85
545520,note_on,0,0,3,,,,,,,,,,,,,,,2,,,61,75
545520,note_on,0,0,3,,,,,,,,,,,,,,,2,,,53,75
545640,set_tempo,1210,1,0,,,,,,,472440,,,,,,,,,,,,
545675,note_off,155,0,3,,,,,,,,,,,,,,,2,,,65,0
545675,note_off,0,0,3,,,,,,,,,,,,,,,2,,,68,0
545675,note_off,0,0,3,,,,,,,,,,,,,,,2,,,56,0
545675,note_off,0,0,3,,,,,,,,,,,,,,,2,,,61,0
545675,note_off,0,0,3,,,,,,,,,,,,,,,2,,,53,0
545675,note_off,155,0,1,,,,,,,,,,,,,,,0,,,73,0
545760,note_off,1440,0,4,,,,,,,,,,,,,,,3,,,41,0
545760,note_on,0,0,4,,,,,,,,,,,,,,,3,,,42,101
545760,note_on,85,0,1,,,,,,,,,,,,,,,0,,,81,96
546000,note_off,240,0,1,,,,,,,,,,,,,,,0,,,81,0
546000,note_on,0,0,3,,,,,,,,,,,,,,,2,,,54,80
546000,note_on,0,0,3,,,,,,,,,,,,,,,2,,,60,80
546000,note_on,325,0,3,,,,,,,,,,,,,,,2,,,57,80
546000,note_on,0,0,1,,,,,,,,,,,,,,,0,,,75,92
546000,set_tempo,360,1,0,,,,,,,465116,,,,,,,,,,,,
546155,note_off,0,0,3,,,,,,,,,,,,,,,2,,,60,0
546155,note_off,155,0,3,,,,,,,,,,,,,,,2,,,57,0
546155,note_off,0,0,3,,,,,,,,,,,,,,,2,,,54,0
546240,note_on,0,0,3,,,,,,,,,,,,,,,2,,,60,76
546240,note_on,0,0,1,,,,,,,,,,,,,,,0,,,72,86
546240,note_off,240,0,1,,,,,,,,,,,,,,,0,,,75,0
546240,note_on,85,0,3,,,,,,,,,,,,,,,2,,,69,76
546240,note_on,0,0,3,,,,,,,,,,,,,,,2,,,63,76
546240,note_on,0,0,3,,,,,,,,,,,,,,,2,,,54,76
546240,note_on,0,0,3,,,,,,,,,,,,,,,2,,,57,76
546395,note_off,0,0,3,,,,,,,,,,,,,,,2,,,63,0
546395,note_off,155,0,1,,,,,,,,,,,,,,,0,,,72,0
546395,note_off,155,0,3,,,,,,,,,,,,,,,2,,,69,0
546395,note_off,0,0,3,,,,,,,,,,,,,,,2,,,54,0
546395,note_off,0,0,3,,,,,,,,,,,,,,,2,,,57,0
546395,note_off,0,0,3,,,,,,,,,,,,,,,2,,,60,0
546480,note_on,0,0,3,,,,,,,,,,,,,,,2,,,60,76
546480,note_on,0,0,3,,,,,,,,,,,,,,,2,,,54,76
546480,note_on,0,0,3,,,,,,,,,,,,,,,2,,,57,76
546480,note_on,0,0,3,,,,,,,,,,,,,,,2,,,63,76
546480,set_tempo,480,1,0,,,,,,,480000,,,,,,,,,,,,
546480,note_on,85,0,1,,,,,,,,,,,,,,,0,,,72,87
546480,note_on,85,0,3,,,,,,,,,,,,,,,2,,,69,76
546635,note_off,0,0,3,,,,,,,,,,,,,,,2,,,57,0
546635,note_off,155,0,1,,,,,,,,,,,,,,,0,,,72,0
546635,note_off,155,0,3,,,,,,,,,,,,,,,2,,,69,0
546635,note_off,0,0,3,,,,,,,,,,,,,,,2,,,63,0
546635,note_off,0,0,3,,,,,,,,,,,,,,,2,,,60,0
546635,note_off,0,0,3,,,,,,,,,,,,,,,2,,,54,0
546720,note_on,0,0,3,,,,,,,,,,,,,,,2,,,63,77
546720,note_on,0,0,3,,,,,,,,,,,,,,,2,,,60,77
546720,note_on,85,0,1,,,,,,,,,,,,,,,0,,,72,87
546720,note_on,0,0,3,,,,,,,,,,,,,,,2,,,54,77
546720,note_on,85,0,3,,,,,,,,,,,,,,,2,,,69,77
546720,note_on,0,0,3,,,,,,,,,,,,,,,2,,,57,77
546730,set_tempo,250,1,0,,,,,,,508474,,,,,,,,,,,,
546875,note_off,155,0,3,,,,,,,,,,,,,,,2,,,69,0
546875,note_off,0,0,3,,,,,,,,,,,,,,,2,,,60,0
546875,note_off,0,0,3,,,,,,,,,,,,,,,2,,,54,0
546875,note_off,0,0,3,,,,,,,,,,,,,,,2,,,57,0
546875,note_off,0,0,3,,,,,,,,,,,,,,,2,,,63,0
546875,note_off,155,0,1,,,,,,,,,,,,,,,0,,,72,0
546960,note_on,85,0,3,,,,,,,,,,,,,,,2,,,69,77
546960,note_on,0,0,3,,,,,,,,,,,,,,,2,,,57,77
546960,note_on,0,0,3,,,,,,,,,,,,,,,2,,,60,77
546960,set_tempo,230,1,0,,,,,,,540540,,,,,,,,,,,,
546960,note_on,85,0,1,,,,,,,,,,,,,,,0,,,72,87
546960,note_on,0,0,3,,,,,,,,,,,,,,,2,,,54,77
546960,note_on,0,0,3,,,,,,,,,,,,,,,2,,,63,77
547115,note_off,0,0,3,,,,,,,,,,,,,,,2,,,60,0
547115,note_off,155,0,1,,,,,,,,,,,,,,,0,,,72,0
547115,note_off,155,0,3,,,,,,,,,,,,,,,2,,,69,0
547115,note_off,0,0,3,,,,,,,,,,,,,,,2,,,63,0
547115,note_off,0,0,3,,,,,,,,,,,,,,,2,,,57,0
547115,note_off,0,0,3,,,,,,,,,,,,,,,2,,,54,0
547200,note_on,85,0,1,,,,,,,,,,,,,,,0,,,71,91
547200,note_on,0,0,3,,,,,,,,,,,,,,,2,,,62,84
547200,note_on,85,0,3,,,,,,,,,,,,,,,2,,,67,84
547200,note_off,1440,0,4,,,,,,,,,,,,,,,3,,,42,0
547200,note_on,0,0,4,,,,,,,,,,,,,,,3,,,43,100
547305,set_tempo,345,1,0,,,,,,,461538,,,,,,,,,,,,
547355,note_off,155,0,4,,,,,,,,,,,,,,,3,,,43,0
547440,note_on,85,0,4,,,,,,,,,,,,,,,3,,,47,86
547595,note_off,155,0,4,,,,,,,,,,,,,,,3,,,47,0
547680,note_on,85,0,4,,,,,,,,,,,,,,,3,,,50,81
547835,note_off,155,0,4,,,,,,,,,,,,,,,3,,,50,0
547920,note_on,85,0,4,,,,,,,,,,,,,,,3,,,55,76
548075,note_off,155,0,4,,,,,,,,,,,,,,,3,,,55,0
548160,note_off,960,0,1,,,,,,,,,,,,,,,0,,,71,0
548160,note_on,85,0,4,,,,,,,,,,,,,,,3,,,59,73
548160,note_off,0,0,3,,,,,,,,,,,,,,,2,,,62,0
548160,note_off,960,0,3,,,,,,,,,,,,,,,2,,,67,0
548315,note_off,155,0,4,,,,,,,,,,,,,,,3,,,59,0
548355,set_tempo,1050,1,0,,,,,,,472440,,,,,,,,,,,,
548400,note_on,85,0,4,,,,,,,,,,,,,,,3,,,62,69
548555,note_off,155,0,4,,,,,,,,,,,,,,,3,,,62,0
548640,note_on,85,0,4,,,,,,,,,,,,,,,3,,,67,69
548640,note_on,480,0,1,,,,,,,,,,,,,,,0,,,77,75
548640,set_tempo,285,1,0,,,,,,,465116,,,,,,,,,,,,
549120,note_on,48725,0,2,,,,,,,,,,,,,,,1,,,74,65
549120,note_off,480,0,4,,,,,,,,,,,,,,,3,,,67,0
549120,note_on,0,0,4,,,,,,,,,,,,,,,3,,,66,67
549600,note_on,0,0,4,,,,,,,,,,,,,,,3,,,67,66
549600,note_off,480,0,4,,,,,,,,,,,,,,,3,,,66,0
549600,note_off,480,0,2,,,,,,,,,,,,,,,1,,,74,0
549600,note_on,0,0,2,,,,,,,,,,,,,,,1,,,71,64
550080,note_on,0,0,4,,,,,,,,,,,,,,,3,,,68,65
550080,note_off,480,0,4,,,,,,,,,,,,,,,3,,,67,0
550080,note_on,0,0,2,,,,,,,,,,,,,,,1,,,72,64
550080,note_off,480,0,2,,,,,,,,,,,,,,,1,,,71,0
550560,note_on,0,0,1,,,,,,,,,,,,,,,0,,,75,72
550560,note_off,1920,0,1,,,,,,,,,,,,,,,0,,,77,0
551040,note_on,0,0,4,,,,,,,,,,,,,,,3,,,66,62
551040,note_on,960,0,2,,,,,,,,,,,,,,,1,,,69,62
551040,note_off,960,0,4,,,,,,,,,,,,,,,3,,,68,0
551045,note_off,5,0,2,,,,,,,,,,,,,,,1,,,72,0
551280,set_tempo,2640,1,0,,,,,,,468750,,,,,,,,,,,,
551520,note_on,960,0,1,,,,,,,,,,,,,,,0,,,74,71
551520,note_on,0,0,4,,,,,,,,,,,,,,,3,,,43,82
551520,note_off,480,0,4,,,,,,,,,,,,,,,3,,,66,0
551520,note_on,0,0,2,,,,,,,,,,,,,,,1,,,71,61
551520,note_off,475,0,2,,,,,,,,,,,,,,,1,,,69,0
551525,note_off,5,0,1,,,,,,,,,,,,,,,0,,,75,0
551610,set_tempo,330,1,0,,,,,,,461538,,,,,,,,,,,,
551675,note_off,155,0,4,,,,,,,,,,,,,,,3,,,43,0
551760,note_on,85,0,4,,,,,,,,,,,,,,,3,,,47,71
551915,note_off,155,0,4,,,,,,,,,,,,,,,3,,,47,0
552000,note_on,85,0,4,,,,,,,,,,,,,,,3,,,50,69
552155,note_off,155,0,4,,,,,,,,,,,,,,,3,,,50,0
552240,note_on,85,0,4,,,,,,,,,,,,,,,3,,,55,67
552395,note_off,155,0,4,,,,,,,,,,,,,,,3,,,55,0
552480,note_on,85,0,4,,,,,,,,,,,,,,,3,,,59,65
552480,note_off,955,0,1,,,,,,,,,,,,,,,0,,,74,0
552480,note_off,960,0,2,,,,,,,,,,,,,,,1,,,71,0
552635,note_off,155,0,4,,,,,,,,,,,,,,,3,,,59,0
552720,note_on,85,0,4,,,,,,,,,,,,,,,3,,,62,63
552720,set_tempo,1110,1,0,,,,,,,472440,,,,,,,,,,,,
552875,note_off,155,0,4,,,,,,,,,,,,,,,3,,,62,0
552960,set_tempo,240,1,0,,,,,,,465116,,,,,,,,,,,,
552960,note_on,480,0,1,,,,,,,,,,,,,,,0,,,77,68
552960,note_on,85,0,4,,,,,,,,,,,,,,,3,,,67,63
553440,note_on,960,0,2,,,,,,,,,,,,,,,1,,,74,58
553440,note_on,0,0,4,,,,,,,,,,,,,,,3,,,66,62
553440,note_off,480,0,4,,,,,,,,,,,,,,,3,,,67,0
553920,note_on,0,0,4,,,,,,,,,,,,,,,3,,,67,61
553920,note_off,480,0,2,,,,,,,,,,,,,,,1,,,74,0
553920,note_off,480,0,4,,,,,,,,,,,,,,,3,,,66,0
553920,note_on,0,0,2,,,,,,,,,,,,,,,1,,,71,57
554400,note_off,480,0,2,,,,,,,,,,,,,,,1,,,71,0
554400,note_on,0,0,2,,,,,,,,,,,,,,,1,,,72,56
554400,note_off,480,0,4,,,,,,,,,,,,,,,3,,,67,0
554400,note_on,0,0,4,,,,,,,,,,,,,,,3,,,68,60
554880,note_off,1920,0,1,,,,,,,,,,,,,,,0,,,77,0
554880,note_on,0,0,1,,,,,,,,,,,,,,,0,,,75,65
555360,note_on,960,0,2,,,,,,,,,,,,,,,1,,,69,54
555360,note_on,0,0,4,,,,,,,,,,,,,,,3,,,66,58
555360,note_off,960,0,4,,,,,,,,,,,,,,,3,,,68,0
555365,note_off,5,0,2,,,,,,,,,,,,,,,1,,,72,0
555600,set_tempo,2640,1,0,,,,,,,468750,,,,,,,,,,,,
555840,set_tempo,240,1,0,,,,,,,465116,,,,,,,,,,,,
555840,note_on,960,0,1,,,,,,,,,,,,,,,0,,,74,64
555840,note_on,0,0,4,,,,,,,,,,,,,,,3,,,55,57
555840,note_on,0,0,4,,,,,,,,,,,,,,,3,,,66,57
555840,note_off,480,0,4,,,,,,,,,,,,,,,3,,,66,0
555845,note_off,5,0,1,,,,,,,,,,,,,,,0,,,75,0
556320,note_on,0,0,2,,,,,,,,,,,,,,,1,,,71,52
556320,note_off,955,0,2,,,,,,,,,,,,,,,1,,,69,0
556800,note_off,960,0,4,,,,,,,,,,,,,,,3,,,66,0
556800,note_on,0,0,4,,,,,,,,,,,,,,,3,,,65,55
556800,note_off,480,0,2,,,,,,,,,,,,,,,1,,,71,0
556800,note_on,0,0,2,,,,,,,,,,,,,,,1,,,68,52
557220,set_tempo,1380,1,0,,,,,,,468750,,,,,,,,,,,,
557280,note_off,1435,0,1,,,,,,,,,,,,,,,0,,,74,0
557280,note_off,480,0,4,,,,,,,,,,,,,,,3,,,55,0
557280,note_on,0,0,4,,,,,,,,,,,,,,,3,,,55,54
557280,note_on,0,0,1,,,,,,,,,,,,,,,0,,,73,61
557280,set_tempo,60,1,0,,,,,,,465116,,,,,,,,,,,,
557760,note_off,960,0,2,,,,,,,,,,,,,,,1,,,68,0
557760,note_on,0,0,2,,,,,,,,,,,,,,,1,,,70,50
558240,note_off,960,0,4,,,,,,,,,,,,,,,3,,,65,0
558240,note_on,0,0,4,,,,,,,,,,,,,,,3,,,64,52
558240,note_on,0,0,2,,,,,,,,,,,,,,,1,,,67,49
558240,note_off,480,0,2,,,,,,,,,,,,,,,1,,,70,0
558660,set_tempo,1380,1,0,,,,,,,468750,,,,,,,,,,,,
558720,note_off,1440,0,1,,,,,,,,,,,,,,,0,,,73,0
558720,note_off,480,0,4,,,,,,,,,,,,,,,3,,,55,0
558720,note_on,0,0,4,,,,,,,,,,,,,,,3,,,55,52
558720,set_tempo,60,1,0,,,,,,,465116,,,,,,,,,,,,
558720,note_on,0,0,1,,,,,,,,,,,,,,,0,,,72,59
559200,note_on,0,0,2,,,,,,,,,,,,,,,1,,,69,47
559200,note_off,960,0,2,,,,,,,,,,,,,,,1,,,67,0
559680,note_off,960,0,4,,,,,,,,,,,,,,,3,,,64,0
559680,note_off,480,0,2,,,,,,,,,,,,,,,1,,,69,0
559680,note_on,0,0,2,,,,,,,,,,,,,,,1,,,66,47
559680,note_on,0,0,4,,,,,,,,,,,,,,,3,,,63,50
560100,set_tempo,1380,1,0,,,,,,,468750,,,,,,,,,,,,
560160,note_off,480,0,4,,,,,,,,,,,,,,,3,,,55,0
560160,note_off,1440,0,1,,,,,,,,,,,,,,,0,,,72,0
560160,set_tempo,60,1,0,,,,,,,465116,,,,,,,,,,,,
560160,note_off,0,0,4,,,,,,,,,,,,,,,3,,,63,0
560160,note_on,0,0,4,,,,,,,,,,,,,,,3,,,62,49
560160,note_on,0,0,1,,,,,,,,,,,,,,,0,,,71,57
560160,note_on,0,0,4,,,,,,,,,,,,,,,3,,,55,49
560640,note_on,0,0,2,,,,,,,,,,,,,,,1,,,68,45
560640,note_off,960,0,2,,,,,,,,,,,,,,,1,,,66,0
561120,note_off,0,0,4,,,,,,,,,,,,,,,3,,,55,0
561120,note_off,960,0,4,,,,,,,,,,,,,,,3,,,62,0
561120,note_on,0,0,2,,,,,,,,,,,,,,,1,,,65,44
561120,note_off,480,0,2,,,,,,,,,,,,,,,1,,,68,0
561600,note_off,480,0,2,,,,,,,,,,,,,,,1,,,65,0
561600,note_on,480,0,4,,,,,,,,,,,,,,,3,,,62,46
561600,note_on,0,0,4,,,,,,,,,,,,,,,3,,,55,46
561600,note_off,1440,0,1,,,,,,,,,,,,,,,0,,,71,0
562020,set_tempo,1860,1,0,,,,,,,476190,,,,,,,,,,,,
562080,note_on,480,0,2,,,,,,,,,,,,,,,1,,,67,42
562080,note_on,480,0,1,,,,,,,,,,,,,,,0,,,71,54
562080,set_tempo,60,1,0,,,,,,,468750,,,,,,,,,,,,
562560,note_off,0,0,4,,,,,,,,,,,,,,,3,,,55,0
562560,note_off,480,0,2,,,,,,,,,,,,,,,1,,,67,0
562560,note_on,0,0,2,,,,,,,,,,,,,,,1,,,65,41
562560,note_off,960,0,4,,,,,,,,,,,,,,,3,,,62,0
563040,note_on,480,0,4,,,,,,,,,,,,,,,3,,,55,43
563040,note_off,960,0,1,,,,,,,,,,,,,,,0,,,71,0
563040,note_off,480,0,2,,,,,,,,,,,,,,,1,,,65,0
563040,note_on,0,0,4,,,,,,,,,,,,,,,3,,,60,43
563460,set_tempo,1380,1,0,,,,,,,476190,,,,,,,,,,,,
563520,set_tempo,60,1,0,,,,,,,468750,,,,,,,,,,,,
563520,note_on,480,0,2,,,,,,,,,,,,,,,1,,,67,40
563520,note_on,480,0,1,,,,,,,,,,,,,,,0,,,72,51
564000,note_on,0,0,2,,,,,,,,,,,,,,,1,,,63,39
564000,note_off,480,0,2,,,,,,,,,,,,,,,1,,,67,0
564000,note_off,0,0,4,,,,,,,,,,,,,,,3,,,60,0
564000,note_off,960,0,4,,,,,,,,,,,,,,,3,,,55,0
564480,note_on,480,0,4,,,,,,,,,,,,,,,3,,,55,40
564480,note_off,480,0,2,,,,,,,,,,,,,,,1,,,63,0
564480,note_on,0,0,4,,,,,,,,,,,,,,,3,,,43,40
564495,note_off,975,0,1,,,,,,,,,,,,,,,0,,,72,0
564900,set_tempo,1380,1,0,,,,,,,476190,,,,,,,,,,,,
564960,note_on,465,0,1,,,,,,,,,,,,,,,0,,,66,49
564960,set_tempo,60,1,0,,,,,,,468750,,,,,,,,,,,,
564960,note_on,480,0,2,,,,,,,,,,,,,,,1,,,63,37
564960,note_on,0,0,2,,,,,,,,,,,,,,,1,,,60,37
565440,note_off,960,0,4,,,,,,,,,,,,,,,3,,,55,0
565440,note_off,0,0,4,,,,,,,,,,,,,,,3,,,43,0
565440,note_on,0,0,2,,,,,,,,,,,,,,,1,,,57,35
565440,note_off,480,0,2,,,,,,,,,,,,,,,1,,,60,0
565920,note_off,960,0,1,,,,,,,,,,,,,,,0,,,66,0
565920,note_on,480,0,4,,,,,,,,,,,,,,,3,,,31,37
565920,note_on,17760,0,3,,,,,,,,,,,,,,,2,,,43,37
565920,note_off,480,0,2,,,,,,,,,,,,,,,1,,,57,0
565950,note_off,30,0,2,,,,,,,,,,,,,,,1,,,63,0
566340,set_tempo,1380,1,0,,,,,,,476190,,,,,,,,,,,,
566400,set_tempo,60,1,0,,,,,,,468750,,,,,,,,,,,,
566400,note_on,480,0,1,,,,,,,,,,,,,,,0,,,60,47
566400,note_on,0,0,2,,,,,,,,,,,,,,,1,,,57,35
566400,note_on,450,0,2,,,,,,,,,,,,,,,1,,,54,35
566880,note_off,960,0,4,,,,,,,,,,,,,,,3,,,31,0
566880,note_off,960,0,3,,,,,,,,,,,,,,,2,,,43,0
566880,note_off,480,0,2,,,,,,,,,,,,,,,1,,,54,0
566880,note_on,0,0,2,,,,,,,,,,,,,,,1,,,51,33
567360,note_off,480,0,2,,,,,,,,,,,,,,,1,,,57,0
567360,note_off,0,0,2,,,,,,,,,,,,,,,1,,,51,0
567360,note_on,480,0,4,,,,,,,,,,,,,,,3,,,31,35
567360,note_on,480,0,3,,,,,,,,,,,,,,,2,,,43,35
567360,note_off,960,0,1,,,,,,,,,,,,,,,0,,,60,0
567840,note_on,0,0,2,,,,,,,,,,,,,,,1,,,48,32
567840,note_on,480,0,1,,,,,,,,,,,,,,,0,,,54,45
567840,note_on,480,0,2,,,,,,,,,,,,,,,1,,,51,32
568080,set_tempo,1680,1,0,,,,,,,480000,,,,,,,,,,,,
568305,set_tempo,225,1,0,,,,,,,540540,,,,,,,,,,,,
568320,note_off,480,0,2,,,,,,,,,,,,,,,1,,,48,0
568320,note_on,0,0,2,,,,,,,,,,,,,,,1,,,45,29
568320,note_off,960,0,4,,,,,,,,,,,,,,,3,,,31,0
568320,note_off,960,0,3,,,,,,,,,,,,,,,2,,,43,0
568790,note_off,950,0,1,,,,,,,,,,,,,,,0,,,54,0
568800,note_on,480,0,4,,,,,,,,,,,,,,,3,,,31,32
568800,note_on,10,0,1,,,,,,,,,,,,,,,0,,,55,43
568800,note_on,0,0,2,,,,,,,,,,,,,,,1,,,50,30
568800,note_off,0,0,2,,,,,,,,,,,,,,,1,,,45,0
568800,note_off,480,0,2,,,,,,,,,,,,,,,1,,,51,0
568800,note_on,480,0,3,,,,,,,,,,,,,,,2,,,43,28
568800,note_on,0,0,2,,,,,,,,,,,,,,,1,,,47,30
569040,set_tempo,735,1,0,,,,,,,461538,,,,,,,,,,,,
569280,note_off,480,0,3,,,,,,,,,,,,,,,2,,,43,0
569280,note_on,0,0,3,,,,,,,,,,,,,,,2,,,43,28
569760,note_off,0,0,2,,,,,,,,,,,,,,,1,,,47,0
569760,note_off,960,0,2,,,,,,,,,,,,,,,1,,,50,0
569760,note_off,480,0,3,,,,,,,,,,,,,,,2,,,43,0
569760,note_off,960,0,1,,,,,,,,,,,,,,,0,,,55,0
569760,note_on,0,0,3,,,,,,,,,,,,,,,2,,,43,28
570240,note_on,0,0,3,,,,,,,,,,,,,,,2,,,43,29
570240,note_off,480,0,3,,,,,,,,,,,,,,,2,,,43,0
570720,note_off,480,0,3,,,,,,,,,,,,,,,2,,,43,0
570720,note_on,0,0,3,,,,,,,,,,,,,,,2,,,43,29
570960,note_on,1200,0,1,,,,,,,,,,,,,,,0,,,55,38
570960,note_on,1200,0,2,,,,,,,,,,,,,,,1,,,47,38
571115,note_off,155,0,1,,,,,,,,,,,,,,,0,,,55,0
571115,note_off,155,0,2,,,,,,,,,,,,,,,1,,,47,0
571200,note_on,85,0,2,,,,,,,,,,,,,,,1,,,48,41
571200,note_on,85,0,1,,,,,,,,,,,,,,,0,,,57,41
571200,note_off,480,0,3,,,,,,,,,,,,,,,2,,,43,0
571200,note_on,0,0,3,,,,,,,,,,,,,,,2,,,43,30
571355,note_off,155,0,1,,,,,,,,,,,,,,,0,,,57,0
571355,note_off,155,0,2,,,,,,,,,,,,,,,1,,,48,0
571440,note_on,85,0,2,,,,,,,,,,,,,,,1,,,50,43
571440,note_on,85,0,1,,,,,,,,,,,,,,,0,,,59,43
571560,set_tempo,2520,1,0,,,,,,,465116,,,,,,,,,,,,
571595,note_off,155,0,1,,,,,,,,,,,,,,,0,,,59,0
571595,note_off,155,0,2,,,,,,,,,,,,,,,1,,,50,0
571680,note_on,85,0,1,,,,,,,,,,,,,,,0,,,60,55
571680,note_off,480,0,3,,,,,,,,,,,,,,,2,,,43,0
571680,note_on,85,0,2,,,,,,,,,,,,,,,1,,,51,55
571680,note_on,0,0,3,,,,,,,,,,,,,,,2,,,43,31
571785,set_tempo,225,1,0,,,,,,,461538,,,,,,,,,,,,
572160,note_off,480,0,3,,,,,,,,,,,,,,,2,,,43,0
572160,note_on,0,0,3,,,,,,,,,,,,,,,2,,,43,31
572415,note_off,3615,0,4,,,,,,,,,,,,,,,3,,,31,0
572640,note_on,225,0,4,,,,,,,,,,,,,,,3,,,30,39
572640,note_on,0,0,3,,,,,,,,,,,,,,,2,,,43,37
572640,note_off,480,0,3,,,,,,,,,,,,,,,2,,,43,0
573060,set_tempo,1275,1,0,,,,,,,465116,,,,,,,,,,,,
573105,note_off,1425,0,1,,,,,,,,,,,,,,,0,,,60,0
573105,note_off,1425,0,2,,,,,,,,,,,,,,,1,,,51,0
573120,note_on,15,0,1,,,,,,,,,,,,,,,0,,,59,39
573120,note_on,0,0,3,,,,,,,,,,,,,,,2,,,43,32
573120,note_on,0,0,4,,,,,,,,,,,,,,,3,,,31,34
573120,note_off,480,0,4,,,,,,,,,,,,,,,3,,,30,0
573120,note_on,15,0,2,,,,,,,,,,,,,,,1,,,50,39
573120,note_off,480,0,3,,,,,,,,,,,,,,,2,,,43,0
573230,set_tempo,170,1,0,,,,,,,461538,,,,,,,,,,,,
573600,note_off,480,0,3,,,,,,,,,,,,,,,2,,,43,0
573600,note_on,0,0,3,,,,,,,,,,,,,,,2,,,43,33
574080,note_off,480,0,3,,,,,,,,,,,,,,,2,,,43,0
574080,note_on,0,0,3,,,,,,,,,,,,,,,2,,,43,33
574080,note_off,960,0,2,,,,,,,,,,,,,,,1,,,50,0
574080,note_off,960,0,1,,,,,,,,,,,,,,,0,,,59,0
574560,note_off,480,0,3,,,,,,,,,,,,,,,2,,,43,0
574560,note_on,0,0,3,,,,,,,,,,,,,,,2,,,43,34
575040,note_off,480,0,3,,,,,,,,,,,,,,,2,,,43,0
575040,note_on,0,0,3,,,,,,,,,,,,,,,2,,,43,34
575280,note_on,1200,0,2,,,,,,,,,,,,,,,1,,,55,41
575280,note_on,1200,0,1,,,,,,,,,,,,,,,0,,,59,41
575435,note_off,155,0,2,,,,,,,,,,,,,,,1,,,55,0
575435,note_off,155,0,1,,,,,,,,,,,,,,,0,,,59,0
575520,note_on,85,0,2,,,,,,,,,,,,,,,1,,,57,45
575520,note_on,0,0,3,,,,,,,,,,,,,,,2,,,43,35
575520,note_on,85,0,1,,,,,,,,,,,,,,,0,,,60,45
575520,note_off,480,0,3,,,,,,,,,,,,,,,2,,,43,0
575675,note_off,155,0,2,,,,,,,,,,,,,,,1,,,57,0
575675,note_off,155,0,1,,,,,,,,,,,,,,,0,,,60,0
575760,note_on,85,0,1,,,,,,,,,,,,,,,0,,,62,48
575760,note_on,85,0,2,,,,,,,,,,,,,,,1,,,59,48
575880,set_tempo,2650,1,0,,,,,,,465116,,,,,,,,,,,,
575915,note_off,155,0,2,,,,,,,,,,,,,,,1,,,59,0
575915,note_off,155,0,1,,,,,,,,,,,,,,,0,,,62,0
576000,note_on,85,0,2,,,,,,,,,,,,,,,1,,,60,60
576000,note_on,85,0,1,,,,,,,,,,,,,,,0,,,63,60
576000,note_off,480,0,3,,,,,,,,,,,,,,,2,,,43,0
576000,note_on,0,0,3,,,,,,,,,,,,,,,2,,,43,35
576110,set_tempo,230,1,0,,,,,,,461538,,,,,,,,,,,,
576480,note_off,480,0,3,,,,,,,,,,,,,,,2,,,43,0
576480,note_on,0,0,3,,,,,,,,,,,,,,,2,,,43,36
576735,note_off,3615,0,4,,,,,,,,,,,,,,,3,,,31,0
576960,note_on,225,0,4,,,,,,,,,,,,,,,3,,,30,40
576960,note_on,0,0,3,,,,,,,,,,,,,,,2,,,43,40
576960,note_off,480,0,3,,,,,,,,,,,,,,,2,,,43,0
577380,set_tempo,1270,1,0,,,,,,,465116,,,,,,,,,,,,
577425,note_off,1425,0,2,,,,,,,,,,,,,,,1,,,60,0
577440,note_on,0,0,3,,,,,,,,,,,,,,,2,,,43,37
577440,note_off,480,0,3,,,,,,,,,,,,,,,2,,,43,0
577440,note_on,0,0,4,,,,,,,,,,,,,,,3,,,31,37
577440,note_off,480,0,4,,,,,,,,,,,,,,,3,,,30,0
577440,note_on,0,0,1,,,,,,,,,,,,,,,0,,,62,45
577440,note_off,1440,0,1,,,,,,,,,,,,,,,0,,,63,0
577440,note_on,15,0,2,,,,,,,,,,,,,,,1,,,59,45
577550,set_tempo,170,1,0,,,,,,,461538,,,,,,,,,,,,
577920,note_on,0,0,3,,,,,,,,,,,,,,,2,,,43,38
577920,note_off,480,0,3,,,,,,,,,,,,,,,2,,,43,0
578400,note_on,0,0,3,,,,,,,,,,,,,,,2,,,43,38
578400,note_off,480,0,3,,,,,,,,,,,,,,,2,,,43,0
578400,note_off,960,0,2,,,,,,,,,,,,,,,1,,,59,0
578400,note_off,960,0,1,,,,,,,,,,,,,,,0,,,62,0
578880,note_on,0,0,3,,,,,,,,,,,,,,,2,,,43,39
578880,note_off,480,0,3,,,,,,,,,,,,,,,2,,,43,0
579360,note_off,480,0,3,,,,,,,,,,,,,,,2,,,43,0
579360,note_on,0,0,3,,,,,,,,,,,,,,,2,,,43,39
579600,note_on,1200,0,2,,,,,,,,,,,,,,,1,,,59,48
579600,note_on,1200,0,1,,,,,,,,,,,,,,,0,,,67,48
579755,note_off,155,0,2,,,,,,,,,,,,,,,1,,,59,0
579755,note_off,155,0,1,,,,,,,,,,,,,,,0,,,67,0
579840,note_off,480,0,3,,,,,,,,,,,,,,,2,,,43,0
579840,note_on,0,0,3,,,,,,,,,,,,,,,2,,,43,40
579840,note_on,85,0,2,,,,,,,,,,,,,,,1,,,60,51
579840,note_on,85,0,1,,,,,,,,,,,,,,,0,,,69,51
579995,note_off,155,0,1,,,,,,,,,,,,,,,0,,,69,0
579995,note_off,155,0,2,,,,,,,,,,,,,,,1,,,60,0
580080,note_on,85,0,1,,,,,,,,,,,,,,,0,,,71,54
580080,note_on,85,0,2,,,,,,,,,,,,,,,1,,,62,54
580200,set_tempo,2650,1,0,,,,,,,465116,,,,,,,,,,,,
580235,note_off,155,0,1,,,,,,,,,,,,,,,0,,,71,0
580235,note_off,155,0,2,,,,,,,,,,,,,,,1,,,62,0
580320,note_on,85,0,2,,,,,,,,,,,,,,,1,,,63,67
580320,note_off,480,0,3,,,,,,,,,,,,,,,2,,,43,0
580320,note_on,0,0,3,,,,,,,,,,,,,,,2,,,43,40
580320,note_on,85,0,1,,,,,,,,,,,,,,,0,,,72,67
580430,set_tempo,230,1,0,,,,,,,461538,,,,,,,,,,,,
580800,note_off,480,0,3,,,,,,,,,,,,,,,2,,,43,0
580800,note_on,0,0,3,,,,,,,,,,,,,,,2,,,43,41
581280,note_on,0,0,3,,,,,,,,,,,,,,,2,,,43,55
581280,note_off,480,0,3,,,,,,,,,,,,,,,2,,,43,0
581280,note_on,0,0,3,,,,,,,,,,,,,,,2,,,54,55
581700,set_tempo,1270,1,0,,,,,,,465116,,,,,,,,,,,,
581760,note_on,0,0,1,,,,,,,,,,,,,,,0,,,71,51
581760,note_on,4320,0,4,,,,,,,,,,,,,,,3,,,43,42
581760,note_off,1440,0,2,,,,,,,,,,,,,,,1,,,63,0
581760,note_on,0,0,3,,,,,,,,,,,,,,,2,,,55,42
581760,note_off,480,0,3,,,,,,,,,,,,,,,2,,,43,0
581760,note_off,1440,0,1,,,,,,,,,,,,,,,0,,,72,0
581760,note_on,0,0,2,,,,,,,,,,,,,,,1,,,62,51
581760,note_off,0,0,3,,,,,,,,,,,,,,,2,,,54,0
581870,set_tempo,170,1,0,,,,,,,461538,,,,,,,,,,,,
582240,note_off,480,0,3,,,,,,,,,,,,,,,2,,,55,0
582240,note_on,0,0,3,,,,,,,,,,,,,,,2,,,55,42
582720,note_off,960,0,1,,,,,,,,,,,,,,,0,,,71,0
582720,note_off,480,0,3,,,,,,,,,,,,,,,2,,,55,0
582720,note_off,960,0,2,,,,,,,,,,,,,,,1,,,62,0
582720,note_on,0,0,3,,,,,,,,,,,,,,,2,,,55,43
583200,note_on,480,0,1,,,,,,,,,,,,,,,0,,,75,54
583200,note_on,0,0,3,,,,,,,,,,,,,,,2,,,55,43
583200,note_on,480,0,2,,,,,,,,,,,,,,,1,,,72,53
583200,note_off,480,0,3,,,,,,,,,,,,,,,2,,,55,0
583680,note_on,0,0,3,,,,,,,,,,,,,,,2,,,55,44
583680,note_off,480,0,3,,,,,,,,,,,,,,,2,,,55,0
584160,note_off,480,0,3,,,,,,,,,,,,,,,2,,,55,0
584160,note_on,0,0,3,,,,,,,,,,,,,,,2,,,55,44
584160,note_on,960,0,2,,,,,,,,,,,,,,,1,,,66,60
584580,set_tempo,2710,1,0,,,,,,,465116,,,,,,,,,,,,
584640,note_off,480,0,3,,,,,,,,,,,,,,,2,,,55,0
584640,note_off,0,0,2,,,,,,,,,,,,,,,1,,,66,0
584640,note_on,0,0,2,,,,,,,,,,,,,,,1,,,71,55
584640,note_on,0,0,2,,,,,,,,,,,,,,,1,,,67,55
584640,note_on,0,0,3,,,,,,,,,,,,,,,2,,,55,45
584640,note_off,480,0,2,,,,,,,,,,,,,,,1,,,72,0
584640,note_on,0,0,1,,,,,,,,,,,,,,,0,,,74,56
584640,note_off,1440,0,1,,,,,,,,,,,,,,,0,,,75,0
584750,set_tempo,170,1,0,,,,,,,461538,,,,,,,,,,,,
585120,note_on,0,0,3,,,,,,,,,,,,,,,2,,,55,45
585120,note_off,480,0,3,,,,,,,,,,,,,,,2,,,55,0
585600,note_off,480,0,3,,,,,,,,,,,,,,,2,,,55,0
585600,note_on,0,0,3,,,,,,,,,,,,,,,2,,,55,46
586080,note_off,480,0,3,,,,,,,,,,,,,,,2,,,55,0
586080,note_on,0,0,3,,,,,,,,,,,,,,,2,,,55,47
586080,note_off,0,0,2,,,,,,,,,,,,,,,1,,,71,0
586080,note_on,0,0,2,,,,,,,,,,,,,,,1,,,72,57
586080,note_on,0,0,1,,,,,,,,,,,,,,,0,,,75,59
586080,note_off,1440,0,1,,,,,,,,,,,,,,,0,,,74,0
586080,note_off,1440,0,2,,,,,,,,,,,,,,,1,,,67,0
586560,note_off,480,0,3,,,,,,,,,,,,,,,2,,,55,0
586560,note_on,0,0,3,,,,,,,,,,,,,,,2,,,55,47
587040,note_off,480,0,3,,,,,,,,,,,,,,,2,,,55,0
587040,note_on,0,0,3,,,,,,,,,,,,,,,2,,,55,48
587040,note_on,960,0,2,,,,,,,,,,,,,,,1,,,66,62
587460,set_tempo,2710,1,0,,,,,,,465116,,,,,,,,,,,,
587520,note_off,1440,0,1,,,,,,,,,,,,,,,0,,,75,0
587520,note_on,0,0,3,,,,,,,,,,,,,,,2,,,55,48
587520,note_off,480,0,3,,,,,,,,,,,,,,,2,,,55,0
587520,note_on,0,0,1,,,,,,,,,,,,,,,0,,,74,61
587520,note_on,0,0,2,,,,,,,,,,,,,,,1,,,71,59
587520,note_on,0,0,2,,,,,,,,,,,,,,,1,,,67,59
587520,note_off,0,0,2,,,,,,,,,,,,,,,1,,,66,0
587520,note_off,480,0,2,,,,,,,,,,,,,,,1,,,72,0
587630,set_tempo,170,1,0,,,,,,,461538,,,,,,,,,,,,
588000,note_on,0,0,3,,,,,,,,,,,,,,,2,,,55,49
588000,note_off,480,0,3,,,,,,,,,,,,,,,2,,,55,0
588480,note_on,0,0,3,,,,,,,,,,,,,,,2,,,55,49
588480,note_off,480,0,3,,,,,,,,,,,,,,,2,,,55,0
588960,note_off,0,0,2,,,,,,,,,,,,,,,1,,,71,0
588960,note_off,1440,0,1,,,,,,,,,,,,,,,0,,,74,0
588960,note_on,0,0,1,,,,,,,,,,,,,,,0,,,81,64
588960,note_on,0,0,3,,,,,,,,,,,,,,,2,,,55,50
588960,note_on,0,0,2,,,,,,,,,,,,,,,1,,,75,61
588960,note_on,0,0,2,,,,,,,,,,,,,,,1,,,72,61
588960,note_off,480,0,3,,,,,,,,,,,,,,,2,,,55,0
588960,note_off,1440,0,2,,,,,,,,,,,,,,,1,,,67,0
589440,note_off,480,0,3,,,,,,,,,,,,,,,2,,,55,0
589440,note_on,0,0,3,,,,,,,,,,,,,,,2,,,55,50
589920,note_on,960,0,2,,,,,,,,,,,,,,,1,,,66,67
589920,note_on,0,0,3,,,,,,,,,,,,,,,2,,,55,51
589920,note_off,480,0,3,,,,,,,,,,,,,,,2,,,55,0
590280,set_tempo,2650,1,0,,,,,,,465116,,,,,,,,,,,,
590400,note_on,0,0,2,,,,,,,,,,,,,,,1,,,67,58
590400,note_on,0,0,2,,,,,,,,,,,,,,,1,,,74,58
590400,note_off,0,0,2,,,,,,,,,,,,,,,1,,,66,0
590400,note_on,0,0,2,,,,,,,,,,,,,,,1,,,71,58
590400,note_off,480,0,2,,,,,,,,,,,,,,,1,,,72,0
590400,note_off,480,0,3,,,,,,,,,,,,,,,2,,,55,0
590400,note_on,0,0,1,,,,,,,,,,,,,,,0,,,79,64
590400,note_off,1440,0,1,,,,,,,,,,,,,,,0,,,81,0
590400,note_off,0,0,2,,,,,,,,,,,,,,,1,,,75,0
590400,note_on,0,0,3,,,,,,,,,,,,,,,2,,,55,51
590510,set_tempo,230,1,0,,,,,,,461538,,,,,,,,,,,,
590880,note_off,480,0,3,,,,,,,,,,,,,,,2,,,55,0
590880,note_on,0,0,3,,,,,,,,,,,,,,,2,,,55,49
591360,note_off,480,0,3,,,,,,,,,,,,,,,2,,,55,0
591360,note_on,0,0,3,,,,,,,,,,,,,,,2,,,55,47
591840,note_on,0,0,2,,,,,,,,,,,,,,,1,,,69,50
591840,note_off,1440,0,2,,,,,,,,,,,,,,,1,,,67,0
591840,note_off,0,0,2,,,,,,,,,,,,,,,1,,,71,0
591840,note_on,0,0,2,,,,,,,,,,,,,,,1,,,72,50
591840,note_off,0,0,2,,,,,,,,,,,,,,,1,,,74,0
591840,note_on,0,0,3,,,,,,,,,,,,,,,2,,,55,45
591840,note_on,0,0,1,,,,,,,,,,,,,,,0,,,77,56
591840,note_off,1440,0,1,,,,,,,,,,,,,,,0,,,79,0
591840,note_off,480,0,3,,,,,,,,,,,,,,,2,,,55,0
592195,note_off,10435,0,4,,,,,,,,,,,,,,,3,,,43,0
592320,note_on,125,0,4,,,,,,,,,,,,,,,3,,,43,43
592320,note_off,480,0,3,,,,,,,,,,,,,,,2,,,55,0
592800,note_off,480,0,4,,,,,,,,,,,,,,,3,,,43,0
592800,note_on,0,0,4,,,,,,,,,,,,,,,3,,,43,41
593280,note_off,1440,0,1,,,,,,,,,,,,,,,0,,,77,0
593280,note_off,1440,0,2,,,,,,,,,,,,,,,1,,,72,0
593280,note_on,0,0,2,,,,,,,,,,,,,,,1,,,71,43
593280,note_on,0,0,4,,,,,,,,,,,,,,,3,,,43,38
593280,note_on,0,0,2,,,,,,,,,,,,,,,1,,,67,43
593280,note_off,0,0,2,,,,,,,,,,,,,,,1,,,69,0
593280,note_off,480,0,4,,,,,,,,,,,,,,,3,,,43,0
593280,note_on,0,0,1,,,,,,,,,,,,,,,0,,,76,49
593760,note_on,0,0,4,,,,,,,,,,,,,,,3,,,43,37
593760,note_off,480,0,4,,,,,,,,,,,,,,,3,,,43,0
594240,note_off,480,0,4,,,,,,,,,,,,,,,3,,,43,0
594240,note_on,0,0,4,,,,,,,,,,,,,,,3,,,43,35
594720,note_on,0,0,1,,,,,,,,,,,,,,,0,,,74,42
594720,note_off,480,0,4,,,,,,,,,,,,,,,3,,,43,0
594720,note_on,0,0,4,,,,,,,,,,,,,,,3,,,43,33
594720,note_off,1440,0,1,,,,,,,,,,,,,,,0,,,76,0
594720,note_on,0,0,2,,,,,,,,,,,,,,,1,,,69,36
594720,note_on,0,0,2,,,,,,,,,,,,,,,1,,,65,36
594720,note_off,0,0,2,,,,,,,,,,,,,,,1,,,71,0
594720,note_off,1440,0,2,,,,,,,,,,,,,,,1,,,67,0
595200,note_on,480,0,4,,,,,,,,,,,,,,,3,,,45,30
595355,note_off,155,0,4,,,,,,,,,,,,,,,3,,,45,0
595440,note_on,85,0,4,,,,,,,,,,,,,,,3,,,47,31
595595,note_off,155,0,4,,,,,,,,,,,,,,,3,,,47,0
595680,note_on,85,0,4,,,,,,,,,,,,,,,3,,,48,31
595835,note_off,155,0,4,,,,,,,,,,,,,,,3,,,48,0
595920,note_on,85,0,4,,,,,,,,,,,,,,,3,,,50,32
596075,note_off,155,0,4,,,,,,,,,,,,,,,3,,,50,0
596160,note_off,1440,0,1,,,,,,,,,,,,,,,0,,,74,0
596160,note_on,85,0,4,,,,,,,,,,,,,,,3,,,52,33
596160,note_off,1440,0,2,,,,,,,,,,,,,,,1,,,65,0
596160,note_off,0,0,2,,,,,,,,,,,,,,,1,,,69,0
596160,note_on,0,0,2,,,,,,,,,,,,,,,1,,,67,38
596160,note_on,0,0,2,,,,,,,,,,,,,,,1,,,64,38
596160,note_on,0,0,1,,,,,,,,,,,,,,,0,,,72,38
596315,note_off,155,0,4,,,,,,,,,,,,,,,3,,,52,0
596400,note_on,85,0,4,,,,,,,,,,,,,,,3,,,53,34
596555,note_off,155,0,4,,,,,,,,,,,,,,,3,,,53,0
596630,note_off,75,0,4,,,,,,,,,,,,,,,3,,,31,0
596640,note_off,10,0,4,,,,,,,,,,,,,,,3,,,43,0
596640,note_on,0,0,4,,,,,,,,,,,,,,,3,,,55,34
596795,note_off,155,0,4,,,,,,,,,,,,,,,3,,,55,0
596880,note_on,85,0,4,,,,,,,,,,,,,,,3,,,57,35
597035,note_off,155,0,4,,,,,,,,,,,,,,,3,,,57,0
597120,note_on,85,0,4,,,,,,,,,,,,,,,3,,,59,36
597275,note_off,155,0,4,,,,,,,,,,,,,,,3,,,59,0
597360,note_on,85,0,4,,,,,,,,,,,,,,,3,,,60,37
597515,note_off,155,0,4,,,,,,,,,,,,,,,3,,,60,0
597600,note_off,1440,0,2,,,,,,,,,,,,,,,1,,,67,0
597600,note_on,0,0,4,,,,,,,,,,,,,,,3,,,62,37
597600,note_on,0,0,2,,,,,,,,,,,,,,,1,,,65,42
597600,note_off,0,0,2,,,,,,,,,,,,,,,1,,,64,0
597600,note_on,85,0,4,,,,,,,,,,,,,,,3,,,55,37
597600,note_on,0,0,1,,,,,,,,,,,,,,,0,,,71,42
597600,note_off,1440,0,1,,,,,,,,,,,,,,,0,,,72,0
597720,note_off,120,0,2,,,,,,,,,,,,,,,1,,,65,0
597720,note_off,120,0,1,,,,,,,,,,,,,,,0,,,71,0
597755,note_off,155,0,4,,,,,,,,,,,,,,,3,,,62,0
597840,note_on,120,0,1,,,,,,,,,,,,,,,0,,,73,42
597840,note_on,120,0,2,,,,,,,,,,,,,,,1,,,67,42
597840,note_on,85,0,4,,,,,,,,,,,,,,,3,,,64,38
597960,note_off,120,0,1,,,,,,,,,,,,,,,0,,,73,0
597960,note_off,120,0,2,,,,,,,,,,,,,,,1,,,67,0
597995,note_off,155,0,4,,,,,,,,,,,,,,,3,,,64,0
598080,note_on,120,0,2,,,,,,,,,,,,,,,1,,,69,43
598080,note_on,120,0,1,,,,,,,,,,,,,,,0,,,74,43
598080,note_on,85,0,4,,,,,,,,,,,,,,,3,,,65,39
598200,note_off,120,0,1,,,,,,,,,,,,,,,0,,,74,0
598200,note_off,120,0,2,,,,,,,,,,,,,,,1,,,69,0
598235,note_off,155,0,4,,,,,,,,,,,,,,,3,,,65,0
598260,set_tempo,7750,1,0,,,,,,,480000,,,,,,,,,,,,
598320,note_on,85,0,4,,,,,,,,,,,,,,,3,,,61,40
598320,note_on,120,0,2,,,,,,,,,,,,,,,1,,,67,44
598320,note_on,120,0,1,,,,,,,,,,,,,,,0,,,76,44
598440,note_off,120,0,1,,,,,,,,,,,,,,,0,,,76,0
598440,note_off,120,0,2,,,,,,,,,,,,,,,1,,,67,0
598450,set_tempo,190,1,0,,,,,,,491803,,,,,,,,,,,,
598475,note_off,155,0,4,,,,,,,,,,,,,,,3,,,61,0
598560,note_on,85,0,4,,,,,,,,,,,,,,,3,,,62,40
598560,note_on,120,0,2,,,,,,,,,,,,,,,1,,,65,44
598560,note_on,120,0,1,,,,,,,,,,,,,,,0,,,77,44
598650,set_tempo,200,1,0,,,,,,,566037,,,,,,,,,,,,
598680,note_off,120,0,1,,,,,,,,,,,,,,,0,,,77,0
598680,note_off,120,0,2,,,,,,,,,,,,,,,1,,,65,0
598715,note_off,155,0,4,,,,,,,,,,,,,,,3,,,62,0
598800,note_on,120,0,1,,,,,,,,,,,,,,,0,,,71,43
598800,set_tempo,150,1,0,,,,,,,674157,,,,,,,,,,,,
598800,note_on,85,0,4,,,,,,,,,,,,,,,3,,,62,41
598800,note_on,120,0,2,,,,,,,,,,,,,,,1,,,65,43
598920,note_off,120,0,1,,,,,,,,,,,,,,,0,,,71,0
598920,note_off,120,0,2,,,,,,,,,,,,,,,1,,,65,0
598955,note_off,155,0,4,,,,,,,,,,,,,,,3,,,62,0
598960,note_off,5,0,4,,,,,,,,,,,,,,,3,,,55,0
599040,note_on,6720,0,3,,,,,,,,,,,,,,,2,,,52,30
599040,note_on,120,0,2,,,,,,,,,,,,,,,1,,,64,38
599040,note_on,80,0,4,,,,,,,,,,,,,,,3,,,48,40
599040,note_on,120,0,1,,,,,,,,,,,,,,,0,,,72,38
599040,set_tempo,240,1,0,,,,,,,517241,,,,,,,,,,,,
599120,note_on,80,0,1,,,,,,,,,,,,,,,0,,,74,36
599140,set_tempo,100,1,0,,,,,,,472440,,,,,,,,,,,,
599160,note_off,120,0,3,,,,,,,,,,,,,,,2,,,52,0
599190,note_off,70,0,1,,,,,,,,,,,,,,,0,,,72,0
599200,note_on,10,0,1,,,,,,,,,,,,,,,0,,,72,36
599220,note_off,180,0,4,,,,,,,,,,,,,,,3,,,48,0
599270,note_off,70,0,1,,,,,,,,,,,,,,,0,,,74,0
599280,note_on,10,0,1,,,,,,,,,,,,,,,0,,,74,37
599280,note_on,120,0,3,,,,,,,,,,,,,,,2,,,55,31
599280,note_on,0,0,3,,,,,,,,,,,,,,,2,,,52,31
599350,note_off,70,0,1,,,,,,,,,,,,,,,0,,,72,0
599360,note_on,10,0,1,,,,,,,,,,,,,,,0,,,72,37
599400,note_off,120,0,3,,,,,,,,,,,,,,,2,,,55,0
599400,note_off,0,0,3,,,,,,,,,,,,,,,2,,,52,0
599430,note_off,70,0,1,,,,,,,,,,,,,,,0,,,74,0
599440,note_on,10,0,1,,,,,,,,,,,,,,,0,,,74,38
599510,note_off,70,0,1,,,,,,,,,,,,,,,0,,,72,0
599520,note_on,10,0,1,,,,,,,,,,,,,,,0,,,72,38
599520,note_on,120,0,3,,,,,,,,,,,,,,,2,,,55,31
599520,note_on,0,0,3,,,,,,,,,,,,,,,2,,,60,31
599590,note_off,70,0,1,,,,,,,,,,,,,,,0,,,74,0
599600,note_on,10,0,1,,,,,,,,,,,,,,,0,,,74,38
599640,note_off,120,0,3,,,,,,,,,,,,,,,2,,,55,0
599640,note_off,0,0,3,,,,,,,,,,,,,,,2,,,60,0
599670,note_off,70,0,1,,,,,,,,,,,,,,,0,,,72,0
599680,note_on,10,0,1,,,,,,,,,,,,,,,0,,,72,39
599750,note_off,70,0,1,,,,,,,,,,,,,,,0,,,74,0
599760,note_on,120,0,3,,,,,,,,,,,,,,,2,,,52,32
599760,note_on,10,0,1,,,,,,,,,,,,,,,0,,,74,39
599760,note_on,0,0,3,,,,,,,,,,,,,,,2,,,55,32
599830,note_off,70,0,1,,,,,,,,,,,,,,,0,,,72,0
599840,note_on,10,0,1,,,,,,,,,,,,,,,0,,,72,40
599880,note_off,120,0,3,,,,,,,,,,,,,,,2,,,52,0
599880,note_off,0,0,3,,,,,,,,,,,,,,,2,,,55,0
599910,note_off,70,0,1,,,,,,,,,,,,,,,0,,,74,0
599920,note_on,10,0,1,,,,,,,,,,,,,,,0,,,74,40
599990,note_off,70,0,1,,,,,,,,,,,,,,,0,,,72,0
600000,note_on,10,0,1,,,,,,,,,,,,,,,0,,,72,41
600000,note_off,960,0,2,,,,,,,,,,,,,,,1,,,64,0
600000,note_on,780,0,4,,,,,,,,,,,,,,,3,,,48,35
600000,note_on,120,0,3,,,,,,,,,,,,,,,2,,,52,32
600070,note_off,70,0,1,,,,,,,,,,,,,,,0,,,74,0
600080,note_on,10,0,1,,,,,,,,,,,,,,,0,,,74,41
600120,note_off,120,0,3,,,,,,,,,,,,,,,2,,,52,0
600150,note_off,70,0,1,,,,,,,,,,,,,,,0,,,72,0
600160,note_on,10,0,1,,,,,,,,,,,,,,,0,,,72,41
600180,note_off,180,0,4,,,,,,,,,,,,,,,3,,,48,0
600230,note_off,70,0,1,,,,,,,,,,,,,,,0,,,74,0
600240,note_on,0,0,3,,,,,,,,,,,,,,,2,,,55,33
600240,note_on,120,0,3,,,,,,,,,,,,,,,2,,,52,33
600240,note_on,10,0,1,,,,,,,,,,,,,,,0,,,74,42
600310,note_off,70,0,1,,,,,,,,,,,,,,,0,,,72,0
600320,note_on,10,0,1,,,,,,,,,,,,,,,0,,,72,42
600360,note_off,0,0,3,,,,,,,,,,,,,,,2,,,55,0
600360,note_off,120,0,3,,,,,,,,,,,,,,,2,,,52,0
600390,note_off,70,0,1,,,,,,,,,,,,,,,0,,,74,0
600400,note_on,10,0,1,,,,,,,,,,,,,,,0,,,74,43
600470,note_off,70,0,1,,,,,,,,,,,,,,,0,,,72,0
600480,note_on,120,0,3,,,,,,,,,,,,,,,2,,,52,34
600480,note_on,300,0,4,,,,,,,,,,,,,,,3,,,48,37
600480,note_on,10,0,1,,,,,,,,,,,,,,,0,,,72,43
600550,note_off,70,0,1,,,,,,,,,,,,,,,0,,,74,0
600560,note_on,10,0,1,,,,,,,,,,,,,,,0,,,74,44
600600,note_off,120,0,3,,,,,,,,,,,,,,,2,,,52,0
600630,note_off,70,0,1,,,,,,,,,,,,,,,0,,,72,0
600640,note_on,10,0,1,,,,,,,,,,,,,,,0,,,72,44
600660,note_off,180,0,4,,,,,,,,,,,,,,,3,,,48,0
600710,note_off,70,0,1,,,,,,,,,,,,,,,0,,,74,0
600720,note_on,120,0,3,,,,,,,,,,,,,,,2,,,52,34
600720,note_on,10,0,1,,,,,,,,,,,,,,,0,,,74,44
600720,note_on,0,0,3,,,,,,,,,,,,,,,2,,,55,34
600790,note_off,70,0,1,,,,,,,,,,,,,,,0,,,72,0
600800,note_on,10,0,1,,,,,,,,,,,,,,,0,,,72,45
600840,note_off,120,0,3,,,,,,,,,,,,,,,2,,,52,0
600840,note_off,0,0,3,,,,,,,,,,,,,,,2,,,55,0
600870,note_off,70,0,1,,,,,,,,,,,,,,,0,,,74,0
600880,note_on,10,0,1,,,,,,,,,,,,,,,0,,,74,45
600950,note_off,70,0,1,,,,,,,,,,,,,,,0,,,72,0
600960,note_on,0,0,3,,,,,,,,,,,,,,,2,,,60,35
600960,note_on,120,0,3,,,,,,,,,,,,,,,2,,,55,35
600960,note_on,10,0,1,,,,,,,,,,,,,,,0,,,72,46
601030,note_off,70,0,1,,,,,,,,,,,,,,,0,,,74,0
601040,note_on,10,0,1,,,,,,,,,,,,,,,0,,,74,46
601080,note_off,0,0,3,,,,,,,,,,,,,,,2,,,60,0
601080,note_off,120,0,3,,,,,,,,,,,,,,,2,,,55,0
601110,note_off,70,0,1,,,,,,,,,,,,,,,0,,,72,0
601120,note_on,10,0,1,,,,,,,,,,,,,,,0,,,72,47
601190,note_off,70,0,1,,,,,,,,,,,,,,,0,,,74,0
601200,note_on,10,0,1,,,,,,,,,,,,,,,0,,,74,47
601200,note_on,0,0,3,,,,,,,,,,,,,,,2,,,55,36
601200,note_on,120,0,3,,,,,,,,,,,,,,,2,,,52,36
601270,note_off,70,0,1,,,,,,,,,,,,,,,0,,,72,0
601280,note_on,10,0,1,,,,,,,,,,,,,,,0,,,72,47
601320,note_off,0,0,3,,,,,,,,,,,,,,,2,,,55,0
601320,note_off,120,0,3,,,,,,,,,,,,,,,2,,,52,0
601350,note_off,70,0,1,,,,,,,,,,,,,,,0,,,74,0
601360,note_on,10,0,1,,,,,,,,,,,,,,,0,,,74,48
601430,note_off,70,0,1,,,,,,,,,,,,,,,0,,,72,0
601440,note_on,10,0,1,,,,,,,,,,,,,,,0,,,72,48
601440,note_on,120,0,3,,,,,,,,,,,,,,,2,,,52,36
601440,note_on,780,0,4,,,,,,,,,,,,,,,3,,,48,39
601510,note_off,70,0,1,,,,,,,,,,,,,,,0,,,74,0
601520,note_on,10,0,1,,,,,,,,,,,,,,,0,,,74,49
601560,note_off,40,0,1,,,,,,,,,,,,,,,0,,,72,0
601560,note_off,120,0,3,,,,,,,,,,,,,,,2,,,52,0
601600,note_on,40,0,1,,,,,,,,,,,,,,,0,,,72,49
601620,note_off,180,0,4,,,,,,,,,,,,,,,3,,,48,0
601670,note_off,70,0,1,,,,,,,,,,,,,,,0,,,74,0
601680,note_on,10,0,1,,,,,,,,,,,,,,,0,,,71,49
601680,note_on,120,0,3,,,,,,,,,,,,,,,2,,,52,37
601680,note_on,0,0,3,,,,,,,,,,,,,,,2,,,55,37
601740,set_tempo,2600,1,0,,,,,,,476190,,,,,,,,,,,,
601775,note_off,95,0,1,,,,,,,,,,,,,,,0,,,72,0
601800,note_off,120,0,3,,,,,,,,,,,,,,,2,,,52,0
601800,note_off,0,0,3,,,,,,,,,,,,,,,2,,,55,0
601800,note_on,25,0,1,,,,,,,,,,,,,,,0,,,72,51
601810,set_tempo,70,1,0,,,,,,,483870,,,,,,,,,,,,
601905,note_off,105,0,1,,,,,,,,,,,,,,,0,,,71,0
601920,note_on,120,0,3,,,,,,,,,,,,,,,2,,,52,37
601920,note_on,15,0,1,,,,,,,,,,,,,,,0,,,76,56
601920,note_on,300,0,4,,,,,,,,,,,,,,,3,,,48,43
601930,set_tempo,120,1,0,,,,,,,472440,,,,,,,,,,,,
601965,note_off,45,0,1,,,,,,,,,,,,,,,0,,,72,0
602040,note_off,120,0,3,,,,,,,,,,,,,,,2,,,52,0
602100,note_off,180,0,4,,,,,,,,,,,,,,,3,,,48,0
602160,note_on,120,0,3,,,,,,,,,,,,,,,2,,,52,37
602160,note_on,0,0,3,,,,,,,,,,,,,,,2,,,55,37
602280,note_off,120,0,3,,,,,,,,,,,,,,,2,,,52,0
602280,note_off,0,0,3,,,,,,,,,,,,,,,2,,,55,0
602400,note_on,120,0,3,,,,,,,,,,,,,,,2,,,55,37
602400,note_on,0,0,3,,,,,,,,,,,,,,,2,,,60,37
602520,note_off,120,0,3,,,,,,,,,,,,,,,2,,,55,0
602520,note_off,0,0,3,,,,,,,,,,,,,,,2,,,60,0
602640,note_on,0,0,3,,,,,,,,,,,,,,,2,,,55,37
602640,note_on,120,0,3,,,,,,,,,,,,,,,2,,,52,37
602760,note_off,0,0,3,,,,,,,,,,,,,,,2,,,55,0
602760,note_off,120,0,3,,,,,,,,,,,,,,,2,,,52,0
602880,note_on,120,0,3,,,,,,,,,,,,,,,2,,,52,37
602880,note_on,780,0,4,,,,,,,,,,,,,,,3,,,48,41
603000,note_off,120,0,3,,,,,,,,,,,,,,,2,,,52,0
603060,note_off,180,0,4,,,,,,,,,,,,,,,3,,,48,0
603120,note_on,0,0,3,,,,,,,,,,,,,,,2,,,55,36
603120,note_on,120,0,3,,,,,,,,,,,,,,,2,,,52,36
603240,note_on,1275,0,1,,,,,,,,,,,,,,,0,,,72,50
603240,set_tempo,1310,1,0,,,,,,,491803,,,,,,,,,,,,
603240,note_off,0,0,3,,,,,,,,,,,,,,,2,,,55,0
603240,note_off,120,0,3,,,,,,,,,,,,,,,2,,,52,0
603245,note_off,5,0,1,,,,,,,,,,,,,,,0,,,76,0
603360,note_on,300,0,4,,,,,,,,,,,,,,,3,,,48,39
603360,set_tempo,120,1,0,,,,,,,472440,,,,,,,,,,,,
603360,note_on,0,0,1,,,,,,,,,,,,,,,0,,,67,49
603360,note_on,120,0,3,,,,,,,,,,,,,,,2,,,52,36
603360,note_off,115,0,1,,,,,,,,,,,,,,,0,,,72,0
603480,note_off,120,0,3,,,,,,,,,,,,,,,2,,,52,0
603540,note_off,180,0,4,,,,,,,,,,,,,,,3,,,48,0
603600,note_on,0,0,3,,,,,,,,,,,,,,,2,,,55,36
603600,note_on,120,0,3,,,,,,,,,,,,,,,2,,,52,36
603720,note_off,120,0,3,,,,,,,,,,,,,,,2,,,52,0
603720,note_off,0,0,3,,,,,,,,,,,,,,,2,,,55,0
603840,note_on,120,0,3,,,,,,,,,,,,,,,2,,,55,35
603840,note_on,0,0,3,,,,,,,,,,,,,,,2,,,60,35
603960,note_off,0,0,3,,,,,,,,,,,,,,,2,,,60,0
603960,note_off,120,0,3,,,,,,,,,,,,,,,2,,,55,0
604080,note_on,120,0,3,,,,,,,,,,,,,,,2,,,52,35
604080,note_on,0,0,3,,,,,,,,,,,,,,,2,,,55,35
604200,note_off,120,0,3,,,,,,,,,,,,,,,2,,,52,0
604200,note_off,0,0,3,,,,,,,,,,,,,,,2,,,55,0
604320,note_on,120,0,3,,,,,,,,,,,,,,,2,,,52,35
604320,note_on,780,0,4,,,,,,,,,,,,,,,3,,,48,37
604440,note_off,120,0,3,,,,,,,,,,,,,,,2,,,52,0
604500,note_off,180,0,4,,,,,,,,,,,,,,,3,,,48,0
604560,note_on,0,0,3,,,,,,,,,,,,,,,2,,,55,35
604560,note_on,120,0,3,,,,,,,,,,,,,,,2,,,52,35
604680,note_off,120,0,3,,,,,,,,,,,,,,,2,,,52,0
604680,note_off,0,0,3,,,,,,,,,,,,,,,2,,,55,0
604800,note_on,300,0,4,,,,,,,,,,,,,,,3,,,48,36
604800,note_on,120,0,3,,,,,,,,,,,,,,,2,,,52,34
604920,note_off,120,0,3,,,,,,,,,,,,,,,2,,,52,0
604980,note_off,180,0,4,,,,,,,,,,,,,,,3,,,48,0
605040,note_on,0,0,3,,,,,,,,,,,,,,,2,,,55,34
605040,note_on,120,0,3,,,,,,,,,,,,,,,2,,,52,34
605160,note_off,0,0,3,,,,,,,,,,,,,,,2,,,55,0
605160,note_off,120,0,3,,,,,,,,,,,,,,,2,,,52,0
605280,note_on,0,0,3,,,,,,,,,,,,,,,2,,,60,34
605280,note_on,120,0,3,,,,,,,,,,,,,,,2,,,55,34
605400,note_off,120,0,3,,,,,,,,,,,,,,,2,,,55,0
605400,note_off,0,0,3,,,,,,,,,,,,,,,2,,,60,0
605520,note_on,120,0,3,,,,,,,,,,,,,,,2,,,52,34
605520,note_on,0,0,3,,,,,,,,,,,,,,,2,,,55,34
605640,note_off,120,0,3,,,,,,,,,,,,,,,2,,,52,0
605640,note_off,0,0,3,,,,,,,,,,,,,,,2,,,55,0
605760,note_on,120,0,3,,,,,,,,,,,,,,,2,,,52,34
605760,note_on,2400,0,1,,,,,,,,,,,,,,,0,,,66,40
605760,note_on,780,0,4,,,,,,,,,,,,,,,3,,,48,38
605765,note_off,5,0,1,,,,,,,,,,,,,,,0,,,67,0
605880,note_off,120,0,3,,,,,,,,,,,,,,,2,,,52,0
605915,note_off,150,0,1,,,,,,,,,,,,,,,0,,,66,0
605940,note_off,180,0,4,,,,,,,,,,,,,,,3,,,48,0
606000,note_on,85,0,1,,,,,,,,,,,,,,,0,,,67,41
606000,note_on,0,0,3,,,,,,,,,,,,,,,2,,,55,34
606000,note_on,120,0,3,,,,,,,,,,,,,,,2,,,52,34
606120,note_off,0,0,3,,,,,,,,,,,,,,,2,,,55,0
606120,note_off,120,0,3,,,,,,,,,,,,,,,2,,,52,0
606155,note_off,155,0,1,,,,,,,,,,,,,,,0,,,67,0
606240,note_on,120,0,3,,,,,,,,,,,,,,,2,,,52,35
606240,note_on,300,0,4,,,,,,,,,,,,,,,3,,,48,39
606240,note_on,85,0,1,,,,,,,,,,,,,,,0,,,68,41
606360,note_off,120,0,3,,,,,,,,,,,,,,,2,,,52,0
606395,note_off,155,0,1,,,,,,,,,,,,,,,0,,,68,0
606420,note_off,180,0,4,,,,,,,,,,,,,,,3,,,48,0
606480,note_on,120,0,3,,,,,,,,,,,,,,,2,,,55,35
606480,note_on,0,0,3,,,,,,,,,,,,,,,2,,,52,35
606480,note_on,85,0,1,,,,,,,,,,,,,,,0,,,69,42
606600,note_off,120,0,3,,,,,,,,,,,,,,,2,,,55,0
606600,note_off,0,0,3,,,,,,,,,,,,,,,2,,,52,0
606635,note_off,155,0,1,,,,,,,,,,,,,,,0,,,69,0
606720,note_on,85,0,1,,,,,,,,,,,,,,,0,,,70,43
606720,note_on,0,0,3,,,,,,,,,,,,,,,2,,,60,36
606720,note_on,120,0,3,,,,,,,,,,,,,,,2,,,55,36
606840,note_off,120,0,3,,,,,,,,,,,,,,,2,,,55,0
606840,note_off,0,0,3,,,,,,,,,,,,,,,2,,,60,0
606875,note_off,155,0,1,,,,,,,,,,,,,,,0,,,70,0
606960,note_on,85,0,1,,,,,,,,,,,,,,,0,,,71,44
606960,note_on,120,0,3,,,,,,,,,,,,,,,2,,,52,36
606960,note_on,0,0,3,,,,,,,,,,,,,,,2,,,55,36
607080,note_off,120,0,3,,,,,,,,,,,,,,,2,,,52,0
607080,note_off,0,0,3,,,,,,,,,,,,,,,2,,,55,0
607115,note_off,155,0,1,,,,,,,,,,,,,,,0,,,71,0
607200,note_on,120,0,3,,,,,,,,,,,,,,,2,,,52,37
607200,note_on,780,0,4,,,,,,,,,,,,,,,3,,,48,40
607200,note_on,85,0,1,,,,,,,,,,,,,,,0,,,72,44
607320,note_off,120,0,3,,,,,,,,,,,,,,,2,,,52,0
607355,note_off,155,0,1,,,,,,,,,,,,,,,0,,,72,0
607380,note_off,180,0,4,,,,,,,,,,,,,,,3,,,48,0
607440,note_on,120,0,3,,,,,,,,,,,,,,,2,,,52,37
607440,note_on,0,0,3,,,,,,,,,,,,,,,2,,,55,37
607440,note_on,85,0,1,,,,,,,,,,,,,,,0,,,73,45
607460,set_tempo,4100,1,0,,,,,,,487804,,,,,,,,,,,,
607560,note_off,120,0,3,,,,,,,,,,,,,,,2,,,52,0
607560,note_off,0,0,3,,,,,,,,,,,,,,,2,,,55,0
607580,set_tempo,120,1,0,,,,,,,491803,,,,,,,,,,,,
607595,note_off,155,0,1,,,,,,,,,,,,,,,0,,,73,0
607680,note_on,300,0,4,,,,,,,,,,,,,,,3,,,47,41
607680,note_on,85,0,1,,,,,,,,,,,,,,,0,,,74,42
607680,note_on,120,0,3,,,,,,,,,,,,,,,2,,,53,37
607760,note_on,80,0,1,,,,,,,,,,,,,,,0,,,76,42
607800,note_off,120,0,3,,,,,,,,,,,,,,,2,,,53,0
607810,set_tempo,230,1,0,,,,,,,472440,,,,,,,,,,,,
607830,note_off,70,0,1,,,,,,,,,,,,,,,0,,,74,0
607840,note_on,10,0,1,,,,,,,,,,,,,,,0,,,74,43
607860,note_off,180,0,4,,,,,,,,,,,,,,,3,,,47,0
607910,note_off,70,0,1,,,,,,,,,,,,,,,0,,,76,0
607920,note_on,10,0,1,,,,,,,,,,,,,,,0,,,76,43
607920,note_on,0,0,3,,,,,,,,,,,,,,,2,,,55,38
607920,note_on,120,0,3,,,,,,,,,,,,,,,2,,,53,38
607990,note_off,70,0,1,,,,,,,,,,,,,,,0,,,74,0
608000,note_on,10,0,1,,,,,,,,,,,,,,,0,,,74,44
608040,note_off,120,0,3,,,,,,,,,,,,,,,2,,,53,0
608040,note_off,0,0,3,,,,,,,,,,,,,,,2,,,55,0
608070,note_off,70,0,1,,,,,,,,,,,,,,,0,,,76,0
608080,note_on,10,0,1,,,,,,,,,,,,,,,0,,,76,44
608150,note_off,70,0,1,,,,,,,,,,,,,,,0,,,74,0
608160,note_on,0,0,3,,,,,,,,,,,,,,,2,,,55,38
608160,note_on,10,0,1,,,,,,,,,,,,,,,0,,,74,45
608160,note_on,120,0,3,,,,,,,,,,,,,,,2,,,62,38
608230,note_off,70,0,1,,,,,,,,,,,,,,,0,,,76,0
608240,note_on,10,0,1,,,,,,,,,,,,,,,0,,,76,45
608280,note_off,120,0,3,,,,,,,,,,,,,,,2,,,62,0
608280,note_off,0,0,3,,,,,,,,,,,,,,,2,,,55,0
608310,note_off,70,0,1,,,,,,,,,,,,,,,0,,,74,0
608320,note_on,10,0,1,,,,,,,,,,,,,,,0,,,74,46
608390,note_off,70,0,1,,,,,,,,,,,,,,,0,,,76,0
608400,note_on,120,0,3,,,,,,,,,,,,,,,2,,,53,39
608400,note_on,10,0,1,,,,,,,,,,,,,,,0,,,76,47
608400,note_on,0,0,3,,,,,,,,,,,,,,,2,,,55,39
608470,note_off,70,0,1,,,,,,,,,,,,,,,0,,,74,0
608480,note_on,10,0,1,,,,,,,,,,,,,,,0,,,74,47
608520,note_off,0,0,3,,,,,,,,,,,,,,,2,,,55,0
608520,note_off,120,0,3,,,,,,,,,,,,,,,2,,,53,0
608550,note_off,70,0,1,,,,,,,,,,,,,,,0,,,76,0
608560,note_on,10,0,1,,,,,,,,,,,,,,,0,,,76,48
608630,note_off,70,0,1,,,,,,,,,,,,,,,0,,,74,0
608640,note_on,780,0,4,,,,,,,,,,,,,,,3,,,47,42
608640,note_on,10,0,1,,,,,,,,,,,,,,,0,,,74,48
608640,note_on,120,0,3,,,,,,,,,,,,,,,2,,,53,39
608710,note_off,70,0,1,,,,,,,,,,,,,,,0,,,76,0
608720,note_on,10,0,1,,,,,,,,,,,,,,,0,,,76,49
608760,note_off,120,0,3,,,,,,,,,,,,,,,2,,,53,0
608790,note_off,70,0,1,,,,,,,,,,,,,,,0,,,74,0
608800,note_on,10,0,1,,,,,,,,,,,,,,,0,,,74,49
608820,note_off,180,0,4,,,,,,,,,,,,,,,3,,,47,0
608870,note_off,70,0,1,,,,,,,,,,,,,,,0,,,76,0
608880,note_on,120,0,3,,,,,,,,,,,,,,,2,,,53,40
608880,note_on,10,0,1,,,,,,,,,,,,,,,0,,,76,50
608880,note_on,0,0,3,,,,,,,,,,,,,,,2,,,55,40
608950,note_off,70,0,1,,,,,,,,,,,,,,,0,,,74,0
608960,note_on,10,0,1,,,,,,,,,,,,,,,0,,,74,50
609000,note_off,120,0,3,,,,,,,,,,,,,,,2,,,53,0
609000,note_off,0,0,3,,,,,,,,,,,,,,,2,,,55,0
609030,note_off,70,0,1,,,,,,,,,,,,,,,0,,,76,0
609040,note_on,10,0,1,,,,,,,,,,,,,,,0,,,76,51
609110,note_off,70,0,1,,,,,,,,,,,,,,,0,,,74,0
609120,note_on,120,0,3,,,,,,,,,,,,,,,2,,,53,40
609120,note_on,300,0,4,,,,,,,,,,,,,,,3,,,47,42
609120,note_on,10,0,1,,,,,,,,,,,,,,,0,,,74,51
609190,note_off,70,0,1,,,,,,,,,,,,,,,0,,,76,0
609200,note_on,10,0,1,,,,,,,,,,,,,,,0,,,76,52
609240,note_off,120,0,3,,,,,,,,,,,,,,,2,,,53,0
609270,note_off,70,0,1,,,,,,,,,,,,,,,0,,,74,0
609280,note_on,10,0,1,,,,,,,,,,,,,,,0,,,74,52
609300,note_off,180,0,4,,,,,,,,,,,,,,,3,,,47,0
609350,note_off,70,0,1,,,,,,,,,,,,,,,0,,,76,0
609360,note_on,0,0,3,,,,,,,,,,,,,,,2,,,55,40
609360,note_on,120,0,3,,,,,,,,,,,,,,,2,,,53,40
609360,note_on,10,0,1,,,,,,,,,,,,,,,0,,,76,53
609430,note_off,70,0,1,,,,,,,,,,,,,,,0,,,74,0
609440,note_on,10,0,1,,,,,,,,,,,,,,,0,,,74,53
609480,note_off,0,0,3,,,,,,,,,,,,,,,2,,,55,0
609480,note_off,120,0,3,,,,,,,,,,,,,,,2,,,53,0
609505,note_off,65,0,1,,,,,,,,,,,,,,,0,,,76,0
609520,note_on,15,0,1,,,,,,,,,,,,,,,0,,,76,54
609585,note_off,65,0,1,,,,,,,,,,,,,,,0,,,74,0
609600,note_on,120,0,3,,,,,,,,,,,,,,,2,,,62,41
609600,note_on,0,0,3,,,,,,,,,,,,,,,2,,,55,41
609600,note_on,15,0,1,,,,,,,,,,,,,,,0,,,74,54
609670,note_off,70,0,1,,,,,,,,,,,,,,,0,,,76,0
609680,note_on,10,0,1,,,,,,,,,,,,,,,0,,,76,55
609720,note_off,120,0,3,,,,,,,,,,,,,,,2,,,62,0
609720,note_off,0,0,3,,,,,,,,,,,,,,,2,,,55,0
609750,note_off,70,0,1,,,,,,,,,,,,,,,0,,,74,0
609760,note_on,10,0,1,,,,,,,,,,,,,,,0,,,74,56
609830,note_off,70,0,1,,,,,,,,,,,,,,,0,,,76,0
609840,note_on,10,0,1,,,,,,,,,,,,,,,0,,,76,56
609840,note_on,120,0,3,,,,,,,,,,,,,,,2,,,53,41
609840,note_on,0,0,3,,,,,,,,,,,,,,,2,,,55,41
609910,note_off,70,0,1,,,,,,,,,,,,,,,0,,,74,0
609920,note_on,10,0,1,,,,,,,,,,,,,,,0,,,74,57
609960,note_off,120,0,3,,,,,,,,,,,,,,,2,,,53,0
609960,note_off,0,0,3,,,,,,,,,,,,,,,2,,,55,0
609990,note_off,70,0,1,,,,,,,,,,,,,,,0,,,76,0
610000,note_on,10,0,1,,,,,,,,,,,,,,,0,,,76,57
610070,note_off,70,0,1,,,,,,,,,,,,,,,0,,,74,0
610080,note_on,120,0,3,,,,,,,,,,,,,,,2,,,53,42
610080,note_on,780,0,4,,,,,,,,,,,,,,,3,,,47,44
610080,note_on,10,0,1,,,,,,,,,,,,,,,0,,,74,58
610150,note_off,70,0,1,,,,,,,,,,,,,,,0,,,76,0
610160,note_on,10,0,1,,,,,,,,,,,,,,,0,,,76,58
610200,note_off,120,0,3,,,,,,,,,,,,,,,2,,,53,0
610230,note_off,70,0,1,,,,,,,,,,,,,,,0,,,74,0
610240,note_on,10,0,1,,,,,,,,,,,,,,,0,,,74,59
610260,note_off,180,0,4,,,,,,,,,,,,,,,3,,,47,0
610310,note_off,70,0,1,,,,,,,,,,,,,,,0,,,76,0
610320,note_on,10,0,1,,,,,,,,,,,,,,,0,,,73,59
610320,note_on,0,0,3,,,,,,,,,,,,,,,2,,,55,42
610320,note_on,120,0,3,,,,,,,,,,,,,,,2,,,53,42
610380,set_tempo,2570,1,0,,,,,,,476190,,,,,,,,,,,,
610430,set_tempo,50,1,0,,,,,,,483870,,,,,,,,,,,,
610430,note_off,110,0,1,,,,,,,,,,,,,,,0,,,74,0
610440,note_off,120,0,3,,,,,,,,,,,,,,,2,,,53,0
610440,note_off,0,0,3,,,,,,,,,,,,,,,2,,,55,0
610440,note_on,10,0,1,,,,,,,,,,,,,,,0,,,74,60
610545,note_off,105,0,1,,,,,,,,,,,,,,,0,,,73,0
610560,note_on,120,0,3,,,,,,,,,,,,,,,2,,,53,43
610560,set_tempo,130,1,0,,,,,,,472440,,,,,,,,,,,,
610560,note_on,300,0,4,,,,,,,,,,,,,,,3,,,47,44
610560,note_on,15,0,1,,,,,,,,,,,,,,,0,,,77,63
610620,note_off,60,0,1,,,,,,,,,,,,,,,0,,,74,0
610680,note_off,120,0,3,,,,,,,,,,,,,,,2,,,53,0
610740,note_off,180,0,4,,,,,,,,,,,,,,,3,,,47,0
610800,note_on,120,0,3,,,,,,,,,,,,,,,2,,,53,43
610800,note_on,0,0,3,,,,,,,,,,,,,,,2,,,55,43
610920,note_off,0,0,3,,,,,,,,,,,,,,,2,,,55,0
610920,note_off,120,0,3,,,,,,,,,,,,,,,2,,,53,0
611040,note_on,120,0,3,,,,,,,,,,,,,,,2,,,62,43
611040,note_on,0,0,3,,,,,,,,,,,,,,,2,,,55,43
611160,note_off,120,0,3,,,,,,,,,,,,,,,2,,,62,0
611160,note_off,0,0,3,,,,,,,,,,,,,,,2,,,55,0
611280,note_on,120,0,3,,,,,,,,,,,,,,,2,,,53,42
611280,note_on,0,0,3,,,,,,,,,,,,,,,2,,,55,42
611400,note_off,0,0,3,,,,,,,,,,,,,,,2,,,55,0
611400,note_off,120,0,3,,,,,,,,,,,,,,,2,,,53,0
611520,note_on,780,0,4,,,,,,,,,,,,,,,3,,,47,45
611520,note_on,120,0,3,,,,,,,,,,,,,,,2,,,53,42
611640,note_off,120,0,3,,,,,,,,,,,,,,,2,,,53,0
611700,note_off,180,0,4,,,,,,,,,,,,,,,3,,,47,0
611760,note_on,0,0,3,,,,,,,,,,,,,,,2,,,55,42
611760,note_on,120,0,3,,,,,,,,,,,,,,,2,,,53,42
611880,note_off,120,0,3,,,,,,,,,,,,,,,2,,,53,0
611880,note_off,0,0,3,,,,,,,,,,,,,,,2,,,55,0
611880,set_tempo,1320,1,0,,,,,,,491803,,,,,,,,,,,,
611880,note_off,1260,0,1,,,,,,,,,,,,,,,0,,,77,0
611880,note_on,0,0,1,,,,,,,,,,,,,,,0,,,74,58
612000,note_on,300,0,4,,,,,,,,,,,,,,,3,,,47,44
612000,note_on,120,0,3,,,,,,,,,,,,,,,2,,,53,41
612000,set_tempo,120,1,0,,,,,,,472440,,,,,,,,,,,,
612000,note_on,0,0,1,,,,,,,,,,,,,,,0,,,67,56
612000,note_off,120,0,1,,,,,,,,,,,,,,,0,,,74,0
612120,note_off,120,0,3,,,,,,,,,,,,,,,2,,,53,0
612180,note_off,180,0,4,,,,,,,,,,,,,,,3,,,47,0
612240,note_on,120,0,3,,,,,,,,,,,,,,,2,,,53,41
612240,note_on,0,0,3,,,,,,,,,,,,,,,2,,,55,41
612360,note_off,0,0,3,,,,,,,,,,,,,,,2,,,55,0
612360,note_off,120,0,3,,,,,,,,,,,,,,,2,,,53,0
612480,note_on,0,0,3,,,,,,,,,,,,,,,2,,,55,40
612480,note_on,120,0,3,,,,,,,,,,,,,,,2,,,62,40
612600,note_off,120,0,3,,,,,,,,,,,,,,,2,,,62,0
612600,note_off,0,0,3,,,,,,,,,,,,,,,2,,,55,0
612720,note_on,0,0,3,,,,,,,,,,,,,,,2,,,55,40
612720,note_on,120,0,3,,,,,,,,,,,,,,,2,,,53,40
612840,note_off,0,0,3,,,,,,,,,,,,,,,2,,,55,0
612840,note_off,120,0,3,,,,,,,,,,,,,,,2,,,53,0
612960,note_on,780,0,4,,,,,,,,,,,,,,,3,,,47,42
612960,note_on,120,0,3,,,,,,,,,,,,,,,2,,,53,40
613080,note_off,120,0,3,,,,,,,,,,,,,,,2,,,53,0
613140,note_off,180,0,4,,,,,,,,,,,,,,,3,,,47,0
613200,note_on,120,0,3,,,,,,,,,,,,,,,2,,,53,39
613200,note_on,0,0,3,,,,,,,,,,,,,,,2,,,55,39
613320,note_off,0,0,3,,,,,,,,,,,,,,,2,,,55,0
613320,note_off,120,0,3,,,,,,,,,,,,,,,2,,,53,0
613440,note_on,300,0,4,,,,,,,,,,,,,,,3,,,47,41
613440,note_on,120,0,3,,,,,,,,,,,,,,,2,,,53,39
613560,note_off,120,0,3,,,,,,,,,,,,,,,2,,,53,0
613620,note_off,180,0,4,,,,,,,,,,,,,,,3,,,47,0
613680,note_on,0,0,3,,,,,,,,,,,,,,,2,,,55,39
613680,note_on,120,0,3,,,,,,,,,,,,,,,2,,,53,39
613800,note_off,0,0,3,,,,,,,,,,,,,,,2,,,55,0
613800,note_off,120,0,3,,,,,,,,,,,,,,,2,,,53,0
613920,note_on,120,0,3,,,,,,,,,,,,,,,2,,,62,38
613920,note_on,0,0,3,,,,,,,,,,,,,,,2,,,55,38
614040,note_off,120,0,3,,,,,,,,,,,,,,,2,,,62,0
614040,note_off,0,0,3,,,,,,,,,,,,,,,2,,,55,0
614160,note_on,0,0,3,,,,,,,,,,,,,,,2,,,55,38
614160,note_on,120,0,3,,,,,,,,,,,,,,,2,,,53,38
614280,note_off,0,0,3,,,,,,,,,,,,,,,2,,,55,0
614280,note_off,120,0,3,,,,,,,,,,,,,,,2,,,53,0
614390,note_off,2390,0,1,,,,,,,,,,,,,,,0,,,67,0
614400,note_on,120,0,3,,,,,,,,,,,,,,,2,,,53,39
614400,note_on,10,0,1,,,,,,,,,,,,,,,0,,,67,54
614400,note_on,780,0,4,,,,,,,,,,,,,,,3,,,47,42
614520,note_off,120,0,3,,,,,,,,,,,,,,,2,,,53,0
614555,note_off,155,0,1,,,,,,,,,,,,,,,0,,,67,0
614580,note_off,180,0,4,,,,,,,,,,,,,,,3,,,47,0
614640,note_on,0,0,3,,,,,,,,,,,,,,,2,,,55,39
614640,note_on,120,0,3,,,,,,,,,,,,,,,2,,,53,39
614640,note_on,85,0,1,,,,,,,,,,,,,,,0,,,69,55
614760,note_off,0,0,3,,,,,,,,,,,,,,,2,,,55,0
614760,note_off,120,0,3,,,,,,,,,,,,,,,2,,,53,0
614795,note_off,155,0,1,,,,,,,,,,,,,,,0,,,69,0
614880,note_on,85,0,1,,,,,,,,,,,,,,,0,,,70,56
614880,note_on,300,0,4,,,,,,,,,,,,,,,3,,,47,43
614880,note_on,120,0,3,,,,,,,,,,,,,,,2,,,53,39
615000,note_off,120,0,3,,,,,,,,,,,,,,,2,,,53,0
615035,note_off,155,0,1,,,,,,,,,,,,,,,0,,,70,0
615060,note_off,180,0,4,,,,,,,,,,,,,,,3,,,47,0
615120,note_on,120,0,3,,,,,,,,,,,,,,,2,,,53,40
615120,note_on,85,0,1,,,,,,,,,,,,,,,0,,,71,57
615120,note_on,0,0,3,,,,,,,,,,,,,,,2,,,55,40
615240,note_off,120,0,3,,,,,,,,,,,,,,,2,,,53,0
615240,note_off,0,0,3,,,,,,,,,,,,,,,2,,,55,0
615275,note_off,155,0,1,,,,,,,,,,,,,,,0,,,71,0
615360,note_on,120,0,3,,,,,,,,,,,,,,,2,,,55,40
615360,note_on,0,0,3,,,,,,,,,,,,,,,2,,,62,40
615360,note_on,85,0,1,,,,,,,,,,,,,,,0,,,72,58
615480,note_off,120,0,3,,,,,,,,,,,,,,,2,,,55,0
615480,note_off,0,0,3,,,,,,,,,,,,,,,2,,,62,0
615515,note_off,155,0,1,,,,,,,,,,,,,,,0,,,72,0
615600,note_on,120,0,3,,,,,,,,,,,,,,,2,,,53,40
615600,note_on,85,0,1,,,,,,,,,,,,,,,0,,,73,59
615600,note_on,0,0,3,,,,,,,,,,,,,,,2,,,55,40
615720,note_off,0,0,3,,,,,,,,,,,,,,,2,,,55,0
615720,note_off,120,0,3,,,,,,,,,,,,,,,2,,,53,0
615755,note_off,155,0,1,,,,,,,,,,,,,,,0,,,73,0
615840,note_on,780,0,4,,,,,,,,,,,,,,,3,,,47,43
615840,note_on,120,0,3,,,,,,,,,,,,,,,2,,,53,40
615840,note_on,85,0,1,,,,,,,,,,,,,,,0,,,74,60
615960,note_off,120,0,3,,,,,,,,,,,,,,,2,,,53,0
615960,set_tempo,3960,1,0,,,,,,,487804,,,,,,,,,,,,
615995,note_off,155,0,1,,,,,,,,,,,,,,,0,,,74,0
616020,note_off,180,0,4,,,,,,,,,,,,,,,3,,,47,0
616080,set_tempo,120,1,0,,,,,,,500000,,,,,,,,,,,,
616080,note_on,120,0,3,,,,,,,,,,,,,,,2,,,53,40
616080,note_on,0,0,3,,,,,,,,,,,,,,,2,,,55,40
616080,note_on,85,0,1,,,,,,,,,,,,,,,0,,,75,61
616200,note_off,120,0,3,,,,,,,,,,,,,,,2,,,53,0
616200,note_off,0,0,3,,,,,,,,,,,,,,,2,,,55,0
616235,note_off,155,0,1,,,,,,,,,,,,,,,0,,,75,0
616240,note_on,16240,0,2,,,,,,,,,,,,,,,1,,,64,66
616320,note_on,85,0,1,,,,,,,,,,,,,,,0,,,76,71
616320,note_on,300,0,4,,,,,,,,,,,,,,,3,,,48,56
616320,set_tempo,240,1,0,,,,,,,472440,,,,,,,,,,,,
616560,note_on,360,0,3,,,,,,,,,,,,,,,2,,,55,40
616680,note_off,120,0,3,,,,,,,,,,,,,,,2,,,55,0
616800,note_on,120,0,3,,,,,,,,,,,,,,,2,,,60,40
616920,note_off,120,0,3,,,,,,,,,,,,,,,2,,,60,0
617040,note_on,120,0,3,,,,,,,,,,,,,,,2,,,55,41
617160,note_off,120,0,3,,,,,,,,,,,,,,,2,,,55,0
617280,note_on,120,0,3,,,,,,,,,,,,,,,2,,,52,41
617400,note_off,120,0,3,,,,,,,,,,,,,,,2,,,52,0
617520,note_on,120,0,3,,,,,,,,,,,,,,,2,,,48,42
617590,note_off,1270,0,4,,,,,,,,,,,,,,,3,,,48,0
617640,set_tempo,1320,1,0,,,,,,,487804,,,,,,,,,,,,
617640,note_off,120,0,3,,,,,,,,,,,,,,,2,,,48,0
617660,note_off,1340,0,1,,,,,,,,,,,,,,,0,,,76,0
617680,note_on,1440,0,2,,,,,,,,,,,,,,,1,,,65,67
617685,note_off,5,0,2,,,,,,,,,,,,,,,1,,,64,0
617760,note_on,100,0,1,,,,,,,,,,,,,,,0,,,77,73
617760,set_tempo,120,1,0,,,,,,,472440,,,,,,,,,,,,
617760,note_on,170,0,4,,,,,,,,,,,,,,,3,,,45,57
618000,note_on,360,0,3,,,,,,,,,,,,,,,2,,,57,43
618120,note_off,120,0,3,,,,,,,,,,,,,,,2,,,57,0
618240,note_on,120,0,3,,,,,,,,,,,,,,,2,,,60,43
618360,note_off,120,0,3,,,,,,,,,,,,,,,2,,,60,0
618480,note_on,120,0,3,,,,,,,,,,,,,,,2,,,57,43
618600,note_off,120,0,3,,,,,,,,,,,,,,,2,,,57,0
618720,note_on,120,0,3,,,,,,,,,,,,,,,2,,,53,44
618840,note_off,120,0,3,,,,,,,,,,,,,,,2,,,53,0
618960,note_on,120,0,3,,,,,,,,,,,,,,,2,,,48,44
619030,note_off,1270,0,4,,,,,,,,,,,,,,,3,,,45,0
619080,note_off,120,0,3,,,,,,,,,,,,,,,2,,,48,0
619080,set_tempo,1320,1,0,,,,,,,487804,,,,,,,,,,,,
619095,note_off,1335,0,1,,,,,,,,,,,,,,,0,,,77,0
619095,note_off,1410,0,2,,,,,,,,,,,,,,,1,,,65,0
619120,note_on,25,0,2,,,,,,,,,,,,,,,1,,,67,72
619200,note_on,105,0,1,,,,,,,,,,,,,,,0,,,79,77
619200,note_on,170,0,4,,,,,,,,,,,,,,,3,,,40,58
619200,set_tempo,120,1,0,,,,,,,472440,,,,,,,,,,,,
619440,note_on,360,0,3,,,,,,,,,,,,,,,2,,,55,45
619560,note_off,120,0,3,,,,,,,,,,,,,,,2,,,55,0
619680,note_on,120,0,3,,,,,,,,,,,,,,,2,,,60,46
619800,note_off,120,0,3,,,,,,,,,,,,,,,2,,,60,0
619920,note_on,120,0,3,,,,,,,,,,,,,,,2,,,55,46
620040,note_off,120,0,3,,,,,,,,,,,,,,,2,,,55,0
620160,note_on,120,0,3,,,,,,,,,,,,,,,2,,,52,46
620280,note_off,120,0,3,,,,,,,,,,,,,,,2,,,52,0
620400,note_on,120,0,3,,,,,,,,,,,,,,,2,,,48,47
620470,note_off,1270,0,4,,,,,,,,,,,,,,,3,,,40,0
620520,set_tempo,1320,1,0,,,,,,,487804,,,,,,,,,,,,
620520,note_off,120,0,3,,,,,,,,,,,,,,,2,,,48,0
620625,note_off,1505,0,2,,,,,,,,,,,,,,,1,,,67,0
620625,note_off,1425,0,1,,,,,,,,,,,,,,,0,,,79,0
620640,note_on,15,0,1,,,,,,,,,,,,,,,0,,,80,78
620640,set_tempo,120,1,0,,,,,,,472440,,,,,,,,,,,,
620640,note_on,170,0,4,,,,,,,,,,,,,,,3,,,41,60
620880,note_on,360,0,3,,,,,,,,,,,,,,,2,,,53,42
620880,note_on,0,0,3,,,,,,,,,,,,,,,2,,,57,42
621000,note_off,120,0,3,,,,,,,,,,,,,,,2,,,53,0
621000,note_off,0,0,3,,,,,,,,,,,,,,,2,,,57,0
621000,set_tempo,360,1,0,,,,,,,487804,,,,,,,,,,,,
621005,note_off,365,0,1,,,,,,,,,,,,,,,0,,,80,0
621120,note_on,115,0,1,,,,,,,,,,,,,,,0,,,81,86
621120,note_on,0,0,3,,,,,,,,,,,,,,,2,,,60,43
621120,note_on,120,0,3,,,,,,,,,,,,,,,2,,,57,43
621120,set_tempo,120,1,0,,,,,,,472440,,,,,,,,,,,,
621240,note_off,120,0,3,,,,,,,,,,,,,,,2,,,57,0
621240,note_off,0,0,3,,,,,,,,,,,,,,,2,,,60,0
621360,note_on,120,0,3,,,,,,,,,,,,,,,2,,,53,43
621360,note_on,0,0,3,,,,,,,,,,,,,,,2,,,57,43
621480,note_off,120,0,3,,,,,,,,,,,,,,,2,,,53,0
621480,note_off,0,0,3,,,,,,,,,,,,,,,2,,,57,0
621600,note_on,0,0,3,,,,,,,,,,,,,,,2,,,60,43
621600,note_on,120,0,3,,,,,,,,,,,,,,,2,,,57,43
621720,note_off,0,0,3,,,,,,,,,,,,,,,2,,,60,0
621720,note_off,120,0,3,,,,,,,,,,,,,,,2,,,57,0
621840,note_on,0,0,3,,,,,,,,,,,,,,,2,,,57,43
621840,note_on,120,0,3,,,,,,,,,,,,,,,2,,,53,43
621910,note_off,1270,0,4,,,,,,,,,,,,,,,3,,,41,0
621960,note_off,0,0,3,,,,,,,,,,,,,,,2,,,57,0
621960,note_off,120,0,3,,,,,,,,,,,,,,,2,,,53,0
622080,note_on,170,0,4,,,,,,,,,,,,,,,3,,,41,61
622320,note_on,360,0,3,,,,,,,,,,,,,,,2,,,57,43
622320,note_on,0,0,3,,,,,,,,,,,,,,,2,,,53,43
622440,note_off,0,0,3,,,,,,,,,,,,,,,2,,,53,0
622440,note_off,120,0,3,,,,,,,,,,,,,,,2,,,57,0
622500,set_tempo,1380,1,0,,,,,,,480000,,,,,,,,,,,,
622560,note_on,0,0,3,,,,,,,,,,,,,,,2,,,61,43
622560,set_tempo,60,1,0,,,,,,,472440,,,,,,,,,,,,
622560,note_off,1440,0,1,,,,,,,,,,,,,,,0,,,81,0
622560,note_on,0,0,1,,,,,,,,,,,,,,,0,,,81,87
622560,note_on,120,0,3,,,,,,,,,,,,,,,2,,,57,43
622680,note_off,120,0,3,,,,,,,,,,,,,,,2,,,57,0
622680,note_off,0,0,3,,,,,,,,,,,,,,,2,,,61,0
622800,note_on,0,0,3,,,,,,,,,,,,,,,2,,,53,42
622800,note_on,120,0,3,,,,,,,,,,,,,,,2,,,57,42
622920,note_off,0,0,3,,,,,,,,,,,,,,,2,,,53,0
622920,note_off,120,0,3,,,,,,,,,,,,,,,2,,,57,0
623040,note_on,120,0,3,,,,,,,,,,,,,,,2,,,61,42
623040,note_on,0,0,3,,,,,,,,,,,,,,,2,,,57,42
623160,note_off,120,0,3,,,,,,,,,,,,,,,2,,,61,0
623160,note_off,0,0,3,,,,,,,,,,,,,,,2,,,57,0
623280,note_on,120,0,3,,,,,,,,,,,,,,,2,,,57,42
623280,note_on,0,0,3,,,,,,,,,,,,,,,2,,,53,42
623350,note_off,1270,0,4,,,,,,,,,,,,,,,3,,,41,0
623400,note_off,0,0,3,,,,,,,,,,,,,,,2,,,53,0
623400,note_off,120,0,3,,,,,,,,,,,,,,,2,,,57,0
623520,note_on,170,0,4,,,,,,,,,,,,,,,3,,,41,59
623760,note_on,360,0,3,,,,,,,,,,,,,,,2,,,57,41
623760,note_on,0,0,3,,,,,,,,,,,,,,,2,,,53,41
623880,note_off,120,0,3,,,,,,,,,,,,,,,2,,,57,0
623880,note_off,0,0,3,,,,,,,,,,,,,,,2,,,53,0
623895,note_off,1335,0,1,,,,,,,,,,,,,,,0,,,81,0
623920,note_on,25,0,1,,,,,,,,,,,,,,,0,,,79,75
624000,note_on,120,0,3,,,,,,,,,,,,,,,2,,,57,41
624000,note_on,80,0,1,,,,,,,,,,,,,,,0,,,77,79
624000,note_on,0,0,3,,,,,,,,,,,,,,,2,,,62,41
624040,note_off,40,0,1,,,,,,,,,,,,,,,0,,,79,0
624120,note_off,120,0,3,,,,,,,,,,,,,,,2,,,57,0
624120,note_off,0,0,3,,,,,,,,,,,,,,,2,,,62,0
624240,note_on,0,0,1,,,,,,,,,,,,,,,0,,,76,75
624240,note_on,0,0,3,,,,,,,,,,,,,,,2,,,57,40
624240,note_on,120,0,3,,,,,,,,,,,,,,,2,,,53,40
624240,note_off,200,0,1,,,,,,,,,,,,,,,0,,,77,0
624360,note_off,0,0,3,,,,,,,,,,,,,,,2,,,57,0
624360,note_off,120,0,3,,,,,,,,,,,,,,,2,,,53,0
624480,note_off,240,0,1,,,,,,,,,,,,,,,0,,,76,0
624480,note_on,0,0,1,,,,,,,,,,,,,,,0,,,77,74
624480,note_on,0,0,3,,,,,,,,,,,,,,,2,,,62,40
624480,note_on,120,0,3,,,,,,,,,,,,,,,2,,,57,40
624600,note_off,120,0,3,,,,,,,,,,,,,,,2,,,57,0
624600,note_off,0,0,3,,,,,,,,,,,,,,,2,,,62,0
624720,note_on,120,0,3,,,,,,,,,,,,,,,2,,,57,40
624720,note_on,0,0,3,,,,,,,,,,,,,,,2,,,53,40
624720,note_off,240,0,1,,,,,,,,,,,,,,,0,,,77,0
624720,note_on,0,0,1,,,,,,,,,,,,,,,0,,,74,73
624790,note_off,1270,0,4,,,,,,,,,,,,,,,3,,,41,0
624840,note_off,0,0,3,,,,,,,,,,,,,,,2,,,53,0
624840,set_tempo,2280,1,0,,,,,,,487804,,,,,,,,,,,,
624840,note_off,120,0,3,,,,,,,,,,,,,,,2,,,57,0
624960,set_tempo,120,1,0,,,,,,,472440,,,,,,,,,,,,
624960,note_on,0,0,1,,,,,,,,,,,,,,,0,,,72,72
624960,note_off,240,0,1,,,,,,,,,,,,,,,0,,,74,0
624960,note_on,170,0,4,,,,,,,,,,,,,,,3,,,43,56
625200,note_on,0,0,3,,,,,,,,,,,,,,,2,,,55,39
625200,note_on,360,0,3,,,,,,,,,,,,,,,2,,,60,39
625320,note_off,360,0,1,,,,,,,,,,,,,,,0,,,72,0
625320,note_off,0,0,3,,,,,,,,,,,,,,,2,,,55,0
625320,note_off,120,0,3,,,,,,,,,,,,,,,2,,,60,0
625360,note_on,40,0,1,,,,,,,,,,,,,,,0,,,74,66
625440,note_on,0,0,3,,,,,,,,,,,,,,,2,,,64,39
625440,note_on,120,0,3,,,,,,,,,,,,,,,2,,,60,39
625440,note_on,80,0,1,,,,,,,,,,,,,,,0,,,72,70
625480,note_off,40,0,1,,,,,,,,,,,,,,,0,,,74,0
625560,note_off,120,0,3,,,,,,,,,,,,,,,2,,,60,0
625560,note_off,0,0,3,,,,,,,,,,,,,,,2,,,64,0
625680,note_on,120,0,3,,,,,,,,,,,,,,,2,,,60,38
625680,note_on,0,0,3,,,,,,,,,,,,,,,2,,,55,38
625800,note_off,120,0,3,,,,,,,,,,,,,,,2,,,60,0
625800,note_off,320,0,1,,,,,,,,,,,,,,,0,,,72,0
625800,note_on,0,0,1,,,,,,,,,,,,,,,0,,,71,68
625800,note_off,0,0,3,,,,,,,,,,,,,,,2,,,55,0
625920,note_on,120,0,3,,,,,,,,,,,,,,,2,,,64,38
625920,note_on,0,0,3,,,,,,,,,,,,,,,2,,,60,38
625920,note_off,120,0,1,,,,,,,,,,,,,,,0,,,71,0
625920,note_on,0,0,1,,,,,,,,,,,,,,,0,,,72,67
626040,note_off,120,0,3,,,,,,,,,,,,,,,2,,,64,0
626040,note_off,0,0,3,,,,,,,,,,,,,,,2,,,60,0
626065,note_off,1105,0,4,,,,,,,,,,,,,,,3,,,43,0
626160,note_on,0,0,3,,,,,,,,,,,,,,,2,,,55,38
626160,note_on,120,0,3,,,,,,,,,,,,,,,2,,,60,38
626280,note_off,0,0,3,,,,,,,,,,,,,,,2,,,55,0
626280,note_on,0,0,1,,,,,,,,,,,,,,,0,,,76,65
626280,note_off,360,0,1,,,,,,,,,,,,,,,0,,,72,0
626280,note_off,120,0,3,,,,,,,,,,,,,,,2,,,60,0
626280,set_tempo,1320,1,0,,,,,,,487804,,,,,,,,,,,,
626400,note_on,0,0,1,,,,,,,,,,,,,,,0,,,67,65
626400,note_off,120,0,1,,,,,,,,,,,,,,,0,,,76,0
626400,note_on,335,0,4,,,,,,,,,,,,,,,3,,,43,53
626400,set_tempo,120,1,0,,,,,,,472440,,,,,,,,,,,,
626640,note_on,360,0,3,,,,,,,,,,,,,,,2,,,60,37
626640,note_on,0,0,3,,,,,,,,,,,,,,,2,,,55,37
626760,note_off,120,0,3,,,,,,,,,,,,,,,2,,,60,0
626760,note_off,0,0,3,,,,,,,,,,,,,,,2,,,55,0
626880,note_on,0,0,3,,,,,,,,,,,,,,,2,,,64,37
626880,note_on,120,0,3,,,,,,,,,,,,,,,2,,,60,37
627000,note_off,120,0,3,,,,,,,,,,,,,,,2,,,60,0
627000,note_off,0,0,3,,,,,,,,,,,,,,,2,,,64,0
627120,note_on,120,0,3,,,,,,,,,,,,,,,2,,,60,36
627120,note_on,0,0,3,,,,,,,,,,,,,,,2,,,55,36
627240,note_off,120,0,3,,,,,,,,,,,,,,,2,,,60,0
627240,note_off,0,0,3,,,,,,,,,,,,,,,2,,,55,0
627360,note_on,120,0,3,,,,,,,,,,,,,,,2,,,64,36
627360,note_on,0,0,3,,,,,,,,,,,,,,,2,,,60,36
627480,note_off,120,0,3,,,,,,,,,,,,,,,2,,,64,0
627480,note_off,0,0,3,,,,,,,,,,,,,,,2,,,60,0
627505,note_off,1105,0,4,,,,,,,,,,,,,,,3,,,43,0
627600,note_on,120,0,3,,,,,,,,,,,,,,,2,,,60,36
627600,note_on,0,0,3,,,,,,,,,,,,,,,2,,,55,36
627720,note_off,120,0,3,,,,,,,,,,,,,,,2,,,60,0
627720,note_off,0,0,3,,,,,,,,,,,,,,,2,,,55,0
627840,note_on,335,0,4,,,,,,,,,,,,,,,3,,,43,50
627960,note_on,1560,0,1,,,,,,,,,,,,,,,0,,,69,55
627965,note_off,5,0,1,,,,,,,,,,,,,,,0,,,67,0
628080,note_off,115,0,1,,,,,,,,,,,,,,,0,,,69,0
628080,note_on,0,0,1,,,,,,,,,,,,,,,0,,,67,54
628080,note_on,0,0,3,,,,,,,,,,,,,,,2,,,55,35
628080,note_on,360,0,3,,,,,,,,,,,,,,,2,,,62,35
628200,note_off,120,0,3,,,,,,,,,,,,,,,2,,,62,0
628200,note_off,0,0,3,,,,,,,,,,,,,,,2,,,55,0
628200,note_on,0,0,1,,,,,,,,,,,,,,,0,,,66,52
628200,note_off,120,0,1,,,,,,,,,,,,,,,0,,,67,0
628320,note_on,0,0,1,,,,,,,,,,,,,,,0,,,67,53
628320,note_off,120,0,1,,,,,,,,,,,,,,,0,,,66,0
628320,note_on,0,0,3,,,,,,,,,,,,,,,2,,,65,35
628320,note_on,120,0,3,,,,,,,,,,,,,,,2,,,62,35
628400,note_on,0,0,1,,,,,,,,,,,,,,,0,,,69,54
628400,note_off,80,0,1,,,,,,,,,,,,,,,0,,,67,0
628440,note_off,120,0,3,,,,,,,,,,,,,,,2,,,62,0
628440,note_off,0,0,3,,,,,,,,,,,,,,,2,,,65,0
628480,note_on,0,0,1,,,,,,,,,,,,,,,0,,,71,55
628480,note_off,80,0,1,,,,,,,,,,,,,,,0,,,69,0
628560,note_off,80,0,1,,,,,,,,,,,,,,,0,,,71,0
628560,note_on,0,0,1,,,,,,,,,,,,,,,0,,,72,56
628560,note_on,120,0,3,,,,,,,,,,,,,,,2,,,62,34
628560,note_on,0,0,3,,,,,,,,,,,,,,,2,,,55,34
628640,note_on,0,0,1,,,,,,,,,,,,,,,0,,,74,57
628640,note_off,80,0,1,,,,,,,,,,,,,,,0,,,72,0
628680,note_off,0,0,3,,,,,,,,,,,,,,,2,,,55,0
628680,note_off,120,0,3,,,,,,,,,,,,,,,2,,,62,0
628720,note_off,80,0,1,,,,,,,,,,,,,,,0,,,74,0
628720,note_on,0,0,1,,,,,,,,,,,,,,,0,,,76,58
628730,set_tempo,2330,1,0,,,,,,,487804,,,,,,,,,,,,
628800,note_on,0,0,3,,,,,,,,,,,,,,,2,,,62,34
628800,note_off,80,0,1,,,,,,,,,,,,,,,0,,,76,0
628800,note_on,0,0,1,,,,,,,,,,,,,,,0,,,77,59
628800,set_tempo,70,1,0,,,,,,,517241,,,,,,,,,,,,
628800,note_on,120,0,3,,,,,,,,,,,,,,,2,,,65,34
628920,note_off,0,0,3,,,,,,,,,,,,,,,2,,,62,0
628920,note_off,120,0,3,,,,,,,,,,,,,,,2,,,65,0
628945,note_off,1105,0,4,,,,,,,,,,,,,,,3,,,43,0
629040,note_off,240,0,1,,,,,,,,,,,,,,,0,,,77,0
629040,note_on,0,0,3,,,,,,,,,,,,,,,2,,,62,34
629040,note_on,120,0,3,,,,,,,,,,,,,,,2,,,55,34
629160,note_on,120,0,1,,,,,,,,,,,,,,,0,,,71,54
629160,note_off,0,0,3,,,,,,,,,,,,,,,2,,,62,0
629160,note_off,120,0,3,,,,,,,,,,,,,,,2,,,55,0
629280,note_off,120,0,1,,,,,,,,,,,,,,,0,,,71,0
629280,note_on,0,0,1,,,,,,,,,,,,,,,0,,,65,51
629280,note_on,0,0,1,,,,,,,,,,,,,,,0,,,74,51
629280,note_on,335,0,4,,,,,,,,,,,,,,,3,,,48,48
629520,note_on,360,0,3,,,,,,,,,,,,,,,2,,,55,33
629640,note_off,120,0,3,,,,,,,,,,,,,,,2,,,55,0
629760,note_on,120,0,3,,,,,,,,,,,,,,,2,,,59,33
629880,note_off,120,0,3,,,,,,,,,,,,,,,2,,,59,0
630000,note_on,120,0,3,,,,,,,,,,,,,,,2,,,55,32
630120,note_off,120,0,3,,,,,,,,,,,,,,,2,,,55,0
630240,note_on,120,0,3,,,,,,,,,,,,,,,2,,,59,32
630360,note_off,120,0,3,,,,,,,,,,,,,,,2,,,59,0
630385,note_off,1105,0,4,,,,,,,,,,,,,,,3,,,48,0
630480,note_on,120,0,3,,,,,,,,,,,,,,,2,,,55,32
630530,set_tempo,1730,1,0,,,,,,,535714,,,,,,,,,,,,
630600,note_off,120,0,3,,,,,,,,,,,,,,,2,,,55,0
630720,note_on,0,0,1,,,,,,,,,,,,,,,0,,,72,40
630720,note_on,0,0,1,,,,,,,,,,,,,,,0,,,64,40
630720,note_off,0,0,1,,,,,,,,,,,,,,,0,,,74,0
630720,set_tempo,190,1,0,,,,,,,560747,,,,,,,,,,,,
630720,note_off,1440,0,1,,,,,,,,,,,,,,,0,,,65,0
630720,note_on,120,0,3,,,,,,,,,,,,,,,2,,,60,31
630720,note_on,335,0,4,,,,,,,,,,,,,,,3,,,48,45
630840,note_off,120,0,3,,,,,,,,,,,,,,,2,,,60,0
630875,note_off,155,0,1,,,,,,,,,,,,,,,0,,,64,0
630875,note_off,0,0,1,,,,,,,,,,,,,,,0,,,72,0
630960,note_on,85,0,1,,,,,,,,,,,,,,,0,,,67,47
630960,set_tempo,240,1,0,,,,,,,500000,,,,,,,,,,,,
630960,note_on,120,0,3,,,,,,,,,,,,,,,2,,,55,31
631200,note_off,240,0,1,,,,,,,,,,,,,,,0,,,67,0
631200,note_on,0,0,1,,,,,,,,,,,,,,,0,,,66,46
631200,note_on,0,0,3,,,,,,,,,,,,,,,2,,,54,31
631200,note_off,240,0,3,,,,,,,,,,,,,,,2,,,55,0
631440,note_off,240,0,3,,,,,,,,,,,,,,,2,,,54,0
631440,note_off,240,0,1,,,,,,,,,,,,,,,0,,,66,0
631440,note_on,720,0,4,,,,,,,,,,,,,,,3,,,55,45
631440,note_on,0,0,1,,,,,,,,,,,,,,,0,,,67,45
631515,note_off,75,0,4,,,,,,,,,,,,,,,3,,,48,0
631680,note_off,165,0,4,,,,,,,,,,,,,,,3,,,55,0
631680,note_on,0,0,4,,,,,,,,,,,,,,,3,,,57,45
631680,note_off,240,0,1,,,,,,,,,,,,,,,0,,,67,0
631680,note_on,0,0,1,,,,,,,,,,,,,,,0,,,69,44
631920,note_off,240,0,4,,,,,,,,,,,,,,,3,,,57,0
631920,note_on,0,0,1,,,,,,,,,,,,,,,0,,,67,43
631920,note_off,240,0,1,,,,,,,,,,,,,,,0,,,69,0
631920,note_on,0,0,4,,,,,,,,,,,,,,,3,,,55,44
632160,note_off,240,0,4,,,,,,,,,,,,,,,3,,,55,0
632160,note_on,0,0,1,,,,,,,,,,,,,,,0,,,65,43
632160,note_off,240,0,1,,,,,,,,,,,,,,,0,,,67,0
632160,note_on,0,0,4,,,,,,,,,,,,,,,3,,,53,43
632400,note_off,240,0,1,,,,,,,,,,,,,,,0,,,65,0
632400,note_on,0,0,1,,,,,,,,,,,,,,,0,,,64,42
632400,note_off,240,0,4,,,,,,,,,,,,,,,3,,,53,0
632400,note_on,0,0,4,,,,,,,,,,,,,,,3,,,52,43
632520,set_tempo,1560,1,0,,,,,,,508474,,,,,,,,,,,,
632640,note_off,240,0,1,,,,,,,,,,,,,,,0,,,64,0
632640,note_on,0,0,1,,,,,,,,,,,,,,,0,,,67,41
632640,note_off,240,0,4,,,,,,,,,,,,,,,3,,,52,0
632640,note_on,0,0,4,,,,,,,,,,,,,,,3,,,55,42
632880,note_off,240,0,1,,,,,,,,,,,,,,,0,,,67,0
632880,note_off,240,0,4,,,,,,,,,,,,,,,3,,,55,0
632880,note_on,0,0,1,,,,,,,,,,,,,,,0,,,65,40
632880,note_on,0,0,4,,,,,,,,,,,,,,,3,,,53,41
633120,note_off,240,0,4,,,,,,,,,,,,,,,3,,,53,0
633120,note_off,240,0,1,,,,,,,,,,,,,,,0,,,65,0
633120,note_on,0,0,1,,,,,,,,,,,,,,,0,,,64,39
633120,note_on,0,0,4,,,,,,,,,,,,,,,3,,,52,40
633240,set_tempo,720,1,0,,,,,,,517241,,,,,,,,,,,,
633360,note_off,240,0,4,,,,,,,,,,,,,,,3,,,52,0
633360,note_on,0,0,4,,,,,,,,,,,,,,,3,,,50,40
633360,set_tempo,120,1,0,,,,,,,535714,,,,,,,,,,,,
633360,note_on,0,0,1,,,,,,,,,,,,,,,0,,,62,38
633360,note_off,240,0,1,,,,,,,,,,,,,,,0,,,64,0
633540,note_off,180,0,4,,,,,,,,,,,,,,,3,,,50,0
633560,note_on,20,0,4,,,,,,,,,,,,,,,3,,,36,51
633600,note_on,0,0,1,,,,,,,,,,,,,,,0,,,60,36
633600,note_off,240,0,1,,,,,,,,,,,,,,,0,,,62,0
633600,note_on,40,0,4,,,,,,,,,,,,,,,3,,,48,38
633680,note_on,80,0,4,,,,,,,,,,,,,,,3,,,50,38
633710,set_tempo,350,1,0,,,,,,,472440,,,,,,,,,,,,
633745,note_off,65,0,4,,,,,,,,,,,,,,,3,,,48,0
633760,note_on,15,0,4,,,,,,,,,,,,,,,3,,,48,38
633825,note_off,65,0,4,,,,,,,,,,,,,,,3,,,50,0
633840,note_on,0,0,3,,,,,,,,,,,,,,,2,,,60,32
633840,note_on,15,0,4,,,,,,,,,,,,,,,3,,,50,39
633840,note_on,2400,0,3,,,,,,,,,,,,,,,2,,,55,32
633840,note_off,240,0,1,,,,,,,,,,,,,,,0,,,60,0
633905,note_off,65,0,4,,,,,,,,,,,,,,,3,,,48,0
633920,note_on,15,0,4,,,,,,,,,,,,,,,3,,,48,39
633960,note_off,0,0,3,,,,,,,,,,,,,,,2,,,60,0
633960,note_off,120,0,3,,,,,,,,,,,,,,,2,,,55,0
633985,note_off,65,0,4,,,,,,,,,,,,,,,3,,,50,0
634000,note_on,15,0,4,,,,,,,,,,,,,,,3,,,50,39
634065,note_off,65,0,4,,,,,,,,,,,,,,,3,,,48,0
634080,note_on,120,0,3,,,,,,,,,,,,,,,2,,,60,33
634080,note_on,0,0,3,,,,,,,,,,,,,,,2,,,64,33
634080,note_on,15,0,4,,,,,,,,,,,,,,,3,,,48,39
634145,note_off,65,0,4,,,,,,,,,,,,,,,3,,,50,0
634160,note_on,15,0,4,,,,,,,,,,,,,,,3,,,50,40
634200,note_off,0,0,3,,,,,,,,,,,,,,,2,,,64,0
634200,note_off,120,0,3,,,,,,,,,,,,,,,2,,,60,0
634225,note_off,65,0,4,,,,,,,,,,,,,,,3,,,48,0
634240,note_on,15,0,4,,,,,,,,,,,,,,,3,,,48,40
634305,note_off,65,0,4,,,,,,,,,,,,,,,3,,,50,0
634320,note_on,15,0,4,,,,,,,,,,,,,,,3,,,50,40
634320,note_on,120,0,3,,,,,,,,,,,,,,,2,,,55,34
634320,note_on,0,0,3,,,,,,,,,,,,,,,2,,,60,34
634385,note_off,65,0,4,,,,,,,,,,,,,,,3,,,48,0
634400,note_on,15,0,4,,,,,,,,,,,,,,,3,,,48,41
634440,note_off,120,0,3,,,,,,,,,,,,,,,2,,,55,0
634440,note_off,0,0,3,,,,,,,,,,,,,,,2,,,60,0
634465,note_off,65,0,4,,,,,,,,,,,,,,,3,,,50,0
634480,note_on,15,0,4,,,,,,,,,,,,,,,3,,,50,41
634545,note_off,65,0,4,,,,,,,,,,,,,,,3,,,48,0
634560,note_on,15,0,4,,,,,,,,,,,,,,,3,,,48,41
634560,note_on,0,0,3,,,,,,,,,,,,,,,2,,,64,35
634560,note_on,120,0,3,,,,,,,,,,,,,,,2,,,60,35
634625,note_off,65,0,4,,,,,,,,,,,,,,,3,,,50,0
634640,note_on,15,0,4,,,,,,,,,,,,,,,3,,,50,41
634680,note_off,120,0,3,,,,,,,,,,,,,,,2,,,60,0
634680,note_off,0,0,3,,,,,,,,,,,,,,,2,,,64,0
634705,note_off,65,0,4,,,,,,,,,,,,,,,3,,,48,0
634720,note_on,15,0,4,,,,,,,,,,,,,,,3,,,48,42
634785,note_off,65,0,4,,,,,,,,,,,,,,,3,,,50,0
634800,note_on,0,0,3,,,,,,,,,,,,,,,2,,,60,35
634800,note_on,120,0,3,,,,,,,,,,,,,,,2,,,55,35
634800,note_on,15,0,4,,,,,,,,,,,,,,,3,,,50,42
634865,note_off,65,0,4,,,,,,,,,,,,,,,3,,,48,0
634880,note_on,15,0,4,,,,,,,,,,,,,,,3,,,48,42
634920,note_off,0,0,3,,,,,,,,,,,,,,,2,,,60,0
634920,note_off,120,0,3,,,,,,,,,,,,,,,2,,,55,0
634945,note_off,65,0,4,,,,,,,,,,,,,,,3,,,50,0
634960,note_on,15,0,4,,,,,,,,,,,,,,,3,,,50,43
635025,note_off,65,0,4,,,,,,,,,,,,,,,3,,,48,0
635040,note_on,15,0,4,,,,,,,,,,,,,,,3,,,48,43
635040,note_on,120,0,3,,,,,,,,,,,,,,,2,,,64,36
635040,note_on,0,0,3,,,,,,,,,,,,,,,2,,,60,36
635105,note_off,65,0,4,,,,,,,,,,,,,,,3,,,50,0
635120,note_on,15,0,4,,,,,,,,,,,,,,,3,,,50,43
635160,note_off,0,0,3,,,,,,,,,,,,,,,2,,,60,0
635160,note_off,120,0,3,,,,,,,,,,,,,,,2,,,64,0
635185,note_off,65,0,4,,,,,,,,,,,,,,,3,,,48,0
635200,note_on,15,0,4,,,,,,,,,,,,,,,3,,,48,44
635265,note_off,65,0,4,,,,,,,,,,,,,,,3,,,50,0
635280,note_on,15,0,4,,,,,,,,,,,,,,,3,,,50,44
635280,note_on,120,0,3,,,,,,,,,,,,,,,2,,,60,37
635280,note_on,0,0,3,,,,,,,,,,,,,,,2,,,55,37
635345,note_off,65,0,4,,,,,,,,,,,,,,,3,,,48,0
635360,note_on,15,0,4,,,,,,,,,,,,,,,3,,,48,44
635400,note_off,120,0,3,,,,,,,,,,,,,,,2,,,60,0
635400,note_off,0,0,3,,,,,,,,,,,,,,,2,,,55,0
635425,note_off,65,0,4,,,,,,,,,,,,,,,3,,,50,0
635440,note_on,15,0,4,,,,,,,,,,,,,,,3,,,50,44
635505,note_off,65,0,4,,,,,,,,,,,,,,,3,,,48,0
635520,note_on,0,0,3,,,,,,,,,,,,,,,2,,,60,38
635520,note_on,15,0,4,,,,,,,,,,,,,,,3,,,48,45
635520,note_on,120,0,3,,,,,,,,,,,,,,,2,,,64,38
635585,note_off,65,0,4,,,,,,,,,,,,,,,3,,,50,0
635600,note_on,15,0,4,,,,,,,,,,,,,,,3,,,50,45
635640,note_off,0,0,3,,,,,,,,,,,,,,,2,,,60,0
635640,note_off,120,0,3,,,,,,,,,,,,,,,2,,,64,0
635665,note_off,65,0,4,,,,,,,,,,,,,,,3,,,48,0
635680,note_on,15,0,4,,,,,,,,,,,,,,,3,,,48,45
635745,note_off,65,0,4,,,,,,,,,,,,,,,3,,,50,0
635760,note_on,15,0,4,,,,,,,,,,,,,,,3,,,50,46
635760,note_on,0,0,3,,,,,,,,,,,,,,,2,,,55,39
635760,note_on,120,0,3,,,,,,,,,,,,,,,2,,,60,39
635825,note_off,65,0,4,,,,,,,,,,,,,,,3,,,48,0
635840,note_on,15,0,4,,,,,,,,,,,,,,,3,,,48,46
635880,note_off,0,0,3,,,,,,,,,,,,,,,2,,,55,0
635880,note_off,120,0,3,,,,,,,,,,,,,,,2,,,60,0
635905,note_off,65,0,4,,,,,,,,,,,,,,,3,,,50,0
635920,note_on,15,0,4,,,,,,,,,,,,,,,3,,,50,46
635985,note_off,65,0,4,,,,,,,,,,,,,,,3,,,48,0
636000,note_on,0,0,3,,,,,,,,,,,,,,,2,,,60,37
636000,note_on,15,0,4,,,,,,,,,,,,,,,3,,,48,47
636000,note_on,120,0,3,,,,,,,,,,,,,,,2,,,64,37
636065,note_off,65,0,4,,,,,,,,,,,,,,,3,,,50,0
636080,note_on,15,0,4,,,,,,,,,,,,,,,3,,,50,47
636120,note_off,120,0,3,,,,,,,,,,,,,,,2,,,64,0
636120,note_off,0,0,3,,,,,,,,,,,,,,,2,,,60,0
636145,note_off,65,0,4,,,,,,,,,,,,,,,3,,,48,0
636160,note_on,15,0,4,,,,,,,,,,,,,,,3,,,48,47
636220,note_off,60,0,4,,,,,,,,,,,,,,,3,,,50,0
636240,note_on,20,0,4,,,,,,,,,,,,,,,3,,,47,47
636240,note_on,120,0,3,,,,,,,,,,,,,,,2,,,55,37
636240,note_on,0,0,3,,,,,,,,,,,,,,,2,,,60,37
636300,set_tempo,2590,1,0,,,,,,,476190,,,,,,,,,,,,
636345,note_off,105,0,4,,,,,,,,,,,,,,,3,,,48,0
636360,note_on,15,0,4,,,,,,,,,,,,,,,3,,,48,49
636360,note_off,120,0,3,,,,,,,,,,,,,,,2,,,55,0
636360,set_tempo,60,1,0,,,,,,,483870,,,,,,,,,,,,
636360,note_off,0,0,3,,,,,,,,,,,,,,,2,,,60,0
636425,note_off,65,0,4,,,,,,,,,,,,,,,3,,,47,0
636470,set_tempo,110,1,0,,,,,,,472440,,,,,,,,,,,,
636480,note_on,55,0,4,,,,,,,,,,,,,,,3,,,52,56
636480,note_on,120,0,3,,,,,,,,,,,,,,,2,,,64,37
636480,note_on,0,0,3,,,,,,,,,,,,,,,2,,,60,37
636530,note_off,50,0,4,,,,,,,,,,,,,,,3,,,48,0
636600,note_off,120,0,3,,,,,,,,,,,,,,,2,,,64,0
636600,note_off,0,0,3,,,,,,,,,,,,,,,2,,,60,0
636720,note_on,120,0,3,,,,,,,,,,,,,,,2,,,60,37
636720,note_on,0,0,3,,,,,,,,,,,,,,,2,,,55,37
636840,note_off,120,0,3,,,,,,,,,,,,,,,2,,,60,0
636840,note_off,0,0,3,,,,,,,,,,,,,,,2,,,55,0
636960,note_on,0,0,3,,,,,,,,,,,,,,,2,,,60,37
636960,note_on,120,0,3,,,,,,,,,,,,,,,2,,,64,37
637080,note_off,120,0,3,,,,,,,,,,,,,,,2,,,64,0
637080,note_off,0,0,3,,,,,,,,,,,,,,,2,,,60,0
637200,note_on,120,0,3,,,,,,,,,,,,,,,2,,,55,37
637200,note_on,0,0,3,,,,,,,,,,,,,,,2,,,60,37
637320,note_off,120,0,3,,,,,,,,,,,,,,,2,,,55,0
637320,note_off,0,0,3,,,,,,,,,,,,,,,2,,,60,0
637440,note_on,120,0,3,,,,,,,,,,,,,,,2,,,64,36
637440,note_on,0,0,3,,,,,,,,,,,,,,,2,,,60,36
637560,note_off,120,0,3,,,,,,,,,,,,,,,2,,,64,0
637560,note_off,0,0,3,,,,,,,,,,,,,,,2,,,60,0
637680,note_on,0,0,3,,,,,,,,,,,,,,,2,,,60,36
637680,note_on,120,0,3,,,,,,,,,,,,,,,2,,,55,36
637800,note_on,1270,0,4,,,,,,,,,,,,,,,3,,,48,49
637800,set_tempo,1330,1,0,,,,,,,491803,,,,,,,,,,,,
637800,note_off,0,0,3,,,,,,,,,,,,,,,2,,,60,0
637800,note_off,120,0,3,,,,,,,,,,,,,,,2,,,55,0
637815,note_off,15,0,4,,,,,,,,,,,,,,,3,,,36,0
637820,note_off,5,0,4,,,,,,,,,,,,,,,3,,,52,0
637920,note_off,100,0,4,,,,,,,,,,,,,,,3,,,48,0
637920,set_tempo,120,1,0,,,,,,,472440,,,,,,,,,,,,
637920,note_on,0,0,4,,,,,,,,,,,,,,,3,,,43,49
638040,note_on,4200,0,1,,,,,,,,,,,,,,,0,,,71,40
638160,note_off,120,0,1,,,,,,,,,,,,,,,0,,,71,0
638160,note_on,0,0,1,,,,,,,,,,,,,,,0,,,74,40
638160,note_on,360,0,3,,,,,,,,,,,,,,,2,,,55,36
638160,note_on,0,0,3,,,,,,,,,,,,,,,2,,,60,36
638280,note_on,0,0,1,,,,,,,,,,,,,,,0,,,72,41
638280,note_off,120,0,1,,,,,,,,,,,,,,,0,,,74,0
638280,note_off,120,0,3,,,,,,,,,,,,,,,2,,,55,0
638280,note_off,0,0,3,,,,,,,,,,,,,,,2,,,60,0
638400,note_on,120,0,3,,,,,,,,,,,,,,,2,,,64,36
638400,note_on,0,0,3,,,,,,,,,,,,,,,2,,,60,36
638400,note_off,120,0,1,,,,,,,,,,,,,,,0,,,72,0
638400,note_on,0,0,1,,,,,,,,,,,,,,,0,,,76,42
638520,note_off,120,0,1,,,,,,,,,,,,,,,0,,,76,0
638520,note_off,0,0,3,,,,,,,,,,,,,,,2,,,60,0
638520,note_off,120,0,3,,,,,,,,,,,,,,,2,,,64,0
638520,note_on,0,0,1,,,,,,,,,,,,,,,0,,,74,42
638640,note_on,0,0,1,,,,,,,,,,,,,,,0,,,77,43
638640,note_off,120,0,1,,,,,,,,,,,,,,,0,,,74,0
638640,note_on,120,0,3,,,,,,,,,,,,,,,2,,,60,36
638640,note_on,0,0,3,,,,,,,,,,,,,,,2,,,55,36
638760,note_off,120,0,3,,,,,,,,,,,,,,,2,,,60,0
638760,note_off,0,0,3,,,,,,,,,,,,,,,2,,,55,0
638760,note_off,120,0,1,,,,,,,,,,,,,,,0,,,77,0
638760,note_on,0,0,1,,,,,,,,,,,,,,,0,,,76,44
638880,note_off,120,0,1,,,,,,,,,,,,,,,0,,,76,0
638880,note_on,0,0,1,,,,,,,,,,,,,,,0,,,79,44
638880,note_on,120,0,3,,,,,,,,,,,,,,,2,,,64,37
638880,note_on,0,0,3,,,,,,,,,,,,,,,2,,,60,37
639000,note_off,0,0,3,,,,,,,,,,,,,,,2,,,60,0
639000,note_on,0,0,1,,,,,,,,,,,,,,,0,,,77,45
639000,note_off,120,0,1,,,,,,,,,,,,,,,0,,,79,0
639000,note_off,120,0,3,,,,,,,,,,,,,,,2,,,64,0
639120,note_on,0,0,1,,,,,,,,,,,,,,,0,,,81,46
639120,note_on,120,0,3,,,,,,,,,,,,,,,2,,,60,37
639120,note_on,0,0,3,,,,,,,,,,,,,,,2,,,55,37
639120,note_off,120,0,1,,,,,,,,,,,,,,,0,,,77,0
639240,note_off,120,0,1,,,,,,,,,,,,,,,0,,,81,0
639240,note_on,0,0,1,,,,,,,,,,,,,,,0,,,79,46
639240,note_off,120,0,3,,,,,,,,,,,,,,,2,,,60,0
639240,note_off,0,0,3,,,,,,,,,,,,,,,2,,,55,0
639360,note_on,0,0,1,,,,,,,,,,,,,,,0,,,83,47
639360,note_off,120,0,1,,,,,,,,,,,,,,,0,,,79,0
639360,note_on,0,0,3,,,,,,,,,,,,,,,2,,,60,36
639360,note_on,120,0,3,,,,,,,,,,,,,,,2,,,64,36
639480,note_on,0,0,1,,,,,,,,,,,,,,,0,,,81,48
639480,note_off,120,0,3,,,,,,,,,,,,,,,2,,,64,0
639480,note_off,0,0,3,,,,,,,,,,,,,,,2,,,60,0
639480,note_off,120,0,1,,,,,,,,,,,,,,,0,,,83,0
639600,note_on,120,0,3,,,,,,,,,,,,,,,2,,,60,36
639600,note_on,0,0,3,,,,,,,,,,,,,,,2,,,55,36
639600,note_on,0,0,1,,,,,,,,,,,,,,,0,,,84,48
639600,note_off,120,0,1,,,,,,,,,,,,,,,0,,,81,0
639720,note_off,0,0,3,,,,,,,,,,,,,,,2,,,55,0
639720,note_off,120,0,3,,,,,,,,,,,,,,,2,,,60,0
639720,note_off,120,0,1,,,,,,,,,,,,,,,0,,,84,0
639720,note_on,0,0,1,,,,,,,,,,,,,,,0,,,83,49
639840,note_off,120,0,1,,,,,,,,,,,,,,,0,,,83,0
639840,note_on,120,0,3,,,,,,,,,,,,,,,2,,,64,36
639840,note_on,0,0,3,,,,,,,,,,,,,,,2,,,60,36
639840,note_on,0,0,1,,,,,,,,,,,,,,,0,,,86,50
639960,note_off,120,0,3,,,,,,,,,,,,,,,2,,,64,0
639960,note_off,0,0,3,,,,,,,,,,,,,,,2,,,60,0
639960,note_off,120,0,1,,,,,,,,,,,,,,,0,,,86,0
639960,note_on,0,0,1,,,,,,,,,,,,,,,0,,,84,50
640080,note_off,120,0,1,,,,,,,,,,,,,,,0,,,84,0
640080,note_on,0,0,1,,,,,,,,,,,,,,,0,,,88,51
640080,note_on,120,0,3,,,,,,,,,,,,,,,2,,,60,36
640080,note_on,0,0,3,,,,,,,,,,,,,,,2,,,55,36
640200,note_on,0,0,1,,,,,,,,,,,,,,,0,,,86,52
640200,note_off,0,0,3,,,,,,,,,,,,,,,2,,,55,0
640200,note_off,120,0,1,,,,,,,,,,,,,,,0,,,88,0
640200,note_off,120,0,3,,,,,,,,,,,,,,,2,,,60,0
640320,note_on,0,0,1,,,,,,,,,,,,,,,0,,,84,52
640320,note_off,120,0,1,,,,,,,,,,,,,,,0,,,86,0
640320,note_on,0,0,3,,,,,,,,,,,,,,,2,,,60,36
640320,note_on,120,0,3,,,,,,,,,,,,,,,2,,,64,36
640440,note_on,0,0,1,,,,,,,,,,,,,,,0,,,83,53
640440,note_off,120,0,1,,,,,,,,,,,,,,,0,,,84,0
640440,note_off,0,0,3,,,,,,,,,,,,,,,2,,,60,0
640440,note_off,120,0,3,,,,,,,,,,,,,,,2,,,64,0
640560,note_on,0,0,1,,,,,,,,,,,,,,,0,,,81,54
640560,note_off,120,0,1,,,,,,,,,,,,,,,0,,,83,0
640560,note_on,0,0,3,,,,,,,,,,,,,,,2,,,60,37
640560,note_on,120,0,3,,,,,,,,,,,,,,,2,,,55,37
640680,note_on,0,0,1,,,,,,,,,,,,,,,0,,,79,54
640680,note_off,120,0,1,,,,,,,,,,,,,,,0,,,81,0
640680,note_off,120,0,3,,,,,,,,,,,,,,,2,,,55,0
640680,note_off,0,0,3,,,,,,,,,,,,,,,2,,,60,0
640800,note_off,120,0,1,,,,,,,,,,,,,,,0,,,79,0
640800,note_on,0,0,1,,,,,,,,,,,,,,,0,,,78,57
640800,note_on,0,0,3,,,,,,,,,,,,,,,2,,,60,37
640800,note_on,120,0,3,,,,,,,,,,,,,,,2,,,64,37
640920,note_off,0,0,3,,,,,,,,,,,,,,,2,,,60,0
640920,note_off,120,0,3,,,,,,,,,,,,,,,2,,,64,0
640920,note_off,120,0,1,,,,,,,,,,,,,,,0,,,78,0
640920,note_on,0,0,1,,,,,,,,,,,,,,,0,,,79,56
641040,note_on,0,0,3,,,,,,,,,,,,,,,2,,,60,38
641040,note_off,120,0,1,,,,,,,,,,,,,,,0,,,79,0
641040,note_on,0,0,1,,,,,,,,,,,,,,,0,,,81,55
641040,note_on,120,0,3,,,,,,,,,,,,,,,2,,,55,38
641160,note_off,120,0,3,,,,,,,,,,,,,,,2,,,55,0
641160,note_off,120,0,1,,,,,,,,,,,,,,,0,,,81,0
641160,note_on,0,0,1,,,,,,,,,,,,,,,0,,,79,54
641160,note_off,0,0,3,,,,,,,,,,,,,,,2,,,60,0
641280,note_off,120,0,1,,,,,,,,,,,,,,,0,,,79,0
641280,note_on,0,0,3,,,,,,,,,,,,,,,2,,,60,38
641280,note_on,120,0,3,,,,,,,,,,,,,,,2,,,64,38
641280,note_on,0,0,1,,,,,,,,,,,,,,,0,,,77,53
641400,note_off,0,0,3,,,,,,,,,,,,,,,2,,,60,0
641400,note_off,120,0,3,,,,,,,,,,,,,,,2,,,64,0
641400,note_off,120,0,1,,,,,,,,,,,,,,,0,,,77,0
641400,note_on,0,0,1,,,,,,,,,,,,,,,0,,,76,52
641520,note_on,0,0,3,,,,,,,,,,,,,,,2,,,60,39
641520,note_on,0,0,1,,,,,,,,,,,,,,,0,,,74,51
641520,note_on,120,0,3,,,,,,,,,,,,,,,2,,,55,39
641520,note_off,120,0,1,,,,,,,,,,,,,,,0,,,76,0
641640,note_on,0,0,1,,,,,,,,,,,,,,,0,,,72,49
641640,note_off,0,0,3,,,,,,,,,,,,,,,2,,,60,0
641640,note_off,120,0,3,,,,,,,,,,,,,,,2,,,55,0
641640,note_off,120,0,1,,,,,,,,,,,,,,,0,,,74,0
641760,note_off,120,0,1,,,,,,,,,,,,,,,0,,,72,0
641760,note_on,0,0,1,,,,,,,,,,,,,,,0,,,71,48
641760,note_on,0,0,3,,,,,,,,,,,,,,,2,,,60,40
641760,note_on,120,0,3,,,,,,,,,,,,,,,2,,,64,40
641880,note_off,0,0,3,,,,,,,,,,,,,,,2,,,60,0
641880,note_off,120,0,3,,,,,,,,,,,,,,,2,,,64,0
641880,set_tempo,3960,1,0,,,,,,,491803,,,,,,,,,,,,
641880,note_on,0,0,1,,,,,,,,,,,,,,,0,,,72,47
641880,note_off,120,0,1,,,,,,,,,,,,,,,0,,,71,0
642000,note_on,0,0,1,,,,,,,,,,,,,,,0,,,76,46
642000,note_off,120,0,1,,,,,,,,,,,,,,,0,,,72,0
642000,note_on,120,0,3,,,,,,,,,,,,,,,2,,,55,40
642000,note_on,0,0,3,,,,,,,,,,,,,,,2,,,60,40
642015,set_tempo,135,1,0,,,,,,,504201,,,,,,,,,,,,
642120,note_on,0,0,1,,,,,,,,,,,,,,,0,,,72,45
642120,note_off,120,0,3,,,,,,,,,,,,,,,2,,,55,0
642120,note_off,0,0,3,,,,,,,,,,,,,,,2,,,60,0
642120,set_tempo,105,1,0,,,,,,,526315,,,,,,,,,,,,
642120,note_off,120,0,1,,,,,,,,,,,,,,,0,,,76,0
642150,note_off,4230,0,4,,,,,,,,,,,,,,,3,,,43,0
642200,note_on,50,0,4,,,,,,,,,,,,,,,3,,,38,56
642240,set_tempo,120,1,0,,,,,,,504201,,,,,,,,,,,,
642240,note_off,120,0,1,,,,,,,,,,,,,,,0,,,72,0
642240,note_on,0,0,1,,,,,,,,,,,,,,,0,,,71,44
642240,note_on,40,0,4,,,,,,,,,,,,,,,3,,,50,42
642320,note_on,80,0,4,,,,,,,,,,,,,,,3,,,52,40
642350,set_tempo,110,1,0,,,,,,,472440,,,,,,,,,,,,
642385,note_off,65,0,4,,,,,,,,,,,,,,,3,,,50,0
642400,note_on,15,0,4,,,,,,,,,,,,,,,3,,,50,40
642465,note_off,65,0,4,,,,,,,,,,,,,,,3,,,52,0
642480,note_on,15,0,4,,,,,,,,,,,,,,,3,,,52,41
642480,note_on,360,0,3,,,,,,,,,,,,,,,2,,,55,41
642480,note_on,0,0,3,,,,,,,,,,,,,,,2,,,59,41
642545,note_off,65,0,4,,,,,,,,,,,,,,,3,,,50,0
642560,note_on,15,0,4,,,,,,,,,,,,,,,3,,,50,41
642600,note_off,120,0,3,,,,,,,,,,,,,,,2,,,55,0
642600,note_off,0,0,3,,,,,,,,,,,,,,,2,,,59,0
642625,note_off,65,0,4,,,,,,,,,,,,,,,3,,,52,0
642640,note_on,15,0,4,,,,,,,,,,,,,,,3,,,52,42
642705,note_off,65,0,4,,,,,,,,,,,,,,,3,,,50,0
642720,note_on,120,0,3,,,,,,,,,,,,,,,2,,,59,42
642720,note_on,0,0,3,,,,,,,,,,,,,,,2,,,65,42
642720,note_on,15,0,4,,,,,,,,,,,,,,,3,,,50,42
642785,note_off,65,0,4,,,,,,,,,,,,,,,3,,,52,0
642800,note_on,15,0,4,,,,,,,,,,,,,,,3,,,52,42
642840,note_off,0,0,3,,,,,,,,,,,,,,,2,,,65,0
642840,note_off,120,0,3,,,,,,,,,,,,,,,2,,,59,0
642865,note_off,65,0,4,,,,,,,,,,,,,,,3,,,50,0
642880,note_on,15,0,4,,,,,,,,,,,,,,,3,,,50,43
642945,note_off,65,0,4,,,,,,,,,,,,,,,3,,,52,0
642960,note_on,120,0,3,,,,,,,,,,,,,,,2,,,59,42
642960,note_on,0,0,3,,,,,,,,,,,,,,,2,,,55,42
642960,note_on,15,0,4,,,,,,,,,,,,,,,3,,,52,43
643025,note_off,65,0,4,,,,,,,,,,,,,,,3,,,50,0
643040,note_on,15,0,4,,,,,,,,,,,,,,,3,,,50,44
643080,note_off,120,0,3,,,,,,,,,,,,,,,2,,,59,0
643080,note_off,0,0,3,,,,,,,,,,,,,,,2,,,55,0
643105,note_off,65,0,4,,,,,,,,,,,,,,,3,,,52,0
643120,note_on,15,0,4,,,,,,,,,,,,,,,3,,,52,44
643185,note_off,65,0,4,,,,,,,,,,,,,,,3,,,50,0
643200,note_on,120,0,3,,,,,,,,,,,,,,,2,,,59,43
643200,note_on,0,0,3,,,,,,,,,,,,,,,2,,,65,43
643200,note_on,15,0,4,,,,,,,,,,,,,,,3,,,50,44
643265,note_off,65,0,4,,,,,,,,,,,,,,,3,,,52,0
643280,note_on,15,0,4,,,,,,,,,,,,,,,3,,,52,45
643320,note_off,0,0,3,,,,,,,,,,,,,,,2,,,65,0
643320,note_off,120,0,3,,,,,,,,,,,,,,,2,,,59,0
643345,note_off,65,0,4,,,,,,,,,,,,,,,3,,,50,0
643360,note_on,15,0,4,,,,,,,,,,,,,,,3,,,50,45
643425,note_off,65,0,4,,,,,,,,,,,,,,,3,,,52,0
643440,note_on,120,0,3,,,,,,,,,,,,,,,2,,,59,44
643440,note_on,0,0,3,,,,,,,,,,,,,,,2,,,55,44
643440,note_on,15,0,4,,,,,,,,,,,,,,,3,,,52,46
643505,note_off,65,0,4,,,,,,,,,,,,,,,3,,,50,0
643520,note_on,15,0,4,,,,,,,,,,,,,,,3,,,50,46
643560,note_off,120,0,3,,,,,,,,,,,,,,,2,,,59,0
643560,note_off,0,0,3,,,,,,,,,,,,,,,2,,,55,0
643585,note_off,65,0,4,,,,,,,,,,,,,,,3,,,52,0
643600,note_on,15,0,4,,,,,,,,,,,,,,,3,,,52,46
643665,note_off,65,0,4,,,,,,,,,,,,,,,3,,,50,0
643680,note_on,15,0,4,,,,,,,,,,,,,,,3,,,50,47
643680,note_on,0,0,3,,,,,,,,,,,,,,,2,,,59,44
643680,note_on,120,0,3,,,,,,,,,,,,,,,2,,,65,44
643745,note_off,65,0,4,,,,,,,,,,,,,,,3,,,52,0
643760,note_on,15,0,4,,,,,,,,,,,,,,,3,,,52,47
643800,note_off,120,0,3,,,,,,,,,,,,,,,2,,,65,0
643800,note_off,0,0,3,,,,,,,,,,,,,,,2,,,59,0
643825,note_off,65,0,4,,,,,,,,,,,,,,,3,,,50,0
643840,note_on,15,0,4,,,,,,,,,,,,,,,3,,,50,48
643905,note_off,65,0,4,,,,,,,,,,,,,,,3,,,52,0
643920,note_on,120,0,3,,,,,,,,,,,,,,,2,,,59,45
643920,note_on,0,0,3,,,,,,,,,,,,,,,2,,,55,45
643920,note_on,15,0,4,,,,,,,,,,,,,,,3,,,52,48
643985,note_off,65,0,4,,,,,,,,,,,,,,,3,,,50,0
644000,note_on,15,0,4,,,,,,,,,,,,,,,3,,,50,49
644040,note_off,0,0,3,,,,,,,,,,,,,,,2,,,55,0
644040,note_off,120,0,3,,,,,,,,,,,,,,,2,,,59,0
644065,note_off,65,0,4,,,,,,,,,,,,,,,3,,,52,0
644080,note_on,15,0,4,,,,,,,,,,,,,,,3,,,52,49
644145,note_off,65,0,4,,,,,,,,,,,,,,,3,,,50,0
644160,note_on,0,0,3,,,,,,,,,,,,,,,2,,,59,45
644160,note_on,120,0,3,,,,,,,,,,,,,,,2,,,65,45
644160,note_on,15,0,4,,,,,,,,,,,,,,,3,,,50,49
644225,note_off,65,0,4,,,,,,,,,,,,,,,3,,,52,0
644240,note_on,15,0,4,,,,,,,,,,,,,,,3,,,52,50
644280,note_off,120,0,3,,,,,,,,,,,,,,,2,,,65,0
644280,note_off,0,0,3,,,,,,,,,,,,,,,2,,,59,0
644305,note_off,65,0,4,,,,,,,,,,,,,,,3,,,50,0
644320,note_on,15,0,4,,,,,,,,,,,,,,,3,,,50,50
644385,note_off,65,0,4,,,,,,,,,,,,,,,3,,,52,0
644400,note_on,15,0,4,,,,,,,,,,,,,,,3,,,52,51
644400,note_on,0,0,3,,,,,,,,,,,,,,,2,,,55,46
644400,note_on,120,0,3,,,,,,,,,,,,,,,2,,,59,46
644465,note_off,65,0,4,,,,,,,,,,,,,,,3,,,50,0
644480,note_on,15,0,4,,,,,,,,,,,,,,,3,,,50,51
644520,note_off,0,0,3,,,,,,,,,,,,,,,2,,,55,0
644520,note_off,120,0,3,,,,,,,,,,,,,,,2,,,59,0
644545,note_off,65,0,4,,,,,,,,,,,,,,,3,,,52,0
644560,note_on,15,0,4,,,,,,,,,,,,,,,3,,,52,51
644625,note_off,65,0,4,,,,,,,,,,,,,,,3,,,50,0
644640,note_on,0,0,3,,,,,,,,,,,,,,,2,,,59,46
644640,note_on,120,0,3,,,,,,,,,,,,,,,2,,,65,46
644640,note_on,15,0,4,,,,,,,,,,,,,,,3,,,50,52
644705,note_off,65,0,4,,,,,,,,,,,,,,,3,,,52,0
644720,note_on,15,0,4,,,,,,,,,,,,,,,3,,,52,52
644760,note_off,120,0,3,,,,,,,,,,,,,,,2,,,65,0
644760,note_off,0,0,3,,,,,,,,,,,,,,,2,,,59,0
644785,note_off,65,0,4,,,,,,,,,,,,,,,3,,,50,0
644800,note_on,15,0,4,,,,,,,,,,,,,,,3,,,50,53
644865,note_off,65,0,4,,,,,,,,,,,,,,,3,,,52,0
644880,note_on,15,0,4,,,,,,,,,,,,,,,3,,,49,53
644880,note_on,120,0,3,,,,,,,,,,,,,,,2,,,59,47
644880,note_on,0,0,3,,,,,,,,,,,,,,,2,,,55,47
644940,set_tempo,2590,1,0,,,,,,,476190,,,,,,,,,,,,
644945,note_off,65,0,4,,,,,,,,,,,,,,,3,,,50,0
645000,note_on,55,0,4,,,,,,,,,,,,,,,3,,,50,55
645000,note_off,0,0,3,,,,,,,,,,,,,,,2,,,55,0
645000,note_off,120,0,3,,,,,,,,,,,,,,,2,,,59,0
645000,set_tempo,60,1,0,,,,,,,483870,,,,,,,,,,,,
645060,note_off,60,0,4,,,,,,,,,,,,,,,3,,,49,0
645120,set_tempo,120,1,0,,,,,,,472440,,,,,,,,,,,,
645120,note_on,60,0,4,,,,,,,,,,,,,,,3,,,53,61
645120,note_on,120,0,3,,,,,,,,,,,,,,,2,,,65,47
645120,note_on,0,0,3,,,,,,,,,,,,,,,2,,,59,47
645185,note_off,65,0,4,,,,,,,,,,,,,,,3,,,50,0
645240,note_off,0,0,3,,,,,,,,,,,,,,,2,,,59,0
645240,note_off,120,0,3,,,,,,,,,,,,,,,2,,,65,0
645360,note_on,0,0,3,,,,,,,,,,,,,,,2,,,59,46
645360,note_on,120,0,3,,,,,,,,,,,,,,,2,,,55,46
645480,note_off,0,0,3,,,,,,,,,,,,,,,2,,,59,0
645480,note_off,120,0,3,,,,,,,,,,,,,,,2,,,55,0
645600,note_on,0,0,3,,,,,,,,,,,,,,,2,,,59,46
645600,note_on,120,0,3,,,,,,,,,,,,,,,2,,,65,46
645720,note_off,120,0,3,,,,,,,,,,,,,,,2,,,65,0
645720,note_off,0,0,3,,,,,,,,,,,,,,,2,,,59,0
645840,note_on,0,0,3,,,,,,,,,,,,,,,2,,,59,45
645840,note_on,120,0,3,,,,,,,,,,,,,,,2,,,55,45
645960,note_off,120,0,3,,,,,,,,,,,,,,,2,,,55,0
645960,note_off,0,0,3,,,,,,,,,,,,,,,2,,,59,0
646080,note_on,0,0,3,,,,,,,,,,,,,,,2,,,59,44
646080,note_on,120,0,3,,,,,,,,,,,,,,,2,,,65,44
646200,note_off,120,0,3,,,,,,,,,,,,,,,2,,,65,0
646200,note_off,0,0,3,,,,,,,,,,,,,,,2,,,59,0
646320,note_on,120,0,3,,,,,,,,,,,,,,,2,,,59,44
646320,note_on,0,0,3,,,,,,,,,,,,,,,2,,,55,44
646440,note_off,0,0,3,,,,,,,,,,,,,,,2,,,55,0
646440,note_off,1255,0,4,,,,,,,,,,,,,,,3,,,53,0
646440,note_on,0,0,4,,,,,,,,,,,,,,,3,,,50,54
646440,note_off,120,0,3,,,,,,,,,,,,,,,2,,,59,0
646440,set_tempo,1320,1,0,,,,,,,491803,,,,,,,,,,,,
646560,note_off,4320,0,1,,,,,,,,,,,,,,,0,,,71,0
646560,note_off,120,0,4,,,,,,,,,,,,,,,3,,,50,0
646560,note_on,0,0,4,,,,,,,,,,,,,,,3,,,43,50
646560,set_tempo,120,1,0,,,,,,,472440,,,,,,,,,,,,
646600,note_off,40,0,4,,,,,,,,,,,,,,,3,,,38,0
646680,note_on,120,0,1,,,,,,,,,,,,,,,0,,,71,50
646800,note_off,120,0,1,,,,,,,,,,,,,,,0,,,71,0
646800,note_on,0,0,1,,,,,,,,,,,,,,,0,,,74,50
646800,note_on,0,0,3,,,,,,,,,,,,,,,2,,,62,43
646800,note_on,360,0,3,,,,,,,,,,,,,,,2,,,55,43
646920,note_off,0,0,3,,,,,,,,,,,,,,,2,,,62,0
646920,note_off,120,0,3,,,,,,,,,,,,,,,2,,,55,0
646920,note_off,120,0,1,,,,,,,,,,,,,,,0,,,74,0
646920,note_on,0,0,1,,,,,,,,,,,,,,,0,,,72,51
647040,note_on,120,0,3,,,,,,,,,,,,,,,2,,,65,42
647040,note_off,120,0,1,,,,,,,,,,,,,,,0,,,72,0
647040,note_on,0,0,3,,,,,,,,,,,,,,,2,,,62,42
647040,note_on,0,0,1,,,,,,,,,,,,,,,0,,,76,51
647160,note_on,0,0,1,,,,,,,,,,,,,,,0,,,74,52
647160,note_off,120,0,3,,,,,,,,,,,,,,,2,,,65,0
647160,note_off,0,0,3,,,,,,,,,,,,,,,2,,,62,0
647160,note_off,120,0,1,,,,,,,,,,,,,,,0,,,76,0
647280,note_off,120,0,1,,,,,,,,,,,,,,,0,,,74,0
647280,note_on,0,0,3,,,,,,,,,,,,,,,2,,,62,41
647280,note_on,120,0,3,,,,,,,,,,,,,,,2,,,55,41
647280,note_on,0,0,1,,,,,,,,,,,,,,,0,,,77,52
647400,note_off,0,0,3,,,,,,,,,,,,,,,2,,,62,0
647400,note_off,120,0,3,,,,,,,,,,,,,,,2,,,55,0
647400,note_off,120,0,1,,,,,,,,,,,,,,,0,,,77,0
647400,note_on,0,0,1,,,,,,,,,,,,,,,0,,,76,53
647520,note_on,0,0,3,,,,,,,,,,,,,,,2,,,62,41
647520,note_on,120,0,3,,,,,,,,,,,,,,,2,,,65,41
647520,note_off,120,0,1,,,,,,,,,,,,,,,0,,,76,0
647520,note_on,0,0,1,,,,,,,,,,,,,,,0,,,79,54
647640,note_off,0,0,3,,,,,,,,,,,,,,,2,,,62,0
647640,note_off,120,0,3,,,,,,,,,,,,,,,2,,,65,0
647640,note_off,120,0,1,,,,,,,,,,,,,,,0,,,79,0
647640,note_on,0,0,1,,,,,,,,,,,,,,,0,,,77,54
647760,note_off,120,0,1,,,,,,,,,,,,,,,0,,,77,0
647760,note_on,120,0,3,,,,,,,,,,,,,,,2,,,62,40
647760,note_on,0,0,3,,,,,,,,,,,,,,,2,,,55,40
647760,note_on,0,0,1,,,,,,,,,,,,,,,0,,,81,55
647880,note_on,0,0,1,,,,,,,,,,,,,,,0,,,79,55
647880,note_off,120,0,1,,,,,,,,,,,,,,,0,,,81,0
647880,note_off,120,0,3,,,,,,,,,,,,,,,2,,,62,0
647880,note_off,0,0,3,,,,,,,,,,,,,,,2,,,55,0
648000,note_on,0,0,1,,,,,,,,,,,,,,,0,,,83,56
648000,note_off,120,0,1,,,,,,,,,,,,,,,0,,,79,0
648000,note_on,120,0,3,,,,,,,,,,,,,,,2,,,65,40
648000,note_on,0,0,3,,,,,,,,,,,,,,,2,,,62,40
648120,note_off,120,0,3,,,,,,,,,,,,,,,2,,,65,0
648120,note_on,0,0,1,,,,,,,,,,,,,,,0,,,81,56
648120,note_off,120,0,1,,,,,,,,,,,,,,,0,,,83,0
648120,note_off,0,0,3,,,,,,,,,,,,,,,2,,,62,0
648240,note_on,120,0,3,,,,,,,,,,,,,,,2,,,55,39
648240,note_on,0,0,3,,,,,,,,,,,,,,,2,,,62,39
648240,note_off,120,0,1,,,,,,,,,,,,,,,0,,,81,0
648240,note_on,0,0,1,,,,,,,,,,,,,,,0,,,84,57
648360,note_off,120,0,1,,,,,,,,,,,,,,,0,,,84,0
648360,note_off,120,0,3,,,,,,,,,,,,,,,2,,,55,0
648360,note_off,0,0,3,,,,,,,,,,,,,,,2,,,62,0
648360,note_on,0,0,1,,,,,,,,,,,,,,,0,,,83,57
648480,note_on,120,0,3,,,,,,,,,,,,,,,2,,,62,39
648480,note_on,0,0,3,,,,,,,,,,,,,,,2,,,65,39
648480,note_on,0,0,1,,,,,,,,,,,,,,,0,,,86,58
648480,note_off,120,0,1,,,,,,,,,,,,,,,0,,,83,0
648600,note_off,0,0,3,,,,,,,,,,,,,,,2,,,65,0
648600,note_off,120,0,3,,,,,,,,,,,,,,,2,,,62,0
648600,note_on,0,0,1,,,,,,,,,,,,,,,0,,,85,59
648600,note_off,120,0,1,,,,,,,,,,,,,,,0,,,86,0
648720,note_on,0,0,1,,,,,,,,,,,,,,,0,,,88,59
648720,note_off,120,0,1,,,,,,,,,,,,,,,0,,,85,0
648720,note_on,120,0,3,,,,,,,,,,,,,,,2,,,62,38
648720,note_on,0,0,3,,,,,,,,,,,,,,,2,,,55,38
648840,note_on,0,0,1,,,,,,,,,,,,,,,0,,,86,60
648840,note_off,0,0,3,,,,,,,,,,,,,,,2,,,55,0
648840,note_off,120,0,3,,,,,,,,,,,,,,,2,,,62,0
648840,note_off,120,0,1,,,,,,,,,,,,,,,0,,,88,0
648960,note_on,0,0,3,,,,,,,,,,,,,,,2,,,62,40
648960,note_off,120,0,1,,,,,,,,,,,,,,,0,,,86,0
648960,note_on,120,0,3,,,,,,,,,,,,,,,2,,,65,40
648960,note_on,0,0,1,,,,,,,,,,,,,,,0,,,89,60
649080,note_off,120,0,3,,,,,,,,,,,,,,,2,,,65,0
649080,note_off,0,0,3,,,,,,,,,,,,,,,2,,,62,0
649080,note_off,120,0,1,,,,,,,,,,,,,,,0,,,89,0
649080,note_on,0,0,1,,,,,,,,,,,,,,,0,,,88,61
649200,note_on,0,0,3,,,,,,,,,,,,,,,2,,,55,41
649200,note_on,120,0,3,,,,,,,,,,,,,,,2,,,62,41
649200,note_off,120,0,1,,,,,,,,,,,,,,,0,,,88,0
649200,note_on,0,0,1,,,,,,,,,,,,,,,0,,,86,61
649320,note_off,0,0,3,,,,,,,,,,,,,,,2,,,55,0
649320,note_off,120,0,3,,,,,,,,,,,,,,,2,,,62,0
649320,note_off,120,0,1,,,,,,,,,,,,,,,0,,,86,0
649320,note_on,0,0,1,,,,,,,,,,,,,,,0,,,84,62
649440,note_on,0,0,3,,,,,,,,,,,,,,,2,,,62,41
649440,note_on,0,0,1,,,,,,,,,,,,,,,0,,,83,63
649440,note_off,120,0,1,,,,,,,,,,,,,,,0,,,84,0
649440,note_on,120,0,3,,,,,,,,,,,,,,,2,,,65,41
649560,note_off,0,0,3,,,,,,,,,,,,,,,2,,,62,0
649560,note_off,120,0,1,,,,,,,,,,,,,,,0,,,83,0
649560,note_off,120,0,3,,,,,,,,,,,,,,,2,,,65,0
649560,note_on,0,0,1,,,,,,,,,,,,,,,0,,,84,65
649680,note_on,120,0,3,,,,,,,,,,,,,,,2,,,62,41
649680,note_on,0,0,3,,,,,,,,,,,,,,,2,,,55,41
649680,note_off,120,0,1,,,,,,,,,,,,,,,0,,,84,0
649680,note_on,0,0,1,,,,,,,,,,,,,,,0,,,85,64
649800,note_off,120,0,3,,,,,,,,,,,,,,,2,,,62,0
649800,note_off,120,0,1,,,,,,,,,,,,,,,0,,,85,0
649800,note_on,0,0,1,,,,,,,,,,,,,,,0,,,86,63
649800,note_off,0,0,3,,,,,,,,,,,,,,,2,,,55,0
649920,note_on,0,0,1,,,,,,,,,,,,,,,0,,,84,62
649920,note_off,120,0,1,,,,,,,,,,,,,,,0,,,86,0
649920,note_on,0,0,3,,,,,,,,,,,,,,,2,,,65,41
649920,note_on,120,0,3,,,,,,,,,,,,,,,2,,,62,41
650040,note_off,120,0,3,,,,,,,,,,,,,,,2,,,62,0
650040,note_on,0,0,1,,,,,,,,,,,,,,,0,,,83,61
650040,note_off,120,0,1,,,,,,,,,,,,,,,0,,,84,0
650040,note_off,0,0,3,,,,,,,,,,,,,,,2,,,65,0
650160,note_on,0,0,1,,,,,,,,,,,,,,,0,,,81,60
650160,note_off,120,0,1,,,,,,,,,,,,,,,0,,,83,0
650160,note_on,0,0,3,,,,,,,,,,,,,,,2,,,55,41
650160,note_on,120,0,3,,,,,,,,,,,,,,,2,,,62,41
650280,note_off,0,0,3,,,,,,,,,,,,,,,2,,,55,0
650280,note_off,120,0,3,,,,,,,,,,,,,,,2,,,62,0
650280,note_on,0,0,1,,,,,,,,,,,,,,,0,,,79,59
650280,note_off,120,0,1,,,,,,,,,,,,,,,0,,,81,0
650400,note_on,0,0,1,,,,,,,,,,,,,,,0,,,78,58
650400,note_on,120,0,3,,,,,,,,,,,,,,,2,,,62,41
650400,note_on,0,0,3,,,,,,,,,,,,,,,2,,,65,41
650400,note_off,120,0,1,,,,,,,,,,,,,,,0,,,79,0
650520,set_tempo,3960,1,0,,,,,,,487804,,,,,,,,,,,,
650520,note_off,0,0,3,,,,,,,,,,,,,,,2,,,65,0
650520,note_off,120,0,3,,,,,,,,,,,,,,,2,,,62,0
650520,note_off,120,0,1,,,,,,,,,,,,,,,0,,,78,0
650520,note_on,0,0,1,,,,,,,,,,,,,,,0,,,79,57
650640,set_tempo,120,1,0,,,,,,,491803,,,,,,,,,,,,
650640,note_on,120,0,3,,,,,,,,,,,,,,,2,,,55,41
650640,note_on,0,0,3,,,,,,,,,,,,,,,2,,,62,41
650640,note_on,0,0,1,,,,,,,,,,,,,,,0,,,81,56
650640,note_off,120,0,1,,,,,,,,,,,,,,,0,,,79,0
650760,set_tempo,120,1,0,,,,,,,504201,,,,,,,,,,,,
650760,note_off,120,0,1,,,,,,,,,,,,,,,0,,,81,0
650760,note_on,0,0,1,,,,,,,,,,,,,,,0,,,77,56
650760,note_off,120,0,3,,,,,,,,,,,,,,,2,,,55,0
650760,note_off,0,0,3,,,,,,,,,,,,,,,2,,,62,0
650880,set_tempo,120,1,0,,,,,,,500000,,,,,,,,,,,,
650880,note_on,0,0,1,,,,,,,,,,,,,,,0,,,75,55
650880,note_on,4280,0,4,,,,,,,,,,,,,,,3,,,48,67
650880,note_off,120,0,1,,,,,,,,,,,,,,,0,,,77,0
650900,note_off,20,0,4,,,,,,,,,,,,,,,3,,,43,0
650980,set_tempo,100,1,0,,,,,,,472440,,,,,,,,,,,,
651120,note_on,360,0,3,,,,,,,,,,,,,,,2,,,55,41
651120,note_on,0,0,3,,,,,,,,,,,,,,,2,,,60,41
651240,note_off,0,0,3,,,,,,,,,,,,,,,2,,,60,0
651240,note_off,120,0,3,,,,,,,,,,,,,,,2,,,55,0
651260,note_off,380,0,1,,,,,,,,,,,,,,,0,,,75,0
651360,note_on,100,0,1,,,,,,,,,,,,,,,0,,,76,69
651360,note_on,0,0,3,,,,,,,,,,,,,,,2,,,60,42
651360,note_on,120,0,3,,,,,,,,,,,,,,,2,,,64,42
651480,note_off,0,0,3,,,,,,,,,,,,,,,2,,,60,0
651480,note_off,120,0,3,,,,,,,,,,,,,,,2,,,64,0
651600,note_on,0,0,3,,,,,,,,,,,,,,,2,,,60,42
651600,note_on,120,0,3,,,,,,,,,,,,,,,2,,,55,42
651720,note_off,120,0,3,,,,,,,,,,,,,,,2,,,55,0
651720,note_off,0,0,3,,,,,,,,,,,,,,,2,,,60,0
651840,note_on,120,0,3,,,,,,,,,,,,,,,2,,,64,42
651840,note_on,0,0,3,,,,,,,,,,,,,,,2,,,60,42
651960,note_off,0,0,3,,,,,,,,,,,,,,,2,,,60,0
651960,note_off,120,0,3,,,,,,,,,,,,,,,2,,,64,0
652080,note_on,120,0,3,,,,,,,,,,,,,,,2,,,60,42
652080,note_on,0,0,3,,,,,,,,,,,,,,,2,,,55,42
652125,note_off,1225,0,4,,,,,,,,,,,,,,,3,,,48,0
652200,set_tempo,1220,1,0,,,,,,,487804,,,,,,,,,,,,
652200,note_off,120,0,3,,,,,,,,,,,,,,,2,,,60,0
652200,note_off,0,0,3,,,,,,,,,,,,,,,2,,,55,0
652320,set_tempo,120,1,0,,,,,,,472440,,,,,,,,,,,,
652320,note_on,195,0,4,,,,,,,,,,,,,,,3,,,45,65
652560,note_on,360,0,3,,,,,,,,,,,,,,,2,,,60,42
652560,note_on,0,0,3,,,,,,,,,,,,,,,2,,,57,42
652680,note_off,120,0,3,,,,,,,,,,,,,,,2,,,60,0
652680,set_tempo,360,1,0,,,,,,,487804,,,,,,,,,,,,
652680,note_off,0,0,3,,,,,,,,,,,,,,,2,,,57,0
652685,note_off,1325,0,1,,,,,,,,,,,,,,,0,,,76,0
652720,note_on,32095,0,2,,,,,,,,,,,,,,,1,,,76,70
652800,note_on,120,0,3,,,,,,,,,,,,,,,2,,,64,42
652800,note_on,115,0,1,,,,,,,,,,,,,,,0,,,84,74
652800,set_tempo,120,1,0,,,,,,,472440,,,,,,,,,,,,
652800,note_on,0,0,3,,,,,,,,,,,,,,,2,,,60,42
652920,note_off,120,0,3,,,,,,,,,,,,,,,2,,,64,0
652920,note_off,0,0,3,,,,,,,,,,,,,,,2,,,60,0
653040,note_on,120,0,3,,,,,,,,,,,,,,,2,,,60,42
653040,note_on,0,0,3,,,,,,,,,,,,,,,2,,,57,42
653160,note_off,120,0,3,,,,,,,,,,,,,,,2,,,60,0
653160,note_off,0,0,3,,,,,,,,,,,,,,,2,,,57,0
653280,note_on,0,0,3,,,,,,,,,,,,,,,2,,,60,42
653280,note_on,120,0,3,,,,,,,,,,,,,,,2,,,64,42
653400,note_off,120,0,3,,,,,,,,,,,,,,,2,,,64,0
653400,note_off,0,0,3,,,,,,,,,,,,,,,2,,,60,0
653520,note_on,120,0,3,,,,,,,,,,,,,,,2,,,60,43
653520,note_on,0,0,3,,,,,,,,,,,,,,,2,,,57,43
653565,note_off,1245,0,4,,,,,,,,,,,,,,,3,,,45,0
653640,note_off,120,0,3,,,,,,,,,,,,,,,2,,,60,0
653640,note_off,0,0,3,,,,,,,,,,,,,,,2,,,57,0
653640,set_tempo,840,1,0,,,,,,,487804,,,,,,,,,,,,
653760,note_off,960,0,1,,,,,,,,,,,,,,,0,,,84,0
653760,set_tempo,120,1,0,,,,,,,472440,,,,,,,,,,,,
653760,note_on,195,0,4,,,,,,,,,,,,,,,3,,,43,63
653760,note_on,0,0,1,,,,,,,,,,,,,,,0,,,83,68
653915,note_off,155,0,1,,,,,,,,,,,,,,,0,,,83,0
654000,note_on,85,0,1,,,,,,,,,,,,,,,0,,,81,66
654000,note_on,0,0,3,,,,,,,,,,,,,,,2,,,55,43
654000,note_on,360,0,3,,,,,,,,,,,,,,,2,,,60,43
654120,note_off,120,0,3,,,,,,,,,,,,,,,2,,,60,0
654120,note_off,0,0,3,,,,,,,,,,,,,,,2,,,55,0
654155,note_off,155,0,1,,,,,,,,,,,,,,,0,,,81,0
654240,note_on,85,0,1,,,,,,,,,,,,,,,0,,,79,65
654240,note_on,0,0,3,,,,,,,,,,,,,,,2,,,60,43
654240,note_on,120,0,3,,,,,,,,,,,,,,,2,,,64,43
654360,note_off,120,0,3,,,,,,,,,,,,,,,2,,,64,0
654360,note_off,0,0,3,,,,,,,,,,,,,,,2,,,60,0
654395,note_off,155,0,1,,,,,,,,,,,,,,,0,,,79,0
654480,note_on,0,0,3,,,,,,,,,,,,,,,2,,,60,43
654480,note_on,120,0,3,,,,,,,,,,,,,,,2,,,55,43
654480,note_on,85,0,1,,,,,,,,,,,,,,,0,,,78,64
654600,note_off,0,0,3,,,,,,,,,,,,,,,2,,,60,0
654600,note_off,120,0,3,,,,,,,,,,,,,,,2,,,55,0
654635,note_off,155,0,1,,,,,,,,,,,,,,,0,,,78,0
654720,note_on,120,0,3,,,,,,,,,,,,,,,2,,,60,43
654720,note_on,0,0,3,,,,,,,,,,,,,,,2,,,64,43
654720,note_on,85,0,1,,,,,,,,,,,,,,,0,,,76,63
654840,note_off,0,0,3,,,,,,,,,,,,,,,2,,,64,0
654840,note_off,120,0,3,,,,,,,,,,,,,,,2,,,60,0
654875,note_off,155,0,1,,,,,,,,,,,,,,,0,,,76,0
654960,note_on,120,0,3,,,,,,,,,,,,,,,2,,,55,43
654960,note_on,85,0,1,,,,,,,,,,,,,,,0,,,74,62
654960,note_on,0,0,3,,,,,,,,,,,,,,,2,,,60,43
655005,note_off,1245,0,4,,,,,,,,,,,,,,,3,,,43,0
655080,set_tempo,1320,1,0,,,,,,,487804,,,,,,,,,,,,
655080,note_off,0,0,3,,,,,,,,,,,,,,,2,,,60,0
655080,note_off,120,0,3,,,,,,,,,,,,,,,2,,,55,0
655115,note_off,155,0,1,,,,,,,,,,,,,,,0,,,74,0
655200,note_on,85,0,1,,,,,,,,,,,,,,,0,,,76,69
655200,note_on,195,0,4,,,,,,,,,,,,,,,3,,,42,61
655200,set_tempo,120,1,0,,,,,,,472440,,,,,,,,,,,,
655440,note_on,360,0,3,,,,,,,,,,,,,,,2,,,60,43
655440,note_on,0,0,3,,,,,,,,,,,,,,,2,,,57,43
655560,note_off,120,0,3,,,,,,,,,,,,,,,2,,,60,0
655560,note_off,0,0,3,,,,,,,,,,,,,,,2,,,57,0
655560,set_tempo,360,1,0,,,,,,,487804,,,,,,,,,,,,
655680,set_tempo,120,1,0,,,,,,,472440,,,,,,,,,,,,
655680,note_off,480,0,1,,,,,,,,,,,,,,,0,,,76,0
655680,note_on,0,0,3,,,,,,,,,,,,,,,2,,,62,43
655680,note_on,120,0,3,,,,,,,,,,,,,,,2,,,60,43
655680,note_on,0,0,1,,,,,,,,,,,,,,,0,,,74,66
655800,note_off,120,0,3,,,,,,,,,,,,,,,2,,,60,0
655800,note_off,0,0,3,,,,,,,,,,,,,,,2,,,62,0
655920,note_on,120,0,3,,,,,,,,,,,,,,,2,,,60,43
655920,note_on,0,0,3,,,,,,,,,,,,,,,2,,,57,43
656040,note_off,120,0,3,,,,,,,,,,,,,,,2,,,60,0
656040,note_off,0,0,3,,,,,,,,,,,,,,,2,,,57,0
656160,note_on,0,0,3,,,,,,,,,,,,,,,2,,,60,42
656160,note_on,120,0,3,,,,,,,,,,,,,,,2,,,62,42
656280,note_off,0,0,3,,,,,,,,,,,,,,,2,,,60,0
656280,note_off,120,0,3,,,,,,,,,,,,,,,2,,,62,0
656400,note_on,0,0,3,,,,,,,,,,,,,,,2,,,57,42
656400,note_on,120,0,3,,,,,,,,,,,,,,,2,,,60,42
656445,note_off,1245,0,4,,,,,,,,,,,,,,,3,,,42,0
656520,note_off,120,0,3,,,,,,,,,,,,,,,2,,,60,0
656520,note_off,0,0,3,,,,,,,,,,,,,,,2,,,57,0
656640,note_on,195,0,4,,,,,,,,,,,,,,,3,,,42,59
656880,note_off,1200,0,1,,,,,,,,,,,,,,,0,,,74,0
656880,note_on,360,0,3,,,,,,,,,,,,,,,2,,,60,42
656880,note_on,0,0,1,,,,,,,,,,,,,,,0,,,74,66
656880,note_on,0,0,3,,,,,,,,,,,,,,,2,,,57,42
657000,note_off,0,0,3,,,,,,,,,,,,,,,2,,,57,0
657000,note_off,120,0,3,,,,,,,,,,,,,,,2,,,60,0
657120,note_on,120,0,3,,,,,,,,,,,,,,,2,,,62,41
657120,note_on,0,0,3,,,,,,,,,,,,,,,2,,,60,41
657240,note_off,120,0,3,,,,,,,,,,,,,,,2,,,62,0
657240,note_off,0,0,3,,,,,,,,,,,,,,,2,,,60,0
657360,note_on,0,0,3,,,,,,,,,,,,,,,2,,,60,41
657360,note_on,120,0,3,,,,,,,,,,,,,,,2,,,57,41
657360,note_on,0,0,1,,,,,,,,,,,,,,,0,,,74,70
657360,note_off,480,0,1,,,,,,,,,,,,,,,0,,,74,0
657480,note_off,120,0,3,,,,,,,,,,,,,,,2,,,57,0
657480,note_off,0,0,3,,,,,,,,,,,,,,,2,,,60,0
657600,note_on,120,0,3,,,,,,,,,,,,,,,2,,,62,41
657600,note_on,0,0,3,,,,,,,,,,,,,,,2,,,60,41
657720,note_off,120,0,3,,,,,,,,,,,,,,,2,,,62,0
657720,note_off,0,0,3,,,,,,,,,,,,,,,2,,,60,0
657840,note_on,0,0,3,,,,,,,,,,,,,,,2,,,60,40
657840,note_on,120,0,3,,,,,,,,,,,,,,,2,,,57,40
657840,note_on,0,0,1,,,,,,,,,,,,,,,0,,,74,74
657840,note_off,480,0,1,,,,,,,,,,,,,,,0,,,74,0
657885,note_off,1245,0,4,,,,,,,,,,,,,,,3,,,42,0
657960,note_off,120,0,3,,,,,,,,,,,,,,,2,,,57,0
657960,note_off,0,0,3,,,,,,,,,,,,,,,2,,,60,0
658080,note_on,0,0,1,,,,,,,,,,,,,,,0,,,74,76
658080,note_off,240,0,1,,,,,,,,,,,,,,,0,,,74,0
658080,note_on,195,0,4,,,,,,,,,,,,,,,3,,,43,57
658180,note_off,100,0,1,,,,,,,,,,,,,,,0,,,74,0
658240,note_on,60,0,1,,,,,,,,,,,,,,,0,,,73,75
658320,note_on,360,0,3,,,,,,,,,,,,,,,2,,,59,40
658320,note_on,0,0,3,,,,,,,,,,,,,,,2,,,55,40
658340,note_off,100,0,1,,,,,,,,,,,,,,,0,,,73,0
658400,note_on,60,0,1,,,,,,,,,,,,,,,0,,,74,74
658440,note_off,0,0,3,,,,,,,,,,,,,,,2,,,55,0
658440,note_off,120,0,3,,,,,,,,,,,,,,,2,,,59,0
658500,note_off,100,0,1,,,,,,,,,,,,,,,0,,,74,0
658560,note_on,0,0,3,,,,,,,,,,,,,,,2,,,62,40
658560,note_on,120,0,3,,,,,,,,,,,,,,,2,,,59,40
658560,note_on,60,0,1,,,,,,,,,,,,,,,0,,,75,73
658660,note_off,100,0,1,,,,,,,,,,,,,,,0,,,75,0
658680,note_off,120,0,3,,,,,,,,,,,,,,,2,,,59,0
658680,note_off,0,0,3,,,,,,,,,,,,,,,2,,,62,0
658720,note_on,60,0,1,,,,,,,,,,,,,,,0,,,76,72
658800,note_on,120,0,3,,,,,,,,,,,,,,,2,,,59,39
658800,note_on,0,0,3,,,,,,,,,,,,,,,2,,,55,39
658820,note_off,100,0,1,,,,,,,,,,,,,,,0,,,76,0
658880,note_on,60,0,1,,,,,,,,,,,,,,,0,,,77,71
658920,note_off,120,0,3,,,,,,,,,,,,,,,2,,,59,0
658920,note_off,0,0,3,,,,,,,,,,,,,,,2,,,55,0
658980,note_off,100,0,1,,,,,,,,,,,,,,,0,,,77,0
659040,note_on,0,0,3,,,,,,,,,,,,,,,2,,,59,39
659040,note_on,120,0,3,,,,,,,,,,,,,,,2,,,62,39
659040,note_on,60,0,1,,,,,,,,,,,,,,,0,,,78,70
659160,note_off,0,0,3,,,,,,,,,,,,,,,2,,,59,0
659160,note_off,120,0,3,,,,,,,,,,,,,,,2,,,62,0
659195,note_off,155,0,1,,,,,,,,,,,,,,,0,,,78,0
659280,note_on,0,0,3,,,,,,,,,,,,,,,2,,,55,39
659280,note_on,120,0,3,,,,,,,,,,,,,,,2,,,59,39
659280,note_on,85,0,1,,,,,,,,,,,,,,,0,,,79,69
659325,note_off,1245,0,4,,,,,,,,,,,,,,,3,,,43,0
659400,set_tempo,3720,1,0,,,,,,,491803,,,,,,,,,,,,
659400,note_off,0,0,3,,,,,,,,,,,,,,,2,,,55,0
659400,note_off,120,0,3,,,,,,,,,,,,,,,2,,,59,0
659435,note_off,155,0,1,,,,,,,,,,,,,,,0,,,79,0
659520,note_on,195,0,4,,,,,,,,,,,,,,,3,,,36,55
659520,set_tempo,120,1,0,,,,,,,472440,,,,,,,,,,,,
659520,note_on,85,0,1,,,,,,,,,,,,,,,0,,,69,68
659620,note_off,100,0,1,,,,,,,,,,,,,,,0,,,69,0
659680,note_on,60,0,1,,,,,,,,,,,,,,,0,,,68,67
659760,note_on,0,0,3,,,,,,,,,,,,,,,2,,,48,38
659760,note_on,360,0,3,,,,,,,,,,,,,,,2,,,52,38
659780,note_off,100,0,1,,,,,,,,,,,,,,,0,,,68,0
659840,note_on,60,0,1,,,,,,,,,,,,,,,0,,,69,66
659880,note_off,120,0,3,,,,,,,,,,,,,,,2,,,52,0
659880,note_off,0,0,3,,,,,,,,,,,,,,,2,,,48,0
659940,note_off,100,0,1,,,,,,,,,,,,,,,0,,,69,0
660000,note_on,0,0,3,,,,,,,,,,,,,,,2,,,52,38
660000,note_on,60,0,1,,,,,,,,,,,,,,,0,,,70,65
660000,note_on,120,0,3,,,,,,,,,,,,,,,2,,,57,38
660075,note_off,75,0,1,,,,,,,,,,,,,,,0,,,70,0
660120,note_off,0,0,3,,,,,,,,,,,,,,,2,,,52,0
660120,note_off,120,0,3,,,,,,,,,,,,,,,2,,,57,0
660120,note_on,45,0,1,,,,,,,,,,,,,,,0,,,71,64
660195,note_off,75,0,1,,,,,,,,,,,,,,,0,,,71,0
660240,note_on,0,0,3,,,,,,,,,,,,,,,2,,,52,38
660240,note_on,120,0,3,,,,,,,,,,,,,,,2,,,48,38
660240,note_on,45,0,1,,,,,,,,,,,,,,,0,,,72,63
660315,note_off,75,0,1,,,,,,,,,,,,,,,0,,,72,0
660360,note_on,45,0,1,,,,,,,,,,,,,,,0,,,73,63
660360,note_off,0,0,3,,,,,,,,,,,,,,,2,,,52,0
660360,note_off,120,0,3,,,,,,,,,,,,,,,2,,,48,0
660435,note_off,75,0,1,,,,,,,,,,,,,,,0,,,73,0
660480,note_on,45,0,1,,,,,,,,,,,,,,,0,,,74,62
660480,note_on,0,0,3,,,,,,,,,,,,,,,2,,,52,38
660480,note_on,120,0,3,,,,,,,,,,,,,,,2,,,57,38
660580,note_off,100,0,1,,,,,,,,,,,,,,,0,,,74,0
660600,note_off,120,0,3,,,,,,,,,,,,,,,2,,,57,0
660600,note_off,0,0,3,,,,,,,,,,,,,,,2,,,52,0
660640,note_on,60,0,1,,,,,,,,,,,,,,,0,,,75,61
660720,note_on,120,0,3,,,,,,,,,,,,,,,2,,,48,37
660720,note_on,0,0,3,,,,,,,,,,,,,,,2,,,52,37
660740,note_off,100,0,1,,,,,,,,,,,,,,,0,,,75,0
660790,note_off,1270,0,4,,,,,,,,,,,,,,,3,,,36,0
660800,note_on,60,0,1,,,,,,,,,,,,,,,0,,,76,60
660840,note_off,120,0,3,,,,,,,,,,,,,,,2,,,48,0
660840,note_off,0,0,3,,,,,,,,,,,,,,,2,,,52,0
660840,set_tempo,1320,1,0,,,,,,,487804,,,,,,,,,,,,
660900,note_off,100,0,1,,,,,,,,,,,,,,,0,,,76,0
660960,note_on,170,0,4,,,,,,,,,,,,,,,3,,,38,53
660960,note_on,60,0,1,,,,,,,,,,,,,,,0,,,76,64
660960,set_tempo,120,1,0,,,,,,,472440,,,,,,,,,,,,
661200,note_on,0,0,3,,,,,,,,,,,,,,,2,,,55,37
661200,note_on,360,0,3,,,,,,,,,,,,,,,2,,,50,37
661320,note_off,0,0,3,,,,,,,,,,,,,,,2,,,55,0
661320,note_off,120,0,3,,,,,,,,,,,,,,,2,,,50,0
661440,note_on,0,0,1,,,,,,,,,,,,,,,0,,,62,56
661440,note_off,480,0,1,,,,,,,,,,,,,,,0,,,76,0
661440,note_on,0,0,3,,,,,,,,,,,,,,,2,,,55,37
661440,note_on,120,0,3,,,,,,,,,,,,,,,2,,,59,37
661560,note_off,120,0,3,,,,,,,,,,,,,,,2,,,59,0
661560,note_off,0,0,3,,,,,,,,,,,,,,,2,,,55,0
661680,note_on,0,0,3,,,,,,,,,,,,,,,2,,,50,36
661680,note_on,120,0,3,,,,,,,,,,,,,,,2,,,55,36
661800,note_off,0,0,3,,,,,,,,,,,,,,,2,,,50,0
661800,note_off,120,0,3,,,,,,,,,,,,,,,2,,,55,0
661920,note_on,0,0,3,,,,,,,,,,,,,,,2,,,55,36
661920,note_on,120,0,3,,,,,,,,,,,,,,,2,,,59,36
662040,note_off,0,0,3,,,,,,,,,,,,,,,2,,,55,0
662040,note_off,120,0,3,,,,,,,,,,,,,,,2,,,59,0
662160,note_on,120,0,3,,,,,,,,,,,,,,,2,,,50,36
662160,note_on,0,0,3,,,,,,,,,,,,,,,2,,,55,36
662230,note_off,1270,0,4,,,,,,,,,,,,,,,3,,,38,0
662280,note_off,120,0,3,,,,,,,,,,,,,,,2,,,50,0
662280,note_off,0,0,3,,,,,,,,,,,,,,,2,,,55,0
662400,note_on,170,0,4,,,,,,,,,,,,,,,3,,,38,51
662640,note_on,0,0,3,,,,,,,,,,,,,,,2,,,57,35
662640,note_on,360,0,3,,,,,,,,,,,,,,,2,,,50,35
662640,note_on,1200,0,1,,,,,,,,,,,,,,,0,,,64,50
662645,note_off,5,0,1,,,,,,,,,,,,,,,0,,,62,0
662720,note_off,75,0,1,,,,,,,,,,,,,,,0,,,64,0
662720,note_on,0,0,1,,,,,,,,,,,,,,,0,,,62,51
662760,note_off,120,0,3,,,,,,,,,,,,,,,2,,,50,0
662760,note_off,0,0,3,,,,,,,,,,,,,,,2,,,57,0
662800,note_off,80,0,1,,,,,,,,,,,,,,,0,,,62,0
662800,note_on,0,0,1,,,,,,,,,,,,,,,0,,,61,51
662880,note_off,80,0,1,,,,,,,,,,,,,,,0,,,61,0
662880,note_on,0,0,1,,,,,,,,,,,,,,,0,,,62,52
662880,note_on,120,0,3,,,,,,,,,,,,,,,2,,,60,35
662880,note_on,0,0,3,,,,,,,,,,,,,,,2,,,57,35
662960,note_off,80,0,1,,,,,,,,,,,,,,,0,,,62,0
662960,note_on,0,0,1,,,,,,,,,,,,,,,0,,,64,53
663000,note_off,120,0,3,,,,,,,,,,,,,,,2,,,60,0
663000,note_off,0,0,3,,,,,,,,,,,,,,,2,,,57,0
663040,note_on,0,0,1,,,,,,,,,,,,,,,0,,,66,54
663040,note_off,80,0,1,,,,,,,,,,,,,,,0,,,64,0
663120,note_off,80,0,1,,,,,,,,,,,,,,,0,,,66,0
663120,note_on,120,0,3,,,,,,,,,,,,,,,2,,,57,35
663120,note_on,0,0,1,,,,,,,,,,,,,,,0,,,67,54
663120,note_on,0,0,3,,,,,,,,,,,,,,,2,,,50,35
663200,note_on,0,0,1,,,,,,,,,,,,,,,0,,,69,55
663200,note_off,80,0,1,,,,,,,,,,,,,,,0,,,67,0
663240,note_off,0,0,3,,,,,,,,,,,,,,,2,,,50,0
663240,note_off,120,0,3,,,,,,,,,,,,,,,2,,,57,0
663280,note_off,80,0,1,,,,,,,,,,,,,,,0,,,69,0
663280,note_on,0,0,1,,,,,,,,,,,,,,,0,,,71,56
663310,set_tempo,2350,1,0,,,,,,,487804,,,,,,,,,,,,
663360,note_on,120,0,3,,,,,,,,,,,,,,,2,,,60,35
663360,note_on,0,0,3,,,,,,,,,,,,,,,2,,,57,35
663360,set_tempo,50,1,0,,,,,,,517241,,,,,,,,,,,,
663360,note_off,80,0,1,,,,,,,,,,,,,,,0,,,71,0
663360,note_on,0,0,1,,,,,,,,,,,,,,,0,,,72,57
663480,note_off,120,0,3,,,,,,,,,,,,,,,2,,,60,0
663480,note_off,0,0,3,,,,,,,,,,,,,,,2,,,57,0
663600,set_tempo,240,1,0,,,,,,,535714,,,,,,,,,,,,
663600,note_on,0,0,3,,,,,,,,,,,,,,,2,,,50,34
663600,note_off,240,0,1,,,,,,,,,,,,,,,0,,,72,0
663600,note_on,120,0,3,,,,,,,,,,,,,,,2,,,57,34
663670,note_off,1270,0,4,,,,,,,,,,,,,,,3,,,38,0
663720,note_off,120,0,3,,,,,,,,,,,,,,,2,,,57,0
663720,note_on,120,0,1,,,,,,,,,,,,,,,0,,,66,52
663720,note_off,0,0,3,,,,,,,,,,,,,,,2,,,50,0
663840,note_on,0,0,1,,,,,,,,,,,,,,,0,,,69,51
663840,note_on,0,0,1,,,,,,,,,,,,,,,0,,,60,51
663840,note_off,120,0,1,,,,,,,,,,,,,,,0,,,66,0
663840,note_on,170,0,4,,,,,,,,,,,,,,,3,,,38,49
664080,note_on,360,0,3,,,,,,,,,,,,,,,2,,,50,34
664200,note_off,120,0,3,,,,,,,,,,,,,,,2,,,50,0
664320,note_on,120,0,3,,,,,,,,,,,,,,,2,,,54,34
664440,note_off,120,0,3,,,,,,,,,,,,,,,2,,,54,0
664560,note_on,120,0,3,,,,,,,,,,,,,,,2,,,50,33
664680,note_off,120,0,3,,,,,,,,,,,,,,,2,,,50,0
664800,note_on,120,0,3,,,,,,,,,,,,,,,2,,,54,33
664920,set_tempo,1320,1,0,,,,,,,540540,,,,,,,,,,,,
664920,note_off,120,0,3,,,,,,,,,,,,,,,2,,,54,0
665040,note_on,120,0,3,,,,,,,,,,,,,,,2,,,50,33
665110,note_off,1270,0,4,,,,,,,,,,,,,,,3,,,38,0
665160,note_off,120,0,3,,,,,,,,,,,,,,,2,,,50,0
665280,note_on,12560,0,2,,,,,,,,,,,,,,,1,,,59,33
665280,note_on,0,0,2,,,,,,,,,,,,,,,1,,,67,33
665280,note_off,0,0,1,,,,,,,,,,,,,,,0,,,69,0
665280,note_on,120,0,3,,,,,,,,,,,,,,,2,,,55,33
665280,note_on,170,0,4,,,,,,,,,,,,,,,3,,,43,41
665280,note_off,1440,0,1,,,,,,,,,,,,,,,0,,,60,0
665520,set_tempo,600,1,0,,,,,,,769230,,,,,,,,,,,,
665540,note_off,260,0,3,,,,,,,,,,,,,,,2,,,55,0
665655,note_off,375,0,2,,,,,,,,,,,,,,,1,,,67,0
665695,note_off,40,0,2,,,,,,,,,,,,,,,1,,,59,0
665740,note_off,460,0,4,,,,,,,,,,,,,,,3,,,43,0
665760,note_on,65,0,2,,,,,,,,,,,,,,,1,,,67,32
665760,set_tempo,240,1,0,,,,,,,487804,,,,,,,,,,,,
666070,note_off,310,0,2,,,,,,,,,,,,,,,1,,,67,0
666240,note_on,170,0,2,,,,,,,,,,,,,,,1,,,67,32
666550,note_off,310,0,2,,,,,,,,,,,,,,,1,,,67,0
666720,note_on,170,0,2,,,,,,,,,,,,,,,1,,,67,33
667200,note_off,480,0,2,,,,,,,,,,,,,,,1,,,67,0
667200,note_on,0,0,2,,,,,,,,,,,,,,,1,,,66,35
667680,note_off,480,0,2,,,,,,,,,,,,,,,1,,,66,0
667680,note_on,0,0,2,,,,,,,,,,,,,,,1,,,67,36
667920,set_tempo,2160,1,0,,,,,,,491803,,,,,,,,,,,,
668160,control_change,2420,0,4,,,,,,,,,,,,,64,0,3,,,,
668160,control_change,2880,0,1,,,,,,,,,,,,,64,0,0,,,,
668160,set_tempo,240,1,0,,,,,,,487804,,,,,,,,,,,,
668160,control_change,2620,0,3,,,,,,,,,,,,,64,0,2,,,,
668160,note_off,480,0,2,,,,,,,,,,,,,,,1,,,67,0
668160,note_on,0,0,2,,,,,,,,,,,,,,,1,,,67,38
668640,note_off,480,0,2,,,,,,,,,,,,,,,1,,,67,0
668640,note_on,0,0,2,,,,,,,,,,,,,,,1,,,66,39
669120,note_on,960,0,3,,,,,,,,,,,,,,,2,,,63,40
669120,note_off,480,0,2,,,,,,,,,,,,,,,1,,,66,0
669120,note_on,0,0,2,,,,,,,,,,,,,,,1,,,67,41
669360,note_on,0,0,2,,,,,,,,,,,,,,,1,,,67,38
669360,note_off,240,0,2,,,,,,,,,,,,,,,1,,,67,0
669600,note_off,480,0,3,,,,,,,,,,,,,,,2,,,63,0
669600,note_on,0,0,3,,,,,,,,,,,,,,,2,,,63,41
669600,note_off,240,0,2,,,,,,,,,,,,,,,1,,,67,0
669840,note_on,240,0,2,,,,,,,,,,,,,,,1,,,67,39
670080,note_off,480,0,3,,,,,,,,,,,,,,,2,,,63,0
670080,note_on,0,0,3,,,,,,,,,,,,,,,2,,,62,43
670100,note_off,260,0,2,,,,,,,,,,,,,,,1,,,67,0
670320,note_on,220,0,2,,,,,,,,,,,,,,,1,,,66,41
670560,note_off,480,0,3,,,,,,,,,,,,,,,2,,,62,0
670560,note_on,0,0,3,,,,,,,,,,,,,,,2,,,63,44
670575,note_off,255,0,2,,,,,,,,,,,,,,,1,,,66,0
670800,note_on,225,0,2,,,,,,,,,,,,,,,1,,,67,43
671040,note_off,480,0,3,,,,,,,,,,,,,,,2,,,63,0
671040,note_on,0,0,3,,,,,,,,,,,,,,,2,,,63,46
671055,note_off,255,0,2,,,,,,,,,,,,,,,1,,,67,0
671280,note_on,225,0,2,,,,,,,,,,,,,,,1,,,67,44
671520,note_on,0,0,3,,,,,,,,,,,,,,,2,,,62,47
671520,note_off,480,0,3,,,,,,,,,,,,,,,2,,,63,0
671535,note_off,255,0,2,,,,,,,,,,,,,,,1,,,67,0
671760,note_on,225,0,2,,,,,,,,,,,,,,,1,,,66,46
672000,note_on,0,0,3,,,,,,,,,,,,,,,2,,,63,49
672000,note_off,480,0,3,,,,,,,,,,,,,,,2,,,62,0
672015,note_off,255,0,2,,,,,,,,,,,,,,,1,,,66,0
672240,note_on,4080,0,1,,,,,,,,,,,,,,,0,,,73,53
672240,note_on,0,0,2,,,,,,,,,,,,,,,1,,,70,47
672240,set_tempo,4080,1,0,,,,,,,500000,,,,,,,,,,,,
672240,note_on,225,0,2,,,,,,,,,,,,,,,1,,,67,47
672470,note_off,0,0,2,,,,,,,,,,,,,,,1,,,70,0
672470,note_off,230,0,1,,,,,,,,,,,,,,,0,,,73,0
672470,note_off,230,0,2,,,,,,,,,,,,,,,1,,,67,0
672480,note_on,0,0,3,,,,,,,,,,,,,,,2,,,64,56
672480,note_on,10,0,1,,,,,,,,,,,,,,,0,,,73,62
672480,note_on,4320,0,4,,,,,,,,,,,,,,,3,,,57,62
672480,note_off,480,0,3,,,,,,,,,,,,,,,2,,,63,0
672480,note_on,10,0,2,,,,,,,,,,,,,,,1,,,70,62
672620,set_tempo,380,1,0,,,,,,,487804,,,,,,,,,,,,
672720,note_on,240,0,2,,,,,,,,,,,,,,,1,,,67,47
672960,note_off,480,0,3,,,,,,,,,,,,,,,2,,,64,0
672960,note_on,0,0,3,,,,,,,,,,,,,,,2,,,63,48
672960,note_off,240,0,2,,,,,,,,,,,,,,,1,,,67,0
673200,note_on,240,0,2,,,,,,,,,,,,,,,1,,,66,45
673440,note_off,480,0,3,,,,,,,,,,,,,,,2,,,63,0
673440,note_on,0,0,3,,,,,,,,,,,,,,,2,,,64,46
673440,note_off,240,0,2,,,,,,,,,,,,,,,1,,,66,0
673680,note_on,240,0,2,,,,,,,,,,,,,,,1,,,67,44
673920,note_on,0,0,3,,,,,,,,,,,,,,,2,,,64,45
673920,note_off,480,0,3,,,,,,,,,,,,,,,2,,,64,0
673925,note_off,245,0,2,,,,,,,,,,,,,,,1,,,67,0
674160,note_on,235,0,2,,,,,,,,,,,,,,,1,,,67,42
674400,note_off,240,0,2,,,,,,,,,,,,,,,1,,,67,0
674400,note_off,480,0,3,,,,,,,,,,,,,,,2,,,64,0
674400,note_on,0,0,3,,,,,,,,,,,,,,,2,,,63,43
674640,note_on,240,0,2,,,,,,,,,,,,,,,1,,,66,40
674850,note_off,2370,0,1,,,,,,,,,,,,,,,0,,,73,0
674850,note_off,210,0,2,,,,,,,,,,,,,,,1,,,70,0
674880,note_off,480,0,3,,,,,,,,,,,,,,,2,,,63,0
674880,note_on,0,0,3,,,,,,,,,,,,,,,2,,,64,41
674880,note_off,30,0,2,,,,,,,,,,,,,,,1,,,66,0
675120,note_on,270,0,1,,,,,,,,,,,,,,,0,,,73,49
675120,note_on,0,0,2,,,,,,,,,,,,,,,1,,,70,38
675120,note_on,240,0,2,,,,,,,,,,,,,,,1,,,67,38
675330,note_off,2850,0,4,,,,,,,,,,,,,,,3,,,57,0
675350,note_off,230,0,2,,,,,,,,,,,,,,,1,,,70,0
675360,note_off,480,0,3,,,,,,,,,,,,,,,2,,,64,0
675360,note_on,30,0,4,,,,,,,,,,,,,,,3,,,57,46
675360,note_on,0,0,3,,,,,,,,,,,,,,,2,,,64,39
675360,note_off,240,0,1,,,,,,,,,,,,,,,0,,,73,0
675360,note_off,10,0,2,,,,,,,,,,,,,,,1,,,67,0
675600,note_on,240,0,1,,,,,,,,,,,,,,,0,,,73,47
675600,note_on,240,0,2,,,,,,,,,,,,,,,1,,,67,36
675600,note_on,0,0,2,,,,,,,,,,,,,,,1,,,70,36
675830,note_off,230,0,1,,,,,,,,,,,,,,,0,,,73,0
675840,note_on,0,0,3,,,,,,,,,,,,,,,2,,,65,38
675840,note_off,480,0,3,,,,,,,,,,,,,,,2,,,64,0
675845,note_off,245,0,2,,,,,,,,,,,,,,,1,,,67,0
675845,note_off,0,0,2,,,,,,,,,,,,,,,1,,,70,0
676080,note_on,250,0,1,,,,,,,,,,,,,,,0,,,74,45
676080,note_on,235,0,2,,,,,,,,,,,,,,,1,,,69,35
676305,note_off,225,0,2,,,,,,,,,,,,,,,1,,,69,0
676320,note_off,480,0,3,,,,,,,,,,,,,,,2,,,65,0
676320,note_on,0,0,3,,,,,,,,,,,,,,,2,,,61,36
676325,note_off,245,0,1,,,,,,,,,,,,,,,0,,,74,0
676560,note_on,235,0,1,,,,,,,,,,,,,,,0,,,76,43
676560,note_on,255,0,2,,,,,,,,,,,,,,,1,,,69,37
676680,set_tempo,4060,1,0,,,,,,,500000,,,,,,,,,,,,
676785,note_off,225,0,1,,,,,,,,,,,,,,,0,,,76,0
676800,note_on,15,0,1,,,,,,,,,,,,,,,0,,,76,42
676800,note_on,1440,0,4,,,,,,,,,,,,,,,3,,,50,39
676800,note_off,240,0,2,,,,,,,,,,,,,,,1,,,69,0
676800,note_on,0,0,2,,,,,,,,,,,,,,,1,,,69,36
676800,note_on,0,0,3,,,,,,,,,,,,,,,2,,,61,34
676800,note_off,480,0,3,,,,,,,,,,,,,,,2,,,61,0
676815,note_off,15,0,4,,,,,,,,,,,,,,,3,,,57,0
678240,note_off,1440,0,3,,,,,,,,,,,,,,,2,,,61,0
678240,note_on,0,0,2,,,,,,,,,,,,,,,1,,,69,33
678240,note_off,1440,0,1,,,,,,,,,,,,,,,0,,,76,0
678240,note_on,0,0,1,,,,,,,,,,,,,,,0,,,77,37
678240,note_off,1440,0,2,,,,,,,,,,,,,,,1,,,69,0
678240,note_on,0,0,3,,,,,,,,,,,,,,,2,,,62,29
678255,set_tempo,1575,1,0,,,,,,,540540,,,,,,,,,,,,
678590,note_off,350,0,1,,,,,,,,,,,,,,,0,,,77,0
678605,note_off,365,0,2,,,,,,,,,,,,,,,1,,,69,0
678605,note_off,365,0,3,,,,,,,,,,,,,,,2,,,62,0
678605,note_off,1790,0,4,,,,,,,,,,,,,,,3,,,50,0
678720,note_on,115,0,2,,,,,,,,,,,,,,,1,,,65,34
678720,set_tempo,465,1,0,,,,,,,487804,,,,,,,,,,,,
679115,note_off,395,0,2,,,,,,,,,,,,,,,1,,,65,0
679200,note_on,85,0,2,,,,,,,,,,,,,,,1,,,65,35
679595,note_off,395,0,2,,,,,,,,,,,,,,,1,,,65,0
679680,note_on,85,0,2,,,,,,,,,,,,,,,1,,,65,37
680160,note_on,0,0,2,,,,,,,,,,,,,,,1,,,64,38
680160,note_off,480,0,2,,,,,,,,,,,,,,,1,,,65,0
680640,note_on,0,0,2,,,,,,,,,,,,,,,1,,,65,40
680640,note_off,480,0,2,,,,,,,,,,,,,,,1,,,64,0
681000,set_tempo,2280,1,0,,,,,,,491803,,,,,,,,,,,,
681120,note_on,0,0,2,,,,,,,,,,,,,,,1,,,65,41
681120,note_off,480,0,2,,,,,,,,,,,,,,,1,,,65,0
681120,set_tempo,120,1,0,,,,,,,487804,,,,,,,,,,,,
681600,note_on,0,0,2,,,,,,,,,,,,,,,1,,,64,43
681600,note_off,480,0,2,,,,,,,,,,,,,,,1,,,65,0
682080,note_off,480,0,2,,,,,,,,,,,,,,,1,,,64,0
682080,note_on,0,0,2,,,,,,,,,,,,,,,1,,,65,44
682080,note_on,3475,0,3,,,,,,,,,,,,,,,2,,,61,39
682270,note_off,190,0,2,,,,,,,,,,,,,,,1,,,65,0
682320,note_on,50,0,2,,,,,,,,,,,,,,,1,,,65,42
682510,note_off,190,0,2,,,,,,,,,,,,,,,1,,,65,0
682560,note_off,480,0,3,,,,,,,,,,,,,,,2,,,61,0
682560,note_on,0,0,3,,,,,,,,,,,,,,,2,,,61,40
682800,note_on,290,0,2,,,,,,,,,,,,,,,1,,,65,43
683040,note_on,0,0,3,,,,,,,,,,,,,,,2,,,60,40
683040,note_off,480,0,3,,,,,,,,,,,,,,,2,,,61,0
683045,note_off,245,0,2,,,,,,,,,,,,,,,1,,,65,0
683280,note_on,235,0,2,,,,,,,,,,,,,,,1,,,64,45
683520,note_on,0,0,3,,,,,,,,,,,,,,,2,,,61,41
683520,note_off,480,0,3,,,,,,,,,,,,,,,2,,,60,0
683525,note_off,245,0,2,,,,,,,,,,,,,,,1,,,64,0
683760,note_on,235,0,2,,,,,,,,,,,,,,,1,,,65,46
684000,note_off,480,0,3,,,,,,,,,,,,,,,2,,,61,0
684000,note_on,0,0,3,,,,,,,,,,,,,,,2,,,61,42
684005,note_off,245,0,2,,,,,,,,,,,,,,,1,,,65,0
684240,note_on,235,0,2,,,,,,,,,,,,,,,1,,,65,48
684480,note_off,480,0,3,,,,,,,,,,,,,,,2,,,61,0
684480,note_on,0,0,3,,,,,,,,,,,,,,,2,,,60,42
684480,note_off,240,0,2,,,,,,,,,,,,,,,1,,,65,0
684720,note_on,240,0,2,,,,,,,,,,,,,,,1,,,64,50
684960,note_off,480,0,3,,,,,,,,,,,,,,,2,,,60,0
684960,note_on,0,0,3,,,,,,,,,,,,,,,2,,,61,43
684965,note_off,245,0,2,,,,,,,,,,,,,,,1,,,64,0
685200,note_on,6610,0,1,,,,,,,,,,,,,,,0,,,71,53
685200,note_on,0,0,2,,,,,,,,,,,,,,,1,,,65,51
685200,note_on,235,0,2,,,,,,,,,,,,,,,1,,,68,51
685215,set_tempo,4095,1,0,,,,,,,500000,,,,,,,,,,,,
685425,note_off,225,0,2,,,,,,,,,,,,,,,1,,,68,0
685440,note_on,0,0,2,,,,,,,,,,,,,,,1,,,68,62
685440,note_on,6835,0,4,,,,,,,,,,,,,,,3,,,55,62
685440,note_off,240,0,1,,,,,,,,,,,,,,,0,,,71,0
685440,note_on,0,0,1,,,,,,,,,,,,,,,0,,,71,62
685440,note_off,480,0,3,,,,,,,,,,,,,,,2,,,61,0
685440,note_on,0,0,3,,,,,,,,,,,,,,,2,,,62,52
685440,note_off,15,0,2,,,,,,,,,,,,,,,1,,,65,0
685550,set_tempo,335,1,0,,,,,,,487804,,,,,,,,,,,,
685680,note_on,240,0,2,,,,,,,,,,,,,,,1,,,65,51
685920,note_off,480,0,3,,,,,,,,,,,,,,,2,,,62,0
685920,note_on,0,0,3,,,,,,,,,,,,,,,2,,,61,45
685925,note_off,245,0,2,,,,,,,,,,,,,,,1,,,65,0
686160,note_on,235,0,2,,,,,,,,,,,,,,,1,,,64,50
686400,note_on,0,0,3,,,,,,,,,,,,,,,2,,,62,43
686400,note_off,480,0,3,,,,,,,,,,,,,,,2,,,61,0
686400,note_off,240,0,2,,,,,,,,,,,,,,,1,,,64,0
686640,note_on,240,0,2,,,,,,,,,,,,,,,1,,,65,48
686880,note_on,0,0,3,,,,,,,,,,,,,,,2,,,62,41
686880,note_off,480,0,3,,,,,,,,,,,,,,,2,,,62,0
686885,note_off,245,0,2,,,,,,,,,,,,,,,1,,,65,0
687120,note_on,235,0,2,,,,,,,,,,,,,,,1,,,65,47
687360,note_off,240,0,2,,,,,,,,,,,,,,,1,,,65,0
687360,note_on,0,0,3,,,,,,,,,,,,,,,2,,,61,40
687360,note_off,480,0,3,,,,,,,,,,,,,,,2,,,62,0
687600,note_on,240,0,2,,,,,,,,,,,,,,,1,,,64,46
687810,note_off,210,0,2,,,,,,,,,,,,,,,1,,,68,0
687825,note_off,2385,0,1,,,,,,,,,,,,,,,0,,,71,0
687840,note_off,480,0,3,,,,,,,,,,,,,,,2,,,61,0
687840,note_on,0,0,3,,,,,,,,,,,,,,,2,,,62,38
687845,note_off,35,0,2,,,,,,,,,,,,,,,1,,,64,0
688080,note_on,255,0,1,,,,,,,,,,,,,,,0,,,71,53
688080,note_on,0,0,2,,,,,,,,,,,,,,,1,,,65,44
688080,note_on,235,0,2,,,,,,,,,,,,,,,1,,,68,44
688305,note_off,2865,0,4,,,,,,,,,,,,,,,3,,,55,0
688310,note_off,0,0,2,,,,,,,,,,,,,,,1,,,65,0
688310,note_off,230,0,2,,,,,,,,,,,,,,,1,,,68,0
688320,note_off,480,0,3,,,,,,,,,,,,,,,2,,,62,0
688320,note_on,0,0,3,,,,,,,,,,,,,,,2,,,62,37
688320,note_on,15,0,4,,,,,,,,,,,,,,,3,,,55,47
688325,note_off,245,0,1,,,,,,,,,,,,,,,0,,,71,0
688560,note_on,0,0,2,,,,,,,,,,,,,,,1,,,65,43
688560,note_on,250,0,2,,,,,,,,,,,,,,,1,,,68,43
688560,note_on,235,0,1,,,,,,,,,,,,,,,0,,,71,51
688790,note_off,230,0,2,,,,,,,,,,,,,,,1,,,65,0
688800,note_on,0,0,3,,,,,,,,,,,,,,,2,,,64,35
688800,note_off,240,0,1,,,,,,,,,,,,,,,0,,,71,0
688800,note_off,480,0,3,,,,,,,,,,,,,,,2,,,62,0
688805,note_off,15,0,2,,,,,,,,,,,,,,,1,,,68,0
689040,note_on,240,0,1,,,,,,,,,,,,,,,0,,,72,49
689040,note_on,235,0,2,,,,,,,,,,,,,,,1,,,67,42
689265,note_off,225,0,2,,,,,,,,,,,,,,,1,,,67,0
689265,note_off,225,0,1,,,,,,,,,,,,,,,0,,,72,0
689280,note_off,480,0,3,,,,,,,,,,,,,,,2,,,64,0
689280,note_on,960,0,4,,,,,,,,,,,,,,,3,,,59,43
689490,set_tempo,3940,1,0,,,,,,,500000,,,,,,,,,,,,
689520,note_on,255,0,2,,,,,,,,,,,,,,,1,,,67,43
689520,note_on,255,0,1,,,,,,,,,,,,,,,0,,,74,53
689745,note_off,225,0,2,,,,,,,,,,,,,,,1,,,67,0
689750,note_off,230,0,1,,,,,,,,,,,,,,,0,,,74,0
689760,set_tempo,270,1,0,,,,,,,487804,,,,,,,,,,,,
689760,note_off,0,0,4,,,,,,,,,,,,,,,3,,,55,0
689760,note_on,0,0,1,,,,,,,,,,,,,,,0,,,76,57
689760,control_change,480,0,3,,,,,,,,,,,,,64,0,2,,,,
689760,control_change,10,0,1,,,,,,,,,,,,,64,0,0,,,,
689760,note_off,0,0,4,,,,,,,,,,,,,,,3,,,59,0
689760,note_on,0,0,4,,,,,,,,,,,,,,,3,,,60,50
689760,note_on,15,0,2,,,,,,,,,,,,,,,1,,,67,42
689760,control_change,480,0,4,,,,,,,,,,,,,64,0,3,,,,
690000,note_off,240,0,2,,,,,,,,,,,,,,,1,,,67,0
690000,note_on,0,0,2,,,,,,,,,,,,,,,1,,,66,42
690190,note_off,190,0,2,,,,,,,,,,,,,,,1,,,66,0
690240,note_on,50,0,2,,,,,,,,,,,,,,,1,,,66,41
690480,note_on,0,0,2,,,,,,,,,,,,,,,1,,,67,41
690480,note_off,240,0,2,,,,,,,,,,,,,,,1,,,66,0
690670,note_off,190,0,2,,,,,,,,,,,,,,,1,,,67,0
690720,note_on,50,0,2,,,,,,,,,,,,,,,1,,,67,40
690960,note_on,0,0,2,,,,,,,,,,,,,,,1,,,68,39
690960,note_off,240,0,2,,,,,,,,,,,,,,,1,,,67,0
691140,set_tempo,1380,1,0,,,,,,,491803,,,,,,,,,,,,
691150,note_off,190,0,2,,,,,,,,,,,,,,,1,,,68,0
691200,note_on,0,0,4,,,,,,,,,,,,,,,3,,,53,46
691200,note_off,1440,0,4,,,,,,,,,,,,,,,3,,,60,0
691200,note_on,0,0,1,,,,,,,,,,,,,,,0,,,74,54
691200,note_off,1440,0,1,,,,,,,,,,,,,,,0,,,76,0
691200,set_tempo,60,1,0,,,,,,,487804,,,,,,,,,,,,
691440,note_on,290,0,2,,,,,,,,,,,,,,,1,,,68,39
691630,note_off,190,0,2,,,,,,,,,,,,,,,1,,,68,0
691680,note_on,50,0,2,,,,,,,,,,,,,,,1,,,68,38
691920,note_off,240,0,2,,,,,,,,,,,,,,,1,,,68,0
691920,note_on,0,0,2,,,,,,,,,,,,,,,1,,,69,38
692110,note_off,190,0,2,,,,,,,,,,,,,,,1,,,69,0
692160,note_on,50,0,2,,,,,,,,,,,,,,,1,,,69,37
692400,note_on,0,0,2,,,,,,,,,,,,,,,1,,,70,35
692400,note_off,240,0,2,,,,,,,,,,,,,,,1,,,69,0
692580,set_tempo,1380,1,0,,,,,,,491803,,,,,,,,,,,,
692590,note_off,190,0,2,,,,,,,,,,,,,,,1,,,70,0
692640,note_off,1440,0,4,,,,,,,,,,,,,,,3,,,53,0
692640,note_off,1440,0,1,,,,,,,,,,,,,,,0,,,74,0
692640,note_on,0,0,1,,,,,,,,,,,,,,,0,,,72,50
692640,set_tempo,60,1,0,,,,,,,487804,,,,,,,,,,,,
692640,note_on,0,0,4,,,,,,,,,,,,,,,3,,,54,43
692880,note_on,290,0,2,,,,,,,,,,,,,,,1,,,69,35
693070,note_off,190,0,2,,,,,,,,,,,,,,,1,,,69,0
693120,note_on,50,0,2,,,,,,,,,,,,,,,1,,,69,35
693360,note_off,240,0,2,,,,,,,,,,,,,,,1,,,69,0
693360,note_on,0,0,2,,,,,,,,,,,,,,,1,,,62,34
693550,note_off,190,0,2,,,,,,,,,,,,,,,1,,,62,0
693600,note_on,50,0,2,,,,,,,,,,,,,,,1,,,69,34
693840,note_off,240,0,2,,,,,,,,,,,,,,,1,,,69,0
693840,note_on,0,0,2,,,,,,,,,,,,,,,1,,,62,33
693960,set_tempo,1320,1,0,,,,,,,491803,,,,,,,,,,,,
694030,note_off,190,0,2,,,,,,,,,,,,,,,1,,,62,0
694080,note_off,1440,0,4,,,,,,,,,,,,,,,3,,,54,0
694080,note_on,0,0,4,,,,,,,,,,,,,,,3,,,43,43
694080,note_off,1440,0,1,,,,,,,,,,,,,,,0,,,72,0
694080,set_tempo,120,1,0,,,,,,,487804,,,,,,,,,,,,
694080,note_on,0,0,1,,,,,,,,,,,,,,,0,,,71,47
694080,note_on,50,0,2,,,,,,,,,,,,,,,1,,,62,33
694320,note_on,0,0,2,,,,,,,,,,,,,,,1,,,67,32
694320,note_off,240,0,2,,,,,,,,,,,,,,,1,,,62,0
694560,note_on,4800,0,3,,,,,,,,,,,,,,,2,,,55,32
694800,note_off,480,0,2,,,,,,,,,,,,,,,1,,,67,0
694800,note_on,0,0,2,,,,,,,,,,,,,,,1,,,67,32
695040,note_off,480,0,3,,,,,,,,,,,,,,,2,,,55,0
695040,note_on,0,0,3,,,,,,,,,,,,,,,2,,,55,34
695040,note_off,960,0,1,,,,,,,,,,,,,,,0,,,71,0
695280,note_off,480,0,2,,,,,,,,,,,,,,,1,,,67,0
695280,note_on,0,0,2,,,,,,,,,,,,,,,1,,,67,32
695520,note_off,480,0,3,,,,,,,,,,,,,,,2,,,55,0
695520,note_on,0,0,3,,,,,,,,,,,,,,,2,,,55,36
695745,note_off,465,0,2,,,,,,,,,,,,,,,1,,,67,0
695760,note_on,15,0,2,,,,,,,,,,,,,,,1,,,67,36
696000,note_off,480,0,3,,,,,,,,,,,,,,,2,,,55,0
696000,note_on,960,0,1,,,,,,,,,,,,,,,0,,,69,42
696000,note_on,0,0,3,,,,,,,,,,,,,,,2,,,55,38
696240,note_off,480,0,2,,,,,,,,,,,,,,,1,,,67,0
696240,note_on,0,0,2,,,,,,,,,,,,,,,1,,,67,39
696480,note_on,0,0,1,,,,,,,,,,,,,,,0,,,71,45
696480,note_off,480,0,3,,,,,,,,,,,,,,,2,,,55,0
696480,note_off,480,0,1,,,,,,,,,,,,,,,0,,,69,0
696480,note_on,0,0,3,,,,,,,,,,,,,,,2,,,55,40
696720,note_on,0,0,2,,,,,,,,,,,,,,,1,,,65,42
696720,note_off,480,0,2,,,,,,,,,,,,,,,1,,,67,0
696900,set_tempo,2820,1,0,,,,,,,491803,,,,,,,,,,,,
696960,note_on,0,0,1,,,,,,,,,,,,,,,0,,,72,49
696960,note_off,480,0,1,,,,,,,,,,,,,,,0,,,71,0
696960,set_tempo,60,1,0,,,,,,,487804,,,,,,,,,,,,
696960,note_on,0,0,3,,,,,,,,,,,,,,,2,,,55,43
696960,note_off,480,0,3,,,,,,,,,,,,,,,2,,,55,0
697200,note_on,0,0,2,,,,,,,,,,,,,,,1,,,64,45
697200,note_off,480,0,2,,,,,,,,,,,,,,,1,,,65,0
697440,note_off,480,0,3,,,,,,,,,,,,,,,2,,,55,0
697440,note_on,0,0,3,,,,,,,,,,,,,,,2,,,55,42
697680,note_off,480,0,2,,,,,,,,,,,,,,,1,,,64,0
697680,note_on,0,0,2,,,,,,,,,,,,,,,1,,,62,43
697860,note_off,900,0,1,,,,,,,,,,,,,,,0,,,72,0
697920,note_on,0,0,3,,,,,,,,,,,,,,,2,,,55,39
697920,note_off,480,0,3,,,,,,,,,,,,,,,2,,,55,0
697920,note_on,60,0,1,,,,,,,,,,,,,,,0,,,66,43
698160,note_on,0,0,2,,,,,,,,,,,,,,,1,,,60,40
698160,note_off,480,0,2,,,,,,,,,,,,,,,1,,,62,0
698280,set_tempo,1320,1,0,,,,,,,491803,,,,,,,,,,,,
698370,note_off,4290,0,4,,,,,,,,,,,,,,,3,,,43,0
698400,note_on,0,0,1,,,,,,,,,,,,,,,0,,,69,49
698400,note_off,480,0,1,,,,,,,,,,,,,,,0,,,66,0
698400,set_tempo,120,1,0,,,,,,,487804,,,,,,,,,,,,
698400,note_on,240,0,2,,,,,,,,,,,,,,,1,,,59,42
698400,note_off,480,0,3,,,,,,,,,,,,,,,2,,,55,0
698400,note_on,30,0,4,,,,,,,,,,,,,,,3,,,43,40
698405,note_off,5,0,2,,,,,,,,,,,,,,,1,,,60,0
698640,note_off,235,0,2,,,,,,,,,,,,,,,1,,,59,0
698640,note_on,0,0,2,,,,,,,,,,,,,,,1,,,62,38
698880,note_on,0,0,2,,,,,,,,,,,,,,,1,,,59,37
698880,note_off,480,0,1,,,,,,,,,,,,,,,0,,,69,0
698880,note_on,0,0,1,,,,,,,,,,,,,,,0,,,67,43
698880,note_off,240,0,2,,,,,,,,,,,,,,,1,,,62,0
698880,note_on,480,0,3,,,,,,,,,,,,,,,2,,,55,37
699120,note_on,0,0,2,,,,,,,,,,,,,,,1,,,67,36
699120,note_off,240,0,1,,,,,,,,,,,,,,,0,,,67,0
699120,note_off,240,0,2,,,,,,,,,,,,,,,1,,,59,0
699360,note_off,480,0,3,,,,,,,,,,,,,,,2,,,55,0
699360,note_on,0,0,3,,,,,,,,,,,,,,,2,,,55,39
699600,note_off,480,0,2,,,,,,,,,,,,,,,1,,,67,0
699600,note_on,0,0,2,,,,,,,,,,,,,,,1,,,67,36
699840,note_on,0,0,3,,,,,,,,,,,,,,,2,,,55,41
699840,note_off,480,0,3,,,,,,,,,,,,,,,2,,,55,0
699840,note_on,720,0,1,,,,,,,,,,,,,,,0,,,71,40
700080,note_on,0,0,2,,,,,,,,,,,,,,,1,,,67,39
700080,note_off,480,0,2,,,,,,,,,,,,,,,1,,,67,0
700320,note_off,480,0,1,,,,,,,,,,,,,,,0,,,71,0
700320,note_on,0,0,3,,,,,,,,,,,,,,,2,,,55,42
700320,note_off,480,0,3,,,,,,,,,,,,,,,2,,,55,0
700320,note_on,0,0,1,,,,,,,,,,,,,,,0,,,69,44
700560,note_on,0,0,2,,,,,,,,,,,,,,,1,,,67,39
700560,note_off,480,0,2,,,,,,,,,,,,,,,1,,,67,0
700800,note_off,480,0,3,,,,,,,,,,,,,,,2,,,55,0
700800,note_on,0,0,1,,,,,,,,,,,,,,,0,,,71,47
700800,note_on,0,0,3,,,,,,,,,,,,,,,2,,,55,44
700800,note_off,480,0,1,,,,,,,,,,,,,,,0,,,69,0
701040,note_off,480,0,2,,,,,,,,,,,,,,,1,,,67,0
701040,note_on,0,0,2,,,,,,,,,,,,,,,1,,,65,44
701220,set_tempo,2820,1,0,,,,,,,491803,,,,,,,,,,,,
701270,note_off,470,0,1,,,,,,,,,,,,,,,0,,,71,0
701280,set_tempo,60,1,0,,,,,,,487804,,,,,,,,,,,,
701280,note_on,10,0,1,,,,,,,,,,,,,,,0,,,74,51
701280,note_off,480,0,3,,,,,,,,,,,,,,,2,,,55,0
701280,note_on,0,0,3,,,,,,,,,,,,,,,2,,,55,49
701520,note_off,480,0,2,,,,,,,,,,,,,,,1,,,65,0
701520,note_on,0,0,2,,,,,,,,,,,,,,,1,,,64,47
701760,note_on,0,0,1,,,,,,,,,,,,,,,0,,,72,49
701760,note_off,480,0,1,,,,,,,,,,,,,,,0,,,74,0
701760,note_on,0,0,3,,,,,,,,,,,,,,,2,,,55,47
701760,note_off,480,0,3,,,,,,,,,,,,,,,2,,,55,0
702000,note_off,480,0,2,,,,,,,,,,,,,,,1,,,64,0
702000,note_on,0,0,2,,,,,,,,,,,,,,,1,,,62,43
702240,note_on,0,0,1,,,,,,,,,,,,,,,0,,,66,47
702240,note_on,0,0,3,,,,,,,,,,,,,,,2,,,55,44
702240,note_off,480,0,3,,,,,,,,,,,,,,,2,,,55,0
702240,note_off,480,0,1,,,,,,,,,,,,,,,0,,,72,0
702480,note_off,480,0,2,,,,,,,,,,,,,,,1,,,62,0
702480,note_on,0,0,2,,,,,,,,,,,,,,,1,,,60,40
702600,set_tempo,1320,1,0,,,,,,,491803,,,,,,,,,,,,
702705,note_off,4305,0,4,,,,,,,,,,,,,,,3,,,43,0
702720,note_off,480,0,1,,,,,,,,,,,,,,,0,,,66,0
702720,note_on,0,0,1,,,,,,,,,,,,,,,0,,,67,44
702720,note_on,15,0,4,,,,,,,,,,,,,,,3,,,43,42
702720,note_off,480,0,3,,,,,,,,,,,,,,,2,,,55,0
702720,set_tempo,120,1,0,,,,,,,487804,,,,,,,,,,,,
702720,note_on,0,0,2,,,,,,,,,,,,,,,1,,,59,38
702720,note_off,240,0,2,,,,,,,,,,,,,,,1,,,60,0
702960,note_on,240,0,3,,,,,,,,,,,,,,,2,,,55,44
703200,note_off,480,0,2,,,,,,,,,,,,,,,1,,,59,0
703200,note_on,0,0,2,,,,,,,,,,,,,,,1,,,65,43
703200,note_off,480,0,1,,,,,,,,,,,,,,,0,,,67,0
703440,note_on,720,0,4,,,,,,,,,,,,,,,3,,,47,45
703440,note_on,240,0,1,,,,,,,,,,,,,,,0,,,74,47
703680,note_off,240,0,4,,,,,,,,,,,,,,,3,,,47,0
703680,note_on,0,0,4,,,,,,,,,,,,,,,3,,,48,46
703680,note_on,0,0,1,,,,,,,,,,,,,,,0,,,72,48
703680,note_off,480,0,2,,,,,,,,,,,,,,,1,,,65,0
703680,note_on,0,0,2,,,,,,,,,,,,,,,1,,,64,44
703680,note_off,240,0,1,,,,,,,,,,,,,,,0,,,74,0
703920,note_off,240,0,1,,,,,,,,,,,,,,,0,,,72,0
703920,note_on,0,0,1,,,,,,,,,,,,,,,0,,,66,50
703920,note_off,240,0,2,,,,,,,,,,,,,,,1,,,64,0
703920,note_on,0,0,2,,,,,,,,,,,,,,,1,,,60,46
703920,note_off,240,0,4,,,,,,,,,,,,,,,3,,,48,0
703920,note_on,0,0,4,,,,,,,,,,,,,,,3,,,51,47
704160,note_off,240,0,2,,,,,,,,,,,,,,,1,,,60,0
704160,note_on,0,0,2,,,,,,,,,,,,,,,1,,,59,47
704160,note_off,240,0,4,,,,,,,,,,,,,,,3,,,43,0
704160,note_on,0,0,4,,,,,,,,,,,,,,,3,,,43,48
704160,note_on,0,0,4,,,,,,,,,,,,,,,3,,,50,48
704160,note_on,0,0,1,,,,,,,,,,,,,,,0,,,67,51
704160,note_off,240,0,1,,,,,,,,,,,,,,,0,,,66,0
704160,note_off,0,0,4,,,,,,,,,,,,,,,3,,,51,0
704385,note_off,1425,0,3,,,,,,,,,,,,,,,2,,,55,0
704400,note_on,15,0,3,,,,,,,,,,,,,,,2,,,55,51
704640,note_off,480,0,4,,,,,,,,,,,,,,,3,,,50,0
704640,note_off,480,0,2,,,,,,,,,,,,,,,1,,,59,0
704640,note_on,0,0,2,,,,,,,,,,,,,,,1,,,65,52
704640,note_off,480,0,1,,,,,,,,,,,,,,,0,,,67,0
704880,note_on,240,0,1,,,,,,,,,,,,,,,0,,,74,55
704880,note_on,240,0,4,,,,,,,,,,,,,,,3,,,47,52
705120,note_on,0,0,1,,,,,,,,,,,,,,,0,,,72,57
705120,note_on,0,0,4,,,,,,,,,,,,,,,3,,,48,53
705120,note_off,240,0,1,,,,,,,,,,,,,,,0,,,74,0
705120,note_off,240,0,4,,,,,,,,,,,,,,,3,,,47,0
705120,note_on,480,0,2,,,,,,,,,,,,,,,1,,,64,53
705125,note_off,5,0,2,,,,,,,,,,,,,,,1,,,65,0
705360,note_on,0,0,4,,,,,,,,,,,,,,,3,,,45,54
705360,note_off,240,0,4,,,,,,,,,,,,,,,3,,,48,0
705360,note_off,235,0,2,,,,,,,,,,,,,,,1,,,64,0
705360,note_on,0,0,2,,,,,,,,,,,,,,,1,,,60,55
705360,note_on,0,0,1,,,,,,,,,,,,,,,0,,,66,58
705360,note_off,240,0,1,,,,,,,,,,,,,,,0,,,72,0
705600,note_off,240,0,2,,,,,,,,,,,,,,,1,,,60,0
705600,note_on,0,0,2,,,,,,,,,,,,,,,1,,,59,56
705600,note_on,0,0,1,,,,,,,,,,,,,,,0,,,67,60
705600,note_off,240,0,1,,,,,,,,,,,,,,,0,,,66,0
705600,note_on,0,0,4,,,,,,,,,,,,,,,3,,,43,55
705600,note_off,0,0,4,,,,,,,,,,,,,,,3,,,45,0
705600,note_off,240,0,4,,,,,,,,,,,,,,,3,,,43,0
705830,note_off,1430,0,3,,,,,,,,,,,,,,,2,,,55,0
705840,note_on,10,0,3,,,,,,,,,,,,,,,2,,,55,58
706080,note_on,0,0,2,,,,,,,,,,,,,,,1,,,65,60
706080,note_off,480,0,2,,,,,,,,,,,,,,,1,,,59,0
706080,note_off,480,0,1,,,,,,,,,,,,,,,0,,,67,0
706215,set_tempo,3495,1,0,,,,,,,491803,,,,,,,,,,,,
706320,note_on,720,0,4,,,,,,,,,,,,,,,3,,,47,59
706320,note_on,240,0,1,,,,,,,,,,,,,,,0,,,74,63
706380,set_tempo,165,1,0,,,,,,,504201,,,,,,,,,,,,
706560,note_on,0,0,2,,,,,,,,,,,,,,,1,,,64,62
706560,note_off,480,0,2,,,,,,,,,,,,,,,1,,,65,0
706560,note_on,0,0,1,,,,,,,,,,,,,,,0,,,72,65
706560,note_off,240,0,1,,,,,,,,,,,,,,,0,,,74,0
706560,set_tempo,180,1,0,,,,,,,571428,,,,,,,,,,,,
706560,note_on,0,0,4,,,,,,,,,,,,,,,3,,,48,60
706560,note_off,240,0,4,,,,,,,,,,,,,,,3,,,47,0
706800,note_off,240,0,1,,,,,,,,,,,,,,,0,,,72,0
706800,set_tempo,240,1,0,,,,,,,652173,,,,,,,,,,,,
706800,note_off,240,0,2,,,,,,,,,,,,,,,1,,,64,0
706800,note_on,0,0,4,,,,,,,,,,,,,,,3,,,51,61
706800,note_off,240,0,4,,,,,,,,,,,,,,,3,,,48,0
706800,note_on,0,0,2,,,,,,,,,,,,,,,1,,,60,63
706800,note_on,0,0,1,,,,,,,,,,,,,,,0,,,66,68
707030,note_off,1190,0,3,,,,,,,,,,,,,,,2,,,55,0
707040,note_on,0,0,3,,,,,,,,,,,,,,,2,,,55,62
707040,note_on,0,0,1,,,,,,,,,,,,,,,0,,,67,67
707040,control_change,10,0,3,,,,,,,,,,,,,64,127,2,,,,
707040,note_on,0,0,2,,,,,,,,,,,,,,,1,,,59,67
707040,note_off,0,0,2,,,,,,,,,,,,,,,1,,,60,0
707040,control_change,240,0,2,,,,,,,,,,,,,64,127,1,,,,
707040,note_on,0,0,4,,,,,,,,,,,,,,,3,,,43,62
707040,note_off,0,0,4,,,,,,,,,,,,,,,3,,,51,0
707040,note_off,0,0,4,,,,,,,,,,,,,,,3,,,43,0
707040,control_change,240,0,4,,,,,,,,,,,,,64,127,3,,,,
707040,note_off,240,0,1,,,,,,,,,,,,,,,0,,,66,0
707040,note_on,0,0,4,,,,,,,,,,,,,,,3,,,50,62
707120,set_tempo,320,1,0,,,,,,,487804,,,,,,,,,,,,
707120,note_on,0,0,1,,,,,,,,,,,,,,,0,,,69,60
707120,note_off,80,0,1,,,,,,,,,,,,,,,0,,,67,0
707200,note_off,80,0,1,,,,,,,,,,,,,,,0,,,69,0
707200,note_on,0,0,1,,,,,,,,,,,,,,,0,,,67,57
707280,note_off,80,0,1,,,,,,,,,,,,,,,0,,,67,0
707280,note_on,0,0,1,,,,,,,,,,,,,,,0,,,69,54
707360,note_off,80,0,1,,,,,,,,,,,,,,,0,,,69,0
707360,note_on,0,0,1,,,,,,,,,,,,,,,0,,,67,53
707440,note_off,80,0,1,,,,,,,,,,,,,,,0,,,67,0
707440,note_on,0,0,1,,,,,,,,,,,,,,,0,,,69,51
707520,note_off,80,0,1,,,,,,,,,,,,,,,0,,,69,0
707520,note_on,0,0,1,,,,,,,,,,,,,,,0,,,67,50
707600,note_off,80,0,1,,,,,,,,,,,,,,,0,,,67,0
707600,note_on,0,0,1,,,,,,,,,,,,,,,0,,,69,51
707680,note_on,0,0,1,,,,,,,,,,,,,,,0,,,67,51
707680,note_off,80,0,1,,,,,,,,,,,,,,,0,,,69,0
707760,note_off,80,0,1,,,,,,,,,,,,,,,0,,,67,0
707760,note_on,0,0,1,,,,,,,,,,,,,,,0,,,69,50
707840,note_off,80,0,1,,,,,,,,,,,,,,,0,,,69,0
707840,note_on,0,0,1,,,,,,,,,,,,,,,0,,,67,50
707920,note_off,80,0,1,,,,,,,,,,,,,,,0,,,67,0
707920,note_on,0,0,1,,,,,,,,,,,,,,,0,,,69,49
708000,note_off,80,0,1,,,,,,,,,,,,,,,0,,,69,0
708000,note_on,0,0,1,,,,,,,,,,,,,,,0,,,67,49
708080,note_off,80,0,1,,,,,,,,,,,,,,,0,,,67,0
708080,note_on,0,0,1,,,,,,,,,,,,,,,0,,,69,48
708160,note_off,80,0,1,,,,,,,,,,,,,,,0,,,69,0
708160,note_on,0,0,1,,,,,,,,,,,,,,,0,,,67,48
708224,note_off,1184,0,2,,,,,,,,,,,,,,,1,,,76,0
708240,note_off,80,0,1,,,,,,,,,,,,,,,0,,,67,0
708240,note_on,0,0,1,,,,,,,,,,,,,,,0,,,69,47
708320,note_on,0,0,1,,,,,,,,,,,,,,,0,,,67,47
708320,note_off,80,0,1,,,,,,,,,,,,,,,0,,,69,0
708400,note_on,0,0,1,,,,,,,,,,,,,,,0,,,69,47
708400,note_off,80,0,1,,,,,,,,,,,,,,,0,,,67,0
708480,note_off,80,0,1,,,,,,,,,,,,,,,0,,,69,0
708480,note_on,0,0,1,,,,,,,,,,,,,,,0,,,67,46
708560,note_off,80,0,1,,,,,,,,,,,,,,,0,,,67,0
708560,note_on,0,0,1,,,,,,,,,,,,,,,0,,,69,46
708640,note_off,80,0,1,,,,,,,,,,,,,,,0,,,69,0
708640,note_on,0,0,1,,,,,,,,,,,,,,,0,,,67,45
708720,note_on,0,0,1,,,,,,,,,,,,,,,0,,,69,45
708720,note_off,80,0,1,,,,,,,,,,,,,,,0,,,67,0
708800,note_off,80,0,1,,,,,,,,,,,,,,,0,,,69,0
708800,note_on,0,0,1,,,,,,,,,,,,,,,0,,,67,44
708880,note_off,80,0,1,,,,,,,,,,,,,,,0,,,67,0
708880,note_on,0,0,1,,,,,,,,,,,,,,,0,,,69,44
708960,note_off,1920,0,4,,,,,,,,,,,,,,,3,,,43,0
708960,note_off,1920,0,3,,,,,,,,,,,,,,,2,,,55,0
708960,note_off,0,0,4,,,,,,,,,,,,,,,3,,,50,0
708960,note_on,0,0,1,,,,,,,,,,,,,,,0,,,67,44
708960,note_off,80,0,1,,,,,,,,,,,,,,,0,,,69,0
709040,note_on,0,0,1,,,,,,,,,,,,,,,0,,,69,43
709040,note_off,80,0,1,,,,,,,,,,,,,,,0,,,67,0
709120,note_on,0,0,1,,,,,,,,,,,,,,,0,,,67,43
709120,note_off,80,0,1,,,,,,,,,,,,,,,0,,,69,0
709120,set_tempo,2000,1,0,,,,,,,491803,,,,,,,,,,,,
709200,set_tempo,80,1,0,,,,,,,500000,,,,,,,,,,,,
709200,note_on,0,0,1,,,,,,,,,,,,,,,0,,,69,42
709200,note_off,80,0,1,,,,,,,,,,,,,,,0,,,67,0
709260,note_on,60,0,1,,,,,,,,,,,,,,,0,,,67,42
709280,note_off,20,0,1,,,,,,,,,,,,,,,0,,,69,0
709296,set_tempo,96,1,0,,,,,,,600000,,,,,,,,,,,,
709320,note_on,40,0,1,,,,,,,,,,,,,,,0,,,69,42
709350,note_off,30,0,1,,,,,,,,,,,,,,,0,,,67,0
709370,set_tempo,74,1,0,,,,,,,454545,,,,,,,,,,,,
709380,note_on,30,0,1,,,,,,,,,,,,,,,0,,,67,41
709405,note_off,25,0,1,,,,,,,,,,,,,,,0,,,69,0
709630,note_off,1406,0,2,,,,,,,,,,,,,,,1,,,59,0
709674,set_tempo,304,1,0,,,,,,,370370,,,,,,,,,,,,
709676,note_off,271,0,1,,,,,,,,,,,,,,,0,,,67,0
709680,note_on,4,0,1,,,,,,,,,,,,,,,0,,,67,38
709800,note_on,120,0,1,,,,,,,,,,,,,,,0,,,66,38
709800,set_tempo,126,1,0,,,,,,,355029,,,,,,,,,,,,
709805,note_off,5,0,1,,,,,,,,,,,,,,,0,,,67,0
709920,note_off,115,0,1,,,,,,,,,,,,,,,0,,,66,0
709920,note_on,0,0,1,,,,,,,,,,,,,,,0,,,67,39
710040,note_on,0,0,1,,,,,,,,,,,,,,,0,,,62,39
710040,note_off,120,0,1,,,,,,,,,,,,,,,0,,,67,0
710160,note_on,0,0,1,,,,,,,,,,,,,,,0,,,64,39
710160,note_off,120,0,1,,,,,,,,,,,,,,,0,,,62,0
710160,set_tempo,360,1,0,,,,,,,705882,,,,,,,,,,,,
710220,note_on,60,0,1,,,,,,,,,,,,,,,0,,,66,39
710235,note_off,15,0,1,,,,,,,,,,,,,,,0,,,64,0
710280,note_on,45,0,1,,,,,,,,,,,,,,,0,,,67,40
710291,note_off,11,0,1,,,,,,,,,,,,,,,0,,,66,0
710340,note_on,49,0,1,,,,,,,,,,,,,,,0,,,69,40
710347,note_off,7,0,1,,,,,,,,,,,,,,,0,,,67,0
710400,note_on,53,0,1,,,,,,,,,,,,,,,0,,,67,40
710400,set_tempo,240,1,0,,,,,,,355029,,,,,,,,,,,,
710407,note_off,7,0,1,,,,,,,,,,,,,,,0,,,69,0
710520,note_on,0,0,1,,,,,,,,,,,,,,,0,,,66,40
710520,note_off,113,0,1,,,,,,,,,,,,,,,0,,,67,0
710640,note_on,0,0,1,,,,,,,,,,,,,,,0,,,67,41
710640,note_off,120,0,1,,,,,,,,,,,,,,,0,,,66,0
710760,note_on,0,0,1,,,,,,,,,,,,,,,0,,,69,41
710760,note_off,120,0,1,,,,,,,,,,,,,,,0,,,67,0
710880,note_on,0,0,1,,,,,,,,,,,,,,,0,,,71,41
710880,note_off,120,0,1,,,,,,,,,,,,,,,0,,,69,0
711000,note_off,120,0,1,,,,,,,,,,,,,,,0,,,71,0
711000,note_on,0,0,1,,,,,,,,,,,,,,,0,,,72,42
711120,note_on,0,0,1,,,,,,,,,,,,,,,0,,,71,42
711120,note_off,120,0,1,,,,,,,,,,,,,,,0,,,72,0
711240,note_off,120,0,1,,,,,,,,,,,,,,,0,,,71,0
711240,note_on,0,0,1,,,,,,,,,,,,,,,0,,,69,42
711360,note_off,120,0,1,,,,,,,,,,,,,,,0,,,69,0
711360,note_on,0,0,1,,,,,,,,,,,,,,,0,,,71,43
711480,note_off,120,0,1,,,,,,,,,,,,,,,0,,,71,0
711480,note_on,0,0,1,,,,,,,,,,,,,,,0,,,72,43
711600,note_off,120,0,1,,,,,,,,,,,,,,,0,,,72,0
711600,note_on,0,0,1,,,,,,,,,,,,,,,0,,,74,44
711720,note_off,120,0,1,,,,,,,,,,,,,,,0,,,74,0
711720,note_on,0,0,1,,,,,,,,,,,,,,,0,,,76,44
711840,note_off,120,0,1,,,,,,,,,,,,,,,0,,,76,0
711840,note_on,0,0,1,,,,,,,,,,,,,,,0,,,74,44
711960,note_off,120,0,1,,,,,,,,,,,,,,,0,,,74,0
711960,note_on,0,0,1,,,,,,,,,,,,,,,0,,,73,45
712080,note_off,120,0,1,,,,,,,,,,,,,,,0,,,73,0
712080,note_on,0,0,1,,,,,,,,,,,,,,,0,,,74,45
712200,note_off,120,0,1,,,,,,,,,,,,,,,0,,,74,0
712200,note_on,0,0,1,,,,,,,,,,,,,,,0,,,76,45
712320,note_on,0,0,1,,,,,,,,,,,,,,,0,,,78,46
712320,note_off,120,0,1,,,,,,,,,,,,,,,0,,,76,0
712440,note_on,0,0,1,,,,,,,,,,,,,,,0,,,79,46
712440,note_off,120,0,1,,,,,,,,,,,,,,,0,,,78,0
712560,note_off,120,0,1,,,,,,,,,,,,,,,0,,,79,0
712560,note_on,0,0,1,,,,,,,,,,,,,,,0,,,81,46
712680,note_off,120,0,1,,,,,,,,,,,,,,,0,,,81,0
712680,note_on,0,0,1,,,,,,,,,,,,,,,0,,,79,47
712800,note_off,120,0,1,,,,,,,,,,,,,,,0,,,79,0
712800,note_on,0,0,1,,,,,,,,,,,,,,,0,,,78,47
712920,note_on,0,0,1,,,,,,,,,,,,,,,0,,,79,47
712920,note_off,120,0,1,,,,,,,,,,,,,,,0,,,78,0
713040,note_off,120,0,1,,,,,,,,,,,,,,,0,,,79,0
713040,note_on,0,0,1,,,,,,,,,,,,,,,0,,,81,48
713160,note_on,0,0,1,,,,,,,,,,,,,,,0,,,83,48
713160,note_off,120,0,1,,,,,,,,,,,,,,,0,,,81,0
713280,note_off,120,0,1,,,,,,,,,,,,,,,0,,,83,0
713280,note_on,0,0,1,,,,,,,,,,,,,,,0,,,84,49
713400,note_off,120,0,1,,,,,,,,,,,,,,,0,,,84,0
713400,note_on,0,0,1,,,,,,,,,,,,,,,0,,,83,49
713520,note_off,120,0,1,,,,,,,,,,,,,,,0,,,83,0
713520,note_on,0,0,1,,,,,,,,,,,,,,,0,,,81,49
713640,note_off,120,0,1,,,,,,,,,,,,,,,0,,,81,0
713640,note_on,0,0,1,,,,,,,,,,,,,,,0,,,83,50
713760,note_off,120,0,1,,,,,,,,,,,,,,,0,,,83,0
713760,note_on,0,0,1,,,,,,,,,,,,,,,0,,,84,50
713880,note_off,120,0,1,,,,,,,,,,,,,,,0,,,84,0
713880,note_on,0,0,1,,,,,,,,,,,,,,,0,,,86,50
714000,note_off,120,0,1,,,,,,,,,,,,,,,0,,,86,0
714000,note_on,0,0,1,,,,,,,,,,,,,,,0,,,84,51
714120,note_off,120,0,1,,,,,,,,,,,,,,,0,,,84,0
714120,note_on,0,0,1,,,,,,,,,,,,,,,0,,,83,51
714240,note_off,120,0,1,,,,,,,,,,,,,,,0,,,83,0
714240,note_on,0,0,1,,,,,,,,,,,,,,,0,,,81,51
714360,note_off,120,0,1,,,,,,,,,,,,,,,0,,,81,0
714360,note_on,0,0,1,,,,,,,,,,,,,,,0,,,79,52
714480,note_off,120,0,1,,,,,,,,,,,,,,,0,,,79,0
714480,note_on,0,0,1,,,,,,,,,,,,,,,0,,,81,52
714600,note_off,120,0,1,,,,,,,,,,,,,,,0,,,81,0
714600,note_on,0,0,1,,,,,,,,,,,,,,,0,,,79,52
714720,note_off,120,0,1,,,,,,,,,,,,,,,0,,,79,0
714720,note_on,0,0,1,,,,,,,,,,,,,,,0,,,78,53
714840,note_off,120,0,1,,,,,,,,,,,,,,,0,,,78,0
714840,note_on,0,0,1,,,,,,,,,,,,,,,0,,,79,53
714960,note_off,120,0,1,,,,,,,,,,,,,,,0,,,79,0
714960,note_on,0,0,1,,,,,,,,,,,,,,,0,,,81,54
715080,note_off,120,0,1,,,,,,,,,,,,,,,0,,,81,0
715080,note_on,0,0,1,,,,,,,,,,,,,,,0,,,83,54
715200,note_on,0,0,1,,,,,,,,,,,,,,,0,,,84,54
715200,note_off,120,0,1,,,,,,,,,,,,,,,0,,,83,0
715320,note_on,0,0,1,,,,,,,,,,,,,,,0,,,83,55
715320,note_off,120,0,1,,,,,,,,,,,,,,,0,,,84,0
715440,note_off,120,0,1,,,,,,,,,,,,,,,0,,,83,0
715440,note_on,0,0,1,,,,,,,,,,,,,,,0,,,81,55
715560,note_off,120,0,1,,,,,,,,,,,,,,,0,,,81,0
715560,note_on,0,0,1,,,,,,,,,,,,,,,0,,,83,55
715680,note_off,120,0,1,,,,,,,,,,,,,,,0,,,83,0
715680,note_on,0,0,1,,,,,,,,,,,,,,,0,,,84,56
715800,note_on,0,0,1,,,,,,,,,,,,,,,0,,,86,56
715800,note_off,120,0,1,,,,,,,,,,,,,,,0,,,84,0
715920,note_on,0,0,1,,,,,,,,,,,,,,,0,,,84,56
715920,note_off,120,0,1,,,,,,,,,,,,,,,0,,,86,0
716040,note_off,120,0,1,,,,,,,,,,,,,,,0,,,84,0
716040,note_on,0,0,1,,,,,,,,,,,,,,,0,,,83,57
716160,note_off,120,0,1,,,,,,,,,,,,,,,0,,,83,0
716160,note_on,0,0,1,,,,,,,,,,,,,,,0,,,81,57
716280,note_off,120,0,1,,,,,,,,,,,,,,,0,,,81,0
716280,note_on,0,0,1,,,,,,,,,,,,,,,0,,,79,57
716400,note_off,120,0,1,,,,,,,,,,,,,,,0,,,79,0
716400,note_on,0,0,1,,,,,,,,,,,,,,,0,,,81,58
716520,note_off,120,0,1,,,,,,,,,,,,,,,0,,,81,0
716520,note_on,0,0,1,,,,,,,,,,,,,,,0,,,79,58
716640,note_on,0,0,1,,,,,,,,,,,,,,,0,,,78,59
716640,note_off,120,0,1,,,,,,,,,,,,,,,0,,,79,0
716760,note_off,120,0,1,,,,,,,,,,,,,,,0,,,78,0
716760,note_on,0,0,1,,,,,,,,,,,,,,,0,,,79,59
716880,note_off,120,0,1,,,,,,,,,,,,,,,0,,,79,0
716880,note_on,0,0,1,,,,,,,,,,,,,,,0,,,81,59
717000,note_off,120,0,1,,,,,,,,,,,,,,,0,,,81,0
717000,note_on,0,0,1,,,,,,,,,,,,,,,0,,,83,60
717120,note_off,120,0,1,,,,,,,,,,,,,,,0,,,83,0
717120,note_on,0,0,1,,,,,,,,,,,,,,,0,,,84,60
717240,note_off,120,0,1,,,,,,,,,,,,,,,0,,,84,0
717240,note_on,0,0,1,,,,,,,,,,,,,,,0,,,83,60
717360,note_off,120,0,1,,,,,,,,,,,,,,,0,,,83,0
717360,note_on,0,0,1,,,,,,,,,,,,,,,0,,,81,61
717480,note_off,120,0,1,,,,,,,,,,,,,,,0,,,81,0
717480,note_on,0,0,1,,,,,,,,,,,,,,,0,,,83,61
717600,note_off,120,0,1,,,,,,,,,,,,,,,0,,,83,0
717600,note_on,0,0,1,,,,,,,,,,,,,,,0,,,84,61
717720,note_off,120,0,1,,,,,,,,,,,,,,,0,,,84,0
717720,note_on,0,0,1,,,,,,,,,,,,,,,0,,,86,62
717840,note_off,120,0,1,,,,,,,,,,,,,,,0,,,86,0
717840,note_on,0,0,1,,,,,,,,,,,,,,,0,,,88,62
717960,note_off,120,0,1,,,,,,,,,,,,,,,0,,,88,0
717960,note_on,0,0,1,,,,,,,,,,,,,,,0,,,86,62
718080,note_on,0,0,1,,,,,,,,,,,,,,,0,,,85,63
718080,note_off,120,0,1,,,,,,,,,,,,,,,0,,,86,0
718200,note_off,120,0,1,,,,,,,,,,,,,,,0,,,85,0
718200,note_on,0,0,1,,,,,,,,,,,,,,,0,,,86,63
718320,note_off,120,0,1,,,,,,,,,,,,,,,0,,,86,0
718320,note_on,0,0,1,,,,,,,,,,,,,,,0,,,88,64
718440,note_off,120,0,1,,,,,,,,,,,,,,,0,,,88,0
718440,note_on,0,0,1,,,,,,,,,,,,,,,0,,,89,64
718560,note_off,120,0,1,,,,,,,,,,,,,,,0,,,89,0
718560,note_on,0,0,1,,,,,,,,,,,,,,,0,,,88,64
718680,note_off,120,0,1,,,,,,,,,,,,,,,0,,,88,0
718680,note_on,0,0,1,,,,,,,,,,,,,,,0,,,86,65
718800,note_on,0,0,1,,,,,,,,,,,,,,,0,,,84,65
718800,note_off,120,0,1,,,,,,,,,,,,,,,0,,,86,0
718920,note_on,0,0,1,,,,,,,,,,,,,,,0,,,83,65
718920,note_off,120,0,1,,,,,,,,,,,,,,,0,,,84,0
719040,note_off,120,0,1,,,,,,,,,,,,,,,0,,,83,0
719040,note_on,0,0,1,,,,,,,,,,,,,,,0,,,84,66
719160,note_off,120,0,1,,,,,,,,,,,,,,,0,,,84,0
719160,note_on,0,0,1,,,,,,,,,,,,,,,0,,,83,66
719280,note_on,0,0,1,,,,,,,,,,,,,,,0,,,81,66
719280,note_off,120,0,1,,,,,,,,,,,,,,,0,,,83,0
719400,note_on,0,0,1,,,,,,,,,,,,,,,0,,,83,67
719400,note_off,120,0,1,,,,,,,,,,,,,,,0,,,81,0
719520,note_off,120,0,1,,,,,,,,,,,,,,,0,,,83,0
719520,note_on,0,0,1,,,,,,,,,,,,,,,0,,,84,67
719640,note_on,0,0,1,,,,,,,,,,,,,,,0,,,86,69
719640,note_off,120,0,1,,,,,,,,,,,,,,,0,,,84,0
719760,note_off,120,0,1,,,,,,,,,,,,,,,0,,,86,0
719760,note_on,0,0,1,,,,,,,,,,,,,,,0,,,88,69
719880,note_off,120,0,1,,,,,,,,,,,,,,,0,,,88,0
719880,note_on,0,0,1,,,,,,,,,,,,,,,0,,,86,70
720000,note_on,0,0,1,,,,,,,,,,,,,,,0,,,85,70
720000,note_off,120,0,1,,,,,,,,,,,,,,,0,,,86,0
720120,note_off,120,0,1,,,,,,,,,,,,,,,0,,,85,0
720120,note_on,0,0,1,,,,,,,,,,,,,,,0,,,86,71
720240,note_off,120,0,1,,,,,,,,,,,,,,,0,,,86,0
720240,note_on,0,0,1,,,,,,,,,,,,,,,0,,,88,72
720360,note_off,120,0,1,,,,,,,,,,,,,,,0,,,88,0
720360,note_on,0,0,1,,,,,,,,,,,,,,,0,,,89,72
720480,note_off,120,0,1,,,,,,,,,,,,,,,0,,,89,0
720480,note_on,0,0,1,,,,,,,,,,,,,,,0,,,88,73
720600,note_on,0,0,1,,,,,,,,,,,,,,,0,,,86,74
720600,note_off,120,0,1,,,,,,,,,,,,,,,0,,,88,0
720720,note_off,120,0,1,,,,,,,,,,,,,,,0,,,86,0
720720,note_on,0,0,1,,,,,,,,,,,,,,,0,,,84,75
720840,note_off,120,0,1,,,,,,,,,,,,,,,0,,,84,0
720840,note_on,0,0,1,,,,,,,,,,,,,,,0,,,83,73
720960,note_on,120,0,1,,,,,,,,,,,,,,,0,,,84,72
721080,note_off,120,0,1,,,,,,,,,,,,,,,0,,,84,0
721080,note_on,0,0,1,,,,,,,,,,,,,,,0,,,85,70
721200,note_on,0,0,1,,,,,,,,,,,,,,,0,,,86,68
721200,note_off,120,0,1,,,,,,,,,,,,,,,0,,,85,0
721270,note_off,70,0,1,,,,,,,,,,,,,,,0,,,83,0
721320,note_off,50,0,1,,,,,,,,,,,,,,,0,,,86,0
721320,note_on,0,0,1,,,,,,,,,,,,,,,0,,,77,67
721440,note_on,120,0,1,,,,,,,,,,,,,,,0,,,79,65
721560,note_off,120,0,1,,,,,,,,,,,,,,,0,,,79,0
721560,note_on,0,0,1,,,,,,,,,,,,,,,0,,,80,63
721680,note_on,0,0,1,,,,,,,,,,,,,,,0,,,81,61
721680,note_off,120,0,1,,,,,,,,,,,,,,,0,,,80,0
721750,note_off,70,0,1,,,,,,,,,,,,,,,0,,,77,0
721800,note_off,50,0,1,,,,,,,,,,,,,,,0,,,81,0
721800,note_on,0,0,1,,,,,,,,,,,,,,,0,,,74,60
721920,note_on,120,0,1,,,,,,,,,,,,,,,0,,,75,58
722040,note_on,0,0,1,,,,,,,,,,,,,,,0,,,76,56
722040,note_off,120,0,1,,,,,,,,,,,,,,,0,,,75,0
722160,note_on,0,0,1,,,,,,,,,,,,,,,0,,,77,55
722160,note_off,120,0,1,,,,,,,,,,,,,,,0,,,76,0
722230,note_off,70,0,1,,,,,,,,,,,,,,,0,,,74,0
722280,note_on,0,0,1,,,,,,,,,,,,,,,0,,,71,53
722280,note_off,50,0,1,,,,,,,,,,,,,,,0,,,77,0
722400,note_on,120,0,1,,,,,,,,,,,,,,,0,,,72,51
722520,note_on,0,0,1,,,,,,,,,,,,,,,0,,,73,49
722520,note_off,120,0,1,,,,,,,,,,,,,,,0,,,72,0
722640,note_off,120,0,1,,,,,,,,,,,,,,,0,,,73,0
722640,note_on,0,0,1,,,,,,,,,,,,,,,0,,,74,48
722700,set_tempo,12300,1,0,,,,,,,375000,,,,,,,,,,,,
722760,note_on,0,0,1,,,,,,,,,,,,,,,0,,,67,44
722760,note_off,120,0,1,,,,,,,,,,,,,,,0,,,71,0
722760,note_off,0,0,1,,,,,,,,,,,,,,,0,,,74,0
722880,note_on,120,0,1,,,,,,,,,,,,,,,0,,,68,45
722880,set_tempo,180,1,0,,,,,,,357142,,,,,,,,,,,,
723000,note_off,120,0,1,,,,,,,,,,,,,,,0,,,68,0
723000,set_tempo,120,1,0,,,,,,,355029,,,,,,,,,,,,
723000,note_on,0,0,1,,,,,,,,,,,,,,,0,,,69,47
723120,note_on,0,0,1,,,,,,,,,,,,,,,0,,,70,49
723120,note_off,120,0,1,,,,,,,,,,,,,,,0,,,69,0
723200,note_off,80,0,1,,,,,,,,,,,,,,,0,,,67,0
723240,note_off,40,0,1,,,,,,,,,,,,,,,0,,,70,0
723240,note_on,0,0,1,,,,,,,,,,,,,,,0,,,71,51
723360,note_off,120,0,1,,,,,,,,,,,,,,,0,,,71,0
723360,note_on,0,0,1,,,,,,,,,,,,,,,0,,,72,53
723480,note_off,120,0,1,,,,,,,,,,,,,,,0,,,72,0
723480,note_on,0,0,1,,,,,,,,,,,,,,,0,,,73,55
723600,note_off,120,0,1,,,,,,,,,,,,,,,0,,,73,0
723600,note_on,0,0,1,,,,,,,,,,,,,,,0,,,74,57
723720,note_off,120,0,1,,,,,,,,,,,,,,,0,,,74,0
723720,note_on,0,0,1,,,,,,,,,,,,,,,0,,,75,59
723840,note_off,120,0,1,,,,,,,,,,,,,,,0,,,75,0
723840,note_on,0,0,1,,,,,,,,,,,,,,,0,,,76,61
723960,note_off,120,0,1,,,,,,,,,,,,,,,0,,,76,0
723960,note_on,0,0,1,,,,,,,,,,,,,,,0,,,77,63
724080,note_off,120,0,1,,,,,,,,,,,,,,,0,,,77,0
724080,note_on,0,0,1,,,,,,,,,,,,,,,0,,,78,65
724080,set_tempo,1080,1,0,,,,,,,357142,,,,,,,,,,,,
724200,note_off,120,0,1,,,,,,,,,,,,,,,0,,,78,0
724200,note_on,0,0,1,,,,,,,,,,,,,,,0,,,79,67
724200,set_tempo,120,1,0,,,,,,,365853,,,,,,,,,,,,
724320,note_off,120,0,1,,,,,,,,,,,,,,,0,,,79,0
724320,note_on,0,0,1,,,,,,,,,,,,,,,0,,,83,71
724320,set_tempo,120,1,0,,,,,,,346820,,,,,,,,,,,,
724560,note_off,240,0,1,,,,,,,,,,,,,,,0,,,83,0
724560,note_on,0,0,1,,,,,,,,,,,,,,,0,,,81,66
724800,note_on,0,0,1,,,,,,,,,,,,,,,0,,,79,61
724800,note_off,240,0,1,,,,,,,,,,,,,,,0,,,81,0
724920,set_tempo,600,1,0,,,,,,,357142,,,,,,,,,,,,
725040,note_on,0,0,1,,,,,,,,,,,,,,,0,,,77,55
725040,note_off,240,0,1,,,,,,,,,,,,,,,0,,,79,0
725060,set_tempo,140,1,0,,,,,,,372670,,,,,,,,,,,,
725280,set_tempo,220,1,0,,,,,,,508474,,,,,,,,,,,,
725280,note_on,0,0,1,,,,,,,,,,,,,,,0,,,76,50
725280,note_off,240,0,1,,,,,,,,,,,,,,,0,,,77,0
725520,note_on,0,0,1,,,,,,,,,,,,,,,0,,,74,45
725520,note_off,240,0,1,,,,,,,,,,,,,,,0,,,76,0
725520,set_tempo,240,1,0,,,,,,,340909,,,,,,,,,,,,
726465,note_off,945,0,1,,,,,,,,,,,,,,,0,,,74,0
726480,set_tempo,960,1,0,,,,,,,500000,,,,,,,,,,,,
726480,control_change,16850,0,2,,,,,,,,,,,,,64,0,1,,,,
726480,control_change,17520,0,4,,,,,,,,,,,,,64,0,3,,,,
726480,note_on,0,0,4,,,,,,,,,,,,,,,3,,,48,38
726480,control_change,17520,0,3,,,,,,,,,,,,,64,0,2,,,,
726480,note_on,15,0,1,,,,,,,,,,,,,,,0,,,72,36
726480,note_on,0,0,3,,,,,,,,,,,,,,,2,,,52,32
726560,note_on,80,0,1,,,,,,,,,,,,,,,0,,,74,36
726600,set_tempo,120,1,0,,,,,,,472440,,,,,,,,,,,,
726600,note_off,120,0,3,,,,,,,,,,,,,,,2,,,52,0
726630,note_off,70,0,1,,,,,,,,,,,,,,,0,,,72,0
726640,note_on,10,0,1,,,,,,,,,,,,,,,0,,,72,37
726660,note_off,180,0,4,,,,,,,,,,,,,,,3,,,48,0
726710,note_off,70,0,1,,,,,,,,,,,,,,,0,,,74,0
726720,note_on,10,0,1,,,,,,,,,,,,,,,0,,,74,37
726720,note_on,0,0,3,,,,,,,,,,,,,,,2,,,55,32
726720,note_on,120,0,3,,,,,,,,,,,,,,,2,,,52,32
726790,note_off,70,0,1,,,,,,,,,,,,,,,0,,,72,0
726800,note_on,10,0,1,,,,,,,,,,,,,,,0,,,72,38
726840,note_off,120,0,3,,,,,,,,,,,,,,,2,,,52,0
726840,note_off,0,0,3,,,,,,,,,,,,,,,2,,,55,0
726870,note_off,70,0,1,,,,,,,,,,,,,,,0,,,74,0
726880,note_on,10,0,1,,,,,,,,,,,,,,,0,,,74,38
726950,note_off,70,0,1,,,,,,,,,,,,,,,0,,,72,0
726960,note_on,0,0,3,,,,,,,,,,,,,,,2,,,55,33
726960,note_on,10,0,1,,,,,,,,,,,,,,,0,,,72,38
726960,note_on,120,0,3,,,,,,,,,,,,,,,2,,,60,33
727030,note_off,70,0,1,,,,,,,,,,,,,,,0,,,74,0
727040,note_on,10,0,1,,,,,,,,,,,,,,,0,,,74,39
727080,note_off,0,0,3,,,,,,,,,,,,,,,2,,,55,0
727080,note_off,120,0,3,,,,,,,,,,,,,,,2,,,60,0
727110,note_off,70,0,1,,,,,,,,,,,,,,,0,,,72,0
727120,note_on,10,0,1,,,,,,,,,,,,,,,0,,,72,39
727190,note_off,70,0,1,,,,,,,,,,,,,,,0,,,74,0
727200,note_on,120,0,3,,,,,,,,,,,,,,,2,,,55,33
727200,note_on,0,0,3,,,,,,,,,,,,,,,2,,,52,33
727200,note_on,10,0,1,,,,,,,,,,,,,,,0,,,74,40
727270,note_off,70,0,1,,,,,,,,,,,,,,,0,,,72,0
727280,note_on,10,0,1,,,,,,,,,,,,,,,0,,,72,40
727320,note_off,0,0,3,,,,,,,,,,,,,,,2,,,52,0
727320,note_off,120,0,3,,,,,,,,,,,,,,,2,,,55,0
727350,note_off,70,0,1,,,,,,,,,,,,,,,0,,,74,0
727360,note_on,10,0,1,,,,,,,,,,,,,,,0,,,74,40
727430,note_off,70,0,1,,,,,,,,,,,,,,,0,,,72,0
727440,note_on,10,0,1,,,,,,,,,,,,,,,0,,,72,41
727440,note_on,780,0,4,,,,,,,,,,,,,,,3,,,48,41
727440,note_on,120,0,3,,,,,,,,,,,,,,,2,,,52,34
727510,note_off,70,0,1,,,,,,,,,,,,,,,0,,,74,0
727520,note_on,10,0,1,,,,,,,,,,,,,,,0,,,74,41
727560,note_off,120,0,3,,,,,,,,,,,,,,,2,,,52,0
727590,note_off,70,0,1,,,,,,,,,,,,,,,0,,,72,0
727600,note_on,10,0,1,,,,,,,,,,,,,,,0,,,72,42
727620,note_off,180,0,4,,,,,,,,,,,,,,,3,,,48,0
727670,note_off,70,0,1,,,,,,,,,,,,,,,0,,,74,0
727680,note_on,10,0,1,,,,,,,,,,,,,,,0,,,74,42
727680,note_on,120,0,3,,,,,,,,,,,,,,,2,,,55,34
727680,note_on,0,0,3,,,,,,,,,,,,,,,2,,,52,34
727750,note_off,70,0,1,,,,,,,,,,,,,,,0,,,72,0
727760,note_on,10,0,1,,,,,,,,,,,,,,,0,,,72,42
727800,note_off,120,0,3,,,,,,,,,,,,,,,2,,,55,0
727800,note_off,0,0,3,,,,,,,,,,,,,,,2,,,52,0
727830,note_off,70,0,1,,,,,,,,,,,,,,,0,,,74,0
727840,note_on,10,0,1,,,,,,,,,,,,,,,0,,,74,43
727910,note_off,70,0,1,,,,,,,,,,,,,,,0,,,72,0
727920,note_on,300,0,4,,,,,,,,,,,,,,,3,,,48,43
727920,note_on,10,0,1,,,,,,,,,,,,,,,0,,,72,43
727920,note_on,120,0,3,,,,,,,,,,,,,,,2,,,52,35
727990,note_off,70,0,1,,,,,,,,,,,,,,,0,,,74,0
728000,note_on,10,0,1,,,,,,,,,,,,,,,0,,,74,44
728040,note_off,120,0,3,,,,,,,,,,,,,,,2,,,52,0
728070,note_off,70,0,1,,,,,,,,,,,,,,,0,,,72,0
728080,note_on,10,0,1,,,,,,,,,,,,,,,0,,,72,44
728100,note_off,180,0,4,,,,,,,,,,,,,,,3,,,48,0
728150,note_off,70,0,1,,,,,,,,,,,,,,,0,,,74,0
728160,note_on,10,0,1,,,,,,,,,,,,,,,0,,,74,44
728160,note_on,0,0,3,,,,,,,,,,,,,,,2,,,52,35
728160,note_on,120,0,3,,,,,,,,,,,,,,,2,,,55,35
728230,note_off,70,0,1,,,,,,,,,,,,,,,0,,,72,0
728240,note_on,10,0,1,,,,,,,,,,,,,,,0,,,72,45
728280,note_off,120,0,3,,,,,,,,,,,,,,,2,,,55,0
728280,note_off,0,0,3,,,,,,,,,,,,,,,2,,,52,0
728310,note_off,70,0,1,,,,,,,,,,,,,,,0,,,74,0
728320,note_on,10,0,1,,,,,,,,,,,,,,,0,,,74,45
728390,note_off,70,0,1,,,,,,,,,,,,,,,0,,,72,0
728400,note_on,10,0,1,,,,,,,,,,,,,,,0,,,72,46
728400,note_on,120,0,3,,,,,,,,,,,,,,,2,,,60,36
728400,note_on,0,0,3,,,,,,,,,,,,,,,2,,,55,36
728470,note_off,70,0,1,,,,,,,,,,,,,,,0,,,74,0
728480,note_on,10,0,1,,,,,,,,,,,,,,,0,,,74,46
728520,note_off,0,0,3,,,,,,,,,,,,,,,2,,,55,0
728520,note_off,120,0,3,,,,,,,,,,,,,,,2,,,60,0
728550,note_off,70,0,1,,,,,,,,,,,,,,,0,,,72,0
728560,note_on,10,0,1,,,,,,,,,,,,,,,0,,,72,47
728630,note_off,70,0,1,,,,,,,,,,,,,,,0,,,74,0
728640,note_on,120,0,3,,,,,,,,,,,,,,,2,,,55,36
728640,note_on,0,0,3,,,,,,,,,,,,,,,2,,,52,36
728640,note_on,10,0,1,,,,,,,,,,,,,,,0,,,74,47
728710,note_off,70,0,1,,,,,,,,,,,,,,,0,,,72,0
728720,note_on,10,0,1,,,,,,,,,,,,,,,0,,,72,47
728760,note_off,120,0,3,,,,,,,,,,,,,,,2,,,55,0
728760,note_off,0,0,3,,,,,,,,,,,,,,,2,,,52,0
728790,note_off,70,0,1,,,,,,,,,,,,,,,0,,,74,0
728800,note_on,10,0,1,,,,,,,,,,,,,,,0,,,74,48
728870,note_off,70,0,1,,,,,,,,,,,,,,,0,,,72,0
728880,note_on,780,0,4,,,,,,,,,,,,,,,3,,,48,46
728880,note_on,10,0,1,,,,,,,,,,,,,,,0,,,72,48
728880,note_on,120,0,3,,,,,,,,,,,,,,,2,,,52,37
728950,note_off,70,0,1,,,,,,,,,,,,,,,0,,,74,0
728960,note_on,10,0,1,,,,,,,,,,,,,,,0,,,74,49
729000,note_off,120,0,3,,,,,,,,,,,,,,,2,,,52,0
729000,note_off,40,0,1,,,,,,,,,,,,,,,0,,,72,0
729040,note_on,40,0,1,,,,,,,,,,,,,,,0,,,72,49
729060,note_off,180,0,4,,,,,,,,,,,,,,,3,,,48,0
729110,note_off,70,0,1,,,,,,,,,,,,,,,0,,,74,0
729120,note_on,120,0,3,,,,,,,,,,,,,,,2,,,55,37
729120,note_on,0,0,3,,,,,,,,,,,,,,,2,,,52,37
729120,note_on,10,0,1,,,,,,,,,,,,,,,0,,,71,49
729200,set_tempo,2600,1,0,,,,,,,476190,,,,,,,,,,,,
729215,note_off,95,0,1,,,,,,,,,,,,,,,0,,,72,0
729240,note_off,120,0,3,,,,,,,,,,,,,,,2,,,55,0
729240,note_off,0,0,3,,,,,,,,,,,,,,,2,,,52,0
729240,note_on,25,0,1,,,,,,,,,,,,,,,0,,,72,51
729270,set_tempo,70,1,0,,,,,,,483870,,,,,,,,,,,,
729345,note_off,105,0,1,,,,,,,,,,,,,,,0,,,71,0
729360,note_on,15,0,1,,,,,,,,,,,,,,,0,,,76,56
729360,note_on,300,0,4,,,,,,,,,,,,,,,3,,,48,48
729360,note_on,120,0,3,,,,,,,,,,,,,,,2,,,52,38
729390,set_tempo,120,1,0,,,,,,,472440,,,,,,,,,,,,
729405,note_off,45,0,1,,,,,,,,,,,,,,,0,,,72,0
729480,note_off,120,0,3,,,,,,,,,,,,,,,2,,,52,0
729540,note_off,180,0,4,,,,,,,,,,,,,,,3,,,48,0
729600,note_on,0,0,3,,,,,,,,,,,,,,,2,,,52,38
729600,note_on,120,0,3,,,,,,,,,,,,,,,2,,,55,38
729720,note_off,0,0,3,,,,,,,,,,,,,,,2,,,52,0
729720,note_off,120,0,3,,,,,,,,,,,,,,,2,,,55,0
729840,note_on,120,0,3,,,,,,,,,,,,,,,2,,,60,38
729840,note_on,0,0,3,,,,,,,,,,,,,,,2,,,55,38
729960,note_off,120,0,3,,,,,,,,,,,,,,,2,,,60,0
729960,note_off,0,0,3,,,,,,,,,,,,,,,2,,,55,0
730080,note_on,120,0,3,,,,,,,,,,,,,,,2,,,55,37
730080,note_on,0,0,3,,,,,,,,,,,,,,,2,,,52,37
730200,note_off,0,0,3,,,,,,,,,,,,,,,2,,,52,0
730200,note_off,120,0,3,,,,,,,,,,,,,,,2,,,55,0
730320,note_on,120,0,3,,,,,,,,,,,,,,,2,,,52,37
730320,note_on,780,0,4,,,,,,,,,,,,,,,3,,,48,45
730440,note_off,120,0,3,,,,,,,,,,,,,,,2,,,52,0
730500,note_off,180,0,4,,,,,,,,,,,,,,,3,,,48,0
730560,note_on,120,0,3,,,,,,,,,,,,,,,2,,,55,37
730560,note_on,0,0,3,,,,,,,,,,,,,,,2,,,52,37
730680,note_off,0,0,3,,,,,,,,,,,,,,,2,,,52,0
730680,note_on,1275,0,1,,,,,,,,,,,,,,,0,,,72,50
730680,note_off,120,0,3,,,,,,,,,,,,,,,2,,,55,0
730685,note_off,5,0,1,,,,,,,,,,,,,,,0,,,76,0
730700,set_tempo,1310,1,0,,,,,,,491803,,,,,,,,,,,,
730800,note_on,300,0,4,,,,,,,,,,,,,,,3,,,48,44
730800,note_off,115,0,1,,,,,,,,,,,,,,,0,,,72,0
730800,note_on,0,0,1,,,,,,,,,,,,,,,0,,,67,49
730800,note_on,120,0,3,,,,,,,,,,,,,,,2,,,52,36
730820,set_tempo,120,1,0,,,,,,,472440,,,,,,,,,,,,
730920,note_off,120,0,3,,,,,,,,,,,,,,,2,,,52,0
730980,note_off,180,0,4,,,,,,,,,,,,,,,3,,,48,0
731040,note_on,0,0,3,,,,,,,,,,,,,,,2,,,52,36
731040,note_on,120,0,3,,,,,,,,,,,,,,,2,,,55,36
731160,note_off,120,0,3,,,,,,,,,,,,,,,2,,,55,0
731160,note_off,0,0,3,,,,,,,,,,,,,,,2,,,52,0
731280,note_on,0,0,3,,,,,,,,,,,,,,,2,,,55,36
731280,note_on,120,0,3,,,,,,,,,,,,,,,2,,,60,36
731400,note_off,0,0,3,,,,,,,,,,,,,,,2,,,55,0
731400,note_off,120,0,3,,,,,,,,,,,,,,,2,,,60,0
731520,note_on,0,0,3,,,,,,,,,,,,,,,2,,,52,35
731520,note_on,120,0,3,,,,,,,,,,,,,,,2,,,55,35
731640,note_off,120,0,3,,,,,,,,,,,,,,,2,,,55,0
731640,note_off,0,0,3,,,,,,,,,,,,,,,2,,,52,0
731760,note_on,780,0,4,,,,,,,,,,,,,,,3,,,48,41
731760,note_on,120,0,3,,,,,,,,,,,,,,,2,,,52,35
731880,note_off,120,0,3,,,,,,,,,,,,,,,2,,,52,0
731940,note_off,180,0,4,,,,,,,,,,,,,,,3,,,48,0
732000,note_on,120,0,3,,,,,,,,,,,,,,,2,,,55,35
732000,note_on,0,0,3,,,,,,,,,,,,,,,2,,,52,35
732120,note_off,120,0,3,,,,,,,,,,,,,,,2,,,55,0
732120,note_off,0,0,3,,,,,,,,,,,,,,,2,,,52,0
732240,note_on,300,0,4,,,,,,,,,,,,,,,3,,,48,40
732240,note_on,120,0,3,,,,,,,,,,,,,,,2,,,52,34
732360,note_off,120,0,3,,,,,,,,,,,,,,,2,,,52,0
732420,note_off,180,0,4,,,,,,,,,,,,,,,3,,,48,0
732480,note_on,120,0,3,,,,,,,,,,,,,,,2,,,55,34
732480,note_on,0,0,3,,,,,,,,,,,,,,,2,,,52,34
732600,note_off,120,0,3,,,,,,,,,,,,,,,2,,,55,0
732600,note_off,0,0,3,,,,,,,,,,,,,,,2,,,52,0
732720,note_on,120,0,3,,,,,,,,,,,,,,,2,,,60,34
732720,note_on,0,0,3,,,,,,,,,,,,,,,2,,,55,34
732840,note_off,120,0,3,,,,,,,,,,,,,,,2,,,60,0
732840,note_off,0,0,3,,,,,,,,,,,,,,,2,,,55,0
732960,note_on,0,0,3,,,,,,,,,,,,,,,2,,,52,34
732960,note_on,120,0,3,,,,,,,,,,,,,,,2,,,55,34
733080,note_off,120,0,3,,,,,,,,,,,,,,,2,,,55,0
733080,note_off,0,0,3,,,,,,,,,,,,,,,2,,,52,0
733200,note_on,780,0,4,,,,,,,,,,,,,,,3,,,48,38
733200,note_on,2400,0,1,,,,,,,,,,,,,,,0,,,66,41
733200,note_on,120,0,3,,,,,,,,,,,,,,,2,,,52,35
733205,note_off,5,0,1,,,,,,,,,,,,,,,0,,,67,0
733320,note_off,120,0,3,,,,,,,,,,,,,,,2,,,52,0
733355,note_off,150,0,1,,,,,,,,,,,,,,,0,,,66,0
733380,note_off,180,0,4,,,,,,,,,,,,,,,3,,,48,0
733440,note_on,85,0,1,,,,,,,,,,,,,,,0,,,67,42
733440,note_on,120,0,3,,,,,,,,,,,,,,,2,,,55,35
733440,note_on,0,0,3,,,,,,,,,,,,,,,2,,,52,35
733560,note_off,0,0,3,,,,,,,,,,,,,,,2,,,52,0
733560,note_off,120,0,3,,,,,,,,,,,,,,,2,,,55,0
733595,note_off,155,0,1,,,,,,,,,,,,,,,0,,,67,0
733680,note_on,85,0,1,,,,,,,,,,,,,,,0,,,68,43
733680,note_on,120,0,3,,,,,,,,,,,,,,,2,,,52,36
733680,set_tempo,2860,1,0,,,,,,,472440,,,,,,,,,,,,
733680,note_on,300,0,4,,,,,,,,,,,,,,,3,,,48,39
733800,note_off,120,0,3,,,,,,,,,,,,,,,2,,,52,0
733835,note_off,155,0,1,,,,,,,,,,,,,,,0,,,68,0
733860,note_off,180,0,4,,,,,,,,,,,,,,,3,,,48,0
733920,note_on,120,0,3,,,,,,,,,,,,,,,2,,,52,36
733920,note_on,0,0,3,,,,,,,,,,,,,,,2,,,55,36
733920,note_on,85,0,1,,,,,,,,,,,,,,,0,,,69,44
734040,note_off,120,0,3,,,,,,,,,,,,,,,2,,,52,0
734040,note_off,0,0,3,,,,,,,,,,,,,,,2,,,55,0
734075,note_off,155,0,1,,,,,,,,,,,,,,,0,,,69,0
734160,note_on,85,0,1,,,,,,,,,,,,,,,0,,,70,44
734160,note_on,120,0,3,,,,,,,,,,,,,,,2,,,60,36
734160,note_on,0,0,3,,,,,,,,,,,,,,,2,,,55,36
734280,note_off,120,0,3,,,,,,,,,,,,,,,2,,,60,0
734280,note_off,0,0,3,,,,,,,,,,,,,,,2,,,55,0
734315,note_off,155,0,1,,,,,,,,,,,,,,,0,,,70,0
734400,note_on,120,0,3,,,,,,,,,,,,,,,2,,,55,37
734400,note_on,0,0,3,,,,,,,,,,,,,,,2,,,52,37
734400,note_on,85,0,1,,,,,,,,,,,,,,,0,,,71,45
734520,note_off,0,0,3,,,,,,,,,,,,,,,2,,,52,0
734520,note_off,120,0,3,,,,,,,,,,,,,,,2,,,55,0
734555,note_off,155,0,1,,,,,,,,,,,,,,,0,,,71,0
734640,note_on,120,0,3,,,,,,,,,,,,,,,2,,,52,37
734640,note_on,780,0,4,,,,,,,,,,,,,,,3,,,48,40
734640,note_on,85,0,1,,,,,,,,,,,,,,,0,,,72,46
734760,note_off,120,0,3,,,,,,,,,,,,,,,2,,,52,0
734780,set_tempo,1100,1,0,,,,,,,487804,,,,,,,,,,,,
734795,note_off,155,0,1,,,,,,,,,,,,,,,0,,,72,0
734820,note_off,180,0,4,,,,,,,,,,,,,,,3,,,48,0
734880,note_on,0,0,3,,,,,,,,,,,,,,,2,,,52,38
734880,note_on,120,0,3,,,,,,,,,,,,,,,2,,,55,38
734880,note_on,85,0,1,,,,,,,,,,,,,,,0,,,73,47
735000,note_off,120,0,3,,,,,,,,,,,,,,,2,,,55,0
735000,note_off,0,0,3,,,,,,,,,,,,,,,2,,,52,0
735035,note_off,155,0,1,,,,,,,,,,,,,,,0,,,73,0
735120,note_on,85,0,1,,,,,,,,,,,,,,,0,,,74,42
735120,note_on,120,0,3,,,,,,,,,,,,,,,2,,,53,38
735120,note_on,300,0,4,,,,,,,,,,,,,,,3,,,47,41
735150,set_tempo,370,1,0,,,,,,,491803,,,,,,,,,,,,
735200,note_on,80,0,1,,,,,,,,,,,,,,,0,,,76,43
735240,note_off,120,0,3,,,,,,,,,,,,,,,2,,,53,0
735270,note_off,70,0,1,,,,,,,,,,,,,,,0,,,74,0
735270,set_tempo,120,1,0,,,,,,,472440,,,,,,,,,,,,
735280,note_on,10,0,1,,,,,,,,,,,,,,,0,,,74,43
735300,note_off,180,0,4,,,,,,,,,,,,,,,3,,,47,0
735350,note_off,70,0,1,,,,,,,,,,,,,,,0,,,76,0
735360,note_on,10,0,1,,,,,,,,,,,,,,,0,,,76,44
735360,note_on,120,0,3,,,,,,,,,,,,,,,2,,,55,38
735360,note_on,0,0,3,,,,,,,,,,,,,,,2,,,53,38
735430,note_off,70,0,1,,,,,,,,,,,,,,,0,,,74,0
735440,note_on,10,0,1,,,,,,,,,,,,,,,0,,,74,44
735480,note_off,120,0,3,,,,,,,,,,,,,,,2,,,55,0
735480,note_off,0,0,3,,,,,,,,,,,,,,,2,,,53,0
735510,note_off,70,0,1,,,,,,,,,,,,,,,0,,,76,0
735520,note_on,10,0,1,,,,,,,,,,,,,,,0,,,76,45
735590,note_off,70,0,1,,,,,,,,,,,,,,,0,,,74,0
735600,note_on,10,0,1,,,,,,,,,,,,,,,0,,,74,45
735600,note_on,120,0,3,,,,,,,,,,,,,,,2,,,55,39
735600,note_on,0,0,3,,,,,,,,,,,,,,,2,,,62,39
735670,note_off,70,0,1,,,,,,,,,,,,,,,0,,,76,0
735680,note_on,10,0,1,,,,,,,,,,,,,,,0,,,76,45
735720,note_off,0,0,3,,,,,,,,,,,,,,,2,,,62,0
735720,note_off,120,0,3,,,,,,,,,,,,,,,2,,,55,0
735750,note_off,70,0,1,,,,,,,,,,,,,,,0,,,74,0
735760,note_on,10,0,1,,,,,,,,,,,,,,,0,,,74,46
735830,note_off,70,0,1,,,,,,,,,,,,,,,0,,,76,0
735840,note_on,120,0,3,,,,,,,,,,,,,,,2,,,55,39
735840,note_on,0,0,3,,,,,,,,,,,,,,,2,,,53,39
735840,note_on,10,0,1,,,,,,,,,,,,,,,0,,,76,46
735910,note_off,70,0,1,,,,,,,,,,,,,,,0,,,74,0
735920,note_on,10,0,1,,,,,,,,,,,,,,,0,,,74,47
735960,note_off,120,0,3,,,,,,,,,,,,,,,2,,,55,0
735960,note_off,0,0,3,,,,,,,,,,,,,,,2,,,53,0
735990,note_off,70,0,1,,,,,,,,,,,,,,,0,,,76,0
736000,note_on,10,0,1,,,,,,,,,,,,,,,0,,,76,47
736070,note_off,70,0,1,,,,,,,,,,,,,,,0,,,74,0
736080,note_on,10,0,1,,,,,,,,,,,,,,,0,,,74,48
736080,note_on,120,0,3,,,,,,,,,,,,,,,2,,,53,40
736080,note_on,780,0,4,,,,,,,,,,,,,,,3,,,47,43
736150,note_off,70,0,1,,,,,,,,,,,,,,,0,,,76,0
736160,note_on,10,0,1,,,,,,,,,,,,,,,0,,,76,48
736200,note_off,120,0,3,,,,,,,,,,,,,,,2,,,53,0
736230,note_off,70,0,1,,,,,,,,,,,,,,,0,,,74,0
736240,note_on,10,0,1,,,,,,,,,,,,,,,0,,,74,49
736260,note_off,180,0,4,,,,,,,,,,,,,,,3,,,47,0
736310,note_off,70,0,1,,,,,,,,,,,,,,,0,,,76,0
736320,note_on,10,0,1,,,,,,,,,,,,,,,0,,,76,49
736320,note_on,0,0,3,,,,,,,,,,,,,,,2,,,53,40
736320,note_on,120,0,3,,,,,,,,,,,,,,,2,,,55,40
736390,note_off,70,0,1,,,,,,,,,,,,,,,0,,,74,0
736400,note_on,10,0,1,,,,,,,,,,,,,,,0,,,74,50
736440,note_off,120,0,3,,,,,,,,,,,,,,,2,,,55,0
736440,note_off,0,0,3,,,,,,,,,,,,,,,2,,,53,0
736470,note_off,70,0,1,,,,,,,,,,,,,,,0,,,76,0
736480,note_on,10,0,1,,,,,,,,,,,,,,,0,,,76,50
736550,note_off,70,0,1,,,,,,,,,,,,,,,0,,,74,0
736560,note_on,120,0,3,,,,,,,,,,,,,,,2,,,53,40
736560,note_on,300,0,4,,,,,,,,,,,,,,,3,,,47,44
736560,note_on,10,0,1,,,,,,,,,,,,,,,0,,,74,50
736630,note_off,70,0,1,,,,,,,,,,,,,,,0,,,76,0
736640,note_on,10,0,1,,,,,,,,,,,,,,,0,,,76,51
736680,note_off,120,0,3,,,,,,,,,,,,,,,2,,,53,0
736710,note_off,70,0,1,,,,,,,,,,,,,,,0,,,74,0
736720,note_on,10,0,1,,,,,,,,,,,,,,,0,,,74,51
736740,note_off,180,0,4,,,,,,,,,,,,,,,3,,,47,0
736790,note_off,70,0,1,,,,,,,,,,,,,,,0,,,76,0
736800,note_on,0,0,3,,,,,,,,,,,,,,,2,,,53,41
736800,note_on,120,0,3,,,,,,,,,,,,,,,2,,,55,41
736800,note_on,10,0,1,,,,,,,,,,,,,,,0,,,76,52
736870,note_off,70,0,1,,,,,,,,,,,,,,,0,,,74,0
736880,note_on,10,0,1,,,,,,,,,,,,,,,0,,,74,52
736920,note_off,120,0,3,,,,,,,,,,,,,,,2,,,55,0
736920,note_off,0,0,3,,,,,,,,,,,,,,,2,,,53,0
736945,note_off,65,0,1,,,,,,,,,,,,,,,0,,,76,0
736960,note_on,15,0,1,,,,,,,,,,,,,,,0,,,76,53
737040,note_off,80,0,1,,,,,,,,,,,,,,,0,,,74,0
737040,note_on,0,0,1,,,,,,,,,,,,,,,0,,,74,53
737040,note_on,120,0,3,,,,,,,,,,,,,,,2,,,55,41
737040,note_on,0,0,3,,,,,,,,,,,,,,,2,,,62,41
737110,note_off,70,0,1,,,,,,,,,,,,,,,0,,,76,0
737120,note_on,10,0,1,,,,,,,,,,,,,,,0,,,76,54
737160,note_off,120,0,3,,,,,,,,,,,,,,,2,,,55,0
737160,note_off,0,0,3,,,,,,,,,,,,,,,2,,,62,0
737190,note_off,70,0,1,,,,,,,,,,,,,,,0,,,74,0
737200,note_on,10,0,1,,,,,,,,,,,,,,,0,,,74,54
737270,note_off,70,0,1,,,,,,,,,,,,,,,0,,,76,0
737280,note_on,120,0,3,,,,,,,,,,,,,,,2,,,55,42
737280,note_on,0,0,3,,,,,,,,,,,,,,,2,,,53,42
737280,note_on,10,0,1,,,,,,,,,,,,,,,0,,,76,55
737350,note_off,70,0,1,,,,,,,,,,,,,,,0,,,74,0
737360,note_on,10,0,1,,,,,,,,,,,,,,,0,,,74,55
737400,note_off,0,0,3,,,,,,,,,,,,,,,2,,,53,0
737400,note_off,120,0,3,,,,,,,,,,,,,,,2,,,55,0
737430,note_off,70,0,1,,,,,,,,,,,,,,,0,,,76,0
737440,note_on,10,0,1,,,,,,,,,,,,,,,0,,,76,55
737510,note_off,70,0,1,,,,,,,,,,,,,,,0,,,74,0
737520,note_on,10,0,1,,,,,,,,,,,,,,,0,,,74,56
737520,note_on,120,0,3,,,,,,,,,,,,,,,2,,,53,42
737520,note_on,780,0,4,,,,,,,,,,,,,,,3,,,47,46
737590,note_off,70,0,1,,,,,,,,,,,,,,,0,,,76,0
737600,note_on,10,0,1,,,,,,,,,,,,,,,0,,,76,56
737640,note_off,120,0,3,,,,,,,,,,,,,,,2,,,53,0
737670,note_off,70,0,1,,,,,,,,,,,,,,,0,,,74,0
737680,note_on,10,0,1,,,,,,,,,,,,,,,0,,,74,57
737700,note_off,180,0,4,,,,,,,,,,,,,,,3,,,47,0
737750,note_off,70,0,1,,,,,,,,,,,,,,,0,,,76,0
737760,note_on,10,0,1,,,,,,,,,,,,,,,0,,,73,57
737760,note_on,0,0,3,,,,,,,,,,,,,,,2,,,53,43
737760,note_on,120,0,3,,,,,,,,,,,,,,,2,,,55,43
737840,set_tempo,2570,1,0,,,,,,,476190,,,,,,,,,,,,
737880,note_on,0,0,1,,,,,,,,,,,,,,,0,,,74,61
737880,note_off,120,0,1,,,,,,,,,,,,,,,0,,,74,0
737880,note_off,0,0,3,,,,,,,,,,,,,,,2,,,53,0
737880,note_off,120,0,3,,,,,,,,,,,,,,,2,,,55,0
737890,set_tempo,50,1,0,,,,,,,483870,,,,,,,,,,,,
737940,note_off,60,0,1,,,,,,,,,,,,,,,0,,,73,0
738000,note_on,120,0,3,,,,,,,,,,,,,,,2,,,53,43
738000,note_on,60,0,1,,,,,,,,,,,,,,,0,,,79,63
738000,note_on,300,0,4,,,,,,,,,,,,,,,3,,,47,47
738020,set_tempo,130,1,0,,,,,,,472440,,,,,,,,,,,,
738060,note_off,60,0,1,,,,,,,,,,,,,,,0,,,74,0
738120,note_off,120,0,3,,,,,,,,,,,,,,,2,,,53,0
738180,note_off,180,0,4,,,,,,,,,,,,,,,3,,,47,0
738240,note_on,120,0,3,,,,,,,,,,,,,,,2,,,55,43
738240,note_on,0,0,3,,,,,,,,,,,,,,,2,,,53,43
738360,note_off,120,0,3,,,,,,,,,,,,,,,2,,,55,0
738360,note_off,0,0,3,,,,,,,,,,,,,,,2,,,53,0
738480,note_on,120,0,3,,,,,,,,,,,,,,,2,,,55,43
738480,note_on,0,0,3,,,,,,,,,,,,,,,2,,,62,43
738600,note_off,120,0,3,,,,,,,,,,,,,,,2,,,55,0
738600,note_off,0,0,3,,,,,,,,,,,,,,,2,,,62,0
738720,note_on,120,0,3,,,,,,,,,,,,,,,2,,,55,42
738720,note_on,0,0,3,,,,,,,,,,,,,,,2,,,53,42
738840,note_off,120,0,3,,,,,,,,,,,,,,,2,,,55,0
738840,note_off,0,0,3,,,,,,,,,,,,,,,2,,,53,0
738960,note_on,120,0,3,,,,,,,,,,,,,,,2,,,53,41
738960,note_on,780,0,4,,,,,,,,,,,,,,,3,,,47,49
739080,note_off,120,0,3,,,,,,,,,,,,,,,2,,,53,0
739125,note_off,1065,0,1,,,,,,,,,,,,,,,0,,,79,0
739140,note_on,15,0,1,,,,,,,,,,,,,,,0,,,77,58
739140,note_off,180,0,4,,,,,,,,,,,,,,,3,,,47,0
739200,note_on,0,0,1,,,,,,,,,,,,,,,0,,,76,58
739200,note_on,120,0,3,,,,,,,,,,,,,,,2,,,55,41
739200,note_on,0,0,3,,,,,,,,,,,,,,,2,,,53,41
739200,note_off,60,0,1,,,,,,,,,,,,,,,0,,,77,0
739260,note_on,0,0,1,,,,,,,,,,,,,,,0,,,74,57
739260,note_off,60,0,1,,,,,,,,,,,,,,,0,,,76,0
739320,note_off,120,0,3,,,,,,,,,,,,,,,2,,,55,0
739320,note_off,0,0,3,,,,,,,,,,,,,,,2,,,53,0
739320,note_off,60,0,1,,,,,,,,,,,,,,,0,,,74,0
739320,note_on,0,0,1,,,,,,,,,,,,,,,0,,,72,57
739340,set_tempo,1320,1,0,,,,,,,491803,,,,,,,,,,,,
739380,note_on,0,0,1,,,,,,,,,,,,,,,0,,,71,57
739380,note_off,60,0,1,,,,,,,,,,,,,,,0,,,72,0
739440,note_on,300,0,4,,,,,,,,,,,,,,,3,,,47,49
739440,note_off,60,0,1,,,,,,,,,,,,,,,0,,,71,0
739440,note_on,0,0,1,,,,,,,,,,,,,,,0,,,69,56
739440,note_on,120,0,3,,,,,,,,,,,,,,,2,,,53,40
739460,set_tempo,120,1,0,,,,,,,472440,,,,,,,,,,,,
739560,note_off,120,0,3,,,,,,,,,,,,,,,2,,,53,0
739620,note_off,180,0,4,,,,,,,,,,,,,,,3,,,47,0
739680,note_on,120,0,3,,,,,,,,,,,,,,,2,,,55,39
739680,note_on,0,0,3,,,,,,,,,,,,,,,2,,,53,39
739800,note_off,120,0,3,,,,,,,,,,,,,,,2,,,55,0
739800,note_off,0,0,3,,,,,,,,,,,,,,,2,,,53,0
739800,note_off,360,0,1,,,,,,,,,,,,,,,0,,,69,0
739920,note_on,120,0,3,,,,,,,,,,,,,,,2,,,55,39
739920,note_on,0,0,3,,,,,,,,,,,,,,,2,,,62,39
739920,note_on,120,0,1,,,,,,,,,,,,,,,0,,,67,54
740040,note_off,120,0,3,,,,,,,,,,,,,,,2,,,55,0
740040,note_off,0,0,3,,,,,,,,,,,,,,,2,,,62,0
740160,note_on,120,0,3,,,,,,,,,,,,,,,2,,,55,38
740160,note_on,0,0,3,,,,,,,,,,,,,,,2,,,53,38
740280,note_off,0,0,3,,,,,,,,,,,,,,,2,,,53,0
740280,note_off,120,0,3,,,,,,,,,,,,,,,2,,,55,0
740400,note_on,120,0,3,,,,,,,,,,,,,,,2,,,53,37
740400,note_on,780,0,4,,,,,,,,,,,,,,,3,,,47,53
740520,note_off,120,0,3,,,,,,,,,,,,,,,2,,,53,0
740580,note_off,180,0,4,,,,,,,,,,,,,,,3,,,47,0
740640,note_on,120,0,3,,,,,,,,,,,,,,,2,,,55,37
740640,note_on,0,0,3,,,,,,,,,,,,,,,2,,,53,37
740760,note_off,120,0,3,,,,,,,,,,,,,,,2,,,55,0
740760,note_off,0,0,3,,,,,,,,,,,,,,,2,,,53,0
740880,note_on,300,0,4,,,,,,,,,,,,,,,3,,,47,52
740880,note_on,120,0,3,,,,,,,,,,,,,,,2,,,53,36
741000,note_off,120,0,3,,,,,,,,,,,,,,,2,,,53,0
741060,note_off,180,0,4,,,,,,,,,,,,,,,3,,,47,0
741120,note_on,120,0,3,,,,,,,,,,,,,,,2,,,55,36
741120,note_on,0,0,3,,,,,,,,,,,,,,,2,,,53,36
741240,note_off,0,0,3,,,,,,,,,,,,,,,2,,,53,0
741240,note_off,120,0,3,,,,,,,,,,,,,,,2,,,55,0
741360,note_on,0,0,3,,,,,,,,,,,,,,,2,,,62,35
741360,note_on,120,0,3,,,,,,,,,,,,,,,2,,,55,35
741480,note_off,0,0,3,,,,,,,,,,,,,,,2,,,62,0
741480,note_off,120,0,3,,,,,,,,,,,,,,,2,,,55,0
741600,note_on,0,0,3,,,,,,,,,,,,,,,2,,,53,36
741600,note_on,120,0,3,,,,,,,,,,,,,,,2,,,55,36
741720,note_off,0,0,3,,,,,,,,,,,,,,,2,,,53,0
741720,note_off,120,0,3,,,,,,,,,,,,,,,2,,,55,0
741825,note_off,1905,0,1,,,,,,,,,,,,,,,0,,,67,0
741840,note_on,120,0,3,,,,,,,,,,,,,,,2,,,53,36
741840,note_on,15,0,1,,,,,,,,,,,,,,,0,,,67,50
741840,note_on,780,0,4,,,,,,,,,,,,,,,3,,,47,49
741960,note_off,120,0,3,,,,,,,,,,,,,,,2,,,53,0
741995,note_off,155,0,1,,,,,,,,,,,,,,,0,,,67,0
742020,note_off,180,0,4,,,,,,,,,,,,,,,3,,,47,0
742080,note_on,120,0,3,,,,,,,,,,,,,,,2,,,55,37
742080,note_on,85,0,1,,,,,,,,,,,,,,,0,,,69,51
742080,note_on,0,0,3,,,,,,,,,,,,,,,2,,,53,37
742200,note_off,120,0,3,,,,,,,,,,,,,,,2,,,55,0
742200,note_off,0,0,3,,,,,,,,,,,,,,,2,,,53,0
742235,note_off,155,0,1,,,,,,,,,,,,,,,0,,,69,0
742320,note_on,120,0,3,,,,,,,,,,,,,,,2,,,53,38
742320,note_on,85,0,1,,,,,,,,,,,,,,,0,,,70,51
742320,note_on,300,0,4,,,,,,,,,,,,,,,3,,,47,47
742440,note_off,120,0,3,,,,,,,,,,,,,,,2,,,53,0
742475,note_off,155,0,1,,,,,,,,,,,,,,,0,,,70,0
742500,note_off,180,0,4,,,,,,,,,,,,,,,3,,,47,0
742560,note_on,85,0,1,,,,,,,,,,,,,,,0,,,71,52
742560,note_on,120,0,3,,,,,,,,,,,,,,,2,,,55,38
742560,note_on,0,0,3,,,,,,,,,,,,,,,2,,,53,38
742680,note_off,120,0,3,,,,,,,,,,,,,,,2,,,55,0
742680,note_off,0,0,3,,,,,,,,,,,,,,,2,,,53,0
742715,note_off,155,0,1,,,,,,,,,,,,,,,0,,,71,0
742800,note_on,0,0,3,,,,,,,,,,,,,,,2,,,55,39
742800,note_on,85,0,1,,,,,,,,,,,,,,,0,,,72,53
742800,note_on,120,0,3,,,,,,,,,,,,,,,2,,,62,39
742920,note_off,120,0,3,,,,,,,,,,,,,,,2,,,62,0
742920,note_off,0,0,3,,,,,,,,,,,,,,,2,,,55,0
742955,note_off,155,0,1,,,,,,,,,,,,,,,0,,,72,0
743040,note_on,85,0,1,,,,,,,,,,,,,,,0,,,73,54
743040,note_on,0,0,3,,,,,,,,,,,,,,,2,,,53,40
743040,note_on,120,0,3,,,,,,,,,,,,,,,2,,,55,40
743160,note_off,0,0,3,,,,,,,,,,,,,,,2,,,53,0
743160,note_off,120,0,3,,,,,,,,,,,,,,,2,,,55,0
743195,note_off,155,0,1,,,,,,,,,,,,,,,0,,,73,0
743280,note_on,85,0,1,,,,,,,,,,,,,,,0,,,74,55
743280,note_on,780,0,4,,,,,,,,,,,,,,,3,,,47,46
743280,note_on,120,0,3,,,,,,,,,,,,,,,2,,,53,40
743400,note_off,120,0,3,,,,,,,,,,,,,,,2,,,53,0
743420,set_tempo,3960,1,0,,,,,,,487804,,,,,,,,,,,,
743435,note_off,155,0,1,,,,,,,,,,,,,,,0,,,74,0
743460,note_off,180,0,4,,,,,,,,,,,,,,,3,,,47,0
743520,note_on,0,0,3,,,,,,,,,,,,,,,2,,,53,41
743520,note_on,85,0,1,,,,,,,,,,,,,,,0,,,75,56
743520,note_on,120,0,3,,,,,,,,,,,,,,,2,,,55,41
743640,note_off,0,0,3,,,,,,,,,,,,,,,2,,,53,0
743640,note_off,120,0,3,,,,,,,,,,,,,,,2,,,55,0
743675,note_off,155,0,1,,,,,,,,,,,,,,,0,,,75,0
743700,set_tempo,280,1,0,,,,,,,491803,,,,,,,,,,,,
743760,note_on,85,0,1,,,,,,,,,,,,,,,0,,,76,52
743760,note_on,120,0,3,,,,,,,,,,,,,,,2,,,52,47
743760,note_on,300,0,4,,,,,,,,,,,,,,,3,,,48,56
743880,note_on,0,0,1,,,,,,,,,,,,,,,0,,,77,52
743880,set_tempo,180,1,0,,,,,,,472440,,,,,,,,,,,,
743880,note_off,120,0,1,,,,,,,,,,,,,,,0,,,76,0
743915,note_off,155,0,3,,,,,,,,,,,,,,,2,,,52,0
744000,note_off,120,0,1,,,,,,,,,,,,,,,0,,,77,0
744000,note_on,0,0,1,,,,,,,,,,,,,,,0,,,76,53
744000,note_on,85,0,3,,,,,,,,,,,,,,,2,,,55,47
744120,note_off,120,0,1,,,,,,,,,,,,,,,0,,,76,0
744120,note_on,0,0,1,,,,,,,,,,,,,,,0,,,75,53
744155,note_off,155,0,3,,,,,,,,,,,,,,,2,,,55,0
744240,note_off,120,0,1,,,,,,,,,,,,,,,0,,,75,0
744240,note_on,0,0,1,,,,,,,,,,,,,,,0,,,76,54
744240,note_on,85,0,3,,,,,,,,,,,,,,,2,,,60,48
744360,note_on,0,0,1,,,,,,,,,,,,,,,0,,,72,54
744360,note_off,120,0,1,,,,,,,,,,,,,,,0,,,76,0
744395,note_off,155,0,3,,,,,,,,,,,,,,,2,,,60,0
744480,note_on,0,0,1,,,,,,,,,,,,,,,0,,,71,55
744480,note_off,120,0,1,,,,,,,,,,,,,,,0,,,72,0
744480,note_on,85,0,3,,,,,,,,,,,,,,,2,,,55,48
744600,note_on,0,0,1,,,,,,,,,,,,,,,0,,,72,55
744600,note_off,120,0,1,,,,,,,,,,,,,,,0,,,71,0
744635,note_off,155,0,3,,,,,,,,,,,,,,,2,,,55,0
744720,note_on,0,0,1,,,,,,,,,,,,,,,0,,,84,56
744720,note_off,120,0,1,,,,,,,,,,,,,,,0,,,72,0
744720,note_on,85,0,3,,,,,,,,,,,,,,,2,,,52,49
744875,note_off,155,0,3,,,,,,,,,,,,,,,2,,,52,0
744880,note_on,0,0,1,,,,,,,,,,,,,,,0,,,83,56
744880,note_off,160,0,1,,,,,,,,,,,,,,,0,,,84,0
744960,note_on,85,0,3,,,,,,,,,,,,,,,2,,,48,49
745040,note_on,0,0,1,,,,,,,,,,,,,,,0,,,84,57
745040,note_off,160,0,1,,,,,,,,,,,,,,,0,,,83,0
745100,set_tempo,1220,1,0,,,,,,,487804,,,,,,,,,,,,
745115,note_off,155,0,3,,,,,,,,,,,,,,,2,,,48,0
745200,note_off,160,0,1,,,,,,,,,,,,,,,0,,,84,0
745200,note_on,0,0,1,,,,,,,,,,,,,,,0,,,77,58
745200,note_on,0,0,4,,,,,,,,,,,,,,,3,,,45,58
745200,note_off,1440,0,4,,,,,,,,,,,,,,,3,,,48,0
745220,set_tempo,120,1,0,,,,,,,472440,,,,,,,,,,,,
745320,note_off,120,0,1,,,,,,,,,,,,,,,0,,,77,0
745320,note_on,0,0,1,,,,,,,,,,,,,,,0,,,79,58
745440,note_off,120,0,1,,,,,,,,,,,,,,,0,,,79,0
745440,note_on,0,0,1,,,,,,,,,,,,,,,0,,,77,59
745440,note_on,325,0,3,,,,,,,,,,,,,,,2,,,57,50
745560,note_off,120,0,1,,,,,,,,,,,,,,,0,,,77,0
745560,note_on,0,0,1,,,,,,,,,,,,,,,0,,,76,59
745595,note_off,155,0,3,,,,,,,,,,,,,,,2,,,57,0
745680,note_off,120,0,1,,,,,,,,,,,,,,,0,,,76,0
745680,note_on,0,0,1,,,,,,,,,,,,,,,0,,,77,60
745680,note_on,85,0,3,,,,,,,,,,,,,,,2,,,60,50
745800,note_off,120,0,1,,,,,,,,,,,,,,,0,,,77,0
745800,note_on,0,0,1,,,,,,,,,,,,,,,0,,,72,60
745835,note_off,155,0,3,,,,,,,,,,,,,,,2,,,60,0
745920,note_off,120,0,1,,,,,,,,,,,,,,,0,,,72,0
745920,note_on,85,0,3,,,,,,,,,,,,,,,2,,,57,51
745920,note_on,0,0,1,,,,,,,,,,,,,,,0,,,71,61
746040,note_off,120,0,1,,,,,,,,,,,,,,,0,,,71,0
746040,note_on,0,0,1,,,,,,,,,,,,,,,0,,,72,61
746075,note_off,155,0,3,,,,,,,,,,,,,,,2,,,57,0
746160,note_off,120,0,1,,,,,,,,,,,,,,,0,,,72,0
746160,note_on,0,0,1,,,,,,,,,,,,,,,0,,,84,62
746160,note_on,85,0,3,,,,,,,,,,,,,,,2,,,53,51
746315,note_off,155,0,3,,,,,,,,,,,,,,,2,,,53,0
746320,note_on,0,0,1,,,,,,,,,,,,,,,0,,,83,62
746320,note_off,160,0,1,,,,,,,,,,,,,,,0,,,84,0
746400,note_on,85,0,3,,,,,,,,,,,,,,,2,,,48,52
746480,note_off,160,0,1,,,,,,,,,,,,,,,0,,,83,0
746480,note_on,0,0,1,,,,,,,,,,,,,,,0,,,84,63
746540,set_tempo,1320,1,0,,,,,,,487804,,,,,,,,,,,,
746555,note_off,155,0,3,,,,,,,,,,,,,,,2,,,48,0
746640,note_on,0,0,1,,,,,,,,,,,,,,,0,,,79,64
746640,note_off,1440,0,4,,,,,,,,,,,,,,,3,,,45,0
746640,note_off,160,0,1,,,,,,,,,,,,,,,0,,,84,0
746640,note_on,0,0,4,,,,,,,,,,,,,,,3,,,40,61
746660,set_tempo,120,1,0,,,,,,,472440,,,,,,,,,,,,
746760,note_off,120,0,1,,,,,,,,,,,,,,,0,,,79,0
746760,note_on,0,0,1,,,,,,,,,,,,,,,0,,,81,64
746880,note_off,120,0,1,,,,,,,,,,,,,,,0,,,81,0
746880,note_on,325,0,3,,,,,,,,,,,,,,,2,,,55,53
746880,note_on,0,0,1,,,,,,,,,,,,,,,0,,,79,65
747000,note_off,120,0,1,,,,,,,,,,,,,,,0,,,79,0
747000,note_on,0,0,1,,,,,,,,,,,,,,,0,,,78,65
747035,note_off,155,0,3,,,,,,,,,,,,,,,2,,,55,0
747120,note_on,85,0,3,,,,,,,,,,,,,,,2,,,60,53
747120,note_on,0,0,1,,,,,,,,,,,,,,,0,,,79,66
747120,note_off,120,0,1,,,,,,,,,,,,,,,0,,,78,0
747240,note_on,0,0,1,,,,,,,,,,,,,,,0,,,72,66
747240,note_off,120,0,1,,,,,,,,,,,,,,,0,,,79,0
747275,note_off,155,0,3,,,,,,,,,,,,,,,2,,,60,0
747360,note_off,120,0,1,,,,,,,,,,,,,,,0,,,72,0
747360,note_on,85,0,3,,,,,,,,,,,,,,,2,,,55,54
747360,note_on,0,0,1,,,,,,,,,,,,,,,0,,,71,67
747480,note_on,0,0,1,,,,,,,,,,,,,,,0,,,72,67
747480,note_off,120,0,1,,,,,,,,,,,,,,,0,,,71,0
747515,note_off,155,0,3,,,,,,,,,,,,,,,2,,,55,0
747600,note_on,85,0,3,,,,,,,,,,,,,,,2,,,52,54
747600,note_on,0,0,1,,,,,,,,,,,,,,,0,,,84,68
747600,note_off,120,0,1,,,,,,,,,,,,,,,0,,,72,0
747755,note_off,155,0,3,,,,,,,,,,,,,,,2,,,52,0
747760,note_on,0,0,1,,,,,,,,,,,,,,,0,,,83,68
747760,note_off,160,0,1,,,,,,,,,,,,,,,0,,,84,0
747840,note_on,85,0,3,,,,,,,,,,,,,,,2,,,48,55
747920,note_on,0,0,1,,,,,,,,,,,,,,,0,,,84,69
747920,note_off,160,0,1,,,,,,,,,,,,,,,0,,,83,0
747980,set_tempo,1320,1,0,,,,,,,487804,,,,,,,,,,,,
747995,note_off,155,0,3,,,,,,,,,,,,,,,2,,,48,0
748080,note_off,1440,0,4,,,,,,,,,,,,,,,3,,,40,0
748080,note_off,160,0,1,,,,,,,,,,,,,,,0,,,84,0
748080,note_on,0,0,1,,,,,,,,,,,,,,,0,,,80,71
748080,note_on,0,0,4,,,,,,,,,,,,,,,3,,,41,63
748100,set_tempo,120,1,0,,,,,,,472440,,,,,,,,,,,,
748320,note_on,325,0,3,,,,,,,,,,,,,,,2,,,57,56
748320,note_on,0,0,3,,,,,,,,,,,,,,,2,,,53,56
748320,note_off,240,0,1,,,,,,,,,,,,,,,0,,,80,0
748320,note_on,0,0,1,,,,,,,,,,,,,,,0,,,81,72
748460,set_tempo,360,1,0,,,,,,,487804,,,,,,,,,,,,
748475,note_off,155,0,3,,,,,,,,,,,,,,,2,,,57,0
748475,note_off,0,0,3,,,,,,,,,,,,,,,2,,,53,0
748560,note_on,85,0,3,,,,,,,,,,,,,,,2,,,60,56
748560,note_on,0,0,3,,,,,,,,,,,,,,,2,,,57,56
748580,set_tempo,120,1,0,,,,,,,472440,,,,,,,,,,,,
748715,note_off,0,0,3,,,,,,,,,,,,,,,2,,,57,0
748715,note_off,155,0,3,,,,,,,,,,,,,,,2,,,60,0
748800,note_on,85,0,3,,,,,,,,,,,,,,,2,,,53,57
748800,note_on,0,0,1,,,,,,,,,,,,,,,0,,,81,69
748800,note_off,480,0,1,,,,,,,,,,,,,,,0,,,81,0
748800,note_on,0,0,3,,,,,,,,,,,,,,,2,,,57,57
748955,note_off,155,0,3,,,,,,,,,,,,,,,2,,,53,0
748955,note_off,0,0,3,,,,,,,,,,,,,,,2,,,57,0
749040,note_on,85,0,3,,,,,,,,,,,,,,,2,,,57,57
749040,note_on,0,0,3,,,,,,,,,,,,,,,2,,,60,57
749195,note_off,155,0,3,,,,,,,,,,,,,,,2,,,57,0
749195,note_off,0,0,3,,,,,,,,,,,,,,,2,,,60,0
749280,note_on,0,0,1,,,,,,,,,,,,,,,0,,,81,72
749280,note_off,480,0,1,,,,,,,,,,,,,,,0,,,81,0
749280,note_on,0,0,3,,,,,,,,,,,,,,,2,,,57,57
749280,note_on,85,0,3,,,,,,,,,,,,,,,2,,,53,57
749435,note_off,0,0,3,,,,,,,,,,,,,,,2,,,57,0
749435,note_off,155,0,3,,,,,,,,,,,,,,,2,,,53,0
749520,note_on,0,0,4,,,,,,,,,,,,,,,3,,,41,69
749520,note_off,1440,0,4,,,,,,,,,,,,,,,3,,,41,0
749760,note_on,0,0,3,,,,,,,,,,,,,,,2,,,53,58
749760,note_on,325,0,3,,,,,,,,,,,,,,,2,,,57,58
749760,note_on,0,0,1,,,,,,,,,,,,,,,0,,,81,75
749760,note_off,480,0,1,,,,,,,,,,,,,,,0,,,81,0
749915,note_off,0,0,3,,,,,,,,,,,,,,,2,,,53,0
749915,note_off,155,0,3,,,,,,,,,,,,,,,2,,,57,0
750000,note_on,85,0,3,,,,,,,,,,,,,,,2,,,57,59
750000,note_on,0,0,3,,,,,,,,,,,,,,,2,,,61,59
750155,note_off,0,0,3,,,,,,,,,,,,,,,2,,,61,0
750155,note_off,155,0,3,,,,,,,,,,,,,,,2,,,57,0
750240,note_on,0,0,1,,,,,,,,,,,,,,,0,,,81,78
750240,note_on,0,0,3,,,,,,,,,,,,,,,2,,,57,59
750240,note_on,85,0,3,,,,,,,,,,,,,,,2,,,53,59
750240,note_off,480,0,1,,,,,,,,,,,,,,,0,,,81,0
750395,note_off,0,0,3,,,,,,,,,,,,,,,2,,,57,0
750395,note_off,155,0,3,,,,,,,,,,,,,,,2,,,53,0
750480,note_on,0,0,3,,,,,,,,,,,,,,,2,,,61,60
750480,note_on,85,0,3,,,,,,,,,,,,,,,2,,,57,60
750635,note_off,155,0,3,,,,,,,,,,,,,,,2,,,57,0
750635,note_off,0,0,3,,,,,,,,,,,,,,,2,,,61,0
750720,note_on,0,0,3,,,,,,,,,,,,,,,2,,,57,60
750720,note_on,85,0,3,,,,,,,,,,,,,,,2,,,53,60
750720,note_off,480,0,1,,,,,,,,,,,,,,,0,,,81,0
750720,note_on,0,0,1,,,,,,,,,,,,,,,0,,,81,80
750875,note_off,0,0,3,,,,,,,,,,,,,,,2,,,57,0
750875,note_off,155,0,3,,,,,,,,,,,,,,,2,,,53,0
750900,set_tempo,2320,1,0,,,,,,,480000,,,,,,,,,,,,
750960,set_tempo,60,1,0,,,,,,,472440,,,,,,,,,,,,
750960,note_off,1440,0,4,,,,,,,,,,,,,,,3,,,41,0
750960,note_on,0,0,4,,,,,,,,,,,,,,,3,,,41,64
751200,note_on,325,0,3,,,,,,,,,,,,,,,2,,,53,58
751200,note_off,480,0,1,,,,,,,,,,,,,,,0,,,81,0
751200,note_on,0,0,1,,,,,,,,,,,,,,,0,,,76,73
751200,note_on,0,0,3,,,,,,,,,,,,,,,2,,,57,58
751355,note_off,0,0,3,,,,,,,,,,,,,,,2,,,57,0
751355,note_off,155,0,3,,,,,,,,,,,,,,,2,,,53,0
751380,note_on,180,0,1,,,,,,,,,,,,,,,0,,,79,69
751400,note_off,20,0,1,,,,,,,,,,,,,,,0,,,76,0
751440,note_off,40,0,1,,,,,,,,,,,,,,,0,,,79,0
751440,note_on,0,0,1,,,,,,,,,,,,,,,0,,,77,69
751440,note_on,0,0,3,,,,,,,,,,,,,,,2,,,62,55
751440,note_on,85,0,3,,,,,,,,,,,,,,,2,,,57,55
751595,note_off,155,0,3,,,,,,,,,,,,,,,2,,,57,0
751595,note_off,0,0,3,,,,,,,,,,,,,,,2,,,62,0
751680,note_on,0,0,1,,,,,,,,,,,,,,,0,,,76,65
751680,note_off,240,0,1,,,,,,,,,,,,,,,0,,,77,0
751680,note_on,85,0,3,,,,,,,,,,,,,,,2,,,57,52
751680,note_on,0,0,3,,,,,,,,,,,,,,,2,,,53,52
751835,note_off,155,0,3,,,,,,,,,,,,,,,2,,,57,0
751835,note_off,0,0,3,,,,,,,,,,,,,,,2,,,53,0
751920,note_off,240,0,1,,,,,,,,,,,,,,,0,,,76,0
751920,note_on,0,0,1,,,,,,,,,,,,,,,0,,,77,61
751920,note_on,85,0,3,,,,,,,,,,,,,,,2,,,62,48
751920,note_on,0,0,3,,,,,,,,,,,,,,,2,,,57,48
752075,note_off,0,0,3,,,,,,,,,,,,,,,2,,,57,0
752075,note_off,155,0,3,,,,,,,,,,,,,,,2,,,62,0
752160,note_on,0,0,3,,,,,,,,,,,,,,,2,,,57,45
752160,note_on,85,0,3,,,,,,,,,,,,,,,2,,,53,45
752160,note_off,240,0,1,,,,,,,,,,,,,,,0,,,77,0
752160,note_on,0,0,1,,,,,,,,,,,,,,,0,,,74,58
752300,set_tempo,1340,1,0,,,,,,,487804,,,,,,,,,,,,
752315,note_off,155,0,3,,,,,,,,,,,,,,,2,,,53,0
752315,note_off,0,0,3,,,,,,,,,,,,,,,2,,,57,0
752400,note_off,240,0,1,,,,,,,,,,,,,,,0,,,74,0
752400,note_on,0,0,1,,,,,,,,,,,,,,,0,,,72,56
752400,note_on,0,0,4,,,,,,,,,,,,,,,3,,,43,59
752400,note_off,1440,0,4,,,,,,,,,,,,,,,3,,,41,0
752420,set_tempo,120,1,0,,,,,,,472440,,,,,,,,,,,,
752520,note_on,120,0,1,,,,,,,,,,,,,,,0,,,74,57
752525,note_off,5,0,1,,,,,,,,,,,,,,,0,,,72,0
752640,note_on,325,0,3,,,,,,,,,,,,,,,2,,,55,44
752640,note_on,0,0,3,,,,,,,,,,,,,,,2,,,60,44
752640,note_on,115,0,1,,,,,,,,,,,,,,,0,,,72,58
752645,note_off,5,0,1,,,,,,,,,,,,,,,0,,,74,0
752760,note_on,115,0,1,,,,,,,,,,,,,,,0,,,71,59
752765,note_off,5,0,1,,,,,,,,,,,,,,,0,,,72,0
752795,note_off,0,0,3,,,,,,,,,,,,,,,2,,,60,0
752795,note_off,155,0,3,,,,,,,,,,,,,,,2,,,55,0
752880,note_on,0,0,3,,,,,,,,,,,,,,,2,,,60,46
752880,note_on,85,0,3,,,,,,,,,,,,,,,2,,,64,46
752885,note_off,120,0,1,,,,,,,,,,,,,,,0,,,71,0
753000,note_on,115,0,1,,,,,,,,,,,,,,,0,,,72,61
753035,note_off,0,0,3,,,,,,,,,,,,,,,2,,,60,0
753035,note_off,155,0,3,,,,,,,,,,,,,,,2,,,64,0
753120,note_on,85,0,3,,,,,,,,,,,,,,,2,,,55,49
753120,note_off,120,0,1,,,,,,,,,,,,,,,0,,,72,0
753120,note_on,0,0,3,,,,,,,,,,,,,,,2,,,60,49
753240,note_on,120,0,1,,,,,,,,,,,,,,,0,,,74,63
753275,note_off,155,0,3,,,,,,,,,,,,,,,2,,,55,0
753275,note_off,0,0,3,,,,,,,,,,,,,,,2,,,60,0
753360,note_off,120,0,1,,,,,,,,,,,,,,,0,,,74,0
753360,note_on,0,0,3,,,,,,,,,,,,,,,2,,,60,51
753360,note_on,85,0,3,,,,,,,,,,,,,,,2,,,64,51
753480,note_on,120,0,1,,,,,,,,,,,,,,,0,,,76,65
753515,note_off,155,0,3,,,,,,,,,,,,,,,2,,,64,0
753515,note_off,0,0,3,,,,,,,,,,,,,,,2,,,60,0
753600,note_on,0,0,3,,,,,,,,,,,,,,,2,,,60,53
753600,note_off,120,0,1,,,,,,,,,,,,,,,0,,,76,0
753600,note_on,85,0,3,,,,,,,,,,,,,,,2,,,55,53
753720,note_on,120,0,1,,,,,,,,,,,,,,,0,,,77,67
753755,note_off,155,0,3,,,,,,,,,,,,,,,2,,,55,0
753755,note_off,0,0,3,,,,,,,,,,,,,,,2,,,60,0
753840,note_on,85,0,3,,,,,,,,,,,,,,,2,,,64,55
753840,note_on,0,0,3,,,,,,,,,,,,,,,2,,,60,55
753840,note_off,120,0,1,,,,,,,,,,,,,,,0,,,77,0
753960,note_on,120,0,1,,,,,,,,,,,,,,,0,,,79,69
753995,note_off,0,0,3,,,,,,,,,,,,,,,2,,,60,0
753995,note_off,155,0,3,,,,,,,,,,,,,,,2,,,64,0
754080,note_on,85,0,3,,,,,,,,,,,,,,,2,,,60,58
754080,note_on,0,0,3,,,,,,,,,,,,,,,2,,,55,58
754080,note_off,120,0,1,,,,,,,,,,,,,,,0,,,79,0
754200,note_on,120,0,1,,,,,,,,,,,,,,,0,,,81,71
754235,note_off,155,0,3,,,,,,,,,,,,,,,2,,,60,0
754235,note_off,0,0,3,,,,,,,,,,,,,,,2,,,55,0
754320,note_off,120,0,1,,,,,,,,,,,,,,,0,,,81,0
754320,note_on,0,0,3,,,,,,,,,,,,,,,2,,,64,60
754320,note_on,85,0,3,,,,,,,,,,,,,,,2,,,60,60
754440,note_on,120,0,1,,,,,,,,,,,,,,,0,,,83,73
754475,note_off,0,0,3,,,,,,,,,,,,,,,2,,,64,0
754475,note_off,155,0,3,,,,,,,,,,,,,,,2,,,60,0
754560,note_on,0,0,3,,,,,,,,,,,,,,,2,,,55,62
754560,note_on,85,0,3,,,,,,,,,,,,,,,2,,,60,62
754560,note_off,120,0,1,,,,,,,,,,,,,,,0,,,83,0
754680,note_on,120,0,1,,,,,,,,,,,,,,,0,,,84,75
754715,note_off,155,0,3,,,,,,,,,,,,,,,2,,,60,0
754715,note_off,0,0,3,,,,,,,,,,,,,,,2,,,55,0
754800,note_off,120,0,1,,,,,,,,,,,,,,,0,,,84,0
754800,note_on,0,0,3,,,,,,,,,,,,,,,2,,,60,65
754800,note_on,85,0,3,,,,,,,,,,,,,,,2,,,64,65
754920,note_on,120,0,1,,,,,,,,,,,,,,,0,,,86,77
754955,note_off,0,0,3,,,,,,,,,,,,,,,2,,,60,0
754955,note_off,155,0,3,,,,,,,,,,,,,,,2,,,64,0
755040,note_off,120,0,1,,,,,,,,,,,,,,,0,,,86,0
755040,note_on,0,0,3,,,,,,,,,,,,,,,2,,,55,67
755040,set_tempo,2620,1,0,,,,,,,491803,,,,,,,,,,,,
755040,note_on,85,0,3,,,,,,,,,,,,,,,2,,,60,67
755160,note_on,120,0,1,,,,,,,,,,,,,,,0,,,88,79
755195,note_off,155,0,3,,,,,,,,,,,,,,,2,,,60,0
755195,note_off,0,0,3,,,,,,,,,,,,,,,2,,,55,0
755210,set_tempo,170,1,0,,,,,,,618556,,,,,,,,,,,,
755265,note_off,2865,0,4,,,,,,,,,,,,,,,3,,,43,0
755270,note_off,110,0,1,,,,,,,,,,,,,,,0,,,88,0
755280,set_tempo,70,1,0,,,,,,,645161,,,,,,,,,,,,
755280,note_on,10,0,1,,,,,,,,,,,,,,,0,,,86,71
755280,note_on,15,0,4,,,,,,,,,,,,,,,3,,,43,77
755310,note_on,30,0,1,,,,,,,,,,,,,,,0,,,88,74
755340,note_on,0,0,1,,,,,,,,,,,,,,,0,,,89,77
755340,note_off,30,0,1,,,,,,,,,,,,,,,0,,,86,0
755360,set_tempo,80,1,0,,,,,,,504201,,,,,,,,,,,,
755370,note_off,30,0,1,,,,,,,,,,,,,,,0,,,88,0
755520,set_tempo,160,1,0,,,,,,,487804,,,,,,,,,,,,
755520,note_on,325,0,3,,,,,,,,,,,,,,,2,,,62,63
755520,note_on,0,0,3,,,,,,,,,,,,,,,2,,,55,63
755675,note_off,155,0,3,,,,,,,,,,,,,,,2,,,62,0
755675,note_off,0,0,3,,,,,,,,,,,,,,,2,,,55,0
755760,note_on,85,0,3,,,,,,,,,,,,,,,2,,,65,59
755760,note_on,0,0,3,,,,,,,,,,,,,,,2,,,62,59
755915,note_off,155,0,3,,,,,,,,,,,,,,,2,,,65,0
755915,note_off,0,0,3,,,,,,,,,,,,,,,2,,,62,0
755995,note_off,625,0,1,,,,,,,,,,,,,,,0,,,89,0
756000,note_on,85,0,3,,,,,,,,,,,,,,,2,,,55,56
756000,note_on,0,0,3,,,,,,,,,,,,,,,2,,,62,56
756140,set_tempo,620,1,0,,,,,,,550458,,,,,,,,,,,,
756155,note_off,0,0,3,,,,,,,,,,,,,,,2,,,62,0
756155,note_off,155,0,3,,,,,,,,,,,,,,,2,,,55,0
756230,set_tempo,90,1,0,,,,,,,540540,,,,,,,,,,,,
756240,note_on,245,0,1,,,,,,,,,,,,,,,0,,,71,67
756240,note_on,0,0,3,,,,,,,,,,,,,,,2,,,62,52
756240,note_on,85,0,3,,,,,,,,,,,,,,,2,,,65,52
756395,note_off,0,0,3,,,,,,,,,,,,,,,2,,,62,0
756395,note_off,155,0,3,,,,,,,,,,,,,,,2,,,65,0
756480,note_on,85,0,3,,,,,,,,,,,,,,,2,,,55,48
756480,note_on,0,0,3,,,,,,,,,,,,,,,2,,,62,48
756600,note_off,360,0,1,,,,,,,,,,,,,,,0,,,71,0
756600,set_tempo,370,1,0,,,,,,,550458,,,,,,,,,,,,
756635,note_off,0,0,3,,,,,,,,,,,,,,,2,,,62,0
756635,note_off,155,0,3,,,,,,,,,,,,,,,2,,,55,0
756720,note_on,0,0,1,,,,,,,,,,,,,,,0,,,72,60
756720,note_off,1440,0,4,,,,,,,,,,,,,,,3,,,43,0
756720,note_on,85,0,3,,,,,,,,,,,,,,,2,,,60,45
756720,set_tempo,120,1,0,,,,,,,540540,,,,,,,,,,,,
756720,note_on,0,0,4,,,,,,,,,,,,,,,3,,,48,53
756720,note_on,120,0,1,,,,,,,,,,,,,,,0,,,64,60
757080,note_off,360,0,4,,,,,,,,,,,,,,,3,,,48,0
757080,note_off,360,0,3,,,,,,,,,,,,,,,2,,,60,0
757080,note_off,360,0,1,,,,,,,,,,,,,,,0,,,64,0
757080,note_off,0,0,1,,,,,,,,,,,,,,,0,,,72,0
757185,set_tempo,465,1,0,,,,,,,508474,,,,,,,,,,,,
757200,note_on,120,0,1,,,,,,,,,,,,,,,0,,,67,52
757680,note_on,0,0,1,,,,,,,,,,,,,,,0,,,65,51
757680,note_off,480,0,1,,,,,,,,,,,,,,,0,,,67,0
758160,note_on,0,0,1,,,,,,,,,,,,,,,0,,,64,49
758160,note_off,480,0,1,,,,,,,,,,,,,,,0,,,65,0
758640,note_off,480,0,1,,,,,,,,,,,,,,,0,,,64,0
758640,note_on,0,0,1,,,,,,,,,,,,,,,0,,,62,47
759120,note_on,0,0,1,,,,,,,,,,,,,,,0,,,60,46
759120,note_off,480,0,1,,,,,,,,,,,,,,,0,,,62,0
759540,set_tempo,2355,1,0,,,,,,,517241,,,,,,,,,,,,
759600,note_on,0,0,1,,,,,,,,,,,,,,,0,,,59,44
759600,note_off,480,0,1,,,,,,,,,,,,,,,0,,,60,0
759600,set_tempo,60,1,0,,,,,,,508474,,,,,,,,,,,,
759840,note_on,0,0,1,,,,,,,,,,,,,,,0,,,60,43
759840,note_off,240,0,1,,,,,,,,,,,,,,,0,,,59,0
760080,note_on,0,0,1,,,,,,,,,,,,,,,0,,,59,43
760080,note_off,240,0,1,,,,,,,,,,,,,,,0,,,60,0
760320,note_off,240,0,1,,,,,,,,,,,,,,,0,,,59,0
760320,note_on,0,0,1,,,,,,,,,,,,,,,0,,,60,42
760560,note_on,0,0,1,,,,,,,,,,,,,,,0,,,62,41
760560,note_off,240,0,1,,,,,,,,,,,,,,,0,,,60,0
760680,set_tempo,1080,1,0,,,,,,,517241,,,,,,,,,,,,
760800,note_on,0,0,1,,,,,,,,,,,,,,,0,,,60,40
760800,note_off,240,0,1,,,,,,,,,,,,,,,0,,,62,0
760810,set_tempo,130,1,0,,,,,,,526315,,,,,,,,,,,,
761040,note_on,34560,0,2,,,,,,,,,,,,,,,1,,,60,36
761040,note_off,240,0,1,,,,,,,,,,,,,,,0,,,60,0
761040,set_tempo,230,1,0,,,,,,,472440,,,,,,,,,,,,
761040,note_on,3960,0,4,,,,,,,,,,,,,,,3,,,38,44
761120,note_off,80,0,2,,,,,,,,,,,,,,,1,,,60,0
761120,note_on,0,0,2,,,,,,,,,,,,,,,1,,,62,36
761200,note_off,80,0,2,,,,,,,,,,,,,,,1,,,62,0
761200,note_on,0,0,2,,,,,,,,,,,,,,,1,,,60,36
761280,note_off,80,0,2,,,,,,,,,,,,,,,1,,,60,0
761280,note_on,0,0,2,,,,,,,,,,,,,,,1,,,62,36
761360,note_off,80,0,2,,,,,,,,,,,,,,,1,,,62,0
761360,note_on,0,0,2,,,,,,,,,,,,,,,1,,,60,37
761440,note_off,80,0,2,,,,,,,,,,,,,,,1,,,60,0
761440,note_on,0,0,2,,,,,,,,,,,,,,,1,,,62,37
761520,note_on,4440,0,3,,,,,,,,,,,,,,,2,,,50,42
761520,note_off,80,0,2,,,,,,,,,,,,,,,1,,,62,0
761520,note_on,0,0,2,,,,,,,,,,,,,,,1,,,60,37
761600,note_off,80,0,2,,,,,,,,,,,,,,,1,,,60,0
761600,note_on,0,0,2,,,,,,,,,,,,,,,1,,,62,38
761680,note_on,0,0,2,,,,,,,,,,,,,,,1,,,60,38
761680,note_off,80,0,2,,,,,,,,,,,,,,,1,,,62,0
761760,note_off,80,0,2,,,,,,,,,,,,,,,1,,,60,0
761760,note_on,0,0,2,,,,,,,,,,,,,,,1,,,62,38
761830,note_off,310,0,3,,,,,,,,,,,,,,,2,,,50,0
761840,note_off,80,0,2,,,,,,,,,,,,,,,1,,,62,0
761840,note_on,0,0,2,,,,,,,,,,,,,,,1,,,60,38
761920,note_off,80,0,2,,,,,,,,,,,,,,,1,,,60,0
761920,note_on,0,0,2,,,,,,,,,,,,,,,1,,,62,39
762000,note_on,170,0,3,,,,,,,,,,,,,,,2,,,57,43
762000,note_off,80,0,2,,,,,,,,,,,,,,,1,,,62,0
762000,note_on,0,0,2,,,,,,,,,,,,,,,1,,,60,39
762080,note_on,0,0,2,,,,,,,,,,,,,,,1,,,62,39
762080,note_off,80,0,2,,,,,,,,,,,,,,,1,,,60,0
762160,note_off,80,0,2,,,,,,,,,,,,,,,1,,,62,0
762160,note_on,0,0,2,,,,,,,,,,,,,,,1,,,60,39
762240,note_on,0,0,2,,,,,,,,,,,,,,,1,,,62,40
762240,note_off,80,0,2,,,,,,,,,,,,,,,1,,,60,0
762310,note_off,310,0,3,,,,,,,,,,,,,,,2,,,57,0
762315,note_off,1275,0,4,,,,,,,,,,,,,,,3,,,38,0
762320,note_off,80,0,2,,,,,,,,,,,,,,,1,,,62,0
762320,note_on,0,0,2,,,,,,,,,,,,,,,1,,,60,40
762360,set_tempo,1320,1,0,,,,,,,487804,,,,,,,,,,,,
762400,note_off,80,0,2,,,,,,,,,,,,,,,1,,,60,0
762400,note_on,0,0,2,,,,,,,,,,,,,,,1,,,62,40
762480,note_off,80,0,2,,,,,,,,,,,,,,,1,,,62,0
762480,note_on,0,0,2,,,,,,,,,,,,,,,1,,,60,40
762480,note_on,165,0,4,,,,,,,,,,,,,,,3,,,38,47
762480,set_tempo,120,1,0,,,,,,,472440,,,,,,,,,,,,
762480,note_on,1440,0,1,,,,,,,,,,,,,,,0,,,66,48
762560,note_off,80,0,2,,,,,,,,,,,,,,,1,,,60,0
762560,note_on,0,0,2,,,,,,,,,,,,,,,1,,,62,41
762640,note_on,0,0,2,,,,,,,,,,,,,,,1,,,60,41
762640,note_off,80,0,2,,,,,,,,,,,,,,,1,,,62,0
762720,note_on,0,0,2,,,,,,,,,,,,,,,1,,,62,41
762720,note_off,80,0,2,,,,,,,,,,,,,,,1,,,60,0
762800,note_off,80,0,2,,,,,,,,,,,,,,,1,,,62,0
762800,note_on,0,0,2,,,,,,,,,,,,,,,1,,,60,42
762880,note_off,80,0,2,,,,,,,,,,,,,,,1,,,60,0
762880,note_on,0,0,2,,,,,,,,,,,,,,,1,,,62,42
762960,note_off,80,0,2,,,,,,,,,,,,,,,1,,,62,0
762960,note_on,0,0,2,,,,,,,,,,,,,,,1,,,60,42
762960,note_on,650,0,3,,,,,,,,,,,,,,,2,,,50,47
763040,note_on,0,0,2,,,,,,,,,,,,,,,1,,,62,42
763040,note_off,80,0,2,,,,,,,,,,,,,,,1,,,60,0
763120,note_off,80,0,2,,,,,,,,,,,,,,,1,,,62,0
763120,note_on,0,0,2,,,,,,,,,,,,,,,1,,,60,43
763200,note_off,80,0,2,,,,,,,,,,,,,,,1,,,60,0
763200,note_on,0,0,2,,,,,,,,,,,,,,,1,,,62,43
763270,note_off,310,0,3,,,,,,,,,,,,,,,2,,,50,0
763280,note_on,0,0,2,,,,,,,,,,,,,,,1,,,60,43
763280,note_off,80,0,2,,,,,,,,,,,,,,,1,,,62,0
763360,note_on,0,0,2,,,,,,,,,,,,,,,1,,,62,43
763360,note_off,80,0,2,,,,,,,,,,,,,,,1,,,60,0
763440,note_on,0,0,2,,,,,,,,,,,,,,,1,,,60,44
763440,note_off,80,0,2,,,,,,,,,,,,,,,1,,,62,0
763440,note_on,170,0,3,,,,,,,,,,,,,,,2,,,57,48
763520,note_on,0,0,2,,,,,,,,,,,,,,,1,,,62,44
763520,note_off,80,0,2,,,,,,,,,,,,,,,1,,,60,0
763600,note_on,0,0,2,,,,,,,,,,,,,,,1,,,60,44
763600,note_off,80,0,2,,,,,,,,,,,,,,,1,,,62,0
763680,note_off,80,0,2,,,,,,,,,,,,,,,1,,,60,0
763680,note_on,0,0,2,,,,,,,,,,,,,,,1,,,62,45
763750,note_off,310,0,3,,,,,,,,,,,,,,,2,,,57,0
763760,note_off,1280,0,4,,,,,,,,,,,,,,,3,,,38,0
763760,note_on,0,0,2,,,,,,,,,,,,,,,1,,,60,45
763760,note_off,80,0,2,,,,,,,,,,,,,,,1,,,62,0
763800,set_tempo,1320,1,0,,,,,,,487804,,,,,,,,,,,,
763840,note_on,0,0,2,,,,,,,,,,,,,,,1,,,62,45
763840,note_off,80,0,2,,,,,,,,,,,,,,,1,,,60,0
763920,note_on,0,0,1,,,,,,,,,,,,,,,0,,,65,49
763920,note_off,1440,0,1,,,,,,,,,,,,,,,0,,,66,0
763920,note_on,0,0,2,,,,,,,,,,,,,,,1,,,59,43
763920,note_off,80,0,2,,,,,,,,,,,,,,,1,,,62,0
763920,note_on,160,0,4,,,,,,,,,,,,,,,3,,,43,54
763920,set_tempo,120,1,0,,,,,,,472440,,,,,,,,,,,,
764000,note_off,80,0,2,,,,,,,,,,,,,,,1,,,59,0
764000,note_on,0,0,1,,,,,,,,,,,,,,,0,,,67,48
764000,note_on,0,0,2,,,,,,,,,,,,,,,1,,,60,43
764000,note_off,80,0,1,,,,,,,,,,,,,,,0,,,65,0
764080,note_on,0,0,2,,,,,,,,,,,,,,,1,,,59,42
764080,note_on,0,0,1,,,,,,,,,,,,,,,0,,,65,47
764080,note_off,80,0,1,,,,,,,,,,,,,,,0,,,67,0
764080,note_off,80,0,2,,,,,,,,,,,,,,,1,,,60,0
764160,note_off,80,0,2,,,,,,,,,,,,,,,1,,,59,0
764160,note_on,0,0,2,,,,,,,,,,,,,,,1,,,60,42
764160,note_on,0,0,1,,,,,,,,,,,,,,,0,,,67,47
764160,note_off,80,0,1,,,,,,,,,,,,,,,0,,,65,0
764240,note_on,0,0,2,,,,,,,,,,,,,,,1,,,59,41
764240,note_on,0,0,1,,,,,,,,,,,,,,,0,,,65,46
764240,note_off,80,0,1,,,,,,,,,,,,,,,0,,,67,0
764240,note_off,80,0,2,,,,,,,,,,,,,,,1,,,60,0
764320,note_off,80,0,2,,,,,,,,,,,,,,,1,,,59,0
764320,note_on,0,0,2,,,,,,,,,,,,,,,1,,,60,41
764320,note_on,0,0,1,,,,,,,,,,,,,,,0,,,67,45
764320,note_off,80,0,1,,,,,,,,,,,,,,,0,,,65,0
764400,note_off,80,0,2,,,,,,,,,,,,,,,1,,,60,0
764400,note_on,0,0,1,,,,,,,,,,,,,,,0,,,65,44
764400,note_off,80,0,1,,,,,,,,,,,,,,,0,,,67,0
764400,note_on,650,0,3,,,,,,,,,,,,,,,2,,,50,44
764400,note_on,0,0,2,,,,,,,,,,,,,,,1,,,59,40
764480,note_off,80,0,2,,,,,,,,,,,,,,,1,,,59,0
764480,note_on,0,0,2,,,,,,,,,,,,,,,1,,,60,39
764480,note_off,80,0,1,,,,,,,,,,,,,,,0,,,65,0
764480,note_on,0,0,1,,,,,,,,,,,,,,,0,,,67,44
764560,note_off,80,0,2,,,,,,,,,,,,,,,1,,,60,0
764560,note_on,0,0,2,,,,,,,,,,,,,,,1,,,59,39
764560,note_off,80,0,1,,,,,,,,,,,,,,,0,,,67,0
764560,note_on,0,0,1,,,,,,,,,,,,,,,0,,,65,43
764640,note_on,0,0,1,,,,,,,,,,,,,,,0,,,67,42
764640,note_off,80,0,1,,,,,,,,,,,,,,,0,,,65,0
764640,note_off,80,0,2,,,,,,,,,,,,,,,1,,,59,0
764640,note_on,0,0,2,,,,,,,,,,,,,,,1,,,60,38
764710,note_off,310,0,3,,,,,,,,,,,,,,,2,,,50,0
764720,note_off,80,0,2,,,,,,,,,,,,,,,1,,,60,0
764720,note_on,0,0,2,,,,,,,,,,,,,,,1,,,59,38
764720,note_on,0,0,1,,,,,,,,,,,,,,,0,,,65,42
764720,note_off,80,0,1,,,,,,,,,,,,,,,0,,,67,0
764800,note_off,80,0,2,,,,,,,,,,,,,,,1,,,59,0
764800,note_off,80,0,1,,,,,,,,,,,,,,,0,,,65,0
764800,note_on,0,0,1,,,,,,,,,,,,,,,0,,,67,41
764800,note_on,0,0,2,,,,,,,,,,,,,,,1,,,60,37
764880,note_off,80,0,1,,,,,,,,,,,,,,,0,,,67,0
764880,note_on,0,0,1,,,,,,,,,,,,,,,0,,,65,40
764880,note_off,80,0,2,,,,,,,,,,,,,,,1,,,60,0
764880,note_on,170,0,3,,,,,,,,,,,,,,,2,,,55,41
764880,note_on,0,0,2,,,,,,,,,,,,,,,1,,,59,37
764960,note_off,80,0,1,,,,,,,,,,,,,,,0,,,65,0
764960,note_on,0,0,1,,,,,,,,,,,,,,,0,,,67,39
764960,note_off,80,0,2,,,,,,,,,,,,,,,1,,,59,0
764960,note_on,0,0,2,,,,,,,,,,,,,,,1,,,60,36
765040,note_on,0,0,2,,,,,,,,,,,,,,,1,,,59,36
765040,note_off,80,0,2,,,,,,,,,,,,,,,1,,,60,0
765040,note_on,0,0,1,,,,,,,,,,,,,,,0,,,65,39
765040,note_off,80,0,1,,,,,,,,,,,,,,,0,,,67,0
765120,note_on,0,0,2,,,,,,,,,,,,,,,1,,,60,35
765120,note_off,80,0,2,,,,,,,,,,,,,,,1,,,59,0
765120,note_off,80,0,1,,,,,,,,,,,,,,,0,,,65,0
765120,note_on,0,0,1,,,,,,,,,,,,,,,0,,,67,38
765185,note_off,1265,0,4,,,,,,,,,,,,,,,3,,,43,0
765190,note_off,310,0,3,,,,,,,,,,,,,,,2,,,55,0
765200,note_off,80,0,2,,,,,,,,,,,,,,,1,,,60,0
765200,note_on,0,0,1,,,,,,,,,,,,,,,0,,,65,37
765200,note_off,80,0,1,,,,,,,,,,,,,,,0,,,67,0
765200,note_on,0,0,2,,,,,,,,,,,,,,,1,,,59,35
765270,set_tempo,1350,1,0,,,,,,,491803,,,,,,,,,,,,
765280,note_on,0,0,1,,,,,,,,,,,,,,,0,,,67,37
765280,note_off,80,0,1,,,,,,,,,,,,,,,0,,,65,0
765280,note_off,80,0,2,,,,,,,,,,,,,,,1,,,59,0
765280,note_on,0,0,2,,,,,,,,,,,,,,,1,,,60,34
765360,note_on,175,0,4,,,,,,,,,,,,,,,3,,,36,48
765360,note_off,80,0,1,,,,,,,,,,,,,,,0,,,67,0
765360,note_off,80,0,2,,,,,,,,,,,,,,,1,,,60,0
765360,note_on,0,0,2,,,,,,,,,,,,,,,1,,,58,34
765410,set_tempo,140,1,0,,,,,,,472440,,,,,,,,,,,,
765440,note_on,0,0,2,,,,,,,,,,,,,,,1,,,60,34
765440,note_off,80,0,2,,,,,,,,,,,,,,,1,,,58,0
765520,note_on,0,0,2,,,,,,,,,,,,,,,1,,,58,35
765520,note_off,80,0,2,,,,,,,,,,,,,,,1,,,60,0
765600,note_off,80,0,2,,,,,,,,,,,,,,,1,,,58,0
765600,note_on,0,0,2,,,,,,,,,,,,,,,1,,,60,35
765680,note_off,80,0,2,,,,,,,,,,,,,,,1,,,60,0
765680,note_on,0,0,2,,,,,,,,,,,,,,,1,,,58,35
765760,note_off,80,0,2,,,,,,,,,,,,,,,1,,,58,0
765760,note_on,0,0,2,,,,,,,,,,,,,,,1,,,60,36
765840,note_on,650,0,3,,,,,,,,,,,,,,,2,,,48,44
765840,note_off,80,0,2,,,,,,,,,,,,,,,1,,,60,0
765840,note_on,0,0,2,,,,,,,,,,,,,,,1,,,58,36
765920,note_off,80,0,2,,,,,,,,,,,,,,,1,,,58,0
765920,note_on,0,0,2,,,,,,,,,,,,,,,1,,,60,37
766000,note_off,80,0,2,,,,,,,,,,,,,,,1,,,60,0
766000,note_on,0,0,2,,,,,,,,,,,,,,,1,,,58,37
766080,note_on,0,0,2,,,,,,,,,,,,,,,1,,,60,38
766080,note_off,80,0,2,,,,,,,,,,,,,,,1,,,58,0
766150,note_off,310,0,3,,,,,,,,,,,,,,,2,,,48,0
766160,note_off,80,0,2,,,,,,,,,,,,,,,1,,,60,0
766160,note_on,0,0,2,,,,,,,,,,,,,,,1,,,58,38
766240,note_off,80,0,2,,,,,,,,,,,,,,,1,,,58,0
766240,note_on,0,0,2,,,,,,,,,,,,,,,1,,,60,39
766320,note_off,80,0,2,,,,,,,,,,,,,,,1,,,60,0
766320,note_on,0,0,2,,,,,,,,,,,,,,,1,,,58,39
766320,note_on,170,0,3,,,,,,,,,,,,,,,2,,,55,47
766400,note_off,80,0,2,,,,,,,,,,,,,,,1,,,58,0
766400,note_on,0,0,2,,,,,,,,,,,,,,,1,,,60,39
766480,note_off,80,0,2,,,,,,,,,,,,,,,1,,,60,0
766480,note_on,0,0,2,,,,,,,,,,,,,,,1,,,58,40
766560,note_off,80,0,2,,,,,,,,,,,,,,,1,,,58,0
766560,note_on,0,0,2,,,,,,,,,,,,,,,1,,,60,40
766630,note_off,310,0,3,,,,,,,,,,,,,,,2,,,55,0
766635,note_off,1275,0,4,,,,,,,,,,,,,,,3,,,36,0
766640,note_off,80,0,2,,,,,,,,,,,,,,,1,,,60,0
766640,note_on,0,0,2,,,,,,,,,,,,,,,1,,,58,41
766680,set_tempo,1270,1,0,,,,,,,487804,,,,,,,,,,,,
766720,note_on,0,0,2,,,,,,,,,,,,,,,1,,,60,41
766720,note_off,80,0,2,,,,,,,,,,,,,,,1,,,58,0
766800,note_on,0,0,2,,,,,,,,,,,,,,,1,,,58,42
766800,set_tempo,120,1,0,,,,,,,472440,,,,,,,,,,,,
766800,note_on,1440,0,1,,,,,,,,,,,,,,,0,,,64,50
766800,note_on,165,0,4,,,,,,,,,,,,,,,3,,,36,54
766800,note_off,80,0,2,,,,,,,,,,,,,,,1,,,60,0
766880,note_off,80,0,2,,,,,,,,,,,,,,,1,,,58,0
766880,note_on,0,0,2,,,,,,,,,,,,,,,1,,,60,42
766960,note_off,80,0,2,,,,,,,,,,,,,,,1,,,60,0
766960,note_on,0,0,2,,,,,,,,,,,,,,,1,,,58,43
767040,note_on,0,0,2,,,,,,,,,,,,,,,1,,,60,43
767040,note_off,80,0,2,,,,,,,,,,,,,,,1,,,58,0
767120,note_off,80,0,2,,,,,,,,,,,,,,,1,,,60,0
767120,note_on,0,0,2,,,,,,,,,,,,,,,1,,,58,43
767200,note_off,80,0,2,,,,,,,,,,,,,,,1,,,58,0
767200,note_on,0,0,2,,,,,,,,,,,,,,,1,,,60,44
767280,note_off,80,0,2,,,,,,,,,,,,,,,1,,,60,0
767280,note_on,0,0,2,,,,,,,,,,,,,,,1,,,58,44
767280,note_on,650,0,3,,,,,,,,,,,,,,,2,,,48,52
767360,note_off,80,0,2,,,,,,,,,,,,,,,1,,,58,0
767360,note_on,0,0,2,,,,,,,,,,,,,,,1,,,60,45
767440,note_off,80,0,2,,,,,,,,,,,,,,,1,,,60,0
767440,note_on,0,0,2,,,,,,,,,,,,,,,1,,,58,45
767520,note_off,80,0,2,,,,,,,,,,,,,,,1,,,58,0
767520,note_on,0,0,2,,,,,,,,,,,,,,,1,,,60,46
767590,note_off,310,0,3,,,,,,,,,,,,,,,2,,,48,0
767600,note_off,80,0,2,,,,,,,,,,,,,,,1,,,60,0
767600,note_on,0,0,2,,,,,,,,,,,,,,,1,,,58,46
767680,note_on,0,0,2,,,,,,,,,,,,,,,1,,,60,47
767680,note_off,80,0,2,,,,,,,,,,,,,,,1,,,58,0
767760,note_off,80,0,2,,,,,,,,,,,,,,,1,,,60,0
767760,note_on,0,0,2,,,,,,,,,,,,,,,1,,,58,47
767760,note_on,170,0,3,,,,,,,,,,,,,,,2,,,55,55
767840,note_on,0,0,2,,,,,,,,,,,,,,,1,,,60,47
767840,note_off,80,0,2,,,,,,,,,,,,,,,1,,,58,0
767920,note_off,80,0,2,,,,,,,,,,,,,,,1,,,60,0
767920,note_on,0,0,2,,,,,,,,,,,,,,,1,,,58,48
768000,note_on,0,0,2,,,,,,,,,,,,,,,1,,,60,48
768000,note_off,80,0,2,,,,,,,,,,,,,,,1,,,58,0
768060,note_off,1260,0,4,,,,,,,,,,,,,,,3,,,36,0
768070,note_off,310,0,3,,,,,,,,,,,,,,,2,,,55,0
768080,note_on,0,0,2,,,,,,,,,,,,,,,1,,,58,49
768080,note_off,80,0,2,,,,,,,,,,,,,,,1,,,60,0
768120,set_tempo,1320,1,0,,,,,,,487804,,,,,,,,,,,,
768160,note_off,80,0,2,,,,,,,,,,,,,,,1,,,58,0
768160,note_on,0,0,2,,,,,,,,,,,,,,,1,,,60,49
768240,note_on,180,0,4,,,,,,,,,,,,,,,3,,,41,60
768240,note_on,0,0,1,,,,,,,,,,,,,,,0,,,65,50
768240,set_tempo,120,1,0,,,,,,,472440,,,,,,,,,,,,
768240,note_off,80,0,2,,,,,,,,,,,,,,,1,,,60,0
768240,note_on,0,0,2,,,,,,,,,,,,,,,1,,,57,47
768240,note_off,1440,0,1,,,,,,,,,,,,,,,0,,,64,0
768320,note_on,0,0,1,,,,,,,,,,,,,,,0,,,67,50
768320,note_off,80,0,1,,,,,,,,,,,,,,,0,,,65,0
768320,note_on,0,0,2,,,,,,,,,,,,,,,1,,,58,47
768320,note_off,80,0,2,,,,,,,,,,,,,,,1,,,57,0
768400,note_off,80,0,1,,,,,,,,,,,,,,,0,,,67,0
768400,note_on,0,0,2,,,,,,,,,,,,,,,1,,,57,47
768400,note_off,80,0,2,,,,,,,,,,,,,,,1,,,58,0
768400,note_on,0,0,1,,,,,,,,,,,,,,,0,,,65,49
768480,note_on,0,0,2,,,,,,,,,,,,,,,1,,,58,46
768480,note_off,80,0,1,,,,,,,,,,,,,,,0,,,65,0
768480,note_off,80,0,2,,,,,,,,,,,,,,,1,,,57,0
768480,note_on,0,0,1,,,,,,,,,,,,,,,0,,,67,49
768560,note_off,80,0,1,,,,,,,,,,,,,,,0,,,67,0
768560,note_on,0,0,1,,,,,,,,,,,,,,,0,,,65,48
768560,note_off,80,0,2,,,,,,,,,,,,,,,1,,,58,0
768560,note_on,0,0,2,,,,,,,,,,,,,,,1,,,57,46
768640,note_off,80,0,2,,,,,,,,,,,,,,,1,,,57,0
768640,note_on,0,0,2,,,,,,,,,,,,,,,1,,,58,46
768640,note_off,80,0,1,,,,,,,,,,,,,,,0,,,65,0
768640,note_on,0,0,1,,,,,,,,,,,,,,,0,,,67,48
768720,note_on,0,0,1,,,,,,,,,,,,,,,0,,,65,47
768720,note_off,80,0,1,,,,,,,,,,,,,,,0,,,67,0
768720,note_on,650,0,3,,,,,,,,,,,,,,,2,,,48,54
768720,note_on,0,0,2,,,,,,,,,,,,,,,1,,,57,45
768720,note_off,80,0,2,,,,,,,,,,,,,,,1,,,58,0
768800,note_on,0,0,1,,,,,,,,,,,,,,,0,,,67,47
768800,note_off,80,0,2,,,,,,,,,,,,,,,1,,,57,0
768800,note_on,0,0,2,,,,,,,,,,,,,,,1,,,58,45
768800,note_off,80,0,1,,,,,,,,,,,,,,,0,,,65,0
768880,note_on,0,0,1,,,,,,,,,,,,,,,0,,,65,46
768880,note_off,80,0,1,,,,,,,,,,,,,,,0,,,67,0
768880,note_off,80,0,2,,,,,,,,,,,,,,,1,,,58,0
768880,note_on,0,0,2,,,,,,,,,,,,,,,1,,,57,45
768960,note_off,80,0,2,,,,,,,,,,,,,,,1,,,57,0
768960,note_on,0,0,1,,,,,,,,,,,,,,,0,,,67,46
768960,note_off,80,0,1,,,,,,,,,,,,,,,0,,,65,0
768960,note_on,0,0,2,,,,,,,,,,,,,,,1,,,58,45
769030,note_off,310,0,3,,,,,,,,,,,,,,,2,,,48,0
769040,note_on,0,0,2,,,,,,,,,,,,,,,1,,,57,44
769040,note_on,0,0,1,,,,,,,,,,,,,,,0,,,65,45
769040,note_off,80,0,1,,,,,,,,,,,,,,,0,,,67,0
769040,note_off,80,0,2,,,,,,,,,,,,,,,1,,,58,0
769120,note_off,80,0,2,,,,,,,,,,,,,,,1,,,57,0
769120,note_on,0,0,2,,,,,,,,,,,,,,,1,,,58,44
769120,note_off,80,0,1,,,,,,,,,,,,,,,0,,,65,0
769120,note_on,0,0,1,,,,,,,,,,,,,,,0,,,67,45
769200,note_on,170,0,3,,,,,,,,,,,,,,,2,,,53,53
769200,note_off,80,0,1,,,,,,,,,,,,,,,0,,,67,0
769200,note_on,0,0,1,,,,,,,,,,,,,,,0,,,65,44
769200,note_off,80,0,2,,,,,,,,,,,,,,,1,,,58,0
769200,note_on,0,0,2,,,,,,,,,,,,,,,1,,,57,44
769280,note_off,80,0,1,,,,,,,,,,,,,,,0,,,65,0
769280,note_on,0,0,1,,,,,,,,,,,,,,,0,,,67,44
769280,note_off,80,0,2,,,,,,,,,,,,,,,1,,,57,0
769280,note_on,0,0,2,,,,,,,,,,,,,,,1,,,58,43
769360,note_on,0,0,2,,,,,,,,,,,,,,,1,,,57,43
769360,note_on,0,0,1,,,,,,,,,,,,,,,0,,,65,43
769360,note_off,80,0,1,,,,,,,,,,,,,,,0,,,67,0
769360,note_off,80,0,2,,,,,,,,,,,,,,,1,,,58,0
769440,note_on,0,0,2,,,,,,,,,,,,,,,1,,,58,43
769440,note_on,0,0,1,,,,,,,,,,,,,,,0,,,67,43
769440,note_off,80,0,1,,,,,,,,,,,,,,,0,,,65,0
769440,note_off,80,0,2,,,,,,,,,,,,,,,1,,,57,0
769510,note_off,310,0,3,,,,,,,,,,,,,,,2,,,53,0
769515,note_off,1275,0,4,,,,,,,,,,,,,,,3,,,41,0
769520,note_off,80,0,2,,,,,,,,,,,,,,,1,,,58,0
769520,note_on,0,0,2,,,,,,,,,,,,,,,1,,,57,42
769520,note_off,80,0,1,,,,,,,,,,,,,,,0,,,67,0
769520,note_on,0,0,1,,,,,,,,,,,,,,,0,,,65,42
769560,set_tempo,1320,1,0,,,,,,,491803,,,,,,,,,,,,
769600,note_off,80,0,1,,,,,,,,,,,,,,,0,,,65,0
769600,note_on,0,0,1,,,,,,,,,,,,,,,0,,,67,42
769600,note_on,0,0,2,,,,,,,,,,,,,,,1,,,58,42
769600,note_off,80,0,2,,,,,,,,,,,,,,,1,,,57,0
769680,note_on,0,0,1,,,,,,,,,,,,,,,0,,,69,38
769680,note_on,0,0,2,,,,,,,,,,,,,,,1,,,65,42
769680,note_on,165,0,4,,,,,,,,,,,,,,,3,,,41,56
769680,note_off,80,0,2,,,,,,,,,,,,,,,1,,,58,0
769680,note_off,80,0,1,,,,,,,,,,,,,,,0,,,67,0
769740,set_tempo,180,1,0,,,,,,,472440,,,,,,,,,,,,
769760,note_on,0,0,1,,,,,,,,,,,,,,,0,,,71,39
769760,note_off,80,0,1,,,,,,,,,,,,,,,0,,,69,0
769840,note_on,0,0,1,,,,,,,,,,,,,,,0,,,69,40
769840,note_off,80,0,1,,,,,,,,,,,,,,,0,,,71,0
769920,note_off,80,0,1,,,,,,,,,,,,,,,0,,,69,0
769920,note_on,0,0,1,,,,,,,,,,,,,,,0,,,68,42
770040,note_off,120,0,1,,,,,,,,,,,,,,,0,,,68,0
770040,note_on,0,0,1,,,,,,,,,,,,,,,0,,,69,44
770160,note_on,0,0,1,,,,,,,,,,,,,,,0,,,72,46
770160,note_on,650,0,3,,,,,,,,,,,,,,,2,,,53,52
770160,note_on,0,0,3,,,,,,,,,,,,,,,2,,,57,52
770160,note_off,480,0,2,,,,,,,,,,,,,,,1,,,65,0
770160,note_off,120,0,1,,,,,,,,,,,,,,,0,,,69,0
770160,note_on,0,0,2,,,,,,,,,,,,,,,1,,,69,46
770240,note_off,80,0,1,,,,,,,,,,,,,,,0,,,72,0
770240,note_on,0,0,1,,,,,,,,,,,,,,,0,,,74,47
770320,note_on,0,0,1,,,,,,,,,,,,,,,0,,,72,48
770320,note_off,80,0,1,,,,,,,,,,,,,,,0,,,74,0
770400,note_off,80,0,1,,,,,,,,,,,,,,,0,,,72,0
770400,note_on,0,0,1,,,,,,,,,,,,,,,0,,,71,50
770470,note_off,310,0,3,,,,,,,,,,,,,,,2,,,53,0
770470,note_off,0,0,3,,,,,,,,,,,,,,,2,,,57,0
770480,note_off,80,0,1,,,,,,,,,,,,,,,0,,,71,0
770480,note_on,0,0,1,,,,,,,,,,,,,,,0,,,72,51
770560,note_off,80,0,1,,,,,,,,,,,,,,,0,,,72,0
770640,note_on,0,0,2,,,,,,,,,,,,,,,1,,,72,53
770640,note_on,80,0,1,,,,,,,,,,,,,,,0,,,77,54
770640,note_on,0,0,3,,,,,,,,,,,,,,,2,,,60,54
770640,note_on,170,0,3,,,,,,,,,,,,,,,2,,,57,54
770640,note_off,480,0,2,,,,,,,,,,,,,,,1,,,69,0
770720,note_off,80,0,1,,,,,,,,,,,,,,,0,,,77,0
770720,note_on,0,0,1,,,,,,,,,,,,,,,0,,,79,55
770800,note_off,80,0,1,,,,,,,,,,,,,,,0,,,79,0
770800,note_on,0,0,1,,,,,,,,,,,,,,,0,,,77,57
770880,note_off,80,0,1,,,,,,,,,,,,,,,0,,,77,0
770880,note_on,0,0,1,,,,,,,,,,,,,,,0,,,76,58
770950,note_off,310,0,3,,,,,,,,,,,,,,,2,,,57,0
770950,note_off,0,0,3,,,,,,,,,,,,,,,2,,,60,0
770955,note_off,1275,0,4,,,,,,,,,,,,,,,3,,,41,0
771000,note_on,0,0,1,,,,,,,,,,,,,,,0,,,77,60
771000,set_tempo,1260,1,0,,,,,,,487804,,,,,,,,,,,,
771000,note_off,120,0,1,,,,,,,,,,,,,,,0,,,76,0
771120,note_off,120,0,1,,,,,,,,,,,,,,,0,,,77,0
771120,set_tempo,120,1,0,,,,,,,472440,,,,,,,,,,,,
771120,note_on,0,0,1,,,,,,,,,,,,,,,0,,,81,62
771120,note_off,480,0,2,,,,,,,,,,,,,,,1,,,72,0
771120,note_on,165,0,4,,,,,,,,,,,,,,,3,,,41,67
771120,note_on,0,0,2,,,,,,,,,,,,,,,1,,,77,60
771480,set_tempo,360,1,0,,,,,,,487804,,,,,,,,,,,,
771480,note_off,360,0,1,,,,,,,,,,,,,,,0,,,81,0
771600,set_tempo,120,1,0,,,,,,,472440,,,,,,,,,,,,
771600,note_on,650,0,3,,,,,,,,,,,,,,,2,,,53,59
771600,note_on,120,0,1,,,,,,,,,,,,,,,0,,,84,74
771600,note_on,0,0,3,,,,,,,,,,,,,,,2,,,57,59
771600,note_on,480,0,2,,,,,,,,,,,,,,,1,,,81,74
771640,note_off,40,0,2,,,,,,,,,,,,,,,1,,,77,0
771910,note_off,0,0,3,,,,,,,,,,,,,,,2,,,57,0
771910,note_off,310,0,3,,,,,,,,,,,,,,,2,,,53,0
772080,note_on,0,0,3,,,,,,,,,,,,,,,2,,,60,61
772080,note_on,170,0,3,,,,,,,,,,,,,,,2,,,57,61
772385,note_off,1265,0,4,,,,,,,,,,,,,,,3,,,41,0
772390,note_off,0,0,3,,,,,,,,,,,,,,,2,,,60,0
772390,note_off,310,0,3,,,,,,,,,,,,,,,2,,,57,0
772440,set_tempo,840,1,0,,,,,,,500000,,,,,,,,,,,,
772560,note_on,175,0,4,,,,,,,,,,,,,,,3,,,41,62
772560,set_tempo,120,1,0,,,,,,,472440,,,,,,,,,,,,
772680,set_tempo,120,1,0,,,,,,,487804,,,,,,,,,,,,
772800,set_tempo,120,1,0,,,,,,,472440,,,,,,,,,,,,
773040,note_off,1400,0,2,,,,,,,,,,,,,,,1,,,81,0
773040,note_on,0,0,2,,,,,,,,,,,,,,,1,,,79,63
773040,note_off,1440,0,1,,,,,,,,,,,,,,,0,,,84,0
773040,note_on,650,0,3,,,,,,,,,,,,,,,2,,,53,59
773040,note_on,0,0,3,,,,,,,,,,,,,,,2,,,57,59
773040,note_on,0,0,1,,,,,,,,,,,,,,,0,,,83,65
773280,note_on,0,0,2,,,,,,,,,,,,,,,1,,,77,62
773280,note_on,0,0,1,,,,,,,,,,,,,,,0,,,81,63
773280,note_off,240,0,1,,,,,,,,,,,,,,,0,,,83,0
773280,note_off,240,0,2,,,,,,,,,,,,,,,1,,,79,0
773350,note_off,0,0,3,,,,,,,,,,,,,,,2,,,57,0
773350,note_off,310,0,3,,,,,,,,,,,,,,,2,,,53,0
773520,note_on,0,0,3,,,,,,,,,,,,,,,2,,,62,54
773520,note_off,240,0,1,,,,,,,,,,,,,,,0,,,81,0
773520,note_on,0,0,1,,,,,,,,,,,,,,,0,,,79,61
773520,note_off,240,0,2,,,,,,,,,,,,,,,1,,,77,0
773520,note_on,170,0,3,,,,,,,,,,,,,,,2,,,57,54
773760,note_on,0,0,1,,,,,,,,,,,,,,,0,,,77,60
773760,note_off,240,0,1,,,,,,,,,,,,,,,0,,,79,0
773760,note_on,240,0,2,,,,,,,,,,,,,,,1,,,74,59
773810,note_off,1250,0,4,,,,,,,,,,,,,,,3,,,41,0
773830,note_off,0,0,3,,,,,,,,,,,,,,,2,,,62,0
773830,note_off,310,0,3,,,,,,,,,,,,,,,2,,,57,0
773880,set_tempo,1080,1,0,,,,,,,487804,,,,,,,,,,,,
774000,set_tempo,120,1,0,,,,,,,472440,,,,,,,,,,,,
774000,note_on,190,0,4,,,,,,,,,,,,,,,3,,,43,57
774000,note_on,0,0,2,,,,,,,,,,,,,,,1,,,72,57
774000,note_on,0,0,1,,,,,,,,,,,,,,,0,,,76,59
774000,note_off,240,0,1,,,,,,,,,,,,,,,0,,,77,0
774000,note_off,240,0,2,,,,,,,,,,,,,,,1,,,74,0
774155,note_off,155,0,2,,,,,,,,,,,,,,,1,,,72,0
774155,note_off,155,0,1,,,,,,,,,,,,,,,0,,,76,0
774240,note_on,85,0,1,,,,,,,,,,,,,,,0,,,75,58
774240,note_on,85,0,2,,,,,,,,,,,,,,,1,,,71,56
774480,note_on,0,0,3,,,,,,,,,,,,,,,2,,,55,52
774480,note_on,650,0,3,,,,,,,,,,,,,,,2,,,60,52
774480,note_on,0,0,2,,,,,,,,,,,,,,,1,,,72,55
774480,note_off,240,0,2,,,,,,,,,,,,,,,1,,,71,0
774480,note_off,240,0,1,,,,,,,,,,,,,,,0,,,75,0
774480,note_on,0,0,1,,,,,,,,,,,,,,,0,,,76,57
774635,note_off,155,0,1,,,,,,,,,,,,,,,0,,,76,0
774635,note_off,155,0,2,,,,,,,,,,,,,,,1,,,72,0
774720,note_on,85,0,1,,,,,,,,,,,,,,,0,,,78,56
774720,note_on,85,0,2,,,,,,,,,,,,,,,1,,,74,54
774790,note_off,310,0,3,,,,,,,,,,,,,,,2,,,60,0
774790,note_off,0,0,3,,,,,,,,,,,,,,,2,,,55,0
774960,note_off,240,0,1,,,,,,,,,,,,,,,0,,,78,0
774960,note_on,0,0,1,,,,,,,,,,,,,,,0,,,79,54
774960,note_off,240,0,2,,,,,,,,,,,,,,,1,,,74,0
774960,note_on,0,0,3,,,,,,,,,,,,,,,2,,,64,51
774960,note_on,170,0,3,,,,,,,,,,,,,,,2,,,60,51
774960,note_on,0,0,2,,,,,,,,,,,,,,,1,,,76,53
775200,note_on,0,0,1,,,,,,,,,,,,,,,0,,,76,53
775200,note_off,240,0,1,,,,,,,,,,,,,,,0,,,79,0
775200,note_off,240,0,2,,,,,,,,,,,,,,,1,,,76,0
775200,note_on,0,0,2,,,,,,,,,,,,,,,1,,,72,52
775265,note_off,1265,0,4,,,,,,,,,,,,,,,3,,,43,0
775270,note_off,310,0,3,,,,,,,,,,,,,,,2,,,60,0
775270,note_off,0,0,3,,,,,,,,,,,,,,,2,,,64,0
775320,set_tempo,1320,1,0,,,,,,,487804,,,,,,,,,,,,
775355,note_off,155,0,1,,,,,,,,,,,,,,,0,,,76,0
775355,note_off,155,0,2,,,,,,,,,,,,,,,1,,,72,0
775440,note_on,175,0,4,,,,,,,,,,,,,,,3,,,43,52
775440,set_tempo,120,1,0,,,,,,,472440,,,,,,,,,,,,
775680,note_on,325,0,2,,,,,,,,,,,,,,,1,,,71,49
775680,note_on,325,0,1,,,,,,,,,,,,,,,0,,,75,51
775920,note_on,0,0,2,,,,,,,,,,,,,,,1,,,72,48
775920,note_off,240,0,2,,,,,,,,,,,,,,,1,,,71,0
775920,note_on,0,0,1,,,,,,,,,,,,,,,0,,,76,50
775920,note_on,0,0,3,,,,,,,,,,,,,,,2,,,60,47
775920,note_on,650,0,3,,,,,,,,,,,,,,,2,,,55,47
775920,note_off,240,0,1,,,,,,,,,,,,,,,0,,,75,0
776075,note_off,155,0,1,,,,,,,,,,,,,,,0,,,76,0
776075,note_off,155,0,2,,,,,,,,,,,,,,,1,,,72,0
776160,note_on,85,0,2,,,,,,,,,,,,,,,1,,,75,47
776160,note_on,85,0,1,,,,,,,,,,,,,,,0,,,78,49
776230,note_off,310,0,3,,,,,,,,,,,,,,,2,,,55,0
776230,note_off,0,0,3,,,,,,,,,,,,,,,2,,,60,0
776400,note_on,0,0,3,,,,,,,,,,,,,,,2,,,64,45
776400,note_off,240,0,2,,,,,,,,,,,,,,,1,,,75,0
776400,note_off,240,0,1,,,,,,,,,,,,,,,0,,,78,0
776400,note_on,170,0,3,,,,,,,,,,,,,,,2,,,60,45
776400,note_on,0,0,1,,,,,,,,,,,,,,,0,,,79,48
776400,note_on,0,0,2,,,,,,,,,,,,,,,1,,,76,46
776640,note_off,240,0,1,,,,,,,,,,,,,,,0,,,79,0
776640,note_on,0,0,1,,,,,,,,,,,,,,,0,,,76,46
776640,note_off,240,0,2,,,,,,,,,,,,,,,1,,,76,0
776640,note_on,0,0,2,,,,,,,,,,,,,,,1,,,72,45
776705,note_off,1265,0,4,,,,,,,,,,,,,,,3,,,43,0
776710,note_off,0,0,3,,,,,,,,,,,,,,,2,,,64,0
776710,note_off,310,0,3,,,,,,,,,,,,,,,2,,,60,0
776760,set_tempo,1320,1,0,,,,,,,487804,,,,,,,,,,,,
776795,note_off,155,0,2,,,,,,,,,,,,,,,1,,,72,0
776795,note_off,155,0,1,,,,,,,,,,,,,,,0,,,76,0
776880,note_on,175,0,4,,,,,,,,,,,,,,,3,,,43,47
776880,set_tempo,120,1,0,,,,,,,480000,,,,,,,,,,,,
777120,note_on,325,0,2,,,,,,,,,,,,,,,1,,,70,42
777120,note_on,325,0,1,,,,,,,,,,,,,,,0,,,73,44
777360,note_on,0,0,2,,,,,,,,,,,,,,,1,,,71,41
777360,note_off,240,0,2,,,,,,,,,,,,,,,1,,,70,0
777360,note_on,650,0,3,,,,,,,,,,,,,,,2,,,55,42
777360,note_on,0,0,3,,,,,,,,,,,,,,,2,,,62,42
777360,note_off,240,0,1,,,,,,,,,,,,,,,0,,,73,0
777360,note_on,0,0,1,,,,,,,,,,,,,,,0,,,74,43
777515,note_off,155,0,2,,,,,,,,,,,,,,,1,,,71,0
777515,note_off,155,0,1,,,,,,,,,,,,,,,0,,,74,0
777600,note_on,85,0,1,,,,,,,,,,,,,,,0,,,76,42
777600,note_on,85,0,2,,,,,,,,,,,,,,,1,,,73,40
777670,note_off,0,0,3,,,,,,,,,,,,,,,2,,,62,0
777670,note_off,310,0,3,,,,,,,,,,,,,,,2,,,55,0
777840,note_off,240,0,1,,,,,,,,,,,,,,,0,,,76,0
777840,note_on,0,0,2,,,,,,,,,,,,,,,1,,,74,39
777840,note_off,240,0,2,,,,,,,,,,,,,,,1,,,73,0
777840,note_on,0,0,1,,,,,,,,,,,,,,,0,,,77,41
777840,note_on,170,0,3,,,,,,,,,,,,,,,2,,,62,40
777840,note_on,0,0,3,,,,,,,,,,,,,,,2,,,65,40
778080,note_off,240,0,1,,,,,,,,,,,,,,,0,,,77,0
778080,note_on,0,0,2,,,,,,,,,,,,,,,1,,,71,38
778080,note_off,240,0,2,,,,,,,,,,,,,,,1,,,74,0
778080,note_on,0,0,1,,,,,,,,,,,,,,,0,,,74,39
778140,note_off,1260,0,4,,,,,,,,,,,,,,,3,,,43,0
778150,note_off,310,0,3,,,,,,,,,,,,,,,2,,,62,0
778150,note_off,0,0,3,,,,,,,,,,,,,,,2,,,65,0
778200,set_tempo,1320,1,0,,,,,,,487804,,,,,,,,,,,,
778320,set_tempo,120,1,0,,,,,,,500000,,,,,,,,,,,,
778320,note_on,170,0,3,,,,,,,,,,,,,,,2,,,48,38
778320,note_off,240,0,2,,,,,,,,,,,,,,,1,,,71,0
778320,note_on,0,0,1,,,,,,,,,,,,,,,0,,,72,38
778320,note_on,180,0,4,,,,,,,,,,,,,,,3,,,36,42
778320,note_off,240,0,1,,,,,,,,,,,,,,,0,,,74,0
778630,note_off,310,0,4,,,,,,,,,,,,,,,3,,,36,0
778630,note_off,310,0,3,,,,,,,,,,,,,,,2,,,48,0
778755,set_tempo,435,1,0,,,,,,,491803,,,,,,,,,,,,
778800,note_off,480,0,1,,,,,,,,,,,,,,,0,,,72,0
778800,note_on,170,0,4,,,,,,,,,,,,,,,3,,,55,43
779280,note_off,480,0,4,,,,,,,,,,,,,,,3,,,55,0
779280,note_on,0,0,4,,,,,,,,,,,,,,,3,,,53,42
779760,note_off,480,0,4,,,,,,,,,,,,,,,3,,,53,0
779760,note_on,0,0,4,,,,,,,,,,,,,,,3,,,52,41
780240,note_off,480,0,4,,,,,,,,,,,,,,,3,,,52,0
780240,note_on,0,0,4,,,,,,,,,,,,,,,3,,,50,40
780720,note_off,480,0,4,,,,,,,,,,,,,,,3,,,50,0
780720,note_on,0,0,4,,,,,,,,,,,,,,,3,,,48,39
781080,set_tempo,2325,1,0,,,,,,,500000,,,,,,,,,,,,
781200,set_tempo,120,1,0,,,,,,,495867,,,,,,,,,,,,
781200,note_on,0,0,4,,,,,,,,,,,,,,,3,,,47,38
781200,note_off,480,0,4,,,,,,,,,,,,,,,3,,,48,0
781440,note_on,0,0,4,,,,,,,,,,,,,,,3,,,48,37
781440,note_off,240,0,4,,,,,,,,,,,,,,,3,,,47,0
781680,note_off,240,0,4,,,,,,,,,,,,,,,3,,,48,0
781680,note_on,0,0,4,,,,,,,,,,,,,,,3,,,47,36
781920,note_off,240,0,4,,,,,,,,,,,,,,,3,,,47,0
781920,note_on,0,0,4,,,,,,,,,,,,,,,3,,,48,35
782160,note_off,240,0,4,,,,,,,,,,,,,,,3,,,48,0
782160,note_on,0,0,4,,,,,,,,,,,,,,,3,,,50,35
782280,set_tempo,1080,1,0,,,,,,,500000,,,,,,,,,,,,
782400,note_off,240,0,4,,,,,,,,,,,,,,,3,,,50,0
782400,note_on,0,0,4,,,,,,,,,,,,,,,3,,,48,34
782520,set_tempo,240,1,0,,,,,,,517241,,,,,,,,,,,,
782640,note_on,0,0,4,,,,,,,,,,,,,,,3,,,48,32
782640,control_change,3840,0,1,,,,,,,,,,,,,64,0,0,,,,
782640,note_off,240,0,4,,,,,,,,,,,,,,,3,,,48,0
782700,set_tempo,180,1,0,,,,,,,472440,,,,,,,,,,,,
782720,note_on,80,0,4,,,,,,,,,,,,,,,3,,,50,33
782785,note_off,65,0,4,,,,,,,,,,,,,,,3,,,48,0
782800,note_on,15,0,4,,,,,,,,,,,,,,,3,,,48,33
782865,note_off,65,0,4,,,,,,,,,,,,,,,3,,,50,0
782880,note_on,15,0,4,,,,,,,,,,,,,,,3,,,50,34
782945,note_off,65,0,4,,,,,,,,,,,,,,,3,,,48,0
782960,note_on,15,0,4,,,,,,,,,,,,,,,3,,,48,35
783025,note_off,65,0,4,,,,,,,,,,,,,,,3,,,50,0
783040,note_on,15,0,4,,,,,,,,,,,,,,,3,,,50,35
783105,note_off,65,0,4,,,,,,,,,,,,,,,3,,,48,0
783120,note_on,15,0,4,,,,,,,,,,,,,,,3,,,48,36
783120,note_on,480,0,1,,,,,,,,,,,,,,,0,,,66,44
783185,note_off,65,0,4,,,,,,,,,,,,,,,3,,,50,0
783200,note_on,15,0,4,,,,,,,,,,,,,,,3,,,50,37
783265,note_off,65,0,4,,,,,,,,,,,,,,,3,,,48,0
783280,note_on,15,0,4,,,,,,,,,,,,,,,3,,,48,37
783345,note_off,65,0,4,,,,,,,,,,,,,,,3,,,50,0
783360,note_on,15,0,4,,,,,,,,,,,,,,,3,,,50,38
783425,note_off,65,0,4,,,,,,,,,,,,,,,3,,,48,0
783430,note_off,310,0,1,,,,,,,,,,,,,,,0,,,66,0
783440,note_on,15,0,4,,,,,,,,,,,,,,,3,,,48,38
783505,note_off,65,0,4,,,,,,,,,,,,,,,3,,,50,0
783520,note_on,15,0,4,,,,,,,,,,,,,,,3,,,50,39
783585,note_off,65,0,4,,,,,,,,,,,,,,,3,,,48,0
783600,note_on,15,0,4,,,,,,,,,,,,,,,3,,,48,40
783600,note_on,170,0,1,,,,,,,,,,,,,,,0,,,69,49
783665,note_off,65,0,4,,,,,,,,,,,,,,,3,,,50,0
783680,note_on,15,0,4,,,,,,,,,,,,,,,3,,,50,40
783745,note_off,65,0,4,,,,,,,,,,,,,,,3,,,48,0
783760,note_on,15,0,4,,,,,,,,,,,,,,,3,,,48,41
783825,note_off,65,0,4,,,,,,,,,,,,,,,3,,,50,0
783840,note_on,15,0,4,,,,,,,,,,,,,,,3,,,50,42
783905,note_off,65,0,4,,,,,,,,,,,,,,,3,,,48,0
783910,note_off,310,0,1,,,,,,,,,,,,,,,0,,,69,0
783920,note_on,15,0,4,,,,,,,,,,,,,,,3,,,48,42
783985,note_off,65,0,4,,,,,,,,,,,,,,,3,,,50,0
784000,note_on,15,0,4,,,,,,,,,,,,,,,3,,,50,43
784065,note_off,65,0,4,,,,,,,,,,,,,,,3,,,48,0
784080,note_on,15,0,4,,,,,,,,,,,,,,,3,,,48,44
784080,note_on,170,0,1,,,,,,,,,,,,,,,0,,,74,54
784145,note_off,65,0,4,,,,,,,,,,,,,,,3,,,50,0
784160,note_on,15,0,4,,,,,,,,,,,,,,,3,,,50,44
784225,note_off,65,0,4,,,,,,,,,,,,,,,3,,,48,0
784240,note_on,15,0,4,,,,,,,,,,,,,,,3,,,48,45
784305,note_off,65,0,4,,,,,,,,,,,,,,,3,,,50,0
784320,note_on,15,0,4,,,,,,,,,,,,,,,3,,,50,46
784385,note_off,65,0,4,,,,,,,,,,,,,,,3,,,48,0
784390,note_off,310,0,1,,,,,,,,,,,,,,,0,,,74,0
784400,note_on,15,0,4,,,,,,,,,,,,,,,3,,,48,46
784465,note_off,65,0,4,,,,,,,,,,,,,,,3,,,50,0
784480,note_on,15,0,4,,,,,,,,,,,,,,,3,,,50,47
784545,note_off,65,0,4,,,,,,,,,,,,,,,3,,,48,0
784560,note_on,170,0,1,,,,,,,,,,,,,,,0,,,78,60
784560,note_on,15,0,4,,,,,,,,,,,,,,,3,,,48,47
784625,note_off,65,0,4,,,,,,,,,,,,,,,3,,,50,0
784640,note_on,15,0,4,,,,,,,,,,,,,,,3,,,50,48
784705,note_off,65,0,4,,,,,,,,,,,,,,,3,,,48,0
784720,note_on,15,0,4,,,,,,,,,,,,,,,3,,,48,49
784785,note_off,65,0,4,,,,,,,,,,,,,,,3,,,50,0
784800,note_on,15,0,4,,,,,,,,,,,,,,,3,,,50,49
784865,note_off,65,0,4,,,,,,,,,,,,,,,3,,,48,0
784870,note_off,310,0,1,,,,,,,,,,,,,,,0,,,78,0
784880,note_on,15,0,4,,,,,,,,,,,,,,,3,,,48,51
784945,note_off,65,0,4,,,,,,,,,,,,,,,3,,,50,0
784960,note_on,15,0,4,,,,,,,,,,,,,,,3,,,50,53
785025,note_off,65,0,4,,,,,,,,,,,,,,,3,,,48,0
785040,note_on,170,0,1,,,,,,,,,,,,,,,0,,,81,68
785040,note_on,15,0,4,,,,,,,,,,,,,,,3,,,48,54
785105,note_off,65,0,4,,,,,,,,,,,,,,,3,,,50,0
785120,note_on,15,0,4,,,,,,,,,,,,,,,3,,,50,55
785185,note_off,65,0,4,,,,,,,,,,,,,,,3,,,48,0
785200,note_on,15,0,4,,,,,,,,,,,,,,,3,,,48,57
785260,note_off,60,0,4,,,,,,,,,,,,,,,3,,,50,0
785280,note_on,20,0,4,,,,,,,,,,,,,,,3,,,47,58
785350,note_off,310,0,1,,,,,,,,,,,,,,,0,,,81,0
785385,note_off,105,0,4,,,,,,,,,,,,,,,3,,,48,0
785400,set_tempo,2700,1,0,,,,,,,487804,,,,,,,,,,,,
785400,note_on,15,0,4,,,,,,,,,,,,,,,3,,,48,60
785465,note_off,65,0,4,,,,,,,,,,,,,,,3,,,47,0
785520,note_on,170,0,1,,,,,,,,,,,,,,,0,,,86,71
785520,note_on,55,0,4,,,,,,,,,,,,,,,3,,,47,68
785520,note_on,7200,0,2,,,,,,,,,,,,,,,1,,,79,70
785570,note_off,50,0,4,,,,,,,,,,,,,,,3,,,48,0
785600,note_on,0,0,1,,,,,,,,,,,,,,,0,,,88,70
785600,note_off,80,0,1,,,,,,,,,,,,,,,0,,,86,0
785640,set_tempo,240,1,0,,,,,,,472440,,,,,,,,,,,,
785680,note_off,80,0,1,,,,,,,,,,,,,,,0,,,88,0
785680,note_on,0,0,1,,,,,,,,,,,,,,,0,,,86,68
785760,note_off,80,0,1,,,,,,,,,,,,,,,0,,,86,0
785760,note_on,0,0,1,,,,,,,,,,,,,,,0,,,88,67
785840,note_off,80,0,1,,,,,,,,,,,,,,,0,,,88,0
785840,note_on,0,0,1,,,,,,,,,,,,,,,0,,,86,65
785920,note_off,80,0,1,,,,,,,,,,,,,,,0,,,86,0
785920,note_on,0,0,1,,,,,,,,,,,,,,,0,,,88,64
786000,note_off,80,0,1,,,,,,,,,,,,,,,0,,,88,0
786000,note_on,0,0,1,,,,,,,,,,,,,,,0,,,86,62
786080,note_off,80,0,1,,,,,,,,,,,,,,,0,,,86,0
786080,note_on,0,0,1,,,,,,,,,,,,,,,0,,,88,61
786160,note_off,80,0,1,,,,,,,,,,,,,,,0,,,88,0
786160,note_on,0,0,1,,,,,,,,,,,,,,,0,,,86,59
786240,note_off,80,0,1,,,,,,,,,,,,,,,0,,,86,0
786240,note_on,0,0,1,,,,,,,,,,,,,,,0,,,88,58
786320,note_off,80,0,1,,,,,,,,,,,,,,,0,,,88,0
786320,note_on,0,0,1,,,,,,,,,,,,,,,0,,,86,56
786400,note_on,0,0,1,,,,,,,,,,,,,,,0,,,88,55
786400,note_off,80,0,1,,,,,,,,,,,,,,,0,,,86,0
786480,note_off,80,0,1,,,,,,,,,,,,,,,0,,,88,0
786480,note_on,0,0,1,,,,,,,,,,,,,,,0,,,86,54
786560,note_off,80,0,1,,,,,,,,,,,,,,,0,,,86,0
786560,note_on,0,0,1,,,,,,,,,,,,,,,0,,,88,52
786640,note_off,80,0,1,,,,,,,,,,,,,,,0,,,88,0
786640,note_on,0,0,1,,,,,,,,,,,,,,,0,,,86,51
786720,note_off,80,0,1,,,,,,,,,,,,,,,0,,,86,0
786720,note_on,0,0,1,,,,,,,,,,,,,,,0,,,85,50
786840,set_tempo,1200,1,0,,,,,,,487804,,,,,,,,,,,,
786840,note_off,120,0,1,,,,,,,,,,,,,,,0,,,85,0
786840,note_on,0,0,1,,,,,,,,,,,,,,,0,,,86,48
786960,note_off,120,0,1,,,,,,,,,,,,,,,0,,,86,0
786960,note_off,1390,0,4,,,,,,,,,,,,,,,3,,,47,0
786960,note_on,0,0,4,,,,,,,,,,,,,,,3,,,46,38
786960,note_off,1440,0,2,,,,,,,,,,,,,,,1,,,79,0
787010,set_tempo,170,1,0,,,,,,,472440,,,,,,,,,,,,
787040,note_on,80,0,4,,,,,,,,,,,,,,,3,,,48,39
787105,note_off,65,0,4,,,,,,,,,,,,,,,3,,,46,0
787120,note_on,15,0,4,,,,,,,,,,,,,,,3,,,46,40
787185,note_off,65,0,4,,,,,,,,,,,,,,,3,,,48,0
787200,note_on,15,0,4,,,,,,,,,,,,,,,3,,,48,41
787265,note_off,65,0,4,,,,,,,,,,,,,,,3,,,46,0
787280,note_on,15,0,4,,,,,,,,,,,,,,,3,,,46,41
787345,note_off,65,0,4,,,,,,,,,,,,,,,3,,,48,0
787360,note_on,15,0,4,,,,,,,,,,,,,,,3,,,48,42
787425,note_off,65,0,4,,,,,,,,,,,,,,,3,,,46,0
787440,note_on,15,0,4,,,,,,,,,,,,,,,3,,,46,43
787440,note_on,480,0,1,,,,,,,,,,,,,,,0,,,64,50
787505,note_off,65,0,4,,,,,,,,,,,,,,,3,,,48,0
787520,note_on,15,0,4,,,,,,,,,,,,,,,3,,,48,44
787585,note_off,65,0,4,,,,,,,,,,,,,,,3,,,46,0
787600,note_on,15,0,4,,,,,,,,,,,,,,,3,,,46,44
787665,note_off,65,0,4,,,,,,,,,,,,,,,3,,,48,0
787680,note_on,15,0,4,,,,,,,,,,,,,,,3,,,48,45
787745,note_off,65,0,4,,,,,,,,,,,,,,,3,,,46,0
787750,note_off,310,0,1,,,,,,,,,,,,,,,0,,,64,0
787760,note_on,15,0,4,,,,,,,,,,,,,,,3,,,46,46
787825,note_off,65,0,4,,,,,,,,,,,,,,,3,,,48,0
787840,note_on,15,0,4,,,,,,,,,,,,,,,3,,,48,47
787905,note_off,65,0,4,,,,,,,,,,,,,,,3,,,46,0
787920,note_on,15,0,4,,,,,,,,,,,,,,,3,,,46,48
787920,note_on,170,0,1,,,,,,,,,,,,,,,0,,,67,56
787985,note_off,65,0,4,,,,,,,,,,,,,,,3,,,48,0
788000,note_on,15,0,4,,,,,,,,,,,,,,,3,,,48,48
788065,note_off,65,0,4,,,,,,,,,,,,,,,3,,,46,0
788080,note_on,15,0,4,,,,,,,,,,,,,,,3,,,46,49
788145,note_off,65,0,4,,,,,,,,,,,,,,,3,,,48,0
788160,note_on,15,0,4,,,,,,,,,,,,,,,3,,,48,50
788225,note_off,65,0,4,,,,,,,,,,,,,,,3,,,46,0
788230,note_off,310,0,1,,,,,,,,,,,,,,,0,,,67,0
788240,note_on,15,0,4,,,,,,,,,,,,,,,3,,,46,51
788305,note_off,65,0,4,,,,,,,,,,,,,,,3,,,48,0
788320,note_on,15,0,4,,,,,,,,,,,,,,,3,,,48,52
788385,note_off,65,0,4,,,,,,,,,,,,,,,3,,,46,0
788400,note_on,170,0,1,,,,,,,,,,,,,,,0,,,72,62
788400,note_on,15,0,4,,,,,,,,,,,,,,,3,,,46,52
788465,note_off,65,0,4,,,,,,,,,,,,,,,3,,,48,0
788480,note_on,15,0,4,,,,,,,,,,,,,,,3,,,48,53
788545,note_off,65,0,4,,,,,,,,,,,,,,,3,,,46,0
788560,note_on,15,0,4,,,,,,,,,,,,,,,3,,,46,54
788625,note_off,65,0,4,,,,,,,,,,,,,,,3,,,48,0
788640,note_on,15,0,4,,,,,,,,,,,,,,,3,,,48,55
788705,note_off,65,0,4,,,,,,,,,,,,,,,3,,,46,0
788710,note_off,310,0,1,,,,,,,,,,,,,,,0,,,72,0
788720,note_on,15,0,4,,,,,,,,,,,,,,,3,,,46,56
788785,note_off,65,0,4,,,,,,,,,,,,,,,3,,,48,0
788800,note_on,15,0,4,,,,,,,,,,,,,,,3,,,48,56
788865,note_off,65,0,4,,,,,,,,,,,,,,,3,,,46,0
788880,note_on,15,0,4,,,,,,,,,,,,,,,3,,,46,57
788880,note_on,170,0,1,,,,,,,,,,,,,,,0,,,76,67
788945,note_off,65,0,4,,,,,,,,,,,,,,,3,,,48,0
788960,note_on,15,0,4,,,,,,,,,,,,,,,3,,,48,58
789025,note_off,65,0,4,,,,,,,,,,,,,,,3,,,46,0
789040,note_on,15,0,4,,,,,,,,,,,,,,,3,,,46,59
789105,note_off,65,0,4,,,,,,,,,,,,,,,3,,,48,0
789120,note_on,15,0,4,,,,,,,,,,,,,,,3,,,48,60
789185,note_off,65,0,4,,,,,,,,,,,,,,,3,,,46,0
789190,note_off,310,0,1,,,,,,,,,,,,,,,0,,,76,0
789200,note_on,15,0,4,,,,,,,,,,,,,,,3,,,46,61
789265,note_off,65,0,4,,,,,,,,,,,,,,,3,,,48,0
789280,note_on,15,0,4,,,,,,,,,,,,,,,3,,,48,63
789345,note_off,65,0,4,,,,,,,,,,,,,,,3,,,46,0
789360,note_on,170,0,1,,,,,,,,,,,,,,,0,,,79,73
789360,note_on,15,0,4,,,,,,,,,,,,,,,3,,,46,64
789425,note_off,65,0,4,,,,,,,,,,,,,,,3,,,48,0
789440,note_on,15,0,4,,,,,,,,,,,,,,,3,,,48,66
789505,note_off,65,0,4,,,,,,,,,,,,,,,3,,,46,0
789520,note_on,15,0,4,,,,,,,,,,,,,,,3,,,46,67
789585,note_off,65,0,4,,,,,,,,,,,,,,,3,,,48,0
789600,note_on,15,0,4,,,,,,,,,,,,,,,3,,,45,69
789665,note_off,65,0,4,,,,,,,,,,,,,,,3,,,46,0
789670,note_off,310,0,1,,,,,,,,,,,,,,,0,,,79,0
789720,note_on,55,0,4,,,,,,,,,,,,,,,3,,,46,71
789720,set_tempo,2710,1,0,,,,,,,487804,,,,,,,,,,,,
789780,note_off,60,0,4,,,,,,,,,,,,,,,3,,,45,0
789840,note_on,60,0,4,,,,,,,,,,,,,,,3,,,45,74
789840,note_on,2880,0,2,,,,,,,,,,,,,,,1,,,77,73
789840,note_on,170,0,1,,,,,,,,,,,,,,,0,,,84,76
789905,note_off,65,0,4,,,,,,,,,,,,,,,3,,,46,0
789920,note_on,0,0,1,,,,,,,,,,,,,,,0,,,86,74
789920,note_off,80,0,1,,,,,,,,,,,,,,,0,,,84,0
789960,set_tempo,240,1,0,,,,,,,472440,,,,,,,,,,,,
790000,note_on,0,0,1,,,,,,,,,,,,,,,0,,,84,72
790000,note_off,80,0,1,,,,,,,,,,,,,,,0,,,86,0
790080,note_on,0,0,1,,,,,,,,,,,,,,,0,,,86,70
790080,note_off,80,0,1,,,,,,,,,,,,,,,0,,,84,0
790160,note_off,80,0,1,,,,,,,,,,,,,,,0,,,86,0
790160,note_on,0,0,1,,,,,,,,,,,,,,,0,,,84,69
790240,note_on,0,0,1,,,,,,,,,,,,,,,0,,,86,67
790240,note_off,80,0,1,,,,,,,,,,,,,,,0,,,84,0
790320,note_off,80,0,1,,,,,,,,,,,,,,,0,,,86,0
790320,note_on,0,0,1,,,,,,,,,,,,,,,0,,,84,66
790400,note_off,80,0,1,,,,,,,,,,,,,,,0,,,84,0
790400,note_on,0,0,1,,,,,,,,,,,,,,,0,,,86,65
790480,note_off,80,0,1,,,,,,,,,,,,,,,0,,,86,0
790480,note_on,0,0,1,,,,,,,,,,,,,,,0,,,84,64
790560,note_on,0,0,1,,,,,,,,,,,,,,,0,,,86,63
790560,note_off,80,0,1,,,,,,,,,,,,,,,0,,,84,0
790640,note_on,0,0,1,,,,,,,,,,,,,,,0,,,84,61
790640,note_off,80,0,1,,,,,,,,,,,,,,,0,,,86,0
790720,note_on,0,0,1,,,,,,,,,,,,,,,0,,,86,60
790720,note_off,80,0,1,,,,,,,,,,,,,,,0,,,84,0
790800,note_off,80,0,1,,,,,,,,,,,,,,,0,,,86,0
790800,note_on,0,0,1,,,,,,,,,,,,,,,0,,,84,59
790880,note_on,0,0,1,,,,,,,,,,,,,,,0,,,86,58
790880,note_off,80,0,1,,,,,,,,,,,,,,,0,,,84,0
790960,note_on,0,0,1,,,,,,,,,,,,,,,0,,,84,57
790960,note_off,80,0,1,,,,,,,,,,,,,,,0,,,86,0
791040,note_on,0,0,1,,,,,,,,,,,,,,,0,,,83,55
791040,set_tempo,1080,1,0,,,,,,,476190,,,,,,,,,,,,
791040,note_off,80,0,1,,,,,,,,,,,,,,,0,,,84,0
791160,set_tempo,120,1,0,,,,,,,487804,,,,,,,,,,,,
791160,note_on,0,0,1,,,,,,,,,,,,,,,0,,,84,54
791160,note_off,120,0,1,,,,,,,,,,,,,,,0,,,83,0
791280,note_on,0,0,1,,,,,,,,,,,,,,,0,,,84,52
791280,note_on,0,0,4,,,,,,,,,,,,,,,3,,,41,52
791280,note_off,120,0,1,,,,,,,,,,,,,,,0,,,84,0
791280,note_off,1440,0,2,,,,,,,,,,,,,,,1,,,77,0
791280,note_off,1375,0,4,,,,,,,,,,,,,,,3,,,45,0
791280,note_on,0,0,2,,,,,,,,,,,,,,,1,,,81,52
791410,set_tempo,250,1,0,,,,,,,472440,,,,,,,,,,,,
791460,note_off,180,0,2,,,,,,,,,,,,,,,1,,,81,0
791460,note_off,180,0,1,,,,,,,,,,,,,,,0,,,84,0
791520,note_on,60,0,2,,,,,,,,,,,,,,,1,,,81,54
791520,note_on,60,0,1,,,,,,,,,,,,,,,0,,,89,52
791760,note_on,480,0,4,,,,,,,,,,,,,,,3,,,45,54
792000,note_on,0,0,1,,,,,,,,,,,,,,,0,,,89,56
792000,note_on,0,0,2,,,,,,,,,,,,,,,1,,,81,57
792000,note_off,480,0,1,,,,,,,,,,,,,,,0,,,89,0
792000,note_off,480,0,2,,,,,,,,,,,,,,,1,,,81,0
792240,note_on,0,0,4,,,,,,,,,,,,,,,3,,,48,57
792240,note_off,480,0,4,,,,,,,,,,,,,,,3,,,45,0
792480,note_on,0,0,2,,,,,,,,,,,,,,,1,,,81,59
792480,note_off,480,0,1,,,,,,,,,,,,,,,0,,,89,0
792480,note_on,0,0,1,,,,,,,,,,,,,,,0,,,89,59
792480,note_off,480,0,2,,,,,,,,,,,,,,,1,,,81,0
792720,note_on,0,0,4,,,,,,,,,,,,,,,3,,,53,59
792720,note_off,480,0,4,,,,,,,,,,,,,,,3,,,48,0
792960,note_on,0,0,1,,,,,,,,,,,,,,,0,,,89,62
792960,note_off,480,0,1,,,,,,,,,,,,,,,0,,,89,0
792960,note_off,480,0,2,,,,,,,,,,,,,,,1,,,81,0
792960,note_on,0,0,2,,,,,,,,,,,,,,,1,,,81,61
793200,note_on,480,0,4,,,,,,,,,,,,,,,3,,,57,62
793440,note_off,480,0,1,,,,,,,,,,,,,,,0,,,89,0
793440,note_on,0,0,1,,,,,,,,,,,,,,,0,,,89,65
793440,note_on,0,0,2,,,,,,,,,,,,,,,1,,,81,64
793440,note_off,480,0,2,,,,,,,,,,,,,,,1,,,81,0
793680,note_on,0,0,4,,,,,,,,,,,,,,,3,,,61,65
793680,note_off,480,0,4,,,,,,,,,,,,,,,3,,,57,0
793920,note_off,480,0,1,,,,,,,,,,,,,,,0,,,89,0
793920,note_on,0,0,1,,,,,,,,,,,,,,,0,,,89,69
793920,note_off,480,0,2,,,,,,,,,,,,,,,1,,,81,0
793920,note_on,0,0,2,,,,,,,,,,,,,,,1,,,81,66
794160,note_off,480,0,4,,,,,,,,,,,,,,,3,,,61,0
794160,note_on,0,0,4,,,,,,,,,,,,,,,3,,,62,67
794280,set_tempo,2870,1,0,,,,,,,487804,,,,,,,,,,,,
794400,set_tempo,120,1,0,,,,,,,472440,,,,,,,,,,,,
794400,note_off,480,0,1,,,,,,,,,,,,,,,0,,,89,0
794400,note_off,480,0,2,,,,,,,,,,,,,,,1,,,81,0
794400,note_on,0,0,2,,,,,,,,,,,,,,,1,,,81,69
794400,note_on,0,0,1,,,,,,,,,,,,,,,0,,,89,72
794640,note_off,480,0,4,,,,,,,,,,,,,,,3,,,62,0
794640,note_on,0,0,4,,,,,,,,,,,,,,,3,,,64,72
794880,note_off,480,0,2,,,,,,,,,,,,,,,1,,,81,0
794880,note_on,0,0,1,,,,,,,,,,,,,,,0,,,88,71
794880,note_off,480,0,1,,,,,,,,,,,,,,,0,,,89,0
794880,note_on,0,0,2,,,,,,,,,,,,,,,1,,,79,66
795120,note_off,480,0,4,,,,,,,,,,,,,,,3,,,64,0
795120,note_on,0,0,4,,,,,,,,,,,,,,,3,,,65,69
795360,note_on,0,0,2,,,,,,,,,,,,,,,1,,,77,64
795360,note_off,480,0,1,,,,,,,,,,,,,,,0,,,88,0
795360,note_on,0,0,1,,,,,,,,,,,,,,,0,,,86,68
795360,note_off,480,0,2,,,,,,,,,,,,,,,1,,,79,0
795480,set_tempo,1080,1,0,,,,,,,487804,,,,,,,,,,,,
795600,note_on,0,0,4,,,,,,,,,,,,,,,3,,,67,64
795600,note_off,480,0,4,,,,,,,,,,,,,,,3,,,53,0
795600,note_off,0,0,4,,,,,,,,,,,,,,,3,,,65,0
795600,note_on,0,0,4,,,,,,,,,,,,,,,3,,,55,64
795600,note_off,240,0,1,,,,,,,,,,,,,,,0,,,86,0
795600,note_on,0,0,1,,,,,,,,,,,,,,,0,,,84,67
795600,note_off,240,0,2,,,,,,,,,,,,,,,1,,,77,0
795600,note_on,0,0,2,,,,,,,,,,,,,,,1,,,76,62
795615,note_off,15,0,4,,,,,,,,,,,,,,,3,,,41,0
795660,set_tempo,180,1,0,,,,,,,472440,,,,,,,,,,,,
795755,note_off,155,0,1,,,,,,,,,,,,,,,0,,,84,0
795755,note_off,155,0,2,,,,,,,,,,,,,,,1,,,76,0
795840,note_on,85,0,1,,,,,,,,,,,,,,,0,,,78,65
795840,note_on,85,0,2,,,,,,,,,,,,,,,1,,,75,61
796080,note_on,0,0,2,,,,,,,,,,,,,,,1,,,76,59
796080,note_off,240,0,1,,,,,,,,,,,,,,,0,,,78,0
796080,note_on,0,0,1,,,,,,,,,,,,,,,0,,,79,64
796080,note_off,240,0,2,,,,,,,,,,,,,,,1,,,75,0
796235,note_off,155,0,1,,,,,,,,,,,,,,,0,,,79,0
796235,note_off,155,0,2,,,,,,,,,,,,,,,1,,,76,0
796320,note_on,85,0,1,,,,,,,,,,,,,,,0,,,75,62
796320,note_on,85,0,2,,,,,,,,,,,,,,,1,,,66,58
796560,note_off,945,0,4,,,,,,,,,,,,,,,3,,,67,0
796560,note_off,240,0,1,,,,,,,,,,,,,,,0,,,75,0
796560,note_on,0,0,2,,,,,,,,,,,,,,,1,,,67,57
796560,note_off,240,0,2,,,,,,,,,,,,,,,1,,,66,0
796560,note_on,0,0,1,,,,,,,,,,,,,,,0,,,76,61
796560,note_off,0,0,4,,,,,,,,,,,,,,,3,,,55,0
796800,note_off,240,0,2,,,,,,,,,,,,,,,1,,,67,0
796800,note_on,0,0,2,,,,,,,,,,,,,,,1,,,64,55
796800,note_off,240,0,1,,,,,,,,,,,,,,,0,,,76,0
796800,note_on,0,0,1,,,,,,,,,,,,,,,0,,,72,60
796920,set_tempo,1260,1,0,,,,,,,487804,,,,,,,,,,,,
796955,note_off,155,0,2,,,,,,,,,,,,,,,1,,,64,0
796955,note_off,155,0,1,,,,,,,,,,,,,,,0,,,72,0
797040,note_on,480,0,4,,,,,,,,,,,,,,,3,,,43,59
797040,set_tempo,120,1,0,,,,,,,472440,,,,,,,,,,,,
797040,note_on,0,0,4,,,,,,,,,,,,,,,3,,,55,59
797280,note_on,325,0,2,,,,,,,,,,,,,,,1,,,63,52
797280,note_on,325,0,1,,,,,,,,,,,,,,,0,,,66,57
797520,note_off,240,0,1,,,,,,,,,,,,,,,0,,,66,0
797520,note_on,0,0,2,,,,,,,,,,,,,,,1,,,64,51
797520,note_off,240,0,2,,,,,,,,,,,,,,,1,,,63,0
797520,note_on,0,0,1,,,,,,,,,,,,,,,0,,,67,55
797675,note_off,155,0,1,,,,,,,,,,,,,,,0,,,67,0
797675,note_off,155,0,2,,,,,,,,,,,,,,,1,,,64,0
797760,note_on,85,0,2,,,,,,,,,,,,,,,1,,,54,50
797760,note_on,85,0,1,,,,,,,,,,,,,,,0,,,63,54
798000,note_off,240,0,1,,,,,,,,,,,,,,,0,,,63,0
798000,note_on,0,0,1,,,,,,,,,,,,,,,0,,,64,52
798000,note_on,0,0,2,,,,,,,,,,,,,,,1,,,55,48
798000,note_off,960,0,4,,,,,,,,,,,,,,,3,,,43,0
798000,note_off,240,0,2,,,,,,,,,,,,,,,1,,,54,0
798005,note_off,5,0,4,,,,,,,,,,,,,,,3,,,55,0
798240,note_off,240,0,1,,,,,,,,,,,,,,,0,,,64,0
798240,note_on,0,0,1,,,,,,,,,,,,,,,0,,,60,51
798240,note_on,0,0,2,,,,,,,,,,,,,,,1,,,52,47
798240,note_off,240,0,2,,,,,,,,,,,,,,,1,,,55,0
798360,set_tempo,1320,1,0,,,,,,,487804,,,,,,,,,,,,
798395,note_off,155,0,1,,,,,,,,,,,,,,,0,,,60,0
798395,note_off,155,0,2,,,,,,,,,,,,,,,1,,,52,0
798480,set_tempo,120,1,0,,,,,,,480000,,,,,,,,,,,,
798480,note_on,475,0,4,,,,,,,,,,,,,,,3,,,43,51
798480,note_on,0,0,4,,,,,,,,,,,,,,,3,,,31,51
798720,note_on,325,0,1,,,,,,,,,,,,,,,0,,,64,48
798720,note_on,325,0,2,,,,,,,,,,,,,,,1,,,61,44
798960,note_on,0,0,1,,,,,,,,,,,,,,,0,,,65,47
798960,note_off,240,0,1,,,,,,,,,,,,,,,0,,,64,0
798960,note_off,240,0,2,,,,,,,,,,,,,,,1,,,61,0
798960,note_on,0,0,2,,,,,,,,,,,,,,,1,,,62,43
799115,note_off,155,0,1,,,,,,,,,,,,,,,0,,,65,0
799115,note_off,155,0,2,,,,,,,,,,,,,,,1,,,62,0
799200,note_on,85,0,1,,,,,,,,,,,,,,,0,,,61,45
799200,note_on,85,0,2,,,,,,,,,,,,,,,1,,,52,41
799440,note_off,960,0,4,,,,,,,,,,,,,,,3,,,43,0
799440,note_off,0,0,4,,,,,,,,,,,,,,,3,,,31,0
799440,note_on,0,0,2,,,,,,,,,,,,,,,1,,,53,40
799440,note_off,240,0,2,,,,,,,,,,,,,,,1,,,52,0
799440,note_off,240,0,1,,,,,,,,,,,,,,,0,,,61,0
799440,note_on,0,0,1,,,,,,,,,,,,,,,0,,,62,44
799560,set_tempo,1080,1,0,,,,,,,487804,,,,,,,,,,,,
799680,note_off,240,0,2,,,,,,,,,,,,,,,1,,,53,0
799680,note_off,240,0,1,,,,,,,,,,,,,,,0,,,62,0
799680,note_on,0,0,1,,,,,,,,,,,,,,,0,,,59,42
799680,note_on,0,0,2,,,,,,,,,,,,,,,1,,,50,39
799690,set_tempo,130,1,0,,,,,,,517241,,,,,,,,,,,,
799835,note_off,155,0,1,,,,,,,,,,,,,,,0,,,59,0
799835,note_off,155,0,2,,,,,,,,,,,,,,,1,,,50,0
799920,set_tempo,230,1,0,,,,,,,472440,,,,,,,,,,,,
799920,note_on,21290,0,3,,,,,,,,,,,,,,,2,,,52,32
799920,note_on,85,0,1,,,,,,,,,,,,,,,0,,,60,38
799920,note_on,480,0,4,,,,,,,,,,,,,,,3,,,36,36
800000,note_on,0,0,4,,,,,,,,,,,,,,,3,,,38,36
800000,note_off,80,0,4,,,,,,,,,,,,,,,3,,,36,0
800080,note_on,0,0,4,,,,,,,,,,,,,,,3,,,36,36
800080,note_off,80,0,4,,,,,,,,,,,,,,,3,,,38,0
800160,note_off,240,0,3,,,,,,,,,,,,,,,2,,,52,0
800160,note_on,0,0,3,,,,,,,,,,,,,,,2,,,55,32
800160,note_off,80,0,4,,,,,,,,,,,,,,,3,,,36,0
800160,note_on,0,0,4,,,,,,,,,,,,,,,3,,,38,36
800240,note_off,80,0,4,,,,,,,,,,,,,,,3,,,38,0
800240,note_on,0,0,4,,,,,,,,,,,,,,,3,,,36,37
800320,note_off,80,0,4,,,,,,,,,,,,,,,3,,,36,0
800320,note_on,0,0,4,,,,,,,,,,,,,,,3,,,38,37
800400,note_off,240,0,3,,,,,,,,,,,,,,,2,,,55,0
800400,note_on,0,0,3,,,,,,,,,,,,,,,2,,,52,33
800400,note_off,80,0,4,,,,,,,,,,,,,,,3,,,38,0
800400,note_on,0,0,4,,,,,,,,,,,,,,,3,,,36,37
800400,note_off,480,0,1,,,,,,,,,,,,,,,0,,,60,0
800480,note_off,80,0,4,,,,,,,,,,,,,,,3,,,36,0
800480,note_on,0,0,4,,,,,,,,,,,,,,,3,,,38,37
800560,note_on,0,0,4,,,,,,,,,,,,,,,3,,,36,38
800560,note_off,80,0,4,,,,,,,,,,,,,,,3,,,38,0
800640,note_off,240,0,3,,,,,,,,,,,,,,,2,,,52,0
800640,note_on,0,0,3,,,,,,,,,,,,,,,2,,,55,33
800640,note_off,80,0,4,,,,,,,,,,,,,,,3,,,36,0
800640,note_on,0,0,4,,,,,,,,,,,,,,,3,,,38,38
800720,note_off,80,0,4,,,,,,,,,,,,,,,3,,,38,0
800720,note_on,0,0,4,,,,,,,,,,,,,,,3,,,36,38
800800,note_on,0,0,4,,,,,,,,,,,,,,,3,,,38,38
800800,note_off,80,0,4,,,,,,,,,,,,,,,3,,,36,0
800880,note_off,80,0,4,,,,,,,,,,,,,,,3,,,38,0
800880,note_on,0,0,4,,,,,,,,,,,,,,,3,,,36,38
800880,note_on,0,0,3,,,,,,,,,,,,,,,2,,,52,34
800880,note_off,240,0,3,,,,,,,,,,,,,,,2,,,55,0
800960,note_off,80,0,4,,,,,,,,,,,,,,,3,,,36,0
800960,note_on,0,0,4,,,,,,,,,,,,,,,3,,,38,39
801040,note_off,80,0,4,,,,,,,,,,,,,,,3,,,38,0
801040,note_on,0,0,4,,,,,,,,,,,,,,,3,,,36,39
801120,note_off,240,0,3,,,,,,,,,,,,,,,2,,,52,0
801120,note_off,80,0,4,,,,,,,,,,,,,,,3,,,36,0
801120,note_on,0,0,4,,,,,,,,,,,,,,,3,,,38,39
801120,note_on,0,0,3,,,,,,,,,,,,,,,2,,,55,34
801200,note_off,80,0,4,,,,,,,,,,,,,,,3,,,38,0
801200,note_on,0,0,4,,,,,,,,,,,,,,,3,,,36,39
801280,note_off,80,0,4,,,,,,,,,,,,,,,3,,,36,0
801280,note_on,0,0,4,,,,,,,,,,,,,,,3,,,38,40
801360,note_on,0,0,4,,,,,,,,,,,,,,,3,,,36,40
801360,note_off,80,0,4,,,,,,,,,,,,,,,3,,,38,0
801360,note_on,0,0,3,,,,,,,,,,,,,,,2,,,52,35
801360,note_off,240,0,3,,,,,,,,,,,,,,,2,,,55,0
801440,note_off,80,0,4,,,,,,,,,,,,,,,3,,,36,0
801440,note_on,0,0,4,,,,,,,,,,,,,,,3,,,38,40
801520,note_on,0,0,4,,,,,,,,,,,,,,,3,,,36,40
801520,note_off,80,0,4,,,,,,,,,,,,,,,3,,,38,0
801600,note_on,0,0,4,,,,,,,,,,,,,,,3,,,38,41
801600,note_off,80,0,4,,,,,,,,,,,,,,,3,,,36,0
801600,note_on,0,0,3,,,,,,,,,,,,,,,2,,,55,35
801600,note_off,240,0,3,,,,,,,,,,,,,,,2,,,52,0
801680,note_off,80,0,4,,,,,,,,,,,,,,,3,,,38,0
801680,note_on,0,0,4,,,,,,,,,,,,,,,3,,,36,41
801760,note_off,80,0,4,,,,,,,,,,,,,,,3,,,36,0
801760,note_on,0,0,4,,,,,,,,,,,,,,,3,,,38,41
801840,note_on,0,0,3,,,,,,,,,,,,,,,2,,,52,35
801840,note_on,0,0,4,,,,,,,,,,,,,,,3,,,36,41
801840,note_off,240,0,3,,,,,,,,,,,,,,,2,,,55,0
801840,note_off,80,0,4,,,,,,,,,,,,,,,3,,,38,0
801920,note_off,80,0,4,,,,,,,,,,,,,,,3,,,36,0
801920,note_on,0,0,4,,,,,,,,,,,,,,,3,,,38,42
802000,note_off,80,0,4,,,,,,,,,,,,,,,3,,,38,0
802000,note_on,0,0,4,,,,,,,,,,,,,,,3,,,36,42
802080,note_on,0,0,3,,,,,,,,,,,,,,,2,,,55,36
802080,note_off,80,0,4,,,,,,,,,,,,,,,3,,,36,0
802080,note_on,0,0,4,,,,,,,,,,,,,,,3,,,38,42
802080,note_off,240,0,3,,,,,,,,,,,,,,,2,,,52,0
802160,note_off,80,0,4,,,,,,,,,,,,,,,3,,,38,0
802160,note_on,0,0,4,,,,,,,,,,,,,,,3,,,36,42
802240,note_off,80,0,4,,,,,,,,,,,,,,,3,,,36,0
802240,note_on,0,0,4,,,,,,,,,,,,,,,3,,,38,42
802320,note_off,80,0,4,,,,,,,,,,,,,,,3,,,38,0
802320,note_on,0,0,4,,,,,,,,,,,,,,,3,,,36,43
802320,note_off,240,0,3,,,,,,,,,,,,,,,2,,,55,0
802320,note_on,0,0,3,,,,,,,,,,,,,,,2,,,52,36
802400,note_on,0,0,4,,,,,,,,,,,,,,,3,,,38,43
802400,note_off,80,0,4,,,,,,,,,,,,,,,3,,,36,0
802480,note_off,80,0,4,,,,,,,,,,,,,,,3,,,38,0
802480,note_on,0,0,4,,,,,,,,,,,,,,,3,,,36,43
802560,note_on,0,0,4,,,,,,,,,,,,,,,3,,,35,43
802560,note_off,240,0,3,,,,,,,,,,,,,,,2,,,52,0
802560,note_off,80,0,4,,,,,,,,,,,,,,,3,,,36,0
802560,note_on,0,0,3,,,,,,,,,,,,,,,2,,,55,37
802680,note_off,120,0,4,,,,,,,,,,,,,,,3,,,35,0
802680,set_tempo,2760,1,0,,,,,,,487804,,,,,,,,,,,,
802680,note_on,0,0,4,,,,,,,,,,,,,,,3,,,36,45
802800,note_on,0,0,3,,,,,,,,,,,,,,,2,,,52,37
802800,note_on,0,0,4,,,,,,,,,,,,,,,3,,,40,51
802800,note_off,120,0,4,,,,,,,,,,,,,,,3,,,36,0
802800,set_tempo,120,1,0,,,,,,,472440,,,,,,,,,,,,
802800,note_off,240,0,3,,,,,,,,,,,,,,,2,,,55,0
803040,note_off,240,0,3,,,,,,,,,,,,,,,2,,,52,0
803040,note_on,0,0,3,,,,,,,,,,,,,,,2,,,55,38
803280,note_off,240,0,3,,,,,,,,,,,,,,,2,,,55,0
803280,note_on,0,0,3,,,,,,,,,,,,,,,2,,,52,38
803520,note_on,0,0,3,,,,,,,,,,,,,,,2,,,55,39
803520,note_off,240,0,3,,,,,,,,,,,,,,,2,,,52,0
803760,note_off,240,0,3,,,,,,,,,,,,,,,2,,,55,0
803760,note_on,0,0,3,,,,,,,,,,,,,,,2,,,52,39
804000,note_on,0,0,3,,,,,,,,,,,,,,,2,,,55,40
804000,note_off,240,0,3,,,,,,,,,,,,,,,2,,,52,0
804120,note_on,0,0,4,,,,,,,,,,,,,,,3,,,36,45
804120,set_tempo,1320,1,0,,,,,,,491803,,,,,,,,,,,,
804120,note_off,1320,0,4,,,,,,,,,,,,,,,3,,,40,0
804240,note_off,240,0,3,,,,,,,,,,,,,,,2,,,55,0
804240,control_change,120,0,4,,,,,,,,,,,,,64,127,3,,,,
804240,note_on,0,0,3,,,,,,,,,,,,,,,2,,,53,40
804240,note_on,0,0,4,,,,,,,,,,,,,,,3,,,31,45
804240,note_on,3840,0,1,,,,,,,,,,,,,,,0,,,59,45
804240,note_off,0,0,4,,,,,,,,,,,,,,,3,,,36,0
804345,set_tempo,225,1,0,,,,,,,472440,,,,,,,,,,,,
804360,note_off,120,0,4,,,,,,,,,,,,,,,3,,,31,0
804480,note_off,240,0,3,,,,,,,,,,,,,,,2,,,53,0
804480,note_on,0,0,3,,,,,,,,,,,,,,,2,,,55,41
804720,note_off,480,0,1,,,,,,,,,,,,,,,0,,,59,0
804720,note_on,0,0,1,,,,,,,,,,,,,,,0,,,62,51
804720,note_on,0,0,3,,,,,,,,,,,,,,,2,,,53,41
804720,note_off,240,0,3,,,,,,,,,,,,,,,2,,,55,0
804960,note_on,0,0,3,,,,,,,,,,,,,,,2,,,55,41
804960,note_off,240,0,3,,,,,,,,,,,,,,,2,,,53,0
805200,note_on,0,0,3,,,,,,,,,,,,,,,2,,,53,41
805200,note_off,480,0,1,,,,,,,,,,,,,,,0,,,62,0
805200,note_on,0,0,1,,,,,,,,,,,,,,,0,,,65,55
805200,note_off,240,0,3,,,,,,,,,,,,,,,2,,,55,0
805440,note_off,240,0,3,,,,,,,,,,,,,,,2,,,53,0
805440,note_on,0,0,3,,,,,,,,,,,,,,,2,,,55,41
805680,note_off,240,0,3,,,,,,,,,,,,,,,2,,,55,0
805680,note_on,0,0,3,,,,,,,,,,,,,,,2,,,53,40
805920,note_off,240,0,3,,,,,,,,,,,,,,,2,,,53,0
805920,note_on,0,0,3,,,,,,,,,,,,,,,2,,,55,40
806160,note_off,960,0,1,,,,,,,,,,,,,,,0,,,65,0
806160,note_on,0,0,1,,,,,,,,,,,,,,,0,,,64,50
806160,note_off,240,0,3,,,,,,,,,,,,,,,2,,,55,0
806160,note_on,0,0,3,,,,,,,,,,,,,,,2,,,53,39
806400,note_off,240,0,3,,,,,,,,,,,,,,,2,,,53,0
806400,note_on,0,0,3,,,,,,,,,,,,,,,2,,,55,39
806640,note_on,0,0,3,,,,,,,,,,,,,,,2,,,53,39
806640,note_on,0,0,1,,,,,,,,,,,,,,,0,,,62,48
806640,note_off,240,0,3,,,,,,,,,,,,,,,2,,,55,0
806640,note_off,480,0,1,,,,,,,,,,,,,,,0,,,64,0
806880,note_off,240,0,3,,,,,,,,,,,,,,,2,,,53,0
806880,note_on,0,0,3,,,,,,,,,,,,,,,2,,,55,38
807000,set_tempo,2655,1,0,,,,,,,487804,,,,,,,,,,,,
807120,set_tempo,120,1,0,,,,,,,472440,,,,,,,,,,,,
807120,note_off,240,0,3,,,,,,,,,,,,,,,2,,,55,0
807120,note_on,0,0,1,,,,,,,,,,,,,,,0,,,60,46
807120,note_off,480,0,1,,,,,,,,,,,,,,,0,,,62,0
807120,note_on,0,0,3,,,,,,,,,,,,,,,2,,,53,38
807360,note_off,240,0,3,,,,,,,,,,,,,,,2,,,53,0
807360,note_on,0,0,3,,,,,,,,,,,,,,,2,,,55,38
807600,note_on,0,0,1,,,,,,,,,,,,,,,0,,,59,44
807600,note_off,480,0,1,,,,,,,,,,,,,,,0,,,60,0
807600,note_off,240,0,3,,,,,,,,,,,,,,,2,,,55,0
807600,note_on,0,0,3,,,,,,,,,,,,,,,2,,,53,37
807840,note_on,0,0,3,,,,,,,,,,,,,,,2,,,55,37
807840,note_off,240,0,3,,,,,,,,,,,,,,,2,,,53,0
808080,note_on,0,0,3,,,,,,,,,,,,,,,2,,,53,36
808080,note_off,480,0,1,,,,,,,,,,,,,,,0,,,59,0
808080,note_off,240,0,3,,,,,,,,,,,,,,,2,,,55,0
808080,note_on,0,0,1,,,,,,,,,,,,,,,0,,,62,41
808320,note_on,0,0,3,,,,,,,,,,,,,,,2,,,55,36
808320,note_off,240,0,3,,,,,,,,,,,,,,,2,,,53,0
808440,set_tempo,1320,1,0,,,,,,,491803,,,,,,,,,,,,
808560,note_on,0,0,1,,,,,,,,,,,,,,,0,,,60,39
808560,note_on,0,0,3,,,,,,,,,,,,,,,2,,,52,36
808560,note_on,4200,0,4,,,,,,,,,,,,,,,3,,,36,39
808560,control_change,0,0,4,,,,,,,,,,,,,64,0,3,,,,
808560,note_off,240,0,3,,,,,,,,,,,,,,,2,,,55,0
808560,note_off,480,0,1,,,,,,,,,,,,,,,0,,,62,0
808640,note_off,80,0,4,,,,,,,,,,,,,,,3,,,36,0
808640,note_on,0,0,4,,,,,,,,,,,,,,,3,,,38,39
808680,set_tempo,240,1,0,,,,,,,472440,,,,,,,,,,,,
808720,note_on,0,0,4,,,,,,,,,,,,,,,3,,,36,39
808720,note_off,80,0,4,,,,,,,,,,,,,,,3,,,38,0
808800,note_off,240,0,3,,,,,,,,,,,,,,,2,,,52,0
808800,note_off,80,0,4,,,,,,,,,,,,,,,3,,,36,0
808800,note_on,0,0,3,,,,,,,,,,,,,,,2,,,55,37
808800,note_on,0,0,4,,,,,,,,,,,,,,,3,,,38,40
808880,note_off,80,0,4,,,,,,,,,,,,,,,3,,,38,0
808880,note_on,0,0,4,,,,,,,,,,,,,,,3,,,36,40
808960,note_off,80,0,4,,,,,,,,,,,,,,,3,,,36,0
808960,note_on,0,0,4,,,,,,,,,,,,,,,3,,,38,41
809040,note_off,480,0,1,,,,,,,,,,,,,,,0,,,60,0
809040,note_on,0,0,3,,,,,,,,,,,,,,,2,,,52,37
809040,note_off,240,0,3,,,,,,,,,,,,,,,2,,,55,0
809040,note_on,0,0,4,,,,,,,,,,,,,,,3,,,36,41
809040,note_off,80,0,4,,,,,,,,,,,,,,,3,,,38,0
809120,note_off,80,0,4,,,,,,,,,,,,,,,3,,,36,0
809120,note_on,0,0,4,,,,,,,,,,,,,,,3,,,38,42
809200,note_on,0,0,4,,,,,,,,,,,,,,,3,,,36,42
809200,note_off,80,0,4,,,,,,,,,,,,,,,3,,,38,0
809280,note_on,0,0,4,,,,,,,,,,,,,,,3,,,38,43
809280,note_off,80,0,4,,,,,,,,,,,,,,,3,,,36,0
809280,note_on,0,0,3,,,,,,,,,,,,,,,2,,,55,38
809280,note_off,240,0,3,,,,,,,,,,,,,,,2,,,52,0
809360,note_on,0,0,4,,,,,,,,,,,,,,,3,,,36,43
809360,note_off,80,0,4,,,,,,,,,,,,,,,3,,,38,0
809440,note_on,0,0,4,,,,,,,,,,,,,,,3,,,38,43
809440,note_off,80,0,4,,,,,,,,,,,,,,,3,,,36,0
809520,note_on,0,0,4,,,,,,,,,,,,,,,3,,,36,44
809520,note_on,0,0,3,,,,,,,,,,,,,,,2,,,52,38
809520,note_off,240,0,3,,,,,,,,,,,,,,,2,,,55,0
809520,note_off,80,0,4,,,,,,,,,,,,,,,3,,,38,0
809600,note_on,0,0,4,,,,,,,,,,,,,,,3,,,38,44
809600,note_off,80,0,4,,,,,,,,,,,,,,,3,,,36,0
809680,note_on,0,0,4,,,,,,,,,,,,,,,3,,,36,45
809680,note_off,80,0,4,,,,,,,,,,,,,,,3,,,38,0
809760,note_off,80,0,4,,,,,,,,,,,,,,,3,,,36,0
809760,note_on,0,0,4,,,,,,,,,,,,,,,3,,,35,45
809760,note_off,240,0,3,,,,,,,,,,,,,,,2,,,52,0
809760,note_on,0,0,3,,,,,,,,,,,,,,,2,,,55,39
809880,note_off,120,0,4,,,,,,,,,,,,,,,3,,,35,0
809880,set_tempo,1200,1,0,,,,,,,487804,,,,,,,,,,,,
809880,note_on,0,0,4,,,,,,,,,,,,,,,3,,,36,46
810000,note_on,0,0,4,,,,,,,,,,,,,,,3,,,40,47
810000,note_off,120,0,4,,,,,,,,,,,,,,,3,,,36,0
810000,set_tempo,120,1,0,,,,,,,472440,,,,,,,,,,,,
810000,note_on,0,0,3,,,,,,,,,,,,,,,2,,,52,40
810000,note_off,240,0,3,,,,,,,,,,,,,,,2,,,55,0
810080,note_off,80,0,4,,,,,,,,,,,,,,,3,,,40,0
810080,note_on,0,0,4,,,,,,,,,,,,,,,3,,,41,47
810160,note_off,80,0,4,,,,,,,,,,,,,,,3,,,41,0
810160,note_on,0,0,4,,,,,,,,,,,,,,,3,,,40,48
810240,note_on,0,0,3,,,,,,,,,,,,,,,2,,,55,40
810240,note_off,80,0,4,,,,,,,,,,,,,,,3,,,40,0
810240,note_on,0,0,4,,,,,,,,,,,,,,,3,,,41,48
810240,note_off,240,0,3,,,,,,,,,,,,,,,2,,,52,0
810320,note_off,80,0,4,,,,,,,,,,,,,,,3,,,41,0
810320,note_on,0,0,4,,,,,,,,,,,,,,,3,,,40,48
810400,note_off,80,0,4,,,,,,,,,,,,,,,3,,,40,0
810400,note_on,0,0,4,,,,,,,,,,,,,,,3,,,41,49
810480,note_on,0,0,3,,,,,,,,,,,,,,,2,,,52,41
810480,note_off,80,0,4,,,,,,,,,,,,,,,3,,,41,0
810480,note_on,0,0,4,,,,,,,,,,,,,,,3,,,40,49
810480,note_off,240,0,3,,,,,,,,,,,,,,,2,,,55,0
810560,note_off,80,0,4,,,,,,,,,,,,,,,3,,,40,0
810560,note_on,0,0,4,,,,,,,,,,,,,,,3,,,41,50
810640,note_off,80,0,4,,,,,,,,,,,,,,,3,,,41,0
810640,note_on,0,0,4,,,,,,,,,,,,,,,3,,,40,50
810720,note_on,0,0,3,,,,,,,,,,,,,,,2,,,55,42
810720,note_off,240,0,3,,,,,,,,,,,,,,,2,,,52,0
810720,note_on,0,0,4,,,,,,,,,,,,,,,3,,,41,51
810720,note_off,80,0,4,,,,,,,,,,,,,,,3,,,40,0
810800,note_off,80,0,4,,,,,,,,,,,,,,,3,,,41,0
810800,note_on,0,0,4,,,,,,,,,,,,,,,3,,,40,51
810880,note_on,0,0,4,,,,,,,,,,,,,,,3,,,41,52
810880,note_off,80,0,4,,,,,,,,,,,,,,,3,,,40,0
810960,note_off,80,0,4,,,,,,,,,,,,,,,3,,,41,0
810960,note_on,0,0,4,,,,,,,,,,,,,,,3,,,40,52
810960,note_off,240,0,3,,,,,,,,,,,,,,,2,,,55,0
810960,note_on,0,0,3,,,,,,,,,,,,,,,2,,,52,42
811040,note_off,80,0,4,,,,,,,,,,,,,,,3,,,40,0
811040,note_on,0,0,4,,,,,,,,,,,,,,,3,,,41,52
811120,note_off,80,0,4,,,,,,,,,,,,,,,3,,,41,0
811120,note_on,0,0,4,,,,,,,,,,,,,,,3,,,40,53
811200,note_on,0,0,4,,,,,,,,,,,,,,,3,,,38,53
811200,note_on,0,0,3,,,,,,,,,,,,,,,2,,,55,43
811200,note_off,80,0,4,,,,,,,,,,,,,,,3,,,40,0
811200,note_off,240,0,3,,,,,,,,,,,,,,,2,,,52,0
811320,set_tempo,1320,1,0,,,,,,,487804,,,,,,,,,,,,
811320,note_off,120,0,4,,,,,,,,,,,,,,,3,,,38,0
811320,note_on,0,0,4,,,,,,,,,,,,,,,3,,,40,58
811440,note_off,240,0,3,,,,,,,,,,,,,,,2,,,55,0
811440,note_on,0,0,3,,,,,,,,,,,,,,,2,,,52,44
811440,set_tempo,120,1,0,,,,,,,472440,,,,,,,,,,,,
811440,note_off,120,0,4,,,,,,,,,,,,,,,3,,,40,0
811440,note_on,0,0,4,,,,,,,,,,,,,,,3,,,43,64
811680,note_off,240,0,3,,,,,,,,,,,,,,,2,,,52,0
811680,note_on,0,0,3,,,,,,,,,,,,,,,2,,,55,44
811920,note_off,240,0,3,,,,,,,,,,,,,,,2,,,55,0
811920,note_on,0,0,3,,,,,,,,,,,,,,,2,,,52,45
812160,note_off,240,0,3,,,,,,,,,,,,,,,2,,,52,0
812160,note_on,0,0,3,,,,,,,,,,,,,,,2,,,55,45
812400,note_off,240,0,3,,,,,,,,,,,,,,,2,,,55,0
812400,note_on,0,0,3,,,,,,,,,,,,,,,2,,,52,46
812520,note_on,0,0,4,,,,,,,,,,,,,,,3,,,41,62
812520,note_off,1080,0,4,,,,,,,,,,,,,,,3,,,43,0
812580,note_on,0,0,4,,,,,,,,,,,,,,,3,,,40,63
812580,note_off,60,0,4,,,,,,,,,,,,,,,3,,,41,0
812640,note_off,240,0,3,,,,,,,,,,,,,,,2,,,52,0
812640,note_on,0,0,3,,,,,,,,,,,,,,,2,,,55,47
812640,note_off,60,0,4,,,,,,,,,,,,,,,3,,,40,0
812640,note_on,0,0,4,,,,,,,,,,,,,,,3,,,38,65
812700,note_on,0,0,4,,,,,,,,,,,,,,,3,,,36,66
812700,note_off,60,0,4,,,,,,,,,,,,,,,3,,,38,0
812760,set_tempo,1320,1,0,,,,,,,480000,,,,,,,,,,,,
812760,note_off,60,0,4,,,,,,,,,,,,,,,3,,,36,0
812760,note_on,0,0,4,,,,,,,,,,,,,,,3,,,35,68
812820,set_tempo,60,1,0,,,,,,,491803,,,,,,,,,,,,
812820,note_on,0,0,4,,,,,,,,,,,,,,,3,,,33,69
812820,note_off,60,0,4,,,,,,,,,,,,,,,3,,,35,0
812880,note_on,0,0,4,,,,,,,,,,,,,,,3,,,32,79
812880,note_off,60,0,4,,,,,,,,,,,,,,,3,,,33,0
812880,note_on,3840,0,1,,,,,,,,,,,,,,,0,,,59,55
812880,note_off,240,0,3,,,,,,,,,,,,,,,2,,,55,0
812880,note_on,0,0,3,,,,,,,,,,,,,,,2,,,53,47
812990,set_tempo,170,1,0,,,,,,,472440,,,,,,,,,,,,
813120,note_off,240,0,3,,,,,,,,,,,,,,,2,,,53,0
813120,note_on,0,0,3,,,,,,,,,,,,,,,2,,,55,48
813360,note_on,0,0,1,,,,,,,,,,,,,,,0,,,62,59
813360,control_change,480,0,4,,,,,,,,,,,,,64,127,3,,,,
813360,note_off,0,0,4,,,,,,,,,,,,,,,3,,,32,0
813360,note_on,0,0,4,,,,,,,,,,,,,,,3,,,31,64
813360,note_off,480,0,1,,,,,,,,,,,,,,,0,,,59,0
813360,note_on,0,0,3,,,,,,,,,,,,,,,2,,,53,49
813360,note_off,240,0,3,,,,,,,,,,,,,,,2,,,55,0
813600,note_on,0,0,3,,,,,,,,,,,,,,,2,,,55,49
813600,note_off,240,0,3,,,,,,,,,,,,,,,2,,,53,0
813840,note_on,0,0,3,,,,,,,,,,,,,,,2,,,53,47
813840,note_off,240,0,3,,,,,,,,,,,,,,,2,,,55,0
813840,note_on,0,0,1,,,,,,,,,,,,,,,0,,,65,64
813840,note_off,480,0,1,,,,,,,,,,,,,,,0,,,62,0
813840,note_off,480,0,4,,,,,,,,,,,,,,,3,,,31,0
814080,note_off,240,0,3,,,,,,,,,,,,,,,2,,,53,0
814080,note_on,0,0,3,,,,,,,,,,,,,,,2,,,55,47
814320,note_off,240,0,3,,,,,,,,,,,,,,,2,,,55,0
814320,note_on,0,0,3,,,,,,,,,,,,,,,2,,,53,47
814560,note_on,0,0,3,,,,,,,,,,,,,,,2,,,55,46
814560,note_off,240,0,3,,,,,,,,,,,,,,,2,,,53,0
814800,note_on,0,0,1,,,,,,,,,,,,,,,0,,,64,59
814800,note_off,240,0,3,,,,,,,,,,,,,,,2,,,55,0
814800,note_on,0,0,3,,,,,,,,,,,,,,,2,,,53,46
814800,note_off,960,0,1,,,,,,,,,,,,,,,0,,,65,0
815040,note_off,240,0,3,,,,,,,,,,,,,,,2,,,53,0
815040,note_on,0,0,3,,,,,,,,,,,,,,,2,,,55,46
815040,control_change,1200,0,4,,,,,,,,,,,,,64,0,3,,,,
815280,note_off,480,0,1,,,,,,,,,,,,,,,0,,,64,0
815280,note_on,0,0,1,,,,,,,,,,,,,,,0,,,62,56
815280,note_on,0,0,3,,,,,,,,,,,,,,,2,,,53,45
815280,note_off,240,0,3,,,,,,,,,,,,,,,2,,,55,0
815520,note_on,0,0,3,,,,,,,,,,,,,,,2,,,55,45
815520,note_off,240,0,3,,,,,,,,,,,,,,,2,,,53,0
815640,set_tempo,2650,1,0,,,,,,,487804,,,,,,,,,,,,
815760,note_on,0,0,3,,,,,,,,,,,,,,,2,,,53,44
815760,note_off,480,0,1,,,,,,,,,,,,,,,0,,,62,0
815760,note_on,0,0,1,,,,,,,,,,,,,,,0,,,60,53
815760,set_tempo,120,1,0,,,,,,,472440,,,,,,,,,,,,
815760,note_off,240,0,3,,,,,,,,,,,,,,,2,,,55,0
816000,note_off,240,0,3,,,,,,,,,,,,,,,2,,,53,0
816000,note_on,0,0,3,,,,,,,,,,,,,,,2,,,55,44
816240,note_on,0,0,3,,,,,,,,,,,,,,,2,,,53,44
816240,note_off,240,0,3,,,,,,,,,,,,,,,2,,,55,0
816240,note_on,0,0,1,,,,,,,,,,,,,,,0,,,59,50
816240,note_off,480,0,1,,,,,,,,,,,,,,,0,,,60,0
816480,note_off,240,0,3,,,,,,,,,,,,,,,2,,,53,0
816480,note_on,0,0,3,,,,,,,,,,,,,,,2,,,55,43
816720,note_off,240,0,3,,,,,,,,,,,,,,,2,,,55,0
816720,note_on,0,0,3,,,,,,,,,,,,,,,2,,,53,43
816720,note_off,480,0,1,,,,,,,,,,,,,,,0,,,59,0
816720,note_on,0,0,1,,,,,,,,,,,,,,,0,,,62,47
816960,note_off,240,0,3,,,,,,,,,,,,,,,2,,,53,0
816960,note_on,0,0,3,,,,,,,,,,,,,,,2,,,55,42
817080,set_tempo,1320,1,0,,,,,,,487804,,,,,,,,,,,,
817200,note_off,240,0,3,,,,,,,,,,,,,,,2,,,55,0
817200,note_on,2160,0,4,,,,,,,,,,,,,,,3,,,36,62
817200,note_on,0,0,3,,,,,,,,,,,,,,,2,,,52,42
817200,note_off,480,0,1,,,,,,,,,,,,,,,0,,,62,0
817200,note_on,0,0,1,,,,,,,,,,,,,,,0,,,60,44
817335,set_tempo,255,1,0,,,,,,,472440,,,,,,,,,,,,
817440,note_off,240,0,3,,,,,,,,,,,,,,,2,,,52,0
817440,note_on,0,0,3,,,,,,,,,,,,,,,2,,,55,40
817560,note_off,360,0,4,,,,,,,,,,,,,,,3,,,36,0
817680,note_off,240,0,3,,,,,,,,,,,,,,,2,,,55,0
817680,note_on,0,0,3,,,,,,,,,,,,,,,2,,,52,40
817680,note_off,480,0,1,,,,,,,,,,,,,,,0,,,60,0
817680,note_on,120,0,4,,,,,,,,,,,,,,,3,,,43,63
817920,note_off,240,0,3,,,,,,,,,,,,,,,2,,,52,0
817920,note_on,0,0,3,,,,,,,,,,,,,,,2,,,55,40
818160,note_off,240,0,3,,,,,,,,,,,,,,,2,,,55,0
818160,note_on,0,0,3,,,,,,,,,,,,,,,2,,,52,41
818280,note_on,600,0,4,,,,,,,,,,,,,,,3,,,41,63
818295,note_off,15,0,4,,,,,,,,,,,,,,,3,,,43,0
818340,note_on,0,0,4,,,,,,,,,,,,,,,3,,,40,64
818340,note_off,45,0,4,,,,,,,,,,,,,,,3,,,41,0
818400,note_on,0,0,3,,,,,,,,,,,,,,,2,,,55,41
818400,note_on,0,0,4,,,,,,,,,,,,,,,3,,,38,65
818400,note_off,60,0,4,,,,,,,,,,,,,,,3,,,40,0
818400,note_off,240,0,3,,,,,,,,,,,,,,,2,,,52,0
818460,note_off,60,0,4,,,,,,,,,,,,,,,3,,,38,0
818460,note_on,0,0,4,,,,,,,,,,,,,,,3,,,36,67
818520,note_on,0,0,4,,,,,,,,,,,,,,,3,,,35,68
818520,note_off,60,0,4,,,,,,,,,,,,,,,3,,,36,0
818520,set_tempo,1185,1,0,,,,,,,487804,,,,,,,,,,,,
818580,note_on,0,0,4,,,,,,,,,,,,,,,3,,,33,69
818580,note_off,60,0,4,,,,,,,,,,,,,,,3,,,35,0
818640,note_off,240,0,3,,,,,,,,,,,,,,,2,,,55,0
818640,note_on,960,0,1,,,,,,,,,,,,,,,0,,,59,63
818640,note_on,0,0,4,,,,,,,,,,,,,,,3,,,32,81
818640,note_off,60,0,4,,,,,,,,,,,,,,,3,,,33,0
818640,note_on,0,0,3,,,,,,,,,,,,,,,2,,,53,42
818640,set_tempo,120,1,0,,,,,,,472440,,,,,,,,,,,,
818880,note_off,240,0,3,,,,,,,,,,,,,,,2,,,53,0
818880,note_on,0,0,3,,,,,,,,,,,,,,,2,,,55,42
819120,note_off,480,0,4,,,,,,,,,,,,,,,3,,,32,0
819120,note_off,480,0,1,,,,,,,,,,,,,,,0,,,59,0
819120,note_off,240,0,3,,,,,,,,,,,,,,,2,,,55,0
819120,note_on,0,0,1,,,,,,,,,,,,,,,0,,,65,67
819120,note_on,0,0,3,,,,,,,,,,,,,,,2,,,53,42
819120,note_on,0,0,4,,,,,,,,,,,,,,,3,,,31,68
819360,note_off,240,0,3,,,,,,,,,,,,,,,2,,,53,0
819360,note_on,0,0,3,,,,,,,,,,,,,,,2,,,55,43
819600,note_off,240,0,3,,,,,,,,,,,,,,,2,,,55,0
819600,note_on,0,0,3,,,,,,,,,,,,,,,2,,,53,43
819840,note_off,240,0,3,,,,,,,,,,,,,,,2,,,53,0
819840,note_on,0,0,3,,,,,,,,,,,,,,,2,,,55,44
820080,note_on,0,0,3,,,,,,,,,,,,,,,2,,,53,44
820080,note_off,240,0,3,,,,,,,,,,,,,,,2,,,55,0
820320,note_off,240,0,3,,,,,,,,,,,,,,,2,,,53,0
820320,note_on,0,0,3,,,,,,,,,,,,,,,2,,,55,44
820560,note_off,240,0,3,,,,,,,,,,,,,,,2,,,55,0
820560,note_on,0,0,3,,,,,,,,,,,,,,,2,,,53,45
820560,note_on,1440,0,1,,,,,,,,,,,,,,,0,,,62,59
820565,note_off,5,0,1,,,,,,,,,,,,,,,0,,,65,0
820800,note_off,240,0,3,,,,,,,,,,,,,,,2,,,53,0
820800,note_on,0,0,3,,,,,,,,,,,,,,,2,,,55,45
821040,note_off,475,0,1,,,,,,,,,,,,,,,0,,,62,0
821040,note_on,0,0,1,,,,,,,,,,,,,,,0,,,59,56
821040,note_off,240,0,3,,,,,,,,,,,,,,,2,,,55,0
821040,note_on,0,0,3,,,,,,,,,,,,,,,2,,,53,46
821280,note_on,0,0,3,,,,,,,,,,,,,,,2,,,55,46
821280,note_off,240,0,3,,,,,,,,,,,,,,,2,,,53,0
821400,set_tempo,2760,1,0,,,,,,,487804,,,,,,,,,,,,
821520,note_on,0,0,3,,,,,,,,,,,,,,,2,,,52,46
821520,note_on,0,0,1,,,,,,,,,,,,,,,0,,,60,53
821520,note_off,480,0,1,,,,,,,,,,,,,,,0,,,59,0
821520,control_change,2400,0,4,,,,,,,,,,,,,64,0,3,,,,
821520,note_off,240,0,3,,,,,,,,,,,,,,,2,,,55,0
821520,note_on,0,0,4,,,,,,,,,,,,,,,3,,,36,66
821520,set_tempo,120,1,0,,,,,,,472440,,,,,,,,,,,,
821535,note_off,15,0,4,,,,,,,,,,,,,,,3,,,31,0
821760,note_on,0,0,3,,,,,,,,,,,,,,,2,,,55,47
821760,note_off,240,0,3,,,,,,,,,,,,,,,2,,,52,0
821880,note_off,345,0,4,,,,,,,,,,,,,,,3,,,36,0
822000,note_off,480,0,1,,,,,,,,,,,,,,,0,,,60,0
822000,note_on,120,0,4,,,,,,,,,,,,,,,3,,,43,67
822000,note_on,0,0,3,,,,,,,,,,,,,,,2,,,52,47
822000,note_off,240,0,3,,,,,,,,,,,,,,,2,,,55,0
822240,note_off,240,0,3,,,,,,,,,,,,,,,2,,,52,0
822240,note_on,0,0,3,,,,,,,,,,,,,,,2,,,55,48
822480,note_on,0,0,3,,,,,,,,,,,,,,,2,,,52,48
822480,note_off,240,0,3,,,,,,,,,,,,,,,2,,,55,0
822600,note_on,600,0,4,,,,,,,,,,,,,,,3,,,41,67
822615,note_off,15,0,4,,,,,,,,,,,,,,,3,,,43,0
822660,note_off,45,0,4,,,,,,,,,,,,,,,3,,,41,0
822660,note_on,0,0,4,,,,,,,,,,,,,,,3,,,40,69
822720,note_off,60,0,4,,,,,,,,,,,,,,,3,,,40,0
822720,note_on,0,0,3,,,,,,,,,,,,,,,2,,,55,48
822720,note_off,240,0,3,,,,,,,,,,,,,,,2,,,52,0
822720,note_on,0,0,4,,,,,,,,,,,,,,,3,,,38,70
822780,note_off,60,0,4,,,,,,,,,,,,,,,3,,,38,0
822780,note_on,0,0,4,,,,,,,,,,,,,,,3,,,36,72
822840,note_on,0,0,4,,,,,,,,,,,,,,,3,,,35,73
822840,note_off,60,0,4,,,,,,,,,,,,,,,3,,,36,0
822840,set_tempo,1320,1,0,,,,,,,487804,,,,,,,,,,,,
822900,note_on,0,0,4,,,,,,,,,,,,,,,3,,,33,75
822900,note_off,60,0,4,,,,,,,,,,,,,,,3,,,35,0
822960,note_on,0,0,4,,,,,,,,,,,,,,,3,,,32,86
822960,set_tempo,120,1,0,,,,,,,472440,,,,,,,,,,,,
822960,note_off,240,0,3,,,,,,,,,,,,,,,2,,,55,0
822960,note_on,0,0,3,,,,,,,,,,,,,,,2,,,53,49
822960,note_off,60,0,4,,,,,,,,,,,,,,,3,,,33,0
822960,note_on,960,0,1,,,,,,,,,,,,,,,0,,,59,64
823200,note_on,0,0,3,,,,,,,,,,,,,,,2,,,55,49
823200,note_off,240,0,3,,,,,,,,,,,,,,,2,,,53,0
823440,note_off,480,0,1,,,,,,,,,,,,,,,0,,,59,0
823440,note_on,0,0,1,,,,,,,,,,,,,,,0,,,65,69
823440,note_off,480,0,4,,,,,,,,,,,,,,,3,,,32,0
823440,note_off,240,0,3,,,,,,,,,,,,,,,2,,,55,0
823440,note_on,0,0,3,,,,,,,,,,,,,,,2,,,53,50
823440,note_on,0,0,4,,,,,,,,,,,,,,,3,,,31,72
823680,note_off,240,0,3,,,,,,,,,,,,,,,2,,,53,0
823680,note_on,0,0,3,,,,,,,,,,,,,,,2,,,55,50
823920,note_off,240,0,3,,,,,,,,,,,,,,,2,,,55,0
823920,note_on,0,0,3,,,,,,,,,,,,,,,2,,,53,50
824160,note_off,240,0,3,,,,,,,,,,,,,,,2,,,53,0
824160,note_on,0,0,3,,,,,,,,,,,,,,,2,,,55,51
824400,note_off,240,0,3,,,,,,,,,,,,,,,2,,,55,0
824400,note_on,0,0,3,,,,,,,,,,,,,,,2,,,53,51
824640,note_off,240,0,3,,,,,,,,,,,,,,,2,,,53,0
824640,note_on,0,0,3,,,,,,,,,,,,,,,2,,,55,52
824880,note_off,240,0,3,,,,,,,,,,,,,,,2,,,55,0
824880,note_on,1440,0,1,,,,,,,,,,,,,,,0,,,64,56
824880,note_on,0,0,3,,,,,,,,,,,,,,,2,,,53,52
824885,note_off,5,0,1,,,,,,,,,,,,,,,0,,,65,0
825120,note_on,0,0,1,,,,,,,,,,,,,,,0,,,62,55
825120,note_on,0,0,3,,,,,,,,,,,,,,,2,,,55,52
825120,note_off,235,0,1,,,,,,,,,,,,,,,0,,,64,0
825120,note_off,240,0,3,,,,,,,,,,,,,,,2,,,53,0
825360,note_off,240,0,1,,,,,,,,,,,,,,,0,,,62,0
825360,note_on,0,0,1,,,,,,,,,,,,,,,0,,,60,54
825360,note_on,0,0,3,,,,,,,,,,,,,,,2,,,53,53
825360,note_off,240,0,3,,,,,,,,,,,,,,,2,,,55,0
825480,set_tempo,2520,1,0,,,,,,,476190,,,,,,,,,,,,
825600,note_on,0,0,3,,,,,,,,,,,,,,,2,,,55,53
825600,note_off,240,0,1,,,,,,,,,,,,,,,0,,,60,0
825600,note_on,0,0,1,,,,,,,,,,,,,,,0,,,59,52
825600,note_off,240,0,3,,,,,,,,,,,,,,,2,,,53,0
825605,note_off,2165,0,4,,,,,,,,,,,,,,,3,,,31,0
825660,set_tempo,180,1,0,,,,,,,487804,,,,,,,,,,,,
825840,note_off,240,0,3,,,,,,,,,,,,,,,2,,,55,0
825840,note_off,240,0,1,,,,,,,,,,,,,,,0,,,59,0
825840,note_on,235,0,4,,,,,,,,,,,,,,,3,,,36,59
825840,set_tempo,180,1,0,,,,,,,472440,,,,,,,,,,,,
825840,note_on,0,0,1,,,,,,,,,,,,,,,0,,,62,49
826080,note_on,240,0,3,,,,,,,,,,,,,,,2,,,53,52
826320,note_on,480,0,4,,,,,,,,,,,,,,,3,,,43,58
826560,note_on,0,0,3,,,,,,,,,,,,,,,2,,,53,51
826560,note_off,480,0,3,,,,,,,,,,,,,,,2,,,53,0
826800,note_off,480,0,4,,,,,,,,,,,,,,,3,,,43,0
826800,note_on,0,0,4,,,,,,,,,,,,,,,3,,,44,57
827040,note_on,0,0,3,,,,,,,,,,,,,,,2,,,53,50
827040,note_off,480,0,3,,,,,,,,,,,,,,,2,,,53,0
827280,note_off,480,0,4,,,,,,,,,,,,,,,3,,,44,0
827280,note_on,0,0,4,,,,,,,,,,,,,,,3,,,45,55
827520,note_on,0,0,3,,,,,,,,,,,,,,,2,,,53,49
827520,note_off,480,0,3,,,,,,,,,,,,,,,2,,,53,0
827760,note_on,0,0,4,,,,,,,,,,,,,,,3,,,44,54
827760,note_off,480,0,4,,,,,,,,,,,,,,,3,,,45,0
828000,note_on,0,0,3,,,,,,,,,,,,,,,2,,,53,47
828000,note_off,480,0,3,,,,,,,,,,,,,,,2,,,53,0
828240,note_on,0,0,4,,,,,,,,,,,,,,,3,,,45,53
828240,note_off,480,0,4,,,,,,,,,,,,,,,3,,,44,0
828480,note_on,0,0,3,,,,,,,,,,,,,,,2,,,53,46
828480,note_off,480,0,3,,,,,,,,,,,,,,,2,,,53,0
828720,note_on,0,0,4,,,,,,,,,,,,,,,3,,,46,51
828720,note_off,480,0,4,,,,,,,,,,,,,,,3,,,45,0
828960,note_off,480,0,3,,,,,,,,,,,,,,,2,,,53,0
828960,note_on,0,0,3,,,,,,,,,,,,,,,2,,,53,45
829190,note_off,3350,0,1,,,,,,,,,,,,,,,0,,,62,0
829200,note_off,480,0,4,,,,,,,,,,,,,,,3,,,46,0
829200,note_on,10,0,1,,,,,,,,,,,,,,,0,,,62,55
829200,note_on,0,0,4,,,,,,,,,,,,,,,3,,,45,50
829440,note_on,0,0,3,,,,,,,,,,,,,,,2,,,53,43
829440,note_off,480,0,3,,,,,,,,,,,,,,,2,,,53,0
829680,note_off,480,0,1,,,,,,,,,,,,,,,0,,,62,0
829680,note_on,0,0,1,,,,,,,,,,,,,,,0,,,62,52
829680,note_off,480,0,4,,,,,,,,,,,,,,,3,,,45,0
829680,note_on,0,0,4,,,,,,,,,,,,,,,3,,,46,48
829920,note_off,480,0,3,,,,,,,,,,,,,,,2,,,53,0
829920,note_on,0,0,3,,,,,,,,,,,,,,,2,,,53,42
830040,set_tempo,4200,1,0,,,,,,,487804,,,,,,,,,,,,
830160,note_on,0,0,1,,,,,,,,,,,,,,,0,,,62,50
830160,note_off,480,0,4,,,,,,,,,,,,,,,3,,,46,0
830160,note_on,0,0,4,,,,,,,,,,,,,,,3,,,47,47
830160,note_off,480,0,1,,,,,,,,,,,,,,,0,,,62,0
830160,set_tempo,120,1,0,,,,,,,480000,,,,,,,,,,,,
830400,note_off,480,0,3,,,,,,,,,,,,,,,2,,,53,0
830400,note_on,0,0,3,,,,,,,,,,,,,,,2,,,53,41
830640,note_off,480,0,4,,,,,,,,,,,,,,,3,,,47,0
830640,note_on,0,0,4,,,,,,,,,,,,,,,3,,,43,46
830880,note_off,480,0,3,,,,,,,,,,,,,,,2,,,53,0
830880,note_on,0,0,3,,,,,,,,,,,,,,,2,,,53,39
831120,note_on,0,0,4,,,,,,,,,,,,,,,3,,,45,44
831120,note_off,480,0,4,,,,,,,,,,,,,,,3,,,43,0
831270,set_tempo,1110,1,0,,,,,,,487804,,,,,,,,,,,,
831360,set_tempo,90,1,0,,,,,,,500000,,,,,,,,,,,,
831360,note_off,480,0,3,,,,,,,,,,,,,,,2,,,53,0
831360,note_on,0,0,3,,,,,,,,,,,,,,,2,,,53,38
831360,note_off,240,0,4,,,,,,,,,,,,,,,3,,,45,0
831360,note_on,0,0,4,,,,,,,,,,,,,,,3,,,47,41
831600,note_off,240,0,3,,,,,,,,,,,,,,,2,,,53,0
831600,note_off,240,0,4,,,,,,,,,,,,,,,3,,,47,0
831600,note_on,0,0,4,,,,,,,,,,,,,,,3,,,48,39
831600,note_on,0,0,3,,,,,,,,,,,,,,,2,,,52,39
831600,note_off,1440,0,1,,,,,,,,,,,,,,,0,,,62,0
831600,note_on,0,0,1,,,,,,,,,,,,,,,0,,,60,43
832320,note_off,720,0,4,,,,,,,,,,,,,,,3,,,36,0
832320,note_off,0,0,4,,,,,,,,,,,,,,,3,,,48,0
832560,note_off,960,0,1,,,,,,,,,,,,,,,0,,,60,0
832560,note_off,960,0,3,,,,,,,,,,,,,,,2,,,52,0
834480,note_on,1920,0,1,,,,,,,,,,,,,,,0,,,65,41
834480,note_on,34645,0,2,,,,,,,,,,,,,,,1,,,62,41
834480,note_on,2160,0,4,,,,,,,,,,,,,,,3,,,47,39
834480,set_tempo,3120,1,0,,,,,,,491803,,,,,,,,,,,,
834720,note_on,2160,0,3,,,,,,,,,,,,,,,2,,,55,38
834960,note_off,480,0,4,,,,,,,,,,,,,,,3,,,47,0
834960,note_on,0,0,4,,,,,,,,,,,,,,,3,,,43,36
835200,note_on,0,0,3,,,,,,,,,,,,,,,2,,,55,34
835200,note_off,480,0,3,,,,,,,,,,,,,,,2,,,55,0
835440,note_off,480,0,4,,,,,,,,,,,,,,,3,,,43,0
835440,note_on,0,0,4,,,,,,,,,,,,,,,3,,,45,34
835605,set_tempo,1125,1,0,,,,,,,500000,,,,,,,,,,,,
835680,set_tempo,75,1,0,,,,,,,517241,,,,,,,,,,,,
835680,note_on,0,0,4,,,,,,,,,,,,,,,3,,,47,32
835680,note_on,0,0,3,,,,,,,,,,,,,,,2,,,55,30
835680,note_off,480,0,3,,,,,,,,,,,,,,,2,,,55,0
835680,note_off,240,0,4,,,,,,,,,,,,,,,3,,,45,0
835920,note_off,1440,0,1,,,,,,,,,,,,,,,0,,,65,0
835920,note_off,240,0,4,,,,,,,,,,,,,,,3,,,47,0
835920,note_on,0,0,4,,,,,,,,,,,,,,,3,,,48,31
835920,note_on,0,0,1,,,,,,,,,,,,,,,0,,,64,32
835920,note_on,0,0,2,,,,,,,,,,,,,,,1,,,60,32
835920,note_off,1440,0,2,,,,,,,,,,,,,,,1,,,62,0
836640,note_off,960,0,3,,,,,,,,,,,,,,,2,,,55,0
837000,note_off,1080,0,2,,,,,,,,,,,,,,,1,,,60,0
837015,note_off,1095,0,4,,,,,,,,,,,,,,,3,,,48,0
837030,note_off,1110,0,1,,,,,,,,,,,,,,,0,,,64,0
838800,set_tempo,3120,1,0,,,,,,,500000,,,,,,,,,,,,
838800,note_on,1770,0,1,,,,,,,,,,,,,,,0,,,69,46
838800,note_on,1800,0,2,,,,,,,,,,,,,,,1,,,65,40
838800,note_on,1785,0,4,,,,,,,,,,,,,,,3,,,47,38
839040,note_on,2400,0,3,,,,,,,,,,,,,,,2,,,55,34
839280,note_on,0,0,4,,,,,,,,,,,,,,,3,,,43,41
839280,note_off,480,0,4,,,,,,,,,,,,,,,3,,,47,0
839520,note_on,0,0,3,,,,,,,,,,,,,,,2,,,55,36
839520,note_off,480,0,3,,,,,,,,,,,,,,,2,,,55,0
839760,note_off,480,0,4,,,,,,,,,,,,,,,3,,,43,0
839760,note_on,0,0,4,,,,,,,,,,,,,,,3,,,45,44
840000,note_on,0,0,4,,,,,,,,,,,,,,,3,,,47,46
840000,note_on,0,0,3,,,,,,,,,,,,,,,2,,,55,38
840000,note_off,240,0,4,,,,,,,,,,,,,,,3,,,45,0
840000,note_off,480,0,3,,,,,,,,,,,,,,,2,,,55,0
840030,set_tempo,1230,1,0,,,,,,,508474,,,,,,,,,,,,
840240,note_on,0,0,1,,,,,,,,,,,,,,,0,,,67,51
840240,note_off,1440,0,1,,,,,,,,,,,,,,,0,,,69,0
840240,set_tempo,210,1,0,,,,,,,500000,,,,,,,,,,,,
840240,note_on,0,0,2,,,,,,,,,,,,,,,1,,,64,46
840240,note_off,240,0,4,,,,,,,,,,,,,,,3,,,47,0
840240,note_off,1440,0,2,,,,,,,,,,,,,,,1,,,65,0
840240,note_on,0,0,4,,,,,,,,,,,,,,,3,,,48,47
840480,note_on,0,0,3,,,,,,,,,,,,,,,2,,,55,40
840480,note_off,480,0,3,,,,,,,,,,,,,,,2,,,55,0
840720,note_off,480,0,4,,,,,,,,,,,,,,,3,,,48,0
840720,note_on,0,0,4,,,,,,,,,,,,,,,3,,,43,50
840960,note_off,480,0,3,,,,,,,,,,,,,,,2,,,55,0
840960,note_on,0,0,3,,,,,,,,,,,,,,,2,,,55,41
841200,note_off,480,0,4,,,,,,,,,,,,,,,3,,,43,0
841200,note_on,0,0,4,,,,,,,,,,,,,,,3,,,47,53
841440,note_on,0,0,3,,,,,,,,,,,,,,,2,,,55,43
841440,note_off,480,0,3,,,,,,,,,,,,,,,2,,,55,0
841440,note_on,0,0,4,,,,,,,,,,,,,,,3,,,48,54
841440,note_off,240,0,4,,,,,,,,,,,,,,,3,,,47,0
841470,set_tempo,1230,1,0,,,,,,,508474,,,,,,,,,,,,
841680,note_on,0,0,4,,,,,,,,,,,,,,,3,,,50,55
841680,note_off,1440,0,2,,,,,,,,,,,,,,,1,,,64,0
841680,note_on,0,0,2,,,,,,,,,,,,,,,1,,,59,52
841680,note_off,240,0,4,,,,,,,,,,,,,,,3,,,48,0
841680,note_on,0,0,1,,,,,,,,,,,,,,,0,,,65,57
841680,set_tempo,210,1,0,,,,,,,500000,,,,,,,,,,,,
841680,note_off,1440,0,1,,,,,,,,,,,,,,,0,,,67,0
841920,note_off,480,0,3,,,,,,,,,,,,,,,2,,,55,0
841920,note_on,0,0,3,,,,,,,,,,,,,,,2,,,55,45
842160,note_off,480,0,4,,,,,,,,,,,,,,,3,,,50,0
842160,note_on,0,0,4,,,,,,,,,,,,,,,3,,,43,58
842400,note_on,0,0,3,,,,,,,,,,,,,,,2,,,55,47
842400,note_off,480,0,3,,,,,,,,,,,,,,,2,,,55,0
842610,set_tempo,930,1,0,,,,,,,517241,,,,,,,,,,,,
842640,note_off,480,0,4,,,,,,,,,,,,,,,3,,,43,0
842640,note_on,0,0,4,,,,,,,,,,,,,,,3,,,49,65
842880,note_off,240,0,4,,,,,,,,,,,,,,,3,,,49,0
842880,note_on,0,0,4,,,,,,,,,,,,,,,3,,,50,69
842880,note_off,480,0,3,,,,,,,,,,,,,,,2,,,55,0
842880,note_on,0,0,3,,,,,,,,,,,,,,,2,,,55,49
842895,set_tempo,285,1,0,,,,,,,625000,,,,,,,,,,,,
843120,note_on,0,0,1,,,,,,,,,,,,,,,0,,,65,68
843120,note_on,0,0,2,,,,,,,,,,,,,,,1,,,59,68
843120,note_off,1440,0,2,,,,,,,,,,,,,,,1,,,59,0
843120,note_on,0,0,3,,,,,,,,,,,,,,,2,,,55,60
843120,note_off,240,0,3,,,,,,,,,,,,,,,2,,,55,0
843120,control_change,240,0,4,,,,,,,,,,,,,64,127,3,,,,
843120,note_off,0,0,4,,,,,,,,,,,,,,,3,,,50,0
843120,note_off,1440,0,1,,,,,,,,,,,,,,,0,,,65,0
843120,note_on,0,0,4,,,,,,,,,,,,,,,3,,,36,75
843120,note_on,0,0,4,,,,,,,,,,,,,,,3,,,50,75
844455,set_tempo,1560,1,0,,,,,,,576923,,,,,,,,,,,,
844560,note_on,0,0,2,,,,,,,,,,,,,,,1,,,55,41
844560,note_on,0,0,2,,,,,,,,,,,,,,,1,,,60,41
844560,note_off,1440,0,2,,,,,,,,,,,,,,,1,,,59,0
844560,note_off,1440,0,1,,,,,,,,,,,,,,,0,,,65,0
844560,set_tempo,105,1,0,,,,,,,750000,,,,,,,,,,,,
844560,note_off,1440,0,3,,,,,,,,,,,,,,,2,,,55,0
844560,note_on,0,0,1,,,,,,,,,,,,,,,0,,,64,41
844560,note_on,0,0,4,,,,,,,,,,,,,,,3,,,48,40
844560,note_off,1440,0,4,,,,,,,,,,,,,,,3,,,50,0
844800,note_off,240,0,1,,,,,,,,,,,,,,,0,,,64,0
844800,note_on,0,0,1,,,,,,,,,,,,,,,0,,,59,43
844800,note_off,240,0,2,,,,,,,,,,,,,,,1,,,60,0
844800,set_tempo,240,1,0,,,,,,,571428,,,,,,,,,,,,
844800,note_off,0,0,2,,,,,,,,,,,,,,,1,,,55,0
845040,set_tempo,240,1,0,,,,,,,571428,,,,,,,,,,,,
845040,note_off,240,0,1,,,,,,,,,,,,,,,0,,,59,0
845040,note_on,0,0,1,,,,,,,,,,,,,,,0,,,60,42
845195,note_off,155,0,1,,,,,,,,,,,,,,,0,,,60,0
845280,set_tempo,240,1,0,,,,,,,582524,,,,,,,,,,,,
845280,note_on,85,0,1,,,,,,,,,,,,,,,0,,,63,42
845505,note_off,945,0,4,,,,,,,,,,,,,,,3,,,36,0
845520,note_off,15,0,4,,,,,,,,,,,,,,,3,,,48,0
845520,note_off,240,0,1,,,,,,,,,,,,,,,0,,,63,0
845520,note_on,0,0,1,,,,,,,,,,,,,,,0,,,64,41
845535,set_tempo,255,1,0,,,,,,,600000,,,,,,,,,,,,
845660,note_off,140,0,1,,,,,,,,,,,,,,,0,,,64,0
845760,note_on,100,0,1,,,,,,,,,,,,,,,0,,,66,40
845767,set_tempo,232,1,0,,,,,,,612244,,,,,,,,,,,,
846000,note_on,0,0,1,,,,,,,,,,,,,,,0,,,67,39
846000,note_off,240,0,1,,,,,,,,,,,,,,,0,,,66,0
846015,set_tempo,248,1,0,,,,,,,625000,,,,,,,,,,,,
846155,note_off,155,0,1,,,,,,,,,,,,,,,0,,,67,0
846240,note_on,85,0,1,,,,,,,,,,,,,,,0,,,71,38
846260,set_tempo,245,1,0,,,,,,,638297,,,,,,,,,,,,
846480,note_on,0,0,1,,,,,,,,,,,,,,,0,,,72,37
846480,note_off,240,0,1,,,,,,,,,,,,,,,0,,,71,0
846517,set_tempo,257,1,0,,,,,,,659340,,,,,,,,,,,,
846635,note_off,155,0,1,,,,,,,,,,,,,,,0,,,72,0
846720,note_on,85,0,1,,,,,,,,,,,,,,,0,,,75,37
846730,set_tempo,213,1,0,,,,,,,689655,,,,,,,,,,,,
846960,note_on,0,0,1,,,,,,,,,,,,,,,0,,,76,36
846960,note_off,240,0,1,,,,,,,,,,,,,,,0,,,75,0
846980,set_tempo,250,1,0,,,,,,,810810,,,,,,,,,,,,
847115,note_off,155,0,1,,,,,,,,,,,,,,,0,,,76,0
847200,set_tempo,220,1,0,,,,,,,1276595,,,,,,,,,,,,
847200,note_on,85,0,1,,,,,,,,,,,,,,,0,,,79,35
847355,note_off,155,0,1,,,,,,,,,,,,,,,0,,,79,0
847440,control_change,1920,0,4,,,,,,,,,,,,,64,0,3,,,,
847440,note_on,0,0,4,,,,,,,,,,,,,,,3,,,74,35
847440,note_on,0,0,4,,,,,,,,,,,,,,,3,,,67,35
847440,note_on,2640,0,2,,,,,,,,,,,,,,,1,,,77,35
847440,note_on,85,0,1,,,,,,,,,,,,,,,0,,,83,34
848880,note_off,1440,0,4,,,,,,,,,,,,,,,3,,,74,0
848880,note_off,0,0,4,,,,,,,,,,,,,,,3,,,67,0
848880,note_on,0,0,4,,,,,,,,,,,,,,,3,,,72,27
848880,note_on,0,0,4,,,,,,,,,,,,,,,3,,,60,27
848880,note_off,1440,0,2,,,,,,,,,,,,,,,1,,,77,0
848880,note_on,0,0,2,,,,,,,,,,,,,,,1,,,76,28
848880,note_off,1440,0,1,,,,,,,,,,,,,,,0,,,83,0
848880,note_on,0,0,1,,,,,,,,,,,,,,,0,,,84,29
849840,note_off,960,0,2,,,,,,,,,,,,,,,1,,,76,0
850560,note_off,1680,0,1,,,,,,,,,,,,,,,0,,,84,0
850560,note_off,1680,0,4,,,,,,,,,,,,,,,3,,,60,0
850590,note_off,30,0,4,,,,,,,,,,,,,,,3,,,72,0
851760,control_change,0,0,4,,,,,,,,,,,,,0,0,3,,,,
851760,control_change,0,0,4,,,,,,,,,,,,,10,55,3,,,,
851760,control_change,0,0,2,,,,,,,,,,,,,10,64,1,,,,
851760,control_change,0,0,2,,,,,,,,,,,,,32,0,1,,,,
851760,control_change,0,0,2,,,,,,,,,,,,,0,0,1,,,,
851760,control_change,0,0,2,,,,,,,,,,,,,91,91,1,,,,
851760,control_change,0,0,2,,,,,,,,,,,,,93,28,1,,,,
851760,control_change,0,0,2,,,,,,,,,,,,,64,0,1,,,,
851760,control_change,0,0,2,,,,,,,,,,,,,1,0,1,,,,
851760,pitchwheel,0,0,2,,,,,,,,,,,,,,,1,,0,,
851760,control_change,1920,0,2,,,,,,,,,,,,,7,117,1,,,,
851760,control_change,0,0,4,,,,,,,,,,,,,32,0,3,,,,
851760,program_change,0,0,4,,,,,,,,,,,,,,,3,0,,,
851760,program_change,0,0,2,,,,,,,,,,,,,,,1,0,,,
851760,control_change,0,0,4,,,,,,,,,,,,,93,28,3,,,,
851760,control_change,0,0,4,,,,,,,,,,,,,91,91,3,,,,
851760,control_change,0,0,4,,,,,,,,,,,,,1,0,3,,,,
851760,control_change,0,0,1,,,,,,,,,,,,,1,0,0,,,,
851760,control_change,0,0,1,,,,,,,,,,,,,7,127,0,,,,
851760,control_change,0,0,1,,,,,,,,,,,,,0,0,0,,,,
851760,control_change,0,0,1,,,,,,,,,,,,,32,0,0,,,,
851760,pitchwheel,0,0,1,,,,,,,,,,,,,,,0,,0,,
851760,program_change,0,0,1,,,,,,,,,,,,,,,0,0,,,
851760,control_change,0,0,4,,,,,,,,,,,,,64,0,3,,,,
851760,control_change,0,0,3,,,,,,,,,,,,,10,55,2,,,,
851760,program_change,0,0,3,,,,,,,,,,,,,,,2,0,,,
851760,program_change,0,0,3,,,,,,,,,,,,,,,2,0,,,
851760,control_change,0,0,3,,,,,,,,,,,,,32,0,2,,,,
851760,control_change,0,0,3,,,,,,,,,,,,,32,0,2,,,,
851760,control_change,0,0,3,,,,,,,,,,,,,0,0,2,,,,
851760,control_change,0,0,3,,,,,,,,,,,,,0,0,2,,,,
851760,control_change,0,0,3,,,,,,,,,,,,,7,112,2,,,,
851760,pitchwheel,0,0,3,,,,,,,,,,,,,,,2,,0,,
851760,pitchwheel,0,0,3,,,,,,,,,,,,,,,2,,0,,
851760,control_change,0,0,3,,,,,,,,,,,,,1,0,2,,,,
851760,control_change,0,0,3,,,,,,,,,,,,,1,0,2,,,,
851760,control_change,0,0,3,,,,,,,,,,,,,64,0,2,,,,
851760,control_change,0,0,3,,,,,,,,,,,,,64,0,2,,,,
851760,set_tempo,4560,1,0,,,,,,,240000,,,,,,,,,,,,
851760,time_signature,0,1,0,,,,,,,,2,2,24,8,,,,,,,,
851760,marker,0,1,0,,,,,,,,,,,,,,,,,,,
851760,control_change,0,0,3,,,,,,,,,,,,,93,28,2,,,,
851760,control_change,0,0,3,,,,,,,,,,,,,93,28,2,,,,
851760,control_change,0,0,3,,,,,,,,,,,,,91,91,2,,,,
851760,control_change,0,0,3,,,,,,,,,,,,,91,91,2,,,,
851760,control_change,7200,0,3,,,,,,,,,,,,,10,64,2,,,,
851760,control_change,0,0,1,,,,,,,,,,,,,64,0,0,,,,
851760,control_change,0,0,1,,,,,,,,,,,,,93,28,0,,,,
851760,control_change,0,0,3,,,,,,,,,,,,,7,122,2,,,,
851760,control_change,0,0,1,,,,,,,,,,,,,91,91,0,,,,
851760,control_change,1200,0,1,,,,,,,,,,,,,10,73,0,,,,
851760,pitchwheel,0,0,4,,,,,,,,,,,,,,,3,,0,,
851760,control_change,1170,0,4,,,,,,,,,,,,,7,122,3,,,,
854445,set_tempo,2685,1,0,,,,,,,297029,,,,,,,,,,,,
854560,note_on,2800,0,1,,,,,,,,,,,,,,,0,,,76,55
854640,note_on,0,0,1,,,,,,,,,,,,,,,0,,,74,59
854640,note_off,80,0,1,,,,,,,,,,,,,,,0,,,76,0
854880,note_off,240,0,1,,,,,,,,,,,,,,,0,,,74,0
854880,note_on,0,0,1,,,,,,,,,,,,,,,0,,,73,57
855120,note_off,240,0,1,,,,,,,,,,,,,,,0,,,73,0
855120,note_on,0,0,1,,,,,,,,,,,,,,,0,,,74,55
855360,note_off,240,0,1,,,,,,,,,,,,,,,0,,,74,0
855360,note_on,0,0,1,,,,,,,,,,,,,,,0,,,76,52
855600,note_off,240,0,1,,,,,,,,,,,,,,,0,,,76,0
855600,note_on,3840,0,4,,,,,,,,,,,,,,,3,,,50,50
855600,note_on,0,0,1,,,,,,,,,,,,,,,0,,,74,50
855960,note_off,360,0,1,,,,,,,,,,,,,,,0,,,74,0
856080,note_on,120,0,1,,,,,,,,,,,,,,,0,,,62,51
856080,note_on,480,0,4,,,,,,,,,,,,,,,3,,,59,51
856560,note_off,480,0,4,,,,,,,,,,,,,,,3,,,59,0
856560,note_on,0,0,4,,,,,,,,,,,,,,,3,,,60,52
856560,note_on,480,0,1,,,,,,,,,,,,,,,0,,,64,52
857040,note_off,480,0,1,,,,,,,,,,,,,,,0,,,64,0
857040,note_off,480,0,4,,,,,,,,,,,,,,,3,,,60,0
857040,note_on,0,0,4,,,,,,,,,,,,,,,3,,,57,53
857040,note_on,0,0,1,,,,,,,,,,,,,,,0,,,66,54
857520,note_off,480,0,4,,,,,,,,,,,,,,,3,,,57,0
857520,note_on,0,0,4,,,,,,,,,,,,,,,3,,,59,54
857520,note_on,0,0,1,,,,,,,,,,,,,,,0,,,67,56
857520,note_off,480,0,1,,,,,,,,,,,,,,,0,,,66,0
858000,note_on,0,0,4,,,,,,,,,,,,,,,3,,,55,56
858000,note_off,480,0,4,,,,,,,,,,,,,,,3,,,59,0
858480,note_off,480,0,4,,,,,,,,,,,,,,,3,,,55,0
858480,note_off,960,0,1,,,,,,,,,,,,,,,0,,,67,0
858480,note_on,0,0,1,,,,,,,,,,,,,,,0,,,71,59
858480,note_on,0,0,4,,,,,,,,,,,,,,,3,,,54,57
858720,note_off,240,0,1,,,,,,,,,,,,,,,0,,,71,0
858720,note_on,0,0,1,,,,,,,,,,,,,,,0,,,69,60
858915,note_off,435,0,4,,,,,,,,,,,,,,,3,,,50,0
858960,note_off,240,0,1,,,,,,,,,,,,,,,0,,,69,0
858960,note_on,0,0,4,,,,,,,,,,,,,,,3,,,50,58
858960,note_off,45,0,4,,,,,,,,,,,,,,,3,,,54,0
858960,note_on,0,0,1,,,,,,,,,,,,,,,0,,,67,61
859200,set_tempo,4755,1,0,,,,,,,298507,,,,,,,,,,,,
859200,note_off,240,0,1,,,,,,,,,,,,,,,0,,,67,0
859200,note_on,0,0,1,,,,,,,,,,,,,,,0,,,69,62
859440,note_on,0,0,1,,,,,,,,,,,,,,,0,,,71,62
859440,note_off,240,0,1,,,,,,,,,,,,,,,0,,,69,0
859440,note_on,480,0,4,,,,,,,,,,,,,,,3,,,55,59
859855,note_off,415,0,4,,,,,,,,,,,,,,,3,,,55,0
859920,note_on,65,0,4,,,,,,,,,,,,,,,3,,,54,60
859920,note_on,0,0,1,,,,,,,,,,,,,,,0,,,67,64
859920,note_off,480,0,1,,,,,,,,,,,,,,,0,,,62,0
859920,note_off,0,0,1,,,,,,,,,,,,,,,0,,,71,0
860400,note_on,0,0,4,,,,,,,,,,,,,,,3,,,52,61
860400,note_on,480,0,1,,,,,,,,,,,,,,,0,,,73,66
860400,note_off,480,0,4,,,,,,,,,,,,,,,3,,,54,0
860880,note_off,480,0,4,,,,,,,,,,,,,,,3,,,52,0
860880,set_tempo,1680,1,0,,,,,,,300000,,,,,,,,,,,,
860880,note_on,0,0,4,,,,,,,,,,,,,,,3,,,61,62
860880,note_on,0,0,1,,,,,,,,,,,,,,,0,,,69,67
860880,note_on,9120,0,2,,,,,,,,,,,,,,,1,,,67,67
860880,note_off,480,0,1,,,,,,,,,,,,,,,0,,,67,0
860880,note_off,0,0,1,,,,,,,,,,,,,,,0,,,73,0
861330,note_off,450,0,4,,,,,,,,,,,,,,,3,,,50,0
861360,note_off,30,0,4,,,,,,,,,,,,,,,3,,,61,0
861360,note_off,480,0,2,,,,,,,,,,,,,,,1,,,67,0
861360,note_on,0,0,2,,,,,,,,,,,,,,,1,,,66,69
861360,note_off,480,0,1,,,,,,,,,,,,,,,0,,,69,0
861360,note_on,0,0,1,,,,,,,,,,,,,,,0,,,74,69
861360,note_on,0,0,4,,,,,,,,,,,,,,,3,,,50,63
861840,note_on,480,0,4,,,,,,,,,,,,,,,3,,,62,79
861855,set_tempo,975,1,0,,,,,,,309278,,,,,,,,,,,,
862185,set_tempo,330,1,0,,,,,,,297029,,,,,,,,,,,,
862240,note_on,880,0,1,,,,,,,,,,,,,,,0,,,76,62
862320,note_on,0,0,1,,,,,,,,,,,,,,,0,,,74,62
862320,note_off,0,0,1,,,,,,,,,,,,,,,0,,,76,0
862320,note_off,80,0,1,,,,,,,,,,,,,,,0,,,74,0
862320,note_off,960,0,2,,,,,,,,,,,,,,,1,,,66,0
862560,note_off,240,0,1,,,,,,,,,,,,,,,0,,,74,0
862560,note_on,0,0,1,,,,,,,,,,,,,,,0,,,73,60
862800,note_on,0,0,4,,,,,,,,,,,,,,,3,,,61,62
862800,note_off,240,0,1,,,,,,,,,,,,,,,0,,,73,0
862800,note_on,0,0,1,,,,,,,,,,,,,,,0,,,74,58
862800,note_off,960,0,4,,,,,,,,,,,,,,,3,,,62,0
863040,note_off,240,0,1,,,,,,,,,,,,,,,0,,,74,0
863040,note_on,0,0,1,,,,,,,,,,,,,,,0,,,76,56
863280,note_off,240,0,1,,,,,,,,,,,,,,,0,,,76,0
863280,note_on,0,0,1,,,,,,,,,,,,,,,0,,,74,55
863280,note_off,480,0,4,,,,,,,,,,,,,,,3,,,61,0
863280,note_on,0,0,4,,,,,,,,,,,,,,,3,,,60,58
863640,note_off,360,0,1,,,,,,,,,,,,,,,0,,,74,0
863760,note_on,120,0,1,,,,,,,,,,,,,,,0,,,62,55
863760,note_off,480,0,4,,,,,,,,,,,,,,,3,,,60,0
863760,note_on,0,0,4,,,,,,,,,,,,,,,3,,,59,53
864240,note_on,480,0,1,,,,,,,,,,,,,,,0,,,64,57
864240,note_off,480,0,4,,,,,,,,,,,,,,,3,,,59,0
864240,note_on,0,0,4,,,,,,,,,,,,,,,3,,,60,53
864720,note_on,0,0,1,,,,,,,,,,,,,,,0,,,66,59
864720,note_off,480,0,1,,,,,,,,,,,,,,,0,,,64,0
864720,note_off,480,0,4,,,,,,,,,,,,,,,3,,,60,0
864720,note_on,0,0,4,,,,,,,,,,,,,,,3,,,57,54
865200,note_on,0,0,4,,,,,,,,,,,,,,,3,,,59,56
865200,note_off,480,0,4,,,,,,,,,,,,,,,3,,,57,0
865200,note_on,0,0,1,,,,,,,,,,,,,,,0,,,67,61
865200,note_off,480,0,1,,,,,,,,,,,,,,,0,,,66,0
865200,note_on,0,0,4,,,,,,,,,,,,,,,3,,,55,56
865680,note_off,480,0,4,,,,,,,,,,,,,,,3,,,59,0
865680,note_off,0,0,4,,,,,,,,,,,,,,,3,,,55,0
865730,note_on,50,0,4,,,,,,,,,,,,,,,3,,,55,58
866160,note_off,960,0,1,,,,,,,,,,,,,,,0,,,67,0
866160,note_on,0,0,1,,,,,,,,,,,,,,,0,,,71,65
866160,note_on,430,0,4,,,,,,,,,,,,,,,3,,,54,59
866210,note_off,50,0,4,,,,,,,,,,,,,,,3,,,55,0
866400,note_on,0,0,1,,,,,,,,,,,,,,,0,,,69,66
866400,note_off,240,0,1,,,,,,,,,,,,,,,0,,,71,0
866640,note_off,0,0,4,,,,,,,,,,,,,,,3,,,54,0
866640,note_on,0,0,1,,,,,,,,,,,,,,,0,,,67,67
866640,note_off,240,0,1,,,,,,,,,,,,,,,0,,,69,0
866640,note_off,430,0,4,,,,,,,,,,,,,,,3,,,50,0
866640,note_on,0,0,4,,,,,,,,,,,,,,,3,,,50,61
866880,note_on,0,0,1,,,,,,,,,,,,,,,0,,,69,68
866880,note_off,240,0,1,,,,,,,,,,,,,,,0,,,67,0
866880,set_tempo,4695,1,0,,,,,,,298507,,,,,,,,,,,,
867120,note_on,480,0,4,,,,,,,,,,,,,,,3,,,55,62
867120,note_on,0,0,1,,,,,,,,,,,,,,,0,,,71,71
867120,note_off,240,0,1,,,,,,,,,,,,,,,0,,,69,0
867600,note_off,480,0,4,,,,,,,,,,,,,,,3,,,55,0
867600,note_on,0,0,4,,,,,,,,,,,,,,,3,,,52,64
867600,note_on,0,0,1,,,,,,,,,,,,,,,0,,,67,66
867600,note_off,0,0,1,,,,,,,,,,,,,,,0,,,71,0
867600,note_off,480,0,1,,,,,,,,,,,,,,,0,,,62,0
867600,note_on,5280,0,2,,,,,,,,,,,,,,,1,,,64,66
868080,note_on,0,0,1,,,,,,,,,,,,,,,0,,,72,61
868080,note_on,480,0,2,,,,,,,,,,,,,,,1,,,69,61
868080,note_off,480,0,1,,,,,,,,,,,,,,,0,,,67,0
868080,note_off,480,0,4,,,,,,,,,,,,,,,3,,,50,0
868080,note_off,0,0,4,,,,,,,,,,,,,,,3,,,52,0
868080,note_on,0,0,4,,,,,,,,,,,,,,,3,,,48,66
868560,note_off,0,0,2,,,,,,,,,,,,,,,1,,,69,0
868560,note_on,0,0,2,,,,,,,,,,,,,,,1,,,60,55
868560,note_on,0,0,2,,,,,,,,,,,,,,,1,,,66,55
868560,note_off,480,0,4,,,,,,,,,,,,,,,3,,,48,0
868560,note_off,480,0,1,,,,,,,,,,,,,,,0,,,72,0
868560,note_on,0,0,4,,,,,,,,,,,,,,,3,,,50,67
868560,note_off,480,0,2,,,,,,,,,,,,,,,1,,,64,0
868560,note_on,0,0,1,,,,,,,,,,,,,,,0,,,69,55
868575,set_tempo,1695,1,0,,,,,,,300000,,,,,,,,,,,,
869040,note_off,480,0,1,,,,,,,,,,,,,,,0,,,69,0
869040,note_on,0,0,1,,,,,,,,,,,,,,,0,,,67,50
869040,note_on,0,0,2,,,,,,,,,,,,,,,1,,,59,50
869040,note_off,480,0,2,,,,,,,,,,,,,,,1,,,60,0
869040,note_off,480,0,4,,,,,,,,,,,,,,,3,,,50,0
869040,note_on,0,0,4,,,,,,,,,,,,,,,3,,,43,69
869040,note_off,0,0,2,,,,,,,,,,,,,,,1,,,66,0
869520,note_off,480,0,1,,,,,,,,,,,,,,,0,,,67,0
869520,note_on,0,0,4,,,,,,,,,,,,,,,3,,,55,80
869520,note_off,480,0,2,,,,,,,,,,,,,,,1,,,59,0
869520,set_tempo,945,1,0,,,,,,,309278,,,,,,,,,,,,
869520,note_off,480,0,4,,,,,,,,,,,,,,,3,,,43,0
869760,set_tempo,240,1,0,,,,,,,297029,,,,,,,,,,,,
870000,note_on,480,0,1,,,,,,,,,,,,,,,0,,,79,58
870000,note_on,480,0,2,,,,,,,,,,,,,,,1,,,71,58
870480,note_on,960,0,4,,,,,,,,,,,,,,,3,,,57,54
870480,note_on,0,0,1,,,,,,,,,,,,,,,0,,,78,60
870480,note_off,480,0,1,,,,,,,,,,,,,,,0,,,79,0
870480,note_off,480,0,2,,,,,,,,,,,,,,,1,,,71,0
870480,note_on,0,0,2,,,,,,,,,,,,,,,1,,,72,60
870960,note_on,0,0,4,,,,,,,,,,,,,,,3,,,59,57
870960,note_off,480,0,4,,,,,,,,,,,,,,,3,,,57,0
870960,note_on,0,0,1,,,,,,,,,,,,,,,0,,,77,62
870960,note_off,480,0,1,,,,,,,,,,,,,,,0,,,78,0
870960,note_on,0,0,2,,,,,,,,,,,,,,,1,,,74,62
870960,note_off,480,0,2,,,,,,,,,,,,,,,1,,,72,0
871440,note_on,0,0,4,,,,,,,,,,,,,,,3,,,60,60
871440,note_off,480,0,4,,,,,,,,,,,,,,,3,,,59,0
871440,note_on,0,0,2,,,,,,,,,,,,,,,1,,,67,64
871440,note_off,480,0,2,,,,,,,,,,,,,,,1,,,74,0
871440,note_off,480,0,1,,,,,,,,,,,,,,,0,,,77,0
871440,note_on,0,0,1,,,,,,,,,,,,,,,0,,,76,64
871920,note_on,0,0,1,,,,,,,,,,,,,,,0,,,75,66
871920,note_off,480,0,2,,,,,,,,,,,,,,,1,,,67,0
871920,note_off,480,0,4,,,,,,,,,,,,,,,3,,,60,0
871920,note_on,0,0,2,,,,,,,,,,,,,,,1,,,67,66
871920,note_on,0,0,2,,,,,,,,,,,,,,,1,,,72,66
871920,note_on,0,0,4,,,,,,,,,,,,,,,3,,,63,63
871920,note_off,480,0,1,,,,,,,,,,,,,,,0,,,76,0
872400,note_off,480,0,1,,,,,,,,,,,,,,,0,,,75,0
872400,note_on,0,0,2,,,,,,,,,,,,,,,1,,,72,68
872400,note_off,480,0,2,,,,,,,,,,,,,,,1,,,67,0
872400,note_on,0,0,1,,,,,,,,,,,,,,,0,,,75,68
872400,note_off,480,0,4,,,,,,,,,,,,,,,3,,,63,0
872400,note_on,0,0,4,,,,,,,,,,,,,,,3,,,66,65
872400,note_on,0,0,2,,,,,,,,,,,,,,,1,,,69,68
872400,note_off,0,0,2,,,,,,,,,,,,,,,1,,,72,0
872625,set_tempo,2865,1,0,,,,,,,301507,,,,,,,,,,,,
872880,note_off,480,0,4,,,,,,,,,,,,,,,3,,,66,0
872880,note_on,0,0,2,,,,,,,,,,,,,,,1,,,72,70
872880,note_off,480,0,1,,,,,,,,,,,,,,,0,,,75,0
872880,note_on,0,0,1,,,,,,,,,,,,,,,0,,,75,70
872880,note_off,480,0,2,,,,,,,,,,,,,,,1,,,69,0
872880,note_on,0,0,4,,,,,,,,,,,,,,,3,,,67,68
872880,note_off,0,0,2,,,,,,,,,,,,,,,1,,,72,0
873330,note_off,450,0,4,,,,,,,,,,,,,,,3,,,55,0
873360,note_off,480,0,2,,,,,,,,,,,,,,,1,,,72,0
873360,note_on,0,0,1,,,,,,,,,,,,,,,0,,,74,66
873360,note_off,480,0,1,,,,,,,,,,,,,,,0,,,75,0
873360,note_on,0,0,2,,,,,,,,,,,,,,,1,,,71,66
873360,note_off,30,0,4,,,,,,,,,,,,,,,3,,,67,0
873360,note_on,0,0,4,,,,,,,,,,,,,,,3,,,55,63
873780,set_tempo,1155,1,0,,,,,,,304568,,,,,,,,,,,,
873840,note_on,0,0,2,,,,,,,,,,,,,,,1,,,66,63
873840,note_off,480,0,1,,,,,,,,,,,,,,,0,,,74,0
873840,note_on,0,0,2,,,,,,,,,,,,,,,1,,,69,63
873840,note_off,480,0,2,,,,,,,,,,,,,,,1,,,71,0
873840,note_off,480,0,4,,,,,,,,,,,,,,,3,,,55,0
873840,note_on,0,0,4,,,,,,,,,,,,,,,3,,,62,61
873840,note_on,0,0,1,,,,,,,,,,,,,,,0,,,76,63
873855,set_tempo,75,1,0,,,,,,,297029,,,,,,,,,,,,
874080,note_off,240,0,1,,,,,,,,,,,,,,,0,,,76,0
874080,note_on,0,0,1,,,,,,,,,,,,,,,0,,,74,61
874320,note_on,0,0,1,,,,,,,,,,,,,,,0,,,73,60
874320,note_off,240,0,1,,,,,,,,,,,,,,,0,,,74,0
874320,note_on,0,0,4,,,,,,,,,,,,,,,3,,,50,59
874320,note_off,480,0,4,,,,,,,,,,,,,,,3,,,62,0
874560,note_on,0,0,1,,,,,,,,,,,,,,,0,,,74,58
874560,note_off,240,0,1,,,,,,,,,,,,,,,0,,,73,0
874800,note_on,0,0,1,,,,,,,,,,,,,,,0,,,71,56
874800,note_off,240,0,1,,,,,,,,,,,,,,,0,,,74,0
874800,note_off,960,0,2,,,,,,,,,,,,,,,1,,,69,0
874800,note_off,480,0,4,,,,,,,,,,,,,,,3,,,50,0
874800,note_on,0,0,4,,,,,,,,,,,,,,,3,,,55,58
874800,note_off,0,0,2,,,,,,,,,,,,,,,1,,,66,0
874800,note_on,0,0,2,,,,,,,,,,,,,,,1,,,62,56
874800,note_on,0,0,2,,,,,,,,,,,,,,,1,,,67,56
875280,note_on,0,0,1,,,,,,,,,,,,,,,0,,,74,53
875280,note_off,480,0,1,,,,,,,,,,,,,,,0,,,71,0
875280,note_on,0,0,4,,,,,,,,,,,,,,,3,,,43,56
875280,note_off,480,0,4,,,,,,,,,,,,,,,3,,,55,0
875700,set_tempo,1845,1,0,,,,,,,298507,,,,,,,,,,,,
875760,note_on,0,0,4,,,,,,,,,,,,,,,3,,,50,54
875760,set_tempo,60,1,0,,,,,,,297029,,,,,,,,,,,,
875760,note_on,0,0,2,,,,,,,,,,,,,,,1,,,66,50
875760,note_on,0,0,1,,,,,,,,,,,,,,,0,,,76,50
875760,note_off,480,0,4,,,,,,,,,,,,,,,3,,,43,0
875760,note_off,480,0,1,,,,,,,,,,,,,,,0,,,74,0
875760,note_on,0,0,2,,,,,,,,,,,,,,,1,,,69,50
875760,note_off,0,0,2,,,,,,,,,,,,,,,1,,,67,0
875760,note_off,960,0,2,,,,,,,,,,,,,,,1,,,62,0
876000,note_off,240,0,1,,,,,,,,,,,,,,,0,,,76,0
876000,note_on,0,0,1,,,,,,,,,,,,,,,0,,,74,49
876240,note_off,240,0,1,,,,,,,,,,,,,,,0,,,74,0
876240,note_off,480,0,4,,,,,,,,,,,,,,,3,,,50,0
876240,note_on,0,0,4,,,,,,,,,,,,,,,3,,,38,52
876240,note_on,0,0,1,,,,,,,,,,,,,,,0,,,73,47
876450,set_tempo,690,1,0,,,,,,,300000,,,,,,,,,,,,
876480,note_on,0,0,1,,,,,,,,,,,,,,,0,,,74,46
876480,note_off,240,0,1,,,,,,,,,,,,,,,0,,,73,0
876720,note_on,0,0,2,,,,,,,,,,,,,,,1,,,62,44
876720,note_on,0,0,2,,,,,,,,,,,,,,,1,,,67,44
876720,note_on,0,0,4,,,,,,,,,,,,,,,3,,,43,50
876720,note_off,480,0,4,,,,,,,,,,,,,,,3,,,38,0
876720,note_off,240,0,1,,,,,,,,,,,,,,,0,,,74,0
876720,note_off,0,0,2,,,,,,,,,,,,,,,1,,,66,0
876720,note_on,0,0,1,,,,,,,,,,,,,,,0,,,71,44
876720,note_off,960,0,2,,,,,,,,,,,,,,,1,,,69,0
877200,note_off,480,0,1,,,,,,,,,,,,,,,0,,,71,0
877200,note_off,0,0,2,,,,,,,,,,,,,,,1,,,62,0
877200,note_on,0,0,4,,,,,,,,,,,,,,,3,,,55,48
877200,note_off,480,0,4,,,,,,,,,,,,,,,3,,,43,0
877200,note_off,480,0,2,,,,,,,,,,,,,,,1,,,67,0
877440,set_tempo,990,1,0,,,,,,,309278,,,,,,,,,,,,
877665,set_tempo,225,1,0,,,,,,,297029,,,,,,,,,,,,
877680,note_on,480,0,1,,,,,,,,,,,,,,,0,,,79,48
877680,note_on,480,0,2,,,,,,,,,,,,,,,1,,,71,48
878160,note_off,480,0,1,,,,,,,,,,,,,,,0,,,79,0
878160,note_on,0,0,1,,,,,,,,,,,,,,,0,,,78,51
878160,note_on,960,0,4,,,,,,,,,,,,,,,3,,,57,50
878160,note_on,0,0,2,,,,,,,,,,,,,,,1,,,72,51
878160,note_off,480,0,2,,,,,,,,,,,,,,,1,,,71,0
878640,note_on,0,0,4,,,,,,,,,,,,,,,3,,,59,53
878640,note_off,480,0,4,,,,,,,,,,,,,,,3,,,57,0
878640,note_off,480,0,1,,,,,,,,,,,,,,,0,,,78,0
878640,note_on,0,0,1,,,,,,,,,,,,,,,0,,,77,53
878640,note_off,480,0,2,,,,,,,,,,,,,,,1,,,72,0
878640,note_on,0,0,2,,,,,,,,,,,,,,,1,,,74,53
879120,note_on,0,0,1,,,,,,,,,,,,,,,0,,,76,56
879120,note_off,480,0,1,,,,,,,,,,,,,,,0,,,77,0
879120,note_off,480,0,2,,,,,,,,,,,,,,,1,,,74,0
879120,note_on,0,0,2,,,,,,,,,,,,,,,1,,,67,56
879120,note_on,0,0,4,,,,,,,,,,,,,,,3,,,60,55
879120,note_off,480,0,4,,,,,,,,,,,,,,,3,,,59,0
879600,note_on,0,0,2,,,,,,,,,,,,,,,1,,,72,58
879600,note_on,0,0,4,,,,,,,,,,,,,,,3,,,63,58
879600,note_off,480,0,4,,,,,,,,,,,,,,,3,,,60,0
879600,note_off,480,0,2,,,,,,,,,,,,,,,1,,,67,0
879600,note_on,0,0,2,,,,,,,,,,,,,,,1,,,67,58
879600,note_on,0,0,1,,,,,,,,,,,,,,,0,,,75,58
879600,note_off,480,0,1,,,,,,,,,,,,,,,0,,,76,0
880080,note_off,0,0,2,,,,,,,,,,,,,,,1,,,72,0
880080,note_on,0,0,2,,,,,,,,,,,,,,,1,,,72,61
880080,note_off,480,0,2,,,,,,,,,,,,,,,1,,,67,0
880080,note_on,0,0,2,,,,,,,,,,,,,,,1,,,69,61
880080,note_on,0,0,4,,,,,,,,,,,,,,,3,,,66,60
880080,note_off,480,0,4,,,,,,,,,,,,,,,3,,,63,0
880080,note_off,480,0,1,,,,,,,,,,,,,,,0,,,75,0
880080,note_on,0,0,1,,,,,,,,,,,,,,,0,,,75,61
880320,set_tempo,2655,1,0,,,,,,,301507,,,,,,,,,,,,
880560,note_on,0,0,2,,,,,,,,,,,,,,,1,,,72,63
880560,note_off,480,0,4,,,,,,,,,,,,,,,3,,,66,0
880560,note_off,480,0,1,,,,,,,,,,,,,,,0,,,75,0
880560,note_on,0,0,1,,,,,,,,,,,,,,,0,,,75,63
880560,note_off,0,0,2,,,,,,,,,,,,,,,1,,,72,0
880560,note_off,480,0,2,,,,,,,,,,,,,,,1,,,69,0
880560,note_on,0,0,4,,,,,,,,,,,,,,,3,,,67,63
881010,note_off,450,0,4,,,,,,,,,,,,,,,3,,,55,0
881040,note_on,0,0,4,,,,,,,,,,,,,,,3,,,55,60
881040,note_on,0,0,2,,,,,,,,,,,,,,,1,,,71,58
881040,note_off,480,0,2,,,,,,,,,,,,,,,1,,,72,0
881040,note_on,0,0,1,,,,,,,,,,,,,,,0,,,74,58
881040,note_off,480,0,1,,,,,,,,,,,,,,,0,,,75,0
881040,note_off,30,0,4,,,,,,,,,,,,,,,3,,,67,0
881470,set_tempo,1150,1,0,,,,,,,304568,,,,,,,,,,,,
881520,note_off,480,0,1,,,,,,,,,,,,,,,0,,,74,0
881520,note_on,0,0,1,,,,,,,,,,,,,,,0,,,76,55
881520,note_off,480,0,4,,,,,,,,,,,,,,,3,,,55,0
881520,note_on,0,0,2,,,,,,,,,,,,,,,1,,,66,55
881520,note_on,0,0,2,,,,,,,,,,,,,,,1,,,69,55
881520,note_on,0,0,4,,,,,,,,,,,,,,,3,,,62,57
881520,note_off,480,0,2,,,,,,,,,,,,,,,1,,,71,0
881535,set_tempo,65,1,0,,,,,,,297029,,,,,,,,,,,,
881760,note_on,0,0,1,,,,,,,,,,,,,,,0,,,74,54
881760,note_off,240,0,1,,,,,,,,,,,,,,,0,,,76,0
882000,note_off,480,0,4,,,,,,,,,,,,,,,3,,,62,0
882000,note_on,0,0,4,,,,,,,,,,,,,,,3,,,50,55
882000,note_off,240,0,1,,,,,,,,,,,,,,,0,,,74,0
882000,note_on,0,0,1,,,,,,,,,,,,,,,0,,,73,53
882240,note_off,240,0,1,,,,,,,,,,,,,,,0,,,73,0
882240,note_on,0,0,1,,,,,,,,,,,,,,,0,,,74,52
882480,note_off,240,0,1,,,,,,,,,,,,,,,0,,,74,0
882480,note_on,0,0,1,,,,,,,,,,,,,,,0,,,71,50
882480,note_on,0,0,2,,,,,,,,,,,,,,,1,,,62,50
882480,note_on,0,0,2,,,,,,,,,,,,,,,1,,,67,50
882480,note_off,0,0,2,,,,,,,,,,,,,,,1,,,69,0
882480,note_off,960,0,2,,,,,,,,,,,,,,,1,,,66,0
882480,note_off,480,0,4,,,,,,,,,,,,,,,3,,,50,0
882480,note_on,0,0,4,,,,,,,,,,,,,,,3,,,55,53
882960,note_off,480,0,4,,,,,,,,,,,,,,,3,,,55,0
882960,note_on,0,0,4,,,,,,,,,,,,,,,3,,,43,51
882960,note_on,0,0,1,,,,,,,,,,,,,,,0,,,74,48
882960,note_off,480,0,1,,,,,,,,,,,,,,,0,,,71,0
883380,set_tempo,1845,1,0,,,,,,,298507,,,,,,,,,,,,
883440,note_off,480,0,4,,,,,,,,,,,,,,,3,,,43,0
883440,set_tempo,60,1,0,,,,,,,297029,,,,,,,,,,,,
883440,note_on,0,0,1,,,,,,,,,,,,,,,0,,,76,46
883440,note_off,480,0,1,,,,,,,,,,,,,,,0,,,74,0
883440,note_off,960,0,2,,,,,,,,,,,,,,,1,,,67,0
883440,note_off,0,0,2,,,,,,,,,,,,,,,1,,,62,0
883440,note_on,0,0,2,,,,,,,,,,,,,,,1,,,66,46
883440,note_on,0,0,2,,,,,,,,,,,,,,,1,,,69,46
883440,note_on,0,0,4,,,,,,,,,,,,,,,3,,,50,48
883680,note_on,0,0,1,,,,,,,,,,,,,,,0,,,74,44
883680,note_off,240,0,1,,,,,,,,,,,,,,,0,,,76,0
883920,note_on,0,0,1,,,,,,,,,,,,,,,0,,,73,43
883920,note_off,240,0,1,,,,,,,,,,,,,,,0,,,74,0
883920,note_off,480,0,4,,,,,,,,,,,,,,,3,,,50,0
883920,note_on,0,0,4,,,,,,,,,,,,,,,3,,,38,46
884160,note_off,240,0,1,,,,,,,,,,,,,,,0,,,73,0
884160,note_on,0,0,1,,,,,,,,,,,,,,,0,,,74,42
884295,set_tempo,855,1,0,,,,,,,300000,,,,,,,,,,,,
884400,note_on,0,0,1,,,,,,,,,,,,,,,0,,,71,41
884400,note_off,240,0,1,,,,,,,,,,,,,,,0,,,74,0
884400,note_off,480,0,4,,,,,,,,,,,,,,,3,,,38,0
884400,note_on,0,0,4,,,,,,,,,,,,,,,3,,,43,44
884400,note_off,960,0,2,,,,,,,,,,,,,,,1,,,66,0
884400,note_off,0,0,2,,,,,,,,,,,,,,,1,,,69,0
884400,note_on,0,0,2,,,,,,,,,,,,,,,1,,,67,41
884400,note_on,0,0,2,,,,,,,,,,,,,,,1,,,62,41
884850,set_tempo,555,1,0,,,,,,,301507,,,,,,,,,,,,
884880,note_on,0,0,4,,,,,,,,,,,,,,,3,,,31,42
884880,note_off,0,0,2,,,,,,,,,,,,,,,1,,,62,0
884880,note_off,480,0,2,,,,,,,,,,,,,,,1,,,67,0
884880,note_off,480,0,4,,,,,,,,,,,,,,,3,,,43,0
884880,note_off,480,0,1,,,,,,,,,,,,,,,0,,,71,0
885120,set_tempo,270,1,0,,,,,,,297029,,,,,,,,,,,,
885280,note_on,400,0,4,,,,,,,,,,,,,,,3,,,52,53
885360,note_on,0,0,4,,,,,,,,,,,,,,,3,,,50,57
885360,note_off,0,0,4,,,,,,,,,,,,,,,3,,,52,0
885360,note_off,80,0,4,,,,,,,,,,,,,,,3,,,31,0
885600,note_on,0,0,4,,,,,,,,,,,,,,,3,,,49,56
885600,note_off,240,0,4,,,,,,,,,,,,,,,3,,,50,0
885840,note_on,0,0,4,,,,,,,,,,,,,,,3,,,50,54
885840,note_off,240,0,4,,,,,,,,,,,,,,,3,,,49,0
886080,note_off,240,0,4,,,,,,,,,,,,,,,3,,,50,0
886080,note_on,0,0,4,,,,,,,,,,,,,,,3,,,52,53
886320,note_on,0,0,4,,,,,,,,,,,,,,,3,,,50,54
886320,note_off,240,0,4,,,,,,,,,,,,,,,3,,,52,0
886480,note_on,1600,0,1,,,,,,,,,,,,,,,0,,,83,46
886640,note_on,0,0,1,,,,,,,,,,,,,,,0,,,84,46
886640,note_off,160,0,1,,,,,,,,,,,,,,,0,,,83,0
886680,note_off,360,0,4,,,,,,,,,,,,,,,3,,,50,0
886800,note_on,0,0,1,,,,,,,,,,,,,,,0,,,86,47
886800,note_off,160,0,1,,,,,,,,,,,,,,,0,,,84,0
886800,note_on,120,0,4,,,,,,,,,,,,,,,3,,,38,56
886960,note_off,160,0,1,,,,,,,,,,,,,,,0,,,86,0
886960,note_on,0,0,1,,,,,,,,,,,,,,,0,,,84,47
887120,note_off,160,0,1,,,,,,,,,,,,,,,0,,,84,0
887120,note_on,0,0,1,,,,,,,,,,,,,,,0,,,83,47
887280,note_on,480,0,4,,,,,,,,,,,,,,,3,,,40,57
887280,note_off,160,0,1,,,,,,,,,,,,,,,0,,,83,0
887280,note_on,0,0,1,,,,,,,,,,,,,,,0,,,84,48
887440,note_off,160,0,1,,,,,,,,,,,,,,,0,,,84,0
887440,note_on,0,0,1,,,,,,,,,,,,,,,0,,,81,48
887600,note_off,160,0,1,,,,,,,,,,,,,,,0,,,81,0
887600,note_on,0,0,1,,,,,,,,,,,,,,,0,,,83,48
887760,note_on,0,0,1,,,,,,,,,,,,,,,0,,,84,48
887760,note_off,160,0,1,,,,,,,,,,,,,,,0,,,83,0
887760,note_off,480,0,4,,,,,,,,,,,,,,,3,,,40,0
887760,note_on,0,0,4,,,,,,,,,,,,,,,3,,,42,59
887920,note_off,160,0,1,,,,,,,,,,,,,,,0,,,84,0
887920,note_on,0,0,1,,,,,,,,,,,,,,,0,,,83,49
888080,note_off,160,0,1,,,,,,,,,,,,,,,0,,,83,0
888080,note_on,0,0,1,,,,,,,,,,,,,,,0,,,81,49
888240,note_on,0,0,4,,,,,,,,,,,,,,,3,,,43,61
888240,note_off,480,0,4,,,,,,,,,,,,,,,3,,,42,0
888240,note_off,160,0,1,,,,,,,,,,,,,,,0,,,81,0
888240,note_on,0,0,1,,,,,,,,,,,,,,,0,,,83,49
888400,note_off,160,0,1,,,,,,,,,,,,,,,0,,,83,0
888400,note_on,0,0,1,,,,,,,,,,,,,,,0,,,79,49
888560,note_off,160,0,1,,,,,,,,,,,,,,,0,,,79,0
888560,note_on,0,0,1,,,,,,,,,,,,,,,0,,,81,50
888720,note_on,0,0,1,,,,,,,,,,,,,,,0,,,83,50
888720,note_off,160,0,1,,,,,,,,,,,,,,,0,,,81,0
888880,note_off,160,0,1,,,,,,,,,,,,,,,0,,,83,0
888880,note_on,0,0,1,,,,,,,,,,,,,,,0,,,81,50
889040,note_on,0,0,1,,,,,,,,,,,,,,,0,,,79,50
889040,note_off,160,0,1,,,,,,,,,,,,,,,0,,,81,0
889200,note_on,0,0,4,,,,,,,,,,,,,,,3,,,47,64
889200,note_off,960,0,4,,,,,,,,,,,,,,,3,,,43,0
889200,note_on,0,0,1,,,,,,,,,,,,,,,0,,,78,51
889200,note_off,160,0,1,,,,,,,,,,,,,,,0,,,79,0
889360,note_on,0,0,1,,,,,,,,,,,,,,,0,,,76,51
889360,note_off,160,0,1,,,,,,,,,,,,,,,0,,,78,0
889440,note_off,240,0,4,,,,,,,,,,,,,,,3,,,47,0
889440,note_on,0,0,4,,,,,,,,,,,,,,,3,,,45,65
889520,note_off,160,0,1,,,,,,,,,,,,,,,0,,,76,0
889520,note_on,0,0,1,,,,,,,,,,,,,,,0,,,74,51
889680,note_on,0,0,4,,,,,,,,,,,,,,,3,,,43,65
889680,note_off,240,0,4,,,,,,,,,,,,,,,3,,,45,0
889680,note_off,160,0,1,,,,,,,,,,,,,,,0,,,74,0
889680,note_on,0,0,1,,,,,,,,,,,,,,,0,,,72,51
889840,note_on,0,0,1,,,,,,,,,,,,,,,0,,,71,52
889840,note_off,160,0,1,,,,,,,,,,,,,,,0,,,72,0
889920,note_on,0,0,4,,,,,,,,,,,,,,,3,,,45,66
889920,note_off,240,0,4,,,,,,,,,,,,,,,3,,,43,0
889920,set_tempo,4800,1,0,,,,,,,298507,,,,,,,,,,,,
890000,note_on,0,0,1,,,,,,,,,,,,,,,0,,,69,52
890000,note_off,160,0,1,,,,,,,,,,,,,,,0,,,71,0
890160,note_off,160,0,1,,,,,,,,,,,,,,,0,,,69,0
890160,note_on,0,0,1,,,,,,,,,,,,,,,0,,,67,52
890160,note_off,240,0,4,,,,,,,,,,,,,,,3,,,45,0
890160,note_on,0,0,4,,,,,,,,,,,,,,,3,,,47,66
890320,note_off,160,0,1,,,,,,,,,,,,,,,0,,,67,0
890320,note_on,0,0,1,,,,,,,,,,,,,,,0,,,74,52
890480,note_off,160,0,1,,,,,,,,,,,,,,,0,,,74,0
890480,note_on,0,0,1,,,,,,,,,,,,,,,0,,,73,53
890640,note_off,480,0,4,,,,,,,,,,,,,,,3,,,47,0
890640,note_on,0,0,4,,,,,,,,,,,,,,,3,,,43,69
890640,note_on,0,0,1,,,,,,,,,,,,,,,0,,,74,53
890640,note_off,160,0,1,,,,,,,,,,,,,,,0,,,73,0
890800,note_off,160,0,1,,,,,,,,,,,,,,,0,,,74,0
890800,note_on,0,0,1,,,,,,,,,,,,,,,0,,,71,53
890960,note_off,160,0,1,,,,,,,,,,,,,,,0,,,71,0
890960,note_on,0,0,1,,,,,,,,,,,,,,,0,,,69,53
891112,note_off,472,0,4,,,,,,,,,,,,,,,3,,,38,0
891120,note_off,8,0,4,,,,,,,,,,,,,,,3,,,43,0
891120,note_off,160,0,1,,,,,,,,,,,,,,,0,,,69,0
891120,note_on,0,0,1,,,,,,,,,,,,,,,0,,,67,54
891120,note_on,0,0,4,,,,,,,,,,,,,,,3,,,38,72
891120,note_on,0,0,4,,,,,,,,,,,,,,,3,,,49,72
891280,note_on,0,0,1,,,,,,,,,,,,,,,0,,,76,54
891280,note_off,160,0,1,,,,,,,,,,,,,,,0,,,67,0
891440,note_on,0,0,1,,,,,,,,,,,,,,,0,,,75,54
891440,note_off,160,0,1,,,,,,,,,,,,,,,0,,,76,0
891600,note_on,0,0,1,,,,,,,,,,,,,,,0,,,76,54
891600,note_off,480,0,4,,,,,,,,,,,,,,,3,,,49,0
891600,note_on,0,0,4,,,,,,,,,,,,,,,3,,,45,75
891600,note_off,160,0,1,,,,,,,,,,,,,,,0,,,75,0
891760,note_off,160,0,1,,,,,,,,,,,,,,,0,,,76,0
891760,note_on,0,0,1,,,,,,,,,,,,,,,0,,,72,55
891840,set_tempo,1920,1,0,,,,,,,300000,,,,,,,,,,,,
891920,note_off,160,0,1,,,,,,,,,,,,,,,0,,,72,0
891920,note_on,0,0,1,,,,,,,,,,,,,,,0,,,67,55
892080,note_on,0,0,4,,,,,,,,,,,,,,,3,,,50,82
892080,note_off,480,0,4,,,,,,,,,,,,,,,3,,,38,0
892080,note_off,0,0,4,,,,,,,,,,,,,,,3,,,45,0
892080,note_off,160,0,1,,,,,,,,,,,,,,,0,,,67,0
892080,note_on,0,0,1,,,,,,,,,,,,,,,0,,,66,55
892080,note_on,0,0,4,,,,,,,,,,,,,,,3,,,38,82
892240,note_off,160,0,1,,,,,,,,,,,,,,,0,,,66,0
892240,note_on,0,0,1,,,,,,,,,,,,,,,0,,,74,55
892400,note_off,160,0,1,,,,,,,,,,,,,,,0,,,74,0
892400,note_on,0,0,1,,,,,,,,,,,,,,,0,,,73,56
892560,note_off,0,0,1,,,,,,,,,,,,,,,0,,,73,0
892560,note_on,0,0,1,,,,,,,,,,,,,,,0,,,74,56
892560,control_change,160,0,1,,,,,,,,,,,,,64,0,0,,,,
892600,control_change,40,0,1,,,,,,,,,,,,,64,127,0,,,,
892720,note_on,0,0,1,,,,,,,,,,,,,,,0,,,69,56
892720,note_off,120,0,1,,,,,,,,,,,,,,,0,,,74,0
892800,set_tempo,960,1,0,,,,,,,301507,,,,,,,,,,,,
892880,note_on,0,0,1,,,,,,,,,,,,,,,0,,,66,57
892880,note_off,160,0,1,,,,,,,,,,,,,,,0,,,69,0
892960,note_on,880,0,4,,,,,,,,,,,,,,,3,,,52,54
893040,note_off,0,0,4,,,,,,,,,,,,,,,3,,,50,0
893040,note_off,80,0,4,,,,,,,,,,,,,,,3,,,38,0
893040,note_on,0,0,1,,,,,,,,,,,,,,,0,,,62,57
893040,note_off,160,0,1,,,,,,,,,,,,,,,0,,,66,0
893040,note_on,0,0,4,,,,,,,,,,,,,,,3,,,50,60
893040,note_off,0,0,4,,,,,,,,,,,,,,,3,,,52,0
893055,set_tempo,255,1,0,,,,,,,297029,,,,,,,,,,,,
893280,note_on,0,0,4,,,,,,,,,,,,,,,3,,,49,58
893280,note_off,240,0,4,,,,,,,,,,,,,,,3,,,50,0
893520,note_off,480,0,1,,,,,,,,,,,,,,,0,,,62,0
893520,note_on,0,0,4,,,,,,,,,,,,,,,3,,,50,56
893520,note_off,240,0,4,,,,,,,,,,,,,,,3,,,49,0
893760,note_on,0,0,4,,,,,,,,,,,,,,,3,,,52,54
893760,note_off,240,0,4,,,,,,,,,,,,,,,3,,,50,0
894000,control_change,480,0,1,,,,,,,,,,,,,64,0,0,,,,
894000,note_off,240,0,4,,,,,,,,,,,,,,,3,,,52,0
894000,note_on,0,0,4,,,,,,,,,,,,,,,3,,,50,52
894160,note_on,160,0,1,,,,,,,,,,,,,,,0,,,83,44
894320,note_off,160,0,1,,,,,,,,,,,,,,,0,,,83,0
894320,note_on,0,0,1,,,,,,,,,,,,,,,0,,,84,44
894360,note_off,360,0,4,,,,,,,,,,,,,,,3,,,50,0
894480,note_on,120,0,4,,,,,,,,,,,,,,,3,,,38,51
894480,note_on,0,0,1,,,,,,,,,,,,,,,0,,,86,45
894480,note_off,160,0,1,,,,,,,,,,,,,,,0,,,84,0
894640,note_on,0,0,1,,,,,,,,,,,,,,,0,,,84,45
894640,note_off,160,0,1,,,,,,,,,,,,,,,0,,,86,0
894800,note_on,0,0,1,,,,,,,,,,,,,,,0,,,83,45
894800,note_off,160,0,1,,,,,,,,,,,,,,,0,,,84,0
894960,note_on,0,0,1,,,,,,,,,,,,,,,0,,,84,45
894960,note_off,160,0,1,,,,,,,,,,,,,,,0,,,83,0
894960,note_on,480,0,4,,,,,,,,,,,,,,,3,,,40,52
895120,note_off,160,0,1,,,,,,,,,,,,,,,0,,,84,0
895120,note_on,0,0,1,,,,,,,,,,,,,,,0,,,81,46
895280,note_off,160,0,1,,,,,,,,,,,,,,,0,,,81,0
895280,note_on,0,0,1,,,,,,,,,,,,,,,0,,,83,46
895440,note_off,480,0,4,,,,,,,,,,,,,,,3,,,40,0
895440,note_on,0,0,4,,,,,,,,,,,,,,,3,,,42,54
895440,note_on,0,0,1,,,,,,,,,,,,,,,0,,,84,46
895440,note_off,160,0,1,,,,,,,,,,,,,,,0,,,83,0
895600,note_on,0,0,1,,,,,,,,,,,,,,,0,,,83,46
895600,note_off,160,0,1,,,,,,,,,,,,,,,0,,,84,0
895760,note_off,160,0,1,,,,,,,,,,,,,,,0,,,83,0
895760,note_on,0,0,1,,,,,,,,,,,,,,,0,,,81,47
895920,note_off,480,0,4,,,,,,,,,,,,,,,3,,,42,0
895920,note_off,160,0,1,,,,,,,,,,,,,,,0,,,81,0
895920,note_on,0,0,1,,,,,,,,,,,,,,,0,,,83,47
895920,note_on,0,0,4,,,,,,,,,,,,,,,3,,,43,56
896080,note_off,160,0,1,,,,,,,,,,,,,,,0,,,83,0
896080,note_on,0,0,1,,,,,,,,,,,,,,,0,,,79,47
896240,note_off,160,0,1,,,,,,,,,,,,,,,0,,,79,0
896240,note_on,0,0,1,,,,,,,,,,,,,,,0,,,81,47
896400,note_on,0,0,1,,,,,,,,,,,,,,,0,,,83,48
896400,note_off,160,0,1,,,,,,,,,,,,,,,0,,,81,0
896560,note_on,0,0,1,,,,,,,,,,,,,,,0,,,81,48
896560,note_off,160,0,1,,,,,,,,,,,,,,,0,,,83,0
896720,note_off,160,0,1,,,,,,,,,,,,,,,0,,,81,0
896720,note_on,0,0,1,,,,,,,,,,,,,,,0,,,79,48
896880,note_off,160,0,1,,,,,,,,,,,,,,,0,,,79,0
896880,note_on,0,0,1,,,,,,,,,,,,,,,0,,,78,48
896880,note_off,960,0,4,,,,,,,,,,,,,,,3,,,43,0
896880,note_on,0,0,4,,,,,,,,,,,,,,,3,,,47,59
897040,note_off,160,0,1,,,,,,,,,,,,,,,0,,,78,0
897040,note_on,0,0,1,,,,,,,,,,,,,,,0,,,76,48
897120,note_off,240,0,4,,,,,,,,,,,,,,,3,,,47,0
897120,note_on,0,0,4,,,,,,,,,,,,,,,3,,,45,60
897200,note_off,160,0,1,,,,,,,,,,,,,,,0,,,76,0
897200,note_on,0,0,1,,,,,,,,,,,,,,,0,,,74,49
897360,note_on,0,0,4,,,,,,,,,,,,,,,3,,,43,60
897360,note_off,240,0,4,,,,,,,,,,,,,,,3,,,45,0
897360,note_on,0,0,1,,,,,,,,,,,,,,,0,,,72,49
897360,note_off,160,0,1,,,,,,,,,,,,,,,0,,,74,0
897520,note_on,0,0,1,,,,,,,,,,,,,,,0,,,71,49
897520,note_off,160,0,1,,,,,,,,,,,,,,,0,,,72,0
897600,set_tempo,4545,1,0,,,,,,,298507,,,,,,,,,,,,
897600,note_on,0,0,4,,,,,,,,,,,,,,,3,,,45,61
897600,note_off,240,0,4,,,,,,,,,,,,,,,3,,,43,0
897680,note_on,0,0,1,,,,,,,,,,,,,,,0,,,69,49
897680,note_off,160,0,1,,,,,,,,,,,,,,,0,,,71,0
897840,note_on,0,0,4,,,,,,,,,,,,,,,3,,,47,62
897840,note_off,240,0,4,,,,,,,,,,,,,,,3,,,45,0
897840,note_on,0,0,1,,,,,,,,,,,,,,,0,,,67,50
897840,note_off,160,0,1,,,,,,,,,,,,,,,0,,,69,0
898000,note_off,160,0,1,,,,,,,,,,,,,,,0,,,67,0
898000,note_on,0,0,1,,,,,,,,,,,,,,,0,,,66,50
898160,note_off,160,0,1,,,,,,,,,,,,,,,0,,,66,0
898160,note_on,0,0,1,,,,,,,,,,,,,,,0,,,67,50
898320,note_off,480,0,4,,,,,,,,,,,,,,,3,,,47,0
898320,note_on,0,0,4,,,,,,,,,,,,,,,3,,,43,64
898320,note_off,160,0,1,,,,,,,,,,,,,,,0,,,67,0
898320,note_on,0,0,1,,,,,,,,,,,,,,,0,,,69,50
898480,note_off,160,0,1,,,,,,,,,,,,,,,0,,,69,0
898480,note_on,0,0,1,,,,,,,,,,,,,,,0,,,71,51
898640,note_on,0,0,1,,,,,,,,,,,,,,,0,,,72,51
898640,note_off,160,0,1,,,,,,,,,,,,,,,0,,,71,0
898792,note_off,472,0,4,,,,,,,,,,,,,,,3,,,38,0
898800,note_on,0,0,4,,,,,,,,,,,,,,,3,,,49,65
898800,note_on,0,0,4,,,,,,,,,,,,,,,3,,,38,65
898800,note_off,8,0,4,,,,,,,,,,,,,,,3,,,43,0
898800,note_off,160,0,1,,,,,,,,,,,,,,,0,,,72,0
898800,note_on,0,0,1,,,,,,,,,,,,,,,0,,,74,51
898960,note_off,160,0,1,,,,,,,,,,,,,,,0,,,74,0
898960,note_on,0,0,1,,,,,,,,,,,,,,,0,,,62,51
899120,note_off,160,0,1,,,,,,,,,,,,,,,0,,,62,0
899120,note_on,0,0,1,,,,,,,,,,,,,,,0,,,61,51
899280,note_on,0,0,4,,,,,,,,,,,,,,,3,,,45,67
899280,note_on,0,0,1,,,,,,,,,,,,,,,0,,,62,52
899280,note_off,160,0,1,,,,,,,,,,,,,,,0,,,61,0
899280,note_off,480,0,4,,,,,,,,,,,,,,,3,,,49,0
899440,note_on,0,0,1,,,,,,,,,,,,,,,0,,,64,52
899440,note_off,160,0,1,,,,,,,,,,,,,,,0,,,62,0
899520,set_tempo,1920,1,0,,,,,,,300000,,,,,,,,,,,,
899600,note_on,0,0,1,,,,,,,,,,,,,,,0,,,66,52
899600,note_off,160,0,1,,,,,,,,,,,,,,,0,,,64,0
899760,note_off,160,0,1,,,,,,,,,,,,,,,0,,,66,0
899760,note_off,480,0,4,,,,,,,,,,,,,,,3,,,38,0
899760,note_off,0,0,4,,,,,,,,,,,,,,,3,,,45,0
899760,note_on,0,0,4,,,,,,,,,,,,,,,3,,,43,69
899760,note_on,0,0,4,,,,,,,,,,,,,,,3,,,31,69
899760,note_on,0,0,1,,,,,,,,,,,,,,,0,,,67,52
900240,note_off,0,0,4,,,,,,,,,,,,,,,3,,,31,0
900240,note_off,480,0,1,,,,,,,,,,,,,,,0,,,67,0
900240,note_off,480,0,4,,,,,,,,,,,,,,,3,,,43,0
900240,note_on,0,0,4,,,,,,,,,,,,,,,3,,,43,75
900495,set_tempo,975,1,0,,,,,,,301507,,,,,,,,,,,,
900705,set_tempo,210,1,0,,,,,,,297029,,,,,,,,,,,,
900720,note_on,15840,0,2,,,,,,,,,,,,,,,1,,,55,52
900720,note_on,480,0,4,,,,,,,,,,,,,,,3,,,55,52
900960,note_on,720,0,1,,,,,,,,,,,,,,,0,,,67,54
901200,note_on,0,0,4,,,,,,,,,,,,,,,3,,,54,54
901200,note_off,480,0,4,,,,,,,,,,,,,,,3,,,55,0
901200,note_off,240,0,1,,,,,,,,,,,,,,,0,,,67,0
901200,note_off,480,0,2,,,,,,,,,,,,,,,1,,,55,0
901200,note_on,0,0,2,,,,,,,,,,,,,,,1,,,57,55
901440,note_on,240,0,1,,,,,,,,,,,,,,,0,,,69,57
901680,note_on,0,0,4,,,,,,,,,,,,,,,3,,,53,56
901680,note_on,0,0,2,,,,,,,,,,,,,,,1,,,67,58
901680,note_off,240,0,1,,,,,,,,,,,,,,,0,,,69,0
901680,note_off,480,0,2,,,,,,,,,,,,,,,1,,,57,0
901680,note_off,480,0,4,,,,,,,,,,,,,,,3,,,54,0
901680,note_on,0,0,2,,,,,,,,,,,,,,,1,,,59,58
901920,note_on,240,0,1,,,,,,,,,,,,,,,0,,,71,59
902120,note_off,440,0,2,,,,,,,,,,,,,,,1,,,67,0
902160,note_off,240,0,1,,,,,,,,,,,,,,,0,,,71,0
902160,note_on,0,0,4,,,,,,,,,,,,,,,3,,,52,58
902160,note_off,480,0,4,,,,,,,,,,,,,,,3,,,53,0
902160,note_on,0,0,2,,,,,,,,,,,,,,,1,,,60,61
902160,note_on,0,0,2,,,,,,,,,,,,,,,1,,,67,61
902160,note_off,40,0,2,,,,,,,,,,,,,,,1,,,59,0
902400,note_on,240,0,1,,,,,,,,,,,,,,,0,,,72,62
902640,note_on,0,0,2,,,,,,,,,,,,,,,1,,,70,64
902640,note_off,0,0,2,,,,,,,,,,,,,,,1,,,67,0
902640,note_off,480,0,2,,,,,,,,,,,,,,,1,,,60,0
902640,note_on,0,0,2,,,,,,,,,,,,,,,1,,,61,64
902640,note_on,0,0,2,,,,,,,,,,,,,,,1,,,67,64
902640,note_on,0,0,4,,,,,,,,,,,,,,,3,,,51,60
902640,note_off,480,0,4,,,,,,,,,,,,,,,3,,,52,0
902640,note_off,240,0,1,,,,,,,,,,,,,,,0,,,72,0
902880,note_on,240,0,1,,,,,,,,,,,,,,,0,,,73,65
903080,note_off,440,0,2,,,,,,,,,,,,,,,1,,,61,0
903080,note_off,0,0,2,,,,,,,,,,,,,,,1,,,67,0
903080,note_off,0,0,2,,,,,,,,,,,,,,,1,,,70,0
903120,note_on,0,0,2,,,,,,,,,,,,,,,1,,,67,66
903120,note_off,240,0,1,,,,,,,,,,,,,,,0,,,73,0
903120,note_on,0,0,4,,,,,,,,,,,,,,,3,,,51,62
903120,note_off,480,0,4,,,,,,,,,,,,,,,3,,,51,0
903120,note_on,40,0,2,,,,,,,,,,,,,,,1,,,61,66
903120,note_on,0,0,2,,,,,,,,,,,,,,,1,,,70,66
903240,set_tempo,2535,1,0,,,,,,,298507,,,,,,,,,,,,
903360,note_on,240,0,1,,,,,,,,,,,,,,,0,,,73,68
903560,note_off,0,0,2,,,,,,,,,,,,,,,1,,,70,0
903560,note_off,0,0,2,,,,,,,,,,,,,,,1,,,67,0
903560,note_off,440,0,2,,,,,,,,,,,,,,,1,,,61,0
903600,note_on,0,0,2,,,,,,,,,,,,,,,1,,,67,69
903600,note_on,0,0,2,,,,,,,,,,,,,,,1,,,70,69
903600,note_off,480,0,4,,,,,,,,,,,,,,,3,,,51,0
903600,note_off,240,0,1,,,,,,,,,,,,,,,0,,,73,0
903600,note_on,0,0,4,,,,,,,,,,,,,,,3,,,51,69
903600,note_on,40,0,2,,,,,,,,,,,,,,,1,,,61,69
903840,note_on,240,0,1,,,,,,,,,,,,,,,0,,,73,66
904040,note_off,440,0,2,,,,,,,,,,,,,,,1,,,61,0
904040,note_off,0,0,2,,,,,,,,,,,,,,,1,,,67,0
904040,note_off,0,0,2,,,,,,,,,,,,,,,1,,,70,0
904080,note_on,0,0,4,,,,,,,,,,,,,,,3,,,50,58
904080,note_off,480,0,4,,,,,,,,,,,,,,,3,,,51,0
904080,note_on,40,0,2,,,,,,,,,,,,,,,1,,,62,65
904080,note_off,240,0,1,,,,,,,,,,,,,,,0,,,73,0
904080,note_on,0,0,2,,,,,,,,,,,,,,,1,,,71,65
904080,note_on,0,0,2,,,,,,,,,,,,,,,1,,,67,65
904320,note_on,240,0,1,,,,,,,,,,,,,,,0,,,74,64
904455,set_tempo,1215,1,0,,,,,,,301507,,,,,,,,,,,,
904520,note_off,0,0,2,,,,,,,,,,,,,,,1,,,67,0
904520,note_off,440,0,2,,,,,,,,,,,,,,,1,,,62,0
904520,note_off,0,0,2,,,,,,,,,,,,,,,1,,,71,0
904560,control_change,52800,0,3,,,,,,,,,,,,,64,0,2,,,,
904560,note_off,240,0,1,,,,,,,,,,,,,,,0,,,74,0
904560,note_off,480,0,4,,,,,,,,,,,,,,,3,,,50,0
904560,note_on,0,0,2,,,,,,,,,,,,,,,1,,,69,62
904560,note_on,40,0,2,,,,,,,,,,,,,,,1,,,66,62
904560,note_on,0,0,4,,,,,,,,,,,,,,,3,,,38,57
904560,note_on,0,0,1,,,,,,,,,,,,,,,0,,,76,62
904575,note_off,15,0,4,,,,,,,,,,,,,,,3,,,43,0
904575,set_tempo,120,1,0,,,,,,,297029,,,,,,,,,,,,
904620,control_change,60,0,3,,,,,,,,,,,,,64,127,2,,,,
904720,note_on,100,0,3,,,,,,,,,,,,,,,2,,,50,56
904800,note_on,0,0,1,,,,,,,,,,,,,,,0,,,74,61
904800,note_off,240,0,1,,,,,,,,,,,,,,,0,,,76,0
904880,note_on,0,0,3,,,,,,,,,,,,,,,2,,,54,55
904880,note_off,160,0,3,,,,,,,,,,,,,,,2,,,50,0
905040,note_off,160,0,3,,,,,,,,,,,,,,,2,,,54,0
905040,note_on,0,0,3,,,,,,,,,,,,,,,2,,,57,54
905040,note_on,0,0,1,,,,,,,,,,,,,,,0,,,73,60
905040,note_off,240,0,1,,,,,,,,,,,,,,,0,,,74,0
905200,note_on,0,0,3,,,,,,,,,,,,,,,2,,,54,54
905200,note_off,160,0,3,,,,,,,,,,,,,,,2,,,57,0
905280,note_on,0,0,1,,,,,,,,,,,,,,,0,,,74,58
905280,note_off,240,0,1,,,,,,,,,,,,,,,0,,,73,0
905360,note_off,160,0,3,,,,,,,,,,,,,,,2,,,54,0
905360,note_on,0,0,3,,,,,,,,,,,,,,,2,,,50,53
905520,note_on,0,0,1,,,,,,,,,,,,,,,0,,,71,57
905520,note_off,240,0,1,,,,,,,,,,,,,,,0,,,74,0
905520,note_on,0,0,2,,,,,,,,,,,,,,,1,,,67,57
905520,note_on,0,0,4,,,,,,,,,,,,,,,3,,,43,54
905520,note_on,0,0,2,,,,,,,,,,,,,,,1,,,62,57
905520,note_off,0,0,2,,,,,,,,,,,,,,,1,,,69,0
905520,note_off,960,0,2,,,,,,,,,,,,,,,1,,,66,0
905520,note_off,0,0,3,,,,,,,,,,,,,,,2,,,50,0
905520,control_change,160,0,3,,,,,,,,,,,,,64,0,2,,,,
905520,note_off,945,0,4,,,,,,,,,,,,,,,3,,,38,0
905580,control_change,60,0,3,,,,,,,,,,,,,64,127,2,,,,
905680,note_on,100,0,3,,,,,,,,,,,,,,,2,,,50,52
905840,note_off,160,0,3,,,,,,,,,,,,,,,2,,,50,0
905840,note_on,0,0,3,,,,,,,,,,,,,,,2,,,55,51
906000,note_on,0,0,3,,,,,,,,,,,,,,,2,,,59,51
906000,note_off,160,0,3,,,,,,,,,,,,,,,2,,,55,0
906000,note_on,0,0,1,,,,,,,,,,,,,,,0,,,74,54
906000,note_off,480,0,1,,,,,,,,,,,,,,,0,,,71,0
906160,note_off,160,0,3,,,,,,,,,,,,,,,2,,,59,0
906160,note_on,0,0,3,,,,,,,,,,,,,,,2,,,55,50
906320,note_off,160,0,3,,,,,,,,,,,,,,,2,,,55,0
906320,note_on,0,0,3,,,,,,,,,,,,,,,2,,,50,49
906420,set_tempo,1845,1,0,,,,,,,298507,,,,,,,,,,,,
906480,note_on,0,0,4,,,,,,,,,,,,,,,3,,,38,51
906480,note_off,960,0,4,,,,,,,,,,,,,,,3,,,43,0
906480,note_on,0,0,2,,,,,,,,,,,,,,,1,,,69,52
906480,note_on,0,0,2,,,,,,,,,,,,,,,1,,,66,52
906480,note_off,0,0,2,,,,,,,,,,,,,,,1,,,67,0
906480,set_tempo,60,1,0,,,,,,,297029,,,,,,,,,,,,
906480,note_off,0,0,3,,,,,,,,,,,,,,,2,,,50,0
906480,control_change,160,0,3,,,,,,,,,,,,,64,0,2,,,,
906480,note_off,480,0,1,,,,,,,,,,,,,,,0,,,74,0
906480,note_on,0,0,1,,,,,,,,,,,,,,,0,,,76,52
906480,note_off,960,0,2,,,,,,,,,,,,,,,1,,,62,0
906540,control_change,60,0,3,,,,,,,,,,,,,64,127,2,,,,
906640,note_on,100,0,3,,,,,,,,,,,,,,,2,,,50,48
906720,note_off,240,0,1,,,,,,,,,,,,,,,0,,,76,0
906720,note_on,0,0,1,,,,,,,,,,,,,,,0,,,74,50
906800,note_on,0,0,3,,,,,,,,,,,,,,,2,,,54,47
906800,note_off,160,0,3,,,,,,,,,,,,,,,2,,,50,0
906960,note_off,240,0,1,,,,,,,,,,,,,,,0,,,74,0
906960,note_on,0,0,3,,,,,,,,,,,,,,,2,,,57,47
906960,note_on,0,0,1,,,,,,,,,,,,,,,0,,,73,49
906960,note_off,160,0,3,,,,,,,,,,,,,,,2,,,54,0
907120,note_on,0,0,3,,,,,,,,,,,,,,,2,,,54,46
907120,note_off,160,0,3,,,,,,,,,,,,,,,2,,,57,0
907200,note_on,0,0,1,,,,,,,,,,,,,,,0,,,74,48
907200,note_off,240,0,1,,,,,,,,,,,,,,,0,,,73,0
907280,note_on,0,0,3,,,,,,,,,,,,,,,2,,,50,45
907280,note_off,160,0,3,,,,,,,,,,,,,,,2,,,54,0
907320,set_tempo,840,1,0,,,,,,,300000,,,,,,,,,,,,
907440,control_change,160,0,3,,,,,,,,,,,,,64,0,2,,,,
907440,note_off,0,0,3,,,,,,,,,,,,,,,2,,,50,0
907440,note_off,240,0,1,,,,,,,,,,,,,,,0,,,74,0
907440,note_on,0,0,1,,,,,,,,,,,,,,,0,,,71,47
907440,note_on,0,0,2,,,,,,,,,,,,,,,1,,,67,47
907440,note_on,0,0,2,,,,,,,,,,,,,,,1,,,62,47
907440,note_off,0,0,2,,,,,,,,,,,,,,,1,,,69,0
907440,note_off,960,0,4,,,,,,,,,,,,,,,3,,,38,0
907440,note_on,0,0,4,,,,,,,,,,,,,,,3,,,31,48
907440,note_on,0,0,4,,,,,,,,,,,,,,,3,,,43,48
907440,note_off,960,0,2,,,,,,,,,,,,,,,1,,,66,0
907920,note_off,480,0,2,,,,,,,,,,,,,,,1,,,62,0
907920,note_off,0,0,2,,,,,,,,,,,,,,,1,,,67,0
907920,note_on,0,0,4,,,,,,,,,,,,,,,3,,,43,66
907920,note_off,480,0,1,,,,,,,,,,,,,,,0,,,71,0
907920,note_off,480,0,4,,,,,,,,,,,,,,,3,,,43,0
908160,set_tempo,840,1,0,,,,,,,301507,,,,,,,,,,,,
908400,note_on,480,0,4,,,,,,,,,,,,,,,3,,,55,47
908400,set_tempo,240,1,0,,,,,,,297029,,,,,,,,,,,,
908400,note_on,480,0,2,,,,,,,,,,,,,,,1,,,67,47
908640,note_on,720,0,1,,,,,,,,,,,,,,,0,,,79,48
908840,note_off,440,0,2,,,,,,,,,,,,,,,1,,,67,0
908880,note_off,480,0,4,,,,,,,,,,,,,,,3,,,55,0
908880,note_on,0,0,4,,,,,,,,,,,,,,,3,,,54,49
908880,note_on,40,0,2,,,,,,,,,,,,,,,1,,,69,49
908880,note_off,240,0,1,,,,,,,,,,,,,,,0,,,79,0
909120,note_on,240,0,1,,,,,,,,,,,,,,,0,,,79,50
909320,note_off,440,0,2,,,,,,,,,,,,,,,1,,,69,0
909360,note_on,0,0,4,,,,,,,,,,,,,,,3,,,53,51
909360,note_off,480,0,4,,,,,,,,,,,,,,,3,,,54,0
909360,note_off,240,0,1,,,,,,,,,,,,,,,0,,,79,0
909360,note_on,0,0,2,,,,,,,,,,,,,,,1,,,71,51
909360,note_on,40,0,2,,,,,,,,,,,,,,,1,,,67,51
909600,note_on,240,0,1,,,,,,,,,,,,,,,0,,,79,53
909800,note_off,440,0,2,,,,,,,,,,,,,,,1,,,67,0
909800,note_off,0,0,2,,,,,,,,,,,,,,,1,,,71,0
909840,note_off,0,0,4,,,,,,,,,,,,,,,3,,,53,0
909840,note_off,480,0,4,,,,,,,,,,,,,,,3,,,43,0
909840,note_on,0,0,4,,,,,,,,,,,,,,,3,,,52,53
909840,note_off,240,0,1,,,,,,,,,,,,,,,0,,,79,0
909840,note_on,40,0,2,,,,,,,,,,,,,,,1,,,67,54
909840,note_on,0,0,2,,,,,,,,,,,,,,,1,,,70,54
909840,note_on,0,0,2,,,,,,,,,,,,,,,1,,,73,54
910080,note_on,240,0,1,,,,,,,,,,,,,,,0,,,79,55
910280,note_off,0,0,2,,,,,,,,,,,,,,,1,,,73,0
910280,note_off,0,0,2,,,,,,,,,,,,,,,1,,,70,0
910280,note_off,440,0,2,,,,,,,,,,,,,,,1,,,67,0
910320,note_on,0,0,4,,,,,,,,,,,,,,,3,,,51,55
910320,note_on,0,0,2,,,,,,,,,,,,,,,1,,,73,56
910320,note_on,0,0,2,,,,,,,,,,,,,,,1,,,70,56
910320,note_on,40,0,2,,,,,,,,,,,,,,,1,,,67,56
910320,note_off,240,0,1,,,,,,,,,,,,,,,0,,,79,0
910320,note_off,480,0,4,,,,,,,,,,,,,,,3,,,52,0
910560,note_on,240,0,1,,,,,,,,,,,,,,,0,,,79,57
910760,note_off,0,0,2,,,,,,,,,,,,,,,1,,,73,0
910760,note_off,0,0,2,,,,,,,,,,,,,,,1,,,70,0
910760,note_off,440,0,2,,,,,,,,,,,,,,,1,,,67,0
910800,note_off,240,0,1,,,,,,,,,,,,,,,0,,,79,0
910800,note_on,0,0,4,,,,,,,,,,,,,,,3,,,51,57
910800,note_off,480,0,4,,,,,,,,,,,,,,,3,,,51,0
910800,note_on,40,0,2,,,,,,,,,,,,,,,1,,,67,59
910800,note_on,0,0,2,,,,,,,,,,,,,,,1,,,73,59
910800,note_on,0,0,2,,,,,,,,,,,,,,,1,,,70,59
910905,set_tempo,2505,1,0,,,,,,,298507,,,,,,,,,,,,
911040,note_on,240,0,1,,,,,,,,,,,,,,,0,,,79,60
911240,note_off,440,0,2,,,,,,,,,,,,,,,1,,,67,0
911240,note_off,0,0,2,,,,,,,,,,,,,,,1,,,70,0
911240,note_off,0,0,2,,,,,,,,,,,,,,,1,,,73,0
911280,note_off,480,0,4,,,,,,,,,,,,,,,3,,,51,0
911280,note_on,0,0,4,,,,,,,,,,,,,,,3,,,51,63
911280,note_on,0,0,2,,,,,,,,,,,,,,,1,,,73,60
911280,note_on,0,0,2,,,,,,,,,,,,,,,1,,,67,60
911280,note_off,240,0,1,,,,,,,,,,,,,,,0,,,79,0
911280,note_on,40,0,2,,,,,,,,,,,,,,,1,,,70,60
911520,note_on,240,0,1,,,,,,,,,,,,,,,0,,,79,61
911720,note_off,440,0,2,,,,,,,,,,,,,,,1,,,70,0
911720,note_off,0,0,2,,,,,,,,,,,,,,,1,,,67,0
911720,note_off,0,0,2,,,,,,,,,,,,,,,1,,,73,0
911760,note_on,0,0,4,,,,,,,,,,,,,,,3,,,50,57
911760,note_on,0,0,2,,,,,,,,,,,,,,,1,,,74,60
911760,note_on,0,0,2,,,,,,,,,,,,,,,1,,,71,60
911760,note_off,480,0,4,,,,,,,,,,,,,,,3,,,51,0
911760,note_on,40,0,2,,,,,,,,,,,,,,,1,,,67,60
911760,note_off,240,0,1,,,,,,,,,,,,,,,0,,,79,0
912000,note_on,240,0,1,,,,,,,,,,,,,,,0,,,79,59
912135,set_tempo,1230,1,0,,,,,,,301507,,,,,,,,,,,,
912180,note_off,420,0,4,,,,,,,,,,,,,,,3,,,31,0
912200,note_off,0,0,2,,,,,,,,,,,,,,,1,,,74,0
912200,note_off,440,0,2,,,,,,,,,,,,,,,1,,,67,0
912200,note_off,0,0,2,,,,,,,,,,,,,,,1,,,71,0
912240,control_change,40,0,2,,,,,,,,,,,,,64,0,1,,,,
912240,note_on,0,0,2,,,,,,,,,,,,,,,1,,,66,58
912240,note_off,240,0,1,,,,,,,,,,,,,,,0,,,79,0
912240,note_off,60,0,4,,,,,,,,,,,,,,,3,,,50,0
912240,note_on,0,0,4,,,,,,,,,,,,,,,3,,,38,52
912240,note_on,0,0,4,,,,,,,,,,,,,,,3,,,52,52
912255,set_tempo,120,1,0,,,,,,,297029,,,,,,,,,,,,
912300,control_change,60,0,2,,,,,,,,,,,,,64,127,1,,,,
912400,note_off,100,0,2,,,,,,,,,,,,,,,1,,,66,0
912400,note_on,0,0,2,,,,,,,,,,,,,,,1,,,69,57
912480,note_off,240,0,4,,,,,,,,,,,,,,,3,,,52,0
912480,note_on,0,0,4,,,,,,,,,,,,,,,3,,,50,51
912560,note_off,160,0,2,,,,,,,,,,,,,,,1,,,69,0
912560,note_on,0,0,2,,,,,,,,,,,,,,,1,,,74,56
912720,note_on,0,0,4,,,,,,,,,,,,,,,3,,,49,50
912720,note_off,240,0,4,,,,,,,,,,,,,,,3,,,50,0
912720,note_off,160,0,2,,,,,,,,,,,,,,,1,,,74,0
912720,note_on,0,0,2,,,,,,,,,,,,,,,1,,,78,56
912880,note_on,0,0,2,,,,,,,,,,,,,,,1,,,74,55
912880,note_off,160,0,2,,,,,,,,,,,,,,,1,,,78,0
912960,note_on,0,0,4,,,,,,,,,,,,,,,3,,,50,49
912960,note_off,240,0,4,,,,,,,,,,,,,,,3,,,49,0
913040,note_off,160,0,2,,,,,,,,,,,,,,,1,,,74,0
913040,note_on,0,0,2,,,,,,,,,,,,,,,1,,,69,54
913140,note_off,180,0,4,,,,,,,,,,,,,,,3,,,38,0
913200,note_off,60,0,4,,,,,,,,,,,,,,,3,,,50,0
913200,note_on,0,0,2,,,,,,,,,,,,,,,1,,,67,54
913200,note_on,0,0,4,,,,,,,,,,,,,,,3,,,47,48
913200,note_on,0,0,4,,,,,,,,,,,,,,,3,,,43,48
913200,note_off,0,0,2,,,,,,,,,,,,,,,1,,,69,0
913200,control_change,160,0,2,,,,,,,,,,,,,64,0,1,,,,
913260,control_change,60,0,2,,,,,,,,,,,,,64,127,1,,,,
913360,note_on,0,0,2,,,,,,,,,,,,,,,1,,,71,53
913360,note_off,100,0,2,,,,,,,,,,,,,,,1,,,67,0
913520,note_off,160,0,2,,,,,,,,,,,,,,,1,,,71,0
913520,note_on,0,0,2,,,,,,,,,,,,,,,1,,,74,52
913680,note_on,0,0,2,,,,,,,,,,,,,,,1,,,79,51
913680,note_off,160,0,2,,,,,,,,,,,,,,,1,,,74,0
913680,note_on,0,0,4,,,,,,,,,,,,,,,3,,,50,47
913680,note_off,480,0,4,,,,,,,,,,,,,,,3,,,47,0
913840,note_off,160,0,2,,,,,,,,,,,,,,,1,,,79,0
913840,note_on,0,0,2,,,,,,,,,,,,,,,1,,,74,51
914000,note_off,160,0,2,,,,,,,,,,,,,,,1,,,74,0
914000,note_on,0,0,2,,,,,,,,,,,,,,,1,,,71,50
914100,set_tempo,1845,1,0,,,,,,,298507,,,,,,,,,,,,
914160,note_off,0,0,4,,,,,,,,,,,,,,,3,,,50,0
914160,note_off,480,0,4,,,,,,,,,,,,,,,3,,,43,0
914160,note_on,0,0,4,,,,,,,,,,,,,,,3,,,52,45
914160,note_on,0,0,4,,,,,,,,,,,,,,,3,,,38,45
914160,control_change,160,0,2,,,,,,,,,,,,,64,0,1,,,,
914160,note_on,0,0,2,,,,,,,,,,,,,,,1,,,66,49
914160,note_off,0,0,2,,,,,,,,,,,,,,,1,,,71,0
914160,set_tempo,60,1,0,,,,,,,297029,,,,,,,,,,,,
914220,control_change,60,0,2,,,,,,,,,,,,,64,127,1,,,,
914320,note_off,100,0,2,,,,,,,,,,,,,,,1,,,66,0
914320,note_on,0,0,2,,,,,,,,,,,,,,,1,,,69,49
914400,note_on,0,0,4,,,,,,,,,,,,,,,3,,,50,44
914400,note_off,240,0,4,,,,,,,,,,,,,,,3,,,52,0
914480,note_on,0,0,2,,,,,,,,,,,,,,,1,,,74,48
914480,note_off,160,0,2,,,,,,,,,,,,,,,1,,,69,0
914640,note_on,0,0,2,,,,,,,,,,,,,,,1,,,78,47
914640,note_off,160,0,2,,,,,,,,,,,,,,,1,,,74,0
914640,note_on,0,0,4,,,,,,,,,,,,,,,3,,,49,44
914640,note_off,240,0,4,,,,,,,,,,,,,,,3,,,50,0
914800,note_off,160,0,2,,,,,,,,,,,,,,,1,,,78,0
914800,note_on,0,0,2,,,,,,,,,,,,,,,1,,,74,47
914880,note_off,240,0,4,,,,,,,,,,,,,,,3,,,49,0
914880,note_on,0,0,4,,,,,,,,,,,,,,,3,,,50,43
914880,set_tempo,720,1,0,,,,,,,298507,,,,,,,,,,,,
914960,note_on,0,0,2,,,,,,,,,,,,,,,1,,,69,46
914960,note_off,160,0,2,,,,,,,,,,,,,,,1,,,74,0
915018,note_off,138,0,4,,,,,,,,,,,,,,,3,,,38,0
915120,note_on,0,0,2,,,,,,,,,,,,,,,1,,,67,45
915120,note_on,0,0,4,,,,,,,,,,,,,,,3,,,47,42
915120,note_off,0,0,2,,,,,,,,,,,,,,,1,,,69,0
915120,note_off,102,0,4,,,,,,,,,,,,,,,3,,,50,0
915120,control_change,160,0,2,,,,,,,,,,,,,64,0,1,,,,
915120,note_on,0,0,4,,,,,,,,,,,,,,,3,,,43,42
915180,control_change,60,0,2,,,,,,,,,,,,,64,127,1,,,,
915280,note_on,0,0,2,,,,,,,,,,,,,,,1,,,71,45
915280,note_off,100,0,2,,,,,,,,,,,,,,,1,,,67,0
915440,note_on,0,0,2,,,,,,,,,,,,,,,1,,,74,44
915440,note_off,160,0,2,,,,,,,,,,,,,,,1,,,71,0
915600,note_off,480,0,4,,,,,,,,,,,,,,,3,,,43,0
915600,note_off,0,0,4,,,,,,,,,,,,,,,3,,,47,0
915600,note_on,0,0,2,,,,,,,,,,,,,,,1,,,79,43
915600,note_off,160,0,2,,,,,,,,,,,,,,,1,,,74,0
915760,note_off,160,0,2,,,,,,,,,,,,,,,1,,,79,0
915760,note_on,0,0,2,,,,,,,,,,,,,,,1,,,74,43
915870,set_tempo,990,1,0,,,,,,,301507,,,,,,,,,,,,
915920,note_on,0,0,2,,,,,,,,,,,,,,,1,,,71,42
915920,note_off,160,0,2,,,,,,,,,,,,,,,1,,,74,0
916080,note_on,3840,0,1,,,,,,,,,,,,,,,0,,,84,52
916080,set_tempo,210,1,0,,,,,,,297029,,,,,,,,,,,,
916080,note_on,480,0,4,,,,,,,,,,,,,,,3,,,47,47
916080,note_off,0,0,2,,,,,,,,,,,,,,,1,,,71,0
916080,control_change,160,0,2,,,,,,,,,,,,,64,0,1,,,,
916080,control_change,8640,0,3,,,,,,,,,,,,,64,0,2,,,,
916140,control_change,60,0,3,,,,,,,,,,,,,64,127,2,,,,
916240,note_on,100,0,3,,,,,,,,,,,,,,,2,,,54,42
916320,note_off,240,0,1,,,,,,,,,,,,,,,0,,,84,0
916320,note_on,0,0,1,,,,,,,,,,,,,,,0,,,83,52
916400,note_off,160,0,3,,,,,,,,,,,,,,,2,,,54,0
916400,note_on,0,0,3,,,,,,,,,,,,,,,2,,,59,42
916560,note_on,0,0,3,,,,,,,,,,,,,,,2,,,63,43
916560,note_on,0,0,1,,,,,,,,,,,,,,,0,,,82,52
916560,note_off,240,0,1,,,,,,,,,,,,,,,0,,,83,0
916560,note_off,160,0,3,,,,,,,,,,,,,,,2,,,59,0
916720,note_on,0,0,3,,,,,,,,,,,,,,,2,,,59,43
916720,note_off,160,0,3,,,,,,,,,,,,,,,2,,,63,0
916800,note_on,0,0,1,,,,,,,,,,,,,,,0,,,83,52
916800,note_off,240,0,1,,,,,,,,,,,,,,,0,,,82,0
916880,note_on,0,0,3,,,,,,,,,,,,,,,2,,,54,43
916880,note_off,160,0,3,,,,,,,,,,,,,,,2,,,59,0
917040,note_on,0,0,1,,,,,,,,,,,,,,,0,,,79,53
917040,note_off,240,0,1,,,,,,,,,,,,,,,0,,,83,0
917040,note_off,0,0,3,,,,,,,,,,,,,,,2,,,54,0
917040,control_change,160,0,3,,,,,,,,,,,,,64,0,2,,,,
917040,note_off,960,0,4,,,,,,,,,,,,,,,3,,,47,0
917040,note_on,0,0,4,,,,,,,,,,,,,,,3,,,52,49
917100,control_change,60,0,3,,,,,,,,,,,,,64,127,2,,,,
917200,note_on,100,0,3,,,,,,,,,,,,,,,2,,,55,43
917360,note_on,0,0,3,,,,,,,,,,,,,,,2,,,59,44
917360,note_off,160,0,3,,,,,,,,,,,,,,,2,,,55,0
917520,note_on,0,0,1,,,,,,,,,,,,,,,0,,,83,50
917520,note_off,480,0,1,,,,,,,,,,,,,,,0,,,79,0
917520,note_on,0,0,3,,,,,,,,,,,,,,,2,,,64,44
917520,note_off,160,0,3,,,,,,,,,,,,,,,2,,,59,0
917680,note_on,0,0,3,,,,,,,,,,,,,,,2,,,59,44
917680,note_off,160,0,3,,,,,,,,,,,,,,,2,,,64,0
917840,note_on,0,0,3,,,,,,,,,,,,,,,2,,,55,44
917840,note_off,160,0,3,,,,,,,,,,,,,,,2,,,59,0
917940,set_tempo,1860,1,0,,,,,,,298507,,,,,,,,,,,,
918000,set_tempo,60,1,0,,,,,,,297029,,,,,,,,,,,,
918000,note_off,480,0,1,,,,,,,,,,,,,,,0,,,83,0
918000,note_on,0,0,1,,,,,,,,,,,,,,,0,,,84,54
918000,note_on,0,0,4,,,,,,,,,,,,,,,3,,,47,52
918000,note_off,0,0,3,,,,,,,,,,,,,,,2,,,55,0
918000,note_off,960,0,4,,,,,,,,,,,,,,,3,,,52,0
918000,control_change,160,0,3,,,,,,,,,,,,,64,0,2,,,,
918060,control_change,60,0,3,,,,,,,,,,,,,64,127,2,,,,
918160,note_on,100,0,3,,,,,,,,,,,,,,,2,,,54,45
918240,note_on,0,0,1,,,,,,,,,,,,,,,0,,,83,54
918240,note_off,240,0,1,,,,,,,,,,,,,,,0,,,84,0
918320,note_off,160,0,3,,,,,,,,,,,,,,,2,,,54,0
918320,note_on,0,0,3,,,,,,,,,,,,,,,2,,,59,45
918480,note_on,0,0,1,,,,,,,,,,,,,,,0,,,82,54
918480,note_off,240,0,1,,,,,,,,,,,,,,,0,,,83,0
918480,note_on,0,0,3,,,,,,,,,,,,,,,2,,,63,45
918480,note_off,160,0,3,,,,,,,,,,,,,,,2,,,59,0
918640,note_on,0,0,3,,,,,,,,,,,,,,,2,,,59,46
918640,note_off,160,0,3,,,,,,,,,,,,,,,2,,,63,0
918720,note_on,0,0,1,,,,,,,,,,,,,,,0,,,83,54
918720,note_off,240,0,1,,,,,,,,,,,,,,,0,,,82,0
918750,set_tempo,750,1,0,,,,,,,298507,,,,,,,,,,,,
918800,note_off,160,0,3,,,,,,,,,,,,,,,2,,,59,0
918800,note_on,0,0,3,,,,,,,,,,,,,,,2,,,54,46
918960,note_off,0,0,3,,,,,,,,,,,,,,,2,,,54,0
918960,note_on,0,0,1,,,,,,,,,,,,,,,0,,,79,55
918960,control_change,160,0,3,,,,,,,,,,,,,64,0,2,,,,
918960,note_off,240,0,1,,,,,,,,,,,,,,,0,,,83,0
918960,note_off,960,0,4,,,,,,,,,,,,,,,3,,,47,0
918960,note_on,0,0,4,,,,,,,,,,,,,,,3,,,52,54
919020,control_change,60,0,3,,,,,,,,,,,,,64,127,2,,,,
919120,note_on,100,0,3,,,,,,,,,,,,,,,2,,,55,46
919280,note_on,0,0,3,,,,,,,,,,,,,,,2,,,59,47
919280,note_off,160,0,3,,,,,,,,,,,,,,,2,,,55,0
919440,note_on,0,0,1,,,,,,,,,,,,,,,0,,,83,52
919440,note_off,160,0,3,,,,,,,,,,,,,,,2,,,59,0
919440,note_on,0,0,3,,,,,,,,,,,,,,,2,,,64,47
919440,note_off,480,0,1,,,,,,,,,,,,,,,0,,,79,0
919600,note_on,0,0,3,,,,,,,,,,,,,,,2,,,55,47
919600,note_off,160,0,3,,,,,,,,,,,,,,,2,,,64,0
919695,set_tempo,945,1,0,,,,,,,301507,,,,,,,,,,,,
919760,note_on,0,0,3,,,,,,,,,,,,,,,2,,,52,47
919760,note_off,160,0,3,,,,,,,,,,,,,,,2,,,55,0
919920,control_change,160,0,3,,,,,,,,,,,,,64,0,2,,,,
919920,note_on,0,0,4,,,,,,,,,,,,,,,3,,,47,60
919920,note_off,960,0,4,,,,,,,,,,,,,,,3,,,52,0
919920,note_on,3840,0,2,,,,,,,,,,,,,,,1,,,73,48
919920,control_change,0,0,2,,,,,,,,,,,,,64,0,1,,,,
919920,note_off,480,0,1,,,,,,,,,,,,,,,0,,,83,0
919920,note_off,0,0,3,,,,,,,,,,,,,,,2,,,52,0
919935,set_tempo,240,1,0,,,,,,,297029,,,,,,,,,,,,
919980,control_change,60,0,2,,,,,,,,,,,,,64,127,1,,,,
920080,note_on,0,0,2,,,,,,,,,,,,,,,1,,,76,48
920080,note_off,100,0,2,,,,,,,,,,,,,,,1,,,73,0
920160,note_on,0,0,4,,,,,,,,,,,,,,,3,,,45,61
920160,note_off,240,0,4,,,,,,,,,,,,,,,3,,,47,0
920240,note_off,160,0,2,,,,,,,,,,,,,,,1,,,76,0
920240,note_on,0,0,2,,,,,,,,,,,,,,,1,,,81,48
920400,note_off,240,0,4,,,,,,,,,,,,,,,3,,,45,0
920400,note_off,160,0,2,,,,,,,,,,,,,,,1,,,81,0
920400,note_on,0,0,2,,,,,,,,,,,,,,,1,,,85,48
920400,note_on,0,0,4,,,,,,,,,,,,,,,3,,,44,62
920560,note_off,160,0,2,,,,,,,,,,,,,,,1,,,85,0
920560,note_on,0,0,2,,,,,,,,,,,,,,,1,,,81,49
920640,note_on,0,0,4,,,,,,,,,,,,,,,3,,,45,62
920640,note_off,240,0,4,,,,,,,,,,,,,,,3,,,44,0
920720,note_off,160,0,2,,,,,,,,,,,,,,,1,,,81,0
920720,note_on,0,0,2,,,,,,,,,,,,,,,1,,,76,49
920880,control_change,160,0,2,,,,,,,,,,,,,64,0,1,,,,
920880,note_off,0,0,2,,,,,,,,,,,,,,,1,,,76,0
920880,note_on,0,0,2,,,,,,,,,,,,,,,1,,,74,49
920880,note_off,240,0,4,,,,,,,,,,,,,,,3,,,45,0
920880,note_on,0,0,4,,,,,,,,,,,,,,,3,,,42,63
920940,control_change,60,0,2,,,,,,,,,,,,,64,127,1,,,,
921040,note_on,0,0,2,,,,,,,,,,,,,,,1,,,78,49
921040,note_off,100,0,2,,,,,,,,,,,,,,,1,,,74,0
921200,note_on,0,0,2,,,,,,,,,,,,,,,1,,,81,50
921200,note_off,160,0,2,,,,,,,,,,,,,,,1,,,78,0
921360,note_off,480,0,4,,,,,,,,,,,,,,,3,,,42,0
921360,note_on,0,0,4,,,,,,,,,,,,,,,3,,,45,60
921360,note_on,0,0,2,,,,,,,,,,,,,,,1,,,86,50
921360,note_off,160,0,2,,,,,,,,,,,,,,,1,,,81,0
921520,note_on,0,0,2,,,,,,,,,,,,,,,1,,,81,50
921520,note_off,160,0,2,,,,,,,,,,,,,,,1,,,86,0
921680,note_on,0,0,2,,,,,,,,,,,,,,,1,,,78,50
921680,note_off,160,0,2,,,,,,,,,,,,,,,1,,,81,0
921780,set_tempo,1845,1,0,,,,,,,298507,,,,,,,,,,,,
921840,control_change,160,0,2,,,,,,,,,,,,,64,0,1,,,,
921840,note_off,480,0,4,,,,,,,,,,,,,,,3,,,45,0
921840,note_off,0,0,2,,,,,,,,,,,,,,,1,,,78,0
921840,note_on,0,0,2,,,,,,,,,,,,,,,1,,,73,51
921840,note_on,0,0,4,,,,,,,,,,,,,,,3,,,47,64
921840,set_tempo,60,1,0,,,,,,,297029,,,,,,,,,,,,
921900,control_change,60,0,2,,,,,,,,,,,,,64,127,1,,,,
922000,note_on,0,0,2,,,,,,,,,,,,,,,1,,,76,51
922000,note_off,100,0,2,,,,,,,,,,,,,,,1,,,73,0
922080,note_off,240,0,4,,,,,,,,,,,,,,,3,,,47,0
922080,note_on,0,0,4,,,,,,,,,,,,,,,3,,,45,65
922160,note_on,0,0,2,,,,,,,,,,,,,,,1,,,81,51
922160,note_off,160,0,2,,,,,,,,,,,,,,,1,,,76,0
922320,note_off,160,0,2,,,,,,,,,,,,,,,1,,,81,0
922320,note_on,0,0,2,,,,,,,,,,,,,,,1,,,85,51
922320,note_off,240,0,4,,,,,,,,,,,,,,,3,,,45,0
922320,note_on,0,0,4,,,,,,,,,,,,,,,3,,,44,65
922480,note_off,160,0,2,,,,,,,,,,,,,,,1,,,85,0
922480,note_on,0,0,2,,,,,,,,,,,,,,,1,,,81,52
922545,set_tempo,705,1,0,,,,,,,298507,,,,,,,,,,,,
922560,note_on,0,0,4,,,,,,,,,,,,,,,3,,,45,66
922560,note_off,240,0,4,,,,,,,,,,,,,,,3,,,44,0
922640,note_on,0,0,2,,,,,,,,,,,,,,,1,,,76,52
922640,note_off,160,0,2,,,,,,,,,,,,,,,1,,,81,0
922800,note_off,240,0,4,,,,,,,,,,,,,,,3,,,45,0
922800,note_on,0,0,4,,,,,,,,,,,,,,,3,,,42,66
922800,note_off,0,0,2,,,,,,,,,,,,,,,1,,,76,0
922800,control_change,160,0,2,,,,,,,,,,,,,64,0,1,,,,
922800,note_on,0,0,2,,,,,,,,,,,,,,,1,,,74,52
922860,control_change,60,0,2,,,,,,,,,,,,,64,127,1,,,,
922960,note_on,0,0,2,,,,,,,,,,,,,,,1,,,78,52
922960,note_off,100,0,2,,,,,,,,,,,,,,,1,,,74,0
923120,note_on,0,0,2,,,,,,,,,,,,,,,1,,,81,53
923120,note_off,160,0,2,,,,,,,,,,,,,,,1,,,78,0
923280,note_on,0,0,2,,,,,,,,,,,,,,,1,,,86,53
923280,note_off,160,0,2,,,,,,,,,,,,,,,1,,,81,0
923280,note_on,0,0,4,,,,,,,,,,,,,,,3,,,45,61
923280,note_off,480,0,4,,,,,,,,,,,,,,,3,,,42,0
923440,note_on,0,0,2,,,,,,,,,,,,,,,1,,,81,53
923440,note_off,160,0,2,,,,,,,,,,,,,,,1,,,86,0
923490,set_tempo,945,1,0,,,,,,,301507,,,,,,,,,,,,
923600,note_off,160,0,2,,,,,,,,,,,,,,,1,,,81,0
923600,note_on,0,0,2,,,,,,,,,,,,,,,1,,,78,53
923760,control_change,160,0,2,,,,,,,,,,,,,64,0,1,,,,
923760,note_off,480,0,4,,,,,,,,,,,,,,,3,,,45,0
923760,note_off,0,0,2,,,,,,,,,,,,,,,1,,,78,0
923760,note_on,3840,0,1,,,,,,,,,,,,,,,0,,,83,62
923760,control_change,3840,0,3,,,,,,,,,,,,,64,0,2,,,,
923760,note_on,0,0,4,,,,,,,,,,,,,,,3,,,37,63
923775,set_tempo,285,1,0,,,,,,,297029,,,,,,,,,,,,
923820,control_change,60,0,3,,,,,,,,,,,,,64,127,2,,,,
923920,note_on,100,0,3,,,,,,,,,,,,,,,2,,,49,52
924000,note_off,240,0,1,,,,,,,,,,,,,,,0,,,83,0
924000,note_on,0,0,1,,,,,,,,,,,,,,,0,,,81,62
924080,note_on,0,0,3,,,,,,,,,,,,,,,2,,,52,53
924080,note_off,160,0,3,,,,,,,,,,,,,,,2,,,49,0
924240,note_off,160,0,3,,,,,,,,,,,,,,,2,,,52,0
924240,note_on,0,0,1,,,,,,,,,,,,,,,0,,,80,62
924240,note_off,240,0,1,,,,,,,,,,,,,,,0,,,81,0
924240,note_on,0,0,3,,,,,,,,,,,,,,,2,,,57,53
924400,note_on,0,0,3,,,,,,,,,,,,,,,2,,,52,53
924400,note_off,160,0,3,,,,,,,,,,,,,,,2,,,57,0
924480,note_on,0,0,1,,,,,,,,,,,,,,,0,,,81,63
924480,note_off,240,0,1,,,,,,,,,,,,,,,0,,,80,0
924560,note_on,0,0,3,,,,,,,,,,,,,,,2,,,49,53
924560,note_off,160,0,3,,,,,,,,,,,,,,,2,,,52,0
924720,note_off,0,0,3,,,,,,,,,,,,,,,2,,,49,0
924720,note_on,0,0,1,,,,,,,,,,,,,,,0,,,79,63
924720,control_change,160,0,3,,,,,,,,,,,,,64,0,2,,,,
924720,note_off,240,0,1,,,,,,,,,,,,,,,0,,,81,0
924720,note_on,0,0,4,,,,,,,,,,,,,,,3,,,38,60
924720,note_off,960,0,4,,,,,,,,,,,,,,,3,,,37,0
924780,control_change,60,0,3,,,,,,,,,,,,,64,127,2,,,,
924880,note_on,100,0,3,,,,,,,,,,,,,,,2,,,50,54
924960,note_on,0,0,1,,,,,,,,,,,,,,,0,,,78,63
924960,note_off,240,0,1,,,,,,,,,,,,,,,0,,,79,0
925040,note_off,160,0,3,,,,,,,,,,,,,,,2,,,50,0
925040,note_on,0,0,3,,,,,,,,,,,,,,,2,,,54,54
925200,note_off,160,0,3,,,,,,,,,,,,,,,2,,,54,0
925200,note_off,240,0,1,,,,,,,,,,,,,,,0,,,78,0
925200,note_on,0,0,1,,,,,,,,,,,,,,,0,,,77,63
925200,note_on,0,0,3,,,,,,,,,,,,,,,2,,,57,55
925360,note_on,0,0,3,,,,,,,,,,,,,,,2,,,54,55
925360,note_off,160,0,3,,,,,,,,,,,,,,,2,,,57,0
925440,note_off,240,0,1,,,,,,,,,,,,,,,0,,,77,0
925440,note_on,0,0,1,,,,,,,,,,,,,,,0,,,78,64
925520,note_on,0,0,3,,,,,,,,,,,,,,,2,,,50,55
925520,note_off,160,0,3,,,,,,,,,,,,,,,2,,,54,0
925680,note_on,0,0,1,,,,,,,,,,,,,,,0,,,78,74
925680,note_off,960,0,4,,,,,,,,,,,,,,,3,,,38,0
925680,control_change,160,0,3,,,,,,,,,,,,,64,0,2,,,,
925680,note_off,240,0,1,,,,,,,,,,,,,,,0,,,78,0
925680,note_on,0,0,2,,,,,,,,,,,,,,,1,,,68,74
925680,note_on,1920,0,2,,,,,,,,,,,,,,,1,,,71,74
925680,note_on,0,0,4,,,,,,,,,,,,,,,3,,,40,75
925680,note_off,0,0,3,,,,,,,,,,,,,,,2,,,50,0
925740,control_change,60,0,3,,,,,,,,,,,,,64,127,2,,,,
925840,note_on,100,0,3,,,,,,,,,,,,,,,2,,,50,63
925920,note_off,240,0,1,,,,,,,,,,,,,,,0,,,78,0
925920,note_on,0,0,1,,,,,,,,,,,,,,,0,,,76,64
926000,note_off,160,0,3,,,,,,,,,,,,,,,2,,,50,0
926000,note_on,0,0,3,,,,,,,,,,,,,,,2,,,52,58
926160,note_off,240,0,1,,,,,,,,,,,,,,,0,,,76,0
926160,note_off,0,0,2,,,,,,,,,,,,,,,1,,,68,0
926160,note_off,480,0,2,,,,,,,,,,,,,,,1,,,71,0
926160,note_on,0,0,2,,,,,,,,,,,,,,,1,,,71,65
926160,note_on,0,0,2,,,,,,,,,,,,,,,1,,,68,65
926160,note_off,160,0,3,,,,,,,,,,,,,,,2,,,52,0
926160,note_on,0,0,3,,,,,,,,,,,,,,,2,,,56,56
926160,note_on,0,0,1,,,,,,,,,,,,,,,0,,,75,65
926320,note_off,160,0,3,,,,,,,,,,,,,,,2,,,56,0
926320,note_on,0,0,3,,,,,,,,,,,,,,,2,,,52,57
926400,note_off,240,0,1,,,,,,,,,,,,,,,0,,,75,0
926400,set_tempo,2625,1,0,,,,,,,300000,,,,,,,,,,,,
926400,note_on,0,0,1,,,,,,,,,,,,,,,0,,,76,65
926480,note_off,160,0,3,,,,,,,,,,,,,,,2,,,52,0
926480,note_on,0,0,3,,,,,,,,,,,,,,,2,,,50,57
926640,note_on,0,0,1,,,,,,,,,,,,,,,0,,,78,65
926640,note_off,0,0,2,,,,,,,,,,,,,,,1,,,68,0
926640,note_on,0,0,2,,,,,,,,,,,,,,,1,,,69,65
926640,note_on,0,0,2,,,,,,,,,,,,,,,1,,,73,65
926640,note_off,0,0,3,,,,,,,,,,,,,,,2,,,50,0
926640,note_off,960,0,4,,,,,,,,,,,,,,,3,,,40,0
926640,note_on,0,0,4,,,,,,,,,,,,,,,3,,,45,62
926640,control_change,160,0,3,,,,,,,,,,,,,64,0,2,,,,
926640,note_off,480,0,2,,,,,,,,,,,,,,,1,,,71,0
926640,note_off,240,0,1,,,,,,,,,,,,,,,0,,,76,0
926655,set_tempo,255,1,0,,,,,,,297029,,,,,,,,,,,,
926700,control_change,60,0,3,,,,,,,,,,,,,64,127,2,,,,
926800,note_on,100,0,3,,,,,,,,,,,,,,,2,,,49,58
926880,note_on,0,0,1,,,,,,,,,,,,,,,0,,,76,66
926880,note_off,240,0,1,,,,,,,,,,,,,,,0,,,78,0
926960,note_on,0,0,3,,,,,,,,,,,,,,,2,,,52,58
926960,note_off,160,0,3,,,,,,,,,,,,,,,2,,,49,0
927120,note_off,480,0,2,,,,,,,,,,,,,,,1,,,69,0
927120,note_off,0,0,2,,,,,,,,,,,,,,,1,,,73,0
927120,note_off,160,0,3,,,,,,,,,,,,,,,2,,,52,0
927120,note_on,0,0,3,,,,,,,,,,,,,,,2,,,57,58
927120,note_off,240,0,1,,,,,,,,,,,,,,,0,,,76,0
927120,note_on,0,0,1,,,,,,,,,,,,,,,0,,,75,66
927280,note_off,160,0,3,,,,,,,,,,,,,,,2,,,57,0
927280,note_on,0,0,3,,,,,,,,,,,,,,,2,,,52,58
927360,note_on,0,0,1,,,,,,,,,,,,,,,0,,,76,66
927360,note_off,240,0,1,,,,,,,,,,,,,,,0,,,75,0
927440,note_off,160,0,3,,,,,,,,,,,,,,,2,,,52,0
927440,note_on,0,0,3,,,,,,,,,,,,,,,2,,,49,59
927600,note_off,960,0,4,,,,,,,,,,,,,,,3,,,45,0
927600,note_on,0,0,4,,,,,,,,,,,,,,,3,,,37,63
927600,note_off,240,0,1,,,,,,,,,,,,,,,0,,,76,0
927600,note_on,0,0,1,,,,,,,,,,,,,,,0,,,83,67
927600,control_change,160,0,3,,,,,,,,,,,,,64,0,2,,,,
927600,note_off,0,0,3,,,,,,,,,,,,,,,2,,,49,0
927660,control_change,60,0,3,,,,,,,,,,,,,64,127,2,,,,
927760,note_on,100,0,3,,,,,,,,,,,,,,,2,,,49,59
927840,note_on,0,0,1,,,,,,,,,,,,,,,0,,,81,67
927840,note_off,240,0,1,,,,,,,,,,,,,,,0,,,83,0
927920,note_off,160,0,3,,,,,,,,,,,,,,,2,,,49,0
927920,note_on,0,0,3,,,,,,,,,,,,,,,2,,,52,60
928080,note_on,0,0,1,,,,,,,,,,,,,,,0,,,80,67
928080,note_off,240,0,1,,,,,,,,,,,,,,,0,,,81,0
928080,note_off,160,0,3,,,,,,,,,,,,,,,2,,,52,0
928080,note_on,0,0,3,,,,,,,,,,,,,,,2,,,57,60
928240,note_off,160,0,3,,,,,,,,,,,,,,,2,,,57,0
928240,note_on,0,0,3,,,,,,,,,,,,,,,2,,,52,60
928320,note_off,240,0,1,,,,,,,,,,,,,,,0,,,80,0
928320,note_on,0,0,1,,,,,,,,,,,,,,,0,,,81,68
928400,note_on,0,0,3,,,,,,,,,,,,,,,2,,,49,60
928400,note_off,160,0,3,,,,,,,,,,,,,,,2,,,52,0
928560,note_off,0,0,3,,,,,,,,,,,,,,,2,,,49,0
928560,control_change,160,0,3,,,,,,,,,,,,,64,0,2,,,,
928560,note_off,960,0,4,,,,,,,,,,,,,,,3,,,37,0
928560,note_on,0,0,4,,,,,,,,,,,,,,,3,,,38,65
928560,note_on,0,0,1,,,,,,,,,,,,,,,0,,,79,68
928560,note_off,240,0,1,,,,,,,,,,,,,,,0,,,81,0
928620,control_change,60,0,3,,,,,,,,,,,,,64,127,2,,,,
928720,note_on,100,0,3,,,,,,,,,,,,,,,2,,,50,61
928800,note_on,0,0,1,,,,,,,,,,,,,,,0,,,78,68
928800,note_off,240,0,1,,,,,,,,,,,,,,,0,,,79,0
928880,note_on,0,0,3,,,,,,,,,,,,,,,2,,,54,61
928880,note_off,160,0,3,,,,,,,,,,,,,,,2,,,50,0
929040,note_off,160,0,3,,,,,,,,,,,,,,,2,,,54,0
929040,note_on,0,0,3,,,,,,,,,,,,,,,2,,,57,62
929040,note_off,240,0,1,,,,,,,,,,,,,,,0,,,78,0
929040,note_on,0,0,1,,,,,,,,,,,,,,,0,,,77,69
929200,note_on,0,0,3,,,,,,,,,,,,,,,2,,,54,62
929200,note_off,160,0,3,,,,,,,,,,,,,,,2,,,57,0
929280,note_off,240,0,1,,,,,,,,,,,,,,,0,,,77,0
929280,note_on,0,0,1,,,,,,,,,,,,,,,0,,,78,69
929360,note_on,0,0,3,,,,,,,,,,,,,,,2,,,50,62
929360,note_off,160,0,3,,,,,,,,,,,,,,,2,,,54,0
929520,note_on,0,0,4,,,,,,,,,,,,,,,3,,,40,80
929520,note_off,960,0,4,,,,,,,,,,,,,,,3,,,38,0
929520,note_on,0,0,2,,,,,,,,,,,,,,,1,,,68,78
929520,note_on,2400,0,2,,,,,,,,,,,,,,,1,,,71,78
929520,note_off,240,0,1,,,,,,,,,,,,,,,0,,,78,0
929520,note_on,0,0,1,,,,,,,,,,,,,,,0,,,78,78
929520,note_off,0,0,3,,,,,,,,,,,,,,,2,,,50,0
929520,control_change,160,0,3,,,,,,,,,,,,,64,0,2,,,,
929580,control_change,60,0,3,,,,,,,,,,,,,64,127,2,,,,
929680,note_on,100,0,3,,,,,,,,,,,,,,,2,,,50,70
929760,note_on,0,0,1,,,,,,,,,,,,,,,0,,,76,69
929760,note_off,240,0,1,,,,,,,,,,,,,,,0,,,78,0
929840,note_on,0,0,3,,,,,,,,,,,,,,,2,,,52,64
929840,note_off,160,0,3,,,,,,,,,,,,,,,2,,,50,0
930000,note_off,480,0,2,,,,,,,,,,,,,,,1,,,71,0
930000,note_off,240,0,1,,,,,,,,,,,,,,,0,,,76,0
930000,note_off,0,0,2,,,,,,,,,,,,,,,1,,,68,0
930000,note_off,160,0,3,,,,,,,,,,,,,,,2,,,52,0
930000,note_on,0,0,3,,,,,,,,,,,,,,,2,,,56,63
930000,note_on,0,0,1,,,,,,,,,,,,,,,0,,,75,70
930000,note_on,0,0,2,,,,,,,,,,,,,,,1,,,68,70
930000,note_on,0,0,2,,,,,,,,,,,,,,,1,,,71,70
930160,note_off,160,0,3,,,,,,,,,,,,,,,2,,,56,0
930160,note_on,0,0,3,,,,,,,,,,,,,,,2,,,52,64
930240,note_on,0,0,1,,,,,,,,,,,,,,,0,,,76,70
930240,set_tempo,3585,1,0,,,,,,,300000,,,,,,,,,,,,
930240,note_off,240,0,1,,,,,,,,,,,,,,,0,,,75,0
930320,note_off,160,0,3,,,,,,,,,,,,,,,2,,,52,0
930320,note_on,0,0,3,,,,,,,,,,,,,,,2,,,50,64
930480,note_off,0,0,3,,,,,,,,,,,,,,,2,,,50,0
930480,note_on,0,0,2,,,,,,,,,,,,,,,1,,,73,70
930480,note_off,0,0,2,,,,,,,,,,,,,,,1,,,71,0
930480,note_off,480,0,2,,,,,,,,,,,,,,,1,,,68,0
930480,note_on,0,0,4,,,,,,,,,,,,,,,3,,,45,69
930480,note_on,0,0,1,,,,,,,,,,,,,,,0,,,78,70
930480,note_off,240,0,1,,,,,,,,,,,,,,,0,,,76,0
930480,note_off,960,0,4,,,,,,,,,,,,,,,3,,,40,0
930480,control_change,160,0,3,,,,,,,,,,,,,64,0,2,,,,
930480,note_on,0,0,2,,,,,,,,,,,,,,,1,,,69,70
930495,set_tempo,255,1,0,,,,,,,297029,,,,,,,,,,,,
930540,control_change,60,0,3,,,,,,,,,,,,,64,127,2,,,,
930640,note_on,100,0,3,,,,,,,,,,,,,,,2,,,49,65
930720,note_on,0,0,1,,,,,,,,,,,,,,,0,,,76,71
930720,note_off,240,0,1,,,,,,,,,,,,,,,0,,,78,0
930800,note_on,0,0,3,,,,,,,,,,,,,,,2,,,52,65
930800,note_off,160,0,3,,,,,,,,,,,,,,,2,,,49,0
930960,note_off,240,0,1,,,,,,,,,,,,,,,0,,,76,0
930960,note_on,0,0,3,,,,,,,,,,,,,,,2,,,57,65
930960,note_on,0,0,1,,,,,,,,,,,,,,,0,,,75,71
930960,note_off,480,0,2,,,,,,,,,,,,,,,1,,,73,0
930960,note_off,0,0,2,,,,,,,,,,,,,,,1,,,69,0
930960,note_off,160,0,3,,,,,,,,,,,,,,,2,,,52,0
931120,note_off,160,0,3,,,,,,,,,,,,,,,2,,,57,0
931120,note_on,0,0,3,,,,,,,,,,,,,,,2,,,52,66
931200,note_off,240,0,1,,,,,,,,,,,,,,,0,,,75,0
931200,note_on,0,0,1,,,,,,,,,,,,,,,0,,,76,71
931280,note_off,160,0,3,,,,,,,,,,,,,,,2,,,52,0
931280,note_on,0,0,3,,,,,,,,,,,,,,,2,,,49,66
931440,note_on,0,0,1,,,,,,,,,,,,,,,0,,,78,83
931440,note_off,240,0,1,,,,,,,,,,,,,,,0,,,76,0
931440,note_on,480,0,2,,,,,,,,,,,,,,,1,,,71,83
931440,control_change,160,0,3,,,,,,,,,,,,,64,0,2,,,,
931440,note_off,0,0,3,,,,,,,,,,,,,,,2,,,49,0
931440,note_on,0,0,4,,,,,,,,,,,,,,,3,,,40,87
931440,note_off,960,0,4,,,,,,,,,,,,,,,3,,,45,0
931440,note_on,0,0,2,,,,,,,,,,,,,,,1,,,68,83
931500,control_change,60,0,3,,,,,,,,,,,,,64,127,2,,,,
931600,note_on,100,0,3,,,,,,,,,,,,,,,2,,,50,72
931680,note_off,240,0,1,,,,,,,,,,,,,,,0,,,78,0
931680,note_on,0,0,1,,,,,,,,,,,,,,,0,,,76,72
931760,note_off,160,0,3,,,,,,,,,,,,,,,2,,,50,0
931760,note_on,0,0,3,,,,,,,,,,,,,,,2,,,52,66
931920,note_on,0,0,3,,,,,,,,,,,,,,,2,,,56,67
931920,note_off,160,0,3,,,,,,,,,,,,,,,2,,,52,0
931920,note_off,0,0,2,,,,,,,,,,,,,,,1,,,68,0
931920,note_on,0,0,1,,,,,,,,,,,,,,,0,,,75,72
931920,note_off,240,0,1,,,,,,,,,,,,,,,0,,,76,0
931920,note_off,480,0,2,,,,,,,,,,,,,,,1,,,71,0
931920,note_on,0,0,2,,,,,,,,,,,,,,,1,,,68,72
931920,note_on,0,0,2,,,,,,,,,,,,,,,1,,,71,72
932080,note_on,0,0,3,,,,,,,,,,,,,,,2,,,52,67
932080,note_off,160,0,3,,,,,,,,,,,,,,,2,,,56,0
932160,note_on,0,0,1,,,,,,,,,,,,,,,0,,,76,73
932160,note_off,240,0,1,,,,,,,,,,,,,,,0,,,75,0
932160,set_tempo,1665,1,0,,,,,,,300000,,,,,,,,,,,,
932240,note_on,0,0,3,,,,,,,,,,,,,,,2,,,50,68
932240,note_off,160,0,3,,,,,,,,,,,,,,,2,,,52,0
932400,note_off,0,0,3,,,,,,,,,,,,,,,2,,,50,0
932400,control_change,160,0,3,,,,,,,,,,,,,64,0,2,,,,
932400,note_on,0,0,2,,,,,,,,,,,,,,,1,,,69,73
932400,note_off,240,0,1,,,,,,,,,,,,,,,0,,,76,0
932400,note_off,0,0,2,,,,,,,,,,,,,,,1,,,71,0
932400,note_on,0,0,1,,,,,,,,,,,,,,,0,,,78,73
932400,note_off,960,0,4,,,,,,,,,,,,,,,3,,,40,0
932400,note_on,0,0,4,,,,,,,,,,,,,,,3,,,45,74
932400,note_on,0,0,2,,,,,,,,,,,,,,,1,,,73,73
932400,note_off,480,0,2,,,,,,,,,,,,,,,1,,,68,0
932415,set_tempo,255,1,0,,,,,,,297029,,,,,,,,,,,,
932460,control_change,60,0,3,,,,,,,,,,,,,64,127,2,,,,
932560,note_on,100,0,3,,,,,,,,,,,,,,,2,,,49,68
932640,note_on,0,0,1,,,,,,,,,,,,,,,0,,,76,73
932640,note_off,240,0,1,,,,,,,,,,,,,,,0,,,78,0
932720,note_off,160,0,3,,,,,,,,,,,,,,,2,,,49,0
932720,note_on,0,0,3,,,,,,,,,,,,,,,2,,,52,68
932880,note_on,0,0,3,,,,,,,,,,,,,,,2,,,57,69
932880,note_off,160,0,3,,,,,,,,,,,,,,,2,,,52,0
932880,note_off,240,0,1,,,,,,,,,,,,,,,0,,,76,0
932880,note_on,0,0,1,,,,,,,,,,,,,,,0,,,75,74
932880,note_off,0,0,2,,,,,,,,,,,,,,,1,,,69,0
932880,note_off,480,0,2,,,,,,,,,,,,,,,1,,,73,0
933040,note_on,0,0,3,,,,,,,,,,,,,,,2,,,52,69
933040,note_off,160,0,3,,,,,,,,,,,,,,,2,,,57,0
933120,note_off,240,0,1,,,,,,,,,,,,,,,0,,,75,0
933120,note_on,0,0,1,,,,,,,,,,,,,,,0,,,76,74
933200,note_on,0,0,3,,,,,,,,,,,,,,,2,,,49,69
933200,note_off,160,0,3,,,,,,,,,,,,,,,2,,,52,0
933316,note_off,916,0,4,,,,,,,,,,,,,,,3,,,45,0
933360,control_change,160,0,3,,,,,,,,,,,,,64,0,2,,,,
933360,note_off,0,0,3,,,,,,,,,,,,,,,2,,,49,0
933360,note_on,44,0,4,,,,,,,,,,,,,,,3,,,40,80
933360,note_on,0,0,1,,,,,,,,,,,,,,,0,,,78,86
933360,note_on,0,0,2,,,,,,,,,,,,,,,1,,,68,86
933360,note_on,480,0,2,,,,,,,,,,,,,,,1,,,71,86
933360,note_off,240,0,1,,,,,,,,,,,,,,,0,,,76,0
933420,control_change,60,0,3,,,,,,,,,,,,,64,127,2,,,,
933520,note_on,100,0,3,,,,,,,,,,,,,,,2,,,50,76
933600,note_off,240,0,1,,,,,,,,,,,,,,,0,,,78,0
933600,note_on,0,0,1,,,,,,,,,,,,,,,0,,,76,74
933680,note_on,0,0,3,,,,,,,,,,,,,,,2,,,52,69
933680,note_off,160,0,3,,,,,,,,,,,,,,,2,,,50,0
933840,note_off,160,0,3,,,,,,,,,,,,,,,2,,,52,0
933840,note_off,0,0,2,,,,,,,,,,,,,,,1,,,68,0
933840,note_on,0,0,2,,,,,,,,,,,,,,,1,,,68,75
933840,note_off,240,0,1,,,,,,,,,,,,,,,0,,,76,0
933840,note_on,0,0,1,,,,,,,,,,,,,,,0,,,75,75
933840,note_on,0,0,2,,,,,,,,,,,,,,,1,,,71,75
933840,note_on,0,0,3,,,,,,,,,,,,,,,2,,,56,71
933840,note_off,480,0,2,,,,,,,,,,,,,,,1,,,71,0
934000,note_off,160,0,3,,,,,,,,,,,,,,,2,,,56,0
934000,note_on,0,0,3,,,,,,,,,,,,,,,2,,,52,71
934080,note_on,0,0,1,,,,,,,,,,,,,,,0,,,76,75
934080,note_off,240,0,1,,,,,,,,,,,,,,,0,,,75,0
934080,set_tempo,1665,1,0,,,,,,,300000,,,,,,,,,,,,
934160,note_on,0,0,3,,,,,,,,,,,,,,,2,,,50,71
934160,note_off,160,0,3,,,,,,,,,,,,,,,2,,,52,0
934260,note_on,100,0,3,,,,,,,,,,,,,,,2,,,49,82
934320,note_off,0,0,2,,,,,,,,,,,,,,,1,,,68,0
934320,note_off,480,0,2,,,,,,,,,,,,,,,1,,,71,0
934320,note_on,0,0,1,,,,,,,,,,,,,,,0,,,69,84
934320,note_off,240,0,1,,,,,,,,,,,,,,,0,,,76,0
934320,note_off,0,0,3,,,,,,,,,,,,,,,2,,,50,0
934320,control_change,60,0,3,,,,,,,,,,,,,64,0,2,,,,
934320,note_off,960,0,4,,,,,,,,,,,,,,,3,,,40,0
934320,note_on,0,0,4,,,,,,,,,,,,,,,3,,,57,88
934800,note_off,480,0,1,,,,,,,,,,,,,,,0,,,69,0
935010,set_tempo,930,1,0,,,,,,,301507,,,,,,,,,,,,
935280,note_on,960,0,4,,,,,,,,,,,,,,,3,,,55,64
935295,set_tempo,285,1,0,,,,,,,297029,,,,,,,,,,,,
935440,note_on,640,0,1,,,,,,,,,,,,,,,0,,,69,50
935600,note_on,0,0,1,,,,,,,,,,,,,,,0,,,71,50
935600,note_off,160,0,1,,,,,,,,,,,,,,,0,,,69,0
935760,note_off,160,0,1,,,,,,,,,,,,,,,0,,,71,0
935760,note_on,0,0,4,,,,,,,,,,,,,,,3,,,52,64
935760,note_off,480,0,4,,,,,,,,,,,,,,,3,,,55,0
935760,note_on,0,0,1,,,,,,,,,,,,,,,0,,,73,50
935920,note_off,160,0,1,,,,,,,,,,,,,,,0,,,73,0
935920,note_on,0,0,1,,,,,,,,,,,,,,,0,,,71,50
936080,note_on,0,0,1,,,,,,,,,,,,,,,0,,,69,50
936080,note_off,160,0,1,,,,,,,,,,,,,,,0,,,71,0
936240,note_off,160,0,1,,,,,,,,,,,,,,,0,,,69,0
936240,note_off,480,0,4,,,,,,,,,,,,,,,3,,,52,0
936240,note_on,0,0,4,,,,,,,,,,,,,,,3,,,54,64
936400,note_on,160,0,1,,,,,,,,,,,,,,,0,,,74,50
936560,note_off,160,0,1,,,,,,,,,,,,,,,0,,,74,0
936560,note_on,0,0,1,,,,,,,,,,,,,,,0,,,76,51
936720,note_off,160,0,1,,,,,,,,,,,,,,,0,,,76,0
936720,note_on,0,0,1,,,,,,,,,,,,,,,0,,,78,51
936720,note_off,480,0,4,,,,,,,,,,,,,,,3,,,54,0
936720,note_on,0,0,4,,,,,,,,,,,,,,,3,,,50,64
936880,note_off,160,0,1,,,,,,,,,,,,,,,0,,,78,0
936880,note_on,0,0,1,,,,,,,,,,,,,,,0,,,76,51
937040,note_off,160,0,1,,,,,,,,,,,,,,,0,,,76,0
937040,note_on,0,0,1,,,,,,,,,,,,,,,0,,,74,51
937200,note_on,0,0,4,,,,,,,,,,,,,,,3,,,55,65
937200,note_off,480,0,4,,,,,,,,,,,,,,,3,,,50,0
937200,note_off,160,0,1,,,,,,,,,,,,,,,0,,,74,0
937360,note_on,160,0,1,,,,,,,,,,,,,,,0,,,69,51
937520,note_off,160,0,1,,,,,,,,,,,,,,,0,,,69,0
937520,note_on,0,0,1,,,,,,,,,,,,,,,0,,,71,51
937680,note_off,480,0,4,,,,,,,,,,,,,,,3,,,55,0
937680,note_on,0,0,1,,,,,,,,,,,,,,,0,,,73,51
937680,note_off,160,0,1,,,,,,,,,,,,,,,0,,,71,0
937680,note_on,0,0,4,,,,,,,,,,,,,,,3,,,52,65
937840,note_on,0,0,1,,,,,,,,,,,,,,,0,,,71,51
937840,note_off,160,0,1,,,,,,,,,,,,,,,0,,,73,0
938000,note_on,0,0,1,,,,,,,,,,,,,,,0,,,69,51
938000,note_off,160,0,1,,,,,,,,,,,,,,,0,,,71,0
938160,note_off,160,0,1,,,,,,,,,,,,,,,0,,,69,0
938160,note_off,480,0,4,,,,,,,,,,,,,,,3,,,52,0
938160,note_on,0,0,4,,,,,,,,,,,,,,,3,,,54,65
938320,note_on,160,0,1,,,,,,,,,,,,,,,0,,,74,52
938480,note_off,160,0,1,,,,,,,,,,,,,,,0,,,74,0
938480,note_on,0,0,1,,,,,,,,,,,,,,,0,,,76,52
938640,note_off,160,0,1,,,,,,,,,,,,,,,0,,,76,0
938640,note_on,0,0,1,,,,,,,,,,,,,,,0,,,78,52
938640,note_off,480,0,4,,,,,,,,,,,,,,,3,,,54,0
938640,note_on,0,0,4,,,,,,,,,,,,,,,3,,,50,65
938800,note_off,160,0,1,,,,,,,,,,,,,,,0,,,78,0
938800,note_on,0,0,1,,,,,,,,,,,,,,,0,,,76,52
938960,note_off,160,0,1,,,,,,,,,,,,,,,0,,,76,0
938960,note_on,0,0,1,,,,,,,,,,,,,,,0,,,74,52
939120,note_off,160,0,1,,,,,,,,,,,,,,,0,,,74,0
939120,note_off,480,0,4,,,,,,,,,,,,,,,3,,,50,0
939120,note_on,0,0,4,,,,,,,,,,,,,,,3,,,55,66
939280,note_on,160,0,1,,,,,,,,,,,,,,,0,,,69,52
939440,note_off,160,0,1,,,,,,,,,,,,,,,0,,,69,0
939440,note_on,0,0,1,,,,,,,,,,,,,,,0,,,71,52
939600,note_off,480,0,4,,,,,,,,,,,,,,,3,,,55,0
939600,note_on,0,0,4,,,,,,,,,,,,,,,3,,,52,66
939600,note_on,0,0,1,,,,,,,,,,,,,,,0,,,73,52
939600,note_off,160,0,1,,,,,,,,,,,,,,,0,,,71,0
939760,note_on,0,0,1,,,,,,,,,,,,,,,0,,,71,52
939760,note_off,160,0,1,,,,,,,,,,,,,,,0,,,73,0
939920,note_off,160,0,1,,,,,,,,,,,,,,,0,,,71,0
939920,note_on,0,0,1,,,,,,,,,,,,,,,0,,,69,53
940080,note_on,0,0,4,,,,,,,,,,,,,,,3,,,54,66
940080,note_off,480,0,4,,,,,,,,,,,,,,,3,,,52,0
940080,note_off,160,0,1,,,,,,,,,,,,,,,0,,,69,0
940240,note_on,160,0,1,,,,,,,,,,,,,,,0,,,74,53
940250,note_off,5930,0,3,,,,,,,,,,,,,,,2,,,49,0
940400,note_off,160,0,1,,,,,,,,,,,,,,,0,,,74,0
940400,note_on,0,0,1,,,,,,,,,,,,,,,0,,,76,53
940560,note_off,480,0,4,,,,,,,,,,,,,,,3,,,54,0
940560,note_on,0,0,4,,,,,,,,,,,,,,,3,,,50,66
940560,note_off,160,0,1,,,,,,,,,,,,,,,0,,,76,0
940560,note_on,0,0,1,,,,,,,,,,,,,,,0,,,78,53
940720,note_off,160,0,1,,,,,,,,,,,,,,,0,,,78,0
940720,note_on,0,0,1,,,,,,,,,,,,,,,0,,,76,53
940880,note_off,160,0,1,,,,,,,,,,,,,,,0,,,76,0
940880,note_on,0,0,1,,,,,,,,,,,,,,,0,,,74,53
941040,note_off,0,0,1,,,,,,,,,,,,,,,0,,,74,0
941040,note_on,0,0,4,,,,,,,,,,,,,,,3,,,52,67
941040,control_change,160,0,1,,,,,,,,,,,,,64,0,0,,,,
941040,note_on,0,0,1,,,,,,,,,,,,,,,0,,,79,53
941040,note_off,480,0,4,,,,,,,,,,,,,,,3,,,50,0
941100,control_change,60,0,1,,,,,,,,,,,,,64,127,0,,,,
941200,note_off,100,0,1,,,,,,,,,,,,,,,0,,,79,0
941200,note_on,0,0,1,,,,,,,,,,,,,,,0,,,76,53
941360,note_off,160,0,1,,,,,,,,,,,,,,,0,,,76,0
941360,note_on,0,0,1,,,,,,,,,,,,,,,0,,,73,53
941520,note_off,160,0,1,,,,,,,,,,,,,,,0,,,73,0
941520,note_on,0,0,4,,,,,,,,,,,,,,,3,,,45,67
941520,note_off,480,0,4,,,,,,,,,,,,,,,3,,,52,0
941520,note_on,0,0,1,,,,,,,,,,,,,,,0,,,67,53
941680,note_off,160,0,1,,,,,,,,,,,,,,,0,,,67,0
941680,note_on,0,0,1,,,,,,,,,,,,,,,0,,,64,54
941840,note_off,160,0,1,,,,,,,,,,,,,,,0,,,64,0
941840,note_on,0,0,1,,,,,,,,,,,,,,,0,,,61,54
942000,note_off,0,0,1,,,,,,,,,,,,,,,0,,,61,0
942000,note_off,480,0,4,,,,,,,,,,,,,,,3,,,45,0
942000,note_on,0,0,4,,,,,,,,,,,,,,,3,,,50,67
942000,note_on,0,0,1,,,,,,,,,,,,,,,0,,,62,54
942000,control_change,160,0,1,,,,,,,,,,,,,64,0,0,,,,
942060,control_change,60,0,1,,,,,,,,,,,,,64,127,0,,,,
942160,note_on,0,0,1,,,,,,,,,,,,,,,0,,,66,54
942160,note_off,100,0,1,,,,,,,,,,,,,,,0,,,62,0
942320,note_on,0,0,1,,,,,,,,,,,,,,,0,,,62,54
942320,note_off,160,0,1,,,,,,,,,,,,,,,0,,,66,0
942480,note_on,0,0,4,,,,,,,,,,,,,,,3,,,42,67
942480,note_off,480,0,4,,,,,,,,,,,,,,,3,,,50,0
942480,note_off,160,0,1,,,,,,,,,,,,,,,0,,,62,0
942480,note_on,0,0,1,,,,,,,,,,,,,,,0,,,57,54
942640,note_off,160,0,1,,,,,,,,,,,,,,,0,,,57,0
942640,note_on,0,0,1,,,,,,,,,,,,,,,0,,,54,54
942705,set_tempo,7410,1,0,,,,,,,300000,,,,,,,,,,,,
942800,note_on,0,0,1,,,,,,,,,,,,,,,0,,,62,54
942800,note_off,160,0,1,,,,,,,,,,,,,,,0,,,54,0
942960,control_change,160,0,1,,,,,,,,,,,,,64,0,0,,,,
942960,note_on,0,0,4,,,,,,,,,,,,,,,3,,,45,83
942960,note_on,0,0,4,,,,,,,,,,,,,,,3,,,43,83
942960,note_off,0,0,4,,,,,,,,,,,,,,,3,,,42,0
942960,note_off,480,0,4,,,,,,,,,,,,,,,3,,,57,0
942960,note_off,0,0,1,,,,,,,,,,,,,,,0,,,62,0
942975,set_tempo,270,1,0,,,,,,,297029,,,,,,,,,,,,
943120,note_on,160,0,1,,,,,,,,,,,,,,,0,,,69,62
943280,note_on,0,0,1,,,,,,,,,,,,,,,0,,,71,60
943280,note_off,160,0,1,,,,,,,,,,,,,,,0,,,69,0
943440,note_on,0,0,1,,,,,,,,,,,,,,,0,,,73,58
943440,note_off,480,0,4,,,,,,,,,,,,,,,3,,,43,0
943440,note_on,0,0,4,,,,,,,,,,,,,,,3,,,40,68
943440,note_off,160,0,1,,,,,,,,,,,,,,,0,,,71,0
943600,note_on,0,0,1,,,,,,,,,,,,,,,0,,,71,56
943600,note_off,160,0,1,,,,,,,,,,,,,,,0,,,73,0
943760,note_off,160,0,1,,,,,,,,,,,,,,,0,,,71,0
943760,note_on,0,0,1,,,,,,,,,,,,,,,0,,,69,54
943920,note_on,0,0,4,,,,,,,,,,,,,,,3,,,42,68
943920,note_off,160,0,1,,,,,,,,,,,,,,,0,,,69,0
943920,note_off,480,0,4,,,,,,,,,,,,,,,3,,,40,0
944080,note_on,160,0,1,,,,,,,,,,,,,,,0,,,74,55
944240,note_on,0,0,1,,,,,,,,,,,,,,,0,,,76,55
944240,note_off,160,0,1,,,,,,,,,,,,,,,0,,,74,0
944400,note_on,0,0,1,,,,,,,,,,,,,,,0,,,78,55
944400,note_off,160,0,1,,,,,,,,,,,,,,,0,,,76,0
944400,note_on,0,0,4,,,,,,,,,,,,,,,3,,,38,68
944400,note_off,480,0,4,,,,,,,,,,,,,,,3,,,42,0
944560,note_on,0,0,1,,,,,,,,,,,,,,,0,,,76,55
944560,note_off,160,0,1,,,,,,,,,,,,,,,0,,,78,0
944720,note_on,0,0,1,,,,,,,,,,,,,,,0,,,74,55
944720,note_off,160,0,1,,,,,,,,,,,,,,,0,,,76,0
944880,control_change,160,0,1,,,,,,,,,,,,,64,0,0,,,,
944880,note_off,480,0,4,,,,,,,,,,,,,,,3,,,38,0
944880,note_on,0,0,4,,,,,,,,,,,,,,,3,,,40,68
944880,note_off,0,0,1,,,,,,,,,,,,,,,0,,,74,0
944880,note_on,0,0,1,,,,,,,,,,,,,,,0,,,79,55
944940,control_change,60,0,1,,,,,,,,,,,,,64,127,0,,,,
945040,note_off,100,0,1,,,,,,,,,,,,,,,0,,,79,0
945040,note_on,0,0,1,,,,,,,,,,,,,,,0,,,76,56
945200,note_off,160,0,1,,,,,,,,,,,,,,,0,,,76,0
945200,note_on,0,0,1,,,,,,,,,,,,,,,0,,,73,56
945360,note_off,480,0,4,,,,,,,,,,,,,,,3,,,40,0
945360,note_off,160,0,1,,,,,,,,,,,,,,,0,,,73,0
945360,note_on,0,0,1,,,,,,,,,,,,,,,0,,,67,56
945360,note_on,0,0,4,,,,,,,,,,,,,,,3,,,33,69
945520,note_off,160,0,1,,,,,,,,,,,,,,,0,,,67,0
945520,note_on,0,0,1,,,,,,,,,,,,,,,0,,,64,56
945680,note_on,0,0,1,,,,,,,,,,,,,,,0,,,61,56
945680,note_off,160,0,1,,,,,,,,,,,,,,,0,,,64,0
945840,note_on,0,0,4,,,,,,,,,,,,,,,3,,,38,69
945840,note_off,480,0,4,,,,,,,,,,,,,,,3,,,33,0
945840,note_on,0,0,1,,,,,,,,,,,,,,,0,,,62,56
945840,note_off,0,0,1,,,,,,,,,,,,,,,0,,,61,0
945840,control_change,160,0,1,,,,,,,,,,,,,64,0,0,,,,
945900,control_change,60,0,1,,,,,,,,,,,,,64,127,0,,,,
946000,note_on,0,0,1,,,,,,,,,,,,,,,0,,,66,56
946000,note_off,100,0,1,,,,,,,,,,,,,,,0,,,62,0
946160,note_off,160,0,1,,,,,,,,,,,,,,,0,,,66,0
946160,note_on,0,0,1,,,,,,,,,,,,,,,0,,,62,56
946320,note_on,0,0,1,,,,,,,,,,,,,,,0,,,57,56
946320,note_off,480,0,4,,,,,,,,,,,,,,,3,,,38,0
946320,note_on,0,0,4,,,,,,,,,,,,,,,3,,,42,69
946320,note_off,160,0,1,,,,,,,,,,,,,,,0,,,62,0
946480,note_on,0,0,1,,,,,,,,,,,,,,,0,,,54,56
946480,note_off,160,0,1,,,,,,,,,,,,,,,0,,,57,0
946545,set_tempo,3570,1,0,,,,,,,300000,,,,,,,,,,,,
946640,note_off,160,0,1,,,,,,,,,,,,,,,0,,,54,0
946640,note_on,0,0,1,,,,,,,,,,,,,,,0,,,62,56
946785,note_off,465,0,4,,,,,,,,,,,,,,,3,,,45,0
946800,control_change,160,0,1,,,,,,,,,,,,,64,0,0,,,,
946800,note_off,15,0,4,,,,,,,,,,,,,,,3,,,42,0
946800,note_on,0,0,4,,,,,,,,,,,,,,,3,,,43,84
946800,note_on,0,0,4,,,,,,,,,,,,,,,3,,,45,84
946800,note_off,0,0,1,,,,,,,,,,,,,,,0,,,62,0
946815,set_tempo,270,1,0,,,,,,,297029,,,,,,,,,,,,
946960,note_on,160,0,1,,,,,,,,,,,,,,,0,,,69,62
947120,note_off,160,0,1,,,,,,,,,,,,,,,0,,,69,0
947120,note_on,0,0,1,,,,,,,,,,,,,,,0,,,71,61
947280,note_off,160,0,1,,,,,,,,,,,,,,,0,,,71,0
947280,note_on,0,0,1,,,,,,,,,,,,,,,0,,,73,59
947280,note_on,0,0,4,,,,,,,,,,,,,,,3,,,40,70
947280,note_off,480,0,4,,,,,,,,,,,,,,,3,,,43,0
947440,note_off,160,0,1,,,,,,,,,,,,,,,0,,,73,0
947440,note_on,0,0,1,,,,,,,,,,,,,,,0,,,71,58
947600,note_off,160,0,1,,,,,,,,,,,,,,,0,,,71,0
947600,note_on,0,0,1,,,,,,,,,,,,,,,0,,,69,56
947760,note_off,160,0,1,,,,,,,,,,,,,,,0,,,69,0
947760,note_on,0,0,4,,,,,,,,,,,,,,,3,,,42,70
947760,note_off,480,0,4,,,,,,,,,,,,,,,3,,,40,0
947920,note_on,160,0,1,,,,,,,,,,,,,,,0,,,74,57
948080,note_off,160,0,1,,,,,,,,,,,,,,,0,,,74,0
948080,note_on,0,0,1,,,,,,,,,,,,,,,0,,,76,57
948240,note_on,0,0,1,,,,,,,,,,,,,,,0,,,78,57
948240,note_off,160,0,1,,,,,,,,,,,,,,,0,,,76,0
948240,note_on,0,0,4,,,,,,,,,,,,,,,3,,,38,70
948240,note_off,480,0,4,,,,,,,,,,,,,,,3,,,42,0
948400,note_on,0,0,1,,,,,,,,,,,,,,,0,,,76,57
948400,note_off,160,0,1,,,,,,,,,,,,,,,0,,,78,0
948560,note_on,0,0,1,,,,,,,,,,,,,,,0,,,74,58
948560,note_off,160,0,1,,,,,,,,,,,,,,,0,,,76,0
948720,note_off,0,0,1,,,,,,,,,,,,,,,0,,,74,0
948720,note_on,0,0,1,,,,,,,,,,,,,,,0,,,79,58
948720,note_on,0,0,4,,,,,,,,,,,,,,,3,,,40,70
948720,note_off,480,0,4,,,,,,,,,,,,,,,3,,,38,0
948720,control_change,160,0,1,,,,,,,,,,,,,64,0,0,,,,
948780,control_change,60,0,1,,,,,,,,,,,,,64,127,0,,,,
948880,note_on,0,0,1,,,,,,,,,,,,,,,0,,,76,58
948880,note_off,100,0,1,,,,,,,,,,,,,,,0,,,79,0
949040,note_on,0,0,1,,,,,,,,,,,,,,,0,,,73,58
949040,note_off,160,0,1,,,,,,,,,,,,,,,0,,,76,0
949200,note_on,0,0,1,,,,,,,,,,,,,,,0,,,67,58
949200,note_off,480,0,4,,,,,,,,,,,,,,,3,,,40,0
949200,note_off,160,0,1,,,,,,,,,,,,,,,0,,,73,0
949200,note_on,0,0,4,,,,,,,,,,,,,,,3,,,33,71
949360,note_on,0,0,1,,,,,,,,,,,,,,,0,,,64,58
949360,note_off,160,0,1,,,,,,,,,,,,,,,0,,,67,0
949520,note_off,160,0,1,,,,,,,,,,,,,,,0,,,64,0
949520,note_on,0,0,1,,,,,,,,,,,,,,,0,,,61,58
949680,note_on,0,0,4,,,,,,,,,,,,,,,3,,,42,71
949680,note_off,0,0,1,,,,,,,,,,,,,,,0,,,61,0
949680,note_on,0,0,1,,,,,,,,,,,,,,,0,,,62,58
949680,note_off,480,0,4,,,,,,,,,,,,,,,3,,,33,0
949680,control_change,160,0,1,,,,,,,,,,,,,64,0,0,,,,
949740,control_change,60,0,1,,,,,,,,,,,,,64,127,0,,,,
949840,note_off,100,0,1,,,,,,,,,,,,,,,0,,,62,0
949840,note_on,0,0,1,,,,,,,,,,,,,,,0,,,66,58
950000,note_off,160,0,1,,,,,,,,,,,,,,,0,,,66,0
950000,note_on,0,0,1,,,,,,,,,,,,,,,0,,,69,58
950160,note_on,0,0,4,,,,,,,,,,,,,,,3,,,38,71
950160,note_off,480,0,4,,,,,,,,,,,,,,,3,,,42,0
950160,note_off,160,0,1,,,,,,,,,,,,,,,0,,,69,0
950160,note_on,0,0,1,,,,,,,,,,,,,,,0,,,74,59
950320,note_off,160,0,1,,,,,,,,,,,,,,,0,,,74,0
950320,note_on,0,0,1,,,,,,,,,,,,,,,0,,,78,59
950415,set_tempo,3600,1,0,,,,,,,300000,,,,,,,,,,,,
950480,note_off,160,0,1,,,,,,,,,,,,,,,0,,,78,0
950480,note_on,0,0,1,,,,,,,,,,,,,,,0,,,81,59
950625,note_off,465,0,4,,,,,,,,,,,,,,,3,,,45,0
950640,note_on,0,0,4,,,,,,,,,,,,,,,3,,,45,86
950640,note_on,0,0,4,,,,,,,,,,,,,,,3,,,40,86
950640,note_off,15,0,4,,,,,,,,,,,,,,,3,,,38,0
950640,note_off,0,0,1,,,,,,,,,,,,,,,0,,,81,0
950640,control_change,160,0,1,,,,,,,,,,,,,64,0,0,,,,
950640,note_on,0,0,1,,,,,,,,,,,,,,,0,,,79,69
950655,set_tempo,240,1,0,,,,,,,297029,,,,,,,,,,,,
950700,control_change,60,0,1,,,,,,,,,,,,,64,127,0,,,,
950800,note_off,100,0,1,,,,,,,,,,,,,,,0,,,79,0
950800,note_on,0,0,1,,,,,,,,,,,,,,,0,,,76,68
950960,note_off,160,0,1,,,,,,,,,,,,,,,0,,,76,0
950960,note_on,0,0,1,,,,,,,,,,,,,,,0,,,73,66
951120,note_off,480,0,4,,,,,,,,,,,,,,,3,,,40,0
951120,note_on,0,0,4,,,,,,,,,,,,,,,3,,,33,72
951120,note_off,160,0,1,,,,,,,,,,,,,,,0,,,73,0
951120,note_on,0,0,1,,,,,,,,,,,,,,,0,,,67,64
951280,note_on,0,0,1,,,,,,,,,,,,,,,0,,,64,63
951280,note_off,160,0,1,,,,,,,,,,,,,,,0,,,67,0
951440,note_off,160,0,1,,,,,,,,,,,,,,,0,,,64,0
951440,note_on,0,0,1,,,,,,,,,,,,,,,0,,,61,61
951600,control_change,160,0,1,,,,,,,,,,,,,64,0,0,,,,
951600,note_off,0,0,1,,,,,,,,,,,,,,,0,,,61,0
951600,note_on,0,0,1,,,,,,,,,,,,,,,0,,,62,60
951600,note_on,0,0,4,,,,,,,,,,,,,,,3,,,42,72
951600,note_off,480,0,4,,,,,,,,,,,,,,,3,,,33,0
951660,control_change,60,0,1,,,,,,,,,,,,,64,127,0,,,,
951760,note_on,0,0,1,,,,,,,,,,,,,,,0,,,66,59
951760,note_off,100,0,1,,,,,,,,,,,,,,,0,,,62,0
951920,note_on,0,0,1,,,,,,,,,,,,,,,0,,,69,60
951920,note_off,160,0,1,,,,,,,,,,,,,,,0,,,66,0
952080,note_off,480,0,4,,,,,,,,,,,,,,,3,,,42,0
952080,note_on,0,0,4,,,,,,,,,,,,,,,3,,,38,72
952080,note_on,0,0,1,,,,,,,,,,,,,,,0,,,74,60
952080,note_off,160,0,1,,,,,,,,,,,,,,,0,,,69,0
952240,note_on,0,0,1,,,,,,,,,,,,,,,0,,,78,60
952240,note_off,160,0,1,,,,,,,,,,,,,,,0,,,74,0
952320,set_tempo,1665,1,0,,,,,,,300000,,,,,,,,,,,,
952400,note_off,160,0,1,,,,,,,,,,,,,,,0,,,78,0
952400,note_on,0,0,1,,,,,,,,,,,,,,,0,,,81,60
952560,note_off,0,0,1,,,,,,,,,,,,,,,0,,,81,0
952560,note_off,0,0,4,,,,,,,,,,,,,,,3,,,38,0
952560,note_on,0,0,4,,,,,,,,,,,,,,,3,,,40,86
952560,note_on,0,0,4,,,,,,,,,,,,,,,3,,,45,86
952560,note_on,0,0,1,,,,,,,,,,,,,,,0,,,79,73
952560,note_off,480,0,4,,,,,,,,,,,,,,,3,,,45,0
952560,control_change,160,0,1,,,,,,,,,,,,,64,0,0,,,,
952575,set_tempo,255,1,0,,,,,,,297029,,,,,,,,,,,,
952620,control_change,60,0,1,,,,,,,,,,,,,64,127,0,,,,
952720,note_on,0,0,1,,,,,,,,,,,,,,,0,,,76,71
952720,note_off,100,0,1,,,,,,,,,,,,,,,0,,,79,0
952880,note_on,0,0,1,,,,,,,,,,,,,,,0,,,73,69
952880,note_off,160,0,1,,,,,,,,,,,,,,,0,,,76,0
953040,note_on,0,0,1,,,,,,,,,,,,,,,0,,,67,67
953040,note_off,160,0,1,,,,,,,,,,,,,,,0,,,73,0
953040,note_off,480,0,4,,,,,,,,,,,,,,,3,,,40,0
953040,note_on,0,0,4,,,,,,,,,,,,,,,3,,,33,73
953200,note_off,160,0,1,,,,,,,,,,,,,,,0,,,67,0
953200,note_on,0,0,1,,,,,,,,,,,,,,,0,,,64,66
953360,note_off,160,0,1,,,,,,,,,,,,,,,0,,,64,0
953360,note_on,0,0,1,,,,,,,,,,,,,,,0,,,61,64
953460,set_tempo,885,1,0,,,,,,,298507,,,,,,,,,,,,
953520,note_on,0,0,4,,,,,,,,,,,,,,,3,,,38,73
953520,note_on,0,0,1,,,,,,,,,,,,,,,0,,,62,62
953520,set_tempo,60,1,0,,,,,,,297029,,,,,,,,,,,,
953520,note_off,0,0,1,,,,,,,,,,,,,,,0,,,61,0
953520,note_off,480,0,4,,,,,,,,,,,,,,,3,,,33,0
953520,control_change,160,0,1,,,,,,,,,,,,,64,0,0,,,,
953580,control_change,60,0,1,,,,,,,,,,,,,64,127,0,,,,
953680,note_on,0,0,1,,,,,,,,,,,,,,,0,,,66,61
953680,note_off,100,0,1,,,,,,,,,,,,,,,0,,,62,0
953840,note_off,160,0,1,,,,,,,,,,,,,,,0,,,66,0
953840,note_on,0,0,1,,,,,,,,,,,,,,,0,,,62,61
954000,note_on,0,0,4,,,,,,,,,,,,,,,3,,,50,73
954000,note_off,480,0,4,,,,,,,,,,,,,,,3,,,38,0
954000,note_off,160,0,1,,,,,,,,,,,,,,,0,,,62,0
954000,note_on,0,0,1,,,,,,,,,,,,,,,0,,,57,61
954160,note_off,160,0,1,,,,,,,,,,,,,,,0,,,57,0
954160,note_on,0,0,1,,,,,,,,,,,,,,,0,,,69,61
954312,note_off,312,0,4,,,,,,,,,,,,,,,3,,,50,0
954320,note_off,160,0,1,,,,,,,,,,,,,,,0,,,69,0
954320,note_on,0,0,1,,,,,,,,,,,,,,,0,,,66,61
954480,note_on,0,0,1,,,,,,,,,,,,,,,0,,,62,61
954480,note_off,168,0,4,,,,,,,,,,,,,,,3,,,45,0
954480,note_off,160,0,1,,,,,,,,,,,,,,,0,,,66,0
954640,note_on,0,0,1,,,,,,,,,,,,,,,0,,,74,61
954640,note_off,160,0,1,,,,,,,,,,,,,,,0,,,62,0
954800,note_on,0,0,1,,,,,,,,,,,,,,,0,,,69,61
954800,note_off,160,0,1,,,,,,,,,,,,,,,0,,,74,0
954960,note_off,160,0,1,,,,,,,,,,,,,,,0,,,69,0
954960,note_on,0,0,1,,,,,,,,,,,,,,,0,,,66,61
954960,note_on,480,0,4,,,,,,,,,,,,,,,3,,,54,66
954960,note_on,0,0,4,,,,,,,,,,,,,,,3,,,50,66
955120,note_on,0,0,1,,,,,,,,,,,,,,,0,,,62,61
955120,note_off,160,0,1,,,,,,,,,,,,,,,0,,,66,0
955272,note_off,0,0,4,,,,,,,,,,,,,,,3,,,50,0
955272,note_off,312,0,4,,,,,,,,,,,,,,,3,,,54,0
955280,note_off,160,0,1,,,,,,,,,,,,,,,0,,,62,0
955280,note_on,0,0,1,,,,,,,,,,,,,,,0,,,74,62
955440,note_off,160,0,1,,,,,,,,,,,,,,,0,,,74,0
955440,note_on,0,0,1,,,,,,,,,,,,,,,0,,,66,62
955600,note_off,160,0,1,,,,,,,,,,,,,,,0,,,66,0
955600,note_on,0,0,1,,,,,,,,,,,,,,,0,,,78,62
955760,note_on,0,0,1,,,,,,,,,,,,,,,0,,,74,62
955760,note_off,160,0,1,,,,,,,,,,,,,,,0,,,78,0
955920,note_on,0,0,4,,,,,,,,,,,,,,,3,,,57,68
955920,note_off,160,0,1,,,,,,,,,,,,,,,0,,,74,0
955920,note_on,648,0,4,,,,,,,,,,,,,,,3,,,54,68
955920,note_on,0,0,1,,,,,,,,,,,,,,,0,,,69,62
955920,note_on,0,0,4,,,,,,,,,,,,,,,3,,,50,68
956080,note_off,160,0,1,,,,,,,,,,,,,,,0,,,69,0
956080,note_on,0,0,1,,,,,,,,,,,,,,,0,,,66,62
956232,note_off,312,0,4,,,,,,,,,,,,,,,3,,,54,0
956232,note_off,0,0,4,,,,,,,,,,,,,,,3,,,50,0
956232,note_off,0,0,4,,,,,,,,,,,,,,,3,,,57,0
956240,note_off,160,0,1,,,,,,,,,,,,,,,0,,,66,0
956240,note_on,0,0,1,,,,,,,,,,,,,,,0,,,78,62
956400,note_on,0,0,1,,,,,,,,,,,,,,,0,,,69,62
956400,note_off,160,0,1,,,,,,,,,,,,,,,0,,,78,0
956560,note_off,160,0,1,,,,,,,,,,,,,,,0,,,69,0
956560,note_on,0,0,1,,,,,,,,,,,,,,,0,,,81,62
956720,note_on,0,0,1,,,,,,,,,,,,,,,0,,,78,62
956720,note_off,160,0,1,,,,,,,,,,,,,,,0,,,81,0
956880,note_off,160,0,1,,,,,,,,,,,,,,,0,,,78,0
956880,note_on,0,0,1,,,,,,,,,,,,,,,0,,,74,62
956880,note_on,0,0,4,,,,,,,,,,,,,,,3,,,62,70
956880,note_on,0,0,4,,,,,,,,,,,,,,,3,,,50,70
956880,note_on,0,0,4,,,,,,,,,,,,,,,3,,,57,70
956880,note_on,648,0,4,,,,,,,,,,,,,,,3,,,54,70
957040,note_off,160,0,1,,,,,,,,,,,,,,,0,,,74,0
957040,note_on,0,0,1,,,,,,,,,,,,,,,0,,,69,63
957150,set_tempo,3630,1,0,,,,,,,300000,,,,,,,,,,,,
957192,note_off,0,0,4,,,,,,,,,,,,,,,3,,,57,0
957192,note_off,0,0,4,,,,,,,,,,,,,,,3,,,50,0
957192,note_off,0,0,4,,,,,,,,,,,,,,,3,,,62,0
957192,note_off,312,0,4,,,,,,,,,,,,,,,3,,,54,0
957200,note_on,0,0,1,,,,,,,,,,,,,,,0,,,81,63
957200,note_off,160,0,1,,,,,,,,,,,,,,,0,,,69,0
957360,note_on,0,0,1,,,,,,,,,,,,,,,0,,,74,63
957360,control_change,160,0,1,,,,,,,,,,,,,64,0,0,,,,
957360,note_off,0,0,1,,,,,,,,,,,,,,,0,,,81,0
957375,set_tempo,225,1,0,,,,,,,297029,,,,,,,,,,,,
957420,control_change,60,0,1,,,,,,,,,,,,,64,127,0,,,,
957520,note_on,0,0,1,,,,,,,,,,,,,,,0,,,86,63
957520,note_off,100,0,1,,,,,,,,,,,,,,,0,,,74,0
957680,note_off,160,0,1,,,,,,,,,,,,,,,0,,,86,0
957680,note_on,0,0,1,,,,,,,,,,,,,,,0,,,74,63
957840,note_on,0,0,4,,,,,,,,,,,,,,,3,,,62,70
957840,note_on,0,0,4,,,,,,,,,,,,,,,3,,,57,70
957840,note_on,648,0,4,,,,,,,,,,,,,,,3,,,54,70
957840,note_on,0,0,1,,,,,,,,,,,,,,,0,,,86,63
957840,note_off,160,0,1,,,,,,,,,,,,,,,0,,,74,0
958000,note_on,0,0,1,,,,,,,,,,,,,,,0,,,74,63
958000,note_off,160,0,1,,,,,,,,,,,,,,,0,,,86,0
958152,note_off,0,0,4,,,,,,,,,,,,,,,3,,,62,0
958152,note_off,312,0,4,,,,,,,,,,,,,,,3,,,54,0
958152,note_off,0,0,4,,,,,,,,,,,,,,,3,,,57,0
958160,note_off,160,0,1,,,,,,,,,,,,,,,0,,,74,0
958160,note_on,0,0,1,,,,,,,,,,,,,,,0,,,86,63
958320,note_on,0,0,4,,,,,,,,,,,,,,,3,,,62,72
958320,note_on,168,0,4,,,,,,,,,,,,,,,3,,,56,72
958320,note_on,0,0,4,,,,,,,,,,,,,,,3,,,53,72
958320,note_on,0,0,1,,,,,,,,,,,,,,,0,,,74,63
958320,note_off,160,0,1,,,,,,,,,,,,,,,0,,,86,0
958480,note_on,0,0,1,,,,,,,,,,,,,,,0,,,86,63
958480,note_off,160,0,1,,,,,,,,,,,,,,,0,,,74,0
958632,note_off,312,0,4,,,,,,,,,,,,,,,3,,,56,0
958632,note_off,0,0,4,,,,,,,,,,,,,,,3,,,53,0
958632,note_off,0,0,4,,,,,,,,,,,,,,,3,,,62,0
958640,note_off,160,0,1,,,,,,,,,,,,,,,0,,,86,0
958640,note_on,0,0,1,,,,,,,,,,,,,,,0,,,74,63
958800,note_off,160,0,1,,,,,,,,,,,,,,,0,,,74,0
958800,note_on,0,0,1,,,,,,,,,,,,,,,0,,,86,64
958800,note_on,168,0,4,,,,,,,,,,,,,,,3,,,57,73
958800,note_on,0,0,4,,,,,,,,,,,,,,,3,,,54,73
958800,note_on,0,0,4,,,,,,,,,,,,,,,3,,,62,73
958960,note_off,160,0,1,,,,,,,,,,,,,,,0,,,86,0
958960,note_on,0,0,1,,,,,,,,,,,,,,,0,,,74,64
959112,note_off,0,0,4,,,,,,,,,,,,,,,3,,,54,0
959112,note_off,0,0,4,,,,,,,,,,,,,,,3,,,62,0
959112,note_off,312,0,4,,,,,,,,,,,,,,,3,,,57,0
959120,note_off,160,0,1,,,,,,,,,,,,,,,0,,,74,0
959120,note_on,0,0,1,,,,,,,,,,,,,,,0,,,86,64
959280,note_on,0,0,4,,,,,,,,,,,,,,,3,,,53,75
959280,note_on,0,0,4,,,,,,,,,,,,,,,3,,,62,75
959280,note_on,168,0,4,,,,,,,,,,,,,,,3,,,56,75
959280,note_off,160,0,1,,,,,,,,,,,,,,,0,,,86,0
959280,note_on,0,0,1,,,,,,,,,,,,,,,0,,,74,64
959440,note_off,160,0,1,,,,,,,,,,,,,,,0,,,74,0
959440,note_on,0,0,1,,,,,,,,,,,,,,,0,,,86,64
959592,note_off,312,0,4,,,,,,,,,,,,,,,3,,,56,0
959592,note_off,0,0,4,,,,,,,,,,,,,,,3,,,53,0
959592,note_off,0,0,4,,,,,,,,,,,,,,,3,,,62,0
959600,note_on,0,0,1,,,,,,,,,,,,,,,0,,,74,64
959600,note_off,160,0,1,,,,,,,,,,,,,,,0,,,86,0
959760,note_on,168,0,4,,,,,,,,,,,,,,,3,,,57,76
959760,note_on,0,0,4,,,,,,,,,,,,,,,3,,,54,76
959760,note_off,160,0,1,,,,,,,,,,,,,,,0,,,74,0
959760,note_on,0,0,1,,,,,,,,,,,,,,,0,,,86,64
959760,note_on,0,0,4,,,,,,,,,,,,,,,3,,,62,76
959920,note_off,160,0,1,,,,,,,,,,,,,,,0,,,86,0
959920,note_on,0,0,1,,,,,,,,,,,,,,,0,,,74,64
960072,note_off,312,0,4,,,,,,,,,,,,,,,3,,,57,0
960072,note_off,0,0,4,,,,,,,,,,,,,,,3,,,62,0
960072,note_off,0,0,4,,,,,,,,,,,,,,,3,,,54,0
960080,note_off,160,0,1,,,,,,,,,,,,,,,0,,,74,0
960080,note_on,0,0,1,,,,,,,,,,,,,,,0,,,86,64
960240,note_on,168,0,4,,,,,,,,,,,,,,,3,,,53,78
960240,note_on,0,0,4,,,,,,,,,,,,,,,3,,,56,78
960240,note_on,0,0,4,,,,,,,,,,,,,,,3,,,62,78
960240,note_off,160,0,1,,,,,,,,,,,,,,,0,,,86,0
960240,note_on,0,0,1,,,,,,,,,,,,,,,0,,,74,64
960400,note_off,160,0,1,,,,,,,,,,,,,,,0,,,74,0
960400,note_on,0,0,1,,,,,,,,,,,,,,,0,,,86,65
960552,note_off,0,0,4,,,,,,,,,,,,,,,3,,,62,0
960552,note_off,0,0,4,,,,,,,,,,,,,,,3,,,56,0
960552,note_off,312,0,4,,,,,,,,,,,,,,,3,,,53,0
960560,note_on,0,0,1,,,,,,,,,,,,,,,0,,,74,65
960560,note_off,160,0,1,,,,,,,,,,,,,,,0,,,86,0
960720,note_off,160,0,1,,,,,,,,,,,,,,,0,,,74,0
960720,note_on,0,0,1,,,,,,,,,,,,,,,0,,,86,65
960720,note_on,168,0,4,,,,,,,,,,,,,,,3,,,62,79
960720,note_on,0,0,4,,,,,,,,,,,,,,,3,,,57,79
960720,note_on,0,0,4,,,,,,,,,,,,,,,3,,,54,79
960880,note_on,0,0,1,,,,,,,,,,,,,,,0,,,74,65
960880,note_off,160,0,1,,,,,,,,,,,,,,,0,,,86,0
961032,note_off,0,0,4,,,,,,,,,,,,,,,3,,,57,0
961032,note_off,0,0,4,,,,,,,,,,,,,,,3,,,54,0
961032,note_off,312,0,4,,,,,,,,,,,,,,,3,,,62,0
961040,note_off,160,0,1,,,,,,,,,,,,,,,0,,,74,0
961040,note_on,0,0,1,,,,,,,,,,,,,,,0,,,86,65
961200,note_on,168,0,4,,,,,,,,,,,,,,,3,,,53,81
961200,note_on,0,0,4,,,,,,,,,,,,,,,3,,,62,81
961200,note_on,0,0,1,,,,,,,,,,,,,,,0,,,74,65
961200,note_on,0,0,4,,,,,,,,,,,,,,,3,,,56,81
961200,note_off,160,0,1,,,,,,,,,,,,,,,0,,,86,0
961360,note_off,160,0,1,,,,,,,,,,,,,,,0,,,74,0
961360,note_on,0,0,1,,,,,,,,,,,,,,,0,,,86,65
961512,note_off,312,0,4,,,,,,,,,,,,,,,3,,,53,0
961512,note_off,0,0,4,,,,,,,,,,,,,,,3,,,56,0
961512,note_off,0,0,4,,,,,,,,,,,,,,,3,,,62,0
961520,note_on,0,0,1,,,,,,,,,,,,,,,0,,,74,65
961520,note_off,160,0,1,,,,,,,,,,,,,,,0,,,86,0
961680,note_on,0,0,1,,,,,,,,,,,,,,,0,,,86,65
961680,note_off,160,0,1,,,,,,,,,,,,,,,0,,,74,0
961680,note_on,168,0,4,,,,,,,,,,,,,,,3,,,57,82
961680,note_on,0,0,4,,,,,,,,,,,,,,,3,,,54,82
961680,note_on,0,0,4,,,,,,,,,,,,,,,3,,,62,82
961840,note_on,0,0,1,,,,,,,,,,,,,,,0,,,74,65
961840,note_off,160,0,1,,,,,,,,,,,,,,,0,,,86,0
961920,set_tempo,4545,1,0,,,,,,,300000,,,,,,,,,,,,
961992,note_off,312,0,4,,,,,,,,,,,,,,,3,,,57,0
961992,note_off,0,0,4,,,,,,,,,,,,,,,3,,,54,0
961992,note_off,0,0,4,,,,,,,,,,,,,,,3,,,62,0
962000,note_off,160,0,1,,,,,,,,,,,,,,,0,,,74,0
962000,note_on,0,0,1,,,,,,,,,,,,,,,0,,,86,65
962160,note_on,168,0,4,,,,,,,,,,,,,,,3,,,55,86
962160,note_on,0,0,4,,,,,,,,,,,,,,,3,,,62,86
962160,note_on,0,0,4,,,,,,,,,,,,,,,3,,,59,86
962160,control_change,160,0,1,,,,,,,,,,,,,64,0,0,,,,
962160,note_off,0,0,1,,,,,,,,,,,,,,,0,,,86,0
962160,note_on,0,0,1,,,,,,,,,,,,,,,0,,,83,83
962160,control_change,0,0,1,,,,,,,,,,,,,64,0,0,,,,
962175,set_tempo,255,1,0,,,,,,,297029,,,,,,,,,,,,
962220,control_change,60,0,1,,,,,,,,,,,,,64,127,0,,,,
962320,note_off,100,0,1,,,,,,,,,,,,,,,0,,,83,0
962320,note_on,0,0,1,,,,,,,,,,,,,,,0,,,85,82
962480,note_off,160,0,1,,,,,,,,,,,,,,,0,,,85,0
962480,note_on,0,0,1,,,,,,,,,,,,,,,0,,,86,81
962640,control_change,160,0,1,,,,,,,,,,,,,64,0,0,,,,
962640,note_off,0,0,1,,,,,,,,,,,,,,,0,,,86,0
962640,note_on,0,0,1,,,,,,,,,,,,,,,0,,,79,80
962700,control_change,60,0,1,,,,,,,,,,,,,64,127,0,,,,
962800,note_on,0,0,1,,,,,,,,,,,,,,,0,,,81,79
962800,note_off,100,0,1,,,,,,,,,,,,,,,0,,,79,0
962960,note_on,0,0,1,,,,,,,,,,,,,,,0,,,83,77
962960,note_off,160,0,1,,,,,,,,,,,,,,,0,,,81,0
963120,control_change,160,0,1,,,,,,,,,,,,,64,0,0,,,,
963120,note_off,0,0,1,,,,,,,,,,,,,,,0,,,83,0
963120,note_on,0,0,1,,,,,,,,,,,,,,,0,,,76,76
963180,control_change,60,0,1,,,,,,,,,,,,,64,127,0,,,,
963280,note_off,100,0,1,,,,,,,,,,,,,,,0,,,76,0
963280,note_on,0,0,1,,,,,,,,,,,,,,,0,,,78,75
963432,note_off,1272,0,4,,,,,,,,,,,,,,,3,,,55,0
963432,note_off,0,0,4,,,,,,,,,,,,,,,3,,,59,0
963432,note_off,0,0,4,,,,,,,,,,,,,,,3,,,62,0
963440,note_off,160,0,1,,,,,,,,,,,,,,,0,,,78,0
963440,note_on,0,0,1,,,,,,,,,,,,,,,0,,,79,74
963600,note_on,168,0,4,,,,,,,,,,,,,,,3,,,55,76
963600,note_on,0,0,4,,,,,,,,,,,,,,,3,,,67,76
963600,note_off,0,0,1,,,,,,,,,,,,,,,0,,,79,0
963600,control_change,160,0,1,,,,,,,,,,,,,64,0,0,,,,
963600,note_on,0,0,1,,,,,,,,,,,,,,,0,,,71,73
963660,control_change,60,0,1,,,,,,,,,,,,,64,127,0,,,,
963760,note_on,0,0,1,,,,,,,,,,,,,,,0,,,78,71
963760,note_off,100,0,1,,,,,,,,,,,,,,,0,,,71,0
963912,note_off,312,0,4,,,,,,,,,,,,,,,3,,,55,0
963912,note_off,0,0,4,,,,,,,,,,,,,,,3,,,67,0
963920,note_on,0,0,1,,,,,,,,,,,,,,,0,,,76,70
963920,note_off,160,0,1,,,,,,,,,,,,,,,0,,,78,0
964080,note_off,0,0,1,,,,,,,,,,,,,,,0,,,76,0
964080,note_on,168,0,4,,,,,,,,,,,,,,,3,,,66,71
964080,note_on,0,0,4,,,,,,,,,,,,,,,3,,,57,71
964080,note_on,0,0,1,,,,,,,,,,,,,,,0,,,69,69
964080,control_change,160,0,1,,,,,,,,,,,,,64,0,0,,,,
964140,control_change,60,0,1,,,,,,,,,,,,,64,127,0,,,,
964240,note_on,0,0,1,,,,,,,,,,,,,,,0,,,76,68
964240,note_off,100,0,1,,,,,,,,,,,,,,,0,,,69,0
964392,note_off,312,0,4,,,,,,,,,,,,,,,3,,,66,0
964392,note_off,0,0,4,,,,,,,,,,,,,,,3,,,57,0
964400,note_off,160,0,1,,,,,,,,,,,,,,,0,,,76,0
964400,note_on,0,0,1,,,,,,,,,,,,,,,0,,,74,67
964560,note_on,0,0,1,,,,,,,,,,,,,,,0,,,67,65
964560,note_on,0,0,4,,,,,,,,,,,,,,,3,,,64,67
964560,note_on,168,0,4,,,,,,,,,,,,,,,3,,,57,67
964560,note_off,0,0,1,,,,,,,,,,,,,,,0,,,74,0
964560,control_change,160,0,1,,,,,,,,,,,,,64,0,0,,,,
964620,control_change,60,0,1,,,,,,,,,,,,,64,127,0,,,,
964720,note_on,0,0,1,,,,,,,,,,,,,,,0,,,74,64
964720,note_off,100,0,1,,,,,,,,,,,,,,,0,,,67,0
964815,set_tempo,2640,1,0,,,,,,,300000,,,,,,,,,,,,
964872,note_off,0,0,4,,,,,,,,,,,,,,,3,,,64,0
964872,note_off,312,0,4,,,,,,,,,,,,,,,3,,,57,0
964880,note_off,160,0,1,,,,,,,,,,,,,,,0,,,74,0
964880,note_on,0,0,1,,,,,,,,,,,,,,,0,,,73,63
965040,control_change,160,0,1,,,,,,,,,,,,,64,0,0,,,,
965040,note_off,0,0,1,,,,,,,,,,,,,,,0,,,73,0
965040,note_on,0,0,1,,,,,,,,,,,,,,,0,,,74,62
965055,set_tempo,240,1,0,,,,,,,297029,,,,,,,,,,,,
965100,control_change,60,0,1,,,,,,,,,,,,,64,127,0,,,,
965200,note_off,100,0,1,,,,,,,,,,,,,,,0,,,74,0
965200,note_on,0,0,1,,,,,,,,,,,,,,,0,,,86,62
965360,note_off,160,0,1,,,,,,,,,,,,,,,0,,,86,0
965360,note_on,0,0,1,,,,,,,,,,,,,,,0,,,74,62
965520,note_on,648,0,4,,,,,,,,,,,,,,,3,,,57,68
965520,note_on,0,0,4,,,,,,,,,,,,,,,3,,,54,68
965520,note_on,0,0,4,,,,,,,,,,,,,,,3,,,62,68
965520,note_off,160,0,1,,,,,,,,,,,,,,,0,,,74,0
965520,note_on,0,0,1,,,,,,,,,,,,,,,0,,,86,63
965680,note_on,0,0,1,,,,,,,,,,,,,,,0,,,74,63
965680,note_off,160,0,1,,,,,,,,,,,,,,,0,,,86,0
965832,note_off,0,0,4,,,,,,,,,,,,,,,3,,,62,0
965832,note_off,312,0,4,,,,,,,,,,,,,,,3,,,57,0
965832,note_off,0,0,4,,,,,,,,,,,,,,,3,,,54,0
965840,note_off,160,0,1,,,,,,,,,,,,,,,0,,,74,0
965840,note_on,0,0,1,,,,,,,,,,,,,,,0,,,86,63
966000,note_on,0,0,1,,,,,,,,,,,,,,,0,,,74,64
966000,note_off,160,0,1,,,,,,,,,,,,,,,0,,,86,0
966000,note_on,0,0,4,,,,,,,,,,,,,,,3,,,62,69
966000,note_on,0,0,4,,,,,,,,,,,,,,,3,,,56,69
966000,note_on,168,0,4,,,,,,,,,,,,,,,3,,,53,69
966160,note_off,160,0,1,,,,,,,,,,,,,,,0,,,74,0
966160,note_on,0,0,1,,,,,,,,,,,,,,,0,,,86,64
966312,note_off,0,0,4,,,,,,,,,,,,,,,3,,,62,0
966312,note_off,0,0,4,,,,,,,,,,,,,,,3,,,56,0
966312,note_off,312,0,4,,,,,,,,,,,,,,,3,,,53,0
966320,note_on,0,0,1,,,,,,,,,,,,,,,0,,,74,64
966320,note_off,160,0,1,,,,,,,,,,,,,,,0,,,86,0
966480,note_on,0,0,1,,,,,,,,,,,,,,,0,,,86,65
966480,note_off,160,0,1,,,,,,,,,,,,,,,0,,,74,0
966480,note_on,0,0,4,,,,,,,,,,,,,,,3,,,57,71
966480,note_on,168,0,4,,,,,,,,,,,,,,,3,,,54,71
966480,note_on,0,0,4,,,,,,,,,,,,,,,3,,,62,71
966640,note_off,160,0,1,,,,,,,,,,,,,,,0,,,86,0
966640,note_on,0,0,1,,,,,,,,,,,,,,,0,,,74,65
966792,note_off,0,0,4,,,,,,,,,,,,,,,3,,,62,0
966792,note_off,0,0,4,,,,,,,,,,,,,,,3,,,57,0
966792,note_off,312,0,4,,,,,,,,,,,,,,,3,,,54,0
966800,note_on,0,0,1,,,,,,,,,,,,,,,0,,,86,65
966800,note_off,160,0,1,,,,,,,,,,,,,,,0,,,74,0
966960,note_on,0,0,4,,,,,,,,,,,,,,,3,,,62,72
966960,note_on,0,0,4,,,,,,,,,,,,,,,3,,,53,72
966960,note_on,168,0,4,,,,,,,,,,,,,,,3,,,56,72
966960,note_off,160,0,1,,,,,,,,,,,,,,,0,,,86,0
966960,note_on,0,0,1,,,,,,,,,,,,,,,0,,,74,66
967120,note_off,160,0,1,,,,,,,,,,,,,,,0,,,74,0
967120,note_on,0,0,1,,,,,,,,,,,,,,,0,,,86,66
967272,note_off,312,0,4,,,,,,,,,,,,,,,3,,,56,0
967272,note_off,0,0,4,,,,,,,,,,,,,,,3,,,53,0
967272,note_off,0,0,4,,,,,,,,,,,,,,,3,,,62,0
967280,note_off,160,0,1,,,,,,,,,,,,,,,0,,,86,0
967280,note_on,0,0,1,,,,,,,,,,,,,,,0,,,74,66
967440,note_on,0,0,4,,,,,,,,,,,,,,,3,,,54,73
967440,note_on,0,0,4,,,,,,,,,,,,,,,3,,,62,73
967440,note_off,160,0,1,,,,,,,,,,,,,,,0,,,74,0
967440,note_on,0,0,1,,,,,,,,,,,,,,,0,,,86,67
967440,note_on,168,0,4,,,,,,,,,,,,,,,3,,,57,73
967600,note_off,160,0,1,,,,,,,,,,,,,,,0,,,86,0
967600,note_on,0,0,1,,,,,,,,,,,,,,,0,,,74,67
967752,note_off,312,0,4,,,,,,,,,,,,,,,3,,,57,0
967752,note_off,0,0,4,,,,,,,,,,,,,,,3,,,54,0
967752,note_off,0,0,4,,,,,,,,,,,,,,,3,,,62,0
967760,note_off,160,0,1,,,,,,,,,,,,,,,0,,,74,0
967760,note_on,0,0,1,,,,,,,,,,,,,,,0,,,86,67
967920,note_off,160,0,1,,,,,,,,,,,,,,,0,,,86,0
967920,note_on,0,0,1,,,,,,,,,,,,,,,0,,,74,68
967920,note_on,0,0,4,,,,,,,,,,,,,,,3,,,53,74
967920,note_on,0,0,4,,,,,,,,,,,,,,,3,,,62,74
967920,note_on,168,0,4,,,,,,,,,,,,,,,3,,,56,74
968080,note_on,0,0,1,,,,,,,,,,,,,,,0,,,86,68
968080,note_off,160,0,1,,,,,,,,,,,,,,,0,,,74,0
968232,note_off,0,0,4,,,,,,,,,,,,,,,3,,,53,0
968232,note_off,0,0,4,,,,,,,,,,,,,,,3,,,62,0
968232,note_off,312,0,4,,,,,,,,,,,,,,,3,,,56,0
968240,note_off,160,0,1,,,,,,,,,,,,,,,0,,,86,0
968240,note_on,0,0,1,,,,,,,,,,,,,,,0,,,74,68
968400,note_off,160,0,1,,,,,,,,,,,,,,,0,,,74,0
968400,note_on,168,0,4,,,,,,,,,,,,,,,3,,,57,76
968400,note_on,0,0,4,,,,,,,,,,,,,,,3,,,62,76
968400,note_on,0,0,4,,,,,,,,,,,,,,,3,,,54,76
968400,note_on,0,0,1,,,,,,,,,,,,,,,0,,,86,69
968560,note_on,0,0,1,,,,,,,,,,,,,,,0,,,74,69
968560,note_off,160,0,1,,,,,,,,,,,,,,,0,,,86,0
968712,note_off,0,0,4,,,,,,,,,,,,,,,3,,,62,0
968712,note_off,312,0,4,,,,,,,,,,,,,,,3,,,57,0
968712,note_off,0,0,4,,,,,,,,,,,,,,,3,,,54,0
968720,note_off,160,0,1,,,,,,,,,,,,,,,0,,,74,0
968720,note_on,0,0,1,,,,,,,,,,,,,,,0,,,86,69
968880,note_on,0,0,1,,,,,,,,,,,,,,,0,,,74,70
968880,note_off,160,0,1,,,,,,,,,,,,,,,0,,,86,0
968880,note_on,0,0,4,,,,,,,,,,,,,,,3,,,62,77
968880,note_on,0,0,4,,,,,,,,,,,,,,,3,,,53,77
968880,note_on,168,0,4,,,,,,,,,,,,,,,3,,,56,77
969040,note_on,0,0,1,,,,,,,,,,,,,,,0,,,86,70
969040,note_off,160,0,1,,,,,,,,,,,,,,,0,,,74,0
969192,note_off,0,0,4,,,,,,,,,,,,,,,3,,,62,0
969192,note_off,0,0,4,,,,,,,,,,,,,,,3,,,53,0
969192,note_off,312,0,4,,,,,,,,,,,,,,,3,,,56,0
969200,note_on,0,0,1,,,,,,,,,,,,,,,0,,,74,70
969200,note_off,160,0,1,,,,,,,,,,,,,,,0,,,86,0
969360,note_on,0,0,1,,,,,,,,,,,,,,,0,,,86,71
969360,note_off,160,0,1,,,,,,,,,,,,,,,0,,,74,0
969360,note_on,0,0,4,,,,,,,,,,,,,,,3,,,62,78
969360,note_on,0,0,4,,,,,,,,,,,,,,,3,,,54,78
969360,note_on,168,0,4,,,,,,,,,,,,,,,3,,,57,78
969520,note_on,0,0,1,,,,,,,,,,,,,,,0,,,74,71
969520,note_off,160,0,1,,,,,,,,,,,,,,,0,,,86,0
969630,set_tempo,4575,1,0,,,,,,,300000,,,,,,,,,,,,
969672,note_off,0,0,4,,,,,,,,,,,,,,,3,,,62,0
969672,note_off,312,0,4,,,,,,,,,,,,,,,3,,,57,0
969672,note_off,0,0,4,,,,,,,,,,,,,,,3,,,54,0
969680,note_on,0,0,1,,,,,,,,,,,,,,,0,,,86,71
969680,note_off,160,0,1,,,,,,,,,,,,,,,0,,,74,0
969840,note_on,0,0,4,,,,,,,,,,,,,,,3,,,57,94
969840,note_on,0,0,1,,,,,,,,,,,,,,,0,,,74,72
969840,note_on,168,0,4,,,,,,,,,,,,,,,3,,,62,94
969840,note_off,160,0,1,,,,,,,,,,,,,,,0,,,86,0
969840,note_on,0,0,4,,,,,,,,,,,,,,,3,,,60,94
969855,set_tempo,225,1,0,,,,,,,297029,,,,,,,,,,,,
970000,note_off,160,0,1,,,,,,,,,,,,,,,0,,,74,0
970000,note_on,0,0,1,,,,,,,,,,,,,,,0,,,86,72
970160,note_on,0,0,1,,,,,,,,,,,,,,,0,,,74,72
970160,note_off,160,0,1,,,,,,,,,,,,,,,0,,,86,0
970320,note_off,160,0,1,,,,,,,,,,,,,,,0,,,74,0
970320,note_on,0,0,1,,,,,,,,,,,,,,,0,,,86,73
970480,note_off,160,0,1,,,,,,,,,,,,,,,0,,,86,0
970480,note_on,0,0,1,,,,,,,,,,,,,,,0,,,74,73
970640,note_on,0,0,1,,,,,,,,,,,,,,,0,,,86,73
970640,note_off,160,0,1,,,,,,,,,,,,,,,0,,,74,0
970800,control_change,0,0,1,,,,,,,,,,,,,64,0,0,,,,
970800,control_change,160,0,1,,,,,,,,,,,,,64,0,0,,,,
970800,note_on,0,0,1,,,,,,,,,,,,,,,0,,,85,93
970800,note_off,0,0,1,,,,,,,,,,,,,,,0,,,86,0
970860,control_change,60,0,1,,,,,,,,,,,,,64,127,0,,,,
970960,note_off,100,0,1,,,,,,,,,,,,,,,0,,,85,0
970960,note_on,0,0,1,,,,,,,,,,,,,,,0,,,88,91
971120,note_on,0,0,1,,,,,,,,,,,,,,,0,,,86,89
971120,note_off,160,0,1,,,,,,,,,,,,,,,0,,,88,0
971280,control_change,160,0,1,,,,,,,,,,,,,64,0,0,,,,
971280,note_off,0,0,1,,,,,,,,,,,,,,,0,,,86,0
971280,note_on,0,0,1,,,,,,,,,,,,,,,0,,,80,89
971340,control_change,60,0,1,,,,,,,,,,,,,64,127,0,,,,
971440,note_off,100,0,1,,,,,,,,,,,,,,,0,,,80,0
971440,note_on,0,0,1,,,,,,,,,,,,,,,0,,,83,88
971600,note_off,160,0,1,,,,,,,,,,,,,,,0,,,83,0
971600,note_on,0,0,1,,,,,,,,,,,,,,,0,,,81,87
971760,control_change,160,0,1,,,,,,,,,,,,,64,0,0,,,,
971760,note_off,0,0,1,,,,,,,,,,,,,,,0,,,81,0
971760,note_on,0,0,1,,,,,,,,,,,,,,,0,,,77,86
971820,control_change,60,0,1,,,,,,,,,,,,,64,127,0,,,,
971920,note_off,100,0,1,,,,,,,,,,,,,,,0,,,77,0
971920,note_on,0,0,1,,,,,,,,,,,,,,,0,,,79,85
972080,note_off,160,0,1,,,,,,,,,,,,,,,0,,,79,0
972080,note_on,0,0,1,,,,,,,,,,,,,,,0,,,78,84
972240,control_change,160,0,1,,,,,,,,,,,,,64,0,0,,,,
972240,note_off,0,0,1,,,,,,,,,,,,,,,0,,,78,0
972240,note_on,0,0,1,,,,,,,,,,,,,,,0,,,73,83
972300,control_change,60,0,1,,,,,,,,,,,,,64,127,0,,,,
972400,note_off,100,0,1,,,,,,,,,,,,,,,0,,,73,0
972400,note_on,0,0,1,,,,,,,,,,,,,,,0,,,76,82
972560,note_off,160,0,1,,,,,,,,,,,,,,,0,,,76,0
972560,note_on,0,0,1,,,,,,,,,,,,,,,0,,,74,81
972720,note_off,0,0,1,,,,,,,,,,,,,,,0,,,74,0
972720,note_on,0,0,1,,,,,,,,,,,,,,,0,,,74,80
972720,control_change,160,0,1,,,,,,,,,,,,,64,0,0,,,,
972780,control_change,60,0,1,,,,,,,,,,,,,64,127,0,,,,
972880,note_off,100,0,1,,,,,,,,,,,,,,,0,,,74,0
972880,note_on,0,0,1,,,,,,,,,,,,,,,0,,,86,76
973032,note_off,0,0,4,,,,,,,,,,,,,,,3,,,60,0
973032,note_off,0,0,4,,,,,,,,,,,,,,,3,,,57,0
973032,note_off,3192,0,4,,,,,,,,,,,,,,,3,,,62,0
973040,note_off,160,0,1,,,,,,,,,,,,,,,0,,,86,0
973040,note_on,0,0,1,,,,,,,,,,,,,,,0,,,74,76
973200,note_on,168,0,4,,,,,,,,,,,,,,,3,,,57,80
973200,note_on,0,0,4,,,,,,,,,,,,,,,3,,,62,80
973200,note_on,0,0,1,,,,,,,,,,,,,,,0,,,86,77
973200,note_off,160,0,1,,,,,,,,,,,,,,,0,,,74,0
973200,note_on,0,0,4,,,,,,,,,,,,,,,3,,,54,80
973360,note_on,0,0,1,,,,,,,,,,,,,,,0,,,74,77
973360,note_off,160,0,1,,,,,,,,,,,,,,,0,,,86,0
973455,set_tempo,3600,1,0,,,,,,,300000,,,,,,,,,,,,
973512,note_off,0,0,4,,,,,,,,,,,,,,,3,,,54,0
973512,note_off,0,0,4,,,,,,,,,,,,,,,3,,,62,0
973512,note_off,312,0,4,,,,,,,,,,,,,,,3,,,57,0
973520,note_on,0,0,1,,,,,,,,,,,,,,,0,,,86,78
973520,note_off,160,0,1,,,,,,,,,,,,,,,0,,,74,0
973680,note_on,0,0,1,,,,,,,,,,,,,,,0,,,74,78
973680,note_on,0,0,4,,,,,,,,,,,,,,,3,,,60,94
973680,note_on,0,0,4,,,,,,,,,,,,,,,3,,,62,94
973680,note_off,160,0,1,,,,,,,,,,,,,,,0,,,86,0
973680,note_on,168,0,4,,,,,,,,,,,,,,,3,,,57,94
973695,set_tempo,240,1,0,,,,,,,297029,,,,,,,,,,,,
973840,note_off,160,0,1,,,,,,,,,,,,,,,0,,,74,0
973840,note_on,0,0,1,,,,,,,,,,,,,,,0,,,86,79
974000,note_off,160,0,1,,,,,,,,,,,,,,,0,,,86,0
974000,note_on,0,0,1,,,,,,,,,,,,,,,0,,,74,79
974160,note_off,160,0,1,,,,,,,,,,,,,,,0,,,74,0
974160,note_on,0,0,1,,,,,,,,,,,,,,,0,,,86,80
974320,note_off,160,0,1,,,,,,,,,,,,,,,0,,,86,0
974320,note_on,0,0,1,,,,,,,,,,,,,,,0,,,74,81
974480,note_off,160,0,1,,,,,,,,,,,,,,,0,,,74,0
974480,note_on,0,0,1,,,,,,,,,,,,,,,0,,,86,81
974640,note_off,0,0,1,,,,,,,,,,,,,,,0,,,86,0
974640,control_change,160,0,1,,,,,,,,,,,,,64,0,0,,,,
974640,note_on,0,0,1,,,,,,,,,,,,,,,0,,,85,94
974640,control_change,0,0,1,,,,,,,,,,,,,64,0,0,,,,
974700,control_change,60,0,1,,,,,,,,,,,,,64,127,0,,,,
974800,note_on,0,0,1,,,,,,,,,,,,,,,0,,,88,90
974800,note_off,100,0,1,,,,,,,,,,,,,,,0,,,85,0
974960,note_off,160,0,1,,,,,,,,,,,,,,,0,,,88,0
974960,note_on,0,0,1,,,,,,,,,,,,,,,0,,,86,88
975120,note_off,0,0,1,,,,,,,,,,,,,,,0,,,86,0
975120,control_change,160,0,1,,,,,,,,,,,,,64,0,0,,,,
975120,note_on,0,0,1,,,,,,,,,,,,,,,0,,,80,87
975180,control_change,60,0,1,,,,,,,,,,,,,64,127,0,,,,
975280,note_off,100,0,1,,,,,,,,,,,,,,,0,,,80,0
975280,note_on,0,0,1,,,,,,,,,,,,,,,0,,,83,86
975440,note_off,160,0,1,,,,,,,,,,,,,,,0,,,83,0
975440,note_on,0,0,1,,,,,,,,,,,,,,,0,,,81,84
975600,control_change,160,0,1,,,,,,,,,,,,,64,0,0,,,,
975600,note_off,0,0,1,,,,,,,,,,,,,,,0,,,81,0
975600,note_on,0,0,1,,,,,,,,,,,,,,,0,,,77,83
975660,control_change,60,0,1,,,,,,,,,,,,,64,127,0,,,,
975760,note_off,100,0,1,,,,,,,,,,,,,,,0,,,77,0
975760,note_on,0,0,1,,,,,,,,,,,,,,,0,,,79,81
975920,note_on,0,0,1,,,,,,,,,,,,,,,0,,,78,80
975920,note_off,160,0,1,,,,,,,,,,,,,,,0,,,79,0
976080,control_change,160,0,1,,,,,,,,,,,,,64,0,0,,,,
976080,note_off,0,0,1,,,,,,,,,,,,,,,0,,,78,0
976080,note_on,0,0,1,,,,,,,,,,,,,,,0,,,73,79
976140,control_change,60,0,1,,,,,,,,,,,,,64,127,0,,,,
976240,note_off,100,0,1,,,,,,,,,,,,,,,0,,,73,0
976240,note_on,0,0,1,,,,,,,,,,,,,,,0,,,76,77
976400,note_off,160,0,1,,,,,,,,,,,,,,,0,,,76,0
976400,note_on,0,0,1,,,,,,,,,,,,,,,0,,,74,76
976560,control_change,36310,0,3,,,,,,,,,,,,,64,0,2,,,,
976560,note_off,2880,0,4,,,,,,,,,,,,,,,3,,,57,0
976560,note_off,0,0,4,,,,,,,,,,,,,,,3,,,60,0
976560,note_off,0,0,1,,,,,,,,,,,,,,,0,,,74,0
976560,note_off,0,0,4,,,,,,,,,,,,,,,3,,,62,0
976560,control_change,160,0,1,,,,,,,,,,,,,64,0,0,,,,
976560,note_on,0,0,1,,,,,,,,,,,,,,,0,,,74,74
976620,control_change,60,0,3,,,,,,,,,,,,,64,127,2,,,,
976620,control_change,60,0,1,,,,,,,,,,,,,64,127,0,,,,
976720,note_on,0,0,1,,,,,,,,,,,,,,,0,,,86,73
976720,note_off,100,0,1,,,,,,,,,,,,,,,0,,,74,0
976720,note_on,100,0,3,,,,,,,,,,,,,,,2,,,60,60
976880,note_off,160,0,1,,,,,,,,,,,,,,,0,,,86,0
976880,note_off,160,0,3,,,,,,,,,,,,,,,2,,,60,0
976880,note_on,0,0,3,,,,,,,,,,,,,,,2,,,62,59
976880,note_on,0,0,1,,,,,,,,,,,,,,,0,,,74,72
977040,note_off,0,0,3,,,,,,,,,,,,,,,2,,,62,0
977040,control_change,160,0,3,,,,,,,,,,,,,64,0,2,,,,
977040,note_off,160,0,1,,,,,,,,,,,,,,,0,,,74,0
977040,note_on,480,0,4,,,,,,,,,,,,,,,3,,,54,65
977040,note_on,0,0,1,,,,,,,,,,,,,,,0,,,86,71
977100,control_change,60,0,3,,,,,,,,,,,,,64,127,2,,,,
977200,note_on,100,0,3,,,,,,,,,,,,,,,2,,,57,57
977200,note_on,0,0,1,,,,,,,,,,,,,,,0,,,74,70
977200,note_off,160,0,1,,,,,,,,,,,,,,,0,,,86,0
977360,note_off,160,0,3,,,,,,,,,,,,,,,2,,,57,0
977360,note_off,160,0,1,,,,,,,,,,,,,,,0,,,74,0
977360,note_on,0,0,3,,,,,,,,,,,,,,,2,,,62,57
977360,note_on,0,0,1,,,,,,,,,,,,,,,0,,,86,69
977520,control_change,160,0,3,,,,,,,,,,,,,64,0,2,,,,
977520,note_off,160,0,1,,,,,,,,,,,,,,,0,,,86,0
977520,note_on,0,0,1,,,,,,,,,,,,,,,0,,,74,68
977520,note_off,480,0,4,,,,,,,,,,,,,,,3,,,54,0
977520,note_on,0,0,4,,,,,,,,,,,,,,,3,,,57,63
977520,note_off,0,0,3,,,,,,,,,,,,,,,2,,,62,0
977580,control_change,60,0,3,,,,,,,,,,,,,64,127,2,,,,
977680,note_on,100,0,3,,,,,,,,,,,,,,,2,,,60,55
977680,note_off,160,0,1,,,,,,,,,,,,,,,0,,,74,0
977680,note_on,0,0,1,,,,,,,,,,,,,,,0,,,86,67
977840,note_off,160,0,1,,,,,,,,,,,,,,,0,,,86,0
977840,note_on,0,0,1,,,,,,,,,,,,,,,0,,,74,66
977840,note_on,0,0,3,,,,,,,,,,,,,,,2,,,62,54
977840,note_off,160,0,3,,,,,,,,,,,,,,,2,,,60,0
978000,note_on,0,0,1,,,,,,,,,,,,,,,0,,,86,65
978000,control_change,160,0,3,,,,,,,,,,,,,64,0,2,,,,
978000,note_on,0,0,4,,,,,,,,,,,,,,,3,,,54,61
978000,note_off,480,0,4,,,,,,,,,,,,,,,3,,,57,0
978000,note_off,0,0,3,,,,,,,,,,,,,,,2,,,62,0
978000,note_off,160,0,1,,,,,,,,,,,,,,,0,,,74,0
978060,control_change,60,0,3,,,,,,,,,,,,,64,127,2,,,,
978160,note_on,0,0,1,,,,,,,,,,,,,,,0,,,74,64
978160,note_on,100,0,3,,,,,,,,,,,,,,,2,,,57,52
978160,note_off,160,0,1,,,,,,,,,,,,,,,0,,,86,0
978240,set_tempo,4545,1,0,,,,,,,300000,,,,,,,,,,,,
978320,note_on,0,0,1,,,,,,,,,,,,,,,0,,,86,63
978320,note_off,160,0,1,,,,,,,,,,,,,,,0,,,74,0
978320,note_off,160,0,3,,,,,,,,,,,,,,,2,,,57,0
978320,note_on,0,0,3,,,,,,,,,,,,,,,2,,,62,51
978480,note_off,480,0,4,,,,,,,,,,,,,,,3,,,54,0
978480,note_on,0,0,1,,,,,,,,,,,,,,,0,,,74,81
978480,note_off,160,0,1,,,,,,,,,,,,,,,0,,,86,0
978480,control_change,160,0,3,,,,,,,,,,,,,64,0,2,,,,
978480,note_off,0,0,3,,,,,,,,,,,,,,,2,,,62,0
978480,note_on,0,0,4,,,,,,,,,,,,,,,3,,,57,76
978540,control_change,60,0,3,,,,,,,,,,,,,64,127,2,,,,
978640,note_on,0,0,1,,,,,,,,,,,,,,,0,,,86,78
978640,note_off,160,0,1,,,,,,,,,,,,,,,0,,,74,0
978640,note_on,100,0,3,,,,,,,,,,,,,,,2,,,60,64
978705,set_tempo,465,1,0,,,,,,,297029,,,,,,,,,,,,
978800,note_on,0,0,1,,,,,,,,,,,,,,,0,,,74,76
978800,note_off,160,0,1,,,,,,,,,,,,,,,0,,,86,0
978800,note_off,160,0,3,,,,,,,,,,,,,,,2,,,60,0
978800,note_on,0,0,3,,,,,,,,,,,,,,,2,,,62,60
978960,note_on,0,0,4,,,,,,,,,,,,,,,3,,,54,64
978960,note_off,480,0,4,,,,,,,,,,,,,,,3,,,57,0
978960,note_on,0,0,1,,,,,,,,,,,,,,,0,,,86,73
978960,note_off,160,0,1,,,,,,,,,,,,,,,0,,,74,0
978960,control_change,160,0,3,,,,,,,,,,,,,64,0,2,,,,
978960,note_off,0,0,3,,,,,,,,,,,,,,,2,,,62,0
979020,control_change,60,0,3,,,,,,,,,,,,,64,127,2,,,,
979120,note_on,100,0,3,,,,,,,,,,,,,,,2,,,57,52
979120,note_on,0,0,1,,,,,,,,,,,,,,,0,,,74,71
979120,note_off,160,0,1,,,,,,,,,,,,,,,0,,,86,0
979280,note_on,0,0,3,,,,,,,,,,,,,,,2,,,62,47
979280,note_off,160,0,3,,,,,,,,,,,,,,,2,,,57,0
979280,note_on,0,0,1,,,,,,,,,,,,,,,0,,,86,68
979280,note_off,160,0,1,,,,,,,,,,,,,,,0,,,74,0
979440,note_off,0,0,3,,,,,,,,,,,,,,,2,,,62,0
979440,note_off,480,0,4,,,,,,,,,,,,,,,3,,,54,0
979440,note_off,160,0,1,,,,,,,,,,,,,,,0,,,86,0
979440,note_on,0,0,1,,,,,,,,,,,,,,,0,,,74,66
979440,note_on,0,0,4,,,,,,,,,,,,,,,3,,,57,55
979440,control_change,160,0,3,,,,,,,,,,,,,64,0,2,,,,
979500,control_change,60,0,3,,,,,,,,,,,,,64,127,2,,,,
979600,note_off,160,0,1,,,,,,,,,,,,,,,0,,,74,0
979600,note_on,100,0,3,,,,,,,,,,,,,,,2,,,60,45
979600,note_on,0,0,1,,,,,,,,,,,,,,,0,,,86,63
979760,note_off,160,0,1,,,,,,,,,,,,,,,0,,,86,0
979760,note_on,0,0,3,,,,,,,,,,,,,,,2,,,62,44
979760,note_off,160,0,3,,,,,,,,,,,,,,,2,,,60,0
979760,note_on,0,0,1,,,,,,,,,,,,,,,0,,,74,60
979920,note_off,160,0,1,,,,,,,,,,,,,,,0,,,74,0
979920,note_on,0,0,1,,,,,,,,,,,,,,,0,,,86,58
979920,note_off,480,0,4,,,,,,,,,,,,,,,3,,,57,0
979920,control_change,160,0,3,,,,,,,,,,,,,64,0,2,,,,
979920,note_off,0,0,3,,,,,,,,,,,,,,,2,,,62,0
979920,note_on,0,0,4,,,,,,,,,,,,,,,3,,,54,53
979980,control_change,60,0,3,,,,,,,,,,,,,64,127,2,,,,
980080,note_off,160,0,1,,,,,,,,,,,,,,,0,,,86,0
980080,note_on,100,0,3,,,,,,,,,,,,,,,2,,,57,42
980080,note_on,0,0,1,,,,,,,,,,,,,,,0,,,74,55
980240,note_on,0,0,3,,,,,,,,,,,,,,,2,,,62,41
980240,note_on,0,0,1,,,,,,,,,,,,,,,0,,,86,53
980240,note_off,160,0,3,,,,,,,,,,,,,,,2,,,57,0
980240,note_off,160,0,1,,,,,,,,,,,,,,,0,,,74,0
980355,set_tempo,1650,1,0,,,,,,,298507,,,,,,,,,,,,
980400,note_off,160,0,1,,,,,,,,,,,,,,,0,,,86,0
980400,note_on,0,0,1,,,,,,,,,,,,,,,0,,,74,50
980400,note_on,0,0,1,,,,,,,,,,,,,,,0,,,86,50
980400,control_change,160,0,3,,,,,,,,,,,,,64,0,2,,,,
980400,note_off,0,0,3,,,,,,,,,,,,,,,2,,,62,0
980400,note_on,0,0,4,,,,,,,,,,,,,,,3,,,57,50
980400,note_off,480,0,4,,,,,,,,,,,,,,,3,,,54,0
980460,control_change,60,0,3,,,,,,,,,,,,,64,127,2,,,,
980560,note_on,100,0,3,,,,,,,,,,,,,,,2,,,60,40
980720,note_off,160,0,3,,,,,,,,,,,,,,,2,,,60,0
980720,note_on,0,0,3,,,,,,,,,,,,,,,2,,,62,40
980880,control_change,160,0,3,,,,,,,,,,,,,64,0,2,,,,
980880,control_change,480,0,1,,,,,,,,,,,,,64,0,0,,,,
980880,note_off,0,0,1,,,,,,,,,,,,,,,0,,,86,0
980880,note_off,0,0,1,,,,,,,,,,,,,,,0,,,74,0
980880,note_off,480,0,4,,,,,,,,,,,,,,,3,,,57,0
980880,note_on,0,0,4,,,,,,,,,,,,,,,3,,,55,51
980880,note_off,0,0,3,,,,,,,,,,,,,,,2,,,62,0
980940,control_change,60,0,3,,,,,,,,,,,,,64,127,2,,,,
981040,note_on,100,0,3,,,,,,,,,,,,,,,2,,,59,40
981105,set_tempo,750,1,0,,,,,,,301507,,,,,,,,,,,,
981200,note_off,160,0,3,,,,,,,,,,,,,,,2,,,59,0
981200,note_on,0,0,3,,,,,,,,,,,,,,,2,,,62,40
981280,note_on,400,0,1,,,,,,,,,,,,,,,0,,,76,51
981360,note_off,80,0,1,,,,,,,,,,,,,,,0,,,76,0
981360,note_on,0,0,4,,,,,,,,,,,,,,,3,,,54,52
981360,note_off,0,0,3,,,,,,,,,,,,,,,2,,,62,0
981360,control_change,160,0,3,,,,,,,,,,,,,64,0,2,,,,
981360,note_on,0,0,1,,,,,,,,,,,,,,,0,,,74,51
981360,note_off,480,0,4,,,,,,,,,,,,,,,3,,,55,0
981375,set_tempo,270,1,0,,,,,,,297029,,,,,,,,,,,,
981420,control_change,60,0,3,,,,,,,,,,,,,64,127,2,,,,
981520,note_on,100,0,3,,,,,,,,,,,,,,,2,,,57,40
981600,note_off,240,0,1,,,,,,,,,,,,,,,0,,,74,0
981600,note_on,0,0,1,,,,,,,,,,,,,,,0,,,73,50
981680,note_on,0,0,3,,,,,,,,,,,,,,,2,,,62,40
981680,note_off,160,0,3,,,,,,,,,,,,,,,2,,,57,0
981840,control_change,160,0,3,,,,,,,,,,,,,64,0,2,,,,
981840,note_off,240,0,1,,,,,,,,,,,,,,,0,,,73,0
981840,note_off,480,0,4,,,,,,,,,,,,,,,3,,,54,0
981840,note_on,0,0,1,,,,,,,,,,,,,,,0,,,74,49
981840,note_off,0,0,3,,,,,,,,,,,,,,,2,,,62,0
981840,note_on,0,0,4,,,,,,,,,,,,,,,3,,,52,53
981900,control_change,60,0,3,,,,,,,,,,,,,64,127,2,,,,
982000,note_on,100,0,3,,,,,,,,,,,,,,,2,,,55,41
982080,note_on,0,0,1,,,,,,,,,,,,,,,0,,,76,48
982080,note_off,240,0,1,,,,,,,,,,,,,,,0,,,74,0
982160,note_off,160,0,3,,,,,,,,,,,,,,,2,,,55,0
982160,note_on,0,0,3,,,,,,,,,,,,,,,2,,,62,42
982320,note_off,480,0,4,,,,,,,,,,,,,,,3,,,52,0
982320,control_change,160,0,3,,,,,,,,,,,,,64,0,2,,,,
982320,note_off,0,0,3,,,,,,,,,,,,,,,2,,,62,0
982320,note_off,240,0,1,,,,,,,,,,,,,,,0,,,76,0
982320,note_on,0,0,1,,,,,,,,,,,,,,,0,,,74,48
982320,note_on,0,0,4,,,,,,,,,,,,,,,3,,,50,54
982380,control_change,60,0,3,,,,,,,,,,,,,64,127,2,,,,
982480,note_on,100,0,3,,,,,,,,,,,,,,,2,,,54,42
982640,note_on,0,0,3,,,,,,,,,,,,,,,2,,,62,43
982640,note_off,160,0,3,,,,,,,,,,,,,,,2,,,54,0
982680,note_off,360,0,1,,,,,,,,,,,,,,,0,,,74,0
982800,note_on,0,0,4,,,,,,,,,,,,,,,3,,,48,55
982800,control_change,160,0,3,,,,,,,,,,,,,64,0,2,,,,
982800,note_off,0,0,3,,,,,,,,,,,,,,,2,,,62,0
982800,note_off,480,0,4,,,,,,,,,,,,,,,3,,,50,0
982800,note_on,120,0,1,,,,,,,,,,,,,,,0,,,62,48
982860,control_change,60,0,3,,,,,,,,,,,,,64,127,2,,,,
982960,note_on,100,0,3,,,,,,,,,,,,,,,2,,,52,43
983120,note_off,160,0,3,,,,,,,,,,,,,,,2,,,52,0
983120,note_on,0,0,3,,,,,,,,,,,,,,,2,,,60,44
983280,note_on,480,0,1,,,,,,,,,,,,,,,0,,,64,49
983280,control_change,160,0,3,,,,,,,,,,,,,64,0,2,,,,
983280,note_off,0,0,3,,,,,,,,,,,,,,,2,,,60,0
983280,note_off,480,0,4,,,,,,,,,,,,,,,3,,,48,0
983280,note_on,0,0,4,,,,,,,,,,,,,,,3,,,47,56
983340,control_change,60,0,3,,,,,,,,,,,,,64,127,2,,,,
983440,note_on,100,0,3,,,,,,,,,,,,,,,2,,,50,44
983600,note_on,0,0,3,,,,,,,,,,,,,,,2,,,59,45
983600,note_off,160,0,3,,,,,,,,,,,,,,,2,,,50,0
983760,note_off,480,0,4,,,,,,,,,,,,,,,3,,,47,0
983760,note_off,0,0,3,,,,,,,,,,,,,,,2,,,59,0
983760,note_on,0,0,1,,,,,,,,,,,,,,,0,,,66,50
983760,note_off,480,0,1,,,,,,,,,,,,,,,0,,,64,0
983760,control_change,160,0,3,,,,,,,,,,,,,64,0,2,,,,
983760,note_on,0,0,4,,,,,,,,,,,,,,,3,,,45,57
983820,control_change,60,0,3,,,,,,,,,,,,,64,127,2,,,,
983920,note_on,100,0,3,,,,,,,,,,,,,,,2,,,48,46
984080,note_on,0,0,3,,,,,,,,,,,,,,,2,,,57,46
984080,note_off,160,0,3,,,,,,,,,,,,,,,2,,,48,0
984240,note_on,0,0,4,,,,,,,,,,,,,,,3,,,47,51
984240,note_off,480,0,4,,,,,,,,,,,,,,,3,,,45,0
984240,control_change,160,0,3,,,,,,,,,,,,,64,0,2,,,,
984240,note_on,0,0,1,,,,,,,,,,,,,,,0,,,67,51
984240,note_off,0,0,3,,,,,,,,,,,,,,,2,,,57,0
984240,note_off,480,0,1,,,,,,,,,,,,,,,0,,,66,0
984400,note_off,160,0,4,,,,,,,,,,,,,,,3,,,47,0
984400,note_on,0,0,4,,,,,,,,,,,,,,,3,,,50,46
984560,note_off,160,0,4,,,,,,,,,,,,,,,3,,,50,0
984560,note_on,0,0,4,,,,,,,,,,,,,,,3,,,48,46
984720,note_off,160,0,4,,,,,,,,,,,,,,,3,,,48,0
984720,note_on,0,0,4,,,,,,,,,,,,,,,3,,,47,47
984880,note_off,160,0,4,,,,,,,,,,,,,,,3,,,47,0
984880,note_on,0,0,4,,,,,,,,,,,,,,,3,,,45,47
985040,note_off,160,0,4,,,,,,,,,,,,,,,3,,,45,0
985040,note_on,0,0,4,,,,,,,,,,,,,,,3,,,43,47
985200,note_off,160,0,4,,,,,,,,,,,,,,,3,,,43,0
985200,note_on,0,0,4,,,,,,,,,,,,,,,3,,,42,48
985200,note_on,0,0,1,,,,,,,,,,,,,,,0,,,71,52
985200,note_off,960,0,1,,,,,,,,,,,,,,,0,,,67,0
985360,note_off,160,0,4,,,,,,,,,,,,,,,3,,,42,0
985360,note_on,0,0,4,,,,,,,,,,,,,,,3,,,45,48
985440,note_on,0,0,1,,,,,,,,,,,,,,,0,,,69,52
985440,note_off,240,0,1,,,,,,,,,,,,,,,0,,,71,0
985520,note_off,160,0,4,,,,,,,,,,,,,,,3,,,45,0
985520,note_on,0,0,4,,,,,,,,,,,,,,,3,,,43,48
985680,note_off,160,0,4,,,,,,,,,,,,,,,3,,,43,0
985680,note_on,0,0,4,,,,,,,,,,,,,,,3,,,42,49
985680,note_on,0,0,1,,,,,,,,,,,,,,,0,,,67,53
985680,note_off,240,0,1,,,,,,,,,,,,,,,0,,,69,0
985840,note_off,160,0,4,,,,,,,,,,,,,,,3,,,42,0
985840,note_on,0,0,4,,,,,,,,,,,,,,,3,,,40,49
985920,note_off,240,0,1,,,,,,,,,,,,,,,0,,,67,0
985920,note_on,0,0,1,,,,,,,,,,,,,,,0,,,69,53
985920,set_tempo,4545,1,0,,,,,,,298507,,,,,,,,,,,,
986000,note_off,160,0,4,,,,,,,,,,,,,,,3,,,40,0
986000,note_on,0,0,4,,,,,,,,,,,,,,,3,,,38,49
986160,note_off,240,0,1,,,,,,,,,,,,,,,0,,,69,0
986160,note_on,0,0,1,,,,,,,,,,,,,,,0,,,71,54
986160,note_on,0,0,4,,,,,,,,,,,,,,,3,,,43,49
986160,note_off,160,0,4,,,,,,,,,,,,,,,3,,,38,0
986320,note_on,0,0,4,,,,,,,,,,,,,,,3,,,42,50
986320,note_off,160,0,4,,,,,,,,,,,,,,,3,,,43,0
986480,note_off,160,0,4,,,,,,,,,,,,,,,3,,,42,0
986480,note_on,0,0,4,,,,,,,,,,,,,,,3,,,43,50
986640,note_off,480,0,1,,,,,,,,,,,,,,,0,,,62,0
986640,note_off,0,0,1,,,,,,,,,,,,,,,0,,,71,0
986640,note_on,0,0,1,,,,,,,,,,,,,,,0,,,67,54
986640,note_off,160,0,4,,,,,,,,,,,,,,,3,,,43,0
986640,note_on,0,0,4,,,,,,,,,,,,,,,3,,,40,50
986800,note_on,0,0,4,,,,,,,,,,,,,,,3,,,42,51
986800,note_off,160,0,4,,,,,,,,,,,,,,,3,,,40,0
986960,note_on,0,0,4,,,,,,,,,,,,,,,3,,,43,51
986960,note_off,160,0,4,,,,,,,,,,,,,,,3,,,42,0
987120,note_off,160,0,4,,,,,,,,,,,,,,,3,,,43,0
987120,note_on,0,0,4,,,,,,,,,,,,,,,3,,,45,51
987120,note_on,480,0,1,,,,,,,,,,,,,,,0,,,73,55
987280,note_on,0,0,4,,,,,,,,,,,,,,,3,,,47,52
987280,note_off,160,0,4,,,,,,,,,,,,,,,3,,,45,0
987440,note_off,160,0,4,,,,,,,,,,,,,,,3,,,47,0
987440,note_on,0,0,4,,,,,,,,,,,,,,,3,,,45,52
987600,note_on,0,0,4,,,,,,,,,,,,,,,3,,,43,52
987600,note_off,160,0,4,,,,,,,,,,,,,,,3,,,45,0
987600,note_off,480,0,1,,,,,,,,,,,,,,,0,,,67,0
987600,note_on,0,0,1,,,,,,,,,,,,,,,0,,,69,56
987600,note_off,0,0,1,,,,,,,,,,,,,,,0,,,73,0
987600,note_on,53280,0,2,,,,,,,,,,,,,,,1,,,67,56
987760,note_off,160,0,4,,,,,,,,,,,,,,,3,,,43,0
987760,note_on,0,0,4,,,,,,,,,,,,,,,3,,,42,53
987825,set_tempo,1905,1,0,,,,,,,300000,,,,,,,,,,,,
987920,note_on,0,0,4,,,,,,,,,,,,,,,3,,,40,53
987920,note_off,160,0,4,,,,,,,,,,,,,,,3,,,42,0
988080,note_off,480,0,1,,,,,,,,,,,,,,,0,,,69,0
988080,note_on,0,0,1,,,,,,,,,,,,,,,0,,,74,57
988080,note_on,0,0,4,,,,,,,,,,,,,,,3,,,38,53
988080,note_off,480,0,2,,,,,,,,,,,,,,,1,,,67,0
988080,note_on,0,0,2,,,,,,,,,,,,,,,1,,,66,57
988080,note_off,160,0,4,,,,,,,,,,,,,,,3,,,40,0
988240,note_on,160,0,4,,,,,,,,,,,,,,,3,,,42,52
988400,note_off,160,0,4,,,,,,,,,,,,,,,3,,,42,0
988400,note_on,0,0,4,,,,,,,,,,,,,,,3,,,43,52
988560,note_off,160,0,4,,,,,,,,,,,,,,,3,,,43,0
988560,note_on,0,0,4,,,,,,,,,,,,,,,3,,,45,51
988720,note_off,160,0,4,,,,,,,,,,,,,,,3,,,45,0
988720,note_on,0,0,4,,,,,,,,,,,,,,,3,,,47,50
988770,set_tempo,945,1,0,,,,,,,301507,,,,,,,,,,,,
988880,note_off,160,0,4,,,,,,,,,,,,,,,3,,,47,0
988880,note_on,0,0,4,,,,,,,,,,,,,,,3,,,49,49
988960,note_on,880,0,1,,,,,,,,,,,,,,,0,,,76,50
989040,note_off,960,0,2,,,,,,,,,,,,,,,1,,,66,0
989040,note_off,0,0,1,,,,,,,,,,,,,,,0,,,76,0
989040,note_off,80,0,1,,,,,,,,,,,,,,,0,,,74,0
989040,note_on,0,0,4,,,,,,,,,,,,,,,3,,,50,49
989040,note_off,0,0,4,,,,,,,,,,,,,,,3,,,49,0
989040,note_off,160,0,4,,,,,,,,,,,,,,,3,,,38,0
989040,note_on,0,0,1,,,,,,,,,,,,,,,0,,,74,57
989055,set_tempo,285,1,0,,,,,,,297029,,,,,,,,,,,,
989200,note_on,0,0,4,,,,,,,,,,,,,,,3,,,38,48
989200,note_off,160,0,4,,,,,,,,,,,,,,,3,,,50,0
989280,note_off,240,0,1,,,,,,,,,,,,,,,0,,,74,0
989280,note_on,0,0,1,,,,,,,,,,,,,,,0,,,73,56
989360,note_off,160,0,4,,,,,,,,,,,,,,,3,,,38,0
989360,note_on,0,0,4,,,,,,,,,,,,,,,3,,,50,47
989520,note_off,240,0,1,,,,,,,,,,,,,,,0,,,73,0
989520,note_on,0,0,1,,,,,,,,,,,,,,,0,,,74,54
989520,note_off,160,0,4,,,,,,,,,,,,,,,3,,,50,0
989520,note_on,0,0,4,,,,,,,,,,,,,,,3,,,47,46
989680,note_off,160,0,4,,,,,,,,,,,,,,,3,,,47,0
989680,note_on,0,0,4,,,,,,,,,,,,,,,3,,,50,45
989760,note_off,240,0,1,,,,,,,,,,,,,,,0,,,74,0
989760,note_on,0,0,1,,,,,,,,,,,,,,,0,,,76,53
989840,note_on,0,0,4,,,,,,,,,,,,,,,3,,,47,45
989840,note_off,160,0,4,,,,,,,,,,,,,,,3,,,50,0
990000,note_on,0,0,4,,,,,,,,,,,,,,,3,,,48,44
990000,note_on,0,0,1,,,,,,,,,,,,,,,0,,,74,52
990000,note_off,240,0,1,,,,,,,,,,,,,,,0,,,76,0
990000,note_off,160,0,4,,,,,,,,,,,,,,,3,,,47,0
990160,note_on,0,0,4,,,,,,,,,,,,,,,3,,,50,44
990160,note_off,160,0,4,,,,,,,,,,,,,,,3,,,48,0
990320,note_on,0,0,4,,,,,,,,,,,,,,,3,,,48,44
990320,note_off,160,0,4,,,,,,,,,,,,,,,3,,,50,0
990360,note_off,360,0,1,,,,,,,,,,,,,,,0,,,74,0
990480,note_on,0,0,4,,,,,,,,,,,,,,,3,,,47,45
990480,note_on,120,0,1,,,,,,,,,,,,,,,0,,,62,52
990480,note_off,160,0,4,,,,,,,,,,,,,,,3,,,48,0
990640,note_off,160,0,4,,,,,,,,,,,,,,,3,,,47,0
990640,note_on,0,0,4,,,,,,,,,,,,,,,3,,,50,45
990800,note_off,160,0,4,,,,,,,,,,,,,,,3,,,50,0
990800,note_on,0,0,4,,,,,,,,,,,,,,,3,,,47,45
990960,note_on,0,0,4,,,,,,,,,,,,,,,3,,,48,46
990960,note_off,160,0,4,,,,,,,,,,,,,,,3,,,47,0
990960,note_on,480,0,1,,,,,,,,,,,,,,,0,,,64,53
991120,note_off,160,0,4,,,,,,,,,,,,,,,3,,,48,0
991120,note_on,0,0,4,,,,,,,,,,,,,,,3,,,50,46
991280,note_off,160,0,4,,,,,,,,,,,,,,,3,,,50,0
991280,note_on,0,0,4,,,,,,,,,,,,,,,3,,,48,47
991440,note_off,160,0,4,,,,,,,,,,,,,,,3,,,48,0
991440,note_on,0,0,4,,,,,,,,,,,,,,,3,,,45,47
991440,note_off,480,0,1,,,,,,,,,,,,,,,0,,,64,0
991440,note_on,0,0,1,,,,,,,,,,,,,,,0,,,66,54
991600,note_off,160,0,4,,,,,,,,,,,,,,,3,,,45,0
991600,note_on,0,0,4,,,,,,,,,,,,,,,3,,,50,47
991760,note_off,160,0,4,,,,,,,,,,,,,,,3,,,50,0
991760,note_on,0,0,4,,,,,,,,,,,,,,,3,,,45,48
991920,note_off,480,0,1,,,,,,,,,,,,,,,0,,,66,0
991920,note_on,0,0,1,,,,,,,,,,,,,,,0,,,67,55
991920,note_off,160,0,4,,,,,,,,,,,,,,,3,,,45,0
991920,note_on,0,0,4,,,,,,,,,,,,,,,3,,,47,48
992080,note_off,160,0,4,,,,,,,,,,,,,,,3,,,47,0
992080,note_on,0,0,4,,,,,,,,,,,,,,,3,,,50,48
992240,note_on,0,0,4,,,,,,,,,,,,,,,3,,,48,49
992240,note_off,160,0,4,,,,,,,,,,,,,,,3,,,50,0
992400,note_on,0,0,4,,,,,,,,,,,,,,,3,,,47,49
992400,note_off,160,0,4,,,,,,,,,,,,,,,3,,,48,0
992560,note_off,160,0,4,,,,,,,,,,,,,,,3,,,47,0
992560,note_on,0,0,4,,,,,,,,,,,,,,,3,,,45,50
992720,note_off,160,0,4,,,,,,,,,,,,,,,3,,,45,0
992720,note_on,0,0,4,,,,,,,,,,,,,,,3,,,43,50
992880,note_on,0,0,1,,,,,,,,,,,,,,,0,,,71,57
992880,note_off,160,0,4,,,,,,,,,,,,,,,3,,,43,0
992880,note_on,0,0,4,,,,,,,,,,,,,,,3,,,42,50
992880,note_off,960,0,1,,,,,,,,,,,,,,,0,,,67,0
993040,note_off,160,0,4,,,,,,,,,,,,,,,3,,,42,0
993040,note_on,0,0,4,,,,,,,,,,,,,,,3,,,45,51
993120,note_off,240,0,1,,,,,,,,,,,,,,,0,,,71,0
993120,note_on,0,0,1,,,,,,,,,,,,,,,0,,,69,57
993200,note_off,160,0,4,,,,,,,,,,,,,,,3,,,45,0
993200,note_on,0,0,4,,,,,,,,,,,,,,,3,,,43,51
993360,note_off,160,0,4,,,,,,,,,,,,,,,3,,,43,0
993360,note_on,0,0,4,,,,,,,,,,,,,,,3,,,42,51
993360,note_off,240,0,1,,,,,,,,,,,,,,,0,,,69,0
993360,note_on,0,0,1,,,,,,,,,,,,,,,0,,,67,58
993520,note_on,0,0,4,,,,,,,,,,,,,,,3,,,40,52
993520,note_off,160,0,4,,,,,,,,,,,,,,,3,,,42,0
993585,set_tempo,4530,1,0,,,,,,,298507,,,,,,,,,,,,
993600,note_off,240,0,1,,,,,,,,,,,,,,,0,,,67,0
993600,note_on,0,0,1,,,,,,,,,,,,,,,0,,,69,58
993680,note_on,0,0,4,,,,,,,,,,,,,,,3,,,38,52
993680,note_off,160,0,4,,,,,,,,,,,,,,,3,,,40,0
993840,note_off,160,0,4,,,,,,,,,,,,,,,3,,,38,0
993840,note_on,0,0,4,,,,,,,,,,,,,,,3,,,43,53
993840,note_on,0,0,1,,,,,,,,,,,,,,,0,,,71,59
993840,note_off,240,0,1,,,,,,,,,,,,,,,0,,,69,0
994000,note_off,160,0,4,,,,,,,,,,,,,,,3,,,43,0
994000,note_on,0,0,4,,,,,,,,,,,,,,,3,,,42,53
994160,note_on,0,0,4,,,,,,,,,,,,,,,3,,,43,53
994160,note_off,160,0,4,,,,,,,,,,,,,,,3,,,42,0
994320,note_on,0,0,4,,,,,,,,,,,,,,,3,,,40,54
994320,note_on,0,0,1,,,,,,,,,,,,,,,0,,,67,59
994320,note_off,160,0,4,,,,,,,,,,,,,,,3,,,43,0
994320,note_off,0,0,1,,,,,,,,,,,,,,,0,,,71,0
994320,note_on,5280,0,2,,,,,,,,,,,,,,,1,,,64,59
994320,note_off,480,0,1,,,,,,,,,,,,,,,0,,,62,0
994480,note_off,160,0,4,,,,,,,,,,,,,,,3,,,40,0
994480,note_on,0,0,4,,,,,,,,,,,,,,,3,,,39,54
994640,note_off,160,0,4,,,,,,,,,,,,,,,3,,,39,0
994640,note_on,0,0,4,,,,,,,,,,,,,,,3,,,40,54
994800,note_on,480,0,2,,,,,,,,,,,,,,,1,,,69,60
994800,note_off,160,0,4,,,,,,,,,,,,,,,3,,,40,0
994800,note_on,0,0,4,,,,,,,,,,,,,,,3,,,36,55
994800,note_on,0,0,1,,,,,,,,,,,,,,,0,,,72,60
994800,note_off,480,0,1,,,,,,,,,,,,,,,0,,,67,0
994960,note_off,160,0,4,,,,,,,,,,,,,,,3,,,36,0
994960,note_on,0,0,4,,,,,,,,,,,,,,,3,,,35,55
995120,note_on,0,0,4,,,,,,,,,,,,,,,3,,,36,56
995120,note_off,160,0,4,,,,,,,,,,,,,,,3,,,35,0
995280,note_on,0,0,4,,,,,,,,,,,,,,,3,,,38,56
995280,note_on,0,0,1,,,,,,,,,,,,,,,0,,,69,61
995280,note_off,480,0,1,,,,,,,,,,,,,,,0,,,72,0
995280,note_off,480,0,2,,,,,,,,,,,,,,,1,,,64,0
995280,note_off,0,0,2,,,,,,,,,,,,,,,1,,,69,0
995280,note_on,0,0,2,,,,,,,,,,,,,,,1,,,66,61
995280,note_on,0,0,2,,,,,,,,,,,,,,,1,,,60,61
995280,note_off,160,0,4,,,,,,,,,,,,,,,3,,,36,0
995440,note_off,160,0,4,,,,,,,,,,,,,,,3,,,38,0
995440,note_on,0,0,4,,,,,,,,,,,,,,,3,,,37,56
995565,set_tempo,1980,1,0,,,,,,,300000,,,,,,,,,,,,
995600,note_on,0,0,4,,,,,,,,,,,,,,,3,,,38,57
995600,note_off,160,0,4,,,,,,,,,,,,,,,3,,,37,0
995760,note_off,0,0,4,,,,,,,,,,,,,,,3,,,38,0
995760,note_off,480,0,2,,,,,,,,,,,,,,,1,,,66,0
995760,note_off,0,0,2,,,,,,,,,,,,,,,1,,,60,0
995760,note_on,0,0,2,,,,,,,,,,,,,,,1,,,59,56
995760,note_on,0,0,4,,,,,,,,,,,,,,,3,,,31,57
995760,note_off,480,0,1,,,,,,,,,,,,,,,0,,,69,0
995760,note_on,0,0,1,,,,,,,,,,,,,,,0,,,67,56
995760,control_change,160,0,4,,,,,,,,,,,,,64,0,3,,,,
995820,control_change,60,0,4,,,,,,,,,,,,,64,127,3,,,,
995920,note_on,100,0,4,,,,,,,,,,,,,,,3,,,35,57
996080,note_off,160,0,4,,,,,,,,,,,,,,,3,,,35,0
996080,note_on,0,0,4,,,,,,,,,,,,,,,3,,,38,56
996240,note_off,160,0,4,,,,,,,,,,,,,,,3,,,38,0
996240,note_on,0,0,4,,,,,,,,,,,,,,,3,,,43,55
996240,note_off,480,0,1,,,,,,,,,,,,,,,0,,,67,0
996240,note_off,480,0,2,,,,,,,,,,,,,,,1,,,59,0
996400,note_off,160,0,4,,,,,,,,,,,,,,,3,,,43,0
996400,note_on,0,0,4,,,,,,,,,,,,,,,3,,,47,54
996495,set_tempo,930,1,0,,,,,,,301507,,,,,,,,,,,,
996560,note_off,160,0,4,,,,,,,,,,,,,,,3,,,47,0
996560,note_on,0,0,4,,,,,,,,,,,,,,,3,,,50,54
996695,note_off,135,0,4,,,,,,,,,,,,,,,3,,,31,0
996720,note_on,480,0,2,,,,,,,,,,,,,,,1,,,71,56
996720,note_on,480,0,1,,,,,,,,,,,,,,,0,,,79,56
996720,note_off,0,0,4,,,,,,,,,,,,,,,3,,,50,0
996720,note_on,0,0,4,,,,,,,,,,,,,,,3,,,43,58
996720,control_change,25,0,4,,,,,,,,,,,,,64,0,3,,,,
996735,set_tempo,240,1,0,,,,,,,297029,,,,,,,,,,,,
996960,note_on,240,0,4,,,,,,,,,,,,,,,3,,,55,60
997185,note_off,225,0,4,,,,,,,,,,,,,,,3,,,43,0
997200,note_on,0,0,4,,,,,,,,,,,,,,,3,,,45,61
997200,note_on,0,0,2,,,,,,,,,,,,,,,1,,,72,60
997200,note_off,480,0,2,,,,,,,,,,,,,,,1,,,71,0
997200,note_off,15,0,4,,,,,,,,,,,,,,,3,,,55,0
997200,note_on,0,0,1,,,,,,,,,,,,,,,0,,,78,60
997200,note_off,480,0,1,,,,,,,,,,,,,,,0,,,79,0
997440,note_on,240,0,4,,,,,,,,,,,,,,,3,,,57,63
997665,note_off,225,0,4,,,,,,,,,,,,,,,3,,,45,0
997680,note_on,0,0,2,,,,,,,,,,,,,,,1,,,74,63
997680,note_off,15,0,4,,,,,,,,,,,,,,,3,,,57,0
997680,note_off,480,0,1,,,,,,,,,,,,,,,0,,,78,0
997680,note_on,0,0,1,,,,,,,,,,,,,,,0,,,77,63
997680,note_off,480,0,2,,,,,,,,,,,,,,,1,,,72,0
997680,note_on,0,0,4,,,,,,,,,,,,,,,3,,,47,64
997920,note_on,240,0,4,,,,,,,,,,,,,,,3,,,59,66
998145,note_off,225,0,4,,,,,,,,,,,,,,,3,,,47,0
998160,note_on,0,0,1,,,,,,,,,,,,,,,0,,,76,67
998160,note_off,480,0,2,,,,,,,,,,,,,,,1,,,74,0
998160,note_off,15,0,4,,,,,,,,,,,,,,,3,,,59,0
998160,note_off,480,0,1,,,,,,,,,,,,,,,0,,,77,0
998160,note_on,0,0,2,,,,,,,,,,,,,,,1,,,67,67
998160,note_on,0,0,4,,,,,,,,,,,,,,,3,,,48,67
998400,note_on,240,0,4,,,,,,,,,,,,,,,3,,,60,69
998625,note_off,225,0,4,,,,,,,,,,,,,,,3,,,48,0
998640,note_off,480,0,1,,,,,,,,,,,,,,,0,,,76,0
998640,note_on,0,0,2,,,,,,,,,,,,,,,1,,,72,75
998640,note_on,0,0,2,,,,,,,,,,,,,,,1,,,67,75
998640,note_off,480,0,2,,,,,,,,,,,,,,,1,,,67,0
998640,note_on,0,0,4,,,,,,,,,,,,,,,3,,,51,71
998640,note_off,15,0,4,,,,,,,,,,,,,,,3,,,60,0
998640,note_on,0,0,1,,,,,,,,,,,,,,,0,,,75,75
998880,note_on,240,0,4,,,,,,,,,,,,,,,3,,,63,71
999105,note_off,225,0,4,,,,,,,,,,,,,,,3,,,51,0
999120,note_on,0,0,2,,,,,,,,,,,,,,,1,,,69,72
999120,note_on,0,0,2,,,,,,,,,,,,,,,1,,,72,72
999120,note_off,0,0,2,,,,,,,,,,,,,,,1,,,72,0
999120,note_off,480,0,2,,,,,,,,,,,,,,,1,,,67,0
999120,note_on,0,0,1,,,,,,,,,,,,,,,0,,,75,72
999120,note_off,480,0,1,,,,,,,,,,,,,,,0,,,75,0
999120,note_off,15,0,4,,,,,,,,,,,,,,,3,,,63,0
999120,note_on,0,0,4,,,,,,,,,,,,,,,3,,,54,70
999360,note_on,240,0,4,,,,,,,,,,,,,,,3,,,66,70
999360,set_tempo,2625,1,0,,,,,,,298507,,,,,,,,,,,,
999585,note_off,225,0,4,,,,,,,,,,,,,,,3,,,54,0
999600,note_off,0,0,2,,,,,,,,,,,,,,,1,,,69,0
999600,note_off,15,0,4,,,,,,,,,,,,,,,3,,,66,0
999600,note_on,0,0,4,,,,,,,,,,,,,,,3,,,55,63
999600,note_off,480,0,1,,,,,,,,,,,,,,,0,,,75,0
999600,note_on,0,0,1,,,,,,,,,,,,,,,0,,,75,69
999600,note_off,480,0,2,,,,,,,,,,,,,,,1,,,72,0
999600,note_on,0,0,2,,,,,,,,,,,,,,,1,,,72,69
999840,note_on,240,0,4,,,,,,,,,,,,,,,3,,,67,63
1000080,note_off,480,0,1,,,,,,,,,,,,,,,0,,,75,0
1000080,note_on,0,0,1,,,,,,,,,,,,,,,0,,,74,68
1000080,note_on,0,0,2,,,,,,,,,,,,,,,1,,,71,68
1000080,note_off,480,0,2,,,,,,,,,,,,,,,1,,,72,0
1000080,note_on,0,0,4,,,,,,,,,,,,,,,3,,,43,62
1000080,note_off,240,0,4,,,,,,,,,,,,,,,3,,,67,0
1000115,note_off,35,0,4,,,,,,,,,,,,,,,3,,,55,0
1000320,note_on,205,0,4,,,,,,,,,,,,,,,3,,,55,62
1000455,set_tempo,1095,1,0,,,,,,,301507,,,,,,,,,,,,
1000545,note_off,225,0,4,,,,,,,,,,,,,,,3,,,43,0
1000560,note_on,0,0,2,,,,,,,,,,,,,,,1,,,69,66
1000560,note_on,0,0,2,,,,,,,,,,,,,,,1,,,66,66
1000560,note_off,480,0,2,,,,,,,,,,,,,,,1,,,71,0
1000560,note_on,0,0,4,,,,,,,,,,,,,,,3,,,50,62
1000560,note_off,15,0,4,,,,,,,,,,,,,,,3,,,55,0
1000560,note_on,0,0,1,,,,,,,,,,,,,,,0,,,76,66
1000560,note_off,480,0,1,,,,,,,,,,,,,,,0,,,74,0
1000575,set_tempo,120,1,0,,,,,,,297029,,,,,,,,,,,,
1000800,note_on,0,0,1,,,,,,,,,,,,,,,0,,,74,66
1000800,note_on,240,0,4,,,,,,,,,,,,,,,3,,,62,61
1000800,note_off,240,0,1,,,,,,,,,,,,,,,0,,,76,0
1000975,note_off,175,0,4,,,,,,,,,,,,,,,3,,,50,0
1001040,note_on,0,0,1,,,,,,,,,,,,,,,0,,,73,65
1001040,note_off,240,0,1,,,,,,,,,,,,,,,0,,,74,0
1001040,note_off,65,0,4,,,,,,,,,,,,,,,3,,,62,0
1001040,note_on,0,0,4,,,,,,,,,,,,,,,3,,,38,61
1001280,note_on,240,0,4,,,,,,,,,,,,,,,3,,,50,61
1001280,note_off,240,0,1,,,,,,,,,,,,,,,0,,,73,0
1001280,note_on,0,0,1,,,,,,,,,,,,,,,0,,,74,64
1001455,note_off,175,0,4,,,,,,,,,,,,,,,3,,,38,0
1001520,note_on,0,0,4,,,,,,,,,,,,,,,3,,,43,60
1001520,note_off,960,0,2,,,,,,,,,,,,,,,1,,,66,0
1001520,note_off,0,0,2,,,,,,,,,,,,,,,1,,,69,0
1001520,note_off,65,0,4,,,,,,,,,,,,,,,3,,,50,0
1001520,note_on,0,0,2,,,,,,,,,,,,,,,1,,,62,64
1001520,note_on,0,0,2,,,,,,,,,,,,,,,1,,,67,64
1001520,note_off,240,0,1,,,,,,,,,,,,,,,0,,,74,0
1001520,note_on,0,0,1,,,,,,,,,,,,,,,0,,,71,64
1001760,note_on,240,0,4,,,,,,,,,,,,,,,3,,,55,60
1001985,note_off,225,0,4,,,,,,,,,,,,,,,3,,,43,0
1002000,note_off,480,0,1,,,,,,,,,,,,,,,0,,,71,0
1002000,note_on,0,0,1,,,,,,,,,,,,,,,0,,,74,62
1002000,note_off,15,0,4,,,,,,,,,,,,,,,3,,,55,0
1002000,note_on,0,0,4,,,,,,,,,,,,,,,3,,,31,59
1002240,note_on,240,0,4,,,,,,,,,,,,,,,3,,,43,59
1002415,note_off,175,0,4,,,,,,,,,,,,,,,3,,,31,0
1002420,set_tempo,1845,1,0,,,,,,,298507,,,,,,,,,,,,
1002480,set_tempo,60,1,0,,,,,,,297029,,,,,,,,,,,,
1002480,note_on,0,0,2,,,,,,,,,,,,,,,1,,,66,61
1002480,note_on,0,0,2,,,,,,,,,,,,,,,1,,,69,61
1002480,note_on,0,0,1,,,,,,,,,,,,,,,0,,,76,61
1002480,note_off,0,0,2,,,,,,,,,,,,,,,1,,,62,0
1002480,note_off,480,0,1,,,,,,,,,,,,,,,0,,,74,0
1002480,note_off,960,0,2,,,,,,,,,,,,,,,1,,,67,0
1002480,note_off,65,0,4,,,,,,,,,,,,,,,3,,,43,0
1002480,note_on,0,0,4,,,,,,,,,,,,,,,3,,,38,59
1002720,note_on,240,0,4,,,,,,,,,,,,,,,3,,,50,58
1002720,note_off,240,0,1,,,,,,,,,,,,,,,0,,,76,0
1002720,note_on,0,0,1,,,,,,,,,,,,,,,0,,,74,60
1002895,note_off,175,0,4,,,,,,,,,,,,,,,3,,,38,0
1002960,note_on,0,0,4,,,,,,,,,,,,,,,3,,,38,58
1002960,note_off,240,0,1,,,,,,,,,,,,,,,0,,,74,0
1002960,note_on,0,0,1,,,,,,,,,,,,,,,0,,,73,60
1002960,note_off,65,0,4,,,,,,,,,,,,,,,3,,,50,0
1003200,note_on,0,0,1,,,,,,,,,,,,,,,0,,,74,59
1003200,note_off,240,0,1,,,,,,,,,,,,,,,0,,,73,0
1003200,set_tempo,720,1,0,,,,,,,298507,,,,,,,,,,,,
1003200,note_on,240,0,4,,,,,,,,,,,,,,,3,,,50,57
1003375,note_off,175,0,4,,,,,,,,,,,,,,,3,,,38,0
1003440,note_on,0,0,1,,,,,,,,,,,,,,,0,,,71,58
1003440,note_on,0,0,4,,,,,,,,,,,,,,,3,,,31,57
1003440,note_off,0,0,4,,,,,,,,,,,,,,,3,,,50,0
1003440,control_change,65,0,4,,,,,,,,,,,,,64,0,3,,,,
1003440,note_on,0,0,2,,,,,,,,,,,,,,,1,,,67,58
1003440,note_off,960,0,2,,,,,,,,,,,,,,,1,,,66,0
1003440,note_off,0,0,2,,,,,,,,,,,,,,,1,,,69,0
1003440,note_on,0,0,2,,,,,,,,,,,,,,,1,,,62,58
1003440,note_off,240,0,1,,,,,,,,,,,,,,,0,,,74,0
1003500,control_change,60,0,4,,,,,,,,,,,,,64,127,3,,,,
1003600,note_on,100,0,4,,,,,,,,,,,,,,,3,,,35,57
1003760,note_on,0,0,4,,,,,,,,,,,,,,,3,,,38,56
1003760,note_off,160,0,4,,,,,,,,,,,,,,,3,,,35,0
1003920,note_off,480,0,2,,,,,,,,,,,,,,,1,,,62,0
1003920,note_off,0,0,2,,,,,,,,,,,,,,,1,,,67,0
1003920,note_on,0,0,4,,,,,,,,,,,,,,,3,,,43,56
1003920,note_off,480,0,1,,,,,,,,,,,,,,,0,,,71,0
1003920,note_off,160,0,4,,,,,,,,,,,,,,,3,,,38,0
1004080,note_on,0,0,4,,,,,,,,,,,,,,,3,,,42,56
1004080,note_off,160,0,4,,,,,,,,,,,,,,,3,,,43,0
1004145,set_tempo,945,1,0,,,,,,,301507,,,,,,,,,,,,
1004240,note_off,160,0,4,,,,,,,,,,,,,,,3,,,42,0
1004240,note_on,0,0,4,,,,,,,,,,,,,,,3,,,43,56
1004325,note_off,85,0,4,,,,,,,,,,,,,,,3,,,31,0
1004400,note_on,480,0,2,,,,,,,,,,,,,,,1,,,71,63
1004400,note_off,0,0,4,,,,,,,,,,,,,,,3,,,43,0
1004400,note_on,480,0,1,,,,,,,,,,,,,,,0,,,79,63
1004400,note_on,0,0,4,,,,,,,,,,,,,,,3,,,31,58
1004400,control_change,75,0,4,,,,,,,,,,,,,64,0,3,,,,
1004415,set_tempo,270,1,0,,,,,,,297029,,,,,,,,,,,,
1004640,note_on,240,0,4,,,,,,,,,,,,,,,3,,,43,60
1004815,note_off,175,0,4,,,,,,,,,,,,,,,3,,,31,0
1004880,note_off,480,0,1,,,,,,,,,,,,,,,0,,,79,0
1004880,note_on,0,0,1,,,,,,,,,,,,,,,0,,,78,66
1004880,note_on,0,0,2,,,,,,,,,,,,,,,1,,,72,66
1004880,note_off,65,0,4,,,,,,,,,,,,,,,3,,,43,0
1004880,note_off,480,0,2,,,,,,,,,,,,,,,1,,,71,0
1004880,note_on,0,0,4,,,,,,,,,,,,,,,3,,,33,61
1005120,note_on,240,0,4,,,,,,,,,,,,,,,3,,,45,63
1005295,note_off,175,0,4,,,,,,,,,,,,,,,3,,,33,0
1005360,note_off,480,0,2,,,,,,,,,,,,,,,1,,,72,0
1005360,note_off,65,0,4,,,,,,,,,,,,,,,3,,,45,0
1005360,note_on,0,0,4,,,,,,,,,,,,,,,3,,,35,64
1005360,note_on,0,0,2,,,,,,,,,,,,,,,1,,,74,69
1005360,note_on,0,0,1,,,,,,,,,,,,,,,0,,,77,69
1005360,note_off,480,0,1,,,,,,,,,,,,,,,0,,,78,0
1005600,note_on,240,0,4,,,,,,,,,,,,,,,3,,,47,66
1005775,note_off,175,0,4,,,,,,,,,,,,,,,3,,,35,0
1005840,note_on,0,0,1,,,,,,,,,,,,,,,0,,,76,72
1005840,note_off,480,0,2,,,,,,,,,,,,,,,1,,,74,0
1005840,note_on,0,0,2,,,,,,,,,,,,,,,1,,,67,72
1005840,note_on,0,0,4,,,,,,,,,,,,,,,3,,,36,67
1005840,note_off,65,0,4,,,,,,,,,,,,,,,3,,,47,0
1005840,note_off,480,0,1,,,,,,,,,,,,,,,0,,,77,0
1006080,note_on,240,0,4,,,,,,,,,,,,,,,3,,,48,69
1006255,note_off,175,0,4,,,,,,,,,,,,,,,3,,,36,0
1006320,note_off,480,0,1,,,,,,,,,,,,,,,0,,,76,0
1006320,note_on,0,0,1,,,,,,,,,,,,,,,0,,,75,79
1006320,note_on,0,0,2,,,,,,,,,,,,,,,1,,,72,79
1006320,note_on,0,0,4,,,,,,,,,,,,,,,3,,,39,75
1006320,note_on,0,0,2,,,,,,,,,,,,,,,1,,,67,79
1006320,note_off,65,0,4,,,,,,,,,,,,,,,3,,,48,0
1006320,note_off,480,0,2,,,,,,,,,,,,,,,1,,,67,0
1006560,note_on,240,0,4,,,,,,,,,,,,,,,3,,,51,74
1006735,note_off,175,0,4,,,,,,,,,,,,,,,3,,,39,0
1006800,note_on,0,0,1,,,,,,,,,,,,,,,0,,,75,76
1006800,note_off,480,0,1,,,,,,,,,,,,,,,0,,,75,0
1006800,note_off,65,0,4,,,,,,,,,,,,,,,3,,,51,0
1006800,note_on,0,0,4,,,,,,,,,,,,,,,3,,,42,72
1006800,note_on,0,0,2,,,,,,,,,,,,,,,1,,,72,76
1006800,note_on,0,0,2,,,,,,,,,,,,,,,1,,,69,76
1006800,note_off,0,0,2,,,,,,,,,,,,,,,1,,,72,0
1006800,note_off,480,0,2,,,,,,,,,,,,,,,1,,,67,0
1007040,note_on,240,0,4,,,,,,,,,,,,,,,3,,,54,71
1007055,set_tempo,2640,1,0,,,,,,,298507,,,,,,,,,,,,
1007215,note_off,175,0,4,,,,,,,,,,,,,,,3,,,42,0
1007280,note_off,480,0,1,,,,,,,,,,,,,,,0,,,75,0
1007280,note_on,0,0,1,,,,,,,,,,,,,,,0,,,75,70
1007280,note_off,480,0,2,,,,,,,,,,,,,,,1,,,69,0
1007280,note_on,0,0,2,,,,,,,,,,,,,,,1,,,72,70
1007280,note_on,0,0,4,,,,,,,,,,,,,,,3,,,43,63
1007280,note_off,65,0,4,,,,,,,,,,,,,,,3,,,54,0
1007280,note_off,0,0,2,,,,,,,,,,,,,,,1,,,72,0
1007520,note_on,240,0,4,,,,,,,,,,,,,,,3,,,55,62
1007695,note_off,175,0,4,,,,,,,,,,,,,,,3,,,43,0
1007760,note_off,480,0,1,,,,,,,,,,,,,,,0,,,75,0
1007760,note_on,0,0,1,,,,,,,,,,,,,,,0,,,74,67
1007760,note_on,0,0,2,,,,,,,,,,,,,,,1,,,71,67
1007760,note_off,480,0,2,,,,,,,,,,,,,,,1,,,72,0
1007760,note_off,65,0,4,,,,,,,,,,,,,,,3,,,55,0
1007760,note_on,0,0,4,,,,,,,,,,,,,,,3,,,47,61
1008000,note_on,240,0,4,,,,,,,,,,,,,,,3,,,59,60
1008015,set_tempo,960,1,0,,,,,,,301507,,,,,,,,,,,,
1008175,note_off,175,0,4,,,,,,,,,,,,,,,3,,,47,0
1008240,note_on,0,0,1,,,,,,,,,,,,,,,0,,,76,65
1008240,note_off,480,0,2,,,,,,,,,,,,,,,1,,,71,0
1008240,note_on,0,0,2,,,,,,,,,,,,,,,1,,,66,65
1008240,note_on,0,0,2,,,,,,,,,,,,,,,1,,,69,65
1008240,note_off,480,0,1,,,,,,,,,,,,,,,0,,,74,0
1008240,note_on,0,0,4,,,,,,,,,,,,,,,3,,,50,59
1008240,note_off,65,0,4,,,,,,,,,,,,,,,3,,,59,0
1008255,set_tempo,240,1,0,,,,,,,297029,,,,,,,,,,,,
1008480,note_off,240,0,1,,,,,,,,,,,,,,,0,,,76,0
1008480,note_on,0,0,1,,,,,,,,,,,,,,,0,,,74,64
1008480,note_on,240,0,4,,,,,,,,,,,,,,,3,,,62,58
1008680,note_off,200,0,4,,,,,,,,,,,,,,,3,,,50,0
1008720,note_on,0,0,1,,,,,,,,,,,,,,,0,,,73,62
1008720,note_off,240,0,1,,,,,,,,,,,,,,,0,,,74,0
1008720,note_off,40,0,4,,,,,,,,,,,,,,,3,,,62,0
1008720,note_on,0,0,4,,,,,,,,,,,,,,,3,,,38,57
1008960,note_on,0,0,1,,,,,,,,,,,,,,,0,,,74,61
1008960,note_off,240,0,1,,,,,,,,,,,,,,,0,,,73,0
1008960,note_on,240,0,4,,,,,,,,,,,,,,,3,,,50,56
1009135,note_off,175,0,4,,,,,,,,,,,,,,,3,,,38,0
1009200,note_off,0,0,2,,,,,,,,,,,,,,,1,,,69,0
1009200,note_on,0,0,4,,,,,,,,,,,,,,,3,,,43,55
1009200,note_off,65,0,4,,,,,,,,,,,,,,,3,,,50,0
1009200,note_on,0,0,2,,,,,,,,,,,,,,,1,,,62,60
1009200,note_on,0,0,2,,,,,,,,,,,,,,,1,,,67,60
1009200,note_off,240,0,1,,,,,,,,,,,,,,,0,,,74,0
1009200,note_on,0,0,1,,,,,,,,,,,,,,,0,,,71,60
1009200,note_off,960,0,2,,,,,,,,,,,,,,,1,,,66,0
1009440,note_on,240,0,4,,,,,,,,,,,,,,,3,,,55,55
1009615,note_off,175,0,4,,,,,,,,,,,,,,,3,,,43,0
1009680,note_off,480,0,1,,,,,,,,,,,,,,,0,,,71,0
1009680,note_off,65,0,4,,,,,,,,,,,,,,,3,,,55,0
1009680,note_on,0,0,4,,,,,,,,,,,,,,,3,,,31,54
1009680,note_on,0,0,1,,,,,,,,,,,,,,,0,,,74,57
1009920,note_on,240,0,4,,,,,,,,,,,,,,,3,,,43,53
1010095,note_off,175,0,4,,,,,,,,,,,,,,,3,,,31,0
1010100,set_tempo,1845,1,0,,,,,,,298507,,,,,,,,,,,,
1010160,note_off,960,0,2,,,,,,,,,,,,,,,1,,,62,0
1010160,note_off,65,0,4,,,,,,,,,,,,,,,3,,,43,0
1010160,note_on,0,0,2,,,,,,,,,,,,,,,1,,,69,55
1010160,note_off,0,0,2,,,,,,,,,,,,,,,1,,,67,0
1010160,note_on,0,0,2,,,,,,,,,,,,,,,1,,,66,55
1010160,set_tempo,60,1,0,,,,,,,297029,,,,,,,,,,,,
1010160,note_off,480,0,1,,,,,,,,,,,,,,,0,,,74,0
1010160,note_on,0,0,1,,,,,,,,,,,,,,,0,,,76,55
1010160,note_on,0,0,4,,,,,,,,,,,,,,,3,,,38,52
1010400,note_on,240,0,4,,,,,,,,,,,,,,,3,,,50,51
1010400,note_off,240,0,1,,,,,,,,,,,,,,,0,,,76,0
1010400,note_on,0,0,1,,,,,,,,,,,,,,,0,,,74,54
1010575,note_off,175,0,4,,,,,,,,,,,,,,,3,,,38,0
1010640,note_off,65,0,4,,,,,,,,,,,,,,,3,,,50,0
1010640,note_on,0,0,4,,,,,,,,,,,,,,,3,,,38,50
1010640,note_off,240,0,1,,,,,,,,,,,,,,,0,,,74,0
1010640,note_on,0,0,1,,,,,,,,,,,,,,,0,,,73,53
1010880,note_off,240,0,1,,,,,,,,,,,,,,,0,,,73,0
1010880,note_on,240,0,4,,,,,,,,,,,,,,,3,,,50,49
1010880,note_on,0,0,1,,,,,,,,,,,,,,,0,,,74,51
1010910,set_tempo,750,1,0,,,,,,,298507,,,,,,,,,,,,
1011055,note_off,175,0,4,,,,,,,,,,,,,,,3,,,38,0
1011120,note_on,0,0,2,,,,,,,,,,,,,,,1,,,67,50
1011120,note_on,0,0,2,,,,,,,,,,,,,,,1,,,62,50
1011120,note_off,0,0,2,,,,,,,,,,,,,,,1,,,69,0
1011120,note_off,960,0,2,,,,,,,,,,,,,,,1,,,66,0
1011120,note_on,0,0,1,,,,,,,,,,,,,,,0,,,71,50
1011120,note_on,0,0,4,,,,,,,,,,,,,,,3,,,31,48
1011120,note_off,65,0,4,,,,,,,,,,,,,,,3,,,50,0
1011120,note_off,240,0,1,,,,,,,,,,,,,,,0,,,74,0
1011600,note_off,480,0,1,,,,,,,,,,,,,,,0,,,71,0
1011600,note_off,480,0,4,,,,,,,,,,,,,,,3,,,31,0
1011600,note_off,480,0,2,,,,,,,,,,,,,,,1,,,62,0
1011600,note_off,0,0,2,,,,,,,,,,,,,,,1,,,67,0
1011600,note_on,0,0,4,,,,,,,,,,,,,,,3,,,43,46
1011825,set_tempo,915,1,0,,,,,,,301507,,,,,,,,,,,,
1012000,note_on,400,0,4,,,,,,,,,,,,,,,3,,,51,47
1012080,note_off,80,0,4,,,,,,,,,,,,,,,3,,,43,0
1012080,note_on,0,0,4,,,,,,,,,,,,,,,3,,,50,51
1012080,note_off,0,0,4,,,,,,,,,,,,,,,3,,,51,0
1012095,set_tempo,270,1,0,,,,,,,297029,,,,,,,,,,,,
1012320,note_off,240,0,4,,,,,,,,,,,,,,,3,,,50,0
1012320,note_on,0,0,4,,,,,,,,,,,,,,,3,,,49,50
1012560,note_off,240,0,4,,,,,,,,,,,,,,,3,,,49,0
1012560,note_on,0,0,4,,,,,,,,,,,,,,,3,,,50,48
1012800,note_on,0,0,4,,,,,,,,,,,,,,,3,,,51,47
1012800,note_off,240,0,4,,,,,,,,,,,,,,,3,,,50,0
1013040,note_on,0,0,4,,,,,,,,,,,,,,,3,,,50,48
1013040,note_off,240,0,4,,,,,,,,,,,,,,,3,,,51,0
1013200,note_on,1600,0,1,,,,,,,,,,,,,,,0,,,82,46
1013360,note_off,160,0,1,,,,,,,,,,,,,,,0,,,82,0
1013360,note_on,0,0,1,,,,,,,,,,,,,,,0,,,84,46
1013520,note_on,0,0,4,,,,,,,,,,,,,,,3,,,38,49
1013520,note_off,160,0,1,,,,,,,,,,,,,,,0,,,84,0
1013520,note_on,0,0,1,,,,,,,,,,,,,,,0,,,86,46
1013520,note_off,480,0,4,,,,,,,,,,,,,,,3,,,50,0
1013680,note_on,0,0,1,,,,,,,,,,,,,,,0,,,84,46
1013680,note_off,160,0,1,,,,,,,,,,,,,,,0,,,86,0
1013840,note_on,0,0,1,,,,,,,,,,,,,,,0,,,82,47
1013840,note_off,160,0,1,,,,,,,,,,,,,,,0,,,84,0
1014000,note_on,0,0,1,,,,,,,,,,,,,,,0,,,84,47
1014000,note_off,160,0,1,,,,,,,,,,,,,,,0,,,82,0
1014000,note_on,480,0,4,,,,,,,,,,,,,,,3,,,40,50
1014160,note_off,160,0,1,,,,,,,,,,,,,,,0,,,84,0
1014160,note_on,0,0,1,,,,,,,,,,,,,,,0,,,81,47
1014320,note_off,160,0,1,,,,,,,,,,,,,,,0,,,81,0
1014320,note_on,0,0,1,,,,,,,,,,,,,,,0,,,82,47
1014480,note_off,160,0,1,,,,,,,,,,,,,,,0,,,82,0
1014480,note_on,0,0,1,,,,,,,,,,,,,,,0,,,84,47
1014480,note_on,0,0,4,,,,,,,,,,,,,,,3,,,42,51
1014480,note_off,480,0,4,,,,,,,,,,,,,,,3,,,40,0
1014640,note_off,160,0,1,,,,,,,,,,,,,,,0,,,84,0
1014640,note_on,0,0,1,,,,,,,,,,,,,,,0,,,82,47
1014800,note_off,160,0,1,,,,,,,,,,,,,,,0,,,82,0
1014800,note_on,0,0,1,,,,,,,,,,,,,,,0,,,81,47
1014960,note_off,160,0,1,,,,,,,,,,,,,,,0,,,81,0
1014960,note_on,0,0,4,,,,,,,,,,,,,,,3,,,43,53
1014960,note_off,480,0,4,,,,,,,,,,,,,,,3,,,42,0
1014960,note_on,0,0,1,,,,,,,,,,,,,,,0,,,82,48
1015120,note_on,0,0,1,,,,,,,,,,,,,,,0,,,79,48
1015120,note_off,160,0,1,,,,,,,,,,,,,,,0,,,82,0
1015280,note_off,160,0,1,,,,,,,,,,,,,,,0,,,79,0
1015280,note_on,0,0,1,,,,,,,,,,,,,,,0,,,81,48
1015440,note_off,160,0,1,,,,,,,,,,,,,,,0,,,81,0
1015440,note_on,0,0,1,,,,,,,,,,,,,,,0,,,82,48
1015600,note_off,160,0,1,,,,,,,,,,,,,,,0,,,82,0
1015600,note_on,0,0,1,,,,,,,,,,,,,,,0,,,81,48
1015760,note_off,160,0,1,,,,,,,,,,,,,,,0,,,81,0
1015760,note_on,0,0,1,,,,,,,,,,,,,,,0,,,79,48
1015920,note_on,0,0,4,,,,,,,,,,,,,,,3,,,46,55
1015920,note_on,0,0,1,,,,,,,,,,,,,,,0,,,78,49
1015920,note_off,160,0,1,,,,,,,,,,,,,,,0,,,79,0
1015920,note_off,960,0,4,,,,,,,,,,,,,,,3,,,43,0
1016080,note_off,160,0,1,,,,,,,,,,,,,,,0,,,78,0
1016080,note_on,0,0,1,,,,,,,,,,,,,,,0,,,75,49
1016160,note_off,240,0,4,,,,,,,,,,,,,,,3,,,46,0
1016160,note_on,0,0,4,,,,,,,,,,,,,,,3,,,45,56
1016240,note_off,160,0,1,,,,,,,,,,,,,,,0,,,75,0
1016240,note_on,0,0,1,,,,,,,,,,,,,,,0,,,74,49
1016400,note_on,0,0,1,,,,,,,,,,,,,,,0,,,72,49
1016400,note_on,0,0,4,,,,,,,,,,,,,,,3,,,43,57
1016400,note_off,160,0,1,,,,,,,,,,,,,,,0,,,74,0
1016400,note_off,240,0,4,,,,,,,,,,,,,,,3,,,45,0
1016560,note_off,160,0,1,,,,,,,,,,,,,,,0,,,72,0
1016560,note_on,0,0,1,,,,,,,,,,,,,,,0,,,70,49
1016625,set_tempo,4530,1,0,,,,,,,298507,,,,,,,,,,,,
1016640,note_on,0,0,4,,,,,,,,,,,,,,,3,,,45,57
1016640,note_off,240,0,4,,,,,,,,,,,,,,,3,,,43,0
1016720,note_off,160,0,1,,,,,,,,,,,,,,,0,,,70,0
1016720,note_on,0,0,1,,,,,,,,,,,,,,,0,,,69,49
1016880,note_off,160,0,1,,,,,,,,,,,,,,,0,,,69,0
1016880,note_on,0,0,1,,,,,,,,,,,,,,,0,,,67,49
1016880,note_off,240,0,4,,,,,,,,,,,,,,,3,,,45,0
1016880,note_on,0,0,4,,,,,,,,,,,,,,,3,,,46,58
1017040,note_off,160,0,1,,,,,,,,,,,,,,,0,,,67,0
1017040,note_on,0,0,1,,,,,,,,,,,,,,,0,,,74,46
1017200,note_on,0,0,1,,,,,,,,,,,,,,,0,,,73,46
1017200,note_off,160,0,1,,,,,,,,,,,,,,,0,,,74,0
1017360,note_off,160,0,1,,,,,,,,,,,,,,,0,,,73,0
1017360,note_on,0,0,4,,,,,,,,,,,,,,,3,,,43,59
1017360,note_off,480,0,4,,,,,,,,,,,,,,,3,,,46,0
1017360,note_on,0,0,1,,,,,,,,,,,,,,,0,,,74,46
1017520,note_on,0,0,1,,,,,,,,,,,,,,,0,,,70,47
1017520,note_off,160,0,1,,,,,,,,,,,,,,,0,,,74,0
1017680,note_off,160,0,1,,,,,,,,,,,,,,,0,,,70,0
1017680,note_on,0,0,1,,,,,,,,,,,,,,,0,,,69,47
1017840,note_on,0,0,4,,,,,,,,,,,,,,,3,,,38,60
1017840,note_on,0,0,4,,,,,,,,,,,,,,,3,,,49,60
1017840,note_off,0,0,4,,,,,,,,,,,,,,,3,,,43,0
1017840,note_off,480,0,4,,,,,,,,,,,,,,,3,,,38,0
1017840,note_on,0,0,1,,,,,,,,,,,,,,,0,,,67,47
1017840,note_off,160,0,1,,,,,,,,,,,,,,,0,,,69,0
1018000,note_on,0,0,1,,,,,,,,,,,,,,,0,,,76,48
1018000,note_off,160,0,1,,,,,,,,,,,,,,,0,,,67,0
1018160,note_on,0,0,1,,,,,,,,,,,,,,,0,,,75,48
1018160,note_off,160,0,1,,,,,,,,,,,,,,,0,,,76,0
1018320,note_off,160,0,1,,,,,,,,,,,,,,,0,,,75,0
1018320,note_on,0,0,4,,,,,,,,,,,,,,,3,,,45,62
1018320,note_on,0,0,1,,,,,,,,,,,,,,,0,,,76,48
1018320,note_off,480,0,4,,,,,,,,,,,,,,,3,,,49,0
1018480,note_off,160,0,1,,,,,,,,,,,,,,,0,,,76,0
1018480,note_on,0,0,1,,,,,,,,,,,,,,,0,,,72,48
1018575,set_tempo,1950,1,0,,,,,,,300000,,,,,,,,,,,,
1018640,note_off,160,0,1,,,,,,,,,,,,,,,0,,,72,0
1018640,note_on,0,0,1,,,,,,,,,,,,,,,0,,,67,49
1018800,note_on,0,0,4,,,,,,,,,,,,,,,3,,,38,63
1018800,note_off,160,0,1,,,,,,,,,,,,,,,0,,,67,0
1018800,note_on,0,0,1,,,,,,,,,,,,,,,0,,,66,47
1018800,note_off,480,0,4,,,,,,,,,,,,,,,3,,,38,0
1018800,note_off,0,0,4,,,,,,,,,,,,,,,3,,,45,0
1018800,note_on,0,0,4,,,,,,,,,,,,,,,3,,,50,63
1018960,note_off,160,0,1,,,,,,,,,,,,,,,0,,,66,0
1018960,note_on,0,0,1,,,,,,,,,,,,,,,0,,,74,46
1019120,note_off,160,0,1,,,,,,,,,,,,,,,0,,,74,0
1019120,note_on,0,0,1,,,,,,,,,,,,,,,0,,,73,45
1019280,control_change,160,0,1,,,,,,,,,,,,,64,0,0,,,,
1019280,note_off,0,0,1,,,,,,,,,,,,,,,0,,,73,0
1019280,note_on,0,0,1,,,,,,,,,,,,,,,0,,,74,44
1019320,control_change,40,0,1,,,,,,,,,,,,,64,127,0,,,,
1019440,note_off,120,0,1,,,,,,,,,,,,,,,0,,,74,0
1019440,note_on,0,0,1,,,,,,,,,,,,,,,0,,,69,43
1019505,set_tempo,930,1,0,,,,,,,301507,,,,,,,,,,,,
1019600,note_off,160,0,1,,,,,,,,,,,,,,,0,,,69,0
1019600,note_on,0,0,1,,,,,,,,,,,,,,,0,,,66,42
1019680,note_on,880,0,4,,,,,,,,,,,,,,,3,,,51,54
1019760,note_on,0,0,4,,,,,,,,,,,,,,,3,,,50,59
1019760,note_off,0,0,4,,,,,,,,,,,,,,,3,,,51,0
1019760,note_off,0,0,4,,,,,,,,,,,,,,,3,,,38,0
1019760,note_off,80,0,4,,,,,,,,,,,,,,,3,,,50,0
1019760,note_on,0,0,1,,,,,,,,,,,,,,,0,,,62,41
1019760,note_off,160,0,1,,,,,,,,,,,,,,,0,,,66,0
1019775,set_tempo,270,1,0,,,,,,,297029,,,,,,,,,,,,
1020000,note_on,0,0,4,,,,,,,,,,,,,,,3,,,49,59
1020000,note_off,240,0,4,,,,,,,,,,,,,,,3,,,50,0
1020240,note_off,240,0,4,,,,,,,,,,,,,,,3,,,49,0
1020240,note_on,0,0,4,,,,,,,,,,,,,,,3,,,50,58
1020240,note_off,480,0,1,,,,,,,,,,,,,,,0,,,62,0
1020480,note_off,240,0,4,,,,,,,,,,,,,,,3,,,50,0
1020480,note_on,0,0,4,,,,,,,,,,,,,,,3,,,51,57
1020720,control_change,480,0,1,,,,,,,,,,,,,64,0,0,,,,
1020720,note_off,240,0,4,,,,,,,,,,,,,,,3,,,51,0
1020720,note_on,0,0,4,,,,,,,,,,,,,,,3,,,50,56
1021200,note_off,480,0,4,,,,,,,,,,,,,,,3,,,50,0
1021200,note_on,0,0,4,,,,,,,,,,,,,,,3,,,38,56
1021620,set_tempo,1845,1,0,,,,,,,298507,,,,,,,,,,,,
1021680,note_on,480,0,4,,,,,,,,,,,,,,,3,,,40,57
1021680,note_on,960,0,1,,,,,,,,,,,,,,,0,,,62,54
1021680,set_tempo,60,1,0,,,,,,,297029,,,,,,,,,,,,
1021920,note_on,0,0,1,,,,,,,,,,,,,,,0,,,61,54
1021920,note_off,240,0,1,,,,,,,,,,,,,,,0,,,62,0
1022160,note_off,480,0,4,,,,,,,,,,,,,,,3,,,40,0
1022160,note_off,240,0,1,,,,,,,,,,,,,,,0,,,61,0
1022160,note_on,0,0,1,,,,,,,,,,,,,,,0,,,62,55
1022160,note_on,0,0,4,,,,,,,,,,,,,,,3,,,42,58
1022400,note_on,0,0,1,,,,,,,,,,,,,,,0,,,63,55
1022400,note_off,240,0,1,,,,,,,,,,,,,,,0,,,62,0
1022640,note_on,0,0,1,,,,,,,,,,,,,,,0,,,62,55
1022640,note_off,240,0,1,,,,,,,,,,,,,,,0,,,63,0
1022640,note_off,480,0,4,,,,,,,,,,,,,,,3,,,42,0
1022640,note_on,0,0,4,,,,,,,,,,,,,,,3,,,43,59
1023120,note_on,0,0,1,,,,,,,,,,,,,,,0,,,50,56
1023120,note_off,480,0,1,,,,,,,,,,,,,,,0,,,62,0
1023540,set_tempo,1860,1,0,,,,,,,298507,,,,,,,,,,,,
1023600,set_tempo,60,1,0,,,,,,,297029,,,,,,,,,,,,
1023600,note_on,0,0,1,,,,,,,,,,,,,,,0,,,52,57
1023600,note_off,480,0,1,,,,,,,,,,,,,,,0,,,50,0
1023600,note_off,960,0,4,,,,,,,,,,,,,,,3,,,43,0
1023600,note_on,0,0,4,,,,,,,,,,,,,,,3,,,46,62
1023840,note_on,0,0,4,,,,,,,,,,,,,,,3,,,45,63
1023840,note_off,240,0,4,,,,,,,,,,,,,,,3,,,46,0
1024080,note_off,480,0,1,,,,,,,,,,,,,,,0,,,52,0
1024080,note_on,0,0,4,,,,,,,,,,,,,,,3,,,43,64
1024080,note_on,0,0,1,,,,,,,,,,,,,,,0,,,54,57
1024080,note_off,240,0,4,,,,,,,,,,,,,,,3,,,45,0
1024320,note_on,0,0,4,,,,,,,,,,,,,,,3,,,45,65
1024320,note_off,240,0,4,,,,,,,,,,,,,,,3,,,43,0
1024560,note_off,480,0,1,,,,,,,,,,,,,,,0,,,54,0
1024560,note_on,0,0,4,,,,,,,,,,,,,,,3,,,46,65
1024560,note_on,0,0,1,,,,,,,,,,,,,,,0,,,55,58
1024560,note_off,240,0,4,,,,,,,,,,,,,,,3,,,45,0
1025040,note_off,480,0,4,,,,,,,,,,,,,,,3,,,46,0
1025040,note_on,0,0,4,,,,,,,,,,,,,,,3,,,43,64
1025460,set_tempo,1860,1,0,,,,,,,298507,,,,,,,,,,,,
1025520,note_off,960,0,1,,,,,,,,,,,,,,,0,,,55,0
1025520,note_on,0,0,1,,,,,,,,,,,,,,,0,,,58,59
1025520,set_tempo,60,1,0,,,,,,,297029,,,,,,,,,,,,
1025520,note_on,0,0,4,,,,,,,,,,,,,,,3,,,48,65
1025520,note_off,480,0,4,,,,,,,,,,,,,,,3,,,43,0
1025760,note_on,0,0,1,,,,,,,,,,,,,,,0,,,57,60
1025760,note_off,240,0,1,,,,,,,,,,,,,,,0,,,58,0
1026000,note_off,240,0,1,,,,,,,,,,,,,,,0,,,57,0
1026000,note_on,0,0,4,,,,,,,,,,,,,,,3,,,45,66
1026000,note_off,480,0,4,,,,,,,,,,,,,,,3,,,48,0
1026000,note_on,0,0,1,,,,,,,,,,,,,,,0,,,55,60
1026240,note_on,0,0,1,,,,,,,,,,,,,,,0,,,57,60
1026240,note_off,240,0,1,,,,,,,,,,,,,,,0,,,55,0
1026480,note_off,480,0,4,,,,,,,,,,,,,,,3,,,38,0
1026480,note_off,0,0,4,,,,,,,,,,,,,,,3,,,45,0
1026480,note_on,0,0,4,,,,,,,,,,,,,,,3,,,50,67
1026480,note_off,240,0,1,,,,,,,,,,,,,,,0,,,57,0
1026480,note_on,0,0,1,,,,,,,,,,,,,,,0,,,59,61
1026960,note_on,0,0,1,,,,,,,,,,,,,,,0,,,55,58
1026960,note_on,0,0,4,,,,,,,,,,,,,,,3,,,47,68
1026960,note_off,480,0,4,,,,,,,,,,,,,,,3,,,50,0
1026960,note_off,480,0,1,,,,,,,,,,,,,,,0,,,59,0
1027380,set_tempo,1860,1,0,,,,,,,298507,,,,,,,,,,,,
1027440,note_on,0,0,4,,,,,,,,,,,,,,,3,,,51,69
1027440,note_off,480,0,4,,,,,,,,,,,,,,,3,,,47,0
1027440,note_off,480,0,1,,,,,,,,,,,,,,,0,,,55,0
1027440,note_on,0,0,1,,,,,,,,,,,,,,,0,,,79,62
1027440,note_on,0,0,4,,,,,,,,,,,,,,,3,,,60,69
1027440,set_tempo,60,1,0,,,,,,,297029,,,,,,,,,,,,
1027680,note_on,0,0,1,,,,,,,,,,,,,,,0,,,78,62
1027680,note_off,240,0,1,,,,,,,,,,,,,,,0,,,79,0
1027920,note_on,0,0,1,,,,,,,,,,,,,,,0,,,79,63
1027920,note_on,0,0,4,,,,,,,,,,,,,,,3,,,48,70
1027920,note_on,0,0,4,,,,,,,,,,,,,,,3,,,57,70
1027920,note_off,240,0,1,,,,,,,,,,,,,,,0,,,78,0
1027920,note_off,0,0,4,,,,,,,,,,,,,,,3,,,60,0
1027920,note_off,480,0,4,,,,,,,,,,,,,,,3,,,51,0
1028160,note_off,240,0,1,,,,,,,,,,,,,,,0,,,79,0
1028160,note_on,0,0,1,,,,,,,,,,,,,,,0,,,80,63
1028400,note_on,0,0,4,,,,,,,,,,,,,,,3,,,53,71
1028400,note_off,0,0,4,,,,,,,,,,,,,,,3,,,48,0
1028400,note_off,480,0,4,,,,,,,,,,,,,,,3,,,57,0
1028400,note_off,240,0,1,,,,,,,,,,,,,,,0,,,80,0
1028400,note_on,0,0,4,,,,,,,,,,,,,,,3,,,62,71
1028400,note_on,0,0,1,,,,,,,,,,,,,,,0,,,79,63
1028880,note_off,480,0,1,,,,,,,,,,,,,,,0,,,79,0
1028880,note_on,0,0,1,,,,,,,,,,,,,,,0,,,67,64
1029300,set_tempo,1860,1,0,,,,,,,298507,,,,,,,,,,,,
1029360,note_on,0,0,1,,,,,,,,,,,,,,,0,,,69,65
1029360,note_on,0,0,4,,,,,,,,,,,,,,,3,,,43,64
1029360,note_off,0,0,4,,,,,,,,,,,,,,,3,,,62,0
1029360,note_off,480,0,1,,,,,,,,,,,,,,,0,,,67,0
1029360,note_off,960,0,4,,,,,,,,,,,,,,,3,,,53,0
1029360,note_on,0,0,2,,,,,,,,,,,,,,,1,,,62,65
1029360,set_tempo,60,1,0,,,,,,,297029,,,,,,,,,,,,
1029360,note_on,17760,0,2,,,,,,,,,,,,,,,1,,,65,65
1029600,note_on,0,0,4,,,,,,,,,,,,,,,3,,,42,65
1029600,note_off,240,0,4,,,,,,,,,,,,,,,3,,,43,0
1029840,note_off,480,0,1,,,,,,,,,,,,,,,0,,,69,0
1029840,note_on,0,0,1,,,,,,,,,,,,,,,0,,,71,65
1029840,note_off,240,0,4,,,,,,,,,,,,,,,3,,,42,0
1029840,note_on,0,0,4,,,,,,,,,,,,,,,3,,,43,65
1030080,note_off,240,0,4,,,,,,,,,,,,,,,3,,,43,0
1030080,note_on,0,0,4,,,,,,,,,,,,,,,3,,,44,66
1030320,note_off,960,0,2,,,,,,,,,,,,,,,1,,,65,0
1030320,note_off,0,0,2,,,,,,,,,,,,,,,1,,,62,0
1030320,note_on,0,0,2,,,,,,,,,,,,,,,1,,,60,66
1030320,note_on,0,0,2,,,,,,,,,,,,,,,1,,,63,66
1030320,note_off,240,0,4,,,,,,,,,,,,,,,3,,,44,0
1030320,note_on,0,0,4,,,,,,,,,,,,,,,3,,,43,66
1030320,note_off,480,0,1,,,,,,,,,,,,,,,0,,,71,0
1030320,note_on,0,0,1,,,,,,,,,,,,,,,0,,,72,66
1030800,note_off,480,0,4,,,,,,,,,,,,,,,3,,,43,0
1030800,note_on,0,0,4,,,,,,,,,,,,,,,3,,,31,67
1031220,set_tempo,1860,1,0,,,,,,,298507,,,,,,,,,,,,
1031280,note_off,960,0,1,,,,,,,,,,,,,,,0,,,72,0
1031280,note_on,0,0,1,,,,,,,,,,,,,,,0,,,75,67
1031280,set_tempo,60,1,0,,,,,,,297029,,,,,,,,,,,,
1031280,note_off,960,0,2,,,,,,,,,,,,,,,1,,,60,0
1031280,note_off,0,0,2,,,,,,,,,,,,,,,1,,,63,0
1031280,note_on,0,0,2,,,,,,,,,,,,,,,1,,,65,67
1031280,note_on,0,0,4,,,,,,,,,,,,,,,3,,,33,70
1031280,note_off,480,0,4,,,,,,,,,,,,,,,3,,,31,0
1031520,note_on,0,0,1,,,,,,,,,,,,,,,0,,,74,68
1031520,note_off,240,0,1,,,,,,,,,,,,,,,0,,,75,0
1031760,note_on,0,0,1,,,,,,,,,,,,,,,0,,,72,68
1031760,note_off,240,0,1,,,,,,,,,,,,,,,0,,,74,0
1031760,note_on,0,0,4,,,,,,,,,,,,,,,3,,,35,70
1031760,note_off,480,0,4,,,,,,,,,,,,,,,3,,,33,0
1032000,note_on,0,0,1,,,,,,,,,,,,,,,0,,,74,68
1032000,note_off,240,0,1,,,,,,,,,,,,,,,0,,,72,0
1032240,note_on,0,0,1,,,,,,,,,,,,,,,0,,,75,83
1032240,note_off,240,0,1,,,,,,,,,,,,,,,0,,,74,0
1032240,note_off,960,0,2,,,,,,,,,,,,,,,1,,,65,0
1032240,note_off,480,0,4,,,,,,,,,,,,,,,3,,,35,0
1032240,note_on,0,0,2,,,,,,,,,,,,,,,1,,,63,76
1032240,note_on,0,0,4,,,,,,,,,,,,,,,3,,,36,83
1032720,note_off,480,0,1,,,,,,,,,,,,,,,0,,,75,0
1032720,note_on,0,0,1,,,,,,,,,,,,,,,0,,,72,69
1033140,set_tempo,1860,1,0,,,,,,,298507,,,,,,,,,,,,
1033200,note_on,0,0,4,,,,,,,,,,,,,,,3,,,39,70
1033200,set_tempo,60,1,0,,,,,,,297029,,,,,,,,,,,,
1033200,note_off,960,0,2,,,,,,,,,,,,,,,1,,,63,0
1033200,note_off,960,0,4,,,,,,,,,,,,,,,3,,,36,0
1033200,note_on,0,0,2,,,,,,,,,,,,,,,1,,,65,70
1033200,note_off,480,0,1,,,,,,,,,,,,,,,0,,,72,0
1033200,note_on,0,0,1,,,,,,,,,,,,,,,0,,,77,70
1033440,note_off,240,0,4,,,,,,,,,,,,,,,3,,,39,0
1033440,note_on,0,0,4,,,,,,,,,,,,,,,3,,,38,71
1033680,note_off,480,0,1,,,,,,,,,,,,,,,0,,,77,0
1033680,note_on,0,0,1,,,,,,,,,,,,,,,0,,,74,71
1033680,note_on,0,0,4,,,,,,,,,,,,,,,3,,,36,72
1033680,note_off,240,0,4,,,,,,,,,,,,,,,3,,,38,0
1033920,note_on,0,0,4,,,,,,,,,,,,,,,3,,,38,72
1033920,note_off,240,0,4,,,,,,,,,,,,,,,3,,,36,0
1034160,note_off,960,0,2,,,,,,,,,,,,,,,1,,,65,0
1034160,note_on,0,0,2,,,,,,,,,,,,,,,1,,,67,71
1034160,note_on,0,0,4,,,,,,,,,,,,,,,3,,,39,73
1034160,note_off,480,0,1,,,,,,,,,,,,,,,0,,,74,0
1034160,note_on,0,0,1,,,,,,,,,,,,,,,0,,,79,71
1034160,note_off,240,0,4,,,,,,,,,,,,,,,3,,,38,0
1034472,note_off,312,0,4,,,,,,,,,,,,,,,3,,,39,0
1034640,note_on,168,0,4,,,,,,,,,,,,,,,3,,,36,74
1034952,note_off,312,0,4,,,,,,,,,,,,,,,3,,,36,0
1035060,set_tempo,1860,1,0,,,,,,,298507,,,,,,,,,,,,
1035120,note_on,168,0,4,,,,,,,,,,,,,,,3,,,41,76
1035120,set_tempo,60,1,0,,,,,,,297029,,,,,,,,,,,,
1035120,note_on,0,0,2,,,,,,,,,,,,,,,1,,,68,73
1035120,note_off,960,0,2,,,,,,,,,,,,,,,1,,,67,0
1035120,note_on,0,0,1,,,,,,,,,,,,,,,0,,,82,73
1035120,note_off,960,0,1,,,,,,,,,,,,,,,0,,,79,0
1035360,note_off,240,0,1,,,,,,,,,,,,,,,0,,,82,0
1035360,note_on,0,0,1,,,,,,,,,,,,,,,0,,,80,73
1035432,note_off,312,0,4,,,,,,,,,,,,,,,3,,,41,0
1035600,note_on,0,0,1,,,,,,,,,,,,,,,0,,,79,73
1035600,note_off,240,0,1,,,,,,,,,,,,,,,0,,,80,0
1035600,note_on,168,0,4,,,,,,,,,,,,,,,3,,,38,77
1035840,note_off,240,0,1,,,,,,,,,,,,,,,0,,,79,0
1035840,note_on,0,0,1,,,,,,,,,,,,,,,0,,,80,74
1035912,note_off,312,0,4,,,,,,,,,,,,,,,3,,,38,0
1036080,note_on,168,0,4,,,,,,,,,,,,,,,3,,,43,85
1036080,note_off,960,0,2,,,,,,,,,,,,,,,1,,,68,0
1036080,note_on,0,0,1,,,,,,,,,,,,,,,0,,,82,82
1036080,note_on,0,0,2,,,,,,,,,,,,,,,1,,,70,82
1036080,note_off,240,0,1,,,,,,,,,,,,,,,0,,,80,0
1036560,note_off,480,0,1,,,,,,,,,,,,,,,0,,,82,0
1036560,note_on,0,0,1,,,,,,,,,,,,,,,0,,,79,76
1036980,set_tempo,1860,1,0,,,,,,,298507,,,,,,,,,,,,
1037040,note_off,480,0,1,,,,,,,,,,,,,,,0,,,79,0
1037040,note_on,0,0,4,,,,,,,,,,,,,,,3,,,46,77
1037040,note_off,960,0,4,,,,,,,,,,,,,,,3,,,43,0
1037040,note_on,0,0,1,,,,,,,,,,,,,,,0,,,84,77
1037040,note_on,0,0,2,,,,,,,,,,,,,,,1,,,72,77
1037040,note_off,960,0,2,,,,,,,,,,,,,,,1,,,70,0
1037280,note_on,0,0,4,,,,,,,,,,,,,,,3,,,44,78
1037280,note_off,240,0,4,,,,,,,,,,,,,,,3,,,46,0
1037520,note_on,0,0,4,,,,,,,,,,,,,,,3,,,43,79
1037520,note_off,240,0,4,,,,,,,,,,,,,,,3,,,44,0
1037520,note_off,480,0,1,,,,,,,,,,,,,,,0,,,84,0
1037520,note_on,0,0,1,,,,,,,,,,,,,,,0,,,80,78
1037760,note_off,240,0,4,,,,,,,,,,,,,,,3,,,43,0
1037760,note_on,0,0,4,,,,,,,,,,,,,,,3,,,44,80
1038000,note_on,0,0,4,,,,,,,,,,,,,,,3,,,46,81
1038000,note_on,0,0,1,,,,,,,,,,,,,,,0,,,86,78
1038000,note_off,960,0,2,,,,,,,,,,,,,,,1,,,72,0
1038000,note_off,240,0,4,,,,,,,,,,,,,,,3,,,44,0
1038000,note_off,480,0,1,,,,,,,,,,,,,,,0,,,80,0
1038000,note_on,0,0,2,,,,,,,,,,,,,,,1,,,74,79
1038312,note_off,312,0,4,,,,,,,,,,,,,,,3,,,46,0
1038480,note_on,168,0,4,,,,,,,,,,,,,,,3,,,43,83
1038480,note_on,0,0,2,,,,,,,,,,,,,,,1,,,70,80
1038480,note_off,480,0,2,,,,,,,,,,,,,,,1,,,74,0
1038480,note_off,480,0,1,,,,,,,,,,,,,,,0,,,86,0
1038480,note_on,0,0,1,,,,,,,,,,,,,,,0,,,82,81
1038792,note_off,312,0,4,,,,,,,,,,,,,,,3,,,43,0
1038960,note_on,168,0,4,,,,,,,,,,,,,,,3,,,48,85
1038960,note_on,0,0,2,,,,,,,,,,,,,,,1,,,75,82
1038960,note_off,480,0,2,,,,,,,,,,,,,,,1,,,70,0
1038960,note_on,0,0,1,,,,,,,,,,,,,,,0,,,87,84
1038960,note_off,480,0,1,,,,,,,,,,,,,,,0,,,82,0
1039272,note_off,312,0,4,,,,,,,,,,,,,,,3,,,48,0
1039335,set_tempo,2355,1,0,,,,,,,304568,,,,,,,,,,,,
1039440,note_off,480,0,1,,,,,,,,,,,,,,,0,,,87,0
1039440,note_on,168,0,4,,,,,,,,,,,,,,,3,,,45,86
1039440,note_on,0,0,1,,,,,,,,,,,,,,,0,,,78,87
1039440,note_on,0,0,2,,,,,,,,,,,,,,,1,,,75,83
1039440,note_off,480,0,2,,,,,,,,,,,,,,,1,,,75,0
1039752,note_off,312,0,4,,,,,,,,,,,,,,,3,,,45,0
1039920,note_on,0,0,2,,,,,,,,,,,,,,,1,,,75,89
1039920,note_off,480,0,1,,,,,,,,,,,,,,,0,,,78,0
1039920,note_on,0,0,1,,,,,,,,,,,,,,,0,,,79,92
1039920,note_off,480,0,2,,,,,,,,,,,,,,,1,,,75,0
1039920,note_on,168,0,4,,,,,,,,,,,,,,,3,,,46,93
1040400,note_off,480,0,2,,,,,,,,,,,,,,,1,,,75,0
1040400,note_on,0,0,2,,,,,,,,,,,,,,,1,,,70,72
1040880,note_on,0,0,4,,,,,,,,,,,,,,,3,,,34,65
1040880,note_on,0,0,1,,,,,,,,,,,,,,,0,,,74,69
1040880,note_off,960,0,4,,,,,,,,,,,,,,,3,,,46,0
1040880,note_off,960,0,1,,,,,,,,,,,,,,,0,,,79,0
1041360,note_on,0,0,2,,,,,,,,,,,,,,,1,,,68,58
1041360,note_off,960,0,2,,,,,,,,,,,,,,,1,,,70,0
1041600,set_tempo,2265,1,0,,,,,,,304568,,,,,,,,,,,,
1041840,note_off,960,0,1,,,,,,,,,,,,,,,0,,,74,0
1041840,note_on,0,0,1,,,,,,,,,,,,,,,0,,,75,51
1041840,note_on,0,0,4,,,,,,,,,,,,,,,3,,,39,42
1041840,note_on,0,0,2,,,,,,,,,,,,,,,1,,,67,51
1041840,note_off,480,0,2,,,,,,,,,,,,,,,1,,,68,0
1041840,note_off,960,0,4,,,,,,,,,,,,,,,3,,,34,0
1041840,control_change,57600,0,3,,,,,,,,,,,,,64,0,2,,,,
1041855,set_tempo,255,1,0,,,,,,,297029,,,,,,,,,,,,
1041900,control_change,60,0,3,,,,,,,,,,,,,64,127,2,,,,
1042000,note_on,100,0,3,,,,,,,,,,,,,,,2,,,50,38
1042160,note_off,160,0,3,,,,,,,,,,,,,,,2,,,50,0
1042160,note_on,0,0,3,,,,,,,,,,,,,,,2,,,51,38
1042320,note_off,480,0,4,,,,,,,,,,,,,,,3,,,39,0
1042320,note_on,0,0,4,,,,,,,,,,,,,,,3,,,41,42
1042320,note_off,480,0,1,,,,,,,,,,,,,,,0,,,75,0
1042320,control_change,160,0,3,,,,,,,,,,,,,64,0,2,,,,
1042320,note_off,480,0,2,,,,,,,,,,,,,,,1,,,67,0
1042320,note_off,0,0,3,,,,,,,,,,,,,,,2,,,51,0
1042380,control_change,60,0,3,,,,,,,,,,,,,64,127,2,,,,
1042480,note_on,100,0,3,,,,,,,,,,,,,,,2,,,51,38
1042640,note_on,0,0,3,,,,,,,,,,,,,,,2,,,53,38
1042640,note_off,160,0,3,,,,,,,,,,,,,,,2,,,51,0
1042740,set_tempo,885,1,0,,,,,,,298507,,,,,,,,,,,,
1042800,note_on,480,0,1,,,,,,,,,,,,,,,0,,,87,64
1042800,set_tempo,60,1,0,,,,,,,297029,,,,,,,,,,,,
1042800,note_off,0,0,3,,,,,,,,,,,,,,,2,,,53,0
1042800,note_on,0,0,4,,,,,,,,,,,,,,,3,,,43,55
1042800,note_off,480,0,4,,,,,,,,,,,,,,,3,,,41,0
1042800,control_change,160,0,3,,,,,,,,,,,,,64,0,2,,,,
1042800,note_on,480,0,2,,,,,,,,,,,,,,,1,,,75,64
1042860,control_change,60,0,3,,,,,,,,,,,,,64,127,2,,,,
1042960,note_on,100,0,3,,,,,,,,,,,,,,,2,,,51,39
1043120,note_on,0,0,3,,,,,,,,,,,,,,,2,,,55,39
1043120,note_off,160,0,3,,,,,,,,,,,,,,,2,,,51,0
1043280,note_off,480,0,4,,,,,,,,,,,,,,,3,,,43,0
1043280,note_on,0,0,4,,,,,,,,,,,,,,,3,,,39,43
1043280,control_change,160,0,3,,,,,,,,,,,,,64,0,2,,,,
1043280,note_off,0,0,3,,,,,,,,,,,,,,,2,,,55,0
1043340,control_change,60,0,3,,,,,,,,,,,,,64,127,2,,,,
1043440,note_on,100,0,3,,,,,,,,,,,,,,,2,,,50,39
1043600,note_on,0,0,3,,,,,,,,,,,,,,,2,,,51,39
1043600,note_off,160,0,3,,,,,,,,,,,,,,,2,,,50,0
1043760,note_off,480,0,4,,,,,,,,,,,,,,,3,,,39,0
1043760,note_on,0,0,4,,,,,,,,,,,,,,,3,,,41,44
1043760,note_off,0,0,3,,,,,,,,,,,,,,,2,,,51,0
1043760,control_change,160,0,3,,,,,,,,,,,,,64,0,2,,,,
1043820,control_change,60,0,3,,,,,,,,,,,,,64,127,2,,,,
1043920,note_on,100,0,3,,,,,,,,,,,,,,,2,,,51,39
1044080,note_off,160,0,3,,,,,,,,,,,,,,,2,,,51,0
1044080,note_on,0,0,3,,,,,,,,,,,,,,,2,,,53,40
1044240,note_off,1440,0,1,,,,,,,,,,,,,,,0,,,87,0
1044240,note_off,480,0,4,,,,,,,,,,,,,,,3,,,41,0
1044240,note_on,0,0,4,,,,,,,,,,,,,,,3,,,43,44
1044240,note_off,1440,0,2,,,,,,,,,,,,,,,1,,,75,0
1044240,control_change,160,0,3,,,,,,,,,,,,,64,0,2,,,,
1044240,note_off,0,0,3,,,,,,,,,,,,,,,2,,,53,0
1044300,control_change,60,0,3,,,,,,,,,,,,,64,127,2,,,,
1044400,note_on,100,0,3,,,,,,,,,,,,,,,2,,,51,40
1044560,note_off,160,0,3,,,,,,,,,,,,,,,2,,,51,0
1044560,note_on,0,0,3,,,,,,,,,,,,,,,2,,,55,40
1044660,set_tempo,1860,1,0,,,,,,,298507,,,,,,,,,,,,
1044720,note_off,480,0,4,,,,,,,,,,,,,,,3,,,43,0
1044720,note_on,0,0,4,,,,,,,,,,,,,,,3,,,44,58
1044720,set_tempo,60,1,0,,,,,,,297029,,,,,,,,,,,,
1044720,note_on,480,0,2,,,,,,,,,,,,,,,1,,,63,67
1044720,note_on,480,0,1,,,,,,,,,,,,,,,0,,,75,67
1044720,note_off,0,0,3,,,,,,,,,,,,,,,2,,,55,0
1044720,control_change,160,0,3,,,,,,,,,,,,,64,0,2,,,,
1044780,control_change,60,0,3,,,,,,,,,,,,,64,127,2,,,,
1044880,note_on,100,0,3,,,,,,,,,,,,,,,2,,,51,40
1045040,note_off,160,0,3,,,,,,,,,,,,,,,2,,,51,0
1045040,note_on,0,0,3,,,,,,,,,,,,,,,2,,,56,40
1045200,note_off,0,0,3,,,,,,,,,,,,,,,2,,,56,0
1045200,note_off,480,0,4,,,,,,,,,,,,,,,3,,,44,0
1045200,note_on,0,0,4,,,,,,,,,,,,,,,3,,,41,45
1045200,control_change,160,0,3,,,,,,,,,,,,,64,0,2,,,,
1045260,control_change,60,0,3,,,,,,,,,,,,,64,127,2,,,,
1045360,note_on,100,0,3,,,,,,,,,,,,,,,2,,,51,41
1045520,note_off,160,0,3,,,,,,,,,,,,,,,2,,,51,0
1045520,note_on,0,0,3,,,,,,,,,,,,,,,2,,,53,41
1045680,note_off,0,0,3,,,,,,,,,,,,,,,2,,,53,0
1045680,control_change,160,0,3,,,,,,,,,,,,,64,0,2,,,,
1045680,note_off,480,0,4,,,,,,,,,,,,,,,3,,,41,0
1045680,note_on,0,0,4,,,,,,,,,,,,,,,3,,,43,45
1045740,control_change,60,0,3,,,,,,,,,,,,,64,127,2,,,,
1045840,note_on,100,0,3,,,,,,,,,,,,,,,2,,,51,41
1046000,note_on,0,0,3,,,,,,,,,,,,,,,2,,,55,41
1046000,note_off,160,0,3,,,,,,,,,,,,,,,2,,,51,0
1046160,note_on,0,0,4,,,,,,,,,,,,,,,3,,,44,46
1046160,note_off,480,0,4,,,,,,,,,,,,,,,3,,,43,0
1046160,control_change,160,0,3,,,,,,,,,,,,,64,0,2,,,,
1046160,note_off,0,0,3,,,,,,,,,,,,,,,2,,,55,0
1046160,note_off,1440,0,2,,,,,,,,,,,,,,,1,,,63,0
1046160,note_off,1440,0,1,,,,,,,,,,,,,,,0,,,75,0
1046220,control_change,60,0,3,,,,,,,,,,,,,64,127,2,,,,
1046320,note_on,100,0,3,,,,,,,,,,,,,,,2,,,51,41
1046480,note_off,160,0,3,,,,,,,,,,,,,,,2,,,51,0
1046480,note_on,0,0,3,,,,,,,,,,,,,,,2,,,56,41
1046550,set_tempo,1830,1,0,,,,,,,298507,,,,,,,,,,,,
1046640,control_change,160,0,3,,,,,,,,,,,,,64,0,2,,,,
1046640,note_off,0,0,3,,,,,,,,,,,,,,,2,,,56,0
1046640,note_on,480,0,1,,,,,,,,,,,,,,,0,,,75,62
1046640,note_off,480,0,4,,,,,,,,,,,,,,,3,,,44,0
1046640,note_on,0,0,4,,,,,,,,,,,,,,,3,,,46,60
1046640,note_on,480,0,2,,,,,,,,,,,,,,,1,,,63,62
1046640,note_on,0,0,2,,,,,,,,,,,,,,,1,,,73,62
1046700,control_change,60,0,3,,,,,,,,,,,,,64,127,2,,,,
1046800,note_on,100,0,3,,,,,,,,,,,,,,,2,,,51,42
1046960,note_on,0,0,3,,,,,,,,,,,,,,,2,,,58,42
1046960,note_off,160,0,3,,,,,,,,,,,,,,,2,,,51,0
1047120,note_off,480,0,4,,,,,,,,,,,,,,,3,,,46,0
1047120,note_on,0,0,4,,,,,,,,,,,,,,,3,,,43,47
1047120,control_change,160,0,3,,,,,,,,,,,,,64,0,2,,,,
1047120,note_off,0,0,3,,,,,,,,,,,,,,,2,,,58,0
1047120,control_change,0,0,3,,,,,,,,,,,,,64,0,2,,,,
1047120,note_on,480,0,2,,,,,,,,,,,,,,,1,,,71,59
1047180,control_change,60,0,3,,,,,,,,,,,,,64,127,2,,,,
1047180,control_change,0,0,3,,,,,,,,,,,,,64,127,2,,,,
1047280,note_on,100,0,3,,,,,,,,,,,,,,,2,,,51,42
1047440,note_on,0,0,3,,,,,,,,,,,,,,,2,,,55,42
1047440,note_off,160,0,3,,,,,,,,,,,,,,,2,,,51,0
1047600,note_off,0,0,3,,,,,,,,,,,,,,,2,,,55,0
1047600,control_change,160,0,3,,,,,,,,,,,,,64,0,2,,,,
1047600,note_on,0,0,2,,,,,,,,,,,,,,,1,,,72,54
1047600,note_on,0,0,4,,,,,,,,,,,,,,,3,,,44,47
1047600,note_off,480,0,4,,,,,,,,,,,,,,,3,,,43,0
1047600,note_off,480,0,2,,,,,,,,,,,,,,,1,,,73,0
1047600,note_off,0,0,2,,,,,,,,,,,,,,,1,,,71,0
1047660,control_change,60,0,3,,,,,,,,,,,,,64,127,2,,,,
1047760,note_on,100,0,3,,,,,,,,,,,,,,,2,,,51,43
1047920,note_on,0,0,3,,,,,,,,,,,,,,,2,,,56,42
1047920,note_off,160,0,3,,,,,,,,,,,,,,,2,,,51,0
1048080,note_on,0,0,4,,,,,,,,,,,,,,,3,,,43,46
1048080,note_off,480,0,4,,,,,,,,,,,,,,,3,,,44,0
1048080,note_off,480,0,2,,,,,,,,,,,,,,,1,,,72,0
1048080,note_on,0,0,2,,,,,,,,,,,,,,,1,,,70,52
1048080,note_off,0,0,3,,,,,,,,,,,,,,,2,,,56,0
1048080,control_change,160,0,3,,,,,,,,,,,,,64,0,2,,,,
1048140,control_change,60,0,3,,,,,,,,,,,,,64,127,2,,,,
1048240,note_on,100,0,3,,,,,,,,,,,,,,,2,,,51,41
1048400,note_off,160,0,3,,,,,,,,,,,,,,,2,,,51,0
1048400,note_on,0,0,3,,,,,,,,,,,,,,,2,,,55,41
1048560,control_change,160,0,3,,,,,,,,,,,,,64,0,2,,,,
1048560,note_off,0,0,3,,,,,,,,,,,,,,,2,,,55,0
1048560,note_on,0,0,2,,,,,,,,,,,,,,,1,,,68,49
1048560,note_off,480,0,2,,,,,,,,,,,,,,,1,,,70,0
1048560,note_on,0,0,4,,,,,,,,,,,,,,,3,,,41,45
1048560,note_off,480,0,4,,,,,,,,,,,,,,,3,,,43,0
1048620,control_change,60,0,3,,,,,,,,,,,,,64,127,2,,,,
1048720,note_on,100,0,3,,,,,,,,,,,,,,,2,,,51,40
1048880,note_on,0,0,3,,,,,,,,,,,,,,,2,,,53,40
1048880,note_off,160,0,3,,,,,,,,,,,,,,,2,,,51,0
1049040,note_on,0,0,2,,,,,,,,,,,,,,,1,,,62,47
1049040,note_off,0,0,3,,,,,,,,,,,,,,,2,,,53,0
1049040,control_change,160,0,3,,,,,,,,,,,,,64,0,2,,,,
1049040,note_on,0,0,2,,,,,,,,,,,,,,,1,,,68,47
1049040,note_on,0,0,1,,,,,,,,,,,,,,,0,,,74,47
1049040,note_off,0,0,2,,,,,,,,,,,,,,,1,,,68,0
1049040,note_off,480,0,2,,,,,,,,,,,,,,,1,,,63,0
1049040,note_on,0,0,4,,,,,,,,,,,,,,,3,,,46,43
1049040,note_off,480,0,4,,,,,,,,,,,,,,,3,,,41,0
1049040,note_off,2400,0,1,,,,,,,,,,,,,,,0,,,75,0
1049100,control_change,60,0,3,,,,,,,,,,,,,64,127,2,,,,
1049200,note_on,100,0,3,,,,,,,,,,,,,,,2,,,53,39
1049250,set_tempo,2700,1,0,,,,,,,300000,,,,,,,,,,,,
1049360,note_on,0,0,3,,,,,,,,,,,,,,,2,,,58,38
1049360,note_off,160,0,3,,,,,,,,,,,,,,,2,,,53,0
1049520,note_on,0,0,1,,,,,,,,,,,,,,,0,,,75,45
1049520,note_off,480,0,1,,,,,,,,,,,,,,,0,,,74,0
1049520,note_off,480,0,4,,,,,,,,,,,,,,,3,,,46,0
1049520,note_off,480,0,2,,,,,,,,,,,,,,,1,,,62,0
1049520,note_on,0,0,3,,,,,,,,,,,,,,,2,,,51,38
1049520,note_off,0,0,3,,,,,,,,,,,,,,,2,,,58,0
1049520,control_change,160,0,3,,,,,,,,,,,,,64,0,2,,,,
1049520,note_off,0,0,2,,,,,,,,,,,,,,,1,,,68,0
1049520,note_on,0,0,4,,,,,,,,,,,,,,,3,,,39,42
1049520,note_on,0,0,2,,,,,,,,,,,,,,,1,,,67,45
1049520,note_on,0,0,2,,,,,,,,,,,,,,,1,,,63,45
1050000,note_off,480,0,1,,,,,,,,,,,,,,,0,,,75,0
1050000,note_on,0,0,4,,,,,,,,,,,,,,,3,,,70,44
1050000,note_off,480,0,4,,,,,,,,,,,,,,,3,,,39,0
1050000,note_off,480,0,3,,,,,,,,,,,,,,,2,,,51,0
1050000,note_off,480,0,2,,,,,,,,,,,,,,,1,,,63,0
1050000,note_on,0,0,4,,,,,,,,,,,,,,,3,,,67,44
1050000,note_off,0,0,2,,,,,,,,,,,,,,,1,,,67,0
1050210,set_tempo,960,1,0,,,,,,,301507,,,,,,,,,,,,
1050400,note_on,400,0,1,,,,,,,,,,,,,,,0,,,84,52
1050480,note_on,0,0,4,,,,,,,,,,,,,,,3,,,68,45
1050480,note_off,80,0,1,,,,,,,,,,,,,,,0,,,84,0
1050480,note_off,480,0,4,,,,,,,,,,,,,,,3,,,70,0
1050480,note_off,0,0,4,,,,,,,,,,,,,,,3,,,67,0
1050480,note_on,0,0,1,,,,,,,,,,,,,,,0,,,82,57
1050480,note_on,0,0,4,,,,,,,,,,,,,,,3,,,65,45
1050495,set_tempo,285,1,0,,,,,,,297029,,,,,,,,,,,,
1050720,note_on,0,0,1,,,,,,,,,,,,,,,0,,,81,56
1050720,note_off,240,0,1,,,,,,,,,,,,,,,0,,,82,0
1050960,note_off,0,0,4,,,,,,,,,,,,,,,3,,,65,0
1050960,note_on,0,0,4,,,,,,,,,,,,,,,3,,,63,45
1050960,note_on,0,0,4,,,,,,,,,,,,,,,3,,,67,45
1050960,note_on,0,0,1,,,,,,,,,,,,,,,0,,,82,54
1050960,note_off,240,0,1,,,,,,,,,,,,,,,0,,,81,0
1050960,note_off,480,0,4,,,,,,,,,,,,,,,3,,,68,0
1051200,note_on,0,0,1,,,,,,,,,,,,,,,0,,,84,52
1051200,note_off,240,0,1,,,,,,,,,,,,,,,0,,,82,0
1051440,note_off,0,0,4,,,,,,,,,,,,,,,3,,,67,0
1051440,note_on,0,0,4,,,,,,,,,,,,,,,3,,,65,45
1051440,note_on,0,0,4,,,,,,,,,,,,,,,3,,,62,45
1051440,note_off,240,0,1,,,,,,,,,,,,,,,0,,,84,0
1051440,note_off,480,0,4,,,,,,,,,,,,,,,3,,,63,0
1051440,note_on,0,0,1,,,,,,,,,,,,,,,0,,,82,51
1051800,note_off,360,0,4,,,,,,,,,,,,,,,3,,,62,0
1051800,note_off,0,0,4,,,,,,,,,,,,,,,3,,,65,0
1051800,note_off,360,0,1,,,,,,,,,,,,,,,0,,,82,0
1051920,note_on,120,0,4,,,,,,,,,,,,,,,3,,,56,46
1051920,note_on,0,0,4,,,,,,,,,,,,,,,3,,,58,46
1051920,note_on,120,0,1,,,,,,,,,,,,,,,0,,,70,53
1051920,note_on,1920,0,2,,,,,,,,,,,,,,,1,,,62,53
1052400,note_off,480,0,4,,,,,,,,,,,,,,,3,,,56,0
1052400,note_on,0,0,4,,,,,,,,,,,,,,,3,,,55,46
1052400,note_off,480,0,2,,,,,,,,,,,,,,,1,,,62,0
1052400,note_off,480,0,1,,,,,,,,,,,,,,,0,,,70,0
1052400,note_on,0,0,1,,,,,,,,,,,,,,,0,,,72,53
1052400,note_on,0,0,2,,,,,,,,,,,,,,,1,,,63,53
1052880,note_off,480,0,2,,,,,,,,,,,,,,,1,,,63,0
1052880,note_off,0,0,4,,,,,,,,,,,,,,,3,,,55,0
1052880,note_off,480,0,4,,,,,,,,,,,,,,,3,,,58,0
1052880,note_on,0,0,2,,,,,,,,,,,,,,,1,,,65,54
1052880,note_off,480,0,1,,,,,,,,,,,,,,,0,,,72,0
1052880,note_on,0,0,1,,,,,,,,,,,,,,,0,,,74,54
1052880,note_on,0,0,4,,,,,,,,,,,,,,,3,,,58,47
1052880,note_on,0,0,4,,,,,,,,,,,,,,,3,,,53,47
1053120,set_tempo,2625,1,0,,,,,,,300000,,,,,,,,,,,,
1053360,note_on,0,0,4,,,,,,,,,,,,,,,3,,,51,47
1053360,note_off,0,0,4,,,,,,,,,,,,,,,3,,,53,0
1053360,note_off,480,0,2,,,,,,,,,,,,,,,1,,,65,0
1053360,note_off,480,0,4,,,,,,,,,,,,,,,3,,,58,0
1053360,note_on,0,0,2,,,,,,,,,,,,,,,1,,,67,54
1053360,note_off,480,0,1,,,,,,,,,,,,,,,0,,,74,0
1053360,note_on,0,0,4,,,,,,,,,,,,,,,3,,,58,47
1053360,note_on,0,0,1,,,,,,,,,,,,,,,0,,,75,54
1053375,set_tempo,255,1,0,,,,,,,300000,,,,,,,,,,,,
1053840,note_off,480,0,2,,,,,,,,,,,,,,,1,,,67,0
1053840,note_off,0,0,4,,,,,,,,,,,,,,,3,,,58,0
1053840,note_off,480,0,1,,,,,,,,,,,,,,,0,,,75,0
1053840,note_on,0,0,4,,,,,,,,,,,,,,,3,,,67,47
1053840,note_on,0,0,4,,,,,,,,,,,,,,,3,,,63,47
1053840,note_off,480,0,4,,,,,,,,,,,,,,,3,,,51,0
1054170,set_tempo,795,1,0,,,,,,,301507,,,,,,,,,,,,
1054240,note_on,400,0,1,,,,,,,,,,,,,,,0,,,80,55
1054320,note_on,0,0,4,,,,,,,,,,,,,,,3,,,62,48
1054320,note_on,0,0,4,,,,,,,,,,,,,,,3,,,65,48
1054320,note_off,0,0,4,,,,,,,,,,,,,,,3,,,67,0
1054320,note_off,80,0,1,,,,,,,,,,,,,,,0,,,80,0
1054320,note_on,0,0,1,,,,,,,,,,,,,,,0,,,79,59
1054320,note_off,480,0,4,,,,,,,,,,,,,,,3,,,63,0
1054335,set_tempo,165,1,0,,,,,,,297029,,,,,,,,,,,,
1054560,note_off,240,0,1,,,,,,,,,,,,,,,0,,,79,0
1054560,note_on,0,0,1,,,,,,,,,,,,,,,0,,,78,58
1054800,note_on,0,0,4,,,,,,,,,,,,,,,3,,,63,48
1054800,note_off,0,0,4,,,,,,,,,,,,,,,3,,,65,0
1054800,note_off,480,0,4,,,,,,,,,,,,,,,3,,,62,0
1054800,note_off,240,0,1,,,,,,,,,,,,,,,0,,,78,0
1054800,note_on,0,0,1,,,,,,,,,,,,,,,0,,,79,58
1054800,note_on,0,0,4,,,,,,,,,,,,,,,3,,,60,48
1055040,note_off,240,0,1,,,,,,,,,,,,,,,0,,,79,0
1055040,note_on,0,0,1,,,,,,,,,,,,,,,0,,,80,57
1055280,note_on,0,0,4,,,,,,,,,,,,,,,3,,,62,48
1055280,note_on,0,0,4,,,,,,,,,,,,,,,3,,,59,48
1055280,note_off,0,0,4,,,,,,,,,,,,,,,3,,,60,0
1055280,note_off,480,0,4,,,,,,,,,,,,,,,3,,,63,0
1055280,note_off,240,0,1,,,,,,,,,,,,,,,0,,,80,0
1055280,note_on,0,0,1,,,,,,,,,,,,,,,0,,,79,56
1055592,note_off,312,0,4,,,,,,,,,,,,,,,3,,,59,0
1055592,note_off,0,0,4,,,,,,,,,,,,,,,3,,,62,0
1055640,note_off,360,0,1,,,,,,,,,,,,,,,0,,,79,0
1055760,note_on,168,0,4,,,,,,,,,,,,,,,3,,,53,49
1055760,note_on,0,0,4,,,,,,,,,,,,,,,3,,,55,49
1055760,note_on,1920,0,2,,,,,,,,,,,,,,,1,,,59,56
1055760,note_on,120,0,1,,,,,,,,,,,,,,,0,,,67,56
1056240,note_on,0,0,4,,,,,,,,,,,,,,,3,,,51,49
1056240,note_off,480,0,4,,,,,,,,,,,,,,,3,,,53,0
1056240,note_off,480,0,1,,,,,,,,,,,,,,,0,,,67,0
1056240,note_off,480,0,2,,,,,,,,,,,,,,,1,,,59,0
1056240,note_on,0,0,2,,,,,,,,,,,,,,,1,,,60,56
1056240,note_on,0,0,1,,,,,,,,,,,,,,,0,,,69,56
1056720,note_off,480,0,1,,,,,,,,,,,,,,,0,,,69,0
1056720,note_on,0,0,1,,,,,,,,,,,,,,,0,,,71,57
1056720,note_off,480,0,4,,,,,,,,,,,,,,,3,,,55,0
1056720,note_on,0,0,4,,,,,,,,,,,,,,,3,,,50,50
1056720,note_on,0,0,4,,,,,,,,,,,,,,,3,,,55,50
1056720,note_on,0,0,2,,,,,,,,,,,,,,,1,,,62,57
1056720,note_off,480,0,2,,,,,,,,,,,,,,,1,,,60,0
1056720,note_off,0,0,4,,,,,,,,,,,,,,,3,,,51,0
1057200,note_off,480,0,4,,,,,,,,,,,,,,,3,,,50,0
1057200,note_off,0,0,4,,,,,,,,,,,,,,,3,,,55,0
1057200,note_on,0,0,4,,,,,,,,,,,,,,,3,,,36,50
1057200,control_change,7200,0,3,,,,,,,,,,,,,64,0,2,,,,
1057200,note_off,480,0,1,,,,,,,,,,,,,,,0,,,71,0
1057200,note_on,0,0,1,,,,,,,,,,,,,,,0,,,72,57
1057200,note_on,0,0,2,,,,,,,,,,,,,,,1,,,63,57
1057200,note_off,480,0,2,,,,,,,,,,,,,,,1,,,62,0
1057260,control_change,60,0,3,,,,,,,,,,,,,64,127,2,,,,
1057360,note_on,100,0,3,,,,,,,,,,,,,,,2,,,47,50
1057520,note_off,160,0,3,,,,,,,,,,,,,,,2,,,47,0
1057520,note_on,0,0,3,,,,,,,,,,,,,,,2,,,48,50
1057680,note_off,480,0,1,,,,,,,,,,,,,,,0,,,72,0
1057680,control_change,160,0,3,,,,,,,,,,,,,64,0,2,,,,
1057680,note_off,480,0,2,,,,,,,,,,,,,,,1,,,63,0
1057680,note_on,0,0,4,,,,,,,,,,,,,,,3,,,38,50
1057680,note_off,480,0,4,,,,,,,,,,,,,,,3,,,36,0
1057680,note_off,0,0,3,,,,,,,,,,,,,,,2,,,48,0
1057740,control_change,60,0,3,,,,,,,,,,,,,64,127,2,,,,
1057840,note_on,100,0,3,,,,,,,,,,,,,,,2,,,48,50
1058000,note_off,160,0,3,,,,,,,,,,,,,,,2,,,48,0
1058000,note_on,0,0,3,,,,,,,,,,,,,,,2,,,50,51
1058100,set_tempo,3765,1,0,,,,,,,298507,,,,,,,,,,,,
1058160,control_change,160,0,3,,,,,,,,,,,,,64,0,2,,,,
1058160,note_on,480,0,1,,,,,,,,,,,,,,,0,,,84,70
1058160,set_tempo,60,1,0,,,,,,,297029,,,,,,,,,,,,
1058160,note_on,480,0,2,,,,,,,,,,,,,,,1,,,72,70
1058160,note_on,0,0,4,,,,,,,,,,,,,,,3,,,39,60
1058160,note_off,480,0,4,,,,,,,,,,,,,,,3,,,38,0
1058160,note_off,0,0,3,,,,,,,,,,,,,,,2,,,50,0
1058220,control_change,60,0,3,,,,,,,,,,,,,64,127,2,,,,
1058320,note_on,100,0,3,,,,,,,,,,,,,,,2,,,48,51
1058480,note_on,0,0,3,,,,,,,,,,,,,,,2,,,51,51
1058480,note_off,160,0,3,,,,,,,,,,,,,,,2,,,48,0
1058640,note_off,0,0,3,,,,,,,,,,,,,,,2,,,51,0
1058640,control_change,160,0,3,,,,,,,,,,,,,64,0,2,,,,
1058640,note_off,480,0,4,,,,,,,,,,,,,,,3,,,39,0
1058640,note_on,0,0,4,,,,,,,,,,,,,,,3,,,36,51
1058700,control_change,60,0,3,,,,,,,,,,,,,64,127,2,,,,
1058800,note_on,100,0,3,,,,,,,,,,,,,,,2,,,47,51
1058960,note_on,0,0,3,,,,,,,,,,,,,,,2,,,48,51
1058960,note_off,160,0,3,,,,,,,,,,,,,,,2,,,47,0
1059120,note_off,480,0,4,,,,,,,,,,,,,,,3,,,36,0
1059120,note_on,0,0,4,,,,,,,,,,,,,,,3,,,38,51
1059120,control_change,160,0,3,,,,,,,,,,,,,64,0,2,,,,
1059120,note_off,0,0,3,,,,,,,,,,,,,,,2,,,48,0
1059180,control_change,60,0,3,,,,,,,,,,,,,64,127,2,,,,
1059280,note_on,100,0,3,,,,,,,,,,,,,,,2,,,48,52
1059440,note_on,0,0,3,,,,,,,,,,,,,,,2,,,50,52
1059440,note_off,160,0,3,,,,,,,,,,,,,,,2,,,48,0
1059600,note_off,1440,0,1,,,,,,,,,,,,,,,0,,,84,0
1059600,note_off,1440,0,2,,,,,,,,,,,,,,,1,,,72,0
1059600,note_off,0,0,3,,,,,,,,,,,,,,,2,,,50,0
1059600,control_change,160,0,3,,,,,,,,,,,,,64,0,2,,,,
1059600,note_off,480,0,4,,,,,,,,,,,,,,,3,,,38,0
1059600,note_on,0,0,4,,,,,,,,,,,,,,,3,,,40,52
1059660,control_change,60,0,3,,,,,,,,,,,,,64,127,2,,,,
1059760,note_on,100,0,3,,,,,,,,,,,,,,,2,,,48,52
1059920,note_on,0,0,3,,,,,,,,,,,,,,,2,,,52,52
1059920,note_off,160,0,3,,,,,,,,,,,,,,,2,,,48,0
1060020,set_tempo,1860,1,0,,,,,,,298507,,,,,,,,,,,,
1060080,set_tempo,60,1,0,,,,,,,297029,,,,,,,,,,,,
1060080,control_change,160,0,3,,,,,,,,,,,,,64,0,2,,,,
1060080,note_on,480,0,2,,,,,,,,,,,,,,,1,,,60,71
1060080,note_on,480,0,1,,,,,,,,,,,,,,,0,,,72,71
1060080,note_off,480,0,4,,,,,,,,,,,,,,,3,,,40,0
1060080,note_on,0,0,4,,,,,,,,,,,,,,,3,,,41,62
1060080,note_off,0,0,3,,,,,,,,,,,,,,,2,,,52,0
1060140,control_change,60,0,3,,,,,,,,,,,,,64,127,2,,,,
1060240,note_on,100,0,3,,,,,,,,,,,,,,,2,,,48,52
1060400,note_off,160,0,3,,,,,,,,,,,,,,,2,,,48,0
1060400,note_on,0,0,3,,,,,,,,,,,,,,,2,,,53,53
1060560,note_on,0,0,4,,,,,,,,,,,,,,,3,,,38,53
1060560,note_off,0,0,3,,,,,,,,,,,,,,,2,,,53,0
1060560,note_off,480,0,4,,,,,,,,,,,,,,,3,,,41,0
1060560,control_change,160,0,3,,,,,,,,,,,,,64,0,2,,,,
1060620,control_change,60,0,3,,,,,,,,,,,,,64,127,2,,,,
1060720,note_on,100,0,3,,,,,,,,,,,,,,,2,,,48,53
1060880,note_off,160,0,3,,,,,,,,,,,,,,,2,,,48,0
1060880,note_on,0,0,3,,,,,,,,,,,,,,,2,,,50,53
1061040,control_change,160,0,3,,,,,,,,,,,,,64,0,2,,,,
1061040,note_off,0,0,3,,,,,,,,,,,,,,,2,,,50,0
1061040,note_off,480,0,4,,,,,,,,,,,,,,,3,,,38,0
1061040,note_on,0,0,4,,,,,,,,,,,,,,,3,,,40,53
1061100,control_change,60,0,3,,,,,,,,,,,,,64,127,2,,,,
1061200,note_on,100,0,3,,,,,,,,,,,,,,,2,,,48,53
1061360,note_on,0,0,3,,,,,,,,,,,,,,,2,,,52,53
1061360,note_off,160,0,3,,,,,,,,,,,,,,,2,,,48,0
1061520,note_on,0,0,4,,,,,,,,,,,,,,,3,,,41,53
1061520,note_off,480,0,4,,,,,,,,,,,,,,,3,,,40,0
1061520,control_change,160,0,3,,,,,,,,,,,,,64,0,2,,,,
1061520,note_off,1440,0,2,,,,,,,,,,,,,,,1,,,60,0
1061520,note_off,0,0,3,,,,,,,,,,,,,,,2,,,52,0
1061520,note_off,1440,0,1,,,,,,,,,,,,,,,0,,,72,0
1061580,control_change,60,0,3,,,,,,,,,,,,,64,127,2,,,,
1061680,note_on,100,0,3,,,,,,,,,,,,,,,2,,,48,54
1061840,note_off,160,0,3,,,,,,,,,,,,,,,2,,,48,0
1061840,note_on,0,0,3,,,,,,,,,,,,,,,2,,,53,54
1061925,set_tempo,1845,1,0,,,,,,,298507,,,,,,,,,,,,
1062000,note_off,0,0,3,,,,,,,,,,,,,,,2,,,53,0
1062000,note_on,480,0,2,,,,,,,,,,,,,,,1,,,70,65
1062000,note_on,0,0,2,,,,,,,,,,,,,,,1,,,60,65
1062000,note_on,480,0,1,,,,,,,,,,,,,,,0,,,72,65
1062000,control_change,160,0,3,,,,,,,,,,,,,64,0,2,,,,
1062000,note_off,480,0,4,,,,,,,,,,,,,,,3,,,41,0
1062000,note_on,0,0,4,,,,,,,,,,,,,,,3,,,43,68
1062060,control_change,60,0,3,,,,,,,,,,,,,64,127,2,,,,
1062160,note_on,100,0,3,,,,,,,,,,,,,,,2,,,48,54
1062320,note_off,160,0,3,,,,,,,,,,,,,,,2,,,48,0
1062320,note_on,0,0,3,,,,,,,,,,,,,,,2,,,55,54
1062480,note_on,0,0,2,,,,,,,,,,,,,,,1,,,67,64
1062480,control_change,160,0,3,,,,,,,,,,,,,64,0,2,,,,
1062480,note_on,0,0,4,,,,,,,,,,,,,,,3,,,40,54
1062480,note_off,480,0,4,,,,,,,,,,,,,,,3,,,43,0
1062480,note_off,480,0,2,,,,,,,,,,,,,,,1,,,70,0
1062480,note_off,0,0,3,,,,,,,,,,,,,,,2,,,55,0
1062540,control_change,60,0,3,,,,,,,,,,,,,64,127,2,,,,
1062640,note_on,100,0,3,,,,,,,,,,,,,,,2,,,48,54
1062800,note_off,160,0,3,,,,,,,,,,,,,,,2,,,48,0
1062800,note_on,0,0,3,,,,,,,,,,,,,,,2,,,52,54
1062960,control_change,160,0,3,,,,,,,,,,,,,64,0,2,,,,
1062960,note_off,0,0,3,,,,,,,,,,,,,,,2,,,52,0
1062960,note_off,480,0,2,,,,,,,,,,,,,,,1,,,67,0
1062960,note_on,0,0,2,,,,,,,,,,,,,,,1,,,68,62
1062960,note_on,0,0,4,,,,,,,,,,,,,,,3,,,41,54
1062960,note_off,480,0,4,,,,,,,,,,,,,,,3,,,40,0
1063020,control_change,60,0,3,,,,,,,,,,,,,64,127,2,,,,
1063120,note_on,100,0,3,,,,,,,,,,,,,,,2,,,48,53
1063280,note_on,0,0,3,,,,,,,,,,,,,,,2,,,53,53
1063280,note_off,160,0,3,,,,,,,,,,,,,,,2,,,48,0
1063440,note_on,0,0,2,,,,,,,,,,,,,,,1,,,67,61
1063440,note_off,480,0,2,,,,,,,,,,,,,,,1,,,68,0
1063440,note_off,0,0,3,,,,,,,,,,,,,,,2,,,53,0
1063440,control_change,160,0,3,,,,,,,,,,,,,64,0,2,,,,
1063440,note_on,0,0,4,,,,,,,,,,,,,,,3,,,39,52
1063440,note_off,480,0,4,,,,,,,,,,,,,,,3,,,41,0
1063500,control_change,60,0,3,,,,,,,,,,,,,64,127,2,,,,
1063600,note_on,100,0,3,,,,,,,,,,,,,,,2,,,48,52
1063760,note_off,160,0,3,,,,,,,,,,,,,,,2,,,48,0
1063760,note_on,0,0,3,,,,,,,,,,,,,,,2,,,51,52
1063920,note_off,480,0,2,,,,,,,,,,,,,,,1,,,67,0
1063920,control_change,160,0,3,,,,,,,,,,,,,64,0,2,,,,
1063920,note_off,0,0,3,,,,,,,,,,,,,,,2,,,51,0
1063920,note_on,0,0,4,,,,,,,,,,,,,,,3,,,38,51
1063920,note_on,0,0,2,,,,,,,,,,,,,,,1,,,65,59
1063920,note_off,480,0,4,,,,,,,,,,,,,,,3,,,39,0
1063980,control_change,60,0,3,,,,,,,,,,,,,64,127,2,,,,
1064080,note_on,100,0,3,,,,,,,,,,,,,,,2,,,48,51
1064240,note_on,0,0,3,,,,,,,,,,,,,,,2,,,50,50
1064240,note_off,160,0,3,,,,,,,,,,,,,,,2,,,48,0
1064400,note_on,0,0,4,,,,,,,,,,,,,,,3,,,43,50
1064400,note_off,0,0,2,,,,,,,,,,,,,,,1,,,65,0
1064400,note_off,480,0,2,,,,,,,,,,,,,,,1,,,60,0
1064400,note_off,0,0,3,,,,,,,,,,,,,,,2,,,50,0
1064400,note_on,0,0,2,,,,,,,,,,,,,,,1,,,65,58
1064400,note_on,0,0,2,,,,,,,,,,,,,,,1,,,59,58
1064400,note_off,2400,0,1,,,,,,,,,,,,,,,0,,,72,0
1064400,control_change,160,0,3,,,,,,,,,,,,,64,0,2,,,,
1064400,note_off,480,0,4,,,,,,,,,,,,,,,3,,,38,0
1064400,note_on,0,0,1,,,,,,,,,,,,,,,0,,,71,58
1064460,control_change,60,0,3,,,,,,,,,,,,,64,127,2,,,,
1064560,note_on,100,0,3,,,,,,,,,,,,,,,2,,,50,49
1064655,set_tempo,2730,1,0,,,,,,,300000,,,,,,,,,,,,
1064720,note_off,160,0,3,,,,,,,,,,,,,,,2,,,50,0
1064720,note_on,0,0,3,,,,,,,,,,,,,,,2,,,55,49
1064880,note_on,0,0,3,,,,,,,,,,,,,,,2,,,48,48
1064880,note_off,480,0,4,,,,,,,,,,,,,,,3,,,43,0
1064880,note_off,0,0,2,,,,,,,,,,,,,,,1,,,59,0
1064880,note_off,0,0,3,,,,,,,,,,,,,,,2,,,55,0
1064880,control_change,160,0,3,,,,,,,,,,,,,64,0,2,,,,
1064880,note_on,0,0,4,,,,,,,,,,,,,,,3,,,36,48
1064880,note_off,480,0,1,,,,,,,,,,,,,,,0,,,71,0
1064880,note_off,480,0,2,,,,,,,,,,,,,,,1,,,65,0
1064880,note_on,0,0,1,,,,,,,,,,,,,,,0,,,72,56
1064880,note_on,0,0,2,,,,,,,,,,,,,,,1,,,63,56
1064880,note_on,0,0,2,,,,,,,,,,,,,,,1,,,60,56
1065240,note_off,360,0,3,,,,,,,,,,,,,,,2,,,48,0
1065360,note_off,480,0,1,,,,,,,,,,,,,,,0,,,72,0
1065360,note_off,0,0,2,,,,,,,,,,,,,,,1,,,63,0
1065360,note_on,0,0,4,,,,,,,,,,,,,,,3,,,67,56
1065360,note_on,0,0,4,,,,,,,,,,,,,,,3,,,63,56
1065360,note_off,480,0,4,,,,,,,,,,,,,,,3,,,36,0
1065360,note_off,480,0,2,,,,,,,,,,,,,,,1,,,60,0
1065585,set_tempo,930,1,0,,,,,,,301507,,,,,,,,,,,,
1065760,note_on,400,0,1,,,,,,,,,,,,,,,0,,,80,64
1065840,note_on,0,0,1,,,,,,,,,,,,,,,0,,,79,71
1065840,note_off,80,0,1,,,,,,,,,,,,,,,0,,,80,0
1065840,note_on,0,0,4,,,,,,,,,,,,,,,3,,,65,57
1065840,note_off,480,0,4,,,,,,,,,,,,,,,3,,,63,0
1065840,note_off,0,0,4,,,,,,,,,,,,,,,3,,,67,0
1065840,note_on,0,0,4,,,,,,,,,,,,,,,3,,,62,57
1065855,set_tempo,270,1,0,,,,,,,297029,,,,,,,,,,,,
1066080,note_on,0,0,1,,,,,,,,,,,,,,,0,,,78,69
1066080,note_off,240,0,1,,,,,,,,,,,,,,,0,,,79,0
1066320,note_off,480,0,4,,,,,,,,,,,,,,,3,,,65,0
1066320,note_off,0,0,4,,,,,,,,,,,,,,,3,,,62,0
1066320,note_on,0,0,4,,,,,,,,,,,,,,,3,,,63,57
1066320,note_on,0,0,4,,,,,,,,,,,,,,,3,,,60,57
1066320,note_off,240,0,1,,,,,,,,,,,,,,,0,,,78,0
1066320,note_on,0,0,1,,,,,,,,,,,,,,,0,,,79,67
1066560,note_on,0,0,1,,,,,,,,,,,,,,,0,,,80,64
1066560,note_off,240,0,1,,,,,,,,,,,,,,,0,,,79,0
1066800,note_on,0,0,4,,,,,,,,,,,,,,,3,,,62,58
1066800,note_on,0,0,4,,,,,,,,,,,,,,,3,,,59,58
1066800,note_on,0,0,1,,,,,,,,,,,,,,,0,,,79,64
1066800,note_off,240,0,1,,,,,,,,,,,,,,,0,,,80,0
1066800,note_off,480,0,4,,,,,,,,,,,,,,,3,,,63,0
1066800,note_off,0,0,4,,,,,,,,,,,,,,,3,,,60,0
1067160,note_off,0,0,4,,,,,,,,,,,,,,,3,,,62,0
1067160,note_off,360,0,1,,,,,,,,,,,,,,,0,,,79,0
1067160,note_off,360,0,4,,,,,,,,,,,,,,,3,,,59,0
1067280,note_on,120,0,1,,,,,,,,,,,,,,,0,,,67,65
1067280,note_on,1920,0,2,,,,,,,,,,,,,,,1,,,59,65
1067280,note_on,120,0,4,,,,,,,,,,,,,,,3,,,53,58
1067280,note_on,0,0,4,,,,,,,,,,,,,,,3,,,55,58
1067760,note_off,480,0,2,,,,,,,,,,,,,,,1,,,59,0
1067760,note_on,0,0,1,,,,,,,,,,,,,,,0,,,69,65
1067760,note_off,480,0,1,,,,,,,,,,,,,,,0,,,67,0
1067760,note_off,480,0,4,,,,,,,,,,,,,,,3,,,53,0
1067760,note_on,0,0,4,,,,,,,,,,,,,,,3,,,51,58
1067760,note_on,0,0,2,,,,,,,,,,,,,,,1,,,60,65
1068240,note_off,480,0,1,,,,,,,,,,,,,,,0,,,69,0
1068240,note_on,0,0,4,,,,,,,,,,,,,,,3,,,50,59
1068240,note_on,0,0,1,,,,,,,,,,,,,,,0,,,71,66
1068240,note_off,0,0,4,,,,,,,,,,,,,,,3,,,51,0
1068240,note_off,480,0,4,,,,,,,,,,,,,,,3,,,55,0
1068240,note_off,480,0,2,,,,,,,,,,,,,,,1,,,60,0
1068240,note_on,0,0,4,,,,,,,,,,,,,,,3,,,55,59
1068240,note_on,0,0,2,,,,,,,,,,,,,,,1,,,62,66
1068480,set_tempo,2625,1,0,,,,,,,300000,,,,,,,,,,,,
1068720,note_off,480,0,2,,,,,,,,,,,,,,,1,,,62,0
1068720,note_on,0,0,1,,,,,,,,,,,,,,,0,,,72,66
1068720,note_off,480,0,1,,,,,,,,,,,,,,,0,,,71,0
1068720,note_off,480,0,4,,,,,,,,,,,,,,,3,,,55,0
1068720,note_off,0,0,4,,,,,,,,,,,,,,,3,,,50,0
1068720,note_on,0,0,4,,,,,,,,,,,,,,,3,,,48,59
1068720,note_on,0,0,4,,,,,,,,,,,,,,,3,,,55,59
1068720,note_on,0,0,2,,,,,,,,,,,,,,,1,,,63,66
1069080,note_off,0,0,4,,,,,,,,,,,,,,,3,,,55,0
1069080,note_off,360,0,4,,,,,,,,,,,,,,,3,,,48,0
1069080,note_off,360,0,2,,,,,,,,,,,,,,,1,,,63,0
1069080,note_off,360,0,1,,,,,,,,,,,,,,,0,,,72,0
1069200,note_on,120,0,4,,,,,,,,,,,,,,,3,,,60,60
1069200,note_on,0,0,4,,,,,,,,,,,,,,,3,,,56,60
1069515,set_tempo,1035,1,0,,,,,,,301507,,,,,,,,,,,,
1069600,note_on,520,0,1,,,,,,,,,,,,,,,0,,,73,67
1069680,note_off,480,0,4,,,,,,,,,,,,,,,3,,,60,0
1069680,note_on,0,0,1,,,,,,,,,,,,,,,0,,,72,73
1069680,note_on,0,0,4,,,,,,,,,,,,,,,3,,,58,60
1069680,note_off,0,0,4,,,,,,,,,,,,,,,3,,,56,0
1069680,note_on,0,0,4,,,,,,,,,,,,,,,3,,,55,60
1069680,note_off,80,0,1,,,,,,,,,,,,,,,0,,,73,0
1069695,set_tempo,180,1,0,,,,,,,297029,,,,,,,,,,,,
1069920,note_on,0,0,1,,,,,,,,,,,,,,,0,,,71,72
1069920,note_off,240,0,1,,,,,,,,,,,,,,,0,,,72,0
1070160,note_off,0,0,4,,,,,,,,,,,,,,,3,,,55,0
1070160,note_on,0,0,4,,,,,,,,,,,,,,,3,,,53,60
1070160,note_on,0,0,4,,,,,,,,,,,,,,,3,,,56,60
1070160,note_on,0,0,1,,,,,,,,,,,,,,,0,,,72,70
1070160,note_off,240,0,1,,,,,,,,,,,,,,,0,,,71,0
1070160,note_off,480,0,4,,,,,,,,,,,,,,,3,,,58,0
1070400,note_off,240,0,1,,,,,,,,,,,,,,,0,,,72,0
1070400,note_on,0,0,1,,,,,,,,,,,,,,,0,,,73,68
1070640,note_off,240,0,1,,,,,,,,,,,,,,,0,,,73,0
1070640,note_on,0,0,1,,,,,,,,,,,,,,,0,,,72,67
1070640,note_off,480,0,4,,,,,,,,,,,,,,,3,,,53,0
1070640,note_off,0,0,4,,,,,,,,,,,,,,,3,,,56,0
1070640,note_on,0,0,4,,,,,,,,,,,,,,,3,,,52,61
1070640,note_on,0,0,4,,,,,,,,,,,,,,,3,,,55,61
1071000,note_off,360,0,1,,,,,,,,,,,,,,,0,,,72,0
1071000,note_off,360,0,4,,,,,,,,,,,,,,,3,,,52,0
1071000,note_off,0,0,4,,,,,,,,,,,,,,,3,,,55,0
1071120,note_on,120,0,4,,,,,,,,,,,,,,,3,,,46,61
1071120,note_on,2040,0,2,,,,,,,,,,,,,,,1,,,76,68
1071120,note_on,120,0,1,,,,,,,,,,,,,,,0,,,84,68
1071120,note_on,0,0,4,,,,,,,,,,,,,,,3,,,48,61
1071600,note_on,0,0,1,,,,,,,,,,,,,,,0,,,86,68
1071600,note_off,480,0,1,,,,,,,,,,,,,,,0,,,84,0
1071600,note_on,0,0,2,,,,,,,,,,,,,,,1,,,77,68
1071600,note_off,480,0,2,,,,,,,,,,,,,,,1,,,76,0
1071600,note_on,0,0,4,,,,,,,,,,,,,,,3,,,44,61
1071600,note_off,480,0,4,,,,,,,,,,,,,,,3,,,46,0
1072080,note_on,0,0,1,,,,,,,,,,,,,,,0,,,88,69
1072080,note_off,480,0,4,,,,,,,,,,,,,,,3,,,48,0
1072080,note_off,0,0,4,,,,,,,,,,,,,,,3,,,44,0
1072080,note_on,0,0,4,,,,,,,,,,,,,,,3,,,48,62
1072080,note_on,0,0,2,,,,,,,,,,,,,,,1,,,79,69
1072080,note_off,480,0,2,,,,,,,,,,,,,,,1,,,77,0
1072080,note_on,0,0,4,,,,,,,,,,,,,,,3,,,43,62
1072080,note_off,480,0,1,,,,,,,,,,,,,,,0,,,86,0
1072560,note_off,480,0,1,,,,,,,,,,,,,,,0,,,88,0
1072560,note_off,0,0,4,,,,,,,,,,,,,,,3,,,43,0
1072560,note_on,0,0,4,,,,,,,,,,,,,,,3,,,41,60
1072560,note_off,480,0,2,,,,,,,,,,,,,,,1,,,79,0
1072560,note_on,0,0,2,,,,,,,,,,,,,,,1,,,80,69
1072560,note_on,0,0,1,,,,,,,,,,,,,,,0,,,89,69
1072560,note_off,480,0,4,,,,,,,,,,,,,,,3,,,48,0
1072560,control_change,7320,0,3,,,,,,,,,,,,,64,0,2,,,,
1072620,control_change,60,0,3,,,,,,,,,,,,,64,127,2,,,,
1072720,note_on,100,0,3,,,,,,,,,,,,,,,2,,,52,60
1072880,note_off,160,0,3,,,,,,,,,,,,,,,2,,,52,0
1072880,note_on,0,0,3,,,,,,,,,,,,,,,2,,,53,60
1072920,note_off,360,0,2,,,,,,,,,,,,,,,1,,,80,0
1072920,note_off,360,0,1,,,,,,,,,,,,,,,0,,,89,0
1073006,note_off,446,0,4,,,,,,,,,,,,,,,3,,,41,0
1073040,control_change,160,0,3,,,,,,,,,,,,,64,0,2,,,,
1073040,note_off,0,0,3,,,,,,,,,,,,,,,2,,,53,0
1073040,note_on,34,0,4,,,,,,,,,,,,,,,3,,,43,60
1073100,control_change,60,0,3,,,,,,,,,,,,,64,127,2,,,,
1073200,note_on,100,0,3,,,,,,,,,,,,,,,2,,,53,60
1073360,note_off,160,0,3,,,,,,,,,,,,,,,2,,,53,0
1073360,note_on,0,0,3,,,,,,,,,,,,,,,2,,,55,60
1073460,set_tempo,3765,1,0,,,,,,,298507,,,,,,,,,,,,
1073486,note_off,446,0,4,,,,,,,,,,,,,,,3,,,43,0
1073520,control_change,160,0,3,,,,,,,,,,,,,64,0,2,,,,
1073520,note_off,0,0,3,,,,,,,,,,,,,,,2,,,55,0
1073520,note_on,600,0,2,,,,,,,,,,,,,,,1,,,77,80
1073520,note_on,600,0,1,,,,,,,,,,,,,,,0,,,89,80
1073520,set_tempo,60,1,0,,,,,,,297029,,,,,,,,,,,,
1073520,note_on,34,0,4,,,,,,,,,,,,,,,3,,,44,72
1073580,control_change,60,0,3,,,,,,,,,,,,,64,127,2,,,,
1073680,note_on,100,0,3,,,,,,,,,,,,,,,2,,,53,60
1073840,note_off,160,0,3,,,,,,,,,,,,,,,2,,,53,0
1073840,note_on,0,0,3,,,,,,,,,,,,,,,2,,,56,60
1073966,note_off,446,0,4,,,,,,,,,,,,,,,3,,,44,0
1074000,note_on,34,0,4,,,,,,,,,,,,,,,3,,,41,61
1074000,control_change,160,0,3,,,,,,,,,,,,,64,0,2,,,,
1074000,note_off,0,0,3,,,,,,,,,,,,,,,2,,,56,0
1074060,control_change,60,0,3,,,,,,,,,,,,,64,127,2,,,,
1074160,note_on,100,0,3,,,,,,,,,,,,,,,2,,,52,61
1074320,note_off,160,0,3,,,,,,,,,,,,,,,2,,,52,0
1074320,note_on,0,0,3,,,,,,,,,,,,,,,2,,,53,61
1074446,note_off,446,0,4,,,,,,,,,,,,,,,3,,,41,0
1074480,note_on,34,0,4,,,,,,,,,,,,,,,3,,,43,61
1074480,note_off,0,0,3,,,,,,,,,,,,,,,2,,,53,0
1074480,control_change,160,0,3,,,,,,,,,,,,,64,0,2,,,,
1074540,control_change,60,0,3,,,,,,,,,,,,,64,127,2,,,,
1074640,note_on,100,0,3,,,,,,,,,,,,,,,2,,,53,61
1074800,note_off,160,0,3,,,,,,,,,,,,,,,2,,,53,0
1074800,note_on,0,0,3,,,,,,,,,,,,,,,2,,,55,61
1074926,note_off,446,0,4,,,,,,,,,,,,,,,3,,,43,0
1074960,control_change,160,0,3,,,,,,,,,,,,,64,0,2,,,,
1074960,note_off,0,0,3,,,,,,,,,,,,,,,2,,,55,0
1074960,note_off,1440,0,2,,,,,,,,,,,,,,,1,,,77,0
1074960,note_on,34,0,4,,,,,,,,,,,,,,,3,,,45,61
1074960,note_off,1440,0,1,,,,,,,,,,,,,,,0,,,89,0
1075020,control_change,60,0,3,,,,,,,,,,,,,64,127,2,,,,
1075120,note_on,100,0,3,,,,,,,,,,,,,,,2,,,53,61
1075280,note_off,160,0,3,,,,,,,,,,,,,,,2,,,53,0
1075280,note_on,0,0,3,,,,,,,,,,,,,,,2,,,57,61
1075380,set_tempo,1860,1,0,,,,,,,298507,,,,,,,,,,,,
1075406,note_off,446,0,4,,,,,,,,,,,,,,,3,,,45,0
1075440,note_off,0,0,3,,,,,,,,,,,,,,,2,,,57,0
1075440,note_on,34,0,4,,,,,,,,,,,,,,,3,,,46,76
1075440,note_on,480,0,2,,,,,,,,,,,,,,,1,,,65,82
1075440,set_tempo,60,1,0,,,,,,,297029,,,,,,,,,,,,
1075440,note_on,480,0,1,,,,,,,,,,,,,,,0,,,77,82
1075440,control_change,160,0,3,,,,,,,,,,,,,64,0,2,,,,
1075500,control_change,60,0,3,,,,,,,,,,,,,64,127,2,,,,
1075600,note_on,100,0,3,,,,,,,,,,,,,,,2,,,53,62
1075760,note_off,160,0,3,,,,,,,,,,,,,,,2,,,53,0
1075760,note_on,0,0,3,,,,,,,,,,,,,,,2,,,58,62
1075886,note_off,446,0,4,,,,,,,,,,,,,,,3,,,46,0
1075920,note_on,34,0,4,,,,,,,,,,,,,,,3,,,43,62
1075920,control_change,160,0,3,,,,,,,,,,,,,64,0,2,,,,
1075920,note_off,0,0,3,,,,,,,,,,,,,,,2,,,58,0
1075980,control_change,60,0,3,,,,,,,,,,,,,64,127,2,,,,
1076080,note_on,100,0,3,,,,,,,,,,,,,,,2,,,53,62
1076240,note_on,0,0,3,,,,,,,,,,,,,,,2,,,55,62
1076240,note_off,160,0,3,,,,,,,,,,,,,,,2,,,53,0
1076366,note_off,446,0,4,,,,,,,,,,,,,,,3,,,43,0
1076400,control_change,160,0,3,,,,,,,,,,,,,64,0,2,,,,
1076400,note_off,0,0,3,,,,,,,,,,,,,,,2,,,55,0
1076400,note_on,34,0,4,,,,,,,,,,,,,,,3,,,45,62
1076460,control_change,60,0,3,,,,,,,,,,,,,64,127,2,,,,
1076560,note_on,100,0,3,,,,,,,,,,,,,,,2,,,53,62
1076720,note_off,160,0,3,,,,,,,,,,,,,,,2,,,53,0
1076720,note_on,0,0,3,,,,,,,,,,,,,,,2,,,57,62
1076846,note_off,446,0,4,,,,,,,,,,,,,,,3,,,45,0
1076880,control_change,160,0,3,,,,,,,,,,,,,64,0,2,,,,
1076880,note_off,0,0,3,,,,,,,,,,,,,,,2,,,57,0
1076880,note_off,1440,0,1,,,,,,,,,,,,,,,0,,,77,0
1076880,note_on,34,0,4,,,,,,,,,,,,,,,3,,,46,63
1076880,note_off,1440,0,2,,,,,,,,,,,,,,,1,,,65,0
1076940,control_change,60,0,3,,,,,,,,,,,,,64,127,2,,,,
1077040,note_on,100,0,3,,,,,,,,,,,,,,,2,,,53,63
1077200,note_on,0,0,3,,,,,,,,,,,,,,,2,,,58,63
1077200,note_off,160,0,3,,,,,,,,,,,,,,,2,,,53,0
1077300,set_tempo,1860,1,0,,,,,,,298507,,,,,,,,,,,,
1077326,note_off,446,0,4,,,,,,,,,,,,,,,3,,,46,0
1077360,note_on,480,0,2,,,,,,,,,,,,,,,1,,,75,85
1077360,control_change,160,0,3,,,,,,,,,,,,,64,0,2,,,,
1077360,note_on,34,0,4,,,,,,,,,,,,,,,3,,,48,79
1077360,note_off,0,0,3,,,,,,,,,,,,,,,2,,,58,0
1077360,set_tempo,60,1,0,,,,,,,297029,,,,,,,,,,,,
1077360,note_on,480,0,1,,,,,,,,,,,,,,,0,,,77,85
1077420,control_change,60,0,3,,,,,,,,,,,,,64,127,2,,,,
1077520,note_on,100,0,3,,,,,,,,,,,,,,,2,,,53,63
1077680,note_off,160,0,3,,,,,,,,,,,,,,,2,,,53,0
1077680,note_on,0,0,3,,,,,,,,,,,,,,,2,,,60,63
1077806,note_off,446,0,4,,,,,,,,,,,,,,,3,,,48,0
1077840,control_change,160,0,3,,,,,,,,,,,,,64,0,2,,,,
1077840,note_off,0,0,3,,,,,,,,,,,,,,,2,,,60,0
1077840,note_on,34,0,4,,,,,,,,,,,,,,,3,,,45,63
1077900,control_change,60,0,3,,,,,,,,,,,,,64,127,2,,,,
1078000,note_on,100,0,3,,,,,,,,,,,,,,,2,,,53,63
1078080,set_tempo,720,1,0,,,,,,,298507,,,,,,,,,,,,
1078160,note_on,0,0,3,,,,,,,,,,,,,,,2,,,57,63
1078160,note_off,160,0,3,,,,,,,,,,,,,,,2,,,53,0
1078286,note_off,446,0,4,,,,,,,,,,,,,,,3,,,45,0
1078320,note_on,34,0,4,,,,,,,,,,,,,,,3,,,46,64
1078320,note_off,960,0,2,,,,,,,,,,,,,,,1,,,75,0
1078320,note_on,0,0,2,,,,,,,,,,,,,,,1,,,73,69
1078320,note_off,0,0,3,,,,,,,,,,,,,,,2,,,57,0
1078320,control_change,160,0,3,,,,,,,,,,,,,64,0,2,,,,
1078560,note_on,240,0,3,,,,,,,,,,,,,,,2,,,56,64
1078800,note_off,480,0,4,,,,,,,,,,,,,,,3,,,46,0
1078800,note_on,0,0,4,,,,,,,,,,,,,,,3,,,49,64
1078800,note_off,240,0,3,,,,,,,,,,,,,,,2,,,56,0
1078800,note_off,480,0,2,,,,,,,,,,,,,,,1,,,73,0
1078800,note_off,1440,0,1,,,,,,,,,,,,,,,0,,,77,0
1079040,set_tempo,960,1,0,,,,,,,301507,,,,,,,,,,,,
1079040,note_on,240,0,4,,,,,,,,,,,,,,,3,,,61,64
1079175,set_tempo,135,1,0,,,,,,,297029,,,,,,,,,,,,
1079200,note_on,400,0,1,,,,,,,,,,,,,,,0,,,87,74
1079280,note_off,80,0,1,,,,,,,,,,,,,,,0,,,87,0
1079280,note_on,0,0,1,,,,,,,,,,,,,,,0,,,85,82
1079280,note_off,240,0,4,,,,,,,,,,,,,,,3,,,49,0
1079280,note_off,0,0,4,,,,,,,,,,,,,,,3,,,61,0
1079280,note_on,0,0,4,,,,,,,,,,,,,,,3,,,53,64
1079520,note_on,0,0,1,,,,,,,,,,,,,,,0,,,84,80
1079520,note_off,240,0,1,,,,,,,,,,,,,,,0,,,85,0
1079520,note_on,240,0,4,,,,,,,,,,,,,,,3,,,65,64
1079760,note_off,0,0,4,,,,,,,,,,,,,,,3,,,65,0
1079760,note_on,0,0,4,,,,,,,,,,,,,,,3,,,58,64
1079760,note_off,240,0,1,,,,,,,,,,,,,,,0,,,84,0
1079760,note_off,240,0,4,,,,,,,,,,,,,,,3,,,53,0
1079760,note_on,0,0,1,,,,,,,,,,,,,,,0,,,85,79
1080000,note_on,240,0,4,,,,,,,,,,,,,,,3,,,70,65
1080000,note_off,240,0,1,,,,,,,,,,,,,,,0,,,85,0
1080000,note_on,0,0,1,,,,,,,,,,,,,,,0,,,87,77
1080240,note_off,240,0,4,,,,,,,,,,,,,,,3,,,58,0
1080240,note_off,0,0,4,,,,,,,,,,,,,,,3,,,70,0
1080240,note_on,0,0,4,,,,,,,,,,,,,,,3,,,55,65
1080240,note_on,0,0,1,,,,,,,,,,,,,,,0,,,85,76
1080240,note_off,240,0,1,,,,,,,,,,,,,,,0,,,87,0
1080480,note_on,240,0,4,,,,,,,,,,,,,,,3,,,67,65
1080600,note_off,360,0,1,,,,,,,,,,,,,,,0,,,85,0
1080720,note_off,240,0,4,,,,,,,,,,,,,,,3,,,55,0
1080720,note_off,0,0,4,,,,,,,,,,,,,,,3,,,67,0
1080720,note_on,0,0,4,,,,,,,,,,,,,,,3,,,51,65
1080960,note_on,240,0,4,,,,,,,,,,,,,,,3,,,63,65
1081140,set_tempo,1965,1,0,,,,,,,298507,,,,,,,,,,,,
1081200,note_on,0,0,4,,,,,,,,,,,,,,,3,,,46,78
1081200,note_on,600,0,1,,,,,,,,,,,,,,,0,,,76,84
1081200,note_on,2400,0,2,,,,,,,,,,,,,,,1,,,73,84
1081200,set_tempo,60,1,0,,,,,,,297029,,,,,,,,,,,,
1081200,note_off,240,0,4,,,,,,,,,,,,,,,3,,,51,0
1081200,note_off,0,0,4,,,,,,,,,,,,,,,3,,,63,0
1081440,note_on,240,0,4,,,,,,,,,,,,,,,3,,,58,70
1081680,note_off,240,0,4,,,,,,,,,,,,,,,3,,,46,0
1081680,note_off,0,0,4,,,,,,,,,,,,,,,3,,,58,0
1081680,note_on,0,0,4,,,,,,,,,,,,,,,3,,,43,66
1081920,note_on,240,0,4,,,,,,,,,,,,,,,3,,,55,66
1081920,set_tempo,720,1,0,,,,,,,300000,,,,,,,,,,,,
1082160,note_off,960,0,2,,,,,,,,,,,,,,,1,,,73,0
1082160,note_on,0,0,2,,,,,,,,,,,,,,,1,,,72,70
1082160,note_on,0,0,4,,,,,,,,,,,,,,,3,,,44,66
1082160,note_off,0,0,4,,,,,,,,,,,,,,,3,,,55,0
1082160,note_off,240,0,4,,,,,,,,,,,,,,,3,,,43,0
1082400,note_on,240,0,4,,,,,,,,,,,,,,,3,,,56,66
1082640,note_off,240,0,4,,,,,,,,,,,,,,,3,,,44,0
1082640,note_off,480,0,2,,,,,,,,,,,,,,,1,,,72,0
1082640,note_off,1440,0,1,,,,,,,,,,,,,,,0,,,76,0
1082640,note_off,0,0,4,,,,,,,,,,,,,,,3,,,56,0
1082640,note_on,0,0,4,,,,,,,,,,,,,,,3,,,48,66
1082850,set_tempo,930,1,0,,,,,,,301507,,,,,,,,,,,,
1082880,note_on,240,0,4,,,,,,,,,,,,,,,3,,,60,67
1083040,note_on,400,0,1,,,,,,,,,,,,,,,0,,,86,77
1083120,note_off,80,0,1,,,,,,,,,,,,,,,0,,,86,0
1083120,note_on,0,0,1,,,,,,,,,,,,,,,0,,,84,83
1083120,note_off,0,0,4,,,,,,,,,,,,,,,3,,,60,0
1083120,note_on,0,0,4,,,,,,,,,,,,,,,3,,,51,67
1083120,note_off,240,0,4,,,,,,,,,,,,,,,3,,,48,0
1083135,set_tempo,285,1,0,,,,,,,297029,,,,,,,,,,,,
1083360,note_off,240,0,1,,,,,,,,,,,,,,,0,,,84,0
1083360,note_on,0,0,1,,,,,,,,,,,,,,,0,,,83,82
1083360,note_on,240,0,4,,,,,,,,,,,,,,,3,,,63,67
1083600,note_off,240,0,4,,,,,,,,,,,,,,,3,,,51,0
1083600,note_off,0,0,4,,,,,,,,,,,,,,,3,,,63,0
1083600,note_off,240,0,1,,,,,,,,,,,,,,,0,,,83,0
1083600,note_on,0,0,4,,,,,,,,,,,,,,,3,,,56,67
1083600,note_on,0,0,1,,,,,,,,,,,,,,,0,,,84,81
1083840,note_off,240,0,1,,,,,,,,,,,,,,,0,,,84,0
1083840,note_on,0,0,1,,,,,,,,,,,,,,,0,,,86,80
1083840,note_on,240,0,4,,,,,,,,,,,,,,,3,,,68,67
1084080,note_off,0,0,4,,,,,,,,,,,,,,,3,,,68,0
1084080,note_on,0,0,4,,,,,,,,,,,,,,,3,,,54,67
1084080,note_on,0,0,1,,,,,,,,,,,,,,,0,,,84,78
1084080,note_off,240,0,1,,,,,,,,,,,,,,,0,,,86,0
1084080,note_off,240,0,4,,,,,,,,,,,,,,,3,,,56,0
1084320,note_on,240,0,4,,,,,,,,,,,,,,,3,,,66,68
1084440,note_off,360,0,1,,,,,,,,,,,,,,,0,,,84,0
1084560,note_off,0,0,4,,,,,,,,,,,,,,,3,,,66,0
1084560,note_on,0,0,4,,,,,,,,,,,,,,,3,,,50,68
1084560,note_off,240,0,4,,,,,,,,,,,,,,,3,,,54,0
1084800,note_on,240,0,4,,,,,,,,,,,,,,,3,,,62,68
1084980,set_tempo,1845,1,0,,,,,,,298507,,,,,,,,,,,,
1085040,note_on,600,0,1,,,,,,,,,,,,,,,0,,,74,88
1085040,note_off,240,0,4,,,,,,,,,,,,,,,3,,,50,0
1085040,set_tempo,60,1,0,,,,,,,297029,,,,,,,,,,,,
1085040,note_on,2400,0,2,,,,,,,,,,,,,,,1,,,72,88
1085040,note_on,0,0,4,,,,,,,,,,,,,,,3,,,45,84
1085040,note_off,0,0,4,,,,,,,,,,,,,,,3,,,62,0
1085280,note_on,240,0,4,,,,,,,,,,,,,,,3,,,57,74
1085520,note_on,0,0,4,,,,,,,,,,,,,,,3,,,42,68
1085520,note_off,0,0,4,,,,,,,,,,,,,,,3,,,57,0
1085520,note_off,240,0,4,,,,,,,,,,,,,,,3,,,45,0
1085760,note_on,240,0,4,,,,,,,,,,,,,,,3,,,54,69
1086000,control_change,7200,0,3,,,,,,,,,,,,,64,0,2,,,,
1086000,note_on,0,0,4,,,,,,,,,,,,,,,3,,,43,69
1086000,note_off,960,0,2,,,,,,,,,,,,,,,1,,,72,0
1086000,note_on,0,0,2,,,,,,,,,,,,,,,1,,,70,72
1086000,note_off,240,0,4,,,,,,,,,,,,,,,3,,,42,0
1086000,note_off,0,0,4,,,,,,,,,,,,,,,3,,,54,0
1086060,control_change,60,0,3,,,,,,,,,,,,,64,127,2,,,,
1086160,note_on,100,0,3,,,,,,,,,,,,,,,2,,,54,69
1086320,note_off,160,0,3,,,,,,,,,,,,,,,2,,,54,0
1086320,note_on,0,0,3,,,,,,,,,,,,,,,2,,,55,69
1086480,note_on,0,0,4,,,,,,,,,,,,,,,3,,,45,69
1086480,control_change,160,0,3,,,,,,,,,,,,,64,0,2,,,,
1086480,note_off,1440,0,1,,,,,,,,,,,,,,,0,,,74,0
1086480,note_off,480,0,2,,,,,,,,,,,,,,,1,,,70,0
1086480,note_off,480,0,4,,,,,,,,,,,,,,,3,,,43,0
1086480,note_off,0,0,3,,,,,,,,,,,,,,,2,,,55,0
1086540,control_change,60,0,3,,,,,,,,,,,,,64,127,2,,,,
1086640,note_on,100,0,3,,,,,,,,,,,,,,,2,,,55,69
1086800,note_off,160,0,3,,,,,,,,,,,,,,,2,,,55,0
1086800,note_on,0,0,3,,,,,,,,,,,,,,,2,,,57,69
1086900,set_tempo,1860,1,0,,,,,,,298507,,,,,,,,,,,,
1086960,note_on,480,0,1,,,,,,,,,,,,,,,0,,,79,88
1086960,note_on,480,0,2,,,,,,,,,,,,,,,1,,,67,88
1086960,set_tempo,60,1,0,,,,,,,297029,,,,,,,,,,,,
1086960,note_off,480,0,4,,,,,,,,,,,,,,,3,,,45,0
1086960,note_on,0,0,4,,,,,,,,,,,,,,,3,,,46,80
1086960,control_change,160,0,3,,,,,,,,,,,,,64,0,2,,,,
1086960,note_off,0,0,3,,,,,,,,,,,,,,,2,,,57,0
1087020,control_change,60,0,3,,,,,,,,,,,,,64,127,2,,,,
1087120,note_on,100,0,3,,,,,,,,,,,,,,,2,,,55,74
1087280,note_off,160,0,3,,,,,,,,,,,,,,,2,,,55,0
1087280,note_on,0,0,3,,,,,,,,,,,,,,,2,,,58,71
1087440,note_off,480,0,4,,,,,,,,,,,,,,,3,,,46,0
1087440,note_off,0,0,3,,,,,,,,,,,,,,,2,,,58,0
1087440,note_on,0,0,4,,,,,,,,,,,,,,,3,,,43,70
1087440,control_change,160,0,3,,,,,,,,,,,,,64,0,2,,,,
1087500,control_change,60,0,3,,,,,,,,,,,,,64,127,2,,,,
1087600,note_on,100,0,3,,,,,,,,,,,,,,,2,,,54,70
1087760,note_off,160,0,3,,,,,,,,,,,,,,,2,,,54,0
1087760,note_on,0,0,3,,,,,,,,,,,,,,,2,,,55,70
1087920,note_off,960,0,2,,,,,,,,,,,,,,,1,,,67,0
1087920,note_off,480,0,4,,,,,,,,,,,,,,,3,,,43,0
1087920,note_on,0,0,4,,,,,,,,,,,,,,,3,,,45,70
1087920,control_change,160,0,3,,,,,,,,,,,,,64,0,2,,,,
1087920,note_off,0,0,3,,,,,,,,,,,,,,,2,,,55,0
1087920,note_off,960,0,1,,,,,,,,,,,,,,,0,,,79,0
1087980,control_change,60,0,3,,,,,,,,,,,,,64,127,2,,,,
1088080,note_on,100,0,3,,,,,,,,,,,,,,,2,,,55,70
1088240,note_off,160,0,3,,,,,,,,,,,,,,,2,,,55,0
1088240,note_on,0,0,3,,,,,,,,,,,,,,,2,,,57,70
1088400,control_change,160,0,3,,,,,,,,,,,,,64,0,2,,,,
1088400,note_off,0,0,3,,,,,,,,,,,,,,,2,,,57,0
1088400,note_off,480,0,4,,,,,,,,,,,,,,,3,,,45,0
1088400,note_on,0,0,4,,,,,,,,,,,,,,,3,,,47,70
1088460,control_change,60,0,3,,,,,,,,,,,,,64,127,2,,,,
1088560,note_on,100,0,3,,,,,,,,,,,,,,,2,,,55,70
1088720,note_on,0,0,3,,,,,,,,,,,,,,,2,,,59,71
1088720,note_off,160,0,3,,,,,,,,,,,,,,,2,,,55,0
1088820,set_tempo,1860,1,0,,,,,,,298507,,,,,,,,,,,,
1088880,note_off,0,0,3,,,,,,,,,,,,,,,2,,,59,0
1088880,note_on,0,0,4,,,,,,,,,,,,,,,3,,,48,83
1088880,control_change,160,0,3,,,,,,,,,,,,,64,0,2,,,,
1088880,set_tempo,60,1,0,,,,,,,297029,,,,,,,,,,,,
1088880,note_on,960,0,2,,,,,,,,,,,,,,,1,,,67,89
1088880,note_off,480,0,4,,,,,,,,,,,,,,,3,,,47,0
1088880,note_on,960,0,1,,,,,,,,,,,,,,,0,,,79,89
1088940,control_change,60,0,3,,,,,,,,,,,,,64,127,2,,,,
1089040,note_on,100,0,3,,,,,,,,,,,,,,,2,,,55,76
1089200,note_off,160,0,3,,,,,,,,,,,,,,,2,,,55,0
1089200,note_on,0,0,3,,,,,,,,,,,,,,,2,,,60,73
1089360,control_change,160,0,3,,,,,,,,,,,,,64,0,2,,,,
1089360,note_off,0,0,3,,,,,,,,,,,,,,,2,,,60,0
1089360,note_off,480,0,4,,,,,,,,,,,,,,,3,,,48,0
1089360,note_on,0,0,4,,,,,,,,,,,,,,,3,,,45,71
1089420,control_change,60,0,3,,,,,,,,,,,,,64,127,2,,,,
1089520,note_on,100,0,3,,,,,,,,,,,,,,,2,,,55,71
1089680,note_off,160,0,3,,,,,,,,,,,,,,,2,,,55,0
1089680,note_on,0,0,3,,,,,,,,,,,,,,,2,,,57,71
1089840,note_off,960,0,2,,,,,,,,,,,,,,,1,,,67,0
1089840,control_change,160,0,3,,,,,,,,,,,,,64,0,2,,,,
1089840,note_off,0,0,3,,,,,,,,,,,,,,,2,,,57,0
1089840,note_off,960,0,1,,,,,,,,,,,,,,,0,,,79,0
1089840,note_on,0,0,4,,,,,,,,,,,,,,,3,,,47,71
1089840,note_off,480,0,4,,,,,,,,,,,,,,,3,,,45,0
1089900,control_change,60,0,3,,,,,,,,,,,,,64,127,2,,,,
1090000,note_on,100,0,3,,,,,,,,,,,,,,,2,,,55,70
1090160,note_off,160,0,3,,,,,,,,,,,,,,,2,,,55,0
1090160,note_on,0,0,3,,,,,,,,,,,,,,,2,,,59,70
1090320,control_change,160,0,3,,,,,,,,,,,,,64,0,2,,,,
1090320,note_off,0,0,3,,,,,,,,,,,,,,,2,,,59,0
1090320,note_off,480,0,4,,,,,,,,,,,,,,,3,,,47,0
1090320,note_on,0,0,4,,,,,,,,,,,,,,,3,,,48,69
1090380,control_change,60,0,3,,,,,,,,,,,,,64,127,2,,,,
1090480,note_on,100,0,3,,,,,,,,,,,,,,,2,,,55,69
1090640,note_on,0,0,3,,,,,,,,,,,,,,,2,,,60,68
1090640,note_off,160,0,3,,,,,,,,,,,,,,,2,,,55,0
1090740,set_tempo,1860,1,0,,,,,,,298507,,,,,,,,,,,,
1090800,note_on,0,0,4,,,,,,,,,,,,,,,3,,,50,84
1090800,note_off,480,0,4,,,,,,,,,,,,,,,3,,,48,0
1090800,set_tempo,60,1,0,,,,,,,297029,,,,,,,,,,,,
1090800,note_off,0,0,3,,,,,,,,,,,,,,,2,,,60,0
1090800,note_on,960,0,1,,,,,,,,,,,,,,,0,,,79,83
1090800,control_change,160,0,3,,,,,,,,,,,,,64,0,2,,,,
1090800,note_on,0,0,2,,,,,,,,,,,,,,,1,,,67,83
1090800,note_on,960,0,2,,,,,,,,,,,,,,,1,,,77,83
1090860,control_change,60,0,3,,,,,,,,,,,,,64,127,2,,,,
1090960,note_on,100,0,3,,,,,,,,,,,,,,,2,,,55,72
1091120,note_off,160,0,3,,,,,,,,,,,,,,,2,,,55,0
1091120,note_on,0,0,3,,,,,,,,,,,,,,,2,,,62,68
1091280,note_off,0,0,3,,,,,,,,,,,,,,,2,,,62,0
1091280,note_off,480,0,4,,,,,,,,,,,,,,,3,,,50,0
1091280,note_on,0,0,4,,,,,,,,,,,,,,,3,,,47,65
1091280,control_change,160,0,3,,,,,,,,,,,,,64,0,2,,,,
1091280,note_on,0,0,2,,,,,,,,,,,,,,,1,,,74,80
1091280,note_off,480,0,2,,,,,,,,,,,,,,,1,,,77,0
1091340,control_change,60,0,3,,,,,,,,,,,,,64,127,2,,,,
1091440,note_on,100,0,3,,,,,,,,,,,,,,,2,,,55,65
1091600,note_on,0,0,3,,,,,,,,,,,,,,,2,,,59,65
1091600,note_off,160,0,3,,,,,,,,,,,,,,,2,,,55,0
1091760,note_off,480,0,2,,,,,,,,,,,,,,,1,,,74,0
1091760,note_on,0,0,2,,,,,,,,,,,,,,,1,,,75,78
1091760,note_off,480,0,4,,,,,,,,,,,,,,,3,,,47,0
1091760,note_on,0,0,4,,,,,,,,,,,,,,,3,,,48,64
1091760,note_off,0,0,3,,,,,,,,,,,,,,,2,,,59,0
1091760,control_change,160,0,3,,,,,,,,,,,,,64,0,2,,,,
1091820,control_change,60,0,3,,,,,,,,,,,,,64,127,2,,,,
1091920,note_on,100,0,3,,,,,,,,,,,,,,,2,,,55,64
1092080,note_off,160,0,3,,,,,,,,,,,,,,,2,,,55,0
1092080,note_on,0,0,3,,,,,,,,,,,,,,,2,,,60,64
1092240,note_off,0,0,3,,,,,,,,,,,,,,,2,,,60,0
1092240,note_on,0,0,2,,,,,,,,,,,,,,,1,,,74,77
1092240,note_on,0,0,4,,,,,,,,,,,,,,,3,,,47,64
1092240,note_off,480,0,2,,,,,,,,,,,,,,,1,,,75,0
1092240,note_off,480,0,4,,,,,,,,,,,,,,,3,,,48,0
1092240,control_change,160,0,3,,,,,,,,,,,,,64,0,2,,,,
1092300,control_change,60,0,3,,,,,,,,,,,,,64,127,2,,,,
1092400,note_on,100,0,3,,,,,,,,,,,,,,,2,,,55,63
1092560,note_off,160,0,3,,,,,,,,,,,,,,,2,,,55,0
1092560,note_on,0,0,3,,,,,,,,,,,,,,,2,,,59,63
1092720,note_on,0,0,2,,,,,,,,,,,,,,,1,,,75,76
1092720,note_off,480,0,2,,,,,,,,,,,,,,,1,,,74,0
1092720,note_on,0,0,4,,,,,,,,,,,,,,,3,,,48,63
1092720,control_change,160,0,3,,,,,,,,,,,,,64,0,2,,,,
1092720,note_off,0,0,3,,,,,,,,,,,,,,,2,,,59,0
1092720,note_off,480,0,4,,,,,,,,,,,,,,,3,,,47,0
1092780,control_change,60,0,3,,,,,,,,,,,,,64,127,2,,,,
1092880,note_on,100,0,3,,,,,,,,,,,,,,,2,,,55,63
1093040,note_on,0,0,3,,,,,,,,,,,,,,,2,,,60,62
1093040,note_off,160,0,3,,,,,,,,,,,,,,,2,,,55,0
1093200,note_off,2400,0,1,,,,,,,,,,,,,,,0,,,79,0
1093200,note_on,0,0,1,,,,,,,,,,,,,,,0,,,79,74
1093200,note_off,480,0,2,,,,,,,,,,,,,,,1,,,67,0
1093200,note_off,0,0,2,,,,,,,,,,,,,,,1,,,75,0
1093200,note_on,0,0,2,,,,,,,,,,,,,,,1,,,70,74
1093200,note_on,0,0,2,,,,,,,,,,,,,,,1,,,76,74
1093200,note_off,480,0,4,,,,,,,,,,,,,,,3,,,48,0
1093200,note_on,0,0,2,,,,,,,,,,,,,,,1,,,67,74
1093200,note_off,0,0,3,,,,,,,,,,,,,,,2,,,60,0
1093200,note_on,0,0,4,,,,,,,,,,,,,,,3,,,49,62
1093200,control_change,160,0,3,,,,,,,,,,,,,64,0,2,,,,
1093260,control_change,60,0,3,,,,,,,,,,,,,64,127,2,,,,
1093360,note_on,100,0,3,,,,,,,,,,,,,,,2,,,55,62
1093455,set_tempo,2655,1,0,,,,,,,300000,,,,,,,,,,,,
1093520,note_on,0,0,3,,,,,,,,,,,,,,,2,,,61,62
1093520,note_off,160,0,3,,,,,,,,,,,,,,,2,,,55,0
1093680,note_off,480,0,4,,,,,,,,,,,,,,,3,,,49,0
1093680,control_change,160,0,3,,,,,,,,,,,,,64,0,2,,,,
1093680,note_on,0,0,4,,,,,,,,,,,,,,,3,,,50,61
1093680,note_off,0,0,3,,,,,,,,,,,,,,,2,,,61,0
1093680,note_off,0,0,2,,,,,,,,,,,,,,,1,,,67,0
1093680,note_on,0,0,2,,,,,,,,,,,,,,,1,,,66,73
1093680,note_off,480,0,1,,,,,,,,,,,,,,,0,,,79,0
1093680,note_on,0,0,2,,,,,,,,,,,,,,,1,,,78,73
1093680,note_on,0,0,2,,,,,,,,,,,,,,,1,,,74,73
1093680,note_on,0,0,2,,,,,,,,,,,,,,,1,,,69,73
1093680,note_off,0,0,2,,,,,,,,,,,,,,,1,,,70,0
1093680,note_off,480,0,2,,,,,,,,,,,,,,,1,,,76,0
1093740,control_change,60,0,3,,,,,,,,,,,,,64,127,2,,,,
1093840,note_on,100,0,3,,,,,,,,,,,,,,,2,,,61,61
1094000,note_on,0,0,3,,,,,,,,,,,,,,,2,,,62,61
1094000,note_off,160,0,3,,,,,,,,,,,,,,,2,,,61,0
1094160,note_off,0,0,2,,,,,,,,,,,,,,,1,,,74,0
1094160,note_off,0,0,2,,,,,,,,,,,,,,,1,,,78,0
1094160,note_off,480,0,2,,,,,,,,,,,,,,,1,,,69,0
1094160,note_off,480,0,4,,,,,,,,,,,,,,,3,,,50,0
1094160,note_off,0,0,2,,,,,,,,,,,,,,,1,,,66,0
1094160,note_on,0,0,4,,,,,,,,,,,,,,,3,,,48,61
1094160,note_off,0,0,3,,,,,,,,,,,,,,,2,,,62,0
1094160,control_change,160,0,3,,,,,,,,,,,,,64,0,2,,,,
1094220,control_change,60,0,3,,,,,,,,,,,,,64,127,2,,,,
1094320,note_on,100,0,3,,,,,,,,,,,,,,,2,,,50,60
1094480,note_off,160,0,3,,,,,,,,,,,,,,,2,,,50,0
1094480,note_on,0,0,3,,,,,,,,,,,,,,,2,,,60,60
1094565,set_tempo,1110,1,0,,,,,,,298507,,,,,,,,,,,,
1094640,note_off,0,0,3,,,,,,,,,,,,,,,2,,,60,0
1094640,control_change,160,0,3,,,,,,,,,,,,,64,0,2,,,,
1094640,note_on,0,0,4,,,,,,,,,,,,,,,3,,,46,80
1094640,set_tempo,75,1,0,,,,,,,297029,,,,,,,,,,,,
1094640,note_off,480,0,4,,,,,,,,,,,,,,,3,,,48,0
1094640,note_on,960,0,1,,,,,,,,,,,,,,,0,,,86,79
1094700,control_change,60,0,3,,,,,,,,,,,,,64,127,2,,,,
1094800,note_on,100,0,3,,,,,,,,,,,,,,,2,,,50,72
1094960,note_off,160,0,3,,,,,,,,,,,,,,,2,,,50,0
1094960,note_on,0,0,3,,,,,,,,,,,,,,,2,,,58,69
1095120,note_off,480,0,4,,,,,,,,,,,,,,,3,,,46,0
1095120,note_on,960,0,2,,,,,,,,,,,,,,,1,,,84,69
1095120,note_on,0,0,4,,,,,,,,,,,,,,,3,,,45,63
1095120,control_change,160,0,3,,,,,,,,,,,,,64,0,2,,,,
1095120,note_off,0,0,3,,,,,,,,,,,,,,,2,,,58,0
1095180,control_change,60,0,3,,,,,,,,,,,,,64,127,2,,,,
1095280,note_on,100,0,3,,,,,,,,,,,,,,,2,,,50,63
1095440,note_on,0,0,3,,,,,,,,,,,,,,,2,,,57,60
1095440,note_off,160,0,3,,,,,,,,,,,,,,,2,,,50,0
1095600,note_off,480,0,2,,,,,,,,,,,,,,,1,,,84,0
1095600,note_on,0,0,4,,,,,,,,,,,,,,,3,,,43,58
1095600,note_off,480,0,4,,,,,,,,,,,,,,,3,,,45,0
1095600,control_change,160,0,3,,,,,,,,,,,,,64,0,2,,,,
1095600,note_off,0,0,3,,,,,,,,,,,,,,,2,,,57,0
1095600,note_on,0,0,2,,,,,,,,,,,,,,,1,,,82,67
1095660,control_change,60,0,3,,,,,,,,,,,,,64,127,2,,,,
1095760,note_on,100,0,3,,,,,,,,,,,,,,,2,,,50,58
1095920,note_off,160,0,3,,,,,,,,,,,,,,,2,,,50,0
1095920,note_on,0,0,3,,,,,,,,,,,,,,,2,,,55,58
1096080,note_on,0,0,2,,,,,,,,,,,,,,,1,,,81,66
1096080,note_off,480,0,2,,,,,,,,,,,,,,,1,,,82,0
1096080,note_off,480,0,4,,,,,,,,,,,,,,,3,,,43,0
1096080,control_change,160,0,3,,,,,,,,,,,,,64,0,2,,,,
1096080,note_on,0,0,4,,,,,,,,,,,,,,,3,,,42,58
1096080,note_off,0,0,3,,,,,,,,,,,,,,,2,,,55,0
1096140,control_change,60,0,3,,,,,,,,,,,,,64,127,2,,,,
1096240,note_on,100,0,3,,,,,,,,,,,,,,,2,,,50,57
1096400,note_off,160,0,3,,,,,,,,,,,,,,,2,,,50,0
1096400,note_on,0,0,3,,,,,,,,,,,,,,,2,,,54,57
1096560,note_off,0,0,3,,,,,,,,,,,,,,,2,,,54,0
1096560,control_change,160,0,3,,,,,,,,,,,,,64,0,2,,,,
1096560,note_off,480,0,4,,,,,,,,,,,,,,,3,,,42,0
1096560,note_on,0,0,2,,,,,,,,,,,,,,,1,,,82,65
1096560,note_off,480,0,2,,,,,,,,,,,,,,,1,,,81,0
1096560,note_on,0,0,4,,,,,,,,,,,,,,,3,,,43,57
1096620,control_change,60,0,3,,,,,,,,,,,,,64,127,2,,,,
1096720,note_on,100,0,3,,,,,,,,,,,,,,,2,,,50,57
1096880,note_off,160,0,3,,,,,,,,,,,,,,,2,,,50,0
1096880,note_on,0,0,3,,,,,,,,,,,,,,,2,,,55,56
1097032,note_off,2392,0,1,,,,,,,,,,,,,,,0,,,86,0
1097040,note_off,480,0,2,,,,,,,,,,,,,,,1,,,82,0
1097040,note_on,0,0,2,,,,,,,,,,,,,,,1,,,79,63
1097040,note_on,0,0,2,,,,,,,,,,,,,,,1,,,85,63
1097040,control_change,160,0,3,,,,,,,,,,,,,64,0,2,,,,
1097040,note_off,0,0,3,,,,,,,,,,,,,,,2,,,55,0
1097040,note_off,480,0,4,,,,,,,,,,,,,,,3,,,43,0
1097040,note_on,0,0,4,,,,,,,,,,,,,,,3,,,39,56
1097100,control_change,60,0,3,,,,,,,,,,,,,64,127,2,,,,
1097200,note_on,100,0,3,,,,,,,,,,,,,,,2,,,50,56
1097280,set_tempo,2640,1,0,,,,,,,298507,,,,,,,,,,,,
1097360,note_on,0,0,3,,,,,,,,,,,,,,,2,,,51,56
1097360,note_off,160,0,3,,,,,,,,,,,,,,,2,,,50,0
1097520,control_change,160,0,3,,,,,,,,,,,,,64,0,2,,,,
1097520,note_off,480,0,2,,,,,,,,,,,,,,,1,,,79,0
1097520,note_off,0,0,2,,,,,,,,,,,,,,,1,,,85,0
1097520,note_on,0,0,2,,,,,,,,,,,,,,,1,,,78,62
1097520,note_off,0,0,3,,,,,,,,,,,,,,,2,,,51,0
1097520,note_on,0,0,4,,,,,,,,,,,,,,,3,,,38,72
1097520,note_on,488,0,1,,,,,,,,,,,,,,,0,,,86,62
1097520,set_tempo,240,1,0,,,,,,,297029,,,,,,,,,,,,
1097520,note_off,480,0,4,,,,,,,,,,,,,,,3,,,39,0
1097580,control_change,60,0,3,,,,,,,,,,,,,64,127,2,,,,
1097680,note_on,100,0,3,,,,,,,,,,,,,,,2,,,49,66
1097840,note_off,160,0,3,,,,,,,,,,,,,,,2,,,49,0
1097840,note_on,0,0,3,,,,,,,,,,,,,,,2,,,50,62
1098000,note_off,480,0,2,,,,,,,,,,,,,,,1,,,78,0
1098000,control_change,160,0,3,,,,,,,,,,,,,64,0,2,,,,
1098000,note_off,480,0,1,,,,,,,,,,,,,,,0,,,86,0
1098000,note_on,0,0,4,,,,,,,,,,,,,,,3,,,48,55
1098000,note_off,480,0,4,,,,,,,,,,,,,,,3,,,38,0
1098000,note_off,0,0,3,,,,,,,,,,,,,,,2,,,50,0
1098060,control_change,60,0,3,,,,,,,,,,,,,64,127,2,,,,
1098160,note_on,100,0,3,,,,,,,,,,,,,,,2,,,50,54
1098320,note_off,160,0,3,,,,,,,,,,,,,,,2,,,50,0
1098320,note_on,0,0,3,,,,,,,,,,,,,,,2,,,60,54
1098405,set_tempo,885,1,0,,,,,,,298507,,,,,,,,,,,,
1098480,note_on,0,0,4,,,,,,,,,,,,,,,3,,,46,54
1098480,note_off,480,0,4,,,,,,,,,,,,,,,3,,,48,0
1098480,set_tempo,75,1,0,,,,,,,297029,,,,,,,,,,,,
1098480,control_change,160,0,3,,,,,,,,,,,,,64,0,2,,,,
1098480,note_off,0,0,3,,,,,,,,,,,,,,,2,,,60,0
1098480,note_on,480,0,1,,,,,,,,,,,,,,,0,,,74,67
1098540,control_change,60,0,3,,,,,,,,,,,,,64,127,2,,,,
1098640,note_on,100,0,3,,,,,,,,,,,,,,,2,,,50,54
1098800,note_on,0,0,3,,,,,,,,,,,,,,,2,,,58,53
1098800,note_off,160,0,3,,,,,,,,,,,,,,,2,,,50,0
1098960,note_off,0,0,3,,,,,,,,,,,,,,,2,,,58,0
1098960,control_change,160,0,3,,,,,,,,,,,,,64,0,2,,,,
1098960,note_off,480,0,4,,,,,,,,,,,,,,,3,,,46,0
1098960,note_on,0,0,4,,,,,,,,,,,,,,,3,,,45,53
1098960,note_on,960,0,2,,,,,,,,,,,,,,,1,,,72,58
1099020,control_change,60,0,3,,,,,,,,,,,,,64,127,2,,,,
1099120,note_on,100,0,3,,,,,,,,,,,,,,,2,,,50,53
1099280,note_off,160,0,3,,,,,,,,,,,,,,,2,,,50,0
1099280,note_on,0,0,3,,,,,,,,,,,,,,,2,,,57,53
1099440,control_change,160,0,3,,,,,,,,,,,,,64,0,2,,,,
1099440,note_on,0,0,2,,,,,,,,,,,,,,,1,,,70,56
1099440,note_off,480,0,2,,,,,,,,,,,,,,,1,,,72,0
1099440,note_off,0,0,3,,,,,,,,,,,,,,,2,,,57,0
1099440,note_off,480,0,4,,,,,,,,,,,,,,,3,,,45,0
1099440,note_on,0,0,4,,,,,,,,,,,,,,,3,,,43,52
1099500,control_change,60,0,3,,,,,,,,,,,,,64,127,2,,,,
1099600,note_on,100,0,3,,,,,,,,,,,,,,,2,,,50,52
1099760,note_off,160,0,3,,,,,,,,,,,,,,,2,,,50,0
1099760,note_on,0,0,3,,,,,,,,,,,,,,,2,,,55,52
1099920,control_change,160,0,3,,,,,,,,,,,,,64,0,2,,,,
1099920,note_on,0,0,2,,,,,,,,,,,,,,,1,,,69,55
1099920,note_off,480,0,2,,,,,,,,,,,,,,,1,,,70,0
1099920,note_off,0,0,3,,,,,,,,,,,,,,,2,,,55,0
1099920,note_off,480,0,4,,,,,,,,,,,,,,,3,,,43,0
1099920,note_on,0,0,4,,,,,,,,,,,,,,,3,,,42,52
1099980,control_change,60,0,3,,,,,,,,,,,,,64,127,2,,,,
1100080,note_on,100,0,3,,,,,,,,,,,,,,,2,,,50,51
1100240,note_off,160,0,3,,,,,,,,,,,,,,,2,,,50,0
1100240,note_on,0,0,3,,,,,,,,,,,,,,,2,,,54,51
1100400,control_change,160,0,3,,,,,,,,,,,,,64,0,2,,,,
1100400,note_off,0,0,3,,,,,,,,,,,,,,,2,,,54,0
1100400,note_on,0,0,2,,,,,,,,,,,,,,,1,,,70,53
1100400,note_off,480,0,2,,,,,,,,,,,,,,,1,,,69,0
1100400,note_on,0,0,4,,,,,,,,,,,,,,,3,,,43,51
1100400,note_off,480,0,4,,,,,,,,,,,,,,,3,,,42,0
1100460,control_change,60,0,3,,,,,,,,,,,,,64,127,2,,,,
1100560,note_on,100,0,3,,,,,,,,,,,,,,,2,,,50,51
1100720,note_off,160,0,3,,,,,,,,,,,,,,,2,,,50,0
1100720,note_on,0,0,3,,,,,,,,,,,,,,,2,,,55,50
1100865,note_off,2385,0,1,,,,,,,,,,,,,,,0,,,74,0
1100880,note_off,0,0,3,,,,,,,,,,,,,,,2,,,55,0
1100880,control_change,160,0,3,,,,,,,,,,,,,64,0,2,,,,
1100880,note_on,0,0,4,,,,,,,,,,,,,,,3,,,39,50
1100880,note_on,0,0,2,,,,,,,,,,,,,,,1,,,67,52
1100880,note_on,0,0,2,,,,,,,,,,,,,,,1,,,73,52
1100880,note_off,480,0,2,,,,,,,,,,,,,,,1,,,70,0
1100880,note_on,15,0,1,,,,,,,,,,,,,,,0,,,79,52
1100880,note_off,480,0,4,,,,,,,,,,,,,,,3,,,43,0
1100940,control_change,60,0,3,,,,,,,,,,,,,64,127,2,,,,
1101040,note_on,100,0,3,,,,,,,,,,,,,,,2,,,50,50
1101200,note_on,0,0,3,,,,,,,,,,,,,,,2,,,51,50
1101200,note_off,160,0,3,,,,,,,,,,,,,,,2,,,50,0
1101240,set_tempo,2760,1,0,,,,,,,298507,,,,,,,,,,,,
1101360,note_on,0,0,4,,,,,,,,,,,,,,,3,,,38,68
1101360,note_on,0,0,3,,,,,,,,,,,,,,,2,,,50,67
1101360,control_change,0,0,3,,,,,,,,,,,,,64,0,2,,,,
1101360,note_off,480,0,4,,,,,,,,,,,,,,,3,,,39,0
1101360,control_change,160,0,3,,,,,,,,,,,,,64,0,2,,,,
1101360,note_on,0,0,2,,,,,,,,,,,,,,,1,,,66,59
1101360,note_on,0,0,2,,,,,,,,,,,,,,,1,,,74,59
1101360,note_off,0,0,2,,,,,,,,,,,,,,,1,,,73,0
1101360,note_off,480,0,1,,,,,,,,,,,,,,,0,,,79,0
1101360,note_on,0,0,1,,,,,,,,,,,,,,,0,,,78,59
1101360,note_off,480,0,2,,,,,,,,,,,,,,,1,,,67,0
1101360,note_off,0,0,3,,,,,,,,,,,,,,,2,,,51,0
1101375,set_tempo,135,1,0,,,,,,,297029,,,,,,,,,,,,
1101420,control_change,60,0,3,,,,,,,,,,,,,64,127,2,,,,
1101520,note_on,0,0,3,,,,,,,,,,,,,,,2,,,62,57
1101520,note_off,100,0,3,,,,,,,,,,,,,,,2,,,50,0
1101680,note_off,160,0,3,,,,,,,,,,,,,,,2,,,62,0
1101680,note_on,0,0,3,,,,,,,,,,,,,,,2,,,50,47
1101840,note_on,0,0,3,,,,,,,,,,,,,,,2,,,62,39
1101840,note_off,160,0,3,,,,,,,,,,,,,,,2,,,50,0
1101840,note_off,480,0,1,,,,,,,,,,,,,,,0,,,78,0
1101840,note_off,0,0,2,,,,,,,,,,,,,,,1,,,66,0
1101840,note_off,480,0,2,,,,,,,,,,,,,,,1,,,74,0
1102000,note_off,160,0,3,,,,,,,,,,,,,,,2,,,62,0
1102000,note_on,0,0,3,,,,,,,,,,,,,,,2,,,50,39
1102160,note_off,160,0,3,,,,,,,,,,,,,,,2,,,50,0
1102160,note_on,0,0,3,,,,,,,,,,,,,,,2,,,62,39
1102320,note_off,160,0,3,,,,,,,,,,,,,,,2,,,62,0
1102320,note_on,0,0,3,,,,,,,,,,,,,,,2,,,50,38
1102480,note_off,160,0,3,,,,,,,,,,,,,,,2,,,50,0
1102480,note_on,0,0,3,,,,,,,,,,,,,,,2,,,62,38
1102640,note_on,0,0,3,,,,,,,,,,,,,,,2,,,50,38
1102640,note_off,160,0,3,,,,,,,,,,,,,,,2,,,62,0
1102800,note_off,160,0,3,,,,,,,,,,,,,,,2,,,50,0
1102800,note_on,0,0,3,,,,,,,,,,,,,,,2,,,62,38
1102960,note_off,160,0,3,,,,,,,,,,,,,,,2,,,62,0
1102960,note_on,0,0,3,,,,,,,,,,,,,,,2,,,50,37
1103120,note_off,160,0,3,,,,,,,,,,,,,,,2,,,50,0
1103120,note_on,0,0,3,,,,,,,,,,,,,,,2,,,62,37
1103280,note_off,160,0,3,,,,,,,,,,,,,,,2,,,62,0
1103280,note_on,0,0,3,,,,,,,,,,,,,,,2,,,50,37
1103440,note_off,160,0,3,,,,,,,,,,,,,,,2,,,50,0
1103440,note_on,0,0,3,,,,,,,,,,,,,,,2,,,62,36
1103600,note_on,0,0,3,,,,,,,,,,,,,,,2,,,50,36
1103600,note_off,160,0,3,,,,,,,,,,,,,,,2,,,62,0
1103760,note_off,160,0,3,,,,,,,,,,,,,,,2,,,50,0
1103760,note_on,0,0,3,,,,,,,,,,,,,,,2,,,62,36
1103920,note_off,160,0,3,,,,,,,,,,,,,,,2,,,62,0
1103920,note_on,0,0,3,,,,,,,,,,,,,,,2,,,50,35
1104080,note_off,160,0,3,,,,,,,,,,,,,,,2,,,50,0
1104080,note_on,0,0,3,,,,,,,,,,,,,,,2,,,62,35
1104240,note_off,160,0,3,,,,,,,,,,,,,,,2,,,62,0
1104240,note_on,0,0,3,,,,,,,,,,,,,,,2,,,50,35
1104400,note_off,160,0,3,,,,,,,,,,,,,,,2,,,50,0
1104400,note_on,0,0,3,,,,,,,,,,,,,,,2,,,62,34
1104560,note_off,160,0,3,,,,,,,,,,,,,,,2,,,62,0
1104560,note_on,0,0,3,,,,,,,,,,,,,,,2,,,50,34
1104720,note_on,0,0,3,,,,,,,,,,,,,,,2,,,62,34
1104720,note_off,160,0,3,,,,,,,,,,,,,,,2,,,50,0
1104880,note_off,160,0,3,,,,,,,,,,,,,,,2,,,62,0
1104880,note_on,0,0,3,,,,,,,,,,,,,,,2,,,50,34
1105040,note_off,160,0,3,,,,,,,,,,,,,,,2,,,50,0
1105040,note_on,0,0,3,,,,,,,,,,,,,,,2,,,62,33
1105200,note_off,160,0,3,,,,,,,,,,,,,,,2,,,62,0
1105200,note_on,0,0,3,,,,,,,,,,,,,,,2,,,50,33
1105360,note_off,160,0,3,,,,,,,,,,,,,,,2,,,50,0
1105360,note_on,0,0,3,,,,,,,,,,,,,,,2,,,62,33
1105520,note_on,0,0,3,,,,,,,,,,,,,,,2,,,50,32
1105520,note_off,160,0,3,,,,,,,,,,,,,,,2,,,62,0
1105680,note_off,160,0,3,,,,,,,,,,,,,,,2,,,50,0
1105680,note_on,0,0,3,,,,,,,,,,,,,,,2,,,62,32
1105840,note_off,160,0,3,,,,,,,,,,,,,,,2,,,62,0
1105840,note_on,0,0,3,,,,,,,,,,,,,,,2,,,50,32
1106000,note_off,160,0,3,,,,,,,,,,,,,,,2,,,50,0
1106000,note_on,0,0,3,,,,,,,,,,,,,,,2,,,62,31
1106160,note_off,160,0,3,,,,,,,,,,,,,,,2,,,62,0
1106160,note_on,0,0,3,,,,,,,,,,,,,,,2,,,50,31
1106320,note_on,0,0,3,,,,,,,,,,,,,,,2,,,62,31
1106320,note_off,160,0,3,,,,,,,,,,,,,,,2,,,50,0
1106480,note_off,160,0,3,,,,,,,,,,,,,,,2,,,62,0
1106480,note_on,0,0,3,,,,,,,,,,,,,,,2,,,50,30
1106640,note_off,160,0,3,,,,,,,,,,,,,,,2,,,50,0
1106640,note_on,0,0,3,,,,,,,,,,,,,,,2,,,62,30
1106800,note_off,160,0,3,,,,,,,,,,,,,,,2,,,62,0
1106800,note_on,0,0,3,,,,,,,,,,,,,,,2,,,50,30
1106960,note_off,160,0,3,,,,,,,,,,,,,,,2,,,50,0
1106960,note_on,0,0,3,,,,,,,,,,,,,,,2,,,62,30
1107120,note_off,160,0,3,,,,,,,,,,,,,,,2,,,62,0
1107120,note_on,0,0,3,,,,,,,,,,,,,,,2,,,50,29
1107280,note_off,160,0,3,,,,,,,,,,,,,,,2,,,50,0
1107280,note_on,0,0,3,,,,,,,,,,,,,,,2,,,62,29
1107440,note_off,160,0,3,,,,,,,,,,,,,,,2,,,62,0
1107440,note_on,0,0,3,,,,,,,,,,,,,,,2,,,50,29
1107600,note_off,160,0,3,,,,,,,,,,,,,,,2,,,50,0
1107600,note_on,0,0,3,,,,,,,,,,,,,,,2,,,62,28
1107760,note_on,0,0,3,,,,,,,,,,,,,,,2,,,50,28
1107760,note_off,160,0,3,,,,,,,,,,,,,,,2,,,62,0
1107855,set_tempo,6480,1,0,,,,,,,300000,,,,,,,,,,,,
1107920,note_off,160,0,3,,,,,,,,,,,,,,,2,,,50,0
1107920,note_on,0,0,3,,,,,,,,,,,,,,,2,,,62,28
1108080,note_on,6240,0,1,,,,,,,,,,,,,,,0,,,86,50
1108080,note_off,160,0,3,,,,,,,,,,,,,,,2,,,62,0
1108080,note_on,0,0,4,,,,,,,,,,,,,,,3,,,47,52
1108080,note_off,6720,0,4,,,,,,,,,,,,,,,3,,,38,0
1108080,note_on,6240,0,2,,,,,,,,,,,,,,,1,,,74,50
1108095,set_tempo,240,1,0,,,,,,,297029,,,,,,,,,,,,
1108240,note_on,160,0,3,,,,,,,,,,,,,,,2,,,62,28
1108320,note_off,240,0,1,,,,,,,,,,,,,,,0,,,86,0
1108320,note_on,0,0,1,,,,,,,,,,,,,,,0,,,85,49
1108320,note_on,0,0,2,,,,,,,,,,,,,,,1,,,73,49
1108320,note_off,240,0,2,,,,,,,,,,,,,,,1,,,74,0
1108400,note_off,160,0,3,,,,,,,,,,,,,,,2,,,62,0
1108400,note_on,0,0,3,,,,,,,,,,,,,,,2,,,50,28
1108560,note_off,160,0,3,,,,,,,,,,,,,,,2,,,50,0
1108560,note_on,0,0,3,,,,,,,,,,,,,,,2,,,62,28
1108560,note_on,0,0,2,,,,,,,,,,,,,,,1,,,74,48
1108560,note_off,240,0,1,,,,,,,,,,,,,,,0,,,85,0
1108560,note_on,0,0,1,,,,,,,,,,,,,,,0,,,86,48
1108560,note_off,240,0,2,,,,,,,,,,,,,,,1,,,73,0
1108720,note_off,160,0,3,,,,,,,,,,,,,,,2,,,62,0
1108720,note_on,0,0,3,,,,,,,,,,,,,,,2,,,50,29
1108800,note_on,0,0,1,,,,,,,,,,,,,,,0,,,88,47
1108800,note_on,0,0,2,,,,,,,,,,,,,,,1,,,76,47
1108800,note_off,240,0,1,,,,,,,,,,,,,,,0,,,86,0
1108800,note_off,240,0,2,,,,,,,,,,,,,,,1,,,74,0
1108880,note_off,160,0,3,,,,,,,,,,,,,,,2,,,50,0
1108880,note_on,0,0,3,,,,,,,,,,,,,,,2,,,62,29
1108890,note_off,810,0,4,,,,,,,,,,,,,,,3,,,47,0
1109040,note_off,240,0,2,,,,,,,,,,,,,,,1,,,76,0
1109040,note_on,0,0,2,,,,,,,,,,,,,,,1,,,74,47
1109040,note_on,150,0,4,,,,,,,,,,,,,,,3,,,48,53
1109040,note_off,240,0,1,,,,,,,,,,,,,,,0,,,88,0
1109040,note_off,160,0,3,,,,,,,,,,,,,,,2,,,62,0
1109040,note_on,0,0,1,,,,,,,,,,,,,,,0,,,86,47
1109200,note_on,160,0,3,,,,,,,,,,,,,,,2,,,62,29
1109360,note_off,160,0,3,,,,,,,,,,,,,,,2,,,62,0
1109360,note_on,0,0,3,,,,,,,,,,,,,,,2,,,50,30
1109400,note_off,360,0,2,,,,,,,,,,,,,,,1,,,74,0
1109400,note_off,360,0,1,,,,,,,,,,,,,,,0,,,86,0
1109520,note_on,0,0,3,,,,,,,,,,,,,,,2,,,62,30
1109520,note_on,120,0,1,,,,,,,,,,,,,,,0,,,74,46
1109520,note_off,160,0,3,,,,,,,,,,,,,,,2,,,50,0
1109520,note_on,120,0,2,,,,,,,,,,,,,,,1,,,62,46
1109680,note_off,160,0,3,,,,,,,,,,,,,,,2,,,62,0
1109680,note_on,0,0,3,,,,,,,,,,,,,,,2,,,50,30
1109840,note_off,160,0,3,,,,,,,,,,,,,,,2,,,50,0
1109840,note_on,0,0,3,,,,,,,,,,,,,,,2,,,62,30
1109850,note_off,810,0,4,,,,,,,,,,,,,,,3,,,48,0
1110000,note_on,150,0,4,,,,,,,,,,,,,,,3,,,45,54
1110000,note_off,480,0,1,,,,,,,,,,,,,,,0,,,74,0
1110000,note_on,0,0,1,,,,,,,,,,,,,,,0,,,76,47
1110000,note_off,160,0,3,,,,,,,,,,,,,,,2,,,62,0
1110000,note_on,0,0,2,,,,,,,,,,,,,,,1,,,64,47
1110000,note_off,480,0,2,,,,,,,,,,,,,,,1,,,62,0
1110160,note_on,160,0,3,,,,,,,,,,,,,,,2,,,62,31
1110320,note_off,160,0,3,,,,,,,,,,,,,,,2,,,62,0
1110320,note_on,0,0,3,,,,,,,,,,,,,,,2,,,50,31
1110480,note_off,160,0,3,,,,,,,,,,,,,,,2,,,50,0
1110480,note_off,480,0,2,,,,,,,,,,,,,,,1,,,64,0
1110480,note_on,0,0,2,,,,,,,,,,,,,,,1,,,66,48
1110480,note_on,0,0,3,,,,,,,,,,,,,,,2,,,62,31
1110480,note_on,0,0,1,,,,,,,,,,,,,,,0,,,78,48
1110480,note_off,480,0,1,,,,,,,,,,,,,,,0,,,76,0
1110640,note_on,0,0,3,,,,,,,,,,,,,,,2,,,50,31
1110640,note_off,160,0,3,,,,,,,,,,,,,,,2,,,62,0
1110800,note_off,160,0,3,,,,,,,,,,,,,,,2,,,50,0
1110800,note_on,0,0,3,,,,,,,,,,,,,,,2,,,62,32
1110810,note_off,810,0,4,,,,,,,,,,,,,,,3,,,45,0
1110960,note_on,0,0,2,,,,,,,,,,,,,,,1,,,67,48
1110960,note_off,480,0,2,,,,,,,,,,,,,,,1,,,66,0
1110960,note_on,0,0,1,,,,,,,,,,,,,,,0,,,79,48
1110960,note_off,160,0,3,,,,,,,,,,,,,,,2,,,62,0
1110960,note_off,480,0,1,,,,,,,,,,,,,,,0,,,78,0
1110960,note_on,150,0,4,,,,,,,,,,,,,,,3,,,47,55
1111120,note_on,160,0,3,,,,,,,,,,,,,,,2,,,62,32
1111280,note_on,0,0,3,,,,,,,,,,,,,,,2,,,50,32
1111280,note_off,160,0,3,,,,,,,,,,,,,,,2,,,62,0
1111440,note_off,160,0,3,,,,,,,,,,,,,,,2,,,50,0
1111440,note_on,0,0,3,,,,,,,,,,,,,,,2,,,62,33
1111600,note_on,0,0,3,,,,,,,,,,,,,,,2,,,50,33
1111600,note_off,160,0,3,,,,,,,,,,,,,,,2,,,62,0
1111760,note_off,160,0,3,,,,,,,,,,,,,,,2,,,50,0
1111760,note_on,0,0,3,,,,,,,,,,,,,,,2,,,62,33
1111770,note_off,810,0,4,,,,,,,,,,,,,,,3,,,47,0
1111920,note_off,160,0,3,,,,,,,,,,,,,,,2,,,62,0
1111920,note_on,150,0,4,,,,,,,,,,,,,,,3,,,42,56
1111920,note_on,0,0,1,,,,,,,,,,,,,,,0,,,83,49
1111920,note_on,0,0,2,,,,,,,,,,,,,,,1,,,71,49
1111920,note_off,960,0,2,,,,,,,,,,,,,,,1,,,67,0
1111920,note_off,960,0,1,,,,,,,,,,,,,,,0,,,79,0
1112080,note_on,160,0,3,,,,,,,,,,,,,,,2,,,62,33
1112160,note_on,0,0,1,,,,,,,,,,,,,,,0,,,81,50
1112160,note_off,240,0,2,,,,,,,,,,,,,,,1,,,71,0
1112160,note_on,0,0,2,,,,,,,,,,,,,,,1,,,69,50
1112160,note_off,240,0,1,,,,,,,,,,,,,,,0,,,83,0
1112240,note_on,0,0,3,,,,,,,,,,,,,,,2,,,50,34
1112240,note_off,160,0,3,,,,,,,,,,,,,,,2,,,62,0
1112400,note_off,240,0,2,,,,,,,,,,,,,,,1,,,69,0
1112400,note_on,0,0,3,,,,,,,,,,,,,,,2,,,62,34
1112400,note_off,160,0,3,,,,,,,,,,,,,,,2,,,50,0
1112400,note_on,0,0,1,,,,,,,,,,,,,,,0,,,79,50
1112400,note_on,0,0,2,,,,,,,,,,,,,,,1,,,67,50
1112400,note_off,240,0,1,,,,,,,,,,,,,,,0,,,81,0
1112560,note_on,0,0,3,,,,,,,,,,,,,,,2,,,50,34
1112560,note_off,160,0,3,,,,,,,,,,,,,,,2,,,62,0
1112640,note_off,240,0,2,,,,,,,,,,,,,,,1,,,67,0
1112640,note_on,0,0,2,,,,,,,,,,,,,,,1,,,69,50
1112640,note_off,240,0,1,,,,,,,,,,,,,,,0,,,79,0
1112640,note_on,0,0,1,,,,,,,,,,,,,,,0,,,81,50
1112655,set_tempo,4560,1,0,,,,,,,298507,,,,,,,,,,,,
1112720,note_off,160,0,3,,,,,,,,,,,,,,,2,,,50,0
1112720,note_on,0,0,3,,,,,,,,,,,,,,,2,,,62,34
1112730,note_off,810,0,4,,,,,,,,,,,,,,,3,,,42,0
1112880,note_on,150,0,4,,,,,,,,,,,,,,,3,,,43,57
1112880,note_off,240,0,2,,,,,,,,,,,,,,,1,,,69,0
1112880,note_on,0,0,2,,,,,,,,,,,,,,,1,,,71,51
1112880,note_off,160,0,3,,,,,,,,,,,,,,,2,,,62,0
1112880,note_on,0,0,1,,,,,,,,,,,,,,,0,,,83,51
1112880,note_off,240,0,1,,,,,,,,,,,,,,,0,,,81,0
1113040,note_on,160,0,3,,,,,,,,,,,,,,,2,,,62,35
1113200,note_off,160,0,3,,,,,,,,,,,,,,,2,,,62,0
1113200,note_on,0,0,3,,,,,,,,,,,,,,,2,,,50,35
1113360,note_on,0,0,1,,,,,,,,,,,,,,,0,,,79,51
1113360,note_on,0,0,3,,,,,,,,,,,,,,,2,,,62,35
1113360,note_off,480,0,2,,,,,,,,,,,,,,,1,,,71,0
1113360,note_on,0,0,2,,,,,,,,,,,,,,,1,,,67,51
1113360,note_off,480,0,1,,,,,,,,,,,,,,,0,,,83,0
1113360,note_off,160,0,3,,,,,,,,,,,,,,,2,,,50,0
1113520,note_off,160,0,3,,,,,,,,,,,,,,,2,,,62,0
1113520,note_on,0,0,3,,,,,,,,,,,,,,,2,,,50,36
1113680,note_off,160,0,3,,,,,,,,,,,,,,,2,,,50,0
1113680,note_on,0,0,3,,,,,,,,,,,,,,,2,,,62,36
1113690,note_off,810,0,4,,,,,,,,,,,,,,,3,,,43,0
1113840,note_on,150,0,4,,,,,,,,,,,,,,,3,,,40,58
1113840,note_on,0,0,1,,,,,,,,,,,,,,,0,,,85,52
1113840,note_off,480,0,2,,,,,,,,,,,,,,,1,,,67,0
1113840,note_on,0,0,2,,,,,,,,,,,,,,,1,,,73,52
1113840,note_off,160,0,3,,,,,,,,,,,,,,,2,,,62,0
1113840,note_off,480,0,1,,,,,,,,,,,,,,,0,,,79,0
1114000,note_on,160,0,3,,,,,,,,,,,,,,,2,,,62,36
1114160,note_off,160,0,3,,,,,,,,,,,,,,,2,,,62,0
1114160,note_on,0,0,3,,,,,,,,,,,,,,,2,,,50,36
1114320,note_off,480,0,2,,,,,,,,,,,,,,,1,,,73,0
1114320,note_off,480,0,1,,,,,,,,,,,,,,,0,,,85,0
1114320,note_on,0,0,1,,,,,,,,,,,,,,,0,,,81,53
1114320,note_off,160,0,3,,,,,,,,,,,,,,,2,,,50,0
1114320,note_on,0,0,2,,,,,,,,,,,,,,,1,,,69,53
1114320,note_on,0,0,3,,,,,,,,,,,,,,,2,,,62,37
1114480,note_off,160,0,3,,,,,,,,,,,,,,,2,,,62,0
1114480,note_on,0,0,3,,,,,,,,,,,,,,,2,,,50,37
1114590,set_tempo,1935,1,0,,,,,,,300000,,,,,,,,,,,,
1114640,note_on,0,0,3,,,,,,,,,,,,,,,2,,,62,37
1114640,note_off,160,0,3,,,,,,,,,,,,,,,2,,,50,0
1114650,note_off,810,0,4,,,,,,,,,,,,,,,3,,,40,0
1114800,note_off,480,0,2,,,,,,,,,,,,,,,1,,,69,0
1114800,note_on,0,0,2,,,,,,,,,,,,,,,1,,,74,53
1114800,note_off,160,0,3,,,,,,,,,,,,,,,2,,,62,0
1114800,note_off,480,0,1,,,,,,,,,,,,,,,0,,,81,0
1114800,note_on,0,0,1,,,,,,,,,,,,,,,0,,,86,53
1114800,note_on,150,0,4,,,,,,,,,,,,,,,3,,,38,59
1114960,note_on,160,0,3,,,,,,,,,,,,,,,2,,,62,39
1115120,note_off,160,0,3,,,,,,,,,,,,,,,2,,,62,0
1115120,note_on,0,0,3,,,,,,,,,,,,,,,2,,,50,39
1115280,note_off,160,0,3,,,,,,,,,,,,,,,2,,,50,0
1115280,note_on,0,0,3,,,,,,,,,,,,,,,2,,,62,39
1115440,note_off,160,0,3,,,,,,,,,,,,,,,2,,,62,0
1115440,note_on,0,0,3,,,,,,,,,,,,,,,2,,,50,38
1115520,set_tempo,930,1,0,,,,,,,301507,,,,,,,,,,,,
1115600,note_on,0,0,3,,,,,,,,,,,,,,,2,,,62,38
1115600,note_off,160,0,3,,,,,,,,,,,,,,,2,,,50,0
1115610,note_off,810,0,4,,,,,,,,,,,,,,,3,,,38,0
1115760,note_off,160,0,3,,,,,,,,,,,,,,,2,,,62,0
1115760,note_off,960,0,1,,,,,,,,,,,,,,,0,,,86,0
1115760,note_on,0,0,1,,,,,,,,,,,,,,,0,,,86,50
1115760,note_on,150,0,4,,,,,,,,,,,,,,,3,,,47,58
1115760,note_off,960,0,2,,,,,,,,,,,,,,,1,,,74,0
1115760,note_on,0,0,2,,,,,,,,,,,,,,,1,,,74,50
1115775,set_tempo,255,1,0,,,,,,,297029,,,,,,,,,,,,
1115920,note_on,160,0,3,,,,,,,,,,,,,,,2,,,62,38
1116000,note_off,240,0,1,,,,,,,,,,,,,,,0,,,86,0
1116000,note_off,240,0,2,,,,,,,,,,,,,,,1,,,74,0
1116000,note_on,0,0,2,,,,,,,,,,,,,,,1,,,73,49
1116000,note_on,0,0,1,,,,,,,,,,,,,,,0,,,85,49
1116080,note_on,0,0,3,,,,,,,,,,,,,,,2,,,50,38
1116080,note_off,160,0,3,,,,,,,,,,,,,,,2,,,62,0
1116240,note_on,0,0,3,,,,,,,,,,,,,,,2,,,62,37
1116240,note_on,0,0,1,,,,,,,,,,,,,,,0,,,86,48
1116240,note_off,240,0,1,,,,,,,,,,,,,,,0,,,85,0
1116240,note_off,160,0,3,,,,,,,,,,,,,,,2,,,50,0
1116240,note_on,0,0,2,,,,,,,,,,,,,,,1,,,74,48
1116240,note_off,240,0,2,,,,,,,,,,,,,,,1,,,73,0
1116400,note_on,0,0,3,,,,,,,,,,,,,,,2,,,50,37
1116400,note_off,160,0,3,,,,,,,,,,,,,,,2,,,62,0
1116480,note_off,240,0,2,,,,,,,,,,,,,,,1,,,74,0
1116480,note_on,0,0,2,,,,,,,,,,,,,,,1,,,76,47
1116480,note_on,0,0,1,,,,,,,,,,,,,,,0,,,88,47
1116480,note_off,240,0,1,,,,,,,,,,,,,,,0,,,86,0
1116560,note_on,0,0,3,,,,,,,,,,,,,,,2,,,62,37
1116560,note_off,160,0,3,,,,,,,,,,,,,,,2,,,50,0
1116570,note_off,810,0,4,,,,,,,,,,,,,,,3,,,47,0
1116720,note_on,150,0,4,,,,,,,,,,,,,,,3,,,48,55
1116720,note_on,0,0,1,,,,,,,,,,,,,,,0,,,86,46
1116720,note_off,240,0,1,,,,,,,,,,,,,,,0,,,88,0
1116720,note_off,160,0,3,,,,,,,,,,,,,,,2,,,62,0
1116720,note_off,240,0,2,,,,,,,,,,,,,,,1,,,76,0
1116720,note_on,0,0,2,,,,,,,,,,,,,,,1,,,74,46
1116880,note_on,160,0,3,,,,,,,,,,,,,,,2,,,62,36
1117040,note_off,160,0,3,,,,,,,,,,,,,,,2,,,62,0
1117040,note_on,0,0,3,,,,,,,,,,,,,,,2,,,50,36
1117080,note_off,360,0,2,,,,,,,,,,,,,,,1,,,74,0
1117080,note_off,360,0,1,,,,,,,,,,,,,,,0,,,86,0
1117200,note_on,120,0,2,,,,,,,,,,,,,,,1,,,62,46
1117200,note_on,120,0,1,,,,,,,,,,,,,,,0,,,74,46
1117200,note_on,0,0,3,,,,,,,,,,,,,,,2,,,62,36
1117200,note_off,160,0,3,,,,,,,,,,,,,,,2,,,50,0
1117360,note_on,0,0,3,,,,,,,,,,,,,,,2,,,50,36
1117360,note_off,160,0,3,,,,,,,,,,,,,,,2,,,62,0
1117520,note_off,160,0,3,,,,,,,,,,,,,,,2,,,50,0
1117520,note_on,0,0,3,,,,,,,,,,,,,,,2,,,62,35
1117530,note_off,810,0,4,,,,,,,,,,,,,,,3,,,48,0
1117680,note_off,160,0,3,,,,,,,,,,,,,,,2,,,62,0
1117680,note_on,0,0,2,,,,,,,,,,,,,,,1,,,64,47
1117680,note_off,480,0,2,,,,,,,,,,,,,,,1,,,62,0
1117680,note_on,150,0,4,,,,,,,,,,,,,,,3,,,45,55
1117680,note_off,480,0,1,,,,,,,,,,,,,,,0,,,74,0
1117680,note_on,0,0,1,,,,,,,,,,,,,,,0,,,76,47
1117840,note_on,160,0,3,,,,,,,,,,,,,,,2,,,62,35
1118000,note_off,160,0,3,,,,,,,,,,,,,,,2,,,62,0
1118000,note_on,0,0,3,,,,,,,,,,,,,,,2,,,50,35
1118160,note_on,0,0,3,,,,,,,,,,,,,,,2,,,62,34
1118160,note_off,160,0,3,,,,,,,,,,,,,,,2,,,50,0
1118160,note_on,0,0,1,,,,,,,,,,,,,,,0,,,78,48
1118160,note_off,480,0,2,,,,,,,,,,,,,,,1,,,64,0
1118160,note_on,0,0,2,,,,,,,,,,,,,,,1,,,66,48
1118160,note_off,480,0,1,,,,,,,,,,,,,,,0,,,76,0
1118320,note_on,0,0,3,,,,,,,,,,,,,,,2,,,50,34
1118320,note_off,160,0,3,,,,,,,,,,,,,,,2,,,62,0
1118480,note_on,0,0,3,,,,,,,,,,,,,,,2,,,62,34
1118480,note_off,160,0,3,,,,,,,,,,,,,,,2,,,50,0
1118490,note_off,810,0,4,,,,,,,,,,,,,,,3,,,45,0
1118640,note_off,160,0,3,,,,,,,,,,,,,,,2,,,62,0
1118640,note_off,480,0,1,,,,,,,,,,,,,,,0,,,78,0
1118640,note_on,0,0,1,,,,,,,,,,,,,,,0,,,79,49
1118640,note_off,480,0,2,,,,,,,,,,,,,,,1,,,66,0
1118640,note_on,0,0,2,,,,,,,,,,,,,,,1,,,67,49
1118640,note_on,150,0,4,,,,,,,,,,,,,,,3,,,47,56
1118800,note_on,160,0,3,,,,,,,,,,,,,,,2,,,62,36
1118960,note_on,0,0,3,,,,,,,,,,,,,,,2,,,50,36
1118960,note_off,160,0,3,,,,,,,,,,,,,,,2,,,62,0
1119120,note_on,0,0,3,,,,,,,,,,,,,,,2,,,62,36
1119120,note_off,160,0,3,,,,,,,,,,,,,,,2,,,50,0
1119280,note_on,0,0,3,,,,,,,,,,,,,,,2,,,50,37
1119280,note_off,160,0,3,,,,,,,,,,,,,,,2,,,62,0
1119440,note_off,160,0,3,,,,,,,,,,,,,,,2,,,50,0
1119440,note_on,0,0,3,,,,,,,,,,,,,,,2,,,62,37
1119450,note_off,810,0,4,,,,,,,,,,,,,,,3,,,47,0
1119600,note_on,0,0,2,,,,,,,,,,,,,,,1,,,71,50
1119600,note_off,960,0,2,,,,,,,,,,,,,,,1,,,67,0
1119600,note_off,160,0,3,,,,,,,,,,,,,,,2,,,62,0
1119600,note_off,960,0,1,,,,,,,,,,,,,,,0,,,79,0
1119600,note_on,0,0,1,,,,,,,,,,,,,,,0,,,83,50
1119600,note_on,150,0,4,,,,,,,,,,,,,,,3,,,42,58
1119760,note_on,160,0,3,,,,,,,,,,,,,,,2,,,62,38
1119840,note_off,240,0,2,,,,,,,,,,,,,,,1,,,71,0
1119840,note_on,0,0,2,,,,,,,,,,,,,,,1,,,69,51
1119840,note_off,240,0,1,,,,,,,,,,,,,,,0,,,83,0
1119840,note_on,0,0,1,,,,,,,,,,,,,,,0,,,81,51
1119920,note_on,0,0,3,,,,,,,,,,,,,,,2,,,50,38
1119920,note_off,160,0,3,,,,,,,,,,,,,,,2,,,62,0
1120080,note_on,0,0,2,,,,,,,,,,,,,,,1,,,67,51
1120080,note_off,240,0,2,,,,,,,,,,,,,,,1,,,69,0
1120080,note_off,240,0,1,,,,,,,,,,,,,,,0,,,81,0
1120080,note_on,0,0,1,,,,,,,,,,,,,,,0,,,79,51
1120080,note_on,0,0,3,,,,,,,,,,,,,,,2,,,62,38
1120080,note_off,160,0,3,,,,,,,,,,,,,,,2,,,50,0
1120240,note_on,0,0,3,,,,,,,,,,,,,,,2,,,50,39
1120240,note_off,160,0,3,,,,,,,,,,,,,,,2,,,62,0
1120320,note_on,0,0,2,,,,,,,,,,,,,,,1,,,69,52
1120320,note_off,240,0,2,,,,,,,,,,,,,,,1,,,67,0
1120320,note_off,240,0,1,,,,,,,,,,,,,,,0,,,79,0
1120320,note_on,0,0,1,,,,,,,,,,,,,,,0,,,81,52
1120350,set_tempo,4575,1,0,,,,,,,298507,,,,,,,,,,,,
1120400,note_off,160,0,3,,,,,,,,,,,,,,,2,,,50,0
1120400,note_on,0,0,3,,,,,,,,,,,,,,,2,,,62,39
1120410,note_off,810,0,4,,,,,,,,,,,,,,,3,,,42,0
1120560,note_on,0,0,2,,,,,,,,,,,,,,,1,,,71,52
1120560,note_off,160,0,3,,,,,,,,,,,,,,,2,,,62,0
1120560,note_off,240,0,2,,,,,,,,,,,,,,,1,,,69,0
1120560,note_on,150,0,4,,,,,,,,,,,,,,,3,,,43,60
1120560,note_off,240,0,1,,,,,,,,,,,,,,,0,,,81,0
1120560,note_on,0,0,1,,,,,,,,,,,,,,,0,,,83,52
1120720,note_on,160,0,3,,,,,,,,,,,,,,,2,,,62,40
1120880,note_off,160,0,3,,,,,,,,,,,,,,,2,,,62,0
1120880,note_on,0,0,3,,,,,,,,,,,,,,,2,,,50,40
1121040,note_off,480,0,2,,,,,,,,,,,,,,,1,,,71,0
1121040,note_on,0,0,2,,,,,,,,,,,,,,,1,,,67,53
1121040,note_off,480,0,1,,,,,,,,,,,,,,,0,,,83,0
1121040,note_on,0,0,3,,,,,,,,,,,,,,,2,,,62,41
1121040,note_off,160,0,3,,,,,,,,,,,,,,,2,,,50,0
1121040,note_on,0,0,1,,,,,,,,,,,,,,,0,,,79,53
1121200,note_off,160,0,3,,,,,,,,,,,,,,,2,,,62,0
1121200,note_on,0,0,3,,,,,,,,,,,,,,,2,,,50,41
1121360,note_off,160,0,3,,,,,,,,,,,,,,,2,,,50,0
1121360,note_on,0,0,3,,,,,,,,,,,,,,,2,,,62,41
1121370,note_off,810,0,4,,,,,,,,,,,,,,,3,,,43,0
1121520,note_on,0,0,2,,,,,,,,,,,,,,,1,,,72,54
1121520,note_off,480,0,2,,,,,,,,,,,,,,,1,,,67,0
1121520,note_off,480,0,1,,,,,,,,,,,,,,,0,,,79,0
1121520,note_on,0,0,1,,,,,,,,,,,,,,,0,,,84,54
1121520,note_on,150,0,4,,,,,,,,,,,,,,,3,,,38,62
1121520,note_off,160,0,3,,,,,,,,,,,,,,,2,,,62,0
1121680,note_on,160,0,3,,,,,,,,,,,,,,,2,,,62,42
1121840,note_on,0,0,3,,,,,,,,,,,,,,,2,,,50,42
1121840,note_off,160,0,3,,,,,,,,,,,,,,,2,,,62,0
1122000,note_on,0,0,3,,,,,,,,,,,,,,,2,,,62,43
1122000,note_on,0,0,2,,,,,,,,,,,,,,,1,,,69,55
1122000,note_off,480,0,1,,,,,,,,,,,,,,,0,,,84,0
1122000,note_off,480,0,2,,,,,,,,,,,,,,,1,,,72,0
1122000,note_off,160,0,3,,,,,,,,,,,,,,,2,,,50,0
1122000,note_on,0,0,1,,,,,,,,,,,,,,,0,,,81,55
1122160,note_off,160,0,3,,,,,,,,,,,,,,,2,,,62,0
1122160,note_on,0,0,3,,,,,,,,,,,,,,,2,,,50,43
1122255,set_tempo,1905,1,0,,,,,,,300000,,,,,,,,,,,,
1122320,note_off,160,0,3,,,,,,,,,,,,,,,2,,,50,0
1122320,note_on,0,0,3,,,,,,,,,,,,,,,2,,,62,43
1122330,note_off,810,0,4,,,,,,,,,,,,,,,3,,,38,0
1122480,note_on,0,0,2,,,,,,,,,,,,,,,1,,,67,55
1122480,control_change,160,0,3,,,,,,,,,,,,,64,0,2,,,,
1122480,note_on,0,0,1,,,,,,,,,,,,,,,0,,,79,55
1122480,note_off,480,0,1,,,,,,,,,,,,,,,0,,,81,0
1122480,note_off,0,0,3,,,,,,,,,,,,,,,2,,,62,0
1122480,note_on,150,0,4,,,,,,,,,,,,,,,3,,,43,61
1122480,note_off,480,0,2,,,,,,,,,,,,,,,1,,,69,0
1122960,note_off,480,0,2,,,,,,,,,,,,,,,1,,,67,0
1122960,note_off,480,0,1,,,,,,,,,,,,,,,0,,,79,0
1122960,note_on,480,0,4,,,,,,,,,,,,,,,3,,,55,74
1123085,note_off,125,0,4,,,,,,,,,,,,,,,3,,,43,0
1123215,set_tempo,960,1,0,,,,,,,301507,,,,,,,,,,,,
1123440,note_on,0,0,2,,,,,,,,,,,,,,,1,,,67,52
1123440,control_change,480,0,2,,,,,,,,,,,,,64,0,1,,,,
1123455,set_tempo,240,1,0,,,,,,,297029,,,,,,,,,,,,
1123500,control_change,60,0,2,,,,,,,,,,,,,64,127,1,,,,
1123600,note_on,0,0,2,,,,,,,,,,,,,,,1,,,71,53
1123600,note_off,100,0,2,,,,,,,,,,,,,,,1,,,67,0
1123760,note_on,0,0,2,,,,,,,,,,,,,,,1,,,79,53
1123760,note_off,160,0,2,,,,,,,,,,,,,,,1,,,71,0
1123920,note_on,0,0,2,,,,,,,,,,,,,,,1,,,67,54
1123920,note_off,0,0,2,,,,,,,,,,,,,,,1,,,79,0
1123920,control_change,160,0,2,,,,,,,,,,,,,64,0,1,,,,
1123920,note_on,835,0,4,,,,,,,,,,,,,,,3,,,57,54
1123980,control_change,60,0,2,,,,,,,,,,,,,64,127,1,,,,
1124080,note_on,0,0,2,,,,,,,,,,,,,,,1,,,72,55
1124080,note_off,100,0,2,,,,,,,,,,,,,,,1,,,67,0
1124240,note_off,160,0,2,,,,,,,,,,,,,,,1,,,72,0
1124240,note_on,0,0,2,,,,,,,,,,,,,,,1,,,78,56
1124400,note_on,0,0,2,,,,,,,,,,,,,,,1,,,67,56
1124400,note_off,0,0,2,,,,,,,,,,,,,,,1,,,78,0
1124400,note_off,480,0,4,,,,,,,,,,,,,,,3,,,57,0
1124400,control_change,160,0,2,,,,,,,,,,,,,64,0,1,,,,
1124400,note_on,0,0,4,,,,,,,,,,,,,,,3,,,59,56
1124460,control_change,60,0,2,,,,,,,,,,,,,64,127,1,,,,
1124560,note_on,0,0,2,,,,,,,,,,,,,,,1,,,74,57
1124560,note_off,100,0,2,,,,,,,,,,,,,,,1,,,67,0
1124720,note_on,0,0,2,,,,,,,,,,,,,,,1,,,77,58
1124720,note_off,160,0,2,,,,,,,,,,,,,,,1,,,74,0
1124880,note_off,480,0,4,,,,,,,,,,,,,,,3,,,59,0
1124880,note_off,0,0,2,,,,,,,,,,,,,,,1,,,77,0
1124880,note_on,0,0,2,,,,,,,,,,,,,,,1,,,67,59
1124880,control_change,160,0,2,,,,,,,,,,,,,64,0,1,,,,
1124880,note_on,0,0,4,,,,,,,,,,,,,,,3,,,60,58
1124940,control_change,60,0,2,,,,,,,,,,,,,64,127,1,,,,
1125040,note_on,0,0,2,,,,,,,,,,,,,,,1,,,72,59
1125040,note_off,100,0,2,,,,,,,,,,,,,,,1,,,67,0
1125200,note_on,0,0,2,,,,,,,,,,,,,,,1,,,76,60
1125200,note_off,160,0,2,,,,,,,,,,,,,,,1,,,72,0
1125360,control_change,160,0,2,,,,,,,,,,,,,64,0,1,,,,
1125360,note_off,0,0,2,,,,,,,,,,,,,,,1,,,76,0
1125360,note_on,0,0,2,,,,,,,,,,,,,,,1,,,67,61
1125360,note_off,480,0,4,,,,,,,,,,,,,,,3,,,60,0
1125360,note_on,0,0,4,,,,,,,,,,,,,,,3,,,63,60
1125420,control_change,60,0,2,,,,,,,,,,,,,64,127,1,,,,
1125520,note_on,0,0,2,,,,,,,,,,,,,,,1,,,72,65
1125520,note_off,100,0,2,,,,,,,,,,,,,,,1,,,67,0
1125680,note_off,160,0,2,,,,,,,,,,,,,,,1,,,72,0
1125680,note_on,0,0,2,,,,,,,,,,,,,,,1,,,75,65
1125840,note_on,0,0,4,,,,,,,,,,,,,,,3,,,66,62
1125840,control_change,160,0,2,,,,,,,,,,,,,64,0,1,,,,
1125840,note_off,0,0,2,,,,,,,,,,,,,,,1,,,75,0
1125840,note_on,0,0,2,,,,,,,,,,,,,,,1,,,69,64
1125840,note_off,480,0,4,,,,,,,,,,,,,,,3,,,63,0
1125900,control_change,60,0,2,,,,,,,,,,,,,64,127,1,,,,
1126000,note_off,100,0,2,,,,,,,,,,,,,,,1,,,69,0
1126000,note_on,0,0,2,,,,,,,,,,,,,,,1,,,72,64
1126160,note_on,0,0,2,,,,,,,,,,,,,,,1,,,75,63
1126160,note_off,160,0,2,,,,,,,,,,,,,,,1,,,72,0
1126200,set_tempo,2745,1,0,,,,,,,298507,,,,,,,,,,,,
1126320,control_change,160,0,2,,,,,,,,,,,,,64,0,1,,,,
1126320,note_on,0,0,2,,,,,,,,,,,,,,,1,,,72,62
1126320,note_off,0,0,2,,,,,,,,,,,,,,,1,,,75,0
1126320,note_off,480,0,4,,,,,,,,,,,,,,,3,,,66,0
1126320,note_on,0,0,4,,,,,,,,,,,,,,,3,,,67,63
1126380,control_change,60,0,2,,,,,,,,,,,,,64,127,1,,,,
1126480,note_on,0,0,2,,,,,,,,,,,,,,,1,,,75,62
1126480,note_off,100,0,2,,,,,,,,,,,,,,,1,,,72,0
1126640,note_on,0,0,2,,,,,,,,,,,,,,,1,,,72,61
1126640,note_off,160,0,2,,,,,,,,,,,,,,,1,,,75,0
1126770,note_off,450,0,4,,,,,,,,,,,,,,,3,,,55,0
1126800,note_off,30,0,4,,,,,,,,,,,,,,,3,,,67,0
1126800,control_change,160,0,2,,,,,,,,,,,,,64,0,1,,,,
1126800,note_on,0,0,2,,,,,,,,,,,,,,,1,,,71,61
1126800,note_off,0,0,2,,,,,,,,,,,,,,,1,,,72,0
1126800,note_on,0,0,4,,,,,,,,,,,,,,,3,,,55,57
1126860,control_change,60,0,2,,,,,,,,,,,,,64,127,1,,,,
1126960,note_on,0,0,2,,,,,,,,,,,,,,,1,,,74,60
1126960,note_off,100,0,2,,,,,,,,,,,,,,,1,,,71,0
1127070,set_tempo,870,1,0,,,,,,,301507,,,,,,,,,,,,
1127120,note_off,160,0,2,,,,,,,,,,,,,,,1,,,74,0
1127120,note_on,0,0,2,,,,,,,,,,,,,,,1,,,71,60
1127280,note_off,480,0,4,,,,,,,,,,,,,,,3,,,55,0
1127280,note_on,0,0,4,,,,,,,,,,,,,,,3,,,62,55
1127280,note_off,0,0,2,,,,,,,,,,,,,,,1,,,71,0
1127280,note_on,0,0,2,,,,,,,,,,,,,,,1,,,69,59
1127280,note_on,0,0,2,,,,,,,,,,,,,,,1,,,66,59
1127280,note_on,4320,0,1,,,,,,,,,,,,,,,0,,,76,59
1127280,control_change,160,0,2,,,,,,,,,,,,,64,0,1,,,,
1127295,set_tempo,225,1,0,,,,,,,297029,,,,,,,,,,,,
1127520,note_on,0,0,1,,,,,,,,,,,,,,,0,,,74,65
1127520,note_off,240,0,1,,,,,,,,,,,,,,,0,,,76,0
1127760,note_on,0,0,4,,,,,,,,,,,,,,,3,,,50,53
1127760,note_on,0,0,1,,,,,,,,,,,,,,,0,,,73,65
1127760,note_off,240,0,1,,,,,,,,,,,,,,,0,,,74,0
1127760,note_off,480,0,4,,,,,,,,,,,,,,,3,,,62,0
1128000,note_on,0,0,1,,,,,,,,,,,,,,,0,,,74,64
1128000,note_off,240,0,1,,,,,,,,,,,,,,,0,,,73,0
1128240,note_on,0,0,1,,,,,,,,,,,,,,,0,,,71,63
1128240,note_on,0,0,2,,,,,,,,,,,,,,,1,,,62,63
1128240,note_off,0,0,2,,,,,,,,,,,,,,,1,,,66,0
1128240,note_off,960,0,2,,,,,,,,,,,,,,,1,,,69,0
1128240,note_off,480,0,4,,,,,,,,,,,,,,,3,,,50,0
1128240,note_on,0,0,2,,,,,,,,,,,,,,,1,,,67,63
1128240,note_off,240,0,1,,,,,,,,,,,,,,,0,,,74,0
1128240,note_on,0,0,4,,,,,,,,,,,,,,,3,,,55,51
1128720,note_off,480,0,2,,,,,,,,,,,,,,,1,,,62,0
1128720,note_off,0,0,2,,,,,,,,,,,,,,,1,,,67,0
1128720,note_on,0,0,4,,,,,,,,,,,,,,,3,,,43,49
1128720,note_off,480,0,4,,,,,,,,,,,,,,,3,,,55,0
1128720,note_off,480,0,1,,,,,,,,,,,,,,,0,,,71,0
1128720,note_on,0,0,1,,,,,,,,,,,,,,,0,,,74,62
1129140,set_tempo,1845,1,0,,,,,,,298507,,,,,,,,,,,,
1129200,set_tempo,60,1,0,,,,,,,297029,,,,,,,,,,,,
1129200,note_on,0,0,4,,,,,,,,,,,,,,,3,,,50,47
1129200,note_on,0,0,1,,,,,,,,,,,,,,,0,,,76,60
1129200,note_off,480,0,4,,,,,,,,,,,,,,,3,,,43,0
1129200,note_on,0,0,2,,,,,,,,,,,,,,,1,,,66,60
1129200,note_on,480,0,2,,,,,,,,,,,,,,,1,,,69,60
1129200,note_off,480,0,1,,,,,,,,,,,,,,,0,,,74,0
1129440,note_off,240,0,1,,,,,,,,,,,,,,,0,,,76,0
1129440,note_on,0,0,1,,,,,,,,,,,,,,,0,,,74,59
1129680,note_on,0,0,4,,,,,,,,,,,,,,,3,,,38,45
1129680,note_on,0,0,1,,,,,,,,,,,,,,,0,,,73,59
1129680,note_off,240,0,1,,,,,,,,,,,,,,,0,,,74,0
1129680,note_off,480,0,4,,,,,,,,,,,,,,,3,,,50,0
1129920,note_off,240,0,1,,,,,,,,,,,,,,,0,,,73,0
1129920,note_on,0,0,1,,,,,,,,,,,,,,,0,,,74,58
1129950,set_tempo,750,1,0,,,,,,,298507,,,,,,,,,,,,
1130160,note_on,0,0,1,,,,,,,,,,,,,,,0,,,71,57
1130160,note_on,0,0,2,,,,,,,,,,,,,,,1,,,67,57
1130160,note_off,960,0,2,,,,,,,,,,,,,,,1,,,69,0
1130160,note_off,0,0,2,,,,,,,,,,,,,,,1,,,66,0
1130160,note_off,240,0,1,,,,,,,,,,,,,,,0,,,74,0
1130160,note_on,0,0,2,,,,,,,,,,,,,,,1,,,62,57
1130160,note_off,480,0,4,,,,,,,,,,,,,,,3,,,38,0
1130160,note_on,0,0,4,,,,,,,,,,,,,,,3,,,43,50
1130640,note_off,0,0,2,,,,,,,,,,,,,,,1,,,62,0
1130640,note_on,0,0,4,,,,,,,,,,,,,,,3,,,55,67
1130640,note_off,480,0,2,,,,,,,,,,,,,,,1,,,67,0
1130640,note_off,480,0,1,,,,,,,,,,,,,,,0,,,71,0
1130640,note_off,480,0,4,,,,,,,,,,,,,,,3,,,43,0
1130895,set_tempo,945,1,0,,,,,,,301507,,,,,,,,,,,,
1131120,control_change,480,0,2,,,,,,,,,,,,,64,0,1,,,,
1131120,note_on,0,0,2,,,,,,,,,,,,,,,1,,,71,44
1131135,set_tempo,240,1,0,,,,,,,297029,,,,,,,,,,,,
1131180,control_change,60,0,2,,,,,,,,,,,,,64,127,1,,,,
1131280,note_on,0,0,2,,,,,,,,,,,,,,,1,,,81,45
1131280,note_off,100,0,2,,,,,,,,,,,,,,,1,,,71,0
1131440,note_off,160,0,2,,,,,,,,,,,,,,,1,,,81,0
1131440,note_on,0,0,2,,,,,,,,,,,,,,,1,,,79,46
1131600,note_on,960,0,4,,,,,,,,,,,,,,,3,,,57,49
1131600,note_off,0,0,2,,,,,,,,,,,,,,,1,,,79,0
1131600,note_on,0,0,2,,,,,,,,,,,,,,,1,,,72,47
1131600,control_change,160,0,2,,,,,,,,,,,,,64,0,1,,,,
1131660,control_change,60,0,2,,,,,,,,,,,,,64,127,1,,,,
1131760,note_on,0,0,2,,,,,,,,,,,,,,,1,,,79,48
1131760,note_off,100,0,2,,,,,,,,,,,,,,,1,,,72,0
1131920,note_on,0,0,2,,,,,,,,,,,,,,,1,,,78,49
1131920,note_off,160,0,2,,,,,,,,,,,,,,,1,,,79,0
1132080,note_on,0,0,4,,,,,,,,,,,,,,,3,,,59,51
1132080,note_off,0,0,2,,,,,,,,,,,,,,,1,,,78,0
1132080,note_on,0,0,2,,,,,,,,,,,,,,,1,,,74,51
1132080,note_off,480,0,4,,,,,,,,,,,,,,,3,,,57,0
1132080,control_change,160,0,2,,,,,,,,,,,,,64,0,1,,,,
1132140,control_change,60,0,2,,,,,,,,,,,,,64,127,1,,,,
1132240,note_off,100,0,2,,,,,,,,,,,,,,,1,,,74,0
1132240,note_on,0,0,2,,,,,,,,,,,,,,,1,,,79,52
1132400,note_on,0,0,2,,,,,,,,,,,,,,,1,,,77,53
1132400,note_off,160,0,2,,,,,,,,,,,,,,,1,,,79,0
1132560,control_change,160,0,2,,,,,,,,,,,,,64,0,1,,,,
1132560,note_off,0,0,2,,,,,,,,,,,,,,,1,,,77,0
1132560,note_on,0,0,2,,,,,,,,,,,,,,,1,,,67,54
1132560,note_on,0,0,4,,,,,,,,,,,,,,,3,,,60,54
1132560,note_off,480,0,4,,,,,,,,,,,,,,,3,,,59,0
1132620,control_change,60,0,2,,,,,,,,,,,,,64,127,1,,,,
1132720,note_off,100,0,2,,,,,,,,,,,,,,,1,,,67,0
1132720,note_on,0,0,2,,,,,,,,,,,,,,,1,,,77,55
1132880,note_off,160,0,2,,,,,,,,,,,,,,,1,,,77,0
1132880,note_on,0,0,2,,,,,,,,,,,,,,,1,,,76,56
1133040,note_on,0,0,4,,,,,,,,,,,,,,,3,,,63,57
1133040,note_off,480,0,4,,,,,,,,,,,,,,,3,,,60,0
1133040,note_off,0,0,2,,,,,,,,,,,,,,,1,,,76,0
1133040,note_on,0,0,2,,,,,,,,,,,,,,,1,,,72,57
1133040,control_change,160,0,2,,,,,,,,,,,,,64,0,1,,,,
1133100,control_change,60,0,2,,,,,,,,,,,,,64,127,1,,,,
1133200,note_on,0,0,2,,,,,,,,,,,,,,,1,,,77,57
1133200,note_off,100,0,2,,,,,,,,,,,,,,,1,,,72,0
1133360,note_on,0,0,2,,,,,,,,,,,,,,,1,,,75,56
1133360,note_off,160,0,2,,,,,,,,,,,,,,,1,,,77,0
1133520,note_on,0,0,4,,,,,,,,,,,,,,,3,,,66,59
1133520,note_off,480,0,4,,,,,,,,,,,,,,,3,,,63,0
1133520,note_off,0,0,2,,,,,,,,,,,,,,,1,,,75,0
1133520,note_on,0,0,2,,,,,,,,,,,,,,,1,,,72,55
1133520,control_change,160,0,2,,,,,,,,,,,,,64,0,1,,,,
1133580,control_change,60,0,2,,,,,,,,,,,,,64,127,1,,,,
1133680,note_off,100,0,2,,,,,,,,,,,,,,,1,,,72,0
1133680,note_on,0,0,2,,,,,,,,,,,,,,,1,,,77,55
1133745,set_tempo,2610,1,0,,,,,,,298507,,,,,,,,,,,,
1133840,note_off,160,0,2,,,,,,,,,,,,,,,1,,,77,0
1133840,note_on,0,0,2,,,,,,,,,,,,,,,1,,,75,54
1134000,note_on,0,0,4,,,,,,,,,,,,,,,3,,,67,62
1134000,note_off,480,0,4,,,,,,,,,,,,,,,3,,,66,0
1134000,note_on,0,0,2,,,,,,,,,,,,,,,1,,,72,53
1134000,control_change,160,0,2,,,,,,,,,,,,,64,0,1,,,,
1134000,note_off,0,0,2,,,,,,,,,,,,,,,1,,,75,0
1134060,control_change,60,0,2,,,,,,,,,,,,,64,127,1,,,,
1134160,note_on,0,0,2,,,,,,,,,,,,,,,1,,,77,53
1134160,note_off,100,0,2,,,,,,,,,,,,,,,1,,,72,0
1134320,note_on,0,0,2,,,,,,,,,,,,,,,1,,,75,52
1134320,note_off,160,0,2,,,,,,,,,,,,,,,1,,,77,0
1134450,note_off,450,0,4,,,,,,,,,,,,,,,3,,,55,0
1134480,note_on,0,0,2,,,,,,,,,,,,,,,1,,,71,52
1134480,note_on,0,0,4,,,,,,,,,,,,,,,3,,,55,57
1134480,note_off,30,0,4,,,,,,,,,,,,,,,3,,,67,0
1134480,control_change,160,0,2,,,,,,,,,,,,,64,0,1,,,,
1134480,note_off,0,0,2,,,,,,,,,,,,,,,1,,,75,0
1134540,control_change,60,0,2,,,,,,,,,,,,,64,127,1,,,,
1134640,note_on,0,0,2,,,,,,,,,,,,,,,1,,,75,51
1134640,note_off,100,0,2,,,,,,,,,,,,,,,1,,,71,0
1134705,set_tempo,960,1,0,,,,,,,301507,,,,,,,,,,,,
1134800,note_off,160,0,2,,,,,,,,,,,,,,,1,,,75,0
1134800,note_on,0,0,2,,,,,,,,,,,,,,,1,,,74,50
1134960,note_off,480,0,4,,,,,,,,,,,,,,,3,,,55,0
1134960,note_on,0,0,4,,,,,,,,,,,,,,,3,,,62,55
1134960,control_change,160,0,2,,,,,,,,,,,,,64,0,1,,,,
1134960,note_off,0,0,2,,,,,,,,,,,,,,,1,,,74,0
1134960,note_on,0,0,2,,,,,,,,,,,,,,,1,,,66,55
1134960,note_on,0,0,2,,,,,,,,,,,,,,,1,,,69,55
1134960,note_on,4320,0,1,,,,,,,,,,,,,,,0,,,76,55
1134975,set_tempo,270,1,0,,,,,,,297029,,,,,,,,,,,,
1135200,note_off,240,0,1,,,,,,,,,,,,,,,0,,,76,0
1135200,note_on,0,0,1,,,,,,,,,,,,,,,0,,,74,54
1135440,note_on,0,0,4,,,,,,,,,,,,,,,3,,,50,53
1135440,note_on,240,0,1,,,,,,,,,,,,,,,0,,,73,53
1135440,note_off,480,0,4,,,,,,,,,,,,,,,3,,,62,0
1135447,note_off,7,0,1,,,,,,,,,,,,,,,0,,,74,0
1135680,note_off,233,0,1,,,,,,,,,,,,,,,0,,,73,0
1135680,note_on,0,0,1,,,,,,,,,,,,,,,0,,,74,52
1135920,note_on,0,0,1,,,,,,,,,,,,,,,0,,,71,52
1135920,note_off,240,0,1,,,,,,,,,,,,,,,0,,,74,0
1135920,note_off,480,0,4,,,,,,,,,,,,,,,3,,,50,0
1135920,note_on,0,0,4,,,,,,,,,,,,,,,3,,,55,51
1135920,note_off,960,0,2,,,,,,,,,,,,,,,1,,,66,0
1135920,note_off,0,0,2,,,,,,,,,,,,,,,1,,,69,0
1135920,note_on,0,0,2,,,,,,,,,,,,,,,1,,,67,52
1135920,note_on,0,0,2,,,,,,,,,,,,,,,1,,,62,52
1136400,note_on,0,0,1,,,,,,,,,,,,,,,0,,,74,50
1136400,note_off,480,0,4,,,,,,,,,,,,,,,3,,,55,0
1136400,note_on,0,0,4,,,,,,,,,,,,,,,3,,,43,49
1136400,note_off,480,0,1,,,,,,,,,,,,,,,0,,,71,0
1136400,note_off,480,0,2,,,,,,,,,,,,,,,1,,,62,0
1136430,note_off,30,0,2,,,,,,,,,,,,,,,1,,,67,0
1136820,set_tempo,1845,1,0,,,,,,,298507,,,,,,,,,,,,
1136880,note_on,450,0,2,,,,,,,,,,,,,,,1,,,69,48
1136880,note_off,480,0,1,,,,,,,,,,,,,,,0,,,74,0
1136880,note_on,0,0,1,,,,,,,,,,,,,,,0,,,76,48
1136880,note_off,480,0,4,,,,,,,,,,,,,,,3,,,43,0
1136880,note_on,0,0,4,,,,,,,,,,,,,,,3,,,50,47
1136880,set_tempo,60,1,0,,,,,,,297029,,,,,,,,,,,,
1136880,note_on,0,0,2,,,,,,,,,,,,,,,1,,,66,48
1137120,note_off,240,0,1,,,,,,,,,,,,,,,0,,,76,0
1137120,note_on,0,0,1,,,,,,,,,,,,,,,0,,,74,47
1137360,note_on,0,0,1,,,,,,,,,,,,,,,0,,,73,46
1137360,note_off,240,0,1,,,,,,,,,,,,,,,0,,,74,0
1137360,note_off,480,0,4,,,,,,,,,,,,,,,3,,,50,0
1137360,note_on,0,0,4,,,,,,,,,,,,,,,3,,,38,45
1137600,note_off,240,0,1,,,,,,,,,,,,,,,0,,,73,0
1137600,set_tempo,720,1,0,,,,,,,300000,,,,,,,,,,,,
1137600,note_on,0,0,1,,,,,,,,,,,,,,,0,,,74,45
1137840,note_on,0,0,4,,,,,,,,,,,,,,,3,,,43,43
1137840,note_off,480,0,4,,,,,,,,,,,,,,,3,,,38,0
1137840,note_on,0,0,1,,,,,,,,,,,,,,,0,,,71,44
1137840,note_off,240,0,1,,,,,,,,,,,,,,,0,,,74,0
1137840,note_on,0,0,2,,,,,,,,,,,,,,,1,,,62,44
1137840,note_on,0,0,2,,,,,,,,,,,,,,,1,,,67,44
1137840,note_off,0,0,2,,,,,,,,,,,,,,,1,,,66,0
1137840,note_off,960,0,2,,,,,,,,,,,,,,,1,,,69,0
1137855,set_tempo,255,1,0,,,,,,,300000,,,,,,,,,,,,
1138320,note_off,480,0,4,,,,,,,,,,,,,,,3,,,43,0
1138320,note_on,0,0,4,,,,,,,,,,,,,,,3,,,31,41
1138320,note_off,480,0,2,,,,,,,,,,,,,,,1,,,67,0
1138320,note_off,0,0,2,,,,,,,,,,,,,,,1,,,62,0
1138320,note_off,480,0,1,,,,,,,,,,,,,,,0,,,71,0
1138575,set_tempo,720,1,0,,,,,,,301507,,,,,,,,,,,,
1138720,note_on,400,0,4,,,,,,,,,,,,,,,3,,,52,53
1138800,note_off,0,0,4,,,,,,,,,,,,,,,3,,,52,0
1138800,note_off,80,0,4,,,,,,,,,,,,,,,3,,,31,0
1138800,note_on,0,0,4,,,,,,,,,,,,,,,3,,,50,57
1138815,set_tempo,240,1,0,,,,,,,297029,,,,,,,,,,,,
1139040,note_on,0,0,4,,,,,,,,,,,,,,,3,,,49,56
1139040,note_off,240,0,4,,,,,,,,,,,,,,,3,,,50,0
1139280,note_on,0,0,4,,,,,,,,,,,,,,,3,,,50,54
1139280,note_off,240,0,4,,,,,,,,,,,,,,,3,,,49,0
1139520,note_off,240,0,4,,,,,,,,,,,,,,,3,,,50,0
1139520,note_on,0,0,4,,,,,,,,,,,,,,,3,,,52,53
1139760,note_off,240,0,4,,,,,,,,,,,,,,,3,,,52,0
1139760,note_on,0,0,4,,,,,,,,,,,,,,,3,,,50,50
1139920,note_on,1600,0,1,,,,,,,,,,,,,,,0,,,83,44
1140080,note_on,0,0,1,,,,,,,,,,,,,,,0,,,84,44
1140080,note_off,160,0,1,,,,,,,,,,,,,,,0,,,83,0
1140120,note_off,360,0,4,,,,,,,,,,,,,,,3,,,50,0
1140240,note_off,160,0,1,,,,,,,,,,,,,,,0,,,84,0
1140240,note_on,0,0,1,,,,,,,,,,,,,,,0,,,86,45
1140240,note_on,120,0,4,,,,,,,,,,,,,,,3,,,38,51
1140400,note_off,160,0,1,,,,,,,,,,,,,,,0,,,86,0
1140400,note_on,0,0,1,,,,,,,,,,,,,,,0,,,84,45
1140560,note_off,160,0,1,,,,,,,,,,,,,,,0,,,84,0
1140560,note_on,0,0,1,,,,,,,,,,,,,,,0,,,83,45
1140720,note_on,0,0,1,,,,,,,,,,,,,,,0,,,84,46
1140720,note_on,480,0,4,,,,,,,,,,,,,,,3,,,40,53
1140720,note_off,160,0,1,,,,,,,,,,,,,,,0,,,83,0
1140880,note_off,160,0,1,,,,,,,,,,,,,,,0,,,84,0
1140880,note_on,0,0,1,,,,,,,,,,,,,,,0,,,81,46
1141040,note_off,160,0,1,,,,,,,,,,,,,,,0,,,81,0
1141040,note_on,0,0,1,,,,,,,,,,,,,,,0,,,83,46
1141200,note_off,480,0,4,,,,,,,,,,,,,,,3,,,40,0
1141200,note_off,160,0,1,,,,,,,,,,,,,,,0,,,83,0
1141200,note_on,0,0,1,,,,,,,,,,,,,,,0,,,84,47
1141200,note_on,0,0,4,,,,,,,,,,,,,,,3,,,42,55
1141360,note_off,160,0,1,,,,,,,,,,,,,,,0,,,84,0
1141360,note_on,0,0,1,,,,,,,,,,,,,,,0,,,83,47
1141520,note_off,160,0,1,,,,,,,,,,,,,,,0,,,83,0
1141520,note_on,0,0,1,,,,,,,,,,,,,,,0,,,81,47
1141680,note_on,0,0,1,,,,,,,,,,,,,,,0,,,83,48
1141680,note_on,0,0,4,,,,,,,,,,,,,,,3,,,43,56
1141680,note_off,480,0,4,,,,,,,,,,,,,,,3,,,42,0
1141680,note_off,160,0,1,,,,,,,,,,,,,,,0,,,81,0
1141840,note_off,160,0,1,,,,,,,,,,,,,,,0,,,83,0
1141840,note_on,0,0,1,,,,,,,,,,,,,,,0,,,79,48
1142000,note_off,160,0,1,,,,,,,,,,,,,,,0,,,79,0
1142000,note_on,0,0,1,,,,,,,,,,,,,,,0,,,81,48
1142160,note_off,160,0,1,,,,,,,,,,,,,,,0,,,81,0
1142160,note_on,0,0,1,,,,,,,,,,,,,,,0,,,83,49
1142320,note_off,160,0,1,,,,,,,,,,,,,,,0,,,83,0
1142320,note_on,0,0,1,,,,,,,,,,,,,,,0,,,81,49
1142480,note_off,160,0,1,,,,,,,,,,,,,,,0,,,81,0
1142480,note_on,0,0,1,,,,,,,,,,,,,,,0,,,79,49
1142640,note_off,160,0,1,,,,,,,,,,,,,,,0,,,79,0
1142640,note_on,0,0,1,,,,,,,,,,,,,,,0,,,78,50
1142640,note_off,960,0,4,,,,,,,,,,,,,,,3,,,43,0
1142640,note_on,0,0,4,,,,,,,,,,,,,,,3,,,47,60
1142800,note_off,160,0,1,,,,,,,,,,,,,,,0,,,78,0
1142800,note_on,0,0,1,,,,,,,,,,,,,,,0,,,76,50
1142880,note_on,0,0,4,,,,,,,,,,,,,,,3,,,45,61
1142880,note_off,240,0,4,,,,,,,,,,,,,,,3,,,47,0
1142960,note_on,0,0,1,,,,,,,,,,,,,,,0,,,74,50
1142960,note_off,160,0,1,,,,,,,,,,,,,,,0,,,76,0
1143120,note_off,160,0,1,,,,,,,,,,,,,,,0,,,74,0
1143120,note_off,240,0,4,,,,,,,,,,,,,,,3,,,45,0
1143120,note_on,0,0,1,,,,,,,,,,,,,,,0,,,72,51
1143120,note_on,0,0,4,,,,,,,,,,,,,,,3,,,43,62
1143280,note_off,160,0,1,,,,,,,,,,,,,,,0,,,72,0
1143280,note_on,0,0,1,,,,,,,,,,,,,,,0,,,71,51
1143360,note_off,240,0,4,,,,,,,,,,,,,,,3,,,43,0
1143360,note_on,0,0,4,,,,,,,,,,,,,,,3,,,45,62
1143390,set_tempo,4575,1,0,,,,,,,298507,,,,,,,,,,,,
1143440,note_off,160,0,1,,,,,,,,,,,,,,,0,,,71,0
1143440,note_on,0,0,1,,,,,,,,,,,,,,,0,,,69,51
1143600,note_on,0,0,1,,,,,,,,,,,,,,,0,,,67,52
1143600,note_on,0,0,4,,,,,,,,,,,,,,,3,,,47,63
1143600,note_off,240,0,4,,,,,,,,,,,,,,,3,,,45,0
1143600,note_off,160,0,1,,,,,,,,,,,,,,,0,,,69,0
1143760,note_off,160,0,1,,,,,,,,,,,,,,,0,,,67,0
1143760,note_on,0,0,1,,,,,,,,,,,,,,,0,,,74,52
1143920,note_off,160,0,1,,,,,,,,,,,,,,,0,,,74,0
1143920,note_on,0,0,1,,,,,,,,,,,,,,,0,,,73,52
1144080,note_off,480,0,4,,,,,,,,,,,,,,,3,,,47,0
1144080,note_on,0,0,1,,,,,,,,,,,,,,,0,,,74,53
1144080,note_off,160,0,1,,,,,,,,,,,,,,,0,,,73,0
1144080,note_on,0,0,4,,,,,,,,,,,,,,,3,,,43,65
1144240,note_off,160,0,1,,,,,,,,,,,,,,,0,,,74,0
1144240,note_on,0,0,1,,,,,,,,,,,,,,,0,,,71,53
1144400,note_off,160,0,1,,,,,,,,,,,,,,,0,,,71,0
1144400,note_on,0,0,1,,,,,,,,,,,,,,,0,,,69,53
1144552,note_off,472,0,4,,,,,,,,,,,,,,,3,,,38,0
1144560,note_off,160,0,1,,,,,,,,,,,,,,,0,,,69,0
1144560,note_on,0,0,1,,,,,,,,,,,,,,,0,,,67,54
1144560,note_off,8,0,4,,,,,,,,,,,,,,,3,,,43,0
1144560,note_on,0,0,4,,,,,,,,,,,,,,,3,,,49,67
1144560,note_on,0,0,4,,,,,,,,,,,,,,,3,,,38,67
1144720,note_off,160,0,1,,,,,,,,,,,,,,,0,,,67,0
1144720,note_on,0,0,1,,,,,,,,,,,,,,,0,,,76,54
1144880,note_off,160,0,1,,,,,,,,,,,,,,,0,,,76,0
1144880,note_on,0,0,1,,,,,,,,,,,,,,,0,,,75,54
1145040,note_off,160,0,1,,,,,,,,,,,,,,,0,,,75,0
1145040,note_on,0,0,1,,,,,,,,,,,,,,,0,,,76,54
1145040,note_on,0,0,4,,,,,,,,,,,,,,,3,,,45,69
1145040,note_off,480,0,4,,,,,,,,,,,,,,,3,,,49,0
1145200,note_off,160,0,1,,,,,,,,,,,,,,,0,,,76,0
1145200,note_on,0,0,1,,,,,,,,,,,,,,,0,,,72,55
1145265,set_tempo,1875,1,0,,,,,,,300000,,,,,,,,,,,,
1145360,note_off,160,0,1,,,,,,,,,,,,,,,0,,,72,0
1145360,note_on,0,0,1,,,,,,,,,,,,,,,0,,,67,55
1145520,note_off,480,0,4,,,,,,,,,,,,,,,3,,,38,0
1145520,note_on,0,0,4,,,,,,,,,,,,,,,3,,,50,70
1145520,note_off,0,0,4,,,,,,,,,,,,,,,3,,,45,0
1145520,note_on,0,0,4,,,,,,,,,,,,,,,3,,,38,70
1145520,note_on,0,0,1,,,,,,,,,,,,,,,0,,,66,55
1145520,note_off,160,0,1,,,,,,,,,,,,,,,0,,,67,0
1145680,note_off,160,0,1,,,,,,,,,,,,,,,0,,,66,0
1145680,note_on,0,0,1,,,,,,,,,,,,,,,0,,,74,54
1145840,note_off,160,0,1,,,,,,,,,,,,,,,0,,,74,0
1145840,note_on,0,0,1,,,,,,,,,,,,,,,0,,,73,53
1146000,note_off,0,0,1,,,,,,,,,,,,,,,0,,,73,0
1146000,note_on,0,0,1,,,,,,,,,,,,,,,0,,,74,52
1146000,control_change,160,0,1,,,,,,,,,,,,,64,0,0,,,,
1146040,control_change,40,0,1,,,,,,,,,,,,,64,127,0,,,,
1146160,note_on,0,0,1,,,,,,,,,,,,,,,0,,,69,50
1146160,note_off,120,0,1,,,,,,,,,,,,,,,0,,,74,0
1146225,set_tempo,960,1,0,,,,,,,301507,,,,,,,,,,,,
1146320,note_on,0,0,1,,,,,,,,,,,,,,,0,,,66,49
1146320,note_off,160,0,1,,,,,,,,,,,,,,,0,,,69,0
1146400,note_on,880,0,4,,,,,,,,,,,,,,,3,,,52,54
1146480,note_on,0,0,1,,,,,,,,,,,,,,,0,,,62,48
1146480,note_off,80,0,4,,,,,,,,,,,,,,,3,,,50,0
1146480,note_off,0,0,4,,,,,,,,,,,,,,,3,,,38,0
1146480,note_off,0,0,4,,,,,,,,,,,,,,,3,,,52,0
1146480,note_on,0,0,4,,,,,,,,,,,,,,,3,,,50,60
1146480,note_off,160,0,1,,,,,,,,,,,,,,,0,,,66,0
1146495,set_tempo,270,1,0,,,,,,,297029,,,,,,,,,,,,
1146720,note_off,240,0,4,,,,,,,,,,,,,,,3,,,50,0
1146720,note_on,0,0,4,,,,,,,,,,,,,,,3,,,49,58
1146960,note_off,480,0,1,,,,,,,,,,,,,,,0,,,62,0
1146960,note_off,240,0,4,,,,,,,,,,,,,,,3,,,49,0
1146960,note_on,0,0,4,,,,,,,,,,,,,,,3,,,50,56
1147200,note_off,240,0,4,,,,,,,,,,,,,,,3,,,50,0
1147200,note_on,0,0,4,,,,,,,,,,,,,,,3,,,52,54
1147440,control_change,480,0,1,,,,,,,,,,,,,64,0,0,,,,
1147440,note_off,240,0,4,,,,,,,,,,,,,,,3,,,52,0
1147440,note_on,0,0,4,,,,,,,,,,,,,,,3,,,50,52
1147600,note_on,160,0,1,,,,,,,,,,,,,,,0,,,83,38
1147760,note_on,0,0,1,,,,,,,,,,,,,,,0,,,84,38
1147760,note_off,160,0,1,,,,,,,,,,,,,,,0,,,83,0
1147800,note_off,360,0,4,,,,,,,,,,,,,,,3,,,50,0
1147920,note_off,160,0,1,,,,,,,,,,,,,,,0,,,84,0
1147920,note_on,0,0,1,,,,,,,,,,,,,,,0,,,86,39
1147920,note_on,120,0,4,,,,,,,,,,,,,,,3,,,38,49
1148080,note_off,160,0,1,,,,,,,,,,,,,,,0,,,86,0
1148080,note_on,0,0,1,,,,,,,,,,,,,,,0,,,84,39
1148240,note_on,0,0,1,,,,,,,,,,,,,,,0,,,83,40
1148240,note_off,160,0,1,,,,,,,,,,,,,,,0,,,84,0
1148400,note_on,480,0,4,,,,,,,,,,,,,,,3,,,40,50
1148400,note_on,0,0,1,,,,,,,,,,,,,,,0,,,84,40
1148400,note_off,160,0,1,,,,,,,,,,,,,,,0,,,83,0
1148560,note_on,0,0,1,,,,,,,,,,,,,,,0,,,81,41
1148560,note_off,160,0,1,,,,,,,,,,,,,,,0,,,84,0
1148720,note_off,160,0,1,,,,,,,,,,,,,,,0,,,81,0
1148720,note_on,0,0,1,,,,,,,,,,,,,,,0,,,83,41
1148880,note_on,0,0,4,,,,,,,,,,,,,,,3,,,42,52
1148880,note_off,480,0,4,,,,,,,,,,,,,,,3,,,40,0
1148880,note_off,160,0,1,,,,,,,,,,,,,,,0,,,83,0
1148880,note_on,0,0,1,,,,,,,,,,,,,,,0,,,84,41
1149040,note_off,160,0,1,,,,,,,,,,,,,,,0,,,84,0
1149040,note_on,0,0,1,,,,,,,,,,,,,,,0,,,83,42
1149200,note_off,160,0,1,,,,,,,,,,,,,,,0,,,83,0
1149200,note_on,0,0,1,,,,,,,,,,,,,,,0,,,81,42
1149360,note_on,0,0,4,,,,,,,,,,,,,,,3,,,43,53
1149360,note_off,160,0,1,,,,,,,,,,,,,,,0,,,81,0
1149360,note_on,0,0,1,,,,,,,,,,,,,,,0,,,83,43
1149360,note_off,480,0,4,,,,,,,,,,,,,,,3,,,42,0
1149520,note_on,0,0,1,,,,,,,,,,,,,,,0,,,79,43
1149520,note_off,160,0,1,,,,,,,,,,,,,,,0,,,83,0
1149680,note_off,160,0,1,,,,,,,,,,,,,,,0,,,79,0
1149680,note_on,0,0,1,,,,,,,,,,,,,,,0,,,81,44
1149840,note_on,0,0,1,,,,,,,,,,,,,,,0,,,83,44
1149840,note_off,160,0,1,,,,,,,,,,,,,,,0,,,81,0
1150000,note_on,0,0,1,,,,,,,,,,,,,,,0,,,81,44
1150000,note_off,160,0,1,,,,,,,,,,,,,,,0,,,83,0
1150160,note_off,160,0,1,,,,,,,,,,,,,,,0,,,81,0
1150160,note_on,0,0,1,,,,,,,,,,,,,,,0,,,79,45
1150320,note_on,0,0,1,,,,,,,,,,,,,,,0,,,78,45
1150320,note_off,960,0,4,,,,,,,,,,,,,,,3,,,43,0
1150320,note_on,0,0,4,,,,,,,,,,,,,,,3,,,47,56
1150320,note_off,160,0,1,,,,,,,,,,,,,,,0,,,79,0
1150480,note_off,160,0,1,,,,,,,,,,,,,,,0,,,78,0
1150480,note_on,0,0,1,,,,,,,,,,,,,,,0,,,76,46
1150560,note_off,240,0,4,,,,,,,,,,,,,,,3,,,47,0
1150560,note_on,0,0,4,,,,,,,,,,,,,,,3,,,45,56
1150640,note_off,160,0,1,,,,,,,,,,,,,,,0,,,76,0
1150640,note_on,0,0,1,,,,,,,,,,,,,,,0,,,74,46
1150800,note_on,0,0,1,,,,,,,,,,,,,,,0,,,72,47
1150800,note_off,160,0,1,,,,,,,,,,,,,,,0,,,74,0
1150800,note_off,240,0,4,,,,,,,,,,,,,,,3,,,45,0
1150800,note_on,0,0,4,,,,,,,,,,,,,,,3,,,43,57
1150960,note_on,0,0,1,,,,,,,,,,,,,,,0,,,71,47
1150960,note_off,160,0,1,,,,,,,,,,,,,,,0,,,72,0
1151040,note_off,240,0,4,,,,,,,,,,,,,,,3,,,43,0
1151040,note_on,0,0,4,,,,,,,,,,,,,,,3,,,45,57
1151055,set_tempo,4560,1,0,,,,,,,298507,,,,,,,,,,,,
1151120,note_off,160,0,1,,,,,,,,,,,,,,,0,,,71,0
1151120,note_on,0,0,1,,,,,,,,,,,,,,,0,,,69,47
1151280,note_on,0,0,4,,,,,,,,,,,,,,,3,,,47,58
1151280,note_on,0,0,1,,,,,,,,,,,,,,,0,,,67,48
1151280,note_off,160,0,1,,,,,,,,,,,,,,,0,,,69,0
1151280,note_off,240,0,4,,,,,,,,,,,,,,,3,,,45,0
1151440,note_on,0,0,1,,,,,,,,,,,,,,,0,,,66,48
1151440,note_off,160,0,1,,,,,,,,,,,,,,,0,,,67,0
1151600,note_on,0,0,1,,,,,,,,,,,,,,,0,,,67,49
1151600,note_off,160,0,1,,,,,,,,,,,,,,,0,,,66,0
1151760,note_off,480,0,4,,,,,,,,,,,,,,,3,,,47,0
1151760,note_off,160,0,1,,,,,,,,,,,,,,,0,,,67,0
1151760,note_on,0,0,1,,,,,,,,,,,,,,,0,,,69,49
1151760,note_on,0,0,4,,,,,,,,,,,,,,,3,,,43,59
1151920,note_off,160,0,1,,,,,,,,,,,,,,,0,,,69,0
1151920,note_on,0,0,1,,,,,,,,,,,,,,,0,,,71,50
1152080,note_off,160,0,1,,,,,,,,,,,,,,,0,,,71,0
1152080,note_on,0,0,1,,,,,,,,,,,,,,,0,,,72,50
1152232,note_off,472,0,4,,,,,,,,,,,,,,,3,,,38,0
1152240,note_off,8,0,4,,,,,,,,,,,,,,,3,,,43,0
1152240,note_on,0,0,4,,,,,,,,,,,,,,,3,,,49,61
1152240,note_on,0,0,4,,,,,,,,,,,,,,,3,,,38,61
1152240,note_off,160,0,1,,,,,,,,,,,,,,,0,,,72,0
1152240,note_on,0,0,1,,,,,,,,,,,,,,,0,,,74,50
1152400,note_off,160,0,1,,,,,,,,,,,,,,,0,,,74,0
1152400,note_on,0,0,1,,,,,,,,,,,,,,,0,,,62,51
1152560,note_off,160,0,1,,,,,,,,,,,,,,,0,,,62,0
1152560,note_on,0,0,1,,,,,,,,,,,,,,,0,,,61,51
1152720,note_off,480,0,4,,,,,,,,,,,,,,,3,,,49,0
1152720,note_on,0,0,4,,,,,,,,,,,,,,,3,,,45,62
1152720,note_on,0,0,1,,,,,,,,,,,,,,,0,,,62,52
1152720,note_off,160,0,1,,,,,,,,,,,,,,,0,,,61,0
1152880,note_on,0,0,1,,,,,,,,,,,,,,,0,,,64,52
1152880,note_off,160,0,1,,,,,,,,,,,,,,,0,,,62,0
1152975,set_tempo,1920,1,0,,,,,,,300000,,,,,,,,,,,,
1153040,note_on,0,0,1,,,,,,,,,,,,,,,0,,,66,53
1153040,note_off,160,0,1,,,,,,,,,,,,,,,0,,,64,0
1153200,note_on,0,0,4,,,,,,,,,,,,,,,3,,,31,63
1153200,note_on,0,0,4,,,,,,,,,,,,,,,3,,,43,63
1153200,note_on,0,0,1,,,,,,,,,,,,,,,0,,,67,46
1153200,note_off,160,0,1,,,,,,,,,,,,,,,0,,,66,0
1153200,note_off,0,0,4,,,,,,,,,,,,,,,3,,,45,0
1153200,control_change,14880,0,2,,,,,,,,,,,,,64,0,1,,,,
1153200,note_off,480,0,4,,,,,,,,,,,,,,,3,,,38,0
1153215,set_tempo,240,1,0,,,,,,,297029,,,,,,,,,,,,
1153260,control_change,60,0,2,,,,,,,,,,,,,64,127,1,,,,
1153360,note_on,100,0,2,,,,,,,,,,,,,,,1,,,79,46
1153440,note_off,240,0,1,,,,,,,,,,,,,,,0,,,67,0
1153520,note_on,0,0,2,,,,,,,,,,,,,,,1,,,67,47
1153520,note_off,160,0,2,,,,,,,,,,,,,,,1,,,79,0
1153680,note_on,0,0,2,,,,,,,,,,,,,,,1,,,79,47
1153680,note_off,0,0,4,,,,,,,,,,,,,,,3,,,43,0
1153680,note_off,480,0,4,,,,,,,,,,,,,,,3,,,31,0
1153680,note_off,160,0,2,,,,,,,,,,,,,,,1,,,67,0
1153840,note_off,160,0,2,,,,,,,,,,,,,,,1,,,79,0
1153840,note_on,0,0,2,,,,,,,,,,,,,,,1,,,67,48
1154000,note_off,160,0,2,,,,,,,,,,,,,,,1,,,67,0
1154000,note_on,0,0,2,,,,,,,,,,,,,,,1,,,79,48
1154160,note_off,160,0,2,,,,,,,,,,,,,,,1,,,79,0
1154160,note_on,480,0,4,,,,,,,,,,,,,,,3,,,55,44
1154160,note_on,0,0,2,,,,,,,,,,,,,,,1,,,67,49
1154320,note_off,160,0,2,,,,,,,,,,,,,,,1,,,67,0
1154320,note_on,0,0,2,,,,,,,,,,,,,,,1,,,79,49
1154480,note_off,160,0,2,,,,,,,,,,,,,,,1,,,79,0
1154480,note_on,0,0,2,,,,,,,,,,,,,,,1,,,67,50
1154640,note_off,480,0,4,,,,,,,,,,,,,,,3,,,55,0
1154640,note_on,0,0,4,,,,,,,,,,,,,,,3,,,57,46
1154640,note_on,0,0,4,,,,,,,,,,,,,,,3,,,54,46
1154640,note_on,0,0,2,,,,,,,,,,,,,,,1,,,79,50
1154640,note_off,160,0,2,,,,,,,,,,,,,,,1,,,67,0
1154800,note_on,0,0,2,,,,,,,,,,,,,,,1,,,67,51
1154800,note_off,160,0,2,,,,,,,,,,,,,,,1,,,79,0
1154960,note_on,0,0,2,,,,,,,,,,,,,,,1,,,79,51
1154960,note_off,160,0,2,,,,,,,,,,,,,,,1,,,67,0
1155120,note_off,160,0,2,,,,,,,,,,,,,,,1,,,79,0
1155120,note_on,0,0,2,,,,,,,,,,,,,,,1,,,67,52
1155120,note_on,0,0,4,,,,,,,,,,,,,,,3,,,53,48
1155120,note_on,0,0,4,,,,,,,,,,,,,,,3,,,59,48
1155120,note_off,0,0,4,,,,,,,,,,,,,,,3,,,54,0
1155120,note_off,480,0,4,,,,,,,,,,,,,,,3,,,57,0
1155280,note_off,160,0,2,,,,,,,,,,,,,,,1,,,67,0
1155280,note_on,0,0,2,,,,,,,,,,,,,,,1,,,79,52
1155440,note_on,0,0,2,,,,,,,,,,,,,,,1,,,67,53
1155440,note_off,160,0,2,,,,,,,,,,,,,,,1,,,79,0
1155600,note_on,0,0,4,,,,,,,,,,,,,,,3,,,52,50
1155600,note_on,0,0,4,,,,,,,,,,,,,,,3,,,60,50
1155600,note_off,160,0,2,,,,,,,,,,,,,,,1,,,67,0
1155600,note_on,0,0,2,,,,,,,,,,,,,,,1,,,79,53
1155600,note_off,480,0,4,,,,,,,,,,,,,,,3,,,59,0
1155600,note_off,0,0,4,,,,,,,,,,,,,,,3,,,53,0
1155760,note_off,160,0,2,,,,,,,,,,,,,,,1,,,79,0
1155760,note_on,0,0,2,,,,,,,,,,,,,,,1,,,67,54
1155920,note_off,160,0,2,,,,,,,,,,,,,,,1,,,67,0
1155920,note_on,0,0,2,,,,,,,,,,,,,,,1,,,79,54
1156080,note_off,160,0,2,,,,,,,,,,,,,,,1,,,79,0
1156080,note_on,0,0,2,,,,,,,,,,,,,,,1,,,67,55
1156080,note_on,0,0,4,,,,,,,,,,,,,,,3,,,61,55
1156080,note_on,0,0,4,,,,,,,,,,,,,,,3,,,58,55
1156080,note_on,0,0,4,,,,,,,,,,,,,,,3,,,51,55
1156080,note_off,0,0,4,,,,,,,,,,,,,,,3,,,60,0
1156080,note_off,480,0,4,,,,,,,,,,,,,,,3,,,52,0
1156240,note_off,160,0,2,,,,,,,,,,,,,,,1,,,67,0
1156240,note_on,0,0,2,,,,,,,,,,,,,,,1,,,79,55
1156400,note_off,160,0,2,,,,,,,,,,,,,,,1,,,79,0
1156400,note_on,0,0,2,,,,,,,,,,,,,,,1,,,67,55
1156560,note_on,0,0,4,,,,,,,,,,,,,,,3,,,61,54
1156560,note_on,0,0,4,,,,,,,,,,,,,,,3,,,51,54
1156560,note_on,0,0,2,,,,,,,,,,,,,,,1,,,79,54
1156560,note_off,160,0,2,,,,,,,,,,,,,,,1,,,67,0
1156560,note_on,0,0,4,,,,,,,,,,,,,,,3,,,58,54
1156560,note_off,480,0,4,,,,,,,,,,,,,,,3,,,51,0
1156560,note_off,0,0,4,,,,,,,,,,,,,,,3,,,58,0
1156560,note_off,0,0,4,,,,,,,,,,,,,,,3,,,61,0
1156720,note_on,0,0,2,,,,,,,,,,,,,,,1,,,67,54
1156720,note_off,160,0,2,,,,,,,,,,,,,,,1,,,79,0
1156815,set_tempo,3600,1,0,,,,,,,298507,,,,,,,,,,,,
1156880,note_off,160,0,2,,,,,,,,,,,,,,,1,,,67,0
1156880,note_on,0,0,2,,,,,,,,,,,,,,,1,,,79,53
1157040,note_off,160,0,2,,,,,,,,,,,,,,,1,,,79,0
1157040,note_off,480,0,4,,,,,,,,,,,,,,,3,,,58,0
1157040,note_off,0,0,4,,,,,,,,,,,,,,,3,,,51,0
1157040,note_off,0,0,4,,,,,,,,,,,,,,,3,,,61,0
1157040,note_on,0,0,4,,,,,,,,,,,,,,,3,,,51,54
1157040,note_on,0,0,4,,,,,,,,,,,,,,,3,,,58,54
1157040,note_on,0,0,4,,,,,,,,,,,,,,,3,,,61,54
1157040,note_on,0,0,2,,,,,,,,,,,,,,,1,,,67,53
1157200,note_off,160,0,2,,,,,,,,,,,,,,,1,,,67,0
1157200,note_on,0,0,2,,,,,,,,,,,,,,,1,,,79,53
1157360,note_off,160,0,2,,,,,,,,,,,,,,,1,,,79,0
1157360,note_on,0,0,2,,,,,,,,,,,,,,,1,,,67,52
1157520,note_on,0,0,4,,,,,,,,,,,,,,,3,,,62,53
1157520,note_off,0,0,4,,,,,,,,,,,,,,,3,,,58,0
1157520,note_off,0,0,4,,,,,,,,,,,,,,,3,,,61,0
1157520,note_off,480,0,4,,,,,,,,,,,,,,,3,,,51,0
1157520,note_on,0,0,4,,,,,,,,,,,,,,,3,,,59,53
1157520,note_off,160,0,2,,,,,,,,,,,,,,,1,,,67,0
1157520,note_on,0,0,2,,,,,,,,,,,,,,,1,,,79,52
1157520,note_on,0,0,4,,,,,,,,,,,,,,,3,,,50,53
1157680,note_on,0,0,2,,,,,,,,,,,,,,,1,,,67,51
1157680,note_off,160,0,2,,,,,,,,,,,,,,,1,,,79,0
1157840,note_off,160,0,2,,,,,,,,,,,,,,,1,,,67,0
1157840,note_on,0,0,2,,,,,,,,,,,,,,,1,,,79,51
1157925,set_tempo,1110,1,0,,,,,,,301507,,,,,,,,,,,,
1158000,note_off,0,0,4,,,,,,,,,,,,,,,3,,,59,0
1158000,note_on,4560,0,1,,,,,,,,,,,,,,,0,,,76,51
1158000,note_on,0,0,4,,,,,,,,,,,,,,,3,,,38,55
1158000,control_change,160,0,2,,,,,,,,,,,,,64,0,1,,,,
1158000,note_off,0,0,4,,,,,,,,,,,,,,,3,,,62,0
1158000,note_off,480,0,4,,,,,,,,,,,,,,,3,,,50,0
1158000,note_off,0,0,2,,,,,,,,,,,,,,,1,,,79,0
1158000,note_on,0,0,2,,,,,,,,,,,,,,,1,,,66,51
1158000,control_change,35520,0,3,,,,,,,,,,,,,64,0,2,,,,
1158000,note_on,0,0,2,,,,,,,,,,,,,,,1,,,69,51
1158015,set_tempo,90,1,0,,,,,,,297029,,,,,,,,,,,,
1158060,control_change,60,0,3,,,,,,,,,,,,,64,127,2,,,,
1158160,note_on,100,0,3,,,,,,,,,,,,,,,2,,,50,49
1158240,note_on,0,0,1,,,,,,,,,,,,,,,0,,,74,50
1158240,note_off,240,0,1,,,,,,,,,,,,,,,0,,,76,0
1158320,note_on,0,0,3,,,,,,,,,,,,,,,2,,,54,49
1158320,note_off,160,0,3,,,,,,,,,,,,,,,2,,,50,0
1158480,note_on,0,0,3,,,,,,,,,,,,,,,2,,,57,48
1158480,note_off,160,0,3,,,,,,,,,,,,,,,2,,,54,0
1158480,note_on,0,0,1,,,,,,,,,,,,,,,0,,,73,49
1158480,note_off,240,0,1,,,,,,,,,,,,,,,0,,,74,0
1158640,note_on,0,0,3,,,,,,,,,,,,,,,2,,,54,48
1158640,note_off,160,0,3,,,,,,,,,,,,,,,2,,,57,0
1158720,note_on,0,0,1,,,,,,,,,,,,,,,0,,,74,49
1158720,note_off,240,0,1,,,,,,,,,,,,,,,0,,,73,0
1158800,note_on,0,0,3,,,,,,,,,,,,,,,2,,,50,48
1158800,note_off,160,0,3,,,,,,,,,,,,,,,2,,,54,0
1158960,note_on,0,0,2,,,,,,,,,,,,,,,1,,,67,48
1158960,note_off,240,0,1,,,,,,,,,,,,,,,0,,,74,0
1158960,note_on,0,0,1,,,,,,,,,,,,,,,0,,,71,48
1158960,note_off,0,0,3,,,,,,,,,,,,,,,2,,,50,0
1158960,control_change,160,0,3,,,,,,,,,,,,,64,0,2,,,,
1158960,note_off,960,0,2,,,,,,,,,,,,,,,1,,,69,0
1158960,note_off,0,0,2,,,,,,,,,,,,,,,1,,,66,0
1158960,note_on,0,0,2,,,,,,,,,,,,,,,1,,,62,48
1158960,note_off,960,0,4,,,,,,,,,,,,,,,3,,,38,0
1158960,note_on,0,0,4,,,,,,,,,,,,,,,3,,,43,54
1159020,control_change,60,0,3,,,,,,,,,,,,,64,127,2,,,,
1159120,note_on,100,0,3,,,,,,,,,,,,,,,2,,,50,47
1159280,note_off,160,0,3,,,,,,,,,,,,,,,2,,,50,0
1159280,note_on,0,0,3,,,,,,,,,,,,,,,2,,,55,47
1159440,note_off,160,0,3,,,,,,,,,,,,,,,2,,,55,0
1159440,note_on,0,0,3,,,,,,,,,,,,,,,2,,,59,47
1159440,note_off,480,0,2,,,,,,,,,,,,,,,1,,,67,0
1159440,note_off,0,0,2,,,,,,,,,,,,,,,1,,,62,0
1159440,note_off,480,0,1,,,,,,,,,,,,,,,0,,,71,0
1159440,note_on,0,0,1,,,,,,,,,,,,,,,0,,,74,47
1159600,note_on,0,0,3,,,,,,,,,,,,,,,2,,,55,46
1159600,note_off,160,0,3,,,,,,,,,,,,,,,2,,,59,0
1159760,note_off,160,0,3,,,,,,,,,,,,,,,2,,,55,0
1159760,note_on,0,0,3,,,,,,,,,,,,,,,2,,,50,46
1159860,set_tempo,1845,1,0,,,,,,,298507,,,,,,,,,,,,
1159920,note_on,480,0,2,,,,,,,,,,,,,,,1,,,69,46
1159920,note_off,0,0,3,,,,,,,,,,,,,,,2,,,50,0
1159920,control_change,160,0,3,,,,,,,,,,,,,64,0,2,,,,
1159920,note_off,960,0,4,,,,,,,,,,,,,,,3,,,43,0
1159920,set_tempo,60,1,0,,,,,,,297029,,,,,,,,,,,,
1159920,note_off,480,0,1,,,,,,,,,,,,,,,0,,,74,0
1159920,note_on,0,0,1,,,,,,,,,,,,,,,0,,,76,46
1159920,note_on,0,0,4,,,,,,,,,,,,,,,3,,,38,52
1159920,note_on,0,0,2,,,,,,,,,,,,,,,1,,,66,46
1159980,control_change,60,0,3,,,,,,,,,,,,,64,127,2,,,,
1160080,note_on,100,0,3,,,,,,,,,,,,,,,2,,,50,45
1160160,note_off,240,0,1,,,,,,,,,,,,,,,0,,,76,0
1160160,note_on,0,0,1,,,,,,,,,,,,,,,0,,,74,45
1160240,note_off,160,0,3,,,,,,,,,,,,,,,2,,,50,0
1160240,note_on,0,0,3,,,,,,,,,,,,,,,2,,,54,45
1160400,note_on,0,0,1,,,,,,,,,,,,,,,0,,,73,45
1160400,note_off,240,0,1,,,,,,,,,,,,,,,0,,,74,0
1160400,note_off,160,0,3,,,,,,,,,,,,,,,2,,,54,0
1160400,note_on,0,0,3,,,,,,,,,,,,,,,2,,,57,45
1160560,note_off,160,0,3,,,,,,,,,,,,,,,2,,,57,0
1160560,note_on,0,0,3,,,,,,,,,,,,,,,2,,,54,44
1160640,note_on,0,0,1,,,,,,,,,,,,,,,0,,,74,44
1160640,note_off,240,0,1,,,,,,,,,,,,,,,0,,,73,0
1160670,set_tempo,750,1,0,,,,,,,300000,,,,,,,,,,,,
1160720,note_off,160,0,3,,,,,,,,,,,,,,,2,,,54,0
1160720,note_on,0,0,3,,,,,,,,,,,,,,,2,,,50,44
1160880,note_off,0,0,2,,,,,,,,,,,,,,,1,,,69,0
1160880,note_on,0,0,1,,,,,,,,,,,,,,,0,,,71,44
1160880,control_change,960,0,2,,,,,,,,,,,,,64,0,1,,,,
1160880,note_off,240,0,1,,,,,,,,,,,,,,,0,,,74,0
1160880,note_off,0,0,3,,,,,,,,,,,,,,,2,,,50,0
1160880,control_change,160,0,3,,,,,,,,,,,,,64,0,2,,,,
1160880,note_on,0,0,2,,,,,,,,,,,,,,,1,,,62,44
1160880,note_off,0,0,2,,,,,,,,,,,,,,,1,,,66,0
1160880,note_on,0,0,2,,,,,,,,,,,,,,,1,,,67,44
1160880,note_off,960,0,4,,,,,,,,,,,,,,,3,,,38,0
1160880,note_on,0,0,4,,,,,,,,,,,,,,,3,,,43,50
1160880,note_on,0,0,4,,,,,,,,,,,,,,,3,,,55,50
1160895,set_tempo,225,1,0,,,,,,,297029,,,,,,,,,,,,
1160940,control_change,60,0,2,,,,,,,,,,,,,64,127,1,,,,
1161040,note_on,100,0,2,,,,,,,,,,,,,,,1,,,79,44
1161120,note_off,80,0,2,,,,,,,,,,,,,,,1,,,62,0
1161120,note_off,0,0,2,,,,,,,,,,,,,,,1,,,67,0
1161120,note_off,240,0,1,,,,,,,,,,,,,,,0,,,71,0
1161200,note_off,80,0,2,,,,,,,,,,,,,,,1,,,79,0
1161200,note_on,0,0,2,,,,,,,,,,,,,,,1,,,67,45
1161360,note_off,480,0,4,,,,,,,,,,,,,,,3,,,55,0
1161360,note_off,0,0,4,,,,,,,,,,,,,,,3,,,43,0
1161360,note_off,160,0,2,,,,,,,,,,,,,,,1,,,67,0
1161360,note_on,0,0,2,,,,,,,,,,,,,,,1,,,79,45
1161520,note_off,160,0,2,,,,,,,,,,,,,,,1,,,79,0
1161520,note_on,0,0,2,,,,,,,,,,,,,,,1,,,67,46
1161680,note_off,160,0,2,,,,,,,,,,,,,,,1,,,67,0
1161680,note_on,0,0,2,,,,,,,,,,,,,,,1,,,79,47
1161840,note_off,160,0,2,,,,,,,,,,,,,,,1,,,79,0
1161840,note_on,0,0,2,,,,,,,,,,,,,,,1,,,67,47
1161840,note_on,480,0,4,,,,,,,,,,,,,,,3,,,43,48
1161840,note_on,0,0,4,,,,,,,,,,,,,,,3,,,55,48
1162000,note_on,0,0,2,,,,,,,,,,,,,,,1,,,79,48
1162000,note_off,160,0,2,,,,,,,,,,,,,,,1,,,67,0
1162160,note_off,160,0,2,,,,,,,,,,,,,,,1,,,79,0
1162160,note_on,0,0,2,,,,,,,,,,,,,,,1,,,67,48
1162320,note_off,0,0,4,,,,,,,,,,,,,,,3,,,55,0
1162320,note_on,0,0,4,,,,,,,,,,,,,,,3,,,54,50
1162320,note_on,0,0,4,,,,,,,,,,,,,,,3,,,45,50
1162320,note_off,160,0,2,,,,,,,,,,,,,,,1,,,67,0
1162320,note_on,0,0,2,,,,,,,,,,,,,,,1,,,79,49
1162320,note_off,480,0,4,,,,,,,,,,,,,,,3,,,43,0
1162480,note_off,160,0,2,,,,,,,,,,,,,,,1,,,79,0
1162480,note_on,0,0,2,,,,,,,,,,,,,,,1,,,67,50
1162640,note_off,160,0,2,,,,,,,,,,,,,,,1,,,67,0
1162640,note_on,0,0,2,,,,,,,,,,,,,,,1,,,79,50
1162800,note_off,160,0,2,,,,,,,,,,,,,,,1,,,79,0
1162800,note_off,0,0,4,,,,,,,,,,,,,,,3,,,45,0
1162800,note_on,0,0,4,,,,,,,,,,,,,,,3,,,47,52
1162800,note_off,480,0,4,,,,,,,,,,,,,,,3,,,54,0
1162800,note_on,0,0,4,,,,,,,,,,,,,,,3,,,53,52
1162800,note_on,0,0,2,,,,,,,,,,,,,,,1,,,67,51
1162960,note_off,160,0,2,,,,,,,,,,,,,,,1,,,67,0
1162960,note_on,0,0,2,,,,,,,,,,,,,,,1,,,79,52
1163120,note_off,160,0,2,,,,,,,,,,,,,,,1,,,79,0
1163120,note_on,0,0,2,,,,,,,,,,,,,,,1,,,67,52
1163280,note_off,160,0,2,,,,,,,,,,,,,,,1,,,67,0
1163280,note_on,0,0,2,,,,,,,,,,,,,,,1,,,79,53
1163280,note_on,0,0,4,,,,,,,,,,,,,,,3,,,52,53
1163280,note_on,0,0,4,,,,,,,,,,,,,,,3,,,48,53
1163280,note_off,0,0,4,,,,,,,,,,,,,,,3,,,47,0
1163280,note_off,480,0,4,,,,,,,,,,,,,,,3,,,53,0
1163440,note_off,160,0,2,,,,,,,,,,,,,,,1,,,79,0
1163440,note_on,0,0,2,,,,,,,,,,,,,,,1,,,67,53
1163600,note_off,160,0,2,,,,,,,,,,,,,,,1,,,67,0
1163600,note_on,0,0,2,,,,,,,,,,,,,,,1,,,79,54
1163760,note_off,160,0,2,,,,,,,,,,,,,,,1,,,79,0
1163760,note_on,0,0,4,,,,,,,,,,,,,,,3,,,48,57
1163760,note_on,0,0,4,,,,,,,,,,,,,,,3,,,51,57
1163760,note_off,0,0,4,,,,,,,,,,,,,,,3,,,48,0
1163760,note_off,480,0,4,,,,,,,,,,,,,,,3,,,52,0
1163760,note_on,0,0,2,,,,,,,,,,,,,,,1,,,67,55
1163920,note_off,160,0,2,,,,,,,,,,,,,,,1,,,67,0
1163920,note_on,0,0,2,,,,,,,,,,,,,,,1,,,79,55
1164080,note_on,0,0,2,,,,,,,,,,,,,,,1,,,67,55
1164080,note_off,160,0,2,,,,,,,,,,,,,,,1,,,79,0
1164240,note_on,0,0,2,,,,,,,,,,,,,,,1,,,79,54
1164240,note_off,160,0,2,,,,,,,,,,,,,,,1,,,67,0
1164240,note_off,480,0,4,,,,,,,,,,,,,,,3,,,51,0
1164240,note_off,0,0,4,,,,,,,,,,,,,,,3,,,48,0
1164240,note_on,0,0,4,,,,,,,,,,,,,,,3,,,51,55
1164240,note_on,0,0,4,,,,,,,,,,,,,,,3,,,48,55
1164400,note_on,0,0,2,,,,,,,,,,,,,,,1,,,67,54
1164400,note_off,160,0,2,,,,,,,,,,,,,,,1,,,79,0
1164465,set_tempo,3570,1,0,,,,,,,298507,,,,,,,,,,,,
1164560,note_off,160,0,2,,,,,,,,,,,,,,,1,,,67,0
1164560,note_on,0,0,2,,,,,,,,,,,,,,,1,,,79,53
1164720,note_off,480,0,4,,,,,,,,,,,,,,,3,,,51,0
1164720,note_on,0,0,4,,,,,,,,,,,,,,,3,,,48,54
1164720,note_off,160,0,2,,,,,,,,,,,,,,,1,,,79,0
1164720,note_on,0,0,2,,,,,,,,,,,,,,,1,,,67,53
1164720,note_on,0,0,4,,,,,,,,,,,,,,,3,,,51,54
1164720,note_off,0,0,4,,,,,,,,,,,,,,,3,,,48,0
1164880,note_off,160,0,2,,,,,,,,,,,,,,,1,,,67,0
1164880,note_on,0,0,2,,,,,,,,,,,,,,,1,,,79,53
1165040,note_off,160,0,2,,,,,,,,,,,,,,,1,,,79,0
1165040,note_on,0,0,2,,,,,,,,,,,,,,,1,,,67,52
1165200,note_on,0,0,4,,,,,,,,,,,,,,,3,,,47,52
1165200,note_off,160,0,2,,,,,,,,,,,,,,,1,,,67,0
1165200,note_on,0,0,2,,,,,,,,,,,,,,,1,,,79,52
1165200,note_off,0,0,4,,,,,,,,,,,,,,,3,,,48,0
1165200,note_off,480,0,4,,,,,,,,,,,,,,,3,,,51,0
1165200,note_on,0,0,4,,,,,,,,,,,,,,,3,,,50,52
1165360,note_off,160,0,2,,,,,,,,,,,,,,,1,,,79,0
1165360,note_on,0,0,2,,,,,,,,,,,,,,,1,,,67,51
1165425,set_tempo,960,1,0,,,,,,,301507,,,,,,,,,,,,
1165520,note_off,160,0,2,,,,,,,,,,,,,,,1,,,67,0
1165520,note_on,0,0,2,,,,,,,,,,,,,,,1,,,79,51
1165680,control_change,160,0,2,,,,,,,,,,,,,64,0,1,,,,
1165680,note_on,0,0,4,,,,,,,,,,,,,,,3,,,52,50
1165680,note_off,480,0,4,,,,,,,,,,,,,,,3,,,50,0
1165680,note_on,0,0,4,,,,,,,,,,,,,,,3,,,38,50
1165680,note_off,0,0,4,,,,,,,,,,,,,,,3,,,47,0
1165680,note_on,0,0,2,,,,,,,,,,,,,,,1,,,66,51
1165680,note_off,0,0,2,,,,,,,,,,,,,,,1,,,79,0
1165695,set_tempo,270,1,0,,,,,,,297029,,,,,,,,,,,,
1165740,control_change,60,0,2,,,,,,,,,,,,,64,127,1,,,,
1165840,note_on,0,0,2,,,,,,,,,,,,,,,1,,,69,50
1165840,note_off,100,0,2,,,,,,,,,,,,,,,1,,,66,0
1165920,note_on,0,0,4,,,,,,,,,,,,,,,3,,,50,49
1165920,note_off,240,0,4,,,,,,,,,,,,,,,3,,,52,0
1166000,note_on,0,0,2,,,,,,,,,,,,,,,1,,,74,50
1166000,note_off,160,0,2,,,,,,,,,,,,,,,1,,,69,0
1166160,note_on,0,0,2,,,,,,,,,,,,,,,1,,,78,49
1166160,note_on,0,0,4,,,,,,,,,,,,,,,3,,,49,48
1166160,note_off,160,0,2,,,,,,,,,,,,,,,1,,,74,0
1166160,note_off,240,0,4,,,,,,,,,,,,,,,3,,,50,0
1166320,note_off,160,0,2,,,,,,,,,,,,,,,1,,,78,0
1166320,note_on,0,0,2,,,,,,,,,,,,,,,1,,,74,49
1166400,note_on,0,0,4,,,,,,,,,,,,,,,3,,,50,48
1166400,note_off,240,0,4,,,,,,,,,,,,,,,3,,,49,0
1166480,note_off,160,0,2,,,,,,,,,,,,,,,1,,,74,0
1166480,note_on,0,0,2,,,,,,,,,,,,,,,1,,,69,49
1166576,note_off,176,0,4,,,,,,,,,,,,,,,3,,,38,0
1166640,note_on,0,0,4,,,,,,,,,,,,,,,3,,,47,47
1166640,note_on,0,0,2,,,,,,,,,,,,,,,1,,,67,48
1166640,note_off,0,0,2,,,,,,,,,,,,,,,1,,,69,0
1166640,control_change,160,0,2,,,,,,,,,,,,,64,0,1,,,,
1166640,note_off,64,0,4,,,,,,,,,,,,,,,3,,,50,0
1166640,note_on,0,0,4,,,,,,,,,,,,,,,3,,,43,47
1166700,control_change,60,0,2,,,,,,,,,,,,,64,127,1,,,,
1166800,note_on,0,0,2,,,,,,,,,,,,,,,1,,,71,48
1166800,note_off,100,0,2,,,,,,,,,,,,,,,1,,,67,0
1166960,note_on,0,0,2,,,,,,,,,,,,,,,1,,,74,47
1166960,note_off,160,0,2,,,,,,,,,,,,,,,1,,,71,0
1167120,note_off,160,0,2,,,,,,,,,,,,,,,1,,,74,0
1167120,note_on,0,0,2,,,,,,,,,,,,,,,1,,,79,47
1167120,note_on,0,0,4,,,,,,,,,,,,,,,3,,,50,45
1167120,note_off,480,0,4,,,,,,,,,,,,,,,3,,,47,0
1167280,note_off,160,0,2,,,,,,,,,,,,,,,1,,,79,0
1167280,note_on,0,0,2,,,,,,,,,,,,,,,1,,,74,47
1167440,note_off,160,0,2,,,,,,,,,,,,,,,1,,,74,0
1167440,note_on,0,0,2,,,,,,,,,,,,,,,1,,,71,46
1167540,set_tempo,1845,1,0,,,,,,,298507,,,,,,,,,,,,
1167600,set_tempo,60,1,0,,,,,,,297029,,,,,,,,,,,,
1167600,note_on,0,0,4,,,,,,,,,,,,,,,3,,,52,43
1167600,note_off,480,0,4,,,,,,,,,,,,,,,3,,,43,0
1167600,note_off,0,0,4,,,,,,,,,,,,,,,3,,,50,0
1167600,note_on,0,0,4,,,,,,,,,,,,,,,3,,,38,43
1167600,note_on,0,0,2,,,,,,,,,,,,,,,1,,,66,46
1167600,note_off,0,0,2,,,,,,,,,,,,,,,1,,,71,0
1167600,control_change,160,0,2,,,,,,,,,,,,,64,0,1,,,,
1167660,control_change,60,0,2,,,,,,,,,,,,,64,127,1,,,,
1167760,note_off,100,0,2,,,,,,,,,,,,,,,1,,,66,0
1167760,note_on,0,0,2,,,,,,,,,,,,,,,1,,,69,45
1167840,note_off,240,0,4,,,,,,,,,,,,,,,3,,,52,0
1167840,note_on,0,0,4,,,,,,,,,,,,,,,3,,,50,42
1167920,note_off,160,0,2,,,,,,,,,,,,,,,1,,,69,0
1167920,note_on,0,0,2,,,,,,,,,,,,,,,1,,,74,45
1168080,note_on,0,0,4,,,,,,,,,,,,,,,3,,,49,41
1168080,note_off,240,0,4,,,,,,,,,,,,,,,3,,,50,0
1168080,note_off,160,0,2,,,,,,,,,,,,,,,1,,,74,0
1168080,note_on,0,0,2,,,,,,,,,,,,,,,1,,,78,45
1168240,note_on,0,0,2,,,,,,,,,,,,,,,1,,,74,44
1168240,note_off,160,0,2,,,,,,,,,,,,,,,1,,,78,0
1168320,note_off,240,0,4,,,,,,,,,,,,,,,3,,,49,0
1168320,set_tempo,720,1,0,,,,,,,298507,,,,,,,,,,,,
1168320,note_on,0,0,4,,,,,,,,,,,,,,,3,,,50,40
1168400,note_off,160,0,2,,,,,,,,,,,,,,,1,,,74,0
1168400,note_on,0,0,2,,,,,,,,,,,,,,,1,,,69,44
1168496,note_off,176,0,4,,,,,,,,,,,,,,,3,,,38,0
1168560,control_change,160,0,2,,,,,,,,,,,,,64,0,1,,,,
1168560,note_on,0,0,4,,,,,,,,,,,,,,,3,,,43,40
1168560,note_off,0,0,2,,,,,,,,,,,,,,,1,,,69,0
1168560,note_on,0,0,4,,,,,,,,,,,,,,,3,,,47,40
1168560,note_off,64,0,4,,,,,,,,,,,,,,,3,,,50,0
1168560,note_on,0,0,2,,,,,,,,,,,,,,,1,,,67,43
1168620,control_change,60,0,2,,,,,,,,,,,,,64,127,1,,,,
1168720,note_on,0,0,2,,,,,,,,,,,,,,,1,,,71,43
1168720,note_off,100,0,2,,,,,,,,,,,,,,,1,,,67,0
1168880,note_off,160,0,2,,,,,,,,,,,,,,,1,,,71,0
1168880,note_on,0,0,2,,,,,,,,,,,,,,,1,,,74,43
1169040,note_off,0,0,4,,,,,,,,,,,,,,,3,,,43,0
1169040,note_off,160,0,2,,,,,,,,,,,,,,,1,,,74,0
1169040,note_on,0,0,2,,,,,,,,,,,,,,,1,,,79,42
1169040,note_off,480,0,4,,,,,,,,,,,,,,,3,,,47,0
1169200,note_off,160,0,2,,,,,,,,,,,,,,,1,,,79,0
1169200,note_on,0,0,2,,,,,,,,,,,,,,,1,,,74,42
1169360,note_off,160,0,2,,,,,,,,,,,,,,,1,,,74,0
1169360,note_on,0,0,2,,,,,,,,,,,,,,,1,,,71,42
1169400,set_tempo,1080,1,0,,,,,,,301507,,,,,,,,,,,,
1169520,note_off,0,0,2,,,,,,,,,,,,,,,1,,,71,0
1169520,control_change,160,0,2,,,,,,,,,,,,,64,0,1,,,,
1169520,control_change,8640,0,3,,,,,,,,,,,,,64,0,2,,,,
1169520,note_on,480,0,4,,,,,,,,,,,,,,,3,,,47,48
1169520,note_on,8400,0,1,,,,,,,,,,,,,,,0,,,84,52
1169535,set_tempo,135,1,0,,,,,,,297029,,,,,,,,,,,,
1169580,control_change,60,0,3,,,,,,,,,,,,,64,127,2,,,,
1169680,note_on,100,0,3,,,,,,,,,,,,,,,2,,,54,42
1169760,note_on,0,0,1,,,,,,,,,,,,,,,0,,,83,52
1169760,note_off,240,0,1,,,,,,,,,,,,,,,0,,,84,0
1169840,note_on,0,0,3,,,,,,,,,,,,,,,2,,,59,42
1169840,note_off,160,0,3,,,,,,,,,,,,,,,2,,,54,0
1170000,note_on,0,0,1,,,,,,,,,,,,,,,0,,,82,52
1170000,note_off,240,0,1,,,,,,,,,,,,,,,0,,,83,0
1170000,note_on,0,0,3,,,,,,,,,,,,,,,2,,,63,43
1170000,note_off,160,0,3,,,,,,,,,,,,,,,2,,,59,0
1170160,note_on,0,0,3,,,,,,,,,,,,,,,2,,,59,43
1170160,note_off,160,0,3,,,,,,,,,,,,,,,2,,,63,0
1170240,note_on,0,0,1,,,,,,,,,,,,,,,0,,,83,52
1170240,note_off,240,0,1,,,,,,,,,,,,,,,0,,,82,0
1170320,note_on,0,0,3,,,,,,,,,,,,,,,2,,,54,43
1170320,note_off,160,0,3,,,,,,,,,,,,,,,2,,,59,0
1170480,note_off,0,0,3,,,,,,,,,,,,,,,2,,,54,0
1170480,note_off,960,0,4,,,,,,,,,,,,,,,3,,,47,0
1170480,control_change,160,0,3,,,,,,,,,,,,,64,0,2,,,,
1170480,note_on,0,0,4,,,,,,,,,,,,,,,3,,,52,49
1170480,note_off,240,0,1,,,,,,,,,,,,,,,0,,,83,0
1170480,note_on,0,0,1,,,,,,,,,,,,,,,0,,,79,52
1170540,control_change,60,0,3,,,,,,,,,,,,,64,127,2,,,,
1170640,note_on,100,0,3,,,,,,,,,,,,,,,2,,,55,43
1170800,note_off,160,0,3,,,,,,,,,,,,,,,2,,,55,0
1170800,note_on,0,0,3,,,,,,,,,,,,,,,2,,,59,44
1170960,note_on,0,0,3,,,,,,,,,,,,,,,2,,,64,44
1170960,note_off,160,0,3,,,,,,,,,,,,,,,2,,,59,0
1170960,note_on,0,0,1,,,,,,,,,,,,,,,0,,,83,53
1170960,note_off,480,0,1,,,,,,,,,,,,,,,0,,,79,0
1171120,note_on,0,0,3,,,,,,,,,,,,,,,2,,,59,44
1171120,note_off,160,0,3,,,,,,,,,,,,,,,2,,,64,0
1171280,note_off,160,0,3,,,,,,,,,,,,,,,2,,,59,0
1171280,note_on,0,0,3,,,,,,,,,,,,,,,2,,,55,44
1171380,set_tempo,1845,1,0,,,,,,,298507,,,,,,,,,,,,
1171440,control_change,160,0,3,,,,,,,,,,,,,64,0,2,,,,
1171440,set_tempo,60,1,0,,,,,,,297029,,,,,,,,,,,,
1171440,note_on,0,0,1,,,,,,,,,,,,,,,0,,,84,53
1171440,note_on,0,0,4,,,,,,,,,,,,,,,3,,,47,50
1171440,note_off,480,0,1,,,,,,,,,,,,,,,0,,,83,0
1171440,note_off,0,0,3,,,,,,,,,,,,,,,2,,,55,0
1171440,note_off,960,0,4,,,,,,,,,,,,,,,3,,,52,0
1171500,control_change,60,0,3,,,,,,,,,,,,,64,127,2,,,,
1171600,note_on,100,0,3,,,,,,,,,,,,,,,2,,,54,45
1171680,note_on,0,0,1,,,,,,,,,,,,,,,0,,,83,53
1171680,note_off,240,0,1,,,,,,,,,,,,,,,0,,,84,0
1171760,note_on,0,0,3,,,,,,,,,,,,,,,2,,,59,45
1171760,note_off,160,0,3,,,,,,,,,,,,,,,2,,,54,0
1171920,note_on,0,0,3,,,,,,,,,,,,,,,2,,,63,45
1171920,note_on,0,0,1,,,,,,,,,,,,,,,0,,,82,54
1171920,note_off,160,0,3,,,,,,,,,,,,,,,2,,,59,0
1171920,note_off,240,0,1,,,,,,,,,,,,,,,0,,,83,0
1172080,note_off,160,0,3,,,,,,,,,,,,,,,2,,,63,0
1172080,note_on,0,0,3,,,,,,,,,,,,,,,2,,,59,46
1172160,note_off,240,0,1,,,,,,,,,,,,,,,0,,,82,0
1172160,note_on,0,0,1,,,,,,,,,,,,,,,0,,,83,54
1172175,set_tempo,735,1,0,,,,,,,298507,,,,,,,,,,,,
1172240,note_off,160,0,3,,,,,,,,,,,,,,,2,,,59,0
1172240,note_on,0,0,3,,,,,,,,,,,,,,,2,,,54,46
1172400,control_change,160,0,3,,,,,,,,,,,,,64,0,2,,,,
1172400,note_off,0,0,3,,,,,,,,,,,,,,,2,,,54,0
1172400,note_off,960,0,4,,,,,,,,,,,,,,,3,,,47,0
1172400,note_on,0,0,4,,,,,,,,,,,,,,,3,,,52,51
1172400,note_on,0,0,1,,,,,,,,,,,,,,,0,,,79,54
1172400,note_off,240,0,1,,,,,,,,,,,,,,,0,,,83,0
1172460,control_change,60,0,3,,,,,,,,,,,,,64,127,2,,,,
1172560,note_on,100,0,3,,,,,,,,,,,,,,,2,,,55,46
1172720,note_off,160,0,3,,,,,,,,,,,,,,,2,,,55,0
1172720,note_on,0,0,3,,,,,,,,,,,,,,,2,,,59,47
1172880,note_off,480,0,1,,,,,,,,,,,,,,,0,,,79,0
1172880,note_on,0,0,1,,,,,,,,,,,,,,,0,,,83,54
1172880,note_off,160,0,3,,,,,,,,,,,,,,,2,,,59,0
1172880,note_on,0,0,3,,,,,,,,,,,,,,,2,,,64,47
1173040,note_on,0,0,3,,,,,,,,,,,,,,,2,,,55,47
1173040,note_off,160,0,3,,,,,,,,,,,,,,,2,,,64,0
1173120,set_tempo,945,1,0,,,,,,,301507,,,,,,,,,,,,
1173200,note_on,0,0,3,,,,,,,,,,,,,,,2,,,52,47
1173200,note_off,160,0,3,,,,,,,,,,,,,,,2,,,55,0
1173360,control_change,0,0,2,,,,,,,,,,,,,64,0,1,,,,
1173360,note_on,3840,0,2,,,,,,,,,,,,,,,1,,,71,52
1173360,note_off,0,0,3,,,,,,,,,,,,,,,2,,,52,0
1173360,note_off,480,0,1,,,,,,,,,,,,,,,0,,,83,0
1173360,control_change,160,0,3,,,,,,,,,,,,,64,0,2,,,,
1173360,note_on,0,0,4,,,,,,,,,,,,,,,3,,,45,52
1173360,note_off,960,0,4,,,,,,,,,,,,,,,3,,,52,0
1173375,set_tempo,255,1,0,,,,,,,297029,,,,,,,,,,,,
1173420,control_change,60,0,2,,,,,,,,,,,,,64,127,1,,,,
1173520,note_off,100,0,2,,,,,,,,,,,,,,,1,,,71,0
1173520,note_on,0,0,2,,,,,,,,,,,,,,,1,,,74,52
1173600,note_on,0,0,4,,,,,,,,,,,,,,,3,,,43,52
1173600,note_off,240,0,4,,,,,,,,,,,,,,,3,,,45,0
1173680,note_off,160,0,2,,,,,,,,,,,,,,,1,,,74,0
1173680,note_on,0,0,2,,,,,,,,,,,,,,,1,,,79,52
1173840,note_on,0,0,4,,,,,,,,,,,,,,,3,,,42,52
1173840,note_off,240,0,4,,,,,,,,,,,,,,,3,,,43,0
1173840,note_off,160,0,2,,,,,,,,,,,,,,,1,,,79,0
1173840,note_on,0,0,2,,,,,,,,,,,,,,,1,,,83,52
1174000,note_on,0,0,2,,,,,,,,,,,,,,,1,,,79,52
1174000,note_off,160,0,2,,,,,,,,,,,,,,,1,,,83,0
1174080,note_on,0,0,4,,,,,,,,,,,,,,,3,,,43,53
1174080,note_off,240,0,4,,,,,,,,,,,,,,,3,,,42,0
1174160,note_off,160,0,2,,,,,,,,,,,,,,,1,,,79,0
1174160,note_on,0,0,2,,,,,,,,,,,,,,,1,,,74,52
1174320,note_off,240,0,4,,,,,,,,,,,,,,,3,,,43,0
1174320,note_on,0,0,4,,,,,,,,,,,,,,,3,,,40,53
1174320,control_change,160,0,2,,,,,,,,,,,,,64,0,1,,,,
1174320,note_off,0,0,2,,,,,,,,,,,,,,,1,,,74,0
1174320,note_on,0,0,2,,,,,,,,,,,,,,,1,,,72,53
1174380,control_change,60,0,2,,,,,,,,,,,,,64,127,1,,,,
1174480,note_off,100,0,2,,,,,,,,,,,,,,,1,,,72,0
1174480,note_on,0,0,2,,,,,,,,,,,,,,,1,,,76,53
1174640,note_on,0,0,2,,,,,,,,,,,,,,,1,,,79,53
1174640,note_off,160,0,2,,,,,,,,,,,,,,,1,,,76,0
1174800,note_off,480,0,4,,,,,,,,,,,,,,,3,,,40,0
1174800,note_on,0,0,4,,,,,,,,,,,,,,,3,,,43,51
1174800,note_on,0,0,2,,,,,,,,,,,,,,,1,,,84,53
1174800,note_off,160,0,2,,,,,,,,,,,,,,,1,,,79,0
1174960,note_on,0,0,2,,,,,,,,,,,,,,,1,,,79,53
1174960,note_off,160,0,2,,,,,,,,,,,,,,,1,,,84,0
1175120,note_on,0,0,2,,,,,,,,,,,,,,,1,,,76,53
1175120,note_off,160,0,2,,,,,,,,,,,,,,,1,,,79,0
1175220,set_tempo,1845,1,0,,,,,,,298507,,,,,,,,,,,,
1175280,note_on,0,0,2,,,,,,,,,,,,,,,1,,,71,54
1175280,note_off,480,0,4,,,,,,,,,,,,,,,3,,,43,0
1175280,note_on,0,0,4,,,,,,,,,,,,,,,3,,,45,55
1175280,control_change,160,0,2,,,,,,,,,,,,,64,0,1,,,,
1175280,note_off,0,0,2,,,,,,,,,,,,,,,1,,,76,0
1175280,set_tempo,60,1,0,,,,,,,297029,,,,,,,,,,,,
1175340,control_change,60,0,2,,,,,,,,,,,,,64,127,1,,,,
1175440,note_on,0,0,2,,,,,,,,,,,,,,,1,,,74,54
1175440,note_off,100,0,2,,,,,,,,,,,,,,,1,,,71,0
1175520,note_on,0,0,4,,,,,,,,,,,,,,,3,,,43,55
1175520,note_off,240,0,4,,,,,,,,,,,,,,,3,,,45,0
1175600,note_on,0,0,2,,,,,,,,,,,,,,,1,,,79,54
1175600,note_off,160,0,2,,,,,,,,,,,,,,,1,,,74,0
1175760,note_on,0,0,2,,,,,,,,,,,,,,,1,,,83,54
1175760,note_off,160,0,2,,,,,,,,,,,,,,,1,,,79,0
1175760,note_off,240,0,4,,,,,,,,,,,,,,,3,,,43,0
1175760,note_on,0,0,4,,,,,,,,,,,,,,,3,,,42,55
1175920,note_on,0,0,2,,,,,,,,,,,,,,,1,,,79,54
1175920,note_off,160,0,2,,,,,,,,,,,,,,,1,,,83,0
1175955,set_tempo,675,1,0,,,,,,,298507,,,,,,,,,,,,
1176000,note_off,240,0,4,,,,,,,,,,,,,,,3,,,42,0
1176000,note_on,0,0,4,,,,,,,,,,,,,,,3,,,43,56
1176080,note_on,0,0,2,,,,,,,,,,,,,,,1,,,74,54
1176080,note_off,160,0,2,,,,,,,,,,,,,,,1,,,79,0
1176240,note_off,240,0,4,,,,,,,,,,,,,,,3,,,43,0
1176240,note_on,0,0,4,,,,,,,,,,,,,,,3,,,40,56
1176240,note_on,0,0,2,,,,,,,,,,,,,,,1,,,72,55
1176240,note_off,0,0,2,,,,,,,,,,,,,,,1,,,74,0
1176240,control_change,160,0,2,,,,,,,,,,,,,64,0,1,,,,
1176300,control_change,60,0,2,,,,,,,,,,,,,64,127,1,,,,
1176400,note_off,100,0,2,,,,,,,,,,,,,,,1,,,72,0
1176400,note_on,0,0,2,,,,,,,,,,,,,,,1,,,76,55
1176560,note_off,160,0,2,,,,,,,,,,,,,,,1,,,76,0
1176560,note_on,0,0,2,,,,,,,,,,,,,,,1,,,79,55
1176720,note_off,160,0,2,,,,,,,,,,,,,,,1,,,79,0
1176720,note_off,480,0,4,,,,,,,,,,,,,,,3,,,40,0
1176720,note_on,0,0,4,,,,,,,,,,,,,,,3,,,43,54
1176720,note_on,0,0,2,,,,,,,,,,,,,,,1,,,84,55
1176880,note_off,160,0,2,,,,,,,,,,,,,,,1,,,84,0
1176880,note_on,0,0,2,,,,,,,,,,,,,,,1,,,79,55
1176975,set_tempo,1020,1,0,,,,,,,301507,,,,,,,,,,,,
1177040,note_off,160,0,2,,,,,,,,,,,,,,,1,,,79,0
1177040,note_on,0,0,2,,,,,,,,,,,,,,,1,,,76,55
1177200,note_on,3840,0,1,,,,,,,,,,,,,,,0,,,89,58
1177200,note_off,480,0,4,,,,,,,,,,,,,,,3,,,43,0
1177200,note_off,0,0,2,,,,,,,,,,,,,,,1,,,76,0
1177200,note_on,0,0,4,,,,,,,,,,,,,,,3,,,40,56
1177200,control_change,3840,0,3,,,,,,,,,,,,,64,0,2,,,,
1177200,control_change,160,0,2,,,,,,,,,,,,,64,0,1,,,,
1177215,set_tempo,240,1,0,,,,,,,297029,,,,,,,,,,,,
1177260,control_change,60,0,3,,,,,,,,,,,,,64,127,2,,,,
1177360,note_on,100,0,3,,,,,,,,,,,,,,,2,,,47,42
1177440,note_on,0,0,1,,,,,,,,,,,,,,,0,,,88,58
1177440,note_off,240,0,1,,,,,,,,,,,,,,,0,,,89,0
1177520,note_on,0,0,3,,,,,,,,,,,,,,,2,,,52,42
1177520,note_off,160,0,3,,,,,,,,,,,,,,,2,,,47,0
1177680,note_on,0,0,3,,,,,,,,,,,,,,,2,,,56,43
1177680,note_off,240,0,1,,,,,,,,,,,,,,,0,,,88,0
1177680,note_on,0,0,1,,,,,,,,,,,,,,,0,,,87,58
1177680,note_off,160,0,3,,,,,,,,,,,,,,,2,,,52,0
1177840,note_off,160,0,3,,,,,,,,,,,,,,,2,,,56,0
1177840,note_on,0,0,3,,,,,,,,,,,,,,,2,,,52,43
1177920,note_on,0,0,1,,,,,,,,,,,,,,,0,,,88,59
1177920,note_off,240,0,1,,,,,,,,,,,,,,,0,,,87,0
1178000,note_off,160,0,3,,,,,,,,,,,,,,,2,,,52,0
1178000,note_on,0,0,3,,,,,,,,,,,,,,,2,,,47,43
1178160,note_off,960,0,4,,,,,,,,,,,,,,,3,,,40,0
1178160,note_off,0,0,3,,,,,,,,,,,,,,,2,,,47,0
1178160,note_off,240,0,1,,,,,,,,,,,,,,,0,,,88,0
1178160,note_on,0,0,4,,,,,,,,,,,,,,,3,,,45,56
1178160,control_change,160,0,3,,,,,,,,,,,,,64,0,2,,,,
1178160,note_on,0,0,1,,,,,,,,,,,,,,,0,,,84,59
1178220,control_change,60,0,3,,,,,,,,,,,,,64,127,2,,,,
1178320,note_on,100,0,3,,,,,,,,,,,,,,,2,,,48,43
1178480,note_on,0,0,3,,,,,,,,,,,,,,,2,,,52,44
1178480,note_off,160,0,3,,,,,,,,,,,,,,,2,,,48,0
1178640,note_off,480,0,1,,,,,,,,,,,,,,,0,,,84,0
1178640,note_on,0,0,3,,,,,,,,,,,,,,,2,,,57,44
1178640,note_off,160,0,3,,,,,,,,,,,,,,,2,,,52,0
1178640,note_on,0,0,1,,,,,,,,,,,,,,,0,,,88,59
1178800,note_off,160,0,3,,,,,,,,,,,,,,,2,,,57,0
1178800,note_on,0,0,3,,,,,,,,,,,,,,,2,,,52,44
1178960,note_on,0,0,3,,,,,,,,,,,,,,,2,,,48,44
1178960,note_off,160,0,3,,,,,,,,,,,,,,,2,,,52,0
1179060,set_tempo,1845,1,0,,,,,,,298507,,,,,,,,,,,,
1179120,note_off,480,0,1,,,,,,,,,,,,,,,0,,,88,0
1179120,note_on,0,0,1,,,,,,,,,,,,,,,0,,,89,60
1179120,note_off,960,0,4,,,,,,,,,,,,,,,3,,,45,0
1179120,set_tempo,60,1,0,,,,,,,297029,,,,,,,,,,,,
1179120,note_on,0,0,4,,,,,,,,,,,,,,,3,,,40,57
1179120,note_off,0,0,3,,,,,,,,,,,,,,,2,,,48,0
1179120,control_change,160,0,3,,,,,,,,,,,,,64,0,2,,,,
1179180,control_change,60,0,3,,,,,,,,,,,,,64,127,2,,,,
1179280,note_on,100,0,3,,,,,,,,,,,,,,,2,,,47,45
1179360,note_off,240,0,1,,,,,,,,,,,,,,,0,,,89,0
1179360,note_on,0,0,1,,,,,,,,,,,,,,,0,,,88,60
1179440,note_on,0,0,3,,,,,,,,,,,,,,,2,,,52,45
1179440,note_off,160,0,3,,,,,,,,,,,,,,,2,,,47,0
1179600,note_off,240,0,1,,,,,,,,,,,,,,,0,,,88,0
1179600,note_on,0,0,1,,,,,,,,,,,,,,,0,,,87,60
1179600,note_on,0,0,3,,,,,,,,,,,,,,,2,,,56,45
1179600,note_off,160,0,3,,,,,,,,,,,,,,,2,,,52,0
1179760,note_on,0,0,3,,,,,,,,,,,,,,,2,,,52,46
1179760,note_off,160,0,3,,,,,,,,,,,,,,,2,,,56,0
1179840,note_on,0,0,1,,,,,,,,,,,,,,,0,,,88,60
1179840,note_off,240,0,1,,,,,,,,,,,,,,,0,,,87,0
1179855,set_tempo,735,1,0,,,,,,,298507,,,,,,,,,,,,
1179920,note_off,160,0,3,,,,,,,,,,,,,,,2,,,52,0
1179920,note_on,0,0,3,,,,,,,,,,,,,,,2,,,47,46
1180080,note_off,0,0,3,,,,,,,,,,,,,,,2,,,47,0
1180080,note_off,240,0,1,,,,,,,,,,,,,,,0,,,88,0
1180080,note_on,0,0,1,,,,,,,,,,,,,,,0,,,84,60
1180080,control_change,160,0,3,,,,,,,,,,,,,64,0,2,,,,
1180080,note_on,0,0,4,,,,,,,,,,,,,,,3,,,45,58
1180080,note_off,960,0,4,,,,,,,,,,,,,,,3,,,40,0
1180140,control_change,60,0,3,,,,,,,,,,,,,64,127,2,,,,
1180240,note_on,100,0,3,,,,,,,,,,,,,,,2,,,48,43
1180400,note_off,160,0,3,,,,,,,,,,,,,,,2,,,48,0
1180400,note_on,0,0,3,,,,,,,,,,,,,,,2,,,52,44
1180560,note_on,0,0,1,,,,,,,,,,,,,,,0,,,88,61
1180560,note_off,480,0,1,,,,,,,,,,,,,,,0,,,84,0
1180560,note_off,160,0,3,,,,,,,,,,,,,,,2,,,52,0
1180560,note_on,0,0,3,,,,,,,,,,,,,,,2,,,57,44
1180720,note_off,160,0,3,,,,,,,,,,,,,,,2,,,57,0
1180720,note_on,0,0,3,,,,,,,,,,,,,,,2,,,52,44
1180815,set_tempo,960,1,0,,,,,,,301507,,,,,,,,,,,,
1180880,note_off,160,0,3,,,,,,,,,,,,,,,2,,,52,0
1180880,note_on,0,0,3,,,,,,,,,,,,,,,2,,,48,44
1181040,note_off,0,0,3,,,,,,,,,,,,,,,2,,,48,0
1181040,note_on,0,0,4,,,,,,,,,,,,,,,3,,,40,58
1181040,note_off,960,0,4,,,,,,,,,,,,,,,3,,,45,0
1181040,note_off,480,0,1,,,,,,,,,,,,,,,0,,,88,0
1181040,note_on,0,0,1,,,,,,,,,,,,,,,0,,,89,61
1181040,control_change,160,0,3,,,,,,,,,,,,,64,0,2,,,,
1181055,set_tempo,240,1,0,,,,,,,297029,,,,,,,,,,,,
1181100,control_change,60,0,3,,,,,,,,,,,,,64,127,2,,,,
1181200,note_on,100,0,3,,,,,,,,,,,,,,,2,,,47,45
1181280,note_off,240,0,1,,,,,,,,,,,,,,,0,,,89,0
1181280,note_on,0,0,1,,,,,,,,,,,,,,,0,,,88,61
1181360,note_off,160,0,3,,,,,,,,,,,,,,,2,,,47,0
1181360,note_on,0,0,3,,,,,,,,,,,,,,,2,,,52,45
1181520,note_on,0,0,1,,,,,,,,,,,,,,,0,,,87,62
1181520,note_on,0,0,3,,,,,,,,,,,,,,,2,,,56,45
1181520,note_off,240,0,1,,,,,,,,,,,,,,,0,,,88,0
1181520,note_off,160,0,3,,,,,,,,,,,,,,,2,,,52,0
1181680,note_on,0,0,3,,,,,,,,,,,,,,,2,,,52,46
1181680,note_off,160,0,3,,,,,,,,,,,,,,,2,,,56,0
1181760,note_off,240,0,1,,,,,,,,,,,,,,,0,,,87,0
1181760,note_on,0,0,1,,,,,,,,,,,,,,,0,,,88,62
1181840,note_on,0,0,3,,,,,,,,,,,,,,,2,,,47,46
1181840,note_off,160,0,3,,,,,,,,,,,,,,,2,,,52,0
1182000,control_change,160,0,3,,,,,,,,,,,,,64,0,2,,,,
1182000,note_on,0,0,1,,,,,,,,,,,,,,,0,,,86,62
1182000,note_off,240,0,1,,,,,,,,,,,,,,,0,,,88,0
1182000,note_off,0,0,3,,,,,,,,,,,,,,,2,,,47,0
1182000,note_off,960,0,4,,,,,,,,,,,,,,,3,,,40,0
1182000,note_on,0,0,4,,,,,,,,,,,,,,,3,,,45,59
1182060,control_change,60,0,3,,,,,,,,,,,,,64,127,2,,,,
1182160,note_on,100,0,3,,,,,,,,,,,,,,,2,,,52,51
1182240,note_off,240,0,1,,,,,,,,,,,,,,,0,,,86,0
1182240,note_on,0,0,1,,,,,,,,,,,,,,,0,,,84,62
1182320,note_on,0,0,3,,,,,,,,,,,,,,,2,,,57,51
1182320,note_off,160,0,3,,,,,,,,,,,,,,,2,,,52,0
1182480,note_on,0,0,1,,,,,,,,,,,,,,,0,,,83,62
1182480,note_on,0,0,3,,,,,,,,,,,,,,,2,,,60,51
1182480,note_off,160,0,3,,,,,,,,,,,,,,,2,,,57,0
1182480,note_off,240,0,1,,,,,,,,,,,,,,,0,,,84,0
1182640,note_on,0,0,3,,,,,,,,,,,,,,,2,,,57,51
1182640,note_off,160,0,3,,,,,,,,,,,,,,,2,,,60,0
1182720,note_off,240,0,1,,,,,,,,,,,,,,,0,,,83,0
1182720,note_on,0,0,1,,,,,,,,,,,,,,,0,,,84,63
1182800,note_off,160,0,3,,,,,,,,,,,,,,,2,,,57,0
1182800,note_on,0,0,3,,,,,,,,,,,,,,,2,,,52,51
1182960,note_on,0,0,4,,,,,,,,,,,,,,,3,,,48,60
1182960,note_on,0,0,1,,,,,,,,,,,,,,,0,,,83,63
1182960,control_change,160,0,3,,,,,,,,,,,,,64,0,2,,,,
1182960,note_off,960,0,4,,,,,,,,,,,,,,,3,,,45,0
1182960,note_off,240,0,1,,,,,,,,,,,,,,,0,,,84,0
1182960,note_off,0,0,3,,,,,,,,,,,,,,,2,,,52,0
1183020,control_change,60,0,3,,,,,,,,,,,,,64,127,2,,,,
1183120,note_on,100,0,3,,,,,,,,,,,,,,,2,,,52,51
1183200,note_off,240,0,1,,,,,,,,,,,,,,,0,,,83,0
1183200,note_on,0,0,1,,,,,,,,,,,,,,,0,,,81,63
1183280,note_off,160,0,3,,,,,,,,,,,,,,,2,,,52,0
1183280,note_on,0,0,3,,,,,,,,,,,,,,,2,,,57,51
1183440,note_off,240,0,1,,,,,,,,,,,,,,,0,,,81,0
1183440,note_on,0,0,3,,,,,,,,,,,,,,,2,,,60,51
1183440,note_on,0,0,1,,,,,,,,,,,,,,,0,,,80,63
1183440,note_off,160,0,3,,,,,,,,,,,,,,,2,,,57,0
1183600,note_on,0,0,3,,,,,,,,,,,,,,,2,,,57,51
1183600,note_off,160,0,3,,,,,,,,,,,,,,,2,,,60,0
1183680,note_off,240,0,1,,,,,,,,,,,,,,,0,,,80,0
1183680,note_on,0,0,1,,,,,,,,,,,,,,,0,,,81,63
1183760,note_on,0,0,3,,,,,,,,,,,,,,,2,,,52,51
1183760,note_off,160,0,3,,,,,,,,,,,,,,,2,,,57,0
1183920,control_change,160,0,3,,,,,,,,,,,,,64,0,2,,,,
1183920,note_off,240,0,1,,,,,,,,,,,,,,,0,,,81,0
1183920,note_on,0,0,1,,,,,,,,,,,,,,,0,,,79,64
1183920,note_on,0,0,4,,,,,,,,,,,,,,,3,,,50,61
1183920,note_off,0,0,3,,,,,,,,,,,,,,,2,,,52,0
1183920,note_off,960,0,4,,,,,,,,,,,,,,,3,,,48,0
1183980,control_change,60,0,3,,,,,,,,,,,,,64,127,2,,,,
1184080,note_on,100,0,3,,,,,,,,,,,,,,,2,,,57,51
1184160,note_off,240,0,1,,,,,,,,,,,,,,,0,,,79,0
1184160,note_on,0,0,1,,,,,,,,,,,,,,,0,,,78,64
1184240,note_on,0,0,3,,,,,,,,,,,,,,,2,,,60,51
1184240,note_off,160,0,3,,,,,,,,,,,,,,,2,,,57,0
1184400,note_off,240,0,1,,,,,,,,,,,,,,,0,,,78,0
1184400,note_on,0,0,1,,,,,,,,,,,,,,,0,,,77,64
1184400,note_off,160,0,3,,,,,,,,,,,,,,,2,,,60,0
1184400,note_on,0,0,3,,,,,,,,,,,,,,,2,,,62,51
1184560,note_off,160,0,3,,,,,,,,,,,,,,,2,,,62,0
1184560,note_on,0,0,3,,,,,,,,,,,,,,,2,,,60,50
1184640,note_on,0,0,1,,,,,,,,,,,,,,,0,,,78,64
1184640,note_off,240,0,1,,,,,,,,,,,,,,,0,,,77,0
1184720,note_on,0,0,3,,,,,,,,,,,,,,,2,,,57,50
1184720,note_off,160,0,3,,,,,,,,,,,,,,,2,,,60,0
1184820,set_tempo,3765,1,0,,,,,,,298507,,,,,,,,,,,,
1184880,set_tempo,60,1,0,,,,,,,297029,,,,,,,,,,,,
1184880,control_change,160,0,3,,,,,,,,,,,,,64,0,2,,,,
1184880,note_off,960,0,4,,,,,,,,,,,,,,,3,,,50,0
1184880,note_on,0,0,4,,,,,,,,,,,,,,,3,,,42,62
1184880,note_off,0,0,3,,,,,,,,,,,,,,,2,,,57,0
1184880,note_off,240,0,1,,,,,,,,,,,,,,,0,,,78,0
1184880,note_on,0,0,1,,,,,,,,,,,,,,,0,,,88,64
1184940,control_change,60,0,3,,,,,,,,,,,,,64,127,2,,,,
1185040,note_on,100,0,3,,,,,,,,,,,,,,,2,,,50,50
1185120,note_off,240,0,1,,,,,,,,,,,,,,,0,,,88,0
1185120,note_on,0,0,1,,,,,,,,,,,,,,,0,,,86,65
1185200,note_on,0,0,3,,,,,,,,,,,,,,,2,,,54,50
1185200,note_off,160,0,3,,,,,,,,,,,,,,,2,,,50,0
1185360,note_on,0,0,3,,,,,,,,,,,,,,,2,,,57,50
1185360,note_off,160,0,3,,,,,,,,,,,,,,,2,,,54,0
1185360,note_off,240,0,1,,,,,,,,,,,,,,,0,,,86,0
1185360,note_on,0,0,1,,,,,,,,,,,,,,,0,,,85,65
1185520,note_on,0,0,3,,,,,,,,,,,,,,,2,,,54,50
1185520,note_off,160,0,3,,,,,,,,,,,,,,,2,,,57,0
1185600,note_off,240,0,1,,,,,,,,,,,,,,,0,,,85,0
1185600,note_on,0,0,1,,,,,,,,,,,,,,,0,,,86,65
1185680,note_off,160,0,3,,,,,,,,,,,,,,,2,,,54,0
1185680,note_on,0,0,3,,,,,,,,,,,,,,,2,,,50,50
1185840,note_on,0,0,4,,,,,,,,,,,,,,,3,,,43,63
1185840,note_off,240,0,1,,,,,,,,,,,,,,,0,,,86,0
1185840,note_on,0,0,1,,,,,,,,,,,,,,,0,,,84,65
1185840,control_change,160,0,3,,,,,,,,,,,,,64,0,2,,,,
1185840,note_off,0,0,3,,,,,,,,,,,,,,,2,,,50,0
1185840,note_off,960,0,4,,,,,,,,,,,,,,,3,,,42,0
1185840,control_change,0,0,3,,,,,,,,,,,,,64,0,2,,,,
1185900,control_change,0,0,3,,,,,,,,,,,,,64,127,2,,,,
1185900,control_change,60,0,3,,,,,,,,,,,,,64,127,2,,,,
1186000,note_on,100,0,3,,,,,,,,,,,,,,,2,,,50,52
1186080,note_off,240,0,1,,,,,,,,,,,,,,,0,,,84,0
1186080,note_on,0,0,1,,,,,,,,,,,,,,,0,,,83,65
1186160,note_off,160,0,3,,,,,,,,,,,,,,,2,,,50,0
1186160,note_on,0,0,3,,,,,,,,,,,,,,,2,,,55,52
1186320,note_on,0,0,1,,,,,,,,,,,,,,,0,,,82,63
1186320,note_off,240,0,1,,,,,,,,,,,,,,,0,,,83,0
1186320,note_on,0,0,3,,,,,,,,,,,,,,,2,,,59,52
1186320,note_off,160,0,3,,,,,,,,,,,,,,,2,,,55,0
1186480,note_on,0,0,3,,,,,,,,,,,,,,,2,,,55,52
1186480,note_off,160,0,3,,,,,,,,,,,,,,,2,,,59,0
1186560,note_off,240,0,1,,,,,,,,,,,,,,,0,,,82,0
1186560,note_on,0,0,1,,,,,,,,,,,,,,,0,,,83,64
1186640,note_off,160,0,3,,,,,,,,,,,,,,,2,,,55,0
1186640,note_on,0,0,3,,,,,,,,,,,,,,,2,,,50,53
1186800,note_off,0,0,3,,,,,,,,,,,,,,,2,,,50,0
1186800,note_on,0,0,2,,,,,,,,,,,,,,,1,,,76,74
1186800,note_on,0,0,4,,,,,,,,,,,,,,,3,,,45,76
1186800,note_off,960,0,4,,,,,,,,,,,,,,,3,,,43,0
1186800,note_on,9600,0,2,,,,,,,,,,,,,,,1,,,73,74
1186800,control_change,160,0,3,,,,,,,,,,,,,64,0,2,,,,
1186800,note_off,240,0,1,,,,,,,,,,,,,,,0,,,83,0
1186800,note_on,0,0,1,,,,,,,,,,,,,,,0,,,83,74
1186860,control_change,60,0,3,,,,,,,,,,,,,64,127,2,,,,
1186960,note_on,100,0,3,,,,,,,,,,,,,,,2,,,55,63
1187040,note_off,240,0,1,,,,,,,,,,,,,,,0,,,83,0
1187040,note_on,0,0,1,,,,,,,,,,,,,,,0,,,81,64
1187120,note_on,0,0,3,,,,,,,,,,,,,,,2,,,57,61
1187120,note_off,160,0,3,,,,,,,,,,,,,,,2,,,55,0
1187280,note_on,0,0,1,,,,,,,,,,,,,,,0,,,80,65
1187280,note_off,160,0,3,,,,,,,,,,,,,,,2,,,57,0
1187280,note_on,0,0,3,,,,,,,,,,,,,,,2,,,61,59
1187280,note_off,240,0,1,,,,,,,,,,,,,,,0,,,81,0
1187280,note_off,480,0,2,,,,,,,,,,,,,,,1,,,73,0
1187280,note_off,0,0,2,,,,,,,,,,,,,,,1,,,76,0
1187280,note_on,0,0,2,,,,,,,,,,,,,,,1,,,73,65
1187280,note_on,0,0,2,,,,,,,,,,,,,,,1,,,76,65
1187440,note_on,0,0,3,,,,,,,,,,,,,,,2,,,57,56
1187440,note_off,160,0,3,,,,,,,,,,,,,,,2,,,61,0
1187520,note_off,240,0,1,,,,,,,,,,,,,,,0,,,80,0
1187520,note_on,0,0,1,,,,,,,,,,,,,,,0,,,81,65
1187535,set_tempo,2655,1,0,,,,,,,300000,,,,,,,,,,,,
1187600,note_off,160,0,3,,,,,,,,,,,,,,,2,,,57,0
1187600,note_on,0,0,3,,,,,,,,,,,,,,,2,,,55,54
1187760,note_on,0,0,2,,,,,,,,,,,,,,,1,,,78,65
1187760,note_off,0,0,2,,,,,,,,,,,,,,,1,,,76,0
1187760,control_change,160,0,3,,,,,,,,,,,,,64,0,2,,,,
1187760,note_off,240,0,1,,,,,,,,,,,,,,,0,,,81,0
1187760,note_on,0,0,1,,,,,,,,,,,,,,,0,,,83,65
1187760,note_off,960,0,4,,,,,,,,,,,,,,,3,,,45,0
1187760,note_on,0,0,4,,,,,,,,,,,,,,,3,,,50,62
1187760,note_off,0,0,3,,,,,,,,,,,,,,,2,,,55,0
1187760,note_on,0,0,2,,,,,,,,,,,,,,,1,,,74,65
1187760,note_off,480,0,2,,,,,,,,,,,,,,,1,,,73,0
1187775,set_tempo,240,1,0,,,,,,,297029,,,,,,,,,,,,
1187820,control_change,60,0,3,,,,,,,,,,,,,64,127,2,,,,
1187920,note_on,100,0,3,,,,,,,,,,,,,,,2,,,54,55
1188000,note_on,0,0,1,,,,,,,,,,,,,,,0,,,81,66
1188000,note_off,240,0,1,,,,,,,,,,,,,,,0,,,83,0
1188080,note_off,160,0,3,,,,,,,,,,,,,,,2,,,54,0
1188080,note_on,0,0,3,,,,,,,,,,,,,,,2,,,57,55
1188240,note_off,160,0,3,,,,,,,,,,,,,,,2,,,57,0
1188240,note_off,0,0,2,,,,,,,,,,,,,,,1,,,74,0
1188240,note_off,480,0,2,,,,,,,,,,,,,,,1,,,78,0
1188240,note_on,0,0,3,,,,,,,,,,,,,,,2,,,62,55
1188240,note_on,0,0,1,,,,,,,,,,,,,,,0,,,80,66
1188240,note_off,240,0,1,,,,,,,,,,,,,,,0,,,81,0
1188400,note_off,160,0,3,,,,,,,,,,,,,,,2,,,62,0
1188400,note_on,0,0,3,,,,,,,,,,,,,,,2,,,57,55
1188480,note_off,240,0,1,,,,,,,,,,,,,,,0,,,80,0
1188480,note_on,0,0,1,,,,,,,,,,,,,,,0,,,81,66
1188560,note_off,160,0,3,,,,,,,,,,,,,,,2,,,57,0
1188560,note_on,0,0,3,,,,,,,,,,,,,,,2,,,54,55
1188660,set_tempo,885,1,0,,,,,,,298507,,,,,,,,,,,,
1188720,set_tempo,60,1,0,,,,,,,297029,,,,,,,,,,,,
1188720,control_change,160,0,3,,,,,,,,,,,,,64,0,2,,,,
1188720,note_off,0,0,3,,,,,,,,,,,,,,,2,,,54,0
1188720,note_on,0,0,4,,,,,,,,,,,,,,,3,,,42,65
1188720,note_on,0,0,1,,,,,,,,,,,,,,,0,,,88,67
1188720,note_off,240,0,1,,,,,,,,,,,,,,,0,,,81,0
1188720,note_off,960,0,4,,,,,,,,,,,,,,,3,,,50,0
1188780,control_change,60,0,3,,,,,,,,,,,,,64,127,2,,,,
1188880,note_on,100,0,3,,,,,,,,,,,,,,,2,,,50,56
1188960,note_on,0,0,1,,,,,,,,,,,,,,,0,,,86,67
1188960,note_off,240,0,1,,,,,,,,,,,,,,,0,,,88,0
1189040,note_on,0,0,3,,,,,,,,,,,,,,,2,,,54,56
1189040,note_off,160,0,3,,,,,,,,,,,,,,,2,,,50,0
1189200,note_off,240,0,1,,,,,,,,,,,,,,,0,,,86,0
1189200,note_on,0,0,3,,,,,,,,,,,,,,,2,,,57,56
1189200,note_on,0,0,1,,,,,,,,,,,,,,,0,,,85,67
1189200,note_off,160,0,3,,,,,,,,,,,,,,,2,,,54,0
1189360,note_on,0,0,3,,,,,,,,,,,,,,,2,,,54,57
1189360,note_off,160,0,3,,,,,,,,,,,,,,,2,,,57,0
1189440,note_on,0,0,1,,,,,,,,,,,,,,,0,,,86,68
1189440,note_off,240,0,1,,,,,,,,,,,,,,,0,,,85,0
1189520,note_on,0,0,3,,,,,,,,,,,,,,,2,,,50,57
1189520,note_off,160,0,3,,,,,,,,,,,,,,,2,,,54,0
1189680,note_off,0,0,3,,,,,,,,,,,,,,,2,,,50,0
1189680,control_change,160,0,3,,,,,,,,,,,,,64,0,2,,,,
1189680,note_on,0,0,1,,,,,,,,,,,,,,,0,,,84,68
1189680,note_off,240,0,1,,,,,,,,,,,,,,,0,,,86,0
1189680,note_on,0,0,4,,,,,,,,,,,,,,,3,,,43,67
1189680,note_off,960,0,4,,,,,,,,,,,,,,,3,,,42,0
1189740,control_change,60,0,3,,,,,,,,,,,,,64,127,2,,,,
1189840,note_on,100,0,3,,,,,,,,,,,,,,,2,,,50,57
1189920,note_off,240,0,1,,,,,,,,,,,,,,,0,,,84,0
1189920,note_on,0,0,1,,,,,,,,,,,,,,,0,,,83,68
1190000,note_off,160,0,3,,,,,,,,,,,,,,,2,,,50,0
1190000,note_on,0,0,3,,,,,,,,,,,,,,,2,,,55,57
1190160,note_on,0,0,1,,,,,,,,,,,,,,,0,,,82,69
1190160,note_off,160,0,3,,,,,,,,,,,,,,,2,,,55,0
1190160,note_on,0,0,3,,,,,,,,,,,,,,,2,,,59,58
1190160,note_off,240,0,1,,,,,,,,,,,,,,,0,,,83,0
1190320,note_off,160,0,3,,,,,,,,,,,,,,,2,,,59,0
1190320,note_on,0,0,3,,,,,,,,,,,,,,,2,,,55,58
1190400,note_on,0,0,1,,,,,,,,,,,,,,,0,,,83,69
1190400,note_off,240,0,1,,,,,,,,,,,,,,,0,,,82,0
1190480,note_on,0,0,3,,,,,,,,,,,,,,,2,,,50,58
1190480,note_off,160,0,3,,,,,,,,,,,,,,,2,,,55,0
1190640,note_off,240,0,1,,,,,,,,,,,,,,,0,,,83,0
1190640,note_on,0,0,1,,,,,,,,,,,,,,,0,,,83,78
1190640,control_change,160,0,3,,,,,,,,,,,,,64,0,2,,,,
1190640,note_off,0,0,3,,,,,,,,,,,,,,,2,,,50,0
1190640,note_off,960,0,4,,,,,,,,,,,,,,,3,,,43,0
1190640,note_on,0,0,4,,,,,,,,,,,,,,,3,,,45,77
1190640,note_on,2400,0,2,,,,,,,,,,,,,,,1,,,73,78
1190640,note_on,0,0,2,,,,,,,,,,,,,,,1,,,76,78
1190700,control_change,60,0,3,,,,,,,,,,,,,64,127,2,,,,
1190800,note_on,100,0,3,,,,,,,,,,,,,,,2,,,55,67
1190880,note_off,240,0,1,,,,,,,,,,,,,,,0,,,83,0
1190880,note_on,0,0,1,,,,,,,,,,,,,,,0,,,81,69
1190960,note_off,160,0,3,,,,,,,,,,,,,,,2,,,55,0
1190960,note_on,0,0,3,,,,,,,,,,,,,,,2,,,57,65
1191120,note_off,160,0,3,,,,,,,,,,,,,,,2,,,57,0
1191120,note_on,0,0,3,,,,,,,,,,,,,,,2,,,61,63
1191120,note_on,0,0,1,,,,,,,,,,,,,,,0,,,80,70
1191120,note_off,480,0,2,,,,,,,,,,,,,,,1,,,73,0
1191120,note_off,240,0,1,,,,,,,,,,,,,,,0,,,81,0
1191120,note_on,0,0,2,,,,,,,,,,,,,,,1,,,73,70
1191120,note_off,0,0,2,,,,,,,,,,,,,,,1,,,76,0
1191120,note_on,0,0,2,,,,,,,,,,,,,,,1,,,76,70
1191280,note_on,0,0,3,,,,,,,,,,,,,,,2,,,57,61
1191280,note_off,160,0,3,,,,,,,,,,,,,,,2,,,61,0
1191345,set_tempo,2625,1,0,,,,,,,300000,,,,,,,,,,,,
1191360,note_off,240,0,1,,,,,,,,,,,,,,,0,,,80,0
1191360,note_on,0,0,1,,,,,,,,,,,,,,,0,,,81,70
1191440,note_off,160,0,3,,,,,,,,,,,,,,,2,,,57,0
1191440,note_on,0,0,3,,,,,,,,,,,,,,,2,,,55,59
1191600,note_off,0,0,3,,,,,,,,,,,,,,,2,,,55,0
1191600,control_change,160,0,3,,,,,,,,,,,,,64,0,2,,,,
1191600,note_on,0,0,2,,,,,,,,,,,,,,,1,,,74,70
1191600,note_on,0,0,2,,,,,,,,,,,,,,,1,,,78,70
1191600,note_off,480,0,2,,,,,,,,,,,,,,,1,,,76,0
1191600,note_off,0,0,2,,,,,,,,,,,,,,,1,,,73,0
1191600,note_off,960,0,4,,,,,,,,,,,,,,,3,,,45,0
1191600,note_on,0,0,4,,,,,,,,,,,,,,,3,,,50,69
1191600,note_off,240,0,1,,,,,,,,,,,,,,,0,,,81,0
1191600,note_on,0,0,1,,,,,,,,,,,,,,,0,,,83,70
1191615,set_tempo,270,1,0,,,,,,,297029,,,,,,,,,,,,
1191660,control_change,60,0,3,,,,,,,,,,,,,64,127,2,,,,
1191760,note_on,100,0,3,,,,,,,,,,,,,,,2,,,54,60
1191840,note_on,0,0,1,,,,,,,,,,,,,,,0,,,81,71
1191840,note_off,240,0,1,,,,,,,,,,,,,,,0,,,83,0
1191920,note_on,0,0,3,,,,,,,,,,,,,,,2,,,57,60
1191920,note_off,160,0,3,,,,,,,,,,,,,,,2,,,54,0
1192080,note_on,0,0,3,,,,,,,,,,,,,,,2,,,62,60
1192080,note_off,160,0,3,,,,,,,,,,,,,,,2,,,57,0
1192080,note_on,0,0,1,,,,,,,,,,,,,,,0,,,80,71
1192080,note_off,240,0,1,,,,,,,,,,,,,,,0,,,81,0
1192080,note_off,0,0,2,,,,,,,,,,,,,,,1,,,78,0
1192080,note_off,480,0,2,,,,,,,,,,,,,,,1,,,74,0
1192240,note_off,160,0,3,,,,,,,,,,,,,,,2,,,62,0
1192240,note_on,0,0,3,,,,,,,,,,,,,,,2,,,57,61
1192320,note_on,0,0,1,,,,,,,,,,,,,,,0,,,81,71
1192320,note_off,240,0,1,,,,,,,,,,,,,,,0,,,80,0
1192400,note_off,160,0,3,,,,,,,,,,,,,,,2,,,57,0
1192400,note_on,0,0,3,,,,,,,,,,,,,,,2,,,54,61
1192560,note_off,960,0,4,,,,,,,,,,,,,,,3,,,50,0
1192560,note_off,0,0,3,,,,,,,,,,,,,,,2,,,54,0
1192560,control_change,160,0,3,,,,,,,,,,,,,64,0,2,,,,
1192560,note_on,480,0,2,,,,,,,,,,,,,,,1,,,73,83
1192560,note_on,0,0,2,,,,,,,,,,,,,,,1,,,76,83
1192560,note_on,0,0,1,,,,,,,,,,,,,,,0,,,83,83
1192560,note_off,240,0,1,,,,,,,,,,,,,,,0,,,81,0
1192560,note_on,0,0,4,,,,,,,,,,,,,,,3,,,45,80
1192620,control_change,60,0,3,,,,,,,,,,,,,64,127,2,,,,
1192720,note_on,100,0,3,,,,,,,,,,,,,,,2,,,55,68
1192800,note_off,240,0,1,,,,,,,,,,,,,,,0,,,83,0
1192800,note_on,0,0,1,,,,,,,,,,,,,,,0,,,81,72
1192880,note_off,160,0,3,,,,,,,,,,,,,,,2,,,55,0
1192880,note_on,0,0,3,,,,,,,,,,,,,,,2,,,57,66
1193040,note_on,0,0,2,,,,,,,,,,,,,,,1,,,73,72
1193040,note_on,0,0,2,,,,,,,,,,,,,,,1,,,76,72
1193040,note_off,0,0,2,,,,,,,,,,,,,,,1,,,76,0
1193040,note_off,480,0,2,,,,,,,,,,,,,,,1,,,73,0
1193040,note_on,0,0,3,,,,,,,,,,,,,,,2,,,61,64
1193040,note_off,240,0,1,,,,,,,,,,,,,,,0,,,81,0
1193040,note_on,0,0,1,,,,,,,,,,,,,,,0,,,80,72
1193040,note_off,160,0,3,,,,,,,,,,,,,,,2,,,57,0
1193200,note_off,160,0,3,,,,,,,,,,,,,,,2,,,61,0
1193200,note_on,0,0,3,,,,,,,,,,,,,,,2,,,57,63
1193280,set_tempo,1665,1,0,,,,,,,300000,,,,,,,,,,,,
1193280,note_off,240,0,1,,,,,,,,,,,,,,,0,,,80,0
1193280,note_on,0,0,1,,,,,,,,,,,,,,,0,,,81,73
1193360,note_off,160,0,3,,,,,,,,,,,,,,,2,,,57,0
1193360,note_on,0,0,3,,,,,,,,,,,,,,,2,,,55,61
1193520,note_on,0,0,1,,,,,,,,,,,,,,,0,,,83,73
1193520,control_change,160,0,3,,,,,,,,,,,,,64,0,2,,,,
1193520,note_off,0,0,3,,,,,,,,,,,,,,,2,,,55,0
1193520,note_off,240,0,1,,,,,,,,,,,,,,,0,,,81,0
1193520,note_off,0,0,2,,,,,,,,,,,,,,,1,,,73,0
1193520,note_off,960,0,4,,,,,,,,,,,,,,,3,,,45,0
1193520,note_on,0,0,2,,,,,,,,,,,,,,,1,,,78,73
1193520,note_on,0,0,4,,,,,,,,,,,,,,,3,,,50,74
1193520,note_off,480,0,2,,,,,,,,,,,,,,,1,,,76,0
1193520,note_on,0,0,2,,,,,,,,,,,,,,,1,,,74,73
1193535,set_tempo,255,1,0,,,,,,,297029,,,,,,,,,,,,
1193580,control_change,60,0,3,,,,,,,,,,,,,64,127,2,,,,
1193680,note_on,100,0,3,,,,,,,,,,,,,,,2,,,54,63
1193760,note_off,240,0,1,,,,,,,,,,,,,,,0,,,83,0
1193760,note_on,0,0,1,,,,,,,,,,,,,,,0,,,81,73
1193840,note_off,160,0,3,,,,,,,,,,,,,,,2,,,54,0
1193840,note_on,0,0,3,,,,,,,,,,,,,,,2,,,57,63
1194000,note_on,0,0,3,,,,,,,,,,,,,,,2,,,62,63
1194000,note_off,160,0,3,,,,,,,,,,,,,,,2,,,57,0
1194000,note_off,240,0,1,,,,,,,,,,,,,,,0,,,81,0
1194000,note_on,0,0,1,,,,,,,,,,,,,,,0,,,80,74
1194000,note_off,0,0,2,,,,,,,,,,,,,,,1,,,78,0
1194000,note_off,480,0,2,,,,,,,,,,,,,,,1,,,74,0
1194160,note_on,0,0,3,,,,,,,,,,,,,,,2,,,57,63
1194160,note_off,160,0,3,,,,,,,,,,,,,,,2,,,62,0
1194240,note_off,240,0,1,,,,,,,,,,,,,,,0,,,80,0
1194240,note_on,0,0,1,,,,,,,,,,,,,,,0,,,81,74
1194320,note_on,0,0,3,,,,,,,,,,,,,,,2,,,54,64
1194320,note_off,160,0,3,,,,,,,,,,,,,,,2,,,57,0
1194480,note_on,0,0,4,,,,,,,,,,,,,,,3,,,45,80
1194480,note_off,960,0,4,,,,,,,,,,,,,,,3,,,50,0
1194480,note_on,0,0,1,,,,,,,,,,,,,,,0,,,83,86
1194480,control_change,160,0,3,,,,,,,,,,,,,64,0,2,,,,
1194480,note_off,0,0,3,,,,,,,,,,,,,,,2,,,54,0
1194480,note_on,480,0,2,,,,,,,,,,,,,,,1,,,73,86
1194480,note_on,0,0,2,,,,,,,,,,,,,,,1,,,76,86
1194480,note_off,240,0,1,,,,,,,,,,,,,,,0,,,81,0
1194540,control_change,60,0,3,,,,,,,,,,,,,64,127,2,,,,
1194640,note_on,100,0,3,,,,,,,,,,,,,,,2,,,55,74
1194720,note_on,0,0,1,,,,,,,,,,,,,,,0,,,81,74
1194720,note_off,240,0,1,,,,,,,,,,,,,,,0,,,83,0
1194800,note_off,160,0,3,,,,,,,,,,,,,,,2,,,55,0
1194800,note_on,0,0,3,,,,,,,,,,,,,,,2,,,57,72
1194960,note_on,0,0,3,,,,,,,,,,,,,,,2,,,61,69
1194960,note_off,160,0,3,,,,,,,,,,,,,,,2,,,57,0
1194960,note_on,0,0,2,,,,,,,,,,,,,,,1,,,76,75
1194960,note_on,0,0,2,,,,,,,,,,,,,,,1,,,73,75
1194960,note_off,0,0,2,,,,,,,,,,,,,,,1,,,76,0
1194960,note_off,480,0,2,,,,,,,,,,,,,,,1,,,73,0
1194960,note_off,240,0,1,,,,,,,,,,,,,,,0,,,81,0
1194960,note_on,0,0,1,,,,,,,,,,,,,,,0,,,80,75
1195120,note_on,0,0,3,,,,,,,,,,,,,,,2,,,57,67
1195120,note_off,160,0,3,,,,,,,,,,,,,,,2,,,61,0
1195200,note_off,240,0,1,,,,,,,,,,,,,,,0,,,80,0
1195200,note_on,0,0,1,,,,,,,,,,,,,,,0,,,81,75
1195230,set_tempo,1695,1,0,,,,,,,304568,,,,,,,,,,,,
1195280,note_on,0,0,3,,,,,,,,,,,,,,,2,,,55,65
1195280,note_off,160,0,3,,,,,,,,,,,,,,,2,,,57,0
1195372,note_off,172,0,1,,,,,,,,,,,,,,,0,,,81,0
1195380,note_on,900,0,4,,,,,,,,,,,,,,,3,,,54,77
1195380,note_off,0,0,2,,,,,,,,,,,,,,,1,,,76,0
1195380,note_off,100,0,3,,,,,,,,,,,,,,,2,,,55,0
1195380,note_off,420,0,2,,,,,,,,,,,,,,,1,,,73,0
1195387,note_off,7,0,4,,,,,,,,,,,,,,,3,,,45,0
1195440,set_tempo,210,1,0,,,,,,,298507,,,,,,,,,,,,
1195440,note_on,68,0,1,,,,,,,,,,,,,,,0,,,74,81
1195440,control_change,60,0,3,,,,,,,,,,,,,64,0,2,,,,
1195440,note_on,53,0,4,,,,,,,,,,,,,,,3,,,62,89
1195920,note_off,480,0,1,,,,,,,,,,,,,,,0,,,74,0
1196145,set_tempo,705,1,0,,,,,,,301507,,,,,,,,,,,,
1196340,note_off,900,0,4,,,,,,,,,,,,,,,3,,,54,0
1196400,note_on,60,0,4,,,,,,,,,,,,,,,3,,,60,61
1196415,set_tempo,270,1,0,,,,,,,297029,,,,,,,,,,,,
1196560,note_on,640,0,1,,,,,,,,,,,,,,,0,,,74,55
1196720,note_off,160,0,1,,,,,,,,,,,,,,,0,,,74,0
1196720,note_on,0,0,1,,,,,,,,,,,,,,,0,,,76,55
1196880,note_off,160,0,1,,,,,,,,,,,,,,,0,,,76,0
1196880,note_on,0,0,4,,,,,,,,,,,,,,,3,,,57,61
1196880,note_off,480,0,4,,,,,,,,,,,,,,,3,,,60,0
1196880,note_on,0,0,1,,,,,,,,,,,,,,,0,,,78,55
1197040,note_off,160,0,1,,,,,,,,,,,,,,,0,,,78,0
1197040,note_on,0,0,1,,,,,,,,,,,,,,,0,,,76,55
1197200,note_off,160,0,1,,,,,,,,,,,,,,,0,,,76,0
1197200,note_on,0,0,1,,,,,,,,,,,,,,,0,,,74,55
1197360,note_off,480,0,4,,,,,,,,,,,,,,,3,,,57,0
1197360,note_on,0,0,4,,,,,,,,,,,,,,,3,,,59,60
1197360,note_off,160,0,1,,,,,,,,,,,,,,,0,,,74,0
1197520,note_on,160,0,1,,,,,,,,,,,,,,,0,,,79,55
1197680,note_off,160,0,1,,,,,,,,,,,,,,,0,,,79,0
1197680,note_on,0,0,1,,,,,,,,,,,,,,,0,,,81,55
1197840,note_on,0,0,4,,,,,,,,,,,,,,,3,,,55,60
1197840,note_on,0,0,1,,,,,,,,,,,,,,,0,,,83,54
1197840,note_off,480,0,4,,,,,,,,,,,,,,,3,,,59,0
1197840,note_off,160,0,1,,,,,,,,,,,,,,,0,,,81,0
1198000,note_off,160,0,1,,,,,,,,,,,,,,,0,,,83,0
1198000,note_on,0,0,1,,,,,,,,,,,,,,,0,,,81,54
1198160,note_off,160,0,1,,,,,,,,,,,,,,,0,,,81,0
1198160,note_on,0,0,1,,,,,,,,,,,,,,,0,,,79,54
1198320,note_off,480,0,4,,,,,,,,,,,,,,,3,,,55,0
1198320,note_on,0,0,4,,,,,,,,,,,,,,,3,,,60,59
1198320,note_off,160,0,1,,,,,,,,,,,,,,,0,,,79,0
1198480,note_on,160,0,1,,,,,,,,,,,,,,,0,,,74,54
1198640,note_off,160,0,1,,,,,,,,,,,,,,,0,,,74,0
1198640,note_on,0,0,1,,,,,,,,,,,,,,,0,,,76,54
1198800,note_on,0,0,1,,,,,,,,,,,,,,,0,,,78,54
1198800,note_on,0,0,4,,,,,,,,,,,,,,,3,,,57,59
1198800,note_off,480,0,4,,,,,,,,,,,,,,,3,,,60,0
1198800,note_off,160,0,1,,,,,,,,,,,,,,,0,,,76,0
1198960,note_off,160,0,1,,,,,,,,,,,,,,,0,,,78,0
1198960,note_on,0,0,1,,,,,,,,,,,,,,,0,,,76,54
1199120,note_off,160,0,1,,,,,,,,,,,,,,,0,,,76,0
1199120,note_on,0,0,1,,,,,,,,,,,,,,,0,,,74,53
1199280,note_off,160,0,1,,,,,,,,,,,,,,,0,,,74,0
1199280,note_on,0,0,4,,,,,,,,,,,,,,,3,,,59,58
1199280,note_off,480,0,4,,,,,,,,,,,,,,,3,,,57,0
1199440,note_on,160,0,1,,,,,,,,,,,,,,,0,,,79,53
1199600,note_on,0,0,1,,,,,,,,,,,,,,,0,,,81,53
1199600,note_off,160,0,1,,,,,,,,,,,,,,,0,,,79,0
1199760,note_on,0,0,1,,,,,,,,,,,,,,,0,,,83,53
1199760,note_on,0,0,4,,,,,,,,,,,,,,,3,,,55,58
1199760,note_off,160,0,1,,,,,,,,,,,,,,,0,,,81,0
1199760,note_off,480,0,4,,,,,,,,,,,,,,,3,,,59,0
1199920,note_on,0,0,1,,,,,,,,,,,,,,,0,,,81,53
1199920,note_off,160,0,1,,,,,,,,,,,,,,,0,,,83,0
1200080,note_on,0,0,1,,,,,,,,,,,,,,,0,,,79,53
1200080,note_off,160,0,1,,,,,,,,,,,,,,,0,,,81,0
1200240,note_off,480,0,4,,,,,,,,,,,,,,,3,,,55,0
1200240,note_on,0,0,4,,,,,,,,,,,,,,,3,,,60,57
1200240,note_off,160,0,1,,,,,,,,,,,,,,,0,,,79,0
1200400,note_on,160,0,1,,,,,,,,,,,,,,,0,,,74,52
1200560,note_off,160,0,1,,,,,,,,,,,,,,,0,,,74,0
1200560,note_on,0,0,1,,,,,,,,,,,,,,,0,,,76,52
1200720,note_on,0,0,4,,,,,,,,,,,,,,,3,,,57,57
1200720,note_on,0,0,1,,,,,,,,,,,,,,,0,,,78,52
1200720,note_off,480,0,4,,,,,,,,,,,,,,,3,,,60,0
1200720,note_off,160,0,1,,,,,,,,,,,,,,,0,,,76,0
1200880,note_off,160,0,1,,,,,,,,,,,,,,,0,,,78,0
1200880,note_on,0,0,1,,,,,,,,,,,,,,,0,,,76,52
1201040,note_off,160,0,1,,,,,,,,,,,,,,,0,,,76,0
1201040,note_on,0,0,1,,,,,,,,,,,,,,,0,,,74,52
1201200,note_off,480,0,4,,,,,,,,,,,,,,,3,,,57,0
1201200,note_on,0,0,4,,,,,,,,,,,,,,,3,,,59,56
1201200,note_off,160,0,1,,,,,,,,,,,,,,,0,,,74,0
1201360,note_on,160,0,1,,,,,,,,,,,,,,,0,,,79,52
1201520,note_off,160,0,1,,,,,,,,,,,,,,,0,,,79,0
1201520,note_on,0,0,1,,,,,,,,,,,,,,,0,,,81,52
1201680,note_on,0,0,4,,,,,,,,,,,,,,,3,,,55,56
1201680,note_on,0,0,1,,,,,,,,,,,,,,,0,,,83,51
1201680,note_off,480,0,4,,,,,,,,,,,,,,,3,,,59,0
1201680,note_off,160,0,1,,,,,,,,,,,,,,,0,,,81,0
1201840,note_on,0,0,1,,,,,,,,,,,,,,,0,,,81,51
1201840,note_off,160,0,1,,,,,,,,,,,,,,,0,,,83,0
1202000,note_off,160,0,1,,,,,,,,,,,,,,,0,,,81,0
1202000,note_on,0,0,1,,,,,,,,,,,,,,,0,,,79,51
1202160,note_on,0,0,4,,,,,,,,,,,,,,,3,,,57,55
1202160,note_on,0,0,1,,,,,,,,,,,,,,,0,,,84,51
1202160,note_off,0,0,1,,,,,,,,,,,,,,,0,,,79,0
1202160,control_change,160,0,1,,,,,,,,,,,,,64,0,0,,,,
1202160,note_off,480,0,4,,,,,,,,,,,,,,,3,,,55,0
1202220,control_change,60,0,1,,,,,,,,,,,,,64,127,0,,,,
1202320,note_on,0,0,1,,,,,,,,,,,,,,,0,,,81,51
1202320,note_off,100,0,1,,,,,,,,,,,,,,,0,,,84,0
1202480,note_on,0,0,1,,,,,,,,,,,,,,,0,,,78,51
1202480,note_off,160,0,1,,,,,,,,,,,,,,,0,,,81,0
1202640,note_on,0,0,1,,,,,,,,,,,,,,,0,,,72,51
1202640,note_off,160,0,1,,,,,,,,,,,,,,,0,,,78,0
1202640,note_off,480,0,4,,,,,,,,,,,,,,,3,,,57,0
1202640,note_on,0,0,4,,,,,,,,,,,,,,,3,,,50,55
1202800,note_on,0,0,1,,,,,,,,,,,,,,,0,,,69,51
1202800,note_off,160,0,1,,,,,,,,,,,,,,,0,,,72,0
1202880,set_tempo,6465,1,0,,,,,,,298507,,,,,,,,,,,,
1202960,note_on,0,0,1,,,,,,,,,,,,,,,0,,,66,50
1202960,note_off,160,0,1,,,,,,,,,,,,,,,0,,,69,0
1203120,note_off,480,0,4,,,,,,,,,,,,,,,3,,,50,0
1203120,note_on,0,0,4,,,,,,,,,,,,,,,3,,,55,54
1203120,control_change,160,0,1,,,,,,,,,,,,,64,0,0,,,,
1203120,note_off,0,0,1,,,,,,,,,,,,,,,0,,,66,0
1203120,note_on,0,0,1,,,,,,,,,,,,,,,0,,,67,50
1203180,control_change,60,0,1,,,,,,,,,,,,,64,127,0,,,,
1203280,note_on,0,0,1,,,,,,,,,,,,,,,0,,,71,50
1203280,note_off,100,0,1,,,,,,,,,,,,,,,0,,,67,0
1203440,note_on,0,0,1,,,,,,,,,,,,,,,0,,,67,50
1203440,note_off,160,0,1,,,,,,,,,,,,,,,0,,,71,0
1203600,note_off,480,0,4,,,,,,,,,,,,,,,3,,,55,0
1203600,note_on,0,0,1,,,,,,,,,,,,,,,0,,,62,50
1203600,note_off,160,0,1,,,,,,,,,,,,,,,0,,,67,0
1203600,note_on,0,0,4,,,,,,,,,,,,,,,3,,,47,54
1203760,note_on,0,0,1,,,,,,,,,,,,,,,0,,,59,50
1203760,note_off,160,0,1,,,,,,,,,,,,,,,0,,,62,0
1203840,set_tempo,960,1,0,,,,,,,301507,,,,,,,,,,,,
1203920,note_on,0,0,1,,,,,,,,,,,,,,,0,,,67,50
1203920,note_off,160,0,1,,,,,,,,,,,,,,,0,,,59,0
1204080,note_off,0,0,1,,,,,,,,,,,,,,,0,,,67,0
1204080,note_off,480,0,4,,,,,,,,,,,,,,,3,,,62,0
1204080,control_change,160,0,1,,,,,,,,,,,,,64,0,0,,,,
1204080,note_off,0,0,4,,,,,,,,,,,,,,,3,,,47,0
1204080,note_on,0,0,4,,,,,,,,,,,,,,,3,,,48,63
1204080,note_on,0,0,4,,,,,,,,,,,,,,,3,,,50,63
1204095,set_tempo,255,1,0,,,,,,,297029,,,,,,,,,,,,
1204240,note_on,160,0,1,,,,,,,,,,,,,,,0,,,62,49
1204400,note_off,160,0,1,,,,,,,,,,,,,,,0,,,62,0
1204400,note_on,0,0,1,,,,,,,,,,,,,,,0,,,64,49
1204560,note_off,160,0,1,,,,,,,,,,,,,,,0,,,64,0
1204560,note_on,0,0,1,,,,,,,,,,,,,,,0,,,66,49
1204560,note_off,480,0,4,,,,,,,,,,,,,,,3,,,48,0
1204560,note_on,0,0,4,,,,,,,,,,,,,,,3,,,45,53
1204720,note_off,160,0,1,,,,,,,,,,,,,,,0,,,66,0
1204720,note_on,0,0,1,,,,,,,,,,,,,,,0,,,64,49
1204880,note_off,160,0,1,,,,,,,,,,,,,,,0,,,64,0
1204880,note_on,0,0,1,,,,,,,,,,,,,,,0,,,62,49
1205040,note_off,480,0,4,,,,,,,,,,,,,,,3,,,45,0
1205040,note_on,0,0,4,,,,,,,,,,,,,,,3,,,47,53
1205040,note_off,160,0,1,,,,,,,,,,,,,,,0,,,62,0
1205200,note_on,160,0,1,,,,,,,,,,,,,,,0,,,67,49
1205360,note_off,160,0,1,,,,,,,,,,,,,,,0,,,67,0
1205360,note_on,0,0,1,,,,,,,,,,,,,,,0,,,69,49
1205520,note_on,0,0,4,,,,,,,,,,,,,,,3,,,43,52
1205520,note_on,0,0,1,,,,,,,,,,,,,,,0,,,71,48
1205520,note_off,160,0,1,,,,,,,,,,,,,,,0,,,69,0
1205520,note_off,480,0,4,,,,,,,,,,,,,,,3,,,47,0
1205680,note_off,160,0,1,,,,,,,,,,,,,,,0,,,71,0
1205680,note_on,0,0,1,,,,,,,,,,,,,,,0,,,69,48
1205840,note_off,160,0,1,,,,,,,,,,,,,,,0,,,69,0
1205840,note_on,0,0,1,,,,,,,,,,,,,,,0,,,67,48
1206000,note_off,480,0,4,,,,,,,,,,,,,,,3,,,43,0
1206000,note_on,0,0,4,,,,,,,,,,,,,,,3,,,45,52
1206000,control_change,160,0,1,,,,,,,,,,,,,64,0,0,,,,
1206000,note_off,0,0,1,,,,,,,,,,,,,,,0,,,67,0
1206000,note_on,0,0,1,,,,,,,,,,,,,,,0,,,72,48
1206060,control_change,60,0,1,,,,,,,,,,,,,64,127,0,,,,
1206160,note_off,100,0,1,,,,,,,,,,,,,,,0,,,72,0
1206160,note_on,0,0,1,,,,,,,,,,,,,,,0,,,69,48
1206320,note_on,0,0,1,,,,,,,,,,,,,,,0,,,66,48
1206320,note_off,160,0,1,,,,,,,,,,,,,,,0,,,69,0
1206480,note_on,0,0,4,,,,,,,,,,,,,,,3,,,38,51
1206480,note_off,480,0,4,,,,,,,,,,,,,,,3,,,45,0
1206480,note_on,0,0,1,,,,,,,,,,,,,,,0,,,60,48
1206480,note_off,160,0,1,,,,,,,,,,,,,,,0,,,66,0
1206640,note_off,160,0,1,,,,,,,,,,,,,,,0,,,60,0
1206640,note_on,0,0,1,,,,,,,,,,,,,,,0,,,57,48
1206800,note_off,160,0,1,,,,,,,,,,,,,,,0,,,57,0
1206800,note_on,0,0,1,,,,,,,,,,,,,,,0,,,54,47
1206960,control_change,160,0,1,,,,,,,,,,,,,64,0,0,,,,
1206960,note_off,0,0,1,,,,,,,,,,,,,,,0,,,54,0
1206960,note_on,0,0,1,,,,,,,,,,,,,,,0,,,55,47
1206960,note_off,480,0,4,,,,,,,,,,,,,,,3,,,38,0
1206960,note_on,0,0,4,,,,,,,,,,,,,,,3,,,43,50
1207020,control_change,60,0,1,,,,,,,,,,,,,64,127,0,,,,
1207120,note_off,100,0,1,,,,,,,,,,,,,,,0,,,55,0
1207120,note_on,0,0,1,,,,,,,,,,,,,,,0,,,59,47
1207280,note_on,0,0,1,,,,,,,,,,,,,,,0,,,55,47
1207280,note_off,160,0,1,,,,,,,,,,,,,,,0,,,59,0
1207440,note_off,160,0,1,,,,,,,,,,,,,,,0,,,55,0
1207440,note_off,480,0,4,,,,,,,,,,,,,,,3,,,50,0
1207440,note_off,0,0,4,,,,,,,,,,,,,,,3,,,43,0
1207440,note_on,0,0,4,,,,,,,,,,,,,,,3,,,35,50
1207440,note_on,0,0,1,,,,,,,,,,,,,,,0,,,50,47
1207600,note_off,160,0,1,,,,,,,,,,,,,,,0,,,50,0
1207600,note_on,0,0,1,,,,,,,,,,,,,,,0,,,47,47
1207680,set_tempo,3585,1,0,,,,,,,300000,,,,,,,,,,,,
1207760,note_on,0,0,1,,,,,,,,,,,,,,,0,,,55,47
1207760,note_off,160,0,1,,,,,,,,,,,,,,,0,,,47,0
1207920,note_off,480,0,4,,,,,,,,,,,,,,,3,,,35,0
1207920,note_on,0,0,4,,,,,,,,,,,,,,,3,,,38,46
1207920,control_change,160,0,1,,,,,,,,,,,,,64,0,0,,,,
1207920,note_off,0,0,1,,,,,,,,,,,,,,,0,,,55,0
1207920,note_on,0,0,4,,,,,,,,,,,,,,,3,,,36,62
1207935,set_tempo,255,1,0,,,,,,,297029,,,,,,,,,,,,
1208080,note_on,160,0,1,,,,,,,,,,,,,,,0,,,50,52
1208240,note_off,160,0,1,,,,,,,,,,,,,,,0,,,50,0
1208240,note_on,0,0,1,,,,,,,,,,,,,,,0,,,52,51
1208400,note_off,480,0,4,,,,,,,,,,,,,,,3,,,36,0
1208400,note_on,0,0,4,,,,,,,,,,,,,,,3,,,33,47
1208400,note_off,160,0,1,,,,,,,,,,,,,,,0,,,52,0
1208400,note_on,0,0,1,,,,,,,,,,,,,,,0,,,54,49
1208560,note_off,160,0,1,,,,,,,,,,,,,,,0,,,54,0
1208560,note_on,0,0,1,,,,,,,,,,,,,,,0,,,52,48
1208720,note_on,0,0,1,,,,,,,,,,,,,,,0,,,50,47
1208720,note_off,160,0,1,,,,,,,,,,,,,,,0,,,52,0
1208880,note_off,480,0,4,,,,,,,,,,,,,,,3,,,33,0
1208880,note_on,0,0,4,,,,,,,,,,,,,,,3,,,35,47
1208880,note_off,160,0,1,,,,,,,,,,,,,,,0,,,50,0
1209040,note_on,160,0,1,,,,,,,,,,,,,,,0,,,55,46
1209200,note_on,0,0,1,,,,,,,,,,,,,,,0,,,57,46
1209200,note_off,160,0,1,,,,,,,,,,,,,,,0,,,55,0
1209360,note_off,160,0,1,,,,,,,,,,,,,,,0,,,57,0
1209360,note_on,0,0,1,,,,,,,,,,,,,,,0,,,59,46
1209360,note_on,0,0,4,,,,,,,,,,,,,,,3,,,31,47
1209360,note_off,480,0,4,,,,,,,,,,,,,,,3,,,35,0
1209520,note_on,0,0,1,,,,,,,,,,,,,,,0,,,57,45
1209520,note_off,160,0,1,,,,,,,,,,,,,,,0,,,59,0
1209680,note_on,0,0,1,,,,,,,,,,,,,,,0,,,55,45
1209680,note_off,160,0,1,,,,,,,,,,,,,,,0,,,57,0
1209840,note_on,0,0,1,,,,,,,,,,,,,,,0,,,60,45
1209840,note_off,0,0,1,,,,,,,,,,,,,,,0,,,55,0
1209840,control_change,160,0,1,,,,,,,,,,,,,64,0,0,,,,
1209840,note_off,480,0,4,,,,,,,,,,,,,,,3,,,31,0
1209840,note_on,0,0,4,,,,,,,,,,,,,,,3,,,33,46
1209900,control_change,60,0,1,,,,,,,,,,,,,64,127,0,,,,
1210000,note_off,100,0,1,,,,,,,,,,,,,,,0,,,60,0
1210000,note_on,0,0,1,,,,,,,,,,,,,,,0,,,57,45
1210160,note_on,0,0,1,,,,,,,,,,,,,,,0,,,54,45
1210160,note_off,160,0,1,,,,,,,,,,,,,,,0,,,57,0
1210320,note_on,0,0,1,,,,,,,,,,,,,,,0,,,48,45
1210320,note_off,480,0,4,,,,,,,,,,,,,,,3,,,33,0
1210320,note_on,0,0,4,,,,,,,,,,,,,,,3,,,26,46
1210320,note_off,160,0,1,,,,,,,,,,,,,,,0,,,54,0
1210480,note_on,0,0,1,,,,,,,,,,,,,,,0,,,45,45
1210480,note_off,160,0,1,,,,,,,,,,,,,,,0,,,48,0
1210640,note_on,0,0,1,,,,,,,,,,,,,,,0,,,42,45
1210640,note_off,160,0,1,,,,,,,,,,,,,,,0,,,45,0
1210800,note_off,0,0,1,,,,,,,,,,,,,,,0,,,42,0
1210800,note_on,0,0,1,,,,,,,,,,,,,,,0,,,43,44
1210800,control_change,160,0,1,,,,,,,,,,,,,64,0,0,,,,
1210800,note_on,0,0,4,,,,,,,,,,,,,,,3,,,35,46
1210800,note_off,480,0,4,,,,,,,,,,,,,,,3,,,26,0
1210860,control_change,60,0,1,,,,,,,,,,,,,64,127,0,,,,
1210960,note_off,100,0,1,,,,,,,,,,,,,,,0,,,43,0
1210960,note_on,0,0,1,,,,,,,,,,,,,,,0,,,47,44
1211120,note_off,160,0,1,,,,,,,,,,,,,,,0,,,47,0
1211120,note_on,0,0,1,,,,,,,,,,,,,,,0,,,50,44
1211280,note_off,160,0,1,,,,,,,,,,,,,,,0,,,50,0
1211280,note_on,0,0,1,,,,,,,,,,,,,,,0,,,55,44
1211280,note_on,0,0,4,,,,,,,,,,,,,,,3,,,31,46
1211280,note_off,480,0,4,,,,,,,,,,,,,,,3,,,35,0
1211440,note_off,160,0,1,,,,,,,,,,,,,,,0,,,55,0
1211440,note_on,0,0,1,,,,,,,,,,,,,,,0,,,59,44
1211520,set_tempo,3585,1,0,,,,,,,300000,,,,,,,,,,,,
1211600,note_off,160,0,1,,,,,,,,,,,,,,,0,,,59,0
1211600,note_on,0,0,1,,,,,,,,,,,,,,,0,,,62,44
1211685,note_off,405,0,4,,,,,,,,,,,,,,,3,,,38,0
1211760,control_change,160,0,1,,,,,,,,,,,,,64,0,0,,,,
1211760,note_off,0,0,1,,,,,,,,,,,,,,,0,,,62,0
1211760,note_on,0,0,1,,,,,,,,,,,,,,,0,,,60,44
1211760,note_off,75,0,4,,,,,,,,,,,,,,,3,,,31,0
1211760,note_on,0,0,4,,,,,,,,,,,,,,,3,,,33,58
1211760,note_on,0,0,4,,,,,,,,,,,,,,,3,,,38,46
1211775,set_tempo,255,1,0,,,,,,,297029,,,,,,,,,,,,
1211820,control_change,60,0,1,,,,,,,,,,,,,64,127,0,,,,
1211920,note_off,100,0,1,,,,,,,,,,,,,,,0,,,60,0
1211920,note_on,0,0,1,,,,,,,,,,,,,,,0,,,57,50
1212080,note_on,0,0,1,,,,,,,,,,,,,,,0,,,54,49
1212080,note_off,160,0,1,,,,,,,,,,,,,,,0,,,57,0
1212240,note_off,480,0,4,,,,,,,,,,,,,,,3,,,33,0
1212240,note_on,0,0,4,,,,,,,,,,,,,,,3,,,26,47
1212240,note_on,0,0,1,,,,,,,,,,,,,,,0,,,48,47
1212240,note_off,160,0,1,,,,,,,,,,,,,,,0,,,54,0
1212400,note_on,0,0,1,,,,,,,,,,,,,,,0,,,45,46
1212400,note_off,160,0,1,,,,,,,,,,,,,,,0,,,48,0
1212560,note_on,0,0,1,,,,,,,,,,,,,,,0,,,42,44
1212560,note_off,160,0,1,,,,,,,,,,,,,,,0,,,45,0
1212720,control_change,160,0,1,,,,,,,,,,,,,64,0,0,,,,
1212720,note_on,0,0,1,,,,,,,,,,,,,,,0,,,43,43
1212720,note_on,0,0,4,,,,,,,,,,,,,,,3,,,35,45
1212720,note_off,480,0,4,,,,,,,,,,,,,,,3,,,26,0
1212720,note_off,0,0,1,,,,,,,,,,,,,,,0,,,42,0
1212780,control_change,60,0,1,,,,,,,,,,,,,64,127,0,,,,
1212880,note_off,100,0,1,,,,,,,,,,,,,,,0,,,43,0
1212880,note_on,0,0,1,,,,,,,,,,,,,,,0,,,47,43
1213040,note_off,160,0,1,,,,,,,,,,,,,,,0,,,47,0
1213040,note_on,0,0,1,,,,,,,,,,,,,,,0,,,50,43
1213200,note_on,0,0,4,,,,,,,,,,,,,,,3,,,31,44
1213200,note_on,0,0,1,,,,,,,,,,,,,,,0,,,55,43
1213200,note_off,480,0,4,,,,,,,,,,,,,,,3,,,35,0
1213200,note_off,160,0,1,,,,,,,,,,,,,,,0,,,50,0
1213360,note_off,160,0,1,,,,,,,,,,,,,,,0,,,55,0
1213360,note_on,0,0,1,,,,,,,,,,,,,,,0,,,59,42
1213440,set_tempo,1665,1,0,,,,,,,300000,,,,,,,,,,,,
1213520,note_on,0,0,1,,,,,,,,,,,,,,,0,,,62,42
1213520,note_off,160,0,1,,,,,,,,,,,,,,,0,,,59,0
1213680,note_off,0,0,1,,,,,,,,,,,,,,,0,,,62,0
1213680,note_off,480,0,4,,,,,,,,,,,,,,,3,,,38,0
1213680,note_off,0,0,4,,,,,,,,,,,,,,,3,,,31,0
1213680,note_on,0,0,4,,,,,,,,,,,,,,,3,,,33,57
1213680,note_on,0,0,4,,,,,,,,,,,,,,,3,,,38,46
1213680,control_change,160,0,1,,,,,,,,,,,,,64,0,0,,,,
1213680,note_on,0,0,1,,,,,,,,,,,,,,,0,,,60,49
1213695,set_tempo,255,1,0,,,,,,,297029,,,,,,,,,,,,
1213740,control_change,60,0,1,,,,,,,,,,,,,64,127,0,,,,
1213840,note_off,100,0,1,,,,,,,,,,,,,,,0,,,60,0
1213840,note_on,0,0,1,,,,,,,,,,,,,,,0,,,57,48
1214000,note_on,0,0,1,,,,,,,,,,,,,,,0,,,54,47
1214000,note_off,160,0,1,,,,,,,,,,,,,,,0,,,57,0
1214160,note_off,160,0,1,,,,,,,,,,,,,,,0,,,54,0
1214160,note_on,0,0,1,,,,,,,,,,,,,,,0,,,48,46
1214160,note_off,480,0,4,,,,,,,,,,,,,,,3,,,33,0
1214160,note_on,0,0,4,,,,,,,,,,,,,,,3,,,26,46
1214320,note_off,160,0,1,,,,,,,,,,,,,,,0,,,48,0
1214320,note_on,0,0,1,,,,,,,,,,,,,,,0,,,45,46
1214385,set_tempo,690,1,0,,,,,,,300000,,,,,,,,,,,,
1214480,note_off,160,0,1,,,,,,,,,,,,,,,0,,,45,0
1214480,note_on,0,0,1,,,,,,,,,,,,,,,0,,,42,45
1214640,control_change,160,0,1,,,,,,,,,,,,,64,0,0,,,,
1214640,note_off,0,0,1,,,,,,,,,,,,,,,0,,,42,0
1214640,note_on,0,0,1,,,,,,,,,,,,,,,0,,,43,44
1214640,note_on,0,0,4,,,,,,,,,,,,,,,3,,,31,48
1214640,note_off,480,0,4,,,,,,,,,,,,,,,3,,,26,0
1214655,set_tempo,270,1,0,,,,,,,297029,,,,,,,,,,,,
1214700,control_change,60,0,1,,,,,,,,,,,,,64,127,0,,,,
1214800,note_on,0,0,1,,,,,,,,,,,,,,,0,,,59,42
1214800,note_off,100,0,1,,,,,,,,,,,,,,,0,,,43,0
1214960,note_on,0,0,1,,,,,,,,,,,,,,,0,,,55,42
1214960,note_off,160,0,1,,,,,,,,,,,,,,,0,,,59,0
1215120,note_off,0,0,4,,,,,,,,,,,,,,,3,,,31,0
1215120,note_on,0,0,1,,,,,,,,,,,,,,,0,,,50,43
1215120,note_off,160,0,1,,,,,,,,,,,,,,,0,,,55,0
1215120,note_off,480,0,4,,,,,,,,,,,,,,,3,,,38,0
1215120,note_on,0,0,4,,,,,,,,,,,,,,,3,,,43,44
1215280,note_on,0,0,1,,,,,,,,,,,,,,,0,,,47,43
1215280,note_off,160,0,1,,,,,,,,,,,,,,,0,,,50,0
1215432,note_off,312,0,4,,,,,,,,,,,,,,,3,,,43,0
1215440,note_on,0,0,1,,,,,,,,,,,,,,,0,,,59,43
1215440,note_off,160,0,1,,,,,,,,,,,,,,,0,,,47,0
1215600,note_on,0,0,1,,,,,,,,,,,,,,,0,,,50,43
1215600,note_off,160,0,1,,,,,,,,,,,,,,,0,,,59,0
1215760,note_off,160,0,1,,,,,,,,,,,,,,,0,,,50,0
1215760,note_on,0,0,1,,,,,,,,,,,,,,,0,,,62,44
1215920,note_on,0,0,1,,,,,,,,,,,,,,,0,,,59,44
1215920,note_off,160,0,1,,,,,,,,,,,,,,,0,,,62,0
1216080,note_on,0,0,1,,,,,,,,,,,,,,,0,,,55,44
1216080,note_on,0,0,4,,,,,,,,,,,,,,,3,,,47,48
1216080,note_off,160,0,1,,,,,,,,,,,,,,,0,,,59,0
1216080,note_on,648,0,4,,,,,,,,,,,,,,,3,,,43,48
1216240,note_on,0,0,1,,,,,,,,,,,,,,,0,,,50,45
1216240,note_off,160,0,1,,,,,,,,,,,,,,,0,,,55,0
1216392,note_off,0,0,4,,,,,,,,,,,,,,,3,,,47,0
1216392,note_off,312,0,4,,,,,,,,,,,,,,,3,,,43,0
1216400,note_on,0,0,1,,,,,,,,,,,,,,,0,,,62,45
1216400,note_off,160,0,1,,,,,,,,,,,,,,,0,,,50,0
1216560,note_off,160,0,1,,,,,,,,,,,,,,,0,,,62,0
1216560,note_on,0,0,1,,,,,,,,,,,,,,,0,,,55,45
1216720,note_off,160,0,1,,,,,,,,,,,,,,,0,,,55,0
1216720,note_on,0,0,1,,,,,,,,,,,,,,,0,,,67,45
1216880,note_off,160,0,1,,,,,,,,,,,,,,,0,,,67,0
1216880,note_on,0,0,1,,,,,,,,,,,,,,,0,,,62,46
1217040,note_on,648,0,4,,,,,,,,,,,,,,,3,,,43,52
1217040,note_on,0,0,4,,,,,,,,,,,,,,,3,,,50,52
1217040,note_on,0,0,4,,,,,,,,,,,,,,,3,,,47,52
1217040,note_on,0,0,1,,,,,,,,,,,,,,,0,,,59,46
1217040,note_off,160,0,1,,,,,,,,,,,,,,,0,,,62,0
1217200,note_off,160,0,1,,,,,,,,,,,,,,,0,,,59,0
1217200,note_on,0,0,1,,,,,,,,,,,,,,,0,,,55,46
1217352,note_off,0,0,4,,,,,,,,,,,,,,,3,,,50,0
1217352,note_off,312,0,4,,,,,,,,,,,,,,,3,,,43,0
1217352,note_off,0,0,4,,,,,,,,,,,,,,,3,,,47,0
1217360,note_off,160,0,1,,,,,,,,,,,,,,,0,,,55,0
1217360,note_on,0,0,1,,,,,,,,,,,,,,,0,,,67,47
1217520,note_off,160,0,1,,,,,,,,,,,,,,,0,,,67,0
1217520,note_on,0,0,1,,,,,,,,,,,,,,,0,,,59,47
1217680,note_on,0,0,1,,,,,,,,,,,,,,,0,,,71,47
1217680,note_off,160,0,1,,,,,,,,,,,,,,,0,,,59,0
1217840,note_on,0,0,1,,,,,,,,,,,,,,,0,,,67,47
1217840,note_off,160,0,1,,,,,,,,,,,,,,,0,,,71,0
1218000,note_on,648,0,4,,,,,,,,,,,,,,,3,,,55,55
1218000,note_on,0,0,4,,,,,,,,,,,,,,,3,,,43,55
1218000,note_on,0,0,4,,,,,,,,,,,,,,,3,,,50,55
1218000,note_on,0,0,4,,,,,,,,,,,,,,,3,,,47,55
1218000,note_off,160,0,1,,,,,,,,,,,,,,,0,,,67,0
1218000,note_on,0,0,1,,,,,,,,,,,,,,,0,,,62,48
1218160,note_off,160,0,1,,,,,,,,,,,,,,,0,,,62,0
1218160,note_on,0,0,1,,,,,,,,,,,,,,,0,,,74,48
1218270,set_tempo,3615,1,0,,,,,,,300000,,,,,,,,,,,,
1218312,note_off,312,0,4,,,,,,,,,,,,,,,3,,,55,0
1218312,note_off,0,0,4,,,,,,,,,,,,,,,3,,,43,0
1218312,note_off,0,0,4,,,,,,,,,,,,,,,3,,,50,0
1218312,note_off,0,0,4,,,,,,,,,,,,,,,3,,,47,0
1218320,note_off,160,0,1,,,,,,,,,,,,,,,0,,,74,0
1218320,note_on,0,0,1,,,,,,,,,,,,,,,0,,,71,48
1218480,control_change,160,0,1,,,,,,,,,,,,,64,0,0,,,,
1218480,note_on,0,0,1,,,,,,,,,,,,,,,0,,,67,48
1218480,note_off,0,0,1,,,,,,,,,,,,,,,0,,,71,0
1218495,set_tempo,225,1,0,,,,,,,297029,,,,,,,,,,,,
1218540,control_change,60,0,1,,,,,,,,,,,,,64,127,0,,,,
1218640,note_off,100,0,1,,,,,,,,,,,,,,,0,,,67,0
1218640,note_on,0,0,1,,,,,,,,,,,,,,,0,,,79,49
1218800,note_on,0,0,1,,,,,,,,,,,,,,,0,,,67,49
1218800,note_off,160,0,1,,,,,,,,,,,,,,,0,,,79,0
1218960,note_on,648,0,4,,,,,,,,,,,,,,,3,,,55,59
1218960,note_on,0,0,4,,,,,,,,,,,,,,,3,,,47,59
1218960,note_on,0,0,1,,,,,,,,,,,,,,,0,,,79,49
1218960,note_off,160,0,1,,,,,,,,,,,,,,,0,,,67,0
1218960,note_on,0,0,4,,,,,,,,,,,,,,,3,,,50,59
1219120,note_on,0,0,1,,,,,,,,,,,,,,,0,,,67,50
1219120,note_off,160,0,1,,,,,,,,,,,,,,,0,,,79,0
1219272,note_off,312,0,4,,,,,,,,,,,,,,,3,,,55,0
1219272,note_off,0,0,4,,,,,,,,,,,,,,,3,,,47,0
1219272,note_off,0,0,4,,,,,,,,,,,,,,,3,,,50,0
1219280,note_on,0,0,1,,,,,,,,,,,,,,,0,,,79,50
1219280,note_off,160,0,1,,,,,,,,,,,,,,,0,,,67,0
1219440,note_on,0,0,1,,,,,,,,,,,,,,,0,,,67,51
1219440,note_on,0,0,4,,,,,,,,,,,,,,,3,,,49,61
1219440,note_on,0,0,4,,,,,,,,,,,,,,,3,,,46,61
1219440,note_on,168,0,4,,,,,,,,,,,,,,,3,,,55,61
1219440,note_off,160,0,1,,,,,,,,,,,,,,,0,,,79,0
1219600,note_off,160,0,1,,,,,,,,,,,,,,,0,,,67,0
1219600,note_on,0,0,1,,,,,,,,,,,,,,,0,,,79,51
1219752,note_off,0,0,4,,,,,,,,,,,,,,,3,,,49,0
1219752,note_off,0,0,4,,,,,,,,,,,,,,,3,,,46,0
1219752,note_off,312,0,4,,,,,,,,,,,,,,,3,,,55,0
1219760,note_off,160,0,1,,,,,,,,,,,,,,,0,,,79,0
1219760,note_on,0,0,1,,,,,,,,,,,,,,,0,,,67,52
1219920,note_on,0,0,1,,,,,,,,,,,,,,,0,,,79,52
1219920,note_off,160,0,1,,,,,,,,,,,,,,,0,,,67,0
1219920,note_on,0,0,4,,,,,,,,,,,,,,,3,,,47,63
1219920,note_on,0,0,4,,,,,,,,,,,,,,,3,,,50,63
1219920,note_on,168,0,4,,,,,,,,,,,,,,,3,,,55,63
1220080,note_off,160,0,1,,,,,,,,,,,,,,,0,,,79,0
1220080,note_on,0,0,1,,,,,,,,,,,,,,,0,,,67,53
1220232,note_off,0,0,4,,,,,,,,,,,,,,,3,,,47,0
1220232,note_off,312,0,4,,,,,,,,,,,,,,,3,,,55,0
1220232,note_off,0,0,4,,,,,,,,,,,,,,,3,,,50,0
1220240,note_on,0,0,1,,,,,,,,,,,,,,,0,,,79,53
1220240,note_off,160,0,1,,,,,,,,,,,,,,,0,,,67,0
1220400,note_on,0,0,4,,,,,,,,,,,,,,,3,,,55,65
1220400,note_on,0,0,4,,,,,,,,,,,,,,,3,,,49,65
1220400,note_off,160,0,1,,,,,,,,,,,,,,,0,,,79,0
1220400,note_on,0,0,1,,,,,,,,,,,,,,,0,,,67,53
1220400,note_on,168,0,4,,,,,,,,,,,,,,,3,,,46,65
1220560,note_on,0,0,1,,,,,,,,,,,,,,,0,,,79,54
1220560,note_off,160,0,1,,,,,,,,,,,,,,,0,,,67,0
1220712,note_off,0,0,4,,,,,,,,,,,,,,,3,,,49,0
1220712,note_off,0,0,4,,,,,,,,,,,,,,,3,,,55,0
1220712,note_off,312,0,4,,,,,,,,,,,,,,,3,,,46,0
1220720,note_on,0,0,1,,,,,,,,,,,,,,,0,,,67,54
1220720,note_off,160,0,1,,,,,,,,,,,,,,,0,,,79,0
1220880,note_off,160,0,1,,,,,,,,,,,,,,,0,,,67,0
1220880,note_on,0,0,1,,,,,,,,,,,,,,,0,,,79,55
1220880,note_on,0,0,4,,,,,,,,,,,,,,,3,,,47,67
1220880,note_on,168,0,4,,,,,,,,,,,,,,,3,,,55,67
1220880,note_on,0,0,4,,,,,,,,,,,,,,,3,,,50,67
1221040,note_off,160,0,1,,,,,,,,,,,,,,,0,,,79,0
1221040,note_on,0,0,1,,,,,,,,,,,,,,,0,,,67,55
1221192,note_off,0,0,4,,,,,,,,,,,,,,,3,,,47,0
1221192,note_off,0,0,4,,,,,,,,,,,,,,,3,,,50,0
1221192,note_off,312,0,4,,,,,,,,,,,,,,,3,,,55,0
1221200,note_on,0,0,1,,,,,,,,,,,,,,,0,,,79,56
1221200,note_off,160,0,1,,,,,,,,,,,,,,,0,,,67,0
1221360,note_on,0,0,4,,,,,,,,,,,,,,,3,,,46,68
1221360,note_on,0,0,1,,,,,,,,,,,,,,,0,,,67,56
1221360,note_on,168,0,4,,,,,,,,,,,,,,,3,,,55,68
1221360,note_on,0,0,4,,,,,,,,,,,,,,,3,,,49,68
1221360,note_off,160,0,1,,,,,,,,,,,,,,,0,,,79,0
1221520,note_off,160,0,1,,,,,,,,,,,,,,,0,,,67,0
1221520,note_on,0,0,1,,,,,,,,,,,,,,,0,,,79,57
1221672,note_off,312,0,4,,,,,,,,,,,,,,,3,,,55,0
1221672,note_off,0,0,4,,,,,,,,,,,,,,,3,,,49,0
1221672,note_off,0,0,4,,,,,,,,,,,,,,,3,,,46,0
1221680,note_on,0,0,1,,,,,,,,,,,,,,,0,,,67,57
1221680,note_off,160,0,1,,,,,,,,,,,,,,,0,,,79,0
1221840,note_on,0,0,4,,,,,,,,,,,,,,,3,,,50,70
1221840,note_on,0,0,4,,,,,,,,,,,,,,,3,,,55,70
1221840,note_on,0,0,1,,,,,,,,,,,,,,,0,,,79,57
1221840,note_off,160,0,1,,,,,,,,,,,,,,,0,,,67,0
1221840,note_on,168,0,4,,,,,,,,,,,,,,,3,,,47,70
1222000,note_off,160,0,1,,,,,,,,,,,,,,,0,,,79,0
1222000,note_on,0,0,1,,,,,,,,,,,,,,,0,,,67,58
1222152,note_off,312,0,4,,,,,,,,,,,,,,,3,,,47,0
1222152,note_off,0,0,4,,,,,,,,,,,,,,,3,,,55,0
1222152,note_off,0,0,4,,,,,,,,,,,,,,,3,,,50,0
1222160,note_off,160,0,1,,,,,,,,,,,,,,,0,,,67,0
1222160,note_on,0,0,1,,,,,,,,,,,,,,,0,,,79,58
1222320,note_on,0,0,4,,,,,,,,,,,,,,,3,,,55,72
1222320,note_on,168,0,4,,,,,,,,,,,,,,,3,,,49,72
1222320,note_off,160,0,1,,,,,,,,,,,,,,,0,,,79,0
1222320,note_on,0,0,1,,,,,,,,,,,,,,,0,,,67,59
1222320,note_on,0,0,4,,,,,,,,,,,,,,,3,,,46,72
1222480,note_off,160,0,1,,,,,,,,,,,,,,,0,,,67,0
1222480,note_on,0,0,1,,,,,,,,,,,,,,,0,,,79,59
1222632,note_off,312,0,4,,,,,,,,,,,,,,,3,,,49,0
1222632,note_off,0,0,4,,,,,,,,,,,,,,,3,,,55,0
1222632,note_off,0,0,4,,,,,,,,,,,,,,,3,,,46,0
1222640,note_off,160,0,1,,,,,,,,,,,,,,,0,,,79,0
1222640,note_on,0,0,1,,,,,,,,,,,,,,,0,,,67,60
1222800,note_on,0,0,4,,,,,,,,,,,,,,,3,,,47,74
1222800,note_on,0,0,4,,,,,,,,,,,,,,,3,,,50,74
1222800,note_off,160,0,1,,,,,,,,,,,,,,,0,,,67,0
1222800,note_on,0,0,1,,,,,,,,,,,,,,,0,,,79,60
1222800,note_on,168,0,4,,,,,,,,,,,,,,,3,,,55,74
1222960,note_off,160,0,1,,,,,,,,,,,,,,,0,,,79,0
1222960,note_on,0,0,1,,,,,,,,,,,,,,,0,,,67,61
1223070,set_tempo,4575,1,0,,,,,,,300000,,,,,,,,,,,,
1223112,note_off,0,0,4,,,,,,,,,,,,,,,3,,,50,0
1223112,note_off,0,0,4,,,,,,,,,,,,,,,3,,,47,0
1223112,note_off,312,0,4,,,,,,,,,,,,,,,3,,,55,0
1223120,note_on,0,0,1,,,,,,,,,,,,,,,0,,,79,61
1223120,note_off,160,0,1,,,,,,,,,,,,,,,0,,,67,0
1223280,note_on,0,0,1,,,,,,,,,,,,,,,0,,,76,71
1223280,control_change,0,0,1,,,,,,,,,,,,,64,0,0,,,,
1223280,control_change,160,0,1,,,,,,,,,,,,,64,0,0,,,,
1223280,note_off,0,0,1,,,,,,,,,,,,,,,0,,,79,0
1223280,note_on,168,0,4,,,,,,,,,,,,,,,3,,,55,83
1223280,note_on,0,0,4,,,,,,,,,,,,,,,3,,,52,83
1223280,note_on,0,0,4,,,,,,,,,,,,,,,3,,,48,83
1223295,set_tempo,225,1,0,,,,,,,297029,,,,,,,,,,,,
1223320,control_change,40,0,1,,,,,,,,,,,,,64,127,0,,,,
1223440,note_off,120,0,1,,,,,,,,,,,,,,,0,,,76,0
1223440,note_on,0,0,1,,,,,,,,,,,,,,,0,,,78,70
1223600,note_on,0,0,1,,,,,,,,,,,,,,,0,,,79,68
1223600,note_off,160,0,1,,,,,,,,,,,,,,,0,,,78,0
1223760,control_change,160,0,1,,,,,,,,,,,,,64,0,0,,,,
1223760,note_off,0,0,1,,,,,,,,,,,,,,,0,,,79,0
1223760,note_on,0,0,1,,,,,,,,,,,,,,,0,,,72,67
1223820,control_change,60,0,1,,,,,,,,,,,,,64,127,0,,,,
1223920,note_off,100,0,1,,,,,,,,,,,,,,,0,,,72,0
1223920,note_on,0,0,1,,,,,,,,,,,,,,,0,,,74,65
1224080,note_off,160,0,1,,,,,,,,,,,,,,,0,,,74,0
1224080,note_on,0,0,1,,,,,,,,,,,,,,,0,,,76,64
1224240,note_off,0,0,1,,,,,,,,,,,,,,,0,,,76,0
1224240,control_change,160,0,1,,,,,,,,,,,,,64,0,0,,,,
1224240,note_on,0,0,1,,,,,,,,,,,,,,,0,,,69,63
1224240,control_change,0,0,1,,,,,,,,,,,,,64,0,0,,,,
1224300,control_change,60,0,1,,,,,,,,,,,,,64,127,0,,,,
1224300,control_change,0,0,1,,,,,,,,,,,,,64,127,0,,,,
1224400,note_on,0,0,1,,,,,,,,,,,,,,,0,,,71,61
1224400,note_off,100,0,1,,,,,,,,,,,,,,,0,,,69,0
1224552,note_off,0,0,4,,,,,,,,,,,,,,,3,,,52,0
1224552,note_off,0,0,4,,,,,,,,,,,,,,,3,,,48,0
1224552,note_off,1272,0,4,,,,,,,,,,,,,,,3,,,55,0
1224560,note_on,0,0,1,,,,,,,,,,,,,,,0,,,72,60
1224560,note_off,160,0,1,,,,,,,,,,,,,,,0,,,71,0
1224720,note_on,168,0,4,,,,,,,,,,,,,,,3,,,60,64
1224720,note_on,0,0,4,,,,,,,,,,,,,,,3,,,48,64
1224720,control_change,160,0,1,,,,,,,,,,,,,64,0,0,,,,
1224720,note_off,0,0,1,,,,,,,,,,,,,,,0,,,72,0
1224720,note_on,0,0,1,,,,,,,,,,,,,,,0,,,64,58
1224780,control_change,60,0,1,,,,,,,,,,,,,64,127,0,,,,
1224880,note_off,100,0,1,,,,,,,,,,,,,,,0,,,64,0
1224880,note_on,0,0,1,,,,,,,,,,,,,,,0,,,71,57
1225032,note_off,312,0,4,,,,,,,,,,,,,,,3,,,60,0
1225032,note_off,0,0,4,,,,,,,,,,,,,,,3,,,48,0
1225040,note_on,0,0,1,,,,,,,,,,,,,,,0,,,69,55
1225040,note_off,160,0,1,,,,,,,,,,,,,,,0,,,71,0
1225200,note_on,0,0,4,,,,,,,,,,,,,,,3,,,59,60
1225200,note_on,0,0,1,,,,,,,,,,,,,,,0,,,62,54
1225200,note_off,0,0,1,,,,,,,,,,,,,,,0,,,69,0
1225200,control_change,160,0,1,,,,,,,,,,,,,64,0,0,,,,
1225200,note_on,168,0,4,,,,,,,,,,,,,,,3,,,50,60
1225260,control_change,60,0,1,,,,,,,,,,,,,64,127,0,,,,
1225360,note_off,100,0,1,,,,,,,,,,,,,,,0,,,62,0
1225360,note_on,0,0,1,,,,,,,,,,,,,,,0,,,69,53
1225512,note_off,312,0,4,,,,,,,,,,,,,,,3,,,50,0
1225512,note_off,0,0,4,,,,,,,,,,,,,,,3,,,59,0
1225520,note_off,160,0,1,,,,,,,,,,,,,,,0,,,69,0
1225520,note_on,0,0,1,,,,,,,,,,,,,,,0,,,67,51
1225680,note_off,0,0,1,,,,,,,,,,,,,,,0,,,67,0
1225680,note_on,0,0,1,,,,,,,,,,,,,,,0,,,60,50
1225680,note_on,0,0,4,,,,,,,,,,,,,,,3,,,50,57
1225680,note_on,168,0,4,,,,,,,,,,,,,,,3,,,57,57
1225680,control_change,160,0,1,,,,,,,,,,,,,64,0,0,,,,
1225740,control_change,60,0,1,,,,,,,,,,,,,64,127,0,,,,
1225840,note_off,100,0,1,,,,,,,,,,,,,,,0,,,60,0
1225840,note_on,0,0,1,,,,,,,,,,,,,,,0,,,67,48
1225935,set_tempo,2640,1,0,,,,,,,300000,,,,,,,,,,,,
1225992,note_off,312,0,4,,,,,,,,,,,,,,,3,,,57,0
1225992,note_off,0,0,4,,,,,,,,,,,,,,,3,,,50,0
1226000,note_on,0,0,1,,,,,,,,,,,,,,,0,,,66,47
1226000,note_off,160,0,1,,,,,,,,,,,,,,,0,,,67,0
1226160,note_off,0,0,1,,,,,,,,,,,,,,,0,,,66,0
1226160,control_change,160,0,1,,,,,,,,,,,,,64,0,0,,,,
1226160,note_on,0,0,1,,,,,,,,,,,,,,,0,,,67,44
1226175,set_tempo,240,1,0,,,,,,,297029,,,,,,,,,,,,
1226220,control_change,60,0,1,,,,,,,,,,,,,64,127,0,,,,
1226320,note_on,0,0,1,,,,,,,,,,,,,,,0,,,79,42
1226320,note_off,100,0,1,,,,,,,,,,,,,,,0,,,67,0
1226480,note_on,0,0,1,,,,,,,,,,,,,,,0,,,67,43
1226480,note_off,160,0,1,,,,,,,,,,,,,,,0,,,79,0
1226640,note_on,0,0,1,,,,,,,,,,,,,,,0,,,79,43
1226640,note_off,160,0,1,,,,,,,,,,,,,,,0,,,67,0
1226640,note_on,648,0,4,,,,,,,,,,,,,,,3,,,55,46
1226640,note_on,0,0,4,,,,,,,,,,,,,,,3,,,50,46
1226640,note_on,0,0,4,,,,,,,,,,,,,,,3,,,47,46
1226800,note_off,160,0,1,,,,,,,,,,,,,,,0,,,79,0
1226800,note_on,0,0,1,,,,,,,,,,,,,,,0,,,67,43
1226952,note_off,0,0,4,,,,,,,,,,,,,,,3,,,47,0
1226952,note_off,0,0,4,,,,,,,,,,,,,,,3,,,50,0
1226952,note_off,312,0,4,,,,,,,,,,,,,,,3,,,55,0
1226960,note_on,0,0,1,,,,,,,,,,,,,,,0,,,79,44
1226960,note_off,160,0,1,,,,,,,,,,,,,,,0,,,67,0
1227120,note_on,0,0,4,,,,,,,,,,,,,,,3,,,46,48
1227120,note_on,168,0,4,,,,,,,,,,,,,,,3,,,55,48
1227120,note_on,0,0,4,,,,,,,,,,,,,,,3,,,49,48
1227120,note_on,0,0,1,,,,,,,,,,,,,,,0,,,67,44
1227120,note_off,160,0,1,,,,,,,,,,,,,,,0,,,79,0
1227280,note_on,0,0,1,,,,,,,,,,,,,,,0,,,79,44
1227280,note_off,160,0,1,,,,,,,,,,,,,,,0,,,67,0
1227432,note_off,0,0,4,,,,,,,,,,,,,,,3,,,49,0
1227432,note_off,0,0,4,,,,,,,,,,,,,,,3,,,46,0
1227432,note_off,312,0,4,,,,,,,,,,,,,,,3,,,55,0
1227440,note_off,160,0,1,,,,,,,,,,,,,,,0,,,79,0
1227440,note_on,0,0,1,,,,,,,,,,,,,,,0,,,67,45
1227600,note_on,0,0,4,,,,,,,,,,,,,,,3,,,50,50
1227600,note_off,160,0,1,,,,,,,,,,,,,,,0,,,67,0
1227600,note_on,168,0,4,,,,,,,,,,,,,,,3,,,55,50
1227600,note_on,0,0,1,,,,,,,,,,,,,,,0,,,79,45
1227600,note_on,0,0,4,,,,,,,,,,,,,,,3,,,47,50
1227760,note_off,160,0,1,,,,,,,,,,,,,,,0,,,79,0
1227760,note_on,0,0,1,,,,,,,,,,,,,,,0,,,67,46
1227912,note_off,312,0,4,,,,,,,,,,,,,,,3,,,55,0
1227912,note_off,0,0,4,,,,,,,,,,,,,,,3,,,50,0
1227912,note_off,0,0,4,,,,,,,,,,,,,,,3,,,47,0
1227920,note_on,0,0,1,,,,,,,,,,,,,,,0,,,79,46
1227920,note_off,160,0,1,,,,,,,,,,,,,,,0,,,67,0
1228080,note_on,0,0,4,,,,,,,,,,,,,,,3,,,46,52
1228080,note_off,160,0,1,,,,,,,,,,,,,,,0,,,79,0
1228080,note_on,0,0,1,,,,,,,,,,,,,,,0,,,67,46
1228080,note_on,0,0,4,,,,,,,,,,,,,,,3,,,49,52
1228080,note_on,168,0,4,,,,,,,,,,,,,,,3,,,55,52
1228240,note_on,0,0,1,,,,,,,,,,,,,,,0,,,79,47
1228240,note_off,160,0,1,,,,,,,,,,,,,,,0,,,67,0
1228392,note_off,0,0,4,,,,,,,,,,,,,,,3,,,46,0
1228392,note_off,312,0,4,,,,,,,,,,,,,,,3,,,55,0
1228392,note_off,0,0,4,,,,,,,,,,,,,,,3,,,49,0
1228400,note_off,160,0,1,,,,,,,,,,,,,,,0,,,79,0
1228400,note_on,0,0,1,,,,,,,,,,,,,,,0,,,67,47
1228560,note_on,0,0,1,,,,,,,,,,,,,,,0,,,79,48
1228560,note_off,160,0,1,,,,,,,,,,,,,,,0,,,67,0
1228560,note_on,0,0,4,,,,,,,,,,,,,,,3,,,47,54
1228560,note_on,168,0,4,,,,,,,,,,,,,,,3,,,55,54
1228560,note_on,0,0,4,,,,,,,,,,,,,,,3,,,50,54
1228720,note_on,0,0,1,,,,,,,,,,,,,,,0,,,67,48
1228720,note_off,160,0,1,,,,,,,,,,,,,,,0,,,79,0
1228872,note_off,0,0,4,,,,,,,,,,,,,,,3,,,47,0
1228872,note_off,0,0,4,,,,,,,,,,,,,,,3,,,50,0
1228872,note_off,312,0,4,,,,,,,,,,,,,,,3,,,55,0
1228880,note_on,0,0,1,,,,,,,,,,,,,,,0,,,79,48
1228880,note_off,160,0,1,,,,,,,,,,,,,,,0,,,67,0
1229040,note_on,168,0,4,,,,,,,,,,,,,,,3,,,46,56
1229040,note_on,0,0,4,,,,,,,,,,,,,,,3,,,55,56
1229040,note_on,0,0,4,,,,,,,,,,,,,,,3,,,49,56
1229040,note_on,0,0,1,,,,,,,,,,,,,,,0,,,67,49
1229040,note_off,160,0,1,,,,,,,,,,,,,,,0,,,79,0
1229200,note_on,0,0,1,,,,,,,,,,,,,,,0,,,79,49
1229200,note_off,160,0,1,,,,,,,,,,,,,,,0,,,67,0
1229352,note_off,312,0,4,,,,,,,,,,,,,,,3,,,46,0
1229352,note_off,0,0,4,,,,,,,,,,,,,,,3,,,55,0
1229352,note_off,0,0,4,,,,,,,,,,,,,,,3,,,49,0
1229360,note_on,0,0,1,,,,,,,,,,,,,,,0,,,67,49
1229360,note_off,160,0,1,,,,,,,,,,,,,,,0,,,79,0
1229520,note_off,160,0,1,,,,,,,,,,,,,,,0,,,67,0
1229520,note_on,0,0,1,,,,,,,,,,,,,,,0,,,79,50
1229520,note_on,168,0,4,,,,,,,,,,,,,,,3,,,47,58
1229520,note_on,0,0,4,,,,,,,,,,,,,,,3,,,55,58
1229520,note_on,0,0,4,,,,,,,,,,,,,,,3,,,50,58
1229680,note_off,160,0,1,,,,,,,,,,,,,,,0,,,79,0
1229680,note_on,0,0,1,,,,,,,,,,,,,,,0,,,67,50
1229832,note_off,0,0,4,,,,,,,,,,,,,,,3,,,55,0
1229832,note_off,312,0,4,,,,,,,,,,,,,,,3,,,47,0
1229832,note_off,0,0,4,,,,,,,,,,,,,,,3,,,50,0
1229840,note_off,160,0,1,,,,,,,,,,,,,,,0,,,67,0
1229840,note_on,0,0,1,,,,,,,,,,,,,,,0,,,79,51
1230000,note_on,168,0,4,,,,,,,,,,,,,,,3,,,55,60
1230000,note_on,0,0,1,,,,,,,,,,,,,,,0,,,67,51
1230000,note_off,160,0,1,,,,,,,,,,,,,,,0,,,79,0
1230000,note_on,0,0,4,,,,,,,,,,,,,,,3,,,46,60
1230000,note_on,0,0,4,,,,,,,,,,,,,,,3,,,49,60
1230160,note_on,0,0,1,,,,,,,,,,,,,,,0,,,79,51
1230160,note_off,160,0,1,,,,,,,,,,,,,,,0,,,67,0
1230312,note_off,312,0,4,,,,,,,,,,,,,,,3,,,55,0
1230312,note_off,0,0,4,,,,,,,,,,,,,,,3,,,46,0
1230312,note_off,0,0,4,,,,,,,,,,,,,,,3,,,49,0
1230320,note_on,0,0,1,,,,,,,,,,,,,,,0,,,67,52
1230320,note_off,160,0,1,,,,,,,,,,,,,,,0,,,79,0
1230480,note_off,160,0,1,,,,,,,,,,,,,,,0,,,67,0
1230480,note_on,168,0,4,,,,,,,,,,,,,,,3,,,47,63
1230480,note_on,0,0,1,,,,,,,,,,,,,,,0,,,79,52
1230480,note_on,0,0,4,,,,,,,,,,,,,,,3,,,50,63
1230480,note_on,0,0,4,,,,,,,,,,,,,,,3,,,55,63
1230640,note_on,0,0,1,,,,,,,,,,,,,,,0,,,67,53
1230640,note_off,160,0,1,,,,,,,,,,,,,,,0,,,79,0
1230735,set_tempo,4560,1,0,,,,,,,300000,,,,,,,,,,,,
1230792,note_off,0,0,4,,,,,,,,,,,,,,,3,,,55,0
1230792,note_off,312,0,4,,,,,,,,,,,,,,,3,,,47,0
1230792,note_off,0,0,4,,,,,,,,,,,,,,,3,,,50,0
1230800,note_on,0,0,1,,,,,,,,,,,,,,,0,,,79,53
1230800,note_off,160,0,1,,,,,,,,,,,,,,,0,,,67,0
1230960,note_on,168,0,4,,,,,,,,,,,,,,,3,,,59,73
1230960,note_on,0,0,4,,,,,,,,,,,,,,,3,,,53,73
1230960,note_on,0,0,4,,,,,,,,,,,,,,,3,,,50,73
1230960,note_on,0,0,1,,,,,,,,,,,,,,,0,,,67,63
1230960,note_off,160,0,1,,,,,,,,,,,,,,,0,,,79,0
1230975,set_tempo,240,1,0,,,,,,,297029,,,,,,,,,,,,
1231120,note_on,0,0,1,,,,,,,,,,,,,,,0,,,79,62
1231120,note_off,160,0,1,,,,,,,,,,,,,,,0,,,67,0
1231280,note_on,0,0,1,,,,,,,,,,,,,,,0,,,67,61
1231280,note_off,160,0,1,,,,,,,,,,,,,,,0,,,79,0
1231440,note_off,160,0,1,,,,,,,,,,,,,,,0,,,67,0
1231440,note_on,0,0,1,,,,,,,,,,,,,,,0,,,79,60
1231600,note_on,0,0,1,,,,,,,,,,,,,,,0,,,67,59
1231600,note_off,160,0,1,,,,,,,,,,,,,,,0,,,79,0
1231760,note_on,0,0,1,,,,,,,,,,,,,,,0,,,79,57
1231760,note_off,160,0,1,,,,,,,,,,,,,,,0,,,67,0
1231920,note_off,160,0,1,,,,,,,,,,,,,,,0,,,79,0
1231920,note_on,0,0,1,,,,,,,,,,,,,,,0,,,67,56
1232080,note_off,160,0,1,,,,,,,,,,,,,,,0,,,67,0
1232080,note_on,0,0,1,,,,,,,,,,,,,,,0,,,79,56
1232240,note_on,0,0,1,,,,,,,,,,,,,,,0,,,67,56
1232240,note_off,160,0,1,,,,,,,,,,,,,,,0,,,79,0
1232250,note_off,1290,0,4,,,,,,,,,,,,,,,3,,,50,0
1232265,note_off,15,0,4,,,,,,,,,,,,,,,3,,,59,0
1232265,note_off,0,0,4,,,,,,,,,,,,,,,3,,,53,0
1232400,note_on,135,0,4,,,,,,,,,,,,,,,3,,,50,65
1232400,note_on,0,0,4,,,,,,,,,,,,,,,3,,,55,65
1232400,note_on,0,0,4,,,,,,,,,,,,,,,3,,,47,65
1232400,note_on,0,0,1,,,,,,,,,,,,,,,0,,,79,57
1232400,note_off,160,0,1,,,,,,,,,,,,,,,0,,,67,0
1232560,note_on,0,0,1,,,,,,,,,,,,,,,0,,,67,57
1232560,note_off,160,0,1,,,,,,,,,,,,,,,0,,,79,0
1232640,set_tempo,1665,1,0,,,,,,,300000,,,,,,,,,,,,
1232712,note_off,312,0,4,,,,,,,,,,,,,,,3,,,50,0
1232712,note_off,0,0,4,,,,,,,,,,,,,,,3,,,55,0
1232712,note_off,0,0,4,,,,,,,,,,,,,,,3,,,47,0
1232720,note_on,0,0,1,,,,,,,,,,,,,,,0,,,79,57
1232720,note_off,160,0,1,,,,,,,,,,,,,,,0,,,67,0
1232880,note_off,160,0,1,,,,,,,,,,,,,,,0,,,79,0
1232880,note_on,0,0,1,,,,,,,,,,,,,,,0,,,67,58
1232880,note_on,168,0,4,,,,,,,,,,,,,,,3,,,59,78
1232880,note_on,0,0,4,,,,,,,,,,,,,,,3,,,55,78
1232880,note_on,0,0,4,,,,,,,,,,,,,,,3,,,52,78
1232895,set_tempo,255,1,0,,,,,,,297029,,,,,,,,,,,,
1233040,note_off,160,0,1,,,,,,,,,,,,,,,0,,,67,0
1233040,note_on,0,0,1,,,,,,,,,,,,,,,0,,,79,66
1233200,note_off,160,0,1,,,,,,,,,,,,,,,0,,,79,0
1233200,note_on,0,0,1,,,,,,,,,,,,,,,0,,,67,65
1233360,note_off,160,0,1,,,,,,,,,,,,,,,0,,,67,0
1233360,note_on,0,0,1,,,,,,,,,,,,,,,0,,,79,64
1233520,note_on,0,0,1,,,,,,,,,,,,,,,0,,,67,62
1233520,note_off,160,0,1,,,,,,,,,,,,,,,0,,,79,0
1233680,note_on,0,0,1,,,,,,,,,,,,,,,0,,,79,61
1233680,note_off,160,0,1,,,,,,,,,,,,,,,0,,,67,0
1233840,note_off,160,0,1,,,,,,,,,,,,,,,0,,,79,0
1233840,note_on,0,0,1,,,,,,,,,,,,,,,0,,,67,60
1234000,note_off,160,0,1,,,,,,,,,,,,,,,0,,,67,0
1234000,note_on,0,0,1,,,,,,,,,,,,,,,0,,,79,61
1234160,note_off,160,0,1,,,,,,,,,,,,,,,0,,,79,0
1234160,note_on,0,0,1,,,,,,,,,,,,,,,0,,,67,61
1234170,note_off,1290,0,4,,,,,,,,,,,,,,,3,,,52,0
1234200,note_off,30,0,4,,,,,,,,,,,,,,,3,,,55,0
1234215,note_off,15,0,4,,,,,,,,,,,,,,,3,,,59,0
1234320,note_on,0,0,4,,,,,,,,,,,,,,,3,,,58,70
1234320,note_on,105,0,4,,,,,,,,,,,,,,,3,,,49,70
1234320,note_on,0,0,1,,,,,,,,,,,,,,,0,,,79,61
1234320,note_on,0,0,4,,,,,,,,,,,,,,,3,,,52,70
1234320,note_off,160,0,1,,,,,,,,,,,,,,,0,,,67,0
1234480,note_off,160,0,1,,,,,,,,,,,,,,,0,,,79,0
1234480,note_on,0,0,1,,,,,,,,,,,,,,,0,,,67,62
1234530,set_tempo,1635,1,0,,,,,,,300000,,,,,,,,,,,,
1234632,note_off,0,0,4,,,,,,,,,,,,,,,3,,,52,0
1234632,note_off,0,0,4,,,,,,,,,,,,,,,3,,,58,0
1234632,note_off,312,0,4,,,,,,,,,,,,,,,3,,,49,0
1234640,note_on,0,0,1,,,,,,,,,,,,,,,0,,,79,62
1234640,note_off,160,0,1,,,,,,,,,,,,,,,0,,,67,0
1234800,note_off,160,0,1,,,,,,,,,,,,,,,0,,,79,0
1234800,note_on,0,0,1,,,,,,,,,,,,,,,0,,,67,71
1234800,note_on,0,0,4,,,,,,,,,,,,,,,3,,,52,82
1234800,note_on,0,0,4,,,,,,,,,,,,,,,3,,,58,82
1234800,note_on,168,0,4,,,,,,,,,,,,,,,3,,,61,82
1234815,set_tempo,285,1,0,,,,,,,297029,,,,,,,,,,,,
1234960,note_off,160,0,1,,,,,,,,,,,,,,,0,,,67,0
1234960,note_on,0,0,1,,,,,,,,,,,,,,,0,,,79,71
1235120,note_on,0,0,1,,,,,,,,,,,,,,,0,,,67,70
1235120,note_off,160,0,1,,,,,,,,,,,,,,,0,,,79,0
1235280,note_on,0,0,1,,,,,,,,,,,,,,,0,,,79,69
1235280,note_off,160,0,1,,,,,,,,,,,,,,,0,,,67,0
1235440,note_on,0,0,1,,,,,,,,,,,,,,,0,,,67,68
1235440,note_off,160,0,1,,,,,,,,,,,,,,,0,,,79,0
1235600,note_off,160,0,1,,,,,,,,,,,,,,,0,,,67,0
1235600,note_on,0,0,1,,,,,,,,,,,,,,,0,,,79,67
1235760,note_on,0,0,1,,,,,,,,,,,,,,,0,,,67,68
1235760,note_off,160,0,1,,,,,,,,,,,,,,,0,,,79,0
1235920,note_on,0,0,1,,,,,,,,,,,,,,,0,,,79,68
1235920,note_off,160,0,1,,,,,,,,,,,,,,,0,,,67,0
1236015,set_tempo,1200,1,0,,,,,,,300000,,,,,,,,,,,,
1236080,note_on,0,0,1,,,,,,,,,,,,,,,0,,,67,68
1236080,note_off,160,0,1,,,,,,,,,,,,,,,0,,,79,0
1236105,note_off,1305,0,4,,,,,,,,,,,,,,,3,,,52,0
1236120,note_off,15,0,4,,,,,,,,,,,,,,,3,,,61,0
1236135,note_off,15,0,4,,,,,,,,,,,,,,,3,,,58,0
1236240,note_on,105,0,4,,,,,,,,,,,,,,,3,,,61,80
1236240,note_on,0,0,4,,,,,,,,,,,,,,,3,,,52,80
1236240,note_on,0,0,4,,,,,,,,,,,,,,,3,,,58,80
1236240,note_on,0,0,1,,,,,,,,,,,,,,,0,,,79,68
1236240,note_off,160,0,1,,,,,,,,,,,,,,,0,,,67,0
1236255,set_tempo,240,1,0,,,,,,,297029,,,,,,,,,,,,
1236400,note_on,0,0,1,,,,,,,,,,,,,,,0,,,67,69
1236400,note_off,160,0,1,,,,,,,,,,,,,,,0,,,79,0
1236560,note_off,160,0,1,,,,,,,,,,,,,,,0,,,67,0
1236560,note_on,0,0,1,,,,,,,,,,,,,,,0,,,79,69
1236720,note_off,160,0,1,,,,,,,,,,,,,,,0,,,79,0
1236720,note_on,0,0,1,,,,,,,,,,,,,,,0,,,67,69
1236880,note_off,160,0,1,,,,,,,,,,,,,,,0,,,67,0
1236880,note_on,0,0,1,,,,,,,,,,,,,,,0,,,79,70
1237040,note_off,160,0,1,,,,,,,,,,,,,,,0,,,79,0
1237040,note_on,0,0,1,,,,,,,,,,,,,,,0,,,67,70
1237095,note_off,855,0,4,,,,,,,,,,,,,,,3,,,52,0
1237095,note_off,0,0,4,,,,,,,,,,,,,,,3,,,58,0
1237110,note_off,15,0,4,,,,,,,,,,,,,,,3,,,61,0
1237200,note_on,0,0,4,,,,,,,,,,,,,,,3,,,61,77
1237200,note_on,90,0,4,,,,,,,,,,,,,,,3,,,52,77
1237200,note_off,160,0,1,,,,,,,,,,,,,,,0,,,67,0
1237200,note_on,0,0,4,,,,,,,,,,,,,,,3,,,58,77
1237200,note_on,0,0,1,,,,,,,,,,,,,,,0,,,79,70
1237360,note_on,0,0,1,,,,,,,,,,,,,,,0,,,67,71
1237360,note_off,160,0,1,,,,,,,,,,,,,,,0,,,79,0
1237440,set_tempo,1185,1,0,,,,,,,300000,,,,,,,,,,,,
1237512,note_off,0,0,4,,,,,,,,,,,,,,,3,,,61,0
1237512,note_off,0,0,4,,,,,,,,,,,,,,,3,,,58,0
1237512,note_off,312,0,4,,,,,,,,,,,,,,,3,,,52,0
1237520,note_off,160,0,1,,,,,,,,,,,,,,,0,,,67,0
1237520,note_on,0,0,1,,,,,,,,,,,,,,,0,,,79,71
1237680,control_change,0,0,3,,,,,,,,,,,,,64,0,2,,,,
1237680,note_off,160,0,1,,,,,,,,,,,,,,,0,,,79,0
1237680,note_on,0,0,1,,,,,,,,,,,,,,,0,,,67,71
1237680,note_on,168,0,4,,,,,,,,,,,,,,,3,,,50,78
1237680,control_change,42240,0,3,,,,,,,,,,,,,64,0,2,,,,
1237695,set_tempo,255,1,0,,,,,,,297029,,,,,,,,,,,,
1237740,control_change,60,0,3,,,,,,,,,,,,,64,127,2,,,,
1237840,note_on,0,0,1,,,,,,,,,,,,,,,0,,,79,71
1237840,note_off,160,0,1,,,,,,,,,,,,,,,0,,,67,0
1237840,note_on,100,0,3,,,,,,,,,,,,,,,2,,,59,68
1238000,note_off,160,0,1,,,,,,,,,,,,,,,0,,,79,0
1238000,note_off,160,0,3,,,,,,,,,,,,,,,2,,,59,0
1238000,note_on,0,0,3,,,,,,,,,,,,,,,2,,,62,69
1238000,note_on,0,0,1,,,,,,,,,,,,,,,0,,,67,72
1238160,note_off,160,0,1,,,,,,,,,,,,,,,0,,,67,0
1238160,note_on,0,0,1,,,,,,,,,,,,,,,0,,,79,72
1238160,control_change,160,0,3,,,,,,,,,,,,,64,0,2,,,,
1238160,note_off,0,0,3,,,,,,,,,,,,,,,2,,,62,0
1238160,note_on,0,0,4,,,,,,,,,,,,,,,3,,,52,69
1238160,note_off,480,0,4,,,,,,,,,,,,,,,3,,,50,0
1238220,control_change,60,0,3,,,,,,,,,,,,,64,127,2,,,,
1238320,note_off,160,0,1,,,,,,,,,,,,,,,0,,,79,0
1238320,note_on,100,0,3,,,,,,,,,,,,,,,2,,,58,69
1238320,note_on,0,0,1,,,,,,,,,,,,,,,0,,,67,72
1238480,note_on,0,0,3,,,,,,,,,,,,,,,2,,,61,70
1238480,note_off,160,0,3,,,,,,,,,,,,,,,2,,,58,0
1238480,note_on,0,0,1,,,,,,,,,,,,,,,0,,,79,73
1238480,note_off,160,0,1,,,,,,,,,,,,,,,0,,,67,0
1238640,note_off,0,0,3,,,,,,,,,,,,,,,2,,,61,0
1238640,control_change,160,0,3,,,,,,,,,,,,,64,0,2,,,,
1238640,note_off,480,0,4,,,,,,,,,,,,,,,3,,,52,0
1238640,note_on,0,0,4,,,,,,,,,,,,,,,3,,,50,70
1238640,note_on,0,0,1,,,,,,,,,,,,,,,0,,,67,73
1238640,note_off,160,0,1,,,,,,,,,,,,,,,0,,,79,0
1238700,control_change,60,0,3,,,,,,,,,,,,,64,127,2,,,,
1238800,note_off,160,0,1,,,,,,,,,,,,,,,0,,,67,0
1238800,note_on,0,0,1,,,,,,,,,,,,,,,0,,,79,73
1238800,note_on,100,0,3,,,,,,,,,,,,,,,2,,,59,71
1238960,note_off,160,0,1,,,,,,,,,,,,,,,0,,,79,0
1238960,note_on,0,0,1,,,,,,,,,,,,,,,0,,,67,72
1238960,note_off,160,0,3,,,,,,,,,,,,,,,2,,,59,0
1238960,note_on,0,0,3,,,,,,,,,,,,,,,2,,,62,71
1239120,note_off,0,0,3,,,,,,,,,,,,,,,2,,,62,0
1239120,control_change,160,0,3,,,,,,,,,,,,,64,0,2,,,,
1239120,note_on,0,0,4,,,,,,,,,,,,,,,3,,,49,71
1239120,note_off,480,0,4,,,,,,,,,,,,,,,3,,,50,0
1239120,note_on,0,0,1,,,,,,,,,,,,,,,0,,,79,73
1239120,note_off,160,0,1,,,,,,,,,,,,,,,0,,,67,0
1239180,control_change,60,0,3,,,,,,,,,,,,,64,127,2,,,,
1239280,note_off,160,0,1,,,,,,,,,,,,,,,0,,,79,0
1239280,note_on,0,0,1,,,,,,,,,,,,,,,0,,,67,73
1239280,note_on,100,0,3,,,,,,,,,,,,,,,2,,,58,72
1239440,note_on,0,0,3,,,,,,,,,,,,,,,2,,,61,72
1239440,note_off,160,0,3,,,,,,,,,,,,,,,2,,,58,0
1239440,note_off,160,0,1,,,,,,,,,,,,,,,0,,,67,0
1239440,note_on,0,0,1,,,,,,,,,,,,,,,0,,,79,74
1239600,note_on,0,0,4,,,,,,,,,,,,,,,3,,,50,72
1239600,note_off,0,0,3,,,,,,,,,,,,,,,2,,,61,0
1239600,control_change,160,0,3,,,,,,,,,,,,,64,0,2,,,,
1239600,note_on,0,0,1,,,,,,,,,,,,,,,0,,,67,74
1239600,note_off,160,0,1,,,,,,,,,,,,,,,0,,,79,0
1239600,note_off,480,0,4,,,,,,,,,,,,,,,3,,,49,0
1239660,control_change,60,0,3,,,,,,,,,,,,,64,127,2,,,,
1239760,note_off,160,0,1,,,,,,,,,,,,,,,0,,,67,0
1239760,note_on,0,0,1,,,,,,,,,,,,,,,0,,,79,74
1239760,note_on,100,0,3,,,,,,,,,,,,,,,2,,,59,73
1239920,note_off,160,0,1,,,,,,,,,,,,,,,0,,,79,0
1239920,note_on,0,0,1,,,,,,,,,,,,,,,0,,,67,75
1239920,note_off,160,0,3,,,,,,,,,,,,,,,2,,,59,0
1239920,note_on,0,0,3,,,,,,,,,,,,,,,2,,,62,73
1240080,note_off,0,0,3,,,,,,,,,,,,,,,2,,,62,0
1240080,control_change,160,0,1,,,,,,,,,,,,,64,0,0,,,,
1240080,note_off,0,0,1,,,,,,,,,,,,,,,0,,,67,0
1240080,note_on,0,0,1,,,,,,,,,,,,,,,0,,,79,81
1240080,note_on,0,0,4,,,,,,,,,,,,,,,3,,,40,87
1240080,control_change,160,0,3,,,,,,,,,,,,,64,0,2,,,,
1240080,note_off,480,0,4,,,,,,,,,,,,,,,3,,,50,0
1240140,control_change,60,0,1,,,,,,,,,,,,,64,127,0,,,,
1240240,note_on,0,0,1,,,,,,,,,,,,,,,0,,,73,81
1240240,note_off,100,0,1,,,,,,,,,,,,,,,0,,,79,0
1240400,note_off,160,0,1,,,,,,,,,,,,,,,0,,,73,0
1240400,note_on,0,0,1,,,,,,,,,,,,,,,0,,,70,80
1240560,note_off,480,0,4,,,,,,,,,,,,,,,3,,,40,0
1240560,note_off,0,0,1,,,,,,,,,,,,,,,0,,,70,0
1240560,note_on,0,0,1,,,,,,,,,,,,,,,0,,,79,79
1240560,note_on,0,0,4,,,,,,,,,,,,,,,3,,,38,83
1240560,control_change,160,0,1,,,,,,,,,,,,,64,0,0,,,,
1240620,control_change,60,0,1,,,,,,,,,,,,,64,127,0,,,,
1240720,note_on,0,0,1,,,,,,,,,,,,,,,0,,,74,79
1240720,note_off,100,0,1,,,,,,,,,,,,,,,0,,,79,0
1240880,note_off,160,0,1,,,,,,,,,,,,,,,0,,,74,0
1240880,note_on,0,0,1,,,,,,,,,,,,,,,0,,,71,78
1241040,note_off,0,0,1,,,,,,,,,,,,,,,0,,,71,0
1241040,note_on,0,0,4,,,,,,,,,,,,,,,3,,,37,78
1241040,note_on,0,0,1,,,,,,,,,,,,,,,0,,,79,77
1241040,note_off,480,0,4,,,,,,,,,,,,,,,3,,,38,0
1241040,control_change,160,0,1,,,,,,,,,,,,,64,0,0,,,,
1241100,control_change,60,0,1,,,,,,,,,,,,,64,127,0,,,,
1241200,note_on,0,0,1,,,,,,,,,,,,,,,0,,,76,76
1241200,note_off,100,0,1,,,,,,,,,,,,,,,0,,,79,0
1241360,note_on,0,0,1,,,,,,,,,,,,,,,0,,,70,76
1241360,note_off,160,0,1,,,,,,,,,,,,,,,0,,,76,0
1241520,control_change,160,0,1,,,,,,,,,,,,,64,0,0,,,,
1241520,note_off,0,0,1,,,,,,,,,,,,,,,0,,,70,0
1241520,note_on,0,0,1,,,,,,,,,,,,,,,0,,,79,75
1241520,note_on,0,0,4,,,,,,,,,,,,,,,3,,,38,74
1241520,control_change,1440,0,3,,,,,,,,,,,,,64,0,2,,,,
1241520,note_off,480,0,4,,,,,,,,,,,,,,,3,,,37,0
1241580,control_change,60,0,3,,,,,,,,,,,,,64,127,2,,,,
1241580,control_change,60,0,1,,,,,,,,,,,,,64,127,0,,,,
1241680,note_off,100,0,1,,,,,,,,,,,,,,,0,,,79,0
1241680,note_on,0,0,1,,,,,,,,,,,,,,,0,,,74,74
1241760,set_tempo,4065,1,0,,,,,,,300000,,,,,,,,,,,,
1241840,note_on,0,0,1,,,,,,,,,,,,,,,0,,,71,74
1241840,note_off,160,0,1,,,,,,,,,,,,,,,0,,,74,0
1242000,control_change,420,0,3,,,,,,,,,,,,,64,0,2,,,,
1242000,note_off,480,0,4,,,,,,,,,,,,,,,3,,,38,0
1242000,control_change,160,0,1,,,,,,,,,,,,,64,0,0,,,,
1242000,note_off,0,0,1,,,,,,,,,,,,,,,0,,,71,0
1242000,note_on,0,0,1,,,,,,,,,,,,,,,0,,,79,77
1242000,note_on,0,0,4,,,,,,,,,,,,,,,3,,,52,70
1242015,set_tempo,255,1,0,,,,,,,297029,,,,,,,,,,,,
1242060,control_change,60,0,1,,,,,,,,,,,,,64,127,0,,,,
1242060,control_change,60,0,3,,,,,,,,,,,,,64,127,2,,,,
1242160,note_off,100,0,1,,,,,,,,,,,,,,,0,,,79,0
1242160,note_on,0,0,1,,,,,,,,,,,,,,,0,,,67,72
1242160,note_on,100,0,3,,,,,,,,,,,,,,,2,,,58,56
1242320,note_off,160,0,3,,,,,,,,,,,,,,,2,,,58,0
1242320,note_on,0,0,3,,,,,,,,,,,,,,,2,,,61,56
1242320,note_on,0,0,1,,,,,,,,,,,,,,,0,,,79,68
1242320,note_off,160,0,1,,,,,,,,,,,,,,,0,,,67,0
1242480,note_on,0,0,4,,,,,,,,,,,,,,,3,,,50,56
1242480,note_off,480,0,4,,,,,,,,,,,,,,,3,,,52,0
1242480,note_off,0,0,3,,,,,,,,,,,,,,,2,,,61,0
1242480,note_on,0,0,1,,,,,,,,,,,,,,,0,,,67,64
1242480,note_off,160,0,1,,,,,,,,,,,,,,,0,,,79,0
1242480,control_change,160,0,3,,,,,,,,,,,,,64,0,2,,,,
1242540,control_change,60,0,3,,,,,,,,,,,,,64,127,2,,,,
1242640,note_off,160,0,1,,,,,,,,,,,,,,,0,,,67,0
1242640,note_on,100,0,3,,,,,,,,,,,,,,,2,,,59,55
1242640,note_on,0,0,1,,,,,,,,,,,,,,,0,,,79,60
1242800,note_off,160,0,3,,,,,,,,,,,,,,,2,,,59,0
1242800,note_on,0,0,1,,,,,,,,,,,,,,,0,,,67,60
1242800,note_on,0,0,3,,,,,,,,,,,,,,,2,,,62,55
1242800,note_off,160,0,1,,,,,,,,,,,,,,,0,,,79,0
1242960,note_off,0,0,3,,,,,,,,,,,,,,,2,,,62,0
1242960,note_off,160,0,1,,,,,,,,,,,,,,,0,,,67,0
1242960,note_on,0,0,1,,,,,,,,,,,,,,,0,,,79,59
1242960,control_change,160,0,3,,,,,,,,,,,,,64,0,2,,,,
1242960,note_off,480,0,4,,,,,,,,,,,,,,,3,,,50,0
1242960,note_on,0,0,4,,,,,,,,,,,,,,,3,,,49,55
1243020,control_change,60,0,3,,,,,,,,,,,,,64,127,2,,,,
1243120,note_on,100,0,3,,,,,,,,,,,,,,,2,,,58,54
1243120,note_off,160,0,1,,,,,,,,,,,,,,,0,,,79,0
1243120,note_on,0,0,1,,,,,,,,,,,,,,,0,,,67,59
1243280,note_off,160,0,3,,,,,,,,,,,,,,,2,,,58,0
1243280,note_on,0,0,3,,,,,,,,,,,,,,,2,,,61,54
1243280,note_off,160,0,1,,,,,,,,,,,,,,,0,,,67,0
1243280,note_on,0,0,1,,,,,,,,,,,,,,,0,,,79,59
1243440,note_off,160,0,3,,,,,,,,,,,,,,,2,,,61,0
1243440,note_off,480,0,4,,,,,,,,,,,,,,,3,,,49,0
1243440,note_on,0,0,4,,,,,,,,,,,,,,,3,,,50,54
1243440,note_off,160,0,1,,,,,,,,,,,,,,,0,,,79,0
1243440,note_on,0,0,1,,,,,,,,,,,,,,,0,,,67,58
1243600,note_off,160,0,1,,,,,,,,,,,,,,,0,,,67,0
1243600,note_on,0,0,1,,,,,,,,,,,,,,,0,,,79,58
1243600,note_on,160,0,3,,,,,,,,,,,,,,,2,,,59,53
1243760,note_on,0,0,3,,,,,,,,,,,,,,,2,,,62,53
1243760,note_off,160,0,3,,,,,,,,,,,,,,,2,,,59,0
1243760,note_off,160,0,1,,,,,,,,,,,,,,,0,,,79,0
1243760,note_on,0,0,1,,,,,,,,,,,,,,,0,,,67,73
1243920,control_change,160,0,3,,,,,,,,,,,,,64,0,2,,,,
1243920,control_change,160,0,1,,,,,,,,,,,,,64,0,0,,,,
1243920,note_on,0,0,4,,,,,,,,,,,,,,,3,,,40,68
1243920,note_on,0,0,1,,,,,,,,,,,,,,,0,,,79,66
1243920,note_off,0,0,1,,,,,,,,,,,,,,,0,,,67,0
1243920,note_off,480,0,4,,,,,,,,,,,,,,,3,,,50,0
1243920,note_off,0,0,3,,,,,,,,,,,,,,,2,,,62,0
1243980,control_change,60,0,1,,,,,,,,,,,,,64,127,0,,,,
1244080,note_off,100,0,1,,,,,,,,,,,,,,,0,,,79,0
1244080,note_on,0,0,1,,,,,,,,,,,,,,,0,,,73,58
1244240,note_off,160,0,1,,,,,,,,,,,,,,,0,,,73,0
1244240,note_on,0,0,1,,,,,,,,,,,,,,,0,,,70,57
1244400,note_on,0,0,4,,,,,,,,,,,,,,,3,,,38,60
1244400,note_off,0,0,1,,,,,,,,,,,,,,,0,,,70,0
1244400,note_on,0,0,1,,,,,,,,,,,,,,,0,,,79,56
1244400,control_change,160,0,1,,,,,,,,,,,,,64,0,0,,,,
1244400,note_off,480,0,4,,,,,,,,,,,,,,,3,,,40,0
1244460,control_change,60,0,1,,,,,,,,,,,,,64,127,0,,,,
1244560,note_on,0,0,1,,,,,,,,,,,,,,,0,,,74,56
1244560,note_off,100,0,1,,,,,,,,,,,,,,,0,,,79,0
1244720,note_off,160,0,1,,,,,,,,,,,,,,,0,,,74,0
1244720,note_on,0,0,1,,,,,,,,,,,,,,,0,,,71,56
1244880,note_on,0,0,1,,,,,,,,,,,,,,,0,,,79,55
1244880,control_change,160,0,1,,,,,,,,,,,,,64,0,0,,,,
1244880,note_off,0,0,1,,,,,,,,,,,,,,,0,,,71,0
1244880,note_off,480,0,4,,,,,,,,,,,,,,,3,,,38,0
1244880,note_on,0,0,4,,,,,,,,,,,,,,,3,,,37,50
1244940,control_change,60,0,1,,,,,,,,,,,,,64,127,0,,,,
1245040,note_off,100,0,1,,,,,,,,,,,,,,,0,,,79,0
1245040,note_on,0,0,1,,,,,,,,,,,,,,,0,,,76,55
1245200,note_on,0,0,1,,,,,,,,,,,,,,,0,,,70,55
1245200,note_off,160,0,1,,,,,,,,,,,,,,,0,,,76,0
1245360,control_change,160,0,1,,,,,,,,,,,,,64,0,0,,,,
1245360,note_on,0,0,4,,,,,,,,,,,,,,,3,,,38,49
1245360,note_off,0,0,1,,,,,,,,,,,,,,,0,,,70,0
1245360,note_off,480,0,4,,,,,,,,,,,,,,,3,,,37,0
1245360,note_on,0,0,1,,,,,,,,,,,,,,,0,,,79,54
1245420,control_change,60,0,1,,,,,,,,,,,,,64,127,0,,,,
1245520,note_on,0,0,1,,,,,,,,,,,,,,,0,,,74,54
1245520,note_off,100,0,1,,,,,,,,,,,,,,,0,,,79,0
1245680,note_on,0,0,1,,,,,,,,,,,,,,,0,,,71,54
1245680,note_off,160,0,1,,,,,,,,,,,,,,,0,,,74,0
1245840,control_change,160,0,1,,,,,,,,,,,,,64,0,0,,,,
1245840,note_off,480,0,4,,,,,,,,,,,,,,,3,,,38,0
1245840,note_on,0,0,1,,,,,,,,,,,,,,,0,,,79,61
1245840,note_on,0,0,4,,,,,,,,,,,,,,,3,,,40,58
1245840,note_off,0,0,1,,,,,,,,,,,,,,,0,,,71,0
1245900,control_change,60,0,1,,,,,,,,,,,,,64,127,0,,,,
1246000,note_off,100,0,1,,,,,,,,,,,,,,,0,,,79,0
1246000,note_on,0,0,1,,,,,,,,,,,,,,,0,,,73,58
1246160,note_off,160,0,1,,,,,,,,,,,,,,,0,,,73,0
1246160,note_on,0,0,1,,,,,,,,,,,,,,,0,,,70,56
1246320,note_off,0,0,1,,,,,,,,,,,,,,,0,,,70,0
1246320,control_change,160,0,1,,,,,,,,,,,,,64,0,0,,,,
1246320,note_on,0,0,1,,,,,,,,,,,,,,,0,,,79,54
1246320,note_on,0,0,4,,,,,,,,,,,,,,,3,,,38,53
1246320,note_off,480,0,4,,,,,,,,,,,,,,,3,,,40,0
1246380,control_change,60,0,1,,,,,,,,,,,,,64,127,0,,,,
1246480,note_on,0,0,1,,,,,,,,,,,,,,,0,,,74,52
1246480,note_off,100,0,1,,,,,,,,,,,,,,,0,,,79,0
1246640,note_off,160,0,1,,,,,,,,,,,,,,,0,,,74,0
1246640,note_on,0,0,1,,,,,,,,,,,,,,,0,,,71,52
1246800,control_change,160,0,1,,,,,,,,,,,,,64,0,0,,,,
1246800,note_off,0,0,1,,,,,,,,,,,,,,,0,,,71,0
1246800,note_on,0,0,1,,,,,,,,,,,,,,,0,,,79,51
1246800,note_on,0,0,4,,,,,,,,,,,,,,,3,,,37,46
1246800,note_off,480,0,4,,,,,,,,,,,,,,,3,,,38,0
1246860,control_change,60,0,1,,,,,,,,,,,,,64,127,0,,,,
1246960,note_on,0,0,1,,,,,,,,,,,,,,,0,,,76,51
1246960,note_off,100,0,1,,,,,,,,,,,,,,,0,,,79,0
1247120,set_tempo,5105,1,0,,,,,,,298507,,,,,,,,,,,,
1247120,note_on,0,0,1,,,,,,,,,,,,,,,0,,,70,50
1247120,note_off,160,0,1,,,,,,,,,,,,,,,0,,,76,0
1247280,note_off,480,0,4,,,,,,,,,,,,,,,3,,,37,0
1247280,note_on,0,0,4,,,,,,,,,,,,,,,3,,,38,45
1247280,note_on,0,0,1,,,,,,,,,,,,,,,0,,,79,50
1247280,note_off,0,0,1,,,,,,,,,,,,,,,0,,,70,0
1247280,control_change,160,0,1,,,,,,,,,,,,,64,0,0,,,,
1247340,control_change,60,0,1,,,,,,,,,,,,,64,127,0,,,,
1247440,note_off,100,0,1,,,,,,,,,,,,,,,0,,,79,0
1247440,note_on,0,0,1,,,,,,,,,,,,,,,0,,,74,50
1247600,note_off,160,0,1,,,,,,,,,,,,,,,0,,,74,0
1247600,note_on,0,0,1,,,,,,,,,,,,,,,0,,,71,49
1247760,note_off,480,0,4,,,,,,,,,,,,,,,3,,,38,0
1247760,note_on,0,0,4,,,,,,,,,,,,,,,3,,,37,57
1247760,note_on,0,0,1,,,,,,,,,,,,,,,0,,,79,57
1247760,note_off,0,0,1,,,,,,,,,,,,,,,0,,,71,0
1247760,control_change,160,0,1,,,,,,,,,,,,,64,0,0,,,,
1247820,control_change,60,0,1,,,,,,,,,,,,,64,127,0,,,,
1247920,note_off,100,0,1,,,,,,,,,,,,,,,0,,,79,0
1247920,note_on,0,0,1,,,,,,,,,,,,,,,0,,,76,55
1248080,note_off,160,0,1,,,,,,,,,,,,,,,0,,,76,0
1248080,note_on,0,0,1,,,,,,,,,,,,,,,0,,,70,53
1248240,note_on,0,0,4,,,,,,,,,,,,,,,3,,,38,46
1248240,note_off,480,0,4,,,,,,,,,,,,,,,3,,,37,0
1248240,control_change,160,0,1,,,,,,,,,,,,,64,0,0,,,,
1248240,note_on,0,0,1,,,,,,,,,,,,,,,0,,,79,52
1248240,note_off,0,0,1,,,,,,,,,,,,,,,0,,,70,0
1248300,control_change,60,0,1,,,,,,,,,,,,,64,127,0,,,,
1248400,note_on,0,0,1,,,,,,,,,,,,,,,0,,,74,51
1248400,note_off,100,0,1,,,,,,,,,,,,,,,0,,,79,0
1248560,note_off,160,0,1,,,,,,,,,,,,,,,0,,,74,0
1248560,set_tempo,1440,1,0,,,,,,,301507,,,,,,,,,,,,
1248560,note_on,0,0,1,,,,,,,,,,,,,,,0,,,71,50
1248720,set_tempo,160,1,0,,,,,,,304568,,,,,,,,,,,,
1248720,control_change,160,0,1,,,,,,,,,,,,,64,0,0,,,,
1248720,note_off,480,0,4,,,,,,,,,,,,,,,3,,,38,0
1248720,note_on,0,0,4,,,,,,,,,,,,,,,3,,,37,42
1248720,note_off,0,0,1,,,,,,,,,,,,,,,0,,,71,0
1248720,note_on,0,0,1,,,,,,,,,,,,,,,0,,,79,49
1248780,control_change,60,0,1,,,,,,,,,,,,,64,127,0,,,,
1248880,note_on,0,0,1,,,,,,,,,,,,,,,0,,,76,48
1248880,note_off,100,0,1,,,,,,,,,,,,,,,0,,,79,0
1248880,set_tempo,160,1,0,,,,,,,312500,,,,,,,,,,,,
1249040,note_on,0,0,1,,,,,,,,,,,,,,,0,,,70,46
1249040,note_off,160,0,1,,,,,,,,,,,,,,,0,,,76,0
1249040,set_tempo,160,1,0,,,,,,,327868,,,,,,,,,,,,
1249200,note_on,0,0,2,,,,,,,,,,,,,,,1,,,71,62
1249200,note_on,53820,0,2,,,,,,,,,,,,,,,1,,,74,62
1249200,note_off,0,0,1,,,,,,,,,,,,,,,0,,,70,0
1249200,control_change,160,0,1,,,,,,,,,,,,,64,0,0,,,,
1249200,note_on,0,0,1,,,,,,,,,,,,,,,0,,,79,62
1249200,note_on,0,0,4,,,,,,,,,,,,,,,3,,,50,70
1249200,note_off,480,0,4,,,,,,,,,,,,,,,3,,,37,0
1249200,set_tempo,160,1,0,,,,,,,301507,,,,,,,,,,,,
1249200,note_on,0,0,4,,,,,,,,,,,,,,,3,,,38,70
1249680,note_off,480,0,2,,,,,,,,,,,,,,,1,,,74,0
1249680,note_off,480,0,1,,,,,,,,,,,,,,,0,,,79,0
1249680,note_off,0,0,2,,,,,,,,,,,,,,,1,,,71,0
1250160,note_on,480,0,1,,,,,,,,,,,,,,,0,,,67,59
1250160,set_tempo,960,1,0,,,,,,,300000,,,,,,,,,,,,
1250640,note_on,0,0,1,,,,,,,,,,,,,,,0,,,66,58
1250640,note_off,480,0,1,,,,,,,,,,,,,,,0,,,67,0
1251120,note_off,480,0,1,,,,,,,,,,,,,,,0,,,66,0
1251120,note_on,0,0,1,,,,,,,,,,,,,,,0,,,65,58
1251600,note_on,0,0,1,,,,,,,,,,,,,,,0,,,64,57
1251600,note_off,480,0,1,,,,,,,,,,,,,,,0,,,65,0
1251840,note_on,240,0,1,,,,,,,,,,,,,,,0,,,55,57
1251912,note_off,72,0,1,,,,,,,,,,,,,,,0,,,64,0
1251996,note_off,84,0,1,,,,,,,,,,,,,,,0,,,55,0
1252080,note_on,0,0,1,,,,,,,,,,,,,,,0,,,60,56
1252080,note_on,84,0,1,,,,,,,,,,,,,,,0,,,63,56
1252392,note_off,0,0,1,,,,,,,,,,,,,,,0,,,60,0
1252392,note_off,312,0,1,,,,,,,,,,,,,,,0,,,63,0
1252560,note_on,168,0,1,,,,,,,,,,,,,,,0,,,63,59
1252560,note_on,0,0,1,,,,,,,,,,,,,,,0,,,60,59
1252872,note_off,0,0,1,,,,,,,,,,,,,,,0,,,60,0
1252872,note_off,312,0,1,,,,,,,,,,,,,,,0,,,63,0
1252980,set_tempo,2820,1,0,,,,,,,301507,,,,,,,,,,,,
1253040,set_tempo,60,1,0,,,,,,,300000,,,,,,,,,,,,
1253040,note_on,0,0,1,,,,,,,,,,,,,,,0,,,60,68
1253040,note_on,168,0,1,,,,,,,,,,,,,,,0,,,63,68
1253520,note_off,480,0,1,,,,,,,,,,,,,,,0,,,63,0
1253520,note_off,0,0,1,,,,,,,,,,,,,,,0,,,60,0
1253520,note_on,0,0,1,,,,,,,,,,,,,,,0,,,62,59
1253520,note_on,0,0,1,,,,,,,,,,,,,,,0,,,59,59
1253760,note_on,4560,0,4,,,,,,,,,,,,,,,3,,,52,55
1253832,note_off,312,0,1,,,,,,,,,,,,,,,0,,,62,0
1253832,note_off,0,0,1,,,,,,,,,,,,,,,0,,,59,0
1253916,note_off,156,0,4,,,,,,,,,,,,,,,3,,,52,0
1254000,note_on,84,0,4,,,,,,,,,,,,,,,3,,,57,55
1254000,note_on,168,0,1,,,,,,,,,,,,,,,0,,,61,55
1254312,note_off,312,0,4,,,,,,,,,,,,,,,3,,,57,0
1254480,note_on,168,0,4,,,,,,,,,,,,,,,3,,,57,59
1254480,note_on,480,0,1,,,,,,,,,,,,,,,0,,,60,55
1254495,note_off,15,0,1,,,,,,,,,,,,,,,0,,,61,0
1254792,note_off,312,0,4,,,,,,,,,,,,,,,3,,,57,0
1254915,set_tempo,1875,1,0,,,,,,,301507,,,,,,,,,,,,
1254960,set_tempo,45,1,0,,,,,,,300000,,,,,,,,,,,,
1254960,note_on,0,0,4,,,,,,,,,,,,,,,3,,,59,63
1254960,note_on,168,0,4,,,,,,,,,,,,,,,3,,,57,63
1254975,note_off,480,0,1,,,,,,,,,,,,,,,0,,,60,0
1255425,set_tempo,465,1,0,,,,,,,301507,,,,,,,,,,,,
1255440,note_off,0,0,4,,,,,,,,,,,,,,,3,,,59,0
1255440,note_off,480,0,4,,,,,,,,,,,,,,,3,,,57,0
1255440,note_on,0,0,4,,,,,,,,,,,,,,,3,,,55,54
1255680,note_off,240,0,4,,,,,,,,,,,,,,,3,,,55,0
1255905,set_tempo,480,1,0,,,,,,,300000,,,,,,,,,,,,
1255920,note_on,240,0,4,,,,,,,,,,,,,,,3,,,55,53
1256400,note_on,480,0,4,,,,,,,,,,,,,,,3,,,54,53
1256415,note_off,15,0,4,,,,,,,,,,,,,,,3,,,55,0
1256880,note_on,465,0,4,,,,,,,,,,,,,,,3,,,53,52
1256910,note_off,30,0,4,,,,,,,,,,,,,,,3,,,54,0
1257360,note_on,450,0,4,,,,,,,,,,,,,,,3,,,52,52
1257375,note_off,15,0,4,,,,,,,,,,,,,,,3,,,53,0
1257600,note_on,2625,0,1,,,,,,,,,,,,,,,0,,,67,52
1257672,note_off,297,0,4,,,,,,,,,,,,,,,3,,,52,0
1257756,note_off,156,0,1,,,,,,,,,,,,,,,0,,,67,0
1257840,note_on,168,0,4,,,,,,,,,,,,,,,3,,,51,51
1257840,note_on,84,0,1,,,,,,,,,,,,,,,0,,,72,51
1258152,note_off,312,0,4,,,,,,,,,,,,,,,3,,,51,0
1258152,note_off,312,0,1,,,,,,,,,,,,,,,0,,,72,0
1258320,note_on,168,0,4,,,,,,,,,,,,,,,3,,,51,52
1258320,note_on,168,0,1,,,,,,,,,,,,,,,0,,,72,52
1258632,note_off,312,0,4,,,,,,,,,,,,,,,3,,,51,0
1258632,note_off,312,0,1,,,,,,,,,,,,,,,0,,,72,0
1258755,set_tempo,2850,1,0,,,,,,,301507,,,,,,,,,,,,
1258800,note_off,168,0,4,,,,,,,,,,,,,,,3,,,50,0
1258800,note_on,168,0,1,,,,,,,,,,,,,,,0,,,72,64
1258800,set_tempo,45,1,0,,,,,,,300000,,,,,,,,,,,,
1258800,note_on,0,0,4,,,,,,,,,,,,,,,3,,,51,60
1259280,note_on,0,0,4,,,,,,,,,,,,,,,3,,,50,50
1259280,note_off,480,0,4,,,,,,,,,,,,,,,3,,,51,0
1259280,note_on,0,0,1,,,,,,,,,,,,,,,0,,,71,50
1259280,note_off,480,0,1,,,,,,,,,,,,,,,0,,,72,0
1259436,note_off,156,0,1,,,,,,,,,,,,,,,0,,,71,0
1259520,note_on,84,0,1,,,,,,,,,,,,,,,0,,,64,50
1259592,note_off,312,0,4,,,,,,,,,,,,,,,3,,,50,0
1259676,note_off,156,0,1,,,,,,,,,,,,,,,0,,,64,0
1259760,note_on,168,0,4,,,,,,,,,,,,,,,3,,,49,50
1259760,note_on,84,0,1,,,,,,,,,,,,,,,0,,,69,50
1260072,note_off,312,0,1,,,,,,,,,,,,,,,0,,,69,0
1260240,note_on,480,0,4,,,,,,,,,,,,,,,3,,,48,51
1260240,note_on,168,0,1,,,,,,,,,,,,,,,0,,,69,53
1260255,note_off,15,0,4,,,,,,,,,,,,,,,3,,,49,0
1260552,note_off,312,0,1,,,,,,,,,,,,,,,0,,,69,0
1260675,set_tempo,1875,1,0,,,,,,,301507,,,,,,,,,,,,
1260705,note_off,450,0,4,,,,,,,,,,,,,,,3,,,48,0
1260720,note_on,168,0,1,,,,,,,,,,,,,,,0,,,69,62
1260720,note_on,15,0,4,,,,,,,,,,,,,,,3,,,48,58
1260720,set_tempo,45,1,0,,,,,,,300000,,,,,,,,,,,,
1261185,set_tempo,465,1,0,,,,,,,304568,,,,,,,,,,,,
1261200,note_off,480,0,4,,,,,,,,,,,,,,,3,,,48,0
1261200,note_on,0,0,4,,,,,,,,,,,,,,,3,,,47,48
1261200,note_on,480,0,1,,,,,,,,,,,,,,,0,,,67,48
1261215,note_off,15,0,1,,,,,,,,,,,,,,,0,,,69,0
1261356,note_off,141,0,1,,,,,,,,,,,,,,,0,,,67,0
1261512,note_off,312,0,4,,,,,,,,,,,,,,,3,,,47,0
1261680,set_tempo,495,1,0,,,,,,,300000,,,,,,,,,,,,
1261680,note_on,168,0,4,,,,,,,,,,,,,,,3,,,46,48
1261680,note_on,324,0,1,,,,,,,,,,,,,,,0,,,86,48
1261680,note_on,12000,0,2,,,,,,,,,,,,,,,1,,,74,48
1262160,note_off,480,0,4,,,,,,,,,,,,,,,3,,,46,0
1262160,note_on,0,0,1,,,,,,,,,,,,,,,0,,,85,49
1262160,note_off,480,0,1,,,,,,,,,,,,,,,0,,,86,0
1262160,note_off,480,0,2,,,,,,,,,,,,,,,1,,,74,0
1262160,note_on,0,0,2,,,,,,,,,,,,,,,1,,,73,49
1262160,note_on,0,0,4,,,,,,,,,,,,,,,3,,,45,49
1262640,note_on,0,0,4,,,,,,,,,,,,,,,3,,,44,50
1262640,control_change,480,0,4,,,,,,,,,,,,,64,0,3,,,,
1262640,note_off,0,0,4,,,,,,,,,,,,,,,3,,,38,0
1262640,note_on,0,0,1,,,,,,,,,,,,,,,0,,,84,50
1262640,note_off,480,0,1,,,,,,,,,,,,,,,0,,,85,0
1262640,note_on,0,0,2,,,,,,,,,,,,,,,1,,,72,50
1262640,note_off,480,0,2,,,,,,,,,,,,,,,1,,,73,0
1262655,note_off,15,0,4,,,,,,,,,,,,,,,3,,,45,0
1263105,note_off,450,0,4,,,,,,,,,,,,,,,3,,,44,0
1263120,note_on,480,0,2,,,,,,,,,,,,,,,1,,,71,52
1263120,note_on,480,0,1,,,,,,,,,,,,,,,0,,,83,52
1263120,note_on,15,0,4,,,,,,,,,,,,,,,3,,,43,52
1263135,note_off,15,0,2,,,,,,,,,,,,,,,1,,,72,0
1263135,note_off,15,0,1,,,,,,,,,,,,,,,0,,,84,0
1263276,note_off,156,0,4,,,,,,,,,,,,,,,3,,,43,0
1263360,note_on,84,0,4,,,,,,,,,,,,,,,3,,,50,52
1263360,note_on,0,0,4,,,,,,,,,,,,,,,3,,,38,52
1263432,note_off,297,0,2,,,,,,,,,,,,,,,1,,,71,0
1263432,note_off,297,0,1,,,,,,,,,,,,,,,0,,,83,0
1263516,note_off,0,0,4,,,,,,,,,,,,,,,3,,,38,0
1263516,note_off,156,0,4,,,,,,,,,,,,,,,3,,,50,0
1263600,note_on,0,0,4,,,,,,,,,,,,,,,3,,,55,53
1263600,note_on,168,0,1,,,,,,,,,,,,,,,0,,,82,53
1263600,note_on,168,0,2,,,,,,,,,,,,,,,1,,,70,53
1263600,note_on,84,0,4,,,,,,,,,,,,,,,3,,,43,53
1263840,note_off,240,0,4,,,,,,,,,,,,,,,3,,,43,0
1263840,note_off,0,0,4,,,,,,,,,,,,,,,3,,,55,0
1263912,note_off,312,0,2,,,,,,,,,,,,,,,1,,,70,0
1263912,note_off,312,0,1,,,,,,,,,,,,,,,0,,,82,0
1264080,note_on,168,0,2,,,,,,,,,,,,,,,1,,,70,54
1264080,note_on,168,0,1,,,,,,,,,,,,,,,0,,,82,57
1264080,note_on,240,0,4,,,,,,,,,,,,,,,3,,,55,54
1264320,note_off,240,0,4,,,,,,,,,,,,,,,3,,,55,0
1264392,note_off,312,0,2,,,,,,,,,,,,,,,1,,,70,0
1264392,note_off,312,0,1,,,,,,,,,,,,,,,0,,,82,0
1264485,set_tempo,2805,1,0,,,,,,,301507,,,,,,,,,,,,
1264560,note_on,240,0,4,,,,,,,,,,,,,,,3,,,55,70
1264560,note_on,168,0,1,,,,,,,,,,,,,,,0,,,82,62
1264560,set_tempo,75,1,0,,,,,,,300000,,,,,,,,,,,,
1264560,note_on,0,0,4,,,,,,,,,,,,,,,3,,,61,70
1264560,note_on,168,0,2,,,,,,,,,,,,,,,1,,,70,62
1265040,note_off,480,0,1,,,,,,,,,,,,,,,0,,,82,0
1265040,note_on,0,0,1,,,,,,,,,,,,,,,0,,,80,57
1265040,note_on,0,0,4,,,,,,,,,,,,,,,3,,,62,57
1265040,note_on,0,0,4,,,,,,,,,,,,,,,3,,,54,57
1265040,note_off,480,0,2,,,,,,,,,,,,,,,1,,,70,0
1265040,note_on,0,0,2,,,,,,,,,,,,,,,1,,,68,57
1265040,note_off,480,0,4,,,,,,,,,,,,,,,3,,,61,0
1265055,note_off,15,0,4,,,,,,,,,,,,,,,3,,,55,0
1265196,note_off,141,0,4,,,,,,,,,,,,,,,3,,,62,0
1265196,note_off,156,0,2,,,,,,,,,,,,,,,1,,,68,0
1265196,note_off,156,0,1,,,,,,,,,,,,,,,0,,,80,0
1265220,note_off,24,0,4,,,,,,,,,,,,,,,3,,,54,0
1265280,note_on,60,0,4,,,,,,,,,,,,,,,3,,,47,58
1265280,note_on,84,0,1,,,,,,,,,,,,,,,0,,,74,58
1265436,note_off,156,0,1,,,,,,,,,,,,,,,0,,,74,0
1265445,note_off,165,0,4,,,,,,,,,,,,,,,3,,,47,0
1265520,note_on,84,0,1,,,,,,,,,,,,,,,0,,,79,58
1265520,note_on,324,0,2,,,,,,,,,,,,,,,1,,,67,58
1265520,note_on,75,0,4,,,,,,,,,,,,,,,3,,,52,58
1265760,note_off,240,0,4,,,,,,,,,,,,,,,3,,,52,0
1265832,note_off,312,0,2,,,,,,,,,,,,,,,1,,,67,0
1265832,note_off,312,0,1,,,,,,,,,,,,,,,0,,,79,0
1266000,note_on,240,0,4,,,,,,,,,,,,,,,3,,,52,60
1266000,note_on,168,0,1,,,,,,,,,,,,,,,0,,,79,61
1266000,note_on,168,0,2,,,,,,,,,,,,,,,1,,,67,60
1266240,note_off,240,0,4,,,,,,,,,,,,,,,3,,,52,0
1266312,note_off,312,0,2,,,,,,,,,,,,,,,1,,,67,0
1266312,note_off,312,0,1,,,,,,,,,,,,,,,0,,,79,0
1266420,set_tempo,1860,1,0,,,,,,,301507,,,,,,,,,,,,
1266480,note_on,240,0,4,,,,,,,,,,,,,,,3,,,52,72
1266480,note_on,168,0,2,,,,,,,,,,,,,,,1,,,67,72
1266480,note_on,0,0,4,,,,,,,,,,,,,,,3,,,58,72
1266480,note_on,168,0,1,,,,,,,,,,,,,,,0,,,79,72
1266480,set_tempo,60,1,0,,,,,,,300000,,,,,,,,,,,,
1266960,note_off,480,0,4,,,,,,,,,,,,,,,3,,,52,0
1266960,note_off,0,0,4,,,,,,,,,,,,,,,3,,,58,0
1266960,note_on,0,0,4,,,,,,,,,,,,,,,3,,,50,62
1266960,note_on,0,0,4,,,,,,,,,,,,,,,3,,,59,62
1266960,note_on,480,0,1,,,,,,,,,,,,,,,0,,,77,62
1266960,note_on,480,0,2,,,,,,,,,,,,,,,1,,,65,62
1266975,note_off,15,0,2,,,,,,,,,,,,,,,1,,,67,0
1266975,note_off,15,0,1,,,,,,,,,,,,,,,0,,,79,0
1267116,note_off,141,0,1,,,,,,,,,,,,,,,0,,,77,0
1267116,note_off,141,0,2,,,,,,,,,,,,,,,1,,,65,0
1267200,note_on,84,0,1,,,,,,,,,,,,,,,0,,,83,63
1267200,note_on,0,0,4,,,,,,,,,,,,,,,3,,,43,63
1267200,note_off,0,0,4,,,,,,,,,,,,,,,3,,,59,0
1267200,note_off,240,0,4,,,,,,,,,,,,,,,3,,,50,0
1267200,note_on,84,0,2,,,,,,,,,,,,,,,1,,,71,63
1267356,note_off,156,0,2,,,,,,,,,,,,,,,1,,,71,0
1267356,note_off,156,0,1,,,,,,,,,,,,,,,0,,,83,0
1267380,note_off,180,0,4,,,,,,,,,,,,,,,3,,,43,0
1267440,note_on,84,0,1,,,,,,,,,,,,,,,0,,,84,62
1267440,note_on,60,0,4,,,,,,,,,,,,,,,3,,,48,63
1267440,note_on,84,0,2,,,,,,,,,,,,,,,1,,,72,63
1267680,note_off,240,0,4,,,,,,,,,,,,,,,3,,,48,0
1267752,note_off,312,0,2,,,,,,,,,,,,,,,1,,,72,0
1267752,note_off,312,0,1,,,,,,,,,,,,,,,0,,,84,0
1267920,note_on,168,0,2,,,,,,,,,,,,,,,1,,,72,65
1267920,note_on,240,0,4,,,,,,,,,,,,,,,3,,,36,65
1267920,note_on,0,0,4,,,,,,,,,,,,,,,3,,,48,65
1267920,note_on,168,0,1,,,,,,,,,,,,,,,0,,,84,67
1268160,note_off,240,0,4,,,,,,,,,,,,,,,3,,,36,0
1268160,note_off,0,0,4,,,,,,,,,,,,,,,3,,,48,0
1268232,note_off,312,0,1,,,,,,,,,,,,,,,0,,,84,0
1268232,note_off,312,0,2,,,,,,,,,,,,,,,1,,,72,0
1268355,set_tempo,1875,1,0,,,,,,,301507,,,,,,,,,,,,
1268400,note_on,240,0,4,,,,,,,,,,,,,,,3,,,41,76
1268400,note_on,0,0,4,,,,,,,,,,,,,,,3,,,48,76
1268400,note_on,168,0,2,,,,,,,,,,,,,,,1,,,72,77
1268400,set_tempo,45,1,0,,,,,,,300000,,,,,,,,,,,,
1268400,note_on,168,0,1,,,,,,,,,,,,,,,0,,,84,77
1268865,note_off,465,0,4,,,,,,,,,,,,,,,3,,,41,0
1268865,note_off,0,0,4,,,,,,,,,,,,,,,3,,,48,0
1268880,note_on,15,0,4,,,,,,,,,,,,,,,3,,,47,67
1268880,note_off,480,0,1,,,,,,,,,,,,,,,0,,,84,0
1268880,note_on,0,0,1,,,,,,,,,,,,,,,0,,,83,70
1268880,note_on,0,0,4,,,,,,,,,,,,,,,3,,,43,67
1268880,note_on,0,0,2,,,,,,,,,,,,,,,1,,,71,70
1268880,note_off,480,0,2,,,,,,,,,,,,,,,1,,,72,0
1269036,note_off,156,0,1,,,,,,,,,,,,,,,0,,,83,0
1269036,note_off,156,0,2,,,,,,,,,,,,,,,1,,,71,0
1269120,note_off,240,0,4,,,,,,,,,,,,,,,3,,,47,0
1269120,note_on,0,0,4,,,,,,,,,,,,,,,3,,,40,68
1269120,note_on,84,0,1,,,,,,,,,,,,,,,0,,,79,68
1269120,note_off,0,0,4,,,,,,,,,,,,,,,3,,,43,0
1269120,note_on,84,0,2,,,,,,,,,,,,,,,1,,,67,68
1269276,note_off,156,0,1,,,,,,,,,,,,,,,0,,,79,0
1269276,note_off,156,0,2,,,,,,,,,,,,,,,1,,,67,0
1269360,note_on,0,0,4,,,,,,,,,,,,,,,3,,,45,69
1269360,note_on,84,0,2,,,,,,,,,,,,,,,1,,,69,69
1269360,note_on,84,0,1,,,,,,,,,,,,,,,0,,,81,69
1269360,note_off,240,0,4,,,,,,,,,,,,,,,3,,,40,0
1269600,note_off,240,0,4,,,,,,,,,,,,,,,3,,,45,0
1269672,note_off,312,0,2,,,,,,,,,,,,,,,1,,,69,0
1269672,note_off,312,0,1,,,,,,,,,,,,,,,0,,,81,0
1269840,note_on,168,0,2,,,,,,,,,,,,,,,1,,,69,70
1269840,note_on,168,0,1,,,,,,,,,,,,,,,0,,,81,70
1269840,note_on,240,0,4,,,,,,,,,,,,,,,3,,,41,70
1269840,note_on,0,0,4,,,,,,,,,,,,,,,3,,,45,70
1269990,set_tempo,1590,1,0,,,,,,,304568,,,,,,,,,,,,
1270080,note_off,240,0,4,,,,,,,,,,,,,,,3,,,41,0
1270080,note_off,0,0,4,,,,,,,,,,,,,,,3,,,45,0
1270152,note_off,312,0,2,,,,,,,,,,,,,,,1,,,69,0
1270152,note_off,312,0,1,,,,,,,,,,,,,,,0,,,81,0
1270320,control_change,26400,0,3,,,,,,,,,,,,,64,0,2,,,,
1270320,note_on,240,0,4,,,,,,,,,,,,,,,3,,,38,44
1270320,note_on,168,0,1,,,,,,,,,,,,,,,0,,,81,85
1270320,note_on,168,0,2,,,,,,,,,,,,,,,1,,,69,85
1270320,set_tempo,330,1,0,,,,,,,300000,,,,,,,,,,,,
1270380,control_change,60,0,3,,,,,,,,,,,,,64,127,2,,,,
1270480,note_on,100,0,3,,,,,,,,,,,,,,,2,,,45,38
1270640,note_on,0,0,3,,,,,,,,,,,,,,,2,,,50,38
1270640,note_off,160,0,3,,,,,,,,,,,,,,,2,,,45,0
1270800,note_on,0,0,3,,,,,,,,,,,,,,,2,,,54,38
1270800,note_off,160,0,3,,,,,,,,,,,,,,,2,,,50,0
1270960,note_off,160,0,3,,,,,,,,,,,,,,,2,,,54,0
1270960,note_on,0,0,3,,,,,,,,,,,,,,,2,,,50,38
1271120,note_off,160,0,3,,,,,,,,,,,,,,,2,,,50,0
1271120,note_on,0,0,3,,,,,,,,,,,,,,,2,,,45,38
1271160,note_off,840,0,1,,,,,,,,,,,,,,,0,,,81,0
1271160,note_on,840,0,2,,,,,,,,,,,,,,,1,,,62,48
1271190,note_off,30,0,2,,,,,,,,,,,,,,,1,,,69,0
1271238,note_off,48,0,2,,,,,,,,,,,,,,,1,,,62,0
1271265,note_off,945,0,4,,,,,,,,,,,,,,,3,,,38,0
1271280,note_on,42,0,2,,,,,,,,,,,,,,,1,,,72,49
1271280,note_on,15,0,4,,,,,,,,,,,,,,,3,,,38,45
1271280,note_off,0,0,3,,,,,,,,,,,,,,,2,,,45,0
1271280,control_change,160,0,3,,,,,,,,,,,,,64,0,2,,,,
1271340,control_change,60,0,3,,,,,,,,,,,,,64,127,2,,,,
1271440,note_on,100,0,3,,,,,,,,,,,,,,,2,,,45,38
1271592,note_off,312,0,2,,,,,,,,,,,,,,,1,,,72,0
1271600,note_on,0,0,3,,,,,,,,,,,,,,,2,,,50,38
1271600,note_off,160,0,3,,,,,,,,,,,,,,,2,,,45,0
1271760,note_off,160,0,3,,,,,,,,,,,,,,,2,,,50,0
1271760,note_on,168,0,2,,,,,,,,,,,,,,,1,,,72,52
1271760,note_on,0,0,3,,,,,,,,,,,,,,,2,,,54,38
1271920,note_off,160,0,3,,,,,,,,,,,,,,,2,,,54,0
1271920,note_on,0,0,3,,,,,,,,,,,,,,,2,,,50,38
1272072,note_off,312,0,2,,,,,,,,,,,,,,,1,,,72,0
1272080,note_off,160,0,3,,,,,,,,,,,,,,,2,,,50,0
1272080,note_on,0,0,3,,,,,,,,,,,,,,,2,,,45,38
1272180,set_tempo,1860,1,0,,,,,,,301507,,,,,,,,,,,,
1272240,note_on,168,0,2,,,,,,,,,,,,,,,1,,,72,58
1272240,note_on,0,0,4,,,,,,,,,,,,,,,3,,,38,46
1272240,set_tempo,60,1,0,,,,,,,300000,,,,,,,,,,,,
1272240,control_change,160,0,3,,,,,,,,,,,,,64,0,2,,,,
1272240,note_off,0,0,3,,,,,,,,,,,,,,,2,,,45,0
1272240,note_off,960,0,4,,,,,,,,,,,,,,,3,,,38,0
1272300,control_change,60,0,3,,,,,,,,,,,,,64,127,2,,,,
1272400,note_on,100,0,3,,,,,,,,,,,,,,,2,,,45,38
1272560,note_off,160,0,3,,,,,,,,,,,,,,,2,,,45,0
1272560,note_on,0,0,3,,,,,,,,,,,,,,,2,,,50,38
1272720,note_off,160,0,3,,,,,,,,,,,,,,,2,,,50,0
1272720,note_on,0,0,3,,,,,,,,,,,,,,,2,,,54,38
1272880,note_on,0,0,3,,,,,,,,,,,,,,,2,,,50,38
1272880,note_off,160,0,3,,,,,,,,,,,,,,,2,,,54,0
1273040,note_off,160,0,3,,,,,,,,,,,,,,,2,,,50,0
1273040,note_on,0,0,3,,,,,,,,,,,,,,,2,,,45,38
1273080,note_on,1920,0,1,,,,,,,,,,,,,,,0,,,74,49
1273158,note_off,78,0,1,,,,,,,,,,,,,,,0,,,74,0
1273200,note_on,0,0,4,,,,,,,,,,,,,,,3,,,38,47
1273200,note_off,960,0,4,,,,,,,,,,,,,,,3,,,38,0
1273200,control_change,160,0,3,,,,,,,,,,,,,64,0,2,,,,
1273200,note_off,0,0,3,,,,,,,,,,,,,,,2,,,45,0
1273200,note_on,42,0,1,,,,,,,,,,,,,,,0,,,84,49
1273260,control_change,60,0,3,,,,,,,,,,,,,64,127,2,,,,
1273360,note_on,100,0,3,,,,,,,,,,,,,,,2,,,45,38
1273512,note_off,312,0,1,,,,,,,,,,,,,,,0,,,84,0
1273520,note_off,160,0,3,,,,,,,,,,,,,,,2,,,45,0
1273520,note_on,0,0,3,,,,,,,,,,,,,,,2,,,50,38
1273680,note_on,168,0,1,,,,,,,,,,,,,,,0,,,84,50
1273680,note_on,0,0,3,,,,,,,,,,,,,,,2,,,54,38
1273680,note_off,160,0,3,,,,,,,,,,,,,,,2,,,50,0
1273840,note_on,0,0,3,,,,,,,,,,,,,,,2,,,50,38
1273840,note_off,160,0,3,,,,,,,,,,,,,,,2,,,54,0
1273992,note_off,312,0,1,,,,,,,,,,,,,,,0,,,84,0
1274000,note_off,160,0,3,,,,,,,,,,,,,,,2,,,50,0
1274000,note_on,0,0,3,,,,,,,,,,,,,,,2,,,45,38
1274100,set_tempo,1860,1,0,,,,,,,301507,,,,,,,,,,,,
1274145,note_off,945,0,4,,,,,,,,,,,,,,,3,,,38,0
1274160,set_tempo,60,1,0,,,,,,,300000,,,,,,,,,,,,
1274160,note_on,15,0,4,,,,,,,,,,,,,,,3,,,38,47
1274160,note_on,168,0,1,,,,,,,,,,,,,,,0,,,84,57
1274160,note_off,0,0,3,,,,,,,,,,,,,,,2,,,45,0
1274160,control_change,160,0,3,,,,,,,,,,,,,64,0,2,,,,
1274220,control_change,60,0,3,,,,,,,,,,,,,64,127,2,,,,
1274320,note_on,100,0,3,,,,,,,,,,,,,,,2,,,45,38
1274480,note_off,160,0,3,,,,,,,,,,,,,,,2,,,45,0
1274480,note_on,0,0,3,,,,,,,,,,,,,,,2,,,50,38
1274640,note_on,0,0,3,,,,,,,,,,,,,,,2,,,54,38
1274640,note_off,160,0,3,,,,,,,,,,,,,,,2,,,50,0
1274800,note_on,0,0,3,,,,,,,,,,,,,,,2,,,50,38
1274800,note_off,160,0,3,,,,,,,,,,,,,,,2,,,54,0
1274960,note_on,0,0,3,,,,,,,,,,,,,,,2,,,45,38
1274960,note_off,160,0,3,,,,,,,,,,,,,,,2,,,50,0
1274985,note_off,825,0,1,,,,,,,,,,,,,,,0,,,84,0
1275000,note_on,0,0,2,,,,,,,,,,,,,,,1,,,62,52
1275000,note_off,2760,0,2,,,,,,,,,,,,,,,1,,,72,0
1275078,note_off,78,0,2,,,,,,,,,,,,,,,1,,,62,0
1275120,note_off,0,0,3,,,,,,,,,,,,,,,2,,,45,0
1275120,note_on,0,0,4,,,,,,,,,,,,,,,3,,,38,48
1275120,note_off,960,0,4,,,,,,,,,,,,,,,3,,,38,0
1275120,control_change,160,0,3,,,,,,,,,,,,,64,0,2,,,,
1275120,note_on,42,0,2,,,,,,,,,,,,,,,1,,,72,53
1275180,control_change,60,0,3,,,,,,,,,,,,,64,127,2,,,,
1275280,note_on,100,0,3,,,,,,,,,,,,,,,2,,,45,38
1275432,note_off,312,0,2,,,,,,,,,,,,,,,1,,,72,0
1275440,note_on,0,0,3,,,,,,,,,,,,,,,2,,,50,38
1275440,note_off,160,0,3,,,,,,,,,,,,,,,2,,,45,0
1275600,note_off,160,0,3,,,,,,,,,,,,,,,2,,,50,0
1275600,note_on,0,0,3,,,,,,,,,,,,,,,2,,,54,38
1275600,note_on,168,0,2,,,,,,,,,,,,,,,1,,,72,56
1275760,note_off,160,0,3,,,,,,,,,,,,,,,2,,,54,0
1275760,note_on,0,0,3,,,,,,,,,,,,,,,2,,,50,38
1275912,note_off,312,0,2,,,,,,,,,,,,,,,1,,,72,0
1275920,note_off,160,0,3,,,,,,,,,,,,,,,2,,,50,0
1275920,note_on,0,0,3,,,,,,,,,,,,,,,2,,,45,38
1276020,set_tempo,1860,1,0,,,,,,,301507,,,,,,,,,,,,
1276080,note_off,0,0,3,,,,,,,,,,,,,,,2,,,45,0
1276080,control_change,960,0,4,,,,,,,,,,,,,64,127,3,,,,
1276080,note_on,0,0,4,,,,,,,,,,,,,,,3,,,38,49
1276080,set_tempo,60,1,0,,,,,,,300000,,,,,,,,,,,,
1276080,note_off,0,0,4,,,,,,,,,,,,,,,3,,,38,0
1276080,control_change,160,0,3,,,,,,,,,,,,,64,0,2,,,,
1276080,note_on,168,0,2,,,,,,,,,,,,,,,1,,,72,62
1276140,control_change,60,0,3,,,,,,,,,,,,,64,127,2,,,,
1276240,note_on,100,0,3,,,,,,,,,,,,,,,2,,,45,38
1276400,note_off,160,0,3,,,,,,,,,,,,,,,2,,,45,0
1276400,note_on,0,0,3,,,,,,,,,,,,,,,2,,,50,38
1276560,note_off,160,0,3,,,,,,,,,,,,,,,2,,,50,0
1276560,note_on,0,0,3,,,,,,,,,,,,,,,2,,,54,38
1276720,note_off,160,0,3,,,,,,,,,,,,,,,2,,,54,0
1276720,note_on,0,0,3,,,,,,,,,,,,,,,2,,,50,38
1276880,note_off,160,0,3,,,,,,,,,,,,,,,2,,,50,0
1276880,note_on,0,0,3,,,,,,,,,,,,,,,2,,,45,38
1276920,note_on,1935,0,1,,,,,,,,,,,,,,,0,,,74,55
1276998,note_off,78,0,1,,,,,,,,,,,,,,,0,,,74,0
1277040,control_change,160,0,3,,,,,,,,,,,,,64,0,2,,,,
1277040,note_off,0,0,3,,,,,,,,,,,,,,,2,,,45,0
1277040,note_on,42,0,1,,,,,,,,,,,,,,,0,,,84,54
1277040,note_off,960,0,4,,,,,,,,,,,,,,,3,,,38,0
1277040,note_on,0,0,4,,,,,,,,,,,,,,,3,,,38,50
1277100,control_change,60,0,3,,,,,,,,,,,,,64,127,2,,,,
1277200,note_on,100,0,3,,,,,,,,,,,,,,,2,,,45,38
1277352,note_off,312,0,1,,,,,,,,,,,,,,,0,,,84,0
1277360,note_on,0,0,3,,,,,,,,,,,,,,,2,,,50,38
1277360,note_off,160,0,3,,,,,,,,,,,,,,,2,,,45,0
1277520,note_on,0,0,3,,,,,,,,,,,,,,,2,,,54,38
1277520,note_on,168,0,1,,,,,,,,,,,,,,,0,,,84,57
1277520,note_off,160,0,3,,,,,,,,,,,,,,,2,,,50,0
1277680,note_off,160,0,3,,,,,,,,,,,,,,,2,,,54,0
1277680,note_on,0,0,3,,,,,,,,,,,,,,,2,,,50,38
1277832,note_off,312,0,1,,,,,,,,,,,,,,,0,,,84,0
1277840,note_on,0,0,3,,,,,,,,,,,,,,,2,,,45,38
1277840,note_off,160,0,3,,,,,,,,,,,,,,,2,,,50,0
1277940,set_tempo,1860,1,0,,,,,,,301507,,,,,,,,,,,,
1278000,note_off,960,0,4,,,,,,,,,,,,,,,3,,,38,0
1278000,note_on,0,0,4,,,,,,,,,,,,,,,3,,,38,51
1278000,note_off,160,0,3,,,,,,,,,,,,,,,2,,,45,0
1278000,note_on,168,0,1,,,,,,,,,,,,,,,0,,,84,62
1278480,note_off,480,0,4,,,,,,,,,,,,,,,3,,,38,0
1278840,note_on,2760,0,2,,,,,,,,,,,,,,,1,,,62,64
1278840,note_off,840,0,1,,,,,,,,,,,,,,,0,,,84,0
1278855,note_off,15,0,2,,,,,,,,,,,,,,,1,,,72,0
1278918,note_off,63,0,2,,,,,,,,,,,,,,,1,,,62,0
1278960,note_on,42,0,2,,,,,,,,,,,,,,,1,,,72,65
1279272,note_off,312,0,2,,,,,,,,,,,,,,,1,,,72,0
1279395,set_tempo,1455,1,0,,,,,,,304568,,,,,,,,,,,,
1279440,note_on,168,0,2,,,,,,,,,,,,,,,1,,,72,66
1279752,note_off,312,0,2,,,,,,,,,,,,,,,1,,,72,0
1279920,note_on,168,0,2,,,,,,,,,,,,,,,1,,,72,72
1279920,set_tempo,525,1,0,,,,,,,309278,,,,,,,,,,,,
1280760,note_on,840,0,2,,,,,,,,,,,,,,,1,,,62,72
1280838,note_off,78,0,2,,,,,,,,,,,,,,,1,,,62,0
1280880,note_on,0,0,2,,,,,,,,,,,,,,,1,,,73,75
1280880,note_off,42,0,2,,,,,,,,,,,,,,,1,,,72,0
1281192,note_off,312,0,2,,,,,,,,,,,,,,,1,,,73,0
1281270,set_tempo,1350,1,0,,,,,,,377358,,,,,,,,,,,,
1281360,note_on,168,0,2,,,,,,,,,,,,,,,1,,,73,72
1281600,set_tempo,330,1,0,,,,,,,408163,,,,,,,,,,,,
1281672,note_off,312,0,2,,,,,,,,,,,,,,,1,,,73,0
1281795,set_tempo,195,1,0,,,,,,,491803,,,,,,,,,,,,
1281840,note_on,168,0,2,,,,,,,,,,,,,,,1,,,73,68
1282800,set_tempo,1005,1,0,,,,,,,600000,,,,,,,,,,,,
1283760,control_change,5280,0,4,,,,,,,,,,,,,64,0,3,,,,
1283760,control_change,5760,0,3,,,,,,,,,,,,,64,0,2,,,,
1283760,note_off,1920,0,2,,,,,,,,,,,,,,,1,,,73,0
1283760,set_tempo,960,1,0,,,,,,,297029,,,,,,,,,,,,
1283760,control_change,4920,0,1,,,,,,,,,,,,,64,0,0,,,,
1284640,note_on,880,0,1,,,,,,,,,,,,,,,0,,,76,55
1284720,note_off,80,0,1,,,,,,,,,,,,,,,0,,,76,0
1284720,note_on,0,0,1,,,,,,,,,,,,,,,0,,,74,55
1284960,note_on,0,0,1,,,,,,,,,,,,,,,0,,,73,56
1284960,note_off,240,0,1,,,,,,,,,,,,,,,0,,,74,0
1285200,note_off,240,0,1,,,,,,,,,,,,,,,0,,,73,0
1285200,note_on,0,0,1,,,,,,,,,,,,,,,0,,,74,54
1285440,note_on,0,0,1,,,,,,,,,,,,,,,0,,,76,52
1285440,note_off,240,0,1,,,,,,,,,,,,,,,0,,,74,0
1285680,note_off,240,0,1,,,,,,,,,,,,,,,0,,,76,0
1285680,note_on,0,0,1,,,,,,,,,,,,,,,0,,,74,51
1285992,note_off,312,0,1,,,,,,,,,,,,,,,0,,,74,0
1286160,note_on,0,0,4,,,,,,,,,,,,,,,3,,,48,50
1286160,note_on,2400,0,4,,,,,,,,,,,,,,,3,,,50,50
1286160,note_on,2400,0,2,,,,,,,,,,,,,,,1,,,54,53
1286160,note_on,168,0,1,,,,,,,,,,,,,,,0,,,62,53
1286472,note_off,312,0,4,,,,,,,,,,,,,,,3,,,50,0
1286472,note_off,312,0,2,,,,,,,,,,,,,,,1,,,54,0
1286472,note_off,0,0,4,,,,,,,,,,,,,,,3,,,48,0
1286472,note_off,312,0,1,,,,,,,,,,,,,,,0,,,62,0
1286640,note_on,168,0,4,,,,,,,,,,,,,,,3,,,50,49
1286640,note_on,168,0,2,,,,,,,,,,,,,,,1,,,55,52
1286640,note_on,0,0,4,,,,,,,,,,,,,,,3,,,47,49
1286640,note_on,168,0,1,,,,,,,,,,,,,,,0,,,64,52
1286952,note_off,312,0,2,,,,,,,,,,,,,,,1,,,55,0
1286952,note_off,312,0,1,,,,,,,,,,,,,,,0,,,64,0
1286952,note_off,0,0,4,,,,,,,,,,,,,,,3,,,47,0
1286952,note_off,312,0,4,,,,,,,,,,,,,,,3,,,50,0
1287120,note_on,168,0,4,,,,,,,,,,,,,,,3,,,45,48
1287120,note_on,168,0,2,,,,,,,,,,,,,,,1,,,57,51
1287120,note_on,0,0,4,,,,,,,,,,,,,,,3,,,50,48
1287120,note_on,168,0,1,,,,,,,,,,,,,,,0,,,66,51
1287120,set_tempo,3360,1,0,,,,,,,306122,,,,,,,,,,,,
1287432,note_off,312,0,1,,,,,,,,,,,,,,,0,,,66,0
1287432,note_off,312,0,2,,,,,,,,,,,,,,,1,,,57,0
1287432,note_off,0,0,4,,,,,,,,,,,,,,,3,,,50,0
1287432,note_off,312,0,4,,,,,,,,,,,,,,,3,,,45,0
1287600,control_change,168,0,1,,,,,,,,,,,,,64,127,0,,,,
1287600,set_tempo,480,1,0,,,,,,,355029,,,,,,,,,,,,
1287600,note_on,168,0,2,,,,,,,,,,,,,,,1,,,59,50
1287600,note_on,0,0,4,,,,,,,,,,,,,,,3,,,43,48
1287600,control_change,168,0,4,,,,,,,,,,,,,64,127,3,,,,
1287600,note_on,0,0,4,,,,,,,,,,,,,,,3,,,50,48
1287600,note_on,0,0,1,,,,,,,,,,,,,,,0,,,67,50
1288560,note_off,960,0,1,,,,,,,,,,,,,,,0,,,67,0
1288560,note_off,960,0,4,,,,,,,,,,,,,,,3,,,50,0
1288560,note_off,0,0,4,,,,,,,,,,,,,,,3,,,43,0
1288560,note_off,960,0,2,,,,,,,,,,,,,,,1,,,59,0
1290240,control_change,1680,0,1,,,,,,,,,,,,,64,0,0,,,,
1290240,control_change,1680,0,4,,,,,,,,,,,,,64,0,3,,,,
1290450,set_tempo,2850,1,0,,,,,,,413793,,,,,,,,,,,,
1290480,note_on,240,0,1,,,,,,,,,,,,,,,0,,,71,46
1290720,note_on,0,0,1,,,,,,,,,,,,,,,0,,,69,45
1290720,note_off,240,0,1,,,,,,,,,,,,,,,0,,,71,0
1290960,note_on,0,0,1,,,,,,,,,,,,,,,0,,,68,45
1290960,note_on,2400,0,2,,,,,,,,,,,,,,,1,,,60,45
1290960,note_on,720,0,4,,,,,,,,,,,,,,,3,,,42,41
1290960,note_on,0,0,4,,,,,,,,,,,,,,,3,,,50,41
1290960,note_off,240,0,1,,,,,,,,,,,,,,,0,,,69,0
1291200,note_off,240,0,1,,,,,,,,,,,,,,,0,,,68,0
1291200,note_on,0,0,1,,,,,,,,,,,,,,,0,,,69,45
1291272,note_off,0,0,4,,,,,,,,,,,,,,,3,,,50,0
1291272,note_off,312,0,2,,,,,,,,,,,,,,,1,,,60,0
1291272,note_off,312,0,4,,,,,,,,,,,,,,,3,,,42,0
1291335,set_tempo,885,1,0,,,,,,,419580,,,,,,,,,,,,
1291440,note_on,168,0,2,,,,,,,,,,,,,,,1,,,59,44
1291440,note_on,0,0,4,,,,,,,,,,,,,,,3,,,43,40
1291440,note_on,0,0,1,,,,,,,,,,,,,,,0,,,71,44
1291440,note_on,168,0,4,,,,,,,,,,,,,,,3,,,50,40
1291440,note_off,240,0,1,,,,,,,,,,,,,,,0,,,69,0
1291440,set_tempo,105,1,0,,,,,,,425531,,,,,,,,,,,,
1291752,note_off,0,0,4,,,,,,,,,,,,,,,3,,,43,0
1291752,note_off,312,0,4,,,,,,,,,,,,,,,3,,,50,0
1291752,note_off,312,0,2,,,,,,,,,,,,,,,1,,,59,0
1291752,note_off,312,0,1,,,,,,,,,,,,,,,0,,,71,0
1291905,set_tempo,465,1,0,,,,,,,434782,,,,,,,,,,,,
1291920,note_on,168,0,1,,,,,,,,,,,,,,,0,,,67,45
1291920,note_on,168,0,4,,,,,,,,,,,,,,,3,,,43,41
1291920,note_on,168,0,2,,,,,,,,,,,,,,,1,,,59,45
1291920,note_on,0,0,4,,,,,,,,,,,,,,,3,,,50,41
1292232,note_off,312,0,1,,,,,,,,,,,,,,,0,,,67,0
1292232,note_off,312,0,4,,,,,,,,,,,,,,,3,,,43,0
1292232,note_off,0,0,4,,,,,,,,,,,,,,,3,,,50,0
1292232,note_off,312,0,2,,,,,,,,,,,,,,,1,,,59,0
1292400,note_on,0,0,4,,,,,,,,,,,,,,,3,,,50,43
1292400,note_on,168,0,1,,,,,,,,,,,,,,,0,,,73,47
1292400,note_on,168,0,4,,,,,,,,,,,,,,,3,,,42,43
1292400,note_on,0,0,2,,,,,,,,,,,,,,,1,,,61,47
1292400,set_tempo,495,1,0,,,,,,,454545,,,,,,,,,,,,
1292400,note_on,168,0,2,,,,,,,,,,,,,,,1,,,67,47
1292712,note_off,312,0,1,,,,,,,,,,,,,,,0,,,73,0
1292712,note_off,0,0,2,,,,,,,,,,,,,,,1,,,61,0
1292712,note_off,312,0,2,,,,,,,,,,,,,,,1,,,67,0
1292712,note_off,312,0,4,,,,,,,,,,,,,,,3,,,42,0
1292712,note_off,0,0,4,,,,,,,,,,,,,,,3,,,50,0
1292880,note_on,168,0,2,,,,,,,,,,,,,,,1,,,67,44
1292880,note_on,168,0,1,,,,,,,,,,,,,,,0,,,69,44
1292880,note_on,0,0,2,,,,,,,,,,,,,,,1,,,61,44
1292880,note_on,0,0,4,,,,,,,,,,,,,,,3,,,50,41
1292880,note_on,168,0,4,,,,,,,,,,,,,,,3,,,40,41
1292880,set_tempo,480,1,0,,,,,,,540540,,,,,,,,,,,,
1293192,note_off,312,0,1,,,,,,,,,,,,,,,0,,,69,0
1293192,note_off,312,0,2,,,,,,,,,,,,,,,1,,,67,0
1293192,note_off,0,0,4,,,,,,,,,,,,,,,3,,,50,0
1293192,note_off,312,0,4,,,,,,,,,,,,,,,3,,,40,0
1293192,note_off,0,0,2,,,,,,,,,,,,,,,1,,,61,0
1293360,control_change,168,0,1,,,,,,,,,,,,,64,127,0,,,,
1293360,set_tempo,480,1,0,,,,,,,967741,,,,,,,,,,,,
1293360,note_on,168,0,2,,,,,,,,,,,,,,,1,,,38,39
1293400,note_on,40,0,2,,,,,,,,,,,,,,,1,,,50,39
1293420,set_tempo,60,1,0,,,,,,,1000000,,,,,,,,,,,,
1293440,note_on,80,0,1,,,,,,,,,,,,,,,0,,,62,43
1293480,note_on,40,0,1,,,,,,,,,,,,,,,0,,,66,43
1293480,set_tempo,60,1,0,,,,,,,1111111,,,,,,,,,,,,
1293520,note_on,40,0,1,,,,,,,,,,,,,,,0,,,69,42
1293540,set_tempo,60,1,0,,,,,,,1666666,,,,,,,,,,,,
1293560,note_on,40,0,1,,,,,,,,,,,,,,,0,,,74,41
1294320,note_off,920,0,2,,,,,,,,,,,,,,,1,,,38,0
1294360,note_off,40,0,2,,,,,,,,,,,,,,,1,,,50,0
1294400,note_off,840,0,1,,,,,,,,,,,,,,,0,,,62,0
1294440,note_off,40,0,1,,,,,,,,,,,,,,,0,,,66,0
1294480,note_off,40,0,1,,,,,,,,,,,,,,,0,,,69,0
1294520,note_off,40,0,1,,,,,,,,,,,,,,,0,,,74,0
1294785,set_tempo,1245,1,0,,,,,,,297029,,,,,,,,,,,,
1295760,control_change,1240,0,1,,,,,,,,,,,,,64,0,0,,,,
1296160,note_on,400,0,1,,,,,,,,,,,,,,,0,,,76,46
1296240,note_off,80,0,1,,,,,,,,,,,,,,,0,,,76,0
1296240,note_on,0,0,1,,,,,,,,,,,,,,,0,,,74,49
1296480,note_on,0,0,1,,,,,,,,,,,,,,,0,,,73,48
1296480,note_off,240,0,1,,,,,,,,,,,,,,,0,,,74,0
1296720,note_on,0,0,1,,,,,,,,,,,,,,,0,,,74,46
1296720,note_off,240,0,1,,,,,,,,,,,,,,,0,,,73,0
1296960,note_on,0,0,1,,,,,,,,,,,,,,,0,,,76,44
1296960,note_off,240,0,1,,,,,,,,,,,,,,,0,,,74,0
1297200,note_on,0,0,1,,,,,,,,,,,,,,,0,,,74,43
1297200,note_off,240,0,1,,,,,,,,,,,,,,,0,,,76,0
1297512,note_off,312,0,1,,,,,,,,,,,,,,,0,,,74,0
1297680,note_on,4488,0,4,,,,,,,,,,,,,,,3,,,38,38
1297680,note_on,168,0,1,,,,,,,,,,,,,,,0,,,62,43
1297680,note_on,3320,0,2,,,,,,,,,,,,,,,1,,,60,43
1297680,note_on,0,0,2,,,,,,,,,,,,,,,1,,,54,43
1297680,note_on,0,0,4,,,,,,,,,,,,,,,3,,,50,38
1297992,note_off,312,0,1,,,,,,,,,,,,,,,0,,,62,0
1297992,note_off,0,0,2,,,,,,,,,,,,,,,1,,,54,0
1297992,note_off,312,0,2,,,,,,,,,,,,,,,1,,,60,0
1297992,note_off,312,0,4,,,,,,,,,,,,,,,3,,,38,0
1297992,note_off,0,0,4,,,,,,,,,,,,,,,3,,,50,0
1298160,note_on,168,0,2,,,,,,,,,,,,,,,1,,,60,44
1298160,note_on,0,0,2,,,,,,,,,,,,,,,1,,,55,44
1298160,note_on,168,0,4,,,,,,,,,,,,,,,3,,,38,39
1298160,note_on,168,0,1,,,,,,,,,,,,,,,0,,,64,44
1298160,note_on,0,0,4,,,,,,,,,,,,,,,3,,,50,39
1298472,note_off,312,0,4,,,,,,,,,,,,,,,3,,,38,0
1298472,note_off,312,0,2,,,,,,,,,,,,,,,1,,,60,0
1298472,note_off,0,0,4,,,,,,,,,,,,,,,3,,,50,0
1298472,note_off,312,0,1,,,,,,,,,,,,,,,0,,,64,0
1298472,note_off,0,0,2,,,,,,,,,,,,,,,1,,,55,0
1298640,note_on,0,0,2,,,,,,,,,,,,,,,1,,,57,45
1298640,note_on,168,0,4,,,,,,,,,,,,,,,3,,,38,40
1298640,note_on,168,0,1,,,,,,,,,,,,,,,0,,,66,45
1298640,note_on,0,0,4,,,,,,,,,,,,,,,3,,,50,40
1298640,note_on,168,0,2,,,,,,,,,,,,,,,1,,,60,45
1298952,note_off,312,0,1,,,,,,,,,,,,,,,0,,,66,0
1298952,note_off,312,0,2,,,,,,,,,,,,,,,1,,,60,0
1298952,note_off,0,0,2,,,,,,,,,,,,,,,1,,,57,0
1298952,note_off,312,0,4,,,,,,,,,,,,,,,3,,,38,0
1298952,note_off,0,0,4,,,,,,,,,,,,,,,3,,,50,0
1299000,set_tempo,4215,1,0,,,,,,,300000,,,,,,,,,,,,
1299120,set_tempo,120,1,0,,,,,,,355029,,,,,,,,,,,,
1299120,note_on,0,0,4,,,,,,,,,,,,,,,3,,,52,41
1299120,control_change,168,0,1,,,,,,,,,,,,,64,127,0,,,,
1299120,note_on,0,0,1,,,,,,,,,,,,,,,0,,,67,46
1299120,note_on,168,0,2,,,,,,,,,,,,,,,1,,,59,46
1299120,note_on,0,0,4,,,,,,,,,,,,,,,3,,,40,41
1299120,control_change,168,0,4,,,,,,,,,,,,,64,127,3,,,,
1300080,note_off,960,0,1,,,,,,,,,,,,,,,0,,,67,0
1300080,note_off,0,0,4,,,,,,,,,,,,,,,3,,,52,0
1300080,note_off,960,0,4,,,,,,,,,,,,,,,3,,,40,0
1300080,note_off,960,0,2,,,,,,,,,,,,,,,1,,,59,0
1301760,control_change,1680,0,4,,,,,,,,,,,,,64,0,3,,,,
1301760,control_change,1680,0,1,,,,,,,,,,,,,64,0,0,,,,
1301970,set_tempo,2850,1,0,,,,,,,454545,,,,,,,,,,,,
1302000,note_on,240,0,1,,,,,,,,,,,,,,,0,,,71,52
1302240,note_off,240,0,1,,,,,,,,,,,,,,,0,,,71,0
1302240,note_on,0,0,1,,,,,,,,,,,,,,,0,,,69,53
1302480,note_off,240,0,1,,,,,,,,,,,,,,,0,,,69,0
1302480,note_on,2400,0,2,,,,,,,,,,,,,,,1,,,60,53
1302480,note_on,0,0,2,,,,,,,,,,,,,,,1,,,54,53
1302480,note_on,0,0,1,,,,,,,,,,,,,,,0,,,68,53
1302480,note_on,0,0,2,,,,,,,,,,,,,,,1,,,62,53
1302720,note_on,0,0,1,,,,,,,,,,,,,,,0,,,69,54
1302720,note_off,240,0,1,,,,,,,,,,,,,,,0,,,68,0
1302792,note_off,0,0,2,,,,,,,,,,,,,,,1,,,62,0
1302792,note_off,0,0,2,,,,,,,,,,,,,,,1,,,54,0
1302792,note_off,312,0,2,,,,,,,,,,,,,,,1,,,60,0
1302840,set_tempo,870,1,0,,,,,,,461538,,,,,,,,,,,,
1302960,note_on,1200,0,4,,,,,,,,,,,,,,,3,,,55,54
1302960,note_on,0,0,1,,,,,,,,,,,,,,,0,,,71,54
1302960,set_tempo,120,1,0,,,,,,,472440,,,,,,,,,,,,
1302960,note_on,0,0,2,,,,,,,,,,,,,,,1,,,62,54
1302960,note_on,168,0,2,,,,,,,,,,,,,,,1,,,59,54
1302960,note_off,240,0,1,,,,,,,,,,,,,,,0,,,69,0
1303272,note_off,312,0,4,,,,,,,,,,,,,,,3,,,55,0
1303272,note_off,0,0,2,,,,,,,,,,,,,,,1,,,62,0
1303272,note_off,312,0,2,,,,,,,,,,,,,,,1,,,59,0
1303272,note_off,312,0,1,,,,,,,,,,,,,,,0,,,71,0
1303425,set_tempo,465,1,0,,,,,,,517241,,,,,,,,,,,,
1303440,note_on,168,0,1,,,,,,,,,,,,,,,0,,,67,56
1303440,note_on,168,0,4,,,,,,,,,,,,,,,3,,,52,56
1303440,note_on,168,0,2,,,,,,,,,,,,,,,1,,,59,56
1303440,note_on,0,0,2,,,,,,,,,,,,,,,1,,,64,56
1303752,note_off,312,0,4,,,,,,,,,,,,,,,3,,,52,0
1303752,note_off,0,0,2,,,,,,,,,,,,,,,1,,,64,0
1303752,note_off,312,0,1,,,,,,,,,,,,,,,0,,,67,0
1303752,note_off,312,0,2,,,,,,,,,,,,,,,1,,,59,0
1303920,set_tempo,495,1,0,,,,,,,550458,,,,,,,,,,,,
1303920,note_on,168,0,1,,,,,,,,,,,,,,,0,,,72,58
1303920,note_on,168,0,2,,,,,,,,,,,,,,,1,,,64,58
1303920,note_on,168,0,4,,,,,,,,,,,,,,,3,,,52,58
1303920,note_on,0,0,2,,,,,,,,,,,,,,,1,,,69,58
1303920,note_on,0,0,2,,,,,,,,,,,,,,,1,,,57,58
1304880,note_off,960,0,2,,,,,,,,,,,,,,,1,,,64,0
1304880,note_off,0,0,2,,,,,,,,,,,,,,,1,,,57,0
1304880,note_off,0,0,2,,,,,,,,,,,,,,,1,,,69,0
1304880,note_on,0,0,2,,,,,,,,,,,,,,,1,,,50,63
1304880,set_tempo,960,1,0,,,,,,,600000,,,,,,,,,,,,
1304880,note_off,960,0,4,,,,,,,,,,,,,,,3,,,52,0
1304880,note_on,0,0,4,,,,,,,,,,,,,,,3,,,38,63
1304880,note_off,960,0,1,,,,,,,,,,,,,,,0,,,72,0
1305840,note_on,0,0,2,,,,,,,,,,,,,,,1,,,66,68
1305840,note_on,960,0,2,,,,,,,,,,,,,,,1,,,62,68
1305840,note_on,960,0,1,,,,,,,,,,,,,,,0,,,69,68
1306320,set_tempo,1440,1,0,,,,,,,612244,,,,,,,,,,,,
1306800,note_off,0,0,2,,,,,,,,,,,,,,,1,,,66,0
1306800,note_off,0,0,2,,,,,,,,,,,,,,,1,,,62,0
1306800,note_off,960,0,2,,,,,,,,,,,,,,,1,,,50,0
1306800,set_tempo,480,1,0,,,,,,,1034482,,,,,,,,,,,,
1306800,note_on,0,0,4,,,,,,,,,,,,,,,3,,,47,71
1306800,note_off,0,0,1,,,,,,,,,,,,,,,0,,,69,0
1306800,control_change,960,0,1,,,,,,,,,,,,,64,127,0,,,,
1306800,note_off,1920,0,4,,,,,,,,,,,,,,,3,,,38,0
1306840,note_on,40,0,1,,,,,,,,,,,,,,,0,,,50,71
1306860,set_tempo,60,1,0,,,,,,,1071428,,,,,,,,,,,,
1306880,note_on,40,0,1,,,,,,,,,,,,,,,0,,,55,70
1306920,note_on,40,0,1,,,,,,,,,,,,,,,0,,,59,69
1306920,set_tempo,60,1,0,,,,,,,1176470,,,,,,,,,,,,
1306960,note_on,40,0,1,,,,,,,,,,,,,,,0,,,62,68
1306980,set_tempo,60,1,0,,,,,,,1818181,,,,,,,,,,,,
1307000,note_on,40,0,1,,,,,,,,,,,,,,,0,,,67,67
1307040,note_on,40,0,1,,,,,,,,,,,,,,,0,,,74,66
1307730,set_tempo,750,1,0,,,,,,,491803,,,,,,,,,,,,
1307760,note_off,960,0,4,,,,,,,,,,,,,,,3,,,47,0
1307800,note_off,760,0,1,,,,,,,,,,,,,,,0,,,50,0
1307840,note_off,40,0,1,,,,,,,,,,,,,,,0,,,55,0
1307880,note_off,40,0,1,,,,,,,,,,,,,,,0,,,59,0
1307920,note_off,40,0,1,,,,,,,,,,,,,,,0,,,62,0
1307960,note_off,40,0,1,,,,,,,,,,,,,,,0,,,67,0
1308000,note_off,40,0,1,,,,,,,,,,,,,,,0,,,74,0
1308720,control_change,720,0,1,,,,,,,,,,,,,64,0,0,,,,
1309680,note_on,960,0,1,,,,,,,,,,,,,,,0,,,71,52
1309920,note_on,0,0,1,,,,,,,,,,,,,,,0,,,69,51
1309920,note_off,240,0,1,,,,,,,,,,,,,,,0,,,71,0
1310160,note_on,2400,0,4,,,,,,,,,,,,,,,3,,,54,50
1310160,note_on,0,0,1,,,,,,,,,,,,,,,0,,,68,50
1310160,note_off,240,0,1,,,,,,,,,,,,,,,0,,,69,0
1310160,note_on,3360,0,2,,,,,,,,,,,,,,,1,,,62,50
1310160,note_on,0,0,2,,,,,,,,,,,,,,,1,,,60,50
1310400,set_tempo,2670,1,0,,,,,,,495867,,,,,,,,,,,,
1310400,note_off,240,0,1,,,,,,,,,,,,,,,0,,,68,0
1310400,note_on,0,0,1,,,,,,,,,,,,,,,0,,,69,49
1310472,note_off,312,0,4,,,,,,,,,,,,,,,3,,,54,0
1310472,note_off,312,0,2,,,,,,,,,,,,,,,1,,,62,0
1310472,note_off,0,0,2,,,,,,,,,,,,,,,1,,,60,0
1310640,note_on,0,0,1,,,,,,,,,,,,,,,0,,,71,48
1310640,note_off,240,0,1,,,,,,,,,,,,,,,0,,,69,0
1310640,note_on,168,0,2,,,,,,,,,,,,,,,1,,,62,48
1310640,note_on,0,0,2,,,,,,,,,,,,,,,1,,,59,48
1310640,note_on,168,0,4,,,,,,,,,,,,,,,3,,,55,48
1310640,set_tempo,240,1,0,,,,,,,508474,,,,,,,,,,,,
1310952,note_off,0,0,2,,,,,,,,,,,,,,,1,,,59,0
1310952,note_off,312,0,4,,,,,,,,,,,,,,,3,,,55,0
1310952,note_off,312,0,1,,,,,,,,,,,,,,,0,,,71,0
1310952,note_off,312,0,2,,,,,,,,,,,,,,,1,,,62,0
1311105,set_tempo,465,1,0,,,,,,,550458,,,,,,,,,,,,
1311120,note_on,0,0,2,,,,,,,,,,,,,,,1,,,59,46
1311120,note_on,168,0,4,,,,,,,,,,,,,,,3,,,52,46
1311120,note_on,168,0,1,,,,,,,,,,,,,,,0,,,67,46
1311120,note_on,168,0,2,,,,,,,,,,,,,,,1,,,64,46
1311432,note_off,312,0,2,,,,,,,,,,,,,,,1,,,64,0
1311432,note_off,0,0,2,,,,,,,,,,,,,,,1,,,59,0
1311432,note_off,312,0,4,,,,,,,,,,,,,,,3,,,52,0
1311432,note_off,312,0,1,,,,,,,,,,,,,,,0,,,67,0
1311600,note_on,168,0,2,,,,,,,,,,,,,,,1,,,69,45
1311600,note_on,0,0,2,,,,,,,,,,,,,,,1,,,57,45
1311600,note_on,0,0,2,,,,,,,,,,,,,,,1,,,64,45
1311600,note_on,168,0,4,,,,,,,,,,,,,,,3,,,52,45
1311600,note_on,168,0,1,,,,,,,,,,,,,,,0,,,72,45
1311600,set_tempo,495,1,0,,,,,,,600000,,,,,,,,,,,,
1312560,note_off,0,0,2,,,,,,,,,,,,,,,1,,,64,0
1312560,note_off,960,0,4,,,,,,,,,,,,,,,3,,,52,0
1312560,note_on,0,0,2,,,,,,,,,,,,,,,1,,,50,41
1312560,set_tempo,960,1,0,,,,,,,659340,,,,,,,,,,,,
1312560,note_off,960,0,2,,,,,,,,,,,,,,,1,,,69,0
1312560,note_off,0,0,2,,,,,,,,,,,,,,,1,,,57,0
1312560,note_off,960,0,1,,,,,,,,,,,,,,,0,,,72,0
1312560,note_on,0,0,4,,,,,,,,,,,,,,,3,,,38,49
1313520,note_on,960,0,2,,,,,,,,,,,,,,,1,,,62,63
1313520,note_on,960,0,1,,,,,,,,,,,,,,,0,,,69,63
1313520,note_on,0,0,2,,,,,,,,,,,,,,,1,,,66,63
1314000,note_off,480,0,2,,,,,,,,,,,,,,,1,,,50,0
1314000,note_on,0,0,4,,,,,,,,,,,,,,,3,,,40,51
1314000,note_off,1440,0,4,,,,,,,,,,,,,,,3,,,38,0
1314240,note_off,240,0,4,,,,,,,,,,,,,,,3,,,40,0
1314240,note_on,0,0,4,,,,,,,,,,,,,,,3,,,42,49
1314480,note_on,0,0,4,,,,,,,,,,,,,,,3,,,43,47
1314480,note_off,240,0,4,,,,,,,,,,,,,,,3,,,42,0
1314480,note_off,480,0,2,,,,,,,,,,,,,,,1,,,62,0
1314480,note_off,0,0,2,,,,,,,,,,,,,,,1,,,66,0
1314480,marker,1920,1,0,,,,,,,,,,,,,,,,,,,
1314480,note_off,960,0,1,,,,,,,,,,,,,,,0,,,69,0
1314960,note_on,0,0,4,,,,,,,,,,,,,,,3,,,45,43
1314960,note_off,480,0,4,,,,,,,,,,,,,,,3,,,43,0
1315440,note_on,0,0,4,,,,,,,,,,,,,,,3,,,47,39
1315440,note_off,480,0,4,,,,,,,,,,,,,,,3,,,45,0
1315860,set_tempo,1380,1,0,,,,,,,705882,,,,,,,,,,,,
1315920,note_on,0,0,4,,,,,,,,,,,,,,,3,,,48,35
1315920,note_off,480,0,4,,,,,,,,,,,,,,,3,,,47,0
1316160,note_off,240,0,4,,,,,,,,,,,,,,,3,,,48,0
1316160,set_tempo,300,1,0,,,,,,,1071428,,,,,,,,,,,,
1316160,note_on,0,0,4,,,,,,,,,,,,,,,3,,,47,33
1316400,set_tempo,240,1,0,,,,,,,301507,,,,,,,,,,,,
1316400,note_on,0,0,4,,,,,,,,,,,,,,,3,,,45,28
1316400,note_off,240,0,4,,,,,,,,,,,,,,,3,,,47,0
1316500,set_tempo,100,1,0,,,,,,,295566,,,,,,,,,,,,
1316520,note_on,120,0,4,,,,,,,,,,,,,,,3,,,47,28
1316580,note_off,60,0,4,,,,,,,,,,,,,,,3,,,45,0
1316596,set_tempo,96,1,0,,,,,,,294117,,,,,,,,,,,,
1316640,note_on,60,0,4,,,,,,,,,,,,,,,3,,,45,28
1316696,set_tempo,100,1,0,,,,,,,292682,,,,,,,,,,,,
1316701,note_off,61,0,4,,,,,,,,,,,,,,,3,,,47,0
1316760,note_on,59,0,4,,,,,,,,,,,,,,,3,,,47,29
1316792,set_tempo,96,1,0,,,,,,,291262,,,,,,,,,,,,
1316822,note_off,62,0,4,,,,,,,,,,,,,,,3,,,45,0
1316880,note_on,58,0,4,,,,,,,,,,,,,,,3,,,45,29
1316892,set_tempo,100,1,0,,,,,,,289855,,,,,,,,,,,,
1316942,note_off,62,0,4,,,,,,,,,,,,,,,3,,,47,0
1316988,set_tempo,96,1,0,,,,,,,288461,,,,,,,,,,,,
1317000,note_on,58,0,4,,,,,,,,,,,,,,,3,,,47,29
1317063,note_off,63,0,4,,,,,,,,,,,,,,,3,,,45,0
1317088,set_tempo,100,1,0,,,,,,,287081,,,,,,,,,,,,
1317120,note_on,57,0,4,,,,,,,,,,,,,,,3,,,45,30
1317184,note_off,64,0,4,,,,,,,,,,,,,,,3,,,47,0
1317184,set_tempo,96,1,0,,,,,,,285714,,,,,,,,,,,,
1317240,note_on,56,0,4,,,,,,,,,,,,,,,3,,,47,30
1317284,set_tempo,100,1,0,,,,,,,284360,,,,,,,,,,,,
1317305,note_off,65,0,4,,,,,,,,,,,,,,,3,,,45,0
1317360,note_on,55,0,4,,,,,,,,,,,,,,,3,,,45,31
1317380,set_tempo,96,1,0,,,,,,,283018,,,,,,,,,,,,
1317426,note_off,66,0,4,,,,,,,,,,,,,,,3,,,47,0
1317480,set_tempo,100,1,0,,,,,,,281690,,,,,,,,,,,,
1317480,note_on,54,0,4,,,,,,,,,,,,,,,3,,,47,31
1317546,note_off,66,0,4,,,,,,,,,,,,,,,3,,,45,0
1317576,set_tempo,96,1,0,,,,,,,280373,,,,,,,,,,,,
1317600,note_on,54,0,4,,,,,,,,,,,,,,,3,,,45,31
1317667,note_off,67,0,4,,,,,,,,,,,,,,,3,,,47,0
1317676,set_tempo,100,1,0,,,,,,,279069,,,,,,,,,,,,
1317720,note_on,53,0,4,,,,,,,,,,,,,,,3,,,47,32
1317772,set_tempo,96,1,0,,,,,,,277777,,,,,,,,,,,,
1317788,note_off,68,0,4,,,,,,,,,,,,,,,3,,,45,0
1317840,note_on,52,0,4,,,,,,,,,,,,,,,3,,,45,32
1317872,set_tempo,100,1,0,,,,,,,276497,,,,,,,,,,,,
1317909,note_off,69,0,4,,,,,,,,,,,,,,,3,,,47,0
1317960,note_on,51,0,4,,,,,,,,,,,,,,,3,,,47,32
1317968,set_tempo,96,1,0,,,,,,,275229,,,,,,,,,,,,
1318030,note_off,70,0,4,,,,,,,,,,,,,,,3,,,45,0
1318068,set_tempo,100,1,0,,,,,,,273972,,,,,,,,,,,,
1318080,note_on,50,0,4,,,,,,,,,,,,,,,3,,,45,33
1318150,note_off,70,0,4,,,,,,,,,,,,,,,3,,,47,0
1318164,set_tempo,96,1,0,,,,,,,272727,,,,,,,,,,,,
1318200,note_on,50,0,4,,,,,,,,,,,,,,,3,,,47,33
1318264,set_tempo,100,1,0,,,,,,,271493,,,,,,,,,,,,
1318271,note_off,71,0,4,,,,,,,,,,,,,,,3,,,45,0
1318320,note_on,49,0,4,,,,,,,,,,,,,,,3,,,45,33
1318360,set_tempo,96,1,0,,,,,,,270270,,,,,,,,,,,,
1318392,note_off,72,0,4,,,,,,,,,,,,,,,3,,,47,0
1318440,note_on,48,0,4,,,,,,,,,,,,,,,3,,,47,34
1318460,set_tempo,100,1,0,,,,,,,269058,,,,,,,,,,,,
1318513,note_off,73,0,4,,,,,,,,,,,,,,,3,,,45,0
1318556,set_tempo,96,1,0,,,,,,,267857,,,,,,,,,,,,
1318560,note_on,47,0,4,,,,,,,,,,,,,,,3,,,45,34
1318634,note_off,74,0,4,,,,,,,,,,,,,,,3,,,47,0
1318656,set_tempo,100,1,0,,,,,,,265486,,,,,,,,,,,,
1318680,note_on,46,0,4,,,,,,,,,,,,,,,3,,,47,35
1318752,set_tempo,96,1,0,,,,,,,264317,,,,,,,,,,,,
1318754,note_off,74,0,4,,,,,,,,,,,,,,,3,,,45,0
1318800,note_on,46,0,4,,,,,,,,,,,,,,,3,,,45,35
1318852,set_tempo,100,1,0,,,,,,,263157,,,,,,,,,,,,
1318875,note_off,75,0,4,,,,,,,,,,,,,,,3,,,47,0
1318920,note_on,45,0,4,,,,,,,,,,,,,,,3,,,47,35
1318948,set_tempo,96,1,0,,,,,,,262008,,,,,,,,,,,,
1318996,note_off,76,0,4,,,,,,,,,,,,,,,3,,,45,0
1319040,note_on,44,0,4,,,,,,,,,,,,,,,3,,,45,36
1319048,set_tempo,100,1,0,,,,,,,260869,,,,,,,,,,,,
1319117,note_off,77,0,4,,,,,,,,,,,,,,,3,,,47,0
1319144,set_tempo,96,1,0,,,,,,,259740,,,,,,,,,,,,
1319160,note_on,43,0,4,,,,,,,,,,,,,,,3,,,47,36
1319238,note_off,78,0,4,,,,,,,,,,,,,,,3,,,45,0
1319244,set_tempo,100,1,0,,,,,,,258620,,,,,,,,,,,,
1319280,note_on,42,0,4,,,,,,,,,,,,,,,3,,,45,36
1319340,set_tempo,96,1,0,,,,,,,257510,,,,,,,,,,,,
1319358,note_off,78,0,4,,,,,,,,,,,,,,,3,,,47,0
1319400,note_on,42,0,4,,,,,,,,,,,,,,,3,,,47,37
1319440,set_tempo,100,1,0,,,,,,,256410,,,,,,,,,,,,
1319479,note_off,79,0,4,,,,,,,,,,,,,,,3,,,45,0
1319520,note_on,41,0,4,,,,,,,,,,,,,,,3,,,45,37
1319536,set_tempo,96,1,0,,,,,,,255319,,,,,,,,,,,,
1319600,note_off,80,0,4,,,,,,,,,,,,,,,3,,,47,0
1319636,set_tempo,100,1,0,,,,,,,254237,,,,,,,,,,,,
1319640,note_on,40,0,4,,,,,,,,,,,,,,,3,,,47,38
1319721,note_off,81,0,4,,,,,,,,,,,,,,,3,,,45,0
1319732,set_tempo,96,1,0,,,,,,,253164,,,,,,,,,,,,
1319760,note_on,39,0,4,,,,,,,,,,,,,,,3,,,45,38
1319832,set_tempo,100,1,0,,,,,,,252100,,,,,,,,,,,,
1319842,note_off,82,0,4,,,,,,,,,,,,,,,3,,,47,0
1319880,note_on,38,0,4,,,,,,,,,,,,,,,3,,,47,38
1319928,set_tempo,96,1,0,,,,,,,251046,,,,,,,,,,,,
1319962,note_off,82,0,4,,,,,,,,,,,,,,,3,,,45,0
1320000,note_on,38,0,4,,,,,,,,,,,,,,,3,,,45,39
1320028,set_tempo,100,1,0,,,,,,,250000,,,,,,,,,,,,
1320083,note_off,83,0,4,,,,,,,,,,,,,,,3,,,47,0
1320120,note_on,37,0,4,,,,,,,,,,,,,,,3,,,47,39
1320124,set_tempo,96,1,0,,,,,,,248962,,,,,,,,,,,,
1320204,note_off,84,0,4,,,,,,,,,,,,,,,3,,,45,0
1320224,set_tempo,100,1,0,,,,,,,247933,,,,,,,,,,,,
1320240,note_on,36,0,4,,,,,,,,,,,,,,,3,,,45,39
1320320,set_tempo,96,1,0,,,,,,,246913,,,,,,,,,,,,
1320325,note_off,85,0,4,,,,,,,,,,,,,,,3,,,47,0
1320360,note_on,35,0,4,,,,,,,,,,,,,,,3,,,47,40
1320420,set_tempo,100,1,0,,,,,,,245901,,,,,,,,,,,,
1320446,note_off,86,0,4,,,,,,,,,,,,,,,3,,,45,0
1320480,note_on,34,0,4,,,,,,,,,,,,,,,3,,,45,40
1320516,set_tempo,96,1,0,,,,,,,244897,,,,,,,,,,,,
1320566,note_off,86,0,4,,,,,,,,,,,,,,,3,,,47,0
1320600,note_on,34,0,4,,,,,,,,,,,,,,,3,,,47,40
1320616,set_tempo,100,1,0,,,,,,,243902,,,,,,,,,,,,
1320687,note_off,87,0,4,,,,,,,,,,,,,,,3,,,45,0
1320712,set_tempo,96,1,0,,,,,,,242914,,,,,,,,,,,,
1320720,note_on,33,0,4,,,,,,,,,,,,,,,3,,,45,41
1320808,note_off,88,0,4,,,,,,,,,,,,,,,3,,,47,0
1320812,set_tempo,100,1,0,,,,,,,241935,,,,,,,,,,,,
1320840,note_on,32,0,4,,,,,,,,,,,,,,,3,,,47,41
1320908,set_tempo,96,1,0,,,,,,,240963,,,,,,,,,,,,
1320929,note_off,89,0,4,,,,,,,,,,,,,,,3,,,45,0
1320960,note_on,31,0,4,,,,,,,,,,,,,,,3,,,45,42
1321008,set_tempo,100,1,0,,,,,,,240000,,,,,,,,,,,,
1321050,note_off,90,0,4,,,,,,,,,,,,,,,3,,,47,0
1321080,note_on,30,0,4,,,,,,,,,,,,,,,3,,,47,42
1321104,set_tempo,96,1,0,,,,,,,243902,,,,,,,,,,,,
1321170,note_off,90,0,4,,,,,,,,,,,,,,,3,,,45,0
1321200,set_tempo,96,1,0,,,,,,,240000,,,,,,,,,,,,
1321200,note_on,30,0,4,,,,,,,,,,,,,,,3,,,45,42
1321200,note_on,6720,0,1,,,,,,,,,,,,,,,0,,,88,58
1321291,note_off,91,0,4,,,,,,,,,,,,,,,3,,,47,0
1321320,note_on,29,0,4,,,,,,,,,,,,,,,3,,,47,43
1321412,note_off,92,0,4,,,,,,,,,,,,,,,3,,,45,0
1321440,note_on,0,0,1,,,,,,,,,,,,,,,0,,,86,58
1321440,note_off,240,0,1,,,,,,,,,,,,,,,0,,,88,0
1321440,note_on,28,0,4,,,,,,,,,,,,,,,3,,,45,43
1321533,note_off,93,0,4,,,,,,,,,,,,,,,3,,,47,0
1321560,note_on,27,0,4,,,,,,,,,,,,,,,3,,,47,43
1321654,note_off,94,0,4,,,,,,,,,,,,,,,3,,,45,0
1321680,note_on,0,0,1,,,,,,,,,,,,,,,0,,,85,59
1321680,note_off,240,0,1,,,,,,,,,,,,,,,0,,,86,0
1321680,note_on,26,0,4,,,,,,,,,,,,,,,3,,,45,44
1321774,note_off,94,0,4,,,,,,,,,,,,,,,3,,,47,0
1321800,note_on,26,0,4,,,,,,,,,,,,,,,3,,,47,44
1321895,note_off,95,0,4,,,,,,,,,,,,,,,3,,,45,0
1321920,note_on,25,0,4,,,,,,,,,,,,,,,3,,,45,45
1321920,note_on,0,0,1,,,,,,,,,,,,,,,0,,,86,59
1321920,note_off,240,0,1,,,,,,,,,,,,,,,0,,,85,0
1322016,note_off,96,0,4,,,,,,,,,,,,,,,3,,,47,0
1322040,note_on,24,0,4,,,,,,,,,,,,,,,3,,,47,45
1322137,note_off,97,0,4,,,,,,,,,,,,,,,3,,,45,0
1322160,note_on,23,0,4,,,,,,,,,,,,,,,3,,,45,45
1322160,note_off,240,0,1,,,,,,,,,,,,,,,0,,,86,0
1322160,note_on,0,0,1,,,,,,,,,,,,,,,0,,,76,60
1322160,note_on,7680,0,2,,,,,,,,,,,,,,,1,,,66,60
1322258,note_off,98,0,4,,,,,,,,,,,,,,,3,,,47,0
1322280,note_on,22,0,4,,,,,,,,,,,,,,,3,,,47,46
1322378,note_off,98,0,4,,,,,,,,,,,,,,,3,,,45,0
1322400,note_on,22,0,4,,,,,,,,,,,,,,,3,,,45,46
1322400,note_off,240,0,1,,,,,,,,,,,,,,,0,,,76,0
1322400,note_on,0,0,1,,,,,,,,,,,,,,,0,,,74,60
1322499,note_off,99,0,4,,,,,,,,,,,,,,,3,,,47,0
1322520,note_on,21,0,4,,,,,,,,,,,,,,,3,,,47,46
1322620,note_off,100,0,4,,,,,,,,,,,,,,,3,,,45,0
1322640,note_on,20,0,4,,,,,,,,,,,,,,,3,,,45,47
1322640,note_off,480,0,2,,,,,,,,,,,,,,,1,,,66,0
1322640,note_off,240,0,1,,,,,,,,,,,,,,,0,,,74,0
1322640,note_on,0,0,1,,,,,,,,,,,,,,,0,,,73,61
1322741,note_off,101,0,4,,,,,,,,,,,,,,,3,,,47,0
1322760,note_on,19,0,4,,,,,,,,,,,,,,,3,,,47,47
1322862,note_off,102,0,4,,,,,,,,,,,,,,,3,,,45,0
1322880,note_on,18,0,4,,,,,,,,,,,,,,,3,,,45,47
1322880,note_off,240,0,1,,,,,,,,,,,,,,,0,,,73,0
1322880,note_on,0,0,1,,,,,,,,,,,,,,,0,,,74,61
1322982,note_off,102,0,4,,,,,,,,,,,,,,,3,,,47,0
1323000,note_on,18,0,4,,,,,,,,,,,,,,,3,,,47,48
1323103,note_off,103,0,4,,,,,,,,,,,,,,,3,,,45,0
1323120,note_off,240,0,1,,,,,,,,,,,,,,,0,,,74,0
1323120,note_on,17,0,4,,,,,,,,,,,,,,,3,,,45,48
1323120,note_on,0,0,1,,,,,,,,,,,,,,,0,,,88,62
1323224,note_off,104,0,4,,,,,,,,,,,,,,,3,,,47,0
1323240,note_on,16,0,4,,,,,,,,,,,,,,,3,,,47,49
1323345,note_off,105,0,4,,,,,,,,,,,,,,,3,,,45,0
1323360,note_off,240,0,1,,,,,,,,,,,,,,,0,,,88,0
1323360,note_on,0,0,1,,,,,,,,,,,,,,,0,,,86,62
1323360,note_on,15,0,4,,,,,,,,,,,,,,,3,,,45,49
1323466,note_off,106,0,4,,,,,,,,,,,,,,,3,,,47,0
1323480,note_on,14,0,4,,,,,,,,,,,,,,,3,,,47,49
1323586,note_off,106,0,4,,,,,,,,,,,,,,,3,,,45,0
1323600,note_on,14,0,4,,,,,,,,,,,,,,,3,,,45,50
1323600,note_on,0,0,1,,,,,,,,,,,,,,,0,,,85,63
1323600,note_off,240,0,1,,,,,,,,,,,,,,,0,,,86,0
1323707,note_off,107,0,4,,,,,,,,,,,,,,,3,,,47,0
1323720,note_on,13,0,4,,,,,,,,,,,,,,,3,,,47,50
1323828,note_off,108,0,4,,,,,,,,,,,,,,,3,,,45,0
1323840,note_on,12,0,4,,,,,,,,,,,,,,,3,,,45,50
1323840,note_off,240,0,1,,,,,,,,,,,,,,,0,,,85,0
1323840,note_on,0,0,1,,,,,,,,,,,,,,,0,,,86,63
1323949,note_off,109,0,4,,,,,,,,,,,,,,,3,,,47,0
1323960,note_on,11,0,4,,,,,,,,,,,,,,,3,,,47,51
1324070,note_off,110,0,4,,,,,,,,,,,,,,,3,,,45,0
1324080,note_off,240,0,1,,,,,,,,,,,,,,,0,,,86,0
1324080,note_on,0,0,1,,,,,,,,,,,,,,,0,,,76,64
1324080,note_on,10,0,4,,,,,,,,,,,,,,,3,,,45,51
1324080,note_on,1440,0,2,,,,,,,,,,,,,,,1,,,66,64
1324190,note_off,110,0,4,,,,,,,,,,,,,,,3,,,47,0
1324200,note_on,10,0,4,,,,,,,,,,,,,,,3,,,47,52
1324311,note_off,111,0,4,,,,,,,,,,,,,,,3,,,45,0
1324320,note_on,9,0,4,,,,,,,,,,,,,,,3,,,45,52
1324320,note_on,0,0,1,,,,,,,,,,,,,,,0,,,74,64
1324320,note_off,240,0,1,,,,,,,,,,,,,,,0,,,76,0
1324432,note_off,112,0,4,,,,,,,,,,,,,,,3,,,47,0
1324440,note_on,8,0,4,,,,,,,,,,,,,,,3,,,47,52
1324553,note_off,113,0,4,,,,,,,,,,,,,,,3,,,45,0
1324560,note_off,480,0,2,,,,,,,,,,,,,,,1,,,66,0
1324560,note_off,240,0,1,,,,,,,,,,,,,,,0,,,74,0
1324560,note_on,7,0,4,,,,,,,,,,,,,,,3,,,45,53
1324560,note_on,0,0,1,,,,,,,,,,,,,,,0,,,73,65
1324674,note_off,114,0,4,,,,,,,,,,,,,,,3,,,47,0
1324680,note_on,6,0,4,,,,,,,,,,,,,,,3,,,47,53
1324794,note_off,114,0,4,,,,,,,,,,,,,,,3,,,45,0
1324800,note_on,0,0,1,,,,,,,,,,,,,,,0,,,74,65
1324800,note_off,240,0,1,,,,,,,,,,,,,,,0,,,73,0
1324800,note_on,6,0,4,,,,,,,,,,,,,,,3,,,45,53
1324915,note_off,115,0,4,,,,,,,,,,,,,,,3,,,47,0
1324920,note_on,5,0,4,,,,,,,,,,,,,,,3,,,47,54
1325036,note_off,116,0,4,,,,,,,,,,,,,,,3,,,45,0
1325040,note_on,0,0,1,,,,,,,,,,,,,,,0,,,88,66
1325040,note_off,240,0,1,,,,,,,,,,,,,,,0,,,74,0
1325040,note_on,4,0,4,,,,,,,,,,,,,,,3,,,45,54
1325157,note_off,117,0,4,,,,,,,,,,,,,,,3,,,47,0
1325160,note_on,3,0,4,,,,,,,,,,,,,,,3,,,47,54
1325278,note_off,118,0,4,,,,,,,,,,,,,,,3,,,45,0
1325280,note_off,240,0,1,,,,,,,,,,,,,,,0,,,88,0
1325280,note_on,2,0,4,,,,,,,,,,,,,,,3,,,45,55
1325280,note_on,0,0,1,,,,,,,,,,,,,,,0,,,86,66
1325398,note_off,118,0,4,,,,,,,,,,,,,,,3,,,47,0
1325400,note_on,2,0,4,,,,,,,,,,,,,,,3,,,47,55
1325519,note_off,119,0,4,,,,,,,,,,,,,,,3,,,45,0
1325520,note_on,1,0,4,,,,,,,,,,,,,,,3,,,45,56
1325520,note_on,0,0,1,,,,,,,,,,,,,,,0,,,85,67
1325520,note_off,240,0,1,,,,,,,,,,,,,,,0,,,86,0
1325640,note_on,0,0,4,,,,,,,,,,,,,,,3,,,47,56
1325640,note_off,120,0,4,,,,,,,,,,,,,,,3,,,47,0
1325758,note_off,118,0,4,,,,,,,,,,,,,,,3,,,45,0
1325760,note_on,0,0,1,,,,,,,,,,,,,,,0,,,86,67
1325760,note_off,240,0,1,,,,,,,,,,,,,,,0,,,85,0
1325760,note_on,2,0,4,,,,,,,,,,,,,,,3,,,45,56
1325878,note_off,118,0,4,,,,,,,,,,,,,,,3,,,47,0
1325880,note_on,2,0,4,,,,,,,,,,,,,,,3,,,47,57
1325999,note_off,119,0,4,,,,,,,,,,,,,,,3,,,45,0
1326000,note_on,1,0,4,,,,,,,,,,,,,,,3,,,45,57
1326000,note_off,240,0,1,,,,,,,,,,,,,,,0,,,86,0
1326000,note_on,0,0,1,,,,,,,,,,,,,,,0,,,76,68
1326000,note_on,1440,0,2,,,,,,,,,,,,,,,1,,,66,69
1326120,note_on,0,0,4,,,,,,,,,,,,,,,3,,,47,57
1326120,note_off,120,0,4,,,,,,,,,,,,,,,3,,,47,0
1326238,note_off,118,0,4,,,,,,,,,,,,,,,3,,,45,0
1326240,note_on,2,0,4,,,,,,,,,,,,,,,3,,,45,58
1326240,note_on,0,0,1,,,,,,,,,,,,,,,0,,,74,69
1326240,note_off,240,0,1,,,,,,,,,,,,,,,0,,,76,0
1326358,note_off,118,0,4,,,,,,,,,,,,,,,3,,,47,0
1326360,note_on,2,0,4,,,,,,,,,,,,,,,3,,,47,58
1326479,note_off,119,0,4,,,,,,,,,,,,,,,3,,,45,0
1326480,note_off,480,0,2,,,,,,,,,,,,,,,1,,,66,0
1326480,note_on,0,0,1,,,,,,,,,,,,,,,0,,,73,70
1326480,note_off,240,0,1,,,,,,,,,,,,,,,0,,,74,0
1326480,note_on,1,0,4,,,,,,,,,,,,,,,3,,,45,59
1326600,note_off,120,0,4,,,,,,,,,,,,,,,3,,,47,0
1326600,note_on,0,0,4,,,,,,,,,,,,,,,3,,,47,59
1326718,note_off,118,0,4,,,,,,,,,,,,,,,3,,,45,0
1326720,note_on,2,0,4,,,,,,,,,,,,,,,3,,,45,59
1326720,note_off,240,0,1,,,,,,,,,,,,,,,0,,,73,0
1326720,note_on,0,0,1,,,,,,,,,,,,,,,0,,,74,70
1326838,note_off,118,0,4,,,,,,,,,,,,,,,3,,,47,0
1326840,note_on,2,0,4,,,,,,,,,,,,,,,3,,,47,60
1326959,note_off,119,0,4,,,,,,,,,,,,,,,3,,,45,0
1326960,note_on,480,0,2,,,,,,,,,,,,,,,1,,,66,72
1326960,note_off,240,0,1,,,,,,,,,,,,,,,0,,,74,0
1326960,note_on,1,0,4,,,,,,,,,,,,,,,3,,,45,60
1326960,note_on,0,0,1,,,,,,,,,,,,,,,0,,,76,71
1327080,note_off,120,0,4,,,,,,,,,,,,,,,3,,,47,0
1327080,note_on,0,0,4,,,,,,,,,,,,,,,3,,,47,60
1327198,note_off,118,0,4,,,,,,,,,,,,,,,3,,,45,0
1327200,note_on,2,0,4,,,,,,,,,,,,,,,3,,,45,61
1327200,note_off,240,0,1,,,,,,,,,,,,,,,0,,,76,0
1327200,note_on,0,0,1,,,,,,,,,,,,,,,0,,,74,72
1327318,note_off,118,0,4,,,,,,,,,,,,,,,3,,,47,0
1327320,note_on,2,0,4,,,,,,,,,,,,,,,3,,,47,61
1327439,note_off,119,0,4,,,,,,,,,,,,,,,3,,,45,0
1327440,note_on,1,0,4,,,,,,,,,,,,,,,3,,,45,61
1327440,note_off,480,0,2,,,,,,,,,,,,,,,1,,,66,0
1327440,note_on,0,0,1,,,,,,,,,,,,,,,0,,,73,73
1327440,note_off,240,0,1,,,,,,,,,,,,,,,0,,,74,0
1327560,note_off,120,0,4,,,,,,,,,,,,,,,3,,,47,0
1327560,note_on,0,0,4,,,,,,,,,,,,,,,3,,,47,62
1327678,note_off,118,0,4,,,,,,,,,,,,,,,3,,,45,0
1327680,note_on,0,0,1,,,,,,,,,,,,,,,0,,,74,74
1327680,note_on,2,0,4,,,,,,,,,,,,,,,3,,,45,62
1327680,note_off,240,0,1,,,,,,,,,,,,,,,0,,,73,0
1327798,note_off,118,0,4,,,,,,,,,,,,,,,3,,,47,0
1327800,note_on,2,0,4,,,,,,,,,,,,,,,3,,,47,63
1327919,note_off,119,0,4,,,,,,,,,,,,,,,3,,,45,0
1327920,note_on,480,0,2,,,,,,,,,,,,,,,1,,,66,74
1327920,note_on,1,0,4,,,,,,,,,,,,,,,3,,,45,63
1327920,note_on,0,0,1,,,,,,,,,,,,,,,0,,,76,75
1327920,note_off,240,0,1,,,,,,,,,,,,,,,0,,,74,0
1328040,note_on,0,0,4,,,,,,,,,,,,,,,3,,,47,63
1328040,note_off,120,0,4,,,,,,,,,,,,,,,3,,,47,0
1328158,note_off,118,0,4,,,,,,,,,,,,,,,3,,,45,0
1328160,note_on,2,0,4,,,,,,,,,,,,,,,3,,,45,64
1328160,note_off,240,0,1,,,,,,,,,,,,,,,0,,,76,0
1328160,note_on,0,0,1,,,,,,,,,,,,,,,0,,,74,76
1328278,note_off,118,0,4,,,,,,,,,,,,,,,3,,,47,0
1328280,note_on,2,0,4,,,,,,,,,,,,,,,3,,,47,64
1328399,note_off,119,0,4,,,,,,,,,,,,,,,3,,,45,0
1328400,note_off,240,0,1,,,,,,,,,,,,,,,0,,,74,0
1328400,note_on,0,0,1,,,,,,,,,,,,,,,0,,,73,77
1328400,note_off,480,0,2,,,,,,,,,,,,,,,1,,,66,0
1328400,note_on,1,0,4,,,,,,,,,,,,,,,3,,,45,64
1328520,note_off,120,0,4,,,,,,,,,,,,,,,3,,,47,0
1328520,note_on,0,0,4,,,,,,,,,,,,,,,3,,,47,65
1328638,note_off,118,0,4,,,,,,,,,,,,,,,3,,,45,0
1328640,note_on,0,0,1,,,,,,,,,,,,,,,0,,,74,77
1328640,note_off,240,0,1,,,,,,,,,,,,,,,0,,,73,0
1328640,note_on,2,0,4,,,,,,,,,,,,,,,3,,,45,65
1328758,note_off,118,0,4,,,,,,,,,,,,,,,3,,,47,0
1328760,note_on,2,0,4,,,,,,,,,,,,,,,3,,,47,66
1328879,note_off,119,0,4,,,,,,,,,,,,,,,3,,,45,0
1328880,note_on,0,0,1,,,,,,,,,,,,,,,0,,,76,78
1328880,note_off,240,0,1,,,,,,,,,,,,,,,0,,,74,0
1328880,note_on,480,0,2,,,,,,,,,,,,,,,1,,,66,77
1328880,note_on,1,0,4,,,,,,,,,,,,,,,3,,,45,66
1329000,note_on,0,0,4,,,,,,,,,,,,,,,3,,,47,66
1329000,note_off,120,0,4,,,,,,,,,,,,,,,3,,,47,0
1329118,note_off,118,0,4,,,,,,,,,,,,,,,3,,,45,0
1329120,note_on,2,0,4,,,,,,,,,,,,,,,3,,,45,67
1329120,note_on,0,0,1,,,,,,,,,,,,,,,0,,,74,79
1329120,note_off,240,0,1,,,,,,,,,,,,,,,0,,,76,0
1329238,note_off,118,0,4,,,,,,,,,,,,,,,3,,,47,0
1329240,note_on,2,0,4,,,,,,,,,,,,,,,3,,,47,67
1329359,note_off,119,0,4,,,,,,,,,,,,,,,3,,,45,0
1329360,note_off,480,0,2,,,,,,,,,,,,,,,1,,,66,0
1329360,note_off,240,0,1,,,,,,,,,,,,,,,0,,,74,0
1329360,note_on,1,0,4,,,,,,,,,,,,,,,3,,,45,67
1329360,note_on,0,0,1,,,,,,,,,,,,,,,0,,,73,80
1329412,note_off,52,0,4,,,,,,,,,,,,,,,3,,,47,0
1329440,note_on,28,0,4,,,,,,,,,,,,,,,3,,,47,68
1329598,note_off,158,0,4,,,,,,,,,,,,,,,3,,,45,0
1329600,note_on,2,0,4,,,,,,,,,,,,,,,3,,,43,68
1329600,note_on,0,0,4,,,,,,,,,,,,,,,3,,,45,68
1329600,note_off,240,0,1,,,,,,,,,,,,,,,0,,,73,0
1329600,note_on,0,0,1,,,,,,,,,,,,,,,0,,,74,81
1329678,note_off,78,0,4,,,,,,,,,,,,,,,3,,,47,0
1329712,note_off,34,0,4,,,,,,,,,,,,,,,3,,,45,0
1329720,set_tempo,8520,1,0,,,,,,,241935,,,,,,,,,,,,
1329720,note_on,8,0,4,,,,,,,,,,,,,,,3,,,45,68
1329839,note_off,119,0,4,,,,,,,,,,,,,,,3,,,43,0
1329840,note_on,1,0,4,,,,,,,,,,,,,,,3,,,31,69
1329840,note_on,0,0,4,,,,,,,,,,,,,,,3,,,43,69
1329840,note_off,240,0,1,,,,,,,,,,,,,,,0,,,74,0
1329840,note_on,0,0,1,,,,,,,,,,,,,,,0,,,71,75
1329840,set_tempo,120,1,0,,,,,,,240000,,,,,,,,,,,,
1329840,note_on,480,0,2,,,,,,,,,,,,,,,1,,,67,75
1329870,note_off,30,0,4,,,,,,,,,,,,,,,3,,,45,0
1330320,note_off,450,0,4,,,,,,,,,,,,,,,3,,,31,0
1330320,note_off,480,0,1,,,,,,,,,,,,,,,0,,,71,0
1330320,note_off,480,0,2,,,,,,,,,,,,,,,1,,,67,0
1330320,note_off,0,0,4,,,,,,,,,,,,,,,3,,,43,0
1330800,note_on,480,0,4,,,,,,,,,,,,,,,3,,,53,48
1331040,note_on,0,0,4,,,,,,,,,,,,,,,3,,,51,48
1331040,note_off,240,0,4,,,,,,,,,,,,,,,3,,,53,0
1331280,note_on,960,0,2,,,,,,,,,,,,,,,1,,,55,44
1331280,note_on,960,0,1,,,,,,,,,,,,,,,0,,,61,49
1331280,note_off,240,0,4,,,,,,,,,,,,,,,3,,,51,0
1331280,note_on,0,0,4,,,,,,,,,,,,,,,3,,,50,49
1331520,note_on,0,0,4,,,,,,,,,,,,,,,3,,,51,49
1331520,note_off,240,0,4,,,,,,,,,,,,,,,3,,,50,0
1331760,note_on,0,0,1,,,,,,,,,,,,,,,0,,,62,45
1331760,note_off,480,0,2,,,,,,,,,,,,,,,1,,,55,0
1331760,note_on,0,0,2,,,,,,,,,,,,,,,1,,,54,45
1331760,note_off,480,0,1,,,,,,,,,,,,,,,0,,,61,0
1331760,note_on,0,0,4,,,,,,,,,,,,,,,3,,,50,50
1331760,note_off,240,0,4,,,,,,,,,,,,,,,3,,,51,0
1332240,note_off,480,0,4,,,,,,,,,,,,,,,3,,,50,0
1332240,note_off,480,0,2,,,,,,,,,,,,,,,1,,,54,0
1332240,note_off,480,0,1,,,,,,,,,,,,,,,0,,,62,0
1332720,note_on,480,0,1,,,,,,,,,,,,,,,0,,,76,47
1332960,note_on,0,0,1,,,,,,,,,,,,,,,0,,,74,47
1332960,note_off,240,0,1,,,,,,,,,,,,,,,0,,,76,0
1333200,note_on,960,0,4,,,,,,,,,,,,,,,3,,,62,56
1333200,note_off,240,0,1,,,,,,,,,,,,,,,0,,,74,0
1333200,note_on,0,0,4,,,,,,,,,,,,,,,3,,,66,56
1333200,note_on,0,0,1,,,,,,,,,,,,,,,0,,,73,48
1333440,note_off,240,0,1,,,,,,,,,,,,,,,0,,,73,0
1333440,note_on,0,0,1,,,,,,,,,,,,,,,0,,,74,48
1333680,note_on,0,0,4,,,,,,,,,,,,,,,3,,,55,51
1333680,note_on,0,0,1,,,,,,,,,,,,,,,0,,,71,49
1333680,note_off,480,0,4,,,,,,,,,,,,,,,3,,,62,0
1333680,note_off,0,0,4,,,,,,,,,,,,,,,3,,,66,0
1333680,note_on,0,0,4,,,,,,,,,,,,,,,3,,,67,51
1333680,note_off,240,0,1,,,,,,,,,,,,,,,0,,,74,0
1334160,note_off,480,0,4,,,,,,,,,,,,,,,3,,,67,0
1334160,note_off,480,0,1,,,,,,,,,,,,,,,0,,,71,0
1334160,note_off,0,0,4,,,,,,,,,,,,,,,3,,,55,0
1334640,note_on,480,0,4,,,,,,,,,,,,,,,3,,,53,54
1334880,note_off,240,0,4,,,,,,,,,,,,,,,3,,,53,0
1334880,note_on,0,0,4,,,,,,,,,,,,,,,3,,,51,55
1335120,note_on,0,0,4,,,,,,,,,,,,,,,3,,,50,55
1335120,note_on,2880,0,2,,,,,,,,,,,,,,,1,,,55,52
1335120,note_on,960,0,1,,,,,,,,,,,,,,,0,,,61,55
1335120,note_off,240,0,4,,,,,,,,,,,,,,,3,,,51,0
1335360,note_on,0,0,4,,,,,,,,,,,,,,,3,,,51,56
1335360,note_off,240,0,4,,,,,,,,,,,,,,,3,,,50,0
1335600,note_on,0,0,4,,,,,,,,,,,,,,,3,,,50,56
1335600,note_off,240,0,4,,,,,,,,,,,,,,,3,,,51,0
1335600,note_on,0,0,2,,,,,,,,,,,,,,,1,,,54,52
1335600,note_off,480,0,1,,,,,,,,,,,,,,,0,,,61,0
1335600,note_off,480,0,2,,,,,,,,,,,,,,,1,,,55,0
1335600,note_on,0,0,1,,,,,,,,,,,,,,,0,,,62,50
1336080,note_off,480,0,1,,,,,,,,,,,,,,,0,,,62,0
1336080,note_off,480,0,4,,,,,,,,,,,,,,,3,,,50,0
1336080,note_off,480,0,2,,,,,,,,,,,,,,,1,,,54,0
1336560,note_on,480,0,1,,,,,,,,,,,,,,,0,,,88,54
1336800,note_off,240,0,1,,,,,,,,,,,,,,,0,,,88,0
1336800,note_on,0,0,1,,,,,,,,,,,,,,,0,,,86,55
1337040,note_off,240,0,1,,,,,,,,,,,,,,,0,,,86,0
1337040,note_on,960,0,4,,,,,,,,,,,,,,,3,,,74,63
1337040,note_on,0,0,4,,,,,,,,,,,,,,,3,,,78,63
1337040,note_on,0,0,1,,,,,,,,,,,,,,,0,,,85,55
1337280,note_on,0,0,1,,,,,,,,,,,,,,,0,,,86,56
1337280,note_off,240,0,1,,,,,,,,,,,,,,,0,,,85,0
1337520,note_on,0,0,4,,,,,,,,,,,,,,,3,,,79,60
1337520,note_on,0,0,4,,,,,,,,,,,,,,,3,,,71,60
1337520,note_off,0,0,4,,,,,,,,,,,,,,,3,,,78,0
1337520,note_off,480,0,4,,,,,,,,,,,,,,,3,,,74,0
1337520,note_on,0,0,1,,,,,,,,,,,,,,,0,,,83,56
1337520,note_off,240,0,1,,,,,,,,,,,,,,,0,,,86,0
1338000,note_off,480,0,4,,,,,,,,,,,,,,,3,,,71,0
1338000,note_off,480,0,1,,,,,,,,,,,,,,,0,,,83,0
1338000,note_off,0,0,4,,,,,,,,,,,,,,,3,,,79,0
1338480,note_on,480,0,4,,,,,,,,,,,,,,,3,,,53,60
1338690,note_off,210,0,4,,,,,,,,,,,,,,,3,,,53,0
1338720,note_on,30,0,4,,,,,,,,,,,,,,,3,,,51,61
1338935,note_off,215,0,4,,,,,,,,,,,,,,,3,,,51,0
1338960,note_on,25,0,4,,,,,,,,,,,,,,,3,,,50,62
1338960,note_on,2880,0,2,,,,,,,,,,,,,,,1,,,55,61
1338960,note_on,960,0,1,,,,,,,,,,,,,,,0,,,61,63
1339181,note_off,221,0,4,,,,,,,,,,,,,,,3,,,50,0
1339200,note_on,19,0,4,,,,,,,,,,,,,,,3,,,51,63
1339320,note_off,360,0,2,,,,,,,,,,,,,,,1,,,55,0
1339320,note_off,360,0,1,,,,,,,,,,,,,,,0,,,61,0
1339426,note_off,226,0,4,,,,,,,,,,,,,,,3,,,51,0
1339440,note_on,14,0,4,,,,,,,,,,,,,,,3,,,53,64
1339672,note_off,232,0,4,,,,,,,,,,,,,,,3,,,53,0
1339680,note_on,8,0,4,,,,,,,,,,,,,,,3,,,51,64
1339917,note_off,237,0,4,,,,,,,,,,,,,,,3,,,51,0
1339920,note_on,3,0,4,,,,,,,,,,,,,,,3,,,50,65
1339920,note_on,600,0,1,,,,,,,,,,,,,,,0,,,67,65
1339920,note_on,600,0,2,,,,,,,,,,,,,,,1,,,61,64
1340160,note_on,240,0,4,,,,,,,,,,,,,,,3,,,51,66
1340162,note_off,2,0,4,,,,,,,,,,,,,,,3,,,50,0
1340280,note_off,360,0,2,,,,,,,,,,,,,,,1,,,61,0
1340280,note_off,360,0,1,,,,,,,,,,,,,,,0,,,67,0
1340400,note_on,238,0,4,,,,,,,,,,,,,,,3,,,53,67
1340408,note_off,8,0,4,,,,,,,,,,,,,,,3,,,51,0
1340640,note_on,232,0,4,,,,,,,,,,,,,,,3,,,51,68
1340653,note_off,13,0,4,,,,,,,,,,,,,,,3,,,53,0
1340880,note_on,600,0,2,,,,,,,,,,,,,,,1,,,67,66
1340880,note_on,600,0,1,,,,,,,,,,,,,,,0,,,73,68
1340880,note_on,227,0,4,,,,,,,,,,,,,,,3,,,50,68
1340899,note_off,19,0,4,,,,,,,,,,,,,,,3,,,51,0
1341120,note_on,221,0,4,,,,,,,,,,,,,,,3,,,51,69
1341144,note_off,24,0,4,,,,,,,,,,,,,,,3,,,50,0
1341240,note_off,360,0,1,,,,,,,,,,,,,,,0,,,73,0
1341240,note_off,360,0,2,,,,,,,,,,,,,,,1,,,67,0
1341360,note_on,216,0,4,,,,,,,,,,,,,,,3,,,53,70
1341389,note_off,29,0,4,,,,,,,,,,,,,,,3,,,51,0
1341600,note_on,211,0,4,,,,,,,,,,,,,,,3,,,51,71
1341635,note_off,35,0,4,,,,,,,,,,,,,,,3,,,53,0
1341840,note_on,600,0,2,,,,,,,,,,,,,,,1,,,73,69
1341840,note_on,205,0,4,,,,,,,,,,,,,,,3,,,50,72
1341840,note_on,600,0,1,,,,,,,,,,,,,,,0,,,79,71
1341880,note_off,40,0,4,,,,,,,,,,,,,,,3,,,51,0
1342080,note_on,200,0,4,,,,,,,,,,,,,,,3,,,51,72
1342126,note_off,46,0,4,,,,,,,,,,,,,,,3,,,50,0
1342200,note_off,360,0,1,,,,,,,,,,,,,,,0,,,79,0
1342200,note_off,360,0,2,,,,,,,,,,,,,,,1,,,73,0
1342320,note_on,194,0,4,,,,,,,,,,,,,,,3,,,53,73
1342371,note_off,51,0,4,,,,,,,,,,,,,,,3,,,51,0
1342560,note_on,189,0,4,,,,,,,,,,,,,,,3,,,51,74
1342616,note_off,56,0,4,,,,,,,,,,,,,,,3,,,53,0
1342800,note_on,184,0,4,,,,,,,,,,,,,,,3,,,50,75
1342800,note_on,600,0,2,,,,,,,,,,,,,,,1,,,79,71
1342800,note_on,600,0,1,,,,,,,,,,,,,,,0,,,85,73
1342862,note_off,62,0,4,,,,,,,,,,,,,,,3,,,51,0
1343040,note_on,178,0,4,,,,,,,,,,,,,,,3,,,51,76
1343107,note_off,67,0,4,,,,,,,,,,,,,,,3,,,50,0
1343160,note_off,360,0,2,,,,,,,,,,,,,,,1,,,79,0
1343160,note_off,360,0,1,,,,,,,,,,,,,,,0,,,85,0
1343280,note_on,173,0,4,,,,,,,,,,,,,,,3,,,53,76
1343352,note_off,72,0,4,,,,,,,,,,,,,,,3,,,51,0
1343520,note_on,168,0,4,,,,,,,,,,,,,,,3,,,51,77
1343598,note_off,78,0,4,,,,,,,,,,,,,,,3,,,53,0
1343760,note_on,600,0,2,,,,,,,,,,,,,,,1,,,79,73
1343760,note_on,162,0,4,,,,,,,,,,,,,,,3,,,50,78
1343760,note_on,600,0,1,,,,,,,,,,,,,,,0,,,85,76
1343843,note_off,83,0,4,,,,,,,,,,,,,,,3,,,51,0
1344000,note_on,157,0,4,,,,,,,,,,,,,,,3,,,51,79
1344089,note_off,89,0,4,,,,,,,,,,,,,,,3,,,50,0
1344120,note_off,360,0,2,,,,,,,,,,,,,,,1,,,79,0
1344120,note_off,360,0,1,,,,,,,,,,,,,,,0,,,85,0
1344240,note_on,151,0,4,,,,,,,,,,,,,,,3,,,53,80
1344334,note_off,94,0,4,,,,,,,,,,,,,,,3,,,51,0
1344480,note_on,146,0,4,,,,,,,,,,,,,,,3,,,51,80
1344579,note_off,99,0,4,,,,,,,,,,,,,,,3,,,53,0
1344720,note_on,600,0,2,,,,,,,,,,,,,,,1,,,79,76
1344720,note_on,600,0,1,,,,,,,,,,,,,,,0,,,85,79
1344720,note_on,141,0,4,,,,,,,,,,,,,,,3,,,50,81
1344825,note_off,105,0,4,,,,,,,,,,,,,,,3,,,51,0
1344960,note_on,135,0,4,,,,,,,,,,,,,,,3,,,51,82
1345070,note_off,110,0,4,,,,,,,,,,,,,,,3,,,50,0
1345080,note_off,360,0,2,,,,,,,,,,,,,,,1,,,79,0
1345080,note_off,360,0,1,,,,,,,,,,,,,,,0,,,85,0
1345095,set_tempo,15255,1,0,,,,,,,241935,,,,,,,,,,,,
1345200,note_on,120,0,2,,,,,,,,,,,,,,,1,,,78,77
1345200,note_on,120,0,1,,,,,,,,,,,,,,,0,,,88,74
1345200,note_on,130,0,4,,,,,,,,,,,,,,,3,,,38,83
1345200,note_on,0,0,4,,,,,,,,,,,,,,,3,,,50,83
1345316,note_off,116,0,4,,,,,,,,,,,,,,,3,,,51,0
1345415,note_off,215,0,2,,,,,,,,,,,,,,,1,,,78,0
1345415,note_off,215,0,1,,,,,,,,,,,,,,,0,,,88,0
1345440,note_on,25,0,1,,,,,,,,,,,,,,,0,,,86,75
1345640,note_off,0,0,4,,,,,,,,,,,,,,,3,,,50,0
1345640,note_off,324,0,4,,,,,,,,,,,,,,,3,,,38,0
1345661,note_off,221,0,1,,,,,,,,,,,,,,,0,,,86,0
1345680,note_on,19,0,1,,,,,,,,,,,,,,,0,,,85,75
1345680,set_tempo,585,1,0,,,,,,,240000,,,,,,,,,,,,
1345680,note_on,40,0,4,,,,,,,,,,,,,,,3,,,54,82
1345908,note_off,228,0,1,,,,,,,,,,,,,,,0,,,85,0
1345920,note_on,12,0,1,,,,,,,,,,,,,,,0,,,86,76
1346154,note_off,234,0,1,,,,,,,,,,,,,,,0,,,86,0
1346160,note_on,6,0,1,,,,,,,,,,,,,,,0,,,88,76
1346400,note_on,240,0,1,,,,,,,,,,,,,,,0,,,86,77
1346401,note_off,1,0,1,,,,,,,,,,,,,,,0,,,88,0
1346640,note_off,960,0,4,,,,,,,,,,,,,,,3,,,54,0
1346640,note_on,0,0,4,,,,,,,,,,,,,,,3,,,57,84
1346640,note_on,239,0,1,,,,,,,,,,,,,,,0,,,85,78
1346647,note_off,7,0,1,,,,,,,,,,,,,,,0,,,86,0
1346880,note_on,233,0,1,,,,,,,,,,,,,,,0,,,86,78
1346894,note_off,14,0,1,,,,,,,,,,,,,,,0,,,85,0
1347120,note_on,226,0,1,,,,,,,,,,,,,,,0,,,88,79
1347140,note_off,20,0,1,,,,,,,,,,,,,,,0,,,86,0
1347360,note_on,220,0,1,,,,,,,,,,,,,,,0,,,86,80
1347386,note_off,26,0,1,,,,,,,,,,,,,,,0,,,88,0
1347600,note_on,214,0,1,,,,,,,,,,,,,,,0,,,85,80
1347600,note_off,960,0,4,,,,,,,,,,,,,,,3,,,57,0
1347600,note_on,0,0,4,,,,,,,,,,,,,,,3,,,60,86
1347633,note_off,33,0,1,,,,,,,,,,,,,,,0,,,86,0
1347840,note_on,207,0,1,,,,,,,,,,,,,,,0,,,86,81
1347879,note_off,39,0,1,,,,,,,,,,,,,,,0,,,85,0
1348080,note_on,201,0,1,,,,,,,,,,,,,,,0,,,88,81
1348126,note_off,46,0,1,,,,,,,,,,,,,,,0,,,86,0
1348320,note_on,194,0,1,,,,,,,,,,,,,,,0,,,86,82
1348372,note_off,52,0,1,,,,,,,,,,,,,,,0,,,88,0
1348560,note_on,188,0,1,,,,,,,,,,,,,,,0,,,85,83
1348560,note_off,960,0,4,,,,,,,,,,,,,,,3,,,60,0
1348560,note_on,0,0,4,,,,,,,,,,,,,,,3,,,66,88
1348619,note_off,59,0,1,,,,,,,,,,,,,,,0,,,86,0
1348800,note_on,181,0,1,,,,,,,,,,,,,,,0,,,86,83
1348865,note_off,65,0,1,,,,,,,,,,,,,,,0,,,85,0
1349040,note_on,175,0,1,,,,,,,,,,,,,,,0,,,88,84
1349112,note_off,72,0,1,,,,,,,,,,,,,,,0,,,86,0
1349280,note_on,168,0,1,,,,,,,,,,,,,,,0,,,86,85
1349358,note_off,78,0,1,,,,,,,,,,,,,,,0,,,88,0
1349520,note_off,960,0,4,,,,,,,,,,,,,,,3,,,66,0
1349520,note_on,0,0,4,,,,,,,,,,,,,,,3,,,69,90
1349520,note_on,162,0,1,,,,,,,,,,,,,,,0,,,85,85
1349605,note_off,85,0,1,,,,,,,,,,,,,,,0,,,86,0
1349760,note_off,240,0,4,,,,,,,,,,,,,,,3,,,69,0
1349760,note_on,155,0,1,,,,,,,,,,,,,,,0,,,86,86
1349851,note_off,91,0,1,,,,,,,,,,,,,,,0,,,85,0
1350000,note_on,240,0,4,,,,,,,,,,,,,,,3,,,72,91
1350000,note_on,149,0,1,,,,,,,,,,,,,,,0,,,88,86
1350098,note_off,98,0,1,,,,,,,,,,,,,,,0,,,86,0
1350240,note_off,240,0,4,,,,,,,,,,,,,,,3,,,72,0
1350240,note_on,142,0,1,,,,,,,,,,,,,,,0,,,86,87
1350344,note_off,104,0,1,,,,,,,,,,,,,,,0,,,88,0
1350480,note_on,240,0,4,,,,,,,,,,,,,,,3,,,78,92
1350480,note_on,136,0,1,,,,,,,,,,,,,,,0,,,85,88
1350591,note_off,111,0,1,,,,,,,,,,,,,,,0,,,86,0
1350720,note_off,240,0,4,,,,,,,,,,,,,,,3,,,78,0
1350720,note_on,129,0,1,,,,,,,,,,,,,,,0,,,86,88
1350837,note_off,117,0,1,,,,,,,,,,,,,,,0,,,85,0
1350960,note_on,240,0,4,,,,,,,,,,,,,,,3,,,81,93
1350960,note_on,123,0,1,,,,,,,,,,,,,,,0,,,88,89
1351084,note_off,124,0,1,,,,,,,,,,,,,,,0,,,86,0
1351200,note_on,116,0,1,,,,,,,,,,,,,,,0,,,86,90
1351200,note_off,240,0,4,,,,,,,,,,,,,,,3,,,81,0
1351330,note_off,130,0,1,,,,,,,,,,,,,,,0,,,88,0
1351440,note_on,240,0,4,,,,,,,,,,,,,,,3,,,83,94
1351440,note_on,110,0,1,,,,,,,,,,,,,,,0,,,85,90
1351577,note_off,137,0,1,,,,,,,,,,,,,,,0,,,86,0
1351680,note_on,103,0,1,,,,,,,,,,,,,,,0,,,86,91
1351680,note_off,240,0,4,,,,,,,,,,,,,,,3,,,83,0
1351823,note_off,143,0,1,,,,,,,,,,,,,,,0,,,85,0
1351920,note_on,97,0,1,,,,,,,,,,,,,,,0,,,88,92
1351920,note_on,240,0,4,,,,,,,,,,,,,,,3,,,84,95
1352069,note_off,149,0,1,,,,,,,,,,,,,,,0,,,86,0
1352160,note_on,91,0,1,,,,,,,,,,,,,,,0,,,86,92
1352160,note_off,240,0,4,,,,,,,,,,,,,,,3,,,84,0
1352316,note_off,156,0,1,,,,,,,,,,,,,,,0,,,88,0
1352400,note_on,84,0,1,,,,,,,,,,,,,,,0,,,85,93
1352400,note_on,240,0,4,,,,,,,,,,,,,,,3,,,78,89
1352562,note_off,162,0,1,,,,,,,,,,,,,,,0,,,86,0
1352640,note_off,240,0,4,,,,,,,,,,,,,,,3,,,78,0
1352640,note_on,78,0,1,,,,,,,,,,,,,,,0,,,86,93
1352809,note_off,169,0,1,,,,,,,,,,,,,,,0,,,85,0
1352880,note_on,240,0,4,,,,,,,,,,,,,,,3,,,79,75
1352880,note_on,71,0,1,,,,,,,,,,,,,,,0,,,83,87
1353055,note_off,175,0,1,,,,,,,,,,,,,,,0,,,86,0
1353120,note_off,240,0,4,,,,,,,,,,,,,,,3,,,79,0
1353360,note_off,305,0,1,,,,,,,,,,,,,,,0,,,83,0
1353360,note_on,240,0,4,,,,,,,,,,,,,,,3,,,67,72
1353600,note_off,240,0,4,,,,,,,,,,,,,,,3,,,67,0
1353840,note_on,480,0,1,,,,,,,,,,,,,,,0,,,76,68
1354080,note_on,0,0,1,,,,,,,,,,,,,,,0,,,74,66
1354080,note_off,240,0,1,,,,,,,,,,,,,,,0,,,76,0
1354320,note_on,0,0,1,,,,,,,,,,,,,,,0,,,73,64
1354320,note_off,240,0,1,,,,,,,,,,,,,,,0,,,74,0
1354320,note_on,720,0,4,,,,,,,,,,,,,,,3,,,62,64
1354560,note_on,0,0,1,,,,,,,,,,,,,,,0,,,74,62
1354560,note_off,240,0,4,,,,,,,,,,,,,,,3,,,62,0
1354560,note_off,240,0,1,,,,,,,,,,,,,,,0,,,73,0
1354800,note_off,240,0,1,,,,,,,,,,,,,,,0,,,74,0
1354800,note_on,0,0,1,,,,,,,,,,,,,,,0,,,71,60
1355280,note_off,480,0,1,,,,,,,,,,,,,,,0,,,71,0
1355280,note_on,720,0,4,,,,,,,,,,,,,,,3,,,55,57
1355520,note_off,240,0,4,,,,,,,,,,,,,,,3,,,55,0
1355760,note_on,480,0,1,,,,,,,,,,,,,,,0,,,64,53
1356000,note_off,240,0,1,,,,,,,,,,,,,,,0,,,64,0
1356000,note_on,0,0,1,,,,,,,,,,,,,,,0,,,62,52
1356240,note_on,720,0,4,,,,,,,,,,,,,,,3,,,50,50
1356240,note_off,240,0,1,,,,,,,,,,,,,,,0,,,62,0
1356240,note_on,0,0,1,,,,,,,,,,,,,,,0,,,61,50
1356480,note_off,240,0,1,,,,,,,,,,,,,,,0,,,61,0
1356480,note_on,0,0,1,,,,,,,,,,,,,,,0,,,62,48
1356480,note_off,240,0,4,,,,,,,,,,,,,,,3,,,50,0
1356720,note_off,240,0,1,,,,,,,,,,,,,,,0,,,62,0
1356720,note_on,0,0,1,,,,,,,,,,,,,,,0,,,59,46
1357200,note_on,720,0,4,,,,,,,,,,,,,,,3,,,43,46
1357200,note_off,480,0,1,,,,,,,,,,,,,,,0,,,59,0
1357440,note_off,240,0,4,,,,,,,,,,,,,,,3,,,43,0
1357680,control_change,240,0,4,,,,,,,,,,,,,64,0,3,,,,
1357680,note_on,0,0,4,,,,,,,,,,,,,,,3,,,40,31
1357920,note_on,0,0,4,,,,,,,,,,,,,,,3,,,38,32
1357920,note_off,240,0,4,,,,,,,,,,,,,,,3,,,40,0
1358160,note_on,240,0,4,,,,,,,,,,,,,,,3,,,37,34
1358168,note_off,8,0,4,,,,,,,,,,,,,,,3,,,38,0
1358400,note_on,232,0,4,,,,,,,,,,,,,,,3,,,38,35
1358417,note_off,17,0,4,,,,,,,,,,,,,,,3,,,37,0
1358640,note_on,223,0,4,,,,,,,,,,,,,,,3,,,40,37
1358665,note_off,25,0,4,,,,,,,,,,,,,,,3,,,38,0
1358880,note_on,215,0,4,,,,,,,,,,,,,,,3,,,38,38
1358913,note_off,33,0,4,,,,,,,,,,,,,,,3,,,40,0
1359120,note_on,207,0,4,,,,,,,,,,,,,,,3,,,37,40
1359162,note_off,42,0,4,,,,,,,,,,,,,,,3,,,38,0
1359360,note_on,198,0,4,,,,,,,,,,,,,,,3,,,38,41
1359410,note_off,50,0,4,,,,,,,,,,,,,,,3,,,37,0
1359600,note_on,190,0,4,,,,,,,,,,,,,,,3,,,40,43
1359659,note_off,59,0,4,,,,,,,,,,,,,,,3,,,38,0
1359840,note_on,181,0,4,,,,,,,,,,,,,,,3,,,38,44
1359907,note_off,67,0,4,,,,,,,,,,,,,,,3,,,40,0
1360080,note_on,173,0,4,,,,,,,,,,,,,,,3,,,37,46
1360156,note_off,76,0,4,,,,,,,,,,,,,,,3,,,38,0
1360320,note_on,164,0,4,,,,,,,,,,,,,,,3,,,38,47
1360404,note_off,84,0,4,,,,,,,,,,,,,,,3,,,37,0
1360560,note_on,156,0,4,,,,,,,,,,,,,,,3,,,40,49
1360653,note_off,93,0,4,,,,,,,,,,,,,,,3,,,38,0
1360800,note_on,147,0,4,,,,,,,,,,,,,,,3,,,38,50
1360901,note_off,101,0,4,,,,,,,,,,,,,,,3,,,40,0
1361040,note_on,139,0,4,,,,,,,,,,,,,,,3,,,37,52
1361150,note_off,110,0,4,,,,,,,,,,,,,,,3,,,38,0
1361280,note_on,130,0,4,,,,,,,,,,,,,,,3,,,38,53
1361398,note_off,118,0,4,,,,,,,,,,,,,,,3,,,37,0
1361520,note_on,122,0,4,,,,,,,,,,,,,,,3,,,40,56
1361647,note_off,127,0,4,,,,,,,,,,,,,,,3,,,38,0
1361760,note_on,113,0,4,,,,,,,,,,,,,,,3,,,38,58
1361895,note_off,135,0,4,,,,,,,,,,,,,,,3,,,40,0
1362000,note_on,105,0,4,,,,,,,,,,,,,,,3,,,37,60
1362144,note_off,144,0,4,,,,,,,,,,,,,,,3,,,38,0
1362240,note_on,96,0,4,,,,,,,,,,,,,,,3,,,38,61
1362392,note_off,152,0,4,,,,,,,,,,,,,,,3,,,37,0
1362480,note_on,88,0,4,,,,,,,,,,,,,,,3,,,40,63
1362640,note_off,160,0,4,,,,,,,,,,,,,,,3,,,38,0
1362720,note_on,80,0,4,,,,,,,,,,,,,,,3,,,38,65
1362889,note_off,169,0,4,,,,,,,,,,,,,,,3,,,40,0
1362960,note_on,71,0,4,,,,,,,,,,,,,,,3,,,37,67
1363137,note_off,177,0,4,,,,,,,,,,,,,,,3,,,38,0
1363200,note_on,63,0,4,,,,,,,,,,,,,,,3,,,38,69
1363386,note_off,186,0,4,,,,,,,,,,,,,,,3,,,37,0
1363440,note_on,54,0,4,,,,,,,,,,,,,,,3,,,40,71
1363634,note_off,194,0,4,,,,,,,,,,,,,,,3,,,38,0
1363680,note_on,46,0,4,,,,,,,,,,,,,,,3,,,38,73
1363883,note_off,203,0,4,,,,,,,,,,,,,,,3,,,40,0
1363920,note_on,37,0,4,,,,,,,,,,,,,,,3,,,37,75
1364131,note_off,211,0,4,,,,,,,,,,,,,,,3,,,38,0
1364160,note_on,29,0,4,,,,,,,,,,,,,,,3,,,38,76
1364380,note_off,220,0,4,,,,,,,,,,,,,,,3,,,37,0
1364400,control_change,20,0,4,,,,,,,,,,,,,64,127,3,,,,
1364400,note_on,0,0,4,,,,,,,,,,,,,,,3,,,40,78
1364628,note_off,228,0,4,,,,,,,,,,,,,,,3,,,38,0
1364640,note_on,12,0,4,,,,,,,,,,,,,,,3,,,38,80
1364877,note_off,237,0,4,,,,,,,,,,,,,,,3,,,40,0
1364880,note_on,3,0,4,,,,,,,,,,,,,,,3,,,37,82
1365082,note_off,202,0,4,,,,,,,,,,,,,,,3,,,38,0
1365120,note_on,38,0,4,,,,,,,,,,,,,,,3,,,38,84
1365360,control_change,8160,0,1,,,,,,,,,,,,,64,0,0,,,,
1365360,note_on,0,0,1,,,,,,,,,,,,,,,0,,,78,89
1365360,note_on,0,0,1,,,,,,,,,,,,,,,0,,,72,89
1365360,note_on,0,0,1,,,,,,,,,,,,,,,0,,,81,89
1365360,note_on,0,0,1,,,,,,,,,,,,,,,0,,,84,89
1365374,note_off,254,0,4,,,,,,,,,,,,,,,3,,,37,0
1365420,control_change,60,0,1,,,,,,,,,,,,,64,127,0,,,,
1365652,note_off,278,0,4,,,,,,,,,,,,,,,3,,,38,0
1365720,note_off,0,0,1,,,,,,,,,,,,,,,0,,,84,0
1365720,note_off,0,0,1,,,,,,,,,,,,,,,0,,,72,0
1365720,note_off,300,0,1,,,,,,,,,,,,,,,0,,,78,0
1365720,note_off,0,0,1,,,,,,,,,,,,,,,0,,,81,0
1365840,note_on,120,0,1,,,,,,,,,,,,,,,0,,,78,84
1365840,note_on,0,0,1,,,,,,,,,,,,,,,0,,,81,84
1365840,note_on,0,0,1,,,,,,,,,,,,,,,0,,,72,84
1365840,note_on,0,0,1,,,,,,,,,,,,,,,0,,,84,84
1366200,note_off,360,0,1,,,,,,,,,,,,,,,0,,,78,0
1366200,note_off,0,0,1,,,,,,,,,,,,,,,0,,,81,0
1366200,note_off,0,0,1,,,,,,,,,,,,,,,0,,,84,0
1366200,note_off,0,0,1,,,,,,,,,,,,,,,0,,,72,0
1366320,control_change,668,0,4,,,,,,,,,,,,,64,0,3,,,,
1366320,control_change,120,0,1,,,,,,,,,,,,,64,0,0,,,,
1366320,note_on,0,0,4,,,,,,,,,,,,,,,3,,,40,74
1366380,control_change,60,0,4,,,,,,,,,,,,,64,127,3,,,,
1366560,note_off,180,0,4,,,,,,,,,,,,,,,3,,,40,0
1366560,note_on,0,0,4,,,,,,,,,,,,,,,3,,,38,78
1366800,note_off,240,0,4,,,,,,,,,,,,,,,3,,,38,0
1366800,note_on,0,0,4,,,,,,,,,,,,,,,3,,,37,85
1367040,note_on,0,0,4,,,,,,,,,,,,,,,3,,,38,91
1367040,note_off,240,0,4,,,,,,,,,,,,,,,3,,,37,0
1367280,note_on,0,0,1,,,,,,,,,,,,,,,0,,,72,92
1367280,note_off,240,0,4,,,,,,,,,,,,,,,3,,,38,0
1367280,note_on,960,0,1,,,,,,,,,,,,,,,0,,,66,92
1367280,note_on,0,0,1,,,,,,,,,,,,,,,0,,,78,92
1367280,control_change,0,0,1,,,,,,,,,,,,,64,0,0,,,,
1367340,control_change,60,0,1,,,,,,,,,,,,,64,127,0,,,,
1367640,note_off,0,0,1,,,,,,,,,,,,,,,0,,,78,0
1367640,note_off,300,0,1,,,,,,,,,,,,,,,0,,,66,0
1367640,note_off,0,0,1,,,,,,,,,,,,,,,0,,,72,0
1367760,note_on,0,0,1,,,,,,,,,,,,,,,0,,,78,91
1367760,note_on,0,0,1,,,,,,,,,,,,,,,0,,,72,91
1367760,note_on,120,0,1,,,,,,,,,,,,,,,0,,,66,91
1368120,note_off,0,0,1,,,,,,,,,,,,,,,0,,,78,0
1368120,note_off,360,0,1,,,,,,,,,,,,,,,0,,,66,0
1368120,note_off,0,0,1,,,,,,,,,,,,,,,0,,,72,0
1368240,control_change,120,0,1,,,,,,,,,,,,,64,0,0,,,,
1368240,control_change,960,0,4,,,,,,,,,,,,,64,0,3,,,,
1368240,note_on,0,0,4,,,,,,,,,,,,,,,3,,,43,94
1368240,note_on,0,0,4,,,,,,,,,,,,,,,3,,,31,94
1368300,control_change,60,0,4,,,,,,,,,,,,,64,127,3,,,,
1368600,note_off,300,0,4,,,,,,,,,,,,,,,3,,,43,0
1368600,note_off,0,0,4,,,,,,,,,,,,,,,3,,,31,0
1368720,note_on,0,0,4,,,,,,,,,,,,,,,3,,,43,94
1368720,note_on,120,0,4,,,,,,,,,,,,,,,3,,,31,94
1369080,note_off,360,0,4,,,,,,,,,,,,,,,3,,,31,0
1369080,note_off,0,0,4,,,,,,,,,,,,,,,3,,,43,0
1369200,note_on,0,0,1,,,,,,,,,,,,,,,0,,,67,102
1369200,note_on,0,0,1,,,,,,,,,,,,,,,0,,,74,102
1369200,control_change,0,0,1,,,,,,,,,,,,,64,0,0,,,,
1369200,note_on,960,0,1,,,,,,,,,,,,,,,0,,,71,102
1369200,note_on,0,0,1,,,,,,,,,,,,,,,0,,,79,102
1369260,control_change,60,0,1,,,,,,,,,,,,,64,127,0,,,,
1369560,note_off,0,0,1,,,,,,,,,,,,,,,0,,,74,0
1369560,note_off,0,0,1,,,,,,,,,,,,,,,0,,,67,0
1369560,note_off,300,0,1,,,,,,,,,,,,,,,0,,,71,0
1369560,note_off,0,0,1,,,,,,,,,,,,,,,0,,,79,0
1369680,note_on,0,0,1,,,,,,,,,,,,,,,0,,,79,98
1369680,note_on,120,0,1,,,,,,,,,,,,,,,0,,,71,98
1369680,note_on,0,0,1,,,,,,,,,,,,,,,0,,,67,98
1369680,note_on,0,0,1,,,,,,,,,,,,,,,0,,,74,98
1370040,note_off,360,0,1,,,,,,,,,,,,,,,0,,,71,0
1370040,note_off,0,0,1,,,,,,,,,,,,,,,0,,,74,0
1370040,note_off,0,0,1,,,,,,,,,,,,,,,0,,,67,0
1370040,note_off,0,0,1,,,,,,,,,,,,,,,0,,,79,0
1370160,control_change,120,0,1,,,,,,,,,,,,,64,0,0,,,,
1370160,control_change,1080,0,4,,,,,,,,,,,,,64,0,3,,,,
1372080,note_on,1920,0,4,,,,,,,,,,,,,,,3,,,31,103
1372080,control_change,0,0,4,,,,,,,,,,,,,64,0,3,,,,
1372080,note_on,0,0,4,,,,,,,,,,,,,,,3,,,43,103
1372140,control_change,60,0,4,,,,,,,,,,,,,64,127,3,,,,
1372440,note_off,0,0,4,,,,,,,,,,,,,,,3,,,43,0
1372440,note_off,300,0,4,,,,,,,,,,,,,,,3,,,31,0
1372560,note_on,120,0,4,,,,,,,,,,,,,,,3,,,31,102
1372560,note_on,0,0,4,,,,,,,,,,,,,,,3,,,43,102
1372920,note_off,360,0,4,,,,,,,,,,,,,,,3,,,31,0
1372920,note_off,0,0,4,,,,,,,,,,,,,,,3,,,43,0
1373040,note_on,2880,0,1,,,,,,,,,,,,,,,0,,,67,110
1373040,control_change,0,0,1,,,,,,,,,,,,,64,0,0,,,,
1373040,note_on,0,0,1,,,,,,,,,,,,,,,0,,,71,110
1373040,note_on,0,0,1,,,,,,,,,,,,,,,0,,,74,110
1373040,note_on,0,0,1,,,,,,,,,,,,,,,0,,,62,110
1373100,control_change,60,0,1,,,,,,,,,,,,,64,127,0,,,,
1373400,note_off,300,0,1,,,,,,,,,,,,,,,0,,,67,0
1373400,note_off,0,0,1,,,,,,,,,,,,,,,0,,,62,0
1373400,note_off,0,0,1,,,,,,,,,,,,,,,0,,,74,0
1373400,note_off,0,0,1,,,,,,,,,,,,,,,0,,,71,0
1373520,note_on,120,0,1,,,,,,,,,,,,,,,0,,,71,106
1373520,note_on,0,0,1,,,,,,,,,,,,,,,0,,,74,106
1373520,note_on,0,0,1,,,,,,,,,,,,,,,0,,,67,106
1373520,note_on,0,0,1,,,,,,,,,,,,,,,0,,,62,106
1373880,note_off,0,0,1,,,,,,,,,,,,,,,0,,,67,0
1373880,note_off,0,0,1,,,,,,,,,,,,,,,0,,,62,0
1373880,note_off,360,0,1,,,,,,,,,,,,,,,0,,,71,0
1373880,note_off,0,0,1,,,,,,,,,,,,,,,0,,,74,0
1374000,control_change,120,0,1,,,,,,,,,,,,,64,0,0,,,,
1374000,control_change,1080,0,4,,,,,,,,,,,,,64,0,3,,,,
1375920,control_change,1920,0,1,,,,,,,,,,,,,64,127,0,,,,
1375920,note_on,1920,0,4,,,,,,,,,,,,,,,3,,,31,55
1375920,control_change,0,0,4,,,,,,,,,,,,,64,127,3,,,,
1375920,note_on,0,0,4,,,,,,,,,,,,,,,3,,,43,55
1376280,note_off,360,0,4,,,,,,,,,,,,,,,3,,,31,0
1376280,note_off,0,0,4,,,,,,,,,,,,,,,3,,,43,0
1376880,note_on,0,0,1,,,,,,,,,,,,,,,0,,,67,54
1376880,note_on,0,0,1,,,,,,,,,,,,,,,0,,,62,54
1376880,note_on,960,0,1,,,,,,,,,,,,,,,0,,,71,54
1377240,note_off,0,0,1,,,,,,,,,,,,,,,0,,,67,0
1377240,note_off,360,0,1,,,,,,,,,,,,,,,0,,,71,0
1377240,note_off,0,0,1,,,,,,,,,,,,,,,0,,,62,0
1377360,set_tempo,31680,1,0,,,,,,,241935,,,,,,,,,,,,
1377840,control_change,600,0,1,,,,,,,,,,,,,64,0,0,,,,
1377840,control_change,1560,0,4,,,,,,,,,,,,,64,0,3,,,,
1377840,note_on,0,0,4,,,,,,,,,,,,,,,3,,,31,45
1377840,note_on,0,0,4,,,,,,,,,,,,,,,3,,,43,45
1377900,control_change,60,0,1,,,,,,,,,,,,,64,127,0,,,,
1377900,control_change,60,0,4,,,,,,,,,,,,,64,127,3,,,,
1378200,note_off,0,0,4,,,,,,,,,,,,,,,3,,,43,0
1378200,note_off,300,0,4,,,,,,,,,,,,,,,3,,,31,0
1378800,note_on,900,0,1,,,,,,,,,,,,,,,0,,,50,42
1378800,note_on,0,0,1,,,,,,,,,,,,,,,0,,,62,42
1378800,note_on,0,0,1,,,,,,,,,,,,,,,0,,,55,42
1378800,note_on,0,0,1,,,,,,,,,,,,,,,0,,,59,42
1379160,note_off,0,0,1,,,,,,,,,,,,,,,0,,,55,0
1379160,note_off,0,0,1,,,,,,,,,,,,,,,0,,,59,0
1379160,note_off,360,0,1,,,,,,,,,,,,,,,0,,,50,0
1379160,note_off,0,0,1,,,,,,,,,,,,,,,0,,,62,0
1379280,set_tempo,1920,1,0,,,,,,,244897,,,,,,,,,,,,
1379760,control_change,600,0,1,,,,,,,,,,,,,64,0,0,,,,
1379760,note_on,1560,0,4,,,,,,,,,,,,,,,3,,,31,34
1379760,control_change,0,0,4,,,,,,,,,,,,,64,0,3,,,,
1379760,note_on,0,0,4,,,,,,,,,,,,,,,3,,,43,34
1379820,control_change,60,0,4,,,,,,,,,,,,,64,127,3,,,,
1380120,note_off,0,0,4,,,,,,,,,,,,,,,3,,,43,0
1380120,note_off,300,0,4,,,,,,,,,,,,,,,3,,,31,0
1380240,set_tempo,960,1,0,,,,,,,248962,,,,,,,,,,,,
1380720,note_on,600,0,4,,,,,,,,,,,,,,,3,,,31,29
1380720,control_change,0,0,4,,,,,,,,,,,,,64,0,3,,,,
1380720,note_on,0,0,4,,,,,,,,,,,,,,,3,,,43,29
1380720,note_on,960,0,1,,,,,,,,,,,,,,,0,,,59,30
1380720,control_change,0,0,1,,,,,,,,,,,,,64,0,0,,,,
1380720,note_on,0,0,1,,,,,,,,,,,,,,,0,,,55,30
1380720,note_on,0,0,1,,,,,,,,,,,,,,,0,,,47,30
1380720,note_on,0,0,1,,,,,,,,,,,,,,,0,,,50,30
1380720,set_tempo,480,1,0,,,,,,,372670,,,,,,,,,,,,
1380780,control_change,60,0,1,,,,,,,,,,,,,64,127,0,,,,
1380780,control_change,60,0,4,,,,,,,,,,,,,64,127,3,,,,
1381080,note_off,300,0,1,,,,,,,,,,,,,,,0,,,59,0
1381080,note_off,0,0,1,,,,,,,,,,,,,,,0,,,47,0
1381080,note_off,0,0,1,,,,,,,,,,,,,,,0,,,55,0
1381080,note_off,0,0,1,,,,,,,,,,,,,,,0,,,50,0
1381080,note_off,0,0,4,,,,,,,,,,,,,,,3,,,43,0
1381080,note_off,300,0,4,,,,,,,,,,,,,,,3,,,31,0
1381440,control_change,360,0,1,,,,,,,,,,,,,64,0,0,,,,
1381440,control_change,360,0,4,,,,,,,,,,,,,64,0,3,,,,
1381680,control_change,240,0,1,,,,,,,,,,,,,64,0,0,,,,
1381680,control_change,240,0,4,,,,,,,,,,,,,64,0,3,,,,
1383120,control_change,1440,0,1,,,,,,,,,,,,,64,0,0,,,,
1383120,control_change,1440,0,4,,,,,,,,,,,,,64,0,3,,,,
1383600,end_of_track,38185,1,2,,,,,,,,,,,,,,,,,,,
1383600,end_of_track,99840,1,3,,,,,,,,,,,,,,,,,,,
1383600,end_of_track,480,1,1,,,,,,,,,,,,,,,,,,,
1383600,end_of_track,2880,1,0,,,,,,,,,,,,,,,,,,,
1383600,end_of_track,480,1,4,,,,,,,,,,,,,,,,,,,
