,note,step,duration,channel,velocity
0,52.0,0,60,5.0,89.0
1,64.0,0,60,2.0,89.0
2,52.0,0,60,4.0,89.0
3,40.0,0,60,6.0,89.0
4,64.0,0,60,3.0,89.0
5,55.0,0,10,5.0,71.0
6,55.0,165,10,4.0,71.0
7,67.0,0,10,3.0,71.0
8,67.0,0,10,2.0,71.0
9,43.0,0,10,6.0,71.0
10,42.0,0,22,6.0,80.0
11,66.0,0,22,2.0,80.0
12,54.0,0,22,4.0,80.0
13,66.0,0,22,3.0,80.0
14,54.0,15,22,5.0,80.0
15,67.0,0,10,2.0,80.0
16,55.0,0,10,4.0,80.0
17,67.0,0,10,3.0,80.0
18,55.0,0,10,5.0,80.0
19,43.0,45,10,6.0,80.0
20,64.0,0,30,2.0,95.0
21,64.0,15,30,3.0,95.0
22,52.0,0,30,5.0,95.0
23,52.0,0,30,4.0,95.0
24,40.0,0,30,6.0,95.0
25,59.0,60,30,2.0,99.0
26,35.0,0,30,6.0,99.0
27,59.0,0,30,3.0,99.0
28,59.0,0,30,4.0,99.0
29,47.0,0,30,5.0,99.0
30,50.0,60,15,5.0,84.0
31,62.0,0,15,2.0,84.0
32,38.0,0,15,6.0,84.0
33,62.0,0,15,3.0,84.0
34,62.0,0,15,4.0,84.0
35,60.0,0,10,3.0,89.0
36,60.0,0,10,2.0,89.0
37,36.0,15,10,6.0,89.0
38,48.0,0,10,5.0,89.0
39,60.0,0,10,4.0,89.0
40,59.0,0,10,4.0,89.0
41,35.0,0,10,6.0,89.0
42,47.0,30,10,5.0,89.0
43,59.0,0,10,3.0,89.0
44,59.0,0,10,2.0,89.0
45,60.0,0,22,3.0,89.0
46,48.0,15,22,5.0,89.0
47,60.0,0,22,4.0,89.0
48,36.0,0,22,6.0,89.0
49,60.0,0,22,2.0,89.0
50,60.0,0,10,4.0,93.0
51,60.0,0,10,3.0,93.0
52,48.0,45,10,5.0,93.0
53,36.0,0,10,6.0,93.0
54,60.0,0,10,2.0,93.0
55,60.0,15,120,2.0,94.0
56,36.0,0,120,6.0,94.0
57,60.0,0,120,3.0,94.0
58,60.0,0,120,4.0,94.0
59,48.0,0,120,5.0,94.0
60,72.0,180,22,4.0,112.0
61,60.0,0,22,5.0,112.0
62,48.0,0,22,6.0,112.0
63,72.0,0,22,2.0,112.0
64,72.0,0,22,3.0,112.0
65,59.0,0,10,5.0,81.0
66,71.0,45,10,4.0,81.0
67,71.0,0,10,3.0,81.0
68,71.0,0,10,2.0,81.0
69,47.0,0,10,6.0,81.0
70,69.0,0,22,4.0,80.0
71,45.0,0,22,6.0,80.0
72,69.0,0,22,2.0,80.0
73,69.0,0,22,3.0,80.0
74,57.0,15,22,5.0,80.0
75,67.0,0,10,4.0,64.0
76,67.0,0,10,3.0,64.0
77,67.0,0,10,2.0,64.0
78,55.0,0,10,5.0,64.0
79,43.0,45,10,6.0,64.0
80,54.0,15,22,5.0,80.0
81,66.0,0,22,4.0,80.0
82,66.0,0,22,2.0,80.0
83,42.0,0,22,6.0,80.0
84,66.0,0,22,3.0,80.0
85,67.0,45,10,4.0,78.0
86,67.0,0,10,3.0,78.0
87,67.0,0,10,2.0,78.0
88,55.0,0,10,5.0,78.0
89,43.0,0,10,6.0,78.0
90,69.0,0,30,2.0,94.0
91,69.0,0,30,4.0,94.0
92,45.0,0,30,6.0,94.0
93,69.0,0,30,3.0,94.0
94,57.0,15,30,5.0,94.0
95,60.0,0,30,4.0,89.0
96,60.0,0,30,3.0,89.0
97,48.0,0,30,5.0,89.0
98,36.0,60,30,6.0,89.0
99,60.0,0,30,2.0,89.0
100,35.0,0,30,6.0,104.0
101,59.0,60,30,4.0,104.0
102,59.0,0,30,3.0,104.0
103,59.0,0,30,2.0,104.0
104,47.0,0,30,5.0,104.0
105,59.0,0,0,1.0,73.0
106,62.0,0,120,1.0,68.0
107,71.0,120,0,1.0,86.0
108,66.0,0,0,1.0,80.0
109,57.0,0,120,1.0,90.0
110,75.0,0,120,1.0,82.0
111,59.0,0,180,1.0,72.0
112,71.0,0,180,1.0,85.0
113,76.0,0,180,1.0,60.0
114,64.0,120,180,1.0,77.0
115,55.0,0,180,1.0,81.0
116,71.0,0,60,1.0,84.0
117,64.0,60,0,1.0,74.0
118,59.0,0,60,1.0,77.0
119,74.0,0,60,1.0,76.0
120,56.0,0,60,1.0,82.0
121,72.0,0,120,1.0,98.0
122,69.0,0,120,1.0,89.0
123,60.0,0,120,1.0,76.0
124,57.0,0,120,1.0,90.0
125,74.0,0,90,1.0,82.0
126,69.0,0,120,1.0,80.0
127,57.0,0,120,1.0,81.0
128,72.0,90,30,1.0,76.0
129,50.0,0,120,1.0,89.0
130,66.0,120,120,1.0,67.0
131,71.0,0,240,1.0,82.0
132,62.0,0,240,1.0,72.0
133,55.0,0,240,1.0,71.0
134,59.0,30,240,1.0,63.0
135,67.0,0,240,1.0,73.0
136,69.0,0,120,1.0,89.0
137,54.0,240,120,1.0,69.0
138,63.0,0,120,1.0,69.0
139,57.0,0,120,1.0,73.0
140,71.0,0,90,1.0,84.0
141,69.0,90,30,1.0,89.0
142,47.0,120,120,1.0,82.0
143,54.0,0,120,1.0,64.0
144,63.0,0,120,1.0,73.0
145,66.0,0,120,1.0,80.0
146,69.0,0,30,1.0,86.0
147,67.0,30,30,1.0,74.0
148,66.0,30,30,1.0,81.0
149,67.0,30,30,1.0,78.0
150,55.0,0,120,1.0,73.0
151,64.0,0,120,1.0,84.0
152,59.0,0,120,1.0,72.0
153,52.0,30,120,1.0,89.0
154,69.0,0,90,1.0,86.0
155,45.0,30,120,1.0,76.0
156,48.0,0,120,1.0,81.0
157,60.0,0,120,1.0,84.0
158,66.0,90,30,1.0,82.0
159,64.0,0,60,1.0,94.0
160,66.0,60,15,1.0,77.0
161,64.0,15,15,1.0,89.0
162,63.0,15,15,1.0,86.0
163,64.0,15,15,1.0,95.0
164,55.0,0,120,1.0,69.0
165,47.0,30,120,1.0,82.0
166,59.0,0,120,1.0,73.0
167,67.0,0,90,1.0,76.0
168,35.0,14,120,1.0,100.0
169,57.0,0,120,1.0,86.0
170,47.0,30,0,1.0,73.0
171,63.0,0,120,1.0,80.0
172,66.0,90,30,1.0,86.0
173,55.0,0,60,1.0,73.0
174,52.0,0,60,1.0,62.0
175,64.0,0,60,1.0,89.0
176,40.0,0,60,1.0,77.0
177,64.0,0,60,3.0,89.0
178,52.0,240,60,4.0,89.0
179,40.0,0,60,6.0,89.0
180,64.0,0,60,2.0,89.0
181,52.0,0,60,5.0,89.0
182,55.0,165,10,5.0,78.0
183,67.0,0,10,3.0,78.0
184,67.0,0,10,2.0,78.0
185,55.0,0,10,4.0,78.0
186,43.0,0,10,6.0,78.0
187,66.0,0,22,2.0,81.0
188,54.0,0,22,4.0,81.0
189,66.0,0,22,3.0,81.0
190,42.0,15,22,6.0,81.0
191,54.0,0,22,5.0,81.0
192,55.0,0,10,5.0,77.0
193,67.0,0,10,2.0,77.0
194,55.0,45,10,4.0,77.0
195,67.0,0,10,3.0,77.0
196,43.0,0,10,6.0,77.0
197,64.0,15,30,2.0,94.0
198,40.0,0,30,6.0,94.0
199,64.0,0,30,3.0,94.0
200,52.0,0,30,4.0,94.0
201,52.0,0,30,5.0,94.0
202,59.0,60,30,2.0,93.0
203,59.0,0,30,4.0,93.0
204,59.0,0,30,3.0,93.0
205,35.0,0,30,6.0,93.0
206,47.0,0,30,5.0,93.0
207,62.0,60,15,2.0,86.0
208,50.0,0,15,5.0,86.0
209,62.0,0,15,3.0,86.0
210,62.0,0,15,4.0,86.0
211,38.0,0,15,6.0,86.0
212,61.0,0,22,3.0,84.0
213,37.0,0,22,6.0,84.0
214,61.0,0,22,2.0,84.0
215,61.0,0,22,4.0,84.0
216,49.0,15,22,5.0,84.0
217,59.0,0,10,4.0,90.0
218,59.0,0,10,3.0,90.0
219,35.0,30,10,6.0,90.0
220,59.0,0,10,2.0,90.0
221,47.0,0,10,5.0,90.0
222,37.0,0,22,6.0,81.0
223,61.0,15,22,2.0,81.0
224,61.0,0,22,4.0,81.0
225,61.0,0,22,3.0,81.0
226,49.0,0,22,5.0,81.0
227,61.0,0,10,3.0,84.0
228,49.0,45,10,5.0,84.0
229,37.0,0,10,6.0,84.0
230,61.0,0,10,2.0,84.0
231,49.0,0,10,4.0,84.0
232,49.0,0,30,4.0,74.0
233,61.0,0,30,2.0,74.0
234,37.0,0,30,6.0,74.0
235,61.0,15,30,3.0,74.0
236,49.0,0,30,5.0,74.0
237,52.0,0,22,5.0,89.0
238,64.0,0,22,3.0,89.0
239,64.0,60,22,2.0,89.0
240,40.0,0,22,6.0,89.0
241,52.0,0,22,4.0,89.0
242,55.0,0,10,4.0,84.0
243,55.0,45,10,5.0,84.0
244,67.0,0,10,2.0,84.0
245,67.0,0,10,3.0,84.0
246,43.0,0,10,6.0,84.0
247,49.0,0,30,6.0,89.0
248,73.0,0,30,2.0,89.0
249,61.0,0,30,4.0,89.0
250,61.0,0,30,5.0,89.0
251,73.0,15,30,3.0,89.0
252,64.0,0,30,5.0,95.0
253,52.0,0,30,6.0,95.0
254,76.0,0,30,2.0,95.0
255,76.0,0,30,3.0,95.0
256,64.0,60,30,4.0,95.0
257,55.0,0,30,6.0,90.0
258,79.0,0,30,2.0,90.0
259,79.0,0,30,3.0,90.0
260,67.0,0,30,4.0,90.0
261,67.0,60,30,5.0,90.0
262,49.0,105,10,5.0,81.0
263,37.0,0,10,6.0,81.0
264,61.0,0,10,4.0,81.0
265,61.0,0,10,3.0,81.0
266,61.0,0,10,2.0,81.0
267,62.0,0,30,2.0,86.0
268,50.0,15,30,5.0,86.0
269,38.0,0,30,6.0,86.0
270,62.0,0,30,4.0,86.0
271,62.0,0,30,3.0,86.0
272,33.0,0,10,6.0,101.0
273,57.0,0,10,2.0,101.0
274,57.0,105,10,4.0,101.0
275,45.0,0,10,5.0,101.0
276,57.0,0,10,3.0,101.0
277,57.0,0,30,2.0,99.0
278,45.0,0,30,5.0,99.0
279,33.0,15,30,6.0,99.0
280,57.0,0,30,3.0,99.0
281,57.0,0,30,4.0,99.0
282,62.0,0,120,1.0,29.0
283,69.0,0,120,1.0,43.0
284,57.0,120,0,1.0,40.0
285,50.0,0,120,1.0,35.0
286,66.0,0,120,1.0,40.0
287,67.0,0,120,1.0,31.0
288,73.0,0,120,1.0,32.0
289,61.0,0,120,1.0,39.0
290,52.0,0,120,1.0,44.0
291,57.0,0,120,1.0,45.0
292,54.0,120,120,1.0,44.0
293,74.0,0,180,1.0,44.0
294,73.0,60,60,1.0,38.0
295,42.0,120,120,1.0,44.0
296,62.0,0,120,1.0,41.0
297,71.0,60,120,1.0,47.0
298,43.0,0,120,1.0,44.0
299,67.0,0,120,1.0,46.0
300,69.0,120,90,1.0,44.0
301,66.0,0,90,1.0,43.0
302,67.0,90,30,1.0,39.0
303,45.0,0,120,1.0,50.0
304,64.0,0,0,1.0,41.0
305,67.0,0,120,1.0,37.0
306,62.0,0,60,1.0,43.0
307,59.0,30,180,1.0,47.0
308,47.0,0,180,1.0,40.0
309,66.0,120,60,1.0,40.0
310,69.0,0,90,1.0,43.0
311,66.0,0,90,1.0,43.0
312,54.0,120,90,1.0,40.0
313,50.0,0,90,1.0,42.0
314,57.0,0,90,1.0,43.0
315,69.0,120,90,1.0,44.0
316,64.0,0,90,1.0,40.0
317,48.0,0,90,1.0,43.0
318,69.0,120,180,1.0,46.0
319,71.0,180,30,1.0,53.0
320,72.0,30,30,1.0,44.0
321,59.0,0,240,1.0,40.0
322,54.0,0,240,1.0,45.0
323,63.0,0,240,1.0,41.0
324,66.0,0,0,1.0,43.0
325,47.0,0,240,1.0,43.0
326,51.0,30,120,1.0,40.0
327,72.0,0,120,1.0,42.0
328,71.0,0,30,1.0,43.0
329,69.0,30,30,1.0,43.0
330,54.0,60,120,1.0,38.0
331,67.0,0,30,1.0,40.0
332,47.0,60,120,1.0,42.0
333,59.0,30,60,1.0,44.0
334,66.0,30,30,1.0,29.0
335,64.0,0,60,2.0,80.0
336,52.0,0,60,4.0,89.0
337,64.0,0,60,3.0,80.0
338,52.0,0,60,1.0,44.0
339,69.0,30,60,1.0,41.0
340,40.0,0,60,6.0,80.0
341,52.0,0,60,5.0,80.0
342,59.0,0,60,1.0,40.0
343,67.0,60,60,1.0,38.0
344,64.0,0,120,1.0,45.0
345,40.0,0,10,6.0,67.0
346,64.0,0,10,2.0,67.0
347,64.0,105,10,4.0,67.0
348,64.0,0,10,3.0,67.0
349,52.0,0,10,5.0,67.0
350,62.0,15,22,2.0,73.0
351,62.0,0,22,4.0,73.0
352,62.0,0,22,3.0,73.0
353,50.0,0,22,5.0,73.0
354,38.0,0,22,6.0,73.0
355,64.0,0,10,2.0,82.0
356,64.0,45,10,3.0,82.0
357,64.0,0,10,4.0,82.0
358,40.0,0,10,6.0,82.0
359,52.0,0,10,5.0,82.0
360,48.0,0,22,5.0,69.0
361,60.0,0,22,3.0,69.0
362,60.0,15,22,2.0,69.0
363,36.0,0,22,6.0,69.0
364,60.0,0,22,4.0,69.0
365,36.0,0,10,6.0,74.0
366,60.0,0,10,3.0,74.0
367,48.0,0,10,5.0,74.0
368,60.0,45,10,2.0,74.0
369,60.0,0,10,4.0,74.0
370,59.0,0,22,2.0,81.0
371,47.0,0,22,5.0,81.0
372,35.0,15,22,6.0,81.0
373,59.0,0,22,4.0,81.0
374,59.0,0,22,3.0,81.0
375,36.0,0,10,6.0,73.0
376,48.0,0,10,5.0,73.0
377,60.0,45,10,2.0,73.0
378,60.0,0,10,4.0,73.0
379,60.0,0,10,3.0,73.0
380,45.0,15,30,5.0,86.0
381,33.0,0,30,6.0,86.0
382,57.0,0,30,4.0,86.0
383,57.0,0,30,2.0,86.0
384,57.0,0,30,3.0,86.0
385,45.0,0,30,5.0,85.0
386,57.0,60,30,3.0,85.0
387,57.0,0,30,4.0,85.0
388,57.0,0,30,2.0,85.0
389,33.0,0,30,6.0,85.0
390,57.0,0,60,4.0,86.0
391,57.0,0,60,3.0,86.0
392,33.0,0,60,6.0,86.0
393,45.0,60,60,5.0,86.0
394,57.0,0,60,2.0,86.0
395,69.0,0,45,1.0,45.0
396,57.0,60,45,1.0,39.0
397,72.0,0,45,1.0,29.0
398,69.0,60,45,1.0,42.0
399,57.0,0,45,1.0,57.0
400,60.0,0,45,1.0,49.0
401,72.0,0,45,1.0,29.0
402,57.0,0,45,1.0,57.0
403,64.0,0,45,1.0,65.0
404,69.0,60,45,1.0,72.0
405,76.0,0,45,1.0,76.0
406,60.0,0,45,1.0,59.0
407,76.0,0,120,1.0,77.0
408,67.0,0,120,1.0,58.0
409,64.0,0,120,1.0,84.0
410,79.0,0,120,1.0,72.0
411,65.0,0,10,3.0,81.0
412,53.0,45,10,5.0,81.0
413,53.0,0,10,4.0,81.0
414,65.0,0,10,2.0,81.0
415,41.0,0,10,6.0,81.0
416,65.0,120,60,1.0,53.0
417,57.0,0,180,1.0,63.0
418,72.0,60,180,1.0,29.0
419,77.0,0,60,1.0,50.0
420,69.0,0,180,1.0,49.0
421,60.0,0,180,1.0,45.0
422,64.0,0,22,3.0,84.0
423,40.0,0,22,6.0,84.0
424,52.0,15,22,5.0,84.0
425,52.0,0,22,4.0,84.0
426,64.0,0,22,2.0,84.0
427,53.0,0,10,5.0,84.0
428,65.0,0,10,2.0,84.0
429,65.0,0,10,3.0,84.0
430,41.0,45,10,6.0,84.0
431,53.0,0,10,4.0,84.0
432,50.0,0,22,4.0,74.0
433,50.0,0,22,5.0,74.0
434,62.0,0,22,3.0,74.0
435,38.0,0,22,6.0,74.0
436,62.0,15,22,2.0,74.0
437,62.0,0,10,3.0,74.0
438,38.0,0,10,6.0,74.0
439,62.0,0,10,2.0,74.0
440,62.0,0,10,4.0,74.0
441,50.0,45,10,5.0,74.0
442,60.0,15,22,2.0,72.0
443,60.0,0,22,4.0,72.0
444,60.0,0,22,3.0,72.0
445,48.0,0,22,5.0,72.0
446,36.0,0,22,6.0,72.0
447,38.0,0,10,6.0,76.0
448,62.0,0,10,2.0,76.0
449,62.0,45,10,4.0,76.0
450,62.0,0,10,3.0,76.0
451,50.0,0,10,5.0,76.0
452,47.0,0,30,5.0,77.0
453,35.0,0,30,6.0,77.0
454,59.0,15,30,2.0,77.0
455,59.0,0,30,4.0,77.0
456,59.0,0,30,3.0,77.0
457,47.0,0,30,5.0,93.0
458,59.0,0,30,4.0,93.0
459,59.0,0,30,2.0,93.0
460,35.0,60,30,6.0,93.0
461,59.0,0,30,3.0,93.0
462,59.0,60,45,1.0,45.0
463,71.0,0,45,1.0,56.0
464,35.0,0,120,6.0,84.0
465,47.0,0,120,5.0,84.0
466,59.0,60,120,2.0,84.0
467,59.0,0,120,3.0,84.0
468,59.0,0,120,4.0,84.0
469,71.0,0,45,1.0,61.0
470,74.0,0,45,1.0,61.0
471,59.0,0,45,1.0,57.0
472,62.0,60,45,1.0,44.0
473,59.0,0,45,1.0,63.0
474,74.0,0,45,1.0,73.0
475,77.0,0,45,1.0,53.0
476,65.0,0,45,1.0,58.0
477,71.0,0,45,1.0,58.0
478,62.0,60,45,1.0,66.0
479,69.0,0,120,1.0,73.0
480,81.0,0,120,1.0,67.0
481,74.0,0,180,1.0,64.0
482,77.0,0,180,1.0,61.0
483,62.0,0,180,1.0,65.0
484,71.0,60,180,1.0,46.0
485,68.0,0,60,1.0,35.0
486,65.0,0,180,1.0,62.0
487,80.0,120,60,1.0,48.0
488,59.0,0,180,1.0,73.0
489,59.0,0,15,2.0,95.0
490,47.0,0,15,5.0,95.0
491,59.0,0,15,4.0,95.0
492,59.0,105,15,3.0,95.0
493,35.0,0,15,6.0,95.0
494,48.0,15,60,4.0,100.0
495,60.0,0,60,3.0,76.0
496,60.0,0,60,2.0,76.0
497,36.0,0,60,6.0,76.0
498,48.0,0,60,5.0,76.0
499,68.0,60,60,1.0,48.0
500,80.0,0,60,1.0,45.0
501,71.0,0,60,1.0,44.0
502,83.0,60,60,1.0,32.0
503,48.0,0,15,5.0,72.0
504,81.0,60,60,1.0,46.0
505,60.0,0,15,2.0,72.0
506,72.0,0,180,1.0,29.0
507,76.0,0,180,1.0,53.0
508,60.0,0,180,1.0,42.0
509,60.0,0,15,4.0,72.0
510,64.0,0,180,1.0,45.0
511,36.0,0,15,6.0,72.0
512,69.0,0,60,1.0,46.0
513,60.0,45,15,3.0,72.0
514,39.0,0,60,6.0,89.0
515,63.0,0,60,2.0,89.0
516,51.0,15,60,5.0,89.0
517,51.0,0,60,4.0,89.0
518,63.0,0,60,3.0,89.0
519,81.0,0,60,1.0,48.0
520,69.0,0,60,1.0,40.0
521,66.0,60,120,1.0,33.0
522,75.0,0,120,1.0,45.0
523,72.0,60,60,1.0,29.0
524,84.0,0,60,1.0,45.0
525,78.0,0,0,1.0,42.0
526,63.0,0,0,1.0,29.0
527,39.0,0,15,6.0,84.0
528,51.0,0,15,5.0,84.0
529,63.0,0,15,2.0,84.0
530,83.0,0,60,1.0,40.0
531,66.0,0,60,1.0,42.0
532,51.0,45,15,4.0,84.0
533,63.0,0,15,3.0,84.0
534,40.0,15,30,6.0,94.0
535,64.0,0,30,3.0,94.0
536,52.0,0,30,4.0,94.0
537,52.0,0,30,5.0,94.0
538,64.0,0,30,2.0,94.0
539,81.0,0,60,1.0,45.0
540,64.0,0,120,1.0,63.0
541,71.0,0,0,1.0,40.0
542,67.0,0,120,1.0,29.0
543,79.0,60,60,1.0,65.0
544,78.0,60,60,1.0,43.0
545,64.0,0,120,1.0,44.0
546,55.0,0,120,1.0,42.0
547,76.0,60,60,1.0,63.0
548,74.0,0,60,1.0,40.0
549,57.0,0,120,1.0,43.0
550,64.0,60,120,1.0,43.0
551,72.0,60,60,1.0,43.0
552,71.0,0,60,1.0,62.0
553,69.0,60,60,1.0,43.0
554,64.0,60,120,1.0,53.0
555,60.0,0,120,1.0,45.0
556,67.0,0,120,1.0,43.0
557,59.0,0,120,1.0,43.0
558,64.0,0,0,1.0,48.0
559,65.0,120,40,1.0,59.0
560,69.0,40,40,1.0,62.0
561,57.0,0,120,1.0,47.0
562,72.0,40,40,1.0,43.0
563,60.0,0,120,1.0,41.0
564,45.0,0,120,1.0,43.0
565,47.0,40,120,1.0,62.0
566,55.0,0,120,1.0,47.0
567,64.0,0,120,1.0,61.0
568,64.0,0,10,3.0,57.0
569,52.0,45,10,5.0,57.0
570,40.0,0,10,6.0,57.0
571,52.0,0,10,4.0,57.0
572,64.0,0,10,2.0,57.0
573,63.0,0,60,1.0,39.0
574,59.0,0,180,1.0,43.0
575,47.0,0,60,1.0,43.0
576,54.0,120,60,1.0,38.0
577,50.0,15,22,4.0,44.0
578,62.0,0,22,3.0,44.0
579,38.0,0,22,6.0,44.0
580,62.0,0,22,2.0,44.0
581,50.0,0,22,5.0,44.0
582,52.0,0,10,4.0,54.0
583,64.0,0,10,2.0,54.0
584,52.0,45,10,5.0,54.0
585,40.0,0,10,6.0,54.0
586,64.0,0,10,3.0,54.0
587,60.0,0,22,2.0,43.0
588,48.0,0,22,4.0,43.0
589,60.0,0,22,3.0,43.0
590,36.0,0,22,6.0,43.0
591,48.0,15,22,5.0,43.0
592,60.0,0,10,2.0,44.0
593,60.0,0,10,3.0,44.0
594,36.0,0,10,6.0,44.0
595,48.0,45,10,5.0,44.0
596,60.0,0,10,4.0,44.0
597,47.0,15,22,5.0,55.0
598,59.0,0,22,3.0,55.0
599,59.0,0,22,2.0,55.0
600,35.0,0,22,6.0,55.0
601,59.0,0,22,4.0,55.0
602,60.0,45,10,3.0,45.0
603,60.0,0,10,4.0,45.0
604,36.0,0,10,6.0,45.0
605,48.0,0,10,5.0,45.0
606,60.0,0,10,2.0,45.0
607,45.0,0,30,5.0,40.0
608,33.0,0,30,6.0,40.0
609,57.0,15,30,3.0,40.0
610,57.0,0,30,4.0,40.0
611,57.0,0,30,2.0,40.0
612,33.0,0,30,6.0,50.0
613,45.0,60,30,5.0,50.0
614,57.0,0,30,4.0,50.0
615,57.0,0,30,3.0,50.0
616,57.0,0,30,2.0,50.0
617,33.0,0,60,6.0,43.0
618,45.0,60,60,5.0,43.0
619,57.0,0,60,4.0,43.0
620,57.0,0,60,2.0,43.0
621,57.0,0,60,3.0,43.0
622,57.0,0,45,1.0,43.0
623,84.0,0,45,1.0,41.0
624,69.0,0,45,1.0,45.0
625,60.0,0,45,1.0,40.0
626,65.0,0,45,1.0,44.0
627,72.0,60,45,1.0,29.0
628,72.0,0,45,1.0,68.0
629,69.0,0,45,1.0,49.0
630,60.0,0,45,1.0,44.0
631,65.0,0,45,1.0,45.0
632,83.0,0,45,1.0,48.0
633,57.0,60,45,1.0,53.0
634,57.0,0,45,1.0,62.0
635,72.0,0,45,1.0,60.0
636,65.0,0,45,1.0,65.0
637,81.0,0,45,1.0,65.0
638,60.0,60,45,1.0,50.0
639,69.0,0,45,1.0,68.0
640,79.0,0,120,1.0,73.0
641,53.0,0,10,5.0,56.0
642,53.0,0,10,4.0,56.0
643,65.0,0,10,3.0,56.0
644,41.0,0,10,6.0,56.0
645,65.0,45,10,2.0,56.0
646,77.0,120,60,1.0,43.0
647,72.0,60,180,1.0,62.0
648,69.0,0,180,1.0,65.0
649,60.0,0,180,1.0,43.0
650,57.0,0,180,1.0,50.0
651,65.0,0,180,1.0,62.0
652,52.0,0,22,4.0,49.0
653,64.0,0,22,3.0,49.0
654,40.0,0,22,6.0,49.0
655,52.0,0,22,5.0,49.0
656,64.0,15,22,2.0,49.0
657,65.0,0,10,3.0,54.0
658,53.0,0,10,5.0,54.0
659,41.0,0,10,6.0,54.0
660,53.0,45,10,4.0,54.0
661,65.0,0,10,2.0,54.0
662,62.0,0,22,2.0,57.0
663,50.0,0,22,5.0,57.0
664,38.0,0,22,6.0,57.0
665,62.0,0,22,3.0,57.0
666,50.0,15,22,4.0,57.0
667,62.0,45,10,2.0,45.0
668,38.0,0,10,6.0,45.0
669,62.0,0,10,3.0,45.0
670,50.0,0,10,5.0,45.0
671,62.0,0,10,4.0,45.0
672,48.0,0,22,5.0,44.0
673,60.0,15,22,2.0,44.0
674,36.0,0,22,6.0,44.0
675,60.0,0,22,3.0,44.0
676,60.0,0,22,4.0,44.0
677,38.0,0,10,6.0,43.0
678,50.0,0,10,5.0,43.0
679,62.0,0,10,3.0,43.0
680,62.0,0,10,4.0,43.0
681,62.0,45,10,2.0,43.0
682,59.0,0,30,3.0,43.0
683,47.0,0,30,5.0,43.0
684,59.0,0,30,2.0,43.0
685,35.0,15,30,6.0,43.0
686,59.0,0,30,4.0,43.0
687,47.0,0,30,5.0,45.0
688,35.0,0,30,6.0,45.0
689,59.0,0,30,2.0,45.0
690,59.0,0,30,3.0,45.0
691,59.0,60,30,4.0,45.0
692,59.0,0,60,2.0,39.0
693,47.0,60,60,5.0,39.0
694,35.0,0,60,6.0,39.0
695,59.0,0,60,4.0,39.0
696,59.0,0,60,3.0,39.0
697,80.0,0,45,1.0,30.0
698,59.0,60,45,1.0,41.0
699,68.0,0,45,1.0,40.0
700,62.0,0,45,1.0,40.0
701,74.0,0,45,1.0,53.0
702,86.0,0,45,1.0,43.0
703,77.0,0,45,1.0,43.0
704,65.0,0,45,1.0,35.0
705,71.0,0,45,1.0,44.0
706,74.0,0,45,1.0,53.0
707,65.0,0,45,1.0,38.0
708,80.0,0,45,1.0,40.0
709,71.0,60,45,1.0,46.0
710,59.0,0,45,1.0,43.0
711,68.0,0,45,1.0,44.0
712,77.0,0,45,1.0,43.0
713,62.0,0,45,1.0,43.0
714,84.0,0,45,1.0,52.0
715,77.0,0,45,1.0,51.0
716,83.0,0,45,1.0,67.0
717,74.0,0,45,1.0,64.0
718,65.0,0,45,1.0,43.0
719,68.0,0,45,1.0,66.0
720,71.0,60,45,1.0,65.0
721,59.0,0,45,1.0,59.0
722,80.0,0,45,1.0,46.0
723,62.0,0,45,1.0,59.0
724,81.0,0,120,1.0,64.0
725,68.0,0,180,1.0,61.0
726,77.0,60,180,1.0,60.0
727,74.0,0,180,1.0,61.0
728,65.0,0,180,1.0,43.0
729,59.0,0,180,1.0,50.0
730,62.0,0,180,1.0,54.0
731,80.0,120,60,1.0,43.0
732,71.0,0,180,1.0,71.0
733,59.0,0,15,4.0,40.0
734,47.0,0,15,5.0,40.0
735,35.0,105,15,6.0,40.0
736,59.0,0,15,2.0,40.0
737,59.0,0,15,3.0,40.0
738,49.0,15,60,5.0,43.0
739,37.0,0,60,6.0,43.0
740,49.0,0,60,4.0,38.0
741,61.0,0,60,2.0,43.0
742,61.0,0,60,3.0,43.0
743,82.0,0,120,1.0,40.0
744,79.0,0,120,1.0,46.0
745,64.0,0,120,1.0,67.0
746,88.0,0,120,1.0,61.0
747,61.0,0,120,1.0,44.0
748,76.0,60,120,1.0,64.0
749,73.0,0,120,1.0,51.0
750,70.0,0,120,1.0,52.0
751,61.0,0,15,2.0,43.0
752,37.0,0,15,6.0,43.0
753,49.0,0,15,5.0,43.0
754,61.0,165,15,4.0,43.0
755,61.0,0,15,3.0,43.0
756,51.0,15,60,5.0,45.0
757,63.0,0,60,3.0,45.0
758,51.0,0,60,4.0,43.0
759,63.0,0,60,2.0,45.0
760,39.0,0,60,6.0,45.0
761,72.0,0,120,1.0,84.0
762,84.0,0,120,1.0,52.0
763,83.0,120,60,1.0,45.0
764,78.0,0,180,1.0,42.0
765,66.0,60,180,1.0,46.0
766,63.0,0,180,1.0,45.0
767,90.0,0,180,1.0,45.0
768,81.0,0,180,1.0,41.0
769,69.0,0,180,1.0,63.0
770,71.0,0,60,1.0,41.0
771,75.0,0,180,1.0,65.0
772,40.0,0,30,1.0,42.0
773,52.0,0,60,5.0,39.0
774,40.0,60,60,6.0,41.0
775,64.0,0,60,2.0,45.0
776,52.0,30,30,1.0,59.0
777,64.0,0,60,3.0,46.0
778,52.0,0,60,4.0,43.0
779,55.0,30,30,1.0,50.0
780,59.0,30,30,1.0,52.0
781,91.0,0,150,1.0,58.0
782,90.0,30,30,1.0,51.0
783,64.0,30,60,1.0,48.0
784,91.0,30,30,1.0,68.0
785,87.0,30,30,1.0,64.0
786,88.0,30,30,1.0,72.0
787,87.0,30,30,1.0,65.0
788,88.0,30,30,1.0,73.0
789,83.0,30,30,1.0,67.0
790,81.0,30,30,1.0,47.0
791,79.0,30,30,1.0,68.0
792,78.0,30,30,1.0,72.0
793,76.0,30,30,1.0,64.0
794,33.0,0,30,1.0,59.0
795,33.0,0,60,6.0,43.0
796,60.0,30,60,3.0,45.0
797,57.0,0,60,4.0,50.0
798,64.0,0,60,2.0,45.0
799,45.0,30,30,1.0,53.0
800,74.0,0,60,1.0,52.0
801,45.0,0,60,5.0,43.0
802,48.0,30,30,1.0,43.0
803,52.0,30,30,1.0,45.0
804,57.0,30,30,1.0,56.0
805,60.0,30,30,1.0,43.0
806,64.0,30,30,1.0,59.0
807,68.0,30,30,1.0,53.0
808,72.0,0,210,1.0,65.0
809,71.0,30,30,1.0,54.0
810,69.0,30,60,1.0,52.0
811,72.0,30,30,1.0,29.0
812,69.0,30,30,1.0,43.0
813,67.0,30,30,1.0,53.0
814,66.0,30,30,1.0,71.0
815,69.0,30,30,1.0,40.0
816,66.0,30,30,1.0,57.0
817,35.0,0,30,1.0,51.0
818,55.0,30,60,3.0,49.0
819,59.0,0,60,4.0,46.0
820,64.0,0,60,2.0,46.0
821,47.0,0,60,5.0,49.0
822,47.0,30,30,1.0,44.0
823,35.0,0,60,6.0,49.0
824,52.0,30,30,1.0,58.0
825,55.0,30,30,1.0,42.0
826,64.0,0,150,1.0,53.0
827,64.0,30,30,1.0,50.0
828,59.0,30,60,1.0,38.0
829,67.0,30,30,1.0,37.0
830,71.0,30,30,1.0,42.0
831,76.0,30,30,1.0,62.0
832,78.0,30,30,1.0,59.0
833,64.0,0,30,1.0,59.0
834,79.0,0,30,1.0,64.0
835,73.0,0,60,1.0,52.0
836,58.0,30,60,1.0,45.0
837,67.0,0,60,1.0,43.0
838,76.0,30,60,1.0,65.0
839,66.0,0,30,1.0,58.0
840,72.0,30,60,1.0,65.0
841,57.0,0,60,1.0,59.0
842,75.0,30,30,1.0,74.0
843,62.0,0,30,1.0,46.0
844,77.0,30,30,1.0,63.0
845,71.0,0,60,1.0,44.0
846,56.0,0,60,1.0,43.0
847,65.0,0,60,1.0,57.0
848,74.0,30,60,1.0,53.0
849,73.0,0,30,1.0,52.0
850,64.0,30,30,1.0,51.0
851,55.0,0,60,1.0,42.0
852,70.0,30,60,1.0,50.0
853,60.0,0,30,1.0,45.0
854,75.0,0,30,1.0,65.0
855,69.0,0,60,1.0,57.0
856,54.0,30,60,1.0,57.0
857,63.0,30,30,1.0,53.0
858,72.0,0,60,1.0,89.0
859,55.0,0,30,1.0,59.0
860,67.0,30,60,1.0,40.0
861,62.0,0,30,1.0,52.0
862,71.0,30,60,1.0,52.0
863,51.0,0,30,1.0,52.0
864,60.0,0,30,1.0,47.0
865,66.0,30,0,1.0,50.0
866,52.0,0,30,1.0,50.0
867,69.0,30,60,1.0,67.0
868,59.0,30,30,1.0,44.0
869,67.0,0,30,1.0,52.0
870,57.0,30,30,1.0,40.0
871,64.0,0,30,1.0,53.0
872,48.0,0,60,1.0,45.0
873,66.0,0,0,1.0,56.0
874,59.0,30,30,1.0,56.0
875,64.0,30,30,1.0,60.0
876,47.0,0,60,1.0,52.0
877,61.0,30,30,1.0,44.0
878,66.0,30,30,1.0,52.0
879,64.0,0,30,1.0,60.0
880,46.0,0,60,1.0,43.0
881,66.0,0,20,1.0,60.0
882,67.0,20,20,1.0,39.0
883,54.0,0,60,1.0,43.0
884,63.0,0,60,1.0,45.0
885,59.0,0,60,4.0,50.0
886,47.0,0,60,5.0,50.0
887,63.0,0,60,2.0,60.0
888,66.0,20,20,1.0,46.0
889,57.0,0,60,1.0,45.0
890,47.0,0,60,1.0,29.0
891,35.0,30,60,6.0,50.0
892,51.0,0,60,1.0,29.0
893,59.0,0,60,3.0,45.0
894,67.0,20,20,1.0,53.0
895,66.0,20,20,1.0,66.0
896,67.0,20,20,1.0,54.0
897,66.0,20,15,1.0,64.0
898,67.0,15,15,1.0,43.0
899,66.0,15,15,1.0,68.0
900,67.0,15,15,1.0,40.0
901,66.0,15,15,1.0,68.0
902,67.0,15,15,1.0,64.0
903,66.0,15,15,1.0,68.0
904,67.0,15,15,1.0,71.0
905,66.0,15,15,1.0,73.0
906,67.0,15,15,1.0,60.0
907,66.0,15,15,1.0,74.0
908,67.0,15,15,1.0,59.0
909,66.0,15,15,1.0,68.0
910,67.0,15,15,1.0,67.0
911,66.0,15,15,1.0,68.0
912,67.0,15,15,1.0,59.0
913,66.0,15,15,1.0,69.0
914,67.0,15,15,1.0,50.0
915,66.0,15,15,1.0,65.0
916,67.0,15,15,1.0,58.0
917,66.0,15,15,1.0,71.0
918,67.0,15,15,1.0,65.0
919,66.0,15,15,1.0,72.0
920,67.0,15,15,1.0,64.0
921,69.0,0,15,1.0,71.0
922,66.0,15,15,1.0,64.0
923,71.0,0,15,1.0,76.0
924,67.0,15,15,1.0,43.0
925,69.0,15,15,1.0,73.0
926,66.0,0,15,1.0,73.0
927,67.0,0,15,1.0,44.0
928,71.0,15,15,1.0,71.0
929,69.0,0,15,1.0,70.0
930,66.0,15,15,1.0,69.0
931,67.0,15,15,1.0,43.0
932,71.0,0,15,1.0,62.0
933,69.0,0,15,1.0,72.0
934,66.0,15,15,1.0,73.0
935,71.0,0,15,1.0,66.0
936,67.0,15,15,1.0,40.0
937,66.0,0,15,1.0,56.0
938,69.0,15,15,1.0,43.0
939,67.0,0,15,1.0,43.0
940,71.0,15,15,1.0,72.0
941,69.0,0,15,1.0,74.0
942,66.0,15,15,1.0,74.0
943,67.0,15,15,1.0,76.0
944,71.0,0,15,1.0,67.0
945,69.0,15,15,1.0,63.0
946,66.0,0,15,1.0,81.0
947,71.0,15,15,1.0,69.0
948,67.0,0,15,1.0,72.0
949,66.0,15,15,1.0,76.0
950,69.0,0,15,1.0,76.0
951,71.0,0,15,1.0,82.0
952,67.0,15,15,1.0,65.0
953,66.0,15,15,1.0,57.0
954,69.0,0,15,1.0,62.0
955,71.0,15,15,1.0,62.0
956,67.0,0,15,1.0,53.0
957,69.0,0,15,1.0,65.0
958,66.0,15,15,1.0,63.0
959,71.0,15,15,1.0,64.0
960,67.0,0,15,1.0,61.0
961,69.0,0,15,1.0,72.0
962,66.0,15,15,1.0,74.0
963,71.0,0,15,1.0,72.0
964,67.0,15,15,1.0,69.0
965,66.0,0,15,1.0,68.0
966,69.0,15,15,1.0,72.0
967,71.0,0,15,1.0,68.0
968,67.0,15,15,1.0,76.0
969,69.0,0,15,1.0,67.0
970,66.0,15,15,1.0,84.0
971,67.0,15,15,1.0,72.0
972,71.0,0,15,1.0,67.0
973,69.0,15,15,1.0,62.0
974,66.0,0,15,1.0,84.0
975,71.0,0,15,1.0,69.0
976,67.0,15,15,1.0,64.0
977,69.0,0,15,1.0,78.0
978,66.0,15,15,1.0,80.0
979,67.0,15,15,1.0,64.0
980,71.0,0,15,1.0,63.0
981,69.0,15,15,1.0,73.0
982,66.0,0,15,1.0,78.0
983,71.0,0,15,1.0,72.0
984,67.0,15,15,1.0,67.0
985,66.0,15,15,1.0,52.0
986,72.0,0,15,1.0,66.0
987,69.0,0,15,1.0,57.0
988,67.0,15,15,1.0,57.0
989,74.0,0,15,1.0,76.0
990,71.0,0,15,1.0,68.0
991,72.0,0,15,1.0,66.0
992,66.0,15,15,1.0,72.0
993,69.0,0,15,1.0,58.0
994,67.0,0,15,1.0,54.0
995,71.0,0,15,1.0,60.0
996,74.0,15,15,1.0,76.0
997,69.0,15,15,1.0,65.0
998,72.0,0,15,1.0,52.0
999,66.0,0,15,1.0,65.0
1000,74.0,0,15,1.0,72.0
1001,71.0,15,15,1.0,63.0
1002,67.0,0,15,1.0,50.0
1003,66.0,15,15,1.0,62.0
1004,69.0,0,15,1.0,67.0
1005,72.0,0,15,1.0,46.0
1006,71.0,0,15,1.0,65.0
1007,67.0,15,15,1.0,64.0
1008,74.0,0,15,1.0,70.0
1009,66.0,0,15,1.0,63.0
1010,72.0,0,15,1.0,68.0
1011,69.0,15,15,1.0,70.0
1012,74.0,15,15,1.0,80.0
1013,71.0,0,15,1.0,74.0
1014,67.0,0,15,1.0,65.0
1015,66.0,0,15,1.0,70.0
1016,72.0,15,15,1.0,64.0
1017,69.0,0,15,1.0,76.0
1018,74.0,15,15,1.0,80.0
1019,71.0,0,15,1.0,80.0
1020,67.0,0,15,1.0,73.0
1021,72.0,0,15,1.0,73.0
1022,69.0,0,15,1.0,72.0
1023,66.0,15,15,1.0,72.0
1024,74.0,15,15,1.0,80.0
1025,71.0,0,15,1.0,80.0
1026,67.0,0,15,1.0,82.0
1027,66.0,0,15,1.0,68.0
1028,72.0,15,15,1.0,72.0
1029,69.0,0,15,1.0,73.0
1030,74.0,0,15,1.0,76.0
1031,71.0,15,15,1.0,80.0
1032,67.0,0,15,1.0,76.0
1033,66.0,15,15,1.0,74.0
1034,69.0,0,15,1.0,76.0
1035,72.0,0,15,1.0,77.0
1036,74.0,15,15,1.0,80.0
1037,71.0,0,15,1.0,76.0
1038,67.0,0,15,1.0,80.0
1039,72.0,0,15,1.0,76.0
1040,69.0,15,15,1.0,73.0
1041,66.0,0,15,1.0,73.0
1042,67.0,0,15,1.0,69.0
1043,74.0,15,15,1.0,81.0
1044,71.0,0,15,1.0,78.0
1045,69.0,0,15,1.0,77.0
1046,72.0,15,15,1.0,64.0
1047,66.0,0,15,1.0,70.0
1048,71.0,0,15,1.0,85.0
1049,74.0,0,15,1.0,80.0
1050,67.0,15,15,1.0,77.0
1051,66.0,0,15,1.0,72.0
1052,69.0,15,15,1.0,69.0
1053,72.0,0,15,1.0,72.0
1054,74.0,0,15,1.0,84.0
1055,71.0,0,15,1.0,80.0
1056,67.0,15,15,1.0,80.0
1057,66.0,0,15,1.0,73.0
1058,69.0,0,15,1.0,73.0
1059,72.0,15,15,1.0,74.0
1060,74.0,0,15,1.0,77.0
1061,71.0,0,15,1.0,76.0
1062,67.0,15,15,1.0,78.0
1063,69.0,0,15,1.0,67.0
1064,66.0,15,15,1.0,66.0
1065,72.0,0,15,1.0,76.0
1066,74.0,0,15,1.0,81.0
1067,71.0,0,15,1.0,80.0
1068,67.0,15,15,1.0,76.0
1069,72.0,15,15,1.0,78.0
1070,69.0,0,15,1.0,77.0
1071,66.0,0,15,1.0,73.0
1072,74.0,0,15,1.0,84.0
1073,71.0,0,15,1.0,77.0
1074,67.0,15,15,1.0,80.0
1075,69.0,0,15,1.0,73.0
1076,72.0,15,15,1.0,78.0
1077,66.0,0,15,1.0,73.0
1078,74.0,15,15,1.0,89.0
1079,71.0,0,15,1.0,84.0
1080,67.0,0,15,1.0,89.0
1081,69.0,15,15,1.0,86.0
1082,72.0,0,15,1.0,74.0
1083,74.0,15,15,1.0,89.0
1084,71.0,0,15,1.0,90.0
1085,72.0,0,15,1.0,90.0
1086,69.0,15,15,1.0,90.0
1087,71.0,15,15,1.0,94.0
1088,74.0,0,15,1.0,84.0
1089,72.0,15,15,1.0,82.0
1090,69.0,0,15,1.0,89.0
1091,71.0,15,15,1.0,99.0
1092,74.0,0,15,1.0,89.0
1093,72.0,15,15,1.0,94.0
1094,69.0,0,15,1.0,86.0
1095,74.0,0,15,1.0,84.0
1096,71.0,15,15,1.0,95.0
1097,72.0,0,15,1.0,89.0
1098,69.0,15,15,1.0,85.0
1099,71.0,15,15,1.0,95.0
1100,74.0,0,15,1.0,84.0
1101,72.0,15,15,1.0,89.0
1102,69.0,0,15,1.0,84.0
1103,74.0,0,15,1.0,89.0
1104,71.0,15,15,1.0,99.0
1105,72.0,15,15,1.0,86.0
1106,69.0,0,15,1.0,94.0
1107,74.0,0,15,1.0,89.0
1108,71.0,15,15,1.0,94.0
1109,69.0,0,15,1.0,90.0
1110,72.0,15,15,1.0,86.0
1111,74.0,0,15,1.0,84.0
1112,71.0,15,15,1.0,94.0
1113,69.0,15,15,1.0,90.0
1114,72.0,0,15,1.0,90.0
1115,74.0,15,15,1.0,94.0
1116,71.0,0,15,1.0,99.0
1117,72.0,15,15,1.0,93.0
1118,69.0,0,15,1.0,90.0
1119,74.0,0,15,1.0,89.0
1120,71.0,15,15,1.0,99.0
1121,69.0,0,15,1.0,84.0
1122,72.0,15,15,1.0,90.0
1123,74.0,0,15,1.0,93.0
1124,71.0,15,15,1.0,95.0
1125,72.0,0,15,1.0,98.0
1126,69.0,15,15,1.0,86.0
1127,74.0,15,15,1.0,98.0
1128,71.0,0,15,1.0,99.0
1129,69.0,0,15,1.0,112.0
1130,72.0,15,15,1.0,90.0
1131,74.0,0,15,1.0,93.0
1132,71.0,15,15,1.0,98.0
1133,68.0,5,20,1.0,119.0
1134,72.0,0,15,1.0,94.0
1135,69.0,10,15,1.0,84.0
1136,74.0,5,15,1.0,89.0
1137,71.0,0,15,1.0,90.0
1138,67.0,10,20,1.0,105.0
1139,69.0,0,15,1.0,89.0
1140,72.0,0,15,1.0,95.0
1141,66.0,15,20,1.0,119.0
1142,74.0,0,15,1.0,84.0
1143,71.0,15,15,1.0,98.0
1144,65.0,5,20,1.0,115.0
1145,72.0,0,15,1.0,95.0
1146,69.0,10,15,1.0,82.0
1147,64.0,10,20,1.0,115.0
1148,74.0,0,15,1.0,93.0
1149,71.0,5,15,1.0,94.0
1150,69.0,15,15,1.0,84.0
1151,72.0,0,15,1.0,85.0
1152,74.0,15,15,1.0,89.0
1153,71.0,0,15,1.0,95.0
1154,72.0,0,15,1.0,90.0
1155,69.0,15,15,1.0,82.0
1156,71.0,0,15,1.0,94.0
1157,74.0,15,15,1.0,85.0
1158,72.0,15,15,1.0,90.0
1159,69.0,0,15,1.0,85.0
1160,71.0,0,15,1.0,95.0
1161,74.0,15,15,1.0,89.0
1162,72.0,0,15,1.0,89.0
1163,69.0,15,15,1.0,85.0
1164,63.0,0,120,1.0,105.0
1165,71.0,15,15,1.0,94.0
1166,74.0,0,15,1.0,89.0
1167,72.0,15,15,1.0,89.0
1168,69.0,0,15,1.0,89.0
1169,71.0,15,15,1.0,95.0
1170,74.0,0,15,1.0,85.0
1171,72.0,15,15,1.0,84.0
1172,69.0,0,15,1.0,86.0
1173,74.0,15,15,1.0,80.0
1174,71.0,0,15,1.0,94.0
1175,69.0,15,15,1.0,85.0
1176,72.0,0,15,1.0,85.0
1177,74.0,15,15,1.0,81.0
1178,71.0,0,15,1.0,95.0
1179,69.0,15,15,1.0,89.0
1180,72.0,0,15,1.0,86.0
1181,80.0,0,120,1.0,123.0
1182,74.0,15,15,1.0,85.0
1183,71.0,0,15,1.0,94.0
1184,72.0,0,15,1.0,84.0
1185,69.0,0,15,1.0,86.0
1186,71.0,15,15,1.0,93.0
1187,74.0,0,15,1.0,84.0
1188,72.0,15,15,1.0,90.0
1189,69.0,0,15,1.0,89.0
1190,74.0,0,15,1.0,90.0
1191,71.0,15,15,1.0,98.0
1192,69.0,0,15,1.0,94.0
1193,72.0,15,15,1.0,94.0
1194,74.0,15,15,1.0,80.0
1195,71.0,0,15,1.0,93.0
1196,69.0,0,15,1.0,93.0
1197,72.0,15,15,1.0,90.0
1198,74.0,15,15,1.0,89.0
1199,71.0,0,15,1.0,95.0
1200,81.0,15,120,1.0,112.0
1201,72.0,15,15,1.0,94.0
1202,69.0,0,15,1.0,110.0
1203,74.0,0,15,1.0,90.0
1204,71.0,15,15,1.0,99.0
1205,68.0,5,20,1.0,105.0
1206,72.0,0,15,1.0,93.0
1207,69.0,10,15,1.0,90.0
1208,74.0,0,15,1.0,90.0
1209,71.0,5,15,1.0,101.0
1210,67.0,10,20,1.0,95.0
1211,69.0,0,15,1.0,89.0
1212,72.0,0,15,1.0,89.0
1213,66.0,15,20,1.0,115.0
1214,74.0,15,15,1.0,98.0
1215,71.0,0,15,1.0,98.0
1216,65.0,5,20,1.0,105.0
1217,69.0,0,15,1.0,98.0
1218,72.0,10,15,1.0,93.0
1219,74.0,0,15,1.0,95.0
1220,71.0,5,15,1.0,95.0
1221,64.0,10,20,1.0,105.0
1222,72.0,0,15,1.0,90.0
1223,69.0,15,15,1.0,90.0
1224,74.0,0,15,1.0,98.0
1225,71.0,15,15,1.0,101.0
1226,72.0,0,15,1.0,94.0
1227,69.0,15,15,1.0,86.0
1228,74.0,0,15,1.0,95.0
1229,71.0,15,15,1.0,101.0
1230,72.0,15,15,1.0,98.0
1231,69.0,0,15,1.0,94.0
1232,74.0,0,15,1.0,98.0
1233,71.0,15,15,1.0,104.0
1234,72.0,15,15,1.0,94.0
1235,69.0,0,15,1.0,95.0
1236,74.0,15,15,1.0,94.0
1237,71.0,0,15,1.0,98.0
1238,63.0,0,120,1.0,112.0
1239,72.0,0,15,1.0,93.0
1240,69.0,15,15,1.0,89.0
1241,74.0,0,15,1.0,85.0
1242,71.0,15,15,1.0,95.0
1243,72.0,15,15,1.0,94.0
1244,69.0,0,15,1.0,89.0
1245,71.0,0,15,1.0,99.0
1246,74.0,15,15,1.0,93.0
1247,72.0,15,15,1.0,99.0
1248,69.0,0,15,1.0,99.0
1249,74.0,0,15,1.0,94.0
1250,71.0,15,15,1.0,99.0
1251,72.0,0,15,1.0,90.0
1252,69.0,15,15,1.0,94.0
1253,80.0,0,120,1.0,119.0
1254,71.0,15,15,1.0,104.0
1255,74.0,0,15,1.0,94.0
1256,72.0,15,15,1.0,99.0
1257,69.0,0,15,1.0,89.0
1258,74.0,0,15,1.0,99.0
1259,71.0,15,15,1.0,99.0
1260,72.0,0,15,1.0,98.0
1261,69.0,15,15,1.0,93.0
1262,74.0,0,15,1.0,99.0
1263,71.0,15,15,1.0,99.0
1264,72.0,0,15,1.0,93.0
1265,69.0,15,15,1.0,89.0
1266,74.0,15,15,1.0,93.0
1267,71.0,0,15,1.0,98.0
1268,72.0,15,15,1.0,99.0
1269,69.0,0,15,1.0,93.0
1270,71.0,15,15,1.0,95.0
1271,74.0,0,15,1.0,95.0
1272,81.0,0,120,1.0,119.0
1273,72.0,0,15,1.0,95.0
1274,69.0,0,15,1.0,93.0
1275,71.0,15,15,1.0,94.0
1276,74.0,0,15,1.0,93.0
1277,68.0,5,20,1.0,119.0
1278,72.0,10,15,1.0,94.0
1279,69.0,0,15,1.0,84.0
1280,71.0,5,15,1.0,95.0
1281,74.0,0,15,1.0,93.0
1282,67.0,10,20,1.0,104.0
1283,72.0,0,15,1.0,93.0
1284,69.0,0,15,1.0,94.0
1285,66.0,15,20,1.0,112.0
1286,74.0,0,15,1.0,94.0
1287,71.0,15,15,1.0,95.0
1288,65.0,5,20,1.0,115.0
1289,72.0,0,15,1.0,99.0
1290,69.0,10,15,1.0,86.0
1291,74.0,5,15,1.0,90.0
1292,71.0,0,15,1.0,104.0
1293,64.0,10,20,1.0,112.0
1294,72.0,15,15,1.0,94.0
1295,69.0,0,15,1.0,89.0
1296,63.0,0,20,1.0,117.0
1297,74.0,15,15,1.0,89.0
1298,71.0,0,15,1.0,98.0
1299,64.0,5,20,1.0,99.0
1300,72.0,0,15,1.0,89.0
1301,69.0,10,15,1.0,89.0
1302,71.0,5,15,1.0,98.0
1303,74.0,0,15,1.0,98.0
1304,65.0,10,20,1.0,112.0
1305,69.0,0,15,1.0,93.0
1306,72.0,15,15,1.0,99.0
1307,66.0,0,20,1.0,115.0
1308,74.0,15,15,1.0,95.0
1309,71.0,0,15,1.0,94.0
1310,67.0,5,20,1.0,99.0
1311,72.0,0,15,1.0,95.0
1312,69.0,10,15,1.0,94.0
1313,68.0,10,20,1.0,112.0
1314,74.0,0,15,1.0,94.0
1315,71.0,5,15,1.0,95.0
1316,72.0,0,15,1.0,94.0
1317,69.0,0,15,1.0,93.0
1318,74.0,0,15,1.0,93.0
1319,71.0,15,15,1.0,95.0
1320,68.0,5,20,1.0,112.0
1321,69.0,10,15,1.0,86.0
1322,72.0,0,15,1.0,95.0
1323,74.0,5,15,1.0,95.0
1324,71.0,0,15,1.0,99.0
1325,67.0,10,20,1.0,101.0
1326,72.0,0,15,1.0,98.0
1327,69.0,15,15,1.0,93.0
1328,66.0,0,20,1.0,112.0
1329,74.0,0,15,1.0,98.0
1330,71.0,15,15,1.0,99.0
1331,65.0,5,20,1.0,110.0
1332,69.0,10,15,1.0,86.0
1333,72.0,0,15,1.0,90.0
1334,71.0,5,15,1.0,99.0
1335,74.0,0,15,1.0,89.0
1336,64.0,10,20,1.0,105.0
1337,72.0,0,15,1.0,94.0
1338,69.0,15,15,1.0,94.0
1339,63.0,0,20,1.0,112.0
1340,71.0,15,15,1.0,101.0
1341,74.0,0,15,1.0,89.0
1342,64.0,5,20,1.0,110.0
1343,72.0,10,15,1.0,89.0
1344,69.0,0,15,1.0,85.0
1345,74.0,0,15,1.0,94.0
1346,71.0,5,15,1.0,99.0
1347,65.0,10,20,1.0,112.0
1348,72.0,0,15,1.0,93.0
1349,69.0,15,15,1.0,95.0
1350,66.0,0,20,1.0,112.0
1351,74.0,15,15,1.0,94.0
1352,71.0,0,15,1.0,98.0
1353,67.0,5,20,1.0,85.0
1354,72.0,0,15,1.0,98.0
1355,69.0,10,15,1.0,90.0
1356,71.0,5,15,1.0,95.0
1357,74.0,0,15,1.0,93.0
1358,68.0,10,20,1.0,112.0
1359,69.0,0,15,1.0,89.0
1360,72.0,0,15,1.0,94.0
1361,67.0,0,15,1.0,93.0
1362,74.0,0,15,1.0,94.0
1363,71.0,15,15,1.0,101.0
1364,69.0,0,15,1.0,104.0
1365,72.0,0,15,1.0,95.0
1366,67.0,0,15,1.0,89.0
1367,71.0,0,15,1.0,99.0
1368,74.0,15,15,1.0,90.0
1369,69.0,0,15,1.0,105.0
1370,72.0,15,15,1.0,94.0
1371,67.0,15,15,1.0,94.0
1372,74.0,0,15,1.0,85.0
1373,71.0,0,15,1.0,95.0
1374,69.0,0,15,1.0,90.0
1375,72.0,15,15,1.0,90.0
1376,74.0,0,15,1.0,94.0
1377,67.0,0,15,1.0,98.0
1378,71.0,15,15,1.0,93.0
1379,69.0,15,15,1.0,90.0
1380,72.0,0,15,1.0,89.0
1381,74.0,0,15,1.0,105.0
1382,71.0,15,15,1.0,99.0
1383,72.0,15,15,1.0,94.0
1384,69.0,0,15,1.0,94.0
1385,74.0,0,15,1.0,94.0
1386,71.0,15,15,1.0,95.0
1387,69.0,0,15,1.0,94.0
1388,72.0,15,15,1.0,86.0
1389,71.0,0,15,1.0,94.0
1390,74.0,15,15,1.0,89.0
1391,72.0,15,15,1.0,94.0
1392,69.0,0,15,1.0,86.0
1393,71.0,0,15,1.0,89.0
1394,74.0,15,15,1.0,93.0
1395,69.0,0,15,1.0,84.0
1396,72.0,15,15,1.0,95.0
1397,74.0,15,15,1.0,90.0
1398,71.0,0,15,1.0,94.0
1399,69.0,0,15,1.0,82.0
1400,72.0,15,15,1.0,89.0
1401,74.0,0,15,1.0,89.0
1402,71.0,15,15,1.0,89.0
1403,69.0,0,15,1.0,82.0
1404,72.0,15,15,1.0,84.0
1405,74.0,0,15,1.0,86.0
1406,71.0,15,15,1.0,82.0
1407,69.0,15,15,1.0,80.0
1408,72.0,0,15,1.0,85.0
1409,74.0,0,15,1.0,85.0
1410,71.0,15,15,1.0,82.0
1411,69.0,0,15,1.0,78.0
1412,72.0,15,15,1.0,80.0
1413,74.0,0,15,1.0,82.0
1414,71.0,15,15,1.0,80.0
1415,69.0,15,15,1.0,80.0
1416,72.0,0,15,1.0,73.0
1417,74.0,0,15,1.0,72.0
1418,71.0,15,15,1.0,78.0
1419,69.0,0,15,1.0,78.0
1420,72.0,15,15,1.0,76.0
1421,74.0,15,15,1.0,73.0
1422,71.0,0,15,1.0,66.0
1423,69.0,15,15,1.0,77.0
1424,72.0,0,15,1.0,72.0
1425,71.0,0,15,1.0,81.0
1426,74.0,15,15,1.0,77.0
1427,69.0,0,15,1.0,73.0
1428,72.0,15,15,1.0,62.0
1429,71.0,15,15,1.0,62.0
1430,74.0,0,15,1.0,72.0
1431,69.0,15,15,1.0,74.0
1432,72.0,0,15,1.0,72.0
1433,74.0,0,15,1.0,65.0
1434,71.0,15,15,1.0,72.0
1435,69.0,0,15,1.0,76.0
1436,72.0,15,15,1.0,65.0
1437,71.0,15,15,1.0,73.0
1438,74.0,0,15,1.0,73.0
1439,69.0,0,15,1.0,67.0
1440,72.0,15,15,1.0,64.0
1441,71.0,15,15,1.0,73.0
1442,74.0,0,15,1.0,64.0
1443,69.0,0,15,1.0,73.0
1444,72.0,0,15,1.0,71.0
1445,74.0,0,15,1.0,67.0
1446,71.0,15,15,1.0,66.0
1447,69.0,15,15,1.0,73.0
1448,72.0,0,15,1.0,64.0
1449,69.0,15,0,1.0,71.0
1450,61.0,15,60,1.0,76.0
1451,74.0,0,15,1.0,65.0
1452,71.0,15,15,1.0,72.0
1453,72.0,0,15,1.0,64.0
1454,71.0,15,15,1.0,74.0
1455,74.0,0,15,1.0,68.0
1456,72.0,0,15,1.0,64.0
1457,69.0,15,15,1.0,68.0
1458,74.0,0,15,1.0,71.0
1459,71.0,15,15,1.0,78.0
1460,72.0,15,15,1.0,70.0
1461,69.0,0,15,1.0,68.0
1462,74.0,0,15,1.0,71.0
1463,71.0,15,15,1.0,73.0
1464,69.0,0,15,1.0,73.0
1465,72.0,15,15,1.0,66.0
1466,71.0,0,15,1.0,73.0
1467,74.0,15,15,1.0,62.0
1468,69.0,15,15,1.0,68.0
1469,72.0,0,15,1.0,64.0
1470,74.0,0,15,1.0,64.0
1471,71.0,15,15,1.0,68.0
1472,72.0,0,15,1.0,65.0
1473,69.0,15,15,1.0,68.0
1474,71.0,0,15,1.0,68.0
1475,74.0,15,15,1.0,69.0
1476,69.0,0,15,1.0,68.0
1477,72.0,15,15,1.0,66.0
1478,74.0,15,15,1.0,74.0
1479,71.0,0,15,1.0,66.0
1480,69.0,15,15,1.0,77.0
1481,72.0,0,15,1.0,65.0
1482,71.0,0,15,1.0,73.0
1483,74.0,15,15,1.0,68.0
1484,72.0,15,15,1.0,64.0
1485,69.0,0,15,1.0,68.0
1486,74.0,15,15,1.0,53.0
1487,71.0,0,15,1.0,66.0
1488,69.0,15,15,1.0,55.0
1489,72.0,0,15,1.0,64.0
1490,74.0,0,15,1.0,53.0
1491,71.0,15,15,1.0,64.0
1492,69.0,0,15,1.0,71.0
1493,72.0,15,15,1.0,64.0
1494,71.0,0,15,1.0,73.0
1495,74.0,15,15,1.0,76.0
1496,69.0,0,15,1.0,66.0
1497,72.0,15,15,1.0,65.0
1498,74.0,15,15,1.0,52.0
1499,71.0,0,15,1.0,57.0
1500,69.0,0,15,1.0,72.0
1501,72.0,15,15,1.0,66.0
1502,71.0,0,15,1.0,70.0
1503,74.0,15,15,1.0,53.0
1504,69.0,0,15,1.0,60.0
1505,72.0,15,15,1.0,46.0
1506,74.0,0,15,1.0,53.0
1507,71.0,15,0,1.0,65.0
1508,74.0,37,37,1.0,64.0
1509,72.0,37,37,1.0,64.0
1510,71.0,37,37,1.0,45.0
1511,69.0,37,37,1.0,52.0
1512,67.0,37,37,1.0,53.0
1513,66.0,37,37,1.0,44.0
1514,69.0,37,37,1.0,64.0
1515,67.0,37,37,1.0,43.0
1516,71.0,37,37,1.0,29.0
1517,69.0,37,37,1.0,50.0
1518,72.0,37,37,1.0,47.0
1519,71.0,37,36,1.0,52.0
1520,74.0,36,40,1.0,61.0
1521,72.0,40,40,1.0,50.0
1522,71.0,40,40,1.0,52.0
1523,69.0,40,40,1.0,63.0
1524,67.0,40,40,1.0,64.0
1525,66.0,40,40,1.0,50.0
1526,69.0,40,40,1.0,50.0
1527,67.0,40,40,1.0,52.0
1528,71.0,40,40,1.0,64.0
1529,69.0,40,40,1.0,46.0
1530,72.0,40,40,1.0,67.0
1531,71.0,40,40,1.0,62.0
1532,74.0,40,120,1.0,32.0
1533,72.0,120,120,1.0,48.0
1534,71.0,120,120,1.0,60.0
1535,69.0,120,120,1.0,56.0
1536,67.0,120,90,1.0,52.0
1537,66.0,120,90,1.0,43.0
1538,69.0,120,90,1.0,41.0
1539,72.0,120,90,1.0,49.0
1540,35.0,120,30,1.0,44.0
1541,47.0,30,30,1.0,57.0
1542,52.0,30,20,1.0,68.0
1543,55.0,20,20,1.0,48.0
1544,59.0,20,15,1.0,56.0
1545,64.0,15,15,1.0,73.0
1546,67.0,15,15,1.0,43.0
1547,71.0,15,15,1.0,65.0
1548,47.0,95,30,1.0,52.0
1549,51.0,30,20,1.0,44.0
1550,54.0,20,20,1.0,54.0
1551,59.0,20,15,1.0,64.0
1552,63.0,15,15,1.0,62.0
1553,66.0,15,10,1.0,50.0
1554,71.0,10,10,1.0,53.0
1555,75.0,10,10,1.0,60.0
1556,52.0,0,60,1.0,58.0
1557,64.0,0,60,1.0,47.0
1558,40.0,0,60,6.0,62.0
1559,40.0,0,60,1.0,43.0
1560,52.0,120,60,5.0,62.0
1561,40.0,165,10,6.0,56.0
1562,52.0,0,10,5.0,56.0
1563,50.0,0,22,5.0,56.0
1564,38.0,15,22,6.0,56.0
1565,40.0,45,10,6.0,62.0
1566,52.0,0,10,5.0,62.0
1567,36.0,0,60,6.0,52.0
1568,48.0,15,60,5.0,52.0
1569,52.0,165,10,5.0,61.0
1570,40.0,0,10,6.0,61.0
1571,50.0,15,22,5.0,53.0
1572,38.0,0,22,6.0,53.0
1573,52.0,45,10,5.0,59.0
1574,40.0,0,10,6.0,59.0
1575,36.0,15,60,6.0,46.0
1576,48.0,0,60,5.0,46.0
1577,52.0,0,10,5.0,65.0
1578,40.0,165,10,6.0,65.0
1579,38.0,15,22,6.0,62.0
1580,50.0,0,22,5.0,62.0
1581,40.0,45,10,6.0,67.0
1582,52.0,0,10,5.0,67.0
1583,64.0,0,840,2.0,34.0
1584,36.0,15,120,6.0,59.0
1585,64.0,0,840,3.0,29.0
1586,52.0,0,840,4.0,29.0
1587,48.0,0,120,5.0,59.0
1588,62.0,0,60,3.0,35.0
1589,65.0,0,60,2.0,38.0
1590,47.0,0,60,5.0,61.0
1591,35.0,120,60,6.0,61.0
1592,53.0,0,60,4.0,38.0
1593,33.0,0,60,6.0,64.0
1594,57.0,60,60,4.0,35.0
1595,45.0,0,60,5.0,64.0
1596,65.0,0,0,2.0,42.0
1597,60.0,0,60,3.0,36.0
1598,64.0,60,0,2.0,29.0
1599,32.0,60,240,6.0,52.0
1600,44.0,0,240,5.0,52.0
1601,59.0,0,240,3.0,38.0
1602,50.0,0,240,4.0,41.0
1603,45.0,0,60,5.0,51.0
1604,60.0,0,60,3.0,34.0
1605,33.0,0,60,6.0,51.0
1606,48.0,0,60,4.0,34.0
1607,60.0,0,180,1.0,45.0
1608,72.0,0,180,1.0,64.0
1609,76.0,0,180,1.0,58.0
1610,57.0,0,180,1.0,53.0
1611,66.0,0,60,1.0,40.0
1612,71.0,0,60,1.0,51.0
1613,59.0,0,0,1.0,56.0
1614,75.0,0,0,1.0,64.0
1615,66.0,0,60,1.0,42.0
1616,71.0,0,60,1.0,48.0
1617,63.0,60,240,2.0,43.0
1618,54.0,0,240,4.0,50.0
1619,59.0,0,240,3.0,45.0
1620,35.0,0,240,6.0,64.0
1621,47.0,0,240,5.0,64.0
1622,64.0,240,90,2.0,43.0
1623,55.0,0,90,4.0,46.0
1624,28.0,0,90,6.0,65.0
1625,40.0,0,90,5.0,65.0
1626,59.0,0,90,3.0,43.0
1627,55.0,120,90,3.0,40.0
1628,28.0,0,90,6.0,64.0
1629,59.0,0,90,4.0,46.0
1630,64.0,0,90,2.0,45.0
1631,40.0,0,90,5.0,64.0
1632,40.0,0,20,1.0,60.0
1633,79.0,20,20,1.0,46.0
1634,78.0,20,60,1.0,45.0
1635,67.0,20,130,1.0,62.0
1636,64.0,20,150,1.0,56.0
1637,52.0,20,190,1.0,65.0
1638,76.0,60,30,1.0,50.0
1639,59.0,20,170,1.0,52.0
1640,40.0,0,240,5.0,66.0
1641,64.0,0,240,2.0,42.0
1642,59.0,0,240,4.0,42.0
1643,28.0,120,240,6.0,66.0
1644,55.0,0,240,3.0,39.0
