,note,step,duration,channel,velocity
0,51.0,295,180,2.0,0.0
1,63.0,5,180,0.0,0.0
2,51.0,156,240,2.0,0.0
3,63.0,0,240,0.0,0.0
4,44.0,6,630,3.0,0.0
5,60.0,120,720,1.0,0.0
6,68.0,0,150,0.0,0.0
7,56.0,234,150,2.0,0.0
8,68.0,0,150,0.0,0.0
9,56.0,84,150,2.0,0.0
10,68.0,120,120,0.0,0.0
11,51.0,4,660,2.0,0.0
12,56.0,0,120,2.0,0.0
13,46.0,0,660,3.0,0.0
14,63.0,60,660,1.0,0.0
15,61.0,480,720,1.0,0.0
16,55.0,0,15,2.0,0.0
17,67.0,180,15,0.0,0.0
18,65.0,0,60,0.0,0.0
19,53.0,176,60,2.0,0.0
20,67.0,0,180,0.0,0.0
21,55.0,0,180,2.0,0.0
22,63.0,0,60,0.0,0.0
23,51.0,0,60,2.0,0.0
24,56.0,0,480,2.0,0.0
25,68.0,0,480,0.0,0.0
26,48.0,0,240,3.0,0.0
27,63.0,240,15,1.0,0.0
28,70.0,0,240,0.0,0.0
29,43.0,0,240,3.0,0.0
30,51.0,0,240,2.0,0.0
31,58.0,0,240,1.0,0.0
32,73.0,60,180,0.0,0.0
33,60.0,0,240,1.0,0.0
34,44.0,0,240,3.0,0.0
35,68.0,0,240,1.0,0.0
36,63.0,180,15,1.0,0.0
37,72.0,0,60,0.0,0.0
38,51.0,120,15,2.0,0.0
39,70.0,0,120,0.0,0.0
40,67.0,0,120,1.0,0.0
41,63.0,117,120,1.0,0.0
42,58.0,3,120,1.0,0.0
43,39.0,0,120,3.0,0.0
44,72.0,60,30,0.0,0.0
45,70.0,60,60,0.0,0.0
46,69.0,60,60,0.0,0.0
47,70.0,60,60,0.0,0.0
48,72.0,240,60,0.0,0.0
49,68.0,0,480,1.0,0.0
50,73.0,240,480,0.0,0.0
51,53.0,240,240,3.0,0.0
52,65.0,0,240,3.0,0.0
53,68.0,0,240,1.0,0.0
54,63.0,240,240,3.0,0.0
55,72.0,0,240,0.0,0.0
56,68.0,240,240,1.0,0.0
57,70.0,0,240,1.0,0.0
58,77.0,0,240,0.0,0.0
59,62.0,0,240,3.0,0.0
60,61.0,0,240,3.0,0.0
61,70.0,0,240,0.0,0.0
62,67.0,240,240,1.0,0.0
63,60.0,0,240,3.0,0.0
64,68.0,240,240,1.0,0.0
65,75.0,0,240,0.0,0.0
66,53.0,0,240,3.0,0.0
67,68.0,0,240,0.0,0.0
68,65.0,240,240,1.0,0.0
69,55.0,0,240,3.0,0.0
70,73.0,0,240,0.0,0.0
71,64.0,0,240,1.0,0.0
72,70.0,240,240,1.0,0.0
73,56.0,0,240,3.0,0.0
74,72.0,240,240,0.0,0.0
75,63.0,0,240,1.0,0.0
76,68.0,0,240,1.0,0.0
77,66.0,0,240,1.0,0.0
78,63.0,0,360,1.0,0.0
79,51.0,275,360,3.0,0.0
80,69.0,120,240,0.0,0.0
81,67.0,0,120,1.0,0.0
82,70.0,0,120,0.0,0.0
83,51.0,58,180,2.0,0.0
84,63.0,15,150,0.0,0.0
85,51.0,132,60,2.0,0.0
86,63.0,0,60,0.0,0.0
87,51.0,78,120,2.0,0.0
88,60.0,160,690,1.0,0.0
89,44.0,18,660,3.0,0.0
90,63.0,0,120,0.0,0.0
91,68.0,0,90,0.0,0.0
92,56.0,120,90,2.0,0.0
93,68.0,120,90,0.0,0.0
94,56.0,0,90,2.0,0.0
95,68.0,120,90,0.0,0.0
96,56.0,0,90,2.0,0.0
97,56.0,0,90,2.0,0.0
98,68.0,102,90,0.0,0.0
99,68.0,0,90,0.0,0.0
100,56.0,2,90,2.0,0.0
101,56.0,0,120,2.0,0.0
102,51.0,0,600,2.0,0.0
103,61.0,0,600,1.0,0.0
104,46.0,53,600,3.0,0.0
105,68.0,120,120,0.0,0.0
106,63.0,4,600,1.0,0.0
107,67.0,180,120,0.0,0.0
108,55.0,0,15,2.0,0.0
109,67.0,60,180,0.0,0.0
110,65.0,0,60,0.0,0.0
111,53.0,123,60,2.0,0.0
112,67.0,60,180,0.0,0.0
113,55.0,0,120,2.0,0.0
114,63.0,0,60,0.0,0.0
115,51.0,480,60,2.0,0.0
116,68.0,0,480,0.0,0.0
117,56.0,0,480,2.0,0.0
118,48.0,240,240,3.0,0.0
119,58.0,0,240,1.0,0.0
120,63.0,0,15,1.0,0.0
121,70.0,180,240,0.0,0.0
122,43.0,0,240,3.0,0.0
123,73.0,60,180,0.0,0.0
124,60.0,123,240,1.0,0.0
125,44.0,0,240,3.0,0.0
126,68.0,0,240,1.0,0.0
127,51.0,0,15,2.0,0.0
128,63.0,0,240,1.0,0.0
129,72.0,0,60,0.0,0.0
130,39.0,0,120,3.0,0.0
131,67.0,113,120,1.0,0.0
132,63.0,0,120,1.0,0.0
133,58.0,0,120,1.0,0.0
134,51.0,4,120,2.0,0.0
135,70.0,0,120,0.0,0.0
136,72.0,60,30,0.0,0.0
137,70.0,60,60,0.0,0.0
138,69.0,60,60,0.0,0.0
139,70.0,60,60,0.0,0.0
140,72.0,240,60,0.0,0.0
141,73.0,0,480,0.0,0.0
142,53.0,240,240,3.0,0.0
143,65.0,0,240,3.0,0.0
144,68.0,240,15,1.0,0.0
145,63.0,0,240,3.0,0.0
146,72.0,240,240,0.0,0.0
147,70.0,0,240,1.0,0.0
148,68.0,0,15,1.0,0.0
149,62.0,0,240,3.0,0.0
150,77.0,240,240,0.0,0.0
151,61.0,0,240,3.0,0.0
152,70.0,175,240,0.0,0.0
153,67.0,0,240,1.0,0.0
154,60.0,0,240,3.0,0.0
155,68.0,0,180,1.0,0.0
156,75.0,65,180,0.0,0.0
157,70.0,60,30,0.0,0.0
158,68.0,60,60,0.0,0.0
159,67.0,60,60,0.0,0.0
160,68.0,60,60,0.0,0.0
161,70.0,240,60,0.0,0.0
162,68.0,240,240,1.0,0.0
163,72.0,0,240,0.0,0.0
164,63.0,0,240,1.0,0.0
165,51.0,0,240,3.0,0.0
166,61.0,0,240,1.0,0.0
167,67.0,0,240,1.0,0.0
168,70.0,120,240,0.0,0.0
169,39.0,0,240,3.0,0.0
170,60.0,120,240,1.0,0.0
171,44.0,120,120,3.0,0.0
172,68.0,0,240,0.0,0.0
173,32.0,600,120,3.0,0.0
174,65.0,0,720,3.0,0.0
175,69.0,240,240,1.0,0.0
176,72.0,0,240,0.0,0.0
177,67.0,0,240,1.0,0.0
178,70.0,240,240,0.0,0.0
179,63.0,120,240,3.0,0.0
180,69.0,0,240,1.0,0.0
181,72.0,0,240,0.0,0.0
182,70.0,0,240,1.0,0.0
183,73.0,120,240,0.0,0.0
184,63.0,120,120,3.0,0.0
185,61.0,0,120,3.0,0.0
186,73.0,33,180,1.0,0.0
187,60.0,72,120,3.0,0.0
188,77.0,0,180,0.0,0.0
189,58.0,495,120,3.0,0.0
190,63.0,240,720,3.0,0.0
191,67.0,240,240,1.0,0.0
192,70.0,0,240,0.0,0.0
193,68.0,0,240,0.0,0.0
194,65.0,0,240,1.0,0.0
195,67.0,0,240,1.0,0.0
196,61.0,0,240,3.0,0.0
197,70.0,120,240,0.0,0.0
198,61.0,120,120,3.0,0.0
199,68.0,0,240,1.0,0.0
200,72.0,0,240,0.0,0.0
201,60.0,120,120,3.0,0.0
202,58.0,72,120,3.0,0.0
203,72.0,24,180,1.0,0.0
204,75.0,0,180,0.0,0.0
205,56.0,504,90,3.0,0.0
206,63.0,240,480,1.0,0.0
207,75.0,0,480,0.0,0.0
208,56.0,0,480,3.0,0.0
209,60.0,0,240,2.0,0.0
210,59.0,0,240,2.0,0.0
211,74.0,240,240,0.0,0.0
212,62.0,0,240,1.0,0.0
213,58.0,0,240,2.0,0.0
214,61.0,0,240,2.0,0.0
215,55.0,0,240,3.0,0.0
216,64.0,240,240,1.0,0.0
217,76.0,0,240,0.0,0.0
218,77.0,240,240,0.0,0.0
219,60.0,0,240,2.0,0.0
220,65.0,0,240,1.0,0.0
221,56.0,0,240,3.0,0.0
222,52.0,120,240,3.0,0.0
223,67.0,0,240,1.0,0.0
224,79.0,0,240,0.0,0.0
225,60.0,0,240,2.0,0.0
226,68.0,480,240,1.0,0.0
227,60.0,0,240,2.0,0.0
228,80.0,60,180,0.0,0.0
229,53.0,60,120,3.0,0.0
230,56.0,0,120,3.0,0.0
231,77.0,0,60,0.0,0.0
232,58.0,0,480,2.0,0.0
233,75.0,0,480,0.0,0.0
234,46.0,0,480,3.0,0.0
235,70.0,35,240,1.0,0.0
236,59.0,0,240,2.0,0.0
237,74.0,17,30,0.0,0.0
238,47.0,0,240,3.0,0.0
239,68.0,2,240,1.0,0.0
240,65.0,0,240,1.0,0.0
241,75.0,25,30,0.0,0.0
242,74.0,23,30,0.0,0.0
243,75.0,30,30,0.0,0.0
244,74.0,30,30,0.0,0.0
245,75.0,35,30,0.0,0.0
246,74.0,25,60,0.0,0.0
247,72.0,20,30,0.0,0.0
248,74.0,238,30,0.0,0.0
249,63.0,0,240,1.0,0.0
250,67.0,0,240,1.0,0.0
251,48.0,0,240,3.0,0.0
252,60.0,240,240,2.0,0.0
253,75.0,0,480,0.0,0.0
254,44.0,180,240,3.0,0.0
255,56.0,0,240,2.0,0.0
256,57.0,0,240,2.0,0.0
257,65.0,0,240,1.0,0.0
258,72.0,0,15,1.0,0.0
259,79.0,60,180,0.0,0.0
260,45.0,480,240,3.0,0.0
261,77.0,0,60,0.0,0.0
262,75.0,0,480,0.0,0.0
263,58.0,0,480,2.0,0.0
264,46.0,35,480,3.0,0.0
265,67.0,0,480,1.0,0.0
266,70.0,0,240,1.0,0.0
267,46.0,0,240,2.0,0.0
268,74.0,17,30,0.0,0.0
269,68.0,0,240,1.0,0.0
270,65.0,0,240,1.0,0.0
271,34.0,2,240,3.0,0.0
272,75.0,25,30,0.0,0.0
273,74.0,23,30,0.0,0.0
274,75.0,30,30,0.0,0.0
275,74.0,30,30,0.0,0.0
276,75.0,35,30,0.0,0.0
277,74.0,25,60,0.0,0.0
278,72.0,20,30,0.0,0.0
279,74.0,154,30,0.0,0.0
280,67.0,0,150,1.0,0.0
281,63.0,240,150,1.0,0.0
282,39.0,0,150,3.0,0.0
283,51.0,0,150,2.0,0.0
284,75.0,0,150,0.0,0.0
285,51.0,0,150,2.0,0.0
286,68.0,0,150,1.0,0.0
287,75.0,0,150,0.0,0.0
288,62.0,240,150,1.0,0.0
289,41.0,0,150,3.0,0.0
290,70.0,0,150,1.0,0.0
291,43.0,0,150,3.0,0.0
292,75.0,204,150,0.0,0.0
293,51.0,0,150,2.0,0.0
294,61.0,0,150,1.0,0.0
295,51.0,0,120,2.0,0.0
296,60.0,3,660,1.0,0.0
297,63.0,78,120,0.0,0.0
298,44.0,160,690,3.0,0.0
299,68.0,0,90,0.0,0.0
300,56.0,120,90,2.0,0.0
301,56.0,0,90,2.0,0.0
302,68.0,120,90,0.0,0.0
303,56.0,120,90,2.0,0.0
304,68.0,0,90,0.0,0.0
305,68.0,117,90,0.0,0.0
306,56.0,0,90,2.0,0.0
307,56.0,2,90,2.0,0.0
308,68.0,0,90,0.0,0.0
309,46.0,7,660,3.0,0.0
310,56.0,120,120,2.0,0.0
311,68.0,0,120,0.0,0.0
312,63.0,0,660,1.0,0.0
313,61.0,1,660,1.0,0.0
314,51.0,4,660,2.0,0.0
315,67.0,180,120,0.0,0.0
316,55.0,0,120,2.0,0.0
317,55.0,0,180,2.0,0.0
318,67.0,60,180,0.0,0.0
319,53.0,168,60,2.0,0.0
320,65.0,0,60,0.0,0.0
321,55.0,0,180,2.0,0.0
322,67.0,60,180,0.0,0.0
323,51.0,480,60,2.0,0.0
324,63.0,0,60,0.0,0.0
325,68.0,0,480,0.0,0.0
326,56.0,240,480,2.0,0.0
327,48.0,0,240,3.0,0.0
328,63.0,0,240,1.0,0.0
329,43.0,0,240,3.0,0.0
330,70.0,0,240,0.0,0.0
331,58.0,180,240,1.0,0.0
332,51.0,0,240,2.0,0.0
333,63.0,0,15,1.0,0.0
334,44.0,0,240,3.0,0.0
335,60.0,123,240,1.0,0.0
336,51.0,0,240,2.0,0.0
337,73.0,60,180,0.0,0.0
338,68.0,0,240,1.0,0.0
339,72.0,0,60,0.0,0.0
340,58.0,0,120,1.0,0.0
341,63.0,0,15,1.0,0.0
342,67.0,0,120,1.0,0.0
343,70.0,0,120,0.0,0.0
344,51.0,60,180,2.0,0.0
345,39.0,53,120,3.0,0.0
346,72.0,60,30,0.0,0.0
347,70.0,60,60,0.0,0.0
348,69.0,60,60,0.0,0.0
349,70.0,60,60,0.0,0.0
350,72.0,464,60,0.0,0.0
351,41.0,16,450,3.0,0.0
352,61.0,240,480,1.0,0.0
353,73.0,0,480,0.0,0.0
354,53.0,0,240,3.0,0.0
355,56.0,0,240,2.0,0.0
356,72.0,0,240,0.0,0.0
357,51.0,240,240,3.0,0.0
358,56.0,0,240,2.0,0.0
359,60.0,0,240,1.0,0.0
360,77.0,0,240,0.0,0.0
361,56.0,0,240,2.0,0.0
362,65.0,180,240,1.0,0.0
363,50.0,0,240,3.0,0.0
364,49.0,0,240,3.0,0.0
365,55.0,180,240,2.0,0.0
366,70.0,0,180,0.0,0.0
367,58.0,60,180,1.0,0.0
368,48.0,60,180,3.0,0.0
369,63.0,0,180,1.0,0.0
370,75.0,0,180,0.0,0.0
371,56.0,0,180,2.0,0.0
372,70.0,60,30,0.0,0.0
373,68.0,60,60,0.0,0.0
374,67.0,60,60,0.0,0.0
375,68.0,60,60,0.0,0.0
376,70.0,240,60,0.0,0.0
377,63.0,0,240,1.0,0.0
378,51.0,0,240,3.0,0.0
379,72.0,240,240,0.0,0.0
380,68.0,0,240,1.0,0.0
381,67.0,0,240,1.0,0.0
382,61.0,120,240,1.0,0.0
383,70.0,0,240,0.0,0.0
384,39.0,0,240,3.0,0.0
385,68.0,120,240,0.0,0.0
386,44.0,120,120,3.0,0.0
387,60.0,0,240,1.0,0.0
388,32.0,1140,120,3.0,0.0
389,51.0,60,300,0.0,0.0
390,32.0,60,720,3.0,0.0
391,39.0,0,720,2.0,0.0
392,44.0,0,720,2.0,0.0
393,48.0,60,60,0.0,0.0
394,51.0,60,60,0.0,0.0
395,56.0,240,60,0.0,0.0
396,60.0,240,240,0.0,0.0
397,56.0,0,240,0.0,0.0
398,46.0,0,720,2.0,0.0
399,34.0,0,720,3.0,0.0
400,55.0,60,60,0.0,0.0
401,61.0,60,60,0.0,0.0
402,63.0,60,60,0.0,0.0
403,67.0,240,60,0.0,0.0
404,73.0,240,240,0.0,0.0
405,67.0,0,240,0.0,0.0
406,48.0,0,480,2.0,0.0
407,39.0,60,15,2.0,0.0
408,68.0,60,60,0.0,0.0
409,36.0,240,480,3.0,0.0
410,51.0,60,60,0.0,0.0
411,56.0,60,60,0.0,0.0
412,60.0,240,60,0.0,0.0
413,63.0,0,15,0.0,0.0
414,43.0,0,240,3.0,0.0
415,58.0,0,240,1.0,0.0
416,63.0,0,240,0.0,0.0
417,61.0,120,120,1.0,0.0
418,56.0,0,240,1.0,0.0
419,44.0,0,240,3.0,0.0
420,51.0,120,15,2.0,0.0
421,60.0,175,120,1.0,0.0
422,51.0,0,15,2.0,0.0
423,55.0,0,180,1.0,0.0
424,63.0,0,180,0.0,0.0
425,58.0,60,180,1.0,0.0
426,39.0,5,180,3.0,0.0
427,60.0,60,30,0.0,0.0
428,58.0,60,60,0.0,0.0
429,57.0,60,60,0.0,0.0
430,58.0,60,60,0.0,0.0
431,60.0,60,60,0.0,0.0
432,41.0,0,480,3.0,0.0
433,61.0,60,15,0.0,0.0
434,65.0,60,60,0.0,0.0
435,68.0,240,60,0.0,0.0
436,56.0,0,240,2.0,0.0
437,53.0,0,240,3.0,0.0
438,73.0,120,240,0.0,0.0
439,72.0,120,120,0.0,0.0
440,51.0,0,240,3.0,0.0
441,56.0,120,240,2.0,0.0
442,50.0,0,240,3.0,0.0
443,56.0,0,240,2.0,0.0
444,65.0,60,60,0.0,0.0
445,68.0,60,60,0.0,0.0
446,70.0,240,60,0.0,0.0
447,55.0,120,240,2.0,0.0
448,49.0,0,240,3.0,0.0
449,77.0,0,240,0.0,0.0
450,56.0,120,240,2.0,0.0
451,48.0,0,240,3.0,0.0
452,75.0,120,120,0.0,0.0
453,41.0,240,240,3.0,0.0
454,49.0,60,60,0.0,0.0
455,53.0,60,60,0.0,0.0
456,56.0,0,60,0.0,0.0
457,43.0,0,240,3.0,0.0
458,61.0,0,240,0.0,0.0
459,52.0,0,240,1.0,0.0
460,58.0,240,240,1.0,0.0
461,44.0,240,240,3.0,0.0
462,60.0,0,240,0.0,0.0
463,51.0,0,240,1.0,0.0
464,56.0,0,240,1.0,0.0
465,57.0,120,240,0.0,0.0
466,51.0,0,360,2.0,0.0
467,54.0,0,240,1.0,0.0
468,39.0,420,360,3.0,0.0
469,58.0,0,120,0.0,0.0
470,55.0,0,120,1.0,0.0
471,51.0,60,300,0.0,0.0
472,32.0,60,720,3.0,0.0
473,44.0,0,720,2.0,0.0
474,48.0,60,60,0.0,0.0
475,51.0,60,60,0.0,0.0
476,56.0,240,60,0.0,0.0
477,60.0,240,240,0.0,0.0
478,56.0,0,240,0.0,0.0
479,39.0,0,15,3.0,0.0
480,46.0,0,720,2.0,0.0
481,34.0,60,720,3.0,0.0
482,55.0,60,60,0.0,0.0
483,61.0,60,60,0.0,0.0
484,63.0,60,60,0.0,0.0
485,67.0,240,60,0.0,0.0
486,73.0,240,240,0.0,0.0
487,67.0,0,240,0.0,0.0
488,39.0,0,240,2.0,0.0
489,48.0,0,240,2.0,0.0
490,36.0,60,240,3.0,0.0
491,68.0,60,60,0.0,0.0
492,51.0,60,60,0.0,0.0
493,56.0,60,60,0.0,0.0
494,60.0,0,60,0.0,0.0
495,63.0,120,60,0.0,0.0
496,51.0,0,60,2.0,0.0
497,51.0,0,60,2.0,0.0
498,63.0,120,60,0.0,0.0
499,43.0,0,180,3.0,0.0
500,58.0,180,180,1.0,0.0
501,63.0,120,60,0.0,0.0
502,51.0,0,60,2.0,0.0
503,51.0,0,60,2.0,0.0
504,63.0,0,60,0.0,0.0
505,61.0,120,120,1.0,0.0
506,56.0,0,240,1.0,0.0
507,51.0,0,240,2.0,0.0
508,44.0,180,240,3.0,0.0
509,60.0,0,120,1.0,0.0
510,51.0,0,240,2.0,0.0
511,63.0,0,15,0.0,0.0
512,58.0,0,180,1.0,0.0
513,55.0,60,180,1.0,0.0
514,39.0,60,240,3.0,0.0
515,60.0,0,30,0.0,0.0
516,58.0,60,60,0.0,0.0
517,57.0,60,60,0.0,0.0
518,58.0,60,60,0.0,0.0
519,60.0,60,60,0.0,0.0
520,61.0,60,60,0.0,0.0
521,41.0,120,480,3.0,0.0
522,61.0,60,60,0.0,0.0
523,65.0,60,60,0.0,0.0
524,68.0,240,60,0.0,0.0
525,53.0,0,240,3.0,0.0
526,73.0,0,240,0.0,0.0
527,51.0,0,240,3.0,0.0
528,56.0,0,15,2.0,0.0
529,72.0,120,120,0.0,0.0
530,56.0,120,15,2.0,0.0
531,50.0,0,240,3.0,0.0
532,77.0,60,60,0.0,0.0
533,80.0,60,60,0.0,0.0
534,82.0,240,60,0.0,0.0
535,55.0,0,240,2.0,0.0
536,49.0,0,240,3.0,0.0
537,89.0,120,240,0.0,0.0
538,87.0,120,120,0.0,0.0
539,56.0,0,240,2.0,0.0
540,48.0,120,240,3.0,0.0
541,51.0,120,480,3.0,0.0
542,60.0,60,60,0.0,0.0
543,63.0,60,60,0.0,0.0
544,68.0,240,60,0.0,0.0
545,72.0,120,360,0.0,0.0
546,67.0,0,240,1.0,0.0
547,61.0,0,240,1.0,0.0
548,39.0,0,240,3.0,0.0
549,70.0,120,120,0.0,0.0
550,44.0,120,120,3.0,0.0
551,60.0,120,240,1.0,0.0
552,68.0,0,240,0.0,0.0
553,32.0,420,120,3.0,0.0
554,65.0,60,300,3.0,0.0
555,69.0,0,240,1.0,0.0
556,72.0,240,240,0.0,0.0
557,53.0,60,60,3.0,0.0
558,57.0,60,60,3.0,0.0
559,60.0,0,60,3.0,0.0
560,65.0,120,360,3.0,0.0
561,70.0,0,240,0.0,0.0
562,67.0,120,240,1.0,0.0
563,72.0,0,240,0.0,0.0
564,69.0,0,240,1.0,0.0
565,73.0,0,240,0.0,0.0
566,63.0,60,15,3.0,0.0
567,70.0,60,240,1.0,0.0
568,61.0,60,60,3.0,0.0
569,60.0,60,60,3.0,0.0
570,58.0,0,60,3.0,0.0
571,73.0,0,240,1.0,0.0
572,77.0,195,240,0.0,0.0
573,57.0,60,60,3.0,0.0
574,58.0,60,60,3.0,0.0
575,61.0,60,60,3.0,0.0
576,58.0,0,60,3.0,0.0
577,46.0,7,240,3.0,0.0
578,70.0,45,60,1.0,0.0
579,73.0,0,60,0.0,0.0
580,72.0,15,60,0.0,0.0
581,68.0,38,90,1.0,0.0
582,70.0,0,240,0.0,0.0
583,67.0,240,240,1.0,0.0
584,63.0,60,60,3.0,0.0
585,51.0,60,60,3.0,0.0
586,55.0,60,60,3.0,0.0
587,58.0,0,60,3.0,0.0
588,68.0,120,240,0.0,0.0
589,63.0,120,360,3.0,0.0
590,65.0,0,240,1.0,0.0
591,67.0,0,240,1.0,0.0
592,70.0,0,240,0.0,0.0
593,68.0,0,240,1.0,0.0
594,72.0,60,240,0.0,0.0
595,61.0,60,15,3.0,0.0
596,60.0,60,60,3.0,0.0
597,58.0,60,60,3.0,0.0
598,56.0,0,60,3.0,0.0
599,55.0,60,60,3.0,0.0
600,72.0,0,240,1.0,0.0
601,75.0,0,240,0.0,0.0
602,56.0,60,60,3.0,0.0
603,60.0,60,60,3.0,0.0
604,56.0,240,60,3.0,0.0
605,44.0,60,240,3.0,0.0
606,75.0,60,120,0.0,0.0
607,63.0,0,120,1.0,0.0
608,60.0,0,240,2.0,0.0
609,63.0,60,60,1.0,0.0
610,75.0,60,60,0.0,0.0
611,63.0,120,60,1.0,0.0
612,56.0,0,15,3.0,0.0
613,59.0,0,240,2.0,0.0
614,62.0,60,60,1.0,0.0
615,74.0,60,60,0.0,0.0
616,62.0,0,60,1.0,0.0
617,58.0,0,240,2.0,0.0
618,61.0,0,240,2.0,0.0
619,55.0,0,240,3.0,0.0
620,64.0,60,60,1.0,0.0
621,76.0,60,60,0.0,0.0
622,64.0,120,60,1.0,0.0
623,56.0,0,240,3.0,0.0
624,65.0,60,60,1.0,0.0
625,77.0,60,60,0.0,0.0
626,65.0,120,60,1.0,0.0
627,60.0,0,15,2.0,0.0
628,52.0,0,240,3.0,0.0
629,67.0,60,60,1.0,0.0
630,79.0,60,60,0.0,0.0
631,67.0,0,60,1.0,0.0
632,53.0,90,240,3.0,0.0
633,60.0,120,15,2.0,0.0
634,68.0,60,60,1.0,0.0
635,80.0,60,60,0.0,0.0
636,68.0,0,60,1.0,0.0
637,70.0,0,480,1.0,0.0
638,67.0,0,480,1.0,0.0
639,75.0,228,480,0.0,0.0
640,34.0,60,30,3.0,0.0
641,39.0,60,30,3.0,0.0
642,43.0,60,30,3.0,0.0
643,46.0,60,30,3.0,0.0
644,51.0,60,30,3.0,0.0
645,55.0,60,30,3.0,0.0
646,57.0,30,30,3.0,0.0
647,68.0,90,240,1.0,0.0
648,65.0,0,240,1.0,0.0
649,59.0,12,240,3.0,0.0
650,74.0,0,240,0.0,0.0
651,75.0,0,480,0.0,0.0
652,63.0,0,480,1.0,0.0
653,67.0,228,480,1.0,0.0
654,36.0,60,30,3.0,0.0
655,39.0,60,30,3.0,0.0
656,43.0,60,30,3.0,0.0
657,48.0,60,30,3.0,0.0
658,51.0,60,30,3.0,0.0
659,55.0,60,30,3.0,0.0
660,60.0,30,30,3.0,0.0
661,57.0,12,240,3.0,0.0
662,65.0,90,240,1.0,0.0
663,72.0,0,240,1.0,0.0
664,77.0,0,240,0.0,0.0
665,75.0,0,480,0.0,0.0
666,63.0,0,480,1.0,0.0
667,67.0,35,480,1.0,0.0
668,34.0,60,30,3.0,0.0
669,39.0,60,30,3.0,0.0
670,43.0,60,30,3.0,0.0
671,46.0,60,30,3.0,0.0
672,51.0,60,30,3.0,0.0
673,55.0,60,30,3.0,0.0
674,57.0,30,30,3.0,0.0
675,58.0,17,60,3.0,0.0
676,74.0,17,30,0.0,0.0
677,65.0,2,240,1.0,0.0
678,68.0,0,240,1.0,0.0
679,75.0,8,30,0.0,0.0
680,74.0,23,30,0.0,0.0
681,75.0,30,30,0.0,0.0
682,74.0,30,30,0.0,0.0
683,75.0,20,30,0.0,0.0
684,46.0,15,60,3.0,0.0
685,74.0,25,60,0.0,0.0
686,72.0,20,30,0.0,0.0
687,74.0,58,30,0.0,0.0
688,75.0,0,60,0.0,0.0
689,51.0,0,60,3.0,0.0
690,67.0,60,60,0.0,0.0
691,63.0,0,15,0.0,0.0
692,67.0,60,60,0.0,0.0
693,39.0,0,60,3.0,0.0
694,75.0,60,60,0.0,0.0
695,41.0,60,60,3.0,0.0
696,62.0,60,60,0.0,0.0
697,68.0,0,60,0.0,0.0
698,39.0,60,60,3.0,0.0
699,75.0,60,60,0.0,0.0
700,43.0,60,60,3.0,0.0
701,61.0,60,60,0.0,0.0
702,39.0,60,60,3.0,0.0
703,70.0,0,60,0.0,0.0
704,75.0,60,60,0.0,0.0
705,44.0,0,720,2.0,0.0
706,32.0,0,720,3.0,0.0
707,60.0,60,60,0.0,0.0
708,48.0,60,60,0.0,0.0
709,51.0,60,60,0.0,0.0
710,56.0,240,60,0.0,0.0
711,60.0,240,240,0.0,0.0
712,56.0,60,240,0.0,0.0
713,39.0,0,15,2.0,0.0
714,34.0,0,720,3.0,0.0
715,55.0,60,60,0.0,0.0
716,46.0,60,720,2.0,0.0
717,61.0,60,60,0.0,0.0
718,63.0,60,60,0.0,0.0
719,67.0,240,60,0.0,0.0
720,73.0,240,240,0.0,0.0
721,67.0,0,240,0.0,0.0
722,36.0,0,240,3.0,0.0
723,68.0,60,60,0.0,0.0
724,39.0,0,240,2.0,0.0
725,48.0,0,240,2.0,0.0
726,51.0,60,60,0.0,0.0
727,56.0,60,60,0.0,0.0
728,60.0,60,60,0.0,0.0
729,51.0,0,60,2.0,0.0
730,63.0,120,60,0.0,0.0
731,51.0,120,60,2.0,0.0
732,63.0,0,60,0.0,0.0
733,51.0,0,60,2.0,0.0
734,58.0,0,180,1.0,0.0
735,43.0,0,180,3.0,0.0
736,63.0,120,60,0.0,0.0
737,51.0,0,60,2.0,0.0
738,63.0,180,60,0.0,0.0
739,44.0,180,240,3.0,0.0
740,63.0,0,240,0.0,0.0
741,56.0,0,240,1.0,0.0
742,61.0,120,120,1.0,0.0
743,60.0,0,120,1.0,0.0
744,63.0,60,180,0.0,0.0
745,51.0,0,15,2.0,0.0
746,55.0,0,180,1.0,0.0
747,58.0,0,180,1.0,0.0
748,39.0,60,240,3.0,0.0
749,60.0,0,30,0.0,0.0
750,58.0,60,60,0.0,0.0
751,57.0,60,60,0.0,0.0
752,58.0,60,60,0.0,0.0
753,60.0,60,60,0.0,0.0
754,41.0,0,480,3.0,0.0
755,61.0,60,60,0.0,0.0
756,61.0,60,60,0.0,0.0
757,65.0,60,60,0.0,0.0
758,68.0,240,60,0.0,0.0
759,53.0,0,240,3.0,0.0
760,73.0,0,240,0.0,0.0
761,51.0,0,240,3.0,0.0
762,56.0,120,15,2.0,0.0
763,72.0,120,120,0.0,0.0
764,50.0,0,240,3.0,0.0
765,56.0,120,15,2.0,0.0
766,77.0,60,60,0.0,0.0
767,80.0,60,60,0.0,0.0
768,82.0,240,60,0.0,0.0
769,55.0,0,240,2.0,0.0
770,49.0,120,240,3.0,0.0
771,89.0,0,240,0.0,0.0
772,56.0,120,240,2.0,0.0
773,48.0,0,240,3.0,0.0
774,87.0,120,120,0.0,0.0
775,51.0,120,480,3.0,0.0
776,60.0,60,60,0.0,0.0
777,63.0,60,60,0.0,0.0
778,68.0,240,60,0.0,0.0
779,72.0,120,360,0.0,0.0
780,67.0,0,240,1.0,0.0
781,61.0,0,240,1.0,0.0
782,39.0,120,240,3.0,0.0
783,70.0,0,120,0.0,0.0
784,44.0,120,120,3.0,0.0
785,60.0,0,240,1.0,0.0
786,68.0,120,240,0.0,0.0
787,32.0,900,120,3.0,0.0
788,51.0,60,60,3.0,0.0
789,39.0,0,60,3.0,0.0
790,60.0,60,60,1.0,0.0
791,63.0,0,60,0.0,0.0
792,51.0,60,60,3.0,0.0
793,39.0,0,60,3.0,0.0
794,63.0,0,60,0.0,0.0
795,60.0,120,60,1.0,0.0
796,39.0,0,120,3.0,0.0
797,51.0,0,120,3.0,0.0
798,63.0,0,60,0.0,0.0
799,60.0,60,60,1.0,0.0
800,44.0,0,60,3.0,0.0
801,56.0,60,60,3.0,0.0
802,63.0,0,60,0.0,0.0
803,60.0,60,60,1.0,0.0
804,56.0,60,60,3.0,0.0
805,44.0,0,60,3.0,0.0
806,63.0,60,60,0.0,0.0
807,60.0,0,60,1.0,0.0
808,56.0,0,60,3.0,0.0
809,44.0,60,60,3.0,0.0
810,60.0,60,60,1.0,0.0
811,63.0,0,60,0.0,0.0
812,44.0,60,60,3.0,0.0
813,56.0,0,60,3.0,0.0
814,63.0,0,60,0.0,0.0
815,60.0,60,60,1.0,0.0
816,44.0,60,60,3.0,0.0
817,56.0,0,60,3.0,0.0
818,60.0,0,60,1.0,0.0
819,63.0,120,60,0.0,0.0
820,44.0,0,120,3.0,0.0
821,56.0,0,120,3.0,0.0
822,63.0,0,60,0.0,0.0
823,61.0,0,60,1.0,0.0
824,58.0,60,60,1.0,0.0
825,55.0,0,60,3.0,0.0
826,43.0,60,60,3.0,0.0
827,63.0,60,60,0.0,0.0
828,58.0,0,60,1.0,0.0
829,61.0,0,60,1.0,0.0
830,43.0,0,60,3.0,0.0
831,55.0,60,60,3.0,0.0
832,58.0,0,60,1.0,0.0
833,63.0,0,60,0.0,0.0
834,61.0,60,60,1.0,0.0
835,53.0,0,60,3.0,0.0
836,41.0,60,60,3.0,0.0
837,58.0,60,60,1.0,0.0
838,61.0,0,60,1.0,0.0
839,63.0,0,60,0.0,0.0
840,55.0,0,60,3.0,0.0
841,43.0,60,60,3.0,0.0
842,63.0,60,60,0.0,0.0
843,61.0,0,60,1.0,0.0
844,58.0,0,60,1.0,0.0
845,51.0,0,60,3.0,0.0
846,39.0,60,60,3.0,0.0
847,63.0,60,60,0.0,0.0
848,58.0,0,60,1.0,0.0
849,61.0,0,60,1.0,0.0
850,51.0,60,60,3.0,0.0
851,39.0,0,120,3.0,0.0
852,60.0,60,60,1.0,0.0
853,63.0,0,60,0.0,0.0
854,44.0,60,60,3.0,0.0
855,56.0,0,60,3.0,0.0
856,63.0,0,60,0.0,0.0
857,60.0,60,60,1.0,0.0
858,39.0,57,120,3.0,0.0
859,51.0,60,60,3.0,0.0
860,60.0,0,60,1.0,0.0
861,63.0,3,60,1.0,0.0
862,68.0,0,60,0.0,0.0
863,44.0,0,60,3.0,0.0
864,56.0,60,60,3.0,0.0
865,63.0,60,60,1.0,0.0
866,60.0,0,60,1.0,0.0
867,68.0,0,60,0.0,0.0
868,51.0,60,60,3.0,0.0
869,39.0,60,120,3.0,0.0
870,63.0,0,60,1.0,0.0
871,61.0,0,60,1.0,0.0
872,67.0,0,60,0.0,0.0
873,58.0,60,60,3.0,0.0
874,46.0,0,60,3.0,0.0
875,63.0,0,60,1.0,0.0
876,61.0,60,60,1.0,0.0
877,67.0,0,60,0.0,0.0
878,39.0,57,120,3.0,0.0
879,51.0,60,60,3.0,0.0
880,63.0,0,60,1.0,0.0
881,68.0,3,60,0.0,0.0
882,48.0,0,60,3.0,0.0
883,60.0,60,60,3.0,0.0
884,63.0,60,60,1.0,0.0
885,68.0,0,60,0.0,0.0
886,51.0,60,60,3.0,0.0
887,39.0,0,120,3.0,0.0
888,63.0,0,60,1.0,0.0
889,67.0,60,60,0.0,0.0
890,46.0,60,60,3.0,0.0
891,58.0,0,60,3.0,0.0
892,67.0,0,60,0.0,0.0
893,63.0,0,60,1.0,0.0
894,60.0,60,30,3.0,0.0
895,58.0,60,60,3.0,0.0
896,68.0,0,60,0.0,0.0
897,63.0,0,60,1.0,0.0
898,66.0,0,60,1.0,0.0
899,57.0,60,60,3.0,0.0
900,58.0,60,60,3.0,0.0
901,66.0,0,60,1.0,0.0
902,63.0,120,60,1.0,0.0
903,68.0,0,60,0.0,0.0
904,60.0,0,60,3.0,0.0
905,49.0,1,180,3.0,0.0
906,68.0,0,60,0.0,0.0
907,65.0,59,60,1.0,0.0
908,61.0,60,60,3.0,0.0
909,80.0,0,60,0.0,0.0
910,65.0,120,60,1.0,0.0
911,53.0,1,180,3.0,0.0
912,80.0,59,60,0.0,0.0
913,68.0,0,60,1.0,0.0
914,61.0,60,60,3.0,0.0
915,80.0,0,60,0.0,0.0
916,68.0,120,60,1.0,0.0
917,51.0,1,180,3.0,0.0
918,80.0,0,60,0.0,0.0
919,68.0,59,60,1.0,0.0
920,60.0,60,60,3.0,0.0
921,68.0,0,60,1.0,0.0
922,80.0,120,60,0.0,0.0
923,50.0,57,180,3.0,0.0
924,68.0,0,60,1.0,0.0
925,80.0,60,60,0.0,0.0
926,65.0,3,60,3.0,0.0
927,68.0,120,60,1.0,0.0
928,80.0,0,60,0.0,0.0
929,49.0,1,180,3.0,0.0
930,67.0,0,60,1.0,0.0
931,79.0,59,60,0.0,0.0
932,58.0,60,60,3.0,0.0
933,67.0,0,60,1.0,0.0
934,79.0,120,60,0.0,0.0
935,48.0,4,180,3.0,0.0
936,68.0,0,60,1.0,0.0
937,80.0,56,60,0.0,0.0
938,63.0,60,60,3.0,0.0
939,68.0,0,60,1.0,0.0
940,80.0,120,60,0.0,0.0
941,41.0,1,180,3.0,0.0
942,82.0,59,60,0.0,0.0
943,70.0,0,60,1.0,0.0
944,56.0,60,60,3.0,0.0
945,65.0,0,60,1.0,0.0
946,77.0,120,60,0.0,0.0
947,43.0,1,180,3.0,0.0
948,64.0,0,60,1.0,0.0
949,76.0,59,60,0.0,0.0
950,61.0,60,60,3.0,0.0
951,63.0,120,60,1.0,0.0
952,75.0,0,60,0.0,0.0
953,44.0,1,180,3.0,0.0
954,75.0,0,60,0.0,0.0
955,63.0,59,60,1.0,0.0
956,60.0,60,60,3.0,0.0
957,75.0,120,60,0.0,0.0
958,63.0,0,60,1.0,0.0
959,39.0,1,180,3.0,0.0
960,66.0,0,60,1.0,0.0
961,75.0,0,60,0.0,0.0
962,63.0,59,60,1.0,0.0
963,57.0,60,60,3.0,0.0
964,66.0,0,60,1.0,0.0
965,75.0,120,60,0.0,0.0
966,63.0,0,60,1.0,0.0
967,39.0,1,180,3.0,0.0
968,75.0,59,60,0.0,0.0
969,63.0,0,60,1.0,0.0
970,67.0,0,60,1.0,0.0
971,58.0,60,60,3.0,0.0
972,67.0,0,60,1.0,0.0
973,63.0,60,60,1.0,0.0
974,75.0,0,60,0.0,0.0
975,51.0,60,60,3.0,0.0
976,39.0,0,60,3.0,0.0
977,75.0,0,60,0.0,0.0
978,63.0,60,60,1.0,0.0
979,39.0,0,60,3.0,0.0
980,51.0,60,60,3.0,0.0
981,63.0,0,60,1.0,0.0
982,75.0,120,60,0.0,0.0
983,39.0,0,120,3.0,0.0
984,51.0,0,120,3.0,0.0
985,63.0,60,60,1.0,0.0
986,75.0,0,60,0.0,0.0
987,72.0,0,60,1.0,0.0
988,56.0,0,60,3.0,0.0
989,44.0,60,60,3.0,0.0
990,72.0,0,60,1.0,0.0
991,63.0,60,60,1.0,0.0
992,75.0,0,60,0.0,0.0
993,44.0,60,60,3.0,0.0
994,56.0,0,60,3.0,0.0
995,72.0,60,60,1.0,0.0
996,75.0,0,60,0.0,0.0
997,63.0,0,60,1.0,0.0
998,44.0,0,60,3.0,0.0
999,56.0,60,60,3.0,0.0
1000,75.0,60,60,0.0,0.0
1001,72.0,0,60,1.0,0.0
1002,63.0,0,60,1.0,0.0
1003,44.0,0,60,3.0,0.0
1004,56.0,60,60,3.0,0.0
1005,72.0,60,60,1.0,0.0
1006,63.0,0,60,1.0,0.0
1007,75.0,0,60,0.0,0.0
1008,56.0,0,60,3.0,0.0
1009,44.0,60,60,3.0,0.0
1010,75.0,120,60,0.0,0.0
1011,72.0,0,60,1.0,0.0
1012,63.0,0,60,1.0,0.0
1013,56.0,0,120,3.0,0.0
1014,44.0,0,120,3.0,0.0
1015,75.0,0,60,0.0,0.0
1016,63.0,60,60,1.0,0.0
1017,73.0,0,60,1.0,0.0
1018,55.0,0,60,3.0,0.0
1019,46.0,60,60,3.0,0.0
1020,63.0,0,60,1.0,0.0
1021,75.0,60,60,0.0,0.0
1022,73.0,0,60,1.0,0.0
1023,46.0,60,60,3.0,0.0
1024,55.0,0,60,3.0,0.0
1025,63.0,0,60,1.0,0.0
1026,75.0,60,60,0.0,0.0
1027,73.0,0,60,1.0,0.0
1028,46.0,0,60,3.0,0.0
1029,53.0,60,60,3.0,0.0
1030,63.0,0,60,1.0,0.0
1031,75.0,0,60,0.0,0.0
1032,73.0,60,60,1.0,0.0
1033,55.0,0,60,3.0,0.0
1034,46.0,60,60,3.0,0.0
1035,73.0,60,60,1.0,0.0
1036,63.0,0,60,1.0,0.0
1037,75.0,0,60,0.0,0.0
1038,51.0,0,60,3.0,0.0
1039,46.0,60,60,3.0,0.0
1040,75.0,60,60,0.0,0.0
1041,67.0,0,60,1.0,0.0
1042,63.0,0,60,1.0,0.0
1043,51.0,60,60,3.0,0.0
1044,48.0,2,180,3.0,0.0
1045,68.0,0,60,1.0,0.0
1046,63.0,58,60,1.0,0.0
1047,75.0,0,60,0.0,0.0
1048,56.0,60,60,3.0,0.0
1049,75.0,60,60,0.0,0.0
1050,63.0,0,60,1.0,0.0
1051,72.0,0,60,1.0,0.0
1052,51.0,60,60,3.0,0.0
1053,48.0,16,150,3.0,0.0
1054,63.0,0,60,1.0,0.0
1055,68.0,0,60,1.0,0.0
1056,75.0,44,60,0.0,0.0
1057,56.0,60,60,3.0,0.0
1058,75.0,0,60,0.0,0.0
1059,72.0,0,60,1.0,0.0
1060,63.0,60,60,1.0,0.0
1061,51.0,60,60,3.0,0.0
1062,43.0,16,150,3.0,0.0
1063,75.0,44,60,0.0,0.0
1064,63.0,0,60,1.0,0.0
1065,70.0,0,60,1.0,0.0
1066,58.0,60,60,3.0,0.0
1067,63.0,0,60,1.0,0.0
1068,73.0,0,60,1.0,0.0
1069,75.0,60,60,0.0,0.0
1070,51.0,60,60,3.0,0.0
1071,44.0,16,150,3.0,0.0
1072,68.0,0,60,1.0,0.0
1073,72.0,0,60,1.0,0.0
1074,63.0,0,60,1.0,0.0
1075,75.0,44,60,0.0,0.0
1076,60.0,60,60,3.0,0.0
1077,72.0,0,60,1.0,0.0
1078,63.0,0,60,1.0,0.0
1079,68.0,60,60,1.0,0.0
1080,75.0,0,60,0.0,0.0
1081,51.0,60,60,3.0,0.0
1082,39.0,16,150,3.0,0.0
1083,70.0,0,60,1.0,0.0
1084,67.0,0,60,1.0,0.0
1085,63.0,0,60,1.0,0.0
1086,75.0,44,60,0.0,0.0
1087,58.0,60,60,3.0,0.0
1088,75.0,0,60,0.0,0.0
1089,67.0,0,60,1.0,0.0
1090,70.0,0,60,1.0,0.0
1091,63.0,0,60,1.0,0.0
1092,60.0,60,30,3.0,0.0
1093,58.0,60,60,3.0,0.0
1094,75.0,0,60,0.0,0.0
1095,66.0,0,60,1.0,0.0
1096,68.0,0,60,1.0,0.0
1097,63.0,0,60,1.0,0.0
1098,57.0,60,60,3.0,0.0
1099,58.0,60,60,3.0,0.0
1100,60.0,0,60,3.0,0.0
1101,75.0,0,60,0.0,0.0
1102,63.0,0,60,1.0,0.0
1103,68.0,120,60,1.0,0.0
1104,66.0,0,60,1.0,0.0
1105,49.0,56,180,3.0,0.0
1106,77.0,0,60,0.0,0.0
1107,65.0,0,60,1.0,0.0
1108,68.0,60,60,1.0,0.0
1109,61.0,4,60,3.0,0.0
1110,77.0,0,60,0.0,0.0
1111,65.0,0,60,1.0,0.0
1112,68.0,120,60,1.0,0.0
1113,53.0,56,180,3.0,0.0
1114,80.0,0,60,0.0,0.0
1115,68.0,60,60,1.0,0.0
1116,61.0,4,60,3.0,0.0
1117,80.0,120,60,0.0,0.0
1118,68.0,0,60,1.0,0.0
1119,51.0,56,180,3.0,0.0
1120,68.0,60,60,1.0,0.0
1121,80.0,0,60,0.0,0.0
1122,60.0,4,60,3.0,0.0
1123,68.0,0,60,1.0,0.0
1124,80.0,120,60,0.0,0.0
1125,50.0,56,180,3.0,0.0
1126,80.0,60,60,0.0,0.0
1127,68.0,0,60,1.0,0.0
1128,65.0,4,60,3.0,0.0
1129,80.0,0,60,0.0,0.0
1130,68.0,120,60,1.0,0.0
1131,49.0,56,180,3.0,0.0
1132,79.0,0,60,0.0,0.0
1133,67.0,60,60,1.0,0.0
1134,58.0,4,60,3.0,0.0
1135,79.0,0,60,0.0,0.0
1136,67.0,120,60,1.0,0.0
1137,48.0,56,180,3.0,0.0
1138,80.0,0,60,0.0,0.0
1139,68.0,60,60,1.0,0.0
1140,63.0,4,60,3.0,0.0
1141,80.0,0,60,0.0,0.0
1142,68.0,120,60,1.0,0.0
1143,51.0,56,180,3.0,0.0
1144,72.0,0,60,1.0,0.0
1145,63.0,0,60,1.0,0.0
1146,75.0,60,60,0.0,0.0
1147,56.0,4,60,3.0,0.0
1148,72.0,0,60,1.0,0.0
1149,63.0,0,60,1.0,0.0
1150,75.0,120,60,0.0,0.0
1151,39.0,56,180,3.0,0.0
1152,75.0,0,60,0.0,0.0
1153,72.0,0,60,1.0,0.0
1154,63.0,0,60,1.0,0.0
1155,68.0,60,60,1.0,0.0
1156,60.0,4,60,3.0,0.0
1157,75.0,0,60,0.0,0.0
1158,63.0,0,60,1.0,0.0
1159,72.0,0,60,1.0,0.0
1160,68.0,120,60,1.0,0.0
1161,39.0,56,180,3.0,0.0
1162,63.0,0,60,1.0,0.0
1163,61.0,60,60,1.0,0.0
1164,67.0,0,60,0.0,0.0
1165,58.0,4,60,3.0,0.0
1166,63.0,0,60,1.0,0.0
1167,61.0,0,60,1.0,0.0
1168,67.0,120,60,0.0,0.0
1169,44.0,56,180,3.0,0.0
1170,68.0,60,60,0.0,0.0
1171,63.0,0,60,1.0,0.0
1172,60.0,0,60,1.0,0.0
1173,56.0,4,60,3.0,0.0
1174,68.0,0,60,0.0,0.0
1175,63.0,0,60,1.0,0.0
1176,60.0,120,60,1.0,0.0
1177,32.0,240,120,3.0,0.0
1178,45.0,58,180,3.0,0.0
1179,65.0,60,60,1.0,0.0
1180,77.0,0,60,0.0,0.0
1181,60.0,2,60,3.0,0.0
1182,77.0,120,60,0.0,0.0
1183,65.0,0,60,1.0,0.0
1184,45.0,58,180,3.0,0.0
1185,77.0,60,60,0.0,0.0
1186,65.0,0,60,1.0,0.0
1187,60.0,2,60,3.0,0.0
1188,77.0,0,60,1.0,0.0
1189,89.0,120,60,0.0,0.0
1190,43.0,58,180,3.0,0.0
1191,76.0,0,60,1.0,0.0
1192,88.0,60,60,0.0,0.0
1193,58.0,2,60,3.0,0.0
1194,76.0,0,60,1.0,0.0
1195,88.0,120,60,0.0,0.0
1196,45.0,58,180,3.0,0.0
1197,87.0,60,60,0.0,0.0
1198,75.0,0,60,1.0,0.0
1199,60.0,2,60,3.0,0.0
1200,87.0,0,60,0.0,0.0
1201,75.0,120,60,1.0,0.0
1202,46.0,58,180,3.0,0.0
1203,73.0,60,60,1.0,0.0
1204,85.0,0,60,0.0,0.0
1205,61.0,2,60,3.0,0.0
1206,85.0,0,60,0.0,0.0
1207,73.0,120,60,1.0,0.0
1208,49.0,58,180,3.0,0.0
1209,70.0,60,60,1.0,0.0
1210,82.0,0,60,0.0,0.0
1211,65.0,2,60,3.0,0.0
1212,82.0,0,60,0.0,0.0
1213,70.0,120,60,1.0,0.0
1214,46.0,0,120,3.0,0.0
1215,34.0,0,120,3.0,0.0
1216,65.0,0,60,1.0,0.0
1217,73.0,120,60,1.0,0.0
1218,77.0,0,60,0.0,0.0
1219,44.0,0,120,3.0,0.0
1220,32.0,0,120,3.0,0.0
1221,64.0,120,60,1.0,0.0
1222,76.0,0,60,0.0,0.0
1223,73.0,0,60,1.0,0.0
1224,31.0,60,120,3.0,0.0
1225,43.0,0,120,3.0,0.0
1226,75.0,0,60,0.0,0.0
1227,73.0,0,60,1.0,0.0
1228,63.0,0,60,1.0,0.0
1229,58.0,60,60,3.0,0.0
1230,75.0,120,60,1.0,0.0
1231,87.0,0,60,0.0,0.0
1232,41.0,55,180,3.0,0.0
1233,74.0,0,60,1.0,0.0
1234,86.0,60,60,0.0,0.0
1235,56.0,5,60,3.0,0.0
1236,86.0,120,60,0.0,0.0
1237,74.0,0,60,1.0,0.0
1238,43.0,55,180,3.0,0.0
1239,85.0,0,60,0.0,0.0
1240,73.0,60,60,1.0,0.0
1241,58.0,5,60,3.0,0.0
1242,85.0,120,60,0.0,0.0
1243,73.0,0,60,1.0,0.0
1244,44.0,55,180,3.0,0.0
1245,84.0,0,60,0.0,0.0
1246,72.0,60,60,1.0,0.0
1247,60.0,5,60,3.0,0.0
1248,72.0,0,60,1.0,0.0
1249,84.0,120,60,0.0,0.0
1250,48.0,55,180,3.0,0.0
1251,68.0,0,60,1.0,0.0
1252,80.0,60,60,0.0,0.0
1253,63.0,5,60,3.0,0.0
1254,68.0,120,60,1.0,0.0
1255,80.0,0,60,0.0,0.0
1256,48.0,55,180,3.0,0.0
1257,68.0,0,60,1.0,0.0
1258,80.0,60,60,0.0,0.0
1259,51.0,5,60,3.0,0.0
1260,68.0,0,60,1.0,0.0
1261,80.0,120,60,0.0,0.0
1262,48.0,55,180,3.0,0.0
1263,80.0,60,60,0.0,0.0
1264,68.0,0,60,1.0,0.0
1265,51.0,5,60,3.0,0.0
1266,68.0,120,60,1.0,0.0
1267,80.0,0,60,0.0,0.0
1268,47.0,55,180,3.0,0.0
1269,68.0,60,60,1.0,0.0
1270,80.0,0,60,0.0,0.0
1271,50.0,5,60,3.0,0.0
1272,80.0,0,60,0.0,0.0
1273,68.0,120,60,1.0,0.0
1274,46.0,55,180,3.0,0.0
1275,79.0,60,60,0.0,0.0
1276,67.0,0,60,1.0,0.0
1277,52.0,5,60,3.0,0.0
1278,67.0,0,60,1.0,0.0
1279,79.0,120,60,0.0,0.0
1280,44.0,55,180,3.0,0.0
1281,72.0,0,60,1.0,0.0
1282,84.0,60,60,0.0,0.0
1283,53.0,5,60,3.0,0.0
1284,72.0,120,60,1.0,0.0
1285,84.0,0,60,0.0,0.0
1286,43.0,55,180,3.0,0.0
1287,76.0,60,60,0.0,0.0
1288,70.0,0,60,1.0,0.0
1289,72.0,0,60,1.0,0.0
1290,55.0,5,60,3.0,0.0
1291,72.0,120,60,1.0,0.0
1292,76.0,0,60,0.0,0.0
1293,70.0,0,60,1.0,0.0
1294,41.0,55,180,3.0,0.0
1295,72.0,0,60,1.0,0.0
1296,77.0,60,60,0.0,0.0
1297,68.0,0,60,1.0,0.0
1298,56.0,5,60,3.0,0.0
1299,77.0,0,60,0.0,0.0
1300,72.0,120,60,1.0,0.0
1301,68.0,0,60,1.0,0.0
1302,53.0,0,60,3.0,0.0
1303,46.0,55,180,3.0,0.0
1304,79.0,60,60,0.0,0.0
1305,67.0,0,60,1.0,0.0
1306,51.0,5,60,3.0,0.0
1307,67.0,120,60,1.0,0.0
1308,79.0,0,60,0.0,0.0
1309,46.0,47,180,3.0,0.0
1310,67.0,0,60,1.0,0.0
1311,79.0,60,60,0.0,0.0
1312,51.0,13,60,3.0,0.0
1313,67.0,120,60,1.0,0.0
1314,79.0,0,60,0.0,0.0
1315,47.0,47,180,3.0,0.0
1316,68.0,0,60,1.0,0.0
1317,77.0,60,60,1.0,0.0
1318,80.0,0,60,0.0,0.0
1319,50.0,13,60,3.0,0.0
1320,68.0,0,60,1.0,0.0
1321,77.0,120,60,1.0,0.0
1322,80.0,0,60,0.0,0.0
1323,48.0,52,180,3.0,0.0
1324,67.0,0,60,1.0,0.0
1325,77.0,0,60,1.0,0.0
1326,79.0,60,60,0.0,0.0
1327,51.0,8,60,3.0,0.0
1328,75.0,120,60,1.0,0.0
1329,67.0,0,60,1.0,0.0
1330,79.0,0,60,0.0,0.0
1331,48.0,52,180,3.0,0.0
1332,67.0,0,60,1.0,0.0
1333,75.0,0,60,1.0,0.0
1334,79.0,60,60,0.0,0.0
1335,51.0,8,60,3.0,0.0
1336,79.0,0,60,0.0,0.0
1337,67.0,120,60,1.0,0.0
1338,75.0,0,60,1.0,0.0
1339,45.0,52,180,3.0,0.0
1340,84.0,0,60,0.0,0.0
1341,75.0,60,60,1.0,0.0
1342,72.0,0,60,1.0,0.0
1343,55.0,8,60,3.0,0.0
1344,75.0,120,60,1.0,0.0
1345,72.0,0,60,1.0,0.0
1346,53.0,0,60,3.0,0.0
1347,84.0,0,60,0.0,0.0
1348,46.0,52,180,3.0,0.0
1349,70.0,0,60,1.0,0.0
1350,75.0,0,60,1.0,0.0
1351,79.0,60,60,1.0,0.0
1352,82.0,0,60,0.0,0.0
1353,51.0,8,60,3.0,0.0
1354,82.0,0,60,0.0,0.0
1355,79.0,0,60,1.0,0.0
1356,75.0,0,60,1.0,0.0
1357,70.0,120,60,1.0,0.0
1358,46.0,52,180,3.0,0.0
1359,70.0,60,60,1.0,0.0
1360,67.0,0,60,1.0,0.0
1361,75.0,0,60,0.0,0.0
1362,51.0,8,60,3.0,0.0
1363,70.0,120,60,1.0,0.0
1364,67.0,0,60,1.0,0.0
1365,75.0,0,60,0.0,0.0
1366,34.0,52,180,3.0,0.0
1367,77.0,0,60,0.0,0.0
1368,70.0,60,60,1.0,0.0
1369,68.0,0,60,1.0,0.0
1370,50.0,8,60,3.0,0.0
1371,70.0,0,60,1.0,0.0
1372,68.0,0,60,1.0,0.0
1373,77.0,120,60,0.0,0.0
1374,39.0,52,180,3.0,0.0
1375,70.0,0,60,1.0,0.0
1376,67.0,60,60,1.0,0.0
1377,75.0,0,60,0.0,0.0
1378,51.0,8,60,3.0,0.0
1379,67.0,120,60,1.0,0.0
1380,75.0,0,60,0.0,0.0
1381,70.0,0,60,1.0,0.0
1382,41.0,52,180,3.0,0.0
1383,63.0,0,60,1.0,0.0
1384,68.0,0,60,1.0,0.0
1385,74.0,60,60,0.0,0.0
1386,51.0,8,60,3.0,0.0
1387,63.0,0,60,1.0,0.0
1388,68.0,0,60,1.0,0.0
1389,74.0,120,60,0.0,0.0
1390,43.0,52,180,3.0,0.0
1391,73.0,60,60,0.0,0.0
1392,61.0,0,60,1.0,0.0
1393,70.0,0,60,1.0,0.0
1394,51.0,8,60,3.0,0.0
1395,61.0,0,60,1.0,0.0
1396,70.0,0,60,1.0,0.0
1397,73.0,120,60,0.0,0.0
1398,51.0,0,120,3.0,0.0
1399,63.0,60,60,1.0,0.0
1400,72.0,0,60,0.0,0.0
1401,68.0,0,60,1.0,0.0
1402,56.0,60,60,3.0,0.0
1403,44.0,0,15,3.0,0.0
1404,75.0,0,60,0.0,0.0
1405,72.0,60,60,1.0,0.0
1406,68.0,0,60,1.0,0.0
1407,56.0,0,60,3.0,0.0
1408,44.0,60,60,3.0,0.0
1409,75.0,60,60,0.0,0.0
1410,72.0,0,60,1.0,0.0
1411,68.0,0,60,1.0,0.0
1412,44.0,60,60,3.0,0.0
1413,56.0,0,60,3.0,0.0
1414,68.0,0,60,1.0,0.0
1415,72.0,0,60,1.0,0.0
1416,75.0,60,60,0.0,0.0
1417,63.0,0,60,1.0,0.0
1418,56.0,60,60,3.0,0.0
1419,44.0,0,60,3.0,0.0
1420,75.0,60,60,0.0,0.0
1421,63.0,0,60,1.0,0.0
1422,68.0,0,60,1.0,0.0
1423,72.0,0,60,1.0,0.0
1424,44.0,60,60,3.0,0.0
1425,56.0,0,60,3.0,0.0
1426,68.0,120,60,1.0,0.0
1427,63.0,0,60,1.0,0.0
1428,72.0,0,60,1.0,0.0
1429,75.0,0,60,0.0,0.0
1430,56.0,0,120,3.0,0.0
1431,44.0,0,120,3.0,0.0
1432,73.0,0,60,1.0,0.0
1433,70.0,60,60,1.0,0.0
1434,75.0,0,60,0.0,0.0
1435,63.0,0,60,1.0,0.0
1436,55.0,0,60,3.0,0.0
1437,46.0,60,60,3.0,0.0
1438,75.0,0,60,0.0,0.0
1439,73.0,60,60,1.0,0.0
1440,70.0,0,60,1.0,0.0
1441,63.0,0,60,1.0,0.0
1442,46.0,60,60,3.0,0.0
1443,55.0,0,60,3.0,0.0
1444,73.0,0,60,1.0,0.0
1445,75.0,0,60,0.0,0.0
1446,63.0,60,60,1.0,0.0
1447,70.0,0,60,1.0,0.0
1448,46.0,0,60,3.0,0.0
1449,53.0,60,60,3.0,0.0
1450,70.0,60,60,1.0,0.0
1451,73.0,0,60,1.0,0.0
1452,63.0,0,60,1.0,0.0
1453,75.0,0,60,0.0,0.0
1454,55.0,60,60,3.0,0.0
1455,46.0,0,60,3.0,0.0
1456,63.0,0,60,1.0,0.0
1457,73.0,0,60,1.0,0.0
1458,70.0,60,60,1.0,0.0
1459,75.0,0,60,0.0,0.0
1460,46.0,0,60,3.0,0.0
1461,51.0,60,60,3.0,0.0
1462,63.0,0,60,1.0,0.0
1463,73.0,0,60,1.0,0.0
1464,75.0,0,60,0.0,0.0
1465,70.0,60,60,1.0,0.0
1466,51.0,60,60,3.0,0.0
1467,48.0,4,180,3.0,0.0
1468,68.0,0,60,1.0,0.0
1469,75.0,0,60,0.0,0.0
1470,72.0,56,60,1.0,0.0
1471,63.0,0,60,1.0,0.0
1472,56.0,60,60,3.0,0.0
1473,68.0,0,60,1.0,0.0
1474,72.0,0,60,1.0,0.0
1475,63.0,0,60,1.0,0.0
1476,75.0,60,60,0.0,0.0
1477,51.0,60,60,3.0,0.0
1478,48.0,4,180,3.0,0.0
1479,72.0,0,60,1.0,0.0
1480,75.0,56,60,0.0,0.0
1481,63.0,0,60,1.0,0.0
1482,68.0,0,60,1.0,0.0
1483,56.0,60,60,3.0,0.0
1484,72.0,0,60,1.0,0.0
1485,68.0,60,60,1.0,0.0
1486,75.0,0,60,0.0,0.0
1487,43.0,4,180,3.0,0.0
1488,51.0,60,60,3.0,0.0
1489,75.0,56,60,0.0,0.0
1490,73.0,0,60,1.0,0.0
1491,67.0,0,60,1.0,0.0
1492,63.0,0,60,1.0,0.0
1493,58.0,60,60,3.0,0.0
1494,67.0,0,60,1.0,0.0
1495,63.0,0,60,1.0,0.0
1496,75.0,60,60,0.0,0.0
1497,44.0,4,180,3.0,0.0
1498,51.0,60,60,3.0,0.0
1499,68.0,0,60,1.0,0.0
1500,75.0,56,60,0.0,0.0
1501,63.0,0,60,1.0,0.0
1502,60.0,60,60,3.0,0.0
1503,63.0,0,60,1.0,0.0
1504,75.0,60,60,0.0,0.0
1505,68.0,0,60,1.0,0.0
1506,51.0,16,60,3.0,0.0
1507,39.0,44,90,3.0,0.0
1508,75.0,0,60,0.0,0.0
1509,67.0,60,60,1.0,0.0
1510,63.0,0,60,1.0,0.0
1511,58.0,60,60,3.0,0.0
1512,75.0,60,60,0.0,0.0
1513,67.0,0,60,1.0,0.0
1514,63.0,0,60,1.0,0.0
1515,60.0,0,30,3.0,0.0
1516,58.0,60,60,3.0,0.0
1517,57.0,0,60,3.0,0.0
1518,66.0,60,60,1.0,0.0
1519,75.0,0,60,0.0,0.0
1520,68.0,0,60,1.0,0.0
1521,63.0,0,60,1.0,0.0
1522,58.0,60,60,3.0,0.0
1523,66.0,0,60,1.0,0.0
1524,63.0,0,60,1.0,0.0
1525,60.0,0,60,3.0,0.0
1526,75.0,120,60,0.0,0.0
1527,68.0,0,60,1.0,0.0
1528,49.0,0,180,3.0,0.0
1529,77.0,0,60,0.0,0.0
1530,65.0,60,60,1.0,0.0
1531,68.0,0,60,1.0,0.0
1532,61.0,60,60,3.0,0.0
1533,77.0,120,60,0.0,0.0
1534,65.0,0,60,1.0,0.0
1535,68.0,0,60,1.0,0.0
1536,53.0,50,180,3.0,0.0
1537,80.0,60,60,0.0,0.0
1538,68.0,0,60,1.0,0.0
1539,61.0,10,60,3.0,0.0
1540,80.0,120,60,0.0,0.0
1541,68.0,0,60,1.0,0.0
1542,51.0,60,180,3.0,0.0
1543,68.0,0,60,1.0,0.0
1544,80.0,60,60,0.0,0.0
1545,60.0,0,60,3.0,0.0
1546,68.0,120,60,1.0,0.0
1547,80.0,0,60,0.0,0.0
1548,50.0,60,180,3.0,0.0
1549,80.0,60,60,0.0,0.0
1550,68.0,0,60,1.0,0.0
1551,65.0,0,60,3.0,0.0
1552,80.0,0,60,0.0,0.0
1553,68.0,120,60,1.0,0.0
1554,49.0,60,180,3.0,0.0
1555,79.0,0,60,0.0,0.0
1556,67.0,60,60,1.0,0.0
1557,58.0,0,60,3.0,0.0
1558,67.0,120,60,1.0,0.0
1559,79.0,0,60,0.0,0.0
1560,48.0,0,180,3.0,0.0
1561,80.0,60,60,0.0,0.0
1562,68.0,0,60,1.0,0.0
1563,63.0,60,60,3.0,0.0
1564,80.0,0,60,0.0,0.0
1565,68.0,120,60,1.0,0.0
1566,51.0,0,180,3.0,0.0
1567,72.0,60,60,1.0,0.0
1568,75.0,0,60,0.0,0.0
1569,63.0,0,60,1.0,0.0
1570,56.0,60,60,3.0,0.0
1571,75.0,120,60,0.0,0.0
1572,63.0,0,60,1.0,0.0
1573,72.0,0,60,1.0,0.0
1574,39.0,0,180,3.0,0.0
1575,75.0,60,60,0.0,0.0
1576,63.0,0,60,1.0,0.0
1577,68.0,0,60,1.0,0.0
1578,72.0,0,60,1.0,0.0
1579,60.0,60,60,3.0,0.0
1580,72.0,0,60,1.0,0.0
1581,75.0,120,60,0.0,0.0
1582,68.0,0,60,1.0,0.0
1583,63.0,0,60,1.0,0.0
1584,39.0,60,180,3.0,0.0
1585,63.0,0,60,1.0,0.0
1586,67.0,60,60,0.0,0.0
1587,61.0,0,60,1.0,0.0
1588,58.0,0,60,3.0,0.0
1589,67.0,0,60,0.0,0.0
1590,61.0,0,60,1.0,0.0
1591,63.0,120,60,1.0,0.0
1592,44.0,0,180,3.0,0.0
1593,68.0,0,60,0.0,0.0
1594,60.0,0,60,1.0,0.0
1595,63.0,60,60,1.0,0.0
1596,56.0,60,60,3.0,0.0
1597,68.0,90,60,0.0,0.0
1598,63.0,0,60,1.0,0.0
1599,60.0,0,60,1.0,0.0
1600,32.0,990,90,3.0,0.0
1601,51.0,240,15,0.0,0.0
1602,47.0,0,120,2.0,0.0
1603,44.0,240,120,3.0,0.0
1604,56.0,0,240,0.0,0.0
1605,47.0,0,120,2.0,0.0
1606,44.0,240,120,3.0,0.0
1607,56.0,0,240,0.0,0.0
1608,47.0,240,120,2.0,0.0
1609,44.0,0,120,3.0,0.0
1610,56.0,0,240,0.0,0.0
1611,46.0,0,120,3.0,0.0
1612,49.0,240,120,2.0,0.0
1613,55.0,0,240,0.0,0.0
1614,49.0,240,120,2.0,0.0
1615,46.0,0,120,3.0,0.0
1616,46.0,240,120,3.0,0.0
1617,49.0,0,120,2.0,0.0
1618,55.0,0,15,0.0,0.0
1619,51.0,0,120,2.0,0.0
1620,47.0,0,120,3.0,0.0
1621,56.0,0,240,0.0,0.0
1622,51.0,0,120,2.0,0.0
1623,47.0,240,120,3.0,0.0
1624,51.0,240,120,2.0,0.0
1625,47.0,0,120,3.0,0.0
1626,56.0,0,15,0.0,0.0
1627,49.0,0,120,3.0,0.0
1628,52.0,0,120,2.0,0.0
1629,57.0,0,240,0.0,0.0
1630,52.0,0,120,2.0,0.0
1631,49.0,240,120,3.0,0.0
1632,57.0,0,240,0.0,0.0
1633,52.0,0,120,2.0,0.0
1634,49.0,240,120,3.0,0.0
1635,57.0,0,240,0.0,0.0
1636,54.0,240,120,2.0,0.0
1637,51.0,0,120,3.0,0.0
1638,51.0,0,120,3.0,0.0
1639,57.0,240,120,2.0,0.0
1640,54.0,0,120,2.0,0.0
1641,60.0,0,15,0.0,0.0
1642,51.0,0,120,3.0,0.0
1643,57.0,0,120,2.0,0.0
1644,54.0,0,120,2.0,0.0
1645,60.0,240,15,0.0,0.0
1646,56.0,0,120,2.0,0.0
1647,52.0,240,120,3.0,0.0
1648,56.0,0,120,2.0,0.0
1649,52.0,0,120,3.0,0.0
1650,61.0,240,15,0.0,0.0
1651,52.0,0,120,3.0,0.0
1652,56.0,0,120,2.0,0.0
1653,61.0,240,15,0.0,0.0
1654,53.0,240,120,3.0,0.0
1655,59.0,0,120,2.0,0.0
1656,58.0,240,120,2.0,0.0
1657,53.0,0,120,3.0,0.0
1658,62.0,0,15,0.0,0.0
1659,53.0,0,120,3.0,0.0
1660,56.0,360,120,2.0,0.0
1661,62.0,0,15,0.0,0.0
1662,51.0,0,360,3.0,0.0
1663,56.0,120,240,2.0,0.0
1664,63.0,0,120,0.0,0.0
1665,55.0,240,120,2.0,0.0
1666,63.0,240,120,0.0,0.0
1667,51.0,0,120,1.0,0.0
1668,51.0,0,240,1.0,0.0
1669,63.0,240,240,0.0,0.0
1670,32.0,164,690,3.0,0.0
1671,56.0,0,240,1.0,0.0
1672,68.0,0,240,0.0,0.0
1673,44.0,0,120,2.0,0.0
1674,47.0,240,120,2.0,0.0
1675,68.0,0,240,0.0,0.0
1676,44.0,0,120,2.0,0.0
1677,47.0,0,120,2.0,0.0
1678,68.0,0,240,0.0,0.0
1679,56.0,76,15,1.0,0.0
1680,34.0,7,600,3.0,0.0
1681,55.0,0,240,1.0,0.0
1682,46.0,0,120,2.0,0.0
1683,49.0,233,120,2.0,0.0
1684,67.0,0,15,0.0,0.0
1685,49.0,0,120,2.0,0.0
1686,46.0,0,120,2.0,0.0
1687,67.0,0,240,0.0,0.0
1688,55.0,240,15,1.0,0.0
1689,35.0,120,720,3.0,0.0
1690,56.0,0,240,1.0,0.0
1691,68.0,240,240,0.0,0.0
1692,51.0,0,120,2.0,0.0
1693,47.0,0,120,2.0,0.0
1694,56.0,0,240,1.0,0.0
1695,51.0,0,120,2.0,0.0
1696,47.0,0,120,2.0,0.0
1697,56.0,0,240,1.0,0.0
1698,68.0,120,15,0.0,0.0
1699,37.0,120,720,3.0,0.0
1700,69.0,240,240,0.0,0.0
1701,57.0,0,240,1.0,0.0
1702,52.0,0,120,2.0,0.0
1703,49.0,0,120,2.0,0.0
1704,69.0,0,240,0.0,0.0
1705,57.0,0,240,1.0,0.0
1706,52.0,120,120,2.0,0.0
1707,49.0,0,120,2.0,0.0
1708,69.0,0,240,0.0,0.0
1709,57.0,240,240,1.0,0.0
1710,39.0,7,600,3.0,0.0
1711,51.0,0,120,2.0,0.0
1712,54.0,0,120,2.0,0.0
1713,57.0,0,120,2.0,0.0
1714,60.0,0,15,1.0,0.0
1715,72.0,233,15,0.0,0.0
1716,57.0,240,120,2.0,0.0
1717,54.0,0,120,2.0,0.0
1718,51.0,0,120,2.0,0.0
1719,60.0,0,240,1.0,0.0
1720,72.0,0,15,0.0,0.0
1721,40.0,7,600,3.0,0.0
1722,73.0,233,240,0.0,0.0
1723,61.0,0,240,1.0,0.0
1724,56.0,0,120,2.0,0.0
1725,52.0,0,120,2.0,0.0
1726,61.0,0,240,1.0,0.0
1727,73.0,120,240,0.0,0.0
1728,56.0,0,120,2.0,0.0
1729,53.0,0,120,2.0,0.0
1730,59.0,0,120,2.0,0.0
1731,74.0,240,240,0.0,0.0
1732,62.0,120,120,1.0,0.0
1733,59.0,0,120,2.0,0.0
1734,51.0,0,120,3.0,0.0
1735,62.0,0,120,1.0,0.0
1736,56.0,0,120,2.0,0.0
1737,75.0,0,240,0.0,0.0
1738,44.0,0,120,2.0,0.0
1739,47.0,0,120,2.0,0.0
1740,51.0,240,120,2.0,0.0
1741,39.0,0,120,3.0,0.0
1742,63.0,0,15,1.0,0.0
1743,75.0,0,240,0.0,0.0
1744,51.0,0,120,2.0,0.0
1745,39.0,120,120,3.0,0.0
1746,43.0,0,120,2.0,0.0
1747,46.0,0,120,2.0,0.0
1748,63.0,0,15,1.0,0.0
1749,75.0,0,120,0.0,0.0
1750,56.0,0,120,2.0,0.0
1751,44.0,120,120,3.0,0.0
1752,68.0,120,240,0.0,0.0
1753,32.0,600,120,3.0,0.0
1754,69.0,240,480,1.0,0.0
1755,78.0,0,960,0.0,0.0
1756,75.0,0,720,1.0,0.0
1757,68.0,0,840,1.0,0.0
1758,60.0,240,240,3.0,0.0
1759,72.0,240,240,1.0,0.0
1760,56.0,0,240,3.0,0.0
1761,61.0,120,240,3.0,0.0
1762,73.0,0,360,1.0,0.0
1763,76.0,0,120,0.0,0.0
1764,49.0,600,120,3.0,0.0
1765,64.0,240,480,1.0,0.0
1766,73.0,0,960,0.0,0.0
1767,70.0,0,720,1.0,0.0
1768,63.0,0,840,1.0,0.0
1769,55.0,240,240,3.0,0.0
1770,51.0,240,240,3.0,0.0
1771,67.0,0,240,1.0,0.0
1772,68.0,0,360,1.0,0.0
1773,56.0,120,240,3.0,0.0
1774,44.0,0,120,3.0,0.0
1775,71.0,225,120,0.0,0.0
1776,71.0,7,120,0.0,0.0
1777,59.0,248,120,1.0,0.0
1778,59.0,240,240,1.0,0.0
1779,71.0,0,240,0.0,0.0
1780,38.0,225,600,3.0,0.0
1781,70.0,0,240,0.0,0.0
1782,50.0,0,120,2.0,0.0
1783,53.0,120,120,2.0,0.0
1784,58.0,0,15,1.0,0.0
1785,70.0,0,120,0.0,0.0
1786,50.0,0,120,2.0,0.0
1787,68.0,0,120,1.0,0.0
1788,58.0,15,120,2.0,0.0
1789,80.0,0,120,0.0,0.0
1790,68.0,240,240,1.0,0.0
1791,80.0,0,240,0.0,0.0
1792,39.0,225,600,3.0,0.0
1793,78.0,0,240,0.0,0.0
1794,58.0,0,120,2.0,0.0
1795,51.0,120,120,2.0,0.0
1796,66.0,0,15,1.0,0.0
1797,78.0,120,120,0.0,0.0
1798,65.0,15,120,1.0,0.0
1799,77.0,0,120,0.0,0.0
1800,44.0,0,120,2.0,0.0
1801,56.0,0,120,2.0,0.0
1802,77.0,0,240,0.0,0.0
1803,65.0,240,240,1.0,0.0
1804,34.0,118,360,3.0,0.0
1805,63.0,0,240,1.0,0.0
1806,54.0,0,120,2.0,0.0
1807,46.0,0,120,2.0,0.0
1808,75.0,2,15,0.0,0.0
1809,63.0,120,120,1.0,0.0
1810,46.0,0,120,2.0,0.0
1811,74.0,0,120,0.0,0.0
1812,34.0,0,120,3.0,0.0
1813,62.0,240,120,1.0,0.0
1814,74.0,0,240,0.0,0.0
1815,62.0,0,240,1.0,0.0
1816,35.0,118,360,3.0,0.0
1817,47.0,240,120,2.0,0.0
1818,63.0,0,240,1.0,0.0
1819,54.0,0,120,2.0,0.0
1820,47.0,2,120,2.0,0.0
1821,75.0,0,15,0.0,0.0
1822,63.0,0,120,1.0,0.0
1823,33.0,0,120,3.0,0.0
1824,45.0,0,120,2.0,0.0
1825,65.0,0,15,1.0,0.0
1826,77.0,240,15,0.0,0.0
1827,46.0,0,120,2.0,0.0
1828,34.0,20,330,3.0,0.0
1829,46.0,0,120,2.0,0.0
1830,54.0,0,120,2.0,0.0
1831,51.0,0,120,2.0,0.0
1832,63.0,120,15,1.0,0.0
1833,75.0,0,15,0.0,0.0
1834,46.0,0,120,2.0,0.0
1835,34.0,0,120,3.0,0.0
1836,74.0,0,15,0.0,0.0
1837,62.0,240,15,1.0,0.0
1838,39.0,120,240,3.0,0.0
1839,51.0,0,240,2.0,0.0
1840,75.0,120,240,0.0,0.0
1841,63.0,0,240,1.0,0.0
1842,37.0,0,240,3.0,0.0
1843,49.0,120,240,2.0,0.0
1844,63.0,120,240,0.0,0.0
1845,51.0,0,240,1.0,0.0
1846,46.0,120,240,2.0,0.0
1847,34.0,0,240,3.0,0.0
1848,63.0,0,240,0.0,0.0
1849,51.0,240,240,1.0,0.0
1850,32.0,225,600,3.0,0.0
1851,47.0,0,120,2.0,0.0
1852,44.0,0,120,2.0,0.0
1853,68.0,240,15,0.0,0.0
1854,56.0,0,15,1.0,0.0
1855,44.0,15,120,2.0,0.0
1856,47.0,0,120,2.0,0.0
1857,68.0,0,240,0.0,0.0
1858,56.0,0,15,1.0,0.0
1859,34.0,225,600,3.0,0.0
1860,55.0,0,240,1.0,0.0
1861,67.0,0,240,0.0,0.0
1862,49.0,240,120,2.0,0.0
1863,46.0,0,120,2.0,0.0
1864,67.0,0,240,0.0,0.0
1865,46.0,15,120,2.0,0.0
1866,49.0,0,120,2.0,0.0
1867,67.0,0,240,0.0,0.0
1868,55.0,0,15,1.0,0.0
1869,35.0,120,720,3.0,0.0
1870,56.0,0,240,1.0,0.0
1871,47.0,240,120,2.0,0.0
1872,51.0,0,120,2.0,0.0
1873,56.0,0,240,1.0,0.0
1874,68.0,0,15,0.0,0.0
1875,47.0,120,120,2.0,0.0
1876,51.0,0,120,2.0,0.0
1877,68.0,0,15,0.0,0.0
1878,56.0,0,240,1.0,0.0
1879,37.0,120,720,3.0,0.0
1880,69.0,0,240,0.0,0.0
1881,49.0,240,120,2.0,0.0
1882,52.0,0,120,2.0,0.0
1883,57.0,0,15,1.0,0.0
1884,69.0,0,240,0.0,0.0
1885,52.0,0,120,2.0,0.0
1886,49.0,0,120,2.0,0.0
1887,57.0,120,15,1.0,0.0
1888,69.0,0,240,0.0,0.0
1889,39.0,225,600,3.0,0.0
1890,60.0,0,240,1.0,0.0
1891,72.0,240,240,0.0,0.0
1892,51.0,0,120,2.0,0.0
1893,57.0,0,120,2.0,0.0
1894,54.0,0,120,2.0,0.0
1895,60.0,0,240,1.0,0.0
1896,72.0,0,240,0.0,0.0
1897,54.0,0,120,2.0,0.0
1898,57.0,0,120,2.0,0.0
1899,51.0,15,120,2.0,0.0
1900,60.0,0,240,1.0,0.0
1901,72.0,240,240,0.0,0.0
1902,40.0,105,600,3.0,0.0
1903,73.0,0,240,0.0,0.0
1904,56.0,0,120,2.0,0.0
1905,52.0,240,120,2.0,0.0
1906,61.0,0,15,1.0,0.0
1907,73.0,0,240,0.0,0.0
1908,56.0,0,120,2.0,0.0
1909,59.0,0,120,2.0,0.0
1910,53.0,15,120,2.0,0.0
1911,74.0,0,240,0.0,0.0
1912,59.0,0,120,2.0,0.0
1913,56.0,240,120,2.0,0.0
1914,51.0,0,120,3.0,0.0
1915,62.0,120,15,1.0,0.0
1916,44.0,0,120,2.0,0.0
1917,39.0,0,120,3.0,0.0
1918,51.0,0,120,2.0,0.0
1919,47.0,0,120,2.0,0.0
1920,63.0,0,15,1.0,0.0
1921,75.0,240,15,0.0,0.0
1922,39.0,120,120,3.0,0.0
1923,43.0,0,120,2.0,0.0
1924,51.0,0,120,2.0,0.0
1925,46.0,0,120,2.0,0.0
1926,75.0,0,15,0.0,0.0
1927,63.0,120,120,1.0,0.0
1928,68.0,120,240,0.0,0.0
1929,56.0,120,120,2.0,0.0
1930,44.0,0,120,3.0,0.0
1931,32.0,1200,120,3.0,0.0
1932,63.0,0,480,0.0,0.0
1933,63.0,120,480,1.0,0.0
1934,44.0,0,120,3.0,0.0
1935,48.0,120,120,3.0,0.0
1936,68.0,240,120,1.0,0.0
1937,68.0,0,120,0.0,0.0
1938,56.0,0,120,3.0,0.0
1939,60.0,240,120,3.0,0.0
1940,80.0,120,480,1.0,0.0
1941,80.0,0,480,0.0,0.0
1942,61.0,120,120,3.0,0.0
1943,58.0,0,120,3.0,0.0
1944,79.0,240,120,0.0,0.0
1945,79.0,0,120,1.0,0.0
1946,67.0,0,480,0.0,0.0
1947,67.0,120,480,1.0,0.0
1948,49.0,0,120,3.0,0.0
1949,46.0,240,120,3.0,0.0
1950,51.0,0,120,3.0,0.0
1951,48.0,120,120,3.0,0.0
1952,68.0,240,120,1.0,0.0
1953,68.0,0,120,0.0,0.0
1954,84.0,120,480,0.0,0.0
1955,63.0,240,120,3.0,0.0
1956,60.0,0,120,3.0,0.0
1957,80.0,0,480,1.0,0.0
1958,62.0,0,120,3.0,0.0
1959,65.0,120,120,3.0,0.0
1960,63.0,0,120,3.0,0.0
1961,67.0,0,120,3.0,0.0
1962,79.0,240,120,1.0,0.0
1963,82.0,0,120,0.0,0.0
1964,53.0,120,120,3.0,0.0
1965,73.0,120,480,0.0,0.0
1966,56.0,0,120,3.0,0.0
1967,65.0,120,240,1.0,0.0
1968,55.0,0,120,3.0,0.0
1969,58.0,120,120,3.0,0.0
1970,64.0,0,240,1.0,0.0
1971,63.0,240,120,1.0,0.0
1972,72.0,0,120,0.0,0.0
1973,60.0,0,120,3.0,0.0
1974,56.0,0,120,3.0,0.0
1975,89.0,120,480,0.0,0.0
1976,62.0,0,120,3.0,0.0
1977,68.0,240,120,3.0,0.0
1978,77.0,0,480,1.0,0.0
1979,67.0,0,120,3.0,0.0
1980,70.0,0,120,3.0,0.0
1981,61.0,120,120,3.0,0.0
1982,60.0,360,120,3.0,0.0
1983,68.0,0,120,3.0,0.0
1984,87.0,0,120,0.0,0.0
1985,72.0,0,120,3.0,0.0
1986,75.0,0,120,1.0,0.0
1987,59.0,0,240,1.0,0.0
1988,41.0,240,240,3.0,0.0
1989,62.0,0,240,0.0,0.0
1990,56.0,0,240,1.0,0.0
1991,43.0,0,240,3.0,0.0
1992,61.0,0,240,0.0,0.0
1993,52.0,0,240,1.0,0.0
1994,58.0,240,240,1.0,0.0
1995,44.0,0,240,3.0,0.0
1996,60.0,240,240,0.0,0.0
1997,51.0,0,240,1.0,0.0
1998,38.0,240,240,3.0,0.0
1999,59.0,120,480,0.0,0.0
2000,56.0,0,15,1.0,0.0
2001,53.0,0,480,1.0,0.0
2002,39.0,0,240,3.0,0.0
2003,55.0,0,120,1.0,0.0
2004,51.0,480,120,3.0,0.0
2005,58.0,0,120,0.0,0.0
2006,39.0,120,480,1.0,0.0
2007,51.0,0,480,0.0,0.0
2008,44.0,120,120,3.0,0.0
2009,32.0,0,120,3.0,0.0
2010,68.0,0,120,0.0,0.0
2011,56.0,180,120,1.0,0.0
2012,80.0,120,480,0.0,0.0
2013,68.0,0,480,1.0,0.0
2014,60.0,120,60,3.0,0.0
2015,56.0,0,60,3.0,0.0
2016,56.0,180,60,3.0,0.0
2017,60.0,0,60,3.0,0.0
2018,58.0,120,120,3.0,0.0
2019,61.0,0,120,3.0,0.0
2020,79.0,180,120,0.0,0.0
2021,67.0,0,120,1.0,0.0
2022,67.0,0,480,0.0,0.0
2023,49.0,0,60,3.0,0.0
2024,46.0,120,60,3.0,0.0
2025,55.0,120,480,1.0,0.0
2026,49.0,180,60,3.0,0.0
2027,46.0,0,60,3.0,0.0
2028,51.0,120,120,3.0,0.0
2029,48.0,0,120,3.0,0.0
2030,56.0,0,120,1.0,0.0
2031,68.0,180,120,0.0,0.0
2032,80.0,0,480,1.0,0.0
2033,63.0,120,60,3.0,0.0
2034,84.0,120,480,0.0,0.0
2035,60.0,0,60,3.0,0.0
2036,63.0,120,60,3.0,0.0
2037,60.0,0,60,3.0,0.0
2038,65.0,0,60,3.0,0.0
2039,62.0,120,60,3.0,0.0
2040,62.0,60,60,3.0,0.0
2041,65.0,0,60,3.0,0.0
2042,67.0,0,120,3.0,0.0
2043,63.0,0,120,3.0,0.0
2044,79.0,0,120,1.0,0.0
2045,82.0,180,120,0.0,0.0
2046,73.0,120,480,0.0,0.0
2047,53.0,0,60,3.0,0.0
2048,65.0,60,240,1.0,0.0
2049,56.0,120,60,3.0,0.0
2050,56.0,60,60,3.0,0.0
2051,53.0,0,60,3.0,0.0
2052,55.0,120,60,3.0,0.0
2053,58.0,0,60,3.0,0.0
2054,64.0,0,240,1.0,0.0
2055,55.0,60,60,3.0,0.0
2056,58.0,0,60,3.0,0.0
2057,60.0,180,120,3.0,0.0
2058,63.0,0,120,1.0,0.0
2059,56.0,0,120,3.0,0.0
2060,72.0,0,120,0.0,0.0
2061,62.0,0,60,3.0,0.0
2062,77.0,120,480,1.0,0.0
2063,89.0,0,480,0.0,0.0
2064,68.0,120,60,3.0,0.0
2065,62.0,120,60,3.0,0.0
2066,68.0,0,60,3.0,0.0
2067,67.0,0,60,3.0,0.0
2068,61.0,0,60,3.0,0.0
2069,70.0,120,60,3.0,0.0
2070,61.0,60,60,3.0,0.0
2071,70.0,0,60,3.0,0.0
2072,67.0,0,60,3.0,0.0
2073,87.0,180,120,0.0,0.0
2074,60.0,0,120,3.0,0.0
2075,68.0,0,120,3.0,0.0
2076,75.0,0,120,1.0,0.0
2077,72.0,0,120,3.0,0.0
2078,68.0,0,720,0.0,0.0
2079,62.0,0,480,1.0,0.0
2080,53.0,120,60,3.0,0.0
2081,59.0,240,480,1.0,0.0
2082,53.0,180,60,3.0,0.0
2083,51.0,120,120,3.0,0.0
2084,63.0,60,240,1.0,0.0
2085,60.0,0,240,1.0,0.0
2086,61.0,0,240,1.0,0.0
2087,67.0,0,240,0.0,0.0
2088,39.0,120,60,3.0,0.0
2089,58.0,120,240,1.0,0.0
2090,39.0,60,60,3.0,0.0
2091,60.0,0,120,1.0,0.0
2092,68.0,0,120,0.0,0.0
2093,44.0,240,120,3.0,0.0
2094,56.0,0,120,1.0,0.0
2095,32.0,240,120,3.0,0.0
2096,46.0,0,120,3.0,0.0
2097,66.0,120,480,0.0,0.0
2098,54.0,0,480,1.0,0.0
2099,49.0,240,120,3.0,0.0
2100,45.0,120,120,3.0,0.0
2101,48.0,0,120,3.0,0.0
2102,53.0,240,120,1.0,0.0
2103,65.0,0,120,0.0,0.0
2104,57.0,0,120,3.0,0.0
2105,65.0,240,120,3.0,0.0
2106,75.0,120,480,1.0,0.0
2107,87.0,0,480,0.0,0.0
2108,65.0,120,120,3.0,0.0
2109,58.0,0,120,3.0,0.0
2110,85.0,240,120,0.0,0.0
2111,73.0,0,120,1.0,0.0
2112,64.0,0,480,0.0,0.0
2113,52.0,120,480,1.0,0.0
2114,47.0,240,120,3.0,0.0
2115,44.0,0,120,3.0,0.0
2116,46.0,0,120,3.0,0.0
2117,43.0,120,120,3.0,0.0
2118,63.0,0,120,0.0,0.0
2119,51.0,240,120,1.0,0.0
2120,55.0,0,120,3.0,0.0
2121,85.0,0,480,0.0,0.0
2122,73.0,120,480,1.0,0.0
2123,63.0,240,120,3.0,0.0
2124,63.0,0,120,3.0,0.0
2125,56.0,120,120,3.0,0.0
2126,84.0,240,120,0.0,0.0
2127,72.0,0,120,1.0,0.0
2128,48.0,0,240,1.0,0.0
2129,44.0,120,120,3.0,0.0
2130,60.0,115,480,0.0,0.0
2131,53.0,120,15,1.0,0.0
2132,50.0,5,360,1.0,0.0
2133,43.0,120,120,3.0,0.0
2134,59.0,233,120,0.0,0.0
2135,31.0,7,120,3.0,0.0
2136,64.0,0,480,1.0,0.0
2137,48.0,240,120,3.0,0.0
2138,67.0,120,480,1.0,0.0
2139,70.0,0,480,0.0,0.0
2140,61.0,0,480,1.0,0.0
2141,53.0,120,120,3.0,0.0
2142,65.0,0,120,1.0,0.0
2143,60.0,0,120,1.0,0.0
2144,69.0,0,120,0.0,0.0
2145,41.0,240,120,3.0,0.0
2146,65.0,120,240,1.0,0.0
2147,72.0,0,240,1.0,0.0
2148,57.0,120,120,3.0,0.0
2149,77.0,120,480,0.0,0.0
2150,67.0,0,360,1.0,0.0
2151,70.0,235,360,1.0,0.0
2152,58.0,120,120,3.0,0.0
2153,46.0,0,120,3.0,0.0
2154,75.0,5,120,0.0,0.0
2155,47.0,240,120,3.0,0.0
2156,62.0,120,480,0.0,0.0
2157,56.0,0,480,1.0,0.0
2158,53.0,0,480,1.0,0.0
2159,48.0,120,120,3.0,0.0
2160,55.0,240,120,1.0,0.0
2161,51.0,0,120,1.0,0.0
2162,63.0,0,120,0.0,0.0
2163,36.0,0,120,3.0,0.0
2164,57.0,120,120,3.0,0.0
2165,65.0,0,240,1.0,0.0
2166,72.0,120,240,1.0,0.0
2167,77.0,120,480,0.0,0.0
2168,67.0,0,240,1.0,0.0
2169,58.0,120,120,3.0,0.0
2170,70.0,0,240,1.0,0.0
2171,46.0,0,120,3.0,0.0
2172,70.0,0,120,1.0,0.0
2173,67.0,240,120,1.0,0.0
2174,75.0,0,120,0.0,0.0
2175,53.0,0,240,1.0,0.0
2176,56.0,60,240,1.0,0.0
2177,34.0,120,120,3.0,0.0
2178,62.0,0,240,0.0,0.0
2179,39.0,60,60,3.0,0.0
2180,55.0,0,120,1.0,0.0
2181,63.0,60,120,0.0,0.0
2182,51.0,0,120,1.0,0.0
2183,49.0,60,60,3.0,0.0
2184,48.0,60,60,3.0,0.0
2185,46.0,60,60,3.0,0.0
2186,53.0,60,240,1.0,0.0
2187,63.0,0,240,0.0,0.0
2188,56.0,0,240,1.0,0.0
2189,44.0,60,60,3.0,0.0
2190,43.0,60,60,3.0,0.0
2191,41.0,0,60,3.0,0.0
2192,63.0,0,480,0.0,0.0
2193,39.0,60,60,3.0,0.0
2194,55.0,0,240,1.0,0.0
2195,58.0,240,240,1.0,0.0
2196,37.0,60,60,3.0,0.0
2197,36.0,60,60,3.0,0.0
2198,34.0,0,60,3.0,0.0
2199,60.0,0,240,1.0,0.0
2200,32.0,120,240,3.0,0.0
2201,56.0,0,240,1.0,0.0
2202,68.0,180,120,0.0,0.0
2203,68.0,120,480,1.0,0.0
2204,60.0,120,60,3.0,0.0
2205,56.0,0,60,3.0,0.0
2206,80.0,0,480,0.0,0.0
2207,60.0,180,60,3.0,0.0
2208,56.0,0,60,3.0,0.0
2209,61.0,120,120,3.0,0.0
2210,58.0,0,120,3.0,0.0
2211,79.0,0,120,0.0,0.0
2212,67.0,180,120,1.0,0.0
2213,67.0,115,480,0.0,0.0
2214,49.0,120,60,3.0,0.0
2215,46.0,0,60,3.0,0.0
2216,55.0,0,480,1.0,0.0
2217,49.0,180,60,3.0,0.0
2218,46.0,0,60,3.0,0.0
2219,51.0,0,120,3.0,0.0
2220,48.0,120,120,3.0,0.0
2221,56.0,5,120,1.0,0.0
2222,68.0,180,120,0.0,0.0
2223,63.0,120,60,3.0,0.0
2224,60.0,0,60,3.0,0.0
2225,84.0,115,480,0.0,0.0
2226,80.0,0,480,1.0,0.0
2227,60.0,120,60,3.0,0.0
2228,63.0,0,60,3.0,0.0
2229,65.0,0,60,3.0,0.0
2230,62.0,120,60,3.0,0.0
2231,65.0,0,60,3.0,0.0
2232,62.0,60,60,3.0,0.0
2233,63.0,0,120,3.0,0.0
2234,67.0,5,120,3.0,0.0
2235,82.0,175,120,0.0,0.0
2236,79.0,5,120,1.0,0.0
2237,73.0,120,480,0.0,0.0
2238,65.0,60,240,1.0,0.0
2239,56.0,0,60,3.0,0.0
2240,53.0,120,60,3.0,0.0
2241,53.0,60,60,3.0,0.0
2242,56.0,0,60,3.0,0.0
2243,64.0,0,240,1.0,0.0
2244,55.0,120,60,3.0,0.0
2245,58.0,0,60,3.0,0.0
2246,58.0,0,60,3.0,0.0
2247,55.0,60,60,3.0,0.0
2248,60.0,0,120,3.0,0.0
2249,56.0,180,120,3.0,0.0
2250,63.0,0,120,1.0,0.0
2251,72.0,0,120,0.0,0.0
2252,62.0,0,60,3.0,0.0
2253,89.0,120,480,0.0,0.0
2254,68.0,120,60,3.0,0.0
2255,77.0,0,480,1.0,0.0
2256,62.0,120,60,3.0,0.0
2257,68.0,0,60,3.0,0.0
2258,70.0,120,60,3.0,0.0
2259,67.0,0,60,3.0,0.0
2260,61.0,0,60,3.0,0.0
2261,70.0,0,60,3.0,0.0
2262,61.0,60,60,3.0,0.0
2263,67.0,0,60,3.0,0.0
2264,87.0,5,120,0.0,0.0
2265,60.0,0,120,3.0,0.0
2266,75.0,175,120,1.0,0.0
2267,68.0,0,120,3.0,0.0
2268,72.0,0,120,3.0,0.0
2269,68.0,0,720,0.0,0.0
2270,53.0,120,60,3.0,0.0
2271,62.0,0,480,1.0,0.0
2272,59.0,240,480,1.0,0.0
2273,53.0,180,60,3.0,0.0
2274,51.0,120,120,3.0,0.0
2275,60.0,60,240,1.0,0.0
2276,63.0,0,240,1.0,0.0
2277,58.0,0,240,1.0,0.0
2278,39.0,120,60,3.0,0.0
2279,67.0,0,240,0.0,0.0
2280,61.0,120,240,1.0,0.0
2281,39.0,60,60,3.0,0.0
2282,44.0,0,120,3.0,0.0
2283,68.0,240,120,0.0,0.0
2284,60.0,0,120,1.0,0.0
2285,56.0,0,120,1.0,0.0
2286,32.0,1000,120,3.0,0.0
2287,60.0,10,240,1.0,0.0
2288,65.0,70,90,0.0,0.0
2289,63.0,160,90,0.0,0.0
2290,60.0,10,240,1.0,0.0
2291,65.0,11,90,0.0,0.0
2292,51.0,59,90,2.0,0.0
2293,63.0,160,90,0.0,0.0
2294,56.0,0,90,2.0,0.0
2295,60.0,10,240,1.0,0.0
2296,44.0,0,15,3.0,0.0
2297,70.0,11,90,0.0,0.0
2298,51.0,59,90,2.0,0.0
2299,56.0,0,90,2.0,0.0
2300,68.0,160,90,0.0,0.0
2301,44.0,0,240,3.0,0.0
2302,60.0,10,240,1.0,0.0
2303,51.0,59,90,2.0,0.0
2304,70.0,11,90,0.0,0.0
2305,68.0,0,90,0.0,0.0
2306,56.0,160,90,2.0,0.0
2307,46.0,0,240,3.0,0.0
2308,61.0,10,240,1.0,0.0
2309,51.0,59,90,2.0,0.0
2310,68.0,11,90,0.0,0.0
2311,58.0,160,90,2.0,0.0
2312,67.0,0,90,0.0,0.0
2313,61.0,10,240,1.0,0.0
2314,46.0,0,240,3.0,0.0
2315,51.0,59,90,2.0,0.0
2316,67.0,11,90,0.0,0.0
2317,58.0,160,90,2.0,0.0
2318,65.0,0,90,0.0,0.0
2319,61.0,10,240,1.0,0.0
2320,46.0,0,240,3.0,0.0
2321,67.0,11,90,0.0,0.0
2322,51.0,59,90,2.0,0.0
2323,58.0,0,90,2.0,0.0
2324,63.0,160,90,0.0,0.0
2325,63.0,10,240,1.0,0.0
2326,48.0,0,240,3.0,0.0
2327,70.0,11,90,0.0,0.0
2328,51.0,59,90,2.0,0.0
2329,68.0,0,90,0.0,0.0
2330,60.0,160,90,2.0,0.0
2331,63.0,10,240,1.0,0.0
2332,48.0,160,240,3.0,0.0
2333,70.0,11,90,0.0,0.0
2334,51.0,59,90,2.0,0.0
2335,68.0,0,90,0.0,0.0
2336,60.0,0,90,2.0,0.0
2337,63.0,10,240,1.0,0.0
2338,43.0,0,240,3.0,0.0
2339,51.0,59,90,2.0,0.0
2340,72.0,11,90,0.0,0.0
2341,70.0,160,90,0.0,0.0
2342,55.0,0,90,2.0,0.0
2343,63.0,10,240,1.0,0.0
2344,44.0,0,240,3.0,0.0
2345,51.0,59,90,2.0,0.0
2346,73.0,0,90,0.0,0.0
2347,70.0,11,90,1.0,0.0
2348,56.0,160,90,2.0,0.0
2349,68.0,0,90,1.0,0.0
2350,72.0,0,90,0.0,0.0
2351,63.0,10,240,1.0,0.0
2352,39.0,0,240,3.0,0.0
2353,72.0,50,90,0.0,0.0
2354,68.0,0,90,1.0,0.0
2355,70.0,20,60,0.0,0.0
2356,51.0,0,15,2.0,0.0
2357,67.0,0,90,1.0,0.0
2358,72.0,60,30,0.0,0.0
2359,70.0,60,60,0.0,0.0
2360,42.0,0,240,3.0,0.0
2361,69.0,40,60,0.0,0.0
2362,51.0,20,90,2.0,0.0
2363,70.0,60,60,0.0,0.0
2364,54.0,0,90,2.0,0.0
2365,72.0,160,60,0.0,0.0
2366,68.0,4,240,1.0,0.0
2367,41.0,0,240,3.0,0.0
2368,75.0,76,90,0.0,0.0
2369,53.0,0,90,2.0,0.0
2370,73.0,160,90,0.0,0.0
2371,56.0,0,90,2.0,0.0
2372,68.0,4,240,1.0,0.0
2373,53.0,160,240,3.0,0.0
2374,75.0,76,90,0.0,0.0
2375,56.0,0,90,2.0,0.0
2376,61.0,0,90,2.0,0.0
2377,73.0,0,90,0.0,0.0
2378,68.0,4,240,1.0,0.0
2379,51.0,0,240,3.0,0.0
2380,56.0,0,90,2.0,0.0
2381,73.0,76,90,0.0,0.0
2382,60.0,0,90,2.0,0.0
2383,72.0,160,90,0.0,0.0
2384,50.0,0,240,3.0,0.0
2385,68.0,4,240,1.0,0.0
2386,79.0,76,90,0.0,0.0
2387,53.0,0,90,2.0,0.0
2388,58.0,160,90,2.0,0.0
2389,77.0,0,90,0.0,0.0
2390,49.0,0,240,3.0,0.0
2391,67.0,4,240,1.0,0.0
2392,51.0,0,90,2.0,0.0
2393,72.0,76,90,0.0,0.0
2394,58.0,160,90,2.0,0.0
2395,48.0,0,240,3.0,0.0
2396,68.0,4,240,1.0,0.0
2397,51.0,0,90,2.0,0.0
2398,77.0,76,90,0.0,0.0
2399,56.0,0,90,2.0,0.0
2400,75.0,160,90,0.0,0.0
2401,68.0,4,240,1.0,0.0
2402,41.0,0,240,3.0,0.0
2403,75.0,76,90,0.0,0.0
2404,53.0,0,90,2.0,0.0
2405,74.0,0,90,0.0,0.0
2406,56.0,160,90,2.0,0.0
2407,43.0,0,240,3.0,0.0
2408,64.0,4,240,1.0,0.0
2409,72.0,0,90,0.0,0.0
2410,75.0,0,90,0.0,0.0
2411,55.0,76,90,2.0,0.0
2412,73.0,0,90,0.0,0.0
2413,58.0,0,90,2.0,0.0
2414,70.0,160,90,1.0,0.0
2415,63.0,4,240,1.0,0.0
2416,44.0,160,240,3.0,0.0
2417,70.0,0,90,1.0,0.0
2418,73.0,76,90,0.0,0.0
2419,56.0,0,90,2.0,0.0
2420,60.0,0,90,2.0,0.0
2421,72.0,0,90,0.0,0.0
2422,68.0,0,90,1.0,0.0
2423,69.0,80,240,0.0,0.0
2424,39.0,0,240,3.0,0.0
2425,66.0,0,240,1.0,0.0
2426,51.0,80,15,3.0,0.0
2427,70.0,0,180,0.0,0.0
2428,51.0,0,15,3.0,0.0
2429,67.0,60,180,1.0,0.0
2430,53.0,20,90,3.0,0.0
2431,51.0,80,90,3.0,0.0
2432,63.0,12,120,0.0,0.0
2433,49.0,28,90,3.0,0.0
2434,75.0,40,60,1.0,0.0
2435,48.0,68,90,3.0,0.0
2436,63.0,12,120,0.0,0.0
2437,46.0,0,90,3.0,0.0
2438,75.0,120,60,1.0,0.0
2439,44.0,0,240,3.0,0.0
2440,63.0,0,240,0.0,0.0
2441,51.0,60,60,2.0,0.0
2442,75.0,0,60,1.0,0.0
2443,56.0,0,60,2.0,0.0
2444,77.0,60,60,1.0,0.0
2445,51.0,0,60,2.0,0.0
2446,75.0,120,60,1.0,0.0
2447,51.0,0,60,2.0,0.0
2448,75.0,60,60,1.0,0.0
2449,56.0,60,60,2.0,0.0
2450,77.0,0,60,1.0,0.0
2451,51.0,0,60,2.0,0.0
2452,75.0,0,60,1.0,0.0
2453,48.0,0,15,3.0,0.0
2454,68.0,120,15,0.0,0.0
2455,51.0,60,60,2.0,0.0
2456,75.0,0,60,1.0,0.0
2457,77.0,0,60,1.0,0.0
2458,56.0,60,60,2.0,0.0
2459,75.0,60,60,1.0,0.0
2460,51.0,0,60,2.0,0.0
2461,68.0,0,120,0.0,0.0
2462,77.0,60,60,1.0,0.0
2463,46.0,0,240,3.0,0.0
2464,75.0,60,60,1.0,0.0
2465,51.0,0,60,2.0,0.0
2466,55.0,0,60,2.0,0.0
2467,67.0,60,60,0.0,0.0
2468,77.0,0,60,1.0,0.0
2469,51.0,60,60,2.0,0.0
2470,75.0,0,60,1.0,0.0
2471,77.0,60,60,1.0,0.0
2472,67.0,60,120,0.0,0.0
2473,49.0,0,240,3.0,0.0
2474,75.0,0,60,1.0,0.0
2475,51.0,0,60,2.0,0.0
2476,58.0,0,60,2.0,0.0
2477,65.0,60,60,0.0,0.0
2478,77.0,0,60,1.0,0.0
2479,51.0,60,60,2.0,0.0
2480,75.0,0,60,1.0,0.0
2481,67.0,0,120,0.0,0.0
2482,49.0,0,240,3.0,0.0
2483,77.0,60,60,1.0,0.0
2484,51.0,0,60,2.0,0.0
2485,75.0,60,60,1.0,0.0
2486,63.0,60,60,0.0,0.0
2487,58.0,0,60,2.0,0.0
2488,77.0,0,60,1.0,0.0
2489,75.0,120,60,1.0,0.0
2490,51.0,0,60,2.0,0.0
2491,68.0,0,240,0.0,0.0
2492,48.0,120,240,3.0,0.0
2493,51.0,0,60,2.0,0.0
2494,75.0,60,60,1.0,0.0
2495,56.0,0,60,2.0,0.0
2496,77.0,60,60,1.0,0.0
2497,51.0,0,60,2.0,0.0
2498,75.0,0,60,1.0,0.0
2499,68.0,0,240,0.0,0.0
2500,48.0,0,240,3.0,0.0
2501,75.0,60,60,1.0,0.0
2502,51.0,0,60,2.0,0.0
2503,77.0,60,60,1.0,0.0
2504,56.0,0,60,2.0,0.0
2505,51.0,0,60,2.0,0.0
2506,75.0,120,60,1.0,0.0
2507,70.0,0,240,0.0,0.0
2508,43.0,120,240,3.0,0.0
2509,51.0,0,60,2.0,0.0
2510,75.0,60,60,1.0,0.0
2511,55.0,0,60,2.0,0.0
2512,77.0,60,60,1.0,0.0
2513,51.0,0,60,2.0,0.0
2514,75.0,0,60,1.0,0.0
2515,72.0,0,240,0.0,0.0
2516,68.0,0,240,1.0,0.0
2517,44.0,0,240,3.0,0.0
2518,51.0,0,60,2.0,0.0
2519,75.0,60,60,1.0,0.0
2520,77.0,60,60,1.0,0.0
2521,56.0,0,60,2.0,0.0
2522,75.0,120,60,1.0,0.0
2523,51.0,0,60,2.0,0.0
2524,70.0,50,180,0.0,0.0
2525,39.0,0,240,3.0,0.0
2526,67.0,0,240,1.0,0.0
2527,75.0,60,60,1.0,0.0
2528,51.0,0,60,2.0,0.0
2529,55.0,10,60,2.0,0.0
2530,77.0,0,60,1.0,0.0
2531,75.0,0,60,1.0,0.0
2532,51.0,0,60,2.0,0.0
2533,72.0,60,30,0.0,0.0
2534,70.0,60,60,0.0,0.0
2535,42.0,120,240,3.0,0.0
2536,51.0,0,60,2.0,0.0
2537,69.0,60,60,0.0,0.0
2538,70.0,60,60,0.0,0.0
2539,54.0,0,60,2.0,0.0
2540,51.0,0,60,2.0,0.0
2541,72.0,0,60,0.0,0.0
2542,73.0,0,240,0.0,0.0
2543,41.0,120,240,3.0,0.0
2544,53.0,0,60,2.0,0.0
2545,80.0,60,60,1.0,0.0
2546,56.0,60,60,2.0,0.0
2547,82.0,0,60,1.0,0.0
2548,80.0,0,60,1.0,0.0
2549,61.0,0,60,2.0,0.0
2550,53.0,0,240,3.0,0.0
2551,73.0,0,240,0.0,0.0
2552,56.0,60,60,2.0,0.0
2553,80.0,0,60,1.0,0.0
2554,82.0,0,60,1.0,0.0
2555,61.0,60,60,2.0,0.0
2556,80.0,0,60,1.0,0.0
2557,56.0,120,60,2.0,0.0
2558,51.0,0,240,3.0,0.0
2559,72.0,0,240,0.0,0.0
2560,80.0,0,60,1.0,0.0
2561,56.0,60,60,2.0,0.0
2562,82.0,60,60,1.0,0.0
2563,60.0,0,60,2.0,0.0
2564,56.0,120,60,2.0,0.0
2565,80.0,0,60,1.0,0.0
2566,50.0,120,240,3.0,0.0
2567,77.0,0,240,0.0,0.0
2568,53.0,0,60,2.0,0.0
2569,80.0,60,60,1.0,0.0
2570,58.0,60,60,2.0,0.0
2571,82.0,0,60,1.0,0.0
2572,80.0,0,60,1.0,0.0
2573,53.0,0,60,2.0,0.0
2574,70.0,0,240,0.0,0.0
2575,49.0,120,240,3.0,0.0
2576,51.0,60,60,2.0,0.0
2577,80.0,0,60,1.0,0.0
2578,58.0,0,60,2.0,0.0
2579,82.0,60,60,1.0,0.0
2580,51.0,0,60,2.0,0.0
2581,80.0,0,60,1.0,0.0
2582,75.0,120,240,0.0,0.0
2583,48.0,0,240,3.0,0.0
2584,80.0,0,60,1.0,0.0
2585,51.0,60,60,2.0,0.0
2586,82.0,0,60,1.0,0.0
2587,56.0,60,60,2.0,0.0
2588,51.0,0,60,2.0,0.0
2589,80.0,0,60,1.0,0.0
2590,68.0,0,240,0.0,0.0
2591,39.0,0,240,3.0,0.0
2592,75.0,60,60,1.0,0.0
2593,48.0,0,60,2.0,0.0
2594,51.0,0,60,2.0,0.0
2595,77.0,60,60,1.0,0.0
2596,56.0,0,60,2.0,0.0
2597,75.0,120,60,1.0,0.0
2598,72.0,0,240,0.0,0.0
2599,39.0,0,240,3.0,0.0
2600,68.0,0,240,1.0,0.0
2601,48.0,60,60,2.0,0.0
2602,75.0,0,60,1.0,0.0
2603,51.0,0,60,2.0,0.0
2604,77.0,60,60,1.0,0.0
2605,75.0,0,60,1.0,0.0
2606,56.0,120,60,2.0,0.0
2607,67.0,0,240,1.0,0.0
2608,70.0,120,240,0.0,0.0
2609,39.0,0,240,3.0,0.0
2610,75.0,60,60,1.0,0.0
2611,49.0,0,60,2.0,0.0
2612,77.0,60,60,1.0,0.0
2613,51.0,0,60,2.0,0.0
2614,55.0,0,60,2.0,0.0
2615,75.0,0,60,1.0,0.0
2616,68.0,0,240,0.0,0.0
2617,48.0,60,60,2.0,0.0
2618,51.0,60,60,2.0,0.0
2619,56.0,0,60,2.0,0.0
2620,44.0,240,15,3.0,0.0
2621,76.0,60,60,0.0,0.0
2622,77.0,60,60,0.0,0.0
2623,76.0,60,60,0.0,0.0
2624,77.0,60,15,0.0,0.0
2625,57.0,0,240,3.0,0.0
2626,65.0,60,60,2.0,0.0
2627,89.0,60,240,0.0,0.0
2628,60.0,60,60,2.0,0.0
2629,65.0,120,60,2.0,0.0
2630,55.0,0,240,3.0,0.0
2631,65.0,0,60,2.0,0.0
2632,88.0,0,240,0.0,0.0
2633,58.0,60,60,2.0,0.0
2634,65.0,120,60,2.0,0.0
2635,57.0,0,240,3.0,0.0
2636,65.0,60,60,2.0,0.0
2637,87.0,0,240,0.0,0.0
2638,60.0,60,60,2.0,0.0
2639,65.0,120,60,2.0,0.0
2640,58.0,60,240,3.0,0.0
2641,85.0,60,60,0.0,0.0
2642,65.0,0,60,2.0,0.0
2643,84.0,60,60,0.0,0.0
2644,61.0,0,60,2.0,0.0
2645,65.0,0,60,2.0,0.0
2646,82.0,0,60,0.0,0.0
2647,46.0,0,240,3.0,0.0
2648,81.0,60,60,0.0,0.0
2649,82.0,60,60,0.0,0.0
2650,78.0,60,60,0.0,0.0
2651,77.0,60,60,0.0,0.0
2652,75.0,60,60,0.0,0.0
2653,73.0,60,60,0.0,0.0
2654,72.0,60,60,0.0,0.0
2655,70.0,60,60,0.0,0.0
2656,55.0,0,240,3.0,0.0
2657,75.0,60,60,0.0,0.0
2658,63.0,60,60,2.0,0.0
2659,87.0,60,240,0.0,0.0
2660,58.0,60,60,2.0,0.0
2661,63.0,120,60,2.0,0.0
2662,53.0,0,240,3.0,0.0
2663,63.0,0,60,2.0,0.0
2664,56.0,60,60,2.0,0.0
2665,86.0,60,240,0.0,0.0
2666,63.0,120,60,2.0,0.0
2667,55.0,60,240,3.0,0.0
2668,63.0,0,60,2.0,0.0
2669,58.0,60,60,2.0,0.0
2670,85.0,60,180,0.0,0.0
2671,63.0,0,60,2.0,0.0
2672,56.0,60,240,3.0,0.0
2673,63.0,0,60,2.0,0.0
2674,84.0,60,60,0.0,0.0
2675,82.0,0,60,0.0,0.0
2676,60.0,60,60,2.0,0.0
2677,80.0,0,60,0.0,0.0
2678,63.0,0,60,2.0,0.0
2679,79.0,60,60,0.0,0.0
2680,44.0,0,240,3.0,0.0
2681,80.0,60,60,0.0,0.0
2682,74.0,60,60,0.0,0.0
2683,75.0,60,60,0.0,0.0
2684,71.0,60,60,0.0,0.0
2685,72.0,60,60,0.0,0.0
2686,73.0,60,60,0.0,0.0
2687,74.0,120,60,0.0,0.0
2688,75.0,120,240,0.0,0.0
2689,48.0,10,240,3.0,0.0
2690,63.0,60,60,1.0,0.0
2691,68.0,50,60,1.0,0.0
2692,60.0,0,120,3.0,0.0
2693,63.0,0,60,1.0,0.0
2694,74.0,0,240,0.0,0.0
2695,47.0,10,240,3.0,0.0
2696,65.0,60,60,1.0,0.0
2697,68.0,50,60,1.0,0.0
2698,59.0,0,120,3.0,0.0
2699,65.0,120,60,1.0,0.0
2700,46.0,10,240,3.0,0.0
2701,76.0,0,240,0.0,0.0
2702,67.0,60,60,1.0,0.0
2703,58.0,0,120,3.0,0.0
2704,73.0,50,60,1.0,0.0
2705,67.0,120,60,1.0,0.0
2706,44.0,10,240,3.0,0.0
2707,77.0,0,240,0.0,0.0
2708,68.0,60,60,1.0,0.0
2709,72.0,50,60,1.0,0.0
2710,56.0,0,120,3.0,0.0
2711,68.0,120,60,1.0,0.0
2712,43.0,10,240,3.0,0.0
2713,79.0,120,240,0.0,0.0
2714,70.0,60,60,1.0,0.0
2715,55.0,0,120,3.0,0.0
2716,76.0,50,60,1.0,0.0
2717,70.0,0,60,1.0,0.0
2718,41.0,10,240,3.0,0.0
2719,80.0,0,240,0.0,0.0
2720,72.0,60,60,1.0,0.0
2721,53.0,0,120,3.0,0.0
2722,77.0,50,60,1.0,0.0
2723,72.0,60,60,1.0,0.0
2724,46.0,10,240,3.0,0.0
2725,67.0,60,60,1.0,0.0
2726,75.0,60,480,0.0,0.0
2727,66.0,60,60,1.0,0.0
2728,67.0,50,60,1.0,0.0
2729,58.0,0,120,3.0,0.0
2730,66.0,60,60,1.0,0.0
2731,67.0,60,60,1.0,0.0
2732,46.0,10,240,3.0,0.0
2733,70.0,60,60,1.0,0.0
2734,68.0,50,60,1.0,0.0
2735,58.0,0,120,3.0,0.0
2736,67.0,0,60,1.0,0.0
2737,47.0,10,240,3.0,0.0
2738,74.0,60,240,0.0,0.0
2739,65.0,60,60,1.0,0.0
2740,68.0,60,60,1.0,0.0
2741,67.0,50,60,1.0,0.0
2742,59.0,0,120,3.0,0.0
2743,65.0,0,60,1.0,0.0
2744,63.0,60,60,1.0,0.0
2745,75.0,0,480,0.0,0.0
2746,48.0,10,240,3.0,0.0
2747,65.0,60,60,1.0,0.0
2748,67.0,50,60,1.0,0.0
2749,60.0,0,120,3.0,0.0
2750,68.0,60,60,1.0,0.0
2751,44.0,10,240,3.0,0.0
2752,70.0,60,60,1.0,0.0
2753,71.0,60,60,1.0,0.0
2754,56.0,60,120,3.0,0.0
2755,72.0,50,60,1.0,0.0
2756,71.0,0,60,1.0,0.0
2757,72.0,60,60,1.0,0.0
2758,77.0,0,240,0.0,0.0
2759,45.0,10,240,3.0,0.0
2760,71.0,60,60,1.0,0.0
2761,74.0,50,60,1.0,0.0
2762,57.0,0,120,3.0,0.0
2763,72.0,60,60,1.0,0.0
2764,46.0,10,240,3.0,0.0
2765,75.0,0,480,0.0,0.0
2766,67.0,60,60,1.0,0.0
2767,66.0,60,60,1.0,0.0
2768,67.0,50,60,1.0,0.0
2769,58.0,0,120,3.0,0.0
2770,66.0,60,60,1.0,0.0
2771,46.0,10,240,3.0,0.0
2772,67.0,60,60,1.0,0.0
2773,70.0,60,60,1.0,0.0
2774,68.0,50,60,1.0,0.0
2775,58.0,60,120,3.0,0.0
2776,67.0,0,60,1.0,0.0
2777,74.0,110,240,0.0,0.0
2778,34.0,10,240,3.0,0.0
2779,65.0,60,60,1.0,0.0
2780,68.0,60,60,1.0,0.0
2781,46.0,10,240,3.0,0.0
2782,67.0,50,60,1.0,0.0
2783,65.0,0,60,1.0,0.0
2784,75.0,120,240,0.0,0.0
2785,39.0,10,240,3.0,0.0
2786,63.0,60,60,1.0,0.0
2787,51.0,0,120,3.0,0.0
2788,67.0,50,60,1.0,0.0
2789,63.0,0,60,1.0,0.0
2790,74.0,0,240,0.0,0.0
2791,41.0,10,240,3.0,0.0
2792,63.0,60,60,1.0,0.0
2793,68.0,50,60,1.0,0.0
2794,53.0,0,120,3.0,0.0
2795,63.0,120,60,1.0,0.0
2796,43.0,10,240,3.0,0.0
2797,73.0,60,240,0.0,0.0
2798,63.0,60,60,1.0,0.0
2799,70.0,50,60,1.0,0.0
2800,55.0,0,120,3.0,0.0
2801,63.0,0,60,1.0,0.0
2802,72.0,60,60,1.0,0.0
2803,44.0,20,210,3.0,0.0
2804,63.0,0,120,0.0,0.0
2805,51.0,0,60,2.0,0.0
2806,75.0,60,60,1.0,0.0
2807,68.0,0,60,0.0,0.0
2808,56.0,40,60,2.0,0.0
2809,77.0,0,60,1.0,0.0
2810,51.0,60,60,2.0,0.0
2811,75.0,0,60,1.0,0.0
2812,48.0,20,210,3.0,0.0
2813,77.0,60,60,1.0,0.0
2814,68.0,0,60,0.0,0.0
2815,51.0,60,60,2.0,0.0
2816,75.0,0,60,1.0,0.0
2817,56.0,0,60,2.0,0.0
2818,77.0,0,60,1.0,0.0
2819,68.0,40,60,0.0,0.0
2820,75.0,60,60,1.0,0.0
2821,51.0,0,60,2.0,0.0
2822,48.0,20,210,3.0,0.0
2823,68.0,0,60,0.0,0.0
2824,77.0,60,60,1.0,0.0
2825,51.0,0,60,2.0,0.0
2826,75.0,60,60,1.0,0.0
2827,68.0,40,60,0.0,0.0
2828,56.0,0,60,2.0,0.0
2829,77.0,0,60,1.0,0.0
2830,75.0,0,60,1.0,0.0
2831,51.0,60,60,2.0,0.0
2832,46.0,20,210,3.0,0.0
2833,77.0,60,60,1.0,0.0
2834,68.0,0,120,0.0,0.0
2835,75.0,0,60,1.0,0.0
2836,51.0,60,60,2.0,0.0
2837,55.0,40,60,2.0,0.0
2838,77.0,0,60,1.0,0.0
2839,67.0,0,60,0.0,0.0
2840,75.0,60,60,1.0,0.0
2841,51.0,0,60,2.0,0.0
2842,67.0,0,120,0.0,0.0
2843,77.0,60,60,1.0,0.0
2844,49.0,20,210,3.0,0.0
2845,51.0,60,60,2.0,0.0
2846,75.0,0,60,1.0,0.0
2847,65.0,0,60,0.0,0.0
2848,77.0,40,60,1.0,0.0
2849,58.0,0,60,2.0,0.0
2850,51.0,60,60,2.0,0.0
2851,75.0,0,60,1.0,0.0
2852,77.0,60,60,1.0,0.0
2853,67.0,0,120,0.0,0.0
2854,49.0,20,210,3.0,0.0
2855,75.0,60,60,1.0,0.0
2856,51.0,0,60,2.0,0.0
2857,63.0,0,60,0.0,0.0
2858,58.0,0,60,2.0,0.0
2859,77.0,40,60,1.0,0.0
2860,75.0,60,60,1.0,0.0
2861,51.0,0,60,2.0,0.0
2862,48.0,20,210,3.0,0.0
2863,77.0,60,60,1.0,0.0
2864,75.0,60,60,1.0,0.0
2865,51.0,0,60,2.0,0.0
2866,77.0,40,60,1.0,0.0
2867,56.0,0,60,2.0,0.0
2868,51.0,0,60,2.0,0.0
2869,75.0,0,60,1.0,0.0
2870,77.0,60,60,1.0,0.0
2871,48.0,20,210,3.0,0.0
2872,68.0,60,15,0.0,0.0
2873,75.0,0,60,1.0,0.0
2874,51.0,60,60,2.0,0.0
2875,56.0,0,60,2.0,0.0
2876,77.0,40,60,1.0,0.0
2877,51.0,60,60,2.0,0.0
2878,75.0,0,60,1.0,0.0
2879,77.0,60,60,1.0,0.0
2880,70.0,0,240,0.0,0.0
2881,43.0,20,210,3.0,0.0
2882,51.0,60,60,2.0,0.0
2883,75.0,0,60,1.0,0.0
2884,77.0,40,60,1.0,0.0
2885,55.0,0,60,2.0,0.0
2886,51.0,60,60,2.0,0.0
2887,75.0,0,60,1.0,0.0
2888,77.0,60,60,1.0,0.0
2889,68.0,0,240,1.0,0.0
2890,72.0,0,240,1.0,0.0
2891,72.0,60,240,0.0,0.0
2892,44.0,20,210,3.0,0.0
2893,51.0,60,60,2.0,0.0
2894,75.0,0,60,1.0,0.0
2895,56.0,0,60,2.0,0.0
2896,77.0,40,60,1.0,0.0
2897,51.0,0,60,2.0,0.0
2898,75.0,0,60,1.0,0.0
2899,39.0,0,210,3.0,0.0
2900,67.0,0,240,1.0,0.0
2901,77.0,60,60,1.0,0.0
2902,75.0,0,60,1.0,0.0
2903,51.0,60,60,2.0,0.0
2904,55.0,40,60,2.0,0.0
2905,77.0,0,60,1.0,0.0
2906,75.0,20,60,1.0,0.0
2907,51.0,0,60,2.0,0.0
2908,72.0,60,30,0.0,0.0
2909,42.0,20,210,3.0,0.0
2910,70.0,0,15,0.0,0.0
2911,51.0,0,60,2.0,0.0
2912,69.0,60,60,0.0,0.0
2913,54.0,40,60,2.0,0.0
2914,70.0,0,60,0.0,0.0
2915,72.0,120,60,0.0,0.0
2916,51.0,0,60,2.0,0.0
2917,41.0,20,210,3.0,0.0
2918,53.0,0,60,2.0,0.0
2919,80.0,60,60,1.0,0.0
2920,82.0,40,60,1.0,0.0
2921,56.0,0,60,2.0,0.0
2922,80.0,60,60,1.0,0.0
2923,61.0,0,60,2.0,0.0
2924,53.0,20,210,3.0,0.0
2925,73.0,0,15,0.0,0.0
2926,82.0,60,60,1.0,0.0
2927,56.0,0,60,2.0,0.0
2928,80.0,60,60,1.0,0.0
2929,61.0,0,60,2.0,0.0
2930,82.0,40,60,1.0,0.0
2931,80.0,0,60,1.0,0.0
2932,56.0,0,60,2.0,0.0
2933,82.0,60,60,1.0,0.0
2934,51.0,20,210,3.0,0.0
2935,72.0,0,240,0.0,0.0
2936,80.0,0,60,1.0,0.0
2937,56.0,60,60,2.0,0.0
2938,60.0,40,60,2.0,0.0
2939,82.0,0,60,1.0,0.0
2940,56.0,60,60,2.0,0.0
2941,80.0,0,60,1.0,0.0
2942,50.0,12,240,3.0,0.0
2943,77.0,0,240,0.0,0.0
2944,82.0,60,60,1.0,0.0
2945,53.0,0,60,2.0,0.0
2946,80.0,60,60,1.0,0.0
2947,58.0,0,60,2.0,0.0
2948,82.0,48,60,1.0,0.0
2949,53.0,0,60,2.0,0.0
2950,70.0,0,240,0.0,0.0
2951,80.0,60,15,1.0,0.0
2952,49.0,12,240,3.0,0.0
2953,51.0,60,60,2.0,0.0
2954,79.0,0,60,1.0,0.0
2955,58.0,0,60,2.0,0.0
2956,80.0,48,60,1.0,0.0
2957,51.0,60,60,2.0,0.0
2958,79.0,0,60,1.0,0.0
2959,75.0,0,240,0.0,0.0
2960,82.0,60,60,1.0,0.0
2961,48.0,12,240,3.0,0.0
2962,51.0,60,60,2.0,0.0
2963,80.0,0,60,1.0,0.0
2964,82.0,48,60,1.0,0.0
2965,56.0,0,60,2.0,0.0
2966,51.0,60,60,2.0,0.0
2967,80.0,0,60,1.0,0.0
2968,68.0,0,240,0.0,0.0
2969,39.0,4,240,3.0,0.0
2970,77.0,60,60,1.0,0.0
2971,48.0,60,60,2.0,0.0
2972,75.0,0,60,1.0,0.0
2973,77.0,0,60,1.0,0.0
2974,51.0,56,60,2.0,0.0
2975,75.0,0,60,1.0,0.0
2976,56.0,60,60,2.0,0.0
2977,68.0,0,240,1.0,0.0
2978,77.0,60,60,1.0,0.0
2979,72.0,0,240,0.0,0.0
2980,39.0,4,240,3.0,0.0
2981,48.0,0,60,2.0,0.0
2982,75.0,60,60,1.0,0.0
2983,51.0,56,60,2.0,0.0
2984,77.0,0,60,1.0,0.0
2985,56.0,0,60,2.0,0.0
2986,75.0,60,60,1.0,0.0
2987,39.0,4,240,3.0,0.0
2988,77.0,60,60,1.0,0.0
2989,67.0,0,240,1.0,0.0
2990,70.0,0,240,0.0,0.0
2991,75.0,0,60,1.0,0.0
2992,49.0,60,60,2.0,0.0
2993,77.0,0,60,1.0,0.0
2994,51.0,56,60,2.0,0.0
2995,75.0,0,60,1.0,0.0
2996,55.0,216,60,2.0,0.0
2997,44.0,0,240,3.0,0.0
2998,51.0,0,240,2.0,0.0
2999,68.0,96,240,0.0,0.0
3000,56.0,0,240,2.0,0.0
3001,48.0,0,240,2.0,0.0
3002,63.0,24,90,1.0,0.0
3003,63.0,120,90,1.0,0.0
3004,63.0,120,90,1.0,0.0
3005,63.0,120,90,1.0,0.0
3006,63.0,120,90,1.0,0.0
3007,63.0,120,90,1.0,0.0
3008,60.0,0,90,1.0,0.0
3009,72.0,96,480,0.0,0.0
3010,60.0,0,90,1.0,0.0
3011,63.0,120,90,1.0,0.0
3012,51.0,0,120,3.0,0.0
3013,39.0,96,120,3.0,0.0
3014,60.0,0,90,1.0,0.0
3015,63.0,24,90,1.0,0.0
3016,60.0,24,90,1.0,0.0
3017,63.0,0,90,1.0,0.0
3018,70.0,0,120,0.0,0.0
3019,44.0,0,120,3.0,0.0
3020,60.0,24,90,1.0,0.0
3021,63.0,0,90,1.0,0.0
3022,56.0,96,120,3.0,0.0
3023,63.0,0,90,1.0,0.0
3024,60.0,24,90,1.0,0.0
3025,61.0,120,90,1.0,0.0
3026,63.0,0,90,1.0,0.0
3027,68.0,96,15,0.0,0.0
3028,61.0,24,90,1.0,0.0
3029,63.0,0,90,1.0,0.0
3030,67.0,96,240,0.0,0.0
3031,63.0,0,90,1.0,0.0
3032,39.0,96,120,3.0,0.0
3033,51.0,0,120,3.0,0.0
3034,61.0,24,90,1.0,0.0
3035,61.0,0,90,1.0,0.0
3036,63.0,24,90,1.0,0.0
3037,63.0,24,90,1.0,0.0
3038,67.0,36,180,0.0,0.0
3039,61.0,0,90,1.0,0.0
3040,58.0,0,120,3.0,0.0
3041,46.0,60,120,3.0,0.0
3042,63.0,24,90,1.0,0.0
3043,61.0,0,90,1.0,0.0
3044,68.0,96,60,0.0,0.0
3045,63.0,120,90,1.0,0.0
3046,61.0,0,90,1.0,0.0
3047,61.0,24,90,1.0,0.0
3048,63.0,0,90,1.0,0.0
3049,39.0,0,120,3.0,0.0
3050,51.0,96,120,3.0,0.0
3051,70.0,96,15,0.0,0.0
3052,61.0,24,90,1.0,0.0
3053,63.0,0,90,1.0,0.0
3054,61.0,24,90,1.0,0.0
3055,63.0,0,90,1.0,0.0
3056,63.0,0,90,1.0,0.0
3057,55.0,60,120,3.0,0.0
3058,61.0,24,90,1.0,0.0
3059,43.0,0,120,3.0,0.0
3060,70.0,36,180,0.0,0.0
3061,63.0,0,90,1.0,0.0
3062,61.0,24,90,1.0,0.0
3063,72.0,96,60,0.0,0.0
3064,63.0,120,90,1.0,0.0
3065,68.0,96,240,0.0,0.0
3066,60.0,0,90,1.0,0.0
3067,63.0,0,90,1.0,0.0
3068,60.0,24,90,1.0,0.0
3069,51.0,0,120,3.0,0.0
3070,39.0,96,120,3.0,0.0
3071,60.0,24,90,1.0,0.0
3072,63.0,0,90,1.0,0.0
3073,60.0,120,90,1.0,0.0
3074,63.0,0,90,1.0,0.0
3075,44.0,96,120,3.0,0.0
3076,56.0,0,120,3.0,0.0
3077,63.0,0,90,1.0,0.0
3078,60.0,24,90,1.0,0.0
3079,63.0,0,90,1.0,0.0
3080,60.0,120,90,1.0,0.0
3081,60.0,120,90,1.0,0.0
3082,63.0,0,90,1.0,0.0
3083,72.0,0,90,0.0,0.0
3084,60.0,0,90,1.0,0.0
3085,71.0,0,90,0.0,0.0
3086,63.0,120,90,1.0,0.0
3087,73.0,0,90,0.0,0.0
3088,39.0,96,120,3.0,0.0
3089,51.0,0,120,3.0,0.0
3090,60.0,24,90,1.0,0.0
3091,63.0,0,90,1.0,0.0
3092,63.0,120,90,1.0,0.0
3093,72.0,0,90,0.0,0.0
3094,60.0,0,90,1.0,0.0
3095,63.0,0,90,1.0,0.0
3096,60.0,0,90,1.0,0.0
3097,70.0,24,90,0.0,0.0
3098,56.0,0,120,3.0,0.0
3099,44.0,96,120,3.0,0.0
3100,68.0,120,90,0.0,0.0
3101,63.0,0,90,1.0,0.0
3102,60.0,0,90,1.0,0.0
3103,63.0,0,90,1.0,0.0
3104,68.0,120,90,0.0,0.0
3105,61.0,0,90,1.0,0.0
3106,61.0,120,90,1.0,0.0
3107,67.0,0,90,0.0,0.0
3108,63.0,0,90,1.0,0.0
3109,67.0,24,90,0.0,0.0
3110,61.0,0,90,1.0,0.0
3111,63.0,0,90,1.0,0.0
3112,39.0,0,120,3.0,0.0
3113,51.0,96,120,3.0,0.0
3114,61.0,0,90,1.0,0.0
3115,63.0,0,90,1.0,0.0
3116,66.0,120,90,0.0,0.0
3117,63.0,0,90,1.0,0.0
3118,61.0,0,90,1.0,0.0
3119,58.0,96,120,3.0,0.0
3120,67.0,24,90,0.0,0.0
3121,46.0,0,120,3.0,0.0
3122,61.0,0,90,1.0,0.0
3123,63.0,120,90,1.0,0.0
3124,68.0,0,90,0.0,0.0
3125,63.0,0,90,1.0,0.0
3126,70.0,120,90,0.0,0.0
3127,61.0,0,90,1.0,0.0
3128,61.0,120,90,1.0,0.0
3129,63.0,0,90,1.0,0.0
3130,69.0,0,90,0.0,0.0
3131,39.0,96,120,3.0,0.0
3132,51.0,0,120,3.0,0.0
3133,70.0,0,90,0.0,0.0
3134,63.0,24,90,1.0,0.0
3135,61.0,0,90,1.0,0.0
3136,69.0,120,90,0.0,0.0
3137,63.0,0,90,1.0,0.0
3138,61.0,0,90,1.0,0.0
3139,55.0,96,120,3.0,0.0
3140,43.0,0,120,3.0,0.0
3141,61.0,0,90,1.0,0.0
3142,63.0,24,90,1.0,0.0
3143,70.0,0,90,0.0,0.0
3144,61.0,0,90,1.0,0.0
3145,63.0,0,90,1.0,0.0
3146,72.0,120,90,0.0,0.0
3147,68.0,96,240,0.0,0.0
3148,60.0,120,90,1.0,0.0
3149,63.0,0,90,1.0,0.0
3150,60.0,0,90,1.0,0.0
3151,63.0,24,90,1.0,0.0
3152,51.0,96,240,3.0,0.0
3153,60.0,120,90,1.0,0.0
3154,63.0,0,90,1.0,0.0
3155,60.0,0,90,1.0,0.0
3156,63.0,24,90,1.0,0.0
3157,63.0,120,90,1.0,0.0
3158,60.0,0,90,1.0,0.0
3159,56.0,96,240,3.0,0.0
3160,60.0,0,90,1.0,0.0
3161,69.0,0,120,0.0,0.0
3162,63.0,24,90,1.0,0.0
3163,70.0,96,240,0.0,0.0
3164,61.0,120,90,1.0,0.0
3165,63.0,0,90,1.0,0.0
3166,63.0,0,90,1.0,0.0
3167,61.0,24,90,1.0,0.0
3168,39.0,96,240,3.0,0.0
3169,61.0,120,90,1.0,0.0
3170,63.0,0,90,1.0,0.0
3171,61.0,0,90,1.0,0.0
3172,63.0,24,90,1.0,0.0
3173,63.0,120,90,1.0,0.0
3174,61.0,0,90,1.0,0.0
3175,43.0,0,240,3.0,0.0
3176,63.0,0,90,1.0,0.0
3177,61.0,24,90,1.0,0.0
3178,72.0,96,120,0.0,0.0
3179,60.0,120,90,1.0,0.0
3180,68.0,96,240,0.0,0.0
3181,63.0,0,90,1.0,0.0
3182,60.0,24,90,1.0,0.0
3183,63.0,0,90,1.0,0.0
3184,63.0,120,90,1.0,0.0
3185,60.0,0,90,1.0,0.0
3186,51.0,96,240,3.0,0.0
3187,60.0,0,90,1.0,0.0
3188,63.0,24,90,1.0,0.0
3189,60.0,120,90,1.0,0.0
3190,63.0,0,90,1.0,0.0
3191,56.0,0,240,3.0,0.0
3192,63.0,0,90,1.0,0.0
3193,69.0,96,120,0.0,0.0
3194,60.0,24,90,1.0,0.0
3195,61.0,120,90,1.0,0.0
3196,63.0,0,90,1.0,0.0
3197,70.0,96,240,0.0,0.0
3198,63.0,0,90,1.0,0.0
3199,61.0,24,90,1.0,0.0
3200,39.0,96,240,3.0,0.0
3201,61.0,120,90,1.0,0.0
3202,63.0,0,90,1.0,0.0
3203,63.0,24,90,1.0,0.0
3204,61.0,0,90,1.0,0.0
3205,43.0,0,240,3.0,0.0
3206,61.0,120,90,1.0,0.0
3207,63.0,0,90,1.0,0.0
3208,63.0,24,90,1.0,0.0
3209,61.0,0,90,1.0,0.0
3210,72.0,96,120,0.0,0.0
3211,63.0,0,90,1.0,0.0
3212,60.0,120,90,1.0,0.0
3213,63.0,120,90,1.0,0.0
3214,60.0,0,90,1.0,0.0
3215,44.0,0,720,3.0,0.0
3216,63.0,120,90,1.0,0.0
3217,60.0,0,90,1.0,0.0
3218,63.0,120,90,1.0,0.0
3219,60.0,0,90,1.0,0.0
3220,39.0,96,240,3.0,0.0
3221,60.0,120,90,1.0,0.0
3222,63.0,0,90,1.0,0.0
3223,63.0,24,90,1.0,0.0
3224,60.0,0,90,1.0,0.0
3225,63.0,0,90,1.0,0.0
3226,36.0,96,240,3.0,0.0
3227,60.0,120,90,1.0,0.0
3228,63.0,0,90,1.0,0.0
3229,60.0,24,90,1.0,0.0
3230,68.0,0,15,0.0,0.0
3231,39.0,96,240,3.0,0.0
3232,60.0,120,90,1.0,0.0
3233,63.0,0,90,1.0,0.0
3234,60.0,0,90,1.0,0.0
3235,63.0,24,90,1.0,0.0
3236,44.0,0,15,3.0,0.0
3237,63.0,120,90,1.0,0.0
3238,60.0,0,90,1.0,0.0
3239,36.0,0,240,3.0,0.0
3240,68.0,0,240,0.0,0.0
3241,63.0,24,90,1.0,0.0
3242,60.0,0,90,1.0,0.0
3243,44.0,1200,15,3.0,0.0
3244,32.0,0,1200,3.0,0.0
3245,60.0,0,1200,1.0,0.0
3246,63.0,0,1200,1.0,0.0
3247,68.0,0,1200,0.0,0.0
3248,68.0,120,120,0.0,0.0
3249,70.0,480,120,0.0,0.0
3250,68.0,95,1200,1.0,0.0
3251,65.0,95,720,3.0,0.0
3252,72.0,240,480,0.0,0.0
3253,74.0,0,240,0.0,0.0
3254,63.0,385,90,3.0,0.0
3255,75.0,95,960,0.0,0.0
3256,55.0,25,90,3.0,0.0
3257,70.0,215,120,1.0,0.0
3258,56.0,25,90,3.0,0.0
3259,72.0,120,120,1.0,0.0
3260,68.0,215,120,1.0,0.0
3261,77.0,0,120,0.0,0.0
3262,53.0,25,90,3.0,0.0
3263,68.0,215,120,1.0,0.0
3264,58.0,25,90,3.0,0.0
3265,74.0,0,120,0.0,0.0
3266,51.0,25,90,3.0,0.0
3267,67.0,480,120,1.0,0.0
3268,75.0,0,120,0.0,0.0
3269,73.0,120,120,0.0,0.0
3270,75.0,480,120,0.0,0.0
3271,77.0,240,480,0.0,0.0
3272,70.0,0,720,3.0,0.0
3273,73.0,0,720,1.0,0.0
3274,79.0,95,240,0.0,0.0
3275,68.0,385,90,3.0,0.0
3276,80.0,215,840,0.0,0.0
3277,72.0,95,480,1.0,0.0
3278,60.0,0,90,3.0,0.0
3279,75.0,240,90,1.0,0.0
3280,61.0,25,90,3.0,0.0
3281,77.0,0,90,1.0,0.0
3282,82.0,0,90,0.0,0.0
3283,73.0,240,90,1.0,0.0
3284,58.0,0,90,3.0,0.0
3285,63.0,0,90,3.0,0.0
3286,79.0,240,90,0.0,0.0
3287,73.0,0,90,1.0,0.0
3288,56.0,505,90,3.0,0.0
3289,80.0,0,90,0.0,0.0
3290,68.0,120,120,0.0,0.0
3291,70.0,120,120,0.0,0.0
3292,72.0,215,120,0.0,0.0
3293,68.0,95,720,1.0,0.0
3294,65.0,0,720,3.0,0.0
3295,73.0,240,90,0.0,0.0
3296,75.0,145,90,0.0,0.0
3297,63.0,0,90,3.0,0.0
3298,67.0,240,90,1.0,0.0
3299,75.0,215,840,0.0,0.0
3300,65.0,240,90,3.0,0.0
3301,68.0,0,90,1.0,0.0
3302,67.0,240,90,3.0,0.0
3303,70.0,0,90,1.0,0.0
3304,72.0,0,120,1.0,0.0
3305,56.0,25,90,3.0,0.0
3306,53.0,0,90,3.0,0.0
3307,77.0,240,90,0.0,0.0
3308,68.0,0,90,1.0,0.0
3309,68.0,0,90,1.0,0.0
3310,58.0,0,90,3.0,0.0
3311,74.0,240,90,0.0,0.0
3312,67.0,505,90,1.0,0.0
3313,51.0,0,90,3.0,0.0
3314,75.0,0,90,0.0,0.0
3315,73.0,120,120,0.0,0.0
3316,75.0,95,120,0.0,0.0
3317,70.0,95,720,3.0,0.0
3318,73.0,0,720,1.0,0.0
3319,77.0,240,90,0.0,0.0
3320,78.0,240,90,0.0,0.0
3321,79.0,145,90,0.0,0.0
3322,72.0,215,120,1.0,0.0
3323,68.0,25,90,3.0,0.0
3324,80.0,215,840,0.0,0.0
3325,73.0,0,90,1.0,0.0
3326,70.0,240,90,3.0,0.0
3327,75.0,0,90,1.0,0.0
3328,72.0,240,90,3.0,0.0
3329,61.0,0,90,3.0,0.0
3330,77.0,25,90,1.0,0.0
3331,82.0,0,90,0.0,0.0
3332,58.0,0,90,3.0,0.0
3333,73.0,240,90,1.0,0.0
3334,79.0,240,90,0.0,0.0
3335,63.0,0,90,3.0,0.0
3336,73.0,0,90,1.0,0.0
3337,56.0,0,90,3.0,0.0
3338,80.0,505,90,0.0,0.0
3339,72.0,0,90,1.0,0.0
3340,56.0,0,120,1.0,0.0
3341,60.0,120,120,0.0,0.0
3342,58.0,0,120,1.0,0.0
3343,61.0,95,120,0.0,0.0
3344,32.0,240,90,3.0,0.0
3345,63.0,0,480,0.0,0.0
3346,60.0,240,480,1.0,0.0
3347,44.0,145,90,2.0,0.0
3348,65.0,95,240,0.0,0.0
3349,61.0,0,240,1.0,0.0
3350,67.0,240,90,0.0,0.0
3351,63.0,0,90,1.0,0.0
3352,32.0,0,90,3.0,0.0
3353,44.0,240,90,2.0,0.0
3354,67.0,240,90,0.0,0.0
3355,63.0,0,90,1.0,0.0
3356,66.0,0,90,1.0,0.0
3357,72.0,240,90,0.0,0.0
3358,32.0,0,90,3.0,0.0
3359,72.0,0,90,1.0,0.0
3360,75.0,0,90,0.0,0.0
3361,44.0,240,90,2.0,0.0
3362,78.0,95,480,0.0,0.0
3363,75.0,0,480,1.0,0.0
3364,32.0,385,90,3.0,0.0
3365,32.0,0,240,3.0,0.0
3366,74.0,0,90,1.0,0.0
3367,77.0,265,90,0.0,0.0
3368,34.0,0,90,3.0,0.0
3369,58.0,0,120,1.0,0.0
3370,62.0,120,120,0.0,0.0
3371,63.0,0,120,0.0,0.0
3372,60.0,95,120,1.0,0.0
3373,65.0,0,480,0.0,0.0
3374,62.0,240,480,1.0,0.0
3375,34.0,240,90,3.0,0.0
3376,46.0,145,90,2.0,0.0
3377,67.0,0,240,0.0,0.0
3378,64.0,95,240,1.0,0.0
3379,68.0,0,90,0.0,0.0
3380,34.0,240,90,3.0,0.0
3381,65.0,0,90,1.0,0.0
3382,46.0,240,90,2.0,0.0
3383,68.0,0,90,0.0,0.0
3384,65.0,240,90,1.0,0.0
3385,74.0,0,90,0.0,0.0
3386,34.0,0,90,3.0,0.0
3387,68.0,240,90,1.0,0.0
3388,77.0,0,90,0.0,0.0
3389,74.0,240,90,1.0,0.0
3390,46.0,0,90,2.0,0.0
3391,77.0,0,480,1.0,0.0
3392,34.0,385,90,3.0,0.0
3393,80.0,0,480,0.0,0.0
3394,35.0,75,240,3.0,0.0
3395,79.0,265,90,0.0,0.0
3396,76.0,0,90,1.0,0.0
3397,36.0,20,60,3.0,0.0
3398,60.0,120,120,1.0,0.0
3399,64.0,0,120,0.0,0.0
3400,65.0,95,120,0.0,0.0
3401,62.0,0,120,1.0,0.0
3402,67.0,0,480,0.0,0.0
3403,36.0,240,90,3.0,0.0
3404,64.0,240,480,1.0,0.0
3405,48.0,145,90,2.0,0.0
3406,68.0,95,240,0.0,0.0
3407,65.0,0,240,1.0,0.0
3408,70.0,0,90,0.0,0.0
3409,67.0,0,90,1.0,0.0
3410,36.0,240,90,3.0,0.0
3411,48.0,265,90,2.0,0.0
3412,64.0,0,120,0.0,0.0
3413,60.0,120,120,1.0,0.0
3414,65.0,95,120,0.0,0.0
3415,62.0,0,120,1.0,0.0
3416,67.0,215,120,0.0,0.0
3417,64.0,0,120,1.0,0.0
3418,36.0,25,90,3.0,0.0
3419,60.0,120,120,1.0,0.0
3420,48.0,25,90,2.0,0.0
3421,64.0,0,120,0.0,0.0
3422,65.0,0,120,0.0,0.0
3423,62.0,120,120,1.0,0.0
3424,67.0,0,120,0.0,0.0
3425,64.0,120,120,1.0,0.0
3426,68.0,0,120,0.0,0.0
3427,65.0,95,120,1.0,0.0
3428,70.0,0,120,0.0,0.0
3429,67.0,215,120,1.0,0.0
3430,36.0,25,90,3.0,0.0
3431,67.0,120,120,0.0,0.0
3432,64.0,0,120,1.0,0.0
3433,48.0,25,90,2.0,0.0
3434,65.0,120,120,1.0,0.0
3435,68.0,0,120,0.0,0.0
3436,70.0,0,120,0.0,0.0
3437,67.0,120,120,1.0,0.0
3438,72.0,95,120,0.0,0.0
3439,68.0,0,120,1.0,0.0
3440,70.0,0,90,1.0,0.0
3441,48.0,240,90,3.0,0.0
3442,73.0,0,90,0.0,0.0
3443,60.0,240,90,2.0,0.0
3444,67.0,0,90,1.0,0.0
3445,70.0,240,90,0.0,0.0
3446,48.0,0,90,3.0,0.0
3447,67.0,240,90,0.0,0.0
3448,64.0,0,90,1.0,0.0
3449,60.0,240,90,2.0,0.0
3450,67.0,240,90,1.0,0.0
3451,70.0,0,90,0.0,0.0
3452,73.0,0,90,0.0,0.0
3453,48.0,240,90,3.0,0.0
3454,70.0,0,90,1.0,0.0
3455,60.0,240,90,2.0,0.0
3456,70.0,0,90,0.0,0.0
3457,67.0,240,90,1.0,0.0
3458,67.0,0,90,0.0,0.0
3459,48.0,0,90,3.0,0.0
3460,64.0,240,90,1.0,0.0
3461,60.0,240,90,2.0,0.0
3462,67.0,0,90,1.0,0.0
3463,70.0,240,90,0.0,0.0
3464,73.0,95,480,0.0,0.0
3465,52.0,240,90,3.0,0.0
3466,70.0,0,480,1.0,0.0
3467,64.0,145,90,2.0,0.0
3468,67.0,0,15,1.0,0.0
3469,72.0,0,90,0.0,0.0
3470,70.0,0,90,1.0,0.0
3471,67.0,0,480,1.0,0.0
3472,52.0,240,90,3.0,0.0
3473,70.0,0,480,1.0,0.0
3474,73.0,95,480,0.0,0.0
3475,64.0,145,90,2.0,0.0
3476,70.0,240,90,1.0,0.0
3477,67.0,0,90,1.0,0.0
3478,72.0,0,90,0.0,0.0
3479,73.0,0,480,0.0,0.0
3480,52.0,240,90,3.0,0.0
3481,64.0,145,90,2.0,0.0
3482,72.0,0,90,0.0,0.0
3483,67.0,95,15,1.0,0.0
3484,70.0,0,15,1.0,0.0
3485,73.0,0,480,0.0,0.0
3486,67.0,95,480,1.0,0.0
3487,52.0,240,90,3.0,0.0
3488,64.0,145,90,2.0,0.0
3489,70.0,0,15,1.0,0.0
3490,67.0,385,90,1.0,0.0
3491,72.0,0,90,0.0,0.0
3492,73.0,95,480,0.0,0.0
3493,55.0,95,240,3.0,0.0
3494,67.0,145,90,2.0,0.0
3495,64.0,0,15,1.0,0.0
3496,70.0,0,15,1.0,0.0
3497,72.0,0,90,0.0,0.0
3498,70.0,0,480,1.0,0.0
3499,55.0,95,240,3.0,0.0
3500,73.0,0,480,0.0,0.0
3501,67.0,145,90,2.0,0.0
3502,64.0,95,15,1.0,0.0
3503,72.0,0,90,0.0,0.0
3504,70.0,0,90,1.0,0.0
3505,55.0,95,240,3.0,0.0
3506,73.0,0,480,0.0,0.0
3507,67.0,145,90,2.0,0.0
3508,64.0,0,15,1.0,0.0
3509,72.0,0,90,0.0,0.0
3510,70.0,95,15,1.0,0.0
3511,55.0,95,240,3.0,0.0
3512,73.0,0,480,0.0,0.0
3513,67.0,145,90,2.0,0.0
3514,70.0,95,15,1.0,0.0
3515,64.0,0,15,1.0,0.0
3516,72.0,0,90,0.0,0.0
3517,70.0,0,90,1.0,0.0
3518,64.0,0,90,1.0,0.0
3519,73.0,385,90,0.0,0.0
3520,55.0,95,240,3.0,0.0
3521,67.0,240,90,2.0,0.0
3522,72.0,0,90,0.0,0.0
3523,64.0,385,90,1.0,0.0
3524,70.0,0,90,1.0,0.0
3525,55.0,95,240,3.0,0.0
3526,67.0,240,90,2.0,0.0
3527,64.0,0,90,1.0,0.0
3528,72.0,0,90,0.0,0.0
3529,70.0,385,90,1.0,0.0
3530,55.0,95,240,3.0,0.0
3531,67.0,240,90,2.0,0.0
3532,72.0,240,90,0.0,0.0
3533,64.0,0,90,1.0,0.0
3534,70.0,0,90,1.0,0.0
3535,55.0,265,90,3.0,0.0
3536,56.0,120,120,3.0,0.0
3537,58.0,95,120,3.0,0.0
3538,53.0,0,720,2.0,0.0
3539,60.0,95,480,3.0,0.0
3540,80.0,120,90,0.0,0.0
3541,79.0,120,90,0.0,0.0
3542,80.0,120,90,0.0,0.0
3543,84.0,25,90,0.0,0.0
3544,62.0,95,240,3.0,0.0
3545,82.0,120,90,0.0,0.0
3546,80.0,25,90,0.0,0.0
3547,79.0,0,90,0.0,0.0
3548,51.0,0,90,2.0,0.0
3549,63.0,120,90,3.0,0.0
3550,77.0,120,90,0.0,0.0
3551,75.0,120,90,0.0,0.0
3552,74.0,120,90,0.0,0.0
3553,52.0,95,480,2.0,0.0
3554,64.0,0,480,3.0,0.0
3555,72.0,120,90,0.0,0.0
3556,70.0,120,90,0.0,0.0
3557,68.0,120,90,0.0,0.0
3558,67.0,25,90,0.0,0.0
3559,68.0,0,90,0.0,0.0
3560,53.0,120,90,2.0,0.0
3561,65.0,0,90,3.0,0.0
3562,72.0,120,90,0.0,0.0
3563,50.0,120,90,2.0,0.0
3564,70.0,0,90,0.0,0.0
3565,62.0,0,90,3.0,0.0
3566,68.0,120,90,0.0,0.0
3567,67.0,120,90,0.0,0.0
3568,51.0,0,90,2.0,0.0
3569,63.0,0,90,3.0,0.0
3570,63.0,120,90,0.0,0.0
3571,67.0,120,90,0.0,0.0
3572,68.0,120,90,0.0,0.0
3573,49.0,95,120,3.0,0.0
3574,70.0,25,90,0.0,0.0
3575,72.0,25,90,0.0,0.0
3576,51.0,95,120,3.0,0.0
3577,46.0,95,720,2.0,0.0
3578,53.0,95,480,3.0,0.0
3579,73.0,120,90,0.0,0.0
3580,72.0,120,90,0.0,0.0
3581,73.0,120,90,0.0,0.0
3582,77.0,25,90,0.0,0.0
3583,75.0,120,90,0.0,0.0
3584,55.0,0,240,3.0,0.0
3585,73.0,25,90,0.0,0.0
3586,56.0,120,90,3.0,0.0
3587,44.0,0,90,2.0,0.0
3588,72.0,0,90,0.0,0.0
3589,70.0,120,90,0.0,0.0
3590,68.0,120,90,0.0,0.0
3591,67.0,120,90,0.0,0.0
3592,45.0,0,450,2.0,0.0
3593,65.0,120,90,0.0,0.0
3594,57.0,5,450,3.0,0.0
3595,63.0,120,90,0.0,0.0
3596,61.0,115,90,0.0,0.0
3597,60.0,120,90,0.0,0.0
3598,61.0,0,90,0.0,0.0
3599,58.0,120,90,3.0,0.0
3600,46.0,0,90,2.0,0.0
3601,65.0,120,90,0.0,0.0
3602,63.0,120,90,0.0,0.0
3603,55.0,0,90,3.0,0.0
3604,43.0,0,90,2.0,0.0
3605,61.0,120,90,0.0,0.0
3606,44.0,120,90,3.0,0.0
3607,60.0,95,240,0.0,0.0
3608,48.0,25,90,3.0,0.0
3609,49.0,120,90,3.0,0.0
3610,51.0,120,90,3.0,0.0
3611,68.0,95,120,0.0,0.0
3612,53.0,25,90,3.0,0.0
3613,55.0,25,90,3.0,0.0
3614,70.0,95,120,0.0,0.0
3615,56.0,120,90,3.0,0.0
3616,60.0,95,480,1.0,0.0
3617,72.0,0,480,0.0,0.0
3618,55.0,120,90,3.0,0.0
3619,56.0,120,90,3.0,0.0
3620,53.0,25,90,3.0,0.0
3621,58.0,120,90,3.0,0.0
3622,62.0,95,240,1.0,0.0
3623,74.0,0,240,0.0,0.0
3624,56.0,25,90,3.0,0.0
3625,75.0,120,90,0.0,0.0
3626,63.0,0,90,1.0,0.0
3627,55.0,0,90,3.0,0.0
3628,53.0,120,90,3.0,0.0
3629,51.0,120,90,3.0,0.0
3630,50.0,120,90,3.0,0.0
3631,48.0,120,90,3.0,0.0
3632,63.0,95,480,1.0,0.0
3633,75.0,0,480,0.0,0.0
3634,46.0,120,90,3.0,0.0
3635,44.0,120,90,3.0,0.0
3636,43.0,25,90,3.0,0.0
3637,77.0,0,90,0.0,0.0
3638,44.0,120,90,3.0,0.0
3639,65.0,0,90,1.0,0.0
3640,48.0,120,90,3.0,0.0
3641,62.0,120,90,1.0,0.0
3642,74.0,0,90,0.0,0.0
3643,46.0,0,90,3.0,0.0
3644,44.0,120,90,3.0,0.0
3645,63.0,120,90,1.0,0.0
3646,75.0,0,90,0.0,0.0
3647,43.0,0,90,3.0,0.0
3648,39.0,120,90,3.0,0.0
3649,43.0,120,90,3.0,0.0
3650,44.0,120,90,3.0,0.0
3651,46.0,25,90,3.0,0.0
3652,73.0,95,120,0.0,0.0
3653,48.0,25,90,3.0,0.0
3654,75.0,95,120,0.0,0.0
3655,49.0,120,90,3.0,0.0
3656,77.0,95,480,0.0,0.0
3657,65.0,0,480,1.0,0.0
3658,48.0,120,90,3.0,0.0
3659,49.0,120,90,3.0,0.0
3660,46.0,25,90,3.0,0.0
3661,67.0,0,240,1.0,0.0
3662,79.0,95,240,0.0,0.0
3663,51.0,120,90,3.0,0.0
3664,49.0,25,90,3.0,0.0
3665,48.0,0,90,3.0,0.0
3666,68.0,0,90,1.0,0.0
3667,80.0,120,90,0.0,0.0
3668,46.0,120,90,3.0,0.0
3669,44.0,120,90,3.0,0.0
3670,43.0,120,90,3.0,0.0
3671,41.0,120,90,3.0,0.0
3672,69.0,95,480,1.0,0.0
3673,81.0,0,480,0.0,0.0
3674,39.0,120,90,3.0,0.0
3675,37.0,120,90,3.0,0.0
3676,36.0,25,90,3.0,0.0
3677,37.0,0,90,3.0,0.0
3678,70.0,0,90,1.0,0.0
3679,82.0,120,90,0.0,0.0
3680,41.0,120,90,3.0,0.0
3681,67.0,120,90,1.0,0.0
3682,39.0,0,90,3.0,0.0
3683,79.0,0,90,0.0,0.0
3684,37.0,120,90,3.0,0.0
3685,36.0,0,90,3.0,0.0
3686,80.0,0,90,0.0,0.0
3687,68.0,120,90,1.0,0.0
3688,39.0,120,90,3.0,0.0
3689,44.0,120,90,3.0,0.0
3690,43.0,120,90,3.0,0.0
3691,81.0,0,480,1.0,0.0
3692,84.0,95,480,0.0,0.0
3693,41.0,120,90,3.0,0.0
3694,72.0,0,480,1.0,0.0
3695,39.0,120,90,3.0,0.0
3696,37.0,120,90,3.0,0.0
3697,34.0,25,90,3.0,0.0
3698,85.0,0,90,0.0,0.0
3699,37.0,120,90,3.0,0.0
3700,73.0,0,90,1.0,0.0
3701,82.0,0,90,1.0,0.0
3702,34.0,120,90,3.0,0.0
3703,39.0,0,90,3.0,0.0
3704,82.0,0,90,0.0,0.0
3705,70.0,120,90,1.0,0.0
3706,79.0,0,90,1.0,0.0
3707,37.0,120,90,3.0,0.0
3708,72.0,0,90,1.0,0.0
3709,84.0,0,90,0.0,0.0
3710,36.0,120,90,3.0,0.0
3711,80.0,0,90,1.0,0.0
3712,39.0,120,90,3.0,0.0
3713,44.0,120,90,3.0,0.0
3714,43.0,120,90,3.0,0.0
3715,69.0,0,480,1.0,0.0
3716,72.0,0,480,1.0,0.0
3717,81.0,95,480,0.0,0.0
3718,41.0,120,90,3.0,0.0
3719,39.0,120,90,3.0,0.0
3720,37.0,120,90,3.0,0.0
3721,34.0,25,90,3.0,0.0
3722,37.0,0,90,3.0,0.0
3723,73.0,0,90,1.0,0.0
3724,70.0,0,90,1.0,0.0
3725,82.0,120,90,0.0,0.0
3726,34.0,120,90,3.0,0.0
3727,67.0,0,90,1.0,0.0
3728,70.0,120,90,1.0,0.0
3729,79.0,0,90,0.0,0.0
3730,39.0,0,90,3.0,0.0
3731,39.0,120,90,3.0,0.0
3732,72.0,0,90,1.0,0.0
3733,68.0,120,90,1.0,0.0
3734,32.0,0,90,3.0,0.0
3735,80.0,0,90,0.0,0.0
3736,36.0,120,90,3.0,0.0
3737,39.0,120,90,3.0,0.0
3738,37.0,120,90,3.0,0.0
3739,79.0,0,90,1.0,0.0
3740,82.0,120,90,0.0,0.0
3741,70.0,0,90,1.0,0.0
3742,36.0,0,90,3.0,0.0
3743,34.0,120,90,3.0,0.0
3744,84.0,0,90,0.0,0.0
3745,32.0,120,90,3.0,0.0
3746,80.0,0,90,1.0,0.0
3747,72.0,0,90,1.0,0.0
3748,36.0,120,90,3.0,0.0
3749,39.0,120,90,3.0,0.0
3750,37.0,120,90,3.0,0.0
3751,67.0,0,90,1.0,0.0
3752,70.0,0,90,1.0,0.0
3753,36.0,0,90,3.0,0.0
3754,79.0,120,90,0.0,0.0
3755,34.0,120,90,3.0,0.0
3756,80.0,0,90,0.0,0.0
3757,32.0,0,90,3.0,0.0
3758,68.0,0,90,1.0,0.0
3759,72.0,120,90,1.0,0.0
3760,36.0,120,90,3.0,0.0
3761,39.0,120,90,3.0,0.0
3762,37.0,120,90,3.0,0.0
3763,58.0,0,90,1.0,0.0
3764,55.0,0,90,1.0,0.0
3765,36.0,0,90,3.0,0.0
3766,67.0,120,90,0.0,0.0
3767,34.0,205,90,3.0,0.0
3768,56.0,0,180,1.0,0.0
3769,32.0,540,180,3.0,0.0
3770,60.0,0,180,1.0,0.0
3771,68.0,0,180,0.0,0.0
3772,56.0,480,240,0.0,0.0
3773,49.0,240,480,2.0,0.0
3774,65.0,480,720,0.0,0.0
3775,53.0,0,720,1.0,0.0
3776,37.0,0,720,3.0,0.0
3777,56.0,0,240,1.0,0.0
3778,44.0,0,240,2.0,0.0
3779,63.0,0,720,0.0,0.0
3780,48.0,240,480,2.0,0.0
3781,51.0,0,720,1.0,0.0
3782,36.0,0,720,3.0,0.0
3783,56.0,480,240,1.0,0.0
3784,44.0,0,240,2.0,0.0
3785,39.0,0,720,3.0,0.0
3786,51.0,240,480,2.0,0.0
3787,54.0,0,720,1.0,0.0
3788,66.0,480,720,0.0,0.0
3789,44.0,0,240,2.0,0.0
3790,56.0,0,240,1.0,0.0
3791,49.0,240,480,2.0,0.0
3792,65.0,0,720,0.0,0.0
3793,53.0,0,720,1.0,0.0
3794,37.0,0,720,3.0,0.0
3795,61.0,480,240,1.0,0.0
3796,44.0,0,240,2.0,0.0
3797,53.0,240,480,2.0,0.0
3798,41.0,480,720,3.0,0.0
3799,56.0,0,720,1.0,0.0
3800,68.0,0,720,0.0,0.0
3801,61.0,0,240,1.0,0.0
3802,61.0,240,480,1.0,0.0
3803,58.0,0,480,1.0,0.0
3804,49.0,0,15,2.0,0.0
3805,54.0,0,480,2.0,0.0
3806,42.0,0,480,3.0,0.0
3807,70.0,0,480,0.0,0.0
3808,63.0,480,240,0.0,0.0
3809,53.0,0,240,2.0,0.0
3810,41.0,0,240,3.0,0.0
3811,58.0,0,15,1.0,0.0
3812,61.0,0,15,1.0,0.0
3813,42.0,0,480,3.0,0.0
3814,54.0,0,480,2.0,0.0
3815,63.0,0,480,0.0,0.0
3816,43.0,240,240,3.0,0.0
3817,55.0,0,240,2.0,0.0
3818,58.0,0,240,1.0,0.0
3819,61.0,0,240,1.0,0.0
3820,63.0,0,240,0.0,0.0
3821,56.0,480,240,2.0,0.0
3822,44.0,0,240,3.0,0.0
3823,60.0,0,240,1.0,0.0
3824,63.0,0,240,0.0,0.0
3825,56.0,480,240,0.0,0.0
3826,53.0,0,720,1.0,0.0
3827,49.0,240,480,2.0,0.0
3828,37.0,480,720,3.0,0.0
3829,65.0,0,720,0.0,0.0
3830,44.0,0,240,2.0,0.0
3831,56.0,0,240,1.0,0.0
3832,48.0,240,480,2.0,0.0
3833,51.0,480,720,1.0,0.0
3834,36.0,0,720,3.0,0.0
3835,63.0,0,720,0.0,0.0
3836,56.0,0,240,1.0,0.0
3837,44.0,0,240,2.0,0.0
3838,51.0,240,480,2.0,0.0
3839,54.0,0,720,1.0,0.0
3840,39.0,0,720,3.0,0.0
3841,66.0,0,720,0.0,0.0
3842,56.0,480,240,1.0,0.0
3843,44.0,0,240,2.0,0.0
3844,65.0,0,720,0.0,0.0
3845,37.0,0,720,3.0,0.0
3846,53.0,0,720,1.0,0.0
3847,49.0,240,480,2.0,0.0
3848,61.0,0,240,1.0,0.0
3849,44.0,480,240,2.0,0.0
3850,53.0,240,480,2.0,0.0
3851,68.0,0,720,0.0,0.0
3852,41.0,0,720,3.0,0.0
3853,56.0,0,720,1.0,0.0
3854,61.0,0,240,1.0,0.0
3855,61.0,0,480,1.0,0.0
3856,70.0,0,480,0.0,0.0
3857,54.0,240,480,2.0,0.0
3858,42.0,0,480,3.0,0.0
3859,49.0,480,15,2.0,0.0
3860,53.0,0,240,2.0,0.0
3861,41.0,0,240,3.0,0.0
3862,58.0,0,15,1.0,0.0
3863,61.0,0,240,1.0,0.0
3864,54.0,0,480,2.0,0.0
3865,42.0,240,480,3.0,0.0
3866,63.0,480,15,0.0,0.0
3867,58.0,0,15,1.0,0.0
3868,61.0,0,15,1.0,0.0
3869,63.0,0,15,0.0,0.0
3870,43.0,0,240,3.0,0.0
3871,55.0,0,240,2.0,0.0
3872,60.0,0,240,1.0,0.0
3873,44.0,0,240,3.0,0.0
3874,63.0,240,15,0.0,0.0
3875,56.0,480,240,2.0,0.0
3876,68.0,480,240,0.0,0.0
3877,60.0,480,720,1.0,0.0
3878,44.0,0,720,3.0,0.0
3879,72.0,0,720,0.0,0.0
3880,56.0,240,480,2.0,0.0
3881,67.0,0,240,1.0,0.0
3882,51.0,0,240,2.0,0.0
3883,73.0,480,720,0.0,0.0
3884,58.0,240,480,2.0,0.0
3885,46.0,0,720,3.0,0.0
3886,61.0,0,720,1.0,0.0
3887,51.0,0,240,2.0,0.0
3888,68.0,0,240,1.0,0.0
3889,60.0,240,480,2.0,0.0
3890,48.0,0,720,3.0,0.0
3891,75.0,0,720,0.0,0.0
3892,63.0,0,720,1.0,0.0
3893,66.0,0,720,1.0,0.0
3894,68.0,0,240,1.0,0.0
3895,56.0,480,240,2.0,0.0
3896,49.0,0,720,3.0,0.0
3897,77.0,0,720,0.0,0.0
3898,61.0,240,480,2.0,0.0
3899,73.0,0,240,1.0,0.0
3900,56.0,0,240,2.0,0.0
3901,77.0,0,720,0.0,0.0
3902,65.0,480,15,1.0,0.0
3903,49.0,0,720,3.0,0.0
3904,61.0,240,480,2.0,0.0
3905,73.0,0,240,1.0,0.0
3906,56.0,0,240,2.0,0.0
3907,63.0,240,480,2.0,0.0
3908,51.0,0,720,3.0,0.0
3909,78.0,0,720,0.0,0.0
3910,66.0,0,720,1.0,0.0
3911,56.0,480,240,2.0,0.0
3912,72.0,0,240,1.0,0.0
3913,71.0,0,720,1.0,0.0
3914,68.0,0,720,1.0,0.0
3915,53.0,480,720,3.0,0.0
3916,80.0,0,720,0.0,0.0
3917,65.0,240,480,2.0,0.0
3918,61.0,0,240,2.0,0.0
3919,73.0,0,240,1.0,0.0
3920,82.0,0,720,0.0,0.0
3921,66.0,240,480,2.0,0.0
3922,70.0,0,720,1.0,0.0
3923,61.0,0,240,2.0,0.0
3924,73.0,0,240,1.0,0.0
3925,54.0,480,15,3.0,0.0
3926,70.0,0,720,1.0,0.0
3927,66.0,240,480,2.0,0.0
3928,82.0,0,720,0.0,0.0
3929,61.0,480,240,2.0,0.0
3930,73.0,0,240,1.0,0.0
3931,83.0,0,720,0.0,0.0
3932,56.0,0,720,3.0,0.0
3933,68.0,240,480,2.0,0.0
3934,71.0,480,720,1.0,0.0
3935,61.0,0,240,2.0,0.0
3936,73.0,0,240,1.0,0.0
3937,53.0,0,720,3.0,0.0
3938,81.0,0,720,0.0,0.0
3939,65.0,240,480,2.0,0.0
3940,69.0,0,720,1.0,0.0
3941,73.0,0,240,1.0,0.0
3942,61.0,480,240,2.0,0.0
3943,82.0,0,720,0.0,0.0
3944,70.0,15,720,1.0,0.0
3945,54.0,0,720,3.0,0.0
3946,66.0,225,480,2.0,0.0
3947,73.0,480,240,1.0,0.0
3948,61.0,0,240,2.0,0.0
3949,76.0,0,480,0.0,0.0
3950,55.0,480,720,3.0,0.0
3951,64.0,240,480,2.0,0.0
3952,70.0,0,720,1.0,0.0
3953,76.0,0,240,0.0,0.0
3954,61.0,0,240,2.0,0.0
3955,64.0,0,240,2.0,0.0
3956,73.0,0,240,1.0,0.0
3957,68.0,240,720,1.0,0.0
3958,65.0,240,480,2.0,0.0
3959,77.0,240,960,0.0,0.0
3960,56.0,0,720,3.0,0.0
3961,61.0,0,240,2.0,0.0
3962,73.0,0,240,1.0,0.0
3963,44.0,0,720,3.0,0.0
3964,66.0,0,480,1.0,0.0
3965,72.0,0,480,1.0,0.0
3966,78.0,240,240,0.0,0.0
3967,56.0,0,240,3.0,0.0
3968,72.0,240,240,1.0,0.0
3969,75.0,0,240,0.0,0.0
3970,66.0,0,240,1.0,0.0
3971,73.0,480,240,0.0,0.0
3972,65.0,0,240,1.0,0.0
3973,49.0,0,240,3.0,0.0
3974,68.0,480,240,0.0,0.0
3975,60.0,0,720,1.0,0.0
3976,56.0,240,480,2.0,0.0
3977,72.0,0,720,0.0,0.0
3978,44.0,480,720,3.0,0.0
3979,51.0,0,240,2.0,0.0
3980,67.0,0,240,1.0,0.0
3981,58.0,240,480,2.0,0.0
3982,73.0,480,720,0.0,0.0
3983,46.0,0,720,3.0,0.0
3984,61.0,0,720,1.0,0.0
3985,68.0,0,240,1.0,0.0
3986,51.0,0,240,2.0,0.0
3987,60.0,240,480,2.0,0.0
3988,66.0,0,720,1.0,0.0
3989,63.0,0,720,1.0,0.0
3990,48.0,0,720,3.0,0.0
3991,75.0,480,720,0.0,0.0
3992,56.0,0,240,2.0,0.0
3993,68.0,0,240,1.0,0.0
3994,49.0,0,720,3.0,0.0
3995,65.0,0,720,1.0,0.0
3996,61.0,240,480,2.0,0.0
3997,56.0,480,240,2.0,0.0
3998,73.0,0,240,1.0,0.0
3999,49.0,0,720,3.0,0.0
4000,77.0,0,15,0.0,0.0
4001,65.0,0,720,1.0,0.0
4002,61.0,240,480,2.0,0.0
4003,56.0,480,240,2.0,0.0
4004,73.0,0,240,1.0,0.0
4005,66.0,0,720,1.0,0.0
4006,63.0,240,480,2.0,0.0
4007,51.0,480,720,3.0,0.0
4008,78.0,0,720,0.0,0.0
4009,72.0,0,240,1.0,0.0
4010,56.0,0,240,2.0,0.0
4011,65.0,240,480,2.0,0.0
4012,68.0,0,720,1.0,0.0
4013,53.0,0,720,3.0,0.0
4014,71.0,0,720,1.0,0.0
4015,80.0,0,720,0.0,0.0
4016,73.0,0,240,1.0,0.0
4017,61.0,480,240,2.0,0.0
4018,54.0,0,720,3.0,0.0
4019,70.0,0,720,1.0,0.0
4020,66.0,240,480,2.0,0.0
4021,73.0,480,240,1.0,0.0
4022,61.0,0,240,2.0,0.0
4023,66.0,240,480,2.0,0.0
4024,82.0,0,15,0.0,0.0
4025,70.0,0,720,1.0,0.0
4026,54.0,0,720,3.0,0.0
4027,73.0,0,240,1.0,0.0
4028,61.0,480,240,2.0,0.0
4029,71.0,0,720,1.0,0.0
4030,56.0,0,720,3.0,0.0
4031,83.0,0,720,0.0,0.0
4032,68.0,240,480,2.0,0.0
4033,61.0,0,240,2.0,0.0
4034,73.0,480,240,1.0,0.0
4035,53.0,0,720,3.0,0.0
4036,69.0,0,720,1.0,0.0
4037,81.0,0,720,0.0,0.0
4038,65.0,240,480,2.0,0.0
4039,73.0,0,240,1.0,0.0
4040,61.0,480,240,2.0,0.0
4041,54.0,480,720,3.0,0.0
4042,66.0,225,480,2.0,0.0
4043,70.0,15,720,1.0,0.0
4044,82.0,0,720,0.0,0.0
4045,73.0,0,240,1.0,0.0
4046,61.0,0,240,2.0,0.0
4047,55.0,480,720,3.0,0.0
4048,76.0,0,480,0.0,0.0
4049,70.0,0,720,1.0,0.0
4050,61.0,0,240,2.0,0.0
4051,64.0,240,15,2.0,0.0
4052,76.0,0,240,0.0,0.0
4053,73.0,0,240,1.0,0.0
4054,65.0,240,480,2.0,0.0
4055,77.0,240,960,0.0,0.0
4056,68.0,240,720,1.0,0.0
4057,56.0,0,720,3.0,0.0
4058,73.0,0,240,1.0,0.0
4059,61.0,0,240,2.0,0.0
4060,66.0,0,480,1.0,0.0
4061,44.0,0,720,3.0,0.0
4062,78.0,0,240,0.0,0.0
4063,75.0,0,240,0.0,0.0
4064,72.0,240,15,1.0,0.0
4065,56.0,0,240,3.0,0.0
4066,66.0,240,240,1.0,0.0
4067,65.0,0,240,1.0,0.0
4068,49.0,360,240,3.0,0.0
4069,73.0,0,240,0.0,0.0
4070,49.0,120,120,3.0,0.0
4071,51.0,480,120,3.0,0.0
4072,46.0,120,720,2.0,0.0
4073,53.0,240,480,3.0,0.0
4074,61.0,120,720,1.0,0.0
4075,73.0,0,720,0.0,0.0
4076,55.0,0,240,3.0,0.0
4077,56.0,120,120,3.0,0.0
4078,44.0,0,120,2.0,0.0
4079,60.0,180,180,1.0,0.0
4080,72.0,60,120,0.0,0.0
4081,56.0,120,120,3.0,0.0
4082,58.0,480,120,3.0,0.0
4083,60.0,240,480,3.0,0.0
4084,53.0,0,720,2.0,0.0
4085,80.0,120,720,0.0,0.0
4086,68.0,0,720,1.0,0.0
4087,62.0,5,240,3.0,0.0
4088,63.0,0,360,3.0,0.0
4089,51.0,235,15,2.0,0.0
4090,67.0,15,120,1.0,0.0
4091,79.0,225,120,0.0,0.0
4092,68.0,120,120,0.0,0.0
4093,70.0,480,120,0.0,0.0
4094,68.0,95,1200,1.0,0.0
4095,72.0,240,480,0.0,0.0
4096,65.0,95,720,3.0,0.0
4097,74.0,0,240,0.0,0.0
4098,75.0,95,960,0.0,0.0
4099,63.0,385,90,3.0,0.0
4100,55.0,25,90,3.0,0.0
4101,70.0,215,120,1.0,0.0
4102,56.0,25,90,3.0,0.0
4103,72.0,120,120,1.0,0.0
4104,68.0,0,120,1.0,0.0
4105,53.0,25,90,3.0,0.0
4106,77.0,215,120,0.0,0.0
4107,58.0,25,90,3.0,0.0
4108,68.0,215,120,1.0,0.0
4109,74.0,0,120,0.0,0.0
4110,67.0,480,120,1.0,0.0
4111,75.0,0,120,0.0,0.0
4112,51.0,25,90,3.0,0.0
4113,73.0,120,120,0.0,0.0
4114,75.0,480,120,0.0,0.0
4115,73.0,0,720,1.0,0.0
4116,70.0,95,720,3.0,0.0
4117,77.0,240,480,0.0,0.0
4118,79.0,0,240,0.0,0.0
4119,72.0,95,480,1.0,0.0
4120,68.0,385,90,3.0,0.0
4121,80.0,215,840,0.0,0.0
4122,60.0,0,90,3.0,0.0
4123,75.0,240,90,1.0,0.0
4124,61.0,0,90,3.0,0.0
4125,77.0,25,90,1.0,0.0
4126,73.0,0,90,1.0,0.0
4127,82.0,0,90,0.0,0.0
4128,58.0,240,90,3.0,0.0
4129,73.0,0,90,1.0,0.0
4130,63.0,240,90,3.0,0.0
4131,79.0,0,90,0.0,0.0
4132,80.0,505,90,0.0,0.0
4133,56.0,0,90,3.0,0.0
4134,68.0,120,120,0.0,0.0
4135,70.0,120,120,0.0,0.0
4136,68.0,95,720,1.0,0.0
4137,65.0,0,720,3.0,0.0
4138,72.0,215,120,0.0,0.0
4139,73.0,240,90,0.0,0.0
4140,75.0,145,90,0.0,0.0
4141,75.0,215,840,0.0,0.0
4142,63.0,240,90,3.0,0.0
4143,67.0,0,90,1.0,0.0
4144,68.0,0,90,1.0,0.0
4145,65.0,240,90,3.0,0.0
4146,70.0,0,90,1.0,0.0
4147,67.0,240,90,3.0,0.0
4148,72.0,0,120,1.0,0.0
4149,56.0,25,90,3.0,0.0
4150,68.0,0,90,1.0,0.0
4151,53.0,0,90,3.0,0.0
4152,77.0,240,90,0.0,0.0
4153,74.0,240,90,0.0,0.0
4154,68.0,0,90,1.0,0.0
4155,58.0,0,90,3.0,0.0
4156,75.0,0,90,0.0,0.0
4157,67.0,0,90,1.0,0.0
4158,51.0,505,90,3.0,0.0
4159,73.0,120,120,0.0,0.0
4160,75.0,95,120,0.0,0.0
4161,70.0,0,720,3.0,0.0
4162,73.0,95,720,1.0,0.0
4163,77.0,240,90,0.0,0.0
4164,78.0,240,90,0.0,0.0
4165,79.0,145,90,0.0,0.0
4166,80.0,215,840,0.0,0.0
4167,72.0,215,120,1.0,0.0
4168,68.0,25,90,3.0,0.0
4169,73.0,240,90,1.0,0.0
4170,70.0,0,90,3.0,0.0
4171,72.0,0,90,3.0,0.0
4172,75.0,240,90,1.0,0.0
4173,77.0,0,90,1.0,0.0
4174,61.0,25,90,3.0,0.0
4175,82.0,0,90,0.0,0.0
4176,73.0,240,90,1.0,0.0
4177,58.0,0,90,3.0,0.0
4178,73.0,0,90,1.0,0.0
4179,63.0,0,90,3.0,0.0
4180,79.0,240,90,0.0,0.0
4181,80.0,505,90,0.0,0.0
4182,56.0,0,90,3.0,0.0
4183,72.0,0,90,1.0,0.0
4184,56.0,120,120,1.0,0.0
4185,60.0,0,120,0.0,0.0
4186,61.0,0,120,0.0,0.0
4187,58.0,95,120,1.0,0.0
4188,32.0,240,90,3.0,0.0
4189,63.0,240,480,0.0,0.0
4190,60.0,0,480,1.0,0.0
4191,44.0,145,90,3.0,0.0
4192,65.0,95,240,0.0,0.0
4193,61.0,0,240,1.0,0.0
4194,63.0,0,90,1.0,0.0
4195,32.0,0,90,3.0,0.0
4196,67.0,240,90,0.0,0.0
4197,44.0,240,90,3.0,0.0
4198,63.0,240,90,1.0,0.0
4199,67.0,0,90,0.0,0.0
4200,66.0,240,90,1.0,0.0
4201,72.0,0,90,0.0,0.0
4202,32.0,0,90,3.0,0.0
4203,75.0,0,90,0.0,0.0
4204,72.0,0,90,1.0,0.0
4205,44.0,240,90,3.0,0.0
4206,78.0,0,480,0.0,0.0
4207,75.0,95,480,1.0,0.0
4208,32.0,385,90,3.0,0.0
4209,32.0,0,240,3.0,0.0
4210,77.0,0,90,0.0,0.0
4211,74.0,0,90,1.0,0.0
4212,34.0,265,90,3.0,0.0
4213,62.0,120,120,0.0,0.0
4214,58.0,0,120,1.0,0.0
4215,60.0,0,120,1.0,0.0
4216,63.0,95,120,0.0,0.0
4217,62.0,0,480,1.0,0.0
4218,34.0,240,90,3.0,0.0
4219,65.0,240,480,0.0,0.0
4220,46.0,145,90,2.0,0.0
4221,64.0,0,240,1.0,0.0
4222,67.0,95,240,0.0,0.0
4223,65.0,0,90,1.0,0.0
4224,68.0,0,90,0.0,0.0
4225,34.0,240,90,3.0,0.0
4226,46.0,240,90,2.0,0.0
4227,65.0,0,90,1.0,0.0
4228,68.0,240,90,0.0,0.0
4229,34.0,240,90,3.0,0.0
4230,74.0,0,90,0.0,0.0
4231,68.0,0,90,1.0,0.0
4232,46.0,0,90,2.0,0.0
4233,74.0,0,90,1.0,0.0
4234,77.0,240,90,0.0,0.0
4235,77.0,75,480,1.0,0.0
4236,34.0,385,90,3.0,0.0
4237,80.0,0,480,0.0,0.0
4238,35.0,0,240,3.0,0.0
4239,79.0,0,90,0.0,0.0
4240,36.0,20,60,3.0,0.0
4241,76.0,265,90,1.0,0.0
4242,64.0,0,120,0.0,0.0
4243,60.0,120,120,1.0,0.0
4244,65.0,95,120,0.0,0.0
4245,62.0,0,120,1.0,0.0
4246,36.0,240,90,3.0,0.0
4247,67.0,240,480,0.0,0.0
4248,64.0,0,480,1.0,0.0
4249,48.0,145,90,2.0,0.0
4250,65.0,0,240,1.0,0.0
4251,68.0,95,240,0.0,0.0
4252,36.0,0,90,3.0,0.0
4253,67.0,0,90,1.0,0.0
4254,70.0,240,90,0.0,0.0
4255,48.0,265,90,2.0,0.0
4256,64.0,0,120,0.0,0.0
4257,60.0,120,120,1.0,0.0
4258,62.0,95,120,1.0,0.0
4259,65.0,0,120,0.0,0.0
4260,67.0,215,120,0.0,0.0
4261,64.0,0,120,1.0,0.0
4262,36.0,25,90,3.0,0.0
4263,48.0,25,90,2.0,0.0
4264,64.0,120,120,0.0,0.0
4265,60.0,0,120,1.0,0.0
4266,65.0,120,120,0.0,0.0
4267,62.0,0,120,1.0,0.0
4268,64.0,120,120,1.0,0.0
4269,67.0,0,120,0.0,0.0
4270,65.0,0,120,1.0,0.0
4271,68.0,95,120,0.0,0.0
4272,36.0,25,90,3.0,0.0
4273,70.0,0,120,0.0,0.0
4274,67.0,215,120,1.0,0.0
4275,48.0,25,90,2.0,0.0
4276,64.0,120,120,1.0,0.0
4277,67.0,0,120,0.0,0.0
4278,68.0,0,120,0.0,0.0
4279,65.0,120,120,1.0,0.0
4280,70.0,0,120,0.0,0.0
4281,67.0,120,120,1.0,0.0
4282,72.0,95,120,0.0,0.0
4283,68.0,0,120,1.0,0.0
4284,70.0,240,90,1.0,0.0
4285,48.0,0,90,3.0,0.0
4286,73.0,0,90,0.0,0.0
4287,60.0,240,90,2.0,0.0
4288,67.0,240,90,1.0,0.0
4289,70.0,0,90,0.0,0.0
4290,67.0,0,90,0.0,0.0
4291,48.0,240,90,3.0,0.0
4292,64.0,0,90,1.0,0.0
4293,60.0,240,90,2.0,0.0
4294,67.0,240,90,1.0,0.0
4295,70.0,0,90,0.0,0.0
4296,73.0,0,90,0.0,0.0
4297,70.0,240,90,1.0,0.0
4298,48.0,0,90,3.0,0.0
4299,60.0,240,90,2.0,0.0
4300,67.0,240,90,1.0,0.0
4301,70.0,0,90,0.0,0.0
4302,64.0,0,90,1.0,0.0
4303,48.0,0,90,3.0,0.0
4304,67.0,240,90,0.0,0.0
4305,60.0,240,90,2.0,0.0
4306,70.0,0,90,0.0,0.0
4307,67.0,240,90,1.0,0.0
4308,67.0,0,480,1.0,0.0
4309,70.0,95,480,1.0,0.0
4310,52.0,240,90,3.0,0.0
4311,73.0,0,480,0.0,0.0
4312,64.0,145,90,2.0,0.0
4313,72.0,0,90,0.0,0.0
4314,67.0,240,90,1.0,0.0
4315,70.0,0,90,1.0,0.0
4316,73.0,0,480,0.0,0.0
4317,52.0,240,90,3.0,0.0
4318,64.0,145,90,2.0,0.0
4319,67.0,95,15,1.0,0.0
4320,70.0,0,15,1.0,0.0
4321,72.0,0,90,0.0,0.0
4322,73.0,0,480,0.0,0.0
4323,52.0,240,90,3.0,0.0
4324,64.0,145,90,2.0,0.0
4325,72.0,0,90,0.0,0.0
4326,67.0,95,15,1.0,0.0
4327,70.0,0,15,1.0,0.0
4328,52.0,240,90,3.0,0.0
4329,73.0,0,480,0.0,0.0
4330,70.0,95,480,1.0,0.0
4331,64.0,145,90,2.0,0.0
4332,72.0,385,90,0.0,0.0
4333,67.0,0,15,1.0,0.0
4334,70.0,0,90,1.0,0.0
4335,55.0,95,240,3.0,0.0
4336,73.0,95,480,0.0,0.0
4337,67.0,145,90,2.0,0.0
4338,70.0,0,15,1.0,0.0
4339,64.0,0,15,1.0,0.0
4340,72.0,0,90,0.0,0.0
4341,73.0,95,480,0.0,0.0
4342,55.0,95,240,3.0,0.0
4343,67.0,145,90,2.0,0.0
4344,72.0,0,90,0.0,0.0
4345,64.0,0,15,1.0,0.0
4346,70.0,0,15,1.0,0.0
4347,55.0,95,240,3.0,0.0
4348,73.0,0,480,0.0,0.0
4349,67.0,145,90,2.0,0.0
4350,64.0,0,15,1.0,0.0
4351,70.0,95,15,1.0,0.0
4352,72.0,0,90,0.0,0.0
4353,73.0,0,480,0.0,0.0
4354,55.0,95,240,3.0,0.0
4355,67.0,145,90,2.0,0.0
4356,70.0,0,15,1.0,0.0
4357,64.0,95,15,1.0,0.0
4358,72.0,240,90,0.0,0.0
4359,64.0,0,90,1.0,0.0
4360,73.0,0,90,0.0,0.0
4361,70.0,385,90,1.0,0.0
4362,55.0,95,240,3.0,0.0
4363,67.0,240,90,2.0,0.0
4364,70.0,0,90,1.0,0.0
4365,72.0,0,90,0.0,0.0
4366,64.0,385,90,1.0,0.0
4367,55.0,95,240,3.0,0.0
4368,67.0,240,90,2.0,0.0
4369,64.0,385,90,1.0,0.0
4370,70.0,0,90,1.0,0.0
4371,72.0,0,90,0.0,0.0
4372,55.0,95,240,3.0,0.0
4373,67.0,240,90,2.0,0.0
4374,72.0,0,90,0.0,0.0
4375,64.0,240,90,1.0,0.0
4376,70.0,0,90,1.0,0.0
4377,55.0,265,90,3.0,0.0
4378,56.0,120,120,3.0,0.0
4379,58.0,95,120,3.0,0.0
4380,80.0,120,90,0.0,0.0
4381,60.0,95,480,3.0,0.0
4382,53.0,0,720,2.0,0.0
4383,79.0,120,90,0.0,0.0
4384,80.0,120,90,0.0,0.0
4385,84.0,25,90,0.0,0.0
4386,82.0,120,90,0.0,0.0
4387,62.0,95,240,3.0,0.0
4388,80.0,25,90,0.0,0.0
4389,79.0,120,90,0.0,0.0
4390,51.0,0,90,2.0,0.0
4391,63.0,0,90,3.0,0.0
4392,77.0,120,90,0.0,0.0
4393,75.0,120,90,0.0,0.0
4394,74.0,120,90,0.0,0.0
4395,64.0,95,480,3.0,0.0
4396,52.0,0,480,2.0,0.0
4397,72.0,120,90,0.0,0.0
4398,70.0,120,90,0.0,0.0
4399,68.0,120,90,0.0,0.0
4400,67.0,25,90,0.0,0.0
4401,53.0,0,90,2.0,0.0
4402,68.0,120,90,0.0,0.0
4403,65.0,0,90,3.0,0.0
4404,72.0,120,90,0.0,0.0
4405,50.0,0,90,2.0,0.0
4406,70.0,120,90,0.0,0.0
4407,62.0,0,90,3.0,0.0
4408,68.0,120,90,0.0,0.0
4409,63.0,0,90,3.0,0.0
4410,51.0,0,90,2.0,0.0
4411,67.0,120,90,0.0,0.0
4412,63.0,120,90,0.0,0.0
4413,67.0,120,90,0.0,0.0
4414,68.0,120,90,0.0,0.0
4415,49.0,95,120,3.0,0.0
4416,70.0,25,90,0.0,0.0
4417,72.0,25,90,0.0,0.0
4418,51.0,95,120,3.0,0.0
4419,73.0,120,90,0.0,0.0
4420,46.0,0,720,2.0,0.0
4421,53.0,95,480,3.0,0.0
4422,72.0,120,90,0.0,0.0
4423,73.0,120,90,0.0,0.0
4424,77.0,25,90,0.0,0.0
4425,55.0,95,240,3.0,0.0
4426,75.0,120,90,0.0,0.0
4427,73.0,25,90,0.0,0.0
4428,72.0,120,90,0.0,0.0
4429,44.0,0,90,2.0,0.0
4430,56.0,0,90,3.0,0.0
4431,70.0,120,90,0.0,0.0
4432,68.0,120,90,0.0,0.0
4433,67.0,120,90,0.0,0.0
4434,65.0,120,90,0.0,0.0
4435,45.0,0,450,2.0,0.0
4436,57.0,5,450,3.0,0.0
4437,63.0,120,90,0.0,0.0
4438,61.0,115,90,0.0,0.0
4439,60.0,120,90,0.0,0.0
4440,58.0,0,90,3.0,0.0
4441,61.0,0,90,0.0,0.0
4442,46.0,120,90,2.0,0.0
4443,65.0,120,90,0.0,0.0
4444,43.0,0,90,2.0,0.0
4445,55.0,0,90,3.0,0.0
4446,63.0,120,90,0.0,0.0
4447,61.0,120,90,0.0,0.0
4448,44.0,120,90,3.0,0.0
4449,60.0,95,240,0.0,0.0
4450,48.0,25,90,3.0,0.0
4451,49.0,120,90,3.0,0.0
4452,51.0,120,90,3.0,0.0
4453,53.0,25,90,3.0,0.0
4454,68.0,95,120,0.0,0.0
4455,70.0,95,120,0.0,0.0
4456,55.0,25,90,3.0,0.0
4457,56.0,120,90,3.0,0.0
4458,72.0,0,480,0.0,0.0
4459,60.0,95,480,1.0,0.0
4460,55.0,120,90,3.0,0.0
4461,56.0,120,90,3.0,0.0
4462,53.0,25,90,3.0,0.0
4463,58.0,120,90,3.0,0.0
4464,62.0,95,240,1.0,0.0
4465,74.0,0,240,0.0,0.0
4466,56.0,25,90,3.0,0.0
4467,75.0,120,90,0.0,0.0
4468,63.0,0,90,1.0,0.0
4469,55.0,0,90,3.0,0.0
4470,53.0,120,90,3.0,0.0
4471,51.0,120,90,3.0,0.0
4472,50.0,120,90,3.0,0.0
4473,48.0,120,90,3.0,0.0
4474,63.0,95,480,1.0,0.0
4475,75.0,0,480,0.0,0.0
4476,46.0,120,90,3.0,0.0
4477,44.0,120,90,3.0,0.0
4478,43.0,25,90,3.0,0.0
4479,44.0,0,90,3.0,0.0
4480,77.0,0,90,0.0,0.0
4481,65.0,120,90,1.0,0.0
4482,48.0,120,90,3.0,0.0
4483,62.0,120,90,1.0,0.0
4484,46.0,0,90,3.0,0.0
4485,74.0,0,90,0.0,0.0
4486,44.0,120,90,3.0,0.0
4487,63.0,0,90,1.0,0.0
4488,43.0,0,90,3.0,0.0
4489,75.0,120,90,0.0,0.0
4490,39.0,120,90,3.0,0.0
4491,43.0,120,90,3.0,0.0
4492,44.0,120,90,3.0,0.0
4493,46.0,25,90,3.0,0.0
4494,73.0,95,120,0.0,0.0
4495,48.0,25,90,3.0,0.0
4496,75.0,95,120,0.0,0.0
4497,77.0,95,480,0.0,0.0
4498,65.0,0,480,1.0,0.0
4499,49.0,120,90,3.0,0.0
4500,48.0,120,90,3.0,0.0
4501,49.0,120,90,3.0,0.0
4502,46.0,25,90,3.0,0.0
4503,79.0,95,240,0.0,0.0
4504,51.0,120,90,3.0,0.0
4505,67.0,0,240,1.0,0.0
4506,49.0,25,90,3.0,0.0
4507,80.0,120,90,0.0,0.0
4508,68.0,0,90,1.0,0.0
4509,48.0,0,90,3.0,0.0
4510,46.0,120,90,3.0,0.0
4511,44.0,120,90,3.0,0.0
4512,43.0,120,90,3.0,0.0
4513,81.0,95,480,0.0,0.0
4514,69.0,0,480,1.0,0.0
4515,41.0,120,90,3.0,0.0
4516,39.0,120,90,3.0,0.0
4517,37.0,120,90,3.0,0.0
4518,36.0,25,90,3.0,0.0
4519,37.0,120,90,3.0,0.0
4520,70.0,0,90,1.0,0.0
4521,82.0,0,90,0.0,0.0
4522,41.0,120,90,3.0,0.0
4523,79.0,0,90,0.0,0.0
4524,39.0,120,90,3.0,0.0
4525,67.0,0,90,1.0,0.0
4526,37.0,120,90,3.0,0.0
4527,80.0,120,90,0.0,0.0
4528,68.0,0,90,1.0,0.0
4529,36.0,0,90,3.0,0.0
4530,39.0,120,90,3.0,0.0
4531,44.0,120,90,3.0,0.0
4532,43.0,120,90,3.0,0.0
4533,41.0,120,90,3.0,0.0
4534,72.0,95,480,1.0,0.0
4535,81.0,0,480,1.0,0.0
4536,84.0,0,480,0.0,0.0
4537,39.0,120,90,3.0,0.0
4538,37.0,120,90,3.0,0.0
4539,34.0,25,90,3.0,0.0
4540,73.0,0,90,1.0,0.0
4541,82.0,120,90,1.0,0.0
4542,85.0,0,90,0.0,0.0
4543,37.0,0,90,3.0,0.0
4544,34.0,120,90,3.0,0.0
4545,82.0,0,90,0.0,0.0
4546,70.0,0,90,1.0,0.0
4547,79.0,0,90,1.0,0.0
4548,39.0,120,90,3.0,0.0
4549,37.0,120,90,3.0,0.0
4550,36.0,0,90,3.0,0.0
4551,84.0,0,90,0.0,0.0
4552,80.0,120,90,1.0,0.0
4553,72.0,0,90,1.0,0.0
4554,39.0,120,90,3.0,0.0
4555,44.0,120,90,3.0,0.0
4556,43.0,120,90,3.0,0.0
4557,41.0,120,90,3.0,0.0
4558,81.0,0,480,0.0,0.0
4559,72.0,0,480,1.0,0.0
4560,69.0,95,480,1.0,0.0
4561,39.0,120,90,3.0,0.0
4562,37.0,120,90,3.0,0.0
4563,34.0,25,90,3.0,0.0
4564,73.0,0,90,1.0,0.0
4565,70.0,0,90,1.0,0.0
4566,82.0,120,90,0.0,0.0
4567,37.0,0,90,3.0,0.0
4568,34.0,120,90,3.0,0.0
4569,79.0,0,90,0.0,0.0
4570,70.0,0,90,1.0,0.0
4571,39.0,120,90,3.0,0.0
4572,67.0,0,90,1.0,0.0
4573,39.0,120,90,3.0,0.0
4574,72.0,120,90,1.0,0.0
4575,32.0,0,90,3.0,0.0
4576,80.0,0,90,0.0,0.0
4577,68.0,0,90,1.0,0.0
4578,36.0,120,90,3.0,0.0
4579,39.0,120,90,3.0,0.0
4580,37.0,120,90,3.0,0.0
4581,70.0,0,90,1.0,0.0
4582,36.0,120,90,3.0,0.0
4583,79.0,0,90,1.0,0.0
4584,82.0,0,90,0.0,0.0
4585,34.0,120,90,3.0,0.0
4586,72.0,120,90,1.0,0.0
4587,80.0,0,90,1.0,0.0
4588,32.0,0,90,3.0,0.0
4589,84.0,0,90,0.0,0.0
4590,36.0,120,90,3.0,0.0
4591,39.0,120,90,3.0,0.0
4592,37.0,120,90,3.0,0.0
4593,36.0,0,90,3.0,0.0
4594,67.0,0,90,1.0,0.0
4595,70.0,0,90,1.0,0.0
4596,79.0,120,90,0.0,0.0
4597,34.0,120,90,3.0,0.0
4598,32.0,0,90,3.0,0.0
4599,68.0,120,90,1.0,0.0
4600,72.0,0,90,1.0,0.0
4601,80.0,0,90,0.0,0.0
4602,36.0,120,90,3.0,0.0
4603,39.0,120,90,3.0,0.0
4604,37.0,120,90,3.0,0.0
4605,58.0,0,90,1.0,0.0
4606,55.0,0,90,1.0,0.0
4607,67.0,0,90,0.0,0.0
4608,36.0,120,90,3.0,0.0
4609,34.0,120,90,3.0,0.0
4610,68.0,0,90,0.0,0.0
4611,56.0,4585,90,1.0,0.0
4612,32.0,0,90,3.0,0.0
4613,60.0,0,90,1.0,0.0
4614,63.0,120,360,0.0,0.0
4615,51.0,0,15,1.0,0.0
4616,56.0,0,480,0.0,0.0
4617,32.0,0,960,2.0,0.0
4618,63.0,0,15,0.0,0.0
4619,51.0,360,480,1.0,0.0
4620,44.0,8,1920,2.0,0.0
4621,63.0,0,360,0.0,0.0
4622,59.0,0,15,0.0,0.0
4623,56.0,0,360,0.0,0.0
4624,59.0,0,15,0.0,0.0
4625,51.0,120,15,1.0,0.0
4626,56.0,0,120,0.0,0.0
4627,32.0,0,960,2.0,0.0
4628,63.0,0,15,0.0,0.0
4629,56.0,0,360,0.0,0.0
4630,59.0,0,360,0.0,0.0
4631,51.0,0,360,1.0,0.0
4632,59.0,0,120,0.0,0.0
4633,56.0,360,120,0.0,0.0
4634,63.0,0,120,0.0,0.0
4635,51.0,0,15,1.0,0.0
4636,63.0,0,360,0.0,0.0
4637,55.0,0,360,0.0,0.0
4638,58.0,0,360,0.0,0.0
4639,56.0,0,120,0.0,0.0
4640,59.0,0,120,0.0,0.0
4641,39.0,204,270,2.0,0.0
4642,58.0,5,1260,0.0,0.0
4643,51.0,258,15,1.0,0.0
4644,61.0,5,1260,0.0,0.0
4645,63.0,0,15,0.0,0.0
4646,39.0,276,90,2.0,0.0
4647,43.0,204,270,2.0,0.0
4648,46.0,313,90,2.0,0.0
4649,51.0,533,300,2.0,0.0
4650,49.0,0,360,2.0,0.0
4651,51.0,0,360,2.0,0.0
4652,58.0,0,360,0.0,0.0
4653,49.0,480,120,2.0,0.0
4654,51.0,0,120,2.0,0.0
4655,63.0,120,15,0.0,0.0
4656,55.0,0,15,0.0,0.0
4657,58.0,0,120,0.0,0.0
4658,63.0,0,15,0.0,0.0
4659,51.0,0,480,2.0,0.0
4660,47.0,360,480,2.0,0.0
4661,56.0,0,15,0.0,0.0
4662,59.0,0,15,0.0,0.0
4663,51.0,0,15,2.0,0.0
4664,59.0,120,15,0.0,0.0
4665,56.0,0,15,0.0,0.0
4666,63.0,0,15,0.0,0.0
4667,44.0,0,15,2.0,0.0
4668,43.0,0,480,2.0,0.0
4669,61.0,0,480,0.0,0.0
4670,63.0,0,15,0.0,0.0
4671,58.0,0,480,0.0,0.0
4672,63.0,360,15,0.0,0.0
4673,51.0,0,15,2.0,0.0
4674,51.0,0,15,2.0,0.0
4675,63.0,0,15,0.0,0.0
4676,59.0,0,15,0.0,0.0
4677,56.0,0,15,0.0,0.0
4678,44.0,120,15,2.0,0.0
4679,39.0,480,360,2.0,0.0
4680,51.0,0,360,2.0,0.0
4681,55.0,0,360,0.0,0.0
4682,63.0,0,360,0.0,0.0
4683,58.0,0,360,0.0,0.0
4684,63.0,0,360,0.0,0.0
4685,58.0,480,360,0.0,0.0
4686,55.0,0,360,0.0,0.0
4687,51.0,0,360,2.0,0.0
4688,39.0,0,360,2.0,0.0
4689,63.0,0,360,0.0,0.0
4690,39.0,480,360,2.0,0.0
4691,55.0,0,360,0.0,0.0
4692,51.0,0,360,2.0,0.0
4693,58.0,0,360,0.0,0.0
4694,63.0,0,360,0.0,0.0
4695,51.0,120,15,1.0,0.0
4696,44.0,0,1800,2.0,0.0
4697,63.0,480,15,0.0,0.0
4698,32.0,0,960,2.0,0.0
4699,51.0,0,480,1.0,0.0
4700,56.0,0,480,0.0,0.0
4701,59.0,360,15,0.0,0.0
4702,51.0,120,360,1.0,0.0
4703,56.0,0,15,0.0,0.0
4704,63.0,0,15,0.0,0.0
4705,59.0,0,15,0.0,0.0
4706,56.0,0,15,0.0,0.0
4707,51.0,0,15,1.0,0.0
4708,32.0,0,840,2.0,0.0
4709,63.0,0,360,0.0,0.0
4710,59.0,0,15,0.0,0.0
4711,63.0,0,120,0.0,0.0
4712,56.0,360,120,0.0,0.0
4713,51.0,0,120,1.0,0.0
4714,58.0,0,360,0.0,0.0
4715,51.0,0,360,1.0,0.0
4716,54.0,0,360,0.0,0.0
4717,56.0,0,120,0.0,0.0
4718,53.0,0,120,0.0,0.0
4719,63.0,120,15,0.0,0.0
4720,51.0,259,15,1.0,0.0
4721,39.0,204,270,2.0,0.0
4722,54.0,0,1260,0.0,0.0
4723,63.0,10,1260,0.0,0.0
4724,58.0,0,1260,0.0,0.0
4725,39.0,276,90,2.0,0.0
4726,42.0,204,270,2.0,0.0
4727,46.0,317,90,2.0,0.0
4728,51.0,0,300,2.0,0.0
4729,59.0,0,360,0.0,0.0
4730,63.0,0,15,0.0,0.0
4731,54.0,0,15,0.0,0.0
4732,59.0,0,120,0.0,0.0
4733,47.0,120,15,2.0,0.0
4734,56.0,0,480,0.0,0.0
4735,63.0,0,480,0.0,0.0
4736,44.0,0,480,2.0,0.0
4737,61.0,120,360,0.0,0.0
4738,59.0,360,15,0.0,0.0
4739,40.0,0,360,2.0,0.0
4740,40.0,0,120,2.0,0.0
4741,56.0,0,15,0.0,0.0
4742,61.0,480,120,0.0,0.0
4743,59.0,0,15,0.0,0.0
4744,61.0,0,480,0.0,0.0
4745,54.0,0,15,0.0,0.0
4746,52.0,0,360,0.0,0.0
4747,61.0,0,360,0.0,0.0
4748,42.0,360,15,2.0,0.0
4749,30.0,0,360,2.0,0.0
4750,30.0,0,120,2.0,0.0
4751,42.0,0,120,2.0,0.0
4752,54.0,0,15,0.0,0.0
4753,52.0,0,120,0.0,0.0
4754,61.0,360,120,0.0,0.0
4755,58.0,120,15,0.0,0.0
4756,47.0,0,360,2.0,0.0
4757,35.0,0,360,2.0,0.0
4758,51.0,480,360,0.0,0.0
4759,54.0,0,360,0.0,0.0
4760,59.0,0,360,0.0,0.0
4761,59.0,0,360,0.0,0.0
4762,54.0,480,360,0.0,0.0
4763,51.0,0,360,0.0,0.0
4764,35.0,0,360,2.0,0.0
4765,47.0,0,360,2.0,0.0
4766,59.0,0,360,0.0,0.0
4767,54.0,0,360,0.0,0.0
4768,51.0,0,360,0.0,0.0
4769,47.0,0,360,2.0,0.0
4770,35.0,480,360,2.0,0.0
4771,54.0,0,360,1.0,0.0
4772,66.0,120,15,0.0,0.0
4773,66.0,0,15,0.0,0.0
4774,47.0,0,1920,2.0,0.0
4775,59.0,0,480,0.0,0.0
4776,54.0,480,15,1.0,0.0
4777,66.0,0,15,0.0,0.0
4778,62.0,0,15,0.0,0.0
4779,59.0,0,360,0.0,0.0
4780,54.0,360,15,1.0,0.0
4781,66.0,360,120,0.0,0.0
4782,59.0,0,120,0.0,0.0
4783,35.0,0,15,2.0,0.0
4784,54.0,0,15,1.0,0.0
4785,59.0,0,360,0.0,0.0
4786,62.0,0,15,0.0,0.0
4787,59.0,0,120,0.0,0.0
4788,62.0,0,15,0.0,0.0
4789,66.0,120,15,0.0,0.0
4790,61.0,0,360,0.0,0.0
4791,58.0,0,360,0.0,0.0
4792,66.0,0,15,0.0,0.0
4793,54.0,360,15,1.0,0.0
4794,54.0,0,15,1.0,0.0
4795,62.0,0,120,0.0,0.0
4796,59.0,0,120,0.0,0.0
4797,66.0,120,15,0.0,0.0
4798,30.0,0,300,2.0,0.0
4799,42.0,168,300,2.0,0.0
4800,64.0,0,1260,0.0,0.0
4801,54.0,0,15,1.0,0.0
4802,61.0,0,1260,0.0,0.0
4803,66.0,0,1260,0.0,0.0
4804,30.0,0,120,2.0,0.0
4805,42.0,312,120,2.0,0.0
4806,46.0,0,300,2.0,0.0
4807,34.0,168,300,2.0,0.0
4808,49.0,0,120,2.0,0.0
4809,37.0,309,120,2.0,0.0
4810,42.0,5,300,2.0,0.0
4811,54.0,533,300,2.0,0.0
4812,52.0,0,360,2.0,0.0
4813,66.0,0,360,0.0,0.0
4814,58.0,0,360,0.0,0.0
4815,61.0,0,360,0.0,0.0
4816,40.0,0,15,2.0,0.0
4817,61.0,0,120,0.0,0.0
4818,58.0,0,120,0.0,0.0
4819,52.0,0,120,2.0,0.0
4820,54.0,120,15,1.0,0.0
4821,62.0,0,480,0.0,0.0
4822,66.0,480,15,0.0,0.0
4823,50.0,0,480,2.0,0.0
4824,38.0,0,480,2.0,0.0
4825,54.0,0,15,1.0,0.0
4826,35.0,0,360,2.0,0.0
4827,59.0,360,15,0.0,0.0
4828,47.0,0,15,2.0,0.0
4829,54.0,0,15,1.0,0.0
4830,59.0,0,15,0.0,0.0
4831,66.0,0,15,0.0,0.0
4832,62.0,120,15,0.0,0.0
4833,35.0,0,120,2.0,0.0
4834,34.0,360,480,2.0,0.0
4835,54.0,0,480,1.0,0.0
4836,61.0,0,480,0.0,0.0
4837,66.0,480,15,0.0,0.0
4838,64.0,0,480,0.0,0.0
4839,46.0,0,480,2.0,0.0
4840,35.0,0,360,2.0,0.0
4841,47.0,0,360,2.0,0.0
4842,54.0,0,15,1.0,0.0
4843,59.0,0,15,0.0,0.0
4844,66.0,0,15,0.0,0.0
4845,62.0,120,15,0.0,0.0
4846,35.0,0,120,2.0,0.0
4847,47.0,0,120,2.0,0.0
4848,58.0,480,360,0.0,0.0
4849,61.0,0,360,0.0,0.0
4850,30.0,0,360,2.0,0.0
4851,42.0,0,360,2.0,0.0
4852,54.0,0,15,1.0,0.0
4853,66.0,0,360,0.0,0.0
4854,54.0,0,360,1.0,0.0
4855,30.0,0,360,2.0,0.0
4856,66.0,0,360,0.0,0.0
4857,58.0,0,360,0.0,0.0
4858,61.0,480,360,0.0,0.0
4859,42.0,0,360,2.0,0.0
4860,58.0,480,360,0.0,0.0
4861,30.0,0,360,2.0,0.0
4862,42.0,0,360,2.0,0.0
4863,54.0,0,360,1.0,0.0
4864,66.0,0,360,0.0,0.0
4865,61.0,0,360,0.0,0.0
4866,66.0,120,360,0.0,0.0
4867,54.0,0,360,1.0,0.0
4868,66.0,0,120,0.0,0.0
4869,54.0,480,15,1.0,0.0
4870,62.0,0,480,0.0,0.0
4871,47.0,303,1920,2.0,0.0
4872,59.0,0,15,0.0,0.0
4873,66.0,0,15,0.0,0.0
4874,54.0,120,360,1.0,0.0
4875,62.0,0,360,0.0,0.0
4876,66.0,0,120,0.0,0.0
4877,59.0,0,120,0.0,0.0
4878,54.0,0,120,1.0,0.0
4879,62.0,0,15,0.0,0.0
4880,35.0,360,15,2.0,0.0
4881,54.0,0,360,1.0,0.0
4882,62.0,0,15,0.0,0.0
4883,66.0,120,15,0.0,0.0
4884,59.0,0,15,0.0,0.0
4885,52.0,120,360,1.0,0.0
4886,64.0,0,360,0.0,0.0
4887,61.0,0,360,0.0,0.0
4888,59.0,30,330,0.0,0.0
4889,54.0,0,120,1.0,0.0
4890,66.0,0,120,0.0,0.0
4891,62.0,0,120,0.0,0.0
4892,59.0,0,120,0.0,0.0
4893,40.0,168,300,2.0,0.0
4894,59.0,0,1260,0.0,0.0
4895,64.0,0,1260,0.0,0.0
4896,67.0,0,1260,0.0,0.0
4897,55.0,7,1260,1.0,0.0
4898,40.0,312,120,2.0,0.0
4899,43.0,168,300,2.0,0.0
4900,47.0,309,120,2.0,0.0
4901,52.0,533,300,2.0,0.0
4902,55.0,0,360,1.0,0.0
4903,52.0,120,360,2.0,0.0
4904,67.0,0,360,0.0,0.0
4905,64.0,0,360,0.0,0.0
4906,59.0,0,15,0.0,0.0
4907,43.0,0,15,2.0,0.0
4908,55.0,480,120,1.0,0.0
4909,64.0,0,120,0.0,0.0
4910,52.0,0,120,2.0,0.0
4911,67.0,0,120,0.0,0.0
4912,45.0,0,480,2.0,0.0
4913,57.0,0,480,0.0,0.0
4914,66.0,0,480,0.0,0.0
4915,50.0,0,480,2.0,0.0
4916,62.0,0,15,0.0,0.0
4917,54.0,360,15,2.0,0.0
4918,45.0,0,360,2.0,0.0
4919,66.0,120,360,0.0,0.0
4920,57.0,0,360,0.0,0.0
4921,54.0,0,120,2.0,0.0
4922,50.0,0,15,2.0,0.0
4923,57.0,0,120,0.0,0.0
4924,66.0,0,120,0.0,0.0
4925,62.0,480,120,0.0,0.0
4926,57.0,0,480,0.0,0.0
4927,45.0,0,15,2.0,0.0
4928,61.0,0,15,0.0,0.0
4929,57.0,0,360,1.0,0.0
4930,64.0,0,15,0.0,0.0
4931,45.0,360,15,2.0,0.0
4932,52.0,0,15,2.0,0.0
4933,49.0,0,15,2.0,0.0
4934,49.0,0,120,2.0,0.0
4935,45.0,0,120,2.0,0.0
4936,52.0,0,120,2.0,0.0
4937,64.0,0,15,0.0,0.0
4938,61.0,0,120,0.0,0.0
4939,69.0,120,15,0.0,0.0
4940,57.0,0,120,1.0,0.0
4941,50.0,0,360,2.0,0.0
4942,38.0,480,360,2.0,0.0
4943,62.0,0,360,0.0,0.0
4944,62.0,0,360,0.0,0.0
4945,38.0,0,360,2.0,0.0
4946,50.0,480,360,2.0,0.0
4947,38.0,7,360,2.0,0.0
4948,50.0,0,360,2.0,0.0
4949,62.0,473,360,0.0,0.0
4950,71.0,0,360,0.0,0.0
4951,56.0,0,360,2.0,0.0
4952,50.0,0,360,2.0,0.0
4953,65.0,120,360,1.0,0.0
4954,65.0,0,120,1.0,0.0
4955,71.0,480,120,0.0,0.0
4956,50.0,0,15,2.0,0.0
4957,56.0,0,15,2.0,0.0
4958,71.0,480,960,0.0,0.0
4959,50.0,0,480,2.0,0.0
4960,65.0,0,15,1.0,0.0
4961,58.0,0,480,2.0,0.0
4962,50.0,0,480,2.0,0.0
4963,70.0,0,480,0.0,0.0
4964,50.0,0,480,2.0,0.0
4965,59.0,0,480,2.0,0.0
4966,68.0,0,480,0.0,0.0
4967,65.0,199,480,1.0,0.0
4968,67.0,0,210,0.0,0.0
4969,58.0,5,210,2.0,0.0
4970,51.0,0,210,2.0,0.0
4971,63.0,276,210,1.0,0.0
4972,65.0,0,120,1.0,0.0
4973,56.0,0,120,2.0,0.0
4974,50.0,0,120,2.0,0.0
4975,56.0,0,960,2.0,0.0
4976,71.0,480,15,0.0,0.0
4977,65.0,0,960,1.0,0.0
4978,50.0,480,15,2.0,0.0
4979,58.0,0,360,2.0,0.0
4980,70.0,0,360,0.0,0.0
4981,65.0,120,360,1.0,0.0
4982,50.0,360,15,2.0,0.0
4983,65.0,240,120,1.0,0.0
4984,68.0,0,120,0.0,0.0
4985,50.0,0,120,2.0,0.0
4986,59.0,0,120,2.0,0.0
4987,51.0,0,240,2.0,0.0
4988,58.0,0,240,2.0,0.0
4989,67.0,216,240,0.0,0.0
4990,63.0,0,240,1.0,0.0
4991,71.0,312,90,0.0,0.0
4992,56.0,0,90,2.0,0.0
4993,50.0,0,90,2.0,0.0
4994,65.0,0,90,1.0,0.0
4995,56.0,0,300,2.0,0.0
4996,71.0,0,300,0.0,0.0
4997,65.0,168,300,1.0,0.0
4998,50.0,0,300,2.0,0.0
4999,56.0,0,90,2.0,0.0
5000,71.0,0,90,0.0,0.0
5001,65.0,0,90,1.0,0.0
5002,50.0,312,90,2.0,0.0
5003,65.0,168,300,1.0,0.0
5004,56.0,0,300,2.0,0.0
5005,50.0,0,300,2.0,0.0
5006,71.0,0,300,0.0,0.0
5007,71.0,0,90,0.0,0.0
5008,65.0,0,90,1.0,0.0
5009,50.0,0,90,2.0,0.0
5010,56.0,312,90,2.0,0.0
5011,50.0,0,300,2.0,0.0
5012,65.0,168,300,1.0,0.0
5013,58.0,0,300,2.0,0.0
5014,70.0,0,300,0.0,0.0
5015,68.0,0,90,0.0,0.0
5016,50.0,216,90,2.0,0.0
5017,59.0,0,90,2.0,0.0
5018,65.0,0,90,1.0,0.0
5019,51.0,0,180,2.0,0.0
5020,63.0,1248,180,1.0,0.0
5021,67.0,0,180,0.0,0.0
5022,58.0,0,180,2.0,0.0
5023,64.0,96,960,0.0,0.0
5024,52.0,0,960,2.0,0.0
5025,51.0,120,90,2.0,0.0
5026,63.0,0,90,0.0,0.0
5027,49.0,0,90,2.0,0.0
5028,61.0,120,90,0.0,0.0
5029,59.0,0,90,0.0,0.0
5030,47.0,120,90,2.0,0.0
5031,46.0,0,90,2.0,0.0
5032,58.0,504,90,0.0,0.0
5033,32.0,360,960,2.0,0.0
5034,44.0,0,1920,2.0,0.0
5035,56.0,360,480,0.0,0.0
5036,56.0,0,360,0.0,0.0
5037,59.0,0,360,0.0,0.0
5038,63.0,0,360,0.0,0.0
5039,59.0,0,120,0.0,0.0
5040,51.0,120,15,1.0,0.0
5041,51.0,0,15,1.0,0.0
5042,63.0,0,15,0.0,0.0
5043,56.0,0,15,0.0,0.0
5044,32.0,0,960,2.0,0.0
5045,51.0,360,120,1.0,0.0
5046,56.0,0,15,0.0,0.0
5047,63.0,0,120,0.0,0.0
5048,59.0,120,15,0.0,0.0
5049,58.0,120,360,0.0,0.0
5050,55.0,0,360,0.0,0.0
5051,63.0,0,360,0.0,0.0
5052,51.0,0,360,1.0,0.0
5053,63.0,0,120,0.0,0.0
5054,56.0,0,120,0.0,0.0
5055,59.0,0,120,0.0,0.0
5056,39.0,204,270,2.0,0.0
5057,58.0,7,1320,0.0,0.0
5058,61.0,0,1320,0.0,0.0
5059,51.0,259,15,1.0,0.0
5060,63.0,0,1320,0.0,0.0
5061,39.0,276,90,2.0,0.0
5062,43.0,204,270,2.0,0.0
5063,46.0,324,90,2.0,0.0
5064,51.0,53,300,2.0,0.0
5065,63.0,0,360,0.0,0.0
5066,49.0,120,360,2.0,0.0
5067,55.0,0,15,0.0,0.0
5068,58.0,0,15,0.0,0.0
5069,49.0,0,120,2.0,0.0
5070,63.0,0,120,0.0,0.0
5071,47.0,60,90,2.0,0.0
5072,63.0,0,480,0.0,0.0
5073,56.0,0,480,0.0,0.0
5074,49.0,60,90,2.0,0.0
5075,47.0,60,90,2.0,0.0
5076,49.0,60,90,2.0,0.0
5077,47.0,60,90,2.0,0.0
5078,49.0,60,90,2.0,0.0
5079,47.0,20,90,2.0,0.0
5080,49.0,80,90,2.0,0.0
5081,59.0,40,15,0.0,0.0
5082,56.0,0,360,0.0,0.0
5083,63.0,0,360,0.0,0.0
5084,47.0,80,120,2.0,0.0
5085,49.0,80,120,2.0,0.0
5086,47.0,80,120,2.0,0.0
5087,46.0,92,150,2.0,0.0
5088,44.0,0,120,2.0,0.0
5089,59.0,28,15,0.0,0.0
5090,56.0,0,120,0.0,0.0
5091,58.0,360,480,0.0,0.0
5092,63.0,0,15,0.0,0.0
5093,61.0,0,480,0.0,0.0
5094,43.0,0,480,2.0,0.0
5095,63.0,0,15,0.0,0.0
5096,63.0,0,120,0.0,0.0
5097,56.0,120,15,0.0,0.0
5098,59.0,0,15,0.0,0.0
5099,44.0,0,15,2.0,0.0
5100,55.0,0,360,0.0,0.0
5101,39.0,480,360,2.0,0.0
5102,63.0,0,360,0.0,0.0
5103,58.0,0,360,0.0,0.0
5104,55.0,480,360,0.0,0.0
5105,58.0,0,360,0.0,0.0
5106,63.0,0,360,0.0,0.0
5107,39.0,0,360,2.0,0.0
5108,55.0,0,360,0.0,0.0
5109,58.0,0,360,0.0,0.0
5110,63.0,0,360,0.0,0.0
5111,39.0,480,360,2.0,0.0
5112,63.0,0,15,0.0,0.0
5113,51.0,120,15,1.0,0.0
5114,51.0,0,15,1.0,0.0
5115,63.0,480,15,0.0,0.0
5116,44.0,0,1920,2.0,0.0
5117,60.0,360,480,0.0,0.0
5118,56.0,0,480,0.0,0.0
5119,32.0,0,960,2.0,0.0
5120,63.0,0,360,0.0,0.0
5121,51.0,0,15,1.0,0.0
5122,60.0,120,15,0.0,0.0
5123,56.0,0,15,0.0,0.0
5124,63.0,0,15,0.0,0.0
5125,32.0,0,960,2.0,0.0
5126,51.0,0,15,1.0,0.0
5127,60.0,0,15,0.0,0.0
5128,63.0,0,15,0.0,0.0
5129,56.0,120,15,0.0,0.0
5130,51.0,0,15,1.0,0.0
5131,63.0,0,15,0.0,0.0
5132,58.0,0,360,0.0,0.0
5133,51.0,360,15,1.0,0.0
5134,51.0,0,15,1.0,0.0
5135,56.0,0,15,0.0,0.0
5136,60.0,303,120,0.0,0.0
5137,63.0,120,15,0.0,0.0
5138,37.0,168,300,2.0,0.0
5139,37.0,312,120,2.0,0.0
5140,40.0,168,300,2.0,0.0
5141,44.0,309,120,2.0,0.0
5142,49.0,180,300,2.0,0.0
5143,56.0,0,15,0.0,0.0
5144,64.0,0,15,0.0,0.0
5145,61.0,0,15,0.0,0.0
5146,52.0,360,15,1.0,0.0
5147,64.0,360,1440,0.0,0.0
5148,73.0,0,1440,0.0,0.0
5149,69.0,0,1440,0.0,0.0
5150,61.0,337,120,1.0,0.0
5151,33.0,0,120,2.0,0.0
5152,45.0,312,120,2.0,0.0
5153,49.0,0,300,2.0,0.0
5154,37.0,168,300,2.0,0.0
5155,40.0,369,120,2.0,0.0
5156,52.0,0,120,2.0,0.0
5157,45.0,0,360,2.0,0.0
5158,57.0,120,360,2.0,0.0
5159,69.0,591,360,0.0,0.0
5160,73.0,0,360,0.0,0.0
5161,64.0,0,360,0.0,0.0
5162,61.0,0,360,1.0,0.0
5163,70.0,0,1440,1.0,0.0
5164,82.0,0,1440,0.0,0.0
5165,73.0,240,1440,0.0,0.0
5166,43.0,0,120,2.0,0.0
5167,55.0,312,120,2.0,0.0
5168,58.0,0,300,2.0,0.0
5169,46.0,168,300,2.0,0.0
5170,63.0,0,120,2.0,0.0
5171,51.0,249,120,2.0,0.0
5172,55.0,240,240,2.0,0.0
5173,67.0,0,240,2.0,0.0
5174,70.0,0,360,1.0,0.0
5175,75.0,0,15,0.0,0.0
5176,82.0,360,360,0.0,0.0
5177,73.0,0,360,0.0,0.0
5178,43.0,120,240,2.0,0.0
5179,55.0,0,240,2.0,0.0
5180,83.0,0,240,0.0,0.0
5181,75.0,0,240,0.0,0.0
5182,71.0,0,240,1.0,0.0
5183,44.0,0,240,2.0,0.0
5184,56.0,960,240,2.0,0.0
5185,76.0,0,240,0.0,0.0
5186,82.0,480,240,0.0,0.0
5187,73.0,0,240,0.0,0.0
5188,70.0,0,240,1.0,0.0
5189,49.0,0,240,2.0,0.0
5190,37.0,0,240,2.0,0.0
5191,39.0,0,240,2.0,0.0
5192,79.0,0,240,0.0,0.0
5193,51.0,0,240,2.0,0.0
5194,67.0,0,240,1.0,0.0
5195,73.0,0,240,0.0,0.0
5196,70.0,480,240,0.0,0.0
5197,80.0,0,240,0.0,0.0
5198,71.0,0,240,0.0,0.0
5199,68.0,0,240,1.0,0.0
5200,44.0,480,240,2.0,0.0
5201,32.0,0,240,2.0,0.0
5202,44.0,528,240,2.0,0.0
5203,32.0,0,240,2.0,0.0
5204,51.0,0,240,1.0,0.0
5205,47.0,0,240,1.0,0.0
5206,56.0,0,240,0.0,0.0
5207,44.0,0,300,0.0,0.0
5208,32.0,732,300,2.0,0.0
5209,32.0,0,60,2.0,0.0
5210,60.0,60,60,0.0,0.0
5211,51.0,60,60,0.0,0.0
5212,44.0,0,60,2.0,0.0
5213,60.0,0,60,0.0,0.0
5214,32.0,60,60,2.0,0.0
5215,51.0,60,60,0.0,0.0
5216,44.0,0,60,2.0,0.0
5217,32.0,60,60,2.0,0.0
5218,60.0,0,60,0.0,0.0
5219,51.0,0,60,0.0,0.0
5220,44.0,60,60,2.0,0.0
5221,32.0,0,60,2.0,0.0
5222,60.0,60,60,0.0,0.0
5223,44.0,60,60,2.0,0.0
5224,51.0,0,60,0.0,0.0
5225,32.0,0,60,2.0,0.0
5226,60.0,60,60,0.0,0.0
5227,44.0,60,60,2.0,0.0
5228,51.0,0,60,0.0,0.0
5229,32.0,60,60,2.0,0.0
5230,60.0,0,60,0.0,0.0
5231,44.0,60,60,2.0,0.0
5232,51.0,0,60,0.0,0.0
5233,60.0,60,60,0.0,0.0
5234,32.0,0,60,2.0,0.0
5235,44.0,0,60,2.0,0.0
5236,51.0,60,60,0.0,0.0
5237,32.0,60,60,2.0,0.0
5238,60.0,0,60,0.0,0.0
5239,51.0,0,60,0.0,0.0
5240,44.0,60,60,2.0,0.0
5241,32.0,360,60,2.0,0.0
5242,48.0,0,60,0.0,0.0
5243,56.0,0,60,0.0,0.0
5244,68.0,0,60,0.0,0.0
5245,56.0,180,60,2.0,0.0
5246,72.0,0,60,0.0,0.0
5247,60.0,0,60,2.0,0.0
5248,72.0,0,120,0.0,0.0
5249,75.0,0,120,0.0,0.0
5250,63.0,420,120,2.0,0.0
5251,60.0,0,120,2.0,0.0
5252,60.0,0,60,0.0,0.0
5253,32.0,60,60,2.0,0.0
5254,51.0,60,60,0.0,0.0
5255,44.0,0,60,2.0,0.0
5256,32.0,0,60,2.0,0.0
5257,60.0,60,60,0.0,0.0
5258,44.0,0,60,2.0,0.0
5259,51.0,60,60,0.0,0.0
5260,32.0,60,60,2.0,0.0
5261,60.0,0,60,0.0,0.0
5262,51.0,0,60,0.0,0.0
5263,44.0,60,60,2.0,0.0
5264,32.0,60,60,2.0,0.0
5265,60.0,0,60,0.0,0.0
5266,51.0,0,60,0.0,0.0
5267,44.0,60,60,2.0,0.0
5268,60.0,0,60,0.0,0.0
5269,32.0,60,60,2.0,0.0
5270,51.0,60,60,0.0,0.0
5271,44.0,0,60,2.0,0.0
5272,32.0,0,60,2.0,0.0
5273,60.0,60,60,0.0,0.0
5274,44.0,60,60,2.0,0.0
5275,51.0,0,60,0.0,0.0
5276,32.0,0,60,2.0,0.0
5277,60.0,60,60,0.0,0.0
5278,44.0,60,60,2.0,0.0
5279,51.0,0,60,0.0,0.0
5280,32.0,0,60,2.0,0.0
5281,60.0,60,60,0.0,0.0
5282,44.0,60,60,2.0,0.0
5283,51.0,0,60,0.0,0.0
5284,56.0,0,60,0.0,0.0
5285,48.0,0,60,0.0,0.0
5286,32.0,360,60,2.0,0.0
5287,56.0,180,60,2.0,0.0
5288,72.0,0,60,0.0,0.0
5289,68.0,0,60,0.0,0.0
5290,60.0,0,60,2.0,0.0
5291,63.0,0,120,2.0,0.0
5292,75.0,0,120,0.0,0.0
5293,72.0,480,120,0.0,0.0
5294,60.0,0,120,2.0,0.0
5295,46.0,0,120,2.0,0.0
5296,34.0,300,120,2.0,0.0
5297,58.0,0,120,0.0,0.0
5298,75.0,180,60,0.0,0.0
5299,63.0,0,60,2.0,0.0
5300,67.0,0,60,2.0,0.0
5301,79.0,0,60,0.0,0.0
5302,70.0,0,120,2.0,0.0
5303,82.0,480,120,0.0,0.0
5304,46.0,300,120,2.0,0.0
5305,34.0,0,120,2.0,0.0
5306,58.0,0,120,0.0,0.0
5307,77.0,0,60,0.0,0.0
5308,74.0,0,60,0.0,0.0
5309,65.0,0,60,2.0,0.0
5310,62.0,180,60,2.0,0.0
5311,70.0,300,120,2.0,0.0
5312,82.0,0,120,0.0,0.0
5313,58.0,0,60,2.0,0.0
5314,70.0,180,60,0.0,0.0
5315,46.0,0,60,2.0,0.0
5316,75.0,300,120,0.0,0.0
5317,51.0,0,120,2.0,0.0
5318,63.0,0,120,2.0,0.0
5319,58.0,180,60,0.0,0.0
5320,39.0,300,120,2.0,0.0
5321,46.0,0,120,2.0,0.0
5322,43.0,0,120,2.0,0.0
5323,51.0,0,120,2.0,0.0
5324,63.0,0,120,0.0,0.0
5325,46.0,180,60,0.0,0.0
5326,39.0,0,120,2.0,0.0
5327,43.0,0,120,2.0,0.0
5328,51.0,900,120,0.0,0.0
5329,32.0,0,60,2.0,0.0
5330,60.0,60,60,0.0,0.0
5331,44.0,0,60,2.0,0.0
5332,51.0,60,60,0.0,0.0
5333,32.0,0,60,2.0,0.0
5334,60.0,60,60,0.0,0.0
5335,44.0,0,60,2.0,0.0
5336,51.0,60,60,0.0,0.0
5337,60.0,60,60,0.0,0.0
5338,32.0,0,60,2.0,0.0
5339,51.0,0,60,0.0,0.0
5340,44.0,60,60,2.0,0.0
5341,32.0,60,60,2.0,0.0
5342,60.0,0,60,0.0,0.0
5343,44.0,60,60,2.0,0.0
5344,51.0,0,60,0.0,0.0
5345,60.0,0,60,0.0,0.0
5346,32.0,60,60,2.0,0.0
5347,44.0,0,60,2.0,0.0
5348,51.0,60,60,0.0,0.0
5349,60.0,0,60,0.0,0.0
5350,32.0,60,60,2.0,0.0
5351,51.0,60,60,0.0,0.0
5352,44.0,0,60,2.0,0.0
5353,60.0,0,60,0.0,0.0
5354,32.0,60,60,2.0,0.0
5355,51.0,0,60,0.0,0.0
5356,44.0,60,60,2.0,0.0
5357,60.0,60,60,0.0,0.0
5358,32.0,0,60,2.0,0.0
5359,44.0,0,60,2.0,0.0
5360,51.0,60,60,0.0,0.0
5361,32.0,0,60,2.0,0.0
5362,56.0,0,60,0.0,0.0
5363,48.0,360,60,0.0,0.0
5364,72.0,0,60,0.0,0.0
5365,68.0,180,60,0.0,0.0
5366,56.0,0,60,2.0,0.0
5367,60.0,0,60,2.0,0.0
5368,60.0,0,120,2.0,0.0
5369,75.0,420,120,0.0,0.0
5370,72.0,0,120,0.0,0.0
5371,63.0,0,120,2.0,0.0
5372,60.0,0,60,0.0,0.0
5373,32.0,60,60,2.0,0.0
5374,51.0,0,60,0.0,0.0
5375,44.0,60,60,2.0,0.0
5376,60.0,0,60,0.0,0.0
5377,32.0,60,60,2.0,0.0
5378,44.0,60,60,2.0,0.0
5379,51.0,0,60,0.0,0.0
5380,60.0,60,60,0.0,0.0
5381,32.0,0,60,2.0,0.0
5382,44.0,60,60,2.0,0.0
5383,51.0,0,60,0.0,0.0
5384,32.0,60,60,2.0,0.0
5385,60.0,0,60,0.0,0.0
5386,44.0,60,60,2.0,0.0
5387,51.0,0,60,0.0,0.0
5388,60.0,60,60,0.0,0.0
5389,32.0,0,60,2.0,0.0
5390,51.0,0,60,0.0,0.0
5391,44.0,60,60,2.0,0.0
5392,60.0,60,60,0.0,0.0
5393,32.0,0,60,2.0,0.0
5394,51.0,60,60,0.0,0.0
5395,44.0,0,60,2.0,0.0
5396,60.0,0,60,0.0,0.0
5397,32.0,60,60,2.0,0.0
5398,51.0,0,60,0.0,0.0
5399,44.0,60,60,2.0,0.0
5400,60.0,0,60,0.0,0.0
5401,32.0,60,60,2.0,0.0
5402,51.0,60,60,0.0,0.0
5403,44.0,0,60,2.0,0.0
5404,56.0,0,60,0.0,0.0
5405,32.0,0,60,2.0,0.0
5406,48.0,360,60,0.0,0.0
5407,68.0,0,60,0.0,0.0
5408,72.0,0,60,0.0,0.0
5409,60.0,0,60,2.0,0.0
5410,56.0,180,60,2.0,0.0
5411,63.0,480,120,2.0,0.0
5412,60.0,0,120,2.0,0.0
5413,72.0,0,120,0.0,0.0
5414,75.0,0,120,0.0,0.0
5415,58.0,0,120,0.0,0.0
5416,46.0,0,120,2.0,0.0
5417,34.0,300,120,2.0,0.0
5418,67.0,180,60,2.0,0.0
5419,75.0,0,60,0.0,0.0
5420,79.0,0,60,0.0,0.0
5421,63.0,0,60,2.0,0.0
5422,82.0,480,120,0.0,0.0
5423,70.0,0,120,2.0,0.0
5424,58.0,300,120,0.0,0.0
5425,34.0,0,120,2.0,0.0
5426,46.0,0,120,2.0,0.0
5427,62.0,0,60,2.0,0.0
5428,77.0,0,60,0.0,0.0
5429,74.0,0,60,0.0,0.0
5430,65.0,180,60,2.0,0.0
5431,82.0,0,120,0.0,0.0
5432,70.0,300,120,2.0,0.0
5433,70.0,180,60,0.0,0.0
5434,46.0,0,60,2.0,0.0
5435,58.0,0,60,2.0,0.0
5436,51.0,300,120,2.0,0.0
5437,63.0,0,120,2.0,0.0
5438,75.0,0,120,0.0,0.0
5439,58.0,180,60,0.0,0.0
5440,46.0,0,120,2.0,0.0
5441,43.0,0,120,2.0,0.0
5442,39.0,0,120,2.0,0.0
5443,51.0,300,120,2.0,0.0
5444,63.0,0,120,0.0,0.0
5445,46.0,180,60,0.0,0.0
5446,51.0,0,120,0.0,0.0
5447,39.0,900,120,2.0,0.0
5448,43.0,0,120,2.0,0.0
5449,61.0,0,60,0.0,0.0
5450,39.0,60,60,2.0,0.0
5451,51.0,0,60,2.0,0.0
5452,58.0,60,60,0.0,0.0
5453,39.0,0,60,2.0,0.0
5454,61.0,60,60,0.0,0.0
5455,51.0,0,60,2.0,0.0
5456,58.0,60,60,0.0,0.0
5457,39.0,60,60,2.0,0.0
5458,61.0,0,60,0.0,0.0
5459,58.0,0,60,0.0,0.0
5460,51.0,60,60,2.0,0.0
5461,61.0,60,60,0.0,0.0
5462,39.0,0,60,2.0,0.0
5463,58.0,0,60,0.0,0.0
5464,51.0,60,60,2.0,0.0
5465,39.0,0,60,2.0,0.0
5466,61.0,60,60,0.0,0.0
5467,51.0,0,60,2.0,0.0
5468,58.0,60,60,0.0,0.0
5469,61.0,60,60,0.0,0.0
5470,39.0,0,60,2.0,0.0
5471,51.0,0,60,2.0,0.0
5472,58.0,60,60,0.0,0.0
5473,39.0,60,60,2.0,0.0
5474,61.0,0,60,0.0,0.0
5475,58.0,60,60,0.0,0.0
5476,51.0,0,60,2.0,0.0
5477,39.0,60,60,2.0,0.0
5478,61.0,0,60,0.0,0.0
5479,51.0,0,60,2.0,0.0
5480,39.0,360,60,2.0,0.0
5481,58.0,60,15,0.0,0.0
5482,55.0,0,60,0.0,0.0
5483,67.0,0,60,0.0,0.0
5484,70.0,0,60,0.0,0.0
5485,55.0,180,60,2.0,0.0
5486,58.0,0,60,2.0,0.0
5487,58.0,0,120,2.0,0.0
5488,61.0,0,120,2.0,0.0
5489,70.0,420,120,0.0,0.0
5490,73.0,0,120,0.0,0.0
5491,61.0,60,60,0.0,0.0
5492,39.0,0,60,2.0,0.0
5493,51.0,60,60,2.0,0.0
5494,58.0,0,60,0.0,0.0
5495,61.0,0,60,0.0,0.0
5496,39.0,60,60,2.0,0.0
5497,58.0,0,60,0.0,0.0
5498,51.0,60,60,2.0,0.0
5499,61.0,0,60,0.0,0.0
5500,39.0,60,60,2.0,0.0
5501,51.0,0,60,2.0,0.0
5502,58.0,60,60,0.0,0.0
5503,61.0,60,60,0.0,0.0
5504,39.0,0,60,2.0,0.0
5505,51.0,0,60,2.0,0.0
5506,58.0,60,60,0.0,0.0
5507,61.0,0,60,0.0,0.0
5508,39.0,60,60,2.0,0.0
5509,58.0,60,60,0.0,0.0
5510,51.0,0,60,2.0,0.0
5511,61.0,60,60,0.0,0.0
5512,39.0,0,60,2.0,0.0
5513,51.0,60,60,2.0,0.0
5514,58.0,0,60,0.0,0.0
5515,61.0,0,60,0.0,0.0
5516,39.0,60,60,2.0,0.0
5517,58.0,60,60,0.0,0.0
5518,51.0,0,60,2.0,0.0
5519,61.0,60,60,0.0,0.0
5520,39.0,0,60,2.0,0.0
5521,51.0,0,60,2.0,0.0
5522,58.0,60,60,0.0,0.0
5523,39.0,360,60,2.0,0.0
5524,58.0,0,60,0.0,0.0
5525,55.0,0,60,0.0,0.0
5526,79.0,0,60,0.0,0.0
5527,82.0,0,60,0.0,0.0
5528,70.0,180,60,2.0,0.0
5529,67.0,0,60,2.0,0.0
5530,82.0,0,120,0.0,0.0
5531,85.0,0,120,0.0,0.0
5532,70.0,0,120,2.0,0.0
5533,73.0,480,120,2.0,0.0
5534,68.0,0,120,0.0,0.0
5535,32.0,300,120,2.0,0.0
5536,56.0,0,120,2.0,0.0
5537,44.0,0,120,2.0,0.0
5538,84.0,180,60,0.0,0.0
5539,80.0,0,60,0.0,0.0
5540,72.0,0,60,2.0,0.0
5541,68.0,0,60,2.0,0.0
5542,75.0,0,120,2.0,0.0
5543,87.0,480,120,0.0,0.0
5544,63.0,0,120,0.0,0.0
5545,39.0,300,120,2.0,0.0
5546,51.0,0,120,2.0,0.0
5547,27.0,0,120,2.0,0.0
5548,82.0,0,60,0.0,0.0
5549,70.0,0,60,2.0,0.0
5550,67.0,180,60,2.0,0.0
5551,79.0,0,60,0.0,0.0
5552,87.0,300,120,0.0,0.0
5553,75.0,0,120,2.0,0.0
5554,75.0,180,60,0.0,0.0
5555,56.0,0,120,2.0,0.0
5556,68.0,300,120,2.0,0.0
5557,80.0,0,120,0.0,0.0
5558,63.0,180,60,0.0,0.0
5559,44.0,0,120,2.0,0.0
5560,48.0,0,120,2.0,0.0
5561,56.0,0,120,2.0,0.0
5562,68.0,300,120,0.0,0.0
5563,51.0,0,120,2.0,0.0
5564,51.0,180,60,0.0,0.0
5565,32.0,0,120,2.0,0.0
5566,44.0,900,120,2.0,0.0
5567,39.0,0,120,2.0,0.0
5568,36.0,0,120,2.0,0.0
5569,56.0,0,120,0.0,0.0
5570,39.0,60,60,2.0,0.0
5571,61.0,0,60,0.0,0.0
5572,51.0,60,60,2.0,0.0
5573,58.0,0,60,0.0,0.0
5574,61.0,60,60,0.0,0.0
5575,39.0,0,60,2.0,0.0
5576,51.0,0,60,2.0,0.0
5577,58.0,60,60,0.0,0.0
5578,61.0,0,60,0.0,0.0
5579,39.0,60,60,2.0,0.0
5580,58.0,0,60,0.0,0.0
5581,51.0,60,60,2.0,0.0
5582,39.0,60,60,2.0,0.0
5583,61.0,0,60,0.0,0.0
5584,58.0,0,60,0.0,0.0
5585,51.0,60,60,2.0,0.0
5586,39.0,60,60,2.0,0.0
5587,61.0,0,60,0.0,0.0
5588,58.0,60,60,0.0,0.0
5589,51.0,0,60,2.0,0.0
5590,39.0,0,60,2.0,0.0
5591,61.0,60,60,0.0,0.0
5592,51.0,60,60,2.0,0.0
5593,58.0,0,60,0.0,0.0
5594,39.0,0,60,2.0,0.0
5595,61.0,60,60,0.0,0.0
5596,58.0,0,60,0.0,0.0
5597,51.0,60,60,2.0,0.0
5598,61.0,0,60,0.0,0.0
5599,39.0,60,60,2.0,0.0
5600,51.0,0,60,2.0,0.0
5601,39.0,360,60,2.0,0.0
5602,58.0,60,15,0.0,0.0
5603,55.0,0,60,0.0,0.0
5604,70.0,0,60,0.0,0.0
5605,67.0,180,60,0.0,0.0
5606,58.0,0,60,2.0,0.0
5607,55.0,0,60,2.0,0.0
5608,61.0,0,120,2.0,0.0
5609,58.0,420,120,2.0,0.0
5610,70.0,0,120,0.0,0.0
5611,73.0,0,120,0.0,0.0
5612,39.0,60,60,2.0,0.0
5613,61.0,0,60,0.0,0.0
5614,51.0,0,60,2.0,0.0
5615,58.0,60,60,0.0,0.0
5616,39.0,0,60,2.0,0.0
5617,61.0,60,60,0.0,0.0
5618,51.0,0,60,2.0,0.0
5619,58.0,60,60,0.0,0.0
5620,39.0,0,60,2.0,0.0
5621,61.0,60,60,0.0,0.0
5622,51.0,60,60,2.0,0.0
5623,58.0,0,60,0.0,0.0
5624,61.0,60,60,0.0,0.0
5625,39.0,0,60,2.0,0.0
5626,58.0,60,60,0.0,0.0
5627,51.0,0,60,2.0,0.0
5628,39.0,0,60,2.0,0.0
5629,61.0,60,60,0.0,0.0
5630,51.0,0,60,2.0,0.0
5631,58.0,60,60,0.0,0.0
5632,39.0,60,60,2.0,0.0
5633,61.0,0,60,0.0,0.0
5634,58.0,60,60,0.0,0.0
5635,51.0,0,60,2.0,0.0
5636,61.0,0,60,0.0,0.0
5637,39.0,60,60,2.0,0.0
5638,51.0,0,60,2.0,0.0
5639,58.0,60,60,0.0,0.0
5640,39.0,0,60,2.0,0.0
5641,61.0,60,60,0.0,0.0
5642,58.0,0,60,0.0,0.0
5643,51.0,60,60,2.0,0.0
5644,55.0,0,60,0.0,0.0
5645,39.0,0,60,2.0,0.0
5646,58.0,360,60,0.0,0.0
5647,79.0,180,60,0.0,0.0
5648,67.0,0,60,2.0,0.0
5649,70.0,0,60,2.0,0.0
5650,82.0,0,60,0.0,0.0
5651,85.0,0,120,0.0,0.0
5652,73.0,0,120,2.0,0.0
5653,82.0,480,120,0.0,0.0
5654,70.0,0,120,2.0,0.0
5655,44.0,300,120,2.0,0.0
5656,56.0,0,120,2.0,0.0
5657,32.0,0,120,2.0,0.0
5658,68.0,0,120,0.0,0.0
5659,80.0,0,60,0.0,0.0
5660,84.0,0,60,0.0,0.0
5661,72.0,180,60,2.0,0.0
5662,68.0,0,60,2.0,0.0
5663,87.0,480,120,0.0,0.0
5664,75.0,0,120,2.0,0.0
5665,63.0,0,120,0.0,0.0
5666,39.0,0,120,2.0,0.0
5667,51.0,300,120,2.0,0.0
5668,27.0,0,120,2.0,0.0
5669,79.0,180,60,0.0,0.0
5670,70.0,0,60,2.0,0.0
5671,67.0,0,60,2.0,0.0
5672,82.0,0,60,0.0,0.0
5673,75.0,300,120,2.0,0.0
5674,87.0,0,120,0.0,0.0
5675,75.0,180,60,0.0,0.0
5676,68.0,0,120,2.0,0.0
5677,80.0,0,120,0.0,0.0
5678,56.0,300,120,2.0,0.0
5679,63.0,180,60,0.0,0.0
5680,68.0,0,120,0.0,0.0
5681,44.0,0,120,2.0,0.0
5682,56.0,300,120,2.0,0.0
5683,48.0,0,120,2.0,0.0
5684,51.0,0,120,2.0,0.0
5685,51.0,180,60,0.0,0.0
5686,39.0,0,120,2.0,0.0
5687,56.0,0,120,0.0,0.0
5688,36.0,720,120,2.0,0.0
5689,44.0,0,120,2.0,0.0
5690,32.0,0,120,2.0,0.0
5691,51.0,0,360,1.0,0.0
5692,63.0,120,15,0.0,0.0
5693,63.0,0,15,0.0,0.0
5694,51.0,480,15,1.0,0.0
5695,44.0,0,1920,2.0,0.0
5696,56.0,0,480,0.0,0.0
5697,51.0,0,15,1.0,0.0
5698,56.0,0,360,0.0,0.0
5699,59.0,360,15,0.0,0.0
5700,63.0,0,15,0.0,0.0
5701,51.0,120,15,1.0,0.0
5702,59.0,0,120,0.0,0.0
5703,63.0,0,15,0.0,0.0
5704,56.0,360,15,0.0,0.0
5705,32.0,0,15,2.0,0.0
5706,51.0,0,360,1.0,0.0
5707,56.0,0,15,0.0,0.0
5708,63.0,120,15,0.0,0.0
5709,59.0,0,15,0.0,0.0
5710,55.0,0,360,0.0,0.0
5711,51.0,360,15,1.0,0.0
5712,58.0,0,360,0.0,0.0
5713,51.0,0,15,1.0,0.0
5714,63.0,120,15,0.0,0.0
5715,56.0,258,120,0.0,0.0
5716,59.0,0,120,0.0,0.0
5717,51.0,0,15,1.0,0.0
5718,63.0,0,15,0.0,0.0
5719,61.0,473,1320,0.0,0.0
5720,58.0,15,1320,0.0,0.0
5721,39.0,204,270,2.0,0.0
5722,39.0,276,90,2.0,0.0
5723,43.0,204,270,2.0,0.0
5724,46.0,318,90,2.0,0.0
5725,51.0,45,300,2.0,0.0
5726,55.0,0,360,0.0,0.0
5727,63.0,0,360,0.0,0.0
5728,58.0,0,360,0.0,0.0
5729,58.0,0,120,0.0,0.0
5730,55.0,0,120,0.0,0.0
5731,49.0,120,15,2.0,0.0
5732,51.0,0,15,2.0,0.0
5733,59.0,0,480,0.0,0.0
5734,56.0,0,480,0.0,0.0
5735,63.0,0,15,0.0,0.0
5736,51.0,0,15,2.0,0.0
5737,47.0,360,480,2.0,0.0
5738,59.0,0,360,0.0,0.0
5739,56.0,0,360,0.0,0.0
5740,44.0,120,15,2.0,0.0
5741,59.0,0,120,0.0,0.0
5742,56.0,0,120,0.0,0.0
5743,63.0,0,15,0.0,0.0
5744,51.0,0,15,2.0,0.0
5745,63.0,0,15,0.0,0.0
5746,58.0,0,480,0.0,0.0
5747,61.0,0,480,0.0,0.0
5748,51.0,360,480,2.0,0.0
5749,43.0,0,480,2.0,0.0
5750,63.0,0,15,0.0,0.0
5751,59.0,120,360,0.0,0.0
5752,51.0,0,360,2.0,0.0
5753,44.0,0,360,2.0,0.0
5754,56.0,0,15,0.0,0.0
5755,63.0,0,15,0.0,0.0
5756,44.0,0,120,2.0,0.0
5757,59.0,0,120,0.0,0.0
5758,51.0,0,15,2.0,0.0
5759,39.0,0,360,2.0,0.0
5760,63.0,0,360,0.0,0.0
5761,55.0,0,360,0.0,0.0
5762,58.0,0,360,0.0,0.0
5763,55.0,480,360,0.0,0.0
5764,58.0,0,360,0.0,0.0
5765,63.0,0,360,0.0,0.0
5766,39.0,0,360,2.0,0.0
5767,51.0,0,360,2.0,0.0
5768,55.0,0,360,0.0,0.0
5769,51.0,0,360,2.0,0.0
5770,39.0,0,360,2.0,0.0
5771,58.0,480,360,0.0,0.0
5772,63.0,0,360,0.0,0.0
5773,63.0,0,360,0.0,0.0
5774,51.0,120,360,1.0,0.0
5775,51.0,0,15,1.0,0.0
5776,32.0,0,960,2.0,0.0
5777,44.0,120,1800,2.0,0.0
5778,63.0,480,15,0.0,0.0
5779,59.0,0,480,0.0,0.0
5780,56.0,0,15,0.0,0.0
5781,51.0,0,360,1.0,0.0
5782,51.0,0,120,1.0,0.0
5783,59.0,0,15,0.0,0.0
5784,63.0,120,15,0.0,0.0
5785,51.0,0,360,1.0,0.0
5786,56.0,360,15,0.0,0.0
5787,32.0,0,840,2.0,0.0
5788,59.0,0,15,0.0,0.0
5789,56.0,0,15,0.0,0.0
5790,63.0,120,15,0.0,0.0
5791,51.0,0,120,1.0,0.0
5792,58.0,0,360,0.0,0.0
5793,63.0,360,15,0.0,0.0
5794,54.0,0,360,0.0,0.0
5795,51.0,0,360,1.0,0.0
5796,53.0,0,120,0.0,0.0
5797,56.0,0,120,0.0,0.0
5798,51.0,259,120,1.0,0.0
5799,39.0,204,270,2.0,0.0
5800,63.0,0,15,0.0,0.0
5801,58.0,0,1260,0.0,0.0
5802,54.0,0,1260,0.0,0.0
5803,51.0,0,1260,1.0,0.0
5804,39.0,276,90,2.0,0.0
5805,42.0,204,270,2.0,0.0
5806,46.0,317,90,2.0,0.0
5807,51.0,0,300,2.0,0.0
5808,47.0,120,360,2.0,0.0
5809,59.0,0,360,0.0,0.0
5810,54.0,0,360,0.0,0.0
5811,63.0,0,15,0.0,0.0
5812,47.0,0,120,2.0,0.0
5813,54.0,0,120,0.0,0.0
5814,59.0,0,15,0.0,0.0
5815,44.0,0,480,2.0,0.0
5816,63.0,480,15,0.0,0.0
5817,56.0,0,480,0.0,0.0
5818,59.0,0,360,0.0,0.0
5819,56.0,0,360,0.0,0.0
5820,61.0,0,360,0.0,0.0
5821,56.0,0,120,0.0,0.0
5822,61.0,480,120,0.0,0.0
5823,40.0,120,15,2.0,0.0
5824,54.0,0,480,0.0,0.0
5825,59.0,0,15,0.0,0.0
5826,42.0,0,480,2.0,0.0
5827,61.0,0,480,0.0,0.0
5828,54.0,0,360,0.0,0.0
5829,58.0,0,360,0.0,0.0
5830,61.0,0,360,0.0,0.0
5831,52.0,0,360,0.0,0.0
5832,58.0,0,120,0.0,0.0
5833,54.0,0,120,0.0,0.0
5834,52.0,0,120,0.0,0.0
5835,61.0,0,120,0.0,0.0
5836,30.0,0,15,2.0,0.0
5837,42.0,120,15,2.0,0.0
5838,59.0,480,360,0.0,0.0
5839,51.0,0,360,0.0,0.0
5840,54.0,0,360,0.0,0.0
5841,35.0,0,360,2.0,0.0
5842,47.0,0,360,2.0,0.0
5843,51.0,0,360,0.0,0.0
5844,59.0,0,360,0.0,0.0
5845,54.0,0,360,0.0,0.0
5846,35.0,0,360,2.0,0.0
5847,47.0,480,360,2.0,0.0
5848,59.0,0,360,0.0,0.0
5849,54.0,0,360,0.0,0.0
5850,51.0,0,360,0.0,0.0
5851,47.0,480,360,2.0,0.0
5852,35.0,0,360,2.0,0.0
5853,66.0,120,360,0.0,0.0
5854,54.0,0,360,1.0,0.0
5855,54.0,0,120,1.0,0.0
5856,62.0,0,480,0.0,0.0
5857,66.0,480,15,0.0,0.0
5858,47.0,303,1920,2.0,0.0
5859,59.0,360,480,0.0,0.0
5860,54.0,0,15,1.0,0.0
5861,59.0,0,360,0.0,0.0
5862,62.0,0,360,0.0,0.0
5863,66.0,120,15,0.0,0.0
5864,62.0,0,120,0.0,0.0
5865,59.0,0,120,0.0,0.0
5866,54.0,0,15,1.0,0.0
5867,35.0,360,15,2.0,0.0
5868,62.0,0,15,0.0,0.0
5869,59.0,120,15,0.0,0.0
5870,66.0,0,15,0.0,0.0
5871,54.0,0,120,1.0,0.0
5872,54.0,120,360,1.0,0.0
5873,61.0,0,360,0.0,0.0
5874,58.0,0,360,0.0,0.0
5875,62.0,0,120,0.0,0.0
5876,66.0,0,15,0.0,0.0
5877,59.0,0,120,0.0,0.0
5878,54.0,0,120,1.0,0.0
5879,66.0,0,15,0.0,0.0
5880,64.0,0,1260,0.0,0.0
5881,30.0,168,300,2.0,0.0
5882,42.0,0,300,2.0,0.0
5883,61.0,0,1260,0.0,0.0
5884,54.0,7,1260,1.0,0.0
5885,30.0,0,120,2.0,0.0
5886,42.0,312,120,2.0,0.0
5887,46.0,0,300,2.0,0.0
5888,34.0,168,300,2.0,0.0
5889,37.0,0,120,2.0,0.0
5890,49.0,309,120,2.0,0.0
5891,42.0,0,300,2.0,0.0
5892,54.0,0,300,2.0,0.0
5893,58.0,0,360,0.0,0.0
5894,66.0,0,360,0.0,0.0
5895,40.0,0,360,2.0,0.0
5896,54.0,0,15,1.0,0.0
5897,52.0,120,15,2.0,0.0
5898,66.0,0,120,0.0,0.0
5899,61.0,0,15,0.0,0.0
5900,58.0,0,120,0.0,0.0
5901,40.0,0,120,2.0,0.0
5902,50.0,360,480,2.0,0.0
5903,38.0,0,480,2.0,0.0
5904,54.0,0,480,1.0,0.0
5905,59.0,0,480,0.0,0.0
5906,59.0,0,360,0.0,0.0
5907,66.0,0,15,0.0,0.0
5908,62.0,0,15,0.0,0.0
5909,54.0,0,15,1.0,0.0
5910,47.0,120,15,2.0,0.0
5911,62.0,0,15,0.0,0.0
5912,66.0,0,15,0.0,0.0
5913,35.0,0,15,2.0,0.0
5914,59.0,0,120,0.0,0.0
5915,61.0,360,480,0.0,0.0
5916,66.0,0,480,0.0,0.0
5917,64.0,0,480,0.0,0.0
5918,46.0,0,480,2.0,0.0
5919,34.0,0,480,2.0,0.0
5920,62.0,0,360,0.0,0.0
5921,66.0,0,360,0.0,0.0
5922,59.0,120,360,0.0,0.0
5923,54.0,0,15,1.0,0.0
5924,47.0,0,360,2.0,0.0
5925,35.0,0,360,2.0,0.0
5926,47.0,0,120,2.0,0.0
5927,35.0,0,120,2.0,0.0
5928,54.0,0,15,1.0,0.0
5929,59.0,0,120,0.0,0.0
5930,62.0,0,120,0.0,0.0
5931,61.0,0,360,0.0,0.0
5932,66.0,360,15,0.0,0.0
5933,58.0,0,360,0.0,0.0
5934,54.0,0,360,1.0,0.0
5935,42.0,0,360,2.0,0.0
5936,30.0,480,360,2.0,0.0
5937,30.0,0,360,2.0,0.0
5938,42.0,0,360,2.0,0.0
5939,54.0,480,360,1.0,0.0
5940,58.0,0,360,0.0,0.0
5941,66.0,0,360,0.0,0.0
5942,61.0,0,360,0.0,0.0
5943,58.0,0,360,0.0,0.0
5944,61.0,0,360,0.0,0.0
5945,66.0,0,360,0.0,0.0
5946,30.0,0,360,2.0,0.0
5947,42.0,0,360,2.0,0.0
5948,54.0,480,360,1.0,0.0
5949,66.0,0,360,0.0,0.0
5950,54.0,120,15,1.0,0.0
5951,59.0,0,480,0.0,0.0
5952,66.0,0,15,0.0,0.0
5953,35.0,360,960,2.0,0.0
5954,47.0,0,1920,2.0,0.0
5955,62.0,360,480,0.0,0.0
5956,54.0,0,480,1.0,0.0
5957,59.0,0,360,0.0,0.0
5958,66.0,0,360,0.0,0.0
5959,62.0,120,15,0.0,0.0
5960,54.0,0,15,1.0,0.0
5961,66.0,0,120,0.0,0.0
5962,62.0,0,15,0.0,0.0
5963,59.0,0,15,0.0,0.0
5964,54.0,120,360,1.0,0.0
5965,35.0,0,960,2.0,0.0
5966,59.0,0,15,0.0,0.0
5967,66.0,0,15,0.0,0.0
5968,62.0,0,15,0.0,0.0
5969,61.0,0,360,0.0,0.0
5970,52.0,0,360,1.0,0.0
5971,64.0,120,360,0.0,0.0
5972,59.0,0,15,0.0,0.0
5973,54.0,0,120,1.0,0.0
5974,66.0,0,120,0.0,0.0
5975,62.0,0,120,0.0,0.0
5976,55.0,7,1260,1.0,0.0
5977,67.0,0,1260,0.0,0.0
5978,40.0,168,300,2.0,0.0
5979,64.0,0,1260,0.0,0.0
5980,59.0,303,15,0.0,0.0
5981,40.0,312,120,2.0,0.0
5982,43.0,168,300,2.0,0.0
5983,47.0,309,120,2.0,0.0
5984,52.0,533,300,2.0,0.0
5985,43.0,0,360,2.0,0.0
5986,55.0,0,360,1.0,0.0
5987,52.0,0,360,2.0,0.0
5988,52.0,0,120,2.0,0.0
5989,43.0,0,120,2.0,0.0
5990,59.0,120,15,0.0,0.0
5991,64.0,0,15,0.0,0.0
5992,67.0,0,15,0.0,0.0
5993,55.0,480,120,1.0,0.0
5994,57.0,0,480,0.0,0.0
5995,62.0,0,480,0.0,0.0
5996,50.0,360,480,2.0,0.0
5997,66.0,0,480,0.0,0.0
5998,54.0,0,480,2.0,0.0
5999,45.0,0,480,2.0,0.0
6000,66.0,0,360,0.0,0.0
6001,45.0,0,360,2.0,0.0
6002,54.0,0,360,2.0,0.0
6003,50.0,0,360,2.0,0.0
6004,57.0,0,15,0.0,0.0
6005,62.0,120,15,0.0,0.0
6006,66.0,0,120,0.0,0.0
6007,45.0,0,120,2.0,0.0
6008,50.0,0,120,2.0,0.0
6009,54.0,0,120,2.0,0.0
6010,45.0,0,480,2.0,0.0
6011,61.0,0,480,0.0,0.0
6012,64.0,0,480,0.0,0.0
6013,57.0,0,480,0.0,0.0
6014,69.0,0,360,0.0,0.0
6015,49.0,0,15,2.0,0.0
6016,57.0,120,360,1.0,0.0
6017,52.0,360,15,2.0,0.0
6018,45.0,0,360,2.0,0.0
6019,61.0,0,15,0.0,0.0
6020,64.0,0,15,0.0,0.0
6021,52.0,0,15,2.0,0.0
6022,49.0,0,120,2.0,0.0
6023,69.0,0,120,0.0,0.0
6024,57.0,0,120,1.0,0.0
6025,45.0,0,120,2.0,0.0
6026,62.0,0,360,0.0,0.0
6027,50.0,480,360,2.0,0.0
6028,38.0,0,360,2.0,0.0
6029,62.0,0,360,0.0,0.0
6030,38.0,480,360,2.0,0.0
6031,50.0,0,360,2.0,0.0
6032,62.0,473,360,0.0,0.0
6033,50.0,7,360,2.0,0.0
6034,38.0,0,360,2.0,0.0
6035,56.0,0,360,2.0,0.0
6036,50.0,0,360,2.0,0.0
6037,71.0,120,360,0.0,0.0
6038,65.0,0,15,0.0,0.0
6039,71.0,0,120,0.0,0.0
6040,56.0,0,15,2.0,0.0
6041,50.0,480,15,2.0,0.0
6042,71.0,480,960,0.0,0.0
6043,50.0,0,15,2.0,0.0
6044,58.0,0,480,2.0,0.0
6045,65.0,0,15,0.0,0.0
6046,70.0,480,480,0.0,0.0
6047,50.0,0,480,2.0,0.0
6048,59.0,199,480,2.0,0.0
6049,68.0,0,480,0.0,0.0
6050,65.0,0,480,0.0,0.0
6051,51.0,0,210,2.0,0.0
6052,63.0,0,210,0.0,0.0
6053,67.0,276,210,0.0,0.0
6054,58.0,5,210,2.0,0.0
6055,50.0,0,120,2.0,0.0
6056,56.0,0,15,2.0,0.0
6057,71.0,480,15,0.0,0.0
6058,65.0,0,15,0.0,0.0
6059,50.0,480,480,2.0,0.0
6060,50.0,0,15,2.0,0.0
6061,65.0,360,15,0.0,0.0
6062,70.0,0,360,0.0,0.0
6063,58.0,0,360,2.0,0.0
6064,50.0,0,120,2.0,0.0
6065,59.0,240,120,2.0,0.0
6066,68.0,0,120,0.0,0.0
6067,65.0,0,120,0.0,0.0
6068,51.0,0,240,2.0,0.0
6069,67.0,216,240,0.0,0.0
6070,63.0,0,240,0.0,0.0
6071,58.0,0,240,2.0,0.0
6072,71.0,0,90,0.0,0.0
6073,65.0,0,90,0.0,0.0
6074,56.0,312,90,2.0,0.0
6075,50.0,0,90,2.0,0.0
6076,50.0,0,300,2.0,0.0
6077,65.0,168,300,0.0,0.0
6078,71.0,0,300,0.0,0.0
6079,56.0,0,300,2.0,0.0
6080,71.0,0,90,0.0,0.0
6081,65.0,312,90,0.0,0.0
6082,56.0,0,90,2.0,0.0
6083,50.0,0,90,2.0,0.0
6084,50.0,0,300,2.0,0.0
6085,65.0,0,300,0.0,0.0
6086,71.0,168,300,0.0,0.0
6087,56.0,0,300,2.0,0.0
6088,50.0,0,90,2.0,0.0
6089,56.0,312,90,2.0,0.0
6090,65.0,0,90,0.0,0.0
6091,71.0,0,90,0.0,0.0
6092,58.0,0,300,2.0,0.0
6093,50.0,168,300,2.0,0.0
6094,65.0,0,300,0.0,0.0
6095,70.0,0,300,0.0,0.0
6096,59.0,216,90,2.0,0.0
6097,50.0,0,90,2.0,0.0
6098,68.0,0,90,0.0,0.0
6099,65.0,0,90,0.0,0.0
6100,67.0,0,180,0.0,0.0
6101,63.0,0,180,0.0,0.0
6102,58.0,0,180,2.0,0.0
6103,51.0,1248,180,2.0,0.0
6104,64.0,0,960,0.0,0.0
6105,52.0,96,960,2.0,0.0
6106,63.0,120,90,0.0,0.0
6107,51.0,0,90,2.0,0.0
6108,49.0,0,90,2.0,0.0
6109,61.0,120,90,0.0,0.0
6110,59.0,120,90,0.0,0.0
6111,47.0,0,90,2.0,0.0
6112,46.0,0,90,2.0,0.0
6113,58.0,504,90,0.0,0.0
6114,56.0,360,480,0.0,0.0
6115,44.0,252,1920,2.0,0.0
6116,56.0,0,360,0.0,0.0
6117,59.0,0,360,0.0,0.0
6118,63.0,0,360,0.0,0.0
6119,51.0,120,15,1.0,0.0
6120,56.0,0,120,0.0,0.0
6121,32.0,0,15,2.0,0.0
6122,63.0,0,15,0.0,0.0
6123,51.0,0,360,1.0,0.0
6124,59.0,360,15,0.0,0.0
6125,59.0,0,15,0.0,0.0
6126,63.0,120,15,0.0,0.0
6127,56.0,0,15,0.0,0.0
6128,51.0,360,120,1.0,0.0
6129,58.0,120,360,0.0,0.0
6130,63.0,0,15,0.0,0.0
6131,55.0,0,360,0.0,0.0
6132,51.0,0,15,1.0,0.0
6133,59.0,0,120,0.0,0.0
6134,56.0,0,120,0.0,0.0
6135,63.0,0,15,0.0,0.0
6136,58.0,7,1260,0.0,0.0
6137,63.0,0,1260,0.0,0.0
6138,61.0,0,1260,0.0,0.0
6139,39.0,204,270,2.0,0.0
6140,51.0,0,1260,1.0,0.0
6141,39.0,276,90,2.0,0.0
6142,43.0,204,270,2.0,0.0
6143,46.0,317,90,2.0,0.0
6144,51.0,533,300,2.0,0.0
6145,49.0,120,360,2.0,0.0
6146,55.0,0,15,0.0,0.0
6147,58.0,0,15,0.0,0.0
6148,63.0,0,15,0.0,0.0
6149,49.0,100,120,2.0,0.0
6150,63.0,0,15,0.0,0.0
6151,47.0,60,90,2.0,0.0
6152,49.0,60,90,2.0,0.0
6153,47.0,60,90,2.0,0.0
6154,49.0,60,90,2.0,0.0
6155,47.0,60,90,2.0,0.0
6156,49.0,60,90,2.0,0.0
6157,47.0,20,90,2.0,0.0
6158,49.0,80,90,2.0,0.0
6159,56.0,0,15,0.0,0.0
6160,59.0,40,15,0.0,0.0
6161,47.0,80,120,2.0,0.0
6162,49.0,80,120,2.0,0.0
6163,47.0,80,120,2.0,0.0
6164,46.0,92,150,2.0,0.0
6165,59.0,28,15,0.0,0.0
6166,56.0,0,15,0.0,0.0
6167,63.0,0,15,0.0,0.0
6168,44.0,480,120,2.0,0.0
6169,58.0,0,480,0.0,0.0
6170,63.0,0,480,0.0,0.0
6171,61.0,360,480,0.0,0.0
6172,43.0,0,480,2.0,0.0
6173,59.0,0,360,0.0,0.0
6174,56.0,0,360,0.0,0.0
6175,44.0,0,360,2.0,0.0
6176,63.0,120,360,0.0,0.0
6177,63.0,0,120,0.0,0.0
6178,56.0,360,120,0.0,0.0
6179,59.0,0,120,0.0,0.0
6180,44.0,0,120,2.0,0.0
6181,58.0,0,360,0.0,0.0
6182,55.0,0,360,0.0,0.0
6183,39.0,480,360,2.0,0.0
6184,63.0,0,360,0.0,0.0
6185,63.0,480,360,0.0,0.0
6186,58.0,0,360,0.0,0.0
6187,55.0,0,360,0.0,0.0
6188,39.0,0,360,2.0,0.0
6189,63.0,480,360,0.0,0.0
6190,58.0,0,360,0.0,0.0
6191,55.0,0,360,0.0,0.0
6192,39.0,0,360,2.0,0.0
6193,63.0,0,360,0.0,0.0
6194,51.0,120,360,1.0,0.0
6195,51.0,480,120,1.0,0.0
6196,63.0,0,120,0.0,0.0
6197,32.0,0,960,2.0,0.0
6198,44.0,0,1920,2.0,0.0
6199,63.0,0,480,0.0,0.0
6200,56.0,0,15,0.0,0.0
6201,60.0,0,15,0.0,0.0
6202,63.0,0,360,0.0,0.0
6203,51.0,360,15,1.0,0.0
6204,56.0,0,15,0.0,0.0
6205,63.0,0,15,0.0,0.0
6206,56.0,0,15,0.0,0.0
6207,60.0,0,15,0.0,0.0
6208,51.0,360,15,1.0,0.0
6209,32.0,0,960,2.0,0.0
6210,51.0,0,15,1.0,0.0
6211,60.0,0,120,0.0,0.0
6212,51.0,0,360,1.0,0.0
6213,63.0,0,15,0.0,0.0
6214,56.0,360,15,0.0,0.0
6215,58.0,120,360,0.0,0.0
6216,63.0,0,15,0.0,0.0
6217,60.0,0,120,0.0,0.0
6218,51.0,0,120,1.0,0.0
6219,56.0,0,120,0.0,0.0
6220,37.0,168,300,2.0,0.0
6221,61.0,0,1440,0.0,0.0
6222,64.0,0,1440,0.0,0.0
6223,37.0,312,120,2.0,0.0
6224,40.0,168,300,2.0,0.0
6225,44.0,316,120,2.0,0.0
6226,49.0,173,300,2.0,0.0
6227,56.0,0,15,0.0,0.0
6228,52.0,360,15,1.0,0.0
6229,64.0,0,360,0.0,0.0
6230,61.0,0,360,0.0,0.0
6231,45.0,312,120,2.0,0.0
6232,33.0,0,120,2.0,0.0
6233,37.0,168,300,2.0,0.0
6234,49.0,0,300,2.0,0.0
6235,40.0,0,120,2.0,0.0
6236,52.0,369,120,2.0,0.0
6237,57.0,120,360,2.0,0.0
6238,45.0,0,360,2.0,0.0
6239,73.0,0,15,0.0,0.0
6240,64.0,0,15,0.0,0.0
6241,69.0,0,15,0.0,0.0
6242,61.0,360,15,1.0,0.0
6243,82.0,240,1440,0.0,0.0
6244,70.0,0,1440,1.0,0.0
6245,75.0,0,1440,0.0,0.0
6246,73.0,0,1440,0.0,0.0
6247,55.0,312,120,2.0,0.0
6248,43.0,0,120,2.0,0.0
6249,46.0,0,300,2.0,0.0
6250,58.0,168,300,2.0,0.0
6251,51.0,0,120,2.0,0.0
6252,63.0,249,120,2.0,0.0
6253,55.0,0,240,2.0,0.0
6254,67.0,240,240,2.0,0.0
6255,43.0,120,240,2.0,0.0
6256,82.0,0,360,0.0,0.0
6257,75.0,360,360,0.0,0.0
6258,73.0,0,360,0.0,0.0
6259,55.0,0,240,2.0,0.0
6260,70.0,0,360,1.0,0.0
6261,71.0,0,240,1.0,0.0
6262,83.0,0,240,0.0,0.0
6263,44.0,0,240,2.0,0.0
6264,56.0,0,240,2.0,0.0
6265,75.0,960,240,0.0,0.0
6266,82.0,0,240,0.0,0.0
6267,73.0,0,240,0.0,0.0
6268,76.0,480,240,0.0,0.0
6269,49.0,0,240,2.0,0.0
6270,37.0,0,240,2.0,0.0
6271,70.0,0,240,1.0,0.0
6272,67.0,0,240,1.0,0.0
6273,39.0,0,240,2.0,0.0
6274,51.0,0,240,2.0,0.0
6275,79.0,0,240,0.0,0.0
6276,73.0,0,240,0.0,0.0
6277,70.0,480,240,0.0,0.0
6278,44.0,0,240,2.0,0.0
6279,32.0,0,240,2.0,0.0
6280,71.0,570,240,0.0,0.0
6281,80.0,0,240,0.0,0.0
6282,68.0,0,240,1.0,0.0
6283,44.0,120,330,2.0,0.0
6284,44.0,457,90,2.0,0.0
6285,44.0,413,420,2.0,0.0
6286,69.0,0,360,0.0,0.0
6287,48.0,0,360,2.0,0.0
6288,66.0,120,360,1.0,0.0
6289,49.0,0,120,2.0,0.0
6290,64.0,0,120,1.0,0.0
6291,68.0,480,120,0.0,0.0
6292,51.0,105,840,2.0,0.0
6293,44.0,0,15,2.0,0.0
6294,63.0,0,720,1.0,0.0
6295,66.0,135,720,0.0,0.0
6296,44.0,240,15,2.0,0.0
6297,52.0,360,120,2.0,0.0
6298,61.0,0,120,1.0,0.0
6299,64.0,0,120,0.0,0.0
6300,63.0,120,360,0.0,0.0
6301,44.0,360,480,2.0,0.0
6302,61.0,0,360,1.0,0.0
6303,54.0,0,480,2.0,0.0
6304,55.0,0,480,2.0,0.0
6305,61.0,120,360,1.0,0.0
6306,44.0,480,480,2.0,0.0
6307,63.0,0,360,0.0,0.0
6308,63.0,0,480,0.0,0.0
6309,56.0,0,480,2.0,0.0
6310,44.0,360,480,2.0,0.0
6311,60.0,0,480,1.0,0.0
6312,44.0,120,360,2.0,0.0
6313,44.0,480,120,2.0,0.0
6314,44.0,360,480,2.0,0.0
6315,66.0,0,360,1.0,0.0
6316,72.0,0,360,0.0,0.0
6317,44.0,0,480,2.0,0.0
6318,63.0,0,360,1.0,0.0
6319,57.0,120,360,2.0,0.0
6320,56.0,0,120,2.0,0.0
6321,68.0,480,120,1.0,0.0
6322,64.0,0,120,1.0,0.0
6323,73.0,0,120,0.0,0.0
6324,54.0,105,840,2.0,0.0
6325,75.0,7,840,0.0,0.0
6326,69.0,8,840,1.0,0.0
6327,66.0,0,840,1.0,0.0
6328,44.0,360,15,2.0,0.0
6329,68.0,0,120,1.0,0.0
6330,73.0,0,120,1.0,0.0
6331,52.0,480,120,2.0,0.0
6332,76.0,0,120,0.0,0.0
6333,72.0,0,480,1.0,0.0
6334,78.0,0,480,0.0,0.0
6335,51.0,480,480,2.0,0.0
6336,44.0,0,15,2.0,0.0
6337,70.0,0,480,1.0,0.0
6338,76.0,0,480,1.0,0.0
6339,70.0,0,480,1.0,0.0
6340,49.0,480,480,2.0,0.0
6341,79.0,0,480,0.0,0.0
6342,80.0,480,960,0.0,0.0
6343,72.0,0,960,1.0,0.0
6344,75.0,0,960,1.0,0.0
6345,48.0,0,960,2.0,0.0
6346,44.0,0,15,2.0,0.0
6347,44.0,360,15,2.0,0.0
6348,44.0,120,15,2.0,0.0
6349,44.0,0,15,2.0,0.0
6350,49.0,0,960,2.0,0.0
6351,52.0,0,960,2.0,0.0
6352,81.0,113,840,0.0,0.0
6353,69.0,0,840,1.0,0.0
6354,44.0,360,15,2.0,0.0
6355,79.0,0,120,0.0,0.0
6356,67.0,0,120,1.0,0.0
6357,80.0,0,480,0.0,0.0
6358,44.0,480,15,2.0,0.0
6359,51.0,0,480,2.0,0.0
6360,48.0,0,480,2.0,0.0
6361,68.0,360,480,1.0,0.0
6362,32.0,120,15,2.0,0.0
6363,64.0,0,960,1.0,0.0
6364,61.0,480,960,1.0,0.0
6365,69.0,0,840,0.0,0.0
6366,32.0,360,480,2.0,0.0
6367,67.0,0,120,0.0,0.0
6368,32.0,120,15,2.0,0.0
6369,32.0,0,15,2.0,0.0
6370,60.0,0,480,1.0,0.0
6371,63.0,0,480,1.0,0.0
6372,68.0,0,480,0.0,0.0
6373,32.0,120,15,2.0,0.0
6374,32.0,360,15,2.0,0.0
6375,63.0,120,360,0.0,0.0
6376,60.0,0,360,1.0,0.0
6377,32.0,0,360,2.0,0.0
6378,60.0,120,360,1.0,0.0
6379,63.0,0,360,0.0,0.0
6380,32.0,0,120,2.0,0.0
6381,60.0,1659,1920,1.0,0.0
6382,56.0,0,1920,1.0,0.0
6383,32.0,0,1920,2.0,0.0
6384,44.0,1920,15,2.0,0.0
6385,63.0,0,1920,0.0,0.0
6386,75.0,21,210,0.0,0.0
6387,72.0,219,120,1.0,0.0
6388,77.0,21,210,0.0,0.0
6389,69.0,219,120,1.0,0.0
6390,73.0,21,210,0.0,0.0
6391,70.0,219,120,1.0,0.0
6392,75.0,21,210,0.0,0.0
6393,67.0,230,120,1.0,0.0
6394,72.0,10,240,0.0,0.0
6395,68.0,230,120,1.0,0.0
6396,73.0,10,240,0.0,0.0
6397,65.0,230,120,1.0,0.0
6398,70.0,10,240,0.0,0.0
6399,67.0,230,120,1.0,0.0
6400,72.0,10,240,0.0,0.0
6401,64.0,230,120,1.0,0.0
6402,68.0,10,240,0.0,0.0
6403,65.0,230,120,1.0,0.0
6404,70.0,10,240,0.0,0.0
6405,62.0,240,120,1.0,0.0
6406,51.0,0,1920,3.0,0.0
6407,67.0,0,240,0.0,0.0
6408,63.0,120,120,1.0,0.0
6409,62.0,120,120,1.0,0.0
6410,63.0,230,120,1.0,0.0
6411,67.0,10,240,0.0,0.0
6412,61.0,0,240,3.0,0.0
6413,63.0,230,120,1.0,0.0
6414,60.0,0,240,3.0,0.0
6415,68.0,10,240,0.0,0.0
6416,63.0,230,120,1.0,0.0
6417,58.0,230,240,3.0,0.0
6418,70.0,10,240,0.0,0.0
6419,63.0,0,120,1.0,0.0
6420,72.0,10,240,0.0,0.0
6421,56.0,230,240,3.0,0.0
6422,63.0,0,120,1.0,0.0
6423,55.0,0,240,3.0,0.0
6424,73.0,10,240,0.0,0.0
6425,63.0,230,120,1.0,0.0
6426,53.0,230,240,3.0,0.0
6427,74.0,10,240,0.0,0.0
6428,63.0,0,120,1.0,0.0
6429,75.0,10,240,0.0,0.0
6430,51.0,230,240,3.0,0.0
6431,63.0,0,120,1.0,0.0
6432,67.0,10,240,1.0,0.0
6433,49.0,0,240,3.0,0.0
6434,75.0,0,240,0.0,0.0
6435,63.0,230,120,1.0,0.0
6436,68.0,0,240,1.0,0.0
6437,75.0,10,240,0.0,0.0
6438,48.0,230,240,3.0,0.0
6439,63.0,0,120,1.0,0.0
6440,75.0,5,240,0.0,0.0
6441,44.0,8,240,3.0,0.0
6442,72.0,112,240,1.0,0.0
6443,68.0,5,240,1.0,0.0
6444,63.0,0,120,1.0,0.0
6445,75.0,5,240,0.0,0.0
6446,70.0,5,240,1.0,0.0
6447,51.0,110,120,3.0,0.0
6448,67.0,0,240,1.0,0.0
6449,63.0,120,120,1.0,0.0
6450,39.0,60,120,3.0,0.0
6451,67.0,0,180,1.0,0.0
6452,75.0,0,180,0.0,0.0
6453,70.0,285,180,1.0,0.0
6454,63.0,5,60,1.0,0.0
6455,63.0,10,240,3.0,0.0
6456,72.0,0,240,0.0,0.0
6457,60.0,230,120,2.0,0.0
6458,75.0,0,120,1.0,0.0
6459,69.0,0,240,0.0,0.0
6460,65.0,10,240,3.0,0.0
6461,57.0,0,120,2.0,0.0
6462,77.0,230,120,1.0,0.0
6463,61.0,10,240,3.0,0.0
6464,70.0,223,240,0.0,0.0
6465,73.0,7,120,1.0,0.0
6466,58.0,0,120,2.0,0.0
6467,67.0,233,240,0.0,0.0
6468,63.0,10,240,3.0,0.0
6469,55.0,7,120,2.0,0.0
6470,75.0,0,120,1.0,0.0
6471,60.0,0,240,3.0,0.0
6472,68.0,225,240,0.0,0.0
6473,56.0,15,120,2.0,0.0
6474,72.0,0,120,1.0,0.0
6475,61.0,239,240,3.0,0.0
6476,65.0,1,240,0.0,0.0
6477,73.0,0,120,1.0,0.0
6478,53.0,0,120,2.0,0.0
6479,67.0,225,240,0.0,0.0
6480,58.0,14,240,3.0,0.0
6481,55.0,1,120,2.0,0.0
6482,70.0,0,120,1.0,0.0
6483,60.0,229,240,3.0,0.0
6484,64.0,0,240,0.0,0.0
6485,72.0,0,120,1.0,0.0
6486,52.0,1,120,2.0,0.0
6487,65.0,223,240,0.0,0.0
6488,56.0,10,240,3.0,0.0
6489,68.0,0,120,1.0,0.0
6490,53.0,7,120,2.0,0.0
6491,58.0,10,240,3.0,0.0
6492,62.0,0,240,0.0,0.0
6493,70.0,153,120,1.0,0.0
6494,50.0,0,120,2.0,0.0
6495,55.0,87,150,3.0,0.0
6496,63.0,120,240,0.0,0.0
6497,51.0,0,120,2.0,0.0
6498,50.0,120,120,2.0,0.0
6499,51.0,230,120,2.0,0.0
6500,85.0,230,240,0.0,0.0
6501,55.0,10,240,3.0,0.0
6502,73.0,0,240,1.0,0.0
6503,51.0,0,120,2.0,0.0
6504,84.0,230,240,0.0,0.0
6505,72.0,0,240,1.0,0.0
6506,56.0,10,240,3.0,0.0
6507,51.0,0,120,2.0,0.0
6508,58.0,10,240,3.0,0.0
6509,70.0,0,240,1.0,0.0
6510,82.0,0,240,0.0,0.0
6511,51.0,230,120,2.0,0.0
6512,60.0,10,240,3.0,0.0
6513,80.0,230,240,0.0,0.0
6514,68.0,0,240,1.0,0.0
6515,51.0,0,120,2.0,0.0
6516,61.0,10,240,3.0,0.0
6517,79.0,230,240,0.0,0.0
6518,67.0,0,240,1.0,0.0
6519,51.0,0,120,2.0,0.0
6520,65.0,0,240,1.0,0.0
6521,62.0,10,240,3.0,0.0
6522,77.0,120,240,0.0,0.0
6523,51.0,0,120,2.0,0.0
6524,75.0,110,120,0.0,0.0
6525,63.0,10,240,3.0,0.0
6526,51.0,120,120,2.0,0.0
6527,68.0,110,120,1.0,0.0
6528,72.0,0,120,1.0,0.0
6529,63.0,10,240,3.0,0.0
6530,75.0,0,120,0.0,0.0
6531,51.0,120,120,2.0,0.0
6532,75.0,0,120,0.0,0.0
6533,70.0,110,120,1.0,0.0
6534,63.0,10,240,3.0,0.0
6535,73.0,0,120,1.0,0.0
6536,51.0,120,120,2.0,0.0
6537,75.0,0,120,0.0,0.0
6538,70.0,0,120,1.0,0.0
6539,67.0,110,120,1.0,0.0
6540,63.0,10,240,3.0,0.0
6541,51.0,120,120,2.0,0.0
6542,72.0,0,120,1.0,0.0
6543,68.0,0,120,1.0,0.0
6544,56.0,0,120,3.0,0.0
6545,75.0,240,120,0.0,0.0
6546,44.0,360,120,3.0,0.0
6547,58.0,1,240,3.0,0.0
6548,60.0,239,240,0.0,0.0
6549,72.0,0,120,1.0,0.0
6550,64.0,239,240,0.0,0.0
6551,55.0,0,240,3.0,0.0
6552,72.0,1,120,1.0,0.0
6553,52.0,1,240,3.0,0.0
6554,67.0,239,240,0.0,0.0
6555,72.0,0,120,1.0,0.0
6556,71.0,239,240,0.0,0.0
6557,48.0,0,240,3.0,0.0
6558,72.0,1,120,1.0,0.0
6559,70.0,239,240,0.0,0.0
6560,50.0,0,240,3.0,0.0
6561,72.0,1,120,1.0,0.0
6562,67.0,239,240,0.0,0.0
6563,52.0,0,240,3.0,0.0
6564,72.0,1,120,1.0,0.0
6565,53.0,0,240,3.0,0.0
6566,68.0,239,240,0.0,0.0
6567,72.0,1,120,1.0,0.0
6568,56.0,1,240,3.0,0.0
6569,65.0,229,240,0.0,0.0
6570,72.0,0,120,1.0,0.0
6571,80.0,0,240,0.0,0.0
6572,46.0,10,240,3.0,0.0
6573,58.0,230,120,2.0,0.0
6574,50.0,10,240,3.0,0.0
6575,77.0,0,240,0.0,0.0
6576,58.0,230,120,2.0,0.0
6577,53.0,10,240,3.0,0.0
6578,74.0,230,240,0.0,0.0
6579,58.0,0,120,2.0,0.0
6580,70.0,230,240,0.0,0.0
6581,57.0,10,240,3.0,0.0
6582,58.0,0,120,2.0,0.0
6583,72.0,0,240,0.0,0.0
6584,56.0,10,240,3.0,0.0
6585,58.0,230,120,2.0,0.0
6586,53.0,10,240,3.0,0.0
6587,74.0,230,240,0.0,0.0
6588,58.0,0,120,2.0,0.0
6589,75.0,230,240,0.0,0.0
6590,55.0,10,240,3.0,0.0
6591,58.0,0,120,2.0,0.0
6592,51.0,10,240,3.0,0.0
6593,79.0,0,240,0.0,0.0
6594,58.0,219,120,2.0,0.0
6595,63.0,21,210,0.0,0.0
6596,61.0,0,240,3.0,0.0
6597,75.0,219,120,1.0,0.0
6598,58.0,0,240,3.0,0.0
6599,67.0,21,210,0.0,0.0
6600,75.0,219,120,1.0,0.0
6601,55.0,219,240,3.0,0.0
6602,70.0,21,210,0.0,0.0
6603,75.0,0,120,1.0,0.0
6604,51.0,219,240,3.0,0.0
6605,74.0,21,210,0.0,0.0
6606,75.0,0,120,1.0,0.0
6607,73.0,21,210,0.0,0.0
6608,53.0,0,240,3.0,0.0
6609,75.0,219,120,1.0,0.0
6610,55.0,0,240,3.0,0.0
6611,70.0,21,210,0.0,0.0
6612,75.0,219,120,1.0,0.0
6613,56.0,0,240,3.0,0.0
6614,72.0,21,210,0.0,0.0
6615,75.0,219,120,1.0,0.0
6616,44.0,219,240,3.0,0.0
6617,72.0,21,210,0.0,0.0
6618,63.0,0,210,1.0,0.0
6619,75.0,0,120,1.0,0.0
6620,67.0,0,210,1.0,0.0
6621,46.0,0,240,3.0,0.0
6622,73.0,21,210,0.0,0.0
6623,75.0,219,120,1.0,0.0
6624,48.0,219,240,3.0,0.0
6625,68.0,0,210,1.0,0.0
6626,72.0,21,210,0.0,0.0
6627,75.0,0,120,1.0,0.0
6628,49.0,219,240,3.0,0.0
6629,65.0,21,210,1.0,0.0
6630,72.0,0,210,0.0,0.0
6631,75.0,0,120,1.0,0.0
6632,46.0,219,240,3.0,0.0
6633,65.0,0,210,1.0,0.0
6634,70.0,21,210,0.0,0.0
6635,73.0,0,120,1.0,0.0
6636,51.0,0,240,3.0,0.0
6637,68.0,21,210,0.0,0.0
6638,63.0,0,210,1.0,0.0
6639,72.0,219,120,1.0,0.0
6640,39.0,120,240,3.0,0.0
6641,67.0,0,210,0.0,0.0
6642,61.0,21,210,1.0,0.0
6643,70.0,0,120,1.0,0.0
6644,60.0,120,120,1.0,0.0
6645,68.0,120,240,0.0,0.0
6646,44.0,0,120,3.0,0.0
6647,32.0,360,120,3.0,0.0
6648,82.0,0,240,0.0,0.0
6649,70.0,0,240,1.0,0.0
6650,48.0,239,240,3.0,0.0
6651,60.0,1,120,2.0,0.0
6652,67.0,1,240,1.0,0.0
6653,79.0,0,240,0.0,0.0
6654,52.0,239,240,3.0,0.0
6655,60.0,0,120,2.0,0.0
6656,76.0,0,240,0.0,0.0
6657,64.0,1,240,1.0,0.0
6658,55.0,239,240,3.0,0.0
6659,60.0,0,120,2.0,0.0
6660,59.0,239,240,3.0,0.0
6661,72.0,0,240,0.0,0.0
6662,60.0,1,120,2.0,0.0
6663,58.0,239,240,3.0,0.0
6664,74.0,0,240,0.0,0.0
6665,62.0,0,240,1.0,0.0
6666,60.0,1,120,2.0,0.0
6667,76.0,1,240,0.0,0.0
6668,64.0,0,240,1.0,0.0
6669,55.0,239,240,3.0,0.0
6670,60.0,0,120,2.0,0.0
6671,65.0,0,240,1.0,0.0
6672,77.0,1,240,0.0,0.0
6673,56.0,239,240,3.0,0.0
6674,60.0,0,120,2.0,0.0
6675,68.0,0,240,1.0,0.0
6676,53.0,239,240,3.0,0.0
6677,80.0,1,240,0.0,0.0
6678,60.0,0,120,2.0,0.0
6679,70.0,0,240,0.0,0.0
6680,68.0,219,240,3.0,0.0
6681,82.0,0,120,1.0,0.0
6682,65.0,219,240,3.0,0.0
6683,74.0,21,210,0.0,0.0
6684,82.0,0,120,1.0,0.0
6685,62.0,0,240,3.0,0.0
6686,77.0,21,210,0.0,0.0
6687,82.0,219,120,1.0,0.0
6688,58.0,219,240,3.0,0.0
6689,81.0,21,210,0.0,0.0
6690,82.0,0,120,1.0,0.0
6691,80.0,21,210,0.0,0.0
6692,60.0,219,240,3.0,0.0
6693,82.0,0,120,1.0,0.0
6694,77.0,21,210,0.0,0.0
6695,62.0,0,240,3.0,0.0
6696,82.0,219,120,1.0,0.0
6697,79.0,21,210,0.0,0.0
6698,63.0,0,240,3.0,0.0
6699,82.0,219,120,1.0,0.0
6700,67.0,240,240,3.0,0.0
6701,75.0,21,210,0.0,0.0
6702,82.0,0,120,1.0,0.0
6703,85.0,12,240,0.0,0.0
6704,73.0,0,240,1.0,0.0
6705,39.0,228,240,3.0,0.0
6706,51.0,0,120,2.0,0.0
6707,70.0,0,240,1.0,0.0
6708,82.0,0,240,0.0,0.0
6709,43.0,228,240,3.0,0.0
6710,51.0,12,120,2.0,0.0
6711,79.0,12,240,0.0,0.0
6712,67.0,0,240,1.0,0.0
6713,46.0,228,240,3.0,0.0
6714,51.0,0,120,2.0,0.0
6715,75.0,12,240,0.0,0.0
6716,63.0,0,240,1.0,0.0
6717,50.0,228,240,3.0,0.0
6718,51.0,0,120,2.0,0.0
6719,77.0,0,240,0.0,0.0
6720,65.0,12,240,1.0,0.0
6721,49.0,228,240,3.0,0.0
6722,51.0,0,120,2.0,0.0
6723,46.0,204,240,3.0,0.0
6724,67.0,12,240,1.0,0.0
6725,79.0,0,240,0.0,0.0
6726,51.0,0,120,2.0,0.0
6727,48.0,12,240,3.0,0.0
6728,80.0,0,240,0.0,0.0
6729,68.0,216,240,1.0,0.0
6730,51.0,12,90,2.0,0.0
6731,84.0,0,210,1.0,0.0
6732,44.0,2,210,3.0,0.0
6733,75.0,0,210,1.0,0.0
6734,80.0,21,210,1.0,0.0
6735,87.0,216,120,0.0,0.0
6736,56.0,1,90,2.0,0.0
6737,43.0,2,210,3.0,0.0
6738,75.0,21,210,1.0,0.0
6739,85.0,0,210,1.0,0.0
6740,82.0,0,210,1.0,0.0
6741,55.0,1,90,2.0,0.0
6742,87.0,216,120,0.0,0.0
6743,44.0,2,210,3.0,0.0
6744,75.0,21,210,1.0,0.0
6745,80.0,0,210,1.0,0.0
6746,84.0,0,210,1.0,0.0
6747,87.0,216,120,0.0,0.0
6748,56.0,1,90,2.0,0.0
6749,84.0,21,210,1.0,0.0
6750,75.0,0,210,1.0,0.0
6751,41.0,2,210,3.0,0.0
6752,87.0,216,120,0.0,0.0
6753,53.0,1,90,2.0,0.0
6754,37.0,2,210,3.0,0.0
6755,73.0,0,210,1.0,0.0
6756,82.0,21,210,1.0,0.0
6757,85.0,216,120,0.0,0.0
6758,49.0,1,90,2.0,0.0
6759,39.0,2,210,3.0,0.0
6760,72.0,21,210,1.0,0.0
6761,80.0,0,210,1.0,0.0
6762,51.0,1,90,2.0,0.0
6763,84.0,216,120,0.0,0.0
6764,39.0,2,210,3.0,0.0
6765,79.0,0,210,1.0,0.0
6766,70.0,21,210,1.0,0.0
6767,82.0,96,120,0.0,0.0
6768,51.0,1,90,2.0,0.0
6769,80.0,0,120,0.0,0.0
6770,32.0,24,90,3.0,0.0
6771,72.0,240,120,1.0,0.0
6772,44.0,350,120,3.0,0.0
6773,60.0,10,240,3.0,0.0
6774,56.0,230,120,2.0,0.0
6775,61.0,10,240,3.0,0.0
6776,53.0,230,120,2.0,0.0
6777,58.0,10,240,3.0,0.0
6778,55.0,230,120,2.0,0.0
6779,60.0,10,240,3.0,0.0
6780,52.0,230,120,2.0,0.0
6781,56.0,10,240,3.0,0.0
6782,53.0,230,120,2.0,0.0
6783,58.0,10,240,3.0,0.0
6784,50.0,120,120,2.0,0.0
6785,51.0,0,120,2.0,0.0
6786,55.0,240,120,3.0,0.0
6787,67.0,0,120,1.0,0.0
6788,75.0,339,120,1.0,0.0
6789,70.0,0,120,1.0,0.0
6790,79.0,0,120,0.0,0.0
6791,63.0,21,210,3.0,0.0
6792,79.0,207,240,0.0,0.0
6793,67.0,0,120,2.0,0.0
6794,75.0,12,120,1.0,0.0
6795,80.0,207,240,0.0,0.0
6796,60.0,21,210,3.0,0.0
6797,68.0,12,120,2.0,0.0
6798,72.0,0,120,1.0,0.0
6799,62.0,21,210,3.0,0.0
6800,77.0,207,240,0.0,0.0
6801,74.0,12,120,1.0,0.0
6802,65.0,0,120,2.0,0.0
6803,59.0,21,210,3.0,0.0
6804,79.0,196,240,0.0,0.0
6805,67.0,12,120,2.0,0.0
6806,71.0,0,120,1.0,0.0
6807,60.0,22,210,3.0,0.0
6808,75.0,10,240,0.0,0.0
6809,72.0,120,120,1.0,0.0
6810,77.0,10,240,0.0,0.0
6811,63.0,88,120,2.0,0.0
6812,57.0,22,210,3.0,0.0
6813,69.0,120,120,1.0,0.0
6814,58.0,0,120,3.0,0.0
6815,65.0,0,120,2.0,0.0
6816,74.0,240,120,0.0,0.0
6817,82.0,0,120,0.0,0.0
6818,70.0,0,120,1.0,0.0
6819,58.0,0,120,2.0,0.0
6820,74.0,0,120,1.0,0.0
6821,46.0,328,120,3.0,0.0
6822,77.0,0,120,1.0,0.0
6823,56.0,32,210,3.0,0.0
6824,58.0,120,120,2.0,0.0
6825,70.0,88,120,1.0,0.0
6826,82.0,0,120,0.0,0.0
6827,53.0,32,210,3.0,0.0
6828,62.0,208,120,2.0,0.0
6829,56.0,32,210,3.0,0.0
6830,58.0,120,120,2.0,0.0
6831,53.0,32,210,3.0,0.0
6832,74.0,88,120,1.0,0.0
6833,86.0,0,120,0.0,0.0
6834,62.0,208,120,2.0,0.0
6835,56.0,32,210,3.0,0.0
6836,58.0,120,120,2.0,0.0
6837,53.0,32,210,3.0,0.0
6838,77.0,88,120,1.0,0.0
6839,89.0,0,120,0.0,0.0
6840,62.0,120,120,2.0,0.0
6841,86.0,0,120,0.0,0.0
6842,74.0,88,120,1.0,0.0
6843,56.0,32,210,3.0,0.0
6844,58.0,120,120,2.0,0.0
6845,53.0,32,210,3.0,0.0
6846,82.0,0,120,0.0,0.0
6847,70.0,88,120,1.0,0.0
6848,62.0,208,120,2.0,0.0
6849,56.0,32,210,3.0,0.0
6850,58.0,120,120,2.0,0.0
6851,53.0,32,210,3.0,0.0
6852,82.0,0,120,0.0,0.0
6853,70.0,88,120,1.0,0.0
6854,62.0,208,120,2.0,0.0
6855,56.0,32,210,3.0,0.0
6856,58.0,120,120,2.0,0.0
6857,74.0,88,120,1.0,0.0
6858,53.0,32,210,3.0,0.0
6859,86.0,0,120,0.0,0.0
6860,62.0,208,120,2.0,0.0
6861,56.0,32,210,3.0,0.0
6862,58.0,120,120,2.0,0.0
6863,53.0,32,210,3.0,0.0
6864,89.0,88,120,0.0,0.0
6865,77.0,0,120,1.0,0.0
6866,62.0,120,120,2.0,0.0
6867,86.0,88,120,0.0,0.0
6868,56.0,32,210,3.0,0.0
6869,74.0,0,120,1.0,0.0
6870,58.0,120,120,2.0,0.0
6871,53.0,32,210,3.0,0.0
6872,82.0,0,120,0.0,0.0
6873,70.0,88,120,1.0,0.0
6874,62.0,240,120,2.0,0.0
6875,80.0,97,270,0.0,0.0
6876,77.0,23,120,1.0,0.0
6877,58.0,0,120,3.0,0.0
6878,46.0,110,120,2.0,0.0
6879,82.0,10,240,0.0,0.0
6880,74.0,230,120,1.0,0.0
6881,80.0,10,240,0.0,0.0
6882,77.0,120,120,1.0,0.0
6883,62.0,110,120,3.0,0.0
6884,50.0,0,120,2.0,0.0
6885,82.0,10,240,0.0,0.0
6886,74.0,230,120,1.0,0.0
6887,80.0,10,240,0.0,0.0
6888,77.0,120,120,1.0,0.0
6889,82.0,10,240,0.0,0.0
6890,53.0,110,120,2.0,0.0
6891,65.0,0,120,3.0,0.0
6892,74.0,120,120,1.0,0.0
6893,62.0,0,120,3.0,0.0
6894,80.0,10,240,0.0,0.0
6895,50.0,110,120,2.0,0.0
6896,77.0,120,120,1.0,0.0
6897,46.0,110,120,2.0,0.0
6898,58.0,0,120,3.0,0.0
6899,82.0,10,240,0.0,0.0
6900,74.0,230,120,1.0,0.0
6901,80.0,10,240,0.0,0.0
6902,77.0,120,120,1.0,0.0
6903,46.0,110,120,3.0,0.0
6904,82.0,10,240,0.0,0.0
6905,34.0,0,120,2.0,0.0
6906,74.0,230,120,1.0,0.0
6907,80.0,10,240,0.0,0.0
6908,77.0,120,120,1.0,0.0
6909,38.0,110,120,2.0,0.0
6910,82.0,10,240,0.0,0.0
6911,50.0,0,120,3.0,0.0
6912,74.0,230,120,1.0,0.0
6913,80.0,10,240,0.0,0.0
6914,77.0,120,120,1.0,0.0
6915,53.0,110,120,3.0,0.0
6916,41.0,0,120,2.0,0.0
6917,82.0,10,240,0.0,0.0
6918,74.0,120,120,1.0,0.0
6919,38.0,110,120,2.0,0.0
6920,50.0,0,120,3.0,0.0
6921,80.0,10,240,0.0,0.0
6922,77.0,120,120,1.0,0.0
6923,46.0,0,120,3.0,0.0
6924,34.0,110,120,2.0,0.0
6925,82.0,10,240,0.0,0.0
6926,74.0,230,120,1.0,0.0
6927,80.0,10,240,0.0,0.0
6928,77.0,120,120,1.0,0.0
6929,53.0,0,120,2.0,0.0
6930,65.0,110,120,3.0,0.0
6931,82.0,10,240,0.0,0.0
6932,74.0,120,120,1.0,0.0
6933,50.0,110,120,2.0,0.0
6934,80.0,10,240,0.0,0.0
6935,62.0,0,120,3.0,0.0
6936,77.0,120,120,1.0,0.0
6937,82.0,10,240,0.0,0.0
6938,58.0,110,120,3.0,0.0
6939,46.0,0,120,2.0,0.0
6940,74.0,230,120,1.0,0.0
6941,80.0,10,240,0.0,0.0
6942,77.0,120,120,1.0,0.0
6943,46.0,110,120,3.0,0.0
6944,34.0,0,120,2.0,0.0
6945,82.0,10,240,0.0,0.0
6946,74.0,120,120,1.0,0.0
6947,79.0,240,120,0.0,0.0
6948,39.0,0,120,2.0,0.0
6949,51.0,0,120,3.0,0.0
6950,31.0,120,720,3.0,0.0
6951,43.0,0,720,3.0,0.0
6952,75.0,120,120,0.0,0.0
6953,74.0,120,120,0.0,0.0
6954,72.0,120,120,0.0,0.0
6955,70.0,120,120,0.0,0.0
6956,68.0,120,120,0.0,0.0
6957,67.0,0,120,0.0,0.0
6958,44.0,120,480,3.0,0.0
6959,32.0,0,480,3.0,0.0
6960,65.0,120,120,0.0,0.0
6961,63.0,120,120,0.0,0.0
6962,62.0,120,120,0.0,0.0
6963,60.0,0,120,0.0,0.0
6964,34.0,0,480,3.0,0.0
6965,58.0,120,120,0.0,0.0
6966,46.0,0,480,3.0,0.0
6967,56.0,120,120,0.0,0.0
6968,55.0,120,120,0.0,0.0
6969,53.0,120,120,0.0,0.0
6970,51.0,0,120,0.0,0.0
6971,36.0,0,120,3.0,0.0
6972,48.0,240,120,3.0,0.0
6973,79.0,120,120,0.0,0.0
6974,31.0,120,720,3.0,0.0
6975,43.0,0,720,3.0,0.0
6976,77.0,80,120,0.0,0.0
6977,75.0,80,90,0.0,0.0
6978,74.0,80,90,0.0,0.0
6979,72.0,80,90,0.0,0.0
6980,70.0,80,90,0.0,0.0
6981,68.0,80,90,0.0,0.0
6982,67.0,0,90,0.0,0.0
6983,65.0,120,120,0.0,0.0
6984,32.0,0,480,3.0,0.0
6985,44.0,120,480,3.0,0.0
6986,63.0,120,120,0.0,0.0
6987,62.0,120,120,0.0,0.0
6988,60.0,0,120,0.0,0.0
6989,34.0,120,480,3.0,0.0
6990,58.0,120,120,0.0,0.0
6991,46.0,0,480,3.0,0.0
6992,56.0,120,120,0.0,0.0
6993,55.0,120,120,0.0,0.0
6994,53.0,0,120,0.0,0.0
6995,51.0,0,120,0.0,0.0
6996,36.0,240,120,3.0,0.0
6997,48.0,0,120,3.0,0.0
6998,82.0,120,120,0.0,0.0
6999,31.0,120,720,3.0,0.0
7000,43.0,0,720,3.0,0.0
7001,80.0,60,120,0.0,0.0
7002,79.0,60,60,0.0,0.0
7003,77.0,60,60,0.0,0.0
7004,75.0,60,60,0.0,0.0
7005,74.0,60,60,0.0,0.0
7006,72.0,60,60,0.0,0.0
7007,70.0,60,60,0.0,0.0
7008,68.0,60,60,0.0,0.0
7009,67.0,0,60,0.0,0.0
7010,44.0,0,480,3.0,0.0
7011,65.0,120,120,0.0,0.0
7012,32.0,0,480,3.0,0.0
7013,63.0,120,120,0.0,0.0
7014,62.0,120,120,0.0,0.0
7015,60.0,120,120,0.0,0.0
7016,46.0,0,480,3.0,0.0
7017,34.0,0,480,3.0,0.0
7018,58.0,120,120,0.0,0.0
7019,56.0,120,120,0.0,0.0
7020,55.0,120,120,0.0,0.0
7021,53.0,120,120,0.0,0.0
7022,51.0,590,120,0.0,0.0
7023,51.0,0,720,3.0,0.0
7024,67.0,10,240,0.0,0.0
7025,63.0,230,120,1.0,0.0
7026,68.0,10,240,0.0,0.0
7027,65.0,699,120,1.0,0.0
7028,39.0,0,15,3.0,0.0
7029,51.0,0,720,3.0,0.0
7030,70.0,21,210,0.0,0.0
7031,67.0,219,120,1.0,0.0
7032,72.0,21,210,0.0,0.0
7033,68.0,0,120,1.0,0.0
7034,39.0,0,4800,3.0,0.0
7035,51.0,0,4560,3.0,0.0
7036,73.0,10,240,0.0,0.0
7037,70.0,230,120,1.0,0.0
7038,74.0,10,240,0.0,0.0
7039,71.0,230,120,1.0,0.0
7040,75.0,10,240,0.0,0.0
7041,72.0,230,120,1.0,0.0
7042,74.0,10,240,0.0,0.0
7043,71.0,230,120,1.0,0.0
7044,75.0,10,240,0.0,0.0
7045,72.0,230,120,1.0,0.0
7046,74.0,10,240,0.0,0.0
7047,71.0,230,120,1.0,0.0
7048,75.0,10,240,0.0,0.0
7049,72.0,230,120,1.0,0.0
7050,74.0,10,240,0.0,0.0
7051,71.0,219,120,1.0,0.0
7052,75.0,21,210,0.0,0.0
7053,72.0,219,120,1.0,0.0
7054,77.0,21,210,0.0,0.0
7055,69.0,219,120,1.0,0.0
7056,73.0,21,210,0.0,0.0
7057,70.0,219,120,1.0,0.0
7058,75.0,21,210,0.0,0.0
7059,67.0,230,120,1.0,0.0
7060,72.0,10,240,0.0,0.0
7061,68.0,230,120,1.0,0.0
7062,73.0,10,240,0.0,0.0
7063,65.0,230,120,1.0,0.0
7064,70.0,10,240,0.0,0.0
7065,67.0,230,120,1.0,0.0
7066,72.0,10,240,0.0,0.0
7067,64.0,230,120,1.0,0.0
7068,68.0,10,240,0.0,0.0
7069,65.0,230,120,1.0,0.0
7070,70.0,10,240,0.0,0.0
7071,62.0,240,120,1.0,0.0
7072,67.0,0,240,0.0,0.0
7073,51.0,230,1920,3.0,0.0
7074,63.0,120,120,1.0,0.0
7075,62.0,120,120,1.0,0.0
7076,63.0,230,120,1.0,0.0
7077,61.0,230,240,3.0,0.0
7078,67.0,10,240,0.0,0.0
7079,63.0,0,120,1.0,0.0
7080,60.0,230,240,3.0,0.0
7081,68.0,10,240,0.0,0.0
7082,63.0,0,120,1.0,0.0
7083,58.0,230,240,3.0,0.0
7084,70.0,10,240,0.0,0.0
7085,63.0,0,120,1.0,0.0
7086,72.0,10,240,0.0,0.0
7087,56.0,0,240,3.0,0.0
7088,63.0,230,120,1.0,0.0
7089,73.0,10,240,0.0,0.0
7090,55.0,230,240,3.0,0.0
7091,63.0,0,120,1.0,0.0
7092,74.0,10,240,0.0,0.0
7093,53.0,0,240,3.0,0.0
7094,63.0,0,120,1.0,0.0
7095,75.0,10,240,0.0,0.0
7096,51.0,230,240,3.0,0.0
7097,63.0,0,120,1.0,0.0
7098,75.0,0,240,0.0,0.0
7099,67.0,10,240,1.0,0.0
7100,49.0,230,240,3.0,0.0
7101,63.0,0,120,1.0,0.0
7102,68.0,8,240,1.0,0.0
7103,48.0,230,240,3.0,0.0
7104,75.0,2,240,0.0,0.0
7105,63.0,0,120,1.0,0.0
7106,68.0,5,240,1.0,0.0
7107,72.0,112,240,1.0,0.0
7108,44.0,8,240,3.0,0.0
7109,75.0,5,240,0.0,0.0
7110,63.0,0,120,1.0,0.0
7111,51.0,110,120,3.0,0.0
7112,75.0,5,240,0.0,0.0
7113,67.0,0,240,1.0,0.0
7114,70.0,5,240,1.0,0.0
7115,63.0,120,120,1.0,0.0
7116,70.0,0,180,1.0,0.0
7117,67.0,285,180,1.0,0.0
7118,39.0,55,120,3.0,0.0
7119,75.0,5,180,0.0,0.0
7120,63.0,5,60,1.0,0.0
7121,63.0,10,240,3.0,0.0
7122,72.0,205,240,0.0,0.0
7123,75.0,0,120,1.0,0.0
7124,60.0,14,120,2.0,0.0
7125,69.0,11,210,0.0,0.0
7126,65.0,10,240,3.0,0.0
7127,77.0,0,120,1.0,0.0
7128,57.0,219,120,2.0,0.0
7129,61.0,10,240,3.0,0.0
7130,70.0,11,210,0.0,0.0
7131,73.0,0,120,1.0,0.0
7132,58.0,219,120,2.0,0.0
7133,67.0,11,210,0.0,0.0
7134,63.0,10,240,3.0,0.0
7135,75.0,208,120,1.0,0.0
7136,55.0,0,120,2.0,0.0
7137,68.0,32,210,0.0,0.0
7138,60.0,208,240,3.0,0.0
7139,72.0,0,120,1.0,0.0
7140,56.0,0,120,2.0,0.0
7141,65.0,32,210,0.0,0.0
7142,61.0,207,240,3.0,0.0
7143,73.0,1,120,1.0,0.0
7144,53.0,0,120,2.0,0.0
7145,58.0,207,240,3.0,0.0
7146,67.0,32,210,0.0,0.0
7147,55.0,1,120,2.0,0.0
7148,70.0,0,120,1.0,0.0
7149,60.0,229,240,3.0,0.0
7150,64.0,32,210,0.0,0.0
7151,72.0,0,120,1.0,0.0
7152,52.0,1,120,2.0,0.0
7153,56.0,10,240,3.0,0.0
7154,65.0,0,240,0.0,0.0
7155,68.0,230,120,1.0,0.0
7156,50.0,0,120,2.0,0.0
7157,62.0,10,240,0.0,0.0
7158,58.0,0,240,3.0,0.0
7159,70.0,153,120,1.0,0.0
7160,51.0,0,120,2.0,0.0
7161,63.0,120,240,0.0,0.0
7162,55.0,87,150,3.0,0.0
7163,51.0,0,120,2.0,0.0
7164,50.0,120,120,2.0,0.0
7165,51.0,230,120,2.0,0.0
7166,73.0,0,240,1.0,0.0
7167,55.0,10,240,3.0,0.0
7168,85.0,0,240,0.0,0.0
7169,51.0,230,120,2.0,0.0
7170,72.0,0,240,1.0,0.0
7171,84.0,230,240,0.0,0.0
7172,56.0,10,240,3.0,0.0
7173,51.0,0,120,2.0,0.0
7174,70.0,230,240,1.0,0.0
7175,58.0,10,240,3.0,0.0
7176,82.0,0,240,0.0,0.0
7177,51.0,0,120,2.0,0.0
7178,68.0,0,240,1.0,0.0
7179,60.0,10,240,3.0,0.0
7180,80.0,0,240,0.0,0.0
7181,51.0,230,120,2.0,0.0
7182,61.0,10,240,3.0,0.0
7183,79.0,230,240,0.0,0.0
7184,67.0,0,240,1.0,0.0
7185,51.0,0,120,2.0,0.0
7186,65.0,0,240,1.0,0.0
7187,62.0,10,240,3.0,0.0
7188,77.0,120,240,0.0,0.0
7189,51.0,0,120,2.0,0.0
7190,63.0,10,240,3.0,0.0
7191,75.0,110,120,0.0,0.0
7192,51.0,120,120,2.0,0.0
7193,68.0,0,120,1.0,0.0
7194,72.0,0,120,1.0,0.0
7195,63.0,10,240,3.0,0.0
7196,75.0,110,120,0.0,0.0
7197,51.0,120,120,2.0,0.0
7198,63.0,10,240,3.0,0.0
7199,73.0,0,120,1.0,0.0
7200,75.0,110,120,0.0,0.0
7201,70.0,0,120,1.0,0.0
7202,51.0,120,120,2.0,0.0
7203,70.0,0,120,1.0,0.0
7204,75.0,110,120,0.0,0.0
7205,67.0,0,120,1.0,0.0
7206,63.0,10,240,3.0,0.0
7207,51.0,120,120,2.0,0.0
7208,56.0,0,120,3.0,0.0
7209,75.0,0,120,0.0,0.0
7210,72.0,0,120,1.0,0.0
7211,68.0,240,120,1.0,0.0
7212,44.0,360,120,3.0,0.0
7213,60.0,239,240,0.0,0.0
7214,58.0,1,240,3.0,0.0
7215,72.0,0,120,1.0,0.0
7216,55.0,1,240,3.0,0.0
7217,64.0,239,240,0.0,0.0
7218,72.0,0,120,1.0,0.0
7219,67.0,239,240,0.0,0.0
7220,52.0,1,240,3.0,0.0
7221,72.0,0,120,1.0,0.0
7222,48.0,0,240,3.0,0.0
7223,71.0,239,240,0.0,0.0
7224,72.0,1,120,1.0,0.0
7225,50.0,1,240,3.0,0.0
7226,70.0,239,240,0.0,0.0
7227,72.0,0,120,1.0,0.0
7228,67.0,239,240,0.0,0.0
7229,52.0,1,240,3.0,0.0
7230,72.0,0,120,1.0,0.0
7231,53.0,0,240,3.0,0.0
7232,68.0,239,240,0.0,0.0
7233,72.0,1,120,1.0,0.0
7234,65.0,229,240,0.0,0.0
7235,56.0,1,240,3.0,0.0
7236,72.0,0,120,1.0,0.0
7237,46.0,10,240,3.0,0.0
7238,80.0,0,240,0.0,0.0
7239,58.0,230,120,2.0,0.0
7240,50.0,10,240,3.0,0.0
7241,77.0,230,240,0.0,0.0
7242,58.0,0,120,2.0,0.0
7243,74.0,230,240,0.0,0.0
7244,53.0,10,240,3.0,0.0
7245,58.0,0,120,2.0,0.0
7246,70.0,230,240,0.0,0.0
7247,57.0,10,240,3.0,0.0
7248,58.0,0,120,2.0,0.0
7249,56.0,10,240,3.0,0.0
7250,72.0,0,240,0.0,0.0
7251,58.0,230,120,2.0,0.0
7252,53.0,10,240,3.0,0.0
7253,74.0,0,240,0.0,0.0
7254,58.0,230,120,2.0,0.0
7255,55.0,10,240,3.0,0.0
7256,75.0,0,240,0.0,0.0
7257,58.0,230,120,2.0,0.0
7258,51.0,10,240,3.0,0.0
7259,79.0,219,240,0.0,0.0
7260,58.0,0,120,2.0,0.0
7261,61.0,219,240,3.0,0.0
7262,63.0,21,210,0.0,0.0
7263,75.0,0,120,1.0,0.0
7264,58.0,0,240,3.0,0.0
7265,67.0,21,210,0.0,0.0
7266,75.0,219,120,1.0,0.0
7267,70.0,21,210,0.0,0.0
7268,55.0,219,240,3.0,0.0
7269,75.0,0,120,1.0,0.0
7270,74.0,21,210,0.0,0.0
7271,51.0,0,240,3.0,0.0
7272,75.0,219,120,1.0,0.0
7273,53.0,219,240,3.0,0.0
7274,73.0,21,210,0.0,0.0
7275,75.0,0,120,1.0,0.0
7276,55.0,219,240,3.0,0.0
7277,70.0,21,210,0.0,0.0
7278,75.0,0,120,1.0,0.0
7279,72.0,21,210,0.0,0.0
7280,56.0,219,240,3.0,0.0
7281,75.0,0,120,1.0,0.0
7282,44.0,0,240,3.0,0.0
7283,63.0,21,210,1.0,0.0
7284,72.0,0,210,0.0,0.0
7285,75.0,219,120,1.0,0.0
7286,46.0,0,240,3.0,0.0
7287,73.0,0,210,0.0,0.0
7288,67.0,21,210,1.0,0.0
7289,75.0,219,120,1.0,0.0
7290,68.0,21,210,1.0,0.0
7291,48.0,219,240,3.0,0.0
7292,72.0,0,210,0.0,0.0
7293,75.0,0,120,1.0,0.0
7294,65.0,0,210,1.0,0.0
7295,49.0,0,240,3.0,0.0
7296,72.0,21,210,0.0,0.0
7297,75.0,219,120,1.0,0.0
7298,70.0,21,210,0.0,0.0
7299,46.0,219,240,3.0,0.0
7300,65.0,0,210,1.0,0.0
7301,73.0,0,120,1.0,0.0
7302,63.0,21,210,1.0,0.0
7303,68.0,0,210,0.0,0.0
7304,51.0,219,240,3.0,0.0
7305,72.0,0,120,1.0,0.0
7306,67.0,0,210,0.0,0.0
7307,39.0,0,240,3.0,0.0
7308,61.0,21,210,1.0,0.0
7309,70.0,120,120,1.0,0.0
7310,44.0,0,120,3.0,0.0
7311,68.0,120,240,0.0,0.0
7312,60.0,120,120,1.0,0.0
7313,32.0,360,120,3.0,0.0
7314,48.0,239,240,3.0,0.0
7315,82.0,0,240,0.0,0.0
7316,70.0,1,240,1.0,0.0
7317,60.0,0,120,2.0,0.0
7318,79.0,0,240,0.0,0.0
7319,52.0,239,240,3.0,0.0
7320,67.0,0,240,1.0,0.0
7321,60.0,1,120,2.0,0.0
7322,55.0,239,240,3.0,0.0
7323,64.0,1,240,1.0,0.0
7324,76.0,0,240,0.0,0.0
7325,60.0,0,120,2.0,0.0
7326,59.0,239,240,3.0,0.0
7327,72.0,1,240,0.0,0.0
7328,60.0,0,120,2.0,0.0
7329,74.0,0,240,0.0,0.0
7330,62.0,1,240,1.0,0.0
7331,58.0,239,240,3.0,0.0
7332,60.0,0,120,2.0,0.0
7333,55.0,239,240,3.0,0.0
7334,64.0,0,240,1.0,0.0
7335,76.0,0,240,0.0,0.0
7336,60.0,1,120,2.0,0.0
7337,56.0,239,240,3.0,0.0
7338,65.0,1,240,1.0,0.0
7339,77.0,0,240,0.0,0.0
7340,60.0,0,120,2.0,0.0
7341,80.0,0,240,0.0,0.0
7342,53.0,119,240,3.0,0.0
7343,68.0,0,240,1.0,0.0
7344,60.0,1,120,2.0,0.0
7345,70.0,120,120,0.0,0.0
7346,68.0,219,240,3.0,0.0
7347,82.0,0,120,1.0,0.0
7348,74.0,21,210,0.0,0.0
7349,65.0,219,240,3.0,0.0
7350,82.0,0,120,1.0,0.0
7351,77.0,21,210,0.0,0.0
7352,62.0,0,240,3.0,0.0
7353,82.0,219,120,1.0,0.0
7354,81.0,21,210,0.0,0.0
7355,58.0,219,240,3.0,0.0
7356,82.0,0,120,1.0,0.0
7357,60.0,219,240,3.0,0.0
7358,80.0,21,210,0.0,0.0
7359,82.0,0,120,1.0,0.0
7360,77.0,21,210,0.0,0.0
7361,62.0,0,240,3.0,0.0
7362,82.0,219,120,1.0,0.0
7363,79.0,21,210,0.0,0.0
7364,63.0,219,240,3.0,0.0
7365,82.0,0,120,1.0,0.0
7366,75.0,21,210,0.0,0.0
7367,67.0,0,240,3.0,0.0
7368,82.0,240,120,1.0,0.0
7369,73.0,12,240,1.0,0.0
7370,39.0,228,240,3.0,0.0
7371,85.0,0,240,0.0,0.0
7372,51.0,0,120,2.0,0.0
7373,82.0,0,240,0.0,0.0
7374,43.0,228,240,3.0,0.0
7375,70.0,0,240,1.0,0.0
7376,51.0,12,120,2.0,0.0
7377,79.0,0,240,0.0,0.0
7378,67.0,0,240,1.0,0.0
7379,46.0,228,240,3.0,0.0
7380,51.0,12,120,2.0,0.0
7381,75.0,12,240,0.0,0.0
7382,63.0,0,240,1.0,0.0
7383,50.0,228,240,3.0,0.0
7384,51.0,0,120,2.0,0.0
7385,77.0,0,240,0.0,0.0
7386,65.0,12,240,1.0,0.0
7387,49.0,228,240,3.0,0.0
7388,51.0,0,120,2.0,0.0
7389,79.0,12,240,0.0,0.0
7390,46.0,204,240,3.0,0.0
7391,67.0,0,240,1.0,0.0
7392,51.0,0,120,2.0,0.0
7393,80.0,216,240,0.0,0.0
7394,68.0,0,240,1.0,0.0
7395,48.0,12,240,3.0,0.0
7396,51.0,12,90,2.0,0.0
7397,80.0,21,210,1.0,0.0
7398,44.0,2,210,3.0,0.0
7399,84.0,0,210,1.0,0.0
7400,75.0,0,210,1.0,0.0
7401,56.0,1,90,2.0,0.0
7402,87.0,216,120,0.0,0.0
7403,75.0,21,210,1.0,0.0
7404,82.0,0,210,1.0,0.0
7405,43.0,2,210,3.0,0.0
7406,85.0,0,210,1.0,0.0
7407,55.0,1,90,2.0,0.0
7408,87.0,216,120,0.0,0.0
7409,75.0,21,210,1.0,0.0
7410,84.0,0,210,1.0,0.0
7411,44.0,2,210,3.0,0.0
7412,80.0,0,210,1.0,0.0
7413,56.0,1,90,2.0,0.0
7414,87.0,216,120,0.0,0.0
7415,41.0,2,210,3.0,0.0
7416,75.0,21,210,1.0,0.0
7417,84.0,0,210,1.0,0.0
7418,87.0,216,120,0.0,0.0
7419,53.0,1,90,2.0,0.0
7420,82.0,21,210,1.0,0.0
7421,73.0,0,210,1.0,0.0
7422,37.0,2,210,3.0,0.0
7423,49.0,1,90,2.0,0.0
7424,85.0,216,120,0.0,0.0
7425,80.0,0,210,1.0,0.0
7426,72.0,21,210,1.0,0.0
7427,39.0,2,210,3.0,0.0
7428,84.0,216,120,0.0,0.0
7429,51.0,1,90,2.0,0.0
7430,39.0,2,210,3.0,0.0
7431,70.0,21,210,1.0,0.0
7432,79.0,0,210,1.0,0.0
7433,82.0,96,120,0.0,0.0
7434,51.0,1,90,2.0,0.0
7435,80.0,240,120,0.0,0.0
7436,32.0,24,90,3.0,0.0
7437,72.0,0,120,1.0,0.0
7438,44.0,348,120,3.0,0.0
7439,60.0,6,240,0.0,0.0
7440,36.0,6,240,3.0,0.0
7441,43.0,0,120,2.0,0.0
7442,55.0,228,120,1.0,0.0
7443,36.0,6,240,3.0,0.0
7444,60.0,6,240,0.0,0.0
7445,43.0,228,120,2.0,0.0
7446,55.0,0,120,1.0,0.0
7447,60.0,6,240,0.0,0.0
7448,36.0,6,240,3.0,0.0
7449,43.0,0,120,2.0,0.0
7450,55.0,228,120,1.0,0.0
7451,36.0,6,240,3.0,0.0
7452,62.0,6,240,0.0,0.0
7453,59.0,0,120,1.0,0.0
7454,43.0,228,120,2.0,0.0
7455,63.0,0,240,0.0,0.0
7456,36.0,12,240,3.0,0.0
7457,60.0,0,120,1.0,0.0
7458,43.0,228,120,2.0,0.0
7459,36.0,12,240,3.0,0.0
7460,65.0,0,240,0.0,0.0
7461,62.0,0,120,1.0,0.0
7462,43.0,228,120,2.0,0.0
7463,36.0,12,240,3.0,0.0
7464,67.0,228,240,0.0,0.0
7465,43.0,0,120,2.0,0.0
7466,63.0,0,120,1.0,0.0
7467,36.0,12,240,3.0,0.0
7468,71.0,228,240,0.0,0.0
7469,67.0,0,120,1.0,0.0
7470,43.0,0,120,2.0,0.0
7471,36.0,6,240,3.0,0.0
7472,72.0,6,240,0.0,0.0
7473,69.0,228,120,1.0,0.0
7474,43.0,0,120,2.0,0.0
7475,36.0,6,240,3.0,0.0
7476,74.0,6,240,0.0,0.0
7477,71.0,216,120,1.0,0.0
7478,43.0,12,120,2.0,0.0
7479,75.0,0,240,0.0,0.0
7480,36.0,12,240,3.0,0.0
7481,72.0,0,120,1.0,0.0
7482,43.0,228,120,2.0,0.0
7483,75.0,0,240,0.0,0.0
7484,36.0,12,240,3.0,0.0
7485,72.0,120,120,1.0,0.0
7486,43.0,0,120,2.0,0.0
7487,70.0,0,120,1.0,0.0
7488,36.0,0,120,3.0,0.0
7489,74.0,120,120,0.0,0.0
7490,43.0,120,120,2.0,0.0
7491,69.0,0,120,1.0,0.0
7492,66.0,0,120,1.0,0.0
7493,78.0,0,120,0.0,0.0
7494,31.0,120,120,3.0,0.0
7495,43.0,120,120,2.0,0.0
7496,67.0,0,120,1.0,0.0
7497,79.0,120,120,0.0,0.0
7498,36.0,0,120,3.0,0.0
7499,70.0,0,120,1.0,0.0
7500,43.0,216,120,2.0,0.0
7501,36.0,24,210,3.0,0.0
7502,43.0,216,120,2.0,0.0
7503,60.0,18,210,0.0,0.0
7504,36.0,6,210,3.0,0.0
7505,55.0,0,120,1.0,0.0
7506,43.0,216,120,2.0,0.0
7507,36.0,6,210,3.0,0.0
7508,60.0,18,210,0.0,0.0
7509,43.0,0,120,2.0,0.0
7510,55.0,216,120,1.0,0.0
7511,60.0,18,210,0.0,0.0
7512,36.0,6,210,3.0,0.0
7513,55.0,216,120,1.0,0.0
7514,43.0,0,120,2.0,0.0
7515,36.0,6,210,3.0,0.0
7516,62.0,18,210,0.0,0.0
7517,59.0,216,120,1.0,0.0
7518,43.0,0,120,2.0,0.0
7519,63.0,12,240,0.0,0.0
7520,36.0,12,210,3.0,0.0
7521,43.0,216,120,2.0,0.0
7522,60.0,0,120,1.0,0.0
7523,36.0,12,210,3.0,0.0
7524,65.0,12,240,0.0,0.0
7525,62.0,216,120,1.0,0.0
7526,43.0,0,120,2.0,0.0
7527,36.0,12,210,3.0,0.0
7528,67.0,12,240,0.0,0.0
7529,43.0,216,120,2.0,0.0
7530,63.0,0,120,1.0,0.0
7531,36.0,12,210,3.0,0.0
7532,71.0,12,240,0.0,0.0
7533,43.0,0,120,2.0,0.0
7534,67.0,216,120,1.0,0.0
7535,36.0,12,210,3.0,0.0
7536,72.0,12,240,0.0,0.0
7537,43.0,0,120,2.0,0.0
7538,69.0,216,120,1.0,0.0
7539,74.0,12,240,0.0,0.0
7540,36.0,12,210,3.0,0.0
7541,71.0,216,120,1.0,0.0
7542,43.0,0,120,2.0,0.0
7543,36.0,12,210,3.0,0.0
7544,75.0,12,240,0.0,0.0
7545,43.0,216,120,2.0,0.0
7546,72.0,0,120,1.0,0.0
7547,75.0,12,240,0.0,0.0
7548,36.0,12,210,3.0,0.0
7549,43.0,0,120,2.0,0.0
7550,72.0,120,120,1.0,0.0
7551,74.0,120,120,0.0,0.0
7552,38.0,0,120,3.0,0.0
7553,70.0,0,120,1.0,0.0
7554,43.0,120,120,2.0,0.0
7555,78.0,120,120,0.0,0.0
7556,69.0,0,120,1.0,0.0
7557,66.0,0,120,1.0,0.0
7558,38.0,0,120,3.0,0.0
7559,50.0,120,120,2.0,0.0
7560,31.0,0,120,3.0,0.0
7561,70.0,0,120,1.0,0.0
7562,67.0,0,120,1.0,0.0
7563,79.0,120,120,0.0,0.0
7564,43.0,240,120,2.0,0.0
7565,31.0,228,240,3.0,0.0
7566,43.0,0,120,2.0,0.0
7567,60.0,6,240,0.0,0.0
7568,36.0,6,240,3.0,0.0
7569,43.0,228,120,2.0,0.0
7570,55.0,0,120,1.0,0.0
7571,60.0,6,240,0.0,0.0
7572,36.0,6,240,3.0,0.0
7573,55.0,228,120,1.0,0.0
7574,43.0,0,120,2.0,0.0
7575,36.0,6,240,3.0,0.0
7576,60.0,6,240,0.0,0.0
7577,43.0,228,120,2.0,0.0
7578,55.0,0,120,1.0,0.0
7579,36.0,6,240,3.0,0.0
7580,62.0,6,240,0.0,0.0
7581,59.0,0,120,1.0,0.0
7582,43.0,228,120,2.0,0.0
7583,63.0,228,240,0.0,0.0
7584,36.0,12,240,3.0,0.0
7585,60.0,0,120,1.0,0.0
7586,43.0,0,120,2.0,0.0
7587,36.0,12,240,3.0,0.0
7588,65.0,0,240,0.0,0.0
7589,62.0,228,120,1.0,0.0
7590,43.0,0,120,2.0,0.0
7591,67.0,0,240,0.0,0.0
7592,36.0,12,240,3.0,0.0
7593,43.0,0,120,2.0,0.0
7594,63.0,228,120,1.0,0.0
7595,36.0,12,240,3.0,0.0
7596,71.0,228,240,0.0,0.0
7597,67.0,0,120,1.0,0.0
7598,43.0,0,120,2.0,0.0
7599,36.0,6,240,3.0,0.0
7600,72.0,6,240,0.0,0.0
7601,69.0,0,120,1.0,0.0
7602,43.0,228,120,2.0,0.0
7603,36.0,6,240,3.0,0.0
7604,74.0,6,240,0.0,0.0
7605,43.0,12,120,2.0,0.0
7606,71.0,216,120,1.0,0.0
7607,36.0,12,240,3.0,0.0
7608,43.0,228,120,2.0,0.0
7609,72.0,0,120,1.0,0.0
7610,36.0,12,240,3.0,0.0
7611,75.0,0,15,0.0,0.0
7612,72.0,120,120,1.0,0.0
7613,43.0,0,120,2.0,0.0
7614,36.0,0,120,3.0,0.0
7615,70.0,0,120,1.0,0.0
7616,74.0,120,120,0.0,0.0
7617,43.0,120,120,2.0,0.0
7618,78.0,0,120,0.0,0.0
7619,69.0,0,120,1.0,0.0
7620,66.0,0,120,1.0,0.0
7621,31.0,120,120,3.0,0.0
7622,43.0,120,120,2.0,0.0
7623,79.0,0,120,0.0,0.0
7624,70.0,120,120,1.0,0.0
7625,67.0,0,120,1.0,0.0
7626,36.0,0,120,3.0,0.0
7627,43.0,216,120,2.0,0.0
7628,36.0,24,210,3.0,0.0
7629,43.0,216,120,2.0,0.0
7630,60.0,18,210,0.0,0.0
7631,36.0,6,210,3.0,0.0
7632,55.0,0,120,1.0,0.0
7633,43.0,216,120,2.0,0.0
7634,36.0,6,210,3.0,0.0
7635,60.0,18,210,0.0,0.0
7636,43.0,216,120,2.0,0.0
7637,55.0,0,120,1.0,0.0
7638,60.0,18,210,0.0,0.0
7639,36.0,6,210,3.0,0.0
7640,43.0,0,120,2.0,0.0
7641,55.0,216,120,1.0,0.0
7642,36.0,6,210,3.0,0.0
7643,62.0,18,210,0.0,0.0
7644,43.0,0,120,2.0,0.0
7645,59.0,216,120,1.0,0.0
7646,36.0,12,210,3.0,0.0
7647,63.0,12,240,0.0,0.0
7648,43.0,216,120,2.0,0.0
7649,60.0,0,120,1.0,0.0
7650,36.0,12,210,3.0,0.0
7651,65.0,12,240,0.0,0.0
7652,43.0,0,120,2.0,0.0
7653,62.0,216,120,1.0,0.0
7654,36.0,12,210,3.0,0.0
7655,67.0,12,240,0.0,0.0
7656,63.0,216,120,1.0,0.0
7657,43.0,0,120,2.0,0.0
7658,71.0,12,240,0.0,0.0
7659,36.0,12,210,3.0,0.0
7660,43.0,0,120,2.0,0.0
7661,67.0,216,120,1.0,0.0
7662,72.0,12,240,0.0,0.0
7663,36.0,12,210,3.0,0.0
7664,43.0,0,120,2.0,0.0
7665,69.0,216,120,1.0,0.0
7666,74.0,12,240,0.0,0.0
7667,36.0,12,210,3.0,0.0
7668,43.0,216,120,2.0,0.0
7669,71.0,0,120,1.0,0.0
7670,75.0,12,240,0.0,0.0
7671,36.0,12,210,3.0,0.0
7672,43.0,216,120,2.0,0.0
7673,72.0,0,120,1.0,0.0
7674,75.0,12,240,0.0,0.0
7675,36.0,12,210,3.0,0.0
7676,72.0,120,120,1.0,0.0
7677,43.0,0,120,2.0,0.0
7678,74.0,0,120,0.0,0.0
7679,38.0,0,120,3.0,0.0
7680,70.0,120,120,1.0,0.0
7681,43.0,120,120,2.0,0.0
7682,69.0,0,120,1.0,0.0
7683,38.0,0,120,3.0,0.0
7684,66.0,0,120,1.0,0.0
7685,78.0,120,120,0.0,0.0
7686,50.0,120,120,2.0,0.0
7687,70.0,0,120,1.0,0.0
7688,79.0,120,120,0.0,0.0
7689,31.0,0,120,3.0,0.0
7690,67.0,0,120,1.0,0.0
7691,43.0,240,120,2.0,0.0
7692,31.0,0,240,3.0,0.0
7693,43.0,228,120,2.0,0.0
7694,43.0,0,240,3.0,0.0
7695,70.0,12,240,0.0,0.0
7696,67.0,0,120,1.0,0.0
7697,50.0,228,120,2.0,0.0
7698,70.0,12,240,0.0,0.0
7699,50.0,0,120,2.0,0.0
7700,67.0,0,120,1.0,0.0
7701,43.0,228,15,3.0,0.0
7702,70.0,12,240,0.0,0.0
7703,50.0,0,120,2.0,0.0
7704,67.0,228,120,1.0,0.0
7705,72.0,12,240,0.0,0.0
7706,50.0,120,120,2.0,0.0
7707,69.0,0,120,1.0,0.0
7708,43.0,0,15,3.0,0.0
7709,74.0,120,120,0.0,0.0
7710,71.0,120,120,1.0,0.0
7711,50.0,0,120,2.0,0.0
7712,38.0,120,120,3.0,0.0
7713,77.0,0,120,0.0,0.0
7714,65.0,0,120,1.0,0.0
7715,69.0,0,120,1.0,0.0
7716,50.0,120,120,2.0,0.0
7717,67.0,0,120,1.0,0.0
7718,43.0,90,150,3.0,0.0
7719,70.0,30,120,1.0,0.0
7720,74.0,0,120,1.0,0.0
7721,79.0,0,120,0.0,0.0
7722,50.0,240,120,2.0,0.0
7723,50.0,0,120,2.0,0.0
7724,43.0,228,15,3.0,0.0
7725,70.0,12,240,0.0,0.0
7726,50.0,0,120,2.0,0.0
7727,67.0,0,120,1.0,0.0
7728,70.0,12,240,0.0,0.0
7729,41.0,228,240,3.0,0.0
7730,67.0,0,120,1.0,0.0
7731,49.0,0,120,2.0,0.0
7732,70.0,12,240,0.0,0.0
7733,40.0,0,240,3.0,0.0
7734,48.0,0,120,2.0,0.0
7735,67.0,228,120,1.0,0.0
7736,70.0,0,240,0.0,0.0
7737,41.0,12,240,3.0,0.0
7738,49.0,228,120,2.0,0.0
7739,67.0,0,120,1.0,0.0
7740,70.0,12,240,0.0,0.0
7741,40.0,0,240,3.0,0.0
7742,48.0,0,120,2.0,0.0
7743,67.0,120,15,1.0,0.0
7744,36.0,0,120,3.0,0.0
7745,76.0,0,120,0.0,0.0
7746,70.0,120,120,1.0,0.0
7747,48.0,120,120,2.0,0.0
7748,41.0,0,120,3.0,0.0
7749,77.0,120,120,0.0,0.0
7750,65.0,0,120,1.0,0.0
7751,68.0,0,120,1.0,0.0
7752,48.0,228,120,2.0,0.0
7753,41.0,12,240,3.0,0.0
7754,48.0,228,120,2.0,0.0
7755,68.0,0,240,1.0,0.0
7756,41.0,12,240,3.0,0.0
7757,48.0,0,120,2.0,0.0
7758,65.0,228,120,1.0,0.0
7759,68.0,12,240,1.0,0.0
7760,41.0,0,240,3.0,0.0
7761,48.0,228,120,2.0,0.0
7762,65.0,0,120,1.0,0.0
7763,68.0,0,240,1.0,0.0
7764,41.0,12,240,3.0,0.0
7765,65.0,228,120,1.0,0.0
7766,48.0,0,120,2.0,0.0
7767,41.0,0,240,3.0,0.0
7768,70.0,12,240,0.0,0.0
7769,67.0,0,120,1.0,0.0
7770,48.0,228,120,2.0,0.0
7771,72.0,6,240,0.0,0.0
7772,41.0,6,240,3.0,0.0
7773,48.0,0,120,2.0,0.0
7774,68.0,120,120,1.0,0.0
7775,67.0,120,120,1.0,0.0
7776,76.0,0,120,0.0,0.0
7777,70.0,0,120,1.0,0.0
7778,36.0,0,120,3.0,0.0
7779,48.0,120,120,2.0,0.0
7780,68.0,0,120,1.0,0.0
7781,41.0,0,120,3.0,0.0
7782,65.0,120,120,1.0,0.0
7783,77.0,0,120,0.0,0.0
7784,48.0,216,120,2.0,0.0
7785,41.0,24,210,3.0,0.0
7786,48.0,216,120,2.0,0.0
7787,68.0,6,240,0.0,0.0
7788,41.0,18,210,3.0,0.0
7789,65.0,0,120,1.0,0.0
7790,48.0,216,120,2.0,0.0
7791,39.0,18,210,3.0,0.0
7792,68.0,6,240,0.0,0.0
7793,47.0,216,120,2.0,0.0
7794,65.0,0,120,1.0,0.0
7795,68.0,6,240,0.0,0.0
7796,38.0,18,210,3.0,0.0
7797,65.0,0,120,1.0,0.0
7798,46.0,216,120,2.0,0.0
7799,39.0,18,210,3.0,0.0
7800,68.0,6,240,0.0,0.0
7801,65.0,216,120,1.0,0.0
7802,47.0,0,120,2.0,0.0
7803,38.0,24,210,3.0,0.0
7804,46.0,120,120,2.0,0.0
7805,68.0,120,120,1.0,0.0
7806,65.0,0,120,1.0,0.0
7807,34.0,0,120,3.0,0.0
7808,74.0,0,120,0.0,0.0
7809,46.0,120,120,2.0,0.0
7810,63.0,0,120,1.0,0.0
7811,39.0,120,120,3.0,0.0
7812,75.0,0,120,0.0,0.0
7813,67.0,0,120,1.0,0.0
7814,46.0,228,120,2.0,0.0
7815,39.0,12,240,3.0,0.0
7816,46.0,228,120,2.0,0.0
7817,67.0,12,240,0.0,0.0
7818,63.0,228,120,1.0,0.0
7819,67.0,12,240,0.0,0.0
7820,63.0,228,120,1.0,0.0
7821,67.0,12,240,0.0,0.0
7822,63.0,228,120,1.0,0.0
7823,68.0,12,240,0.0,0.0
7824,65.0,234,120,1.0,0.0
7825,69.0,6,240,0.0,0.0
7826,66.0,234,120,1.0,0.0
7827,70.0,6,240,0.0,0.0
7828,67.0,234,120,1.0,0.0
7829,71.0,6,240,0.0,0.0
7830,68.0,234,120,1.0,0.0
7831,72.0,6,240,0.0,0.0
7832,69.0,234,120,1.0,0.0
7833,73.0,6,240,0.0,0.0
7834,70.0,234,120,1.0,0.0
7835,74.0,6,240,0.0,0.0
7836,71.0,228,120,1.0,0.0
7837,75.0,240,240,0.0,0.0
7838,72.0,6,120,1.0,0.0
7839,74.0,6,240,0.0,0.0
7840,71.0,228,120,1.0,0.0
7841,75.0,240,240,0.0,0.0
7842,72.0,6,120,1.0,0.0
7843,74.0,6,240,0.0,0.0
7844,71.0,228,120,1.0,0.0
7845,75.0,240,240,0.0,0.0
7846,72.0,6,120,1.0,0.0
7847,74.0,6,240,0.0,0.0
7848,71.0,219,120,1.0,0.0
7849,75.0,21,210,0.0,0.0
7850,72.0,219,120,1.0,0.0
7851,77.0,21,210,0.0,0.0
7852,69.0,219,120,1.0,0.0
7853,73.0,21,210,0.0,0.0
7854,70.0,219,120,1.0,0.0
7855,75.0,21,210,0.0,0.0
7856,67.0,230,120,1.0,0.0
7857,72.0,10,240,0.0,0.0
7858,68.0,230,120,1.0,0.0
7859,73.0,10,240,0.0,0.0
7860,65.0,230,120,1.0,0.0
7861,70.0,10,240,0.0,0.0
7862,67.0,230,120,1.0,0.0
7863,72.0,10,240,0.0,0.0
7864,64.0,230,120,1.0,0.0
7865,68.0,10,240,0.0,0.0
7866,65.0,230,120,1.0,0.0
7867,70.0,10,240,0.0,0.0
7868,62.0,240,120,1.0,0.0
7869,67.0,120,240,0.0,0.0
7870,63.0,0,120,1.0,0.0
7871,62.0,120,120,1.0,0.0
7872,63.0,230,120,1.0,0.0
7873,67.0,10,240,0.0,0.0
7874,61.0,0,240,3.0,0.0
7875,63.0,230,120,1.0,0.0
7876,60.0,0,240,3.0,0.0
7877,68.0,10,240,0.0,0.0
7878,63.0,230,120,1.0,0.0
7879,58.0,0,240,3.0,0.0
7880,70.0,10,240,0.0,0.0
7881,63.0,230,120,1.0,0.0
7882,72.0,10,240,0.0,0.0
7883,56.0,230,240,3.0,0.0
7884,63.0,0,120,1.0,0.0
7885,73.0,10,240,0.0,0.0
7886,55.0,0,240,3.0,0.0
7887,63.0,230,120,1.0,0.0
7888,53.0,0,240,3.0,0.0
7889,74.0,10,240,0.0,0.0
7890,63.0,0,120,1.0,0.0
7891,51.0,230,15,3.0,0.0
7892,75.0,10,240,0.0,0.0
7893,63.0,230,120,1.0,0.0
7894,67.0,10,240,1.0,0.0
7895,49.0,0,240,3.0,0.0
7896,63.0,0,120,1.0,0.0
7897,48.0,0,240,3.0,0.0
7898,75.0,230,15,0.0,0.0
7899,68.0,10,240,1.0,0.0
7900,63.0,0,120,1.0,0.0
7901,75.0,230,15,0.0,0.0
7902,68.0,5,240,1.0,0.0
7903,72.0,112,240,1.0,0.0
7904,44.0,0,240,3.0,0.0
7905,63.0,8,120,1.0,0.0
7906,75.0,5,240,0.0,0.0
7907,70.0,0,240,1.0,0.0
7908,67.0,5,240,1.0,0.0
7909,51.0,110,120,3.0,0.0
7910,63.0,120,120,1.0,0.0
7911,39.0,60,120,3.0,0.0
7912,70.0,5,180,1.0,0.0
7913,75.0,0,180,0.0,0.0
7914,67.0,5,180,1.0,0.0
7915,63.0,280,60,1.0,0.0
7916,63.0,10,240,3.0,0.0
7917,72.0,0,240,0.0,0.0
7918,75.0,222,120,1.0,0.0
7919,60.0,7,120,2.0,0.0
7920,69.0,229,240,0.0,0.0
7921,65.0,10,240,3.0,0.0
7922,77.0,1,120,1.0,0.0
7923,57.0,0,120,2.0,0.0
7924,61.0,10,240,3.0,0.0
7925,70.0,229,240,0.0,0.0
7926,73.0,1,120,1.0,0.0
7927,58.0,0,120,2.0,0.0
7928,63.0,10,240,3.0,0.0
7929,67.0,0,240,0.0,0.0
7930,75.0,1,120,1.0,0.0
7931,55.0,240,120,2.0,0.0
7932,60.0,194,270,3.0,0.0
7933,68.0,0,240,0.0,0.0
7934,56.0,0,120,2.0,0.0
7935,72.0,30,120,1.0,0.0
7936,65.0,1,240,0.0,0.0
7937,61.0,207,240,3.0,0.0
7938,73.0,16,90,1.0,0.0
7939,53.0,0,120,2.0,0.0
7940,67.0,32,210,0.0,0.0
7941,58.0,207,240,3.0,0.0
7942,55.0,1,120,2.0,0.0
7943,70.0,0,120,1.0,0.0
7944,60.0,229,240,3.0,0.0
7945,64.0,32,210,0.0,0.0
7946,72.0,1,120,1.0,0.0
7947,52.0,0,120,2.0,0.0
7948,65.0,0,240,0.0,0.0
7949,56.0,10,240,3.0,0.0
7950,53.0,0,120,2.0,0.0
7951,68.0,230,120,1.0,0.0
7952,62.0,0,240,0.0,0.0
7953,58.0,10,240,3.0,0.0
7954,50.0,0,120,2.0,0.0
7955,70.0,153,120,1.0,0.0
7956,63.0,120,240,0.0,0.0
7957,55.0,87,150,3.0,0.0
7958,51.0,0,120,2.0,0.0
7959,50.0,120,120,2.0,0.0
7960,51.0,230,120,2.0,0.0
7961,55.0,10,240,3.0,0.0
7962,73.0,0,240,1.0,0.0
7963,85.0,230,240,0.0,0.0
7964,51.0,0,120,2.0,0.0
7965,72.0,230,240,1.0,0.0
7966,56.0,10,240,3.0,0.0
7967,84.0,0,240,0.0,0.0
7968,51.0,0,120,2.0,0.0
7969,58.0,10,240,3.0,0.0
7970,82.0,0,240,0.0,0.0
7971,70.0,230,240,1.0,0.0
7972,51.0,0,120,2.0,0.0
7973,68.0,230,240,1.0,0.0
7974,80.0,0,240,0.0,0.0
7975,60.0,10,240,3.0,0.0
7976,51.0,0,120,2.0,0.0
7977,79.0,0,240,0.0,0.0
7978,67.0,0,240,1.0,0.0
7979,61.0,10,240,3.0,0.0
7980,51.0,230,120,2.0,0.0
7981,65.0,120,240,1.0,0.0
7982,77.0,0,240,0.0,0.0
7983,62.0,10,240,3.0,0.0
7984,51.0,0,120,2.0,0.0
7985,75.0,110,120,0.0,0.0
7986,63.0,10,240,3.0,0.0
7987,51.0,120,120,2.0,0.0
7988,68.0,0,120,1.0,0.0
7989,72.0,0,120,1.0,0.0
7990,63.0,10,240,3.0,0.0
7991,75.0,110,120,0.0,0.0
7992,51.0,120,120,2.0,0.0
7993,75.0,0,120,0.0,0.0
7994,73.0,0,120,1.0,0.0
7995,70.0,110,120,1.0,0.0
7996,63.0,10,240,3.0,0.0
7997,51.0,120,120,2.0,0.0
7998,70.0,0,120,1.0,0.0
7999,67.0,0,120,1.0,0.0
8000,63.0,10,240,3.0,0.0
8001,75.0,110,120,0.0,0.0
8002,51.0,120,120,2.0,0.0
8003,75.0,0,120,0.0,0.0
8004,68.0,0,120,1.0,0.0
8005,72.0,0,120,1.0,0.0
8006,56.0,240,120,3.0,0.0
8007,44.0,360,120,3.0,0.0
8008,58.0,0,240,3.0,0.0
8009,60.0,239,240,0.0,0.0
8010,72.0,1,120,1.0,0.0
8011,64.0,239,240,0.0,0.0
8012,55.0,1,240,3.0,0.0
8013,72.0,0,120,1.0,0.0
8014,52.0,1,240,3.0,0.0
8015,67.0,239,240,0.0,0.0
8016,72.0,0,120,1.0,0.0
8017,48.0,0,240,3.0,0.0
8018,71.0,239,240,0.0,0.0
8019,72.0,1,120,1.0,0.0
8020,70.0,239,240,0.0,0.0
8021,50.0,1,240,3.0,0.0
8022,72.0,0,120,1.0,0.0
8023,67.0,239,240,0.0,0.0
8024,52.0,0,240,3.0,0.0
8025,72.0,1,120,1.0,0.0
8026,68.0,239,240,0.0,0.0
8027,53.0,0,240,3.0,0.0
8028,72.0,1,120,1.0,0.0
8029,56.0,0,240,3.0,0.0
8030,65.0,229,240,0.0,0.0
8031,72.0,1,120,1.0,0.0
8032,80.0,230,240,0.0,0.0
8033,46.0,10,240,3.0,0.0
8034,58.0,0,120,2.0,0.0
8035,50.0,10,240,3.0,0.0
8036,77.0,0,240,0.0,0.0
8037,58.0,230,120,2.0,0.0
8038,53.0,10,240,3.0,0.0
8039,74.0,230,240,0.0,0.0
8040,58.0,0,120,2.0,0.0
8041,57.0,10,240,3.0,0.0
8042,70.0,0,240,0.0,0.0
8043,58.0,230,120,2.0,0.0
8044,72.0,0,240,0.0,0.0
8045,56.0,10,240,3.0,0.0
8046,58.0,230,120,2.0,0.0
8047,74.0,230,240,0.0,0.0
8048,53.0,10,240,3.0,0.0
8049,58.0,0,120,2.0,0.0
8050,55.0,10,240,3.0,0.0
8051,75.0,0,240,0.0,0.0
8052,58.0,230,120,2.0,0.0
8053,51.0,10,240,3.0,0.0
8054,79.0,0,240,0.0,0.0
8055,58.0,219,120,2.0,0.0
8056,61.0,219,240,3.0,0.0
8057,63.0,21,210,0.0,0.0
8058,75.0,0,120,1.0,0.0
8059,58.0,0,240,3.0,0.0
8060,67.0,21,210,0.0,0.0
8061,75.0,219,120,1.0,0.0
8062,55.0,0,240,3.0,0.0
8063,70.0,21,210,0.0,0.0
8064,75.0,219,120,1.0,0.0
8065,74.0,21,210,0.0,0.0
8066,51.0,219,240,3.0,0.0
8067,75.0,0,120,1.0,0.0
8068,73.0,21,210,0.0,0.0
8069,53.0,0,240,3.0,0.0
8070,75.0,219,120,1.0,0.0
8071,55.0,219,240,3.0,0.0
8072,70.0,21,210,0.0,0.0
8073,75.0,0,120,1.0,0.0
8074,56.0,219,240,3.0,0.0
8075,72.0,21,210,0.0,0.0
8076,75.0,0,120,1.0,0.0
8077,72.0,0,210,0.0,0.0
8078,63.0,21,210,1.0,0.0
8079,44.0,219,240,3.0,0.0
8080,75.0,0,120,1.0,0.0
8081,73.0,0,210,0.0,0.0
8082,67.0,21,210,1.0,0.0
8083,46.0,0,240,3.0,0.0
8084,75.0,219,120,1.0,0.0
8085,72.0,0,210,0.0,0.0
8086,48.0,0,240,3.0,0.0
8087,68.0,21,210,1.0,0.0
8088,75.0,219,120,1.0,0.0
8089,65.0,0,210,1.0,0.0
8090,49.0,0,240,3.0,0.0
8091,72.0,21,210,0.0,0.0
8092,75.0,219,120,1.0,0.0
8093,46.0,219,240,3.0,0.0
8094,65.0,0,210,1.0,0.0
8095,70.0,21,210,0.0,0.0
8096,73.0,0,120,1.0,0.0
8097,51.0,0,240,3.0,0.0
8098,63.0,21,210,1.0,0.0
8099,68.0,0,210,0.0,0.0
8100,72.0,219,120,1.0,0.0
8101,67.0,0,210,0.0,0.0
8102,39.0,120,240,3.0,0.0
8103,61.0,21,210,1.0,0.0
8104,70.0,0,120,1.0,0.0
8105,60.0,0,120,1.0,0.0
8106,68.0,120,240,0.0,0.0
8107,44.0,120,120,3.0,0.0
8108,32.0,360,120,3.0,0.0
8109,48.0,239,240,3.0,0.0
8110,70.0,0,240,1.0,0.0
8111,82.0,1,240,0.0,0.0
8112,60.0,0,120,2.0,0.0
8113,52.0,239,240,3.0,0.0
8114,79.0,1,240,0.0,0.0
8115,67.0,0,240,1.0,0.0
8116,60.0,0,120,2.0,0.0
8117,76.0,1,240,0.0,0.0
8118,64.0,0,240,1.0,0.0
8119,55.0,239,240,3.0,0.0
8120,60.0,0,120,2.0,0.0
8121,59.0,239,240,3.0,0.0
8122,72.0,1,240,0.0,0.0
8123,60.0,0,120,2.0,0.0
8124,62.0,0,240,1.0,0.0
8125,58.0,239,240,3.0,0.0
8126,74.0,0,240,0.0,0.0
8127,60.0,1,120,2.0,0.0
8128,55.0,239,240,3.0,0.0
8129,64.0,0,240,1.0,0.0
8130,76.0,1,240,0.0,0.0
8131,60.0,0,120,2.0,0.0
8132,56.0,239,240,3.0,0.0
8133,65.0,0,240,1.0,0.0
8134,77.0,0,240,0.0,0.0
8135,60.0,1,120,2.0,0.0
8136,53.0,119,240,3.0,0.0
8137,80.0,0,240,0.0,0.0
8138,68.0,1,240,1.0,0.0
8139,60.0,0,120,2.0,0.0
8140,70.0,120,120,0.0,0.0
8141,68.0,219,240,3.0,0.0
8142,82.0,0,120,1.0,0.0
8143,65.0,0,240,3.0,0.0
8144,74.0,21,210,0.0,0.0
8145,82.0,219,120,1.0,0.0
8146,62.0,0,240,3.0,0.0
8147,77.0,21,210,0.0,0.0
8148,82.0,219,120,1.0,0.0
8149,81.0,21,210,0.0,0.0
8150,58.0,0,240,3.0,0.0
8151,82.0,219,120,1.0,0.0
8152,80.0,21,210,0.0,0.0
8153,60.0,219,240,3.0,0.0
8154,82.0,0,120,1.0,0.0
8155,62.0,0,240,3.0,0.0
8156,77.0,21,210,0.0,0.0
8157,82.0,219,120,1.0,0.0
8158,63.0,0,240,3.0,0.0
8159,79.0,21,210,0.0,0.0
8160,82.0,219,120,1.0,0.0
8161,75.0,21,210,0.0,0.0
8162,67.0,240,240,3.0,0.0
8163,82.0,0,120,1.0,0.0
8164,73.0,0,240,1.0,0.0
8165,85.0,12,240,0.0,0.0
8166,39.0,228,240,3.0,0.0
8167,51.0,0,120,2.0,0.0
8168,43.0,228,240,3.0,0.0
8169,70.0,0,240,1.0,0.0
8170,82.0,0,240,0.0,0.0
8171,51.0,12,120,2.0,0.0
8172,79.0,0,240,0.0,0.0
8173,46.0,228,240,3.0,0.0
8174,67.0,0,240,1.0,0.0
8175,51.0,12,120,2.0,0.0
8176,50.0,228,240,3.0,0.0
8177,63.0,0,240,1.0,0.0
8178,75.0,0,240,0.0,0.0
8179,51.0,12,120,2.0,0.0
8180,65.0,0,240,1.0,0.0
8181,77.0,12,240,0.0,0.0
8182,49.0,228,240,3.0,0.0
8183,51.0,0,120,2.0,0.0
8184,67.0,0,240,1.0,0.0
8185,46.0,204,240,3.0,0.0
8186,79.0,12,240,0.0,0.0
8187,51.0,0,120,2.0,0.0
8188,68.0,0,240,1.0,0.0
8189,48.0,12,240,3.0,0.0
8190,80.0,216,240,0.0,0.0
8191,51.0,12,90,2.0,0.0
8192,75.0,0,210,1.0,0.0
8193,84.0,0,210,1.0,0.0
8194,80.0,21,210,1.0,0.0
8195,44.0,2,210,3.0,0.0
8196,87.0,216,120,0.0,0.0
8197,56.0,1,90,2.0,0.0
8198,75.0,21,210,1.0,0.0
8199,82.0,0,210,1.0,0.0
8200,85.0,0,210,1.0,0.0
8201,43.0,2,210,3.0,0.0
8202,87.0,216,120,0.0,0.0
8203,55.0,1,90,2.0,0.0
8204,75.0,0,210,1.0,0.0
8205,84.0,0,210,1.0,0.0
8206,44.0,2,210,3.0,0.0
8207,80.0,21,210,1.0,0.0
8208,87.0,216,120,0.0,0.0
8209,56.0,1,90,2.0,0.0
8210,84.0,21,210,1.0,0.0
8211,41.0,2,210,3.0,0.0
8212,75.0,0,210,1.0,0.0
8213,53.0,1,90,2.0,0.0
8214,87.0,216,120,0.0,0.0
8215,37.0,2,210,3.0,0.0
8216,73.0,0,210,1.0,0.0
8217,82.0,21,210,1.0,0.0
8218,85.0,216,120,0.0,0.0
8219,49.0,1,90,2.0,0.0
8220,72.0,21,210,1.0,0.0
8221,80.0,0,210,1.0,0.0
8222,39.0,2,210,3.0,0.0
8223,51.0,1,90,2.0,0.0
8224,84.0,216,120,0.0,0.0
8225,70.0,21,210,1.0,0.0
8226,39.0,2,210,3.0,0.0
8227,79.0,0,210,1.0,0.0
8228,82.0,96,120,0.0,0.0
8229,51.0,1,90,2.0,0.0
8230,32.0,24,90,3.0,0.0
8231,72.0,0,120,1.0,0.0
8232,80.0,240,120,0.0,0.0
8233,44.0,345,120,3.0,0.0
8234,68.0,0,240,0.0,0.0
8235,60.0,15,240,3.0,0.0
8236,56.0,0,120,2.0,0.0
8237,72.0,225,120,1.0,0.0
8238,65.0,0,240,0.0,0.0
8239,61.0,15,240,3.0,0.0
8240,73.0,225,120,1.0,0.0
8241,53.0,0,120,2.0,0.0
8242,58.0,15,240,3.0,0.0
8243,67.0,0,240,0.0,0.0
8244,70.0,225,120,1.0,0.0
8245,55.0,0,120,2.0,0.0
8246,64.0,0,240,0.0,0.0
8247,60.0,15,240,3.0,0.0
8248,72.0,120,120,1.0,0.0
8249,52.0,0,120,2.0,0.0
8250,53.0,105,120,2.0,0.0
8251,56.0,15,240,3.0,0.0
8252,65.0,0,240,0.0,0.0
8253,68.0,120,120,1.0,0.0
8254,62.0,120,240,0.0,0.0
8255,50.0,105,120,2.0,0.0
8256,58.0,15,240,3.0,0.0
8257,70.0,0,120,1.0,0.0
8258,67.0,0,120,0.0,0.0
8259,51.0,240,120,3.0,0.0
8260,79.0,0,120,0.0,0.0
8261,70.0,0,120,1.0,0.0
8262,75.0,352,120,1.0,0.0
8263,51.0,0,120,3.0,0.0
8264,39.0,0,120,3.0,0.0
8265,67.0,0,120,1.0,0.0
8266,79.0,0,240,0.0,0.0
8267,63.0,8,240,3.0,0.0
8268,67.0,232,120,2.0,0.0
8269,75.0,0,120,1.0,0.0
8270,80.0,232,240,0.0,0.0
8271,60.0,8,240,3.0,0.0
8272,72.0,0,120,1.0,0.0
8273,68.0,0,120,2.0,0.0
8274,62.0,8,240,3.0,0.0
8275,77.0,232,240,0.0,0.0
8276,74.0,0,120,1.0,0.0
8277,65.0,0,120,2.0,0.0
8278,59.0,8,240,3.0,0.0
8279,79.0,232,240,0.0,0.0
8280,71.0,0,120,1.0,0.0
8281,67.0,0,120,2.0,0.0
8282,75.0,0,240,0.0,0.0
8283,60.0,8,240,3.0,0.0
8284,63.0,218,120,2.0,0.0
8285,72.0,7,120,1.0,0.0
8286,77.0,0,240,0.0,0.0
8287,57.0,15,240,3.0,0.0
8288,65.0,0,120,2.0,0.0
8289,69.0,120,120,1.0,0.0
8290,58.0,240,120,3.0,0.0
8291,73.0,0,120,0.0,0.0
8292,70.0,0,120,1.0,0.0
8293,46.0,359,120,3.0,0.0
8294,58.0,0,120,3.0,0.0
8295,82.0,0,120,0.0,0.0
8296,73.0,0,120,1.0,0.0
8297,61.0,1,240,3.0,0.0
8298,70.0,0,240,0.0,0.0
8299,58.0,0,120,2.0,0.0
8300,73.0,239,120,1.0,0.0
8301,63.0,1,240,3.0,0.0
8302,67.0,0,240,0.0,0.0
8303,55.0,239,120,2.0,0.0
8304,75.0,0,120,1.0,0.0
8305,68.0,0,240,0.0,0.0
8306,60.0,1,240,3.0,0.0
8307,56.0,0,120,2.0,0.0
8308,72.0,239,120,1.0,0.0
8309,65.0,0,240,0.0,0.0
8310,61.0,1,240,3.0,0.0
8311,53.0,0,120,2.0,0.0
8312,73.0,120,120,1.0,0.0
8313,58.0,8,240,3.0,0.0
8314,55.0,112,120,2.0,0.0
8315,67.0,120,240,0.0,0.0
8316,70.0,0,120,1.0,0.0
8317,52.0,112,120,2.0,0.0
8318,64.0,0,240,0.0,0.0
8319,60.0,8,240,3.0,0.0
8320,72.0,120,120,1.0,0.0
8321,68.0,0,120,0.0,0.0
8322,53.0,240,120,3.0,0.0
8323,53.0,0,120,3.0,0.0
8324,80.0,0,120,0.0,0.0
8325,41.0,0,120,3.0,0.0
8326,77.0,0,120,1.0,0.0
8327,72.0,0,120,1.0,0.0
8328,68.0,352,120,1.0,0.0
8329,65.0,8,240,3.0,0.0
8330,80.0,0,240,0.0,0.0
8331,77.0,232,120,1.0,0.0
8332,68.0,0,120,2.0,0.0
8333,82.0,0,240,0.0,0.0
8334,62.0,8,240,3.0,0.0
8335,70.0,120,120,2.0,0.0
8336,74.0,0,120,1.0,0.0
8337,67.0,112,120,2.0,0.0
8338,63.0,8,240,3.0,0.0
8339,79.0,0,240,0.0,0.0
8340,75.0,120,120,1.0,0.0
8341,60.0,8,240,3.0,0.0
8342,80.0,0,240,0.0,0.0
8343,68.0,112,120,2.0,0.0
8344,72.0,120,120,1.0,0.0
8345,62.0,8,240,3.0,0.0
8346,65.0,112,120,2.0,0.0
8347,77.0,0,240,0.0,0.0
8348,74.0,120,120,1.0,0.0
8349,67.0,112,120,2.0,0.0
8350,59.0,8,240,3.0,0.0
8351,79.0,0,240,0.0,0.0
8352,71.0,120,120,1.0,0.0
8353,60.0,0,120,3.0,0.0
8354,75.0,240,120,0.0,0.0
8355,45.0,0,120,3.0,0.0
8356,75.0,240,120,1.0,0.0
8357,84.0,0,120,0.0,0.0
8358,77.0,0,120,1.0,0.0
8359,72.0,0,120,1.0,0.0
8360,46.0,0,120,3.0,0.0
8361,73.0,240,120,0.0,0.0
8362,73.0,240,120,1.0,0.0
8363,82.0,0,120,0.0,0.0
8364,75.0,0,120,1.0,0.0
8365,58.0,0,120,3.0,0.0
8366,70.0,0,120,1.0,0.0
8367,73.0,0,120,0.0,0.0
8368,43.0,240,120,3.0,0.0
8369,70.0,240,120,1.0,0.0
8370,73.0,0,120,1.0,0.0
8371,55.0,0,120,3.0,0.0
8372,75.0,0,120,1.0,0.0
8373,82.0,0,120,0.0,0.0
8374,44.0,0,120,3.0,0.0
8375,72.0,240,120,0.0,0.0
8376,72.0,0,120,1.0,0.0
8377,75.0,0,120,1.0,0.0
8378,68.0,0,120,1.0,0.0
8379,80.0,0,120,0.0,0.0
8380,56.0,240,120,3.0,0.0
8381,39.0,240,120,3.0,0.0
8382,70.0,0,120,0.0,0.0
8383,75.0,0,120,1.0,0.0
8384,51.0,0,120,3.0,0.0
8385,70.0,0,120,1.0,0.0
8386,79.0,328,120,0.0,0.0
8387,67.0,0,120,1.0,0.0
8388,49.0,32,210,3.0,0.0
8389,51.0,120,120,2.0,0.0
8390,75.0,88,120,0.0,0.0
8391,46.0,32,210,3.0,0.0
8392,63.0,0,120,1.0,0.0
8393,55.0,208,120,2.0,0.0
8394,49.0,32,210,3.0,0.0
8395,51.0,120,120,2.0,0.0
8396,67.0,0,120,1.0,0.0
8397,46.0,32,210,3.0,0.0
8398,79.0,88,120,0.0,0.0
8399,55.0,208,120,2.0,0.0
8400,49.0,32,210,3.0,0.0
8401,51.0,120,120,2.0,0.0
8402,46.0,32,210,3.0,0.0
8403,70.0,0,120,1.0,0.0
8404,82.0,88,120,0.0,0.0
8405,55.0,120,120,2.0,0.0
8406,67.0,88,120,1.0,0.0
8407,49.0,32,210,3.0,0.0
8408,79.0,0,120,0.0,0.0
8409,51.0,120,120,2.0,0.0
8410,46.0,32,210,3.0,0.0
8411,75.0,0,120,0.0,0.0
8412,63.0,88,120,1.0,0.0
8413,55.0,208,120,2.0,0.0
8414,49.0,32,210,3.0,0.0
8415,51.0,120,120,2.0,0.0
8416,46.0,32,210,3.0,0.0
8417,75.0,0,120,0.0,0.0
8418,63.0,88,120,1.0,0.0
8419,55.0,208,120,2.0,0.0
8420,49.0,32,210,3.0,0.0
8421,51.0,120,120,2.0,0.0
8422,79.0,0,120,0.0,0.0
8423,46.0,32,210,3.0,0.0
8424,67.0,88,120,1.0,0.0
8425,55.0,208,120,2.0,0.0
8426,49.0,32,210,3.0,0.0
8427,51.0,120,120,2.0,0.0
8428,46.0,32,210,3.0,0.0
8429,70.0,0,120,1.0,0.0
8430,82.0,88,120,0.0,0.0
8431,55.0,120,120,2.0,0.0
8432,49.0,32,210,3.0,0.0
8433,67.0,0,120,1.0,0.0
8434,79.0,88,120,0.0,0.0
8435,51.0,120,120,2.0,0.0
8436,46.0,32,210,3.0,0.0
8437,63.0,0,120,1.0,0.0
8438,75.0,88,120,0.0,0.0
8439,55.0,240,120,2.0,0.0
8440,82.0,97,270,0.0,0.0
8441,86.0,23,120,1.0,0.0
8442,51.0,0,120,3.0,0.0
8443,39.0,110,120,3.0,0.0
8444,79.0,10,240,0.0,0.0
8445,87.0,225,120,1.0,0.0
8446,82.0,120,240,0.0,0.0
8447,85.0,15,120,1.0,0.0
8448,79.0,7,240,0.0,0.0
8449,43.0,120,120,3.0,0.0
8450,55.0,0,120,3.0,0.0
8451,87.0,233,120,1.0,0.0
8452,82.0,7,240,0.0,0.0
8453,85.0,113,120,1.0,0.0
8454,46.0,120,120,3.0,0.0
8455,79.0,7,240,0.0,0.0
8456,58.0,0,120,3.0,0.0
8457,87.0,113,120,1.0,0.0
8458,82.0,120,240,0.0,0.0
8459,55.0,120,120,3.0,0.0
8460,43.0,0,120,3.0,0.0
8461,85.0,0,120,1.0,0.0
8462,39.0,120,120,3.0,0.0
8463,51.0,0,120,3.0,0.0
8464,79.0,7,240,0.0,0.0
8465,87.0,233,120,1.0,0.0
8466,82.0,0,240,0.0,0.0
8467,85.0,120,120,1.0,0.0
8468,79.0,7,240,0.0,0.0
8469,51.0,0,120,3.0,0.0
8470,39.0,120,120,3.0,0.0
8471,87.0,233,120,1.0,0.0
8472,82.0,7,240,0.0,0.0
8473,85.0,113,120,1.0,0.0
8474,43.0,0,120,3.0,0.0
8475,55.0,120,120,3.0,0.0
8476,79.0,240,240,0.0,0.0
8477,87.0,0,120,1.0,0.0
8478,82.0,7,240,0.0,0.0
8479,85.0,113,120,1.0,0.0
8480,79.0,0,240,0.0,0.0
8481,46.0,120,120,3.0,0.0
8482,58.0,0,120,3.0,0.0
8483,87.0,120,120,1.0,0.0
8484,82.0,7,240,0.0,0.0
8485,43.0,120,120,3.0,0.0
8486,55.0,0,120,3.0,0.0
8487,85.0,113,120,1.0,0.0
8488,79.0,240,240,0.0,0.0
8489,51.0,0,120,3.0,0.0
8490,39.0,120,120,3.0,0.0
8491,87.0,0,120,1.0,0.0
8492,82.0,120,240,0.0,0.0
8493,85.0,0,120,1.0,0.0
8494,46.0,120,120,3.0,0.0
8495,58.0,0,120,3.0,0.0
8496,79.0,7,240,0.0,0.0
8497,87.0,113,120,1.0,0.0
8498,55.0,0,120,3.0,0.0
8499,43.0,112,120,3.0,0.0
8500,82.0,120,240,0.0,0.0
8501,85.0,8,120,1.0,0.0
8502,39.0,0,120,3.0,0.0
8503,51.0,120,120,3.0,0.0
8504,79.0,7,240,0.0,0.0
8505,87.0,233,120,1.0,0.0
8506,82.0,7,240,0.0,0.0
8507,85.0,113,120,1.0,0.0
8508,79.0,7,240,0.0,0.0
8509,51.0,0,120,3.0,0.0
8510,39.0,120,120,3.0,0.0
8511,87.0,113,120,1.0,0.0
8512,44.0,0,120,3.0,0.0
8513,84.0,0,120,0.0,0.0
8514,56.0,240,120,3.0,0.0
8515,36.0,120,720,3.0,0.0
8516,48.0,0,720,3.0,0.0
8517,80.0,120,120,0.0,0.0
8518,79.0,120,120,0.0,0.0
8519,77.0,120,120,0.0,0.0
8520,75.0,120,120,0.0,0.0
8521,73.0,120,120,0.0,0.0
8522,72.0,0,120,0.0,0.0
8523,70.0,120,120,0.0,0.0
8524,37.0,0,480,3.0,0.0
8525,49.0,0,480,3.0,0.0
8526,68.0,120,120,0.0,0.0
8527,67.0,120,120,0.0,0.0
8528,65.0,120,120,0.0,0.0
8529,39.0,0,480,3.0,0.0
8530,51.0,0,480,3.0,0.0
8531,63.0,120,120,0.0,0.0
8532,61.0,120,120,0.0,0.0
8533,60.0,120,120,0.0,0.0
8534,58.0,120,120,0.0,0.0
8535,56.0,0,120,0.0,0.0
8536,41.0,0,120,3.0,0.0
8537,53.0,240,120,3.0,0.0
8538,36.0,0,720,3.0,0.0
8539,48.0,0,720,3.0,0.0
8540,84.0,120,120,0.0,0.0
8541,82.0,80,120,0.0,0.0
8542,80.0,80,90,0.0,0.0
8543,79.0,80,90,0.0,0.0
8544,77.0,80,90,0.0,0.0
8545,75.0,80,90,0.0,0.0
8546,73.0,80,90,0.0,0.0
8547,72.0,120,90,0.0,0.0
8548,37.0,0,480,3.0,0.0
8549,49.0,120,480,3.0,0.0
8550,70.0,120,120,0.0,0.0
8551,68.0,120,120,0.0,0.0
8552,67.0,120,120,0.0,0.0
8553,65.0,0,120,0.0,0.0
8554,51.0,0,480,3.0,0.0
8555,63.0,120,120,0.0,0.0
8556,39.0,0,480,3.0,0.0
8557,61.0,120,120,0.0,0.0
8558,60.0,120,120,0.0,0.0
8559,58.0,120,120,0.0,0.0
8560,41.0,0,120,3.0,0.0
8561,56.0,180,120,0.0,0.0
8562,53.0,0,120,3.0,0.0
8563,87.0,60,60,0.0,0.0
8564,48.0,120,720,3.0,0.0
8565,36.0,0,720,3.0,0.0
8566,85.0,60,60,0.0,0.0
8567,84.0,60,60,0.0,0.0
8568,82.0,90,60,0.0,0.0
8569,80.0,70,90,0.0,0.0
8570,79.0,80,90,0.0,0.0
8571,77.0,80,90,0.0,0.0
8572,75.0,75,90,0.0,0.0
8573,73.0,85,60,0.0,0.0
8574,72.0,0,90,0.0,0.0
8575,70.0,120,120,0.0,0.0
8576,49.0,0,480,3.0,0.0
8577,37.0,120,480,3.0,0.0
8578,68.0,120,120,0.0,0.0
8579,67.0,120,120,0.0,0.0
8580,65.0,0,120,0.0,0.0
8581,63.0,120,120,0.0,0.0
8582,39.0,120,480,3.0,0.0
8583,51.0,0,480,3.0,0.0
8584,61.0,120,120,0.0,0.0
8585,60.0,120,120,0.0,0.0
8586,58.0,0,120,0.0,0.0
8587,32.0,120,1920,3.0,0.0
8588,56.0,592,120,0.0,0.0
8589,44.0,0,1680,3.0,0.0
8590,80.0,8,240,0.0,0.0
8591,77.0,232,120,1.0,0.0
8592,82.0,8,240,0.0,0.0
8593,74.0,240,120,1.0,0.0
8594,78.0,232,240,0.0,0.0
8595,75.0,0,120,1.0,0.0
8596,80.0,8,240,0.0,0.0
8597,72.0,224,120,1.0,0.0
8598,77.0,16,210,0.0,0.0
8599,73.0,240,120,1.0,0.0
8600,78.0,120,480,0.0,0.0
8601,70.0,0,120,1.0,0.0
8602,75.0,120,120,1.0,0.0
8603,32.0,235,1920,3.0,0.0
8604,69.0,0,120,1.0,0.0
8605,44.0,0,1680,3.0,0.0
8606,73.0,120,120,1.0,0.0
8607,77.0,0,240,0.0,0.0
8608,70.0,240,120,1.0,0.0
8609,73.0,220,240,0.0,0.0
8610,70.0,15,120,1.0,0.0
8611,76.0,5,240,0.0,0.0
8612,67.0,240,120,1.0,0.0
8613,70.0,0,240,0.0,0.0
8614,67.0,240,120,1.0,0.0
8615,73.0,240,240,0.0,0.0
8616,64.0,0,120,1.0,0.0
8617,67.0,0,240,0.0,0.0
8618,64.0,235,120,1.0,0.0
8619,70.0,5,240,0.0,0.0
8620,61.0,0,120,1.0,0.0
8621,68.0,5,240,0.0,0.0
8622,63.0,235,120,1.0,0.0
8623,44.0,0,1680,3.0,0.0
8624,72.0,5,240,0.0,0.0
8625,60.0,235,120,1.0,0.0
8626,68.0,5,240,0.0,0.0
8627,65.0,235,120,1.0,0.0
8628,70.0,5,240,0.0,0.0
8629,62.0,240,120,1.0,0.0
8630,66.0,0,240,0.0,0.0
8631,63.0,240,120,1.0,0.0
8632,68.0,240,240,0.0,0.0
8633,60.0,0,120,1.0,0.0
8634,65.0,0,240,0.0,0.0
8635,61.0,240,120,1.0,0.0
8636,66.0,120,480,0.0,0.0
8637,58.0,0,120,1.0,0.0
8638,63.0,120,120,1.0,0.0
8639,32.0,120,15,3.0,0.0
8640,57.0,0,120,1.0,0.0
8641,65.0,235,240,0.0,0.0
8642,61.0,120,120,1.0,0.0
8643,44.0,235,1680,3.0,0.0
8644,58.0,0,120,1.0,0.0
8645,61.0,5,240,0.0,0.0
8646,58.0,235,120,1.0,0.0
8647,64.0,5,240,0.0,0.0
8648,55.0,240,120,1.0,0.0
8649,58.0,225,240,0.0,0.0
8650,55.0,10,120,1.0,0.0
8651,61.0,5,240,0.0,0.0
8652,52.0,235,120,1.0,0.0
8653,55.0,5,240,0.0,0.0
8654,52.0,235,120,1.0,0.0
8655,58.0,5,240,0.0,0.0
8656,49.0,0,120,1.0,0.0
8657,56.0,5,240,0.0,0.0
8658,32.0,0,1920,3.0,0.0
8659,51.0,235,120,1.0,0.0
8660,60.0,5,240,0.0,0.0
8661,44.0,235,1680,3.0,0.0
8662,48.0,120,120,1.0,0.0
8663,58.0,115,120,1.0,0.0
8664,61.0,125,240,0.0,0.0
8665,64.0,245,240,0.0,0.0
8666,55.0,115,120,1.0,0.0
8667,58.0,230,240,0.0,0.0
8668,55.0,5,120,1.0,0.0
8669,61.0,5,240,0.0,0.0
8670,52.0,235,120,1.0,0.0
8671,55.0,5,240,0.0,0.0
8672,52.0,235,120,1.0,0.0
8673,58.0,5,240,0.0,0.0
8674,49.0,0,120,1.0,0.0
8675,56.0,5,240,0.0,0.0
8676,48.0,235,120,1.0,0.0
8677,60.0,5,240,0.0,0.0
8678,48.0,235,120,1.0,0.0
8679,61.0,5,240,0.0,0.0
8680,58.0,235,120,1.0,0.0
8681,64.0,5,240,0.0,0.0
8682,55.0,235,120,1.0,0.0
8683,58.0,5,240,0.0,0.0
8684,55.0,235,120,1.0,0.0
8685,61.0,5,240,0.0,0.0
8686,52.0,235,120,1.0,0.0
8687,55.0,5,240,0.0,0.0
8688,52.0,235,120,1.0,0.0
8689,58.0,5,240,0.0,0.0
8690,49.0,0,120,1.0,0.0
8691,56.0,5,240,0.0,0.0
8692,32.0,0,15,3.0,0.0
8693,44.0,235,15,3.0,0.0
8694,51.0,235,120,1.0,0.0
8695,60.0,5,240,0.0,0.0
8696,48.0,240,120,1.0,0.0
8697,51.0,215,270,0.0,0.0
8698,48.0,20,120,1.0,0.0
8699,56.0,5,240,0.0,0.0
8700,44.0,0,120,1.0,0.0
8701,48.0,5,240,0.0,0.0
8702,44.0,235,120,1.0,0.0
8703,51.0,5,240,0.0,0.0
8704,39.0,240,120,1.0,0.0
8705,44.0,225,240,0.0,0.0
8706,39.0,10,120,1.0,0.0
8707,48.0,5,240,0.0,0.0
8708,36.0,960,120,1.0,0.0
8709,44.0,960,960,3.0,0.0
8710,32.0,0,1920,3.0,0.0
