,note,step,duration,channel,velocity
0,46.0,240,720,0.0,0.0
1,73.0,0,15,0.0,0.0
2,64.0,0,15,0.0,0.0
3,55.0,0,15,0.0,0.0
4,64.0,0,15,0.0,0.0
5,73.0,0,15,0.0,0.0
6,46.0,720,15,0.0,0.0
7,55.0,0,15,0.0,0.0
8,64.0,0,15,0.0,0.0
9,46.0,0,15,0.0,0.0
10,55.0,0,15,0.0,0.0
11,73.0,240,15,0.0,0.0
12,46.0,0,15,0.0,0.0
13,64.0,0,360,0.0,0.0
14,73.0,360,15,0.0,0.0
15,55.0,0,15,0.0,0.0
16,55.0,360,120,0.0,0.0
17,46.0,0,15,0.0,0.0
18,73.0,0,15,0.0,0.0
19,64.0,0,15,0.0,0.0
20,55.0,0,15,0.0,0.0
21,46.0,0,15,0.0,0.0
22,64.0,0,120,0.0,0.0
23,73.0,120,15,0.0,0.0
24,73.0,0,15,0.0,0.0
25,46.0,0,360,0.0,0.0
26,55.0,360,15,0.0,0.0
27,64.0,0,360,0.0,0.0
28,46.0,0,120,0.0,0.0
29,55.0,120,15,0.0,0.0
30,55.0,0,15,0.0,0.0
31,64.0,360,15,0.0,0.0
32,73.0,0,15,0.0,0.0
33,46.0,0,360,0.0,0.0
34,64.0,0,120,0.0,0.0
35,73.0,0,15,0.0,0.0
36,46.0,0,120,0.0,0.0
37,55.0,120,15,0.0,0.0
38,64.0,0,480,0.0,0.0
39,73.0,360,480,0.0,0.0
40,55.0,480,15,0.0,0.0
41,46.0,0,480,0.0,0.0
42,85.0,120,120,0.0,0.0
43,84.0,120,120,0.0,0.0
44,82.0,120,120,0.0,0.0
45,84.0,120,120,0.0,0.0
46,82.0,120,120,0.0,0.0
47,80.0,120,120,0.0,0.0
48,79.0,120,120,0.0,0.0
49,80.0,120,120,0.0,0.0
50,79.0,120,120,0.0,0.0
51,77.0,480,120,0.0,0.0
52,76.0,360,480,0.0,0.0
53,73.0,120,120,0.0,0.0
54,72.0,120,120,0.0,0.0
55,70.0,120,120,0.0,0.0
56,72.0,120,120,0.0,0.0
57,70.0,120,120,0.0,0.0
58,68.0,120,120,0.0,0.0
59,67.0,120,120,0.0,0.0
60,68.0,120,120,0.0,0.0
61,67.0,120,120,0.0,0.0
62,65.0,480,120,0.0,0.0
63,64.0,360,480,0.0,0.0
64,73.0,120,120,0.0,0.0
65,72.0,120,120,0.0,0.0
66,70.0,120,120,0.0,0.0
67,72.0,120,120,0.0,0.0
68,70.0,120,120,0.0,0.0
69,68.0,120,120,0.0,0.0
70,67.0,120,120,0.0,0.0
71,68.0,120,120,0.0,0.0
72,67.0,120,120,0.0,0.0
73,65.0,120,120,0.0,0.0
74,64.0,120,120,0.0,0.0
75,65.0,120,120,0.0,0.0
76,64.0,120,120,0.0,0.0
77,61.0,120,120,0.0,0.0
78,60.0,120,120,0.0,0.0
79,61.0,120,120,0.0,0.0
80,60.0,120,120,0.0,0.0
81,59.0,120,120,0.0,0.0
82,58.0,120,120,0.0,0.0
83,60.0,120,120,0.0,0.0
84,58.0,120,120,0.0,0.0
85,56.0,120,120,0.0,0.0
86,55.0,120,120,0.0,0.0
87,56.0,120,120,0.0,0.0
88,55.0,120,120,0.0,0.0
89,53.0,120,120,0.0,0.0
90,52.0,120,120,0.0,0.0
91,53.0,120,120,0.0,0.0
92,52.0,120,120,0.0,0.0
93,49.0,130,120,0.0,0.0
94,36.0,120,120,0.0,0.0
95,48.0,0,120,0.0,0.0
96,49.0,0,120,0.0,0.0
97,37.0,120,120,0.0,0.0
98,36.0,0,120,0.0,0.0
99,48.0,120,120,0.0,0.0
100,47.0,0,120,0.0,0.0
101,35.0,120,120,0.0,0.0
102,48.0,0,120,0.0,0.0
103,36.0,120,120,0.0,0.0
104,49.0,120,120,0.0,0.0
105,37.0,0,120,0.0,0.0
106,36.0,120,120,0.0,0.0
107,48.0,0,120,0.0,0.0
108,35.0,120,120,0.0,0.0
109,47.0,0,120,0.0,0.0
110,36.0,0,120,0.0,0.0
111,48.0,120,120,0.0,0.0
112,37.0,0,120,0.0,0.0
113,49.0,120,120,0.0,0.0
114,36.0,0,120,0.0,0.0
115,48.0,120,120,0.0,0.0
116,47.0,0,120,0.0,0.0
117,35.0,120,120,0.0,0.0
118,48.0,120,120,0.0,0.0
119,36.0,0,120,0.0,0.0
120,37.0,120,120,0.0,0.0
121,49.0,0,120,0.0,0.0
122,48.0,120,120,0.0,0.0
123,36.0,0,120,0.0,0.0
124,35.0,0,120,0.0,0.0
125,47.0,120,120,0.0,0.0
126,36.0,0,120,0.0,0.0
127,48.0,120,120,0.0,0.0
128,49.0,120,120,0.0,0.0
129,37.0,0,120,0.0,0.0
130,36.0,120,120,0.0,0.0
131,48.0,0,120,0.0,0.0
132,35.0,0,120,0.0,0.0
133,47.0,120,120,0.0,0.0
134,46.0,0,120,0.0,0.0
135,34.0,120,120,0.0,0.0
136,48.0,0,120,0.0,0.0
137,36.0,120,120,0.0,0.0
138,46.0,120,120,0.0,0.0
139,34.0,0,120,0.0,0.0
140,45.0,120,120,0.0,0.0
141,33.0,0,120,0.0,0.0
142,46.0,120,120,0.0,0.0
143,34.0,0,120,0.0,0.0
144,48.0,120,120,0.0,0.0
145,36.0,0,120,0.0,0.0
146,34.0,120,120,0.0,0.0
147,46.0,0,120,0.0,0.0
148,33.0,0,120,0.0,0.0
149,45.0,120,120,0.0,0.0
150,34.0,0,120,0.0,0.0
151,46.0,120,120,0.0,0.0
152,36.0,0,120,0.0,0.0
153,48.0,120,120,0.0,0.0
154,34.0,0,120,0.0,0.0
155,46.0,120,120,0.0,0.0
156,33.0,120,120,0.0,0.0
157,45.0,0,120,0.0,0.0
158,46.0,120,120,0.0,0.0
159,34.0,0,120,0.0,0.0
160,36.0,0,120,0.0,0.0
161,48.0,120,120,0.0,0.0
162,34.0,120,120,0.0,0.0
163,46.0,0,120,0.0,0.0
164,45.0,120,120,0.0,0.0
165,33.0,0,120,0.0,0.0
166,34.0,120,120,0.0,0.0
167,46.0,0,120,0.0,0.0
168,48.0,0,120,0.0,0.0
169,36.0,120,120,0.0,0.0
170,34.0,0,120,0.0,0.0
171,46.0,120,120,0.0,0.0
172,33.0,0,120,0.0,0.0
173,45.0,120,120,0.0,0.0
174,34.0,120,120,0.0,0.0
175,46.0,0,120,0.0,0.0
176,48.0,0,120,0.0,0.0
177,36.0,120,120,0.0,0.0
178,46.0,120,120,0.0,0.0
179,34.0,0,120,0.0,0.0
180,45.0,120,120,0.0,0.0
181,33.0,0,120,0.0,0.0
182,34.0,0,120,0.0,0.0
183,46.0,120,120,0.0,0.0
184,31.0,120,120,0.0,0.0
185,43.0,0,120,0.0,0.0
186,44.0,120,120,0.0,0.0
187,32.0,0,120,0.0,0.0
188,46.0,120,120,0.0,0.0
189,34.0,0,120,0.0,0.0
190,36.0,0,120,0.0,0.0
191,48.0,120,120,0.0,0.0
192,46.0,120,120,0.0,0.0
193,34.0,0,120,0.0,0.0
194,32.0,120,120,0.0,0.0
195,44.0,0,120,0.0,0.0
196,43.0,0,120,0.0,0.0
197,31.0,230,120,0.0,0.0
198,29.0,0,480,0.0,0.0
199,48.0,120,120,0.0,0.0
200,53.0,120,120,0.0,0.0
201,56.0,120,120,0.0,0.0
202,60.0,120,120,0.0,0.0
203,61.0,120,120,0.0,0.0
204,60.0,120,120,0.0,0.0
205,58.0,120,120,0.0,0.0
206,56.0,120,120,0.0,0.0
207,58.0,120,120,0.0,0.0
208,56.0,120,120,0.0,0.0
209,55.0,120,120,0.0,0.0
210,53.0,120,120,0.0,0.0
211,55.0,120,120,0.0,0.0
212,56.0,120,120,0.0,0.0
213,41.0,240,120,0.0,0.0
214,53.0,0,120,0.0,0.0
215,29.0,0,480,0.0,0.0
216,48.0,120,120,0.0,0.0
217,53.0,120,120,0.0,0.0
218,56.0,120,120,0.0,0.0
219,60.0,120,120,0.0,0.0
220,61.0,120,120,0.0,0.0
221,60.0,120,120,0.0,0.0
222,58.0,120,120,0.0,0.0
223,56.0,120,120,0.0,0.0
224,58.0,120,120,0.0,0.0
225,56.0,120,120,0.0,0.0
226,55.0,120,120,0.0,0.0
227,53.0,120,120,0.0,0.0
228,55.0,120,120,0.0,0.0
229,56.0,120,120,0.0,0.0
230,53.0,0,120,0.0,0.0
231,41.0,240,120,0.0,0.0
232,34.0,120,480,0.0,0.0
233,49.0,120,120,0.0,0.0
234,54.0,120,120,0.0,0.0
235,58.0,0,120,0.0,0.0
236,61.0,120,120,0.0,0.0
237,63.0,120,120,0.0,0.0
238,61.0,120,120,0.0,0.0
239,60.0,120,120,0.0,0.0
240,58.0,120,120,0.0,0.0
241,60.0,120,120,0.0,0.0
242,58.0,120,120,0.0,0.0
243,56.0,120,120,0.0,0.0
244,54.0,120,120,0.0,0.0
245,56.0,120,120,0.0,0.0
246,54.0,120,120,0.0,0.0
247,53.0,120,120,0.0,0.0
248,37.0,0,120,0.0,0.0
249,36.0,120,240,0.0,0.0
250,52.0,120,120,0.0,0.0
251,53.0,0,120,0.0,0.0
252,55.0,120,120,0.0,0.0
253,52.0,120,120,0.0,0.0
254,37.0,120,240,0.0,0.0
255,53.0,120,120,0.0,0.0
256,55.0,0,120,0.0,0.0
257,56.0,120,120,0.0,0.0
258,53.0,120,120,0.0,0.0
259,34.0,120,240,0.0,0.0
260,55.0,120,120,0.0,0.0
261,56.0,0,120,0.0,0.0
262,58.0,120,120,0.0,0.0
263,55.0,120,120,0.0,0.0
264,52.0,120,120,0.0,0.0
265,36.0,120,240,0.0,0.0
266,53.0,0,120,0.0,0.0
267,55.0,120,120,0.0,0.0
268,52.0,120,120,0.0,0.0
269,41.0,0,480,0.0,0.0
270,29.0,120,480,0.0,0.0
271,53.0,120,120,0.0,0.0
272,48.0,120,120,0.0,0.0
273,53.0,120,120,0.0,0.0
274,56.0,0,120,0.0,0.0
275,60.0,120,120,0.0,0.0
276,61.0,120,120,0.0,0.0
277,60.0,120,120,0.0,0.0
278,58.0,0,120,0.0,0.0
279,72.0,120,120,0.0,0.0
280,68.0,0,120,0.0,0.0
281,56.0,120,120,0.0,0.0
282,68.0,120,480,0.0,0.0
283,72.0,0,480,0.0,0.0
284,58.0,120,120,0.0,0.0
285,56.0,120,120,0.0,0.0
286,55.0,0,120,0.0,0.0
287,53.0,120,120,0.0,0.0
288,68.0,0,240,0.0,0.0
289,65.0,0,240,0.0,0.0
290,55.0,120,120,0.0,0.0
291,56.0,120,120,0.0,0.0
292,53.0,240,120,0.0,0.0
293,29.0,120,480,0.0,0.0
294,41.0,0,480,0.0,0.0
295,48.0,120,120,0.0,0.0
296,53.0,120,120,0.0,0.0
297,56.0,0,120,0.0,0.0
298,60.0,120,120,0.0,0.0
299,61.0,120,120,0.0,0.0
300,60.0,120,120,0.0,0.0
301,68.0,0,120,0.0,0.0
302,72.0,0,120,0.0,0.0
303,58.0,120,120,0.0,0.0
304,72.0,120,480,0.0,0.0
305,56.0,120,120,0.0,0.0
306,58.0,120,120,0.0,0.0
307,56.0,120,120,0.0,0.0
308,55.0,0,120,0.0,0.0
309,68.0,0,15,0.0,0.0
310,53.0,120,120,0.0,0.0
311,65.0,0,240,0.0,0.0
312,55.0,0,120,0.0,0.0
313,56.0,120,120,0.0,0.0
314,53.0,240,120,0.0,0.0
315,34.0,0,480,0.0,0.0
316,46.0,120,480,0.0,0.0
317,49.0,120,120,0.0,0.0
318,54.0,120,120,0.0,0.0
319,58.0,0,120,0.0,0.0
320,61.0,120,120,0.0,0.0
321,63.0,120,120,0.0,0.0
322,61.0,120,120,0.0,0.0
323,60.0,120,120,0.0,0.0
324,70.0,0,15,0.0,0.0
325,73.0,0,15,0.0,0.0
326,58.0,120,120,0.0,0.0
327,60.0,120,120,0.0,0.0
328,58.0,120,120,0.0,0.0
329,56.0,120,120,0.0,0.0
330,54.0,120,120,0.0,0.0
331,56.0,120,120,0.0,0.0
332,54.0,120,120,0.0,0.0
333,53.0,120,120,0.0,0.0
334,72.0,0,240,0.0,0.0
335,70.0,120,240,0.0,0.0
336,52.0,120,120,0.0,0.0
337,53.0,0,120,0.0,0.0
338,48.0,0,240,0.0,0.0
339,55.0,120,120,0.0,0.0
340,36.0,120,240,0.0,0.0
341,52.0,0,120,0.0,0.0
342,53.0,120,120,0.0,0.0
343,55.0,120,120,0.0,0.0
344,56.0,120,120,0.0,0.0
345,37.0,0,240,0.0,0.0
346,49.0,0,240,0.0,0.0
347,53.0,120,120,0.0,0.0
348,55.0,120,120,0.0,0.0
349,56.0,120,120,0.0,0.0
350,46.0,120,240,0.0,0.0
351,34.0,0,240,0.0,0.0
352,58.0,120,120,0.0,0.0
353,55.0,0,120,0.0,0.0
354,52.0,120,120,0.0,0.0
355,53.0,120,120,0.0,0.0
356,48.0,120,240,0.0,0.0
357,55.0,120,120,0.0,0.0
358,36.0,0,240,0.0,0.0
359,52.0,0,120,0.0,0.0
360,41.0,0,480,0.0,0.0
361,29.0,0,480,0.0,0.0
362,53.0,120,120,0.0,0.0
363,60.0,120,120,0.0,0.0
364,65.0,120,120,0.0,0.0
365,68.0,120,120,0.0,0.0
366,72.0,120,120,0.0,0.0
367,60.0,120,120,0.0,0.0
368,65.0,120,120,0.0,0.0
369,68.0,240,120,0.0,0.0
370,56.0,0,15,0.0,0.0
371,53.0,0,15,0.0,0.0
372,60.0,120,120,0.0,0.0
373,65.0,120,120,0.0,0.0
374,68.0,0,120,0.0,0.0
375,72.0,120,120,0.0,0.0
376,60.0,120,120,0.0,0.0
377,65.0,120,120,0.0,0.0
378,68.0,240,120,0.0,0.0
379,53.0,0,15,0.0,0.0
380,56.0,0,15,0.0,0.0
381,59.0,120,120,0.0,0.0
382,62.0,120,120,0.0,0.0
383,68.0,240,120,0.0,0.0
384,59.0,120,120,0.0,0.0
385,62.0,120,120,0.0,0.0
386,68.0,0,120,0.0,0.0
387,55.0,120,240,0.0,0.0
388,48.0,0,15,0.0,0.0
389,71.0,0,15,0.0,0.0
390,52.0,0,240,0.0,0.0
391,59.0,0,120,0.0,0.0
392,64.0,120,120,0.0,0.0
393,67.0,240,120,0.0,0.0
394,72.0,0,480,0.0,0.0
395,60.0,120,120,0.0,0.0
396,64.0,120,120,0.0,0.0
397,67.0,240,120,0.0,0.0
398,36.0,0,480,0.0,0.0
399,48.0,0,480,0.0,0.0
400,60.0,120,120,0.0,0.0
401,64.0,120,120,0.0,0.0
402,67.0,120,120,0.0,0.0
403,72.0,120,120,0.0,0.0
404,60.0,120,120,0.0,0.0
405,64.0,120,120,0.0,0.0
406,67.0,240,120,0.0,0.0
407,55.0,0,15,0.0,0.0
408,58.0,0,15,0.0,0.0
409,60.0,120,120,0.0,0.0
410,64.0,120,120,0.0,0.0
411,67.0,0,120,0.0,0.0
412,72.0,120,120,0.0,0.0
413,60.0,120,120,0.0,0.0
414,64.0,120,120,0.0,0.0
415,67.0,240,120,0.0,0.0
416,55.0,0,15,0.0,0.0
417,58.0,0,15,0.0,0.0
418,53.0,0,960,0.0,0.0
419,60.0,120,120,0.0,0.0
420,64.0,120,120,0.0,0.0
421,67.0,240,120,0.0,0.0
422,60.0,120,120,0.0,0.0
423,64.0,120,120,0.0,0.0
424,67.0,240,120,0.0,0.0
425,56.0,0,240,0.0,0.0
426,53.0,0,240,0.0,0.0
427,72.0,0,15,0.0,0.0
428,60.0,120,120,0.0,0.0
429,64.0,120,120,0.0,0.0
430,67.0,240,120,0.0,0.0
431,72.0,0,480,0.0,0.0
432,60.0,120,120,0.0,0.0
433,65.0,120,120,0.0,0.0
434,68.0,240,120,0.0,0.0
435,41.0,0,480,0.0,0.0
436,53.0,0,480,0.0,0.0
437,65.0,120,120,0.0,0.0
438,69.0,120,120,0.0,0.0
439,72.0,120,120,0.0,0.0
440,77.0,120,120,0.0,0.0
441,65.0,120,120,0.0,0.0
442,69.0,120,120,0.0,0.0
443,72.0,0,120,0.0,0.0
444,63.0,0,15,0.0,0.0
445,60.0,240,15,0.0,0.0
446,65.0,120,120,0.0,0.0
447,69.0,120,120,0.0,0.0
448,72.0,120,120,0.0,0.0
449,77.0,120,120,0.0,0.0
450,65.0,120,120,0.0,0.0
451,69.0,120,120,0.0,0.0
452,72.0,240,120,0.0,0.0
453,63.0,0,120,0.0,0.0
454,60.0,0,120,0.0,0.0
455,60.0,0,1200,0.0,0.0
456,63.0,0,1200,0.0,0.0
457,65.0,120,120,0.0,0.0
458,69.0,120,120,0.0,0.0
459,72.0,240,120,0.0,0.0
460,77.0,120,480,0.0,0.0
461,65.0,120,120,0.0,0.0
462,69.0,120,120,0.0,0.0
463,72.0,0,120,0.0,0.0
464,65.0,120,120,0.0,0.0
465,69.0,0,120,0.0,0.0
466,77.0,0,120,0.0,0.0
467,61.0,0,240,0.0,0.0
468,65.0,0,120,0.0,0.0
469,70.0,120,120,0.0,0.0
470,58.0,120,15,0.0,0.0
471,77.0,0,120,0.0,0.0
472,60.0,0,240,0.0,0.0
473,56.0,0,240,0.0,0.0
474,72.0,0,120,0.0,0.0
475,65.0,120,120,0.0,0.0
476,77.0,120,120,0.0,0.0
477,73.0,120,120,0.0,0.0
478,58.0,0,240,0.0,0.0
479,55.0,240,240,0.0,0.0
480,65.0,0,120,0.0,0.0
481,77.0,0,120,0.0,0.0
482,53.0,0,480,0.0,0.0
483,56.0,240,480,0.0,0.0
484,48.0,0,480,0.0,0.0
485,60.0,120,120,0.0,0.0
486,65.0,120,120,0.0,0.0
487,68.0,0,120,0.0,0.0
488,60.0,120,120,0.0,0.0
489,65.0,120,120,0.0,0.0
490,68.0,0,120,0.0,0.0
491,56.0,0,120,0.0,0.0
492,53.0,0,120,0.0,0.0
493,48.0,0,480,0.0,0.0
494,58.0,0,480,0.0,0.0
495,72.0,240,15,0.0,0.0
496,55.0,0,480,0.0,0.0
497,60.0,120,120,0.0,0.0
498,67.0,120,120,0.0,0.0
499,70.0,240,120,0.0,0.0
500,72.0,0,15,0.0,0.0
501,60.0,120,120,0.0,0.0
502,64.0,120,120,0.0,0.0
503,52.0,120,120,0.0,0.0
504,55.0,0,120,0.0,0.0
505,67.0,0,120,0.0,0.0
506,72.0,0,480,0.0,0.0
507,65.0,120,480,0.0,0.0
508,68.0,0,480,0.0,0.0
509,53.0,120,120,0.0,0.0
510,60.0,120,120,0.0,0.0
511,56.0,120,120,0.0,0.0
512,53.0,0,120,0.0,0.0
513,48.0,120,120,0.0,0.0
514,56.0,120,120,0.0,0.0
515,53.0,120,120,0.0,0.0
516,48.0,120,120,0.0,0.0
517,80.0,0,120,0.0,0.0
518,77.0,0,120,0.0,0.0
519,80.0,0,480,0.0,0.0
520,77.0,0,480,0.0,0.0
521,44.0,120,120,0.0,0.0
522,53.0,120,120,0.0,0.0
523,48.0,120,120,0.0,0.0
524,44.0,120,120,0.0,0.0
525,41.0,120,120,0.0,0.0
526,48.0,120,120,0.0,0.0
527,44.0,120,120,0.0,0.0
528,41.0,0,120,0.0,0.0
529,80.0,120,120,0.0,0.0
530,77.0,0,120,0.0,0.0
531,77.0,0,960,0.0,0.0
532,80.0,0,960,0.0,0.0
533,36.0,120,120,0.0,0.0
534,41.0,120,120,0.0,0.0
535,44.0,120,120,0.0,0.0
536,48.0,120,120,0.0,0.0
537,47.0,120,120,0.0,0.0
538,48.0,120,120,0.0,0.0
539,47.0,120,120,0.0,0.0
540,48.0,120,120,0.0,0.0
541,79.0,0,240,0.0,0.0
542,76.0,0,240,0.0,0.0
543,47.0,120,120,0.0,0.0
544,48.0,120,120,0.0,0.0
545,43.0,120,120,0.0,0.0
546,48.0,120,120,0.0,0.0
547,40.0,120,120,0.0,0.0
548,48.0,120,120,0.0,0.0
549,43.0,120,120,0.0,0.0
550,48.0,120,120,0.0,0.0
551,36.0,120,120,0.0,0.0
552,40.0,120,120,0.0,0.0
553,43.0,120,120,0.0,0.0
554,48.0,120,120,0.0,0.0
555,40.0,120,120,0.0,0.0
556,43.0,120,120,0.0,0.0
557,48.0,120,120,0.0,0.0
558,52.0,120,120,0.0,0.0
559,82.0,0,15,0.0,0.0
560,79.0,0,15,0.0,0.0
561,43.0,120,120,0.0,0.0
562,48.0,120,120,0.0,0.0
563,52.0,120,120,0.0,0.0
564,55.0,0,120,0.0,0.0
565,48.0,120,120,0.0,0.0
566,52.0,120,120,0.0,0.0
567,55.0,120,120,0.0,0.0
568,82.0,0,120,0.0,0.0
569,60.0,120,120,0.0,0.0
570,82.0,120,960,0.0,0.0
571,79.0,0,15,0.0,0.0
572,53.0,120,120,0.0,0.0
573,56.0,120,120,0.0,0.0
574,60.0,120,120,0.0,0.0
575,65.0,120,120,0.0,0.0
576,64.0,120,120,0.0,0.0
577,65.0,120,120,0.0,0.0
578,64.0,120,120,0.0,0.0
579,65.0,0,120,0.0,0.0
580,64.0,120,120,0.0,0.0
581,80.0,0,240,0.0,0.0
582,77.0,0,240,0.0,0.0
583,65.0,120,120,0.0,0.0
584,60.0,120,120,0.0,0.0
585,65.0,120,120,0.0,0.0
586,56.0,120,120,0.0,0.0
587,65.0,120,120,0.0,0.0
588,60.0,120,120,0.0,0.0
589,65.0,120,120,0.0,0.0
590,53.0,120,120,0.0,0.0
591,57.0,120,120,0.0,0.0
592,60.0,120,120,0.0,0.0
593,65.0,120,120,0.0,0.0
594,57.0,120,120,0.0,0.0
595,60.0,120,120,0.0,0.0
596,65.0,120,120,0.0,0.0
597,87.0,0,120,0.0,0.0
598,69.0,120,120,0.0,0.0
599,84.0,0,120,0.0,0.0
600,84.0,120,480,0.0,0.0
601,87.0,0,480,0.0,0.0
602,60.0,120,120,0.0,0.0
603,65.0,120,120,0.0,0.0
604,69.0,120,120,0.0,0.0
605,72.0,0,120,0.0,0.0
606,65.0,120,120,0.0,0.0
607,69.0,120,120,0.0,0.0
608,72.0,120,120,0.0,0.0
609,87.0,0,120,0.0,0.0
610,77.0,120,120,0.0,0.0
611,84.0,0,15,0.0,0.0
612,87.0,0,1200,0.0,0.0
613,69.0,120,120,0.0,0.0
614,77.0,120,120,0.0,0.0
615,76.0,120,120,0.0,0.0
616,77.0,120,120,0.0,0.0
617,69.0,120,120,0.0,0.0
618,77.0,120,120,0.0,0.0
619,69.0,120,120,0.0,0.0
620,77.0,120,120,0.0,0.0
621,69.0,120,120,0.0,0.0
622,77.0,120,120,0.0,0.0
623,70.0,120,120,0.0,0.0
624,82.0,0,240,0.0,0.0
625,85.0,0,240,0.0,0.0
626,77.0,120,120,0.0,0.0
627,80.0,120,240,0.0,0.0
628,84.0,0,240,0.0,0.0
629,72.0,120,120,0.0,0.0
630,77.0,0,120,0.0,0.0
631,79.0,120,240,0.0,0.0
632,82.0,0,240,0.0,0.0
633,73.0,120,120,0.0,0.0
634,80.0,0,480,0.0,0.0
635,77.0,0,15,0.0,0.0
636,60.0,120,120,0.0,0.0
637,65.0,120,120,0.0,0.0
638,68.0,120,120,0.0,0.0
639,72.0,120,120,0.0,0.0
640,71.0,120,120,0.0,0.0
641,72.0,120,120,0.0,0.0
642,71.0,120,120,0.0,0.0
643,72.0,120,120,0.0,0.0
644,77.0,0,120,0.0,0.0
645,89.0,0,120,0.0,0.0
646,80.0,0,120,0.0,0.0
647,79.0,120,480,0.0,0.0
648,82.0,0,480,0.0,0.0
649,60.0,120,120,0.0,0.0
650,91.0,0,480,0.0,0.0
651,64.0,120,120,0.0,0.0
652,67.0,120,120,0.0,0.0
653,72.0,0,120,0.0,0.0
654,60.0,120,120,0.0,0.0
655,67.0,120,120,0.0,0.0
656,70.0,120,120,0.0,0.0
657,76.0,0,120,0.0,0.0
658,79.0,120,120,0.0,0.0
659,88.0,0,120,0.0,0.0
660,72.0,0,120,0.0,0.0
661,77.0,0,120,0.0,0.0
662,89.0,0,120,0.0,0.0
663,80.0,0,120,0.0,0.0
664,53.0,120,120,0.0,0.0
665,72.0,0,120,0.0,0.0
666,68.0,0,120,0.0,0.0
667,65.0,120,120,0.0,0.0
668,60.0,0,120,0.0,0.0
669,77.0,0,120,0.0,0.0
670,72.0,120,120,0.0,0.0
671,80.0,120,120,0.0,0.0
672,65.0,0,120,0.0,0.0
673,68.0,0,120,0.0,0.0
674,60.0,0,120,0.0,0.0
675,72.0,120,120,0.0,0.0
676,84.0,0,120,0.0,0.0
677,68.0,0,120,0.0,0.0
678,85.0,0,120,0.0,0.0
679,65.0,120,120,0.0,0.0
680,84.0,120,120,0.0,0.0
681,72.0,0,120,0.0,0.0
682,60.0,0,120,0.0,0.0
683,68.0,0,120,0.0,0.0
684,82.0,0,120,0.0,0.0
685,65.0,120,120,0.0,0.0
686,60.0,0,120,0.0,0.0
687,80.0,0,120,0.0,0.0
688,72.0,120,120,0.0,0.0
689,68.0,120,120,0.0,0.0
690,65.0,0,120,0.0,0.0
691,82.0,0,120,0.0,0.0
692,80.0,0,120,0.0,0.0
693,60.0,0,120,0.0,0.0
694,72.0,120,120,0.0,0.0
695,79.0,0,120,0.0,0.0
696,65.0,120,120,0.0,0.0
697,68.0,0,120,0.0,0.0
698,77.0,0,120,0.0,0.0
699,72.0,0,120,0.0,0.0
700,60.0,120,120,0.0,0.0
701,65.0,120,120,0.0,0.0
702,79.0,0,120,0.0,0.0
703,68.0,0,120,0.0,0.0
704,72.0,120,120,0.0,0.0
705,60.0,0,120,0.0,0.0
706,80.0,0,120,0.0,0.0
707,77.0,0,120,0.0,0.0
708,68.0,0,120,0.0,0.0
709,65.0,120,120,0.0,0.0
710,53.0,120,120,0.0,0.0
711,68.0,120,120,0.0,0.0
712,72.0,0,120,0.0,0.0
713,65.0,0,120,0.0,0.0
714,77.0,0,120,0.0,0.0
715,60.0,120,120,0.0,0.0
716,72.0,0,120,0.0,0.0
717,68.0,0,120,0.0,0.0
718,80.0,0,120,0.0,0.0
719,65.0,120,120,0.0,0.0
720,60.0,0,120,0.0,0.0
721,72.0,0,120,0.0,0.0
722,84.0,120,120,0.0,0.0
723,85.0,0,120,0.0,0.0
724,68.0,0,120,0.0,0.0
725,65.0,120,120,0.0,0.0
726,72.0,120,120,0.0,0.0
727,84.0,0,120,0.0,0.0
728,60.0,0,120,0.0,0.0
729,65.0,120,120,0.0,0.0
730,68.0,0,120,0.0,0.0
731,82.0,0,120,0.0,0.0
732,80.0,0,120,0.0,0.0
733,72.0,120,120,0.0,0.0
734,60.0,0,120,0.0,0.0
735,82.0,0,120,0.0,0.0
736,68.0,120,120,0.0,0.0
737,65.0,0,120,0.0,0.0
738,72.0,0,120,0.0,0.0
739,60.0,0,120,0.0,0.0
740,80.0,120,120,0.0,0.0
741,68.0,0,120,0.0,0.0
742,65.0,120,120,0.0,0.0
743,79.0,0,120,0.0,0.0
744,77.0,0,120,0.0,0.0
745,72.0,0,120,0.0,0.0
746,60.0,120,120,0.0,0.0
747,68.0,0,120,0.0,0.0
748,65.0,120,120,0.0,0.0
749,79.0,0,120,0.0,0.0
750,80.0,0,120,0.0,0.0
751,60.0,120,120,0.0,0.0
752,72.0,0,120,0.0,0.0
753,68.0,120,120,0.0,0.0
754,77.0,0,120,0.0,0.0
755,65.0,0,120,0.0,0.0
756,43.0,120,120,0.0,0.0
757,77.0,0,120,0.0,0.0
758,53.0,120,120,0.0,0.0
759,55.0,0,120,0.0,0.0
760,59.0,0,120,0.0,0.0
761,50.0,0,120,0.0,0.0
762,83.0,120,120,0.0,0.0
763,53.0,120,120,0.0,0.0
764,55.0,0,120,0.0,0.0
765,86.0,0,120,0.0,0.0
766,89.0,0,120,0.0,0.0
767,50.0,120,120,0.0,0.0
768,59.0,0,120,0.0,0.0
769,91.0,0,120,0.0,0.0
770,55.0,120,120,0.0,0.0
771,53.0,0,120,0.0,0.0
772,89.0,0,120,0.0,0.0
773,50.0,0,120,0.0,0.0
774,59.0,120,120,0.0,0.0
775,87.0,0,120,0.0,0.0
776,55.0,0,120,0.0,0.0
777,53.0,120,120,0.0,0.0
778,59.0,0,120,0.0,0.0
779,86.0,0,120,0.0,0.0
780,50.0,120,120,0.0,0.0
781,87.0,0,120,0.0,0.0
782,53.0,120,120,0.0,0.0
783,56.0,0,120,0.0,0.0
784,50.0,0,120,0.0,0.0
785,86.0,0,120,0.0,0.0
786,59.0,120,120,0.0,0.0
787,53.0,0,120,0.0,0.0
788,56.0,0,120,0.0,0.0
789,84.0,120,120,0.0,0.0
790,83.0,120,120,0.0,0.0
791,59.0,0,120,0.0,0.0
792,50.0,0,120,0.0,0.0
793,55.0,0,120,0.0,0.0
794,53.0,0,120,0.0,0.0
795,84.0,120,120,0.0,0.0
796,50.0,0,120,0.0,0.0
797,59.0,0,120,0.0,0.0
798,86.0,120,120,0.0,0.0
799,83.0,120,120,0.0,0.0
800,53.0,0,120,0.0,0.0
801,55.0,0,120,0.0,0.0
802,43.0,120,120,0.0,0.0
803,55.0,0,120,0.0,0.0
804,77.0,120,120,0.0,0.0
805,53.0,0,120,0.0,0.0
806,50.0,120,120,0.0,0.0
807,59.0,0,120,0.0,0.0
808,83.0,0,120,0.0,0.0
809,86.0,0,120,0.0,0.0
810,53.0,0,120,0.0,0.0
811,55.0,120,120,0.0,0.0
812,50.0,0,120,0.0,0.0
813,89.0,0,120,0.0,0.0
814,59.0,120,120,0.0,0.0
815,53.0,0,120,0.0,0.0
816,55.0,0,120,0.0,0.0
817,91.0,120,120,0.0,0.0
818,59.0,120,120,0.0,0.0
819,89.0,0,120,0.0,0.0
820,50.0,0,120,0.0,0.0
821,53.0,0,120,0.0,0.0
822,87.0,120,120,0.0,0.0
823,55.0,0,120,0.0,0.0
824,50.0,0,120,0.0,0.0
825,86.0,0,120,0.0,0.0
826,59.0,120,120,0.0,0.0
827,56.0,0,120,0.0,0.0
828,53.0,0,120,0.0,0.0
829,87.0,120,120,0.0,0.0
830,86.0,0,120,0.0,0.0
831,50.0,120,120,0.0,0.0
832,59.0,0,120,0.0,0.0
833,53.0,0,120,0.0,0.0
834,56.0,120,120,0.0,0.0
835,84.0,0,120,0.0,0.0
836,50.0,0,120,0.0,0.0
837,83.0,0,120,0.0,0.0
838,59.0,120,120,0.0,0.0
839,55.0,0,120,0.0,0.0
840,53.0,0,120,0.0,0.0
841,84.0,120,120,0.0,0.0
842,50.0,0,120,0.0,0.0
843,59.0,120,120,0.0,0.0
844,86.0,0,120,0.0,0.0
845,55.0,0,120,0.0,0.0
846,53.0,120,120,0.0,0.0
847,83.0,0,120,0.0,0.0
848,48.0,120,120,0.0,0.0
849,60.0,120,120,0.0,0.0
850,63.0,0,120,0.0,0.0
851,79.0,0,120,0.0,0.0
852,84.0,120,120,0.0,0.0
853,55.0,0,120,0.0,0.0
854,67.0,0,120,0.0,0.0
855,63.0,120,120,0.0,0.0
856,60.0,0,120,0.0,0.0
857,87.0,0,120,0.0,0.0
858,91.0,0,120,0.0,0.0
859,55.0,0,120,0.0,0.0
860,67.0,120,120,0.0,0.0
861,63.0,0,120,0.0,0.0
862,60.0,120,120,0.0,0.0
863,92.0,0,120,0.0,0.0
864,67.0,0,120,0.0,0.0
865,55.0,120,120,0.0,0.0
866,91.0,0,120,0.0,0.0
867,89.0,0,120,0.0,0.0
868,60.0,120,120,0.0,0.0
869,63.0,0,120,0.0,0.0
870,87.0,120,120,0.0,0.0
871,67.0,0,120,0.0,0.0
872,55.0,0,120,0.0,0.0
873,60.0,0,120,0.0,0.0
874,63.0,120,120,0.0,0.0
875,89.0,0,120,0.0,0.0
876,87.0,0,120,0.0,0.0
877,67.0,120,120,0.0,0.0
878,55.0,0,120,0.0,0.0
879,63.0,120,120,0.0,0.0
880,60.0,0,120,0.0,0.0
881,86.0,0,120,0.0,0.0
882,67.0,0,120,0.0,0.0
883,55.0,0,120,0.0,0.0
884,84.0,120,120,0.0,0.0
885,63.0,120,120,0.0,0.0
886,86.0,0,120,0.0,0.0
887,60.0,0,120,0.0,0.0
888,87.0,0,120,0.0,0.0
889,67.0,120,120,0.0,0.0
890,55.0,0,120,0.0,0.0
891,63.0,240,120,0.0,0.0
892,60.0,0,120,0.0,0.0
893,84.0,0,120,0.0,0.0
894,48.0,0,240,0.0,0.0
895,79.0,120,120,0.0,0.0
896,67.0,0,120,0.0,0.0
897,84.0,120,120,0.0,0.0
898,63.0,120,120,0.0,0.0
899,87.0,0,120,0.0,0.0
900,91.0,120,120,0.0,0.0
901,72.0,0,120,0.0,0.0
902,92.0,120,120,0.0,0.0
903,67.0,0,120,0.0,0.0
904,91.0,120,120,0.0,0.0
905,72.0,0,120,0.0,0.0
906,67.0,120,120,0.0,0.0
907,89.0,0,120,0.0,0.0
908,87.0,120,120,0.0,0.0
909,75.0,0,120,0.0,0.0
910,89.0,0,120,0.0,0.0
911,72.0,120,120,0.0,0.0
912,87.0,120,120,0.0,0.0
913,75.0,0,120,0.0,0.0
914,86.0,0,120,0.0,0.0
915,72.0,120,120,0.0,0.0
916,79.0,0,120,0.0,0.0
917,84.0,120,120,0.0,0.0
918,75.0,120,120,0.0,0.0
919,86.0,0,120,0.0,0.0
920,87.0,0,120,0.0,0.0
921,79.0,120,120,0.0,0.0
922,84.0,240,120,0.0,0.0
923,75.0,0,120,0.0,0.0
924,77.0,0,720,0.0,0.0
925,80.0,0,720,0.0,0.0
926,85.0,120,120,0.0,0.0
927,87.0,120,120,0.0,0.0
928,85.0,120,120,0.0,0.0
929,87.0,120,120,0.0,0.0
930,85.0,120,120,0.0,0.0
931,84.0,120,120,0.0,0.0
932,75.0,240,240,0.0,0.0
933,79.0,0,240,0.0,0.0
934,85.0,0,120,0.0,0.0
935,77.0,0,480,0.0,0.0
936,74.0,0,480,0.0,0.0
937,83.0,120,120,0.0,0.0
938,84.0,120,120,0.0,0.0
939,83.0,240,120,0.0,0.0
940,75.0,0,480,0.0,0.0
941,79.0,0,480,0.0,0.0
942,84.0,120,120,0.0,0.0
943,86.0,120,120,0.0,0.0
944,84.0,240,120,0.0,0.0
945,77.0,0,720,0.0,0.0
946,80.0,120,720,0.0,0.0
947,85.0,120,120,0.0,0.0
948,87.0,120,120,0.0,0.0
949,85.0,120,120,0.0,0.0
950,87.0,120,120,0.0,0.0
951,85.0,0,120,0.0,0.0
952,79.0,0,240,0.0,0.0
953,84.0,120,120,0.0,0.0
954,75.0,240,240,0.0,0.0
955,85.0,0,120,0.0,0.0
956,77.0,0,480,0.0,0.0
957,74.0,240,480,0.0,0.0
958,83.0,120,120,0.0,0.0
959,84.0,120,120,0.0,0.0
960,83.0,0,120,0.0,0.0
961,79.0,0,480,0.0,0.0
962,75.0,0,480,0.0,0.0
963,84.0,120,120,0.0,0.0
964,86.0,120,120,0.0,0.0
965,84.0,240,120,0.0,0.0
966,80.0,0,720,0.0,0.0
967,77.0,0,720,0.0,0.0
968,85.0,120,120,0.0,0.0
969,87.0,120,120,0.0,0.0
970,85.0,120,120,0.0,0.0
971,87.0,120,120,0.0,0.0
972,85.0,120,120,0.0,0.0
973,79.0,0,240,0.0,0.0
974,75.0,0,240,0.0,0.0
975,84.0,120,120,0.0,0.0
976,85.0,240,120,0.0,0.0
977,77.0,240,480,0.0,0.0
978,74.0,0,480,0.0,0.0
979,83.0,120,120,0.0,0.0
980,84.0,120,120,0.0,0.0
981,83.0,0,120,0.0,0.0
982,72.0,0,480,0.0,0.0
983,75.0,240,480,0.0,0.0
984,80.0,120,120,0.0,0.0
985,82.0,120,120,0.0,0.0
986,80.0,0,120,0.0,0.0
987,71.0,0,480,0.0,0.0
988,74.0,240,480,0.0,0.0
989,79.0,120,120,0.0,0.0
990,80.0,120,120,0.0,0.0
991,79.0,0,120,0.0,0.0
992,69.0,0,480,0.0,0.0
993,72.0,0,480,0.0,0.0
994,78.0,120,120,0.0,0.0
995,79.0,120,120,0.0,0.0
996,78.0,240,120,0.0,0.0
997,68.0,0,480,0.0,0.0
998,77.0,120,120,0.0,0.0
999,79.0,120,120,0.0,0.0
1000,77.0,240,120,0.0,0.0
1001,67.0,0,480,0.0,0.0
1002,72.0,0,15,0.0,0.0
1003,75.0,120,120,0.0,0.0
1004,77.0,120,120,0.0,0.0
1005,75.0,0,120,0.0,0.0
1006,66.0,240,960,0.0,0.0
1007,75.0,120,120,0.0,0.0
1008,77.0,120,120,0.0,0.0
1009,75.0,240,120,0.0,0.0
1010,68.0,0,480,0.0,0.0
1011,74.0,120,120,0.0,0.0
1012,75.0,120,120,0.0,0.0
1013,74.0,0,120,0.0,0.0
1014,55.0,0,960,0.0,0.0
1015,63.0,240,480,0.0,0.0
1016,67.0,0,960,0.0,0.0
1017,72.0,120,120,0.0,0.0
1018,74.0,120,120,0.0,0.0
1019,72.0,0,120,0.0,0.0
1020,62.0,0,480,0.0,0.0
1021,71.0,120,120,0.0,0.0
1022,72.0,120,120,0.0,0.0
1023,71.0,240,120,0.0,0.0
1024,56.0,0,720,0.0,0.0
1025,61.0,0,720,0.0,0.0
1026,53.0,0,720,0.0,0.0
1027,68.0,120,120,0.0,0.0
1028,80.0,120,120,0.0,0.0
1029,68.0,120,120,0.0,0.0
1030,80.0,120,120,0.0,0.0
1031,68.0,120,120,0.0,0.0
1032,80.0,120,120,0.0,0.0
1033,60.0,0,240,0.0,0.0
1034,55.0,0,240,0.0,0.0
1035,51.0,240,240,0.0,0.0
1036,68.0,0,120,0.0,0.0
1037,59.0,0,480,0.0,0.0
1038,53.0,120,480,0.0,0.0
1039,50.0,0,480,0.0,0.0
1040,68.0,120,120,0.0,0.0
1041,80.0,120,120,0.0,0.0
1042,79.0,0,120,0.0,0.0
1043,77.0,120,120,0.0,0.0
1044,60.0,0,480,0.0,0.0
1045,55.0,0,480,0.0,0.0
1046,51.0,240,480,0.0,0.0
1047,75.0,120,120,0.0,0.0
1048,74.0,120,120,0.0,0.0
1049,72.0,0,120,0.0,0.0
1050,61.0,0,720,0.0,0.0
1051,56.0,0,720,0.0,0.0
1052,53.0,0,720,0.0,0.0
1053,80.0,120,120,0.0,0.0
1054,92.0,120,120,0.0,0.0
1055,80.0,120,120,0.0,0.0
1056,92.0,120,120,0.0,0.0
1057,80.0,120,120,0.0,0.0
1058,60.0,0,240,0.0,0.0
1059,92.0,120,120,0.0,0.0
1060,51.0,240,240,0.0,0.0
1061,55.0,0,240,0.0,0.0
1062,80.0,0,120,0.0,0.0
1063,59.0,120,480,0.0,0.0
1064,50.0,0,480,0.0,0.0
1065,53.0,0,480,0.0,0.0
1066,80.0,120,120,0.0,0.0
1067,92.0,120,120,0.0,0.0
1068,91.0,0,120,0.0,0.0
1069,55.0,0,480,0.0,0.0
1070,60.0,0,480,0.0,0.0
1071,51.0,0,480,0.0,0.0
1072,89.0,120,120,0.0,0.0
1073,87.0,120,120,0.0,0.0
1074,86.0,120,120,0.0,0.0
1075,84.0,240,120,0.0,0.0
1076,61.0,0,720,0.0,0.0
1077,56.0,0,720,0.0,0.0
1078,53.0,0,720,0.0,0.0
1079,68.0,120,120,0.0,0.0
1080,80.0,120,120,0.0,0.0
1081,68.0,120,120,0.0,0.0
1082,80.0,120,120,0.0,0.0
1083,68.0,120,120,0.0,0.0
1084,60.0,0,240,0.0,0.0
1085,51.0,0,240,0.0,0.0
1086,80.0,120,120,0.0,0.0
1087,55.0,0,240,0.0,0.0
1088,68.0,240,120,0.0,0.0
1089,50.0,240,480,0.0,0.0
1090,59.0,0,480,0.0,0.0
1091,53.0,0,480,0.0,0.0
1092,80.0,120,120,0.0,0.0
1093,68.0,120,120,0.0,0.0
1094,80.0,0,120,0.0,0.0
1095,48.0,0,480,0.0,0.0
1096,51.0,0,480,0.0,0.0
1097,56.0,240,480,0.0,0.0
1098,92.0,120,120,0.0,0.0
1099,80.0,120,120,0.0,0.0
1100,92.0,0,120,0.0,0.0
1101,47.0,0,480,0.0,0.0
1102,50.0,0,480,0.0,0.0
1103,55.0,0,480,0.0,0.0
1104,91.0,120,120,0.0,0.0
1105,79.0,120,120,0.0,0.0
1106,91.0,240,120,0.0,0.0
1107,54.0,0,480,0.0,0.0
1108,48.0,240,480,0.0,0.0
1109,45.0,0,480,0.0,0.0
1110,51.0,0,480,0.0,0.0
1111,90.0,120,120,0.0,0.0
1112,78.0,120,120,0.0,0.0
1113,90.0,0,120,0.0,0.0
1114,50.0,240,480,0.0,0.0
1115,47.0,0,480,0.0,0.0
1116,53.0,0,480,0.0,0.0
1117,89.0,120,120,0.0,0.0
1118,77.0,120,120,0.0,0.0
1119,89.0,0,120,0.0,0.0
1120,48.0,240,480,0.0,0.0
1121,87.0,120,120,0.0,0.0
1122,79.0,0,120,0.0,0.0
1123,75.0,120,120,0.0,0.0
1124,87.0,0,120,0.0,0.0
1125,45.0,0,960,0.0,0.0
1126,51.0,0,15,0.0,0.0
1127,42.0,0,960,0.0,0.0
1128,87.0,120,120,0.0,0.0
1129,81.0,120,120,0.0,0.0
1130,75.0,0,120,0.0,0.0
1131,87.0,0,120,0.0,0.0
1132,50.0,240,480,0.0,0.0
1133,86.0,120,120,0.0,0.0
1134,74.0,120,120,0.0,0.0
1135,81.0,0,120,0.0,0.0
1136,86.0,0,120,0.0,0.0
1137,48.0,240,480,0.0,0.0
1138,84.0,120,120,0.0,0.0
1139,72.0,0,120,0.0,0.0
1140,75.0,120,120,0.0,0.0
1141,84.0,0,120,0.0,0.0
1142,47.0,120,480,0.0,0.0
1143,83.0,120,120,0.0,0.0
1144,71.0,120,120,0.0,0.0
1145,74.0,0,120,0.0,0.0
1146,83.0,0,120,0.0,0.0
1147,72.0,0,120,0.0,0.0
1148,36.0,0,240,0.0,0.0
1149,43.0,0,15,0.0,0.0
1150,48.0,0,240,0.0,0.0
1151,39.0,0,240,0.0,0.0
1152,79.0,0,120,0.0,0.0
1153,75.0,120,120,0.0,0.0
1154,84.0,0,120,0.0,0.0
1155,67.0,120,120,0.0,0.0
1156,72.0,120,120,0.0,0.0
1157,75.0,120,120,0.0,0.0
1158,79.0,120,120,0.0,0.0
1159,55.0,120,120,0.0,0.0
1160,80.0,0,120,0.0,0.0
1161,60.0,120,120,0.0,0.0
1162,79.0,0,120,0.0,0.0
1163,77.0,120,120,0.0,0.0
1164,63.0,0,120,0.0,0.0
1165,67.0,0,120,0.0,0.0
1166,75.0,120,120,0.0,0.0
1167,68.0,0,120,0.0,0.0
1168,77.0,120,120,0.0,0.0
1169,67.0,0,120,0.0,0.0
1170,75.0,120,120,0.0,0.0
1171,74.0,120,120,0.0,0.0
1172,65.0,0,120,0.0,0.0
1173,63.0,0,120,0.0,0.0
1174,72.0,120,120,0.0,0.0
1175,62.0,0,120,0.0,0.0
1176,70.0,120,120,0.0,0.0
1177,68.0,120,120,0.0,0.0
1178,60.0,0,120,0.0,0.0
1179,67.0,120,120,0.0,0.0
1180,58.0,0,120,0.0,0.0
1181,65.0,0,120,0.0,0.0
1182,56.0,120,120,0.0,0.0
1183,63.0,0,120,0.0,0.0
1184,55.0,120,120,0.0,0.0
1185,62.0,0,120,0.0,0.0
1186,53.0,120,120,0.0,0.0
1187,51.0,0,120,0.0,0.0
1188,60.0,120,120,0.0,0.0
1189,50.0,120,120,0.0,0.0
1190,51.0,120,120,0.0,0.0
1191,59.0,0,15,0.0,0.0
1192,53.0,60,120,0.0,0.0
1193,62.0,0,180,0.0,0.0
1194,67.0,60,180,0.0,0.0
1195,55.0,0,180,0.0,0.0
1196,51.0,120,120,0.0,0.0
1197,67.0,0,180,0.0,0.0
1198,59.0,0,180,0.0,0.0
1199,55.0,60,180,0.0,0.0
1200,65.0,0,180,0.0,0.0
1201,50.0,60,120,0.0,0.0
1202,48.0,120,120,0.0,0.0
1203,47.0,60,120,0.0,0.0
1204,67.0,60,180,0.0,0.0
1205,65.0,0,180,0.0,0.0
1206,55.0,0,180,0.0,0.0
1207,59.0,0,180,0.0,0.0
1208,44.0,120,120,0.0,0.0
1209,55.0,0,180,0.0,0.0
1210,59.0,0,180,0.0,0.0
1211,43.0,60,120,0.0,0.0
1212,67.0,60,180,0.0,0.0
1213,65.0,0,180,0.0,0.0
1214,41.0,120,120,0.0,0.0
1215,39.0,60,120,0.0,0.0
1216,55.0,60,180,0.0,0.0
1217,67.0,0,180,0.0,0.0
1218,65.0,0,180,0.0,0.0
1219,59.0,0,180,0.0,0.0
1220,38.0,120,120,0.0,0.0
1221,63.0,0,120,0.0,0.0
1222,60.0,120,120,0.0,0.0
1223,67.0,0,120,0.0,0.0
1224,39.0,120,240,0.0,0.0
1225,48.0,0,240,0.0,0.0
1226,43.0,0,240,0.0,0.0
1227,36.0,0,240,0.0,0.0
1228,55.0,0,120,0.0,0.0
1229,79.0,0,120,0.0,0.0
1230,84.0,120,120,0.0,0.0
1231,87.0,120,120,0.0,0.0
1232,91.0,120,120,0.0,0.0
1233,92.0,120,120,0.0,0.0
1234,67.0,0,120,0.0,0.0
1235,72.0,0,120,0.0,0.0
1236,91.0,120,120,0.0,0.0
1237,89.0,0,120,0.0,0.0
1238,75.0,120,120,0.0,0.0
1239,79.0,0,120,0.0,0.0
1240,87.0,120,120,0.0,0.0
1241,89.0,120,120,0.0,0.0
1242,80.0,0,120,0.0,0.0
1243,79.0,0,120,0.0,0.0
1244,87.0,120,120,0.0,0.0
1245,77.0,0,120,0.0,0.0
1246,86.0,120,120,0.0,0.0
1247,84.0,120,120,0.0,0.0
1248,75.0,0,120,0.0,0.0
1249,82.0,0,120,0.0,0.0
1250,74.0,120,120,0.0,0.0
1251,80.0,120,120,0.0,0.0
1252,72.0,0,120,0.0,0.0
1253,70.0,0,120,0.0,0.0
1254,79.0,120,120,0.0,0.0
1255,77.0,120,120,0.0,0.0
1256,68.0,0,120,0.0,0.0
1257,75.0,0,120,0.0,0.0
1258,67.0,120,120,0.0,0.0
1259,74.0,0,120,0.0,0.0
1260,65.0,120,120,0.0,0.0
1261,72.0,0,120,0.0,0.0
1262,63.0,120,120,0.0,0.0
1263,62.0,120,120,0.0,0.0
1264,63.0,0,120,0.0,0.0
1265,65.0,60,120,0.0,0.0
1266,67.0,0,180,0.0,0.0
1267,74.0,0,180,0.0,0.0
1268,71.0,120,15,0.0,0.0
1269,79.0,60,180,0.0,0.0
1270,63.0,120,120,0.0,0.0
1271,67.0,0,180,0.0,0.0
1272,79.0,60,180,0.0,0.0
1273,71.0,0,180,0.0,0.0
1274,77.0,0,180,0.0,0.0
1275,62.0,60,120,0.0,0.0
1276,60.0,120,120,0.0,0.0
1277,67.0,0,180,0.0,0.0
1278,77.0,60,180,0.0,0.0
1279,71.0,0,180,0.0,0.0
1280,79.0,0,180,0.0,0.0
1281,59.0,60,120,0.0,0.0
1282,56.0,120,120,0.0,0.0
1283,71.0,0,180,0.0,0.0
1284,77.0,0,180,0.0,0.0
1285,67.0,60,180,0.0,0.0
1286,79.0,0,180,0.0,0.0
1287,55.0,60,120,0.0,0.0
1288,53.0,120,120,0.0,0.0
1289,71.0,60,180,0.0,0.0
1290,77.0,0,180,0.0,0.0
1291,79.0,0,180,0.0,0.0
1292,51.0,60,120,0.0,0.0
1293,67.0,0,180,0.0,0.0
1294,50.0,120,120,0.0,0.0
1295,48.0,120,120,0.0,0.0
1296,75.0,120,240,0.0,0.0
1297,67.0,0,240,0.0,0.0
1298,79.0,0,240,0.0,0.0
1299,72.0,0,240,0.0,0.0
1300,50.0,0,120,0.0,0.0
1301,51.0,120,120,0.0,0.0
1302,53.0,120,120,0.0,0.0
1303,55.0,120,120,0.0,0.0
1304,57.0,120,120,0.0,0.0
1305,87.0,0,180,0.0,0.0
1306,84.0,60,180,0.0,0.0
1307,79.0,0,180,0.0,0.0
1308,91.0,0,180,0.0,0.0
1309,59.0,60,120,0.0,0.0
1310,60.0,120,120,0.0,0.0
1311,83.0,0,180,0.0,0.0
1312,79.0,0,180,0.0,0.0
1313,89.0,0,180,0.0,0.0
1314,91.0,60,180,0.0,0.0
1315,62.0,60,120,0.0,0.0
1316,60.0,120,120,0.0,0.0
1317,79.0,0,180,0.0,0.0
1318,59.0,60,120,0.0,0.0
1319,83.0,0,180,0.0,0.0
1320,91.0,0,180,0.0,0.0
1321,89.0,60,180,0.0,0.0
1322,56.0,120,120,0.0,0.0
1323,55.0,60,120,0.0,0.0
1324,79.0,0,180,0.0,0.0
1325,91.0,60,180,0.0,0.0
1326,89.0,0,180,0.0,0.0
1327,83.0,0,180,0.0,0.0
1328,53.0,120,120,0.0,0.0
1329,79.0,0,180,0.0,0.0
1330,83.0,0,180,0.0,0.0
1331,89.0,60,180,0.0,0.0
1332,51.0,60,120,0.0,0.0
1333,91.0,0,180,0.0,0.0
1334,50.0,120,120,0.0,0.0
1335,79.0,0,180,0.0,0.0
1336,91.0,0,180,0.0,0.0
1337,84.0,0,180,0.0,0.0
1338,87.0,60,180,0.0,0.0
1339,48.0,60,120,0.0,0.0
1340,50.0,120,120,0.0,0.0
1341,51.0,120,120,0.0,0.0
1342,53.0,120,120,0.0,0.0
1343,55.0,120,120,0.0,0.0
1344,57.0,120,120,0.0,0.0
1345,79.0,0,180,0.0,0.0
1346,72.0,0,180,0.0,0.0
1347,75.0,60,180,0.0,0.0
1348,67.0,0,180,0.0,0.0
1349,59.0,60,120,0.0,0.0
1350,60.0,120,120,0.0,0.0
1351,71.0,0,180,0.0,0.0
1352,79.0,60,180,0.0,0.0
1353,62.0,60,120,0.0,0.0
1354,67.0,0,180,0.0,0.0
1355,77.0,0,180,0.0,0.0
1356,60.0,120,120,0.0,0.0
1357,67.0,0,180,0.0,0.0
1358,71.0,0,180,0.0,0.0
1359,59.0,60,120,0.0,0.0
1360,77.0,60,180,0.0,0.0
1361,79.0,0,180,0.0,0.0
1362,56.0,120,120,0.0,0.0
1363,67.0,60,180,0.0,0.0
1364,79.0,0,180,0.0,0.0
1365,71.0,0,180,0.0,0.0
1366,77.0,0,180,0.0,0.0
1367,55.0,60,120,0.0,0.0
1368,53.0,120,120,0.0,0.0
1369,51.0,60,120,0.0,0.0
1370,67.0,60,180,0.0,0.0
1371,77.0,0,180,0.0,0.0
1372,79.0,0,180,0.0,0.0
1373,71.0,0,180,0.0,0.0
1374,50.0,120,120,0.0,0.0
1375,67.0,0,180,0.0,0.0
1376,72.0,0,180,0.0,0.0
1377,48.0,60,120,0.0,0.0
1378,79.0,60,180,0.0,0.0
1379,75.0,0,180,0.0,0.0
1380,50.0,120,120,0.0,0.0
1381,51.0,120,120,0.0,0.0
1382,53.0,120,120,0.0,0.0
1383,55.0,120,120,0.0,0.0
1384,57.0,120,120,0.0,0.0
1385,59.0,60,120,0.0,0.0
1386,72.0,60,180,0.0,0.0
1387,79.0,0,180,0.0,0.0
1388,84.0,0,180,0.0,0.0
1389,75.0,0,180,0.0,0.0
1390,60.0,120,120,0.0,0.0
1391,58.0,60,120,0.0,0.0
1392,79.0,0,180,0.0,0.0
1393,84.0,60,180,0.0,0.0
1394,72.0,0,180,0.0,0.0
1395,76.0,0,180,0.0,0.0
1396,56.0,120,120,0.0,0.0
1397,55.0,60,120,0.0,0.0
1398,84.0,0,180,0.0,0.0
1399,79.0,60,180,0.0,0.0
1400,76.0,0,180,0.0,0.0
1401,72.0,0,180,0.0,0.0
1402,53.0,120,120,0.0,0.0
1403,79.0,0,180,0.0,0.0
1404,84.0,0,180,0.0,0.0
1405,76.0,60,180,0.0,0.0
1406,72.0,0,180,0.0,0.0
1407,52.0,60,120,0.0,0.0
1408,50.0,120,120,0.0,0.0
1409,48.0,60,120,0.0,0.0
1410,76.0,0,180,0.0,0.0
1411,79.0,0,180,0.0,0.0
1412,72.0,0,180,0.0,0.0
1413,84.0,60,180,0.0,0.0
1414,46.0,120,120,0.0,0.0
1415,44.0,60,120,0.0,0.0
1416,77.0,0,180,0.0,0.0
1417,84.0,0,180,0.0,0.0
1418,80.0,0,180,0.0,0.0
1419,72.0,60,180,0.0,0.0
1420,46.0,120,120,0.0,0.0
1421,48.0,120,120,0.0,0.0
1422,50.0,120,120,0.0,0.0
1423,52.0,120,120,0.0,0.0
1424,53.0,120,120,0.0,0.0
1425,68.0,0,240,0.0,0.0
1426,65.0,0,240,0.0,0.0
1427,55.0,120,120,0.0,0.0
1428,56.0,0,120,0.0,0.0
1429,72.0,0,15,0.0,0.0
1430,55.0,120,120,0.0,0.0
1431,60.0,120,15,0.0,0.0
1432,53.0,0,120,0.0,0.0
1433,72.0,0,15,0.0,0.0
1434,52.0,120,120,0.0,0.0
1435,60.0,0,15,0.0,0.0
1436,70.0,0,15,0.0,0.0
1437,64.0,120,15,0.0,0.0
1438,50.0,0,120,0.0,0.0
1439,64.0,0,15,0.0,0.0
1440,70.0,120,15,0.0,0.0
1441,72.0,0,15,0.0,0.0
1442,48.0,120,120,0.0,0.0
1443,46.0,0,120,0.0,0.0
1444,44.0,120,120,0.0,0.0
1445,70.0,0,15,0.0,0.0
1446,64.0,120,15,0.0,0.0
1447,60.0,0,15,0.0,0.0
1448,43.0,0,120,0.0,0.0
1449,72.0,0,15,0.0,0.0
1450,60.0,0,15,0.0,0.0
1451,63.0,0,120,0.0,0.0
1452,30.0,120,120,0.0,0.0
1453,42.0,0,120,0.0,0.0
1454,69.0,0,120,0.0,0.0
1455,57.0,120,120,0.0,0.0
1456,60.0,120,120,0.0,0.0
1457,63.0,120,120,0.0,0.0
1458,66.0,120,120,0.0,0.0
1459,69.0,120,120,0.0,0.0
1460,72.0,120,120,0.0,0.0
1461,75.0,120,120,0.0,0.0
1462,78.0,120,120,0.0,0.0
1463,81.0,120,120,0.0,0.0
1464,84.0,120,120,0.0,0.0
1465,87.0,120,120,0.0,0.0
1466,90.0,120,120,0.0,0.0
1467,87.0,120,120,0.0,0.0
1468,84.0,120,120,0.0,0.0
1469,81.0,120,120,0.0,0.0
1470,78.0,120,120,0.0,0.0
1471,75.0,120,120,0.0,0.0
1472,72.0,120,120,0.0,0.0
1473,69.0,120,120,0.0,0.0
1474,66.0,120,120,0.0,0.0
1475,63.0,120,120,0.0,0.0
1476,60.0,120,120,0.0,0.0
1477,57.0,120,120,0.0,0.0
1478,54.0,120,120,0.0,0.0
1479,51.0,120,120,0.0,0.0
1480,48.0,120,120,0.0,0.0
1481,45.0,120,120,0.0,0.0
1482,42.0,120,120,0.0,0.0
1483,39.0,120,120,0.0,0.0
1484,36.0,120,120,0.0,0.0
1485,33.0,120,120,0.0,0.0
1486,30.0,120,120,0.0,0.0
1487,33.0,120,120,0.0,0.0
1488,36.0,120,120,0.0,0.0
1489,39.0,120,120,0.0,0.0
1490,30.0,120,120,0.0,0.0
1491,33.0,120,120,0.0,0.0
1492,36.0,120,120,0.0,0.0
1493,39.0,120,120,0.0,0.0
1494,30.0,120,120,0.0,0.0
1495,33.0,120,120,0.0,0.0
1496,36.0,120,120,0.0,0.0
1497,39.0,120,120,0.0,0.0
1498,30.0,120,120,0.0,0.0
1499,33.0,120,120,0.0,0.0
1500,36.0,120,120,0.0,0.0
1501,39.0,240,120,0.0,0.0
1502,29.0,0,480,0.0,0.0
1503,57.0,120,120,0.0,0.0
1504,60.0,120,120,0.0,0.0
1505,63.0,120,120,0.0,0.0
1506,66.0,120,120,0.0,0.0
1507,68.0,120,120,0.0,0.0
1508,66.0,120,120,0.0,0.0
1509,65.0,120,120,0.0,0.0
1510,63.0,120,120,0.0,0.0
1511,65.0,120,120,0.0,0.0
1512,63.0,120,120,0.0,0.0
1513,61.0,120,120,0.0,0.0
1514,60.0,120,120,0.0,0.0
1515,61.0,120,120,0.0,0.0
1516,63.0,120,120,0.0,0.0
1517,41.0,0,120,0.0,0.0
1518,60.0,240,120,0.0,0.0
1519,29.0,0,480,0.0,0.0
1520,57.0,120,120,0.0,0.0
1521,60.0,120,120,0.0,0.0
1522,63.0,120,120,0.0,0.0
1523,66.0,120,120,0.0,0.0
1524,68.0,120,120,0.0,0.0
1525,66.0,120,120,0.0,0.0
1526,65.0,120,120,0.0,0.0
1527,63.0,120,120,0.0,0.0
1528,65.0,120,120,0.0,0.0
1529,63.0,120,120,0.0,0.0
1530,61.0,120,120,0.0,0.0
1531,60.0,120,120,0.0,0.0
1532,61.0,120,120,0.0,0.0
1533,63.0,120,120,0.0,0.0
1534,60.0,240,120,0.0,0.0
1535,41.0,0,120,0.0,0.0
1536,29.0,0,480,0.0,0.0
1537,57.0,120,120,0.0,0.0
1538,60.0,120,120,0.0,0.0
1539,63.0,120,120,0.0,0.0
1540,66.0,120,120,0.0,0.0
1541,68.0,120,120,0.0,0.0
1542,66.0,0,120,0.0,0.0
1543,57.0,120,120,0.0,0.0
1544,65.0,120,120,0.0,0.0
1545,58.0,0,120,0.0,0.0
1546,60.0,120,120,0.0,0.0
1547,61.0,0,120,0.0,0.0
1548,63.0,120,15,0.0,0.0
1549,60.0,120,120,0.0,0.0
1550,58.0,0,120,0.0,0.0
1551,65.0,120,120,0.0,0.0
1552,66.0,120,120,0.0,0.0
1553,57.0,0,240,0.0,0.0
1554,68.0,120,120,0.0,0.0
1555,57.0,120,120,0.0,0.0
1556,66.0,0,120,0.0,0.0
1557,65.0,120,120,0.0,0.0
1558,58.0,0,120,0.0,0.0
1559,60.0,120,120,0.0,0.0
1560,63.0,120,240,0.0,0.0
1561,61.0,0,120,0.0,0.0
1562,60.0,120,120,0.0,0.0
1563,63.0,0,120,0.0,0.0
1564,58.0,120,120,0.0,0.0
1565,65.0,0,120,0.0,0.0
1566,66.0,120,120,0.0,0.0
1567,68.0,0,120,0.0,0.0
1568,66.0,0,120,0.0,0.0
1569,57.0,120,15,0.0,0.0
1570,65.0,120,120,0.0,0.0
1571,58.0,0,120,0.0,0.0
1572,60.0,120,120,0.0,0.0
1573,63.0,0,240,0.0,0.0
1574,61.0,120,120,0.0,0.0
1575,78.0,0,240,0.0,0.0
1576,60.0,120,120,0.0,0.0
1577,66.0,120,240,0.0,0.0
1578,58.0,0,120,0.0,0.0
1579,77.0,0,240,0.0,0.0
1580,65.0,0,240,0.0,0.0
1581,57.0,120,120,0.0,0.0
1582,54.0,120,120,0.0,0.0
1583,81.0,120,240,0.0,0.0
1584,69.0,0,240,0.0,0.0
1585,53.0,120,120,0.0,0.0
1586,51.0,0,120,0.0,0.0
1587,70.0,0,120,0.0,0.0
1588,82.0,120,120,0.0,0.0
1589,53.0,0,120,0.0,0.0
1590,65.0,120,120,0.0,0.0
1591,58.0,0,120,0.0,0.0
1592,70.0,120,120,0.0,0.0
1593,53.0,120,120,0.0,0.0
1594,73.0,0,120,0.0,0.0
1595,58.0,120,120,0.0,0.0
1596,77.0,0,120,0.0,0.0
1597,53.0,120,120,0.0,0.0
1598,78.0,0,120,0.0,0.0
1599,77.0,120,120,0.0,0.0
1600,58.0,0,120,0.0,0.0
1601,53.0,0,120,0.0,0.0
1602,75.0,120,120,0.0,0.0
1603,58.0,120,120,0.0,0.0
1604,73.0,0,120,0.0,0.0
1605,75.0,120,120,0.0,0.0
1606,53.0,0,120,0.0,0.0
1607,58.0,0,120,0.0,0.0
1608,73.0,120,120,0.0,0.0
1609,72.0,0,120,0.0,0.0
1610,53.0,120,120,0.0,0.0
1611,70.0,120,120,0.0,0.0
1612,58.0,0,120,0.0,0.0
1613,53.0,0,120,0.0,0.0
1614,72.0,120,120,0.0,0.0
1615,58.0,120,120,0.0,0.0
1616,73.0,0,120,0.0,0.0
1617,53.0,0,120,0.0,0.0
1618,70.0,0,120,0.0,0.0
1619,49.0,240,15,0.0,0.0
1620,65.0,120,120,0.0,0.0
1621,53.0,0,120,0.0,0.0
1622,70.0,0,120,0.0,0.0
1623,58.0,120,120,0.0,0.0
1624,73.0,120,120,0.0,0.0
1625,53.0,0,120,0.0,0.0
1626,77.0,120,120,0.0,0.0
1627,58.0,0,120,0.0,0.0
1628,53.0,0,120,0.0,0.0
1629,78.0,120,120,0.0,0.0
1630,58.0,0,120,0.0,0.0
1631,77.0,120,120,0.0,0.0
1632,53.0,120,120,0.0,0.0
1633,75.0,0,120,0.0,0.0
1634,73.0,0,120,0.0,0.0
1635,58.0,120,120,0.0,0.0
1636,53.0,0,120,0.0,0.0
1637,75.0,120,120,0.0,0.0
1638,58.0,0,120,0.0,0.0
1639,73.0,120,120,0.0,0.0
1640,53.0,120,120,0.0,0.0
1641,72.0,0,120,0.0,0.0
1642,70.0,120,120,0.0,0.0
1643,58.0,0,120,0.0,0.0
1644,72.0,0,120,0.0,0.0
1645,53.0,120,120,0.0,0.0
1646,73.0,0,120,0.0,0.0
1647,58.0,120,120,0.0,0.0
1648,70.0,240,120,0.0,0.0
1649,53.0,0,120,0.0,0.0
1650,51.0,0,1920,0.0,0.0
1651,54.0,120,120,0.0,0.0
1652,66.0,0,120,0.0,0.0
1653,71.0,120,120,0.0,0.0
1654,59.0,0,120,0.0,0.0
1655,54.0,120,120,0.0,0.0
1656,75.0,0,120,0.0,0.0
1657,78.0,0,120,0.0,0.0
1658,59.0,120,120,0.0,0.0
1659,54.0,120,120,0.0,0.0
1660,80.0,0,120,0.0,0.0
1661,78.0,0,120,0.0,0.0
1662,59.0,120,120,0.0,0.0
1663,77.0,120,120,0.0,0.0
1664,54.0,0,120,0.0,0.0
1665,75.0,120,120,0.0,0.0
1666,59.0,0,120,0.0,0.0
1667,54.0,120,120,0.0,0.0
1668,77.0,0,120,0.0,0.0
1669,75.0,0,120,0.0,0.0
1670,59.0,120,120,0.0,0.0
1671,73.0,120,120,0.0,0.0
1672,54.0,0,120,0.0,0.0
1673,59.0,120,120,0.0,0.0
1674,71.0,0,120,0.0,0.0
1675,73.0,0,120,0.0,0.0
1676,54.0,120,120,0.0,0.0
1677,75.0,120,120,0.0,0.0
1678,59.0,0,120,0.0,0.0
1679,71.0,120,120,0.0,0.0
1680,54.0,0,120,0.0,0.0
1681,53.0,0,960,0.0,0.0
1682,70.0,120,120,0.0,0.0
1683,58.0,120,120,0.0,0.0
1684,72.0,0,120,0.0,0.0
1685,61.0,120,120,0.0,0.0
1686,70.0,0,120,0.0,0.0
1687,69.0,120,120,0.0,0.0
1688,58.0,0,120,0.0,0.0
1689,61.0,120,120,0.0,0.0
1690,70.0,0,120,0.0,0.0
1691,72.0,0,120,0.0,0.0
1692,58.0,120,120,0.0,0.0
1693,73.0,0,120,0.0,0.0
1694,61.0,120,120,0.0,0.0
1695,58.0,0,120,0.0,0.0
1696,70.0,120,120,0.0,0.0
1697,51.0,0,960,0.0,0.0
1698,69.0,120,120,0.0,0.0
1699,70.0,120,120,0.0,0.0
1700,53.0,0,120,0.0,0.0
1701,60.0,0,120,0.0,0.0
1702,69.0,120,120,0.0,0.0
1703,67.0,0,120,0.0,0.0
1704,53.0,120,120,0.0,0.0
1705,69.0,0,120,0.0,0.0
1706,60.0,120,120,0.0,0.0
1707,70.0,120,120,0.0,0.0
1708,53.0,0,120,0.0,0.0
1709,60.0,120,120,0.0,0.0
1710,72.0,0,120,0.0,0.0
1711,69.0,120,120,0.0,0.0
1712,53.0,0,120,0.0,0.0
1713,49.0,120,120,0.0,0.0
1714,70.0,0,240,0.0,0.0
1715,65.0,120,120,0.0,0.0
1716,70.0,120,120,0.0,0.0
1717,73.0,120,120,0.0,0.0
1718,77.0,120,120,0.0,0.0
1719,58.0,0,480,0.0,0.0
1720,61.0,0,120,0.0,0.0
1721,78.0,120,120,0.0,0.0
1722,65.0,120,120,0.0,0.0
1723,77.0,0,120,0.0,0.0
1724,75.0,120,120,0.0,0.0
1725,61.0,0,120,0.0,0.0
1726,57.0,120,480,0.0,0.0
1727,73.0,120,120,0.0,0.0
1728,75.0,0,120,0.0,0.0
1729,61.0,120,120,0.0,0.0
1730,73.0,0,120,0.0,0.0
1731,65.0,120,120,0.0,0.0
1732,61.0,0,120,0.0,0.0
1733,72.0,0,120,0.0,0.0
1734,70.0,120,120,0.0,0.0
1735,82.0,0,240,0.0,0.0
1736,58.0,120,480,0.0,0.0
1737,72.0,120,120,0.0,0.0
1738,61.0,0,120,0.0,0.0
1739,65.0,120,120,0.0,0.0
1740,73.0,0,120,0.0,0.0
1741,61.0,0,120,0.0,0.0
1742,70.0,0,120,0.0,0.0
1743,81.0,120,240,0.0,0.0
1744,49.0,120,120,0.0,0.0
1745,65.0,0,120,0.0,0.0
1746,70.0,120,120,0.0,0.0
1747,73.0,120,120,0.0,0.0
1748,77.0,120,120,0.0,0.0
1749,82.0,0,240,0.0,0.0
1750,58.0,0,480,0.0,0.0
1751,78.0,0,120,0.0,0.0
1752,61.0,120,120,0.0,0.0
1753,65.0,120,120,0.0,0.0
1754,77.0,0,120,0.0,0.0
1755,61.0,120,120,0.0,0.0
1756,75.0,0,120,0.0,0.0
1757,57.0,0,480,0.0,0.0
1758,73.0,120,120,0.0,0.0
1759,75.0,0,120,0.0,0.0
1760,61.0,120,120,0.0,0.0
1761,73.0,120,120,0.0,0.0
1762,65.0,0,120,0.0,0.0
1763,72.0,120,120,0.0,0.0
1764,61.0,0,120,0.0,0.0
1765,58.0,0,480,0.0,0.0
1766,70.0,120,120,0.0,0.0
1767,82.0,0,240,0.0,0.0
1768,61.0,0,120,0.0,0.0
1769,72.0,120,120,0.0,0.0
1770,65.0,0,120,0.0,0.0
1771,73.0,120,120,0.0,0.0
1772,70.0,120,120,0.0,0.0
1773,61.0,0,120,0.0,0.0
1774,83.0,120,120,0.0,0.0
1775,51.0,0,120,0.0,0.0
1776,71.0,0,15,0.0,0.0
1777,66.0,0,120,0.0,0.0
1778,78.0,120,120,0.0,0.0
1779,63.0,120,120,0.0,0.0
1780,83.0,0,120,0.0,0.0
1781,66.0,120,120,0.0,0.0
1782,71.0,0,120,0.0,0.0
1783,87.0,0,120,0.0,0.0
1784,63.0,0,120,0.0,0.0
1785,90.0,120,120,0.0,0.0
1786,66.0,0,120,0.0,0.0
1787,92.0,0,120,0.0,0.0
1788,71.0,120,120,0.0,0.0
1789,63.0,0,120,0.0,0.0
1790,90.0,120,120,0.0,0.0
1791,66.0,120,120,0.0,0.0
1792,71.0,0,120,0.0,0.0
1793,89.0,0,120,0.0,0.0
1794,87.0,120,120,0.0,0.0
1795,63.0,0,120,0.0,0.0
1796,89.0,0,120,0.0,0.0
1797,66.0,0,120,0.0,0.0
1798,71.0,120,120,0.0,0.0
1799,63.0,120,120,0.0,0.0
1800,87.0,0,120,0.0,0.0
1801,85.0,120,120,0.0,0.0
1802,66.0,0,120,0.0,0.0
1803,71.0,0,120,0.0,0.0
1804,63.0,0,120,0.0,0.0
1805,83.0,120,120,0.0,0.0
1806,71.0,120,120,0.0,0.0
1807,85.0,0,120,0.0,0.0
1808,66.0,0,120,0.0,0.0
1809,83.0,120,120,0.0,0.0
1810,63.0,0,120,0.0,0.0
1811,82.0,0,120,0.0,0.0
1812,66.0,0,120,0.0,0.0
1813,71.0,120,120,0.0,0.0
1814,81.0,120,120,0.0,0.0
1815,65.0,0,120,0.0,0.0
1816,75.0,0,120,0.0,0.0
1817,72.0,120,120,0.0,0.0
1818,69.0,0,120,0.0,0.0
1819,84.0,0,120,0.0,0.0
1820,87.0,120,120,0.0,0.0
1821,65.0,0,120,0.0,0.0
1822,72.0,120,120,0.0,0.0
1823,69.0,0,120,0.0,0.0
1824,75.0,0,120,0.0,0.0
1825,85.0,0,120,0.0,0.0
1826,84.0,120,120,0.0,0.0
1827,65.0,0,120,0.0,0.0
1828,75.0,0,120,0.0,0.0
1829,69.0,0,120,0.0,0.0
1830,72.0,0,120,0.0,0.0
1831,85.0,120,120,0.0,0.0
1832,65.0,120,120,0.0,0.0
1833,84.0,0,120,0.0,0.0
1834,75.0,120,120,0.0,0.0
1835,72.0,0,120,0.0,0.0
1836,69.0,0,120,0.0,0.0
1837,82.0,0,120,0.0,0.0
1838,65.0,0,120,0.0,0.0
1839,81.0,120,120,0.0,0.0
1840,69.0,0,120,0.0,0.0
1841,82.0,120,120,0.0,0.0
1842,81.0,0,120,0.0,0.0
1843,65.0,120,120,0.0,0.0
1844,78.0,120,120,0.0,0.0
1845,69.0,0,120,0.0,0.0
1846,77.0,0,120,0.0,0.0
1847,53.0,120,120,0.0,0.0
1848,75.0,0,120,0.0,0.0
1849,65.0,120,120,0.0,0.0
1850,73.0,120,120,0.0,0.0
1851,53.0,0,120,0.0,0.0
1852,65.0,0,120,0.0,0.0
1853,72.0,120,120,0.0,0.0
1854,46.0,120,240,0.0,0.0
1855,70.0,120,120,0.0,0.0
1856,61.0,120,120,0.0,0.0
1857,58.0,0,120,0.0,0.0
1858,65.0,120,120,0.0,0.0
1859,58.0,120,120,0.0,0.0
1860,61.0,0,120,0.0,0.0
1861,65.0,0,120,0.0,0.0
1862,61.0,0,120,0.0,0.0
1863,58.0,0,120,0.0,0.0
1864,77.0,120,15,0.0,0.0
1865,65.0,120,120,0.0,0.0
1866,58.0,0,120,0.0,0.0
1867,77.0,120,120,0.0,0.0
1868,61.0,0,120,0.0,0.0
1869,65.0,120,120,0.0,0.0
1870,61.0,120,120,0.0,0.0
1871,58.0,0,120,0.0,0.0
1872,64.0,120,120,0.0,0.0
1873,61.0,120,120,0.0,0.0
1874,58.0,0,120,0.0,0.0
1875,64.0,0,120,0.0,0.0
1876,58.0,120,120,0.0,0.0
1877,61.0,0,120,0.0,0.0
1878,78.0,120,15,0.0,0.0
1879,64.0,120,120,0.0,0.0
1880,78.0,0,120,0.0,0.0
1881,60.0,0,120,0.0,0.0
1882,57.0,120,120,0.0,0.0
1883,64.0,120,120,0.0,0.0
1884,57.0,0,120,0.0,0.0
1885,60.0,120,120,0.0,0.0
1886,65.0,120,120,0.0,0.0
1887,57.0,120,120,0.0,0.0
1888,60.0,0,120,0.0,0.0
1889,65.0,0,120,0.0,0.0
1890,60.0,120,120,0.0,0.0
1891,57.0,0,120,0.0,0.0
1892,77.0,120,15,0.0,0.0
1893,65.0,120,120,0.0,0.0
1894,77.0,120,120,0.0,0.0
1895,60.0,0,120,0.0,0.0
1896,57.0,0,120,0.0,0.0
1897,65.0,120,120,0.0,0.0
1898,72.0,0,120,0.0,0.0
1899,60.0,0,120,0.0,0.0
1900,57.0,120,120,0.0,0.0
1901,65.0,120,120,0.0,0.0
1902,73.0,120,120,0.0,0.0
1903,57.0,0,120,0.0,0.0
1904,60.0,0,120,0.0,0.0
1905,65.0,120,120,0.0,0.0
1906,75.0,0,120,0.0,0.0
1907,57.0,120,120,0.0,0.0
1908,60.0,0,120,0.0,0.0
1909,65.0,120,120,0.0,0.0
1910,73.0,0,120,0.0,0.0
1911,61.0,120,120,0.0,0.0
1912,58.0,0,120,0.0,0.0
1913,65.0,120,120,0.0,0.0
1914,58.0,120,120,0.0,0.0
1915,61.0,0,120,0.0,0.0
1916,65.0,120,120,0.0,0.0
1917,58.0,120,120,0.0,0.0
1918,61.0,0,120,0.0,0.0
1919,65.0,0,120,0.0,0.0
1920,89.0,0,15,0.0,0.0
1921,61.0,0,120,0.0,0.0
1922,58.0,0,120,0.0,0.0
1923,77.0,120,15,0.0,0.0
1924,65.0,120,120,0.0,0.0
1925,89.0,0,120,0.0,0.0
1926,77.0,120,120,0.0,0.0
1927,61.0,0,120,0.0,0.0
1928,58.0,0,120,0.0,0.0
1929,65.0,120,120,0.0,0.0
1930,90.0,0,480,0.0,0.0
1931,78.0,0,480,0.0,0.0
1932,58.0,0,120,0.0,0.0
1933,61.0,120,120,0.0,0.0
1934,64.0,120,120,0.0,0.0
1935,61.0,120,120,0.0,0.0
1936,58.0,0,120,0.0,0.0
1937,64.0,120,120,0.0,0.0
1938,90.0,0,120,0.0,0.0
1939,78.0,0,120,0.0,0.0
1940,61.0,120,120,0.0,0.0
1941,58.0,0,120,0.0,0.0
1942,64.0,120,120,0.0,0.0
1943,90.0,0,120,0.0,0.0
1944,78.0,0,120,0.0,0.0
1945,57.0,0,120,0.0,0.0
1946,60.0,120,120,0.0,0.0
1947,64.0,120,120,0.0,0.0
1948,60.0,0,120,0.0,0.0
1949,57.0,120,120,0.0,0.0
1950,65.0,120,120,0.0,0.0
1951,60.0,0,120,0.0,0.0
1952,57.0,120,120,0.0,0.0
1953,65.0,120,120,0.0,0.0
1954,89.0,0,15,0.0,0.0
1955,77.0,0,15,0.0,0.0
1956,60.0,0,120,0.0,0.0
1957,57.0,0,120,0.0,0.0
1958,65.0,120,120,0.0,0.0
1959,60.0,120,120,0.0,0.0
1960,57.0,0,120,0.0,0.0
1961,89.0,0,120,0.0,0.0
1962,77.0,0,120,0.0,0.0
1963,65.0,120,120,0.0,0.0
1964,72.0,0,120,0.0,0.0
1965,84.0,120,120,0.0,0.0
1966,57.0,0,120,0.0,0.0
1967,60.0,0,120,0.0,0.0
1968,65.0,120,120,0.0,0.0
1969,57.0,120,120,0.0,0.0
1970,60.0,0,120,0.0,0.0
1971,85.0,0,120,0.0,0.0
1972,73.0,0,120,0.0,0.0
1973,65.0,120,120,0.0,0.0
1974,75.0,0,120,0.0,0.0
1975,87.0,120,120,0.0,0.0
1976,60.0,0,120,0.0,0.0
1977,57.0,0,120,0.0,0.0
1978,65.0,120,120,0.0,0.0
1979,73.0,120,120,0.0,0.0
1980,85.0,0,120,0.0,0.0
1981,61.0,0,120,0.0,0.0
1982,58.0,0,120,0.0,0.0
1983,65.0,120,120,0.0,0.0
1984,72.0,0,480,0.0,0.0
1985,52.0,120,120,0.0,0.0
1986,55.0,0,120,0.0,0.0
1987,60.0,120,120,0.0,0.0
1988,55.0,120,120,0.0,0.0
1989,52.0,0,120,0.0,0.0
1990,60.0,120,120,0.0,0.0
1991,55.0,0,120,0.0,0.0
1992,52.0,120,120,0.0,0.0
1993,72.0,0,120,0.0,0.0
1994,60.0,120,120,0.0,0.0
1995,56.0,0,120,0.0,0.0
1996,72.0,120,120,0.0,0.0
1997,53.0,0,120,0.0,0.0
1998,60.0,120,120,0.0,0.0
1999,56.0,120,120,0.0,0.0
2000,53.0,0,120,0.0,0.0
2001,62.0,120,120,0.0,0.0
2002,53.0,120,120,0.0,0.0
2003,56.0,0,120,0.0,0.0
2004,62.0,0,120,0.0,0.0
2005,71.0,120,15,0.0,0.0
2006,53.0,0,120,0.0,0.0
2007,56.0,0,120,0.0,0.0
2008,62.0,120,120,0.0,0.0
2009,55.0,120,120,0.0,0.0
2010,52.0,0,120,0.0,0.0
2011,71.0,0,120,0.0,0.0
2012,62.0,120,120,0.0,0.0
2013,55.0,120,120,0.0,0.0
2014,52.0,0,120,0.0,0.0
2015,60.0,120,120,0.0,0.0
2016,52.0,120,120,0.0,0.0
2017,55.0,0,120,0.0,0.0
2018,60.0,0,120,0.0,0.0
2019,55.0,0,120,0.0,0.0
2020,72.0,120,15,0.0,0.0
2021,52.0,120,120,0.0,0.0
2022,60.0,120,120,0.0,0.0
2023,72.0,0,120,0.0,0.0
2024,55.0,0,120,0.0,0.0
2025,52.0,120,120,0.0,0.0
2026,60.0,120,120,0.0,0.0
2027,67.0,0,120,0.0,0.0
2028,55.0,120,120,0.0,0.0
2029,52.0,0,120,0.0,0.0
2030,60.0,120,120,0.0,0.0
2031,55.0,0,120,0.0,0.0
2032,52.0,120,120,0.0,0.0
2033,68.0,0,120,0.0,0.0
2034,60.0,120,120,0.0,0.0
2035,70.0,0,120,0.0,0.0
2036,52.0,0,120,0.0,0.0
2037,55.0,120,120,0.0,0.0
2038,60.0,120,120,0.0,0.0
2039,68.0,0,120,0.0,0.0
2040,56.0,120,120,0.0,0.0
2041,53.0,0,120,0.0,0.0
2042,60.0,120,120,0.0,0.0
2043,53.0,120,120,0.0,0.0
2044,56.0,0,120,0.0,0.0
2045,60.0,120,120,0.0,0.0
2046,56.0,120,120,0.0,0.0
2047,53.0,0,120,0.0,0.0
2048,60.0,0,120,0.0,0.0
2049,56.0,0,120,0.0,0.0
2050,53.0,120,120,0.0,0.0
2051,72.0,120,15,0.0,0.0
2052,84.0,0,15,0.0,0.0
2053,60.0,120,120,0.0,0.0
2054,72.0,0,120,0.0,0.0
2055,84.0,0,120,0.0,0.0
2056,53.0,0,120,0.0,0.0
2057,56.0,120,120,0.0,0.0
2058,60.0,120,120,0.0,0.0
2059,53.0,0,120,0.0,0.0
2060,56.0,120,120,0.0,0.0
2061,62.0,120,120,0.0,0.0
2062,56.0,0,120,0.0,0.0
2063,53.0,120,120,0.0,0.0
2064,62.0,120,120,0.0,0.0
2065,71.0,0,15,0.0,0.0
2066,83.0,0,15,0.0,0.0
2067,56.0,0,120,0.0,0.0
2068,53.0,0,120,0.0,0.0
2069,62.0,120,120,0.0,0.0
2070,71.0,0,120,0.0,0.0
2071,55.0,120,120,0.0,0.0
2072,83.0,0,120,0.0,0.0
2073,52.0,0,120,0.0,0.0
2074,62.0,120,120,0.0,0.0
2075,52.0,120,120,0.0,0.0
2076,55.0,0,120,0.0,0.0
2077,60.0,120,120,0.0,0.0
2078,55.0,120,120,0.0,0.0
2079,52.0,0,120,0.0,0.0
2080,60.0,0,120,0.0,0.0
2081,52.0,0,120,0.0,0.0
2082,84.0,0,15,0.0,0.0
2083,55.0,0,120,0.0,0.0
2084,72.0,120,15,0.0,0.0
2085,60.0,120,120,0.0,0.0
2086,72.0,120,120,0.0,0.0
2087,52.0,0,120,0.0,0.0
2088,55.0,0,120,0.0,0.0
2089,84.0,0,120,0.0,0.0
2090,60.0,120,120,0.0,0.0
2091,79.0,0,120,0.0,0.0
2092,67.0,0,120,0.0,0.0
2093,55.0,120,120,0.0,0.0
2094,52.0,0,120,0.0,0.0
2095,60.0,120,120,0.0,0.0
2096,80.0,0,120,0.0,0.0
2097,68.0,0,120,0.0,0.0
2098,52.0,120,120,0.0,0.0
2099,55.0,0,120,0.0,0.0
2100,60.0,120,120,0.0,0.0
2101,82.0,0,120,0.0,0.0
2102,55.0,0,120,0.0,0.0
2103,70.0,0,120,0.0,0.0
2104,52.0,120,120,0.0,0.0
2105,60.0,120,120,0.0,0.0
2106,68.0,120,120,0.0,0.0
2107,80.0,0,120,0.0,0.0
2108,41.0,120,480,0.0,0.0
2109,44.0,0,480,0.0,0.0
2110,48.0,0,480,0.0,0.0
2111,53.0,0,480,0.0,0.0
2112,60.0,120,120,0.0,0.0
2113,65.0,120,120,0.0,0.0
2114,68.0,0,120,0.0,0.0
2115,72.0,120,120,0.0,0.0
2116,73.0,0,120,0.0,0.0
2117,48.0,120,120,0.0,0.0
2118,72.0,0,120,0.0,0.0
2119,53.0,120,120,0.0,0.0
2120,70.0,120,120,0.0,0.0
2121,56.0,0,120,0.0,0.0
2122,68.0,120,120,0.0,0.0
2123,60.0,0,120,0.0,0.0
2124,61.0,0,120,0.0,0.0
2125,70.0,120,120,0.0,0.0
2126,60.0,0,120,0.0,0.0
2127,68.0,120,120,0.0,0.0
2128,58.0,0,120,0.0,0.0
2129,67.0,120,120,0.0,0.0
2130,65.0,120,120,0.0,0.0
2131,56.0,0,120,0.0,0.0
2132,58.0,120,120,0.0,0.0
2133,67.0,0,120,0.0,0.0
2134,60.0,120,120,0.0,0.0
2135,68.0,0,120,0.0,0.0
2136,65.0,0,120,0.0,0.0
2137,56.0,120,120,0.0,0.0
2138,66.0,0,120,0.0,0.0
2139,58.0,120,120,0.0,0.0
2140,61.0,120,120,0.0,0.0
2141,60.0,0,120,0.0,0.0
2142,58.0,120,120,0.0,0.0
2143,66.0,0,120,0.0,0.0
2144,70.0,0,120,0.0,0.0
2145,56.0,120,120,0.0,0.0
2146,54.0,120,120,0.0,0.0
2147,73.0,0,120,0.0,0.0
2148,75.0,120,120,0.0,0.0
2149,49.0,0,120,0.0,0.0
2150,54.0,0,120,0.0,0.0
2151,73.0,120,120,0.0,0.0
2152,58.0,120,120,0.0,0.0
2153,72.0,0,120,0.0,0.0
2154,70.0,0,120,0.0,0.0
2155,61.0,120,120,0.0,0.0
2156,72.0,120,120,0.0,0.0
2157,63.0,0,120,0.0,0.0
2158,61.0,0,120,0.0,0.0
2159,70.0,120,120,0.0,0.0
2160,68.0,120,120,0.0,0.0
2161,60.0,0,120,0.0,0.0
2162,58.0,0,120,0.0,0.0
2163,66.0,120,120,0.0,0.0
2164,60.0,0,120,0.0,0.0
2165,68.0,120,120,0.0,0.0
2166,70.0,0,120,0.0,0.0
2167,61.0,120,120,0.0,0.0
2168,66.0,120,120,0.0,0.0
2169,58.0,0,120,0.0,0.0
2170,69.0,0,120,0.0,0.0
2171,60.0,120,120,0.0,0.0
2172,63.0,120,120,0.0,0.0
2173,61.0,0,120,0.0,0.0
2174,60.0,120,120,0.0,0.0
2175,69.0,0,120,0.0,0.0
2176,72.0,120,120,0.0,0.0
2177,58.0,0,120,0.0,0.0
2178,57.0,0,120,0.0,0.0
2179,75.0,120,120,0.0,0.0
2180,51.0,0,120,0.0,0.0
2181,77.0,120,120,0.0,0.0
2182,57.0,0,120,0.0,0.0
2183,75.0,120,120,0.0,0.0
2184,60.0,120,120,0.0,0.0
2185,73.0,0,120,0.0,0.0
2186,72.0,0,120,0.0,0.0
2187,63.0,120,120,0.0,0.0
2188,73.0,120,120,0.0,0.0
2189,65.0,0,120,0.0,0.0
2190,63.0,0,120,0.0,0.0
2191,72.0,120,120,0.0,0.0
2192,70.0,120,120,0.0,0.0
2193,61.0,0,120,0.0,0.0
2194,60.0,0,120,0.0,0.0
2195,69.0,120,120,0.0,0.0
2196,61.0,0,120,0.0,0.0
2197,70.0,120,120,0.0,0.0
2198,63.0,0,120,0.0,0.0
2199,72.0,120,120,0.0,0.0
2200,60.0,120,120,0.0,0.0
2201,69.0,0,120,0.0,0.0
2202,61.0,0,120,0.0,0.0
2203,70.0,120,120,0.0,0.0
2204,65.0,0,120,0.0,0.0
2205,53.0,120,120,0.0,0.0
2206,70.0,120,120,0.0,0.0
2207,58.0,0,120,0.0,0.0
2208,61.0,0,120,0.0,0.0
2209,73.0,120,120,0.0,0.0
2210,65.0,120,120,0.0,0.0
2211,77.0,0,120,0.0,0.0
2212,78.0,120,120,0.0,0.0
2213,66.0,0,120,0.0,0.0
2214,77.0,120,120,0.0,0.0
2215,65.0,0,120,0.0,0.0
2216,63.0,120,120,0.0,0.0
2217,75.0,0,120,0.0,0.0
2218,61.0,0,120,0.0,0.0
2219,73.0,120,120,0.0,0.0
2220,72.0,0,120,0.0,0.0
2221,60.0,120,120,0.0,0.0
2222,58.0,120,120,0.0,0.0
2223,70.0,0,120,0.0,0.0
2224,68.0,0,120,0.0,0.0
2225,56.0,120,120,0.0,0.0
2226,54.0,0,120,0.0,0.0
2227,66.0,120,120,0.0,0.0
2228,53.0,120,120,0.0,0.0
2229,65.0,0,120,0.0,0.0
2230,63.0,0,120,0.0,0.0
2231,51.0,120,120,0.0,0.0
2232,49.0,0,120,0.0,0.0
2233,61.0,120,120,0.0,0.0
2234,48.0,120,120,0.0,0.0
2235,60.0,0,120,0.0,0.0
2236,58.0,120,120,0.0,0.0
2237,46.0,0,120,0.0,0.0
2238,44.0,0,120,0.0,0.0
2239,56.0,120,120,0.0,0.0
2240,42.0,120,120,0.0,0.0
2241,54.0,0,120,0.0,0.0
2242,53.0,120,120,0.0,0.0
2243,41.0,0,120,0.0,0.0
2244,51.0,0,120,0.0,0.0
2245,39.0,120,120,0.0,0.0
2246,37.0,0,120,0.0,0.0
2247,49.0,120,120,0.0,0.0
2248,48.0,120,120,0.0,0.0
2249,36.0,0,120,0.0,0.0
2250,34.0,0,120,0.0,0.0
2251,46.0,120,120,0.0,0.0
2252,36.0,120,120,0.0,0.0
2253,48.0,0,120,0.0,0.0
2254,49.0,120,120,0.0,0.0
2255,37.0,0,120,0.0,0.0
2256,36.0,240,120,0.0,0.0
2257,46.0,0,120,0.0,0.0
2258,34.0,0,240,0.0,0.0
2259,46.0,240,240,0.0,0.0
2260,35.0,0,240,0.0,0.0
2261,56.0,120,240,0.0,0.0
2262,53.0,0,240,0.0,0.0
2263,50.0,0,240,0.0,0.0
2264,47.0,0,240,0.0,0.0
2265,52.0,0,120,0.0,0.0
2266,55.0,0,120,0.0,0.0
2267,36.0,120,120,0.0,0.0
2268,60.0,0,120,0.0,0.0
2269,48.0,0,15,0.0,0.0
2270,40.0,120,120,0.0,0.0
2271,60.0,120,120,0.0,0.0
2272,48.0,0,120,0.0,0.0
2273,36.0,120,120,0.0,0.0
2274,60.0,0,120,0.0,0.0
2275,48.0,120,120,0.0,0.0
2276,41.0,120,120,0.0,0.0
2277,48.0,0,120,0.0,0.0
2278,60.0,120,120,0.0,0.0
2279,36.0,120,120,0.0,0.0
2280,60.0,120,120,0.0,0.0
2281,48.0,0,120,0.0,0.0
2282,43.0,120,120,0.0,0.0
2283,48.0,0,120,0.0,0.0
2284,60.0,120,120,0.0,0.0
2285,36.0,120,120,0.0,0.0
2286,60.0,0,120,0.0,0.0
2287,48.0,120,120,0.0,0.0
2288,44.0,120,120,0.0,0.0
2289,48.0,120,120,0.0,0.0
2290,60.0,0,120,0.0,0.0
2291,36.0,120,120,0.0,0.0
2292,72.0,120,120,0.0,0.0
2293,60.0,0,120,0.0,0.0
2294,46.0,120,120,0.0,0.0
2295,72.0,120,120,0.0,0.0
2296,60.0,0,120,0.0,0.0
2297,36.0,120,120,0.0,0.0
2298,72.0,0,120,0.0,0.0
2299,60.0,120,120,0.0,0.0
2300,44.0,120,120,0.0,0.0
2301,60.0,120,120,0.0,0.0
2302,72.0,0,120,0.0,0.0
2303,36.0,120,120,0.0,0.0
2304,60.0,120,120,0.0,0.0
2305,72.0,0,120,0.0,0.0
2306,43.0,120,120,0.0,0.0
2307,60.0,120,120,0.0,0.0
2308,72.0,0,120,0.0,0.0
2309,36.0,120,120,0.0,0.0
2310,72.0,0,120,0.0,0.0
2311,60.0,120,120,0.0,0.0
2312,41.0,120,120,0.0,0.0
2313,60.0,0,120,0.0,0.0
2314,72.0,120,120,0.0,0.0
2315,36.0,120,120,0.0,0.0
2316,84.0,120,120,0.0,0.0
2317,72.0,0,120,0.0,0.0
2318,40.0,120,120,0.0,0.0
2319,84.0,0,120,0.0,0.0
2320,72.0,120,120,0.0,0.0
2321,36.0,120,120,0.0,0.0
2322,72.0,0,120,0.0,0.0
2323,84.0,120,120,0.0,0.0
2324,41.0,120,120,0.0,0.0
2325,72.0,120,120,0.0,0.0
2326,84.0,0,120,0.0,0.0
2327,36.0,120,120,0.0,0.0
2328,84.0,120,120,0.0,0.0
2329,72.0,0,120,0.0,0.0
2330,43.0,120,120,0.0,0.0
2331,84.0,0,120,0.0,0.0
2332,72.0,120,120,0.0,0.0
2333,36.0,120,120,0.0,0.0
2334,72.0,120,120,0.0,0.0
2335,84.0,0,120,0.0,0.0
2336,44.0,120,120,0.0,0.0
2337,84.0,0,120,0.0,0.0
2338,72.0,120,120,0.0,0.0
2339,36.0,120,120,0.0,0.0
2340,84.0,120,120,0.0,0.0
2341,96.0,0,120,0.0,0.0
2342,45.0,120,120,0.0,0.0
2343,96.0,120,120,0.0,0.0
2344,84.0,0,120,0.0,0.0
2345,36.0,120,120,0.0,0.0
2346,96.0,120,120,0.0,0.0
2347,84.0,0,120,0.0,0.0
2348,46.0,120,120,0.0,0.0
2349,96.0,0,120,0.0,0.0
2350,84.0,120,120,0.0,0.0
2351,36.0,120,120,0.0,0.0
2352,84.0,0,120,0.0,0.0
2353,96.0,120,120,0.0,0.0
2354,47.0,120,120,0.0,0.0
2355,84.0,120,120,0.0,0.0
2356,96.0,0,120,0.0,0.0
2357,36.0,120,120,0.0,0.0
2358,96.0,0,120,0.0,0.0
2359,84.0,120,120,0.0,0.0
2360,48.0,120,120,0.0,0.0
2361,96.0,0,120,0.0,0.0
2362,84.0,240,120,0.0,0.0
2363,34.0,0,240,0.0,0.0
2364,46.0,0,240,0.0,0.0
2365,42.0,120,240,0.0,0.0
2366,37.0,0,240,0.0,0.0
2367,49.0,0,120,0.0,0.0
2368,54.0,120,120,0.0,0.0
2369,58.0,120,120,0.0,0.0
2370,61.0,120,120,0.0,0.0
2371,46.0,120,120,0.0,0.0
2372,49.0,120,120,0.0,0.0
2373,54.0,120,120,0.0,0.0
2374,58.0,120,120,0.0,0.0
2375,61.0,120,120,0.0,0.0
2376,66.0,120,120,0.0,0.0
2377,70.0,120,120,0.0,0.0
2378,73.0,120,120,0.0,0.0
2379,58.0,120,120,0.0,0.0
2380,61.0,120,120,0.0,0.0
2381,66.0,120,120,0.0,0.0
2382,70.0,120,120,0.0,0.0
2383,73.0,120,120,0.0,0.0
2384,78.0,120,120,0.0,0.0
2385,82.0,240,120,0.0,0.0
2386,85.0,1440,240,0.0,0.0
2387,43.0,0,240,0.0,0.0
2388,46.0,0,240,0.0,0.0
2389,36.0,0,240,0.0,0.0
2390,48.0,120,240,0.0,0.0
2391,52.0,0,120,0.0,0.0
2392,55.0,120,120,0.0,0.0
2393,58.0,120,120,0.0,0.0
2394,64.0,120,120,0.0,0.0
2395,48.0,120,120,0.0,0.0
2396,55.0,120,120,0.0,0.0
2397,58.0,120,120,0.0,0.0
2398,60.0,120,120,0.0,0.0
2399,64.0,120,120,0.0,0.0
2400,67.0,120,120,0.0,0.0
2401,70.0,120,120,0.0,0.0
2402,76.0,120,120,0.0,0.0
2403,60.0,120,120,0.0,0.0
2404,67.0,120,120,0.0,0.0
2405,70.0,120,120,0.0,0.0
2406,72.0,120,120,0.0,0.0
2407,76.0,120,120,0.0,0.0
2408,79.0,120,120,0.0,0.0
2409,82.0,240,120,0.0,0.0
2410,88.0,1360,240,0.0,0.0
2411,37.0,160,150,0.0,0.0
2412,49.0,160,150,0.0,0.0
2413,52.0,120,150,0.0,0.0
2414,55.0,120,120,0.0,0.0
2415,58.0,120,120,0.0,0.0
2416,61.0,120,120,0.0,0.0
2417,64.0,240,120,0.0,0.0
2418,67.0,880,240,0.0,0.0
2419,40.0,160,150,0.0,0.0
2420,52.0,160,150,0.0,0.0
2421,55.0,120,150,0.0,0.0
2422,58.0,120,120,0.0,0.0
2423,61.0,120,120,0.0,0.0
2424,64.0,120,120,0.0,0.0
2425,67.0,240,120,0.0,0.0
2426,70.0,880,240,0.0,0.0
2427,43.0,160,150,0.0,0.0
2428,55.0,160,150,0.0,0.0
2429,58.0,120,150,0.0,0.0
2430,61.0,120,120,0.0,0.0
2431,64.0,120,120,0.0,0.0
2432,67.0,120,120,0.0,0.0
2433,70.0,240,120,0.0,0.0
2434,73.0,880,240,0.0,0.0
2435,46.0,160,150,0.0,0.0
2436,58.0,160,150,0.0,0.0
2437,61.0,120,150,0.0,0.0
2438,64.0,120,120,0.0,0.0
2439,67.0,120,120,0.0,0.0
2440,70.0,120,120,0.0,0.0
2441,73.0,240,120,0.0,0.0
2442,76.0,960,240,0.0,0.0
2443,49.0,240,240,0.0,0.0
2444,52.0,240,240,0.0,0.0
2445,55.0,240,240,0.0,0.0
2446,58.0,240,240,0.0,0.0
2447,61.0,240,240,0.0,0.0
2448,64.0,240,240,0.0,0.0
2449,67.0,240,240,0.0,0.0
2450,70.0,240,240,0.0,0.0
2451,73.0,240,240,0.0,0.0
2452,76.0,240,240,0.0,0.0
2453,79.0,240,240,0.0,0.0
2454,82.0,240,240,0.0,0.0
2455,85.0,240,240,0.0,0.0
2456,88.0,240,240,0.0,0.0
2457,91.0,240,240,0.0,0.0
2458,94.0,240,240,0.0,0.0
2459,91.0,240,240,0.0,0.0
2460,88.0,240,240,0.0,0.0
2461,85.0,240,240,0.0,0.0
2462,82.0,240,240,0.0,0.0
2463,79.0,240,240,0.0,0.0
2464,76.0,240,240,0.0,0.0
2465,73.0,240,240,0.0,0.0
2466,70.0,240,240,0.0,0.0
2467,67.0,240,240,0.0,0.0
2468,64.0,240,240,0.0,0.0
2469,61.0,240,240,0.0,0.0
2470,58.0,240,240,0.0,0.0
2471,55.0,240,240,0.0,0.0
2472,52.0,240,240,0.0,0.0
2473,49.0,240,240,0.0,0.0
2474,46.0,960,240,0.0,0.0
2475,43.0,960,960,0.0,0.0
2476,40.0,960,960,0.0,0.0
2477,37.0,960,960,0.0,0.0
2478,34.0,1920,960,0.0,0.0
2479,31.0,720,1920,0.0,0.0
2480,52.0,0,720,0.0,0.0
2481,48.0,0,720,0.0,0.0
2482,46.0,0,720,0.0,0.0
2483,43.0,1920,720,0.0,0.0
2484,60.0,960,720,0.0,0.0
2485,64.0,0,720,0.0,0.0
2486,55.0,0,720,0.0,0.0
2487,58.0,0,720,0.0,0.0
2488,72.0,0,720,0.0,0.0
2489,76.0,0,720,0.0,0.0
2490,67.0,960,720,0.0,0.0
2491,70.0,0,720,0.0,0.0
2492,88.0,0,720,0.0,0.0
2493,84.0,0,720,0.0,0.0
2494,82.0,960,720,0.0,0.0
2495,79.0,0,720,0.0,0.0
2496,43.0,0,720,0.0,0.0
2497,46.0,0,720,0.0,0.0
2498,48.0,120,720,0.0,0.0
2499,52.0,0,720,0.0,0.0
2500,36.0,120,15,0.0,0.0
2501,29.0,0,480,0.0,0.0
2502,41.0,120,480,0.0,0.0
2503,48.0,120,120,0.0,0.0
2504,53.0,120,120,0.0,0.0
2505,56.0,0,120,0.0,0.0
2506,60.0,120,120,0.0,0.0
2507,61.0,120,120,0.0,0.0
2508,60.0,120,120,0.0,0.0
2509,58.0,120,120,0.0,0.0
2510,56.0,120,120,0.0,0.0
2511,58.0,120,120,0.0,0.0
2512,56.0,120,120,0.0,0.0
2513,55.0,120,120,0.0,0.0
2514,53.0,120,120,0.0,0.0
2515,55.0,120,120,0.0,0.0
2516,56.0,120,120,0.0,0.0
2517,53.0,240,120,0.0,0.0
2518,29.0,0,480,0.0,0.0
2519,41.0,0,480,0.0,0.0
2520,48.0,120,120,0.0,0.0
2521,53.0,120,120,0.0,0.0
2522,56.0,120,120,0.0,0.0
2523,60.0,120,120,0.0,0.0
2524,61.0,120,120,0.0,0.0
2525,60.0,120,120,0.0,0.0
2526,58.0,0,120,0.0,0.0
2527,68.0,0,120,0.0,0.0
2528,72.0,120,120,0.0,0.0
2529,56.0,120,120,0.0,0.0
2530,72.0,0,480,0.0,0.0
2531,68.0,0,480,0.0,0.0
2532,58.0,120,120,0.0,0.0
2533,56.0,120,120,0.0,0.0
2534,55.0,120,120,0.0,0.0
2535,53.0,120,120,0.0,0.0
2536,65.0,0,240,0.0,0.0
2537,68.0,120,240,0.0,0.0
2538,55.0,0,120,0.0,0.0
2539,56.0,120,120,0.0,0.0
2540,53.0,240,120,0.0,0.0
2541,34.0,0,480,0.0,0.0
2542,46.0,0,480,0.0,0.0
2543,49.0,120,120,0.0,0.0
2544,54.0,120,120,0.0,0.0
2545,58.0,120,120,0.0,0.0
2546,61.0,120,120,0.0,0.0
2547,63.0,120,120,0.0,0.0
2548,61.0,120,120,0.0,0.0
2549,60.0,120,120,0.0,0.0
2550,70.0,0,120,0.0,0.0
2551,73.0,0,120,0.0,0.0
2552,70.0,0,960,0.0,0.0
2553,73.0,0,960,0.0,0.0
2554,58.0,120,120,0.0,0.0
2555,60.0,120,120,0.0,0.0
2556,58.0,120,120,0.0,0.0
2557,56.0,120,120,0.0,0.0
2558,54.0,120,120,0.0,0.0
2559,56.0,120,120,0.0,0.0
2560,54.0,120,120,0.0,0.0
2561,53.0,120,120,0.0,0.0
2562,52.0,120,120,0.0,0.0
2563,70.0,120,240,0.0,0.0
2564,72.0,0,240,0.0,0.0
2565,53.0,0,120,0.0,0.0
2566,55.0,120,120,0.0,0.0
2567,36.0,120,240,0.0,0.0
2568,48.0,0,240,0.0,0.0
2569,52.0,0,120,0.0,0.0
2570,53.0,120,120,0.0,0.0
2571,55.0,120,120,0.0,0.0
2572,49.0,0,240,0.0,0.0
2573,37.0,0,240,0.0,0.0
2574,56.0,120,120,0.0,0.0
2575,53.0,120,120,0.0,0.0
2576,55.0,120,120,0.0,0.0
2577,56.0,120,120,0.0,0.0
2578,46.0,0,240,0.0,0.0
2579,34.0,0,240,0.0,0.0
2580,58.0,120,120,0.0,0.0
2581,55.0,120,120,0.0,0.0
2582,52.0,120,120,0.0,0.0
2583,53.0,120,120,0.0,0.0
2584,55.0,120,120,0.0,0.0
2585,36.0,0,240,0.0,0.0
2586,48.0,0,240,0.0,0.0
2587,52.0,120,120,0.0,0.0
2588,41.0,0,120,0.0,0.0
2589,29.0,120,120,0.0,0.0
2590,48.0,120,120,0.0,0.0
2591,53.0,120,120,0.0,0.0
2592,56.0,0,120,0.0,0.0
2593,60.0,120,120,0.0,0.0
2594,61.0,120,120,0.0,0.0
2595,60.0,120,120,0.0,0.0
2596,64.0,0,120,0.0,0.0
2597,58.0,120,120,0.0,0.0
2598,65.0,120,120,0.0,0.0
2599,56.0,0,120,0.0,0.0
2600,58.0,120,120,0.0,0.0
2601,67.0,0,120,0.0,0.0
2602,56.0,120,120,0.0,0.0
2603,55.0,120,120,0.0,0.0
2604,53.0,0,120,0.0,0.0
2605,68.0,120,120,0.0,0.0
2606,55.0,120,120,0.0,0.0
2607,65.0,0,120,0.0,0.0
2608,56.0,120,120,0.0,0.0
2609,53.0,120,120,0.0,0.0
2610,56.0,120,120,0.0,0.0
2611,48.0,120,120,0.0,0.0
2612,53.0,120,120,0.0,0.0
2613,56.0,120,120,0.0,0.0
2614,60.0,120,120,0.0,0.0
2615,61.0,120,120,0.0,0.0
2616,64.0,120,120,0.0,0.0
2617,60.0,0,120,0.0,0.0
2618,76.0,0,120,0.0,0.0
2619,58.0,120,120,0.0,0.0
2620,77.0,0,120,0.0,0.0
2621,65.0,0,120,0.0,0.0
2622,56.0,120,120,0.0,0.0
2623,58.0,120,120,0.0,0.0
2624,79.0,0,120,0.0,0.0
2625,67.0,0,120,0.0,0.0
2626,56.0,120,120,0.0,0.0
2627,55.0,120,120,0.0,0.0
2628,80.0,0,120,0.0,0.0
2629,53.0,0,120,0.0,0.0
2630,68.0,120,120,0.0,0.0
2631,55.0,120,120,0.0,0.0
2632,56.0,120,120,0.0,0.0
2633,65.0,0,120,0.0,0.0
2634,77.0,0,120,0.0,0.0
2635,53.0,120,120,0.0,0.0
2636,58.0,120,120,0.0,0.0
2637,49.0,120,120,0.0,0.0
2638,54.0,120,120,0.0,0.0
2639,58.0,120,120,0.0,0.0
2640,61.0,120,120,0.0,0.0
2641,63.0,120,120,0.0,0.0
2642,77.0,0,240,0.0,0.0
2643,65.0,120,240,0.0,0.0
2644,61.0,120,120,0.0,0.0
2645,60.0,0,120,0.0,0.0
2646,66.0,0,240,0.0,0.0
2647,58.0,120,120,0.0,0.0
2648,78.0,120,240,0.0,0.0
2649,60.0,0,120,0.0,0.0
2650,82.0,0,240,0.0,0.0
2651,70.0,0,240,0.0,0.0
2652,58.0,120,120,0.0,0.0
2653,56.0,120,120,0.0,0.0
2654,85.0,0,120,0.0,0.0
2655,54.0,120,120,0.0,0.0
2656,73.0,0,120,0.0,0.0
2657,56.0,120,120,0.0,0.0
2658,73.0,120,120,0.0,0.0
2659,54.0,0,120,0.0,0.0
2660,85.0,0,120,0.0,0.0
2661,53.0,120,120,0.0,0.0
2662,73.0,120,480,0.0,0.0
2663,52.0,120,120,0.0,0.0
2664,85.0,0,480,0.0,0.0
2665,53.0,120,120,0.0,0.0
2666,55.0,120,120,0.0,0.0
2667,56.0,0,120,0.0,0.0
2668,58.0,120,120,0.0,0.0
2669,84.0,120,960,0.0,0.0
2670,72.0,0,960,0.0,0.0
2671,56.0,120,120,0.0,0.0
2672,55.0,120,120,0.0,0.0
2673,53.0,120,120,0.0,0.0
2674,52.0,120,120,0.0,0.0
2675,53.0,120,120,0.0,0.0
2676,52.0,120,120,0.0,0.0
2677,49.0,0,120,0.0,0.0
2678,76.0,0,480,0.0,0.0
2679,48.0,120,120,0.0,0.0
2680,64.0,0,480,0.0,0.0
2681,46.0,120,120,0.0,0.0
2682,44.0,120,120,0.0,0.0
2683,43.0,120,120,0.0,0.0
2684,65.0,0,120,0.0,0.0
2685,77.0,120,120,0.0,0.0
2686,41.0,120,480,0.0,0.0
2687,60.0,120,120,0.0,0.0
2688,65.0,120,120,0.0,0.0
2689,68.0,0,120,0.0,0.0
2690,72.0,120,120,0.0,0.0
2691,60.0,120,120,0.0,0.0
2692,65.0,120,120,0.0,0.0
2693,56.0,0,120,0.0,0.0
2694,53.0,0,120,0.0,0.0
2695,68.0,240,120,0.0,0.0
2696,53.0,0,480,0.0,0.0
2697,56.0,120,480,0.0,0.0
2698,60.0,120,120,0.0,0.0
2699,65.0,120,120,0.0,0.0
2700,68.0,0,120,0.0,0.0
2701,72.0,120,120,0.0,0.0
2702,60.0,120,120,0.0,0.0
2703,65.0,120,120,0.0,0.0
2704,68.0,240,120,0.0,0.0
2705,53.0,0,120,0.0,0.0
2706,56.0,0,15,0.0,0.0
2707,48.0,0,960,0.0,0.0
2708,53.0,0,960,0.0,0.0
2709,59.0,120,120,0.0,0.0
2710,62.0,120,120,0.0,0.0
2711,68.0,240,120,0.0,0.0
2712,71.0,240,480,0.0,0.0
2713,59.0,120,120,0.0,0.0
2714,62.0,120,120,0.0,0.0
2715,68.0,0,120,0.0,0.0
2716,48.0,0,240,0.0,0.0
2717,52.0,0,240,0.0,0.0
2718,55.0,0,240,0.0,0.0
2719,71.0,240,480,0.0,0.0
2720,59.0,120,120,0.0,0.0
2721,64.0,120,120,0.0,0.0
2722,67.0,0,120,0.0,0.0
2723,72.0,240,480,0.0,0.0
2724,60.0,120,120,0.0,0.0
2725,64.0,120,120,0.0,0.0
2726,67.0,0,120,0.0,0.0
2727,48.0,0,480,0.0,0.0
2728,36.0,0,480,0.0,0.0
2729,60.0,120,120,0.0,0.0
2730,64.0,120,120,0.0,0.0
2731,67.0,120,120,0.0,0.0
2732,72.0,120,120,0.0,0.0
2733,60.0,120,120,0.0,0.0
2734,64.0,120,120,0.0,0.0
2735,67.0,0,120,0.0,0.0
2736,55.0,240,120,0.0,0.0
2737,58.0,0,15,0.0,0.0
2738,55.0,0,480,0.0,0.0
2739,60.0,120,120,0.0,0.0
2740,64.0,120,120,0.0,0.0
2741,67.0,120,120,0.0,0.0
2742,72.0,120,120,0.0,0.0
2743,60.0,120,120,0.0,0.0
2744,64.0,120,120,0.0,0.0
2745,67.0,0,120,0.0,0.0
2746,55.0,0,120,0.0,0.0
2747,58.0,240,15,0.0,0.0
2748,55.0,0,960,0.0,0.0
2749,60.0,120,120,0.0,0.0
2750,64.0,120,120,0.0,0.0
2751,67.0,240,120,0.0,0.0
2752,60.0,120,120,0.0,0.0
2753,64.0,120,120,0.0,0.0
2754,67.0,0,120,0.0,0.0
2755,56.0,0,240,0.0,0.0
2756,53.0,0,15,0.0,0.0
2757,72.0,0,15,0.0,0.0
2758,60.0,120,120,0.0,0.0
2759,64.0,120,120,0.0,0.0
2760,67.0,240,120,0.0,0.0
2761,72.0,0,15,0.0,0.0
2762,60.0,120,120,0.0,0.0
2763,65.0,120,120,0.0,0.0
2764,68.0,0,120,0.0,0.0
2765,53.0,0,480,0.0,0.0
2766,41.0,120,480,0.0,0.0
2767,65.0,120,120,0.0,0.0
2768,69.0,120,120,0.0,0.0
2769,72.0,0,120,0.0,0.0
2770,77.0,120,120,0.0,0.0
2771,65.0,120,120,0.0,0.0
2772,69.0,120,120,0.0,0.0
2773,63.0,0,120,0.0,0.0
2774,72.0,240,120,0.0,0.0
2775,63.0,120,480,0.0,0.0
2776,60.0,0,15,0.0,0.0
2777,65.0,120,120,0.0,0.0
2778,69.0,120,120,0.0,0.0
2779,72.0,0,120,0.0,0.0
2780,77.0,120,120,0.0,0.0
2781,65.0,120,120,0.0,0.0
2782,69.0,120,120,0.0,0.0
2783,72.0,0,120,0.0,0.0
2784,60.0,240,120,0.0,0.0
2785,63.0,0,15,0.0,0.0
2786,60.0,0,1200,0.0,0.0
2787,65.0,120,120,0.0,0.0
2788,69.0,120,120,0.0,0.0
2789,72.0,240,120,0.0,0.0
2790,77.0,0,480,0.0,0.0
2791,65.0,120,120,0.0,0.0
2792,69.0,120,120,0.0,0.0
2793,72.0,120,120,0.0,0.0
2794,65.0,120,120,0.0,0.0
2795,69.0,0,120,0.0,0.0
2796,77.0,0,120,0.0,0.0
2797,61.0,120,240,0.0,0.0
2798,58.0,0,15,0.0,0.0
2799,70.0,120,120,0.0,0.0
2800,65.0,0,120,0.0,0.0
2801,77.0,0,120,0.0,0.0
2802,60.0,120,240,0.0,0.0
2803,56.0,0,240,0.0,0.0
2804,65.0,120,120,0.0,0.0
2805,72.0,0,120,0.0,0.0
2806,77.0,0,120,0.0,0.0
2807,73.0,0,120,0.0,0.0
2808,65.0,120,120,0.0,0.0
2809,58.0,240,240,0.0,0.0
2810,55.0,0,240,0.0,0.0
2811,77.0,0,120,0.0,0.0
2812,48.0,240,480,0.0,0.0
2813,56.0,0,480,0.0,0.0
2814,53.0,0,480,0.0,0.0
2815,60.0,120,120,0.0,0.0
2816,65.0,120,120,0.0,0.0
2817,68.0,0,120,0.0,0.0
2818,72.0,240,480,0.0,0.0
2819,60.0,120,120,0.0,0.0
2820,65.0,120,120,0.0,0.0
2821,53.0,0,120,0.0,0.0
2822,56.0,0,120,0.0,0.0
2823,68.0,0,120,0.0,0.0
2824,48.0,0,480,0.0,0.0
2825,58.0,0,480,0.0,0.0
2826,55.0,0,480,0.0,0.0
2827,60.0,120,120,0.0,0.0
2828,67.0,120,120,0.0,0.0
2829,70.0,240,120,0.0,0.0
2830,72.0,0,15,0.0,0.0
2831,60.0,120,120,0.0,0.0
2832,64.0,120,120,0.0,0.0
2833,52.0,0,120,0.0,0.0
2834,55.0,0,120,0.0,0.0
2835,67.0,0,120,0.0,0.0
2836,72.0,120,15,0.0,0.0
2837,65.0,120,480,0.0,0.0
2838,53.0,120,120,0.0,0.0
2839,68.0,0,480,0.0,0.0
2840,60.0,120,120,0.0,0.0
2841,56.0,120,120,0.0,0.0
2842,53.0,0,120,0.0,0.0
2843,48.0,120,120,0.0,0.0
2844,56.0,120,120,0.0,0.0
2845,53.0,120,120,0.0,0.0
2846,48.0,0,120,0.0,0.0
2847,80.0,120,120,0.0,0.0
2848,77.0,0,120,0.0,0.0
2849,44.0,120,120,0.0,0.0
2850,80.0,0,480,0.0,0.0
2851,77.0,120,480,0.0,0.0
2852,53.0,120,120,0.0,0.0
2853,48.0,120,120,0.0,0.0
2854,44.0,0,120,0.0,0.0
2855,41.0,120,120,0.0,0.0
2856,48.0,120,120,0.0,0.0
2857,44.0,120,120,0.0,0.0
2858,77.0,0,120,0.0,0.0
2859,41.0,120,120,0.0,0.0
2860,80.0,0,120,0.0,0.0
2861,80.0,120,960,0.0,0.0
2862,77.0,0,960,0.0,0.0
2863,36.0,120,120,0.0,0.0
2864,41.0,120,120,0.0,0.0
2865,44.0,120,120,0.0,0.0
2866,48.0,120,120,0.0,0.0
2867,47.0,120,120,0.0,0.0
2868,48.0,120,120,0.0,0.0
2869,47.0,120,120,0.0,0.0
2870,48.0,0,120,0.0,0.0
2871,47.0,120,120,0.0,0.0
2872,76.0,0,240,0.0,0.0
2873,79.0,120,240,0.0,0.0
2874,48.0,0,120,0.0,0.0
2875,43.0,120,120,0.0,0.0
2876,48.0,120,120,0.0,0.0
2877,40.0,120,120,0.0,0.0
2878,48.0,120,120,0.0,0.0
2879,43.0,120,120,0.0,0.0
2880,48.0,120,120,0.0,0.0
2881,36.0,120,120,0.0,0.0
2882,40.0,120,120,0.0,0.0
2883,43.0,120,120,0.0,0.0
2884,48.0,120,120,0.0,0.0
2885,40.0,120,120,0.0,0.0
2886,43.0,120,120,0.0,0.0
2887,48.0,120,120,0.0,0.0
2888,52.0,120,120,0.0,0.0
2889,79.0,0,120,0.0,0.0
2890,82.0,0,15,0.0,0.0
2891,43.0,120,120,0.0,0.0
2892,79.0,120,480,0.0,0.0
2893,48.0,120,120,0.0,0.0
2894,52.0,120,120,0.0,0.0
2895,55.0,0,120,0.0,0.0
2896,48.0,120,120,0.0,0.0
2897,52.0,120,120,0.0,0.0
2898,55.0,120,120,0.0,0.0
2899,79.0,0,120,0.0,0.0
2900,82.0,0,120,0.0,0.0
2901,60.0,120,120,0.0,0.0
2902,79.0,0,960,0.0,0.0
2903,53.0,120,120,0.0,0.0
2904,82.0,0,960,0.0,0.0
2905,56.0,120,120,0.0,0.0
2906,60.0,120,120,0.0,0.0
2907,65.0,120,120,0.0,0.0
2908,64.0,120,120,0.0,0.0
2909,65.0,120,120,0.0,0.0
2910,64.0,120,120,0.0,0.0
2911,65.0,120,120,0.0,0.0
2912,77.0,0,240,0.0,0.0
2913,80.0,0,240,0.0,0.0
2914,64.0,120,120,0.0,0.0
2915,65.0,120,120,0.0,0.0
2916,60.0,120,120,0.0,0.0
2917,65.0,120,120,0.0,0.0
2918,56.0,120,120,0.0,0.0
2919,65.0,120,120,0.0,0.0
2920,60.0,120,120,0.0,0.0
2921,65.0,120,120,0.0,0.0
2922,53.0,120,120,0.0,0.0
2923,57.0,120,120,0.0,0.0
2924,60.0,120,120,0.0,0.0
2925,65.0,120,120,0.0,0.0
2926,57.0,120,120,0.0,0.0
2927,60.0,120,120,0.0,0.0
2928,65.0,120,120,0.0,0.0
2929,84.0,0,120,0.0,0.0
2930,87.0,0,120,0.0,0.0
2931,69.0,120,120,0.0,0.0
2932,87.0,0,480,0.0,0.0
2933,84.0,120,480,0.0,0.0
2934,60.0,120,120,0.0,0.0
2935,65.0,120,120,0.0,0.0
2936,69.0,120,120,0.0,0.0
2937,72.0,0,120,0.0,0.0
2938,65.0,120,120,0.0,0.0
2939,69.0,120,120,0.0,0.0
2940,72.0,120,120,0.0,0.0
2941,77.0,0,120,0.0,0.0
2942,84.0,0,15,0.0,0.0
2943,87.0,120,15,0.0,0.0
2944,69.0,120,120,0.0,0.0
2945,77.0,120,120,0.0,0.0
2946,76.0,120,120,0.0,0.0
2947,77.0,120,120,0.0,0.0
2948,69.0,120,120,0.0,0.0
2949,77.0,120,120,0.0,0.0
2950,69.0,120,120,0.0,0.0
2951,77.0,120,120,0.0,0.0
2952,69.0,120,120,0.0,0.0
2953,77.0,0,120,0.0,0.0
2954,82.0,120,240,0.0,0.0
2955,85.0,0,240,0.0,0.0
2956,70.0,120,120,0.0,0.0
2957,77.0,0,120,0.0,0.0
2958,80.0,0,240,0.0,0.0
2959,84.0,120,240,0.0,0.0
2960,72.0,120,120,0.0,0.0
2961,77.0,0,120,0.0,0.0
2962,82.0,0,240,0.0,0.0
2963,79.0,120,240,0.0,0.0
2964,73.0,120,120,0.0,0.0
2965,77.0,0,15,0.0,0.0
2966,80.0,0,480,0.0,0.0
2967,60.0,120,120,0.0,0.0
2968,65.0,120,120,0.0,0.0
2969,68.0,120,120,0.0,0.0
2970,72.0,120,120,0.0,0.0
2971,71.0,120,120,0.0,0.0
2972,72.0,120,120,0.0,0.0
2973,71.0,120,120,0.0,0.0
2974,72.0,0,120,0.0,0.0
2975,89.0,120,120,0.0,0.0
2976,80.0,0,120,0.0,0.0
2977,77.0,0,120,0.0,0.0
2978,79.0,120,480,0.0,0.0
2979,82.0,0,480,0.0,0.0
2980,60.0,120,120,0.0,0.0
2981,91.0,0,480,0.0,0.0
2982,64.0,120,120,0.0,0.0
2983,67.0,120,120,0.0,0.0
2984,72.0,0,120,0.0,0.0
2985,60.0,120,120,0.0,0.0
2986,67.0,120,120,0.0,0.0
2987,70.0,120,120,0.0,0.0
2988,76.0,0,120,0.0,0.0
2989,88.0,120,120,0.0,0.0
2990,79.0,0,120,0.0,0.0
2991,72.0,0,120,0.0,0.0
2992,53.0,120,120,0.0,0.0
2993,89.0,0,120,0.0,0.0
2994,80.0,0,120,0.0,0.0
2995,77.0,0,120,0.0,0.0
2996,72.0,0,120,0.0,0.0
2997,68.0,0,120,0.0,0.0
2998,65.0,120,120,0.0,0.0
2999,77.0,0,120,0.0,0.0
3000,60.0,120,120,0.0,0.0
3001,72.0,0,120,0.0,0.0
3002,80.0,120,120,0.0,0.0
3003,68.0,0,120,0.0,0.0
3004,65.0,0,120,0.0,0.0
3005,60.0,120,120,0.0,0.0
3006,72.0,0,120,0.0,0.0
3007,84.0,0,120,0.0,0.0
3008,68.0,120,120,0.0,0.0
3009,65.0,0,120,0.0,0.0
3010,85.0,0,120,0.0,0.0
3011,84.0,0,120,0.0,0.0
3012,72.0,0,120,0.0,0.0
3013,60.0,120,120,0.0,0.0
3014,65.0,0,120,0.0,0.0
3015,68.0,120,120,0.0,0.0
3016,82.0,0,120,0.0,0.0
3017,80.0,120,120,0.0,0.0
3018,60.0,0,120,0.0,0.0
3019,72.0,0,120,0.0,0.0
3020,68.0,120,120,0.0,0.0
3021,65.0,0,120,0.0,0.0
3022,82.0,0,120,0.0,0.0
3023,80.0,120,120,0.0,0.0
3024,72.0,0,120,0.0,0.0
3025,60.0,0,120,0.0,0.0
3026,79.0,120,120,0.0,0.0
3027,68.0,0,120,0.0,0.0
3028,65.0,0,120,0.0,0.0
3029,60.0,0,120,0.0,0.0
3030,72.0,0,120,0.0,0.0
3031,77.0,120,120,0.0,0.0
3032,79.0,120,120,0.0,0.0
3033,68.0,0,120,0.0,0.0
3034,65.0,0,120,0.0,0.0
3035,72.0,0,120,0.0,0.0
3036,60.0,120,120,0.0,0.0
3037,80.0,0,120,0.0,0.0
3038,77.0,0,120,0.0,0.0
3039,68.0,0,120,0.0,0.0
3040,65.0,120,120,0.0,0.0
3041,53.0,120,120,0.0,0.0
3042,68.0,0,120,0.0,0.0
3043,65.0,0,120,0.0,0.0
3044,72.0,120,15,0.0,0.0
3045,77.0,120,120,0.0,0.0
3046,60.0,0,120,0.0,0.0
3047,65.0,0,120,0.0,0.0
3048,68.0,0,120,0.0,0.0
3049,80.0,120,120,0.0,0.0
3050,84.0,0,120,0.0,0.0
3051,60.0,0,120,0.0,0.0
3052,72.0,120,120,0.0,0.0
3053,85.0,0,120,0.0,0.0
3054,65.0,120,120,0.0,0.0
3055,68.0,0,120,0.0,0.0
3056,60.0,0,120,0.0,0.0
3057,72.0,120,120,0.0,0.0
3058,84.0,0,120,0.0,0.0
3059,82.0,120,120,0.0,0.0
3060,65.0,0,120,0.0,0.0
3061,68.0,0,120,0.0,0.0
3062,72.0,120,120,0.0,0.0
3063,60.0,0,120,0.0,0.0
3064,80.0,0,120,0.0,0.0
3065,68.0,120,120,0.0,0.0
3066,82.0,0,120,0.0,0.0
3067,65.0,0,120,0.0,0.0
3068,60.0,120,120,0.0,0.0
3069,72.0,0,120,0.0,0.0
3070,80.0,0,120,0.0,0.0
3071,79.0,120,120,0.0,0.0
3072,68.0,0,120,0.0,0.0
3073,65.0,0,120,0.0,0.0
3074,72.0,0,120,0.0,0.0
3075,60.0,120,120,0.0,0.0
3076,77.0,0,120,0.0,0.0
3077,65.0,0,120,0.0,0.0
3078,79.0,120,120,0.0,0.0
3079,68.0,0,120,0.0,0.0
3080,72.0,0,120,0.0,0.0
3081,60.0,120,120,0.0,0.0
3082,80.0,0,120,0.0,0.0
3083,68.0,120,120,0.0,0.0
3084,65.0,0,120,0.0,0.0
3085,77.0,0,120,0.0,0.0
3086,44.0,120,120,0.0,0.0
3087,78.0,0,120,0.0,0.0
3088,56.0,120,120,0.0,0.0
3089,54.0,0,120,0.0,0.0
3090,60.0,120,120,0.0,0.0
3091,51.0,0,120,0.0,0.0
3092,84.0,0,120,0.0,0.0
3093,87.0,0,120,0.0,0.0
3094,56.0,0,120,0.0,0.0
3095,54.0,120,120,0.0,0.0
3096,90.0,0,120,0.0,0.0
3097,60.0,120,120,0.0,0.0
3098,51.0,0,120,0.0,0.0
3099,56.0,0,120,0.0,0.0
3100,92.0,120,120,0.0,0.0
3101,54.0,0,120,0.0,0.0
3102,51.0,0,120,0.0,0.0
3103,60.0,0,120,0.0,0.0
3104,90.0,120,120,0.0,0.0
3105,54.0,120,120,0.0,0.0
3106,56.0,0,120,0.0,0.0
3107,89.0,0,120,0.0,0.0
3108,87.0,0,120,0.0,0.0
3109,60.0,120,120,0.0,0.0
3110,51.0,0,120,0.0,0.0
3111,54.0,0,120,0.0,0.0
3112,89.0,120,120,0.0,0.0
3113,56.0,0,120,0.0,0.0
3114,87.0,120,120,0.0,0.0
3115,60.0,0,120,0.0,0.0
3116,51.0,0,120,0.0,0.0
3117,85.0,120,120,0.0,0.0
3118,56.0,0,120,0.0,0.0
3119,54.0,0,120,0.0,0.0
3120,84.0,0,120,0.0,0.0
3121,51.0,0,120,0.0,0.0
3122,60.0,120,120,0.0,0.0
3123,54.0,0,120,0.0,0.0
3124,85.0,0,120,0.0,0.0
3125,56.0,120,120,0.0,0.0
3126,87.0,120,120,0.0,0.0
3127,51.0,0,120,0.0,0.0
3128,60.0,0,120,0.0,0.0
3129,54.0,0,120,0.0,0.0
3130,56.0,120,120,0.0,0.0
3131,84.0,0,120,0.0,0.0
3132,44.0,120,120,0.0,0.0
3133,78.0,0,120,0.0,0.0
3134,56.0,120,120,0.0,0.0
3135,54.0,0,120,0.0,0.0
3136,84.0,0,120,0.0,0.0
3137,51.0,0,120,0.0,0.0
3138,60.0,120,120,0.0,0.0
3139,54.0,120,120,0.0,0.0
3140,56.0,0,120,0.0,0.0
3141,87.0,0,120,0.0,0.0
3142,51.0,0,120,0.0,0.0
3143,60.0,0,120,0.0,0.0
3144,90.0,120,120,0.0,0.0
3145,54.0,120,120,0.0,0.0
3146,56.0,0,120,0.0,0.0
3147,92.0,0,120,0.0,0.0
3148,90.0,0,120,0.0,0.0
3149,60.0,0,120,0.0,0.0
3150,51.0,120,120,0.0,0.0
3151,89.0,0,120,0.0,0.0
3152,54.0,120,120,0.0,0.0
3153,56.0,0,120,0.0,0.0
3154,60.0,120,120,0.0,0.0
3155,51.0,0,120,0.0,0.0
3156,87.0,0,120,0.0,0.0
3157,56.0,120,120,0.0,0.0
3158,54.0,0,120,0.0,0.0
3159,89.0,0,120,0.0,0.0
3160,60.0,0,120,0.0,0.0
3161,87.0,0,120,0.0,0.0
3162,51.0,120,120,0.0,0.0
3163,56.0,0,120,0.0,0.0
3164,85.0,120,120,0.0,0.0
3165,54.0,0,120,0.0,0.0
3166,60.0,120,120,0.0,0.0
3167,51.0,0,120,0.0,0.0
3168,84.0,0,120,0.0,0.0
3169,56.0,0,120,0.0,0.0
3170,82.0,0,120,0.0,0.0
3171,54.0,120,120,0.0,0.0
3172,51.0,120,120,0.0,0.0
3173,60.0,0,120,0.0,0.0
3174,80.0,0,120,0.0,0.0
3175,56.0,0,120,0.0,0.0
3176,78.0,120,120,0.0,0.0
3177,54.0,0,120,0.0,0.0
3178,77.0,0,120,0.0,0.0
3179,49.0,120,120,0.0,0.0
3180,80.0,120,120,0.0,0.0
3181,65.0,0,120,0.0,0.0
3182,61.0,0,120,0.0,0.0
3183,56.0,0,120,0.0,0.0
3184,68.0,120,120,0.0,0.0
3185,85.0,0,120,0.0,0.0
3186,89.0,0,120,0.0,0.0
3187,61.0,120,120,0.0,0.0
3188,65.0,0,120,0.0,0.0
3189,56.0,120,120,0.0,0.0
3190,68.0,0,120,0.0,0.0
3191,92.0,0,120,0.0,0.0
3192,94.0,0,120,0.0,0.0
3193,65.0,120,120,0.0,0.0
3194,61.0,0,120,0.0,0.0
3195,92.0,0,120,0.0,0.0
3196,56.0,0,120,0.0,0.0
3197,68.0,120,120,0.0,0.0
3198,65.0,0,120,0.0,0.0
3199,61.0,0,120,0.0,0.0
3200,90.0,120,120,0.0,0.0
3201,56.0,0,120,0.0,0.0
3202,68.0,120,120,0.0,0.0
3203,89.0,0,120,0.0,0.0
3204,90.0,120,120,0.0,0.0
3205,61.0,0,120,0.0,0.0
3206,65.0,0,120,0.0,0.0
3207,56.0,120,120,0.0,0.0
3208,68.0,0,120,0.0,0.0
3209,89.0,0,120,0.0,0.0
3210,87.0,120,120,0.0,0.0
3211,65.0,0,120,0.0,0.0
3212,61.0,0,120,0.0,0.0
3213,56.0,0,120,0.0,0.0
3214,68.0,120,120,0.0,0.0
3215,85.0,0,120,0.0,0.0
3216,87.0,120,120,0.0,0.0
3217,61.0,0,120,0.0,0.0
3218,65.0,0,120,0.0,0.0
3219,68.0,0,120,0.0,0.0
3220,56.0,120,120,0.0,0.0
3221,89.0,0,120,0.0,0.0
3222,85.0,120,120,0.0,0.0
3223,65.0,0,120,0.0,0.0
3224,61.0,0,120,0.0,0.0
3225,49.0,120,120,0.0,0.0
3226,61.0,0,120,0.0,0.0
3227,65.0,0,120,0.0,0.0
3228,80.0,120,120,0.0,0.0
3229,68.0,0,120,0.0,0.0
3230,56.0,0,120,0.0,0.0
3231,85.0,120,120,0.0,0.0
3232,65.0,0,120,0.0,0.0
3233,61.0,120,120,0.0,0.0
3234,89.0,0,120,0.0,0.0
3235,92.0,120,120,0.0,0.0
3236,68.0,0,240,0.0,0.0
3237,94.0,120,120,0.0,0.0
3238,92.0,120,120,0.0,0.0
3239,73.0,120,240,0.0,0.0
3240,90.0,0,120,0.0,0.0
3241,89.0,120,120,0.0,0.0
3242,77.0,0,240,0.0,0.0
3243,90.0,120,120,0.0,0.0
3244,92.0,120,120,0.0,0.0
3245,80.0,120,240,0.0,0.0
3246,90.0,0,120,0.0,0.0
3247,89.0,120,120,0.0,0.0
3248,90.0,0,120,0.0,0.0
3249,85.0,120,15,0.0,0.0
3250,92.0,120,120,0.0,0.0
3251,89.0,0,120,0.0,0.0
3252,85.0,240,15,0.0,0.0
3253,82.0,0,720,0.0,0.0
3254,90.0,120,120,0.0,0.0
3255,92.0,120,120,0.0,0.0
3256,90.0,120,120,0.0,0.0
3257,92.0,120,120,0.0,0.0
3258,90.0,120,120,0.0,0.0
3259,84.0,0,240,0.0,0.0
3260,80.0,240,240,0.0,0.0
3261,89.0,120,120,0.0,0.0
3262,90.0,0,120,0.0,0.0
3263,79.0,0,480,0.0,0.0
3264,82.0,0,480,0.0,0.0
3265,88.0,120,120,0.0,0.0
3266,89.0,120,120,0.0,0.0
3267,88.0,240,120,0.0,0.0
3268,84.0,0,480,0.0,0.0
3269,80.0,0,480,0.0,0.0
3270,89.0,120,120,0.0,0.0
3271,91.0,120,120,0.0,0.0
3272,89.0,240,120,0.0,0.0
3273,85.0,120,720,0.0,0.0
3274,82.0,0,720,0.0,0.0
3275,90.0,120,120,0.0,0.0
3276,92.0,120,120,0.0,0.0
3277,90.0,120,120,0.0,0.0
3278,92.0,120,120,0.0,0.0
3279,90.0,0,120,0.0,0.0
3280,80.0,240,240,0.0,0.0
3281,84.0,0,240,0.0,0.0
3282,89.0,120,120,0.0,0.0
3283,90.0,0,120,0.0,0.0
3284,79.0,240,480,0.0,0.0
3285,82.0,0,480,0.0,0.0
3286,88.0,120,120,0.0,0.0
3287,89.0,120,120,0.0,0.0
3288,88.0,0,120,0.0,0.0
3289,80.0,0,480,0.0,0.0
3290,84.0,0,480,0.0,0.0
3291,89.0,120,120,0.0,0.0
3292,91.0,120,120,0.0,0.0
3293,89.0,240,120,0.0,0.0
3294,85.0,0,720,0.0,0.0
3295,82.0,0,720,0.0,0.0
3296,90.0,120,120,0.0,0.0
3297,92.0,120,120,0.0,0.0
3298,90.0,120,120,0.0,0.0
3299,92.0,120,120,0.0,0.0
3300,90.0,120,120,0.0,0.0
3301,84.0,0,240,0.0,0.0
3302,80.0,0,240,0.0,0.0
3303,89.0,120,120,0.0,0.0
3304,91.0,240,120,0.0,0.0
3305,79.0,240,480,0.0,0.0
3306,82.0,0,480,0.0,0.0
3307,88.0,120,120,0.0,0.0
3308,89.0,120,120,0.0,0.0
3309,88.0,0,120,0.0,0.0
3310,80.0,0,480,0.0,0.0
3311,77.0,0,480,0.0,0.0
3312,85.0,120,120,0.0,0.0
3313,87.0,120,120,0.0,0.0
3314,85.0,240,120,0.0,0.0
3315,76.0,0,480,0.0,0.0
3316,79.0,240,480,0.0,0.0
3317,84.0,120,120,0.0,0.0
3318,85.0,120,120,0.0,0.0
3319,84.0,0,120,0.0,0.0
3320,74.0,0,480,0.0,0.0
3321,83.0,120,120,0.0,0.0
3322,84.0,120,120,0.0,0.0
3323,83.0,0,120,0.0,0.0
3324,73.0,240,480,0.0,0.0
3325,77.0,240,15,0.0,0.0
3326,82.0,120,120,0.0,0.0
3327,84.0,120,120,0.0,0.0
3328,82.0,0,120,0.0,0.0
3329,77.0,0,480,0.0,0.0
3330,72.0,240,480,0.0,0.0
3331,80.0,120,120,0.0,0.0
3332,82.0,120,120,0.0,0.0
3333,80.0,0,120,0.0,0.0
3334,71.0,0,960,0.0,0.0
3335,80.0,120,120,0.0,0.0
3336,82.0,120,120,0.0,0.0
3337,80.0,240,120,0.0,0.0
3338,74.0,0,480,0.0,0.0
3339,79.0,120,120,0.0,0.0
3340,80.0,120,120,0.0,0.0
3341,79.0,240,120,0.0,0.0
3342,68.0,240,480,0.0,0.0
3343,60.0,0,960,0.0,0.0
3344,72.0,240,960,0.0,0.0
3345,77.0,120,120,0.0,0.0
3346,79.0,120,120,0.0,0.0
3347,77.0,0,120,0.0,0.0
3348,67.0,0,480,0.0,0.0
3349,76.0,120,120,0.0,0.0
3350,77.0,120,120,0.0,0.0
3351,76.0,0,120,0.0,0.0
3352,46.0,120,720,0.0,0.0
3353,54.0,0,720,0.0,0.0
3354,49.0,0,720,0.0,0.0
3355,61.0,120,120,0.0,0.0
3356,73.0,120,120,0.0,0.0
3357,61.0,120,120,0.0,0.0
3358,73.0,120,120,0.0,0.0
3359,61.0,0,120,0.0,0.0
3360,73.0,120,120,0.0,0.0
3361,44.0,0,240,0.0,0.0
3362,48.0,0,240,0.0,0.0
3363,53.0,0,240,0.0,0.0
3364,61.0,240,120,0.0,0.0
3365,52.0,0,480,0.0,0.0
3366,46.0,0,480,0.0,0.0
3367,43.0,120,480,0.0,0.0
3368,61.0,120,120,0.0,0.0
3369,73.0,120,120,0.0,0.0
3370,72.0,0,120,0.0,0.0
3371,48.0,0,480,0.0,0.0
3372,44.0,240,480,0.0,0.0
3373,53.0,0,480,0.0,0.0
3374,70.0,120,120,0.0,0.0
3375,68.0,120,120,0.0,0.0
3376,67.0,120,120,0.0,0.0
3377,65.0,0,120,0.0,0.0
3378,54.0,0,720,0.0,0.0
3379,46.0,0,720,0.0,0.0
3380,49.0,0,720,0.0,0.0
3381,73.0,120,120,0.0,0.0
3382,85.0,120,120,0.0,0.0
3383,73.0,120,120,0.0,0.0
3384,85.0,120,120,0.0,0.0
3385,73.0,120,120,0.0,0.0
3386,48.0,0,240,0.0,0.0
3387,53.0,240,240,0.0,0.0
3388,44.0,0,240,0.0,0.0
3389,85.0,120,120,0.0,0.0
3390,73.0,0,120,0.0,0.0
3391,43.0,120,480,0.0,0.0
3392,46.0,0,480,0.0,0.0
3393,52.0,0,480,0.0,0.0
3394,73.0,120,120,0.0,0.0
3395,85.0,120,120,0.0,0.0
3396,84.0,0,120,0.0,0.0
3397,82.0,120,120,0.0,0.0
3398,53.0,0,480,0.0,0.0
3399,48.0,0,480,0.0,0.0
3400,44.0,240,480,0.0,0.0
3401,80.0,120,120,0.0,0.0
3402,79.0,120,120,0.0,0.0
3403,77.0,0,120,0.0,0.0
3404,46.0,120,720,0.0,0.0
3405,54.0,0,720,0.0,0.0
3406,49.0,0,720,0.0,0.0
3407,61.0,120,120,0.0,0.0
3408,73.0,120,120,0.0,0.0
3409,61.0,120,120,0.0,0.0
3410,73.0,120,120,0.0,0.0
3411,61.0,0,120,0.0,0.0
3412,73.0,120,120,0.0,0.0
3413,53.0,240,240,0.0,0.0
3414,44.0,0,240,0.0,0.0
3415,48.0,0,240,0.0,0.0
3416,61.0,0,120,0.0,0.0
3417,43.0,0,480,0.0,0.0
3418,52.0,0,480,0.0,0.0
3419,46.0,240,480,0.0,0.0
3420,73.0,120,120,0.0,0.0
3421,61.0,120,120,0.0,0.0
3422,73.0,0,120,0.0,0.0
3423,49.0,0,480,0.0,0.0
3424,41.0,240,480,0.0,0.0
3425,44.0,0,480,0.0,0.0
3426,85.0,120,120,0.0,0.0
3427,73.0,120,120,0.0,0.0
3428,85.0,0,120,0.0,0.0
3429,43.0,0,480,0.0,0.0
3430,48.0,0,480,0.0,0.0
3431,40.0,240,480,0.0,0.0
3432,84.0,120,120,0.0,0.0
3433,72.0,120,120,0.0,0.0
3434,84.0,0,120,0.0,0.0
3435,44.0,0,480,0.0,0.0
3436,38.0,240,480,0.0,0.0
3437,41.0,0,480,0.0,0.0
3438,47.0,0,480,0.0,0.0
3439,83.0,120,120,0.0,0.0
3440,71.0,120,120,0.0,0.0
3441,83.0,0,120,0.0,0.0
3442,46.0,0,480,0.0,0.0
3443,43.0,0,480,0.0,0.0
3444,40.0,0,480,0.0,0.0
3445,82.0,120,120,0.0,0.0
3446,70.0,120,120,0.0,0.0
3447,82.0,240,120,0.0,0.0
3448,41.0,0,480,0.0,0.0
3449,44.0,0,480,0.0,0.0
3450,80.0,120,120,0.0,0.0
3451,68.0,120,120,0.0,0.0
3452,72.0,0,120,0.0,0.0
3453,80.0,240,120,0.0,0.0
3454,44.0,0,480,0.0,0.0
3455,35.0,0,960,0.0,0.0
3456,80.0,120,120,0.0,0.0
3457,68.0,0,120,0.0,0.0
3458,74.0,120,120,0.0,0.0
3459,80.0,240,120,0.0,0.0
3460,42.0,0,480,0.0,0.0
3461,79.0,120,120,0.0,0.0
3462,74.0,120,120,0.0,0.0
3463,67.0,0,120,0.0,0.0
3464,79.0,240,120,0.0,0.0
3465,41.0,0,480,0.0,0.0
3466,77.0,120,120,0.0,0.0
3467,68.0,120,120,0.0,0.0
3468,65.0,0,120,0.0,0.0
3469,77.0,240,120,0.0,0.0
3470,40.0,120,480,0.0,0.0
3471,76.0,120,120,0.0,0.0
3472,67.0,120,120,0.0,0.0
3473,64.0,0,120,0.0,0.0
3474,76.0,0,120,0.0,0.0
3475,65.0,0,120,0.0,0.0
3476,41.0,120,240,0.0,0.0
3477,36.0,0,15,0.0,0.0
3478,29.0,0,240,0.0,0.0
3479,32.0,0,240,0.0,0.0
3480,68.0,120,120,0.0,0.0
3481,77.0,0,120,0.0,0.0
3482,60.0,0,120,0.0,0.0
3483,65.0,120,120,0.0,0.0
3484,68.0,120,120,0.0,0.0
3485,72.0,120,120,0.0,0.0
3486,48.0,0,120,0.0,0.0
3487,73.0,120,120,0.0,0.0
3488,53.0,120,120,0.0,0.0
3489,72.0,0,120,0.0,0.0
3490,70.0,0,120,0.0,0.0
3491,56.0,120,120,0.0,0.0
3492,68.0,120,120,0.0,0.0
3493,60.0,0,120,0.0,0.0
3494,61.0,120,120,0.0,0.0
3495,70.0,0,120,0.0,0.0
3496,68.0,0,120,0.0,0.0
3497,60.0,120,120,0.0,0.0
3498,58.0,0,120,0.0,0.0
3499,67.0,120,120,0.0,0.0
3500,56.0,120,120,0.0,0.0
3501,65.0,0,120,0.0,0.0
3502,63.0,0,120,0.0,0.0
3503,55.0,120,120,0.0,0.0
3504,61.0,120,120,0.0,0.0
3505,53.0,0,120,0.0,0.0
3506,60.0,0,120,0.0,0.0
3507,51.0,120,120,0.0,0.0
3508,49.0,0,120,0.0,0.0
3509,58.0,120,120,0.0,0.0
3510,48.0,0,120,0.0,0.0
3511,56.0,120,120,0.0,0.0
3512,46.0,0,120,0.0,0.0
3513,54.0,120,120,0.0,0.0
3514,53.0,120,120,0.0,0.0
3515,44.0,0,120,0.0,0.0
3516,43.0,120,120,0.0,0.0
3517,44.0,120,120,0.0,0.0
3518,60.0,0,180,0.0,0.0
3519,52.0,0,15,0.0,0.0
3520,48.0,60,180,0.0,0.0
3521,54.0,0,180,0.0,0.0
3522,46.0,60,120,0.0,0.0
3523,44.0,120,120,0.0,0.0
3524,48.0,0,180,0.0,0.0
3525,52.0,0,180,0.0,0.0
3526,58.0,60,180,0.0,0.0
3527,60.0,0,180,0.0,0.0
3528,43.0,60,120,0.0,0.0
3529,41.0,120,120,0.0,0.0
3530,48.0,0,180,0.0,0.0
3531,52.0,60,180,0.0,0.0
3532,58.0,0,180,0.0,0.0
3533,40.0,60,120,0.0,0.0
3534,60.0,0,180,0.0,0.0
3535,38.0,120,120,0.0,0.0
3536,48.0,0,180,0.0,0.0
3537,58.0,0,180,0.0,0.0
3538,60.0,60,180,0.0,0.0
3539,36.0,60,120,0.0,0.0
3540,52.0,0,180,0.0,0.0
3541,34.0,120,120,0.0,0.0
3542,48.0,60,180,0.0,0.0
3543,52.0,0,180,0.0,0.0
3544,58.0,0,180,0.0,0.0
3545,60.0,0,180,0.0,0.0
3546,32.0,60,120,0.0,0.0
3547,31.0,120,120,0.0,0.0
3548,29.0,0,240,0.0,0.0
3549,32.0,0,240,0.0,0.0
3550,41.0,0,240,0.0,0.0
3551,36.0,0,240,0.0,0.0
3552,56.0,120,120,0.0,0.0
3553,53.0,0,120,0.0,0.0
3554,60.0,0,120,0.0,0.0
3555,48.0,0,120,0.0,0.0
3556,72.0,120,120,0.0,0.0
3557,77.0,120,120,0.0,0.0
3558,80.0,120,120,0.0,0.0
3559,84.0,120,120,0.0,0.0
3560,85.0,120,120,0.0,0.0
3561,60.0,0,120,0.0,0.0
3562,84.0,0,120,0.0,0.0
3563,65.0,120,120,0.0,0.0
3564,82.0,120,120,0.0,0.0
3565,68.0,0,120,0.0,0.0
3566,72.0,0,120,0.0,0.0
3567,80.0,120,120,0.0,0.0
3568,82.0,0,120,0.0,0.0
3569,73.0,120,120,0.0,0.0
3570,80.0,120,120,0.0,0.0
3571,72.0,0,120,0.0,0.0
3572,70.0,0,120,0.0,0.0
3573,79.0,120,120,0.0,0.0
3574,68.0,0,120,0.0,0.0
3575,77.0,120,120,0.0,0.0
3576,67.0,0,120,0.0,0.0
3577,75.0,120,120,0.0,0.0
3578,73.0,120,120,0.0,0.0
3579,65.0,0,120,0.0,0.0
3580,63.0,120,120,0.0,0.0
3581,72.0,0,120,0.0,0.0
3582,70.0,0,120,0.0,0.0
3583,61.0,120,120,0.0,0.0
3584,68.0,120,120,0.0,0.0
3585,60.0,0,120,0.0,0.0
3586,58.0,120,120,0.0,0.0
3587,67.0,0,120,0.0,0.0
3588,65.0,120,120,0.0,0.0
3589,56.0,0,120,0.0,0.0
3590,55.0,120,120,0.0,0.0
3591,64.0,120,240,0.0,0.0
3592,56.0,0,120,0.0,0.0
3593,58.0,60,120,0.0,0.0
3594,72.0,0,180,0.0,0.0
3595,67.0,60,180,0.0,0.0
3596,64.0,0,180,0.0,0.0
3597,60.0,0,180,0.0,0.0
3598,56.0,120,120,0.0,0.0
3599,64.0,0,180,0.0,0.0
3600,70.0,60,180,0.0,0.0
3601,72.0,0,180,0.0,0.0
3602,55.0,60,120,0.0,0.0
3603,60.0,0,180,0.0,0.0
3604,53.0,120,120,0.0,0.0
3605,52.0,60,120,0.0,0.0
3606,72.0,0,180,0.0,0.0
3607,70.0,60,180,0.0,0.0
3608,64.0,0,180,0.0,0.0
3609,60.0,0,180,0.0,0.0
3610,50.0,120,120,0.0,0.0
3611,48.0,60,120,0.0,0.0
3612,72.0,0,180,0.0,0.0
3613,70.0,60,180,0.0,0.0
3614,64.0,0,180,0.0,0.0
3615,60.0,0,180,0.0,0.0
3616,46.0,120,120,0.0,0.0
3617,44.0,60,120,0.0,0.0
3618,70.0,0,180,0.0,0.0
3619,64.0,60,180,0.0,0.0
3620,72.0,0,180,0.0,0.0
3621,60.0,0,180,0.0,0.0
3622,43.0,120,120,0.0,0.0
3623,60.0,0,240,0.0,0.0
3624,65.0,0,240,0.0,0.0
3625,68.0,0,240,0.0,0.0
3626,72.0,0,240,0.0,0.0
3627,41.0,120,120,0.0,0.0
3628,43.0,120,120,0.0,0.0
3629,44.0,120,120,0.0,0.0
3630,46.0,120,120,0.0,0.0
3631,48.0,120,120,0.0,0.0
3632,50.0,120,120,0.0,0.0
3633,84.0,0,180,0.0,0.0
3634,80.0,0,180,0.0,0.0
3635,77.0,0,180,0.0,0.0
3636,72.0,60,180,0.0,0.0
3637,52.0,60,120,0.0,0.0
3638,53.0,120,120,0.0,0.0
3639,84.0,0,180,0.0,0.0
3640,82.0,60,180,0.0,0.0
3641,76.0,0,180,0.0,0.0
3642,72.0,0,180,0.0,0.0
3643,55.0,60,120,0.0,0.0
3644,53.0,120,120,0.0,0.0
3645,52.0,60,120,0.0,0.0
3646,82.0,0,180,0.0,0.0
3647,72.0,0,180,0.0,0.0
3648,84.0,0,180,0.0,0.0
3649,76.0,60,180,0.0,0.0
3650,50.0,120,120,0.0,0.0
3651,82.0,60,180,0.0,0.0
3652,76.0,0,180,0.0,0.0
3653,48.0,60,120,0.0,0.0
3654,72.0,0,180,0.0,0.0
3655,84.0,0,180,0.0,0.0
3656,46.0,120,120,0.0,0.0
3657,76.0,0,180,0.0,0.0
3658,44.0,60,120,0.0,0.0
3659,72.0,60,180,0.0,0.0
3660,84.0,0,180,0.0,0.0
3661,82.0,0,180,0.0,0.0
3662,43.0,120,120,0.0,0.0
3663,80.0,0,180,0.0,0.0
3664,77.0,0,180,0.0,0.0
3665,72.0,0,180,0.0,0.0
3666,41.0,60,120,0.0,0.0
3667,84.0,60,180,0.0,0.0
3668,43.0,120,120,0.0,0.0
3669,44.0,120,120,0.0,0.0
3670,46.0,120,120,0.0,0.0
3671,48.0,120,120,0.0,0.0
3672,50.0,120,120,0.0,0.0
3673,72.0,60,180,0.0,0.0
3674,68.0,0,180,0.0,0.0
3675,65.0,0,180,0.0,0.0
3676,60.0,0,180,0.0,0.0
3677,52.0,60,120,0.0,0.0
3678,53.0,120,120,0.0,0.0
3679,64.0,0,180,0.0,0.0
3680,70.0,0,180,0.0,0.0
3681,72.0,60,180,0.0,0.0
3682,55.0,60,120,0.0,0.0
3683,60.0,0,180,0.0,0.0
3684,53.0,120,120,0.0,0.0
3685,52.0,60,120,0.0,0.0
3686,70.0,0,180,0.0,0.0
3687,64.0,0,180,0.0,0.0
3688,60.0,0,180,0.0,0.0
3689,72.0,60,180,0.0,0.0
3690,50.0,120,120,0.0,0.0
3691,70.0,60,180,0.0,0.0
3692,64.0,0,180,0.0,0.0
3693,72.0,0,180,0.0,0.0
3694,60.0,0,180,0.0,0.0
3695,48.0,60,120,0.0,0.0
3696,46.0,120,120,0.0,0.0
3697,44.0,60,120,0.0,0.0
3698,70.0,60,180,0.0,0.0
3699,64.0,0,180,0.0,0.0
3700,60.0,0,180,0.0,0.0
3701,72.0,0,180,0.0,0.0
3702,43.0,120,120,0.0,0.0
3703,72.0,60,180,0.0,0.0
3704,68.0,0,180,0.0,0.0
3705,65.0,0,180,0.0,0.0
3706,60.0,0,180,0.0,0.0
3707,41.0,60,120,0.0,0.0
3708,40.0,120,120,0.0,0.0
3709,38.0,60,120,0.0,0.0
3710,72.0,0,180,0.0,0.0
3711,77.0,60,180,0.0,0.0
3712,80.0,0,180,0.0,0.0
3713,84.0,0,180,0.0,0.0
3714,36.0,120,120,0.0,0.0
3715,84.0,0,180,0.0,0.0
3716,80.0,60,180,0.0,0.0
3717,72.0,0,180,0.0,0.0
3718,34.0,60,120,0.0,0.0
3719,77.0,0,180,0.0,0.0
3720,32.0,120,120,0.0,0.0
3721,84.0,60,180,0.0,0.0
3722,72.0,0,180,0.0,0.0
3723,31.0,60,120,0.0,0.0
3724,80.0,0,180,0.0,0.0
3725,77.0,0,180,0.0,0.0
3726,29.0,120,120,0.0,0.0
3727,82.0,0,180,0.0,0.0
3728,84.0,60,180,0.0,0.0
3729,76.0,0,180,0.0,0.0
3730,72.0,0,180,0.0,0.0
3731,31.0,60,120,0.0,0.0
3732,32.0,120,120,0.0,0.0
3733,76.0,0,180,0.0,0.0
3734,34.0,60,120,0.0,0.0
3735,84.0,0,180,0.0,0.0
3736,72.0,0,180,0.0,0.0
3737,82.0,60,180,0.0,0.0
3738,36.0,120,120,0.0,0.0
3739,84.0,60,180,0.0,0.0
3740,82.0,0,180,0.0,0.0
3741,76.0,0,180,0.0,0.0
3742,72.0,0,180,0.0,0.0
3743,38.0,60,120,0.0,0.0
3744,40.0,120,120,0.0,0.0
3745,84.0,0,180,0.0,0.0
3746,82.0,60,180,0.0,0.0
3747,76.0,0,180,0.0,0.0
3748,72.0,0,180,0.0,0.0
3749,41.0,60,120,0.0,0.0
3750,43.0,120,120,0.0,0.0
3751,72.0,0,120,0.0,0.0
3752,30.0,0,120,0.0,0.0
3753,42.0,0,120,0.0,0.0
3754,75.0,0,120,0.0,0.0
3755,81.0,120,120,0.0,0.0
3756,84.0,0,120,0.0,0.0
3757,57.0,120,120,0.0,0.0
3758,60.0,120,120,0.0,0.0
3759,63.0,120,120,0.0,0.0
3760,66.0,120,120,0.0,0.0
3761,69.0,120,120,0.0,0.0
3762,72.0,120,120,0.0,0.0
3763,75.0,120,120,0.0,0.0
3764,78.0,120,120,0.0,0.0
3765,81.0,120,120,0.0,0.0
3766,84.0,120,120,0.0,0.0
3767,87.0,120,120,0.0,0.0
3768,90.0,120,120,0.0,0.0
3769,87.0,120,120,0.0,0.0
3770,84.0,120,120,0.0,0.0
3771,81.0,120,120,0.0,0.0
3772,78.0,120,120,0.0,0.0
3773,75.0,120,120,0.0,0.0
3774,72.0,120,120,0.0,0.0
3775,69.0,120,120,0.0,0.0
3776,66.0,120,120,0.0,0.0
3777,63.0,120,120,0.0,0.0
3778,60.0,120,120,0.0,0.0
3779,57.0,120,120,0.0,0.0
3780,54.0,120,120,0.0,0.0
3781,51.0,120,120,0.0,0.0
3782,48.0,120,120,0.0,0.0
3783,45.0,120,120,0.0,0.0
3784,42.0,120,120,0.0,0.0
3785,39.0,120,120,0.0,0.0
3786,36.0,120,120,0.0,0.0
3787,33.0,120,120,0.0,0.0
3788,30.0,120,120,0.0,0.0
3789,39.0,120,120,0.0,0.0
3790,36.0,120,120,0.0,0.0
3791,33.0,120,120,0.0,0.0
3792,30.0,120,120,0.0,0.0
3793,39.0,120,120,0.0,0.0
3794,36.0,120,120,0.0,0.0
3795,33.0,120,120,0.0,0.0
3796,30.0,120,120,0.0,0.0
3797,39.0,120,120,0.0,0.0
3798,36.0,120,120,0.0,0.0
3799,33.0,120,120,0.0,0.0
3800,30.0,120,120,0.0,0.0
3801,39.0,120,120,0.0,0.0
3802,36.0,120,120,0.0,0.0
3803,33.0,240,120,0.0,0.0
3804,29.0,0,480,0.0,0.0
3805,57.0,120,120,0.0,0.0
3806,60.0,120,120,0.0,0.0
3807,63.0,120,120,0.0,0.0
3808,66.0,120,120,0.0,0.0
3809,68.0,120,120,0.0,0.0
3810,66.0,120,120,0.0,0.0
3811,65.0,120,120,0.0,0.0
3812,63.0,120,120,0.0,0.0
3813,65.0,120,120,0.0,0.0
3814,63.0,120,120,0.0,0.0
3815,61.0,120,120,0.0,0.0
3816,60.0,120,120,0.0,0.0
3817,61.0,120,120,0.0,0.0
3818,63.0,120,120,0.0,0.0
3819,60.0,0,120,0.0,0.0
3820,41.0,240,120,0.0,0.0
3821,29.0,120,480,0.0,0.0
3822,57.0,120,120,0.0,0.0
3823,60.0,120,120,0.0,0.0
3824,63.0,0,120,0.0,0.0
3825,66.0,120,120,0.0,0.0
3826,68.0,120,120,0.0,0.0
3827,66.0,120,120,0.0,0.0
3828,65.0,120,120,0.0,0.0
3829,63.0,120,120,0.0,0.0
3830,65.0,120,120,0.0,0.0
3831,63.0,120,120,0.0,0.0
3832,61.0,120,120,0.0,0.0
3833,60.0,120,120,0.0,0.0
3834,61.0,120,120,0.0,0.0
3835,63.0,120,120,0.0,0.0
3836,60.0,0,120,0.0,0.0
3837,41.0,240,120,0.0,0.0
3838,29.0,0,480,0.0,0.0
3839,57.0,120,120,0.0,0.0
3840,60.0,120,120,0.0,0.0
3841,63.0,120,120,0.0,0.0
3842,66.0,120,120,0.0,0.0
3843,68.0,120,120,0.0,0.0
3844,57.0,120,120,0.0,0.0
3845,66.0,0,120,0.0,0.0
3846,65.0,120,120,0.0,0.0
3847,58.0,0,120,0.0,0.0
3848,63.0,0,240,0.0,0.0
3849,60.0,120,120,0.0,0.0
3850,61.0,120,120,0.0,0.0
3851,60.0,0,120,0.0,0.0
3852,63.0,120,120,0.0,0.0
3853,58.0,120,120,0.0,0.0
3854,65.0,0,120,0.0,0.0
3855,57.0,0,240,0.0,0.0
3856,66.0,120,120,0.0,0.0
3857,68.0,120,120,0.0,0.0
3858,66.0,120,120,0.0,0.0
3859,57.0,0,120,0.0,0.0
3860,58.0,0,120,0.0,0.0
3861,65.0,120,120,0.0,0.0
3862,60.0,120,120,0.0,0.0
3863,63.0,0,240,0.0,0.0
3864,61.0,120,120,0.0,0.0
3865,60.0,120,120,0.0,0.0
3866,63.0,0,120,0.0,0.0
3867,58.0,120,120,0.0,0.0
3868,65.0,0,120,0.0,0.0
3869,66.0,120,120,0.0,0.0
3870,68.0,0,120,0.0,0.0
3871,66.0,0,120,0.0,0.0
3872,57.0,120,15,0.0,0.0
3873,58.0,0,120,0.0,0.0
3874,65.0,120,120,0.0,0.0
3875,60.0,120,120,0.0,0.0
3876,63.0,0,240,0.0,0.0
3877,61.0,120,120,0.0,0.0
3878,66.0,0,240,0.0,0.0
3879,78.0,120,240,0.0,0.0
3880,60.0,120,120,0.0,0.0
3881,58.0,0,120,0.0,0.0
3882,65.0,0,240,0.0,0.0
3883,77.0,0,240,0.0,0.0
3884,57.0,120,120,0.0,0.0
3885,54.0,120,120,0.0,0.0
3886,69.0,0,240,0.0,0.0
3887,81.0,0,240,0.0,0.0
3888,53.0,120,120,0.0,0.0
3889,51.0,120,120,0.0,0.0
3890,82.0,0,120,0.0,0.0
3891,70.0,120,120,0.0,0.0
3892,49.0,0,1920,0.0,0.0
3893,65.0,0,120,0.0,0.0
3894,53.0,120,120,0.0,0.0
3895,70.0,120,120,0.0,0.0
3896,58.0,0,120,0.0,0.0
3897,73.0,0,120,0.0,0.0
3898,53.0,120,120,0.0,0.0
3899,58.0,0,120,0.0,0.0
3900,77.0,120,120,0.0,0.0
3901,53.0,120,120,0.0,0.0
3902,78.0,0,120,0.0,0.0
3903,58.0,0,120,0.0,0.0
3904,77.0,120,120,0.0,0.0
3905,53.0,120,120,0.0,0.0
3906,75.0,0,120,0.0,0.0
3907,58.0,120,120,0.0,0.0
3908,73.0,0,120,0.0,0.0
3909,75.0,120,120,0.0,0.0
3910,53.0,0,120,0.0,0.0
3911,58.0,0,120,0.0,0.0
3912,73.0,120,120,0.0,0.0
3913,53.0,0,120,0.0,0.0
3914,72.0,120,120,0.0,0.0
3915,58.0,0,120,0.0,0.0
3916,70.0,120,120,0.0,0.0
3917,72.0,120,120,0.0,0.0
3918,53.0,0,120,0.0,0.0
3919,58.0,120,120,0.0,0.0
3920,73.0,0,120,0.0,0.0
3921,70.0,0,120,0.0,0.0
3922,53.0,240,120,0.0,0.0
3923,49.0,0,1920,0.0,0.0
3924,53.0,120,120,0.0,0.0
3925,65.0,0,120,0.0,0.0
3926,70.0,0,120,0.0,0.0
3927,58.0,120,120,0.0,0.0
3928,73.0,0,120,0.0,0.0
3929,53.0,120,120,0.0,0.0
3930,77.0,0,120,0.0,0.0
3931,58.0,120,120,0.0,0.0
3932,53.0,0,120,0.0,0.0
3933,78.0,120,120,0.0,0.0
3934,58.0,120,120,0.0,0.0
3935,77.0,0,120,0.0,0.0
3936,75.0,0,120,0.0,0.0
3937,53.0,120,120,0.0,0.0
3938,58.0,0,120,0.0,0.0
3939,73.0,120,120,0.0,0.0
3940,53.0,120,120,0.0,0.0
3941,75.0,0,120,0.0,0.0
3942,73.0,0,120,0.0,0.0
3943,58.0,120,120,0.0,0.0
3944,53.0,120,120,0.0,0.0
3945,72.0,0,120,0.0,0.0
3946,70.0,120,120,0.0,0.0
3947,58.0,0,120,0.0,0.0
3948,53.0,0,120,0.0,0.0
3949,72.0,120,120,0.0,0.0
3950,58.0,120,120,0.0,0.0
3951,73.0,0,120,0.0,0.0
3952,70.0,240,120,0.0,0.0
3953,53.0,0,120,0.0,0.0
3954,51.0,120,1920,0.0,0.0
3955,66.0,0,120,0.0,0.0
3956,54.0,120,120,0.0,0.0
3957,59.0,0,120,0.0,0.0
3958,71.0,120,120,0.0,0.0
3959,54.0,120,120,0.0,0.0
3960,75.0,0,120,0.0,0.0
3961,78.0,120,120,0.0,0.0
3962,59.0,0,120,0.0,0.0
3963,54.0,0,120,0.0,0.0
3964,80.0,120,120,0.0,0.0
3965,59.0,0,120,0.0,0.0
3966,78.0,120,120,0.0,0.0
3967,77.0,120,120,0.0,0.0
3968,54.0,0,120,0.0,0.0
3969,59.0,120,120,0.0,0.0
3970,75.0,0,120,0.0,0.0
3971,77.0,120,120,0.0,0.0
3972,54.0,0,120,0.0,0.0
3973,59.0,120,120,0.0,0.0
3974,75.0,0,120,0.0,0.0
3975,73.0,0,120,0.0,0.0
3976,54.0,120,120,0.0,0.0
3977,59.0,0,120,0.0,0.0
3978,71.0,120,120,0.0,0.0
3979,73.0,120,120,0.0,0.0
3980,54.0,0,120,0.0,0.0
3981,59.0,120,120,0.0,0.0
3982,75.0,0,120,0.0,0.0
3983,71.0,0,120,0.0,0.0
3984,54.0,0,120,0.0,0.0
3985,70.0,120,120,0.0,0.0
3986,53.0,120,960,0.0,0.0
3987,72.0,0,120,0.0,0.0
3988,58.0,120,120,0.0,0.0
3989,61.0,120,120,0.0,0.0
3990,70.0,0,120,0.0,0.0
3991,69.0,120,120,0.0,0.0
3992,58.0,0,120,0.0,0.0
3993,61.0,120,120,0.0,0.0
3994,70.0,0,120,0.0,0.0
3995,72.0,120,120,0.0,0.0
3996,58.0,0,120,0.0,0.0
3997,61.0,0,120,0.0,0.0
3998,73.0,120,120,0.0,0.0
3999,58.0,0,120,0.0,0.0
4000,70.0,0,120,0.0,0.0
4001,51.0,0,960,0.0,0.0
4002,69.0,120,120,0.0,0.0
4003,70.0,0,120,0.0,0.0
4004,53.0,120,120,0.0,0.0
4005,69.0,120,120,0.0,0.0
4006,60.0,0,120,0.0,0.0
4007,67.0,0,120,0.0,0.0
4008,53.0,120,120,0.0,0.0
4009,69.0,0,120,0.0,0.0
4010,60.0,120,120,0.0,0.0
4011,70.0,0,120,0.0,0.0
4012,53.0,120,120,0.0,0.0
4013,72.0,0,120,0.0,0.0
4014,60.0,120,120,0.0,0.0
4015,69.0,0,120,0.0,0.0
4016,53.0,120,120,0.0,0.0
4017,49.0,120,120,0.0,0.0
4018,65.0,0,120,0.0,0.0
4019,70.0,120,15,0.0,0.0
4020,73.0,120,120,0.0,0.0
4021,58.0,120,480,0.0,0.0
4022,77.0,120,120,0.0,0.0
4023,78.0,120,120,0.0,0.0
4024,61.0,0,120,0.0,0.0
4025,77.0,0,120,0.0,0.0
4026,65.0,120,120,0.0,0.0
4027,61.0,0,120,0.0,0.0
4028,75.0,0,120,0.0,0.0
4029,73.0,120,120,0.0,0.0
4030,57.0,0,480,0.0,0.0
4031,75.0,0,120,0.0,0.0
4032,61.0,120,120,0.0,0.0
4033,65.0,120,120,0.0,0.0
4034,73.0,0,120,0.0,0.0
4035,72.0,120,120,0.0,0.0
4036,61.0,0,120,0.0,0.0
4037,82.0,0,240,0.0,0.0
4038,58.0,0,480,0.0,0.0
4039,70.0,120,120,0.0,0.0
4040,72.0,120,120,0.0,0.0
4041,61.0,0,120,0.0,0.0
4042,65.0,120,120,0.0,0.0
4043,73.0,0,120,0.0,0.0
4044,70.0,120,120,0.0,0.0
4045,61.0,0,120,0.0,0.0
4046,81.0,0,240,0.0,0.0
4047,49.0,120,120,0.0,0.0
4048,65.0,120,120,0.0,0.0
4049,70.0,120,120,0.0,0.0
4050,73.0,120,120,0.0,0.0
4051,58.0,0,480,0.0,0.0
4052,77.0,120,120,0.0,0.0
4053,82.0,0,240,0.0,0.0
4054,78.0,120,120,0.0,0.0
4055,61.0,0,120,0.0,0.0
4056,77.0,0,120,0.0,0.0
4057,65.0,120,120,0.0,0.0
4058,61.0,0,120,0.0,0.0
4059,75.0,120,120,0.0,0.0
4060,57.0,120,480,0.0,0.0
4061,73.0,120,120,0.0,0.0
4062,61.0,0,120,0.0,0.0
4063,75.0,120,120,0.0,0.0
4064,65.0,120,120,0.0,0.0
4065,73.0,0,120,0.0,0.0
4066,72.0,0,120,0.0,0.0
4067,61.0,0,120,0.0,0.0
4068,82.0,0,240,0.0,0.0
4069,58.0,120,480,0.0,0.0
4070,70.0,120,120,0.0,0.0
4071,61.0,0,120,0.0,0.0
4072,72.0,120,120,0.0,0.0
4073,65.0,120,120,0.0,0.0
4074,73.0,0,120,0.0,0.0
4075,61.0,0,120,0.0,0.0
4076,70.0,0,120,0.0,0.0
4077,51.0,0,120,0.0,0.0
4078,83.0,0,120,0.0,0.0
4079,71.0,120,15,0.0,0.0
4080,66.0,0,120,0.0,0.0
4081,78.0,0,120,0.0,0.0
4082,63.0,0,120,0.0,0.0
4083,83.0,120,120,0.0,0.0
4084,87.0,0,120,0.0,0.0
4085,71.0,120,120,0.0,0.0
4086,66.0,0,120,0.0,0.0
4087,90.0,120,120,0.0,0.0
4088,63.0,0,120,0.0,0.0
4089,92.0,120,120,0.0,0.0
4090,66.0,0,120,0.0,0.0
4091,71.0,0,120,0.0,0.0
4092,63.0,0,120,0.0,0.0
4093,90.0,120,120,0.0,0.0
4094,71.0,0,120,0.0,0.0
4095,66.0,0,120,0.0,0.0
4096,89.0,120,120,0.0,0.0
4097,63.0,0,120,0.0,0.0
4098,87.0,120,120,0.0,0.0
4099,89.0,120,120,0.0,0.0
4100,71.0,0,120,0.0,0.0
4101,66.0,0,120,0.0,0.0
4102,63.0,120,120,0.0,0.0
4103,87.0,0,120,0.0,0.0
4104,85.0,120,120,0.0,0.0
4105,66.0,0,120,0.0,0.0
4106,71.0,0,120,0.0,0.0
4107,83.0,0,120,0.0,0.0
4108,63.0,120,120,0.0,0.0
4109,85.0,0,120,0.0,0.0
4110,66.0,120,120,0.0,0.0
4111,71.0,0,120,0.0,0.0
4112,63.0,0,120,0.0,0.0
4113,83.0,120,120,0.0,0.0
4114,66.0,0,120,0.0,0.0
4115,71.0,0,120,0.0,0.0
4116,82.0,120,120,0.0,0.0
4117,65.0,120,120,0.0,0.0
4118,81.0,0,120,0.0,0.0
4119,75.0,0,120,0.0,0.0
4120,72.0,0,120,0.0,0.0
4121,84.0,0,120,0.0,0.0
4122,69.0,120,120,0.0,0.0
4123,65.0,120,120,0.0,0.0
4124,87.0,0,120,0.0,0.0
4125,72.0,0,120,0.0,0.0
4126,85.0,0,120,0.0,0.0
4127,69.0,0,120,0.0,0.0
4128,75.0,120,120,0.0,0.0
4129,65.0,0,120,0.0,0.0
4130,84.0,120,120,0.0,0.0
4131,85.0,120,120,0.0,0.0
4132,69.0,0,120,0.0,0.0
4133,72.0,0,120,0.0,0.0
4134,75.0,0,120,0.0,0.0
4135,65.0,0,120,0.0,0.0
4136,84.0,120,120,0.0,0.0
4137,75.0,0,120,0.0,0.0
4138,72.0,120,120,0.0,0.0
4139,82.0,0,120,0.0,0.0
4140,69.0,0,120,0.0,0.0
4141,81.0,0,120,0.0,0.0
4142,65.0,120,120,0.0,0.0
4143,69.0,0,120,0.0,0.0
4144,82.0,120,120,0.0,0.0
4145,81.0,0,120,0.0,0.0
4146,65.0,120,120,0.0,0.0
4147,69.0,120,120,0.0,0.0
4148,78.0,0,120,0.0,0.0
4149,77.0,120,120,0.0,0.0
4150,53.0,0,120,0.0,0.0
4151,75.0,0,120,0.0,0.0
4152,65.0,120,120,0.0,0.0
4153,73.0,120,120,0.0,0.0
4154,53.0,0,120,0.0,0.0
4155,65.0,120,120,0.0,0.0
4156,72.0,0,120,0.0,0.0
4157,70.0,120,120,0.0,0.0
4158,46.0,120,240,0.0,0.0
4159,77.0,0,480,0.0,0.0
4160,61.0,0,120,0.0,0.0
4161,58.0,120,120,0.0,0.0
4162,65.0,120,120,0.0,0.0
4163,58.0,120,120,0.0,0.0
4164,61.0,0,120,0.0,0.0
4165,65.0,120,120,0.0,0.0
4166,77.0,0,120,0.0,0.0
4167,61.0,0,120,0.0,0.0
4168,58.0,120,120,0.0,0.0
4169,65.0,120,120,0.0,0.0
4170,61.0,0,120,0.0,0.0
4171,58.0,0,120,0.0,0.0
4172,77.0,120,120,0.0,0.0
4173,65.0,120,120,0.0,0.0
4174,61.0,120,120,0.0,0.0
4175,58.0,0,120,0.0,0.0
4176,64.0,120,120,0.0,0.0
4177,61.0,0,120,0.0,0.0
4178,58.0,120,120,0.0,0.0
4179,64.0,120,120,0.0,0.0
4180,78.0,0,15,0.0,0.0
4181,58.0,120,120,0.0,0.0
4182,61.0,0,120,0.0,0.0
4183,64.0,120,120,0.0,0.0
4184,78.0,120,120,0.0,0.0
4185,57.0,0,120,0.0,0.0
4186,60.0,0,120,0.0,0.0
4187,64.0,120,120,0.0,0.0
4188,60.0,120,120,0.0,0.0
4189,57.0,0,120,0.0,0.0
4190,65.0,120,120,0.0,0.0
4191,60.0,120,120,0.0,0.0
4192,57.0,0,120,0.0,0.0
4193,65.0,0,120,0.0,0.0
4194,57.0,120,120,0.0,0.0
4195,60.0,0,120,0.0,0.0
4196,77.0,120,15,0.0,0.0
4197,65.0,120,120,0.0,0.0
4198,77.0,0,120,0.0,0.0
4199,60.0,0,120,0.0,0.0
4200,57.0,120,120,0.0,0.0
4201,65.0,120,120,0.0,0.0
4202,60.0,0,120,0.0,0.0
4203,57.0,0,120,0.0,0.0
4204,72.0,120,120,0.0,0.0
4205,65.0,120,120,0.0,0.0
4206,60.0,0,120,0.0,0.0
4207,73.0,0,120,0.0,0.0
4208,57.0,120,120,0.0,0.0
4209,65.0,120,120,0.0,0.0
4210,57.0,120,120,0.0,0.0
4211,75.0,0,120,0.0,0.0
4212,60.0,0,120,0.0,0.0
4213,65.0,120,120,0.0,0.0
4214,61.0,120,120,0.0,0.0
4215,58.0,0,120,0.0,0.0
4216,73.0,0,120,0.0,0.0
4217,65.0,120,120,0.0,0.0
4218,89.0,120,480,0.0,0.0
4219,61.0,120,120,0.0,0.0
4220,58.0,0,120,0.0,0.0
4221,77.0,0,480,0.0,0.0
4222,65.0,120,120,0.0,0.0
4223,61.0,120,120,0.0,0.0
4224,58.0,0,120,0.0,0.0
4225,65.0,0,120,0.0,0.0
4226,58.0,0,120,0.0,0.0
4227,61.0,0,120,0.0,0.0
4228,89.0,120,120,0.0,0.0
4229,77.0,0,120,0.0,0.0
4230,65.0,120,120,0.0,0.0
4231,89.0,0,120,0.0,0.0
4232,58.0,0,120,0.0,0.0
4233,61.0,120,120,0.0,0.0
4234,77.0,0,120,0.0,0.0
4235,65.0,120,120,0.0,0.0
4236,61.0,120,120,0.0,0.0
4237,58.0,0,120,0.0,0.0
4238,90.0,120,480,0.0,0.0
4239,64.0,120,120,0.0,0.0
4240,58.0,120,120,0.0,0.0
4241,61.0,0,120,0.0,0.0
4242,64.0,0,120,0.0,0.0
4243,78.0,0,15,0.0,0.0
4244,58.0,0,120,0.0,0.0
4245,61.0,0,120,0.0,0.0
4246,90.0,0,120,0.0,0.0
4247,64.0,120,120,0.0,0.0
4248,60.0,0,120,0.0,0.0
4249,57.0,0,120,0.0,0.0
4250,90.0,120,120,0.0,0.0
4251,78.0,0,120,0.0,0.0
4252,64.0,120,120,0.0,0.0
4253,60.0,0,120,0.0,0.0
4254,57.0,120,120,0.0,0.0
4255,65.0,120,120,0.0,0.0
4256,57.0,120,120,0.0,0.0
4257,60.0,0,120,0.0,0.0
4258,65.0,120,120,0.0,0.0
4259,60.0,0,120,0.0,0.0
4260,77.0,0,15,0.0,0.0
4261,89.0,0,15,0.0,0.0
4262,57.0,0,120,0.0,0.0
4263,65.0,120,120,0.0,0.0
4264,57.0,0,120,0.0,0.0
4265,60.0,120,120,0.0,0.0
4266,89.0,0,120,0.0,0.0
4267,77.0,0,120,0.0,0.0
4268,65.0,120,120,0.0,0.0
4269,84.0,0,120,0.0,0.0
4270,57.0,0,120,0.0,0.0
4271,60.0,120,120,0.0,0.0
4272,72.0,0,120,0.0,0.0
4273,65.0,120,120,0.0,0.0
4274,57.0,0,120,0.0,0.0
4275,60.0,120,120,0.0,0.0
4276,73.0,0,120,0.0,0.0
4277,85.0,0,120,0.0,0.0
4278,65.0,120,120,0.0,0.0
4279,75.0,0,120,0.0,0.0
4280,87.0,0,120,0.0,0.0
4281,60.0,0,120,0.0,0.0
4282,57.0,120,120,0.0,0.0
4283,65.0,120,120,0.0,0.0
4284,61.0,0,120,0.0,0.0
4285,58.0,0,120,0.0,0.0
4286,73.0,120,120,0.0,0.0
4287,85.0,0,120,0.0,0.0
4288,65.0,120,120,0.0,0.0
4289,72.0,0,480,0.0,0.0
4290,52.0,120,120,0.0,0.0
4291,55.0,0,120,0.0,0.0
4292,60.0,120,120,0.0,0.0
4293,52.0,120,120,0.0,0.0
4294,55.0,0,120,0.0,0.0
4295,60.0,120,120,0.0,0.0
4296,52.0,0,120,0.0,0.0
4297,55.0,120,120,0.0,0.0
4298,72.0,0,120,0.0,0.0
4299,60.0,120,120,0.0,0.0
4300,53.0,0,120,0.0,0.0
4301,72.0,0,120,0.0,0.0
4302,56.0,120,120,0.0,0.0
4303,60.0,120,120,0.0,0.0
4304,71.0,0,480,0.0,0.0
4305,56.0,120,120,0.0,0.0
4306,53.0,0,120,0.0,0.0
4307,62.0,120,120,0.0,0.0
4308,53.0,0,120,0.0,0.0
4309,56.0,120,120,0.0,0.0
4310,62.0,120,120,0.0,0.0
4311,56.0,0,120,0.0,0.0
4312,53.0,0,120,0.0,0.0
4313,71.0,120,120,0.0,0.0
4314,62.0,120,120,0.0,0.0
4315,52.0,120,120,0.0,0.0
4316,55.0,0,120,0.0,0.0
4317,71.0,0,120,0.0,0.0
4318,62.0,120,120,0.0,0.0
4319,52.0,120,120,0.0,0.0
4320,55.0,0,120,0.0,0.0
4321,60.0,120,120,0.0,0.0
4322,52.0,0,120,0.0,0.0
4323,55.0,120,120,0.0,0.0
4324,60.0,0,120,0.0,0.0
4325,72.0,120,15,0.0,0.0
4326,52.0,0,120,0.0,0.0
4327,55.0,0,120,0.0,0.0
4328,60.0,120,120,0.0,0.0
4329,72.0,0,120,0.0,0.0
4330,55.0,120,120,0.0,0.0
4331,52.0,0,120,0.0,0.0
4332,60.0,120,120,0.0,0.0
4333,52.0,0,120,0.0,0.0
4334,67.0,120,120,0.0,0.0
4335,55.0,0,120,0.0,0.0
4336,60.0,120,120,0.0,0.0
4337,55.0,0,120,0.0,0.0
4338,52.0,0,120,0.0,0.0
4339,68.0,120,120,0.0,0.0
4340,60.0,120,120,0.0,0.0
4341,55.0,0,120,0.0,0.0
4342,70.0,0,120,0.0,0.0
4343,52.0,120,120,0.0,0.0
4344,60.0,120,120,0.0,0.0
4345,56.0,120,120,0.0,0.0
4346,68.0,0,120,0.0,0.0
4347,53.0,0,120,0.0,0.0
4348,60.0,120,120,0.0,0.0
4349,56.0,120,120,0.0,0.0
4350,72.0,0,480,0.0,0.0
4351,53.0,0,120,0.0,0.0
4352,84.0,0,480,0.0,0.0
4353,60.0,120,120,0.0,0.0
4354,56.0,120,120,0.0,0.0
4355,53.0,0,120,0.0,0.0
4356,60.0,120,120,0.0,0.0
4357,84.0,120,120,0.0,0.0
4358,72.0,0,120,0.0,0.0
4359,56.0,0,120,0.0,0.0
4360,53.0,0,120,0.0,0.0
4361,60.0,120,120,0.0,0.0
4362,72.0,0,120,0.0,0.0
4363,84.0,0,120,0.0,0.0
4364,56.0,120,120,0.0,0.0
4365,53.0,0,120,0.0,0.0
4366,60.0,120,120,0.0,0.0
4367,56.0,120,120,0.0,0.0
4368,53.0,0,120,0.0,0.0
4369,71.0,0,480,0.0,0.0
4370,62.0,120,120,0.0,0.0
4371,53.0,120,120,0.0,0.0
4372,56.0,0,120,0.0,0.0
4373,62.0,0,120,0.0,0.0
4374,53.0,0,120,0.0,0.0
4375,71.0,0,120,0.0,0.0
4376,83.0,120,15,0.0,0.0
4377,56.0,120,120,0.0,0.0
4378,62.0,120,120,0.0,0.0
4379,52.0,0,120,0.0,0.0
4380,55.0,0,120,0.0,0.0
4381,83.0,0,120,0.0,0.0
4382,71.0,120,120,0.0,0.0
4383,62.0,120,120,0.0,0.0
4384,72.0,0,480,0.0,0.0
4385,84.0,0,480,0.0,0.0
4386,55.0,120,120,0.0,0.0
4387,52.0,0,120,0.0,0.0
4388,60.0,120,120,0.0,0.0
4389,55.0,0,120,0.0,0.0
4390,52.0,120,120,0.0,0.0
4391,60.0,120,120,0.0,0.0
4392,55.0,0,120,0.0,0.0
4393,52.0,0,120,0.0,0.0
4394,72.0,120,120,0.0,0.0
4395,84.0,0,120,0.0,0.0
4396,60.0,120,120,0.0,0.0
4397,84.0,0,120,0.0,0.0
4398,72.0,0,120,0.0,0.0
4399,52.0,120,120,0.0,0.0
4400,55.0,0,120,0.0,0.0
4401,60.0,120,120,0.0,0.0
4402,67.0,0,120,0.0,0.0
4403,55.0,0,120,0.0,0.0
4404,52.0,120,120,0.0,0.0
4405,79.0,0,120,0.0,0.0
4406,60.0,120,120,0.0,0.0
4407,52.0,0,120,0.0,0.0
4408,55.0,120,120,0.0,0.0
4409,68.0,0,120,0.0,0.0
4410,80.0,0,120,0.0,0.0
4411,60.0,120,120,0.0,0.0
4412,70.0,0,120,0.0,0.0
4413,55.0,0,120,0.0,0.0
4414,52.0,120,120,0.0,0.0
4415,82.0,0,120,0.0,0.0
4416,60.0,120,120,0.0,0.0
4417,68.0,120,120,0.0,0.0
4418,80.0,0,120,0.0,0.0
4419,41.0,0,480,0.0,0.0
4420,44.0,0,480,0.0,0.0
4421,48.0,0,480,0.0,0.0
4422,53.0,120,480,0.0,0.0
4423,60.0,120,120,0.0,0.0
4424,65.0,120,120,0.0,0.0
4425,68.0,0,120,0.0,0.0
4426,72.0,120,120,0.0,0.0
4427,73.0,120,120,0.0,0.0
4428,48.0,0,120,0.0,0.0
4429,53.0,120,120,0.0,0.0
4430,72.0,0,120,0.0,0.0
4431,70.0,120,120,0.0,0.0
4432,56.0,0,120,0.0,0.0
4433,60.0,0,120,0.0,0.0
4434,68.0,120,120,0.0,0.0
4435,70.0,0,120,0.0,0.0
4436,61.0,120,120,0.0,0.0
4437,60.0,0,120,0.0,0.0
4438,68.0,120,120,0.0,0.0
4439,58.0,120,120,0.0,0.0
4440,67.0,0,120,0.0,0.0
4441,56.0,120,120,0.0,0.0
4442,65.0,0,120,0.0,0.0
4443,67.0,120,120,0.0,0.0
4444,58.0,0,120,0.0,0.0
4445,68.0,120,120,0.0,0.0
4446,60.0,0,120,0.0,0.0
4447,56.0,120,120,0.0,0.0
4448,65.0,0,120,0.0,0.0
4449,58.0,0,120,0.0,0.0
4450,66.0,120,120,0.0,0.0
4451,60.0,120,120,0.0,0.0
4452,61.0,0,120,0.0,0.0
4453,58.0,120,120,0.0,0.0
4454,66.0,0,120,0.0,0.0
4455,70.0,120,120,0.0,0.0
4456,56.0,0,120,0.0,0.0
4457,54.0,120,120,0.0,0.0
4458,73.0,0,120,0.0,0.0
4459,75.0,120,120,0.0,0.0
4460,49.0,0,120,0.0,0.0
4461,54.0,0,120,0.0,0.0
4462,73.0,120,120,0.0,0.0
4463,58.0,120,120,0.0,0.0
4464,72.0,0,120,0.0,0.0
4465,70.0,120,120,0.0,0.0
4466,61.0,0,120,0.0,0.0
4467,72.0,120,120,0.0,0.0
4468,63.0,0,120,0.0,0.0
4469,61.0,0,120,0.0,0.0
4470,70.0,120,120,0.0,0.0
4471,68.0,120,120,0.0,0.0
4472,60.0,0,120,0.0,0.0
4473,58.0,0,120,0.0,0.0
4474,66.0,120,120,0.0,0.0
4475,68.0,120,120,0.0,0.0
4476,60.0,0,120,0.0,0.0
4477,70.0,0,120,0.0,0.0
4478,61.0,120,120,0.0,0.0
4479,66.0,0,120,0.0,0.0
4480,58.0,120,120,0.0,0.0
4481,60.0,0,120,0.0,0.0
4482,69.0,120,120,0.0,0.0
4483,61.0,120,120,0.0,0.0
4484,63.0,0,120,0.0,0.0
4485,69.0,0,120,0.0,0.0
4486,60.0,120,120,0.0,0.0
4487,72.0,0,120,0.0,0.0
4488,58.0,120,120,0.0,0.0
4489,57.0,0,120,0.0,0.0
4490,75.0,120,120,0.0,0.0
4491,77.0,0,120,0.0,0.0
4492,51.0,120,120,0.0,0.0
4493,75.0,120,120,0.0,0.0
4494,57.0,0,120,0.0,0.0
4495,73.0,0,120,0.0,0.0
4496,60.0,120,120,0.0,0.0
4497,63.0,0,120,0.0,0.0
4498,72.0,120,120,0.0,0.0
4499,65.0,0,120,0.0,0.0
4500,73.0,120,120,0.0,0.0
4501,63.0,0,120,0.0,0.0
4502,72.0,120,120,0.0,0.0
4503,70.0,0,120,0.0,0.0
4504,61.0,120,120,0.0,0.0
4505,60.0,120,120,0.0,0.0
4506,69.0,0,120,0.0,0.0
4507,70.0,0,120,0.0,0.0
4508,61.0,120,120,0.0,0.0
4509,72.0,120,120,0.0,0.0
4510,63.0,0,120,0.0,0.0
4511,60.0,120,120,0.0,0.0
4512,69.0,0,120,0.0,0.0
4513,61.0,120,120,0.0,0.0
4514,70.0,0,120,0.0,0.0
4515,65.0,0,120,0.0,0.0
4516,53.0,120,120,0.0,0.0
4517,70.0,120,120,0.0,0.0
4518,58.0,0,120,0.0,0.0
4519,61.0,120,120,0.0,0.0
4520,73.0,0,120,0.0,0.0
4521,77.0,0,120,0.0,0.0
4522,65.0,120,120,0.0,0.0
4523,78.0,0,120,0.0,0.0
4524,66.0,120,120,0.0,0.0
4525,77.0,0,120,0.0,0.0
4526,65.0,120,120,0.0,0.0
4527,63.0,0,120,0.0,0.0
4528,75.0,120,120,0.0,0.0
4529,73.0,120,120,0.0,0.0
4530,61.0,0,120,0.0,0.0
4531,60.0,0,120,0.0,0.0
4532,72.0,120,120,0.0,0.0
4533,70.0,120,120,0.0,0.0
4534,58.0,0,120,0.0,0.0
4535,56.0,120,120,0.0,0.0
4536,68.0,0,120,0.0,0.0
4537,66.0,0,120,0.0,0.0
4538,54.0,120,120,0.0,0.0
4539,65.0,120,120,0.0,0.0
4540,53.0,0,120,0.0,0.0
4541,51.0,120,120,0.0,0.0
4542,63.0,0,120,0.0,0.0
4543,61.0,0,120,0.0,0.0
4544,49.0,120,120,0.0,0.0
4545,60.0,0,120,0.0,0.0
4546,48.0,120,120,0.0,0.0
4547,58.0,0,120,0.0,0.0
4548,46.0,120,120,0.0,0.0
4549,44.0,0,120,0.0,0.0
4550,56.0,120,120,0.0,0.0
4551,42.0,0,120,0.0,0.0
4552,54.0,120,120,0.0,0.0
4553,41.0,0,120,0.0,0.0
4554,53.0,120,120,0.0,0.0
4555,39.0,120,120,0.0,0.0
4556,51.0,0,120,0.0,0.0
4557,49.0,0,120,0.0,0.0
4558,37.0,120,120,0.0,0.0
4559,36.0,0,120,0.0,0.0
4560,48.0,120,120,0.0,0.0
4561,34.0,120,120,0.0,0.0
4562,46.0,0,120,0.0,0.0
4563,36.0,120,120,0.0,0.0
4564,48.0,0,120,0.0,0.0
4565,37.0,0,120,0.0,0.0
4566,49.0,120,120,0.0,0.0
4567,36.0,0,120,0.0,0.0
4568,46.0,240,15,0.0,0.0
4569,34.0,240,240,0.0,0.0
4570,50.0,120,240,0.0,0.0
4571,53.0,0,240,0.0,0.0
4572,56.0,0,240,0.0,0.0
4573,47.0,0,240,0.0,0.0
4574,35.0,0,240,0.0,0.0
4575,36.0,0,120,0.0,0.0
4576,55.0,120,120,0.0,0.0
4577,52.0,0,120,0.0,0.0
4578,48.0,0,15,0.0,0.0
4579,60.0,0,120,0.0,0.0
4580,40.0,120,120,0.0,0.0
4581,60.0,120,120,0.0,0.0
4582,48.0,0,120,0.0,0.0
4583,36.0,120,120,0.0,0.0
4584,48.0,120,120,0.0,0.0
4585,60.0,0,120,0.0,0.0
4586,41.0,120,120,0.0,0.0
4587,60.0,120,120,0.0,0.0
4588,48.0,0,120,0.0,0.0
4589,36.0,120,120,0.0,0.0
4590,60.0,120,120,0.0,0.0
4591,48.0,0,120,0.0,0.0
4592,43.0,120,120,0.0,0.0
4593,60.0,0,120,0.0,0.0
4594,48.0,120,120,0.0,0.0
4595,36.0,120,120,0.0,0.0
4596,60.0,0,120,0.0,0.0
4597,48.0,120,120,0.0,0.0
4598,44.0,120,120,0.0,0.0
4599,60.0,0,120,0.0,0.0
4600,48.0,120,120,0.0,0.0
4601,36.0,120,120,0.0,0.0
4602,72.0,120,120,0.0,0.0
4603,60.0,0,120,0.0,0.0
4604,46.0,120,120,0.0,0.0
4605,72.0,0,120,0.0,0.0
4606,60.0,120,120,0.0,0.0
4607,36.0,120,120,0.0,0.0
4608,60.0,120,120,0.0,0.0
4609,72.0,0,120,0.0,0.0
4610,44.0,120,120,0.0,0.0
4611,60.0,120,120,0.0,0.0
4612,72.0,0,120,0.0,0.0
4613,36.0,120,120,0.0,0.0
4614,60.0,120,120,0.0,0.0
4615,72.0,0,120,0.0,0.0
4616,43.0,120,120,0.0,0.0
4617,60.0,120,120,0.0,0.0
4618,72.0,0,120,0.0,0.0
4619,36.0,120,120,0.0,0.0
4620,72.0,0,120,0.0,0.0
4621,60.0,120,120,0.0,0.0
4622,41.0,120,120,0.0,0.0
4623,72.0,120,120,0.0,0.0
4624,60.0,0,120,0.0,0.0
4625,36.0,120,120,0.0,0.0
4626,84.0,120,120,0.0,0.0
4627,72.0,0,120,0.0,0.0
4628,40.0,120,120,0.0,0.0
4629,84.0,120,120,0.0,0.0
4630,72.0,0,120,0.0,0.0
4631,36.0,120,120,0.0,0.0
4632,72.0,0,120,0.0,0.0
4633,84.0,120,120,0.0,0.0
4634,41.0,120,120,0.0,0.0
4635,84.0,120,120,0.0,0.0
4636,72.0,0,120,0.0,0.0
4637,36.0,120,120,0.0,0.0
4638,72.0,0,120,0.0,0.0
4639,84.0,120,120,0.0,0.0
4640,43.0,120,120,0.0,0.0
4641,84.0,120,120,0.0,0.0
4642,72.0,0,120,0.0,0.0
4643,36.0,120,120,0.0,0.0
4644,72.0,120,120,0.0,0.0
4645,84.0,0,120,0.0,0.0
4646,44.0,120,120,0.0,0.0
4647,84.0,0,120,0.0,0.0
4648,72.0,120,120,0.0,0.0
4649,36.0,120,120,0.0,0.0
4650,84.0,0,120,0.0,0.0
4651,96.0,120,120,0.0,0.0
4652,45.0,120,120,0.0,0.0
4653,84.0,120,120,0.0,0.0
4654,96.0,0,120,0.0,0.0
4655,36.0,120,120,0.0,0.0
4656,96.0,0,120,0.0,0.0
4657,84.0,120,120,0.0,0.0
4658,46.0,120,120,0.0,0.0
4659,84.0,120,120,0.0,0.0
4660,96.0,0,120,0.0,0.0
4661,36.0,120,120,0.0,0.0
4662,84.0,120,120,0.0,0.0
4663,96.0,0,120,0.0,0.0
4664,47.0,120,120,0.0,0.0
4665,96.0,120,120,0.0,0.0
4666,84.0,0,120,0.0,0.0
4667,36.0,120,120,0.0,0.0
4668,96.0,0,120,0.0,0.0
4669,84.0,120,120,0.0,0.0
4670,48.0,120,120,0.0,0.0
4671,96.0,0,120,0.0,0.0
4672,84.0,240,120,0.0,0.0
4673,46.0,120,240,0.0,0.0
4674,42.0,0,240,0.0,0.0
4675,34.0,0,240,0.0,0.0
4676,37.0,0,240,0.0,0.0
4677,49.0,0,120,0.0,0.0
4678,54.0,120,120,0.0,0.0
4679,58.0,120,120,0.0,0.0
4680,61.0,120,120,0.0,0.0
4681,46.0,120,120,0.0,0.0
4682,49.0,120,120,0.0,0.0
4683,54.0,120,120,0.0,0.0
4684,58.0,120,120,0.0,0.0
4685,61.0,120,120,0.0,0.0
4686,66.0,120,120,0.0,0.0
4687,70.0,120,120,0.0,0.0
4688,73.0,120,120,0.0,0.0
4689,58.0,120,120,0.0,0.0
4690,61.0,120,120,0.0,0.0
4691,66.0,120,120,0.0,0.0
4692,70.0,120,120,0.0,0.0
4693,73.0,120,120,0.0,0.0
4694,78.0,120,120,0.0,0.0
4695,82.0,240,120,0.0,0.0
4696,85.0,1440,240,0.0,0.0
4697,43.0,0,240,0.0,0.0
4698,36.0,0,240,0.0,0.0
4699,46.0,0,240,0.0,0.0
4700,48.0,0,240,0.0,0.0
4701,52.0,120,120,0.0,0.0
4702,55.0,120,120,0.0,0.0
4703,58.0,120,120,0.0,0.0
4704,64.0,120,120,0.0,0.0
4705,48.0,120,120,0.0,0.0
4706,55.0,120,120,0.0,0.0
4707,58.0,120,120,0.0,0.0
4708,60.0,120,120,0.0,0.0
4709,64.0,120,120,0.0,0.0
4710,67.0,120,120,0.0,0.0
4711,70.0,120,120,0.0,0.0
4712,76.0,120,120,0.0,0.0
4713,60.0,120,120,0.0,0.0
4714,67.0,120,120,0.0,0.0
4715,70.0,120,120,0.0,0.0
4716,72.0,120,120,0.0,0.0
4717,76.0,120,120,0.0,0.0
4718,79.0,120,120,0.0,0.0
4719,82.0,240,120,0.0,0.0
4720,88.0,1360,240,0.0,0.0
4721,37.0,160,150,0.0,0.0
4722,49.0,160,150,0.0,0.0
4723,52.0,120,150,0.0,0.0
4724,55.0,120,120,0.0,0.0
4725,58.0,120,120,0.0,0.0
4726,61.0,120,120,0.0,0.0
4727,64.0,240,120,0.0,0.0
4728,67.0,880,240,0.0,0.0
4729,40.0,160,150,0.0,0.0
4730,52.0,160,150,0.0,0.0
4731,55.0,120,150,0.0,0.0
4732,58.0,120,120,0.0,0.0
4733,61.0,120,120,0.0,0.0
4734,64.0,120,120,0.0,0.0
4735,67.0,240,120,0.0,0.0
4736,70.0,880,240,0.0,0.0
4737,43.0,160,150,0.0,0.0
4738,55.0,160,150,0.0,0.0
4739,58.0,120,150,0.0,0.0
4740,61.0,120,120,0.0,0.0
4741,64.0,120,120,0.0,0.0
4742,67.0,120,120,0.0,0.0
4743,70.0,240,120,0.0,0.0
4744,73.0,880,240,0.0,0.0
4745,46.0,160,150,0.0,0.0
4746,58.0,160,150,0.0,0.0
4747,61.0,120,150,0.0,0.0
4748,64.0,120,120,0.0,0.0
4749,67.0,120,120,0.0,0.0
4750,70.0,120,120,0.0,0.0
4751,73.0,240,120,0.0,0.0
4752,76.0,960,240,0.0,0.0
4753,49.0,240,240,0.0,0.0
4754,52.0,240,240,0.0,0.0
4755,55.0,240,240,0.0,0.0
4756,58.0,240,240,0.0,0.0
4757,61.0,240,240,0.0,0.0
4758,64.0,240,240,0.0,0.0
4759,67.0,240,240,0.0,0.0
4760,70.0,240,240,0.0,0.0
4761,73.0,240,240,0.0,0.0
4762,76.0,240,240,0.0,0.0
4763,79.0,240,240,0.0,0.0
4764,82.0,240,240,0.0,0.0
4765,85.0,240,240,0.0,0.0
4766,88.0,240,240,0.0,0.0
4767,91.0,240,240,0.0,0.0
4768,94.0,240,240,0.0,0.0
4769,91.0,240,240,0.0,0.0
4770,88.0,240,240,0.0,0.0
4771,85.0,240,240,0.0,0.0
4772,82.0,240,240,0.0,0.0
4773,79.0,240,240,0.0,0.0
4774,76.0,240,240,0.0,0.0
4775,73.0,240,240,0.0,0.0
4776,70.0,240,240,0.0,0.0
4777,67.0,240,240,0.0,0.0
4778,64.0,240,240,0.0,0.0
4779,61.0,240,240,0.0,0.0
4780,58.0,240,240,0.0,0.0
4781,55.0,240,240,0.0,0.0
4782,52.0,240,240,0.0,0.0
4783,49.0,240,240,0.0,0.0
4784,46.0,960,240,0.0,0.0
4785,43.0,960,960,0.0,0.0
4786,40.0,960,960,0.0,0.0
4787,37.0,960,960,0.0,0.0
4788,34.0,1920,960,0.0,0.0
4789,31.0,720,1920,0.0,0.0
4790,43.0,0,720,0.0,0.0
4791,52.0,1920,720,0.0,0.0
4792,48.0,0,720,0.0,0.0
4793,46.0,0,720,0.0,0.0
4794,55.0,0,720,0.0,0.0
4795,58.0,960,720,0.0,0.0
4796,60.0,0,720,0.0,0.0
4797,64.0,0,720,0.0,0.0
4798,67.0,0,720,0.0,0.0
4799,70.0,0,720,0.0,0.0
4800,72.0,0,720,0.0,0.0
4801,76.0,960,720,0.0,0.0
4802,88.0,0,720,0.0,0.0
4803,84.0,0,720,0.0,0.0
4804,82.0,960,720,0.0,0.0
4805,79.0,0,720,0.0,0.0
4806,48.0,0,720,0.0,0.0
4807,52.0,120,720,0.0,0.0
4808,43.0,0,720,0.0,0.0
4809,46.0,0,720,0.0,0.0
4810,36.0,120,15,0.0,0.0
4811,29.0,120,480,0.0,0.0
4812,41.0,0,480,0.0,0.0
4813,48.0,120,120,0.0,0.0
4814,53.0,120,120,0.0,0.0
4815,56.0,0,120,0.0,0.0
4816,60.0,120,120,0.0,0.0
4817,61.0,120,120,0.0,0.0
4818,60.0,120,120,0.0,0.0
4819,58.0,120,120,0.0,0.0
4820,56.0,120,120,0.0,0.0
4821,58.0,120,120,0.0,0.0
4822,56.0,120,120,0.0,0.0
4823,55.0,120,120,0.0,0.0
4824,53.0,120,120,0.0,0.0
4825,55.0,120,120,0.0,0.0
4826,56.0,120,120,0.0,0.0
4827,53.0,240,120,0.0,0.0
4828,29.0,0,480,0.0,0.0
4829,41.0,120,480,0.0,0.0
4830,48.0,120,120,0.0,0.0
4831,53.0,120,120,0.0,0.0
4832,56.0,0,120,0.0,0.0
4833,60.0,120,120,0.0,0.0
4834,61.0,120,120,0.0,0.0
4835,60.0,120,120,0.0,0.0
4836,72.0,120,120,0.0,0.0
4837,68.0,0,120,0.0,0.0
4838,58.0,0,120,0.0,0.0
4839,56.0,120,120,0.0,0.0
4840,72.0,120,480,0.0,0.0
4841,68.0,0,480,0.0,0.0
4842,58.0,120,120,0.0,0.0
4843,56.0,120,120,0.0,0.0
4844,55.0,0,120,0.0,0.0
4845,53.0,120,120,0.0,0.0
4846,65.0,120,240,0.0,0.0
4847,68.0,0,240,0.0,0.0
4848,55.0,0,120,0.0,0.0
4849,56.0,120,120,0.0,0.0
4850,53.0,240,120,0.0,0.0
4851,46.0,0,480,0.0,0.0
4852,34.0,120,480,0.0,0.0
4853,49.0,120,120,0.0,0.0
4854,54.0,120,120,0.0,0.0
4855,58.0,0,120,0.0,0.0
4856,61.0,120,120,0.0,0.0
4857,63.0,120,120,0.0,0.0
4858,61.0,120,120,0.0,0.0
4859,70.0,120,120,0.0,0.0
4860,73.0,0,120,0.0,0.0
4861,60.0,0,120,0.0,0.0
4862,58.0,120,120,0.0,0.0
4863,73.0,0,960,0.0,0.0
4864,60.0,120,120,0.0,0.0
4865,58.0,120,120,0.0,0.0
4866,56.0,120,120,0.0,0.0
4867,54.0,120,120,0.0,0.0
4868,56.0,120,120,0.0,0.0
4869,54.0,120,120,0.0,0.0
4870,53.0,120,120,0.0,0.0
4871,72.0,0,240,0.0,0.0
4872,70.0,0,15,0.0,0.0
4873,52.0,120,120,0.0,0.0
4874,53.0,0,120,0.0,0.0
4875,55.0,120,120,0.0,0.0
4876,48.0,0,240,0.0,0.0
4877,36.0,120,240,0.0,0.0
4878,52.0,0,120,0.0,0.0
4879,53.0,120,120,0.0,0.0
4880,55.0,120,120,0.0,0.0
4881,49.0,120,240,0.0,0.0
4882,37.0,0,240,0.0,0.0
4883,56.0,120,120,0.0,0.0
4884,53.0,0,120,0.0,0.0
4885,55.0,120,120,0.0,0.0
4886,56.0,120,120,0.0,0.0
4887,58.0,120,120,0.0,0.0
4888,46.0,0,240,0.0,0.0
4889,34.0,0,240,0.0,0.0
4890,55.0,120,120,0.0,0.0
4891,52.0,120,120,0.0,0.0
4892,53.0,120,120,0.0,0.0
4893,55.0,120,120,0.0,0.0
4894,48.0,0,240,0.0,0.0
4895,36.0,0,240,0.0,0.0
4896,52.0,120,120,0.0,0.0
4897,41.0,0,120,0.0,0.0
4898,29.0,120,120,0.0,0.0
4899,48.0,120,120,0.0,0.0
4900,53.0,120,120,0.0,0.0
4901,56.0,0,120,0.0,0.0
4902,60.0,120,120,0.0,0.0
4903,61.0,120,120,0.0,0.0
4904,60.0,120,120,0.0,0.0
4905,64.0,0,120,0.0,0.0
4906,58.0,120,120,0.0,0.0
4907,65.0,0,120,0.0,0.0
4908,56.0,120,120,0.0,0.0
4909,58.0,120,120,0.0,0.0
4910,56.0,0,120,0.0,0.0
4911,67.0,120,120,0.0,0.0
4912,55.0,120,120,0.0,0.0
4913,68.0,0,120,0.0,0.0
4914,53.0,120,120,0.0,0.0
4915,55.0,120,120,0.0,0.0
4916,56.0,120,120,0.0,0.0
4917,65.0,0,120,0.0,0.0
4918,53.0,120,120,0.0,0.0
4919,56.0,120,120,0.0,0.0
4920,48.0,120,120,0.0,0.0
4921,53.0,120,120,0.0,0.0
4922,56.0,120,120,0.0,0.0
4923,60.0,120,120,0.0,0.0
4924,61.0,120,120,0.0,0.0
4925,60.0,120,120,0.0,0.0
4926,76.0,0,120,0.0,0.0
4927,64.0,0,120,0.0,0.0
4928,58.0,120,120,0.0,0.0
4929,65.0,0,120,0.0,0.0
4930,56.0,0,120,0.0,0.0
4931,77.0,120,120,0.0,0.0
4932,58.0,120,120,0.0,0.0
4933,56.0,0,120,0.0,0.0
4934,67.0,0,120,0.0,0.0
4935,79.0,120,120,0.0,0.0
4936,55.0,120,120,0.0,0.0
4937,80.0,0,120,0.0,0.0
4938,53.0,120,120,0.0,0.0
4939,68.0,0,120,0.0,0.0
4940,55.0,120,120,0.0,0.0
4941,77.0,0,120,0.0,0.0
4942,65.0,120,120,0.0,0.0
4943,56.0,0,120,0.0,0.0
4944,53.0,120,120,0.0,0.0
4945,58.0,120,120,0.0,0.0
4946,49.0,120,120,0.0,0.0
4947,54.0,120,120,0.0,0.0
4948,58.0,120,120,0.0,0.0
4949,61.0,120,120,0.0,0.0
4950,63.0,120,120,0.0,0.0
4951,77.0,0,240,0.0,0.0
4952,65.0,120,240,0.0,0.0
4953,61.0,120,120,0.0,0.0
4954,60.0,0,120,0.0,0.0
4955,78.0,0,240,0.0,0.0
4956,58.0,120,120,0.0,0.0
4957,66.0,0,240,0.0,0.0
4958,60.0,120,120,0.0,0.0
4959,70.0,0,240,0.0,0.0
4960,82.0,120,240,0.0,0.0
4961,58.0,120,120,0.0,0.0
4962,56.0,0,120,0.0,0.0
4963,54.0,120,120,0.0,0.0
4964,85.0,0,120,0.0,0.0
4965,73.0,0,120,0.0,0.0
4966,56.0,120,120,0.0,0.0
4967,73.0,0,120,0.0,0.0
4968,54.0,0,120,0.0,0.0
4969,85.0,120,120,0.0,0.0
4970,53.0,120,120,0.0,0.0
4971,85.0,0,480,0.0,0.0
4972,73.0,120,480,0.0,0.0
4973,52.0,120,120,0.0,0.0
4974,53.0,120,120,0.0,0.0
4975,55.0,120,120,0.0,0.0
4976,56.0,0,120,0.0,0.0
4977,84.0,0,960,0.0,0.0
4978,72.0,0,960,0.0,0.0
4979,58.0,120,120,0.0,0.0
4980,56.0,120,120,0.0,0.0
4981,55.0,120,120,0.0,0.0
4982,53.0,120,120,0.0,0.0
4983,52.0,120,120,0.0,0.0
4984,53.0,120,120,0.0,0.0
4985,52.0,120,120,0.0,0.0
4986,49.0,120,120,0.0,0.0
4987,76.0,0,480,0.0,0.0
4988,48.0,120,120,0.0,0.0
4989,64.0,120,480,0.0,0.0
4990,46.0,120,120,0.0,0.0
4991,44.0,120,120,0.0,0.0
4992,43.0,0,120,0.0,0.0
4993,41.0,120,480,0.0,0.0
4994,65.0,0,120,0.0,0.0
4995,77.0,120,120,0.0,0.0
4996,60.0,120,120,0.0,0.0
4997,65.0,120,120,0.0,0.0
4998,68.0,0,120,0.0,0.0
4999,72.0,120,120,0.0,0.0
5000,60.0,120,120,0.0,0.0
5001,65.0,120,120,0.0,0.0
5002,53.0,240,120,0.0,0.0
5003,56.0,0,120,0.0,0.0
5004,68.0,0,120,0.0,0.0
5005,53.0,0,480,0.0,0.0
5006,56.0,0,480,0.0,0.0
5007,60.0,120,120,0.0,0.0
5008,65.0,120,120,0.0,0.0
5009,68.0,120,120,0.0,0.0
5010,72.0,120,120,0.0,0.0
5011,60.0,120,120,0.0,0.0
5012,65.0,120,120,0.0,0.0
5013,68.0,0,120,0.0,0.0
5014,53.0,0,15,0.0,0.0
5015,56.0,240,15,0.0,0.0
5016,59.0,120,120,0.0,0.0
5017,62.0,120,120,0.0,0.0
5018,68.0,240,120,0.0,0.0
5019,71.0,0,480,0.0,0.0
5020,59.0,120,120,0.0,0.0
5021,62.0,120,120,0.0,0.0
5022,68.0,0,120,0.0,0.0
5023,71.0,0,480,0.0,0.0
5024,55.0,0,240,0.0,0.0
5025,52.0,0,240,0.0,0.0
5026,48.0,0,15,0.0,0.0
5027,59.0,0,120,0.0,0.0
5028,64.0,120,120,0.0,0.0
5029,67.0,240,120,0.0,0.0
5030,72.0,240,480,0.0,0.0
5031,60.0,120,120,0.0,0.0
5032,64.0,120,120,0.0,0.0
5033,67.0,0,120,0.0,0.0
5034,36.0,120,480,0.0,0.0
5035,48.0,0,480,0.0,0.0
5036,60.0,120,120,0.0,0.0
5037,64.0,120,120,0.0,0.0
5038,67.0,0,120,0.0,0.0
5039,72.0,120,120,0.0,0.0
5040,60.0,120,120,0.0,0.0
5041,64.0,120,120,0.0,0.0
5042,58.0,0,120,0.0,0.0
5043,67.0,240,120,0.0,0.0
5044,55.0,0,15,0.0,0.0
5045,58.0,0,480,0.0,0.0
5046,60.0,120,120,0.0,0.0
5047,64.0,120,120,0.0,0.0
5048,67.0,120,120,0.0,0.0
5049,72.0,120,120,0.0,0.0
5050,60.0,120,120,0.0,0.0
5051,64.0,120,120,0.0,0.0
5052,67.0,240,120,0.0,0.0
5053,55.0,0,15,0.0,0.0
5054,58.0,0,15,0.0,0.0
5055,60.0,120,120,0.0,0.0
5056,64.0,120,120,0.0,0.0
5057,67.0,240,120,0.0,0.0
5058,72.0,0,480,0.0,0.0
5059,60.0,120,120,0.0,0.0
5060,64.0,120,120,0.0,0.0
5061,67.0,0,120,0.0,0.0
5062,56.0,120,240,0.0,0.0
5063,53.0,240,15,0.0,0.0
5064,60.0,0,120,0.0,0.0
5065,64.0,120,120,0.0,0.0
5066,67.0,240,120,0.0,0.0
5067,72.0,0,15,0.0,0.0
5068,60.0,120,120,0.0,0.0
5069,65.0,120,120,0.0,0.0
5070,68.0,240,120,0.0,0.0
5071,41.0,120,480,0.0,0.0
5072,53.0,0,480,0.0,0.0
5073,65.0,120,120,0.0,0.0
5074,69.0,120,120,0.0,0.0
5075,72.0,0,120,0.0,0.0
5076,77.0,120,120,0.0,0.0
5077,65.0,120,120,0.0,0.0
5078,69.0,120,120,0.0,0.0
5079,72.0,240,120,0.0,0.0
5080,60.0,0,15,0.0,0.0
5081,63.0,0,15,0.0,0.0
5082,65.0,120,120,0.0,0.0
5083,69.0,120,120,0.0,0.0
5084,72.0,0,120,0.0,0.0
5085,77.0,120,120,0.0,0.0
5086,65.0,120,120,0.0,0.0
5087,69.0,120,120,0.0,0.0
5088,63.0,0,120,0.0,0.0
5089,60.0,0,120,0.0,0.0
5090,72.0,240,120,0.0,0.0
5091,58.0,0,1200,0.0,0.0
5092,63.0,0,1200,0.0,0.0
5093,60.0,0,1200,0.0,0.0
5094,65.0,120,120,0.0,0.0
5095,69.0,120,120,0.0,0.0
5096,72.0,240,120,0.0,0.0
5097,77.0,0,480,0.0,0.0
5098,65.0,120,120,0.0,0.0
5099,69.0,120,120,0.0,0.0
5100,72.0,120,120,0.0,0.0
5101,65.0,0,120,0.0,0.0
5102,69.0,120,120,0.0,0.0
5103,77.0,120,120,0.0,0.0
5104,70.0,0,120,0.0,0.0
5105,61.0,0,240,0.0,0.0
5106,58.0,0,240,0.0,0.0
5107,65.0,120,120,0.0,0.0
5108,77.0,120,120,0.0,0.0
5109,56.0,0,240,0.0,0.0
5110,60.0,120,240,0.0,0.0
5111,72.0,120,120,0.0,0.0
5112,65.0,0,120,0.0,0.0
5113,77.0,0,120,0.0,0.0
5114,65.0,0,120,0.0,0.0
5115,55.0,240,240,0.0,0.0
5116,58.0,0,240,0.0,0.0
5117,73.0,120,120,0.0,0.0
5118,77.0,0,120,0.0,0.0
5119,48.0,0,480,0.0,0.0
5120,53.0,240,480,0.0,0.0
5121,56.0,0,480,0.0,0.0
5122,60.0,120,120,0.0,0.0
5123,65.0,120,120,0.0,0.0
5124,68.0,0,120,0.0,0.0
5125,72.0,240,480,0.0,0.0
5126,60.0,120,120,0.0,0.0
5127,65.0,120,120,0.0,0.0
5128,53.0,0,120,0.0,0.0
5129,68.0,0,120,0.0,0.0
5130,56.0,0,120,0.0,0.0
5131,58.0,0,480,0.0,0.0
5132,48.0,0,480,0.0,0.0
5133,55.0,0,480,0.0,0.0
5134,72.0,240,480,0.0,0.0
5135,60.0,120,120,0.0,0.0
5136,67.0,120,120,0.0,0.0
5137,70.0,0,120,0.0,0.0
5138,72.0,0,480,0.0,0.0
5139,60.0,120,120,0.0,0.0
5140,64.0,120,120,0.0,0.0
5141,67.0,0,120,0.0,0.0
5142,52.0,0,120,0.0,0.0
5143,55.0,120,120,0.0,0.0
5144,65.0,120,480,0.0,0.0
5145,68.0,0,480,0.0,0.0
5146,72.0,0,480,0.0,0.0
5147,53.0,120,120,0.0,0.0
5148,60.0,120,120,0.0,0.0
5149,56.0,120,120,0.0,0.0
5150,53.0,0,120,0.0,0.0
5151,48.0,120,120,0.0,0.0
5152,56.0,120,120,0.0,0.0
5153,53.0,120,120,0.0,0.0
5154,48.0,120,120,0.0,0.0
5155,80.0,0,120,0.0,0.0
5156,80.0,0,480,0.0,0.0
5157,77.0,0,15,0.0,0.0
5158,44.0,120,120,0.0,0.0
5159,53.0,120,120,0.0,0.0
5160,48.0,120,120,0.0,0.0
5161,44.0,0,120,0.0,0.0
5162,41.0,120,120,0.0,0.0
5163,48.0,120,120,0.0,0.0
5164,44.0,120,120,0.0,0.0
5165,41.0,120,120,0.0,0.0
5166,77.0,0,15,0.0,0.0
5167,80.0,0,15,0.0,0.0
5168,36.0,120,120,0.0,0.0
5169,41.0,120,120,0.0,0.0
5170,44.0,120,120,0.0,0.0
5171,48.0,120,120,0.0,0.0
5172,47.0,120,120,0.0,0.0
5173,48.0,120,120,0.0,0.0
5174,47.0,120,120,0.0,0.0
5175,48.0,0,120,0.0,0.0
5176,76.0,0,240,0.0,0.0
5177,79.0,120,240,0.0,0.0
5178,47.0,120,120,0.0,0.0
5179,48.0,0,120,0.0,0.0
5180,43.0,120,120,0.0,0.0
5181,48.0,120,120,0.0,0.0
5182,40.0,120,120,0.0,0.0
5183,48.0,120,120,0.0,0.0
5184,43.0,120,120,0.0,0.0
5185,48.0,120,120,0.0,0.0
5186,36.0,120,120,0.0,0.0
5187,40.0,120,120,0.0,0.0
5188,43.0,120,120,0.0,0.0
5189,48.0,120,120,0.0,0.0
5190,40.0,120,120,0.0,0.0
5191,43.0,120,120,0.0,0.0
5192,48.0,120,120,0.0,0.0
5193,52.0,0,120,0.0,0.0
5194,79.0,0,120,0.0,0.0
5195,82.0,120,120,0.0,0.0
5196,43.0,120,120,0.0,0.0
5197,82.0,0,480,0.0,0.0
5198,79.0,0,480,0.0,0.0
5199,48.0,120,120,0.0,0.0
5200,52.0,120,120,0.0,0.0
5201,55.0,120,120,0.0,0.0
5202,48.0,120,120,0.0,0.0
5203,52.0,120,120,0.0,0.0
5204,55.0,120,120,0.0,0.0
5205,79.0,0,120,0.0,0.0
5206,60.0,120,120,0.0,0.0
5207,82.0,0,120,0.0,0.0
5208,82.0,0,960,0.0,0.0
5209,53.0,120,120,0.0,0.0
5210,79.0,0,960,0.0,0.0
5211,56.0,120,120,0.0,0.0
5212,60.0,120,120,0.0,0.0
5213,65.0,120,120,0.0,0.0
5214,64.0,120,120,0.0,0.0
5215,65.0,120,120,0.0,0.0
5216,64.0,120,120,0.0,0.0
5217,65.0,120,120,0.0,0.0
5218,77.0,0,240,0.0,0.0
5219,80.0,0,240,0.0,0.0
5220,64.0,120,120,0.0,0.0
5221,65.0,120,120,0.0,0.0
5222,60.0,120,120,0.0,0.0
5223,65.0,120,120,0.0,0.0
5224,56.0,120,120,0.0,0.0
5225,65.0,120,120,0.0,0.0
5226,60.0,120,120,0.0,0.0
5227,65.0,120,120,0.0,0.0
5228,53.0,120,120,0.0,0.0
5229,57.0,120,120,0.0,0.0
5230,60.0,120,120,0.0,0.0
5231,65.0,120,120,0.0,0.0
5232,57.0,120,120,0.0,0.0
5233,60.0,120,120,0.0,0.0
5234,65.0,120,120,0.0,0.0
5235,69.0,120,120,0.0,0.0
5236,87.0,0,120,0.0,0.0
5237,84.0,0,15,0.0,0.0
5238,60.0,120,120,0.0,0.0
5239,87.0,120,480,0.0,0.0
5240,65.0,120,120,0.0,0.0
5241,69.0,120,120,0.0,0.0
5242,72.0,0,120,0.0,0.0
5243,65.0,120,120,0.0,0.0
5244,69.0,120,120,0.0,0.0
5245,72.0,120,120,0.0,0.0
5246,77.0,0,120,0.0,0.0
5247,84.0,0,120,0.0,0.0
5248,69.0,120,120,0.0,0.0
5249,84.0,120,1200,0.0,0.0
5250,87.0,120,15,0.0,0.0
5251,77.0,120,120,0.0,0.0
5252,76.0,120,120,0.0,0.0
5253,77.0,120,120,0.0,0.0
5254,69.0,120,120,0.0,0.0
5255,77.0,120,120,0.0,0.0
5256,69.0,120,120,0.0,0.0
5257,77.0,120,120,0.0,0.0
5258,69.0,120,120,0.0,0.0
5259,77.0,0,120,0.0,0.0
5260,85.0,0,240,0.0,0.0
5261,82.0,120,240,0.0,0.0
5262,70.0,120,120,0.0,0.0
5263,77.0,0,120,0.0,0.0
5264,72.0,120,120,0.0,0.0
5265,84.0,0,240,0.0,0.0
5266,80.0,120,240,0.0,0.0
5267,77.0,0,120,0.0,0.0
5268,79.0,120,240,0.0,0.0
5269,82.0,0,240,0.0,0.0
5270,73.0,120,120,0.0,0.0
5271,80.0,0,480,0.0,0.0
5272,77.0,0,15,0.0,0.0
5273,60.0,120,120,0.0,0.0
5274,65.0,120,120,0.0,0.0
5275,68.0,120,120,0.0,0.0
5276,72.0,120,120,0.0,0.0
5277,71.0,120,120,0.0,0.0
5278,72.0,120,120,0.0,0.0
5279,71.0,120,120,0.0,0.0
5280,72.0,120,120,0.0,0.0
5281,89.0,0,120,0.0,0.0
5282,80.0,0,120,0.0,0.0
5283,77.0,0,120,0.0,0.0
5284,79.0,0,480,0.0,0.0
5285,91.0,0,480,0.0,0.0
5286,82.0,0,480,0.0,0.0
5287,60.0,120,120,0.0,0.0
5288,64.0,120,120,0.0,0.0
5289,67.0,120,120,0.0,0.0
5290,72.0,120,120,0.0,0.0
5291,60.0,120,120,0.0,0.0
5292,67.0,120,120,0.0,0.0
5293,70.0,120,120,0.0,0.0
5294,76.0,0,120,0.0,0.0
5295,72.0,120,120,0.0,0.0
5296,79.0,0,120,0.0,0.0
5297,88.0,0,120,0.0,0.0
5298,77.0,0,120,0.0,0.0
5299,80.0,0,120,0.0,0.0
5300,89.0,120,120,0.0,0.0
5301,53.0,0,120,0.0,0.0
5302,68.0,0,120,0.0,0.0
5303,65.0,0,120,0.0,0.0
5304,72.0,120,15,0.0,0.0
5305,60.0,120,120,0.0,0.0
5306,77.0,0,120,0.0,0.0
5307,65.0,0,120,0.0,0.0
5308,68.0,0,120,0.0,0.0
5309,80.0,120,120,0.0,0.0
5310,60.0,0,120,0.0,0.0
5311,84.0,120,120,0.0,0.0
5312,72.0,0,120,0.0,0.0
5313,85.0,120,120,0.0,0.0
5314,68.0,0,120,0.0,0.0
5315,65.0,0,120,0.0,0.0
5316,72.0,120,120,0.0,0.0
5317,60.0,0,120,0.0,0.0
5318,84.0,0,120,0.0,0.0
5319,82.0,0,120,0.0,0.0
5320,68.0,0,120,0.0,0.0
5321,65.0,120,120,0.0,0.0
5322,80.0,120,120,0.0,0.0
5323,60.0,0,120,0.0,0.0
5324,72.0,0,120,0.0,0.0
5325,82.0,0,120,0.0,0.0
5326,65.0,0,120,0.0,0.0
5327,68.0,120,120,0.0,0.0
5328,80.0,120,120,0.0,0.0
5329,72.0,0,120,0.0,0.0
5330,60.0,0,120,0.0,0.0
5331,68.0,0,120,0.0,0.0
5332,65.0,0,120,0.0,0.0
5333,79.0,120,120,0.0,0.0
5334,72.0,0,120,0.0,0.0
5335,77.0,0,120,0.0,0.0
5336,60.0,120,120,0.0,0.0
5337,68.0,120,120,0.0,0.0
5338,65.0,0,120,0.0,0.0
5339,79.0,0,120,0.0,0.0
5340,80.0,0,120,0.0,0.0
5341,60.0,120,120,0.0,0.0
5342,72.0,0,120,0.0,0.0
5343,77.0,0,120,0.0,0.0
5344,65.0,0,120,0.0,0.0
5345,68.0,120,120,0.0,0.0
5346,53.0,120,120,0.0,0.0
5347,65.0,120,120,0.0,0.0
5348,72.0,0,120,0.0,0.0
5349,68.0,0,120,0.0,0.0
5350,77.0,0,120,0.0,0.0
5351,72.0,120,120,0.0,0.0
5352,60.0,0,120,0.0,0.0
5353,80.0,0,120,0.0,0.0
5354,65.0,0,120,0.0,0.0
5355,68.0,120,120,0.0,0.0
5356,84.0,0,120,0.0,0.0
5357,60.0,0,120,0.0,0.0
5358,72.0,120,120,0.0,0.0
5359,85.0,120,120,0.0,0.0
5360,68.0,0,120,0.0,0.0
5361,65.0,0,120,0.0,0.0
5362,60.0,0,120,0.0,0.0
5363,72.0,0,120,0.0,0.0
5364,84.0,120,120,0.0,0.0
5365,82.0,120,120,0.0,0.0
5366,68.0,0,120,0.0,0.0
5367,65.0,0,120,0.0,0.0
5368,60.0,0,120,0.0,0.0
5369,72.0,120,120,0.0,0.0
5370,80.0,0,120,0.0,0.0
5371,68.0,0,120,0.0,0.0
5372,65.0,120,120,0.0,0.0
5373,82.0,0,120,0.0,0.0
5374,72.0,0,120,0.0,0.0
5375,80.0,120,120,0.0,0.0
5376,60.0,0,120,0.0,0.0
5377,65.0,120,120,0.0,0.0
5378,68.0,0,120,0.0,0.0
5379,79.0,0,120,0.0,0.0
5380,72.0,0,120,0.0,0.0
5381,60.0,120,120,0.0,0.0
5382,77.0,0,120,0.0,0.0
5383,65.0,0,120,0.0,0.0
5384,68.0,0,120,0.0,0.0
5385,79.0,120,120,0.0,0.0
5386,72.0,0,120,0.0,0.0
5387,60.0,120,120,0.0,0.0
5388,80.0,0,120,0.0,0.0
5389,77.0,120,120,0.0,0.0
5390,68.0,0,120,0.0,0.0
5391,65.0,0,120,0.0,0.0
5392,44.0,120,120,0.0,0.0
5393,56.0,0,120,0.0,0.0
5394,54.0,120,120,0.0,0.0
5395,78.0,0,120,0.0,0.0
5396,84.0,0,120,0.0,0.0
5397,51.0,120,120,0.0,0.0
5398,60.0,0,120,0.0,0.0
5399,87.0,0,120,0.0,0.0
5400,54.0,120,120,0.0,0.0
5401,56.0,0,120,0.0,0.0
5402,90.0,0,120,0.0,0.0
5403,60.0,0,120,0.0,0.0
5404,51.0,120,120,0.0,0.0
5405,92.0,0,120,0.0,0.0
5406,56.0,120,120,0.0,0.0
5407,54.0,0,120,0.0,0.0
5408,90.0,120,120,0.0,0.0
5409,60.0,0,120,0.0,0.0
5410,51.0,0,120,0.0,0.0
5411,54.0,0,120,0.0,0.0
5412,89.0,120,120,0.0,0.0
5413,56.0,0,120,0.0,0.0
5414,87.0,120,120,0.0,0.0
5415,51.0,0,120,0.0,0.0
5416,60.0,0,120,0.0,0.0
5417,89.0,0,120,0.0,0.0
5418,56.0,120,120,0.0,0.0
5419,54.0,0,120,0.0,0.0
5420,87.0,0,120,0.0,0.0
5421,60.0,0,120,0.0,0.0
5422,51.0,120,120,0.0,0.0
5423,85.0,0,120,0.0,0.0
5424,54.0,0,120,0.0,0.0
5425,56.0,120,120,0.0,0.0
5426,84.0,0,120,0.0,0.0
5427,60.0,120,120,0.0,0.0
5428,51.0,0,120,0.0,0.0
5429,54.0,0,120,0.0,0.0
5430,85.0,0,120,0.0,0.0
5431,56.0,120,120,0.0,0.0
5432,87.0,0,120,0.0,0.0
5433,60.0,0,120,0.0,0.0
5434,51.0,120,120,0.0,0.0
5435,56.0,0,120,0.0,0.0
5436,84.0,0,120,0.0,0.0
5437,54.0,120,120,0.0,0.0
5438,44.0,120,120,0.0,0.0
5439,54.0,120,120,0.0,0.0
5440,56.0,0,120,0.0,0.0
5441,78.0,0,120,0.0,0.0
5442,84.0,0,120,0.0,0.0
5443,60.0,120,120,0.0,0.0
5444,51.0,0,120,0.0,0.0
5445,87.0,120,120,0.0,0.0
5446,54.0,0,120,0.0,0.0
5447,56.0,0,120,0.0,0.0
5448,60.0,0,120,0.0,0.0
5449,90.0,120,120,0.0,0.0
5450,51.0,0,120,0.0,0.0
5451,54.0,0,120,0.0,0.0
5452,56.0,120,120,0.0,0.0
5453,92.0,0,120,0.0,0.0
5454,51.0,120,120,0.0,0.0
5455,90.0,0,120,0.0,0.0
5456,60.0,0,120,0.0,0.0
5457,89.0,0,120,0.0,0.0
5458,56.0,0,120,0.0,0.0
5459,54.0,120,120,0.0,0.0
5460,51.0,120,120,0.0,0.0
5461,60.0,0,120,0.0,0.0
5462,87.0,0,120,0.0,0.0
5463,56.0,0,120,0.0,0.0
5464,54.0,0,120,0.0,0.0
5465,89.0,120,120,0.0,0.0
5466,51.0,0,120,0.0,0.0
5467,60.0,0,120,0.0,0.0
5468,87.0,120,120,0.0,0.0
5469,54.0,120,120,0.0,0.0
5470,56.0,0,120,0.0,0.0
5471,85.0,0,120,0.0,0.0
5472,84.0,120,120,0.0,0.0
5473,51.0,0,120,0.0,0.0
5474,60.0,0,120,0.0,0.0
5475,56.0,0,120,0.0,0.0
5476,82.0,120,120,0.0,0.0
5477,54.0,0,120,0.0,0.0
5478,80.0,0,120,0.0,0.0
5479,51.0,0,120,0.0,0.0
5480,60.0,120,120,0.0,0.0
5481,78.0,0,120,0.0,0.0
5482,56.0,120,120,0.0,0.0
5483,54.0,0,120,0.0,0.0
5484,77.0,120,120,0.0,0.0
5485,49.0,0,120,0.0,0.0
5486,61.0,0,120,0.0,0.0
5487,80.0,120,120,0.0,0.0
5488,65.0,0,120,0.0,0.0
5489,85.0,0,120,0.0,0.0
5490,68.0,120,120,0.0,0.0
5491,56.0,0,120,0.0,0.0
5492,89.0,120,120,0.0,0.0
5493,65.0,0,120,0.0,0.0
5494,61.0,0,120,0.0,0.0
5495,56.0,0,120,0.0,0.0
5496,68.0,0,120,0.0,0.0
5497,92.0,120,120,0.0,0.0
5498,65.0,120,120,0.0,0.0
5499,61.0,0,120,0.0,0.0
5500,94.0,0,120,0.0,0.0
5501,56.0,120,120,0.0,0.0
5502,92.0,0,120,0.0,0.0
5503,68.0,0,120,0.0,0.0
5504,61.0,0,120,0.0,0.0
5505,65.0,0,120,0.0,0.0
5506,90.0,120,120,0.0,0.0
5507,56.0,120,120,0.0,0.0
5508,68.0,0,120,0.0,0.0
5509,89.0,0,120,0.0,0.0
5510,61.0,0,120,0.0,0.0
5511,65.0,0,120,0.0,0.0
5512,90.0,120,120,0.0,0.0
5513,56.0,0,120,0.0,0.0
5514,68.0,120,120,0.0,0.0
5515,89.0,0,120,0.0,0.0
5516,61.0,120,120,0.0,0.0
5517,65.0,0,120,0.0,0.0
5518,87.0,0,120,0.0,0.0
5519,68.0,0,120,0.0,0.0
5520,56.0,120,120,0.0,0.0
5521,85.0,0,120,0.0,0.0
5522,87.0,120,120,0.0,0.0
5523,65.0,0,120,0.0,0.0
5524,61.0,0,120,0.0,0.0
5525,68.0,0,120,0.0,0.0
5526,56.0,0,120,0.0,0.0
5527,89.0,120,120,0.0,0.0
5528,65.0,0,120,0.0,0.0
5529,61.0,0,120,0.0,0.0
5530,85.0,120,120,0.0,0.0
5531,49.0,120,120,0.0,0.0
5532,80.0,120,120,0.0,0.0
5533,61.0,0,120,0.0,0.0
5534,65.0,0,120,0.0,0.0
5535,56.0,0,120,0.0,0.0
5536,85.0,120,120,0.0,0.0
5537,68.0,0,120,0.0,0.0
5538,89.0,0,120,0.0,0.0
5539,61.0,120,120,0.0,0.0
5540,65.0,0,120,0.0,0.0
5541,92.0,120,120,0.0,0.0
5542,68.0,0,240,0.0,0.0
5543,94.0,120,120,0.0,0.0
5544,92.0,120,120,0.0,0.0
5545,73.0,0,240,0.0,0.0
5546,90.0,120,120,0.0,0.0
5547,77.0,120,240,0.0,0.0
5548,89.0,120,120,0.0,0.0
5549,90.0,0,120,0.0,0.0
5550,80.0,120,240,0.0,0.0
5551,92.0,120,120,0.0,0.0
5552,90.0,0,120,0.0,0.0
5553,89.0,120,120,0.0,0.0
5554,85.0,0,240,0.0,0.0
5555,90.0,120,120,0.0,0.0
5556,92.0,120,120,0.0,0.0
5557,89.0,240,120,0.0,0.0
5558,85.0,0,15,0.0,0.0
5559,82.0,0,720,0.0,0.0
5560,90.0,120,120,0.0,0.0
5561,92.0,120,120,0.0,0.0
5562,90.0,120,120,0.0,0.0
5563,92.0,120,120,0.0,0.0
5564,90.0,120,120,0.0,0.0
5565,84.0,0,240,0.0,0.0
5566,89.0,120,120,0.0,0.0
5567,80.0,240,240,0.0,0.0
5568,90.0,0,120,0.0,0.0
5569,79.0,0,480,0.0,0.0
5570,82.0,0,480,0.0,0.0
5571,88.0,120,120,0.0,0.0
5572,89.0,120,120,0.0,0.0
5573,88.0,240,120,0.0,0.0
5574,84.0,240,480,0.0,0.0
5575,80.0,0,480,0.0,0.0
5576,89.0,120,120,0.0,0.0
5577,91.0,120,120,0.0,0.0
5578,89.0,0,120,0.0,0.0
5579,82.0,0,720,0.0,0.0
5580,85.0,0,720,0.0,0.0
5581,90.0,120,120,0.0,0.0
5582,92.0,120,120,0.0,0.0
5583,90.0,120,120,0.0,0.0
5584,92.0,120,120,0.0,0.0
5585,90.0,120,120,0.0,0.0
5586,80.0,0,240,0.0,0.0
5587,89.0,120,120,0.0,0.0
5588,84.0,0,240,0.0,0.0
5589,90.0,240,120,0.0,0.0
5590,82.0,0,480,0.0,0.0
5591,79.0,240,480,0.0,0.0
5592,88.0,120,120,0.0,0.0
5593,89.0,120,120,0.0,0.0
5594,88.0,0,120,0.0,0.0
5595,80.0,0,480,0.0,0.0
5596,84.0,240,480,0.0,0.0
5597,89.0,120,120,0.0,0.0
5598,91.0,120,120,0.0,0.0
5599,89.0,0,120,0.0,0.0
5600,85.0,0,720,0.0,0.0
5601,82.0,0,720,0.0,0.0
5602,90.0,120,120,0.0,0.0
5603,92.0,120,120,0.0,0.0
5604,90.0,120,120,0.0,0.0
5605,92.0,120,120,0.0,0.0
5606,90.0,120,120,0.0,0.0
5607,80.0,0,240,0.0,0.0
5608,84.0,240,240,0.0,0.0
5609,89.0,120,120,0.0,0.0
5610,91.0,0,120,0.0,0.0
5611,79.0,0,480,0.0,0.0
5612,82.0,0,480,0.0,0.0
5613,88.0,120,120,0.0,0.0
5614,89.0,120,120,0.0,0.0
5615,88.0,240,120,0.0,0.0
5616,77.0,240,480,0.0,0.0
5617,80.0,0,480,0.0,0.0
5618,85.0,120,120,0.0,0.0
5619,87.0,120,120,0.0,0.0
5620,85.0,0,120,0.0,0.0
5621,79.0,0,480,0.0,0.0
5622,76.0,240,480,0.0,0.0
5623,84.0,120,120,0.0,0.0
5624,85.0,120,120,0.0,0.0
5625,84.0,0,120,0.0,0.0
5626,74.0,0,480,0.0,0.0
5627,83.0,120,120,0.0,0.0
5628,84.0,120,120,0.0,0.0
5629,83.0,240,120,0.0,0.0
5630,73.0,0,480,0.0,0.0
5631,77.0,0,15,0.0,0.0
5632,82.0,120,120,0.0,0.0
5633,84.0,120,120,0.0,0.0
5634,82.0,240,120,0.0,0.0
5635,77.0,240,480,0.0,0.0
5636,72.0,0,480,0.0,0.0
5637,80.0,120,120,0.0,0.0
5638,82.0,120,120,0.0,0.0
5639,80.0,0,120,0.0,0.0
5640,71.0,0,960,0.0,0.0
5641,80.0,120,120,0.0,0.0
5642,82.0,120,120,0.0,0.0
5643,80.0,240,120,0.0,0.0
5644,74.0,0,480,0.0,0.0
5645,79.0,120,120,0.0,0.0
5646,80.0,120,120,0.0,0.0
5647,79.0,240,120,0.0,0.0
5648,68.0,0,480,0.0,0.0
5649,72.0,0,960,0.0,0.0
5650,60.0,0,960,0.0,0.0
5651,77.0,120,120,0.0,0.0
5652,79.0,120,120,0.0,0.0
5653,77.0,240,120,0.0,0.0
5654,67.0,0,480,0.0,0.0
5655,76.0,120,120,0.0,0.0
5656,77.0,120,120,0.0,0.0
5657,76.0,240,120,0.0,0.0
5658,49.0,0,720,0.0,0.0
5659,54.0,0,720,0.0,0.0
5660,46.0,0,720,0.0,0.0
5661,61.0,120,120,0.0,0.0
5662,73.0,120,120,0.0,0.0
5663,61.0,120,120,0.0,0.0
5664,73.0,120,120,0.0,0.0
5665,61.0,120,120,0.0,0.0
5666,44.0,0,240,0.0,0.0
5667,48.0,0,240,0.0,0.0
5668,53.0,0,240,0.0,0.0
5669,73.0,120,120,0.0,0.0
5670,61.0,240,120,0.0,0.0
5671,46.0,120,480,0.0,0.0
5672,43.0,0,480,0.0,0.0
5673,52.0,0,480,0.0,0.0
5674,61.0,120,120,0.0,0.0
5675,73.0,120,120,0.0,0.0
5676,72.0,0,120,0.0,0.0
5677,53.0,0,480,0.0,0.0
5678,48.0,240,480,0.0,0.0
5679,44.0,0,480,0.0,0.0
5680,70.0,120,120,0.0,0.0
5681,68.0,120,120,0.0,0.0
5682,67.0,120,120,0.0,0.0
5683,65.0,0,120,0.0,0.0
5684,46.0,120,720,0.0,0.0
5685,54.0,0,720,0.0,0.0
5686,49.0,0,720,0.0,0.0
5687,73.0,120,120,0.0,0.0
5688,85.0,120,120,0.0,0.0
5689,73.0,120,120,0.0,0.0
5690,85.0,120,120,0.0,0.0
5691,73.0,0,120,0.0,0.0
5692,53.0,0,240,0.0,0.0
5693,85.0,120,120,0.0,0.0
5694,48.0,0,240,0.0,0.0
5695,44.0,240,240,0.0,0.0
5696,73.0,0,120,0.0,0.0
5697,43.0,0,480,0.0,0.0
5698,52.0,120,480,0.0,0.0
5699,46.0,0,480,0.0,0.0
5700,73.0,120,120,0.0,0.0
5701,85.0,120,120,0.0,0.0
5702,84.0,0,120,0.0,0.0
5703,82.0,120,120,0.0,0.0
5704,44.0,0,480,0.0,0.0
5705,48.0,0,480,0.0,0.0
5706,53.0,240,480,0.0,0.0
5707,80.0,120,120,0.0,0.0
5708,79.0,120,120,0.0,0.0
5709,77.0,0,120,0.0,0.0
5710,46.0,0,720,0.0,0.0
5711,54.0,0,720,0.0,0.0
5712,49.0,0,720,0.0,0.0
5713,61.0,120,120,0.0,0.0
5714,73.0,120,120,0.0,0.0
5715,61.0,120,120,0.0,0.0
5716,73.0,120,120,0.0,0.0
5717,61.0,120,120,0.0,0.0
5718,48.0,0,240,0.0,0.0
5719,44.0,240,240,0.0,0.0
5720,53.0,0,240,0.0,0.0
5721,73.0,120,120,0.0,0.0
5722,61.0,0,120,0.0,0.0
5723,46.0,0,480,0.0,0.0
5724,43.0,0,480,0.0,0.0
5725,52.0,0,480,0.0,0.0
5726,73.0,120,120,0.0,0.0
5727,61.0,120,120,0.0,0.0
5728,73.0,240,120,0.0,0.0
5729,49.0,0,480,0.0,0.0
5730,41.0,0,480,0.0,0.0
5731,44.0,240,480,0.0,0.0
5732,85.0,120,120,0.0,0.0
5733,73.0,120,120,0.0,0.0
5734,85.0,0,120,0.0,0.0
5735,48.0,0,480,0.0,0.0
5736,40.0,240,480,0.0,0.0
5737,43.0,0,480,0.0,0.0
5738,84.0,120,120,0.0,0.0
5739,72.0,120,120,0.0,0.0
5740,84.0,0,120,0.0,0.0
5741,38.0,0,480,0.0,0.0
5742,47.0,0,480,0.0,0.0
5743,41.0,0,480,0.0,0.0
5744,44.0,240,480,0.0,0.0
5745,83.0,120,120,0.0,0.0
5746,71.0,120,120,0.0,0.0
5747,83.0,0,120,0.0,0.0
5748,40.0,0,480,0.0,0.0
5749,43.0,0,480,0.0,0.0
5750,46.0,0,480,0.0,0.0
5751,82.0,120,120,0.0,0.0
5752,70.0,120,120,0.0,0.0
5753,82.0,240,120,0.0,0.0
5754,41.0,0,480,0.0,0.0
5755,80.0,120,120,0.0,0.0
5756,72.0,120,120,0.0,0.0
5757,68.0,0,120,0.0,0.0
5758,80.0,0,120,0.0,0.0
5759,35.0,0,960,0.0,0.0
5760,44.0,240,15,0.0,0.0
5761,80.0,120,120,0.0,0.0
5762,68.0,0,120,0.0,0.0
5763,74.0,120,120,0.0,0.0
5764,80.0,0,120,0.0,0.0
5765,42.0,0,480,0.0,0.0
5766,79.0,120,120,0.0,0.0
5767,67.0,0,120,0.0,0.0
5768,74.0,120,120,0.0,0.0
5769,79.0,240,120,0.0,0.0
5770,41.0,240,480,0.0,0.0
5771,36.0,120,960,0.0,0.0
5772,77.0,120,120,0.0,0.0
5773,68.0,120,120,0.0,0.0
5774,65.0,0,120,0.0,0.0
5775,77.0,0,120,0.0,0.0
5776,40.0,0,480,0.0,0.0
5777,76.0,120,120,0.0,0.0
5778,64.0,120,120,0.0,0.0
5779,67.0,0,120,0.0,0.0
5780,76.0,0,120,0.0,0.0
5781,65.0,0,120,0.0,0.0
5782,68.0,0,120,0.0,0.0
5783,29.0,0,240,0.0,0.0
5784,32.0,120,240,0.0,0.0
5785,77.0,120,120,0.0,0.0
5786,41.0,0,240,0.0,0.0
5787,36.0,0,240,0.0,0.0
5788,60.0,0,120,0.0,0.0
5789,65.0,120,120,0.0,0.0
5790,68.0,120,120,0.0,0.0
5791,72.0,120,120,0.0,0.0
5792,48.0,120,120,0.0,0.0
5793,73.0,0,120,0.0,0.0
5794,53.0,120,120,0.0,0.0
5795,72.0,0,120,0.0,0.0
5796,56.0,0,120,0.0,0.0
5797,70.0,120,120,0.0,0.0
5798,60.0,120,120,0.0,0.0
5799,68.0,0,120,0.0,0.0
5800,61.0,0,120,0.0,0.0
5801,70.0,120,120,0.0,0.0
5802,60.0,0,120,0.0,0.0
5803,68.0,120,120,0.0,0.0
5804,58.0,0,120,0.0,0.0
5805,67.0,120,120,0.0,0.0
5806,65.0,120,120,0.0,0.0
5807,56.0,0,120,0.0,0.0
5808,63.0,0,120,0.0,0.0
5809,55.0,120,120,0.0,0.0
5810,61.0,120,120,0.0,0.0
5811,53.0,0,120,0.0,0.0
5812,60.0,0,120,0.0,0.0
5813,51.0,120,120,0.0,0.0
5814,58.0,0,120,0.0,0.0
5815,49.0,120,120,0.0,0.0
5816,56.0,0,120,0.0,0.0
5817,48.0,120,120,0.0,0.0
5818,54.0,120,120,0.0,0.0
5819,46.0,0,120,0.0,0.0
5820,44.0,120,120,0.0,0.0
5821,53.0,0,120,0.0,0.0
5822,43.0,120,120,0.0,0.0
5823,44.0,0,120,0.0,0.0
5824,46.0,60,120,0.0,0.0
5825,60.0,60,180,0.0,0.0
5826,54.0,0,180,0.0,0.0
5827,52.0,120,15,0.0,0.0
5828,48.0,0,180,0.0,0.0
5829,44.0,120,120,0.0,0.0
5830,48.0,0,180,0.0,0.0
5831,52.0,0,180,0.0,0.0
5832,58.0,60,180,0.0,0.0
5833,60.0,0,180,0.0,0.0
5834,43.0,60,120,0.0,0.0
5835,41.0,120,120,0.0,0.0
5836,40.0,60,120,0.0,0.0
5837,48.0,60,180,0.0,0.0
5838,52.0,0,180,0.0,0.0
5839,58.0,0,180,0.0,0.0
5840,60.0,0,180,0.0,0.0
5841,38.0,120,120,0.0,0.0
5842,60.0,60,180,0.0,0.0
5843,58.0,0,180,0.0,0.0
5844,52.0,0,180,0.0,0.0
5845,36.0,60,120,0.0,0.0
5846,48.0,0,180,0.0,0.0
5847,34.0,120,120,0.0,0.0
5848,48.0,0,180,0.0,0.0
5849,52.0,60,180,0.0,0.0
5850,32.0,60,120,0.0,0.0
5851,60.0,0,180,0.0,0.0
5852,58.0,0,180,0.0,0.0
5853,31.0,120,120,0.0,0.0
5854,60.0,0,120,0.0,0.0
5855,56.0,0,120,0.0,0.0
5856,53.0,120,120,0.0,0.0
5857,48.0,0,120,0.0,0.0
5858,36.0,0,240,0.0,0.0
5859,29.0,120,240,0.0,0.0
5860,32.0,0,240,0.0,0.0
5861,41.0,0,240,0.0,0.0
5862,72.0,0,120,0.0,0.0
5863,77.0,120,120,0.0,0.0
5864,80.0,120,120,0.0,0.0
5865,84.0,120,120,0.0,0.0
5866,85.0,0,120,0.0,0.0
5867,60.0,120,120,0.0,0.0
5868,84.0,0,120,0.0,0.0
5869,65.0,120,120,0.0,0.0
5870,68.0,120,120,0.0,0.0
5871,82.0,0,120,0.0,0.0
5872,80.0,0,120,0.0,0.0
5873,72.0,120,120,0.0,0.0
5874,82.0,0,120,0.0,0.0
5875,73.0,120,120,0.0,0.0
5876,72.0,0,120,0.0,0.0
5877,80.0,120,120,0.0,0.0
5878,70.0,0,120,0.0,0.0
5879,79.0,120,120,0.0,0.0
5880,68.0,120,120,0.0,0.0
5881,77.0,0,120,0.0,0.0
5882,75.0,120,120,0.0,0.0
5883,67.0,0,120,0.0,0.0
5884,73.0,120,120,0.0,0.0
5885,65.0,0,120,0.0,0.0
5886,63.0,0,120,0.0,0.0
5887,72.0,120,120,0.0,0.0
5888,61.0,120,120,0.0,0.0
5889,70.0,0,120,0.0,0.0
5890,60.0,0,120,0.0,0.0
5891,68.0,120,120,0.0,0.0
5892,58.0,120,120,0.0,0.0
5893,67.0,0,120,0.0,0.0
5894,65.0,120,120,0.0,0.0
5895,56.0,0,120,0.0,0.0
5896,55.0,120,120,0.0,0.0
5897,64.0,120,240,0.0,0.0
5898,56.0,0,120,0.0,0.0
5899,58.0,60,120,0.0,0.0
5900,72.0,0,180,0.0,0.0
5901,67.0,0,180,0.0,0.0
5902,64.0,60,180,0.0,0.0
5903,60.0,0,180,0.0,0.0
5904,56.0,120,120,0.0,0.0
5905,72.0,0,180,0.0,0.0
5906,70.0,60,180,0.0,0.0
5907,64.0,0,180,0.0,0.0
5908,60.0,0,180,0.0,0.0
5909,55.0,60,120,0.0,0.0
5910,53.0,120,120,0.0,0.0
5911,52.0,60,120,0.0,0.0
5912,72.0,60,180,0.0,0.0
5913,70.0,0,180,0.0,0.0
5914,64.0,0,180,0.0,0.0
5915,60.0,0,180,0.0,0.0
5916,50.0,120,120,0.0,0.0
5917,48.0,60,120,0.0,0.0
5918,60.0,0,180,0.0,0.0
5919,64.0,60,180,0.0,0.0
5920,70.0,0,180,0.0,0.0
5921,72.0,0,180,0.0,0.0
5922,46.0,120,120,0.0,0.0
5923,44.0,60,120,0.0,0.0
5924,64.0,0,180,0.0,0.0
5925,60.0,0,180,0.0,0.0
5926,72.0,60,180,0.0,0.0
5927,70.0,0,180,0.0,0.0
5928,43.0,120,120,0.0,0.0
5929,41.0,120,120,0.0,0.0
5930,65.0,0,240,0.0,0.0
5931,68.0,0,240,0.0,0.0
5932,72.0,120,240,0.0,0.0
5933,60.0,0,240,0.0,0.0
5934,43.0,0,120,0.0,0.0
5935,44.0,120,120,0.0,0.0
5936,46.0,120,120,0.0,0.0
5937,48.0,120,120,0.0,0.0
5938,50.0,120,120,0.0,0.0
5939,52.0,60,120,0.0,0.0
5940,84.0,0,180,0.0,0.0
5941,77.0,60,180,0.0,0.0
5942,72.0,0,180,0.0,0.0
5943,80.0,0,180,0.0,0.0
5944,53.0,120,120,0.0,0.0
5945,84.0,0,180,0.0,0.0
5946,76.0,0,180,0.0,0.0
5947,82.0,60,180,0.0,0.0
5948,72.0,0,180,0.0,0.0
5949,55.0,60,120,0.0,0.0
5950,53.0,120,120,0.0,0.0
5951,52.0,60,120,0.0,0.0
5952,82.0,0,180,0.0,0.0
5953,76.0,0,180,0.0,0.0
5954,72.0,0,180,0.0,0.0
5955,84.0,60,180,0.0,0.0
5956,50.0,120,120,0.0,0.0
5957,48.0,60,120,0.0,0.0
5958,82.0,0,180,0.0,0.0
5959,84.0,60,180,0.0,0.0
5960,76.0,0,180,0.0,0.0
5961,72.0,0,180,0.0,0.0
5962,46.0,120,120,0.0,0.0
5963,76.0,0,180,0.0,0.0
5964,72.0,0,180,0.0,0.0
5965,44.0,60,120,0.0,0.0
5966,82.0,0,180,0.0,0.0
5967,84.0,60,180,0.0,0.0
5968,43.0,120,120,0.0,0.0
5969,41.0,60,120,0.0,0.0
5970,72.0,0,180,0.0,0.0
5971,77.0,60,180,0.0,0.0
5972,80.0,0,180,0.0,0.0
5973,84.0,0,180,0.0,0.0
5974,43.0,120,120,0.0,0.0
5975,44.0,120,120,0.0,0.0
5976,46.0,120,120,0.0,0.0
5977,48.0,120,120,0.0,0.0
5978,50.0,120,120,0.0,0.0
5979,60.0,0,180,0.0,0.0
5980,65.0,60,180,0.0,0.0
5981,68.0,0,180,0.0,0.0
5982,52.0,60,120,0.0,0.0
5983,72.0,0,180,0.0,0.0
5984,53.0,120,120,0.0,0.0
5985,60.0,0,180,0.0,0.0
5986,72.0,60,180,0.0,0.0
5987,70.0,0,180,0.0,0.0
5988,64.0,0,180,0.0,0.0
5989,55.0,60,120,0.0,0.0
5990,53.0,120,120,0.0,0.0
5991,52.0,60,120,0.0,0.0
5992,60.0,0,180,0.0,0.0
5993,72.0,0,180,0.0,0.0
5994,70.0,60,180,0.0,0.0
5995,64.0,0,180,0.0,0.0
5996,50.0,120,120,0.0,0.0
5997,48.0,60,120,0.0,0.0
5998,64.0,60,180,0.0,0.0
5999,70.0,0,180,0.0,0.0
6000,72.0,0,180,0.0,0.0
6001,60.0,0,180,0.0,0.0
6002,46.0,120,120,0.0,0.0
6003,72.0,0,180,0.0,0.0
6004,44.0,60,120,0.0,0.0
6005,60.0,0,180,0.0,0.0
6006,70.0,0,180,0.0,0.0
6007,64.0,60,180,0.0,0.0
6008,43.0,120,120,0.0,0.0
6009,41.0,0,480,0.0,0.0
6010,72.0,120,120,0.0,0.0
6011,68.0,0,120,0.0,0.0
6012,60.0,0,120,0.0,0.0
6013,65.0,0,120,0.0,0.0
6014,67.0,120,120,0.0,0.0
6015,68.0,120,120,0.0,0.0
6016,70.0,120,120,0.0,0.0
6017,72.0,120,120,0.0,0.0
6018,74.0,120,120,0.0,0.0
6019,36.0,0,180,0.0,0.0
6020,48.0,60,180,0.0,0.0
6021,76.0,60,120,0.0,0.0
6022,41.0,0,180,0.0,0.0
6023,44.0,0,180,0.0,0.0
6024,77.0,120,120,0.0,0.0
6025,40.0,0,180,0.0,0.0
6026,46.0,0,180,0.0,0.0
6027,36.0,0,180,0.0,0.0
6028,48.0,0,180,0.0,0.0
6029,79.0,60,120,0.0,0.0
6030,43.0,60,180,0.0,0.0
6031,77.0,120,120,0.0,0.0
6032,43.0,0,180,0.0,0.0
6033,36.0,0,180,0.0,0.0
6034,40.0,60,180,0.0,0.0
6035,46.0,0,180,0.0,0.0
6036,48.0,0,180,0.0,0.0
6037,76.0,60,120,0.0,0.0
6038,73.0,120,120,0.0,0.0
6039,72.0,60,120,0.0,0.0
6040,43.0,0,180,0.0,0.0
6041,40.0,60,180,0.0,0.0
6042,48.0,0,180,0.0,0.0
6043,36.0,0,180,0.0,0.0
6044,46.0,0,180,0.0,0.0
6045,70.0,120,120,0.0,0.0
6046,68.0,60,120,0.0,0.0
6047,36.0,0,180,0.0,0.0
6048,48.0,0,180,0.0,0.0
6049,40.0,60,180,0.0,0.0
6050,46.0,0,180,0.0,0.0
6051,43.0,0,180,0.0,0.0
6052,67.0,120,120,0.0,0.0
6053,65.0,120,120,0.0,0.0
6054,48.0,0,480,0.0,0.0
6055,36.0,0,480,0.0,0.0
6056,44.0,0,480,0.0,0.0
6057,41.0,0,480,0.0,0.0
6058,67.0,120,120,0.0,0.0
6059,68.0,120,120,0.0,0.0
6060,70.0,120,120,0.0,0.0
6061,72.0,120,120,0.0,0.0
6062,74.0,120,120,0.0,0.0
6063,76.0,60,120,0.0,0.0
6064,56.0,0,180,0.0,0.0
6065,53.0,60,180,0.0,0.0
6066,48.0,0,180,0.0,0.0
6067,60.0,0,180,0.0,0.0
6068,77.0,120,120,0.0,0.0
6069,52.0,0,180,0.0,0.0
6070,79.0,60,120,0.0,0.0
6071,58.0,0,180,0.0,0.0
6072,60.0,60,180,0.0,0.0
6073,48.0,0,180,0.0,0.0
6074,55.0,0,180,0.0,0.0
6075,77.0,120,120,0.0,0.0
6076,55.0,0,180,0.0,0.0
6077,48.0,0,180,0.0,0.0
6078,58.0,0,180,0.0,0.0
6079,60.0,60,180,0.0,0.0
6080,76.0,60,120,0.0,0.0
6081,52.0,0,180,0.0,0.0
6082,73.0,120,120,0.0,0.0
6083,72.0,60,120,0.0,0.0
6084,55.0,0,180,0.0,0.0
6085,52.0,0,180,0.0,0.0
6086,48.0,0,180,0.0,0.0
6087,58.0,0,180,0.0,0.0
6088,60.0,60,180,0.0,0.0
6089,70.0,120,120,0.0,0.0
6090,68.0,60,120,0.0,0.0
6091,60.0,0,180,0.0,0.0
6092,48.0,0,180,0.0,0.0
6093,55.0,0,180,0.0,0.0
6094,58.0,0,180,0.0,0.0
6095,52.0,60,180,0.0,0.0
6096,67.0,120,120,0.0,0.0
6097,56.0,0,480,0.0,0.0
6098,48.0,120,480,0.0,0.0
6099,60.0,0,480,0.0,0.0
6100,65.0,120,120,0.0,0.0
6101,53.0,0,480,0.0,0.0
6102,67.0,120,120,0.0,0.0
6103,68.0,120,120,0.0,0.0
6104,70.0,0,120,0.0,0.0
6105,72.0,120,120,0.0,0.0
6106,74.0,120,120,0.0,0.0
6107,41.0,0,180,0.0,0.0
6108,76.0,60,120,0.0,0.0
6109,48.0,0,180,0.0,0.0
6110,44.0,0,180,0.0,0.0
6111,36.0,60,180,0.0,0.0
6112,77.0,120,120,0.0,0.0
6113,36.0,60,180,0.0,0.0
6114,40.0,0,180,0.0,0.0
6115,46.0,0,180,0.0,0.0
6116,79.0,60,120,0.0,0.0
6117,48.0,0,180,0.0,0.0
6118,43.0,0,180,0.0,0.0
6119,78.0,120,120,0.0,0.0
6120,79.0,60,120,0.0,0.0
6121,46.0,60,180,0.0,0.0
6122,40.0,0,180,0.0,0.0
6123,36.0,0,180,0.0,0.0
6124,43.0,0,180,0.0,0.0
6125,48.0,0,180,0.0,0.0
6126,78.0,120,120,0.0,0.0
6127,46.0,0,180,0.0,0.0
6128,48.0,60,180,0.0,0.0
6129,36.0,0,180,0.0,0.0
6130,79.0,60,120,0.0,0.0
6131,40.0,0,180,0.0,0.0
6132,43.0,0,180,0.0,0.0
6133,78.0,120,120,0.0,0.0
6134,79.0,60,120,0.0,0.0
6135,43.0,0,180,0.0,0.0
6136,46.0,60,180,0.0,0.0
6137,36.0,0,180,0.0,0.0
6138,40.0,0,180,0.0,0.0
6139,48.0,0,180,0.0,0.0
6140,78.0,120,120,0.0,0.0
6141,46.0,0,180,0.0,0.0
6142,79.0,60,120,0.0,0.0
6143,36.0,60,180,0.0,0.0
6144,48.0,0,180,0.0,0.0
6145,43.0,0,180,0.0,0.0
6146,40.0,0,180,0.0,0.0
6147,78.0,120,120,0.0,0.0
6148,43.0,0,180,0.0,0.0
6149,79.0,60,120,0.0,0.0
6150,48.0,0,180,0.0,0.0
6151,36.0,0,180,0.0,0.0
6152,40.0,0,180,0.0,0.0
6153,46.0,60,180,0.0,0.0
6154,78.0,120,120,0.0,0.0
6155,43.0,60,180,0.0,0.0
6156,36.0,0,180,0.0,0.0
6157,46.0,0,180,0.0,0.0
6158,48.0,0,180,0.0,0.0
6159,79.0,60,120,0.0,0.0
6160,40.0,0,180,0.0,0.0
6161,78.0,120,120,0.0,0.0
6162,43.0,0,180,0.0,0.0
6163,46.0,0,180,0.0,0.0
6164,40.0,0,180,0.0,0.0
6165,48.0,60,180,0.0,0.0
6166,79.0,60,120,0.0,0.0
6167,36.0,0,180,0.0,0.0
6168,78.0,120,120,0.0,0.0
6169,36.0,0,180,0.0,0.0
6170,79.0,60,120,0.0,0.0
6171,46.0,0,180,0.0,0.0
6172,48.0,60,180,0.0,0.0
6173,43.0,0,180,0.0,0.0
6174,40.0,0,180,0.0,0.0
6175,77.0,120,120,0.0,0.0
6176,76.0,60,120,0.0,0.0
6177,48.0,0,180,0.0,0.0
6178,43.0,0,180,0.0,0.0
6179,36.0,0,180,0.0,0.0
6180,40.0,60,180,0.0,0.0
6181,46.0,0,180,0.0,0.0
6182,73.0,120,120,0.0,0.0
6183,36.0,60,180,0.0,0.0
6184,48.0,0,180,0.0,0.0
6185,43.0,0,180,0.0,0.0
6186,72.0,60,120,0.0,0.0
6187,40.0,0,180,0.0,0.0
6188,46.0,0,180,0.0,0.0
6189,70.0,120,120,0.0,0.0
6190,68.0,60,120,0.0,0.0
6191,43.0,0,180,0.0,0.0
6192,46.0,60,180,0.0,0.0
6193,36.0,0,180,0.0,0.0
6194,40.0,0,180,0.0,0.0
6195,48.0,0,180,0.0,0.0
6196,67.0,960,120,0.0,0.0
6197,32.0,0,960,0.0,0.0
6198,60.0,0,960,0.0,0.0
6199,56.0,0,960,0.0,0.0
6200,65.0,0,960,0.0,0.0
6201,29.0,0,960,0.0,0.0
6202,41.0,0,960,0.0,0.0
6203,56.0,120,960,0.0,0.0
6204,36.0,960,15,0.0,0.0
6205,68.0,0,960,0.0,0.0
6206,41.0,0,960,0.0,0.0
6207,29.0,0,960,0.0,0.0
6208,60.0,0,960,0.0,0.0
6209,32.0,0,960,0.0,0.0
6210,48.0,120,240,0.0,0.0
6211,55.0,120,120,0.0,0.0
6212,58.0,0,120,0.0,0.0
6213,67.0,0,120,0.0,0.0
6214,36.0,0,15,0.0,0.0
6215,64.0,120,120,0.0,0.0
6216,58.0,0,120,0.0,0.0
6217,55.0,0,120,0.0,0.0
6218,36.0,120,240,0.0,0.0
6219,55.0,120,120,0.0,0.0
6220,58.0,0,120,0.0,0.0
6221,60.0,0,120,0.0,0.0
6222,55.0,0,120,0.0,0.0
6223,58.0,0,120,0.0,0.0
6224,64.0,120,120,0.0,0.0
6225,36.0,120,240,0.0,0.0
6226,60.0,120,120,0.0,0.0
6227,29.0,0,240,0.0,0.0
6228,65.0,0,120,0.0,0.0
6229,56.0,0,120,0.0,0.0
6230,60.0,0,120,0.0,0.0
6231,56.0,120,120,0.0,0.0
6232,41.0,120,15,0.0,0.0
6233,56.0,0,120,0.0,0.0
6234,60.0,0,120,0.0,0.0
6235,65.0,120,120,0.0,0.0
6236,41.0,120,15,0.0,0.0
6237,68.0,120,120,0.0,0.0
6238,60.0,0,120,0.0,0.0
6239,56.0,0,120,0.0,0.0
6240,36.0,120,240,0.0,0.0
6241,48.0,0,240,0.0,0.0
6242,67.0,0,120,0.0,0.0
6243,58.0,0,120,0.0,0.0
6244,55.0,120,120,0.0,0.0
6245,58.0,0,120,0.0,0.0
6246,64.0,0,120,0.0,0.0
6247,55.0,120,120,0.0,0.0
6248,55.0,120,120,0.0,0.0
6249,58.0,0,120,0.0,0.0
6250,36.0,120,15,0.0,0.0
6251,60.0,0,120,0.0,0.0
6252,55.0,120,120,0.0,0.0
6253,58.0,0,120,0.0,0.0
6254,36.0,120,240,0.0,0.0
6255,64.0,0,120,0.0,0.0
6256,65.0,120,120,0.0,0.0
6257,60.0,0,120,0.0,0.0
6258,56.0,0,120,0.0,0.0
6259,29.0,120,240,0.0,0.0
6260,41.0,0,15,0.0,0.0
6261,60.0,120,120,0.0,0.0
6262,56.0,0,120,0.0,0.0
6263,60.0,0,120,0.0,0.0
6264,65.0,0,120,0.0,0.0
6265,56.0,120,120,0.0,0.0
6266,56.0,120,120,0.0,0.0
6267,68.0,0,120,0.0,0.0
6268,41.0,120,15,0.0,0.0
6269,60.0,0,120,0.0,0.0
6270,55.0,120,120,0.0,0.0
6271,60.0,0,120,0.0,0.0
6272,67.0,0,120,0.0,0.0
6273,31.0,120,240,0.0,0.0
6274,43.0,120,240,0.0,0.0
6275,63.0,0,120,0.0,0.0
6276,60.0,120,120,0.0,0.0
6277,55.0,0,120,0.0,0.0
6278,31.0,120,240,0.0,0.0
6279,55.0,120,120,0.0,0.0
6280,59.0,0,120,0.0,0.0
6281,62.0,0,120,0.0,0.0
6282,31.0,480,240,0.0,0.0
6283,59.0,0,120,0.0,0.0
6284,67.0,120,120,0.0,0.0
6285,55.0,0,120,0.0,0.0
6286,60.0,0,480,0.0,0.0
6287,36.0,300,480,0.0,0.0
6288,60.0,40,90,0.0,0.0
6289,36.0,20,60,0.0,0.0
6290,34.0,40,60,0.0,0.0
6291,62.0,20,90,0.0,0.0
6292,32.0,60,60,0.0,0.0
6293,64.0,960,90,0.0,0.0
6294,31.0,0,60,0.0,0.0
6295,65.0,0,960,0.0,0.0
6296,60.0,0,960,0.0,0.0
6297,56.0,0,960,0.0,0.0
6298,56.0,0,960,0.0,0.0
6299,32.0,0,15,0.0,0.0
6300,41.0,960,15,0.0,0.0
6301,36.0,0,15,0.0,0.0
6302,68.0,0,960,0.0,0.0
6303,29.0,0,15,0.0,0.0
6304,60.0,120,960,0.0,0.0
6305,36.0,0,15,0.0,0.0
6306,55.0,120,120,0.0,0.0
6307,58.0,0,120,0.0,0.0
6308,48.0,120,240,0.0,0.0
6309,67.0,0,120,0.0,0.0
6310,55.0,0,120,0.0,0.0
6311,64.0,120,120,0.0,0.0
6312,58.0,0,120,0.0,0.0
6313,36.0,120,240,0.0,0.0
6314,36.0,120,240,0.0,0.0
6315,55.0,120,120,0.0,0.0
6316,58.0,0,120,0.0,0.0
6317,60.0,0,120,0.0,0.0
6318,55.0,0,120,0.0,0.0
6319,58.0,120,120,0.0,0.0
6320,64.0,0,120,0.0,0.0
6321,36.0,120,240,0.0,0.0
6322,56.0,120,120,0.0,0.0
6323,29.0,120,240,0.0,0.0
6324,65.0,0,120,0.0,0.0
6325,60.0,0,120,0.0,0.0
6326,41.0,0,15,0.0,0.0
6327,56.0,0,120,0.0,0.0
6328,60.0,120,120,0.0,0.0
6329,65.0,120,120,0.0,0.0
6330,60.0,0,120,0.0,0.0
6331,56.0,0,120,0.0,0.0
6332,41.0,120,240,0.0,0.0
6333,41.0,120,240,0.0,0.0
6334,68.0,120,120,0.0,0.0
6335,60.0,0,120,0.0,0.0
6336,56.0,0,120,0.0,0.0
6337,67.0,120,120,0.0,0.0
6338,58.0,0,120,0.0,0.0
6339,55.0,0,120,0.0,0.0
6340,48.0,120,240,0.0,0.0
6341,36.0,0,240,0.0,0.0
6342,55.0,120,120,0.0,0.0
6343,58.0,0,120,0.0,0.0
6344,64.0,0,120,0.0,0.0
6345,60.0,0,120,0.0,0.0
6346,58.0,120,120,0.0,0.0
6347,55.0,0,120,0.0,0.0
6348,36.0,120,15,0.0,0.0
6349,58.0,0,120,0.0,0.0
6350,64.0,0,120,0.0,0.0
6351,55.0,120,120,0.0,0.0
6352,36.0,120,240,0.0,0.0
6353,41.0,0,240,0.0,0.0
6354,29.0,120,240,0.0,0.0
6355,56.0,0,120,0.0,0.0
6356,60.0,0,120,0.0,0.0
6357,65.0,120,120,0.0,0.0
6358,56.0,120,120,0.0,0.0
6359,41.0,120,240,0.0,0.0
6360,60.0,0,120,0.0,0.0
6361,56.0,120,120,0.0,0.0
6362,60.0,0,120,0.0,0.0
6363,65.0,0,120,0.0,0.0
6364,41.0,120,15,0.0,0.0
6365,56.0,120,120,0.0,0.0
6366,60.0,0,120,0.0,0.0
6367,68.0,0,120,0.0,0.0
6368,55.0,120,120,0.0,0.0
6369,60.0,0,120,0.0,0.0
6370,31.0,120,240,0.0,0.0
6371,67.0,0,120,0.0,0.0
6372,43.0,120,240,0.0,0.0
6373,60.0,0,120,0.0,0.0
6374,63.0,0,120,0.0,0.0
6375,55.0,120,120,0.0,0.0
6376,59.0,0,120,0.0,0.0
6377,62.0,120,120,0.0,0.0
6378,55.0,0,120,0.0,0.0
6379,31.0,120,15,0.0,0.0
6380,55.0,120,120,0.0,0.0
6381,59.0,0,120,0.0,0.0
6382,67.0,0,120,0.0,0.0
6383,60.0,0,480,0.0,0.0
6384,36.0,320,480,0.0,0.0
6385,39.0,80,90,0.0,0.0
6386,63.0,0,90,0.0,0.0
6387,65.0,0,90,0.0,0.0
6388,41.0,80,90,0.0,0.0
6389,43.0,960,90,0.0,0.0
6390,67.0,0,90,0.0,0.0
6391,63.0,0,960,0.0,0.0
6392,68.0,0,960,0.0,0.0
6393,60.0,0,15,0.0,0.0
6394,63.0,0,960,0.0,0.0
6395,72.0,0,960,0.0,0.0
6396,44.0,0,15,0.0,0.0
6397,36.0,0,15,0.0,0.0
6398,32.0,0,15,0.0,0.0
6399,39.0,960,15,0.0,0.0
6400,58.0,120,120,0.0,0.0
6401,61.0,0,120,0.0,0.0
6402,51.0,120,240,0.0,0.0
6403,70.0,0,120,0.0,0.0
6404,39.0,0,15,0.0,0.0
6405,67.0,0,120,0.0,0.0
6406,58.0,120,120,0.0,0.0
6407,61.0,0,120,0.0,0.0
6408,58.0,0,120,0.0,0.0
6409,61.0,120,120,0.0,0.0
6410,63.0,0,120,0.0,0.0
6411,39.0,120,240,0.0,0.0
6412,61.0,120,120,0.0,0.0
6413,39.0,120,240,0.0,0.0
6414,67.0,0,120,0.0,0.0
6415,58.0,0,120,0.0,0.0
6416,68.0,0,120,0.0,0.0
6417,63.0,120,120,0.0,0.0
6418,60.0,0,120,0.0,0.0
6419,32.0,0,240,0.0,0.0
6420,60.0,0,120,0.0,0.0
6421,63.0,120,120,0.0,0.0
6422,44.0,120,15,0.0,0.0
6423,63.0,0,120,0.0,0.0
6424,44.0,120,240,0.0,0.0
6425,68.0,120,120,0.0,0.0
6426,60.0,0,120,0.0,0.0
6427,63.0,120,120,0.0,0.0
6428,60.0,0,120,0.0,0.0
6429,72.0,0,120,0.0,0.0
6430,44.0,120,240,0.0,0.0
6431,51.0,120,240,0.0,0.0
6432,39.0,0,240,0.0,0.0
6433,58.0,0,120,0.0,0.0
6434,61.0,0,120,0.0,0.0
6435,70.0,120,120,0.0,0.0
6436,67.0,120,120,0.0,0.0
6437,58.0,0,120,0.0,0.0
6438,61.0,0,120,0.0,0.0
6439,58.0,0,120,0.0,0.0
6440,61.0,0,120,0.0,0.0
6441,63.0,120,120,0.0,0.0
6442,39.0,120,15,0.0,0.0
6443,67.0,0,120,0.0,0.0
6444,39.0,120,240,0.0,0.0
6445,58.0,120,120,0.0,0.0
6446,61.0,0,120,0.0,0.0
6447,63.0,120,120,0.0,0.0
6448,68.0,0,120,0.0,0.0
6449,44.0,0,240,0.0,0.0
6450,32.0,120,240,0.0,0.0
6451,60.0,0,120,0.0,0.0
6452,60.0,120,120,0.0,0.0
6453,63.0,0,120,0.0,0.0
6454,44.0,120,15,0.0,0.0
6455,60.0,120,120,0.0,0.0
6456,63.0,0,120,0.0,0.0
6457,68.0,0,120,0.0,0.0
6458,44.0,120,15,0.0,0.0
6459,60.0,0,120,0.0,0.0
6460,63.0,120,120,0.0,0.0
6461,72.0,0,120,0.0,0.0
6462,60.0,120,120,0.0,0.0
6463,69.0,0,120,0.0,0.0
6464,41.0,0,240,0.0,0.0
6465,29.0,120,240,0.0,0.0
6466,63.0,0,120,0.0,0.0
6467,29.0,120,240,0.0,0.0
6468,60.0,120,120,0.0,0.0
6469,63.0,0,120,0.0,0.0
6470,65.0,0,120,0.0,0.0
6471,60.0,120,120,0.0,0.0
6472,63.0,0,120,0.0,0.0
6473,69.0,0,120,0.0,0.0
6474,29.0,120,240,0.0,0.0
6475,29.0,120,240,0.0,0.0
6476,72.0,0,120,0.0,0.0
6477,63.0,0,120,0.0,0.0
6478,60.0,120,120,0.0,0.0
6479,70.0,120,120,0.0,0.0
6480,46.0,0,240,0.0,0.0
6481,34.0,120,240,0.0,0.0
6482,65.0,0,120,0.0,0.0
6483,61.0,0,120,0.0,0.0
6484,65.0,0,120,0.0,0.0
6485,61.0,120,120,0.0,0.0
6486,61.0,120,120,0.0,0.0
6487,46.0,120,15,0.0,0.0
6488,70.0,0,120,0.0,0.0
6489,65.0,0,120,0.0,0.0
6490,61.0,0,120,0.0,0.0
6491,65.0,0,120,0.0,0.0
6492,73.0,120,120,0.0,0.0
6493,46.0,120,240,0.0,0.0
6494,36.0,120,240,0.0,0.0
6495,72.0,120,120,0.0,0.0
6496,65.0,0,120,0.0,0.0
6497,60.0,0,120,0.0,0.0
6498,48.0,120,240,0.0,0.0
6499,60.0,120,120,0.0,0.0
6500,68.0,0,120,0.0,0.0
6501,65.0,0,120,0.0,0.0
6502,36.0,120,240,0.0,0.0
6503,60.0,0,120,0.0,0.0
6504,67.0,120,120,0.0,0.0
6505,64.0,0,120,0.0,0.0
6506,64.0,0,120,0.0,0.0
6507,72.0,0,120,0.0,0.0
6508,60.0,120,120,0.0,0.0
6509,36.0,480,240,0.0,0.0
6510,29.0,0,480,0.0,0.0
6511,65.0,320,480,0.0,0.0
6512,41.0,0,480,0.0,0.0
6513,39.0,80,90,0.0,0.0
6514,63.0,0,90,0.0,0.0
6515,65.0,80,90,0.0,0.0
6516,41.0,0,90,0.0,0.0
6517,67.0,960,90,0.0,0.0
6518,43.0,0,90,0.0,0.0
6519,39.0,0,960,0.0,0.0
6520,32.0,0,960,0.0,0.0
6521,68.0,0,960,0.0,0.0
6522,63.0,0,960,0.0,0.0
6523,44.0,0,960,0.0,0.0
6524,60.0,0,15,0.0,0.0
6525,72.0,120,960,0.0,0.0
6526,44.0,0,960,0.0,0.0
6527,63.0,0,960,0.0,0.0
6528,36.0,960,15,0.0,0.0
6529,32.0,0,960,0.0,0.0
6530,70.0,0,120,0.0,0.0
6531,61.0,0,120,0.0,0.0
6532,58.0,120,120,0.0,0.0
6533,51.0,0,240,0.0,0.0
6534,39.0,0,15,0.0,0.0
6535,58.0,0,120,0.0,0.0
6536,61.0,120,120,0.0,0.0
6537,67.0,0,120,0.0,0.0
6538,39.0,120,240,0.0,0.0
6539,58.0,120,120,0.0,0.0
6540,61.0,0,120,0.0,0.0
6541,63.0,0,120,0.0,0.0
6542,61.0,120,120,0.0,0.0
6543,58.0,0,120,0.0,0.0
6544,39.0,120,15,0.0,0.0
6545,67.0,0,120,0.0,0.0
6546,60.0,0,120,0.0,0.0
6547,63.0,0,120,0.0,0.0
6548,68.0,120,120,0.0,0.0
6549,32.0,120,240,0.0,0.0
6550,44.0,0,240,0.0,0.0
6551,63.0,120,120,0.0,0.0
6552,60.0,0,120,0.0,0.0
6553,68.0,120,120,0.0,0.0
6554,60.0,0,120,0.0,0.0
6555,63.0,0,120,0.0,0.0
6556,44.0,120,15,0.0,0.0
6557,72.0,120,120,0.0,0.0
6558,63.0,0,120,0.0,0.0
6559,60.0,0,120,0.0,0.0
6560,44.0,120,240,0.0,0.0
6561,61.0,0,120,0.0,0.0
6562,70.0,0,120,0.0,0.0
6563,51.0,120,240,0.0,0.0
6564,58.0,120,120,0.0,0.0
6565,39.0,0,15,0.0,0.0
6566,61.0,0,120,0.0,0.0
6567,67.0,0,120,0.0,0.0
6568,58.0,120,120,0.0,0.0
6569,39.0,120,15,0.0,0.0
6570,63.0,0,120,0.0,0.0
6571,61.0,0,120,0.0,0.0
6572,58.0,120,120,0.0,0.0
6573,39.0,120,15,0.0,0.0
6574,58.0,0,120,0.0,0.0
6575,67.0,120,120,0.0,0.0
6576,61.0,0,120,0.0,0.0
6577,63.0,0,120,0.0,0.0
6578,32.0,0,240,0.0,0.0
6579,60.0,0,120,0.0,0.0
6580,68.0,120,120,0.0,0.0
6581,44.0,120,15,0.0,0.0
6582,63.0,0,120,0.0,0.0
6583,60.0,120,120,0.0,0.0
6584,60.0,120,120,0.0,0.0
6585,63.0,0,120,0.0,0.0
6586,68.0,0,120,0.0,0.0
6587,44.0,120,15,0.0,0.0
6588,60.0,0,120,0.0,0.0
6589,63.0,0,120,0.0,0.0
6590,72.0,120,120,0.0,0.0
6591,44.0,120,240,0.0,0.0
6592,41.0,120,240,0.0,0.0
6593,63.0,0,120,0.0,0.0
6594,69.0,0,120,0.0,0.0
6595,60.0,120,120,0.0,0.0
6596,29.0,0,15,0.0,0.0
6597,60.0,0,120,0.0,0.0
6598,65.0,120,120,0.0,0.0
6599,63.0,0,120,0.0,0.0
6600,29.0,120,15,0.0,0.0
6601,63.0,0,120,0.0,0.0
6602,60.0,0,120,0.0,0.0
6603,69.0,120,120,0.0,0.0
6604,29.0,120,15,0.0,0.0
6605,72.0,120,120,0.0,0.0
6606,63.0,0,120,0.0,0.0
6607,60.0,0,120,0.0,0.0
6608,70.0,0,120,0.0,0.0
6609,65.0,120,120,0.0,0.0
6610,61.0,0,120,0.0,0.0
6611,34.0,0,240,0.0,0.0
6612,46.0,120,15,0.0,0.0
6613,61.0,120,120,0.0,0.0
6614,65.0,0,120,0.0,0.0
6615,46.0,120,15,0.0,0.0
6616,61.0,0,120,0.0,0.0
6617,65.0,120,120,0.0,0.0
6618,70.0,0,120,0.0,0.0
6619,61.0,0,120,0.0,0.0
6620,65.0,120,120,0.0,0.0
6621,73.0,0,120,0.0,0.0
6622,46.0,120,240,0.0,0.0
6623,72.0,120,120,0.0,0.0
6624,36.0,120,240,0.0,0.0
6625,65.0,0,120,0.0,0.0
6626,60.0,0,120,0.0,0.0
6627,68.0,0,120,0.0,0.0
6628,65.0,0,120,0.0,0.0
6629,60.0,120,120,0.0,0.0
6630,48.0,120,240,0.0,0.0
6631,67.0,0,120,0.0,0.0
6632,36.0,120,240,0.0,0.0
6633,60.0,120,120,0.0,0.0
6634,64.0,0,120,0.0,0.0
6635,36.0,120,240,0.0,0.0
6636,60.0,0,120,0.0,0.0
6637,64.0,120,120,0.0,0.0
6638,72.0,0,120,0.0,0.0
6639,65.0,120,120,0.0,0.0
6640,41.0,0,120,0.0,0.0
6641,29.0,0,120,0.0,0.0
6642,60.0,120,120,0.0,0.0
6643,65.0,120,120,0.0,0.0
6644,44.0,0,840,0.0,0.0
6645,48.0,0,720,0.0,0.0
6646,68.0,120,120,0.0,0.0
6647,53.0,120,600,0.0,0.0
6648,72.0,120,120,0.0,0.0
6649,73.0,120,120,0.0,0.0
6650,72.0,120,120,0.0,0.0
6651,70.0,120,120,0.0,0.0
6652,68.0,0,120,0.0,0.0
6653,70.0,120,120,0.0,0.0
6654,41.0,0,15,0.0,0.0
6655,68.0,120,120,0.0,0.0
6656,44.0,0,840,0.0,0.0
6657,48.0,120,720,0.0,0.0
6658,67.0,120,120,0.0,0.0
6659,65.0,120,120,0.0,0.0
6660,53.0,0,600,0.0,0.0
6661,67.0,120,120,0.0,0.0
6662,68.0,120,120,0.0,0.0
6663,65.0,120,120,0.0,0.0
6664,68.0,0,120,0.0,0.0
6665,60.0,120,120,0.0,0.0
6666,41.0,0,960,0.0,0.0
6667,44.0,0,840,0.0,0.0
6668,65.0,120,120,0.0,0.0
6669,48.0,0,720,0.0,0.0
6670,68.0,120,120,0.0,0.0
6671,53.0,0,600,0.0,0.0
6672,72.0,120,120,0.0,0.0
6673,73.0,120,120,0.0,0.0
6674,72.0,120,120,0.0,0.0
6675,70.0,120,120,0.0,0.0
6676,68.0,120,120,0.0,0.0
6677,41.0,0,840,0.0,0.0
6678,70.0,120,120,0.0,0.0
6679,44.0,0,720,0.0,0.0
6680,68.0,120,120,0.0,0.0
6681,67.0,120,120,0.0,0.0
6682,48.0,120,600,0.0,0.0
6683,65.0,120,120,0.0,0.0
6684,53.0,0,480,0.0,0.0
6685,67.0,120,120,0.0,0.0
6686,68.0,120,120,0.0,0.0
6687,65.0,0,120,0.0,0.0
6688,66.0,120,120,0.0,0.0
6689,61.0,120,120,0.0,0.0
6690,49.0,0,840,0.0,0.0
6691,66.0,120,120,0.0,0.0
6692,54.0,0,720,0.0,0.0
6693,70.0,120,120,0.0,0.0
6694,58.0,0,600,0.0,0.0
6695,73.0,120,120,0.0,0.0
6696,75.0,120,120,0.0,0.0
6697,73.0,120,120,0.0,0.0
6698,72.0,120,120,0.0,0.0
6699,70.0,120,120,0.0,0.0
6700,72.0,120,120,0.0,0.0
6701,46.0,0,15,0.0,0.0
6702,70.0,120,120,0.0,0.0
6703,49.0,0,720,0.0,0.0
6704,68.0,120,120,0.0,0.0
6705,54.0,0,600,0.0,0.0
6706,66.0,120,120,0.0,0.0
6707,58.0,0,480,0.0,0.0
6708,68.0,120,120,0.0,0.0
6709,66.0,120,120,0.0,0.0
6710,65.0,120,120,0.0,0.0
6711,64.0,120,120,0.0,0.0
6712,48.0,0,960,0.0,0.0
6713,65.0,120,120,0.0,0.0
6714,55.0,0,840,0.0,0.0
6715,67.0,120,120,0.0,0.0
6716,58.0,120,720,0.0,0.0
6717,68.0,120,120,0.0,0.0
6718,70.0,120,120,0.0,0.0
6719,60.0,0,600,0.0,0.0
6720,68.0,120,120,0.0,0.0
6721,67.0,120,120,0.0,0.0
6722,65.0,120,120,0.0,0.0
6723,64.0,0,120,0.0,0.0
6724,65.0,120,120,0.0,0.0
6725,48.0,0,840,0.0,0.0
6726,55.0,120,720,0.0,0.0
6727,67.0,120,120,0.0,0.0
6728,68.0,120,120,0.0,0.0
6729,58.0,0,600,0.0,0.0
6730,70.0,120,120,0.0,0.0
6731,60.0,0,480,0.0,0.0
6732,72.0,120,120,0.0,0.0
6733,74.0,120,120,0.0,0.0
6734,76.0,0,120,0.0,0.0
6735,77.0,0,120,0.0,0.0
6736,41.0,120,120,0.0,0.0
6737,53.0,0,120,0.0,0.0
6738,72.0,120,120,0.0,0.0
6739,56.0,0,840,0.0,0.0
6740,77.0,120,120,0.0,0.0
6741,80.0,120,120,0.0,0.0
6742,60.0,0,720,0.0,0.0
6743,65.0,0,600,0.0,0.0
6744,84.0,120,120,0.0,0.0
6745,85.0,120,120,0.0,0.0
6746,84.0,120,120,0.0,0.0
6747,82.0,120,120,0.0,0.0
6748,80.0,0,120,0.0,0.0
6749,53.0,120,15,0.0,0.0
6750,82.0,120,120,0.0,0.0
6751,80.0,120,120,0.0,0.0
6752,56.0,0,840,0.0,0.0
6753,79.0,120,120,0.0,0.0
6754,60.0,0,720,0.0,0.0
6755,77.0,120,120,0.0,0.0
6756,65.0,0,600,0.0,0.0
6757,79.0,120,120,0.0,0.0
6758,80.0,120,120,0.0,0.0
6759,77.0,120,120,0.0,0.0
6760,80.0,120,120,0.0,0.0
6761,72.0,120,120,0.0,0.0
6762,77.0,120,120,0.0,0.0
6763,56.0,0,840,0.0,0.0
6764,60.0,0,720,0.0,0.0
6765,80.0,120,120,0.0,0.0
6766,65.0,0,600,0.0,0.0
6767,84.0,120,120,0.0,0.0
6768,85.0,120,120,0.0,0.0
6769,84.0,120,120,0.0,0.0
6770,82.0,120,120,0.0,0.0
6771,80.0,120,120,0.0,0.0
6772,82.0,120,120,0.0,0.0
6773,53.0,0,15,0.0,0.0
6774,56.0,0,720,0.0,0.0
6775,80.0,120,120,0.0,0.0
6776,60.0,0,600,0.0,0.0
6777,79.0,120,120,0.0,0.0
6778,65.0,0,480,0.0,0.0
6779,77.0,120,120,0.0,0.0
6780,79.0,120,120,0.0,0.0
6781,80.0,120,120,0.0,0.0
6782,77.0,0,120,0.0,0.0
6783,78.0,120,120,0.0,0.0
6784,58.0,0,960,0.0,0.0
6785,73.0,120,120,0.0,0.0
6786,61.0,0,840,0.0,0.0
6787,78.0,120,120,0.0,0.0
6788,82.0,120,120,0.0,0.0
6789,66.0,120,720,0.0,0.0
6790,85.0,120,120,0.0,0.0
6791,70.0,0,600,0.0,0.0
6792,87.0,120,120,0.0,0.0
6793,85.0,120,120,0.0,0.0
6794,84.0,120,120,0.0,0.0
6795,82.0,0,120,0.0,0.0
6796,84.0,120,120,0.0,0.0
6797,58.0,0,840,0.0,0.0
6798,82.0,120,120,0.0,0.0
6799,61.0,0,720,0.0,0.0
6800,66.0,120,600,0.0,0.0
6801,80.0,120,120,0.0,0.0
6802,70.0,0,480,0.0,0.0
6803,78.0,120,120,0.0,0.0
6804,80.0,120,120,0.0,0.0
6805,78.0,120,120,0.0,0.0
6806,77.0,0,120,0.0,0.0
6807,76.0,120,120,0.0,0.0
6808,60.0,0,960,0.0,0.0
6809,77.0,120,120,0.0,0.0
6810,64.0,0,840,0.0,0.0
6811,79.0,120,120,0.0,0.0
6812,67.0,0,720,0.0,0.0
6813,80.0,120,120,0.0,0.0
6814,72.0,120,600,0.0,0.0
6815,82.0,120,120,0.0,0.0
6816,80.0,120,120,0.0,0.0
6817,79.0,120,120,0.0,0.0
6818,77.0,120,120,0.0,0.0
6819,76.0,0,120,0.0,0.0
6820,77.0,120,120,0.0,0.0
6821,48.0,0,840,0.0,0.0
6822,52.0,0,720,0.0,0.0
6823,79.0,120,120,0.0,0.0
6824,80.0,120,120,0.0,0.0
6825,55.0,120,600,0.0,0.0
6826,82.0,120,120,0.0,0.0
6827,60.0,0,480,0.0,0.0
6828,84.0,120,120,0.0,0.0
6829,86.0,120,120,0.0,0.0
6830,88.0,0,120,0.0,0.0
6831,89.0,120,120,0.0,0.0
6832,41.0,0,120,0.0,0.0
6833,53.0,0,120,0.0,0.0
6834,80.0,120,120,0.0,0.0
6835,84.0,120,120,0.0,0.0
6836,89.0,600,120,0.0,0.0
6837,92.0,120,600,0.0,0.0
6838,72.0,0,960,0.0,0.0
6839,77.0,0,840,0.0,0.0
6840,80.0,120,720,0.0,0.0
6841,84.0,120,120,0.0,0.0
6842,89.0,120,120,0.0,0.0
6843,92.0,120,120,0.0,0.0
6844,96.0,120,120,0.0,0.0
6845,92.0,0,120,0.0,0.0
6846,60.0,0,240,0.0,0.0
6847,91.0,120,120,0.0,0.0
6848,88.0,120,120,0.0,0.0
6849,65.0,0,240,0.0,0.0
6850,89.0,120,120,0.0,0.0
6851,80.0,120,120,0.0,0.0
6852,84.0,120,120,0.0,0.0
6853,89.0,600,120,0.0,0.0
6854,92.0,120,600,0.0,0.0
6855,72.0,0,960,0.0,0.0
6856,77.0,0,840,0.0,0.0
6857,80.0,120,720,0.0,0.0
6858,84.0,120,120,0.0,0.0
6859,89.0,120,120,0.0,0.0
6860,92.0,120,120,0.0,0.0
6861,96.0,120,120,0.0,0.0
6862,92.0,0,120,0.0,0.0
6863,60.0,0,240,0.0,0.0
6864,91.0,120,120,0.0,0.0
6865,88.0,120,120,0.0,0.0
6866,65.0,120,240,0.0,0.0
6867,89.0,120,120,0.0,0.0
6868,80.0,0,120,0.0,0.0
6869,84.0,120,120,0.0,0.0
6870,89.0,600,120,0.0,0.0
6871,92.0,120,600,0.0,0.0
6872,72.0,0,960,0.0,0.0
6873,77.0,0,840,0.0,0.0
6874,80.0,120,720,0.0,0.0
6875,84.0,120,120,0.0,0.0
6876,89.0,120,120,0.0,0.0
6877,92.0,120,120,0.0,0.0
6878,96.0,120,120,0.0,0.0
6879,92.0,0,120,0.0,0.0
6880,60.0,120,240,0.0,0.0
6881,91.0,120,120,0.0,0.0
6882,88.0,0,120,0.0,0.0
6883,89.0,120,120,0.0,0.0
6884,65.0,120,240,0.0,0.0
6885,80.0,0,120,0.0,0.0
6886,84.0,120,120,0.0,0.0
6887,89.0,600,120,0.0,0.0
6888,92.0,120,600,0.0,0.0
6889,72.0,120,960,0.0,0.0
6890,77.0,0,840,0.0,0.0
6891,80.0,0,720,0.0,0.0
6892,84.0,120,120,0.0,0.0
6893,89.0,120,120,0.0,0.0
6894,92.0,120,120,0.0,0.0
6895,96.0,120,120,0.0,0.0
6896,92.0,0,120,0.0,0.0
6897,60.0,120,240,0.0,0.0
6898,91.0,120,120,0.0,0.0
6899,88.0,0,120,0.0,0.0
6900,65.0,0,480,0.0,0.0
6901,89.0,120,120,0.0,0.0
6902,84.0,120,120,0.0,0.0
6903,89.0,120,120,0.0,0.0
6904,92.0,120,120,0.0,0.0
6905,96.0,120,120,0.0,0.0
6906,92.0,120,120,0.0,0.0
6907,91.0,120,120,0.0,0.0
6908,60.0,0,240,0.0,0.0
6909,88.0,120,120,0.0,0.0
6910,53.0,0,480,0.0,0.0
6911,89.0,120,120,0.0,0.0
6912,84.0,120,120,0.0,0.0
6913,89.0,120,120,0.0,0.0
6914,92.0,120,120,0.0,0.0
6915,96.0,120,120,0.0,0.0
6916,92.0,120,120,0.0,0.0
6917,91.0,120,120,0.0,0.0
6918,48.0,120,240,0.0,0.0
6919,88.0,0,120,0.0,0.0
6920,89.0,120,120,0.0,0.0
6921,41.0,0,480,0.0,0.0
6922,84.0,120,120,0.0,0.0
6923,89.0,120,120,0.0,0.0
6924,92.0,120,120,0.0,0.0
6925,96.0,120,120,0.0,0.0
6926,92.0,120,120,0.0,0.0
6927,91.0,120,120,0.0,0.0
6928,36.0,0,240,0.0,0.0
6929,88.0,120,120,0.0,0.0
6930,29.0,0,240,0.0,0.0
6931,96.0,120,120,0.0,0.0
6932,92.0,120,120,0.0,0.0
6933,36.0,0,240,0.0,0.0
6934,91.0,120,120,0.0,0.0
6935,88.0,120,120,0.0,0.0
6936,29.0,120,240,0.0,0.0
6937,96.0,120,120,0.0,0.0
6938,92.0,0,120,0.0,0.0
6939,91.0,120,120,0.0,0.0
6940,36.0,0,240,0.0,0.0
6941,88.0,120,120,0.0,0.0
6942,96.0,0,120,0.0,0.0
6943,29.0,120,120,0.0,0.0
6944,92.0,120,120,0.0,0.0
6945,32.0,0,120,0.0,0.0
6946,36.0,120,120,0.0,0.0
6947,89.0,0,120,0.0,0.0
6948,84.0,0,120,0.0,0.0
6949,41.0,120,120,0.0,0.0
6950,92.0,120,120,0.0,0.0
6951,29.0,0,120,0.0,0.0
6952,89.0,0,120,0.0,0.0
6953,32.0,120,120,0.0,0.0
6954,84.0,120,120,0.0,0.0
6955,36.0,0,120,0.0,0.0
6956,41.0,0,120,0.0,0.0
6957,80.0,120,120,0.0,0.0
6958,89.0,0,120,0.0,0.0
6959,29.0,120,120,0.0,0.0
6960,84.0,0,120,0.0,0.0
6961,32.0,120,120,0.0,0.0
6962,36.0,120,120,0.0,0.0
6963,80.0,0,120,0.0,0.0
6964,77.0,0,120,0.0,0.0
6965,41.0,120,120,0.0,0.0
6966,29.0,0,120,0.0,0.0
6967,84.0,120,120,0.0,0.0
6968,32.0,0,120,0.0,0.0
6969,80.0,120,120,0.0,0.0
6970,36.0,0,120,0.0,0.0
6971,77.0,120,120,0.0,0.0
6972,41.0,120,120,0.0,0.0
6973,72.0,0,120,0.0,0.0
6974,80.0,120,120,0.0,0.0
6975,29.0,0,120,0.0,0.0
6976,32.0,0,120,0.0,0.0
6977,77.0,120,120,0.0,0.0
6978,36.0,120,120,0.0,0.0
6979,72.0,0,120,0.0,0.0
6980,68.0,120,120,0.0,0.0
6981,41.0,0,120,0.0,0.0
6982,29.0,120,120,0.0,0.0
6983,77.0,0,120,0.0,0.0
6984,72.0,0,120,0.0,0.0
6985,32.0,120,120,0.0,0.0
6986,36.0,0,120,0.0,0.0
6987,68.0,120,120,0.0,0.0
6988,41.0,0,120,0.0,0.0
6989,65.0,120,120,0.0,0.0
6990,29.0,0,120,0.0,0.0
6991,72.0,120,120,0.0,0.0
6992,32.0,0,120,0.0,0.0
6993,68.0,120,120,0.0,0.0
6994,65.0,120,120,0.0,0.0
6995,36.0,0,120,0.0,0.0
6996,41.0,0,120,0.0,0.0
6997,60.0,120,120,0.0,0.0
6998,29.0,120,120,0.0,0.0
6999,68.0,0,120,0.0,0.0
7000,65.0,0,120,0.0,0.0
7001,32.0,120,120,0.0,0.0
7002,36.0,0,120,0.0,0.0
7003,60.0,120,120,0.0,0.0
7004,41.0,0,120,0.0,0.0
7005,56.0,120,120,0.0,0.0
7006,29.0,0,120,0.0,0.0
7007,65.0,120,120,0.0,0.0
7008,60.0,0,120,0.0,0.0
7009,32.0,120,120,0.0,0.0
7010,56.0,120,120,0.0,0.0
7011,36.0,0,120,0.0,0.0
7012,41.0,120,120,0.0,0.0
7013,53.0,0,120,0.0,0.0
7014,29.0,0,120,0.0,0.0
7015,60.0,120,120,0.0,0.0
7016,56.0,0,120,0.0,0.0
7017,32.0,120,120,0.0,0.0
7018,53.0,120,120,0.0,0.0
7019,36.0,0,120,0.0,0.0
7020,41.0,0,120,0.0,0.0
7021,48.0,120,120,0.0,0.0
7022,29.0,120,120,0.0,0.0
7023,56.0,0,120,0.0,0.0
7024,51.0,120,120,0.0,0.0
7025,32.0,0,120,0.0,0.0
7026,48.0,120,120,0.0,0.0
7027,36.0,0,120,0.0,0.0
7028,41.0,0,120,0.0,0.0
7029,44.0,120,120,0.0,0.0
7030,29.0,120,120,0.0,0.0
7031,53.0,0,120,0.0,0.0
7032,32.0,120,120,0.0,0.0
7033,48.0,0,120,0.0,0.0
7034,44.0,0,120,0.0,0.0
7035,36.0,120,120,0.0,0.0
7036,41.0,0,120,0.0,0.0
7037,29.0,0,240,0.0,0.0
7038,32.0,0,240,0.0,0.0
7039,36.0,0,240,0.0,0.0
7040,41.0,0,240,0.0,0.0
7041,44.0,0,240,0.0,0.0
7042,48.0,240,15,0.0,0.0
7043,53.0,0,240,0.0,0.0
7044,65.0,0,240,0.0,0.0
7045,68.0,960,240,0.0,0.0
7046,72.0,0,240,0.0,0.0
7047,77.0,0,240,0.0,0.0
7048,41.0,0,240,0.0,0.0
7049,36.0,0,240,0.0,0.0
7050,32.0,0,240,0.0,0.0
7051,29.0,0,240,0.0,0.0
7052,65.0,0,240,0.0,0.0
7053,60.0,0,240,0.0,0.0
7054,29.0,0,240,0.0,0.0
7055,41.0,0,240,0.0,0.0
7056,36.0,720,240,0.0,0.0
7057,32.0,0,240,0.0,0.0
7058,53.0,0,240,0.0,0.0
7059,56.0,0,240,0.0,0.0
