,note,step,duration,channel,velocity
0,62.0,0,240,0.0,46.0
1,70.0,240,240,0.0,46.0
2,67.0,0,240,0.0,49.0
3,62.0,0,240,2.0,43.0
4,58.0,240,240,3.0,43.0
5,57.0,0,240,3.0,44.0
6,60.0,240,240,2.0,44.0
7,66.0,0,240,0.0,51.0
8,55.0,0,240,3.0,46.0
9,58.0,240,240,2.0,46.0
10,67.0,0,240,0.0,54.0
11,54.0,0,240,3.0,50.0
12,57.0,240,240,2.0,50.0
13,54.0,240,240,2.0,47.0
14,50.0,0,240,3.0,47.0
15,52.0,0,240,3.0,45.0
16,55.0,240,240,2.0,45.0
17,54.0,240,240,3.0,42.0
18,57.0,0,240,2.0,42.0
19,62.0,0,960,1.0,57.0
20,72.0,0,960,0.0,57.0
21,58.0,0,240,2.0,42.0
22,55.0,240,240,3.0,42.0
23,70.0,0,240,0.0,48.0
24,58.0,0,240,3.0,45.0
25,67.0,0,240,0.0,50.0
26,62.0,240,240,2.0,45.0
27,60.0,0,240,2.0,48.0
28,66.0,240,240,0.0,53.0
29,57.0,0,240,3.0,48.0
30,58.0,0,240,2.0,50.0
31,55.0,240,240,3.0,50.0
32,67.0,0,240,0.0,57.0
33,51.0,240,240,3.0,50.0
34,55.0,240,240,3.0,48.0
35,75.0,0,960,0.0,60.0
36,60.0,240,240,3.0,46.0
37,48.0,0,960,3.0,57.0
38,67.0,240,960,1.0,60.0
39,74.0,240,156,0.0,54.0
40,78.0,240,240,0.0,54.0
41,58.0,0,480,3.0,44.0
42,79.0,240,156,0.0,53.0
43,58.0,0,240,3.0,43.0
44,74.0,0,240,0.0,52.0
45,62.0,0,0,2.0,42.0
46,72.0,0,156,0.0,52.0
47,54.0,240,480,3.0,42.0
48,80.0,240,240,0.0,51.0
49,81.0,240,156,0.0,50.0
50,54.0,0,240,3.0,39.0
51,62.0,240,240,2.0,39.0
52,72.0,0,240,0.0,49.0
53,70.0,0,240,0.0,49.0
54,62.0,0,480,2.0,38.0
55,55.0,240,480,3.0,38.0
56,79.0,240,240,0.0,48.0
57,69.0,0,240,0.0,47.0
58,60.0,0,480,2.0,36.0
59,75.0,240,240,0.0,46.0
60,48.0,240,480,3.0,36.0
61,67.0,0,360,0.0,46.0
62,69.0,360,60,0.0,44.0
63,58.0,240,480,2.0,34.0
64,67.0,60,60,0.0,43.0
65,66.0,0,156,0.0,42.0
66,50.0,0,720,3.0,34.0
67,57.0,60,240,2.0,32.0
68,62.0,240,240,0.0,44.0
69,70.0,240,240,0.0,46.0
70,58.0,0,240,3.0,40.0
71,67.0,0,240,0.0,46.0
72,62.0,240,240,2.0,40.0
73,66.0,0,240,0.0,49.0
74,60.0,0,240,2.0,42.0
75,57.0,240,240,3.0,42.0
76,67.0,0,240,0.0,52.0
77,58.0,240,240,2.0,44.0
78,55.0,0,240,3.0,44.0
79,57.0,240,240,2.0,47.0
80,54.0,0,240,3.0,47.0
81,50.0,0,240,3.0,40.0
82,54.0,240,240,2.0,40.0
83,55.0,0,240,2.0,39.0
84,52.0,240,240,3.0,39.0
85,72.0,0,960,0.0,55.0
86,57.0,0,240,2.0,38.0
87,54.0,240,240,3.0,38.0
88,62.0,0,960,1.0,55.0
89,55.0,240,240,3.0,38.0
90,70.0,0,240,0.0,44.0
91,58.0,0,240,2.0,38.0
92,62.0,240,240,2.0,40.0
93,58.0,0,240,3.0,40.0
94,67.0,0,240,0.0,47.0
95,60.0,240,240,2.0,42.0
96,66.0,0,240,0.0,51.0
97,57.0,0,240,3.0,42.0
98,58.0,0,240,2.0,45.0
99,67.0,240,240,0.0,54.0
100,55.0,0,240,3.0,45.0
101,51.0,240,240,2.0,47.0
102,55.0,240,240,2.0,45.0
103,48.0,0,0,3.0,44.0
104,75.0,240,0,0.0,56.0
105,57.0,0,240,2.0,44.0
106,74.0,120,120,0.0,56.0
107,77.0,120,120,0.0,57.0
108,76.0,120,120,0.0,58.0
109,50.0,0,480,3.0,42.0
110,58.0,240,480,2.0,42.0
111,79.0,120,120,0.0,59.0
112,77.0,120,120,0.0,60.0
113,75.0,0,120,0.0,62.0
114,50.0,0,240,3.0,51.0
115,53.0,120,240,2.0,51.0
116,74.0,120,120,0.0,58.0
117,72.0,0,40,0.0,57.0
118,74.0,40,40,0.0,56.0
119,75.0,40,40,0.0,56.0
120,74.0,40,125,0.0,56.0
121,55.0,0,245,2.0,46.0
122,72.0,0,240,0.0,55.0
123,51.0,120,480,3.0,46.0
124,60.0,120,240,2.0,44.0
125,71.0,240,40,0.0,52.0
126,72.0,40,40,0.0,52.0
127,74.0,40,40,0.0,52.0
128,55.0,0,240,2.0,42.0
129,72.0,40,125,0.0,51.0
130,70.0,0,240,0.0,50.0
131,52.0,0,480,3.0,42.0
132,60.0,120,240,2.0,40.0
133,69.0,0,40,0.0,48.0
134,70.0,40,40,0.0,48.0
135,72.0,40,40,0.0,47.0
136,70.0,40,120,0.0,47.0
137,69.0,120,120,0.0,46.0
138,67.0,120,120,0.0,45.0
139,53.0,240,480,3.0,38.0
140,60.0,0,480,2.0,38.0
141,65.0,120,120,0.0,44.0
142,64.0,120,120,0.0,43.0
143,65.0,120,120,0.0,42.0
144,67.0,120,60,0.0,42.0
145,65.0,60,60,0.0,42.0
146,57.0,60,216,3.0,38.0
147,75.0,0,240,0.0,46.0
148,65.0,120,120,2.0,38.0
149,69.0,0,156,0.0,46.0
150,60.0,120,216,3.0,38.0
151,65.0,120,120,2.0,38.0
152,69.0,120,156,0.0,46.0
153,63.0,0,216,3.0,38.0
154,65.0,120,120,2.0,38.0
155,69.0,0,156,0.0,47.0
156,60.0,120,216,3.0,38.0
157,65.0,120,120,2.0,39.0
158,70.0,0,120,0.0,47.0
159,72.0,120,40,0.0,47.0
160,70.0,40,40,0.0,47.0
161,62.0,120,216,3.0,39.0
162,65.0,0,120,2.0,39.0
163,69.0,40,40,0.0,47.0
164,70.0,0,120,0.0,48.0
165,58.0,40,216,3.0,39.0
166,74.0,0,120,0.0,48.0
167,65.0,120,120,2.0,39.0
168,77.0,0,192,0.0,48.0
169,62.0,120,216,3.0,39.0
170,65.0,120,120,2.0,39.0
171,58.0,120,216,3.0,40.0
172,65.0,120,120,2.0,40.0
173,77.0,0,240,0.0,48.0
174,57.0,0,216,3.0,40.0
175,87.0,120,240,0.0,49.0
176,65.0,120,120,2.0,40.0
177,81.0,120,156,0.0,49.0
178,60.0,0,216,3.0,40.0
179,65.0,120,120,2.0,40.0
180,81.0,0,156,0.0,50.0
181,63.0,120,216,3.0,40.0
182,65.0,120,120,2.0,41.0
183,81.0,120,156,0.0,50.0
184,60.0,0,216,3.0,41.0
185,65.0,120,120,2.0,41.0
186,82.0,120,120,0.0,50.0
187,84.0,120,40,0.0,51.0
188,82.0,40,40,0.0,51.0
189,62.0,0,216,3.0,41.0
190,65.0,0,120,2.0,41.0
191,81.0,40,40,0.0,51.0
192,82.0,40,120,0.0,51.0
193,58.0,0,216,3.0,41.0
194,65.0,0,120,2.0,41.0
195,86.0,120,120,0.0,51.0
196,89.0,120,192,0.0,51.0
197,62.0,0,216,3.0,42.0
198,65.0,120,120,2.0,42.0
199,58.0,120,216,3.0,42.0
200,65.0,120,120,2.0,34.0
201,65.0,0,240,0.0,51.0
202,57.0,120,216,3.0,42.0
203,65.0,120,120,2.0,42.0
204,75.0,0,240,0.0,52.0
205,69.0,120,156,0.0,52.0
206,60.0,0,216,3.0,42.0
207,65.0,120,120,2.0,43.0
208,69.0,120,156,0.0,53.0
209,63.0,0,216,3.0,43.0
210,65.0,120,120,2.0,43.0
211,69.0,120,156,0.0,53.0
212,60.0,0,216,3.0,43.0
213,65.0,120,120,2.0,43.0
214,70.0,0,120,0.0,53.0
215,72.0,120,40,0.0,51.0
216,70.0,40,40,0.0,52.0
217,62.0,120,216,3.0,43.0
218,65.0,0,120,2.0,43.0
219,69.0,40,40,0.0,52.0
220,70.0,0,120,0.0,52.0
221,58.0,40,216,3.0,44.0
222,65.0,0,120,2.0,44.0
223,72.0,120,120,0.0,52.0
224,74.0,120,120,0.0,52.0
225,70.0,0,120,0.0,52.0
226,65.0,120,120,2.0,44.0
227,72.0,120,120,0.0,53.0
228,58.0,0,216,2.0,44.0
229,56.0,0,456,3.0,44.0
230,74.0,120,120,0.0,53.0
231,65.0,0,120,2.0,44.0
232,75.0,120,120,0.0,53.0
233,77.0,0,40,0.0,53.0
234,75.0,40,40,0.0,53.0
235,74.0,40,40,0.0,54.0
236,63.0,120,120,2.0,45.0
237,75.0,40,120,0.0,54.0
238,58.0,0,216,2.0,45.0
239,55.0,0,456,3.0,44.0
240,63.0,120,120,2.0,45.0
241,77.0,0,120,0.0,54.0
242,79.0,120,120,0.0,54.0
243,81.0,120,120,0.0,54.0
244,63.0,0,120,2.0,45.0
245,82.0,0,120,0.0,55.0
246,58.0,120,216,2.0,45.0
247,51.0,0,456,3.0,45.0
248,63.0,120,120,2.0,45.0
249,79.0,0,120,0.0,55.0
250,76.0,0,120,0.0,57.0
251,62.0,120,120,2.0,45.0
252,77.0,0,120,0.0,56.0
253,79.0,0,120,0.0,56.0
254,53.0,120,456,3.0,45.0
255,58.0,120,216,2.0,44.0
256,77.0,0,120,0.0,55.0
257,62.0,120,120,2.0,43.0
258,77.0,120,120,0.0,54.0
259,63.0,0,120,2.0,42.0
260,75.0,120,120,0.0,54.0
261,74.0,0,120,0.0,53.0
262,53.0,0,456,3.0,43.0
263,57.0,120,216,2.0,42.0
264,72.0,120,120,0.0,52.0
265,63.0,0,120,2.0,41.0
266,73.0,120,120,0.0,51.0
267,74.0,120,120,0.0,51.0
268,75.0,120,120,0.0,50.0
269,74.0,120,120,0.0,49.0
270,58.0,0,480,3.0,40.0
271,62.0,0,480,2.0,40.0
272,77.0,120,120,0.0,49.0
273,75.0,120,120,0.0,48.0
274,74.0,120,120,0.0,47.0
275,72.0,120,120,0.0,46.0
276,70.0,120,120,0.0,46.0
277,72.0,120,40,0.0,47.0
278,70.0,40,40,0.0,47.0
279,62.0,0,216,3.0,40.0
280,65.0,0,120,2.0,41.0
281,69.0,40,40,0.0,48.0
282,70.0,40,120,0.0,48.0
283,58.0,0,216,3.0,41.0
284,65.0,0,120,2.0,42.0
285,72.0,120,120,0.0,49.0
286,74.0,120,120,0.0,50.0
287,65.0,120,120,2.0,43.0
288,70.0,0,120,0.0,51.0
289,72.0,0,120,0.0,52.0
290,58.0,120,216,2.0,44.0
291,56.0,0,472,3.0,43.0
292,74.0,120,120,0.0,53.0
293,65.0,0,120,2.0,45.0
294,75.0,120,120,0.0,54.0
295,77.0,120,120,0.0,55.0
296,63.0,0,120,2.0,46.0
297,79.0,120,120,0.0,56.0
298,58.0,0,216,2.0,47.0
299,55.0,0,456,3.0,45.0
300,63.0,0,120,2.0,47.0
301,81.0,120,120,0.0,56.0
302,84.0,120,120,0.0,57.0
303,82.0,120,120,0.0,58.0
304,63.0,0,120,2.0,49.0
305,81.0,120,120,0.0,59.0
306,58.0,0,216,2.0,49.0
307,51.0,0,456,3.0,48.0
308,63.0,120,120,2.0,50.0
309,79.0,0,120,0.0,60.0
310,79.0,0,120,0.0,61.0
311,62.0,120,120,2.0,51.0
312,77.0,0,120,0.0,59.0
313,76.0,0,120,0.0,59.0
314,50.0,120,456,3.0,51.0
315,58.0,120,216,2.0,51.0
316,77.0,0,120,0.0,58.0
317,62.0,120,120,2.0,50.0
318,81.0,0,120,0.0,58.0
319,60.0,120,120,2.0,50.0
320,79.0,0,120,0.0,58.0
321,77.0,0,120,0.0,57.0
322,51.0,120,456,3.0,50.0
323,55.0,120,216,2.0,49.0
324,75.0,0,120,0.0,57.0
325,60.0,120,120,2.0,49.0
326,75.0,120,120,0.0,56.0
327,74.0,120,120,0.0,56.0
328,62.0,0,120,2.0,48.0
329,73.0,0,120,0.0,56.0
330,58.0,120,216,2.0,48.0
331,53.0,0,456,3.0,49.0
332,74.0,0,120,0.0,55.0
333,62.0,120,120,2.0,48.0
334,77.0,120,120,0.0,55.0
335,75.0,120,120,0.0,54.0
336,63.0,0,120,2.0,47.0
337,74.0,120,120,0.0,53.0
338,57.0,0,216,2.0,47.0
339,53.0,0,456,3.0,47.0
340,72.0,0,120,0.0,51.0
341,63.0,120,120,2.0,46.0
342,65.0,120,120,2.0,46.0
343,64.0,120,120,2.0,45.0
344,58.0,0,456,3.0,46.0
345,62.0,120,456,2.0,46.0
346,70.0,0,480,0.0,50.0
347,65.0,120,120,2.0,45.0
348,67.0,120,120,2.0,45.0
349,65.0,120,120,2.0,44.0
350,72.0,0,120,0.0,51.0
351,63.0,120,120,2.0,44.0
352,62.0,120,120,2.0,44.0
353,74.0,0,120,0.0,51.0
354,75.0,0,240,0.0,50.0
355,65.0,120,120,2.0,43.0
356,69.0,120,156,0.0,50.0
357,60.0,120,440,3.0,43.0
358,63.0,0,216,2.0,43.0
359,65.0,120,120,2.0,42.0
360,69.0,0,156,0.0,49.0
361,65.0,120,120,2.0,42.0
362,69.0,120,156,0.0,48.0
363,53.0,0,440,3.0,42.0
364,60.0,120,440,2.0,42.0
365,63.0,0,216,2.0,41.0
366,65.0,120,120,2.0,41.0
367,65.0,120,120,2.0,40.0
368,64.0,120,120,2.0,40.0
369,62.0,0,456,2.0,41.0
370,58.0,120,456,3.0,41.0
371,65.0,120,120,2.0,40.0
372,70.0,0,480,0.0,46.0
373,67.0,120,120,2.0,39.0
374,65.0,120,120,2.0,39.0
375,63.0,120,120,2.0,39.0
376,72.0,0,120,0.0,45.0
377,74.0,120,120,0.0,45.0
378,62.0,0,120,2.0,38.0
379,65.0,120,120,2.0,38.0
380,75.0,0,240,0.0,44.0
381,69.0,120,156,0.0,44.0
382,63.0,0,200,2.0,37.0
383,60.0,120,456,3.0,38.0
384,65.0,120,120,2.0,37.0
385,69.0,0,156,0.0,43.0
386,65.0,120,120,2.0,36.0
387,69.0,0,156,0.0,42.0
388,63.0,120,200,2.0,36.0
389,60.0,0,456,2.0,37.0
390,53.0,120,456,3.0,37.0
391,65.0,120,120,2.0,35.0
392,69.0,120,480,1.0,41.0
393,63.0,0,480,2.0,35.0
394,72.0,0,480,0.0,41.0
395,70.0,480,240,0.0,37.0
396,58.0,0,720,3.0,35.0
397,62.0,0,240,3.0,34.0
398,46.0,240,40,3.0,62.0
399,58.0,0,40,0.0,63.0
400,48.0,40,40,3.0,63.0
401,60.0,0,40,0.0,64.0
402,46.0,40,40,3.0,65.0
403,58.0,0,40,0.0,65.0
404,57.0,40,60,0.0,66.0
405,45.0,0,60,3.0,66.0
406,58.0,60,60,0.0,67.0
407,46.0,0,60,3.0,69.0
408,53.0,60,240,3.0,73.0
409,65.0,0,240,0.0,71.0
410,46.0,240,156,3.0,71.0
411,58.0,0,156,0.0,69.0
412,46.0,0,156,3.0,69.0
413,58.0,240,156,0.0,67.0
414,46.0,0,40,3.0,66.0
415,58.0,240,40,0.0,67.0
416,48.0,40,40,3.0,67.0
417,60.0,0,40,0.0,68.0
418,46.0,0,40,3.0,69.0
419,58.0,40,40,0.0,70.0
420,57.0,0,60,0.0,71.0
421,45.0,40,60,3.0,70.0
422,58.0,60,60,0.0,73.0
423,46.0,0,60,3.0,72.0
424,53.0,0,240,3.0,77.0
425,65.0,60,240,0.0,76.0
426,56.0,240,156,0.0,73.0
427,44.0,0,156,3.0,75.0
428,56.0,0,156,0.0,71.0
429,44.0,240,156,3.0,73.0
430,56.0,240,40,0.0,71.0
431,44.0,0,40,3.0,71.0
432,58.0,40,40,0.0,72.0
433,46.0,0,40,3.0,72.0
434,56.0,0,40,0.0,73.0
435,44.0,40,40,3.0,74.0
436,55.0,0,60,0.0,74.0
437,43.0,40,60,3.0,75.0
438,56.0,60,60,0.0,76.0
439,44.0,0,60,3.0,77.0
440,55.0,60,240,0.0,79.0
441,58.0,240,240,0.0,77.0
442,46.0,0,240,2.0,77.0
443,51.0,0,240,2.0,74.0
444,63.0,240,240,0.0,74.0
445,43.0,0,929,3.0,80.0
446,67.0,240,240,0.0,71.0
447,55.0,0,240,2.0,70.0
448,65.0,240,240,0.0,68.0
449,56.0,0,240,2.0,67.0
450,53.0,240,240,2.0,59.0
451,60.0,0,480,1.0,68.0
452,44.0,0,480,3.0,67.0
453,68.0,0,240,0.0,60.0
454,53.0,0,240,2.0,54.0
455,62.0,0,240,0.0,55.0
456,56.0,0,480,1.0,55.0
457,46.0,240,480,3.0,54.0
458,58.0,0,240,0.0,51.0
459,50.0,240,240,2.0,50.0
460,39.0,0,240,3.0,45.0
461,51.0,0,240,2.0,45.0
462,55.0,0,480,1.0,46.0
463,58.0,240,480,1.0,46.0
464,63.0,0,480,0.0,46.0
465,63.0,240,0,3.0,40.0
466,67.0,240,240,2.0,42.0
467,67.0,0,240,2.0,40.0
468,79.0,120,120,0.0,45.0
469,77.0,120,120,0.0,45.0
470,75.0,120,120,0.0,45.0
471,74.0,120,240,0.0,46.0
472,68.0,240,240,2.0,42.0
473,65.0,0,0,3.0,42.0
474,80.0,120,120,0.0,48.0
475,68.0,240,240,2.0,42.0
476,79.0,120,120,0.0,48.0
477,77.0,120,120,0.0,48.0
478,75.0,120,240,0.0,49.0
479,67.0,0,0,3.0,45.0
480,87.0,120,120,0.0,50.0
481,70.0,240,240,2.0,44.0
482,86.0,120,120,0.0,50.0
483,87.0,120,120,0.0,50.0
484,70.0,0,0,2.0,46.0
485,86.0,120,120,0.0,51.0
486,84.0,120,120,0.0,51.0
487,67.0,0,240,3.0,46.0
488,83.0,0,120,0.0,51.0
489,84.0,120,120,0.0,50.0
490,82.0,120,120,0.0,49.0
491,72.0,120,480,2.0,50.0
492,68.0,0,480,3.0,50.0
493,80.0,120,120,0.0,48.0
494,79.0,0,120,0.0,48.0
495,77.0,120,120,0.0,47.0
496,84.0,120,120,0.0,46.0
497,74.0,120,480,2.0,44.0
498,70.0,0,480,3.0,44.0
499,82.0,120,120,0.0,45.0
500,80.0,120,240,0.0,44.0
501,79.0,0,240,0.0,42.0
502,70.0,0,240,2.0,38.0
503,63.0,0,0,3.0,39.0
504,79.0,120,60,0.0,42.0
505,67.0,240,240,2.0,39.0
506,77.0,60,60,0.0,43.0
507,80.0,60,60,0.0,43.0
508,79.0,60,60,0.0,44.0
509,77.0,60,60,0.0,44.0
510,75.0,40,0,0.0,46.0
511,77.0,20,40,0.0,45.0
512,74.0,0,0,0.0,46.0
513,68.0,120,240,2.0,41.0
514,65.0,0,0,3.0,42.0
515,80.0,120,60,0.0,42.0
516,79.0,60,60,0.0,43.0
517,68.0,240,240,2.0,42.0
518,82.0,60,60,0.0,44.0
519,80.0,60,60,0.0,45.0
520,79.0,60,60,0.0,46.0
521,77.0,40,0,0.0,48.0
522,79.0,20,40,0.0,47.0
523,75.0,120,120,0.0,49.0
524,67.0,0,240,3.0,45.0
525,75.0,120,240,0.0,49.0
526,70.0,240,0,2.0,46.0
527,87.0,120,60,0.0,46.0
528,86.0,60,60,0.0,47.0
529,67.0,0,240,3.0,46.0
530,89.0,60,60,0.0,48.0
531,87.0,60,60,0.0,48.0
532,86.0,60,60,0.0,49.0
533,67.0,0,240,3.0,47.0
534,84.0,60,60,0.0,51.0
535,70.0,0,240,2.0,47.0
536,83.0,0,120,0.0,51.0
537,84.0,120,120,0.0,51.0
538,82.0,120,120,0.0,50.0
539,80.0,120,120,0.0,49.0
540,72.0,0,480,2.0,49.0
541,68.0,60,480,3.0,49.0
542,79.0,0,120,0.0,48.0
543,77.0,120,120,0.0,48.0
544,80.0,120,120,0.0,47.0
545,74.0,120,120,0.0,46.0
546,58.0,0,480,3.0,47.0
547,65.0,0,480,2.0,47.0
548,68.0,120,480,2.0,47.0
549,70.0,120,120,3.0,41.0
550,69.0,120,120,3.0,42.0
551,70.0,120,120,3.0,44.0
552,75.0,120,480,0.0,45.0
553,67.0,0,484,2.0,40.0
554,63.0,0,484,3.0,40.0
555,72.0,120,120,3.0,45.0
556,70.0,120,120,3.0,46.0
557,68.0,120,120,3.0,47.0
558,77.0,0,120,0.0,50.0
559,79.0,0,120,0.0,52.0
560,67.0,120,120,3.0,48.0
561,70.0,120,120,2.0,46.0
562,80.0,120,240,0.0,53.0
563,74.0,120,156,0.0,52.0
564,70.0,120,120,2.0,45.0
565,68.0,0,240,3.0,46.0
566,74.0,0,156,0.0,51.0
567,70.0,120,120,2.0,43.0
568,74.0,120,156,0.0,49.0
569,68.0,0,240,3.0,42.0
570,70.0,120,120,2.0,41.0
571,65.0,0,964,3.0,47.0
572,58.0,120,484,3.0,49.0
573,67.0,120,120,3.0,40.0
574,66.0,120,120,3.0,41.0
575,67.0,120,120,3.0,42.0
576,75.0,0,480,0.0,48.0
577,63.0,120,484,3.0,40.0
578,68.0,120,120,3.0,43.0
579,67.0,120,120,3.0,43.0
580,65.0,120,120,3.0,44.0
581,74.0,0,120,0.0,42.0
582,75.0,0,120,0.0,44.0
583,63.0,120,120,3.0,45.0
584,67.0,120,120,2.0,44.0
585,77.0,0,240,0.0,47.0
586,71.0,0,156,0.0,46.0
587,62.0,120,458,3.0,45.0
588,65.0,120,240,3.0,43.0
589,67.0,120,120,2.0,43.0
590,71.0,120,156,0.0,44.0
591,67.0,120,120,2.0,41.0
592,71.0,120,156,0.0,42.0
593,62.0,0,458,3.0,46.0
594,55.0,0,458,3.0,46.0
595,67.0,120,120,2.0,39.0
596,65.0,0,240,3.0,40.0
597,60.0,120,120,3.0,39.0
598,62.0,120,120,3.0,42.0
599,63.0,120,120,3.0,45.0
600,72.0,0,480,0.0,41.0
601,62.0,120,120,3.0,48.0
602,60.0,120,120,3.0,51.0
603,58.0,120,120,3.0,54.0
604,57.0,120,120,3.0,57.0
605,69.0,0,120,1.0,62.0
606,81.0,0,120,0.0,62.0
607,70.0,120,120,1.0,69.0
608,55.0,0,120,3.0,60.0
609,82.0,0,120,0.0,69.0
610,72.0,120,240,1.0,79.0
611,84.0,0,240,0.0,79.0
612,62.0,120,120,2.0,64.0
613,66.0,0,156,1.0,72.0
614,78.0,120,156,0.0,72.0
615,57.0,0,224,2.0,63.0
616,62.0,120,120,2.0,62.0
617,66.0,0,156,1.0,73.0
618,78.0,120,156,0.0,73.0
619,60.0,0,224,2.0,60.0
620,62.0,120,120,2.0,59.0
621,66.0,0,156,1.0,74.0
622,78.0,120,156,0.0,74.0
623,57.0,0,224,2.0,58.0
624,62.0,120,120,2.0,57.0
625,54.0,0,965,3.0,65.0
626,58.0,0,224,3.0,56.0
627,62.0,120,120,2.0,54.0
628,55.0,120,224,3.0,53.0
629,79.0,0,480,0.0,81.0
630,67.0,120,480,1.0,81.0
631,62.0,120,120,2.0,52.0
632,62.0,120,120,2.0,49.0
633,57.0,120,224,2.0,48.0
634,54.0,120,471,3.0,51.0
635,62.0,120,120,2.0,47.0
636,69.0,0,480,1.0,76.0
637,81.0,0,480,0.0,76.0
638,62.0,120,120,2.0,45.0
639,84.0,0,240,0.0,70.0
640,72.0,120,240,1.0,70.0
641,58.0,120,224,2.0,43.0
642,70.0,0,240,1.0,68.0
643,82.0,0,240,0.0,68.0
644,55.0,0,480,3.0,46.0
645,62.0,120,120,2.0,42.0
646,69.0,0,240,1.0,65.0
647,81.0,120,240,0.0,65.0
648,61.0,120,120,2.0,40.0
649,55.0,0,224,2.0,39.0
650,67.0,0,240,1.0,62.0
651,79.0,120,240,0.0,62.0
652,61.0,120,120,2.0,37.0
653,51.0,0,480,3.0,41.0
654,62.0,120,120,2.0,38.0
655,54.0,120,224,2.0,39.0
656,66.0,0,480,1.0,59.0
657,62.0,120,120,2.0,39.0
658,78.0,120,480,0.0,59.0
659,57.0,120,224,2.0,40.0
660,74.0,0,120,0.0,44.0
661,62.0,120,120,2.0,40.0
662,73.0,120,120,0.0,46.0
663,54.0,0,224,2.0,40.0
664,50.0,0,952,3.0,38.0
665,74.0,120,120,0.0,47.0
666,62.0,0,120,2.0,41.0
667,62.0,120,120,2.0,42.0
668,70.0,0,240,1.0,49.0
669,79.0,120,240,0.0,49.0
670,55.0,120,224,2.0,42.0
671,62.0,120,120,2.0,43.0
672,58.0,120,224,2.0,43.0
673,74.0,0,120,0.0,44.0
674,62.0,120,120,2.0,43.0
675,73.0,120,120,0.0,46.0
676,55.0,0,224,2.0,44.0
677,50.0,0,952,3.0,41.0
678,62.0,120,120,2.0,44.0
679,74.0,0,120,0.0,48.0
680,69.0,120,240,0.0,50.0
681,62.0,120,120,2.0,45.0
682,54.0,120,224,2.0,46.0
683,62.0,120,120,2.0,46.0
684,57.0,120,224,2.0,46.0
685,62.0,120,120,2.0,47.0
686,74.0,0,120,0.0,49.0
687,73.0,0,120,0.0,51.0
688,54.0,120,224,2.0,47.0
689,50.0,0,952,3.0,45.0
690,74.0,0,120,0.0,52.0
691,62.0,120,120,2.0,48.0
692,70.0,0,240,1.0,51.0
693,79.0,0,240,0.0,53.0
694,62.0,120,120,2.0,49.0
695,55.0,120,224,2.0,49.0
696,62.0,120,120,2.0,49.0
697,58.0,120,224,2.0,50.0
698,74.0,0,120,0.0,52.0
699,62.0,120,120,2.0,50.0
700,73.0,120,120,0.0,53.0
701,55.0,0,224,2.0,51.0
702,50.0,120,952,3.0,48.0
703,62.0,120,120,2.0,51.0
704,74.0,0,120,0.0,55.0
705,62.0,120,120,2.0,52.0
706,54.0,120,224,2.0,52.0
707,50.0,120,480,3.0,52.0
708,62.0,120,120,2.0,53.0
709,69.0,0,480,0.0,56.0
710,62.0,120,120,2.0,54.0
711,56.0,120,224,2.0,57.0
712,62.0,120,120,2.0,55.0
713,71.0,120,480,0.0,60.0
714,50.0,0,0,3.0,62.0
715,62.0,120,120,2.0,56.0
716,56.0,120,224,2.0,61.0
717,62.0,120,120,2.0,56.0
718,57.0,120,224,2.0,57.0
719,62.0,120,120,2.0,57.0
720,72.0,120,720,0.0,68.0
721,55.0,0,224,2.0,58.0
722,70.0,120,240,0.0,59.0
723,62.0,120,120,2.0,58.0
724,62.0,120,120,2.0,59.0
725,54.0,120,224,2.0,61.0
726,62.0,120,120,2.0,60.0
727,81.0,0,240,0.0,61.0
728,50.0,0,480,3.0,59.0
729,69.0,120,500,0.0,60.0
730,62.0,120,120,2.0,61.0
731,71.0,0,448,0.0,62.0
732,56.0,120,224,2.0,67.0
733,50.0,120,480,3.0,64.0
734,62.0,120,120,2.0,62.0
735,83.0,0,240,0.0,64.0
736,62.0,120,120,2.0,62.0
737,56.0,0,224,2.0,68.0
738,62.0,120,120,2.0,63.0
739,57.0,120,224,2.0,64.0
740,62.0,120,120,2.0,64.0
741,84.0,120,480,0.0,78.0
742,72.0,0,734,0.0,65.0
743,50.0,120,913,3.0,68.0
744,55.0,120,224,2.0,65.0
745,62.0,120,120,2.0,65.0
746,70.0,0,240,0.0,60.0
747,62.0,120,120,2.0,66.0
748,54.0,0,224,2.0,66.0
749,69.0,120,474,0.0,61.0
750,81.0,120,240,0.0,63.0
751,62.0,120,120,2.0,67.0
752,50.0,0,480,3.0,65.0
753,62.0,120,120,2.0,68.0
754,56.0,0,224,2.0,68.0
755,71.0,120,474,0.0,65.0
756,50.0,0,480,3.0,67.0
757,62.0,120,120,2.0,68.0
758,83.0,120,240,0.0,66.0
759,50.0,120,60,3.0,69.0
760,57.0,60,60,3.0,69.0
761,62.0,60,60,3.0,69.0
762,84.0,120,240,0.0,65.0
763,72.0,0,367,0.0,69.0
764,73.0,240,474,0.0,62.0
765,85.0,240,240,0.0,52.0
766,70.0,1200,240,0.0,47.0
767,62.0,0,240,2.0,43.0
768,58.0,0,240,3.0,43.0
769,67.0,240,240,0.0,48.0
770,57.0,240,240,3.0,44.0
771,60.0,0,240,2.0,44.0
772,66.0,0,240,0.0,49.0
773,55.0,240,240,3.0,46.0
774,58.0,0,240,2.0,46.0
775,67.0,0,240,0.0,50.0
776,57.0,0,240,2.0,49.0
777,54.0,0,240,3.0,49.0
778,54.0,240,240,2.0,46.0
779,50.0,0,240,3.0,46.0
780,55.0,0,240,2.0,45.0
781,52.0,240,240,3.0,45.0
782,72.0,0,960,0.0,54.0
783,57.0,240,240,2.0,44.0
784,54.0,0,240,3.0,44.0
785,62.0,240,960,1.0,54.0
786,70.0,0,240,0.0,48.0
787,58.0,0,240,2.0,42.0
788,55.0,240,240,3.0,42.0
789,58.0,240,240,3.0,45.0
790,67.0,0,240,0.0,50.0
791,62.0,0,240,2.0,45.0
792,57.0,0,240,3.0,48.0
793,66.0,240,240,0.0,52.0
794,60.0,0,240,2.0,48.0
795,58.0,0,240,2.0,50.0
796,67.0,0,240,0.0,54.0
797,55.0,240,240,3.0,50.0
798,51.0,240,240,3.0,50.0
799,55.0,240,240,3.0,48.0
800,67.0,0,960,1.0,60.0
801,48.0,240,960,3.0,57.0
802,75.0,0,960,0.0,60.0
803,60.0,240,240,3.0,46.0
804,74.0,240,156,0.0,54.0
805,78.0,240,240,0.0,54.0
806,58.0,0,480,3.0,44.0
807,79.0,240,156,0.0,53.0
808,58.0,240,240,3.0,43.0
809,62.0,0,240,2.0,43.0
810,74.0,0,240,0.0,52.0
811,72.0,0,156,0.0,52.0
812,54.0,240,480,3.0,42.0
813,80.0,240,240,0.0,51.0
814,62.0,0,480,2.0,42.0
815,81.0,240,156,0.0,50.0
816,62.0,0,240,2.0,39.0
817,54.0,240,240,3.0,39.0
818,72.0,0,240,0.0,49.0
819,70.0,0,240,0.0,49.0
820,62.0,240,480,2.0,38.0
821,55.0,0,480,3.0,38.0
822,79.0,240,240,0.0,48.0
823,69.0,0,240,0.0,47.0
824,48.0,0,480,3.0,36.0
825,60.0,240,480,2.0,36.0
826,75.0,240,240,0.0,46.0
827,67.0,0,360,0.0,46.0
828,69.0,360,60,0.0,46.0
829,58.0,240,480,2.0,34.0
830,67.0,60,60,0.0,45.0
831,66.0,0,156,0.0,43.0
832,50.0,0,720,3.0,34.0
833,57.0,60,240,2.0,32.0
834,62.0,240,240,3.0,46.0
835,74.0,120,120,1.0,42.0
836,70.0,240,240,3.0,46.0
837,74.0,120,120,1.0,43.0
838,82.0,0,240,0.0,42.0
839,67.0,120,240,3.0,49.0
840,74.0,120,120,1.0,44.0
841,81.0,0,240,0.0,43.0
842,66.0,120,240,3.0,51.0
843,74.0,120,120,1.0,45.0
844,67.0,0,240,3.0,53.0
845,79.0,120,240,0.0,44.0
846,74.0,120,120,0.0,46.0
847,78.0,0,240,0.0,45.0
848,73.0,120,120,0.0,46.0
849,74.0,120,120,0.0,47.0
850,76.0,120,120,0.0,47.0
851,78.0,120,120,0.0,48.0
852,79.0,120,120,0.0,48.0
853,62.0,120,960,2.0,58.0
854,72.0,0,960,3.0,58.0
855,81.0,120,120,0.0,49.0
856,82.0,0,240,0.0,49.0
857,74.0,120,120,1.0,50.0
858,70.0,120,240,3.0,50.0
859,74.0,120,120,1.0,51.0
860,86.0,0,240,0.0,50.0
861,82.0,120,240,1.0,50.0
862,67.0,0,240,3.0,52.0
863,66.0,0,240,3.0,54.0
864,84.0,0,240,0.0,51.0
865,74.0,120,120,1.0,52.0
866,81.0,120,240,1.0,51.0
867,74.0,120,120,1.0,53.0
868,79.0,0,240,1.0,52.0
869,67.0,120,240,3.0,56.0
870,82.0,0,240,0.0,52.0
871,81.0,0,240,0.0,53.0
872,77.0,120,120,0.0,54.0
873,76.0,120,120,0.0,54.0
874,77.0,120,120,0.0,55.0
875,79.0,120,120,0.0,55.0
876,81.0,120,120,0.0,56.0
877,82.0,120,120,0.0,56.0
878,75.0,120,960,3.0,60.0
879,65.0,0,960,2.0,60.0
880,84.0,120,120,0.0,57.0
881,70.0,0,156,2.0,54.0
882,74.0,120,156,3.0,54.0
883,86.0,0,240,0.0,56.0
884,77.0,120,120,1.0,57.0
885,70.0,0,240,3.0,54.0
886,86.0,0,240,1.0,57.0
887,77.0,120,120,1.0,58.0
888,89.0,120,240,0.0,57.0
889,87.0,0,240,0.0,59.0
890,84.0,0,240,1.0,59.0
891,77.0,120,120,1.0,60.0
892,69.0,120,240,3.0,56.0
893,86.0,120,240,0.0,61.0
894,77.0,120,120,1.0,62.0
895,82.0,0,240,1.0,61.0
896,70.0,0,240,3.0,59.0
897,84.0,0,240,0.0,63.0
898,74.0,120,120,1.0,64.0
899,66.0,120,240,3.0,69.0
900,81.0,0,240,1.0,63.0
901,67.0,0,156,3.0,65.0
902,82.0,0,240,0.0,64.0
903,79.0,120,240,0.0,64.0
904,74.0,120,120,1.0,65.0
905,81.0,0,240,0.0,66.0
906,78.0,120,240,1.0,66.0
907,62.0,0,240,3.0,72.0
908,72.0,120,120,1.0,67.0
909,63.0,120,156,3.0,68.0
910,70.0,120,120,1.0,69.0
911,79.0,0,240,0.0,68.0
912,69.0,120,120,0.0,64.0
913,75.0,120,120,0.0,63.0
914,74.0,120,120,0.0,62.0
915,72.0,120,120,0.0,60.0
916,60.0,120,720,3.0,82.0
917,70.0,120,120,0.0,59.0
918,69.0,0,120,0.0,58.0
919,67.0,120,120,0.0,57.0
920,61.0,120,240,3.0,64.0
921,66.0,0,120,0.0,56.0
922,62.0,120,240,3.0,60.0
923,67.0,120,120,0.0,55.0
924,69.0,120,120,0.0,54.0
925,68.0,120,120,0.0,52.0
926,69.0,120,120,0.0,51.0
927,71.0,120,120,0.0,50.0
928,72.0,120,120,0.0,49.0
929,71.0,120,120,0.0,48.0
930,54.0,120,232,3.0,38.0
931,62.0,120,120,2.0,38.0
932,72.0,0,240,0.0,51.0
933,66.0,120,156,0.0,50.0
934,57.0,0,232,3.0,38.0
935,62.0,120,120,2.0,38.0
936,66.0,120,156,0.0,48.0
937,60.0,0,232,3.0,38.0
938,62.0,120,120,2.0,39.0
939,66.0,0,156,0.0,47.0
940,57.0,120,232,3.0,39.0
941,62.0,120,120,2.0,39.0
942,67.0,0,120,0.0,48.0
943,69.0,0,40,0.0,48.0
944,67.0,40,40,0.0,49.0
945,58.0,120,232,3.0,39.0
946,66.0,40,40,0.0,49.0
947,62.0,120,120,2.0,40.0
948,67.0,40,120,0.0,49.0
949,55.0,0,232,3.0,40.0
950,70.0,0,120,0.0,49.0
951,62.0,120,120,2.0,40.0
952,74.0,0,180,0.0,49.0
953,58.0,120,232,3.0,40.0
954,62.0,120,120,2.0,40.0
955,55.0,0,232,3.0,41.0
956,62.0,120,120,2.0,41.0
957,74.0,120,240,0.0,50.0
958,54.0,120,232,3.0,41.0
959,62.0,120,120,2.0,41.0
960,84.0,0,240,0.0,55.0
961,78.0,120,156,0.0,54.0
962,57.0,0,232,3.0,41.0
963,62.0,120,120,2.0,42.0
964,78.0,120,156,0.0,52.0
965,60.0,0,232,3.0,42.0
966,62.0,120,120,2.0,42.0
967,78.0,0,156,0.0,50.0
968,57.0,120,232,3.0,42.0
969,62.0,120,120,2.0,42.0
970,79.0,120,120,0.0,54.0
971,81.0,120,40,0.0,54.0
972,79.0,40,40,0.0,54.0
973,58.0,0,232,3.0,43.0
974,78.0,40,40,0.0,54.0
975,62.0,0,120,2.0,43.0
976,79.0,40,120,0.0,54.0
977,55.0,0,232,3.0,43.0
978,62.0,120,120,2.0,43.0
979,82.0,0,120,0.0,55.0
980,86.0,0,180,0.0,55.0
981,58.0,120,232,3.0,43.0
982,62.0,120,120,2.0,44.0
983,55.0,0,232,3.0,44.0
984,62.0,120,240,0.0,56.0
985,62.0,120,120,2.0,44.0
986,54.0,120,232,3.0,44.0
987,72.0,0,240,0.0,61.0
988,62.0,120,120,2.0,45.0
989,66.0,120,156,0.0,60.0
990,57.0,0,232,3.0,45.0
991,62.0,120,120,2.0,45.0
992,66.0,120,156,0.0,59.0
993,60.0,0,232,3.0,45.0
994,62.0,120,120,2.0,45.0
995,66.0,0,156,0.0,58.0
996,57.0,120,232,3.0,46.0
997,62.0,120,120,2.0,46.0
998,67.0,0,120,0.0,60.0
999,69.0,0,40,0.0,60.0
1000,67.0,40,40,0.0,61.0
1001,58.0,120,232,3.0,46.0
1002,66.0,40,40,0.0,61.0
1003,62.0,120,120,2.0,46.0
1004,67.0,40,120,0.0,61.0
1005,55.0,0,232,3.0,46.0
1006,69.0,0,120,0.0,61.0
1007,62.0,120,120,2.0,47.0
1008,71.0,0,120,0.0,62.0
1009,62.0,120,120,2.0,46.0
1010,67.0,0,120,0.0,62.0
1011,69.0,120,120,0.0,63.0
1012,55.0,0,232,2.0,46.0
1013,53.0,120,472,3.0,47.0
1014,71.0,0,120,0.0,63.0
1015,62.0,120,120,2.0,47.0
1016,72.0,0,120,0.0,63.0
1017,74.0,120,40,0.0,64.0
1018,72.0,40,40,0.0,64.0
1019,60.0,0,120,2.0,48.0
1020,71.0,40,40,0.0,64.0
1021,72.0,0,120,0.0,64.0
1022,51.0,120,456,3.0,48.0
1023,55.0,40,232,2.0,48.0
1024,60.0,0,120,2.0,49.0
1025,74.0,120,120,0.0,65.0
1026,75.0,0,120,0.0,65.0
1027,77.0,120,120,0.0,66.0
1028,55.0,0,120,2.0,50.0
1029,79.0,0,120,0.0,66.0
1030,51.0,120,216,2.0,50.0
1031,48.0,120,456,3.0,48.0
1032,75.0,120,120,0.0,66.0
1033,55.0,0,120,2.0,51.0
1034,55.0,120,120,2.0,52.0
1035,74.0,120,240,0.0,67.0
1036,75.0,120,120,0.0,66.0
1037,50.0,0,216,2.0,52.0
1038,46.0,0,472,3.0,49.0
1039,74.0,0,120,0.0,65.0
1040,55.0,120,120,2.0,53.0
1041,77.0,0,120,0.0,65.0
1042,57.0,0,120,2.0,51.0
1043,75.0,120,120,0.0,64.0
1044,74.0,0,120,0.0,64.0
1045,51.0,120,216,2.0,50.0
1046,48.0,120,472,3.0,53.0
1047,57.0,0,120,2.0,50.0
1048,72.0,120,120,0.0,63.0
1049,58.0,120,120,2.0,49.0
1050,70.0,120,360,0.0,62.0
1051,72.0,120,60,0.0,61.0
1052,70.0,30,60,0.0,61.0
1053,50.0,0,456,3.0,52.0
1054,55.0,120,216,2.0,48.0
1055,58.0,0,120,2.0,48.0
1056,69.0,30,60,0.0,60.0
1057,70.0,30,60,0.0,60.0
1058,74.0,0,120,0.0,60.0
1059,60.0,0,120,2.0,47.0
1060,72.0,120,120,0.0,59.0
1061,70.0,0,120,0.0,59.0
1062,50.0,30,456,3.0,50.0
1063,54.0,120,216,2.0,47.0
1064,60.0,120,120,2.0,46.0
1065,69.0,0,120,0.0,58.0
1066,67.0,0,120,0.0,58.0
1067,69.0,120,40,0.0,60.0
1068,67.0,40,40,0.0,61.0
1069,62.0,0,120,2.0,45.0
1070,66.0,40,40,0.0,61.0
1071,67.0,0,120,0.0,61.0
1072,58.0,40,232,2.0,45.0
1073,62.0,0,120,2.0,44.0
1074,69.0,120,120,0.0,62.0
1075,55.0,120,488,3.0,48.0
1076,71.0,0,120,0.0,63.0
1077,62.0,0,120,2.0,45.0
1078,67.0,120,120,0.0,64.0
1079,69.0,0,120,0.0,65.0
1080,55.0,120,200,2.0,45.0
1081,53.0,120,472,3.0,50.0
1082,62.0,120,120,2.0,46.0
1083,71.0,0,120,0.0,66.0
1084,72.0,0,120,0.0,66.0
1085,74.0,0,60,0.0,67.0
1086,72.0,40,40,0.0,68.0
1087,60.0,120,120,2.0,47.0
1088,71.0,40,40,0.0,68.0
1089,72.0,40,120,0.0,68.0
1090,55.0,0,200,2.0,48.0
1091,51.0,120,472,3.0,52.0
1092,74.0,120,120,0.0,69.0
1093,60.0,0,120,2.0,49.0
1094,75.0,120,120,0.0,70.0
1095,55.0,120,120,2.0,50.0
1096,76.0,0,120,0.0,71.0
1097,77.0,0,120,0.0,72.0
1098,51.0,120,216,2.0,51.0
1099,48.0,0,472,3.0,55.0
1100,55.0,120,120,2.0,51.0
1101,78.0,0,120,0.0,73.0
1102,58.0,120,120,2.0,53.0
1103,52.0,120,216,2.0,53.0
1104,58.0,120,120,2.0,54.0
1105,79.0,0,600,0.0,73.0
1106,81.0,0,40,0.0,77.0
1107,79.0,40,40,0.0,78.0
1108,55.0,120,232,2.0,55.0
1109,78.0,40,40,0.0,78.0
1110,58.0,120,120,2.0,55.0
1111,79.0,40,120,0.0,79.0
1112,49.0,120,929,3.0,58.0
1113,52.0,0,216,2.0,56.0
1114,81.0,0,120,0.0,81.0
1115,58.0,120,120,2.0,57.0
1116,58.0,120,120,2.0,58.0
1117,52.0,120,216,2.0,58.0
1118,58.0,120,120,2.0,58.0
1119,82.0,120,480,0.0,82.0
1120,49.0,0,689,3.0,63.0
1121,55.0,120,216,2.0,58.0
1122,58.0,120,120,2.0,59.0
1123,58.0,120,120,2.0,59.0
1124,49.0,120,241,3.0,67.0
1125,61.0,0,720,0.0,85.0
1126,62.0,120,120,2.0,59.0
1127,55.0,0,216,2.0,58.0
1128,62.0,120,120,2.0,58.0
1129,58.0,120,216,2.0,57.0
1130,62.0,120,120,2.0,57.0
1131,74.0,120,480,0.0,90.0
1132,73.0,120,120,0.0,82.0
1133,50.0,120,929,3.0,64.0
1134,55.0,0,216,2.0,57.0
1135,62.0,120,120,2.0,56.0
1136,74.0,0,120,0.0,81.0
1137,75.0,120,120,0.0,80.0
1138,62.0,120,120,2.0,55.0
1139,74.0,0,120,0.0,79.0
1140,72.0,120,120,0.0,78.0
1141,57.0,0,216,2.0,55.0
1142,70.0,0,120,0.0,77.0
1143,62.0,120,120,2.0,54.0
1144,69.0,120,120,0.0,76.0
1145,60.0,0,216,2.0,54.0
1146,62.0,120,120,2.0,53.0
1147,70.0,0,120,0.0,75.0
1148,72.0,120,120,0.0,74.0
1149,50.0,0,929,3.0,56.0
1150,57.0,0,216,2.0,53.0
1151,66.0,120,120,0.0,73.0
1152,62.0,0,120,2.0,52.0
1153,62.0,120,120,2.0,51.0
1154,67.0,0,240,0.0,72.0
1155,55.0,0,216,2.0,51.0
1156,62.0,120,120,2.0,51.0
1157,58.0,120,216,2.0,50.0
1158,79.0,120,480,0.0,85.0
1159,62.0,120,120,2.0,50.0
1160,73.0,120,120,0.0,76.0
1161,50.0,120,929,3.0,52.0
1162,55.0,0,216,2.0,49.0
1163,62.0,120,120,2.0,49.0
1164,74.0,0,120,0.0,75.0
1165,75.0,0,120,0.0,74.0
1166,74.0,0,120,0.0,73.0
1167,62.0,120,120,2.0,48.0
1168,72.0,0,120,0.0,72.0
1169,57.0,120,216,2.0,47.0
1170,70.0,120,120,0.0,71.0
1171,62.0,0,120,2.0,47.0
1172,69.0,120,120,0.0,71.0
1173,60.0,0,216,2.0,46.0
1174,70.0,120,120,0.0,70.0
1175,62.0,0,120,2.0,46.0
1176,72.0,0,120,0.0,69.0
1177,50.0,120,929,3.0,48.0
1178,57.0,120,216,2.0,45.0
1179,62.0,120,120,2.0,45.0
1180,66.0,0,120,0.0,68.0
1181,55.0,120,480,3.0,44.0
1182,58.0,0,0,1.0,39.0
1183,62.0,240,0,0.0,39.0
1184,55.0,240,240,1.0,39.0
1185,55.0,0,240,1.0,39.0
1186,58.0,240,0,1.0,39.0
1187,38.0,0,240,3.0,51.0
1188,62.0,0,0,0.0,39.0
1189,55.0,0,240,1.0,39.0
1190,48.0,0,240,3.0,55.0
1191,62.0,0,0,0.0,38.0
1192,60.0,0,0,1.0,38.0
1193,57.0,0,0,1.0,38.0
1194,42.0,240,156,3.0,53.0
1195,57.0,0,0,1.0,38.0
1196,60.0,240,0,1.0,38.0
1197,42.0,0,156,3.0,51.0
1198,62.0,0,0,0.0,38.0
1199,42.0,0,156,3.0,49.0
1200,60.0,0,240,1.0,38.0
1201,67.0,0,1920,0.0,62.0
1202,57.0,240,240,1.0,38.0
1203,58.0,0,240,1.0,38.0
1204,55.0,0,240,1.0,38.0
1205,55.0,0,240,1.0,38.0
1206,58.0,0,240,1.0,38.0
1207,62.0,240,240,0.0,38.0
1208,43.0,0,480,3.0,47.0
1209,62.0,0,240,0.0,37.0
1210,58.0,0,0,1.0,37.0
1211,55.0,240,0,1.0,37.0
1212,62.0,0,240,0.0,37.0
1213,38.0,0,240,3.0,49.0
1214,62.0,0,0,0.0,37.0
1215,60.0,240,0,1.0,37.0
1216,48.0,0,240,3.0,53.0
1217,57.0,0,0,1.0,37.0
1218,42.0,0,156,3.0,51.0
1219,57.0,240,0,1.0,36.0
1220,62.0,0,0,0.0,36.0
1221,42.0,0,156,3.0,49.0
1222,60.0,0,240,1.0,36.0
1223,42.0,0,156,3.0,47.0
1224,67.0,240,1920,0.0,52.0
1225,57.0,240,240,1.0,36.0
1226,60.0,0,240,1.0,36.0
1227,62.0,0,240,0.0,36.0
1228,55.0,0,240,1.0,36.0
1229,58.0,0,0,1.0,36.0
1230,43.0,0,480,3.0,45.0
1231,55.0,240,240,1.0,36.0
1232,62.0,0,240,0.0,36.0
1233,58.0,240,240,1.0,36.0
1234,62.0,0,240,0.0,36.0
1235,55.0,240,0,1.0,35.0
1236,58.0,0,240,1.0,35.0
1237,62.0,0,240,0.0,35.0
1238,38.0,0,240,3.0,46.0
1239,62.0,240,0,0.0,35.0
1240,60.0,0,240,1.0,35.0
1241,57.0,0,240,1.0,35.0
1242,48.0,240,240,3.0,51.0
1243,42.0,0,156,3.0,48.0
1244,60.0,0,240,1.0,35.0
1245,57.0,0,240,1.0,35.0
1246,42.0,240,156,3.0,46.0
1247,62.0,0,240,0.0,35.0
1248,60.0,0,0,1.0,34.0
1249,57.0,0,0,1.0,34.0
1250,42.0,240,156,3.0,44.0
1251,62.0,0,240,0.0,34.0
1252,67.0,0,1920,0.0,48.0
1253,62.0,0,480,0.0,42.0
1254,58.0,0,480,1.0,34.0
1255,55.0,240,240,1.0,34.0
1256,55.0,240,240,1.0,33.0
1257,59.0,240,480,1.0,34.0
1258,65.0,0,480,0.0,41.0
1259,43.0,240,960,3.0,41.0
1260,63.0,0,480,0.0,40.0
1261,60.0,240,480,1.0,33.0
1262,55.0,240,240,1.0,33.0
1263,51.0,240,480,1.0,33.0
1264,31.0,0,960,3.0,43.0
1265,54.0,240,240,1.0,33.0
1266,60.0,0,480,0.0,40.0
1267,50.0,240,480,1.0,32.0
1268,55.0,240,240,1.0,32.0
1269,59.0,0,480,0.0,39.0
1270,43.0,0,960,3.0,41.0
1271,62.0,240,480,0.0,38.0
1272,55.0,240,240,1.0,32.0
1273,53.0,0,480,1.0,32.0
1274,60.0,240,480,0.0,38.0
1275,51.0,0,480,1.0,31.0
1276,55.0,240,240,1.0,31.0
1277,54.0,240,480,0.0,37.0
1278,31.0,0,960,3.0,40.0
1279,48.0,0,480,1.0,31.0
1280,51.0,240,240,1.0,31.0
1281,47.0,0,480,1.0,31.0
1282,55.0,240,480,0.0,36.0
1283,31.0,0,960,3.0,39.0
1284,43.0,0,960,3.0,39.0
1285,54.0,0,480,0.0,35.0
1286,48.0,480,480,1.0,30.0
1287,51.0,240,240,1.0,30.0
1288,47.0,0,480,1.0,30.0
1289,50.0,240,240,1.0,29.0
1290,55.0,0,480,0.0,35.0
1291,54.0,0,480,0.0,34.0
1292,43.0,0,960,3.0,37.0
1293,31.0,240,960,3.0,37.0
1294,51.0,240,240,1.0,29.0
1295,48.0,240,480,1.0,29.0
1296,43.0,0,480,3.0,36.0
1297,31.0,0,480,3.0,36.0
1298,47.0,0,0,1.0,28.0
1299,50.0,240,240,1.0,28.0
1300,55.0,0,0,0.0,33.0
1301,31.0,0,480,3.0,35.0
1302,50.0,240,240,1.0,28.0
1303,43.0,240,480,3.0,35.0
1304,55.0,0,0,0.0,32.0
1305,47.0,0,480,1.0,28.0
1306,31.0,0,480,3.0,35.0
1307,43.0,240,480,3.0,35.0
1308,62.0,2880,156,0.0,46.0
1309,62.0,240,156,0.0,48.0
1310,59.0,240,156,3.0,41.0
1311,67.0,0,156,0.0,50.0
1312,62.0,0,156,2.0,41.0
1313,60.0,0,156,2.0,42.0
1314,69.0,240,156,0.0,51.0
1315,57.0,0,156,3.0,42.0
1316,71.0,0,240,0.0,54.0
1317,67.0,240,156,0.0,50.0
1318,59.0,240,480,2.0,44.0
1319,55.0,0,480,3.0,44.0
1320,64.0,240,156,0.0,46.0
1321,64.0,240,156,0.0,49.0
1322,60.0,0,156,2.0,47.0
1323,69.0,240,156,0.0,51.0
1324,57.0,0,156,3.0,47.0
1325,55.0,240,156,3.0,50.0
1326,71.0,0,156,0.0,54.0
1327,59.0,0,156,2.0,50.0
1328,72.0,240,240,0.0,56.0
1329,69.0,240,156,0.0,49.0
1330,57.0,0,480,3.0,52.0
1331,60.0,0,480,2.0,52.0
1332,76.0,240,156,0.0,49.0
1333,74.0,240,156,0.0,52.0
1334,54.0,240,156,3.0,57.0
1335,72.0,0,156,0.0,54.0
1336,57.0,0,156,2.0,57.0
1337,59.0,0,156,2.0,58.0
1338,55.0,240,156,3.0,58.0
1339,71.0,0,156,0.0,57.0
1340,57.0,0,156,3.0,59.0
1341,69.0,240,156,0.0,59.0
1342,60.0,0,156,2.0,59.0
1343,67.0,0,156,0.0,62.0
1344,62.0,0,156,2.0,61.0
1345,59.0,240,156,3.0,61.0
1346,60.0,0,156,3.0,62.0
1347,69.0,0,156,0.0,64.0
1348,64.0,240,156,2.0,62.0
1349,67.0,0,60,0.0,60.0
1350,69.0,40,60,0.0,63.0
1351,70.0,40,160,0.0,66.0
1352,69.0,160,156,0.0,75.0
1353,67.0,240,156,0.0,64.0
1354,61.0,0,720,3.0,71.0
1355,64.0,240,720,2.0,71.0
1356,66.0,240,240,0.0,57.0
1357,62.0,240,156,0.0,51.0
1358,62.0,0,480,3.0,53.0
1359,62.0,240,156,0.0,48.0
1360,62.0,240,156,0.0,50.0
1361,62.0,240,156,2.0,47.0
1362,59.0,0,156,3.0,47.0
1363,67.0,0,156,0.0,52.0
1364,69.0,0,156,0.0,53.0
1365,60.0,0,156,2.0,49.0
1366,57.0,240,156,3.0,49.0
1367,71.0,240,240,0.0,55.0
1368,67.0,240,156,0.0,50.0
1369,55.0,0,480,3.0,52.0
1370,59.0,0,480,2.0,52.0
1371,64.0,240,156,0.0,53.0
1372,64.0,240,156,0.0,55.0
1373,69.0,0,156,0.0,57.0
1374,64.0,240,156,2.0,55.0
1375,60.0,0,156,3.0,55.0
1376,62.0,240,156,2.0,58.0
1377,71.0,0,156,0.0,59.0
1378,59.0,0,156,3.0,58.0
1379,72.0,0,240,0.0,61.0
1380,69.0,240,156,0.0,58.0
1381,57.0,0,480,3.0,61.0
1382,60.0,240,480,2.0,61.0
1383,76.0,240,156,0.0,63.0
1384,74.0,240,156,0.0,61.0
1385,72.0,240,156,0.0,59.0
1386,57.0,0,156,2.0,57.0
1387,54.0,0,156,3.0,57.0
1388,55.0,0,156,3.0,56.0
1389,71.0,0,156,0.0,57.0
1390,59.0,240,156,2.0,56.0
1391,60.0,0,156,2.0,54.0
1392,57.0,240,156,3.0,54.0
1393,69.0,0,156,0.0,55.0
1394,62.0,240,156,2.0,53.0
1395,67.0,0,156,0.0,53.0
1396,59.0,0,156,3.0,53.0
1397,60.0,240,156,3.0,52.0
1398,64.0,0,156,2.0,52.0
1399,69.0,0,156,0.0,51.0
1400,59.0,0,480,2.0,50.0
1401,67.0,240,240,0.0,46.0
1402,62.0,0,480,0.0,48.0
1403,50.0,0,0,3.0,48.0
1404,66.0,0,240,0.0,44.0
1405,60.0,240,240,1.0,44.0
1406,57.0,0,240,2.0,48.0
1407,43.0,0,360,3.0,46.0
1408,55.0,240,360,1.0,42.0
1409,55.0,0,360,2.0,46.0
1410,67.0,0,360,0.0,42.0
1411,62.0,480,156,0.0,40.0
1412,67.0,240,156,0.0,41.0
1413,71.0,240,156,0.0,41.0
1414,74.0,240,156,0.0,42.0
1415,74.0,240,240,0.0,43.0
1416,72.0,0,156,0.0,43.0
1417,69.0,240,156,1.0,43.0
1418,54.0,0,156,3.0,44.0
1419,62.0,0,156,2.0,44.0
1420,62.0,0,156,2.0,45.0
1421,54.0,0,156,3.0,45.0
1422,69.0,0,156,1.0,44.0
1423,72.0,240,156,0.0,44.0
1424,74.0,240,240,0.0,45.0
1425,55.0,0,156,3.0,46.0
1426,62.0,240,156,2.0,46.0
1427,67.0,0,156,1.0,46.0
1428,71.0,0,156,0.0,46.0
1429,71.0,0,156,0.0,46.0
1430,55.0,0,156,3.0,47.0
1431,62.0,240,156,2.0,47.0
1432,74.0,240,240,0.0,47.0
1433,72.0,0,156,0.0,48.0
1434,54.0,240,156,3.0,49.0
1435,69.0,0,156,1.0,48.0
1436,62.0,0,156,2.0,49.0
1437,62.0,0,156,2.0,50.0
1438,54.0,0,156,3.0,50.0
1439,72.0,0,156,0.0,48.0
1440,69.0,240,156,1.0,48.0
1441,74.0,240,240,0.0,49.0
1442,71.0,0,156,0.0,50.0
1443,67.0,0,156,1.0,50.0
1444,55.0,0,156,3.0,51.0
1445,62.0,240,156,2.0,51.0
1446,62.0,240,156,2.0,52.0
1447,55.0,0,156,3.0,52.0
1448,71.0,0,156,0.0,51.0
1449,74.0,240,240,0.0,53.0
1450,62.0,0,156,2.0,58.0
1451,54.0,0,156,3.0,58.0
1452,69.0,0,156,1.0,56.0
1453,72.0,240,156,0.0,56.0
1454,62.0,0,156,2.0,61.0
1455,71.0,0,156,0.0,60.0
1456,55.0,0,156,3.0,61.0
1457,67.0,240,156,1.0,60.0
1458,74.0,240,240,0.0,63.0
1459,72.0,240,156,0.0,70.0
1460,54.0,0,156,3.0,70.0
1461,62.0,0,156,2.0,70.0
1462,69.0,0,156,1.0,70.0
1463,55.0,240,156,3.0,77.0
1464,71.0,0,156,0.0,76.0
1465,62.0,0,156,2.0,77.0
1466,67.0,0,156,1.0,76.0
1467,54.0,0,420,3.0,87.0
1468,72.0,240,420,1.0,84.0
1469,62.0,0,420,2.0,87.0
1470,74.0,0,420,0.0,84.0
1471,69.0,0,420,1.0,84.0
1472,74.0,480,156,0.0,46.0
1473,74.0,240,156,0.0,48.0
1474,71.0,0,156,3.0,44.0
1475,74.0,240,156,2.0,44.0
1476,79.0,0,156,0.0,51.0
1477,72.0,0,156,2.0,46.0
1478,81.0,240,156,0.0,53.0
1479,69.0,0,156,3.0,46.0
1480,83.0,0,240,0.0,57.0
1481,79.0,240,156,0.0,52.0
1482,67.0,0,480,3.0,47.0
1483,71.0,240,480,2.0,47.0
1484,76.0,240,156,0.0,51.0
1485,76.0,240,156,0.0,54.0
1486,76.0,0,156,2.0,53.0
1487,81.0,240,156,0.0,57.0
1488,72.0,0,156,3.0,53.0
1489,74.0,240,156,2.0,55.0
1490,83.0,0,156,0.0,60.0
1491,71.0,0,156,3.0,55.0
1492,84.0,240,240,0.0,63.0
1493,81.0,240,156,0.0,57.0
1494,69.0,0,480,3.0,56.0
1495,72.0,0,480,2.0,56.0
1496,88.0,240,156,0.0,67.0
1497,86.0,240,156,0.0,65.0
1498,84.0,0,156,0.0,63.0
1499,69.0,240,156,2.0,62.0
1500,66.0,0,156,3.0,62.0
1501,83.0,0,156,0.0,61.0
1502,71.0,240,156,2.0,60.0
1503,67.0,0,156,3.0,60.0
1504,83.0,180,60,0.0,59.0
1505,81.0,60,156,0.0,59.0
1506,72.0,0,156,2.0,57.0
1507,69.0,0,156,3.0,57.0
1508,71.0,0,156,3.0,55.0
1509,79.0,0,156,0.0,57.0
1510,74.0,240,156,2.0,55.0
1511,72.0,240,156,3.0,53.0
1512,81.0,0,156,0.0,55.0
1513,76.0,0,156,2.0,53.0
1514,79.0,240,240,0.0,51.0
1515,74.0,0,480,0.0,53.0
1516,62.0,0,0,3.0,46.0
1517,71.0,240,480,2.0,51.0
1518,72.0,0,240,1.0,49.0
1519,69.0,240,240,2.0,46.0
1520,78.0,0,240,0.0,49.0
1521,67.0,0,360,2.0,44.0
1522,67.0,240,360,1.0,47.0
1523,79.0,0,360,0.0,47.0
1524,55.0,0,360,3.0,44.0
1525,75.0,200,40,0.0,82.0
1526,63.0,0,40,3.0,80.0
1527,62.0,480,240,3.0,79.0
1528,74.0,40,0,0.0,83.0
1529,62.0,0,240,3.0,81.0
1530,61.0,0,240,3.0,83.0
1531,73.0,240,240,0.0,84.0
1532,74.0,240,240,0.0,89.0
1533,62.0,0,240,3.0,88.0
1534,63.0,0,480,3.0,96.0
1535,75.0,240,480,0.0,96.0
1536,62.0,0,240,3.0,86.0
1537,74.0,480,240,0.0,88.0
1538,72.0,240,156,0.0,86.0
1539,60.0,0,156,3.0,83.0
1540,70.0,240,156,0.0,83.0
1541,58.0,0,156,3.0,81.0
1542,69.0,240,156,0.0,81.0
1543,57.0,0,156,3.0,78.0
1544,74.0,240,480,0.0,92.0
1545,62.0,0,480,3.0,88.0
1546,72.0,480,240,0.0,86.0
1547,60.0,0,240,3.0,82.0
1548,70.0,240,156,0.0,84.0
1549,58.0,0,156,3.0,81.0
1550,69.0,0,156,0.0,82.0
1551,57.0,240,156,3.0,80.0
1552,67.0,0,156,0.0,80.0
1553,55.0,240,156,3.0,78.0
1554,63.0,240,240,0.0,79.0
1555,72.0,240,156,0.0,77.0
1556,70.0,240,156,0.0,75.0
1557,57.0,0,720,3.0,77.0
1558,48.0,0,720,3.0,77.0
1559,69.0,0,156,0.0,73.0
1560,67.0,240,156,0.0,72.0
1561,66.0,240,156,0.0,70.0
1562,60.0,240,720,3.0,73.0
1563,50.0,0,720,3.0,73.0
1564,62.0,120,120,2.0,49.0
1565,58.0,120,120,1.0,47.0
1566,67.0,0,480,0.0,68.0
1567,62.0,120,120,2.0,51.0
1568,58.0,120,120,1.0,48.0
1569,86.0,0,156,0.0,54.0
1570,55.0,240,698,3.0,66.0
1571,62.0,120,120,2.0,53.0
1572,62.0,120,120,2.0,55.0
1573,86.0,120,240,0.0,56.0
1574,57.0,120,120,1.0,52.0
1575,85.0,0,156,0.0,58.0
1576,62.0,120,120,2.0,56.0
1577,57.0,0,120,1.0,53.0
1578,86.0,120,156,0.0,60.0
1579,54.0,0,698,3.0,62.0
1580,62.0,120,120,2.0,60.0
1581,86.0,120,240,0.0,62.0
1582,62.0,120,120,2.0,63.0
1583,58.0,0,120,1.0,61.0
1584,85.0,120,156,0.0,66.0
1585,62.0,120,120,2.0,66.0
1586,58.0,120,120,1.0,65.0
1587,86.0,0,156,0.0,69.0
1588,55.0,0,698,3.0,68.0
1589,62.0,120,120,2.0,70.0
1590,62.0,120,120,2.0,73.0
1591,86.0,0,240,0.0,73.0
1592,57.0,120,120,1.0,74.0
1593,85.0,0,156,0.0,77.0
1594,62.0,120,120,2.0,76.0
1595,57.0,0,120,1.0,78.0
1596,86.0,120,156,0.0,81.0
1597,54.0,120,698,3.0,74.0
1598,62.0,120,120,2.0,81.0
1599,86.0,0,240,0.0,86.0
1600,62.0,120,120,2.0,83.0
1601,58.0,0,120,1.0,82.0
1602,84.0,120,156,0.0,80.0
1603,62.0,120,120,2.0,82.0
1604,58.0,0,120,1.0,81.0
1605,82.0,120,156,0.0,79.0
1606,55.0,120,698,3.0,83.0
1607,62.0,120,120,2.0,80.0
1608,84.0,60,60,0.0,77.0
1609,82.0,60,240,0.0,77.0
1610,62.0,120,120,2.0,79.0
1611,58.0,0,120,1.0,79.0
1612,81.0,120,156,0.0,75.0
1613,62.0,120,120,2.0,78.0
1614,58.0,0,120,1.0,77.0
1615,79.0,120,156,0.0,74.0
1616,55.0,0,698,3.0,80.0
1617,62.0,120,120,2.0,77.0
1618,57.0,0,205,3.0,76.0
1619,77.0,120,240,0.0,72.0
1620,62.0,120,120,2.0,76.0
1621,79.0,0,156,0.0,71.0
1622,57.0,120,205,3.0,75.0
1623,62.0,120,120,2.0,74.0
1624,76.0,120,156,0.0,69.0
1625,57.0,0,205,3.0,74.0
1626,61.0,120,120,1.0,73.0
1627,62.0,120,120,2.0,72.0
1628,61.0,120,120,1.0,72.0
1629,74.0,120,480,0.0,67.0
1630,62.0,120,120,2.0,71.0
1631,60.0,120,120,1.0,70.0
1632,50.0,0,698,3.0,73.0
1633,87.0,60,60,0.0,52.0
1634,57.0,120,120,1.0,70.0
1635,74.0,0,240,0.0,64.0
1636,86.0,0,240,0.0,52.0
1637,62.0,120,120,2.0,49.0
1638,58.0,0,120,1.0,46.0
1639,85.0,120,156,0.0,54.0
1640,62.0,120,120,2.0,51.0
1641,58.0,120,120,1.0,48.0
1642,86.0,0,156,0.0,55.0
1643,55.0,60,698,3.0,58.0
1644,87.0,60,60,0.0,56.0
1645,62.0,120,120,2.0,53.0
1646,62.0,120,120,2.0,54.0
1647,86.0,60,240,0.0,56.0
1648,57.0,120,120,1.0,52.0
1649,85.0,0,156,0.0,58.0
1650,62.0,120,120,2.0,56.0
1651,57.0,120,120,1.0,54.0
1652,86.0,0,156,0.0,59.0
1653,54.0,0,698,3.0,62.0
1654,62.0,120,120,2.0,57.0
1655,87.0,60,60,0.0,63.0
1656,62.0,120,120,2.0,60.0
1657,86.0,0,240,0.0,64.0
1658,58.0,120,120,1.0,59.0
1659,85.0,0,156,0.0,69.0
1660,62.0,120,120,2.0,64.0
1661,58.0,120,120,1.0,63.0
1662,86.0,0,156,0.0,73.0
1663,55.0,60,698,3.0,68.0
1664,62.0,120,120,2.0,67.0
1665,89.0,60,60,0.0,77.0
1666,63.0,120,120,2.0,71.0
1667,87.0,60,240,0.0,77.0
1668,58.0,120,120,1.0,69.0
1669,86.0,0,156,0.0,83.0
1670,63.0,120,120,2.0,74.0
1671,58.0,0,120,1.0,73.0
1672,87.0,120,156,0.0,90.0
1673,55.0,0,698,3.0,76.0
1674,63.0,120,120,2.0,78.0
1675,65.0,120,120,2.0,83.0
1676,60.0,120,120,1.0,77.0
1677,77.0,60,480,0.0,95.0
1678,65.0,120,120,2.0,82.0
1679,60.0,120,120,1.0,76.0
1680,65.0,120,120,2.0,80.0
1681,57.0,0,732,3.0,88.0
1682,89.0,60,960,0.0,100.0
1683,65.0,120,120,2.0,79.0
1684,62.0,0,120,1.0,74.0
1685,87.0,120,156,0.0,87.0
1686,65.0,120,120,2.0,77.0
1687,62.0,120,120,1.0,73.0
1688,86.0,0,156,0.0,83.0
1689,65.0,120,120,2.0,76.0
1690,86.0,60,60,0.0,81.0
1691,58.0,120,732,3.0,79.0
1692,84.0,0,240,0.0,80.0
1693,60.0,120,120,2.0,75.0
1694,55.0,0,120,1.0,72.0
1695,83.0,120,156,0.0,77.0
1696,60.0,120,120,2.0,73.0
1697,55.0,120,120,1.0,71.0
1698,84.0,0,156,0.0,76.0
1699,51.0,60,681,3.0,76.0
1700,60.0,120,120,2.0,72.0
1701,60.0,120,120,2.0,71.0
1702,87.0,0,240,0.0,74.0
1703,57.0,120,120,1.0,69.0
1704,84.0,0,156,0.0,72.0
1705,60.0,120,120,2.0,69.0
1706,57.0,120,120,1.0,68.0
1707,81.0,0,156,0.0,70.0
1708,53.0,120,681,3.0,74.0
1709,60.0,120,120,2.0,68.0
1710,82.0,120,240,0.0,72.0
1711,62.0,120,120,2.0,72.0
1712,58.0,0,120,1.0,74.0
1713,86.0,120,240,0.0,77.0
1714,62.0,120,120,2.0,75.0
1715,58.0,0,120,1.0,77.0
1716,50.0,0,681,3.0,72.0
1717,62.0,120,120,2.0,81.0
1718,62.0,120,120,2.0,79.0
1719,89.0,120,480,0.0,90.0
1720,58.0,0,120,1.0,74.0
1721,87.0,120,156,0.0,85.0
1722,62.0,120,120,2.0,77.0
1723,58.0,0,120,1.0,73.0
1724,86.0,120,156,0.0,83.0
1725,53.0,120,681,3.0,82.0
1726,62.0,120,120,2.0,75.0
1727,86.0,60,60,0.0,81.0
1728,60.0,120,120,2.0,72.0
1729,84.0,60,240,0.0,81.0
1730,55.0,120,120,1.0,70.0
1731,83.0,0,156,0.0,79.0
1732,60.0,120,120,2.0,70.0
1733,55.0,120,120,1.0,69.0
1734,84.0,0,156,0.0,77.0
1735,51.0,0,681,3.0,72.0
1736,60.0,120,120,2.0,68.0
1737,87.0,0,240,0.0,75.0
1738,63.0,120,120,2.0,66.0
1739,60.0,0,120,1.0,66.0
1740,84.0,120,156,0.0,73.0
1741,63.0,120,120,2.0,64.0
1742,60.0,0,120,1.0,64.0
1743,81.0,120,156,0.0,72.0
1744,53.0,120,681,3.0,67.0
1745,63.0,120,120,2.0,62.0
1746,82.0,120,156,0.0,70.0
1747,62.0,0,480,1.0,62.0
1748,58.0,0,480,3.0,62.0
1749,86.0,240,240,0.0,77.0
1750,84.0,240,240,0.0,73.0
1751,82.0,240,240,0.0,71.0
1752,81.0,240,240,0.0,70.0
1753,79.0,240,240,0.0,68.0
1754,77.0,240,240,0.0,67.0
1755,76.0,240,240,0.0,66.0
1756,77.0,240,240,0.0,64.0
1757,78.0,240,240,0.0,63.0
1758,79.0,240,240,0.0,61.0
1759,75.0,240,240,0.0,60.0
1760,65.0,240,156,2.0,53.0
1761,65.0,240,156,2.0,52.0
1762,74.0,240,720,0.0,65.0
1763,75.0,180,60,0.0,63.0
1764,74.0,0,240,0.0,63.0
1765,65.0,240,156,2.0,51.0
1766,72.0,0,240,0.0,62.0
1767,65.0,0,156,2.0,51.0
1768,58.0,60,682,3.0,55.0
1769,74.0,240,240,0.0,61.0
1770,65.0,240,156,2.0,50.0
1771,65.0,240,156,2.0,49.0
1772,60.0,0,682,3.0,54.0
1773,75.0,240,720,0.0,60.0
1774,74.0,180,60,0.0,58.0
1775,72.0,60,240,0.0,58.0
1776,65.0,240,156,2.0,49.0
1777,71.0,0,240,0.0,57.0
1778,65.0,240,156,2.0,48.0
1779,63.0,0,682,3.0,52.0
1780,72.0,0,240,0.0,56.0
1781,65.0,240,156,2.0,47.0
1782,65.0,240,156,2.0,47.0
1783,62.0,240,682,3.0,51.0
1784,77.0,0,960,0.0,55.0
1785,65.0,0,156,2.0,46.0
1786,75.0,240,240,0.0,52.0
1787,65.0,240,156,2.0,45.0
1788,58.0,240,682,3.0,49.0
1789,74.0,0,240,0.0,51.0
1790,72.0,240,240,0.0,51.0
1791,65.0,240,156,2.0,44.0
1792,74.0,0,156,0.0,50.0
1793,65.0,0,156,2.0,44.0
1794,70.0,240,156,0.0,49.0
1795,60.0,0,682,3.0,48.0
1796,69.0,0,240,0.0,48.0
1797,64.0,0,156,2.0,43.0
1798,70.0,240,156,0.0,47.0
1799,67.0,240,156,0.0,46.0
1800,64.0,0,156,2.0,42.0
1801,60.0,240,682,3.0,46.0
1802,57.0,240,240,2.0,43.0
1803,53.0,0,682,3.0,49.0
1804,60.0,240,240,2.0,44.0
1805,65.0,240,960,0.0,46.0
1806,67.0,240,240,0.0,48.0
1807,57.0,0,240,2.0,45.0
1808,51.0,240,682,3.0,51.0
1809,69.0,0,240,0.0,49.0
1810,60.0,240,240,2.0,46.0
1811,72.0,180,60,0.0,50.0
1812,70.0,60,240,0.0,50.0
1813,53.0,240,156,2.0,47.0
1814,69.0,0,240,0.0,51.0
1815,53.0,240,156,2.0,47.0
1816,50.0,0,682,3.0,52.0
1817,70.0,0,240,0.0,52.0
1818,65.0,0,240,0.0,53.0
1819,53.0,240,156,2.0,49.0
1820,69.0,0,240,0.0,54.0
1821,53.0,0,156,2.0,49.0
1822,46.0,240,682,3.0,54.0
1823,74.0,180,60,0.0,56.0
1824,70.0,240,240,0.0,55.0
1825,72.0,0,240,0.0,56.0
1826,53.0,240,156,2.0,51.0
1827,71.0,0,240,0.0,57.0
1828,53.0,240,156,2.0,51.0
1829,45.0,60,682,3.0,56.0
1830,72.0,0,240,0.0,58.0
1831,65.0,240,240,0.0,59.0
1832,53.0,0,156,2.0,53.0
1833,70.0,240,240,0.0,60.0
1834,53.0,0,156,2.0,53.0
1835,41.0,0,682,3.0,58.0
1836,75.0,180,60,0.0,62.0
1837,72.0,240,240,0.0,61.0
1838,74.0,0,240,0.0,62.0
1839,72.0,0,240,0.0,63.0
1840,53.0,240,240,2.0,55.0
1841,46.0,60,682,3.0,59.0
1842,74.0,0,240,0.0,64.0
1843,58.0,240,240,2.0,55.0
1844,75.0,0,240,0.0,65.0
1845,77.0,240,240,0.0,66.0
1846,55.0,0,240,2.0,56.0
1847,51.0,240,682,3.0,61.0
1848,79.0,240,240,0.0,67.0
1849,60.0,0,240,2.0,57.0
1850,65.0,240,156,2.0,53.0
1851,65.0,240,156,2.0,49.0
1852,53.0,0,716,3.0,60.0
1853,72.0,240,720,0.0,62.0
1854,75.0,180,60,0.0,65.0
1855,74.0,60,240,0.0,64.0
1856,65.0,0,156,2.0,55.0
1857,72.0,240,240,0.0,63.0
1858,65.0,0,156,2.0,54.0
1859,58.0,0,682,3.0,58.0
1860,74.0,240,240,0.0,62.0
1861,65.0,240,156,2.0,53.0
1862,65.0,240,156,2.0,52.0
1863,60.0,0,682,3.0,57.0
1864,75.0,240,720,0.0,62.0
1865,74.0,180,60,0.0,59.0
1866,72.0,0,240,0.0,59.0
1867,65.0,240,156,2.0,51.0
1868,71.0,0,240,0.0,58.0
1869,65.0,0,156,2.0,50.0
1870,63.0,60,682,3.0,55.0
1871,72.0,240,240,0.0,57.0
1872,65.0,240,156,2.0,49.0
1873,65.0,240,156,2.0,48.0
1874,62.0,240,682,3.0,54.0
1875,77.0,0,960,0.0,56.0
1876,65.0,240,156,2.0,47.0
1877,75.0,0,240,0.0,52.0
1878,65.0,240,156,2.0,47.0
1879,58.0,240,682,3.0,52.0
1880,74.0,0,240,0.0,51.0
1881,72.0,0,240,0.0,50.0
1882,65.0,240,156,2.0,45.0
1883,74.0,0,156,0.0,49.0
1884,65.0,0,156,2.0,45.0
1885,70.0,240,156,0.0,48.0
1886,60.0,240,682,3.0,51.0
1887,69.0,0,240,0.0,47.0
1888,70.0,0,156,0.0,46.0
1889,64.0,240,156,2.0,43.0
1890,67.0,240,156,0.0,45.0
1891,64.0,0,156,2.0,42.0
1892,60.0,240,682,3.0,49.0
1893,57.0,240,240,2.0,43.0
1894,53.0,0,682,3.0,48.0
1895,60.0,240,240,2.0,44.0
1896,65.0,240,960,0.0,44.0
1897,67.0,0,240,0.0,46.0
1898,57.0,240,240,2.0,46.0
1899,51.0,240,682,3.0,51.0
1900,72.0,180,60,0.0,48.0
1901,60.0,0,240,2.0,47.0
1902,69.0,240,240,0.0,47.0
1903,70.0,0,240,0.0,48.0
1904,69.0,240,240,0.0,49.0
1905,50.0,60,682,3.0,53.0
1906,70.0,240,240,0.0,50.0
1907,53.0,0,598,2.0,48.0
1908,65.0,0,240,0.0,51.0
1909,53.0,0,156,2.0,51.0
1910,69.0,240,240,0.0,52.0
1911,53.0,240,156,2.0,51.0
1912,46.0,240,648,3.0,56.0
1913,74.0,180,60,0.0,54.0
1914,70.0,0,240,0.0,53.0
1915,72.0,60,240,0.0,54.0
1916,53.0,0,156,2.0,53.0
1917,71.0,240,240,0.0,55.0
1918,53.0,0,156,2.0,54.0
1919,45.0,0,648,3.0,58.0
1920,75.0,180,60,0.0,57.0
1921,72.0,240,240,0.0,56.0
1922,74.0,0,240,0.0,57.0
1923,53.0,0,156,2.0,55.0
1924,72.0,240,240,0.0,58.0
1925,53.0,0,156,2.0,56.0
1926,46.0,60,648,3.0,61.0
1927,74.0,240,240,0.0,59.0
1928,75.0,240,240,0.0,60.0
1929,55.0,240,240,2.0,56.0
1930,77.0,0,240,0.0,61.0
1931,51.0,0,648,3.0,65.0
1932,79.0,240,240,0.0,62.0
1933,60.0,0,240,2.0,55.0
1934,70.0,240,480,0.0,60.0
1935,62.0,240,240,2.0,53.0
1936,74.0,0,120,0.0,55.0
1937,53.0,0,648,3.0,60.0
1938,63.0,240,240,2.0,52.0
1939,72.0,120,120,0.0,54.0
1940,70.0,0,480,0.0,52.0
1941,62.0,240,240,2.0,50.0
1942,58.0,120,648,3.0,55.0
1943,65.0,240,240,2.0,49.0
1944,72.0,180,60,0.0,52.0
1945,70.0,60,240,0.0,52.0
1946,69.0,240,240,0.0,54.0
1947,70.0,240,240,0.0,55.0
1948,77.0,480,0,0.0,59.0
1949,65.0,0,720,2.0,57.0
1950,70.0,0,720,1.0,56.0
1951,62.0,240,720,3.0,57.0
1952,77.0,480,0,0.0,62.0
1953,77.0,240,0,0.0,64.0
1954,71.0,0,720,1.0,60.0
1955,65.0,240,720,2.0,59.0
1956,61.0,0,720,3.0,59.0
1957,67.0,0,720,2.0,62.0
1958,76.0,480,240,0.0,59.0
1959,74.0,180,60,0.0,52.0
1960,60.0,0,720,3.0,62.0
1961,72.0,0,720,1.0,64.0
1962,72.0,60,240,0.0,52.0
1963,71.0,240,240,0.0,53.0
1964,72.0,240,240,0.0,53.0
1965,75.0,480,0,0.0,55.0
1966,72.0,0,720,1.0,54.0
1967,75.0,0,0,0.0,55.0
1968,67.0,240,720,2.0,53.0
1969,60.0,0,720,3.0,53.0
1970,75.0,480,0,0.0,57.0
1971,57.0,0,720,3.0,56.0
1972,72.0,240,720,1.0,55.0
1973,66.0,0,720,2.0,56.0
1974,75.0,0,480,0.0,59.0
1975,75.0,180,60,0.0,57.0
1976,70.0,0,720,1.0,59.0
1977,58.0,60,0,3.0,57.0
1978,65.0,0,720,2.0,58.0
1979,74.0,480,240,0.0,58.0
1980,74.0,0,240,0.0,57.0
1981,65.0,240,156,2.0,53.0
1982,72.0,0,240,0.0,57.0
1983,65.0,240,156,2.0,52.0
1984,74.0,0,240,0.0,56.0
1985,65.0,240,156,2.0,51.0
1986,65.0,240,156,2.0,50.0
1987,60.0,240,648,3.0,56.0
1988,75.0,0,720,0.0,59.0
1989,74.0,180,60,0.0,57.0
1990,72.0,60,240,0.0,57.0
1991,65.0,240,156,2.0,49.0
1992,71.0,0,240,0.0,56.0
1993,65.0,240,156,2.0,49.0
1994,63.0,0,648,3.0,55.0
1995,72.0,0,240,0.0,56.0
1996,58.0,240,156,2.0,48.0
1997,58.0,240,156,2.0,47.0
1998,62.0,240,716,3.0,54.0
1999,77.0,0,960,0.0,55.0
2000,58.0,0,156,2.0,46.0
2001,78.0,240,240,0.0,52.0
2002,58.0,0,156,2.0,46.0
2003,51.0,240,648,3.0,52.0
2004,79.0,240,240,0.0,52.0
2005,58.0,240,156,2.0,44.0
2006,70.0,0,480,0.0,53.0
2007,72.0,0,60,0.0,51.0
2008,70.0,60,60,0.0,51.0
2009,58.0,240,156,2.0,44.0
2010,53.0,240,648,3.0,51.0
2011,69.0,60,60,0.0,51.0
2012,70.0,60,60,0.0,50.0
2013,57.0,240,156,2.0,43.0
2014,74.0,60,480,0.0,50.0
2015,57.0,240,156,2.0,42.0
2016,53.0,0,648,3.0,50.0
2017,72.0,0,240,0.0,48.0
2018,58.0,240,156,2.0,41.0
2019,70.0,0,480,0.0,47.0
2020,58.0,240,156,2.0,41.0
2021,46.0,240,648,3.0,49.0
2022,72.0,180,60,0.0,50.0
2023,70.0,60,240,0.0,50.0
2024,69.0,240,240,0.0,51.0
2025,70.0,240,240,0.0,52.0
2026,65.0,240,156,2.0,52.0
2027,77.0,240,480,0.0,53.0
2028,65.0,240,156,2.0,53.0
2029,62.0,0,648,3.0,51.0
2030,77.0,240,0,0.0,56.0
2031,70.0,0,720,1.0,53.0
2032,65.0,240,156,2.0,55.0
2033,65.0,240,156,2.0,56.0
2034,61.0,0,648,3.0,54.0
2035,71.0,0,720,1.0,56.0
2036,77.0,0,240,0.0,58.0
2037,67.0,240,156,2.0,53.0
2038,77.0,240,480,0.0,62.0
2039,67.0,240,156,2.0,51.0
2040,74.0,180,60,0.0,48.0
2041,76.0,0,240,0.0,52.0
2042,72.0,0,720,1.0,62.0
2043,67.0,0,156,2.0,49.0
2044,72.0,60,240,0.0,47.0
2045,67.0,0,156,2.0,47.0
2046,71.0,240,240,0.0,46.0
2047,67.0,240,156,2.0,45.0
2048,60.0,0,1362,3.0,57.0
2049,72.0,0,240,0.0,48.0
2050,67.0,240,156,2.0,45.0
2051,75.0,0,480,0.0,49.0
2052,67.0,0,156,2.0,47.0
2053,60.0,240,648,3.0,49.0
2054,75.0,240,240,0.0,52.0
2055,72.0,240,0,1.0,54.0
2056,66.0,240,156,2.0,51.0
2057,75.0,0,480,0.0,54.0
2058,66.0,0,156,2.0,52.0
2059,57.0,0,648,3.0,53.0
2060,75.0,240,0,0.0,59.0
2061,65.0,240,156,2.0,55.0
2062,65.0,0,156,2.0,54.0
2063,70.0,0,720,1.0,59.0
2064,75.0,180,60,0.0,56.0
2065,74.0,240,240,0.0,57.0
2066,65.0,60,156,2.0,54.0
2067,74.0,0,240,0.0,56.0
2068,65.0,240,156,2.0,53.0
2069,72.0,0,240,0.0,55.0
2070,65.0,240,156,2.0,53.0
2071,58.0,0,1396,3.0,60.0
2072,74.0,0,240,0.0,55.0
2073,65.0,240,156,2.0,52.0
2074,65.0,240,156,2.0,51.0
2075,60.0,240,648,3.0,57.0
2076,75.0,0,720,0.0,54.0
2077,74.0,180,60,0.0,52.0
2078,72.0,60,240,0.0,52.0
2079,65.0,240,156,2.0,50.0
2080,71.0,0,240,0.0,51.0
2081,65.0,0,156,2.0,49.0
2082,63.0,0,648,3.0,56.0
2083,72.0,240,240,0.0,51.0
2084,58.0,240,156,2.0,48.0
2085,58.0,240,156,2.0,48.0
2086,62.0,0,648,3.0,54.0
2087,77.0,240,960,0.0,50.0
2088,58.0,0,240,2.0,47.0
2089,78.0,240,240,0.0,48.0
2090,79.0,0,240,0.0,47.0
2091,63.0,240,240,2.0,46.0
2092,51.0,240,750,3.0,52.0
2093,70.0,0,480,0.0,51.0
2094,58.0,240,240,2.0,45.0
2095,72.0,240,60,0.0,48.0
2096,70.0,60,60,0.0,48.0
2097,69.0,60,60,0.0,48.0
2098,62.0,0,240,2.0,44.0
2099,53.0,240,720,3.0,51.0
2100,70.0,60,60,0.0,47.0
2101,74.0,60,480,0.0,47.0
2102,57.0,240,240,2.0,43.0
2103,53.0,0,720,3.0,51.0
2104,72.0,0,240,0.0,44.0
2105,63.0,240,240,2.0,43.0
2106,58.0,240,360,3.0,44.0
2107,62.0,0,360,2.0,44.0
2108,70.0,0,369,0.0,47.0
2109,74.0,40,0,0.0,83.0
2110,75.0,200,40,0.0,82.0
2111,63.0,0,40,3.0,80.0
2112,62.0,0,240,3.0,79.0
2113,62.0,0,240,3.0,81.0
2114,73.0,240,240,0.0,84.0
2115,61.0,0,240,3.0,83.0
2116,74.0,0,240,0.0,89.0
2117,62.0,240,240,3.0,88.0
2118,75.0,240,480,0.0,96.0
2119,63.0,0,480,3.0,96.0
2120,74.0,480,240,0.0,88.0
2121,62.0,0,240,3.0,86.0
2122,72.0,240,156,0.0,86.0
2123,60.0,0,156,3.0,83.0
2124,58.0,240,156,3.0,81.0
2125,70.0,0,156,0.0,83.0
2126,57.0,240,156,3.0,78.0
2127,69.0,0,156,0.0,81.0
2128,74.0,240,480,0.0,92.0
2129,62.0,0,480,3.0,88.0
2130,60.0,0,240,3.0,82.0
2131,72.0,480,240,0.0,86.0
2132,58.0,0,156,3.0,81.0
2133,70.0,240,156,0.0,84.0
2134,57.0,240,156,3.0,80.0
2135,69.0,0,156,0.0,82.0
2136,55.0,0,156,3.0,78.0
2137,67.0,240,156,0.0,80.0
2138,63.0,0,240,0.0,79.0
2139,72.0,240,156,0.0,77.0
2140,70.0,240,156,0.0,75.0
2141,57.0,240,720,3.0,77.0
2142,48.0,0,720,3.0,77.0
2143,69.0,0,156,0.0,73.0
2144,67.0,240,156,0.0,72.0
2145,66.0,240,156,0.0,70.0
2146,60.0,0,720,3.0,73.0
2147,50.0,240,720,3.0,73.0
2148,62.0,120,120,2.0,49.0
2149,58.0,120,120,1.0,47.0
2150,67.0,240,480,0.0,68.0
2151,62.0,120,120,2.0,51.0
2152,58.0,0,120,1.0,48.0
2153,86.0,120,156,0.0,54.0
2154,55.0,0,698,3.0,66.0
2155,62.0,120,120,2.0,53.0
2156,62.0,120,120,2.0,55.0
2157,86.0,0,240,0.0,56.0
2158,57.0,120,120,1.0,52.0
2159,85.0,0,156,0.0,58.0
2160,62.0,120,120,2.0,56.0
2161,57.0,0,120,1.0,53.0
2162,86.0,120,156,0.0,60.0
2163,54.0,120,698,3.0,62.0
2164,62.0,120,120,2.0,60.0
2165,86.0,0,240,0.0,62.0
2166,62.0,120,120,2.0,63.0
2167,58.0,0,120,1.0,61.0
2168,85.0,120,156,0.0,66.0
2169,62.0,120,120,2.0,66.0
2170,58.0,0,120,1.0,65.0
2171,86.0,120,156,0.0,69.0
2172,55.0,120,698,3.0,68.0
2173,62.0,120,120,2.0,70.0
2174,62.0,120,120,2.0,73.0
2175,86.0,0,240,0.0,73.0
2176,57.0,0,120,1.0,74.0
2177,85.0,120,156,0.0,77.0
2178,62.0,120,120,2.0,76.0
2179,57.0,120,120,1.0,78.0
2180,86.0,0,156,0.0,81.0
2181,54.0,120,698,3.0,74.0
2182,62.0,120,120,2.0,81.0
2183,62.0,120,120,2.0,83.0
2184,86.0,120,240,0.0,86.0
2185,58.0,120,120,1.0,82.0
2186,84.0,0,156,0.0,80.0
2187,62.0,120,120,2.0,82.0
2188,58.0,0,120,1.0,81.0
2189,82.0,120,156,0.0,79.0
2190,55.0,0,698,3.0,83.0
2191,84.0,60,60,0.0,77.0
2192,62.0,120,120,2.0,80.0
2193,62.0,120,120,2.0,79.0
2194,82.0,0,240,0.0,77.0
2195,58.0,120,120,1.0,79.0
2196,81.0,0,156,0.0,75.0
2197,62.0,120,120,2.0,78.0
2198,58.0,120,120,1.0,77.0
2199,79.0,0,156,0.0,74.0
2200,55.0,60,698,3.0,80.0
2201,62.0,120,120,2.0,77.0
2202,57.0,0,205,3.0,76.0
2203,77.0,120,240,0.0,72.0
2204,62.0,120,120,2.0,76.0
2205,79.0,0,156,0.0,71.0
2206,57.0,120,205,3.0,75.0
2207,62.0,120,120,2.0,74.0
2208,76.0,0,156,0.0,69.0
2209,57.0,120,205,3.0,74.0
2210,61.0,120,120,1.0,73.0
2211,62.0,120,120,2.0,72.0
2212,61.0,120,120,1.0,72.0
2213,74.0,120,0,0.0,64.0
2214,62.0,120,120,2.0,71.0
2215,60.0,0,120,1.0,70.0
2216,50.0,0,698,3.0,73.0
2217,57.0,120,120,1.0,70.0
2218,87.0,60,60,0.0,52.0
2219,62.0,120,120,2.0,49.0
2220,86.0,0,240,0.0,52.0
2221,58.0,120,120,1.0,46.0
2222,85.0,0,156,0.0,54.0
2223,62.0,120,120,2.0,51.0
2224,58.0,0,120,1.0,48.0
2225,86.0,120,156,0.0,55.0
2226,55.0,60,698,3.0,58.0
2227,87.0,60,60,0.0,56.0
2228,62.0,120,120,2.0,53.0
2229,86.0,0,240,0.0,56.0
2230,62.0,120,120,2.0,54.0
2231,57.0,120,120,1.0,52.0
2232,85.0,0,156,0.0,58.0
2233,62.0,120,120,2.0,56.0
2234,57.0,0,120,1.0,54.0
2235,86.0,120,156,0.0,59.0
2236,54.0,60,698,3.0,62.0
2237,87.0,60,60,0.0,63.0
2238,62.0,120,120,2.0,57.0
2239,86.0,60,240,0.0,64.0
2240,62.0,120,120,2.0,60.0
2241,58.0,0,120,1.0,59.0
2242,85.0,120,156,0.0,69.0
2243,62.0,120,120,2.0,64.0
2244,58.0,120,120,1.0,63.0
2245,86.0,0,156,0.0,73.0
2246,55.0,0,698,3.0,68.0
2247,62.0,120,120,2.0,67.0
2248,89.0,60,60,0.0,77.0
2249,63.0,120,120,2.0,71.0
2250,87.0,0,240,0.0,77.0
2251,58.0,0,120,1.0,69.0
2252,86.0,120,156,0.0,83.0
2253,63.0,120,120,2.0,74.0
2254,58.0,120,120,1.0,73.0
2255,87.0,0,156,0.0,90.0
2256,55.0,60,698,3.0,76.0
2257,63.0,120,120,2.0,78.0
2258,77.0,60,300,0.0,95.0
2259,65.0,120,120,2.0,83.0
2260,60.0,120,120,1.0,77.0
2261,65.0,120,120,2.0,82.0
2262,60.0,120,120,1.0,76.0
2263,65.0,120,120,2.0,80.0
2264,57.0,60,732,3.0,88.0
2265,89.0,0,960,0.0,102.0
2266,65.0,120,120,2.0,79.0
2267,62.0,120,120,1.0,74.0
2268,87.0,0,156,0.0,90.0
2269,65.0,120,120,2.0,77.0
2270,62.0,120,120,1.0,73.0
2271,86.0,0,156,0.0,89.0
2272,65.0,120,120,2.0,76.0
2273,58.0,120,732,3.0,79.0
2274,63.0,120,120,2.0,75.0
2275,75.0,60,315,0.0,95.0
2276,58.0,120,120,1.0,72.0
2277,63.0,120,120,2.0,73.0
2278,58.0,120,120,1.0,71.0
2279,55.0,60,681,3.0,76.0
2280,63.0,120,120,2.0,72.0
2281,87.0,0,960,0.0,98.0
2282,63.0,120,120,2.0,71.0
2283,60.0,120,120,1.0,69.0
2284,86.0,0,156,0.0,87.0
2285,63.0,120,120,2.0,69.0
2286,60.0,120,120,1.0,68.0
2287,84.0,0,156,0.0,83.0
2288,57.0,120,681,3.0,74.0
2289,63.0,120,120,2.0,68.0
2290,62.0,120,120,2.0,72.0
2291,74.0,60,330,0.0,91.0
2292,57.0,120,120,1.0,74.0
2293,62.0,120,120,2.0,75.0
2294,57.0,120,120,1.0,77.0
2295,54.0,60,681,3.0,72.0
2296,62.0,120,120,2.0,81.0
2297,86.0,0,960,0.0,95.0
2298,62.0,120,120,2.0,79.0
2299,58.0,0,120,1.0,74.0
2300,84.0,120,156,0.0,87.0
2301,62.0,120,120,2.0,77.0
2302,58.0,0,120,1.0,73.0
2303,82.0,120,156,0.0,83.0
2304,55.0,120,681,3.0,82.0
2305,62.0,120,120,2.0,75.0
2306,81.0,120,240,0.0,79.0
2307,57.0,120,120,2.0,72.0
2308,51.0,120,120,1.0,70.0
2309,82.0,0,156,0.0,77.0
2310,57.0,120,120,2.0,70.0
2311,51.0,120,120,1.0,69.0
2312,84.0,0,156,0.0,75.0
2313,48.0,0,681,3.0,72.0
2314,57.0,120,120,2.0,68.0
2315,57.0,120,120,2.0,66.0
2316,78.0,120,240,0.0,73.0
2317,54.0,120,120,1.0,66.0
2318,79.0,0,156,0.0,72.0
2319,57.0,120,120,2.0,64.0
2320,54.0,120,120,1.0,64.0
2321,81.0,0,156,0.0,70.0
2322,50.0,0,681,3.0,67.0
2323,57.0,120,120,2.0,62.0
2324,43.0,120,240,3.0,60.0
2325,79.0,0,480,0.0,70.0
2326,55.0,240,240,3.0,55.0
2327,62.0,240,156,0.0,42.0
2328,62.0,240,156,0.0,44.0
2329,67.0,240,156,0.0,46.0
2330,69.0,240,156,0.0,48.0
2331,71.0,240,240,0.0,49.0
2332,67.0,240,156,0.0,44.0
2333,62.0,240,156,0.0,30.0
2334,62.0,240,156,0.0,33.0
2335,69.0,240,156,0.0,36.0
2336,71.0,240,156,0.0,39.0
2337,72.0,240,240,0.0,44.0
2338,69.0,240,156,0.0,37.0
2339,62.0,240,156,0.0,46.0
2340,62.0,240,156,0.0,48.0
2341,67.0,240,156,0.0,50.0
2342,59.0,0,156,3.0,41.0
2343,62.0,0,156,2.0,41.0
2344,60.0,240,156,2.0,42.0
2345,69.0,0,156,0.0,51.0
2346,57.0,0,156,3.0,42.0
2347,71.0,240,240,0.0,54.0
2348,67.0,240,156,0.0,50.0
2349,55.0,0,480,3.0,44.0
2350,59.0,0,480,2.0,44.0
2351,64.0,240,156,0.0,46.0
2352,64.0,240,156,0.0,49.0
2353,69.0,0,156,0.0,51.0
2354,57.0,0,156,3.0,47.0
2355,60.0,240,156,2.0,47.0
2356,59.0,0,156,2.0,50.0
2357,55.0,240,156,3.0,50.0
2358,71.0,0,156,0.0,54.0
2359,72.0,0,240,0.0,56.0
2360,69.0,240,156,0.0,49.0
2361,60.0,240,480,2.0,52.0
2362,57.0,0,480,3.0,52.0
2363,76.0,240,156,0.0,49.0
2364,74.0,240,156,0.0,52.0
2365,57.0,240,156,2.0,57.0
2366,54.0,0,156,3.0,57.0
2367,72.0,0,156,0.0,54.0
2368,59.0,240,156,2.0,58.0
2369,55.0,0,156,3.0,58.0
2370,71.0,0,156,0.0,57.0
2371,57.0,0,156,3.0,59.0
2372,60.0,240,156,2.0,59.0
2373,69.0,0,156,0.0,59.0
2374,62.0,240,156,2.0,61.0
2375,67.0,0,156,0.0,62.0
2376,59.0,0,156,3.0,61.0
2377,64.0,0,156,2.0,62.0
2378,60.0,0,156,3.0,62.0
2379,69.0,240,156,0.0,64.0
2380,67.0,0,60,0.0,60.0
2381,69.0,40,60,0.0,63.0
2382,70.0,40,160,0.0,66.0
2383,69.0,160,156,0.0,75.0
2384,67.0,240,156,0.0,64.0
2385,61.0,0,720,3.0,71.0
2386,64.0,240,720,2.0,71.0
2387,66.0,0,240,0.0,57.0
2388,62.0,240,156,0.0,51.0
2389,62.0,240,480,3.0,53.0
2390,62.0,240,156,0.0,48.0
2391,62.0,240,156,0.0,50.0
2392,67.0,240,156,0.0,52.0
2393,59.0,0,156,3.0,47.0
2394,62.0,0,156,2.0,47.0
2395,69.0,0,156,0.0,53.0
2396,57.0,240,156,3.0,49.0
2397,60.0,0,156,2.0,49.0
2398,71.0,0,240,0.0,55.0
2399,67.0,240,156,0.0,50.0
2400,59.0,240,480,2.0,52.0
2401,55.0,0,480,3.0,52.0
2402,64.0,240,156,0.0,53.0
2403,64.0,240,156,0.0,55.0
2404,60.0,240,156,3.0,55.0
2405,69.0,0,156,0.0,57.0
2406,64.0,0,156,2.0,55.0
2407,71.0,0,156,0.0,59.0
2408,62.0,240,156,2.0,58.0
2409,59.0,0,156,3.0,58.0
2410,72.0,240,240,0.0,61.0
2411,69.0,240,156,0.0,58.0
2412,60.0,0,480,2.0,61.0
2413,57.0,0,480,3.0,61.0
2414,76.0,240,156,0.0,63.0
2415,74.0,240,156,0.0,61.0
2416,72.0,240,156,0.0,59.0
2417,57.0,0,156,2.0,57.0
2418,54.0,0,156,3.0,57.0
2419,71.0,0,156,0.0,57.0
2420,55.0,240,156,3.0,56.0
2421,59.0,0,156,2.0,56.0
2422,69.0,0,156,0.0,55.0
2423,57.0,0,156,3.0,54.0
2424,60.0,240,156,2.0,54.0
2425,59.0,240,156,3.0,53.0
2426,62.0,0,156,2.0,53.0
2427,67.0,0,156,0.0,53.0
2428,60.0,0,156,3.0,52.0
2429,64.0,240,156,2.0,52.0
2430,69.0,0,156,0.0,51.0
2431,59.0,240,480,2.0,50.0
2432,62.0,0,480,0.0,48.0
2433,67.0,240,240,0.0,46.0
2434,50.0,0,0,3.0,48.0
2435,57.0,240,240,2.0,48.0
2436,60.0,0,240,1.0,44.0
2437,66.0,0,240,0.0,44.0
2438,43.0,0,360,3.0,46.0
2439,55.0,240,360,1.0,42.0
2440,55.0,0,360,2.0,46.0
2441,67.0,0,360,0.0,42.0
2442,62.0,480,156,0.0,40.0
2443,67.0,240,156,0.0,41.0
2444,71.0,240,156,0.0,41.0
2445,74.0,240,156,0.0,42.0
2446,74.0,240,240,0.0,43.0
2447,72.0,240,156,0.0,43.0
2448,54.0,0,156,3.0,44.0
2449,62.0,0,156,2.0,44.0
2450,69.0,0,156,1.0,43.0
2451,62.0,0,156,2.0,45.0
2452,54.0,0,156,3.0,45.0
2453,72.0,240,156,0.0,44.0
2454,69.0,0,156,1.0,44.0
2455,74.0,240,240,0.0,45.0
2456,71.0,240,156,0.0,46.0
2457,55.0,0,156,3.0,46.0
2458,67.0,0,156,1.0,46.0
2459,62.0,0,156,2.0,46.0
2460,55.0,240,156,3.0,47.0
2461,71.0,0,156,0.0,46.0
2462,62.0,0,156,2.0,47.0
2463,74.0,240,240,0.0,47.0
2464,69.0,0,156,1.0,48.0
2465,54.0,0,156,3.0,49.0
2466,72.0,240,156,0.0,48.0
2467,62.0,0,156,2.0,49.0
2468,72.0,0,156,0.0,48.0
2469,69.0,0,156,1.0,48.0
2470,54.0,240,156,3.0,50.0
2471,62.0,0,156,2.0,50.0
2472,74.0,240,240,0.0,49.0
2473,67.0,0,156,1.0,50.0
2474,62.0,240,156,2.0,51.0
2475,71.0,0,156,0.0,50.0
2476,55.0,0,156,3.0,51.0
2477,62.0,0,156,2.0,52.0
2478,71.0,0,156,0.0,51.0
2479,55.0,240,156,3.0,52.0
2480,74.0,240,240,0.0,53.0
2481,72.0,240,156,0.0,56.0
2482,54.0,0,156,3.0,58.0
2483,62.0,0,156,2.0,58.0
2484,69.0,0,156,1.0,56.0
2485,55.0,0,156,3.0,61.0
2486,62.0,0,156,2.0,61.0
2487,71.0,0,156,0.0,60.0
2488,67.0,240,156,1.0,60.0
2489,74.0,240,240,0.0,63.0
2490,69.0,240,156,1.0,69.0
2491,62.0,0,156,2.0,68.0
2492,54.0,0,156,3.0,68.0
2493,72.0,0,156,0.0,69.0
2494,71.0,0,156,0.0,75.0
2495,67.0,240,156,1.0,75.0
2496,55.0,0,156,3.0,75.0
2497,62.0,0,156,2.0,75.0
2498,62.0,0,420,2.0,82.0
2499,74.0,0,420,0.0,83.0
2500,69.0,0,420,1.0,83.0
2501,72.0,240,420,1.0,83.0
2502,54.0,0,420,3.0,82.0
2503,74.0,480,156,0.0,46.0
2504,74.0,240,156,0.0,48.0
2505,71.0,0,156,3.0,44.0
2506,74.0,0,156,2.0,44.0
2507,79.0,240,156,0.0,51.0
2508,69.0,240,156,3.0,46.0
2509,81.0,0,156,0.0,53.0
2510,72.0,0,156,2.0,46.0
2511,83.0,0,240,0.0,57.0
2512,79.0,240,156,0.0,52.0
2513,71.0,240,480,2.0,47.0
2514,67.0,0,480,3.0,47.0
2515,76.0,240,156,0.0,51.0
2516,76.0,240,156,0.0,54.0
2517,76.0,240,156,2.0,53.0
2518,72.0,0,156,3.0,53.0
2519,81.0,0,156,0.0,57.0
2520,74.0,0,156,2.0,55.0
2521,71.0,240,156,3.0,55.0
2522,83.0,0,156,0.0,60.0
2523,84.0,0,240,0.0,63.0
2524,81.0,240,156,0.0,65.0
2525,72.0,0,480,2.0,56.0
2526,69.0,240,480,3.0,56.0
2527,88.0,240,156,0.0,67.0
2528,86.0,240,156,0.0,67.0
2529,66.0,0,156,3.0,69.0
2530,84.0,0,156,0.0,66.0
2531,69.0,240,156,2.0,69.0
2532,71.0,0,156,2.0,68.0
2533,67.0,240,156,3.0,68.0
2534,83.0,0,156,0.0,65.0
2535,83.0,180,60,0.0,64.0
2536,72.0,0,156,2.0,67.0
2537,81.0,60,156,0.0,64.0
2538,69.0,0,156,3.0,67.0
2539,79.0,0,156,0.0,63.0
2540,71.0,240,156,3.0,66.0
2541,74.0,0,156,2.0,66.0
2542,76.0,0,156,2.0,65.0
2543,81.0,240,156,0.0,62.0
2544,72.0,0,156,3.0,65.0
2545,79.0,240,240,0.0,60.0
2546,74.0,240,480,0.0,61.0
2547,71.0,0,480,2.0,64.0
2548,62.0,0,480,3.0,64.0
2549,72.0,0,240,1.0,59.0
2550,62.0,0,240,3.0,62.0
2551,78.0,0,240,0.0,59.0
2552,69.0,240,240,2.0,62.0
2553,67.0,0,360,2.0,61.0
2554,67.0,0,360,1.0,58.0
2555,79.0,0,360,0.0,58.0
2556,55.0,240,360,3.0,61.0
2557,72.0,480,156,3.0,59.0
2558,71.0,240,156,3.0,58.0
2559,69.0,240,156,3.0,56.0
2560,84.0,0,156,0.0,54.0
2561,83.0,240,156,0.0,53.0
2562,67.0,0,156,3.0,55.0
2563,81.0,240,156,0.0,52.0
2564,66.0,0,156,3.0,54.0
2565,79.0,0,156,0.0,51.0
2566,64.0,240,156,3.0,53.0
2567,66.0,0,156,3.0,52.0
2568,78.0,240,156,0.0,50.0
2569,76.0,240,156,0.0,48.0
2570,71.0,240,480,0.0,49.0
2571,67.0,0,480,3.0,51.0
2572,75.0,0,156,0.0,47.0
2573,69.0,240,240,1.0,47.0
2574,66.0,0,240,3.0,49.0
2575,59.0,0,720,3.0,51.0
2576,78.0,240,240,0.0,46.0
2577,76.0,240,156,0.0,41.0
2578,64.0,0,480,3.0,48.0
2579,67.0,0,480,1.0,46.0
2580,81.0,240,156,0.0,44.0
2581,79.0,240,156,0.0,43.0
2582,69.0,240,156,3.0,44.0
2583,77.0,0,156,0.0,42.0
2584,67.0,240,156,3.0,43.0
2585,76.0,0,156,0.0,41.0
2586,65.0,240,156,3.0,42.0
2587,74.0,0,156,0.0,40.0
2588,64.0,240,156,3.0,41.0
2589,72.0,0,156,0.0,39.0
2590,74.0,0,156,0.0,42.0
2591,65.0,240,156,3.0,39.0
2592,72.0,240,156,0.0,77.0
2593,67.0,0,480,0.0,77.0
2594,64.0,240,480,3.0,77.0
2595,71.0,240,156,0.0,76.0
2596,65.0,0,240,1.0,76.0
2597,62.0,0,240,3.0,76.0
2598,55.0,0,720,3.0,77.0
2599,74.0,240,240,0.0,76.0
2600,72.0,240,156,0.0,70.0
2601,60.0,0,480,3.0,76.0
2602,48.0,0,480,3.0,76.0
2603,64.0,0,480,1.0,76.0
2604,72.0,240,156,0.0,75.0
2605,62.0,0,240,1.0,75.0
2606,69.0,240,156,0.0,74.0
2607,60.0,0,480,3.0,74.0
2608,64.0,0,480,0.0,75.0
2609,68.0,0,156,0.0,74.0
2610,52.0,240,720,3.0,74.0
2611,62.0,240,240,1.0,74.0
2612,59.0,0,240,3.0,73.0
2613,71.0,0,240,0.0,73.0
2614,69.0,240,156,0.0,73.0
2615,57.0,240,480,3.0,73.0
2616,45.0,0,480,3.0,73.0
2617,60.0,0,480,1.0,73.0
2618,69.0,240,156,0.0,72.0
2619,67.0,240,156,0.0,71.0
2620,59.0,240,480,3.0,71.0
2621,62.0,0,480,0.0,72.0
2622,66.0,240,156,0.0,71.0
2623,57.0,0,240,3.0,70.0
2624,50.0,0,720,3.0,71.0
2625,60.0,0,240,1.0,71.0
2626,67.0,240,156,0.0,70.0
2627,67.0,240,156,0.0,69.0
2628,59.0,0,720,1.0,70.0
2629,55.0,0,720,3.0,69.0
2630,43.0,240,720,3.0,69.0
2631,61.0,240,156,0.0,68.0
2632,61.0,240,156,0.0,68.0
2633,45.0,0,720,3.0,68.0
2634,55.0,240,720,1.0,69.0
2635,52.0,0,720,3.0,68.0
2636,50.0,240,156,2.0,53.0
2637,62.0,240,480,0.0,65.0
2638,54.0,0,480,1.0,65.0
2639,38.0,0,480,3.0,65.0
2640,50.0,240,156,2.0,52.0
2641,72.0,180,60,0.0,63.0
2642,71.0,0,240,0.0,63.0
2643,50.0,0,156,2.0,51.0
2644,69.0,240,240,0.0,62.0
2645,50.0,0,156,2.0,51.0
2646,43.0,60,682,3.0,57.0
2647,71.0,240,240,0.0,61.0
2648,50.0,240,156,2.0,50.0
2649,50.0,240,156,2.0,49.0
2650,45.0,240,682,3.0,56.0
2651,71.0,180,60,0.0,58.0
2652,72.0,0,720,0.0,60.0
2653,69.0,60,240,0.0,58.0
2654,50.0,0,156,2.0,49.0
2655,68.0,240,240,0.0,57.0
2656,50.0,240,156,2.0,48.0
2657,48.0,0,682,3.0,55.0
2658,69.0,0,240,0.0,56.0
2659,50.0,240,156,2.0,47.0
2660,50.0,240,156,2.0,47.0
2661,47.0,240,682,3.0,53.0
2662,74.0,0,960,0.0,55.0
2663,50.0,240,156,2.0,46.0
2664,72.0,0,240,0.0,52.0
2665,50.0,0,156,2.0,45.0
2666,43.0,240,682,3.0,52.0
2667,71.0,240,240,0.0,51.0
2668,69.0,0,240,0.0,51.0
2669,50.0,240,156,2.0,44.0
2670,71.0,0,156,0.0,50.0
2671,50.0,0,156,2.0,44.0
2672,67.0,240,156,0.0,49.0
2673,45.0,240,682,3.0,50.0
2674,66.0,0,240,0.0,48.0
2675,67.0,240,156,0.0,47.0
2676,49.0,0,156,2.0,43.0
2677,49.0,240,156,2.0,42.0
2678,64.0,0,156,0.0,46.0
2679,45.0,240,682,3.0,49.0
2680,50.0,240,156,2.0,43.0
2681,50.0,240,156,2.0,44.0
2682,38.0,0,682,3.0,50.0
2683,62.0,240,960,0.0,46.0
2684,50.0,0,156,2.0,45.0
2685,64.0,240,240,0.0,48.0
2686,50.0,240,156,2.0,46.0
2687,48.0,240,682,3.0,51.0
2688,66.0,0,240,0.0,49.0
2689,69.0,180,60,0.0,50.0
2690,67.0,60,240,0.0,50.0
2691,50.0,0,156,2.0,47.0
2692,66.0,240,240,0.0,51.0
2693,50.0,240,156,2.0,47.0
2694,47.0,0,682,3.0,53.0
2695,67.0,0,240,0.0,52.0
2696,62.0,0,240,0.0,53.0
2697,50.0,240,156,2.0,49.0
2698,66.0,0,240,0.0,54.0
2699,50.0,240,156,2.0,49.0
2700,43.0,240,682,3.0,54.0
2701,67.0,0,240,0.0,55.0
2702,71.0,180,60,0.0,56.0
2703,69.0,60,240,0.0,56.0
2704,50.0,240,156,2.0,51.0
2705,68.0,0,240,0.0,57.0
2706,50.0,0,156,2.0,51.0
2707,42.0,0,682,3.0,55.0
2708,69.0,240,240,0.0,58.0
2709,62.0,0,240,0.0,59.0
2710,50.0,240,156,2.0,53.0
2711,67.0,0,240,0.0,60.0
2712,50.0,240,156,2.0,53.0
2713,38.0,240,682,3.0,57.0
2714,69.0,0,240,0.0,61.0
2715,72.0,180,60,0.0,62.0
2716,71.0,60,240,0.0,62.0
2717,69.0,240,240,0.0,63.0
2718,50.0,0,240,2.0,55.0
2719,43.0,0,682,3.0,58.0
2720,55.0,0,240,2.0,55.0
2721,71.0,240,240,0.0,64.0
2722,72.0,240,240,0.0,65.0
2723,52.0,240,240,2.0,56.0
2724,74.0,0,240,0.0,66.0
2725,48.0,0,682,3.0,60.0
2726,57.0,240,240,2.0,57.0
2727,76.0,0,240,0.0,67.0
2728,62.0,240,156,2.0,53.0
2729,62.0,240,156,2.0,49.0
2730,50.0,0,716,3.0,63.0
2731,84.0,180,60,0.0,65.0
2732,69.0,240,720,0.0,62.0
2733,83.0,0,240,0.0,64.0
2734,62.0,0,156,2.0,55.0
2735,81.0,240,240,0.0,63.0
2736,62.0,0,156,2.0,54.0
2737,55.0,60,682,3.0,61.0
2738,83.0,240,240,0.0,62.0
2739,62.0,240,156,2.0,53.0
2740,62.0,240,156,2.0,52.0
2741,57.0,240,682,3.0,59.0
2742,84.0,0,720,0.0,62.0
2743,83.0,180,60,0.0,59.0
2744,81.0,0,240,0.0,59.0
2745,62.0,240,156,2.0,51.0
2746,80.0,0,240,0.0,58.0
2747,62.0,0,156,2.0,50.0
2748,60.0,60,682,3.0,57.0
2749,81.0,240,240,0.0,57.0
2750,62.0,240,156,2.0,49.0
2751,62.0,240,156,2.0,48.0
2752,59.0,0,682,3.0,55.0
2753,86.0,240,960,0.0,56.0
2754,62.0,240,156,2.0,47.0
2755,84.0,0,240,0.0,52.0
2756,62.0,0,156,2.0,47.0
2757,55.0,240,682,3.0,53.0
2758,83.0,240,240,0.0,51.0
2759,81.0,0,240,0.0,50.0
2760,83.0,240,156,0.0,49.0
2761,62.0,0,156,2.0,45.0
2762,79.0,0,156,0.0,48.0
2763,62.0,240,156,2.0,45.0
2764,57.0,240,682,3.0,51.0
2765,78.0,240,240,0.0,47.0
2766,61.0,0,156,2.0,43.0
2767,79.0,240,156,0.0,46.0
2768,76.0,0,156,0.0,45.0
2769,61.0,240,156,2.0,42.0
2770,57.0,0,682,3.0,49.0
2771,62.0,240,156,2.0,43.0
2772,62.0,240,156,2.0,44.0
2773,50.0,240,682,3.0,48.0
2774,74.0,0,960,0.0,44.0
2775,62.0,0,156,2.0,46.0
2776,76.0,240,240,0.0,46.0
2777,62.0,240,156,2.0,47.0
2778,60.0,240,682,3.0,50.0
2779,78.0,0,240,0.0,47.0
2780,81.0,180,60,0.0,48.0
2781,79.0,60,240,0.0,48.0
2782,62.0,0,156,2.0,48.0
2783,78.0,240,240,0.0,49.0
2784,62.0,0,156,2.0,48.0
2785,59.0,0,682,3.0,53.0
2786,79.0,240,240,0.0,50.0
2787,74.0,240,240,0.0,51.0
2788,62.0,240,156,2.0,51.0
2789,78.0,0,240,0.0,52.0
2790,62.0,240,156,2.0,51.0
2791,55.0,0,648,3.0,55.0
2792,83.0,180,60,0.0,54.0
2793,79.0,0,240,0.0,53.0
2794,81.0,0,240,0.0,54.0
2795,62.0,240,156,2.0,53.0
2796,80.0,0,240,0.0,55.0
2797,62.0,240,156,2.0,54.0
2798,54.0,60,648,3.0,58.0
2799,84.0,180,60,0.0,57.0
2800,81.0,0,240,0.0,56.0
2801,83.0,60,240,0.0,57.0
2802,62.0,0,156,2.0,55.0
2803,81.0,240,240,0.0,58.0
2804,62.0,240,156,2.0,56.0
2805,55.0,0,648,3.0,60.0
2806,83.0,0,240,0.0,59.0
2807,86.0,180,60,0.0,60.0
2808,84.0,0,240,0.0,60.0
2809,83.0,240,240,0.0,61.0
2810,52.0,0,240,2.0,56.0
2811,48.0,60,648,3.0,65.0
2812,57.0,240,240,2.0,55.0
2813,84.0,0,240,0.0,62.0
2814,88.0,240,480,0.0,60.0
2815,57.0,240,240,2.0,53.0
2816,54.0,0,240,2.0,53.0
2817,50.0,0,648,3.0,60.0
2818,78.0,240,240,0.0,55.0
2819,60.0,0,240,2.0,52.0
2820,59.0,240,240,2.0,50.0
2821,79.0,0,480,0.0,52.0
2822,55.0,240,648,3.0,54.0
2823,69.0,180,60,0.0,52.0
2824,62.0,240,240,2.0,49.0
2825,67.0,60,240,0.0,52.0
2826,66.0,240,240,0.0,54.0
2827,67.0,240,240,0.0,55.0
2828,74.0,480,0,0.0,59.0
2829,74.0,240,0,0.0,60.0
2830,62.0,0,720,2.0,57.0
2831,59.0,240,720,3.0,57.0
2832,67.0,0,720,1.0,56.0
2833,74.0,480,0,0.0,62.0
2834,62.0,0,720,2.0,59.0
2835,58.0,0,720,3.0,59.0
2836,68.0,0,720,1.0,60.0
2837,74.0,0,480,0.0,64.0
2838,71.0,180,60,0.0,52.0
2839,64.0,240,720,2.0,62.0
2840,73.0,480,240,0.0,59.0
2841,57.0,0,720,3.0,62.0
2842,69.0,0,720,1.0,64.0
2843,69.0,60,240,0.0,52.0
2844,68.0,240,240,0.0,53.0
2845,69.0,240,240,0.0,53.0
2846,72.0,0,480,0.0,54.0
2847,69.0,0,720,1.0,54.0
2848,64.0,240,720,2.0,53.0
2849,72.0,480,240,0.0,55.0
2850,57.0,0,720,3.0,53.0
2851,72.0,480,0,0.0,57.0
2852,72.0,240,0,0.0,59.0
2853,69.0,0,720,1.0,55.0
2854,54.0,0,720,3.0,56.0
2855,63.0,240,720,2.0,56.0
2856,67.0,0,720,1.0,59.0
2857,55.0,0,720,3.0,58.0
2858,62.0,0,720,2.0,58.0
2859,71.0,60,0,0.0,57.0
2860,72.0,180,60,0.0,57.0
2861,62.0,0,156,2.0,53.0
2862,69.0,240,240,0.0,57.0
2863,62.0,240,156,2.0,52.0
2864,55.0,0,648,3.0,57.0
2865,71.0,0,240,0.0,56.0
2866,62.0,240,156,2.0,51.0
2867,62.0,240,156,2.0,50.0
2868,57.0,240,648,3.0,55.0
2869,71.0,180,60,0.0,57.0
2870,72.0,0,720,0.0,59.0
2871,69.0,0,240,0.0,57.0
2872,62.0,240,156,2.0,49.0
2873,68.0,0,240,0.0,56.0
2874,62.0,240,156,2.0,49.0
2875,60.0,60,648,3.0,54.0
2876,69.0,0,240,0.0,56.0
2877,55.0,240,156,2.0,48.0
2878,55.0,240,156,2.0,47.0
2879,59.0,0,716,3.0,53.0
2880,74.0,240,960,0.0,55.0
2881,55.0,240,156,2.0,46.0
2882,75.0,0,240,0.0,52.0
2883,55.0,0,156,2.0,46.0
2884,48.0,240,648,3.0,51.0
2885,76.0,240,240,0.0,52.0
2886,55.0,240,156,2.0,44.0
2887,67.0,240,480,0.0,53.0
2888,69.0,0,60,0.0,51.0
2889,67.0,60,60,0.0,51.0
2890,55.0,240,156,2.0,44.0
2891,50.0,0,648,3.0,50.0
2892,66.0,60,60,0.0,51.0
2893,67.0,60,60,0.0,50.0
2894,54.0,240,156,2.0,43.0
2895,71.0,60,480,0.0,50.0
2896,54.0,0,156,2.0,42.0
2897,50.0,0,648,3.0,48.0
2898,69.0,240,240,0.0,48.0
2899,55.0,240,156,2.0,41.0
2900,67.0,240,480,0.0,47.0
2901,55.0,240,156,2.0,41.0
2902,43.0,0,648,3.0,47.0
2903,69.0,180,60,0.0,50.0
2904,67.0,60,240,0.0,50.0
2905,66.0,240,240,0.0,51.0
2906,67.0,240,240,0.0,52.0
2907,62.0,240,156,2.0,52.0
2908,74.0,240,0,0.0,55.0
2909,62.0,0,156,2.0,53.0
2910,59.0,0,648,3.0,51.0
2911,74.0,240,0,0.0,56.0
2912,67.0,240,720,1.0,53.0
2913,62.0,240,156,2.0,55.0
2914,62.0,240,156,2.0,56.0
2915,58.0,0,648,3.0,54.0
2916,68.0,0,720,1.0,56.0
2917,74.0,0,0,0.0,62.0
2918,64.0,240,156,2.0,53.0
2919,64.0,0,156,2.0,51.0
2920,71.0,180,60,0.0,44.0
2921,69.0,240,720,1.0,62.0
2922,73.0,240,240,0.0,50.0
2923,64.0,60,156,2.0,49.0
2924,69.0,0,240,0.0,44.0
2925,64.0,240,156,2.0,47.0
2926,68.0,0,240,0.0,46.0
2927,64.0,0,156,2.0,45.0
2928,57.0,0,1362,3.0,57.0
2929,69.0,240,240,0.0,48.0
2930,64.0,240,156,2.0,45.0
2931,72.0,240,480,0.0,49.0
2932,64.0,0,156,2.0,47.0
2933,57.0,0,648,3.0,44.0
2934,69.0,0,720,1.0,49.0
2935,72.0,0,0,0.0,54.0
2936,63.0,240,156,2.0,51.0
2937,72.0,240,0,0.0,57.0
2938,63.0,0,156,2.0,52.0
2939,54.0,0,648,3.0,49.0
2940,69.0,240,720,1.0,54.0
2941,62.0,240,156,2.0,55.0
2942,72.0,0,480,0.0,59.0
2943,62.0,0,156,2.0,54.0
2944,67.0,0,720,1.0,59.0
2945,72.0,180,60,0.0,56.0
2946,71.0,240,240,0.0,57.0
2947,62.0,0,156,2.0,54.0
2948,71.0,60,240,0.0,56.0
2949,62.0,0,156,2.0,53.0
2950,69.0,240,240,0.0,55.0
2951,62.0,0,156,2.0,53.0
2952,55.0,240,1396,3.0,56.0
2953,71.0,240,240,0.0,55.0
2954,62.0,240,156,2.0,52.0
2955,62.0,240,156,2.0,51.0
2956,57.0,0,648,3.0,52.0
2957,72.0,240,720,0.0,54.0
2958,71.0,180,60,0.0,52.0
2959,69.0,60,240,0.0,52.0
2960,62.0,0,156,2.0,50.0
2961,68.0,240,240,0.0,51.0
2962,62.0,0,156,2.0,49.0
2963,60.0,0,648,3.0,51.0
2964,69.0,240,240,0.0,51.0
2965,55.0,240,156,2.0,48.0
2966,55.0,240,156,2.0,48.0
2967,59.0,0,648,3.0,49.0
2968,74.0,240,960,0.0,50.0
2969,75.0,240,240,0.0,48.0
2970,55.0,0,240,2.0,47.0
2971,60.0,0,240,2.0,46.0
2972,76.0,240,240,0.0,47.0
2973,48.0,240,750,3.0,47.0
2974,55.0,240,240,2.0,45.0
2975,67.0,0,480,0.0,51.0
2976,69.0,0,60,0.0,48.0
2977,67.0,60,60,0.0,48.0
2978,66.0,60,60,0.0,48.0
2979,59.0,240,240,2.0,44.0
2980,67.0,60,60,0.0,47.0
2981,71.0,60,480,0.0,47.0
2982,54.0,240,240,2.0,43.0
2983,69.0,240,240,0.0,44.0
2984,60.0,0,240,2.0,43.0
2985,50.0,240,1470,3.0,46.0
2986,67.0,0,360,0.0,42.0
2987,55.0,240,360,3.0,42.0
2988,59.0,0,360,2.0,42.0
2989,62.0,480,156,0.0,46.0
2990,62.0,240,156,0.0,48.0
2991,67.0,0,156,0.0,50.0
2992,62.0,0,156,2.0,41.0
2993,59.0,240,156,3.0,41.0
2994,69.0,240,156,0.0,51.0
2995,60.0,0,156,2.0,42.0
2996,57.0,0,156,3.0,42.0
2997,71.0,0,240,0.0,54.0
2998,67.0,240,156,0.0,50.0
2999,55.0,0,480,3.0,44.0
3000,59.0,240,480,2.0,44.0
3001,64.0,240,156,0.0,46.0
3002,64.0,240,156,0.0,49.0
3003,60.0,0,156,2.0,47.0
3004,57.0,0,156,3.0,47.0
3005,69.0,240,156,0.0,51.0
3006,71.0,0,156,0.0,54.0
3007,55.0,0,156,3.0,50.0
3008,59.0,240,156,2.0,50.0
3009,72.0,0,240,0.0,56.0
3010,69.0,240,156,0.0,49.0
3011,57.0,0,480,2.0,52.0
3012,54.0,240,480,3.0,52.0
3013,50.0,240,0,3.0,69.0
3014,74.0,240,156,0.0,62.0
3015,71.0,0,156,1.0,62.0
3016,55.0,0,240,3.0,71.0
3017,69.0,0,156,1.0,64.0
3018,72.0,240,156,0.0,64.0
3019,57.0,0,240,3.0,72.0
3020,71.0,0,240,0.0,65.0
3021,67.0,240,240,1.0,65.0
3022,62.0,240,156,0.0,66.0
3023,59.0,0,480,3.0,73.0
3024,50.0,240,0,3.0,76.0
3025,69.0,0,156,1.0,69.0
3026,72.0,0,156,0.0,69.0
3027,57.0,240,240,3.0,77.0
3028,71.0,0,156,0.0,70.0
3029,67.0,0,156,1.0,70.0
3030,59.0,240,240,3.0,79.0
3031,66.0,240,240,1.0,71.0
3032,69.0,0,240,0.0,71.0
3033,62.0,240,156,0.0,73.0
3034,60.0,0,480,3.0,80.0
3035,62.0,240,156,0.0,46.0
3036,62.0,240,156,0.0,48.0
3037,62.0,0,156,2.0,41.0
3038,59.0,240,156,3.0,41.0
3039,67.0,0,156,0.0,50.0
3040,69.0,240,156,0.0,51.0
3041,60.0,0,156,2.0,42.0
3042,57.0,0,156,3.0,42.0
3043,71.0,0,240,0.0,54.0
3044,67.0,240,156,0.0,50.0
3045,59.0,0,480,2.0,44.0
3046,55.0,240,480,3.0,44.0
3047,64.0,240,156,0.0,46.0
3048,64.0,240,156,0.0,49.0
3049,69.0,0,156,0.0,51.0
3050,64.0,0,156,2.0,47.0
3051,60.0,240,156,3.0,47.0
3052,59.0,0,156,3.0,50.0
3053,62.0,240,156,2.0,50.0
3054,71.0,0,156,0.0,54.0
3055,72.0,0,240,0.0,56.0
3056,69.0,240,156,0.0,53.0
3057,57.0,240,480,3.0,52.0
3058,60.0,0,480,2.0,52.0
3059,76.0,240,156,0.0,52.0
3060,74.0,240,156,0.0,50.0
3061,72.0,0,156,0.0,49.0
3062,57.0,0,156,2.0,47.0
3063,54.0,240,156,3.0,47.0
3064,59.0,0,156,2.0,46.0
3065,55.0,240,156,3.0,46.0
3066,71.0,0,156,0.0,47.0
3067,60.0,0,240,2.0,44.0
3068,69.0,240,240,0.0,46.0
3069,57.0,0,240,3.0,44.0
3070,59.0,0,156,3.0,42.0
3071,67.0,0,156,0.0,44.0
3072,62.0,240,156,2.0,42.0
3073,64.0,240,156,3.0,84.0
3074,62.0,240,156,3.0,80.0
3075,60.0,240,156,3.0,78.0
3076,76.0,0,156,0.0,79.0
3077,74.0,240,156,1.0,78.0
3078,59.0,0,156,3.0,75.0
3079,79.0,0,156,0.0,78.0
3080,72.0,0,240,1.0,81.0
3081,78.0,240,240,0.0,81.0
3082,57.0,0,240,3.0,78.0
3083,79.0,240,156,0.0,74.0
3084,55.0,0,156,3.0,71.0
3085,71.0,0,156,1.0,74.0
3086,76.0,240,156,0.0,53.0
3087,74.0,240,156,0.0,51.0
3088,54.0,0,156,3.0,52.0
3089,72.0,0,156,0.0,50.0
3090,57.0,240,156,2.0,52.0
3091,59.0,0,156,2.0,50.0
3092,71.0,240,156,0.0,49.0
3093,55.0,0,156,3.0,50.0
3094,57.0,0,240,3.0,48.0
3095,69.0,0,240,0.0,47.0
3096,60.0,240,240,2.0,48.0
3097,67.0,0,156,0.0,46.0
3098,59.0,0,156,3.0,47.0
3099,62.0,240,156,2.0,47.0
3100,64.0,240,156,3.0,82.0
3101,62.0,240,156,3.0,76.0
3102,76.0,0,156,0.0,74.0
3103,60.0,240,156,3.0,73.0
3104,79.0,240,156,0.0,72.0
3105,59.0,0,156,3.0,71.0
3106,74.0,0,156,1.0,72.0
3107,57.0,0,240,3.0,73.0
3108,72.0,0,240,1.0,75.0
3109,78.0,240,240,0.0,75.0
3110,55.0,240,156,3.0,66.0
3111,71.0,0,156,1.0,68.0
3112,79.0,0,156,0.0,68.0
3113,62.0,240,240,3.0,63.0
3114,77.0,0,240,1.0,52.0
3115,80.0,240,240,0.0,52.0
3116,78.0,240,156,1.0,57.0
3117,81.0,0,156,0.0,57.0
3118,62.0,240,156,3.0,59.0
3119,78.0,240,240,1.0,65.0
3120,81.0,0,240,0.0,65.0
3121,79.0,240,156,1.0,69.0
3122,83.0,0,156,0.0,69.0
3123,62.0,240,156,3.0,71.0
3124,80.0,0,240,1.0,77.0
3125,83.0,240,240,0.0,77.0
3126,84.0,0,156,0.0,81.0
3127,81.0,240,156,1.0,81.0
3128,62.0,240,156,3.0,83.0
3129,81.0,0,1192,1.0,90.0
3130,84.0,0,1200,0.0,90.0
3131,78.0,0,1432,1.0,90.0
3132,72.0,240,1440,1.0,90.0
3133,81.0,1200,240,0.0,66.0
3134,50.0,0,1920,3.0,88.0
3135,57.0,0,1920,3.0,88.0
3136,78.0,240,480,0.0,63.0
3137,62.0,0,1920,3.0,88.0
3138,54.0,0,1920,3.0,88.0
3139,38.0,1920,156,3.0,41.0
3140,38.0,240,156,3.0,44.0
3141,45.0,240,156,3.0,47.0
3142,47.0,240,156,3.0,50.0
3143,54.0,240,240,1.0,51.0
3144,57.0,240,240,1.0,51.0
3145,54.0,240,240,1.0,50.0
3146,48.0,0,720,3.0,55.0
3147,62.0,0,0,0.0,50.0
3148,55.0,240,240,1.0,50.0
3149,59.0,240,240,1.0,50.0
3150,47.0,0,720,3.0,53.0
3151,55.0,240,240,1.0,49.0
3152,60.0,0,240,1.0,49.0
3153,62.0,240,240,1.0,49.0
3154,66.0,240,720,0.0,49.0
3155,60.0,240,240,1.0,48.0
3156,45.0,0,720,3.0,51.0
3157,59.0,0,240,1.0,48.0
3158,62.0,240,240,1.0,48.0
3159,43.0,0,720,3.0,49.0
3160,67.0,240,720,0.0,48.0
3161,59.0,240,240,1.0,47.0
3162,64.0,240,240,0.0,46.0
3163,68.0,240,240,0.0,46.0
3164,69.0,240,240,0.0,46.0
3165,72.0,240,240,0.0,45.0
3166,48.0,240,1440,3.0,47.0
3167,60.0,0,720,3.0,45.0
3168,69.0,240,240,0.0,45.0
3169,67.0,0,240,0.0,45.0
3170,71.0,240,240,0.0,44.0
3171,67.0,240,240,0.0,44.0
3172,59.0,240,720,3.0,43.0
3173,50.0,0,720,3.0,43.0
3174,62.0,0,720,1.0,45.0
3175,66.0,0,240,0.0,43.0
3176,69.0,240,240,0.0,43.0
3177,66.0,240,240,0.0,43.0
3178,60.0,240,720,1.0,43.0
3179,57.0,0,720,3.0,41.0
3180,50.0,0,720,3.0,41.0
3181,67.0,240,480,0.0,42.0
3182,59.0,0,480,1.0,42.0
3183,43.0,0,632,3.0,42.0
3184,50.0,240,444,2.0,43.0
3185,62.0,240,240,0.0,45.0
3186,55.0,0,240,2.0,44.0
3187,62.0,0,240,0.0,46.0
3188,69.0,240,240,0.0,47.0
3189,43.0,240,632,3.0,44.0
3190,50.0,0,444,2.0,45.0
3191,71.0,0,240,0.0,48.0
3192,55.0,240,240,2.0,46.0
3193,72.0,240,360,0.0,49.0
3194,43.0,0,632,3.0,47.0
3195,50.0,240,444,2.0,48.0
3196,54.0,240,240,2.0,49.0
3197,74.0,0,240,0.0,51.0
3198,74.0,240,240,0.0,52.0
3199,81.0,0,240,0.0,53.0
3200,43.0,0,632,3.0,50.0
3201,50.0,240,444,2.0,51.0
3202,54.0,240,240,2.0,52.0
3203,83.0,0,240,0.0,54.0
3204,84.0,0,360,0.0,55.0
3205,43.0,240,632,3.0,53.0
3206,50.0,240,444,2.0,54.0
3207,54.0,0,240,2.0,54.0
3208,62.0,240,240,0.0,57.0
3209,62.0,0,240,0.0,58.0
3210,74.0,0,240,0.0,59.0
3211,43.0,240,632,3.0,55.0
3212,50.0,240,444,2.0,56.0
3213,72.0,0,240,0.0,60.0
3214,54.0,240,240,2.0,57.0
3215,71.0,240,360,0.0,61.0
3216,43.0,0,632,3.0,58.0
3217,50.0,240,444,2.0,59.0
3218,74.0,0,240,0.0,63.0
3219,55.0,240,240,2.0,60.0
3220,74.0,240,240,0.0,64.0
3221,86.0,0,240,0.0,65.0
3222,43.0,0,632,3.0,61.0
3223,50.0,240,444,2.0,62.0
3224,54.0,0,240,2.0,63.0
3225,84.0,240,240,0.0,66.0
3226,83.0,0,360,0.0,67.0
3227,43.0,240,632,3.0,64.0
3228,50.0,240,444,2.0,65.0
3229,55.0,240,240,2.0,65.0
3230,62.0,0,0,0.0,70.0
3231,69.0,0,240,0.0,71.0
3232,43.0,240,632,3.0,66.0
3233,50.0,240,444,2.0,67.0
3234,71.0,240,240,0.0,72.0
3235,55.0,0,240,2.0,68.0
3236,72.0,240,360,0.0,73.0
3237,43.0,0,632,3.0,69.0
3238,50.0,240,444,2.0,70.0
3239,54.0,240,240,2.0,71.0
3240,74.0,0,240,0.0,75.0
3241,74.0,0,240,0.0,76.0
3242,81.0,0,240,0.0,77.0
3243,43.0,240,632,3.0,72.0
3244,50.0,240,444,2.0,73.0
3245,83.0,240,240,0.0,78.0
3246,54.0,0,240,2.0,74.0
3247,84.0,240,360,0.0,79.0
3248,43.0,0,632,3.0,75.0
3249,50.0,240,444,2.0,75.0
3250,54.0,240,240,2.0,76.0
3251,62.0,0,240,0.0,81.0
3252,62.0,0,240,0.0,82.0
3253,74.0,0,240,0.0,83.0
3254,43.0,240,632,3.0,77.0
3255,50.0,240,444,2.0,78.0
3256,72.0,240,240,0.0,84.0
3257,54.0,0,240,2.0,79.0
3258,71.0,240,360,0.0,85.0
3259,43.0,0,632,3.0,80.0
3260,50.0,240,444,2.0,81.0
3261,55.0,240,240,2.0,82.0
3262,74.0,0,0,0.0,88.0
3263,86.0,0,240,0.0,89.0
3264,43.0,240,632,3.0,83.0
3265,50.0,240,444,2.0,84.0
3266,84.0,240,240,0.0,90.0
3267,54.0,0,240,2.0,85.0
3268,83.0,240,360,0.0,91.0
3269,43.0,0,632,3.0,85.0
3270,50.0,240,444,2.0,86.0
3271,55.0,0,240,2.0,87.0
3272,62.0,240,240,0.0,93.0
3273,62.0,0,240,0.0,94.0
3274,74.0,0,240,0.0,95.0
3275,43.0,240,632,3.0,88.0
3276,50.0,240,444,2.0,89.0
3277,54.0,240,240,2.0,90.0
3278,72.0,0,240,0.0,96.0
3279,71.0,0,360,0.0,97.0
3280,43.0,240,632,3.0,91.0
3281,50.0,240,444,2.0,92.0
3282,55.0,240,240,2.0,93.0
3283,74.0,0,240,0.0,99.0
3284,74.0,0,240,0.0,100.0
3285,86.0,240,240,0.0,101.0
3286,43.0,240,632,3.0,94.0
3287,50.0,0,444,2.0,95.0
3288,54.0,240,240,2.0,96.0
3289,84.0,0,240,0.0,102.0
3290,83.0,240,360,0.0,103.0
3291,43.0,0,632,3.0,96.0
3292,50.0,240,444,2.0,97.0
3293,55.0,240,240,2.0,98.0
3294,71.0,0,360,0.0,106.0
3295,83.0,0,360,0.0,106.0
3296,79.0,0,360,0.0,106.0
3297,74.0,0,360,0.0,106.0
3298,43.0,240,632,3.0,99.0
3299,50.0,240,444,2.0,100.0
3300,55.0,240,240,2.0,101.0
3301,79.0,0,360,0.0,106.0
3302,74.0,0,360,0.0,106.0
3303,71.0,0,360,0.0,106.0
3304,67.0,0,360,0.0,106.0
3305,43.0,240,480,3.0,99.0
