,note,step,duration,channel,velocity
0,62.0,240,240,0.0,0.0
1,70.0,240,240,0.0,0.0
2,58.0,240,240,3.0,0.0
3,67.0,0,240,0.0,0.0
4,62.0,0,240,2.0,0.0
5,60.0,0,240,2.0,0.0
6,66.0,240,240,0.0,0.0
7,57.0,0,240,3.0,0.0
8,58.0,0,240,2.0,0.0
9,67.0,240,240,0.0,0.0
10,55.0,0,240,3.0,0.0
11,57.0,240,240,2.0,0.0
12,62.0,0,960,1.0,0.0
13,54.0,0,240,3.0,0.0
14,72.0,240,960,0.0,0.0
15,54.0,0,240,2.0,0.0
16,50.0,240,240,3.0,0.0
17,55.0,240,240,2.0,0.0
18,52.0,0,240,3.0,0.0
19,54.0,0,240,3.0,0.0
20,57.0,0,240,2.0,0.0
21,55.0,0,240,3.0,0.0
22,58.0,0,240,2.0,0.0
23,70.0,240,240,0.0,0.0
24,62.0,240,240,2.0,0.0
25,58.0,0,240,3.0,0.0
26,67.0,0,240,0.0,0.0
27,66.0,0,240,0.0,0.0
28,57.0,240,240,3.0,0.0
29,60.0,0,240,2.0,0.0
30,55.0,0,240,3.0,0.0
31,58.0,0,240,2.0,0.0
32,67.0,480,240,0.0,0.0
33,67.0,156,960,1.0,0.0
34,48.0,0,960,3.0,0.0
35,75.0,0,960,0.0,0.0
36,51.0,240,240,3.0,0.0
37,55.0,240,240,3.0,0.0
38,60.0,0,240,3.0,0.0
39,74.0,324,150,0.0,0.0
40,58.0,156,480,3.0,0.0
41,78.0,0,240,0.0,0.0
42,79.0,324,150,0.0,0.0
43,74.0,0,240,0.0,0.0
44,58.0,0,240,3.0,0.0
45,54.0,0,480,3.0,0.0
46,72.0,324,150,0.0,0.0
47,62.0,156,15,2.0,0.0
48,80.0,156,240,0.0,0.0
49,81.0,324,150,0.0,0.0
50,62.0,0,240,2.0,0.0
51,72.0,240,240,0.0,0.0
52,54.0,0,240,3.0,0.0
53,55.0,0,480,3.0,0.0
54,62.0,0,480,2.0,0.0
55,70.0,240,240,0.0,0.0
56,79.0,240,240,0.0,0.0
57,48.0,360,480,3.0,0.0
58,69.0,240,240,0.0,0.0
59,60.0,0,480,2.0,0.0
60,75.0,0,240,0.0,0.0
61,58.0,0,480,2.0,0.0
62,50.0,0,720,3.0,0.0
63,67.0,60,360,0.0,0.0
64,69.0,60,60,0.0,0.0
65,67.0,156,60,0.0,0.0
66,57.0,240,240,2.0,0.0
67,66.0,84,150,0.0,0.0
68,62.0,240,240,0.0,0.0
69,70.0,240,240,0.0,0.0
70,62.0,240,240,2.0,0.0
71,67.0,0,240,0.0,0.0
72,58.0,0,240,3.0,0.0
73,57.0,240,240,3.0,0.0
74,66.0,0,240,0.0,0.0
75,60.0,0,240,2.0,0.0
76,58.0,0,240,2.0,0.0
77,67.0,0,240,0.0,0.0
78,55.0,240,240,3.0,0.0
79,57.0,0,240,2.0,0.0
80,72.0,0,960,0.0,0.0
81,62.0,240,960,1.0,0.0
82,54.0,240,240,3.0,0.0
83,54.0,240,240,2.0,0.0
84,50.0,0,240,3.0,0.0
85,52.0,240,240,3.0,0.0
86,55.0,0,240,2.0,0.0
87,54.0,0,240,3.0,0.0
88,57.0,0,240,2.0,0.0
89,55.0,0,240,3.0,0.0
90,58.0,240,240,2.0,0.0
91,70.0,0,240,0.0,0.0
92,62.0,0,240,2.0,0.0
93,58.0,0,240,3.0,0.0
94,67.0,240,240,0.0,0.0
95,60.0,0,240,2.0,0.0
96,57.0,240,240,3.0,0.0
97,66.0,0,240,0.0,0.0
98,67.0,0,240,0.0,0.0
99,55.0,480,240,3.0,0.0
100,58.0,0,240,2.0,0.0
101,51.0,240,240,2.0,0.0
102,55.0,0,240,2.0,0.0
103,75.0,240,15,0.0,0.0
104,48.0,0,15,3.0,0.0
105,57.0,0,240,2.0,0.0
106,58.0,120,480,2.0,0.0
107,50.0,0,480,3.0,0.0
108,74.0,120,120,0.0,0.0
109,77.0,120,120,0.0,0.0
110,76.0,0,120,0.0,0.0
111,79.0,120,120,0.0,0.0
112,77.0,120,120,0.0,0.0
113,53.0,0,240,2.0,0.0
114,75.0,120,120,0.0,0.0
115,50.0,0,240,3.0,0.0
116,74.0,40,120,0.0,0.0
117,51.0,0,480,3.0,0.0
118,72.0,40,30,0.0,0.0
119,55.0,235,240,2.0,0.0
120,74.0,40,30,0.0,0.0
121,75.0,125,30,0.0,0.0
122,74.0,0,120,0.0,0.0
123,60.0,40,240,2.0,0.0
124,72.0,0,240,0.0,0.0
125,71.0,40,30,0.0,0.0
126,52.0,0,480,3.0,0.0
127,55.0,5,240,2.0,0.0
128,72.0,40,30,0.0,0.0
129,74.0,120,30,0.0,0.0
130,72.0,235,120,0.0,0.0
131,60.0,40,240,2.0,0.0
132,70.0,0,240,0.0,0.0
133,53.0,0,480,3.0,0.0
134,69.0,40,30,0.0,0.0
135,60.0,120,480,2.0,0.0
136,70.0,40,30,0.0,0.0
137,72.0,120,30,0.0,0.0
138,70.0,120,120,0.0,0.0
139,69.0,120,120,0.0,0.0
140,67.0,0,120,0.0,0.0
141,65.0,120,120,0.0,0.0
142,64.0,120,120,0.0,0.0
143,65.0,60,120,0.0,0.0
144,67.0,60,60,0.0,0.0
145,65.0,216,60,0.0,0.0
146,57.0,24,210,3.0,0.0
147,75.0,0,240,0.0,0.0
148,65.0,156,120,2.0,0.0
149,60.0,24,210,3.0,0.0
150,69.0,60,150,0.0,0.0
151,65.0,156,120,2.0,0.0
152,69.0,60,150,0.0,0.0
153,63.0,24,210,3.0,0.0
154,65.0,156,120,2.0,0.0
155,60.0,24,210,3.0,0.0
156,69.0,60,150,0.0,0.0
157,65.0,120,120,2.0,0.0
158,62.0,24,210,3.0,0.0
159,70.0,40,120,0.0,0.0
160,72.0,40,30,0.0,0.0
161,65.0,0,120,2.0,0.0
162,70.0,16,30,0.0,0.0
163,69.0,120,30,0.0,0.0
164,58.0,24,210,3.0,0.0
165,70.0,96,120,0.0,0.0
166,65.0,192,120,2.0,0.0
167,74.0,0,120,0.0,0.0
168,62.0,24,210,3.0,0.0
169,77.0,24,180,0.0,0.0
170,65.0,216,120,2.0,0.0
171,58.0,24,210,3.0,0.0
172,77.0,216,240,0.0,0.0
173,65.0,0,120,2.0,0.0
174,87.0,0,240,0.0,0.0
175,57.0,24,210,3.0,0.0
176,65.0,156,120,2.0,0.0
177,81.0,60,150,0.0,0.0
178,60.0,24,210,3.0,0.0
179,65.0,156,120,2.0,0.0
180,63.0,24,210,3.0,0.0
181,81.0,60,150,0.0,0.0
182,65.0,156,120,2.0,0.0
183,81.0,60,150,0.0,0.0
184,60.0,24,210,3.0,0.0
185,65.0,120,120,2.0,0.0
186,82.0,40,120,0.0,0.0
187,62.0,24,210,3.0,0.0
188,84.0,40,30,0.0,0.0
189,65.0,0,120,2.0,0.0
190,82.0,16,30,0.0,0.0
191,81.0,120,30,0.0,0.0
192,82.0,96,120,0.0,0.0
193,58.0,24,210,3.0,0.0
194,86.0,192,120,0.0,0.0
195,65.0,0,120,2.0,0.0
196,89.0,24,180,0.0,0.0
197,62.0,24,210,3.0,0.0
198,65.0,216,120,2.0,0.0
199,58.0,24,210,3.0,0.0
200,65.0,216,240,0.0,0.0
201,65.0,0,120,2.0,0.0
202,57.0,24,210,3.0,0.0
203,75.0,156,240,0.0,0.0
204,65.0,0,120,2.0,0.0
205,69.0,60,150,0.0,0.0
206,60.0,24,210,3.0,0.0
207,65.0,156,120,2.0,0.0
208,69.0,60,150,0.0,0.0
209,63.0,24,210,3.0,0.0
210,65.0,156,120,2.0,0.0
211,69.0,60,150,0.0,0.0
212,60.0,24,210,3.0,0.0
213,65.0,120,120,2.0,0.0
214,62.0,24,210,3.0,0.0
215,70.0,40,120,0.0,0.0
216,72.0,40,30,0.0,0.0
217,65.0,0,120,2.0,0.0
218,70.0,16,30,0.0,0.0
219,69.0,120,30,0.0,0.0
220,58.0,24,210,3.0,0.0
221,70.0,96,120,0.0,0.0
222,72.0,120,120,0.0,0.0
223,65.0,0,120,2.0,0.0
224,74.0,120,120,0.0,0.0
225,56.0,24,450,3.0,0.0
226,65.0,120,120,2.0,0.0
227,70.0,0,120,0.0,0.0
228,72.0,96,120,0.0,0.0
229,58.0,0,210,2.0,0.0
230,74.0,0,120,0.0,0.0
231,65.0,120,120,2.0,0.0
232,75.0,40,120,0.0,0.0
233,55.0,24,450,3.0,0.0
234,63.0,120,120,2.0,0.0
235,77.0,40,30,0.0,0.0
236,75.0,40,30,0.0,0.0
237,74.0,0,30,0.0,0.0
238,75.0,96,120,0.0,0.0
239,58.0,0,210,2.0,0.0
240,63.0,0,120,2.0,0.0
241,77.0,120,120,0.0,0.0
242,79.0,120,120,0.0,0.0
243,51.0,24,450,3.0,0.0
244,81.0,0,120,0.0,0.0
245,63.0,120,120,2.0,0.0
246,58.0,0,210,2.0,0.0
247,82.0,96,120,0.0,0.0
248,63.0,0,120,2.0,0.0
249,79.0,120,120,0.0,0.0
250,53.0,0,450,3.0,0.0
251,76.0,120,120,0.0,0.0
252,62.0,0,120,2.0,0.0
253,77.0,120,120,0.0,0.0
254,58.0,24,210,2.0,0.0
255,79.0,96,120,0.0,0.0
256,62.0,120,120,2.0,0.0
257,77.0,0,120,0.0,0.0
258,77.0,120,120,0.0,0.0
259,53.0,0,450,3.0,0.0
260,75.0,120,120,0.0,0.0
261,63.0,0,120,2.0,0.0
262,57.0,24,210,2.0,0.0
263,74.0,96,120,0.0,0.0
264,72.0,0,120,0.0,0.0
265,63.0,120,120,2.0,0.0
266,73.0,120,120,0.0,0.0
267,62.0,120,480,2.0,0.0
268,58.0,0,480,3.0,0.0
269,74.0,120,120,0.0,0.0
270,75.0,120,120,0.0,0.0
271,74.0,0,120,0.0,0.0
272,77.0,120,120,0.0,0.0
273,75.0,120,120,0.0,0.0
274,74.0,120,120,0.0,0.0
275,72.0,120,120,0.0,0.0
276,70.0,40,120,0.0,0.0
277,62.0,24,210,3.0,0.0
278,72.0,40,30,0.0,0.0
279,65.0,0,120,2.0,0.0
280,70.0,16,30,0.0,0.0
281,69.0,120,30,0.0,0.0
282,70.0,96,120,0.0,0.0
283,58.0,24,210,3.0,0.0
284,72.0,120,120,0.0,0.0
285,65.0,0,120,2.0,0.0
286,74.0,120,120,0.0,0.0
287,56.0,8,480,3.0,0.0
288,65.0,0,120,2.0,0.0
289,70.0,120,120,0.0,0.0
290,58.0,16,210,2.0,0.0
291,72.0,96,120,0.0,0.0
292,74.0,0,120,0.0,0.0
293,65.0,120,120,2.0,0.0
294,75.0,120,120,0.0,0.0
295,55.0,24,450,3.0,0.0
296,77.0,0,120,0.0,0.0
297,63.0,120,120,2.0,0.0
298,79.0,96,120,0.0,0.0
299,58.0,0,210,2.0,0.0
300,81.0,120,120,0.0,0.0
301,63.0,0,120,2.0,0.0
302,84.0,120,120,0.0,0.0
303,51.0,24,450,3.0,0.0
304,82.0,0,120,0.0,0.0
305,63.0,120,120,2.0,0.0
306,81.0,96,120,0.0,0.0
307,58.0,0,210,2.0,0.0
308,63.0,0,120,2.0,0.0
309,79.0,120,120,0.0,0.0
310,50.0,0,450,3.0,0.0
311,79.0,120,120,0.0,0.0
312,62.0,0,120,2.0,0.0
313,77.0,120,120,0.0,0.0
314,58.0,24,210,2.0,0.0
315,76.0,96,120,0.0,0.0
316,62.0,120,120,2.0,0.0
317,77.0,0,120,0.0,0.0
318,51.0,0,450,3.0,0.0
319,81.0,120,120,0.0,0.0
320,60.0,0,120,2.0,0.0
321,79.0,120,120,0.0,0.0
322,55.0,24,210,2.0,0.0
323,77.0,96,120,0.0,0.0
324,60.0,120,120,2.0,0.0
325,75.0,0,120,0.0,0.0
326,75.0,120,120,0.0,0.0
327,53.0,24,450,3.0,0.0
328,74.0,0,120,0.0,0.0
329,62.0,120,120,2.0,0.0
330,58.0,0,210,2.0,0.0
331,73.0,96,120,0.0,0.0
332,62.0,120,120,2.0,0.0
333,74.0,0,120,0.0,0.0
334,77.0,120,120,0.0,0.0
335,53.0,24,450,3.0,0.0
336,75.0,0,120,0.0,0.0
337,63.0,120,120,2.0,0.0
338,74.0,96,120,0.0,0.0
339,57.0,0,210,2.0,0.0
340,63.0,240,120,2.0,0.0
341,72.0,0,120,0.0,0.0
342,62.0,24,450,2.0,0.0
343,70.0,0,480,0.0,0.0
344,58.0,0,450,3.0,0.0
345,65.0,120,120,2.0,0.0
346,64.0,96,120,2.0,0.0
347,65.0,120,120,2.0,0.0
348,67.0,120,120,2.0,0.0
349,65.0,120,120,2.0,0.0
350,63.0,120,120,2.0,0.0
351,72.0,0,120,0.0,0.0
352,62.0,0,120,2.0,0.0
353,74.0,240,120,0.0,0.0
354,60.0,16,450,3.0,0.0
355,75.0,0,240,0.0,0.0
356,65.0,156,120,2.0,0.0
357,69.0,44,150,0.0,0.0
358,63.0,24,210,2.0,0.0
359,65.0,156,120,2.0,0.0
360,60.0,16,450,2.0,0.0
361,69.0,84,150,0.0,0.0
362,53.0,0,450,3.0,0.0
363,65.0,156,120,2.0,0.0
364,69.0,44,150,0.0,0.0
365,63.0,24,210,2.0,0.0
366,65.0,240,120,2.0,0.0
367,58.0,24,450,3.0,0.0
368,62.0,0,450,2.0,0.0
369,70.0,120,480,0.0,0.0
370,65.0,120,120,2.0,0.0
371,64.0,96,120,2.0,0.0
372,65.0,0,120,2.0,0.0
373,67.0,120,120,2.0,0.0
374,65.0,120,120,2.0,0.0
375,63.0,0,120,2.0,0.0
376,72.0,120,120,0.0,0.0
377,74.0,0,120,0.0,0.0
378,62.0,240,120,2.0,0.0
379,60.0,24,450,3.0,0.0
380,75.0,156,240,0.0,0.0
381,65.0,0,120,2.0,0.0
382,69.0,44,150,0.0,0.0
383,63.0,16,210,2.0,0.0
384,65.0,156,120,2.0,0.0
385,53.0,24,450,3.0,0.0
386,69.0,84,150,0.0,0.0
387,60.0,0,450,2.0,0.0
388,65.0,156,120,2.0,0.0
389,63.0,16,210,2.0,0.0
390,69.0,44,150,0.0,0.0
391,65.0,480,120,2.0,0.0
392,69.0,0,480,1.0,0.0
393,58.0,0,720,3.0,0.0
394,63.0,0,480,2.0,0.0
395,72.0,240,480,0.0,0.0
396,70.0,0,240,0.0,0.0
397,62.0,40,240,3.0,0.0
398,46.0,0,30,3.0,0.0
399,58.0,40,30,0.0,0.0
400,48.0,0,30,3.0,0.0
401,60.0,40,30,0.0,0.0
402,46.0,0,30,3.0,0.0
403,58.0,60,30,0.0,0.0
404,57.0,0,60,0.0,0.0
405,45.0,60,60,3.0,0.0
406,58.0,0,60,0.0,0.0
407,46.0,240,60,3.0,0.0
408,53.0,0,240,3.0,0.0
409,65.0,156,240,0.0,0.0
410,46.0,0,150,3.0,0.0
411,58.0,240,150,0.0,0.0
412,58.0,124,150,0.0,0.0
413,46.0,0,150,3.0,0.0
414,58.0,40,30,0.0,0.0
415,46.0,0,30,3.0,0.0
416,48.0,0,30,3.0,0.0
417,60.0,40,30,0.0,0.0
418,58.0,60,30,0.0,0.0
419,46.0,0,30,3.0,0.0
420,45.0,60,60,3.0,0.0
421,57.0,0,60,0.0,0.0
422,58.0,0,60,0.0,0.0
423,46.0,240,60,3.0,0.0
424,65.0,156,240,0.0,0.0
425,53.0,0,240,3.0,0.0
426,56.0,0,150,0.0,0.0
427,44.0,240,150,3.0,0.0
428,44.0,124,150,3.0,0.0
429,56.0,0,150,0.0,0.0
430,56.0,0,30,0.0,0.0
431,44.0,40,30,3.0,0.0
432,58.0,0,30,0.0,0.0
433,46.0,40,30,3.0,0.0
434,44.0,60,30,3.0,0.0
435,56.0,0,30,0.0,0.0
436,43.0,60,60,3.0,0.0
437,55.0,0,60,0.0,0.0
438,56.0,0,60,0.0,0.0
439,44.0,240,60,3.0,0.0
440,55.0,240,240,0.0,0.0
441,43.0,31,930,3.0,0.0
442,58.0,0,240,0.0,0.0
443,46.0,240,240,2.0,0.0
444,63.0,209,240,0.0,0.0
445,51.0,0,240,2.0,0.0
446,67.0,0,240,0.0,0.0
447,55.0,240,240,2.0,0.0
448,65.0,0,240,0.0,0.0
449,44.0,0,480,3.0,0.0
450,56.0,240,240,2.0,0.0
451,60.0,0,480,1.0,0.0
452,53.0,0,240,2.0,0.0
453,68.0,240,240,0.0,0.0
454,46.0,0,480,3.0,0.0
455,62.0,240,240,0.0,0.0
456,56.0,0,480,1.0,0.0
457,53.0,0,240,2.0,0.0
458,50.0,240,240,2.0,0.0
459,58.0,0,240,0.0,0.0
460,58.0,0,480,1.0,0.0
461,55.0,0,480,1.0,0.0
462,63.0,0,480,0.0,0.0
463,39.0,0,240,3.0,0.0
464,51.0,240,240,2.0,0.0
465,67.0,240,240,2.0,0.0
466,63.0,0,15,3.0,0.0
467,67.0,0,240,2.0,0.0
468,79.0,120,120,0.0,0.0
469,77.0,120,120,0.0,0.0
470,75.0,240,120,0.0,0.0
471,74.0,240,240,0.0,0.0
472,68.0,0,240,2.0,0.0
473,68.0,120,240,2.0,0.0
474,65.0,240,15,3.0,0.0
475,80.0,0,120,0.0,0.0
476,79.0,120,120,0.0,0.0
477,77.0,240,120,0.0,0.0
478,75.0,240,240,0.0,0.0
479,70.0,120,240,2.0,0.0
480,87.0,0,120,0.0,0.0
481,86.0,120,120,0.0,0.0
482,67.0,0,15,3.0,0.0
483,87.0,0,120,0.0,0.0
484,86.0,120,120,0.0,0.0
485,67.0,120,240,3.0,0.0
486,70.0,120,15,2.0,0.0
487,84.0,0,120,0.0,0.0
488,72.0,0,480,2.0,0.0
489,83.0,120,120,0.0,0.0
490,68.0,0,480,3.0,0.0
491,84.0,120,120,0.0,0.0
492,82.0,120,120,0.0,0.0
493,80.0,120,120,0.0,0.0
494,74.0,0,480,2.0,0.0
495,70.0,0,480,3.0,0.0
496,79.0,120,120,0.0,0.0
497,77.0,120,120,0.0,0.0
498,84.0,120,120,0.0,0.0
499,82.0,240,120,0.0,0.0
500,80.0,240,240,0.0,0.0
501,70.0,0,240,2.0,0.0
502,79.0,0,240,0.0,0.0
503,67.0,0,240,2.0,0.0
504,63.0,180,15,3.0,0.0
505,79.0,60,60,0.0,0.0
506,77.0,60,60,0.0,0.0
507,80.0,60,60,0.0,0.0
508,79.0,60,60,0.0,0.0
509,77.0,60,60,0.0,0.0
510,77.0,120,30,0.0,0.0
511,75.0,0,15,0.0,0.0
512,68.0,0,240,2.0,0.0
513,74.0,240,15,0.0,0.0
514,68.0,0,240,2.0,0.0
515,65.0,0,15,3.0,0.0
516,80.0,60,60,0.0,0.0
517,79.0,0,60,0.0,0.0
518,82.0,60,60,0.0,0.0
519,80.0,60,60,0.0,0.0
520,79.0,60,60,0.0,0.0
521,79.0,120,30,0.0,0.0
522,77.0,0,15,0.0,0.0
523,75.0,240,120,0.0,0.0
524,75.0,0,240,0.0,0.0
525,67.0,0,240,3.0,0.0
526,70.0,180,15,2.0,0.0
527,67.0,60,240,3.0,0.0
528,87.0,60,60,0.0,0.0
529,86.0,0,60,0.0,0.0
530,89.0,60,60,0.0,0.0
531,70.0,120,240,2.0,0.0
532,67.0,0,240,3.0,0.0
533,87.0,60,60,0.0,0.0
534,86.0,60,60,0.0,0.0
535,84.0,0,60,0.0,0.0
536,68.0,120,480,3.0,0.0
537,83.0,120,120,0.0,0.0
538,72.0,0,480,2.0,0.0
539,84.0,120,120,0.0,0.0
540,82.0,120,120,0.0,0.0
541,80.0,0,120,0.0,0.0
542,68.0,240,480,2.0,0.0
543,79.0,120,120,0.0,0.0
544,65.0,0,480,2.0,0.0
545,58.0,0,480,3.0,0.0
546,77.0,120,120,0.0,0.0
547,80.0,120,120,0.0,0.0
548,74.0,0,120,0.0,0.0
549,75.0,4,480,0.0,0.0
550,67.0,0,480,2.0,0.0
551,63.0,116,480,3.0,0.0
552,70.0,120,120,3.0,0.0
553,69.0,120,120,3.0,0.0
554,70.0,0,120,3.0,0.0
555,72.0,120,120,3.0,0.0
556,70.0,120,120,3.0,0.0
557,68.0,0,120,3.0,0.0
558,77.0,120,120,0.0,0.0
559,67.0,240,120,3.0,0.0
560,79.0,0,120,0.0,0.0
561,80.0,156,240,0.0,0.0
562,65.0,0,960,3.0,0.0
563,70.0,0,120,2.0,0.0
564,74.0,84,150,0.0,0.0
565,68.0,156,240,3.0,0.0
566,70.0,0,120,2.0,0.0
567,58.0,236,480,3.0,0.0
568,74.0,84,150,0.0,0.0
569,70.0,156,120,2.0,0.0
570,74.0,84,150,0.0,0.0
571,68.0,0,240,3.0,0.0
572,70.0,4,120,2.0,0.0
573,63.0,116,480,3.0,0.0
574,75.0,4,480,0.0,0.0
575,67.0,120,120,3.0,0.0
576,66.0,120,120,3.0,0.0
577,67.0,0,120,3.0,0.0
578,68.0,120,120,3.0,0.0
579,67.0,120,120,3.0,0.0
580,65.0,0,120,3.0,0.0
581,74.0,120,120,0.0,0.0
582,63.0,240,120,3.0,0.0
583,75.0,0,120,0.0,0.0
584,62.0,22,450,3.0,0.0
585,77.0,156,240,0.0,0.0
586,67.0,0,120,2.0,0.0
587,65.0,0,240,3.0,0.0
588,71.0,62,150,0.0,0.0
589,67.0,156,120,2.0,0.0
590,71.0,84,150,0.0,0.0
591,62.0,0,450,3.0,0.0
592,55.0,22,450,3.0,0.0
593,67.0,156,120,2.0,0.0
594,71.0,62,150,0.0,0.0
595,65.0,120,240,3.0,0.0
596,67.0,0,120,2.0,0.0
597,60.0,120,120,3.0,0.0
598,72.0,0,480,0.0,0.0
599,62.0,120,120,3.0,0.0
600,63.0,120,120,3.0,0.0
601,62.0,120,120,3.0,0.0
602,60.0,120,120,3.0,0.0
603,58.0,120,120,3.0,0.0
604,57.0,0,120,3.0,0.0
605,81.0,120,120,0.0,0.0
606,69.0,0,120,1.0,0.0
607,70.0,0,120,1.0,0.0
608,55.0,0,120,3.0,0.0
609,82.0,240,120,0.0,0.0
610,72.0,0,240,1.0,0.0
611,54.0,219,960,3.0,0.0
612,84.0,0,240,0.0,0.0
613,62.0,156,120,2.0,0.0
614,78.0,68,150,0.0,0.0
615,57.0,16,210,2.0,0.0
616,66.0,0,150,1.0,0.0
617,62.0,156,120,2.0,0.0
618,78.0,68,150,0.0,0.0
619,60.0,16,210,2.0,0.0
620,66.0,0,150,1.0,0.0
621,62.0,156,120,2.0,0.0
622,78.0,68,150,0.0,0.0
623,57.0,16,210,2.0,0.0
624,66.0,0,150,1.0,0.0
625,62.0,5,120,2.0,0.0
626,67.0,0,480,1.0,0.0
627,58.0,16,210,3.0,0.0
628,79.0,0,480,0.0,0.0
629,62.0,224,120,2.0,0.0
630,55.0,16,210,3.0,0.0
631,62.0,240,120,2.0,0.0
632,54.0,9,480,3.0,0.0
633,69.0,0,480,1.0,0.0
634,81.0,240,480,0.0,0.0
635,62.0,224,120,2.0,0.0
636,57.0,7,210,2.0,0.0
637,62.0,0,120,2.0,0.0
638,72.0,224,240,1.0,0.0
639,84.0,0,240,0.0,0.0
640,55.0,0,480,3.0,0.0
641,62.0,0,120,2.0,0.0
642,58.0,16,210,2.0,0.0
643,82.0,0,240,0.0,0.0
644,70.0,0,240,1.0,0.0
645,62.0,240,120,2.0,0.0
646,81.0,0,240,0.0,0.0
647,69.0,0,240,1.0,0.0
648,51.0,240,480,3.0,0.0
649,61.0,224,120,2.0,0.0
650,79.0,0,240,0.0,0.0
651,67.0,0,240,1.0,0.0
652,55.0,16,210,2.0,0.0
653,61.0,0,120,2.0,0.0
654,78.0,224,480,0.0,0.0
655,66.0,0,480,1.0,0.0
656,50.0,8,960,3.0,0.0
657,62.0,224,120,2.0,0.0
658,54.0,16,210,2.0,0.0
659,62.0,0,120,2.0,0.0
660,57.0,16,210,2.0,0.0
661,62.0,120,120,2.0,0.0
662,74.0,0,120,0.0,0.0
663,73.0,104,120,0.0,0.0
664,54.0,8,210,2.0,0.0
665,74.0,0,120,0.0,0.0
666,62.0,240,120,2.0,0.0
667,79.0,224,240,0.0,0.0
668,50.0,8,960,3.0,0.0
669,70.0,0,240,1.0,0.0
670,62.0,0,120,2.0,0.0
671,55.0,16,210,2.0,0.0
672,62.0,224,120,2.0,0.0
673,58.0,16,210,2.0,0.0
674,62.0,120,120,2.0,0.0
675,74.0,0,120,0.0,0.0
676,73.0,104,120,0.0,0.0
677,55.0,8,210,2.0,0.0
678,62.0,0,120,2.0,0.0
679,74.0,240,120,0.0,0.0
680,69.0,0,240,0.0,0.0
681,50.0,8,960,3.0,0.0
682,62.0,224,120,2.0,0.0
683,54.0,16,210,2.0,0.0
684,62.0,224,120,2.0,0.0
685,57.0,16,210,2.0,0.0
686,62.0,0,120,2.0,0.0
687,74.0,120,120,0.0,0.0
688,54.0,8,210,2.0,0.0
689,73.0,104,120,0.0,0.0
690,62.0,240,120,2.0,0.0
691,74.0,0,120,0.0,0.0
692,50.0,8,960,3.0,0.0
693,79.0,0,240,0.0,0.0
694,70.0,0,240,1.0,0.0
695,62.0,224,120,2.0,0.0
696,55.0,16,210,2.0,0.0
697,62.0,224,120,2.0,0.0
698,58.0,16,210,2.0,0.0
699,62.0,120,120,2.0,0.0
700,74.0,0,120,0.0,0.0
701,73.0,104,120,0.0,0.0
702,55.0,8,210,2.0,0.0
703,62.0,0,120,2.0,0.0
704,74.0,240,120,0.0,0.0
705,50.0,0,480,3.0,0.0
706,69.0,240,480,0.0,0.0
707,62.0,224,120,2.0,0.0
708,54.0,16,210,2.0,0.0
709,62.0,0,120,2.0,0.0
710,71.0,0,480,0.0,0.0
711,62.0,224,120,2.0,0.0
712,56.0,16,210,2.0,0.0
713,62.0,0,120,2.0,0.0
714,72.0,206,720,0.0,0.0
715,50.0,240,15,3.0,0.0
716,62.0,224,120,2.0,0.0
717,56.0,16,210,2.0,0.0
718,62.0,224,120,2.0,0.0
719,57.0,16,210,2.0,0.0
720,62.0,0,120,2.0,0.0
721,70.0,0,240,0.0,0.0
722,55.0,16,210,2.0,0.0
723,62.0,240,120,2.0,0.0
724,69.0,220,510,0.0,0.0
725,50.0,20,480,3.0,0.0
726,62.0,224,120,2.0,0.0
727,54.0,16,210,2.0,0.0
728,81.0,0,240,0.0,0.0
729,62.0,0,120,2.0,0.0
730,50.0,0,480,3.0,0.0
731,71.0,16,450,0.0,0.0
732,62.0,208,120,2.0,0.0
733,56.0,16,210,2.0,0.0
734,83.0,240,240,0.0,0.0
735,62.0,0,120,2.0,0.0
736,50.0,31,900,3.0,0.0
737,72.0,179,720,0.0,0.0
738,62.0,224,120,2.0,0.0
739,84.0,14,480,0.0,0.0
740,56.0,16,210,2.0,0.0
741,62.0,224,120,2.0,0.0
742,57.0,16,210,2.0,0.0
743,62.0,0,120,2.0,0.0
744,55.0,16,210,2.0,0.0
745,70.0,240,240,0.0,0.0
746,62.0,0,120,2.0,0.0
747,69.0,6,480,0.0,0.0
748,50.0,240,480,3.0,0.0
749,62.0,224,120,2.0,0.0
750,81.0,0,240,0.0,0.0
751,54.0,10,210,2.0,0.0
752,62.0,0,120,2.0,0.0
753,71.0,6,480,0.0,0.0
754,50.0,0,480,3.0,0.0
755,62.0,224,120,2.0,0.0
756,83.0,60,240,0.0,0.0
757,56.0,10,210,2.0,0.0
758,62.0,0,120,2.0,0.0
759,50.0,60,60,3.0,0.0
760,57.0,60,60,3.0,0.0
761,62.0,300,60,3.0,0.0
762,72.0,467,360,0.0,0.0
763,84.0,7,240,0.0,0.0
764,73.0,6,480,0.0,0.0
765,85.0,1200,240,0.0,0.0
766,70.0,240,240,0.0,0.0
767,67.0,240,240,0.0,0.0
768,62.0,0,240,2.0,0.0
769,58.0,0,240,3.0,0.0
770,57.0,0,240,3.0,0.0
771,60.0,0,240,2.0,0.0
772,66.0,240,240,0.0,0.0
773,55.0,0,240,3.0,0.0
774,58.0,0,240,2.0,0.0
775,67.0,240,240,0.0,0.0
776,62.0,240,960,1.0,0.0
777,57.0,0,240,2.0,0.0
778,72.0,0,960,0.0,0.0
779,54.0,240,240,3.0,0.0
780,54.0,0,240,2.0,0.0
781,50.0,240,240,3.0,0.0
782,52.0,240,240,3.0,0.0
783,55.0,0,240,2.0,0.0
784,57.0,0,240,2.0,0.0
785,54.0,0,240,3.0,0.0
786,55.0,240,240,3.0,0.0
787,58.0,0,240,2.0,0.0
788,70.0,0,240,0.0,0.0
789,58.0,0,240,3.0,0.0
790,67.0,0,240,0.0,0.0
791,62.0,240,240,2.0,0.0
792,66.0,0,240,0.0,0.0
793,57.0,0,240,3.0,0.0
794,60.0,240,240,2.0,0.0
795,55.0,480,240,3.0,0.0
796,67.0,0,240,0.0,0.0
797,58.0,0,240,2.0,0.0
798,48.0,0,960,3.0,0.0
799,67.0,0,960,1.0,0.0
800,75.0,0,960,0.0,0.0
801,51.0,240,240,3.0,0.0
802,55.0,240,240,3.0,0.0
803,60.0,156,240,3.0,0.0
804,74.0,324,150,0.0,0.0
805,58.0,156,480,3.0,0.0
806,78.0,0,240,0.0,0.0
807,79.0,324,150,0.0,0.0
808,58.0,0,240,3.0,0.0
809,74.0,156,240,0.0,0.0
810,62.0,0,240,2.0,0.0
811,54.0,0,480,3.0,0.0
812,72.0,324,150,0.0,0.0
813,62.0,156,480,2.0,0.0
814,80.0,0,240,0.0,0.0
815,81.0,324,150,0.0,0.0
816,54.0,0,240,3.0,0.0
817,72.0,240,240,0.0,0.0
818,62.0,0,240,2.0,0.0
819,62.0,0,480,2.0,0.0
820,55.0,0,480,3.0,0.0
821,70.0,240,240,0.0,0.0
822,79.0,240,240,0.0,0.0
823,60.0,0,480,2.0,0.0
824,48.0,0,480,3.0,0.0
825,69.0,240,240,0.0,0.0
826,75.0,360,240,0.0,0.0
827,58.0,0,480,2.0,0.0
828,67.0,60,360,0.0,0.0
829,50.0,0,720,3.0,0.0
830,69.0,60,60,0.0,0.0
831,67.0,156,60,0.0,0.0
832,57.0,240,240,2.0,0.0
833,66.0,84,150,0.0,0.0
834,62.0,240,240,3.0,0.0
835,70.0,240,240,3.0,0.0
836,74.0,0,120,1.0,0.0
837,67.0,240,240,3.0,0.0
838,82.0,0,240,0.0,0.0
839,74.0,0,120,1.0,0.0
840,66.0,240,240,3.0,0.0
841,81.0,0,240,0.0,0.0
842,74.0,0,120,1.0,0.0
843,79.0,240,240,0.0,0.0
844,67.0,0,240,3.0,0.0
845,74.0,0,120,1.0,0.0
846,62.0,0,960,2.0,0.0
847,78.0,120,240,0.0,0.0
848,72.0,0,960,3.0,0.0
849,74.0,0,120,0.0,0.0
850,73.0,120,120,0.0,0.0
851,74.0,120,120,0.0,0.0
852,76.0,120,120,0.0,0.0
853,78.0,120,120,0.0,0.0
854,79.0,120,120,0.0,0.0
855,81.0,240,120,0.0,0.0
856,70.0,240,240,3.0,0.0
857,82.0,0,240,0.0,0.0
858,74.0,0,120,1.0,0.0
859,82.0,0,240,1.0,0.0
860,67.0,240,240,3.0,0.0
861,86.0,0,240,0.0,0.0
862,74.0,0,120,1.0,0.0
863,81.0,240,240,1.0,0.0
864,66.0,0,240,3.0,0.0
865,84.0,0,240,0.0,0.0
866,74.0,0,120,1.0,0.0
867,67.0,0,240,3.0,0.0
868,82.0,240,240,0.0,0.0
869,79.0,0,240,1.0,0.0
870,74.0,0,120,1.0,0.0
871,75.0,0,960,3.0,0.0
872,65.0,0,960,2.0,0.0
873,81.0,0,240,0.0,0.0
874,77.0,120,120,0.0,0.0
875,76.0,120,120,0.0,0.0
876,77.0,120,120,0.0,0.0
877,79.0,120,120,0.0,0.0
878,81.0,120,120,0.0,0.0
879,82.0,120,120,0.0,0.0
880,84.0,156,120,0.0,0.0
881,74.0,84,150,3.0,0.0
882,86.0,0,240,0.0,0.0
883,70.0,0,150,2.0,0.0
884,77.0,240,120,1.0,0.0
885,89.0,240,240,0.0,0.0
886,70.0,0,240,3.0,0.0
887,86.0,0,240,1.0,0.0
888,77.0,0,120,1.0,0.0
889,69.0,240,240,3.0,0.0
890,84.0,0,240,1.0,0.0
891,87.0,0,240,0.0,0.0
892,77.0,0,120,1.0,0.0
893,86.0,0,240,0.0,0.0
894,82.0,0,240,1.0,0.0
895,70.0,240,240,3.0,0.0
896,77.0,0,120,1.0,0.0
897,66.0,0,240,3.0,0.0
898,84.0,0,240,0.0,0.0
899,81.0,156,240,1.0,0.0
900,74.0,0,120,1.0,0.0
901,79.0,0,240,0.0,0.0
902,82.0,0,240,0.0,0.0
903,67.0,84,150,3.0,0.0
904,74.0,240,120,1.0,0.0
905,78.0,0,240,1.0,0.0
906,81.0,0,240,0.0,0.0
907,62.0,0,240,3.0,0.0
908,72.0,156,120,1.0,0.0
909,63.0,84,150,3.0,0.0
910,79.0,240,240,0.0,0.0
911,70.0,0,120,1.0,0.0
912,60.0,0,720,3.0,0.0
913,69.0,120,120,0.0,0.0
914,75.0,120,120,0.0,0.0
915,74.0,120,120,0.0,0.0
916,72.0,120,120,0.0,0.0
917,70.0,120,120,0.0,0.0
918,61.0,120,240,3.0,0.0
919,69.0,120,120,0.0,0.0
920,67.0,0,120,0.0,0.0
921,62.0,0,240,3.0,0.0
922,66.0,120,120,0.0,0.0
923,67.0,120,120,0.0,0.0
924,69.0,120,120,0.0,0.0
925,68.0,120,120,0.0,0.0
926,69.0,120,120,0.0,0.0
927,71.0,120,120,0.0,0.0
928,72.0,120,120,0.0,0.0
929,71.0,232,120,0.0,0.0
930,54.0,8,240,3.0,0.0
931,72.0,156,240,0.0,0.0
932,62.0,0,120,2.0,0.0
933,66.0,76,150,0.0,0.0
934,57.0,8,240,3.0,0.0
935,62.0,156,120,2.0,0.0
936,66.0,76,150,0.0,0.0
937,60.0,8,240,3.0,0.0
938,62.0,156,120,2.0,0.0
939,57.0,8,240,3.0,0.0
940,66.0,76,150,0.0,0.0
941,62.0,120,120,2.0,0.0
942,58.0,8,240,3.0,0.0
943,67.0,40,120,0.0,0.0
944,62.0,120,120,2.0,0.0
945,69.0,40,30,0.0,0.0
946,67.0,32,30,0.0,0.0
947,66.0,0,30,0.0,0.0
948,67.0,112,120,0.0,0.0
949,55.0,8,240,3.0,0.0
950,62.0,180,120,2.0,0.0
951,70.0,0,120,0.0,0.0
952,58.0,8,240,3.0,0.0
953,74.0,52,180,0.0,0.0
954,62.0,232,120,2.0,0.0
955,74.0,232,240,0.0,0.0
956,55.0,8,240,3.0,0.0
957,62.0,0,120,2.0,0.0
958,54.0,8,240,3.0,0.0
959,84.0,156,240,0.0,0.0
960,62.0,0,120,2.0,0.0
961,78.0,76,150,0.0,0.0
962,57.0,8,240,3.0,0.0
963,62.0,156,120,2.0,0.0
964,78.0,76,150,0.0,0.0
965,60.0,8,240,3.0,0.0
966,62.0,156,120,2.0,0.0
967,57.0,8,240,3.0,0.0
968,78.0,76,150,0.0,0.0
969,62.0,120,120,2.0,0.0
970,79.0,40,120,0.0,0.0
971,58.0,8,240,3.0,0.0
972,81.0,40,30,0.0,0.0
973,62.0,120,120,2.0,0.0
974,79.0,32,30,0.0,0.0
975,78.0,0,30,0.0,0.0
976,79.0,112,120,0.0,0.0
977,55.0,8,240,3.0,0.0
978,62.0,0,120,2.0,0.0
979,82.0,180,120,0.0,0.0
980,58.0,8,240,3.0,0.0
981,86.0,52,180,0.0,0.0
982,62.0,232,120,2.0,0.0
983,62.0,0,240,0.0,0.0
984,55.0,8,240,3.0,0.0
985,62.0,232,120,2.0,0.0
986,54.0,8,240,3.0,0.0
987,72.0,0,240,0.0,0.0
988,62.0,156,120,2.0,0.0
989,66.0,76,150,0.0,0.0
990,57.0,8,240,3.0,0.0
991,62.0,156,120,2.0,0.0
992,66.0,76,150,0.0,0.0
993,60.0,8,240,3.0,0.0
994,62.0,156,120,2.0,0.0
995,57.0,8,240,3.0,0.0
996,66.0,76,150,0.0,0.0
997,62.0,120,120,2.0,0.0
998,58.0,8,240,3.0,0.0
999,67.0,40,120,0.0,0.0
1000,62.0,120,120,2.0,0.0
1001,69.0,40,30,0.0,0.0
1002,67.0,32,30,0.0,0.0
1003,66.0,0,30,0.0,0.0
1004,67.0,112,120,0.0,0.0
1005,55.0,8,240,3.0,0.0
1006,62.0,120,120,2.0,0.0
1007,69.0,0,120,0.0,0.0
1008,53.0,8,480,3.0,0.0
1009,71.0,120,120,0.0,0.0
1010,62.0,0,120,2.0,0.0
1011,67.0,120,120,0.0,0.0
1012,69.0,112,120,0.0,0.0
1013,55.0,0,240,2.0,0.0
1014,62.0,120,120,2.0,0.0
1015,71.0,0,120,0.0,0.0
1016,51.0,16,450,3.0,0.0
1017,72.0,40,120,0.0,0.0
1018,74.0,40,30,0.0,0.0
1019,60.0,0,120,2.0,0.0
1020,72.0,40,30,0.0,0.0
1021,71.0,120,30,0.0,0.0
1022,55.0,8,240,2.0,0.0
1023,72.0,96,120,0.0,0.0
1024,74.0,120,120,0.0,0.0
1025,60.0,0,120,2.0,0.0
1026,48.0,24,450,3.0,0.0
1027,75.0,120,120,0.0,0.0
1028,77.0,0,120,0.0,0.0
1029,55.0,120,120,2.0,0.0
1030,51.0,0,210,2.0,0.0
1031,79.0,96,120,0.0,0.0
1032,75.0,0,120,0.0,0.0
1033,55.0,240,120,2.0,0.0
1034,74.0,120,240,0.0,0.0
1035,46.0,8,480,3.0,0.0
1036,55.0,0,120,2.0,0.0
1037,75.0,96,120,0.0,0.0
1038,50.0,16,210,2.0,0.0
1039,55.0,120,120,2.0,0.0
1040,74.0,0,120,0.0,0.0
1041,48.0,8,480,3.0,0.0
1042,77.0,120,120,0.0,0.0
1043,75.0,120,120,0.0,0.0
1044,57.0,0,120,2.0,0.0
1045,51.0,16,210,2.0,0.0
1046,74.0,96,120,0.0,0.0
1047,72.0,240,120,0.0,0.0
1048,57.0,0,120,2.0,0.0
1049,70.0,60,360,0.0,0.0
1050,50.0,0,450,3.0,0.0
1051,58.0,120,120,2.0,0.0
1052,55.0,24,210,2.0,0.0
1053,72.0,30,60,0.0,0.0
1054,58.0,0,120,2.0,0.0
1055,70.0,6,60,0.0,0.0
1056,69.0,30,60,0.0,0.0
1057,70.0,90,60,0.0,0.0
1058,50.0,0,450,3.0,0.0
1059,74.0,120,120,0.0,0.0
1060,72.0,120,120,0.0,0.0
1061,60.0,0,120,2.0,0.0
1062,54.0,24,210,2.0,0.0
1063,70.0,96,120,0.0,0.0
1064,60.0,0,120,2.0,0.0
1065,69.0,120,120,0.0,0.0
1066,55.0,112,480,3.0,0.0
1067,67.0,40,120,0.0,0.0
1068,69.0,40,30,0.0,0.0
1069,62.0,0,120,2.0,0.0
1070,67.0,40,30,0.0,0.0
1071,66.0,120,30,0.0,0.0
1072,58.0,8,240,2.0,0.0
1073,67.0,112,120,0.0,0.0
1074,69.0,8,120,0.0,0.0
1075,62.0,0,120,2.0,0.0
1076,53.0,8,480,3.0,0.0
1077,71.0,120,120,0.0,0.0
1078,67.0,120,120,0.0,0.0
1079,62.0,0,120,2.0,0.0
1080,55.0,32,210,2.0,0.0
1081,69.0,80,120,0.0,0.0
1082,62.0,0,120,2.0,0.0
1083,71.0,120,120,0.0,0.0
1084,51.0,8,480,3.0,0.0
1085,72.0,60,120,0.0,0.0
1086,60.0,0,120,2.0,0.0
1087,74.0,20,60,0.0,0.0
1088,72.0,40,30,0.0,0.0
1089,71.0,120,30,0.0,0.0
1090,72.0,80,120,0.0,0.0
1091,55.0,32,210,2.0,0.0
1092,74.0,0,120,0.0,0.0
1093,60.0,120,120,2.0,0.0
1094,75.0,120,120,0.0,0.0
1095,48.0,8,480,3.0,0.0
1096,55.0,0,120,2.0,0.0
1097,76.0,120,120,0.0,0.0
1098,51.0,16,210,2.0,0.0
1099,77.0,96,120,0.0,0.0
1100,55.0,0,120,2.0,0.0
1101,78.0,240,120,0.0,0.0
1102,49.0,7,930,3.0,0.0
1103,79.0,40,600,0.0,0.0
1104,58.0,216,120,2.0,0.0
1105,52.0,24,210,2.0,0.0
1106,58.0,120,120,2.0,0.0
1107,55.0,8,240,2.0,0.0
1108,58.0,120,120,2.0,0.0
1109,81.0,40,30,0.0,0.0
1110,79.0,32,30,0.0,0.0
1111,78.0,0,30,0.0,0.0
1112,79.0,89,120,0.0,0.0
1113,52.0,24,210,2.0,0.0
1114,58.0,240,120,2.0,0.0
1115,81.0,0,120,0.0,0.0
1116,82.0,209,480,0.0,0.0
1117,49.0,7,690,3.0,0.0
1118,58.0,216,120,2.0,0.0
1119,52.0,24,210,2.0,0.0
1120,58.0,0,120,2.0,0.0
1121,55.0,24,210,2.0,0.0
1122,61.0,0,720,0.0,0.0
1123,58.0,240,120,2.0,0.0
1124,49.0,239,240,3.0,0.0
1125,58.0,1,120,2.0,0.0
1126,50.0,7,930,3.0,0.0
1127,62.0,216,120,2.0,0.0
1128,74.0,120,480,0.0,0.0
1129,55.0,24,210,2.0,0.0
1130,62.0,216,120,2.0,0.0
1131,58.0,24,210,2.0,0.0
1132,62.0,0,120,2.0,0.0
1133,73.0,89,120,0.0,0.0
1134,55.0,24,210,2.0,0.0
1135,62.0,0,120,2.0,0.0
1136,74.0,120,120,0.0,0.0
1137,75.0,120,120,0.0,0.0
1138,50.0,7,930,3.0,0.0
1139,62.0,0,120,2.0,0.0
1140,74.0,120,120,0.0,0.0
1141,72.0,96,120,0.0,0.0
1142,57.0,24,210,2.0,0.0
1143,62.0,120,120,2.0,0.0
1144,70.0,0,120,0.0,0.0
1145,69.0,96,120,0.0,0.0
1146,60.0,24,210,2.0,0.0
1147,62.0,0,120,2.0,0.0
1148,70.0,120,120,0.0,0.0
1149,72.0,89,120,0.0,0.0
1150,57.0,24,210,2.0,0.0
1151,66.0,0,120,0.0,0.0
1152,62.0,240,120,2.0,0.0
1153,50.0,7,930,3.0,0.0
1154,67.0,216,240,0.0,0.0
1155,62.0,0,120,2.0,0.0
1156,79.0,0,480,0.0,0.0
1157,55.0,24,210,2.0,0.0
1158,62.0,216,120,2.0,0.0
1159,58.0,24,210,2.0,0.0
1160,62.0,120,120,2.0,0.0
1161,73.0,89,120,0.0,0.0
1162,55.0,24,210,2.0,0.0
1163,62.0,0,120,2.0,0.0
1164,74.0,120,120,0.0,0.0
1165,50.0,7,930,3.0,0.0
1166,75.0,120,120,0.0,0.0
1167,62.0,120,120,2.0,0.0
1168,74.0,0,120,0.0,0.0
1169,57.0,24,210,2.0,0.0
1170,72.0,96,120,0.0,0.0
1171,70.0,0,120,0.0,0.0
1172,62.0,120,120,2.0,0.0
1173,69.0,96,120,0.0,0.0
1174,60.0,24,210,2.0,0.0
1175,70.0,0,120,0.0,0.0
1176,62.0,120,120,2.0,0.0
1177,57.0,24,210,2.0,0.0
1178,72.0,89,120,0.0,0.0
1179,62.0,0,120,2.0,0.0
1180,66.0,480,120,0.0,0.0
1181,55.0,0,480,3.0,0.0
1182,67.0,0,1920,0.0,0.0
1183,55.0,240,240,1.0,0.0
1184,62.0,0,15,0.0,0.0
1185,58.0,0,15,1.0,0.0
1186,55.0,0,240,1.0,0.0
1187,58.0,240,15,1.0,0.0
1188,55.0,240,240,1.0,0.0
1189,38.0,0,240,3.0,0.0
1190,62.0,0,15,0.0,0.0
1191,48.0,0,240,3.0,0.0
1192,42.0,84,150,3.0,0.0
1193,57.0,156,15,1.0,0.0
1194,60.0,0,15,1.0,0.0
1195,62.0,0,15,0.0,0.0
1196,60.0,156,15,1.0,0.0
1197,42.0,84,150,3.0,0.0
1198,57.0,0,15,1.0,0.0
1199,57.0,240,240,1.0,0.0
1200,62.0,156,15,0.0,0.0
1201,42.0,84,150,3.0,0.0
1202,60.0,0,240,1.0,0.0
1203,67.0,0,1920,0.0,0.0
1204,43.0,240,480,3.0,0.0
1205,55.0,240,240,1.0,0.0
1206,58.0,0,240,1.0,0.0
1207,62.0,0,240,0.0,0.0
1208,58.0,0,240,1.0,0.0
1209,55.0,0,240,1.0,0.0
1210,62.0,0,240,0.0,0.0
1211,55.0,240,15,1.0,0.0
1212,38.0,0,240,3.0,0.0
1213,58.0,0,15,1.0,0.0
1214,62.0,0,240,0.0,0.0
1215,48.0,0,240,3.0,0.0
1216,60.0,0,15,1.0,0.0
1217,62.0,0,15,0.0,0.0
1218,42.0,84,150,3.0,0.0
1219,57.0,156,15,1.0,0.0
1220,57.0,0,15,1.0,0.0
1221,60.0,0,240,1.0,0.0
1222,42.0,84,150,3.0,0.0
1223,62.0,156,15,0.0,0.0
1224,57.0,0,240,1.0,0.0
1225,62.0,240,240,0.0,0.0
1226,42.0,84,150,3.0,0.0
1227,60.0,0,240,1.0,0.0
1228,55.0,0,240,1.0,0.0
1229,67.0,0,1920,0.0,0.0
1230,43.0,0,480,3.0,0.0
1231,55.0,0,240,1.0,0.0
1232,58.0,240,15,1.0,0.0
1233,62.0,240,240,0.0,0.0
1234,58.0,0,240,1.0,0.0
1235,62.0,0,240,0.0,0.0
1236,55.0,240,15,1.0,0.0
1237,58.0,0,240,1.0,0.0
1238,62.0,0,240,0.0,0.0
1239,38.0,240,240,3.0,0.0
1240,48.0,156,240,3.0,0.0
1241,57.0,0,240,1.0,0.0
1242,60.0,0,240,1.0,0.0
1243,62.0,0,15,0.0,0.0
1244,42.0,84,150,3.0,0.0
1245,57.0,0,240,1.0,0.0
1246,60.0,0,240,1.0,0.0
1247,42.0,84,150,3.0,0.0
1248,62.0,0,240,0.0,0.0
1249,42.0,84,150,3.0,0.0
1250,62.0,0,240,0.0,0.0
1251,57.0,156,15,1.0,0.0
1252,60.0,0,15,1.0,0.0
1253,43.0,480,960,3.0,0.0
1254,62.0,0,480,0.0,0.0
1255,58.0,0,480,1.0,0.0
1256,55.0,480,240,1.0,0.0
1257,59.0,0,480,1.0,0.0
1258,65.0,0,480,0.0,0.0
1259,55.0,0,240,1.0,0.0
1260,60.0,0,480,1.0,0.0
1261,63.0,0,480,0.0,0.0
1262,31.0,0,960,3.0,0.0
1263,55.0,480,240,1.0,0.0
1264,51.0,0,480,1.0,0.0
1265,60.0,480,480,0.0,0.0
1266,54.0,0,240,1.0,0.0
1267,50.0,0,480,1.0,0.0
1268,43.0,0,960,3.0,0.0
1269,59.0,480,480,0.0,0.0
1270,55.0,0,240,1.0,0.0
1271,62.0,0,480,0.0,0.0
1272,53.0,480,480,1.0,0.0
1273,55.0,0,240,1.0,0.0
1274,60.0,0,480,0.0,0.0
1275,31.0,0,960,3.0,0.0
1276,51.0,0,480,1.0,0.0
1277,55.0,480,240,1.0,0.0
1278,54.0,0,480,0.0,0.0
1279,48.0,0,480,1.0,0.0
1280,51.0,480,240,1.0,0.0
1281,55.0,480,480,0.0,0.0
1282,43.0,0,960,3.0,0.0
1283,31.0,0,960,3.0,0.0
1284,47.0,0,480,1.0,0.0
1285,48.0,0,480,1.0,0.0
1286,54.0,0,480,0.0,0.0
1287,51.0,480,240,1.0,0.0
1288,31.0,0,960,3.0,0.0
1289,43.0,0,960,3.0,0.0
1290,55.0,480,480,0.0,0.0
1291,47.0,0,480,1.0,0.0
1292,50.0,0,240,1.0,0.0
1293,48.0,480,480,1.0,0.0
1294,54.0,0,480,0.0,0.0
1295,51.0,0,240,1.0,0.0
1296,31.0,0,480,3.0,0.0
1297,43.0,0,480,3.0,0.0
1298,50.0,0,240,1.0,0.0
1299,43.0,0,480,3.0,0.0
1300,47.0,0,15,1.0,0.0
1301,55.0,480,15,0.0,0.0
1302,31.0,0,480,3.0,0.0
1303,50.0,0,240,1.0,0.0
1304,43.0,0,480,3.0,0.0
1305,31.0,0,480,3.0,0.0
1306,55.0,480,15,0.0,0.0
1307,47.0,0,480,1.0,0.0
1308,62.0,240,150,0.0,0.0
1309,62.0,240,150,0.0,0.0
1310,59.0,0,150,3.0,0.0
1311,67.0,0,150,0.0,0.0
1312,62.0,240,150,2.0,0.0
1313,69.0,0,150,0.0,0.0
1314,60.0,0,150,2.0,0.0
1315,57.0,324,150,3.0,0.0
1316,59.0,0,480,2.0,0.0
1317,55.0,156,480,3.0,0.0
1318,71.0,156,240,0.0,0.0
1319,67.0,84,150,0.0,0.0
1320,64.0,240,150,0.0,0.0
1321,64.0,240,150,0.0,0.0
1322,69.0,0,150,0.0,0.0
1323,57.0,240,150,3.0,0.0
1324,60.0,0,150,2.0,0.0
1325,55.0,0,150,3.0,0.0
1326,59.0,324,150,2.0,0.0
1327,71.0,0,150,0.0,0.0
1328,72.0,156,240,0.0,0.0
1329,57.0,0,480,3.0,0.0
1330,60.0,156,480,2.0,0.0
1331,69.0,84,150,0.0,0.0
1332,76.0,240,150,0.0,0.0
1333,74.0,240,150,0.0,0.0
1334,54.0,0,150,3.0,0.0
1335,72.0,0,150,0.0,0.0
1336,57.0,240,150,2.0,0.0
1337,55.0,0,150,3.0,0.0
1338,59.0,0,150,2.0,0.0
1339,71.0,240,150,0.0,0.0
1340,69.0,0,150,0.0,0.0
1341,60.0,240,150,2.0,0.0
1342,57.0,0,150,3.0,0.0
1343,59.0,240,150,3.0,0.0
1344,67.0,0,150,0.0,0.0
1345,62.0,0,150,2.0,0.0
1346,64.0,144,150,2.0,0.0
1347,60.0,0,150,3.0,0.0
1348,69.0,0,150,0.0,0.0
1349,64.0,240,720,2.0,0.0
1350,61.0,0,720,3.0,0.0
1351,67.0,40,60,0.0,0.0
1352,69.0,140,60,0.0,0.0
1353,70.0,156,150,0.0,0.0
1354,69.0,240,150,0.0,0.0
1355,67.0,84,150,0.0,0.0
1356,66.0,156,240,0.0,0.0
1357,62.0,156,480,3.0,0.0
1358,62.0,84,150,0.0,0.0
1359,62.0,240,150,0.0,0.0
1360,62.0,240,150,0.0,0.0
1361,62.0,0,150,2.0,0.0
1362,59.0,0,150,3.0,0.0
1363,67.0,240,150,0.0,0.0
1364,57.0,324,150,3.0,0.0
1365,69.0,0,150,0.0,0.0
1366,60.0,0,150,2.0,0.0
1367,71.0,156,240,0.0,0.0
1368,55.0,0,480,3.0,0.0
1369,59.0,156,480,2.0,0.0
1370,67.0,84,150,0.0,0.0
1371,64.0,240,150,0.0,0.0
1372,64.0,240,150,0.0,0.0
1373,64.0,0,150,2.0,0.0
1374,69.0,0,150,0.0,0.0
1375,60.0,240,150,3.0,0.0
1376,62.0,0,150,2.0,0.0
1377,59.0,324,150,3.0,0.0
1378,71.0,0,150,0.0,0.0
1379,60.0,156,480,2.0,0.0
1380,57.0,0,480,3.0,0.0
1381,72.0,156,240,0.0,0.0
1382,69.0,84,150,0.0,0.0
1383,76.0,240,150,0.0,0.0
1384,74.0,240,150,0.0,0.0
1385,72.0,0,150,0.0,0.0
1386,54.0,240,150,3.0,0.0
1387,57.0,0,150,2.0,0.0
1388,59.0,240,150,2.0,0.0
1389,55.0,0,150,3.0,0.0
1390,71.0,0,150,0.0,0.0
1391,57.0,0,150,3.0,0.0
1392,69.0,240,150,0.0,0.0
1393,60.0,0,150,2.0,0.0
1394,62.0,0,150,2.0,0.0
1395,67.0,0,150,0.0,0.0
1396,59.0,240,150,3.0,0.0
1397,60.0,0,150,3.0,0.0
1398,64.0,0,150,2.0,0.0
1399,69.0,564,150,0.0,0.0
1400,62.0,0,480,0.0,0.0
1401,59.0,0,480,2.0,0.0
1402,67.0,0,240,0.0,0.0
1403,60.0,0,240,1.0,0.0
1404,57.0,360,240,2.0,0.0
1405,66.0,0,240,0.0,0.0
1406,50.0,240,15,3.0,0.0
1407,55.0,0,360,1.0,0.0
1408,43.0,0,360,3.0,0.0
1409,55.0,0,360,2.0,0.0
1410,67.0,276,360,0.0,0.0
1411,62.0,240,150,0.0,0.0
1412,67.0,240,150,0.0,0.0
1413,71.0,240,150,0.0,0.0
1414,74.0,324,150,0.0,0.0
1415,74.0,156,240,0.0,0.0
1416,69.0,0,150,1.0,0.0
1417,72.0,0,150,0.0,0.0
1418,54.0,0,150,3.0,0.0
1419,62.0,240,150,2.0,0.0
1420,72.0,324,150,0.0,0.0
1421,62.0,0,150,2.0,0.0
1422,54.0,0,150,3.0,0.0
1423,69.0,0,150,1.0,0.0
1424,74.0,156,240,0.0,0.0
1425,62.0,0,150,2.0,0.0
1426,55.0,0,150,3.0,0.0
1427,71.0,240,150,0.0,0.0
1428,67.0,0,150,1.0,0.0
1429,62.0,324,150,2.0,0.0
1430,71.0,0,150,0.0,0.0
1431,55.0,0,150,3.0,0.0
1432,74.0,156,240,0.0,0.0
1433,54.0,0,150,3.0,0.0
1434,69.0,0,150,1.0,0.0
1435,62.0,240,150,2.0,0.0
1436,72.0,0,150,0.0,0.0
1437,69.0,324,150,1.0,0.0
1438,54.0,0,150,3.0,0.0
1439,72.0,0,150,0.0,0.0
1440,62.0,0,150,2.0,0.0
1441,74.0,156,240,0.0,0.0
1442,62.0,240,150,2.0,0.0
1443,55.0,0,150,3.0,0.0
1444,71.0,0,150,0.0,0.0
1445,67.0,0,150,1.0,0.0
1446,62.0,0,150,2.0,0.0
1447,71.0,324,150,0.0,0.0
1448,55.0,0,150,3.0,0.0
1449,74.0,156,240,0.0,0.0
1450,72.0,240,150,0.0,0.0
1451,62.0,0,150,2.0,0.0
1452,54.0,0,150,3.0,0.0
1453,69.0,0,150,1.0,0.0
1454,67.0,324,150,1.0,0.0
1455,62.0,0,150,2.0,0.0
1456,71.0,0,150,0.0,0.0
1457,55.0,0,150,3.0,0.0
1458,74.0,156,240,0.0,0.0
1459,72.0,0,150,0.0,0.0
1460,54.0,0,150,3.0,0.0
1461,69.0,240,150,1.0,0.0
1462,62.0,0,150,2.0,0.0
1463,55.0,0,150,3.0,0.0
1464,62.0,0,150,2.0,0.0
1465,67.0,504,150,1.0,0.0
1466,71.0,0,150,0.0,0.0
1467,72.0,0,420,1.0,0.0
1468,74.0,0,420,0.0,0.0
1469,69.0,216,420,1.0,0.0
1470,54.0,0,420,3.0,0.0
1471,62.0,0,420,2.0,0.0
1472,74.0,240,150,0.0,0.0
1473,74.0,240,150,0.0,0.0
1474,74.0,0,150,2.0,0.0
1475,79.0,240,150,0.0,0.0
1476,71.0,0,150,3.0,0.0
1477,81.0,0,150,0.0,0.0
1478,72.0,0,150,2.0,0.0
1479,69.0,324,150,3.0,0.0
1480,71.0,156,480,2.0,0.0
1481,83.0,156,240,0.0,0.0
1482,67.0,0,480,3.0,0.0
1483,79.0,84,150,0.0,0.0
1484,76.0,240,150,0.0,0.0
1485,76.0,240,150,0.0,0.0
1486,81.0,0,150,0.0,0.0
1487,72.0,240,150,3.0,0.0
1488,76.0,0,150,2.0,0.0
1489,74.0,0,150,2.0,0.0
1490,71.0,324,150,3.0,0.0
1491,83.0,0,150,0.0,0.0
1492,84.0,156,240,0.0,0.0
1493,72.0,156,480,2.0,0.0
1494,69.0,0,480,3.0,0.0
1495,81.0,84,150,0.0,0.0
1496,88.0,240,150,0.0,0.0
1497,86.0,240,150,0.0,0.0
1498,69.0,0,150,2.0,0.0
1499,84.0,0,150,0.0,0.0
1500,66.0,240,150,3.0,0.0
1501,71.0,0,150,2.0,0.0
1502,67.0,84,150,3.0,0.0
1503,83.0,0,150,0.0,0.0
1504,83.0,156,60,0.0,0.0
1505,81.0,0,150,0.0,0.0
1506,72.0,0,150,2.0,0.0
1507,69.0,240,150,3.0,0.0
1508,74.0,240,150,2.0,0.0
1509,79.0,0,150,0.0,0.0
1510,71.0,0,150,3.0,0.0
1511,72.0,0,150,3.0,0.0
1512,81.0,0,150,0.0,0.0
1513,76.0,564,150,2.0,0.0
1514,71.0,240,480,2.0,0.0
1515,74.0,0,480,0.0,0.0
1516,79.0,0,240,0.0,0.0
1517,69.0,0,240,2.0,0.0
1518,78.0,360,240,0.0,0.0
1519,62.0,0,15,3.0,0.0
1520,72.0,0,240,1.0,0.0
1521,67.0,0,360,1.0,0.0
1522,55.0,360,360,3.0,0.0
1523,67.0,0,360,2.0,0.0
1524,79.0,0,360,0.0,0.0
1525,62.0,0,240,3.0,0.0
1526,75.0,0,30,0.0,0.0
1527,63.0,0,30,3.0,0.0
1528,74.0,240,15,0.0,0.0
1529,62.0,240,240,3.0,0.0
1530,73.0,240,240,0.0,0.0
1531,61.0,0,240,3.0,0.0
1532,74.0,0,240,0.0,0.0
1533,62.0,480,240,3.0,0.0
1534,75.0,240,480,0.0,0.0
1535,63.0,0,480,3.0,0.0
1536,74.0,156,240,0.0,0.0
1537,62.0,0,240,3.0,0.0
1538,72.0,0,150,0.0,0.0
1539,60.0,240,150,3.0,0.0
1540,70.0,0,150,0.0,0.0
1541,58.0,240,150,3.0,0.0
1542,69.0,0,150,0.0,0.0
1543,57.0,564,150,3.0,0.0
1544,74.0,0,480,0.0,0.0
1545,62.0,240,480,3.0,0.0
1546,72.0,0,240,0.0,0.0
1547,60.0,156,240,3.0,0.0
1548,70.0,0,150,0.0,0.0
1549,58.0,240,150,3.0,0.0
1550,57.0,240,150,3.0,0.0
1551,69.0,0,150,0.0,0.0
1552,55.0,324,150,3.0,0.0
1553,67.0,0,150,0.0,0.0
1554,63.0,156,240,0.0,0.0
1555,57.0,0,720,3.0,0.0
1556,48.0,156,720,3.0,0.0
1557,72.0,240,150,0.0,0.0
1558,70.0,84,150,0.0,0.0
1559,60.0,0,720,3.0,0.0
1560,69.0,240,150,0.0,0.0
1561,50.0,240,720,3.0,0.0
1562,67.0,240,150,0.0,0.0
1563,66.0,84,150,0.0,0.0
1564,55.0,22,690,3.0,0.0
1565,67.0,0,480,0.0,0.0
1566,62.0,120,120,2.0,0.0
1567,58.0,120,120,1.0,0.0
1568,62.0,120,120,2.0,0.0
1569,58.0,36,120,1.0,0.0
1570,86.0,62,150,0.0,0.0
1571,62.0,240,120,2.0,0.0
1572,86.0,120,240,0.0,0.0
1573,54.0,22,690,3.0,0.0
1574,62.0,0,120,2.0,0.0
1575,57.0,36,120,1.0,0.0
1576,85.0,84,150,0.0,0.0
1577,62.0,120,120,2.0,0.0
1578,86.0,62,150,0.0,0.0
1579,57.0,36,120,1.0,0.0
1580,62.0,240,120,2.0,0.0
1581,86.0,0,240,0.0,0.0
1582,55.0,22,690,3.0,0.0
1583,62.0,120,120,2.0,0.0
1584,85.0,84,150,0.0,0.0
1585,58.0,36,120,1.0,0.0
1586,62.0,120,120,2.0,0.0
1587,58.0,36,120,1.0,0.0
1588,86.0,62,150,0.0,0.0
1589,62.0,240,120,2.0,0.0
1590,54.0,22,690,3.0,0.0
1591,86.0,120,240,0.0,0.0
1592,62.0,0,120,2.0,0.0
1593,57.0,36,120,1.0,0.0
1594,85.0,84,150,0.0,0.0
1595,62.0,120,120,2.0,0.0
1596,86.0,62,150,0.0,0.0
1597,57.0,36,120,1.0,0.0
1598,62.0,240,120,2.0,0.0
1599,55.0,22,690,3.0,0.0
1600,86.0,0,240,0.0,0.0
1601,62.0,120,120,2.0,0.0
1602,84.0,84,150,0.0,0.0
1603,58.0,36,120,1.0,0.0
1604,62.0,120,120,2.0,0.0
1605,82.0,62,150,0.0,0.0
1606,58.0,36,120,1.0,0.0
1607,62.0,0,120,2.0,0.0
1608,84.0,240,60,0.0,0.0
1609,82.0,0,240,0.0,0.0
1610,55.0,22,690,3.0,0.0
1611,62.0,120,120,2.0,0.0
1612,81.0,84,150,0.0,0.0
1613,58.0,36,120,1.0,0.0
1614,62.0,120,120,2.0,0.0
1615,79.0,62,150,0.0,0.0
1616,58.0,36,120,1.0,0.0
1617,62.0,205,120,2.0,0.0
1618,77.0,0,240,0.0,0.0
1619,57.0,35,210,3.0,0.0
1620,62.0,156,120,2.0,0.0
1621,57.0,35,210,3.0,0.0
1622,79.0,49,150,0.0,0.0
1623,62.0,156,120,2.0,0.0
1624,76.0,49,150,0.0,0.0
1625,57.0,35,210,3.0,0.0
1626,61.0,240,120,1.0,0.0
1627,74.0,0,480,0.0,0.0
1628,50.0,22,690,3.0,0.0
1629,62.0,120,120,2.0,0.0
1630,61.0,120,120,1.0,0.0
1631,62.0,120,120,2.0,0.0
1632,60.0,98,120,1.0,0.0
1633,74.0,240,240,0.0,0.0
1634,57.0,0,120,1.0,0.0
1635,87.0,0,60,0.0,0.0
1636,55.0,22,690,3.0,0.0
1637,86.0,0,240,0.0,0.0
1638,62.0,120,120,2.0,0.0
1639,85.0,84,150,0.0,0.0
1640,58.0,36,120,1.0,0.0
1641,62.0,120,120,2.0,0.0
1642,58.0,36,120,1.0,0.0
1643,86.0,62,150,0.0,0.0
1644,62.0,240,120,2.0,0.0
1645,87.0,0,60,0.0,0.0
1646,86.0,120,240,0.0,0.0
1647,54.0,22,690,3.0,0.0
1648,62.0,0,120,2.0,0.0
1649,57.0,36,120,1.0,0.0
1650,85.0,84,150,0.0,0.0
1651,62.0,120,120,2.0,0.0
1652,57.0,36,120,1.0,0.0
1653,86.0,62,150,0.0,0.0
1654,62.0,0,120,2.0,0.0
1655,87.0,240,60,0.0,0.0
1656,55.0,22,690,3.0,0.0
1657,86.0,120,240,0.0,0.0
1658,62.0,0,120,2.0,0.0
1659,58.0,36,120,1.0,0.0
1660,85.0,84,150,0.0,0.0
1661,62.0,120,120,2.0,0.0
1662,58.0,36,120,1.0,0.0
1663,86.0,62,150,0.0,0.0
1664,62.0,0,120,2.0,0.0
1665,89.0,240,60,0.0,0.0
1666,87.0,120,240,0.0,0.0
1667,55.0,22,690,3.0,0.0
1668,63.0,0,120,2.0,0.0
1669,58.0,36,120,1.0,0.0
1670,86.0,84,150,0.0,0.0
1671,63.0,120,120,2.0,0.0
1672,87.0,62,150,0.0,0.0
1673,58.0,36,120,1.0,0.0
1674,63.0,240,120,2.0,0.0
1675,77.0,60,480,0.0,0.0
1676,89.0,0,960,0.0,0.0
1677,57.0,228,720,3.0,0.0
1678,65.0,120,120,2.0,0.0
1679,60.0,60,120,1.0,0.0
1680,65.0,120,120,2.0,0.0
1681,60.0,120,120,1.0,0.0
1682,65.0,12,120,2.0,0.0
1683,58.0,228,720,3.0,0.0
1684,65.0,120,120,2.0,0.0
1685,87.0,84,150,0.0,0.0
1686,62.0,36,120,1.0,0.0
1687,65.0,120,120,2.0,0.0
1688,62.0,36,120,1.0,0.0
1689,86.0,84,150,0.0,0.0
1690,65.0,0,120,2.0,0.0
1691,86.0,12,60,0.0,0.0
1692,51.0,39,690,3.0,0.0
1693,84.0,0,240,0.0,0.0
1694,60.0,120,120,2.0,0.0
1695,83.0,84,150,0.0,0.0
1696,55.0,36,120,1.0,0.0
1697,60.0,120,120,2.0,0.0
1698,55.0,36,120,1.0,0.0
1699,84.0,45,150,0.0,0.0
1700,60.0,240,120,2.0,0.0
1701,53.0,39,690,3.0,0.0
1702,87.0,120,240,0.0,0.0
1703,60.0,0,120,2.0,0.0
1704,57.0,36,120,1.0,0.0
1705,84.0,84,150,0.0,0.0
1706,60.0,120,120,2.0,0.0
1707,57.0,36,120,1.0,0.0
1708,81.0,45,150,0.0,0.0
1709,60.0,240,120,2.0,0.0
1710,82.0,0,240,0.0,0.0
1711,50.0,39,690,3.0,0.0
1712,62.0,120,120,2.0,0.0
1713,86.0,0,240,0.0,0.0
1714,58.0,120,120,1.0,0.0
1715,62.0,120,120,2.0,0.0
1716,89.0,120,480,0.0,0.0
1717,58.0,81,120,1.0,0.0
1718,62.0,240,120,2.0,0.0
1719,53.0,39,690,3.0,0.0
1720,62.0,0,120,2.0,0.0
1721,87.0,84,150,0.0,0.0
1722,58.0,36,120,1.0,0.0
1723,62.0,120,120,2.0,0.0
1724,86.0,45,150,0.0,0.0
1725,58.0,36,120,1.0,0.0
1726,62.0,0,120,2.0,0.0
1727,86.0,240,60,0.0,0.0
1728,84.0,120,240,0.0,0.0
1729,51.0,39,690,3.0,0.0
1730,60.0,0,120,2.0,0.0
1731,55.0,36,120,1.0,0.0
1732,83.0,84,150,0.0,0.0
1733,60.0,120,120,2.0,0.0
1734,55.0,36,120,1.0,0.0
1735,84.0,45,150,0.0,0.0
1736,60.0,240,120,2.0,0.0
1737,53.0,39,690,3.0,0.0
1738,87.0,0,240,0.0,0.0
1739,63.0,120,120,2.0,0.0
1740,84.0,84,150,0.0,0.0
1741,60.0,36,120,1.0,0.0
1742,63.0,120,120,2.0,0.0
1743,81.0,45,150,0.0,0.0
1744,60.0,36,120,1.0,0.0
1745,63.0,156,120,2.0,0.0
1746,82.0,324,150,0.0,0.0
1747,58.0,0,480,3.0,0.0
1748,62.0,0,480,1.0,0.0
1749,86.0,240,240,0.0,0.0
1750,84.0,240,240,0.0,0.0
1751,82.0,240,240,0.0,0.0
1752,81.0,240,240,0.0,0.0
1753,79.0,240,240,0.0,0.0
1754,77.0,240,240,0.0,0.0
1755,76.0,240,240,0.0,0.0
1756,77.0,240,240,0.0,0.0
1757,78.0,240,240,0.0,0.0
1758,79.0,240,240,0.0,0.0
1759,75.0,396,240,0.0,0.0
1760,74.0,0,720,0.0,0.0
1761,65.0,240,150,2.0,0.0
1762,65.0,84,150,2.0,0.0
1763,75.0,240,60,0.0,0.0
1764,58.0,38,690,3.0,0.0
1765,74.0,156,240,0.0,0.0
1766,65.0,84,150,2.0,0.0
1767,72.0,156,240,0.0,0.0
1768,74.0,396,240,0.0,0.0
1769,65.0,46,150,2.0,0.0
1770,75.0,0,720,0.0,0.0
1771,60.0,38,690,3.0,0.0
1772,65.0,240,150,2.0,0.0
1773,65.0,46,150,2.0,0.0
1774,74.0,240,60,0.0,0.0
1775,72.0,156,240,0.0,0.0
1776,63.0,38,690,3.0,0.0
1777,65.0,84,150,2.0,0.0
1778,71.0,156,240,0.0,0.0
1779,65.0,46,150,2.0,0.0
1780,72.0,396,240,0.0,0.0
1781,62.0,278,690,3.0,0.0
1782,77.0,156,960,0.0,0.0
1783,65.0,240,150,2.0,0.0
1784,65.0,46,150,2.0,0.0
1785,58.0,38,690,3.0,0.0
1786,75.0,156,240,0.0,0.0
1787,65.0,84,150,2.0,0.0
1788,65.0,46,150,2.0,0.0
1789,74.0,240,240,0.0,0.0
1790,72.0,156,240,0.0,0.0
1791,60.0,278,690,3.0,0.0
1792,65.0,0,150,2.0,0.0
1793,74.0,240,150,0.0,0.0
1794,70.0,46,150,0.0,0.0
1795,65.0,0,150,2.0,0.0
1796,60.0,518,690,3.0,0.0
1797,69.0,156,240,0.0,0.0
1798,70.0,240,150,0.0,0.0
1799,64.0,0,150,2.0,0.0
1800,67.0,0,150,0.0,0.0
1801,64.0,46,150,2.0,0.0
1802,65.0,240,960,0.0,0.0
1803,53.0,38,690,3.0,0.0
1804,57.0,202,240,2.0,0.0
1805,60.0,240,240,2.0,0.0
1806,51.0,38,690,3.0,0.0
1807,67.0,0,240,0.0,0.0
1808,57.0,202,240,2.0,0.0
1809,60.0,0,240,2.0,0.0
1810,69.0,0,240,0.0,0.0
1811,72.0,240,60,0.0,0.0
1812,70.0,156,240,0.0,0.0
1813,50.0,38,690,3.0,0.0
1814,53.0,84,150,2.0,0.0
1815,69.0,156,240,0.0,0.0
1816,53.0,46,150,2.0,0.0
1817,70.0,240,240,0.0,0.0
1818,46.0,38,690,3.0,0.0
1819,65.0,156,240,0.0,0.0
1820,53.0,84,150,2.0,0.0
1821,69.0,156,240,0.0,0.0
1822,70.0,240,240,0.0,0.0
1823,53.0,46,150,2.0,0.0
1824,74.0,0,60,0.0,0.0
1825,45.0,38,690,3.0,0.0
1826,72.0,156,240,0.0,0.0
1827,53.0,84,150,2.0,0.0
1828,71.0,156,240,0.0,0.0
1829,53.0,46,150,2.0,0.0
1830,72.0,240,240,0.0,0.0
1831,65.0,156,240,0.0,0.0
1832,41.0,38,690,3.0,0.0
1833,70.0,156,240,0.0,0.0
1834,53.0,84,150,2.0,0.0
1835,72.0,240,240,0.0,0.0
1836,53.0,46,150,2.0,0.0
1837,75.0,0,60,0.0,0.0
1838,46.0,38,690,3.0,0.0
1839,74.0,240,240,0.0,0.0
1840,53.0,202,240,2.0,0.0
1841,72.0,0,240,0.0,0.0
1842,58.0,240,240,2.0,0.0
1843,74.0,0,240,0.0,0.0
1844,51.0,38,690,3.0,0.0
1845,75.0,240,240,0.0,0.0
1846,77.0,0,240,0.0,0.0
1847,55.0,202,240,2.0,0.0
1848,79.0,0,240,0.0,0.0
1849,60.0,396,240,2.0,0.0
1850,72.0,0,720,0.0,0.0
1851,53.0,4,720,3.0,0.0
1852,65.0,240,150,2.0,0.0
1853,65.0,80,150,2.0,0.0
1854,75.0,240,60,0.0,0.0
1855,74.0,156,240,0.0,0.0
1856,58.0,38,690,3.0,0.0
1857,72.0,156,240,0.0,0.0
1858,65.0,84,150,2.0,0.0
1859,74.0,396,240,0.0,0.0
1860,65.0,46,150,2.0,0.0
1861,75.0,0,720,0.0,0.0
1862,60.0,38,690,3.0,0.0
1863,65.0,240,150,2.0,0.0
1864,65.0,46,150,2.0,0.0
1865,74.0,240,60,0.0,0.0
1866,63.0,38,690,3.0,0.0
1867,72.0,156,240,0.0,0.0
1868,65.0,84,150,2.0,0.0
1869,71.0,156,240,0.0,0.0
1870,72.0,396,240,0.0,0.0
1871,65.0,46,150,2.0,0.0
1872,62.0,278,690,3.0,0.0
1873,77.0,156,960,0.0,0.0
1874,65.0,240,150,2.0,0.0
1875,65.0,46,150,2.0,0.0
1876,58.0,38,690,3.0,0.0
1877,65.0,84,150,2.0,0.0
1878,75.0,156,240,0.0,0.0
1879,65.0,46,150,2.0,0.0
1880,74.0,240,240,0.0,0.0
1881,60.0,278,690,3.0,0.0
1882,72.0,156,240,0.0,0.0
1883,65.0,0,150,2.0,0.0
1884,74.0,240,150,0.0,0.0
1885,70.0,46,150,0.0,0.0
1886,65.0,0,150,2.0,0.0
1887,60.0,518,690,3.0,0.0
1888,69.0,156,240,0.0,0.0
1889,64.0,240,150,2.0,0.0
1890,70.0,0,150,0.0,0.0
1891,67.0,0,150,0.0,0.0
1892,64.0,46,150,2.0,0.0
1893,65.0,240,960,0.0,0.0
1894,53.0,38,690,3.0,0.0
1895,57.0,202,240,2.0,0.0
1896,60.0,240,240,2.0,0.0
1897,51.0,38,690,3.0,0.0
1898,57.0,202,240,2.0,0.0
1899,67.0,0,240,0.0,0.0
1900,69.0,240,240,0.0,0.0
1901,60.0,0,240,2.0,0.0
1902,72.0,0,60,0.0,0.0
1903,50.0,38,690,3.0,0.0
1904,70.0,240,240,0.0,0.0
1905,69.0,202,240,0.0,0.0
1906,53.0,122,600,2.0,0.0
1907,70.0,118,240,0.0,0.0
1908,46.0,72,660,3.0,0.0
1909,65.0,156,240,0.0,0.0
1910,69.0,156,240,0.0,0.0
1911,53.0,84,150,2.0,0.0
1912,53.0,12,150,2.0,0.0
1913,70.0,240,240,0.0,0.0
1914,74.0,0,60,0.0,0.0
1915,72.0,156,240,0.0,0.0
1916,45.0,72,660,3.0,0.0
1917,71.0,156,240,0.0,0.0
1918,53.0,84,150,2.0,0.0
1919,72.0,240,240,0.0,0.0
1920,53.0,12,150,2.0,0.0
1921,75.0,0,60,0.0,0.0
1922,46.0,72,660,3.0,0.0
1923,74.0,156,240,0.0,0.0
1924,72.0,156,240,0.0,0.0
1925,53.0,84,150,2.0,0.0
1926,74.0,240,240,0.0,0.0
1927,53.0,12,150,2.0,0.0
1928,75.0,240,240,0.0,0.0
1929,51.0,72,660,3.0,0.0
1930,55.0,0,240,2.0,0.0
1931,77.0,168,240,0.0,0.0
1932,79.0,0,240,0.0,0.0
1933,60.0,480,240,2.0,0.0
1934,70.0,0,480,0.0,0.0
1935,53.0,72,660,3.0,0.0
1936,62.0,120,240,2.0,0.0
1937,63.0,0,240,2.0,0.0
1938,74.0,48,120,0.0,0.0
1939,72.0,480,120,0.0,0.0
1940,58.0,72,660,3.0,0.0
1941,70.0,0,480,0.0,0.0
1942,62.0,168,240,2.0,0.0
1943,65.0,0,240,2.0,0.0
1944,72.0,240,60,0.0,0.0
1945,70.0,240,240,0.0,0.0
1946,69.0,240,240,0.0,0.0
1947,70.0,480,240,0.0,0.0
1948,62.0,0,720,3.0,0.0
1949,70.0,0,720,1.0,0.0
1950,65.0,0,720,2.0,0.0
1951,77.0,240,15,0.0,0.0
1952,65.0,0,720,2.0,0.0
1953,71.0,0,720,1.0,0.0
1954,61.0,480,720,3.0,0.0
1955,77.0,240,15,0.0,0.0
1956,77.0,0,15,0.0,0.0
1957,67.0,0,720,2.0,0.0
1958,60.0,0,720,3.0,0.0
1959,72.0,240,720,1.0,0.0
1960,76.0,0,240,0.0,0.0
1961,74.0,0,60,0.0,0.0
1962,72.0,240,240,0.0,0.0
1963,71.0,240,240,0.0,0.0
1964,72.0,480,240,0.0,0.0
1965,67.0,0,720,2.0,0.0
1966,60.0,480,720,3.0,0.0
1967,72.0,0,720,1.0,0.0
1968,75.0,240,15,0.0,0.0
1969,72.0,0,720,1.0,0.0
1970,75.0,0,15,0.0,0.0
1971,66.0,480,720,2.0,0.0
1972,57.0,0,720,3.0,0.0
1973,75.0,240,15,0.0,0.0
1974,65.0,0,720,2.0,0.0
1975,75.0,240,480,0.0,0.0
1976,70.0,0,720,1.0,0.0
1977,74.0,240,240,0.0,0.0
1978,75.0,0,60,0.0,0.0
1979,58.0,0,15,3.0,0.0
1980,74.0,156,240,0.0,0.0
1981,65.0,84,150,2.0,0.0
1982,72.0,156,240,0.0,0.0
1983,65.0,12,150,2.0,0.0
1984,74.0,396,240,0.0,0.0
1985,60.0,72,660,3.0,0.0
1986,75.0,0,720,0.0,0.0
1987,65.0,240,150,2.0,0.0
1988,65.0,12,150,2.0,0.0
1989,74.0,240,60,0.0,0.0
1990,72.0,156,240,0.0,0.0
1991,63.0,72,660,3.0,0.0
1992,65.0,84,150,2.0,0.0
1993,71.0,156,240,0.0,0.0
1994,65.0,12,150,2.0,0.0
1995,72.0,396,240,0.0,0.0
1996,62.0,244,720,3.0,0.0
1997,77.0,156,960,0.0,0.0
1998,58.0,240,150,2.0,0.0
1999,58.0,80,150,2.0,0.0
2000,51.0,72,660,3.0,0.0
2001,78.0,156,240,0.0,0.0
2002,58.0,84,150,2.0,0.0
2003,79.0,396,240,0.0,0.0
2004,58.0,12,150,2.0,0.0
2005,53.0,12,660,3.0,0.0
2006,70.0,60,480,0.0,0.0
2007,58.0,84,150,2.0,0.0
2008,58.0,12,150,2.0,0.0
2009,72.0,60,60,0.0,0.0
2010,70.0,36,60,0.0,0.0
2011,69.0,60,60,0.0,0.0
2012,70.0,396,60,0.0,0.0
2013,74.0,156,480,0.0,0.0
2014,53.0,72,660,3.0,0.0
2015,57.0,84,150,2.0,0.0
2016,57.0,12,150,2.0,0.0
2017,72.0,396,240,0.0,0.0
2018,46.0,72,660,3.0,0.0
2019,70.0,156,480,0.0,0.0
2020,58.0,84,150,2.0,0.0
2021,58.0,12,150,2.0,0.0
2022,72.0,240,60,0.0,0.0
2023,70.0,240,240,0.0,0.0
2024,69.0,240,240,0.0,0.0
2025,70.0,396,240,0.0,0.0
2026,77.0,156,480,0.0,0.0
2027,62.0,72,660,3.0,0.0
2028,70.0,396,720,1.0,0.0
2029,65.0,84,150,2.0,0.0
2030,65.0,12,150,2.0,0.0
2031,77.0,0,15,0.0,0.0
2032,61.0,72,660,3.0,0.0
2033,71.0,0,720,1.0,0.0
2034,65.0,84,150,2.0,0.0
2035,65.0,12,150,2.0,0.0
2036,77.0,396,240,0.0,0.0
2037,77.0,156,480,0.0,0.0
2038,72.0,156,720,1.0,0.0
2039,60.0,78,1350,3.0,0.0
2040,67.0,84,150,2.0,0.0
2041,67.0,84,150,2.0,0.0
2042,76.0,0,240,0.0,0.0
2043,74.0,0,60,0.0,0.0
2044,72.0,156,240,0.0,0.0
2045,67.0,84,150,2.0,0.0
2046,71.0,156,240,0.0,0.0
2047,67.0,84,150,2.0,0.0
2048,67.0,6,150,2.0,0.0
2049,72.0,396,240,0.0,0.0
2050,60.0,72,660,3.0,0.0
2051,75.0,156,480,0.0,0.0
2052,67.0,84,150,2.0,0.0
2053,75.0,0,240,0.0,0.0
2054,67.0,12,150,2.0,0.0
2055,72.0,396,15,1.0,0.0
2056,75.0,156,480,0.0,0.0
2057,57.0,72,660,3.0,0.0
2058,66.0,84,150,2.0,0.0
2059,66.0,12,150,2.0,0.0
2060,75.0,396,15,0.0,0.0
2061,70.0,0,720,1.0,0.0
2062,58.0,44,1410,3.0,0.0
2063,65.0,84,150,2.0,0.0
2064,74.0,156,240,0.0,0.0
2065,65.0,84,150,2.0,0.0
2066,75.0,0,60,0.0,0.0
2067,65.0,84,150,2.0,0.0
2068,74.0,156,240,0.0,0.0
2069,65.0,84,150,2.0,0.0
2070,72.0,156,240,0.0,0.0
2071,65.0,40,150,2.0,0.0
2072,74.0,396,240,0.0,0.0
2073,60.0,72,660,3.0,0.0
2074,75.0,0,720,0.0,0.0
2075,65.0,240,150,2.0,0.0
2076,65.0,12,150,2.0,0.0
2077,74.0,240,60,0.0,0.0
2078,72.0,156,240,0.0,0.0
2079,63.0,72,660,3.0,0.0
2080,65.0,84,150,2.0,0.0
2081,71.0,156,240,0.0,0.0
2082,72.0,396,240,0.0,0.0
2083,65.0,12,150,2.0,0.0
2084,77.0,240,960,0.0,0.0
2085,62.0,312,660,3.0,0.0
2086,58.0,240,150,2.0,0.0
2087,58.0,12,150,2.0,0.0
2088,51.0,450,750,3.0,0.0
2089,78.0,240,240,0.0,0.0
2090,58.0,0,240,2.0,0.0
2091,63.0,30,240,2.0,0.0
2092,79.0,0,240,0.0,0.0
2093,53.0,0,720,3.0,0.0
2094,70.0,0,480,0.0,0.0
2095,58.0,60,240,2.0,0.0
2096,72.0,60,60,0.0,0.0
2097,62.0,0,240,2.0,0.0
2098,70.0,60,60,0.0,0.0
2099,69.0,60,60,0.0,0.0
2100,70.0,480,60,0.0,0.0
2101,74.0,0,480,0.0,0.0
2102,53.0,0,720,3.0,0.0
2103,57.0,240,240,2.0,0.0
2104,63.0,360,240,2.0,0.0
2105,72.0,0,240,0.0,0.0
2106,58.0,0,360,3.0,0.0
2107,62.0,9,360,2.0,0.0
2108,70.0,351,360,0.0,0.0
2109,62.0,240,240,3.0,0.0
2110,75.0,0,30,0.0,0.0
2111,63.0,0,30,3.0,0.0
2112,74.0,0,15,0.0,0.0
2113,62.0,240,240,3.0,0.0
2114,73.0,0,240,0.0,0.0
2115,61.0,240,240,3.0,0.0
2116,62.0,480,240,3.0,0.0
2117,74.0,0,240,0.0,0.0
2118,75.0,0,480,0.0,0.0
2119,63.0,240,480,3.0,0.0
2120,74.0,0,240,0.0,0.0
2121,62.0,156,240,3.0,0.0
2122,72.0,0,150,0.0,0.0
2123,60.0,240,150,3.0,0.0
2124,58.0,0,150,3.0,0.0
2125,70.0,240,150,0.0,0.0
2126,57.0,0,150,3.0,0.0
2127,69.0,564,150,0.0,0.0
2128,74.0,0,480,0.0,0.0
2129,62.0,240,480,3.0,0.0
2130,72.0,156,240,0.0,0.0
2131,60.0,0,240,3.0,0.0
2132,70.0,240,150,0.0,0.0
2133,58.0,0,150,3.0,0.0
2134,57.0,0,150,3.0,0.0
2135,69.0,240,150,0.0,0.0
2136,67.0,324,150,0.0,0.0
2137,55.0,0,150,3.0,0.0
2138,57.0,0,720,3.0,0.0
2139,48.0,156,720,3.0,0.0
2140,63.0,156,240,0.0,0.0
2141,72.0,240,150,0.0,0.0
2142,70.0,84,150,0.0,0.0
2143,50.0,240,720,3.0,0.0
2144,60.0,0,720,3.0,0.0
2145,69.0,240,150,0.0,0.0
2146,67.0,240,150,0.0,0.0
2147,66.0,84,150,0.0,0.0
2148,67.0,0,480,0.0,0.0
2149,55.0,22,690,3.0,0.0
2150,62.0,120,120,2.0,0.0
2151,58.0,120,120,1.0,0.0
2152,62.0,120,120,2.0,0.0
2153,86.0,62,150,0.0,0.0
2154,58.0,36,120,1.0,0.0
2155,62.0,240,120,2.0,0.0
2156,54.0,22,690,3.0,0.0
2157,86.0,120,240,0.0,0.0
2158,62.0,0,120,2.0,0.0
2159,57.0,36,120,1.0,0.0
2160,85.0,84,150,0.0,0.0
2161,62.0,120,120,2.0,0.0
2162,86.0,62,150,0.0,0.0
2163,57.0,36,120,1.0,0.0
2164,62.0,240,120,2.0,0.0
2165,55.0,22,690,3.0,0.0
2166,86.0,0,240,0.0,0.0
2167,62.0,120,120,2.0,0.0
2168,85.0,84,150,0.0,0.0
2169,58.0,36,120,1.0,0.0
2170,62.0,120,120,2.0,0.0
2171,86.0,62,150,0.0,0.0
2172,58.0,36,120,1.0,0.0
2173,62.0,240,120,2.0,0.0
2174,54.0,22,690,3.0,0.0
2175,86.0,120,240,0.0,0.0
2176,62.0,0,120,2.0,0.0
2177,85.0,84,150,0.0,0.0
2178,57.0,36,120,1.0,0.0
2179,62.0,120,120,2.0,0.0
2180,57.0,36,120,1.0,0.0
2181,86.0,62,150,0.0,0.0
2182,62.0,240,120,2.0,0.0
2183,86.0,120,240,0.0,0.0
2184,55.0,22,690,3.0,0.0
2185,62.0,0,120,2.0,0.0
2186,58.0,36,120,1.0,0.0
2187,84.0,84,150,0.0,0.0
2188,62.0,120,120,2.0,0.0
2189,82.0,62,150,0.0,0.0
2190,58.0,36,120,1.0,0.0
2191,62.0,240,120,2.0,0.0
2192,84.0,0,60,0.0,0.0
2193,55.0,22,690,3.0,0.0
2194,82.0,120,240,0.0,0.0
2195,62.0,0,120,2.0,0.0
2196,58.0,36,120,1.0,0.0
2197,81.0,84,150,0.0,0.0
2198,62.0,120,120,2.0,0.0
2199,58.0,36,120,1.0,0.0
2200,79.0,62,150,0.0,0.0
2201,62.0,205,120,2.0,0.0
2202,77.0,0,240,0.0,0.0
2203,57.0,35,210,3.0,0.0
2204,62.0,156,120,2.0,0.0
2205,57.0,35,210,3.0,0.0
2206,79.0,49,150,0.0,0.0
2207,62.0,156,120,2.0,0.0
2208,57.0,35,210,3.0,0.0
2209,76.0,49,150,0.0,0.0
2210,61.0,240,120,1.0,0.0
2211,50.0,22,690,3.0,0.0
2212,62.0,120,120,2.0,0.0
2213,61.0,120,120,1.0,0.0
2214,62.0,120,120,2.0,0.0
2215,74.0,0,15,0.0,0.0
2216,60.0,98,120,1.0,0.0
2217,57.0,0,120,1.0,0.0
2218,87.0,0,60,0.0,0.0
2219,55.0,22,690,3.0,0.0
2220,86.0,120,240,0.0,0.0
2221,62.0,0,120,2.0,0.0
2222,58.0,36,120,1.0,0.0
2223,85.0,84,150,0.0,0.0
2224,62.0,120,120,2.0,0.0
2225,86.0,62,150,0.0,0.0
2226,58.0,36,120,1.0,0.0
2227,62.0,240,120,2.0,0.0
2228,87.0,0,60,0.0,0.0
2229,54.0,22,690,3.0,0.0
2230,86.0,0,240,0.0,0.0
2231,62.0,120,120,2.0,0.0
2232,57.0,36,120,1.0,0.0
2233,85.0,84,150,0.0,0.0
2234,62.0,120,120,2.0,0.0
2235,86.0,62,150,0.0,0.0
2236,57.0,36,120,1.0,0.0
2237,62.0,240,120,2.0,0.0
2238,87.0,0,60,0.0,0.0
2239,86.0,0,240,0.0,0.0
2240,55.0,22,690,3.0,0.0
2241,62.0,120,120,2.0,0.0
2242,85.0,84,150,0.0,0.0
2243,58.0,36,120,1.0,0.0
2244,62.0,120,120,2.0,0.0
2245,58.0,36,120,1.0,0.0
2246,86.0,62,150,0.0,0.0
2247,62.0,0,120,2.0,0.0
2248,89.0,240,60,0.0,0.0
2249,55.0,22,690,3.0,0.0
2250,87.0,120,240,0.0,0.0
2251,63.0,0,120,2.0,0.0
2252,86.0,84,150,0.0,0.0
2253,58.0,36,120,1.0,0.0
2254,63.0,120,120,2.0,0.0
2255,58.0,36,120,1.0,0.0
2256,87.0,62,150,0.0,0.0
2257,63.0,240,120,2.0,0.0
2258,77.0,0,300,0.0,0.0
2259,57.0,228,720,3.0,0.0
2260,89.0,0,960,0.0,0.0
2261,65.0,120,120,2.0,0.0
2262,60.0,120,120,1.0,0.0
2263,65.0,120,120,2.0,0.0
2264,60.0,120,120,1.0,0.0
2265,65.0,12,120,2.0,0.0
2266,58.0,228,720,3.0,0.0
2267,65.0,120,120,2.0,0.0
2268,62.0,36,120,1.0,0.0
2269,87.0,84,150,0.0,0.0
2270,65.0,120,120,2.0,0.0
2271,62.0,36,120,1.0,0.0
2272,86.0,84,150,0.0,0.0
2273,65.0,12,120,2.0,0.0
2274,75.0,105,300,0.0,0.0
2275,55.0,39,690,3.0,0.0
2276,87.0,0,960,0.0,0.0
2277,63.0,15,120,2.0,0.0
2278,58.0,120,120,1.0,0.0
2279,63.0,120,120,2.0,0.0
2280,58.0,81,120,1.0,0.0
2281,63.0,240,120,2.0,0.0
2282,57.0,39,690,3.0,0.0
2283,63.0,120,120,2.0,0.0
2284,60.0,36,120,1.0,0.0
2285,86.0,84,150,0.0,0.0
2286,63.0,120,120,2.0,0.0
2287,60.0,36,120,1.0,0.0
2288,84.0,45,150,0.0,0.0
2289,63.0,240,120,2.0,0.0
2290,74.0,90,330,0.0,0.0
2291,54.0,39,690,3.0,0.0
2292,86.0,0,960,0.0,0.0
2293,62.0,30,120,2.0,0.0
2294,57.0,120,120,1.0,0.0
2295,62.0,120,120,2.0,0.0
2296,57.0,81,120,1.0,0.0
2297,62.0,240,120,2.0,0.0
2298,55.0,39,690,3.0,0.0
2299,62.0,120,120,2.0,0.0
2300,84.0,84,150,0.0,0.0
2301,58.0,36,120,1.0,0.0
2302,62.0,120,120,2.0,0.0
2303,82.0,45,150,0.0,0.0
2304,58.0,36,120,1.0,0.0
2305,62.0,240,120,2.0,0.0
2306,81.0,0,240,0.0,0.0
2307,48.0,39,690,3.0,0.0
2308,57.0,120,120,2.0,0.0
2309,51.0,36,120,1.0,0.0
2310,82.0,84,150,0.0,0.0
2311,57.0,120,120,2.0,0.0
2312,51.0,36,120,1.0,0.0
2313,84.0,45,150,0.0,0.0
2314,57.0,240,120,2.0,0.0
2315,78.0,120,240,0.0,0.0
2316,50.0,39,690,3.0,0.0
2317,57.0,0,120,2.0,0.0
2318,54.0,36,120,1.0,0.0
2319,79.0,84,150,0.0,0.0
2320,57.0,120,120,2.0,0.0
2321,54.0,36,120,1.0,0.0
2322,81.0,45,150,0.0,0.0
2323,57.0,240,120,2.0,0.0
2324,43.0,240,240,3.0,0.0
2325,79.0,0,480,0.0,0.0
2326,55.0,156,240,3.0,0.0
2327,62.0,240,150,0.0,0.0
2328,62.0,240,150,0.0,0.0
2329,67.0,240,150,0.0,0.0
2330,69.0,324,150,0.0,0.0
2331,71.0,156,240,0.0,0.0
2332,67.0,240,150,0.0,0.0
2333,62.0,240,150,0.0,0.0
2334,62.0,240,150,0.0,0.0
2335,69.0,240,150,0.0,0.0
2336,71.0,324,150,0.0,0.0
2337,72.0,156,240,0.0,0.0
2338,69.0,240,150,0.0,0.0
2339,62.0,240,150,0.0,0.0
2340,62.0,240,150,0.0,0.0
2341,67.0,0,150,0.0,0.0
2342,59.0,0,150,3.0,0.0
2343,62.0,240,150,2.0,0.0
2344,60.0,0,150,2.0,0.0
2345,69.0,0,150,0.0,0.0
2346,57.0,324,150,3.0,0.0
2347,71.0,156,240,0.0,0.0
2348,59.0,156,480,2.0,0.0
2349,55.0,0,480,3.0,0.0
2350,67.0,84,150,0.0,0.0
2351,64.0,240,150,0.0,0.0
2352,64.0,240,150,0.0,0.0
2353,60.0,240,150,2.0,0.0
2354,69.0,0,150,0.0,0.0
2355,57.0,0,150,3.0,0.0
2356,55.0,0,150,3.0,0.0
2357,59.0,0,150,2.0,0.0
2358,71.0,324,150,0.0,0.0
2359,60.0,0,480,2.0,0.0
2360,57.0,156,480,3.0,0.0
2361,72.0,156,240,0.0,0.0
2362,69.0,84,150,0.0,0.0
2363,76.0,240,150,0.0,0.0
2364,74.0,240,150,0.0,0.0
2365,57.0,0,150,2.0,0.0
2366,72.0,240,150,0.0,0.0
2367,54.0,0,150,3.0,0.0
2368,59.0,0,150,2.0,0.0
2369,55.0,0,150,3.0,0.0
2370,71.0,240,150,0.0,0.0
2371,60.0,0,150,2.0,0.0
2372,69.0,240,150,0.0,0.0
2373,57.0,0,150,3.0,0.0
2374,62.0,0,150,2.0,0.0
2375,59.0,240,150,3.0,0.0
2376,67.0,0,150,0.0,0.0
2377,69.0,144,150,0.0,0.0
2378,60.0,0,150,3.0,0.0
2379,64.0,0,150,2.0,0.0
2380,64.0,240,720,2.0,0.0
2381,67.0,40,60,0.0,0.0
2382,61.0,0,720,3.0,0.0
2383,69.0,140,60,0.0,0.0
2384,70.0,156,150,0.0,0.0
2385,69.0,240,150,0.0,0.0
2386,67.0,84,150,0.0,0.0
2387,62.0,156,480,3.0,0.0
2388,66.0,156,240,0.0,0.0
2389,62.0,84,150,0.0,0.0
2390,62.0,240,150,0.0,0.0
2391,62.0,240,150,0.0,0.0
2392,67.0,0,150,0.0,0.0
2393,59.0,0,150,3.0,0.0
2394,62.0,240,150,2.0,0.0
2395,57.0,0,150,3.0,0.0
2396,69.0,0,150,0.0,0.0
2397,60.0,324,150,2.0,0.0
2398,59.0,0,480,2.0,0.0
2399,71.0,156,240,0.0,0.0
2400,55.0,156,480,3.0,0.0
2401,67.0,84,150,0.0,0.0
2402,64.0,240,150,0.0,0.0
2403,64.0,240,150,0.0,0.0
2404,60.0,0,150,3.0,0.0
2405,64.0,240,150,2.0,0.0
2406,69.0,0,150,0.0,0.0
2407,62.0,0,150,2.0,0.0
2408,71.0,0,150,0.0,0.0
2409,59.0,324,150,3.0,0.0
2410,72.0,156,240,0.0,0.0
2411,57.0,156,480,3.0,0.0
2412,60.0,0,480,2.0,0.0
2413,69.0,84,150,0.0,0.0
2414,76.0,240,150,0.0,0.0
2415,74.0,240,150,0.0,0.0
2416,72.0,0,150,0.0,0.0
2417,54.0,240,150,3.0,0.0
2418,57.0,0,150,2.0,0.0
2419,55.0,0,150,3.0,0.0
2420,59.0,240,150,2.0,0.0
2421,71.0,0,150,0.0,0.0
2422,60.0,240,150,2.0,0.0
2423,69.0,0,150,0.0,0.0
2424,57.0,0,150,3.0,0.0
2425,59.0,0,150,3.0,0.0
2426,62.0,0,150,2.0,0.0
2427,67.0,240,150,0.0,0.0
2428,64.0,0,150,2.0,0.0
2429,60.0,0,150,3.0,0.0
2430,69.0,564,150,0.0,0.0
2431,59.0,0,480,2.0,0.0
2432,62.0,0,480,0.0,0.0
2433,67.0,0,240,0.0,0.0
2434,57.0,0,240,2.0,0.0
2435,66.0,360,240,0.0,0.0
2436,50.0,240,15,3.0,0.0
2437,60.0,0,240,1.0,0.0
2438,55.0,0,360,1.0,0.0
2439,55.0,0,360,2.0,0.0
2440,67.0,276,360,0.0,0.0
2441,43.0,0,360,3.0,0.0
2442,62.0,240,150,0.0,0.0
2443,67.0,240,150,0.0,0.0
2444,71.0,240,150,0.0,0.0
2445,74.0,324,150,0.0,0.0
2446,74.0,156,240,0.0,0.0
2447,72.0,0,150,0.0,0.0
2448,69.0,240,150,1.0,0.0
2449,62.0,0,150,2.0,0.0
2450,54.0,0,150,3.0,0.0
2451,72.0,0,150,0.0,0.0
2452,54.0,0,150,3.0,0.0
2453,62.0,0,150,2.0,0.0
2454,69.0,324,150,1.0,0.0
2455,74.0,156,240,0.0,0.0
2456,71.0,0,150,0.0,0.0
2457,67.0,0,150,1.0,0.0
2458,55.0,0,150,3.0,0.0
2459,62.0,240,150,2.0,0.0
2460,55.0,0,150,3.0,0.0
2461,71.0,0,150,0.0,0.0
2462,62.0,324,150,2.0,0.0
2463,74.0,156,240,0.0,0.0
2464,72.0,0,150,0.0,0.0
2465,69.0,0,150,1.0,0.0
2466,62.0,240,150,2.0,0.0
2467,54.0,0,150,3.0,0.0
2468,54.0,0,150,3.0,0.0
2469,72.0,0,150,0.0,0.0
2470,69.0,0,150,1.0,0.0
2471,62.0,324,150,2.0,0.0
2472,74.0,156,240,0.0,0.0
2473,62.0,0,150,2.0,0.0
2474,71.0,0,150,0.0,0.0
2475,67.0,0,150,1.0,0.0
2476,55.0,240,150,3.0,0.0
2477,55.0,324,150,3.0,0.0
2478,71.0,0,150,0.0,0.0
2479,62.0,0,150,2.0,0.0
2480,74.0,156,240,0.0,0.0
2481,72.0,0,150,0.0,0.0
2482,54.0,0,150,3.0,0.0
2483,62.0,0,150,2.0,0.0
2484,69.0,240,150,1.0,0.0
2485,67.0,324,150,1.0,0.0
2486,62.0,0,150,2.0,0.0
2487,71.0,0,150,0.0,0.0
2488,55.0,0,150,3.0,0.0
2489,74.0,156,240,0.0,0.0
2490,69.0,0,150,1.0,0.0
2491,72.0,240,150,0.0,0.0
2492,62.0,0,150,2.0,0.0
2493,54.0,0,150,3.0,0.0
2494,67.0,0,150,1.0,0.0
2495,55.0,0,150,3.0,0.0
2496,62.0,504,150,2.0,0.0
2497,71.0,0,150,0.0,0.0
2498,72.0,0,420,1.0,0.0
2499,62.0,0,420,2.0,0.0
2500,54.0,216,420,3.0,0.0
2501,74.0,0,420,0.0,0.0
2502,69.0,0,420,1.0,0.0
2503,74.0,240,150,0.0,0.0
2504,74.0,240,150,0.0,0.0
2505,79.0,240,150,0.0,0.0
2506,71.0,0,150,3.0,0.0
2507,74.0,0,150,2.0,0.0
2508,69.0,0,150,3.0,0.0
2509,72.0,324,150,2.0,0.0
2510,81.0,0,150,0.0,0.0
2511,71.0,0,480,2.0,0.0
2512,67.0,156,480,3.0,0.0
2513,83.0,156,240,0.0,0.0
2514,79.0,84,150,0.0,0.0
2515,76.0,240,150,0.0,0.0
2516,76.0,240,150,0.0,0.0
2517,76.0,0,150,2.0,0.0
2518,81.0,240,150,0.0,0.0
2519,72.0,0,150,3.0,0.0
2520,71.0,0,150,3.0,0.0
2521,74.0,0,150,2.0,0.0
2522,83.0,324,150,0.0,0.0
2523,69.0,156,480,3.0,0.0
2524,72.0,0,480,2.0,0.0
2525,84.0,156,240,0.0,0.0
2526,81.0,84,150,0.0,0.0
2527,88.0,240,150,0.0,0.0
2528,86.0,240,150,0.0,0.0
2529,69.0,240,150,2.0,0.0
2530,84.0,0,150,0.0,0.0
2531,66.0,0,150,3.0,0.0
2532,67.0,0,150,3.0,0.0
2533,83.0,84,150,0.0,0.0
2534,71.0,0,150,2.0,0.0
2535,83.0,156,60,0.0,0.0
2536,81.0,0,150,0.0,0.0
2537,69.0,240,150,3.0,0.0
2538,72.0,0,150,2.0,0.0
2539,71.0,0,150,3.0,0.0
2540,74.0,240,150,2.0,0.0
2541,79.0,0,150,0.0,0.0
2542,81.0,0,150,0.0,0.0
2543,72.0,564,150,3.0,0.0
2544,76.0,0,150,2.0,0.0
2545,74.0,0,480,0.0,0.0
2546,62.0,240,480,3.0,0.0
2547,71.0,0,480,2.0,0.0
2548,79.0,0,240,0.0,0.0
2549,69.0,360,240,2.0,0.0
2550,78.0,0,240,0.0,0.0
2551,72.0,0,240,1.0,0.0
2552,62.0,0,240,3.0,0.0
2553,55.0,276,360,3.0,0.0
2554,79.0,0,360,0.0,0.0
2555,67.0,0,360,2.0,0.0
2556,67.0,0,360,1.0,0.0
2557,72.0,240,150,3.0,0.0
2558,71.0,240,150,3.0,0.0
2559,69.0,0,150,3.0,0.0
2560,84.0,240,150,0.0,0.0
2561,83.0,0,150,0.0,0.0
2562,67.0,240,150,3.0,0.0
2563,81.0,0,150,0.0,0.0
2564,66.0,240,150,3.0,0.0
2565,64.0,240,150,3.0,0.0
2566,79.0,0,150,0.0,0.0
2567,78.0,480,150,0.0,0.0
2568,66.0,0,150,3.0,0.0
2569,71.0,0,480,0.0,0.0
2570,59.0,240,720,3.0,0.0
2571,67.0,156,480,3.0,0.0
2572,76.0,84,150,0.0,0.0
2573,69.0,0,240,1.0,0.0
2574,66.0,0,240,3.0,0.0
2575,75.0,84,150,0.0,0.0
2576,78.0,156,240,0.0,0.0
2577,64.0,0,480,3.0,0.0
2578,67.0,156,480,1.0,0.0
2579,76.0,84,150,0.0,0.0
2580,81.0,240,150,0.0,0.0
2581,79.0,240,150,0.0,0.0
2582,69.0,0,150,3.0,0.0
2583,77.0,240,150,0.0,0.0
2584,67.0,0,150,3.0,0.0
2585,76.0,240,150,0.0,0.0
2586,65.0,0,150,3.0,0.0
2587,74.0,240,150,0.0,0.0
2588,64.0,0,150,3.0,0.0
2589,72.0,240,150,0.0,0.0
2590,65.0,480,150,3.0,0.0
2591,74.0,0,150,0.0,0.0
2592,64.0,156,480,3.0,0.0
2593,55.0,240,720,3.0,0.0
2594,67.0,0,480,0.0,0.0
2595,72.0,84,150,0.0,0.0
2596,71.0,84,150,0.0,0.0
2597,65.0,0,240,1.0,0.0
2598,62.0,0,240,3.0,0.0
2599,74.0,156,240,0.0,0.0
2600,48.0,0,480,3.0,0.0
2601,60.0,0,480,3.0,0.0
2602,64.0,156,480,1.0,0.0
2603,72.0,84,150,0.0,0.0
2604,72.0,84,150,0.0,0.0
2605,62.0,396,240,1.0,0.0
2606,52.0,0,720,3.0,0.0
2607,64.0,156,480,0.0,0.0
2608,60.0,0,480,3.0,0.0
2609,69.0,84,150,0.0,0.0
2610,62.0,0,240,1.0,0.0
2611,59.0,240,240,3.0,0.0
2612,68.0,84,150,0.0,0.0
2613,57.0,0,480,3.0,0.0
2614,45.0,0,480,3.0,0.0
2615,71.0,156,240,0.0,0.0
2616,60.0,156,480,1.0,0.0
2617,69.0,84,150,0.0,0.0
2618,69.0,480,150,0.0,0.0
2619,59.0,0,480,3.0,0.0
2620,50.0,0,720,3.0,0.0
2621,62.0,156,480,0.0,0.0
2622,67.0,84,150,0.0,0.0
2623,66.0,84,150,0.0,0.0
2624,60.0,396,240,1.0,0.0
2625,57.0,0,240,3.0,0.0
2626,43.0,396,720,3.0,0.0
2627,55.0,0,720,3.0,0.0
2628,59.0,0,720,1.0,0.0
2629,67.0,240,150,0.0,0.0
2630,67.0,84,150,0.0,0.0
2631,55.0,0,720,1.0,0.0
2632,45.0,0,720,3.0,0.0
2633,52.0,396,720,3.0,0.0
2634,61.0,240,150,0.0,0.0
2635,61.0,84,150,0.0,0.0
2636,62.0,0,480,0.0,0.0
2637,38.0,156,480,3.0,0.0
2638,54.0,0,480,1.0,0.0
2639,50.0,84,150,2.0,0.0
2640,50.0,84,150,2.0,0.0
2641,72.0,240,60,0.0,0.0
2642,43.0,38,690,3.0,0.0
2643,71.0,156,240,0.0,0.0
2644,69.0,156,240,0.0,0.0
2645,50.0,84,150,2.0,0.0
2646,71.0,396,240,0.0,0.0
2647,50.0,46,150,2.0,0.0
2648,45.0,38,690,3.0,0.0
2649,72.0,240,720,0.0,0.0
2650,50.0,240,150,2.0,0.0
2651,50.0,46,150,2.0,0.0
2652,71.0,0,60,0.0,0.0
2653,69.0,156,240,0.0,0.0
2654,48.0,38,690,3.0,0.0
2655,68.0,156,240,0.0,0.0
2656,50.0,84,150,2.0,0.0
2657,50.0,46,150,2.0,0.0
2658,69.0,396,240,0.0,0.0
2659,47.0,278,690,3.0,0.0
2660,74.0,156,960,0.0,0.0
2661,50.0,240,150,2.0,0.0
2662,50.0,46,150,2.0,0.0
2663,43.0,38,690,3.0,0.0
2664,50.0,84,150,2.0,0.0
2665,72.0,156,240,0.0,0.0
2666,71.0,240,240,0.0,0.0
2667,50.0,46,150,2.0,0.0
2668,45.0,278,690,3.0,0.0
2669,69.0,156,240,0.0,0.0
2670,50.0,0,150,2.0,0.0
2671,71.0,240,150,0.0,0.0
2672,67.0,46,150,0.0,0.0
2673,50.0,0,150,2.0,0.0
2674,45.0,434,690,3.0,0.0
2675,66.0,156,240,0.0,0.0
2676,67.0,0,150,0.0,0.0
2677,49.0,240,150,2.0,0.0
2678,49.0,0,150,2.0,0.0
2679,64.0,46,150,0.0,0.0
2680,62.0,156,960,0.0,0.0
2681,38.0,278,690,3.0,0.0
2682,50.0,240,150,2.0,0.0
2683,50.0,46,150,2.0,0.0
2684,48.0,38,690,3.0,0.0
2685,64.0,156,240,0.0,0.0
2686,50.0,84,150,2.0,0.0
2687,50.0,46,150,2.0,0.0
2688,66.0,0,240,0.0,0.0
2689,69.0,240,60,0.0,0.0
2690,67.0,156,240,0.0,0.0
2691,47.0,38,690,3.0,0.0
2692,66.0,156,240,0.0,0.0
2693,50.0,84,150,2.0,0.0
2694,50.0,46,150,2.0,0.0
2695,67.0,240,240,0.0,0.0
2696,43.0,38,690,3.0,0.0
2697,62.0,156,240,0.0,0.0
2698,50.0,84,150,2.0,0.0
2699,66.0,156,240,0.0,0.0
2700,50.0,46,150,2.0,0.0
2701,67.0,0,240,0.0,0.0
2702,71.0,240,60,0.0,0.0
2703,69.0,156,240,0.0,0.0
2704,42.0,38,690,3.0,0.0
2705,50.0,84,150,2.0,0.0
2706,68.0,156,240,0.0,0.0
2707,69.0,240,240,0.0,0.0
2708,50.0,46,150,2.0,0.0
2709,38.0,38,690,3.0,0.0
2710,62.0,156,240,0.0,0.0
2711,50.0,84,150,2.0,0.0
2712,67.0,156,240,0.0,0.0
2713,50.0,46,150,2.0,0.0
2714,69.0,0,240,0.0,0.0
2715,72.0,240,60,0.0,0.0
2716,71.0,240,240,0.0,0.0
2717,43.0,38,690,3.0,0.0
2718,69.0,0,240,0.0,0.0
2719,50.0,202,240,2.0,0.0
2720,71.0,240,240,0.0,0.0
2721,55.0,0,240,2.0,0.0
2722,72.0,240,240,0.0,0.0
2723,48.0,38,690,3.0,0.0
2724,52.0,0,240,2.0,0.0
2725,74.0,202,240,0.0,0.0
2726,57.0,0,240,2.0,0.0
2727,76.0,396,240,0.0,0.0
2728,69.0,240,720,0.0,0.0
2729,50.0,4,720,3.0,0.0
2730,62.0,240,150,2.0,0.0
2731,62.0,80,150,2.0,0.0
2732,84.0,0,60,0.0,0.0
2733,55.0,38,690,3.0,0.0
2734,83.0,156,240,0.0,0.0
2735,81.0,156,240,0.0,0.0
2736,62.0,84,150,2.0,0.0
2737,83.0,396,240,0.0,0.0
2738,62.0,46,150,2.0,0.0
2739,57.0,38,690,3.0,0.0
2740,84.0,0,720,0.0,0.0
2741,62.0,240,150,2.0,0.0
2742,62.0,46,150,2.0,0.0
2743,83.0,240,60,0.0,0.0
2744,60.0,38,690,3.0,0.0
2745,81.0,156,240,0.0,0.0
2746,62.0,84,150,2.0,0.0
2747,80.0,156,240,0.0,0.0
2748,81.0,396,240,0.0,0.0
2749,62.0,46,150,2.0,0.0
2750,86.0,156,960,0.0,0.0
2751,59.0,278,690,3.0,0.0
2752,62.0,240,150,2.0,0.0
2753,62.0,46,150,2.0,0.0
2754,55.0,38,690,3.0,0.0
2755,62.0,84,150,2.0,0.0
2756,84.0,156,240,0.0,0.0
2757,83.0,240,240,0.0,0.0
2758,62.0,46,150,2.0,0.0
2759,57.0,278,690,3.0,0.0
2760,81.0,156,240,0.0,0.0
2761,83.0,0,150,0.0,0.0
2762,62.0,240,150,2.0,0.0
2763,62.0,46,150,2.0,0.0
2764,79.0,0,150,0.0,0.0
2765,78.0,156,240,0.0,0.0
2766,57.0,434,690,3.0,0.0
2767,79.0,240,150,0.0,0.0
2768,61.0,0,150,2.0,0.0
2769,61.0,46,150,2.0,0.0
2770,76.0,0,150,0.0,0.0
2771,50.0,278,690,3.0,0.0
2772,74.0,156,960,0.0,0.0
2773,62.0,240,150,2.0,0.0
2774,62.0,46,150,2.0,0.0
2775,60.0,38,690,3.0,0.0
2776,76.0,156,240,0.0,0.0
2777,62.0,84,150,2.0,0.0
2778,62.0,46,150,2.0,0.0
2779,78.0,0,240,0.0,0.0
2780,81.0,240,60,0.0,0.0
2781,79.0,156,240,0.0,0.0
2782,59.0,38,690,3.0,0.0
2783,78.0,156,240,0.0,0.0
2784,62.0,84,150,2.0,0.0
2785,79.0,240,240,0.0,0.0
2786,62.0,46,150,2.0,0.0
2787,74.0,156,240,0.0,0.0
2788,55.0,72,660,3.0,0.0
2789,62.0,84,150,2.0,0.0
2790,78.0,156,240,0.0,0.0
2791,62.0,12,150,2.0,0.0
2792,79.0,240,240,0.0,0.0
2793,83.0,0,60,0.0,0.0
2794,54.0,72,660,3.0,0.0
2795,81.0,156,240,0.0,0.0
2796,62.0,84,150,2.0,0.0
2797,80.0,156,240,0.0,0.0
2798,62.0,12,150,2.0,0.0
2799,81.0,240,240,0.0,0.0
2800,84.0,0,60,0.0,0.0
2801,83.0,156,240,0.0,0.0
2802,55.0,72,660,3.0,0.0
2803,81.0,156,240,0.0,0.0
2804,62.0,84,150,2.0,0.0
2805,62.0,12,150,2.0,0.0
2806,83.0,0,240,0.0,0.0
2807,86.0,240,60,0.0,0.0
2808,48.0,72,660,3.0,0.0
2809,84.0,240,240,0.0,0.0
2810,83.0,0,240,0.0,0.0
2811,52.0,168,240,2.0,0.0
2812,57.0,0,240,2.0,0.0
2813,84.0,480,240,0.0,0.0
2814,88.0,0,480,0.0,0.0
2815,50.0,72,660,3.0,0.0
2816,57.0,0,240,2.0,0.0
2817,54.0,168,240,2.0,0.0
2818,78.0,0,240,0.0,0.0
2819,60.0,480,240,2.0,0.0
2820,55.0,72,660,3.0,0.0
2821,79.0,168,480,0.0,0.0
2822,59.0,0,240,2.0,0.0
2823,62.0,240,240,2.0,0.0
2824,69.0,0,60,0.0,0.0
2825,67.0,240,240,0.0,0.0
2826,66.0,240,240,0.0,0.0
2827,67.0,480,240,0.0,0.0
2828,59.0,0,720,3.0,0.0
2829,62.0,0,720,2.0,0.0
2830,67.0,480,720,1.0,0.0
2831,74.0,240,15,0.0,0.0
2832,74.0,0,15,0.0,0.0
2833,62.0,0,720,2.0,0.0
2834,68.0,480,720,1.0,0.0
2835,58.0,0,720,3.0,0.0
2836,74.0,240,15,0.0,0.0
2837,64.0,0,720,2.0,0.0
2838,74.0,240,480,0.0,0.0
2839,57.0,0,720,3.0,0.0
2840,69.0,240,720,1.0,0.0
2841,73.0,0,240,0.0,0.0
2842,71.0,0,60,0.0,0.0
2843,69.0,240,240,0.0,0.0
2844,68.0,240,240,0.0,0.0
2845,69.0,480,240,0.0,0.0
2846,64.0,0,720,2.0,0.0
2847,72.0,240,480,0.0,0.0
2848,57.0,480,720,3.0,0.0
2849,69.0,0,720,1.0,0.0
2850,72.0,0,240,0.0,0.0
2851,63.0,480,720,2.0,0.0
2852,69.0,0,720,1.0,0.0
2853,54.0,0,720,3.0,0.0
2854,72.0,240,15,0.0,0.0
2855,72.0,0,15,0.0,0.0
2856,67.0,0,720,1.0,0.0
2857,55.0,0,720,3.0,0.0
2858,62.0,0,720,2.0,0.0
2859,72.0,240,60,0.0,0.0
2860,71.0,0,15,0.0,0.0
2861,55.0,72,660,3.0,0.0
2862,69.0,156,240,0.0,0.0
2863,62.0,84,150,2.0,0.0
2864,62.0,12,150,2.0,0.0
2865,71.0,396,240,0.0,0.0
2866,57.0,72,660,3.0,0.0
2867,72.0,240,720,0.0,0.0
2868,62.0,240,150,2.0,0.0
2869,62.0,12,150,2.0,0.0
2870,71.0,0,60,0.0,0.0
2871,60.0,72,660,3.0,0.0
2872,69.0,156,240,0.0,0.0
2873,62.0,84,150,2.0,0.0
2874,68.0,156,240,0.0,0.0
2875,62.0,12,150,2.0,0.0
2876,69.0,396,240,0.0,0.0
2877,74.0,156,960,0.0,0.0
2878,59.0,244,720,3.0,0.0
2879,55.0,240,150,2.0,0.0
2880,55.0,80,150,2.0,0.0
2881,48.0,72,660,3.0,0.0
2882,55.0,84,150,2.0,0.0
2883,75.0,156,240,0.0,0.0
2884,76.0,396,240,0.0,0.0
2885,55.0,12,150,2.0,0.0
2886,67.0,60,480,0.0,0.0
2887,50.0,12,660,3.0,0.0
2888,55.0,84,150,2.0,0.0
2889,55.0,12,150,2.0,0.0
2890,69.0,60,60,0.0,0.0
2891,67.0,36,60,0.0,0.0
2892,66.0,60,60,0.0,0.0
2893,67.0,396,60,0.0,0.0
2894,71.0,156,480,0.0,0.0
2895,50.0,72,660,3.0,0.0
2896,54.0,84,150,2.0,0.0
2897,69.0,396,240,0.0,0.0
2898,54.0,12,150,2.0,0.0
2899,67.0,156,480,0.0,0.0
2900,43.0,72,660,3.0,0.0
2901,55.0,84,150,2.0,0.0
2902,55.0,12,150,2.0,0.0
2903,69.0,240,60,0.0,0.0
2904,67.0,240,240,0.0,0.0
2905,66.0,240,240,0.0,0.0
2906,67.0,396,240,0.0,0.0
2907,67.0,396,720,1.0,0.0
2908,59.0,72,660,3.0,0.0
2909,62.0,84,150,2.0,0.0
2910,74.0,156,15,0.0,0.0
2911,62.0,12,150,2.0,0.0
2912,74.0,0,15,0.0,0.0
2913,68.0,0,720,1.0,0.0
2914,58.0,72,660,3.0,0.0
2915,62.0,84,150,2.0,0.0
2916,62.0,12,150,2.0,0.0
2917,69.0,0,720,1.0,0.0
2918,74.0,396,15,0.0,0.0
2919,57.0,78,1350,3.0,0.0
2920,64.0,84,150,2.0,0.0
2921,73.0,156,240,0.0,0.0
2922,64.0,84,150,2.0,0.0
2923,71.0,0,60,0.0,0.0
2924,64.0,84,150,2.0,0.0
2925,69.0,156,240,0.0,0.0
2926,64.0,84,150,2.0,0.0
2927,68.0,156,240,0.0,0.0
2928,69.0,396,240,0.0,0.0
2929,64.0,6,150,2.0,0.0
2930,72.0,156,480,0.0,0.0
2931,69.0,0,720,1.0,0.0
2932,57.0,72,660,3.0,0.0
2933,64.0,84,150,2.0,0.0
2934,64.0,12,150,2.0,0.0
2935,69.0,396,720,1.0,0.0
2936,54.0,72,660,3.0,0.0
2937,72.0,396,15,0.0,0.0
2938,63.0,84,150,2.0,0.0
2939,72.0,156,15,0.0,0.0
2940,63.0,12,150,2.0,0.0
2941,55.0,44,1410,3.0,0.0
2942,72.0,156,480,0.0,0.0
2943,67.0,0,720,1.0,0.0
2944,62.0,84,150,2.0,0.0
2945,71.0,156,240,0.0,0.0
2946,62.0,84,150,2.0,0.0
2947,72.0,0,60,0.0,0.0
2948,71.0,156,240,0.0,0.0
2949,62.0,84,150,2.0,0.0
2950,69.0,156,240,0.0,0.0
2951,62.0,84,150,2.0,0.0
2952,71.0,396,240,0.0,0.0
2953,62.0,40,150,2.0,0.0
2954,72.0,0,720,0.0,0.0
2955,57.0,72,660,3.0,0.0
2956,62.0,240,150,2.0,0.0
2957,62.0,12,150,2.0,0.0
2958,71.0,240,60,0.0,0.0
2959,69.0,156,240,0.0,0.0
2960,60.0,72,660,3.0,0.0
2961,68.0,156,240,0.0,0.0
2962,62.0,84,150,2.0,0.0
2963,69.0,396,240,0.0,0.0
2964,62.0,12,150,2.0,0.0
2965,74.0,240,960,0.0,0.0
2966,59.0,312,660,3.0,0.0
2967,55.0,240,150,2.0,0.0
2968,55.0,12,150,2.0,0.0
2969,48.0,450,750,3.0,0.0
2970,75.0,0,240,0.0,0.0
2971,55.0,240,240,2.0,0.0
2972,76.0,30,240,0.0,0.0
2973,60.0,0,240,2.0,0.0
2974,50.0,330,1470,3.0,0.0
2975,67.0,60,480,0.0,0.0
2976,55.0,0,240,2.0,0.0
2977,59.0,0,240,2.0,0.0
2978,69.0,60,60,0.0,0.0
2979,67.0,60,60,0.0,0.0
2980,66.0,60,60,0.0,0.0
2981,67.0,480,60,0.0,0.0
2982,71.0,0,480,0.0,0.0
2983,54.0,240,240,2.0,0.0
2984,69.0,0,240,0.0,0.0
2985,60.0,30,240,2.0,0.0
2986,55.0,0,360,3.0,0.0
2987,67.0,0,360,0.0,0.0
2988,59.0,276,360,2.0,0.0
2989,62.0,240,150,0.0,0.0
2990,62.0,240,150,0.0,0.0
2991,59.0,240,150,3.0,0.0
2992,62.0,0,150,2.0,0.0
2993,67.0,0,150,0.0,0.0
2994,69.0,0,150,0.0,0.0
2995,57.0,324,150,3.0,0.0
2996,60.0,0,150,2.0,0.0
2997,59.0,156,480,2.0,0.0
2998,71.0,156,240,0.0,0.0
2999,55.0,0,480,3.0,0.0
3000,67.0,84,150,0.0,0.0
3001,64.0,240,150,0.0,0.0
3002,64.0,240,150,0.0,0.0
3003,69.0,240,150,0.0,0.0
3004,57.0,0,150,3.0,0.0
3005,60.0,0,150,2.0,0.0
3006,59.0,324,150,2.0,0.0
3007,71.0,0,150,0.0,0.0
3008,55.0,0,150,3.0,0.0
3009,54.0,240,480,3.0,0.0
3010,72.0,156,240,0.0,0.0
3011,57.0,0,480,2.0,0.0
3012,69.0,84,150,0.0,0.0
3013,50.0,240,15,3.0,0.0
3014,74.0,0,150,0.0,0.0
3015,55.0,156,240,3.0,0.0
3016,71.0,84,150,1.0,0.0
3017,72.0,84,150,0.0,0.0
3018,69.0,0,150,1.0,0.0
3019,57.0,240,240,3.0,0.0
3020,67.0,156,240,1.0,0.0
3021,71.0,0,240,0.0,0.0
3022,59.0,240,480,3.0,0.0
3023,62.0,84,150,0.0,0.0
3024,50.0,240,15,3.0,0.0
3025,57.0,156,240,3.0,0.0
3026,72.0,84,150,0.0,0.0
3027,69.0,0,150,1.0,0.0
3028,59.0,240,240,3.0,0.0
3029,71.0,0,150,0.0,0.0
3030,67.0,84,150,1.0,0.0
3031,66.0,0,240,1.0,0.0
3032,60.0,156,480,3.0,0.0
3033,69.0,156,240,0.0,0.0
3034,62.0,84,150,0.0,0.0
3035,62.0,240,150,0.0,0.0
3036,62.0,240,150,0.0,0.0
3037,59.0,0,150,3.0,0.0
3038,62.0,0,150,2.0,0.0
3039,67.0,240,150,0.0,0.0
3040,69.0,0,150,0.0,0.0
3041,57.0,324,150,3.0,0.0
3042,60.0,0,150,2.0,0.0
3043,55.0,156,480,3.0,0.0
3044,71.0,156,240,0.0,0.0
3045,59.0,0,480,2.0,0.0
3046,67.0,84,150,0.0,0.0
3047,64.0,240,150,0.0,0.0
3048,64.0,240,150,0.0,0.0
3049,60.0,240,150,3.0,0.0
3050,64.0,0,150,2.0,0.0
3051,69.0,0,150,0.0,0.0
3052,62.0,0,150,2.0,0.0
3053,71.0,324,150,0.0,0.0
3054,59.0,0,150,3.0,0.0
3055,57.0,0,480,3.0,0.0
3056,60.0,156,480,2.0,0.0
3057,72.0,156,240,0.0,0.0
3058,69.0,84,150,0.0,0.0
3059,76.0,240,150,0.0,0.0
3060,74.0,240,150,0.0,0.0
3061,54.0,240,150,3.0,0.0
3062,72.0,0,150,0.0,0.0
3063,57.0,0,150,2.0,0.0
3064,55.0,0,150,3.0,0.0
3065,59.0,0,150,2.0,0.0
3066,71.0,324,150,0.0,0.0
3067,69.0,0,240,0.0,0.0
3068,57.0,156,240,3.0,0.0
3069,60.0,0,240,2.0,0.0
3070,62.0,240,150,2.0,0.0
3071,67.0,0,150,0.0,0.0
3072,59.0,0,150,3.0,0.0
3073,64.0,240,150,3.0,0.0
3074,62.0,240,150,3.0,0.0
3075,60.0,0,150,3.0,0.0
3076,76.0,240,150,0.0,0.0
3077,74.0,0,150,1.0,0.0
3078,59.0,0,150,3.0,0.0
3079,79.0,324,150,0.0,0.0
3080,78.0,0,240,0.0,0.0
3081,57.0,156,240,3.0,0.0
3082,72.0,0,240,1.0,0.0
3083,79.0,0,150,0.0,0.0
3084,71.0,240,150,1.0,0.0
3085,55.0,0,150,3.0,0.0
3086,76.0,240,150,0.0,0.0
3087,74.0,240,150,0.0,0.0
3088,57.0,240,150,2.0,0.0
3089,54.0,0,150,3.0,0.0
3090,72.0,0,150,0.0,0.0
3091,71.0,0,150,0.0,0.0
3092,55.0,324,150,3.0,0.0
3093,59.0,0,150,2.0,0.0
3094,60.0,156,240,2.0,0.0
3095,69.0,0,240,0.0,0.0
3096,57.0,0,240,3.0,0.0
3097,62.0,240,150,2.0,0.0
3098,59.0,0,150,3.0,0.0
3099,67.0,0,150,0.0,0.0
3100,64.0,240,150,3.0,0.0
3101,62.0,240,150,3.0,0.0
3102,60.0,240,150,3.0,0.0
3103,76.0,0,150,0.0,0.0
3104,79.0,0,150,0.0,0.0
3105,59.0,0,150,3.0,0.0
3106,74.0,324,150,1.0,0.0
3107,78.0,156,240,0.0,0.0
3108,57.0,0,240,3.0,0.0
3109,72.0,0,240,1.0,0.0
3110,55.0,0,150,3.0,0.0
3111,71.0,0,150,1.0,0.0
3112,79.0,324,150,0.0,0.0
3113,62.0,240,240,3.0,0.0
3114,80.0,156,240,0.0,0.0
3115,77.0,0,240,1.0,0.0
3116,78.0,0,150,1.0,0.0
3117,81.0,240,150,0.0,0.0
3118,62.0,324,150,3.0,0.0
3119,78.0,0,240,1.0,0.0
3120,81.0,156,240,0.0,0.0
3121,79.0,0,150,1.0,0.0
3122,83.0,240,150,0.0,0.0
3123,62.0,324,150,3.0,0.0
3124,83.0,156,240,0.0,0.0
3125,80.0,0,240,1.0,0.0
3126,81.0,240,150,1.0,0.0
3127,84.0,0,150,0.0,0.0
3128,62.0,1276,150,3.0,0.0
3129,72.0,0,1440,1.0,0.0
3130,81.0,8,1200,1.0,0.0
3131,54.0,1596,1920,3.0,0.0
3132,62.0,0,1920,3.0,0.0
3133,50.0,0,1920,3.0,0.0
3134,78.0,8,1440,1.0,0.0
3135,84.0,232,1200,0.0,0.0
3136,57.0,0,1920,3.0,0.0
3137,81.0,480,240,0.0,0.0
3138,78.0,0,480,0.0,0.0
3139,38.0,240,150,3.0,0.0
3140,38.0,240,150,3.0,0.0
3141,45.0,240,150,3.0,0.0
3142,47.0,324,150,3.0,0.0
3143,54.0,240,240,1.0,0.0
3144,48.0,0,720,3.0,0.0
3145,57.0,240,240,1.0,0.0
3146,54.0,0,240,1.0,0.0
3147,55.0,240,240,1.0,0.0
3148,47.0,0,720,3.0,0.0
3149,62.0,240,15,0.0,0.0
3150,59.0,240,240,1.0,0.0
3151,55.0,240,240,1.0,0.0
3152,66.0,0,720,0.0,0.0
3153,45.0,240,720,3.0,0.0
3154,60.0,240,240,1.0,0.0
3155,62.0,240,240,1.0,0.0
3156,60.0,0,240,1.0,0.0
3157,67.0,0,720,0.0,0.0
3158,43.0,0,720,3.0,0.0
3159,59.0,240,240,1.0,0.0
3160,62.0,240,240,1.0,0.0
3161,59.0,480,240,1.0,0.0
3162,48.0,0,1440,3.0,0.0
3163,64.0,240,240,0.0,0.0
3164,68.0,240,240,0.0,0.0
3165,69.0,240,240,0.0,0.0
3166,60.0,0,720,3.0,0.0
3167,72.0,240,240,0.0,0.0
3168,69.0,240,240,0.0,0.0
3169,59.0,0,720,3.0,0.0
3170,50.0,0,720,3.0,0.0
3171,67.0,240,240,0.0,0.0
3172,62.0,240,720,1.0,0.0
3173,71.0,240,240,0.0,0.0
3174,67.0,0,240,0.0,0.0
3175,60.0,0,720,1.0,0.0
3176,50.0,480,720,3.0,0.0
3177,57.0,0,720,3.0,0.0
3178,66.0,240,240,0.0,0.0
3179,69.0,240,240,0.0,0.0
3180,66.0,0,240,0.0,0.0
3181,67.0,0,480,0.0,0.0
3182,59.0,152,480,1.0,0.0
3183,43.0,52,630,3.0,0.0
3184,50.0,36,450,2.0,0.0
3185,62.0,0,240,0.0,0.0
3186,55.0,240,240,2.0,0.0
3187,43.0,52,630,3.0,0.0
3188,62.0,240,240,0.0,0.0
3189,69.0,152,240,0.0,0.0
3190,50.0,36,450,2.0,0.0
3191,55.0,360,240,2.0,0.0
3192,71.0,0,240,0.0,0.0
3193,72.0,272,360,0.0,0.0
3194,43.0,52,630,3.0,0.0
3195,50.0,36,450,2.0,0.0
3196,54.0,0,240,2.0,0.0
3197,74.0,240,240,0.0,0.0
3198,74.0,240,240,0.0,0.0
3199,43.0,52,630,3.0,0.0
3200,50.0,36,450,2.0,0.0
3201,81.0,152,240,0.0,0.0
3202,54.0,0,240,2.0,0.0
3203,83.0,360,240,0.0,0.0
3204,43.0,52,630,3.0,0.0
3205,84.0,272,360,0.0,0.0
3206,50.0,36,450,2.0,0.0
3207,62.0,240,240,0.0,0.0
3208,54.0,0,240,2.0,0.0
3209,43.0,52,630,3.0,0.0
3210,62.0,240,240,0.0,0.0
3211,50.0,36,450,2.0,0.0
3212,74.0,152,240,0.0,0.0
3213,54.0,360,240,2.0,0.0
3214,72.0,0,240,0.0,0.0
3215,71.0,272,360,0.0,0.0
3216,43.0,52,630,3.0,0.0
3217,50.0,36,450,2.0,0.0
3218,55.0,240,240,2.0,0.0
3219,74.0,0,240,0.0,0.0
3220,74.0,240,240,0.0,0.0
3221,43.0,52,630,3.0,0.0
3222,50.0,36,450,2.0,0.0
3223,86.0,152,240,0.0,0.0
3224,84.0,360,240,0.0,0.0
3225,54.0,0,240,2.0,0.0
3226,43.0,52,630,3.0,0.0
3227,83.0,272,360,0.0,0.0
3228,50.0,36,450,2.0,0.0
3229,55.0,0,240,2.0,0.0
3230,43.0,52,630,3.0,0.0
3231,62.0,240,15,0.0,0.0
3232,50.0,36,450,2.0,0.0
3233,69.0,152,240,0.0,0.0
3234,71.0,0,240,0.0,0.0
3235,55.0,360,240,2.0,0.0
3236,72.0,272,360,0.0,0.0
3237,43.0,52,630,3.0,0.0
3238,50.0,36,450,2.0,0.0
3239,54.0,0,240,2.0,0.0
3240,74.0,240,240,0.0,0.0
3241,43.0,52,630,3.0,0.0
3242,74.0,240,240,0.0,0.0
3243,50.0,36,450,2.0,0.0
3244,81.0,152,240,0.0,0.0
3245,83.0,0,240,0.0,0.0
3246,54.0,360,240,2.0,0.0
3247,84.0,272,360,0.0,0.0
3248,43.0,52,630,3.0,0.0
3249,50.0,36,450,2.0,0.0
3250,54.0,0,240,2.0,0.0
3251,62.0,240,240,0.0,0.0
3252,43.0,52,630,3.0,0.0
3253,62.0,240,240,0.0,0.0
3254,50.0,36,450,2.0,0.0
3255,74.0,152,240,0.0,0.0
3256,72.0,0,240,0.0,0.0
3257,54.0,360,240,2.0,0.0
3258,71.0,272,360,0.0,0.0
3259,43.0,52,630,3.0,0.0
3260,50.0,36,450,2.0,0.0
3261,55.0,0,240,2.0,0.0
3262,43.0,52,630,3.0,0.0
3263,74.0,240,15,0.0,0.0
3264,50.0,36,450,2.0,0.0
3265,86.0,152,240,0.0,0.0
3266,84.0,0,240,0.0,0.0
3267,54.0,360,240,2.0,0.0
3268,83.0,272,360,0.0,0.0
3269,43.0,52,630,3.0,0.0
3270,50.0,36,450,2.0,0.0
3271,62.0,240,240,0.0,0.0
3272,55.0,0,240,2.0,0.0
3273,43.0,52,630,3.0,0.0
3274,62.0,240,240,0.0,0.0
3275,50.0,36,450,2.0,0.0
3276,74.0,152,240,0.0,0.0
3277,54.0,0,240,2.0,0.0
3278,72.0,360,240,0.0,0.0
3279,43.0,52,630,3.0,0.0
3280,71.0,272,360,0.0,0.0
3281,50.0,36,450,2.0,0.0
3282,55.0,0,240,2.0,0.0
3283,74.0,240,240,0.0,0.0
3284,43.0,52,630,3.0,0.0
3285,74.0,240,240,0.0,0.0
3286,86.0,152,240,0.0,0.0
3287,50.0,36,450,2.0,0.0
3288,54.0,0,240,2.0,0.0
3289,84.0,360,240,0.0,0.0
3290,83.0,272,360,0.0,0.0
3291,43.0,52,630,3.0,0.0
3292,50.0,36,450,2.0,0.0
3293,55.0,360,240,2.0,0.0
3294,43.0,52,630,3.0,0.0
3295,83.0,0,360,0.0,0.0
3296,79.0,0,360,0.0,0.0
3297,71.0,0,360,0.0,0.0
3298,74.0,272,360,0.0,0.0
3299,50.0,36,450,2.0,0.0
3300,55.0,360,240,2.0,0.0
3301,43.0,0,480,3.0,0.0
3302,67.0,120,360,0.0,0.0
3303,71.0,0,360,0.0,0.0
3304,74.0,0,360,0.0,0.0
3305,79.0,0,360,0.0,0.0
