,note,step,duration,channel,velocity
0,63.0,0,180,0.0,44.0
1,51.0,0,185,2.0,42.0
2,63.0,0,240,0.0,47.0
3,51.0,240,240,2.0,45.0
4,68.0,240,156,0.0,46.0
5,56.0,0,156,2.0,44.0
6,44.0,0,630,3.0,45.0
7,68.0,240,156,0.0,44.0
8,56.0,0,156,2.0,42.0
9,60.0,0,720,1.0,47.0
10,56.0,0,120,2.0,47.0
11,68.0,240,120,0.0,47.0
12,55.0,120,0,2.0,46.0
13,67.0,0,0,0.0,46.0
14,65.0,180,60,0.0,45.0
15,53.0,0,60,2.0,45.0
16,51.0,0,656,2.0,47.0
17,67.0,60,180,0.0,45.0
18,46.0,0,660,3.0,47.0
19,55.0,0,180,2.0,45.0
20,63.0,0,660,1.0,47.0
21,51.0,0,60,2.0,44.0
22,63.0,180,60,0.0,44.0
23,61.0,0,720,1.0,47.0
24,56.0,60,480,2.0,44.0
25,68.0,0,480,0.0,46.0
26,48.0,240,240,3.0,49.0
27,63.0,240,0,1.0,51.0
28,70.0,0,240,0.0,51.0
29,58.0,0,240,1.0,51.0
30,43.0,0,240,3.0,52.0
31,51.0,0,240,2.0,50.0
32,63.0,0,0,1.0,54.0
33,73.0,240,180,0.0,57.0
34,68.0,0,240,1.0,54.0
35,60.0,0,240,1.0,54.0
36,72.0,180,60,0.0,49.0
37,44.0,0,240,3.0,57.0
38,51.0,60,0,2.0,45.0
39,39.0,0,120,3.0,48.0
40,67.0,0,120,1.0,45.0
41,58.0,0,120,1.0,45.0
42,70.0,0,123,0.0,44.0
43,63.0,0,123,1.0,45.0
44,72.0,200,40,0.0,42.0
45,70.0,40,60,0.0,45.0
46,69.0,60,60,0.0,44.0
47,70.0,60,60,0.0,43.0
48,72.0,60,60,0.0,42.0
49,53.0,0,240,3.0,45.0
50,65.0,240,240,3.0,48.0
51,68.0,60,480,1.0,45.0
52,73.0,0,480,0.0,45.0
53,68.0,240,240,1.0,51.0
54,72.0,0,240,0.0,51.0
55,63.0,0,240,3.0,51.0
56,62.0,0,240,3.0,55.0
57,77.0,0,240,0.0,54.0
58,70.0,0,240,1.0,54.0
59,68.0,240,240,1.0,54.0
60,61.0,240,240,3.0,58.0
61,70.0,0,240,0.0,57.0
62,67.0,0,240,1.0,57.0
63,60.0,240,240,3.0,61.0
64,75.0,0,240,0.0,60.0
65,68.0,0,240,1.0,60.0
66,53.0,240,240,3.0,48.0
67,68.0,0,240,0.0,49.0
68,65.0,0,240,1.0,47.0
69,55.0,240,240,3.0,50.0
70,73.0,0,240,0.0,52.0
71,64.0,0,240,1.0,50.0
72,70.0,0,240,1.0,50.0
73,68.0,0,240,1.0,52.0
74,63.0,0,240,1.0,52.0
75,56.0,240,240,3.0,52.0
76,72.0,0,240,0.0,54.0
77,66.0,240,240,1.0,56.0
78,69.0,0,240,0.0,56.0
79,70.0,0,120,0.0,47.0
80,67.0,240,120,1.0,47.0
81,63.0,0,360,1.0,56.0
82,51.0,0,360,3.0,58.0
83,63.0,0,155,0.0,40.0
84,51.0,240,170,2.0,42.0
85,63.0,0,48,0.0,41.0
86,51.0,180,48,2.0,43.0
87,63.0,0,120,0.0,44.0
88,51.0,60,120,2.0,46.0
89,68.0,120,78,0.0,43.0
90,56.0,0,78,2.0,45.0
91,56.0,0,78,2.0,44.0
92,68.0,120,78,0.0,42.0
93,56.0,0,78,2.0,43.0
94,68.0,120,78,0.0,41.0
95,56.0,120,78,2.0,42.0
96,68.0,0,78,0.0,41.0
97,44.0,0,660,3.0,46.0
98,68.0,120,78,0.0,40.0
99,56.0,0,78,2.0,42.0
100,60.0,0,680,1.0,44.0
101,56.0,120,120,2.0,47.0
102,68.0,0,120,0.0,45.0
103,55.0,120,0,2.0,46.0
104,67.0,0,120,0.0,45.0
105,67.0,0,180,0.0,44.0
106,65.0,180,60,0.0,43.0
107,53.0,0,60,2.0,45.0
108,55.0,0,123,2.0,44.0
109,51.0,0,603,2.0,47.0
110,61.0,0,603,1.0,45.0
111,63.0,0,603,1.0,45.0
112,46.0,0,607,3.0,47.0
113,67.0,60,180,0.0,43.0
114,63.0,180,60,0.0,44.0
115,51.0,0,60,2.0,47.0
116,68.0,60,480,0.0,45.0
117,63.0,0,0,1.0,51.0
118,56.0,0,480,2.0,46.0
119,48.0,0,240,3.0,47.0
120,43.0,0,240,3.0,51.0
121,51.0,0,0,2.0,56.0
122,58.0,240,240,1.0,51.0
123,70.0,0,240,0.0,53.0
124,73.0,240,180,0.0,58.0
125,72.0,180,60,0.0,48.0
126,68.0,0,240,1.0,56.0
127,63.0,0,240,1.0,56.0
128,44.0,0,240,3.0,56.0
129,60.0,0,240,1.0,56.0
130,63.0,0,123,1.0,47.0
131,58.0,0,123,1.0,47.0
132,70.0,0,123,0.0,45.0
133,39.0,60,123,3.0,46.0
134,51.0,0,123,2.0,47.0
135,67.0,0,127,1.0,47.0
136,72.0,200,40,0.0,40.0
137,70.0,40,60,0.0,43.0
138,69.0,60,60,0.0,42.0
139,70.0,60,60,0.0,41.0
140,72.0,60,60,0.0,40.0
141,53.0,0,240,3.0,44.0
142,65.0,240,240,3.0,47.0
143,73.0,60,480,0.0,44.0
144,68.0,240,0,1.0,50.0
145,63.0,0,240,3.0,50.0
146,68.0,0,0,1.0,54.0
147,72.0,0,240,0.0,50.0
148,62.0,0,240,3.0,53.0
149,70.0,240,240,1.0,54.0
150,77.0,0,240,0.0,54.0
151,61.0,240,240,3.0,56.0
152,67.0,0,240,1.0,57.0
153,70.0,0,240,0.0,57.0
154,68.0,0,175,1.0,60.0
155,75.0,0,175,0.0,60.0
156,60.0,240,240,3.0,59.0
157,70.0,200,40,0.0,53.0
158,68.0,40,60,0.0,55.0
159,67.0,60,60,0.0,53.0
160,68.0,60,60,0.0,50.0
161,70.0,60,60,0.0,48.0
162,63.0,0,240,1.0,50.0
163,51.0,0,240,3.0,52.0
164,72.0,0,240,0.0,50.0
165,68.0,60,240,1.0,50.0
166,39.0,0,240,3.0,49.0
167,61.0,240,240,1.0,44.0
168,67.0,0,240,1.0,44.0
169,70.0,0,240,0.0,44.0
170,44.0,0,120,3.0,46.0
171,68.0,0,240,0.0,39.0
172,60.0,240,240,1.0,39.0
173,32.0,240,120,3.0,42.0
174,72.0,0,240,0.0,57.0
175,69.0,240,240,1.0,57.0
176,65.0,240,720,3.0,61.0
177,67.0,240,240,1.0,54.0
178,70.0,0,240,0.0,54.0
179,69.0,0,240,1.0,52.0
180,72.0,0,240,0.0,52.0
181,63.0,240,240,3.0,54.0
182,63.0,0,120,3.0,52.0
183,61.0,120,120,3.0,51.0
184,70.0,240,240,1.0,49.0
185,73.0,0,240,0.0,49.0
186,60.0,0,120,3.0,49.0
187,77.0,0,192,0.0,46.0
188,73.0,120,192,1.0,46.0
189,58.0,120,105,3.0,48.0
190,70.0,0,240,0.0,53.0
191,67.0,240,240,1.0,53.0
192,65.0,0,240,1.0,51.0
193,68.0,240,240,0.0,51.0
194,63.0,120,720,3.0,57.0
195,61.0,0,240,3.0,49.0
196,67.0,240,240,1.0,49.0
197,70.0,0,240,0.0,49.0
198,61.0,240,120,3.0,46.0
199,72.0,0,240,0.0,47.0
200,68.0,0,240,1.0,47.0
201,60.0,120,120,3.0,45.0
202,58.0,120,120,3.0,44.0
203,75.0,0,192,0.0,44.0
204,72.0,0,192,1.0,44.0
205,56.0,120,96,3.0,42.0
206,60.0,0,240,2.0,42.0
207,75.0,0,480,0.0,46.0
208,63.0,120,480,1.0,46.0
209,59.0,240,240,2.0,43.0
210,56.0,240,480,3.0,40.0
211,62.0,0,240,1.0,45.0
212,74.0,0,240,0.0,45.0
213,76.0,0,240,0.0,47.0
214,61.0,0,240,2.0,44.0
215,58.0,240,240,2.0,44.0
216,55.0,0,240,3.0,44.0
217,64.0,0,240,1.0,47.0
218,56.0,0,240,3.0,47.0
219,60.0,0,240,2.0,45.0
220,65.0,0,240,1.0,48.0
221,77.0,240,240,0.0,48.0
222,79.0,0,240,0.0,49.0
223,67.0,0,240,1.0,49.0
224,60.0,0,240,2.0,47.0
225,52.0,240,240,3.0,47.0
226,53.0,0,120,3.0,49.0
227,80.0,0,180,0.0,51.0
228,60.0,0,240,2.0,48.0
229,77.0,60,60,0.0,52.0
230,56.0,120,120,3.0,49.0
231,68.0,240,240,1.0,51.0
232,75.0,0,480,0.0,52.0
233,58.0,60,480,2.0,49.0
234,46.0,0,480,3.0,50.0
235,70.0,240,240,1.0,54.0
236,74.0,0,35,0.0,47.0
237,75.0,20,32,0.0,48.0
238,74.0,20,37,0.0,49.0
239,75.0,20,40,0.0,50.0
240,74.0,30,40,0.0,51.0
241,75.0,30,40,0.0,52.0
242,74.0,30,45,0.0,53.0
243,72.0,30,40,0.0,55.0
244,47.0,0,240,3.0,51.0
245,59.0,240,240,2.0,52.0
246,65.0,0,240,1.0,47.0
247,68.0,0,240,1.0,47.0
248,74.0,30,32,0.0,56.0
249,67.0,0,240,1.0,54.0
250,48.0,0,240,3.0,53.0
251,63.0,30,240,1.0,54.0
252,60.0,0,240,2.0,53.0
253,56.0,0,240,2.0,54.0
254,72.0,0,0,1.0,57.0
255,75.0,0,480,0.0,58.0
256,44.0,240,240,3.0,54.0
257,79.0,0,180,0.0,56.0
258,77.0,180,60,0.0,55.0
259,57.0,240,240,2.0,55.0
260,65.0,0,240,1.0,57.0
261,45.0,0,240,3.0,56.0
262,58.0,0,480,2.0,57.0
263,75.0,60,480,0.0,54.0
264,67.0,0,480,1.0,59.0
265,70.0,240,240,1.0,61.0
266,46.0,0,480,3.0,58.0
267,74.0,0,35,0.0,50.0
268,75.0,20,32,0.0,51.0
269,74.0,20,37,0.0,52.0
270,75.0,20,40,0.0,53.0
271,74.0,30,40,0.0,54.0
272,75.0,30,40,0.0,56.0
273,74.0,30,45,0.0,57.0
274,72.0,30,40,0.0,58.0
275,46.0,240,240,2.0,59.0
276,65.0,0,240,1.0,55.0
277,68.0,0,240,1.0,55.0
278,34.0,0,240,3.0,61.0
279,74.0,30,32,0.0,60.0
280,39.0,0,156,3.0,63.0
281,67.0,30,156,1.0,61.0
282,51.0,0,156,2.0,60.0
283,75.0,0,156,0.0,61.0
284,63.0,0,156,1.0,61.0
285,51.0,240,156,2.0,62.0
286,75.0,0,156,0.0,63.0
287,41.0,0,156,3.0,65.0
288,68.0,0,156,1.0,64.0
289,62.0,0,156,1.0,64.0
290,51.0,0,156,2.0,63.0
291,43.0,0,156,3.0,67.0
292,61.0,0,156,1.0,63.0
293,70.0,240,156,1.0,63.0
294,75.0,0,156,0.0,66.0
295,51.0,240,120,2.0,43.0
296,63.0,0,120,0.0,43.0
297,68.0,120,78,0.0,43.0
298,56.0,0,78,2.0,41.0
299,56.0,120,78,2.0,41.0
300,68.0,0,78,0.0,42.0
301,68.0,0,78,0.0,41.0
302,56.0,120,78,2.0,40.0
303,56.0,0,78,2.0,40.0
304,68.0,120,78,0.0,40.0
305,60.0,0,675,1.0,43.0
306,68.0,0,78,0.0,40.0
307,56.0,120,78,2.0,40.0
308,44.0,0,680,3.0,43.0
309,68.0,0,120,0.0,45.0
310,56.0,0,120,2.0,47.0
311,55.0,0,120,2.0,47.0
312,67.0,120,120,0.0,45.0
313,55.0,120,180,2.0,46.0
314,67.0,0,180,0.0,45.0
315,65.0,0,60,0.0,44.0
316,53.0,180,60,2.0,45.0
317,46.0,120,648,3.0,47.0
318,61.0,0,655,1.0,45.0
319,51.0,0,656,2.0,47.0
320,63.0,0,660,1.0,45.0
321,55.0,60,180,2.0,45.0
322,67.0,0,180,0.0,44.0
323,63.0,0,60,0.0,44.0
324,51.0,180,60,2.0,44.0
325,68.0,60,480,0.0,46.0
326,63.0,0,240,1.0,48.0
327,48.0,240,240,3.0,48.0
328,56.0,0,480,2.0,44.0
329,51.0,0,240,2.0,51.0
330,43.0,240,240,3.0,51.0
331,63.0,240,0,1.0,55.0
332,70.0,0,240,0.0,54.0
333,58.0,0,240,1.0,52.0
334,73.0,0,180,0.0,58.0
335,68.0,0,240,1.0,55.0
336,63.0,0,0,1.0,46.0
337,51.0,0,240,2.0,56.0
338,44.0,0,240,3.0,54.0
339,72.0,180,60,0.0,49.0
340,60.0,0,240,1.0,55.0
341,70.0,0,123,0.0,45.0
342,67.0,0,123,1.0,46.0
343,58.0,60,127,1.0,46.0
344,39.0,0,127,3.0,46.0
345,51.0,0,180,2.0,46.0
346,72.0,200,40,0.0,43.0
347,70.0,40,60,0.0,45.0
348,69.0,60,60,0.0,44.0
349,70.0,60,60,0.0,42.0
350,72.0,60,60,0.0,40.0
351,41.0,60,464,3.0,51.0
352,56.0,0,240,2.0,49.0
353,53.0,240,240,3.0,49.0
354,73.0,0,480,0.0,46.0
355,61.0,0,480,1.0,46.0
356,56.0,0,240,2.0,50.0
357,72.0,240,240,0.0,52.0
358,60.0,0,240,1.0,52.0
359,51.0,0,240,3.0,50.0
360,77.0,240,240,0.0,55.0
361,56.0,0,240,2.0,52.0
362,50.0,0,240,3.0,52.0
363,65.0,0,240,1.0,55.0
364,70.0,0,180,0.0,58.0
365,58.0,0,180,1.0,58.0
366,49.0,240,240,3.0,54.0
367,55.0,0,240,2.0,54.0
368,56.0,0,180,2.0,56.0
369,63.0,0,180,1.0,60.0
370,75.0,0,180,0.0,60.0
371,48.0,240,180,3.0,56.0
372,70.0,200,40,0.0,53.0
373,68.0,40,60,0.0,54.0
374,67.0,60,60,0.0,53.0
375,68.0,60,60,0.0,52.0
376,70.0,60,60,0.0,51.0
377,63.0,60,240,1.0,50.0
378,68.0,0,240,1.0,50.0
379,51.0,0,240,3.0,51.0
380,72.0,0,240,0.0,50.0
381,70.0,0,240,0.0,45.0
382,39.0,0,240,3.0,48.0
383,67.0,240,240,1.0,45.0
384,61.0,0,240,1.0,45.0
385,44.0,0,120,3.0,45.0
386,60.0,0,240,1.0,41.0
387,68.0,240,240,0.0,41.0
388,32.0,240,120,3.0,41.0
389,51.0,960,300,0.0,46.0
390,48.0,60,60,0.0,41.0
391,51.0,60,60,0.0,43.0
392,56.0,60,60,0.0,45.0
393,60.0,60,240,0.0,52.0
394,44.0,0,720,2.0,42.0
395,39.0,0,720,2.0,42.0
396,56.0,240,240,0.0,40.0
397,32.0,240,720,3.0,42.0
398,55.0,0,60,0.0,43.0
399,61.0,60,60,0.0,45.0
400,63.0,60,60,0.0,47.0
401,67.0,60,60,0.0,49.0
402,73.0,60,240,0.0,56.0
403,46.0,240,720,2.0,44.0
404,34.0,0,720,3.0,44.0
405,67.0,240,240,0.0,47.0
406,39.0,0,0,2.0,46.0
407,68.0,0,60,0.0,50.0
408,51.0,60,60,0.0,53.0
409,56.0,60,60,0.0,55.0
410,60.0,60,60,0.0,58.0
411,63.0,240,0,0.0,61.0
412,48.0,240,480,2.0,46.0
413,36.0,0,480,3.0,46.0
414,58.0,0,240,1.0,61.0
415,43.0,0,240,3.0,52.0
416,51.0,0,0,2.0,60.0
417,61.0,0,120,1.0,61.0
418,51.0,120,0,2.0,49.0
419,44.0,0,240,3.0,60.0
420,56.0,0,240,1.0,61.0
421,63.0,240,240,0.0,61.0
422,60.0,120,120,1.0,55.0
423,39.0,0,175,3.0,49.0
424,55.0,0,180,1.0,49.0
425,63.0,0,180,0.0,49.0
426,58.0,0,180,1.0,49.0
427,60.0,200,40,0.0,40.0
428,58.0,40,60,0.0,40.0
429,57.0,60,60,0.0,40.0
430,58.0,60,60,0.0,41.0
431,60.0,60,60,0.0,41.0
432,61.0,60,0,0.0,42.0
433,65.0,60,60,0.0,43.0
434,68.0,60,60,0.0,45.0
435,53.0,0,240,3.0,43.0
436,41.0,60,480,3.0,42.0
437,56.0,60,240,2.0,43.0
438,73.0,0,240,0.0,49.0
439,72.0,240,120,0.0,43.0
440,51.0,0,240,3.0,44.0
441,56.0,0,240,2.0,44.0
442,65.0,60,60,0.0,49.0
443,68.0,60,60,0.0,51.0
444,56.0,0,240,2.0,44.0
445,50.0,240,240,3.0,44.0
446,70.0,60,60,0.0,53.0
447,49.0,0,240,3.0,45.0
448,77.0,0,240,0.0,56.0
449,55.0,60,240,2.0,45.0
450,75.0,0,120,0.0,43.0
451,48.0,0,240,3.0,46.0
452,56.0,240,240,2.0,46.0
453,49.0,60,60,0.0,49.0
454,53.0,60,60,0.0,50.0
455,56.0,60,60,0.0,51.0
456,41.0,240,240,3.0,48.0
457,43.0,60,240,3.0,51.0
458,61.0,0,240,0.0,54.0
459,52.0,0,240,1.0,54.0
460,58.0,0,240,1.0,54.0
461,60.0,0,240,0.0,57.0
462,56.0,0,240,1.0,57.0
463,51.0,0,240,1.0,57.0
464,44.0,240,240,3.0,54.0
465,54.0,0,240,1.0,59.0
466,57.0,240,240,0.0,59.0
467,55.0,0,120,1.0,48.0
468,51.0,0,360,2.0,56.0
469,58.0,240,120,0.0,48.0
470,39.0,0,360,3.0,56.0
471,51.0,240,300,0.0,40.0
472,48.0,60,60,0.0,42.0
473,51.0,60,60,0.0,44.0
474,56.0,60,60,0.0,46.0
475,60.0,60,240,0.0,52.0
476,56.0,240,240,0.0,40.0
477,44.0,0,720,2.0,42.0
478,39.0,240,0,3.0,44.0
479,32.0,0,720,3.0,42.0
480,55.0,0,60,0.0,43.0
481,61.0,60,60,0.0,46.0
482,63.0,60,60,0.0,48.0
483,67.0,60,60,0.0,51.0
484,73.0,60,240,0.0,57.0
485,67.0,240,240,0.0,48.0
486,46.0,0,720,2.0,44.0
487,34.0,0,720,3.0,44.0
488,68.0,0,60,0.0,50.0
489,51.0,60,60,0.0,51.0
490,56.0,60,60,0.0,51.0
491,60.0,60,60,0.0,52.0
492,39.0,240,240,2.0,46.0
493,48.0,0,240,2.0,46.0
494,36.0,0,240,3.0,46.0
495,51.0,0,60,2.0,48.0
496,63.0,60,60,0.0,58.0
497,51.0,120,60,2.0,50.0
498,63.0,0,60,0.0,57.0
499,51.0,0,60,2.0,53.0
500,63.0,0,60,0.0,59.0
501,51.0,120,60,2.0,56.0
502,63.0,0,60,0.0,62.0
503,43.0,120,180,3.0,53.0
504,58.0,0,180,1.0,59.0
505,61.0,120,120,1.0,68.0
506,51.0,0,240,2.0,58.0
507,56.0,0,240,1.0,68.0
508,63.0,0,0,0.0,54.0
509,60.0,120,120,1.0,59.0
510,44.0,0,240,3.0,58.0
511,58.0,0,180,1.0,54.0
512,55.0,0,180,1.0,54.0
513,51.0,120,240,2.0,51.0
514,60.0,200,40,0.0,42.0
515,39.0,0,240,3.0,51.0
516,58.0,40,60,0.0,42.0
517,57.0,60,60,0.0,42.0
518,58.0,60,60,0.0,43.0
519,60.0,60,60,0.0,42.0
520,61.0,60,60,0.0,43.0
521,61.0,60,60,0.0,44.0
522,65.0,60,60,0.0,46.0
523,68.0,60,60,0.0,49.0
524,53.0,0,240,3.0,44.0
525,56.0,0,0,2.0,47.0
526,73.0,0,240,0.0,56.0
527,41.0,0,480,3.0,42.0
528,72.0,0,120,0.0,45.0
529,51.0,240,240,3.0,47.0
530,56.0,240,0,2.0,49.0
531,77.0,60,60,0.0,53.0
532,80.0,60,60,0.0,55.0
533,50.0,0,240,3.0,49.0
534,82.0,60,60,0.0,58.0
535,55.0,60,240,2.0,51.0
536,49.0,0,240,3.0,51.0
537,89.0,0,240,0.0,64.0
538,87.0,240,120,0.0,50.0
539,56.0,0,240,2.0,53.0
540,48.0,0,240,3.0,53.0
541,60.0,60,60,0.0,54.0
542,63.0,60,60,0.0,57.0
543,68.0,60,60,0.0,59.0
544,51.0,240,480,3.0,59.0
545,72.0,60,360,0.0,66.0
546,39.0,0,240,3.0,51.0
547,61.0,0,240,1.0,63.0
548,67.0,240,240,1.0,63.0
549,70.0,120,120,0.0,60.0
550,44.0,120,120,3.0,47.0
551,68.0,0,240,0.0,58.0
552,60.0,0,240,1.0,58.0
553,32.0,240,120,3.0,43.0
554,65.0,240,300,3.0,64.0
555,53.0,60,60,3.0,56.0
556,57.0,60,60,3.0,58.0
557,60.0,60,60,3.0,60.0
558,69.0,240,240,1.0,64.0
559,72.0,0,240,0.0,64.0
560,70.0,0,240,0.0,61.0
561,67.0,0,240,1.0,61.0
562,65.0,60,360,3.0,70.0
563,72.0,240,240,0.0,58.0
564,69.0,0,240,1.0,58.0
565,63.0,0,0,3.0,54.0
566,61.0,60,60,3.0,53.0
567,60.0,60,60,3.0,53.0
568,58.0,60,60,3.0,52.0
569,73.0,120,240,0.0,55.0
570,70.0,0,240,1.0,55.0
571,57.0,0,60,3.0,51.0
572,58.0,60,60,3.0,51.0
573,61.0,60,60,3.0,50.0
574,58.0,60,60,3.0,49.0
575,73.0,60,240,1.0,49.0
576,77.0,0,240,0.0,49.0
577,73.0,0,75,0.0,57.0
578,70.0,120,75,1.0,57.0
579,46.0,60,240,3.0,49.0
580,72.0,60,67,0.0,55.0
581,68.0,0,82,1.0,55.0
582,63.0,0,60,3.0,49.0
583,51.0,60,60,3.0,51.0
584,55.0,60,60,3.0,52.0
585,58.0,60,60,3.0,54.0
586,70.0,60,240,0.0,53.0
587,67.0,0,240,1.0,53.0
588,65.0,0,240,1.0,58.0
589,68.0,60,240,0.0,58.0
590,63.0,0,360,3.0,66.0
591,70.0,0,240,0.0,54.0
592,67.0,240,240,1.0,54.0
593,61.0,0,0,3.0,52.0
594,60.0,60,60,3.0,51.0
595,58.0,60,60,3.0,50.0
596,56.0,60,60,3.0,49.0
597,68.0,120,240,1.0,50.0
598,72.0,0,240,0.0,50.0
599,55.0,60,60,3.0,48.0
600,56.0,60,60,3.0,47.0
601,60.0,60,60,3.0,47.0
602,72.0,0,240,1.0,47.0
603,75.0,0,240,0.0,47.0
604,56.0,60,60,3.0,46.0
605,44.0,60,240,3.0,45.0
606,63.0,0,120,1.0,59.0
607,75.0,180,120,0.0,59.0
608,63.0,60,60,1.0,47.0
609,75.0,60,60,0.0,47.0
610,60.0,0,240,2.0,48.0
611,56.0,60,0,3.0,52.0
612,63.0,60,60,1.0,48.0
613,62.0,60,60,1.0,50.0
614,74.0,60,60,0.0,51.0
615,62.0,60,60,1.0,52.0
616,59.0,0,240,2.0,52.0
617,64.0,60,60,1.0,53.0
618,76.0,60,60,0.0,54.0
619,55.0,0,240,3.0,56.0
620,58.0,60,240,2.0,56.0
621,61.0,0,240,2.0,56.0
622,64.0,60,60,1.0,55.0
623,65.0,60,60,1.0,57.0
624,77.0,60,60,0.0,58.0
625,56.0,60,240,3.0,59.0
626,60.0,60,0,2.0,63.0
627,65.0,60,60,1.0,58.0
628,67.0,60,60,1.0,60.0
629,79.0,60,60,0.0,61.0
630,52.0,0,240,3.0,63.0
631,67.0,60,60,1.0,62.0
632,60.0,0,0,2.0,66.0
633,68.0,60,60,1.0,64.0
634,80.0,60,60,0.0,64.0
635,68.0,60,60,1.0,65.0
636,53.0,60,240,3.0,66.0
637,34.0,60,30,3.0,46.0
638,39.0,60,30,3.0,47.0
639,43.0,60,30,3.0,49.0
640,46.0,60,30,3.0,50.0
641,51.0,60,30,3.0,52.0
642,55.0,60,30,3.0,53.0
643,57.0,60,30,3.0,55.0
644,67.0,0,480,1.0,56.0
645,70.0,60,480,1.0,56.0
646,75.0,0,480,0.0,54.0
647,59.0,0,228,3.0,65.0
648,74.0,0,240,0.0,66.0
649,65.0,0,240,1.0,72.0
650,68.0,60,240,1.0,72.0
651,36.0,60,30,3.0,53.0
652,39.0,60,30,3.0,54.0
653,43.0,60,30,3.0,55.0
654,48.0,60,30,3.0,57.0
655,51.0,60,30,3.0,58.0
656,55.0,60,30,3.0,59.0
657,60.0,60,30,3.0,61.0
658,75.0,240,480,0.0,57.0
659,63.0,0,480,1.0,61.0
660,67.0,0,480,1.0,61.0
661,57.0,60,228,3.0,68.0
662,77.0,0,240,0.0,68.0
663,72.0,0,240,1.0,68.0
664,65.0,0,240,1.0,79.0
665,34.0,60,30,3.0,60.0
666,39.0,60,30,3.0,60.0
667,43.0,60,30,3.0,61.0
668,46.0,60,30,3.0,61.0
669,51.0,60,30,3.0,62.0
670,55.0,60,30,3.0,62.0
671,57.0,60,30,3.0,63.0
672,63.0,0,480,1.0,72.0
673,75.0,240,480,0.0,59.0
674,67.0,0,480,1.0,72.0
675,74.0,0,35,0.0,53.0
676,75.0,20,32,0.0,53.0
677,58.0,60,60,3.0,70.0
678,74.0,20,37,0.0,54.0
679,75.0,20,40,0.0,55.0
680,74.0,30,40,0.0,56.0
681,75.0,30,40,0.0,57.0
682,46.0,0,60,3.0,66.0
683,74.0,30,45,0.0,58.0
684,72.0,30,40,0.0,59.0
685,68.0,0,240,1.0,63.0
686,65.0,0,240,1.0,63.0
687,74.0,30,32,0.0,60.0
688,51.0,0,60,3.0,66.0
689,75.0,30,60,0.0,64.0
690,63.0,60,0,0.0,65.0
691,67.0,0,60,0.0,64.0
692,39.0,0,60,3.0,67.0
693,67.0,60,60,0.0,65.0
694,75.0,60,60,0.0,66.0
695,41.0,60,60,3.0,68.0
696,62.0,60,60,0.0,67.0
697,68.0,60,60,0.0,67.0
698,39.0,0,60,3.0,69.0
699,75.0,60,60,0.0,68.0
700,43.0,60,60,3.0,70.0
701,61.0,60,60,0.0,69.0
702,70.0,0,60,0.0,69.0
703,39.0,60,60,3.0,71.0
704,75.0,60,60,0.0,60.0
705,60.0,0,60,0.0,42.0
706,48.0,60,60,0.0,43.0
707,51.0,60,60,0.0,45.0
708,56.0,60,60,0.0,46.0
709,60.0,60,240,0.0,53.0
710,39.0,240,0,2.0,43.0
711,44.0,60,720,2.0,42.0
712,32.0,0,720,3.0,42.0
713,56.0,240,240,0.0,46.0
714,55.0,0,60,0.0,47.0
715,61.0,60,60,0.0,49.0
716,63.0,60,60,0.0,51.0
717,67.0,60,60,0.0,52.0
718,73.0,60,240,0.0,58.0
719,67.0,240,240,0.0,53.0
720,34.0,0,720,3.0,43.0
721,46.0,0,720,2.0,43.0
722,68.0,0,60,0.0,52.0
723,51.0,60,60,0.0,54.0
724,56.0,60,60,0.0,56.0
725,48.0,0,240,2.0,44.0
726,39.0,0,240,2.0,44.0
727,36.0,240,240,3.0,44.0
728,60.0,60,60,0.0,57.0
729,51.0,60,60,2.0,49.0
730,63.0,0,60,0.0,62.0
731,63.0,0,60,0.0,61.0
732,51.0,120,60,2.0,52.0
733,51.0,120,60,2.0,54.0
734,63.0,0,60,0.0,63.0
735,58.0,0,180,1.0,63.0
736,43.0,0,180,3.0,54.0
737,51.0,120,60,2.0,57.0
738,63.0,0,60,0.0,66.0
739,61.0,0,120,1.0,68.0
740,63.0,0,240,0.0,68.0
741,60.0,120,120,1.0,59.0
742,56.0,0,240,1.0,68.0
743,51.0,0,0,2.0,50.0
744,44.0,0,240,3.0,58.0
745,58.0,0,180,1.0,51.0
746,55.0,0,180,1.0,51.0
747,63.0,120,180,0.0,51.0
748,60.0,200,40,0.0,40.0
749,39.0,0,240,3.0,50.0
750,58.0,40,60,0.0,41.0
751,57.0,60,60,0.0,41.0
752,58.0,60,60,0.0,41.0
753,60.0,60,60,0.0,42.0
754,61.0,0,60,0.0,43.0
755,61.0,60,60,0.0,44.0
756,65.0,60,60,0.0,46.0
757,68.0,60,60,0.0,47.0
758,73.0,0,240,0.0,51.0
759,53.0,60,240,3.0,44.0
760,41.0,60,480,3.0,42.0
761,56.0,0,0,2.0,47.0
762,72.0,0,120,0.0,44.0
763,51.0,240,240,3.0,47.0
764,56.0,0,0,2.0,49.0
765,77.0,60,60,0.0,51.0
766,80.0,60,60,0.0,54.0
767,50.0,240,240,3.0,49.0
768,82.0,60,60,0.0,56.0
769,55.0,60,240,2.0,51.0
770,89.0,0,240,0.0,64.0
771,49.0,0,240,3.0,51.0
772,87.0,0,120,0.0,47.0
773,48.0,0,240,3.0,54.0
774,56.0,240,240,2.0,54.0
775,60.0,60,60,0.0,52.0
776,63.0,60,60,0.0,54.0
777,68.0,60,60,0.0,57.0
778,51.0,240,480,3.0,60.0
779,72.0,60,360,0.0,60.0
780,67.0,240,240,1.0,53.0
781,61.0,0,240,1.0,53.0
782,70.0,120,120,0.0,49.0
783,39.0,0,240,3.0,55.0
784,44.0,120,120,3.0,52.0
785,60.0,0,240,1.0,45.0
786,68.0,0,240,0.0,45.0
787,32.0,240,120,3.0,45.0
788,39.0,0,60,3.0,44.0
789,51.0,960,60,3.0,44.0
790,63.0,0,60,0.0,34.0
791,60.0,60,60,1.0,34.0
792,39.0,0,60,3.0,45.0
793,51.0,60,60,3.0,45.0
794,63.0,60,60,0.0,35.0
795,60.0,0,60,1.0,35.0
796,51.0,0,120,3.0,51.0
797,39.0,60,120,3.0,51.0
798,63.0,60,60,0.0,36.0
799,60.0,0,60,1.0,36.0
800,44.0,60,60,3.0,46.0
801,56.0,0,60,3.0,46.0
802,63.0,60,60,0.0,37.0
803,60.0,0,60,1.0,37.0
804,44.0,0,60,3.0,47.0
805,56.0,60,60,3.0,47.0
806,60.0,0,60,1.0,37.0
807,63.0,60,60,0.0,37.0
808,56.0,60,60,3.0,47.0
809,44.0,0,60,3.0,47.0
810,63.0,0,60,0.0,38.0
811,60.0,60,60,1.0,38.0
812,56.0,0,60,3.0,48.0
813,44.0,60,60,3.0,48.0
814,63.0,60,60,0.0,39.0
815,60.0,0,60,1.0,39.0
816,56.0,0,60,3.0,49.0
817,44.0,60,60,3.0,49.0
818,60.0,60,60,1.0,40.0
819,63.0,0,60,0.0,40.0
820,63.0,60,60,0.0,41.0
821,56.0,0,120,3.0,55.0
822,44.0,60,120,3.0,55.0
823,61.0,0,60,1.0,41.0
824,58.0,0,60,1.0,41.0
825,55.0,60,60,3.0,50.0
826,43.0,0,60,3.0,50.0
827,58.0,0,60,1.0,42.0
828,61.0,0,60,1.0,42.0
829,63.0,60,60,0.0,42.0
830,43.0,60,60,3.0,51.0
831,55.0,0,60,3.0,51.0
832,63.0,0,60,0.0,43.0
833,58.0,60,60,1.0,43.0
834,61.0,0,60,1.0,43.0
835,53.0,60,60,3.0,51.0
836,41.0,0,60,3.0,51.0
837,63.0,0,60,0.0,44.0
838,61.0,0,60,1.0,44.0
839,58.0,60,60,1.0,44.0
840,55.0,60,60,3.0,52.0
841,43.0,0,60,3.0,52.0
842,58.0,0,60,1.0,45.0
843,61.0,0,60,1.0,45.0
844,63.0,60,60,0.0,45.0
845,51.0,60,60,3.0,54.0
846,39.0,0,60,3.0,54.0
847,61.0,0,60,1.0,46.0
848,58.0,0,60,1.0,46.0
849,63.0,60,60,0.0,46.0
850,51.0,60,60,3.0,57.0
851,39.0,0,120,3.0,57.0
852,63.0,0,60,0.0,47.0
853,60.0,60,60,1.0,47.0
854,56.0,0,60,3.0,59.0
855,44.0,60,60,3.0,59.0
856,63.0,60,60,0.0,47.0
857,60.0,0,60,1.0,47.0
858,51.0,0,60,3.0,61.0
859,68.0,0,60,0.0,48.0
860,60.0,60,60,1.0,48.0
861,63.0,0,60,1.0,48.0
862,39.0,60,123,3.0,61.0
863,44.0,60,60,3.0,63.0
864,56.0,0,60,3.0,63.0
865,68.0,0,60,0.0,49.0
866,60.0,0,60,1.0,49.0
867,63.0,60,60,1.0,49.0
868,51.0,60,60,3.0,66.0
869,63.0,60,60,1.0,50.0
870,61.0,0,60,1.0,50.0
871,67.0,0,60,0.0,50.0
872,39.0,0,120,3.0,66.0
873,46.0,0,60,3.0,68.0
874,58.0,60,60,3.0,68.0
875,67.0,0,60,0.0,53.0
876,63.0,60,60,1.0,53.0
877,61.0,0,60,1.0,53.0
878,51.0,0,60,3.0,70.0
879,63.0,60,60,1.0,50.0
880,68.0,0,60,0.0,50.0
881,39.0,60,123,3.0,70.0
882,48.0,60,60,3.0,61.0
883,60.0,0,60,3.0,61.0
884,68.0,0,60,0.0,47.0
885,63.0,60,60,1.0,47.0
886,51.0,60,60,3.0,53.0
887,39.0,0,120,3.0,53.0
888,63.0,60,60,1.0,44.0
889,67.0,0,60,0.0,44.0
890,58.0,0,60,3.0,46.0
891,46.0,60,60,3.0,46.0
892,67.0,60,60,0.0,41.0
893,63.0,0,60,1.0,41.0
894,60.0,20,40,3.0,53.0
895,58.0,40,60,3.0,55.0
896,68.0,60,60,0.0,41.0
897,66.0,0,60,1.0,41.0
898,63.0,0,60,1.0,41.0
899,57.0,0,60,3.0,54.0
900,58.0,60,60,3.0,53.0
901,60.0,0,60,3.0,51.0
902,68.0,0,60,0.0,43.0
903,66.0,60,60,1.0,43.0
904,63.0,0,60,1.0,43.0
905,68.0,60,60,0.0,44.0
906,65.0,0,60,1.0,44.0
907,49.0,60,179,3.0,50.0
908,61.0,60,60,3.0,50.0
909,80.0,60,60,0.0,46.0
910,65.0,0,60,1.0,46.0
911,68.0,0,60,1.0,48.0
912,80.0,60,60,0.0,48.0
913,53.0,60,179,3.0,52.0
914,61.0,60,60,3.0,53.0
915,80.0,60,60,0.0,49.0
916,68.0,0,60,1.0,49.0
917,80.0,60,60,0.0,51.0
918,68.0,0,60,1.0,51.0
919,51.0,60,179,3.0,54.0
920,60.0,60,60,3.0,56.0
921,68.0,60,60,1.0,53.0
922,80.0,0,60,0.0,53.0
923,68.0,60,60,1.0,54.0
924,80.0,0,60,0.0,54.0
925,65.0,60,60,3.0,58.0
926,50.0,60,183,3.0,57.0
927,80.0,0,60,0.0,56.0
928,68.0,60,60,1.0,56.0
929,67.0,60,60,1.0,58.0
930,79.0,0,60,0.0,58.0
931,49.0,60,179,3.0,59.0
932,58.0,60,60,3.0,61.0
933,67.0,60,60,1.0,59.0
934,79.0,0,60,0.0,59.0
935,68.0,60,60,1.0,61.0
936,80.0,0,60,0.0,61.0
937,48.0,60,176,3.0,62.0
938,63.0,60,60,3.0,63.0
939,68.0,60,60,1.0,63.0
940,80.0,0,60,0.0,63.0
941,70.0,0,60,1.0,62.0
942,82.0,60,60,0.0,62.0
943,41.0,60,179,3.0,65.0
944,56.0,60,60,3.0,66.0
945,65.0,60,60,1.0,59.0
946,77.0,0,60,0.0,59.0
947,64.0,60,60,1.0,56.0
948,76.0,0,60,0.0,56.0
949,43.0,60,179,3.0,67.0
950,61.0,60,60,3.0,69.0
951,75.0,0,60,0.0,53.0
952,63.0,60,60,1.0,53.0
953,75.0,60,60,0.0,49.0
954,63.0,0,60,1.0,49.0
955,44.0,60,179,3.0,70.0
956,60.0,60,60,3.0,71.0
957,63.0,0,60,1.0,46.0
958,75.0,60,60,0.0,46.0
959,66.0,60,60,1.0,44.0
960,75.0,0,60,0.0,44.0
961,63.0,0,60,1.0,44.0
962,39.0,60,179,3.0,66.0
963,57.0,60,60,3.0,60.0
964,63.0,0,60,1.0,42.0
965,66.0,60,60,1.0,42.0
966,75.0,0,60,0.0,42.0
967,67.0,0,60,1.0,41.0
968,63.0,0,60,1.0,41.0
969,75.0,60,60,0.0,41.0
970,39.0,60,179,3.0,55.0
971,58.0,60,60,3.0,49.0
972,75.0,0,60,0.0,40.0
973,67.0,60,60,1.0,40.0
974,63.0,0,60,1.0,40.0
975,39.0,0,60,3.0,44.0
976,51.0,60,60,3.0,44.0
977,75.0,60,60,0.0,36.0
978,63.0,0,60,1.0,36.0
979,39.0,60,60,3.0,44.0
980,51.0,0,60,3.0,44.0
981,63.0,60,60,1.0,37.0
982,75.0,0,60,0.0,37.0
983,72.0,0,60,1.0,38.0
984,39.0,60,120,3.0,51.0
985,51.0,0,120,3.0,51.0
986,75.0,0,60,0.0,38.0
987,63.0,60,60,1.0,38.0
988,56.0,60,60,3.0,46.0
989,44.0,0,60,3.0,46.0
990,72.0,60,60,1.0,38.0
991,75.0,0,60,0.0,38.0
992,63.0,0,60,1.0,38.0
993,56.0,0,60,3.0,46.0
994,44.0,60,60,3.0,46.0
995,75.0,0,60,0.0,39.0
996,63.0,0,60,1.0,39.0
997,72.0,60,60,1.0,39.0
998,44.0,60,60,3.0,47.0
999,56.0,0,60,3.0,47.0
1000,63.0,0,60,1.0,40.0
1001,72.0,0,60,1.0,40.0
1002,75.0,60,60,0.0,40.0
1003,44.0,60,60,3.0,47.0
1004,56.0,0,60,3.0,47.0
1005,75.0,0,60,0.0,41.0
1006,63.0,0,60,1.0,41.0
1007,72.0,60,60,1.0,41.0
1008,56.0,60,60,3.0,48.0
1009,44.0,0,60,3.0,48.0
1010,63.0,0,60,1.0,42.0
1011,72.0,0,60,1.0,42.0
1012,75.0,60,60,0.0,42.0
1013,44.0,0,120,3.0,56.0
1014,56.0,60,120,3.0,56.0
1015,73.0,0,60,1.0,43.0
1016,75.0,60,60,0.0,43.0
1017,63.0,0,60,1.0,43.0
1018,55.0,60,60,3.0,48.0
1019,46.0,0,60,3.0,48.0
1020,63.0,60,60,1.0,44.0
1021,73.0,0,60,1.0,44.0
1022,75.0,0,60,0.0,44.0
1023,55.0,0,60,3.0,49.0
1024,46.0,60,60,3.0,49.0
1025,63.0,60,60,1.0,45.0
1026,73.0,0,60,1.0,45.0
1027,75.0,0,60,0.0,45.0
1028,46.0,60,60,3.0,50.0
1029,53.0,0,60,3.0,50.0
1030,63.0,60,60,1.0,46.0
1031,75.0,0,60,0.0,46.0
1032,73.0,0,60,1.0,46.0
1033,55.0,60,60,3.0,51.0
1034,46.0,0,60,3.0,51.0
1035,75.0,0,60,0.0,47.0
1036,63.0,0,60,1.0,47.0
1037,73.0,60,60,1.0,47.0
1038,51.0,60,60,3.0,52.0
1039,46.0,0,60,3.0,52.0
1040,63.0,0,60,1.0,48.0
1041,67.0,0,60,1.0,48.0
1042,75.0,60,60,0.0,48.0
1043,51.0,60,60,3.0,55.0
1044,75.0,0,60,0.0,49.0
1045,68.0,60,60,1.0,49.0
1046,63.0,0,60,1.0,49.0
1047,48.0,0,178,3.0,55.0
1048,56.0,60,60,3.0,56.0
1049,72.0,0,60,1.0,50.0
1050,63.0,0,60,1.0,50.0
1051,75.0,60,60,0.0,50.0
1052,51.0,60,60,3.0,58.0
1053,68.0,0,60,1.0,51.0
1054,63.0,60,60,1.0,51.0
1055,75.0,0,60,0.0,51.0
1056,48.0,0,164,3.0,58.0
1057,56.0,60,60,3.0,60.0
1058,72.0,0,60,1.0,51.0
1059,75.0,60,60,0.0,51.0
1060,63.0,0,60,1.0,51.0
1061,51.0,60,60,3.0,62.0
1062,63.0,0,60,1.0,52.0
1063,70.0,0,60,1.0,52.0
1064,75.0,60,60,0.0,52.0
1065,43.0,0,164,3.0,62.0
1066,58.0,60,60,3.0,63.0
1067,63.0,60,60,1.0,53.0
1068,73.0,0,60,1.0,53.0
1069,75.0,0,60,0.0,53.0
1070,51.0,60,60,3.0,65.0
1071,72.0,0,60,1.0,51.0
1072,68.0,60,60,1.0,51.0
1073,63.0,0,60,1.0,51.0
1074,75.0,0,60,0.0,51.0
1075,44.0,0,164,3.0,65.0
1076,60.0,60,60,3.0,58.0
1077,72.0,60,60,1.0,47.0
1078,63.0,0,60,1.0,47.0
1079,75.0,0,60,0.0,47.0
1080,68.0,0,60,1.0,47.0
1081,51.0,60,60,3.0,52.0
1082,63.0,0,60,1.0,43.0
1083,67.0,0,60,1.0,43.0
1084,70.0,60,60,1.0,43.0
1085,75.0,0,60,0.0,43.0
1086,39.0,0,164,3.0,52.0
1087,58.0,60,60,3.0,46.0
1088,63.0,0,60,1.0,40.0
1089,70.0,0,60,1.0,40.0
1090,75.0,60,60,0.0,40.0
1091,67.0,0,60,1.0,40.0
1092,60.0,20,40,3.0,51.0
1093,58.0,40,60,3.0,55.0
1094,63.0,0,60,1.0,42.0
1095,68.0,0,60,1.0,42.0
1096,66.0,0,60,1.0,42.0
1097,75.0,60,60,0.0,42.0
1098,57.0,0,60,3.0,53.0
1099,58.0,60,60,3.0,51.0
1100,75.0,0,60,0.0,44.0
1101,66.0,0,60,1.0,44.0
1102,63.0,0,60,1.0,44.0
1103,60.0,60,60,3.0,49.0
1104,68.0,0,60,1.0,44.0
1105,65.0,0,60,1.0,46.0
1106,77.0,60,60,0.0,46.0
1107,68.0,0,60,1.0,46.0
1108,61.0,60,60,3.0,49.0
1109,49.0,60,184,3.0,48.0
1110,77.0,60,60,0.0,48.0
1111,65.0,0,60,1.0,48.0
1112,68.0,0,60,1.0,48.0
1113,80.0,60,60,0.0,50.0
1114,68.0,0,60,1.0,50.0
1115,61.0,60,60,3.0,53.0
1116,53.0,60,184,3.0,51.0
1117,68.0,0,60,1.0,52.0
1118,80.0,60,60,0.0,52.0
1119,80.0,0,60,0.0,54.0
1120,68.0,60,60,1.0,54.0
1121,60.0,60,60,3.0,56.0
1122,51.0,60,184,3.0,54.0
1123,68.0,60,60,1.0,56.0
1124,80.0,0,60,0.0,56.0
1125,68.0,0,60,1.0,58.0
1126,80.0,60,60,0.0,58.0
1127,65.0,60,60,3.0,60.0
1128,50.0,60,184,3.0,58.0
1129,80.0,60,60,0.0,60.0
1130,68.0,0,60,1.0,60.0
1131,79.0,60,60,0.0,62.0
1132,67.0,0,60,1.0,62.0
1133,58.0,60,60,3.0,64.0
1134,49.0,60,184,3.0,62.0
1135,79.0,60,60,0.0,65.0
1136,67.0,0,60,1.0,65.0
1137,80.0,60,60,0.0,67.0
1138,68.0,0,60,1.0,67.0
1139,63.0,60,60,3.0,67.0
1140,48.0,60,184,3.0,65.0
1141,80.0,60,60,0.0,61.0
1142,68.0,0,60,1.0,61.0
1143,63.0,0,60,1.0,56.0
1144,72.0,60,60,1.0,56.0
1145,75.0,0,60,0.0,56.0
1146,56.0,60,60,3.0,65.0
1147,51.0,60,184,3.0,69.0
1148,72.0,60,60,1.0,54.0
1149,63.0,0,60,1.0,54.0
1150,75.0,0,60,0.0,54.0
1151,75.0,60,60,0.0,52.0
1152,63.0,0,60,1.0,52.0
1153,72.0,0,60,1.0,52.0
1154,68.0,0,60,1.0,52.0
1155,60.0,60,60,3.0,59.0
1156,39.0,60,184,3.0,62.0
1157,63.0,0,60,1.0,50.0
1158,75.0,60,60,0.0,50.0
1159,72.0,0,60,1.0,50.0
1160,68.0,0,60,1.0,50.0
1161,67.0,0,60,0.0,49.0
1162,63.0,60,60,1.0,49.0
1163,61.0,0,60,1.0,49.0
1164,58.0,60,60,3.0,53.0
1165,39.0,60,184,3.0,56.0
1166,61.0,0,60,1.0,47.0
1167,63.0,60,60,1.0,47.0
1168,67.0,0,60,0.0,47.0
1169,60.0,0,60,1.0,45.0
1170,63.0,0,60,1.0,45.0
1171,68.0,60,60,0.0,45.0
1172,56.0,60,60,3.0,47.0
1173,44.0,60,184,3.0,50.0
1174,63.0,0,60,1.0,43.0
1175,68.0,60,60,0.0,43.0
1176,60.0,0,60,1.0,43.0
1177,32.0,60,120,3.0,44.0
1178,77.0,0,60,0.0,59.0
1179,65.0,60,60,1.0,59.0
1180,60.0,60,60,3.0,67.0
1181,45.0,240,182,3.0,69.0
1182,65.0,0,60,1.0,58.0
1183,77.0,60,60,0.0,58.0
1184,65.0,0,60,1.0,57.0
1185,77.0,60,60,0.0,57.0
1186,60.0,60,60,3.0,63.0
1187,45.0,60,182,3.0,65.0
1188,77.0,60,60,1.0,57.0
1189,89.0,0,60,0.0,57.0
1190,76.0,60,60,1.0,56.0
1191,88.0,0,60,0.0,56.0
1192,58.0,60,60,3.0,60.0
1193,43.0,60,182,3.0,61.0
1194,76.0,60,60,1.0,55.0
1195,88.0,0,60,0.0,55.0
1196,75.0,0,60,1.0,54.0
1197,87.0,60,60,0.0,54.0
1198,60.0,60,60,3.0,58.0
1199,45.0,60,182,3.0,59.0
1200,87.0,60,60,0.0,54.0
1201,75.0,0,60,1.0,54.0
1202,85.0,0,60,0.0,53.0
1203,73.0,60,60,1.0,53.0
1204,61.0,60,60,3.0,55.0
1205,46.0,60,182,3.0,56.0
1206,85.0,60,60,0.0,52.0
1207,73.0,0,60,1.0,52.0
1208,82.0,0,60,0.0,51.0
1209,70.0,60,60,1.0,51.0
1210,65.0,60,60,3.0,53.0
1211,49.0,60,182,3.0,54.0
1212,82.0,60,60,0.0,50.0
1213,70.0,0,60,1.0,50.0
1214,65.0,60,60,1.0,59.0
1215,34.0,0,120,3.0,71.0
1216,46.0,60,120,3.0,71.0
1217,77.0,0,60,0.0,59.0
1218,73.0,0,60,1.0,59.0
1219,32.0,0,120,3.0,68.0
1220,73.0,0,60,1.0,58.0
1221,76.0,0,60,0.0,58.0
1222,44.0,60,120,3.0,68.0
1223,64.0,60,60,1.0,58.0
1224,75.0,60,60,0.0,57.0
1225,73.0,0,60,1.0,57.0
1226,63.0,0,60,1.0,57.0
1227,43.0,0,120,3.0,66.0
1228,31.0,60,120,3.0,66.0
1229,58.0,60,60,3.0,63.0
1230,87.0,0,60,0.0,56.0
1231,75.0,60,60,1.0,56.0
1232,74.0,60,60,1.0,56.0
1233,86.0,0,60,0.0,56.0
1234,56.0,60,60,3.0,56.0
1235,41.0,60,185,3.0,61.0
1236,74.0,0,60,1.0,55.0
1237,86.0,60,60,0.0,55.0
1238,85.0,60,60,0.0,54.0
1239,73.0,0,60,1.0,54.0
1240,58.0,60,60,3.0,54.0
1241,43.0,60,185,3.0,55.0
1242,73.0,0,60,1.0,52.0
1243,85.0,60,60,0.0,52.0
1244,84.0,60,60,0.0,51.0
1245,72.0,0,60,1.0,51.0
1246,60.0,60,60,3.0,51.0
1247,44.0,60,185,3.0,52.0
1248,72.0,60,60,1.0,50.0
1249,84.0,0,60,0.0,50.0
1250,68.0,60,60,1.0,49.0
1251,80.0,0,60,0.0,49.0
1252,63.0,60,60,3.0,48.0
1253,48.0,60,185,3.0,50.0
1254,80.0,0,60,0.0,48.0
1255,68.0,60,60,1.0,48.0
1256,68.0,60,60,1.0,46.0
1257,80.0,0,60,0.0,46.0
1258,51.0,60,60,3.0,46.0
1259,48.0,60,185,3.0,47.0
1260,68.0,60,60,1.0,45.0
1261,80.0,0,60,0.0,45.0
1262,68.0,0,60,1.0,44.0
1263,80.0,60,60,0.0,44.0
1264,51.0,60,60,3.0,49.0
1265,48.0,60,185,3.0,47.0
1266,80.0,0,60,0.0,46.0
1267,68.0,60,60,1.0,46.0
1268,80.0,0,60,0.0,47.0
1269,68.0,60,60,1.0,47.0
1270,50.0,60,60,3.0,53.0
1271,47.0,60,185,3.0,51.0
1272,80.0,60,60,0.0,48.0
1273,68.0,0,60,1.0,48.0
1274,67.0,0,60,1.0,49.0
1275,79.0,60,60,0.0,49.0
1276,52.0,60,60,3.0,57.0
1277,46.0,60,185,3.0,55.0
1278,67.0,60,60,1.0,49.0
1279,79.0,0,60,0.0,49.0
1280,72.0,60,60,1.0,50.0
1281,84.0,0,60,0.0,50.0
1282,53.0,60,60,3.0,61.0
1283,44.0,60,185,3.0,59.0
1284,84.0,0,60,0.0,51.0
1285,72.0,60,60,1.0,51.0
1286,70.0,0,60,1.0,52.0
1287,72.0,0,60,1.0,52.0
1288,76.0,60,60,0.0,52.0
1289,55.0,60,60,3.0,65.0
1290,43.0,60,185,3.0,63.0
1291,70.0,0,60,1.0,53.0
1292,76.0,0,60,0.0,53.0
1293,72.0,60,60,1.0,53.0
1294,72.0,60,60,1.0,54.0
1295,68.0,0,60,1.0,54.0
1296,77.0,0,60,0.0,54.0
1297,56.0,60,60,3.0,82.0
1298,41.0,60,185,3.0,67.0
1299,77.0,60,60,0.0,54.0
1300,68.0,0,60,1.0,54.0
1301,53.0,0,60,3.0,74.0
1302,72.0,0,60,1.0,54.0
1303,67.0,0,60,1.0,55.0
1304,79.0,60,60,0.0,55.0
1305,51.0,60,60,3.0,50.0
1306,46.0,60,185,3.0,66.0
1307,79.0,0,60,0.0,56.0
1308,67.0,60,60,1.0,56.0
1309,67.0,60,60,1.0,57.0
1310,79.0,0,60,0.0,57.0
1311,51.0,60,60,3.0,55.0
1312,46.0,60,193,3.0,53.0
1313,79.0,0,60,0.0,58.0
1314,67.0,60,60,1.0,58.0
1315,80.0,0,60,0.0,59.0
1316,68.0,60,60,1.0,59.0
1317,77.0,0,60,1.0,59.0
1318,50.0,60,60,3.0,60.0
1319,47.0,60,193,3.0,57.0
1320,68.0,60,60,1.0,59.0
1321,80.0,0,60,0.0,59.0
1322,77.0,0,60,1.0,59.0
1323,67.0,60,60,1.0,60.0
1324,77.0,0,60,1.0,60.0
1325,79.0,0,60,0.0,60.0
1326,51.0,60,60,3.0,64.0
1327,48.0,60,188,3.0,62.0
1328,79.0,0,60,0.0,61.0
1329,67.0,0,60,1.0,61.0
1330,75.0,60,60,1.0,61.0
1331,75.0,0,60,1.0,62.0
1332,67.0,60,60,1.0,62.0
1333,79.0,0,60,0.0,62.0
1334,51.0,60,60,3.0,69.0
1335,48.0,60,188,3.0,66.0
1336,79.0,60,60,0.0,63.0
1337,75.0,0,60,1.0,63.0
1338,67.0,0,60,1.0,63.0
1339,84.0,60,60,0.0,63.0
1340,72.0,0,60,1.0,63.0
1341,75.0,0,60,1.0,63.0
1342,55.0,60,60,3.0,84.0
1343,45.0,60,188,3.0,71.0
1344,53.0,0,60,3.0,77.0
1345,84.0,0,60,0.0,64.0
1346,72.0,0,60,1.0,64.0
1347,75.0,60,60,1.0,64.0
1348,75.0,0,60,1.0,65.0
1349,70.0,60,60,1.0,65.0
1350,82.0,0,60,0.0,65.0
1351,79.0,0,60,1.0,65.0
1352,51.0,60,60,3.0,63.0
1353,46.0,60,188,3.0,71.0
1354,79.0,0,60,1.0,66.0
1355,82.0,60,60,0.0,66.0
1356,75.0,0,60,1.0,66.0
1357,70.0,0,60,1.0,66.0
1358,67.0,0,60,1.0,67.0
1359,75.0,0,60,0.0,67.0
1360,70.0,60,60,1.0,67.0
1361,51.0,60,60,3.0,65.0
1362,46.0,60,188,3.0,64.0
1363,75.0,0,60,0.0,68.0
1364,67.0,0,60,1.0,68.0
1365,70.0,60,60,1.0,68.0
1366,68.0,0,60,1.0,68.0
1367,77.0,60,60,0.0,68.0
1368,70.0,0,60,1.0,68.0
1369,50.0,60,60,3.0,66.0
1370,34.0,60,188,3.0,66.0
1371,68.0,0,60,1.0,69.0
1372,70.0,60,60,1.0,69.0
1373,77.0,0,60,0.0,69.0
1374,70.0,60,60,1.0,59.0
1375,75.0,0,60,0.0,59.0
1376,67.0,0,60,1.0,59.0
1377,51.0,60,60,3.0,60.0
1378,39.0,60,188,3.0,67.0
1379,70.0,0,60,1.0,53.0
1380,75.0,0,60,0.0,53.0
1381,67.0,60,60,1.0,53.0
1382,63.0,60,60,1.0,47.0
1383,68.0,0,60,1.0,47.0
1384,74.0,0,60,0.0,47.0
1385,51.0,60,60,3.0,51.0
1386,41.0,60,188,3.0,55.0
1387,68.0,0,60,1.0,41.0
1388,63.0,60,60,1.0,41.0
1389,74.0,0,60,0.0,41.0
1390,70.0,0,60,1.0,40.0
1391,61.0,0,60,1.0,40.0
1392,73.0,60,60,0.0,40.0
1393,51.0,60,60,3.0,43.0
1394,43.0,60,188,3.0,47.0
1395,70.0,0,60,1.0,40.0
1396,61.0,60,60,1.0,40.0
1397,73.0,0,60,0.0,40.0
1398,72.0,0,60,0.0,40.0
1399,44.0,0,0,3.0,43.0
1400,51.0,60,120,3.0,48.0
1401,68.0,0,60,1.0,40.0
1402,63.0,60,60,1.0,40.0
1403,56.0,60,60,3.0,43.0
1404,75.0,60,60,0.0,41.0
1405,68.0,0,60,1.0,41.0
1406,72.0,0,60,1.0,41.0
1407,56.0,60,60,3.0,43.0
1408,44.0,0,60,3.0,43.0
1409,72.0,0,60,1.0,42.0
1410,68.0,0,60,1.0,42.0
1411,75.0,60,60,0.0,42.0
1412,56.0,0,60,3.0,44.0
1413,44.0,60,60,3.0,44.0
1414,68.0,60,60,1.0,43.0
1415,63.0,0,60,1.0,43.0
1416,72.0,0,60,1.0,43.0
1417,75.0,0,60,0.0,43.0
1418,44.0,0,60,3.0,44.0
1419,56.0,60,60,3.0,44.0
1420,63.0,0,60,1.0,44.0
1421,72.0,0,60,1.0,44.0
1422,68.0,0,60,1.0,44.0
1423,75.0,60,60,0.0,44.0
1424,56.0,0,60,3.0,44.0
1425,44.0,60,60,3.0,44.0
1426,72.0,0,60,1.0,45.0
1427,75.0,0,60,0.0,45.0
1428,63.0,0,60,1.0,45.0
1429,68.0,60,60,1.0,45.0
1430,63.0,0,60,1.0,46.0
1431,73.0,60,60,1.0,46.0
1432,56.0,60,120,3.0,50.0
1433,44.0,0,120,3.0,50.0
1434,75.0,0,60,0.0,46.0
1435,70.0,0,60,1.0,46.0
1436,55.0,60,60,3.0,45.0
1437,46.0,0,60,3.0,45.0
1438,63.0,0,60,1.0,47.0
1439,75.0,60,60,0.0,47.0
1440,70.0,0,60,1.0,47.0
1441,73.0,0,60,1.0,47.0
1442,55.0,0,60,3.0,46.0
1443,46.0,60,60,3.0,46.0
1444,73.0,60,60,1.0,47.0
1445,75.0,0,60,0.0,47.0
1446,70.0,0,60,1.0,47.0
1447,63.0,0,60,1.0,47.0
1448,46.0,60,60,3.0,46.0
1449,53.0,0,60,3.0,46.0
1450,73.0,0,60,1.0,48.0
1451,75.0,0,60,0.0,48.0
1452,63.0,0,60,1.0,48.0
1453,70.0,60,60,1.0,48.0
1454,46.0,0,60,3.0,46.0
1455,55.0,60,60,3.0,46.0
1456,75.0,0,60,0.0,49.0
1457,73.0,0,60,1.0,49.0
1458,63.0,60,60,1.0,49.0
1459,70.0,0,60,1.0,49.0
1460,46.0,60,60,3.0,47.0
1461,51.0,0,60,3.0,47.0
1462,73.0,0,60,1.0,50.0
1463,75.0,0,60,0.0,50.0
1464,63.0,60,60,1.0,50.0
1465,70.0,0,60,1.0,50.0
1466,51.0,60,60,3.0,49.0
1467,75.0,0,60,0.0,51.0
1468,68.0,60,60,1.0,51.0
1469,63.0,0,60,1.0,51.0
1470,72.0,0,60,1.0,51.0
1471,48.0,0,176,3.0,49.0
1472,56.0,60,60,3.0,51.0
1473,63.0,0,60,1.0,52.0
1474,72.0,0,60,1.0,52.0
1475,68.0,60,60,1.0,52.0
1476,75.0,0,60,0.0,52.0
1477,51.0,60,60,3.0,54.0
1478,72.0,60,60,1.0,53.0
1479,68.0,0,60,1.0,53.0
1480,63.0,0,60,1.0,53.0
1481,75.0,0,60,0.0,53.0
1482,48.0,0,176,3.0,54.0
1483,56.0,60,60,3.0,56.0
1484,75.0,0,60,0.0,53.0
1485,72.0,60,60,1.0,53.0
1486,68.0,0,60,1.0,53.0
1487,51.0,0,60,3.0,59.0
1488,63.0,0,60,1.0,54.0
1489,67.0,0,60,1.0,54.0
1490,73.0,0,60,1.0,54.0
1491,75.0,60,60,0.0,54.0
1492,43.0,60,176,3.0,59.0
1493,58.0,60,60,3.0,62.0
1494,67.0,60,60,1.0,55.0
1495,63.0,0,60,1.0,55.0
1496,75.0,0,60,0.0,55.0
1497,51.0,0,60,3.0,65.0
1498,63.0,0,60,1.0,53.0
1499,68.0,60,60,1.0,53.0
1500,75.0,0,60,0.0,53.0
1501,44.0,60,176,3.0,65.0
1502,60.0,60,60,3.0,59.0
1503,68.0,0,60,1.0,49.0
1504,63.0,60,60,1.0,49.0
1505,75.0,0,60,0.0,49.0
1506,51.0,60,60,3.0,53.0
1507,39.0,0,76,3.0,53.0
1508,75.0,60,60,0.0,44.0
1509,63.0,0,60,1.0,44.0
1510,67.0,0,60,1.0,44.0
1511,58.0,60,60,3.0,46.0
1512,63.0,0,60,1.0,40.0
1513,67.0,0,60,1.0,40.0
1514,60.0,20,40,3.0,51.0
1515,75.0,60,60,0.0,40.0
1516,58.0,40,60,3.0,55.0
1517,57.0,60,60,3.0,54.0
1518,68.0,0,60,1.0,42.0
1519,63.0,0,60,1.0,42.0
1520,75.0,0,60,0.0,42.0
1521,66.0,0,60,1.0,42.0
1522,58.0,60,60,3.0,52.0
1523,60.0,0,60,3.0,50.0
1524,63.0,0,60,1.0,43.0
1525,68.0,0,60,1.0,43.0
1526,66.0,60,60,1.0,43.0
1527,75.0,0,60,0.0,43.0
1528,77.0,60,60,0.0,45.0
1529,68.0,0,60,1.0,45.0
1530,65.0,0,60,1.0,45.0
1531,49.0,60,180,3.0,50.0
1532,61.0,60,60,3.0,52.0
1533,68.0,0,60,1.0,46.0
1534,65.0,0,60,1.0,46.0
1535,77.0,60,60,0.0,46.0
1536,68.0,0,60,1.0,48.0
1537,80.0,60,60,0.0,48.0
1538,61.0,60,60,3.0,55.0
1539,53.0,60,190,3.0,53.0
1540,68.0,0,60,1.0,49.0
1541,80.0,60,60,0.0,49.0
1542,68.0,60,60,1.0,51.0
1543,80.0,0,60,0.0,51.0
1544,60.0,60,60,3.0,59.0
1545,51.0,60,180,3.0,57.0
1546,80.0,0,60,0.0,52.0
1547,68.0,60,60,1.0,52.0
1548,68.0,0,60,1.0,54.0
1549,80.0,60,60,0.0,54.0
1550,65.0,60,60,3.0,62.0
1551,50.0,60,180,3.0,60.0
1552,80.0,60,60,0.0,55.0
1553,68.0,0,60,1.0,55.0
1554,79.0,60,60,0.0,57.0
1555,67.0,0,60,1.0,57.0
1556,58.0,60,60,3.0,66.0
1557,49.0,60,180,3.0,64.0
1558,79.0,0,60,0.0,58.0
1559,67.0,60,60,1.0,58.0
1560,68.0,0,60,1.0,60.0
1561,80.0,60,60,0.0,60.0
1562,48.0,60,180,3.0,68.0
1563,63.0,60,60,3.0,69.0
1564,80.0,60,60,0.0,61.0
1565,68.0,0,60,1.0,61.0
1566,75.0,0,60,0.0,55.0
1567,63.0,0,60,1.0,55.0
1568,72.0,60,60,1.0,55.0
1569,51.0,60,180,3.0,71.0
1570,56.0,60,60,3.0,65.0
1571,72.0,0,60,1.0,53.0
1572,63.0,0,60,1.0,53.0
1573,75.0,60,60,0.0,53.0
1574,68.0,0,60,1.0,51.0
1575,63.0,0,60,1.0,51.0
1576,72.0,0,60,1.0,51.0
1577,75.0,60,60,0.0,51.0
1578,39.0,60,180,3.0,63.0
1579,60.0,60,60,3.0,60.0
1580,72.0,60,60,1.0,48.0
1581,63.0,0,60,1.0,48.0
1582,68.0,0,60,1.0,48.0
1583,75.0,0,60,0.0,48.0
1584,61.0,0,60,1.0,46.0
1585,63.0,60,60,1.0,46.0
1586,67.0,0,60,0.0,46.0
1587,58.0,60,60,3.0,55.0
1588,39.0,60,180,3.0,57.0
1589,67.0,60,60,0.0,44.0
1590,61.0,0,60,1.0,44.0
1591,63.0,0,60,1.0,44.0
1592,68.0,60,60,0.0,42.0
1593,60.0,0,60,1.0,42.0
1594,63.0,0,60,1.0,42.0
1595,44.0,60,180,3.0,52.0
1596,56.0,60,60,3.0,49.0
1597,63.0,0,60,1.0,40.0
1598,60.0,0,60,1.0,40.0
1599,68.0,60,60,0.0,40.0
1600,32.0,60,90,3.0,47.0
1601,51.0,120,0,0.0,40.0
1602,47.0,120,120,2.0,40.0
1603,44.0,0,120,3.0,40.0
1604,56.0,120,240,0.0,42.0
1605,47.0,120,120,2.0,41.0
1606,44.0,0,120,3.0,41.0
1607,56.0,120,240,0.0,43.0
1608,44.0,0,120,3.0,42.0
1609,47.0,120,120,2.0,42.0
1610,56.0,120,240,0.0,44.0
1611,46.0,120,120,3.0,42.0
1612,49.0,0,120,2.0,42.0
1613,46.0,0,120,3.0,43.0
1614,55.0,120,240,0.0,45.0
1615,49.0,120,120,2.0,43.0
1616,49.0,0,120,2.0,44.0
1617,55.0,120,0,0.0,47.0
1618,46.0,120,120,3.0,44.0
1619,51.0,120,120,2.0,45.0
1620,47.0,0,120,3.0,45.0
1621,56.0,120,240,0.0,48.0
1622,51.0,120,120,2.0,45.0
1623,47.0,0,120,3.0,45.0
1624,47.0,0,120,3.0,46.0
1625,56.0,120,0,0.0,50.0
1626,51.0,120,120,2.0,46.0
1627,52.0,0,120,2.0,47.0
1628,49.0,120,120,3.0,47.0
1629,57.0,120,240,0.0,51.0
1630,52.0,120,120,2.0,48.0
1631,49.0,0,120,3.0,48.0
1632,57.0,120,240,0.0,52.0
1633,52.0,120,120,2.0,49.0
1634,49.0,0,120,3.0,49.0
1635,51.0,0,120,3.0,50.0
1636,57.0,120,240,0.0,54.0
1637,54.0,120,120,2.0,50.0
1638,51.0,120,120,3.0,52.0
1639,60.0,120,0,0.0,58.0
1640,54.0,0,120,2.0,52.0
1641,57.0,0,120,2.0,52.0
1642,54.0,0,120,2.0,54.0
1643,57.0,0,120,2.0,54.0
1644,51.0,120,120,3.0,54.0
1645,60.0,120,0,0.0,60.0
1646,56.0,120,120,2.0,56.0
1647,52.0,0,120,3.0,56.0
1648,56.0,120,120,2.0,59.0
1649,52.0,0,120,3.0,59.0
1650,61.0,120,0,0.0,63.0
1651,52.0,120,120,3.0,61.0
1652,56.0,0,120,2.0,61.0
1653,61.0,120,0,0.0,65.0
1654,59.0,0,120,2.0,71.0
1655,53.0,120,120,3.0,71.0
1656,62.0,120,0,0.0,68.0
1657,53.0,0,120,3.0,65.0
1658,58.0,120,120,2.0,65.0
1659,53.0,120,120,3.0,68.0
1660,62.0,120,0,0.0,76.0
1661,56.0,0,120,2.0,68.0
1662,56.0,0,240,2.0,74.0
1663,51.0,120,360,3.0,74.0
1664,63.0,240,120,0.0,51.0
1665,55.0,0,120,2.0,57.0
1666,51.0,0,120,1.0,38.0
1667,63.0,240,120,0.0,38.0
1668,51.0,120,240,1.0,38.0
1669,63.0,0,240,0.0,38.0
1670,44.0,120,120,2.0,42.0
1671,56.0,120,240,1.0,38.0
1672,68.0,0,240,0.0,38.0
1673,47.0,0,120,2.0,42.0
1674,44.0,120,120,2.0,42.0
1675,68.0,0,240,0.0,39.0
1676,47.0,0,120,2.0,42.0
1677,56.0,0,0,1.0,40.0
1678,32.0,120,676,3.0,56.0
1679,68.0,120,240,0.0,40.0
1680,46.0,120,120,2.0,43.0
1681,67.0,120,0,0.0,41.0
1682,55.0,120,240,1.0,40.0
1683,49.0,0,120,2.0,43.0
1684,34.0,120,593,3.0,59.0
1685,49.0,120,120,2.0,43.0
1686,46.0,0,120,2.0,43.0
1687,55.0,0,0,1.0,41.0
1688,67.0,120,240,0.0,41.0
1689,47.0,0,120,2.0,44.0
1690,51.0,120,120,2.0,44.0
1691,56.0,120,240,1.0,42.0
1692,68.0,0,240,0.0,42.0
1693,56.0,0,240,1.0,42.0
1694,47.0,0,120,2.0,44.0
1695,51.0,120,120,2.0,44.0
1696,68.0,0,0,0.0,43.0
1697,35.0,120,720,3.0,62.0
1698,56.0,120,240,1.0,43.0
1699,49.0,0,120,2.0,45.0
1700,52.0,120,120,2.0,45.0
1701,57.0,0,240,1.0,45.0
1702,69.0,120,240,0.0,45.0
1703,69.0,120,240,0.0,48.0
1704,57.0,0,240,1.0,48.0
1705,49.0,0,120,2.0,45.0
1706,52.0,120,120,2.0,45.0
1707,37.0,120,720,3.0,66.0
1708,69.0,120,240,0.0,50.0
1709,57.0,0,240,1.0,50.0
1710,54.0,0,120,2.0,49.0
1711,51.0,120,120,2.0,49.0
1712,57.0,0,120,2.0,49.0
1713,60.0,120,0,1.0,55.0
1714,72.0,0,0,0.0,55.0
1715,39.0,120,593,3.0,69.0
1716,51.0,0,120,2.0,52.0
1717,54.0,0,120,2.0,52.0
1718,72.0,0,0,0.0,57.0
1719,57.0,120,120,2.0,52.0
1720,60.0,120,240,1.0,57.0
1721,56.0,120,120,2.0,62.0
1722,52.0,0,120,2.0,62.0
1723,61.0,0,240,1.0,61.0
1724,73.0,120,240,0.0,61.0
1725,40.0,120,593,3.0,70.0
1726,59.0,0,120,2.0,66.0
1727,56.0,120,120,2.0,66.0
1728,61.0,120,240,1.0,64.0
1729,53.0,0,120,2.0,66.0
1730,73.0,0,240,0.0,64.0
1731,62.0,0,120,1.0,68.0
1732,51.0,0,120,3.0,72.0
1733,62.0,0,120,1.0,71.0
1734,56.0,0,120,2.0,72.0
1735,59.0,120,120,2.0,72.0
1736,74.0,120,240,0.0,68.0
1737,44.0,120,120,2.0,61.0
1738,39.0,0,120,3.0,61.0
1739,63.0,120,0,1.0,58.0
1740,47.0,0,120,2.0,61.0
1741,75.0,120,240,0.0,67.0
1742,51.0,0,120,2.0,61.0
1743,63.0,120,0,1.0,49.0
1744,75.0,0,240,0.0,58.0
1745,51.0,120,120,2.0,55.0
1746,46.0,0,120,2.0,55.0
1747,43.0,0,120,2.0,55.0
1748,39.0,0,120,3.0,55.0
1749,75.0,0,120,0.0,49.0
1750,56.0,120,120,2.0,50.0
1751,44.0,0,120,3.0,50.0
1752,68.0,0,240,0.0,45.0
1753,32.0,240,120,3.0,44.0
1754,69.0,240,480,1.0,71.0
1755,60.0,0,240,3.0,61.0
1756,56.0,0,240,3.0,59.0
1757,75.0,0,720,1.0,67.0
1758,72.0,240,240,1.0,57.0
1759,78.0,240,960,0.0,63.0
1760,61.0,240,240,3.0,57.0
1761,68.0,240,840,1.0,58.0
1762,76.0,240,120,0.0,50.0
1763,73.0,0,360,1.0,55.0
1764,49.0,0,120,3.0,51.0
1765,64.0,240,480,1.0,61.0
1766,55.0,0,240,3.0,49.0
1767,67.0,0,240,1.0,45.0
1768,70.0,0,720,1.0,57.0
1769,51.0,240,240,3.0,47.0
1770,73.0,240,960,0.0,57.0
1771,56.0,0,240,3.0,45.0
1772,68.0,240,360,1.0,43.0
1773,63.0,240,840,1.0,47.0
1774,44.0,240,120,3.0,43.0
1775,71.0,0,120,0.0,41.0
1776,71.0,240,105,0.0,38.0
1777,59.0,0,112,1.0,38.0
1778,71.0,0,240,0.0,48.0
1779,59.0,120,240,1.0,48.0
1780,50.0,120,120,2.0,39.0
1781,70.0,120,240,0.0,40.0
1782,58.0,120,0,1.0,42.0
1783,53.0,0,120,2.0,39.0
1784,70.0,0,120,0.0,42.0
1785,80.0,0,120,0.0,43.0
1786,50.0,120,120,2.0,41.0
1787,68.0,0,120,1.0,43.0
1788,58.0,0,120,2.0,41.0
1789,38.0,120,615,3.0,52.0
1790,80.0,0,240,0.0,57.0
1791,68.0,120,240,1.0,57.0
1792,58.0,120,120,2.0,44.0
1793,66.0,120,0,1.0,44.0
1794,78.0,0,240,0.0,47.0
1795,51.0,0,120,2.0,44.0
1796,78.0,0,120,0.0,44.0
1797,77.0,0,120,0.0,42.0
1798,56.0,0,120,2.0,45.0
1799,44.0,0,120,2.0,45.0
1800,65.0,120,120,1.0,42.0
1801,39.0,120,615,3.0,56.0
1802,77.0,120,240,0.0,63.0
1803,65.0,0,240,1.0,63.0
1804,46.0,0,120,2.0,49.0
1805,54.0,120,120,2.0,49.0
1806,63.0,0,240,1.0,53.0
1807,75.0,120,0,0.0,50.0
1808,34.0,120,362,3.0,61.0
1809,63.0,0,120,1.0,50.0
1810,74.0,0,120,0.0,48.0
1811,34.0,0,120,3.0,50.0
1812,46.0,120,120,2.0,50.0
1813,62.0,0,120,1.0,48.0
1814,74.0,120,240,0.0,69.0
1815,62.0,0,240,1.0,69.0
1816,47.0,0,120,2.0,60.0
1817,75.0,120,0,0.0,58.0
1818,54.0,120,120,2.0,53.0
1819,63.0,0,240,1.0,61.0
1820,47.0,0,120,2.0,53.0
1821,35.0,120,362,3.0,60.0
1822,63.0,0,120,1.0,58.0
1823,65.0,120,0,1.0,73.0
1824,33.0,120,120,3.0,60.0
1825,45.0,0,120,2.0,60.0
1826,77.0,0,0,0.0,73.0
1827,46.0,120,120,2.0,68.0
1828,34.0,0,340,3.0,68.0
1829,54.0,0,120,2.0,58.0
1830,51.0,0,120,2.0,58.0
1831,46.0,120,120,2.0,58.0
1832,75.0,0,0,0.0,63.0
1833,63.0,120,0,1.0,63.0
1834,74.0,120,0,0.0,73.0
1835,46.0,0,120,2.0,63.0
1836,34.0,0,120,3.0,63.0
1837,62.0,0,0,1.0,73.0
1838,51.0,0,240,2.0,68.0
1839,39.0,120,240,3.0,68.0
1840,63.0,0,240,1.0,57.0
1841,75.0,120,240,0.0,57.0
1842,37.0,120,240,3.0,55.0
1843,49.0,0,240,2.0,55.0
1844,51.0,0,240,1.0,42.0
1845,63.0,120,240,0.0,42.0
1846,34.0,0,240,3.0,48.0
1847,46.0,120,240,2.0,48.0
1848,63.0,120,240,0.0,43.0
1849,51.0,0,240,1.0,43.0
1850,44.0,0,120,2.0,46.0
1851,47.0,120,120,2.0,46.0
1852,56.0,0,0,1.0,45.0
1853,68.0,120,0,0.0,45.0
1854,56.0,0,0,1.0,46.0
1855,47.0,0,120,2.0,47.0
1856,44.0,120,120,2.0,47.0
1857,32.0,120,615,3.0,56.0
1858,68.0,120,240,0.0,46.0
1859,46.0,0,120,2.0,48.0
1860,55.0,120,240,1.0,47.0
1861,67.0,0,240,0.0,47.0
1862,49.0,120,120,2.0,48.0
1863,67.0,0,240,0.0,48.0
1864,49.0,0,120,2.0,49.0
1865,55.0,0,0,1.0,49.0
1866,46.0,120,120,2.0,49.0
1867,34.0,120,615,3.0,58.0
1868,67.0,120,240,0.0,49.0
1869,56.0,0,240,1.0,50.0
1870,68.0,0,0,0.0,51.0
1871,51.0,0,120,2.0,50.0
1872,47.0,120,120,2.0,50.0
1873,68.0,120,0,0.0,52.0
1874,56.0,120,240,1.0,51.0
1875,51.0,0,120,2.0,51.0
1876,47.0,120,120,2.0,51.0
1877,35.0,120,720,3.0,61.0
1878,56.0,0,240,1.0,52.0
1879,69.0,120,240,0.0,53.0
1880,57.0,120,0,1.0,54.0
1881,52.0,0,120,2.0,52.0
1882,49.0,120,120,2.0,52.0
1883,69.0,0,240,0.0,54.0
1884,49.0,0,120,2.0,53.0
1885,52.0,120,120,2.0,53.0
1886,57.0,120,0,1.0,55.0
1887,37.0,120,720,3.0,64.0
1888,69.0,0,240,0.0,55.0
1889,60.0,120,240,1.0,56.0
1890,54.0,0,120,2.0,54.0
1891,57.0,0,120,2.0,54.0
1892,51.0,120,120,2.0,54.0
1893,72.0,0,240,0.0,56.0
1894,54.0,120,120,2.0,55.0
1895,60.0,120,240,1.0,57.0
1896,57.0,0,120,2.0,55.0
1897,72.0,0,240,0.0,57.0
1898,51.0,0,120,2.0,55.0
1899,39.0,120,615,3.0,67.0
1900,60.0,120,240,1.0,58.0
1901,72.0,0,240,0.0,58.0
1902,61.0,120,0,1.0,60.0
1903,56.0,120,120,2.0,56.0
1904,73.0,0,240,0.0,59.0
1905,52.0,0,120,2.0,56.0
1906,56.0,120,120,2.0,57.0
1907,73.0,0,240,0.0,60.0
1908,59.0,0,120,2.0,57.0
1909,53.0,0,120,2.0,57.0
1910,40.0,120,615,3.0,69.0
1911,62.0,0,0,1.0,64.0
1912,51.0,0,120,3.0,63.0
1913,59.0,120,120,2.0,63.0
1914,74.0,120,240,0.0,61.0
1915,56.0,0,120,2.0,63.0
1916,47.0,0,120,2.0,58.0
1917,63.0,120,0,1.0,57.0
1918,44.0,120,120,2.0,58.0
1919,51.0,0,120,2.0,58.0
1920,39.0,0,120,3.0,58.0
1921,75.0,0,0,0.0,57.0
1922,75.0,120,0,0.0,52.0
1923,43.0,0,120,2.0,53.0
1924,51.0,0,120,2.0,53.0
1925,46.0,0,120,2.0,53.0
1926,39.0,120,120,3.0,53.0
1927,63.0,0,120,1.0,52.0
1928,44.0,0,120,3.0,49.0
1929,56.0,0,120,2.0,49.0
1930,68.0,120,240,0.0,50.0
1931,32.0,240,120,3.0,44.0
1932,44.0,240,120,3.0,28.0
1933,48.0,0,120,3.0,28.0
1934,63.0,960,480,0.0,34.0
1935,63.0,0,480,1.0,34.0
1936,68.0,0,120,0.0,29.0
1937,68.0,240,120,1.0,29.0
1938,56.0,240,120,3.0,37.0
1939,60.0,0,120,3.0,37.0
1940,58.0,0,120,3.0,30.0
1941,61.0,240,120,3.0,30.0
1942,80.0,0,480,0.0,33.0
1943,80.0,0,480,1.0,33.0
1944,79.0,0,120,1.0,30.0
1945,79.0,240,120,0.0,30.0
1946,49.0,0,120,3.0,36.0
1947,46.0,0,120,3.0,36.0
1948,51.0,240,120,3.0,29.0
1949,48.0,0,120,3.0,29.0
1950,67.0,240,480,0.0,34.0
1951,67.0,0,480,1.0,34.0
1952,68.0,0,120,0.0,32.0
1953,68.0,240,120,1.0,32.0
1954,60.0,0,120,3.0,41.0
1955,63.0,0,120,3.0,41.0
1956,62.0,240,120,3.0,34.0
1957,65.0,0,120,3.0,34.0
1958,80.0,0,480,1.0,38.0
1959,84.0,240,480,0.0,38.0
1960,82.0,0,120,0.0,33.0
1961,63.0,240,120,3.0,31.0
1962,67.0,0,120,3.0,31.0
1963,79.0,0,120,1.0,33.0
1964,56.0,0,120,3.0,40.0
1965,53.0,240,120,3.0,40.0
1966,65.0,0,240,1.0,38.0
1967,55.0,240,120,3.0,36.0
1968,58.0,0,120,3.0,36.0
1969,64.0,0,240,1.0,34.0
1970,73.0,0,480,0.0,38.0
1971,72.0,0,120,0.0,32.0
1972,56.0,0,120,3.0,33.0
1973,60.0,0,120,3.0,33.0
1974,63.0,240,120,1.0,32.0
1975,62.0,0,120,3.0,42.0
1976,68.0,0,120,3.0,42.0
1977,67.0,240,120,3.0,45.0
1978,70.0,0,120,3.0,45.0
1979,61.0,0,120,3.0,45.0
1980,77.0,0,480,1.0,45.0
1981,89.0,240,480,0.0,45.0
1982,68.0,0,120,3.0,36.0
1983,72.0,0,120,3.0,36.0
1984,87.0,0,120,0.0,41.0
1985,75.0,0,120,1.0,41.0
1986,60.0,240,120,3.0,36.0
1987,62.0,0,240,0.0,45.0
1988,59.0,240,240,1.0,45.0
1989,56.0,0,240,1.0,45.0
1990,41.0,0,240,3.0,44.0
1991,61.0,0,240,0.0,49.0
1992,43.0,240,240,3.0,47.0
1993,52.0,0,240,1.0,49.0
1994,58.0,0,240,1.0,49.0
1995,44.0,240,240,3.0,50.0
1996,51.0,0,240,1.0,52.0
1997,56.0,0,0,1.0,59.0
1998,60.0,0,240,0.0,52.0
1999,38.0,240,240,3.0,56.0
2000,39.0,240,240,3.0,47.0
2001,53.0,0,480,1.0,59.0
2002,59.0,0,480,0.0,59.0
2003,55.0,240,120,1.0,42.0
2004,58.0,0,120,0.0,42.0
2005,51.0,0,120,3.0,37.0
2006,32.0,0,120,3.0,28.0
2007,44.0,240,120,3.0,28.0
2008,51.0,0,480,0.0,36.0
2009,39.0,240,480,1.0,36.0
2010,68.0,240,120,0.0,28.0
2011,56.0,0,120,1.0,28.0
2012,56.0,0,60,3.0,32.0
2013,60.0,0,60,3.0,32.0
2014,60.0,0,60,3.0,29.0
2015,56.0,120,60,3.0,29.0
2016,61.0,0,120,3.0,27.0
2017,58.0,120,120,3.0,27.0
2018,68.0,0,480,1.0,34.0
2019,80.0,240,480,0.0,34.0
2020,67.0,0,120,1.0,30.0
2021,79.0,240,120,0.0,30.0
2022,49.0,0,60,3.0,34.0
2023,46.0,0,60,3.0,34.0
2024,46.0,0,60,3.0,31.0
2025,49.0,120,60,3.0,31.0
2026,48.0,0,120,3.0,30.0
2027,51.0,120,120,3.0,30.0
2028,67.0,240,480,0.0,37.0
2029,55.0,0,480,1.0,37.0
2030,56.0,240,120,1.0,31.0
2031,68.0,0,120,0.0,31.0
2032,60.0,0,60,3.0,39.0
2033,63.0,0,60,3.0,39.0
2034,60.0,0,60,3.0,33.0
2035,63.0,120,60,3.0,33.0
2036,65.0,120,60,3.0,32.0
2037,62.0,0,60,3.0,32.0
2038,65.0,0,60,3.0,30.0
2039,62.0,120,60,3.0,30.0
2040,80.0,240,480,1.0,39.0
2041,84.0,0,480,0.0,39.0
2042,79.0,0,120,1.0,33.0
2043,63.0,0,120,3.0,29.0
2044,67.0,120,120,3.0,29.0
2045,82.0,0,120,0.0,33.0
2046,53.0,0,60,3.0,40.0
2047,56.0,0,60,3.0,40.0
2048,53.0,0,60,3.0,36.0
2049,56.0,120,60,3.0,36.0
2050,65.0,0,240,1.0,39.0
2051,58.0,0,60,3.0,35.0
2052,55.0,120,60,3.0,35.0
2053,58.0,0,60,3.0,33.0
2054,55.0,120,60,3.0,33.0
2055,64.0,0,240,1.0,34.0
2056,73.0,240,480,0.0,39.0
2057,72.0,0,120,0.0,32.0
2058,56.0,0,120,3.0,32.0
2059,63.0,0,120,1.0,32.0
2060,60.0,120,120,3.0,32.0
2061,62.0,240,60,3.0,35.0
2062,68.0,0,60,3.0,35.0
2063,68.0,0,60,3.0,38.0
2064,62.0,120,60,3.0,38.0
2065,67.0,120,60,3.0,44.0
2066,61.0,0,60,3.0,44.0
2067,70.0,0,60,3.0,44.0
2068,67.0,0,60,3.0,37.0
2069,70.0,0,60,3.0,37.0
2070,61.0,120,60,3.0,37.0
2071,89.0,0,480,0.0,46.0
2072,77.0,0,480,1.0,46.0
2073,60.0,0,120,3.0,31.0
2074,72.0,0,120,3.0,31.0
2075,75.0,0,120,1.0,35.0
2076,68.0,0,120,3.0,31.0
2077,87.0,120,120,0.0,35.0
2078,53.0,0,60,3.0,61.0
2079,53.0,120,60,3.0,40.0
2080,51.0,120,120,3.0,32.0
2081,62.0,0,480,1.0,62.0
2082,59.0,0,480,1.0,62.0
2083,60.0,0,240,1.0,40.0
2084,68.0,240,720,0.0,62.0
2085,63.0,240,240,1.0,40.0
2086,39.0,0,60,3.0,34.0
2087,39.0,120,60,3.0,31.0
2088,61.0,240,240,1.0,34.0
2089,67.0,0,240,0.0,34.0
2090,58.0,0,240,1.0,34.0
2091,68.0,0,120,0.0,29.0
2092,56.0,0,120,1.0,29.0
2093,60.0,120,120,1.0,29.0
2094,44.0,0,120,3.0,29.0
2095,32.0,240,120,3.0,27.0
2096,46.0,240,120,3.0,36.0
2097,49.0,0,120,3.0,36.0
2098,48.0,0,120,3.0,32.0
2099,45.0,240,120,3.0,32.0
2100,54.0,0,480,1.0,42.0
2101,66.0,0,480,0.0,42.0
2102,65.0,0,120,0.0,34.0
2103,53.0,240,120,1.0,34.0
2104,57.0,240,120,3.0,42.0
2105,65.0,0,120,3.0,42.0
2106,58.0,0,120,3.0,38.0
2107,65.0,240,120,3.0,38.0
2108,87.0,0,480,0.0,47.0
2109,75.0,0,480,1.0,47.0
2110,73.0,0,120,1.0,38.0
2111,85.0,240,120,0.0,38.0
2112,44.0,0,120,3.0,47.0
2113,47.0,0,120,3.0,47.0
2114,46.0,240,120,3.0,42.0
2115,43.0,0,120,3.0,42.0
2116,64.0,240,480,0.0,48.0
2117,52.0,0,480,1.0,48.0
2118,63.0,240,120,0.0,45.0
2119,51.0,0,120,1.0,45.0
2120,55.0,240,120,3.0,52.0
2121,63.0,0,120,3.0,52.0
2122,63.0,240,120,3.0,48.0
2123,56.0,0,120,3.0,48.0
2124,85.0,0,480,0.0,53.0
2125,73.0,0,480,1.0,53.0
2126,72.0,0,120,1.0,49.0
2127,84.0,240,120,0.0,49.0
2128,44.0,0,120,3.0,69.0
2129,48.0,240,240,1.0,69.0
2130,53.0,240,0,1.0,59.0
2131,43.0,0,120,3.0,61.0
2132,60.0,0,480,0.0,69.0
2133,50.0,0,355,1.0,59.0
2134,31.0,0,120,3.0,57.0
2135,59.0,240,127,0.0,59.0
2136,48.0,0,120,3.0,73.0
2137,53.0,240,120,3.0,65.0
2138,61.0,0,480,1.0,74.0
2139,70.0,0,480,0.0,74.0
2140,64.0,240,480,1.0,74.0
2141,67.0,0,480,1.0,74.0
2142,65.0,240,120,1.0,66.0
2143,69.0,0,120,0.0,66.0
2144,60.0,0,120,1.0,66.0
2145,41.0,0,120,3.0,61.0
2146,57.0,0,120,3.0,78.0
2147,72.0,0,240,1.0,80.0
2148,65.0,240,240,1.0,80.0
2149,58.0,0,120,3.0,71.0
2150,77.0,0,480,0.0,80.0
2151,67.0,240,360,1.0,72.0
2152,46.0,240,120,3.0,69.0
2153,75.0,0,120,0.0,68.0
2154,70.0,0,365,1.0,72.0
2155,47.0,240,120,3.0,83.0
2156,48.0,240,120,3.0,75.0
2157,56.0,0,480,1.0,83.0
2158,53.0,0,480,1.0,83.0
2159,62.0,0,480,0.0,83.0
2160,51.0,0,120,1.0,75.0
2161,63.0,0,120,0.0,75.0
2162,36.0,0,120,3.0,72.0
2163,55.0,240,120,1.0,75.0
2164,57.0,240,120,3.0,88.0
2165,65.0,0,240,1.0,89.0
2166,72.0,0,240,1.0,89.0
2167,58.0,0,120,3.0,80.0
2168,67.0,240,240,1.0,78.0
2169,70.0,0,240,1.0,78.0
2170,77.0,0,480,0.0,89.0
2171,70.0,0,120,1.0,76.0
2172,75.0,0,120,0.0,76.0
2173,46.0,240,120,3.0,78.0
2174,67.0,0,120,1.0,76.0
2175,34.0,0,120,3.0,99.0
2176,62.0,0,240,0.0,94.0
2177,53.0,240,240,1.0,94.0
2178,56.0,0,240,1.0,94.0
2179,39.0,240,60,3.0,91.0
2180,55.0,0,120,1.0,83.0
2181,51.0,0,120,1.0,83.0
2182,63.0,0,120,0.0,83.0
2183,49.0,120,60,3.0,84.0
2184,48.0,60,60,3.0,81.0
2185,46.0,60,60,3.0,77.0
2186,44.0,60,60,3.0,72.0
2187,43.0,60,60,3.0,67.0
2188,63.0,0,240,0.0,74.0
2189,41.0,60,60,3.0,62.0
2190,56.0,0,240,1.0,74.0
2191,53.0,0,240,1.0,74.0
2192,39.0,0,60,3.0,58.0
2193,37.0,60,60,3.0,53.0
2194,36.0,60,60,3.0,48.0
2195,34.0,60,60,3.0,44.0
2196,55.0,0,240,1.0,61.0
2197,58.0,0,240,1.0,61.0
2198,56.0,0,240,1.0,46.0
2199,63.0,60,480,0.0,61.0
2200,60.0,60,240,1.0,46.0
2201,32.0,0,240,3.0,39.0
2202,68.0,240,120,0.0,26.0
2203,56.0,0,60,3.0,34.0
2204,60.0,0,60,3.0,34.0
2205,56.0,0,60,3.0,31.0
2206,60.0,120,60,3.0,31.0
2207,58.0,0,120,3.0,29.0
2208,61.0,120,120,3.0,29.0
2209,80.0,0,480,0.0,32.0
2210,68.0,240,480,1.0,32.0
2211,79.0,240,120,0.0,28.0
2212,67.0,0,120,1.0,28.0
2213,46.0,0,60,3.0,37.0
2214,49.0,0,60,3.0,37.0
2215,46.0,0,60,3.0,32.0
2216,49.0,120,60,3.0,32.0
2217,51.0,120,120,3.0,30.0
2218,48.0,0,120,3.0,30.0
2219,55.0,0,480,1.0,34.0
2220,67.0,240,480,0.0,34.0
2221,56.0,240,115,1.0,30.0
2222,68.0,0,120,0.0,30.0
2223,60.0,0,60,3.0,40.0
2224,63.0,240,60,3.0,40.0
2225,63.0,0,60,3.0,35.0
2226,60.0,120,60,3.0,35.0
2227,65.0,120,60,3.0,34.0
2228,62.0,0,60,3.0,34.0
2229,65.0,120,60,3.0,32.0
2230,62.0,0,60,3.0,32.0
2231,80.0,0,480,1.0,36.0
2232,84.0,0,480,0.0,36.0
2233,79.0,0,115,1.0,32.0
2234,63.0,120,120,3.0,31.0
2235,67.0,0,120,3.0,31.0
2236,82.0,0,125,0.0,32.0
2237,56.0,0,60,3.0,42.0
2238,53.0,0,60,3.0,42.0
2239,56.0,0,60,3.0,38.0
2240,53.0,120,60,3.0,38.0
2241,65.0,0,240,1.0,40.0
2242,58.0,0,60,3.0,37.0
2243,55.0,0,60,3.0,37.0
2244,58.0,120,60,3.0,35.0
2245,55.0,0,60,3.0,35.0
2246,64.0,120,240,1.0,33.0
2247,73.0,240,480,0.0,40.0
2248,63.0,0,120,1.0,33.0
2249,72.0,0,120,0.0,33.0
2250,60.0,120,120,3.0,34.0
2251,56.0,0,120,3.0,34.0
2252,62.0,240,60,3.0,38.0
2253,68.0,0,60,3.0,38.0
2254,68.0,0,60,3.0,41.0
2255,62.0,120,60,3.0,41.0
2256,61.0,0,60,3.0,48.0
2257,67.0,0,60,3.0,48.0
2258,70.0,120,60,3.0,48.0
2259,67.0,0,60,3.0,41.0
2260,70.0,120,60,3.0,41.0
2261,61.0,0,60,3.0,41.0
2262,77.0,0,480,1.0,48.0
2263,89.0,0,480,0.0,48.0
2264,68.0,0,120,3.0,37.0
2265,72.0,0,120,3.0,37.0
2266,60.0,0,120,3.0,37.0
2267,87.0,120,120,0.0,37.0
2268,75.0,0,125,1.0,37.0
2269,53.0,0,60,3.0,62.0
2270,53.0,120,60,3.0,42.0
2271,51.0,120,120,3.0,33.0
2272,62.0,0,480,1.0,60.0
2273,59.0,0,480,1.0,60.0
2274,63.0,0,240,1.0,40.0
2275,68.0,240,720,0.0,60.0
2276,60.0,240,240,1.0,40.0
2277,39.0,0,60,3.0,33.0
2278,39.0,120,60,3.0,28.0
2279,67.0,0,240,0.0,35.0
2280,58.0,240,240,1.0,35.0
2281,61.0,0,240,1.0,35.0
2282,56.0,0,120,1.0,30.0
2283,60.0,0,120,1.0,30.0
2284,44.0,120,120,3.0,27.0
2285,68.0,0,120,0.0,30.0
2286,32.0,240,120,3.0,25.0
2287,65.0,80,80,0.0,40.0
2288,60.0,960,230,1.0,40.0
2289,63.0,80,80,0.0,40.0
2290,65.0,80,80,0.0,41.0
2291,51.0,0,91,2.0,40.0
2292,60.0,80,230,1.0,40.0
2293,56.0,0,80,2.0,41.0
2294,44.0,0,0,3.0,41.0
2295,63.0,80,80,0.0,41.0
2296,70.0,80,80,0.0,41.0
2297,51.0,0,91,2.0,41.0
2298,60.0,80,230,1.0,41.0
2299,56.0,80,80,2.0,41.0
2300,68.0,0,80,0.0,42.0
2301,70.0,0,80,0.0,42.0
2302,51.0,80,91,2.0,42.0
2303,60.0,0,230,1.0,42.0
2304,44.0,80,240,3.0,41.0
2305,68.0,80,80,0.0,42.0
2306,56.0,0,80,2.0,42.0
2307,68.0,0,80,0.0,43.0
2308,51.0,80,91,2.0,42.0
2309,61.0,0,230,1.0,43.0
2310,67.0,0,80,0.0,43.0
2311,46.0,80,240,3.0,42.0
2312,58.0,80,80,2.0,42.0
2313,67.0,0,80,0.0,44.0
2314,51.0,80,91,2.0,43.0
2315,61.0,80,230,1.0,43.0
2316,46.0,0,240,3.0,43.0
2317,65.0,0,80,0.0,44.0
2318,58.0,80,80,2.0,43.0
2319,67.0,80,80,0.0,44.0
2320,51.0,0,91,2.0,43.0
2321,61.0,80,230,1.0,44.0
2322,46.0,0,240,3.0,43.0
2323,58.0,80,80,2.0,44.0
2324,63.0,0,80,0.0,45.0
2325,70.0,80,80,0.0,45.0
2326,51.0,0,91,2.0,44.0
2327,63.0,80,230,1.0,45.0
2328,48.0,0,240,3.0,44.0
2329,68.0,80,80,0.0,45.0
2330,60.0,0,80,2.0,44.0
2331,70.0,80,80,0.0,46.0
2332,51.0,0,91,2.0,45.0
2333,63.0,80,230,1.0,46.0
2334,68.0,80,80,0.0,46.0
2335,60.0,0,80,2.0,45.0
2336,48.0,0,240,3.0,45.0
2337,72.0,0,80,0.0,47.0
2338,51.0,80,91,2.0,45.0
2339,63.0,80,230,1.0,46.0
2340,55.0,0,80,2.0,46.0
2341,43.0,0,240,3.0,45.0
2342,70.0,80,80,0.0,47.0
2343,73.0,0,80,0.0,47.0
2344,70.0,0,80,1.0,47.0
2345,51.0,80,91,2.0,48.0
2346,63.0,80,230,1.0,49.0
2347,44.0,0,240,3.0,49.0
2348,68.0,0,80,1.0,44.0
2349,72.0,0,80,0.0,44.0
2350,56.0,80,80,2.0,46.0
2351,68.0,0,80,1.0,40.0
2352,51.0,0,0,2.0,42.0
2353,72.0,0,80,0.0,40.0
2354,70.0,80,50,0.0,40.0
2355,63.0,80,230,1.0,42.0
2356,67.0,0,80,1.0,40.0
2357,39.0,0,240,3.0,45.0
2358,72.0,40,40,0.0,40.0
2359,70.0,40,60,0.0,41.0
2360,69.0,60,60,0.0,41.0
2361,51.0,20,80,2.0,42.0
2362,70.0,40,60,0.0,41.0
2363,54.0,40,80,2.0,43.0
2364,42.0,0,240,3.0,42.0
2365,72.0,20,60,0.0,42.0
2366,53.0,0,80,2.0,44.0
2367,75.0,80,80,0.0,43.0
2368,68.0,60,236,1.0,42.0
2369,56.0,0,80,2.0,44.0
2370,41.0,0,240,3.0,43.0
2371,73.0,80,80,0.0,43.0
2372,56.0,0,80,2.0,45.0
2373,75.0,80,80,0.0,44.0
2374,68.0,80,236,1.0,44.0
2375,73.0,0,80,0.0,45.0
2376,61.0,80,80,2.0,46.0
2377,53.0,0,240,3.0,45.0
2378,56.0,80,80,2.0,47.0
2379,73.0,0,80,0.0,46.0
2380,68.0,80,236,1.0,45.0
2381,51.0,0,240,3.0,46.0
2382,60.0,80,80,2.0,47.0
2383,72.0,0,80,0.0,46.0
2384,53.0,0,80,2.0,48.0
2385,79.0,80,80,0.0,47.0
2386,68.0,0,236,1.0,47.0
2387,50.0,80,240,3.0,47.0
2388,77.0,0,80,0.0,48.0
2389,58.0,80,80,2.0,48.0
2390,51.0,80,80,2.0,49.0
2391,72.0,0,80,0.0,49.0
2392,67.0,0,236,1.0,48.0
2393,49.0,80,240,3.0,49.0
2394,58.0,80,80,2.0,50.0
2395,51.0,80,80,2.0,51.0
2396,77.0,0,80,0.0,51.0
2397,68.0,0,236,1.0,50.0
2398,56.0,80,80,2.0,51.0
2399,48.0,80,240,3.0,50.0
2400,75.0,0,80,0.0,51.0
2401,53.0,0,80,2.0,52.0
2402,75.0,80,80,0.0,52.0
2403,68.0,80,236,1.0,52.0
2404,74.0,80,80,0.0,53.0
2405,41.0,0,240,3.0,52.0
2406,56.0,0,80,2.0,52.0
2407,75.0,0,80,0.0,54.0
2408,72.0,80,80,0.0,54.0
2409,55.0,0,80,2.0,53.0
2410,64.0,0,236,1.0,53.0
2411,73.0,80,80,0.0,54.0
2412,58.0,0,80,2.0,54.0
2413,43.0,80,240,3.0,53.0
2414,70.0,0,80,1.0,54.0
2415,56.0,0,80,2.0,55.0
2416,70.0,80,80,1.0,55.0
2417,73.0,0,80,0.0,55.0
2418,63.0,80,236,1.0,55.0
2419,68.0,0,80,1.0,56.0
2420,60.0,80,80,2.0,55.0
2421,72.0,0,80,0.0,56.0
2422,44.0,0,240,3.0,54.0
2423,51.0,80,0,3.0,53.0
2424,39.0,0,240,3.0,57.0
2425,66.0,0,240,1.0,53.0
2426,51.0,0,0,3.0,52.0
2427,69.0,80,240,0.0,53.0
2428,53.0,80,80,3.0,50.0
2429,70.0,80,180,0.0,42.0
2430,67.0,0,180,1.0,42.0
2431,51.0,80,80,3.0,48.0
2432,49.0,0,80,3.0,47.0
2433,63.0,80,108,0.0,42.0
2434,75.0,60,60,1.0,34.0
2435,48.0,20,80,3.0,45.0
2436,63.0,40,108,0.0,43.0
2437,46.0,40,80,3.0,43.0
2438,75.0,20,60,1.0,35.0
2439,75.0,0,60,1.0,35.0
2440,51.0,60,60,2.0,38.0
2441,56.0,60,60,2.0,38.0
2442,77.0,0,60,1.0,36.0
2443,63.0,0,240,0.0,43.0
2444,44.0,60,240,3.0,38.0
2445,51.0,60,60,2.0,39.0
2446,75.0,0,60,1.0,36.0
2447,51.0,60,60,2.0,39.0
2448,75.0,0,60,1.0,37.0
2449,77.0,0,60,1.0,37.0
2450,56.0,60,60,2.0,40.0
2451,75.0,0,60,1.0,37.0
2452,51.0,60,60,2.0,40.0
2453,48.0,60,0,3.0,40.0
2454,68.0,0,0,0.0,46.0
2455,75.0,0,60,1.0,38.0
2456,51.0,60,60,2.0,40.0
2457,77.0,60,60,1.0,38.0
2458,56.0,0,60,2.0,41.0
2459,51.0,0,60,2.0,41.0
2460,75.0,60,60,1.0,39.0
2461,77.0,0,60,1.0,39.0
2462,68.0,60,120,0.0,48.0
2463,51.0,0,60,2.0,42.0
2464,75.0,60,60,1.0,39.0
2465,77.0,0,60,1.0,40.0
2466,55.0,60,60,2.0,42.0
2467,67.0,0,60,0.0,49.0
2468,75.0,0,60,1.0,40.0
2469,46.0,0,240,3.0,41.0
2470,51.0,60,60,2.0,42.0
2471,77.0,60,60,1.0,40.0
2472,75.0,60,60,1.0,41.0
2473,51.0,0,60,2.0,43.0
2474,67.0,0,120,0.0,49.0
2475,77.0,0,60,1.0,41.0
2476,58.0,60,60,2.0,43.0
2477,65.0,0,60,0.0,50.0
2478,49.0,0,240,3.0,43.0
2479,75.0,0,60,1.0,41.0
2480,51.0,60,60,2.0,43.0
2481,77.0,0,60,1.0,42.0
2482,67.0,60,120,0.0,51.0
2483,51.0,60,60,2.0,44.0
2484,75.0,0,60,1.0,42.0
2485,58.0,0,60,2.0,44.0
2486,77.0,0,60,1.0,42.0
2487,63.0,60,60,0.0,52.0
2488,51.0,0,60,2.0,45.0
2489,49.0,0,240,3.0,44.0
2490,75.0,60,60,1.0,43.0
2491,51.0,60,60,2.0,45.0
2492,75.0,0,60,1.0,43.0
2493,56.0,60,60,2.0,46.0
2494,77.0,0,60,1.0,44.0
2495,75.0,0,60,1.0,44.0
2496,51.0,60,60,2.0,46.0
2497,68.0,60,240,0.0,52.0
2498,48.0,0,240,3.0,45.0
2499,51.0,0,60,2.0,46.0
2500,75.0,60,60,1.0,45.0
2501,56.0,0,60,2.0,47.0
2502,77.0,60,60,1.0,45.0
2503,48.0,0,240,3.0,46.0
2504,51.0,60,60,2.0,47.0
2505,68.0,60,240,0.0,54.0
2506,75.0,0,60,1.0,45.0
2507,51.0,60,60,2.0,48.0
2508,75.0,0,60,1.0,46.0
2509,55.0,60,60,2.0,48.0
2510,77.0,0,60,1.0,46.0
2511,51.0,60,60,2.0,48.0
2512,75.0,0,60,1.0,47.0
2513,70.0,60,240,0.0,55.0
2514,43.0,0,240,3.0,47.0
2515,51.0,60,60,2.0,48.0
2516,75.0,0,60,1.0,47.0
2517,56.0,0,60,2.0,47.0
2518,77.0,60,60,1.0,46.0
2519,44.0,0,240,3.0,49.0
2520,51.0,0,60,2.0,47.0
2521,72.0,60,240,0.0,57.0
2522,68.0,0,240,1.0,57.0
2523,75.0,60,60,1.0,45.0
2524,51.0,0,60,2.0,45.0
2525,75.0,60,60,1.0,43.0
2526,77.0,0,60,1.0,42.0
2527,55.0,60,60,2.0,45.0
2528,70.0,60,190,0.0,51.0
2529,67.0,0,240,1.0,47.0
2530,75.0,60,60,1.0,41.0
2531,51.0,0,60,2.0,44.0
2532,39.0,0,240,3.0,46.0
2533,72.0,20,40,0.0,45.0
2534,70.0,40,60,0.0,45.0
2535,51.0,60,60,2.0,44.0
2536,69.0,0,60,0.0,45.0
2537,54.0,0,60,2.0,45.0
2538,70.0,60,60,0.0,46.0
2539,72.0,0,60,0.0,46.0
2540,51.0,60,60,2.0,46.0
2541,42.0,0,240,3.0,44.0
2542,53.0,60,60,2.0,47.0
2543,80.0,0,60,1.0,42.0
2544,82.0,0,60,1.0,43.0
2545,56.0,60,60,2.0,47.0
2546,80.0,60,60,1.0,43.0
2547,61.0,0,60,2.0,48.0
2548,73.0,60,240,0.0,50.0
2549,41.0,0,240,3.0,46.0
2550,80.0,0,60,1.0,44.0
2551,56.0,60,60,2.0,49.0
2552,82.0,60,60,1.0,45.0
2553,61.0,0,60,2.0,50.0
2554,80.0,60,60,1.0,46.0
2555,73.0,0,240,0.0,52.0
2556,53.0,60,240,3.0,49.0
2557,56.0,0,60,2.0,50.0
2558,80.0,60,60,1.0,47.0
2559,56.0,0,60,2.0,52.0
2560,60.0,0,60,2.0,52.0
2561,82.0,60,60,1.0,47.0
2562,51.0,60,240,3.0,51.0
2563,72.0,0,240,0.0,55.0
2564,80.0,0,60,1.0,48.0
2565,56.0,60,60,2.0,53.0
2566,53.0,60,60,2.0,54.0
2567,80.0,0,60,1.0,49.0
2568,82.0,0,60,1.0,50.0
2569,58.0,60,60,2.0,55.0
2570,80.0,60,60,1.0,50.0
2571,53.0,0,60,2.0,55.0
2572,77.0,0,240,0.0,57.0
2573,50.0,60,240,3.0,53.0
2574,80.0,0,60,1.0,51.0
2575,51.0,60,60,2.0,56.0
2576,58.0,60,60,2.0,57.0
2577,82.0,0,60,1.0,52.0
2578,80.0,0,60,1.0,52.0
2579,70.0,60,240,0.0,60.0
2580,51.0,60,60,2.0,58.0
2581,49.0,0,240,3.0,56.0
2582,80.0,60,60,1.0,54.0
2583,51.0,0,60,2.0,59.0
2584,82.0,60,60,1.0,54.0
2585,56.0,0,60,2.0,59.0
2586,80.0,0,60,1.0,55.0
2587,51.0,60,60,2.0,59.0
2588,48.0,0,240,3.0,58.0
2589,75.0,60,240,0.0,62.0
2590,48.0,0,60,2.0,49.0
2591,75.0,60,60,1.0,49.0
2592,51.0,60,60,2.0,48.0
2593,77.0,0,60,1.0,48.0
2594,56.0,60,60,2.0,47.0
2595,68.0,60,240,0.0,65.0
2596,39.0,0,240,3.0,49.0
2597,75.0,0,60,1.0,48.0
2598,75.0,0,60,1.0,46.0
2599,48.0,60,60,2.0,46.0
2600,51.0,60,60,2.0,46.0
2601,77.0,0,60,1.0,45.0
2602,68.0,0,240,1.0,56.0
2603,75.0,60,60,1.0,45.0
2604,39.0,0,240,3.0,47.0
2605,72.0,60,240,0.0,56.0
2606,56.0,0,60,2.0,45.0
2607,49.0,0,60,2.0,44.0
2608,75.0,60,60,1.0,43.0
2609,51.0,0,60,2.0,44.0
2610,77.0,60,60,1.0,42.0
2611,67.0,60,240,1.0,51.0
2612,39.0,0,240,3.0,45.0
2613,55.0,60,60,2.0,43.0
2614,75.0,0,60,1.0,42.0
2615,70.0,0,240,0.0,51.0
2616,48.0,60,60,2.0,42.0
2617,51.0,60,60,2.0,41.0
2618,68.0,0,240,0.0,46.0
2619,56.0,60,60,2.0,41.0
2620,44.0,60,0,3.0,40.0
2621,76.0,240,60,0.0,51.0
2622,77.0,60,60,0.0,52.0
2623,76.0,60,60,0.0,53.0
2624,77.0,60,0,0.0,55.0
2625,65.0,60,60,2.0,54.0
2626,60.0,0,60,2.0,54.0
2627,57.0,0,240,3.0,55.0
2628,65.0,60,60,2.0,54.0
2629,65.0,60,60,2.0,53.0
2630,89.0,60,240,0.0,69.0
2631,58.0,0,60,2.0,52.0
2632,55.0,60,240,3.0,53.0
2633,65.0,60,60,2.0,52.0
2634,88.0,60,240,0.0,66.0
2635,65.0,60,60,2.0,51.0
2636,60.0,0,60,2.0,51.0
2637,57.0,60,240,3.0,52.0
2638,65.0,60,60,2.0,50.0
2639,87.0,60,240,0.0,62.0
2640,65.0,0,60,2.0,49.0
2641,85.0,60,60,0.0,60.0
2642,61.0,0,60,2.0,49.0
2643,84.0,60,60,0.0,59.0
2644,65.0,60,60,2.0,49.0
2645,82.0,0,60,0.0,58.0
2646,58.0,60,240,3.0,50.0
2647,81.0,0,60,0.0,57.0
2648,82.0,60,60,0.0,56.0
2649,78.0,60,60,0.0,55.0
2650,46.0,60,240,3.0,48.0
2651,77.0,60,60,0.0,54.0
2652,75.0,60,60,0.0,54.0
2653,73.0,60,60,0.0,53.0
2654,72.0,60,60,0.0,52.0
2655,70.0,60,60,0.0,51.0
2656,75.0,0,60,0.0,50.0
2657,63.0,60,60,2.0,44.0
2658,58.0,0,60,2.0,44.0
2659,55.0,60,240,3.0,45.0
2660,63.0,60,60,2.0,44.0
2661,63.0,60,60,2.0,43.0
2662,87.0,60,240,0.0,63.0
2663,56.0,60,60,2.0,42.0
2664,53.0,60,240,3.0,43.0
2665,63.0,60,60,2.0,42.0
2666,63.0,60,60,2.0,41.0
2667,86.0,0,240,0.0,59.0
2668,58.0,60,60,2.0,41.0
2669,63.0,60,60,2.0,40.0
2670,55.0,60,240,3.0,42.0
2671,85.0,0,180,0.0,55.0
2672,63.0,60,60,2.0,40.0
2673,84.0,0,60,0.0,52.0
2674,82.0,60,60,0.0,51.0
2675,60.0,0,60,2.0,39.0
2676,80.0,60,60,0.0,50.0
2677,63.0,0,60,2.0,39.0
2678,56.0,60,240,3.0,40.0
2679,79.0,60,60,0.0,49.0
2680,80.0,60,60,0.0,48.0
2681,74.0,60,60,0.0,47.0
2682,44.0,0,240,3.0,38.0
2683,75.0,60,60,0.0,46.0
2684,71.0,60,60,0.0,45.0
2685,72.0,60,60,0.0,44.0
2686,73.0,60,60,0.0,43.0
2687,74.0,60,60,0.0,42.0
2688,63.0,60,60,1.0,38.0
2689,68.0,60,60,1.0,38.0
2690,48.0,0,230,3.0,43.0
2691,63.0,60,60,1.0,39.0
2692,60.0,0,120,3.0,44.0
2693,75.0,60,240,0.0,46.0
2694,65.0,60,60,1.0,39.0
2695,68.0,60,60,1.0,40.0
2696,47.0,0,230,3.0,45.0
2697,59.0,0,120,3.0,46.0
2698,74.0,60,240,0.0,47.0
2699,65.0,60,60,1.0,40.0
2700,67.0,60,60,1.0,41.0
2701,73.0,0,60,1.0,41.0
2702,46.0,60,230,3.0,47.0
2703,76.0,0,240,0.0,49.0
2704,58.0,60,120,3.0,47.0
2705,67.0,60,60,1.0,42.0
2706,68.0,60,60,1.0,43.0
2707,72.0,60,60,1.0,43.0
2708,44.0,60,230,3.0,48.0
2709,56.0,0,120,3.0,49.0
2710,77.0,0,240,0.0,50.0
2711,68.0,60,60,1.0,43.0
2712,70.0,60,60,1.0,44.0
2713,76.0,0,60,1.0,44.0
2714,43.0,60,230,3.0,50.0
2715,70.0,60,60,1.0,45.0
2716,55.0,60,120,3.0,51.0
2717,79.0,0,240,0.0,52.0
2718,72.0,60,60,1.0,46.0
2719,77.0,0,60,1.0,46.0
2720,41.0,60,230,3.0,52.0
2721,80.0,0,240,0.0,53.0
2722,53.0,60,120,3.0,53.0
2723,72.0,60,60,1.0,46.0
2724,67.0,0,60,1.0,47.0
2725,66.0,60,60,1.0,47.0
2726,67.0,60,60,1.0,48.0
2727,46.0,60,230,3.0,53.0
2728,58.0,0,120,3.0,54.0
2729,66.0,60,60,1.0,48.0
2730,67.0,60,60,1.0,48.0
2731,70.0,60,60,1.0,49.0
2732,68.0,60,60,1.0,49.0
2733,46.0,0,230,3.0,55.0
2734,58.0,0,120,3.0,56.0
2735,67.0,60,60,1.0,50.0
2736,75.0,0,480,0.0,55.0
2737,65.0,0,60,1.0,62.0
2738,68.0,60,60,1.0,50.0
2739,67.0,60,60,1.0,51.0
2740,47.0,60,230,3.0,69.0
2741,59.0,0,120,3.0,58.0
2742,65.0,60,60,1.0,51.0
2743,74.0,0,240,0.0,65.0
2744,63.0,60,60,1.0,52.0
2745,65.0,60,60,1.0,52.0
2746,67.0,60,60,1.0,52.0
2747,48.0,0,230,3.0,59.0
2748,60.0,0,120,3.0,59.0
2749,68.0,60,60,1.0,53.0
2750,70.0,0,60,1.0,53.0
2751,71.0,60,60,1.0,54.0
2752,72.0,0,60,1.0,54.0
2753,44.0,60,230,3.0,60.0
2754,71.0,60,60,1.0,54.0
2755,75.0,0,480,0.0,59.0
2756,56.0,60,120,3.0,61.0
2757,72.0,60,60,1.0,68.0
2758,71.0,60,60,1.0,55.0
2759,74.0,60,60,1.0,56.0
2760,45.0,0,230,3.0,76.0
2761,57.0,0,120,3.0,63.0
2762,77.0,0,240,0.0,69.0
2763,72.0,60,60,1.0,56.0
2764,67.0,0,60,1.0,56.0
2765,66.0,60,60,1.0,57.0
2766,67.0,60,60,1.0,57.0
2767,46.0,60,230,3.0,64.0
2768,58.0,0,120,3.0,65.0
2769,66.0,60,60,1.0,58.0
2770,67.0,0,60,1.0,58.0
2771,70.0,60,60,1.0,58.0
2772,68.0,60,60,1.0,59.0
2773,46.0,60,230,3.0,65.0
2774,75.0,0,480,0.0,64.0
2775,67.0,60,60,1.0,59.0
2776,58.0,0,120,3.0,66.0
2777,65.0,0,60,1.0,73.0
2778,68.0,60,60,1.0,60.0
2779,67.0,0,60,1.0,60.0
2780,34.0,0,230,3.0,78.0
2781,65.0,60,60,1.0,61.0
2782,74.0,60,240,0.0,74.0
2783,46.0,60,230,3.0,68.0
2784,63.0,60,60,1.0,61.0
2785,67.0,0,60,1.0,62.0
2786,39.0,0,230,3.0,69.0
2787,63.0,60,60,1.0,62.0
2788,51.0,60,120,3.0,70.0
2789,75.0,60,240,0.0,68.0
2790,63.0,60,60,1.0,63.0
2791,68.0,60,60,1.0,63.0
2792,41.0,0,230,3.0,71.0
2793,53.0,0,120,3.0,71.0
2794,74.0,60,240,0.0,70.0
2795,63.0,60,60,1.0,64.0
2796,63.0,60,60,1.0,65.0
2797,70.0,60,60,1.0,65.0
2798,43.0,60,230,3.0,72.0
2799,63.0,60,60,1.0,65.0
2800,55.0,0,120,3.0,73.0
2801,73.0,0,240,0.0,71.0
2802,72.0,60,60,1.0,36.0
2803,63.0,0,120,0.0,46.0
2804,51.0,60,60,2.0,40.0
2805,75.0,0,60,1.0,36.0
2806,77.0,0,60,1.0,36.0
2807,68.0,60,60,0.0,47.0
2808,56.0,0,60,2.0,40.0
2809,44.0,0,220,3.0,40.0
2810,75.0,0,60,1.0,37.0
2811,51.0,60,60,2.0,41.0
2812,68.0,0,60,0.0,48.0
2813,77.0,0,60,1.0,37.0
2814,75.0,0,60,1.0,37.0
2815,51.0,60,60,2.0,41.0
2816,56.0,60,60,2.0,41.0
2817,77.0,0,60,1.0,38.0
2818,68.0,0,60,0.0,49.0
2819,48.0,60,220,3.0,41.0
2820,51.0,0,60,2.0,42.0
2821,75.0,60,60,1.0,38.0
2822,68.0,0,60,0.0,50.0
2823,77.0,0,60,1.0,39.0
2824,51.0,60,60,2.0,42.0
2825,75.0,0,60,1.0,39.0
2826,56.0,0,60,2.0,43.0
2827,77.0,0,60,1.0,39.0
2828,68.0,60,60,0.0,50.0
2829,48.0,60,220,3.0,42.0
2830,75.0,60,60,1.0,40.0
2831,51.0,0,60,2.0,43.0
2832,77.0,0,60,1.0,40.0
2833,68.0,0,120,0.0,51.0
2834,75.0,60,60,1.0,40.0
2835,51.0,0,60,2.0,43.0
2836,77.0,0,60,1.0,41.0
2837,67.0,0,60,0.0,52.0
2838,55.0,60,60,2.0,44.0
2839,46.0,60,220,3.0,43.0
2840,51.0,0,60,2.0,44.0
2841,75.0,60,60,1.0,41.0
2842,77.0,0,60,1.0,41.0
2843,67.0,60,120,0.0,53.0
2844,75.0,0,60,1.0,42.0
2845,51.0,60,60,2.0,44.0
2846,65.0,60,60,0.0,53.0
2847,58.0,0,60,2.0,45.0
2848,77.0,0,60,1.0,42.0
2849,49.0,0,220,3.0,44.0
2850,75.0,0,60,1.0,42.0
2851,51.0,60,60,2.0,45.0
2852,77.0,60,60,1.0,43.0
2853,67.0,0,120,0.0,54.0
2854,51.0,0,60,2.0,46.0
2855,75.0,60,60,1.0,43.0
2856,58.0,0,60,2.0,46.0
2857,63.0,60,60,0.0,55.0
2858,77.0,0,60,1.0,43.0
2859,49.0,0,220,3.0,45.0
2860,51.0,0,60,2.0,46.0
2861,75.0,60,60,1.0,44.0
2862,77.0,0,60,1.0,44.0
2863,51.0,0,60,2.0,47.0
2864,75.0,60,60,1.0,45.0
2865,56.0,0,60,2.0,47.0
2866,77.0,60,60,1.0,45.0
2867,48.0,60,220,3.0,46.0
2868,51.0,60,60,2.0,47.0
2869,75.0,0,60,1.0,45.0
2870,68.0,0,0,0.0,57.0
2871,77.0,60,60,1.0,46.0
2872,75.0,60,60,1.0,46.0
2873,51.0,0,60,2.0,48.0
2874,56.0,60,60,2.0,48.0
2875,77.0,0,60,1.0,46.0
2876,48.0,0,220,3.0,47.0
2877,75.0,0,60,1.0,47.0
2878,51.0,60,60,2.0,48.0
2879,77.0,60,60,1.0,47.0
2880,75.0,0,60,1.0,47.0
2881,51.0,60,60,2.0,49.0
2882,55.0,0,60,2.0,49.0
2883,77.0,60,60,1.0,48.0
2884,43.0,0,220,3.0,49.0
2885,75.0,0,60,1.0,48.0
2886,70.0,0,240,0.0,59.0
2887,51.0,60,60,2.0,49.0
2888,77.0,60,60,1.0,51.0
2889,75.0,0,60,1.0,49.0
2890,51.0,60,60,2.0,50.0
2891,56.0,60,60,2.0,49.0
2892,77.0,0,60,1.0,48.0
2893,44.0,0,220,3.0,51.0
2894,51.0,60,60,2.0,48.0
2895,75.0,0,60,1.0,46.0
2896,72.0,0,240,1.0,51.0
2897,68.0,0,240,1.0,61.0
2898,72.0,0,240,0.0,61.0
2899,77.0,0,60,1.0,44.0
2900,75.0,60,60,1.0,43.0
2901,51.0,0,60,2.0,46.0
2902,77.0,0,60,1.0,41.0
2903,55.0,60,60,2.0,46.0
2904,39.0,60,220,3.0,47.0
2905,75.0,40,60,1.0,44.0
2906,67.0,0,240,1.0,54.0
2907,51.0,20,60,2.0,46.0
2908,70.0,0,0,0.0,45.0
2909,72.0,20,40,0.0,45.0
2910,51.0,60,60,2.0,47.0
2911,69.0,0,60,0.0,46.0
2912,70.0,0,60,0.0,46.0
2913,54.0,60,60,2.0,48.0
2914,42.0,40,220,3.0,47.0
2915,51.0,0,60,2.0,48.0
2916,72.0,60,60,0.0,47.0
2917,53.0,60,60,2.0,49.0
2918,80.0,0,60,1.0,42.0
2919,56.0,0,60,2.0,49.0
2920,82.0,60,60,1.0,43.0
2921,41.0,0,220,3.0,48.0
2922,61.0,0,60,2.0,49.0
2923,73.0,0,0,0.0,54.0
2924,80.0,60,60,1.0,44.0
2925,82.0,0,60,1.0,44.0
2926,56.0,60,60,2.0,50.0
2927,80.0,0,60,1.0,45.0
2928,61.0,60,60,2.0,51.0
2929,82.0,0,60,1.0,46.0
2930,53.0,60,220,3.0,50.0
2931,56.0,0,60,2.0,51.0
2932,80.0,60,60,1.0,46.0
2933,82.0,60,60,1.0,47.0
2934,80.0,60,60,1.0,48.0
2935,56.0,0,60,2.0,52.0
2936,82.0,0,60,1.0,48.0
2937,60.0,60,60,2.0,52.0
2938,51.0,0,220,3.0,51.0
2939,72.0,0,240,0.0,56.0
2940,80.0,0,60,1.0,49.0
2941,56.0,60,60,2.0,53.0
2942,82.0,0,60,1.0,50.0
2943,53.0,60,60,2.0,53.0
2944,80.0,0,60,1.0,50.0
2945,58.0,60,60,2.0,54.0
2946,82.0,0,60,1.0,51.0
2947,50.0,60,228,3.0,53.0
2948,53.0,60,60,2.0,54.0
2949,77.0,0,240,0.0,58.0
2950,80.0,0,0,1.0,52.0
2951,79.0,0,60,1.0,53.0
2952,51.0,60,60,2.0,55.0
2953,58.0,60,60,2.0,55.0
2954,80.0,0,60,1.0,54.0
2955,49.0,0,228,3.0,55.0
2956,79.0,0,60,1.0,54.0
2957,70.0,60,240,0.0,61.0
2958,51.0,60,60,2.0,56.0
2959,82.0,0,60,1.0,55.0
2960,80.0,0,60,1.0,56.0
2961,51.0,60,60,2.0,57.0
2962,56.0,0,60,2.0,57.0
2963,82.0,60,60,1.0,56.0
2964,48.0,0,228,3.0,56.0
2965,75.0,60,240,0.0,63.0
2966,80.0,0,60,1.0,57.0
2967,51.0,60,60,2.0,57.0
2968,77.0,0,60,1.0,55.0
2969,75.0,0,60,1.0,54.0
2970,48.0,60,60,2.0,48.0
2971,77.0,60,60,1.0,54.0
2972,51.0,0,60,2.0,48.0
2973,39.0,0,236,3.0,49.0
2974,75.0,60,60,1.0,53.0
2975,68.0,60,240,0.0,65.0
2976,56.0,0,60,2.0,47.0
2977,77.0,0,60,1.0,52.0
2978,48.0,60,60,2.0,45.0
2979,75.0,0,60,1.0,52.0
2980,77.0,0,60,1.0,51.0
2981,51.0,60,60,2.0,45.0
2982,39.0,0,236,3.0,46.0
2983,72.0,0,240,0.0,59.0
2984,56.0,60,60,2.0,44.0
2985,68.0,60,240,1.0,59.0
2986,75.0,0,60,1.0,50.0
2987,77.0,0,60,1.0,50.0
2988,75.0,60,60,1.0,49.0
2989,49.0,0,60,2.0,42.0
2990,77.0,60,60,1.0,48.0
2991,51.0,0,60,2.0,42.0
2992,39.0,60,236,3.0,43.0
2993,67.0,0,240,1.0,55.0
2994,75.0,60,60,1.0,48.0
2995,70.0,0,240,0.0,55.0
2996,55.0,0,60,2.0,41.0
2997,63.0,120,96,1.0,50.0
2998,44.0,60,240,3.0,40.0
2999,48.0,0,240,2.0,40.0
3000,51.0,0,240,2.0,40.0
3001,56.0,0,240,2.0,40.0
3002,68.0,0,240,0.0,51.0
3003,63.0,120,96,1.0,45.0
3004,63.0,120,96,1.0,41.0
3005,63.0,120,96,1.0,41.0
3006,63.0,120,96,1.0,41.0
3007,60.0,0,96,1.0,41.0
3008,63.0,120,96,1.0,41.0
3009,60.0,120,96,1.0,41.0
3010,63.0,0,96,1.0,41.0
3011,60.0,0,96,1.0,41.0
3012,63.0,0,96,1.0,41.0
3013,51.0,120,120,3.0,46.0
3014,39.0,0,120,3.0,46.0
3015,63.0,0,96,1.0,40.0
3016,60.0,120,96,1.0,40.0
3017,72.0,0,480,0.0,55.0
3018,63.0,0,96,1.0,40.0
3019,60.0,0,96,1.0,40.0
3020,70.0,120,120,0.0,54.0
3021,44.0,0,120,3.0,46.0
3022,56.0,0,120,3.0,46.0
3023,63.0,120,96,1.0,40.0
3024,60.0,0,96,1.0,40.0
3025,68.0,0,0,0.0,53.0
3026,63.0,0,96,1.0,40.0
3027,61.0,120,96,1.0,40.0
3028,63.0,0,96,1.0,40.0
3029,61.0,120,96,1.0,40.0
3030,63.0,0,96,1.0,39.0
3031,61.0,0,96,1.0,39.0
3032,51.0,0,120,3.0,45.0
3033,39.0,0,120,3.0,45.0
3034,61.0,120,96,1.0,39.0
3035,63.0,0,96,1.0,39.0
3036,67.0,120,240,0.0,53.0
3037,61.0,0,96,1.0,39.0
3038,63.0,120,96,1.0,39.0
3039,58.0,0,120,3.0,44.0
3040,46.0,0,120,3.0,44.0
3041,67.0,0,180,0.0,52.0
3042,61.0,0,96,1.0,39.0
3043,63.0,120,96,1.0,39.0
3044,68.0,60,60,0.0,52.0
3045,61.0,0,96,1.0,39.0
3046,63.0,0,96,1.0,39.0
3047,63.0,0,96,1.0,39.0
3048,61.0,120,96,1.0,39.0
3049,70.0,0,0,0.0,51.0
3050,63.0,0,96,1.0,38.0
3051,61.0,0,96,1.0,38.0
3052,39.0,120,120,3.0,43.0
3053,51.0,0,120,3.0,43.0
3054,63.0,0,96,1.0,38.0
3055,61.0,120,96,1.0,38.0
3056,63.0,120,96,1.0,38.0
3057,61.0,0,96,1.0,38.0
3058,43.0,0,120,3.0,42.0
3059,55.0,0,120,3.0,42.0
3060,70.0,0,180,0.0,50.0
3061,63.0,120,96,1.0,38.0
3062,61.0,0,96,1.0,38.0
3063,72.0,60,60,0.0,50.0
3064,60.0,0,96,1.0,38.0
3065,63.0,60,96,1.0,38.0
3066,63.0,120,96,1.0,38.0
3067,60.0,0,96,1.0,38.0
3068,68.0,0,240,0.0,50.0
3069,63.0,0,96,1.0,37.0
3070,60.0,0,96,1.0,37.0
3071,51.0,120,120,3.0,41.0
3072,39.0,0,120,3.0,41.0
3073,63.0,0,96,1.0,37.0
3074,60.0,120,96,1.0,37.0
3075,63.0,0,96,1.0,37.0
3076,60.0,0,96,1.0,37.0
3077,56.0,0,120,3.0,41.0
3078,44.0,120,120,3.0,41.0
3079,63.0,120,96,1.0,37.0
3080,60.0,0,96,1.0,37.0
3081,72.0,0,96,0.0,48.0
3082,63.0,0,96,1.0,37.0
3083,60.0,120,96,1.0,37.0
3084,71.0,0,96,0.0,48.0
3085,60.0,120,96,1.0,37.0
3086,63.0,0,96,1.0,37.0
3087,73.0,120,96,0.0,47.0
3088,63.0,0,96,1.0,36.0
3089,60.0,0,96,1.0,36.0
3090,51.0,0,120,3.0,39.0
3091,39.0,0,120,3.0,39.0
3092,72.0,0,96,0.0,47.0
3093,60.0,0,96,1.0,36.0
3094,63.0,120,96,1.0,36.0
3095,60.0,0,96,1.0,36.0
3096,63.0,120,96,1.0,36.0
3097,70.0,0,96,0.0,47.0
3098,56.0,0,120,3.0,39.0
3099,44.0,0,120,3.0,39.0
3100,60.0,0,96,1.0,36.0
3101,63.0,0,96,1.0,36.0
3102,68.0,120,96,0.0,46.0
3103,63.0,120,96,1.0,36.0
3104,61.0,0,96,1.0,36.0
3105,68.0,0,96,0.0,46.0
3106,67.0,0,96,0.0,46.0
3107,63.0,0,96,1.0,36.0
3108,61.0,120,96,1.0,36.0
3109,61.0,0,96,1.0,35.0
3110,63.0,0,96,1.0,35.0
3111,67.0,120,96,0.0,45.0
3112,39.0,0,120,3.0,38.0
3113,51.0,0,120,3.0,38.0
3114,61.0,120,96,1.0,35.0
3115,63.0,0,96,1.0,35.0
3116,66.0,0,96,0.0,45.0
3117,63.0,120,96,1.0,35.0
3118,61.0,0,96,1.0,35.0
3119,67.0,0,96,0.0,45.0
3120,46.0,0,120,3.0,37.0
3121,58.0,0,120,3.0,37.0
3122,61.0,120,96,1.0,35.0
3123,68.0,0,96,0.0,44.0
3124,63.0,0,96,1.0,35.0
3125,63.0,120,96,1.0,35.0
3126,61.0,0,96,1.0,35.0
3127,70.0,0,96,0.0,44.0
3128,63.0,0,96,1.0,34.0
3129,69.0,0,96,0.0,44.0
3130,61.0,120,96,1.0,34.0
3131,61.0,0,96,1.0,34.0
3132,70.0,0,96,0.0,44.0
3133,63.0,0,96,1.0,34.0
3134,51.0,0,120,3.0,36.0
3135,39.0,120,120,3.0,36.0
3136,63.0,0,96,1.0,34.0
3137,61.0,0,96,1.0,34.0
3138,69.0,120,96,0.0,43.0
3139,61.0,0,96,1.0,34.0
3140,70.0,0,96,0.0,43.0
3141,63.0,0,96,1.0,34.0
3142,43.0,0,120,3.0,35.0
3143,55.0,120,120,3.0,35.0
3144,63.0,0,96,1.0,34.0
3145,61.0,120,96,1.0,34.0
3146,72.0,0,96,0.0,43.0
3147,63.0,0,96,1.0,34.0
3148,60.0,0,96,1.0,34.0
3149,60.0,120,96,1.0,33.0
3150,63.0,0,96,1.0,33.0
3151,68.0,120,240,0.0,42.0
3152,63.0,0,96,1.0,33.0
3153,60.0,0,96,1.0,33.0
3154,60.0,120,96,1.0,33.0
3155,63.0,0,96,1.0,33.0
3156,51.0,120,240,3.0,34.0
3157,60.0,0,96,1.0,33.0
3158,63.0,120,96,1.0,33.0
3159,60.0,120,96,1.0,33.0
3160,63.0,0,96,1.0,33.0
3161,69.0,0,120,0.0,41.0
3162,56.0,0,240,3.0,34.0
3163,63.0,0,96,1.0,33.0
3164,61.0,0,96,1.0,33.0
3165,63.0,120,96,1.0,32.0
3166,61.0,0,96,1.0,32.0
3167,70.0,120,240,0.0,40.0
3168,63.0,0,96,1.0,32.0
3169,61.0,0,96,1.0,32.0
3170,61.0,120,96,1.0,32.0
3171,63.0,0,96,1.0,32.0
3172,39.0,120,240,3.0,32.0
3173,61.0,0,96,1.0,32.0
3174,63.0,120,96,1.0,32.0
3175,63.0,120,96,1.0,32.0
3176,61.0,0,96,1.0,32.0
3177,43.0,0,240,3.0,32.0
3178,72.0,0,120,0.0,39.0
3179,63.0,0,96,1.0,32.0
3180,60.0,120,96,1.0,32.0
3181,63.0,0,96,1.0,31.0
3182,60.0,120,96,1.0,31.0
3183,68.0,0,240,0.0,39.0
3184,60.0,0,96,1.0,31.0
3185,63.0,120,96,1.0,31.0
3186,60.0,120,96,1.0,31.0
3187,63.0,0,96,1.0,31.0
3188,51.0,0,240,3.0,31.0
3189,63.0,0,96,1.0,31.0
3190,60.0,120,96,1.0,31.0
3191,63.0,120,96,1.0,31.0
3192,60.0,0,96,1.0,31.0
3193,56.0,0,240,3.0,30.0
3194,69.0,0,120,0.0,37.0
3195,63.0,0,96,1.0,31.0
3196,61.0,120,96,1.0,31.0
3197,63.0,120,96,1.0,30.0
3198,61.0,0,96,1.0,30.0
3199,70.0,0,240,0.0,37.0
3200,63.0,0,96,1.0,30.0
3201,61.0,0,96,1.0,30.0
3202,61.0,0,96,1.0,30.0
3203,63.0,120,96,1.0,30.0
3204,39.0,120,240,3.0,29.0
3205,63.0,0,96,1.0,30.0
3206,61.0,0,96,1.0,30.0
3207,61.0,0,96,1.0,30.0
3208,63.0,120,96,1.0,30.0
3209,43.0,120,240,3.0,28.0
3210,72.0,0,120,0.0,35.0
3211,63.0,120,96,1.0,29.0
3212,60.0,0,96,1.0,29.0
3213,60.0,0,96,1.0,29.0
3214,63.0,120,96,1.0,29.0
3215,60.0,0,96,1.0,29.0
3216,63.0,0,96,1.0,29.0
3217,60.0,0,96,1.0,29.0
3218,63.0,120,96,1.0,29.0
3219,63.0,0,96,1.0,29.0
3220,60.0,0,96,1.0,29.0
3221,60.0,0,96,1.0,29.0
3222,63.0,120,96,1.0,29.0
3223,39.0,120,240,3.0,26.0
3224,63.0,120,96,1.0,28.0
3225,60.0,0,96,1.0,28.0
3226,63.0,120,96,1.0,28.0
3227,60.0,0,96,1.0,28.0
3228,44.0,120,720,3.0,27.0
3229,68.0,120,0,0.0,32.0
3230,36.0,0,240,3.0,26.0
3231,63.0,0,96,1.0,28.0
3232,60.0,0,96,1.0,28.0
3233,60.0,120,96,1.0,28.0
3234,63.0,0,96,1.0,28.0
3235,44.0,120,0,3.0,25.0
3236,39.0,0,240,3.0,25.0
3237,60.0,0,96,1.0,28.0
3238,63.0,0,96,1.0,28.0
3239,60.0,0,96,1.0,28.0
3240,63.0,120,96,1.0,28.0
3241,36.0,0,240,3.0,25.0
3242,68.0,0,240,0.0,32.0
3243,44.0,120,0,3.0,28.0
3244,60.0,0,1200,1.0,33.0
3245,68.0,0,1200,0.0,33.0
3246,63.0,0,1200,1.0,33.0
3247,32.0,0,1200,3.0,28.0
3248,68.0,3360,120,0.0,51.0
3249,70.0,120,120,0.0,56.0
3250,72.0,0,480,0.0,70.0
3251,74.0,480,240,0.0,61.0
3252,65.0,0,720,3.0,70.0
3253,63.0,240,95,3.0,57.0
3254,68.0,120,1200,1.0,70.0
3255,55.0,480,95,3.0,53.0
3256,70.0,0,120,1.0,56.0
3257,56.0,240,95,3.0,53.0
3258,72.0,0,120,1.0,59.0
3259,75.0,0,960,0.0,59.0
3260,53.0,0,95,3.0,49.0
3261,77.0,0,120,0.0,57.0
3262,68.0,240,120,1.0,57.0
3263,58.0,0,95,3.0,45.0
3264,74.0,0,120,0.0,52.0
3265,68.0,240,120,1.0,52.0
3266,51.0,240,95,3.0,41.0
3267,75.0,0,120,0.0,48.0
3268,67.0,0,120,1.0,48.0
3269,73.0,480,120,0.0,45.0
3270,75.0,120,120,0.0,50.0
3271,77.0,120,480,0.0,60.0
3272,70.0,0,720,3.0,61.0
3273,73.0,0,720,1.0,60.0
3274,79.0,480,240,0.0,52.0
3275,68.0,240,95,3.0,50.0
3276,72.0,0,480,1.0,50.0
3277,60.0,480,95,3.0,47.0
3278,75.0,0,95,1.0,47.0
3279,77.0,0,95,1.0,45.0
3280,61.0,240,95,3.0,47.0
3281,80.0,0,840,0.0,50.0
3282,82.0,240,95,0.0,49.0
3283,58.0,0,95,3.0,44.0
3284,73.0,0,95,1.0,49.0
3285,73.0,0,95,1.0,43.0
3286,63.0,240,95,3.0,40.0
3287,79.0,0,95,0.0,43.0
3288,80.0,0,95,0.0,38.0
3289,56.0,240,95,3.0,37.0
3290,68.0,480,120,0.0,45.0
3291,70.0,120,120,0.0,49.0
3292,72.0,120,120,0.0,57.0
3293,73.0,240,95,0.0,55.0
3294,75.0,240,95,0.0,53.0
3295,65.0,0,720,3.0,59.0
3296,68.0,0,720,1.0,57.0
3297,63.0,240,95,3.0,53.0
3298,67.0,0,95,1.0,52.0
3299,68.0,0,95,1.0,50.0
3300,65.0,240,95,3.0,51.0
3301,70.0,0,95,1.0,48.0
3302,67.0,240,95,3.0,49.0
3303,56.0,0,95,3.0,47.0
3304,72.0,240,120,1.0,52.0
3305,75.0,0,840,0.0,52.0
3306,68.0,0,95,1.0,49.0
3307,53.0,240,95,3.0,49.0
3308,77.0,0,95,0.0,49.0
3309,68.0,240,95,1.0,44.0
3310,58.0,0,95,3.0,44.0
3311,74.0,0,95,0.0,44.0
3312,75.0,0,95,0.0,38.0
3313,51.0,0,95,3.0,40.0
3314,67.0,240,95,1.0,38.0
3315,73.0,480,120,0.0,42.0
3316,75.0,120,120,0.0,46.0
3317,77.0,0,95,0.0,51.0
3318,78.0,240,95,0.0,50.0
3319,79.0,240,95,0.0,49.0
3320,73.0,0,720,1.0,51.0
3321,70.0,120,720,3.0,53.0
3322,68.0,0,95,3.0,48.0
3323,72.0,240,120,1.0,48.0
3324,73.0,240,95,1.0,46.0
3325,70.0,0,95,3.0,46.0
3326,75.0,240,95,1.0,45.0
3327,72.0,0,95,3.0,45.0
3328,61.0,240,95,3.0,43.0
3329,77.0,0,95,1.0,44.0
3330,80.0,0,840,0.0,48.0
3331,82.0,240,95,0.0,47.0
3332,58.0,0,95,3.0,43.0
3333,73.0,0,95,1.0,47.0
3334,73.0,0,95,1.0,43.0
3335,63.0,0,95,3.0,40.0
3336,79.0,240,95,0.0,43.0
3337,72.0,0,95,1.0,38.0
3338,56.0,240,95,3.0,36.0
3339,80.0,0,95,0.0,38.0
3340,56.0,480,120,1.0,42.0
3341,60.0,0,120,0.0,42.0
3342,58.0,120,120,1.0,42.0
3343,61.0,0,120,0.0,42.0
3344,32.0,120,95,3.0,41.0
3345,44.0,240,95,2.0,42.0
3346,63.0,0,480,0.0,43.0
3347,60.0,0,480,1.0,43.0
3348,61.0,0,240,1.0,45.0
3349,65.0,240,240,0.0,45.0
3350,32.0,0,95,3.0,44.0
3351,63.0,0,95,1.0,47.0
3352,67.0,240,95,0.0,47.0
3353,44.0,240,95,2.0,46.0
3354,63.0,0,95,1.0,56.0
3355,67.0,240,95,0.0,56.0
3356,66.0,240,95,1.0,50.0
3357,32.0,0,95,3.0,48.0
3358,72.0,0,95,0.0,50.0
3359,75.0,0,95,0.0,51.0
3360,72.0,240,95,1.0,51.0
3361,44.0,0,95,2.0,49.0
3362,32.0,0,95,3.0,62.0
3363,32.0,240,240,3.0,56.0
3364,75.0,0,480,1.0,75.0
3365,78.0,240,480,0.0,75.0
3366,34.0,0,95,3.0,45.0
3367,74.0,240,95,1.0,49.0
3368,77.0,0,95,0.0,49.0
3369,58.0,240,120,1.0,56.0
3370,62.0,0,120,0.0,56.0
3371,63.0,120,120,0.0,57.0
3372,60.0,0,120,1.0,57.0
3373,34.0,0,95,3.0,55.0
3374,46.0,240,95,2.0,56.0
3375,65.0,120,480,0.0,57.0
3376,62.0,0,480,1.0,57.0
3377,67.0,240,240,0.0,60.0
3378,64.0,0,240,1.0,60.0
3379,68.0,240,95,0.0,61.0
3380,65.0,0,95,1.0,61.0
3381,34.0,0,95,3.0,58.0
3382,46.0,240,95,2.0,60.0
3383,68.0,240,95,0.0,72.0
3384,65.0,0,95,1.0,72.0
3385,34.0,0,95,3.0,62.0
3386,74.0,240,95,0.0,64.0
3387,68.0,0,95,1.0,64.0
3388,77.0,240,95,0.0,66.0
3389,46.0,0,95,2.0,63.0
3390,74.0,0,95,1.0,66.0
3391,34.0,0,95,3.0,74.0
3392,80.0,0,480,0.0,86.0
3393,77.0,240,480,1.0,86.0
3394,35.0,240,240,3.0,70.0
3395,36.0,0,75,3.0,56.0
3396,76.0,0,95,1.0,65.0
3397,79.0,240,95,0.0,65.0
3398,64.0,0,120,0.0,70.0
3399,60.0,240,120,1.0,70.0
3400,62.0,0,120,1.0,71.0
3401,65.0,120,120,0.0,71.0
3402,36.0,0,95,3.0,70.0
3403,48.0,240,95,2.0,70.0
3404,67.0,120,480,0.0,72.0
3405,64.0,0,480,1.0,72.0
3406,65.0,0,240,1.0,74.0
3407,68.0,240,240,0.0,74.0
3408,67.0,0,95,1.0,75.0
3409,70.0,240,95,0.0,75.0
3410,36.0,0,95,3.0,74.0
3411,48.0,240,95,2.0,74.0
3412,64.0,240,120,0.0,79.0
3413,60.0,0,120,1.0,79.0
3414,62.0,0,120,1.0,77.0
3415,65.0,120,120,0.0,77.0
3416,36.0,0,95,3.0,77.0
3417,64.0,0,120,1.0,75.0
3418,67.0,120,120,0.0,75.0
3419,48.0,0,95,2.0,77.0
3420,64.0,0,120,0.0,87.0
3421,60.0,240,120,1.0,87.0
3422,65.0,120,120,0.0,82.0
3423,62.0,0,120,1.0,82.0
3424,67.0,120,120,0.0,81.0
3425,64.0,0,120,1.0,81.0
3426,68.0,120,120,0.0,80.0
3427,65.0,0,120,1.0,80.0
3428,36.0,0,95,3.0,81.0
3429,70.0,120,120,0.0,79.0
3430,67.0,0,120,1.0,79.0
3431,48.0,0,95,2.0,81.0
3432,64.0,0,120,1.0,88.0
3433,67.0,240,120,0.0,88.0
3434,68.0,0,120,0.0,84.0
3435,65.0,120,120,1.0,84.0
3436,70.0,120,120,0.0,80.0
3437,67.0,0,120,1.0,80.0
3438,68.0,0,120,1.0,77.0
3439,72.0,120,120,0.0,77.0
3440,70.0,120,95,1.0,71.0
3441,73.0,0,95,0.0,73.0
3442,48.0,0,95,3.0,77.0
3443,60.0,240,95,2.0,76.0
3444,67.0,240,95,1.0,60.0
3445,70.0,0,95,0.0,70.0
3446,48.0,240,95,3.0,73.0
3447,64.0,0,95,1.0,60.0
3448,67.0,0,95,0.0,69.0
3449,60.0,240,95,2.0,72.0
3450,70.0,0,95,0.0,66.0
3451,67.0,240,95,1.0,58.0
3452,73.0,240,95,0.0,65.0
3453,70.0,0,95,1.0,58.0
3454,48.0,0,95,3.0,70.0
3455,60.0,240,95,2.0,68.0
3456,70.0,240,95,0.0,62.0
3457,67.0,0,95,1.0,57.0
3458,48.0,0,95,3.0,66.0
3459,67.0,240,95,0.0,60.0
3460,64.0,0,95,1.0,56.0
3461,60.0,240,95,2.0,65.0
3462,67.0,240,95,1.0,55.0
3463,70.0,0,95,0.0,57.0
3464,52.0,0,95,3.0,62.0
3465,64.0,240,95,2.0,61.0
3466,70.0,0,480,1.0,54.0
3467,67.0,240,0,1.0,50.0
3468,73.0,240,480,0.0,56.0
3469,72.0,0,95,0.0,50.0
3470,70.0,0,95,1.0,50.0
3471,52.0,0,95,3.0,59.0
3472,64.0,240,95,2.0,57.0
3473,67.0,240,480,1.0,52.0
3474,70.0,0,480,1.0,52.0
3475,73.0,0,480,0.0,52.0
3476,67.0,0,95,1.0,48.0
3477,72.0,0,95,0.0,48.0
3478,70.0,240,95,1.0,48.0
3479,52.0,0,95,3.0,55.0
3480,64.0,240,95,2.0,54.0
3481,73.0,0,480,0.0,51.0
3482,70.0,0,0,1.0,46.0
3483,67.0,0,0,1.0,46.0
3484,72.0,240,95,0.0,46.0
3485,52.0,0,95,3.0,51.0
3486,64.0,240,95,2.0,50.0
3487,73.0,240,480,0.0,49.0
3488,70.0,240,0,1.0,45.0
3489,67.0,0,480,1.0,49.0
3490,72.0,0,95,0.0,45.0
3491,67.0,0,95,1.0,45.0
3492,55.0,0,240,3.0,48.0
3493,67.0,240,95,2.0,49.0
3494,64.0,240,0,1.0,42.0
3495,70.0,0,0,1.0,42.0
3496,73.0,0,480,0.0,47.0
3497,72.0,0,95,0.0,42.0
3498,55.0,0,240,3.0,47.0
3499,67.0,240,95,2.0,47.0
3500,70.0,240,480,1.0,45.0
3501,73.0,0,480,0.0,45.0
3502,64.0,240,0,1.0,41.0
3503,70.0,0,95,1.0,41.0
3504,72.0,0,95,0.0,41.0
3505,55.0,0,240,3.0,45.0
3506,67.0,240,95,2.0,45.0
3507,73.0,0,480,0.0,43.0
3508,64.0,240,0,1.0,40.0
3509,70.0,0,0,1.0,40.0
3510,72.0,0,95,0.0,40.0
3511,55.0,0,240,3.0,43.0
3512,67.0,240,95,2.0,43.0
3513,64.0,0,0,1.0,38.0
3514,73.0,0,480,0.0,42.0
3515,70.0,240,0,1.0,38.0
3516,72.0,0,95,0.0,38.0
3517,64.0,0,95,1.0,40.0
3518,70.0,240,95,1.0,40.0
3519,73.0,0,95,0.0,40.0
3520,55.0,240,240,3.0,41.0
3521,67.0,240,95,2.0,40.0
3522,72.0,240,95,0.0,38.0
3523,70.0,0,95,1.0,38.0
3524,64.0,0,95,1.0,38.0
3525,55.0,240,240,3.0,39.0
3526,67.0,240,95,2.0,38.0
3527,72.0,0,95,0.0,36.0
3528,64.0,240,95,1.0,36.0
3529,70.0,0,95,1.0,36.0
3530,55.0,240,240,3.0,37.0
3531,67.0,240,95,2.0,36.0
3532,70.0,0,95,1.0,34.0
3533,64.0,0,95,1.0,34.0
3534,72.0,240,95,0.0,34.0
3535,55.0,240,95,3.0,31.0
3536,56.0,240,120,3.0,68.0
3537,58.0,120,120,3.0,75.0
3538,80.0,0,95,0.0,71.0
3539,79.0,120,95,0.0,71.0
3540,80.0,120,95,0.0,70.0
3541,84.0,120,95,0.0,70.0
3542,60.0,0,480,3.0,81.0
3543,82.0,0,95,0.0,70.0
3544,80.0,120,95,0.0,69.0
3545,53.0,120,720,2.0,80.0
3546,62.0,120,240,3.0,74.0
3547,51.0,0,95,2.0,72.0
3548,79.0,120,95,0.0,69.0
3549,63.0,0,95,3.0,72.0
3550,77.0,120,95,0.0,68.0
3551,75.0,120,95,0.0,68.0
3552,74.0,120,95,0.0,68.0
3553,72.0,0,95,0.0,67.0
3554,70.0,120,95,0.0,67.0
3555,68.0,120,95,0.0,66.0
3556,67.0,120,95,0.0,66.0
3557,64.0,0,480,3.0,85.0
3558,52.0,120,480,2.0,85.0
3559,65.0,0,95,3.0,66.0
3560,68.0,120,95,0.0,66.0
3561,53.0,0,95,2.0,66.0
3562,72.0,120,95,0.0,65.0
3563,70.0,0,95,0.0,65.0
3564,62.0,0,95,3.0,64.0
3565,50.0,120,95,2.0,64.0
3566,68.0,120,95,0.0,64.0
3567,51.0,0,95,2.0,62.0
3568,63.0,0,95,3.0,62.0
3569,67.0,120,95,0.0,64.0
3570,63.0,120,95,0.0,64.0
3571,67.0,120,95,0.0,63.0
3572,68.0,120,95,0.0,63.0
3573,70.0,0,95,0.0,62.0
3574,49.0,120,120,3.0,70.0
3575,72.0,120,95,0.0,62.0
3576,51.0,0,120,3.0,75.0
3577,73.0,0,95,0.0,62.0
3578,72.0,120,95,0.0,61.0
3579,73.0,120,95,0.0,61.0
3580,77.0,120,95,0.0,60.0
3581,53.0,0,480,3.0,80.0
3582,75.0,120,95,0.0,60.0
3583,73.0,120,95,0.0,60.0
3584,55.0,0,240,3.0,76.0
3585,46.0,120,720,2.0,69.0
3586,72.0,0,95,0.0,59.0
3587,44.0,0,95,2.0,62.0
3588,56.0,120,95,3.0,72.0
3589,70.0,120,95,0.0,59.0
3590,68.0,120,95,0.0,58.0
3591,67.0,120,95,0.0,58.0
3592,65.0,0,95,0.0,58.0
3593,63.0,120,95,0.0,57.0
3594,61.0,120,95,0.0,57.0
3595,45.0,120,450,2.0,76.0
3596,57.0,0,450,3.0,80.0
3597,60.0,120,95,0.0,56.0
3598,46.0,0,95,2.0,57.0
3599,61.0,120,95,0.0,56.0
3600,58.0,0,95,3.0,68.0
3601,65.0,120,95,0.0,56.0
3602,55.0,0,95,3.0,62.0
3603,43.0,0,95,2.0,56.0
3604,63.0,120,95,0.0,55.0
3605,61.0,120,95,0.0,55.0
3606,44.0,120,95,3.0,64.0
3607,48.0,120,95,3.0,63.0
3608,60.0,0,240,0.0,54.0
3609,49.0,120,95,3.0,63.0
3610,51.0,120,95,3.0,63.0
3611,53.0,0,95,3.0,63.0
3612,68.0,120,120,0.0,67.0
3613,55.0,120,95,3.0,63.0
3614,70.0,0,120,0.0,71.0
3615,56.0,120,95,3.0,75.0
3616,55.0,120,95,3.0,75.0
3617,56.0,120,95,3.0,75.0
3618,53.0,120,95,3.0,74.0
3619,72.0,0,480,0.0,77.0
3620,60.0,0,480,1.0,77.0
3621,58.0,120,95,3.0,74.0
3622,56.0,120,95,3.0,74.0
3623,74.0,0,240,0.0,76.0
3624,62.0,0,240,1.0,76.0
3625,55.0,0,95,3.0,73.0
3626,63.0,0,95,1.0,75.0
3627,75.0,120,95,0.0,75.0
3628,53.0,120,95,3.0,73.0
3629,51.0,120,95,3.0,72.0
3630,50.0,120,95,3.0,72.0
3631,48.0,120,95,3.0,72.0
3632,46.0,120,95,3.0,71.0
3633,44.0,120,95,3.0,71.0
3634,43.0,120,95,3.0,71.0
3635,75.0,0,480,0.0,86.0
3636,63.0,0,480,1.0,86.0
3637,65.0,0,95,1.0,74.0
3638,77.0,120,95,0.0,74.0
3639,44.0,0,95,3.0,70.0
3640,48.0,120,95,3.0,70.0
3641,74.0,0,95,0.0,71.0
3642,46.0,0,95,3.0,70.0
3643,62.0,120,95,1.0,71.0
3644,44.0,120,95,3.0,69.0
3645,75.0,0,95,0.0,66.0
3646,43.0,0,95,3.0,69.0
3647,63.0,120,95,1.0,66.0
3648,39.0,120,95,3.0,69.0
3649,43.0,120,95,3.0,68.0
3650,44.0,120,95,3.0,68.0
3651,46.0,120,95,3.0,67.0
3652,73.0,0,120,0.0,71.0
3653,48.0,120,95,3.0,67.0
3654,75.0,0,120,0.0,74.0
3655,49.0,120,95,3.0,67.0
3656,48.0,120,95,3.0,66.0
3657,49.0,120,95,3.0,66.0
3658,46.0,120,95,3.0,66.0
3659,65.0,0,480,1.0,67.0
3660,77.0,0,480,0.0,77.0
3661,51.0,0,95,3.0,65.0
3662,49.0,120,95,3.0,65.0
3663,67.0,120,240,1.0,66.0
3664,79.0,0,240,0.0,74.0
3665,48.0,120,95,3.0,65.0
3666,68.0,0,95,1.0,65.0
3667,80.0,0,95,0.0,69.0
3668,46.0,120,95,3.0,64.0
3669,44.0,120,95,3.0,64.0
3670,43.0,120,95,3.0,64.0
3671,41.0,120,95,3.0,65.0
3672,39.0,120,95,3.0,66.0
3673,37.0,120,95,3.0,66.0
3674,36.0,120,95,3.0,67.0
3675,81.0,0,480,0.0,83.0
3676,69.0,0,480,1.0,78.0
3677,70.0,0,95,1.0,66.0
3678,37.0,120,95,3.0,67.0
3679,82.0,0,95,0.0,70.0
3680,41.0,120,95,3.0,68.0
3681,39.0,0,95,3.0,69.0
3682,79.0,0,95,0.0,66.0
3683,67.0,120,95,1.0,62.0
3684,37.0,120,95,3.0,69.0
3685,36.0,120,95,3.0,70.0
3686,80.0,0,95,0.0,62.0
3687,68.0,0,95,1.0,59.0
3688,39.0,120,95,3.0,70.0
3689,44.0,120,95,3.0,71.0
3690,43.0,120,95,3.0,71.0
3691,41.0,0,95,3.0,72.0
3692,39.0,120,95,3.0,73.0
3693,37.0,120,95,3.0,73.0
3694,34.0,120,95,3.0,74.0
3695,72.0,0,480,1.0,83.0
3696,81.0,120,480,1.0,83.0
3697,84.0,0,480,0.0,85.0
3698,82.0,0,95,1.0,76.0
3699,73.0,0,95,1.0,76.0
3700,85.0,120,95,0.0,77.0
3701,37.0,0,95,3.0,74.0
3702,34.0,120,95,3.0,75.0
3703,39.0,120,95,3.0,76.0
3704,82.0,0,95,0.0,73.0
3705,79.0,0,95,1.0,73.0
3706,70.0,0,95,1.0,73.0
3707,37.0,120,95,3.0,76.0
3708,84.0,0,95,0.0,69.0
3709,72.0,120,95,1.0,69.0
3710,80.0,0,95,1.0,69.0
3711,36.0,0,95,3.0,77.0
3712,39.0,120,95,3.0,77.0
3713,44.0,120,95,3.0,78.0
3714,43.0,120,95,3.0,79.0
3715,41.0,0,95,3.0,79.0
3716,39.0,120,95,3.0,80.0
3717,37.0,120,95,3.0,80.0
3718,34.0,120,95,3.0,81.0
3719,72.0,0,480,1.0,89.0
3720,69.0,120,480,1.0,89.0
3721,81.0,0,480,0.0,89.0
3722,70.0,0,95,1.0,80.0
3723,73.0,0,95,1.0,80.0
3724,37.0,120,95,3.0,82.0
3725,82.0,0,95,0.0,80.0
3726,34.0,120,95,3.0,82.0
3727,79.0,0,95,0.0,77.0
3728,39.0,0,95,3.0,83.0
3729,67.0,120,95,1.0,76.0
3730,70.0,0,95,1.0,76.0
3731,39.0,120,95,3.0,83.0
3732,80.0,0,95,0.0,76.0
3733,72.0,120,95,1.0,76.0
3734,32.0,0,95,3.0,84.0
3735,68.0,0,95,1.0,76.0
3736,36.0,120,95,3.0,84.0
3737,39.0,120,95,3.0,85.0
3738,37.0,120,95,3.0,86.0
3739,70.0,0,95,1.0,81.0
3740,79.0,120,95,1.0,81.0
3741,36.0,0,95,3.0,86.0
3742,82.0,0,95,0.0,81.0
3743,34.0,120,95,3.0,87.0
3744,84.0,120,95,0.0,84.0
3745,72.0,0,95,1.0,84.0
3746,80.0,0,95,1.0,84.0
3747,32.0,0,95,3.0,87.0
3748,36.0,120,95,3.0,88.0
3749,39.0,120,95,3.0,89.0
3750,37.0,120,95,3.0,89.0
3751,36.0,0,95,3.0,90.0
3752,70.0,0,95,1.0,88.0
3753,67.0,120,95,1.0,88.0
3754,79.0,0,95,0.0,90.0
3755,34.0,120,95,3.0,90.0
3756,80.0,120,95,0.0,92.0
3757,32.0,0,95,3.0,91.0
3758,68.0,0,95,1.0,90.0
3759,72.0,0,95,1.0,90.0
3760,36.0,120,95,3.0,92.0
3761,39.0,120,95,3.0,92.0
3762,37.0,120,95,3.0,93.0
3763,58.0,120,95,1.0,95.0
3764,55.0,0,95,1.0,95.0
3765,36.0,0,95,3.0,93.0
3766,67.0,0,95,0.0,98.0
3767,34.0,120,95,3.0,94.0
3768,56.0,120,180,1.0,97.0
3769,60.0,0,180,1.0,97.0
3770,68.0,0,180,0.0,101.0
3771,32.0,0,180,3.0,95.0
3772,56.0,480,240,0.0,38.0
3773,49.0,240,480,2.0,38.0
3774,53.0,0,720,1.0,39.0
3775,44.0,0,240,2.0,40.0
3776,56.0,480,240,1.0,40.0
3777,37.0,0,720,3.0,38.0
3778,65.0,0,720,0.0,39.0
3779,48.0,0,480,2.0,41.0
3780,36.0,0,720,3.0,41.0
3781,44.0,0,240,2.0,43.0
3782,63.0,240,720,0.0,41.0
3783,51.0,0,720,1.0,41.0
3784,56.0,480,240,1.0,43.0
3785,51.0,0,480,2.0,44.0
3786,44.0,480,240,2.0,46.0
3787,56.0,0,240,1.0,45.0
3788,54.0,0,720,1.0,44.0
3789,39.0,240,720,3.0,44.0
3790,66.0,0,720,0.0,44.0
3791,49.0,240,480,2.0,47.0
3792,44.0,0,240,2.0,49.0
3793,53.0,0,720,1.0,46.0
3794,37.0,0,720,3.0,47.0
3795,65.0,0,720,0.0,46.0
3796,61.0,480,240,1.0,48.0
3797,53.0,240,480,2.0,53.0
3798,61.0,480,240,1.0,54.0
3799,56.0,0,720,1.0,50.0
3800,49.0,0,0,2.0,64.0
3801,68.0,0,720,0.0,50.0
3802,41.0,0,720,3.0,53.0
3803,70.0,0,480,0.0,64.0
3804,42.0,0,480,3.0,64.0
3805,58.0,0,480,1.0,64.0
3806,54.0,0,480,2.0,64.0
3807,61.0,240,480,1.0,64.0
3808,41.0,0,240,3.0,54.0
3809,61.0,0,0,1.0,49.0
3810,58.0,240,0,1.0,49.0
3811,53.0,0,240,2.0,54.0
3812,63.0,480,240,0.0,52.0
3813,63.0,0,480,0.0,49.0
3814,42.0,0,480,3.0,51.0
3815,54.0,0,480,2.0,51.0
3816,61.0,0,240,1.0,42.0
3817,58.0,0,240,1.0,42.0
3818,63.0,0,240,0.0,42.0
3819,55.0,0,240,2.0,44.0
3820,43.0,480,240,3.0,44.0
3821,63.0,0,240,0.0,38.0
3822,44.0,0,240,3.0,41.0
3823,60.0,0,240,1.0,38.0
3824,56.0,240,240,2.0,41.0
3825,56.0,480,240,0.0,38.0
3826,49.0,0,480,2.0,38.0
3827,65.0,0,720,0.0,39.0
3828,44.0,480,240,2.0,40.0
3829,56.0,0,240,1.0,40.0
3830,53.0,240,720,1.0,39.0
3831,37.0,0,720,3.0,38.0
3832,48.0,240,480,2.0,41.0
3833,56.0,480,240,1.0,43.0
3834,36.0,0,720,3.0,41.0
3835,63.0,0,720,0.0,41.0
3836,44.0,0,240,2.0,43.0
3837,51.0,0,720,1.0,41.0
3838,51.0,240,480,2.0,44.0
3839,44.0,0,240,2.0,46.0
3840,66.0,0,720,0.0,44.0
3841,39.0,0,720,3.0,44.0
3842,54.0,0,720,1.0,44.0
3843,56.0,480,240,1.0,45.0
3844,49.0,0,480,2.0,47.0
3845,65.0,240,720,0.0,46.0
3846,37.0,0,720,3.0,47.0
3847,53.0,0,720,1.0,46.0
3848,61.0,480,240,1.0,48.0
3849,44.0,0,240,2.0,49.0
3850,53.0,240,480,2.0,53.0
3851,56.0,0,720,1.0,50.0
3852,61.0,480,240,1.0,54.0
3853,68.0,0,720,0.0,50.0
3854,41.0,0,720,3.0,53.0
3855,49.0,0,0,2.0,64.0
3856,61.0,0,480,1.0,64.0
3857,70.0,0,480,0.0,64.0
3858,42.0,0,480,3.0,64.0
3859,58.0,0,0,1.0,52.0
3860,54.0,0,480,2.0,64.0
3861,61.0,0,240,1.0,52.0
3862,53.0,480,240,2.0,54.0
3863,41.0,0,240,3.0,54.0
3864,63.0,0,0,0.0,49.0
3865,54.0,240,480,2.0,51.0
3866,58.0,480,0,1.0,42.0
3867,61.0,0,0,1.0,42.0
3868,63.0,0,0,0.0,42.0
3869,42.0,0,480,3.0,51.0
3870,43.0,0,240,3.0,44.0
3871,55.0,0,240,2.0,44.0
3872,63.0,0,0,0.0,38.0
3873,44.0,0,240,3.0,41.0
3874,60.0,240,240,1.0,38.0
3875,56.0,0,240,2.0,41.0
3876,68.0,480,240,0.0,40.0
3877,56.0,0,480,2.0,40.0
3878,72.0,0,720,0.0,41.0
3879,67.0,480,240,1.0,42.0
3880,51.0,0,240,2.0,41.0
3881,44.0,0,720,3.0,40.0
3882,60.0,240,720,1.0,41.0
3883,58.0,0,480,2.0,42.0
3884,46.0,0,720,3.0,42.0
3885,51.0,480,240,2.0,43.0
3886,61.0,0,720,1.0,43.0
3887,68.0,0,240,1.0,44.0
3888,73.0,240,720,0.0,43.0
3889,60.0,240,480,2.0,44.0
3890,68.0,480,240,1.0,46.0
3891,63.0,0,720,1.0,45.0
3892,66.0,0,720,1.0,45.0
3893,48.0,0,720,3.0,44.0
3894,75.0,0,720,0.0,45.0
3895,56.0,0,240,2.0,45.0
3896,61.0,0,480,2.0,46.0
3897,77.0,0,720,0.0,47.0
3898,56.0,0,240,2.0,47.0
3899,73.0,480,240,1.0,48.0
3900,49.0,240,720,3.0,46.0
3901,65.0,0,0,1.0,49.0
3902,61.0,0,480,2.0,48.0
3903,56.0,0,240,2.0,49.0
3904,77.0,240,720,0.0,49.0
3905,73.0,480,240,1.0,50.0
3906,49.0,0,720,3.0,48.0
3907,63.0,240,480,2.0,50.0
3908,66.0,0,720,1.0,51.0
3909,72.0,0,240,1.0,52.0
3910,51.0,0,720,3.0,50.0
3911,78.0,0,720,0.0,51.0
3912,56.0,480,240,2.0,51.0
3913,65.0,0,480,2.0,52.0
3914,80.0,0,720,0.0,53.0
3915,73.0,0,240,1.0,54.0
3916,68.0,0,720,1.0,53.0
3917,71.0,240,720,1.0,53.0
3918,61.0,480,240,2.0,53.0
3919,53.0,0,720,3.0,52.0
3920,66.0,0,480,2.0,54.0
3921,70.0,0,720,1.0,55.0
3922,82.0,240,720,0.0,55.0
3923,61.0,480,240,2.0,55.0
3924,73.0,0,240,1.0,56.0
3925,54.0,240,0,3.0,56.0
3926,66.0,0,480,2.0,56.0
3927,73.0,0,240,1.0,59.0
3928,82.0,0,720,0.0,56.0
3929,70.0,0,720,1.0,56.0
3930,61.0,480,240,2.0,59.0
3931,68.0,0,480,2.0,61.0
3932,56.0,0,720,3.0,61.0
3933,61.0,480,240,2.0,63.0
3934,83.0,240,720,0.0,61.0
3935,73.0,0,240,1.0,64.0
3936,71.0,0,720,1.0,61.0
3937,65.0,0,480,2.0,65.0
3938,53.0,240,720,3.0,65.0
3939,73.0,480,240,1.0,69.0
3940,69.0,0,720,1.0,66.0
3941,81.0,0,720,0.0,66.0
3942,61.0,0,240,2.0,68.0
3943,66.0,0,480,2.0,69.0
3944,70.0,0,705,1.0,70.0
3945,61.0,0,240,2.0,72.0
3946,82.0,240,720,0.0,70.0
3947,54.0,0,720,3.0,69.0
3948,73.0,480,240,1.0,73.0
3949,76.0,240,480,0.0,78.0
3950,64.0,0,480,2.0,79.0
3951,70.0,0,720,1.0,78.0
3952,61.0,0,240,2.0,68.0
3953,76.0,480,240,0.0,68.0
3954,73.0,0,240,1.0,68.0
3955,64.0,0,240,2.0,68.0
3956,55.0,0,720,3.0,79.0
3957,65.0,0,480,2.0,59.0
3958,61.0,480,240,2.0,50.0
3959,56.0,0,720,3.0,59.0
3960,73.0,0,240,1.0,53.0
3961,68.0,240,720,1.0,58.0
3962,77.0,0,960,0.0,58.0
3963,72.0,0,480,1.0,50.0
3964,66.0,0,480,1.0,50.0
3965,78.0,240,240,0.0,48.0
3966,75.0,0,240,0.0,45.0
3967,44.0,240,720,3.0,48.0
3968,56.0,240,240,3.0,44.0
3969,66.0,0,240,1.0,45.0
3970,72.0,0,240,1.0,45.0
3971,49.0,0,240,3.0,42.0
3972,65.0,0,240,1.0,43.0
3973,73.0,240,240,0.0,43.0
3974,68.0,480,240,0.0,40.0
3975,56.0,0,480,2.0,40.0
3976,60.0,240,720,1.0,41.0
3977,51.0,480,240,2.0,41.0
3978,67.0,0,240,1.0,42.0
3979,72.0,0,720,0.0,41.0
3980,44.0,0,720,3.0,40.0
3981,58.0,240,480,2.0,42.0
3982,61.0,0,720,1.0,43.0
3983,51.0,0,240,2.0,43.0
3984,46.0,0,720,3.0,42.0
3985,68.0,480,240,1.0,44.0
3986,73.0,0,720,0.0,43.0
3987,60.0,240,480,2.0,44.0
3988,56.0,480,240,2.0,45.0
3989,66.0,0,720,1.0,45.0
3990,48.0,0,720,3.0,44.0
3991,63.0,0,720,1.0,45.0
3992,68.0,0,240,1.0,46.0
3993,75.0,0,720,0.0,45.0
3994,61.0,0,480,2.0,46.0
3995,49.0,240,720,3.0,46.0
3996,77.0,0,0,0.0,49.0
3997,73.0,0,240,1.0,48.0
3998,65.0,0,720,1.0,47.0
3999,56.0,480,240,2.0,47.0
4000,61.0,0,480,2.0,48.0
4001,65.0,0,720,1.0,49.0
4002,73.0,0,240,1.0,50.0
4003,49.0,240,720,3.0,48.0
4004,56.0,480,240,2.0,49.0
4005,63.0,0,480,2.0,50.0
4006,56.0,0,240,2.0,51.0
4007,78.0,0,720,0.0,51.0
4008,66.0,240,720,1.0,51.0
4009,72.0,480,240,1.0,52.0
4010,51.0,0,720,3.0,50.0
4011,65.0,240,480,2.0,52.0
4012,53.0,0,720,3.0,52.0
4013,80.0,0,720,0.0,53.0
4014,73.0,480,240,1.0,54.0
4015,71.0,0,720,1.0,53.0
4016,68.0,0,720,1.0,53.0
4017,61.0,0,240,2.0,53.0
4018,66.0,0,480,2.0,54.0
4019,61.0,0,240,2.0,55.0
4020,70.0,0,720,1.0,55.0
4021,82.0,0,0,0.0,56.0
4022,54.0,240,720,3.0,54.0
4023,73.0,480,240,1.0,56.0
4024,66.0,240,480,2.0,56.0
4025,70.0,0,720,1.0,56.0
4026,54.0,0,720,3.0,56.0
4027,73.0,480,240,1.0,59.0
4028,61.0,0,240,2.0,59.0
4029,68.0,0,480,2.0,61.0
4030,71.0,240,720,1.0,61.0
4031,56.0,0,720,3.0,61.0
4032,61.0,480,240,2.0,63.0
4033,83.0,0,720,0.0,61.0
4034,73.0,0,240,1.0,64.0
4035,65.0,0,480,2.0,65.0
4036,69.0,0,720,1.0,66.0
4037,73.0,480,240,1.0,69.0
4038,81.0,0,720,0.0,66.0
4039,53.0,240,720,3.0,65.0
4040,61.0,0,240,2.0,68.0
4041,66.0,0,480,2.0,69.0
4042,70.0,0,705,1.0,70.0
4043,82.0,0,720,0.0,70.0
4044,61.0,0,240,2.0,72.0
4045,73.0,480,240,1.0,73.0
4046,54.0,240,720,3.0,69.0
4047,76.0,0,480,0.0,78.0
4048,64.0,0,0,2.0,68.0
4049,61.0,480,240,2.0,68.0
4050,76.0,0,240,0.0,68.0
4051,73.0,0,240,1.0,68.0
4052,70.0,0,720,1.0,78.0
4053,55.0,240,720,3.0,79.0
4054,65.0,240,480,2.0,59.0
4055,73.0,480,240,1.0,53.0
4056,61.0,0,240,2.0,50.0
4057,56.0,0,720,3.0,59.0
4058,68.0,0,720,1.0,58.0
4059,77.0,0,960,0.0,58.0
4060,78.0,240,240,0.0,48.0
4061,66.0,240,480,1.0,50.0
4062,72.0,0,0,1.0,45.0
4063,75.0,240,240,0.0,45.0
4064,56.0,0,240,3.0,44.0
4065,44.0,0,720,3.0,48.0
4066,66.0,0,240,1.0,45.0
4067,73.0,0,240,0.0,43.0
4068,65.0,240,240,1.0,43.0
4069,49.0,0,240,3.0,42.0
4070,49.0,480,120,3.0,43.0
4071,51.0,120,120,3.0,47.0
4072,53.0,0,480,3.0,53.0
4073,55.0,240,240,3.0,48.0
4074,46.0,120,720,2.0,53.0
4075,44.0,0,120,2.0,45.0
4076,56.0,240,120,3.0,45.0
4077,73.0,0,720,0.0,60.0
4078,61.0,240,720,1.0,60.0
4079,72.0,0,120,0.0,47.0
4080,60.0,240,180,1.0,47.0
4081,56.0,240,120,3.0,56.0
4082,58.0,120,120,3.0,62.0
4083,60.0,120,480,3.0,67.0
4084,53.0,0,720,2.0,67.0
4085,62.0,240,240,3.0,60.0
4086,51.0,0,5,2.0,47.0
4087,68.0,0,720,1.0,70.0
4088,80.0,240,720,0.0,70.0
4089,63.0,240,360,3.0,47.0
4090,67.0,240,120,1.0,40.0
4091,79.0,0,135,0.0,40.0
4092,68.0,240,120,0.0,51.0
4093,70.0,120,120,0.0,56.0
4094,72.0,0,480,0.0,70.0
4095,74.0,480,240,0.0,61.0
4096,65.0,0,720,3.0,70.0
4097,63.0,0,95,3.0,57.0
4098,68.0,120,1200,1.0,70.0
4099,55.0,480,95,3.0,53.0
4100,70.0,0,120,1.0,56.0
4101,56.0,240,95,3.0,53.0
4102,72.0,0,120,1.0,59.0
4103,75.0,240,960,0.0,59.0
4104,53.0,0,95,3.0,49.0
4105,68.0,240,120,1.0,57.0
4106,77.0,0,120,0.0,57.0
4107,58.0,240,95,3.0,45.0
4108,74.0,0,120,0.0,52.0
4109,68.0,0,120,1.0,52.0
4110,51.0,0,95,3.0,41.0
4111,75.0,0,120,0.0,48.0
4112,67.0,240,120,1.0,48.0
4113,73.0,480,120,0.0,45.0
4114,75.0,120,120,0.0,50.0
4115,77.0,0,480,0.0,60.0
4116,73.0,120,720,1.0,60.0
4117,79.0,480,240,0.0,52.0
4118,70.0,0,720,3.0,61.0
4119,68.0,0,95,3.0,50.0
4120,72.0,240,480,1.0,50.0
4121,60.0,480,95,3.0,47.0
4122,75.0,0,95,1.0,47.0
4123,61.0,240,95,3.0,47.0
4124,77.0,0,95,1.0,45.0
4125,80.0,0,840,0.0,50.0
4126,82.0,0,95,0.0,49.0
4127,73.0,240,95,1.0,49.0
4128,58.0,0,95,3.0,44.0
4129,73.0,240,95,1.0,43.0
4130,79.0,0,95,0.0,43.0
4131,63.0,0,95,3.0,40.0
4132,56.0,0,95,3.0,37.0
4133,80.0,240,95,0.0,38.0
4134,68.0,480,120,0.0,45.0
4135,70.0,120,120,0.0,49.0
4136,72.0,0,120,0.0,57.0
4137,73.0,240,95,0.0,55.0
4138,75.0,240,95,0.0,53.0
4139,65.0,0,720,3.0,59.0
4140,68.0,120,720,1.0,57.0
4141,67.0,0,95,1.0,52.0
4142,63.0,0,95,3.0,53.0
4143,68.0,240,95,1.0,50.0
4144,65.0,0,95,3.0,51.0
4145,70.0,240,95,1.0,48.0
4146,67.0,0,95,3.0,49.0
4147,56.0,0,95,3.0,47.0
4148,72.0,240,120,1.0,52.0
4149,75.0,240,840,0.0,52.0
4150,68.0,240,95,1.0,49.0
4151,53.0,0,95,3.0,49.0
4152,77.0,0,95,0.0,49.0
4153,68.0,0,95,1.0,44.0
4154,58.0,0,95,3.0,44.0
4155,74.0,240,95,0.0,44.0
4156,67.0,0,95,1.0,38.0
4157,75.0,240,95,0.0,38.0
4158,51.0,0,95,3.0,40.0
4159,73.0,480,120,0.0,42.0
4160,75.0,120,120,0.0,46.0
4161,77.0,0,95,0.0,51.0
4162,78.0,240,95,0.0,50.0
4163,79.0,240,95,0.0,49.0
4164,70.0,120,720,3.0,53.0
4165,73.0,0,720,1.0,51.0
4166,68.0,0,95,3.0,48.0
4167,72.0,0,120,1.0,48.0
4168,70.0,0,95,3.0,46.0
4169,73.0,240,95,1.0,46.0
4170,72.0,240,95,3.0,45.0
4171,75.0,0,95,1.0,45.0
4172,77.0,240,95,1.0,44.0
4173,61.0,0,95,3.0,43.0
4174,80.0,240,840,0.0,48.0
4175,82.0,240,95,0.0,47.0
4176,58.0,0,95,3.0,43.0
4177,73.0,0,95,1.0,47.0
4178,63.0,0,95,3.0,40.0
4179,73.0,240,95,1.0,43.0
4180,79.0,0,95,0.0,43.0
4181,56.0,0,95,3.0,36.0
4182,72.0,0,95,1.0,38.0
4183,80.0,240,95,0.0,38.0
4184,60.0,0,120,0.0,42.0
4185,56.0,480,120,1.0,42.0
4186,61.0,120,120,0.0,42.0
4187,58.0,0,120,1.0,42.0
4188,32.0,120,95,3.0,41.0
4189,44.0,240,95,3.0,42.0
4190,60.0,0,480,1.0,43.0
4191,63.0,0,480,0.0,43.0
4192,61.0,0,240,1.0,45.0
4193,65.0,240,240,0.0,45.0
4194,32.0,0,95,3.0,44.0
4195,63.0,240,95,1.0,47.0
4196,67.0,0,95,0.0,47.0
4197,44.0,240,95,3.0,46.0
4198,67.0,0,95,0.0,56.0
4199,63.0,240,95,1.0,56.0
4200,72.0,0,95,0.0,50.0
4201,32.0,0,95,3.0,48.0
4202,66.0,240,95,1.0,50.0
4203,75.0,240,95,0.0,51.0
4204,72.0,0,95,1.0,51.0
4205,44.0,0,95,3.0,49.0
4206,32.0,0,95,3.0,62.0
4207,78.0,240,480,0.0,75.0
4208,32.0,240,240,3.0,56.0
4209,75.0,0,480,1.0,75.0
4210,77.0,240,95,0.0,49.0
4211,74.0,0,95,1.0,49.0
4212,34.0,0,95,3.0,45.0
4213,58.0,0,120,1.0,56.0
4214,62.0,240,120,0.0,56.0
4215,60.0,120,120,1.0,57.0
4216,63.0,0,120,0.0,57.0
4217,34.0,0,95,3.0,55.0
4218,46.0,240,95,2.0,56.0
4219,62.0,120,480,1.0,57.0
4220,65.0,0,480,0.0,57.0
4221,64.0,240,240,1.0,60.0
4222,67.0,0,240,0.0,60.0
4223,65.0,240,95,1.0,61.0
4224,68.0,0,95,0.0,61.0
4225,34.0,0,95,3.0,58.0
4226,46.0,240,95,2.0,60.0
4227,65.0,240,95,1.0,72.0
4228,68.0,0,95,0.0,72.0
4229,74.0,0,95,0.0,64.0
4230,68.0,0,95,1.0,64.0
4231,34.0,240,95,3.0,62.0
4232,46.0,240,95,2.0,63.0
4233,74.0,0,95,1.0,66.0
4234,77.0,0,95,0.0,66.0
4235,34.0,0,95,3.0,74.0
4236,35.0,240,240,3.0,69.0
4237,80.0,0,480,0.0,86.0
4238,77.0,240,480,1.0,86.0
4239,36.0,0,75,3.0,56.0
4240,79.0,240,95,0.0,65.0
4241,76.0,0,95,1.0,65.0
4242,64.0,240,120,0.0,70.0
4243,60.0,0,120,1.0,70.0
4244,62.0,0,120,1.0,71.0
4245,65.0,120,120,0.0,71.0
4246,36.0,120,95,3.0,70.0
4247,48.0,240,95,2.0,70.0
4248,64.0,0,480,1.0,72.0
4249,67.0,0,480,0.0,72.0
4250,65.0,240,240,1.0,74.0
4251,68.0,0,240,0.0,74.0
4252,67.0,0,95,1.0,75.0
4253,36.0,240,95,3.0,74.0
4254,70.0,0,95,0.0,75.0
4255,48.0,240,95,2.0,74.0
4256,64.0,240,120,0.0,79.0
4257,60.0,0,120,1.0,79.0
4258,65.0,0,120,0.0,77.0
4259,62.0,120,120,1.0,77.0
4260,36.0,0,95,3.0,77.0
4261,64.0,0,120,1.0,75.0
4262,67.0,120,120,0.0,75.0
4263,48.0,240,95,2.0,77.0
4264,60.0,0,120,1.0,87.0
4265,64.0,0,120,0.0,87.0
4266,62.0,0,120,1.0,82.0
4267,65.0,120,120,0.0,82.0
4268,67.0,0,120,0.0,81.0
4269,64.0,120,120,1.0,81.0
4270,65.0,120,120,1.0,80.0
4271,68.0,0,120,0.0,80.0
4272,36.0,120,95,3.0,81.0
4273,70.0,0,120,0.0,79.0
4274,67.0,0,120,1.0,79.0
4275,48.0,240,95,2.0,81.0
4276,67.0,0,120,0.0,88.0
4277,64.0,0,120,1.0,88.0
4278,68.0,120,120,0.0,84.0
4279,65.0,0,120,1.0,84.0
4280,70.0,120,120,0.0,80.0
4281,67.0,0,120,1.0,80.0
4282,68.0,0,120,1.0,77.0
4283,72.0,120,120,0.0,77.0
4284,73.0,0,95,0.0,71.0
4285,48.0,0,95,3.0,70.0
4286,70.0,120,95,1.0,71.0
4287,60.0,240,95,2.0,64.0
4288,70.0,0,95,0.0,60.0
4289,67.0,240,95,1.0,60.0
4290,67.0,240,95,0.0,60.0
4291,64.0,0,95,1.0,60.0
4292,48.0,0,95,3.0,63.0
4293,60.0,240,95,2.0,62.0
4294,70.0,0,95,0.0,58.0
4295,67.0,240,95,1.0,58.0
4296,48.0,0,95,3.0,61.0
4297,73.0,240,95,0.0,58.0
4298,70.0,0,95,1.0,58.0
4299,60.0,240,95,2.0,60.0
4300,70.0,0,95,0.0,57.0
4301,67.0,240,95,1.0,57.0
4302,64.0,240,95,1.0,56.0
4303,48.0,0,95,3.0,59.0
4304,67.0,0,95,0.0,56.0
4305,60.0,240,95,2.0,58.0
4306,70.0,240,95,0.0,55.0
4307,67.0,0,95,1.0,55.0
4308,52.0,0,95,3.0,57.0
4309,64.0,240,95,2.0,56.0
4310,73.0,0,480,0.0,54.0
4311,67.0,240,480,1.0,54.0
4312,70.0,0,480,1.0,54.0
4313,70.0,0,95,1.0,50.0
4314,72.0,240,95,0.0,50.0
4315,67.0,0,95,1.0,50.0
4316,52.0,0,95,3.0,55.0
4317,64.0,240,95,2.0,55.0
4318,70.0,0,0,1.0,48.0
4319,73.0,240,480,0.0,52.0
4320,67.0,240,0,1.0,48.0
4321,72.0,0,95,0.0,48.0
4322,52.0,0,95,3.0,53.0
4323,64.0,240,95,2.0,53.0
4324,73.0,0,480,0.0,51.0
4325,70.0,0,0,1.0,46.0
4326,67.0,0,0,1.0,46.0
4327,72.0,240,95,0.0,46.0
4328,52.0,240,95,3.0,51.0
4329,64.0,240,95,2.0,51.0
4330,73.0,0,480,0.0,49.0
4331,67.0,0,0,1.0,45.0
4332,70.0,0,480,1.0,49.0
4333,70.0,0,95,1.0,45.0
4334,72.0,240,95,0.0,45.0
4335,55.0,240,240,3.0,49.0
4336,67.0,240,95,2.0,49.0
4337,70.0,240,0,1.0,42.0
4338,64.0,0,0,1.0,42.0
4339,73.0,0,480,0.0,47.0
4340,72.0,0,95,0.0,42.0
4341,55.0,0,240,3.0,47.0
4342,67.0,240,95,2.0,47.0
4343,64.0,0,0,1.0,41.0
4344,70.0,0,0,1.0,41.0
4345,73.0,240,480,0.0,45.0
4346,72.0,240,95,0.0,41.0
4347,55.0,0,240,3.0,45.0
4348,67.0,240,95,2.0,45.0
4349,73.0,0,480,0.0,43.0
4350,64.0,240,0,1.0,40.0
4351,70.0,0,0,1.0,40.0
4352,72.0,0,95,0.0,40.0
4353,55.0,0,240,3.0,43.0
4354,67.0,240,95,2.0,43.0
4355,73.0,240,480,0.0,42.0
4356,70.0,240,0,1.0,38.0
4357,64.0,0,0,1.0,38.0
4358,72.0,0,95,0.0,38.0
4359,64.0,240,95,1.0,40.0
4360,73.0,0,95,0.0,40.0
4361,70.0,0,95,1.0,40.0
4362,55.0,240,240,3.0,41.0
4363,67.0,240,95,2.0,40.0
4364,72.0,0,95,0.0,38.0
4365,70.0,240,95,1.0,38.0
4366,64.0,0,95,1.0,38.0
4367,55.0,240,240,3.0,39.0
4368,67.0,240,95,2.0,38.0
4369,72.0,0,95,0.0,36.0
4370,70.0,0,95,1.0,36.0
4371,64.0,240,95,1.0,36.0
4372,55.0,240,240,3.0,37.0
4373,67.0,240,95,2.0,36.0
4374,72.0,240,95,0.0,34.0
4375,70.0,0,95,1.0,34.0
4376,64.0,0,95,1.0,34.0
4377,55.0,240,95,3.0,31.0
4378,56.0,240,120,3.0,68.0
4379,58.0,120,120,3.0,70.0
4380,80.0,120,95,0.0,71.0
4381,79.0,120,95,0.0,71.0
4382,80.0,120,95,0.0,70.0
4383,84.0,120,95,0.0,70.0
4384,60.0,0,480,3.0,80.0
4385,82.0,120,95,0.0,70.0
4386,80.0,120,95,0.0,69.0
4387,53.0,0,720,2.0,80.0
4388,62.0,0,240,3.0,74.0
4389,51.0,0,95,2.0,72.0
4390,63.0,0,95,3.0,72.0
4391,79.0,120,95,0.0,69.0
4392,77.0,120,95,0.0,68.0
4393,75.0,120,95,0.0,68.0
4394,74.0,120,95,0.0,68.0
4395,72.0,0,95,0.0,67.0
4396,70.0,120,95,0.0,67.0
4397,68.0,120,95,0.0,66.0
4398,67.0,120,95,0.0,66.0
4399,52.0,0,480,2.0,85.0
4400,64.0,120,480,3.0,85.0
4401,53.0,120,95,2.0,66.0
4402,65.0,0,95,3.0,66.0
4403,68.0,0,95,0.0,66.0
4404,72.0,120,95,0.0,65.0
4405,62.0,0,95,3.0,64.0
4406,50.0,120,95,2.0,64.0
4407,70.0,0,95,0.0,65.0
4408,68.0,120,95,0.0,64.0
4409,63.0,120,95,3.0,62.0
4410,51.0,0,95,2.0,62.0
4411,67.0,0,95,0.0,64.0
4412,63.0,120,95,0.0,64.0
4413,67.0,120,95,0.0,63.0
4414,68.0,120,95,0.0,63.0
4415,70.0,0,95,0.0,62.0
4416,49.0,120,120,3.0,66.0
4417,72.0,120,95,0.0,62.0
4418,51.0,0,120,3.0,70.0
4419,73.0,120,95,0.0,62.0
4420,72.0,120,95,0.0,61.0
4421,73.0,120,95,0.0,61.0
4422,77.0,120,95,0.0,60.0
4423,53.0,0,480,3.0,78.0
4424,75.0,0,95,0.0,60.0
4425,73.0,120,95,0.0,60.0
4426,46.0,0,720,2.0,69.0
4427,55.0,120,240,3.0,72.0
4428,44.0,0,95,2.0,62.0
4429,56.0,0,95,3.0,68.0
4430,72.0,120,95,0.0,59.0
4431,70.0,120,95,0.0,59.0
4432,68.0,120,95,0.0,58.0
4433,67.0,120,95,0.0,58.0
4434,65.0,120,95,0.0,58.0
4435,63.0,120,95,0.0,57.0
4436,61.0,120,95,0.0,57.0
4437,45.0,0,450,2.0,76.0
4438,57.0,0,450,3.0,82.0
4439,60.0,120,95,0.0,56.0
4440,58.0,120,95,3.0,68.0
4441,61.0,0,95,0.0,56.0
4442,46.0,0,95,2.0,57.0
4443,65.0,120,95,0.0,56.0
4444,43.0,120,95,2.0,56.0
4445,55.0,0,95,3.0,64.0
4446,63.0,0,95,0.0,55.0
4447,61.0,120,95,0.0,55.0
4448,44.0,120,95,3.0,63.0
4449,48.0,120,95,3.0,63.0
4450,60.0,0,240,0.0,54.0
4451,49.0,120,95,3.0,63.0
4452,51.0,120,95,3.0,63.0
4453,53.0,120,95,3.0,63.0
4454,68.0,0,120,0.0,67.0
4455,55.0,0,95,3.0,63.0
4456,70.0,120,120,0.0,71.0
4457,56.0,120,95,3.0,75.0
4458,55.0,120,95,3.0,75.0
4459,56.0,120,95,3.0,75.0
4460,53.0,120,95,3.0,74.0
4461,72.0,0,480,0.0,77.0
4462,60.0,0,480,1.0,77.0
4463,58.0,120,95,3.0,74.0
4464,56.0,120,95,3.0,74.0
4465,74.0,0,240,0.0,76.0
4466,62.0,0,240,1.0,76.0
4467,55.0,0,95,3.0,73.0
4468,63.0,0,95,1.0,75.0
4469,75.0,120,95,0.0,75.0
4470,53.0,120,95,3.0,73.0
4471,51.0,120,95,3.0,72.0
4472,50.0,120,95,3.0,72.0
4473,48.0,120,95,3.0,72.0
4474,46.0,120,95,3.0,71.0
4475,44.0,120,95,3.0,71.0
4476,43.0,120,95,3.0,71.0
4477,75.0,0,480,0.0,86.0
4478,63.0,0,480,1.0,86.0
4479,44.0,120,95,3.0,70.0
4480,77.0,0,95,0.0,74.0
4481,65.0,0,95,1.0,74.0
4482,48.0,120,95,3.0,70.0
4483,46.0,0,95,3.0,70.0
4484,74.0,0,95,0.0,71.0
4485,62.0,120,95,1.0,71.0
4486,44.0,120,95,3.0,69.0
4487,43.0,0,95,3.0,69.0
4488,63.0,120,95,1.0,66.0
4489,75.0,0,95,0.0,66.0
4490,39.0,120,95,3.0,69.0
4491,43.0,120,95,3.0,68.0
4492,44.0,120,95,3.0,68.0
4493,46.0,120,95,3.0,67.0
4494,73.0,0,120,0.0,68.0
4495,48.0,120,95,3.0,67.0
4496,75.0,0,120,0.0,73.0
4497,49.0,0,95,3.0,67.0
4498,48.0,120,95,3.0,66.0
4499,49.0,120,95,3.0,66.0
4500,46.0,120,95,3.0,66.0
4501,65.0,0,480,1.0,67.0
4502,77.0,120,480,0.0,78.0
4503,51.0,0,95,3.0,65.0
4504,49.0,120,95,3.0,65.0
4505,67.0,0,240,1.0,66.0
4506,79.0,120,240,0.0,75.0
4507,68.0,0,95,1.0,65.0
4508,48.0,0,95,3.0,65.0
4509,80.0,120,95,0.0,70.0
4510,46.0,120,95,3.0,64.0
4511,44.0,120,95,3.0,64.0
4512,43.0,120,95,3.0,65.0
4513,41.0,0,95,3.0,65.0
4514,39.0,120,95,3.0,66.0
4515,37.0,120,95,3.0,66.0
4516,36.0,120,95,3.0,67.0
4517,69.0,0,480,1.0,77.0
4518,81.0,120,480,0.0,84.0
4519,70.0,0,95,1.0,70.0
4520,82.0,0,95,0.0,69.0
4521,37.0,120,95,3.0,67.0
4522,41.0,120,95,3.0,68.0
4523,79.0,120,95,0.0,65.0
4524,67.0,0,95,1.0,66.0
4525,39.0,0,95,3.0,68.0
4526,37.0,120,95,3.0,69.0
4527,68.0,0,95,1.0,63.0
4528,36.0,0,95,3.0,69.0
4529,80.0,120,95,0.0,61.0
4530,39.0,120,95,3.0,70.0
4531,44.0,120,95,3.0,70.0
4532,43.0,120,95,3.0,71.0
4533,41.0,120,95,3.0,71.0
4534,39.0,120,95,3.0,72.0
4535,37.0,120,95,3.0,72.0
4536,34.0,120,95,3.0,73.0
4537,84.0,0,480,0.0,85.0
4538,81.0,0,480,1.0,85.0
4539,72.0,0,480,1.0,85.0
4540,73.0,120,95,1.0,80.0
4541,85.0,0,95,0.0,79.0
4542,37.0,0,95,3.0,73.0
4543,82.0,0,95,1.0,80.0
4544,34.0,120,95,3.0,74.0
4545,79.0,0,95,1.0,77.0
4546,70.0,0,95,1.0,77.0
4547,82.0,120,95,0.0,75.0
4548,39.0,0,95,3.0,75.0
4549,37.0,120,95,3.0,75.0
4550,72.0,0,95,1.0,74.0
4551,84.0,0,95,0.0,72.0
4552,36.0,120,95,3.0,76.0
4553,80.0,0,95,1.0,74.0
4554,39.0,120,95,3.0,76.0
4555,44.0,120,95,3.0,77.0
4556,43.0,120,95,3.0,77.0
4557,41.0,120,95,3.0,78.0
4558,39.0,120,95,3.0,78.0
4559,37.0,120,95,3.0,79.0
4560,34.0,120,95,3.0,79.0
4561,81.0,0,480,0.0,90.0
4562,72.0,0,480,1.0,88.0
4563,69.0,0,480,1.0,88.0
4564,73.0,120,95,1.0,84.0
4565,70.0,0,95,1.0,84.0
4566,37.0,0,95,3.0,80.0
4567,82.0,0,95,0.0,85.0
4568,34.0,120,95,3.0,80.0
4569,67.0,0,95,1.0,81.0
4570,70.0,0,95,1.0,81.0
4571,79.0,120,95,0.0,82.0
4572,39.0,0,95,3.0,81.0
4573,39.0,120,95,3.0,81.0
4574,80.0,0,95,0.0,80.0
4575,32.0,0,95,3.0,82.0
4576,68.0,0,95,1.0,78.0
4577,72.0,120,95,1.0,78.0
4578,36.0,120,95,3.0,82.0
4579,39.0,120,95,3.0,83.0
4580,37.0,120,95,3.0,83.0
4581,82.0,0,95,0.0,87.0
4582,70.0,120,95,1.0,84.0
4583,79.0,0,95,1.0,84.0
4584,36.0,0,95,3.0,84.0
4585,34.0,120,95,3.0,84.0
4586,80.0,0,95,1.0,86.0
4587,32.0,0,95,3.0,85.0
4588,84.0,0,95,0.0,89.0
4589,72.0,120,95,1.0,86.0
4590,36.0,120,95,3.0,85.0
4591,39.0,120,95,3.0,86.0
4592,37.0,120,95,3.0,86.0
4593,36.0,120,95,3.0,87.0
4594,67.0,0,95,1.0,90.0
4595,70.0,0,95,1.0,90.0
4596,79.0,0,95,0.0,93.0
4597,34.0,120,95,3.0,87.0
4598,32.0,120,95,3.0,88.0
4599,80.0,0,95,0.0,95.0
4600,72.0,0,95,1.0,93.0
4601,68.0,0,95,1.0,93.0
4602,36.0,120,95,3.0,88.0
4603,39.0,120,95,3.0,89.0
4604,37.0,120,95,3.0,89.0
4605,58.0,120,95,1.0,95.0
4606,55.0,0,95,1.0,95.0
4607,67.0,0,95,0.0,100.0
4608,36.0,0,95,3.0,90.0
4609,34.0,120,95,3.0,91.0
4610,68.0,120,95,0.0,102.0
4611,60.0,0,95,1.0,97.0
4612,32.0,0,95,3.0,91.0
4613,56.0,0,95,1.0,97.0
4614,51.0,360,0,1.0,49.0
4615,63.0,4320,360,0.0,45.0
4616,63.0,0,0,0.0,51.0
4617,56.0,120,480,0.0,51.0
4618,59.0,0,0,0.0,51.0
4619,51.0,0,480,1.0,51.0
4620,56.0,0,360,0.0,51.0
4621,59.0,360,0,0.0,50.0
4622,63.0,480,360,0.0,51.0
4623,51.0,0,0,1.0,50.0
4624,32.0,0,960,2.0,52.0
4625,56.0,0,120,0.0,50.0
4626,63.0,0,0,0.0,49.0
4627,51.0,0,360,1.0,49.0
4628,59.0,0,360,0.0,49.0
4629,56.0,0,360,0.0,49.0
4630,59.0,0,120,0.0,47.0
4631,63.0,0,120,0.0,47.0
4632,51.0,120,0,1.0,47.0
4633,56.0,0,120,0.0,47.0
4634,58.0,0,360,0.0,47.0
4635,55.0,0,360,0.0,47.0
4636,63.0,0,360,0.0,47.0
4637,44.0,0,1912,2.0,52.0
4638,32.0,120,960,2.0,50.0
4639,59.0,0,120,0.0,45.0
4640,56.0,0,120,0.0,45.0
4641,63.0,0,0,0.0,45.0
4642,51.0,0,0,1.0,45.0
4643,39.0,120,258,2.0,54.0
4644,39.0,360,102,2.0,48.0
4645,43.0,120,258,2.0,48.0
4646,46.0,360,102,2.0,45.0
4647,58.0,0,1255,0.0,45.0
4648,61.0,0,1260,0.0,45.0
4649,51.0,120,307,2.0,44.0
4650,51.0,0,360,2.0,45.0
4651,49.0,480,360,2.0,45.0
4652,55.0,0,0,0.0,52.0
4653,58.0,0,360,0.0,49.0
4654,63.0,0,0,0.0,52.0
4655,63.0,120,0,0.0,52.0
4656,58.0,0,120,0.0,52.0
4657,51.0,0,120,2.0,48.0
4658,49.0,360,120,2.0,48.0
4659,51.0,0,480,2.0,49.0
4660,56.0,480,0,0.0,56.0
4661,59.0,0,0,0.0,56.0
4662,47.0,0,480,2.0,49.0
4663,51.0,360,0,2.0,57.0
4664,44.0,0,0,2.0,57.0
4665,63.0,0,0,0.0,58.0
4666,56.0,0,0,0.0,58.0
4667,59.0,0,0,0.0,58.0
4668,63.0,0,0,0.0,59.0
4669,61.0,0,480,0.0,59.0
4670,58.0,0,480,0.0,59.0
4671,43.0,120,480,2.0,58.0
4672,51.0,0,0,2.0,62.0
4673,63.0,480,0,0.0,63.0
4674,63.0,0,0,0.0,65.0
4675,56.0,0,0,0.0,65.0
4676,59.0,0,0,0.0,65.0
4677,51.0,360,0,2.0,65.0
4678,44.0,0,0,2.0,65.0
4679,63.0,0,360,0.0,66.0
4680,58.0,0,360,0.0,66.0
4681,55.0,0,360,0.0,66.0
4682,51.0,0,360,2.0,65.0
4683,39.0,120,360,2.0,65.0
4684,51.0,0,360,2.0,55.0
4685,39.0,0,360,2.0,55.0
4686,55.0,0,360,0.0,56.0
4687,63.0,480,360,0.0,56.0
4688,58.0,0,360,0.0,56.0
4689,55.0,0,360,0.0,48.0
4690,58.0,0,360,0.0,48.0
4691,63.0,480,360,0.0,48.0
4692,51.0,0,360,2.0,46.0
4693,39.0,0,360,2.0,46.0
4694,63.0,0,360,0.0,47.0
4695,51.0,360,0,1.0,50.0
4696,63.0,0,0,0.0,52.0
4697,56.0,0,480,0.0,52.0
4698,51.0,0,480,1.0,52.0
4699,59.0,480,0,0.0,54.0
4700,56.0,360,0,0.0,58.0
4701,59.0,0,0,0.0,58.0
4702,63.0,0,0,0.0,58.0
4703,51.0,0,360,1.0,54.0
4704,56.0,120,0,0.0,59.0
4705,32.0,0,960,2.0,58.0
4706,51.0,0,0,1.0,59.0
4707,63.0,0,360,0.0,59.0
4708,59.0,360,0,0.0,63.0
4709,51.0,0,120,1.0,63.0
4710,63.0,0,120,0.0,63.0
4711,56.0,0,120,0.0,63.0
4712,51.0,0,360,1.0,64.0
4713,58.0,120,360,0.0,64.0
4714,54.0,0,360,0.0,64.0
4715,32.0,0,840,2.0,56.0
4716,44.0,120,1800,2.0,58.0
4717,63.0,0,0,0.0,68.0
4718,53.0,0,120,0.0,68.0
4719,56.0,360,120,0.0,68.0
4720,51.0,120,0,1.0,78.0
4721,39.0,0,259,2.0,72.0
4722,39.0,360,103,2.0,63.0
4723,42.0,120,259,2.0,61.0
4724,46.0,360,103,2.0,57.0
4725,51.0,120,300,2.0,56.0
4726,54.0,0,1260,0.0,78.0
4727,58.0,0,1260,0.0,78.0
4728,63.0,0,1260,0.0,78.0
4729,63.0,360,0,0.0,56.0
4730,59.0,0,360,0.0,58.0
4731,54.0,0,0,0.0,56.0
4732,47.0,0,0,2.0,53.0
4733,59.0,0,120,0.0,56.0
4734,63.0,0,480,0.0,55.0
4735,56.0,120,480,0.0,55.0
4736,44.0,0,480,2.0,53.0
4737,59.0,0,0,0.0,53.0
4738,40.0,0,360,2.0,51.0
4739,56.0,0,0,0.0,52.0
4740,61.0,480,360,0.0,53.0
4741,40.0,360,120,2.0,49.0
4742,59.0,0,0,0.0,51.0
4743,61.0,0,120,0.0,52.0
4744,61.0,0,480,0.0,51.0
4745,54.0,480,0,0.0,49.0
4746,42.0,0,0,2.0,47.0
4747,30.0,0,360,2.0,47.0
4748,54.0,0,0,0.0,47.0
4749,52.0,0,360,0.0,49.0
4750,61.0,0,360,0.0,49.0
4751,58.0,0,0,0.0,47.0
4752,42.0,0,120,2.0,45.0
4753,30.0,360,120,2.0,45.0
4754,52.0,0,120,0.0,47.0
4755,61.0,0,120,0.0,47.0
4756,54.0,0,360,0.0,47.0
4757,59.0,0,360,0.0,47.0
4758,47.0,120,360,2.0,45.0
4759,35.0,0,360,2.0,45.0
4760,51.0,0,360,0.0,47.0
4761,51.0,0,360,0.0,41.0
4762,35.0,0,360,2.0,40.0
4763,47.0,0,360,2.0,40.0
4764,59.0,480,360,0.0,41.0
4765,54.0,0,360,0.0,41.0
4766,47.0,0,360,2.0,34.0
4767,59.0,480,360,0.0,35.0
4768,54.0,0,360,0.0,35.0
4769,51.0,0,360,0.0,35.0
4770,35.0,0,360,2.0,34.0
4771,54.0,480,360,1.0,45.0
4772,66.0,360,0,0.0,50.0
4773,66.0,120,0,0.0,52.0
4774,54.0,0,0,1.0,52.0
4775,59.0,0,480,0.0,52.0
4776,66.0,480,0,0.0,50.0
4777,62.0,0,0,0.0,50.0
4778,54.0,0,0,1.0,50.0
4779,59.0,0,360,0.0,50.0
4780,59.0,0,120,0.0,55.0
4781,35.0,120,0,2.0,59.0
4782,54.0,0,0,1.0,57.0
4783,62.0,0,0,0.0,57.0
4784,66.0,360,120,0.0,55.0
4785,59.0,0,360,0.0,57.0
4786,62.0,0,0,0.0,62.0
4787,66.0,0,0,0.0,62.0
4788,59.0,360,120,0.0,62.0
4789,66.0,0,0,0.0,63.0
4790,54.0,0,0,1.0,63.0
4791,58.0,0,360,0.0,63.0
4792,61.0,120,360,0.0,63.0
4793,54.0,360,0,1.0,68.0
4794,66.0,0,0,0.0,68.0
4795,47.0,0,1920,2.0,57.0
4796,54.0,0,0,1.0,76.0
4797,59.0,0,120,0.0,68.0
4798,62.0,0,120,0.0,68.0
4799,30.0,120,303,2.0,68.0
4800,42.0,0,303,2.0,68.0
4801,30.0,360,111,2.0,60.0
4802,42.0,0,111,2.0,60.0
4803,46.0,120,303,2.0,59.0
4804,34.0,0,303,2.0,59.0
4805,49.0,360,111,2.0,57.0
4806,37.0,0,111,2.0,57.0
4807,66.0,0,1260,0.0,76.0
4808,64.0,0,1260,0.0,76.0
4809,61.0,0,1260,0.0,76.0
4810,42.0,120,300,2.0,57.0
4811,54.0,0,307,2.0,57.0
4812,61.0,0,360,0.0,58.0
4813,58.0,0,360,0.0,58.0
4814,66.0,0,360,0.0,58.0
4815,52.0,480,360,2.0,54.0
4816,40.0,360,0,2.0,53.0
4817,54.0,0,0,1.0,56.0
4818,58.0,0,120,0.0,56.0
4819,61.0,0,120,0.0,56.0
4820,52.0,0,120,2.0,53.0
4821,66.0,0,0,0.0,55.0
4822,50.0,0,480,2.0,53.0
4823,54.0,480,0,1.0,53.0
4824,38.0,0,480,2.0,53.0
4825,62.0,120,480,0.0,55.0
4826,59.0,0,0,0.0,53.0
4827,35.0,0,360,2.0,51.0
4828,47.0,360,0,2.0,49.0
4829,54.0,0,0,1.0,51.0
4830,66.0,0,0,0.0,51.0
4831,59.0,0,0,0.0,51.0
4832,62.0,0,0,0.0,51.0
4833,35.0,0,120,2.0,49.0
4834,66.0,0,0,0.0,50.0
4835,54.0,0,480,1.0,50.0
4836,46.0,0,480,2.0,49.0
4837,61.0,0,480,0.0,50.0
4838,64.0,0,480,0.0,50.0
4839,34.0,120,480,2.0,49.0
4840,66.0,0,0,0.0,46.0
4841,54.0,360,0,1.0,46.0
4842,59.0,0,0,0.0,46.0
4843,47.0,0,360,2.0,47.0
4844,35.0,480,360,2.0,47.0
4845,62.0,0,0,0.0,46.0
4846,47.0,0,120,2.0,46.0
4847,35.0,0,120,2.0,46.0
4848,54.0,0,0,1.0,49.0
4849,30.0,0,360,2.0,45.0
4850,66.0,0,360,0.0,49.0
4851,61.0,0,360,0.0,49.0
4852,42.0,0,360,2.0,45.0
4853,58.0,120,360,0.0,49.0
4854,30.0,0,360,2.0,39.0
4855,42.0,0,360,2.0,39.0
4856,54.0,480,360,1.0,43.0
4857,66.0,0,360,0.0,43.0
4858,58.0,0,360,0.0,43.0
4859,61.0,0,360,0.0,43.0
4860,54.0,0,360,1.0,36.0
4861,66.0,0,360,0.0,36.0
4862,30.0,0,360,2.0,32.0
4863,42.0,0,360,2.0,32.0
4864,61.0,0,360,0.0,36.0
4865,58.0,480,360,0.0,36.0
4866,54.0,0,360,1.0,48.0
4867,66.0,480,360,0.0,48.0
4868,66.0,0,120,0.0,51.0
4869,54.0,120,0,1.0,52.0
4870,66.0,0,0,0.0,55.0
4871,59.0,480,0,0.0,55.0
4872,62.0,0,480,0.0,52.0
4873,62.0,0,360,0.0,55.0
4874,54.0,0,360,1.0,55.0
4875,54.0,0,120,1.0,58.0
4876,59.0,0,120,0.0,58.0
4877,62.0,120,0,0.0,59.0
4878,66.0,360,120,0.0,58.0
4879,35.0,0,0,2.0,56.0
4880,62.0,360,0,0.0,63.0
4881,59.0,0,0,0.0,63.0
4882,54.0,0,360,1.0,59.0
4883,66.0,0,0,0.0,63.0
4884,59.0,0,330,0.0,64.0
4885,64.0,0,360,0.0,64.0
4886,61.0,0,360,0.0,64.0
4887,52.0,120,360,1.0,64.0
4888,62.0,0,120,0.0,67.0
4889,54.0,360,120,1.0,67.0
4890,59.0,0,120,0.0,67.0
4891,66.0,0,120,0.0,67.0
4892,47.0,0,1920,2.0,57.0
4893,40.0,120,303,2.0,67.0
4894,40.0,360,111,2.0,62.0
4895,43.0,120,303,2.0,60.0
4896,47.0,360,111,2.0,55.0
4897,67.0,0,1260,0.0,73.0
4898,64.0,0,1260,0.0,73.0
4899,59.0,0,1260,0.0,73.0
4900,55.0,0,1260,1.0,73.0
4901,52.0,120,307,2.0,53.0
4902,55.0,480,360,1.0,46.0
4903,59.0,360,0,0.0,48.0
4904,64.0,0,360,0.0,46.0
4905,67.0,0,360,0.0,46.0
4906,43.0,0,0,2.0,50.0
4907,52.0,0,360,2.0,47.0
4908,52.0,0,120,2.0,50.0
4909,64.0,0,120,0.0,48.0
4910,67.0,0,120,0.0,48.0
4911,55.0,0,120,1.0,48.0
4912,50.0,0,480,2.0,50.0
4913,45.0,0,480,2.0,50.0
4914,62.0,480,0,0.0,53.0
4915,57.0,0,480,0.0,49.0
4916,66.0,0,480,0.0,49.0
4917,54.0,0,0,2.0,53.0
4918,45.0,0,360,2.0,53.0
4919,50.0,0,0,2.0,56.0
4920,57.0,0,360,0.0,53.0
4921,66.0,0,360,0.0,53.0
4922,57.0,0,120,0.0,55.0
4923,66.0,0,120,0.0,55.0
4924,54.0,360,120,2.0,56.0
4925,45.0,0,0,2.0,57.0
4926,62.0,0,120,0.0,55.0
4927,49.0,0,0,2.0,60.0
4928,52.0,0,0,2.0,60.0
4929,61.0,480,0,0.0,59.0
4930,64.0,0,0,0.0,59.0
4931,57.0,0,480,0.0,56.0
4932,45.0,0,0,2.0,60.0
4933,57.0,0,360,1.0,59.0
4934,64.0,0,0,0.0,62.0
4935,69.0,0,0,0.0,62.0
4936,52.0,0,120,2.0,63.0
4937,45.0,0,120,2.0,63.0
4938,57.0,0,120,1.0,62.0
4939,49.0,360,120,2.0,63.0
4940,61.0,0,120,0.0,62.0
4941,62.0,0,360,0.0,57.0
4942,50.0,120,360,2.0,55.0
4943,38.0,0,360,2.0,55.0
4944,38.0,0,360,2.0,47.0
4945,62.0,480,360,0.0,48.0
4946,50.0,0,360,2.0,47.0
4947,50.0,0,360,2.0,40.0
4948,38.0,480,360,2.0,40.0
4949,62.0,0,367,0.0,40.0
4950,50.0,0,360,2.0,32.0
4951,56.0,0,360,2.0,32.0
4952,71.0,480,360,0.0,34.0
4953,65.0,0,360,1.0,34.0
4954,65.0,0,120,1.0,37.0
4955,56.0,0,0,2.0,46.0
4956,50.0,120,0,2.0,46.0
4957,71.0,0,120,0.0,37.0
4958,50.0,480,480,2.0,41.0
4959,65.0,480,0,1.0,43.0
4960,71.0,0,960,0.0,45.0
4961,58.0,0,480,2.0,40.0
4962,50.0,0,480,2.0,40.0
4963,70.0,0,480,0.0,43.0
4964,68.0,0,480,0.0,42.0
4965,50.0,480,480,2.0,38.0
4966,59.0,0,480,2.0,38.0
4967,65.0,0,480,1.0,42.0
4968,51.0,0,199,2.0,36.0
4969,58.0,0,199,2.0,36.0
4970,67.0,480,204,0.0,40.0
4971,63.0,0,204,1.0,40.0
4972,50.0,0,120,2.0,50.0
4973,56.0,0,120,2.0,50.0
4974,65.0,0,120,1.0,49.0
4975,71.0,0,0,0.0,57.0
4976,50.0,480,0,2.0,53.0
4977,65.0,0,960,1.0,57.0
4978,56.0,0,960,2.0,57.0
4979,50.0,0,0,2.0,49.0
4980,58.0,480,360,2.0,49.0
4981,70.0,0,360,0.0,51.0
4982,65.0,0,360,1.0,51.0
4983,50.0,0,120,2.0,46.0
4984,59.0,0,120,2.0,46.0
4985,68.0,0,120,0.0,49.0
4986,65.0,360,120,1.0,49.0
4987,58.0,0,240,2.0,45.0
4988,51.0,120,240,2.0,45.0
4989,63.0,0,240,1.0,48.0
4990,67.0,0,240,0.0,48.0
4991,65.0,0,96,1.0,80.0
4992,56.0,0,96,2.0,78.0
4993,50.0,0,96,2.0,78.0
4994,71.0,360,96,0.0,80.0
4995,56.0,120,288,2.0,80.0
4996,50.0,0,288,2.0,80.0
4997,71.0,0,288,0.0,82.0
4998,65.0,0,288,1.0,83.0
4999,71.0,0,96,0.0,87.0
5000,56.0,360,96,2.0,85.0
5001,65.0,0,96,1.0,91.0
5002,50.0,0,96,2.0,85.0
5003,50.0,0,288,2.0,87.0
5004,56.0,0,288,2.0,87.0
5005,71.0,0,288,0.0,89.0
5006,65.0,120,288,1.0,93.0
5007,50.0,0,96,2.0,92.0
5008,71.0,360,96,0.0,95.0
5009,65.0,0,96,1.0,101.0
5010,56.0,0,96,2.0,92.0
5011,58.0,0,288,2.0,94.0
5012,50.0,120,288,2.0,94.0
5013,70.0,0,288,0.0,96.0
5014,65.0,0,288,1.0,104.0
5015,65.0,0,96,1.0,112.0
5016,59.0,0,96,2.0,99.0
5017,68.0,360,96,0.0,102.0
5018,50.0,0,96,2.0,99.0
5019,58.0,0,192,2.0,101.0
5020,51.0,120,192,2.0,101.0
5021,67.0,0,192,0.0,104.0
5022,63.0,0,192,1.0,115.0
5023,52.0,0,960,2.0,108.0
5024,64.0,480,960,0.0,111.0
5025,63.0,0,96,0.0,91.0
5026,51.0,960,96,2.0,88.0
5027,49.0,120,96,2.0,84.0
5028,61.0,0,96,0.0,87.0
5029,59.0,120,96,0.0,83.0
5030,47.0,0,96,2.0,79.0
5031,46.0,120,96,2.0,74.0
5032,58.0,0,96,0.0,78.0
5033,56.0,0,480,0.0,74.0
5034,63.0,0,360,0.0,42.0
5035,59.0,0,360,0.0,42.0
5036,56.0,480,360,0.0,42.0
5037,51.0,0,0,1.0,45.0
5038,51.0,120,0,1.0,45.0
5039,63.0,0,0,0.0,45.0
5040,59.0,360,120,0.0,45.0
5041,56.0,0,0,0.0,45.0
5042,32.0,120,960,2.0,70.0
5043,56.0,0,0,0.0,48.0
5044,59.0,0,0,0.0,48.0
5045,63.0,0,120,0.0,48.0
5046,51.0,360,120,1.0,48.0
5047,63.0,0,360,0.0,49.0
5048,55.0,0,360,0.0,49.0
5049,51.0,0,360,1.0,49.0
5050,58.0,120,360,0.0,49.0
5051,32.0,0,960,2.0,57.0
5052,44.0,0,1920,2.0,70.0
5053,59.0,0,120,0.0,51.0
5054,56.0,0,120,0.0,51.0
5055,63.0,0,120,0.0,51.0
5056,51.0,0,0,1.0,52.0
5057,39.0,120,259,2.0,57.0
5058,39.0,360,103,2.0,55.0
5059,43.0,120,259,2.0,56.0
5060,46.0,360,103,2.0,59.0
5061,51.0,120,307,2.0,60.0
5062,58.0,0,1320,0.0,52.0
5063,63.0,0,1327,0.0,52.0
5064,61.0,0,1327,0.0,52.0
5065,58.0,0,0,0.0,59.0
5066,55.0,360,0,0.0,59.0
5067,63.0,0,360,0.0,57.0
5068,49.0,0,360,2.0,63.0
5069,49.0,0,120,2.0,65.0
5070,63.0,0,120,0.0,59.0
5071,47.0,120,100,2.0,66.0
5072,49.0,60,100,2.0,67.0
5073,47.0,60,100,2.0,67.0
5074,49.0,60,100,2.0,67.0
5075,47.0,60,100,2.0,68.0
5076,49.0,60,100,2.0,68.0
5077,47.0,60,100,2.0,69.0
5078,63.0,0,480,0.0,68.0
5079,56.0,0,480,0.0,68.0
5080,59.0,60,0,0.0,62.0
5081,49.0,60,100,2.0,69.0
5082,47.0,0,120,2.0,69.0
5083,49.0,80,120,2.0,70.0
5084,47.0,80,120,2.0,70.0
5085,63.0,0,360,0.0,62.0
5086,56.0,0,360,0.0,62.0
5087,59.0,0,0,0.0,64.0
5088,46.0,80,148,2.0,71.0
5089,56.0,0,120,0.0,64.0
5090,63.0,0,0,0.0,65.0
5091,44.0,120,120,2.0,72.0
5092,43.0,0,480,2.0,73.0
5093,61.0,0,480,0.0,65.0
5094,63.0,0,0,0.0,68.0
5095,58.0,120,480,0.0,65.0
5096,59.0,0,0,0.0,70.0
5097,44.0,0,0,2.0,78.0
5098,56.0,0,0,0.0,70.0
5099,63.0,360,120,0.0,70.0
5100,63.0,0,360,0.0,75.0
5101,58.0,0,360,0.0,75.0
5102,55.0,120,360,0.0,75.0
5103,39.0,0,360,2.0,80.0
5104,63.0,0,360,0.0,62.0
5105,39.0,0,360,2.0,66.0
5106,58.0,0,360,0.0,62.0
5107,55.0,480,360,0.0,62.0
5108,55.0,480,360,0.0,50.0
5109,58.0,0,360,0.0,50.0
5110,63.0,0,360,0.0,50.0
5111,39.0,0,360,2.0,51.0
5112,63.0,360,0,0.0,50.0
5113,51.0,0,0,1.0,50.0
5114,51.0,120,0,1.0,54.0
5115,63.0,0,0,0.0,54.0
5116,56.0,0,480,0.0,54.0
5117,60.0,0,480,0.0,54.0
5118,63.0,0,360,0.0,54.0
5119,56.0,0,0,0.0,56.0
5120,51.0,360,0,1.0,56.0
5121,60.0,0,0,0.0,56.0
5122,32.0,0,960,2.0,61.0
5123,51.0,0,0,1.0,57.0
5124,63.0,120,0,0.0,57.0
5125,63.0,0,0,0.0,59.0
5126,60.0,360,0,0.0,59.0
5127,51.0,0,0,1.0,59.0
5128,56.0,0,0,0.0,59.0
5129,63.0,120,0,0.0,60.0
5130,51.0,0,0,1.0,60.0
5131,51.0,360,0,1.0,62.0
5132,56.0,0,0,0.0,62.0
5133,58.0,0,360,0.0,60.0
5134,63.0,0,0,0.0,62.0
5135,44.0,0,1920,2.0,61.0
5136,32.0,0,960,2.0,62.0
5137,60.0,0,120,0.0,62.0
5138,37.0,120,303,2.0,68.0
5139,37.0,360,111,2.0,71.0
5140,40.0,120,303,2.0,71.0
5141,44.0,360,111,2.0,74.0
5142,49.0,120,300,2.0,80.0
5143,56.0,480,0,0.0,80.0
5144,61.0,0,0,0.0,80.0
5145,64.0,0,0,0.0,80.0
5146,52.0,0,0,1.0,80.0
5147,61.0,0,134,1.0,88.0
5148,33.0,360,111,2.0,83.0
5149,45.0,0,111,2.0,83.0
5150,49.0,120,303,2.0,84.0
5151,37.0,0,303,2.0,84.0
5152,52.0,0,111,2.0,87.0
5153,40.0,360,111,2.0,87.0
5154,45.0,120,360,2.0,90.0
5155,57.0,0,360,2.0,90.0
5156,73.0,0,1440,0.0,88.0
5157,69.0,0,1440,0.0,88.0
5158,64.0,480,1440,0.0,88.0
5159,61.0,0,360,1.0,92.0
5160,73.0,0,360,0.0,92.0
5161,64.0,0,360,0.0,92.0
5162,69.0,480,360,0.0,92.0
5163,43.0,360,111,2.0,96.0
5164,55.0,0,111,2.0,96.0
5165,58.0,120,303,2.0,99.0
5166,46.0,0,303,2.0,99.0
5167,63.0,360,111,2.0,99.0
5168,51.0,0,111,2.0,99.0
5169,67.0,0,240,2.0,104.0
5170,55.0,120,240,2.0,104.0
5171,70.0,480,1440,1.0,101.0
5172,82.0,0,1440,0.0,101.0
5173,75.0,0,0,0.0,104.0
5174,73.0,0,1440,0.0,101.0
5175,55.0,0,240,2.0,103.0
5176,43.0,0,240,2.0,103.0
5177,73.0,0,360,0.0,104.0
5178,70.0,480,360,1.0,104.0
5179,82.0,0,360,0.0,104.0
5180,71.0,0,240,1.0,107.0
5181,75.0,0,240,0.0,107.0
5182,83.0,480,240,0.0,107.0
5183,44.0,0,240,2.0,113.0
5184,56.0,0,240,2.0,113.0
5185,49.0,0,240,2.0,109.0
5186,37.0,0,240,2.0,109.0
5187,73.0,0,240,0.0,108.0
5188,70.0,0,240,1.0,108.0
5189,76.0,960,240,0.0,108.0
5190,82.0,0,240,0.0,108.0
5191,79.0,0,240,0.0,108.0
5192,51.0,0,240,2.0,110.0
5193,73.0,0,240,0.0,108.0
5194,67.0,0,240,1.0,108.0
5195,39.0,480,240,2.0,110.0
5196,70.0,0,240,0.0,108.0
5197,71.0,0,240,0.0,108.0
5198,80.0,480,240,0.0,108.0
5199,68.0,0,240,1.0,108.0
5200,32.0,0,240,2.0,111.0
5201,44.0,0,240,2.0,111.0
5202,56.0,0,240,0.0,108.0
5203,51.0,0,240,1.0,108.0
5204,47.0,0,240,1.0,108.0
5205,32.0,0,240,2.0,113.0
5206,44.0,480,240,2.0,113.0
5207,44.0,480,288,0.0,115.0
5208,32.0,0,288,2.0,115.0
5209,32.0,960,60,2.0,37.0
5210,60.0,0,60,0.0,36.0
5211,44.0,0,60,2.0,38.0
5212,51.0,60,60,0.0,38.0
5213,60.0,60,60,0.0,39.0
5214,32.0,0,60,2.0,40.0
5215,44.0,0,60,2.0,42.0
5216,51.0,60,60,0.0,41.0
5217,60.0,0,60,0.0,43.0
5218,32.0,60,60,2.0,43.0
5219,51.0,60,60,0.0,45.0
5220,44.0,0,60,2.0,45.0
5221,32.0,60,60,2.0,47.0
5222,60.0,0,60,0.0,46.0
5223,51.0,0,60,0.0,48.0
5224,44.0,60,60,2.0,48.0
5225,32.0,60,60,2.0,50.0
5226,60.0,0,60,0.0,50.0
5227,51.0,0,60,0.0,52.0
5228,44.0,60,60,2.0,52.0
5229,60.0,0,60,0.0,53.0
5230,32.0,60,60,2.0,54.0
5231,51.0,0,60,0.0,55.0
5232,44.0,60,60,2.0,55.0
5233,32.0,0,60,2.0,57.0
5234,60.0,60,60,0.0,57.0
5235,44.0,60,60,2.0,59.0
5236,51.0,0,60,0.0,59.0
5237,60.0,0,60,0.0,60.0
5238,32.0,60,60,2.0,60.0
5239,51.0,60,60,0.0,62.0
5240,44.0,0,60,2.0,62.0
5241,48.0,0,60,0.0,70.0
5242,56.0,0,60,0.0,70.0
5243,32.0,60,60,2.0,69.0
5244,68.0,360,60,0.0,81.0
5245,72.0,0,60,0.0,81.0
5246,60.0,0,60,2.0,78.0
5247,56.0,0,60,2.0,78.0
5248,72.0,120,120,0.0,84.0
5249,60.0,0,120,2.0,80.0
5250,75.0,0,120,0.0,84.0
5251,63.0,0,120,2.0,80.0
5252,60.0,480,60,0.0,39.0
5253,32.0,0,60,2.0,41.0
5254,44.0,0,60,2.0,42.0
5255,51.0,60,60,0.0,41.0
5256,32.0,60,60,2.0,43.0
5257,60.0,0,60,0.0,42.0
5258,44.0,60,60,2.0,45.0
5259,51.0,0,60,0.0,44.0
5260,60.0,0,60,0.0,46.0
5261,32.0,60,60,2.0,46.0
5262,51.0,60,60,0.0,47.0
5263,44.0,0,60,2.0,48.0
5264,60.0,0,60,0.0,49.0
5265,32.0,60,60,2.0,49.0
5266,51.0,60,60,0.0,50.0
5267,44.0,0,60,2.0,50.0
5268,60.0,60,60,0.0,52.0
5269,32.0,0,60,2.0,52.0
5270,44.0,0,60,2.0,53.0
5271,51.0,60,60,0.0,54.0
5272,32.0,60,60,2.0,55.0
5273,60.0,0,60,0.0,55.0
5274,51.0,0,60,0.0,57.0
5275,44.0,60,60,2.0,56.0
5276,32.0,60,60,2.0,58.0
5277,60.0,0,60,0.0,59.0
5278,51.0,0,60,0.0,60.0
5279,44.0,60,60,2.0,59.0
5280,32.0,60,60,2.0,60.0
5281,60.0,0,60,0.0,62.0
5282,51.0,0,60,0.0,63.0
5283,44.0,60,60,2.0,62.0
5284,56.0,60,60,0.0,70.0
5285,48.0,0,60,0.0,70.0
5286,32.0,0,60,2.0,70.0
5287,72.0,0,60,0.0,88.0
5288,68.0,0,60,0.0,88.0
5289,60.0,0,60,2.0,80.0
5290,56.0,360,60,2.0,80.0
5291,60.0,0,120,2.0,82.0
5292,63.0,120,120,2.0,82.0
5293,75.0,0,120,0.0,90.0
5294,72.0,0,120,0.0,90.0
5295,58.0,0,120,0.0,95.0
5296,46.0,480,120,2.0,91.0
5297,34.0,0,120,2.0,91.0
5298,67.0,0,60,2.0,90.0
5299,63.0,0,60,2.0,90.0
5300,79.0,0,60,0.0,93.0
5301,75.0,360,60,0.0,93.0
5302,70.0,120,120,2.0,90.0
5303,82.0,0,120,0.0,92.0
5304,58.0,0,120,0.0,90.0
5305,34.0,0,120,2.0,88.0
5306,46.0,480,120,2.0,88.0
5307,74.0,0,60,0.0,89.0
5308,77.0,360,60,0.0,89.0
5309,65.0,0,60,2.0,87.0
5310,62.0,0,60,2.0,87.0
5311,82.0,0,120,0.0,89.0
5312,70.0,120,120,2.0,87.0
5313,58.0,360,60,2.0,86.0
5314,46.0,0,60,2.0,86.0
5315,70.0,0,60,0.0,87.0
5316,63.0,0,120,2.0,86.0
5317,51.0,0,120,2.0,86.0
5318,75.0,120,120,0.0,87.0
5319,58.0,360,60,0.0,86.0
5320,63.0,0,120,0.0,85.0
5321,51.0,0,120,2.0,84.0
5322,43.0,0,120,2.0,84.0
5323,46.0,0,120,2.0,84.0
5324,39.0,120,120,2.0,84.0
5325,46.0,360,60,0.0,84.0
5326,39.0,120,120,2.0,83.0
5327,43.0,0,120,2.0,83.0
5328,51.0,0,120,0.0,84.0
5329,32.0,960,60,2.0,36.0
5330,60.0,0,60,0.0,37.0
5331,44.0,60,60,2.0,38.0
5332,51.0,0,60,0.0,39.0
5333,32.0,60,60,2.0,40.0
5334,60.0,0,60,0.0,40.0
5335,44.0,60,60,2.0,42.0
5336,51.0,0,60,0.0,42.0
5337,32.0,0,60,2.0,44.0
5338,60.0,60,60,0.0,44.0
5339,51.0,60,60,0.0,46.0
5340,44.0,0,60,2.0,46.0
5341,60.0,0,60,0.0,47.0
5342,32.0,60,60,2.0,47.0
5343,51.0,0,60,0.0,49.0
5344,44.0,60,60,2.0,49.0
5345,60.0,60,60,0.0,51.0
5346,32.0,0,60,2.0,51.0
5347,44.0,60,60,2.0,53.0
5348,51.0,0,60,0.0,53.0
5349,60.0,60,60,0.0,54.0
5350,32.0,0,60,2.0,55.0
5351,44.0,0,60,2.0,57.0
5352,51.0,60,60,0.0,56.0
5353,60.0,60,60,0.0,58.0
5354,32.0,0,60,2.0,59.0
5355,51.0,60,60,0.0,59.0
5356,44.0,0,60,2.0,60.0
5357,32.0,0,60,2.0,62.0
5358,60.0,60,60,0.0,61.0
5359,44.0,60,60,2.0,64.0
5360,51.0,0,60,0.0,63.0
5361,32.0,60,60,2.0,71.0
5362,56.0,0,60,0.0,71.0
5363,48.0,0,60,0.0,71.0
5364,60.0,0,60,2.0,79.0
5365,56.0,0,60,2.0,79.0
5366,72.0,360,60,0.0,80.0
5367,68.0,0,60,0.0,80.0
5368,60.0,120,120,2.0,82.0
5369,72.0,0,120,0.0,83.0
5370,63.0,0,120,2.0,82.0
5371,75.0,0,120,0.0,83.0
5372,60.0,480,60,0.0,41.0
5373,32.0,0,60,2.0,40.0
5374,51.0,60,60,0.0,43.0
5375,44.0,0,60,2.0,41.0
5376,60.0,60,60,0.0,44.0
5377,32.0,0,60,2.0,43.0
5378,51.0,0,60,0.0,45.0
5379,44.0,60,60,2.0,44.0
5380,32.0,0,60,2.0,46.0
5381,60.0,60,60,0.0,47.0
5382,51.0,0,60,0.0,48.0
5383,44.0,60,60,2.0,47.0
5384,60.0,0,60,0.0,50.0
5385,32.0,60,60,2.0,49.0
5386,51.0,0,60,0.0,51.0
5387,44.0,60,60,2.0,50.0
5388,32.0,0,60,2.0,52.0
5389,60.0,60,60,0.0,52.0
5390,51.0,60,60,0.0,54.0
5391,44.0,0,60,2.0,54.0
5392,32.0,0,60,2.0,55.0
5393,60.0,60,60,0.0,55.0
5394,44.0,0,60,2.0,57.0
5395,51.0,60,60,0.0,57.0
5396,60.0,60,60,0.0,58.0
5397,32.0,0,60,2.0,58.0
5398,51.0,60,60,0.0,59.0
5399,44.0,0,60,2.0,60.0
5400,60.0,60,60,0.0,61.0
5401,32.0,0,60,2.0,61.0
5402,44.0,0,60,2.0,63.0
5403,51.0,60,60,0.0,62.0
5404,56.0,60,60,0.0,70.0
5405,32.0,0,60,2.0,68.0
5406,48.0,0,60,0.0,70.0
5407,72.0,0,60,0.0,86.0
5408,68.0,360,60,0.0,86.0
5409,60.0,0,60,2.0,84.0
5410,56.0,0,60,2.0,84.0
5411,60.0,0,120,2.0,87.0
5412,75.0,0,120,0.0,88.0
5413,72.0,0,120,0.0,88.0
5414,63.0,120,120,2.0,87.0
5415,58.0,480,120,0.0,93.0
5416,46.0,0,120,2.0,91.0
5417,34.0,0,120,2.0,91.0
5418,79.0,0,60,0.0,92.0
5419,63.0,0,60,2.0,90.0
5420,75.0,0,60,0.0,92.0
5421,67.0,360,60,2.0,90.0
5422,70.0,0,120,2.0,90.0
5423,82.0,120,120,0.0,92.0
5424,34.0,0,120,2.0,89.0
5425,46.0,0,120,2.0,89.0
5426,58.0,480,120,0.0,90.0
5427,74.0,0,60,0.0,89.0
5428,77.0,0,60,0.0,89.0
5429,62.0,360,60,2.0,88.0
5430,65.0,0,60,2.0,88.0
5431,82.0,120,120,0.0,88.0
5432,70.0,0,120,2.0,87.0
5433,58.0,0,60,2.0,86.0
5434,46.0,0,60,2.0,86.0
5435,70.0,360,60,0.0,87.0
5436,63.0,0,120,2.0,86.0
5437,75.0,0,120,0.0,87.0
5438,51.0,120,120,2.0,86.0
5439,58.0,360,60,0.0,85.0
5440,39.0,0,120,2.0,84.0
5441,46.0,120,120,2.0,84.0
5442,43.0,0,120,2.0,84.0
5443,63.0,0,120,0.0,85.0
5444,51.0,0,120,2.0,84.0
5445,46.0,360,60,0.0,84.0
5446,51.0,120,120,0.0,83.0
5447,43.0,0,120,2.0,83.0
5448,39.0,0,120,2.0,83.0
5449,61.0,960,60,0.0,43.0
5450,39.0,0,60,2.0,40.0
5451,51.0,60,60,2.0,41.0
5452,58.0,0,60,0.0,45.0
5453,39.0,60,60,2.0,43.0
5454,61.0,0,60,0.0,46.0
5455,51.0,60,60,2.0,44.0
5456,58.0,0,60,0.0,47.0
5457,61.0,0,60,0.0,49.0
5458,39.0,60,60,2.0,46.0
5459,58.0,60,60,0.0,50.0
5460,51.0,0,60,2.0,47.0
5461,39.0,0,60,2.0,49.0
5462,61.0,60,60,0.0,52.0
5463,58.0,60,60,0.0,53.0
5464,51.0,0,60,2.0,50.0
5465,39.0,60,60,2.0,52.0
5466,61.0,0,60,0.0,55.0
5467,51.0,60,60,2.0,53.0
5468,58.0,0,60,0.0,56.0
5469,39.0,0,60,2.0,55.0
5470,61.0,60,60,0.0,58.0
5471,51.0,60,60,2.0,56.0
5472,58.0,0,60,0.0,59.0
5473,61.0,0,60,0.0,61.0
5474,39.0,60,60,2.0,58.0
5475,51.0,0,60,2.0,60.0
5476,58.0,60,60,0.0,62.0
5477,61.0,0,60,0.0,64.0
5478,39.0,60,60,2.0,61.0
5479,51.0,0,60,2.0,63.0
5480,58.0,0,0,0.0,74.0
5481,55.0,0,60,0.0,74.0
5482,39.0,60,60,2.0,73.0
5483,58.0,0,60,2.0,81.0
5484,67.0,360,60,0.0,81.0
5485,70.0,0,60,0.0,81.0
5486,55.0,0,60,2.0,81.0
5487,73.0,0,120,0.0,84.0
5488,58.0,120,120,2.0,84.0
5489,61.0,0,120,2.0,84.0
5490,70.0,0,120,0.0,84.0
5491,39.0,0,60,2.0,42.0
5492,61.0,480,60,0.0,41.0
5493,58.0,0,60,0.0,42.0
5494,51.0,60,60,2.0,44.0
5495,61.0,60,60,0.0,44.0
5496,39.0,0,60,2.0,45.0
5497,58.0,60,60,0.0,45.0
5498,51.0,0,60,2.0,47.0
5499,61.0,60,60,0.0,47.0
5500,39.0,0,60,2.0,49.0
5501,51.0,60,60,2.0,50.0
5502,58.0,0,60,0.0,48.0
5503,39.0,0,60,2.0,52.0
5504,61.0,60,60,0.0,50.0
5505,51.0,60,60,2.0,54.0
5506,58.0,0,60,0.0,51.0
5507,61.0,60,60,0.0,52.0
5508,39.0,0,60,2.0,55.0
5509,51.0,0,60,2.0,57.0
5510,58.0,60,60,0.0,54.0
5511,39.0,0,60,2.0,59.0
5512,61.0,60,60,0.0,55.0
5513,58.0,0,60,0.0,57.0
5514,51.0,60,60,2.0,61.0
5515,61.0,60,60,0.0,58.0
5516,39.0,0,60,2.0,62.0
5517,51.0,0,60,2.0,64.0
5518,58.0,60,60,0.0,60.0
5519,39.0,0,60,2.0,66.0
5520,61.0,60,60,0.0,61.0
5521,51.0,60,60,2.0,67.0
5522,58.0,0,60,0.0,63.0
5523,55.0,0,60,0.0,73.0
5524,58.0,0,60,0.0,73.0
5525,39.0,60,60,2.0,76.0
5526,67.0,0,60,2.0,87.0
5527,79.0,360,60,0.0,86.0
5528,82.0,0,60,0.0,86.0
5529,70.0,0,60,2.0,87.0
5530,82.0,120,120,0.0,89.0
5531,85.0,0,120,0.0,89.0
5532,70.0,0,120,2.0,89.0
5533,73.0,0,120,2.0,89.0
5534,44.0,0,120,2.0,93.0
5535,56.0,0,120,2.0,93.0
5536,68.0,480,120,0.0,91.0
5537,32.0,0,120,2.0,93.0
5538,68.0,0,60,2.0,92.0
5539,72.0,0,60,2.0,92.0
5540,80.0,0,60,0.0,90.0
5541,84.0,360,60,0.0,90.0
5542,75.0,120,120,2.0,92.0
5543,87.0,0,120,0.0,90.0
5544,63.0,480,120,0.0,88.0
5545,27.0,0,120,2.0,91.0
5546,51.0,0,120,2.0,91.0
5547,39.0,0,120,2.0,91.0
5548,82.0,360,60,0.0,87.0
5549,79.0,0,60,0.0,87.0
5550,70.0,0,60,2.0,89.0
5551,67.0,0,60,2.0,89.0
5552,75.0,0,120,2.0,89.0
5553,87.0,120,120,0.0,87.0
5554,75.0,360,60,0.0,86.0
5555,80.0,0,120,0.0,85.0
5556,56.0,120,120,2.0,88.0
5557,68.0,0,120,2.0,88.0
5558,63.0,360,60,0.0,84.0
5559,44.0,120,120,2.0,86.0
5560,48.0,0,120,2.0,86.0
5561,51.0,0,120,2.0,86.0
5562,56.0,0,120,2.0,86.0
5563,68.0,0,120,0.0,84.0
5564,51.0,360,60,0.0,83.0
5565,39.0,0,120,2.0,85.0
5566,36.0,0,120,2.0,85.0
5567,32.0,120,120,2.0,85.0
5568,56.0,0,120,0.0,82.0
5569,44.0,0,120,2.0,85.0
5570,61.0,0,60,0.0,38.0
5571,39.0,960,60,2.0,40.0
5572,58.0,0,60,0.0,40.0
5573,51.0,60,60,2.0,41.0
5574,39.0,0,60,2.0,43.0
5575,61.0,60,60,0.0,41.0
5576,51.0,60,60,2.0,44.0
5577,58.0,0,60,0.0,43.0
5578,61.0,60,60,0.0,44.0
5579,39.0,0,60,2.0,46.0
5580,58.0,60,60,0.0,46.0
5581,51.0,0,60,2.0,48.0
5582,61.0,0,60,0.0,48.0
5583,39.0,60,60,2.0,49.0
5584,58.0,60,60,0.0,49.0
5585,51.0,0,60,2.0,51.0
5586,61.0,0,60,0.0,51.0
5587,39.0,60,60,2.0,53.0
5588,51.0,0,60,2.0,54.0
5589,58.0,60,60,0.0,52.0
5590,39.0,60,60,2.0,56.0
5591,61.0,0,60,0.0,54.0
5592,58.0,0,60,0.0,56.0
5593,51.0,60,60,2.0,58.0
5594,39.0,60,60,2.0,59.0
5595,61.0,0,60,0.0,57.0
5596,58.0,60,60,0.0,59.0
5597,51.0,0,60,2.0,61.0
5598,61.0,60,60,0.0,60.0
5599,39.0,0,60,2.0,62.0
5600,51.0,60,60,2.0,64.0
5601,58.0,0,0,0.0,70.0
5602,55.0,0,60,0.0,70.0
5603,39.0,60,60,2.0,71.0
5604,58.0,0,60,2.0,83.0
5605,55.0,0,60,2.0,83.0
5606,70.0,360,60,0.0,83.0
5607,67.0,0,60,0.0,83.0
5608,61.0,120,120,2.0,86.0
5609,70.0,0,120,0.0,86.0
5610,73.0,0,120,0.0,86.0
5611,58.0,0,120,2.0,86.0
5612,61.0,0,60,0.0,39.0
5613,39.0,480,60,2.0,47.0
5614,51.0,60,60,2.0,48.0
5615,58.0,0,60,0.0,41.0
5616,39.0,60,60,2.0,50.0
5617,61.0,0,60,0.0,43.0
5618,51.0,60,60,2.0,51.0
5619,58.0,0,60,0.0,44.0
5620,39.0,60,60,2.0,52.0
5621,61.0,0,60,0.0,46.0
5622,58.0,0,60,0.0,47.0
5623,51.0,60,60,2.0,54.0
5624,39.0,0,60,2.0,55.0
5625,61.0,60,60,0.0,49.0
5626,51.0,0,60,2.0,56.0
5627,58.0,60,60,0.0,50.0
5628,39.0,60,60,2.0,58.0
5629,61.0,0,60,0.0,52.0
5630,51.0,60,60,2.0,59.0
5631,58.0,0,60,0.0,54.0
5632,61.0,0,60,0.0,55.0
5633,39.0,60,60,2.0,60.0
5634,51.0,0,60,2.0,62.0
5635,58.0,60,60,0.0,57.0
5636,61.0,60,60,0.0,58.0
5637,39.0,0,60,2.0,63.0
5638,51.0,60,60,2.0,64.0
5639,58.0,0,60,0.0,60.0
5640,39.0,60,60,2.0,66.0
5641,61.0,0,60,0.0,61.0
5642,58.0,60,60,0.0,63.0
5643,51.0,0,60,2.0,67.0
5644,39.0,0,60,2.0,74.0
5645,55.0,60,60,0.0,71.0
5646,58.0,0,60,0.0,71.0
5647,82.0,0,60,0.0,89.0
5648,70.0,0,60,2.0,94.0
5649,67.0,0,60,2.0,94.0
5650,79.0,360,60,0.0,89.0
5651,73.0,0,120,2.0,97.0
5652,70.0,0,120,2.0,97.0
5653,85.0,120,120,0.0,93.0
5654,82.0,0,120,0.0,93.0
5655,68.0,0,120,0.0,93.0
5656,32.0,0,120,2.0,99.0
5657,56.0,0,120,2.0,99.0
5658,44.0,480,120,2.0,99.0
5659,84.0,0,60,0.0,92.0
5660,80.0,360,60,0.0,92.0
5661,68.0,0,60,2.0,97.0
5662,72.0,0,60,2.0,97.0
5663,75.0,0,120,2.0,96.0
5664,87.0,120,120,0.0,92.0
5665,63.0,480,120,0.0,90.0
5666,39.0,0,120,2.0,93.0
5667,27.0,0,120,2.0,93.0
5668,51.0,0,120,2.0,93.0
5669,67.0,0,60,2.0,91.0
5670,70.0,0,60,2.0,91.0
5671,82.0,0,60,0.0,89.0
5672,79.0,360,60,0.0,89.0
5673,87.0,0,120,0.0,89.0
5674,75.0,120,120,2.0,91.0
5675,75.0,360,60,0.0,88.0
5676,80.0,0,120,0.0,87.0
5677,68.0,120,120,2.0,88.0
5678,56.0,0,120,2.0,88.0
5679,63.0,360,60,0.0,86.0
5680,51.0,0,120,2.0,85.0
5681,48.0,0,120,2.0,85.0
5682,68.0,120,120,0.0,86.0
5683,44.0,0,120,2.0,85.0
5684,56.0,0,120,2.0,85.0
5685,51.0,360,60,0.0,85.0
5686,39.0,120,120,2.0,82.0
5687,44.0,0,120,2.0,82.0
5688,56.0,0,120,0.0,84.0
5689,32.0,0,120,2.0,82.0
5690,36.0,0,120,2.0,82.0
5691,51.0,0,360,1.0,45.0
5692,63.0,0,0,0.0,49.0
5693,63.0,120,0,0.0,51.0
5694,51.0,0,0,1.0,51.0
5695,51.0,480,0,1.0,51.0
5696,56.0,0,480,0.0,51.0
5697,59.0,0,0,0.0,51.0
5698,63.0,360,0,0.0,50.0
5699,56.0,0,360,0.0,51.0
5700,51.0,0,0,1.0,50.0
5701,59.0,0,120,0.0,50.0
5702,63.0,0,0,0.0,49.0
5703,32.0,0,0,2.0,50.0
5704,56.0,0,0,0.0,49.0
5705,51.0,0,360,1.0,49.0
5706,56.0,0,0,0.0,47.0
5707,59.0,0,0,0.0,47.0
5708,63.0,0,0,0.0,47.0
5709,51.0,0,0,1.0,47.0
5710,51.0,360,0,1.0,45.0
5711,58.0,0,360,0.0,47.0
5712,55.0,120,360,0.0,47.0
5713,63.0,0,0,0.0,45.0
5714,51.0,120,0,1.0,45.0
5715,44.0,0,1920,2.0,56.0
5716,59.0,0,120,0.0,45.0
5717,63.0,0,0,0.0,45.0
5718,56.0,0,120,0.0,45.0
5719,39.0,0,258,2.0,54.0
5720,39.0,360,102,2.0,48.0
5721,43.0,120,258,2.0,48.0
5722,46.0,360,102,2.0,45.0
5723,51.0,120,300,2.0,44.0
5724,58.0,0,1305,0.0,45.0
5725,61.0,0,1327,0.0,45.0
5726,63.0,0,360,0.0,49.0
5727,55.0,0,360,0.0,49.0
5728,58.0,0,360,0.0,49.0
5729,51.0,0,0,2.0,48.0
5730,49.0,0,0,2.0,48.0
5731,58.0,360,120,0.0,52.0
5732,63.0,0,0,0.0,52.0
5733,51.0,0,0,2.0,49.0
5734,55.0,0,120,0.0,52.0
5735,56.0,0,480,0.0,52.0
5736,59.0,120,480,0.0,52.0
5737,47.0,0,480,2.0,49.0
5738,56.0,0,360,0.0,56.0
5739,59.0,480,360,0.0,56.0
5740,51.0,0,0,2.0,57.0
5741,63.0,0,0,0.0,58.0
5742,44.0,360,0,2.0,57.0
5743,56.0,0,120,0.0,58.0
5744,63.0,120,0,0.0,59.0
5745,59.0,0,120,0.0,58.0
5746,43.0,0,480,2.0,58.0
5747,61.0,0,480,0.0,59.0
5748,63.0,480,0,0.0,63.0
5749,58.0,0,480,0.0,59.0
5750,51.0,0,480,2.0,58.0
5751,51.0,0,360,2.0,62.0
5752,44.0,0,360,2.0,62.0
5753,63.0,0,0,0.0,65.0
5754,56.0,360,0,0.0,65.0
5755,59.0,0,360,0.0,63.0
5756,44.0,0,120,2.0,65.0
5757,51.0,120,0,2.0,63.0
5758,59.0,0,120,0.0,65.0
5759,63.0,0,360,0.0,66.0
5760,58.0,0,360,0.0,66.0
5761,55.0,0,360,0.0,66.0
5762,39.0,0,360,2.0,63.0
5763,51.0,0,360,2.0,52.0
5764,39.0,0,360,2.0,52.0
5765,63.0,0,360,0.0,56.0
5766,58.0,0,360,0.0,56.0
5767,55.0,480,360,0.0,56.0
5768,51.0,0,360,2.0,46.0
5769,55.0,480,360,0.0,48.0
5770,39.0,0,360,2.0,46.0
5771,63.0,0,360,0.0,48.0
5772,58.0,0,360,0.0,48.0
5773,63.0,480,360,0.0,47.0
5774,51.0,0,360,1.0,47.0
5775,51.0,120,0,1.0,52.0
5776,63.0,0,0,0.0,52.0
5777,59.0,0,480,0.0,52.0
5778,56.0,480,0,0.0,54.0
5779,51.0,0,360,1.0,54.0
5780,59.0,0,0,0.0,58.0
5781,63.0,0,0,0.0,58.0
5782,51.0,360,120,1.0,58.0
5783,32.0,0,960,2.0,56.0
5784,56.0,0,0,0.0,59.0
5785,51.0,120,360,1.0,59.0
5786,56.0,0,0,0.0,63.0
5787,59.0,360,0,0.0,63.0
5788,63.0,0,0,0.0,63.0
5789,51.0,0,120,1.0,63.0
5790,63.0,0,0,0.0,64.0
5791,51.0,0,360,1.0,64.0
5792,32.0,0,840,2.0,56.0
5793,58.0,120,360,0.0,64.0
5794,54.0,0,360,0.0,64.0
5795,44.0,0,1800,2.0,56.0
5796,53.0,360,120,0.0,68.0
5797,56.0,0,120,0.0,68.0
5798,63.0,0,0,0.0,78.0
5799,51.0,0,120,1.0,68.0
5800,39.0,120,259,2.0,72.0
5801,39.0,360,103,2.0,63.0
5802,42.0,120,259,2.0,61.0
5803,46.0,360,103,2.0,57.0
5804,51.0,120,300,2.0,56.0
5805,58.0,0,1260,0.0,78.0
5806,54.0,0,1260,0.0,78.0
5807,51.0,0,1260,1.0,78.0
5808,54.0,0,360,0.0,58.0
5809,59.0,0,360,0.0,58.0
5810,63.0,360,0,0.0,56.0
5811,47.0,480,360,2.0,55.0
5812,47.0,0,120,2.0,53.0
5813,54.0,0,120,0.0,56.0
5814,59.0,120,0,0.0,55.0
5815,63.0,0,0,0.0,55.0
5816,44.0,0,480,2.0,53.0
5817,56.0,0,480,0.0,55.0
5818,56.0,0,360,0.0,53.0
5819,61.0,0,360,0.0,53.0
5820,59.0,0,360,0.0,53.0
5821,40.0,0,0,2.0,49.0
5822,56.0,360,120,0.0,52.0
5823,59.0,0,0,0.0,51.0
5824,61.0,0,120,0.0,52.0
5825,42.0,0,480,2.0,49.0
5826,54.0,120,480,0.0,51.0
5827,61.0,0,480,0.0,51.0
5828,54.0,0,360,0.0,49.0
5829,58.0,0,360,0.0,49.0
5830,61.0,0,360,0.0,49.0
5831,52.0,0,360,0.0,49.0
5832,30.0,0,0,2.0,45.0
5833,42.0,0,0,2.0,45.0
5834,52.0,0,120,0.0,47.0
5835,61.0,0,120,0.0,47.0
5836,58.0,360,120,0.0,47.0
5837,54.0,0,120,0.0,47.0
5838,35.0,0,360,2.0,45.0
5839,47.0,0,360,2.0,45.0
5840,51.0,0,360,0.0,47.0
5841,54.0,0,360,0.0,47.0
5842,59.0,120,360,0.0,47.0
5843,35.0,0,360,2.0,40.0
5844,51.0,480,360,0.0,41.0
5845,54.0,0,360,0.0,41.0
5846,59.0,0,360,0.0,41.0
5847,47.0,0,360,2.0,40.0
5848,59.0,480,360,0.0,35.0
5849,35.0,0,360,2.0,34.0
5850,51.0,0,360,0.0,35.0
5851,54.0,0,360,0.0,35.0
5852,47.0,0,360,2.0,34.0
5853,54.0,0,360,1.0,45.0
5854,66.0,480,360,0.0,45.0
5855,54.0,360,120,1.0,50.0
5856,66.0,0,0,0.0,52.0
5857,62.0,0,480,0.0,52.0
5858,54.0,480,0,1.0,50.0
5859,59.0,0,480,0.0,52.0
5860,59.0,0,360,0.0,50.0
5861,62.0,0,360,0.0,50.0
5862,66.0,360,0,0.0,55.0
5863,59.0,0,120,0.0,55.0
5864,54.0,120,0,1.0,57.0
5865,62.0,0,120,0.0,55.0
5866,35.0,0,0,2.0,59.0
5867,66.0,0,0,0.0,62.0
5868,62.0,360,0,0.0,62.0
5869,59.0,0,0,0.0,62.0
5870,54.0,0,120,1.0,62.0
5871,66.0,0,0,0.0,68.0
5872,61.0,0,360,0.0,63.0
5873,58.0,0,360,0.0,63.0
5874,54.0,120,360,1.0,63.0
5875,59.0,0,120,0.0,68.0
5876,62.0,360,120,0.0,68.0
5877,66.0,120,0,0.0,76.0
5878,54.0,0,120,1.0,68.0
5879,47.0,0,1920,2.0,59.0
5880,42.0,0,303,2.0,68.0
5881,30.0,0,303,2.0,68.0
5882,30.0,360,111,2.0,62.0
5883,42.0,0,111,2.0,62.0
5884,46.0,120,303,2.0,61.0
5885,34.0,0,303,2.0,61.0
5886,37.0,360,111,2.0,58.0
5887,49.0,0,111,2.0,58.0
5888,54.0,0,300,2.0,57.0
5889,42.0,120,300,2.0,57.0
5890,61.0,0,1260,0.0,76.0
5891,64.0,0,1260,0.0,76.0
5892,54.0,0,1260,1.0,76.0
5893,54.0,360,0,1.0,56.0
5894,40.0,0,360,2.0,54.0
5895,66.0,0,360,0.0,58.0
5896,58.0,480,360,0.0,58.0
5897,61.0,0,0,0.0,56.0
5898,52.0,0,0,2.0,54.0
5899,66.0,0,120,0.0,56.0
5900,58.0,0,120,0.0,56.0
5901,40.0,0,120,2.0,54.0
5902,54.0,0,480,1.0,55.0
5903,59.0,0,480,0.0,55.0
5904,38.0,0,480,2.0,54.0
5905,62.0,0,0,0.0,53.0
5906,66.0,0,0,0.0,53.0
5907,50.0,120,480,2.0,54.0
5908,54.0,360,0,1.0,51.0
5909,59.0,480,360,0.0,53.0
5910,66.0,0,0,0.0,51.0
5911,62.0,0,0,0.0,51.0
5912,35.0,0,0,2.0,50.0
5913,47.0,0,0,2.0,50.0
5914,59.0,0,120,0.0,51.0
5915,66.0,0,480,0.0,50.0
5916,64.0,0,480,0.0,50.0
5917,34.0,0,480,2.0,49.0
5918,54.0,0,0,1.0,48.0
5919,46.0,0,480,2.0,49.0
5920,61.0,120,480,0.0,50.0
5921,35.0,0,360,2.0,47.0
5922,47.0,0,360,2.0,47.0
5923,66.0,0,360,0.0,48.0
5924,54.0,0,0,1.0,46.0
5925,62.0,480,360,0.0,48.0
5926,59.0,0,360,0.0,48.0
5927,62.0,0,120,0.0,46.0
5928,59.0,0,120,0.0,46.0
5929,35.0,0,120,2.0,46.0
5930,47.0,360,120,2.0,46.0
5931,66.0,0,0,0.0,49.0
5932,42.0,0,360,2.0,45.0
5933,54.0,0,360,1.0,49.0
5934,58.0,0,360,0.0,49.0
5935,61.0,120,360,0.0,49.0
5936,30.0,0,360,2.0,45.0
5937,30.0,480,360,2.0,39.0
5938,61.0,0,360,0.0,43.0
5939,58.0,0,360,0.0,43.0
5940,66.0,0,360,0.0,43.0
5941,42.0,0,360,2.0,39.0
5942,54.0,0,360,1.0,43.0
5943,61.0,0,360,0.0,36.0
5944,58.0,480,360,0.0,36.0
5945,66.0,0,360,0.0,36.0
5946,42.0,0,360,2.0,32.0
5947,30.0,0,360,2.0,32.0
5948,54.0,0,360,1.0,36.0
5949,66.0,480,360,0.0,48.0
5950,54.0,0,0,1.0,51.0
5951,66.0,0,0,0.0,52.0
5952,54.0,0,480,1.0,52.0
5953,59.0,120,480,0.0,52.0
5954,62.0,0,480,0.0,52.0
5955,54.0,0,0,1.0,58.0
5956,66.0,0,360,0.0,55.0
5957,59.0,480,360,0.0,55.0
5958,62.0,360,0,0.0,58.0
5959,62.0,120,0,0.0,59.0
5960,66.0,0,120,0.0,58.0
5961,59.0,0,0,0.0,59.0
5962,35.0,0,960,2.0,56.0
5963,59.0,360,0,0.0,63.0
5964,62.0,0,0,0.0,63.0
5965,66.0,0,0,0.0,63.0
5966,54.0,0,360,1.0,59.0
5967,59.0,0,0,0.0,64.0
5968,61.0,120,360,0.0,64.0
5969,52.0,0,360,1.0,64.0
5970,64.0,0,360,0.0,64.0
5971,66.0,0,120,0.0,67.0
5972,54.0,0,120,1.0,67.0
5973,47.0,0,1920,2.0,56.0
5974,35.0,0,960,2.0,56.0
5975,62.0,0,120,0.0,67.0
5976,59.0,0,0,0.0,73.0
5977,40.0,0,303,2.0,63.0
5978,40.0,360,111,2.0,58.0
5979,43.0,120,303,2.0,57.0
5980,47.0,360,111,2.0,52.0
5981,64.0,0,1260,0.0,73.0
5982,67.0,0,1260,0.0,73.0
5983,55.0,120,1260,1.0,73.0
5984,52.0,120,307,2.0,50.0
5985,43.0,480,360,2.0,44.0
5986,52.0,0,360,2.0,44.0
5987,55.0,0,360,1.0,46.0
5988,67.0,0,0,0.0,48.0
5989,64.0,0,0,0.0,48.0
5990,59.0,0,0,0.0,48.0
5991,43.0,0,120,2.0,50.0
5992,52.0,360,120,2.0,50.0
5993,55.0,0,120,1.0,48.0
5994,45.0,0,480,2.0,50.0
5995,66.0,0,480,0.0,49.0
5996,57.0,120,480,0.0,49.0
5997,62.0,0,480,0.0,49.0
5998,54.0,0,480,2.0,50.0
5999,50.0,0,480,2.0,50.0
6000,66.0,0,360,0.0,53.0
6001,54.0,0,360,2.0,53.0
6002,45.0,0,360,2.0,53.0
6003,50.0,0,360,2.0,53.0
6004,57.0,360,0,0.0,55.0
6005,62.0,0,0,0.0,55.0
6006,54.0,0,120,2.0,56.0
6007,50.0,0,120,2.0,56.0
6008,45.0,0,120,2.0,56.0
6009,66.0,0,120,0.0,55.0
6010,61.0,0,480,0.0,56.0
6011,64.0,0,480,0.0,56.0
6012,57.0,0,480,0.0,56.0
6013,45.0,0,480,2.0,57.0
6014,49.0,0,0,2.0,60.0
6015,52.0,0,0,2.0,60.0
6016,45.0,0,360,2.0,60.0
6017,52.0,0,0,2.0,63.0
6018,61.0,360,0,0.0,62.0
6019,64.0,0,0,0.0,62.0
6020,69.0,480,360,0.0,59.0
6021,57.0,0,360,1.0,59.0
6022,69.0,0,120,0.0,62.0
6023,57.0,0,120,1.0,62.0
6024,49.0,0,120,2.0,63.0
6025,45.0,0,120,2.0,63.0
6026,38.0,0,360,2.0,58.0
6027,62.0,120,360,0.0,60.0
6028,50.0,0,360,2.0,58.0
6029,62.0,480,360,0.0,49.0
6030,50.0,0,360,2.0,47.0
6031,38.0,0,360,2.0,47.0
6032,38.0,0,360,2.0,36.0
6033,50.0,0,360,2.0,36.0
6034,62.0,480,367,0.0,38.0
6035,50.0,0,360,2.0,32.0
6036,56.0,480,360,2.0,32.0
6037,65.0,360,0,0.0,37.0
6038,71.0,0,360,0.0,34.0
6039,71.0,0,120,0.0,37.0
6040,56.0,120,0,2.0,46.0
6041,50.0,0,0,2.0,46.0
6042,50.0,480,0,2.0,40.0
6043,65.0,0,0,0.0,43.0
6044,71.0,0,960,0.0,45.0
6045,58.0,0,480,2.0,40.0
6046,70.0,0,480,0.0,43.0
6047,68.0,0,480,0.0,42.0
6048,65.0,0,480,0.0,42.0
6049,50.0,480,480,2.0,38.0
6050,59.0,0,480,2.0,38.0
6051,51.0,480,199,2.0,36.0
6052,58.0,0,199,2.0,36.0
6053,63.0,0,204,0.0,40.0
6054,67.0,0,204,0.0,40.0
6055,50.0,0,120,2.0,50.0
6056,56.0,120,0,2.0,59.0
6057,65.0,0,0,0.0,61.0
6058,71.0,0,0,0.0,61.0
6059,50.0,0,480,2.0,59.0
6060,50.0,480,0,2.0,52.0
6061,65.0,0,0,0.0,57.0
6062,58.0,0,360,2.0,52.0
6063,70.0,0,360,0.0,57.0
6064,68.0,0,120,0.0,55.0
6065,65.0,0,120,0.0,55.0
6066,50.0,360,120,2.0,50.0
6067,59.0,0,120,2.0,50.0
6068,63.0,0,240,0.0,54.0
6069,58.0,0,240,2.0,49.0
6070,51.0,120,240,2.0,49.0
6071,67.0,0,240,0.0,54.0
6072,65.0,0,96,0.0,75.0
6073,71.0,360,96,0.0,75.0
6074,50.0,0,96,2.0,77.0
6075,56.0,0,96,2.0,77.0
6076,56.0,0,288,2.0,79.0
6077,50.0,120,288,2.0,79.0
6078,71.0,0,288,0.0,77.0
6079,65.0,0,288,0.0,77.0
6080,50.0,0,96,2.0,85.0
6081,56.0,0,96,2.0,85.0
6082,71.0,360,96,0.0,82.0
6083,65.0,0,96,0.0,82.0
6084,56.0,0,288,2.0,86.0
6085,50.0,120,288,2.0,86.0
6086,65.0,0,288,0.0,84.0
6087,71.0,0,288,0.0,84.0
6088,71.0,0,96,0.0,89.0
6089,50.0,360,96,2.0,92.0
6090,65.0,0,96,0.0,89.0
6091,56.0,0,96,2.0,92.0
6092,58.0,120,288,2.0,94.0
6093,65.0,0,288,0.0,91.0
6094,70.0,0,288,0.0,91.0
6095,50.0,0,288,2.0,94.0
6096,68.0,0,96,0.0,96.0
6097,65.0,0,96,0.0,96.0
6098,50.0,0,96,2.0,100.0
6099,59.0,360,96,2.0,100.0
6100,67.0,120,192,0.0,98.0
6101,63.0,0,192,0.0,98.0
6102,58.0,0,192,2.0,102.0
6103,51.0,0,192,2.0,102.0
6104,64.0,480,960,0.0,105.0
6105,52.0,0,960,2.0,109.0
6106,51.0,0,96,2.0,89.0
6107,63.0,960,96,0.0,91.0
6108,49.0,120,96,2.0,84.0
6109,61.0,0,96,0.0,86.0
6110,47.0,0,96,2.0,79.0
6111,59.0,120,96,0.0,81.0
6112,46.0,120,96,2.0,74.0
6113,58.0,0,96,0.0,75.0
6114,56.0,120,480,0.0,70.0
6115,63.0,0,360,0.0,42.0
6116,59.0,0,360,0.0,42.0
6117,56.0,0,360,0.0,42.0
6118,51.0,0,0,1.0,45.0
6119,32.0,120,0,2.0,58.0
6120,63.0,0,0,0.0,45.0
6121,56.0,0,120,0.0,45.0
6122,59.0,0,0,0.0,45.0
6123,51.0,0,360,1.0,45.0
6124,59.0,360,0,0.0,48.0
6125,56.0,0,0,0.0,48.0
6126,63.0,0,0,0.0,48.0
6127,63.0,0,0,0.0,49.0
6128,51.0,0,120,1.0,48.0
6129,63.0,0,0,0.0,51.0
6130,51.0,360,0,1.0,51.0
6131,55.0,0,360,0.0,49.0
6132,58.0,120,360,0.0,49.0
6133,56.0,0,120,0.0,51.0
6134,59.0,0,120,0.0,51.0
6135,44.0,0,1927,2.0,69.0
6136,39.0,0,259,2.0,53.0
6137,39.0,360,103,2.0,55.0
6138,43.0,120,259,2.0,56.0
6139,46.0,360,103,2.0,59.0
6140,51.0,0,1260,1.0,52.0
6141,63.0,0,1260,0.0,52.0
6142,61.0,0,1260,0.0,52.0
6143,58.0,120,1260,0.0,52.0
6144,51.0,120,307,2.0,60.0
6145,58.0,0,0,0.0,59.0
6146,55.0,360,0,0.0,59.0
6147,63.0,0,0,0.0,59.0
6148,49.0,480,360,2.0,63.0
6149,63.0,0,0,0.0,68.0
6150,49.0,0,120,2.0,65.0
6151,47.0,0,100,2.0,66.0
6152,49.0,60,100,2.0,67.0
6153,47.0,60,100,2.0,67.0
6154,49.0,60,100,2.0,67.0
6155,47.0,60,100,2.0,68.0
6156,49.0,60,100,2.0,68.0
6157,47.0,60,100,2.0,69.0
6158,56.0,0,0,0.0,62.0
6159,59.0,0,0,0.0,62.0
6160,49.0,60,100,2.0,69.0
6161,47.0,0,120,2.0,69.0
6162,49.0,80,120,2.0,70.0
6163,47.0,80,120,2.0,70.0
6164,63.0,0,0,0.0,64.0
6165,56.0,0,0,0.0,64.0
6166,59.0,120,0,0.0,64.0
6167,46.0,80,148,2.0,71.0
6168,44.0,0,120,2.0,72.0
6169,43.0,0,480,2.0,73.0
6170,63.0,0,480,0.0,65.0
6171,58.0,120,480,0.0,65.0
6172,61.0,0,480,0.0,65.0
6173,44.0,0,360,2.0,76.0
6174,59.0,480,360,0.0,68.0
6175,56.0,0,360,0.0,68.0
6176,63.0,0,360,0.0,68.0
6177,59.0,0,120,0.0,70.0
6178,63.0,360,120,0.0,70.0
6179,44.0,0,120,2.0,78.0
6180,56.0,0,120,0.0,70.0
6181,55.0,0,360,0.0,75.0
6182,58.0,120,360,0.0,75.0
6183,63.0,0,360,0.0,75.0
6184,39.0,0,360,2.0,80.0
6185,39.0,0,360,2.0,66.0
6186,58.0,0,360,0.0,62.0
6187,55.0,0,360,0.0,62.0
6188,63.0,480,360,0.0,62.0
6189,39.0,0,360,2.0,51.0
6190,55.0,0,360,0.0,50.0
6191,58.0,0,360,0.0,50.0
6192,63.0,480,360,0.0,50.0
6193,63.0,480,360,0.0,48.0
6194,51.0,0,360,1.0,48.0
6195,63.0,0,120,0.0,50.0
6196,51.0,360,120,1.0,50.0
6197,60.0,0,0,0.0,54.0
6198,56.0,480,0,0.0,54.0
6199,63.0,0,480,0.0,54.0
6200,51.0,0,0,1.0,54.0
6201,63.0,0,360,0.0,54.0
6202,56.0,360,0,0.0,56.0
6203,60.0,0,0,0.0,57.0
6204,63.0,120,0,0.0,57.0
6205,56.0,0,0,0.0,57.0
6206,32.0,0,960,2.0,56.0
6207,51.0,0,0,1.0,57.0
6208,51.0,360,0,1.0,59.0
6209,60.0,0,120,0.0,59.0
6210,63.0,0,0,0.0,60.0
6211,56.0,0,0,0.0,60.0
6212,51.0,120,360,1.0,60.0
6213,63.0,360,0,0.0,62.0
6214,58.0,0,360,0.0,60.0
6215,44.0,0,1920,2.0,56.0
6216,32.0,0,960,2.0,62.0
6217,51.0,0,120,1.0,62.0
6218,56.0,0,120,0.0,62.0
6219,60.0,0,120,0.0,62.0
6220,37.0,120,303,2.0,68.0
6221,37.0,360,111,2.0,70.0
6222,40.0,120,303,2.0,73.0
6223,44.0,360,111,2.0,74.0
6224,49.0,120,307,2.0,86.0
6225,56.0,480,0,0.0,80.0
6226,61.0,0,1440,0.0,68.0
6227,64.0,0,1440,0.0,68.0
6228,52.0,0,0,1.0,80.0
6229,61.0,0,360,0.0,80.0
6230,64.0,0,360,0.0,80.0
6231,33.0,0,111,2.0,83.0
6232,45.0,360,111,2.0,83.0
6233,49.0,0,303,2.0,84.0
6234,37.0,120,303,2.0,84.0
6235,40.0,360,111,2.0,87.0
6236,52.0,0,111,2.0,87.0
6237,45.0,0,360,2.0,96.0
6238,57.0,120,360,2.0,96.0
6239,64.0,0,0,0.0,92.0
6240,73.0,480,0,0.0,92.0
6241,69.0,0,0,0.0,92.0
6242,61.0,0,0,1.0,92.0
6243,43.0,0,111,2.0,96.0
6244,55.0,360,111,2.0,96.0
6245,46.0,120,303,2.0,97.0
6246,58.0,0,303,2.0,97.0
6247,51.0,360,111,2.0,99.0
6248,63.0,0,111,2.0,99.0
6249,55.0,120,240,2.0,104.0
6250,67.0,0,240,2.0,104.0
6251,75.0,0,1440,0.0,101.0
6252,70.0,0,1440,1.0,101.0
6253,73.0,0,1440,0.0,101.0
6254,82.0,480,1440,0.0,101.0
6255,55.0,0,240,2.0,103.0
6256,43.0,480,240,2.0,103.0
6257,82.0,0,360,0.0,104.0
6258,73.0,0,360,0.0,104.0
6259,70.0,0,360,1.0,104.0
6260,75.0,0,360,0.0,104.0
6261,83.0,0,240,0.0,108.0
6262,44.0,0,240,2.0,113.0
6263,71.0,480,240,1.0,108.0
6264,56.0,0,240,2.0,113.0
6265,75.0,0,240,0.0,108.0
6266,82.0,960,240,0.0,111.0
6267,73.0,0,240,0.0,111.0
6268,70.0,0,240,1.0,111.0
6269,37.0,0,240,2.0,111.0
6270,49.0,0,240,2.0,111.0
6271,76.0,0,240,0.0,111.0
6272,67.0,480,240,1.0,113.0
6273,51.0,0,240,2.0,112.0
6274,39.0,0,240,2.0,112.0
6275,79.0,0,240,0.0,113.0
6276,73.0,0,240,0.0,113.0
6277,70.0,0,240,0.0,113.0
6278,68.0,0,240,1.0,114.0
6279,44.0,480,240,2.0,114.0
6280,32.0,0,240,2.0,114.0
6281,80.0,0,240,0.0,114.0
6282,71.0,0,240,0.0,114.0
6283,44.0,480,330,2.0,66.0
6284,44.0,360,90,2.0,50.0
6285,44.0,120,427,2.0,48.0
6286,69.0,480,360,0.0,46.0
6287,48.0,0,360,2.0,43.0
6288,66.0,0,360,1.0,46.0
6289,49.0,360,120,2.0,45.0
6290,64.0,0,120,1.0,49.0
6291,44.0,0,0,2.0,46.0
6292,68.0,0,120,0.0,49.0
6293,44.0,480,0,2.0,50.0
6294,63.0,0,720,1.0,50.0
6295,66.0,0,720,0.0,50.0
6296,51.0,120,855,2.0,46.0
6297,64.0,0,120,0.0,56.0
6298,61.0,0,120,1.0,56.0
6299,52.0,360,120,2.0,52.0
6300,61.0,0,360,1.0,57.0
6301,63.0,120,360,0.0,57.0
6302,54.0,0,480,2.0,53.0
6303,44.0,0,480,2.0,53.0
6304,63.0,0,360,0.0,61.0
6305,61.0,0,360,1.0,61.0
6306,55.0,480,480,2.0,59.0
6307,44.0,0,480,2.0,59.0
6308,63.0,480,480,0.0,55.0
6309,60.0,0,480,1.0,55.0
6310,56.0,0,480,2.0,55.0
6311,44.0,0,480,2.0,55.0
6312,44.0,480,360,2.0,50.0
6313,44.0,360,120,2.0,46.0
6314,44.0,120,480,2.0,45.0
6315,66.0,480,360,1.0,51.0
6316,63.0,0,360,1.0,51.0
6317,72.0,0,360,0.0,51.0
6318,57.0,0,360,2.0,49.0
6319,56.0,360,120,2.0,54.0
6320,44.0,0,480,2.0,49.0
6321,73.0,0,120,0.0,55.0
6322,64.0,0,120,1.0,55.0
6323,68.0,0,120,1.0,55.0
6324,44.0,480,0,2.0,61.0
6325,66.0,0,840,1.0,56.0
6326,75.0,0,840,0.0,56.0
6327,69.0,0,847,1.0,56.0
6328,54.0,0,855,2.0,55.0
6329,76.0,0,120,0.0,65.0
6330,73.0,0,120,1.0,65.0
6331,44.0,0,0,2.0,66.0
6332,68.0,360,120,1.0,65.0
6333,52.0,0,120,2.0,64.0
6334,72.0,120,480,1.0,66.0
6335,70.0,0,480,1.0,66.0
6336,78.0,0,480,0.0,66.0
6337,51.0,0,480,2.0,66.0
6338,70.0,0,480,1.0,71.0
6339,44.0,0,0,2.0,56.0
6340,79.0,0,480,0.0,71.0
6341,76.0,480,480,1.0,71.0
6342,49.0,0,480,2.0,71.0
6343,44.0,480,0,2.0,48.0
6344,44.0,360,0,2.0,44.0
6345,48.0,0,960,2.0,56.0
6346,44.0,120,0,2.0,83.0
6347,75.0,0,960,1.0,60.0
6348,72.0,0,960,1.0,60.0
6349,80.0,480,960,0.0,60.0
6350,44.0,480,0,2.0,73.0
6351,69.0,0,847,1.0,77.0
6352,81.0,0,847,0.0,77.0
6353,49.0,0,960,2.0,83.0
6354,52.0,0,960,2.0,83.0
6355,79.0,360,120,0.0,63.0
6356,67.0,0,120,1.0,63.0
6357,44.0,0,0,2.0,63.0
6358,80.0,120,480,0.0,59.0
6359,48.0,0,480,2.0,63.0
6360,51.0,0,480,2.0,63.0
6361,68.0,0,480,1.0,59.0
6362,32.0,360,0,2.0,56.0
6363,32.0,0,480,2.0,63.0
6364,69.0,0,840,0.0,60.0
6365,32.0,0,0,2.0,54.0
6366,64.0,120,960,1.0,60.0
6367,67.0,360,120,0.0,52.0
6368,32.0,0,0,2.0,53.0
6369,61.0,0,960,1.0,60.0
6370,63.0,0,480,1.0,51.0
6371,60.0,0,480,1.0,51.0
6372,68.0,0,480,0.0,51.0
6373,32.0,360,0,2.0,46.0
6374,32.0,120,0,2.0,46.0
6375,60.0,0,360,1.0,45.0
6376,63.0,0,360,0.0,45.0
6377,32.0,480,360,2.0,43.0
6378,63.0,0,360,0.0,43.0
6379,60.0,0,360,1.0,43.0
6380,32.0,360,120,2.0,41.0
6381,44.0,0,0,2.0,41.0
6382,32.0,0,1920,2.0,41.0
6383,63.0,0,1920,0.0,41.0
6384,56.0,0,1920,1.0,41.0
6385,60.0,120,1920,1.0,41.0
6386,75.0,3360,219,0.0,61.0
6387,72.0,120,120,1.0,57.0
6388,77.0,120,219,0.0,60.0
6389,69.0,120,120,1.0,56.0
6390,73.0,120,219,0.0,59.0
6391,70.0,120,120,1.0,56.0
6392,75.0,120,219,0.0,58.0
6393,67.0,120,120,1.0,55.0
6394,72.0,120,230,0.0,57.0
6395,68.0,120,120,1.0,54.0
6396,73.0,120,230,0.0,56.0
6397,65.0,120,120,1.0,53.0
6398,70.0,120,230,0.0,55.0
6399,67.0,120,120,1.0,52.0
6400,72.0,120,230,0.0,54.0
6401,64.0,120,120,1.0,52.0
6402,68.0,120,230,0.0,53.0
6403,65.0,120,120,1.0,51.0
6404,70.0,120,230,0.0,52.0
6405,62.0,120,120,1.0,50.0
6406,67.0,0,240,0.0,51.0
6407,63.0,120,120,1.0,49.0
6408,62.0,120,120,1.0,49.0
6409,63.0,120,120,1.0,48.0
6410,67.0,120,230,0.0,48.0
6411,61.0,0,240,3.0,53.0
6412,63.0,120,120,1.0,49.0
6413,68.0,0,230,0.0,50.0
6414,60.0,120,240,3.0,54.0
6415,63.0,120,120,1.0,51.0
6416,70.0,0,230,0.0,52.0
6417,63.0,120,120,1.0,52.0
6418,58.0,120,240,3.0,56.0
6419,72.0,120,230,0.0,53.0
6420,63.0,120,120,1.0,54.0
6421,56.0,0,240,3.0,58.0
6422,73.0,0,230,0.0,55.0
6423,55.0,120,240,3.0,59.0
6424,63.0,120,120,1.0,56.0
6425,74.0,0,230,0.0,57.0
6426,51.0,120,1920,3.0,64.0
6427,63.0,120,120,1.0,57.0
6428,53.0,120,240,3.0,61.0
6429,75.0,120,230,0.0,58.0
6430,63.0,120,120,1.0,59.0
6431,51.0,0,240,3.0,63.0
6432,67.0,120,230,1.0,60.0
6433,75.0,0,240,0.0,60.0
6434,49.0,0,240,3.0,64.0
6435,63.0,120,120,1.0,61.0
6436,68.0,120,230,1.0,61.0
6437,75.0,0,230,0.0,61.0
6438,63.0,120,120,1.0,62.0
6439,48.0,0,240,3.0,66.0
6440,68.0,0,230,1.0,63.0
6441,75.0,120,235,0.0,63.0
6442,63.0,120,120,1.0,64.0
6443,44.0,0,240,3.0,67.0
6444,72.0,0,248,1.0,63.0
6445,51.0,0,120,3.0,69.0
6446,67.0,0,230,1.0,65.0
6447,70.0,0,230,1.0,65.0
6448,75.0,120,235,0.0,65.0
6449,63.0,120,120,1.0,66.0
6450,39.0,120,120,3.0,61.0
6451,75.0,0,180,0.0,66.0
6452,67.0,0,180,1.0,66.0
6453,63.0,120,60,1.0,67.0
6454,70.0,0,185,1.0,66.0
6455,63.0,120,230,3.0,50.0
6456,72.0,0,240,0.0,50.0
6457,75.0,0,120,1.0,50.0
6458,60.0,120,120,2.0,50.0
6459,65.0,0,230,3.0,51.0
6460,57.0,120,120,2.0,52.0
6461,69.0,120,240,0.0,51.0
6462,77.0,0,120,1.0,51.0
6463,61.0,120,230,3.0,52.0
6464,58.0,0,120,2.0,53.0
6465,73.0,120,120,1.0,52.0
6466,70.0,0,247,0.0,52.0
6467,63.0,0,230,3.0,53.0
6468,75.0,0,120,1.0,53.0
6469,55.0,120,120,2.0,54.0
6470,67.0,120,247,0.0,53.0
6471,60.0,120,240,3.0,54.0
6472,72.0,0,120,1.0,54.0
6473,56.0,120,120,2.0,55.0
6474,68.0,0,255,0.0,54.0
6475,73.0,120,120,1.0,55.0
6476,53.0,0,120,2.0,56.0
6477,65.0,0,240,0.0,55.0
6478,61.0,120,241,3.0,55.0
6479,70.0,0,120,1.0,56.0
6480,55.0,120,120,2.0,57.0
6481,58.0,0,241,3.0,56.0
6482,67.0,120,255,0.0,56.0
6483,72.0,120,120,1.0,57.0
6484,64.0,0,240,0.0,57.0
6485,52.0,0,120,2.0,58.0
6486,60.0,120,241,3.0,57.0
6487,56.0,0,230,3.0,58.0
6488,68.0,120,120,1.0,58.0
6489,53.0,0,120,2.0,59.0
6490,65.0,120,247,0.0,58.0
6491,58.0,120,230,3.0,60.0
6492,50.0,0,120,2.0,60.0
6493,62.0,0,240,0.0,59.0
6494,70.0,120,120,1.0,59.0
6495,55.0,120,153,3.0,63.0
6496,51.0,120,120,2.0,62.0
6497,63.0,0,240,0.0,59.0
6498,50.0,120,120,2.0,61.0
6499,51.0,120,120,2.0,60.0
6500,55.0,0,230,3.0,58.0
6501,51.0,120,120,2.0,59.0
6502,73.0,0,240,1.0,60.0
6503,85.0,120,240,0.0,60.0
6504,56.0,0,230,3.0,60.0
6505,51.0,120,120,2.0,61.0
6506,72.0,0,240,1.0,62.0
6507,84.0,120,240,0.0,62.0
6508,58.0,120,230,3.0,62.0
6509,70.0,0,240,1.0,63.0
6510,82.0,0,240,0.0,63.0
6511,51.0,120,120,2.0,62.0
6512,60.0,120,230,3.0,63.0
6513,51.0,120,120,2.0,64.0
6514,68.0,0,240,1.0,65.0
6515,80.0,0,240,0.0,65.0
6516,61.0,120,230,3.0,65.0
6517,67.0,0,240,1.0,67.0
6518,51.0,120,120,2.0,66.0
6519,79.0,0,240,0.0,67.0
6520,62.0,0,230,3.0,67.0
6521,51.0,120,120,2.0,68.0
6522,65.0,120,240,1.0,69.0
6523,77.0,0,240,0.0,69.0
6524,75.0,120,120,0.0,70.0
6525,63.0,0,230,3.0,68.0
6526,51.0,120,120,2.0,69.0
6527,75.0,0,120,0.0,72.0
6528,72.0,0,120,1.0,72.0
6529,68.0,120,120,1.0,72.0
6530,63.0,0,230,3.0,70.0
6531,51.0,120,120,2.0,71.0
6532,75.0,120,120,0.0,74.0
6533,73.0,0,120,1.0,74.0
6534,70.0,0,120,1.0,74.0
6535,63.0,0,230,3.0,72.0
6536,51.0,120,120,2.0,73.0
6537,75.0,120,120,0.0,76.0
6538,70.0,0,120,1.0,76.0
6539,67.0,0,120,1.0,76.0
6540,63.0,0,230,3.0,74.0
6541,51.0,120,120,2.0,75.0
6542,68.0,0,120,1.0,77.0
6543,72.0,120,120,1.0,77.0
6544,56.0,0,120,3.0,75.0
6545,75.0,0,120,0.0,77.0
6546,44.0,240,120,3.0,69.0
6547,72.0,120,120,1.0,66.0
6548,58.0,240,240,3.0,64.0
6549,60.0,0,241,0.0,66.0
6550,55.0,0,240,3.0,65.0
6551,72.0,120,120,1.0,66.0
6552,64.0,120,241,0.0,66.0
6553,72.0,120,120,1.0,67.0
6554,52.0,120,240,3.0,66.0
6555,67.0,0,241,0.0,67.0
6556,48.0,0,240,3.0,67.0
6557,72.0,120,120,1.0,67.0
6558,71.0,120,241,0.0,67.0
6559,50.0,0,240,3.0,67.0
6560,72.0,120,120,1.0,67.0
6561,70.0,120,241,0.0,67.0
6562,52.0,0,240,3.0,68.0
6563,72.0,120,120,1.0,68.0
6564,67.0,120,241,0.0,68.0
6565,53.0,120,240,3.0,69.0
6566,72.0,120,120,1.0,68.0
6567,68.0,0,241,0.0,68.0
6568,72.0,120,120,1.0,69.0
6569,56.0,120,240,3.0,63.0
6570,65.0,0,241,0.0,68.0
6571,46.0,0,230,3.0,66.0
6572,80.0,120,240,0.0,66.0
6573,58.0,120,120,2.0,66.0
6574,50.0,120,230,3.0,66.0
6575,77.0,0,240,0.0,67.0
6576,58.0,120,120,2.0,66.0
6577,53.0,120,230,3.0,67.0
6578,58.0,120,120,2.0,67.0
6579,74.0,0,240,0.0,68.0
6580,57.0,0,230,3.0,67.0
6581,58.0,120,120,2.0,67.0
6582,70.0,120,240,0.0,70.0
6583,56.0,0,230,3.0,67.0
6584,72.0,120,240,0.0,71.0
6585,58.0,120,120,2.0,67.0
6586,53.0,120,230,3.0,67.0
6587,58.0,120,120,2.0,68.0
6588,74.0,0,240,0.0,72.0
6589,55.0,0,230,3.0,68.0
6590,58.0,120,120,2.0,68.0
6591,75.0,120,240,0.0,74.0
6592,51.0,120,230,3.0,68.0
6593,79.0,0,240,0.0,75.0
6594,58.0,120,120,2.0,68.0
6595,63.0,120,219,0.0,72.0
6596,61.0,0,240,3.0,66.0
6597,75.0,120,120,1.0,72.0
6598,67.0,0,219,0.0,72.0
6599,58.0,120,240,3.0,67.0
6600,75.0,120,120,1.0,72.0
6601,70.0,0,219,0.0,73.0
6602,75.0,120,120,1.0,73.0
6603,55.0,120,240,3.0,68.0
6604,74.0,0,219,0.0,73.0
6605,75.0,120,120,1.0,73.0
6606,51.0,120,240,3.0,69.0
6607,73.0,120,219,0.0,73.0
6608,53.0,0,240,3.0,70.0
6609,75.0,120,120,1.0,73.0
6610,70.0,0,219,0.0,74.0
6611,55.0,120,240,3.0,70.0
6612,75.0,120,120,1.0,74.0
6613,72.0,0,219,0.0,74.0
6614,56.0,120,240,3.0,71.0
6615,75.0,120,120,1.0,74.0
6616,63.0,0,219,1.0,74.0
6617,72.0,0,219,0.0,74.0
6618,75.0,120,120,1.0,75.0
6619,44.0,120,240,3.0,72.0
6620,67.0,120,219,1.0,75.0
6621,73.0,0,219,0.0,75.0
6622,46.0,0,240,3.0,73.0
6623,75.0,120,120,1.0,75.0
6624,68.0,0,219,1.0,75.0
6625,72.0,0,219,0.0,75.0
6626,75.0,120,120,1.0,75.0
6627,48.0,120,240,3.0,74.0
6628,72.0,0,219,0.0,76.0
6629,65.0,0,219,1.0,76.0
6630,75.0,120,120,1.0,76.0
6631,49.0,120,240,3.0,75.0
6632,65.0,0,219,1.0,76.0
6633,70.0,0,219,0.0,76.0
6634,73.0,120,120,1.0,76.0
6635,46.0,120,240,3.0,76.0
6636,63.0,0,219,1.0,76.0
6637,68.0,0,219,0.0,76.0
6638,51.0,120,240,3.0,77.0
6639,72.0,120,120,1.0,76.0
6640,67.0,0,219,0.0,77.0
6641,61.0,0,219,1.0,77.0
6642,70.0,120,120,1.0,77.0
6643,39.0,120,240,3.0,78.0
6644,44.0,0,120,3.0,79.0
6645,60.0,120,120,1.0,77.0
6646,68.0,0,240,0.0,77.0
6647,32.0,240,120,3.0,75.0
6648,70.0,0,240,1.0,74.0
6649,82.0,240,240,0.0,74.0
6650,60.0,120,120,2.0,72.0
6651,48.0,0,241,3.0,72.0
6652,60.0,120,120,2.0,73.0
6653,79.0,0,240,0.0,74.0
6654,67.0,120,240,1.0,74.0
6655,52.0,0,241,3.0,73.0
6656,76.0,120,240,0.0,75.0
6657,60.0,120,120,2.0,73.0
6658,64.0,0,240,1.0,75.0
6659,55.0,0,241,3.0,73.0
6660,72.0,0,240,0.0,76.0
6661,60.0,120,120,2.0,74.0
6662,59.0,120,241,3.0,74.0
6663,62.0,0,240,1.0,76.0
6664,74.0,0,240,0.0,76.0
6665,60.0,120,120,2.0,74.0
6666,58.0,120,241,3.0,74.0
6667,64.0,0,240,1.0,77.0
6668,60.0,120,120,2.0,75.0
6669,76.0,120,240,0.0,77.0
6670,55.0,0,241,3.0,75.0
6671,60.0,120,120,2.0,75.0
6672,65.0,120,240,1.0,77.0
6673,77.0,0,240,0.0,77.0
6674,56.0,0,241,3.0,75.0
6675,60.0,120,120,2.0,76.0
6676,68.0,120,240,1.0,78.0
6677,80.0,0,240,0.0,78.0
6678,53.0,0,241,3.0,76.0
6679,82.0,120,120,1.0,79.0
6680,70.0,120,240,0.0,78.0
6681,68.0,0,240,3.0,76.0
6682,74.0,0,219,0.0,79.0
6683,82.0,120,120,1.0,79.0
6684,65.0,120,240,3.0,77.0
6685,77.0,0,219,0.0,80.0
6686,62.0,120,240,3.0,77.0
6687,82.0,120,120,1.0,80.0
6688,81.0,0,219,0.0,80.0
6689,82.0,120,120,1.0,80.0
6690,58.0,120,240,3.0,78.0
6691,80.0,120,219,0.0,81.0
6692,82.0,120,120,1.0,81.0
6693,60.0,0,240,3.0,78.0
6694,77.0,120,219,0.0,81.0
6695,62.0,0,240,3.0,78.0
6696,82.0,120,120,1.0,82.0
6697,79.0,120,219,0.0,82.0
6698,63.0,0,240,3.0,79.0
6699,82.0,120,120,1.0,82.0
6700,75.0,0,219,0.0,82.0
6701,82.0,120,120,1.0,83.0
6702,67.0,120,240,3.0,79.0
6703,73.0,0,240,1.0,83.0
6704,51.0,120,120,2.0,75.0
6705,85.0,120,240,0.0,83.0
6706,39.0,0,252,3.0,74.0
6707,82.0,0,240,0.0,83.0
6708,70.0,120,240,1.0,83.0
6709,51.0,120,120,2.0,76.0
6710,43.0,0,252,3.0,75.0
6711,51.0,120,120,2.0,77.0
6712,67.0,0,240,1.0,84.0
6713,79.0,120,240,0.0,84.0
6714,46.0,0,252,3.0,76.0
6715,51.0,120,120,2.0,78.0
6716,63.0,0,240,1.0,86.0
6717,75.0,120,240,0.0,86.0
6718,50.0,0,252,3.0,77.0
6719,51.0,120,120,2.0,79.0
6720,77.0,120,240,0.0,87.0
6721,65.0,0,240,1.0,87.0
6722,49.0,0,252,3.0,78.0
6723,79.0,0,240,0.0,88.0
6724,51.0,120,120,2.0,80.0
6725,67.0,0,240,1.0,88.0
6726,46.0,120,252,3.0,80.0
6727,51.0,120,96,2.0,81.0
6728,48.0,120,228,3.0,81.0
6729,80.0,0,240,0.0,89.0
6730,68.0,0,240,1.0,89.0
6731,56.0,0,96,2.0,82.0
6732,44.0,0,217,3.0,82.0
6733,84.0,120,219,1.0,90.0
6734,75.0,0,219,1.0,90.0
6735,80.0,0,219,1.0,90.0
6736,87.0,120,120,0.0,91.0
6737,55.0,120,96,2.0,83.0
6738,43.0,120,217,3.0,83.0
6739,85.0,0,219,1.0,92.0
6740,82.0,0,219,1.0,92.0
6741,75.0,0,219,1.0,92.0
6742,87.0,0,120,0.0,92.0
6743,56.0,0,96,2.0,84.0
6744,44.0,120,217,3.0,84.0
6745,84.0,0,219,1.0,93.0
6746,80.0,0,219,1.0,93.0
6747,75.0,0,219,1.0,93.0
6748,87.0,120,120,0.0,93.0
6749,53.0,0,96,2.0,86.0
6750,41.0,0,217,3.0,85.0
6751,75.0,0,219,1.0,94.0
6752,84.0,120,219,1.0,94.0
6753,87.0,120,120,0.0,95.0
6754,49.0,0,96,2.0,87.0
6755,37.0,120,217,3.0,86.0
6756,73.0,0,219,1.0,95.0
6757,82.0,0,219,1.0,95.0
6758,85.0,120,120,0.0,96.0
6759,51.0,120,96,2.0,88.0
6760,39.0,120,217,3.0,87.0
6761,80.0,0,219,1.0,97.0
6762,72.0,0,219,1.0,97.0
6763,84.0,0,120,0.0,97.0
6764,51.0,0,96,2.0,89.0
6765,39.0,120,217,3.0,88.0
6766,79.0,0,219,1.0,98.0
6767,70.0,0,219,1.0,98.0
6768,82.0,120,120,0.0,98.0
6769,32.0,0,96,3.0,89.0
6770,80.0,120,120,0.0,99.0
6771,72.0,0,120,1.0,99.0
6772,44.0,240,120,3.0,84.0
6773,60.0,240,230,3.0,85.0
6774,56.0,120,120,2.0,84.0
6775,61.0,120,230,3.0,83.0
6776,53.0,120,120,2.0,82.0
6777,58.0,120,230,3.0,81.0
6778,55.0,120,120,2.0,80.0
6779,60.0,120,230,3.0,79.0
6780,52.0,120,120,2.0,78.0
6781,56.0,120,230,3.0,77.0
6782,53.0,120,120,2.0,76.0
6783,58.0,120,230,3.0,75.0
6784,50.0,120,120,2.0,73.0
6785,51.0,120,120,2.0,72.0
6786,55.0,0,120,3.0,72.0
6787,79.0,0,120,0.0,98.0
6788,67.0,240,120,1.0,98.0
6789,70.0,0,120,1.0,98.0
6790,75.0,0,120,1.0,98.0
6791,63.0,240,219,3.0,78.0
6792,67.0,120,120,2.0,77.0
6793,75.0,0,120,1.0,79.0
6794,79.0,0,252,0.0,80.0
6795,60.0,0,219,3.0,76.0
6796,72.0,0,120,1.0,77.0
6797,68.0,120,120,2.0,74.0
6798,80.0,120,252,0.0,78.0
6799,62.0,120,219,3.0,73.0
6800,65.0,0,120,2.0,72.0
6801,74.0,120,120,1.0,75.0
6802,77.0,0,252,0.0,76.0
6803,59.0,120,219,3.0,70.0
6804,71.0,0,120,1.0,73.0
6805,67.0,120,120,2.0,69.0
6806,79.0,0,252,0.0,74.0
6807,60.0,120,208,3.0,68.0
6808,75.0,0,230,0.0,72.0
6809,72.0,120,120,1.0,71.0
6810,63.0,0,120,2.0,67.0
6811,57.0,0,208,3.0,65.0
6812,77.0,120,230,0.0,70.0
6813,69.0,120,120,1.0,69.0
6814,65.0,0,120,2.0,64.0
6815,58.0,120,120,3.0,63.0
6816,74.0,0,120,0.0,68.0
6817,58.0,0,120,2.0,95.0
6818,82.0,240,120,0.0,92.0
6819,70.0,0,120,1.0,92.0
6820,74.0,0,120,1.0,92.0
6821,77.0,0,120,1.0,92.0
6822,46.0,0,120,3.0,93.0
6823,56.0,240,208,3.0,65.0
6824,58.0,120,120,2.0,65.0
6825,82.0,0,120,0.0,61.0
6826,70.0,120,120,1.0,61.0
6827,53.0,0,208,3.0,65.0
6828,62.0,120,120,2.0,64.0
6829,56.0,120,208,3.0,64.0
6830,58.0,120,120,2.0,63.0
6831,86.0,0,120,0.0,60.0
6832,74.0,0,120,1.0,60.0
6833,53.0,120,208,3.0,63.0
6834,62.0,120,120,2.0,62.0
6835,56.0,120,208,3.0,62.0
6836,58.0,120,120,2.0,61.0
6837,89.0,0,120,0.0,58.0
6838,77.0,0,120,1.0,58.0
6839,53.0,120,208,3.0,61.0
6840,62.0,120,120,2.0,61.0
6841,86.0,120,120,0.0,57.0
6842,74.0,0,120,1.0,57.0
6843,56.0,0,208,3.0,60.0
6844,58.0,120,120,2.0,60.0
6845,82.0,0,120,0.0,56.0
6846,70.0,0,120,1.0,56.0
6847,53.0,120,208,3.0,59.0
6848,62.0,120,120,2.0,59.0
6849,56.0,120,208,3.0,58.0
6850,58.0,120,120,2.0,58.0
6851,82.0,0,120,0.0,55.0
6852,70.0,0,120,1.0,55.0
6853,53.0,120,208,3.0,57.0
6854,62.0,120,120,2.0,57.0
6855,56.0,120,208,3.0,57.0
6856,58.0,120,120,2.0,56.0
6857,86.0,0,120,0.0,53.0
6858,74.0,120,120,1.0,53.0
6859,53.0,0,208,3.0,56.0
6860,62.0,120,120,2.0,55.0
6861,56.0,120,208,3.0,55.0
6862,58.0,120,120,2.0,54.0
6863,77.0,0,120,1.0,51.0
6864,89.0,0,120,0.0,51.0
6865,53.0,120,208,3.0,54.0
6866,62.0,120,120,2.0,54.0
6867,74.0,0,120,1.0,50.0
6868,86.0,120,120,0.0,50.0
6869,56.0,0,208,3.0,53.0
6870,58.0,120,120,2.0,53.0
6871,82.0,0,120,0.0,49.0
6872,70.0,0,120,1.0,49.0
6873,53.0,120,208,3.0,52.0
6874,62.0,120,120,2.0,52.0
6875,77.0,120,120,1.0,49.0
6876,80.0,120,263,0.0,48.0
6877,58.0,120,120,3.0,55.0
6878,46.0,0,120,2.0,55.0
6879,82.0,0,230,0.0,50.0
6880,74.0,120,120,1.0,51.0
6881,80.0,120,230,0.0,52.0
6882,77.0,120,120,1.0,53.0
6883,50.0,0,120,2.0,59.0
6884,62.0,120,120,3.0,59.0
6885,82.0,0,230,0.0,54.0
6886,74.0,120,120,1.0,55.0
6887,80.0,120,230,0.0,56.0
6888,77.0,120,120,1.0,57.0
6889,65.0,0,120,3.0,63.0
6890,53.0,0,120,2.0,63.0
6891,82.0,120,230,0.0,58.0
6892,74.0,120,120,1.0,59.0
6893,62.0,120,120,3.0,65.0
6894,50.0,0,120,2.0,65.0
6895,80.0,0,230,0.0,60.0
6896,77.0,120,120,1.0,61.0
6897,58.0,0,120,3.0,66.0
6898,46.0,120,120,2.0,66.0
6899,82.0,0,230,0.0,62.0
6900,74.0,120,120,1.0,63.0
6901,80.0,120,230,0.0,64.0
6902,77.0,120,120,1.0,65.0
6903,34.0,0,120,2.0,70.0
6904,46.0,120,120,3.0,70.0
6905,82.0,0,230,0.0,66.0
6906,74.0,120,120,1.0,67.0
6907,80.0,120,230,0.0,68.0
6908,77.0,120,120,1.0,68.0
6909,50.0,0,120,3.0,74.0
6910,38.0,120,120,2.0,74.0
6911,82.0,0,230,0.0,69.0
6912,74.0,120,120,1.0,70.0
6913,80.0,120,230,0.0,71.0
6914,77.0,120,120,1.0,72.0
6915,41.0,0,120,2.0,78.0
6916,53.0,120,120,3.0,78.0
6917,82.0,0,230,0.0,73.0
6918,74.0,120,120,1.0,74.0
6919,50.0,0,120,3.0,80.0
6920,38.0,120,120,2.0,80.0
6921,80.0,0,230,0.0,75.0
6922,77.0,120,120,1.0,76.0
6923,46.0,120,120,3.0,81.0
6924,34.0,0,120,2.0,81.0
6925,82.0,0,230,0.0,77.0
6926,74.0,120,120,1.0,78.0
6927,80.0,120,230,0.0,79.0
6928,77.0,120,120,1.0,80.0
6929,53.0,120,120,2.0,85.0
6930,65.0,0,120,3.0,85.0
6931,82.0,0,230,0.0,81.0
6932,74.0,120,120,1.0,82.0
6933,62.0,0,120,3.0,87.0
6934,50.0,120,120,2.0,87.0
6935,80.0,0,230,0.0,83.0
6936,77.0,120,120,1.0,84.0
6937,46.0,0,120,2.0,89.0
6938,58.0,0,120,3.0,89.0
6939,82.0,120,230,0.0,85.0
6940,74.0,120,120,1.0,86.0
6941,80.0,120,230,0.0,87.0
6942,77.0,120,120,1.0,88.0
6943,34.0,0,120,2.0,93.0
6944,46.0,120,120,3.0,93.0
6945,82.0,0,230,0.0,89.0
6946,74.0,120,120,1.0,90.0
6947,51.0,0,120,3.0,95.0
6948,39.0,0,120,2.0,95.0
6949,79.0,120,120,0.0,91.0
6950,75.0,0,120,0.0,102.0
6951,74.0,120,120,0.0,94.0
6952,72.0,120,120,0.0,92.0
6953,70.0,120,120,0.0,91.0
6954,68.0,120,120,0.0,89.0
6955,43.0,0,720,3.0,105.0
6956,67.0,120,120,0.0,88.0
6957,31.0,240,720,3.0,105.0
6958,65.0,0,120,0.0,86.0
6959,63.0,120,120,0.0,85.0
6960,62.0,120,120,0.0,83.0
6961,60.0,120,120,0.0,82.0
6962,32.0,0,480,3.0,87.0
6963,44.0,120,480,3.0,87.0
6964,58.0,0,120,0.0,81.0
6965,56.0,120,120,0.0,79.0
6966,55.0,120,120,0.0,78.0
6967,46.0,0,480,3.0,84.0
6968,34.0,120,480,3.0,84.0
6969,53.0,120,120,0.0,76.0
6970,51.0,120,120,0.0,75.0
6971,36.0,0,120,3.0,80.0
6972,48.0,0,120,3.0,80.0
6973,79.0,240,120,0.0,102.0
6974,77.0,120,120,0.0,96.0
6975,75.0,120,80,0.0,95.0
6976,74.0,80,80,0.0,94.0
6977,72.0,80,80,0.0,93.0
6978,70.0,80,80,0.0,92.0
6979,68.0,80,80,0.0,92.0
6980,67.0,80,80,0.0,91.0
6981,43.0,0,720,3.0,109.0
6982,31.0,0,720,3.0,109.0
6983,65.0,80,120,0.0,90.0
6984,63.0,120,120,0.0,89.0
6985,62.0,120,120,0.0,88.0
6986,60.0,120,120,0.0,87.0
6987,32.0,0,480,3.0,91.0
6988,44.0,0,480,3.0,91.0
6989,58.0,0,120,0.0,85.0
6990,56.0,120,120,0.0,84.0
6991,55.0,120,120,0.0,83.0
6992,53.0,120,120,0.0,82.0
6993,46.0,0,480,3.0,87.0
6994,34.0,120,480,3.0,87.0
6995,48.0,0,120,3.0,83.0
6996,51.0,120,120,0.0,81.0
6997,36.0,0,120,3.0,83.0
6998,82.0,240,120,0.0,110.0
6999,80.0,120,120,0.0,103.0
7000,79.0,120,60,0.0,102.0
7001,77.0,60,60,0.0,101.0
7002,75.0,60,60,0.0,101.0
7003,74.0,60,60,0.0,100.0
7004,72.0,60,60,0.0,99.0
7005,70.0,60,60,0.0,98.0
7006,68.0,60,60,0.0,98.0
7007,43.0,0,720,3.0,114.0
7008,67.0,60,60,0.0,97.0
7009,31.0,0,720,3.0,114.0
7010,65.0,0,120,0.0,96.0
7011,63.0,120,120,0.0,95.0
7012,62.0,120,120,0.0,93.0
7013,44.0,60,480,3.0,95.0
7014,32.0,0,480,3.0,95.0
7015,60.0,120,120,0.0,92.0
7016,58.0,0,120,0.0,90.0
7017,56.0,120,120,0.0,89.0
7018,55.0,120,120,0.0,87.0
7019,46.0,120,480,3.0,91.0
7020,34.0,0,480,3.0,91.0
7021,53.0,120,120,0.0,86.0
7022,51.0,0,120,0.0,84.0
7023,67.0,240,230,0.0,54.0
7024,63.0,120,120,1.0,53.0
7025,68.0,120,230,0.0,53.0
7026,51.0,240,720,3.0,63.0
7027,39.0,120,0,3.0,59.0
7028,65.0,120,120,1.0,52.0
7029,70.0,240,219,0.0,50.0
7030,67.0,120,120,1.0,49.0
7031,72.0,120,219,0.0,49.0
7032,68.0,120,120,1.0,48.0
7033,51.0,240,720,3.0,58.0
7034,73.0,240,230,0.0,51.0
7035,70.0,120,120,1.0,52.0
7036,74.0,120,230,0.0,54.0
7037,71.0,120,120,1.0,54.0
7038,75.0,120,230,0.0,56.0
7039,72.0,120,120,1.0,57.0
7040,74.0,120,230,0.0,59.0
7041,71.0,120,120,1.0,60.0
7042,75.0,120,230,0.0,62.0
7043,72.0,120,120,1.0,63.0
7044,74.0,120,230,0.0,66.0
7045,71.0,120,120,1.0,66.0
7046,75.0,120,230,0.0,69.0
7047,72.0,120,120,1.0,70.0
7048,74.0,120,230,0.0,69.0
7049,71.0,120,120,1.0,70.0
7050,75.0,120,219,0.0,64.0
7051,72.0,120,120,1.0,64.0
7052,77.0,120,219,0.0,63.0
7053,69.0,120,120,1.0,61.0
7054,73.0,120,219,0.0,62.0
7055,70.0,120,120,1.0,59.0
7056,75.0,120,219,0.0,60.0
7057,67.0,120,120,1.0,56.0
7058,72.0,120,230,0.0,59.0
7059,68.0,120,120,1.0,54.0
7060,73.0,120,230,0.0,58.0
7061,65.0,120,120,1.0,53.0
7062,70.0,120,230,0.0,56.0
7063,67.0,120,120,1.0,52.0
7064,72.0,120,230,0.0,55.0
7065,64.0,120,120,1.0,51.0
7066,68.0,120,230,0.0,53.0
7067,65.0,120,120,1.0,51.0
7068,70.0,120,230,0.0,52.0
7069,51.0,240,4560,3.0,54.0
7070,39.0,120,4800,3.0,55.0
7071,62.0,120,120,1.0,50.0
7072,67.0,120,240,0.0,51.0
7073,63.0,120,120,1.0,49.0
7074,62.0,120,120,1.0,49.0
7075,63.0,120,120,1.0,48.0
7076,67.0,0,230,0.0,48.0
7077,63.0,120,120,1.0,49.0
7078,61.0,120,240,3.0,53.0
7079,68.0,0,230,0.0,50.0
7080,63.0,120,120,1.0,51.0
7081,60.0,120,240,3.0,54.0
7082,70.0,0,230,0.0,52.0
7083,63.0,120,120,1.0,52.0
7084,58.0,120,240,3.0,56.0
7085,72.0,120,230,0.0,53.0
7086,56.0,0,240,3.0,58.0
7087,63.0,120,120,1.0,54.0
7088,73.0,120,230,0.0,55.0
7089,63.0,120,120,1.0,56.0
7090,55.0,0,240,3.0,59.0
7091,74.0,120,230,0.0,57.0
7092,53.0,0,240,3.0,61.0
7093,63.0,120,120,1.0,57.0
7094,51.0,0,1920,3.0,64.0
7095,75.0,120,230,0.0,58.0
7096,63.0,120,120,1.0,59.0
7097,51.0,0,240,3.0,63.0
7098,67.0,0,230,1.0,60.0
7099,75.0,120,240,0.0,60.0
7100,63.0,120,120,1.0,61.0
7101,49.0,0,240,3.0,64.0
7102,68.0,120,230,1.0,61.0
7103,75.0,0,238,0.0,60.0
7104,63.0,120,120,1.0,62.0
7105,48.0,0,240,3.0,66.0
7106,68.0,120,230,1.0,63.0
7107,75.0,0,235,0.0,63.0
7108,63.0,120,120,1.0,64.0
7109,44.0,0,240,3.0,67.0
7110,72.0,0,248,1.0,63.0
7111,51.0,120,120,3.0,69.0
7112,67.0,0,230,1.0,65.0
7113,70.0,0,230,1.0,65.0
7114,75.0,0,235,0.0,65.0
7115,63.0,120,120,1.0,66.0
7116,39.0,0,120,3.0,61.0
7117,63.0,120,55,1.0,67.0
7118,70.0,120,180,1.0,66.0
7119,75.0,0,180,0.0,66.0
7120,67.0,0,185,1.0,66.0
7121,63.0,120,230,3.0,50.0
7122,75.0,120,120,1.0,50.0
7123,60.0,0,120,2.0,50.0
7124,72.0,0,254,0.0,50.0
7125,69.0,120,219,0.0,51.0
7126,65.0,0,230,3.0,51.0
7127,77.0,120,120,1.0,51.0
7128,57.0,0,120,2.0,52.0
7129,70.0,0,219,0.0,52.0
7130,61.0,120,230,3.0,52.0
7131,73.0,120,120,1.0,52.0
7132,58.0,0,120,2.0,53.0
7133,67.0,120,219,0.0,53.0
7134,63.0,0,230,3.0,53.0
7135,55.0,0,120,2.0,54.0
7136,75.0,120,120,1.0,53.0
7137,68.0,120,208,0.0,54.0
7138,56.0,0,120,2.0,55.0
7139,72.0,120,120,1.0,54.0
7140,60.0,0,240,3.0,54.0
7141,65.0,120,208,0.0,55.0
7142,53.0,0,120,2.0,56.0
7143,73.0,120,120,1.0,55.0
7144,61.0,0,241,3.0,55.0
7145,67.0,0,208,0.0,56.0
7146,70.0,0,120,1.0,56.0
7147,55.0,120,120,2.0,57.0
7148,58.0,120,241,3.0,56.0
7149,64.0,0,208,0.0,57.0
7150,72.0,120,120,1.0,57.0
7151,52.0,0,120,2.0,58.0
7152,60.0,120,241,3.0,57.0
7153,65.0,0,230,0.0,58.0
7154,56.0,120,230,3.0,58.0
7155,50.0,0,120,2.0,60.0
7156,68.0,120,120,1.0,58.0
7157,58.0,0,230,3.0,60.0
7158,62.0,120,230,0.0,59.0
7159,51.0,0,120,2.0,62.0
7160,70.0,120,120,1.0,59.0
7161,55.0,0,153,3.0,63.0
7162,51.0,120,120,2.0,60.0
7163,63.0,120,240,0.0,59.0
7164,50.0,120,120,2.0,61.0
7165,51.0,120,120,2.0,59.0
7166,55.0,0,230,3.0,58.0
7167,85.0,0,240,0.0,60.0
7168,73.0,120,240,1.0,60.0
7169,51.0,120,120,2.0,61.0
7170,56.0,0,230,3.0,60.0
7171,51.0,120,120,2.0,62.0
7172,72.0,120,240,1.0,62.0
7173,84.0,0,240,0.0,62.0
7174,58.0,0,230,3.0,62.0
7175,51.0,120,120,2.0,64.0
7176,82.0,0,240,0.0,63.0
7177,70.0,120,240,1.0,63.0
7178,60.0,0,230,3.0,63.0
7179,80.0,0,240,0.0,65.0
7180,68.0,120,240,1.0,65.0
7181,51.0,120,120,2.0,66.0
7182,61.0,120,230,3.0,65.0
7183,51.0,120,120,2.0,68.0
7184,67.0,0,240,1.0,67.0
7185,79.0,0,240,0.0,67.0
7186,62.0,0,230,3.0,67.0
7187,51.0,120,120,2.0,69.0
7188,65.0,120,240,1.0,69.0
7189,77.0,0,240,0.0,69.0
7190,75.0,0,120,0.0,70.0
7191,63.0,120,230,3.0,68.0
7192,51.0,120,120,2.0,71.0
7193,68.0,120,120,1.0,72.0
7194,72.0,0,120,1.0,72.0
7195,75.0,0,120,0.0,72.0
7196,63.0,0,230,3.0,70.0
7197,51.0,120,120,2.0,73.0
7198,70.0,0,120,1.0,74.0
7199,73.0,0,120,1.0,74.0
7200,75.0,0,120,0.0,74.0
7201,63.0,120,230,3.0,72.0
7202,51.0,120,120,2.0,75.0
7203,70.0,120,120,1.0,76.0
7204,67.0,0,120,1.0,76.0
7205,75.0,0,120,0.0,76.0
7206,63.0,0,230,3.0,74.0
7207,51.0,120,120,2.0,75.0
7208,56.0,120,120,3.0,75.0
7209,75.0,0,120,0.0,77.0
7210,72.0,0,120,1.0,77.0
7211,68.0,0,120,1.0,77.0
7212,44.0,240,120,3.0,69.0
7213,72.0,120,120,1.0,66.0
7214,58.0,0,240,3.0,64.0
7215,60.0,240,241,0.0,66.0
7216,72.0,120,120,1.0,66.0
7217,55.0,120,240,3.0,65.0
7218,64.0,0,241,0.0,66.0
7219,72.0,120,120,1.0,67.0
7220,52.0,0,240,3.0,66.0
7221,67.0,120,241,0.0,67.0
7222,48.0,120,240,3.0,67.0
7223,72.0,120,120,1.0,67.0
7224,71.0,0,241,0.0,67.0
7225,72.0,120,120,1.0,67.0
7226,50.0,120,240,3.0,67.0
7227,70.0,0,241,0.0,67.0
7228,72.0,120,120,1.0,68.0
7229,52.0,0,240,3.0,68.0
7230,67.0,120,241,0.0,68.0
7231,53.0,120,240,3.0,69.0
7232,72.0,120,120,1.0,68.0
7233,68.0,0,241,0.0,68.0
7234,72.0,120,120,1.0,69.0
7235,56.0,0,240,3.0,63.0
7236,65.0,120,241,0.0,68.0
7237,46.0,120,230,3.0,66.0
7238,80.0,0,240,0.0,66.0
7239,58.0,120,120,2.0,66.0
7240,50.0,120,230,3.0,66.0
7241,58.0,120,120,2.0,66.0
7242,77.0,0,240,0.0,67.0
7243,53.0,0,230,3.0,67.0
7244,58.0,120,120,2.0,67.0
7245,74.0,120,240,0.0,68.0
7246,57.0,0,230,3.0,67.0
7247,58.0,120,120,2.0,67.0
7248,70.0,120,240,0.0,70.0
7249,56.0,120,230,3.0,67.0
7250,72.0,0,240,0.0,71.0
7251,58.0,120,120,2.0,67.0
7252,53.0,120,230,3.0,67.0
7253,74.0,0,240,0.0,72.0
7254,58.0,120,120,2.0,68.0
7255,55.0,120,230,3.0,68.0
7256,75.0,0,240,0.0,74.0
7257,58.0,120,120,2.0,68.0
7258,51.0,120,230,3.0,68.0
7259,58.0,120,120,2.0,68.0
7260,79.0,0,240,0.0,75.0
7261,63.0,0,219,0.0,72.0
7262,75.0,120,120,1.0,72.0
7263,61.0,120,240,3.0,66.0
7264,67.0,0,219,0.0,72.0
7265,58.0,120,240,3.0,67.0
7266,75.0,120,120,1.0,72.0
7267,70.0,120,219,0.0,73.0
7268,75.0,120,120,1.0,73.0
7269,55.0,0,240,3.0,68.0
7270,74.0,120,219,0.0,73.0
7271,51.0,0,240,3.0,69.0
7272,75.0,120,120,1.0,73.0
7273,73.0,0,219,0.0,73.0
7274,75.0,120,120,1.0,73.0
7275,53.0,120,240,3.0,70.0
7276,70.0,0,219,0.0,74.0
7277,75.0,120,120,1.0,74.0
7278,55.0,120,240,3.0,70.0
7279,72.0,120,219,0.0,74.0
7280,75.0,120,120,1.0,74.0
7281,56.0,0,240,3.0,71.0
7282,72.0,0,219,0.0,74.0
7283,63.0,0,219,1.0,74.0
7284,44.0,120,240,3.0,72.0
7285,75.0,120,120,1.0,75.0
7286,73.0,0,219,0.0,75.0
7287,67.0,0,219,1.0,75.0
7288,46.0,120,240,3.0,73.0
7289,75.0,120,120,1.0,75.0
7290,72.0,0,219,0.0,75.0
7291,68.0,120,219,1.0,75.0
7292,75.0,120,120,1.0,75.0
7293,48.0,0,240,3.0,74.0
7294,65.0,120,219,1.0,76.0
7295,72.0,0,219,0.0,76.0
7296,49.0,0,240,3.0,75.0
7297,75.0,120,120,1.0,76.0
7298,65.0,0,219,1.0,76.0
7299,70.0,120,219,0.0,76.0
7300,73.0,120,120,1.0,76.0
7301,46.0,0,240,3.0,76.0
7302,68.0,0,219,0.0,76.0
7303,63.0,120,219,1.0,76.0
7304,72.0,120,120,1.0,76.0
7305,51.0,0,240,3.0,77.0
7306,67.0,120,219,0.0,77.0
7307,61.0,0,219,1.0,77.0
7308,39.0,0,240,3.0,78.0
7309,70.0,120,120,1.0,77.0
7310,44.0,120,120,3.0,79.0
7311,60.0,0,120,1.0,77.0
7312,68.0,0,240,0.0,77.0
7313,32.0,240,120,3.0,75.0
7314,60.0,120,120,2.0,72.0
7315,82.0,0,240,0.0,74.0
7316,70.0,0,240,1.0,74.0
7317,48.0,240,241,3.0,72.0
7318,67.0,0,240,1.0,74.0
7319,79.0,120,240,0.0,74.0
7320,60.0,120,120,2.0,73.0
7321,52.0,0,241,3.0,73.0
7322,60.0,120,120,2.0,73.0
7323,76.0,0,240,0.0,75.0
7324,64.0,0,240,1.0,75.0
7325,55.0,120,241,3.0,73.0
7326,60.0,120,120,2.0,74.0
7327,72.0,0,240,0.0,76.0
7328,59.0,120,241,3.0,74.0
7329,60.0,120,120,2.0,74.0
7330,74.0,120,240,0.0,76.0
7331,62.0,0,240,1.0,76.0
7332,58.0,0,241,3.0,74.0
7333,64.0,0,240,1.0,77.0
7334,76.0,0,240,0.0,77.0
7335,60.0,120,120,2.0,75.0
7336,55.0,120,241,3.0,75.0
7337,77.0,0,240,0.0,77.0
7338,60.0,120,120,2.0,75.0
7339,65.0,0,240,1.0,77.0
7340,56.0,120,241,3.0,75.0
7341,80.0,120,240,0.0,78.0
7342,68.0,0,240,1.0,78.0
7343,60.0,120,120,2.0,76.0
7344,53.0,0,241,3.0,76.0
7345,70.0,120,120,0.0,78.0
7346,82.0,120,120,1.0,79.0
7347,68.0,0,240,3.0,76.0
7348,74.0,120,219,0.0,79.0
7349,82.0,120,120,1.0,79.0
7350,65.0,0,240,3.0,77.0
7351,77.0,120,219,0.0,80.0
7352,62.0,0,240,3.0,77.0
7353,82.0,120,120,1.0,80.0
7354,81.0,120,219,0.0,80.0
7355,82.0,120,120,1.0,80.0
7356,58.0,0,240,3.0,78.0
7357,80.0,0,219,0.0,81.0
7358,82.0,120,120,1.0,81.0
7359,60.0,120,240,3.0,78.0
7360,77.0,120,219,0.0,81.0
7361,62.0,0,240,3.0,78.0
7362,82.0,120,120,1.0,82.0
7363,79.0,120,219,0.0,82.0
7364,82.0,120,120,1.0,82.0
7365,63.0,0,240,3.0,79.0
7366,75.0,120,219,0.0,82.0
7367,67.0,0,240,3.0,79.0
7368,82.0,120,120,1.0,83.0
7369,51.0,120,120,2.0,75.0
7370,85.0,0,240,0.0,83.0
7371,73.0,120,240,1.0,83.0
7372,39.0,0,252,3.0,74.0
7373,82.0,120,240,0.0,83.0
7374,70.0,0,240,1.0,83.0
7375,51.0,120,120,2.0,76.0
7376,43.0,0,252,3.0,75.0
7377,79.0,120,240,0.0,84.0
7378,67.0,0,240,1.0,84.0
7379,51.0,120,120,2.0,77.0
7380,46.0,0,252,3.0,76.0
7381,51.0,120,120,2.0,78.0
7382,63.0,0,240,1.0,86.0
7383,75.0,120,240,0.0,86.0
7384,50.0,0,252,3.0,77.0
7385,51.0,120,120,2.0,79.0
7386,77.0,120,240,0.0,87.0
7387,65.0,0,240,1.0,87.0
7388,49.0,0,252,3.0,78.0
7389,51.0,120,120,2.0,80.0
7390,67.0,0,240,1.0,88.0
7391,79.0,120,240,0.0,88.0
7392,46.0,0,252,3.0,80.0
7393,51.0,120,96,2.0,81.0
7394,48.0,0,228,3.0,81.0
7395,68.0,0,240,1.0,89.0
7396,80.0,120,240,0.0,89.0
7397,56.0,120,96,2.0,82.0
7398,44.0,0,217,3.0,82.0
7399,84.0,0,219,1.0,90.0
7400,75.0,0,219,1.0,90.0
7401,80.0,120,219,1.0,90.0
7402,87.0,0,120,0.0,91.0
7403,55.0,120,96,2.0,83.0
7404,43.0,0,217,3.0,83.0
7405,85.0,0,219,1.0,92.0
7406,82.0,0,219,1.0,92.0
7407,75.0,120,219,1.0,92.0
7408,87.0,0,120,0.0,92.0
7409,56.0,120,96,2.0,84.0
7410,44.0,0,217,3.0,84.0
7411,84.0,0,219,1.0,93.0
7412,80.0,0,219,1.0,93.0
7413,75.0,120,219,1.0,93.0
7414,87.0,0,120,0.0,93.0
7415,53.0,0,96,2.0,86.0
7416,41.0,120,217,3.0,85.0
7417,84.0,0,219,1.0,94.0
7418,75.0,0,219,1.0,94.0
7419,87.0,120,120,0.0,95.0
7420,49.0,120,96,2.0,87.0
7421,37.0,0,217,3.0,86.0
7422,73.0,0,219,1.0,95.0
7423,82.0,120,219,1.0,95.0
7424,85.0,0,120,0.0,96.0
7425,51.0,0,96,2.0,88.0
7426,39.0,0,217,3.0,87.0
7427,80.0,120,219,1.0,97.0
7428,72.0,0,219,1.0,97.0
7429,84.0,120,120,0.0,97.0
7430,51.0,0,96,2.0,89.0
7431,39.0,120,217,3.0,88.0
7432,79.0,0,219,1.0,98.0
7433,70.0,0,219,1.0,98.0
7434,82.0,120,120,0.0,98.0
7435,32.0,0,96,3.0,89.0
7436,72.0,0,120,1.0,99.0
7437,80.0,120,120,0.0,99.0
7438,44.0,240,120,3.0,84.0
7439,36.0,0,228,3.0,42.0
7440,60.0,240,234,0.0,38.0
7441,43.0,120,120,2.0,44.0
7442,55.0,0,120,1.0,39.0
7443,36.0,120,228,3.0,45.0
7444,60.0,0,234,0.0,41.0
7445,55.0,0,120,1.0,42.0
7446,43.0,120,120,2.0,46.0
7447,36.0,0,228,3.0,47.0
7448,60.0,120,234,0.0,43.0
7449,43.0,120,120,2.0,48.0
7450,55.0,0,120,1.0,44.0
7451,36.0,120,228,3.0,49.0
7452,62.0,0,234,0.0,46.0
7453,59.0,120,120,1.0,47.0
7454,43.0,0,120,2.0,50.0
7455,36.0,0,228,3.0,52.0
7456,60.0,120,120,1.0,49.0
7457,63.0,120,240,0.0,48.0
7458,43.0,0,120,2.0,53.0
7459,36.0,120,228,3.0,54.0
7460,62.0,120,120,1.0,52.0
7461,65.0,0,240,0.0,51.0
7462,43.0,0,120,2.0,55.0
7463,36.0,120,228,3.0,56.0
7464,63.0,0,120,1.0,54.0
7465,43.0,120,120,2.0,57.0
7466,67.0,0,240,0.0,53.0
7467,36.0,120,228,3.0,58.0
7468,67.0,120,120,1.0,57.0
7469,43.0,0,120,2.0,60.0
7470,71.0,0,240,0.0,56.0
7471,36.0,120,228,3.0,61.0
7472,72.0,0,234,0.0,58.0
7473,43.0,0,120,2.0,62.0
7474,69.0,120,120,1.0,59.0
7475,36.0,120,228,3.0,63.0
7476,74.0,0,234,0.0,61.0
7477,43.0,0,120,2.0,64.0
7478,71.0,120,132,1.0,62.0
7479,36.0,0,228,3.0,63.0
7480,75.0,120,240,0.0,64.0
7481,72.0,120,120,1.0,66.0
7482,43.0,0,120,2.0,66.0
7483,36.0,0,228,3.0,68.0
7484,43.0,0,120,2.0,71.0
7485,75.0,120,240,0.0,68.0
7486,72.0,120,120,1.0,70.0
7487,70.0,120,120,1.0,72.0
7488,36.0,0,120,3.0,74.0
7489,74.0,0,120,0.0,72.0
7490,43.0,120,120,2.0,76.0
7491,69.0,120,120,1.0,86.0
7492,78.0,0,120,0.0,86.0
7493,66.0,0,120,1.0,86.0
7494,31.0,0,120,3.0,94.0
7495,43.0,120,120,2.0,96.0
7496,67.0,120,120,1.0,90.0
7497,70.0,0,120,1.0,90.0
7498,36.0,0,120,3.0,97.0
7499,79.0,0,120,0.0,90.0
7500,43.0,120,120,2.0,54.0
7501,36.0,120,216,3.0,55.0
7502,43.0,120,120,2.0,56.0
7503,36.0,0,216,3.0,57.0
7504,60.0,120,222,0.0,47.0
7505,55.0,120,120,1.0,48.0
7506,43.0,0,120,2.0,58.0
7507,36.0,120,216,3.0,59.0
7508,60.0,0,222,0.0,50.0
7509,43.0,120,120,2.0,60.0
7510,55.0,0,120,1.0,51.0
7511,36.0,0,216,3.0,61.0
7512,60.0,120,222,0.0,53.0
7513,43.0,0,120,2.0,62.0
7514,55.0,120,120,1.0,54.0
7515,36.0,120,216,3.0,63.0
7516,62.0,0,222,0.0,55.0
7517,43.0,0,120,2.0,64.0
7518,59.0,120,120,1.0,57.0
7519,36.0,0,216,3.0,65.0
7520,63.0,120,228,0.0,58.0
7521,60.0,0,120,1.0,60.0
7522,43.0,120,120,2.0,66.0
7523,36.0,120,216,3.0,67.0
7524,65.0,0,228,0.0,61.0
7525,43.0,0,120,2.0,68.0
7526,62.0,120,120,1.0,63.0
7527,36.0,120,216,3.0,70.0
7528,67.0,0,228,0.0,64.0
7529,63.0,0,120,1.0,66.0
7530,43.0,120,120,2.0,71.0
7531,36.0,120,216,3.0,72.0
7532,71.0,0,228,0.0,67.0
7533,43.0,120,120,2.0,73.0
7534,67.0,0,120,1.0,69.0
7535,36.0,120,216,3.0,74.0
7536,72.0,0,228,0.0,70.0
7537,43.0,120,120,2.0,75.0
7538,69.0,0,120,1.0,72.0
7539,36.0,0,216,3.0,76.0
7540,74.0,120,228,0.0,73.0
7541,43.0,0,120,2.0,77.0
7542,71.0,120,120,1.0,75.0
7543,36.0,120,216,3.0,78.0
7544,75.0,0,228,0.0,77.0
7545,72.0,0,120,1.0,80.0
7546,43.0,120,120,2.0,80.0
7547,36.0,0,216,3.0,81.0
7548,75.0,120,228,0.0,82.0
7549,43.0,120,120,2.0,83.0
7550,72.0,0,120,1.0,85.0
7551,38.0,0,120,3.0,85.0
7552,70.0,0,120,1.0,87.0
7553,74.0,120,120,0.0,87.0
7554,43.0,120,120,2.0,87.0
7555,38.0,0,120,3.0,96.0
7556,66.0,0,120,1.0,96.0
7557,69.0,0,120,1.0,96.0
7558,78.0,120,120,0.0,96.0
7559,50.0,120,120,2.0,98.0
7560,70.0,0,120,1.0,100.0
7561,67.0,0,120,1.0,100.0
7562,31.0,120,120,3.0,100.0
7563,79.0,0,120,0.0,100.0
7564,43.0,120,120,2.0,64.0
7565,43.0,120,120,2.0,66.0
7566,31.0,120,240,3.0,66.0
7567,36.0,0,228,3.0,42.0
7568,60.0,120,234,0.0,38.0
7569,55.0,0,120,1.0,39.0
7570,43.0,120,120,2.0,44.0
7571,36.0,0,228,3.0,45.0
7572,60.0,120,234,0.0,41.0
7573,43.0,0,120,2.0,46.0
7574,55.0,120,120,1.0,42.0
7575,36.0,120,228,3.0,47.0
7576,60.0,0,234,0.0,43.0
7577,55.0,0,120,1.0,44.0
7578,43.0,120,120,2.0,48.0
7579,36.0,120,228,3.0,49.0
7580,62.0,0,234,0.0,46.0
7581,59.0,120,120,1.0,47.0
7582,43.0,0,120,2.0,50.0
7583,36.0,0,228,3.0,52.0
7584,43.0,0,120,2.0,53.0
7585,60.0,120,120,1.0,49.0
7586,63.0,120,240,0.0,48.0
7587,36.0,120,228,3.0,54.0
7588,65.0,0,240,0.0,51.0
7589,43.0,0,120,2.0,55.0
7590,62.0,120,120,1.0,52.0
7591,36.0,0,228,3.0,56.0
7592,43.0,120,120,2.0,57.0
7593,67.0,120,240,0.0,53.0
7594,63.0,0,120,1.0,54.0
7595,36.0,120,228,3.0,58.0
7596,67.0,120,120,1.0,57.0
7597,43.0,0,120,2.0,60.0
7598,71.0,0,240,0.0,56.0
7599,36.0,120,228,3.0,61.0
7600,72.0,0,234,0.0,58.0
7601,69.0,120,120,1.0,59.0
7602,43.0,0,120,2.0,62.0
7603,36.0,120,228,3.0,63.0
7604,74.0,0,234,0.0,61.0
7605,43.0,120,120,2.0,64.0
7606,71.0,0,132,1.0,62.0
7607,36.0,120,228,3.0,63.0
7608,75.0,0,0,0.0,68.0
7609,72.0,0,120,1.0,66.0
7610,43.0,120,120,2.0,66.0
7611,36.0,120,228,3.0,68.0
7612,43.0,0,120,2.0,71.0
7613,72.0,120,120,1.0,70.0
7614,70.0,0,120,1.0,72.0
7615,36.0,120,120,3.0,74.0
7616,74.0,0,120,0.0,72.0
7617,43.0,120,120,2.0,76.0
7618,66.0,0,120,1.0,86.0
7619,78.0,120,120,0.0,86.0
7620,69.0,0,120,1.0,86.0
7621,31.0,0,120,3.0,94.0
7622,43.0,120,120,2.0,96.0
7623,67.0,0,120,1.0,90.0
7624,79.0,120,120,0.0,90.0
7625,36.0,0,120,3.0,97.0
7626,70.0,0,120,1.0,90.0
7627,43.0,120,120,2.0,54.0
7628,36.0,120,216,3.0,55.0
7629,43.0,120,120,2.0,56.0
7630,36.0,0,216,3.0,57.0
7631,60.0,120,222,0.0,47.0
7632,55.0,120,120,1.0,48.0
7633,43.0,0,120,2.0,58.0
7634,36.0,120,216,3.0,59.0
7635,60.0,0,222,0.0,50.0
7636,55.0,0,120,1.0,51.0
7637,43.0,120,120,2.0,60.0
7638,36.0,0,216,3.0,61.0
7639,60.0,120,222,0.0,53.0
7640,43.0,120,120,2.0,62.0
7641,55.0,0,120,1.0,54.0
7642,36.0,120,216,3.0,63.0
7643,62.0,0,222,0.0,55.0
7644,43.0,120,120,2.0,64.0
7645,59.0,0,120,1.0,57.0
7646,36.0,120,216,3.0,65.0
7647,63.0,0,228,0.0,58.0
7648,60.0,0,120,1.0,60.0
7649,43.0,120,120,2.0,66.0
7650,36.0,120,216,3.0,67.0
7651,65.0,0,228,0.0,61.0
7652,43.0,120,120,2.0,68.0
7653,62.0,0,120,1.0,63.0
7654,36.0,120,216,3.0,70.0
7655,67.0,0,228,0.0,64.0
7656,43.0,0,120,2.0,71.0
7657,63.0,120,120,1.0,66.0
7658,36.0,0,216,3.0,72.0
7659,71.0,120,228,0.0,67.0
7660,43.0,120,120,2.0,73.0
7661,67.0,0,120,1.0,69.0
7662,36.0,0,216,3.0,74.0
7663,72.0,120,228,0.0,70.0
7664,43.0,120,120,2.0,75.0
7665,69.0,0,120,1.0,72.0
7666,36.0,0,216,3.0,76.0
7667,74.0,120,228,0.0,73.0
7668,71.0,0,120,1.0,75.0
7669,43.0,120,120,2.0,77.0
7670,36.0,0,216,3.0,78.0
7671,75.0,120,228,0.0,77.0
7672,72.0,0,120,1.0,80.0
7673,43.0,120,120,2.0,80.0
7674,36.0,0,216,3.0,81.0
7675,75.0,120,228,0.0,82.0
7676,43.0,0,120,2.0,83.0
7677,72.0,120,120,1.0,85.0
7678,38.0,0,120,3.0,85.0
7679,74.0,120,120,0.0,87.0
7680,70.0,0,120,1.0,87.0
7681,43.0,120,120,2.0,87.0
7682,66.0,0,120,1.0,96.0
7683,69.0,120,120,1.0,96.0
7684,38.0,0,120,3.0,96.0
7685,78.0,0,120,0.0,96.0
7686,50.0,120,120,2.0,98.0
7687,31.0,0,120,3.0,100.0
7688,70.0,120,120,1.0,100.0
7689,67.0,0,120,1.0,100.0
7690,79.0,0,120,0.0,100.0
7691,43.0,120,120,2.0,64.0
7692,31.0,120,240,3.0,66.0
7693,43.0,120,120,2.0,66.0
7694,70.0,0,228,0.0,64.0
7695,43.0,120,240,3.0,65.0
7696,67.0,120,120,1.0,63.0
7697,50.0,0,120,2.0,65.0
7698,70.0,0,228,0.0,63.0
7699,67.0,0,120,1.0,63.0
7700,50.0,120,120,2.0,64.0
7701,43.0,120,0,3.0,64.0
7702,70.0,0,228,0.0,62.0
7703,50.0,120,120,2.0,63.0
7704,67.0,0,120,1.0,62.0
7705,72.0,0,228,0.0,62.0
7706,69.0,0,120,1.0,61.0
7707,43.0,120,0,3.0,62.0
7708,50.0,120,120,2.0,62.0
7709,74.0,0,120,0.0,61.0
7710,50.0,0,120,2.0,62.0
7711,71.0,120,120,1.0,61.0
7712,77.0,0,120,0.0,76.0
7713,65.0,0,120,1.0,73.0
7714,69.0,0,120,1.0,73.0
7715,38.0,120,120,3.0,75.0
7716,50.0,120,120,2.0,76.0
7717,79.0,0,120,0.0,83.0
7718,67.0,120,120,1.0,80.0
7719,74.0,0,120,1.0,80.0
7720,70.0,0,120,1.0,80.0
7721,43.0,0,150,3.0,81.0
7722,50.0,120,120,2.0,60.0
7723,50.0,120,120,2.0,59.0
7724,43.0,120,0,3.0,59.0
7725,70.0,0,228,0.0,58.0
7726,50.0,120,120,2.0,58.0
7727,67.0,0,120,1.0,58.0
7728,70.0,120,228,0.0,57.0
7729,49.0,0,120,2.0,57.0
7730,67.0,120,120,1.0,57.0
7731,41.0,0,240,3.0,58.0
7732,40.0,0,228,3.0,57.0
7733,70.0,120,228,0.0,57.0
7734,48.0,120,120,2.0,57.0
7735,67.0,0,120,1.0,56.0
7736,70.0,120,228,0.0,56.0
7737,41.0,0,228,3.0,56.0
7738,67.0,0,120,1.0,56.0
7739,49.0,120,120,2.0,56.0
7740,40.0,0,228,3.0,55.0
7741,70.0,120,228,0.0,55.0
7742,48.0,120,120,2.0,55.0
7743,67.0,120,0,1.0,68.0
7744,36.0,0,120,3.0,73.0
7745,76.0,0,120,0.0,65.0
7746,70.0,0,120,1.0,68.0
7747,48.0,120,120,2.0,72.0
7748,65.0,0,120,1.0,73.0
7749,68.0,0,120,1.0,73.0
7750,41.0,120,120,3.0,77.0
7751,77.0,0,120,0.0,68.0
7752,48.0,120,120,2.0,53.0
7753,41.0,120,228,3.0,53.0
7754,48.0,120,120,2.0,52.0
7755,68.0,120,228,1.0,53.0
7756,41.0,0,228,3.0,52.0
7757,48.0,120,120,2.0,52.0
7758,65.0,0,120,1.0,52.0
7759,41.0,0,228,3.0,51.0
7760,68.0,120,228,1.0,52.0
7761,65.0,0,120,1.0,52.0
7762,48.0,120,120,2.0,51.0
7763,68.0,120,228,1.0,51.0
7764,41.0,0,228,3.0,50.0
7765,48.0,0,120,2.0,50.0
7766,65.0,120,120,1.0,51.0
7767,41.0,120,228,3.0,49.0
7768,70.0,0,228,0.0,50.0
7769,67.0,120,120,1.0,50.0
7770,48.0,0,120,2.0,49.0
7771,41.0,0,228,3.0,49.0
7772,72.0,120,234,0.0,50.0
7773,48.0,120,120,2.0,48.0
7774,68.0,0,120,1.0,49.0
7775,36.0,0,120,3.0,61.0
7776,76.0,0,120,0.0,59.0
7777,70.0,0,120,1.0,64.0
7778,67.0,120,120,1.0,64.0
7779,48.0,120,120,2.0,64.0
7780,41.0,0,120,3.0,64.0
7781,68.0,120,120,1.0,69.0
7782,77.0,0,120,0.0,63.0
7783,65.0,0,120,1.0,69.0
7784,48.0,120,120,2.0,49.0
7785,41.0,120,216,3.0,46.0
7786,48.0,120,120,2.0,46.0
7787,41.0,0,216,3.0,45.0
7788,68.0,120,234,0.0,47.0
7789,65.0,120,120,1.0,47.0
7790,48.0,0,120,2.0,45.0
7791,39.0,120,216,3.0,44.0
7792,68.0,0,234,0.0,46.0
7793,65.0,0,120,1.0,46.0
7794,47.0,120,120,2.0,44.0
7795,38.0,0,216,3.0,44.0
7796,68.0,120,234,0.0,46.0
7797,65.0,120,120,1.0,45.0
7798,46.0,0,120,2.0,43.0
7799,39.0,120,216,3.0,43.0
7800,68.0,0,234,0.0,45.0
7801,47.0,0,120,2.0,42.0
7802,65.0,120,120,1.0,44.0
7803,38.0,120,216,3.0,42.0
7804,46.0,120,120,2.0,42.0
7805,65.0,0,120,1.0,54.0
7806,34.0,0,120,3.0,53.0
7807,74.0,0,120,0.0,53.0
7808,68.0,120,120,1.0,54.0
7809,46.0,120,120,2.0,55.0
7810,67.0,0,120,1.0,58.0
7811,63.0,120,120,1.0,58.0
7812,75.0,0,120,0.0,58.0
7813,39.0,0,120,3.0,58.0
7814,46.0,120,120,2.0,40.0
7815,39.0,120,228,3.0,39.0
7816,46.0,120,120,2.0,39.0
7817,67.0,120,228,0.0,37.0
7818,63.0,120,120,1.0,44.0
7819,67.0,120,228,0.0,39.0
7820,63.0,120,120,1.0,45.0
7821,67.0,120,228,0.0,41.0
7822,63.0,120,120,1.0,47.0
7823,68.0,120,228,0.0,43.0
7824,65.0,120,120,1.0,49.0
7825,69.0,120,234,0.0,45.0
7826,66.0,120,120,1.0,50.0
7827,70.0,120,234,0.0,46.0
7828,67.0,120,120,1.0,52.0
7829,71.0,120,234,0.0,48.0
7830,68.0,120,120,1.0,54.0
7831,72.0,120,234,0.0,50.0
7832,69.0,120,120,1.0,55.0
7833,73.0,120,234,0.0,52.0
7834,70.0,120,120,1.0,57.0
7835,74.0,120,234,0.0,54.0
7836,71.0,120,120,1.0,60.0
7837,72.0,120,108,1.0,62.0
7838,75.0,120,234,0.0,55.0
7839,74.0,120,234,0.0,57.0
7840,71.0,120,120,1.0,64.0
7841,72.0,120,108,1.0,66.0
7842,75.0,120,234,0.0,59.0
7843,74.0,120,234,0.0,61.0
7844,71.0,120,120,1.0,68.0
7845,72.0,120,108,1.0,70.0
7846,75.0,120,234,0.0,63.0
7847,74.0,120,234,0.0,64.0
7848,71.0,120,120,1.0,68.0
7849,75.0,120,219,0.0,67.0
7850,72.0,120,120,1.0,62.0
7851,77.0,120,219,0.0,64.0
7852,69.0,120,120,1.0,59.0
7853,73.0,120,219,0.0,61.0
7854,70.0,120,120,1.0,56.0
7855,75.0,120,219,0.0,59.0
7856,67.0,120,120,1.0,53.0
7857,72.0,120,230,0.0,56.0
7858,68.0,120,120,1.0,53.0
7859,73.0,120,230,0.0,53.0
7860,65.0,120,120,1.0,52.0
7861,70.0,120,230,0.0,52.0
7862,67.0,120,120,1.0,51.0
7863,72.0,120,230,0.0,52.0
7864,64.0,120,120,1.0,51.0
7865,68.0,120,230,0.0,51.0
7866,65.0,120,120,1.0,50.0
7867,70.0,120,230,0.0,50.0
7868,62.0,120,120,1.0,49.0
7869,63.0,120,120,1.0,49.0
7870,67.0,0,240,0.0,49.0
7871,62.0,120,120,1.0,48.0
7872,63.0,120,120,1.0,48.0
7873,67.0,120,230,0.0,48.0
7874,61.0,0,240,3.0,53.0
7875,63.0,120,120,1.0,49.0
7876,68.0,0,230,0.0,50.0
7877,60.0,120,240,3.0,54.0
7878,63.0,120,120,1.0,51.0
7879,70.0,0,230,0.0,52.0
7880,58.0,120,240,3.0,56.0
7881,63.0,120,120,1.0,52.0
7882,72.0,120,230,0.0,53.0
7883,63.0,120,120,1.0,54.0
7884,56.0,0,240,3.0,58.0
7885,73.0,120,230,0.0,55.0
7886,55.0,0,240,3.0,59.0
7887,63.0,120,120,1.0,56.0
7888,74.0,0,230,0.0,57.0
7889,63.0,120,120,1.0,57.0
7890,53.0,120,240,3.0,61.0
7891,51.0,120,0,3.0,63.0
7892,75.0,0,230,0.0,58.0
7893,63.0,120,120,1.0,59.0
7894,67.0,0,230,1.0,60.0
7895,49.0,0,240,3.0,64.0
7896,63.0,120,120,1.0,61.0
7897,75.0,0,0,0.0,60.0
7898,68.0,0,230,1.0,61.0
7899,63.0,120,120,1.0,62.0
7900,48.0,120,240,3.0,66.0
7901,75.0,120,0,0.0,63.0
7902,68.0,0,230,1.0,63.0
7903,44.0,0,240,3.0,67.0
7904,63.0,120,120,1.0,64.0
7905,72.0,0,248,1.0,63.0
7906,51.0,0,120,3.0,69.0
7907,70.0,0,230,1.0,65.0
7908,67.0,0,230,1.0,65.0
7909,75.0,120,235,0.0,65.0
7910,63.0,120,120,1.0,66.0
7911,39.0,120,120,3.0,61.0
7912,75.0,0,180,0.0,66.0
7913,70.0,0,180,1.0,66.0
7914,67.0,0,185,1.0,66.0
7915,63.0,120,70,1.0,67.0
7916,63.0,120,230,3.0,50.0
7917,72.0,0,240,0.0,50.0
7918,60.0,0,120,2.0,50.0
7919,75.0,120,127,1.0,50.0
7920,77.0,120,109,1.0,51.0
7921,65.0,0,230,3.0,51.0
7922,57.0,0,120,2.0,52.0
7923,69.0,120,240,0.0,51.0
7924,73.0,120,109,1.0,52.0
7925,61.0,120,230,3.0,52.0
7926,58.0,0,120,2.0,53.0
7927,70.0,0,240,0.0,52.0
7928,75.0,120,109,1.0,53.0
7929,63.0,120,230,3.0,53.0
7930,67.0,0,240,0.0,53.0
7931,55.0,0,120,2.0,55.0
7932,68.0,0,240,0.0,54.0
7933,56.0,120,120,2.0,56.0
7934,72.0,0,120,1.0,54.0
7935,60.0,120,270,3.0,54.0
7936,73.0,120,104,1.0,55.0
7937,53.0,0,120,2.0,57.0
7938,65.0,120,240,0.0,55.0
7939,61.0,0,241,3.0,55.0
7940,67.0,120,208,0.0,56.0
7941,70.0,0,120,1.0,56.0
7942,55.0,120,120,2.0,57.0
7943,58.0,0,241,3.0,56.0
7944,64.0,0,208,0.0,57.0
7945,52.0,0,120,2.0,58.0
7946,72.0,120,120,1.0,57.0
7947,60.0,120,241,3.0,57.0
7948,65.0,120,230,0.0,58.0
7949,56.0,0,230,3.0,58.0
7950,53.0,120,120,2.0,59.0
7951,68.0,0,120,1.0,58.0
7952,62.0,120,230,0.0,59.0
7953,58.0,0,230,3.0,60.0
7954,50.0,120,120,2.0,60.0
7955,70.0,0,120,1.0,59.0
7956,55.0,0,153,3.0,63.0
7957,51.0,120,120,2.0,62.0
7958,63.0,120,240,0.0,59.0
7959,50.0,120,120,2.0,61.0
7960,51.0,120,120,2.0,60.0
7961,55.0,120,230,3.0,58.0
7962,51.0,120,120,2.0,59.0
7963,73.0,0,240,1.0,60.0
7964,85.0,0,240,0.0,60.0
7965,56.0,0,230,3.0,60.0
7966,84.0,0,240,0.0,62.0
7967,51.0,120,120,2.0,61.0
7968,72.0,120,240,1.0,62.0
7969,58.0,120,230,3.0,62.0
7970,51.0,120,120,2.0,62.0
7971,82.0,0,240,0.0,63.0
7972,70.0,0,240,1.0,63.0
7973,60.0,0,230,3.0,63.0
7974,80.0,0,240,0.0,65.0
7975,51.0,120,120,2.0,64.0
7976,68.0,120,240,1.0,65.0
7977,61.0,0,230,3.0,65.0
7978,79.0,120,240,0.0,67.0
7979,67.0,0,240,1.0,67.0
7980,51.0,120,120,2.0,66.0
7981,62.0,0,230,3.0,67.0
7982,77.0,0,240,0.0,69.0
7983,51.0,120,120,2.0,68.0
7984,65.0,120,240,1.0,69.0
7985,75.0,120,120,0.0,70.0
7986,63.0,0,230,3.0,68.0
7987,51.0,120,120,2.0,69.0
7988,68.0,120,120,1.0,72.0
7989,72.0,0,120,1.0,72.0
7990,75.0,0,120,0.0,72.0
7991,63.0,0,230,3.0,70.0
7992,51.0,120,120,2.0,71.0
7993,75.0,120,120,0.0,74.0
7994,73.0,0,120,1.0,74.0
7995,70.0,0,120,1.0,74.0
7996,63.0,0,230,3.0,72.0
7997,51.0,120,120,2.0,73.0
7998,67.0,0,120,1.0,76.0
7999,70.0,120,120,1.0,76.0
8000,75.0,0,120,0.0,76.0
8001,63.0,0,230,3.0,74.0
8002,51.0,120,120,2.0,75.0
8003,72.0,0,120,1.0,77.0
8004,75.0,120,120,0.0,77.0
8005,68.0,0,120,1.0,77.0
8006,56.0,0,120,3.0,75.0
8007,44.0,240,120,3.0,69.0
8008,58.0,240,240,3.0,64.0
8009,72.0,120,120,1.0,66.0
8010,60.0,0,241,0.0,66.0
8011,72.0,120,120,1.0,66.0
8012,55.0,0,240,3.0,65.0
8013,64.0,120,241,0.0,66.0
8014,72.0,120,120,1.0,67.0
8015,52.0,120,240,3.0,66.0
8016,67.0,0,241,0.0,67.0
8017,48.0,120,240,3.0,67.0
8018,72.0,120,120,1.0,67.0
8019,71.0,0,241,0.0,67.0
8020,72.0,120,120,1.0,67.0
8021,50.0,0,240,3.0,67.0
8022,70.0,120,241,0.0,67.0
8023,52.0,0,240,3.0,68.0
8024,72.0,120,120,1.0,68.0
8025,67.0,120,241,0.0,68.0
8026,53.0,0,240,3.0,69.0
8027,72.0,120,120,1.0,68.0
8028,68.0,120,241,0.0,68.0
8029,56.0,120,240,3.0,63.0
8030,72.0,120,120,1.0,69.0
8031,65.0,0,241,0.0,68.0
8032,46.0,0,230,3.0,66.0
8033,58.0,120,120,2.0,66.0
8034,80.0,120,240,0.0,66.0
8035,50.0,120,230,3.0,66.0
8036,77.0,0,240,0.0,67.0
8037,58.0,120,120,2.0,66.0
8038,53.0,120,230,3.0,67.0
8039,58.0,120,120,2.0,67.0
8040,74.0,0,240,0.0,68.0
8041,57.0,120,230,3.0,67.0
8042,70.0,0,240,0.0,70.0
8043,58.0,120,120,2.0,67.0
8044,56.0,0,230,3.0,67.0
8045,72.0,120,240,0.0,71.0
8046,58.0,120,120,2.0,67.0
8047,53.0,0,230,3.0,67.0
8048,58.0,120,120,2.0,68.0
8049,74.0,120,240,0.0,72.0
8050,55.0,120,230,3.0,68.0
8051,75.0,0,240,0.0,74.0
8052,58.0,120,120,2.0,68.0
8053,51.0,120,230,3.0,68.0
8054,79.0,0,240,0.0,75.0
8055,58.0,120,120,2.0,68.0
8056,63.0,0,219,0.0,72.0
8057,75.0,120,120,1.0,72.0
8058,61.0,120,240,3.0,66.0
8059,67.0,0,219,0.0,72.0
8060,58.0,120,240,3.0,67.0
8061,75.0,120,120,1.0,72.0
8062,70.0,0,219,0.0,73.0
8063,55.0,120,240,3.0,68.0
8064,75.0,120,120,1.0,73.0
8065,74.0,120,219,0.0,73.0
8066,75.0,120,120,1.0,73.0
8067,51.0,0,240,3.0,69.0
8068,73.0,120,219,0.0,73.0
8069,53.0,0,240,3.0,70.0
8070,75.0,120,120,1.0,73.0
8071,70.0,0,219,0.0,74.0
8072,75.0,120,120,1.0,74.0
8073,55.0,120,240,3.0,70.0
8074,72.0,0,219,0.0,74.0
8075,75.0,120,120,1.0,74.0
8076,56.0,120,240,3.0,71.0
8077,72.0,120,219,0.0,74.0
8078,63.0,0,219,1.0,74.0
8079,75.0,120,120,1.0,75.0
8080,44.0,0,240,3.0,72.0
8081,73.0,120,219,0.0,75.0
8082,67.0,0,219,1.0,75.0
8083,46.0,0,240,3.0,73.0
8084,75.0,120,120,1.0,75.0
8085,72.0,120,219,0.0,75.0
8086,68.0,0,219,1.0,75.0
8087,48.0,0,240,3.0,74.0
8088,75.0,120,120,1.0,75.0
8089,65.0,120,219,1.0,76.0
8090,72.0,0,219,0.0,76.0
8091,49.0,0,240,3.0,75.0
8092,75.0,120,120,1.0,76.0
8093,65.0,0,219,1.0,76.0
8094,70.0,0,219,0.0,76.0
8095,73.0,120,120,1.0,76.0
8096,46.0,120,240,3.0,76.0
8097,68.0,0,219,0.0,76.0
8098,63.0,0,219,1.0,76.0
8099,51.0,120,240,3.0,77.0
8100,72.0,120,120,1.0,76.0
8101,67.0,120,219,0.0,77.0
8102,61.0,0,219,1.0,77.0
8103,70.0,120,120,1.0,77.0
8104,39.0,0,240,3.0,78.0
8105,60.0,120,120,1.0,77.0
8106,44.0,0,120,3.0,79.0
8107,68.0,0,240,0.0,77.0
8108,32.0,240,120,3.0,75.0
8109,60.0,120,120,2.0,72.0
8110,70.0,0,240,1.0,74.0
8111,82.0,0,240,0.0,74.0
8112,48.0,240,241,3.0,72.0
8113,67.0,0,240,1.0,74.0
8114,60.0,120,120,2.0,73.0
8115,79.0,0,240,0.0,74.0
8116,52.0,120,241,3.0,73.0
8117,60.0,120,120,2.0,73.0
8118,64.0,0,240,1.0,75.0
8119,76.0,120,240,0.0,75.0
8120,55.0,0,241,3.0,73.0
8121,60.0,120,120,2.0,74.0
8122,72.0,0,240,0.0,76.0
8123,59.0,120,241,3.0,74.0
8124,62.0,120,240,1.0,76.0
8125,74.0,0,240,0.0,76.0
8126,60.0,120,120,2.0,74.0
8127,58.0,0,241,3.0,74.0
8128,64.0,0,240,1.0,77.0
8129,60.0,120,120,2.0,75.0
8130,76.0,0,240,0.0,77.0
8131,55.0,120,241,3.0,75.0
8132,65.0,0,240,1.0,77.0
8133,77.0,0,240,0.0,77.0
8134,60.0,120,120,2.0,75.0
8135,56.0,120,241,3.0,75.0
8136,60.0,120,120,2.0,76.0
8137,80.0,0,240,0.0,78.0
8138,68.0,0,240,1.0,78.0
8139,53.0,120,241,3.0,76.0
8140,70.0,120,120,0.0,78.0
8141,82.0,120,120,1.0,79.0
8142,68.0,0,240,3.0,76.0
8143,74.0,0,219,0.0,79.0
8144,65.0,120,240,3.0,77.0
8145,82.0,120,120,1.0,79.0
8146,77.0,0,219,0.0,80.0
8147,62.0,120,240,3.0,77.0
8148,82.0,120,120,1.0,80.0
8149,81.0,120,219,0.0,80.0
8150,58.0,0,240,3.0,78.0
8151,82.0,120,120,1.0,80.0
8152,80.0,120,219,0.0,81.0
8153,82.0,120,120,1.0,81.0
8154,60.0,0,240,3.0,78.0
8155,77.0,0,219,0.0,81.0
8156,62.0,120,240,3.0,78.0
8157,82.0,120,120,1.0,82.0
8158,79.0,0,219,0.0,82.0
8159,63.0,120,240,3.0,79.0
8160,82.0,120,120,1.0,82.0
8161,75.0,120,219,0.0,82.0
8162,82.0,120,120,1.0,83.0
8163,67.0,0,240,3.0,79.0
8164,51.0,120,120,2.0,75.0
8165,73.0,120,240,1.0,83.0
8166,85.0,0,240,0.0,83.0
8167,39.0,0,252,3.0,74.0
8168,70.0,0,240,1.0,83.0
8169,82.0,0,240,0.0,83.0
8170,51.0,120,120,2.0,76.0
8171,43.0,120,252,3.0,75.0
8172,67.0,0,240,1.0,84.0
8173,79.0,120,240,0.0,84.0
8174,51.0,120,120,2.0,77.0
8175,46.0,0,252,3.0,76.0
8176,63.0,0,240,1.0,86.0
8177,75.0,0,240,0.0,86.0
8178,51.0,120,120,2.0,78.0
8179,50.0,120,252,3.0,77.0
8180,51.0,120,120,2.0,79.0
8181,65.0,120,240,1.0,87.0
8182,77.0,0,240,0.0,87.0
8183,49.0,0,252,3.0,78.0
8184,67.0,120,240,1.0,88.0
8185,51.0,120,120,2.0,80.0
8186,79.0,0,240,0.0,88.0
8187,46.0,0,252,3.0,80.0
8188,51.0,120,96,2.0,81.0
8189,48.0,0,228,3.0,81.0
8190,68.0,120,240,1.0,89.0
8191,80.0,0,240,0.0,89.0
8192,56.0,0,96,2.0,82.0
8193,44.0,0,217,3.0,82.0
8194,75.0,120,219,1.0,90.0
8195,84.0,0,219,1.0,90.0
8196,80.0,0,219,1.0,90.0
8197,87.0,120,120,0.0,91.0
8198,55.0,0,96,2.0,83.0
8199,43.0,0,217,3.0,83.0
8200,85.0,0,219,1.0,92.0
8201,82.0,0,219,1.0,92.0
8202,75.0,120,219,1.0,92.0
8203,87.0,120,120,0.0,92.0
8204,56.0,0,96,2.0,84.0
8205,44.0,0,217,3.0,84.0
8206,75.0,120,219,1.0,93.0
8207,84.0,0,219,1.0,93.0
8208,80.0,0,219,1.0,93.0
8209,87.0,120,120,0.0,93.0
8210,53.0,120,96,2.0,86.0
8211,41.0,0,217,3.0,85.0
8212,75.0,0,219,1.0,94.0
8213,84.0,120,219,1.0,94.0
8214,87.0,0,120,0.0,95.0
8215,49.0,0,96,2.0,87.0
8216,37.0,120,217,3.0,86.0
8217,73.0,0,219,1.0,95.0
8218,82.0,0,219,1.0,95.0
8219,85.0,120,120,0.0,96.0
8220,51.0,120,96,2.0,88.0
8221,39.0,0,217,3.0,87.0
8222,80.0,0,219,1.0,97.0
8223,72.0,120,219,1.0,97.0
8224,84.0,0,120,0.0,97.0
8225,51.0,0,96,2.0,89.0
8226,39.0,0,217,3.0,88.0
8227,79.0,0,219,1.0,98.0
8228,70.0,120,219,1.0,98.0
8229,82.0,120,120,0.0,98.0
8230,32.0,120,96,3.0,89.0
8231,72.0,0,120,1.0,99.0
8232,80.0,0,120,0.0,99.0
8233,44.0,240,120,3.0,84.0
8234,60.0,0,225,3.0,89.0
8235,56.0,120,120,2.0,89.0
8236,68.0,240,240,0.0,93.0
8237,72.0,0,120,1.0,93.0
8238,61.0,0,225,3.0,89.0
8239,53.0,0,120,2.0,89.0
8240,65.0,120,240,0.0,93.0
8241,73.0,120,120,1.0,93.0
8242,58.0,120,225,3.0,89.0
8243,67.0,0,240,0.0,93.0
8244,55.0,0,120,2.0,89.0
8245,70.0,120,120,1.0,93.0
8246,60.0,0,225,3.0,88.0
8247,64.0,120,240,0.0,92.0
8248,52.0,0,120,2.0,88.0
8249,72.0,120,120,1.0,92.0
8250,53.0,120,120,2.0,88.0
8251,56.0,0,225,3.0,88.0
8252,65.0,0,240,0.0,92.0
8253,68.0,120,120,1.0,92.0
8254,50.0,0,120,2.0,88.0
8255,58.0,0,225,3.0,88.0
8256,70.0,120,120,1.0,92.0
8257,62.0,120,240,0.0,92.0
8258,67.0,120,120,0.0,91.0
8259,51.0,0,120,3.0,88.0
8260,70.0,0,120,1.0,106.0
8261,67.0,0,120,1.0,106.0
8262,39.0,0,120,3.0,102.0
8263,79.0,240,120,0.0,106.0
8264,51.0,0,120,3.0,102.0
8265,75.0,0,120,1.0,106.0
8266,63.0,0,232,3.0,87.0
8267,79.0,240,240,0.0,91.0
8268,75.0,0,120,1.0,91.0
8269,67.0,120,120,2.0,87.0
8270,60.0,0,232,3.0,87.0
8271,72.0,120,120,1.0,90.0
8272,68.0,0,120,2.0,86.0
8273,80.0,120,240,0.0,91.0
8274,62.0,120,232,3.0,86.0
8275,74.0,120,120,1.0,90.0
8276,65.0,0,120,2.0,86.0
8277,77.0,0,240,0.0,90.0
8278,59.0,120,232,3.0,86.0
8279,71.0,120,120,1.0,90.0
8280,67.0,0,120,2.0,86.0
8281,79.0,0,240,0.0,90.0
8282,60.0,0,232,3.0,86.0
8283,75.0,120,240,0.0,90.0
8284,72.0,0,120,1.0,90.0
8285,63.0,120,127,2.0,86.0
8286,57.0,0,225,3.0,85.0
8287,65.0,120,120,2.0,85.0
8288,77.0,120,240,0.0,89.0
8289,69.0,0,120,1.0,89.0
8290,73.0,0,120,0.0,89.0
8291,58.0,120,120,3.0,85.0
8292,58.0,0,120,3.0,101.0
8293,73.0,0,120,1.0,104.0
8294,82.0,0,120,0.0,104.0
8295,70.0,240,120,1.0,104.0
8296,46.0,0,120,3.0,101.0
8297,61.0,240,239,3.0,85.0
8298,70.0,0,240,0.0,88.0
8299,58.0,120,120,2.0,84.0
8300,73.0,0,120,1.0,88.0
8301,63.0,120,239,3.0,84.0
8302,67.0,0,240,0.0,88.0
8303,75.0,0,120,1.0,88.0
8304,55.0,120,120,2.0,84.0
8305,60.0,0,239,3.0,84.0
8306,56.0,120,120,2.0,84.0
8307,68.0,120,240,0.0,88.0
8308,72.0,0,120,1.0,88.0
8309,61.0,0,239,3.0,84.0
8310,53.0,120,120,2.0,83.0
8311,65.0,120,240,0.0,88.0
8312,73.0,0,120,1.0,87.0
8313,55.0,0,120,2.0,83.0
8314,58.0,120,232,3.0,83.0
8315,70.0,120,120,1.0,87.0
8316,67.0,0,240,0.0,87.0
8317,52.0,120,120,2.0,83.0
8318,60.0,0,232,3.0,83.0
8319,64.0,0,240,0.0,87.0
8320,72.0,120,120,1.0,87.0
8321,68.0,120,120,0.0,87.0
8322,53.0,0,120,3.0,83.0
8323,41.0,0,120,3.0,100.0
8324,72.0,0,120,1.0,101.0
8325,80.0,0,120,0.0,101.0
8326,77.0,0,120,1.0,101.0
8327,53.0,240,120,3.0,100.0
8328,68.0,0,120,1.0,101.0
8329,65.0,240,232,3.0,82.0
8330,80.0,0,240,0.0,86.0
8331,68.0,0,120,2.0,82.0
8332,77.0,120,120,1.0,86.0
8333,62.0,0,232,3.0,82.0
8334,82.0,120,240,0.0,86.0
8335,74.0,0,120,1.0,86.0
8336,70.0,120,120,2.0,82.0
8337,67.0,120,120,2.0,81.0
8338,63.0,0,232,3.0,82.0
8339,79.0,0,240,0.0,85.0
8340,75.0,120,120,1.0,85.0
8341,68.0,0,120,2.0,81.0
8342,60.0,120,232,3.0,81.0
8343,80.0,0,240,0.0,85.0
8344,72.0,120,120,1.0,85.0
8345,65.0,0,120,2.0,81.0
8346,62.0,120,232,3.0,81.0
8347,77.0,0,240,0.0,85.0
8348,74.0,120,120,1.0,85.0
8349,67.0,120,120,2.0,80.0
8350,59.0,0,232,3.0,81.0
8351,79.0,0,240,0.0,85.0
8352,71.0,120,120,1.0,84.0
8353,60.0,120,120,3.0,80.0
8354,75.0,0,120,0.0,84.0
8355,84.0,0,120,0.0,100.0
8356,45.0,240,120,3.0,97.0
8357,72.0,0,120,1.0,100.0
8358,77.0,0,120,1.0,100.0
8359,75.0,0,120,1.0,100.0
8360,46.0,240,120,3.0,80.0
8361,73.0,0,120,0.0,84.0
8362,82.0,0,120,0.0,100.0
8363,58.0,0,120,3.0,94.0
8364,70.0,0,120,1.0,100.0
8365,75.0,0,120,1.0,100.0
8366,73.0,240,120,1.0,100.0
8367,73.0,240,120,0.0,83.0
8368,43.0,0,120,3.0,79.0
8369,73.0,0,120,1.0,99.0
8370,55.0,0,120,3.0,95.0
8371,75.0,0,120,1.0,99.0
8372,82.0,0,120,0.0,99.0
8373,70.0,240,120,1.0,99.0
8374,44.0,240,120,3.0,79.0
8375,72.0,0,120,0.0,82.0
8376,68.0,0,120,1.0,98.0
8377,75.0,0,120,1.0,98.0
8378,72.0,240,120,1.0,98.0
8379,80.0,0,120,0.0,97.0
8380,56.0,0,120,3.0,93.0
8381,70.0,0,120,0.0,82.0
8382,39.0,240,120,3.0,78.0
8383,75.0,240,120,1.0,100.0
8384,70.0,0,120,1.0,100.0
8385,67.0,0,120,1.0,100.0
8386,51.0,0,120,3.0,94.0
8387,79.0,0,120,0.0,94.0
8388,49.0,240,208,3.0,65.0
8389,51.0,120,120,2.0,65.0
8390,63.0,0,120,1.0,61.0
8391,75.0,120,120,0.0,61.0
8392,46.0,0,208,3.0,65.0
8393,55.0,120,120,2.0,64.0
8394,49.0,120,208,3.0,64.0
8395,51.0,120,120,2.0,63.0
8396,67.0,120,120,1.0,60.0
8397,79.0,0,120,0.0,60.0
8398,46.0,0,208,3.0,63.0
8399,55.0,120,120,2.0,62.0
8400,49.0,120,208,3.0,62.0
8401,51.0,120,120,2.0,61.0
8402,70.0,0,120,1.0,58.0
8403,82.0,0,120,0.0,58.0
8404,46.0,120,208,3.0,61.0
8405,55.0,120,120,2.0,61.0
8406,79.0,0,120,0.0,57.0
8407,67.0,120,120,1.0,57.0
8408,49.0,0,208,3.0,60.0
8409,51.0,120,120,2.0,60.0
8410,75.0,0,120,0.0,56.0
8411,63.0,0,120,1.0,56.0
8412,46.0,120,208,3.0,59.0
8413,55.0,120,120,2.0,59.0
8414,49.0,120,208,3.0,58.0
8415,51.0,120,120,2.0,58.0
8416,75.0,0,120,0.0,55.0
8417,63.0,0,120,1.0,55.0
8418,46.0,120,208,3.0,57.0
8419,55.0,120,120,2.0,57.0
8420,49.0,120,208,3.0,57.0
8421,51.0,120,120,2.0,56.0
8422,79.0,120,120,0.0,53.0
8423,67.0,0,120,1.0,53.0
8424,46.0,0,208,3.0,56.0
8425,55.0,120,120,2.0,55.0
8426,49.0,120,208,3.0,55.0
8427,51.0,120,120,2.0,54.0
8428,70.0,0,120,1.0,51.0
8429,82.0,0,120,0.0,51.0
8430,46.0,120,208,3.0,54.0
8431,55.0,120,120,2.0,54.0
8432,67.0,0,120,1.0,50.0
8433,79.0,0,120,0.0,50.0
8434,49.0,120,208,3.0,53.0
8435,51.0,120,120,2.0,53.0
8436,63.0,0,120,1.0,49.0
8437,75.0,0,120,0.0,49.0
8438,46.0,120,208,3.0,52.0
8439,55.0,120,120,2.0,52.0
8440,86.0,120,120,1.0,49.0
8441,82.0,120,263,0.0,48.0
8442,51.0,120,120,3.0,55.0
8443,39.0,0,120,3.0,55.0
8444,79.0,0,230,0.0,50.0
8445,87.0,120,120,1.0,51.0
8446,85.0,120,105,1.0,52.0
8447,82.0,120,240,0.0,53.0
8448,55.0,0,120,3.0,59.0
8449,43.0,0,120,3.0,59.0
8450,79.0,120,240,0.0,55.0
8451,87.0,120,127,1.0,54.0
8452,82.0,120,240,0.0,57.0
8453,85.0,120,127,1.0,56.0
8454,58.0,0,120,3.0,63.0
8455,46.0,120,120,3.0,63.0
8456,79.0,0,240,0.0,59.0
8457,87.0,120,127,1.0,58.0
8458,43.0,0,120,3.0,65.0
8459,55.0,0,120,3.0,65.0
8460,85.0,120,120,1.0,60.0
8461,82.0,120,240,0.0,61.0
8462,51.0,0,120,3.0,66.0
8463,39.0,120,120,3.0,66.0
8464,79.0,0,240,0.0,63.0
8465,87.0,120,127,1.0,62.0
8466,82.0,120,240,0.0,65.0
8467,85.0,120,120,1.0,64.0
8468,51.0,0,120,3.0,70.0
8469,39.0,0,120,3.0,70.0
8470,79.0,120,240,0.0,67.0
8471,87.0,120,127,1.0,66.0
8472,82.0,120,240,0.0,68.0
8473,85.0,120,127,1.0,68.0
8474,43.0,120,120,3.0,74.0
8475,55.0,0,120,3.0,74.0
8476,87.0,120,120,1.0,69.0
8477,79.0,0,240,0.0,70.0
8478,82.0,120,240,0.0,72.0
8479,85.0,120,127,1.0,71.0
8480,58.0,0,120,3.0,78.0
8481,46.0,0,120,3.0,78.0
8482,79.0,120,240,0.0,74.0
8483,87.0,120,120,1.0,73.0
8484,55.0,0,120,3.0,80.0
8485,43.0,0,120,3.0,80.0
8486,82.0,120,240,0.0,76.0
8487,85.0,120,127,1.0,75.0
8488,51.0,0,120,3.0,81.0
8489,39.0,0,120,3.0,81.0
8490,87.0,120,120,1.0,77.0
8491,79.0,120,240,0.0,78.0
8492,85.0,120,120,1.0,79.0
8493,82.0,120,240,0.0,80.0
8494,58.0,0,120,3.0,85.0
8495,46.0,120,120,3.0,85.0
8496,79.0,0,240,0.0,82.0
8497,87.0,120,127,1.0,81.0
8498,55.0,120,120,3.0,87.0
8499,43.0,0,120,3.0,87.0
8500,85.0,120,112,1.0,83.0
8501,82.0,0,240,0.0,84.0
8502,39.0,120,120,3.0,89.0
8503,51.0,0,120,3.0,89.0
8504,79.0,0,240,0.0,86.0
8505,87.0,120,127,1.0,85.0
8506,82.0,120,240,0.0,88.0
8507,85.0,120,127,1.0,87.0
8508,51.0,0,120,3.0,93.0
8509,39.0,0,120,3.0,93.0
8510,79.0,120,240,0.0,90.0
8511,87.0,120,127,1.0,89.0
8512,44.0,120,120,3.0,95.0
8513,84.0,0,120,0.0,91.0
8514,56.0,0,120,3.0,95.0
8515,80.0,0,120,0.0,106.0
8516,79.0,120,120,0.0,97.0
8517,77.0,120,120,0.0,96.0
8518,75.0,120,120,0.0,94.0
8519,73.0,120,120,0.0,93.0
8520,72.0,120,120,0.0,91.0
8521,48.0,0,720,3.0,100.0
8522,36.0,240,720,3.0,100.0
8523,70.0,120,120,0.0,90.0
8524,68.0,120,120,0.0,88.0
8525,67.0,120,120,0.0,87.0
8526,49.0,0,480,3.0,87.0
8527,37.0,0,480,3.0,87.0
8528,65.0,120,120,0.0,85.0
8529,63.0,0,120,0.0,84.0
8530,61.0,120,120,0.0,82.0
8531,60.0,120,120,0.0,80.0
8532,39.0,120,480,3.0,84.0
8533,51.0,0,480,3.0,84.0
8534,58.0,120,120,0.0,79.0
8535,56.0,120,120,0.0,76.0
8536,41.0,0,120,3.0,80.0
8537,53.0,0,120,3.0,80.0
8538,84.0,0,120,0.0,108.0
8539,82.0,120,120,0.0,98.0
8540,80.0,120,80,0.0,97.0
8541,79.0,80,80,0.0,96.0
8542,77.0,80,80,0.0,95.0
8543,75.0,80,80,0.0,94.0
8544,73.0,80,80,0.0,94.0
8545,36.0,240,720,3.0,109.0
8546,48.0,0,720,3.0,109.0
8547,72.0,80,80,0.0,93.0
8548,70.0,0,120,0.0,92.0
8549,68.0,120,120,0.0,91.0
8550,67.0,120,120,0.0,90.0
8551,65.0,120,120,0.0,88.0
8552,37.0,80,480,3.0,91.0
8553,49.0,0,480,3.0,91.0
8554,63.0,0,120,0.0,87.0
8555,61.0,120,120,0.0,86.0
8556,60.0,120,120,0.0,85.0
8557,39.0,0,480,3.0,87.0
8558,51.0,120,480,3.0,87.0
8559,58.0,120,120,0.0,84.0
8560,53.0,0,120,3.0,83.0
8561,41.0,120,120,3.0,83.0
8562,56.0,0,120,0.0,82.0
8563,87.0,240,60,0.0,111.0
8564,85.0,60,60,0.0,106.0
8565,84.0,60,60,0.0,106.0
8566,82.0,60,60,0.0,105.0
8567,80.0,60,90,0.0,104.0
8568,79.0,80,80,0.0,104.0
8569,77.0,80,80,0.0,103.0
8570,75.0,80,80,0.0,102.0
8571,73.0,80,75,0.0,101.0
8572,72.0,80,80,0.0,101.0
8573,36.0,0,720,3.0,115.0
8574,48.0,0,720,3.0,115.0
8575,70.0,80,120,0.0,100.0
8576,68.0,120,120,0.0,99.0
8577,67.0,120,120,0.0,98.0
8578,65.0,120,120,0.0,97.0
8579,49.0,0,480,3.0,95.0
8580,37.0,0,480,3.0,95.0
8581,63.0,120,120,0.0,95.0
8582,61.0,120,120,0.0,94.0
8583,60.0,120,120,0.0,93.0
8584,51.0,0,480,3.0,91.0
8585,58.0,120,120,0.0,92.0
8586,39.0,0,480,3.0,91.0
8587,56.0,0,120,0.0,91.0
8588,80.0,240,232,0.0,49.0
8589,77.0,120,120,1.0,52.0
8590,82.0,120,232,0.0,55.0
8591,74.0,120,120,1.0,58.0
8592,75.0,120,120,1.0,65.0
8593,78.0,120,240,0.0,62.0
8594,80.0,120,232,0.0,68.0
8595,72.0,120,120,1.0,71.0
8596,77.0,120,224,0.0,74.0
8597,73.0,120,120,1.0,77.0
8598,44.0,240,1680,3.0,75.0
8599,70.0,120,120,1.0,81.0
8600,32.0,120,1920,3.0,89.0
8601,75.0,120,120,1.0,75.0
8602,69.0,120,120,1.0,68.0
8603,78.0,120,480,0.0,88.0
8604,73.0,0,120,1.0,61.0
8605,77.0,0,240,0.0,61.0
8606,70.0,120,120,1.0,54.0
8607,70.0,120,120,1.0,55.0
8608,73.0,120,255,0.0,55.0
8609,76.0,120,235,0.0,55.0
8610,67.0,120,120,1.0,55.0
8611,70.0,120,240,0.0,54.0
8612,67.0,120,120,1.0,54.0
8613,64.0,120,120,1.0,54.0
8614,73.0,120,240,0.0,54.0
8615,67.0,120,240,0.0,53.0
8616,64.0,120,120,1.0,53.0
8617,70.0,120,235,0.0,53.0
8618,61.0,120,120,1.0,53.0
8619,44.0,120,1680,3.0,75.0
8620,32.0,0,1920,3.0,103.0
8621,68.0,120,235,0.0,52.0
8622,63.0,120,120,1.0,52.0
8623,72.0,0,235,0.0,52.0
8624,60.0,120,120,1.0,52.0
8625,68.0,120,235,0.0,54.0
8626,65.0,120,120,1.0,57.0
8627,70.0,120,235,0.0,59.0
8628,62.0,120,120,1.0,61.0
8629,66.0,120,240,0.0,63.0
8630,63.0,120,120,1.0,66.0
8631,60.0,120,120,1.0,70.0
8632,68.0,120,240,0.0,68.0
8633,65.0,120,240,0.0,72.0
8634,61.0,120,120,1.0,75.0
8635,44.0,120,1680,3.0,60.0
8636,58.0,120,120,1.0,79.0
8637,32.0,0,0,3.0,98.0
8638,63.0,120,120,1.0,73.0
8639,57.0,120,120,1.0,67.0
8640,66.0,120,480,0.0,85.0
8641,61.0,0,120,1.0,62.0
8642,58.0,120,120,1.0,56.0
8643,65.0,120,240,0.0,62.0
8644,61.0,120,235,0.0,50.0
8645,58.0,120,120,1.0,49.0
8646,64.0,120,235,0.0,49.0
8647,55.0,120,120,1.0,49.0
8648,55.0,120,120,1.0,48.0
8649,58.0,120,250,0.0,48.0
8650,61.0,120,235,0.0,48.0
8651,52.0,120,120,1.0,47.0
8652,55.0,120,235,0.0,47.0
8653,52.0,120,120,1.0,47.0
8654,58.0,120,235,0.0,46.0
8655,49.0,120,120,1.0,46.0
8656,44.0,0,1680,3.0,60.0
8657,56.0,120,235,0.0,46.0
8658,51.0,120,120,1.0,45.0
8659,60.0,120,235,0.0,45.0
8660,48.0,120,120,1.0,45.0
8661,58.0,120,120,1.0,44.0
8662,61.0,0,235,0.0,44.0
8663,55.0,0,120,1.0,43.0
8664,64.0,240,235,0.0,44.0
8665,55.0,120,120,1.0,43.0
8666,58.0,240,245,0.0,43.0
8667,61.0,120,235,0.0,43.0
8668,52.0,120,120,1.0,42.0
8669,55.0,120,235,0.0,42.0
8670,52.0,120,120,1.0,42.0
8671,58.0,120,235,0.0,41.0
8672,32.0,0,1920,3.0,52.0
8673,49.0,120,120,1.0,41.0
8674,44.0,0,1680,3.0,52.0
8675,56.0,120,235,0.0,41.0
8676,48.0,120,120,1.0,40.0
8677,60.0,0,235,0.0,40.0
8678,48.0,120,120,1.0,40.0
8679,61.0,120,235,0.0,39.0
8680,58.0,120,120,1.0,39.0
8681,64.0,120,235,0.0,39.0
8682,55.0,120,120,1.0,38.0
8683,58.0,120,235,0.0,38.0
8684,55.0,120,120,1.0,38.0
8685,61.0,120,235,0.0,37.0
8686,52.0,120,120,1.0,37.0
8687,55.0,120,235,0.0,37.0
8688,52.0,120,120,1.0,36.0
8689,58.0,120,235,0.0,36.0
8690,49.0,120,120,1.0,36.0
8691,32.0,0,0,3.0,39.0
8692,44.0,0,0,3.0,39.0
8693,56.0,120,235,0.0,35.0
8694,51.0,120,120,1.0,35.0
8695,60.0,120,235,0.0,35.0
8696,48.0,120,120,1.0,34.0
8697,48.0,120,120,1.0,34.0
8698,51.0,120,260,0.0,34.0
8699,56.0,120,235,0.0,33.0
8700,44.0,120,120,1.0,33.0
8701,48.0,120,235,0.0,33.0
8702,44.0,120,120,1.0,32.0
8703,51.0,120,235,0.0,32.0
8704,39.0,120,120,1.0,32.0
8705,39.0,120,120,1.0,31.0
8706,44.0,120,250,0.0,31.0
8707,48.0,120,235,0.0,31.0
8708,36.0,120,120,1.0,30.0
8709,44.0,120,960,3.0,34.0
8710,32.0,0,1920,3.0,34.0
