tick,type,time,meta,track,numerator,denominator,clocks_per_click,notated_32nd_notes_per_beat,key,tempo,control,value,channel,program,pitch,note,velocity
0,track_name,0,1,0,,,,,,,,,,,,,
0,program_change,0,0,3,,,,,,,,,2,0,,,
0,control_change,0,0,3,,,,,,,7,112,2,,,,
0,pitchwheel,0,0,3,,,,,,,,,2,,0,,
0,control_change,0,0,3,,,,,,,1,0,2,,,,
0,control_change,0,0,3,,,,,,,64,0,2,,,,
0,control_change,0,0,3,,,,,,,93,28,2,,,,
0,control_change,0,0,3,,,,,,,91,91,2,,,,
0,control_change,0,0,3,,,,,,,10,64,2,,,,
0,control_change,0,0,3,,,,,,,32,0,2,,,,
0,control_change,0,0,1,,,,,,,0,0,0,,,,
0,control_change,0,0,4,,,,,,,0,0,4,,,,
0,control_change,0,0,4,,,,,,,32,0,4,,,,
0,program_change,0,0,4,,,,,,,,,4,0,,,
0,control_change,0,0,4,,,,,,,10,55,4,,,,
0,control_change,0,0,4,,,,,,,91,91,4,,,,
0,control_change,0,0,4,,,,,,,93,28,4,,,,
0,control_change,0,0,4,,,,,,,64,0,4,,,,
0,control_change,0,0,4,,,,,,,1,0,4,,,,
0,track_name,0,1,4,,,,,,,,,,,,,
0,control_change,0,0,3,,,,,,,0,0,2,,,,
0,track_name,0,1,3,,,,,,,,,,,,,
0,control_change,0,0,2,,,,,,,10,64,1,,,,
0,control_change,0,0,1,,,,,,,32,0,0,,,,
0,control_change,0,0,1,,,,,,,7,127,0,,,,
0,control_change,0,0,1,,,,,,,1,0,0,,,,
0,control_change,0,0,1,,,,,,,64,0,0,,,,
0,control_change,0,0,1,,,,,,,93,28,0,,,,
0,control_change,0,0,1,,,,,,,91,91,0,,,,
0,control_change,0,0,1,,,,,,,10,73,0,,,,
0,program_change,0,0,1,,,,,,,,,0,0,,,
0,pitchwheel,0,0,1,,,,,,,,,0,,0,,
0,track_name,0,1,2,,,,,,,,,,,,,
0,control_change,0,0,2,,,,,,,0,0,1,,,,
0,control_change,0,0,2,,,,,,,32,0,1,,,,
0,program_change,0,0,2,,,,,,,,,1,0,,,
0,control_change,0,0,2,,,,,,,7,117,1,,,,
0,pitchwheel,0,0,2,,,,,,,,,1,,0,,
0,control_change,0,0,2,,,,,,,1,0,1,,,,
0,control_change,0,0,2,,,,,,,64,0,1,,,,
0,control_change,0,0,2,,,,,,,93,28,1,,,,
0,control_change,0,0,2,,,,,,,91,91,1,,,,
0,pitchwheel,0,0,4,,,,,,,,,4,,0,,
0,control_change,0,0,4,,,,,,,7,122,4,,,,
0,track_name,0,1,1,,,,,,,,,,,,,
0,time_signature,0,1,0,3,4,24,8,,,,,,,,,
0,key_signature,0,1,0,,,,,C,,,,,,,,
0,set_tempo,0,1,0,,,,,,600000,,,,,,,
0,marker,0,1,0,,,,,,,,,,,,,
1440,set_tempo,1440,1,0,,,,,,1071428,,,,,,,
1440,marker,0,1,0,,,,,,,,,,,,,
1440,note_on,1440,0,2,,,,,,,,,1,,,68,47
1440,note_on,1440,0,4,,,,,,,,,4,,,44,45
1440,note_on,1440,0,1,,,,,,,,,0,,,72,47
1440,note_on,1440,0,3,,,,,,,,,2,,,51,45
2160,note_off,720,0,2,,,,,,,,,1,,,68,0
2160,note_on,0,0,3,,,,,,,,,2,,,51,42
2160,note_off,720,0,3,,,,,,,,,2,,,51,0
2160,note_on,0,0,4,,,,,,,,,4,,,48,42
2160,note_off,720,0,1,,,,,,,,,0,,,72,0
2160,note_on,0,0,1,,,,,,,,,0,,,68,45
2160,note_off,720,0,4,,,,,,,,,4,,,44,0
2160,note_on,0,0,2,,,,,,,,,1,,,63,45
2400,note_off,240,0,4,,,,,,,,,4,,,48,0
2400,note_on,0,0,4,,,,,,,,,4,,,48,41
2400,note_off,240,0,3,,,,,,,,,2,,,51,0
2400,note_on,0,0,2,,,,,,,,,1,,,63,44
2400,note_off,240,0,2,,,,,,,,,1,,,63,0
2400,note_on,0,0,3,,,,,,,,,2,,,51,41
2400,note_off,240,0,1,,,,,,,,,0,,,68,0
2400,note_on,0,0,1,,,,,,,,,0,,,68,44
2760,note_off,360,0,1,,,,,,,,,0,,,68,0
2760,note_off,360,0,2,,,,,,,,,1,,,63,0
2760,set_tempo,1320,1,0,,,,,,1111111,,,,,,,
2760,note_on,0,0,2,,,,,,,,,1,,,63,43
2760,note_on,0,0,3,,,,,,,,,2,,,51,40
2760,note_off,360,0,3,,,,,,,,,2,,,51,0
2760,note_on,0,0,4,,,,,,,,,4,,,48,40
2760,note_on,0,0,1,,,,,,,,,0,,,68,43
2760,note_off,360,0,4,,,,,,,,,4,,,48,0
2880,note_off,120,0,2,,,,,,,,,1,,,63,0
2880,note_on,0,0,4,,,,,,,,,4,,,46,44
2880,note_off,120,0,4,,,,,,,,,4,,,48,0
2880,note_on,0,0,1,,,,,,,,,0,,,73,45
2880,note_off,120,0,3,,,,,,,,,2,,,51,0
2880,note_on,0,0,2,,,,,,,,,1,,,67,45
2880,marker,0,1,0,,,,,,,,,,,,,
2880,set_tempo,120,1,0,,,,,,1071428,,,,,,,
2880,note_on,0,0,3,,,,,,,,,2,,,51,44
2880,note_off,120,0,1,,,,,,,,,0,,,68,0
3360,note_off,480,0,4,,,,,,,,,4,,,46,0
3360,note_on,0,0,4,,,,,,,,,4,,,49,40
3360,note_off,480,0,3,,,,,,,,,2,,,51,0
3360,note_on,0,0,2,,,,,,,,,1,,,67,40
3360,note_off,480,0,1,,,,,,,,,0,,,73,0
3360,note_off,480,0,2,,,,,,,,,1,,,67,0
3360,note_on,0,0,3,,,,,,,,,2,,,51,40
3360,note_on,0,0,1,,,,,,,,,0,,,70,40
3590,set_tempo,710,1,0,,,,,,1111111,,,,,,,
4200,note_off,840,0,1,,,,,,,,,0,,,70,0
4207,note_off,847,0,2,,,,,,,,,1,,,67,0
4207,note_off,847,0,4,,,,,,,,,4,,,49,0
4207,note_off,847,0,3,,,,,,,,,2,,,51,0
4320,note_on,113,0,2,,,,,,,,,1,,,68,46
4320,note_on,120,0,1,,,,,,,,,0,,,75,46
4320,note_on,113,0,3,,,,,,,,,2,,,51,40
4320,note_on,113,0,4,,,,,,,,,4,,,48,40
4320,marker,0,1,0,,,,,,,,,,,,,
4320,set_tempo,730,1,0,,,,,,1071428,,,,,,,
4560,note_on,0,0,3,,,,,,,,,2,,,56,41
4560,note_off,240,0,3,,,,,,,,,2,,,51,0
4800,note_off,240,0,3,,,,,,,,,2,,,56,0
4800,note_on,0,0,3,,,,,,,,,2,,,60,42
5040,note_on,0,0,2,,,,,,,,,1,,,68,46
5040,note_off,720,0,2,,,,,,,,,1,,,68,0
5040,note_off,240,0,3,,,,,,,,,2,,,60,0
5040,note_off,720,0,4,,,,,,,,,4,,,48,0
5040,note_on,0,0,4,,,,,,,,,4,,,53,40
5040,note_off,720,0,1,,,,,,,,,0,,,75,0
5040,note_on,0,0,1,,,,,,,,,0,,,73,46
5040,note_on,0,0,3,,,,,,,,,2,,,58,40
5232,note_off,192,0,4,,,,,,,,,4,,,53,0
5232,note_off,192,0,2,,,,,,,,,1,,,68,0
5232,note_off,192,0,1,,,,,,,,,0,,,73,0
5232,note_off,192,0,3,,,,,,,,,2,,,58,0
5280,note_on,48,0,2,,,,,,,,,1,,,68,48
5280,note_on,48,0,4,,,,,,,,,4,,,51,43
5280,note_on,48,0,1,,,,,,,,,0,,,75,48
5280,note_on,48,0,3,,,,,,,,,2,,,60,43
5472,note_off,192,0,1,,,,,,,,,0,,,75,0
5472,note_off,192,0,4,,,,,,,,,4,,,51,0
5472,note_off,192,0,2,,,,,,,,,1,,,68,0
5472,note_off,192,0,3,,,,,,,,,2,,,60,0
5520,note_on,48,0,3,,,,,,,,,2,,,61,46
5520,note_on,48,0,1,,,,,,,,,0,,,77,51
5520,note_on,48,0,2,,,,,,,,,1,,,68,51
5520,note_on,48,0,4,,,,,,,,,4,,,49,46
5580,set_tempo,1260,1,0,,,,,,1111111,,,,,,,
5712,note_off,192,0,3,,,,,,,,,2,,,61,0
5712,note_off,192,0,2,,,,,,,,,1,,,68,0
5712,note_off,192,0,4,,,,,,,,,4,,,49,0
5712,note_off,192,0,1,,,,,,,,,0,,,77,0
5760,set_tempo,180,1,0,,,,,,1071428,,,,,,,
5760,note_on,48,0,3,,,,,,,,,2,,,58,49
5760,note_on,48,0,2,,,,,,,,,1,,,67,48
5760,note_on,48,0,4,,,,,,,,,4,,,51,49
5760,note_on,48,0,1,,,,,,,,,0,,,75,48
5760,marker,0,1,0,,,,,,,,,,,,,
6120,note_off,360,0,1,,,,,,,,,0,,,75,0
6120,note_on,0,0,1,,,,,,,,,0,,,74,53
6120,set_tempo,360,1,0,,,,,,1176470,,,,,,,
6240,note_on,0,0,2,,,,,,,,,1,,,67,49
6240,note_off,480,0,2,,,,,,,,,1,,,67,0
6240,note_on,0,0,1,,,,,,,,,0,,,73,49
6240,note_off,120,0,1,,,,,,,,,0,,,74,0
6240,set_tempo,120,1,0,,,,,,1132075,,,,,,,
6240,note_off,480,0,4,,,,,,,,,4,,,51,0
6240,note_on,0,0,4,,,,,,,,,4,,,51,44
6240,note_off,480,0,3,,,,,,,,,2,,,58,0
6240,note_on,0,0,3,,,,,,,,,2,,,58,44
6280,note_on,40,0,1,,,,,,,,,0,,,75,45
6300,set_tempo,60,1,0,,,,,,1111111,,,,,,,
6300,note_off,20,0,1,,,,,,,,,0,,,73,0
6320,note_on,20,0,1,,,,,,,,,0,,,73,45
6340,note_off,20,0,1,,,,,,,,,0,,,75,0
6360,note_on,20,0,1,,,,,,,,,0,,,75,45
6380,note_off,20,0,1,,,,,,,,,0,,,73,0
6400,note_on,20,0,1,,,,,,,,,0,,,73,45
6420,note_off,20,0,1,,,,,,,,,0,,,75,0
6440,note_on,20,0,1,,,,,,,,,0,,,75,44
6460,note_off,20,0,1,,,,,,,,,0,,,73,0
6480,note_on,20,0,1,,,,,,,,,0,,,73,44
6500,note_off,20,0,1,,,,,,,,,0,,,75,0
6520,note_on,20,0,1,,,,,,,,,0,,,75,44
6540,note_off,20,0,1,,,,,,,,,0,,,73,0
6560,note_on,20,0,1,,,,,,,,,0,,,73,43
6580,note_off,20,0,1,,,,,,,,,0,,,75,0
6600,note_on,20,0,1,,,,,,,,,0,,,75,43
6620,note_off,20,0,1,,,,,,,,,0,,,73,0
6640,note_on,20,0,1,,,,,,,,,0,,,73,43
6660,note_off,20,0,1,,,,,,,,,0,,,75,0
6680,note_on,20,0,1,,,,,,,,,0,,,75,42
6700,note_off,20,0,1,,,,,,,,,0,,,73,0
6720,note_on,20,0,1,,,,,,,,,0,,,73,42
6740,note_off,20,0,1,,,,,,,,,0,,,75,0
6760,note_on,20,0,1,,,,,,,,,0,,,75,42
6780,note_off,20,0,1,,,,,,,,,0,,,73,0
6800,note_on,20,0,1,,,,,,,,,0,,,73,41
6820,note_off,20,0,1,,,,,,,,,0,,,75,0
6840,note_on,20,0,1,,,,,,,,,0,,,75,41
6860,note_off,20,0,1,,,,,,,,,0,,,73,0
6880,note_on,20,0,1,,,,,,,,,0,,,73,41
6900,note_off,20,0,1,,,,,,,,,0,,,75,0
6920,note_on,20,0,1,,,,,,,,,0,,,75,40
6940,note_off,20,0,1,,,,,,,,,0,,,73,0
6960,note_on,20,0,1,,,,,,,,,0,,,73,40
6980,note_off,20,0,1,,,,,,,,,0,,,75,0
7000,note_on,20,0,1,,,,,,,,,0,,,75,40
7020,note_off,20,0,1,,,,,,,,,0,,,73,0
7040,note_on,20,0,1,,,,,,,,,0,,,73,39
7060,note_off,20,0,1,,,,,,,,,0,,,75,0
7080,note_on,20,0,1,,,,,,,,,0,,,75,39
7100,note_off,20,0,1,,,,,,,,,0,,,73,0
7120,note_on,20,0,1,,,,,,,,,0,,,73,39
7140,note_off,20,0,1,,,,,,,,,0,,,75,0
7160,note_on,20,0,1,,,,,,,,,0,,,75,38
7180,note_off,20,0,1,,,,,,,,,0,,,73,0
7200,marker,900,1,0,,,,,,,,,,,,,
7200,note_on,20,0,1,,,,,,,,,0,,,73,38
7220,note_off,20,0,1,,,,,,,,,0,,,75,0
7240,note_on,20,0,1,,,,,,,,,0,,,75,38
7260,set_tempo,60,1,0,,,,,,1132075,,,,,,,
7265,note_off,25,0,1,,,,,,,,,0,,,73,0
7280,note_on,15,0,1,,,,,,,,,0,,,73,39
7295,note_off,15,0,1,,,,,,,,,0,,,75,0
7320,set_tempo,60,1,0,,,,,,1111111,,,,,,,
7320,note_on,25,0,1,,,,,,,,,0,,,72,40
7340,note_off,20,0,1,,,,,,,,,0,,,73,0
7380,note_off,40,0,1,,,,,,,,,0,,,72,0
7380,note_on,0,0,1,,,,,,,,,0,,,73,42
7440,set_tempo,120,1,0,,,,,,1132075,,,,,,,
7440,note_on,0,0,1,,,,,,,,,0,,,75,44
7440,note_off,60,0,1,,,,,,,,,0,,,73,0
7500,note_on,0,0,1,,,,,,,,,0,,,77,47
7500,note_off,60,0,1,,,,,,,,,0,,,75,0
8010,set_tempo,570,1,0,,,,,,379746,,,,,,,
8160,set_tempo,150,1,0,,,,,,571428,,,,,,,
8160,note_off,660,0,1,,,,,,,,,0,,,77,0
8160,note_on,0,0,1,,,,,,,,,0,,,75,44
8400,set_tempo,240,1,0,,,,,,722891,,,,,,,
8400,note_off,240,0,1,,,,,,,,,0,,,75,0
8400,note_on,0,0,1,,,,,,,,,0,,,73,42
8625,note_off,2385,0,4,,,,,,,,,4,,,51,0
8632,note_off,2392,0,3,,,,,,,,,2,,,58,0
8640,note_off,2400,0,2,,,,,,,,,1,,,67,0
8640,note_on,15,0,4,,,,,,,,,4,,,56,30
8640,note_on,0,0,1,,,,,,,,,0,,,72,42
8640,set_tempo,240,1,0,,,,,,1071428,,,,,,,
8640,marker,0,1,0,,,,,,,,,,,,,
8640,note_off,240,0,1,,,,,,,,,0,,,73,0
8760,note_on,0,0,3,,,,,,,,,2,,,63,28
8760,note_on,128,0,3,,,,,,,,,2,,,60,28
8880,note_off,120,0,3,,,,,,,,,2,,,63,0
8880,note_off,0,0,3,,,,,,,,,2,,,60,0
8880,note_on,0,0,3,,,,,,,,,2,,,60,28
8880,note_on,0,0,3,,,,,,,,,2,,,63,28
9000,note_off,120,0,3,,,,,,,,,2,,,63,0
9000,note_off,0,0,3,,,,,,,,,2,,,60,0
9000,note_on,0,0,3,,,,,,,,,2,,,60,28
9000,note_on,0,0,3,,,,,,,,,2,,,63,28
9120,note_off,120,0,3,,,,,,,,,2,,,63,0
9120,note_off,0,0,3,,,,,,,,,2,,,60,0
9120,note_off,480,0,4,,,,,,,,,4,,,56,0
9120,note_on,0,0,4,,,,,,,,,4,,,56,30
9240,note_on,120,0,3,,,,,,,,,2,,,63,29
9240,note_on,0,0,3,,,,,,,,,2,,,60,29
9360,note_on,0,0,3,,,,,,,,,2,,,60,29
9360,note_on,0,0,3,,,,,,,,,2,,,63,29
9360,note_off,0,0,3,,,,,,,,,2,,,63,0
9360,note_off,720,0,1,,,,,,,,,0,,,72,0
9360,note_on,0,0,1,,,,,,,,,0,,,75,43
9360,note_off,120,0,3,,,,,,,,,2,,,60,0
9480,note_on,0,0,3,,,,,,,,,2,,,63,29
9480,note_on,0,0,3,,,,,,,,,2,,,60,29
9480,note_off,0,0,3,,,,,,,,,2,,,60,0
9480,note_off,120,0,3,,,,,,,,,2,,,63,0
9600,note_off,0,0,3,,,,,,,,,2,,,60,0
9600,note_off,120,0,3,,,,,,,,,2,,,63,0
9600,note_off,480,0,4,,,,,,,,,4,,,56,0
9600,note_on,0,0,4,,,,,,,,,4,,,56,31
9720,note_on,0,0,3,,,,,,,,,2,,,60,30
9720,note_on,120,0,3,,,,,,,,,2,,,63,30
9840,note_on,0,0,3,,,,,,,,,2,,,60,30
9840,note_off,0,0,3,,,,,,,,,2,,,63,0
9840,note_off,480,0,1,,,,,,,,,0,,,75,0
9840,note_on,0,0,1,,,,,,,,,0,,,80,44
9840,note_on,0,0,3,,,,,,,,,2,,,63,30
9840,note_off,120,0,3,,,,,,,,,2,,,60,0
9960,note_on,0,0,3,,,,,,,,,2,,,63,30
9960,note_on,0,0,3,,,,,,,,,2,,,60,30
9960,note_off,120,0,3,,,,,,,,,2,,,63,0
9960,set_tempo,1320,1,0,,,,,,1111111,,,,,,,
9960,note_off,0,0,3,,,,,,,,,2,,,60,0
10080,note_off,0,0,3,,,,,,,,,2,,,60,0
10080,note_on,0,0,4,,,,,,,,,4,,,58,32
10080,note_off,120,0,3,,,,,,,,,2,,,63,0
10080,set_tempo,120,1,0,,,,,,1071428,,,,,,,
10080,note_off,240,0,1,,,,,,,,,0,,,80,0
10080,note_on,0,0,1,,,,,,,,,0,,,80,48
10080,note_off,480,0,4,,,,,,,,,4,,,56,0
10200,note_on,0,0,3,,,,,,,,,2,,,63,31
10200,note_on,120,0,3,,,,,,,,,2,,,61,31
10320,note_on,0,0,3,,,,,,,,,2,,,61,31
10320,note_on,0,0,3,,,,,,,,,2,,,63,31
10320,note_off,0,0,3,,,,,,,,,2,,,61,0
10320,note_off,120,0,3,,,,,,,,,2,,,63,0
10440,note_off,0,0,3,,,,,,,,,2,,,63,0
10440,note_off,120,0,3,,,,,,,,,2,,,61,0
10440,note_on,0,0,3,,,,,,,,,2,,,63,31
10440,note_on,0,0,3,,,,,,,,,2,,,61,31
10560,note_off,120,0,3,,,,,,,,,2,,,61,0
10560,note_off,0,0,3,,,,,,,,,2,,,63,0
10560,note_on,0,0,1,,,,,,,,,0,,,79,45
10560,note_off,480,0,1,,,,,,,,,0,,,80,0
10560,note_off,480,0,4,,,,,,,,,4,,,58,0
10560,note_on,0,0,4,,,,,,,,,4,,,58,33
10680,note_on,120,0,3,,,,,,,,,2,,,61,32
10680,note_on,0,0,3,,,,,,,,,2,,,63,32
10800,note_off,0,0,3,,,,,,,,,2,,,61,0
10800,note_on,0,0,3,,,,,,,,,2,,,61,32
10800,note_on,0,0,3,,,,,,,,,2,,,63,32
10800,note_off,120,0,3,,,,,,,,,2,,,63,0
10920,note_off,120,0,3,,,,,,,,,2,,,61,0
10920,note_off,0,0,3,,,,,,,,,2,,,63,0
10920,note_on,0,0,3,,,,,,,,,2,,,61,32
10920,note_on,0,0,3,,,,,,,,,2,,,63,32
11040,note_on,0,0,4,,,,,,,,,4,,,58,34
11040,note_off,480,0,4,,,,,,,,,4,,,58,0
11040,note_off,120,0,3,,,,,,,,,2,,,63,0
11040,note_off,0,0,3,,,,,,,,,2,,,61,0
11160,note_on,120,0,3,,,,,,,,,2,,,61,33
11160,note_on,0,0,3,,,,,,,,,2,,,63,33
11280,note_off,120,0,3,,,,,,,,,2,,,63,0
11280,note_on,0,0,3,,,,,,,,,2,,,61,33
11280,note_off,0,0,3,,,,,,,,,2,,,61,0
11280,note_on,0,0,3,,,,,,,,,2,,,63,33
11340,set_tempo,1260,1,0,,,,,,1111111,,,,,,,
11400,note_off,0,0,3,,,,,,,,,2,,,61,0
11400,note_off,120,0,3,,,,,,,,,2,,,63,0
11400,set_tempo,60,1,0,,,,,,1132075,,,,,,,
11400,note_on,0,0,3,,,,,,,,,2,,,63,33
11400,note_on,0,0,3,,,,,,,,,2,,,61,33
11520,note_off,120,0,3,,,,,,,,,2,,,63,0
11520,note_off,0,0,3,,,,,,,,,2,,,61,0
11520,note_on,0,0,1,,,,,,,,,0,,,82,47
11520,note_on,0,0,4,,,,,,,,,4,,,61,35
11520,note_off,960,0,1,,,,,,,,,0,,,79,0
11520,set_tempo,120,1,0,,,,,,1071428,,,,,,,
11520,note_off,480,0,4,,,,,,,,,4,,,58,0
11640,note_on,120,0,3,,,,,,,,,2,,,67,33
11640,note_on,0,0,3,,,,,,,,,2,,,63,33
11640,note_on,0,0,3,,,,,,,,,2,,,70,33
11760,note_on,0,0,3,,,,,,,,,2,,,67,33
11760,note_on,0,0,3,,,,,,,,,2,,,70,33
11760,note_off,0,0,3,,,,,,,,,2,,,67,0
11760,note_off,120,0,3,,,,,,,,,2,,,70,0
11760,note_on,0,0,3,,,,,,,,,2,,,63,33
11760,note_off,0,0,3,,,,,,,,,2,,,63,0
11880,note_on,0,0,3,,,,,,,,,2,,,63,32
11880,note_off,120,0,3,,,,,,,,,2,,,63,0
11880,note_off,0,0,3,,,,,,,,,2,,,70,0
11880,note_off,0,0,3,,,,,,,,,2,,,67,0
11880,note_on,0,0,3,,,,,,,,,2,,,67,32
11880,note_on,0,0,3,,,,,,,,,2,,,70,32
12000,note_off,120,0,3,,,,,,,,,2,,,63,0
12000,note_off,0,0,3,,,,,,,,,2,,,70,0
12000,note_off,0,0,3,,,,,,,,,2,,,67,0
12000,note_on,0,0,4,,,,,,,,,4,,,61,34
12000,note_off,480,0,4,,,,,,,,,4,,,61,0
12120,note_on,0,0,3,,,,,,,,,2,,,63,32
12120,note_on,120,0,3,,,,,,,,,2,,,67,32
12120,note_on,0,0,3,,,,,,,,,2,,,70,32
12240,note_off,120,0,3,,,,,,,,,2,,,63,0
12240,note_off,0,0,3,,,,,,,,,2,,,70,0
12240,note_off,0,0,3,,,,,,,,,2,,,67,0
12240,note_on,0,0,3,,,,,,,,,2,,,67,32
12240,note_on,0,0,3,,,,,,,,,2,,,63,32
12240,note_on,0,0,3,,,,,,,,,2,,,70,32
12240,note_on,0,0,1,,,,,,,,,0,,,79,45
12240,note_off,720,0,1,,,,,,,,,0,,,82,0
12360,note_on,0,0,3,,,,,,,,,2,,,70,31
12360,note_on,0,0,3,,,,,,,,,2,,,63,31
12360,note_off,120,0,3,,,,,,,,,2,,,70,0
12360,note_off,0,0,3,,,,,,,,,2,,,63,0
12360,note_off,0,0,3,,,,,,,,,2,,,67,0
12360,note_on,0,0,3,,,,,,,,,2,,,67,31
12480,note_off,120,0,3,,,,,,,,,2,,,70,0
12480,note_off,0,0,3,,,,,,,,,2,,,63,0
12480,note_off,0,0,3,,,,,,,,,2,,,67,0
12480,note_on,0,0,4,,,,,,,,,4,,,61,34
12480,note_off,480,0,4,,,,,,,,,4,,,61,0
12600,note_on,120,0,3,,,,,,,,,2,,,67,31
12600,note_on,0,0,3,,,,,,,,,2,,,70,31
12600,note_on,0,0,3,,,,,,,,,2,,,63,31
12720,note_on,0,0,3,,,,,,,,,2,,,67,30
12720,note_on,0,0,3,,,,,,,,,2,,,63,30
12720,note_off,480,0,1,,,,,,,,,0,,,79,0
12720,note_off,0,0,3,,,,,,,,,2,,,67,0
12720,note_off,0,0,3,,,,,,,,,2,,,70,0
12720,note_off,120,0,3,,,,,,,,,2,,,63,0
12720,note_on,0,0,3,,,,,,,,,2,,,70,30
12720,note_on,0,0,1,,,,,,,,,0,,,75,44
12840,set_tempo,1320,1,0,,,,,,1111111,,,,,,,
12840,note_on,0,0,3,,,,,,,,,2,,,70,30
12840,note_on,0,0,3,,,,,,,,,2,,,63,30
12840,note_on,0,0,3,,,,,,,,,2,,,67,30
12840,note_off,0,0,3,,,,,,,,,2,,,67,0
12840,note_off,0,0,3,,,,,,,,,2,,,63,0
12840,note_off,120,0,3,,,,,,,,,2,,,70,0
12960,note_off,0,0,3,,,,,,,,,2,,,67,0
12960,note_on,0,0,1,,,,,,,,,0,,,75,46
12960,note_off,240,0,1,,,,,,,,,0,,,75,0
12960,note_off,0,0,3,,,,,,,,,2,,,63,0
12960,note_off,120,0,3,,,,,,,,,2,,,70,0
12960,set_tempo,120,1,0,,,,,,1071428,,,,,,,
12960,note_on,0,0,4,,,,,,,,,4,,,60,33
12960,note_off,480,0,4,,,,,,,,,4,,,61,0
13080,note_on,120,0,3,,,,,,,,,2,,,63,30
13080,note_on,0,0,3,,,,,,,,,2,,,68,30
13200,note_on,0,0,3,,,,,,,,,2,,,68,29
13200,note_off,120,0,3,,,,,,,,,2,,,68,0
13200,note_off,0,0,3,,,,,,,,,2,,,63,0
13200,note_on,0,0,3,,,,,,,,,2,,,63,29
13320,note_on,0,0,3,,,,,,,,,2,,,68,29
13320,note_on,0,0,3,,,,,,,,,2,,,63,29
13320,note_off,120,0,3,,,,,,,,,2,,,63,0
13320,note_off,0,0,3,,,,,,,,,2,,,68,0
13440,note_off,120,0,3,,,,,,,,,2,,,63,0
13440,note_on,0,0,1,,,,,,,,,0,,,80,42
13440,note_off,480,0,4,,,,,,,,,4,,,60,0
13440,note_on,0,0,4,,,,,,,,,4,,,60,32
13440,note_off,480,0,1,,,,,,,,,0,,,75,0
13440,note_off,0,0,3,,,,,,,,,2,,,68,0
13560,note_on,120,0,3,,,,,,,,,2,,,68,28
13560,note_on,0,0,3,,,,,,,,,2,,,63,28
13680,note_off,120,0,3,,,,,,,,,2,,,63,0
13680,note_off,0,0,3,,,,,,,,,2,,,68,0
13680,note_on,0,0,3,,,,,,,,,2,,,63,28
13680,note_on,0,0,3,,,,,,,,,2,,,68,28
13800,note_off,120,0,3,,,,,,,,,2,,,68,0
13800,note_off,0,0,3,,,,,,,,,2,,,63,0
13800,note_on,0,0,3,,,,,,,,,2,,,63,28
13800,note_on,0,0,3,,,,,,,,,2,,,68,28
13920,note_off,120,0,3,,,,,,,,,2,,,68,0
13920,note_off,0,0,3,,,,,,,,,2,,,63,0
13920,note_on,0,0,4,,,,,,,,,4,,,60,31
13920,note_off,480,0,4,,,,,,,,,4,,,60,0
14040,note_on,120,0,3,,,,,,,,,2,,,63,26
14040,note_on,0,0,3,,,,,,,,,2,,,68,26
14160,note_on,0,0,3,,,,,,,,,2,,,68,26
14160,note_on,0,0,3,,,,,,,,,2,,,63,26
14160,note_off,120,0,3,,,,,,,,,2,,,68,0
14160,note_off,0,0,3,,,,,,,,,2,,,63,0
14227,set_tempo,1267,1,0,,,,,,1111111,,,,,,,
14280,note_off,0,0,3,,,,,,,,,2,,,63,0
14280,note_off,120,0,3,,,,,,,,,2,,,68,0
14280,note_on,0,0,3,,,,,,,,,2,,,63,27
14280,set_tempo,53,1,0,,,,,,1132075,,,,,,,
14280,note_on,0,0,3,,,,,,,,,2,,,68,27
14400,note_off,120,0,3,,,,,,,,,2,,,63,0
14400,note_off,960,0,1,,,,,,,,,0,,,80,0
14400,note_on,0,0,1,,,,,,,,,0,,,80,46
14400,note_on,0,0,4,,,,,,,,,4,,,66,30
14400,note_off,0,0,3,,,,,,,,,2,,,68,0
14400,set_tempo,120,1,0,,,,,,1071428,,,,,,,
14400,note_off,480,0,4,,,,,,,,,4,,,60,0
14520,note_on,0,0,3,,,,,,,,,2,,,68,28
14520,note_on,0,0,3,,,,,,,,,2,,,75,28
14520,note_on,120,0,3,,,,,,,,,2,,,72,28
14640,note_off,120,0,3,,,,,,,,,2,,,68,0
14640,note_on,0,0,3,,,,,,,,,2,,,75,28
14640,note_on,0,0,3,,,,,,,,,2,,,68,28
14640,note_on,0,0,3,,,,,,,,,2,,,72,28
14640,note_off,0,0,3,,,,,,,,,2,,,72,0
14640,note_off,0,0,3,,,,,,,,,2,,,75,0
14760,note_on,0,0,3,,,,,,,,,2,,,68,29
14760,note_on,0,0,3,,,,,,,,,2,,,72,29
14760,note_off,0,0,3,,,,,,,,,2,,,72,0
14760,note_off,120,0,3,,,,,,,,,2,,,75,0
14760,note_on,0,0,3,,,,,,,,,2,,,75,29
14760,note_off,0,0,3,,,,,,,,,2,,,68,0
14880,note_off,480,0,4,,,,,,,,,4,,,66,0
14880,note_on,0,0,4,,,,,,,,,4,,,66,32
14880,note_off,120,0,3,,,,,,,,,2,,,75,0
14880,note_off,0,0,3,,,,,,,,,2,,,68,0
14880,note_off,0,0,3,,,,,,,,,2,,,72,0
15000,note_on,120,0,3,,,,,,,,,2,,,72,30
15000,note_on,0,0,3,,,,,,,,,2,,,75,30
15000,note_on,0,0,3,,,,,,,,,2,,,68,30
15120,note_on,0,0,3,,,,,,,,,2,,,72,30
15120,note_off,720,0,1,,,,,,,,,0,,,80,0
15120,note_on,0,0,1,,,,,,,,,0,,,84,50
15120,note_on,0,0,3,,,,,,,,,2,,,68,30
15120,note_on,0,0,3,,,,,,,,,2,,,75,30
15120,note_off,0,0,3,,,,,,,,,2,,,72,0
15120,note_off,0,0,3,,,,,,,,,2,,,75,0
15120,note_off,120,0,3,,,,,,,,,2,,,68,0
15240,note_off,120,0,3,,,,,,,,,2,,,68,0
15240,note_off,0,0,3,,,,,,,,,2,,,75,0
15240,note_off,0,0,3,,,,,,,,,2,,,72,0
15240,note_on,0,0,3,,,,,,,,,2,,,72,31
15240,note_on,0,0,3,,,,,,,,,2,,,68,31
15240,note_on,0,0,3,,,,,,,,,2,,,75,31
15360,note_off,120,0,3,,,,,,,,,2,,,75,0
15360,note_on,0,0,4,,,,,,,,,4,,,66,35
15360,note_off,0,0,3,,,,,,,,,2,,,72,0
15360,note_off,480,0,4,,,,,,,,,4,,,66,0
15360,note_off,0,0,3,,,,,,,,,2,,,68,0
15480,note_on,120,0,3,,,,,,,,,2,,,72,32
15480,note_on,0,0,3,,,,,,,,,2,,,68,32
15480,note_on,0,0,3,,,,,,,,,2,,,75,32
15600,note_on,0,0,1,,,,,,,,,0,,,87,57
15600,note_off,480,0,1,,,,,,,,,0,,,84,0
15600,note_on,0,0,3,,,,,,,,,2,,,72,32
15600,note_on,0,0,3,,,,,,,,,2,,,68,32
15600,note_off,0,0,3,,,,,,,,,2,,,75,0
15600,note_off,120,0,3,,,,,,,,,2,,,68,0
15600,note_off,0,0,3,,,,,,,,,2,,,72,0
15600,note_on,0,0,3,,,,,,,,,2,,,75,32
15720,note_off,120,0,3,,,,,,,,,2,,,68,0
15720,note_off,0,0,3,,,,,,,,,2,,,75,0
15720,note_off,0,0,3,,,,,,,,,2,,,72,0
15720,note_on,0,0,3,,,,,,,,,2,,,72,33
15720,note_on,0,0,3,,,,,,,,,2,,,68,33
15720,note_on,0,0,3,,,,,,,,,2,,,75,33
15720,set_tempo,1320,1,0,,,,,,1111111,,,,,,,
15840,note_on,0,0,4,,,,,,,,,4,,,65,37
15840,set_tempo,120,1,0,,,,,,1071428,,,,,,,
15840,note_off,0,0,3,,,,,,,,,2,,,68,0
15840,note_off,240,0,1,,,,,,,,,0,,,87,0
15840,note_on,0,0,1,,,,,,,,,0,,,87,63
15840,note_off,120,0,3,,,,,,,,,2,,,75,0
15840,note_off,480,0,4,,,,,,,,,4,,,66,0
15840,note_off,0,0,3,,,,,,,,,2,,,72,0
15960,note_on,120,0,3,,,,,,,,,2,,,73,34
15960,note_on,0,0,3,,,,,,,,,2,,,68,34
16080,note_off,120,0,3,,,,,,,,,2,,,68,0
16080,note_off,0,0,3,,,,,,,,,2,,,73,0
16080,note_on,0,0,3,,,,,,,,,2,,,73,35
16080,note_on,0,0,3,,,,,,,,,2,,,68,35
16200,note_on,0,0,3,,,,,,,,,2,,,68,35
16200,note_off,120,0,3,,,,,,,,,2,,,68,0
16200,note_off,0,0,3,,,,,,,,,2,,,73,0
16200,note_on,0,0,3,,,,,,,,,2,,,73,35
16320,note_off,480,0,4,,,,,,,,,4,,,65,0
16320,note_off,120,0,3,,,,,,,,,2,,,68,0
16320,note_on,0,0,4,,,,,,,,,4,,,65,39
16320,note_off,0,0,3,,,,,,,,,2,,,73,0
16440,note_on,120,0,3,,,,,,,,,2,,,73,36
16440,note_on,0,0,3,,,,,,,,,2,,,68,36
16560,note_off,120,0,3,,,,,,,,,2,,,68,0
16560,note_off,720,0,1,,,,,,,,,0,,,87,0
16560,note_on,0,0,1,,,,,,,,,0,,,85,58
16560,note_on,0,0,3,,,,,,,,,2,,,68,37
16560,note_on,0,0,3,,,,,,,,,2,,,73,37
16560,note_off,0,0,3,,,,,,,,,2,,,73,0
16680,note_on,0,0,3,,,,,,,,,2,,,73,37
16680,note_off,0,0,3,,,,,,,,,2,,,73,0
16680,note_off,120,0,3,,,,,,,,,2,,,68,0
16680,note_on,0,0,3,,,,,,,,,2,,,68,37
16752,note_off,192,0,1,,,,,,,,,0,,,85,0
16800,note_off,0,0,3,,,,,,,,,2,,,73,0
16800,note_on,48,0,1,,,,,,,,,0,,,87,61
16800,note_off,120,0,3,,,,,,,,,2,,,68,0
16800,note_on,0,0,4,,,,,,,,,4,,,63,41
16800,note_off,480,0,4,,,,,,,,,4,,,65,0
16920,note_on,120,0,3,,,,,,,,,2,,,72,38
16920,note_on,0,0,3,,,,,,,,,2,,,68,38
16992,note_off,192,0,1,,,,,,,,,0,,,87,0
17040,note_on,0,0,4,,,,,,,,,4,,,61,42
17040,note_off,240,0,4,,,,,,,,,4,,,63,0
17040,note_on,48,0,1,,,,,,,,,0,,,89,65
17040,note_off,120,0,3,,,,,,,,,2,,,68,0
17040,note_off,0,0,3,,,,,,,,,2,,,72,0
17160,note_on,120,0,3,,,,,,,,,2,,,70,39
17160,note_on,0,0,3,,,,,,,,,2,,,68,39
17170,set_tempo,1330,1,0,,,,,,1176470,,,,,,,
17232,note_off,192,0,1,,,,,,,,,0,,,89,0
17280,note_on,0,0,4,,,,,,,,,4,,,63,47
17280,note_off,240,0,4,,,,,,,,,4,,,61,0
17280,note_off,0,0,3,,,,,,,,,2,,,70,0
17280,note_off,120,0,3,,,,,,,,,2,,,68,0
17280,note_on,48,0,1,,,,,,,,,0,,,89,74
17330,set_tempo,160,1,0,,,,,,1071428,,,,,,,
17400,note_on,0,0,3,,,,,,,,,2,,,68,37
17400,note_on,120,0,3,,,,,,,,,2,,,72,37
17472,note_off,192,0,1,,,,,,,,,0,,,89,0
17520,note_on,0,0,3,,,,,,,,,2,,,68,36
17520,note_on,0,0,3,,,,,,,,,2,,,72,36
17520,note_off,0,0,3,,,,,,,,,2,,,72,0
17520,note_off,120,0,3,,,,,,,,,2,,,68,0
17520,note_on,48,0,1,,,,,,,,,0,,,87,64
17640,note_off,0,0,3,,,,,,,,,2,,,72,0
17640,note_off,120,0,3,,,,,,,,,2,,,68,0
17640,note_on,0,0,3,,,,,,,,,2,,,68,35
17640,note_on,0,0,3,,,,,,,,,2,,,72,35
17760,note_on,0,0,4,,,,,,,,,4,,,63,42
17760,note_off,120,0,3,,,,,,,,,2,,,68,0
17760,note_off,480,0,4,,,,,,,,,4,,,63,0
17760,note_off,0,0,3,,,,,,,,,2,,,72,0
17880,note_on,120,0,3,,,,,,,,,2,,,72,33
17880,note_on,0,0,3,,,,,,,,,2,,,68,33
18000,note_off,120,0,3,,,,,,,,,2,,,68,0
18000,note_off,480,0,1,,,,,,,,,0,,,87,0
18000,note_off,0,0,3,,,,,,,,,2,,,72,0
18000,note_on,0,0,3,,,,,,,,,2,,,72,32
18000,note_on,0,0,1,,,,,,,,,0,,,85,55
18000,note_on,0,0,3,,,,,,,,,2,,,68,32
18096,note_off,96,0,1,,,,,,,,,0,,,85,0
18120,note_off,120,0,3,,,,,,,,,2,,,68,0
18120,note_off,0,0,3,,,,,,,,,2,,,72,0
18120,note_on,0,0,3,,,,,,,,,2,,,72,30
18120,note_on,24,0,1,,,,,,,,,0,,,84,53
18120,note_on,0,0,3,,,,,,,,,2,,,68,30
18216,note_off,96,0,1,,,,,,,,,0,,,84,0
18240,note_off,480,0,4,,,,,,,,,4,,,63,0
18240,note_on,24,0,1,,,,,,,,,0,,,87,51
18240,note_off,120,0,3,,,,,,,,,2,,,68,0
18240,note_off,0,0,3,,,,,,,,,2,,,72,0
18240,note_on,0,0,4,,,,,,,,,4,,,63,37
18336,note_off,96,0,1,,,,,,,,,0,,,87,0
18360,note_on,24,0,1,,,,,,,,,0,,,85,48
18360,note_on,0,0,3,,,,,,,,,2,,,73,28
18360,note_on,120,0,3,,,,,,,,,2,,,70,28
18456,note_off,96,0,1,,,,,,,,,0,,,85,0
18480,note_off,120,0,3,,,,,,,,,2,,,73,0
18480,note_off,0,0,3,,,,,,,,,2,,,70,0
18480,note_on,0,0,3,,,,,,,,,2,,,73,27
18480,note_on,0,0,3,,,,,,,,,2,,,70,27
18480,note_on,24,0,1,,,,,,,,,0,,,79,46
18560,set_tempo,1230,1,0,,,,,,1111111,,,,,,,
18600,note_off,120,0,3,,,,,,,,,2,,,70,0
18600,note_off,0,0,3,,,,,,,,,2,,,73,0
18600,note_on,0,0,3,,,,,,,,,2,,,70,26
18600,note_on,0,0,3,,,,,,,,,2,,,73,26
18600,set_tempo,40,1,0,,,,,,1132075,,,,,,,
18672,note_off,192,0,1,,,,,,,,,0,,,79,0
18720,note_off,0,0,3,,,,,,,,,2,,,70,0
18720,note_on,48,0,1,,,,,,,,,0,,,80,49
18720,set_tempo,120,1,0,,,,,,1071428,,,,,,,
18720,note_on,0,0,4,,,,,,,,,4,,,68,33
18720,note_on,0,0,3,,,,,,,,,2,,,72,25
18720,note_off,120,0,3,,,,,,,,,2,,,73,0
18720,note_off,480,0,4,,,,,,,,,4,,,63,0
18780,note_off,60,0,1,,,,,,,,,0,,,80,0
18780,note_on,10140,0,2,,,,,,,,,1,,,87,41
18840,note_on,0,0,2,,,,,,,,,1,,,84,41
18840,note_off,60,0,2,,,,,,,,,1,,,87,0
18900,note_off,60,0,2,,,,,,,,,1,,,84,0
18900,note_on,0,0,2,,,,,,,,,1,,,87,41
18960,note_off,60,0,2,,,,,,,,,1,,,87,0
18960,note_on,180,0,1,,,,,,,,,0,,,92,49
18960,note_off,240,0,3,,,,,,,,,2,,,72,0
18960,note_off,240,0,4,,,,,,,,,4,,,68,0
19020,note_off,60,0,1,,,,,,,,,0,,,92,0
19020,note_on,60,0,2,,,,,,,,,1,,,87,41
19080,note_off,60,0,2,,,,,,,,,1,,,87,0
19080,note_on,0,0,2,,,,,,,,,1,,,84,41
19140,note_on,0,0,2,,,,,,,,,1,,,87,41
19140,note_off,60,0,2,,,,,,,,,1,,,84,0
19200,note_off,60,0,2,,,,,,,,,1,,,87,0
19200,note_on,180,0,1,,,,,,,,,0,,,80,48
19260,note_on,60,0,2,,,,,,,,,1,,,75,41
19260,note_off,60,0,1,,,,,,,,,0,,,80,0
19320,note_off,60,0,2,,,,,,,,,1,,,75,0
19320,note_on,0,0,2,,,,,,,,,1,,,72,41
19380,note_off,60,0,2,,,,,,,,,1,,,72,0
19380,note_on,0,0,2,,,,,,,,,1,,,75,41
19440,note_on,180,0,1,,,,,,,,,0,,,68,47
19440,note_off,60,0,2,,,,,,,,,1,,,75,0
19500,note_on,60,0,2,,,,,,,,,1,,,63,41
19500,note_off,60,0,1,,,,,,,,,0,,,68,0
19560,note_off,60,0,2,,,,,,,,,1,,,63,0
19560,note_on,0,0,2,,,,,,,,,1,,,60,41
19620,note_off,60,0,2,,,,,,,,,1,,,60,0
19620,note_on,0,0,2,,,,,,,,,1,,,63,41
19680,note_on,180,0,1,,,,,,,,,0,,,56,47
19680,note_off,60,0,2,,,,,,,,,1,,,63,0
19740,note_off,60,0,1,,,,,,,,,0,,,56,0
19740,note_on,60,0,2,,,,,,,,,1,,,51,41
19800,note_on,0,0,2,,,,,,,,,1,,,48,41
19800,note_off,60,0,2,,,,,,,,,1,,,51,0
19860,note_on,0,0,2,,,,,,,,,1,,,51,41
19860,note_off,60,0,2,,,,,,,,,1,,,48,0
19920,note_off,60,0,2,,,,,,,,,1,,,51,0
19920,note_on,180,0,1,,,,,,,,,0,,,44,46
19980,note_on,60,0,2,,,,,,,,,1,,,51,40
19980,note_off,60,0,1,,,,,,,,,0,,,44,0
20040,note_off,60,0,2,,,,,,,,,1,,,51,0
20040,note_on,0,0,2,,,,,,,,,1,,,48,40
20040,set_tempo,1320,1,0,,,,,,1111111,,,,,,,
20100,note_off,60,0,2,,,,,,,,,1,,,48,0
20100,note_on,0,0,2,,,,,,,,,1,,,51,40
20160,note_off,60,0,2,,,,,,,,,1,,,51,0
20160,set_tempo,120,1,0,,,,,,1071428,,,,,,,
20160,note_on,1200,0,4,,,,,,,,,4,,,34,36
20160,note_on,0,0,4,,,,,,,,,4,,,46,36
20160,note_on,1200,0,3,,,,,,,,,2,,,39,36
20160,note_on,180,0,1,,,,,,,,,0,,,43,46
20220,note_on,60,0,2,,,,,,,,,1,,,51,40
20220,note_off,60,0,1,,,,,,,,,0,,,43,0
20280,note_off,60,0,2,,,,,,,,,1,,,51,0
20280,note_on,0,0,2,,,,,,,,,1,,,49,40
20340,note_on,0,0,2,,,,,,,,,1,,,51,40
20340,note_off,60,0,2,,,,,,,,,1,,,49,0
20400,note_off,60,0,2,,,,,,,,,1,,,51,0
20400,note_on,180,0,1,,,,,,,,,0,,,55,45
20400,note_off,240,0,4,,,,,,,,,4,,,46,0
20400,note_off,0,0,4,,,,,,,,,4,,,34,0
20400,note_off,240,0,3,,,,,,,,,2,,,39,0
20460,note_on,60,0,2,,,,,,,,,1,,,51,40
20460,note_off,60,0,1,,,,,,,,,0,,,55,0
20520,note_on,0,0,2,,,,,,,,,1,,,49,40
20520,note_off,60,0,2,,,,,,,,,1,,,51,0
20580,note_off,60,0,2,,,,,,,,,1,,,49,0
20580,note_on,0,0,2,,,,,,,,,1,,,51,40
20640,note_on,180,0,1,,,,,,,,,0,,,55,45
20640,note_off,60,0,2,,,,,,,,,1,,,51,0
20640,note_on,240,0,3,,,,,,,,,2,,,39,36
20640,note_on,240,0,4,,,,,,,,,4,,,46,36
20640,note_on,0,0,4,,,,,,,,,4,,,34,36
20700,note_on,60,0,2,,,,,,,,,1,,,63,40
20700,note_off,60,0,1,,,,,,,,,0,,,55,0
20760,note_off,60,0,2,,,,,,,,,1,,,63,0
20760,note_on,0,0,2,,,,,,,,,1,,,61,40
20820,note_on,0,0,2,,,,,,,,,1,,,63,40
20820,note_off,60,0,2,,,,,,,,,1,,,61,0
20880,note_on,180,0,1,,,,,,,,,0,,,67,45
20880,note_off,60,0,2,,,,,,,,,1,,,63,0
20880,note_off,240,0,3,,,,,,,,,2,,,39,0
20880,note_off,240,0,4,,,,,,,,,4,,,34,0
20880,note_off,0,0,4,,,,,,,,,4,,,46,0
20940,note_off,60,0,1,,,,,,,,,0,,,67,0
20940,note_on,60,0,2,,,,,,,,,1,,,63,40
21000,note_off,60,0,2,,,,,,,,,1,,,63,0
21000,note_on,0,0,2,,,,,,,,,1,,,61,40
21060,note_on,0,0,2,,,,,,,,,1,,,63,40
21060,note_off,60,0,2,,,,,,,,,1,,,61,0
21120,note_off,60,0,2,,,,,,,,,1,,,63,0
21120,note_on,0,0,4,,,,,,,,,4,,,46,36
21120,note_on,240,0,4,,,,,,,,,4,,,34,36
21120,note_on,180,0,1,,,,,,,,,0,,,67,44
21120,note_on,240,0,3,,,,,,,,,2,,,39,36
21180,note_on,60,0,2,,,,,,,,,1,,,75,39
21180,note_off,60,0,1,,,,,,,,,0,,,67,0
21240,note_on,0,0,2,,,,,,,,,1,,,73,39
21240,note_off,60,0,2,,,,,,,,,1,,,75,0
21300,note_on,0,0,2,,,,,,,,,1,,,75,39
21300,note_off,60,0,2,,,,,,,,,1,,,73,0
21360,note_off,60,0,2,,,,,,,,,1,,,75,0
21360,note_off,240,0,3,,,,,,,,,2,,,39,0
21360,note_on,180,0,1,,,,,,,,,0,,,79,44
21360,note_off,0,0,4,,,,,,,,,4,,,34,0
21360,note_off,240,0,4,,,,,,,,,4,,,46,0
21420,note_on,60,0,2,,,,,,,,,1,,,75,39
21420,note_off,60,0,1,,,,,,,,,0,,,79,0
21480,note_on,0,0,2,,,,,,,,,1,,,73,39
21480,set_tempo,1320,1,0,,,,,,1111111,,,,,,,
21480,note_off,60,0,2,,,,,,,,,1,,,75,0
21540,note_off,60,0,2,,,,,,,,,1,,,73,0
21540,note_on,0,0,2,,,,,,,,,1,,,75,39
21600,note_on,0,0,4,,,,,,,,,4,,,36,35
21600,note_on,240,0,4,,,,,,,,,4,,,48,35
21600,note_on,240,0,3,,,,,,,,,2,,,39,35
21600,note_on,180,0,1,,,,,,,,,0,,,80,44
21600,set_tempo,120,1,0,,,,,,1071428,,,,,,,
21600,note_off,60,0,2,,,,,,,,,1,,,75,0
21660,note_off,60,0,1,,,,,,,,,0,,,80,0
21660,note_on,60,0,2,,,,,,,,,1,,,87,39
21720,note_off,60,0,2,,,,,,,,,1,,,87,0
21720,note_on,0,0,2,,,,,,,,,1,,,84,39
21780,note_on,0,0,2,,,,,,,,,1,,,87,39
21780,note_off,60,0,2,,,,,,,,,1,,,84,0
21840,note_off,0,0,4,,,,,,,,,4,,,48,0
21840,note_off,60,0,2,,,,,,,,,1,,,87,0
21840,note_off,240,0,3,,,,,,,,,2,,,39,0
21840,note_on,180,0,1,,,,,,,,,0,,,92,45
21840,note_off,240,0,4,,,,,,,,,4,,,36,0
21900,note_on,60,0,2,,,,,,,,,1,,,87,39
21900,note_off,60,0,1,,,,,,,,,0,,,92,0
21960,note_on,0,0,2,,,,,,,,,1,,,84,39
21960,note_off,60,0,2,,,,,,,,,1,,,87,0
22020,note_on,0,0,2,,,,,,,,,1,,,87,39
22020,note_off,60,0,2,,,,,,,,,1,,,84,0
22080,note_off,60,0,2,,,,,,,,,1,,,87,0
22080,note_on,180,0,1,,,,,,,,,0,,,80,44
22140,note_on,60,0,2,,,,,,,,,1,,,75,39
22140,note_off,60,0,1,,,,,,,,,0,,,80,0
22200,note_off,60,0,2,,,,,,,,,1,,,75,0
22200,note_on,0,0,2,,,,,,,,,1,,,72,39
22260,note_off,60,0,2,,,,,,,,,1,,,72,0
22260,note_on,0,0,2,,,,,,,,,1,,,75,39
22320,note_on,180,0,1,,,,,,,,,0,,,68,43
22320,note_off,60,0,2,,,,,,,,,1,,,75,0
22380,note_off,60,0,1,,,,,,,,,0,,,68,0
22380,note_on,60,0,2,,,,,,,,,1,,,63,38
22440,note_off,60,0,2,,,,,,,,,1,,,63,0
22440,note_on,0,0,2,,,,,,,,,1,,,60,38
22500,note_off,60,0,2,,,,,,,,,1,,,60,0
22500,note_on,0,0,2,,,,,,,,,1,,,63,38
22560,note_off,60,0,2,,,,,,,,,1,,,63,0
22560,note_on,180,0,1,,,,,,,,,0,,,56,42
22620,note_on,60,0,2,,,,,,,,,1,,,51,38
22620,note_off,60,0,1,,,,,,,,,0,,,56,0
22680,note_on,0,0,2,,,,,,,,,1,,,48,38
22680,note_off,60,0,2,,,,,,,,,1,,,51,0
22740,note_on,0,0,2,,,,,,,,,1,,,51,38
22740,note_off,60,0,2,,,,,,,,,1,,,48,0
22800,note_off,60,0,2,,,,,,,,,1,,,51,0
22800,note_on,180,0,1,,,,,,,,,0,,,44,41
22860,note_on,60,0,2,,,,,,,,,1,,,51,38
22860,note_off,60,0,1,,,,,,,,,0,,,44,0
22920,set_tempo,1320,1,0,,,,,,1111111,,,,,,,
22920,note_off,60,0,2,,,,,,,,,1,,,51,0
22920,note_on,0,0,2,,,,,,,,,1,,,48,38
22980,note_on,0,0,2,,,,,,,,,1,,,51,38
22980,note_off,60,0,2,,,,,,,,,1,,,48,0
23040,note_on,180,0,1,,,,,,,,,0,,,46,40
23040,set_tempo,120,1,0,,,,,,1071428,,,,,,,
23040,note_on,1200,0,3,,,,,,,,,2,,,39,34
23040,note_on,1200,0,4,,,,,,,,,4,,,31,34
23040,note_on,0,0,4,,,,,,,,,4,,,43,34
23040,note_off,60,0,2,,,,,,,,,1,,,51,0
23100,note_off,60,0,1,,,,,,,,,0,,,46,0
23100,note_on,60,0,2,,,,,,,,,1,,,51,38
23160,note_off,60,0,2,,,,,,,,,1,,,51,0
23160,note_on,0,0,2,,,,,,,,,1,,,49,38
23220,note_off,60,0,2,,,,,,,,,1,,,49,0
23220,note_on,0,0,2,,,,,,,,,1,,,51,38
23280,note_off,240,0,3,,,,,,,,,2,,,39,0
23280,note_on,180,0,1,,,,,,,,,0,,,58,41
23280,note_off,240,0,4,,,,,,,,,4,,,43,0
23280,note_off,0,0,4,,,,,,,,,4,,,31,0
23280,note_off,60,0,2,,,,,,,,,1,,,51,0
23340,note_off,60,0,1,,,,,,,,,0,,,58,0
23340,note_on,60,0,2,,,,,,,,,1,,,51,38
23400,note_off,60,0,2,,,,,,,,,1,,,51,0
23400,note_on,0,0,2,,,,,,,,,1,,,49,38
23460,note_off,60,0,2,,,,,,,,,1,,,49,0
23460,note_on,0,0,2,,,,,,,,,1,,,51,38
23520,note_on,180,0,1,,,,,,,,,0,,,58,41
23520,note_on,240,0,3,,,,,,,,,2,,,39,33
23520,note_off,60,0,2,,,,,,,,,1,,,51,0
23520,note_on,240,0,4,,,,,,,,,4,,,31,33
23520,note_on,0,0,4,,,,,,,,,4,,,43,33
23580,note_off,60,0,1,,,,,,,,,0,,,58,0
23580,note_on,60,0,2,,,,,,,,,1,,,63,37
23640,note_on,0,0,2,,,,,,,,,1,,,61,37
23640,note_off,60,0,2,,,,,,,,,1,,,63,0
23700,note_on,0,0,2,,,,,,,,,1,,,63,37
23700,note_off,60,0,2,,,,,,,,,1,,,61,0
23760,note_off,240,0,4,,,,,,,,,4,,,43,0
23760,note_off,0,0,4,,,,,,,,,4,,,31,0
23760,note_off,240,0,3,,,,,,,,,2,,,39,0
23760,note_off,60,0,2,,,,,,,,,1,,,63,0
23760,note_on,180,0,1,,,,,,,,,0,,,70,41
23820,note_off,60,0,1,,,,,,,,,0,,,70,0
23820,note_on,60,0,2,,,,,,,,,1,,,63,37
23880,note_off,60,0,2,,,,,,,,,1,,,63,0
23880,note_on,0,0,2,,,,,,,,,1,,,61,37
23940,note_off,60,0,2,,,,,,,,,1,,,61,0
23940,note_on,0,0,2,,,,,,,,,1,,,63,37
24000,note_on,180,0,1,,,,,,,,,0,,,70,40
24000,note_on,240,0,3,,,,,,,,,2,,,39,33
24000,note_on,0,0,4,,,,,,,,,4,,,31,33
24000,note_off,60,0,2,,,,,,,,,1,,,63,0
24000,note_on,240,0,4,,,,,,,,,4,,,43,33
24060,note_off,60,0,1,,,,,,,,,0,,,70,0
24060,note_on,60,0,2,,,,,,,,,1,,,75,37
24120,note_on,0,0,2,,,,,,,,,1,,,73,37
24120,note_off,60,0,2,,,,,,,,,1,,,75,0
24180,note_on,0,0,2,,,,,,,,,1,,,75,37
24180,note_off,60,0,2,,,,,,,,,1,,,73,0
24240,note_on,180,0,1,,,,,,,,,0,,,82,40
24240,note_off,0,0,4,,,,,,,,,4,,,43,0
24240,note_off,240,0,3,,,,,,,,,2,,,39,0
24240,note_off,240,0,4,,,,,,,,,4,,,31,0
24240,note_off,60,0,2,,,,,,,,,1,,,75,0
24300,note_off,60,0,1,,,,,,,,,0,,,82,0
24300,note_on,60,0,2,,,,,,,,,1,,,75,37
24360,set_tempo,1320,1,0,,,,,,1111111,,,,,,,
24360,note_off,60,0,2,,,,,,,,,1,,,75,0
24360,note_on,0,0,2,,,,,,,,,1,,,73,37
24420,note_on,0,0,2,,,,,,,,,1,,,75,37
24420,note_off,60,0,2,,,,,,,,,1,,,73,0
24480,set_tempo,120,1,0,,,,,,1071428,,,,,,,
24480,note_on,180,0,1,,,,,,,,,0,,,72,40
24480,note_on,240,0,4,,,,,,,,,4,,,32,32
24480,note_on,240,0,3,,,,,,,,,2,,,39,32
24480,note_off,60,0,2,,,,,,,,,1,,,75,0
24480,note_on,0,0,4,,,,,,,,,4,,,44,32
24540,note_off,60,0,1,,,,,,,,,0,,,72,0
24540,note_on,60,0,2,,,,,,,,,1,,,80,37
24600,note_on,0,0,2,,,,,,,,,1,,,75,37
24600,note_off,60,0,2,,,,,,,,,1,,,80,0
24660,note_on,0,0,2,,,,,,,,,1,,,80,37
24660,note_off,60,0,2,,,,,,,,,1,,,75,0
24720,note_off,240,0,4,,,,,,,,,4,,,44,0
24720,note_off,240,0,3,,,,,,,,,2,,,39,0
24720,note_on,180,0,1,,,,,,,,,0,,,84,41
24720,note_off,0,0,4,,,,,,,,,4,,,32,0
24720,note_off,60,0,2,,,,,,,,,1,,,80,0
24780,note_off,60,0,1,,,,,,,,,0,,,84,0
24780,note_on,60,0,2,,,,,,,,,1,,,80,36
24840,note_off,60,0,2,,,,,,,,,1,,,80,0
24840,note_on,0,0,2,,,,,,,,,1,,,75,36
24900,note_off,60,0,2,,,,,,,,,1,,,75,0
24900,note_on,0,0,2,,,,,,,,,1,,,80,36
24960,note_off,60,0,2,,,,,,,,,1,,,80,0
24960,note_on,180,0,1,,,,,,,,,0,,,72,41
25020,note_off,60,0,1,,,,,,,,,0,,,72,0
25020,note_on,60,0,2,,,,,,,,,1,,,68,36
25080,note_off,60,0,2,,,,,,,,,1,,,68,0
25080,note_on,0,0,2,,,,,,,,,1,,,63,36
25140,note_off,60,0,2,,,,,,,,,1,,,63,0
25140,note_on,0,0,2,,,,,,,,,1,,,68,36
25200,note_off,60,0,2,,,,,,,,,1,,,68,0
25200,note_on,180,0,1,,,,,,,,,0,,,60,40
25260,note_on,60,0,2,,,,,,,,,1,,,56,36
25260,note_off,60,0,1,,,,,,,,,0,,,60,0
25320,note_off,60,0,2,,,,,,,,,1,,,56,0
25320,note_on,0,0,2,,,,,,,,,1,,,51,36
25380,note_off,60,0,2,,,,,,,,,1,,,51,0
25380,note_on,0,0,2,,,,,,,,,1,,,56,36
25440,note_on,180,0,1,,,,,,,,,0,,,48,39
25440,note_off,60,0,2,,,,,,,,,1,,,56,0
25500,note_off,60,0,1,,,,,,,,,0,,,48,0
25500,note_on,60,0,2,,,,,,,,,1,,,56,36
25560,note_off,60,0,2,,,,,,,,,1,,,56,0
25560,note_on,0,0,2,,,,,,,,,1,,,51,36
25620,note_on,0,0,2,,,,,,,,,1,,,56,36
25620,note_off,60,0,2,,,,,,,,,1,,,51,0
25680,note_off,60,0,2,,,,,,,,,1,,,56,0
25680,note_on,180,0,1,,,,,,,,,0,,,60,39
25740,note_off,60,0,1,,,,,,,,,0,,,60,0
25740,note_on,60,0,2,,,,,,,,,1,,,56,36
25800,set_tempo,1320,1,0,,,,,,1111111,,,,,,,
25800,note_on,0,0,2,,,,,,,,,1,,,51,36
25800,note_off,60,0,2,,,,,,,,,1,,,56,0
25860,note_on,0,0,2,,,,,,,,,1,,,56,36
25860,note_off,60,0,2,,,,,,,,,1,,,51,0
25920,note_on,180,0,1,,,,,,,,,0,,,50,40
25920,set_tempo,120,1,0,,,,,,1071428,,,,,,,
25920,note_on,0,0,4,,,,,,,,,4,,,29,29
25920,note_on,1200,0,4,,,,,,,,,4,,,41,29
25920,note_off,60,0,2,,,,,,,,,1,,,56,0
25980,note_on,60,0,2,,,,,,,,,1,,,58,36
25980,note_off,60,0,1,,,,,,,,,0,,,50,0
26040,note_off,60,0,2,,,,,,,,,1,,,58,0
26040,note_on,0,0,2,,,,,,,,,1,,,56,36
26100,note_off,60,0,2,,,,,,,,,1,,,56,0
26100,note_on,0,0,2,,,,,,,,,1,,,58,36
26160,note_off,240,0,4,,,,,,,,,4,,,29,0
26160,note_on,180,0,1,,,,,,,,,0,,,62,41
26160,note_off,60,0,2,,,,,,,,,1,,,58,0
26160,note_off,0,0,4,,,,,,,,,4,,,41,0
26220,note_on,60,0,2,,,,,,,,,1,,,58,36
26220,note_off,60,0,1,,,,,,,,,0,,,62,0
26280,note_off,60,0,2,,,,,,,,,1,,,58,0
26280,note_on,0,0,2,,,,,,,,,1,,,56,37
26340,note_on,0,0,2,,,,,,,,,1,,,58,37
26340,note_off,60,0,2,,,,,,,,,1,,,56,0
26400,note_on,1680,0,3,,,,,,,,,2,,,46,31
26400,note_on,180,0,1,,,,,,,,,0,,,62,42
26400,note_on,0,0,4,,,,,,,,,4,,,41,31
26400,note_on,240,0,4,,,,,,,,,4,,,53,31
26400,note_off,60,0,2,,,,,,,,,1,,,58,0
26460,note_on,60,0,2,,,,,,,,,1,,,70,37
26460,note_off,60,0,1,,,,,,,,,0,,,62,0
26520,note_off,60,0,2,,,,,,,,,1,,,70,0
26520,note_on,0,0,2,,,,,,,,,1,,,68,37
26580,note_off,60,0,2,,,,,,,,,1,,,68,0
26580,note_on,0,0,2,,,,,,,,,1,,,70,37
26640,note_off,240,0,4,,,,,,,,,4,,,41,0
26640,note_off,60,0,2,,,,,,,,,1,,,70,0
26640,note_off,240,0,3,,,,,,,,,2,,,46,0
26640,note_on,180,0,1,,,,,,,,,0,,,74,42
26640,note_off,0,0,4,,,,,,,,,4,,,53,0
26700,note_off,60,0,1,,,,,,,,,0,,,74,0
26700,note_on,60,0,2,,,,,,,,,1,,,70,37
26760,note_off,60,0,2,,,,,,,,,1,,,70,0
26760,note_on,0,0,2,,,,,,,,,1,,,68,38
26820,note_on,0,0,2,,,,,,,,,1,,,70,38
26820,note_off,60,0,2,,,,,,,,,1,,,68,0
26880,note_on,180,0,1,,,,,,,,,0,,,75,43
26880,note_on,240,0,3,,,,,,,,,2,,,46,32
26880,note_on,0,0,4,,,,,,,,,4,,,39,32
26880,note_on,240,0,4,,,,,,,,,4,,,51,32
26880,note_off,60,0,2,,,,,,,,,1,,,70,0
26940,note_on,60,0,2,,,,,,,,,1,,,82,38
26940,note_off,60,0,1,,,,,,,,,0,,,75,0
27000,note_off,60,0,2,,,,,,,,,1,,,82,0
27000,note_on,0,0,2,,,,,,,,,1,,,79,38
27060,note_off,60,0,2,,,,,,,,,1,,,79,0
27060,note_on,0,0,2,,,,,,,,,1,,,82,38
27120,note_off,240,0,4,,,,,,,,,4,,,39,0
27120,note_off,0,0,4,,,,,,,,,4,,,51,0
27120,note_off,240,0,3,,,,,,,,,2,,,46,0
27120,note_on,180,0,1,,,,,,,,,0,,,87,44
27120,note_off,60,0,2,,,,,,,,,1,,,82,0
27180,note_off,60,0,1,,,,,,,,,0,,,87,0
27180,note_on,60,0,2,,,,,,,,,1,,,82,39
27240,note_on,0,0,2,,,,,,,,,1,,,79,39
27240,set_tempo,1320,1,0,,,,,,1111111,,,,,,,
27240,note_off,60,0,2,,,,,,,,,1,,,82,0
27300,note_on,0,0,2,,,,,,,,,1,,,82,39
27300,note_off,60,0,2,,,,,,,,,1,,,79,0
27360,note_off,60,0,2,,,,,,,,,1,,,82,0
27360,note_on,180,0,1,,,,,,,,,0,,,77,45
27360,set_tempo,120,1,0,,,,,,1071428,,,,,,,
27360,note_on,0,0,4,,,,,,,,,4,,,50,34
27360,note_on,240,0,3,,,,,,,,,2,,,46,34
27360,note_on,240,0,4,,,,,,,,,4,,,38,34
27420,note_off,60,0,1,,,,,,,,,0,,,77,0
27420,note_on,60,0,2,,,,,,,,,1,,,82,39
27480,note_on,0,0,2,,,,,,,,,1,,,80,39
27480,note_off,60,0,2,,,,,,,,,1,,,82,0
27540,note_on,0,0,2,,,,,,,,,1,,,82,39
27540,note_off,60,0,2,,,,,,,,,1,,,80,0
27600,note_off,0,0,4,,,,,,,,,4,,,38,0
27600,note_off,60,0,2,,,,,,,,,1,,,82,0
27600,note_on,180,0,1,,,,,,,,,0,,,89,45
27600,note_off,240,0,3,,,,,,,,,2,,,46,0
27600,note_off,240,0,4,,,,,,,,,4,,,50,0
27660,note_on,60,0,2,,,,,,,,,1,,,82,40
27660,note_off,60,0,1,,,,,,,,,0,,,89,0
27720,note_on,0,0,2,,,,,,,,,1,,,80,40
27720,note_off,60,0,2,,,,,,,,,1,,,82,0
27780,note_off,60,0,2,,,,,,,,,1,,,80,0
27780,note_on,0,0,2,,,,,,,,,1,,,82,40
27840,note_on,180,0,1,,,,,,,,,0,,,77,46
27840,note_off,60,0,2,,,,,,,,,1,,,82,0
27840,note_on,240,0,4,,,,,,,,,4,,,62,36
27840,note_on,240,0,3,,,,,,,,,2,,,58,36
27840,note_on,0,0,4,,,,,,,,,4,,,50,36
27900,note_off,60,0,1,,,,,,,,,0,,,77,0
27900,note_on,60,0,2,,,,,,,,,1,,,82,40
27960,note_off,60,0,2,,,,,,,,,1,,,82,0
27960,note_on,0,0,2,,,,,,,,,1,,,80,40
28020,note_off,60,0,2,,,,,,,,,1,,,80,0
28020,note_on,0,0,2,,,,,,,,,1,,,82,40
28080,note_on,180,0,1,,,,,,,,,0,,,89,47
28080,note_off,0,0,4,,,,,,,,,4,,,62,0
28080,note_off,240,0,4,,,,,,,,,4,,,50,0
28080,note_off,240,0,3,,,,,,,,,2,,,58,0
28080,note_off,60,0,2,,,,,,,,,1,,,82,0
28140,note_off,60,0,1,,,,,,,,,0,,,89,0
28140,note_on,60,0,2,,,,,,,,,1,,,82,41
28200,note_off,60,0,2,,,,,,,,,1,,,82,0
28200,note_on,0,0,2,,,,,,,,,1,,,80,41
28260,note_on,0,0,2,,,,,,,,,1,,,82,41
28260,note_off,60,0,2,,,,,,,,,1,,,80,0
28320,note_off,60,0,2,,,,,,,,,1,,,82,0
28320,note_on,0,0,4,,,,,,,,,4,,,49,37
28320,note_on,240,0,4,,,,,,,,,4,,,61,37
28320,note_on,180,0,1,,,,,,,,,0,,,79,48
28320,note_on,240,0,3,,,,,,,,,2,,,51,37
28380,note_on,60,0,2,,,,,,,,,1,,,87,41
28380,note_off,60,0,1,,,,,,,,,0,,,79,0
28440,note_off,60,0,2,,,,,,,,,1,,,87,0
28440,note_on,0,0,2,,,,,,,,,1,,,82,41
28500,note_on,0,0,2,,,,,,,,,1,,,87,42
28500,note_off,60,0,2,,,,,,,,,1,,,82,0
28560,note_off,60,0,2,,,,,,,,,1,,,87,0
28560,note_off,240,0,4,,,,,,,,,4,,,49,0
28560,note_off,0,0,4,,,,,,,,,4,,,61,0
28560,note_on,180,0,1,,,,,,,,,0,,,91,48
28560,note_off,240,0,3,,,,,,,,,2,,,51,0
28620,note_on,60,0,2,,,,,,,,,1,,,87,42
28620,note_off,60,0,1,,,,,,,,,0,,,91,0
28680,set_tempo,1320,1,0,,,,,,1111111,,,,,,,
28680,note_off,60,0,2,,,,,,,,,1,,,87,0
28680,note_on,0,0,2,,,,,,,,,1,,,82,42
28740,note_off,60,0,2,,,,,,,,,1,,,82,0
28740,note_on,0,0,2,,,,,,,,,1,,,87,42
28800,note_on,240,0,3,,,,,,,,,2,,,51,39
28800,note_on,0,0,4,,,,,,,,,4,,,48,39
28800,set_tempo,120,1,0,,,,,,1052631,,,,,,,
28800,note_on,180,0,1,,,,,,,,,0,,,80,49
28800,note_on,240,0,4,,,,,,,,,4,,,60,39
28800,note_off,60,0,2,,,,,,,,,1,,,87,0
28804,set_tempo,4,1,0,,,,,,1071428,,,,,,,
28860,note_on,60,0,2,,,,,,,,,1,,,92,42
28860,note_off,60,0,1,,,,,,,,,0,,,80,0
28920,note_off,60,0,2,,,,,,,,,1,,,92,0
28920,note_on,0,0,2,,,,,,,,,1,,,87,42
28980,note_off,60,0,2,,,,,,,,,1,,,87,0
28980,note_on,0,0,2,,,,,,,,,1,,,92,43
29040,note_off,0,0,4,,,,,,,,,4,,,60,0
29040,note_off,60,0,2,,,,,,,,,1,,,92,0
29040,note_off,240,0,4,,,,,,,,,4,,,48,0
29040,note_on,0,0,4,,,,,,,,,4,,,47,40
29040,note_on,180,0,1,,,,,,,,,0,,,81,50
29040,note_on,0,0,4,,,,,,,,,4,,,59,40
29040,note_off,240,0,3,,,,,,,,,2,,,51,0
29040,note_on,0,0,3,,,,,,,,,2,,,51,40
29100,note_on,60,0,2,,,,,,,,,1,,,93,43
29100,note_off,60,0,1,,,,,,,,,0,,,81,0
29160,note_off,60,0,2,,,,,,,,,1,,,93,0
29160,note_on,0,0,2,,,,,,,,,1,,,87,43
29220,note_off,60,0,2,,,,,,,,,1,,,87,0
29220,note_on,0,0,2,,,,,,,,,1,,,93,43
29280,note_off,240,0,4,,,,,,,,,4,,,47,0
29280,note_off,60,0,2,,,,,,,,,1,,,93,0
29280,note_off,240,0,3,,,,,,,,,2,,,51,0
29280,note_on,0,0,3,,,,,,,,,2,,,63,41
29280,note_on,0,0,4,,,,,,,,,4,,,71,41
29280,note_on,0,0,4,,,,,,,,,4,,,59,41
29280,note_off,0,0,4,,,,,,,,,4,,,59,0
29280,note_on,180,0,1,,,,,,,,,0,,,81,51
29340,note_off,60,0,1,,,,,,,,,0,,,81,0
29340,note_on,60,0,2,,,,,,,,,1,,,93,43
29392,set_tempo,588,1,0,,,,,,1090909,,,,,,,
29400,note_off,60,0,2,,,,,,,,,1,,,93,0
29400,note_on,0,0,2,,,,,,,,,1,,,87,44
29460,note_off,60,0,2,,,,,,,,,1,,,87,0
29460,note_on,0,0,2,,,,,,,,,1,,,93,44
29520,note_off,60,0,2,,,,,,,,,1,,,93,0
29520,note_on,180,0,1,,,,,,,,,0,,,82,51
29520,note_on,0,0,4,,,,,,,,,4,,,70,41
29520,note_off,240,0,3,,,,,,,,,2,,,63,0
29520,note_off,0,0,4,,,,,,,,,4,,,71,0
29520,note_on,0,0,4,,,,,,,,,4,,,58,41
29520,note_on,0,0,3,,,,,,,,,2,,,63,41
29520,note_off,240,0,4,,,,,,,,,4,,,59,0
29580,note_off,60,0,1,,,,,,,,,0,,,82,0
29580,note_on,60,0,2,,,,,,,,,1,,,94,44
29617,set_tempo,225,1,0,,,,,,1111111,,,,,,,
29640,note_off,60,0,2,,,,,,,,,1,,,94,0
29640,note_on,0,0,2,,,,,,,,,1,,,87,44
29700,note_off,60,0,2,,,,,,,,,1,,,87,0
29700,note_on,0,0,2,,,,,,,,,1,,,94,44
29760,note_off,0,0,4,,,,,,,,,4,,,58,0
29760,note_on,0,0,4,,,,,,,,,4,,,56,42
29760,note_on,0,0,4,,,,,,,,,4,,,68,42
29760,note_off,240,0,4,,,,,,,,,4,,,70,0
29760,note_off,240,0,3,,,,,,,,,2,,,63,0
29760,note_on,180,0,1,,,,,,,,,0,,,82,52
29760,note_off,60,0,2,,,,,,,,,1,,,94,0
29760,note_on,0,0,3,,,,,,,,,2,,,63,42
29775,set_tempo,158,1,0,,,,,,1132075,,,,,,,
29820,note_on,60,0,2,,,,,,,,,1,,,94,44
29820,note_off,60,0,1,,,,,,,,,0,,,82,0
29880,note_off,60,0,2,,,,,,,,,1,,,94,0
29880,note_on,0,0,2,,,,,,,,,1,,,87,45
29902,set_tempo,127,1,0,,,,,,1176470,,,,,,,
29940,note_off,60,0,2,,,,,,,,,1,,,87,0
29940,note_on,0,0,2,,,,,,,,,1,,,94,45
30000,note_on,180,0,1,,,,,,,,,0,,,83,53
30000,note_off,60,0,2,,,,,,,,,1,,,94,0
30000,note_off,240,0,3,,,,,,,,,2,,,63,0
30000,note_off,240,0,4,,,,,,,,,4,,,68,0
30000,note_on,0,0,4,,,,,,,,,4,,,55,43
30000,note_on,0,0,4,,,,,,,,,4,,,67,43
30000,note_on,0,0,3,,,,,,,,,2,,,63,43
30000,note_off,0,0,4,,,,,,,,,4,,,56,0
30015,set_tempo,113,1,0,,,,,,1224489,,,,,,,
30060,note_on,60,0,2,,,,,,,,,1,,,95,45
30060,note_off,60,0,1,,,,,,,,,0,,,83,0
30120,note_on,0,0,2,,,,,,,,,1,,,87,45
30120,note_off,60,0,2,,,,,,,,,1,,,95,0
30135,set_tempo,120,1,0,,,,,,1818181,,,,,,,
30180,note_on,0,0,2,,,,,,,,,1,,,95,45
30180,note_off,60,0,2,,,,,,,,,1,,,87,0
30240,note_off,240,0,4,,,,,,,,,4,,,55,0
30240,note_off,0,0,4,,,,,,,,,4,,,67,0
30240,set_tempo,105,1,0,,,,,,1111111,,,,,,,
30240,note_off,240,0,3,,,,,,,,,2,,,63,0
30240,note_off,60,0,2,,,,,,,,,1,,,95,0
30240,note_on,180,0,1,,,,,,,,,0,,,96,57
30350,set_tempo,110,1,0,,,,,,1071428,,,,,,,
30360,note_on,120,0,4,,,,,,,,,4,,,80,45
30480,note_on,120,0,4,,,,,,,,,4,,,68,40
30600,note_on,360,0,1,,,,,,,,,0,,,84,49
30720,note_off,120,0,1,,,,,,,,,0,,,84,0
30720,note_on,0,0,1,,,,,,,,,0,,,94,51
30727,note_off,247,0,4,,,,,,,,,4,,,80,0
30730,note_off,10,0,1,,,,,,,,,0,,,96,0
30840,note_on,0,0,4,,,,,,,,,4,,,79,45
30840,note_off,113,0,4,,,,,,,,,4,,,68,0
30960,note_on,120,0,4,,,,,,,,,4,,,67,42
31080,note_on,350,0,1,,,,,,,,,0,,,82,48
31200,note_on,0,0,1,,,,,,,,,0,,,92,52
31200,note_off,240,0,4,,,,,,,,,4,,,79,0
31200,note_off,120,0,1,,,,,,,,,0,,,82,0
31210,note_off,10,0,1,,,,,,,,,0,,,94,0
31320,note_off,120,0,4,,,,,,,,,4,,,67,0
31320,note_on,0,0,4,,,,,,,,,4,,,77,45
31440,note_on,120,0,4,,,,,,,,,4,,,65,41
31560,note_on,0,0,1,,,,,,,,,0,,,93,53
31560,note_off,350,0,1,,,,,,,,,0,,,92,0
31635,set_tempo,1285,1,0,,,,,,1111111,,,,,,,
31680,note_off,120,0,1,,,,,,,,,0,,,93,0
31680,note_on,0,0,1,,,,,,,,,0,,,94,52
31680,set_tempo,45,1,0,,,,,,1071428,,,,,,,
31687,note_off,247,0,4,,,,,,,,,4,,,77,0
31800,note_on,0,0,4,,,,,,,,,4,,,79,45
31800,note_off,113,0,4,,,,,,,,,4,,,65,0
31920,note_on,120,0,4,,,,,,,,,4,,,67,40
32040,note_on,360,0,1,,,,,,,,,0,,,82,47
32160,note_off,120,0,1,,,,,,,,,0,,,82,0
32160,note_on,0,0,1,,,,,,,,,0,,,92,50
32160,note_off,240,0,4,,,,,,,,,4,,,79,0
32170,note_off,10,0,1,,,,,,,,,0,,,94,0
32280,note_off,120,0,4,,,,,,,,,4,,,67,0
32280,note_on,0,0,4,,,,,,,,,4,,,77,45
32400,note_on,120,0,4,,,,,,,,,4,,,65,41
32520,note_on,350,0,1,,,,,,,,,0,,,82,46
32630,note_off,110,0,1,,,,,,,,,0,,,92,0
32640,note_on,240,0,4,,,,,,,,,4,,,75,45
32640,note_on,0,0,1,,,,,,,,,0,,,91,46
32640,note_off,10,0,1,,,,,,,,,0,,,82,0
32647,note_off,7,0,4,,,,,,,,,4,,,77,0
32760,note_off,120,0,1,,,,,,,,,0,,,91,0
32760,note_off,0,0,4,,,,,,,,,4,,,65,0
32760,note_off,113,0,4,,,,,,,,,4,,,75,0
32760,note_on,0,0,1,,,,,,,,,0,,,79,46
32760,note_on,0,0,4,,,,,,,,,4,,,63,45
32880,note_on,0,0,4,,,,,,,,,4,,,65,45
32880,note_off,120,0,4,,,,,,,,,4,,,63,0
32880,note_off,120,0,1,,,,,,,,,0,,,79,0
32880,note_on,0,0,1,,,,,,,,,0,,,80,46
33000,note_off,120,0,4,,,,,,,,,4,,,65,0
33000,note_on,0,0,4,,,,,,,,,4,,,67,45
33000,note_off,120,0,1,,,,,,,,,0,,,80,0
33000,note_on,0,0,1,,,,,,,,,0,,,82,46
33007,set_tempo,1327,1,0,,,,,,1111111,,,,,,,
33120,note_off,120,0,4,,,,,,,,,4,,,67,0
33120,set_tempo,113,1,0,,,,,,1071428,,,,,,,
33120,note_off,120,0,1,,,,,,,,,0,,,82,0
33120,note_on,0,0,1,,,,,,,,,0,,,86,46
33240,note_on,0,0,1,,,,,,,,,0,,,84,45
33240,note_off,120,0,1,,,,,,,,,0,,,86,0
33240,note_on,120,0,4,,,,,,,,,4,,,70,45
33360,note_off,120,0,4,,,,,,,,,4,,,70,0
33360,note_on,0,0,4,,,,,,,,,4,,,68,45
33480,note_off,120,0,4,,,,,,,,,4,,,68,0
33480,note_on,0,0,4,,,,,,,,,4,,,56,41
33480,note_on,240,0,1,,,,,,,,,0,,,72,44
33595,note_off,115,0,1,,,,,,,,,0,,,84,0
33600,note_off,5,0,1,,,,,,,,,0,,,72,0
33600,note_on,0,0,1,,,,,,,,,0,,,84,45
33600,note_off,120,0,4,,,,,,,,,4,,,56,0
33720,note_off,120,0,1,,,,,,,,,0,,,84,0
33720,note_on,0,0,1,,,,,,,,,0,,,82,45
33720,note_on,120,0,4,,,,,,,,,4,,,68,45
33840,note_off,120,0,4,,,,,,,,,4,,,68,0
33840,note_on,0,0,4,,,,,,,,,4,,,67,45
33960,note_off,120,0,4,,,,,,,,,4,,,67,0
33960,note_on,240,0,1,,,,,,,,,0,,,70,42
33960,note_on,0,0,4,,,,,,,,,4,,,55,42
34070,note_off,110,0,1,,,,,,,,,0,,,82,0
34080,note_off,10,0,1,,,,,,,,,0,,,70,0
34080,note_on,0,0,1,,,,,,,,,0,,,82,45
34080,note_off,120,0,4,,,,,,,,,4,,,55,0
34200,note_off,120,0,1,,,,,,,,,0,,,82,0
34200,note_on,0,0,1,,,,,,,,,0,,,80,44
34200,note_on,120,0,4,,,,,,,,,4,,,67,45
34320,note_on,0,0,4,,,,,,,,,4,,,65,45
34320,note_off,120,0,4,,,,,,,,,4,,,67,0
34440,note_on,0,0,4,,,,,,,,,4,,,66,45
34440,note_off,120,0,4,,,,,,,,,4,,,65,0
34440,note_on,240,0,1,,,,,,,,,0,,,81,44
34455,note_off,15,0,1,,,,,,,,,0,,,80,0
34537,set_tempo,1417,1,0,,,,,,1111111,,,,,,,
34560,note_off,120,0,4,,,,,,,,,4,,,66,0
34560,note_on,0,0,1,,,,,,,,,0,,,84,44
34560,note_off,105,0,1,,,,,,,,,0,,,81,0
34560,set_tempo,23,1,0,,,,,,1071428,,,,,,,
34680,note_on,120,0,4,,,,,,,,,4,,,68,45
34680,note_off,120,0,1,,,,,,,,,0,,,84,0
34680,note_on,0,0,1,,,,,,,,,0,,,82,43
34800,note_on,0,0,4,,,,,,,,,4,,,67,45
34800,note_off,120,0,4,,,,,,,,,4,,,68,0
34920,note_on,240,0,1,,,,,,,,,0,,,70,40
34920,note_on,0,0,4,,,,,,,,,4,,,55,42
34920,note_off,120,0,4,,,,,,,,,4,,,67,0
35035,note_off,115,0,1,,,,,,,,,0,,,82,0
35040,note_on,0,0,1,,,,,,,,,0,,,82,45
35040,note_off,5,0,1,,,,,,,,,0,,,70,0
35040,note_off,120,0,4,,,,,,,,,4,,,55,0
35160,note_on,120,0,4,,,,,,,,,4,,,67,45
35160,note_on,0,0,1,,,,,,,,,0,,,80,43
35160,note_off,120,0,1,,,,,,,,,0,,,82,0
35280,note_off,120,0,4,,,,,,,,,4,,,67,0
35280,note_on,0,0,4,,,,,,,,,4,,,65,45
35400,note_on,240,0,1,,,,,,,,,0,,,68,40
35400,note_off,120,0,4,,,,,,,,,4,,,65,0
35400,note_on,0,0,4,,,,,,,,,4,,,53,45
35460,set_tempo,900,1,0,,,,,,1111111,,,,,,,
35520,note_on,0,0,4,,,,,,,,,4,,,55,43
35520,note_on,0,0,1,,,,,,,,,0,,,79,42
35520,note_off,120,0,1,,,,,,,,,0,,,68,0
35520,note_off,120,0,4,,,,,,,,,4,,,53,0
35520,note_on,5280,0,3,,,,,,,,,2,,,63,43
35524,note_off,4,0,1,,,,,,,,,0,,,80,0
35640,note_off,120,0,4,,,,,,,,,4,,,55,0
35640,note_on,0,0,4,,,,,,,,,4,,,56,43
35640,note_on,0,0,1,,,,,,,,,0,,,77,43
35640,note_off,120,0,3,,,,,,,,,2,,,63,0
35640,note_off,116,0,1,,,,,,,,,0,,,79,0
35640,note_on,0,0,3,,,,,,,,,2,,,62,43
35736,note_off,96,0,1,,,,,,,,,0,,,77,0
35736,note_off,96,0,3,,,,,,,,,2,,,62,0
35736,note_off,96,0,4,,,,,,,,,4,,,56,0
35760,note_on,24,0,4,,,,,,,,,4,,,55,43
35760,note_on,24,0,3,,,,,,,,,2,,,63,43
35760,note_on,24,0,1,,,,,,,,,0,,,79,44
35880,note_off,120,0,4,,,,,,,,,4,,,55,0
35880,note_on,0,0,4,,,,,,,,,4,,,56,43
35880,set_tempo,420,1,0,,,,,,1176470,,,,,,,
35880,note_on,0,0,1,,,,,,,,,0,,,77,45
35880,note_on,0,0,3,,,,,,,,,2,,,62,43
35880,note_off,120,0,3,,,,,,,,,2,,,63,0
35880,note_off,120,0,1,,,,,,,,,0,,,79,0
35976,note_off,96,0,4,,,,,,,,,4,,,56,0
35976,note_off,96,0,3,,,,,,,,,2,,,62,0
35976,note_off,96,0,1,,,,,,,,,0,,,77,0
36000,note_on,24,0,3,,,,,,,,,2,,,63,43
36000,note_on,5760,0,2,,,,,,,,,1,,,70,45
36000,note_on,24,0,1,,,,,,,,,0,,,79,45
36000,note_on,24,0,4,,,,,,,,,4,,,55,43
36000,set_tempo,120,1,0,,,,,,1111111,,,,,,,
36460,set_tempo,460,1,0,,,,,,1176470,,,,,,,
36480,note_on,0,0,1,,,,,,,,,0,,,77,48
36480,note_off,480,0,1,,,,,,,,,0,,,79,0
36480,note_off,480,0,3,,,,,,,,,2,,,63,0
36480,note_on,0,0,3,,,,,,,,,2,,,62,43
36480,note_on,0,0,2,,,,,,,,,1,,,70,48
36480,note_on,0,0,4,,,,,,,,,4,,,56,43
36480,note_off,480,0,2,,,,,,,,,1,,,70,0
36480,note_off,480,0,4,,,,,,,,,4,,,55,0
36840,note_off,360,0,2,,,,,,,,,1,,,70,0
36840,note_off,360,0,3,,,,,,,,,2,,,62,0
36840,note_off,360,0,4,,,,,,,,,4,,,56,0
36840,note_off,360,0,1,,,,,,,,,0,,,77,0
36960,set_tempo,500,1,0,,,,,,1111111,,,,,,,
36960,note_on,120,0,3,,,,,,,,,2,,,63,44
36960,note_on,120,0,4,,,,,,,,,4,,,55,46
36960,note_on,120,0,1,,,,,,,,,0,,,82,49
36960,note_on,120,0,2,,,,,,,,,1,,,70,49
37080,note_off,120,0,1,,,,,,,,,0,,,82,0
37080,note_on,0,0,3,,,,,,,,,2,,,60,45
37080,note_on,0,0,1,,,,,,,,,0,,,81,51
37080,note_off,120,0,2,,,,,,,,,1,,,70,0
37080,note_on,0,0,2,,,,,,,,,1,,,75,50
37080,note_on,0,0,4,,,,,,,,,4,,,53,47
37080,note_off,120,0,3,,,,,,,,,2,,,63,0
37080,note_off,120,0,4,,,,,,,,,4,,,55,0
37176,note_off,96,0,1,,,,,,,,,0,,,81,0
37176,note_off,96,0,2,,,,,,,,,1,,,75,0
37176,note_off,96,0,3,,,,,,,,,2,,,60,0
37176,note_off,96,0,4,,,,,,,,,4,,,53,0
37200,note_on,24,0,3,,,,,,,,,2,,,63,46
37200,note_on,24,0,1,,,,,,,,,0,,,82,52
37200,note_on,24,0,4,,,,,,,,,4,,,55,48
37200,note_on,24,0,2,,,,,,,,,1,,,70,52
37320,note_off,120,0,1,,,,,,,,,0,,,82,0
37320,note_on,0,0,4,,,,,,,,,4,,,53,48
37320,note_off,120,0,4,,,,,,,,,4,,,55,0
37320,set_tempo,360,1,0,,,,,,1132075,,,,,,,
37320,note_on,0,0,1,,,,,,,,,0,,,81,53
37320,note_off,120,0,3,,,,,,,,,2,,,63,0
37320,note_on,0,0,3,,,,,,,,,2,,,60,47
37320,note_on,0,0,2,,,,,,,,,1,,,75,53
37320,note_off,120,0,2,,,,,,,,,1,,,70,0
37416,note_off,96,0,2,,,,,,,,,1,,,75,0
37416,note_off,96,0,4,,,,,,,,,4,,,53,0
37416,note_off,96,0,1,,,,,,,,,0,,,81,0
37416,note_off,96,0,3,,,,,,,,,2,,,60,0
37440,note_on,24,0,4,,,,,,,,,4,,,55,43
37440,note_on,24,0,2,,,,,,,,,1,,,75,40
37440,note_on,0,0,2,,,,,,,,,1,,,70,40
37440,note_on,0,0,3,,,,,,,,,2,,,58,44
37440,set_tempo,120,1,0,,,,,,1071428,,,,,,,
37440,control_change,24,0,1,,,,,,,64,0,0,,,,
37440,note_on,0,0,1,,,,,,,,,0,,,82,51
37440,note_on,24,0,3,,,,,,,,,2,,,63,44
37800,control_change,360,0,1,,,,,,,64,127,0,,,,
37815,note_off,375,0,2,,,,,,,,,1,,,70,0
37822,note_off,22,0,1,,,,,,,,,0,,,82,0
37837,note_off,22,0,2,,,,,,,,,1,,,75,0
37840,note_on,18,0,1,,,,,,,,,0,,,69,44
37860,set_tempo,420,1,0,,,,,,1111111,,,,,,,
37880,note_on,40,0,1,,,,,,,,,0,,,75,44
37900,note_off,20,0,1,,,,,,,,,0,,,69,0
37920,note_on,20,0,1,,,,,,,,,0,,,84,49
37920,note_off,480,0,3,,,,,,,,,2,,,58,0
37920,note_off,0,0,3,,,,,,,,,2,,,63,0
37920,note_off,480,0,4,,,,,,,,,4,,,55,0
37920,note_on,0,0,4,,,,,,,,,4,,,53,48
37940,note_off,20,0,1,,,,,,,,,0,,,75,0
37960,note_on,40,0,4,,,,,,,,,4,,,55,43
37980,set_tempo,120,1,0,,,,,,1071428,,,,,,,
37992,note_off,32,0,4,,,,,,,,,4,,,53,0
38000,note_on,8,0,4,,,,,,,,,4,,,53,38
38024,note_off,24,0,4,,,,,,,,,4,,,55,0
38040,note_on,16,0,4,,,,,,,,,4,,,55,41
38064,note_off,24,0,4,,,,,,,,,4,,,53,0
38080,note_on,16,0,4,,,,,,,,,4,,,53,41
38104,note_off,24,0,4,,,,,,,,,4,,,55,0
38120,note_on,16,0,4,,,,,,,,,4,,,55,41
38144,note_off,24,0,4,,,,,,,,,4,,,53,0
38160,note_on,16,0,4,,,,,,,,,4,,,53,42
38184,note_off,24,0,4,,,,,,,,,4,,,55,0
38200,note_on,16,0,4,,,,,,,,,4,,,55,42
38224,note_off,24,0,4,,,,,,,,,4,,,53,0
38240,note_on,16,0,4,,,,,,,,,4,,,53,42
38264,note_off,24,0,4,,,,,,,,,4,,,55,0
38280,note_on,16,0,4,,,,,,,,,4,,,51,42
38304,note_off,24,0,4,,,,,,,,,4,,,53,0
38340,note_on,36,0,4,,,,,,,,,4,,,53,43
38340,set_tempo,360,1,0,,,,,,1111111,,,,,,,
38364,note_off,24,0,4,,,,,,,,,4,,,51,0
38400,note_off,36,0,4,,,,,,,,,4,,,53,0
38400,note_on,0,0,4,,,,,,,,,4,,,51,50
38440,note_on,40,0,4,,,,,,,,,4,,,53,47
38460,set_tempo,120,1,0,,,,,,1071428,,,,,,,
38476,note_off,36,0,4,,,,,,,,,4,,,51,0
38480,note_on,4,0,4,,,,,,,,,4,,,51,43
38508,note_off,28,0,4,,,,,,,,,4,,,53,0
38520,note_on,12,0,4,,,,,,,,,4,,,53,44
38520,control_change,580,0,1,,,,,,,64,0,0,,,,
38548,note_off,28,0,4,,,,,,,,,4,,,51,0
38557,note_off,37,0,1,,,,,,,,,0,,,84,0
38560,note_on,12,0,4,,,,,,,,,4,,,51,44
38560,note_on,0,0,1,,,,,,,,,0,,,69,51
38560,control_change,3,0,1,,,,,,,64,127,0,,,,
38588,note_off,28,0,4,,,,,,,,,4,,,53,0
38600,note_on,12,0,4,,,,,,,,,4,,,53,45
38600,note_on,40,0,1,,,,,,,,,0,,,77,51
38620,note_off,20,0,1,,,,,,,,,0,,,69,0
38628,note_off,28,0,4,,,,,,,,,4,,,51,0
38640,note_on,12,0,4,,,,,,,,,4,,,51,45
38640,note_on,20,0,1,,,,,,,,,0,,,84,51
38660,note_off,20,0,1,,,,,,,,,0,,,77,0
38668,note_off,28,0,4,,,,,,,,,4,,,53,0
38680,note_on,12,0,4,,,,,,,,,4,,,53,45
38708,note_off,28,0,4,,,,,,,,,4,,,51,0
38720,note_on,12,0,4,,,,,,,,,4,,,51,45
38748,note_off,28,0,4,,,,,,,,,4,,,53,0
38760,set_tempo,300,1,0,,,,,,1111111,,,,,,,
38760,note_on,12,0,4,,,,,,,,,4,,,50,46
38788,note_off,28,0,4,,,,,,,,,4,,,51,0
38820,note_on,32,0,4,,,,,,,,,4,,,51,46
38848,note_off,28,0,4,,,,,,,,,4,,,50,0
38880,note_on,0,0,4,,,,,,,,,4,,,50,52
38880,note_off,32,0,4,,,,,,,,,4,,,51,0
38880,set_tempo,120,1,0,,,,,,1071428,,,,,,,
38880,note_off,220,0,1,,,,,,,,,0,,,84,0
38920,note_on,40,0,4,,,,,,,,,4,,,51,49
38952,note_off,32,0,4,,,,,,,,,4,,,50,0
38960,note_on,8,0,4,,,,,,,,,4,,,50,46
38984,note_off,24,0,4,,,,,,,,,4,,,51,0
39000,control_change,120,0,1,,,,,,,64,0,0,,,,
39000,note_on,16,0,4,,,,,,,,,4,,,51,47
39024,note_off,24,0,4,,,,,,,,,4,,,50,0
39040,control_change,40,0,1,,,,,,,64,127,0,,,,
39040,note_on,0,0,1,,,,,,,,,0,,,70,55
39040,note_on,16,0,4,,,,,,,,,4,,,50,48
39064,note_off,24,0,4,,,,,,,,,4,,,51,0
39080,note_on,16,0,4,,,,,,,,,4,,,51,48
39080,note_on,40,0,1,,,,,,,,,0,,,77,55
39100,note_off,20,0,1,,,,,,,,,0,,,70,0
39104,note_off,24,0,4,,,,,,,,,4,,,50,0
39120,note_on,16,0,4,,,,,,,,,4,,,50,48
39120,note_on,20,0,1,,,,,,,,,0,,,86,56
39140,note_off,20,0,1,,,,,,,,,0,,,77,0
39144,note_off,24,0,4,,,,,,,,,4,,,51,0
39160,note_on,16,0,4,,,,,,,,,4,,,51,48
39184,note_off,24,0,4,,,,,,,,,4,,,50,0
39200,note_on,16,0,4,,,,,,,,,4,,,50,49
39224,note_off,24,0,4,,,,,,,,,4,,,51,0
39240,note_on,16,0,4,,,,,,,,,4,,,48,49
39264,note_off,24,0,4,,,,,,,,,4,,,50,0
39300,set_tempo,420,1,0,,,,,,1111111,,,,,,,
39300,note_on,36,0,4,,,,,,,,,4,,,50,49
39324,note_off,24,0,4,,,,,,,,,4,,,48,0
39360,note_off,36,0,4,,,,,,,,,4,,,50,0
39360,note_off,220,0,1,,,,,,,,,0,,,86,0
39360,note_on,0,0,4,,,,,,,,,4,,,48,54
39400,note_on,40,0,4,,,,,,,,,4,,,50,51
39420,set_tempo,120,1,0,,,,,,1071428,,,,,,,
39436,note_off,36,0,4,,,,,,,,,4,,,48,0
39440,note_on,4,0,4,,,,,,,,,4,,,48,49
39476,note_off,36,0,4,,,,,,,,,4,,,50,0
39480,control_change,120,0,1,,,,,,,64,0,0,,,,
39480,note_on,4,0,4,,,,,,,,,4,,,50,51
39516,note_off,36,0,4,,,,,,,,,4,,,48,0
39520,control_change,40,0,1,,,,,,,64,127,0,,,,
39520,note_on,4,0,4,,,,,,,,,4,,,48,51
39556,note_off,36,0,4,,,,,,,,,4,,,50,0
39560,note_on,40,0,1,,,,,,,,,0,,,72,60
39560,note_on,4,0,4,,,,,,,,,4,,,50,51
39596,note_off,36,0,4,,,,,,,,,4,,,48,0
39600,note_on,4,0,4,,,,,,,,,4,,,48,51
39600,note_on,40,0,1,,,,,,,,,0,,,77,60
39620,note_off,20,0,1,,,,,,,,,0,,,72,0
39636,note_off,36,0,4,,,,,,,,,4,,,50,0
39640,note_on,20,0,1,,,,,,,,,0,,,87,61
39640,note_on,4,0,4,,,,,,,,,4,,,50,52
39660,note_off,20,0,1,,,,,,,,,0,,,77,0
39676,note_off,36,0,4,,,,,,,,,4,,,48,0
39680,note_on,4,0,4,,,,,,,,,4,,,48,52
39716,note_off,36,0,4,,,,,,,,,4,,,50,0
39720,note_on,4,0,4,,,,,,,,,4,,,46,52
39756,note_off,36,0,4,,,,,,,,,4,,,48,0
39780,note_on,24,0,4,,,,,,,,,4,,,48,53
39780,set_tempo,360,1,0,,,,,,1111111,,,,,,,
39816,note_off,36,0,4,,,,,,,,,4,,,46,0
39840,note_on,0,0,4,,,,,,,,,4,,,46,58
39840,note_off,24,0,4,,,,,,,,,4,,,48,0
39880,note_off,220,0,1,,,,,,,,,0,,,87,0
39880,note_on,40,0,4,,,,,,,,,4,,,48,56
39900,set_tempo,120,1,0,,,,,,1071428,,,,,,,
39912,note_off,32,0,4,,,,,,,,,4,,,46,0
39920,note_on,8,0,4,,,,,,,,,4,,,46,53
39956,note_off,36,0,4,,,,,,,,,4,,,48,0
39960,note_on,4,0,4,,,,,,,,,4,,,48,54
39960,control_change,80,0,1,,,,,,,64,0,0,,,,
39996,note_off,36,0,4,,,,,,,,,4,,,46,0
40000,note_on,4,0,4,,,,,,,,,4,,,46,54
40000,note_on,0,0,1,,,,,,,,,0,,,74,64
40000,control_change,40,0,1,,,,,,,64,127,0,,,,
40036,note_off,36,0,4,,,,,,,,,4,,,48,0
40040,note_on,4,0,4,,,,,,,,,4,,,48,54
40040,note_on,40,0,1,,,,,,,,,0,,,77,64
40060,note_off,20,0,1,,,,,,,,,0,,,74,0
40076,note_off,36,0,4,,,,,,,,,4,,,46,0
40080,note_on,20,0,1,,,,,,,,,0,,,89,65
40080,note_on,4,0,4,,,,,,,,,4,,,46,55
40100,note_off,20,0,1,,,,,,,,,0,,,77,0
40116,note_off,36,0,4,,,,,,,,,4,,,48,0
40120,note_on,4,0,4,,,,,,,,,4,,,48,55
40156,note_off,36,0,4,,,,,,,,,4,,,46,0
40160,note_on,4,0,4,,,,,,,,,4,,,46,55
40196,note_off,36,0,4,,,,,,,,,4,,,48,0
40200,note_on,4,0,4,,,,,,,,,4,,,44,56
40200,set_tempo,300,1,0,,,,,,1111111,,,,,,,
40236,note_off,36,0,4,,,,,,,,,4,,,46,0
40260,note_on,24,0,4,,,,,,,,,4,,,46,56
40296,note_off,36,0,4,,,,,,,,,4,,,44,0
40320,note_off,24,0,4,,,,,,,,,4,,,46,0
40320,set_tempo,120,1,0,,,,,,1071428,,,,,,,
40320,note_on,0,0,4,,,,,,,,,4,,,44,60
40360,note_on,40,0,4,,,,,,,,,4,,,46,58
40396,note_off,36,0,4,,,,,,,,,4,,,44,0
40400,note_on,4,0,4,,,,,,,,,4,,,44,55
40432,note_off,32,0,4,,,,,,,,,4,,,46,0
40440,note_on,8,0,4,,,,,,,,,4,,,46,57
40472,note_off,32,0,4,,,,,,,,,4,,,44,0
40480,note_on,8,0,4,,,,,,,,,4,,,44,57
40512,note_off,32,0,4,,,,,,,,,4,,,46,0
40512,note_off,412,0,1,,,,,,,,,0,,,89,0
40520,note_on,8,0,4,,,,,,,,,4,,,46,58
40552,note_off,32,0,4,,,,,,,,,4,,,44,0
40560,control_change,48,0,1,,,,,,,64,0,0,,,,
40560,note_on,0,0,1,,,,,,,,,0,,,91,74
40560,note_on,8,0,4,,,,,,,,,4,,,44,58
40592,note_off,32,0,4,,,,,,,,,4,,,46,0
40600,note_on,8,0,4,,,,,,,,,4,,,46,58
40632,note_off,32,0,4,,,,,,,,,4,,,44,0
40640,note_on,8,0,4,,,,,,,,,4,,,44,59
40672,note_off,32,0,4,,,,,,,,,4,,,46,0
40680,note_on,8,0,4,,,,,,,,,4,,,46,59
40712,note_off,32,0,4,,,,,,,,,4,,,44,0
40720,note_on,8,0,4,,,,,,,,,4,,,44,59
40752,note_off,32,0,4,,,,,,,,,4,,,46,0
40752,note_off,192,0,1,,,,,,,,,0,,,91,0
40760,note_on,8,0,4,,,,,,,,,4,,,46,59
40792,note_off,32,0,4,,,,,,,,,4,,,44,0
40800,note_on,8,0,4,,,,,,,,,4,,,44,60
40800,note_on,48,0,1,,,,,,,,,0,,,92,79
40832,note_off,32,0,4,,,,,,,,,4,,,46,0
40840,note_on,8,0,4,,,,,,,,,4,,,46,60
40872,note_off,32,0,4,,,,,,,,,4,,,44,0
40880,note_on,8,0,4,,,,,,,,,4,,,44,60
40912,note_off,32,0,4,,,,,,,,,4,,,46,0
40920,note_on,8,0,4,,,,,,,,,4,,,46,60
40952,note_off,32,0,4,,,,,,,,,4,,,44,0
40960,note_on,8,0,4,,,,,,,,,4,,,44,61
40992,note_off,192,0,1,,,,,,,,,0,,,92,0
40992,note_off,32,0,4,,,,,,,,,4,,,46,0
41000,note_on,8,0,4,,,,,,,,,4,,,46,61
41032,note_off,32,0,4,,,,,,,,,4,,,44,0
41040,note_on,48,0,1,,,,,,,,,0,,,93,84
41040,note_on,8,0,4,,,,,,,,,4,,,44,61
41072,note_off,32,0,4,,,,,,,,,4,,,46,0
41080,note_on,8,0,4,,,,,,,,,4,,,46,62
41112,note_off,32,0,4,,,,,,,,,4,,,44,0
41120,note_on,8,0,4,,,,,,,,,4,,,44,62
41152,note_off,32,0,4,,,,,,,,,4,,,46,0
41160,note_on,8,0,4,,,,,,,,,4,,,46,62
41185,note_off,25,0,4,,,,,,,,,4,,,44,0
41200,note_on,15,0,4,,,,,,,,,4,,,44,62
41220,set_tempo,900,1,0,,,,,,1111111,,,,,,,
41224,note_off,24,0,4,,,,,,,,,4,,,46,0
41232,note_off,192,0,1,,,,,,,,,0,,,93,0
41240,note_on,16,0,4,,,,,,,,,4,,,46,63
41272,note_off,32,0,4,,,,,,,,,4,,,44,0
41280,note_on,8,0,4,,,,,,,,,4,,,43,63
41280,note_on,48,0,1,,,,,,,,,0,,,94,96
41300,note_off,20,0,4,,,,,,,,,4,,,46,0
41340,note_off,40,0,4,,,,,,,,,4,,,43,0
41340,set_tempo,120,1,0,,,,,,1071428,,,,,,,
41340,note_on,0,0,4,,,,,,,,,4,,,44,63
41400,note_off,60,0,4,,,,,,,,,4,,,44,0
41400,note_on,0,0,4,,,,,,,,,4,,,43,64
41460,note_off,60,0,4,,,,,,,,,4,,,43,0
41460,note_on,0,0,4,,,,,,,,,4,,,44,64
41520,note_off,60,0,4,,,,,,,,,4,,,44,0
41520,note_on,0,0,4,,,,,,,,,4,,,46,65
41580,note_on,0,0,4,,,,,,,,,4,,,44,66
41580,note_off,60,0,4,,,,,,,,,4,,,46,0
41640,note_on,0,0,4,,,,,,,,,4,,,43,67
41640,note_off,60,0,4,,,,,,,,,4,,,44,0
41640,set_tempo,300,1,0,,,,,,1111111,,,,,,,
41700,note_on,0,0,4,,,,,,,,,4,,,41,68
41700,note_off,60,0,4,,,,,,,,,4,,,43,0
41700,set_tempo,60,1,0,,,,,,1132075,,,,,,,
41760,note_off,60,0,4,,,,,,,,,4,,,41,0
41760,note_on,0,0,4,,,,,,,,,4,,,39,68
41827,set_tempo,127,1,0,,,,,,1034482,,,,,,,
41859,note_off,579,0,1,,,,,,,,,0,,,94,0
41880,note_on,120,0,4,,,,,,,,,4,,,51,58
41880,note_on,3960,0,3,,,,,,,,,2,,,55,68
42000,note_on,141,0,1,,,,,,,,,0,,,67,74
42000,note_off,120,0,3,,,,,,,,,2,,,55,0
42000,note_off,120,0,4,,,,,,,,,4,,,51,0
42000,note_on,0,0,4,,,,,,,,,4,,,51,58
42000,note_on,0,0,3,,,,,,,,,2,,,55,68
42120,note_off,120,0,4,,,,,,,,,4,,,51,0
42120,note_on,0,0,3,,,,,,,,,2,,,51,70
42120,note_off,120,0,3,,,,,,,,,2,,,55,0
42120,note_on,0,0,4,,,,,,,,,4,,,50,59
42120,note_on,0,0,3,,,,,,,,,2,,,55,68
42192,note_off,192,0,1,,,,,,,,,0,,,67,0
42240,note_on,0,0,4,,,,,,,,,4,,,50,59
42240,note_on,0,0,3,,,,,,,,,2,,,55,69
42240,note_on,0,0,3,,,,,,,,,2,,,51,70
42240,note_off,0,0,3,,,,,,,,,2,,,51,0
42240,note_off,120,0,3,,,,,,,,,2,,,55,0
42240,note_off,120,0,4,,,,,,,,,4,,,50,0
42360,note_on,0,0,3,,,,,,,,,2,,,55,69
42360,note_on,0,0,3,,,,,,,,,2,,,51,69
42360,note_off,0,0,3,,,,,,,,,2,,,51,0
42360,note_on,0,0,4,,,,,,,,,4,,,48,60
42360,note_off,120,0,3,,,,,,,,,2,,,55,0
42360,note_off,120,0,4,,,,,,,,,4,,,50,0
42480,note_off,120,0,4,,,,,,,,,4,,,48,0
42480,note_on,0,0,3,,,,,,,,,2,,,55,69
42480,note_on,0,0,3,,,,,,,,,2,,,51,69
42480,note_off,0,0,3,,,,,,,,,2,,,51,0
42480,note_off,120,0,3,,,,,,,,,2,,,55,0
42480,note_on,0,0,4,,,,,,,,,4,,,48,60
42600,note_off,120,0,4,,,,,,,,,4,,,48,0
42600,note_on,0,0,4,,,,,,,,,4,,,46,60
42600,note_on,0,0,3,,,,,,,,,2,,,55,70
42600,note_on,408,0,1,,,,,,,,,0,,,67,74
42600,note_on,0,0,3,,,,,,,,,2,,,48,70
42600,note_off,0,0,3,,,,,,,,,2,,,51,0
42600,note_off,120,0,3,,,,,,,,,2,,,55,0
42600,note_on,0,0,3,,,,,,,,,2,,,51,70
42720,note_off,0,0,3,,,,,,,,,2,,,51,0
42720,note_off,0,0,3,,,,,,,,,2,,,48,0
42720,note_on,0,0,3,,,,,,,,,2,,,51,70
42720,note_off,120,0,3,,,,,,,,,2,,,55,0
42720,note_on,0,0,3,,,,,,,,,2,,,55,70
42720,note_on,0,0,4,,,,,,,,,4,,,46,61
42720,note_off,120,0,4,,,,,,,,,4,,,46,0
42720,note_off,120,0,1,,,,,,,,,0,,,67,0
42720,note_on,0,0,1,,,,,,,,,0,,,68,76
42735,note_off,15,0,4,,,,,,,,,4,,,39,0
42816,note_off,96,0,1,,,,,,,,,0,,,68,0
42840,note_on,0,0,4,,,,,,,,,4,,,44,61
42840,note_off,105,0,4,,,,,,,,,4,,,46,0
42840,note_on,24,0,1,,,,,,,,,0,,,70,77
42840,note_off,120,0,3,,,,,,,,,2,,,55,0
42840,note_off,0,0,3,,,,,,,,,2,,,51,0
42840,note_on,0,0,3,,,,,,,,,2,,,51,70
42840,note_on,0,0,3,,,,,,,,,2,,,55,70
42960,note_on,0,0,3,,,,,,,,,2,,,55,71
42960,note_on,0,0,3,,,,,,,,,2,,,51,71
42960,note_off,120,0,1,,,,,,,,,0,,,70,0
42960,note_off,120,0,3,,,,,,,,,2,,,55,0
42960,note_on,0,0,4,,,,,,,,,4,,,43,62
42960,note_off,0,0,3,,,,,,,,,2,,,51,0
42960,note_on,0,0,1,,,,,,,,,0,,,72,79
42960,note_off,120,0,4,,,,,,,,,4,,,44,0
43056,note_off,96,0,1,,,,,,,,,0,,,72,0
43080,note_on,0,0,3,,,,,,,,,2,,,51,71
43080,note_on,24,0,1,,,,,,,,,0,,,74,80
43080,note_on,0,0,3,,,,,,,,,2,,,55,71
43080,note_off,0,0,3,,,,,,,,,2,,,51,0
43080,note_off,120,0,3,,,,,,,,,2,,,55,0
43080,note_on,0,0,4,,,,,,,,,4,,,43,62
43080,note_off,120,0,4,,,,,,,,,4,,,43,0
43140,set_tempo,1313,1,0,,,,,,1071428,,,,,,,
43200,note_off,0,0,3,,,,,,,,,2,,,51,0
43200,note_off,120,0,1,,,,,,,,,0,,,74,0
43200,note_off,120,0,3,,,,,,,,,2,,,55,0
43200,note_on,0,0,1,,,,,,,,,0,,,75,85
43200,note_off,120,0,4,,,,,,,,,4,,,43,0
43200,note_on,0,0,4,,,,,,,,,4,,,43,63
43260,set_tempo,120,1,0,,,,,,1034482,,,,,,,
43320,note_on,120,0,3,,,,,,,,,2,,,55,72
43320,note_on,120,0,4,,,,,,,,,4,,,51,63
43320,note_off,120,0,1,,,,,,,,,0,,,75,0
43440,note_on,0,0,3,,,,,,,,,2,,,55,72
43440,note_off,120,0,3,,,,,,,,,2,,,55,0
43440,note_on,120,0,1,,,,,,,,,0,,,70,75
43440,note_off,120,0,4,,,,,,,,,4,,,51,0
43440,note_on,0,0,4,,,,,,,,,4,,,51,64
43560,note_on,0,0,3,,,,,,,,,2,,,55,72
43560,note_on,0,0,4,,,,,,,,,4,,,50,64
43560,note_off,120,0,4,,,,,,,,,4,,,51,0
43560,note_on,0,0,3,,,,,,,,,2,,,51,73
43560,note_off,120,0,1,,,,,,,,,0,,,70,0
43560,note_off,120,0,3,,,,,,,,,2,,,55,0
43680,note_off,0,0,3,,,,,,,,,2,,,51,0
43680,note_on,0,0,3,,,,,,,,,2,,,51,74
43680,note_off,120,0,4,,,,,,,,,4,,,50,0
43680,note_off,120,0,3,,,,,,,,,2,,,55,0
43680,note_on,0,0,4,,,,,,,,,4,,,50,64
43680,note_on,0,0,3,,,,,,,,,2,,,55,73
43800,note_on,0,0,4,,,,,,,,,4,,,48,65
43800,note_off,120,0,3,,,,,,,,,2,,,55,0
43800,note_on,0,0,3,,,,,,,,,2,,,51,73
43800,note_off,0,0,3,,,,,,,,,2,,,51,0
43800,note_off,120,0,4,,,,,,,,,4,,,50,0
43800,note_on,0,0,3,,,,,,,,,2,,,55,73
43920,note_off,0,0,3,,,,,,,,,2,,,51,0
43920,note_on,0,0,3,,,,,,,,,2,,,51,73
43920,note_on,0,0,3,,,,,,,,,2,,,55,73
43920,note_on,0,0,4,,,,,,,,,4,,,48,65
43920,note_off,120,0,4,,,,,,,,,4,,,48,0
43920,note_off,120,0,3,,,,,,,,,2,,,55,0
44040,note_on,0,0,4,,,,,,,,,4,,,46,66
44040,note_on,0,0,3,,,,,,,,,2,,,51,74
44040,note_off,0,0,3,,,,,,,,,2,,,51,0
44040,note_off,120,0,3,,,,,,,,,2,,,55,0
44040,note_off,120,0,4,,,,,,,,,4,,,48,0
44040,note_on,480,0,1,,,,,,,,,0,,,74,76
44040,note_on,0,0,3,,,,,,,,,2,,,55,74
44160,note_off,0,0,4,,,,,,,,,4,,,43,0
44160,note_on,0,0,4,,,,,,,,,4,,,46,66
44160,note_off,120,0,4,,,,,,,,,4,,,46,0
44160,note_on,0,0,3,,,,,,,,,2,,,55,74
44160,note_off,0,0,3,,,,,,,,,2,,,51,0
44160,note_on,0,0,3,,,,,,,,,2,,,51,74
44160,note_off,120,0,3,,,,,,,,,2,,,55,0
44160,note_on,0,0,1,,,,,,,,,0,,,75,79
44160,note_off,120,0,1,,,,,,,,,0,,,74,0
44256,note_off,96,0,1,,,,,,,,,0,,,75,0
44280,note_on,0,0,4,,,,,,,,,4,,,44,67
44280,note_off,120,0,4,,,,,,,,,4,,,46,0
44280,note_on,0,0,3,,,,,,,,,2,,,55,74
44280,note_on,24,0,1,,,,,,,,,0,,,77,81
44280,note_on,0,0,3,,,,,,,,,2,,,51,74
44280,note_off,0,0,3,,,,,,,,,2,,,51,0
44280,note_off,120,0,3,,,,,,,,,2,,,55,0
44400,note_off,120,0,3,,,,,,,,,2,,,55,0
44400,note_on,0,0,4,,,,,,,,,4,,,43,67
44400,note_off,120,0,4,,,,,,,,,4,,,44,0
44400,note_off,120,0,1,,,,,,,,,0,,,77,0
44400,note_on,0,0,1,,,,,,,,,0,,,79,84
44400,note_on,0,0,3,,,,,,,,,2,,,55,75
44400,note_on,0,0,3,,,,,,,,,2,,,51,75
44400,note_off,0,0,3,,,,,,,,,2,,,51,0
44496,note_off,96,0,1,,,,,,,,,0,,,79,0
44520,note_on,0,0,3,,,,,,,,,2,,,55,75
44520,note_on,0,0,3,,,,,,,,,2,,,51,75
44520,note_on,24,0,1,,,,,,,,,0,,,80,86
44520,note_off,120,0,3,,,,,,,,,2,,,55,0
44520,note_off,120,0,4,,,,,,,,,4,,,43,0
44520,note_on,0,0,4,,,,,,,,,4,,,43,68
44520,note_off,0,0,3,,,,,,,,,2,,,51,0
44580,set_tempo,1320,1,0,,,,,,1071428,,,,,,,
44640,note_off,120,0,1,,,,,,,,,0,,,80,0
44640,note_on,0,0,1,,,,,,,,,0,,,82,91
44640,note_off,120,0,3,,,,,,,,,2,,,55,0
44640,note_off,0,0,3,,,,,,,,,2,,,51,0
44640,note_on,0,0,4,,,,,,,,,4,,,43,68
44640,note_off,120,0,4,,,,,,,,,4,,,43,0
44700,set_tempo,120,1,0,,,,,,1034482,,,,,,,
44760,note_on,120,0,3,,,,,,,,,2,,,55,75
44760,note_on,120,0,4,,,,,,,,,4,,,51,68
44760,note_off,120,0,1,,,,,,,,,0,,,82,0
44880,note_on,0,0,4,,,,,,,,,4,,,51,69
44880,note_off,120,0,3,,,,,,,,,2,,,55,0
44880,note_on,0,0,3,,,,,,,,,2,,,55,76
44880,note_off,120,0,4,,,,,,,,,4,,,51,0
44880,note_on,120,0,1,,,,,,,,,0,,,75,81
45000,note_off,120,0,4,,,,,,,,,4,,,51,0
45000,note_on,0,0,4,,,,,,,,,4,,,50,69
45000,note_off,120,0,1,,,,,,,,,0,,,75,0
45000,note_on,0,0,3,,,,,,,,,2,,,55,76
45000,note_off,120,0,3,,,,,,,,,2,,,55,0
45000,note_on,0,0,3,,,,,,,,,2,,,51,77
45120,note_off,120,0,3,,,,,,,,,2,,,55,0
45120,note_off,0,0,3,,,,,,,,,2,,,51,0
45120,note_on,0,0,3,,,,,,,,,2,,,51,77
45120,note_on,0,0,3,,,,,,,,,2,,,55,76
45120,note_off,120,0,4,,,,,,,,,4,,,50,0
45120,note_on,0,0,4,,,,,,,,,4,,,50,70
45240,note_off,120,0,3,,,,,,,,,2,,,55,0
45240,note_off,0,0,3,,,,,,,,,2,,,51,0
45240,note_on,0,0,4,,,,,,,,,4,,,48,70
45240,note_off,120,0,4,,,,,,,,,4,,,50,0
45240,note_on,0,0,3,,,,,,,,,2,,,55,77
45240,note_on,0,0,3,,,,,,,,,2,,,51,77
45360,note_off,120,0,3,,,,,,,,,2,,,55,0
45360,note_on,0,0,3,,,,,,,,,2,,,51,77
45360,note_off,0,0,3,,,,,,,,,2,,,51,0
45360,note_on,0,0,3,,,,,,,,,2,,,55,77
45360,note_off,120,0,4,,,,,,,,,4,,,48,0
45360,note_on,0,0,4,,,,,,,,,4,,,48,71
45480,note_on,0,0,3,,,,,,,,,2,,,55,77
45480,note_off,0,0,3,,,,,,,,,2,,,51,0
45480,note_off,120,0,3,,,,,,,,,2,,,55,0
45480,note_off,120,0,4,,,,,,,,,4,,,48,0
45480,note_on,0,0,4,,,,,,,,,4,,,46,71
45480,note_on,480,0,1,,,,,,,,,0,,,87,84
45480,note_on,0,0,3,,,,,,,,,2,,,51,77
45600,note_off,120,0,3,,,,,,,,,2,,,55,0
45600,note_off,0,0,3,,,,,,,,,2,,,51,0
45600,note_on,0,0,3,,,,,,,,,2,,,51,78
45600,note_on,0,0,3,,,,,,,,,2,,,55,78
45600,note_off,120,0,4,,,,,,,,,4,,,46,0
45600,note_off,0,0,4,,,,,,,,,4,,,43,0
45600,note_off,120,0,1,,,,,,,,,0,,,87,0
45600,note_on,0,0,1,,,,,,,,,0,,,89,86
45600,note_on,0,0,4,,,,,,,,,4,,,46,72
45696,note_off,96,0,1,,,,,,,,,0,,,89,0
45720,note_off,120,0,4,,,,,,,,,4,,,46,0
45720,note_on,24,0,1,,,,,,,,,0,,,91,88
45720,note_off,120,0,3,,,,,,,,,2,,,55,0
45720,note_off,0,0,3,,,,,,,,,2,,,51,0
45720,note_on,0,0,3,,,,,,,,,2,,,51,78
45720,note_on,0,0,3,,,,,,,,,2,,,55,78
45720,note_on,0,0,4,,,,,,,,,4,,,44,72
45840,note_off,120,0,3,,,,,,,,,2,,,55,0
45840,note_off,0,0,3,,,,,,,,,2,,,51,0
45840,note_off,120,0,4,,,,,,,,,4,,,44,0
45840,note_on,0,0,3,,,,,,,,,2,,,55,78
45840,note_on,0,0,3,,,,,,,,,2,,,51,78
45840,note_off,120,0,1,,,,,,,,,0,,,91,0
45840,note_on,0,0,1,,,,,,,,,0,,,92,89
45840,note_on,0,0,4,,,,,,,,,4,,,43,72
45900,set_tempo,1200,1,0,,,,,,1071428,,,,,,,
45936,note_off,96,0,1,,,,,,,,,0,,,92,0
45960,note_on,0,0,3,,,,,,,,,2,,,51,79
45960,set_tempo,60,1,0,,,,,,1176470,,,,,,,
45960,note_on,24,0,1,,,,,,,,,0,,,94,91
45960,note_on,0,0,3,,,,,,,,,2,,,55,79
45960,note_off,0,0,3,,,,,,,,,2,,,51,0
45960,note_off,120,0,3,,,,,,,,,2,,,55,0
45960,note_off,120,0,4,,,,,,,,,4,,,43,0
45960,note_on,0,0,4,,,,,,,,,4,,,43,73
46080,set_tempo,120,1,0,,,,,,1224489,,,,,,,
46080,note_on,0,0,3,,,,,,,,,2,,,53,79
46080,note_on,0,0,1,,,,,,,,,0,,,96,98
46080,note_off,120,0,1,,,,,,,,,0,,,94,0
46080,note_on,0,0,3,,,,,,,,,2,,,51,79
46080,note_off,0,0,3,,,,,,,,,2,,,51,0
46080,note_on,0,0,4,,,,,,,,,4,,,44,73
46080,note_off,120,0,4,,,,,,,,,4,,,43,0
46080,note_off,120,0,3,,,,,,,,,2,,,55,0
46560,note_off,480,0,4,,,,,,,,,4,,,44,0
46560,note_off,0,0,3,,,,,,,,,2,,,51,0
46560,note_off,480,0,3,,,,,,,,,2,,,53,0
46560,note_off,480,0,1,,,,,,,,,0,,,96,0
46910,set_tempo,830,1,0,,,,,,1071428,,,,,,,
46920,note_on,360,0,4,,,,,,,,,4,,,45,46
46920,note_on,360,0,1,,,,,,,,,0,,,65,44
46920,note_on,360,0,3,,,,,,,,,2,,,51,46
46920,note_on,0,0,3,,,,,,,,,2,,,53,46
47040,note_off,120,0,1,,,,,,,,,0,,,65,0
47040,note_on,0,0,1,,,,,,,,,0,,,70,46
47040,note_off,120,0,3,,,,,,,,,2,,,53,0
47040,note_off,0,0,3,,,,,,,,,2,,,51,0
47040,note_on,0,0,3,,,,,,,,,2,,,50,47
47040,note_on,0,0,3,,,,,,,,,2,,,53,47
47040,note_on,9203,0,2,,,,,,,,,1,,,65,46
47040,note_off,120,0,4,,,,,,,,,4,,,45,0
47040,note_on,0,0,4,,,,,,,,,4,,,46,47
47280,note_off,240,0,1,,,,,,,,,0,,,70,0
47280,note_off,240,0,2,,,,,,,,,1,,,65,0
47280,note_off,240,0,4,,,,,,,,,4,,,46,0
47280,note_off,0,0,3,,,,,,,,,2,,,50,0
47280,note_off,240,0,3,,,,,,,,,2,,,53,0
47400,note_on,120,0,4,,,,,,,,,4,,,46,52
47400,note_on,120,0,3,,,,,,,,,2,,,50,52
47400,note_on,120,0,2,,,,,,,,,1,,,65,51
47400,note_on,120,0,1,,,,,,,,,0,,,70,51
47400,set_tempo,490,1,0,,,,,,1111111,,,,,,,
47520,note_off,120,0,1,,,,,,,,,0,,,70,0
47520,note_on,0,0,1,,,,,,,,,0,,,69,52
47520,note_off,120,0,2,,,,,,,,,1,,,65,0
47520,note_on,0,0,4,,,,,,,,,4,,,48,53
47520,note_on,0,0,3,,,,,,,,,2,,,51,53
47520,note_off,120,0,3,,,,,,,,,2,,,50,0
47520,note_off,120,0,4,,,,,,,,,4,,,46,0
47520,note_on,0,0,2,,,,,,,,,1,,,65,52
47520,set_tempo,120,1,0,,,,,,1071428,,,,,,,
48000,note_off,480,0,2,,,,,,,,,1,,,65,0
48000,note_on,0,0,4,,,,,,,,,4,,,50,47
48000,note_off,480,0,4,,,,,,,,,4,,,48,0
48000,note_on,0,0,3,,,,,,,,,2,,,59,47
48000,note_off,480,0,3,,,,,,,,,2,,,51,0
48000,note_on,0,0,2,,,,,,,,,1,,,65,47
48000,note_on,0,0,1,,,,,,,,,0,,,68,47
48000,note_off,480,0,1,,,,,,,,,0,,,69,0
48360,set_tempo,840,1,0,,,,,,1111111,,,,,,,
48480,note_off,480,0,1,,,,,,,,,0,,,68,0
48480,note_on,0,0,1,,,,,,,,,0,,,67,42
48480,note_off,480,0,3,,,,,,,,,2,,,59,0
48480,note_on,0,0,4,,,,,,,,,4,,,51,47
48480,note_off,480,0,4,,,,,,,,,4,,,50,0
48480,note_on,0,0,3,,,,,,,,,2,,,58,47
48480,note_off,480,0,2,,,,,,,,,1,,,65,0
48600,set_tempo,240,1,0,,,,,,1071428,,,,,,,
48600,note_off,120,0,1,,,,,,,,,0,,,67,0
48600,note_on,0,0,1,,,,,,,,,0,,,87,48
48600,note_off,120,0,3,,,,,,,,,2,,,58,0
48600,note_on,0,0,3,,,,,,,,,2,,,67,46
48600,note_on,0,0,4,,,,,,,,,4,,,63,46
48600,note_off,120,0,4,,,,,,,,,4,,,51,0
48720,note_on,0,0,3,,,,,,,,,2,,,68,48
48720,note_on,0,0,4,,,,,,,,,4,,,65,48
48720,note_off,120,0,4,,,,,,,,,4,,,63,0
48720,note_off,120,0,1,,,,,,,,,0,,,87,0
48720,note_on,0,0,1,,,,,,,,,0,,,86,50
48720,note_off,120,0,3,,,,,,,,,2,,,67,0
48840,note_off,120,0,1,,,,,,,,,0,,,86,0
48840,note_off,120,0,3,,,,,,,,,2,,,68,0
48840,note_on,0,0,3,,,,,,,,,2,,,70,50
48840,note_off,120,0,4,,,,,,,,,4,,,65,0
48840,note_on,0,0,4,,,,,,,,,4,,,67,50
48840,note_on,0,0,1,,,,,,,,,0,,,85,51
48922,set_tempo,322,1,0,,,,,,1111111,,,,,,,
48960,note_on,0,0,3,,,,,,,,,2,,,72,55
48960,note_off,120,0,3,,,,,,,,,2,,,70,0
48960,set_tempo,38,1,0,,,,,,1071428,,,,,,,
48960,note_off,120,0,4,,,,,,,,,4,,,67,0
48960,note_on,0,0,4,,,,,,,,,4,,,68,55
48960,note_on,0,0,1,,,,,,,,,0,,,84,53
48960,note_off,120,0,1,,,,,,,,,0,,,85,0
49020,note_on,0,0,1,,,,,,,,,0,,,82,53
49020,note_off,60,0,1,,,,,,,,,0,,,84,0
49080,note_on,0,0,1,,,,,,,,,0,,,80,54
49080,note_off,60,0,1,,,,,,,,,0,,,82,0
49140,note_on,0,0,1,,,,,,,,,0,,,79,55
49140,note_off,60,0,1,,,,,,,,,0,,,80,0
49200,note_off,60,0,1,,,,,,,,,0,,,79,0
49200,note_on,0,0,1,,,,,,,,,0,,,78,56
49200,note_off,240,0,4,,,,,,,,,4,,,68,0
49200,note_off,240,0,3,,,,,,,,,2,,,72,0
49260,note_on,0,0,1,,,,,,,,,0,,,77,57
49260,note_off,60,0,1,,,,,,,,,0,,,78,0
49320,note_off,60,0,1,,,,,,,,,0,,,77,0
49320,note_on,0,0,1,,,,,,,,,0,,,76,57
49380,note_off,60,0,1,,,,,,,,,0,,,76,0
49380,note_on,0,0,1,,,,,,,,,0,,,75,58
49440,note_off,60,0,1,,,,,,,,,0,,,75,0
49440,note_on,0,0,1,,,,,,,,,0,,,74,59
49500,note_off,60,0,1,,,,,,,,,0,,,74,0
49500,note_on,0,0,1,,,,,,,,,0,,,73,60
49560,note_on,0,0,1,,,,,,,,,0,,,72,60
49560,note_off,60,0,1,,,,,,,,,0,,,73,0
49620,note_on,0,0,1,,,,,,,,,0,,,71,61
49620,note_off,60,0,1,,,,,,,,,0,,,72,0
49680,note_off,60,0,1,,,,,,,,,0,,,71,0
49680,note_on,0,0,1,,,,,,,,,0,,,70,59
49740,note_off,60,0,1,,,,,,,,,0,,,70,0
49740,note_on,0,0,1,,,,,,,,,0,,,68,57
49800,note_off,60,0,1,,,,,,,,,0,,,68,0
49800,note_on,0,0,1,,,,,,,,,0,,,67,55
49800,note_on,600,0,4,,,,,,,,,4,,,45,49
49800,note_on,0,0,3,,,,,,,,,2,,,53,49
49800,note_on,600,0,3,,,,,,,,,2,,,51,49
49860,note_on,0,0,1,,,,,,,,,0,,,65,53
49860,set_tempo,900,1,0,,,,,,1111111,,,,,,,
49860,note_off,60,0,1,,,,,,,,,0,,,67,0
49920,note_off,60,0,1,,,,,,,,,0,,,65,0
49920,note_on,0,0,4,,,,,,,,,4,,,46,48
49920,note_on,1440,0,2,,,,,,,,,1,,,62,51
49920,note_on,0,0,1,,,,,,,,,0,,,70,51
49920,note_off,120,0,4,,,,,,,,,4,,,45,0
49920,note_off,0,0,3,,,,,,,,,2,,,51,0
49920,note_on,0,0,3,,,,,,,,,2,,,53,48
49920,note_off,120,0,3,,,,,,,,,2,,,53,0
50160,note_off,240,0,2,,,,,,,,,1,,,62,0
50160,note_off,240,0,4,,,,,,,,,4,,,46,0
50160,note_off,240,0,1,,,,,,,,,0,,,70,0
50160,note_off,240,0,3,,,,,,,,,2,,,53,0
50280,note_on,120,0,3,,,,,,,,,2,,,56,52
50280,note_on,120,0,4,,,,,,,,,4,,,46,52
50280,set_tempo,420,1,0,,,,,,1132075,,,,,,,
50280,note_on,120,0,2,,,,,,,,,1,,,62,52
50280,note_on,120,0,1,,,,,,,,,0,,,70,52
50400,note_on,0,0,4,,,,,,,,,4,,,51,55
50400,note_off,120,0,4,,,,,,,,,4,,,46,0
50400,note_off,120,0,2,,,,,,,,,1,,,62,0
50400,note_on,0,0,2,,,,,,,,,1,,,63,56
50400,note_off,120,0,1,,,,,,,,,0,,,70,0
50400,note_off,120,0,3,,,,,,,,,2,,,56,0
50400,note_on,0,0,1,,,,,,,,,0,,,70,56
50400,set_tempo,120,1,0,,,,,,1111111,,,,,,,
50400,note_on,0,0,3,,,,,,,,,2,,,55,55
50640,note_on,0,0,3,,,,,,,,,2,,,56,53
50640,note_off,240,0,3,,,,,,,,,2,,,55,0
50640,note_off,240,0,1,,,,,,,,,0,,,70,0
50640,note_on,0,0,1,,,,,,,,,0,,,72,57
50760,note_on,0,0,1,,,,,,,,,0,,,70,57
50760,note_off,120,0,1,,,,,,,,,0,,,72,0
50760,note_off,120,0,3,,,,,,,,,2,,,56,0
50760,note_on,0,0,3,,,,,,,,,2,,,55,53
50880,note_on,0,0,1,,,,,,,,,0,,,68,56
50880,note_off,120,0,1,,,,,,,,,0,,,70,0
50880,note_off,120,0,3,,,,,,,,,2,,,55,0
50880,note_on,0,0,3,,,,,,,,,2,,,53,53
51000,note_on,0,0,1,,,,,,,,,0,,,67,56
51000,note_off,600,0,4,,,,,,,,,4,,,51,0
51000,note_off,120,0,3,,,,,,,,,2,,,53,0
51000,note_off,120,0,1,,,,,,,,,0,,,68,0
51000,note_on,0,0,3,,,,,,,,,2,,,51,53
51120,note_on,0,0,1,,,,,,,,,0,,,65,56
51120,note_off,120,0,1,,,,,,,,,0,,,67,0
51120,note_on,0,0,3,,,,,,,,,2,,,50,53
51120,note_off,120,0,3,,,,,,,,,2,,,51,0
51240,note_off,120,0,3,,,,,,,,,2,,,50,0
51240,note_on,0,0,3,,,,,,,,,2,,,51,52
51240,note_on,0,0,1,,,,,,,,,0,,,67,55
51240,note_off,120,0,1,,,,,,,,,0,,,65,0
51360,note_off,120,0,1,,,,,,,,,0,,,67,0
51360,note_on,360,0,4,,,,,,,,,4,,,46,52
51360,note_on,0,0,1,,,,,,,,,0,,,68,55
51360,note_on,0,0,3,,,,,,,,,2,,,53,52
51360,note_off,120,0,3,,,,,,,,,2,,,51,0
51480,note_on,0,0,2,,,,,,,,,1,,,60,55
51480,note_off,1080,0,2,,,,,,,,,1,,,63,0
51600,note_on,0,0,2,,,,,,,,,1,,,63,55
51600,note_off,120,0,2,,,,,,,,,1,,,60,0
51720,note_off,120,0,2,,,,,,,,,1,,,63,0
51720,set_tempo,1320,1,0,,,,,,1132075,,,,,,,
51720,note_on,0,0,2,,,,,,,,,1,,,62,54
51840,note_on,0,0,3,,,,,,,,,2,,,51,52
51840,note_off,480,0,3,,,,,,,,,2,,,53,0
51840,note_off,480,0,4,,,,,,,,,4,,,46,0
51840,note_on,0,0,4,,,,,,,,,4,,,39,52
51840,note_on,0,0,1,,,,,,,,,0,,,67,54
51840,set_tempo,120,1,0,,,,,,1111111,,,,,,,
51840,note_on,0,0,2,,,,,,,,,1,,,63,54
51840,note_off,120,0,2,,,,,,,,,1,,,62,0
51840,note_off,480,0,1,,,,,,,,,0,,,68,0
51960,note_off,120,0,3,,,,,,,,,2,,,51,0
51960,note_on,0,0,3,,,,,,,,,2,,,43,51
51960,note_on,0,0,2,,,,,,,,,1,,,58,54
51960,note_off,120,0,2,,,,,,,,,1,,,63,0
52080,note_on,0,0,3,,,,,,,,,2,,,44,51
52080,note_on,0,0,2,,,,,,,,,1,,,60,53
52080,note_off,120,0,2,,,,,,,,,1,,,58,0
52080,note_off,120,0,3,,,,,,,,,2,,,43,0
52080,note_off,240,0,1,,,,,,,,,0,,,67,0
52200,note_on,0,0,2,,,,,,,,,1,,,58,53
52200,note_off,120,0,2,,,,,,,,,1,,,60,0
52200,note_on,0,0,3,,,,,,,,,2,,,43,51
52200,note_off,120,0,3,,,,,,,,,2,,,44,0
52320,note_on,0,0,2,,,,,,,,,1,,,56,53
52320,note_off,120,0,2,,,,,,,,,1,,,58,0
52320,note_on,0,0,3,,,,,,,,,2,,,41,51
52320,note_off,120,0,3,,,,,,,,,2,,,43,0
52440,note_on,0,0,3,,,,,,,,,2,,,39,51
52440,note_off,120,0,2,,,,,,,,,1,,,56,0
52440,note_off,600,0,4,,,,,,,,,4,,,39,0
52440,note_off,120,0,3,,,,,,,,,2,,,41,0
52440,note_on,0,0,2,,,,,,,,,1,,,55,52
52560,note_on,0,0,3,,,,,,,,,2,,,38,51
52560,note_on,0,0,2,,,,,,,,,1,,,53,52
52560,note_off,120,0,2,,,,,,,,,1,,,55,0
52560,note_off,120,0,3,,,,,,,,,2,,,39,0
52680,note_on,0,0,2,,,,,,,,,1,,,55,52
52680,note_off,120,0,2,,,,,,,,,1,,,53,0
52680,note_on,0,0,3,,,,,,,,,2,,,39,50
52680,note_off,120,0,3,,,,,,,,,2,,,38,0
52800,note_off,120,0,3,,,,,,,,,2,,,39,0
52800,note_on,0,0,3,,,,,,,,,2,,,41,50
52800,note_on,720,0,1,,,,,,,,,0,,,63,52
52800,note_off,120,0,2,,,,,,,,,1,,,55,0
52800,note_on,0,0,2,,,,,,,,,1,,,56,52
52800,note_on,360,0,4,,,,,,,,,4,,,34,50
52920,note_off,120,0,1,,,,,,,,,0,,,63,0
52920,note_on,0,0,1,,,,,,,,,0,,,60,51
53040,note_off,120,0,1,,,,,,,,,0,,,60,0
53040,note_on,0,0,1,,,,,,,,,0,,,63,51
53160,set_tempo,1320,1,0,,,,,,1132075,,,,,,,
53160,note_off,120,0,1,,,,,,,,,0,,,63,0
53160,note_on,0,0,1,,,,,,,,,0,,,62,51
53280,note_off,480,0,2,,,,,,,,,1,,,56,0
53280,note_on,0,0,2,,,,,,,,,1,,,55,50
53280,note_on,0,0,1,,,,,,,,,0,,,65,50
53280,note_off,480,0,4,,,,,,,,,4,,,34,0
53280,note_on,0,0,4,,,,,,,,,4,,,39,50
53280,set_tempo,120,1,0,,,,,,1111111,,,,,,,
53280,note_on,0,0,3,,,,,,,,,2,,,43,50
53280,note_off,480,0,3,,,,,,,,,2,,,41,0
53280,note_off,120,0,1,,,,,,,,,0,,,62,0
53400,note_off,120,0,1,,,,,,,,,0,,,65,0
53400,note_on,0,0,1,,,,,,,,,0,,,62,50
53520,note_off,120,0,1,,,,,,,,,0,,,62,0
53520,note_on,0,0,1,,,,,,,,,0,,,65,50
53640,note_off,120,0,1,,,,,,,,,0,,,65,0
53640,note_on,0,0,1,,,,,,,,,0,,,63,49
53715,set_tempo,435,1,0,,,,,,1132075,,,,,,,
53760,note_on,0,0,3,,,,,,,,,2,,,43,49
53760,note_off,120,0,1,,,,,,,,,0,,,63,0
53760,note_on,0,0,1,,,,,,,,,0,,,68,49
53760,set_tempo,45,1,0,,,,,,1111111,,,,,,,
53760,note_off,480,0,2,,,,,,,,,1,,,55,0
53760,note_on,0,0,4,,,,,,,,,4,,,51,49
53760,note_on,0,0,4,,,,,,,,,4,,,39,49
53760,note_off,480,0,4,,,,,,,,,4,,,39,0
53760,note_off,480,0,3,,,,,,,,,2,,,43,0
53760,note_on,0,0,3,,,,,,,,,2,,,46,49
53880,note_on,0,0,1,,,,,,,,,0,,,65,49
53880,note_off,120,0,1,,,,,,,,,0,,,68,0
54000,note_on,0,0,1,,,,,,,,,0,,,68,49
54000,note_off,120,0,1,,,,,,,,,0,,,65,0
54120,note_on,0,0,1,,,,,,,,,0,,,67,48
54120,note_off,120,0,1,,,,,,,,,0,,,68,0
54240,note_off,120,0,1,,,,,,,,,0,,,67,0
54240,note_on,0,0,1,,,,,,,,,0,,,72,48
54360,note_off,120,0,1,,,,,,,,,0,,,72,0
54360,note_on,0,0,1,,,,,,,,,0,,,69,48
54480,note_on,0,0,1,,,,,,,,,0,,,72,47
54480,note_off,120,0,1,,,,,,,,,0,,,69,0
54600,note_on,0,0,1,,,,,,,,,0,,,70,47
54600,note_off,120,0,1,,,,,,,,,0,,,72,0
54720,note_on,0,0,1,,,,,,,,,0,,,77,47
54720,note_off,120,0,1,,,,,,,,,0,,,70,0
54840,note_on,0,0,1,,,,,,,,,0,,,74,46
54840,note_off,120,0,1,,,,,,,,,0,,,77,0
54960,note_on,0,0,1,,,,,,,,,0,,,77,46
54960,note_off,120,0,1,,,,,,,,,0,,,74,0
55080,note_on,0,0,1,,,,,,,,,0,,,75,46
55080,note_off,120,0,1,,,,,,,,,0,,,77,0
55177,set_tempo,1417,1,0,,,,,,1132075,,,,,,,
55200,note_on,0,0,3,,,,,,,,,2,,,58,47
55200,note_off,1440,0,4,,,,,,,,,4,,,51,0
55200,note_off,0,0,4,,,,,,,,,4,,,39,0
55200,note_on,0,0,4,,,,,,,,,4,,,63,47
55200,note_on,0,0,4,,,,,,,,,4,,,51,47
55200,note_off,1440,0,3,,,,,,,,,2,,,43,0
55200,note_off,0,0,3,,,,,,,,,2,,,46,0
55200,note_on,0,0,3,,,,,,,,,2,,,55,47
55200,set_tempo,23,1,0,,,,,,1111111,,,,,,,
55200,note_off,120,0,1,,,,,,,,,0,,,75,0
55200,note_on,0,0,1,,,,,,,,,0,,,80,45
55320,note_off,120,0,1,,,,,,,,,0,,,80,0
55320,note_on,0,0,1,,,,,,,,,0,,,77,45
55440,note_off,120,0,1,,,,,,,,,0,,,77,0
55440,note_on,0,0,1,,,,,,,,,0,,,80,45
55560,note_off,120,0,1,,,,,,,,,0,,,80,0
55560,note_on,0,0,1,,,,,,,,,0,,,79,45
55642,set_tempo,442,1,0,,,,,,1132075,,,,,,,
55680,note_off,0,0,4,,,,,,,,,4,,,63,0
55680,set_tempo,38,1,0,,,,,,1111111,,,,,,,
55680,note_off,480,0,4,,,,,,,,,4,,,51,0
55680,note_off,480,0,3,,,,,,,,,2,,,55,0
55680,note_off,0,0,3,,,,,,,,,2,,,58,0
55680,note_on,0,0,3,,,,,,,,,2,,,58,46
55680,note_on,0,0,3,,,,,,,,,2,,,55,46
55680,note_off,120,0,1,,,,,,,,,0,,,79,0
55680,note_on,0,0,1,,,,,,,,,0,,,84,44
55680,note_on,0,0,4,,,,,,,,,4,,,51,46
55680,note_on,0,0,4,,,,,,,,,4,,,63,46
55800,note_off,120,0,1,,,,,,,,,0,,,84,0
55800,note_on,0,0,1,,,,,,,,,0,,,81,44
55920,note_off,120,0,1,,,,,,,,,0,,,81,0
55920,note_on,0,0,1,,,,,,,,,0,,,84,44
56017,set_tempo,337,1,0,,,,,,1132075,,,,,,,
56040,note_off,120,0,1,,,,,,,,,0,,,84,0
56040,note_on,0,0,1,,,,,,,,,0,,,82,43
56040,set_tempo,23,1,0,,,,,,1176470,,,,,,,
56160,note_off,120,0,1,,,,,,,,,0,,,82,0
56160,note_off,0,0,4,,,,,,,,,4,,,63,0
56160,note_on,0,0,4,,,,,,,,,4,,,63,46
56160,note_on,0,0,4,,,,,,,,,4,,,51,46
56160,note_on,0,0,1,,,,,,,,,0,,,87,43
56160,note_on,0,0,3,,,,,,,,,2,,,55,46
56160,note_on,0,0,3,,,,,,,,,2,,,58,46
56160,note_off,480,0,4,,,,,,,,,4,,,51,0
56160,note_off,0,0,3,,,,,,,,,2,,,58,0
56160,note_off,480,0,3,,,,,,,,,2,,,55,0
56640,note_off,480,0,3,,,,,,,,,2,,,55,0
56640,note_off,0,0,3,,,,,,,,,2,,,58,0
56640,note_on,0,0,4,,,,,,,,,4,,,39,45
56640,note_off,0,0,4,,,,,,,,,4,,,63,0
56640,note_off,480,0,4,,,,,,,,,4,,,51,0
57120,note_on,3360,0,2,,,,,,,,,1,,,75,41
57120,note_on,480,0,4,,,,,,,,,4,,,51,44
57240,set_tempo,1200,1,0,,,,,,1224489,,,,,,,
57600,note_off,0,0,4,,,,,,,,,4,,,39,0
57600,note_off,480,0,4,,,,,,,,,4,,,51,0
57600,note_off,480,0,2,,,,,,,,,1,,,75,0
57600,note_on,0,0,4,,,,,,,,,4,,,37,44
57600,note_off,1440,0,1,,,,,,,,,0,,,87,0
57600,note_on,0,0,1,,,,,,,,,0,,,85,39
58080,note_on,480,0,4,,,,,,,,,4,,,49,38
58310,set_tempo,1070,1,0,,,,,,1276595,,,,,,,
58540,set_tempo,230,1,0,,,,,,1578947,,,,,,,
58560,note_on,960,0,2,,,,,,,,,1,,,73,37
59040,note_off,1440,0,1,,,,,,,,,0,,,85,0
59040,note_on,0,0,1,,,,,,,,,0,,,84,40
59040,note_on,0,0,4,,,,,,,,,4,,,36,38
59040,note_on,0,0,4,,,,,,,,,4,,,48,38
59040,set_tempo,500,1,0,,,,,,1071428,,,,,,,
59040,note_off,0,0,4,,,,,,,,,4,,,37,0
59040,note_off,960,0,4,,,,,,,,,4,,,49,0
59040,note_on,0,0,2,,,,,,,,,1,,,72,40
59040,note_off,480,0,2,,,,,,,,,1,,,73,0
59160,note_on,2520,0,3,,,,,,,,,2,,,56,36
59160,note_on,0,0,3,,,,,,,,,2,,,53,36
59280,note_off,0,0,3,,,,,,,,,2,,,56,0
59280,note_on,0,0,3,,,,,,,,,2,,,53,36
59280,note_on,0,0,3,,,,,,,,,2,,,56,36
59280,note_off,120,0,3,,,,,,,,,2,,,53,0
59400,note_on,0,0,3,,,,,,,,,2,,,53,36
59400,note_off,120,0,3,,,,,,,,,2,,,56,0
59400,note_off,0,0,3,,,,,,,,,2,,,53,0
59400,note_on,0,0,3,,,,,,,,,2,,,56,36
59520,note_on,0,0,4,,,,,,,,,4,,,48,39
59520,note_off,0,0,3,,,,,,,,,2,,,53,0
59520,note_off,480,0,4,,,,,,,,,4,,,48,0
59520,note_off,120,0,3,,,,,,,,,2,,,56,0
59640,note_on,120,0,3,,,,,,,,,2,,,53,37
59640,note_on,0,0,3,,,,,,,,,2,,,56,37
59760,note_off,120,0,3,,,,,,,,,2,,,56,0
59760,note_off,0,0,3,,,,,,,,,2,,,53,0
59760,note_on,0,0,3,,,,,,,,,2,,,53,37
59760,note_on,0,0,3,,,,,,,,,2,,,56,37
59760,note_on,0,0,1,,,,,,,,,0,,,80,43
59760,note_off,720,0,1,,,,,,,,,0,,,84,0
59880,note_off,120,0,3,,,,,,,,,2,,,56,0
59880,note_off,0,0,3,,,,,,,,,2,,,53,0
59880,note_on,0,0,3,,,,,,,,,2,,,56,37
59880,note_on,0,0,3,,,,,,,,,2,,,53,37
60000,note_on,0,0,4,,,,,,,,,4,,,48,40
60000,note_off,480,0,4,,,,,,,,,4,,,48,0
60000,note_off,0,0,3,,,,,,,,,2,,,56,0
60000,note_off,120,0,3,,,,,,,,,2,,,53,0
60000,note_off,240,0,1,,,,,,,,,0,,,80,0
60000,note_on,0,0,1,,,,,,,,,0,,,80,44
60120,note_on,120,0,3,,,,,,,,,2,,,53,38
60120,note_on,0,0,3,,,,,,,,,2,,,56,38
60240,note_off,120,0,3,,,,,,,,,2,,,56,0
60240,note_off,0,0,3,,,,,,,,,2,,,53,0
60240,note_on,0,0,3,,,,,,,,,2,,,53,38
60240,note_on,0,0,3,,,,,,,,,2,,,56,38
60360,set_tempo,1320,1,0,,,,,,1111111,,,,,,,
60360,note_off,0,0,3,,,,,,,,,2,,,53,0
60360,note_off,360,0,1,,,,,,,,,0,,,80,0
60360,note_on,0,0,3,,,,,,,,,2,,,56,38
60360,note_on,0,0,3,,,,,,,,,2,,,53,38
60360,note_off,120,0,3,,,,,,,,,2,,,56,0
60360,note_on,0,0,1,,,,,,,,,0,,,80,46
60480,note_on,0,0,4,,,,,,,,,4,,,48,42
60480,note_off,120,0,3,,,,,,,,,2,,,53,0
60480,note_off,0,0,3,,,,,,,,,2,,,56,0
60480,note_on,0,0,2,,,,,,,,,1,,,79,46
60480,note_off,1440,0,2,,,,,,,,,1,,,72,0
60480,note_off,480,0,4,,,,,,,,,4,,,48,0
60480,note_on,0,0,2,,,,,,,,,1,,,82,46
60480,note_on,0,0,1,,,,,,,,,0,,,85,46
60480,note_off,120,0,1,,,,,,,,,0,,,80,0
60480,note_on,0,0,2,,,,,,,,,1,,,76,46
60480,set_tempo,120,1,0,,,,,,1071428,,,,,,,
60600,note_on,120,0,3,,,,,,,,,2,,,58,39
60600,note_on,0,0,3,,,,,,,,,2,,,55,39
60720,note_off,120,0,3,,,,,,,,,2,,,55,0
60720,note_off,0,0,3,,,,,,,,,2,,,58,0
60720,note_on,0,0,3,,,,,,,,,2,,,58,39
60720,note_on,0,0,3,,,,,,,,,2,,,55,39
60840,note_on,0,0,3,,,,,,,,,2,,,55,39
60840,note_on,0,0,3,,,,,,,,,2,,,58,39
60840,note_off,0,0,3,,,,,,,,,2,,,58,0
60840,note_off,120,0,3,,,,,,,,,2,,,55,0
60960,note_off,0,0,2,,,,,,,,,1,,,82,0
60960,note_off,480,0,4,,,,,,,,,4,,,48,0
60960,note_on,0,0,4,,,,,,,,,4,,,48,43
60960,note_off,480,0,1,,,,,,,,,0,,,85,0
60960,note_on,0,0,2,,,,,,,,,1,,,76,48
60960,note_off,480,0,2,,,,,,,,,1,,,76,0
60960,note_on,0,0,1,,,,,,,,,0,,,82,48
60960,note_off,0,0,3,,,,,,,,,2,,,58,0
60960,note_off,120,0,3,,,,,,,,,2,,,55,0
60960,note_on,0,0,2,,,,,,,,,1,,,79,48
60960,note_off,0,0,2,,,,,,,,,1,,,79,0
61080,note_on,120,0,3,,,,,,,,,2,,,58,40
61080,note_on,0,0,3,,,,,,,,,2,,,55,40
61200,note_on,0,0,3,,,,,,,,,2,,,58,40
61200,note_off,0,0,3,,,,,,,,,2,,,58,0
61200,note_on,0,0,3,,,,,,,,,2,,,55,40
61200,note_off,120,0,3,,,,,,,,,2,,,55,0
61320,note_off,120,0,3,,,,,,,,,2,,,55,0
61320,note_off,0,0,3,,,,,,,,,2,,,58,0
61320,note_on,0,0,3,,,,,,,,,2,,,55,40
61320,note_on,0,0,3,,,,,,,,,2,,,58,40
61440,note_on,0,0,4,,,,,,,,,4,,,48,44
61440,note_off,480,0,4,,,,,,,,,4,,,48,0
61440,note_off,0,0,3,,,,,,,,,2,,,58,0
61440,note_off,120,0,3,,,,,,,,,2,,,55,0
61560,note_on,0,0,3,,,,,,,,,2,,,55,41
61560,note_on,120,0,3,,,,,,,,,2,,,58,41
61680,note_on,0,0,3,,,,,,,,,2,,,55,41
61680,note_on,0,0,3,,,,,,,,,2,,,58,41
61680,note_off,120,0,3,,,,,,,,,2,,,55,0
61680,note_off,0,0,3,,,,,,,,,2,,,58,0
61747,set_tempo,1267,1,0,,,,,,1111111,,,,,,,
61800,set_tempo,53,1,0,,,,,,1132075,,,,,,,
61800,note_on,0,0,3,,,,,,,,,2,,,55,42
61800,note_on,0,0,3,,,,,,,,,2,,,58,42
61800,note_off,0,0,3,,,,,,,,,2,,,58,0
61800,note_off,120,0,3,,,,,,,,,2,,,55,0
61920,note_off,0,0,3,,,,,,,,,2,,,58,0
61920,note_off,960,0,1,,,,,,,,,0,,,82,0
61920,note_off,480,0,4,,,,,,,,,4,,,48,0
61920,note_on,0,0,4,,,,,,,,,4,,,48,46
61920,note_off,120,0,3,,,,,,,,,2,,,55,0
61920,note_on,0,0,2,,,,,,,,,1,,,76,53
61920,note_on,0,0,1,,,,,,,,,0,,,82,53
61920,note_off,960,0,2,,,,,,,,,1,,,76,0
61920,note_off,0,0,2,,,,,,,,,1,,,79,0
61920,note_on,0,0,2,,,,,,,,,1,,,79,53
61920,set_tempo,120,1,0,,,,,,1071428,,,,,,,
62040,note_on,0,0,3,,,,,,,,,2,,,52,42
62040,note_on,120,0,3,,,,,,,,,2,,,55,42
62160,note_on,0,0,3,,,,,,,,,2,,,52,42
62160,note_off,0,0,3,,,,,,,,,2,,,55,0
62160,note_off,120,0,3,,,,,,,,,2,,,52,0
62160,note_on,0,0,3,,,,,,,,,2,,,55,42
62280,note_off,120,0,3,,,,,,,,,2,,,52,0
62280,note_on,0,0,3,,,,,,,,,2,,,52,43
62280,note_on,0,0,3,,,,,,,,,2,,,55,43
62280,note_off,0,0,3,,,,,,,,,2,,,55,0
62400,note_off,120,0,3,,,,,,,,,2,,,55,0
62400,note_off,0,0,3,,,,,,,,,2,,,52,0
62400,note_off,480,0,4,,,,,,,,,4,,,48,0
62400,note_on,0,0,4,,,,,,,,,4,,,48,47
62520,note_on,120,0,3,,,,,,,,,2,,,52,43
62520,note_on,0,0,3,,,,,,,,,2,,,55,43
62640,note_off,720,0,2,,,,,,,,,1,,,79,0
62640,note_off,120,0,3,,,,,,,,,2,,,55,0
62640,note_off,720,0,1,,,,,,,,,0,,,82,0
62640,note_on,0,0,3,,,,,,,,,2,,,55,43
62640,note_on,0,0,3,,,,,,,,,2,,,52,43
62640,note_off,0,0,3,,,,,,,,,2,,,52,0
62640,note_on,0,0,1,,,,,,,,,0,,,79,56
62760,note_on,0,0,3,,,,,,,,,2,,,55,44
62760,note_on,0,0,3,,,,,,,,,2,,,52,44
62760,note_off,0,0,3,,,,,,,,,2,,,52,0
62760,note_off,120,0,3,,,,,,,,,2,,,55,0
62880,note_on,0,0,1,,,,,,,,,0,,,79,57
62880,note_off,240,0,1,,,,,,,,,0,,,79,0
62880,note_off,0,0,3,,,,,,,,,2,,,52,0
62880,note_on,0,0,4,,,,,,,,,4,,,48,48
62880,note_off,120,0,3,,,,,,,,,2,,,55,0
62880,note_off,480,0,4,,,,,,,,,4,,,48,0
63000,note_on,120,0,3,,,,,,,,,2,,,52,44
63000,note_on,0,0,3,,,,,,,,,2,,,55,44
63120,note_off,120,0,3,,,,,,,,,2,,,55,0
63120,note_off,0,0,3,,,,,,,,,2,,,52,0
63120,note_on,0,0,3,,,,,,,,,2,,,52,45
63120,note_on,0,0,3,,,,,,,,,2,,,55,45
63240,set_tempo,1320,1,0,,,,,,1111111,,,,,,,
63240,note_off,360,0,1,,,,,,,,,0,,,79,0
63240,note_on,0,0,1,,,,,,,,,0,,,79,58
63240,note_on,0,0,3,,,,,,,,,2,,,52,45
63240,note_off,0,0,3,,,,,,,,,2,,,52,0
63240,note_off,120,0,3,,,,,,,,,2,,,55,0
63240,note_on,0,0,3,,,,,,,,,2,,,55,45
63360,note_on,0,0,2,,,,,,,,,1,,,77,59
63360,note_on,0,0,2,,,,,,,,,1,,,72,59
63360,set_tempo,120,1,0,,,,,,1071428,,,,,,,
63360,note_off,720,0,2,,,,,,,,,1,,,76,0
63360,note_off,480,0,4,,,,,,,,,4,,,48,0
63360,note_on,0,0,2,,,,,,,,,1,,,80,59
63360,note_on,0,0,1,,,,,,,,,0,,,84,59
63360,note_on,0,0,4,,,,,,,,,4,,,48,49
63360,note_off,120,0,1,,,,,,,,,0,,,79,0
63360,note_off,0,0,3,,,,,,,,,2,,,52,0
63360,note_off,120,0,3,,,,,,,,,2,,,55,0
63480,note_on,0,0,3,,,,,,,,,2,,,53,45
63480,note_on,120,0,3,,,,,,,,,2,,,56,45
63600,note_on,0,0,3,,,,,,,,,2,,,53,46
63600,note_on,0,0,3,,,,,,,,,2,,,56,46
63600,note_off,0,0,3,,,,,,,,,2,,,56,0
63600,note_off,120,0,3,,,,,,,,,2,,,53,0
63720,note_on,0,0,3,,,,,,,,,2,,,56,46
63720,note_off,0,0,3,,,,,,,,,2,,,56,0
63720,note_on,0,0,3,,,,,,,,,2,,,53,46
63720,note_off,120,0,3,,,,,,,,,2,,,53,0
63840,note_off,480,0,4,,,,,,,,,4,,,48,0
63840,note_on,0,0,4,,,,,,,,,4,,,48,51
63840,note_on,0,0,2,,,,,,,,,1,,,77,61
63840,note_off,480,0,1,,,,,,,,,0,,,84,0
63840,note_on,0,0,2,,,,,,,,,1,,,72,61
63840,note_on,0,0,1,,,,,,,,,0,,,80,61
63840,note_off,0,0,2,,,,,,,,,1,,,72,0
63840,note_off,0,0,2,,,,,,,,,1,,,80,0
63840,note_off,0,0,3,,,,,,,,,2,,,56,0
63840,note_off,120,0,3,,,,,,,,,2,,,53,0
63840,note_off,480,0,2,,,,,,,,,1,,,77,0
63960,note_on,120,0,3,,,,,,,,,2,,,56,46
63960,note_on,0,0,3,,,,,,,,,2,,,53,46
64080,note_on,0,0,3,,,,,,,,,2,,,53,47
64080,note_on,0,0,3,,,,,,,,,2,,,56,47
64080,note_off,0,0,3,,,,,,,,,2,,,56,0
64080,note_off,120,0,3,,,,,,,,,2,,,53,0
64200,note_on,0,0,3,,,,,,,,,2,,,53,47
64200,note_on,0,0,3,,,,,,,,,2,,,56,47
64200,note_off,0,0,3,,,,,,,,,2,,,56,0
64200,note_off,120,0,3,,,,,,,,,2,,,53,0
64320,note_off,480,0,4,,,,,,,,,4,,,48,0
64320,note_on,0,0,4,,,,,,,,,4,,,48,52
64320,note_off,0,0,3,,,,,,,,,2,,,56,0
64320,note_off,120,0,3,,,,,,,,,2,,,53,0
64440,note_on,0,0,3,,,,,,,,,2,,,56,48
64440,note_on,120,0,3,,,,,,,,,2,,,53,48
64560,note_on,0,0,3,,,,,,,,,2,,,53,48
64560,note_on,0,0,3,,,,,,,,,2,,,56,48
64560,note_off,0,0,3,,,,,,,,,2,,,53,0
64560,note_off,120,0,3,,,,,,,,,2,,,56,0
64627,set_tempo,1267,1,0,,,,,,1111111,,,,,,,
64680,set_tempo,53,1,0,,,,,,1176470,,,,,,,
64680,note_on,0,0,3,,,,,,,,,2,,,53,48
64680,note_off,120,0,3,,,,,,,,,2,,,53,0
64680,note_off,0,0,3,,,,,,,,,2,,,56,0
64680,note_on,0,0,3,,,,,,,,,2,,,56,48
64788,note_off,468,0,4,,,,,,,,,4,,,36,0
64800,note_on,0,0,2,,,,,,,,,1,,,72,65
64800,note_off,0,0,3,,,,,,,,,2,,,56,0
64800,note_off,120,0,3,,,,,,,,,2,,,53,0
64800,note_off,12,0,4,,,,,,,,,4,,,48,0
64800,note_on,0,0,4,,,,,,,,,4,,,41,53
64800,note_on,0,0,2,,,,,,,,,1,,,77,65
64800,set_tempo,120,1,0,,,,,,1071428,,,,,,,
64800,note_off,960,0,1,,,,,,,,,0,,,80,0
64800,note_on,0,0,1,,,,,,,,,0,,,80,65
64800,note_off,960,0,2,,,,,,,,,1,,,77,0
64800,note_off,0,0,2,,,,,,,,,1,,,72,0
64920,note_on,0,0,4,,,,,,,,,4,,,48,50
64920,note_off,120,0,4,,,,,,,,,4,,,41,0
65040,note_on,0,0,4,,,,,,,,,4,,,50,50
65040,note_off,120,0,4,,,,,,,,,4,,,48,0
65160,note_off,120,0,4,,,,,,,,,4,,,50,0
65160,note_on,0,0,4,,,,,,,,,4,,,52,51
65280,note_off,120,0,4,,,,,,,,,4,,,52,0
65280,note_on,0,0,4,,,,,,,,,4,,,53,52
65400,note_off,120,0,4,,,,,,,,,4,,,53,0
65400,note_on,0,0,4,,,,,,,,,4,,,55,52
65520,note_off,120,0,4,,,,,,,,,4,,,55,0
65520,note_on,0,0,1,,,,,,,,,0,,,77,55
65520,note_off,720,0,1,,,,,,,,,0,,,80,0
65520,note_on,0,0,4,,,,,,,,,4,,,56,53
65520,note_off,720,0,2,,,,,,,,,1,,,77,0
65640,note_on,0,0,4,,,,,,,,,4,,,58,54
65640,note_off,120,0,4,,,,,,,,,4,,,56,0
65760,note_off,240,0,1,,,,,,,,,0,,,77,0
65760,note_on,0,0,4,,,,,,,,,4,,,60,54
65760,note_off,120,0,4,,,,,,,,,4,,,58,0
65760,note_on,0,0,1,,,,,,,,,0,,,77,56
65880,note_on,0,0,4,,,,,,,,,4,,,56,55
65880,note_off,120,0,4,,,,,,,,,4,,,60,0
66000,note_on,0,0,4,,,,,,,,,4,,,55,55
66000,note_off,120,0,4,,,,,,,,,4,,,56,0
66120,set_tempo,1320,1,0,,,,,,1111111,,,,,,,
66120,note_on,0,0,1,,,,,,,,,0,,,77,57
66120,note_off,120,0,4,,,,,,,,,4,,,55,0
66120,note_on,0,0,4,,,,,,,,,4,,,53,56
66120,note_off,360,0,1,,,,,,,,,0,,,77,0
66240,note_off,720,0,2,,,,,,,,,1,,,72,0
66240,note_on,0,0,1,,,,,,,,,0,,,82,58
66240,note_off,120,0,4,,,,,,,,,4,,,53,0
66240,note_on,0,0,2,,,,,,,,,1,,,72,57
66240,note_on,0,0,2,,,,,,,,,1,,,76,57
66240,set_tempo,120,1,0,,,,,,1071428,,,,,,,
66240,note_on,0,0,4,,,,,,,,,4,,,48,57
66240,note_on,0,0,2,,,,,,,,,1,,,79,57
66240,note_off,120,0,1,,,,,,,,,0,,,77,0
66360,note_on,0,0,4,,,,,,,,,4,,,35,57
66360,note_off,120,0,4,,,,,,,,,4,,,48,0
66480,note_on,0,0,4,,,,,,,,,4,,,36,58
66480,note_off,120,0,4,,,,,,,,,4,,,35,0
66600,note_off,120,0,4,,,,,,,,,4,,,36,0
66600,note_on,0,0,4,,,,,,,,,4,,,35,61
66720,note_on,0,0,4,,,,,,,,,4,,,36,65
66720,note_off,480,0,2,,,,,,,,,1,,,72,0
66720,note_off,0,0,2,,,,,,,,,1,,,76,0
66720,note_off,0,0,2,,,,,,,,,1,,,79,0
66720,note_on,0,0,2,,,,,,,,,1,,,72,60
66720,note_on,0,0,2,,,,,,,,,1,,,76,60
66720,note_off,120,0,4,,,,,,,,,4,,,35,0
66720,note_on,0,0,1,,,,,,,,,0,,,79,60
66720,note_off,480,0,1,,,,,,,,,0,,,82,0
66840,note_off,120,0,4,,,,,,,,,4,,,36,0
66840,note_on,0,0,4,,,,,,,,,4,,,40,59
66960,note_off,120,0,4,,,,,,,,,4,,,40,0
66960,note_on,0,0,4,,,,,,,,,4,,,43,58
67080,note_off,120,0,4,,,,,,,,,4,,,43,0
67080,note_on,0,0,4,,,,,,,,,4,,,47,57
67200,note_on,0,0,4,,,,,,,,,4,,,48,56
67200,note_off,120,0,4,,,,,,,,,4,,,47,0
67320,note_on,0,0,4,,,,,,,,,4,,,46,55
67320,note_off,120,0,4,,,,,,,,,4,,,48,0
67440,note_off,120,0,4,,,,,,,,,4,,,46,0
67440,note_on,0,0,4,,,,,,,,,4,,,44,54
67560,note_off,120,0,4,,,,,,,,,4,,,44,0
67560,note_on,0,0,4,,,,,,,,,4,,,43,53
67560,set_tempo,1320,1,0,,,,,,1132075,,,,,,,
67680,note_off,960,0,1,,,,,,,,,0,,,79,0
67680,note_on,0,0,2,,,,,,,,,1,,,72,52
67680,note_on,0,0,2,,,,,,,,,1,,,77,52
67680,note_off,0,0,2,,,,,,,,,1,,,72,0
67680,set_tempo,120,1,0,,,,,,1071428,,,,,,,
67680,note_off,120,0,4,,,,,,,,,4,,,43,0
67680,note_on,0,0,4,,,,,,,,,4,,,41,52
67680,note_off,960,0,2,,,,,,,,,1,,,76,0
67680,note_on,0,0,1,,,,,,,,,0,,,80,52
67800,note_on,0,0,4,,,,,,,,,4,,,48,50
67800,note_off,120,0,4,,,,,,,,,4,,,41,0
67920,note_on,0,0,4,,,,,,,,,4,,,50,50
67920,note_off,120,0,4,,,,,,,,,4,,,48,0
68040,note_off,120,0,4,,,,,,,,,4,,,50,0
68040,note_on,0,0,4,,,,,,,,,4,,,52,51
68160,note_off,120,0,4,,,,,,,,,4,,,52,0
68160,note_on,0,0,4,,,,,,,,,4,,,53,52
68280,note_on,0,0,4,,,,,,,,,4,,,55,52
68280,note_off,120,0,4,,,,,,,,,4,,,53,0
68400,note_off,720,0,1,,,,,,,,,0,,,80,0
68400,note_on,0,0,4,,,,,,,,,4,,,56,53
68400,note_on,0,0,1,,,,,,,,,0,,,77,54
68400,note_off,720,0,2,,,,,,,,,1,,,77,0
68400,note_off,120,0,4,,,,,,,,,4,,,55,0
68520,note_off,120,0,4,,,,,,,,,4,,,56,0
68520,note_on,0,0,4,,,,,,,,,4,,,58,53
68640,note_on,0,0,4,,,,,,,,,4,,,60,54
68640,note_on,0,0,1,,,,,,,,,0,,,77,55
68640,note_off,120,0,4,,,,,,,,,4,,,58,0
68640,note_off,240,0,1,,,,,,,,,0,,,77,0
68640,note_off,240,0,2,,,,,,,,,1,,,72,0
68640,note_on,0,0,2,,,,,,,,,1,,,72,55
68640,note_on,0,0,2,,,,,,,,,1,,,68,55
68760,note_on,0,0,4,,,,,,,,,4,,,56,55
68760,note_off,120,0,4,,,,,,,,,4,,,60,0
68880,note_on,0,0,4,,,,,,,,,4,,,55,55
68880,note_off,120,0,4,,,,,,,,,4,,,56,0
69000,note_off,360,0,1,,,,,,,,,0,,,77,0
69000,note_on,0,0,1,,,,,,,,,0,,,77,56
69000,note_on,0,0,4,,,,,,,,,4,,,53,56
69000,note_off,120,0,4,,,,,,,,,4,,,55,0
69000,set_tempo,1320,1,0,,,,,,1111111,,,,,,,
69120,note_on,0,0,2,,,,,,,,,1,,,73,56
69120,note_off,120,0,4,,,,,,,,,4,,,53,0
69120,set_tempo,120,1,0,,,,,,1071428,,,,,,,
69120,note_on,0,0,2,,,,,,,,,1,,,66,56
69120,note_off,480,0,2,,,,,,,,,1,,,68,0
69120,note_on,0,0,1,,,,,,,,,0,,,78,56
69120,note_off,0,0,2,,,,,,,,,1,,,72,0
69120,note_off,120,0,1,,,,,,,,,0,,,77,0
69120,note_on,0,0,4,,,,,,,,,4,,,51,56
69240,note_off,120,0,4,,,,,,,,,4,,,51,0
69240,note_on,0,0,4,,,,,,,,,4,,,39,57
69360,note_off,120,0,4,,,,,,,,,4,,,39,0
69360,note_on,0,0,4,,,,,,,,,4,,,41,57
69480,note_off,120,0,4,,,,,,,,,4,,,41,0
69480,note_on,0,0,4,,,,,,,,,4,,,42,59
69600,note_on,0,0,1,,,,,,,,,0,,,75,58
69600,note_off,120,0,4,,,,,,,,,4,,,42,0
69600,note_on,0,0,4,,,,,,,,,4,,,44,62
69600,note_on,0,0,2,,,,,,,,,1,,,66,58
69600,note_on,0,0,2,,,,,,,,,1,,,72,58
69600,note_off,0,0,2,,,,,,,,,1,,,73,0
69600,note_off,480,0,2,,,,,,,,,1,,,66,0
69600,note_off,480,0,1,,,,,,,,,0,,,78,0
69720,note_on,0,0,4,,,,,,,,,4,,,45,58
69720,note_off,120,0,4,,,,,,,,,4,,,44,0
69840,note_on,0,0,4,,,,,,,,,4,,,46,56
69840,note_off,120,0,4,,,,,,,,,4,,,45,0
69960,note_on,0,0,4,,,,,,,,,4,,,44,55
69960,note_off,120,0,4,,,,,,,,,4,,,46,0
70080,note_on,0,0,2,,,,,,,,,1,,,68,53
70080,note_off,480,0,2,,,,,,,,,1,,,66,0
70080,note_on,0,0,4,,,,,,,,,4,,,42,53
70080,note_off,120,0,4,,,,,,,,,4,,,44,0
70200,note_on,0,0,4,,,,,,,,,4,,,41,51
70200,note_off,120,0,4,,,,,,,,,4,,,42,0
70320,note_off,120,0,4,,,,,,,,,4,,,41,0
70320,note_on,0,0,4,,,,,,,,,4,,,39,50
70320,note_off,240,0,2,,,,,,,,,1,,,68,0
70320,note_on,0,0,2,,,,,,,,,1,,,66,51
70440,note_off,120,0,4,,,,,,,,,4,,,39,0
70440,note_on,0,0,4,,,,,,,,,4,,,44,48
70440,set_tempo,1320,1,0,,,,,,1132075,,,,,,,
70560,note_on,0,0,2,,,,,,,,,1,,,73,50
70560,note_off,0,0,2,,,,,,,,,1,,,72,0
70560,note_off,960,0,1,,,,,,,,,0,,,75,0
70560,note_on,0,0,1,,,,,,,,,0,,,77,50
70560,note_off,120,0,4,,,,,,,,,4,,,44,0
70560,note_on,0,0,4,,,,,,,,,4,,,37,49
70560,set_tempo,120,1,0,,,,,,1071428,,,,,,,
70560,note_off,240,0,2,,,,,,,,,1,,,66,0
70560,note_on,0,0,2,,,,,,,,,1,,,65,50
70680,note_on,0,0,4,,,,,,,,,4,,,49,46
70680,note_off,120,0,4,,,,,,,,,4,,,37,0
70800,note_on,0,0,4,,,,,,,,,4,,,51,46
70800,note_off,120,0,4,,,,,,,,,4,,,49,0
70920,note_on,0,0,4,,,,,,,,,4,,,53,47
70920,note_off,120,0,4,,,,,,,,,4,,,51,0
71040,note_off,120,0,4,,,,,,,,,4,,,53,0
71040,note_on,0,0,4,,,,,,,,,4,,,54,48
71160,note_on,0,0,4,,,,,,,,,4,,,56,48
71160,note_off,120,0,4,,,,,,,,,4,,,54,0
71280,note_off,720,0,2,,,,,,,,,1,,,73,0
71280,note_off,120,0,4,,,,,,,,,4,,,56,0
71280,note_on,0,0,1,,,,,,,,,0,,,73,51
71280,note_off,720,0,1,,,,,,,,,0,,,77,0
71280,note_on,0,0,4,,,,,,,,,4,,,58,49
71400,note_on,0,0,4,,,,,,,,,4,,,56,49
71400,note_off,120,0,4,,,,,,,,,4,,,58,0
71520,note_on,0,0,2,,,,,,,,,1,,,65,50
71520,note_on,0,0,2,,,,,,,,,1,,,68,50
71520,note_off,240,0,2,,,,,,,,,1,,,65,0
71520,note_off,240,0,1,,,,,,,,,0,,,73,0
71520,note_on,0,0,1,,,,,,,,,0,,,73,52
71520,note_on,0,0,4,,,,,,,,,4,,,54,50
71520,note_off,120,0,4,,,,,,,,,4,,,56,0
71640,note_on,0,0,4,,,,,,,,,4,,,53,50
71640,note_off,120,0,4,,,,,,,,,4,,,54,0
71760,note_off,120,0,4,,,,,,,,,4,,,53,0
71760,note_on,0,0,4,,,,,,,,,4,,,51,51
71880,note_off,360,0,1,,,,,,,,,0,,,73,0
71880,note_on,0,0,1,,,,,,,,,0,,,73,54
71880,set_tempo,1320,1,0,,,,,,1111111,,,,,,,
71880,note_on,0,0,4,,,,,,,,,4,,,49,52
71880,note_off,120,0,4,,,,,,,,,4,,,51,0
72000,note_on,0,0,4,,,,,,,,,4,,,44,52
72000,note_off,120,0,1,,,,,,,,,0,,,73,0
72000,note_off,120,0,4,,,,,,,,,4,,,49,0
72000,note_off,0,0,2,,,,,,,,,1,,,68,0
72000,note_on,0,0,2,,,,,,,,,1,,,72,52
72000,note_off,480,0,2,,,,,,,,,1,,,65,0
72000,note_on,0,0,2,,,,,,,,,1,,,66,52
72000,note_on,0,0,1,,,,,,,,,0,,,78,55
72000,set_tempo,120,1,0,,,,,,1071428,,,,,,,
72000,note_on,0,0,2,,,,,,,,,1,,,75,52
72120,note_off,120,0,4,,,,,,,,,4,,,44,0
72120,note_on,0,0,4,,,,,,,,,4,,,31,53
72240,note_off,120,0,4,,,,,,,,,4,,,31,0
72240,note_on,0,0,4,,,,,,,,,4,,,32,53
72360,note_off,120,0,4,,,,,,,,,4,,,32,0
72360,note_on,0,0,4,,,,,,,,,4,,,31,56
72480,note_off,480,0,1,,,,,,,,,0,,,78,0
72480,note_on,0,0,1,,,,,,,,,0,,,75,56
72480,note_off,120,0,4,,,,,,,,,4,,,31,0
72480,note_on,0,0,4,,,,,,,,,4,,,32,59
72480,note_off,480,0,2,,,,,,,,,1,,,66,0
72480,note_off,0,0,2,,,,,,,,,1,,,75,0
72480,note_off,0,0,2,,,,,,,,,1,,,72,0
72480,note_on,0,0,2,,,,,,,,,1,,,72,56
72480,note_on,0,0,2,,,,,,,,,1,,,66,56
72600,note_off,120,0,4,,,,,,,,,4,,,32,0
72600,note_on,0,0,4,,,,,,,,,4,,,34,55
72720,note_off,120,0,4,,,,,,,,,4,,,34,0
72720,note_on,0,0,4,,,,,,,,,4,,,36,53
72840,note_on,0,0,4,,,,,,,,,4,,,37,52
72840,note_off,120,0,4,,,,,,,,,4,,,36,0
72960,note_on,0,0,4,,,,,,,,,4,,,39,50
72960,note_off,120,0,4,,,,,,,,,4,,,37,0
73080,note_on,0,0,4,,,,,,,,,4,,,41,49
73080,note_off,120,0,4,,,,,,,,,4,,,39,0
73200,note_on,0,0,4,,,,,,,,,4,,,42,48
73200,note_off,120,0,4,,,,,,,,,4,,,41,0
73320,note_on,0,0,4,,,,,,,,,4,,,44,46
73320,note_off,120,0,4,,,,,,,,,4,,,42,0
73320,set_tempo,1320,1,0,,,,,,1132075,,,,,,,
73440,note_on,0,0,1,,,,,,,,,0,,,77,51
73440,note_off,960,0,2,,,,,,,,,1,,,66,0
73440,note_off,0,0,2,,,,,,,,,1,,,72,0
73440,note_on,0,0,2,,,,,,,,,1,,,72,48
73440,note_on,0,0,2,,,,,,,,,1,,,65,48
73440,set_tempo,120,1,0,,,,,,1071428,,,,,,,
73440,note_off,960,0,1,,,,,,,,,0,,,75,0
73440,note_off,120,0,4,,,,,,,,,4,,,44,0
73440,note_on,0,0,4,,,,,,,,,4,,,37,47
73560,note_off,120,0,4,,,,,,,,,4,,,37,0
73560,note_on,0,0,4,,,,,,,,,4,,,45,46
73680,note_off,120,0,4,,,,,,,,,4,,,45,0
73680,note_on,0,0,4,,,,,,,,,4,,,46,46
73800,note_off,120,0,4,,,,,,,,,4,,,46,0
73800,note_on,0,0,4,,,,,,,,,4,,,45,46
73920,note_off,120,0,4,,,,,,,,,4,,,45,0
73920,note_off,0,0,2,,,,,,,,,1,,,72,0
73920,note_on,0,0,2,,,,,,,,,1,,,70,49
73920,note_on,0,0,2,,,,,,,,,1,,,65,49
73920,note_off,480,0,2,,,,,,,,,1,,,65,0
73920,note_on,0,0,4,,,,,,,,,4,,,46,46
74040,note_on,0,0,4,,,,,,,,,4,,,48,47
74040,note_off,120,0,4,,,,,,,,,4,,,46,0
74160,note_off,120,0,4,,,,,,,,,4,,,48,0
74160,note_off,720,0,1,,,,,,,,,0,,,77,0
74160,note_on,0,0,1,,,,,,,,,0,,,73,54
74160,note_on,0,0,4,,,,,,,,,4,,,49,47
74280,note_on,0,0,4,,,,,,,,,4,,,51,47
74280,note_off,120,0,4,,,,,,,,,4,,,49,0
74400,note_off,240,0,1,,,,,,,,,0,,,73,0
74400,note_on,0,0,4,,,,,,,,,4,,,53,48
74400,note_off,120,0,4,,,,,,,,,4,,,51,0
74400,note_on,0,0,1,,,,,,,,,0,,,73,54
74520,note_on,0,0,4,,,,,,,,,4,,,49,48
74520,note_off,120,0,4,,,,,,,,,4,,,53,0
74640,note_off,120,0,4,,,,,,,,,4,,,49,0
74640,note_on,0,0,4,,,,,,,,,4,,,48,48
74760,note_on,0,0,1,,,,,,,,,0,,,73,56
74760,set_tempo,1320,1,0,,,,,,1111111,,,,,,,
74760,note_on,0,0,4,,,,,,,,,4,,,46,48
74760,note_off,120,0,4,,,,,,,,,4,,,48,0
74760,note_off,360,0,1,,,,,,,,,0,,,73,0
74880,note_on,0,0,2,,,,,,,,,1,,,70,53
74880,note_off,120,0,1,,,,,,,,,0,,,73,0
74880,set_tempo,120,1,0,,,,,,1071428,,,,,,,
74880,note_on,0,0,2,,,,,,,,,1,,,65,53
74880,note_off,120,0,4,,,,,,,,,4,,,46,0
74880,note_on,0,0,4,,,,,,,,,4,,,48,48
74880,note_off,960,0,2,,,,,,,,,1,,,70,0
74880,note_off,0,0,2,,,,,,,,,1,,,65,0
74880,note_on,0,0,1,,,,,,,,,0,,,75,56
75000,note_off,120,0,4,,,,,,,,,4,,,48,0
75000,note_on,0,0,4,,,,,,,,,4,,,36,49
75120,note_on,0,0,4,,,,,,,,,4,,,37,50
75120,note_off,120,0,4,,,,,,,,,4,,,36,0
75240,note_off,120,0,4,,,,,,,,,4,,,37,0
75240,note_on,0,0,4,,,,,,,,,4,,,39,51
75360,note_off,480,0,1,,,,,,,,,0,,,75,0
75360,note_on,0,0,1,,,,,,,,,0,,,72,57
75360,note_off,120,0,4,,,,,,,,,4,,,39,0
75360,note_on,0,0,4,,,,,,,,,4,,,41,52
75480,note_on,0,0,4,,,,,,,,,4,,,42,53
75480,note_off,120,0,4,,,,,,,,,4,,,41,0
75600,note_off,120,0,4,,,,,,,,,4,,,42,0
75600,note_on,0,0,4,,,,,,,,,4,,,41,55
75720,note_off,120,0,4,,,,,,,,,4,,,41,0
75720,note_on,0,0,4,,,,,,,,,4,,,40,56
75840,note_off,120,0,4,,,,,,,,,4,,,40,0
75840,note_on,0,0,4,,,,,,,,,4,,,41,58
75840,note_on,0,0,2,,,,,,,,,1,,,69,53
75840,note_off,960,0,2,,,,,,,,,1,,,70,0
75960,note_off,120,0,4,,,,,,,,,4,,,41,0
75960,note_on,0,0,4,,,,,,,,,4,,,29,56
76080,note_on,0,0,2,,,,,,,,,1,,,65,49
76080,note_off,0,0,2,,,,,,,,,1,,,65,0
76080,note_off,240,0,2,,,,,,,,,1,,,69,0
76080,note_off,120,0,4,,,,,,,,,4,,,29,0
76080,note_on,0,0,4,,,,,,,,,4,,,31,53
76200,note_on,0,0,4,,,,,,,,,4,,,33,51
76200,note_off,120,0,4,,,,,,,,,4,,,31,0
76200,set_tempo,1320,1,0,,,,,,1132075,,,,,,,
76320,note_off,120,0,4,,,,,,,,,4,,,33,0
76320,note_on,0,0,1,,,,,,,,,0,,,73,49
76320,note_off,960,0,1,,,,,,,,,0,,,72,0
76320,set_tempo,120,1,0,,,,,,1071428,,,,,,,
76320,note_on,0,0,4,,,,,,,,,4,,,34,48
76440,note_on,0,0,4,,,,,,,,,4,,,41,44
76440,note_off,120,0,4,,,,,,,,,4,,,34,0
76560,note_off,120,0,4,,,,,,,,,4,,,41,0
76560,note_on,0,0,4,,,,,,,,,4,,,43,44
76560,note_off,480,0,2,,,,,,,,,1,,,65,0
76560,note_on,0,0,2,,,,,,,,,1,,,65,44
76680,note_on,0,0,4,,,,,,,,,4,,,45,44
76680,note_off,120,0,4,,,,,,,,,4,,,43,0
76800,note_on,0,0,4,,,,,,,,,4,,,46,44
76800,note_off,120,0,4,,,,,,,,,4,,,45,0
76920,note_on,0,0,4,,,,,,,,,4,,,48,44
76920,note_off,120,0,4,,,,,,,,,4,,,46,0
77040,note_on,0,0,4,,,,,,,,,4,,,49,44
77040,note_off,120,0,4,,,,,,,,,4,,,48,0
77040,note_on,0,0,1,,,,,,,,,0,,,70,52
77040,note_off,720,0,1,,,,,,,,,0,,,73,0
77160,note_off,120,0,4,,,,,,,,,4,,,49,0
77160,note_on,0,0,4,,,,,,,,,4,,,51,44
77280,note_off,120,0,4,,,,,,,,,4,,,51,0
77280,note_on,0,0,1,,,,,,,,,0,,,70,53
77280,note_off,240,0,1,,,,,,,,,0,,,70,0
77280,note_on,0,0,4,,,,,,,,,4,,,53,43
77400,note_on,0,0,4,,,,,,,,,4,,,49,43
77400,note_off,120,0,4,,,,,,,,,4,,,53,0
77520,note_off,120,0,4,,,,,,,,,4,,,49,0
77520,note_on,0,0,4,,,,,,,,,4,,,48,43
77640,set_tempo,1320,1,0,,,,,,1111111,,,,,,,
77640,note_off,120,0,4,,,,,,,,,4,,,48,0
77640,note_on,0,0,4,,,,,,,,,4,,,46,43
77640,note_on,0,0,1,,,,,,,,,0,,,70,54
77640,note_off,360,0,1,,,,,,,,,0,,,70,0
77760,note_off,120,0,1,,,,,,,,,0,,,70,0
77760,note_on,0,0,2,,,,,,,,,1,,,70,50
77760,note_on,0,0,2,,,,,,,,,1,,,65,50
77760,note_off,1200,0,2,,,,,,,,,1,,,65,0
77760,note_on,0,0,1,,,,,,,,,0,,,75,55
77760,note_on,0,0,4,,,,,,,,,4,,,41,43
77760,note_off,120,0,4,,,,,,,,,4,,,46,0
77760,set_tempo,120,1,0,,,,,,1071428,,,,,,,
77880,note_off,120,0,4,,,,,,,,,4,,,41,0
77880,note_on,0,0,4,,,,,,,,,4,,,29,44
78000,note_off,120,0,4,,,,,,,,,4,,,29,0
78000,note_on,0,0,4,,,,,,,,,4,,,31,46
78120,note_off,120,0,4,,,,,,,,,4,,,31,0
78120,note_on,0,0,4,,,,,,,,,4,,,33,47
78240,note_off,120,0,4,,,,,,,,,4,,,33,0
78240,note_off,480,0,1,,,,,,,,,0,,,75,0
78240,note_on,0,0,1,,,,,,,,,0,,,72,56
78240,note_on,0,0,4,,,,,,,,,4,,,34,49
78360,note_off,120,0,4,,,,,,,,,4,,,34,0
78360,note_on,0,0,4,,,,,,,,,4,,,36,50
78480,note_off,120,0,4,,,,,,,,,4,,,36,0
78480,note_on,0,0,4,,,,,,,,,4,,,37,52
78600,note_off,120,0,4,,,,,,,,,4,,,37,0
78600,note_on,0,0,4,,,,,,,,,4,,,39,53
78720,note_on,0,0,4,,,,,,,,,4,,,41,56
78720,note_off,120,0,4,,,,,,,,,4,,,39,0
78720,note_on,0,0,2,,,,,,,,,1,,,69,50
78720,note_on,0,0,2,,,,,,,,,1,,,65,50
78720,note_off,0,0,2,,,,,,,,,1,,,65,0
78720,note_off,960,0,2,,,,,,,,,1,,,70,0
78840,note_off,120,0,4,,,,,,,,,4,,,41,0
78840,note_on,0,0,4,,,,,,,,,4,,,39,53
78960,note_off,120,0,4,,,,,,,,,4,,,39,0
78960,note_on,0,0,4,,,,,,,,,4,,,37,51
79080,note_on,0,0,4,,,,,,,,,4,,,36,49
79080,note_off,120,0,4,,,,,,,,,4,,,37,0
79080,set_tempo,1320,1,0,,,,,,1132075,,,,,,,
79200,note_on,0,0,4,,,,,,,,,4,,,34,46
79200,note_off,120,0,4,,,,,,,,,4,,,36,0
79200,note_off,480,0,2,,,,,,,,,1,,,69,0
79200,note_on,0,0,2,,,,,,,,,1,,,70,42
79200,note_on,0,0,2,,,,,,,,,1,,,65,45
79200,note_off,0,0,2,,,,,,,,,1,,,65,0
79200,note_on,0,0,1,,,,,,,,,0,,,73,48
79200,note_off,960,0,1,,,,,,,,,0,,,72,0
79200,set_tempo,120,1,0,,,,,,1071428,,,,,,,
79320,note_on,0,0,4,,,,,,,,,4,,,45,44
79320,note_off,120,0,4,,,,,,,,,4,,,34,0
79440,note_off,120,0,4,,,,,,,,,4,,,45,0
79440,note_on,0,0,4,,,,,,,,,4,,,46,43
79560,note_off,120,0,4,,,,,,,,,4,,,46,0
79560,note_on,0,0,4,,,,,,,,,4,,,48,43
79680,note_off,120,0,4,,,,,,,,,4,,,48,0
79680,note_on,0,0,4,,,,,,,,,4,,,49,44
79800,note_off,120,0,4,,,,,,,,,4,,,49,0
79800,note_on,0,0,4,,,,,,,,,4,,,51,44
79920,note_off,720,0,2,,,,,,,,,1,,,70,0
79920,note_on,0,0,1,,,,,,,,,0,,,70,51
79920,note_off,720,0,1,,,,,,,,,0,,,73,0
79920,note_on,0,0,4,,,,,,,,,4,,,53,45
79920,note_off,120,0,4,,,,,,,,,4,,,51,0
80040,note_off,120,0,4,,,,,,,,,4,,,53,0
80040,note_on,0,0,4,,,,,,,,,4,,,51,46
80160,note_off,120,0,4,,,,,,,,,4,,,51,0
80160,note_on,0,0,4,,,,,,,,,4,,,49,46
80160,note_off,240,0,1,,,,,,,,,0,,,70,0
80160,note_on,0,0,1,,,,,,,,,0,,,70,51
80280,note_on,0,0,4,,,,,,,,,4,,,48,47
80280,note_off,120,0,4,,,,,,,,,4,,,49,0
80400,note_on,0,0,4,,,,,,,,,4,,,46,48
80400,note_off,120,0,4,,,,,,,,,4,,,48,0
80520,note_off,360,0,1,,,,,,,,,0,,,70,0
80520,set_tempo,1320,1,0,,,,,,1111111,,,,,,,
80520,note_on,0,0,4,,,,,,,,,4,,,44,48
80520,note_off,120,0,4,,,,,,,,,4,,,46,0
80520,note_on,0,0,1,,,,,,,,,0,,,70,53
80632,note_off,712,0,2,,,,,,,,,1,,,65,0
80640,note_on,8,0,2,,,,,,,,,1,,,63,45
80640,note_on,0,0,4,,,,,,,,,4,,,43,49
80640,set_tempo,120,1,0,,,,,,1071428,,,,,,,
80640,note_on,0,0,1,,,,,,,,,0,,,73,53
80640,note_off,120,0,4,,,,,,,,,4,,,44,0
80640,note_on,0,0,2,,,,,,,,,1,,,70,45
80640,note_off,120,0,1,,,,,,,,,0,,,70,0
80760,note_off,120,0,4,,,,,,,,,4,,,43,0
80760,note_on,0,0,4,,,,,,,,,4,,,38,50
80880,note_off,120,0,4,,,,,,,,,4,,,38,0
80880,note_on,0,0,4,,,,,,,,,4,,,39,50
81000,note_on,0,0,4,,,,,,,,,4,,,41,51
81000,note_off,120,0,4,,,,,,,,,4,,,39,0
81060,set_tempo,420,1,0,,,,,,1111111,,,,,,,
81120,note_on,0,0,4,,,,,,,,,4,,,43,52
81120,note_off,0,0,2,,,,,,,,,1,,,63,0
81120,note_on,0,0,1,,,,,,,,,0,,,70,45
81120,note_off,480,0,1,,,,,,,,,0,,,73,0
81120,note_off,120,0,4,,,,,,,,,4,,,41,0
81120,note_off,480,0,2,,,,,,,,,1,,,70,0
81160,note_on,0,0,1,,,,,,,,,0,,,72,45
81160,note_off,40,0,1,,,,,,,,,0,,,70,0
81180,set_tempo,120,1,0,,,,,,1071428,,,,,,,
81200,note_on,0,0,1,,,,,,,,,0,,,70,45
81200,note_off,40,0,1,,,,,,,,,0,,,72,0
81240,note_on,0,0,4,,,,,,,,,4,,,44,52
81240,note_off,120,0,4,,,,,,,,,4,,,43,0
81240,note_off,40,0,1,,,,,,,,,0,,,70,0
81240,note_on,0,0,1,,,,,,,,,0,,,72,46
81280,note_off,40,0,1,,,,,,,,,0,,,72,0
81280,note_on,0,0,1,,,,,,,,,0,,,70,47
81320,note_off,40,0,1,,,,,,,,,0,,,70,0
81320,note_on,0,0,1,,,,,,,,,0,,,72,48
81360,note_on,0,0,1,,,,,,,,,0,,,70,49
81360,note_off,120,0,4,,,,,,,,,4,,,44,0
81360,note_on,0,0,4,,,,,,,,,4,,,46,53
81360,note_off,40,0,1,,,,,,,,,0,,,72,0
81400,note_on,0,0,1,,,,,,,,,0,,,72,50
81400,note_off,40,0,1,,,,,,,,,0,,,70,0
81440,note_on,0,0,1,,,,,,,,,0,,,70,51
81440,note_off,40,0,1,,,,,,,,,0,,,72,0
81480,note_on,0,0,1,,,,,,,,,0,,,72,51
81480,note_off,40,0,1,,,,,,,,,0,,,70,0
81480,note_on,0,0,4,,,,,,,,,4,,,44,51
81480,note_off,120,0,4,,,,,,,,,4,,,46,0
81520,note_off,40,0,1,,,,,,,,,0,,,72,0
81520,note_on,0,0,1,,,,,,,,,0,,,70,50
81560,note_off,40,0,1,,,,,,,,,0,,,70,0
81560,note_on,0,0,1,,,,,,,,,0,,,72,49
81600,note_on,0,0,4,,,,,,,,,4,,,43,48
81600,note_off,120,0,4,,,,,,,,,4,,,44,0
81600,note_off,40,0,1,,,,,,,,,0,,,72,0
81600,note_on,0,0,1,,,,,,,,,0,,,70,49
81640,note_off,40,0,1,,,,,,,,,0,,,70,0
81640,note_on,0,0,1,,,,,,,,,0,,,72,48
81680,note_off,40,0,1,,,,,,,,,0,,,72,0
81680,note_on,0,0,1,,,,,,,,,0,,,70,47
81720,note_off,40,0,1,,,,,,,,,0,,,70,0
81720,note_on,0,0,1,,,,,,,,,0,,,68,46
81720,note_off,120,0,4,,,,,,,,,4,,,43,0
81720,note_on,0,0,4,,,,,,,,,4,,,41,46
81780,note_off,60,0,1,,,,,,,,,0,,,68,0
81780,set_tempo,600,1,0,,,,,,1111111,,,,,,,
81780,note_on,0,0,1,,,,,,,,,0,,,70,45
81840,note_on,0,0,1,,,,,,,,,0,,,71,44
81840,note_off,60,0,1,,,,,,,,,0,,,70,0
81840,note_on,0,0,4,,,,,,,,,4,,,39,44
81840,note_off,120,0,4,,,,,,,,,4,,,41,0
81880,note_on,0,0,1,,,,,,,,,0,,,72,43
81880,note_off,40,0,1,,,,,,,,,0,,,71,0
81900,note_off,60,0,4,,,,,,,,,4,,,39,0
81900,note_on,0,0,4,,,,,,,,,4,,,37,42
81900,set_tempo,120,1,0,,,,,,1071428,,,,,,,
81920,note_off,40,0,1,,,,,,,,,0,,,72,0
81920,note_on,0,0,1,,,,,,,,,0,,,71,43
81960,note_on,0,0,4,,,,,,,,,4,,,36,41
81960,note_off,60,0,4,,,,,,,,,4,,,37,0
81960,set_tempo,60,1,0,,,,,,1176470,,,,,,,
81960,note_off,40,0,1,,,,,,,,,0,,,71,0
81960,note_on,0,0,1,,,,,,,,,0,,,69,42
82020,note_off,60,0,4,,,,,,,,,4,,,36,0
82020,note_on,0,0,1,,,,,,,,,0,,,71,41
82020,note_off,60,0,1,,,,,,,,,0,,,69,0
82020,note_on,0,0,4,,,,,,,,,4,,,34,40
82020,set_tempo,60,1,0,,,,,,1428571,,,,,,,
82080,set_tempo,60,1,0,,,,,,1071428,,,,,,,
82080,note_off,60,0,1,,,,,,,,,0,,,71,0
82080,note_on,0,0,2,,,,,,,,,1,,,60,42
82080,note_on,0,0,1,,,,,,,,,0,,,72,40
82080,note_on,960,0,2,,,,,,,,,1,,,63,42
82080,note_off,60,0,4,,,,,,,,,4,,,34,0
82080,note_on,0,0,4,,,,,,,,,4,,,32,44
82140,note_on,17340,0,3,,,,,,,,,2,,,39,40
82140,note_off,60,0,4,,,,,,,,,4,,,32,0
82200,note_off,60,0,3,,,,,,,,,2,,,39,0
82200,note_on,0,0,3,,,,,,,,,2,,,36,41
82260,note_off,60,0,3,,,,,,,,,2,,,36,0
82260,note_on,0,0,3,,,,,,,,,2,,,39,41
82320,note_off,60,0,3,,,,,,,,,2,,,39,0
82320,note_on,180,0,4,,,,,,,,,4,,,44,45
82380,note_off,60,0,4,,,,,,,,,4,,,44,0
82380,note_on,60,0,3,,,,,,,,,2,,,51,42
82440,note_off,60,0,3,,,,,,,,,2,,,51,0
82440,note_on,0,0,3,,,,,,,,,2,,,48,42
82500,note_on,0,0,3,,,,,,,,,2,,,51,42
82500,note_off,60,0,3,,,,,,,,,2,,,48,0
82560,note_off,60,0,3,,,,,,,,,2,,,51,0
82560,note_on,180,0,4,,,,,,,,,4,,,44,46
82620,note_on,60,0,3,,,,,,,,,2,,,51,43
82620,note_off,60,0,4,,,,,,,,,4,,,44,0
82680,note_off,60,0,3,,,,,,,,,2,,,51,0
82680,note_on,0,0,3,,,,,,,,,2,,,48,44
82740,note_off,60,0,3,,,,,,,,,2,,,48,0
82740,note_on,0,0,3,,,,,,,,,2,,,51,44
82800,note_on,180,0,4,,,,,,,,,4,,,56,47
82800,note_off,720,0,1,,,,,,,,,0,,,72,0
82800,note_off,0,0,2,,,,,,,,,1,,,63,0
82800,note_on,0,0,1,,,,,,,,,0,,,68,44
82800,note_off,60,0,3,,,,,,,,,2,,,51,0
82800,note_off,720,0,2,,,,,,,,,1,,,60,0
82800,note_on,0,0,2,,,,,,,,,1,,,63,46
82800,note_on,0,0,2,,,,,,,,,1,,,60,46
82860,note_on,60,0,3,,,,,,,,,2,,,51,45
82860,note_off,60,0,4,,,,,,,,,4,,,56,0
82920,note_on,0,0,3,,,,,,,,,2,,,48,45
82920,note_off,60,0,3,,,,,,,,,2,,,51,0
82980,note_off,60,0,3,,,,,,,,,2,,,48,0
82980,note_on,0,0,3,,,,,,,,,2,,,51,45
83040,note_off,0,0,2,,,,,,,,,1,,,63,0
83040,note_on,0,0,2,,,,,,,,,1,,,63,47
83040,note_on,0,0,2,,,,,,,,,1,,,60,47
83040,note_off,240,0,1,,,,,,,,,0,,,68,0
83040,note_off,240,0,2,,,,,,,,,1,,,60,0
83040,note_on,180,0,4,,,,,,,,,4,,,48,48
83040,note_on,0,0,1,,,,,,,,,0,,,68,45
83040,note_off,60,0,3,,,,,,,,,2,,,51,0
83100,note_off,60,0,4,,,,,,,,,4,,,48,0
83100,note_on,60,0,3,,,,,,,,,2,,,56,46
83160,note_off,60,0,3,,,,,,,,,2,,,56,0
83160,note_on,0,0,3,,,,,,,,,2,,,51,47
83220,note_off,60,0,3,,,,,,,,,2,,,51,0
83220,note_on,0,0,3,,,,,,,,,2,,,56,47
83280,note_off,0,0,2,,,,,,,,,1,,,63,0
83280,note_off,240,0,2,,,,,,,,,1,,,60,0
83280,note_off,60,0,3,,,,,,,,,2,,,56,0
83280,note_on,180,0,4,,,,,,,,,4,,,60,50
83340,note_off,60,0,4,,,,,,,,,4,,,60,0
83340,note_on,60,0,3,,,,,,,,,2,,,56,48
83400,note_off,360,0,1,,,,,,,,,0,,,68,0
83400,note_on,0,0,1,,,,,,,,,0,,,68,48
83400,note_off,60,0,3,,,,,,,,,2,,,56,0
83400,set_tempo,1320,1,0,,,,,,1111111,,,,,,,
83400,note_on,0,0,3,,,,,,,,,2,,,51,48
83460,note_off,60,0,3,,,,,,,,,2,,,51,0
83460,note_on,0,0,3,,,,,,,,,2,,,56,48
83520,note_off,60,0,3,,,,,,,,,2,,,56,0
83520,note_on,240,0,2,,,,,,,,,1,,,67,51
83520,note_on,0,0,1,,,,,,,,,0,,,73,51
83520,note_off,120,0,1,,,,,,,,,0,,,68,0
83520,note_on,0,0,2,,,,,,,,,1,,,63,51
83520,note_on,180,0,4,,,,,,,,,4,,,46,51
83520,set_tempo,120,1,0,,,,,,1071428,,,,,,,
83580,note_on,60,0,3,,,,,,,,,2,,,55,47
83580,note_off,60,0,4,,,,,,,,,4,,,46,0
83640,note_on,0,0,3,,,,,,,,,2,,,51,47
83640,note_off,60,0,3,,,,,,,,,2,,,55,0
83700,note_on,0,0,3,,,,,,,,,2,,,55,46
83700,note_off,60,0,3,,,,,,,,,2,,,51,0
83760,note_off,60,0,3,,,,,,,,,2,,,55,0
83760,note_on,180,0,4,,,,,,,,,4,,,58,50
83820,note_off,60,0,4,,,,,,,,,4,,,58,0
83820,note_on,60,0,3,,,,,,,,,2,,,55,46
83880,note_off,60,0,3,,,,,,,,,2,,,55,0
83880,note_on,0,0,3,,,,,,,,,2,,,51,46
83940,note_off,60,0,3,,,,,,,,,2,,,51,0
83940,note_on,0,0,3,,,,,,,,,2,,,55,45
84000,note_on,0,0,2,,,,,,,,,1,,,63,50
84000,note_on,0,0,2,,,,,,,,,1,,,67,50
84000,note_off,0,0,2,,,,,,,,,1,,,67,0
84000,note_off,480,0,2,,,,,,,,,1,,,63,0
84000,note_on,180,0,4,,,,,,,,,4,,,49,48
84000,note_off,60,0,3,,,,,,,,,2,,,55,0
84000,note_on,0,0,1,,,,,,,,,0,,,70,50
84000,note_off,480,0,1,,,,,,,,,0,,,73,0
84060,note_off,60,0,4,,,,,,,,,4,,,49,0
84060,note_on,60,0,3,,,,,,,,,2,,,55,45
84120,note_off,60,0,3,,,,,,,,,2,,,55,0
84120,note_on,0,0,3,,,,,,,,,2,,,51,44
84180,note_off,60,0,3,,,,,,,,,2,,,51,0
84180,note_on,0,0,3,,,,,,,,,2,,,55,44
84240,note_off,60,0,3,,,,,,,,,2,,,55,0
84240,note_on,180,0,4,,,,,,,,,4,,,58,46
84300,note_on,60,0,3,,,,,,,,,2,,,55,43
84300,note_off,60,0,4,,,,,,,,,4,,,58,0
84360,note_on,0,0,3,,,,,,,,,2,,,51,43
84360,note_off,60,0,3,,,,,,,,,2,,,55,0
84420,note_off,60,0,3,,,,,,,,,2,,,51,0
84420,note_on,0,0,3,,,,,,,,,2,,,55,43
84480,note_on,180,0,4,,,,,,,,,4,,,49,44
84480,note_off,60,0,3,,,,,,,,,2,,,55,0
84540,note_off,60,0,4,,,,,,,,,4,,,49,0
84540,note_on,60,0,3,,,,,,,,,2,,,55,42
84600,note_off,60,0,3,,,,,,,,,2,,,55,0
84600,note_on,0,0,3,,,,,,,,,2,,,51,42
84660,note_off,60,0,3,,,,,,,,,2,,,51,0
84660,note_on,0,0,3,,,,,,,,,2,,,55,42
84720,note_on,180,0,4,,,,,,,,,4,,,58,43
84720,note_off,60,0,3,,,,,,,,,2,,,55,0
84780,note_on,60,0,3,,,,,,,,,2,,,55,41
84780,note_off,60,0,4,,,,,,,,,4,,,58,0
84840,set_tempo,1320,1,0,,,,,,1111111,,,,,,,
84840,note_on,0,0,3,,,,,,,,,2,,,51,41
84840,note_off,60,0,3,,,,,,,,,2,,,55,0
84900,note_on,0,0,3,,,,,,,,,2,,,55,42
84900,note_off,60,0,3,,,,,,,,,2,,,51,0
84960,note_on,0,0,2,,,,,,,,,1,,,68,48
84960,note_off,0,0,2,,,,,,,,,1,,,67,0
84960,note_on,0,0,1,,,,,,,,,0,,,75,48
84960,note_off,960,0,1,,,,,,,,,0,,,70,0
84960,note_off,960,0,2,,,,,,,,,1,,,63,0
84960,note_off,60,0,3,,,,,,,,,2,,,55,0
84960,note_on,180,0,4,,,,,,,,,4,,,48,41
84960,note_on,0,0,2,,,,,,,,,1,,,63,48
84960,set_tempo,120,1,0,,,,,,1071428,,,,,,,
85020,note_on,60,0,3,,,,,,,,,2,,,56,43
85020,note_off,60,0,4,,,,,,,,,4,,,48,0
85080,note_on,0,0,3,,,,,,,,,2,,,51,44
85080,note_off,60,0,3,,,,,,,,,2,,,56,0
85140,note_off,60,0,3,,,,,,,,,2,,,51,0
85140,note_on,0,0,3,,,,,,,,,2,,,56,44
85200,note_on,180,0,4,,,,,,,,,4,,,60,45
85200,note_off,60,0,3,,,,,,,,,2,,,56,0
85260,note_off,60,0,4,,,,,,,,,4,,,60,0
85260,note_on,60,0,3,,,,,,,,,2,,,56,45
85320,note_on,0,0,3,,,,,,,,,2,,,51,46
85320,note_off,60,0,3,,,,,,,,,2,,,56,0
85380,note_off,60,0,3,,,,,,,,,2,,,51,0
85380,note_on,0,0,3,,,,,,,,,2,,,56,47
85440,note_on,180,0,4,,,,,,,,,4,,,48,47
85440,note_off,60,0,3,,,,,,,,,2,,,56,0
85500,note_on,60,0,3,,,,,,,,,2,,,60,48
85500,note_off,60,0,4,,,,,,,,,4,,,48,0
85560,note_off,60,0,3,,,,,,,,,2,,,60,0
85560,note_on,0,0,3,,,,,,,,,2,,,56,48
85620,note_off,60,0,3,,,,,,,,,2,,,56,0
85620,note_on,0,0,3,,,,,,,,,2,,,60,49
85680,note_off,60,0,3,,,,,,,,,2,,,60,0
85680,note_on,0,0,1,,,,,,,,,0,,,74,53
85680,note_off,0,0,2,,,,,,,,,1,,,68,0
85680,note_on,0,0,2,,,,,,,,,1,,,68,53
85680,note_on,0,0,2,,,,,,,,,1,,,62,53
85680,note_off,720,0,2,,,,,,,,,1,,,63,0
85680,note_on,180,0,4,,,,,,,,,4,,,47,50
85680,note_off,720,0,1,,,,,,,,,0,,,75,0
85740,note_on,60,0,3,,,,,,,,,2,,,59,50
85740,note_off,60,0,4,,,,,,,,,4,,,47,0
85800,note_on,0,0,3,,,,,,,,,2,,,56,51
85800,note_off,60,0,3,,,,,,,,,2,,,59,0
85860,note_off,60,0,3,,,,,,,,,2,,,56,0
85860,note_on,0,0,3,,,,,,,,,2,,,59,51
85872,note_off,192,0,2,,,,,,,,,1,,,62,0
85872,note_off,0,0,2,,,,,,,,,1,,,68,0
85872,note_off,192,0,1,,,,,,,,,0,,,74,0
85920,note_on,180,0,4,,,,,,,,,4,,,48,52
85920,note_on,0,0,2,,,,,,,,,1,,,68,54
85920,note_on,48,0,2,,,,,,,,,1,,,63,54
85920,note_off,60,0,3,,,,,,,,,2,,,59,0
85920,note_on,48,0,1,,,,,,,,,0,,,75,54
85980,note_off,60,0,4,,,,,,,,,4,,,48,0
85980,note_on,60,0,3,,,,,,,,,2,,,60,53
86040,note_off,60,0,3,,,,,,,,,2,,,60,0
86040,note_on,0,0,3,,,,,,,,,2,,,56,53
86100,note_off,60,0,3,,,,,,,,,2,,,56,0
86100,note_on,0,0,3,,,,,,,,,2,,,60,54
86112,note_off,0,0,2,,,,,,,,,1,,,63,0
86112,note_off,192,0,2,,,,,,,,,1,,,68,0
86112,note_off,192,0,1,,,,,,,,,0,,,75,0
86160,note_on,180,0,4,,,,,,,,,4,,,49,54
86160,note_off,60,0,3,,,,,,,,,2,,,60,0
86160,note_on,48,0,1,,,,,,,,,0,,,77,56
86160,note_on,48,0,2,,,,,,,,,1,,,68,56
86160,note_on,0,0,2,,,,,,,,,1,,,65,56
86220,note_on,60,0,3,,,,,,,,,2,,,61,55
86220,note_off,60,0,4,,,,,,,,,4,,,49,0
86280,note_on,0,0,3,,,,,,,,,2,,,56,56
86280,note_off,60,0,3,,,,,,,,,2,,,61,0
86280,set_tempo,1320,1,0,,,,,,1111111,,,,,,,
86340,note_on,0,0,3,,,,,,,,,2,,,61,57
86340,note_off,60,0,3,,,,,,,,,2,,,56,0
86352,note_off,192,0,1,,,,,,,,,0,,,77,0
86352,note_off,192,0,2,,,,,,,,,1,,,65,0
86352,note_off,0,0,2,,,,,,,,,1,,,68,0
86400,note_on,180,0,4,,,,,,,,,4,,,51,57
86400,note_on,48,0,1,,,,,,,,,0,,,75,59
86400,set_tempo,120,1,0,,,,,,1071428,,,,,,,
86400,note_off,60,0,3,,,,,,,,,2,,,61,0
86460,note_on,60,0,3,,,,,,,,,2,,,63,57
86460,note_off,60,0,4,,,,,,,,,4,,,51,0
86520,note_off,60,0,3,,,,,,,,,2,,,63,0
86520,note_on,0,0,3,,,,,,,,,2,,,55,56
86580,note_on,0,0,3,,,,,,,,,2,,,63,56
86580,note_off,60,0,3,,,,,,,,,2,,,55,0
86640,note_on,0,0,1,,,,,,,,,0,,,74,55
86640,note_off,60,0,3,,,,,,,,,2,,,63,0
86640,note_off,240,0,1,,,,,,,,,0,,,75,0
86640,note_on,180,0,4,,,,,,,,,4,,,53,55
86700,note_off,60,0,4,,,,,,,,,4,,,53,0
86700,note_on,60,0,3,,,,,,,,,2,,,65,55
86760,note_off,60,0,3,,,,,,,,,2,,,65,0
86760,note_on,0,0,3,,,,,,,,,2,,,56,54
86820,note_off,60,0,3,,,,,,,,,2,,,56,0
86820,note_on,0,0,3,,,,,,,,,2,,,65,54
86820,set_tempo,420,1,0,,,,,,1111111,,,,,,,
86880,note_off,60,0,3,,,,,,,,,2,,,65,0
86880,note_off,240,0,1,,,,,,,,,0,,,74,0
86880,note_on,0,0,1,,,,,,,,,0,,,73,52
86880,note_on,180,0,4,,,,,,,,,4,,,55,53
86920,note_on,0,0,1,,,,,,,,,0,,,75,52
86920,note_off,40,0,1,,,,,,,,,0,,,73,0
86940,note_off,60,0,4,,,,,,,,,4,,,55,0
86940,set_tempo,120,1,0,,,,,,1071428,,,,,,,
86940,note_on,60,0,3,,,,,,,,,2,,,67,53
86960,note_on,0,0,1,,,,,,,,,0,,,73,52
86960,note_off,40,0,1,,,,,,,,,0,,,75,0
87000,note_off,60,0,3,,,,,,,,,2,,,67,0
87000,note_on,0,0,1,,,,,,,,,0,,,75,52
87000,note_off,40,0,1,,,,,,,,,0,,,73,0
87000,note_on,0,0,3,,,,,,,,,2,,,58,52
87040,note_on,0,0,1,,,,,,,,,0,,,73,51
87040,note_off,40,0,1,,,,,,,,,0,,,75,0
87060,note_on,0,0,3,,,,,,,,,2,,,67,52
87060,note_off,60,0,3,,,,,,,,,2,,,58,0
87080,note_off,40,0,1,,,,,,,,,0,,,73,0
87080,note_on,0,0,1,,,,,,,,,0,,,75,51
87120,note_on,180,0,4,,,,,,,,,4,,,51,52
87120,note_off,40,0,1,,,,,,,,,0,,,75,0
87120,note_on,0,0,1,,,,,,,,,0,,,73,51
87120,note_off,60,0,3,,,,,,,,,2,,,67,0
87160,note_on,0,0,1,,,,,,,,,0,,,75,50
87160,note_off,40,0,1,,,,,,,,,0,,,73,0
87180,note_off,60,0,4,,,,,,,,,4,,,51,0
87180,note_on,60,0,3,,,,,,,,,2,,,63,51
87200,note_on,0,0,1,,,,,,,,,0,,,73,50
87200,note_off,40,0,1,,,,,,,,,0,,,75,0
87240,note_on,0,0,1,,,,,,,,,0,,,75,50
87240,note_off,60,0,3,,,,,,,,,2,,,63,0
87240,note_on,0,0,3,,,,,,,,,2,,,55,51
87240,note_off,40,0,1,,,,,,,,,0,,,73,0
87280,note_on,0,0,1,,,,,,,,,0,,,73,50
87280,note_off,40,0,1,,,,,,,,,0,,,75,0
87300,note_off,60,0,3,,,,,,,,,2,,,55,0
87300,note_on,0,0,3,,,,,,,,,2,,,63,50
87320,note_on,0,0,1,,,,,,,,,0,,,75,49
87320,note_off,40,0,1,,,,,,,,,0,,,73,0
87360,note_on,0,0,1,,,,,,,,,0,,,73,49
87360,note_on,180,0,4,,,,,,,,,4,,,53,50
87360,note_off,40,0,1,,,,,,,,,0,,,75,0
87360,note_off,60,0,3,,,,,,,,,2,,,63,0
87400,note_on,0,0,1,,,,,,,,,0,,,75,49
87400,note_off,40,0,1,,,,,,,,,0,,,73,0
87420,note_off,60,0,4,,,,,,,,,4,,,53,0
87420,note_on,60,0,3,,,,,,,,,2,,,65,49
87440,note_off,40,0,1,,,,,,,,,0,,,75,0
87440,note_on,0,0,1,,,,,,,,,0,,,73,49
87480,note_off,60,0,3,,,,,,,,,2,,,65,0
87480,note_on,0,0,3,,,,,,,,,2,,,56,49
87480,note_off,40,0,1,,,,,,,,,0,,,73,0
87480,note_on,0,0,1,,,,,,,,,0,,,72,48
87540,note_on,0,0,3,,,,,,,,,2,,,65,48
87540,note_off,60,0,3,,,,,,,,,2,,,56,0
87540,note_on,0,0,1,,,,,,,,,0,,,73,48
87540,note_off,60,0,1,,,,,,,,,0,,,72,0
87600,note_off,60,0,1,,,,,,,,,0,,,73,0
87600,note_off,60,0,3,,,,,,,,,2,,,65,0
87600,note_on,0,0,1,,,,,,,,,0,,,72,47
87600,note_on,180,0,4,,,,,,,,,4,,,55,48
87660,note_off,60,0,4,,,,,,,,,4,,,55,0
87660,note_on,60,0,3,,,,,,,,,2,,,67,47
87666,set_tempo,726,1,0,,,,,,1111111,,,,,,,
87720,set_tempo,54,1,0,,,,,,1276595,,,,,,,
87720,note_off,60,0,3,,,,,,,,,2,,,67,0
87720,note_on,0,0,3,,,,,,,,,2,,,58,47
87720,note_off,120,0,1,,,,,,,,,0,,,72,0
87720,note_on,0,0,1,,,,,,,,,0,,,70,47
87780,note_on,0,0,3,,,,,,,,,2,,,67,46
87780,set_tempo,60,1,0,,,,,,1333333,,,,,,,
87780,note_off,60,0,3,,,,,,,,,2,,,58,0
87840,set_tempo,60,1,0,,,,,,1071428,,,,,,,
87840,note_on,0,0,4,,,,,,,,,4,,,63,49
87840,note_on,180,0,4,,,,,,,,,4,,,60,49
87840,note_off,120,0,1,,,,,,,,,0,,,70,0
87840,note_off,60,0,3,,,,,,,,,2,,,67,0
87840,note_on,0,0,1,,,,,,,,,0,,,68,46
87900,note_on,0,0,1,,,,,,,,,0,,,75,46
87900,note_off,60,0,1,,,,,,,,,0,,,68,0
87960,note_off,60,0,1,,,,,,,,,0,,,75,0
87960,note_on,0,0,1,,,,,,,,,0,,,72,46
88020,note_off,60,0,1,,,,,,,,,0,,,72,0
88020,note_on,0,0,1,,,,,,,,,0,,,75,46
88080,note_off,60,0,1,,,,,,,,,0,,,75,0
88080,note_on,0,0,1,,,,,,,,,0,,,80,47
88140,note_off,60,0,1,,,,,,,,,0,,,80,0
88140,note_on,0,0,1,,,,,,,,,0,,,87,47
88200,note_off,60,0,1,,,,,,,,,0,,,87,0
88200,note_on,0,0,1,,,,,,,,,0,,,84,47
88260,note_off,60,0,1,,,,,,,,,0,,,84,0
88260,note_on,0,0,1,,,,,,,,,0,,,87,48
88320,note_off,60,0,1,,,,,,,,,0,,,87,0
88320,note_on,0,0,1,,,,,,,,,0,,,92,48
88380,note_on,60,0,1,,,,,,,,,0,,,80,48
88440,note_on,0,0,1,,,,,,,,,0,,,92,48
88440,note_off,60,0,1,,,,,,,,,0,,,92,0
88500,note_on,0,0,1,,,,,,,,,0,,,80,49
88500,note_off,0,0,1,,,,,,,,,0,,,80,0
88500,note_off,60,0,1,,,,,,,,,0,,,92,0
88560,note_off,720,0,4,,,,,,,,,4,,,63,0
88560,note_off,0,0,4,,,,,,,,,4,,,60,0
88560,note_on,60,0,1,,,,,,,,,0,,,92,49
88560,note_on,0,0,4,,,,,,,,,4,,,56,50
88560,note_on,0,0,4,,,,,,,,,4,,,60,50
88620,note_off,60,0,1,,,,,,,,,0,,,80,0
88620,note_on,0,0,1,,,,,,,,,0,,,80,49
88680,note_on,0,0,1,,,,,,,,,0,,,92,50
88680,note_off,60,0,1,,,,,,,,,0,,,92,0
88740,note_on,0,0,1,,,,,,,,,0,,,80,50
88740,note_off,0,0,1,,,,,,,,,0,,,80,0
88740,note_off,60,0,1,,,,,,,,,0,,,92,0
88800,note_on,0,0,4,,,,,,,,,4,,,60,51
88800,note_off,0,0,4,,,,,,,,,4,,,60,0
88800,note_off,240,0,4,,,,,,,,,4,,,56,0
88800,note_on,0,0,4,,,,,,,,,4,,,56,51
88800,note_on,60,0,1,,,,,,,,,0,,,92,50
88860,note_on,0,0,1,,,,,,,,,0,,,80,50
88860,note_off,60,0,1,,,,,,,,,0,,,80,0
88920,note_on,0,0,1,,,,,,,,,0,,,92,51
88920,note_off,60,0,1,,,,,,,,,0,,,92,0
88980,note_off,0,0,1,,,,,,,,,0,,,80,0
88980,note_off,60,0,1,,,,,,,,,0,,,92,0
88980,note_on,0,0,1,,,,,,,,,0,,,80,51
89040,note_on,60,0,1,,,,,,,,,0,,,92,51
89100,note_on,0,0,1,,,,,,,,,0,,,80,52
89100,note_off,60,0,1,,,,,,,,,0,,,80,0
89160,note_off,360,0,4,,,,,,,,,4,,,56,0
89160,note_off,0,0,4,,,,,,,,,4,,,60,0
89160,note_on,0,0,4,,,,,,,,,4,,,60,53
89160,note_on,0,0,4,,,,,,,,,4,,,56,53
89160,note_on,0,0,1,,,,,,,,,0,,,92,52
89160,note_off,60,0,1,,,,,,,,,0,,,92,0
89160,set_tempo,1320,1,0,,,,,,1111111,,,,,,,
89220,note_on,0,0,1,,,,,,,,,0,,,80,52
89220,note_off,0,0,1,,,,,,,,,0,,,80,0
89220,note_off,60,0,1,,,,,,,,,0,,,92,0
89280,note_on,0,0,1,,,,,,,,,0,,,92,52
89280,note_off,60,0,1,,,,,,,,,0,,,80,0
89280,note_off,0,0,4,,,,,,,,,4,,,60,0
89280,set_tempo,120,1,0,,,,,,1071428,,,,,,,
89280,note_off,120,0,4,,,,,,,,,4,,,56,0
89280,note_on,0,0,4,,,,,,,,,4,,,61,54
89280,note_on,0,0,4,,,,,,,,,4,,,65,54
89340,note_on,60,0,1,,,,,,,,,0,,,80,53
89400,note_off,60,0,1,,,,,,,,,0,,,92,0
89400,note_on,0,0,1,,,,,,,,,0,,,92,53
89460,note_on,0,0,1,,,,,,,,,0,,,80,53
89460,note_off,60,0,1,,,,,,,,,0,,,92,0
89460,note_off,0,0,1,,,,,,,,,0,,,80,0
89520,note_on,60,0,1,,,,,,,,,0,,,92,54
89580,note_off,60,0,1,,,,,,,,,0,,,80,0
89580,note_on,0,0,1,,,,,,,,,0,,,80,54
89640,note_off,60,0,1,,,,,,,,,0,,,92,0
89640,note_on,0,0,1,,,,,,,,,0,,,92,54
89700,set_tempo,420,1,0,,,,,,1111111,,,,,,,
89700,note_on,0,0,1,,,,,,,,,0,,,80,54
89700,note_off,0,0,1,,,,,,,,,0,,,80,0
89700,note_off,60,0,1,,,,,,,,,0,,,92,0
89760,note_on,0,0,4,,,,,,,,,4,,,58,57
89760,note_off,480,0,4,,,,,,,,,4,,,61,0
89760,note_off,0,0,4,,,,,,,,,4,,,65,0
89760,set_tempo,60,1,0,,,,,,1071428,,,,,,,
89760,note_on,60,0,1,,,,,,,,,0,,,92,55
89760,note_on,0,0,4,,,,,,,,,4,,,61,57
89820,note_on,0,0,1,,,,,,,,,0,,,80,55
89820,note_off,60,0,1,,,,,,,,,0,,,80,0
89880,note_on,0,0,1,,,,,,,,,0,,,92,55
89880,note_off,60,0,1,,,,,,,,,0,,,92,0
89940,note_off,60,0,1,,,,,,,,,0,,,92,0
89940,note_on,0,0,1,,,,,,,,,0,,,80,56
89940,note_off,0,0,1,,,,,,,,,0,,,80,0
90000,note_on,60,0,1,,,,,,,,,0,,,92,56
90060,note_off,60,0,1,,,,,,,,,0,,,80,0
90060,note_on,0,0,1,,,,,,,,,0,,,80,56
90120,note_off,60,0,1,,,,,,,,,0,,,92,0
90120,note_on,0,0,1,,,,,,,,,0,,,92,56
90180,note_off,0,0,1,,,,,,,,,0,,,80,0
90180,note_on,0,0,1,,,,,,,,,0,,,80,57
90180,note_off,60,0,1,,,,,,,,,0,,,92,0
90240,note_on,60,0,1,,,,,,,,,0,,,92,57
90300,note_off,60,0,1,,,,,,,,,0,,,80,0
90300,note_on,0,0,1,,,,,,,,,0,,,80,57
90360,note_off,60,0,1,,,,,,,,,0,,,92,0
90360,note_on,0,0,1,,,,,,,,,0,,,92,58
90420,note_off,60,0,1,,,,,,,,,0,,,92,0
90420,note_off,0,0,1,,,,,,,,,0,,,80,0
90420,note_on,0,0,1,,,,,,,,,0,,,80,58
90480,note_on,60,0,1,,,,,,,,,0,,,92,58
90540,note_off,60,0,1,,,,,,,,,0,,,80,0
90540,note_on,0,0,1,,,,,,,,,0,,,80,58
90600,set_tempo,840,1,0,,,,,,1111111,,,,,,,
90600,note_off,60,0,1,,,,,,,,,0,,,92,0
90600,note_on,0,0,1,,,,,,,,,0,,,92,59
90660,note_on,0,0,1,,,,,,,,,0,,,80,59
90660,set_tempo,60,1,0,,,,,,1132075,,,,,,,
90660,note_off,0,0,1,,,,,,,,,0,,,80,0
90660,note_off,60,0,1,,,,,,,,,0,,,92,0
90720,note_off,960,0,4,,,,,,,,,4,,,58,0
90720,note_on,0,0,4,,,,,,,,,4,,,63,60
90720,note_on,0,0,4,,,,,,,,,4,,,66,60
90720,note_off,0,0,4,,,,,,,,,4,,,61,0
90720,note_on,0,0,1,,,,,,,,,0,,,92,59
90720,note_off,60,0,1,,,,,,,,,0,,,80,0
90960,note_on,0,0,1,,,,,,,,,0,,,90,60
90960,note_off,240,0,1,,,,,,,,,0,,,92,0
91080,note_off,120,0,1,,,,,,,,,0,,,90,0
91080,set_tempo,420,1,0,,,,,,1176470,,,,,,,
91080,note_on,0,0,1,,,,,,,,,0,,,89,61
91200,note_off,0,0,4,,,,,,,,,4,,,66,0
91200,note_off,480,0,4,,,,,,,,,4,,,63,0
91200,set_tempo,120,1,0,,,,,,1132075,,,,,,,
91200,note_on,0,0,4,,,,,,,,,4,,,60,63
91200,note_on,0,0,4,,,,,,,,,4,,,63,63
91320,note_off,240,0,1,,,,,,,,,0,,,89,0
91320,note_on,0,0,1,,,,,,,,,0,,,87,57
91380,note_off,60,0,1,,,,,,,,,0,,,87,0
91380,note_on,0,0,1,,,,,,,,,0,,,86,57
91440,note_off,60,0,1,,,,,,,,,0,,,86,0
91440,note_on,0,0,1,,,,,,,,,0,,,87,56
91500,note_off,60,0,1,,,,,,,,,0,,,87,0
91500,note_on,0,0,1,,,,,,,,,0,,,89,55
91560,note_off,60,0,1,,,,,,,,,0,,,89,0
91560,note_on,0,0,1,,,,,,,,,0,,,90,54
91620,note_off,60,0,1,,,,,,,,,0,,,90,0
91620,note_on,0,0,1,,,,,,,,,0,,,89,54
91680,note_on,0,0,1,,,,,,,,,0,,,87,53
91680,note_off,60,0,1,,,,,,,,,0,,,89,0
91680,note_on,480,0,4,,,,,,,,,4,,,68,53
91740,note_off,60,0,1,,,,,,,,,0,,,87,0
91740,note_on,0,0,1,,,,,,,,,0,,,89,52
91800,note_off,60,0,1,,,,,,,,,0,,,89,0
91800,note_on,0,0,1,,,,,,,,,0,,,87,51
91860,note_off,60,0,1,,,,,,,,,0,,,87,0
91860,note_on,0,0,1,,,,,,,,,0,,,85,51
91920,note_on,0,0,1,,,,,,,,,0,,,84,50
91920,note_off,60,0,1,,,,,,,,,0,,,85,0
91980,note_off,60,0,1,,,,,,,,,0,,,84,0
91980,note_on,0,0,1,,,,,,,,,0,,,82,49
92040,note_off,60,0,1,,,,,,,,,0,,,82,0
92040,note_on,0,0,1,,,,,,,,,0,,,80,49
92040,set_tempo,840,1,0,,,,,,1176470,,,,,,,
92100,set_tempo,60,1,0,,,,,,1276595,,,,,,,
92100,note_on,0,0,1,,,,,,,,,0,,,78,48
92100,note_off,60,0,1,,,,,,,,,0,,,80,0
92160,note_off,60,0,1,,,,,,,,,0,,,78,0
92160,set_tempo,60,1,0,,,,,,1071428,,,,,,,
92160,note_off,480,0,4,,,,,,,,,4,,,68,0
92160,note_off,0,0,4,,,,,,,,,4,,,60,0
92160,note_off,0,0,4,,,,,,,,,4,,,63,0
92160,note_on,0,0,4,,,,,,,,,4,,,61,36
92160,note_on,0,0,1,,,,,,,,,0,,,77,46
92280,note_on,4440,0,3,,,,,,,,,2,,,68,30
92280,note_on,0,0,3,,,,,,,,,2,,,65,30
92400,note_on,0,0,3,,,,,,,,,2,,,65,31
92400,note_on,0,0,3,,,,,,,,,2,,,68,31
92400,note_off,0,0,3,,,,,,,,,2,,,68,0
92400,note_off,120,0,3,,,,,,,,,2,,,65,0
92520,note_on,0,0,3,,,,,,,,,2,,,68,32
92520,note_off,120,0,3,,,,,,,,,2,,,65,0
92520,note_off,0,0,3,,,,,,,,,2,,,68,0
92520,note_on,0,0,3,,,,,,,,,2,,,65,32
92640,note_off,120,0,3,,,,,,,,,2,,,65,0
92640,note_off,0,0,3,,,,,,,,,2,,,68,0
92640,note_on,0,0,4,,,,,,,,,4,,,61,37
92640,note_off,480,0,4,,,,,,,,,4,,,61,0
92760,note_on,120,0,3,,,,,,,,,2,,,68,33
92760,note_on,0,0,3,,,,,,,,,2,,,65,33
92880,note_on,0,0,1,,,,,,,,,0,,,80,52
92880,note_off,120,0,3,,,,,,,,,2,,,65,0
92880,note_off,0,0,3,,,,,,,,,2,,,68,0
92880,note_on,0,0,3,,,,,,,,,2,,,65,34
92880,note_on,0,0,3,,,,,,,,,2,,,68,34
92880,note_off,720,0,1,,,,,,,,,0,,,77,0
93000,note_off,120,0,3,,,,,,,,,2,,,68,0
93000,note_off,0,0,3,,,,,,,,,2,,,65,0
93000,note_on,0,0,3,,,,,,,,,2,,,68,35
93000,note_on,0,0,3,,,,,,,,,2,,,65,35
93120,note_off,120,0,3,,,,,,,,,2,,,65,0
93120,note_off,0,0,3,,,,,,,,,2,,,68,0
93120,note_on,0,0,4,,,,,,,,,4,,,61,39
93120,note_off,480,0,4,,,,,,,,,4,,,61,0
93240,note_on,0,0,3,,,,,,,,,2,,,65,36
93240,note_on,120,0,3,,,,,,,,,2,,,68,36
93360,note_off,120,0,3,,,,,,,,,2,,,65,0
93360,note_on,0,0,1,,,,,,,,,0,,,85,56
93360,note_off,0,0,3,,,,,,,,,2,,,68,0
93360,note_on,0,0,3,,,,,,,,,2,,,68,37
93360,note_on,0,0,3,,,,,,,,,2,,,65,37
93360,note_off,480,0,1,,,,,,,,,0,,,80,0
93480,note_off,0,0,3,,,,,,,,,2,,,68,0
93480,note_on,0,0,3,,,,,,,,,2,,,68,38
93480,note_on,0,0,3,,,,,,,,,2,,,65,38
93480,note_off,120,0,3,,,,,,,,,2,,,65,0
93480,set_tempo,1320,1,0,,,,,,1111111,,,,,,,
93600,note_off,240,0,1,,,,,,,,,0,,,85,0
93600,set_tempo,120,1,0,,,,,,1071428,,,,,,,
93600,note_on,0,0,1,,,,,,,,,0,,,85,58
93600,note_off,120,0,3,,,,,,,,,2,,,65,0
93600,note_off,0,0,3,,,,,,,,,2,,,68,0
93600,note_on,0,0,4,,,,,,,,,4,,,63,43
93600,note_off,480,0,4,,,,,,,,,4,,,61,0
93720,note_on,120,0,3,,,,,,,,,2,,,66,39
93720,note_on,0,0,3,,,,,,,,,2,,,68,39
93840,note_off,120,0,3,,,,,,,,,2,,,68,0
93840,note_off,0,0,3,,,,,,,,,2,,,66,0
93840,note_on,0,0,3,,,,,,,,,2,,,68,38
93840,note_on,0,0,3,,,,,,,,,2,,,66,38
93960,note_off,120,0,3,,,,,,,,,2,,,68,0
93960,note_on,0,0,3,,,,,,,,,2,,,68,38
93960,note_on,0,0,3,,,,,,,,,2,,,66,38
93960,note_off,0,0,3,,,,,,,,,2,,,66,0
94080,note_on,0,0,1,,,,,,,,,0,,,84,54
94080,note_off,120,0,3,,,,,,,,,2,,,66,0
94080,note_off,0,0,3,,,,,,,,,2,,,68,0
94080,note_off,480,0,1,,,,,,,,,0,,,85,0
94080,note_on,0,0,4,,,,,,,,,4,,,63,42
94080,note_off,480,0,4,,,,,,,,,4,,,63,0
94200,note_on,0,0,3,,,,,,,,,2,,,66,37
94200,note_on,120,0,3,,,,,,,,,2,,,68,37
94320,note_on,0,0,3,,,,,,,,,2,,,66,37
94320,note_on,0,0,3,,,,,,,,,2,,,68,37
94320,note_off,0,0,3,,,,,,,,,2,,,68,0
94320,note_off,120,0,3,,,,,,,,,2,,,66,0
94440,note_off,0,0,3,,,,,,,,,2,,,68,0
94440,note_off,120,0,3,,,,,,,,,2,,,66,0
94440,note_on,0,0,3,,,,,,,,,2,,,66,36
94440,note_on,0,0,3,,,,,,,,,2,,,68,36
94560,note_off,0,0,3,,,,,,,,,2,,,68,0
94560,note_off,120,0,3,,,,,,,,,2,,,66,0
94560,note_on,0,0,4,,,,,,,,,4,,,63,40
94560,note_off,480,0,4,,,,,,,,,4,,,63,0
94680,note_on,120,0,3,,,,,,,,,2,,,68,35
94680,note_on,0,0,3,,,,,,,,,2,,,66,35
94800,note_on,0,0,3,,,,,,,,,2,,,68,35
94800,note_on,0,0,3,,,,,,,,,2,,,66,35
94800,note_off,0,0,3,,,,,,,,,2,,,68,0
94800,note_off,120,0,3,,,,,,,,,2,,,66,0
94867,set_tempo,1267,1,0,,,,,,1111111,,,,,,,
94920,note_on,0,0,3,,,,,,,,,2,,,66,34
94920,note_off,0,0,3,,,,,,,,,2,,,66,0
94920,note_off,120,0,3,,,,,,,,,2,,,68,0
94920,set_tempo,53,1,0,,,,,,1132075,,,,,,,
94920,note_on,0,0,3,,,,,,,,,2,,,68,34
95040,note_off,120,0,3,,,,,,,,,2,,,68,0
95040,note_off,0,0,3,,,,,,,,,2,,,66,0
95040,note_off,480,0,4,,,,,,,,,4,,,63,0
95040,note_on,0,0,1,,,,,,,,,0,,,87,49
95040,note_off,960,0,1,,,,,,,,,0,,,84,0
95040,set_tempo,120,1,0,,,,,,1071428,,,,,,,
95040,note_on,0,0,4,,,,,,,,,4,,,66,38
95160,note_on,0,0,3,,,,,,,,,2,,,72,34
95160,note_on,0,0,3,,,,,,,,,2,,,68,34
95160,note_on,120,0,3,,,,,,,,,2,,,75,34
95280,note_on,0,0,3,,,,,,,,,2,,,72,34
95280,note_on,0,0,3,,,,,,,,,2,,,68,34
95280,note_on,0,0,3,,,,,,,,,2,,,75,34
95280,note_off,0,0,3,,,,,,,,,2,,,75,0
95280,note_off,0,0,3,,,,,,,,,2,,,68,0
95280,note_off,120,0,3,,,,,,,,,2,,,72,0
95400,note_off,0,0,3,,,,,,,,,2,,,75,0
95400,note_on,0,0,3,,,,,,,,,2,,,68,35
95400,note_on,0,0,3,,,,,,,,,2,,,75,35
95400,note_on,0,0,3,,,,,,,,,2,,,72,35
95400,note_off,120,0,3,,,,,,,,,2,,,72,0
95400,note_off,0,0,3,,,,,,,,,2,,,68,0
95520,note_off,480,0,4,,,,,,,,,4,,,66,0
95520,note_off,120,0,3,,,,,,,,,2,,,72,0
95520,note_off,0,0,3,,,,,,,,,2,,,75,0
95520,note_off,0,0,3,,,,,,,,,2,,,68,0
95520,note_on,0,0,4,,,,,,,,,4,,,66,39
95640,note_on,120,0,3,,,,,,,,,2,,,68,36
95640,note_on,0,0,3,,,,,,,,,2,,,72,36
95640,note_on,0,0,3,,,,,,,,,2,,,75,36
95760,note_off,720,0,1,,,,,,,,,0,,,87,0
95760,note_on,0,0,1,,,,,,,,,0,,,84,47
95760,note_on,0,0,3,,,,,,,,,2,,,72,36
95760,note_on,0,0,3,,,,,,,,,2,,,75,36
95760,note_off,120,0,3,,,,,,,,,2,,,72,0
95760,note_off,0,0,3,,,,,,,,,2,,,75,0
95760,note_off,0,0,3,,,,,,,,,2,,,68,0
95760,note_on,0,0,3,,,,,,,,,2,,,68,36
95880,note_on,0,0,3,,,,,,,,,2,,,72,36
95880,note_on,0,0,3,,,,,,,,,2,,,68,36
95880,note_on,0,0,3,,,,,,,,,2,,,75,36
95880,note_off,0,0,3,,,,,,,,,2,,,68,0
95880,note_off,120,0,3,,,,,,,,,2,,,72,0
95880,note_off,0,0,3,,,,,,,,,2,,,75,0
96000,note_off,0,0,3,,,,,,,,,2,,,75,0
96000,note_off,0,0,3,,,,,,,,,2,,,68,0
96000,note_off,120,0,3,,,,,,,,,2,,,72,0
96000,note_off,480,0,4,,,,,,,,,4,,,66,0
96000,note_on,0,0,4,,,,,,,,,4,,,66,40
96120,note_on,120,0,3,,,,,,,,,2,,,68,37
96120,note_on,0,0,3,,,,,,,,,2,,,75,37
96120,note_on,0,0,3,,,,,,,,,2,,,72,37
96240,note_on,0,0,1,,,,,,,,,0,,,80,50
96240,note_off,480,0,1,,,,,,,,,0,,,84,0
96240,note_on,0,0,3,,,,,,,,,2,,,72,38
96240,note_off,120,0,3,,,,,,,,,2,,,72,0
96240,note_off,0,0,3,,,,,,,,,2,,,75,0
96240,note_off,0,0,3,,,,,,,,,2,,,68,0
96240,note_on,0,0,3,,,,,,,,,2,,,75,38
96240,note_on,0,0,3,,,,,,,,,2,,,68,38
96360,note_on,0,0,3,,,,,,,,,2,,,72,38
96360,note_on,0,0,3,,,,,,,,,2,,,68,38
96360,note_off,0,0,3,,,,,,,,,2,,,75,0
96360,note_on,0,0,3,,,,,,,,,2,,,75,38
96360,note_off,120,0,3,,,,,,,,,2,,,72,0
96360,set_tempo,1320,1,0,,,,,,1111111,,,,,,,
96360,note_off,0,0,3,,,,,,,,,2,,,68,0
96480,note_on,0,0,1,,,,,,,,,0,,,80,51
96480,note_on,0,0,4,,,,,,,,,4,,,65,42
96480,note_off,480,0,4,,,,,,,,,4,,,66,0
96480,note_off,120,0,3,,,,,,,,,2,,,72,0
96480,note_off,0,0,3,,,,,,,,,2,,,68,0
96480,note_off,0,0,3,,,,,,,,,2,,,75,0
96480,set_tempo,120,1,0,,,,,,1071428,,,,,,,
96480,note_off,240,0,1,,,,,,,,,0,,,80,0
96600,note_on,120,0,3,,,,,,,,,2,,,73,39
96600,note_on,0,0,3,,,,,,,,,2,,,68,39
96720,note_off,0,0,3,,,,,,,,,2,,,73,0
96720,note_on,0,0,3,,,,,,,,,2,,,68,39
96720,note_off,120,0,3,,,,,,,,,2,,,68,0
96720,note_on,0,0,3,,,,,,,,,2,,,73,39
96840,note_off,120,0,3,,,,,,,,,2,,,73,0
96840,note_off,0,0,3,,,,,,,,,2,,,68,0
96840,note_on,0,0,3,,,,,,,,,2,,,73,40
96840,note_on,0,0,3,,,,,,,,,2,,,68,40
96960,note_on,0,0,1,,,,,,,,,0,,,85,54
96960,note_off,480,0,1,,,,,,,,,0,,,80,0
96960,note_off,480,0,4,,,,,,,,,4,,,65,0
96960,note_off,0,0,3,,,,,,,,,2,,,68,0
96960,note_off,120,0,3,,,,,,,,,2,,,73,0
96960,note_on,0,0,4,,,,,,,,,4,,,65,43
97080,note_on,0,0,3,,,,,,,,,2,,,73,40
97080,note_on,120,0,3,,,,,,,,,2,,,68,40
97200,note_on,0,0,3,,,,,,,,,2,,,68,41
97200,note_on,0,0,3,,,,,,,,,2,,,73,41
97200,note_off,120,0,3,,,,,,,,,2,,,73,0
97200,note_off,0,0,3,,,,,,,,,2,,,68,0
97320,note_off,120,0,3,,,,,,,,,2,,,73,0
97320,note_on,0,0,3,,,,,,,,,2,,,73,41
97320,note_on,0,0,3,,,,,,,,,2,,,68,41
97320,note_off,0,0,3,,,,,,,,,2,,,68,0
97440,note_off,0,0,3,,,,,,,,,2,,,68,0
97440,note_on,0,0,4,,,,,,,,,4,,,65,45
97440,note_off,480,0,4,,,,,,,,,4,,,65,0
97440,note_off,120,0,3,,,,,,,,,2,,,73,0
97560,note_on,120,0,3,,,,,,,,,2,,,73,42
97560,note_on,0,0,3,,,,,,,,,2,,,68,42
97680,note_off,720,0,1,,,,,,,,,0,,,85,0
97680,note_on,0,0,1,,,,,,,,,0,,,85,58
97680,note_off,120,0,3,,,,,,,,,2,,,68,0
97680,note_off,0,0,3,,,,,,,,,2,,,73,0
97680,note_on,0,0,3,,,,,,,,,2,,,68,42
97680,note_on,0,0,3,,,,,,,,,2,,,73,42
97747,set_tempo,1267,1,0,,,,,,1111111,,,,,,,
97800,note_off,120,0,3,,,,,,,,,2,,,73,0
97800,note_on,0,0,3,,,,,,,,,2,,,73,43
97800,set_tempo,53,1,0,,,,,,1132075,,,,,,,
97800,note_on,0,0,3,,,,,,,,,2,,,68,43
97800,note_off,0,0,3,,,,,,,,,2,,,68,0
97920,note_off,240,0,1,,,,,,,,,0,,,85,0
97920,note_off,0,0,3,,,,,,,,,2,,,68,0
97920,note_off,120,0,3,,,,,,,,,2,,,73,0
97920,set_tempo,120,1,0,,,,,,1071428,,,,,,,
97920,note_off,480,0,4,,,,,,,,,4,,,65,0
97920,note_on,0,0,4,,,,,,,,,4,,,64,46
97920,note_on,0,0,1,,,,,,,,,0,,,85,67
98040,note_on,0,0,3,,,,,,,,,2,,,68,43
98040,note_on,120,0,3,,,,,,,,,2,,,73,43
98160,note_off,120,0,3,,,,,,,,,2,,,68,0
98160,note_on,0,0,3,,,,,,,,,2,,,73,43
98160,note_on,0,0,3,,,,,,,,,2,,,68,43
98160,note_off,0,0,3,,,,,,,,,2,,,73,0
98280,note_on,0,0,3,,,,,,,,,2,,,68,42
98280,note_off,0,0,3,,,,,,,,,2,,,68,0
98280,note_off,120,0,3,,,,,,,,,2,,,73,0
98280,note_on,0,0,3,,,,,,,,,2,,,73,42
98400,note_off,480,0,1,,,,,,,,,0,,,85,0
98400,note_on,0,0,1,,,,,,,,,0,,,85,63
98400,note_off,480,0,4,,,,,,,,,4,,,64,0
98400,note_off,0,0,3,,,,,,,,,2,,,68,0
98400,note_off,120,0,3,,,,,,,,,2,,,73,0
98400,note_on,0,0,4,,,,,,,,,4,,,64,44
98520,note_on,0,0,3,,,,,,,,,2,,,73,41
98520,note_on,120,0,3,,,,,,,,,2,,,68,41
98640,note_on,0,0,3,,,,,,,,,2,,,68,41
98640,note_off,0,0,3,,,,,,,,,2,,,68,0
98640,note_off,120,0,3,,,,,,,,,2,,,73,0
98640,note_on,0,0,3,,,,,,,,,2,,,73,41
98760,note_on,0,0,3,,,,,,,,,2,,,73,40
98760,note_on,0,0,3,,,,,,,,,2,,,68,40
98760,note_off,0,0,3,,,,,,,,,2,,,73,0
98760,note_off,120,0,3,,,,,,,,,2,,,68,0
98880,note_on,0,0,4,,,,,,,,,4,,,64,43
98880,note_off,480,0,4,,,,,,,,,4,,,64,0
98880,note_off,120,0,3,,,,,,,,,2,,,73,0
98880,note_off,0,0,3,,,,,,,,,2,,,68,0
99000,note_on,120,0,3,,,,,,,,,2,,,68,40
99000,note_on,0,0,3,,,,,,,,,2,,,73,40
99120,note_off,720,0,1,,,,,,,,,0,,,85,0
99120,note_on,0,0,1,,,,,,,,,0,,,85,57
99120,note_off,120,0,3,,,,,,,,,2,,,73,0
99120,note_off,0,0,3,,,,,,,,,2,,,68,0
99120,note_on,0,0,3,,,,,,,,,2,,,68,39
99120,note_on,0,0,3,,,,,,,,,2,,,73,39
99240,note_off,120,0,3,,,,,,,,,2,,,73,0
99240,set_tempo,1320,1,0,,,,,,1111111,,,,,,,
99240,note_off,0,0,3,,,,,,,,,2,,,68,0
99240,note_on,0,0,3,,,,,,,,,2,,,73,39
99240,note_on,0,0,3,,,,,,,,,2,,,68,39
99360,note_off,120,0,3,,,,,,,,,2,,,73,0
99360,note_off,0,0,3,,,,,,,,,2,,,68,0
99360,note_on,0,0,4,,,,,,,,,4,,,63,41
99360,note_off,480,0,4,,,,,,,,,4,,,64,0
99360,note_off,240,0,1,,,,,,,,,0,,,85,0
99360,note_on,0,0,1,,,,,,,,,0,,,85,57
99360,set_tempo,120,1,0,,,,,,1071428,,,,,,,
99480,note_on,120,0,3,,,,,,,,,2,,,66,38
99480,note_on,0,0,3,,,,,,,,,2,,,71,38
99600,note_off,120,0,3,,,,,,,,,2,,,71,0
99600,note_off,0,0,3,,,,,,,,,2,,,66,0
99600,note_on,0,0,3,,,,,,,,,2,,,71,38
99600,note_on,0,0,3,,,,,,,,,2,,,66,38
99720,note_on,0,0,3,,,,,,,,,2,,,66,37
99720,note_off,120,0,3,,,,,,,,,2,,,71,0
99720,note_on,0,0,3,,,,,,,,,2,,,71,37
99720,note_off,0,0,3,,,,,,,,,2,,,66,0
99840,note_off,480,0,4,,,,,,,,,4,,,63,0
99840,note_off,480,0,1,,,,,,,,,0,,,85,0
99840,note_on,0,0,1,,,,,,,,,0,,,83,53
99840,note_on,0,0,4,,,,,,,,,4,,,63,39
99840,note_off,120,0,3,,,,,,,,,2,,,71,0
99840,note_off,0,0,3,,,,,,,,,2,,,66,0
99960,note_on,120,0,3,,,,,,,,,2,,,66,36
99960,note_on,0,0,3,,,,,,,,,2,,,71,36
100080,note_off,120,0,3,,,,,,,,,2,,,71,0
100080,note_off,0,0,3,,,,,,,,,2,,,66,0
100080,note_on,0,0,3,,,,,,,,,2,,,66,36
100080,note_on,0,0,3,,,,,,,,,2,,,71,36
100200,note_on,0,0,3,,,,,,,,,2,,,71,35
100200,note_on,0,0,3,,,,,,,,,2,,,66,35
100200,note_off,120,0,3,,,,,,,,,2,,,71,0
100200,note_off,0,0,3,,,,,,,,,2,,,66,0
100320,note_off,120,0,3,,,,,,,,,2,,,66,0
100320,note_off,0,0,3,,,,,,,,,2,,,71,0
100320,note_on,0,0,4,,,,,,,,,4,,,63,38
100320,note_off,480,0,4,,,,,,,,,4,,,63,0
100440,note_on,120,0,3,,,,,,,,,2,,,66,35
100440,note_on,0,0,3,,,,,,,,,2,,,71,35
100560,note_off,120,0,3,,,,,,,,,2,,,71,0
100560,note_off,0,0,3,,,,,,,,,2,,,66,0
100560,note_on,0,0,3,,,,,,,,,2,,,66,34
100560,note_on,0,0,3,,,,,,,,,2,,,71,34
100560,note_off,720,0,1,,,,,,,,,0,,,83,0
100560,note_on,0,0,1,,,,,,,,,0,,,83,47
100680,note_on,0,0,3,,,,,,,,,2,,,71,34
100680,note_on,0,0,3,,,,,,,,,2,,,66,34
100680,note_off,0,0,3,,,,,,,,,2,,,66,0
100680,note_off,120,0,3,,,,,,,,,2,,,71,0
100790,set_tempo,1430,1,0,,,,,,1111111,,,,,,,
100800,note_off,480,0,4,,,,,,,,,4,,,63,0
100800,note_off,0,0,3,,,,,,,,,2,,,66,0
100800,note_off,120,0,3,,,,,,,,,2,,,71,0
100800,note_on,0,0,4,,,,,,,,,4,,,63,36
100920,note_on,0,0,3,,,,,,,,,2,,,71,33
100920,note_on,120,0,3,,,,,,,,,2,,,66,33
101040,note_off,0,0,3,,,,,,,,,2,,,66,0
101040,note_on,0,0,1,,,,,,,,,0,,,81,43
101040,note_off,480,0,1,,,,,,,,,0,,,83,0
101040,note_on,0,0,3,,,,,,,,,2,,,71,33
101040,note_on,0,0,3,,,,,,,,,2,,,66,33
101040,note_off,120,0,3,,,,,,,,,2,,,71,0
101160,note_on,0,0,3,,,,,,,,,2,,,71,32
101160,note_on,0,0,3,,,,,,,,,2,,,66,32
101160,note_off,0,0,3,,,,,,,,,2,,,66,0
101160,note_off,120,0,3,,,,,,,,,2,,,71,0
101220,set_tempo,430,1,0,,,,,,1132075,,,,,,,
101280,note_off,120,0,3,,,,,,,,,2,,,71,0
101280,note_on,0,0,4,,,,,,,,,4,,,63,34
101280,note_off,0,0,3,,,,,,,,,2,,,66,0
101280,note_off,480,0,4,,,,,,,,,4,,,63,0
101340,note_off,300,0,1,,,,,,,,,0,,,81,0
101340,note_on,0,0,1,,,,,,,,,0,,,83,41
101400,note_on,0,0,3,,,,,,,,,2,,,71,31
101400,note_on,120,0,3,,,,,,,,,2,,,66,31
101400,note_on,0,0,1,,,,,,,,,0,,,81,40
101400,note_off,60,0,1,,,,,,,,,0,,,83,0
101460,note_off,60,0,1,,,,,,,,,0,,,81,0
101460,note_on,0,0,1,,,,,,,,,0,,,80,40
101520,note_off,60,0,1,,,,,,,,,0,,,80,0
101520,note_on,0,0,1,,,,,,,,,0,,,81,39
101520,note_off,120,0,3,,,,,,,,,2,,,71,0
101520,note_off,0,0,3,,,,,,,,,2,,,66,0
101520,note_on,0,0,3,,,,,,,,,2,,,66,31
101520,note_on,0,0,3,,,,,,,,,2,,,71,31
101640,note_off,120,0,1,,,,,,,,,0,,,81,0
101640,note_on,0,0,1,,,,,,,,,0,,,83,38
101640,note_off,120,0,3,,,,,,,,,2,,,71,0
101640,note_off,0,0,3,,,,,,,,,2,,,66,0
101640,note_on,0,0,3,,,,,,,,,2,,,66,30
101640,note_on,0,0,3,,,,,,,,,2,,,71,30
101677,set_tempo,457,1,0,,,,,,1176470,,,,,,,
101760,note_off,120,0,1,,,,,,,,,0,,,83,0
101760,note_on,0,0,1,,,,,,,,,0,,,81,37
101760,note_off,480,0,4,,,,,,,,,4,,,63,0
101760,note_on,0,0,4,,,,,,,,,4,,,63,33
101760,note_off,0,0,3,,,,,,,,,2,,,66,0
101760,note_off,120,0,3,,,,,,,,,2,,,71,0
101820,note_on,0,0,1,,,,,,,,,0,,,83,37
101820,note_off,60,0,1,,,,,,,,,0,,,81,0
101880,note_off,60,0,1,,,,,,,,,0,,,83,0
101880,note_on,0,0,1,,,,,,,,,0,,,85,36
101880,note_on,120,0,3,,,,,,,,,2,,,66,30
101880,note_on,0,0,3,,,,,,,,,2,,,71,30
101940,set_tempo,263,1,0,,,,,,1224489,,,,,,,
102000,set_tempo,60,1,0,,,,,,1363636,,,,,,,
102000,note_on,0,0,3,,,,,,,,,2,,,71,29
102000,note_on,0,0,3,,,,,,,,,2,,,66,29
102000,note_off,0,0,3,,,,,,,,,2,,,66,0
102000,note_on,0,0,1,,,,,,,,,0,,,83,35
102000,note_off,120,0,1,,,,,,,,,0,,,85,0
102000,note_off,120,0,3,,,,,,,,,2,,,71,0
102120,note_off,0,0,3,,,,,,,,,2,,,66,0
102120,note_off,120,0,3,,,,,,,,,2,,,71,0
102120,note_off,120,0,1,,,,,,,,,0,,,83,0
102120,note_on,0,0,3,,,,,,,,,2,,,71,29
102120,note_on,0,0,3,,,,,,,,,2,,,66,29
102120,set_tempo,120,1,0,,,,,,1935483,,,,,,,
102120,note_on,0,0,1,,,,,,,,,0,,,81,34
102240,note_off,0,0,3,,,,,,,,,2,,,66,0
102240,note_off,480,0,4,,,,,,,,,4,,,63,0
102240,note_on,0,0,4,,,,,,,,,4,,,64,31
102240,note_on,0,0,3,,,,,,,,,2,,,71,28
102240,note_on,0,0,1,,,,,,,,,0,,,80,45
102240,note_on,0,0,3,,,,,,,,,2,,,68,28
102240,set_tempo,120,1,0,,,,,,1071428,,,,,,,
102240,note_off,120,0,3,,,,,,,,,2,,,71,0
102240,note_off,120,0,1,,,,,,,,,0,,,81,0
102300,note_on,15948,0,2,,,,,,,,,1,,,88,41
102300,note_off,60,0,1,,,,,,,,,0,,,80,0
102360,note_off,60,0,2,,,,,,,,,1,,,88,0
102360,note_on,0,0,2,,,,,,,,,1,,,83,41
102420,note_on,0,0,2,,,,,,,,,1,,,88,41
102420,note_off,60,0,2,,,,,,,,,1,,,83,0
102480,note_off,60,0,2,,,,,,,,,1,,,88,0
102480,note_off,0,0,3,,,,,,,,,2,,,68,0
102480,note_off,240,0,3,,,,,,,,,2,,,71,0
102480,note_on,180,0,1,,,,,,,,,0,,,92,47
102480,note_off,240,0,4,,,,,,,,,4,,,64,0
102540,note_off,60,0,1,,,,,,,,,0,,,92,0
102540,note_on,60,0,2,,,,,,,,,1,,,88,41
102600,note_on,0,0,2,,,,,,,,,1,,,83,41
102600,note_off,60,0,2,,,,,,,,,1,,,88,0
102660,note_off,60,0,2,,,,,,,,,1,,,83,0
102660,note_on,0,0,2,,,,,,,,,1,,,88,41
102720,note_off,60,0,2,,,,,,,,,1,,,88,0
102720,note_on,180,0,1,,,,,,,,,0,,,80,46
102780,note_on,60,0,2,,,,,,,,,1,,,76,41
102780,note_off,60,0,1,,,,,,,,,0,,,80,0
102840,note_off,60,0,2,,,,,,,,,1,,,76,0
102840,note_on,0,0,2,,,,,,,,,1,,,71,41
102900,note_off,60,0,2,,,,,,,,,1,,,71,0
102900,note_on,0,0,2,,,,,,,,,1,,,76,41
102960,note_off,60,0,2,,,,,,,,,1,,,76,0
102960,note_on,180,0,1,,,,,,,,,0,,,68,46
103020,note_off,60,0,1,,,,,,,,,0,,,68,0
103020,note_on,60,0,2,,,,,,,,,1,,,64,40
103080,note_on,0,0,2,,,,,,,,,1,,,59,40
103080,note_off,60,0,2,,,,,,,,,1,,,64,0
103140,note_off,60,0,2,,,,,,,,,1,,,59,0
103140,note_on,0,0,2,,,,,,,,,1,,,64,40
103200,note_on,180,0,1,,,,,,,,,0,,,56,45
103200,note_on,720,0,4,,,,,,,,,4,,,40,40
103200,note_off,60,0,2,,,,,,,,,1,,,64,0
103260,note_on,60,0,2,,,,,,,,,1,,,52,40
103260,note_off,60,0,1,,,,,,,,,0,,,56,0
103320,note_off,60,0,2,,,,,,,,,1,,,52,0
103320,note_on,0,0,2,,,,,,,,,1,,,47,40
103380,note_on,0,0,2,,,,,,,,,1,,,52,40
103380,note_off,60,0,2,,,,,,,,,1,,,47,0
103440,note_off,60,0,2,,,,,,,,,1,,,52,0
103440,note_off,240,0,4,,,,,,,,,4,,,40,0
103440,note_on,180,0,1,,,,,,,,,0,,,44,44
103500,note_off,60,0,1,,,,,,,,,0,,,44,0
103500,note_on,60,0,2,,,,,,,,,1,,,52,40
103560,set_tempo,1320,1,0,,,,,,1111111,,,,,,,
103560,note_off,60,0,2,,,,,,,,,1,,,52,0
103560,note_on,0,0,2,,,,,,,,,1,,,47,40
103620,note_off,60,0,2,,,,,,,,,1,,,47,0
103620,note_on,0,0,2,,,,,,,,,1,,,52,40
103680,set_tempo,120,1,0,,,,,,1071428,,,,,,,
103680,note_on,240,0,4,,,,,,,,,4,,,30,39
103680,note_on,0,0,4,,,,,,,,,4,,,42,39
103680,note_off,60,0,2,,,,,,,,,1,,,52,0
103680,note_on,180,0,1,,,,,,,,,0,,,39,43
103680,note_on,1200,0,3,,,,,,,,,2,,,35,39
103740,note_off,60,0,1,,,,,,,,,0,,,39,0
103740,note_on,60,0,2,,,,,,,,,1,,,47,39
103800,note_on,0,0,2,,,,,,,,,1,,,45,39
103800,note_off,60,0,2,,,,,,,,,1,,,47,0
103860,note_off,60,0,2,,,,,,,,,1,,,45,0
103860,note_on,0,0,2,,,,,,,,,1,,,47,39
103920,note_off,60,0,2,,,,,,,,,1,,,47,0
103920,note_off,0,0,4,,,,,,,,,4,,,30,0
103920,note_off,240,0,3,,,,,,,,,2,,,35,0
103920,note_off,240,0,4,,,,,,,,,4,,,42,0
103920,note_on,180,0,1,,,,,,,,,0,,,51,43
103980,note_off,60,0,1,,,,,,,,,0,,,51,0
103980,note_on,60,0,2,,,,,,,,,1,,,47,39
104040,note_off,60,0,2,,,,,,,,,1,,,47,0
104040,note_on,0,0,2,,,,,,,,,1,,,45,39
104100,note_off,60,0,2,,,,,,,,,1,,,45,0
104100,note_on,0,0,2,,,,,,,,,1,,,47,39
104160,note_off,60,0,2,,,,,,,,,1,,,47,0
104160,note_on,0,0,4,,,,,,,,,4,,,30,38
104160,note_on,240,0,4,,,,,,,,,4,,,42,38
104160,note_on,180,0,1,,,,,,,,,0,,,51,42
104160,note_on,240,0,3,,,,,,,,,2,,,35,38
104220,note_off,60,0,1,,,,,,,,,0,,,51,0
104220,note_on,60,0,2,,,,,,,,,1,,,59,39
104280,note_on,0,0,2,,,,,,,,,1,,,57,39
104280,note_off,60,0,2,,,,,,,,,1,,,59,0
104340,note_on,0,0,2,,,,,,,,,1,,,59,39
104340,note_off,60,0,2,,,,,,,,,1,,,57,0
104400,note_off,60,0,2,,,,,,,,,1,,,59,0
104400,note_off,240,0,4,,,,,,,,,4,,,30,0
104400,note_off,0,0,4,,,,,,,,,4,,,42,0
104400,note_on,180,0,1,,,,,,,,,0,,,63,41
104400,note_off,240,0,3,,,,,,,,,2,,,35,0
104460,note_on,60,0,2,,,,,,,,,1,,,59,39
104460,note_off,60,0,1,,,,,,,,,0,,,63,0
104520,note_on,0,0,2,,,,,,,,,1,,,57,38
104520,note_off,60,0,2,,,,,,,,,1,,,59,0
104580,note_off,60,0,2,,,,,,,,,1,,,57,0
104580,note_on,0,0,2,,,,,,,,,1,,,59,38
104640,note_off,60,0,2,,,,,,,,,1,,,59,0
104640,note_on,240,0,3,,,,,,,,,2,,,35,37
104640,note_on,180,0,1,,,,,,,,,0,,,63,40
104640,note_on,240,0,4,,,,,,,,,4,,,42,37
104640,note_on,0,0,4,,,,,,,,,4,,,30,37
104700,note_on,60,0,2,,,,,,,,,1,,,71,38
104700,note_off,60,0,1,,,,,,,,,0,,,63,0
104760,note_on,0,0,2,,,,,,,,,1,,,69,38
104760,note_off,60,0,2,,,,,,,,,1,,,71,0
104820,note_on,0,0,2,,,,,,,,,1,,,71,38
104820,note_off,60,0,2,,,,,,,,,1,,,69,0
104880,note_off,60,0,2,,,,,,,,,1,,,71,0
104880,note_on,180,0,1,,,,,,,,,0,,,75,40
104880,note_off,240,0,3,,,,,,,,,2,,,35,0
104880,note_off,0,0,4,,,,,,,,,4,,,42,0
104880,note_off,240,0,4,,,,,,,,,4,,,30,0
104940,note_on,60,0,2,,,,,,,,,1,,,71,38
104940,note_off,60,0,1,,,,,,,,,0,,,75,0
105000,set_tempo,1320,1,0,,,,,,1111111,,,,,,,
105000,note_off,60,0,2,,,,,,,,,1,,,71,0
105000,note_on,0,0,2,,,,,,,,,1,,,69,38
105060,note_off,60,0,2,,,,,,,,,1,,,69,0
105060,note_on,0,0,2,,,,,,,,,1,,,71,38
105120,note_on,240,0,4,,,,,,,,,4,,,32,36
105120,note_on,240,0,3,,,,,,,,,2,,,35,36
105120,note_on,180,0,1,,,,,,,,,0,,,76,39
105120,note_on,0,0,4,,,,,,,,,4,,,44,36
105120,note_off,60,0,2,,,,,,,,,1,,,71,0
105120,set_tempo,120,1,0,,,,,,1071428,,,,,,,
105180,note_off,60,0,1,,,,,,,,,0,,,76,0
105180,note_on,60,0,2,,,,,,,,,1,,,83,38
105240,note_off,60,0,2,,,,,,,,,1,,,83,0
105240,note_on,0,0,2,,,,,,,,,1,,,80,37
105300,note_off,60,0,2,,,,,,,,,1,,,80,0
105300,note_on,0,0,2,,,,,,,,,1,,,83,37
105360,note_off,240,0,3,,,,,,,,,2,,,35,0
105360,note_off,0,0,4,,,,,,,,,4,,,32,0
105360,note_on,180,0,1,,,,,,,,,0,,,88,41
105360,note_off,240,0,4,,,,,,,,,4,,,44,0
105360,note_off,60,0,2,,,,,,,,,1,,,83,0
105420,note_off,60,0,1,,,,,,,,,0,,,88,0
105420,note_on,60,0,2,,,,,,,,,1,,,83,37
105480,note_off,60,0,2,,,,,,,,,1,,,83,0
105480,note_on,0,0,2,,,,,,,,,1,,,80,37
105540,note_on,0,0,2,,,,,,,,,1,,,83,37
105540,note_off,60,0,2,,,,,,,,,1,,,80,0
105600,note_off,60,0,2,,,,,,,,,1,,,83,0
105600,note_on,180,0,1,,,,,,,,,0,,,76,40
105660,note_off,60,0,1,,,,,,,,,0,,,76,0
105660,note_on,60,0,2,,,,,,,,,1,,,71,37
105720,note_off,60,0,2,,,,,,,,,1,,,71,0
105720,note_on,0,0,2,,,,,,,,,1,,,68,37
105780,note_off,60,0,2,,,,,,,,,1,,,68,0
105780,note_on,0,0,2,,,,,,,,,1,,,71,37
105840,note_off,60,0,2,,,,,,,,,1,,,71,0
105840,note_on,180,0,1,,,,,,,,,0,,,64,39
105900,note_on,60,0,2,,,,,,,,,1,,,59,37
105900,note_off,60,0,1,,,,,,,,,0,,,64,0
105960,note_on,0,0,2,,,,,,,,,1,,,56,37
105960,note_off,60,0,2,,,,,,,,,1,,,59,0
106020,note_on,0,0,2,,,,,,,,,1,,,59,36
106020,note_off,60,0,2,,,,,,,,,1,,,56,0
106080,note_off,60,0,2,,,,,,,,,1,,,59,0
106080,note_on,180,0,1,,,,,,,,,0,,,52,37
106140,note_on,60,0,2,,,,,,,,,1,,,59,36
106140,note_off,60,0,1,,,,,,,,,0,,,52,0
106200,note_off,60,0,2,,,,,,,,,1,,,59,0
106200,note_on,0,0,2,,,,,,,,,1,,,56,36
106260,note_on,0,0,2,,,,,,,,,1,,,59,36
106260,note_off,60,0,2,,,,,,,,,1,,,56,0
106320,note_off,60,0,2,,,,,,,,,1,,,59,0
106320,note_on,180,0,1,,,,,,,,,0,,,64,36
106380,note_on,60,0,2,,,,,,,,,1,,,59,36
106380,note_off,60,0,1,,,,,,,,,0,,,64,0
106440,note_on,0,0,2,,,,,,,,,1,,,56,36
106440,note_off,60,0,2,,,,,,,,,1,,,59,0
106440,set_tempo,1320,1,0,,,,,,1111111,,,,,,,
106500,note_on,0,0,2,,,,,,,,,1,,,59,36
106500,note_off,60,0,2,,,,,,,,,1,,,56,0
106560,note_on,1200,0,4,,,,,,,,,4,,,39,34
106560,note_on,0,0,4,,,,,,,,,4,,,51,34
106560,set_tempo,120,1,0,,,,,,1071428,,,,,,,
106560,note_on,1200,0,3,,,,,,,,,2,,,47,34
106560,note_on,180,0,1,,,,,,,,,0,,,54,36
106560,note_off,60,0,2,,,,,,,,,1,,,59,0
106620,note_off,60,0,1,,,,,,,,,0,,,54,0
106620,note_on,60,0,2,,,,,,,,,1,,,59,36
106680,note_on,0,0,2,,,,,,,,,1,,,57,36
106680,note_off,60,0,2,,,,,,,,,1,,,59,0
106740,note_on,0,0,2,,,,,,,,,1,,,59,36
106740,note_off,60,0,2,,,,,,,,,1,,,57,0
106800,note_off,60,0,2,,,,,,,,,1,,,59,0
106800,note_on,180,0,1,,,,,,,,,0,,,66,38
106800,note_off,240,0,3,,,,,,,,,2,,,47,0
106800,note_off,0,0,4,,,,,,,,,4,,,39,0
106800,note_off,240,0,4,,,,,,,,,4,,,51,0
106860,note_on,60,0,2,,,,,,,,,1,,,59,37
106860,note_off,60,0,1,,,,,,,,,0,,,66,0
106920,note_on,0,0,2,,,,,,,,,1,,,57,37
106920,note_off,60,0,2,,,,,,,,,1,,,59,0
106980,note_on,0,0,2,,,,,,,,,1,,,59,37
106980,note_off,60,0,2,,,,,,,,,1,,,57,0
107040,note_off,60,0,2,,,,,,,,,1,,,59,0
107040,note_on,240,0,4,,,,,,,,,4,,,51,38
107040,note_on,180,0,1,,,,,,,,,0,,,66,40
107040,note_on,240,0,3,,,,,,,,,2,,,47,38
107040,note_on,0,0,4,,,,,,,,,4,,,39,38
107100,note_on,60,0,2,,,,,,,,,1,,,71,37
107100,note_off,60,0,1,,,,,,,,,0,,,66,0
107160,note_off,60,0,2,,,,,,,,,1,,,71,0
107160,note_on,0,0,2,,,,,,,,,1,,,69,38
107220,note_off,60,0,2,,,,,,,,,1,,,69,0
107220,note_on,0,0,2,,,,,,,,,1,,,71,38
107280,note_off,60,0,2,,,,,,,,,1,,,71,0
107280,note_off,240,0,3,,,,,,,,,2,,,47,0
107280,note_on,180,0,1,,,,,,,,,0,,,78,42
107280,note_off,0,0,4,,,,,,,,,4,,,51,0
107280,note_off,240,0,4,,,,,,,,,4,,,39,0
107340,note_off,60,0,1,,,,,,,,,0,,,78,0
107340,note_on,60,0,2,,,,,,,,,1,,,71,38
107400,note_on,0,0,2,,,,,,,,,1,,,69,39
107400,note_off,60,0,2,,,,,,,,,1,,,71,0
107460,note_off,60,0,2,,,,,,,,,1,,,69,0
107460,note_on,0,0,2,,,,,,,,,1,,,71,39
107520,note_on,0,0,4,,,,,,,,,4,,,39,40
107520,note_on,240,0,4,,,,,,,,,4,,,51,40
107520,note_on,180,0,1,,,,,,,,,0,,,78,44
107520,note_on,240,0,3,,,,,,,,,2,,,47,40
107520,note_off,60,0,2,,,,,,,,,1,,,71,0
107580,note_off,60,0,1,,,,,,,,,0,,,78,0
107580,note_on,60,0,2,,,,,,,,,1,,,83,39
107640,note_on,0,0,2,,,,,,,,,1,,,81,39
107640,note_off,60,0,2,,,,,,,,,1,,,83,0
107700,note_off,60,0,2,,,,,,,,,1,,,81,0
107700,note_on,0,0,2,,,,,,,,,1,,,83,40
107760,note_off,60,0,2,,,,,,,,,1,,,83,0
107760,note_off,240,0,3,,,,,,,,,2,,,47,0
107760,note_on,180,0,1,,,,,,,,,0,,,90,46
107760,note_off,0,0,4,,,,,,,,,4,,,51,0
107760,note_off,240,0,4,,,,,,,,,4,,,39,0
107820,note_on,60,0,2,,,,,,,,,1,,,83,40
107820,note_off,60,0,1,,,,,,,,,0,,,90,0
107880,note_off,60,0,2,,,,,,,,,1,,,83,0
107880,note_on,0,0,2,,,,,,,,,1,,,81,40
107880,set_tempo,1320,1,0,,,,,,1111111,,,,,,,
107940,note_on,0,0,2,,,,,,,,,1,,,83,41
107940,note_off,60,0,2,,,,,,,,,1,,,81,0
108000,note_off,60,0,2,,,,,,,,,1,,,83,0
108000,note_on,240,0,3,,,,,,,,,2,,,47,43
108000,note_on,180,0,1,,,,,,,,,0,,,80,45
108000,set_tempo,120,1,0,,,,,,1071428,,,,,,,
108000,note_on,240,0,4,,,,,,,,,4,,,40,43
108000,note_on,0,0,4,,,,,,,,,4,,,52,43
108060,note_on,60,0,2,,,,,,,,,1,,,92,41
108060,note_off,60,0,1,,,,,,,,,0,,,80,0
108120,note_off,60,0,2,,,,,,,,,1,,,92,0
108120,note_on,0,0,2,,,,,,,,,1,,,83,41
108180,note_off,60,0,2,,,,,,,,,1,,,83,0
108180,note_on,0,0,2,,,,,,,,,1,,,92,41
108240,note_off,0,0,4,,,,,,,,,4,,,40,0
108240,note_on,0,0,4,,,,,,,,,4,,,64,44
108240,note_on,0,0,4,,,,,,,,,4,,,52,44
108240,note_off,240,0,3,,,,,,,,,2,,,47,0
108240,note_off,240,0,4,,,,,,,,,4,,,52,0
108240,note_on,180,0,1,,,,,,,,,0,,,80,46
108240,note_off,60,0,2,,,,,,,,,1,,,92,0
108300,note_on,60,0,2,,,,,,,,,1,,,92,42
108300,note_off,60,0,1,,,,,,,,,0,,,80,0
108360,note_on,0,0,2,,,,,,,,,1,,,83,42
108360,note_off,60,0,2,,,,,,,,,1,,,92,0
108420,note_on,0,0,2,,,,,,,,,1,,,92,42
108420,note_off,60,0,2,,,,,,,,,1,,,83,0
108480,note_on,0,0,4,,,,,,,,,4,,,52,45
108480,note_on,0,0,4,,,,,,,,,4,,,64,45
108480,note_off,0,0,4,,,,,,,,,4,,,64,0
108480,note_off,240,0,4,,,,,,,,,4,,,52,0
108480,note_on,180,0,1,,,,,,,,,0,,,80,48
108480,note_off,60,0,2,,,,,,,,,1,,,92,0
108540,note_off,60,0,1,,,,,,,,,0,,,80,0
108540,note_on,60,0,2,,,,,,,,,1,,,92,43
108600,note_off,60,0,2,,,,,,,,,1,,,92,0
108600,note_on,0,0,2,,,,,,,,,1,,,83,43
108660,note_off,60,0,2,,,,,,,,,1,,,83,0
108660,note_on,0,0,2,,,,,,,,,1,,,92,43
108720,note_off,60,0,2,,,,,,,,,1,,,92,0
108720,note_on,180,0,1,,,,,,,,,0,,,81,50
108720,note_off,240,0,4,,,,,,,,,4,,,52,0
108720,note_on,480,0,3,,,,,,,,,2,,,52,46
108720,note_on,0,0,4,,,,,,,,,4,,,61,46
108720,note_on,0,0,4,,,,,,,,,4,,,49,46
108720,note_off,0,0,4,,,,,,,,,4,,,64,0
108780,note_on,60,0,2,,,,,,,,,1,,,93,44
108780,note_off,60,0,1,,,,,,,,,0,,,81,0
108840,note_on,0,0,2,,,,,,,,,1,,,88,44
108840,note_off,60,0,2,,,,,,,,,1,,,93,0
108900,note_off,60,0,2,,,,,,,,,1,,,88,0
108900,note_on,0,0,2,,,,,,,,,1,,,93,44
108960,note_off,60,0,2,,,,,,,,,1,,,93,0
108960,note_on,0,0,4,,,,,,,,,4,,,61,48
108960,note_on,0,0,3,,,,,,,,,2,,,52,48
108960,note_on,0,0,4,,,,,,,,,4,,,49,48
108960,note_on,180,0,1,,,,,,,,,0,,,81,51
108960,note_off,240,0,4,,,,,,,,,4,,,49,0
108960,note_off,0,0,4,,,,,,,,,4,,,61,0
108960,note_off,240,0,3,,,,,,,,,2,,,52,0
109020,note_on,60,0,2,,,,,,,,,1,,,93,45
109020,note_off,60,0,1,,,,,,,,,0,,,81,0
109080,note_on,0,0,2,,,,,,,,,1,,,88,45
109080,note_off,60,0,2,,,,,,,,,1,,,93,0
109140,note_off,60,0,2,,,,,,,,,1,,,88,0
109140,note_on,0,0,2,,,,,,,,,1,,,93,45
109200,note_on,0,0,4,,,,,,,,,4,,,60,49
109200,note_off,60,0,2,,,,,,,,,1,,,93,0
109200,note_on,180,0,1,,,,,,,,,0,,,82,53
109200,note_on,0,0,4,,,,,,,,,4,,,48,49
109200,note_on,0,0,3,,,,,,,,,2,,,52,49
109200,note_off,0,0,4,,,,,,,,,4,,,61,0
109200,note_off,240,0,4,,,,,,,,,4,,,49,0
109200,note_off,240,0,3,,,,,,,,,2,,,52,0
109260,note_on,60,0,2,,,,,,,,,1,,,94,45
109260,note_off,60,0,1,,,,,,,,,0,,,82,0
109320,set_tempo,1320,1,0,,,,,,1111111,,,,,,,
109320,note_off,60,0,2,,,,,,,,,1,,,94,0
109320,note_on,0,0,2,,,,,,,,,1,,,88,46
109380,note_on,0,0,2,,,,,,,,,1,,,94,46
109380,note_off,60,0,2,,,,,,,,,1,,,88,0
109440,note_on,180,0,1,,,,,,,,,0,,,82,54
109440,note_off,0,0,4,,,,,,,,,4,,,60,0
109440,note_on,0,0,4,,,,,,,,,4,,,60,50
109440,note_on,0,0,3,,,,,,,,,2,,,52,50
109440,note_off,240,0,3,,,,,,,,,2,,,52,0
109440,note_off,240,0,4,,,,,,,,,4,,,48,0
109440,note_on,0,0,4,,,,,,,,,4,,,48,50
109440,note_off,60,0,2,,,,,,,,,1,,,94,0
109440,set_tempo,120,1,0,,,,,,1052631,,,,,,,
109444,set_tempo,4,1,0,,,,,,1071428,,,,,,,
109500,note_on,60,0,2,,,,,,,,,1,,,94,46
109500,note_off,60,0,1,,,,,,,,,0,,,82,0
109560,note_on,0,0,2,,,,,,,,,1,,,88,47
109560,note_off,60,0,2,,,,,,,,,1,,,94,0
109620,note_off,60,0,2,,,,,,,,,1,,,88,0
109620,note_on,0,0,2,,,,,,,,,1,,,94,47
109680,note_on,180,0,1,,,,,,,,,0,,,83,56
109680,note_off,240,0,3,,,,,,,,,2,,,52,0
109680,note_off,60,0,2,,,,,,,,,1,,,94,0
109680,note_on,0,0,4,,,,,,,,,4,,,59,51
109680,note_off,0,0,4,,,,,,,,,4,,,60,0
109680,note_off,240,0,4,,,,,,,,,4,,,48,0
109680,note_on,0,0,3,,,,,,,,,2,,,52,51
109680,note_on,0,0,4,,,,,,,,,4,,,47,51
109740,note_off,60,0,1,,,,,,,,,0,,,83,0
109740,note_on,60,0,2,,,,,,,,,1,,,95,47
109800,note_on,0,0,2,,,,,,,,,1,,,88,47
109800,note_off,60,0,2,,,,,,,,,1,,,95,0
109860,note_on,0,0,2,,,,,,,,,1,,,95,48
109860,note_off,60,0,2,,,,,,,,,1,,,88,0
109920,note_on,0,0,3,,,,,,,,,2,,,52,53
109920,note_off,240,0,3,,,,,,,,,2,,,52,0
109920,note_off,60,0,2,,,,,,,,,1,,,95,0
109920,note_on,0,0,4,,,,,,,,,4,,,45,53
109920,note_on,0,0,4,,,,,,,,,4,,,57,53
109920,note_off,0,0,4,,,,,,,,,4,,,47,0
109920,note_off,240,0,4,,,,,,,,,4,,,59,0
109920,note_on,180,0,1,,,,,,,,,0,,,83,57
109980,note_on,60,0,2,,,,,,,,,1,,,95,48
109980,note_off,60,0,1,,,,,,,,,0,,,83,0
110032,set_tempo,588,1,0,,,,,,1090909,,,,,,,
110040,note_off,60,0,2,,,,,,,,,1,,,95,0
110040,note_on,0,0,2,,,,,,,,,1,,,88,48
110100,note_off,60,0,2,,,,,,,,,1,,,88,0
110100,note_on,0,0,2,,,,,,,,,1,,,95,49
110160,note_off,0,0,4,,,,,,,,,4,,,57,0
110160,note_on,0,0,4,,,,,,,,,4,,,56,54
110160,note_on,0,0,4,,,,,,,,,4,,,44,54
110160,note_on,180,0,1,,,,,,,,,0,,,84,59
110160,note_off,240,0,4,,,,,,,,,4,,,45,0
110160,note_on,0,0,3,,,,,,,,,2,,,52,54
110160,note_off,240,0,3,,,,,,,,,2,,,52,0
110160,note_off,60,0,2,,,,,,,,,1,,,95,0
110220,note_off,60,0,1,,,,,,,,,0,,,84,0
110220,note_on,60,0,2,,,,,,,,,1,,,96,49
110257,set_tempo,225,1,0,,,,,,1111111,,,,,,,
110280,note_on,0,0,2,,,,,,,,,1,,,88,49
110280,note_off,60,0,2,,,,,,,,,1,,,96,0
110340,note_on,0,0,2,,,,,,,,,1,,,84,49
110340,note_off,60,0,2,,,,,,,,,1,,,88,0
110400,note_on,0,0,4,,,,,,,,,4,,,56,55
110400,note_on,0,0,4,,,,,,,,,4,,,68,55
110400,note_off,0,0,4,,,,,,,,,4,,,56,0
110400,note_off,240,0,4,,,,,,,,,4,,,44,0
110400,note_off,240,0,3,,,,,,,,,2,,,52,0
110400,note_on,180,0,1,,,,,,,,,0,,,72,61
110400,note_off,60,0,2,,,,,,,,,1,,,84,0
110400,note_on,0,0,3,,,,,,,,,2,,,64,55
110415,set_tempo,158,1,0,,,,,,1132075,,,,,,,
110460,note_on,60,0,2,,,,,,,,,1,,,84,50
110460,note_off,60,0,1,,,,,,,,,0,,,72,0
110520,note_off,60,0,2,,,,,,,,,1,,,84,0
110520,note_on,0,0,2,,,,,,,,,1,,,76,50
110542,set_tempo,127,1,0,,,,,,1153846,,,,,,,
110580,note_off,60,0,2,,,,,,,,,1,,,76,0
110580,note_on,0,0,2,,,,,,,,,1,,,84,50
110640,note_off,0,0,4,,,,,,,,,4,,,68,0
110640,note_off,60,0,2,,,,,,,,,1,,,84,0
110640,note_on,0,0,4,,,,,,,,,4,,,69,56
110640,note_off,240,0,3,,,,,,,,,2,,,64,0
110640,note_on,180,0,1,,,,,,,,,0,,,73,62
110640,note_on,0,0,3,,,,,,,,,2,,,64,56
110640,note_off,240,0,4,,,,,,,,,4,,,56,0
110640,note_on,0,0,4,,,,,,,,,4,,,57,56
110655,set_tempo,113,1,0,,,,,,1176470,,,,,,,
110700,note_off,60,0,1,,,,,,,,,0,,,73,0
110700,note_on,60,0,2,,,,,,,,,1,,,85,51
110760,note_on,0,0,2,,,,,,,,,1,,,76,51
110760,note_off,60,0,2,,,,,,,,,1,,,85,0
110775,set_tempo,120,1,0,,,,,,1578947,,,,,,,
110820,note_on,0,0,2,,,,,,,,,1,,,85,51
110820,note_off,60,0,2,,,,,,,,,1,,,76,0
110880,set_tempo,105,1,0,,,,,,1111111,,,,,,,
110880,note_on,180,0,1,,,,,,,,,0,,,85,55
110880,note_off,0,0,4,,,,,,,,,4,,,69,0
110880,note_off,60,0,2,,,,,,,,,1,,,85,0
110880,note_off,240,0,4,,,,,,,,,4,,,57,0
110880,note_off,240,0,3,,,,,,,,,2,,,64,0
110990,set_tempo,110,1,0,,,,,,1071428,,,,,,,
111000,note_on,120,0,4,,,,,,,,,4,,,69,55
111120,note_on,120,0,4,,,,,,,,,4,,,57,51
111240,note_on,360,0,1,,,,,,,,,0,,,73,50
111360,note_off,240,0,4,,,,,,,,,4,,,69,0
111360,note_off,120,0,1,,,,,,,,,0,,,73,0
111360,note_on,0,0,1,,,,,,,,,0,,,83,53
111372,note_off,12,0,1,,,,,,,,,0,,,85,0
111480,note_off,120,0,4,,,,,,,,,4,,,57,0
111480,note_on,0,0,4,,,,,,,,,4,,,68,53
111600,note_on,120,0,4,,,,,,,,,4,,,56,47
111720,note_on,348,0,1,,,,,,,,,0,,,71,48
111840,note_on,0,0,1,,,,,,,,,0,,,81,51
111840,note_off,0,0,1,,,,,,,,,0,,,83,0
111840,note_off,120,0,1,,,,,,,,,0,,,71,0
111840,note_off,240,0,4,,,,,,,,,4,,,68,0
111960,note_off,120,0,4,,,,,,,,,4,,,56,0
111960,note_on,0,0,4,,,,,,,,,4,,,66,51
112080,note_on,120,0,4,,,,,,,,,4,,,54,47
112200,note_on,0,0,1,,,,,,,,,0,,,82,49
112200,note_off,360,0,1,,,,,,,,,0,,,81,0
112260,set_tempo,1270,1,0,,,,,,1111111,,,,,,,
112320,note_on,0,0,1,,,,,,,,,0,,,83,49
112320,note_off,120,0,1,,,,,,,,,0,,,82,0
112320,set_tempo,60,1,0,,,,,,1071428,,,,,,,
112327,note_off,247,0,4,,,,,,,,,4,,,66,0
112440,note_on,0,0,4,,,,,,,,,4,,,68,49
112440,note_off,113,0,4,,,,,,,,,4,,,54,0
112560,note_on,120,0,4,,,,,,,,,4,,,56,43
112680,note_on,360,0,1,,,,,,,,,0,,,71,44
112800,note_on,0,0,1,,,,,,,,,0,,,81,47
112800,note_off,120,0,1,,,,,,,,,0,,,71,0
112807,note_off,247,0,4,,,,,,,,,4,,,68,0
112824,note_off,24,0,1,,,,,,,,,0,,,83,0
112920,note_off,113,0,4,,,,,,,,,4,,,56,0
112920,note_on,0,0,4,,,,,,,,,4,,,66,47
113040,note_on,120,0,4,,,,,,,,,4,,,54,42
113160,note_on,336,0,1,,,,,,,,,0,,,69,42
113280,note_off,240,0,4,,,,,,,,,4,,,54,0
113280,note_off,0,0,1,,,,,,,,,0,,,81,0
113280,note_off,0,0,4,,,,,,,,,4,,,66,0
113280,note_on,0,0,1,,,,,,,,,0,,,80,44
113280,note_on,0,0,4,,,,,,,,,4,,,65,44
113280,note_on,0,0,4,,,,,,,,,4,,,53,44
113280,note_on,2400,0,2,,,,,,,,,1,,,68,44
113280,note_off,120,0,1,,,,,,,,,0,,,69,0
113520,note_on,0,0,2,,,,,,,,,1,,,67,43
113520,note_off,240,0,1,,,,,,,,,0,,,80,0
113520,note_on,0,0,1,,,,,,,,,0,,,79,43
113520,note_off,240,0,4,,,,,,,,,4,,,53,0
113520,note_off,0,0,4,,,,,,,,,4,,,65,0
113520,note_on,0,0,4,,,,,,,,,4,,,64,40
113520,note_on,0,0,4,,,,,,,,,4,,,52,40
113520,note_off,240,0,2,,,,,,,,,1,,,68,0
113640,set_tempo,1320,1,0,,,,,,1111111,,,,,,,
113760,note_on,0,0,1,,,,,,,,,0,,,79,44
113760,note_off,240,0,1,,,,,,,,,0,,,79,0
113760,note_off,0,0,4,,,,,,,,,4,,,64,0
113760,note_on,0,0,4,,,,,,,,,4,,,63,44
113760,note_on,0,0,4,,,,,,,,,4,,,51,44
113760,note_off,240,0,4,,,,,,,,,4,,,52,0
113760,note_on,0,0,2,,,,,,,,,1,,,67,44
113760,note_off,240,0,2,,,,,,,,,1,,,67,0
114480,note_on,0,0,1,,,,,,,,,0,,,80,45
114480,note_on,0,0,2,,,,,,,,,1,,,68,45
114480,note_off,720,0,1,,,,,,,,,0,,,79,0
114480,note_off,720,0,2,,,,,,,,,1,,,67,0
114480,note_off,720,0,4,,,,,,,,,4,,,51,0
114480,note_on,0,0,4,,,,,,,,,4,,,53,46
114480,note_on,0,0,4,,,,,,,,,4,,,65,46
114480,note_off,0,0,4,,,,,,,,,4,,,63,0
114720,note_on,0,0,4,,,,,,,,,4,,,55,50
114720,note_on,0,0,4,,,,,,,,,4,,,67,50
114720,note_on,0,0,2,,,,,,,,,1,,,70,49
114720,note_off,240,0,4,,,,,,,,,4,,,53,0
114720,note_off,240,0,2,,,,,,,,,1,,,68,0
114720,note_off,240,0,1,,,,,,,,,0,,,80,0
114720,note_on,0,0,1,,,,,,,,,0,,,82,49
114720,note_off,0,0,4,,,,,,,,,4,,,65,0
114840,note_on,0,0,2,,,,,,,,,1,,,72,51
114840,note_off,120,0,2,,,,,,,,,1,,,70,0
114840,note_off,120,0,1,,,,,,,,,0,,,82,0
114840,note_on,0,0,4,,,,,,,,,4,,,68,52
114840,note_on,0,0,4,,,,,,,,,4,,,56,52
114840,note_off,0,0,4,,,,,,,,,4,,,55,0
114840,note_off,120,0,4,,,,,,,,,4,,,67,0
114840,note_on,0,0,1,,,,,,,,,0,,,84,51
114936,note_off,96,0,1,,,,,,,,,0,,,84,0
114936,note_off,96,0,4,,,,,,,,,4,,,68,0
114936,note_off,96,0,2,,,,,,,,,1,,,72,0
114936,note_off,0,0,4,,,,,,,,,4,,,56,0
114960,note_on,24,0,1,,,,,,,,,0,,,85,53
114960,note_on,0,0,4,,,,,,,,,4,,,58,54
114960,note_on,24,0,2,,,,,,,,,1,,,73,53
114960,note_on,24,0,4,,,,,,,,,4,,,70,54
115020,set_tempo,1380,1,0,,,,,,1132075,,,,,,,
115080,note_off,120,0,2,,,,,,,,,1,,,73,0
115080,note_off,120,0,4,,,,,,,,,4,,,58,0
115080,note_on,0,0,2,,,,,,,,,1,,,75,55
115080,note_on,0,0,4,,,,,,,,,4,,,72,56
115080,note_on,0,0,4,,,,,,,,,4,,,60,56
115080,note_off,120,0,1,,,,,,,,,0,,,85,0
115080,note_on,0,0,1,,,,,,,,,0,,,87,55
115080,note_off,0,0,4,,,,,,,,,4,,,70,0
115110,set_tempo,90,1,0,,,,,,1176470,,,,,,,
115176,note_off,96,0,2,,,,,,,,,1,,,75,0
115176,note_off,96,0,4,,,,,,,,,4,,,60,0
115176,note_off,96,0,1,,,,,,,,,0,,,87,0
115176,note_off,0,0,4,,,,,,,,,4,,,72,0
115200,set_tempo,90,1,0,,,,,,1111111,,,,,,,
115200,note_on,24,0,1,,,,,,,,,0,,,89,56
115250,set_tempo,50,1,0,,,,,,1071428,,,,,,,
115320,note_on,144,0,4,,,,,,,,,4,,,73,53
115440,note_on,120,0,4,,,,,,,,,4,,,61,49
115560,note_on,360,0,1,,,,,,,,,0,,,77,51
115668,note_off,108,0,1,,,,,,,,,0,,,89,0
115680,note_on,0,0,1,,,,,,,,,0,,,87,54
115680,note_off,12,0,1,,,,,,,,,0,,,77,0
115687,note_off,247,0,4,,,,,,,,,4,,,73,0
115800,note_on,0,0,4,,,,,,,,,4,,,72,52
115800,note_off,113,0,4,,,,,,,,,4,,,61,0
115920,note_on,120,0,4,,,,,,,,,4,,,60,46
116040,note_on,360,0,1,,,,,,,,,0,,,75,50
116160,note_on,0,0,1,,,,,,,,,0,,,85,53
116160,note_off,120,0,1,,,,,,,,,0,,,75,0
116160,note_off,240,0,4,,,,,,,,,4,,,72,0
116172,note_off,12,0,1,,,,,,,,,0,,,87,0
116280,note_on,0,0,4,,,,,,,,,4,,,70,51
116280,note_off,120,0,4,,,,,,,,,4,,,60,0
116400,note_on,120,0,4,,,,,,,,,4,,,58,47
116520,note_on,0,0,1,,,,,,,,,0,,,86,52
116520,note_off,348,0,1,,,,,,,,,0,,,85,0
116587,set_tempo,1337,1,0,,,,,,1111111,,,,,,,
116640,set_tempo,53,1,0,,,,,,1071428,,,,,,,
116640,note_on,0,0,1,,,,,,,,,0,,,87,52
116640,note_off,120,0,1,,,,,,,,,0,,,86,0
116647,note_off,247,0,4,,,,,,,,,4,,,70,0
116760,note_off,113,0,4,,,,,,,,,4,,,58,0
116760,note_on,0,0,4,,,,,,,,,4,,,72,50
116880,note_on,120,0,4,,,,,,,,,4,,,60,45
117000,note_on,360,0,1,,,,,,,,,0,,,75,45
117120,note_on,0,0,1,,,,,,,,,0,,,85,51
117120,note_off,240,0,4,,,,,,,,,4,,,72,0
117120,note_off,0,0,1,,,,,,,,,0,,,87,0
117120,note_off,120,0,1,,,,,,,,,0,,,75,0
117240,note_off,120,0,4,,,,,,,,,4,,,60,0
117240,note_on,0,0,4,,,,,,,,,4,,,70,49
117360,note_on,120,0,4,,,,,,,,,4,,,58,44
117480,note_on,360,0,1,,,,,,,,,0,,,73,45
117588,note_off,108,0,1,,,,,,,,,0,,,85,0
117600,note_on,0,0,1,,,,,,,,,0,,,84,49
117600,note_off,12,0,1,,,,,,,,,0,,,73,0
117600,note_on,240,0,4,,,,,,,,,4,,,68,48
117615,note_off,15,0,4,,,,,,,,,4,,,70,0
117720,note_off,120,0,1,,,,,,,,,0,,,84,0
117720,note_off,0,0,4,,,,,,,,,4,,,58,0
117720,note_off,105,0,4,,,,,,,,,4,,,68,0
117720,note_on,0,0,1,,,,,,,,,0,,,72,49
117720,note_on,0,0,4,,,,,,,,,4,,,56,48
117840,note_on,0,0,1,,,,,,,,,0,,,73,49
117840,note_off,120,0,1,,,,,,,,,0,,,72,0
117840,note_off,120,0,4,,,,,,,,,4,,,56,0
117840,note_on,0,0,4,,,,,,,,,4,,,58,48
117960,note_on,0,0,4,,,,,,,,,4,,,60,47
117960,note_off,120,0,4,,,,,,,,,4,,,58,0
117960,note_on,0,0,1,,,,,,,,,0,,,75,48
117960,set_tempo,1320,1,0,,,,,,1111111,,,,,,,
117960,note_off,120,0,1,,,,,,,,,0,,,73,0
118080,set_tempo,120,1,0,,,,,,1071428,,,,,,,
118080,note_on,0,0,4,,,,,,,,,4,,,63,47
118080,note_off,120,0,4,,,,,,,,,4,,,60,0
118080,note_on,0,0,1,,,,,,,,,0,,,79,48
118080,note_off,120,0,1,,,,,,,,,0,,,75,0
118200,note_on,0,0,4,,,,,,,,,4,,,60,47
118200,note_off,120,0,4,,,,,,,,,4,,,63,0
118200,note_on,0,0,1,,,,,,,,,0,,,76,48
118200,note_off,120,0,1,,,,,,,,,0,,,79,0
118320,note_on,0,0,1,,,,,,,,,0,,,77,47
118320,note_off,120,0,1,,,,,,,,,0,,,76,0
118320,note_on,0,0,4,,,,,,,,,4,,,61,46
118320,note_off,120,0,4,,,,,,,,,4,,,60,0
118440,note_on,120,0,1,,,,,,,,,0,,,65,47
118440,note_on,120,0,4,,,,,,,,,4,,,49,42
118545,note_off,105,0,1,,,,,,,,,0,,,77,0
118552,note_off,112,0,4,,,,,,,,,4,,,61,0
118560,note_on,0,0,4,,,,,,,,,4,,,61,46
118560,note_off,8,0,4,,,,,,,,,4,,,49,0
118560,note_off,15,0,1,,,,,,,,,0,,,65,0
118560,note_on,0,0,1,,,,,,,,,0,,,77,47
118680,note_on,0,0,1,,,,,,,,,0,,,74,46
118680,note_off,120,0,4,,,,,,,,,4,,,61,0
118680,note_on,0,0,4,,,,,,,,,4,,,59,46
118680,note_off,120,0,1,,,,,,,,,0,,,77,0
118800,note_on,0,0,4,,,,,,,,,4,,,60,45
118800,note_off,120,0,4,,,,,,,,,4,,,59,0
118800,note_on,0,0,1,,,,,,,,,0,,,75,46
118800,note_off,120,0,1,,,,,,,,,0,,,74,0
118920,note_on,120,0,4,,,,,,,,,4,,,48,40
118920,note_on,120,0,1,,,,,,,,,0,,,63,46
119025,note_off,105,0,1,,,,,,,,,0,,,75,0
119039,note_off,119,0,4,,,,,,,,,4,,,60,0
119040,note_off,1,0,4,,,,,,,,,4,,,48,0
119040,note_on,0,0,4,,,,,,,,,4,,,60,45
119040,note_on,0,0,1,,,,,,,,,0,,,75,45
119040,note_off,15,0,1,,,,,,,,,0,,,63,0
119160,note_on,0,0,4,,,,,,,,,4,,,57,45
119160,note_on,0,0,1,,,,,,,,,0,,,72,45
119160,note_off,120,0,1,,,,,,,,,0,,,75,0
119160,note_off,120,0,4,,,,,,,,,4,,,60,0
119280,note_off,120,0,4,,,,,,,,,4,,,57,0
119280,note_on,0,0,4,,,,,,,,,4,,,58,44
119280,note_on,0,0,1,,,,,,,,,0,,,73,45
119280,note_off,120,0,1,,,,,,,,,0,,,72,0
119400,note_on,120,0,4,,,,,,,,,4,,,46,41
119400,note_on,120,0,1,,,,,,,,,0,,,61,44
119460,set_tempo,1380,1,0,,,,,,1111111,,,,,,,
119505,note_off,105,0,1,,,,,,,,,0,,,73,0
119512,note_off,112,0,4,,,,,,,,,4,,,58,0
119520,note_on,0,0,1,,,,,,,,,0,,,77,44
119520,set_tempo,60,1,0,,,,,,1071428,,,,,,,
119520,note_on,0,0,4,,,,,,,,,4,,,62,44
119520,note_off,15,0,1,,,,,,,,,0,,,61,0
119520,note_off,8,0,4,,,,,,,,,4,,,46,0
119640,note_on,0,0,4,,,,,,,,,4,,,59,43
119640,note_off,120,0,4,,,,,,,,,4,,,62,0
119640,note_on,0,0,1,,,,,,,,,0,,,74,44
119640,note_off,120,0,1,,,,,,,,,0,,,77,0
119760,note_on,0,0,4,,,,,,,,,4,,,60,43
119760,note_off,120,0,1,,,,,,,,,0,,,74,0
119760,note_on,0,0,1,,,,,,,,,0,,,75,43
119760,note_off,120,0,4,,,,,,,,,4,,,59,0
119880,note_on,120,0,4,,,,,,,,,4,,,48,39
119880,note_on,120,0,1,,,,,,,,,0,,,63,43
119985,note_off,105,0,4,,,,,,,,,4,,,60,0
119992,note_off,112,0,1,,,,,,,,,0,,,75,0
120000,note_off,8,0,1,,,,,,,,,0,,,63,0
120000,note_on,0,0,1,,,,,,,,,0,,,75,43
120000,note_off,15,0,4,,,,,,,,,4,,,48,0
120000,note_on,0,0,4,,,,,,,,,4,,,60,43
120120,note_on,0,0,4,,,,,,,,,4,,,57,42
120120,note_off,120,0,1,,,,,,,,,0,,,75,0
120120,note_on,0,0,1,,,,,,,,,0,,,72,42
120120,note_off,120,0,4,,,,,,,,,4,,,60,0
120240,note_on,0,0,1,,,,,,,,,0,,,73,42
120240,note_on,0,0,4,,,,,,,,,4,,,58,42
120240,note_off,120,0,1,,,,,,,,,0,,,72,0
120240,note_off,120,0,4,,,,,,,,,4,,,57,0
120360,note_on,120,0,1,,,,,,,,,0,,,61,42
120360,note_on,120,0,4,,,,,,,,,4,,,46,39
120370,set_tempo,850,1,0,,,,,,1111111,,,,,,,
120465,note_off,105,0,1,,,,,,,,,0,,,73,0
120472,note_off,112,0,4,,,,,,,,,4,,,58,0
120480,set_tempo,110,1,0,,,,,,1071428,,,,,,,
120480,note_on,0,0,1,,,,,,,,,0,,,72,44
120480,note_off,15,0,1,,,,,,,,,0,,,61,0
120480,note_on,9600,0,3,,,,,,,,,2,,,56,44
120480,note_on,0,0,4,,,,,,,,,4,,,48,44
120480,note_off,8,0,4,,,,,,,,,4,,,46,0
120480,note_on,5304,0,2,,,,,,,,,1,,,63,44
120600,note_off,120,0,3,,,,,,,,,2,,,56,0
120600,note_on,0,0,4,,,,,,,,,4,,,49,46
120600,note_off,120,0,4,,,,,,,,,4,,,48,0
120600,note_off,120,0,1,,,,,,,,,0,,,72,0
120600,note_on,0,0,1,,,,,,,,,0,,,70,46
120600,note_on,0,0,3,,,,,,,,,2,,,55,46
120672,note_off,192,0,2,,,,,,,,,1,,,63,0
120696,note_off,96,0,3,,,,,,,,,2,,,55,0
120696,note_off,96,0,4,,,,,,,,,4,,,49,0
120696,note_off,96,0,1,,,,,,,,,0,,,70,0
120720,note_on,24,0,4,,,,,,,,,4,,,48,48
120720,note_on,24,0,1,,,,,,,,,0,,,72,48
120720,note_on,24,0,3,,,,,,,,,2,,,56,48
120720,note_on,48,0,2,,,,,,,,,1,,,63,48
120830,set_tempo,350,1,0,,,,,,1111111,,,,,,,
120840,note_off,120,0,4,,,,,,,,,4,,,48,0
120840,note_on,0,0,3,,,,,,,,,2,,,55,49
120840,note_off,120,0,3,,,,,,,,,2,,,56,0
120840,note_off,120,0,1,,,,,,,,,0,,,72,0
120840,note_on,0,0,1,,,,,,,,,0,,,70,49
120840,note_on,0,0,4,,,,,,,,,4,,,49,49
120912,note_off,192,0,2,,,,,,,,,1,,,63,0
120936,note_off,96,0,1,,,,,,,,,0,,,70,0
120936,note_off,96,0,3,,,,,,,,,2,,,55,0
120936,note_off,96,0,4,,,,,,,,,4,,,49,0
120960,note_on,24,0,1,,,,,,,,,0,,,72,51
120960,note_on,48,0,2,,,,,,,,,1,,,63,51
120960,note_on,24,0,4,,,,,,,,,4,,,48,51
120960,note_on,24,0,3,,,,,,,,,2,,,56,51
121420,set_tempo,590,1,0,,,,,,1176470,,,,,,,
121440,note_off,480,0,4,,,,,,,,,4,,,48,0
121440,note_on,0,0,2,,,,,,,,,1,,,63,50
121440,note_on,0,0,1,,,,,,,,,0,,,70,50
121440,note_on,0,0,3,,,,,,,,,2,,,55,47
121440,note_off,480,0,3,,,,,,,,,2,,,56,0
121440,note_off,480,0,1,,,,,,,,,0,,,72,0
121440,note_off,480,0,2,,,,,,,,,1,,,63,0
121440,note_on,0,0,4,,,,,,,,,4,,,49,47
121800,note_off,360,0,4,,,,,,,,,4,,,49,0
121800,note_off,360,0,1,,,,,,,,,0,,,70,0
121800,note_off,360,0,3,,,,,,,,,2,,,55,0
121800,note_off,360,0,2,,,,,,,,,1,,,63,0
121920,note_on,120,0,3,,,,,,,,,2,,,56,50
121920,note_on,120,0,2,,,,,,,,,1,,,63,50
121920,note_on,120,0,4,,,,,,,,,4,,,48,50
121920,set_tempo,500,1,0,,,,,,1111111,,,,,,,
121920,note_on,120,0,1,,,,,,,,,0,,,75,50
122040,note_on,0,0,2,,,,,,,,,1,,,68,52
122040,note_on,0,0,4,,,,,,,,,4,,,46,51
122040,note_off,120,0,3,,,,,,,,,2,,,56,0
122040,note_on,0,0,3,,,,,,,,,2,,,53,51
122040,note_off,120,0,2,,,,,,,,,1,,,63,0
122040,note_off,120,0,4,,,,,,,,,4,,,48,0
122040,note_on,0,0,1,,,,,,,,,0,,,74,52
122040,note_off,120,0,1,,,,,,,,,0,,,75,0
122136,note_off,96,0,2,,,,,,,,,1,,,68,0
122136,note_off,96,0,1,,,,,,,,,0,,,74,0
122136,note_off,96,0,3,,,,,,,,,2,,,53,0
122136,note_off,96,0,4,,,,,,,,,4,,,46,0
122160,note_on,24,0,4,,,,,,,,,4,,,48,52
122160,note_on,24,0,2,,,,,,,,,1,,,63,54
122160,note_on,24,0,1,,,,,,,,,0,,,75,54
122160,note_on,24,0,3,,,,,,,,,2,,,56,52
122280,note_off,120,0,2,,,,,,,,,1,,,63,0
122280,set_tempo,360,1,0,,,,,,1132075,,,,,,,
122280,note_on,0,0,1,,,,,,,,,0,,,74,57
122280,note_off,120,0,4,,,,,,,,,4,,,48,0
122280,note_on,0,0,4,,,,,,,,,4,,,46,53
122280,note_on,0,0,2,,,,,,,,,1,,,68,57
122280,note_on,0,0,3,,,,,,,,,2,,,53,53
122280,note_off,120,0,3,,,,,,,,,2,,,56,0
122280,note_off,120,0,1,,,,,,,,,0,,,75,0
122376,note_off,96,0,1,,,,,,,,,0,,,74,0
122376,note_off,96,0,4,,,,,,,,,4,,,46,0
122376,note_off,96,0,2,,,,,,,,,1,,,68,0
122376,note_off,96,0,3,,,,,,,,,2,,,53,0
122400,note_on,24,0,4,,,,,,,,,4,,,48,55
122400,note_on,24,0,2,,,,,,,,,1,,,68,59
122400,note_on,0,0,3,,,,,,,,,2,,,56,55
122400,note_on,0,0,1,,,,,,,,,0,,,75,59
122400,control_change,24,0,1,,,,,,,64,0,0,,,,
122400,set_tempo,120,1,0,,,,,,1071428,,,,,,,
122400,note_on,0,0,2,,,,,,,,,1,,,63,59
122400,note_on,24,0,3,,,,,,,,,2,,,51,55
122760,control_change,360,0,1,,,,,,,64,127,0,,,,
122793,note_off,393,0,2,,,,,,,,,1,,,63,0
122800,note_on,40,0,1,,,,,,,,,0,,,62,52
122805,note_off,12,0,2,,,,,,,,,1,,,68,0
122820,set_tempo,420,1,0,,,,,,1111111,,,,,,,
122840,note_on,40,0,1,,,,,,,,,0,,,68,53
122860,note_off,20,0,1,,,,,,,,,0,,,62,0
122880,note_off,0,0,3,,,,,,,,,2,,,51,0
122880,note_off,480,0,3,,,,,,,,,2,,,56,0
122880,note_on,0,0,1,,,,,,,,,0,,,77,53
122880,note_on,0,0,4,,,,,,,,,4,,,46,47
122880,note_off,20,0,1,,,,,,,,,0,,,75,0
122880,note_off,480,0,4,,,,,,,,,4,,,48,0
122900,note_off,20,0,1,,,,,,,,,0,,,68,0
122920,note_on,40,0,4,,,,,,,,,4,,,48,44
122940,set_tempo,120,1,0,,,,,,1071428,,,,,,,
122955,note_off,35,0,4,,,,,,,,,4,,,46,0
122960,note_on,5,0,4,,,,,,,,,4,,,46,41
122995,note_off,35,0,4,,,,,,,,,4,,,48,0
123000,note_on,5,0,4,,,,,,,,,4,,,48,42
123035,note_off,35,0,4,,,,,,,,,4,,,46,0
123040,note_on,5,0,4,,,,,,,,,4,,,46,42
123075,note_off,35,0,4,,,,,,,,,4,,,48,0
123080,note_on,5,0,4,,,,,,,,,4,,,48,43
123115,note_off,35,0,4,,,,,,,,,4,,,46,0
123120,note_on,5,0,4,,,,,,,,,4,,,46,43
123155,note_off,35,0,4,,,,,,,,,4,,,48,0
123160,note_on,5,0,4,,,,,,,,,4,,,48,43
123195,note_off,35,0,4,,,,,,,,,4,,,46,0
123200,note_on,5,0,4,,,,,,,,,4,,,46,43
123235,note_off,35,0,4,,,,,,,,,4,,,48,0
123240,note_on,5,0,4,,,,,,,,,4,,,44,43
123275,note_off,35,0,4,,,,,,,,,4,,,46,0
123300,set_tempo,360,1,0,,,,,,1111111,,,,,,,
123300,note_on,25,0,4,,,,,,,,,4,,,46,44
123335,note_off,35,0,4,,,,,,,,,4,,,44,0
123360,note_on,0,0,4,,,,,,,,,4,,,44,50
123360,note_off,25,0,4,,,,,,,,,4,,,46,0
123400,note_on,40,0,4,,,,,,,,,4,,,46,46
123420,set_tempo,120,1,0,,,,,,1071428,,,,,,,
123430,note_off,30,0,4,,,,,,,,,4,,,44,0
123440,note_on,10,0,4,,,,,,,,,4,,,44,42
123470,note_off,30,0,4,,,,,,,,,4,,,46,0
123480,note_on,10,0,4,,,,,,,,,4,,,46,44
123480,control_change,580,0,1,,,,,,,64,0,0,,,,
123510,note_off,30,0,4,,,,,,,,,4,,,44,0
123520,note_on,10,0,4,,,,,,,,,4,,,44,45
123520,note_on,0,0,1,,,,,,,,,0,,,62,57
123520,control_change,40,0,1,,,,,,,64,127,0,,,,
123550,note_off,30,0,4,,,,,,,,,4,,,46,0
123560,note_on,40,0,1,,,,,,,,,0,,,70,57
123560,note_on,10,0,4,,,,,,,,,4,,,46,45
123580,note_off,20,0,1,,,,,,,,,0,,,62,0
123590,note_off,30,0,4,,,,,,,,,4,,,44,0
123600,note_off,20,0,1,,,,,,,,,0,,,77,0
123600,note_on,10,0,4,,,,,,,,,4,,,44,45
123600,note_on,0,0,1,,,,,,,,,0,,,77,57
123620,note_off,20,0,1,,,,,,,,,0,,,70,0
123630,note_off,30,0,4,,,,,,,,,4,,,46,0
123640,note_on,10,0,4,,,,,,,,,4,,,46,45
123670,note_off,30,0,4,,,,,,,,,4,,,44,0
123680,note_on,10,0,4,,,,,,,,,4,,,44,45
123710,note_off,30,0,4,,,,,,,,,4,,,46,0
123720,note_on,10,0,4,,,,,,,,,4,,,43,46
123720,set_tempo,300,1,0,,,,,,1111111,,,,,,,
123750,note_off,30,0,4,,,,,,,,,4,,,44,0
123780,note_on,30,0,4,,,,,,,,,4,,,44,46
123810,note_off,30,0,4,,,,,,,,,4,,,43,0
123840,set_tempo,120,1,0,,,,,,1071428,,,,,,,
123840,note_off,220,0,1,,,,,,,,,0,,,77,0
123840,note_on,0,0,4,,,,,,,,,4,,,43,51
123840,note_off,30,0,4,,,,,,,,,4,,,44,0
123880,note_on,40,0,4,,,,,,,,,4,,,44,47
123915,note_off,35,0,4,,,,,,,,,4,,,43,0
123920,note_on,5,0,4,,,,,,,,,4,,,43,44
123955,note_off,35,0,4,,,,,,,,,4,,,44,0
123960,control_change,120,0,1,,,,,,,64,0,0,,,,
123960,note_on,5,0,4,,,,,,,,,4,,,44,47
123995,note_off,35,0,4,,,,,,,,,4,,,43,0
124000,note_on,5,0,4,,,,,,,,,4,,,43,47
124000,control_change,40,0,1,,,,,,,64,127,0,,,,
124000,note_on,0,0,1,,,,,,,,,0,,,63,60
124035,note_off,35,0,4,,,,,,,,,4,,,44,0
124040,note_on,40,0,1,,,,,,,,,0,,,70,60
124040,note_on,5,0,4,,,,,,,,,4,,,44,47
124060,note_off,20,0,1,,,,,,,,,0,,,63,0
124075,note_off,35,0,4,,,,,,,,,4,,,43,0
124080,note_on,20,0,1,,,,,,,,,0,,,79,60
124080,note_on,5,0,4,,,,,,,,,4,,,43,47
124100,note_off,20,0,1,,,,,,,,,0,,,70,0
124115,note_off,35,0,4,,,,,,,,,4,,,44,0
124120,note_on,5,0,4,,,,,,,,,4,,,44,47
124155,note_off,35,0,4,,,,,,,,,4,,,43,0
124160,note_on,5,0,4,,,,,,,,,4,,,43,48
124195,note_off,35,0,4,,,,,,,,,4,,,44,0
124200,note_on,5,0,4,,,,,,,,,4,,,41,48
124235,note_off,35,0,4,,,,,,,,,4,,,43,0
124260,set_tempo,420,1,0,,,,,,1111111,,,,,,,
124260,note_on,25,0,4,,,,,,,,,4,,,43,48
124295,note_off,35,0,4,,,,,,,,,4,,,41,0
124320,note_off,220,0,1,,,,,,,,,0,,,79,0
124320,note_on,0,0,4,,,,,,,,,4,,,41,52
124320,note_off,25,0,4,,,,,,,,,4,,,43,0
124360,note_on,40,0,4,,,,,,,,,4,,,43,49
124380,set_tempo,120,1,0,,,,,,1071428,,,,,,,
124390,note_off,30,0,4,,,,,,,,,4,,,41,0
124400,note_on,10,0,4,,,,,,,,,4,,,41,46
124430,note_off,30,0,4,,,,,,,,,4,,,43,0
124440,note_on,10,0,4,,,,,,,,,4,,,43,49
124440,control_change,120,0,1,,,,,,,64,0,0,,,,
124470,note_off,30,0,4,,,,,,,,,4,,,41,0
124480,note_on,10,0,4,,,,,,,,,4,,,41,49
124480,control_change,40,0,1,,,,,,,64,127,0,,,,
124480,note_on,0,0,1,,,,,,,,,0,,,65,62
124510,note_off,30,0,4,,,,,,,,,4,,,43,0
124520,note_on,10,0,4,,,,,,,,,4,,,43,49
124520,note_on,40,0,1,,,,,,,,,0,,,70,63
124540,note_off,20,0,1,,,,,,,,,0,,,65,0
124550,note_off,30,0,4,,,,,,,,,4,,,41,0
124560,note_on,10,0,4,,,,,,,,,4,,,41,49
124560,note_on,20,0,1,,,,,,,,,0,,,80,63
124580,note_off,20,0,1,,,,,,,,,0,,,70,0
124590,note_off,30,0,4,,,,,,,,,4,,,43,0
124600,note_on,10,0,4,,,,,,,,,4,,,43,50
124630,note_off,30,0,4,,,,,,,,,4,,,41,0
124640,note_on,10,0,4,,,,,,,,,4,,,41,50
124670,note_off,30,0,4,,,,,,,,,4,,,43,0
124680,note_on,10,0,4,,,,,,,,,4,,,39,50
124710,note_off,30,0,4,,,,,,,,,4,,,41,0
124740,set_tempo,360,1,0,,,,,,1111111,,,,,,,
124740,note_on,30,0,4,,,,,,,,,4,,,41,50
124770,note_off,30,0,4,,,,,,,,,4,,,39,0
124800,note_on,0,0,4,,,,,,,,,4,,,39,55
124800,note_off,30,0,4,,,,,,,,,4,,,41,0
124800,note_off,220,0,1,,,,,,,,,0,,,80,0
124840,note_on,40,0,4,,,,,,,,,4,,,41,52
124860,set_tempo,120,1,0,,,,,,1071428,,,,,,,
124870,note_off,30,0,4,,,,,,,,,4,,,39,0
124880,note_on,10,0,4,,,,,,,,,4,,,39,49
124910,note_off,30,0,4,,,,,,,,,4,,,41,0
124920,note_on,10,0,4,,,,,,,,,4,,,41,51
124920,control_change,120,0,1,,,,,,,64,0,0,,,,
124950,note_off,30,0,4,,,,,,,,,4,,,39,0
124960,control_change,40,0,1,,,,,,,64,127,0,,,,
124960,note_on,0,0,1,,,,,,,,,0,,,67,65
124960,note_on,10,0,4,,,,,,,,,4,,,39,51
124990,note_off,30,0,4,,,,,,,,,4,,,41,0
125000,note_on,40,0,1,,,,,,,,,0,,,70,66
125000,note_on,10,0,4,,,,,,,,,4,,,41,51
125020,note_off,20,0,1,,,,,,,,,0,,,67,0
125030,note_off,30,0,4,,,,,,,,,4,,,39,0
125040,note_on,10,0,4,,,,,,,,,4,,,39,52
125040,note_on,20,0,1,,,,,,,,,0,,,82,66
125060,note_off,20,0,1,,,,,,,,,0,,,70,0
125070,note_off,30,0,4,,,,,,,,,4,,,41,0
125080,note_on,10,0,4,,,,,,,,,4,,,41,52
125110,note_off,30,0,4,,,,,,,,,4,,,39,0
125120,note_on,10,0,4,,,,,,,,,4,,,39,52
125150,note_off,30,0,4,,,,,,,,,4,,,41,0
125160,set_tempo,300,1,0,,,,,,1111111,,,,,,,
125160,note_on,10,0,4,,,,,,,,,4,,,38,52
125190,note_off,30,0,4,,,,,,,,,4,,,39,0
125220,note_on,30,0,4,,,,,,,,,4,,,39,52
125250,note_off,30,0,4,,,,,,,,,4,,,38,0
125280,set_tempo,120,1,0,,,,,,1071428,,,,,,,
125280,note_on,0,0,4,,,,,,,,,4,,,37,60
125280,note_off,30,0,4,,,,,,,,,4,,,39,0
125320,note_on,40,0,4,,,,,,,,,4,,,39,55
125350,note_off,30,0,4,,,,,,,,,4,,,37,0
125360,note_on,10,0,4,,,,,,,,,4,,,37,53
125390,note_off,30,0,4,,,,,,,,,4,,,39,0
125400,note_on,10,0,4,,,,,,,,,4,,,39,53
125430,note_off,30,0,4,,,,,,,,,4,,,37,0
125440,note_on,10,0,4,,,,,,,,,4,,,37,53
125470,note_off,30,0,4,,,,,,,,,4,,,39,0
125472,note_off,412,0,1,,,,,,,,,0,,,82,0
125480,note_on,10,0,4,,,,,,,,,4,,,39,54
125510,note_off,30,0,4,,,,,,,,,4,,,37,0
125520,note_on,10,0,4,,,,,,,,,4,,,37,54
125520,note_on,0,0,1,,,,,,,,,0,,,84,75
125520,control_change,48,0,1,,,,,,,64,0,0,,,,
125550,note_off,30,0,4,,,,,,,,,4,,,39,0
125560,note_on,10,0,4,,,,,,,,,4,,,39,54
125590,note_off,30,0,4,,,,,,,,,4,,,37,0
125600,note_on,10,0,4,,,,,,,,,4,,,37,54
125630,note_off,30,0,4,,,,,,,,,4,,,39,0
125640,note_on,10,0,4,,,,,,,,,4,,,39,54
125670,note_off,30,0,4,,,,,,,,,4,,,37,0
125680,note_on,10,0,4,,,,,,,,,4,,,37,55
125710,note_off,30,0,4,,,,,,,,,4,,,39,0
125712,note_off,192,0,1,,,,,,,,,0,,,84,0
125720,note_on,10,0,4,,,,,,,,,4,,,39,55
125750,note_off,30,0,4,,,,,,,,,4,,,37,0
125760,note_on,48,0,1,,,,,,,,,0,,,85,79
125760,note_on,10,0,4,,,,,,,,,4,,,37,55
125790,note_off,30,0,4,,,,,,,,,4,,,39,0
125800,note_on,10,0,4,,,,,,,,,4,,,39,55
125830,note_off,30,0,4,,,,,,,,,4,,,37,0
125840,note_on,10,0,4,,,,,,,,,4,,,37,55
125870,note_off,30,0,4,,,,,,,,,4,,,39,0
125880,note_on,10,0,4,,,,,,,,,4,,,39,56
125910,note_off,30,0,4,,,,,,,,,4,,,37,0
125920,note_on,10,0,4,,,,,,,,,4,,,37,56
125950,note_off,30,0,4,,,,,,,,,4,,,39,0
125952,note_off,192,0,1,,,,,,,,,0,,,85,0
125960,note_on,10,0,4,,,,,,,,,4,,,39,56
125990,note_off,30,0,4,,,,,,,,,4,,,37,0
126000,note_on,10,0,4,,,,,,,,,4,,,37,56
126000,note_on,48,0,1,,,,,,,,,0,,,86,83
126030,note_off,30,0,4,,,,,,,,,4,,,39,0
126040,note_on,10,0,4,,,,,,,,,4,,,39,56
126070,note_off,30,0,4,,,,,,,,,4,,,37,0
126080,note_on,10,0,4,,,,,,,,,4,,,37,56
126110,note_off,30,0,4,,,,,,,,,4,,,39,0
126120,note_on,10,0,4,,,,,,,,,4,,,39,57
126150,note_off,30,0,4,,,,,,,,,4,,,37,0
126160,note_on,10,0,4,,,,,,,,,4,,,37,57
126180,set_tempo,900,1,0,,,,,,1111111,,,,,,,
126190,note_off,30,0,4,,,,,,,,,4,,,39,0
126192,note_off,192,0,1,,,,,,,,,0,,,86,0
126200,note_on,10,0,4,,,,,,,,,4,,,39,57
126230,note_off,30,0,4,,,,,,,,,4,,,37,0
126240,note_on,0,0,4,,,,,,,,,4,,,37,57
126240,note_off,10,0,4,,,,,,,,,4,,,39,0
126240,note_on,48,0,1,,,,,,,,,0,,,87,94
126300,set_tempo,120,1,0,,,,,,1071428,,,,,,,
126360,note_on,120,0,4,,,,,,,,,4,,,36,55
126375,note_off,15,0,4,,,,,,,,,4,,,37,0
126420,note_off,45,0,4,,,,,,,,,4,,,36,0
126420,note_on,0,0,4,,,,,,,,,4,,,37,56
126480,note_on,0,0,4,,,,,,,,,4,,,39,58
126480,note_off,60,0,4,,,,,,,,,4,,,37,0
126540,note_on,0,0,4,,,,,,,,,4,,,37,59
126540,note_off,60,0,4,,,,,,,,,4,,,39,0
126600,note_on,0,0,4,,,,,,,,,4,,,36,60
126600,set_tempo,300,1,0,,,,,,1111111,,,,,,,
126600,note_off,60,0,4,,,,,,,,,4,,,37,0
126660,note_off,60,0,4,,,,,,,,,4,,,36,0
126660,note_on,0,0,4,,,,,,,,,4,,,34,61
126660,set_tempo,60,1,0,,,,,,1132075,,,,,,,
126720,note_off,60,0,4,,,,,,,,,4,,,34,0
126720,note_on,0,0,4,,,,,,,,,4,,,32,62
126787,set_tempo,127,1,0,,,,,,1034482,,,,,,,
126840,note_on,3960,0,3,,,,,,,,,2,,,48,56
126840,note_on,120,0,4,,,,,,,,,4,,,44,56
126960,note_off,120,0,4,,,,,,,,,4,,,44,0
126960,note_off,120,0,3,,,,,,,,,2,,,48,0
126960,note_off,720,0,1,,,,,,,,,0,,,87,0
126960,note_on,0,0,1,,,,,,,,,0,,,60,68
126960,note_on,0,0,4,,,,,,,,,4,,,44,56
126960,note_on,0,0,3,,,,,,,,,2,,,48,57
127080,note_on,0,0,3,,,,,,,,,2,,,44,59
127080,note_off,120,0,3,,,,,,,,,2,,,48,0
127080,note_off,120,0,4,,,,,,,,,4,,,44,0
127080,note_on,0,0,4,,,,,,,,,4,,,43,56
127080,note_on,0,0,3,,,,,,,,,2,,,48,57
127080,note_off,120,0,1,,,,,,,,,0,,,60,0
127200,note_off,120,0,4,,,,,,,,,4,,,43,0
127200,note_on,0,0,4,,,,,,,,,4,,,43,57
127200,note_off,120,0,3,,,,,,,,,2,,,48,0
127200,note_off,0,0,3,,,,,,,,,2,,,44,0
127200,note_on,0,0,3,,,,,,,,,2,,,44,60
127200,note_on,0,0,3,,,,,,,,,2,,,48,58
127320,note_on,0,0,3,,,,,,,,,2,,,44,58
127320,note_off,0,0,3,,,,,,,,,2,,,44,0
127320,note_off,120,0,3,,,,,,,,,2,,,48,0
127320,note_on,0,0,4,,,,,,,,,4,,,41,57
127320,note_off,120,0,4,,,,,,,,,4,,,43,0
127320,note_on,0,0,3,,,,,,,,,2,,,48,58
127440,note_off,120,0,4,,,,,,,,,4,,,41,0
127440,note_off,120,0,3,,,,,,,,,2,,,48,0
127440,note_on,0,0,3,,,,,,,,,2,,,48,59
127440,note_on,0,0,3,,,,,,,,,2,,,44,59
127440,note_on,0,0,4,,,,,,,,,4,,,41,58
127440,note_off,0,0,3,,,,,,,,,2,,,44,0
127560,note_off,120,0,3,,,,,,,,,2,,,48,0
127560,note_off,0,0,3,,,,,,,,,2,,,44,0
127560,note_on,0,0,3,,,,,,,,,2,,,44,59
127560,note_on,0,0,3,,,,,,,,,2,,,48,59
127560,note_on,0,0,4,,,,,,,,,4,,,39,58
127560,note_off,120,0,4,,,,,,,,,4,,,41,0
127560,note_on,480,0,1,,,,,,,,,0,,,60,70
127680,note_on,0,0,3,,,,,,,,,2,,,44,60
127680,note_on,0,0,3,,,,,,,,,2,,,48,60
127680,note_on,0,0,1,,,,,,,,,0,,,61,71
127680,note_off,120,0,1,,,,,,,,,0,,,60,0
127680,note_off,0,0,3,,,,,,,,,2,,,44,0
127680,note_off,120,0,3,,,,,,,,,2,,,48,0
127680,note_off,120,0,4,,,,,,,,,4,,,39,0
127680,note_off,0,0,4,,,,,,,,,4,,,32,0
127680,note_on,0,0,4,,,,,,,,,4,,,39,58
127776,note_off,96,0,1,,,,,,,,,0,,,61,0
127800,note_on,0,0,3,,,,,,,,,2,,,44,61
127800,note_on,24,0,1,,,,,,,,,0,,,63,73
127800,note_off,120,0,3,,,,,,,,,2,,,48,0
127800,note_off,120,0,4,,,,,,,,,4,,,39,0
127800,note_on,0,0,4,,,,,,,,,4,,,37,59
127800,note_on,0,0,3,,,,,,,,,2,,,48,61
127800,note_off,0,0,3,,,,,,,,,2,,,44,0
127920,note_off,120,0,3,,,,,,,,,2,,,48,0
127920,note_off,0,0,3,,,,,,,,,2,,,44,0
127920,note_on,0,0,3,,,,,,,,,2,,,44,61
127920,note_on,0,0,3,,,,,,,,,2,,,48,61
127920,note_off,120,0,4,,,,,,,,,4,,,37,0
127920,note_on,0,0,4,,,,,,,,,4,,,36,59
127920,note_on,0,0,1,,,,,,,,,0,,,65,74
127920,note_off,120,0,1,,,,,,,,,0,,,63,0
128016,note_off,96,0,1,,,,,,,,,0,,,65,0
128040,note_on,0,0,3,,,,,,,,,2,,,48,62
128040,note_on,0,0,3,,,,,,,,,2,,,44,62
128040,note_off,0,0,3,,,,,,,,,2,,,44,0
128040,note_off,120,0,3,,,,,,,,,2,,,48,0
128040,note_on,0,0,4,,,,,,,,,4,,,36,59
128040,note_off,120,0,4,,,,,,,,,4,,,36,0
128040,note_on,24,0,1,,,,,,,,,0,,,67,76
128100,set_tempo,1313,1,0,,,,,,1071428,,,,,,,
128160,note_off,120,0,4,,,,,,,,,4,,,36,0
128160,note_on,0,0,4,,,,,,,,,4,,,36,60
128160,note_off,0,0,3,,,,,,,,,2,,,44,0
128160,note_off,120,0,1,,,,,,,,,0,,,67,0
128160,note_on,0,0,1,,,,,,,,,0,,,68,80
128160,note_off,120,0,3,,,,,,,,,2,,,48,0
128220,set_tempo,120,1,0,,,,,,1034482,,,,,,,
128280,note_on,120,0,4,,,,,,,,,4,,,44,60
128280,note_on,120,0,3,,,,,,,,,2,,,48,63
128280,note_off,120,0,1,,,,,,,,,0,,,68,0
128400,note_on,120,0,1,,,,,,,,,0,,,63,70
128400,note_on,0,0,4,,,,,,,,,4,,,44,61
128400,note_on,0,0,3,,,,,,,,,2,,,48,63
128400,note_off,120,0,3,,,,,,,,,2,,,48,0
128400,note_off,120,0,4,,,,,,,,,4,,,44,0
128520,note_off,120,0,4,,,,,,,,,4,,,44,0
128520,note_off,120,0,1,,,,,,,,,0,,,63,0
128520,note_on,0,0,3,,,,,,,,,2,,,48,64
128520,note_on,0,0,3,,,,,,,,,2,,,44,66
128520,note_off,120,0,3,,,,,,,,,2,,,48,0
128520,note_on,0,0,4,,,,,,,,,4,,,43,61
128640,note_off,120,0,3,,,,,,,,,2,,,48,0
128640,note_on,0,0,4,,,,,,,,,4,,,43,61
128640,note_on,0,0,3,,,,,,,,,2,,,48,65
128640,note_on,0,0,3,,,,,,,,,2,,,44,67
128640,note_off,120,0,4,,,,,,,,,4,,,43,0
128640,note_off,0,0,3,,,,,,,,,2,,,44,0
128760,note_off,120,0,4,,,,,,,,,4,,,43,0
128760,note_off,120,0,3,,,,,,,,,2,,,48,0
128760,note_off,0,0,3,,,,,,,,,2,,,44,0
128760,note_on,0,0,3,,,,,,,,,2,,,44,65
128760,note_on,0,0,3,,,,,,,,,2,,,48,65
128760,note_on,0,0,4,,,,,,,,,4,,,41,62
128880,note_on,0,0,4,,,,,,,,,4,,,41,62
128880,note_off,120,0,4,,,,,,,,,4,,,41,0
128880,note_on,0,0,3,,,,,,,,,2,,,44,66
128880,note_off,0,0,3,,,,,,,,,2,,,44,0
128880,note_on,0,0,3,,,,,,,,,2,,,48,66
128880,note_off,120,0,3,,,,,,,,,2,,,48,0
129000,note_off,120,0,3,,,,,,,,,2,,,48,0
129000,note_on,0,0,3,,,,,,,,,2,,,44,66
129000,note_off,0,0,3,,,,,,,,,2,,,44,0
129000,note_on,480,0,1,,,,,,,,,0,,,67,74
129000,note_off,120,0,4,,,,,,,,,4,,,41,0
129000,note_on,0,0,4,,,,,,,,,4,,,39,63
129000,note_on,0,0,3,,,,,,,,,2,,,48,66
129120,note_off,0,0,3,,,,,,,,,2,,,44,0
129120,note_on,0,0,3,,,,,,,,,2,,,44,67
129120,note_on,0,0,3,,,,,,,,,2,,,48,67
129120,note_off,0,0,4,,,,,,,,,4,,,36,0
129120,note_off,120,0,4,,,,,,,,,4,,,39,0
129120,note_off,120,0,1,,,,,,,,,0,,,67,0
129120,note_on,0,0,1,,,,,,,,,0,,,68,76
129120,note_on,0,0,4,,,,,,,,,4,,,39,63
129120,note_off,120,0,3,,,,,,,,,2,,,48,0
129216,note_off,96,0,1,,,,,,,,,0,,,68,0
129240,note_off,120,0,3,,,,,,,,,2,,,48,0
129240,note_on,0,0,3,,,,,,,,,2,,,44,67
129240,note_on,0,0,3,,,,,,,,,2,,,48,67
129240,note_off,0,0,3,,,,,,,,,2,,,44,0
129240,note_on,0,0,4,,,,,,,,,4,,,37,63
129240,note_off,120,0,4,,,,,,,,,4,,,39,0
129240,note_on,24,0,1,,,,,,,,,0,,,70,78
129360,note_off,120,0,4,,,,,,,,,4,,,37,0
129360,note_off,120,0,1,,,,,,,,,0,,,70,0
129360,note_on,0,0,1,,,,,,,,,0,,,72,80
129360,note_off,120,0,3,,,,,,,,,2,,,48,0
129360,note_off,0,0,3,,,,,,,,,2,,,44,0
129360,note_on,0,0,3,,,,,,,,,2,,,44,68
129360,note_on,0,0,3,,,,,,,,,2,,,48,68
129360,note_on,0,0,4,,,,,,,,,4,,,36,64
129456,note_off,96,0,1,,,,,,,,,0,,,72,0
129480,note_on,0,0,3,,,,,,,,,2,,,48,69
129480,note_on,24,0,1,,,,,,,,,0,,,73,82
129480,note_off,0,0,3,,,,,,,,,2,,,44,0
129480,note_off,120,0,3,,,,,,,,,2,,,48,0
129480,note_off,120,0,4,,,,,,,,,4,,,36,0
129480,note_on,0,0,3,,,,,,,,,2,,,44,69
129480,note_on,0,0,4,,,,,,,,,4,,,36,64
129540,set_tempo,1320,1,0,,,,,,1071428,,,,,,,
129600,note_off,120,0,3,,,,,,,,,2,,,48,0
129600,note_off,0,0,3,,,,,,,,,2,,,44,0
129600,note_on,0,0,1,,,,,,,,,0,,,75,88
129600,note_off,120,0,1,,,,,,,,,0,,,73,0
129600,note_on,0,0,4,,,,,,,,,4,,,36,64
129600,note_off,120,0,4,,,,,,,,,4,,,36,0
129660,set_tempo,120,1,0,,,,,,1034482,,,,,,,
129720,note_off,120,0,1,,,,,,,,,0,,,75,0
129720,note_on,120,0,3,,,,,,,,,2,,,48,70
129720,note_on,120,0,4,,,,,,,,,4,,,44,65
129840,note_on,0,0,4,,,,,,,,,4,,,44,65
129840,note_on,0,0,3,,,,,,,,,2,,,48,70
129840,note_off,120,0,3,,,,,,,,,2,,,48,0
129840,note_off,120,0,4,,,,,,,,,4,,,44,0
129840,note_on,120,0,1,,,,,,,,,0,,,68,78
129960,note_off,120,0,1,,,,,,,,,0,,,68,0
129960,note_on,0,0,3,,,,,,,,,2,,,48,71
129960,note_on,0,0,3,,,,,,,,,2,,,44,73
129960,note_off,120,0,3,,,,,,,,,2,,,48,0
129960,note_on,0,0,4,,,,,,,,,4,,,43,66
129960,note_off,120,0,4,,,,,,,,,4,,,44,0
130080,note_off,120,0,4,,,,,,,,,4,,,43,0
130080,note_off,0,0,3,,,,,,,,,2,,,44,0
130080,note_on,0,0,4,,,,,,,,,4,,,43,66
130080,note_on,0,0,3,,,,,,,,,2,,,44,74
130080,note_on,0,0,3,,,,,,,,,2,,,48,71
130080,note_off,120,0,3,,,,,,,,,2,,,48,0
130200,note_on,0,0,3,,,,,,,,,2,,,44,72
130200,note_on,0,0,4,,,,,,,,,4,,,41,66
130200,note_off,120,0,4,,,,,,,,,4,,,43,0
130200,note_off,0,0,3,,,,,,,,,2,,,44,0
130200,note_off,120,0,3,,,,,,,,,2,,,48,0
130200,note_on,0,0,3,,,,,,,,,2,,,48,72
130320,note_off,120,0,3,,,,,,,,,2,,,48,0
130320,note_off,0,0,3,,,,,,,,,2,,,44,0
130320,note_on,0,0,3,,,,,,,,,2,,,48,73
130320,note_on,0,0,4,,,,,,,,,4,,,41,67
130320,note_off,120,0,4,,,,,,,,,4,,,41,0
130320,note_on,0,0,3,,,,,,,,,2,,,44,73
130440,note_on,0,0,4,,,,,,,,,4,,,39,67
130440,note_off,120,0,4,,,,,,,,,4,,,41,0
130440,note_on,480,0,1,,,,,,,,,0,,,80,79
130440,note_on,0,0,3,,,,,,,,,2,,,48,73
130440,note_on,0,0,3,,,,,,,,,2,,,44,73
130440,note_off,0,0,3,,,,,,,,,2,,,44,0
130440,note_off,120,0,3,,,,,,,,,2,,,48,0
130560,note_off,120,0,1,,,,,,,,,0,,,80,0
130560,note_on,0,0,1,,,,,,,,,0,,,82,81
130560,note_on,0,0,3,,,,,,,,,2,,,48,74
130560,note_on,0,0,3,,,,,,,,,2,,,44,74
130560,note_off,120,0,3,,,,,,,,,2,,,48,0
130560,note_off,0,0,3,,,,,,,,,2,,,44,0
130560,note_on,0,0,4,,,,,,,,,4,,,39,67
130560,note_off,0,0,4,,,,,,,,,4,,,36,0
130560,note_off,120,0,4,,,,,,,,,4,,,39,0
130656,note_off,96,0,1,,,,,,,,,0,,,82,0
130680,note_off,120,0,3,,,,,,,,,2,,,48,0
130680,note_off,120,0,4,,,,,,,,,4,,,39,0
130680,note_on,0,0,4,,,,,,,,,4,,,37,68
130680,note_off,0,0,3,,,,,,,,,2,,,44,0
130680,note_on,24,0,1,,,,,,,,,0,,,84,82
130680,note_on,0,0,3,,,,,,,,,2,,,48,74
130680,note_on,0,0,3,,,,,,,,,2,,,44,74
130800,note_off,0,0,3,,,,,,,,,2,,,44,0
130800,note_off,120,0,4,,,,,,,,,4,,,37,0
130800,note_on,0,0,3,,,,,,,,,2,,,44,75
130800,note_on,0,0,3,,,,,,,,,2,,,48,75
130800,note_on,0,0,4,,,,,,,,,4,,,36,68
130800,note_off,120,0,3,,,,,,,,,2,,,48,0
130800,note_on,0,0,1,,,,,,,,,0,,,85,83
130800,note_off,120,0,1,,,,,,,,,0,,,84,0
130860,set_tempo,1200,1,0,,,,,,1071428,,,,,,,
130896,note_off,96,0,1,,,,,,,,,0,,,85,0
130920,note_off,120,0,3,,,,,,,,,2,,,48,0
130920,note_off,0,0,3,,,,,,,,,2,,,44,0
130920,note_on,0,0,3,,,,,,,,,2,,,44,75
130920,note_on,0,0,3,,,,,,,,,2,,,48,75
130920,set_tempo,60,1,0,,,,,,1176470,,,,,,,
130920,note_on,24,0,1,,,,,,,,,0,,,87,85
130920,note_off,120,0,4,,,,,,,,,4,,,36,0
130920,note_on,0,0,4,,,,,,,,,4,,,36,69
131040,note_on,0,0,1,,,,,,,,,0,,,89,90
131040,note_off,120,0,1,,,,,,,,,0,,,87,0
131040,set_tempo,120,1,0,,,,,,1224489,,,,,,,
131040,note_on,0,0,3,,,,,,,,,2,,,46,76
131040,note_on,0,0,4,,,,,,,,,4,,,37,69
131040,note_off,120,0,3,,,,,,,,,2,,,48,0
131040,note_off,0,0,3,,,,,,,,,2,,,44,0
131040,note_on,0,0,3,,,,,,,,,2,,,44,76
131040,note_off,120,0,4,,,,,,,,,4,,,36,0
131520,note_off,480,0,4,,,,,,,,,4,,,37,0
131520,note_off,480,0,3,,,,,,,,,2,,,46,0
131520,note_off,0,0,3,,,,,,,,,2,,,44,0
131520,note_off,480,0,1,,,,,,,,,0,,,89,0
131880,note_on,9075,0,2,,,,,,,,,1,,,65,52
131880,note_on,360,0,1,,,,,,,,,0,,,70,52
131880,set_tempo,840,1,0,,,,,,1071428,,,,,,,
131880,note_on,360,0,3,,,,,,,,,2,,,56,50
131880,note_on,360,0,4,,,,,,,,,4,,,50,50
132000,note_off,120,0,2,,,,,,,,,1,,,65,0
132000,note_on,0,0,3,,,,,,,,,2,,,55,51
132000,note_off,120,0,3,,,,,,,,,2,,,56,0
132000,note_off,120,0,1,,,,,,,,,0,,,70,0
132000,note_on,0,0,1,,,,,,,,,0,,,75,53
132000,note_on,0,0,2,,,,,,,,,1,,,67,53
132000,note_off,120,0,4,,,,,,,,,4,,,50,0
132000,note_on,0,0,4,,,,,,,,,4,,,51,51
132240,note_off,240,0,3,,,,,,,,,2,,,55,0
132240,note_off,240,0,4,,,,,,,,,4,,,51,0
132240,note_off,240,0,1,,,,,,,,,0,,,75,0
132240,note_off,240,0,2,,,,,,,,,1,,,67,0
132360,note_on,120,0,1,,,,,,,,,0,,,75,56
132360,set_tempo,480,1,0,,,,,,1111111,,,,,,,
132360,note_on,120,0,4,,,,,,,,,4,,,51,52
132360,note_on,120,0,2,,,,,,,,,1,,,67,56
132360,note_on,120,0,3,,,,,,,,,2,,,58,52
132480,note_on,0,0,4,,,,,,,,,4,,,53,55
132480,note_off,120,0,4,,,,,,,,,4,,,51,0
132480,note_off,120,0,2,,,,,,,,,1,,,67,0
132480,note_on,0,0,2,,,,,,,,,1,,,71,57
132480,note_off,120,0,3,,,,,,,,,2,,,58,0
132480,note_on,0,0,3,,,,,,,,,2,,,56,55
132480,set_tempo,120,1,0,,,,,,1071428,,,,,,,
132480,note_on,0,0,1,,,,,,,,,0,,,74,57
132480,note_off,120,0,1,,,,,,,,,0,,,75,0
132960,note_on,0,0,3,,,,,,,,,2,,,58,51
132960,note_on,0,0,2,,,,,,,,,1,,,64,52
132960,note_off,480,0,2,,,,,,,,,1,,,71,0
132960,note_on,0,0,1,,,,,,,,,0,,,73,52
132960,note_off,480,0,1,,,,,,,,,0,,,74,0
132960,note_off,480,0,3,,,,,,,,,2,,,56,0
132960,note_off,480,0,4,,,,,,,,,4,,,53,0
132960,note_on,0,0,4,,,,,,,,,4,,,55,51
133380,set_tempo,900,1,0,,,,,,1111111,,,,,,,
133440,note_on,0,0,1,,,,,,,,,0,,,72,46
133440,note_off,480,0,1,,,,,,,,,0,,,73,0
133440,note_on,0,0,4,,,,,,,,,4,,,56,46
133440,note_on,0,0,2,,,,,,,,,1,,,63,46
133440,note_on,0,0,3,,,,,,,,,2,,,60,46
133440,note_off,480,0,3,,,,,,,,,2,,,58,0
133440,note_off,480,0,4,,,,,,,,,4,,,55,0
133440,note_off,480,0,2,,,,,,,,,1,,,64,0
133552,set_tempo,172,1,0,,,,,,1071428,,,,,,,
133560,note_on,0,0,3,,,,,,,,,2,,,60,46
133560,note_off,120,0,2,,,,,,,,,1,,,63,0
133560,note_on,0,0,1,,,,,,,,,0,,,92,46
133560,note_on,0,0,4,,,,,,,,,4,,,56,46
133560,note_off,120,0,3,,,,,,,,,2,,,60,0
133560,note_off,120,0,4,,,,,,,,,4,,,56,0
133560,note_off,120,0,1,,,,,,,,,0,,,72,0
133680,note_on,0,0,3,,,,,,,,,2,,,61,48
133680,note_off,120,0,4,,,,,,,,,4,,,56,0
133680,note_on,0,0,4,,,,,,,,,4,,,58,48
133680,note_on,0,0,1,,,,,,,,,0,,,91,48
133680,note_off,120,0,1,,,,,,,,,0,,,92,0
133680,note_off,120,0,3,,,,,,,,,2,,,60,0
133800,note_off,120,0,3,,,,,,,,,2,,,61,0
133800,note_on,0,0,3,,,,,,,,,2,,,63,50
133800,note_on,0,0,1,,,,,,,,,0,,,90,50
133800,note_off,120,0,1,,,,,,,,,0,,,91,0
133800,note_off,120,0,4,,,,,,,,,4,,,58,0
133800,note_on,0,0,4,,,,,,,,,4,,,60,50
133867,set_tempo,315,1,0,,,,,,1111111,,,,,,,
133920,note_off,120,0,1,,,,,,,,,0,,,90,0
133920,note_on,0,0,1,,,,,,,,,0,,,89,51
133920,note_off,120,0,3,,,,,,,,,2,,,63,0
133920,note_on,0,0,4,,,,,,,,,4,,,61,52
133920,note_off,120,0,4,,,,,,,,,4,,,60,0
133920,note_on,0,0,3,,,,,,,,,2,,,65,52
133920,set_tempo,53,1,0,,,,,,1071428,,,,,,,
133980,note_on,0,0,1,,,,,,,,,0,,,87,52
133980,note_off,60,0,1,,,,,,,,,0,,,89,0
134040,note_on,0,0,1,,,,,,,,,0,,,85,53
134040,note_off,60,0,1,,,,,,,,,0,,,87,0
134100,note_off,60,0,1,,,,,,,,,0,,,85,0
134100,note_on,0,0,1,,,,,,,,,0,,,84,54
134160,note_off,240,0,4,,,,,,,,,4,,,61,0
134160,note_off,240,0,3,,,,,,,,,2,,,65,0
134160,note_off,60,0,1,,,,,,,,,0,,,84,0
134160,note_on,0,0,1,,,,,,,,,0,,,83,55
134220,note_off,60,0,1,,,,,,,,,0,,,83,0
134220,note_on,0,0,1,,,,,,,,,0,,,82,56
134280,note_on,0,0,1,,,,,,,,,0,,,81,57
134280,note_off,60,0,1,,,,,,,,,0,,,82,0
134340,note_on,0,0,1,,,,,,,,,0,,,80,58
134340,note_off,60,0,1,,,,,,,,,0,,,81,0
134400,note_on,0,0,1,,,,,,,,,0,,,79,61
134400,note_off,60,0,1,,,,,,,,,0,,,80,0
134460,note_on,0,0,1,,,,,,,,,0,,,78,60
134460,note_off,60,0,1,,,,,,,,,0,,,79,0
134520,note_off,60,0,1,,,,,,,,,0,,,78,0
134520,note_on,0,0,1,,,,,,,,,0,,,77,59
134580,note_off,60,0,1,,,,,,,,,0,,,77,0
134580,note_on,0,0,1,,,,,,,,,0,,,76,58
134640,note_on,0,0,1,,,,,,,,,0,,,75,57
134640,note_on,480,0,3,,,,,,,,,2,,,56,55
134640,note_on,0,0,3,,,,,,,,,2,,,53,55
134640,note_on,480,0,4,,,,,,,,,4,,,49,55
134640,note_off,60,0,1,,,,,,,,,0,,,76,0
134700,note_off,60,0,1,,,,,,,,,0,,,75,0
134700,note_on,0,0,1,,,,,,,,,0,,,73,56
134760,note_off,0,0,3,,,,,,,,,2,,,56,0
134760,note_off,120,0,3,,,,,,,,,2,,,53,0
134760,note_on,0,0,3,,,,,,,,,2,,,56,55
134760,note_off,60,0,1,,,,,,,,,0,,,73,0
134760,note_on,0,0,1,,,,,,,,,0,,,72,55
134760,note_on,0,0,3,,,,,,,,,2,,,53,55
134760,note_off,120,0,4,,,,,,,,,4,,,49,0
134760,note_on,0,0,4,,,,,,,,,4,,,50,55
134820,note_on,0,0,1,,,,,,,,,0,,,70,55
134820,note_off,60,0,1,,,,,,,,,0,,,72,0
134820,set_tempo,900,1,0,,,,,,1111111,,,,,,,
134880,note_on,0,0,4,,,,,,,,,4,,,51,54
134880,note_on,0,0,3,,,,,,,,,2,,,55,54
134880,note_off,0,0,3,,,,,,,,,2,,,56,0
134880,note_off,120,0,3,,,,,,,,,2,,,53,0
134880,note_on,1320,0,2,,,,,,,,,1,,,70,54
134880,note_off,60,0,1,,,,,,,,,0,,,70,0
134880,note_on,0,0,1,,,,,,,,,0,,,75,54
134880,note_off,120,0,4,,,,,,,,,4,,,50,0
135120,note_off,240,0,4,,,,,,,,,4,,,51,0
135120,note_off,240,0,3,,,,,,,,,2,,,55,0
135120,note_off,240,0,2,,,,,,,,,1,,,70,0
135120,note_off,240,0,1,,,,,,,,,0,,,75,0
135240,note_on,120,0,1,,,,,,,,,0,,,75,53
135240,note_on,120,0,2,,,,,,,,,1,,,67,53
135240,note_on,120,0,4,,,,,,,,,4,,,51,53
135240,note_on,120,0,3,,,,,,,,,2,,,58,53
135240,set_tempo,420,1,0,,,,,,1132075,,,,,,,
135360,note_off,120,0,3,,,,,,,,,2,,,58,0
135360,note_on,0,0,4,,,,,,,,,4,,,56,52
135360,note_off,120,0,4,,,,,,,,,4,,,51,0
135360,note_on,0,0,2,,,,,,,,,1,,,68,52
135360,note_off,120,0,2,,,,,,,,,1,,,67,0
135360,set_tempo,120,1,0,,,,,,1111111,,,,,,,
135360,note_off,120,0,1,,,,,,,,,0,,,75,0
135360,note_on,0,0,3,,,,,,,,,2,,,60,52
135360,note_on,0,0,1,,,,,,,,,0,,,75,52
135600,note_off,240,0,1,,,,,,,,,0,,,75,0
135600,note_on,0,0,1,,,,,,,,,0,,,77,51
135600,note_on,0,0,3,,,,,,,,,2,,,61,51
135600,note_off,240,0,3,,,,,,,,,2,,,60,0
135720,note_off,120,0,1,,,,,,,,,0,,,77,0
135720,note_on,0,0,1,,,,,,,,,0,,,75,50
135720,note_on,0,0,3,,,,,,,,,2,,,60,51
135720,note_off,120,0,3,,,,,,,,,2,,,61,0
135840,note_on,0,0,1,,,,,,,,,0,,,73,50
135840,note_off,120,0,1,,,,,,,,,0,,,75,0
135840,note_off,120,0,3,,,,,,,,,2,,,60,0
135840,note_on,0,0,3,,,,,,,,,2,,,58,50
135960,note_off,600,0,4,,,,,,,,,4,,,56,0
135960,note_off,120,0,3,,,,,,,,,2,,,58,0
135960,note_on,0,0,3,,,,,,,,,2,,,56,50
135960,note_off,120,0,1,,,,,,,,,0,,,73,0
135960,note_on,0,0,1,,,,,,,,,0,,,72,49
136080,note_off,120,0,1,,,,,,,,,0,,,72,0
136080,note_on,0,0,1,,,,,,,,,0,,,70,49
136080,note_on,0,0,3,,,,,,,,,2,,,55,49
136080,note_off,120,0,3,,,,,,,,,2,,,56,0
136200,note_on,0,0,3,,,,,,,,,2,,,56,49
136200,note_off,120,0,3,,,,,,,,,2,,,55,0
136200,note_on,0,0,1,,,,,,,,,0,,,72,48
136200,note_off,120,0,1,,,,,,,,,0,,,70,0
136320,note_on,360,0,4,,,,,,,,,4,,,51,48
136320,note_on,0,0,3,,,,,,,,,2,,,58,48
136320,note_on,0,0,1,,,,,,,,,0,,,73,48
136320,note_off,120,0,1,,,,,,,,,0,,,72,0
136320,note_off,120,0,3,,,,,,,,,2,,,56,0
136440,note_on,1080,0,2,,,,,,,,,1,,,65,47
136455,note_off,15,0,2,,,,,,,,,1,,,68,0
136560,note_off,105,0,2,,,,,,,,,1,,,65,0
136560,note_on,0,0,2,,,,,,,,,1,,,68,47
136680,note_off,120,0,2,,,,,,,,,1,,,68,0
136680,note_on,0,0,2,,,,,,,,,1,,,67,46
136740,set_tempo,1380,1,0,,,,,,1132075,,,,,,,
136800,note_on,0,0,2,,,,,,,,,1,,,68,46
136800,note_off,480,0,1,,,,,,,,,0,,,73,0
136800,note_on,0,0,1,,,,,,,,,0,,,72,46
136800,note_off,480,0,3,,,,,,,,,2,,,58,0
136800,note_on,0,0,4,,,,,,,,,4,,,44,46
136800,note_on,0,0,3,,,,,,,,,2,,,56,46
136800,note_off,480,0,4,,,,,,,,,4,,,51,0
136800,note_off,120,0,2,,,,,,,,,1,,,67,0
136860,set_tempo,120,1,0,,,,,,1111111,,,,,,,
136920,note_on,0,0,2,,,,,,,,,1,,,63,45
136920,note_off,120,0,3,,,,,,,,,2,,,56,0
136920,note_off,120,0,2,,,,,,,,,1,,,68,0
136920,note_on,0,0,3,,,,,,,,,2,,,48,46
137040,note_off,120,0,2,,,,,,,,,1,,,63,0
137040,note_on,0,0,2,,,,,,,,,1,,,65,45
137040,note_off,120,0,3,,,,,,,,,2,,,48,0
137040,note_on,0,0,3,,,,,,,,,2,,,49,45
137040,note_off,240,0,1,,,,,,,,,0,,,72,0
137160,note_on,0,0,2,,,,,,,,,1,,,63,44
137160,note_on,0,0,3,,,,,,,,,2,,,48,45
137160,note_off,120,0,2,,,,,,,,,1,,,65,0
137160,note_off,120,0,3,,,,,,,,,2,,,49,0
137280,note_off,120,0,3,,,,,,,,,2,,,48,0
137280,note_on,0,0,3,,,,,,,,,2,,,46,44
137280,note_on,0,0,2,,,,,,,,,1,,,61,44
137280,note_off,120,0,2,,,,,,,,,1,,,63,0
137400,note_off,120,0,2,,,,,,,,,1,,,61,0
137400,note_off,120,0,3,,,,,,,,,2,,,46,0
137400,note_off,600,0,4,,,,,,,,,4,,,44,0
137400,note_on,0,0,3,,,,,,,,,2,,,44,44
137400,note_on,0,0,2,,,,,,,,,1,,,60,43
137520,note_on,0,0,2,,,,,,,,,1,,,58,43
137520,note_on,0,0,3,,,,,,,,,2,,,43,43
137520,note_off,120,0,3,,,,,,,,,2,,,44,0
137520,note_off,120,0,2,,,,,,,,,1,,,60,0
137640,note_off,120,0,3,,,,,,,,,2,,,43,0
137640,note_off,120,0,2,,,,,,,,,1,,,58,0
137640,note_on,0,0,3,,,,,,,,,2,,,44,43
137640,note_on,0,0,2,,,,,,,,,1,,,60,42
137760,note_off,120,0,3,,,,,,,,,2,,,44,0
137760,note_on,0,0,2,,,,,,,,,1,,,61,42
137760,note_on,0,0,3,,,,,,,,,2,,,46,42
137760,note_on,360,0,4,,,,,,,,,4,,,39,42
137760,note_off,120,0,2,,,,,,,,,1,,,60,0
137760,note_on,720,0,1,,,,,,,,,0,,,68,42
137880,note_off,120,0,1,,,,,,,,,0,,,68,0
137880,note_on,0,0,1,,,,,,,,,0,,,65,42
138000,note_off,120,0,1,,,,,,,,,0,,,65,0
138000,note_on,0,0,1,,,,,,,,,0,,,68,43
138120,note_on,0,0,1,,,,,,,,,0,,,67,43
138120,set_tempo,1260,1,0,,,,,,1132075,,,,,,,
138120,note_off,120,0,1,,,,,,,,,0,,,68,0
138240,note_on,0,0,3,,,,,,,,,2,,,44,40
138240,note_off,480,0,3,,,,,,,,,2,,,46,0
138240,note_on,0,0,4,,,,,,,,,4,,,32,40
138240,note_off,480,0,4,,,,,,,,,4,,,39,0
138240,set_tempo,120,1,0,,,,,,1111111,,,,,,,
138240,note_off,120,0,1,,,,,,,,,0,,,67,0
138240,note_on,0,0,1,,,,,,,,,0,,,70,43
138240,note_off,480,0,2,,,,,,,,,1,,,61,0
138240,note_on,0,0,2,,,,,,,,,1,,,60,43
138360,note_off,120,0,1,,,,,,,,,0,,,70,0
138360,note_on,0,0,1,,,,,,,,,0,,,67,44
138480,note_off,120,0,1,,,,,,,,,0,,,67,0
138480,note_on,0,0,1,,,,,,,,,0,,,70,44
138600,note_on,0,0,1,,,,,,,,,0,,,68,44
138600,note_off,120,0,1,,,,,,,,,0,,,70,0
138684,set_tempo,444,1,0,,,,,,1132075,,,,,,,
138720,note_on,0,0,1,,,,,,,,,0,,,73,45
138720,set_tempo,36,1,0,,,,,,1111111,,,,,,,
138720,note_off,480,0,2,,,,,,,,,1,,,60,0
138720,note_on,0,0,3,,,,,,,,,2,,,36,41
138720,note_on,0,0,3,,,,,,,,,2,,,39,41
138720,note_off,480,0,3,,,,,,,,,2,,,44,0
138720,note_on,0,0,4,,,,,,,,,4,,,32,41
138720,note_on,0,0,4,,,,,,,,,4,,,44,41
138720,note_off,480,0,4,,,,,,,,,4,,,32,0
138720,note_off,120,0,1,,,,,,,,,0,,,68,0
138840,note_on,0,0,1,,,,,,,,,0,,,71,45
138840,note_off,120,0,1,,,,,,,,,0,,,73,0
138960,note_on,0,0,1,,,,,,,,,0,,,73,46
138960,note_off,120,0,1,,,,,,,,,0,,,71,0
139080,note_on,0,0,1,,,,,,,,,0,,,72,46
139080,note_off,120,0,1,,,,,,,,,0,,,73,0
139200,note_off,120,0,1,,,,,,,,,0,,,72,0
139200,note_on,0,0,1,,,,,,,,,0,,,77,46
139320,note_off,120,0,1,,,,,,,,,0,,,77,0
139320,note_on,0,0,1,,,,,,,,,0,,,74,47
139440,note_on,0,0,1,,,,,,,,,0,,,77,47
139440,note_off,120,0,1,,,,,,,,,0,,,74,0
139560,note_on,0,0,1,,,,,,,,,0,,,75,47
139560,note_off,120,0,1,,,,,,,,,0,,,77,0
139680,note_off,120,0,1,,,,,,,,,0,,,75,0
139680,note_on,0,0,1,,,,,,,,,0,,,82,48
139800,note_on,0,0,1,,,,,,,,,0,,,79,48
139800,note_off,120,0,1,,,,,,,,,0,,,82,0
139920,note_off,120,0,1,,,,,,,,,0,,,79,0
139920,note_on,0,0,1,,,,,,,,,0,,,82,48
140040,note_on,0,0,1,,,,,,,,,0,,,80,49
140040,note_off,120,0,1,,,,,,,,,0,,,82,0
140124,set_tempo,1404,1,0,,,,,,1132075,,,,,,,
140160,set_tempo,36,1,0,,,,,,1111111,,,,,,,
140160,note_on,0,0,1,,,,,,,,,0,,,85,49
140160,note_off,120,0,1,,,,,,,,,0,,,80,0
140160,note_off,1440,0,3,,,,,,,,,2,,,36,0
140160,note_off,1440,0,4,,,,,,,,,4,,,32,0
140160,note_off,0,0,4,,,,,,,,,4,,,44,0
140160,note_on,0,0,4,,,,,,,,,4,,,56,44
140160,note_off,0,0,3,,,,,,,,,2,,,39,0
140160,note_on,0,0,3,,,,,,,,,2,,,51,44
140160,note_on,0,0,3,,,,,,,,,2,,,48,44
140160,note_on,0,0,4,,,,,,,,,4,,,44,44
140280,note_off,120,0,1,,,,,,,,,0,,,85,0
140280,note_on,0,0,1,,,,,,,,,0,,,83,50
140400,note_off,120,0,1,,,,,,,,,0,,,83,0
140400,note_on,0,0,1,,,,,,,,,0,,,85,50
140520,note_off,120,0,1,,,,,,,,,0,,,85,0
140520,note_on,0,0,1,,,,,,,,,0,,,84,50
140600,set_tempo,440,1,0,,,,,,1132075,,,,,,,
140636,set_tempo,36,1,0,,,,,,1111111,,,,,,,
140640,note_on,0,0,1,,,,,,,,,0,,,89,51
140640,note_off,120,0,1,,,,,,,,,0,,,84,0
140640,note_on,0,0,3,,,,,,,,,2,,,60,45
140640,note_off,480,0,4,,,,,,,,,4,,,44,0
140640,note_off,0,0,3,,,,,,,,,2,,,51,0
140640,note_off,480,0,3,,,,,,,,,2,,,48,0
140640,note_on,0,0,4,,,,,,,,,4,,,56,45
140640,note_off,0,0,4,,,,,,,,,4,,,56,0
140640,note_on,0,0,3,,,,,,,,,2,,,63,45
140760,note_off,120,0,1,,,,,,,,,0,,,89,0
140760,note_on,0,0,1,,,,,,,,,0,,,86,51
140880,note_off,120,0,1,,,,,,,,,0,,,86,0
140880,note_on,0,0,1,,,,,,,,,0,,,89,51
141000,note_on,0,0,1,,,,,,,,,0,,,87,52
141000,note_off,120,0,1,,,,,,,,,0,,,89,0
141120,note_off,480,0,3,,,,,,,,,2,,,60,0
141120,note_on,0,0,1,,,,,,,,,0,,,87,52
141120,note_on,0,0,4,,,,,,,,,4,,,53,47
141120,note_off,0,0,3,,,,,,,,,2,,,63,0
141120,note_off,480,0,4,,,,,,,,,4,,,56,0
141120,note_on,0,0,3,,,,,,,,,2,,,56,47
141120,note_on,0,0,3,,,,,,,,,2,,,62,47
141120,note_on,0,0,3,,,,,,,,,2,,,58,47
141120,note_off,120,0,1,,,,,,,,,0,,,87,0
141240,note_off,120,0,1,,,,,,,,,0,,,87,0
141240,note_on,0,0,1,,,,,,,,,0,,,84,53
141360,note_off,120,0,1,,,,,,,,,0,,,84,0
141360,note_on,0,0,1,,,,,,,,,0,,,87,53
141480,note_on,0,0,1,,,,,,,,,0,,,86,53
141480,note_off,120,0,1,,,,,,,,,0,,,87,0
141480,set_tempo,844,1,0,,,,,,1132075,,,,,,,
141600,note_off,0,0,3,,,,,,,,,2,,,56,0
141600,note_off,0,0,3,,,,,,,,,2,,,62,0
141600,note_off,480,0,3,,,,,,,,,2,,,58,0
141600,note_on,0,0,3,,,,,,,,,2,,,58,48
141600,note_on,0,0,3,,,,,,,,,2,,,62,48
141600,note_on,0,0,3,,,,,,,,,2,,,56,48
141600,note_off,480,0,4,,,,,,,,,4,,,53,0
141600,set_tempo,120,1,0,,,,,,1111111,,,,,,,
141600,note_on,0,0,4,,,,,,,,,4,,,53,48
141600,note_off,120,0,1,,,,,,,,,0,,,86,0
141600,note_on,0,0,1,,,,,,,,,0,,,96,54
141720,note_off,120,0,1,,,,,,,,,0,,,96,0
141720,note_on,0,0,1,,,,,,,,,0,,,93,54
141840,note_off,120,0,1,,,,,,,,,0,,,93,0
141840,note_on,0,0,1,,,,,,,,,0,,,96,54
141960,note_off,120,0,1,,,,,,,,,0,,,96,0
141960,note_on,0,0,1,,,,,,,,,0,,,94,55
142080,note_off,120,0,1,,,,,,,,,0,,,94,0
142080,note_on,0,0,1,,,,,,,,,0,,,87,55
142200,note_on,0,0,1,,,,,,,,,0,,,84,56
142200,note_off,120,0,1,,,,,,,,,0,,,87,0
142320,note_on,0,0,1,,,,,,,,,0,,,87,56
142320,note_off,120,0,1,,,,,,,,,0,,,84,0
142440,note_on,0,0,1,,,,,,,,,0,,,86,56
142440,note_off,120,0,1,,,,,,,,,0,,,87,0
142560,note_off,120,0,1,,,,,,,,,0,,,86,0
142560,note_on,0,0,3,,,,,,,,,2,,,58,50
142560,note_off,0,0,3,,,,,,,,,2,,,62,0
142560,note_on,0,0,3,,,,,,,,,2,,,55,50
142560,note_off,0,0,3,,,,,,,,,2,,,56,0
142560,note_off,960,0,3,,,,,,,,,2,,,58,0
142560,note_on,0,0,1,,,,,,,,,0,,,89,57
142560,note_off,960,0,4,,,,,,,,,4,,,53,0
142560,note_on,0,0,4,,,,,,,,,4,,,51,50
142560,note_on,0,0,3,,,,,,,,,2,,,63,50
142680,note_off,120,0,1,,,,,,,,,0,,,89,0
142680,note_on,0,0,1,,,,,,,,,0,,,86,57
142800,note_off,120,0,1,,,,,,,,,0,,,86,0
142800,note_on,0,0,1,,,,,,,,,0,,,89,57
142920,note_off,120,0,1,,,,,,,,,0,,,89,0
142920,note_on,0,0,1,,,,,,,,,0,,,87,58
142920,set_tempo,1320,1,0,,,,,,1132075,,,,,,,
143040,set_tempo,120,1,0,,,,,,1111111,,,,,,,
143040,note_off,0,0,3,,,,,,,,,2,,,55,0
143040,note_on,0,0,3,,,,,,,,,2,,,63,51
143040,note_on,0,0,3,,,,,,,,,2,,,55,51
143040,note_off,0,0,3,,,,,,,,,2,,,63,0
143040,note_off,480,0,3,,,,,,,,,2,,,58,0
143040,note_off,120,0,1,,,,,,,,,0,,,87,0
143040,note_on,0,0,1,,,,,,,,,0,,,96,58
143040,note_off,480,0,4,,,,,,,,,4,,,51,0
143040,note_on,0,0,4,,,,,,,,,4,,,51,51
143040,note_on,0,0,3,,,,,,,,,2,,,58,51
143160,note_off,120,0,1,,,,,,,,,0,,,96,0
143160,note_on,0,0,1,,,,,,,,,0,,,93,58
143280,note_on,0,0,1,,,,,,,,,0,,,96,59
143280,note_off,120,0,1,,,,,,,,,0,,,93,0
143400,note_on,0,0,1,,,,,,,,,0,,,94,59
143400,note_off,120,0,1,,,,,,,,,0,,,96,0
143520,note_off,480,0,3,,,,,,,,,2,,,58,0
143520,note_off,0,0,3,,,,,,,,,2,,,63,0
143520,note_on,0,0,3,,,,,,,,,2,,,63,52
143520,note_on,0,0,3,,,,,,,,,2,,,55,52
143520,note_off,0,0,3,,,,,,,,,2,,,55,0
143520,note_on,0,0,4,,,,,,,,,4,,,51,52
143520,note_off,480,0,4,,,,,,,,,4,,,51,0
143520,note_on,0,0,3,,,,,,,,,2,,,58,52
143520,note_on,0,0,1,,,,,,,,,0,,,89,60
143520,note_off,120,0,1,,,,,,,,,0,,,94,0
143640,note_off,120,0,1,,,,,,,,,0,,,89,0
143640,note_on,0,0,1,,,,,,,,,0,,,86,60
143760,note_off,120,0,1,,,,,,,,,0,,,86,0
143760,note_on,0,0,1,,,,,,,,,0,,,89,60
143880,note_off,120,0,1,,,,,,,,,0,,,89,0
143880,note_on,0,0,1,,,,,,,,,0,,,87,61
144000,note_off,480,0,3,,,,,,,,,2,,,58,0
144000,note_off,480,0,4,,,,,,,,,4,,,51,0
144000,note_off,0,0,3,,,,,,,,,2,,,55,0
144000,note_on,0,0,3,,,,,,,,,2,,,56,54
144000,note_on,0,0,3,,,,,,,,,2,,,62,54
144000,note_on,0,0,3,,,,,,,,,2,,,58,54
144000,note_on,0,0,4,,,,,,,,,4,,,53,54
144000,note_off,120,0,1,,,,,,,,,0,,,87,0
144000,note_on,0,0,1,,,,,,,,,0,,,87,61
144000,note_off,0,0,3,,,,,,,,,2,,,63,0
144120,note_off,120,0,1,,,,,,,,,0,,,87,0
144120,note_on,0,0,1,,,,,,,,,0,,,84,61
144240,note_off,120,0,1,,,,,,,,,0,,,84,0
144240,note_on,0,0,1,,,,,,,,,0,,,87,62
144360,note_on,0,0,1,,,,,,,,,0,,,86,62
144360,set_tempo,1320,1,0,,,,,,1132075,,,,,,,
144360,note_off,120,0,1,,,,,,,,,0,,,87,0
144480,note_on,0,0,4,,,,,,,,,4,,,53,55
144480,note_off,480,0,4,,,,,,,,,4,,,53,0
144480,note_on,0,0,3,,,,,,,,,2,,,62,55
144480,note_off,0,0,3,,,,,,,,,2,,,62,0
144480,note_off,0,0,3,,,,,,,,,2,,,56,0
144480,note_on,0,0,1,,,,,,,,,0,,,96,63
144480,note_off,120,0,1,,,,,,,,,0,,,86,0
144480,note_on,0,0,3,,,,,,,,,2,,,56,55
144480,note_on,0,0,3,,,,,,,,,2,,,58,55
144480,set_tempo,120,1,0,,,,,,1111111,,,,,,,
144480,note_off,480,0,3,,,,,,,,,2,,,58,0
144600,note_off,120,0,1,,,,,,,,,0,,,96,0
144600,note_on,0,0,1,,,,,,,,,0,,,93,63
144720,note_off,120,0,1,,,,,,,,,0,,,93,0
144720,note_on,0,0,1,,,,,,,,,0,,,96,63
144840,note_on,0,0,1,,,,,,,,,0,,,94,64
144840,note_off,120,0,1,,,,,,,,,0,,,96,0
144960,note_on,0,0,1,,,,,,,,,0,,,87,64
144960,note_off,120,0,1,,,,,,,,,0,,,94,0
145080,note_off,120,0,1,,,,,,,,,0,,,87,0
145080,note_on,0,0,1,,,,,,,,,0,,,84,64
145200,note_off,120,0,1,,,,,,,,,0,,,84,0
145200,note_on,0,0,1,,,,,,,,,0,,,87,65
145320,note_off,120,0,1,,,,,,,,,0,,,87,0
145320,note_on,0,0,1,,,,,,,,,0,,,86,65
145440,note_off,120,0,1,,,,,,,,,0,,,86,0
145440,note_on,0,0,1,,,,,,,,,0,,,89,61
145440,note_on,0,0,3,,,,,,,,,2,,,58,57
145440,note_on,0,0,3,,,,,,,,,2,,,55,57
145440,note_off,960,0,4,,,,,,,,,4,,,53,0
145440,note_on,0,0,4,,,,,,,,,4,,,51,57
145440,note_on,0,0,3,,,,,,,,,2,,,63,57
145440,note_off,0,0,3,,,,,,,,,2,,,56,0
145440,note_off,0,0,3,,,,,,,,,2,,,62,0
145440,note_off,960,0,3,,,,,,,,,2,,,58,0
145560,note_on,0,0,1,,,,,,,,,0,,,86,61
145560,note_off,120,0,1,,,,,,,,,0,,,89,0
145680,note_on,0,0,1,,,,,,,,,0,,,89,61
145680,note_off,120,0,1,,,,,,,,,0,,,86,0
145740,set_tempo,1260,1,0,,,,,,1132075,,,,,,,
145800,set_tempo,60,1,0,,,,,,1224489,,,,,,,
145800,note_off,120,0,1,,,,,,,,,0,,,89,0
145800,note_on,0,0,1,,,,,,,,,0,,,87,60
145920,set_tempo,120,1,0,,,,,,1071428,,,,,,,
145920,note_on,0,0,4,,,,,,,,,4,,,49,56
145920,note_on,0,0,4,,,,,,,,,4,,,58,56
145920,note_off,480,0,4,,,,,,,,,4,,,51,0
145920,note_off,0,0,3,,,,,,,,,2,,,55,0
145920,note_off,0,0,3,,,,,,,,,2,,,63,0
145920,note_off,480,0,3,,,,,,,,,2,,,58,0
145920,note_on,7200,0,2,,,,,,,,,1,,,79,60
145920,note_on,0,0,1,,,,,,,,,0,,,89,60
145920,note_off,120,0,1,,,,,,,,,0,,,87,0
147120,note_on,0,0,2,,,,,,,,,1,,,80,56
147120,note_off,1200,0,2,,,,,,,,,1,,,79,0
147120,note_on,0,0,4,,,,,,,,,4,,,48,53
147120,note_on,0,0,1,,,,,,,,,0,,,87,56
147120,note_off,1200,0,4,,,,,,,,,4,,,49,0
147120,note_on,0,0,4,,,,,,,,,4,,,60,53
147120,note_off,0,0,4,,,,,,,,,4,,,58,0
147120,note_off,1200,0,1,,,,,,,,,0,,,89,0
147150,set_tempo,1230,1,0,,,,,,1111111,,,,,,,
147360,note_off,240,0,2,,,,,,,,,1,,,80,0
147360,note_on,0,0,2,,,,,,,,,1,,,68,55
147360,note_on,0,0,1,,,,,,,,,0,,,75,55
147360,note_off,240,0,1,,,,,,,,,0,,,87,0
147360,set_tempo,210,1,0,,,,,,1071428,,,,,,,
147360,note_on,0,0,4,,,,,,,,,4,,,60,52
147360,note_off,0,0,4,,,,,,,,,4,,,48,0
147360,note_on,0,0,4,,,,,,,,,4,,,48,52
147360,note_off,240,0,4,,,,,,,,,4,,,60,0
148560,note_off,1200,0,4,,,,,,,,,4,,,60,0
148560,note_on,0,0,1,,,,,,,,,0,,,73,51
148560,note_off,1200,0,1,,,,,,,,,0,,,75,0
148560,note_off,1200,0,2,,,,,,,,,1,,,68,0
148560,note_on,0,0,2,,,,,,,,,1,,,70,51
148560,note_on,0,0,4,,,,,,,,,4,,,52,49
148560,note_on,0,0,4,,,,,,,,,4,,,55,49
148560,note_off,0,0,4,,,,,,,,,4,,,48,0
148590,set_tempo,1230,1,0,,,,,,1111111,,,,,,,
148800,set_tempo,210,1,0,,,,,,1071428,,,,,,,
148800,note_on,0,0,4,,,,,,,,,4,,,52,48
148800,note_off,0,0,4,,,,,,,,,4,,,55,0
148800,note_off,240,0,4,,,,,,,,,4,,,52,0
148800,note_on,0,0,1,,,,,,,,,0,,,73,50
148800,note_on,0,0,2,,,,,,,,,1,,,70,50
148800,note_off,240,0,2,,,,,,,,,1,,,70,0
148800,note_off,240,0,1,,,,,,,,,0,,,73,0
148800,note_on,0,0,4,,,,,,,,,4,,,55,48
150000,note_off,1200,0,4,,,,,,,,,4,,,55,0
150000,note_on,0,0,1,,,,,,,,,0,,,72,46
150000,note_on,0,0,2,,,,,,,,,1,,,68,46
150000,note_off,1200,0,2,,,,,,,,,1,,,70,0
150000,note_on,0,0,4,,,,,,,,,4,,,53,45
150000,note_on,0,0,4,,,,,,,,,4,,,56,45
150000,note_off,0,0,4,,,,,,,,,4,,,52,0
150000,note_off,1200,0,1,,,,,,,,,0,,,73,0
150030,set_tempo,1230,1,0,,,,,,1111111,,,,,,,
150240,note_off,0,0,4,,,,,,,,,4,,,56,0
150240,note_off,240,0,4,,,,,,,,,4,,,53,0
150240,note_on,0,0,4,,,,,,,,,4,,,53,44
150240,note_on,0,0,4,,,,,,,,,4,,,56,44
150240,note_on,0,0,2,,,,,,,,,1,,,68,45
150240,note_off,240,0,2,,,,,,,,,1,,,68,0
150240,note_off,240,0,1,,,,,,,,,0,,,72,0
150240,note_on,0,0,1,,,,,,,,,0,,,72,45
151428,set_tempo,1398,1,0,,,,,,1276595,,,,,,,
151440,note_off,1200,0,4,,,,,,,,,4,,,56,0
151440,note_off,0,0,4,,,,,,,,,4,,,53,0
151440,note_on,0,0,4,,,,,,,,,4,,,58,41
151440,note_on,0,0,4,,,,,,,,,4,,,51,41
151440,note_on,0,0,1,,,,,,,,,0,,,75,41
151440,note_off,1200,0,1,,,,,,,,,0,,,72,0
151440,note_on,0,0,2,,,,,,,,,1,,,67,41
151440,note_off,1200,0,2,,,,,,,,,1,,,68,0
151680,note_off,0,0,4,,,,,,,,,4,,,58,0
151680,set_tempo,252,1,0,,,,,,1818181,,,,,,,
151680,note_on,0,0,1,,,,,,,,,0,,,75,41
151680,note_off,240,0,1,,,,,,,,,0,,,75,0
151680,note_on,0,0,2,,,,,,,,,1,,,67,41
151680,note_off,240,0,2,,,,,,,,,1,,,67,0
151680,note_on,0,0,4,,,,,,,,,4,,,51,40
151680,note_on,0,0,4,,,,,,,,,4,,,58,40
151680,note_off,240,0,4,,,,,,,,,4,,,51,0
152640,note_on,0,0,1,,,,,,,,,0,,,68,45
152640,note_off,960,0,1,,,,,,,,,0,,,75,0
152640,note_off,960,0,2,,,,,,,,,1,,,67,0
152640,note_off,960,0,4,,,,,,,,,4,,,51,0
152640,note_off,0,0,4,,,,,,,,,4,,,58,0
152640,note_on,0,0,4,,,,,,,,,4,,,60,45
152640,note_on,0,0,4,,,,,,,,,4,,,56,45
152640,set_tempo,960,1,0,,,,,,1071428,,,,,,,
152700,note_off,60,0,1,,,,,,,,,0,,,68,0
152700,note_on,60,0,2,,,,,,,,,1,,,75,41
152760,note_on,0,0,2,,,,,,,,,1,,,72,41
152760,note_off,60,0,2,,,,,,,,,1,,,75,0
152820,note_on,0,0,2,,,,,,,,,1,,,75,41
152820,note_off,60,0,2,,,,,,,,,1,,,72,0
152880,note_off,60,0,2,,,,,,,,,1,,,75,0
152880,note_on,180,0,1,,,,,,,,,0,,,80,49
152880,note_off,0,0,4,,,,,,,,,4,,,60,0
152880,note_off,240,0,4,,,,,,,,,4,,,56,0
152940,note_off,60,0,1,,,,,,,,,0,,,80,0
152940,note_on,60,0,2,,,,,,,,,1,,,75,41
153000,note_on,0,0,2,,,,,,,,,1,,,72,41
153000,note_off,60,0,2,,,,,,,,,1,,,75,0
153060,note_on,0,0,2,,,,,,,,,1,,,75,41
153060,note_off,60,0,2,,,,,,,,,1,,,72,0
153120,note_off,60,0,2,,,,,,,,,1,,,75,0
153120,note_on,180,0,1,,,,,,,,,0,,,68,47
153180,note_off,60,0,1,,,,,,,,,0,,,68,0
153180,note_on,60,0,2,,,,,,,,,1,,,63,41
153240,note_off,60,0,2,,,,,,,,,1,,,63,0
153240,note_on,0,0,2,,,,,,,,,1,,,60,41
153300,note_off,60,0,2,,,,,,,,,1,,,60,0
153300,note_on,0,0,2,,,,,,,,,1,,,63,41
153360,note_on,180,0,1,,,,,,,,,0,,,56,46
153360,note_off,60,0,2,,,,,,,,,1,,,63,0
153420,note_on,60,0,2,,,,,,,,,1,,,51,40
153420,note_off,60,0,1,,,,,,,,,0,,,56,0
153480,note_off,60,0,2,,,,,,,,,1,,,51,0
153480,note_on,0,0,2,,,,,,,,,1,,,48,40
153540,note_off,60,0,2,,,,,,,,,1,,,48,0
153540,note_on,0,0,2,,,,,,,,,1,,,51,40
153600,note_on,180,0,1,,,,,,,,,0,,,44,44
153600,note_off,60,0,2,,,,,,,,,1,,,51,0
153660,note_off,60,0,1,,,,,,,,,0,,,44,0
153660,note_on,60,0,2,,,,,,,,,1,,,39,40
153720,note_off,60,0,2,,,,,,,,,1,,,39,0
153720,note_on,0,0,2,,,,,,,,,1,,,36,40
153780,note_on,0,0,2,,,,,,,,,1,,,39,40
153780,note_off,60,0,2,,,,,,,,,1,,,36,0
153840,note_on,180,0,1,,,,,,,,,0,,,32,42
153840,note_off,60,0,2,,,,,,,,,1,,,39,0
153900,note_off,60,0,1,,,,,,,,,0,,,32,0
153900,note_on,60,0,2,,,,,,,,,1,,,36,40
153960,set_tempo,1320,1,0,,,,,,1111111,,,,,,,
153960,note_off,60,0,2,,,,,,,,,1,,,36,0
153960,note_on,0,0,2,,,,,,,,,1,,,39,40
154020,note_off,60,0,2,,,,,,,,,1,,,39,0
154020,note_on,0,0,2,,,,,,,,,1,,,44,40
154080,note_on,1200,0,4,,,,,,,,,4,,,34,43
154080,note_on,0,0,4,,,,,,,,,4,,,46,43
154080,note_on,180,0,1,,,,,,,,,0,,,43,43
154080,note_off,60,0,2,,,,,,,,,1,,,44,0
154080,note_on,8160,0,3,,,,,,,,,2,,,39,43
154080,set_tempo,120,1,0,,,,,,1071428,,,,,,,
154140,note_on,60,0,2,,,,,,,,,1,,,51,39
154140,note_off,60,0,1,,,,,,,,,0,,,43,0
154200,note_off,60,0,2,,,,,,,,,1,,,51,0
154200,note_on,0,0,2,,,,,,,,,1,,,49,39
154260,note_off,60,0,2,,,,,,,,,1,,,49,0
154260,note_on,0,0,2,,,,,,,,,1,,,51,39
154320,note_off,0,0,4,,,,,,,,,4,,,34,0
154320,note_on,180,0,1,,,,,,,,,0,,,55,42
154320,note_off,60,0,2,,,,,,,,,1,,,51,0
154320,note_off,240,0,4,,,,,,,,,4,,,46,0
154320,note_off,240,0,3,,,,,,,,,2,,,39,0
154380,note_off,60,0,1,,,,,,,,,0,,,55,0
154380,note_on,60,0,2,,,,,,,,,1,,,51,39
154440,note_on,0,0,2,,,,,,,,,1,,,49,39
154440,note_off,60,0,2,,,,,,,,,1,,,51,0
154500,note_on,0,0,2,,,,,,,,,1,,,51,39
154500,note_off,60,0,2,,,,,,,,,1,,,49,0
154560,note_on,0,0,4,,,,,,,,,4,,,34,43
154560,note_on,180,0,1,,,,,,,,,0,,,55,42
154560,note_on,240,0,3,,,,,,,,,2,,,39,43
154560,note_on,240,0,4,,,,,,,,,4,,,46,43
154560,note_off,60,0,2,,,,,,,,,1,,,51,0
154620,note_off,60,0,1,,,,,,,,,0,,,55,0
154620,note_on,60,0,2,,,,,,,,,1,,,63,39
154680,note_on,0,0,2,,,,,,,,,1,,,61,39
154680,note_off,60,0,2,,,,,,,,,1,,,63,0
154740,note_on,0,0,2,,,,,,,,,1,,,63,39
154740,note_off,60,0,2,,,,,,,,,1,,,61,0
154800,note_on,180,0,1,,,,,,,,,0,,,67,42
154800,note_off,240,0,4,,,,,,,,,4,,,34,0
154800,note_off,0,0,4,,,,,,,,,4,,,46,0
154800,note_off,60,0,2,,,,,,,,,1,,,63,0
154800,note_off,240,0,3,,,,,,,,,2,,,39,0
154860,note_on,60,0,2,,,,,,,,,1,,,63,38
154860,note_off,60,0,1,,,,,,,,,0,,,67,0
154920,note_on,0,0,2,,,,,,,,,1,,,61,38
154920,note_off,60,0,2,,,,,,,,,1,,,63,0
154980,note_off,60,0,2,,,,,,,,,1,,,61,0
154980,note_on,0,0,2,,,,,,,,,1,,,63,38
155040,note_on,0,0,4,,,,,,,,,4,,,34,42
155040,note_on,240,0,3,,,,,,,,,2,,,39,42
155040,note_on,180,0,1,,,,,,,,,0,,,67,42
155040,note_on,240,0,4,,,,,,,,,4,,,46,42
155040,note_off,60,0,2,,,,,,,,,1,,,63,0
155100,note_off,60,0,1,,,,,,,,,0,,,67,0
155100,note_on,60,0,2,,,,,,,,,1,,,75,38
155160,note_on,0,0,2,,,,,,,,,1,,,73,38
155160,note_off,60,0,2,,,,,,,,,1,,,75,0
155220,note_on,0,0,2,,,,,,,,,1,,,75,38
155220,note_off,60,0,2,,,,,,,,,1,,,73,0
155280,note_off,240,0,4,,,,,,,,,4,,,34,0
155280,note_off,0,0,4,,,,,,,,,4,,,46,0
155280,note_off,240,0,3,,,,,,,,,2,,,39,0
155280,note_on,180,0,1,,,,,,,,,0,,,79,42
155280,note_off,60,0,2,,,,,,,,,1,,,75,0
155340,note_on,60,0,2,,,,,,,,,1,,,75,38
155340,note_off,60,0,1,,,,,,,,,0,,,79,0
155400,set_tempo,1320,1,0,,,,,,1111111,,,,,,,
155400,note_off,60,0,2,,,,,,,,,1,,,75,0
155400,note_on,0,0,2,,,,,,,,,1,,,73,38
155460,note_on,0,0,2,,,,,,,,,1,,,75,38
155460,note_off,60,0,2,,,,,,,,,1,,,73,0
155520,set_tempo,120,1,0,,,,,,1071428,,,,,,,
155520,note_on,240,0,4,,,,,,,,,4,,,48,42
155520,note_on,0,0,4,,,,,,,,,4,,,36,42
155520,note_on,240,0,3,,,,,,,,,2,,,39,42
155520,note_on,180,0,1,,,,,,,,,0,,,80,42
155520,note_off,60,0,2,,,,,,,,,1,,,75,0
155580,note_off,60,0,1,,,,,,,,,0,,,80,0
155580,note_on,60,0,2,,,,,,,,,1,,,87,37
155640,note_off,60,0,2,,,,,,,,,1,,,87,0
155640,note_on,0,0,2,,,,,,,,,1,,,84,37
155700,note_on,0,0,2,,,,,,,,,1,,,87,37
155700,note_off,60,0,2,,,,,,,,,1,,,84,0
155760,note_off,240,0,3,,,,,,,,,2,,,39,0
155760,note_off,60,0,2,,,,,,,,,1,,,87,0
155760,note_on,180,0,1,,,,,,,,,0,,,92,45
155760,note_off,240,0,4,,,,,,,,,4,,,36,0
155760,note_off,0,0,4,,,,,,,,,4,,,48,0
155820,note_off,60,0,1,,,,,,,,,0,,,92,0
155820,note_on,60,0,2,,,,,,,,,1,,,87,37
155880,note_off,60,0,2,,,,,,,,,1,,,87,0
155880,note_on,0,0,2,,,,,,,,,1,,,84,37
155940,note_on,0,0,2,,,,,,,,,1,,,87,37
155940,note_off,60,0,2,,,,,,,,,1,,,84,0
156000,note_off,60,0,2,,,,,,,,,1,,,87,0
156000,note_on,180,0,1,,,,,,,,,0,,,80,43
156060,note_off,60,0,1,,,,,,,,,0,,,80,0
156060,note_on,60,0,2,,,,,,,,,1,,,75,37
156120,note_off,60,0,2,,,,,,,,,1,,,75,0
156120,note_on,0,0,2,,,,,,,,,1,,,72,37
156180,note_off,60,0,2,,,,,,,,,1,,,72,0
156180,note_on,0,0,2,,,,,,,,,1,,,75,37
156240,note_on,180,0,1,,,,,,,,,0,,,68,42
156240,note_off,60,0,2,,,,,,,,,1,,,75,0
156300,note_off,60,0,1,,,,,,,,,0,,,68,0
156300,note_on,60,0,2,,,,,,,,,1,,,63,36
156360,note_on,0,0,2,,,,,,,,,1,,,60,36
156360,note_off,60,0,2,,,,,,,,,1,,,63,0
156420,note_on,0,0,2,,,,,,,,,1,,,63,36
156420,note_off,60,0,2,,,,,,,,,1,,,60,0
156480,note_off,60,0,2,,,,,,,,,1,,,63,0
156480,note_on,180,0,1,,,,,,,,,0,,,56,40
156540,note_on,60,0,2,,,,,,,,,1,,,51,36
156540,note_off,60,0,1,,,,,,,,,0,,,56,0
156600,note_on,0,0,2,,,,,,,,,1,,,48,36
156600,note_off,60,0,2,,,,,,,,,1,,,51,0
156660,note_on,0,0,2,,,,,,,,,1,,,51,36
156660,note_off,60,0,2,,,,,,,,,1,,,48,0
156720,note_on,180,0,1,,,,,,,,,0,,,44,39
156720,note_off,60,0,2,,,,,,,,,1,,,51,0
156780,note_on,60,0,2,,,,,,,,,1,,,51,36
156780,note_off,60,0,1,,,,,,,,,0,,,44,0
156840,note_off,60,0,2,,,,,,,,,1,,,51,0
156840,note_on,0,0,2,,,,,,,,,1,,,48,36
156840,set_tempo,1320,1,0,,,,,,1111111,,,,,,,
156900,note_off,60,0,2,,,,,,,,,1,,,48,0
156900,note_on,0,0,2,,,,,,,,,1,,,51,36
156960,note_on,1200,0,3,,,,,,,,,2,,,39,40
156960,note_on,0,0,4,,,,,,,,,4,,,43,40
156960,note_on,1200,0,4,,,,,,,,,4,,,31,40
156960,note_off,60,0,2,,,,,,,,,1,,,51,0
156960,set_tempo,120,1,0,,,,,,1071428,,,,,,,
156960,note_on,180,0,1,,,,,,,,,0,,,46,38
157020,note_on,60,0,2,,,,,,,,,1,,,51,36
157020,note_off,60,0,1,,,,,,,,,0,,,46,0
157080,note_off,60,0,2,,,,,,,,,1,,,51,0
157080,note_on,0,0,2,,,,,,,,,1,,,49,36
157140,note_off,60,0,2,,,,,,,,,1,,,49,0
157140,note_on,0,0,2,,,,,,,,,1,,,51,36
157200,note_off,240,0,3,,,,,,,,,2,,,39,0
157200,note_off,60,0,2,,,,,,,,,1,,,51,0
157200,note_off,0,0,4,,,,,,,,,4,,,31,0
157200,note_off,240,0,4,,,,,,,,,4,,,43,0
157200,note_on,180,0,1,,,,,,,,,0,,,58,39
157260,note_off,60,0,1,,,,,,,,,0,,,58,0
157260,note_on,60,0,2,,,,,,,,,1,,,51,37
157320,note_on,0,0,2,,,,,,,,,1,,,49,37
157320,note_off,60,0,2,,,,,,,,,1,,,51,0
157380,note_on,0,0,2,,,,,,,,,1,,,51,38
157380,note_off,60,0,2,,,,,,,,,1,,,49,0
157440,note_on,180,0,1,,,,,,,,,0,,,58,40
157440,note_on,240,0,4,,,,,,,,,4,,,55,41
157440,note_on,0,0,4,,,,,,,,,4,,,43,41
157440,note_on,240,0,3,,,,,,,,,2,,,51,41
157440,note_off,60,0,2,,,,,,,,,1,,,51,0
157500,note_off,60,0,1,,,,,,,,,0,,,58,0
157500,note_on,60,0,2,,,,,,,,,1,,,63,38
157560,note_off,60,0,2,,,,,,,,,1,,,63,0
157560,note_on,0,0,2,,,,,,,,,1,,,61,38
157620,note_on,0,0,2,,,,,,,,,1,,,63,39
157620,note_off,60,0,2,,,,,,,,,1,,,61,0
157680,note_off,240,0,4,,,,,,,,,4,,,43,0
157680,note_off,60,0,2,,,,,,,,,1,,,63,0
157680,note_off,240,0,3,,,,,,,,,2,,,51,0
157680,note_off,0,0,4,,,,,,,,,4,,,55,0
157680,note_on,180,0,1,,,,,,,,,0,,,70,41
157740,note_on,60,0,2,,,,,,,,,1,,,63,39
157740,note_off,60,0,1,,,,,,,,,0,,,70,0
157800,note_off,60,0,2,,,,,,,,,1,,,63,0
157800,note_on,0,0,2,,,,,,,,,1,,,61,39
157860,note_on,0,0,2,,,,,,,,,1,,,63,40
157860,note_off,60,0,2,,,,,,,,,1,,,61,0
157920,note_on,240,0,3,,,,,,,,,2,,,51,43
157920,note_on,0,0,4,,,,,,,,,4,,,43,43
157920,note_off,60,0,2,,,,,,,,,1,,,63,0
157920,note_on,180,0,1,,,,,,,,,0,,,70,42
157920,note_on,240,0,4,,,,,,,,,4,,,55,43
157980,note_on,60,0,2,,,,,,,,,1,,,75,40
157980,note_off,60,0,1,,,,,,,,,0,,,70,0
158040,note_off,60,0,2,,,,,,,,,1,,,75,0
158040,note_on,0,0,2,,,,,,,,,1,,,73,40
158100,note_off,60,0,2,,,,,,,,,1,,,73,0
158100,note_on,0,0,2,,,,,,,,,1,,,75,41
158160,note_off,60,0,2,,,,,,,,,1,,,75,0
158160,note_off,240,0,3,,,,,,,,,2,,,51,0
158160,note_off,0,0,4,,,,,,,,,4,,,55,0
158160,note_off,240,0,4,,,,,,,,,4,,,43,0
158160,note_on,180,0,1,,,,,,,,,0,,,82,43
158220,note_off,60,0,1,,,,,,,,,0,,,82,0
158220,note_on,60,0,2,,,,,,,,,1,,,75,41
158280,note_off,60,0,2,,,,,,,,,1,,,75,0
158280,note_on,0,0,2,,,,,,,,,1,,,73,41
158280,set_tempo,1320,1,0,,,,,,1111111,,,,,,,
158340,note_on,0,0,2,,,,,,,,,1,,,75,42
158340,note_off,60,0,2,,,,,,,,,1,,,73,0
158400,note_on,180,0,1,,,,,,,,,0,,,72,44
158400,set_tempo,120,1,0,,,,,,1071428,,,,,,,
158400,note_on,240,0,3,,,,,,,,,2,,,51,45
158400,note_on,240,0,4,,,,,,,,,4,,,56,45
158400,note_on,0,0,4,,,,,,,,,4,,,44,45
158400,note_off,60,0,2,,,,,,,,,1,,,75,0
158460,note_off,60,0,1,,,,,,,,,0,,,72,0
158460,note_on,60,0,2,,,,,,,,,1,,,75,42
158520,note_on,0,0,2,,,,,,,,,1,,,72,43
158520,note_off,60,0,2,,,,,,,,,1,,,75,0
158580,note_on,0,0,2,,,,,,,,,1,,,75,43
158580,note_off,60,0,2,,,,,,,,,1,,,72,0
158640,note_off,60,0,2,,,,,,,,,1,,,75,0
158640,note_off,0,0,4,,,,,,,,,4,,,56,0
158640,note_off,240,0,3,,,,,,,,,2,,,51,0
158640,note_on,180,0,1,,,,,,,,,0,,,84,45
158640,note_off,240,0,4,,,,,,,,,4,,,44,0
158700,note_off,60,0,1,,,,,,,,,0,,,84,0
158700,note_on,60,0,2,,,,,,,,,1,,,75,43
158760,note_on,0,0,2,,,,,,,,,1,,,72,44
158760,note_off,60,0,2,,,,,,,,,1,,,75,0
158820,note_on,0,0,2,,,,,,,,,1,,,75,44
158820,note_off,60,0,2,,,,,,,,,1,,,72,0
158880,note_on,180,0,1,,,,,,,,,0,,,73,46
158880,note_on,240,0,3,,,,,,,,,2,,,56,46
158880,note_on,240,0,4,,,,,,,,,4,,,53,46
158880,note_off,60,0,2,,,,,,,,,1,,,75,0
158880,note_on,0,0,4,,,,,,,,,4,,,65,46
158940,note_on,60,0,2,,,,,,,,,1,,,80,44
158940,note_off,60,0,1,,,,,,,,,0,,,73,0
159000,note_off,60,0,2,,,,,,,,,1,,,80,0
159000,note_on,0,0,2,,,,,,,,,1,,,73,45
159060,note_off,60,0,2,,,,,,,,,1,,,73,0
159060,note_on,0,0,2,,,,,,,,,1,,,80,45
159120,note_off,60,0,2,,,,,,,,,1,,,80,0
159120,note_off,240,0,3,,,,,,,,,2,,,56,0
159120,note_on,180,0,1,,,,,,,,,0,,,85,48
159120,note_off,0,0,4,,,,,,,,,4,,,53,0
159120,note_off,240,0,4,,,,,,,,,4,,,65,0
159180,note_on,60,0,2,,,,,,,,,1,,,80,45
159180,note_off,60,0,1,,,,,,,,,0,,,85,0
159240,note_off,60,0,2,,,,,,,,,1,,,80,0
159240,note_on,0,0,2,,,,,,,,,1,,,77,46
159300,note_on,0,0,2,,,,,,,,,1,,,80,46
159300,note_off,60,0,2,,,,,,,,,1,,,77,0
159360,note_on,180,0,1,,,,,,,,,0,,,75,49
159360,note_off,60,0,2,,,,,,,,,1,,,80,0
159360,note_on,0,0,4,,,,,,,,,4,,,48,48
159360,note_on,240,0,4,,,,,,,,,4,,,60,48
159360,note_on,240,0,3,,,,,,,,,2,,,56,48
159420,note_on,60,0,2,,,,,,,,,1,,,87,46
159420,note_off,60,0,1,,,,,,,,,0,,,75,0
159480,note_on,0,0,2,,,,,,,,,1,,,80,47
159480,note_off,60,0,2,,,,,,,,,1,,,87,0
159540,note_off,60,0,2,,,,,,,,,1,,,80,0
159540,note_on,0,0,2,,,,,,,,,1,,,87,47
159600,note_off,60,0,2,,,,,,,,,1,,,87,0
159600,note_off,240,0,3,,,,,,,,,2,,,56,0
159600,note_on,180,0,1,,,,,,,,,0,,,76,50
159600,note_on,0,0,3,,,,,,,,,2,,,56,48
159600,note_on,0,0,4,,,,,,,,,4,,,48,48
159600,note_off,240,0,4,,,,,,,,,4,,,48,0
159600,note_off,0,0,4,,,,,,,,,4,,,60,0
159600,note_on,0,0,4,,,,,,,,,4,,,60,48
159660,note_off,60,0,1,,,,,,,,,0,,,76,0
159660,note_on,60,0,2,,,,,,,,,1,,,88,48
159720,note_off,60,0,2,,,,,,,,,1,,,88,0
159720,set_tempo,1320,1,0,,,,,,1111111,,,,,,,
159720,note_on,0,0,2,,,,,,,,,1,,,80,48
159780,note_on,0,0,2,,,,,,,,,1,,,88,48
159780,note_off,60,0,2,,,,,,,,,1,,,80,0
159840,note_on,180,0,1,,,,,,,,,0,,,77,51
159840,set_tempo,120,1,0,,,,,,1071428,,,,,,,
159840,note_off,0,0,4,,,,,,,,,4,,,60,0
159840,note_off,60,0,2,,,,,,,,,1,,,88,0
159840,note_on,0,0,4,,,,,,,,,4,,,61,49
159840,note_on,0,0,4,,,,,,,,,4,,,49,49
159840,note_off,240,0,4,,,,,,,,,4,,,48,0
159840,note_off,240,0,3,,,,,,,,,2,,,56,0
159840,note_on,0,0,3,,,,,,,,,2,,,56,49
159900,note_on,60,0,2,,,,,,,,,1,,,89,49
159900,note_off,60,0,1,,,,,,,,,0,,,77,0
159960,note_off,60,0,2,,,,,,,,,1,,,89,0
159960,note_on,0,0,2,,,,,,,,,1,,,77,49
160020,note_on,0,0,2,,,,,,,,,1,,,80,49
160020,note_off,60,0,2,,,,,,,,,1,,,77,0
160080,note_off,60,0,2,,,,,,,,,1,,,80,0
160080,note_off,0,0,4,,,,,,,,,4,,,61,0
160080,note_off,240,0,3,,,,,,,,,2,,,56,0
160080,note_off,240,0,4,,,,,,,,,4,,,49,0
160080,note_on,180,0,1,,,,,,,,,0,,,89,52
160140,note_on,60,0,2,,,,,,,,,1,,,85,50
160140,note_off,60,0,1,,,,,,,,,0,,,89,0
160200,note_off,60,0,2,,,,,,,,,1,,,85,0
160200,note_on,0,0,2,,,,,,,,,1,,,80,50
160260,note_off,60,0,2,,,,,,,,,1,,,80,0
160260,note_on,0,0,2,,,,,,,,,1,,,85,50
160320,note_on,180,0,1,,,,,,,,,0,,,79,53
160320,note_on,240,0,3,,,,,,,,,2,,,51,51
160320,note_off,60,0,2,,,,,,,,,1,,,85,0
160320,note_on,0,0,4,,,,,,,,,4,,,58,51
160320,note_on,240,0,4,,,,,,,,,4,,,46,51
160380,note_on,60,0,2,,,,,,,,,1,,,87,51
160380,note_off,60,0,1,,,,,,,,,0,,,79,0
160440,note_on,0,0,2,,,,,,,,,1,,,85,51
160440,note_off,60,0,2,,,,,,,,,1,,,87,0
160500,note_off,60,0,2,,,,,,,,,1,,,85,0
160500,note_on,0,0,2,,,,,,,,,1,,,87,51
160560,note_off,60,0,2,,,,,,,,,1,,,87,0
160560,note_off,240,0,3,,,,,,,,,2,,,51,0
160560,note_off,0,0,4,,,,,,,,,4,,,46,0
160560,note_off,240,0,4,,,,,,,,,4,,,58,0
160560,note_on,180,0,1,,,,,,,,,0,,,91,54
160620,note_on,60,0,2,,,,,,,,,1,,,87,52
160620,note_off,60,0,1,,,,,,,,,0,,,91,0
160680,note_on,0,0,2,,,,,,,,,1,,,85,52
160680,note_off,60,0,2,,,,,,,,,1,,,87,0
160740,note_on,0,0,2,,,,,,,,,1,,,87,52
160740,note_off,60,0,2,,,,,,,,,1,,,85,0
160800,note_off,60,0,2,,,,,,,,,1,,,87,0
160800,note_on,180,0,1,,,,,,,,,0,,,79,55
160800,note_on,0,0,4,,,,,,,,,4,,,48,52
160800,note_on,240,0,4,,,,,,,,,4,,,60,52
160800,note_on,240,0,3,,,,,,,,,2,,,51,52
160860,note_off,60,0,1,,,,,,,,,0,,,79,0
160860,note_on,60,0,2,,,,,,,,,1,,,91,53
160920,note_off,60,0,2,,,,,,,,,1,,,91,0
160920,note_on,0,0,2,,,,,,,,,1,,,87,53
160980,note_off,60,0,2,,,,,,,,,1,,,87,0
160980,note_on,0,0,2,,,,,,,,,1,,,91,53
161040,note_on,0,0,4,,,,,,,,,4,,,60,53
161040,note_off,240,0,3,,,,,,,,,2,,,51,0
161040,note_off,240,0,4,,,,,,,,,4,,,48,0
161040,note_off,0,0,4,,,,,,,,,4,,,60,0
161040,note_on,0,0,4,,,,,,,,,4,,,48,53
161040,note_on,180,0,1,,,,,,,,,0,,,80,56
161040,note_off,60,0,2,,,,,,,,,1,,,91,0
161040,note_on,0,0,3,,,,,,,,,2,,,51,53
161100,note_on,60,0,2,,,,,,,,,1,,,92,54
161100,note_off,60,0,1,,,,,,,,,0,,,80,0
161160,note_off,60,0,2,,,,,,,,,1,,,92,0
161160,note_on,0,0,2,,,,,,,,,1,,,84,54
161160,set_tempo,1320,1,0,,,,,,1111111,,,,,,,
161210,set_tempo,50,1,0,,,,,,1176470,,,,,,,
161220,note_off,60,0,2,,,,,,,,,1,,,84,0
161220,note_on,0,0,2,,,,,,,,,1,,,92,54
161280,note_on,0,0,3,,,,,,,,,2,,,57,51
161280,note_off,240,0,3,,,,,,,,,2,,,51,0
161280,note_on,180,0,1,,,,,,,,,0,,,77,53
161280,note_off,240,0,4,,,,,,,,,4,,,48,0
161280,note_off,0,0,4,,,,,,,,,4,,,60,0
161280,note_on,0,0,4,,,,,,,,,4,,,49,51
161280,note_off,60,0,2,,,,,,,,,1,,,92,0
161520,note_on,0,0,3,,,,,,,,,2,,,58,50
161520,note_off,240,0,3,,,,,,,,,2,,,57,0
161760,note_off,240,0,3,,,,,,,,,2,,,58,0
161760,note_on,0,0,3,,,,,,,,,2,,,59,48
161880,note_on,600,0,1,,,,,,,,,0,,,70,49
161885,note_off,5,0,1,,,,,,,,,0,,,77,0
162000,note_off,240,0,3,,,,,,,,,2,,,59,0
162000,note_on,0,0,1,,,,,,,,,0,,,72,49
162000,note_off,115,0,1,,,,,,,,,0,,,70,0
162000,note_on,0,0,3,,,,,,,,,2,,,60,47
162120,note_off,120,0,1,,,,,,,,,0,,,72,0
162120,note_on,0,0,1,,,,,,,,,0,,,73,48
162120,note_on,0,0,3,,,,,,,,,2,,,61,46
162120,note_off,120,0,3,,,,,,,,,2,,,60,0
162240,note_on,0,0,3,,,,,,,,,2,,,55,45
162240,note_on,0,0,3,,,,,,,,,2,,,58,45
162240,note_off,120,0,3,,,,,,,,,2,,,61,0
162240,note_off,120,0,1,,,,,,,,,0,,,73,0
162240,note_on,0,0,1,,,,,,,,,0,,,67,47
162240,note_on,0,0,4,,,,,,,,,4,,,51,45
162240,note_off,960,0,4,,,,,,,,,4,,,49,0
162480,note_on,0,0,1,,,,,,,,,0,,,75,45
162480,note_off,240,0,1,,,,,,,,,0,,,67,0
162600,set_tempo,1390,1,0,,,,,,1224489,,,,,,,
162720,note_off,480,0,4,,,,,,,,,4,,,51,0
162720,note_on,0,0,4,,,,,,,,,4,,,60,42
162720,note_on,0,0,4,,,,,,,,,4,,,63,42
162720,note_off,0,0,3,,,,,,,,,2,,,58,0
162720,set_tempo,120,1,0,,,,,,1176470,,,,,,,
162720,note_off,480,0,3,,,,,,,,,2,,,55,0
162840,note_on,0,0,1,,,,,,,,,0,,,73,45
162840,note_off,360,0,1,,,,,,,,,0,,,75,0
162960,note_off,120,0,1,,,,,,,,,0,,,73,0
162960,note_on,0,0,1,,,,,,,,,0,,,72,46
163080,note_on,0,0,1,,,,,,,,,0,,,84,47
163080,note_off,120,0,1,,,,,,,,,0,,,72,0
163200,note_off,120,0,1,,,,,,,,,0,,,84,0
163200,note_on,0,0,1,,,,,,,,,0,,,82,48
163320,note_off,120,0,1,,,,,,,,,0,,,82,0
163320,note_on,0,0,1,,,,,,,,,0,,,79,49
163440,note_off,720,0,4,,,,,,,,,4,,,63,0
163440,note_off,0,0,4,,,,,,,,,4,,,60,0
163440,note_on,0,0,4,,,,,,,,,4,,,60,51
163440,note_on,0,0,4,,,,,,,,,4,,,56,51
163440,note_off,120,0,1,,,,,,,,,0,,,79,0
163440,note_on,0,0,1,,,,,,,,,0,,,82,49
163560,note_on,0,0,1,,,,,,,,,0,,,80,50
163560,note_off,120,0,1,,,,,,,,,0,,,82,0
163680,note_off,240,0,4,,,,,,,,,4,,,60,0
163680,note_on,0,0,1,,,,,,,,,0,,,84,51
163680,note_off,120,0,1,,,,,,,,,0,,,80,0
163680,note_on,0,0,4,,,,,,,,,4,,,56,53
163680,note_off,0,0,4,,,,,,,,,4,,,56,0
163680,note_on,0,0,4,,,,,,,,,4,,,60,53
163800,note_on,0,0,1,,,,,,,,,0,,,80,52
163800,note_off,120,0,1,,,,,,,,,0,,,84,0
163920,note_on,0,0,1,,,,,,,,,0,,,75,53
163920,note_off,120,0,1,,,,,,,,,0,,,80,0
164040,note_off,360,0,4,,,,,,,,,4,,,56,0
164040,note_on,0,0,1,,,,,,,,,0,,,76,54
164040,note_off,120,0,1,,,,,,,,,0,,,75,0
164040,note_off,0,0,4,,,,,,,,,4,,,60,0
164040,note_on,0,0,4,,,,,,,,,4,,,56,54
164040,note_on,0,0,4,,,,,,,,,4,,,60,54
164040,set_tempo,1320,1,0,,,,,,1224489,,,,,,,
164160,note_on,120,0,4,,,,,,,,,4,,,49,57
164160,set_tempo,120,1,0,,,,,,1176470,,,,,,,
164160,note_on,0,0,1,,,,,,,,,0,,,77,57
164160,note_off,120,0,1,,,,,,,,,0,,,76,0
164280,note_on,0,0,4,,,,,,,,,4,,,57,56
164280,note_off,0,0,4,,,,,,,,,4,,,56,0
164280,note_off,120,0,4,,,,,,,,,4,,,60,0
164400,note_on,0,0,4,,,,,,,,,4,,,58,56
164400,note_off,120,0,4,,,,,,,,,4,,,57,0
164520,note_off,120,0,4,,,,,,,,,4,,,58,0
164520,note_on,0,0,4,,,,,,,,,4,,,60,55
164640,note_off,120,0,4,,,,,,,,,4,,,60,0
164640,note_on,0,0,4,,,,,,,,,4,,,61,54
164760,note_on,600,0,1,,,,,,,,,0,,,70,51
164760,note_on,0,0,4,,,,,,,,,4,,,49,53
164760,note_off,0,0,4,,,,,,,,,4,,,49,0
164760,note_off,120,0,4,,,,,,,,,4,,,61,0
164770,note_off,10,0,1,,,,,,,,,0,,,77,0
164880,note_on,0,0,4,,,,,,,,,4,,,51,52
164880,note_off,110,0,1,,,,,,,,,0,,,70,0
164880,note_on,0,0,1,,,,,,,,,0,,,72,50
164880,note_off,120,0,4,,,,,,,,,4,,,49,0
165000,note_off,120,0,4,,,,,,,,,4,,,51,0
165000,note_on,0,0,4,,,,,,,,,4,,,53,51
165000,note_off,120,0,1,,,,,,,,,0,,,72,0
165000,note_on,0,0,1,,,,,,,,,0,,,73,49
165120,note_off,120,0,4,,,,,,,,,4,,,53,0
165120,note_off,120,0,1,,,,,,,,,0,,,73,0
165120,note_on,0,0,1,,,,,,,,,0,,,67,48
165120,note_on,0,0,4,,,,,,,,,4,,,51,50
165240,note_off,120,0,4,,,,,,,,,4,,,51,0
165240,note_on,0,0,4,,,,,,,,,4,,,39,49
165360,note_off,120,0,4,,,,,,,,,4,,,39,0
165360,note_on,0,0,4,,,,,,,,,4,,,41,49
165360,note_off,240,0,1,,,,,,,,,0,,,67,0
165360,note_on,0,0,1,,,,,,,,,0,,,75,46
165480,set_tempo,1320,1,0,,,,,,1224489,,,,,,,
165480,note_off,120,0,4,,,,,,,,,4,,,41,0
165480,note_on,0,0,4,,,,,,,,,4,,,43,48
165600,note_on,0,0,1,,,,,,,,,0,,,72,48
165600,note_off,240,0,1,,,,,,,,,0,,,75,0
165600,note_off,120,0,4,,,,,,,,,4,,,43,0
165600,note_on,0,0,4,,,,,,,,,4,,,32,46
165600,note_on,0,0,4,,,,,,,,,4,,,44,46
165600,note_on,4320,0,2,,,,,,,,,1,,,68,46
165600,note_on,0,0,2,,,,,,,,,1,,,63,46
165950,set_tempo,470,1,0,,,,,,1276595,,,,,,,
166080,note_off,480,0,1,,,,,,,,,0,,,72,0
166080,note_on,0,0,2,,,,,,,,,1,,,68,49
166080,note_off,0,0,2,,,,,,,,,1,,,68,0
166080,note_off,480,0,2,,,,,,,,,1,,,63,0
166080,note_on,0,0,4,,,,,,,,,4,,,41,49
166080,note_off,480,0,4,,,,,,,,,4,,,44,0
166080,note_on,0,0,1,,,,,,,,,0,,,73,50
166320,note_on,0,0,2,,,,,,,,,1,,,65,51
166320,note_off,240,0,2,,,,,,,,,1,,,68,0
166320,note_off,240,0,4,,,,,,,,,4,,,41,0
166320,note_on,0,0,4,,,,,,,,,4,,,37,49
166560,note_on,0,0,4,,,,,,,,,4,,,43,51
166560,note_on,0,0,4,,,,,,,,,4,,,32,51
166560,note_off,240,0,2,,,,,,,,,1,,,65,0
166560,note_on,0,0,2,,,,,,,,,1,,,70,52
166560,note_off,240,0,4,,,,,,,,,4,,,37,0
166560,note_off,0,0,4,,,,,,,,,4,,,32,0
166790,set_tempo,840,1,0,,,,,,1500000,,,,,,,
166800,note_off,240,0,4,,,,,,,,,4,,,32,0
166800,note_off,240,0,2,,,,,,,,,1,,,70,0
166800,note_on,0,0,2,,,,,,,,,1,,,64,54
166800,note_off,0,0,4,,,,,,,,,4,,,43,0
166800,note_on,0,0,4,,,,,,,,,4,,,46,53
166800,note_off,720,0,1,,,,,,,,,0,,,73,0
166800,note_on,0,0,1,,,,,,,,,0,,,73,55
166800,note_on,0,0,2,,,,,,,,,1,,,67,54
166800,note_on,0,0,4,,,,,,,,,4,,,32,53
167040,note_off,240,0,1,,,,,,,,,0,,,73,0
167040,note_on,0,0,1,,,,,,,,,0,,,73,58
167040,note_off,0,0,2,,,,,,,,,1,,,64,0
167040,note_on,0,0,4,,,,,,,,,4,,,46,55
167040,note_on,0,0,4,,,,,,,,,4,,,32,55
167040,note_off,0,0,4,,,,,,,,,4,,,32,0
167040,note_off,240,0,4,,,,,,,,,4,,,46,0
167040,note_off,240,0,2,,,,,,,,,1,,,67,0
167040,note_on,0,0,2,,,,,,,,,1,,,64,58
167040,note_on,0,0,2,,,,,,,,,1,,,67,58
167520,note_on,0,0,2,,,,,,,,,1,,,63,49
167520,note_off,480,0,2,,,,,,,,,1,,,64,0
167860,set_tempo,1070,1,0,,,,,,1666666,,,,,,,
168000,note_off,0,0,4,,,,,,,,,4,,,32,0
168000,note_on,0,0,1,,,,,,,,,0,,,72,46
168000,note_off,960,0,1,,,,,,,,,0,,,73,0
168000,note_off,0,0,2,,,,,,,,,1,,,67,0
168000,note_off,480,0,2,,,,,,,,,1,,,63,0
168000,note_on,0,0,2,,,,,,,,,1,,,63,44
168000,note_off,960,0,4,,,,,,,,,4,,,46,0
168000,note_on,0,0,4,,,,,,,,,4,,,32,44
168000,note_on,0,0,4,,,,,,,,,4,,,44,44
168000,note_on,0,0,2,,,,,,,,,1,,,68,44
168240,note_off,240,0,2,,,,,,,,,1,,,68,0
168240,note_off,0,0,2,,,,,,,,,1,,,63,0
168240,note_off,0,0,4,,,,,,,,,4,,,44,0
168240,note_off,240,0,4,,,,,,,,,4,,,32,0
168240,note_off,240,0,1,,,,,,,,,0,,,72,0
168480,set_tempo,620,1,0,,,,,,2500000,,,,,,,
168480,note_on,240,0,1,,,,,,,,,0,,,72,41
168480,note_on,0,0,2,,,,,,,,,1,,,63,43
168480,note_on,0,0,4,,,,,,,,,4,,,32,39
168480,note_on,240,0,4,,,,,,,,,4,,,44,39
168480,note_on,240,0,2,,,,,,,,,1,,,68,43
168720,note_off,240,0,1,,,,,,,,,0,,,72,0
168720,note_off,240,0,2,,,,,,,,,1,,,63,0
168720,note_off,0,0,4,,,,,,,,,4,,,44,0
168720,note_off,240,0,4,,,,,,,,,4,,,32,0
168720,note_off,0,0,2,,,,,,,,,1,,,68,0
169920,marker,0,1,0,,,,,,,,,,,,,
169920,program_change,0,0,4,,,,,,,,,4,0,,,
169920,control_change,1200,0,2,,,,,,,7,117,1,,,,
169920,control_change,0,0,2,,,,,,,1,0,1,,,,
169920,control_change,0,0,2,,,,,,,64,0,1,,,,
169920,control_change,0,0,2,,,,,,,93,28,1,,,,
169920,control_change,0,0,2,,,,,,,91,91,1,,,,
169920,control_change,0,0,4,,,,,,,32,0,4,,,,
169920,control_change,0,0,2,,,,,,,10,64,1,,,,
169920,control_change,0,0,2,,,,,,,0,0,1,,,,
169920,control_change,0,0,2,,,,,,,32,0,1,,,,
169920,program_change,0,0,2,,,,,,,,,1,0,,,
169920,time_signature,1440,1,0,2,4,24,8,,,,,,,,,
169920,set_tempo,0,1,0,,,,,,600000,,,,,,,
169920,pitchwheel,0,0,2,,,,,,,,,1,,0,,
169920,control_change,0,0,4,,,,,,,0,0,4,,,,
169920,control_change,0,0,1,,,,,,,1,0,0,,,,
169920,control_change,0,0,4,,,,,,,91,91,4,,,,
169920,control_change,0,0,1,,,,,,,91,91,0,,,,
169920,control_change,0,0,1,,,,,,,93,28,0,,,,
169920,control_change,7200,0,3,,,,,,,7,112,2,,,,
169920,pitchwheel,0,0,3,,,,,,,,,2,,0,,
169920,control_change,0,0,3,,,,,,,1,0,2,,,,
169920,control_change,0,0,3,,,,,,,64,0,2,,,,
169920,control_change,0,0,3,,,,,,,93,28,2,,,,
169920,control_change,0,0,3,,,,,,,91,91,2,,,,
169920,control_change,1200,0,1,,,,,,,10,73,0,,,,
169920,control_change,0,0,4,,,,,,,10,55,4,,,,
169920,control_change,0,0,3,,,,,,,32,0,2,,,,
169920,program_change,0,0,3,,,,,,,,,2,0,,,
169920,control_change,0,0,1,,,,,,,64,0,0,,,,
169920,control_change,0,0,1,,,,,,,7,127,0,,,,
169920,control_change,0,0,1,,,,,,,0,0,0,,,,
169920,control_change,0,0,1,,,,,,,32,0,0,,,,
169920,pitchwheel,0,0,1,,,,,,,,,0,,0,,
169920,program_change,0,0,1,,,,,,,,,0,0,,,
169920,control_change,0,0,3,,,,,,,0,0,2,,,,
169920,control_change,1200,0,4,,,,,,,7,122,4,,,,
169920,control_change,0,0,3,,,,,,,10,64,2,,,,
169920,control_change,0,0,4,,,,,,,1,0,4,,,,
169920,control_change,0,0,4,,,,,,,64,0,4,,,,
169920,control_change,0,0,4,,,,,,,93,28,4,,,,
169920,pitchwheel,0,0,4,,,,,,,,,4,,0,,
170880,set_tempo,960,1,0,,,,,,248962,,,,,,,
170880,note_on,0,0,4,,,,,,,,,4,,,53,51
170880,note_on,0,0,4,,,,,,,,,4,,,41,51
170880,control_change,960,0,4,,,,,,,64,0,4,,,,
170880,note_on,0,0,1,,,,,,,,,0,,,72,52
170880,control_change,960,0,1,,,,,,,64,0,0,,,,
170880,note_on,0,0,2,,,,,,,,,1,,,68,52
170880,control_change,960,0,2,,,,,,,64,0,1,,,,
170880,control_change,960,0,3,,,,,,,64,0,2,,,,
171360,note_on,0,0,2,,,,,,,,,1,,,64,51
171360,note_off,480,0,2,,,,,,,,,1,,,68,0
171360,note_off,0,0,4,,,,,,,,,4,,,41,0
171360,note_on,0,0,4,,,,,,,,,4,,,55,48
171360,note_off,480,0,1,,,,,,,,,0,,,72,0
171360,note_on,0,0,1,,,,,,,,,0,,,70,51
171360,note_on,0,0,4,,,,,,,,,4,,,43,48
171360,note_off,480,0,4,,,,,,,,,4,,,53,0
171840,note_off,480,0,4,,,,,,,,,4,,,55,0
171840,note_off,0,0,4,,,,,,,,,4,,,43,0
171840,note_off,480,0,2,,,,,,,,,1,,,64,0
171840,note_on,0,0,2,,,,,,,,,1,,,65,50
171840,note_on,0,0,4,,,,,,,,,4,,,44,48
171840,note_on,0,0,4,,,,,,,,,4,,,56,48
171840,note_off,480,0,1,,,,,,,,,0,,,70,0
171840,note_on,0,0,1,,,,,,,,,0,,,68,50
172320,note_off,480,0,1,,,,,,,,,0,,,68,0
172320,note_on,0,0,2,,,,,,,,,1,,,61,49
172320,note_on,0,0,2,,,,,,,,,1,,,64,49
172320,note_off,480,0,2,,,,,,,,,1,,,65,0
172320,note_off,480,0,4,,,,,,,,,4,,,56,0
172320,note_off,0,0,4,,,,,,,,,4,,,44,0
172320,note_on,0,0,4,,,,,,,,,4,,,58,47
172320,note_on,0,0,4,,,,,,,,,4,,,46,47
172320,note_on,0,0,1,,,,,,,,,0,,,67,49
172680,note_off,0,0,2,,,,,,,,,1,,,61,0
172680,note_off,360,0,2,,,,,,,,,1,,,64,0
172680,note_off,360,0,4,,,,,,,,,4,,,46,0
172680,note_off,0,0,4,,,,,,,,,4,,,58,0
172680,note_off,360,0,1,,,,,,,,,0,,,67,0
172800,note_on,120,0,2,,,,,,,,,1,,,62,48
172800,note_on,0,0,2,,,,,,,,,1,,,56,48
172800,note_on,0,0,4,,,,,,,,,4,,,59,46
172800,note_on,120,0,1,,,,,,,,,0,,,65,48
172800,note_on,120,0,4,,,,,,,,,4,,,47,46
172956,note_off,0,0,2,,,,,,,,,1,,,62,0
172956,note_off,0,0,4,,,,,,,,,4,,,47,0
172956,note_off,156,0,4,,,,,,,,,4,,,59,0
172956,note_off,156,0,2,,,,,,,,,1,,,56,0
172956,note_off,156,0,1,,,,,,,,,0,,,65,0
173280,note_on,324,0,2,,,,,,,,,1,,,62,47
173280,note_on,0,0,2,,,,,,,,,1,,,56,47
173280,note_on,324,0,1,,,,,,,,,0,,,65,47
173280,note_on,324,0,4,,,,,,,,,4,,,47,45
173280,note_on,0,0,4,,,,,,,,,4,,,59,45
173436,note_off,156,0,4,,,,,,,,,4,,,59,0
173436,note_off,0,0,4,,,,,,,,,4,,,47,0
173436,note_off,0,0,2,,,,,,,,,1,,,62,0
173436,note_off,156,0,1,,,,,,,,,0,,,65,0
173436,note_off,156,0,2,,,,,,,,,1,,,56,0
173640,set_tempo,2760,1,0,,,,,,251046,,,,,,,
173760,note_on,324,0,4,,,,,,,,,4,,,48,44
173760,note_on,324,0,1,,,,,,,,,0,,,64,46
173760,note_on,324,0,2,,,,,,,,,1,,,55,46
173760,note_on,0,0,4,,,,,,,,,4,,,60,44
174480,note_off,720,0,2,,,,,,,,,1,,,55,0
174480,note_off,0,0,4,,,,,,,,,4,,,48,0
174480,note_off,720,0,4,,,,,,,,,4,,,60,0
174480,note_off,720,0,1,,,,,,,,,0,,,64,0
174600,set_tempo,960,1,0,,,,,,253164,,,,,,,
174720,note_on,240,0,2,,,,,,,,,1,,,72,86
174720,note_on,0,0,2,,,,,,,,,1,,,76,86
174720,note_on,240,0,1,,,,,,,,,0,,,79,86
174720,note_on,0,0,4,,,,,,,,,4,,,48,85
174720,note_on,240,0,4,,,,,,,,,4,,,36,85
174720,set_tempo,120,1,0,,,,,,248962,,,,,,,
175200,note_off,0,0,2,,,,,,,,,1,,,72,0
175200,note_on,0,0,2,,,,,,,,,1,,,72,82
175200,note_on,0,0,4,,,,,,,,,4,,,52,83
175200,note_on,0,0,4,,,,,,,,,4,,,40,83
175200,note_off,0,0,4,,,,,,,,,4,,,36,0
175200,note_off,480,0,2,,,,,,,,,1,,,76,0
175200,note_off,480,0,4,,,,,,,,,4,,,48,0
175200,note_on,0,0,2,,,,,,,,,1,,,67,82
175200,note_on,0,0,1,,,,,,,,,0,,,76,82
175200,note_off,480,0,1,,,,,,,,,0,,,79,0
175560,note_off,360,0,1,,,,,,,,,0,,,76,0
175560,note_off,360,0,2,,,,,,,,,1,,,72,0
175560,note_off,0,0,2,,,,,,,,,1,,,67,0
175680,note_off,480,0,4,,,,,,,,,4,,,52,0
175680,note_off,0,0,4,,,,,,,,,4,,,40,0
175680,note_on,0,0,4,,,,,,,,,4,,,43,82
175680,note_on,0,0,4,,,,,,,,,4,,,55,82
175680,note_on,120,0,1,,,,,,,,,0,,,72,81
175680,note_on,120,0,2,,,,,,,,,1,,,64,81
175680,note_on,0,0,2,,,,,,,,,1,,,67,81
175836,note_off,156,0,1,,,,,,,,,0,,,72,0
175836,note_off,0,0,2,,,,,,,,,1,,,64,0
175836,note_off,156,0,2,,,,,,,,,1,,,67,0
176160,note_on,324,0,1,,,,,,,,,0,,,72,79
176160,note_on,324,0,2,,,,,,,,,1,,,64,79
176160,note_on,0,0,4,,,,,,,,,4,,,60,80
176160,note_on,0,0,4,,,,,,,,,4,,,48,80
176160,note_off,0,0,4,,,,,,,,,4,,,43,0
176160,note_off,480,0,4,,,,,,,,,4,,,55,0
176160,note_on,0,0,2,,,,,,,,,1,,,67,79
176316,note_off,0,0,2,,,,,,,,,1,,,64,0
176316,note_off,156,0,1,,,,,,,,,0,,,72,0
176316,note_off,156,0,2,,,,,,,,,1,,,67,0
176520,note_off,0,0,4,,,,,,,,,4,,,48,0
176520,note_off,360,0,4,,,,,,,,,4,,,60,0
176640,note_on,324,0,1,,,,,,,,,0,,,72,78
176640,note_on,0,0,2,,,,,,,,,1,,,67,78
176640,note_on,324,0,2,,,,,,,,,1,,,64,78
176640,note_on,120,0,4,,,,,,,,,4,,,43,79
176640,note_on,0,0,4,,,,,,,,,4,,,55,79
176796,note_off,156,0,2,,,,,,,,,1,,,67,0
176796,note_off,0,0,2,,,,,,,,,1,,,64,0
176796,note_off,156,0,1,,,,,,,,,0,,,72,0
176796,note_off,156,0,4,,,,,,,,,4,,,55,0
176796,note_off,0,0,4,,,,,,,,,4,,,43,0
177120,note_on,0,0,2,,,,,,,,,1,,,71,80
177120,note_on,324,0,4,,,,,,,,,4,,,43,83
177120,note_on,0,0,4,,,,,,,,,4,,,31,83
177120,note_on,324,0,2,,,,,,,,,1,,,67,80
177120,note_on,324,0,1,,,,,,,,,0,,,74,80
177276,note_off,156,0,2,,,,,,,,,1,,,71,0
177276,note_off,0,0,2,,,,,,,,,1,,,67,0
177276,note_off,156,0,1,,,,,,,,,0,,,74,0
177276,note_off,0,0,4,,,,,,,,,4,,,43,0
177276,note_off,156,0,4,,,,,,,,,4,,,31,0
177480,set_tempo,2760,1,0,,,,,,251046,,,,,,,
177600,note_on,324,0,1,,,,,,,,,0,,,76,90
177600,note_on,0,0,2,,,,,,,,,1,,,72,90
177600,note_on,324,0,2,,,,,,,,,1,,,67,90
177600,note_on,324,0,4,,,,,,,,,4,,,36,95
177600,note_on,0,0,4,,,,,,,,,4,,,48,95
178090,set_tempo,610,1,0,,,,,,253164,,,,,,,
178320,note_off,0,0,4,,,,,,,,,4,,,36,0
178320,note_off,720,0,1,,,,,,,,,0,,,76,0
178320,note_off,720,0,2,,,,,,,,,1,,,72,0
178320,note_off,0,0,2,,,,,,,,,1,,,67,0
178320,note_off,720,0,4,,,,,,,,,4,,,48,0
178560,control_change,240,0,1,,,,,,,64,0,0,,,,
178560,note_on,0,0,4,,,,,,,,,4,,,41,51
178560,note_on,0,0,1,,,,,,,,,0,,,72,52
178560,control_change,240,0,4,,,,,,,64,0,4,,,,
178560,note_on,0,0,2,,,,,,,,,1,,,68,52
178560,control_change,7680,0,3,,,,,,,64,0,2,,,,
178560,set_tempo,470,1,0,,,,,,248962,,,,,,,
178560,note_on,0,0,4,,,,,,,,,4,,,53,51
178560,control_change,240,0,2,,,,,,,64,0,1,,,,
179040,note_off,480,0,1,,,,,,,,,0,,,72,0
179040,note_off,0,0,4,,,,,,,,,4,,,53,0
179040,note_on,0,0,1,,,,,,,,,0,,,70,51
179040,note_off,480,0,4,,,,,,,,,4,,,41,0
179040,note_on,0,0,4,,,,,,,,,4,,,43,48
179040,note_on,0,0,2,,,,,,,,,1,,,64,51
179040,note_off,480,0,2,,,,,,,,,1,,,68,0
179040,note_on,0,0,4,,,,,,,,,4,,,55,48
179520,note_off,480,0,4,,,,,,,,,4,,,43,0
179520,note_on,0,0,4,,,,,,,,,4,,,56,48
179520,note_on,0,0,4,,,,,,,,,4,,,44,48
179520,note_off,0,0,4,,,,,,,,,4,,,55,0
179520,note_off,480,0,1,,,,,,,,,0,,,70,0
179520,note_on,0,0,2,,,,,,,,,1,,,65,50
179520,note_off,480,0,2,,,,,,,,,1,,,64,0
179520,note_on,0,0,1,,,,,,,,,0,,,68,50
180000,note_on,0,0,2,,,,,,,,,1,,,61,49
180000,note_on,0,0,2,,,,,,,,,1,,,64,49
180000,note_off,480,0,2,,,,,,,,,1,,,65,0
180000,note_on,0,0,1,,,,,,,,,0,,,67,49
180000,note_off,480,0,4,,,,,,,,,4,,,44,0
180000,note_off,0,0,4,,,,,,,,,4,,,56,0
180000,note_on,0,0,4,,,,,,,,,4,,,46,47
180000,note_on,0,0,4,,,,,,,,,4,,,58,47
180000,note_off,480,0,1,,,,,,,,,0,,,68,0
180360,note_off,360,0,4,,,,,,,,,4,,,58,0
180360,note_off,0,0,2,,,,,,,,,1,,,64,0
180360,note_off,360,0,2,,,,,,,,,1,,,61,0
180360,note_off,0,0,4,,,,,,,,,4,,,46,0
180360,note_off,360,0,1,,,,,,,,,0,,,67,0
180480,note_on,120,0,1,,,,,,,,,0,,,65,48
180480,note_on,0,0,2,,,,,,,,,1,,,62,48
180480,note_on,120,0,2,,,,,,,,,1,,,56,48
180480,note_on,120,0,4,,,,,,,,,4,,,59,46
180480,note_on,0,0,4,,,,,,,,,4,,,47,46
180636,note_off,0,0,2,,,,,,,,,1,,,56,0
180636,note_off,156,0,2,,,,,,,,,1,,,62,0
180636,note_off,156,0,1,,,,,,,,,0,,,65,0
180636,note_off,156,0,4,,,,,,,,,4,,,47,0
180636,note_off,0,0,4,,,,,,,,,4,,,59,0
180960,note_on,324,0,2,,,,,,,,,1,,,56,47
180960,note_on,324,0,1,,,,,,,,,0,,,65,47
180960,note_on,0,0,2,,,,,,,,,1,,,62,47
180960,note_on,324,0,4,,,,,,,,,4,,,59,45
180960,note_on,0,0,4,,,,,,,,,4,,,47,45
181116,note_off,0,0,4,,,,,,,,,4,,,59,0
181116,note_off,156,0,4,,,,,,,,,4,,,47,0
181116,note_off,156,0,1,,,,,,,,,0,,,65,0
181116,note_off,0,0,2,,,,,,,,,1,,,56,0
181116,note_off,156,0,2,,,,,,,,,1,,,62,0
181320,set_tempo,2760,1,0,,,,,,251046,,,,,,,
181440,note_on,324,0,4,,,,,,,,,4,,,60,44
181440,note_on,324,0,1,,,,,,,,,0,,,64,46
181440,note_on,0,0,4,,,,,,,,,4,,,48,44
181440,note_on,324,0,2,,,,,,,,,1,,,55,46
182160,note_off,720,0,4,,,,,,,,,4,,,48,0
182160,note_off,720,0,1,,,,,,,,,0,,,64,0
182160,note_off,720,0,2,,,,,,,,,1,,,55,0
182160,note_off,0,0,4,,,,,,,,,4,,,60,0
182280,set_tempo,960,1,0,,,,,,253164,,,,,,,
182400,note_on,240,0,1,,,,,,,,,0,,,79,86
182400,note_on,240,0,4,,,,,,,,,4,,,48,85
182400,set_tempo,120,1,0,,,,,,248962,,,,,,,
182400,note_on,0,0,2,,,,,,,,,1,,,72,86
182400,note_on,0,0,4,,,,,,,,,4,,,36,85
182400,note_on,240,0,2,,,,,,,,,1,,,76,86
182880,note_on,0,0,4,,,,,,,,,4,,,40,83
182880,note_on,0,0,4,,,,,,,,,4,,,52,83
182880,note_on,0,0,2,,,,,,,,,1,,,67,82
182880,note_on,0,0,2,,,,,,,,,1,,,72,82
182880,note_off,0,0,2,,,,,,,,,1,,,76,0
182880,note_off,480,0,4,,,,,,,,,4,,,36,0
182880,note_off,0,0,4,,,,,,,,,4,,,48,0
182880,note_off,480,0,2,,,,,,,,,1,,,72,0
182880,note_off,480,0,1,,,,,,,,,0,,,79,0
182880,note_on,0,0,1,,,,,,,,,0,,,76,82
183240,note_off,360,0,2,,,,,,,,,1,,,67,0
183240,note_off,0,0,2,,,,,,,,,1,,,72,0
183240,note_off,360,0,1,,,,,,,,,0,,,76,0
183360,note_on,0,0,2,,,,,,,,,1,,,64,81
183360,note_on,120,0,1,,,,,,,,,0,,,72,81
183360,note_on,0,0,4,,,,,,,,,4,,,43,82
183360,note_on,0,0,4,,,,,,,,,4,,,55,82
183360,note_off,0,0,4,,,,,,,,,4,,,52,0
183360,note_off,480,0,4,,,,,,,,,4,,,40,0
183360,note_on,120,0,2,,,,,,,,,1,,,67,81
183516,note_off,0,0,2,,,,,,,,,1,,,67,0
183516,note_off,156,0,1,,,,,,,,,0,,,72,0
183516,note_off,156,0,2,,,,,,,,,1,,,64,0
183840,note_on,324,0,1,,,,,,,,,0,,,72,79
183840,note_on,0,0,4,,,,,,,,,4,,,48,80
183840,note_on,0,0,4,,,,,,,,,4,,,60,80
183840,note_off,480,0,4,,,,,,,,,4,,,43,0
183840,note_off,0,0,4,,,,,,,,,4,,,55,0
183840,note_on,324,0,2,,,,,,,,,1,,,67,79
183840,note_on,0,0,2,,,,,,,,,1,,,64,79
183996,note_off,0,0,2,,,,,,,,,1,,,67,0
183996,note_off,156,0,2,,,,,,,,,1,,,64,0
183996,note_off,156,0,1,,,,,,,,,0,,,72,0
184200,note_off,360,0,4,,,,,,,,,4,,,48,0
184200,note_off,0,0,4,,,,,,,,,4,,,60,0
184320,note_on,0,0,4,,,,,,,,,4,,,43,79
184320,note_on,0,0,2,,,,,,,,,1,,,64,78
184320,note_on,120,0,4,,,,,,,,,4,,,55,79
184320,note_on,324,0,1,,,,,,,,,0,,,72,78
184320,note_on,324,0,2,,,,,,,,,1,,,67,78
184476,note_off,156,0,4,,,,,,,,,4,,,43,0
184476,note_off,0,0,2,,,,,,,,,1,,,67,0
184476,note_off,156,0,2,,,,,,,,,1,,,64,0
184476,note_off,0,0,4,,,,,,,,,4,,,55,0
184476,note_off,156,0,1,,,,,,,,,0,,,72,0
184800,note_on,324,0,4,,,,,,,,,4,,,31,83
184800,note_on,0,0,4,,,,,,,,,4,,,43,83
184800,note_on,324,0,2,,,,,,,,,1,,,71,80
184800,note_on,324,0,1,,,,,,,,,0,,,74,80
184800,note_on,0,0,2,,,,,,,,,1,,,67,80
184956,note_off,156,0,4,,,,,,,,,4,,,43,0
184956,note_off,0,0,4,,,,,,,,,4,,,31,0
184956,note_off,156,0,2,,,,,,,,,1,,,67,0
184956,note_off,0,0,2,,,,,,,,,1,,,71,0
184956,note_off,156,0,1,,,,,,,,,0,,,74,0
185160,set_tempo,2760,1,0,,,,,,251046,,,,,,,
185280,note_on,324,0,2,,,,,,,,,1,,,72,90
185280,note_on,0,0,2,,,,,,,,,1,,,67,90
185280,note_on,0,0,4,,,,,,,,,4,,,36,95
185280,note_on,324,0,4,,,,,,,,,4,,,48,95
185280,note_on,324,0,1,,,,,,,,,0,,,76,90
185770,set_tempo,610,1,0,,,,,,253164,,,,,,,
186000,note_off,720,0,1,,,,,,,,,0,,,76,0
186000,note_off,0,0,2,,,,,,,,,1,,,72,0
186000,note_off,720,0,2,,,,,,,,,1,,,67,0
186000,note_off,0,0,4,,,,,,,,,4,,,48,0
186000,note_off,720,0,4,,,,,,,,,4,,,36,0
186240,set_tempo,470,1,0,,,,,,248962,,,,,,,
186240,note_on,0,0,2,,,,,,,,,1,,,76,78
186240,control_change,240,0,2,,,,,,,64,0,1,,,,
186240,control_change,0,0,1,,,,,,,64,0,0,,,,
186240,note_on,0,0,4,,,,,,,,,4,,,36,79
186240,note_on,0,0,4,,,,,,,,,4,,,48,79
186240,control_change,240,0,1,,,,,,,64,0,0,,,,
186240,control_change,0,0,1,,,,,,,64,0,0,,,,
186240,control_change,0,0,1,,,,,,,64,0,0,,,,
186240,note_on,0,0,1,,,,,,,,,0,,,79,78
186240,control_change,240,0,4,,,,,,,64,0,4,,,,
186240,control_change,7680,0,3,,,,,,,64,0,2,,,,
186396,note_off,156,0,2,,,,,,,,,1,,,76,0
186396,note_off,156,0,1,,,,,,,,,0,,,79,0
186396,note_off,0,0,4,,,,,,,,,4,,,36,0
186396,note_off,156,0,4,,,,,,,,,4,,,48,0
186720,note_on,324,0,4,,,,,,,,,4,,,35,80
186720,note_on,324,0,2,,,,,,,,,1,,,74,79
186720,note_on,0,0,4,,,,,,,,,4,,,47,80
186720,note_on,324,0,1,,,,,,,,,0,,,79,79
186876,note_off,0,0,4,,,,,,,,,4,,,35,0
186876,note_off,156,0,2,,,,,,,,,1,,,74,0
186876,note_off,156,0,1,,,,,,,,,0,,,79,0
186876,note_off,156,0,4,,,,,,,,,4,,,47,0
187200,note_on,324,0,2,,,,,,,,,1,,,76,80
187200,note_on,324,0,1,,,,,,,,,0,,,79,80
187200,note_on,324,0,4,,,,,,,,,4,,,36,81
187200,note_on,0,0,4,,,,,,,,,4,,,48,81
187680,note_off,480,0,1,,,,,,,,,0,,,79,0
187680,note_on,0,0,1,,,,,,,,,0,,,80,81
187836,note_off,156,0,1,,,,,,,,,0,,,80,0
188160,note_on,324,0,1,,,,,,,,,0,,,80,82
188316,note_off,1116,0,2,,,,,,,,,1,,,76,0
188316,note_off,156,0,1,,,,,,,,,0,,,80,0
188640,note_on,324,0,2,,,,,,,,,1,,,77,83
188640,note_off,1440,0,4,,,,,,,,,4,,,48,0
188640,note_off,0,0,4,,,,,,,,,4,,,36,0
188640,note_on,0,0,4,,,,,,,,,4,,,37,84
188640,note_on,324,0,1,,,,,,,,,0,,,80,83
188640,note_on,0,0,4,,,,,,,,,4,,,49,84
188796,note_off,156,0,1,,,,,,,,,0,,,80,0
189120,note_on,324,0,1,,,,,,,,,0,,,80,85
189276,note_off,636,0,2,,,,,,,,,1,,,77,0
189276,note_off,156,0,1,,,,,,,,,0,,,80,0
189600,note_on,324,0,2,,,,,,,,,1,,,77,86
189600,note_off,0,0,4,,,,,,,,,4,,,37,0
189600,note_on,0,0,4,,,,,,,,,4,,,38,86
189600,note_on,0,0,4,,,,,,,,,4,,,50,86
189600,note_on,0,0,2,,,,,,,,,1,,,80,87
189600,note_on,324,0,1,,,,,,,,,0,,,82,86
189600,note_off,960,0,4,,,,,,,,,4,,,49,0
189756,note_off,156,0,1,,,,,,,,,0,,,82,0
190080,note_on,324,0,1,,,,,,,,,0,,,82,87
190236,note_off,156,0,1,,,,,,,,,0,,,82,0
190515,note_off,915,0,2,,,,,,,,,1,,,80,0
190530,note_off,15,0,2,,,,,,,,,1,,,77,0
190560,note_on,30,0,2,,,,,,,,,1,,,79,88
190560,note_on,0,0,2,,,,,,,,,1,,,75,88
190560,note_on,0,0,4,,,,,,,,,4,,,51,88
190560,note_off,960,0,4,,,,,,,,,4,,,50,0
190560,note_off,0,0,4,,,,,,,,,4,,,38,0
190560,note_on,0,0,4,,,,,,,,,4,,,39,88
190560,note_on,324,0,1,,,,,,,,,0,,,82,88
190716,note_off,156,0,2,,,,,,,,,1,,,79,0
190716,note_off,156,0,1,,,,,,,,,0,,,82,0
191040,note_on,324,0,2,,,,,,,,,1,,,79,89
191040,note_on,324,0,1,,,,,,,,,0,,,82,89
191520,note_off,480,0,2,,,,,,,,,1,,,79,0
191520,note_on,0,0,1,,,,,,,,,0,,,84,90
191520,note_off,480,0,1,,,,,,,,,0,,,82,0
191520,note_on,0,0,4,,,,,,,,,4,,,44,90
191520,note_on,0,0,2,,,,,,,,,1,,,80,90
191520,note_on,0,0,4,,,,,,,,,4,,,32,90
191520,note_off,960,0,4,,,,,,,,,4,,,51,0
191520,note_off,0,0,4,,,,,,,,,4,,,39,0
191670,note_off,150,0,2,,,,,,,,,1,,,75,0
191676,note_off,156,0,1,,,,,,,,,0,,,84,0
191676,note_off,6,0,2,,,,,,,,,1,,,80,0
191880,note_off,0,0,4,,,,,,,,,4,,,32,0
191880,note_off,360,0,4,,,,,,,,,4,,,44,0
192000,note_on,0,0,4,,,,,,,,,4,,,49,91
192000,note_on,324,0,1,,,,,,,,,0,,,85,91
192000,note_on,120,0,4,,,,,,,,,4,,,37,91
192000,note_on,0,0,2,,,,,,,,,1,,,82,91
192000,note_on,324,0,2,,,,,,,,,1,,,77,91
192156,note_off,156,0,1,,,,,,,,,0,,,85,0
192156,note_off,0,0,2,,,,,,,,,1,,,77,0
192156,note_off,156,0,2,,,,,,,,,1,,,82,0
192156,note_off,0,0,4,,,,,,,,,4,,,37,0
192156,note_off,156,0,4,,,,,,,,,4,,,49,0
192480,note_on,324,0,4,,,,,,,,,4,,,39,95
192480,note_on,0,0,2,,,,,,,,,1,,,73,95
192480,note_on,324,0,2,,,,,,,,,1,,,77,95
192480,note_on,0,0,4,,,,,,,,,4,,,51,95
192480,note_on,324,0,1,,,,,,,,,0,,,82,95
192636,note_off,156,0,1,,,,,,,,,0,,,82,0
192636,note_off,156,0,4,,,,,,,,,4,,,51,0
192636,note_off,0,0,4,,,,,,,,,4,,,39,0
192636,note_off,0,0,2,,,,,,,,,1,,,77,0
192636,note_off,156,0,2,,,,,,,,,1,,,73,0
192720,set_tempo,6480,1,0,,,,,,251046,,,,,,,
192960,note_on,324,0,2,,,,,,,,,1,,,72,100
192960,set_tempo,240,1,0,,,,,,253164,,,,,,,
192960,note_on,0,0,4,,,,,,,,,4,,,56,102
192960,note_on,324,0,4,,,,,,,,,4,,,44,102
192960,note_on,324,0,1,,,,,,,,,0,,,80,100
193680,note_off,0,0,4,,,,,,,,,4,,,44,0
193680,note_off,720,0,4,,,,,,,,,4,,,56,0
193680,note_off,720,0,2,,,,,,,,,1,,,72,0
193680,note_off,720,0,1,,,,,,,,,0,,,80,0
193920,set_tempo,960,1,0,,,,,,248962,,,,,,,
193920,note_on,240,0,1,,,,,,,,,0,,,68,55
194400,note_off,480,0,1,,,,,,,,,0,,,68,0
194400,note_on,0,0,1,,,,,,,,,0,,,68,55
194400,note_on,8160,0,3,,,,,,,,,2,,,60,53
194400,note_on,720,0,4,,,,,,,,,4,,,56,53
194880,note_off,480,0,3,,,,,,,,,2,,,60,0
194880,note_on,0,0,3,,,,,,,,,2,,,61,53
194880,note_off,480,0,4,,,,,,,,,4,,,56,0
194880,note_on,0,0,4,,,,,,,,,4,,,58,53
194880,note_on,0,0,1,,,,,,,,,0,,,67,55
194880,note_off,480,0,1,,,,,,,,,0,,,68,0
195120,note_on,0,0,1,,,,,,,,,0,,,65,54
195120,note_off,240,0,1,,,,,,,,,0,,,67,0
195240,note_off,360,0,3,,,,,,,,,2,,,61,0
195240,note_off,360,0,4,,,,,,,,,4,,,58,0
195360,note_on,0,0,1,,,,,,,,,0,,,63,54
195360,note_off,240,0,1,,,,,,,,,0,,,65,0
195720,set_tempo,1800,1,0,,,,,,251046,,,,,,,
195840,note_off,480,0,1,,,,,,,,,0,,,63,0
195840,note_on,0,0,1,,,,,,,,,0,,,72,54
195840,set_tempo,120,1,0,,,,,,248962,,,,,,,
195840,note_on,2160,0,2,,,,,,,,,1,,,68,54
196320,note_off,480,0,2,,,,,,,,,1,,,68,0
196320,note_on,1080,0,4,,,,,,,,,4,,,56,52
196320,note_on,0,0,2,,,,,,,,,1,,,68,54
196320,note_on,1080,0,3,,,,,,,,,2,,,60,52
196320,note_off,480,0,1,,,,,,,,,0,,,72,0
196320,note_on,0,0,1,,,,,,,,,0,,,72,54
196800,note_off,480,0,3,,,,,,,,,2,,,60,0
196800,note_on,0,0,2,,,,,,,,,1,,,67,53
196800,note_off,480,0,2,,,,,,,,,1,,,68,0
196800,note_on,0,0,3,,,,,,,,,2,,,61,52
196800,note_on,0,0,1,,,,,,,,,0,,,70,53
196800,note_off,480,0,1,,,,,,,,,0,,,72,0
196800,note_on,0,0,4,,,,,,,,,4,,,58,52
196800,note_off,480,0,4,,,,,,,,,4,,,56,0
197040,note_on,0,0,2,,,,,,,,,1,,,65,53
197040,note_on,0,0,1,,,,,,,,,0,,,68,53
197040,note_off,240,0,2,,,,,,,,,1,,,67,0
197040,note_off,240,0,1,,,,,,,,,0,,,70,0
197160,note_off,360,0,4,,,,,,,,,4,,,58,0
197160,note_off,360,0,3,,,,,,,,,2,,,61,0
197280,note_off,240,0,1,,,,,,,,,0,,,68,0
197280,note_on,0,0,1,,,,,,,,,0,,,67,53
197280,note_off,240,0,2,,,,,,,,,1,,,65,0
197280,note_on,0,0,2,,,,,,,,,1,,,63,53
197640,set_tempo,1800,1,0,,,,,,251046,,,,,,,
197760,set_tempo,120,1,0,,,,,,248962,,,,,,,
197760,note_on,0,0,2,,,,,,,,,1,,,72,52
197760,note_off,480,0,1,,,,,,,,,0,,,67,0
197760,note_on,0,0,1,,,,,,,,,0,,,75,52
197760,note_off,480,0,2,,,,,,,,,1,,,63,0
198240,note_off,480,0,2,,,,,,,,,1,,,72,0
198240,note_on,0,0,2,,,,,,,,,1,,,72,52
198240,note_on,0,0,4,,,,,,,,,4,,,44,51
198240,note_on,1080,0,4,,,,,,,,,4,,,32,51
198240,note_off,480,0,1,,,,,,,,,0,,,75,0
198240,note_on,0,0,1,,,,,,,,,0,,,75,52
198720,note_on,0,0,4,,,,,,,,,4,,,34,51
198720,note_on,0,0,4,,,,,,,,,4,,,46,51
198720,note_off,0,0,4,,,,,,,,,4,,,32,0
198720,note_off,480,0,4,,,,,,,,,4,,,44,0
198720,note_on,0,0,1,,,,,,,,,0,,,73,52
198720,note_off,480,0,1,,,,,,,,,0,,,75,0
198720,note_on,0,0,2,,,,,,,,,1,,,70,52
198720,note_off,480,0,2,,,,,,,,,1,,,72,0
199200,note_off,480,0,4,,,,,,,,,4,,,34,0
199200,note_on,0,0,1,,,,,,,,,0,,,72,51
199200,note_off,480,0,1,,,,,,,,,0,,,73,0
199200,note_off,0,0,4,,,,,,,,,4,,,46,0
199200,note_on,0,0,4,,,,,,,,,4,,,48,51
199200,note_on,0,0,4,,,,,,,,,4,,,36,51
199200,note_on,0,0,2,,,,,,,,,1,,,68,51
199200,note_off,480,0,2,,,,,,,,,1,,,70,0
199680,note_on,0,0,1,,,,,,,,,0,,,70,51
199680,note_off,480,0,1,,,,,,,,,0,,,72,0
199680,note_off,480,0,2,,,,,,,,,1,,,68,0
199680,note_on,0,0,2,,,,,,,,,1,,,67,51
199680,note_off,480,0,4,,,,,,,,,4,,,36,0
199680,note_off,0,0,4,,,,,,,,,4,,,48,0
199680,note_on,0,0,4,,,,,,,,,4,,,37,50
199680,note_on,0,0,4,,,,,,,,,4,,,49,50
200160,note_off,0,0,4,,,,,,,,,4,,,37,0
200160,note_off,480,0,4,,,,,,,,,4,,,49,0
200160,note_on,0,0,2,,,,,,,,,1,,,68,51
200160,note_off,480,0,2,,,,,,,,,1,,,67,0
200160,note_on,0,0,1,,,,,,,,,0,,,72,51
200160,note_off,480,0,1,,,,,,,,,0,,,70,0
200160,note_on,0,0,4,,,,,,,,,4,,,38,50
200160,note_on,0,0,4,,,,,,,,,4,,,50,50
200640,note_off,0,0,4,,,,,,,,,4,,,38,0
200640,note_off,480,0,4,,,,,,,,,4,,,50,0
200640,note_off,480,0,2,,,,,,,,,1,,,68,0
200640,note_on,0,0,2,,,,,,,,,1,,,67,50
200640,note_on,0,0,4,,,,,,,,,4,,,39,50
200640,note_on,0,0,4,,,,,,,,,4,,,51,50
200640,note_on,0,0,1,,,,,,,,,0,,,70,50
200640,note_off,480,0,1,,,,,,,,,0,,,72,0
200890,set_tempo,3130,1,0,,,,,,251046,,,,,,,
201120,set_tempo,230,1,0,,,,,,260869,,,,,,,
201120,note_off,480,0,2,,,,,,,,,1,,,67,0
201120,note_on,0,0,1,,,,,,,,,0,,,72,50
201120,note_off,480,0,1,,,,,,,,,0,,,70,0
201120,note_on,0,0,4,,,,,,,,,4,,,52,50
201120,note_on,0,0,4,,,,,,,,,4,,,40,50
201120,note_on,0,0,2,,,,,,,,,1,,,67,50
201120,note_off,0,0,4,,,,,,,,,4,,,39,0
201120,note_off,480,0,4,,,,,,,,,4,,,51,0
201480,note_off,360,0,1,,,,,,,,,0,,,72,0
201480,note_off,360,0,2,,,,,,,,,1,,,67,0
201600,note_off,480,0,4,,,,,,,,,4,,,40,0
201600,note_off,0,0,4,,,,,,,,,4,,,52,0
201600,note_on,0,0,4,,,,,,,,,4,,,41,50
201600,note_on,0,0,4,,,,,,,,,4,,,53,50
201600,note_on,120,0,1,,,,,,,,,0,,,65,49
201600,set_tempo,480,1,0,,,,,,248962,,,,,,,
202080,note_on,4920,0,3,,,,,,,,,2,,,56,49
202080,note_off,480,0,4,,,,,,,,,4,,,53,0
202080,note_off,0,0,4,,,,,,,,,4,,,41,0
202080,note_on,0,0,1,,,,,,,,,0,,,65,49
202080,note_off,480,0,1,,,,,,,,,0,,,65,0
202080,note_on,0,0,4,,,,,,,,,4,,,53,49
202560,note_off,480,0,1,,,,,,,,,0,,,65,0
202560,note_on,0,0,1,,,,,,,,,0,,,64,49
202560,note_on,0,0,3,,,,,,,,,2,,,58,49
202560,note_off,480,0,3,,,,,,,,,2,,,56,0
202560,note_on,0,0,4,,,,,,,,,4,,,55,49
202560,note_off,480,0,4,,,,,,,,,4,,,53,0
202800,note_on,0,0,1,,,,,,,,,0,,,62,49
202800,note_off,240,0,1,,,,,,,,,0,,,64,0
202920,note_off,360,0,4,,,,,,,,,4,,,55,0
202920,note_off,360,0,3,,,,,,,,,2,,,58,0
203040,note_on,0,0,1,,,,,,,,,0,,,60,48
203040,note_off,240,0,1,,,,,,,,,0,,,62,0
203400,set_tempo,1800,1,0,,,,,,251046,,,,,,,
203520,note_on,0,0,1,,,,,,,,,0,,,68,48
203520,note_off,480,0,1,,,,,,,,,0,,,60,0
203520,set_tempo,120,1,0,,,,,,248962,,,,,,,
203520,note_on,2040,0,2,,,,,,,,,1,,,65,48
204000,note_on,1080,0,4,,,,,,,,,4,,,53,48
204000,note_on,1080,0,3,,,,,,,,,2,,,56,48
204000,note_off,480,0,1,,,,,,,,,0,,,68,0
204000,note_on,0,0,1,,,,,,,,,0,,,68,48
204000,note_off,480,0,2,,,,,,,,,1,,,65,0
204000,note_on,0,0,2,,,,,,,,,1,,,65,48
204480,note_off,480,0,2,,,,,,,,,1,,,65,0
204480,note_off,480,0,4,,,,,,,,,4,,,53,0
204480,note_on,0,0,4,,,,,,,,,4,,,55,48
204480,note_on,0,0,2,,,,,,,,,1,,,64,47
204480,note_on,0,0,1,,,,,,,,,0,,,67,47
204480,note_off,480,0,3,,,,,,,,,2,,,56,0
204480,note_on,0,0,3,,,,,,,,,2,,,58,48
204480,note_off,480,0,1,,,,,,,,,0,,,68,0
204720,note_off,240,0,1,,,,,,,,,0,,,67,0
204720,note_on,0,0,1,,,,,,,,,0,,,65,47
204720,note_off,240,0,2,,,,,,,,,1,,,64,0
204720,note_on,0,0,2,,,,,,,,,1,,,62,47
204840,note_off,360,0,3,,,,,,,,,2,,,58,0
204840,note_off,360,0,4,,,,,,,,,4,,,55,0
204960,note_on,0,0,1,,,,,,,,,0,,,64,47
204960,note_off,240,0,1,,,,,,,,,0,,,65,0
204960,note_off,240,0,2,,,,,,,,,1,,,62,0
204960,note_on,0,0,2,,,,,,,,,1,,,60,47
205320,set_tempo,1800,1,0,,,,,,251046,,,,,,,
205440,note_on,0,0,2,,,,,,,,,1,,,68,46
205440,note_off,480,0,2,,,,,,,,,1,,,60,0
205440,note_on,0,0,1,,,,,,,,,0,,,72,46
205440,note_off,480,0,1,,,,,,,,,0,,,64,0
205440,set_tempo,120,1,0,,,,,,248962,,,,,,,
205920,note_on,1080,0,4,,,,,,,,,4,,,53,47
205920,note_on,0,0,2,,,,,,,,,1,,,68,46
205920,note_off,480,0,2,,,,,,,,,1,,,68,0
205920,note_off,480,0,1,,,,,,,,,0,,,72,0
205920,note_on,0,0,1,,,,,,,,,0,,,72,46
205920,note_on,0,0,4,,,,,,,,,4,,,41,47
206400,note_off,480,0,1,,,,,,,,,0,,,72,0
206400,note_off,480,0,4,,,,,,,,,4,,,41,0
206400,note_off,0,0,4,,,,,,,,,4,,,53,0
206400,note_on,0,0,4,,,,,,,,,4,,,43,47
206400,note_on,0,0,4,,,,,,,,,4,,,55,47
206400,note_on,0,0,1,,,,,,,,,0,,,70,46
206400,note_on,0,0,2,,,,,,,,,1,,,67,46
206400,note_off,480,0,2,,,,,,,,,1,,,68,0
206880,note_off,480,0,1,,,,,,,,,0,,,70,0
206880,note_on,0,0,4,,,,,,,,,4,,,56,47
206880,note_on,0,0,4,,,,,,,,,4,,,44,47
206880,note_off,0,0,4,,,,,,,,,4,,,43,0
206880,note_off,480,0,4,,,,,,,,,4,,,55,0
206880,note_off,480,0,2,,,,,,,,,1,,,67,0
206880,note_on,0,0,2,,,,,,,,,1,,,65,45
206880,note_on,0,0,1,,,,,,,,,0,,,68,45
207100,set_tempo,1660,1,0,,,,,,251046,,,,,,,
207360,note_on,0,0,2,,,,,,,,,1,,,64,45
207360,note_off,480,0,2,,,,,,,,,1,,,65,0
207360,note_on,0,0,4,,,,,,,,,4,,,58,47
207360,set_tempo,260,1,0,,,,,,273972,,,,,,,
207360,note_off,480,0,1,,,,,,,,,0,,,68,0
207360,note_off,480,0,4,,,,,,,,,4,,,56,0
207360,note_off,0,0,4,,,,,,,,,4,,,44,0
207360,note_on,0,0,1,,,,,,,,,0,,,67,45
207360,note_on,0,0,4,,,,,,,,,4,,,46,47
207840,note_off,480,0,1,,,,,,,,,0,,,67,0
207840,note_on,0,0,1,,,,,,,,,0,,,68,45
207840,note_on,0,0,4,,,,,,,,,4,,,59,46
207840,note_off,0,0,4,,,,,,,,,4,,,58,0
207840,note_off,480,0,4,,,,,,,,,4,,,46,0
207840,note_on,0,0,2,,,,,,,,,1,,,65,45
207840,note_off,480,0,2,,,,,,,,,1,,,64,0
207840,note_on,0,0,4,,,,,,,,,4,,,47,46
207855,set_tempo,495,1,0,,,,,,312500,,,,,,,
208320,note_on,0,0,4,,,,,,,,,4,,,48,46
208320,note_on,0,0,4,,,,,,,,,4,,,60,46
208320,note_off,0,0,4,,,,,,,,,4,,,47,0
208320,note_on,0,0,1,,,,,,,,,0,,,67,44
208320,note_off,480,0,1,,,,,,,,,0,,,68,0
208320,note_on,0,0,2,,,,,,,,,1,,,64,44
208320,note_off,480,0,2,,,,,,,,,1,,,65,0
208320,note_off,480,0,4,,,,,,,,,4,,,59,0
208320,set_tempo,465,1,0,,,,,,500000,,,,,,,
209040,note_off,720,0,2,,,,,,,,,1,,,64,0
209040,note_off,720,0,1,,,,,,,,,0,,,67,0
209040,note_off,720,0,4,,,,,,,,,4,,,60,0
209040,note_off,0,0,4,,,,,,,,,4,,,48,0
209280,set_tempo,960,1,0,,,,,,256410,,,,,,,
209280,note_on,240,0,2,,,,,,,,,1,,,65,45
209280,note_on,4440,0,3,,,,,,,,,2,,,56,47
209280,note_on,240,0,4,,,,,,,,,4,,,44,47
209280,note_on,240,0,1,,,,,,,,,0,,,72,45
209640,note_off,360,0,1,,,,,,,,,0,,,72,0
209760,note_on,120,0,1,,,,,,,,,0,,,72,49
210120,note_off,360,0,1,,,,,,,,,0,,,72,0
210240,note_on,120,0,1,,,,,,,,,0,,,74,53
210240,note_on,0,0,4,,,,,,,,,4,,,43,53
210240,note_off,960,0,2,,,,,,,,,1,,,65,0
210240,note_off,960,0,3,,,,,,,,,2,,,56,0
210240,note_on,0,0,3,,,,,,,,,2,,,46,53
210240,note_off,960,0,4,,,,,,,,,4,,,44,0
210720,note_off,480,0,3,,,,,,,,,2,,,46,0
210720,note_off,480,0,1,,,,,,,,,0,,,74,0
210720,note_on,0,0,1,,,,,,,,,0,,,79,56
210720,note_on,0,0,3,,,,,,,,,2,,,58,56
211080,set_tempo,1800,1,0,,,,,,258620,,,,,,,
211080,note_off,360,0,1,,,,,,,,,0,,,79,0
211080,note_off,360,0,3,,,,,,,,,2,,,58,0
211200,note_on,120,0,3,,,,,,,,,2,,,56,59
211200,note_off,960,0,4,,,,,,,,,4,,,43,0
211200,note_on,0,0,4,,,,,,,,,4,,,48,59
211200,note_on,120,0,1,,,,,,,,,0,,,77,60
211560,note_off,360,0,3,,,,,,,,,2,,,56,0
211560,note_off,360,0,1,,,,,,,,,0,,,77,0
211560,set_tempo,480,1,0,,,,,,260869,,,,,,,
211680,note_on,120,0,3,,,,,,,,,2,,,55,62
211680,note_on,120,0,1,,,,,,,,,0,,,76,64
212040,note_off,360,0,1,,,,,,,,,0,,,76,0
212040,note_off,360,0,3,,,,,,,,,2,,,55,0
212160,note_on,120,0,3,,,,,,,,,2,,,53,99
212160,note_on,1920,0,2,,,,,,,,,1,,,68,101
212160,note_on,120,0,1,,,,,,,,,0,,,77,101
212160,set_tempo,600,1,0,,,,,,248962,,,,,,,
212160,note_off,960,0,4,,,,,,,,,4,,,48,0
212160,note_on,0,0,4,,,,,,,,,4,,,49,99
212640,note_off,480,0,2,,,,,,,,,1,,,68,0
212640,note_on,0,0,2,,,,,,,,,1,,,73,95
212640,note_on,0,0,1,,,,,,,,,0,,,79,95
212640,note_off,480,0,1,,,,,,,,,0,,,77,0
212640,note_on,0,0,4,,,,,,,,,4,,,46,95
212640,note_off,480,0,4,,,,,,,,,4,,,49,0
212640,note_off,480,0,3,,,,,,,,,2,,,53,0
212640,note_on,0,0,3,,,,,,,,,2,,,53,95
213000,note_off,360,0,1,,,,,,,,,0,,,79,0
213000,note_off,360,0,3,,,,,,,,,2,,,53,0
213000,note_off,360,0,4,,,,,,,,,4,,,46,0
213000,note_off,360,0,2,,,,,,,,,1,,,73,0
215040,note_on,2040,0,1,,,,,,,,,0,,,80,96
215040,note_on,2040,0,4,,,,,,,,,4,,,48,91
215040,note_on,0,0,2,,,,,,,,,1,,,77,96
215040,note_on,2040,0,2,,,,,,,,,1,,,72,96
215040,note_on,2040,0,3,,,,,,,,,2,,,53,91
215196,note_off,156,0,1,,,,,,,,,0,,,80,0
215196,note_off,156,0,4,,,,,,,,,4,,,48,0
215196,note_off,156,0,3,,,,,,,,,2,,,53,0
215196,note_off,0,0,2,,,,,,,,,1,,,72,0
215196,note_off,156,0,2,,,,,,,,,1,,,77,0
215520,note_on,324,0,3,,,,,,,,,2,,,52,94
215520,note_on,0,0,2,,,,,,,,,1,,,72,99
215520,note_on,324,0,2,,,,,,,,,1,,,79,99
215520,note_on,324,0,4,,,,,,,,,4,,,48,94
215520,note_on,324,0,1,,,,,,,,,0,,,84,99
215676,note_off,156,0,3,,,,,,,,,2,,,52,0
215676,note_off,156,0,1,,,,,,,,,0,,,84,0
215676,note_off,156,0,4,,,,,,,,,4,,,48,0
215676,note_off,0,0,2,,,,,,,,,1,,,79,0
215676,note_off,156,0,2,,,,,,,,,1,,,72,0
216000,control_change,324,0,1,,,,,,,64,0,0,,,,
216000,note_on,0,0,1,,,,,,,,,0,,,77,101
216000,control_change,324,0,4,,,,,,,64,0,4,,,,
216000,note_on,0,0,4,,,,,,,,,4,,,41,97
216000,control_change,324,0,2,,,,,,,64,0,1,,,,
216000,note_on,0,0,3,,,,,,,,,2,,,53,97
216000,control_change,324,0,3,,,,,,,64,0,2,,,,
216156,note_off,156,0,1,,,,,,,,,0,,,77,0
216156,note_off,156,0,3,,,,,,,,,2,,,53,0
216156,note_off,156,0,4,,,,,,,,,4,,,41,0
216480,note_on,324,0,4,,,,,,,,,4,,,48,93
216480,note_on,0,0,4,,,,,,,,,4,,,36,93
216480,note_on,324,0,1,,,,,,,,,0,,,79,93
216480,note_on,480,0,2,,,,,,,,,1,,,76,93
216960,control_change,0,0,1,,,,,,,64,0,0,,,,
216960,control_change,480,0,2,,,,,,,64,0,1,,,,
216960,control_change,804,0,3,,,,,,,64,0,2,,,,
216960,control_change,480,0,4,,,,,,,64,0,4,,,,
216960,set_tempo,4800,1,0,,,,,,248962,,,,,,,
216960,control_change,0,0,1,,,,,,,64,0,0,,,,
216960,control_change,0,0,1,,,,,,,64,0,0,,,,
216960,control_change,480,0,1,,,,,,,64,0,0,,,,
217072,note_off,112,0,4,,,,,,,,,4,,,36,0
217080,note_off,8,0,4,,,,,,,,,4,,,48,0
217095,note_off,135,0,2,,,,,,,,,1,,,76,0
217116,note_off,156,0,1,,,,,,,,,0,,,79,0
217440,note_on,345,0,2,,,,,,,,,1,,,74,79
217440,note_on,360,0,4,,,,,,,,,4,,,47,80
217440,note_on,324,0,1,,,,,,,,,0,,,79,79
217440,note_on,0,0,4,,,,,,,,,4,,,35,80
217596,note_off,156,0,1,,,,,,,,,0,,,79,0
217596,note_off,156,0,2,,,,,,,,,1,,,74,0
217605,note_off,165,0,4,,,,,,,,,4,,,35,0
217620,note_off,15,0,4,,,,,,,,,4,,,47,0
217920,note_on,0,0,4,,,,,,,,,4,,,36,81
217920,note_on,324,0,2,,,,,,,,,1,,,76,80
217920,note_on,300,0,4,,,,,,,,,4,,,48,81
217920,note_on,324,0,1,,,,,,,,,0,,,79,79
218076,note_off,156,0,1,,,,,,,,,0,,,79,0
218400,note_on,324,0,1,,,,,,,,,0,,,80,81
218556,note_off,156,0,1,,,,,,,,,0,,,80,0
218880,note_on,324,0,1,,,,,,,,,0,,,80,82
219036,note_off,156,0,1,,,,,,,,,0,,,80,0
219352,note_off,1432,0,4,,,,,,,,,4,,,48,0
219360,note_on,0,0,4,,,,,,,,,4,,,37,84
219360,note_on,0,0,4,,,,,,,,,4,,,49,84
219360,note_on,0,0,2,,,,,,,,,1,,,77,83
219360,note_off,1440,0,2,,,,,,,,,1,,,76,0
219360,note_on,324,0,1,,,,,,,,,0,,,80,83
219360,note_off,8,0,4,,,,,,,,,4,,,36,0
219516,note_off,156,0,1,,,,,,,,,0,,,80,0
219840,note_on,324,0,1,,,,,,,,,0,,,80,85
219996,note_off,156,0,1,,,,,,,,,0,,,80,0
220005,note_off,645,0,2,,,,,,,,,1,,,77,0
220320,note_on,0,0,4,,,,,,,,,4,,,38,86
220320,note_off,960,0,4,,,,,,,,,4,,,37,0
220320,note_on,0,0,4,,,,,,,,,4,,,50,86
220320,note_on,324,0,1,,,,,,,,,0,,,82,86
220320,note_off,0,0,4,,,,,,,,,4,,,49,0
220320,note_on,315,0,2,,,,,,,,,1,,,80,87
220320,note_on,0,0,2,,,,,,,,,1,,,77,86
220476,note_off,156,0,1,,,,,,,,,0,,,82,0
220800,note_on,324,0,1,,,,,,,,,0,,,82,87
220956,note_off,156,0,1,,,,,,,,,0,,,82,0
220957,note_off,637,0,2,,,,,,,,,1,,,77,0
220957,note_off,0,0,2,,,,,,,,,1,,,80,0
221280,note_on,0,0,4,,,,,,,,,4,,,51,88
221280,note_off,0,0,4,,,,,,,,,4,,,50,0
221280,note_off,960,0,4,,,,,,,,,4,,,38,0
221280,note_on,324,0,1,,,,,,,,,0,,,82,88
221280,note_on,323,0,2,,,,,,,,,1,,,75,88
221280,note_on,0,0,2,,,,,,,,,1,,,79,88
221280,note_on,0,0,4,,,,,,,,,4,,,39,88
221436,note_off,156,0,2,,,,,,,,,1,,,79,0
221436,note_off,156,0,1,,,,,,,,,0,,,82,0
221760,note_on,324,0,1,,,,,,,,,0,,,82,89
221760,note_on,324,0,2,,,,,,,,,1,,,79,89
222240,note_on,0,0,1,,,,,,,,,0,,,84,90
222240,note_off,480,0,1,,,,,,,,,0,,,82,0
222240,note_off,960,0,4,,,,,,,,,4,,,39,0
222240,note_on,0,0,4,,,,,,,,,4,,,32,90
222240,note_on,0,0,4,,,,,,,,,4,,,44,90
222240,note_off,0,0,4,,,,,,,,,4,,,51,0
222240,note_on,0,0,2,,,,,,,,,1,,,80,90
222240,note_off,480,0,2,,,,,,,,,1,,,79,0
222396,note_off,156,0,2,,,,,,,,,1,,,80,0
222396,note_off,156,0,1,,,,,,,,,0,,,84,0
222600,note_off,0,0,4,,,,,,,,,4,,,44,0
222600,note_off,360,0,4,,,,,,,,,4,,,32,0
222652,note_off,256,0,2,,,,,,,,,1,,,75,0
222720,note_on,68,0,2,,,,,,,,,1,,,82,91
222720,note_on,0,0,4,,,,,,,,,4,,,37,91
222720,note_on,120,0,4,,,,,,,,,4,,,49,91
222720,note_on,324,0,1,,,,,,,,,0,,,85,91
222720,note_on,0,0,2,,,,,,,,,1,,,77,91
222876,note_off,156,0,2,,,,,,,,,1,,,77,0
222876,note_off,0,0,2,,,,,,,,,1,,,82,0
222876,note_off,156,0,1,,,,,,,,,0,,,85,0
222876,note_off,0,0,4,,,,,,,,,4,,,49,0
222876,note_off,156,0,4,,,,,,,,,4,,,37,0
223200,note_on,324,0,1,,,,,,,,,0,,,82,95
223200,note_on,0,0,4,,,,,,,,,4,,,39,95
223200,note_on,324,0,4,,,,,,,,,4,,,51,95
223200,note_on,324,0,2,,,,,,,,,1,,,73,95
223200,note_on,0,0,2,,,,,,,,,1,,,77,95
223356,note_off,156,0,4,,,,,,,,,4,,,39,0
223356,note_off,0,0,2,,,,,,,,,1,,,73,0
223356,note_off,156,0,1,,,,,,,,,0,,,82,0
223356,note_off,0,0,4,,,,,,,,,4,,,51,0
223356,note_off,156,0,2,,,,,,,,,1,,,77,0
223440,set_tempo,6480,1,0,,,,,,251046,,,,,,,
223680,note_on,324,0,2,,,,,,,,,1,,,72,100
223680,note_on,324,0,1,,,,,,,,,0,,,80,100
223680,set_tempo,240,1,0,,,,,,253164,,,,,,,
223680,note_on,0,0,4,,,,,,,,,4,,,44,102
223680,note_on,324,0,4,,,,,,,,,4,,,56,102
224400,note_off,720,0,2,,,,,,,,,1,,,72,0
224400,note_off,720,0,1,,,,,,,,,0,,,80,0
224400,note_off,720,0,4,,,,,,,,,4,,,44,0
224400,note_off,0,0,4,,,,,,,,,4,,,56,0
224640,set_tempo,960,1,0,,,,,,248962,,,,,,,
224640,note_on,240,0,1,,,,,,,,,0,,,68,55
225120,note_on,8160,0,3,,,,,,,,,2,,,60,53
225120,note_off,480,0,1,,,,,,,,,0,,,68,0
225120,note_on,720,0,4,,,,,,,,,4,,,56,53
225120,note_on,0,0,1,,,,,,,,,0,,,68,55
225600,note_on,0,0,1,,,,,,,,,0,,,67,55
225600,note_on,0,0,3,,,,,,,,,2,,,61,53
225600,note_off,480,0,3,,,,,,,,,2,,,60,0
225600,note_on,0,0,4,,,,,,,,,4,,,58,53
225600,note_off,480,0,1,,,,,,,,,0,,,68,0
225600,note_off,480,0,4,,,,,,,,,4,,,56,0
225840,note_off,240,0,1,,,,,,,,,0,,,67,0
225840,note_on,0,0,1,,,,,,,,,0,,,65,54
225960,note_off,360,0,3,,,,,,,,,2,,,61,0
225960,note_off,360,0,4,,,,,,,,,4,,,58,0
226080,note_off,240,0,1,,,,,,,,,0,,,65,0
226080,note_on,0,0,1,,,,,,,,,0,,,63,54
226440,set_tempo,1800,1,0,,,,,,251046,,,,,,,
226560,note_off,480,0,1,,,,,,,,,0,,,63,0
226560,note_on,0,0,1,,,,,,,,,0,,,72,54
226560,set_tempo,120,1,0,,,,,,248962,,,,,,,
226560,note_on,2160,0,2,,,,,,,,,1,,,68,54
227040,note_off,480,0,1,,,,,,,,,0,,,72,0
227040,note_on,1080,0,3,,,,,,,,,2,,,60,52
227040,note_on,1080,0,4,,,,,,,,,4,,,56,52
227040,note_on,0,0,1,,,,,,,,,0,,,72,54
227040,note_off,480,0,2,,,,,,,,,1,,,68,0
227040,note_on,0,0,2,,,,,,,,,1,,,68,54
227520,note_off,480,0,3,,,,,,,,,2,,,60,0
227520,note_off,480,0,4,,,,,,,,,4,,,56,0
227520,note_on,0,0,4,,,,,,,,,4,,,58,52
227520,note_off,480,0,1,,,,,,,,,0,,,72,0
227520,note_on,0,0,1,,,,,,,,,0,,,70,53
227520,note_off,480,0,2,,,,,,,,,1,,,68,0
227520,note_on,0,0,2,,,,,,,,,1,,,67,53
227520,note_on,0,0,3,,,,,,,,,2,,,61,52
227760,note_off,240,0,2,,,,,,,,,1,,,67,0
227760,note_on,0,0,2,,,,,,,,,1,,,65,53
227760,note_on,0,0,1,,,,,,,,,0,,,68,53
227760,note_off,240,0,1,,,,,,,,,0,,,70,0
227880,note_off,360,0,3,,,,,,,,,2,,,61,0
227880,note_off,360,0,4,,,,,,,,,4,,,58,0
228000,note_on,0,0,2,,,,,,,,,1,,,63,53
228000,note_off,240,0,2,,,,,,,,,1,,,65,0
228000,note_on,0,0,1,,,,,,,,,0,,,67,53
228000,note_off,240,0,1,,,,,,,,,0,,,68,0
228360,set_tempo,1800,1,0,,,,,,251046,,,,,,,
228480,note_on,0,0,2,,,,,,,,,1,,,72,52
228480,set_tempo,120,1,0,,,,,,248962,,,,,,,
228480,note_off,480,0,2,,,,,,,,,1,,,63,0
228480,note_off,480,0,1,,,,,,,,,0,,,67,0
228480,note_on,0,0,1,,,,,,,,,0,,,75,52
228960,note_on,0,0,4,,,,,,,,,4,,,32,51
228960,note_on,1080,0,4,,,,,,,,,4,,,44,51
228960,note_off,480,0,2,,,,,,,,,1,,,72,0
228960,note_on,0,0,2,,,,,,,,,1,,,72,52
228960,note_on,0,0,1,,,,,,,,,0,,,75,52
228960,note_off,480,0,1,,,,,,,,,0,,,75,0
229440,note_on,0,0,1,,,,,,,,,0,,,73,52
229440,note_off,480,0,1,,,,,,,,,0,,,75,0
229440,note_off,0,0,4,,,,,,,,,4,,,44,0
229440,note_off,480,0,4,,,,,,,,,4,,,32,0
229440,note_on,0,0,4,,,,,,,,,4,,,34,51
229440,note_on,0,0,4,,,,,,,,,4,,,46,51
229440,note_off,480,0,2,,,,,,,,,1,,,72,0
229440,note_on,0,0,2,,,,,,,,,1,,,70,52
229920,note_off,480,0,1,,,,,,,,,0,,,73,0
229920,note_on,0,0,1,,,,,,,,,0,,,72,51
229920,note_off,480,0,4,,,,,,,,,4,,,46,0
229920,note_off,0,0,4,,,,,,,,,4,,,34,0
229920,note_on,0,0,4,,,,,,,,,4,,,48,50
229920,note_on,0,0,4,,,,,,,,,4,,,36,50
229920,note_off,480,0,2,,,,,,,,,1,,,70,0
229920,note_on,0,0,2,,,,,,,,,1,,,68,51
230400,note_off,480,0,2,,,,,,,,,1,,,68,0
230400,note_on,0,0,4,,,,,,,,,4,,,49,50
230400,note_on,0,0,4,,,,,,,,,4,,,37,50
230400,note_off,0,0,4,,,,,,,,,4,,,48,0
230400,note_off,480,0,4,,,,,,,,,4,,,36,0
230400,note_on,0,0,1,,,,,,,,,0,,,70,51
230400,note_off,480,0,1,,,,,,,,,0,,,72,0
230400,note_on,0,0,2,,,,,,,,,1,,,67,51
230880,note_on,0,0,4,,,,,,,,,4,,,50,50
230880,note_off,480,0,4,,,,,,,,,4,,,37,0
230880,note_on,0,0,4,,,,,,,,,4,,,38,50
230880,note_off,0,0,4,,,,,,,,,4,,,49,0
230880,note_off,480,0,2,,,,,,,,,1,,,67,0
230880,note_on,0,0,2,,,,,,,,,1,,,68,51
230880,note_on,0,0,1,,,,,,,,,0,,,72,51
230880,note_off,480,0,1,,,,,,,,,0,,,70,0
231360,note_off,0,0,4,,,,,,,,,4,,,50,0
231360,note_on,0,0,4,,,,,,,,,4,,,51,50
231360,note_on,0,0,4,,,,,,,,,4,,,39,50
231360,note_off,480,0,2,,,,,,,,,1,,,68,0
231360,note_on,0,0,2,,,,,,,,,1,,,67,50
231360,note_on,0,0,1,,,,,,,,,0,,,70,50
231360,note_off,480,0,1,,,,,,,,,0,,,72,0
231360,note_off,480,0,4,,,,,,,,,4,,,38,0
231610,set_tempo,3130,1,0,,,,,,251046,,,,,,,
231840,note_off,480,0,2,,,,,,,,,1,,,67,0
231840,set_tempo,230,1,0,,,,,,260869,,,,,,,
231840,note_on,0,0,2,,,,,,,,,1,,,67,50
231840,note_off,480,0,4,,,,,,,,,4,,,39,0
231840,note_off,0,0,4,,,,,,,,,4,,,51,0
231840,note_on,0,0,4,,,,,,,,,4,,,40,50
231840,note_on,0,0,4,,,,,,,,,4,,,52,50
231840,note_on,0,0,1,,,,,,,,,0,,,72,50
231840,note_off,480,0,1,,,,,,,,,0,,,70,0
232200,note_off,360,0,1,,,,,,,,,0,,,72,0
232200,note_off,360,0,2,,,,,,,,,1,,,67,0
232320,set_tempo,480,1,0,,,,,,248962,,,,,,,
232320,note_off,480,0,4,,,,,,,,,4,,,52,0
232320,note_off,0,0,4,,,,,,,,,4,,,40,0
232320,note_on,0,0,4,,,,,,,,,4,,,53,50
232320,note_on,0,0,4,,,,,,,,,4,,,41,50
232320,note_on,120,0,1,,,,,,,,,0,,,65,49
232800,note_off,480,0,4,,,,,,,,,4,,,41,0
232800,note_off,0,0,4,,,,,,,,,4,,,53,0
232800,note_on,0,0,4,,,,,,,,,4,,,53,49
232800,note_off,480,0,1,,,,,,,,,0,,,65,0
232800,note_on,0,0,1,,,,,,,,,0,,,65,49
232800,note_on,4920,0,3,,,,,,,,,2,,,56,49
233280,note_on,0,0,3,,,,,,,,,2,,,58,49
233280,note_on,0,0,1,,,,,,,,,0,,,64,49
233280,note_off,480,0,1,,,,,,,,,0,,,65,0
233280,note_off,480,0,4,,,,,,,,,4,,,53,0
233280,note_on,0,0,4,,,,,,,,,4,,,55,49
233280,note_off,480,0,3,,,,,,,,,2,,,56,0
233520,note_on,0,0,1,,,,,,,,,0,,,62,49
233520,note_off,240,0,1,,,,,,,,,0,,,64,0
233640,note_off,360,0,3,,,,,,,,,2,,,58,0
233640,note_off,360,0,4,,,,,,,,,4,,,55,0
233760,note_off,240,0,1,,,,,,,,,0,,,62,0
233760,note_on,0,0,1,,,,,,,,,0,,,60,48
234120,set_tempo,1800,1,0,,,,,,251046,,,,,,,
234240,note_on,2040,0,2,,,,,,,,,1,,,65,48
234240,set_tempo,120,1,0,,,,,,248962,,,,,,,
234240,note_on,0,0,1,,,,,,,,,0,,,68,48
234240,note_off,480,0,1,,,,,,,,,0,,,60,0
234720,note_on,1080,0,3,,,,,,,,,2,,,56,48
234720,note_off,480,0,1,,,,,,,,,0,,,68,0
234720,note_off,480,0,2,,,,,,,,,1,,,65,0
234720,note_on,0,0,2,,,,,,,,,1,,,65,48
234720,note_on,1080,0,4,,,,,,,,,4,,,53,48
234720,note_on,0,0,1,,,,,,,,,0,,,68,48
235200,note_off,480,0,3,,,,,,,,,2,,,56,0
235200,note_on,0,0,1,,,,,,,,,0,,,67,47
235200,note_off,480,0,1,,,,,,,,,0,,,68,0
235200,note_on,0,0,2,,,,,,,,,1,,,64,47
235200,note_off,480,0,2,,,,,,,,,1,,,65,0
235200,note_on,0,0,4,,,,,,,,,4,,,55,48
235200,note_off,480,0,4,,,,,,,,,4,,,53,0
235200,note_on,0,0,3,,,,,,,,,2,,,58,48
235440,note_off,240,0,2,,,,,,,,,1,,,64,0
235440,note_on,0,0,2,,,,,,,,,1,,,62,47
235440,note_on,0,0,1,,,,,,,,,0,,,65,47
235440,note_off,240,0,1,,,,,,,,,0,,,67,0
235560,note_off,360,0,4,,,,,,,,,4,,,55,0
235560,note_off,360,0,3,,,,,,,,,2,,,58,0
235680,note_off,240,0,2,,,,,,,,,1,,,62,0
235680,note_on,0,0,1,,,,,,,,,0,,,64,47
235680,note_off,240,0,1,,,,,,,,,0,,,65,0
235680,note_on,0,0,2,,,,,,,,,1,,,60,47
236040,set_tempo,1800,1,0,,,,,,251046,,,,,,,
236160,set_tempo,120,1,0,,,,,,248962,,,,,,,
236160,note_off,480,0,2,,,,,,,,,1,,,60,0
236160,note_on,0,0,2,,,,,,,,,1,,,68,46
236160,note_on,0,0,1,,,,,,,,,0,,,72,46
236160,note_off,480,0,1,,,,,,,,,0,,,64,0
236640,note_off,480,0,2,,,,,,,,,1,,,68,0
236640,note_on,0,0,1,,,,,,,,,0,,,72,46
236640,note_on,0,0,2,,,,,,,,,1,,,68,46
236640,note_on,1080,0,4,,,,,,,,,4,,,41,47
236640,note_off,480,0,1,,,,,,,,,0,,,72,0
236640,note_on,0,0,4,,,,,,,,,4,,,53,47
237120,note_off,480,0,1,,,,,,,,,0,,,72,0
237120,note_on,0,0,1,,,,,,,,,0,,,70,46
237120,note_on,0,0,4,,,,,,,,,4,,,43,47
237120,note_on,0,0,4,,,,,,,,,4,,,55,47
237120,note_off,0,0,4,,,,,,,,,4,,,41,0
237120,note_on,0,0,2,,,,,,,,,1,,,67,46
237120,note_off,480,0,4,,,,,,,,,4,,,53,0
237120,note_off,480,0,2,,,,,,,,,1,,,68,0
237600,note_off,0,0,4,,,,,,,,,4,,,55,0
237600,note_off,480,0,4,,,,,,,,,4,,,43,0
237600,note_off,480,0,2,,,,,,,,,1,,,67,0
237600,note_on,0,0,4,,,,,,,,,4,,,56,47
237600,note_on,0,0,4,,,,,,,,,4,,,44,47
237600,note_on,0,0,2,,,,,,,,,1,,,65,45
237600,note_on,0,0,1,,,,,,,,,0,,,68,45
237600,note_off,480,0,1,,,,,,,,,0,,,70,0
237840,set_tempo,1680,1,0,,,,,,251046,,,,,,,
238080,note_off,480,0,4,,,,,,,,,4,,,44,0
238080,note_off,0,0,4,,,,,,,,,4,,,56,0
238080,note_on,0,0,4,,,,,,,,,4,,,46,47
238080,note_on,0,0,2,,,,,,,,,1,,,64,45
238080,note_off,480,0,2,,,,,,,,,1,,,65,0
238080,note_on,0,0,4,,,,,,,,,4,,,58,47
238080,note_on,0,0,1,,,,,,,,,0,,,67,45
238080,note_off,480,0,1,,,,,,,,,0,,,68,0
238100,set_tempo,260,1,0,,,,,,273972,,,,,,,
238560,note_off,480,0,2,,,,,,,,,1,,,64,0
238560,note_on,0,0,2,,,,,,,,,1,,,65,45
238560,note_on,0,0,4,,,,,,,,,4,,,59,46
238560,note_on,0,0,1,,,,,,,,,0,,,68,45
238560,note_off,480,0,1,,,,,,,,,0,,,67,0
238560,note_on,0,0,4,,,,,,,,,4,,,47,46
238560,note_off,0,0,4,,,,,,,,,4,,,46,0
238560,note_off,480,0,4,,,,,,,,,4,,,58,0
238595,set_tempo,495,1,0,,,,,,312500,,,,,,,
239040,note_off,0,0,4,,,,,,,,,4,,,59,0
239040,note_on,0,0,4,,,,,,,,,4,,,60,46
239040,note_on,0,0,4,,,,,,,,,4,,,48,46
239040,note_on,0,0,1,,,,,,,,,0,,,67,44
239040,note_off,480,0,1,,,,,,,,,0,,,68,0
239040,note_off,480,0,4,,,,,,,,,4,,,47,0
239040,note_on,0,0,2,,,,,,,,,1,,,64,44
239040,note_off,480,0,2,,,,,,,,,1,,,65,0
239060,set_tempo,465,1,0,,,,,,500000,,,,,,,
239760,note_off,720,0,4,,,,,,,,,4,,,48,0
239760,note_off,0,0,4,,,,,,,,,4,,,60,0
239760,note_off,720,0,1,,,,,,,,,0,,,67,0
239760,note_off,720,0,2,,,,,,,,,1,,,64,0
240000,note_on,4440,0,3,,,,,,,,,2,,,56,47
240000,note_on,240,0,2,,,,,,,,,1,,,65,45
240000,note_on,240,0,1,,,,,,,,,0,,,72,45
240000,set_tempo,940,1,0,,,,,,256410,,,,,,,
240000,note_on,240,0,4,,,,,,,,,4,,,44,47
240360,note_off,360,0,1,,,,,,,,,0,,,72,0
240480,note_on,120,0,1,,,,,,,,,0,,,72,49
240840,note_off,360,0,1,,,,,,,,,0,,,72,0
240960,note_on,0,0,3,,,,,,,,,2,,,46,53
240960,note_on,0,0,4,,,,,,,,,4,,,43,53
240960,note_on,120,0,1,,,,,,,,,0,,,74,53
240960,note_off,960,0,3,,,,,,,,,2,,,56,0
240960,note_off,960,0,4,,,,,,,,,4,,,44,0
240960,note_off,960,0,2,,,,,,,,,1,,,65,0
241440,note_off,480,0,1,,,,,,,,,0,,,74,0
241440,note_off,480,0,3,,,,,,,,,2,,,46,0
241440,note_on,0,0,3,,,,,,,,,2,,,58,56
241440,note_on,0,0,1,,,,,,,,,0,,,79,55
241800,set_tempo,1800,1,0,,,,,,258620,,,,,,,
241800,note_off,360,0,3,,,,,,,,,2,,,58,0
241920,note_off,480,0,1,,,,,,,,,0,,,79,0
241920,note_on,120,0,3,,,,,,,,,2,,,56,59
241920,note_on,0,0,4,,,,,,,,,4,,,48,59
241920,note_off,960,0,4,,,,,,,,,4,,,43,0
241920,note_on,0,0,1,,,,,,,,,0,,,77,60
242280,set_tempo,480,1,0,,,,,,260869,,,,,,,
242280,note_off,360,0,3,,,,,,,,,2,,,56,0
242280,note_off,360,0,1,,,,,,,,,0,,,77,0
242400,note_on,120,0,3,,,,,,,,,2,,,55,62
242400,note_on,120,0,1,,,,,,,,,0,,,76,64
242760,note_off,360,0,3,,,,,,,,,2,,,55,0
242760,note_off,360,0,1,,,,,,,,,0,,,76,0
242880,set_tempo,600,1,0,,,,,,248962,,,,,,,
242880,note_on,120,0,1,,,,,,,,,0,,,77,101
242880,note_on,120,0,3,,,,,,,,,2,,,53,99
242880,note_on,1920,0,2,,,,,,,,,1,,,68,101
242880,note_off,960,0,4,,,,,,,,,4,,,48,0
242880,note_on,0,0,4,,,,,,,,,4,,,49,99
243360,note_off,480,0,4,,,,,,,,,4,,,49,0
243360,note_on,0,0,4,,,,,,,,,4,,,46,95
243360,note_off,480,0,2,,,,,,,,,1,,,68,0
243360,note_on,0,0,2,,,,,,,,,1,,,73,95
243360,note_on,0,0,3,,,,,,,,,2,,,53,95
243360,note_on,0,0,1,,,,,,,,,0,,,79,95
243360,note_off,480,0,1,,,,,,,,,0,,,77,0
243360,note_off,480,0,3,,,,,,,,,2,,,53,0
243720,note_off,360,0,1,,,,,,,,,0,,,79,0
243720,note_off,360,0,3,,,,,,,,,2,,,53,0
243720,note_off,360,0,4,,,,,,,,,4,,,46,0
243720,note_off,360,0,2,,,,,,,,,1,,,73,0
245760,note_on,2040,0,2,,,,,,,,,1,,,77,96
245760,note_on,0,0,2,,,,,,,,,1,,,72,96
245760,note_on,2040,0,1,,,,,,,,,0,,,80,96
245760,note_on,2040,0,3,,,,,,,,,2,,,53,91
245760,note_on,2040,0,4,,,,,,,,,4,,,48,91
245916,note_off,156,0,1,,,,,,,,,0,,,80,0
245916,note_off,156,0,2,,,,,,,,,1,,,72,0
245916,note_off,156,0,3,,,,,,,,,2,,,53,0
245916,note_off,156,0,4,,,,,,,,,4,,,48,0
245916,note_off,0,0,2,,,,,,,,,1,,,77,0
246240,note_on,0,0,2,,,,,,,,,1,,,79,99
246240,note_on,324,0,4,,,,,,,,,4,,,48,94
246240,note_on,324,0,3,,,,,,,,,2,,,52,94
246240,note_on,324,0,1,,,,,,,,,0,,,84,99
246240,note_on,324,0,2,,,,,,,,,1,,,72,99
246396,note_off,156,0,4,,,,,,,,,4,,,48,0
246396,note_off,156,0,3,,,,,,,,,2,,,52,0
246396,note_off,156,0,2,,,,,,,,,1,,,79,0
246396,note_off,0,0,2,,,,,,,,,1,,,72,0
246396,note_off,156,0,1,,,,,,,,,0,,,84,0
246720,marker,0,1,0,,,,,,,,,,,,,
246720,set_tempo,3840,1,0,,,,,,254237,,,,,,,
246720,note_on,324,0,3,,,,,,,,,2,,,53,97
246720,note_on,324,0,4,,,,,,,,,4,,,41,97
246720,note_on,324,0,1,,,,,,,,,0,,,77,101
246876,note_off,156,0,3,,,,,,,,,2,,,53,0
246876,note_off,156,0,1,,,,,,,,,0,,,77,0
246876,note_off,156,0,4,,,,,,,,,4,,,41,0
247200,control_change,324,0,4,,,,,,,64,0,4,,,,
247200,control_change,324,0,3,,,,,,,64,0,2,,,,
247200,control_change,804,0,2,,,,,,,64,0,1,,,,
247200,control_change,324,0,1,,,,,,,64,0,0,,,,
247200,note_on,0,0,1,,,,,,,,,0,,,89,105
247680,note_on,480,0,4,,,,,,,,,4,,,37,102
247785,set_tempo,1065,1,0,,,,,,248962,,,,,,,
247920,note_on,0,0,1,,,,,,,,,0,,,84,99
247920,note_off,720,0,1,,,,,,,,,0,,,89,0
248160,note_on,480,0,4,,,,,,,,,4,,,53,91
248160,note_off,240,0,1,,,,,,,,,0,,,84,0
248160,note_on,0,0,1,,,,,,,,,0,,,87,97
248400,note_off,240,0,1,,,,,,,,,0,,,87,0
248400,note_on,0,0,1,,,,,,,,,0,,,85,95
248640,note_off,240,0,1,,,,,,,,,0,,,85,0
248640,note_on,0,0,1,,,,,,,,,0,,,80,93
248640,note_off,480,0,4,,,,,,,,,4,,,53,0
248880,note_off,240,0,1,,,,,,,,,0,,,80,0
248880,note_on,0,0,1,,,,,,,,,0,,,84,91
249120,note_on,480,0,4,,,,,,,,,4,,,56,84
249120,note_off,240,0,1,,,,,,,,,0,,,84,0
249120,note_on,0,0,1,,,,,,,,,0,,,82,89
249360,note_off,240,0,1,,,,,,,,,0,,,82,0
249360,note_on,0,0,1,,,,,,,,,0,,,79,86
249600,note_on,0,0,1,,,,,,,,,0,,,82,85
249600,note_off,480,0,4,,,,,,,,,4,,,56,0
249600,note_off,240,0,1,,,,,,,,,0,,,79,0
249840,note_off,240,0,1,,,,,,,,,0,,,82,0
249840,note_on,0,0,1,,,,,,,,,0,,,77,83
250080,note_off,240,0,1,,,,,,,,,0,,,77,0
250080,note_on,480,0,4,,,,,,,,,4,,,53,76
250080,note_on,0,0,1,,,,,,,,,0,,,80,81
250320,note_off,240,0,1,,,,,,,,,0,,,80,0
250320,note_on,0,0,1,,,,,,,,,0,,,78,79
250560,note_off,480,0,4,,,,,,,,,4,,,53,0
250560,note_off,240,0,1,,,,,,,,,0,,,78,0
250560,note_on,0,0,1,,,,,,,,,0,,,75,77
250800,note_off,240,0,1,,,,,,,,,0,,,75,0
250800,note_on,0,0,1,,,,,,,,,0,,,78,75
251040,note_off,240,0,1,,,,,,,,,0,,,78,0
251040,note_on,0,0,1,,,,,,,,,0,,,77,73
251040,note_on,480,0,4,,,,,,,,,4,,,56,68
251280,note_off,240,0,1,,,,,,,,,0,,,77,0
251280,note_on,0,0,1,,,,,,,,,0,,,73,71
251520,note_off,480,0,4,,,,,,,,,4,,,56,0
251520,note_off,240,0,1,,,,,,,,,0,,,73,0
251520,note_on,0,0,1,,,,,,,,,0,,,78,69
251760,note_off,240,0,1,,,,,,,,,0,,,78,0
251760,note_on,0,0,1,,,,,,,,,0,,,74,67
252000,note_on,480,0,4,,,,,,,,,4,,,60,60
252000,note_on,0,0,1,,,,,,,,,0,,,77,65
252000,note_off,240,0,1,,,,,,,,,0,,,74,0
252240,note_on,0,0,1,,,,,,,,,0,,,75,63
252240,note_off,240,0,1,,,,,,,,,0,,,77,0
252480,note_off,240,0,1,,,,,,,,,0,,,75,0
252480,note_on,0,0,1,,,,,,,,,0,,,71,61
252480,note_off,480,0,4,,,,,,,,,4,,,60,0
252720,note_off,240,0,1,,,,,,,,,0,,,71,0
252720,note_on,0,0,1,,,,,,,,,0,,,73,59
252960,note_on,480,0,4,,,,,,,,,4,,,75,52
252960,note_on,0,0,1,,,,,,,,,0,,,72,57
252960,note_off,240,0,1,,,,,,,,,0,,,73,0
253200,note_on,0,0,1,,,,,,,,,0,,,68,55
253200,note_off,240,0,1,,,,,,,,,0,,,72,0
253440,note_on,0,0,1,,,,,,,,,0,,,70,53
253440,note_off,480,0,4,,,,,,,,,4,,,75,0
253440,note_off,240,0,1,,,,,,,,,0,,,68,0
253680,note_on,0,0,1,,,,,,,,,0,,,66,51
253680,note_off,240,0,1,,,,,,,,,0,,,70,0
253920,note_on,480,0,4,,,,,,,,,4,,,84,44
253920,note_on,0,0,1,,,,,,,,,0,,,70,49
253920,note_off,240,0,1,,,,,,,,,0,,,66,0
254160,note_on,0,0,1,,,,,,,,,0,,,68,47
254160,note_off,240,0,1,,,,,,,,,0,,,70,0
254400,note_off,240,0,1,,,,,,,,,0,,,68,0
254400,note_on,0,0,1,,,,,,,,,0,,,65,79
254400,note_off,480,0,4,,,,,,,,,4,,,84,0
254400,note_on,0,0,4,,,,,,,,,4,,,85,79
254880,note_off,480,0,4,,,,,,,,,4,,,85,0
254880,note_off,480,0,1,,,,,,,,,0,,,65,0
254880,note_on,0,0,1,,,,,,,,,0,,,89,93
254895,set_tempo,7110,1,0,,,,,,251046,,,,,,,
254910,note_off,30,0,4,,,,,,,,,4,,,37,0
255360,note_on,450,0,4,,,,,,,,,4,,,37,93
255465,set_tempo,570,1,0,,,,,,248962,,,,,,,
255600,note_on,0,0,1,,,,,,,,,0,,,84,88
255600,note_off,720,0,1,,,,,,,,,0,,,89,0
255840,note_off,240,0,1,,,,,,,,,0,,,84,0
255840,note_on,0,0,1,,,,,,,,,0,,,87,86
255840,note_on,480,0,4,,,,,,,,,4,,,53,88
256080,note_on,0,0,1,,,,,,,,,0,,,85,85
256080,note_off,240,0,1,,,,,,,,,0,,,87,0
256320,note_off,480,0,4,,,,,,,,,4,,,53,0
256320,note_on,0,0,1,,,,,,,,,0,,,80,83
256320,note_off,240,0,1,,,,,,,,,0,,,85,0
256560,note_off,240,0,1,,,,,,,,,0,,,80,0
256560,note_on,0,0,1,,,,,,,,,0,,,84,82
256800,note_off,240,0,1,,,,,,,,,0,,,84,0
256800,note_on,0,0,1,,,,,,,,,0,,,82,80
256800,note_on,480,0,4,,,,,,,,,4,,,56,81
257040,note_off,240,0,1,,,,,,,,,0,,,82,0
257040,note_on,0,0,1,,,,,,,,,0,,,79,79
257280,note_on,0,0,1,,,,,,,,,0,,,82,77
257280,note_off,240,0,1,,,,,,,,,0,,,79,0
257280,note_off,480,0,4,,,,,,,,,4,,,56,0
257520,note_on,0,0,1,,,,,,,,,0,,,77,75
257520,note_off,240,0,1,,,,,,,,,0,,,82,0
257760,note_on,480,0,4,,,,,,,,,4,,,53,74
257760,note_on,0,0,1,,,,,,,,,0,,,80,73
257760,note_off,240,0,1,,,,,,,,,0,,,77,0
258000,note_off,240,0,1,,,,,,,,,0,,,80,0
258000,note_on,0,0,1,,,,,,,,,0,,,78,72
258240,note_off,480,0,4,,,,,,,,,4,,,53,0
258240,note_off,240,0,1,,,,,,,,,0,,,78,0
258240,note_on,0,0,1,,,,,,,,,0,,,75,70
258480,note_off,240,0,1,,,,,,,,,0,,,75,0
258480,note_on,0,0,1,,,,,,,,,0,,,78,69
258720,note_on,0,0,1,,,,,,,,,0,,,77,67
258720,note_on,480,0,4,,,,,,,,,4,,,56,68
258720,note_off,240,0,1,,,,,,,,,0,,,78,0
258960,note_on,0,0,1,,,,,,,,,0,,,73,65
258960,note_off,240,0,1,,,,,,,,,0,,,77,0
259200,note_off,480,0,4,,,,,,,,,4,,,56,0
259200,note_on,0,0,1,,,,,,,,,0,,,77,64
259200,note_off,240,0,1,,,,,,,,,0,,,73,0
259440,note_on,0,0,1,,,,,,,,,0,,,72,62
259440,note_off,240,0,1,,,,,,,,,0,,,77,0
259680,note_on,480,0,4,,,,,,,,,4,,,65,61
259680,note_on,0,0,1,,,,,,,,,0,,,75,60
259680,note_off,240,0,1,,,,,,,,,0,,,72,0
259920,note_on,0,0,1,,,,,,,,,0,,,73,59
259920,note_off,240,0,1,,,,,,,,,0,,,75,0
260160,note_on,0,0,1,,,,,,,,,0,,,68,57
260160,note_off,480,0,4,,,,,,,,,4,,,65,0
260160,note_off,240,0,1,,,,,,,,,0,,,73,0
260400,note_off,240,0,1,,,,,,,,,0,,,68,0
260400,note_on,0,0,1,,,,,,,,,0,,,73,56
260640,note_off,240,0,1,,,,,,,,,0,,,73,0
260640,note_on,0,0,1,,,,,,,,,0,,,71,54
260640,note_on,480,0,4,,,,,,,,,4,,,77,54
260880,note_on,0,0,1,,,,,,,,,0,,,68,52
260880,note_off,240,0,1,,,,,,,,,0,,,71,0
261120,note_off,480,0,4,,,,,,,,,4,,,77,0
261120,note_off,240,0,1,,,,,,,,,0,,,68,0
261120,note_on,0,0,1,,,,,,,,,0,,,71,51
261360,note_on,0,0,1,,,,,,,,,0,,,68,49
261360,note_off,240,0,1,,,,,,,,,0,,,71,0
261600,note_on,480,0,4,,,,,,,,,4,,,89,48
261600,note_on,0,0,1,,,,,,,,,0,,,71,47
261600,note_off,240,0,1,,,,,,,,,0,,,68,0
261840,note_off,240,0,1,,,,,,,,,0,,,71,0
261840,note_on,0,0,1,,,,,,,,,0,,,69,46
262080,note_off,240,0,1,,,,,,,,,0,,,69,0
262080,note_off,480,0,4,,,,,,,,,4,,,89,0
262080,note_on,0,0,4,,,,,,,,,4,,,90,79
262080,note_on,0,0,1,,,,,,,,,0,,,70,79
262550,set_tempo,7085,1,0,,,,,,251046,,,,,,,
262560,note_on,0,0,1,,,,,,,,,0,,,94,96
262560,note_off,480,0,4,,,,,,,,,4,,,90,0
262560,note_off,480,0,1,,,,,,,,,0,,,70,0
262575,note_off,15,0,4,,,,,,,,,4,,,37,0
263040,note_on,465,0,4,,,,,,,,,4,,,42,92
263145,set_tempo,595,1,0,,,,,,248962,,,,,,,
263280,note_on,0,0,1,,,,,,,,,0,,,89,91
263280,note_off,720,0,1,,,,,,,,,0,,,94,0
263520,note_off,240,0,1,,,,,,,,,0,,,89,0
263520,note_on,480,0,4,,,,,,,,,4,,,58,89
263520,note_on,0,0,1,,,,,,,,,0,,,92,89
263760,note_on,0,0,1,,,,,,,,,0,,,90,88
263760,note_off,240,0,1,,,,,,,,,0,,,92,0
264000,note_off,480,0,4,,,,,,,,,4,,,58,0
264000,note_on,0,0,1,,,,,,,,,0,,,85,86
264000,note_off,240,0,1,,,,,,,,,0,,,90,0
264240,note_off,240,0,1,,,,,,,,,0,,,85,0
264240,note_on,0,0,1,,,,,,,,,0,,,89,84
264480,note_on,480,0,4,,,,,,,,,4,,,61,82
264480,note_on,0,0,1,,,,,,,,,0,,,87,82
264480,note_off,240,0,1,,,,,,,,,0,,,89,0
264720,note_on,0,0,1,,,,,,,,,0,,,84,81
264720,note_off,240,0,1,,,,,,,,,0,,,87,0
264960,note_off,240,0,1,,,,,,,,,0,,,84,0
264960,note_on,0,0,1,,,,,,,,,0,,,87,79
264960,note_off,480,0,4,,,,,,,,,4,,,61,0
265200,note_off,240,0,1,,,,,,,,,0,,,87,0
265200,note_on,0,0,1,,,,,,,,,0,,,82,77
265440,note_off,240,0,1,,,,,,,,,0,,,82,0
265440,note_on,0,0,1,,,,,,,,,0,,,85,75
265440,note_on,480,0,4,,,,,,,,,4,,,58,75
265680,note_off,240,0,1,,,,,,,,,0,,,85,0
265680,note_on,0,0,1,,,,,,,,,0,,,83,74
265920,note_off,480,0,4,,,,,,,,,4,,,58,0
265920,note_on,0,0,1,,,,,,,,,0,,,80,72
265920,note_off,240,0,1,,,,,,,,,0,,,83,0
266160,note_off,240,0,1,,,,,,,,,0,,,80,0
266160,note_on,0,0,1,,,,,,,,,0,,,83,70
266400,note_on,480,0,4,,,,,,,,,4,,,61,68
266400,note_off,240,0,1,,,,,,,,,0,,,83,0
266400,note_on,0,0,1,,,,,,,,,0,,,82,69
266640,note_off,240,0,1,,,,,,,,,0,,,82,0
266640,note_on,0,0,1,,,,,,,,,0,,,78,67
266880,note_off,240,0,1,,,,,,,,,0,,,78,0
266880,note_off,480,0,4,,,,,,,,,4,,,61,0
266880,note_on,0,0,1,,,,,,,,,0,,,83,65
267120,note_on,0,0,1,,,,,,,,,0,,,79,63
267120,note_off,240,0,1,,,,,,,,,0,,,83,0
267360,note_on,480,0,4,,,,,,,,,4,,,65,62
267360,note_on,0,0,1,,,,,,,,,0,,,82,62
267360,note_off,240,0,1,,,,,,,,,0,,,79,0
267600,note_on,0,0,1,,,,,,,,,0,,,80,60
267600,note_off,240,0,1,,,,,,,,,0,,,82,0
267840,note_off,240,0,1,,,,,,,,,0,,,80,0
267840,note_off,480,0,4,,,,,,,,,4,,,65,0
267840,note_on,0,0,1,,,,,,,,,0,,,76,58
268080,note_off,240,0,1,,,,,,,,,0,,,76,0
268080,note_on,0,0,1,,,,,,,,,0,,,78,56
268320,note_off,240,0,1,,,,,,,,,0,,,78,0
268320,note_on,480,0,4,,,,,,,,,4,,,80,55
268320,note_on,0,0,1,,,,,,,,,0,,,77,55
268560,note_on,0,0,1,,,,,,,,,0,,,73,53
268560,note_off,240,0,1,,,,,,,,,0,,,77,0
268800,note_off,240,0,1,,,,,,,,,0,,,73,0
268800,note_on,0,0,1,,,,,,,,,0,,,75,51
268800,note_off,480,0,4,,,,,,,,,4,,,80,0
269040,note_on,0,0,1,,,,,,,,,0,,,71,50
269040,note_off,240,0,1,,,,,,,,,0,,,75,0
269280,note_on,480,0,4,,,,,,,,,4,,,89,48
269280,note_off,240,0,1,,,,,,,,,0,,,71,0
269280,note_on,0,0,1,,,,,,,,,0,,,75,48
269520,note_on,0,0,1,,,,,,,,,0,,,73,46
269520,note_off,240,0,1,,,,,,,,,0,,,75,0
269760,note_on,0,0,1,,,,,,,,,0,,,70,79
269760,note_off,240,0,1,,,,,,,,,0,,,73,0
269760,note_on,0,0,4,,,,,,,,,4,,,90,79
269760,note_off,480,0,4,,,,,,,,,4,,,89,0
270240,set_tempo,7095,1,0,,,,,,251046,,,,,,,
270240,note_on,0,0,1,,,,,,,,,0,,,94,95
270240,note_off,480,0,1,,,,,,,,,0,,,70,0
270240,note_off,0,0,4,,,,,,,,,4,,,42,0
270240,note_off,480,0,4,,,,,,,,,4,,,90,0
270720,note_on,480,0,4,,,,,,,,,4,,,42,91
270840,set_tempo,600,1,0,,,,,,248962,,,,,,,
270960,note_off,720,0,1,,,,,,,,,0,,,94,0
270960,note_on,0,0,1,,,,,,,,,0,,,89,90
271200,note_off,240,0,1,,,,,,,,,0,,,89,0
271200,note_on,0,0,1,,,,,,,,,0,,,92,88
271200,note_on,480,0,4,,,,,,,,,4,,,58,88
271440,note_off,240,0,1,,,,,,,,,0,,,92,0
271440,note_on,0,0,1,,,,,,,,,0,,,90,86
271680,note_off,480,0,4,,,,,,,,,4,,,58,0
271680,note_off,240,0,1,,,,,,,,,0,,,90,0
271680,note_on,0,0,1,,,,,,,,,0,,,85,85
271920,note_on,0,0,1,,,,,,,,,0,,,89,83
271920,note_off,240,0,1,,,,,,,,,0,,,85,0
272160,note_off,240,0,1,,,,,,,,,0,,,89,0
272160,note_on,0,0,1,,,,,,,,,0,,,87,81
272160,note_on,480,0,4,,,,,,,,,4,,,61,81
272400,note_off,240,0,1,,,,,,,,,0,,,87,0
272400,note_on,0,0,1,,,,,,,,,0,,,84,80
272640,note_off,480,0,4,,,,,,,,,4,,,61,0
272640,note_off,240,0,1,,,,,,,,,0,,,84,0
272640,note_on,0,0,1,,,,,,,,,0,,,87,78
272880,note_on,0,0,1,,,,,,,,,0,,,82,76
272880,note_off,240,0,1,,,,,,,,,0,,,87,0
273120,note_on,0,0,1,,,,,,,,,0,,,85,75
273120,note_on,480,0,4,,,,,,,,,4,,,58,74
273120,note_off,240,0,1,,,,,,,,,0,,,82,0
273360,note_on,0,0,1,,,,,,,,,0,,,83,73
273360,note_off,240,0,1,,,,,,,,,0,,,85,0
273600,note_on,0,0,1,,,,,,,,,0,,,80,71
273600,note_off,240,0,1,,,,,,,,,0,,,83,0
273600,note_off,480,0,4,,,,,,,,,4,,,58,0
273840,note_on,0,0,1,,,,,,,,,0,,,83,70
273840,note_off,240,0,1,,,,,,,,,0,,,80,0
274080,note_on,0,0,1,,,,,,,,,0,,,82,68
274080,note_on,480,0,4,,,,,,,,,4,,,61,67
274080,note_off,240,0,1,,,,,,,,,0,,,83,0
274320,note_on,0,0,1,,,,,,,,,0,,,78,66
274320,note_off,240,0,1,,,,,,,,,0,,,82,0
274560,note_off,240,0,1,,,,,,,,,0,,,78,0
274560,note_on,0,0,1,,,,,,,,,0,,,83,64
274560,note_off,480,0,4,,,,,,,,,4,,,61,0
274800,note_off,240,0,1,,,,,,,,,0,,,83,0
274800,note_on,0,0,1,,,,,,,,,0,,,79,62
275040,note_on,0,0,1,,,,,,,,,0,,,82,61
275040,note_off,240,0,1,,,,,,,,,0,,,79,0
275040,note_on,480,0,4,,,,,,,,,4,,,53,60
275040,note_on,0,0,4,,,,,,,,,4,,,62,60
275280,note_off,240,0,1,,,,,,,,,0,,,82,0
275280,note_on,0,0,1,,,,,,,,,0,,,80,59
275520,note_off,480,0,4,,,,,,,,,4,,,62,0
275520,note_off,240,0,1,,,,,,,,,0,,,80,0
275520,note_on,0,0,1,,,,,,,,,0,,,77,58
275520,note_off,0,0,4,,,,,,,,,4,,,53,0
275760,note_off,240,0,1,,,,,,,,,0,,,77,0
275760,note_on,0,0,1,,,,,,,,,0,,,80,56
276000,note_off,240,0,1,,,,,,,,,0,,,80,0
276000,note_on,0,0,1,,,,,,,,,0,,,78,54
276000,note_on,480,0,4,,,,,,,,,4,,,82,53
276240,note_off,240,0,1,,,,,,,,,0,,,78,0
276240,note_on,0,0,1,,,,,,,,,0,,,75,53
276480,note_off,240,0,1,,,,,,,,,0,,,75,0
276480,note_off,480,0,4,,,,,,,,,4,,,82,0
276480,note_on,0,0,1,,,,,,,,,0,,,74,51
276480,note_off,0,0,4,,,,,,,,,4,,,42,0
276720,note_off,240,0,1,,,,,,,,,0,,,74,0
276720,note_on,0,0,1,,,,,,,,,0,,,68,49
276960,note_on,0,0,1,,,,,,,,,0,,,71,48
276960,note_off,240,0,1,,,,,,,,,0,,,68,0
276960,note_on,480,0,4,,,,,,,,,4,,,98,46
277200,note_on,0,0,1,,,,,,,,,0,,,70,46
277200,note_off,240,0,1,,,,,,,,,0,,,71,0
277440,note_off,480,0,4,,,,,,,,,4,,,98,0
277440,note_on,0,0,4,,,,,,,,,4,,,99,79
277440,note_on,0,0,1,,,,,,,,,0,,,66,79
277440,note_off,240,0,1,,,,,,,,,0,,,70,0
277920,set_tempo,7080,1,0,,,,,,251046,,,,,,,
277920,note_on,0,0,1,,,,,,,,,0,,,90,89
277920,note_off,480,0,1,,,,,,,,,0,,,66,0
277920,note_off,480,0,4,,,,,,,,,4,,,99,0
278400,note_on,480,0,4,,,,,,,,,4,,,39,79
278505,set_tempo,585,1,0,,,,,,248962,,,,,,,
278640,note_on,0,0,1,,,,,,,,,0,,,86,82
278640,note_off,720,0,1,,,,,,,,,0,,,90,0
278880,note_on,0,0,1,,,,,,,,,0,,,89,79
278880,note_on,31680,0,3,,,,,,,,,2,,,54,90
278880,note_off,240,0,1,,,,,,,,,0,,,86,0
279120,note_off,240,0,1,,,,,,,,,0,,,89,0
279120,note_on,0,0,1,,,,,,,,,0,,,87,77
279360,note_off,240,0,1,,,,,,,,,0,,,87,0
279360,note_on,0,0,1,,,,,,,,,0,,,78,75
279360,note_off,960,0,4,,,,,,,,,4,,,39,0
279360,note_off,480,0,3,,,,,,,,,2,,,54,0
279600,note_off,240,0,1,,,,,,,,,0,,,78,0
279840,note_on,480,0,3,,,,,,,,,2,,,48,91
279840,note_on,0,0,2,,,,,,,,,1,,,87,94
279840,note_on,240,0,1,,,,,,,,,0,,,90,94
279840,note_on,0,0,3,,,,,,,,,2,,,44,91
279840,note_on,32640,0,2,,,,,,,,,1,,,78,94
279855,set_tempo,1350,1,0,,,,,,251046,,,,,,,
280320,note_off,480,0,2,,,,,,,,,1,,,87,0
280320,note_off,480,0,3,,,,,,,,,2,,,44,0
280320,note_off,0,0,3,,,,,,,,,2,,,48,0
280320,note_on,0,0,1,,,,,,,,,0,,,77,79
280320,note_off,480,0,1,,,,,,,,,0,,,90,0
280320,note_off,0,0,2,,,,,,,,,1,,,78,0
280425,set_tempo,570,1,0,,,,,,248962,,,,,,,
280560,note_off,240,0,1,,,,,,,,,0,,,77,0
280800,note_on,240,0,1,,,,,,,,,0,,,89,103
280800,note_on,480,0,2,,,,,,,,,1,,,77,103
280800,note_on,0,0,2,,,,,,,,,1,,,85,103
280800,note_on,1440,0,4,,,,,,,,,4,,,37,97
280800,note_on,0,0,3,,,,,,,,,2,,,44,97
280800,note_on,480,0,3,,,,,,,,,2,,,49,97
280815,set_tempo,390,1,0,,,,,,251046,,,,,,,
281280,note_off,0,0,3,,,,,,,,,2,,,49,0
281280,note_off,480,0,3,,,,,,,,,2,,,44,0
281280,note_on,0,0,4,,,,,,,,,4,,,37,93
281280,note_off,480,0,4,,,,,,,,,4,,,37,0
281400,set_tempo,585,1,0,,,,,,248962,,,,,,,
281520,note_off,720,0,2,,,,,,,,,1,,,85,0
281520,note_on,0,0,1,,,,,,,,,0,,,84,97
281520,note_off,720,0,1,,,,,,,,,0,,,89,0
281520,note_off,0,0,2,,,,,,,,,1,,,77,0
281760,note_on,0,0,1,,,,,,,,,0,,,87,95
281760,note_on,480,0,4,,,,,,,,,4,,,53,90
281760,note_off,240,0,1,,,,,,,,,0,,,84,0
282000,note_off,240,0,1,,,,,,,,,0,,,87,0
282000,note_on,0,0,1,,,,,,,,,0,,,85,93
282240,note_off,480,0,4,,,,,,,,,4,,,53,0
282240,note_on,0,0,1,,,,,,,,,0,,,80,92
282240,note_off,240,0,1,,,,,,,,,0,,,85,0
282480,note_off,240,0,1,,,,,,,,,0,,,80,0
282480,note_on,0,0,1,,,,,,,,,0,,,84,90
282720,note_on,480,0,4,,,,,,,,,4,,,56,84
282720,note_off,240,0,1,,,,,,,,,0,,,84,0
282720,note_on,0,0,1,,,,,,,,,0,,,82,87
282960,note_on,0,0,1,,,,,,,,,0,,,79,87
282960,note_off,240,0,1,,,,,,,,,0,,,82,0
283200,note_off,480,0,4,,,,,,,,,4,,,56,0
283200,note_off,240,0,1,,,,,,,,,0,,,79,0
283200,note_on,0,0,1,,,,,,,,,0,,,82,84
283440,note_off,240,0,1,,,,,,,,,0,,,82,0
283440,note_on,0,0,1,,,,,,,,,0,,,77,82
283680,note_on,480,0,4,,,,,,,,,4,,,53,77
283680,note_off,240,0,1,,,,,,,,,0,,,77,0
283680,note_on,0,0,1,,,,,,,,,0,,,80,81
283920,note_on,0,0,1,,,,,,,,,0,,,78,79
283920,note_off,240,0,1,,,,,,,,,0,,,80,0
284160,note_off,480,0,4,,,,,,,,,4,,,53,0
284160,note_on,0,0,1,,,,,,,,,0,,,75,77
284160,note_off,240,0,1,,,,,,,,,0,,,78,0
284400,note_on,0,0,1,,,,,,,,,0,,,78,75
284400,note_off,240,0,1,,,,,,,,,0,,,75,0
284640,note_on,0,0,1,,,,,,,,,0,,,77,73
284640,note_on,480,0,4,,,,,,,,,4,,,56,70
284640,note_off,240,0,1,,,,,,,,,0,,,78,0
284880,note_off,240,0,1,,,,,,,,,0,,,77,0
284880,note_on,0,0,1,,,,,,,,,0,,,73,71
285120,note_off,240,0,1,,,,,,,,,0,,,73,0
285120,note_off,480,0,4,,,,,,,,,4,,,56,0
285120,note_on,0,0,1,,,,,,,,,0,,,78,70
285360,note_off,240,0,1,,,,,,,,,0,,,78,0
285360,note_on,0,0,1,,,,,,,,,0,,,74,68
285600,note_on,0,0,1,,,,,,,,,0,,,77,66
285600,note_off,240,0,1,,,,,,,,,0,,,74,0
285600,note_on,480,0,4,,,,,,,,,4,,,60,64
285840,note_on,0,0,1,,,,,,,,,0,,,75,64
285840,note_off,240,0,1,,,,,,,,,0,,,77,0
286080,note_off,240,0,1,,,,,,,,,0,,,75,0
286080,note_off,480,0,4,,,,,,,,,4,,,60,0
286080,note_on,0,0,1,,,,,,,,,0,,,71,62
286320,note_off,240,0,1,,,,,,,,,0,,,71,0
286320,note_on,0,0,1,,,,,,,,,0,,,73,60
286560,note_on,480,0,4,,,,,,,,,4,,,75,57
286560,note_off,240,0,1,,,,,,,,,0,,,73,0
286560,note_on,0,0,1,,,,,,,,,0,,,72,59
286800,note_off,240,0,1,,,,,,,,,0,,,72,0
286800,note_on,0,0,1,,,,,,,,,0,,,68,57
287040,note_off,240,0,1,,,,,,,,,0,,,68,0
287040,note_on,0,0,1,,,,,,,,,0,,,70,55
287040,note_off,480,0,4,,,,,,,,,4,,,75,0
287280,note_off,240,0,1,,,,,,,,,0,,,70,0
287280,note_on,0,0,1,,,,,,,,,0,,,66,53
287520,note_off,240,0,1,,,,,,,,,0,,,66,0
287520,note_on,0,0,1,,,,,,,,,0,,,70,51
287520,note_on,480,0,4,,,,,,,,,4,,,84,51
287760,note_off,240,0,1,,,,,,,,,0,,,70,0
287760,note_on,0,0,1,,,,,,,,,0,,,68,50
288000,note_off,240,0,1,,,,,,,,,0,,,68,0
288000,note_off,480,0,4,,,,,,,,,4,,,84,0
288000,note_on,0,0,1,,,,,,,,,0,,,65,56
288000,note_on,0,0,4,,,,,,,,,4,,,85,57
288465,set_tempo,7065,1,0,,,,,,251046,,,,,,,
288480,note_off,480,0,4,,,,,,,,,4,,,85,0
288480,note_off,480,0,1,,,,,,,,,0,,,65,0
288480,note_on,0,0,1,,,,,,,,,0,,,77,63
288495,note_off,15,0,4,,,,,,,,,4,,,37,0
288960,note_on,465,0,4,,,,,,,,,4,,,37,60
289095,set_tempo,630,1,0,,,,,,248962,,,,,,,
289200,note_off,720,0,1,,,,,,,,,0,,,77,0
289200,note_on,0,0,1,,,,,,,,,0,,,72,61
289440,note_off,240,0,1,,,,,,,,,0,,,72,0
289440,note_on,480,0,4,,,,,,,,,4,,,53,60
289440,note_on,0,0,1,,,,,,,,,0,,,75,61
289680,note_on,0,0,1,,,,,,,,,0,,,73,60
289680,note_off,240,0,1,,,,,,,,,0,,,75,0
289920,note_off,480,0,4,,,,,,,,,4,,,53,0
289920,note_on,0,0,1,,,,,,,,,0,,,68,59
289920,note_off,240,0,1,,,,,,,,,0,,,73,0
290160,note_on,0,0,1,,,,,,,,,0,,,72,58
290160,note_off,240,0,1,,,,,,,,,0,,,68,0
290400,note_on,0,0,1,,,,,,,,,0,,,70,58
290400,note_off,240,0,1,,,,,,,,,0,,,72,0
290400,note_on,480,0,4,,,,,,,,,4,,,56,57
290640,note_on,0,0,1,,,,,,,,,0,,,67,57
290640,note_off,240,0,1,,,,,,,,,0,,,70,0
290880,note_on,0,0,1,,,,,,,,,0,,,70,56
290880,note_off,240,0,1,,,,,,,,,0,,,67,0
290880,note_off,480,0,4,,,,,,,,,4,,,56,0
291120,note_on,0,0,1,,,,,,,,,0,,,65,55
291120,note_off,240,0,1,,,,,,,,,0,,,70,0
291360,note_off,240,0,1,,,,,,,,,0,,,65,0
291360,note_on,0,0,1,,,,,,,,,0,,,68,55
291360,note_on,480,0,4,,,,,,,,,4,,,53,53
291600,note_off,240,0,1,,,,,,,,,0,,,68,0
291600,note_on,0,0,1,,,,,,,,,0,,,66,54
291840,note_off,480,0,4,,,,,,,,,4,,,53,0
291840,note_on,0,0,1,,,,,,,,,0,,,63,53
291840,note_off,240,0,1,,,,,,,,,0,,,66,0
292080,note_on,0,0,1,,,,,,,,,0,,,66,53
292080,note_off,240,0,1,,,,,,,,,0,,,63,0
292320,note_off,240,0,1,,,,,,,,,0,,,66,0
292320,note_on,480,0,4,,,,,,,,,4,,,56,50
292320,note_on,0,0,1,,,,,,,,,0,,,65,52
292560,note_on,0,0,1,,,,,,,,,0,,,61,51
292560,note_off,240,0,1,,,,,,,,,0,,,65,0
292800,note_off,240,0,1,,,,,,,,,0,,,61,0
292800,note_off,480,0,4,,,,,,,,,4,,,56,0
292800,note_on,0,0,1,,,,,,,,,0,,,66,50
293040,note_off,240,0,1,,,,,,,,,0,,,66,0
293040,note_on,0,0,1,,,,,,,,,0,,,62,50
293280,note_off,240,0,1,,,,,,,,,0,,,62,0
293280,note_on,0,0,1,,,,,,,,,0,,,65,49
293280,note_on,480,0,4,,,,,,,,,4,,,60,46
293520,note_off,240,0,1,,,,,,,,,0,,,65,0
293520,note_on,0,0,1,,,,,,,,,0,,,63,48
293760,note_off,480,0,4,,,,,,,,,4,,,60,0
293760,note_off,240,0,1,,,,,,,,,0,,,63,0
293760,note_on,0,0,1,,,,,,,,,0,,,59,47
294000,note_on,0,0,1,,,,,,,,,0,,,61,47
294000,note_off,240,0,1,,,,,,,,,0,,,59,0
294240,note_on,480,0,4,,,,,,,,,4,,,75,43
294240,note_on,0,0,1,,,,,,,,,0,,,60,46
294240,note_off,240,0,1,,,,,,,,,0,,,61,0
294480,note_off,240,0,1,,,,,,,,,0,,,60,0
294480,note_on,0,0,1,,,,,,,,,0,,,56,45
294720,note_off,240,0,1,,,,,,,,,0,,,56,0
294720,note_off,480,0,4,,,,,,,,,4,,,75,0
294720,note_on,0,0,1,,,,,,,,,0,,,58,44
294960,note_off,240,0,1,,,,,,,,,0,,,58,0
294960,note_on,0,0,1,,,,,,,,,0,,,54,44
295200,note_off,240,0,1,,,,,,,,,0,,,54,0
295200,note_on,0,0,1,,,,,,,,,0,,,58,43
295200,note_on,480,0,4,,,,,,,,,4,,,84,40
295440,note_off,240,0,1,,,,,,,,,0,,,58,0
295440,note_on,0,0,1,,,,,,,,,0,,,56,42
295680,note_off,240,0,1,,,,,,,,,0,,,56,0
295680,note_off,480,0,4,,,,,,,,,4,,,84,0
295680,note_on,0,0,1,,,,,,,,,0,,,51,42
295920,note_on,0,0,1,,,,,,,,,0,,,54,41
295920,note_off,240,0,1,,,,,,,,,0,,,51,0
296160,note_on,480,0,4,,,,,,,,,4,,,85,36
296160,note_off,240,0,1,,,,,,,,,0,,,54,0
296160,note_on,0,0,1,,,,,,,,,0,,,53,40
296400,note_off,240,0,1,,,,,,,,,0,,,53,0
296400,note_on,0,0,1,,,,,,,,,0,,,49,39
296625,note_off,465,0,4,,,,,,,,,4,,,37,0
296640,note_off,240,0,1,,,,,,,,,0,,,49,0
296640,note_on,0,0,1,,,,,,,,,0,,,53,39
296640,note_off,15,0,4,,,,,,,,,4,,,85,0
296880,note_off,240,0,1,,,,,,,,,0,,,53,0
296880,note_on,0,0,1,,,,,,,,,0,,,48,38
297120,note_off,240,0,1,,,,,,,,,0,,,48,0
297120,note_on,0,0,1,,,,,,,,,0,,,51,37
297360,note_off,240,0,1,,,,,,,,,0,,,51,0
297360,note_on,0,0,1,,,,,,,,,0,,,49,36
297600,note_on,0,0,1,,,,,,,,,0,,,65,36
297600,note_off,240,0,1,,,,,,,,,0,,,49,0
297840,note_off,240,0,1,,,,,,,,,0,,,65,0
297840,note_on,0,0,1,,,,,,,,,0,,,60,35
298080,note_on,0,0,1,,,,,,,,,0,,,63,34
298080,note_off,240,0,1,,,,,,,,,0,,,60,0
298320,note_off,240,0,1,,,,,,,,,0,,,63,0
298320,note_on,0,0,1,,,,,,,,,0,,,61,34
298560,note_off,240,0,1,,,,,,,,,0,,,61,0
298560,note_on,0,0,1,,,,,,,,,0,,,65,33
298800,note_off,240,0,1,,,,,,,,,0,,,65,0
298800,note_on,0,0,1,,,,,,,,,0,,,60,32
299040,note_on,0,0,1,,,,,,,,,0,,,63,31
299040,note_off,240,0,1,,,,,,,,,0,,,60,0
299280,note_on,0,0,1,,,,,,,,,0,,,61,31
299280,note_off,240,0,1,,,,,,,,,0,,,63,0
299520,note_off,240,0,1,,,,,,,,,0,,,61,0
299520,note_on,0,0,1,,,,,,,,,0,,,77,30
299760,note_off,240,0,1,,,,,,,,,0,,,77,0
299760,note_on,0,0,1,,,,,,,,,0,,,72,29
299925,set_tempo,10830,1,0,,,,,,251046,,,,,,,
300000,note_on,0,0,1,,,,,,,,,0,,,75,28
300000,note_off,240,0,1,,,,,,,,,0,,,72,0
300240,note_off,0,0,1,,,,,,,,,0,,,75,0
300240,note_on,0,0,1,,,,,,,,,0,,,73,28
300240,control_change,240,0,1,,,,,,,64,127,0,,,,
300255,set_tempo,330,1,0,,,,,,256410,,,,,,,
300480,note_off,240,0,1,,,,,,,,,0,,,73,0
300480,set_tempo,225,1,0,,,,,,600000,,,,,,,
301200,control_change,720,0,1,,,,,,,64,0,0,,,,
301440,note_on,0,0,4,,,,,,,,,4,,,41,51
301440,note_on,0,0,2,,,,,,,,,1,,,68,52
301440,control_change,19920,0,2,,,,,,,64,0,1,,,,
301440,set_tempo,960,1,0,,,,,,248962,,,,,,,
301440,control_change,4800,0,4,,,,,,,64,0,4,,,,
301440,note_on,0,0,4,,,,,,,,,4,,,53,51
301440,control_change,20160,0,3,,,,,,,64,0,2,,,,
301440,note_on,240,0,1,,,,,,,,,0,,,72,52
301920,note_off,480,0,2,,,,,,,,,1,,,68,0
301920,note_on,0,0,2,,,,,,,,,1,,,64,51
301920,note_on,0,0,1,,,,,,,,,0,,,70,51
301920,note_off,480,0,1,,,,,,,,,0,,,72,0
301920,note_off,480,0,4,,,,,,,,,4,,,41,0
301920,note_off,0,0,4,,,,,,,,,4,,,53,0
301920,note_on,0,0,4,,,,,,,,,4,,,55,48
301920,note_on,0,0,4,,,,,,,,,4,,,43,48
302400,note_on,0,0,4,,,,,,,,,4,,,56,48
302400,note_on,0,0,4,,,,,,,,,4,,,44,48
302400,note_off,0,0,4,,,,,,,,,4,,,55,0
302400,note_off,480,0,4,,,,,,,,,4,,,43,0
302400,note_off,480,0,1,,,,,,,,,0,,,70,0
302400,note_off,480,0,2,,,,,,,,,1,,,64,0
302400,note_on,0,0,2,,,,,,,,,1,,,65,50
302400,note_on,0,0,1,,,,,,,,,0,,,68,50
302880,note_on,0,0,2,,,,,,,,,1,,,64,49
302880,note_off,480,0,4,,,,,,,,,4,,,44,0
302880,note_off,0,0,4,,,,,,,,,4,,,56,0
302880,note_on,0,0,4,,,,,,,,,4,,,46,47
302880,note_on,0,0,4,,,,,,,,,4,,,58,47
302880,note_on,0,0,2,,,,,,,,,1,,,61,49
302880,note_on,0,0,1,,,,,,,,,0,,,67,49
302880,note_off,480,0,1,,,,,,,,,0,,,68,0
302880,note_off,480,0,2,,,,,,,,,1,,,65,0
303240,note_off,0,0,4,,,,,,,,,4,,,46,0
303240,note_off,360,0,1,,,,,,,,,0,,,67,0
303240,note_off,0,0,2,,,,,,,,,1,,,64,0
303240,note_off,360,0,2,,,,,,,,,1,,,61,0
303240,note_off,360,0,4,,,,,,,,,4,,,58,0
303360,note_on,0,0,4,,,,,,,,,4,,,47,46
303360,note_on,120,0,4,,,,,,,,,4,,,59,46
303360,note_on,120,0,1,,,,,,,,,0,,,65,48
303360,note_on,0,0,2,,,,,,,,,1,,,62,48
303360,note_on,120,0,2,,,,,,,,,1,,,56,48
303516,note_off,0,0,4,,,,,,,,,4,,,59,0
303516,note_off,156,0,4,,,,,,,,,4,,,47,0
303516,note_off,0,0,2,,,,,,,,,1,,,56,0
303516,note_off,156,0,2,,,,,,,,,1,,,62,0
303516,note_off,156,0,1,,,,,,,,,0,,,65,0
303840,note_on,0,0,4,,,,,,,,,4,,,47,45
303840,note_on,324,0,1,,,,,,,,,0,,,65,47
303840,note_on,324,0,2,,,,,,,,,1,,,56,47
303840,note_on,324,0,4,,,,,,,,,4,,,59,45
303840,note_on,0,0,2,,,,,,,,,1,,,62,47
303996,note_off,0,0,4,,,,,,,,,4,,,59,0
303996,note_off,156,0,2,,,,,,,,,1,,,62,0
303996,note_off,156,0,1,,,,,,,,,0,,,65,0
303996,note_off,156,0,4,,,,,,,,,4,,,47,0
303996,note_off,0,0,2,,,,,,,,,1,,,56,0
304200,set_tempo,2760,1,0,,,,,,251046,,,,,,,
304320,note_on,324,0,4,,,,,,,,,4,,,60,44
304320,note_on,324,0,2,,,,,,,,,1,,,55,46
304320,note_on,0,0,4,,,,,,,,,4,,,48,44
304320,note_on,324,0,1,,,,,,,,,0,,,64,46
305040,note_off,720,0,1,,,,,,,,,0,,,64,0
305040,note_off,0,0,4,,,,,,,,,4,,,60,0
305040,note_off,720,0,4,,,,,,,,,4,,,48,0
305040,note_off,720,0,2,,,,,,,,,1,,,55,0
305160,set_tempo,960,1,0,,,,,,253164,,,,,,,
305280,set_tempo,120,1,0,,,,,,248962,,,,,,,
305280,note_on,240,0,1,,,,,,,,,0,,,79,86
305280,note_on,240,0,4,,,,,,,,,4,,,48,86
305280,note_on,0,0,4,,,,,,,,,4,,,36,86
305280,note_on,240,0,2,,,,,,,,,1,,,72,86
305760,note_off,480,0,4,,,,,,,,,4,,,36,0
305760,note_off,0,0,4,,,,,,,,,4,,,48,0
305760,note_on,0,0,4,,,,,,,,,4,,,52,83
305760,note_on,0,0,4,,,,,,,,,4,,,40,83
305760,note_off,480,0,1,,,,,,,,,0,,,79,0
305760,note_on,0,0,1,,,,,,,,,0,,,76,82
305760,note_off,480,0,2,,,,,,,,,1,,,72,0
305760,note_on,0,0,2,,,,,,,,,1,,,72,82
305760,note_on,0,0,2,,,,,,,,,1,,,67,82
306120,note_off,360,0,2,,,,,,,,,1,,,67,0
306120,note_off,360,0,1,,,,,,,,,0,,,76,0
306120,note_off,0,0,2,,,,,,,,,1,,,72,0
306240,note_on,0,0,4,,,,,,,,,4,,,43,82
306240,note_on,0,0,4,,,,,,,,,4,,,55,82
306240,note_off,0,0,4,,,,,,,,,4,,,52,0
306240,note_off,480,0,4,,,,,,,,,4,,,40,0
306240,note_on,120,0,1,,,,,,,,,0,,,72,81
306240,note_on,120,0,2,,,,,,,,,1,,,67,81
306240,note_on,0,0,2,,,,,,,,,1,,,64,81
306396,note_off,156,0,1,,,,,,,,,0,,,72,0
306396,note_off,156,0,2,,,,,,,,,1,,,64,0
306396,note_off,0,0,2,,,,,,,,,1,,,67,0
306720,note_on,0,0,2,,,,,,,,,1,,,64,79
306720,note_on,0,0,4,,,,,,,,,4,,,48,80
306720,note_off,480,0,4,,,,,,,,,4,,,43,0
306720,note_on,324,0,2,,,,,,,,,1,,,67,79
306720,note_off,0,0,4,,,,,,,,,4,,,55,0
306720,note_on,0,0,4,,,,,,,,,4,,,60,80
306720,note_on,324,0,1,,,,,,,,,0,,,72,79
306876,note_off,0,0,2,,,,,,,,,1,,,67,0
306876,note_off,156,0,2,,,,,,,,,1,,,64,0
306876,note_off,156,0,1,,,,,,,,,0,,,72,0
307080,note_off,360,0,4,,,,,,,,,4,,,48,0
307080,note_off,0,0,4,,,,,,,,,4,,,60,0
307200,note_on,0,0,2,,,,,,,,,1,,,64,78
307200,note_on,0,0,4,,,,,,,,,4,,,43,79
307200,note_on,324,0,2,,,,,,,,,1,,,67,78
307200,note_on,324,0,1,,,,,,,,,0,,,72,78
307200,note_on,120,0,4,,,,,,,,,4,,,55,79
307356,note_off,156,0,4,,,,,,,,,4,,,43,0
307356,note_off,156,0,2,,,,,,,,,1,,,64,0
307356,note_off,0,0,4,,,,,,,,,4,,,55,0
307356,note_off,0,0,2,,,,,,,,,1,,,67,0
307356,note_off,156,0,1,,,,,,,,,0,,,72,0
307680,note_on,324,0,4,,,,,,,,,4,,,31,83
307680,note_on,0,0,4,,,,,,,,,4,,,43,83
307680,note_on,324,0,1,,,,,,,,,0,,,74,80
307680,note_on,324,0,2,,,,,,,,,1,,,71,80
307680,note_on,0,0,2,,,,,,,,,1,,,67,80
307836,note_off,0,0,4,,,,,,,,,4,,,31,0
307836,note_off,156,0,4,,,,,,,,,4,,,43,0
307836,note_off,156,0,1,,,,,,,,,0,,,74,0
307836,note_off,156,0,2,,,,,,,,,1,,,67,0
307836,note_off,0,0,2,,,,,,,,,1,,,71,0
308040,set_tempo,2760,1,0,,,,,,251046,,,,,,,
308160,note_on,0,0,2,,,,,,,,,1,,,67,90
308160,note_on,324,0,1,,,,,,,,,0,,,76,90
308160,note_on,324,0,4,,,,,,,,,4,,,48,90
308160,note_on,0,0,4,,,,,,,,,4,,,36,90
308160,note_on,324,0,2,,,,,,,,,1,,,72,90
308650,set_tempo,610,1,0,,,,,,253164,,,,,,,
308880,note_off,720,0,2,,,,,,,,,1,,,67,0
308880,note_off,0,0,2,,,,,,,,,1,,,72,0
308880,note_off,720,0,1,,,,,,,,,0,,,76,0
308880,note_off,720,0,4,,,,,,,,,4,,,36,0
308880,note_off,0,0,4,,,,,,,,,4,,,48,0
309120,control_change,240,0,1,,,,,,,64,0,0,,,,
309120,control_change,7680,0,3,,,,,,,64,0,2,,,,
309120,note_on,0,0,1,,,,,,,,,0,,,72,52
309120,control_change,240,0,2,,,,,,,64,0,1,,,,
309120,note_on,0,0,2,,,,,,,,,1,,,68,52
309120,control_change,240,0,4,,,,,,,64,0,4,,,,
309120,note_on,0,0,4,,,,,,,,,4,,,53,51
309120,note_on,0,0,4,,,,,,,,,4,,,41,51
309120,set_tempo,470,1,0,,,,,,248962,,,,,,,
309600,note_off,0,0,4,,,,,,,,,4,,,53,0
309600,note_off,480,0,2,,,,,,,,,1,,,68,0
309600,note_on,0,0,2,,,,,,,,,1,,,64,51
309600,note_on,0,0,1,,,,,,,,,0,,,70,51
309600,note_off,480,0,1,,,,,,,,,0,,,72,0
309600,note_off,480,0,4,,,,,,,,,4,,,41,0
309600,note_on,0,0,4,,,,,,,,,4,,,55,48
309600,note_on,0,0,4,,,,,,,,,4,,,43,48
310080,note_on,0,0,1,,,,,,,,,0,,,68,50
310080,note_off,480,0,1,,,,,,,,,0,,,70,0
310080,note_on,0,0,4,,,,,,,,,4,,,56,48
310080,note_on,0,0,4,,,,,,,,,4,,,44,48
310080,note_off,480,0,4,,,,,,,,,4,,,43,0
310080,note_on,0,0,2,,,,,,,,,1,,,65,50
310080,note_off,480,0,2,,,,,,,,,1,,,64,0
310080,note_off,0,0,4,,,,,,,,,4,,,55,0
310560,note_on,0,0,4,,,,,,,,,4,,,46,47
310560,note_off,0,0,4,,,,,,,,,4,,,56,0
310560,note_on,0,0,4,,,,,,,,,4,,,58,47
310560,note_off,480,0,4,,,,,,,,,4,,,44,0
310560,note_on,0,0,1,,,,,,,,,0,,,67,49
310560,note_on,0,0,2,,,,,,,,,1,,,64,49
310560,note_off,480,0,1,,,,,,,,,0,,,68,0
310560,note_off,480,0,2,,,,,,,,,1,,,65,0
310560,note_on,0,0,2,,,,,,,,,1,,,61,49
310800,set_tempo,1680,1,0,,,,,,251046,,,,,,,
310920,note_off,360,0,4,,,,,,,,,4,,,58,0
310920,note_off,360,0,1,,,,,,,,,0,,,67,0
310920,note_off,0,0,4,,,,,,,,,4,,,46,0
310920,note_off,0,0,2,,,,,,,,,1,,,64,0
310920,note_off,360,0,2,,,,,,,,,1,,,61,0
311040,note_on,0,0,2,,,,,,,,,1,,,62,48
311040,note_on,120,0,2,,,,,,,,,1,,,56,48
311040,note_on,120,0,4,,,,,,,,,4,,,59,46
311040,set_tempo,240,1,0,,,,,,258620,,,,,,,
311040,note_on,120,0,1,,,,,,,,,0,,,65,48
311040,note_on,0,0,4,,,,,,,,,4,,,47,46
311196,note_off,156,0,1,,,,,,,,,0,,,65,0
311196,note_off,156,0,4,,,,,,,,,4,,,47,0
311196,note_off,0,0,4,,,,,,,,,4,,,59,0
311196,note_off,156,0,2,,,,,,,,,1,,,62,0
311196,note_off,0,0,2,,,,,,,,,1,,,56,0
311482,set_tempo,442,1,0,,,,,,312500,,,,,,,
311520,note_on,324,0,4,,,,,,,,,4,,,59,45
311520,note_on,0,0,2,,,,,,,,,1,,,62,47
311520,note_on,324,0,2,,,,,,,,,1,,,56,47
311520,note_on,324,0,1,,,,,,,,,0,,,65,47
311520,note_on,0,0,4,,,,,,,,,4,,,47,45
311676,note_off,156,0,1,,,,,,,,,0,,,65,0
311676,note_off,156,0,4,,,,,,,,,4,,,47,0
311676,note_off,0,0,4,,,,,,,,,4,,,59,0
311676,note_off,156,0,2,,,,,,,,,1,,,62,0
311676,note_off,0,0,2,,,,,,,,,1,,,56,0
312000,note_on,324,0,1,,,,,,,,,0,,,64,46
312000,note_on,324,0,2,,,,,,,,,1,,,55,46
312000,note_on,324,0,4,,,,,,,,,4,,,60,44
312000,set_tempo,518,1,0,,,,,,348837,,,,,,,
312000,note_on,0,0,4,,,,,,,,,4,,,48,44
312720,note_off,720,0,4,,,,,,,,,4,,,48,0
312720,note_off,0,0,4,,,,,,,,,4,,,60,0
312720,note_off,720,0,1,,,,,,,,,0,,,64,0
312720,note_off,720,0,2,,,,,,,,,1,,,55,0
312960,note_on,240,0,1,,,,,,,,,0,,,79,86
312960,set_tempo,960,1,0,,,,,,248962,,,,,,,
312960,note_on,240,0,4,,,,,,,,,4,,,48,86
312960,note_on,0,0,4,,,,,,,,,4,,,36,86
312960,note_on,240,0,2,,,,,,,,,1,,,72,86
313440,note_off,0,0,4,,,,,,,,,4,,,48,0
313440,note_on,0,0,1,,,,,,,,,0,,,76,82
313440,note_off,480,0,2,,,,,,,,,1,,,72,0
313440,note_on,0,0,2,,,,,,,,,1,,,72,82
313440,note_on,0,0,2,,,,,,,,,1,,,67,82
313440,note_off,480,0,4,,,,,,,,,4,,,36,0
313440,note_off,480,0,1,,,,,,,,,0,,,79,0
313440,note_on,0,0,4,,,,,,,,,4,,,52,83
313440,note_on,0,0,4,,,,,,,,,4,,,40,83
313800,note_off,360,0,1,,,,,,,,,0,,,76,0
313800,note_off,360,0,2,,,,,,,,,1,,,67,0
313800,note_off,0,0,2,,,,,,,,,1,,,72,0
313920,note_on,120,0,1,,,,,,,,,0,,,72,81
313920,note_on,0,0,4,,,,,,,,,4,,,43,82
313920,note_on,0,0,4,,,,,,,,,4,,,55,82
313920,note_off,0,0,4,,,,,,,,,4,,,52,0
313920,note_off,480,0,4,,,,,,,,,4,,,40,0
313920,note_on,0,0,2,,,,,,,,,1,,,64,81
313920,note_on,120,0,2,,,,,,,,,1,,,67,81
314076,note_off,156,0,2,,,,,,,,,1,,,64,0
314076,note_off,0,0,2,,,,,,,,,1,,,67,0
314076,note_off,156,0,1,,,,,,,,,0,,,72,0
314400,note_on,324,0,2,,,,,,,,,1,,,67,79
314400,note_on,0,0,2,,,,,,,,,1,,,64,79
314400,note_on,0,0,4,,,,,,,,,4,,,48,80
314400,note_on,0,0,4,,,,,,,,,4,,,60,80
314400,note_off,0,0,4,,,,,,,,,4,,,55,0
314400,note_off,480,0,4,,,,,,,,,4,,,43,0
314400,note_on,324,0,1,,,,,,,,,0,,,72,79
314401,note_off,1,0,4,,,,,,,,,4,,,48,0
314556,note_off,0,0,2,,,,,,,,,1,,,67,0
314556,note_off,156,0,2,,,,,,,,,1,,,64,0
314556,note_off,156,0,1,,,,,,,,,0,,,72,0
314760,note_off,359,0,4,,,,,,,,,4,,,60,0
314880,note_on,0,0,2,,,,,,,,,1,,,64,78
314880,note_on,0,0,4,,,,,,,,,4,,,43,79
314880,note_on,120,0,4,,,,,,,,,4,,,55,79
314880,note_on,324,0,1,,,,,,,,,0,,,72,78
314880,note_on,324,0,2,,,,,,,,,1,,,67,78
315036,note_off,0,0,4,,,,,,,,,4,,,55,0
315036,note_off,156,0,4,,,,,,,,,4,,,43,0
315036,note_off,156,0,1,,,,,,,,,0,,,72,0
315036,note_off,156,0,2,,,,,,,,,1,,,64,0
315036,note_off,0,0,2,,,,,,,,,1,,,67,0
315360,note_on,0,0,4,,,,,,,,,4,,,43,83
315360,note_on,324,0,4,,,,,,,,,4,,,31,83
315360,note_on,324,0,1,,,,,,,,,0,,,74,80
315360,note_on,324,0,2,,,,,,,,,1,,,71,80
315360,note_on,0,0,2,,,,,,,,,1,,,67,80
315516,note_off,156,0,2,,,,,,,,,1,,,67,0
315516,note_off,0,0,2,,,,,,,,,1,,,71,0
315516,note_off,0,0,4,,,,,,,,,4,,,31,0
315516,note_off,156,0,4,,,,,,,,,4,,,43,0
315516,note_off,156,0,1,,,,,,,,,0,,,74,0
315720,set_tempo,2760,1,0,,,,,,251046,,,,,,,
315840,note_on,0,0,2,,,,,,,,,1,,,72,90
315840,note_on,324,0,4,,,,,,,,,4,,,48,90
315840,note_on,324,0,1,,,,,,,,,0,,,76,90
315840,note_on,324,0,2,,,,,,,,,1,,,67,90
315840,note_on,0,0,4,,,,,,,,,4,,,36,90
316330,set_tempo,610,1,0,,,,,,253164,,,,,,,
316560,note_off,720,0,1,,,,,,,,,0,,,76,0
316560,note_off,720,0,2,,,,,,,,,1,,,72,0
316560,note_off,0,0,2,,,,,,,,,1,,,67,0
316560,note_off,0,0,4,,,,,,,,,4,,,48,0
316560,note_off,720,0,4,,,,,,,,,4,,,36,0
316800,set_tempo,470,1,0,,,,,,248962,,,,,,,
316800,control_change,240,0,1,,,,,,,64,0,0,,,,
316800,note_on,0,0,1,,,,,,,,,0,,,79,78
316800,note_on,0,0,2,,,,,,,,,1,,,76,78
316800,note_on,0,0,4,,,,,,,,,4,,,36,78
316800,note_on,0,0,4,,,,,,,,,4,,,48,78
316800,control_change,240,0,2,,,,,,,64,0,1,,,,
316800,control_change,240,0,4,,,,,,,64,0,4,,,,
316800,control_change,7680,0,3,,,,,,,64,0,2,,,,
316956,note_off,156,0,2,,,,,,,,,1,,,76,0
316956,note_off,156,0,1,,,,,,,,,0,,,79,0
316956,note_off,156,0,4,,,,,,,,,4,,,48,0
316956,note_off,0,0,4,,,,,,,,,4,,,36,0
317280,note_on,324,0,2,,,,,,,,,1,,,74,79
317280,note_on,324,0,4,,,,,,,,,4,,,47,80
317280,note_on,0,0,4,,,,,,,,,4,,,35,80
317280,note_on,324,0,1,,,,,,,,,0,,,79,79
317436,note_off,156,0,2,,,,,,,,,1,,,74,0
317436,note_off,156,0,4,,,,,,,,,4,,,35,0
317436,note_off,0,0,4,,,,,,,,,4,,,47,0
317436,note_off,156,0,1,,,,,,,,,0,,,79,0
317760,note_on,324,0,2,,,,,,,,,1,,,76,80
317760,note_on,0,0,4,,,,,,,,,4,,,48,80
317760,note_on,324,0,4,,,,,,,,,4,,,36,80
317760,note_on,324,0,1,,,,,,,,,0,,,79,80
318240,note_off,480,0,1,,,,,,,,,0,,,79,0
318240,note_on,0,0,1,,,,,,,,,0,,,80,81
318396,note_off,156,0,1,,,,,,,,,0,,,80,0
318720,note_on,324,0,1,,,,,,,,,0,,,80,82
318720,note_off,960,0,2,,,,,,,,,1,,,76,0
318876,note_off,156,0,1,,,,,,,,,0,,,80,0
319200,note_on,480,0,2,,,,,,,,,1,,,77,83
319200,note_on,0,0,4,,,,,,,,,4,,,37,84
319200,note_on,0,0,4,,,,,,,,,4,,,49,84
319200,note_off,0,0,4,,,,,,,,,4,,,36,0
319200,note_off,1440,0,4,,,,,,,,,4,,,48,0
319200,note_on,324,0,1,,,,,,,,,0,,,80,83
319356,note_off,156,0,1,,,,,,,,,0,,,80,0
319680,note_on,324,0,1,,,,,,,,,0,,,80,85
319800,note_off,600,0,2,,,,,,,,,1,,,77,0
319836,note_off,156,0,1,,,,,,,,,0,,,80,0
320160,note_on,360,0,2,,,,,,,,,1,,,77,86
320160,note_on,324,0,1,,,,,,,,,0,,,82,86
320160,note_off,960,0,4,,,,,,,,,4,,,37,0
320160,note_off,0,0,4,,,,,,,,,4,,,49,0
320160,note_on,0,0,4,,,,,,,,,4,,,50,86
320160,note_on,0,0,4,,,,,,,,,4,,,38,86
320160,note_on,0,0,2,,,,,,,,,1,,,80,87
320316,note_off,156,0,1,,,,,,,,,0,,,82,0
320640,note_on,324,0,1,,,,,,,,,0,,,82,87
320790,note_off,630,0,2,,,,,,,,,1,,,80,0
320796,note_off,6,0,2,,,,,,,,,1,,,77,0
320796,note_off,156,0,1,,,,,,,,,0,,,82,0
321120,note_on,0,0,2,,,,,,,,,1,,,75,88
321120,note_on,0,0,4,,,,,,,,,4,,,51,88
321120,note_on,0,0,4,,,,,,,,,4,,,39,88
321120,note_on,324,0,2,,,,,,,,,1,,,79,88
321120,note_off,0,0,4,,,,,,,,,4,,,50,0
321120,note_off,960,0,4,,,,,,,,,4,,,38,0
321120,note_on,324,0,1,,,,,,,,,0,,,82,88
321276,note_off,156,0,1,,,,,,,,,0,,,82,0
321276,note_off,156,0,2,,,,,,,,,1,,,79,0
321600,note_on,324,0,2,,,,,,,,,1,,,79,89
321600,note_on,324,0,1,,,,,,,,,0,,,82,89
322080,note_on,0,0,4,,,,,,,,,4,,,44,90
322080,note_off,0,0,4,,,,,,,,,4,,,51,0
322080,note_off,960,0,4,,,,,,,,,4,,,39,0
322080,note_on,0,0,1,,,,,,,,,0,,,84,90
322080,note_off,480,0,1,,,,,,,,,0,,,82,0
322080,note_off,480,0,2,,,,,,,,,1,,,79,0
322080,note_on,0,0,2,,,,,,,,,1,,,80,90
322080,note_on,0,0,4,,,,,,,,,4,,,32,90
322236,note_off,156,0,2,,,,,,,,,1,,,80,0
322236,note_off,156,0,1,,,,,,,,,0,,,84,0
322245,note_off,9,0,2,,,,,,,,,1,,,75,0
322440,note_off,0,0,4,,,,,,,,,4,,,44,0
322440,note_off,360,0,4,,,,,,,,,4,,,32,0
322560,note_on,315,0,2,,,,,,,,,1,,,82,91
322560,note_on,0,0,2,,,,,,,,,1,,,77,91
322560,note_on,324,0,1,,,,,,,,,0,,,85,91
322560,note_on,120,0,4,,,,,,,,,4,,,49,91
322560,note_on,0,0,4,,,,,,,,,4,,,37,91
322716,note_off,156,0,1,,,,,,,,,0,,,85,0
322716,note_off,156,0,4,,,,,,,,,4,,,37,0
322716,note_off,0,0,4,,,,,,,,,4,,,49,0
322716,note_off,0,0,2,,,,,,,,,1,,,82,0
322716,note_off,156,0,2,,,,,,,,,1,,,77,0
323040,note_on,0,0,4,,,,,,,,,4,,,39,95
323040,note_on,324,0,2,,,,,,,,,1,,,73,95
323040,note_on,0,0,2,,,,,,,,,1,,,77,95
323040,note_on,324,0,4,,,,,,,,,4,,,51,95
323040,note_on,324,0,1,,,,,,,,,0,,,82,95
323196,note_off,156,0,4,,,,,,,,,4,,,39,0
323196,note_off,0,0,4,,,,,,,,,4,,,51,0
323196,note_off,156,0,1,,,,,,,,,0,,,82,0
323196,note_off,156,0,2,,,,,,,,,1,,,77,0
323196,note_off,0,0,2,,,,,,,,,1,,,73,0
323280,set_tempo,6480,1,0,,,,,,251046,,,,,,,
323520,note_on,0,0,4,,,,,,,,,4,,,44,102
323520,note_on,324,0,2,,,,,,,,,1,,,72,100
323520,note_on,324,0,4,,,,,,,,,4,,,56,102
323520,note_on,324,0,1,,,,,,,,,0,,,80,100
323520,set_tempo,240,1,0,,,,,,253164,,,,,,,
324240,note_off,720,0,1,,,,,,,,,0,,,80,0
324240,note_off,0,0,4,,,,,,,,,4,,,56,0
324240,note_off,720,0,2,,,,,,,,,1,,,72,0
324240,note_off,720,0,4,,,,,,,,,4,,,44,0
324480,set_tempo,960,1,0,,,,,,248962,,,,,,,
324480,note_on,240,0,1,,,,,,,,,0,,,68,55
324960,note_off,480,0,1,,,,,,,,,0,,,68,0
324960,note_on,0,0,1,,,,,,,,,0,,,68,55
324960,note_on,720,0,4,,,,,,,,,4,,,56,53
324960,note_on,8160,0,3,,,,,,,,,2,,,60,53
325440,note_on,0,0,4,,,,,,,,,4,,,58,53
325440,note_on,0,0,3,,,,,,,,,2,,,61,53
325440,note_off,480,0,3,,,,,,,,,2,,,60,0
325440,note_off,480,0,4,,,,,,,,,4,,,56,0
325440,note_on,0,0,1,,,,,,,,,0,,,67,55
325440,note_off,480,0,1,,,,,,,,,0,,,68,0
325680,note_on,0,0,1,,,,,,,,,0,,,65,54
325680,note_off,240,0,1,,,,,,,,,0,,,67,0
325800,note_off,360,0,3,,,,,,,,,2,,,61,0
325800,note_off,360,0,4,,,,,,,,,4,,,58,0
325920,note_on,0,0,1,,,,,,,,,0,,,63,54
325920,note_off,240,0,1,,,,,,,,,0,,,65,0
326280,set_tempo,1800,1,0,,,,,,251046,,,,,,,
326400,note_on,0,0,1,,,,,,,,,0,,,72,54
326400,set_tempo,120,1,0,,,,,,248962,,,,,,,
326400,note_on,2160,0,2,,,,,,,,,1,,,68,54
326400,note_off,480,0,1,,,,,,,,,0,,,63,0
326880,note_on,0,0,2,,,,,,,,,1,,,68,54
326880,note_off,480,0,2,,,,,,,,,1,,,68,0
326880,note_off,480,0,1,,,,,,,,,0,,,72,0
326880,note_on,1080,0,4,,,,,,,,,4,,,56,52
326880,note_on,0,0,1,,,,,,,,,0,,,72,54
326880,note_on,1080,0,3,,,,,,,,,2,,,60,52
327360,note_on,0,0,1,,,,,,,,,0,,,70,53
327360,note_on,0,0,2,,,,,,,,,1,,,67,53
327360,note_off,480,0,2,,,,,,,,,1,,,68,0
327360,note_off,480,0,3,,,,,,,,,2,,,60,0
327360,note_on,0,0,3,,,,,,,,,2,,,61,52
327360,note_off,480,0,4,,,,,,,,,4,,,56,0
327360,note_on,0,0,4,,,,,,,,,4,,,58,52
327360,note_off,480,0,1,,,,,,,,,0,,,72,0
327600,note_on,0,0,1,,,,,,,,,0,,,68,53
327600,note_off,240,0,1,,,,,,,,,0,,,70,0
327600,note_off,240,0,2,,,,,,,,,1,,,67,0
327600,note_on,0,0,2,,,,,,,,,1,,,65,53
327720,note_off,360,0,4,,,,,,,,,4,,,58,0
327720,note_off,360,0,3,,,,,,,,,2,,,61,0
327840,note_off,240,0,2,,,,,,,,,1,,,65,0
327840,note_on,0,0,1,,,,,,,,,0,,,67,53
327840,note_off,240,0,1,,,,,,,,,0,,,68,0
327840,note_on,0,0,2,,,,,,,,,1,,,63,53
328200,set_tempo,1800,1,0,,,,,,251046,,,,,,,
328320,set_tempo,120,1,0,,,,,,248962,,,,,,,
328320,note_off,480,0,1,,,,,,,,,0,,,67,0
328320,note_on,0,0,1,,,,,,,,,0,,,75,52
328320,note_off,480,0,2,,,,,,,,,1,,,63,0
328320,note_on,0,0,2,,,,,,,,,1,,,72,52
328800,note_off,480,0,1,,,,,,,,,0,,,75,0
328800,note_on,1080,0,4,,,,,,,,,4,,,44,51
328800,note_on,0,0,4,,,,,,,,,4,,,32,51
328800,note_on,0,0,2,,,,,,,,,1,,,72,52
328800,note_off,480,0,2,,,,,,,,,1,,,72,0
328800,note_on,0,0,1,,,,,,,,,0,,,75,52
329280,note_off,480,0,1,,,,,,,,,0,,,75,0
329280,note_on,0,0,1,,,,,,,,,0,,,73,52
329280,note_on,0,0,2,,,,,,,,,1,,,70,52
329280,note_off,480,0,2,,,,,,,,,1,,,72,0
329280,note_off,480,0,4,,,,,,,,,4,,,32,0
329280,note_off,0,0,4,,,,,,,,,4,,,44,0
329280,note_on,0,0,4,,,,,,,,,4,,,34,51
329280,note_on,0,0,4,,,,,,,,,4,,,46,51
329760,note_off,480,0,1,,,,,,,,,0,,,73,0
329760,note_off,480,0,2,,,,,,,,,1,,,70,0
329760,note_off,480,0,4,,,,,,,,,4,,,46,0
329760,note_off,0,0,4,,,,,,,,,4,,,34,0
329760,note_on,0,0,4,,,,,,,,,4,,,48,50
329760,note_on,0,0,2,,,,,,,,,1,,,68,51
329760,note_on,0,0,4,,,,,,,,,4,,,36,50
329760,note_on,0,0,1,,,,,,,,,0,,,72,51
330240,note_off,0,0,4,,,,,,,,,4,,,48,0
330240,note_on,0,0,4,,,,,,,,,4,,,49,50
330240,note_off,480,0,2,,,,,,,,,1,,,68,0
330240,note_on,0,0,2,,,,,,,,,1,,,67,51
330240,note_on,0,0,4,,,,,,,,,4,,,37,50
330240,note_on,0,0,1,,,,,,,,,0,,,70,51
330240,note_off,480,0,4,,,,,,,,,4,,,36,0
330240,note_off,480,0,1,,,,,,,,,0,,,72,0
330720,note_on,0,0,4,,,,,,,,,4,,,38,50
330720,note_off,480,0,4,,,,,,,,,4,,,37,0
330720,note_on,0,0,4,,,,,,,,,4,,,50,50
330720,note_off,0,0,4,,,,,,,,,4,,,49,0
330720,note_off,480,0,1,,,,,,,,,0,,,70,0
330720,note_on,0,0,1,,,,,,,,,0,,,72,51
330720,note_off,480,0,2,,,,,,,,,1,,,67,0
330720,note_on,0,0,2,,,,,,,,,1,,,68,51
331200,note_off,480,0,1,,,,,,,,,0,,,72,0
331200,note_on,0,0,1,,,,,,,,,0,,,70,50
331200,note_on,0,0,4,,,,,,,,,4,,,39,50
331200,note_on,0,0,2,,,,,,,,,1,,,67,50
331200,note_off,480,0,4,,,,,,,,,4,,,38,0
331200,note_off,0,0,4,,,,,,,,,4,,,50,0
331200,note_on,0,0,4,,,,,,,,,4,,,51,50
331200,note_off,480,0,2,,,,,,,,,1,,,68,0
331450,set_tempo,3130,1,0,,,,,,251046,,,,,,,
331680,note_on,0,0,2,,,,,,,,,1,,,67,50
331680,note_off,480,0,1,,,,,,,,,0,,,70,0
331680,set_tempo,230,1,0,,,,,,260869,,,,,,,
331680,note_on,0,0,1,,,,,,,,,0,,,72,50
331680,note_off,480,0,2,,,,,,,,,1,,,67,0
331680,note_on,0,0,4,,,,,,,,,4,,,52,50
331680,note_on,0,0,4,,,,,,,,,4,,,40,50
331680,note_off,0,0,4,,,,,,,,,4,,,51,0
331680,note_off,480,0,4,,,,,,,,,4,,,39,0
332040,note_off,360,0,1,,,,,,,,,0,,,72,0
332040,note_off,360,0,2,,,,,,,,,1,,,67,0
332160,note_off,0,0,4,,,,,,,,,4,,,40,0
332160,note_on,0,0,4,,,,,,,,,4,,,41,50
332160,set_tempo,480,1,0,,,,,,248962,,,,,,,
332160,note_on,0,0,4,,,,,,,,,4,,,53,50
332160,note_off,480,0,4,,,,,,,,,4,,,52,0
332160,note_on,120,0,1,,,,,,,,,0,,,65,49
332640,note_on,4920,0,3,,,,,,,,,2,,,56,49
332640,note_on,0,0,4,,,,,,,,,4,,,53,49
332640,note_off,480,0,1,,,,,,,,,0,,,65,0
332640,note_off,0,0,4,,,,,,,,,4,,,53,0
332640,note_off,480,0,4,,,,,,,,,4,,,41,0
332640,note_on,0,0,1,,,,,,,,,0,,,65,49
333120,note_off,480,0,1,,,,,,,,,0,,,65,0
333120,note_on,0,0,4,,,,,,,,,4,,,55,49
333120,note_off,480,0,4,,,,,,,,,4,,,53,0
333120,note_on,0,0,3,,,,,,,,,2,,,58,49
333120,note_off,480,0,3,,,,,,,,,2,,,56,0
333120,note_on,0,0,1,,,,,,,,,0,,,64,49
333360,note_off,240,0,1,,,,,,,,,0,,,64,0
333360,note_on,0,0,1,,,,,,,,,0,,,62,49
333480,note_off,360,0,3,,,,,,,,,2,,,58,0
333480,note_off,360,0,4,,,,,,,,,4,,,55,0
333600,note_off,240,0,1,,,,,,,,,0,,,62,0
333600,note_on,0,0,1,,,,,,,,,0,,,60,48
333960,set_tempo,1800,1,0,,,,,,251046,,,,,,,
334080,set_tempo,120,1,0,,,,,,248962,,,,,,,
334080,note_on,2040,0,2,,,,,,,,,1,,,65,48
334080,note_on,0,0,1,,,,,,,,,0,,,68,48
334080,note_off,480,0,1,,,,,,,,,0,,,60,0
334560,note_on,1080,0,4,,,,,,,,,4,,,53,48
334560,note_on,0,0,2,,,,,,,,,1,,,65,48
334560,note_off,480,0,2,,,,,,,,,1,,,65,0
334560,note_on,1080,0,3,,,,,,,,,2,,,56,48
334560,note_off,480,0,1,,,,,,,,,0,,,68,0
334560,note_on,0,0,1,,,,,,,,,0,,,68,48
335040,note_off,480,0,1,,,,,,,,,0,,,68,0
335040,note_on,0,0,1,,,,,,,,,0,,,67,47
335040,note_on,0,0,2,,,,,,,,,1,,,64,47
335040,note_on,0,0,3,,,,,,,,,2,,,58,48
335040,note_off,480,0,3,,,,,,,,,2,,,56,0
335040,note_off,480,0,4,,,,,,,,,4,,,53,0
335040,note_on,0,0,4,,,,,,,,,4,,,55,48
335040,note_off,480,0,2,,,,,,,,,1,,,65,0
335280,note_off,240,0,2,,,,,,,,,1,,,64,0
335280,note_on,0,0,2,,,,,,,,,1,,,62,47
335280,note_off,240,0,1,,,,,,,,,0,,,67,0
335280,note_on,0,0,1,,,,,,,,,0,,,65,47
335400,note_off,360,0,3,,,,,,,,,2,,,58,0
335400,note_off,360,0,4,,,,,,,,,4,,,55,0
335520,note_off,240,0,2,,,,,,,,,1,,,62,0
335520,note_on,0,0,2,,,,,,,,,1,,,60,47
335520,note_off,240,0,1,,,,,,,,,0,,,65,0
335520,note_on,0,0,1,,,,,,,,,0,,,64,47
335880,set_tempo,1800,1,0,,,,,,251046,,,,,,,
336000,set_tempo,120,1,0,,,,,,248962,,,,,,,
336000,note_on,0,0,2,,,,,,,,,1,,,68,46
336000,note_off,480,0,2,,,,,,,,,1,,,60,0
336000,note_off,480,0,1,,,,,,,,,0,,,64,0
336000,note_on,0,0,1,,,,,,,,,0,,,72,46
336480,note_on,0,0,1,,,,,,,,,0,,,72,46
336480,note_on,0,0,2,,,,,,,,,1,,,68,46
336480,note_on,0,0,4,,,,,,,,,4,,,53,47
336480,note_on,1080,0,4,,,,,,,,,4,,,41,47
336480,note_off,480,0,2,,,,,,,,,1,,,68,0
336480,note_off,480,0,1,,,,,,,,,0,,,72,0
336960,note_off,480,0,1,,,,,,,,,0,,,72,0
336960,note_on,0,0,1,,,,,,,,,0,,,70,46
336960,note_off,480,0,4,,,,,,,,,4,,,53,0
336960,note_off,0,0,4,,,,,,,,,4,,,41,0
336960,note_on,0,0,4,,,,,,,,,4,,,55,47
336960,note_on,0,0,4,,,,,,,,,4,,,43,47
336960,note_off,480,0,2,,,,,,,,,1,,,68,0
336960,note_on,0,0,2,,,,,,,,,1,,,67,46
337440,note_off,480,0,4,,,,,,,,,4,,,43,0
337440,note_off,0,0,4,,,,,,,,,4,,,55,0
337440,note_on,0,0,4,,,,,,,,,4,,,56,47
337440,note_on,0,0,4,,,,,,,,,4,,,44,47
337440,note_off,480,0,2,,,,,,,,,1,,,67,0
337440,note_on,0,0,2,,,,,,,,,1,,,65,45
337440,note_off,480,0,1,,,,,,,,,0,,,70,0
337440,note_on,0,0,1,,,,,,,,,0,,,68,45
337660,set_tempo,1660,1,0,,,,,,251046,,,,,,,
337920,note_on,0,0,4,,,,,,,,,4,,,58,47
337920,note_off,480,0,2,,,,,,,,,1,,,65,0
337920,note_on,0,0,2,,,,,,,,,1,,,64,45
337920,note_off,480,0,1,,,,,,,,,0,,,68,0
337920,note_on,0,0,1,,,,,,,,,0,,,67,45
337920,note_off,0,0,4,,,,,,,,,4,,,56,0
337920,note_off,480,0,4,,,,,,,,,4,,,44,0
337920,note_on,0,0,4,,,,,,,,,4,,,46,47
337920,set_tempo,260,1,0,,,,,,269058,,,,,,,
338400,note_off,480,0,1,,,,,,,,,0,,,67,0
338400,note_on,0,0,1,,,,,,,,,0,,,68,45
338400,note_off,0,0,4,,,,,,,,,4,,,46,0
338400,note_on,0,0,4,,,,,,,,,4,,,59,46
338400,note_on,0,0,4,,,,,,,,,4,,,47,46
338400,note_off,480,0,4,,,,,,,,,4,,,58,0
338400,note_off,480,0,2,,,,,,,,,1,,,64,0
338400,note_on,0,0,2,,,,,,,,,1,,,65,45
338415,set_tempo,495,1,0,,,,,,301507,,,,,,,
338880,note_off,480,0,1,,,,,,,,,0,,,68,0
338880,note_on,0,0,4,,,,,,,,,4,,,48,46
338880,set_tempo,465,1,0,,,,,,434782,,,,,,,
338880,note_off,480,0,2,,,,,,,,,1,,,65,0
338880,note_on,0,0,2,,,,,,,,,1,,,64,44
338880,note_on,0,0,1,,,,,,,,,0,,,67,44
338880,note_on,0,0,4,,,,,,,,,4,,,60,46
338880,note_off,0,0,4,,,,,,,,,4,,,59,0
338880,note_off,480,0,4,,,,,,,,,4,,,47,0
339600,note_off,720,0,2,,,,,,,,,1,,,64,0
339600,note_off,0,0,4,,,,,,,,,4,,,60,0
339600,note_off,720,0,4,,,,,,,,,4,,,48,0
339600,note_off,720,0,1,,,,,,,,,0,,,67,0
339840,note_on,4440,0,3,,,,,,,,,2,,,56,47
339840,note_on,240,0,4,,,,,,,,,4,,,44,47
339840,note_on,240,0,1,,,,,,,,,0,,,72,45
339840,set_tempo,960,1,0,,,,,,256410,,,,,,,
339840,note_on,240,0,2,,,,,,,,,1,,,65,45
340200,note_off,360,0,1,,,,,,,,,0,,,72,0
340320,note_on,120,0,1,,,,,,,,,0,,,72,49
340680,note_off,360,0,1,,,,,,,,,0,,,72,0
340800,note_on,0,0,4,,,,,,,,,4,,,43,53
340800,note_on,120,0,1,,,,,,,,,0,,,74,53
340800,note_off,960,0,4,,,,,,,,,4,,,44,0
340800,note_on,0,0,3,,,,,,,,,2,,,46,53
340800,note_off,960,0,3,,,,,,,,,2,,,56,0
340800,note_off,960,0,2,,,,,,,,,1,,,65,0
341280,note_on,0,0,1,,,,,,,,,0,,,79,57
341280,note_on,0,0,3,,,,,,,,,2,,,58,56
341280,note_off,480,0,3,,,,,,,,,2,,,46,0
341280,note_off,480,0,1,,,,,,,,,0,,,74,0
341640,note_off,360,0,3,,,,,,,,,2,,,58,0
341640,set_tempo,1800,1,0,,,,,,258620,,,,,,,
341760,note_off,480,0,1,,,,,,,,,0,,,79,0
341760,note_on,120,0,3,,,,,,,,,2,,,56,59
341760,note_on,0,0,4,,,,,,,,,4,,,48,59
341760,note_off,960,0,4,,,,,,,,,4,,,43,0
341760,note_on,0,0,1,,,,,,,,,0,,,77,60
342120,set_tempo,480,1,0,,,,,,260869,,,,,,,
342120,note_off,360,0,1,,,,,,,,,0,,,77,0
342120,note_off,360,0,3,,,,,,,,,2,,,56,0
342240,note_on,120,0,1,,,,,,,,,0,,,76,64
342240,note_on,120,0,3,,,,,,,,,2,,,55,62
342600,note_off,360,0,1,,,,,,,,,0,,,76,0
342600,note_off,360,0,3,,,,,,,,,2,,,55,0
342720,note_off,960,0,4,,,,,,,,,4,,,48,0
342720,note_on,0,0,4,,,,,,,,,4,,,49,99
342720,note_on,1920,0,2,,,,,,,,,1,,,68,101
342720,note_on,120,0,3,,,,,,,,,2,,,53,99
342720,set_tempo,600,1,0,,,,,,248962,,,,,,,
342720,note_on,120,0,1,,,,,,,,,0,,,77,101
343200,note_off,480,0,1,,,,,,,,,0,,,77,0
343200,note_off,480,0,2,,,,,,,,,1,,,68,0
343200,note_on,0,0,2,,,,,,,,,1,,,73,95
343200,note_off,480,0,3,,,,,,,,,2,,,53,0
343200,note_on,0,0,1,,,,,,,,,0,,,79,95
343200,note_on,0,0,4,,,,,,,,,4,,,46,95
343200,note_off,480,0,4,,,,,,,,,4,,,49,0
343200,note_on,0,0,3,,,,,,,,,2,,,53,95
343560,note_off,360,0,2,,,,,,,,,1,,,73,0
343560,note_off,360,0,4,,,,,,,,,4,,,46,0
343560,note_off,360,0,1,,,,,,,,,0,,,79,0
343560,note_off,360,0,3,,,,,,,,,2,,,53,0
345600,note_on,0,0,2,,,,,,,,,1,,,72,96
345600,note_on,2040,0,1,,,,,,,,,0,,,80,96
345600,note_on,2040,0,3,,,,,,,,,2,,,53,91
345600,note_on,2040,0,4,,,,,,,,,4,,,48,91
345600,note_on,2040,0,2,,,,,,,,,1,,,77,96
345756,note_off,156,0,2,,,,,,,,,1,,,72,0
345756,note_off,156,0,3,,,,,,,,,2,,,53,0
345756,note_off,0,0,2,,,,,,,,,1,,,77,0
345756,note_off,156,0,4,,,,,,,,,4,,,48,0
345756,note_off,156,0,1,,,,,,,,,0,,,80,0
346080,note_on,324,0,1,,,,,,,,,0,,,84,99
346080,note_on,0,0,2,,,,,,,,,1,,,79,99
346080,note_on,324,0,2,,,,,,,,,1,,,72,99
346080,note_on,324,0,4,,,,,,,,,4,,,48,94
346080,note_on,324,0,3,,,,,,,,,2,,,52,94
346236,note_off,156,0,1,,,,,,,,,0,,,84,0
346236,note_off,156,0,3,,,,,,,,,2,,,52,0
346236,note_off,156,0,4,,,,,,,,,4,,,48,0
346236,note_off,156,0,2,,,,,,,,,1,,,79,0
346236,note_off,0,0,2,,,,,,,,,1,,,72,0
346560,control_change,324,0,4,,,,,,,64,0,4,,,,
346560,control_change,324,0,2,,,,,,,64,0,1,,,,
346560,control_change,324,0,3,,,,,,,64,0,2,,,,
346560,note_on,0,0,1,,,,,,,,,0,,,77,101
346560,control_change,324,0,1,,,,,,,64,0,0,,,,
346560,note_on,0,0,3,,,,,,,,,2,,,53,97
346560,note_on,0,0,4,,,,,,,,,4,,,41,97
346716,note_off,156,0,3,,,,,,,,,2,,,53,0
346716,note_off,156,0,1,,,,,,,,,0,,,77,0
346716,note_off,156,0,4,,,,,,,,,4,,,41,0
347040,note_on,324,0,1,,,,,,,,,0,,,79,93
347040,note_on,324,0,4,,,,,,,,,4,,,36,93
347040,note_on,480,0,2,,,,,,,,,1,,,76,93
347040,note_on,0,0,4,,,,,,,,,4,,,48,93
347520,control_change,480,0,1,,,,,,,64,0,0,,,,
347520,control_change,0,0,1,,,,,,,64,0,0,,,,
347520,control_change,0,0,1,,,,,,,64,0,0,,,,
347520,control_change,0,0,1,,,,,,,64,0,0,,,,
347520,control_change,804,0,3,,,,,,,64,0,2,,,,
347520,set_tempo,4800,1,0,,,,,,248962,,,,,,,
347520,control_change,480,0,2,,,,,,,64,0,1,,,,
347520,control_change,480,0,4,,,,,,,64,0,4,,,,
347632,note_off,112,0,4,,,,,,,,,4,,,36,0
347640,note_off,8,0,4,,,,,,,,,4,,,48,0
347655,note_off,135,0,2,,,,,,,,,1,,,76,0
347676,note_off,156,0,1,,,,,,,,,0,,,79,0
348000,note_on,360,0,4,,,,,,,,,4,,,35,80
348000,note_on,0,0,4,,,,,,,,,4,,,47,80
348000,note_on,345,0,2,,,,,,,,,1,,,74,79
348000,note_on,324,0,1,,,,,,,,,0,,,79,79
348156,note_off,156,0,2,,,,,,,,,1,,,74,0
348156,note_off,156,0,1,,,,,,,,,0,,,79,0
348165,note_off,165,0,4,,,,,,,,,4,,,35,0
348180,note_off,15,0,4,,,,,,,,,4,,,47,0
348480,note_on,324,0,1,,,,,,,,,0,,,79,79
348480,note_on,0,0,4,,,,,,,,,4,,,48,81
348480,note_on,300,0,4,,,,,,,,,4,,,36,81
348480,note_on,324,0,2,,,,,,,,,1,,,76,80
348636,note_off,156,0,1,,,,,,,,,0,,,79,0
348960,note_on,324,0,1,,,,,,,,,0,,,80,81
349116,note_off,156,0,1,,,,,,,,,0,,,80,0
349440,note_on,324,0,1,,,,,,,,,0,,,80,82
349596,note_off,156,0,1,,,,,,,,,0,,,80,0
349912,note_off,1432,0,4,,,,,,,,,4,,,48,0
349920,note_off,8,0,4,,,,,,,,,4,,,36,0
349920,note_on,324,0,1,,,,,,,,,0,,,80,83
349920,note_on,0,0,4,,,,,,,,,4,,,37,84
349920,note_off,1440,0,2,,,,,,,,,1,,,76,0
349920,note_on,0,0,2,,,,,,,,,1,,,77,83
349920,note_on,0,0,4,,,,,,,,,4,,,49,84
350076,note_off,156,0,1,,,,,,,,,0,,,80,0
350400,note_on,324,0,1,,,,,,,,,0,,,80,85
350556,note_off,156,0,1,,,,,,,,,0,,,80,0
350565,note_off,645,0,2,,,,,,,,,1,,,77,0
350880,note_on,0,0,4,,,,,,,,,4,,,50,86
350880,note_off,0,0,4,,,,,,,,,4,,,37,0
350880,note_on,324,0,1,,,,,,,,,0,,,82,86
350880,note_on,0,0,4,,,,,,,,,4,,,38,86
350880,note_on,315,0,2,,,,,,,,,1,,,77,86
350880,note_on,0,0,2,,,,,,,,,1,,,80,87
350880,note_off,960,0,4,,,,,,,,,4,,,49,0
351036,note_off,156,0,1,,,,,,,,,0,,,82,0
351360,note_on,324,0,1,,,,,,,,,0,,,82,87
351516,note_off,156,0,1,,,,,,,,,0,,,82,0
351517,note_off,637,0,2,,,,,,,,,1,,,80,0
351517,note_off,0,0,2,,,,,,,,,1,,,77,0
351840,note_off,960,0,4,,,,,,,,,4,,,50,0
351840,note_off,0,0,4,,,,,,,,,4,,,38,0
351840,note_on,324,0,1,,,,,,,,,0,,,82,88
351840,note_on,0,0,2,,,,,,,,,1,,,75,88
351840,note_on,323,0,2,,,,,,,,,1,,,79,88
351840,note_on,0,0,4,,,,,,,,,4,,,39,88
351840,note_on,0,0,4,,,,,,,,,4,,,51,88
351996,note_off,156,0,1,,,,,,,,,0,,,82,0
351996,note_off,156,0,2,,,,,,,,,1,,,79,0
352320,note_on,324,0,2,,,,,,,,,1,,,79,89
352320,note_on,324,0,1,,,,,,,,,0,,,82,89
352800,note_off,480,0,2,,,,,,,,,1,,,79,0
352800,note_on,0,0,2,,,,,,,,,1,,,80,90
352800,note_off,0,0,4,,,,,,,,,4,,,39,0
352800,note_off,960,0,4,,,,,,,,,4,,,51,0
352800,note_on,0,0,1,,,,,,,,,0,,,84,90
352800,note_off,480,0,1,,,,,,,,,0,,,82,0
352800,note_on,0,0,4,,,,,,,,,4,,,44,90
352800,note_on,0,0,4,,,,,,,,,4,,,32,90
352956,note_off,156,0,2,,,,,,,,,1,,,80,0
352956,note_off,156,0,1,,,,,,,,,0,,,84,0
353160,note_off,0,0,4,,,,,,,,,4,,,32,0
353160,note_off,360,0,4,,,,,,,,,4,,,44,0
353212,note_off,256,0,2,,,,,,,,,1,,,75,0
353280,note_on,68,0,2,,,,,,,,,1,,,77,91
353280,note_on,0,0,2,,,,,,,,,1,,,82,91
353280,note_on,324,0,1,,,,,,,,,0,,,85,91
353280,note_on,120,0,4,,,,,,,,,4,,,37,91
353280,note_on,0,0,4,,,,,,,,,4,,,49,91
353436,note_off,0,0,2,,,,,,,,,1,,,77,0
353436,note_off,156,0,4,,,,,,,,,4,,,49,0
353436,note_off,0,0,4,,,,,,,,,4,,,37,0
353436,note_off,156,0,2,,,,,,,,,1,,,82,0
353436,note_off,156,0,1,,,,,,,,,0,,,85,0
353760,note_on,324,0,1,,,,,,,,,0,,,82,95
353760,note_on,0,0,4,,,,,,,,,4,,,51,95
353760,note_on,324,0,4,,,,,,,,,4,,,39,95
353760,note_on,324,0,2,,,,,,,,,1,,,77,95
353760,note_on,0,0,2,,,,,,,,,1,,,73,95
353916,note_off,156,0,4,,,,,,,,,4,,,51,0
353916,note_off,0,0,4,,,,,,,,,4,,,39,0
353916,note_off,0,0,2,,,,,,,,,1,,,77,0
353916,note_off,156,0,2,,,,,,,,,1,,,73,0
353916,note_off,156,0,1,,,,,,,,,0,,,82,0
354000,set_tempo,6480,1,0,,,,,,251046,,,,,,,
354240,note_on,324,0,1,,,,,,,,,0,,,80,100
354240,note_on,0,0,4,,,,,,,,,4,,,56,102
354240,set_tempo,240,1,0,,,,,,253164,,,,,,,
354240,note_on,324,0,4,,,,,,,,,4,,,44,102
354240,note_on,324,0,2,,,,,,,,,1,,,72,100
354960,note_off,720,0,4,,,,,,,,,4,,,56,0
354960,note_off,720,0,2,,,,,,,,,1,,,72,0
354960,note_off,0,0,4,,,,,,,,,4,,,44,0
354960,note_off,720,0,1,,,,,,,,,0,,,80,0
355200,set_tempo,960,1,0,,,,,,248962,,,,,,,
355200,note_on,240,0,1,,,,,,,,,0,,,68,55
355680,note_off,480,0,1,,,,,,,,,0,,,68,0
355680,note_on,720,0,4,,,,,,,,,4,,,56,53
355680,note_on,8160,0,3,,,,,,,,,2,,,60,53
355680,note_on,0,0,1,,,,,,,,,0,,,68,55
356160,note_on,0,0,1,,,,,,,,,0,,,67,55
356160,note_off,480,0,4,,,,,,,,,4,,,56,0
356160,note_on,0,0,3,,,,,,,,,2,,,61,53
356160,note_off,480,0,3,,,,,,,,,2,,,60,0
356160,note_on,0,0,4,,,,,,,,,4,,,58,53
356160,note_off,480,0,1,,,,,,,,,0,,,68,0
356400,note_on,0,0,1,,,,,,,,,0,,,65,54
356400,note_off,240,0,1,,,,,,,,,0,,,67,0
356520,note_off,360,0,4,,,,,,,,,4,,,58,0
356520,note_off,360,0,3,,,,,,,,,2,,,61,0
356640,note_off,240,0,1,,,,,,,,,0,,,65,0
356640,note_on,0,0,1,,,,,,,,,0,,,63,54
357000,set_tempo,1800,1,0,,,,,,251046,,,,,,,
357120,note_on,2160,0,2,,,,,,,,,1,,,68,54
357120,note_off,480,0,1,,,,,,,,,0,,,63,0
357120,note_on,0,0,1,,,,,,,,,0,,,72,54
357120,set_tempo,120,1,0,,,,,,248962,,,,,,,
357600,note_off,480,0,1,,,,,,,,,0,,,72,0
357600,note_on,1080,0,4,,,,,,,,,4,,,56,52
357600,note_off,480,0,2,,,,,,,,,1,,,68,0
357600,note_on,0,0,2,,,,,,,,,1,,,68,54
357600,note_on,1080,0,3,,,,,,,,,2,,,60,52
357600,note_on,0,0,1,,,,,,,,,0,,,72,54
358080,note_off,480,0,1,,,,,,,,,0,,,72,0
358080,note_on,0,0,1,,,,,,,,,0,,,70,53
358080,note_off,480,0,2,,,,,,,,,1,,,68,0
358080,note_on,0,0,2,,,,,,,,,1,,,67,53
358080,note_on,0,0,4,,,,,,,,,4,,,58,52
358080,note_off,480,0,4,,,,,,,,,4,,,56,0
358080,note_off,480,0,3,,,,,,,,,2,,,60,0
358080,note_on,0,0,3,,,,,,,,,2,,,61,52
358320,note_off,240,0,1,,,,,,,,,0,,,70,0
358320,note_on,0,0,1,,,,,,,,,0,,,68,53
358320,note_off,240,0,2,,,,,,,,,1,,,67,0
358320,note_on,0,0,2,,,,,,,,,1,,,65,53
358440,note_off,360,0,3,,,,,,,,,2,,,61,0
358440,note_off,360,0,4,,,,,,,,,4,,,58,0
358560,note_on,0,0,2,,,,,,,,,1,,,63,53
358560,note_off,240,0,1,,,,,,,,,0,,,68,0
358560,note_on,0,0,1,,,,,,,,,0,,,67,53
358560,note_off,240,0,2,,,,,,,,,1,,,65,0
358920,set_tempo,1800,1,0,,,,,,251046,,,,,,,
359040,note_on,0,0,1,,,,,,,,,0,,,75,52
359040,note_off,480,0,1,,,,,,,,,0,,,67,0
359040,note_on,0,0,2,,,,,,,,,1,,,72,52
359040,set_tempo,120,1,0,,,,,,248962,,,,,,,
359040,note_off,480,0,2,,,,,,,,,1,,,63,0
359520,note_on,0,0,2,,,,,,,,,1,,,72,52
359520,note_off,480,0,2,,,,,,,,,1,,,72,0
359520,note_on,0,0,4,,,,,,,,,4,,,44,51
359520,note_on,1080,0,4,,,,,,,,,4,,,32,51
359520,note_on,0,0,1,,,,,,,,,0,,,75,52
359520,note_off,480,0,1,,,,,,,,,0,,,75,0
360000,note_on,0,0,4,,,,,,,,,4,,,46,51
360000,note_on,0,0,4,,,,,,,,,4,,,34,51
360000,note_off,480,0,2,,,,,,,,,1,,,72,0
360000,note_on,0,0,2,,,,,,,,,1,,,70,52
360000,note_off,0,0,4,,,,,,,,,4,,,32,0
360000,note_off,480,0,4,,,,,,,,,4,,,44,0
360000,note_off,480,0,1,,,,,,,,,0,,,75,0
360000,note_on,0,0,1,,,,,,,,,0,,,73,52
360480,note_off,480,0,1,,,,,,,,,0,,,73,0
360480,note_on,0,0,4,,,,,,,,,4,,,48,50
360480,note_off,480,0,4,,,,,,,,,4,,,34,0
360480,note_off,0,0,4,,,,,,,,,4,,,46,0
360480,note_on,0,0,2,,,,,,,,,1,,,68,51
360480,note_off,480,0,2,,,,,,,,,1,,,70,0
360480,note_on,0,0,4,,,,,,,,,4,,,36,50
360480,note_on,0,0,1,,,,,,,,,0,,,72,51
360960,note_on,0,0,1,,,,,,,,,0,,,70,51
360960,note_on,0,0,4,,,,,,,,,4,,,49,50
360960,note_on,0,0,4,,,,,,,,,4,,,37,50
360960,note_off,480,0,4,,,,,,,,,4,,,48,0
360960,note_off,480,0,2,,,,,,,,,1,,,68,0
360960,note_off,0,0,4,,,,,,,,,4,,,36,0
360960,note_off,480,0,1,,,,,,,,,0,,,72,0
360960,note_on,0,0,2,,,,,,,,,1,,,67,51
361440,note_off,480,0,2,,,,,,,,,1,,,67,0
361440,note_on,0,0,2,,,,,,,,,1,,,68,51
361440,note_off,480,0,1,,,,,,,,,0,,,70,0
361440,note_on,0,0,4,,,,,,,,,4,,,50,50
361440,note_on,0,0,4,,,,,,,,,4,,,38,50
361440,note_off,0,0,4,,,,,,,,,4,,,37,0
361440,note_off,480,0,4,,,,,,,,,4,,,49,0
361440,note_on,0,0,1,,,,,,,,,0,,,72,51
361920,note_on,0,0,4,,,,,,,,,4,,,39,50
361920,note_off,0,0,4,,,,,,,,,4,,,38,0
361920,note_off,480,0,4,,,,,,,,,4,,,50,0
361920,note_off,480,0,2,,,,,,,,,1,,,68,0
361920,note_on,0,0,2,,,,,,,,,1,,,67,50
361920,note_off,480,0,1,,,,,,,,,0,,,72,0
361920,note_on,0,0,4,,,,,,,,,4,,,51,50
361920,note_on,0,0,1,,,,,,,,,0,,,70,50
362170,set_tempo,3130,1,0,,,,,,251046,,,,,,,
362400,note_on,0,0,2,,,,,,,,,1,,,67,50
362400,note_off,480,0,1,,,,,,,,,0,,,70,0
362400,note_on,0,0,1,,,,,,,,,0,,,72,50
362400,set_tempo,230,1,0,,,,,,260869,,,,,,,
362400,note_off,480,0,2,,,,,,,,,1,,,67,0
362400,note_off,480,0,4,,,,,,,,,4,,,51,0
362400,note_off,0,0,4,,,,,,,,,4,,,39,0
362400,note_on,0,0,4,,,,,,,,,4,,,52,50
362400,note_on,0,0,4,,,,,,,,,4,,,40,50
362760,note_off,360,0,2,,,,,,,,,1,,,67,0
362760,note_off,360,0,1,,,,,,,,,0,,,72,0
362880,note_on,120,0,1,,,,,,,,,0,,,65,49
362880,note_on,0,0,4,,,,,,,,,4,,,41,50
362880,note_on,0,0,4,,,,,,,,,4,,,53,50
362880,set_tempo,480,1,0,,,,,,248962,,,,,,,
362880,note_off,480,0,4,,,,,,,,,4,,,40,0
362880,note_off,0,0,4,,,,,,,,,4,,,52,0
363360,note_off,480,0,4,,,,,,,,,4,,,53,0
363360,note_off,0,0,4,,,,,,,,,4,,,41,0
363360,note_on,0,0,4,,,,,,,,,4,,,53,49
363360,note_on,4920,0,3,,,,,,,,,2,,,56,49
363360,note_on,0,0,1,,,,,,,,,0,,,65,49
363360,note_off,480,0,1,,,,,,,,,0,,,65,0
363840,note_on,0,0,1,,,,,,,,,0,,,64,49
363840,note_off,480,0,4,,,,,,,,,4,,,53,0
363840,note_on,0,0,4,,,,,,,,,4,,,55,49
363840,note_off,480,0,3,,,,,,,,,2,,,56,0
363840,note_on,0,0,3,,,,,,,,,2,,,58,49
363840,note_off,480,0,1,,,,,,,,,0,,,65,0
364080,note_off,240,0,1,,,,,,,,,0,,,64,0
364080,note_on,0,0,1,,,,,,,,,0,,,62,49
364200,note_off,360,0,4,,,,,,,,,4,,,55,0
364200,note_off,360,0,3,,,,,,,,,2,,,58,0
364320,note_off,240,0,1,,,,,,,,,0,,,62,0
364320,note_on,0,0,1,,,,,,,,,0,,,60,48
364680,set_tempo,1800,1,0,,,,,,251046,,,,,,,
364800,set_tempo,120,1,0,,,,,,248962,,,,,,,
364800,note_on,0,0,1,,,,,,,,,0,,,68,48
364800,note_off,480,0,1,,,,,,,,,0,,,60,0
364800,note_on,2040,0,2,,,,,,,,,1,,,65,48
365280,note_on,0,0,1,,,,,,,,,0,,,68,48
365280,note_off,480,0,1,,,,,,,,,0,,,68,0
365280,note_on,1080,0,4,,,,,,,,,4,,,53,48
365280,note_off,480,0,2,,,,,,,,,1,,,65,0
365280,note_on,0,0,2,,,,,,,,,1,,,65,48
365280,note_on,1080,0,3,,,,,,,,,2,,,56,48
365760,note_off,480,0,4,,,,,,,,,4,,,53,0
365760,note_off,480,0,3,,,,,,,,,2,,,56,0
365760,note_on,0,0,4,,,,,,,,,4,,,55,48
365760,note_on,0,0,1,,,,,,,,,0,,,67,47
365760,note_off,480,0,1,,,,,,,,,0,,,68,0
365760,note_on,0,0,2,,,,,,,,,1,,,64,47
365760,note_on,0,0,3,,,,,,,,,2,,,58,48
365760,note_off,480,0,2,,,,,,,,,1,,,65,0
366000,note_off,240,0,2,,,,,,,,,1,,,64,0
366000,note_on,0,0,2,,,,,,,,,1,,,62,47
366000,note_on,0,0,1,,,,,,,,,0,,,65,47
366000,note_off,240,0,1,,,,,,,,,0,,,67,0
366120,note_off,360,0,4,,,,,,,,,4,,,55,0
366120,note_off,360,0,3,,,,,,,,,2,,,58,0
366240,note_off,240,0,2,,,,,,,,,1,,,62,0
366240,note_on,0,0,2,,,,,,,,,1,,,60,47
366240,note_on,0,0,1,,,,,,,,,0,,,64,47
366240,note_off,240,0,1,,,,,,,,,0,,,65,0
366600,set_tempo,1800,1,0,,,,,,251046,,,,,,,
366720,note_on,0,0,2,,,,,,,,,1,,,68,46
366720,note_off,480,0,2,,,,,,,,,1,,,60,0
366720,note_off,480,0,1,,,,,,,,,0,,,64,0
366720,note_on,0,0,1,,,,,,,,,0,,,72,46
366720,set_tempo,120,1,0,,,,,,248962,,,,,,,
367200,note_on,0,0,1,,,,,,,,,0,,,72,46
367200,note_on,1080,0,4,,,,,,,,,4,,,53,47
367200,note_on,0,0,4,,,,,,,,,4,,,41,47
367200,note_on,0,0,2,,,,,,,,,1,,,68,46
367200,note_off,480,0,1,,,,,,,,,0,,,72,0
367200,note_off,480,0,2,,,,,,,,,1,,,68,0
367680,note_on,0,0,4,,,,,,,,,4,,,43,47
367680,note_off,0,0,4,,,,,,,,,4,,,53,0
367680,note_off,480,0,4,,,,,,,,,4,,,41,0
367680,note_off,480,0,1,,,,,,,,,0,,,72,0
367680,note_on,0,0,2,,,,,,,,,1,,,67,46
367680,note_on,0,0,4,,,,,,,,,4,,,55,47
367680,note_off,480,0,2,,,,,,,,,1,,,68,0
367680,note_on,0,0,1,,,,,,,,,0,,,70,46
368160,note_on,0,0,4,,,,,,,,,4,,,44,47
368160,note_off,480,0,2,,,,,,,,,1,,,67,0
368160,note_on,0,0,2,,,,,,,,,1,,,65,45
368160,note_on,0,0,4,,,,,,,,,4,,,56,47
368160,note_off,0,0,4,,,,,,,,,4,,,43,0
368160,note_on,0,0,1,,,,,,,,,0,,,68,45
368160,note_off,480,0,4,,,,,,,,,4,,,55,0
368160,note_off,480,0,1,,,,,,,,,0,,,70,0
368400,set_tempo,1680,1,0,,,,,,251046,,,,,,,
368640,note_on,0,0,4,,,,,,,,,4,,,58,47
368640,note_off,0,0,4,,,,,,,,,4,,,44,0
368640,note_on,0,0,4,,,,,,,,,4,,,46,47
368640,note_off,480,0,2,,,,,,,,,1,,,65,0
368640,note_on,0,0,2,,,,,,,,,1,,,64,45
368640,note_on,0,0,1,,,,,,,,,0,,,67,45
368640,note_off,480,0,1,,,,,,,,,0,,,68,0
368640,note_off,480,0,4,,,,,,,,,4,,,56,0
368660,set_tempo,260,1,0,,,,,,273972,,,,,,,
369120,note_off,0,0,4,,,,,,,,,4,,,58,0
369120,note_on,0,0,4,,,,,,,,,4,,,47,46
369120,note_on,0,0,4,,,,,,,,,4,,,59,46
369120,note_off,480,0,4,,,,,,,,,4,,,46,0
369120,note_off,480,0,1,,,,,,,,,0,,,67,0
369120,note_off,480,0,2,,,,,,,,,1,,,64,0
369120,note_on,0,0,2,,,,,,,,,1,,,65,45
369120,note_on,0,0,1,,,,,,,,,0,,,68,45
369155,set_tempo,495,1,0,,,,,,312500,,,,,,,
369600,note_off,480,0,2,,,,,,,,,1,,,65,0
369600,note_on,0,0,4,,,,,,,,,4,,,60,46
369600,note_on,0,0,4,,,,,,,,,4,,,48,46
369600,note_off,0,0,4,,,,,,,,,4,,,47,0
369600,note_on,0,0,2,,,,,,,,,1,,,64,44
369600,note_off,480,0,4,,,,,,,,,4,,,59,0
369600,note_on,0,0,1,,,,,,,,,0,,,67,44
369600,note_off,480,0,1,,,,,,,,,0,,,68,0
369620,set_tempo,465,1,0,,,,,,500000,,,,,,,
370320,note_off,0,0,4,,,,,,,,,4,,,48,0
370320,note_off,720,0,1,,,,,,,,,0,,,67,0
370320,note_off,720,0,4,,,,,,,,,4,,,60,0
370320,note_off,720,0,2,,,,,,,,,1,,,64,0
370560,note_on,240,0,4,,,,,,,,,4,,,44,47
370560,set_tempo,940,1,0,,,,,,256410,,,,,,,
370560,note_on,240,0,2,,,,,,,,,1,,,65,45
370560,note_on,4440,0,3,,,,,,,,,2,,,56,47
370560,note_on,240,0,1,,,,,,,,,0,,,72,45
370920,note_off,360,0,1,,,,,,,,,0,,,72,0
371040,note_on,120,0,1,,,,,,,,,0,,,72,49
371400,note_off,360,0,1,,,,,,,,,0,,,72,0
371520,note_on,0,0,3,,,,,,,,,2,,,46,53
371520,note_on,0,0,4,,,,,,,,,4,,,43,53
371520,note_off,960,0,3,,,,,,,,,2,,,56,0
371520,note_off,960,0,2,,,,,,,,,1,,,65,0
371520,note_on,120,0,1,,,,,,,,,0,,,74,53
371520,note_off,960,0,4,,,,,,,,,4,,,44,0
372000,note_off,480,0,1,,,,,,,,,0,,,74,0
372000,note_on,0,0,1,,,,,,,,,0,,,79,55
372000,note_on,0,0,3,,,,,,,,,2,,,58,56
372000,note_off,480,0,3,,,,,,,,,2,,,46,0
372360,note_off,360,0,3,,,,,,,,,2,,,58,0
372360,set_tempo,1800,1,0,,,,,,258620,,,,,,,
372480,note_off,960,0,4,,,,,,,,,4,,,43,0
372480,note_on,120,0,3,,,,,,,,,2,,,56,59
372480,note_on,0,0,4,,,,,,,,,4,,,48,59
372480,note_off,480,0,1,,,,,,,,,0,,,79,0
372480,note_on,0,0,1,,,,,,,,,0,,,77,60
372840,note_off,360,0,3,,,,,,,,,2,,,56,0
372840,set_tempo,480,1,0,,,,,,260869,,,,,,,
372840,note_off,360,0,1,,,,,,,,,0,,,77,0
372960,note_on,120,0,3,,,,,,,,,2,,,55,62
372960,note_on,120,0,1,,,,,,,,,0,,,76,64
373320,note_off,360,0,3,,,,,,,,,2,,,55,0
373320,note_off,360,0,1,,,,,,,,,0,,,76,0
373440,set_tempo,600,1,0,,,,,,248962,,,,,,,
373440,note_on,120,0,3,,,,,,,,,2,,,53,99
373440,note_on,120,0,1,,,,,,,,,0,,,77,101
373440,note_on,1920,0,2,,,,,,,,,1,,,68,101
373440,note_off,960,0,4,,,,,,,,,4,,,48,0
373440,note_on,0,0,4,,,,,,,,,4,,,49,99
373920,note_off,480,0,1,,,,,,,,,0,,,77,0
373920,note_on,0,0,1,,,,,,,,,0,,,79,95
373920,note_on,0,0,3,,,,,,,,,2,,,53,95
373920,note_off,480,0,3,,,,,,,,,2,,,53,0
373920,note_on,0,0,2,,,,,,,,,1,,,73,95
373920,note_off,480,0,2,,,,,,,,,1,,,68,0
373920,note_on,0,0,4,,,,,,,,,4,,,46,95
373920,note_off,480,0,4,,,,,,,,,4,,,49,0
374280,note_off,360,0,3,,,,,,,,,2,,,53,0
374280,note_off,360,0,1,,,,,,,,,0,,,79,0
374280,note_off,360,0,2,,,,,,,,,1,,,73,0
374280,note_off,360,0,4,,,,,,,,,4,,,46,0
376320,note_on,0,0,2,,,,,,,,,1,,,77,96
376320,note_on,2040,0,3,,,,,,,,,2,,,53,91
376320,note_on,2040,0,2,,,,,,,,,1,,,72,96
376320,note_on,2040,0,1,,,,,,,,,0,,,80,96
376320,note_on,2040,0,4,,,,,,,,,4,,,48,91
376476,note_off,156,0,2,,,,,,,,,1,,,77,0
376476,note_off,156,0,1,,,,,,,,,0,,,80,0
376476,note_off,156,0,4,,,,,,,,,4,,,48,0
376476,note_off,156,0,3,,,,,,,,,2,,,53,0
376476,note_off,0,0,2,,,,,,,,,1,,,72,0
376800,note_on,324,0,3,,,,,,,,,2,,,52,94
376800,note_on,324,0,4,,,,,,,,,4,,,48,94
376800,note_on,0,0,2,,,,,,,,,1,,,72,99
376800,note_on,324,0,2,,,,,,,,,1,,,79,99
376800,note_on,324,0,1,,,,,,,,,0,,,84,99
376956,note_off,156,0,3,,,,,,,,,2,,,52,0
376956,note_off,156,0,4,,,,,,,,,4,,,48,0
376956,note_off,156,0,2,,,,,,,,,1,,,72,0
376956,note_off,156,0,1,,,,,,,,,0,,,84,0
376956,note_off,0,0,2,,,,,,,,,1,,,79,0
377280,control_change,324,0,3,,,,,,,64,0,2,,,,
377280,note_on,0,0,4,,,,,,,,,4,,,41,97
377280,control_change,324,0,4,,,,,,,64,0,4,,,,
377280,note_on,0,0,2,,,,,,,,,1,,,72,101
377280,control_change,324,0,2,,,,,,,64,0,1,,,,
377280,note_on,0,0,3,,,,,,,,,2,,,53,97
377280,note_on,0,0,2,,,,,,,,,1,,,68,101
377280,control_change,324,0,1,,,,,,,64,0,0,,,,
377280,note_on,0,0,1,,,,,,,,,0,,,77,101
377520,note_off,240,0,2,,,,,,,,,1,,,68,0
377520,note_off,240,0,1,,,,,,,,,0,,,77,0
377520,note_off,240,0,3,,,,,,,,,2,,,53,0
377520,note_off,240,0,4,,,,,,,,,4,,,41,0
377520,note_off,0,0,2,,,,,,,,,1,,,72,0
379200,note_on,0,0,3,,,,,,,,,2,,,72,80
379200,note_on,0,0,3,,,,,,,,,2,,,48,80
379200,note_on,1680,0,3,,,,,,,,,2,,,68,80
379200,note_on,0,0,4,,,,,,,,,4,,,53,80
379200,note_on,0,0,4,,,,,,,,,4,,,41,80
379200,note_on,0,0,1,,,,,,,,,0,,,77,80
379200,control_change,1680,0,1,,,,,,,64,0,0,,,,
379200,control_change,1680,0,4,,,,,,,64,0,4,,,,
379200,set_tempo,5760,1,0,,,,,,248962,,,,,,,
380160,note_off,0,0,4,,,,,,,,,4,,,41,0
380160,note_off,0,0,3,,,,,,,,,2,,,68,0
380160,note_off,960,0,3,,,,,,,,,2,,,72,0
380160,note_off,960,0,4,,,,,,,,,4,,,53,0
380160,note_off,0,0,3,,,,,,,,,2,,,48,0
380160,note_off,960,0,1,,,,,,,,,0,,,77,0
381120,note_on,960,0,3,,,,,,,,,2,,,67,84
381120,note_on,0,0,3,,,,,,,,,2,,,72,84
381120,note_on,0,0,3,,,,,,,,,2,,,48,84
381120,note_on,0,0,4,,,,,,,,,4,,,40,84
381120,note_on,960,0,1,,,,,,,,,0,,,79,84
381120,note_on,960,0,4,,,,,,,,,4,,,52,84
382080,note_off,0,0,4,,,,,,,,,4,,,52,0
382080,note_off,960,0,4,,,,,,,,,4,,,40,0
382080,note_off,960,0,1,,,,,,,,,0,,,79,0
382080,note_off,0,0,3,,,,,,,,,2,,,72,0
382080,note_off,960,0,3,,,,,,,,,2,,,48,0
382080,note_off,0,0,3,,,,,,,,,2,,,67,0
383040,note_on,960,0,4,,,,,,,,,4,,,41,88
383040,note_on,0,0,4,,,,,,,,,4,,,53,88
383040,note_on,0,0,3,,,,,,,,,2,,,68,88
383040,note_on,960,0,1,,,,,,,,,0,,,80,88
383040,note_on,960,0,3,,,,,,,,,2,,,48,88
383040,note_on,0,0,3,,,,,,,,,2,,,72,88
383040,note_on,0,0,3,,,,,,,,,2,,,77,88
384000,note_off,0,0,3,,,,,,,,,2,,,77,0
384000,note_off,0,0,4,,,,,,,,,4,,,41,0
384000,note_off,960,0,4,,,,,,,,,4,,,53,0
384000,note_off,960,0,1,,,,,,,,,0,,,80,0
384000,note_off,0,0,3,,,,,,,,,2,,,48,0
384000,note_off,0,0,3,,,,,,,,,2,,,72,0
384000,note_off,960,0,3,,,,,,,,,2,,,68,0
384960,note_on,0,0,4,,,,,,,,,4,,,46,91
384960,note_on,960,0,3,,,,,,,,,2,,,73,91
384960,note_on,0,0,3,,,,,,,,,2,,,77,91
384960,note_on,0,0,3,,,,,,,,,2,,,82,91
384960,note_on,960,0,4,,,,,,,,,4,,,34,91
384960,note_on,960,0,1,,,,,,,,,0,,,85,91
385920,note_off,960,0,4,,,,,,,,,4,,,46,0
385920,note_off,0,0,4,,,,,,,,,4,,,34,0
385920,note_off,0,0,3,,,,,,,,,2,,,77,0
385920,note_off,0,0,3,,,,,,,,,2,,,73,0
385920,note_off,960,0,1,,,,,,,,,0,,,85,0
385920,note_off,960,0,3,,,,,,,,,2,,,82,0
386880,note_on,0,0,4,,,,,,,,,4,,,36,95
386880,note_on,960,0,4,,,,,,,,,4,,,48,95
386880,note_on,960,0,1,,,,,,,,,0,,,84,95
386880,note_on,0,0,3,,,,,,,,,2,,,77,95
386880,note_on,0,0,3,,,,,,,,,2,,,72,95
386880,note_on,960,0,3,,,,,,,,,2,,,80,95
387840,note_off,0,0,3,,,,,,,,,2,,,77,0
387840,note_off,0,0,3,,,,,,,,,2,,,80,0
387840,note_off,960,0,1,,,,,,,,,0,,,84,0
387840,note_off,960,0,4,,,,,,,,,4,,,36,0
387840,note_off,0,0,4,,,,,,,,,4,,,48,0
387840,note_off,960,0,3,,,,,,,,,2,,,72,0
388800,note_on,960,0,4,,,,,,,,,4,,,36,75
388800,note_on,960,0,3,,,,,,,,,2,,,76,75
388800,note_on,960,0,1,,,,,,,,,0,,,84,75
388800,note_on,0,0,3,,,,,,,,,2,,,72,75
388800,note_on,0,0,3,,,,,,,,,2,,,79,75
388800,note_on,0,0,4,,,,,,,,,4,,,48,75
389280,set_tempo,10080,1,0,,,,,,251046,,,,,,,
389760,note_off,0,0,1,,,,,,,,,0,,,84,0
389760,note_on,0,0,1,,,,,,,,,0,,,84,65
389760,note_on,0,0,3,,,,,,,,,2,,,81,65
389760,note_on,0,0,3,,,,,,,,,2,,,77,65
389760,note_on,0,0,3,,,,,,,,,2,,,72,65
389760,note_off,0,0,3,,,,,,,,,2,,,76,0
389760,note_off,0,0,3,,,,,,,,,2,,,72,0
389760,control_change,960,0,4,,,,,,,64,127,4,,,,
389760,note_off,0,0,4,,,,,,,,,4,,,48,0
389760,note_off,0,0,4,,,,,,,,,4,,,36,0
389760,note_on,0,0,4,,,,,,,,,4,,,29,62
389760,note_off,960,0,3,,,,,,,,,2,,,79,0
389760,set_tempo,480,1,0,,,,,,251046,,,,,,,
389760,control_change,960,0,1,,,,,,,64,127,0,,,,
390000,note_off,240,0,4,,,,,,,,,4,,,29,0
390000,note_on,0,0,4,,,,,,,,,4,,,36,62
390240,note_off,240,0,4,,,,,,,,,4,,,36,0
390240,note_on,0,0,4,,,,,,,,,4,,,33,56
390480,note_on,0,0,4,,,,,,,,,4,,,41,54
390480,note_off,240,0,4,,,,,,,,,4,,,33,0
390720,note_off,0,0,3,,,,,,,,,2,,,72,0
390720,note_on,0,0,4,,,,,,,,,4,,,48,56
390720,note_off,240,0,4,,,,,,,,,4,,,41,0
390720,note_off,960,0,1,,,,,,,,,0,,,84,0
390720,note_off,0,0,3,,,,,,,,,2,,,77,0
390720,note_off,960,0,3,,,,,,,,,2,,,81,0
390960,note_off,240,0,4,,,,,,,,,4,,,48,0
390960,note_on,0,0,4,,,,,,,,,4,,,45,50
391200,note_off,240,0,4,,,,,,,,,4,,,45,0
391200,note_on,0,0,4,,,,,,,,,4,,,41,46
391440,note_on,0,0,4,,,,,,,,,4,,,48,48
391440,note_off,240,0,4,,,,,,,,,4,,,41,0
391560,set_tempo,1800,1,0,,,,,,253164,,,,,,,
391680,note_off,240,0,4,,,,,,,,,4,,,48,0
391680,note_on,0,0,4,,,,,,,,,4,,,45,44
391920,note_on,0,0,4,,,,,,,,,4,,,53,44
391920,note_off,240,0,4,,,,,,,,,4,,,45,0
392040,set_tempo,480,1,0,,,,,,256410,,,,,,,
392160,note_on,0,0,4,,,,,,,,,4,,,48,44
392160,note_off,240,0,4,,,,,,,,,4,,,53,0
392400,note_off,240,0,4,,,,,,,,,4,,,48,0
392400,note_on,0,0,4,,,,,,,,,4,,,57,40
392520,set_tempo,480,1,0,,,,,,260869,,,,,,,
392640,note_on,0,0,4,,,,,,,,,4,,,53,36
392640,note_off,240,0,4,,,,,,,,,4,,,57,0
392730,set_tempo,210,1,0,,,,,,276497,,,,,,,
392880,note_on,0,0,4,,,,,,,,,4,,,60,34
392880,note_off,240,0,4,,,,,,,,,4,,,53,0
392980,set_tempo,250,1,0,,,,,,337078,,,,,,,
393120,note_on,0,0,4,,,,,,,,,4,,,57,32
393120,note_off,240,0,4,,,,,,,,,4,,,60,0
393200,set_tempo,220,1,0,,,,,,441176,,,,,,,
393360,note_on,0,0,4,,,,,,,,,4,,,65,30
393360,note_off,240,0,4,,,,,,,,,4,,,57,0
393600,set_tempo,400,1,0,,,,,,2500000,,,,,,,
393600,note_off,240,0,4,,,,,,,,,4,,,65,0
394560,set_tempo,960,1,0,,,,,,500000,,,,,,,
395520,program_change,0,0,4,,,,,,,,,4,0,,,
395520,control_change,0,0,3,,,,,,,93,28,2,,,,
395520,control_change,0,0,3,,,,,,,91,91,2,,,,
395520,control_change,4800,0,3,,,,,,,10,64,2,,,,
395520,control_change,4800,0,1,,,,,,,10,73,0,,,,
395520,control_change,0,0,1,,,,,,,91,91,0,,,,
395520,control_change,0,0,1,,,,,,,93,28,0,,,,
395520,control_change,18000,0,2,,,,,,,10,64,1,,,,
395520,control_change,0,0,2,,,,,,,93,28,1,,,,
395520,control_change,0,0,1,,,,,,,32,0,0,,,,
395520,control_change,0,0,2,,,,,,,64,0,1,,,,
395520,control_change,0,0,2,,,,,,,1,0,1,,,,
395520,pitchwheel,0,0,2,,,,,,,,,1,,0,,
395520,control_change,0,0,2,,,,,,,7,117,1,,,,
395520,control_change,0,0,2,,,,,,,0,0,1,,,,
395520,control_change,0,0,2,,,,,,,32,0,1,,,,
395520,program_change,0,0,2,,,,,,,,,1,0,,,
395520,control_change,0,0,1,,,,,,,0,0,0,,,,
395520,control_change,0,0,1,,,,,,,64,0,0,,,,
395520,control_change,0,0,2,,,,,,,91,91,1,,,,
395520,pitchwheel,0,0,1,,,,,,,,,0,,0,,
395520,control_change,0,0,4,,,,,,,10,55,4,,,,
395520,control_change,0,0,4,,,,,,,0,0,4,,,,
395520,program_change,0,0,3,,,,,,,,,2,0,,,
395520,control_change,0,0,3,,,,,,,32,0,2,,,,
395520,program_change,0,0,1,,,,,,,,,0,0,,,
395520,marker,0,1,0,,,,,,,,,,,,,
395520,set_tempo,0,1,0,,,,,,337078,,,,,,,
395520,time_signature,960,1,0,4,4,24,8,,,,,,,,,
395520,control_change,0,0,3,,,,,,,0,0,2,,,,
395520,control_change,0,0,3,,,,,,,7,112,2,,,,
395520,control_change,0,0,4,,,,,,,32,0,4,,,,
395520,pitchwheel,0,0,3,,,,,,,,,2,,0,,
395520,control_change,0,0,3,,,,,,,64,0,2,,,,
395520,control_change,1920,0,4,,,,,,,7,117,4,,,,
395520,pitchwheel,0,0,4,,,,,,,,,4,,0,,
395520,control_change,0,0,4,,,,,,,1,0,4,,,,
395520,control_change,0,0,4,,,,,,,64,0,4,,,,
395520,control_change,0,0,4,,,,,,,93,28,4,,,,
395520,control_change,0,0,4,,,,,,,91,91,4,,,,
395520,control_change,0,0,1,,,,,,,1,0,0,,,,
395520,control_change,0,0,3,,,,,,,1,0,2,,,,
395520,control_change,0,0,1,,,,,,,7,127,0,,,,
397440,note_on,1920,0,3,,,,,,,,,2,,,46,46
397440,note_on,1920,0,4,,,,,,,,,4,,,34,46
397440,note_on,1920,0,1,,,,,,,,,0,,,77,47
397440,set_tempo,1920,1,0,,,,,,2222222,,,,,,,
397440,note_on,1920,0,2,,,,,,,,,1,,,73,47
397852,note_off,412,0,1,,,,,,,,,0,,,77,0
397856,note_off,416,0,2,,,,,,,,,1,,,73,0
397860,note_off,420,0,3,,,,,,,,,2,,,46,0
397860,note_off,420,0,4,,,,,,,,,4,,,34,0
397860,note_on,0,0,3,,,,,,,,,2,,,46,50
397860,note_on,8,0,1,,,,,,,,,0,,,77,53
397860,note_on,4,0,2,,,,,,,,,1,,,73,50
397860,set_tempo,420,1,0,,,,,,2400000,,,,,,,
397860,note_on,0,0,4,,,,,,,,,4,,,34,50
397920,note_on,0,0,4,,,,,,,,,4,,,34,51
397920,note_off,60,0,2,,,,,,,,,1,,,73,0
397920,note_on,0,0,2,,,,,,,,,1,,,75,53
397920,note_on,0,0,1,,,,,,,,,0,,,78,53
397920,note_off,60,0,1,,,,,,,,,0,,,77,0
397920,note_on,0,0,3,,,,,,,,,2,,,46,51
397920,note_off,60,0,3,,,,,,,,,2,,,46,0
397920,set_tempo,60,1,0,,,,,,2222222,,,,,,,
397920,note_off,60,0,4,,,,,,,,,4,,,34,0
398160,note_on,0,0,3,,,,,,,,,2,,,46,42
398160,note_off,240,0,3,,,,,,,,,2,,,46,0
398160,note_off,240,0,1,,,,,,,,,0,,,78,0
398160,note_on,0,0,1,,,,,,,,,0,,,69,44
398160,note_on,0,0,4,,,,,,,,,4,,,34,42
398160,note_off,240,0,4,,,,,,,,,4,,,34,0
398160,note_off,240,0,2,,,,,,,,,1,,,75,0
398160,note_on,0,0,2,,,,,,,,,1,,,60,44
398160,note_on,0,0,2,,,,,,,,,1,,,63,44
398160,note_on,0,0,2,,,,,,,,,1,,,66,44
398400,note_off,240,0,4,,,,,,,,,4,,,34,0
398400,note_off,0,0,2,,,,,,,,,1,,,63,0
398400,note_on,0,0,1,,,,,,,,,0,,,70,47
398400,note_off,240,0,1,,,,,,,,,0,,,69,0
398400,note_on,0,0,3,,,,,,,,,2,,,46,45
398400,note_off,240,0,3,,,,,,,,,2,,,46,0
398400,note_off,240,0,2,,,,,,,,,1,,,66,0
398400,note_on,0,0,2,,,,,,,,,1,,,65,47
398400,note_on,0,0,2,,,,,,,,,1,,,61,47
398400,note_on,0,0,4,,,,,,,,,4,,,34,45
398400,note_off,0,0,2,,,,,,,,,1,,,60,0
398580,set_tempo,660,1,0,,,,,,2400000,,,,,,,
398640,set_tempo,60,1,0,,,,,,2222222,,,,,,,
398640,note_off,240,0,1,,,,,,,,,0,,,70,0
398640,note_on,0,0,1,,,,,,,,,0,,,77,49
398640,note_on,0,0,2,,,,,,,,,1,,,74,49
398640,note_off,0,0,2,,,,,,,,,1,,,61,0
398640,note_off,240,0,2,,,,,,,,,1,,,65,0
398880,note_on,0,0,2,,,,,,,,,1,,,75,52
398880,note_off,240,0,1,,,,,,,,,0,,,77,0
398880,note_on,0,0,1,,,,,,,,,0,,,80,52
398880,note_off,240,0,2,,,,,,,,,1,,,74,0
399070,set_tempo,430,1,0,,,,,,2500000,,,,,,,
399120,note_on,0,0,1,,,,,,,,,0,,,78,46
399120,note_off,240,0,1,,,,,,,,,0,,,80,0
399360,note_off,960,0,4,,,,,,,,,4,,,34,0
399360,note_on,0,0,3,,,,,,,,,2,,,47,49
399360,note_on,0,0,1,,,,,,,,,0,,,78,54
399360,set_tempo,290,1,0,,,,,,2222222,,,,,,,
399360,note_off,480,0,2,,,,,,,,,1,,,75,0
399360,note_on,0,0,2,,,,,,,,,1,,,75,54
399360,note_off,240,0,1,,,,,,,,,0,,,78,0
399360,note_on,0,0,4,,,,,,,,,4,,,35,49
399360,note_off,960,0,3,,,,,,,,,2,,,46,0
399840,note_on,0,0,4,,,,,,,,,4,,,40,46
399840,note_off,480,0,4,,,,,,,,,4,,,35,0
399840,note_on,0,0,1,,,,,,,,,0,,,80,47
399840,note_off,480,0,1,,,,,,,,,0,,,78,0
399840,note_on,0,0,3,,,,,,,,,2,,,52,46
399840,note_off,480,0,3,,,,,,,,,2,,,47,0
399840,note_off,480,0,2,,,,,,,,,1,,,75,0
399840,note_on,0,0,2,,,,,,,,,1,,,71,47
400260,set_tempo,900,1,0,,,,,,2400000,,,,,,,
400320,note_off,480,0,4,,,,,,,,,4,,,40,0
400320,note_on,0,0,4,,,,,,,,,4,,,42,42
400320,note_on,0,0,3,,,,,,,,,2,,,54,42
400320,note_off,480,0,3,,,,,,,,,2,,,52,0
400320,note_on,0,0,1,,,,,,,,,0,,,61,45
400320,set_tempo,60,1,0,,,,,,2222222,,,,,,,
400320,note_off,480,0,1,,,,,,,,,0,,,80,0
400320,note_on,0,0,2,,,,,,,,,1,,,59,43
400320,note_off,480,0,2,,,,,,,,,1,,,71,0
400800,note_off,480,0,2,,,,,,,,,1,,,59,0
400800,note_on,0,0,2,,,,,,,,,1,,,59,38
400800,note_off,480,0,1,,,,,,,,,0,,,61,0
400800,note_on,0,0,1,,,,,,,,,0,,,64,39
400800,note_on,0,0,2,,,,,,,,,1,,,61,38
401220,set_tempo,900,1,0,,,,,,2400000,,,,,,,
401280,note_on,0,0,2,,,,,,,,,1,,,58,51
401280,note_off,960,0,4,,,,,,,,,4,,,42,0
401280,note_on,0,0,4,,,,,,,,,4,,,43,51
401280,note_on,0,0,2,,,,,,,,,1,,,61,51
401280,note_off,480,0,1,,,,,,,,,0,,,64,0
401280,note_on,0,0,3,,,,,,,,,2,,,55,51
401280,set_tempo,60,1,0,,,,,,2222222,,,,,,,
401280,note_off,0,0,2,,,,,,,,,1,,,59,0
401280,note_off,480,0,2,,,,,,,,,1,,,61,0
401280,note_on,0,0,1,,,,,,,,,0,,,63,51
401280,note_off,960,0,3,,,,,,,,,2,,,54,0
401520,note_off,240,0,3,,,,,,,,,2,,,55,0
401520,note_on,0,0,3,,,,,,,,,2,,,56,44
401520,note_off,240,0,2,,,,,,,,,1,,,61,0
401520,note_off,0,0,2,,,,,,,,,1,,,58,0
401520,note_on,0,0,4,,,,,,,,,4,,,44,44
401520,note_on,0,0,2,,,,,,,,,1,,,59,47
401520,note_off,240,0,4,,,,,,,,,4,,,43,0
401760,note_off,480,0,1,,,,,,,,,0,,,63,0
401760,note_on,0,0,1,,,,,,,,,0,,,64,43
401760,note_on,0,0,3,,,,,,,,,2,,,49,44
401760,note_off,240,0,4,,,,,,,,,4,,,44,0
401760,note_on,0,0,2,,,,,,,,,1,,,58,43
401760,note_off,240,0,2,,,,,,,,,1,,,59,0
401760,note_on,0,0,4,,,,,,,,,4,,,37,44
401760,note_on,0,0,2,,,,,,,,,1,,,56,43
401760,note_off,240,0,3,,,,,,,,,2,,,56,0
401880,set_tempo,600,1,0,,,,,,2400000,,,,,,,
402000,note_on,240,0,1,,,,,,,,,0,,,76,40
402240,note_off,0,0,2,,,,,,,,,1,,,58,0
402240,note_off,240,0,1,,,,,,,,,0,,,76,0
402240,note_off,0,0,1,,,,,,,,,0,,,64,0
402240,note_off,480,0,3,,,,,,,,,2,,,49,0
402240,note_on,0,0,3,,,,,,,,,2,,,51,40
402240,note_off,480,0,4,,,,,,,,,4,,,37,0
402240,note_on,0,0,4,,,,,,,,,4,,,39,40
402240,note_off,480,0,2,,,,,,,,,1,,,56,0
402360,set_tempo,480,1,0,,,,,,2500000,,,,,,,
402480,note_on,240,0,2,,,,,,,,,1,,,56,38
402480,note_on,240,0,1,,,,,,,,,0,,,58,38
402720,note_off,480,0,3,,,,,,,,,2,,,51,0
402720,note_off,240,0,1,,,,,,,,,0,,,58,0
402720,control_change,480,0,4,,,,,,,64,127,4,,,,
402720,note_off,0,0,4,,,,,,,,,4,,,39,0
402720,note_on,0,0,4,,,,,,,,,4,,,39,37
402720,note_off,240,0,2,,,,,,,,,1,,,56,0
402840,set_tempo,480,1,0,,,,,,2727272,,,,,,,
402960,note_on,0,0,1,,,,,,,,,0,,,63,36
402960,control_change,240,0,2,,,,,,,64,127,1,,,,
402960,note_on,0,0,2,,,,,,,,,1,,,58,36
402960,note_on,0,0,2,,,,,,,,,1,,,55,36
402960,control_change,240,0,1,,,,,,,64,127,0,,,,
403200,note_off,480,0,4,,,,,,,,,4,,,39,0
403200,note_off,0,0,2,,,,,,,,,1,,,55,0
403200,note_off,240,0,2,,,,,,,,,1,,,58,0
403200,note_off,240,0,1,,,,,,,,,0,,,63,0
403440,control_change,240,0,4,,,,,,,64,0,4,,,,
403440,control_change,240,0,2,,,,,,,64,0,1,,,,
403440,control_change,240,0,1,,,,,,,64,127,0,,,,
403440,set_tempo,600,1,0,,,,,,1363636,,,,,,,
403440,control_change,720,0,3,,,,,,,64,0,2,,,,
403500,note_on,60,0,1,,,,,,,,,0,,,39,30
403560,note_on,0,0,1,,,,,,,,,0,,,43,32
403560,note_off,60,0,1,,,,,,,,,0,,,39,0
403560,set_tempo,120,1,0,,,,,,1333333,,,,,,,
403620,note_off,60,0,1,,,,,,,,,0,,,43,0
403620,note_on,0,0,1,,,,,,,,,0,,,46,33
403680,note_off,60,0,1,,,,,,,,,0,,,46,0
403680,note_on,0,0,1,,,,,,,,,0,,,49,34
403740,note_off,60,0,1,,,,,,,,,0,,,49,0
403740,note_on,0,0,1,,,,,,,,,0,,,51,35
403800,note_on,0,0,1,,,,,,,,,0,,,55,37
403800,note_off,60,0,1,,,,,,,,,0,,,51,0
403860,note_on,0,0,1,,,,,,,,,0,,,58,38
403860,note_off,60,0,1,,,,,,,,,0,,,55,0
403920,note_on,0,0,1,,,,,,,,,0,,,61,39
403920,note_off,60,0,1,,,,,,,,,0,,,58,0
403980,note_on,0,0,1,,,,,,,,,0,,,63,41
403980,note_off,60,0,1,,,,,,,,,0,,,61,0
404040,set_tempo,480,1,0,,,,,,1428571,,,,,,,
404040,note_off,60,0,1,,,,,,,,,0,,,63,0
404040,note_on,0,0,1,,,,,,,,,0,,,67,42
404100,note_off,60,0,1,,,,,,,,,0,,,67,0
404100,set_tempo,60,1,0,,,,,,1578947,,,,,,,
404100,note_on,0,0,1,,,,,,,,,0,,,70,43
404160,note_on,0,0,1,,,,,,,,,0,,,73,49
404160,set_tempo,60,1,0,,,,,,2400000,,,,,,,
404160,note_off,60,0,1,,,,,,,,,0,,,70,0
405000,note_on,0,0,1,,,,,,,,,0,,,70,45
405000,note_off,0,0,1,,,,,,,,,0,,,73,0
405000,control_change,840,0,1,,,,,,,64,0,0,,,,
405120,note_on,0,0,1,,,,,,,,,0,,,68,44
405120,note_off,120,0,1,,,,,,,,,0,,,70,0
405360,note_off,240,0,1,,,,,,,,,0,,,68,0
405360,note_on,0,0,1,,,,,,,,,0,,,67,42
405720,note_on,0,0,1,,,,,,,,,0,,,70,42
405720,note_off,360,0,1,,,,,,,,,0,,,67,0
405780,set_tempo,1620,1,0,,,,,,2400000,,,,,,,
405780,note_off,60,0,1,,,,,,,,,0,,,70,0
405780,note_on,0,0,1,,,,,,,,,0,,,73,41
405840,note_on,0,0,1,,,,,,,,,0,,,76,41
405840,note_off,60,0,1,,,,,,,,,0,,,73,0
405840,set_tempo,60,1,0,,,,,,2222222,,,,,,,
405900,note_on,0,0,1,,,,,,,,,0,,,75,41
405900,note_off,60,0,1,,,,,,,,,0,,,76,0
406020,note_off,120,0,1,,,,,,,,,0,,,75,0
406020,note_on,0,0,1,,,,,,,,,0,,,70,40
406080,note_off,60,0,1,,,,,,,,,0,,,70,0
406080,note_on,0,0,1,,,,,,,,,0,,,73,40
406080,note_on,0,0,2,,,,,,,,,1,,,59,40
406080,note_on,2640,0,2,,,,,,,,,1,,,56,40
406200,note_off,120,0,1,,,,,,,,,0,,,73,0
406200,note_on,0,0,1,,,,,,,,,0,,,71,39
406320,note_on,0,0,2,,,,,,,,,1,,,40,40
406320,note_off,120,0,1,,,,,,,,,0,,,71,0
406320,note_off,240,0,2,,,,,,,,,1,,,59,0
406320,note_on,0,0,2,,,,,,,,,1,,,52,40
406320,set_tempo,480,1,0,,,,,,1363636,,,,,,,
406320,note_off,0,0,2,,,,,,,,,1,,,56,0
406320,note_on,0,0,2,,,,,,,,,1,,,56,40
406320,note_on,0,0,1,,,,,,,,,0,,,59,40
406560,note_on,0,0,1,,,,,,,,,0,,,57,44
406560,note_off,240,0,1,,,,,,,,,0,,,59,0
406560,note_off,0,0,2,,,,,,,,,1,,,40,0
406560,note_on,0,0,2,,,,,,,,,1,,,37,44
406560,note_off,240,0,2,,,,,,,,,1,,,52,0
406560,set_tempo,240,1,0,,,,,,1333333,,,,,,,
406560,note_off,0,0,2,,,,,,,,,1,,,56,0
406560,note_on,0,0,2,,,,,,,,,1,,,52,44
406560,note_on,0,0,2,,,,,,,,,1,,,49,44
406800,note_off,240,0,1,,,,,,,,,0,,,57,0
406800,set_tempo,240,1,0,,,,,,1224489,,,,,,,
406800,note_on,0,0,1,,,,,,,,,0,,,57,47
406800,note_off,0,0,2,,,,,,,,,1,,,49,0
406800,note_off,0,0,2,,,,,,,,,1,,,52,0
406800,note_on,0,0,2,,,,,,,,,1,,,51,47
406800,note_on,0,0,2,,,,,,,,,1,,,47,47
406800,note_on,0,0,2,,,,,,,,,1,,,54,47
406800,note_on,0,0,2,,,,,,,,,1,,,35,47
406800,note_off,240,0,2,,,,,,,,,1,,,37,0
406980,set_tempo,180,1,0,,,,,,1666666,,,,,,,
406980,control_change,180,0,1,,,,,,,64,127,0,,,,
406980,note_on,0,0,1,,,,,,,,,0,,,69,47
407040,note_on,0,0,2,,,,,,,,,1,,,54,51
407040,note_on,0,0,2,,,,,,,,,1,,,47,51
407040,note_on,0,0,2,,,,,,,,,1,,,57,51
407040,note_on,0,0,2,,,,,,,,,1,,,51,51
407040,note_off,0,0,2,,,,,,,,,1,,,47,0
407040,note_on,0,0,1,,,,,,,,,0,,,81,51
407040,note_off,0,0,1,,,,,,,,,0,,,57,0
407040,note_off,0,0,2,,,,,,,,,1,,,51,0
407040,note_off,60,0,1,,,,,,,,,0,,,69,0
407040,note_off,240,0,2,,,,,,,,,1,,,35,0
407040,set_tempo,60,1,0,,,,,,2727272,,,,,,,
407040,note_off,0,0,2,,,,,,,,,1,,,54,0
407280,note_off,240,0,1,,,,,,,,,0,,,81,0
407280,note_on,0,0,1,,,,,,,,,0,,,81,56
407280,set_tempo,240,1,0,,,,,,1818181,,,,,,,
407520,note_off,240,0,1,,,,,,,,,0,,,81,0
407520,note_on,0,0,1,,,,,,,,,0,,,81,61
407524,set_tempo,244,1,0,,,,,,1395348,,,,,,,
407744,set_tempo,220,1,0,,,,,,1132075,,,,,,,
407760,note_off,240,0,1,,,,,,,,,0,,,81,0
407760,note_on,0,0,1,,,,,,,,,0,,,81,66
407988,set_tempo,244,1,0,,,,,,937500,,,,,,,
408000,note_off,240,0,1,,,,,,,,,0,,,81,0
408000,note_on,0,0,1,,,,,,,,,0,,,81,71
408240,set_tempo,252,1,0,,,,,,769230,,,,,,,
408240,note_off,240,0,1,,,,,,,,,0,,,81,0
408240,note_on,0,0,1,,,,,,,,,0,,,81,76
408452,set_tempo,212,1,0,,,,,,674157,,,,,,,
408480,note_on,0,0,1,,,,,,,,,0,,,81,81
408480,note_off,240,0,1,,,,,,,,,0,,,81,0
408716,set_tempo,264,1,0,,,,,,612244,,,,,,,
408720,note_on,0,0,1,,,,,,,,,0,,,81,86
408720,note_off,240,0,1,,,,,,,,,0,,,81,0
408960,note_off,0,0,2,,,,,,,,,1,,,57,0
408960,note_off,0,0,2,,,,,,,,,1,,,47,0
408960,note_on,0,0,1,,,,,,,,,0,,,81,95
408960,note_off,1920,0,2,,,,,,,,,1,,,51,0
408960,note_off,0,0,2,,,,,,,,,1,,,54,0
408960,set_tempo,244,1,0,,,,,,582524,,,,,,,
408960,note_off,240,0,1,,,,,,,,,0,,,81,0
409200,note_off,240,0,1,,,,,,,,,0,,,81,0
409200,note_on,0,0,1,,,,,,,,,0,,,81,85
409200,note_on,5760,0,3,,,,,,,,,2,,,51,85
409200,note_on,0,0,3,,,,,,,,,2,,,59,85
409200,note_on,0,0,3,,,,,,,,,2,,,54,85
409200,note_on,5760,0,4,,,,,,,,,4,,,47,85
409200,set_tempo,240,1,0,,,,,,582524,,,,,,,
409440,note_off,240,0,1,,,,,,,,,0,,,81,0
409440,note_on,0,0,1,,,,,,,,,0,,,81,80
409440,set_tempo,240,1,0,,,,,,674157,,,,,,,
409680,note_off,240,0,1,,,,,,,,,0,,,81,0
409680,note_on,0,0,1,,,,,,,,,0,,,81,75
409680,set_tempo,240,1,0,,,,,,750000,,,,,,,
409920,set_tempo,240,1,0,,,,,,821917,,,,,,,
409920,note_off,240,0,1,,,,,,,,,0,,,81,0
409920,note_on,0,0,1,,,,,,,,,0,,,81,70
410160,set_tempo,240,1,0,,,,,,1034482,,,,,,,
410160,note_off,240,0,1,,,,,,,,,0,,,81,0
410160,note_on,0,0,1,,,,,,,,,0,,,81,65
410640,set_tempo,480,1,0,,,,,,2068965,,,,,,,
410640,note_off,480,0,1,,,,,,,,,0,,,81,0
410640,note_on,0,0,1,,,,,,,,,0,,,78,57
410880,note_off,240,0,1,,,,,,,,,0,,,78,0
410880,note_on,0,0,1,,,,,,,,,0,,,75,54
411120,note_off,1920,0,4,,,,,,,,,4,,,47,0
411120,note_off,1920,0,3,,,,,,,,,2,,,54,0
411120,note_on,0,0,1,,,,,,,,,0,,,69,51
411120,note_off,0,0,3,,,,,,,,,2,,,59,0
411120,note_off,240,0,1,,,,,,,,,0,,,75,0
411120,note_off,0,0,3,,,,,,,,,2,,,51,0
411360,note_off,240,0,1,,,,,,,,,0,,,69,0
411360,note_on,0,0,1,,,,,,,,,0,,,73,48
411520,note_on,0,0,1,,,,,,,,,0,,,71,45
411520,note_off,160,0,1,,,,,,,,,0,,,73,0
411600,set_tempo,960,1,0,,,,,,2222222,,,,,,,
411648,note_off,128,0,1,,,,,,,,,0,,,71,0
411650,set_tempo,50,1,0,,,,,,2400000,,,,,,,
411680,note_on,32,0,1,,,,,,,,,0,,,69,43
411808,note_off,128,0,1,,,,,,,,,0,,,69,0
411840,set_tempo,190,1,0,,,,,,2222222,,,,,,,
411840,control_change,32,0,1,,,,,,,64,0,0,,,,
411840,note_on,0,0,1,,,,,,,,,0,,,68,40
411840,note_on,0,0,3,,,,,,,,,2,,,59,41
411840,note_on,720,0,3,,,,,,,,,2,,,56,41
411840,note_on,720,0,4,,,,,,,,,4,,,52,42
412080,note_on,0,0,1,,,,,,,,,0,,,76,43
412080,note_off,240,0,1,,,,,,,,,0,,,68,0
412320,note_on,0,0,4,,,,,,,,,4,,,49,44
412320,note_off,480,0,3,,,,,,,,,2,,,59,0
412320,note_off,0,0,3,,,,,,,,,2,,,56,0
412320,note_on,0,0,3,,,,,,,,,2,,,58,43
412320,note_on,0,0,3,,,,,,,,,2,,,55,43
412320,note_on,0,0,3,,,,,,,,,2,,,52,43
412320,note_off,480,0,4,,,,,,,,,4,,,52,0
412560,note_off,480,0,1,,,,,,,,,0,,,76,0
412560,note_on,0,0,1,,,,,,,,,0,,,67,48
412690,set_tempo,850,1,0,,,,,,2400000,,,,,,,
412800,note_on,0,0,3,,,,,,,,,2,,,53,46
412800,note_off,480,0,3,,,,,,,,,2,,,52,0
412800,note_off,0,0,3,,,,,,,,,2,,,55,0
412800,note_on,0,0,3,,,,,,,,,2,,,59,46
412800,note_on,0,0,1,,,,,,,,,0,,,71,51
412800,note_off,240,0,1,,,,,,,,,0,,,67,0
412800,note_on,0,0,3,,,,,,,,,2,,,56,46
412800,note_off,480,0,4,,,,,,,,,4,,,49,0
412800,note_off,0,0,3,,,,,,,,,2,,,58,0
412800,note_on,0,0,4,,,,,,,,,4,,,50,46
413280,note_off,480,0,4,,,,,,,,,4,,,50,0
413280,note_on,0,0,1,,,,,,,,,0,,,70,43
413280,note_off,480,0,3,,,,,,,,,2,,,56,0
413280,note_off,0,0,3,,,,,,,,,2,,,53,0
413280,note_off,0,0,3,,,,,,,,,2,,,59,0
413280,note_off,480,0,1,,,,,,,,,0,,,71,0
413472,note_off,192,0,1,,,,,,,,,0,,,70,0
413510,set_tempo,820,1,0,,,,,,2500000,,,,,,,
413520,note_on,48,0,1,,,,,,,,,0,,,68,39
413712,note_off,192,0,1,,,,,,,,,0,,,68,0
413760,note_on,48,0,1,,,,,,,,,0,,,67,35
414110,set_tempo,600,1,0,,,,,,2727272,,,,,,,
414120,note_on,0,0,1,,,,,,,,,0,,,68,26
414120,note_off,360,0,1,,,,,,,,,0,,,67,0
414240,note_on,0,0,1,,,,,,,,,0,,,68,24
414240,note_off,120,0,1,,,,,,,,,0,,,68,0
414480,note_off,240,0,1,,,,,,,,,0,,,68,0
414480,note_on,0,0,1,,,,,,,,,0,,,63,20
414720,set_tempo,610,1,0,,,,,,1071428,,,,,,,
415200,note_off,720,0,1,,,,,,,,,0,,,63,0
415680,note_on,480,0,1,,,,,,,,,0,,,63,20
415680,note_on,2400,0,4,,,,,,,,,4,,,51,25
415680,set_tempo,960,1,0,,,,,,1935483,,,,,,,
415680,marker,0,1,0,,,,,,,,,,,,,
415836,note_off,156,0,4,,,,,,,,,4,,,51,0
415840,note_on,0,0,1,,,,,,,,,0,,,63,21
415840,note_off,160,0,1,,,,,,,,,0,,,63,0
415840,note_on,4,0,4,,,,,,,,,4,,,51,26
415840,set_tempo,160,1,0,,,,,,1875000,,,,,,,
415996,note_off,156,0,4,,,,,,,,,4,,,51,0
416000,note_off,160,0,1,,,,,,,,,0,,,63,0
416000,note_on,4,0,4,,,,,,,,,4,,,51,27
416000,note_on,0,0,1,,,,,,,,,0,,,63,22
416156,note_off,156,0,4,,,,,,,,,4,,,51,0
416160,note_on,0,0,1,,,,,,,,,0,,,63,23
416160,note_off,160,0,1,,,,,,,,,0,,,63,0
416160,note_on,4,0,4,,,,,,,,,4,,,51,27
416316,note_off,156,0,4,,,,,,,,,4,,,51,0
416320,note_on,0,0,1,,,,,,,,,0,,,63,24
416320,note_off,160,0,1,,,,,,,,,0,,,63,0
416320,note_on,4,0,4,,,,,,,,,4,,,51,28
416376,set_tempo,536,1,0,,,,,,1935483,,,,,,,
416476,note_off,156,0,4,,,,,,,,,4,,,51,0
416480,note_on,0,0,1,,,,,,,,,0,,,63,25
416480,note_off,160,0,1,,,,,,,,,0,,,63,0
416480,note_on,4,0,4,,,,,,,,,4,,,51,29
416640,note_on,0,0,3,,,,,,,,,2,,,51,27
416640,note_on,3360,0,3,,,,,,,,,2,,,59,27
416640,note_on,0,0,1,,,,,,,,,0,,,63,26
416640,note_off,160,0,1,,,,,,,,,0,,,63,0
416640,note_off,160,0,4,,,,,,,,,4,,,51,0
416640,note_on,0,0,4,,,,,,,,,4,,,47,30
416800,note_off,160,0,4,,,,,,,,,4,,,47,0
416800,note_off,160,0,1,,,,,,,,,0,,,63,0
416800,note_on,0,0,1,,,,,,,,,0,,,63,27
416800,note_off,0,0,3,,,,,,,,,2,,,59,0
416800,note_on,0,0,3,,,,,,,,,2,,,59,28
416800,note_on,0,0,3,,,,,,,,,2,,,51,28
416800,note_on,0,0,4,,,,,,,,,4,,,47,30
416800,note_off,160,0,3,,,,,,,,,2,,,51,0
416908,set_tempo,532,1,0,,,,,,2000000,,,,,,,
416960,note_off,160,0,4,,,,,,,,,4,,,47,0
416960,note_off,0,0,3,,,,,,,,,2,,,59,0
416960,note_off,160,0,3,,,,,,,,,2,,,51,0
416960,note_on,0,0,4,,,,,,,,,4,,,47,31
416960,note_on,0,0,1,,,,,,,,,0,,,63,28
416960,note_off,160,0,1,,,,,,,,,0,,,63,0
416960,note_on,0,0,3,,,,,,,,,2,,,51,30
416960,note_on,0,0,3,,,,,,,,,2,,,59,30
417120,note_off,0,0,3,,,,,,,,,2,,,59,0
417120,note_on,0,0,3,,,,,,,,,2,,,59,31
417120,note_on,0,0,3,,,,,,,,,2,,,51,31
417120,note_off,160,0,3,,,,,,,,,2,,,51,0
417120,note_on,0,0,4,,,,,,,,,4,,,47,32
417120,note_off,160,0,4,,,,,,,,,4,,,47,0
417120,note_off,160,0,1,,,,,,,,,0,,,63,0
417120,note_on,0,0,1,,,,,,,,,0,,,63,29
417280,note_on,0,0,4,,,,,,,,,4,,,47,32
417280,note_on,0,0,3,,,,,,,,,2,,,51,32
417280,note_on,0,0,3,,,,,,,,,2,,,59,32
417280,note_off,0,0,3,,,,,,,,,2,,,59,0
417280,note_off,160,0,4,,,,,,,,,4,,,47,0
417280,note_off,160,0,1,,,,,,,,,0,,,63,0
417280,note_on,0,0,1,,,,,,,,,0,,,63,30
417280,note_off,160,0,3,,,,,,,,,2,,,51,0
417420,set_tempo,512,1,0,,,,,,2068965,,,,,,,
417440,note_on,0,0,3,,,,,,,,,2,,,51,33
417440,note_on,0,0,3,,,,,,,,,2,,,59,33
417440,note_off,160,0,1,,,,,,,,,0,,,63,0
417440,note_off,160,0,3,,,,,,,,,2,,,51,0
417440,note_off,160,0,4,,,,,,,,,4,,,47,0
417440,note_off,0,0,3,,,,,,,,,2,,,59,0
417440,note_on,0,0,1,,,,,,,,,0,,,63,31
417440,note_on,0,0,4,,,,,,,,,4,,,47,33
417520,set_tempo,100,1,0,,,,,,2222222,,,,,,,
417600,note_off,160,0,4,,,,,,,,,4,,,47,0
417600,note_on,0,0,4,,,,,,,,,4,,,44,35
417600,note_off,160,0,3,,,,,,,,,2,,,51,0
417600,note_off,0,0,3,,,,,,,,,2,,,59,0
417600,note_on,0,0,3,,,,,,,,,2,,,59,34
417600,note_on,0,0,3,,,,,,,,,2,,,56,34
417600,note_on,0,0,3,,,,,,,,,2,,,47,34
417600,note_on,0,0,3,,,,,,,,,2,,,51,34
417600,set_tempo,80,1,0,,,,,,2068965,,,,,,,
417600,note_on,0,0,1,,,,,,,,,0,,,63,32
417600,note_off,160,0,1,,,,,,,,,0,,,63,0
417760,note_on,0,0,1,,,,,,,,,0,,,63,33
417760,note_off,160,0,1,,,,,,,,,0,,,63,0
417760,note_on,0,0,4,,,,,,,,,4,,,44,36
417760,note_off,160,0,4,,,,,,,,,4,,,44,0
417760,note_off,160,0,3,,,,,,,,,2,,,47,0
417760,note_off,0,0,3,,,,,,,,,2,,,51,0
417760,note_off,0,0,3,,,,,,,,,2,,,56,0
417760,note_off,0,0,3,,,,,,,,,2,,,59,0
417760,note_on,0,0,3,,,,,,,,,2,,,59,36
417760,note_on,0,0,3,,,,,,,,,2,,,51,36
417760,note_on,0,0,3,,,,,,,,,2,,,47,36
417760,note_on,0,0,3,,,,,,,,,2,,,56,36
417920,note_off,0,0,3,,,,,,,,,2,,,51,0
417920,note_on,0,0,1,,,,,,,,,0,,,63,34
417920,note_off,160,0,1,,,,,,,,,0,,,63,0
417920,note_on,0,0,4,,,,,,,,,4,,,44,37
417920,note_off,0,0,3,,,,,,,,,2,,,59,0
417920,note_on,0,0,3,,,,,,,,,2,,,47,37
417920,note_off,160,0,4,,,,,,,,,4,,,44,0
417920,note_off,160,0,3,,,,,,,,,2,,,47,0
417920,note_off,0,0,3,,,,,,,,,2,,,56,0
417920,note_on,0,0,3,,,,,,,,,2,,,59,37
417920,note_on,0,0,3,,,,,,,,,2,,,56,37
417920,note_on,0,0,3,,,,,,,,,2,,,51,37
418080,note_on,0,0,3,,,,,,,,,2,,,56,35
418080,note_on,0,0,3,,,,,,,,,2,,,47,35
418080,note_on,0,0,3,,,,,,,,,2,,,51,35
418080,note_on,0,0,3,,,,,,,,,2,,,59,35
418080,note_off,160,0,4,,,,,,,,,4,,,44,0
418080,note_off,0,0,3,,,,,,,,,2,,,56,0
418080,note_off,0,0,3,,,,,,,,,2,,,59,0
418080,note_on,0,0,4,,,,,,,,,4,,,44,35
418080,note_off,0,0,3,,,,,,,,,2,,,51,0
418080,note_off,160,0,3,,,,,,,,,2,,,47,0
418080,note_off,160,0,1,,,,,,,,,0,,,63,0
418080,note_on,0,0,1,,,,,,,,,0,,,63,33
418200,set_tempo,600,1,0,,,,,,2222222,,,,,,,
418240,note_off,160,0,1,,,,,,,,,0,,,63,0
418240,note_off,160,0,3,,,,,,,,,2,,,47,0
418240,note_on,0,0,3,,,,,,,,,2,,,59,31
418240,note_on,0,0,4,,,,,,,,,4,,,44,33
418240,note_on,0,0,3,,,,,,,,,2,,,47,31
418240,note_on,0,0,3,,,,,,,,,2,,,51,31
418240,note_on,0,0,3,,,,,,,,,2,,,56,31
418240,note_off,0,0,3,,,,,,,,,2,,,51,0
418240,note_off,0,0,3,,,,,,,,,2,,,56,0
418240,note_off,0,0,3,,,,,,,,,2,,,59,0
418240,note_off,160,0,4,,,,,,,,,4,,,44,0
418240,note_on,0,0,1,,,,,,,,,0,,,63,30
418327,set_tempo,127,1,0,,,,,,2500000,,,,,,,
418400,note_off,160,0,4,,,,,,,,,4,,,44,0
418400,note_on,0,0,4,,,,,,,,,4,,,44,30
418400,note_off,160,0,1,,,,,,,,,0,,,63,0
418400,note_on,0,0,1,,,,,,,,,0,,,63,26
418400,note_on,0,0,3,,,,,,,,,2,,,51,28
418400,note_on,0,0,3,,,,,,,,,2,,,56,28
418400,note_off,160,0,3,,,,,,,,,2,,,47,0
418400,note_on,0,0,3,,,,,,,,,2,,,59,28
418400,set_tempo,73,1,0,,,,,,2727272,,,,,,,
418400,note_off,0,0,3,,,,,,,,,2,,,59,0
418400,note_off,0,0,3,,,,,,,,,2,,,56,0
418400,note_off,0,0,3,,,,,,,,,2,,,51,0
418400,note_on,0,0,3,,,,,,,,,2,,,47,28
418560,note_on,0,0,4,,,,,,,,,4,,,51,29
418560,note_on,0,0,4,,,,,,,,,4,,,47,29
418560,control_change,160,0,1,,,,,,,64,0,0,,,,
418560,note_off,160,0,3,,,,,,,,,2,,,47,0
418560,note_off,0,0,3,,,,,,,,,2,,,51,0
418560,note_off,0,0,3,,,,,,,,,2,,,56,0
418560,note_off,0,0,3,,,,,,,,,2,,,59,0
418560,set_tempo,160,1,0,,,,,,2068965,,,,,,,
418560,note_on,0,0,1,,,,,,,,,0,,,75,51
418560,note_off,0,0,1,,,,,,,,,0,,,63,0
418560,note_on,0,0,4,,,,,,,,,4,,,44,29
418560,note_off,160,0,4,,,,,,,,,4,,,44,0
418720,note_off,0,0,4,,,,,,,,,4,,,44,0
418720,note_off,160,0,4,,,,,,,,,4,,,51,0
418720,note_off,0,0,4,,,,,,,,,4,,,47,0
418720,note_on,0,0,4,,,,,,,,,4,,,44,29
418720,note_on,0,0,4,,,,,,,,,4,,,51,29
418720,note_on,0,0,4,,,,,,,,,4,,,47,29
418880,note_on,0,0,4,,,,,,,,,4,,,51,29
418880,note_on,0,0,4,,,,,,,,,4,,,47,29
418880,note_off,0,0,4,,,,,,,,,4,,,44,0
418880,note_off,160,0,4,,,,,,,,,4,,,47,0
418880,note_off,0,0,4,,,,,,,,,4,,,51,0
418880,note_on,0,0,4,,,,,,,,,4,,,44,29
419040,note_off,160,0,4,,,,,,,,,4,,,47,0
419040,note_off,0,0,4,,,,,,,,,4,,,51,0
419040,note_off,0,0,4,,,,,,,,,4,,,44,0
419040,note_on,0,0,4,,,,,,,,,4,,,44,29
419040,note_on,0,0,4,,,,,,,,,4,,,51,29
419040,note_on,0,0,4,,,,,,,,,4,,,47,29
419200,note_on,0,0,4,,,,,,,,,4,,,47,29
419200,note_on,0,0,4,,,,,,,,,4,,,44,29
419200,note_off,160,0,4,,,,,,,,,4,,,47,0
419200,note_off,0,0,4,,,,,,,,,4,,,44,0
419200,note_on,0,0,4,,,,,,,,,4,,,51,29
419200,note_off,0,0,4,,,,,,,,,4,,,51,0
419360,note_on,0,0,4,,,,,,,,,4,,,51,28
419360,note_on,0,0,4,,,,,,,,,4,,,47,28
419360,note_on,0,0,4,,,,,,,,,4,,,44,28
419360,note_off,0,0,4,,,,,,,,,4,,,47,0
419360,note_on,800,0,1,,,,,,,,,0,,,73,48
419360,note_off,160,0,4,,,,,,,,,4,,,51,0
419360,note_off,0,0,4,,,,,,,,,4,,,44,0
419362,note_off,2,0,1,,,,,,,,,0,,,75,0
419520,note_off,0,0,4,,,,,,,,,4,,,47,0
419520,note_off,0,0,4,,,,,,,,,4,,,44,0
419520,note_on,0,0,4,,,,,,,,,4,,,44,28
419520,note_on,0,0,4,,,,,,,,,4,,,47,28
419520,note_on,0,0,4,,,,,,,,,4,,,51,28
419520,note_off,160,0,4,,,,,,,,,4,,,51,0
419680,note_on,0,0,4,,,,,,,,,4,,,44,28
419680,note_off,160,0,4,,,,,,,,,4,,,51,0
419680,note_off,0,0,4,,,,,,,,,4,,,47,0
419680,note_off,0,0,4,,,,,,,,,4,,,44,0
419680,note_on,0,0,4,,,,,,,,,4,,,47,28
419680,note_on,0,0,4,,,,,,,,,4,,,51,28
419835,note_off,473,0,1,,,,,,,,,0,,,73,0
419840,note_on,5,0,1,,,,,,,,,0,,,71,46
419840,note_on,0,0,4,,,,,,,,,4,,,44,28
419840,note_on,0,0,4,,,,,,,,,4,,,47,28
419840,note_off,160,0,4,,,,,,,,,4,,,47,0
419840,note_off,0,0,4,,,,,,,,,4,,,51,0
419840,note_off,0,0,4,,,,,,,,,4,,,44,0
419840,note_on,0,0,4,,,,,,,,,4,,,51,28
420000,note_off,0,0,4,,,,,,,,,4,,,47,0
420000,note_on,0,0,4,,,,,,,,,4,,,44,27
420000,note_on,0,0,4,,,,,,,,,4,,,51,27
420000,note_on,0,0,4,,,,,,,,,4,,,47,27
420000,note_on,0,0,1,,,,,,,,,0,,,70,45
420000,note_off,160,0,1,,,,,,,,,0,,,71,0
420000,note_off,160,0,4,,,,,,,,,4,,,51,0
420000,note_off,0,0,4,,,,,,,,,4,,,44,0
420160,note_on,0,0,1,,,,,,,,,0,,,71,44
420160,note_off,160,0,1,,,,,,,,,0,,,70,0
420160,note_off,0,0,4,,,,,,,,,4,,,44,0
420160,note_off,0,0,4,,,,,,,,,4,,,51,0
420160,note_off,160,0,4,,,,,,,,,4,,,47,0
420160,note_on,0,0,4,,,,,,,,,4,,,47,27
420160,note_on,0,0,4,,,,,,,,,4,,,51,27
420160,note_on,0,0,4,,,,,,,,,4,,,44,27
420320,note_on,0,0,1,,,,,,,,,0,,,68,44
420320,note_off,160,0,1,,,,,,,,,0,,,71,0
420320,note_off,0,0,4,,,,,,,,,4,,,44,0
420320,note_on,0,0,4,,,,,,,,,4,,,44,27
420320,note_off,160,0,4,,,,,,,,,4,,,47,0
420320,note_off,0,0,4,,,,,,,,,4,,,51,0
420320,note_on,0,0,4,,,,,,,,,4,,,47,27
420320,note_on,0,0,4,,,,,,,,,4,,,51,27
420420,set_tempo,1860,1,0,,,,,,2222222,,,,,,,
420480,note_on,0,0,4,,,,,,,,,4,,,49,27
420480,note_on,0,0,4,,,,,,,,,4,,,51,27
420480,note_on,0,0,4,,,,,,,,,4,,,46,27
420480,note_off,0,0,4,,,,,,,,,4,,,44,0
420480,note_off,0,0,4,,,,,,,,,4,,,51,0
420480,note_on,0,0,1,,,,,,,,,0,,,68,47
420480,set_tempo,60,1,0,,,,,,2068965,,,,,,,
420480,note_off,160,0,4,,,,,,,,,4,,,47,0
420480,note_off,160,0,1,,,,,,,,,0,,,68,0
420640,note_on,0,0,4,,,,,,,,,4,,,49,27
420640,note_on,0,0,4,,,,,,,,,4,,,46,27
420640,note_off,0,0,4,,,,,,,,,4,,,46,0
420640,note_on,0,0,4,,,,,,,,,4,,,51,27
420640,note_off,160,0,4,,,,,,,,,4,,,49,0
420640,note_off,0,0,4,,,,,,,,,4,,,51,0
420800,note_off,160,0,4,,,,,,,,,4,,,49,0
420800,note_off,0,0,4,,,,,,,,,4,,,51,0
420800,note_off,0,0,4,,,,,,,,,4,,,46,0
420800,note_on,0,0,4,,,,,,,,,4,,,46,26
420800,note_on,0,0,4,,,,,,,,,4,,,51,26
420800,note_on,0,0,4,,,,,,,,,4,,,49,26
420960,note_on,0,0,4,,,,,,,,,4,,,51,26
420960,note_on,0,0,4,,,,,,,,,4,,,49,26
420960,note_off,0,0,4,,,,,,,,,4,,,46,0
420960,note_on,0,0,4,,,,,,,,,4,,,46,26
420960,note_off,160,0,4,,,,,,,,,4,,,49,0
420960,note_off,480,0,1,,,,,,,,,0,,,68,0
420960,note_on,0,0,1,,,,,,,,,0,,,67,44
420960,note_off,0,0,4,,,,,,,,,4,,,51,0
421120,note_off,160,0,4,,,,,,,,,4,,,49,0
421120,note_off,0,0,4,,,,,,,,,4,,,51,0
421120,note_off,0,0,4,,,,,,,,,4,,,46,0
421120,note_on,0,0,4,,,,,,,,,4,,,46,26
421120,note_on,0,0,4,,,,,,,,,4,,,51,26
421120,note_on,0,0,4,,,,,,,,,4,,,49,26
421280,note_on,0,0,4,,,,,,,,,4,,,49,26
421280,note_on,0,0,4,,,,,,,,,4,,,51,26
421280,note_off,0,0,4,,,,,,,,,4,,,51,0
421280,note_off,0,0,4,,,,,,,,,4,,,46,0
421280,note_off,160,0,4,,,,,,,,,4,,,49,0
421280,note_on,0,0,4,,,,,,,,,4,,,46,26
421440,note_off,160,0,4,,,,,,,,,4,,,49,0
421440,note_off,0,0,4,,,,,,,,,4,,,51,0
421440,note_off,0,0,4,,,,,,,,,4,,,46,0
421440,note_on,0,0,4,,,,,,,,,4,,,46,26
421440,note_on,0,0,4,,,,,,,,,4,,,49,26
421440,note_on,0,0,4,,,,,,,,,4,,,51,26
421600,note_on,0,0,4,,,,,,,,,4,,,49,27
421600,note_on,0,0,4,,,,,,,,,4,,,51,27
421600,note_on,0,0,4,,,,,,,,,4,,,46,27
421600,note_off,0,0,4,,,,,,,,,4,,,46,0
421600,note_off,0,0,4,,,,,,,,,4,,,51,0
421600,note_off,160,0,4,,,,,,,,,4,,,49,0
421755,note_off,795,0,1,,,,,,,,,0,,,67,0
421760,note_off,160,0,4,,,,,,,,,4,,,49,0
421760,note_on,5,0,1,,,,,,,,,0,,,76,48
421760,note_on,0,0,4,,,,,,,,,4,,,51,28
421760,note_off,0,0,4,,,,,,,,,4,,,51,0
421760,note_off,0,0,4,,,,,,,,,4,,,46,0
421760,note_on,0,0,4,,,,,,,,,4,,,46,28
421760,note_on,0,0,4,,,,,,,,,4,,,49,28
421920,note_off,160,0,4,,,,,,,,,4,,,51,0
421920,note_off,0,0,4,,,,,,,,,4,,,49,0
421920,note_off,0,0,4,,,,,,,,,4,,,46,0
421920,note_on,0,0,4,,,,,,,,,4,,,46,28
421920,note_on,0,0,4,,,,,,,,,4,,,51,28
421920,note_on,0,0,4,,,,,,,,,4,,,49,28
422080,note_on,0,0,4,,,,,,,,,4,,,49,29
422080,note_on,0,0,4,,,,,,,,,4,,,51,29
422080,note_off,0,0,4,,,,,,,,,4,,,46,0
422080,note_off,0,0,4,,,,,,,,,4,,,51,0
422080,note_off,160,0,4,,,,,,,,,4,,,49,0
422080,note_on,0,0,4,,,,,,,,,4,,,46,29
422240,note_on,0,0,4,,,,,,,,,4,,,49,30
422240,note_off,160,0,4,,,,,,,,,4,,,51,0
422240,note_off,0,0,4,,,,,,,,,4,,,49,0
422240,note_off,0,0,4,,,,,,,,,4,,,46,0
422240,note_on,0,0,4,,,,,,,,,4,,,46,30
422240,note_on,0,0,4,,,,,,,,,4,,,55,30
422240,note_on,0,0,4,,,,,,,,,4,,,51,30
422240,note_on,480,0,1,,,,,,,,,0,,,75,47
422242,note_off,2,0,1,,,,,,,,,0,,,76,0
422340,set_tempo,1860,1,0,,,,,,2222222,,,,,,,
422400,note_off,158,0,1,,,,,,,,,0,,,75,0
422400,set_tempo,60,1,0,,,,,,2068965,,,,,,,
422400,note_on,0,0,1,,,,,,,,,0,,,75,48
422400,note_on,0,0,4,,,,,,,,,4,,,56,30
422400,note_on,0,0,4,,,,,,,,,4,,,47,30
422400,note_off,0,0,4,,,,,,,,,4,,,46,0
422400,note_off,0,0,4,,,,,,,,,4,,,55,0
422400,note_off,160,0,4,,,,,,,,,4,,,51,0
422400,note_on,0,0,4,,,,,,,,,4,,,51,30
422400,note_off,0,0,4,,,,,,,,,4,,,49,0
422560,note_off,160,0,4,,,,,,,,,4,,,51,0
422560,note_off,0,0,4,,,,,,,,,4,,,56,0
422560,note_off,0,0,4,,,,,,,,,4,,,47,0
422560,note_on,0,0,4,,,,,,,,,4,,,47,31
422560,note_on,0,0,4,,,,,,,,,4,,,56,31
422560,note_on,0,0,4,,,,,,,,,4,,,51,31
422715,note_off,315,0,1,,,,,,,,,0,,,75,0
422720,note_on,5,0,1,,,,,,,,,0,,,80,49
422720,note_off,0,0,4,,,,,,,,,4,,,56,0
422720,note_off,0,0,4,,,,,,,,,4,,,47,0
422720,note_on,0,0,4,,,,,,,,,4,,,56,32
422720,note_on,0,0,4,,,,,,,,,4,,,51,32
422720,note_on,0,0,4,,,,,,,,,4,,,47,32
422720,note_off,160,0,4,,,,,,,,,4,,,51,0
422880,note_on,0,0,4,,,,,,,,,4,,,48,32
422880,note_on,0,0,4,,,,,,,,,4,,,51,32
422880,note_on,0,0,4,,,,,,,,,4,,,56,32
422880,note_off,0,0,4,,,,,,,,,4,,,47,0
422880,note_off,0,0,4,,,,,,,,,4,,,51,0
422880,note_off,160,0,4,,,,,,,,,4,,,56,0
423040,note_off,160,0,4,,,,,,,,,4,,,56,0
423040,note_off,0,0,4,,,,,,,,,4,,,51,0
423040,note_off,0,0,4,,,,,,,,,4,,,48,0
423040,note_on,0,0,4,,,,,,,,,4,,,48,33
423040,note_on,0,0,4,,,,,,,,,4,,,56,33
423040,note_on,0,0,4,,,,,,,,,4,,,51,33
423180,note_off,460,0,1,,,,,,,,,0,,,80,0
423200,note_off,0,0,4,,,,,,,,,4,,,56,0
423200,note_off,160,0,4,,,,,,,,,4,,,51,0
423200,note_on,0,0,4,,,,,,,,,4,,,56,34
423200,note_on,0,0,4,,,,,,,,,4,,,51,34
423200,note_off,0,0,4,,,,,,,,,4,,,48,0
423200,note_on,0,0,4,,,,,,,,,4,,,48,34
423200,note_on,20,0,1,,,,,,,,,0,,,78,51
423360,note_on,0,0,4,,,,,,,,,4,,,52,35
423360,note_off,160,0,4,,,,,,,,,4,,,51,0
423360,note_off,0,0,4,,,,,,,,,4,,,56,0
423360,note_off,0,0,4,,,,,,,,,4,,,48,0
423360,note_on,0,0,4,,,,,,,,,4,,,48,35
423360,note_on,0,0,4,,,,,,,,,4,,,56,35
423520,note_on,0,0,4,,,,,,,,,4,,,52,35
423520,note_on,0,0,4,,,,,,,,,4,,,56,35
423520,note_off,0,0,4,,,,,,,,,4,,,48,0
423520,note_off,0,0,4,,,,,,,,,4,,,52,0
423520,note_off,160,0,4,,,,,,,,,4,,,56,0
423520,note_on,0,0,4,,,,,,,,,4,,,48,35
423675,note_off,475,0,1,,,,,,,,,0,,,78,0
423680,note_on,0,0,4,,,,,,,,,4,,,56,36
423680,note_on,0,0,4,,,,,,,,,4,,,52,36
423680,note_on,0,0,4,,,,,,,,,4,,,48,36
423680,note_on,5,0,1,,,,,,,,,0,,,76,53
423680,note_off,160,0,4,,,,,,,,,4,,,52,0
423680,note_off,0,0,4,,,,,,,,,4,,,56,0
423680,note_off,0,0,4,,,,,,,,,4,,,48,0
423780,set_tempo,1380,1,0,,,,,,2142857,,,,,,,
423840,note_on,0,0,1,,,,,,,,,0,,,75,54
423840,note_off,160,0,1,,,,,,,,,0,,,76,0
423840,note_off,160,0,4,,,,,,,,,4,,,52,0
423840,note_off,0,0,4,,,,,,,,,4,,,56,0
423840,note_off,0,0,4,,,,,,,,,4,,,48,0
423840,note_on,0,0,4,,,,,,,,,4,,,52,37
423840,note_on,0,0,4,,,,,,,,,4,,,61,37
423840,set_tempo,60,1,0,,,,,,2068965,,,,,,,
423840,note_on,0,0,4,,,,,,,,,4,,,56,37
424000,note_off,0,0,4,,,,,,,,,4,,,61,0
424000,note_off,160,0,4,,,,,,,,,4,,,56,0
424000,note_off,0,0,4,,,,,,,,,4,,,52,0
424000,note_on,0,0,4,,,,,,,,,4,,,52,37
424000,note_on,0,0,4,,,,,,,,,4,,,56,37
424000,note_on,0,0,4,,,,,,,,,4,,,61,37
424160,note_off,0,0,4,,,,,,,,,4,,,56,0
424160,note_on,0,0,4,,,,,,,,,4,,,61,38
424160,note_on,320,0,1,,,,,,,,,0,,,73,55
424160,note_off,160,0,4,,,,,,,,,4,,,61,0
424160,note_on,0,0,4,,,,,,,,,4,,,56,38
424160,note_off,0,0,4,,,,,,,,,4,,,52,0
424160,note_on,0,0,4,,,,,,,,,4,,,52,38
424162,note_off,2,0,1,,,,,,,,,0,,,75,0
424260,set_tempo,420,1,0,,,,,,2222222,,,,,,,
424320,note_on,0,0,1,,,,,,,,,0,,,71,55
424320,note_off,160,0,4,,,,,,,,,4,,,61,0
424320,note_off,0,0,4,,,,,,,,,4,,,56,0
424320,note_off,0,0,4,,,,,,,,,4,,,52,0
424320,note_on,0,0,4,,,,,,,,,4,,,51,37
424320,note_on,0,0,4,,,,,,,,,4,,,59,37
424320,note_on,0,0,4,,,,,,,,,4,,,56,37
424320,set_tempo,60,1,0,,,,,,2068965,,,,,,,
424320,note_off,158,0,1,,,,,,,,,0,,,73,0
424480,note_off,0,0,4,,,,,,,,,4,,,51,0
424480,note_on,0,0,4,,,,,,,,,4,,,56,36
424480,note_on,0,0,4,,,,,,,,,4,,,59,36
424480,note_on,0,0,4,,,,,,,,,4,,,51,36
424480,note_off,160,0,4,,,,,,,,,4,,,56,0
424480,note_off,0,0,4,,,,,,,,,4,,,59,0
424640,note_on,0,0,4,,,,,,,,,4,,,56,35
424640,note_on,0,0,4,,,,,,,,,4,,,59,35
424640,note_on,0,0,4,,,,,,,,,4,,,51,35
424640,note_off,0,0,4,,,,,,,,,4,,,51,0
424640,note_off,0,0,4,,,,,,,,,4,,,59,0
424640,note_off,160,0,4,,,,,,,,,4,,,56,0
424800,note_on,0,0,4,,,,,,,,,4,,,51,34
424800,note_off,0,0,4,,,,,,,,,4,,,51,0
424800,note_off,160,0,4,,,,,,,,,4,,,56,0
424800,note_off,0,0,4,,,,,,,,,4,,,59,0
424800,note_on,0,0,4,,,,,,,,,4,,,59,34
424800,note_on,0,0,4,,,,,,,,,4,,,56,34
424960,note_on,640,0,1,,,,,,,,,0,,,73,52
424960,note_off,0,0,4,,,,,,,,,4,,,59,0
424960,note_off,0,0,4,,,,,,,,,4,,,51,0
424960,note_on,0,0,4,,,,,,,,,4,,,51,33
424960,note_on,0,0,4,,,,,,,,,4,,,59,33
424960,note_on,0,0,4,,,,,,,,,4,,,56,33
424960,note_off,160,0,4,,,,,,,,,4,,,56,0
424972,note_off,12,0,1,,,,,,,,,0,,,71,0
425120,note_off,160,0,4,,,,,,,,,4,,,56,0
425120,note_off,0,0,4,,,,,,,,,4,,,59,0
425120,note_on,0,0,4,,,,,,,,,4,,,51,30
425120,note_on,0,0,4,,,,,,,,,4,,,59,30
425120,note_on,0,0,4,,,,,,,,,4,,,56,30
425120,note_off,0,0,4,,,,,,,,,4,,,51,0
425120,note_off,148,0,1,,,,,,,,,0,,,73,0
425120,note_on,0,0,1,,,,,,,,,0,,,75,49
425196,set_tempo,876,1,0,,,,,,2142857,,,,,,,
425200,note_off,80,0,1,,,,,,,,,0,,,75,0
425200,note_on,0,0,1,,,,,,,,,0,,,73,47
425240,note_off,40,0,1,,,,,,,,,0,,,73,0
425240,note_on,0,0,1,,,,,,,,,0,,,71,46
425280,note_on,0,0,4,,,,,,,,,4,,,58,31
425280,note_on,0,0,4,,,,,,,,,4,,,55,31
425280,note_on,0,0,4,,,,,,,,,4,,,51,31
425280,note_off,0,0,4,,,,,,,,,4,,,51,0
425280,note_off,160,0,4,,,,,,,,,4,,,56,0
425280,set_tempo,84,1,0,,,,,,2068965,,,,,,,
425280,note_on,0,0,1,,,,,,,,,0,,,70,44
425280,note_off,40,0,1,,,,,,,,,0,,,71,0
425280,note_off,0,0,4,,,,,,,,,4,,,59,0
425440,note_on,0,0,4,,,,,,,,,4,,,55,33
425440,note_off,160,0,4,,,,,,,,,4,,,58,0
425440,note_off,0,0,4,,,,,,,,,4,,,55,0
425440,note_on,0,0,4,,,,,,,,,4,,,51,33
425440,note_on,0,0,4,,,,,,,,,4,,,58,33
425440,note_off,0,0,4,,,,,,,,,4,,,51,0
425600,note_on,0,0,4,,,,,,,,,4,,,51,35
425600,note_on,0,0,4,,,,,,,,,4,,,55,35
425600,note_off,160,0,4,,,,,,,,,4,,,58,0
425600,note_on,0,0,4,,,,,,,,,4,,,58,35
425600,note_off,0,0,4,,,,,,,,,4,,,51,0
425600,note_off,0,0,4,,,,,,,,,4,,,55,0
425700,set_tempo,420,1,0,,,,,,2142857,,,,,,,
425760,note_off,160,0,4,,,,,,,,,4,,,55,0
425760,note_off,0,0,4,,,,,,,,,4,,,58,0
425760,set_tempo,60,1,0,,,,,,2068965,,,,,,,
425760,note_off,0,0,4,,,,,,,,,4,,,51,0
425760,note_on,0,0,4,,,,,,,,,4,,,49,36
425760,note_on,0,0,4,,,,,,,,,4,,,51,36
425760,note_on,0,0,4,,,,,,,,,4,,,55,36
425760,note_on,0,0,4,,,,,,,,,4,,,58,36
425920,note_on,0,0,4,,,,,,,,,4,,,51,35
425920,note_on,0,0,4,,,,,,,,,4,,,47,35
425920,note_on,0,0,4,,,,,,,,,4,,,56,35
425920,note_off,0,0,4,,,,,,,,,4,,,51,0
425920,note_off,0,0,4,,,,,,,,,4,,,55,0
425920,note_on,640,0,1,,,,,,,,,0,,,71,48
425920,note_off,160,0,4,,,,,,,,,4,,,58,0
425920,note_off,0,0,4,,,,,,,,,4,,,49,0
425925,note_off,5,0,1,,,,,,,,,0,,,70,0
426080,note_on,0,0,1,,,,,,,,,0,,,73,46
426080,note_off,155,0,1,,,,,,,,,0,,,71,0
426080,note_off,0,0,4,,,,,,,,,4,,,51,0
426080,note_on,0,0,4,,,,,,,,,4,,,51,31
426080,note_on,0,0,4,,,,,,,,,4,,,46,31
426080,note_off,0,0,4,,,,,,,,,4,,,47,0
426080,note_off,160,0,4,,,,,,,,,4,,,56,0
426080,note_on,0,0,4,,,,,,,,,4,,,55,31
426180,set_tempo,420,1,0,,,,,,2222222,,,,,,,
426240,note_off,160,0,4,,,,,,,,,4,,,55,0
426240,note_off,0,0,4,,,,,,,,,4,,,51,0
426240,note_on,0,0,4,,,,,,,,,4,,,44,28
426240,note_on,0,0,4,,,,,,,,,4,,,51,28
426240,note_on,0,0,4,,,,,,,,,4,,,56,28
426240,note_off,160,0,1,,,,,,,,,0,,,73,0
426240,note_on,0,0,1,,,,,,,,,0,,,71,48
426240,set_tempo,60,1,0,,,,,,2068965,,,,,,,
426240,note_off,0,0,4,,,,,,,,,4,,,46,0
426400,note_off,160,0,4,,,,,,,,,4,,,56,0
426400,note_on,0,0,4,,,,,,,,,4,,,51,29
426400,note_on,0,0,4,,,,,,,,,4,,,47,29
426400,note_on,0,0,4,,,,,,,,,4,,,44,29
426400,note_off,0,0,4,,,,,,,,,4,,,44,0
426400,note_off,0,0,4,,,,,,,,,4,,,51,0
426560,note_on,0,0,4,,,,,,,,,4,,,47,29
426560,note_on,0,0,4,,,,,,,,,4,,,51,29
426560,note_off,0,0,4,,,,,,,,,4,,,44,0
426560,note_off,0,0,4,,,,,,,,,4,,,47,0
426560,note_off,160,0,4,,,,,,,,,4,,,51,0
426560,note_on,0,0,4,,,,,,,,,4,,,44,29
426720,note_off,0,0,4,,,,,,,,,4,,,44,0
426720,note_off,0,0,4,,,,,,,,,4,,,47,0
426720,note_on,0,0,4,,,,,,,,,4,,,51,30
426720,note_on,0,0,4,,,,,,,,,4,,,44,30
426720,note_off,160,0,4,,,,,,,,,4,,,51,0
426720,note_on,0,0,4,,,,,,,,,4,,,47,30
426880,note_on,0,0,4,,,,,,,,,4,,,44,30
426880,note_off,0,0,4,,,,,,,,,4,,,44,0
426880,note_off,0,0,4,,,,,,,,,4,,,47,0
426880,note_off,160,0,4,,,,,,,,,4,,,51,0
426880,note_on,0,0,4,,,,,,,,,4,,,51,30
426880,note_on,0,0,4,,,,,,,,,4,,,47,30
427040,note_off,160,0,4,,,,,,,,,4,,,51,0
427040,note_on,0,0,4,,,,,,,,,4,,,47,31
427040,note_off,0,0,4,,,,,,,,,4,,,47,0
427040,note_on,0,0,4,,,,,,,,,4,,,44,31
427040,note_off,0,0,4,,,,,,,,,4,,,44,0
427040,note_on,0,0,4,,,,,,,,,4,,,51,31
427200,note_off,160,0,4,,,,,,,,,4,,,51,0
427200,note_off,0,0,4,,,,,,,,,4,,,47,0
427200,note_off,0,0,4,,,,,,,,,4,,,44,0
427200,note_off,960,0,1,,,,,,,,,0,,,71,0
427200,note_on,0,0,4,,,,,,,,,4,,,42,32
427200,note_on,0,0,1,,,,,,,,,0,,,73,53
427200,note_on,0,0,4,,,,,,,,,4,,,52,32
427200,note_on,0,0,4,,,,,,,,,4,,,47,32
427360,note_off,160,0,4,,,,,,,,,4,,,52,0
427360,note_off,0,0,4,,,,,,,,,4,,,47,0
427360,note_off,0,0,4,,,,,,,,,4,,,42,0
427360,note_on,0,0,4,,,,,,,,,4,,,42,32
427360,note_on,0,0,4,,,,,,,,,4,,,47,32
427360,note_on,0,0,4,,,,,,,,,4,,,52,32
427520,note_off,0,0,4,,,,,,,,,4,,,42,0
427520,note_on,0,0,4,,,,,,,,,4,,,42,33
427520,note_on,0,0,4,,,,,,,,,4,,,47,33
427520,note_on,0,0,4,,,,,,,,,4,,,52,33
427520,note_off,160,0,4,,,,,,,,,4,,,52,0
427520,note_off,0,0,4,,,,,,,,,4,,,47,0
427680,note_off,0,0,4,,,,,,,,,4,,,47,0
427680,note_off,160,0,4,,,,,,,,,4,,,52,0
427680,note_off,0,0,4,,,,,,,,,4,,,42,0
427680,note_on,0,0,4,,,,,,,,,4,,,42,33
427680,note_on,0,0,4,,,,,,,,,4,,,46,33
427680,note_on,0,0,4,,,,,,,,,4,,,52,33
427840,note_on,0,0,4,,,,,,,,,4,,,42,34
427840,note_off,160,0,4,,,,,,,,,4,,,52,0
427840,note_off,0,0,4,,,,,,,,,4,,,46,0
427840,note_off,0,0,4,,,,,,,,,4,,,42,0
427840,note_on,0,0,4,,,,,,,,,4,,,46,34
427840,note_on,0,0,4,,,,,,,,,4,,,52,34
428000,note_off,0,0,4,,,,,,,,,4,,,42,0
428000,note_off,0,0,4,,,,,,,,,4,,,46,0
428000,note_off,160,0,4,,,,,,,,,4,,,52,0
428000,note_on,0,0,4,,,,,,,,,4,,,46,35
428000,note_on,0,0,4,,,,,,,,,4,,,52,35
428000,note_on,0,0,4,,,,,,,,,4,,,42,35
428100,set_tempo,1860,1,0,,,,,,2222222,,,,,,,
428160,note_on,0,0,4,,,,,,,,,4,,,51,35
428160,set_tempo,60,1,0,,,,,,2068965,,,,,,,
428160,note_on,0,0,4,,,,,,,,,4,,,42,35
428160,note_off,0,0,4,,,,,,,,,4,,,42,0
428160,note_on,0,0,1,,,,,,,,,0,,,75,57
428160,note_off,0,0,4,,,,,,,,,4,,,46,0
428160,note_off,160,0,4,,,,,,,,,4,,,52,0
428160,note_on,0,0,4,,,,,,,,,4,,,47,35
428160,note_off,960,0,1,,,,,,,,,0,,,73,0
428320,note_on,0,0,4,,,,,,,,,4,,,51,36
428320,note_on,0,0,4,,,,,,,,,4,,,42,36
428320,note_off,160,0,4,,,,,,,,,4,,,51,0
428320,note_off,0,0,4,,,,,,,,,4,,,47,0
428320,note_off,0,0,4,,,,,,,,,4,,,42,0
428320,note_on,0,0,4,,,,,,,,,4,,,47,36
428480,note_on,0,0,4,,,,,,,,,4,,,42,36
428480,note_off,160,0,4,,,,,,,,,4,,,51,0
428480,note_off,0,0,4,,,,,,,,,4,,,47,0
428480,note_off,0,0,4,,,,,,,,,4,,,42,0
428480,note_on,0,0,4,,,,,,,,,4,,,47,36
428480,note_on,0,0,4,,,,,,,,,4,,,51,36
428640,note_on,0,0,4,,,,,,,,,4,,,54,37
428640,note_on,0,0,4,,,,,,,,,4,,,59,37
428640,note_on,0,0,4,,,,,,,,,4,,,47,37
428640,note_off,0,0,4,,,,,,,,,4,,,42,0
428640,note_off,0,0,4,,,,,,,,,4,,,47,0
428640,note_off,160,0,4,,,,,,,,,4,,,51,0
428800,note_on,0,0,4,,,,,,,,,4,,,47,38
428800,note_off,0,0,4,,,,,,,,,4,,,47,0
428800,note_off,0,0,4,,,,,,,,,4,,,59,0
428800,note_off,160,0,4,,,,,,,,,4,,,54,0
428800,note_on,0,0,4,,,,,,,,,4,,,59,38
428800,note_on,0,0,4,,,,,,,,,4,,,54,38
428960,note_on,0,0,4,,,,,,,,,4,,,54,38
428960,note_on,0,0,4,,,,,,,,,4,,,47,38
428960,note_on,0,0,4,,,,,,,,,4,,,59,38
428960,note_off,0,0,4,,,,,,,,,4,,,59,0
428960,note_off,160,0,4,,,,,,,,,4,,,54,0
428960,note_off,0,0,4,,,,,,,,,4,,,47,0
429120,note_on,0,0,4,,,,,,,,,4,,,52,39
429120,note_off,960,0,1,,,,,,,,,0,,,75,0
429120,note_on,0,0,1,,,,,,,,,0,,,76,62
429120,note_on,0,0,4,,,,,,,,,4,,,59,39
429120,note_off,0,0,4,,,,,,,,,4,,,47,0
429120,note_off,0,0,4,,,,,,,,,4,,,59,0
429120,note_off,160,0,4,,,,,,,,,4,,,54,0
429120,note_on,0,0,4,,,,,,,,,4,,,49,39
429280,note_off,160,0,4,,,,,,,,,4,,,52,0
429280,note_off,0,0,4,,,,,,,,,4,,,59,0
429280,note_off,0,0,4,,,,,,,,,4,,,49,0
429280,note_on,0,0,4,,,,,,,,,4,,,49,39
429280,note_on,0,0,4,,,,,,,,,4,,,59,39
429280,note_on,0,0,4,,,,,,,,,4,,,52,39
429440,note_off,0,0,4,,,,,,,,,4,,,59,0
429440,note_off,160,0,4,,,,,,,,,4,,,52,0
429440,note_on,0,0,4,,,,,,,,,4,,,49,40
429440,note_off,0,0,4,,,,,,,,,4,,,49,0
429440,note_on,0,0,4,,,,,,,,,4,,,52,40
429440,note_on,0,0,4,,,,,,,,,4,,,59,40
429600,note_off,480,0,1,,,,,,,,,0,,,76,0
429600,note_on,0,0,4,,,,,,,,,4,,,52,41
429600,note_on,0,0,4,,,,,,,,,4,,,49,41
429600,note_off,0,0,4,,,,,,,,,4,,,49,0
429600,note_off,0,0,4,,,,,,,,,4,,,52,0
429600,note_off,160,0,4,,,,,,,,,4,,,59,0
429600,note_on,0,0,4,,,,,,,,,4,,,58,41
429600,note_on,0,0,1,,,,,,,,,0,,,80,64
429760,note_on,0,0,4,,,,,,,,,4,,,58,41
429760,note_off,0,0,4,,,,,,,,,4,,,49,0
429760,note_off,0,0,4,,,,,,,,,4,,,52,0
429760,note_off,160,0,4,,,,,,,,,4,,,58,0
429760,note_on,0,0,4,,,,,,,,,4,,,49,41
429760,note_on,0,0,4,,,,,,,,,4,,,52,41
429920,note_on,0,0,4,,,,,,,,,4,,,49,42
429920,note_on,0,0,4,,,,,,,,,4,,,52,42
429920,note_off,0,0,4,,,,,,,,,4,,,52,0
429920,note_off,0,0,4,,,,,,,,,4,,,49,0
429920,note_on,0,0,4,,,,,,,,,4,,,58,42
429920,note_off,160,0,4,,,,,,,,,4,,,58,0
430020,set_tempo,1860,1,0,,,,,,2222222,,,,,,,
430080,note_on,0,0,4,,,,,,,,,4,,,54,43
430080,note_off,480,0,1,,,,,,,,,0,,,80,0
430080,set_tempo,60,1,0,,,,,,2068965,,,,,,,
430080,note_on,0,0,1,,,,,,,,,0,,,78,66
430080,note_on,0,0,4,,,,,,,,,4,,,51,43
430080,note_off,0,0,4,,,,,,,,,4,,,49,0
430080,note_on,0,0,4,,,,,,,,,4,,,59,43
430080,note_off,0,0,4,,,,,,,,,4,,,52,0
430080,note_off,160,0,4,,,,,,,,,4,,,58,0
430240,note_on,0,0,4,,,,,,,,,4,,,59,43
430240,note_on,0,0,4,,,,,,,,,4,,,51,43
430240,note_off,0,0,4,,,,,,,,,4,,,51,0
430240,note_off,0,0,4,,,,,,,,,4,,,59,0
430240,note_off,160,0,4,,,,,,,,,4,,,54,0
430240,note_on,0,0,4,,,,,,,,,4,,,54,43
430320,note_off,240,0,1,,,,,,,,,0,,,78,0
430400,note_on,0,0,4,,,,,,,,,4,,,59,44
430400,note_on,80,0,1,,,,,,,,,0,,,83,68
430400,note_on,0,0,4,,,,,,,,,4,,,54,44
430400,note_off,160,0,4,,,,,,,,,4,,,54,0
430400,note_off,0,0,4,,,,,,,,,4,,,59,0
430400,note_off,0,0,4,,,,,,,,,4,,,51,0
430400,note_on,0,0,4,,,,,,,,,4,,,51,44
430560,note_off,160,0,4,,,,,,,,,4,,,54,0
430560,note_off,0,0,4,,,,,,,,,4,,,59,0
430560,note_off,0,0,4,,,,,,,,,4,,,51,0
430560,note_on,0,0,4,,,,,,,,,4,,,52,44
430560,note_on,0,0,4,,,,,,,,,4,,,64,44
430560,note_on,0,0,4,,,,,,,,,4,,,59,44
430560,note_on,0,0,1,,,,,,,,,0,,,80,69
430560,note_off,160,0,1,,,,,,,,,0,,,83,0
430720,note_off,0,0,4,,,,,,,,,4,,,52,0
430720,note_on,0,0,4,,,,,,,,,4,,,52,45
430720,note_on,0,0,4,,,,,,,,,4,,,64,45
430720,note_on,0,0,4,,,,,,,,,4,,,59,45
430720,note_off,160,0,4,,,,,,,,,4,,,59,0
430720,note_off,0,0,4,,,,,,,,,4,,,64,0
430880,note_on,320,0,1,,,,,,,,,0,,,92,76
430880,note_off,160,0,4,,,,,,,,,4,,,59,0
430880,note_off,0,0,4,,,,,,,,,4,,,64,0
430880,note_off,0,0,4,,,,,,,,,4,,,52,0
430880,note_on,0,0,4,,,,,,,,,4,,,52,46
430880,note_on,0,0,4,,,,,,,,,4,,,64,46
430880,note_on,0,0,4,,,,,,,,,4,,,59,46
430882,note_off,2,0,1,,,,,,,,,0,,,80,0
431040,note_off,160,0,4,,,,,,,,,4,,,59,0
431040,note_off,0,0,4,,,,,,,,,4,,,52,0
431040,note_on,0,0,4,,,,,,,,,4,,,54,46
431040,note_on,0,0,4,,,,,,,,,4,,,59,46
431040,note_off,0,0,4,,,,,,,,,4,,,64,0
431040,note_on,0,0,4,,,,,,,,,4,,,63,46
431200,note_off,160,0,4,,,,,,,,,4,,,63,0
431200,note_off,0,0,4,,,,,,,,,4,,,54,0
431200,note_on,0,0,4,,,,,,,,,4,,,54,47
431200,note_on,0,0,4,,,,,,,,,4,,,59,47
431200,note_on,0,0,4,,,,,,,,,4,,,63,47
431200,note_off,0,0,4,,,,,,,,,4,,,59,0
431355,note_off,473,0,1,,,,,,,,,0,,,92,0
431360,note_off,160,0,4,,,,,,,,,4,,,63,0
431360,note_on,0,0,4,,,,,,,,,4,,,63,47
431360,note_on,0,0,4,,,,,,,,,4,,,59,47
431360,note_on,0,0,4,,,,,,,,,4,,,54,47
431360,note_off,0,0,4,,,,,,,,,4,,,54,0
431360,note_off,0,0,4,,,,,,,,,4,,,59,0
431360,note_on,5,0,1,,,,,,,,,0,,,90,72
431460,set_tempo,1380,1,0,,,,,,2142857,,,,,,,
431520,note_on,0,0,4,,,,,,,,,4,,,54,44
431520,note_on,0,0,4,,,,,,,,,4,,,61,44
431520,set_tempo,60,1,0,,,,,,2068965,,,,,,,
431520,note_on,0,0,4,,,,,,,,,4,,,58,44
431520,note_on,0,0,4,,,,,,,,,4,,,64,44
431520,note_off,0,0,4,,,,,,,,,4,,,54,0
431520,note_off,0,0,4,,,,,,,,,4,,,59,0
431520,note_off,160,0,4,,,,,,,,,4,,,63,0
431680,note_off,0,0,4,,,,,,,,,4,,,61,0
431680,note_off,160,0,4,,,,,,,,,4,,,58,0
431680,note_on,0,0,4,,,,,,,,,4,,,54,42
431680,note_on,0,0,4,,,,,,,,,4,,,64,42
431680,note_on,320,0,1,,,,,,,,,0,,,87,65
431680,note_on,0,0,4,,,,,,,,,4,,,61,42
431680,note_on,0,0,4,,,,,,,,,4,,,58,42
431680,note_off,0,0,4,,,,,,,,,4,,,64,0
431680,note_off,0,0,4,,,,,,,,,4,,,54,0
431685,note_off,5,0,1,,,,,,,,,0,,,90,0
431840,note_off,160,0,4,,,,,,,,,4,,,58,0
431840,note_off,0,0,4,,,,,,,,,4,,,61,0
431840,note_off,0,0,4,,,,,,,,,4,,,64,0
431840,note_off,0,0,4,,,,,,,,,4,,,54,0
431840,note_on,0,0,4,,,,,,,,,4,,,54,39
431840,note_on,0,0,4,,,,,,,,,4,,,58,39
431840,note_off,155,0,1,,,,,,,,,0,,,87,0
431840,note_on,0,0,1,,,,,,,,,0,,,88,61
431840,note_on,0,0,4,,,,,,,,,4,,,64,39
431840,note_on,0,0,4,,,,,,,,,4,,,61,39
431900,set_tempo,380,1,0,,,,,,2222222,,,,,,,
431920,note_off,80,0,1,,,,,,,,,0,,,88,0
431920,note_on,0,0,1,,,,,,,,,0,,,82,60
432000,set_tempo,100,1,0,,,,,,2068965,,,,,,,
432000,note_off,80,0,1,,,,,,,,,0,,,82,0
432000,note_on,0,0,1,,,,,,,,,0,,,85,61
432000,note_off,160,0,4,,,,,,,,,4,,,61,0
432000,note_off,0,0,4,,,,,,,,,4,,,64,0
432000,note_on,0,0,4,,,,,,,,,4,,,55,37
432000,note_off,0,0,4,,,,,,,,,4,,,58,0
432000,note_on,0,0,4,,,,,,,,,4,,,64,37
432000,note_on,0,0,4,,,,,,,,,4,,,61,37
432000,note_on,0,0,4,,,,,,,,,4,,,58,37
432000,note_off,0,0,4,,,,,,,,,4,,,54,0
432160,note_on,0,0,4,,,,,,,,,4,,,58,37
432160,note_off,160,0,4,,,,,,,,,4,,,58,0
432160,note_off,0,0,4,,,,,,,,,4,,,61,0
432160,note_off,0,0,4,,,,,,,,,4,,,64,0
432160,note_off,0,0,4,,,,,,,,,4,,,55,0
432160,note_on,0,0,4,,,,,,,,,4,,,55,37
432160,note_on,0,0,4,,,,,,,,,4,,,64,37
432160,note_on,0,0,4,,,,,,,,,4,,,61,37
432320,note_on,0,0,4,,,,,,,,,4,,,55,37
432320,note_off,0,0,4,,,,,,,,,4,,,61,0
432320,note_off,0,0,4,,,,,,,,,4,,,64,0
432320,note_off,0,0,4,,,,,,,,,4,,,55,0
432320,note_on,0,0,4,,,,,,,,,4,,,58,37
432320,note_on,0,0,4,,,,,,,,,4,,,64,37
432320,note_off,160,0,4,,,,,,,,,4,,,58,0
432320,note_on,0,0,4,,,,,,,,,4,,,61,37
432480,note_on,0,0,4,,,,,,,,,4,,,58,36
432480,note_on,0,0,4,,,,,,,,,4,,,64,36
432480,note_on,0,0,4,,,,,,,,,4,,,61,36
432480,note_on,0,0,4,,,,,,,,,4,,,54,36
432480,note_off,0,0,4,,,,,,,,,4,,,55,0
432480,note_off,0,0,4,,,,,,,,,4,,,61,0
432480,note_off,0,0,4,,,,,,,,,4,,,64,0
432480,note_off,160,0,4,,,,,,,,,4,,,58,0
432640,note_off,0,0,4,,,,,,,,,4,,,64,0
432640,note_off,0,0,4,,,,,,,,,4,,,61,0
432640,note_off,160,0,4,,,,,,,,,4,,,58,0
432640,note_off,0,0,4,,,,,,,,,4,,,54,0
432640,note_on,0,0,4,,,,,,,,,4,,,54,36
432640,note_on,0,0,4,,,,,,,,,4,,,64,36
432640,note_on,0,0,4,,,,,,,,,4,,,61,36
432640,note_on,0,0,4,,,,,,,,,4,,,58,36
432800,note_off,160,0,4,,,,,,,,,4,,,58,0
432800,note_off,0,0,4,,,,,,,,,4,,,61,0
432800,note_off,0,0,4,,,,,,,,,4,,,64,0
432800,note_off,0,0,4,,,,,,,,,4,,,54,0
432800,note_on,0,0,4,,,,,,,,,4,,,54,35
432800,note_on,0,0,4,,,,,,,,,4,,,61,35
432800,note_on,0,0,4,,,,,,,,,4,,,58,35
432800,note_on,0,0,4,,,,,,,,,4,,,66,35
432900,set_tempo,900,1,0,,,,,,2222222,,,,,,,
432960,note_off,160,0,4,,,,,,,,,4,,,66,0
432960,note_off,0,0,4,,,,,,,,,4,,,58,0
432960,note_off,0,0,4,,,,,,,,,4,,,61,0
432960,note_off,0,0,4,,,,,,,,,4,,,54,0
432960,note_on,0,0,4,,,,,,,,,4,,,59,35
432960,note_on,0,0,4,,,,,,,,,4,,,63,35
432960,note_on,0,0,4,,,,,,,,,4,,,66,35
432960,note_on,0,0,1,,,,,,,,,0,,,83,57
432960,note_off,960,0,1,,,,,,,,,0,,,85,0
433000,set_tempo,100,1,0,,,,,,2068965,,,,,,,
433120,note_off,160,0,4,,,,,,,,,4,,,66,0
433120,note_off,0,0,4,,,,,,,,,4,,,63,0
433120,note_off,0,0,4,,,,,,,,,4,,,59,0
433120,note_on,0,0,4,,,,,,,,,4,,,59,35
433120,note_on,0,0,4,,,,,,,,,4,,,63,35
433120,note_on,0,0,4,,,,,,,,,4,,,66,35
433280,note_off,0,0,4,,,,,,,,,4,,,63,0
433280,note_on,0,0,4,,,,,,,,,4,,,66,34
433280,note_off,160,0,4,,,,,,,,,4,,,66,0
433280,note_off,0,0,4,,,,,,,,,4,,,59,0
433280,note_on,0,0,4,,,,,,,,,4,,,63,34
433280,note_on,0,0,4,,,,,,,,,4,,,59,34
433440,note_off,0,0,4,,,,,,,,,4,,,63,0
433440,note_off,0,0,4,,,,,,,,,4,,,59,0
433440,note_on,0,0,4,,,,,,,,,4,,,59,34
433440,note_on,0,0,4,,,,,,,,,4,,,66,34
433440,note_on,0,0,4,,,,,,,,,4,,,63,34
433440,note_off,480,0,1,,,,,,,,,0,,,83,0
433440,note_on,0,0,1,,,,,,,,,0,,,75,56
433440,note_off,160,0,4,,,,,,,,,4,,,66,0
433600,note_off,0,0,4,,,,,,,,,4,,,63,0
433600,note_off,160,0,4,,,,,,,,,4,,,66,0
433600,note_on,0,0,4,,,,,,,,,4,,,59,33
433600,note_on,0,0,4,,,,,,,,,4,,,63,33
433600,note_on,0,0,4,,,,,,,,,4,,,66,33
433600,note_off,0,0,4,,,,,,,,,4,,,59,0
433760,note_on,0,0,4,,,,,,,,,4,,,66,33
433760,note_off,0,0,4,,,,,,,,,4,,,63,0
433760,note_off,0,0,4,,,,,,,,,4,,,59,0
433760,note_on,0,0,4,,,,,,,,,4,,,59,33
433760,note_on,0,0,4,,,,,,,,,4,,,63,33
433760,note_off,160,0,4,,,,,,,,,4,,,66,0
433860,set_tempo,860,1,0,,,,,,2222222,,,,,,,
433897,note_off,137,0,4,,,,,,,,,4,,,59,0
433920,note_on,0,0,4,,,,,,,,,4,,,60,33
433920,note_on,0,0,4,,,,,,,,,4,,,66,33
433920,note_off,23,0,4,,,,,,,,,4,,,66,0
433920,note_off,0,0,4,,,,,,,,,4,,,63,0
433920,note_on,0,0,4,,,,,,,,,4,,,63,33
433920,set_tempo,60,1,0,,,,,,2068965,,,,,,,
434080,note_off,0,0,4,,,,,,,,,4,,,63,0
434080,note_off,0,0,4,,,,,,,,,4,,,60,0
434080,note_on,0,0,4,,,,,,,,,4,,,60,32
434080,note_on,0,0,4,,,,,,,,,4,,,63,32
434080,note_on,0,0,4,,,,,,,,,4,,,66,32
434080,note_off,160,0,4,,,,,,,,,4,,,66,0
434240,note_off,160,0,4,,,,,,,,,4,,,66,0
434240,note_off,0,0,4,,,,,,,,,4,,,63,0
434240,note_off,0,0,4,,,,,,,,,4,,,60,0
434240,note_on,0,0,4,,,,,,,,,4,,,60,32
434240,note_on,0,0,4,,,,,,,,,4,,,66,32
434240,note_on,0,0,4,,,,,,,,,4,,,63,32
434400,note_off,0,0,4,,,,,,,,,4,,,63,0
434400,note_off,0,0,4,,,,,,,,,4,,,60,0
434400,note_on,0,0,4,,,,,,,,,4,,,60,32
434400,note_on,0,0,4,,,,,,,,,4,,,63,32
434400,note_on,0,0,4,,,,,,,,,4,,,66,32
434400,note_off,960,0,1,,,,,,,,,0,,,75,0
434400,note_on,0,0,1,,,,,,,,,0,,,69,52
434400,note_off,160,0,4,,,,,,,,,4,,,66,0
434560,note_on,0,0,4,,,,,,,,,4,,,60,31
434560,note_on,0,0,4,,,,,,,,,4,,,66,31
434560,note_off,0,0,4,,,,,,,,,4,,,63,0
434560,note_off,0,0,4,,,,,,,,,4,,,60,0
434560,note_on,0,0,4,,,,,,,,,4,,,63,31
434560,note_off,160,0,4,,,,,,,,,4,,,66,0
434707,note_off,147,0,4,,,,,,,,,4,,,60,0
434720,note_off,13,0,4,,,,,,,,,4,,,66,0
434720,note_on,0,0,4,,,,,,,,,4,,,60,31
434720,note_off,0,0,4,,,,,,,,,4,,,63,0
434720,note_on,0,0,4,,,,,,,,,4,,,63,31
434720,note_on,0,0,4,,,,,,,,,4,,,66,31
434880,note_on,0,0,4,,,,,,,,,4,,,66,30
434880,note_on,0,0,1,,,,,,,,,0,,,68,50
434880,note_off,480,0,1,,,,,,,,,0,,,69,0
434880,note_on,0,0,4,,,,,,,,,4,,,63,30
434880,note_off,160,0,4,,,,,,,,,4,,,66,0
434880,note_off,0,0,4,,,,,,,,,4,,,63,0
435040,note_off,160,0,4,,,,,,,,,4,,,66,0
435040,note_off,0,0,4,,,,,,,,,4,,,63,0
435040,note_on,0,0,4,,,,,,,,,4,,,66,30
435040,note_on,0,0,4,,,,,,,,,4,,,63,30
435200,note_off,0,0,4,,,,,,,,,4,,,60,0
435200,note_on,0,0,4,,,,,,,,,4,,,63,31
435200,note_on,0,0,4,,,,,,,,,4,,,66,31
435200,note_on,0,0,4,,,,,,,,,4,,,60,31
435200,note_off,0,0,4,,,,,,,,,4,,,63,0
435200,note_off,160,0,4,,,,,,,,,4,,,66,0
435360,note_on,0,0,4,,,,,,,,,4,,,63,32
435360,note_on,0,0,4,,,,,,,,,4,,,60,32
435360,note_off,0,0,4,,,,,,,,,4,,,60,0
435360,note_off,0,0,4,,,,,,,,,4,,,63,0
435360,note_off,160,0,4,,,,,,,,,4,,,66,0
435360,note_on,0,0,4,,,,,,,,,4,,,68,32
435360,note_off,480,0,1,,,,,,,,,0,,,68,0
435360,note_on,0,0,1,,,,,,,,,0,,,78,53
435360,note_on,0,0,4,,,,,,,,,4,,,66,32
435520,note_on,0,0,4,,,,,,,,,4,,,66,33
435520,note_off,160,0,4,,,,,,,,,4,,,68,0
435520,note_off,0,0,4,,,,,,,,,4,,,66,0
435520,note_off,0,0,4,,,,,,,,,4,,,63,0
435520,note_off,0,0,4,,,,,,,,,4,,,60,0
435520,note_on,0,0,4,,,,,,,,,4,,,60,33
435520,note_on,0,0,4,,,,,,,,,4,,,63,33
435520,note_on,0,0,4,,,,,,,,,4,,,68,33
435680,note_off,160,0,4,,,,,,,,,4,,,66,0
435680,note_off,0,0,4,,,,,,,,,4,,,68,0
435680,note_on,320,0,1,,,,,,,,,0,,,75,51
435680,note_off,0,0,4,,,,,,,,,4,,,63,0
435680,note_on,0,0,4,,,,,,,,,4,,,60,34
435680,note_on,0,0,4,,,,,,,,,4,,,63,34
435680,note_on,0,0,4,,,,,,,,,4,,,68,34
435680,note_off,0,0,4,,,,,,,,,4,,,60,0
435680,note_on,0,0,4,,,,,,,,,4,,,66,34
435682,note_off,2,0,1,,,,,,,,,0,,,78,0
435780,set_tempo,1860,1,0,,,,,,2222222,,,,,,,
435840,note_off,158,0,1,,,,,,,,,0,,,75,0
435840,note_on,0,0,1,,,,,,,,,0,,,78,53
435840,set_tempo,60,1,0,,,,,,2068965,,,,,,,
435840,note_on,0,0,4,,,,,,,,,4,,,61,35
435840,note_off,160,0,4,,,,,,,,,4,,,66,0
435840,note_off,0,0,4,,,,,,,,,4,,,68,0
435840,note_off,0,0,4,,,,,,,,,4,,,63,0
435840,note_off,0,0,4,,,,,,,,,4,,,60,0
435840,note_on,0,0,4,,,,,,,,,4,,,64,35
435840,note_on,0,0,4,,,,,,,,,4,,,68,35
436000,note_on,0,0,4,,,,,,,,,4,,,64,34
436000,note_off,0,0,4,,,,,,,,,4,,,61,0
436000,note_on,0,0,4,,,,,,,,,4,,,61,34
436000,note_on,0,0,4,,,,,,,,,4,,,68,34
436000,note_off,160,0,4,,,,,,,,,4,,,68,0
436000,note_off,0,0,4,,,,,,,,,4,,,64,0
436160,note_off,160,0,4,,,,,,,,,4,,,68,0
436160,note_off,0,0,4,,,,,,,,,4,,,64,0
436160,note_off,0,0,4,,,,,,,,,4,,,61,0
436160,note_on,0,0,4,,,,,,,,,4,,,61,33
436160,note_on,0,0,4,,,,,,,,,4,,,64,33
436160,note_on,0,0,4,,,,,,,,,4,,,68,33
436320,note_off,0,0,4,,,,,,,,,4,,,64,0
436320,note_off,160,0,4,,,,,,,,,4,,,68,0
436320,note_off,0,0,4,,,,,,,,,4,,,61,0
436320,note_on,0,0,4,,,,,,,,,4,,,64,32
436320,note_on,0,0,4,,,,,,,,,4,,,68,32
436320,note_off,480,0,1,,,,,,,,,0,,,78,0
436320,note_on,0,0,1,,,,,,,,,0,,,76,48
436320,note_on,0,0,4,,,,,,,,,4,,,61,32
436480,note_off,160,0,4,,,,,,,,,4,,,68,0
436480,note_off,0,0,4,,,,,,,,,4,,,61,0
436480,note_on,0,0,4,,,,,,,,,4,,,49,30
436480,note_on,0,0,4,,,,,,,,,4,,,61,30
436480,note_on,0,0,4,,,,,,,,,4,,,56,30
436480,note_on,0,0,4,,,,,,,,,4,,,68,30
436480,note_off,0,0,4,,,,,,,,,4,,,64,0
436640,note_on,0,0,4,,,,,,,,,4,,,68,29
436640,note_off,0,0,4,,,,,,,,,4,,,56,0
436640,note_off,0,0,4,,,,,,,,,4,,,61,0
436640,note_off,0,0,4,,,,,,,,,4,,,49,0
436640,note_on,0,0,4,,,,,,,,,4,,,49,29
436640,note_on,0,0,4,,,,,,,,,4,,,56,29
436640,note_on,0,0,4,,,,,,,,,4,,,61,29
436640,note_off,160,0,4,,,,,,,,,4,,,68,0
436800,note_off,0,0,4,,,,,,,,,4,,,56,0
436800,note_off,0,0,4,,,,,,,,,4,,,61,0
436800,note_off,0,0,4,,,,,,,,,4,,,49,0
436800,note_off,160,0,4,,,,,,,,,4,,,68,0
436800,note_on,0,0,4,,,,,,,,,4,,,49,28
436800,note_on,0,0,4,,,,,,,,,4,,,61,28
436800,note_on,0,0,4,,,,,,,,,4,,,56,28
436800,note_on,0,0,4,,,,,,,,,4,,,68,28
436960,note_off,0,0,4,,,,,,,,,4,,,56,0
436960,note_off,0,0,4,,,,,,,,,4,,,61,0
436960,note_off,0,0,4,,,,,,,,,4,,,49,0
436960,note_on,0,0,4,,,,,,,,,4,,,49,28
436960,note_on,0,0,4,,,,,,,,,4,,,61,28
436960,note_on,0,0,4,,,,,,,,,4,,,56,28
436960,note_on,0,0,4,,,,,,,,,4,,,68,28
436960,note_off,160,0,4,,,,,,,,,4,,,68,0
437120,note_off,0,0,4,,,,,,,,,4,,,61,0
437120,note_off,0,0,4,,,,,,,,,4,,,49,0
437120,note_on,0,0,4,,,,,,,,,4,,,68,29
437120,note_on,0,0,4,,,,,,,,,4,,,61,29
437120,note_off,160,0,4,,,,,,,,,4,,,68,0
437120,note_on,0,0,4,,,,,,,,,4,,,49,29
437120,note_off,0,0,4,,,,,,,,,4,,,56,0
437120,note_on,0,0,4,,,,,,,,,4,,,56,29
437280,note_on,0,0,1,,,,,,,,,0,,,75,52
437280,note_off,160,0,4,,,,,,,,,4,,,68,0
437280,note_off,0,0,4,,,,,,,,,4,,,56,0
437280,note_on,0,0,4,,,,,,,,,4,,,59,30
437280,note_off,0,0,4,,,,,,,,,4,,,49,0
437280,note_on,0,0,4,,,,,,,,,4,,,68,30
437280,note_off,960,0,1,,,,,,,,,0,,,76,0
437280,note_on,0,0,4,,,,,,,,,4,,,56,30
437280,note_off,0,0,4,,,,,,,,,4,,,61,0
437280,note_on,0,0,4,,,,,,,,,4,,,51,30
437440,note_on,0,0,4,,,,,,,,,4,,,59,31
437440,note_off,160,0,4,,,,,,,,,4,,,68,0
437440,note_off,0,0,4,,,,,,,,,4,,,56,0
437440,note_off,0,0,4,,,,,,,,,4,,,59,0
437440,note_off,0,0,4,,,,,,,,,4,,,51,0
437440,note_on,0,0,4,,,,,,,,,4,,,51,31
437440,note_on,0,0,4,,,,,,,,,4,,,56,31
437440,note_on,0,0,4,,,,,,,,,4,,,68,31
437600,note_off,0,0,4,,,,,,,,,4,,,51,0
437600,note_off,0,0,4,,,,,,,,,4,,,59,0
437600,note_off,0,0,4,,,,,,,,,4,,,56,0
437600,note_on,0,0,4,,,,,,,,,4,,,56,32
437600,note_off,160,0,4,,,,,,,,,4,,,68,0
437600,note_on,0,0,4,,,,,,,,,4,,,59,32
437600,note_on,0,0,4,,,,,,,,,4,,,51,32
437600,note_on,0,0,4,,,,,,,,,4,,,68,32
437700,set_tempo,1860,1,0,,,,,,2222222,,,,,,,
437760,note_off,0,0,4,,,,,,,,,4,,,51,0
437760,note_on,0,0,4,,,,,,,,,4,,,52,33
437760,note_on,0,0,4,,,,,,,,,4,,,68,33
437760,note_on,0,0,4,,,,,,,,,4,,,61,33
437760,note_off,0,0,4,,,,,,,,,4,,,68,0
437760,note_off,0,0,4,,,,,,,,,4,,,59,0
437760,set_tempo,60,1,0,,,,,,2068965,,,,,,,
437760,note_on,0,0,4,,,,,,,,,4,,,56,33
437760,note_off,160,0,4,,,,,,,,,4,,,56,0
437920,note_off,160,0,4,,,,,,,,,4,,,61,0
437920,note_off,0,0,4,,,,,,,,,4,,,56,0
437920,note_off,0,0,4,,,,,,,,,4,,,68,0
437920,note_off,0,0,4,,,,,,,,,4,,,52,0
437920,note_on,0,0,4,,,,,,,,,4,,,52,33
437920,note_on,0,0,4,,,,,,,,,4,,,68,33
437920,note_on,0,0,4,,,,,,,,,4,,,56,33
437920,note_on,0,0,4,,,,,,,,,4,,,61,33
438075,note_off,795,0,1,,,,,,,,,0,,,75,0
438080,note_on,5,0,1,,,,,,,,,0,,,73,55
438080,note_on,0,0,4,,,,,,,,,4,,,61,34
438080,note_on,0,0,4,,,,,,,,,4,,,56,34
438080,note_on,0,0,4,,,,,,,,,4,,,68,34
438080,note_on,0,0,4,,,,,,,,,4,,,52,34
438080,note_off,0,0,4,,,,,,,,,4,,,52,0
438080,note_off,0,0,4,,,,,,,,,4,,,68,0
438080,note_off,0,0,4,,,,,,,,,4,,,56,0
438080,note_off,160,0,4,,,,,,,,,4,,,61,0
438240,note_off,160,0,4,,,,,,,,,4,,,61,0
438240,note_off,0,0,4,,,,,,,,,4,,,56,0
438240,note_off,0,0,4,,,,,,,,,4,,,68,0
438240,note_off,0,0,4,,,,,,,,,4,,,52,0
438240,note_on,0,0,4,,,,,,,,,4,,,51,35
438240,note_on,0,0,4,,,,,,,,,4,,,59,35
438240,note_on,0,0,4,,,,,,,,,4,,,56,35
438400,note_on,0,0,4,,,,,,,,,4,,,51,36
438400,note_off,160,0,4,,,,,,,,,4,,,56,0
438400,note_off,0,0,4,,,,,,,,,4,,,51,0
438400,note_on,0,0,4,,,,,,,,,4,,,59,36
438400,note_on,0,0,4,,,,,,,,,4,,,56,36
438400,note_off,0,0,4,,,,,,,,,4,,,59,0
438560,note_on,0,0,4,,,,,,,,,4,,,56,37
438560,note_off,160,0,4,,,,,,,,,4,,,56,0
438560,note_off,0,0,4,,,,,,,,,4,,,59,0
438560,note_off,0,0,4,,,,,,,,,4,,,51,0
438560,note_on,0,0,4,,,,,,,,,4,,,51,37
438560,note_on,0,0,4,,,,,,,,,4,,,59,37
438560,note_on,480,0,1,,,,,,,,,0,,,71,57
438562,note_off,2,0,1,,,,,,,,,0,,,73,0
438720,note_on,0,0,4,,,,,,,,,4,,,49,38
438720,note_on,0,0,4,,,,,,,,,4,,,58,38
438720,note_off,0,0,4,,,,,,,,,4,,,59,0
438720,note_off,160,0,4,,,,,,,,,4,,,56,0
438720,note_on,0,0,4,,,,,,,,,4,,,52,38
438720,note_off,0,0,4,,,,,,,,,4,,,51,0
438880,note_off,160,0,4,,,,,,,,,4,,,58,0
438880,note_off,0,0,4,,,,,,,,,4,,,52,0
438880,note_off,0,0,4,,,,,,,,,4,,,49,0
438880,note_on,0,0,4,,,,,,,,,4,,,49,38
438880,note_on,0,0,4,,,,,,,,,4,,,52,38
438880,note_on,0,0,4,,,,,,,,,4,,,58,38
439035,note_off,473,0,1,,,,,,,,,0,,,71,0
439040,note_on,5,0,1,,,,,,,,,0,,,70,59
439040,note_on,0,0,4,,,,,,,,,4,,,52,39
439040,note_off,160,0,4,,,,,,,,,4,,,58,0
439040,note_off,0,0,4,,,,,,,,,4,,,52,0
439040,note_on,0,0,4,,,,,,,,,4,,,49,39
439040,note_on,0,0,4,,,,,,,,,4,,,58,39
439040,note_off,0,0,4,,,,,,,,,4,,,49,0
439200,note_off,0,0,4,,,,,,,,,4,,,52,0
439200,note_off,160,0,4,,,,,,,,,4,,,58,0
439200,note_off,0,0,4,,,,,,,,,4,,,49,0
439200,note_on,0,0,4,,,,,,,,,4,,,50,37
439200,note_on,0,0,4,,,,,,,,,4,,,53,37
439200,note_on,0,0,4,,,,,,,,,4,,,58,37
439360,note_off,0,0,4,,,,,,,,,4,,,53,0
439360,note_on,320,0,1,,,,,,,,,0,,,71,55
439360,note_on,0,0,4,,,,,,,,,4,,,59,36
439360,note_off,160,0,4,,,,,,,,,4,,,58,0
439360,note_on,0,0,4,,,,,,,,,4,,,53,36
439360,note_off,0,0,4,,,,,,,,,4,,,50,0
439360,note_on,0,0,4,,,,,,,,,4,,,50,36
439360,note_on,0,0,4,,,,,,,,,4,,,56,36
439372,note_off,12,0,1,,,,,,,,,0,,,70,0
439520,note_off,148,0,1,,,,,,,,,0,,,71,0
439520,note_on,0,0,1,,,,,,,,,0,,,68,52
439520,note_on,0,0,4,,,,,,,,,4,,,56,36
439520,note_on,0,0,4,,,,,,,,,4,,,59,36
439520,note_on,0,0,4,,,,,,,,,4,,,50,36
439520,note_on,0,0,4,,,,,,,,,4,,,53,36
439520,note_off,0,0,4,,,,,,,,,4,,,56,0
439520,note_off,0,0,4,,,,,,,,,4,,,53,0
439520,note_off,0,0,4,,,,,,,,,4,,,50,0
439520,note_off,160,0,4,,,,,,,,,4,,,59,0
439620,set_tempo,1860,1,0,,,,,,2222222,,,,,,,
439680,note_on,0,0,1,,,,,,,,,0,,,68,53
439680,note_off,160,0,4,,,,,,,,,4,,,56,0
439680,note_off,0,0,4,,,,,,,,,4,,,53,0
439680,note_off,0,0,4,,,,,,,,,4,,,59,0
439680,note_off,0,0,4,,,,,,,,,4,,,50,0
439680,note_on,0,0,4,,,,,,,,,4,,,51,34
439680,note_on,0,0,4,,,,,,,,,4,,,59,34
439680,note_on,0,0,4,,,,,,,,,4,,,56,34
439680,note_off,160,0,1,,,,,,,,,0,,,68,0
439680,set_tempo,60,1,0,,,,,,2068965,,,,,,,
439840,note_off,0,0,4,,,,,,,,,4,,,59,0
439840,note_on,0,0,4,,,,,,,,,4,,,59,34
439840,note_on,0,0,4,,,,,,,,,4,,,51,34
439840,note_off,0,0,4,,,,,,,,,4,,,51,0
439840,note_off,160,0,4,,,,,,,,,4,,,56,0
439840,note_on,0,0,4,,,,,,,,,4,,,56,34
440000,note_off,160,0,4,,,,,,,,,4,,,56,0
440000,note_off,0,0,4,,,,,,,,,4,,,51,0
440000,note_off,0,0,4,,,,,,,,,4,,,59,0
440000,note_on,0,0,4,,,,,,,,,4,,,51,35
440000,note_on,0,0,4,,,,,,,,,4,,,59,35
440000,note_on,0,0,4,,,,,,,,,4,,,56,35
440160,note_off,160,0,4,,,,,,,,,4,,,56,0
440160,note_off,0,0,4,,,,,,,,,4,,,59,0
440160,note_off,0,0,4,,,,,,,,,4,,,51,0
440160,note_on,0,0,4,,,,,,,,,4,,,51,35
440160,note_on,0,0,4,,,,,,,,,4,,,62,35
440160,note_on,0,0,4,,,,,,,,,4,,,59,35
440320,note_on,0,0,4,,,,,,,,,4,,,62,36
440320,note_on,0,0,4,,,,,,,,,4,,,59,36
440320,note_off,160,0,4,,,,,,,,,4,,,59,0
440320,note_off,0,0,4,,,,,,,,,4,,,62,0
440320,note_on,0,0,4,,,,,,,,,4,,,51,36
440320,note_off,0,0,4,,,,,,,,,4,,,51,0
440480,note_on,0,0,4,,,,,,,,,4,,,62,37
440480,note_on,0,0,4,,,,,,,,,4,,,51,37
440480,note_off,0,0,4,,,,,,,,,4,,,51,0
440480,note_on,0,0,4,,,,,,,,,4,,,59,37
440480,note_off,160,0,4,,,,,,,,,4,,,59,0
440480,note_off,0,0,4,,,,,,,,,4,,,62,0
440640,note_off,160,0,4,,,,,,,,,4,,,59,0
440640,note_on,0,0,4,,,,,,,,,4,,,58,37
440640,note_off,960,0,1,,,,,,,,,0,,,68,0
440640,note_on,0,0,1,,,,,,,,,0,,,67,53
440640,note_off,0,0,4,,,,,,,,,4,,,51,0
440640,note_on,0,0,4,,,,,,,,,4,,,63,37
440640,note_off,0,0,4,,,,,,,,,4,,,62,0
440640,note_on,0,0,4,,,,,,,,,4,,,51,37
440800,note_off,160,0,4,,,,,,,,,4,,,58,0
440800,note_on,0,0,4,,,,,,,,,4,,,51,39
440800,note_off,0,0,4,,,,,,,,,4,,,51,0
440800,note_off,0,0,4,,,,,,,,,4,,,63,0
440960,note_on,0,0,4,,,,,,,,,4,,,51,38
440960,note_off,160,0,4,,,,,,,,,4,,,51,0
441120,note_off,160,0,4,,,,,,,,,4,,,51,0
441120,note_on,0,0,4,,,,,,,,,4,,,51,36
441120,note_off,480,0,1,,,,,,,,,0,,,67,0
441120,note_on,0,0,1,,,,,,,,,0,,,63,47
441280,note_off,160,0,4,,,,,,,,,4,,,51,0
441280,note_on,0,0,4,,,,,,,,,4,,,51,35
441440,note_on,0,0,4,,,,,,,,,4,,,49,34
441440,note_on,0,0,4,,,,,,,,,4,,,51,34
441440,note_off,160,0,4,,,,,,,,,4,,,51,0
441540,set_tempo,1860,1,0,,,,,,2222222,,,,,,,
441600,note_on,0,0,4,,,,,,,,,4,,,47,32
441600,note_off,0,0,4,,,,,,,,,4,,,49,0
441600,note_off,160,0,4,,,,,,,,,4,,,51,0
441600,note_on,0,0,1,,,,,,,,,0,,,68,48
441600,note_on,0,0,4,,,,,,,,,4,,,51,32
441600,set_tempo,60,1,0,,,,,,2068965,,,,,,,
441600,note_off,480,0,1,,,,,,,,,0,,,63,0
441760,note_on,32800,0,2,,,,,,,,,1,,,62,38
441760,note_off,0,0,4,,,,,,,,,4,,,47,0
441760,note_off,160,0,4,,,,,,,,,4,,,51,0
441760,note_on,0,0,4,,,,,,,,,4,,,51,32
441760,note_on,0,0,4,,,,,,,,,4,,,47,32
441920,note_off,160,0,2,,,,,,,,,1,,,62,0
441920,note_on,0,0,4,,,,,,,,,4,,,51,34
441920,note_on,0,0,4,,,,,,,,,4,,,47,34
441920,note_off,160,0,4,,,,,,,,,4,,,51,0
441920,note_off,0,0,4,,,,,,,,,4,,,47,0
441920,note_on,0,0,2,,,,,,,,,1,,,62,40
442080,note_on,0,0,2,,,,,,,,,1,,,62,42
442080,note_off,160,0,2,,,,,,,,,1,,,62,0
442080,note_off,160,0,4,,,,,,,,,4,,,51,0
442080,note_off,0,0,4,,,,,,,,,4,,,47,0
442080,note_on,0,0,4,,,,,,,,,4,,,47,35
442080,note_on,0,0,4,,,,,,,,,4,,,51,35
442240,note_on,0,0,2,,,,,,,,,1,,,63,40
442240,note_off,160,0,2,,,,,,,,,1,,,62,0
442240,note_off,160,0,4,,,,,,,,,4,,,51,0
442240,note_off,0,0,4,,,,,,,,,4,,,47,0
442240,note_on,0,0,4,,,,,,,,,4,,,47,37
442240,note_on,0,0,4,,,,,,,,,4,,,51,37
442396,note_off,156,0,2,,,,,,,,,1,,,63,0
442400,note_off,160,0,4,,,,,,,,,4,,,51,0
442400,note_on,0,0,4,,,,,,,,,4,,,47,39
442400,note_on,4,0,2,,,,,,,,,1,,,63,43
442400,note_off,0,0,4,,,,,,,,,4,,,47,0
442400,note_on,0,0,4,,,,,,,,,4,,,51,39
442500,set_tempo,900,1,0,,,,,,2142857,,,,,,,
442560,note_off,0,0,4,,,,,,,,,4,,,47,0
442560,set_tempo,60,1,0,,,,,,2068965,,,,,,,
442560,note_on,0,0,4,,,,,,,,,4,,,46,40
442560,note_off,960,0,1,,,,,,,,,0,,,68,0
442560,note_on,0,0,2,,,,,,,,,1,,,64,47
442560,note_off,160,0,2,,,,,,,,,1,,,63,0
442560,note_off,160,0,4,,,,,,,,,4,,,51,0
442560,note_on,0,0,1,,,,,,,,,0,,,67,56
442560,note_on,0,0,4,,,,,,,,,4,,,51,40
442720,note_off,160,0,4,,,,,,,,,4,,,51,0
442720,note_off,0,0,4,,,,,,,,,4,,,46,0
442720,note_on,0,0,4,,,,,,,,,4,,,46,36
442720,note_on,0,0,4,,,,,,,,,4,,,51,36
442880,note_on,0,0,4,,,,,,,,,4,,,51,35
442880,note_on,0,0,4,,,,,,,,,4,,,46,35
442880,note_off,0,0,4,,,,,,,,,4,,,46,0
442880,note_off,160,0,4,,,,,,,,,4,,,51,0
443040,note_off,160,0,4,,,,,,,,,4,,,51,0
443040,note_on,0,0,4,,,,,,,,,4,,,51,34
443040,note_off,480,0,2,,,,,,,,,1,,,64,0
443040,note_on,0,0,2,,,,,,,,,1,,,63,34
443040,note_on,0,0,4,,,,,,,,,4,,,46,34
443040,note_off,0,0,4,,,,,,,,,4,,,46,0
443200,note_off,160,0,4,,,,,,,,,4,,,51,0
443200,note_on,0,0,4,,,,,,,,,4,,,46,33
443200,note_off,0,0,4,,,,,,,,,4,,,46,0
443200,note_on,0,0,4,,,,,,,,,4,,,51,33
443360,note_off,160,0,4,,,,,,,,,4,,,51,0
443360,note_off,0,0,4,,,,,,,,,4,,,46,0
443360,note_on,0,0,4,,,,,,,,,4,,,51,32
443360,note_on,0,0,4,,,,,,,,,4,,,46,32
443460,set_tempo,900,1,0,,,,,,2222222,,,,,,,
443520,note_off,160,0,4,,,,,,,,,4,,,51,0
443520,note_off,0,0,4,,,,,,,,,4,,,46,0
443520,note_on,0,0,4,,,,,,,,,4,,,44,35
443520,note_on,0,0,4,,,,,,,,,4,,,51,35
443520,set_tempo,60,1,0,,,,,,2068965,,,,,,,
443520,note_on,0,0,1,,,,,,,,,0,,,71,53
443520,note_off,960,0,1,,,,,,,,,0,,,67,0
443680,note_on,0,0,2,,,,,,,,,1,,,62,43
443680,note_off,160,0,4,,,,,,,,,4,,,51,0
443680,note_off,0,0,4,,,,,,,,,4,,,44,0
443680,note_on,0,0,4,,,,,,,,,4,,,44,37
443680,note_on,0,0,4,,,,,,,,,4,,,51,37
443680,note_off,640,0,2,,,,,,,,,1,,,63,0
443840,note_off,160,0,4,,,,,,,,,4,,,51,0
443840,note_on,0,0,4,,,,,,,,,4,,,51,39
443840,note_on,0,0,4,,,,,,,,,4,,,44,39
443840,note_off,0,0,4,,,,,,,,,4,,,44,0
443840,note_on,0,0,2,,,,,,,,,1,,,62,46
443840,note_off,160,0,2,,,,,,,,,1,,,62,0
444000,note_off,160,0,4,,,,,,,,,4,,,51,0
444000,note_off,0,0,4,,,,,,,,,4,,,44,0
444000,note_on,0,0,4,,,,,,,,,4,,,44,41
444000,note_on,0,0,4,,,,,,,,,4,,,51,41
444000,note_on,0,0,2,,,,,,,,,1,,,62,49
444000,note_off,160,0,2,,,,,,,,,1,,,62,0
444160,note_off,160,0,2,,,,,,,,,1,,,62,0
444160,note_on,0,0,2,,,,,,,,,1,,,63,45
444160,note_on,0,0,4,,,,,,,,,4,,,44,44
444160,note_on,0,0,4,,,,,,,,,4,,,51,44
444160,note_off,160,0,4,,,,,,,,,4,,,51,0
444160,note_off,0,0,4,,,,,,,,,4,,,44,0
444316,note_off,156,0,2,,,,,,,,,1,,,63,0
444320,note_on,0,0,4,,,,,,,,,4,,,44,46
444320,note_off,0,0,4,,,,,,,,,4,,,44,0
444320,note_off,160,0,4,,,,,,,,,4,,,51,0
444320,note_on,4,0,2,,,,,,,,,1,,,63,48
444320,note_on,0,0,4,,,,,,,,,4,,,51,46
444420,set_tempo,900,1,0,,,,,,2142857,,,,,,,
444480,note_on,0,0,4,,,,,,,,,4,,,51,47
444480,note_off,160,0,2,,,,,,,,,1,,,63,0
444480,note_off,0,0,4,,,,,,,,,4,,,44,0
444480,note_off,160,0,4,,,,,,,,,4,,,51,0
444480,note_on,0,0,4,,,,,,,,,4,,,43,47
444480,note_on,0,0,2,,,,,,,,,1,,,64,51
444480,note_off,960,0,1,,,,,,,,,0,,,71,0
444480,note_on,0,0,1,,,,,,,,,0,,,70,63
444480,set_tempo,60,1,0,,,,,,2068965,,,,,,,
444640,note_off,160,0,4,,,,,,,,,4,,,51,0
444640,note_on,0,0,4,,,,,,,,,4,,,43,45
444640,note_on,0,0,4,,,,,,,,,4,,,51,45
444640,note_off,0,0,4,,,,,,,,,4,,,43,0
444800,note_off,160,0,4,,,,,,,,,4,,,51,0
444800,note_off,0,0,4,,,,,,,,,4,,,43,0
444800,note_on,0,0,4,,,,,,,,,4,,,51,43
444800,note_on,0,0,2,,,,,,,,,1,,,63,45
444800,note_off,320,0,2,,,,,,,,,1,,,64,0
444800,note_on,0,0,4,,,,,,,,,4,,,43,43
444960,note_on,0,0,2,,,,,,,,,1,,,68,46
444960,note_off,480,0,1,,,,,,,,,0,,,70,0
444960,note_off,160,0,2,,,,,,,,,1,,,63,0
444960,note_on,0,0,1,,,,,,,,,0,,,72,59
444960,note_off,0,0,4,,,,,,,,,4,,,43,0
444960,note_on,0,0,4,,,,,,,,,4,,,42,42
444960,note_on,0,0,4,,,,,,,,,4,,,51,42
444960,note_off,160,0,4,,,,,,,,,4,,,51,0
445120,note_on,0,0,4,,,,,,,,,4,,,51,40
445120,note_on,0,0,4,,,,,,,,,4,,,42,40
445120,note_off,0,0,4,,,,,,,,,4,,,42,0
445120,note_off,160,0,4,,,,,,,,,4,,,51,0
445280,note_off,160,0,4,,,,,,,,,4,,,51,0
445280,note_off,320,0,2,,,,,,,,,1,,,68,0
445280,note_on,0,0,2,,,,,,,,,1,,,63,38
445280,note_off,0,0,4,,,,,,,,,4,,,42,0
445280,note_on,0,0,4,,,,,,,,,4,,,54,38
445280,note_on,0,0,4,,,,,,,,,4,,,56,38
445380,set_tempo,900,1,0,,,,,,2222222,,,,,,,
445440,note_on,0,0,4,,,,,,,,,4,,,56,38
445440,note_off,160,0,4,,,,,,,,,4,,,56,0
445440,note_on,0,0,4,,,,,,,,,4,,,52,38
445440,note_off,480,0,1,,,,,,,,,0,,,72,0
445440,note_on,0,0,1,,,,,,,,,0,,,73,57
445440,note_off,0,0,4,,,,,,,,,4,,,54,0
445440,note_on,0,0,2,,,,,,,,,1,,,68,40
445440,note_off,160,0,2,,,,,,,,,1,,,63,0
445440,set_tempo,60,1,0,,,,,,2068965,,,,,,,
445600,note_on,0,0,4,,,,,,,,,4,,,61,39
445600,note_on,0,0,4,,,,,,,,,4,,,52,39
445600,note_off,0,0,4,,,,,,,,,4,,,52,0
445600,note_off,160,0,4,,,,,,,,,4,,,56,0
445600,note_on,0,0,2,,,,,,,,,1,,,68,42
445600,note_off,160,0,2,,,,,,,,,1,,,68,0
445600,note_on,0,0,4,,,,,,,,,4,,,56,39
445760,note_on,0,0,4,,,,,,,,,4,,,61,40
445760,note_on,0,0,4,,,,,,,,,4,,,56,40
445760,note_off,0,0,4,,,,,,,,,4,,,52,0
445760,note_on,0,0,2,,,,,,,,,1,,,68,44
445760,note_off,0,0,4,,,,,,,,,4,,,61,0
445760,note_off,160,0,4,,,,,,,,,4,,,56,0
445760,note_on,0,0,4,,,,,,,,,4,,,52,40
445760,note_off,160,0,2,,,,,,,,,1,,,68,0
445920,note_off,160,0,4,,,,,,,,,4,,,61,0
445920,note_off,0,0,4,,,,,,,,,4,,,56,0
445920,note_off,0,0,4,,,,,,,,,4,,,52,0
445920,note_on,0,0,4,,,,,,,,,4,,,52,41
445920,note_on,0,0,4,,,,,,,,,4,,,56,41
445920,note_on,0,0,4,,,,,,,,,4,,,61,41
445920,note_on,0,0,2,,,,,,,,,1,,,68,45
445920,note_off,160,0,2,,,,,,,,,1,,,68,0
446080,note_on,0,0,4,,,,,,,,,4,,,56,42
446080,note_on,0,0,4,,,,,,,,,4,,,60,42
446080,note_on,0,0,4,,,,,,,,,4,,,51,42
446080,note_off,0,0,4,,,,,,,,,4,,,52,0
446080,note_off,0,0,4,,,,,,,,,4,,,56,0
446080,note_off,160,0,4,,,,,,,,,4,,,61,0
446080,note_on,640,0,1,,,,,,,,,0,,,75,61
446080,note_off,160,0,2,,,,,,,,,1,,,68,0
446080,note_on,0,0,2,,,,,,,,,1,,,68,47
446100,note_off,20,0,1,,,,,,,,,0,,,73,0
446240,note_on,0,0,4,,,,,,,,,4,,,56,43
446240,note_off,0,0,4,,,,,,,,,4,,,51,0
446240,note_off,0,0,4,,,,,,,,,4,,,60,0
446240,note_off,160,0,4,,,,,,,,,4,,,56,0
446240,note_on,0,0,2,,,,,,,,,1,,,68,49
446240,note_on,0,0,4,,,,,,,,,4,,,49,43
446240,note_off,140,0,1,,,,,,,,,0,,,75,0
446240,note_on,0,0,1,,,,,,,,,0,,,76,63
446240,note_off,160,0,2,,,,,,,,,1,,,68,0
446240,note_on,0,0,4,,,,,,,,,4,,,61,43
446400,note_off,160,0,1,,,,,,,,,0,,,76,0
446400,note_on,0,0,1,,,,,,,,,0,,,76,66
446400,note_on,0,0,4,,,,,,,,,4,,,56,44
446400,note_on,0,0,4,,,,,,,,,4,,,59,44
446400,note_on,0,0,4,,,,,,,,,4,,,51,44
446400,note_off,0,0,4,,,,,,,,,4,,,49,0
446400,note_off,0,0,4,,,,,,,,,4,,,61,0
446400,note_off,160,0,4,,,,,,,,,4,,,56,0
446400,note_off,160,0,2,,,,,,,,,1,,,68,0
446560,note_off,160,0,4,,,,,,,,,4,,,56,0
446560,note_off,0,0,4,,,,,,,,,4,,,59,0
446560,note_off,0,0,4,,,,,,,,,4,,,51,0
446560,note_on,0,0,4,,,,,,,,,4,,,51,44
446560,note_on,0,0,4,,,,,,,,,4,,,59,44
446560,note_on,0,0,4,,,,,,,,,4,,,56,44
446720,note_off,0,0,4,,,,,,,,,4,,,59,0
446720,note_on,320,0,1,,,,,,,,,0,,,75,62
446720,note_on,0,0,4,,,,,,,,,4,,,59,42
446720,note_on,0,0,4,,,,,,,,,4,,,56,42
446720,note_on,0,0,4,,,,,,,,,4,,,51,42
446720,note_off,160,0,4,,,,,,,,,4,,,56,0
446720,note_off,0,0,4,,,,,,,,,4,,,51,0
446722,note_off,2,0,1,,,,,,,,,0,,,76,0
446880,note_off,160,0,4,,,,,,,,,4,,,59,0
446880,note_off,0,0,4,,,,,,,,,4,,,56,0
446880,note_off,0,0,4,,,,,,,,,4,,,51,0
446880,note_on,0,0,4,,,,,,,,,4,,,51,39
446880,note_on,0,0,4,,,,,,,,,4,,,55,39
446880,note_on,0,0,4,,,,,,,,,4,,,58,39
446880,note_on,0,0,4,,,,,,,,,4,,,61,39
447040,note_on,0,0,4,,,,,,,,,4,,,51,37
447040,note_on,0,0,4,,,,,,,,,4,,,55,37
447040,note_on,0,0,4,,,,,,,,,4,,,58,37
447040,note_off,0,0,4,,,,,,,,,4,,,51,0
447040,note_off,0,0,4,,,,,,,,,4,,,55,0
447040,note_on,0,0,4,,,,,,,,,4,,,61,37
447040,note_off,160,0,4,,,,,,,,,4,,,61,0
447040,note_off,0,0,4,,,,,,,,,4,,,58,0
447200,note_on,478,0,1,,,,,,,,,0,,,67,54
447200,note_on,0,0,4,,,,,,,,,4,,,55,35
447200,note_on,0,0,4,,,,,,,,,4,,,58,35
447200,note_on,0,0,4,,,,,,,,,4,,,51,35
447200,note_off,0,0,4,,,,,,,,,4,,,51,0
447200,note_on,0,0,4,,,,,,,,,4,,,61,35
447200,note_off,0,0,4,,,,,,,,,4,,,61,0
447200,note_off,160,0,4,,,,,,,,,4,,,58,0
447200,note_off,0,0,4,,,,,,,,,4,,,55,0
447202,note_off,2,0,1,,,,,,,,,0,,,75,0
447300,set_tempo,1860,1,0,,,,,,2222222,,,,,,,
447360,note_off,158,0,1,,,,,,,,,0,,,67,0
447360,set_tempo,60,1,0,,,,,,2068965,,,,,,,
447360,note_on,0,0,4,,,,,,,,,4,,,55,37
447360,note_on,0,0,4,,,,,,,,,4,,,58,37
447360,note_on,0,0,4,,,,,,,,,4,,,61,37
447360,note_off,0,0,4,,,,,,,,,4,,,51,0
447360,note_off,0,0,4,,,,,,,,,4,,,58,0
447360,note_off,0,0,4,,,,,,,,,4,,,55,0
447360,note_off,160,0,4,,,,,,,,,4,,,61,0
447360,note_on,0,0,1,,,,,,,,,0,,,70,57
447360,note_on,0,0,4,,,,,,,,,4,,,52,37
447520,note_on,0,0,4,,,,,,,,,4,,,55,35
447520,note_on,0,0,4,,,,,,,,,4,,,61,35
447520,note_on,0,0,4,,,,,,,,,4,,,52,35
447520,note_off,160,0,4,,,,,,,,,4,,,55,0
447520,note_off,0,0,4,,,,,,,,,4,,,52,0
447520,note_off,0,0,4,,,,,,,,,4,,,58,0
447520,note_off,0,0,4,,,,,,,,,4,,,61,0
447520,note_on,0,0,4,,,,,,,,,4,,,58,35
447680,note_off,160,0,4,,,,,,,,,4,,,55,0
447680,note_off,0,0,4,,,,,,,,,4,,,61,0
447680,note_off,0,0,4,,,,,,,,,4,,,58,0
447680,note_off,0,0,4,,,,,,,,,4,,,52,0
447680,note_on,0,0,4,,,,,,,,,4,,,52,33
447680,note_on,0,0,4,,,,,,,,,4,,,61,33
447680,note_on,0,0,4,,,,,,,,,4,,,55,33
447680,note_on,0,0,4,,,,,,,,,4,,,58,33
447840,note_on,0,0,4,,,,,,,,,4,,,58,31
447840,note_on,0,0,4,,,,,,,,,4,,,61,31
447840,note_on,0,0,4,,,,,,,,,4,,,55,31
447840,note_off,0,0,4,,,,,,,,,4,,,61,0
447840,note_on,0,0,4,,,,,,,,,4,,,51,31
447840,note_off,0,0,4,,,,,,,,,4,,,52,0
447840,note_off,0,0,4,,,,,,,,,4,,,55,0
447840,note_on,0,0,4,,,,,,,,,4,,,63,31
447840,note_off,160,0,4,,,,,,,,,4,,,58,0
448000,note_on,0,0,4,,,,,,,,,4,,,58,28
448000,note_on,0,0,4,,,,,,,,,4,,,61,28
448000,note_on,0,0,4,,,,,,,,,4,,,63,28
448000,note_off,0,0,4,,,,,,,,,4,,,63,0
448000,note_on,0,0,4,,,,,,,,,4,,,51,28
448000,note_off,0,0,4,,,,,,,,,4,,,51,0
448000,note_off,0,0,4,,,,,,,,,4,,,55,0
448000,note_off,160,0,4,,,,,,,,,4,,,58,0
448000,note_on,0,0,4,,,,,,,,,4,,,55,28
448000,note_off,0,0,4,,,,,,,,,4,,,61,0
448160,note_on,0,0,4,,,,,,,,,4,,,61,26
448160,note_on,0,0,4,,,,,,,,,4,,,63,26
448160,note_on,0,0,4,,,,,,,,,4,,,55,26
448160,note_on,0,0,4,,,,,,,,,4,,,58,26
448160,note_off,0,0,4,,,,,,,,,4,,,51,0
448160,note_on,0,0,4,,,,,,,,,4,,,51,26
448160,note_off,160,0,4,,,,,,,,,4,,,61,0
448160,note_off,0,0,4,,,,,,,,,4,,,58,0
448160,note_off,0,0,4,,,,,,,,,4,,,55,0
448160,note_off,0,0,4,,,,,,,,,4,,,63,0
448260,set_tempo,900,1,0,,,,,,2222222,,,,,,,
448320,note_off,0,0,4,,,,,,,,,4,,,63,0
448320,note_off,0,0,4,,,,,,,,,4,,,58,0
448320,note_off,0,0,4,,,,,,,,,4,,,55,0
448320,note_off,0,0,4,,,,,,,,,4,,,51,0
448320,note_on,0,0,4,,,,,,,,,4,,,56,24
448320,note_on,0,0,4,,,,,,,,,4,,,59,24
448320,note_on,0,0,4,,,,,,,,,4,,,63,24
448320,note_on,0,0,1,,,,,,,,,0,,,68,46
448320,note_off,960,0,1,,,,,,,,,0,,,70,0
448320,note_off,160,0,4,,,,,,,,,4,,,61,0
448800,note_off,480,0,1,,,,,,,,,0,,,68,0
448800,note_on,0,0,4,,,,,,,,,4,,,35,36
448800,note_on,0,0,4,,,,,,,,,4,,,47,36
448800,note_off,0,0,4,,,,,,,,,4,,,56,0
448800,note_off,480,0,4,,,,,,,,,4,,,63,0
448800,note_on,0,0,1,,,,,,,,,0,,,59,40
448800,note_off,0,0,4,,,,,,,,,4,,,59,0
448810,set_tempo,550,1,0,,,,,,2068965,,,,,,,
449220,set_tempo,410,1,0,,,,,,2222222,,,,,,,
449280,note_on,0,0,1,,,,,,,,,0,,,58,45
449280,note_off,480,0,1,,,,,,,,,0,,,59,0
449280,note_on,0,0,4,,,,,,,,,4,,,46,41
449280,note_on,0,0,4,,,,,,,,,4,,,34,41
449280,note_off,0,0,4,,,,,,,,,4,,,35,0
449280,note_off,480,0,4,,,,,,,,,4,,,47,0
449280,set_tempo,60,1,0,,,,,,2068965,,,,,,,
449760,note_on,0,0,4,,,,,,,,,4,,,51,37
449760,note_on,0,0,4,,,,,,,,,4,,,39,37
449760,note_off,0,0,4,,,,,,,,,4,,,34,0
449760,note_on,0,0,1,,,,,,,,,0,,,63,38
449760,note_off,480,0,1,,,,,,,,,0,,,58,0
449760,note_off,480,0,4,,,,,,,,,4,,,46,0
450240,note_on,0,0,1,,,,,,,,,0,,,56,32
450240,note_off,480,0,1,,,,,,,,,0,,,63,0
450240,note_on,0,0,4,,,,,,,,,4,,,32,33
450240,note_off,480,0,4,,,,,,,,,4,,,51,0
450240,note_off,0,0,4,,,,,,,,,4,,,39,0
450240,note_on,0,0,4,,,,,,,,,4,,,44,33
450560,note_off,0,0,4,,,,,,,,,4,,,32,0
450560,note_off,320,0,1,,,,,,,,,0,,,56,0
450560,note_off,320,0,4,,,,,,,,,4,,,44,0
450720,note_on,160,0,4,,,,,,,,,4,,,32,28
450720,note_on,0,0,4,,,,,,,,,4,,,44,28
450720,note_on,160,0,1,,,,,,,,,0,,,56,29
450880,note_off,160,0,4,,,,,,,,,4,,,44,0
450880,note_off,160,0,1,,,,,,,,,0,,,56,0
450880,note_off,0,0,4,,,,,,,,,4,,,32,0
451080,set_tempo,1800,1,0,,,,,,2400000,,,,,,,
451200,note_on,320,0,1,,,,,,,,,0,,,56,27
451200,set_tempo,120,1,0,,,,,,1071428,,,,,,,
451200,note_on,320,0,4,,,,,,,,,4,,,32,26
452640,note_off,1440,0,1,,,,,,,,,0,,,56,0
452640,note_off,1440,0,4,,,,,,,,,4,,,32,0
453120,time_signature,1920,1,0,6,8,24,8,,,,,,,,,
453120,set_tempo,0,1,0,,,,,,408163,,,,,,,
453120,marker,0,1,0,,,,,,,,,,,,,
453840,note_on,1200,0,4,,,,,,,,,4,,,56,44
454560,note_on,0,0,4,,,,,,,,,4,,,61,45
454560,note_off,720,0,4,,,,,,,,,4,,,56,0
455280,note_off,720,0,4,,,,,,,,,4,,,61,0
455280,note_on,0,0,4,,,,,,,,,4,,,58,47
456000,note_on,720,0,4,,,,,,,,,4,,,63,48
456032,note_off,32,0,4,,,,,,,,,4,,,58,0
456720,note_on,0,0,4,,,,,,,,,4,,,60,50
456720,note_off,688,0,4,,,,,,,,,4,,,63,0
457440,note_on,0,0,4,,,,,,,,,4,,,65,51
457440,note_off,720,0,4,,,,,,,,,4,,,60,0
458160,note_on,0,0,4,,,,,,,,,4,,,63,46
458160,note_off,720,0,4,,,,,,,,,4,,,65,0
458640,note_off,480,0,4,,,,,,,,,4,,,63,0
458640,note_on,0,0,4,,,,,,,,,4,,,61,43
458880,note_on,240,0,4,,,,,,,,,4,,,60,41
458912,note_off,32,0,4,,,,,,,,,4,,,61,0
459480,set_tempo,6360,1,0,,,,,,413793,,,,,,,
459600,set_tempo,120,1,0,,,,,,408163,,,,,,,
459600,note_on,13200,0,2,,,,,,,,,1,,,63,54
459792,note_off,880,0,4,,,,,,,,,4,,,60,0
459840,note_on,48,0,4,,,,,,,,,4,,,56,44
460032,note_off,192,0,4,,,,,,,,,4,,,56,0
460080,note_on,48,0,4,,,,,,,,,4,,,55,44
460272,note_off,192,0,4,,,,,,,,,4,,,55,0
460320,note_on,0,0,2,,,,,,,,,1,,,68,55
460320,note_off,720,0,2,,,,,,,,,1,,,63,0
460320,note_on,48,0,4,,,,,,,,,4,,,53,44
460512,note_off,192,0,4,,,,,,,,,4,,,53,0
460560,note_on,48,0,4,,,,,,,,,4,,,55,44
460752,note_off,192,0,4,,,,,,,,,4,,,55,0
460800,note_on,48,0,4,,,,,,,,,4,,,51,45
460992,note_off,192,0,4,,,,,,,,,4,,,51,0
461040,note_on,48,0,4,,,,,,,,,4,,,50,45
461040,note_on,0,0,2,,,,,,,,,1,,,65,56
461040,note_off,720,0,2,,,,,,,,,1,,,68,0
461280,note_off,240,0,4,,,,,,,,,4,,,50,0
461280,note_on,0,0,4,,,,,,,,,4,,,51,45
461520,note_off,240,0,4,,,,,,,,,4,,,51,0
461520,note_on,0,0,4,,,,,,,,,4,,,53,45
461760,note_on,0,0,4,,,,,,,,,4,,,55,45
461760,note_on,0,0,2,,,,,,,,,1,,,70,57
461760,note_off,720,0,2,,,,,,,,,1,,,65,0
461760,note_off,240,0,4,,,,,,,,,4,,,53,0
462000,note_off,240,0,4,,,,,,,,,4,,,55,0
462000,note_on,0,0,4,,,,,,,,,4,,,56,46
462240,note_off,240,0,4,,,,,,,,,4,,,56,0
462240,note_on,0,0,4,,,,,,,,,4,,,53,46
462480,note_on,0,0,4,,,,,,,,,4,,,52,46
462480,note_off,240,0,4,,,,,,,,,4,,,53,0
462480,note_on,0,0,2,,,,,,,,,1,,,67,59
462480,note_off,720,0,2,,,,,,,,,1,,,70,0
462720,note_on,0,0,4,,,,,,,,,4,,,53,46
462720,note_off,240,0,4,,,,,,,,,4,,,52,0
462960,note_off,240,0,4,,,,,,,,,4,,,53,0
462960,note_on,0,0,4,,,,,,,,,4,,,55,46
463200,note_on,0,0,2,,,,,,,,,1,,,72,60
463200,note_off,240,0,4,,,,,,,,,4,,,55,0
463200,note_on,0,0,4,,,,,,,,,4,,,56,47
463200,note_off,720,0,2,,,,,,,,,1,,,67,0
463440,note_off,240,0,4,,,,,,,,,4,,,56,0
463440,note_on,0,0,4,,,,,,,,,4,,,55,47
463680,note_on,0,0,4,,,,,,,,,4,,,56,47
463680,note_off,240,0,4,,,,,,,,,4,,,55,0
463920,note_off,240,0,4,,,,,,,,,4,,,56,0
463920,note_off,720,0,2,,,,,,,,,1,,,72,0
463920,note_on,0,0,4,,,,,,,,,4,,,58,47
463920,note_on,0,0,2,,,,,,,,,1,,,70,57
464160,note_off,240,0,4,,,,,,,,,4,,,58,0
464160,note_on,0,0,4,,,,,,,,,4,,,60,47
464400,note_off,240,0,4,,,,,,,,,4,,,60,0
464400,note_on,0,0,4,,,,,,,,,4,,,62,48
464400,note_off,480,0,2,,,,,,,,,1,,,70,0
464400,note_on,0,0,2,,,,,,,,,1,,,68,54
464640,note_on,0,0,4,,,,,,,,,4,,,63,48
464640,note_off,240,0,4,,,,,,,,,4,,,62,0
464640,note_off,240,0,2,,,,,,,,,1,,,68,0
464640,note_on,0,0,2,,,,,,,,,1,,,67,52
464880,note_on,0,0,4,,,,,,,,,4,,,65,48
464880,note_off,240,0,4,,,,,,,,,4,,,63,0
465120,note_on,0,0,4,,,,,,,,,4,,,62,48
465120,note_off,240,0,4,,,,,,,,,4,,,65,0
465360,note_off,720,0,2,,,,,,,,,1,,,67,0
465360,note_on,0,0,4,,,,,,,,,4,,,63,48
465360,note_off,240,0,4,,,,,,,,,4,,,62,0
465360,note_on,0,0,2,,,,,,,,,1,,,70,52
465600,note_off,240,0,4,,,,,,,,,4,,,63,0
465600,note_on,0,0,4,,,,,,,,,4,,,65,49
465840,note_on,0,0,4,,,,,,,,,4,,,61,49
465840,note_off,240,0,4,,,,,,,,,4,,,65,0
466080,note_off,240,0,4,,,,,,,,,4,,,61,0
466080,note_on,0,0,4,,,,,,,,,4,,,60,49
466320,note_on,0,0,4,,,,,,,,,4,,,63,49
466320,note_off,240,0,4,,,,,,,,,4,,,60,0
466560,note_off,240,0,4,,,,,,,,,4,,,63,0
466560,note_on,0,0,4,,,,,,,,,4,,,61,49
466800,note_on,0,0,2,,,,,,,,,1,,,68,53
466800,note_off,240,0,4,,,,,,,,,4,,,61,0
466800,note_on,0,0,4,,,,,,,,,4,,,60,50
466800,note_off,1440,0,2,,,,,,,,,1,,,70,0
467040,note_on,0,0,4,,,,,,,,,4,,,61,50
467040,note_off,240,0,4,,,,,,,,,4,,,60,0
467280,note_on,0,0,2,,,,,,,,,1,,,66,53
467280,note_off,240,0,4,,,,,,,,,4,,,61,0
467280,note_on,0,0,4,,,,,,,,,4,,,63,50
467280,note_off,480,0,2,,,,,,,,,1,,,68,0
467520,note_on,0,0,2,,,,,,,,,1,,,65,54
467520,note_off,240,0,2,,,,,,,,,1,,,66,0
467760,note_off,480,0,4,,,,,,,,,4,,,63,0
467760,note_on,0,0,4,,,,,,,,,4,,,60,50
468000,note_off,240,0,4,,,,,,,,,4,,,60,0
468000,note_on,0,0,4,,,,,,,,,4,,,61,51
468120,set_tempo,8520,1,0,,,,,,413793,,,,,,,
468240,note_on,15600,0,1,,,,,,,,,0,,,68,64
468240,set_tempo,120,1,0,,,,,,408163,,,,,,,
468480,note_on,0,0,2,,,,,,,,,1,,,62,54
468480,note_off,960,0,2,,,,,,,,,1,,,65,0
468480,note_on,0,0,4,,,,,,,,,4,,,59,51
468480,note_off,480,0,4,,,,,,,,,4,,,61,0
468720,note_on,0,0,2,,,,,,,,,1,,,63,54
468720,note_on,0,0,4,,,,,,,,,4,,,60,51
468720,note_off,240,0,4,,,,,,,,,4,,,59,0
468720,note_off,240,0,2,,,,,,,,,1,,,62,0
468960,note_on,0,0,1,,,,,,,,,0,,,73,65
468960,note_off,720,0,1,,,,,,,,,0,,,68,0
468960,note_on,0,0,2,,,,,,,,,1,,,65,55
468960,note_off,240,0,2,,,,,,,,,1,,,63,0
469200,note_on,0,0,4,,,,,,,,,4,,,58,52
469200,note_off,480,0,4,,,,,,,,,4,,,60,0
469200,note_on,0,0,2,,,,,,,,,1,,,70,55
469200,note_off,240,0,2,,,,,,,,,1,,,65,0
469440,note_on,0,0,2,,,,,,,,,1,,,68,55
469440,note_off,240,0,2,,,,,,,,,1,,,70,0
469440,note_off,240,0,4,,,,,,,,,4,,,58,0
469440,note_on,0,0,4,,,,,,,,,4,,,61,52
469680,note_off,720,0,1,,,,,,,,,0,,,73,0
469680,note_on,0,0,4,,,,,,,,,4,,,63,52
469680,note_off,240,0,4,,,,,,,,,4,,,61,0
469680,note_on,0,0,1,,,,,,,,,0,,,70,66
469920,note_off,480,0,2,,,,,,,,,1,,,68,0
469920,note_on,0,0,2,,,,,,,,,1,,,65,55
470160,note_off,480,0,4,,,,,,,,,4,,,63,0
470160,note_off,240,0,2,,,,,,,,,1,,,65,0
470160,note_on,0,0,4,,,,,,,,,4,,,61,52
470160,note_on,0,0,2,,,,,,,,,1,,,67,56
470400,note_off,240,0,4,,,,,,,,,4,,,61,0
470400,note_on,0,0,2,,,,,,,,,1,,,67,56
470400,note_off,240,0,2,,,,,,,,,1,,,67,0
470400,note_on,0,0,4,,,,,,,,,4,,,60,53
470400,note_on,0,0,1,,,,,,,,,0,,,75,68
470400,note_off,720,0,1,,,,,,,,,0,,,70,0
470640,note_off,240,0,2,,,,,,,,,1,,,67,0
470640,note_on,0,0,2,,,,,,,,,1,,,72,56
470880,note_off,240,0,2,,,,,,,,,1,,,72,0
470880,note_on,0,0,2,,,,,,,,,1,,,70,56
470880,note_on,0,0,4,,,,,,,,,4,,,48,53
470880,note_off,480,0,4,,,,,,,,,4,,,60,0
471120,note_on,0,0,4,,,,,,,,,4,,,53,53
471120,note_off,240,0,4,,,,,,,,,4,,,48,0
471120,note_on,0,0,1,,,,,,,,,0,,,72,69
471120,note_off,720,0,1,,,,,,,,,0,,,75,0
471360,note_on,0,0,2,,,,,,,,,1,,,67,56
471360,note_off,480,0,2,,,,,,,,,1,,,70,0
471600,note_off,480,0,4,,,,,,,,,4,,,53,0
471600,note_on,0,0,2,,,,,,,,,1,,,69,57
471600,note_off,240,0,2,,,,,,,,,1,,,67,0
471600,note_on,0,0,4,,,,,,,,,4,,,51,54
471840,note_on,0,0,4,,,,,,,,,4,,,48,54
471840,note_off,720,0,1,,,,,,,,,0,,,72,0
471840,note_on,0,0,1,,,,,,,,,0,,,77,70
471840,note_off,240,0,4,,,,,,,,,4,,,51,0
472080,note_on,0,0,2,,,,,,,,,1,,,70,57
472080,note_off,480,0,2,,,,,,,,,1,,,69,0
472320,note_off,480,0,4,,,,,,,,,4,,,48,0
472320,note_on,0,0,4,,,,,,,,,4,,,50,54
472320,note_on,0,0,2,,,,,,,,,1,,,68,57
472320,note_off,240,0,2,,,,,,,,,1,,,70,0
472560,note_off,240,0,4,,,,,,,,,4,,,50,0
472560,note_on,0,0,4,,,,,,,,,4,,,51,54
472560,note_on,0,0,2,,,,,,,,,1,,,67,57
472560,note_off,240,0,2,,,,,,,,,1,,,68,0
472560,note_off,720,0,1,,,,,,,,,0,,,77,0
472560,note_on,0,0,1,,,,,,,,,0,,,75,65
472800,note_on,0,0,4,,,,,,,,,4,,,53,55
472800,note_off,240,0,4,,,,,,,,,4,,,51,0
472800,note_on,0,0,2,,,,,,,,,1,,,68,58
472800,note_off,240,0,2,,,,,,,,,1,,,67,0
473040,note_on,0,0,2,,,,,,,,,1,,,70,58
473040,note_on,0,0,4,,,,,,,,,4,,,55,55
473040,note_off,240,0,4,,,,,,,,,4,,,53,0
473040,note_off,240,0,2,,,,,,,,,1,,,68,0
473040,note_off,480,0,1,,,,,,,,,0,,,75,0
473040,note_on,0,0,1,,,,,,,,,0,,,73,61
473280,note_off,240,0,1,,,,,,,,,0,,,73,0
473280,note_off,240,0,4,,,,,,,,,4,,,55,0
473280,note_off,240,0,2,,,,,,,,,1,,,70,0
473280,note_on,0,0,2,,,,,,,,,1,,,63,58
473280,note_on,0,0,1,,,,,,,,,0,,,72,59
473280,note_on,0,0,4,,,,,,,,,4,,,56,55
473520,note_off,240,0,4,,,,,,,,,4,,,56,0
473520,note_on,0,0,4,,,,,,,,,4,,,60,55
473760,note_on,0,0,4,,,,,,,,,4,,,58,55
473760,note_off,480,0,2,,,,,,,,,1,,,63,0
473760,note_off,240,0,4,,,,,,,,,4,,,60,0
474000,note_off,240,0,4,,,,,,,,,4,,,58,0
474000,note_on,0,0,4,,,,,,,,,4,,,56,56
474000,note_off,720,0,1,,,,,,,,,0,,,72,0
474000,note_on,0,0,1,,,,,,,,,0,,,75,60
474000,note_on,240,0,2,,,,,,,,,1,,,72,59
474240,note_off,240,0,4,,,,,,,,,4,,,56,0
474240,note_on,0,0,2,,,,,,,,,1,,,73,59
474240,note_off,240,0,2,,,,,,,,,1,,,72,0
474240,note_on,0,0,4,,,,,,,,,4,,,58,56
474480,note_off,240,0,4,,,,,,,,,4,,,58,0
474480,note_on,0,0,4,,,,,,,,,4,,,55,56
474480,note_on,0,0,2,,,,,,,,,1,,,70,59
474480,note_off,240,0,2,,,,,,,,,1,,,73,0
474720,note_off,240,0,2,,,,,,,,,1,,,70,0
474720,note_on,0,0,2,,,,,,,,,1,,,68,59
474720,note_off,240,0,4,,,,,,,,,4,,,55,0
474720,note_on,0,0,4,,,,,,,,,4,,,53,56
474960,note_on,0,0,2,,,,,,,,,1,,,72,59
474960,note_off,240,0,2,,,,,,,,,1,,,68,0
474960,note_on,0,0,4,,,,,,,,,4,,,56,56
474960,note_off,240,0,4,,,,,,,,,4,,,53,0
475200,note_off,240,0,2,,,,,,,,,1,,,72,0
475200,note_on,0,0,4,,,,,,,,,4,,,55,57
475200,note_on,0,0,2,,,,,,,,,1,,,70,59
475200,note_off,240,0,4,,,,,,,,,4,,,56,0
475440,note_on,0,0,2,,,,,,,,,1,,,68,60
475440,note_off,240,0,2,,,,,,,,,1,,,70,0
475440,note_off,240,0,4,,,,,,,,,4,,,55,0
475440,note_on,0,0,4,,,,,,,,,4,,,53,57
475440,note_off,1440,0,1,,,,,,,,,0,,,75,0
475440,note_on,0,0,1,,,,,,,,,0,,,73,62
475680,note_off,240,0,2,,,,,,,,,1,,,68,0
475680,note_off,240,0,4,,,,,,,,,4,,,53,0
475680,note_on,0,0,4,,,,,,,,,4,,,52,57
475680,note_on,0,0,2,,,,,,,,,1,,,67,60
475920,note_off,240,0,4,,,,,,,,,4,,,52,0
475920,note_on,0,0,4,,,,,,,,,4,,,53,57
475920,note_on,0,0,1,,,,,,,,,0,,,72,62
475920,note_on,0,0,2,,,,,,,,,1,,,68,60
475920,note_off,240,0,2,,,,,,,,,1,,,67,0
475920,note_off,480,0,1,,,,,,,,,0,,,73,0
476160,note_on,0,0,4,,,,,,,,,4,,,55,57
476160,note_off,240,0,4,,,,,,,,,4,,,53,0
476160,note_off,240,0,1,,,,,,,,,0,,,72,0
476160,note_on,0,0,2,,,,,,,,,1,,,64,60
476160,note_off,240,0,2,,,,,,,,,1,,,68,0
476160,note_on,0,0,1,,,,,,,,,0,,,70,62
476400,note_on,0,0,2,,,,,,,,,1,,,67,60
476400,note_off,240,0,2,,,,,,,,,1,,,64,0
476400,note_off,240,0,4,,,,,,,,,4,,,55,0
476400,note_on,0,0,4,,,,,,,,,4,,,58,58
476640,note_on,0,0,2,,,,,,,,,1,,,65,61
476640,note_off,240,0,4,,,,,,,,,4,,,58,0
476640,note_on,0,0,4,,,,,,,,,4,,,56,58
476640,note_off,240,0,2,,,,,,,,,1,,,67,0
476880,note_off,240,0,4,,,,,,,,,4,,,56,0
476880,note_on,0,0,1,,,,,,,,,0,,,73,63
476880,note_on,0,0,2,,,,,,,,,1,,,70,61
476880,note_off,240,0,2,,,,,,,,,1,,,65,0
476880,note_off,720,0,1,,,,,,,,,0,,,70,0
476880,note_on,0,0,4,,,,,,,,,4,,,55,58
477120,note_on,0,0,2,,,,,,,,,1,,,72,61
477120,note_off,240,0,2,,,,,,,,,1,,,70,0
477120,note_off,240,0,4,,,,,,,,,4,,,55,0
477120,note_on,0,0,4,,,,,,,,,4,,,56,58
477360,note_on,0,0,2,,,,,,,,,1,,,68,61
477360,note_off,240,0,2,,,,,,,,,1,,,72,0
477360,note_off,240,0,4,,,,,,,,,4,,,56,0
477360,note_on,0,0,4,,,,,,,,,4,,,53,58
477600,note_off,240,0,4,,,,,,,,,4,,,53,0
477600,note_on,0,0,4,,,,,,,,,4,,,52,59
477600,note_off,240,0,2,,,,,,,,,1,,,68,0
477600,note_on,0,0,2,,,,,,,,,1,,,67,61
477840,note_on,0,0,4,,,,,,,,,4,,,55,59
477840,note_off,240,0,4,,,,,,,,,4,,,52,0
477840,note_off,240,0,2,,,,,,,,,1,,,67,0
477840,note_on,0,0,2,,,,,,,,,1,,,70,61
478080,note_on,0,0,4,,,,,,,,,4,,,53,59
478080,note_off,240,0,4,,,,,,,,,4,,,55,0
478080,note_off,240,0,2,,,,,,,,,1,,,70,0
478080,note_on,0,0,2,,,,,,,,,1,,,68,62
478320,note_on,0,0,4,,,,,,,,,4,,,52,59
478320,note_off,1440,0,1,,,,,,,,,0,,,73,0
478320,note_on,0,0,1,,,,,,,,,0,,,72,65
478320,note_off,240,0,2,,,,,,,,,1,,,68,0
478320,note_on,0,0,2,,,,,,,,,1,,,67,62
478320,note_off,240,0,4,,,,,,,,,4,,,53,0
478560,note_on,0,0,4,,,,,,,,,4,,,50,59
478560,note_off,240,0,4,,,,,,,,,4,,,52,0
478560,note_off,240,0,2,,,,,,,,,1,,,67,0
478560,note_on,0,0,2,,,,,,,,,1,,,65,62
478800,note_on,0,0,2,,,,,,,,,1,,,67,62
478800,note_on,0,0,4,,,,,,,,,4,,,52,60
478800,note_off,240,0,4,,,,,,,,,4,,,50,0
478800,note_on,0,0,1,,,,,,,,,0,,,70,66
478800,note_off,480,0,1,,,,,,,,,0,,,72,0
478800,note_off,240,0,2,,,,,,,,,1,,,65,0
479040,note_on,0,0,4,,,,,,,,,4,,,53,60
479040,note_off,240,0,4,,,,,,,,,4,,,52,0
479040,note_on,0,0,1,,,,,,,,,0,,,68,66
479040,note_off,240,0,1,,,,,,,,,0,,,70,0
479280,note_off,240,0,4,,,,,,,,,4,,,53,0
479280,note_on,0,0,2,,,,,,,,,1,,,60,63
479280,note_on,0,0,4,,,,,,,,,4,,,51,60
479280,note_off,480,0,2,,,,,,,,,1,,,67,0
479520,note_off,480,0,1,,,,,,,,,0,,,68,0
479520,note_on,0,0,2,,,,,,,,,1,,,65,63
479520,note_off,240,0,2,,,,,,,,,1,,,60,0
479520,note_on,0,0,1,,,,,,,,,0,,,70,66
479520,note_on,0,0,4,,,,,,,,,4,,,50,60
479520,note_off,240,0,4,,,,,,,,,4,,,51,0
479760,note_on,0,0,1,,,,,,,,,0,,,67,67
479760,note_off,240,0,1,,,,,,,,,0,,,70,0
479760,note_off,240,0,4,,,,,,,,,4,,,50,0
479760,note_on,0,0,4,,,,,,,,,4,,,51,60
480000,note_off,240,0,4,,,,,,,,,4,,,51,0
480000,note_on,0,0,2,,,,,,,,,1,,,63,63
480000,note_on,0,0,4,,,,,,,,,4,,,48,61
480000,note_off,480,0,2,,,,,,,,,1,,,65,0
480240,note_off,240,0,4,,,,,,,,,4,,,48,0
480240,note_off,240,0,2,,,,,,,,,1,,,63,0
480240,note_on,0,0,2,,,,,,,,,1,,,65,63
480240,note_off,480,0,1,,,,,,,,,0,,,67,0
480240,note_on,0,0,1,,,,,,,,,0,,,68,67
480240,note_on,0,0,4,,,,,,,,,4,,,44,61
480480,note_off,240,0,4,,,,,,,,,4,,,44,0
480480,note_on,0,0,1,,,,,,,,,0,,,65,63
480480,note_on,0,0,4,,,,,,,,,4,,,45,61
480480,note_off,240,0,2,,,,,,,,,1,,,65,0
480480,note_on,0,0,2,,,,,,,,,1,,,63,63
480480,note_off,240,0,1,,,,,,,,,0,,,68,0
480540,note_off,60,0,1,,,,,,,,,0,,,65,0
480540,note_on,0,0,1,,,,,,,,,0,,,67,62
480600,note_off,60,0,1,,,,,,,,,0,,,67,0
480600,note_on,0,0,1,,,,,,,,,0,,,65,62
480660,note_off,60,0,1,,,,,,,,,0,,,65,0
480660,note_on,0,0,1,,,,,,,,,0,,,67,61
480720,note_off,60,0,1,,,,,,,,,0,,,67,0
480720,note_on,0,0,2,,,,,,,,,1,,,62,64
480720,note_off,240,0,2,,,,,,,,,1,,,63,0
480720,note_on,0,0,4,,,,,,,,,4,,,46,61
480720,note_off,240,0,4,,,,,,,,,4,,,45,0
480720,note_on,0,0,1,,,,,,,,,0,,,65,61
480780,note_on,0,0,1,,,,,,,,,0,,,67,60
480780,note_off,60,0,1,,,,,,,,,0,,,65,0
480840,note_on,0,0,1,,,,,,,,,0,,,65,60
480840,note_off,60,0,1,,,,,,,,,0,,,67,0
480960,note_on,0,0,1,,,,,,,,,0,,,63,59
480960,note_off,120,0,1,,,,,,,,,0,,,65,0
480960,note_off,240,0,2,,,,,,,,,1,,,62,0
480960,note_on,0,0,2,,,,,,,,,1,,,56,64
481080,set_tempo,12840,1,0,,,,,,413793,,,,,,,
481080,note_on,0,0,1,,,,,,,,,0,,,65,58
481080,note_off,120,0,1,,,,,,,,,0,,,63,0
481200,set_tempo,120,1,0,,,,,,402684,,,,,,,
481200,note_off,240,0,2,,,,,,,,,1,,,56,0
481200,note_on,0,0,2,,,,,,,,,1,,,55,64
481200,note_on,0,0,4,,,,,,,,,4,,,51,70
481200,note_on,0,0,4,,,,,,,,,4,,,39,70
481200,note_off,480,0,4,,,,,,,,,4,,,46,0
481440,note_on,0,0,1,,,,,,,,,0,,,63,62
481440,note_off,360,0,1,,,,,,,,,0,,,65,0
481680,note_off,240,0,1,,,,,,,,,0,,,63,0
481680,note_on,0,0,1,,,,,,,,,0,,,61,63
481920,note_off,0,0,4,,,,,,,,,4,,,39,0
481920,note_on,0,0,4,,,,,,,,,4,,,44,71
481920,note_on,0,0,4,,,,,,,,,4,,,56,71
481920,note_off,240,0,1,,,,,,,,,0,,,61,0
481920,note_on,0,0,1,,,,,,,,,0,,,60,63
481920,note_off,720,0,2,,,,,,,,,1,,,55,0
481920,note_off,720,0,4,,,,,,,,,4,,,51,0
482160,note_off,240,0,1,,,,,,,,,0,,,60,0
482160,note_on,0,0,1,,,,,,,,,0,,,70,63
482160,note_on,240,0,2,,,,,,,,,1,,,61,65
482400,note_on,0,0,1,,,,,,,,,0,,,67,64
482400,note_off,240,0,2,,,,,,,,,1,,,61,0
482400,note_on,0,0,2,,,,,,,,,1,,,58,65
482400,note_off,240,0,1,,,,,,,,,0,,,70,0
482640,note_off,240,0,2,,,,,,,,,1,,,58,0
482640,note_on,0,0,2,,,,,,,,,1,,,56,65
482640,note_off,240,0,1,,,,,,,,,0,,,67,0
482640,note_on,0,0,1,,,,,,,,,0,,,68,64
482640,note_off,720,0,4,,,,,,,,,4,,,56,0
482640,note_off,0,0,4,,,,,,,,,4,,,44,0
482640,note_on,0,0,4,,,,,,,,,4,,,53,72
482640,note_on,0,0,4,,,,,,,,,4,,,41,72
482880,note_off,240,0,2,,,,,,,,,1,,,56,0
482880,note_on,0,0,2,,,,,,,,,1,,,58,65
483120,note_off,240,0,2,,,,,,,,,1,,,58,0
483120,note_on,0,0,2,,,,,,,,,1,,,60,66
483360,note_on,0,0,4,,,,,,,,,4,,,46,74
483360,note_on,0,0,4,,,,,,,,,4,,,58,74
483360,note_off,240,0,2,,,,,,,,,1,,,60,0
483360,note_off,720,0,4,,,,,,,,,4,,,53,0
483360,note_off,0,0,4,,,,,,,,,4,,,41,0
483360,note_on,0,0,2,,,,,,,,,1,,,61,66
483360,note_on,0,0,1,,,,,,,,,0,,,67,65
483360,note_off,720,0,1,,,,,,,,,0,,,68,0
483600,note_on,0,0,2,,,,,,,,,1,,,63,66
483600,note_off,240,0,2,,,,,,,,,1,,,61,0
483840,note_on,0,0,2,,,,,,,,,1,,,60,66
483840,note_off,240,0,2,,,,,,,,,1,,,63,0
484080,note_on,0,0,1,,,,,,,,,0,,,70,66
484080,note_on,0,0,4,,,,,,,,,4,,,43,75
484080,note_on,0,0,4,,,,,,,,,4,,,55,75
484080,note_off,0,0,4,,,,,,,,,4,,,46,0
484080,note_off,720,0,4,,,,,,,,,4,,,58,0
484080,note_off,720,0,1,,,,,,,,,0,,,67,0
484080,note_off,240,0,2,,,,,,,,,1,,,60,0
484080,note_on,0,0,2,,,,,,,,,1,,,58,66
484320,note_on,0,0,2,,,,,,,,,1,,,60,66
484320,note_off,240,0,2,,,,,,,,,1,,,58,0
484560,note_on,0,0,2,,,,,,,,,1,,,61,67
484560,note_off,240,0,2,,,,,,,,,1,,,60,0
484800,note_on,0,0,4,,,,,,,,,4,,,60,76
484800,note_on,0,0,2,,,,,,,,,1,,,63,67
484800,note_off,720,0,4,,,,,,,,,4,,,43,0
484800,note_off,0,0,4,,,,,,,,,4,,,55,0
484800,note_on,0,0,4,,,,,,,,,4,,,48,76
484800,note_off,240,0,2,,,,,,,,,1,,,61,0
485040,note_off,960,0,1,,,,,,,,,0,,,70,0
485040,note_on,0,0,2,,,,,,,,,1,,,63,67
485040,note_off,240,0,2,,,,,,,,,1,,,63,0
485040,note_on,0,0,1,,,,,,,,,0,,,67,67
485280,note_off,240,0,1,,,,,,,,,0,,,67,0
485280,note_on,0,0,1,,,,,,,,,0,,,68,68
485520,note_on,0,0,2,,,,,,,,,1,,,62,67
485520,note_off,720,0,4,,,,,,,,,4,,,60,0
485520,note_off,0,0,4,,,,,,,,,4,,,48,0
485520,note_on,0,0,4,,,,,,,,,4,,,46,71
485520,note_off,480,0,2,,,,,,,,,1,,,63,0
485520,note_on,0,0,4,,,,,,,,,4,,,58,71
485760,note_on,0,0,1,,,,,,,,,0,,,70,68
485760,note_off,480,0,1,,,,,,,,,0,,,68,0
486000,note_off,480,0,4,,,,,,,,,4,,,58,0
486000,note_on,0,0,4,,,,,,,,,4,,,56,69
486000,note_on,0,0,4,,,,,,,,,4,,,44,69
486000,note_off,0,0,4,,,,,,,,,4,,,46,0
486000,note_off,240,0,1,,,,,,,,,0,,,70,0
486000,note_on,0,0,1,,,,,,,,,0,,,72,69
486240,note_on,0,0,4,,,,,,,,,4,,,55,67
486240,note_off,0,0,4,,,,,,,,,4,,,44,0
486240,note_off,240,0,4,,,,,,,,,4,,,56,0
486240,note_on,0,0,2,,,,,,,,,1,,,63,73
486240,note_off,720,0,2,,,,,,,,,1,,,62,0
486240,note_on,0,0,4,,,,,,,,,4,,,43,67
486480,note_on,0,0,1,,,,,,,,,0,,,69,69
486480,note_off,480,0,1,,,,,,,,,0,,,72,0
486720,note_off,240,0,1,,,,,,,,,0,,,69,0
486720,note_on,0,0,1,,,,,,,,,0,,,70,67
486960,note_off,240,0,1,,,,,,,,,0,,,70,0
486960,note_on,0,0,4,,,,,,,,,4,,,46,69
486960,note_off,720,0,4,,,,,,,,,4,,,43,0
486960,note_off,0,0,4,,,,,,,,,4,,,55,0
486960,note_on,0,0,1,,,,,,,,,0,,,63,67
486960,note_on,0,0,4,,,,,,,,,4,,,58,69
486960,note_off,720,0,2,,,,,,,,,1,,,63,0
486960,note_on,0,0,2,,,,,,,,,1,,,61,71
487200,note_off,240,0,1,,,,,,,,,0,,,63,0
487200,note_on,0,0,1,,,,,,,,,0,,,65,67
487440,note_off,240,0,1,,,,,,,,,0,,,65,0
487440,note_on,0,0,1,,,,,,,,,0,,,67,67
487680,note_on,0,0,1,,,,,,,,,0,,,68,66
487680,note_off,240,0,1,,,,,,,,,0,,,67,0
487920,note_off,240,0,1,,,,,,,,,0,,,68,0
487920,note_on,0,0,1,,,,,,,,,0,,,65,66
488160,note_off,240,0,1,,,,,,,,,0,,,65,0
488160,note_on,0,0,1,,,,,,,,,0,,,67,66
488400,note_off,0,0,4,,,,,,,,,4,,,46,0
488400,note_on,0,0,2,,,,,,,,,1,,,60,70
488400,note_off,1440,0,2,,,,,,,,,1,,,61,0
488400,note_on,0,0,4,,,,,,,,,4,,,44,68
488400,note_on,0,0,4,,,,,,,,,4,,,56,68
488400,note_off,1440,0,4,,,,,,,,,4,,,58,0
488640,note_off,480,0,1,,,,,,,,,0,,,67,0
488640,note_on,0,0,1,,,,,,,,,0,,,68,65
488880,note_off,480,0,4,,,,,,,,,4,,,56,0
488880,note_off,0,0,4,,,,,,,,,4,,,44,0
488880,note_on,0,0,4,,,,,,,,,4,,,42,67
488880,note_on,0,0,4,,,,,,,,,4,,,54,67
488880,note_off,240,0,1,,,,,,,,,0,,,68,0
488880,note_on,0,0,1,,,,,,,,,0,,,70,65
489120,note_off,240,0,4,,,,,,,,,4,,,54,0
489120,note_off,0,0,4,,,,,,,,,4,,,42,0
489120,note_on,0,0,4,,,,,,,,,4,,,53,67
489120,note_on,0,0,4,,,,,,,,,4,,,41,67
489120,note_off,720,0,2,,,,,,,,,1,,,60,0
489120,note_on,0,0,2,,,,,,,,,1,,,61,69
489360,note_off,480,0,1,,,,,,,,,0,,,70,0
489360,note_on,0,0,1,,,,,,,,,0,,,67,64
489600,note_on,0,0,1,,,,,,,,,0,,,68,64
489600,note_off,240,0,1,,,,,,,,,0,,,67,0
489840,note_on,0,0,2,,,,,,,,,1,,,62,68
489840,note_off,720,0,2,,,,,,,,,1,,,61,0
490080,note_off,960,0,4,,,,,,,,,4,,,41,0
490080,note_on,0,0,4,,,,,,,,,4,,,54,66
490080,note_off,0,0,4,,,,,,,,,4,,,53,0
490080,note_on,0,0,1,,,,,,,,,0,,,70,64
490080,note_off,480,0,1,,,,,,,,,0,,,68,0
490320,note_on,0,0,4,,,,,,,,,4,,,53,65
490320,note_off,240,0,1,,,,,,,,,0,,,70,0
490320,note_on,0,0,1,,,,,,,,,0,,,68,63
490320,note_off,240,0,4,,,,,,,,,4,,,54,0
490560,note_on,0,0,1,,,,,,,,,0,,,68,63
490560,note_on,0,0,2,,,,,,,,,1,,,63,68
490560,note_off,720,0,2,,,,,,,,,1,,,62,0
490560,note_off,240,0,1,,,,,,,,,0,,,68,0
490800,note_off,480,0,4,,,,,,,,,4,,,53,0
490800,note_on,0,0,4,,,,,,,,,4,,,50,65
490800,note_on,0,0,1,,,,,,,,,0,,,65,63
490800,note_off,240,0,1,,,,,,,,,0,,,68,0
491040,note_off,240,0,1,,,,,,,,,0,,,65,0
491040,note_on,0,0,1,,,,,,,,,0,,,66,63
491040,note_off,240,0,4,,,,,,,,,4,,,50,0
491040,note_on,0,0,4,,,,,,,,,4,,,51,64
491280,note_off,720,0,2,,,,,,,,,1,,,63,0
491280,note_on,0,0,2,,,,,,,,,1,,,58,67
491520,note_on,0,0,4,,,,,,,,,4,,,53,64
491520,note_off,480,0,4,,,,,,,,,4,,,51,0
491520,note_on,0,0,1,,,,,,,,,0,,,68,62
491520,note_off,480,0,1,,,,,,,,,0,,,66,0
491760,note_off,240,0,1,,,,,,,,,0,,,68,0
491760,note_off,480,0,2,,,,,,,,,1,,,58,0
491760,note_on,0,0,2,,,,,,,,,1,,,60,66
491760,note_on,0,0,4,,,,,,,,,4,,,51,63
491760,note_off,240,0,4,,,,,,,,,4,,,53,0
491760,note_on,0,0,1,,,,,,,,,0,,,66,62
492000,note_on,0,0,1,,,,,,,,,0,,,66,62
492000,note_on,0,0,2,,,,,,,,,1,,,61,66
492000,note_off,240,0,2,,,,,,,,,1,,,60,0
492000,note_off,240,0,1,,,,,,,,,0,,,66,0
492240,note_on,0,0,1,,,,,,,,,0,,,64,61
492240,note_off,240,0,2,,,,,,,,,1,,,61,0
492240,note_off,480,0,4,,,,,,,,,4,,,51,0
492240,note_on,0,0,4,,,,,,,,,4,,,48,63
492240,note_off,240,0,1,,,,,,,,,0,,,66,0
492480,note_on,0,0,1,,,,,,,,,0,,,65,61
492480,note_off,240,0,1,,,,,,,,,0,,,64,0
492480,note_off,240,0,4,,,,,,,,,4,,,48,0
492480,note_on,0,0,4,,,,,,,,,4,,,49,62
492600,set_tempo,11400,1,0,,,,,,408163,,,,,,,
492720,set_tempo,120,1,0,,,,,,402684,,,,,,,
492720,note_on,480,0,2,,,,,,,,,1,,,56,72
492960,note_on,0,0,4,,,,,,,,,4,,,47,62
492960,note_off,480,0,4,,,,,,,,,4,,,49,0
492960,note_on,0,0,1,,,,,,,,,0,,,62,60
492960,note_off,480,0,1,,,,,,,,,0,,,65,0
493200,note_on,0,0,1,,,,,,,,,0,,,63,60
493200,note_on,0,0,4,,,,,,,,,4,,,48,61
493200,note_off,240,0,4,,,,,,,,,4,,,47,0
493200,note_off,240,0,1,,,,,,,,,0,,,62,0
493440,note_on,0,0,1,,,,,,,,,0,,,67,60
493440,note_off,240,0,1,,,,,,,,,0,,,63,0
493440,note_on,0,0,4,,,,,,,,,4,,,46,61
493440,note_off,240,0,4,,,,,,,,,4,,,48,0
493440,note_off,720,0,2,,,,,,,,,1,,,56,0
493440,note_on,0,0,2,,,,,,,,,1,,,61,73
493680,note_on,0,0,1,,,,,,,,,0,,,68,60
493680,note_off,240,0,4,,,,,,,,,4,,,46,0
493680,note_on,0,0,4,,,,,,,,,4,,,48,61
493680,note_off,240,0,1,,,,,,,,,0,,,67,0
493920,note_off,240,0,4,,,,,,,,,4,,,48,0
493920,note_off,240,0,1,,,,,,,,,0,,,68,0
493920,note_on,0,0,1,,,,,,,,,0,,,65,59
493920,note_on,0,0,4,,,,,,,,,4,,,44,60
494160,note_off,720,0,2,,,,,,,,,1,,,61,0
494160,note_on,0,0,2,,,,,,,,,1,,,58,74
494160,note_off,240,0,1,,,,,,,,,0,,,65,0
494160,note_on,0,0,1,,,,,,,,,0,,,63,59
494160,note_off,240,0,4,,,,,,,,,4,,,44,0
494160,note_on,0,0,4,,,,,,,,,4,,,43,60
494400,note_on,0,0,4,,,,,,,,,4,,,44,60
494400,note_on,0,0,1,,,,,,,,,0,,,65,59
494400,note_off,240,0,1,,,,,,,,,0,,,63,0
494400,note_off,240,0,4,,,,,,,,,4,,,43,0
494640,note_off,240,0,4,,,,,,,,,4,,,44,0
494640,note_on,0,0,4,,,,,,,,,4,,,46,59
494640,note_on,0,0,1,,,,,,,,,0,,,67,59
494640,note_off,240,0,1,,,,,,,,,0,,,65,0
494880,note_off,240,0,4,,,,,,,,,4,,,46,0
494880,note_on,0,0,2,,,,,,,,,1,,,63,75
494880,note_off,720,0,2,,,,,,,,,1,,,58,0
494880,note_on,0,0,4,,,,,,,,,4,,,48,59
494880,note_on,0,0,1,,,,,,,,,0,,,68,58
494880,note_off,240,0,1,,,,,,,,,0,,,67,0
495120,note_on,0,0,1,,,,,,,,,0,,,70,58
495120,note_on,0,0,4,,,,,,,,,4,,,49,59
495120,note_off,240,0,4,,,,,,,,,4,,,48,0
495120,note_off,240,0,1,,,,,,,,,0,,,68,0
495360,note_off,240,0,1,,,,,,,,,0,,,70,0
495360,note_off,240,0,4,,,,,,,,,4,,,49,0
495360,note_on,0,0,4,,,,,,,,,4,,,46,58
495360,note_on,0,0,1,,,,,,,,,0,,,66,58
495600,note_off,240,0,4,,,,,,,,,4,,,46,0
495600,note_on,0,0,4,,,,,,,,,4,,,45,58
495600,note_off,240,0,1,,,,,,,,,0,,,66,0
495600,note_on,0,0,1,,,,,,,,,0,,,65,58
495600,note_off,720,0,2,,,,,,,,,1,,,63,0
495600,note_on,0,0,2,,,,,,,,,1,,,60,76
495840,note_on,0,0,1,,,,,,,,,0,,,67,57
495840,note_off,240,0,1,,,,,,,,,0,,,65,0
495840,note_off,240,0,4,,,,,,,,,4,,,45,0
495840,note_on,0,0,4,,,,,,,,,4,,,46,58
496080,note_off,240,0,1,,,,,,,,,0,,,67,0
496080,note_off,240,0,4,,,,,,,,,4,,,46,0
496080,note_on,0,0,4,,,,,,,,,4,,,48,57
496080,note_on,0,0,1,,,,,,,,,0,,,69,57
496320,note_off,720,0,2,,,,,,,,,1,,,60,0
496320,note_on,0,0,2,,,,,,,,,1,,,65,77
496320,note_off,240,0,4,,,,,,,,,4,,,48,0
496320,note_on,0,0,4,,,,,,,,,4,,,49,57
496320,note_off,240,0,1,,,,,,,,,0,,,69,0
496320,note_on,0,0,1,,,,,,,,,0,,,70,57
496560,note_on,0,0,4,,,,,,,,,4,,,48,57
496560,note_off,240,0,4,,,,,,,,,4,,,49,0
496800,note_off,480,0,1,,,,,,,,,0,,,70,0
496800,note_on,0,0,1,,,,,,,,,0,,,68,56
496800,note_on,0,0,4,,,,,,,,,4,,,50,56
496800,note_off,240,0,4,,,,,,,,,4,,,48,0
497040,note_off,240,0,1,,,,,,,,,0,,,68,0
497040,note_on,0,0,1,,,,,,,,,0,,,67,56
497040,note_off,720,0,2,,,,,,,,,1,,,65,0
497040,note_on,0,0,2,,,,,,,,,1,,,63,70
497040,note_off,240,0,4,,,,,,,,,4,,,50,0
497040,note_on,0,0,4,,,,,,,,,4,,,51,56
497280,note_on,0,0,1,,,,,,,,,0,,,68,56
497280,note_off,240,0,1,,,,,,,,,0,,,67,0
497280,note_off,240,0,4,,,,,,,,,4,,,51,0
497280,note_on,0,0,4,,,,,,,,,4,,,53,56
497520,note_on,0,0,1,,,,,,,,,0,,,70,55
497520,note_off,240,0,4,,,,,,,,,4,,,53,0
497520,note_on,0,0,2,,,,,,,,,1,,,61,66
497520,note_off,480,0,2,,,,,,,,,1,,,63,0
497520,note_off,240,0,1,,,,,,,,,0,,,68,0
497520,note_on,0,0,4,,,,,,,,,4,,,55,55
497760,note_off,240,0,4,,,,,,,,,4,,,55,0
497760,note_off,240,0,2,,,,,,,,,1,,,61,0
497760,note_on,0,0,2,,,,,,,,,1,,,60,64
497760,note_on,0,0,4,,,,,,,,,4,,,56,55
498000,note_off,240,0,4,,,,,,,,,4,,,56,0
498000,note_on,0,0,4,,,,,,,,,4,,,58,55
498240,note_on,0,0,4,,,,,,,,,4,,,55,55
498240,note_off,240,0,4,,,,,,,,,4,,,58,0
498480,note_off,960,0,1,,,,,,,,,0,,,70,0
498480,note_on,0,0,2,,,,,,,,,1,,,61,60
498480,note_off,240,0,4,,,,,,,,,4,,,55,0
498480,note_on,0,0,4,,,,,,,,,4,,,53,54
498480,note_off,720,0,2,,,,,,,,,1,,,60,0
498480,note_on,0,0,1,,,,,,,,,0,,,68,54
498720,note_off,240,0,4,,,,,,,,,4,,,53,0
498720,note_on,0,0,4,,,,,,,,,4,,,52,54
498960,note_on,0,0,2,,,,,,,,,1,,,60,59
498960,note_off,240,0,4,,,,,,,,,4,,,52,0
498960,note_on,0,0,4,,,,,,,,,4,,,53,54
498960,note_off,480,0,2,,,,,,,,,1,,,61,0
499200,note_on,0,0,4,,,,,,,,,4,,,55,53
499200,note_off,240,0,2,,,,,,,,,1,,,60,0
499200,note_off,240,0,4,,,,,,,,,4,,,53,0
499200,note_on,0,0,2,,,,,,,,,1,,,58,59
499440,note_off,240,0,4,,,,,,,,,4,,,55,0
499440,note_on,0,0,4,,,,,,,,,4,,,56,53
499680,note_off,240,0,4,,,,,,,,,4,,,56,0
499680,note_on,0,0,4,,,,,,,,,4,,,53,53
499920,note_off,240,0,4,,,,,,,,,4,,,53,0
499920,note_on,0,0,4,,,,,,,,,4,,,52,52
499920,note_on,0,0,1,,,,,,,,,0,,,67,53
499920,note_off,720,0,2,,,,,,,,,1,,,58,0
499920,note_off,1440,0,1,,,,,,,,,0,,,68,0
499920,note_on,0,0,2,,,,,,,,,1,,,60,58
500160,note_on,0,0,4,,,,,,,,,4,,,50,52
500160,note_off,240,0,4,,,,,,,,,4,,,52,0
500400,note_on,0,0,4,,,,,,,,,4,,,52,52
500400,note_off,240,0,4,,,,,,,,,4,,,50,0
500400,note_off,480,0,2,,,,,,,,,1,,,60,0
500400,note_on,0,0,2,,,,,,,,,1,,,58,58
500640,note_on,0,0,4,,,,,,,,,4,,,53,51
500640,note_off,240,0,4,,,,,,,,,4,,,52,0
500640,note_off,240,0,2,,,,,,,,,1,,,58,0
500640,note_on,0,0,2,,,,,,,,,1,,,56,58
500880,note_off,960,0,1,,,,,,,,,0,,,67,0
500880,note_on,0,0,1,,,,,,,,,0,,,68,52
501120,note_off,480,0,4,,,,,,,,,4,,,53,0
501120,note_on,0,0,4,,,,,,,,,4,,,51,51
501120,note_on,0,0,1,,,,,,,,,0,,,67,52
501120,note_off,240,0,1,,,,,,,,,0,,,68,0
501360,note_off,720,0,2,,,,,,,,,1,,,56,0
501360,note_on,0,0,2,,,,,,,,,1,,,58,57
501360,note_on,0,0,1,,,,,,,,,0,,,65,51
501360,note_on,0,0,4,,,,,,,,,4,,,49,50
501360,note_off,240,0,4,,,,,,,,,4,,,51,0
501360,note_off,240,0,1,,,,,,,,,0,,,67,0
501600,note_off,240,0,1,,,,,,,,,0,,,65,0
501600,note_on,0,0,1,,,,,,,,,0,,,64,51
501840,note_off,240,0,1,,,,,,,,,0,,,64,0
501840,note_off,480,0,4,,,,,,,,,4,,,49,0
501840,note_on,0,0,1,,,,,,,,,0,,,65,51
501840,note_on,0,0,4,,,,,,,,,4,,,48,50
501840,note_off,480,0,2,,,,,,,,,1,,,58,0
501840,note_on,0,0,2,,,,,,,,,1,,,56,56
502080,note_on,0,0,1,,,,,,,,,0,,,67,51
502080,note_off,240,0,1,,,,,,,,,0,,,65,0
502080,note_off,240,0,4,,,,,,,,,4,,,48,0
502080,note_off,240,0,2,,,,,,,,,1,,,56,0
502080,note_on,0,0,2,,,,,,,,,1,,,55,56
502080,note_on,0,0,4,,,,,,,,,4,,,46,49
502320,note_on,0,0,1,,,,,,,,,0,,,68,51
502320,note_off,240,0,1,,,,,,,,,0,,,67,0
502560,note_on,0,0,1,,,,,,,,,0,,,65,51
502560,note_on,0,0,4,,,,,,,,,4,,,47,49
502560,note_off,480,0,4,,,,,,,,,4,,,46,0
502560,note_off,240,0,1,,,,,,,,,0,,,68,0
502800,note_off,720,0,2,,,,,,,,,1,,,55,0
502800,note_on,0,0,2,,,,,,,,,1,,,56,55
502800,note_on,0,0,4,,,,,,,,,4,,,48,48
502800,note_off,240,0,4,,,,,,,,,4,,,47,0
503040,note_on,0,0,1,,,,,,,,,0,,,62,50
503040,note_off,480,0,1,,,,,,,,,0,,,65,0
503280,note_off,480,0,4,,,,,,,,,4,,,48,0
503280,note_on,0,0,4,,,,,,,,,4,,,46,48
503280,note_on,0,0,1,,,,,,,,,0,,,64,50
503280,note_off,240,0,1,,,,,,,,,0,,,62,0
503280,note_off,480,0,2,,,,,,,,,1,,,56,0
503280,note_on,0,0,2,,,,,,,,,1,,,55,55
503520,note_on,0,0,1,,,,,,,,,0,,,65,49
503520,note_off,240,0,1,,,,,,,,,0,,,64,0
503520,note_on,0,0,2,,,,,,,,,1,,,60,55
503520,note_off,240,0,2,,,,,,,,,1,,,55,0
503520,note_on,0,0,4,,,,,,,,,4,,,44,47
503520,note_off,240,0,4,,,,,,,,,4,,,46,0
503760,note_on,0,0,1,,,,,,,,,0,,,66,49
503760,note_off,240,0,1,,,,,,,,,0,,,65,0
504000,note_off,240,0,1,,,,,,,,,0,,,66,0
504000,note_on,0,0,1,,,,,,,,,0,,,63,49
504000,note_on,0,0,4,,,,,,,,,4,,,45,47
504000,note_off,480,0,4,,,,,,,,,4,,,44,0
504240,note_on,0,0,4,,,,,,,,,4,,,46,46
504240,note_off,240,0,4,,,,,,,,,4,,,45,0
504240,note_on,0,0,1,,,,,,,,,0,,,61,48
504240,note_off,720,0,2,,,,,,,,,1,,,60,0
504240,note_on,0,0,2,,,,,,,,,1,,,53,54
504240,note_off,240,0,1,,,,,,,,,0,,,63,0
504480,note_off,240,0,1,,,,,,,,,0,,,61,0
504480,note_on,0,0,1,,,,,,,,,0,,,60,48
504720,note_off,240,0,1,,,,,,,,,0,,,60,0
504720,note_on,0,0,4,,,,,,,,,4,,,44,44
504720,note_off,480,0,4,,,,,,,,,4,,,46,0
504720,note_on,0,0,1,,,,,,,,,0,,,61,48
504960,note_on,0,0,4,,,,,,,,,4,,,43,44
504960,note_off,240,0,4,,,,,,,,,4,,,44,0
504960,note_on,0,0,2,,,,,,,,,1,,,51,53
504960,note_off,720,0,2,,,,,,,,,1,,,53,0
505200,note_on,0,0,1,,,,,,,,,0,,,60,49
505200,note_off,480,0,1,,,,,,,,,0,,,61,0
505200,note_on,0,0,4,,,,,,,,,4,,,44,44
505200,note_off,240,0,4,,,,,,,,,4,,,43,0
505440,note_off,240,0,1,,,,,,,,,0,,,60,0
505440,note_on,0,0,4,,,,,,,,,4,,,43,45
505440,note_off,240,0,4,,,,,,,,,4,,,44,0
505440,note_on,0,0,1,,,,,,,,,0,,,63,52
505440,note_off,480,0,2,,,,,,,,,1,,,51,0
505440,note_on,0,0,2,,,,,,,,,1,,,58,52
505560,set_tempo,12840,1,0,,,,,,408163,,,,,,,
505680,note_off,240,0,4,,,,,,,,,4,,,43,0
505680,note_off,240,0,2,,,,,,,,,1,,,58,0
505680,set_tempo,120,1,0,,,,,,402684,,,,,,,
505680,note_on,0,0,2,,,,,,,,,1,,,56,52
505680,note_on,0,0,4,,,,,,,,,4,,,41,45
505680,note_on,0,0,1,,,,,,,,,0,,,63,56
505680,note_off,240,0,1,,,,,,,,,0,,,63,0
505920,note_on,0,0,4,,,,,,,,,4,,,39,45
505920,note_off,240,0,4,,,,,,,,,4,,,41,0
505920,note_off,240,0,2,,,,,,,,,1,,,56,0
505920,note_on,0,0,2,,,,,,,,,1,,,55,52
506160,note_on,0,0,4,,,,,,,,,4,,,37,46
506160,note_off,240,0,4,,,,,,,,,4,,,39,0
506160,note_off,240,0,2,,,,,,,,,1,,,55,0
506160,note_on,0,0,2,,,,,,,,,1,,,58,53
506400,note_on,0,0,1,,,,,,,,,0,,,68,57
506400,note_off,240,0,2,,,,,,,,,1,,,58,0
506400,note_off,240,0,4,,,,,,,,,4,,,37,0
506400,note_on,0,0,4,,,,,,,,,4,,,36,46
506400,note_off,720,0,1,,,,,,,,,0,,,63,0
506400,note_on,0,0,2,,,,,,,,,1,,,63,53
506640,note_off,240,0,2,,,,,,,,,1,,,63,0
506640,note_off,240,0,4,,,,,,,,,4,,,36,0
506640,note_on,0,0,4,,,,,,,,,4,,,37,46
506640,note_on,0,0,2,,,,,,,,,1,,,65,53
506880,note_off,240,0,2,,,,,,,,,1,,,65,0
506880,note_on,0,0,2,,,,,,,,,1,,,61,53
506880,note_off,240,0,4,,,,,,,,,4,,,37,0
506880,note_on,0,0,4,,,,,,,,,4,,,34,47
507120,note_off,240,0,4,,,,,,,,,4,,,34,0
507120,note_on,0,0,4,,,,,,,,,4,,,33,47
507120,note_off,720,0,1,,,,,,,,,0,,,68,0
507120,note_off,240,0,2,,,,,,,,,1,,,61,0
507120,note_on,0,0,2,,,,,,,,,1,,,60,54
507120,note_on,0,0,1,,,,,,,,,0,,,65,59
507360,note_off,240,0,2,,,,,,,,,1,,,60,0
507360,note_on,0,0,2,,,,,,,,,1,,,61,54
507360,note_on,0,0,4,,,,,,,,,4,,,34,47
507360,note_off,240,0,4,,,,,,,,,4,,,33,0
507600,note_off,240,0,4,,,,,,,,,4,,,34,0
507600,note_off,240,0,2,,,,,,,,,1,,,61,0
507600,note_on,0,0,2,,,,,,,,,1,,,63,54
507600,note_on,0,0,4,,,,,,,,,4,,,36,47
507840,note_on,0,0,2,,,,,,,,,1,,,65,54
507840,note_on,0,0,1,,,,,,,,,0,,,70,60
507840,note_off,240,0,2,,,,,,,,,1,,,63,0
507840,note_off,240,0,4,,,,,,,,,4,,,36,0
507840,note_on,0,0,4,,,,,,,,,4,,,37,48
507840,note_off,720,0,1,,,,,,,,,0,,,65,0
508080,note_off,240,0,2,,,,,,,,,1,,,65,0
508080,note_off,240,0,4,,,,,,,,,4,,,37,0
508080,note_on,0,0,4,,,,,,,,,4,,,39,48
508080,note_on,0,0,2,,,,,,,,,1,,,66,55
508320,note_on,0,0,2,,,,,,,,,1,,,63,55
508320,note_off,240,0,2,,,,,,,,,1,,,66,0
508320,note_on,0,0,4,,,,,,,,,4,,,36,48
508320,note_off,240,0,4,,,,,,,,,4,,,39,0
508560,note_off,240,0,4,,,,,,,,,4,,,36,0
508560,note_on,0,0,1,,,,,,,,,0,,,67,61
508560,note_off,240,0,2,,,,,,,,,1,,,63,0
508560,note_on,0,0,2,,,,,,,,,1,,,61,55
508560,note_on,0,0,4,,,,,,,,,4,,,34,49
508560,note_off,720,0,1,,,,,,,,,0,,,70,0
508800,note_off,240,0,2,,,,,,,,,1,,,61,0
508800,note_on,0,0,2,,,,,,,,,1,,,63,55
508800,note_on,0,0,4,,,,,,,,,4,,,36,49
508800,note_off,240,0,4,,,,,,,,,4,,,34,0
509040,note_on,0,0,4,,,,,,,,,4,,,37,49
509040,note_off,240,0,4,,,,,,,,,4,,,36,0
509040,note_off,240,0,2,,,,,,,,,1,,,63,0
509040,note_on,0,0,2,,,,,,,,,1,,,65,56
509280,note_on,0,0,2,,,,,,,,,1,,,63,56
509280,note_on,0,0,1,,,,,,,,,0,,,72,63
509280,note_off,720,0,1,,,,,,,,,0,,,67,0
509280,note_off,240,0,2,,,,,,,,,1,,,65,0
509520,note_off,480,0,4,,,,,,,,,4,,,37,0
509520,note_off,240,0,2,,,,,,,,,1,,,63,0
509520,note_on,0,0,2,,,,,,,,,1,,,68,56
509520,note_on,0,0,4,,,,,,,,,4,,,36,50
509760,note_on,0,0,4,,,,,,,,,4,,,39,50
509760,note_off,240,0,4,,,,,,,,,4,,,36,0
510000,note_on,0,0,4,,,,,,,,,4,,,37,50
510000,note_off,240,0,4,,,,,,,,,4,,,39,0
510000,note_on,0,0,1,,,,,,,,,0,,,70,61
510000,note_off,720,0,1,,,,,,,,,0,,,72,0
510240,note_on,0,0,4,,,,,,,,,4,,,41,51
510240,note_off,240,0,4,,,,,,,,,4,,,37,0
510240,note_on,0,0,2,,,,,,,,,1,,,62,57
510240,note_off,720,0,2,,,,,,,,,1,,,68,0
510480,note_on,0,0,1,,,,,,,,,0,,,68,59
510480,note_on,0,0,4,,,,,,,,,4,,,38,51
510480,note_off,240,0,4,,,,,,,,,4,,,41,0
510480,note_on,0,0,2,,,,,,,,,1,,,65,57
510480,note_off,240,0,2,,,,,,,,,1,,,62,0
510480,note_off,480,0,1,,,,,,,,,0,,,70,0
510720,note_off,240,0,4,,,,,,,,,4,,,38,0
510720,note_on,0,0,4,,,,,,,,,4,,,39,51
510720,note_on,0,0,1,,,,,,,,,0,,,67,58
510720,note_off,240,0,2,,,,,,,,,1,,,65,0
510720,note_on,0,0,2,,,,,,,,,1,,,58,57
510720,note_off,240,0,1,,,,,,,,,0,,,68,0
510960,note_on,0,0,4,,,,,,,,,4,,,43,52
510960,note_off,240,0,4,,,,,,,,,4,,,39,0
511200,note_on,0,0,4,,,,,,,,,4,,,41,52
511200,note_off,240,0,4,,,,,,,,,4,,,43,0
511440,note_on,0,0,1,,,,,,,,,0,,,73,56
511440,note_off,720,0,1,,,,,,,,,0,,,67,0
511440,note_off,720,0,2,,,,,,,,,1,,,58,0
511440,note_on,0,0,2,,,,,,,,,1,,,70,58
511440,note_off,240,0,4,,,,,,,,,4,,,41,0
511440,note_on,0,0,4,,,,,,,,,4,,,39,52
511680,note_on,0,0,4,,,,,,,,,4,,,38,52
511680,note_off,240,0,4,,,,,,,,,4,,,39,0
511920,note_on,0,0,4,,,,,,,,,4,,,39,53
511920,note_off,240,0,4,,,,,,,,,4,,,38,0
512160,note_on,0,0,4,,,,,,,,,4,,,40,53
512160,note_off,240,0,4,,,,,,,,,4,,,39,0
512160,note_on,0,0,2,,,,,,,,,1,,,67,59
512160,note_off,720,0,2,,,,,,,,,1,,,70,0
512400,note_off,240,0,4,,,,,,,,,4,,,40,0
512400,note_on,0,0,4,,,,,,,,,4,,,43,53
512400,note_off,240,0,2,,,,,,,,,1,,,67,0
512400,note_on,0,0,2,,,,,,,,,1,,,70,59
512640,note_off,240,0,2,,,,,,,,,1,,,70,0
512640,note_on,0,0,2,,,,,,,,,1,,,68,59
512640,note_off,240,0,4,,,,,,,,,4,,,43,0
512640,note_on,0,0,4,,,,,,,,,4,,,41,54
512880,note_off,1440,0,1,,,,,,,,,0,,,73,0
512880,note_on,0,0,4,,,,,,,,,4,,,40,54
512880,note_on,0,0,1,,,,,,,,,0,,,72,57
512880,note_off,240,0,2,,,,,,,,,1,,,68,0
512880,note_on,0,0,2,,,,,,,,,1,,,67,59
512880,note_off,240,0,4,,,,,,,,,4,,,41,0
513120,note_off,240,0,2,,,,,,,,,1,,,67,0
513120,note_off,240,0,4,,,,,,,,,4,,,40,0
513120,note_on,0,0,4,,,,,,,,,4,,,38,54
513120,note_on,0,0,2,,,,,,,,,1,,,65,60
513360,note_off,240,0,2,,,,,,,,,1,,,65,0
513360,note_off,480,0,1,,,,,,,,,0,,,72,0
513360,note_on,0,0,1,,,,,,,,,0,,,70,58
513360,note_off,240,0,4,,,,,,,,,4,,,38,0
513360,note_on,0,0,4,,,,,,,,,4,,,40,55
513360,note_on,0,0,2,,,,,,,,,1,,,67,60
513600,note_off,240,0,1,,,,,,,,,0,,,70,0
513600,note_on,0,0,4,,,,,,,,,4,,,41,55
513600,note_off,240,0,4,,,,,,,,,4,,,40,0
513600,note_on,0,0,1,,,,,,,,,0,,,69,58
513600,note_on,0,0,2,,,,,,,,,1,,,60,60
513600,note_off,240,0,2,,,,,,,,,1,,,67,0
513840,note_on,0,0,2,,,,,,,,,1,,,72,60
513840,note_off,240,0,2,,,,,,,,,1,,,60,0
513840,note_off,240,0,4,,,,,,,,,4,,,41,0
513840,note_on,0,0,4,,,,,,,,,4,,,45,55
514080,note_off,240,0,2,,,,,,,,,1,,,72,0
514080,note_on,0,0,2,,,,,,,,,1,,,70,61
514080,note_off,240,0,4,,,,,,,,,4,,,45,0
514080,note_on,0,0,4,,,,,,,,,4,,,43,55
514320,note_off,720,0,1,,,,,,,,,0,,,69,0
514320,note_on,0,0,1,,,,,,,,,0,,,75,59
514320,note_on,0,0,4,,,,,,,,,4,,,41,56
514320,note_off,240,0,4,,,,,,,,,4,,,43,0
514320,note_off,240,0,2,,,,,,,,,1,,,70,0
514320,note_on,0,0,2,,,,,,,,,1,,,69,61
514560,note_off,240,0,4,,,,,,,,,4,,,41,0
514560,note_on,0,0,4,,,,,,,,,4,,,43,56
514560,note_off,240,0,2,,,,,,,,,1,,,69,0
514560,note_on,0,0,2,,,,,,,,,1,,,70,61
514800,note_off,240,0,2,,,,,,,,,1,,,70,0
514800,note_on,0,0,2,,,,,,,,,1,,,72,61
514800,note_off,240,0,4,,,,,,,,,4,,,43,0
514800,note_on,0,0,4,,,,,,,,,4,,,45,56
515040,note_off,240,0,2,,,,,,,,,1,,,72,0
515040,note_on,0,0,2,,,,,,,,,1,,,69,62
515040,note_on,0,0,4,,,,,,,,,4,,,42,57
515040,note_off,240,0,4,,,,,,,,,4,,,45,0
515280,note_off,240,0,4,,,,,,,,,4,,,42,0
515280,note_on,0,0,2,,,,,,,,,1,,,72,62
515280,note_off,240,0,2,,,,,,,,,1,,,69,0
515280,note_on,0,0,4,,,,,,,,,4,,,45,57
515520,note_on,0,0,4,,,,,,,,,4,,,43,57
515520,note_off,240,0,4,,,,,,,,,4,,,45,0
515520,note_off,240,0,2,,,,,,,,,1,,,72,0
515520,note_on,0,0,2,,,,,,,,,1,,,70,62
515760,note_off,240,0,2,,,,,,,,,1,,,70,0
515760,note_off,1440,0,1,,,,,,,,,0,,,75,0
515760,note_on,0,0,1,,,,,,,,,0,,,74,60
515760,note_on,0,0,2,,,,,,,,,1,,,69,62
515760,note_on,0,0,4,,,,,,,,,4,,,42,58
515760,note_off,240,0,4,,,,,,,,,4,,,43,0
516000,note_off,240,0,4,,,,,,,,,4,,,42,0
516000,note_off,240,0,2,,,,,,,,,1,,,69,0
516000,note_on,0,0,4,,,,,,,,,4,,,43,58
516000,note_on,0,0,2,,,,,,,,,1,,,70,63
516240,note_on,0,0,1,,,,,,,,,0,,,72,61
516240,note_off,240,0,2,,,,,,,,,1,,,70,0
516240,note_off,240,0,4,,,,,,,,,4,,,43,0
516240,note_on,0,0,2,,,,,,,,,1,,,66,63
516240,note_on,0,0,4,,,,,,,,,4,,,45,58
516240,note_off,480,0,1,,,,,,,,,0,,,74,0
516480,note_on,0,0,1,,,,,,,,,0,,,71,61
516480,note_on,0,0,2,,,,,,,,,1,,,62,63
516480,note_off,240,0,2,,,,,,,,,1,,,66,0
516480,note_off,240,0,1,,,,,,,,,0,,,72,0
516480,note_off,240,0,4,,,,,,,,,4,,,45,0
516480,note_on,0,0,4,,,,,,,,,4,,,43,58
516720,note_on,0,0,2,,,,,,,,,1,,,77,63
516720,note_off,240,0,2,,,,,,,,,1,,,62,0
516720,note_on,0,0,4,,,,,,,,,4,,,50,59
516720,note_off,240,0,4,,,,,,,,,4,,,43,0
516960,note_off,240,0,2,,,,,,,,,1,,,77,0
516960,note_on,0,0,4,,,,,,,,,4,,,48,59
516960,note_off,240,0,4,,,,,,,,,4,,,50,0
516960,note_on,0,0,2,,,,,,,,,1,,,75,64
516960,note_off,480,0,1,,,,,,,,,0,,,71,0
517200,note_on,240,0,1,,,,,,,,,0,,,80,62
517200,note_on,0,0,2,,,,,,,,,1,,,74,64
517200,note_off,240,0,2,,,,,,,,,1,,,75,0
517200,note_on,0,0,4,,,,,,,,,4,,,47,59
517200,note_off,240,0,4,,,,,,,,,4,,,48,0
517440,note_off,240,0,2,,,,,,,,,1,,,74,0
517440,note_off,240,0,4,,,,,,,,,4,,,47,0
517440,note_on,0,0,4,,,,,,,,,4,,,48,60
517440,note_on,0,0,2,,,,,,,,,1,,,75,64
517680,note_off,240,0,2,,,,,,,,,1,,,75,0
517680,note_on,0,0,2,,,,,,,,,1,,,77,64
517680,note_on,0,0,4,,,,,,,,,4,,,49,60
517680,note_off,240,0,4,,,,,,,,,4,,,48,0
517920,note_off,240,0,2,,,,,,,,,1,,,77,0
517920,note_on,0,0,2,,,,,,,,,1,,,71,65
517920,note_on,0,0,4,,,,,,,,,4,,,50,60
517920,note_off,240,0,4,,,,,,,,,4,,,49,0
518160,note_off,240,0,4,,,,,,,,,4,,,50,0
518160,note_on,0,0,2,,,,,,,,,1,,,72,64
518160,note_on,0,0,4,,,,,,,,,4,,,51,58
518160,note_off,240,0,2,,,,,,,,,1,,,71,0
518400,note_on,0,0,2,,,,,,,,,1,,,74,63
518400,note_off,240,0,2,,,,,,,,,1,,,72,0
518400,note_off,240,0,4,,,,,,,,,4,,,51,0
518400,note_on,0,0,4,,,,,,,,,4,,,53,55
518640,note_off,1440,0,1,,,,,,,,,0,,,80,0
518640,note_off,240,0,4,,,,,,,,,4,,,53,0
518640,note_off,240,0,2,,,,,,,,,1,,,74,0
518640,note_on,0,0,2,,,,,,,,,1,,,75,61
518640,note_on,0,0,1,,,,,,,,,0,,,79,63
518880,note_off,240,0,2,,,,,,,,,1,,,75,0
518880,note_on,0,0,2,,,,,,,,,1,,,77,60
519120,note_on,0,0,1,,,,,,,,,0,,,77,61
519120,note_off,480,0,1,,,,,,,,,0,,,79,0
519120,note_off,240,0,2,,,,,,,,,1,,,77,0
519120,note_on,0,0,2,,,,,,,,,1,,,74,59
519360,note_on,0,0,2,,,,,,,,,1,,,67,57
519360,note_on,0,0,1,,,,,,,,,0,,,75,59
519360,note_off,240,0,2,,,,,,,,,1,,,74,0
519360,note_off,240,0,1,,,,,,,,,0,,,77,0
519600,note_on,0,0,2,,,,,,,,,1,,,72,56
519600,note_off,240,0,2,,,,,,,,,1,,,67,0
519840,note_on,0,0,2,,,,,,,,,1,,,70,54
519840,note_off,240,0,2,,,,,,,,,1,,,72,0
520080,note_off,720,0,1,,,,,,,,,0,,,75,0
520080,note_on,0,0,1,,,,,,,,,0,,,77,55
520080,note_off,240,0,2,,,,,,,,,1,,,70,0
520080,note_on,0,0,2,,,,,,,,,1,,,68,53
520320,note_off,240,0,2,,,,,,,,,1,,,68,0
520320,note_on,0,0,2,,,,,,,,,1,,,67,52
520560,note_off,240,0,2,,,,,,,,,1,,,67,0
520560,note_on,0,0,1,,,,,,,,,0,,,74,52
520560,note_off,480,0,1,,,,,,,,,0,,,77,0
520560,note_on,0,0,2,,,,,,,,,1,,,65,50
520680,set_tempo,15000,1,0,,,,,,408163,,,,,,,
520800,note_off,240,0,2,,,,,,,,,1,,,65,0
520800,note_on,0,0,2,,,,,,,,,1,,,67,67
520800,note_off,240,0,1,,,,,,,,,0,,,74,0
520800,note_on,2160,0,4,,,,,,,,,4,,,43,72
520800,set_tempo,120,1,0,,,,,,400000,,,,,,,
520800,note_on,0,0,1,,,,,,,,,0,,,75,62
520800,note_on,0,0,4,,,,,,,,,4,,,31,72
521040,note_on,0,0,2,,,,,,,,,1,,,71,68
521040,note_off,240,0,2,,,,,,,,,1,,,67,0
521280,note_on,0,0,2,,,,,,,,,1,,,72,68
521280,note_off,240,0,2,,,,,,,,,1,,,71,0
521520,note_off,720,0,1,,,,,,,,,0,,,75,0
521520,note_on,0,0,1,,,,,,,,,0,,,74,63
521760,note_off,480,0,2,,,,,,,,,1,,,72,0
521760,note_on,0,0,2,,,,,,,,,1,,,69,68
522000,note_off,240,0,2,,,,,,,,,1,,,69,0
522000,note_on,0,0,2,,,,,,,,,1,,,70,69
522240,note_off,240,0,2,,,,,,,,,1,,,70,0
522240,note_on,0,0,4,,,,,,,,,4,,,36,70
522240,note_on,0,0,2,,,,,,,,,1,,,63,69
522240,note_off,1440,0,4,,,,,,,,,4,,,31,0
522240,note_off,0,0,4,,,,,,,,,4,,,43,0
522240,note_on,0,0,4,,,,,,,,,4,,,48,70
522480,note_on,0,0,1,,,,,,,,,0,,,75,64
522480,note_off,960,0,1,,,,,,,,,0,,,74,0
522720,note_on,0,0,1,,,,,,,,,0,,,72,64
522720,note_off,240,0,1,,,,,,,,,0,,,75,0
522960,note_on,0,0,4,,,,,,,,,4,,,33,71
522960,note_off,720,0,2,,,,,,,,,1,,,63,0
522960,note_on,0,0,2,,,,,,,,,1,,,65,70
522960,note_on,0,0,4,,,,,,,,,4,,,45,71
522960,note_off,720,0,4,,,,,,,,,4,,,36,0
522960,note_off,0,0,4,,,,,,,,,4,,,48,0
523200,note_on,0,0,1,,,,,,,,,0,,,74,65
523200,note_off,480,0,1,,,,,,,,,0,,,72,0
523440,note_on,0,0,1,,,,,,,,,0,,,75,65
523440,note_off,240,0,1,,,,,,,,,0,,,74,0
523680,note_off,0,0,4,,,,,,,,,4,,,33,0
523680,note_off,720,0,4,,,,,,,,,4,,,45,0
523680,note_on,0,0,4,,,,,,,,,4,,,38,72
523680,note_on,0,0,4,,,,,,,,,4,,,50,72
523680,note_off,720,0,2,,,,,,,,,1,,,65,0
523680,note_on,0,0,2,,,,,,,,,1,,,65,70
523920,note_off,480,0,1,,,,,,,,,0,,,75,0
523920,note_on,0,0,1,,,,,,,,,0,,,77,66
524160,note_on,0,0,1,,,,,,,,,0,,,75,66
524160,note_off,240,0,1,,,,,,,,,0,,,77,0
524400,note_off,720,0,4,,,,,,,,,4,,,38,0
524400,note_on,0,0,1,,,,,,,,,0,,,74,66
524400,note_off,240,0,1,,,,,,,,,0,,,75,0
524400,note_on,0,0,4,,,,,,,,,4,,,35,73
524400,note_on,0,0,4,,,,,,,,,4,,,47,73
524400,note_off,720,0,2,,,,,,,,,1,,,65,0
524400,note_off,0,0,4,,,,,,,,,4,,,50,0
524400,note_on,0,0,2,,,,,,,,,1,,,67,71
524640,note_off,240,0,1,,,,,,,,,0,,,74,0
524640,note_on,0,0,1,,,,,,,,,0,,,75,66
524880,note_off,240,0,1,,,,,,,,,0,,,75,0
524880,note_on,0,0,1,,,,,,,,,0,,,77,67
525120,note_on,0,0,4,,,,,,,,,4,,,51,74
525120,note_on,0,0,4,,,,,,,,,4,,,39,74
525120,note_off,0,0,4,,,,,,,,,4,,,47,0
525120,note_off,720,0,4,,,,,,,,,4,,,35,0
525120,note_off,240,0,1,,,,,,,,,0,,,77,0
525120,note_on,0,0,1,,,,,,,,,0,,,79,67
525360,note_off,960,0,2,,,,,,,,,1,,,67,0
525360,note_on,0,0,2,,,,,,,,,1,,,68,72
525600,note_off,480,0,1,,,,,,,,,0,,,79,0
525600,note_off,240,0,2,,,,,,,,,1,,,68,0
525600,note_on,0,0,2,,,,,,,,,1,,,65,72
525840,note_off,720,0,4,,,,,,,,,4,,,51,0
525840,note_on,0,0,4,,,,,,,,,4,,,36,75
525840,note_on,0,0,4,,,,,,,,,4,,,48,75
525840,note_off,0,0,4,,,,,,,,,4,,,39,0
525840,note_off,240,0,2,,,,,,,,,1,,,65,0
525840,note_on,0,0,2,,,,,,,,,1,,,63,73
526080,note_off,240,0,2,,,,,,,,,1,,,63,0
526080,note_on,0,0,2,,,,,,,,,1,,,65,73
526320,note_off,240,0,2,,,,,,,,,1,,,65,0
526320,note_on,0,0,2,,,,,,,,,1,,,67,73
526560,note_off,720,0,4,,,,,,,,,4,,,48,0
526560,note_off,0,0,4,,,,,,,,,4,,,36,0
526560,note_on,0,0,4,,,,,,,,,4,,,41,76
526560,note_on,0,0,4,,,,,,,,,4,,,53,76
526800,note_off,480,0,2,,,,,,,,,1,,,67,0
526800,note_on,0,0,2,,,,,,,,,1,,,68,74
527040,note_off,240,0,2,,,,,,,,,1,,,68,0
527040,note_on,0,0,2,,,,,,,,,1,,,67,74
527280,note_off,240,0,2,,,,,,,,,1,,,67,0
527280,note_on,0,0,2,,,,,,,,,1,,,65,74
527280,note_off,0,0,4,,,,,,,,,4,,,41,0
527280,note_on,0,0,4,,,,,,,,,4,,,50,77
527280,note_on,0,0,4,,,,,,,,,4,,,38,77
527280,note_off,720,0,4,,,,,,,,,4,,,53,0
527520,note_on,0,0,2,,,,,,,,,1,,,67,74
527520,note_off,240,0,2,,,,,,,,,1,,,65,0
527760,note_on,0,0,2,,,,,,,,,1,,,68,75
527760,note_off,240,0,2,,,,,,,,,1,,,67,0
528000,note_off,240,0,2,,,,,,,,,1,,,68,0
528000,note_on,0,0,4,,,,,,,,,4,,,55,77
528000,note_on,0,0,4,,,,,,,,,4,,,43,77
528000,note_off,0,0,4,,,,,,,,,4,,,38,0
528000,note_on,0,0,2,,,,,,,,,1,,,70,75
528000,note_on,2400,0,1,,,,,,,,,0,,,80,70
528000,note_off,720,0,4,,,,,,,,,4,,,50,0
528240,note_off,240,0,1,,,,,,,,,0,,,80,0
528240,note_on,0,0,1,,,,,,,,,0,,,82,71
528480,note_on,0,0,1,,,,,,,,,0,,,79,71
528480,note_off,240,0,1,,,,,,,,,0,,,82,0
528720,note_on,0,0,4,,,,,,,,,4,,,52,78
528720,note_off,720,0,2,,,,,,,,,1,,,70,0
528720,note_on,0,0,2,,,,,,,,,1,,,72,75
528720,note_on,0,0,4,,,,,,,,,4,,,40,78
528720,note_off,0,0,4,,,,,,,,,4,,,43,0
528720,note_off,720,0,4,,,,,,,,,4,,,55,0
528960,note_on,0,0,1,,,,,,,,,0,,,81,72
528960,note_off,480,0,1,,,,,,,,,0,,,79,0
529200,note_off,240,0,1,,,,,,,,,0,,,81,0
529200,note_on,0,0,1,,,,,,,,,0,,,82,72
529440,note_on,0,0,4,,,,,,,,,4,,,44,79
529440,note_off,0,0,4,,,,,,,,,4,,,40,0
529440,note_on,0,0,4,,,,,,,,,4,,,56,79
529440,note_off,720,0,4,,,,,,,,,4,,,52,0
529680,note_off,480,0,1,,,,,,,,,0,,,82,0
529680,note_on,0,0,1,,,,,,,,,0,,,84,72
529920,note_off,480,0,4,,,,,,,,,4,,,56,0
529920,note_off,0,0,4,,,,,,,,,4,,,44,0
529920,note_on,0,0,4,,,,,,,,,4,,,43,80
529920,note_on,0,0,4,,,,,,,,,4,,,55,80
529920,note_off,240,0,1,,,,,,,,,0,,,84,0
529920,note_on,0,0,1,,,,,,,,,0,,,82,73
530160,note_off,240,0,4,,,,,,,,,4,,,55,0
530160,note_off,0,0,4,,,,,,,,,4,,,43,0
530160,note_on,0,0,4,,,,,,,,,4,,,53,80
530160,note_on,0,0,1,,,,,,,,,0,,,81,73
530160,note_off,240,0,1,,,,,,,,,0,,,82,0
530160,note_on,0,0,4,,,,,,,,,4,,,41,80
530160,note_off,1440,0,2,,,,,,,,,1,,,72,0
530160,note_on,0,0,2,,,,,,,,,1,,,75,77
530400,note_on,0,0,1,,,,,,,,,0,,,82,73
530400,note_off,240,0,1,,,,,,,,,0,,,81,0
530400,note_on,0,0,4,,,,,,,,,4,,,43,81
530400,note_on,0,0,4,,,,,,,,,4,,,55,81
530400,note_off,0,0,4,,,,,,,,,4,,,41,0
530400,note_off,240,0,4,,,,,,,,,4,,,53,0
530640,note_on,0,0,1,,,,,,,,,0,,,84,74
530640,note_on,0,0,4,,,,,,,,,4,,,56,81
530640,note_off,240,0,1,,,,,,,,,0,,,82,0
530640,note_off,0,0,4,,,,,,,,,4,,,55,0
530640,note_off,240,0,4,,,,,,,,,4,,,43,0
530640,note_on,0,0,4,,,,,,,,,4,,,44,81
530880,note_off,240,0,4,,,,,,,,,4,,,44,0
530880,note_off,0,0,4,,,,,,,,,4,,,56,0
530880,note_on,0,0,4,,,,,,,,,4,,,46,82
530880,note_on,0,0,4,,,,,,,,,4,,,58,82
530880,note_off,240,0,1,,,,,,,,,0,,,84,0
530880,note_on,0,0,1,,,,,,,,,0,,,85,74
531120,note_on,0,0,2,,,,,,,,,1,,,73,78
531120,note_off,960,0,2,,,,,,,,,1,,,75,0
531360,note_on,0,0,2,,,,,,,,,1,,,70,78
531360,note_off,480,0,1,,,,,,,,,0,,,85,0
531360,note_off,240,0,2,,,,,,,,,1,,,73,0
531600,note_on,0,0,4,,,,,,,,,4,,,60,83
531600,note_on,0,0,4,,,,,,,,,4,,,48,83
531600,note_on,240,0,1,,,,,,,,,0,,,77,75
531600,note_off,720,0,4,,,,,,,,,4,,,58,0
531600,note_off,0,0,4,,,,,,,,,4,,,46,0
531840,note_on,0,0,2,,,,,,,,,1,,,69,79
531840,note_off,480,0,2,,,,,,,,,1,,,70,0
532080,note_off,240,0,2,,,,,,,,,1,,,69,0
532080,note_on,0,0,2,,,,,,,,,1,,,72,79
532320,note_off,720,0,4,,,,,,,,,4,,,60,0
532320,note_off,0,0,4,,,,,,,,,4,,,48,0
532320,note_on,0,0,4,,,,,,,,,4,,,49,84
532320,note_on,0,0,4,,,,,,,,,4,,,61,84
532560,note_off,480,0,2,,,,,,,,,1,,,72,0
532560,note_on,0,0,2,,,,,,,,,1,,,70,79
532800,note_on,0,0,2,,,,,,,,,1,,,73,82
532800,note_off,240,0,2,,,,,,,,,1,,,70,0
532970,set_tempo,12170,1,0,,,,,,402684,,,,,,,
533040,note_on,0,0,2,,,,,,,,,1,,,65,71
533040,note_on,0,0,4,,,,,,,,,4,,,60,73
533040,note_off,0,0,4,,,,,,,,,4,,,49,0
533040,set_tempo,70,1,0,,,,,,400000,,,,,,,
533040,note_off,720,0,4,,,,,,,,,4,,,61,0
533040,note_off,240,0,2,,,,,,,,,1,,,73,0
533040,note_off,1440,0,1,,,,,,,,,0,,,77,0
533040,note_on,0,0,1,,,,,,,,,0,,,69,71
533280,note_on,0,0,4,,,,,,,,,4,,,61,73
533280,note_off,240,0,4,,,,,,,,,4,,,60,0
533520,note_on,0,0,4,,,,,,,,,4,,,63,73
533520,note_off,240,0,4,,,,,,,,,4,,,61,0
533520,note_off,480,0,1,,,,,,,,,0,,,69,0
533520,note_on,0,0,1,,,,,,,,,0,,,72,71
533760,note_on,0,0,1,,,,,,,,,0,,,70,70
533760,note_off,240,0,1,,,,,,,,,0,,,72,0
534000,note_on,0,0,4,,,,,,,,,4,,,61,72
534000,note_off,480,0,4,,,,,,,,,4,,,63,0
534240,note_on,0,0,1,,,,,,,,,0,,,73,70
534240,note_off,480,0,1,,,,,,,,,0,,,70,0
534240,note_off,240,0,4,,,,,,,,,4,,,61,0
534240,note_on,0,0,4,,,,,,,,,4,,,58,72
534480,note_on,0,0,1,,,,,,,,,0,,,72,69
534480,note_off,240,0,1,,,,,,,,,0,,,73,0
534720,note_off,480,0,4,,,,,,,,,4,,,58,0
534720,note_on,0,0,4,,,,,,,,,4,,,57,71
534960,note_on,0,0,4,,,,,,,,,4,,,60,71
534960,note_off,240,0,4,,,,,,,,,4,,,57,0
534960,note_off,480,0,1,,,,,,,,,0,,,72,0
534960,note_on,0,0,1,,,,,,,,,0,,,75,69
535200,note_off,240,0,1,,,,,,,,,0,,,75,0
535200,note_on,0,0,1,,,,,,,,,0,,,73,68
535440,note_off,480,0,4,,,,,,,,,4,,,60,0
535440,note_on,0,0,4,,,,,,,,,4,,,58,70
535680,note_off,240,0,4,,,,,,,,,4,,,58,0
535680,note_on,0,0,4,,,,,,,,,4,,,61,70
535680,note_off,480,0,1,,,,,,,,,0,,,73,0
535680,note_on,0,0,1,,,,,,,,,0,,,77,68
535850,set_tempo,2810,1,0,,,,,,402684,,,,,,,
535920,note_off,240,0,1,,,,,,,,,0,,,77,0
535920,note_on,0,0,2,,,,,,,,,1,,,70,80
535920,note_off,2880,0,2,,,,,,,,,1,,,65,0
535920,note_on,0,0,1,,,,,,,,,0,,,75,77
535920,note_off,240,0,4,,,,,,,,,4,,,61,0
535920,note_on,0,0,4,,,,,,,,,4,,,55,83
535920,set_tempo,70,1,0,,,,,,400000,,,,,,,
536160,note_off,240,0,2,,,,,,,,,1,,,70,0
536160,note_on,0,0,2,,,,,,,,,1,,,72,79
536160,note_off,240,0,4,,,,,,,,,4,,,55,0
536160,note_on,0,0,4,,,,,,,,,4,,,56,83
536400,note_off,240,0,2,,,,,,,,,1,,,72,0
536400,note_on,0,0,4,,,,,,,,,4,,,58,83
536400,note_off,240,0,4,,,,,,,,,4,,,56,0
536400,note_on,0,0,2,,,,,,,,,1,,,73,79
536640,note_on,0,0,2,,,,,,,,,1,,,72,79
536640,note_off,240,0,2,,,,,,,,,1,,,73,0
536880,note_on,0,0,4,,,,,,,,,4,,,56,82
536880,note_off,480,0,4,,,,,,,,,4,,,58,0
537120,note_on,0,0,4,,,,,,,,,4,,,60,81
537120,note_off,240,0,4,,,,,,,,,4,,,56,0
537120,note_on,0,0,2,,,,,,,,,1,,,68,78
537120,note_off,480,0,2,,,,,,,,,1,,,72,0
537360,note_off,240,0,2,,,,,,,,,1,,,68,0
537360,note_on,0,0,2,,,,,,,,,1,,,67,78
537600,note_off,480,0,4,,,,,,,,,4,,,60,0
537600,note_on,0,0,4,,,,,,,,,4,,,58,81
537840,note_on,0,0,2,,,,,,,,,1,,,70,77
537840,note_off,480,0,2,,,,,,,,,1,,,67,0
537840,note_on,0,0,4,,,,,,,,,4,,,61,80
537840,note_off,240,0,4,,,,,,,,,4,,,58,0
538080,note_off,240,0,2,,,,,,,,,1,,,70,0
538080,note_on,0,0,2,,,,,,,,,1,,,68,77
538320,note_off,480,0,4,,,,,,,,,4,,,61,0
538320,note_on,0,0,4,,,,,,,,,4,,,60,79
538560,note_on,0,0,4,,,,,,,,,4,,,63,79
538560,note_off,480,0,2,,,,,,,,,1,,,68,0
538560,note_off,240,0,4,,,,,,,,,4,,,60,0
538560,note_on,0,0,2,,,,,,,,,1,,,72,76
538730,set_tempo,2810,1,0,,,,,,402684,,,,,,,
538800,note_off,2880,0,1,,,,,,,,,0,,,75,0
538800,note_on,0,0,1,,,,,,,,,0,,,67,69
538800,note_off,240,0,4,,,,,,,,,4,,,63,0
538800,set_tempo,70,1,0,,,,,,400000,,,,,,,
538800,note_off,240,0,2,,,,,,,,,1,,,72,0
538800,note_on,0,0,4,,,,,,,,,4,,,58,69
538800,note_on,0,0,2,,,,,,,,,1,,,63,69
539040,note_on,0,0,4,,,,,,,,,4,,,60,69
539040,note_off,240,0,4,,,,,,,,,4,,,58,0
539280,note_off,240,0,4,,,,,,,,,4,,,60,0
539280,note_on,0,0,1,,,,,,,,,0,,,70,68
539280,note_on,0,0,4,,,,,,,,,4,,,61,69
539280,note_off,480,0,1,,,,,,,,,0,,,67,0
539520,note_on,0,0,1,,,,,,,,,0,,,68,68
539520,note_off,240,0,1,,,,,,,,,0,,,70,0
539760,note_off,480,0,4,,,,,,,,,4,,,61,0
539760,note_on,0,0,4,,,,,,,,,4,,,60,68
540000,note_off,480,0,1,,,,,,,,,0,,,68,0
540000,note_off,240,0,4,,,,,,,,,4,,,60,0
540000,note_on,0,0,4,,,,,,,,,4,,,56,68
540000,note_on,0,0,1,,,,,,,,,0,,,72,67
540240,note_off,240,0,1,,,,,,,,,0,,,72,0
540240,note_on,0,0,1,,,,,,,,,0,,,70,67
540480,note_on,0,0,4,,,,,,,,,4,,,55,67
540480,note_off,480,0,4,,,,,,,,,4,,,56,0
540720,note_off,240,0,4,,,,,,,,,4,,,55,0
540720,note_on,0,0,4,,,,,,,,,4,,,58,67
540720,note_off,480,0,1,,,,,,,,,0,,,70,0
540720,note_on,0,0,1,,,,,,,,,0,,,73,66
540960,note_off,240,0,1,,,,,,,,,0,,,73,0
540960,note_on,0,0,1,,,,,,,,,0,,,72,65
541200,note_off,240,0,1,,,,,,,,,0,,,72,0
541200,note_off,480,0,4,,,,,,,,,4,,,58,0
541200,note_on,0,0,4,,,,,,,,,4,,,56,66
541200,note_on,0,0,1,,,,,,,,,0,,,73,65
541200,note_on,2400,0,2,,,,,,,,,1,,,70,67
541207,note_off,7,0,2,,,,,,,,,1,,,63,0
541440,note_off,240,0,1,,,,,,,,,0,,,73,0
541440,note_off,240,0,4,,,,,,,,,4,,,56,0
541440,note_on,0,0,4,,,,,,,,,4,,,54,66
541440,note_on,0,0,1,,,,,,,,,0,,,75,65
541440,note_on,0,0,2,,,,,,,,,1,,,72,66
541440,note_off,233,0,2,,,,,,,,,1,,,70,0
541610,set_tempo,2810,1,0,,,,,,402684,,,,,,,
541680,note_off,240,0,4,,,,,,,,,4,,,54,0
541680,note_on,0,0,4,,,,,,,,,4,,,53,65
541680,note_off,240,0,1,,,,,,,,,0,,,75,0
541680,note_on,0,0,1,,,,,,,,,0,,,77,64
541680,note_on,0,0,1,,,,,,,,,0,,,61,64
541680,note_off,240,0,2,,,,,,,,,1,,,72,0
541680,set_tempo,70,1,0,,,,,,400000,,,,,,,
541920,note_off,240,0,4,,,,,,,,,4,,,53,0
541920,note_on,0,0,4,,,,,,,,,4,,,52,65
542160,note_off,240,0,4,,,,,,,,,4,,,52,0
542160,note_off,480,0,1,,,,,,,,,0,,,77,0
542160,note_on,0,0,4,,,,,,,,,4,,,53,65
542400,note_off,240,0,4,,,,,,,,,4,,,53,0
542400,note_off,240,0,1,,,,,,,,,0,,,61,0
542400,note_on,0,0,1,,,,,,,,,0,,,66,64
542400,note_on,0,0,4,,,,,,,,,4,,,51,64
542640,note_off,240,0,4,,,,,,,,,4,,,51,0
542640,note_on,0,0,4,,,,,,,,,4,,,53,64
542880,note_on,0,0,4,,,,,,,,,4,,,49,64
542880,note_off,240,0,4,,,,,,,,,4,,,53,0
542880,note_on,1200,0,2,,,,,,,,,1,,,58,64
543120,note_off,720,0,1,,,,,,,,,0,,,66,0
543120,note_on,0,0,1,,,,,,,,,0,,,63,65
543360,note_off,480,0,4,,,,,,,,,4,,,49,0
543360,note_on,0,0,2,,,,,,,,,1,,,56,64
543360,note_on,0,0,4,,,,,,,,,4,,,48,63
543360,note_off,480,0,2,,,,,,,,,1,,,58,0
543600,note_on,0,0,4,,,,,,,,,4,,,54,63
543600,note_off,240,0,4,,,,,,,,,4,,,48,0
543600,note_on,0,0,2,,,,,,,,,1,,,60,64
543600,note_off,240,0,2,,,,,,,,,1,,,56,0
543840,note_on,0,0,1,,,,,,,,,0,,,68,65
543840,note_off,720,0,1,,,,,,,,,0,,,63,0
544080,note_on,0,0,4,,,,,,,,,4,,,53,62
544080,note_off,480,0,4,,,,,,,,,4,,,54,0
544080,note_off,480,0,2,,,,,,,,,1,,,60,0
544080,note_on,0,0,2,,,,,,,,,1,,,61,63
544320,note_on,0,0,4,,,,,,,,,4,,,51,62
544320,note_off,240,0,4,,,,,,,,,4,,,53,0
544320,note_on,0,0,2,,,,,,,,,1,,,63,63
544320,note_off,240,0,2,,,,,,,,,1,,,61,0
544560,note_on,0,0,4,,,,,,,,,4,,,49,61
544560,note_off,720,0,1,,,,,,,,,0,,,68,0
544560,note_on,0,0,1,,,,,,,,,0,,,65,66
544560,note_off,240,0,4,,,,,,,,,4,,,51,0
544800,note_on,0,0,4,,,,,,,,,4,,,58,61
544800,note_off,480,0,2,,,,,,,,,1,,,63,0
544800,note_off,240,0,4,,,,,,,,,4,,,49,0
544800,note_on,0,0,2,,,,,,,,,1,,,61,62
545040,note_on,0,0,4,,,,,,,,,4,,,56,61
545040,note_off,240,0,4,,,,,,,,,4,,,58,0
545040,note_off,240,0,2,,,,,,,,,1,,,61,0
545040,note_on,0,0,2,,,,,,,,,1,,,62,62
545280,note_on,0,0,1,,,,,,,,,0,,,70,69
545280,note_off,240,0,4,,,,,,,,,4,,,56,0
545280,note_off,240,0,2,,,,,,,,,1,,,62,0
545280,note_on,0,0,4,,,,,,,,,4,,,54,60
545280,note_on,0,0,2,,,,,,,,,1,,,63,62
545280,note_off,720,0,1,,,,,,,,,0,,,65,0
545520,note_off,240,0,2,,,,,,,,,1,,,63,0
545520,note_off,240,0,4,,,,,,,,,4,,,54,0
545520,note_on,0,0,2,,,,,,,,,1,,,66,61
545520,note_on,0,0,4,,,,,,,,,4,,,51,60
545760,note_off,240,0,2,,,,,,,,,1,,,66,0
545760,note_on,0,0,2,,,,,,,,,1,,,65,61
545760,note_off,240,0,4,,,,,,,,,4,,,51,0
545760,note_on,0,0,4,,,,,,,,,4,,,49,60
546000,note_on,0,0,1,,,,,,,,,0,,,68,64
546000,note_on,0,0,4,,,,,,,,,4,,,48,59
546000,note_off,240,0,2,,,,,,,,,1,,,65,0
546000,note_off,240,0,4,,,,,,,,,4,,,49,0
546000,note_off,720,0,1,,,,,,,,,0,,,70,0
546000,note_on,0,0,2,,,,,,,,,1,,,63,61
546240,note_on,0,0,4,,,,,,,,,4,,,49,59
546240,note_on,0,0,2,,,,,,,,,1,,,65,60
546240,note_off,240,0,2,,,,,,,,,1,,,63,0
546240,note_off,240,0,4,,,,,,,,,4,,,48,0
546480,note_on,0,0,4,,,,,,,,,4,,,51,59
546480,note_on,0,0,1,,,,,,,,,0,,,66,61
546480,note_off,480,0,1,,,,,,,,,0,,,68,0
546480,note_off,240,0,4,,,,,,,,,4,,,49,0
546480,note_on,0,0,2,,,,,,,,,1,,,60,60
546480,note_off,240,0,2,,,,,,,,,1,,,65,0
546720,note_on,0,0,2,,,,,,,,,1,,,65,58
546720,note_on,0,0,1,,,,,,,,,0,,,61,60
546720,note_off,240,0,1,,,,,,,,,0,,,66,0
546720,note_on,0,0,4,,,,,,,,,4,,,49,58
546720,note_off,240,0,4,,,,,,,,,4,,,51,0
546720,note_off,240,0,2,,,,,,,,,1,,,60,0
546960,note_on,0,0,2,,,,,,,,,1,,,66,60
546960,note_off,240,0,2,,,,,,,,,1,,,65,0
546960,note_on,0,0,4,,,,,,,,,4,,,51,58
546960,note_off,240,0,4,,,,,,,,,4,,,49,0
547200,note_on,0,0,1,,,,,,,,,0,,,56,59
547200,note_off,480,0,1,,,,,,,,,0,,,61,0
547200,note_off,240,0,4,,,,,,,,,4,,,51,0
547200,note_on,0,0,4,,,,,,,,,4,,,49,58
547200,note_off,240,0,2,,,,,,,,,1,,,66,0
547200,note_on,0,0,2,,,,,,,,,1,,,65,59
547340,set_tempo,5660,1,0,,,,,,402684,,,,,,,
547440,note_off,240,0,1,,,,,,,,,0,,,56,0
547440,set_tempo,100,1,0,,,,,,400000,,,,,,,
547440,note_on,0,0,1,,,,,,,,,0,,,68,62
547680,note_on,0,0,2,,,,,,,,,1,,,62,59
547680,note_off,480,0,2,,,,,,,,,1,,,65,0
547680,note_on,0,0,4,,,,,,,,,4,,,47,57
547680,note_off,480,0,4,,,,,,,,,4,,,49,0
547920,note_on,0,0,4,,,,,,,,,4,,,48,57
547920,note_on,0,0,2,,,,,,,,,1,,,63,58
547920,note_off,240,0,2,,,,,,,,,1,,,62,0
547920,note_off,240,0,4,,,,,,,,,4,,,47,0
548160,note_off,720,0,1,,,,,,,,,0,,,68,0
548160,note_on,0,0,1,,,,,,,,,0,,,73,64
548160,note_on,0,0,2,,,,,,,,,1,,,65,58
548160,note_off,240,0,2,,,,,,,,,1,,,63,0
548400,note_on,0,0,4,,,,,,,,,4,,,46,56
548400,note_off,480,0,4,,,,,,,,,4,,,48,0
548640,note_on,0,0,4,,,,,,,,,4,,,49,56
548640,note_off,240,0,4,,,,,,,,,4,,,46,0
548880,note_on,0,0,4,,,,,,,,,4,,,51,55
548880,note_on,0,0,1,,,,,,,,,0,,,70,65
548880,note_off,720,0,1,,,,,,,,,0,,,73,0
548880,note_off,720,0,2,,,,,,,,,1,,,65,0
548880,note_off,240,0,4,,,,,,,,,4,,,49,0
548880,note_on,0,0,2,,,,,,,,,1,,,67,57
549120,note_on,0,0,4,,,,,,,,,4,,,53,55
549120,note_off,240,0,4,,,,,,,,,4,,,51,0
549360,note_on,0,0,4,,,,,,,,,4,,,49,55
549360,note_off,240,0,4,,,,,,,,,4,,,53,0
549600,note_off,240,0,4,,,,,,,,,4,,,49,0
549600,note_on,0,0,1,,,,,,,,,0,,,75,66
549600,note_off,720,0,1,,,,,,,,,0,,,70,0
549600,note_on,0,0,2,,,,,,,,,1,,,68,56
549600,note_off,720,0,2,,,,,,,,,1,,,67,0
549600,note_on,0,0,4,,,,,,,,,4,,,48,54
549840,note_off,240,0,4,,,,,,,,,4,,,48,0
549840,note_on,0,0,4,,,,,,,,,4,,,44,54
549840,note_off,240,0,2,,,,,,,,,1,,,68,0
549840,note_on,0,0,2,,,,,,,,,1,,,72,56
550080,note_off,240,0,2,,,,,,,,,1,,,72,0
550080,note_on,0,0,2,,,,,,,,,1,,,70,56
550080,note_off,240,0,4,,,,,,,,,4,,,44,0
550320,note_on,240,0,4,,,,,,,,,4,,,56,62
550320,note_off,720,0,1,,,,,,,,,0,,,75,0
550320,note_on,0,0,1,,,,,,,,,0,,,72,68
550560,note_on,0,0,2,,,,,,,,,1,,,68,55
550560,note_off,480,0,2,,,,,,,,,1,,,70,0
550800,note_off,240,0,2,,,,,,,,,1,,,68,0
550800,note_on,0,0,2,,,,,,,,,1,,,66,55
551040,note_on,0,0,4,,,,,,,,,4,,,61,63
551040,note_off,720,0,4,,,,,,,,,4,,,56,0
551040,note_on,0,0,1,,,,,,,,,0,,,77,69
551040,note_off,720,0,1,,,,,,,,,0,,,72,0
551040,note_off,240,0,2,,,,,,,,,1,,,66,0
551040,note_on,0,0,2,,,,,,,,,1,,,65,55
551280,note_off,240,0,2,,,,,,,,,1,,,65,0
551280,note_on,0,0,2,,,,,,,,,1,,,70,54
551520,note_off,240,0,2,,,,,,,,,1,,,70,0
551520,note_on,0,0,2,,,,,,,,,1,,,68,54
551760,note_on,0,0,4,,,,,,,,,4,,,58,65
551760,note_off,240,0,2,,,,,,,,,1,,,68,0
551760,note_on,0,0,2,,,,,,,,,1,,,67,54
551760,note_off,720,0,1,,,,,,,,,0,,,77,0
551760,note_on,0,0,1,,,,,,,,,0,,,75,62
551760,note_off,720,0,4,,,,,,,,,4,,,61,0
552000,note_off,240,0,2,,,,,,,,,1,,,67,0
552000,note_on,0,0,2,,,,,,,,,1,,,68,53
552240,note_on,0,0,2,,,,,,,,,1,,,70,53
552240,note_off,480,0,1,,,,,,,,,0,,,75,0
552240,note_on,0,0,1,,,,,,,,,0,,,73,58
552240,note_off,240,0,2,,,,,,,,,1,,,68,0
552480,note_on,0,0,4,,,,,,,,,4,,,63,66
552480,note_off,240,0,1,,,,,,,,,0,,,73,0
552480,note_on,0,0,1,,,,,,,,,0,,,72,56
552480,note_off,720,0,4,,,,,,,,,4,,,58,0
552720,note_off,480,0,2,,,,,,,,,1,,,70,0
552720,note_on,0,0,2,,,,,,,,,1,,,68,53
552960,note_off,480,0,1,,,,,,,,,0,,,72,0
552960,note_on,0,0,1,,,,,,,,,0,,,75,52
552960,note_on,0,0,4,,,,,,,,,4,,,60,67
552960,note_off,240,0,2,,,,,,,,,1,,,68,0
552960,note_on,0,0,2,,,,,,,,,1,,,67,52
552960,note_off,480,0,4,,,,,,,,,4,,,63,0
553200,note_on,0,0,2,,,,,,,,,1,,,65,52
553200,note_off,240,0,1,,,,,,,,,0,,,75,0
553200,note_off,240,0,2,,,,,,,,,1,,,67,0
553200,note_on,0,0,1,,,,,,,,,0,,,73,52
553440,note_off,240,0,2,,,,,,,,,1,,,65,0
553440,note_on,0,0,2,,,,,,,,,1,,,67,52
553440,note_on,0,0,4,,,,,,,,,4,,,58,64
553440,note_off,480,0,4,,,,,,,,,4,,,60,0
553680,note_on,0,0,4,,,,,,,,,4,,,56,60
553680,note_off,240,0,4,,,,,,,,,4,,,58,0
553680,note_on,0,0,1,,,,,,,,,0,,,72,51
553680,note_on,0,0,2,,,,,,,,,1,,,68,51
553680,note_off,240,0,2,,,,,,,,,1,,,67,0
553680,note_off,480,0,1,,,,,,,,,0,,,73,0
553920,note_on,0,0,1,,,,,,,,,0,,,70,51
553920,note_off,240,0,4,,,,,,,,,4,,,56,0
553920,note_on,0,0,4,,,,,,,,,4,,,55,56
553920,note_off,240,0,1,,,,,,,,,0,,,72,0
554160,note_on,0,0,4,,,,,,,,,4,,,56,53
554160,note_off,480,0,2,,,,,,,,,1,,,68,0
554160,note_on,0,0,2,,,,,,,,,1,,,67,51
554160,note_off,240,0,4,,,,,,,,,4,,,55,0
554400,note_off,480,0,1,,,,,,,,,0,,,70,0
554400,note_off,240,0,4,,,,,,,,,4,,,56,0
554400,note_off,240,0,2,,,,,,,,,1,,,67,0
554400,note_on,0,0,2,,,,,,,,,1,,,65,51
554400,note_on,0,0,4,,,,,,,,,4,,,58,53
554400,note_on,0,0,1,,,,,,,,,0,,,73,51
554640,note_on,0,0,1,,,,,,,,,0,,,72,50
554640,note_off,240,0,1,,,,,,,,,0,,,73,0
554640,note_on,0,0,2,,,,,,,,,1,,,64,50
554640,note_off,240,0,2,,,,,,,,,1,,,65,0
554640,note_off,240,0,4,,,,,,,,,4,,,58,0
554640,note_on,0,0,4,,,,,,,,,4,,,60,52
554880,note_off,240,0,2,,,,,,,,,1,,,64,0
554880,note_on,0,0,2,,,,,,,,,1,,,65,50
554880,note_on,0,0,4,,,,,,,,,4,,,50,52
554880,note_off,240,0,4,,,,,,,,,4,,,60,0
555120,note_off,480,0,1,,,,,,,,,0,,,72,0
555120,note_off,240,0,4,,,,,,,,,4,,,50,0
555120,note_on,0,0,2,,,,,,,,,1,,,67,50
555120,note_off,240,0,2,,,,,,,,,1,,,65,0
555120,note_on,0,0,4,,,,,,,,,4,,,52,51
555120,note_on,0,0,1,,,,,,,,,0,,,70,50
555360,note_off,240,0,1,,,,,,,,,0,,,70,0
555360,note_on,0,0,1,,,,,,,,,0,,,68,49
555360,note_on,0,0,4,,,,,,,,,4,,,53,51
555360,note_off,240,0,4,,,,,,,,,4,,,52,0
555600,note_off,240,0,4,,,,,,,,,4,,,53,0
555600,note_on,0,0,4,,,,,,,,,4,,,55,50
555600,note_on,0,0,2,,,,,,,,,1,,,65,49
555600,note_off,480,0,2,,,,,,,,,1,,,67,0
555840,note_on,0,0,2,,,,,,,,,1,,,63,49
555840,note_off,240,0,2,,,,,,,,,1,,,65,0
555840,note_off,240,0,4,,,,,,,,,4,,,55,0
555840,note_on,0,0,4,,,,,,,,,4,,,56,50
555840,note_on,0,0,1,,,,,,,,,0,,,72,49
555840,note_off,480,0,1,,,,,,,,,0,,,68,0
556080,note_off,240,0,4,,,,,,,,,4,,,56,0
556080,note_off,240,0,2,,,,,,,,,1,,,63,0
556080,note_on,0,0,2,,,,,,,,,1,,,62,49
556080,note_off,240,0,1,,,,,,,,,0,,,72,0
556080,note_on,0,0,1,,,,,,,,,0,,,70,49
556080,note_on,0,0,4,,,,,,,,,4,,,58,49
556320,note_off,240,0,2,,,,,,,,,1,,,62,0
556320,note_on,0,0,2,,,,,,,,,1,,,63,48
556320,note_off,240,0,4,,,,,,,,,4,,,58,0
556320,note_on,0,0,4,,,,,,,,,4,,,48,49
556560,note_off,480,0,1,,,,,,,,,0,,,70,0
556560,note_on,0,0,1,,,,,,,,,0,,,68,46
556560,note_off,240,0,4,,,,,,,,,4,,,48,0
556560,note_off,240,0,2,,,,,,,,,1,,,63,0
556560,note_on,0,0,4,,,,,,,,,4,,,50,48
556560,note_on,0,0,2,,,,,,,,,1,,,65,48
556800,note_on,0,0,1,,,,,,,,,0,,,67,46
556800,note_off,240,0,1,,,,,,,,,0,,,68,0
556800,note_on,0,0,2,,,,,,,,,1,,,58,48
556800,note_off,240,0,2,,,,,,,,,1,,,65,0
556800,note_off,240,0,4,,,,,,,,,4,,,50,0
556800,note_on,0,0,4,,,,,,,,,4,,,51,51
556800,note_on,0,0,4,,,,,,,,,4,,,39,51
557040,note_off,240,0,2,,,,,,,,,1,,,58,0
557040,note_off,240,0,1,,,,,,,,,0,,,67,0
557040,note_on,0,0,1,,,,,,,,,0,,,72,47
557040,note_on,0,0,2,,,,,,,,,1,,,66,49
557280,note_on,0,0,2,,,,,,,,,1,,,67,50
557280,note_off,240,0,2,,,,,,,,,1,,,66,0
557280,note_on,0,0,4,,,,,,,,,4,,,51,54
557280,note_on,0,0,4,,,,,,,,,4,,,39,54
557280,note_off,0,0,4,,,,,,,,,4,,,39,0
557280,note_off,480,0,4,,,,,,,,,4,,,51,0
557280,note_off,240,0,1,,,,,,,,,0,,,72,0
557280,note_on,0,0,1,,,,,,,,,0,,,70,48
557520,note_off,240,0,2,,,,,,,,,1,,,67,0
557520,note_on,0,0,2,,,,,,,,,1,,,65,50
557520,note_off,240,0,1,,,,,,,,,0,,,70,0
557520,note_on,0,0,1,,,,,,,,,0,,,68,48
557760,note_on,0,0,1,,,,,,,,,0,,,70,49
557760,note_off,240,0,1,,,,,,,,,0,,,68,0
558000,note_on,0,0,2,,,,,,,,,1,,,63,52
558000,note_off,480,0,2,,,,,,,,,1,,,65,0
558000,note_off,240,0,1,,,,,,,,,0,,,70,0
558000,note_on,0,0,1,,,,,,,,,0,,,72,49
558240,note_off,240,0,2,,,,,,,,,1,,,63,0
558240,note_on,0,0,2,,,,,,,,,1,,,62,52
558480,note_on,0,0,1,,,,,,,,,0,,,70,50
558480,note_off,480,0,1,,,,,,,,,0,,,72,0
558720,note_off,240,0,1,,,,,,,,,0,,,70,0
558720,note_on,0,0,4,,,,,,,,,4,,,51,59
558720,note_on,0,0,4,,,,,,,,,4,,,39,59
558720,note_off,1440,0,4,,,,,,,,,4,,,51,0
558720,note_on,480,0,2,,,,,,,,,1,,,65,54
558720,note_on,0,0,1,,,,,,,,,0,,,68,51
558720,note_off,0,0,4,,,,,,,,,4,,,39,0
558727,note_off,7,0,2,,,,,,,,,1,,,62,0
558960,note_on,0,0,2,,,,,,,,,1,,,63,54
558960,note_on,0,0,1,,,,,,,,,0,,,67,52
558960,note_off,240,0,1,,,,,,,,,0,,,68,0
558960,note_off,233,0,2,,,,,,,,,1,,,65,0
559200,note_on,0,0,1,,,,,,,,,0,,,68,52
559200,note_off,240,0,1,,,,,,,,,0,,,67,0
559440,note_on,480,0,2,,,,,,,,,1,,,61,56
559440,note_on,0,0,1,,,,,,,,,0,,,70,53
559440,note_off,240,0,1,,,,,,,,,0,,,68,0
559455,note_off,15,0,2,,,,,,,,,1,,,63,0
559680,note_off,225,0,2,,,,,,,,,1,,,61,0
559680,note_on,0,0,2,,,,,,,,,1,,,60,56
559920,note_on,0,0,1,,,,,,,,,0,,,68,54
559920,note_off,480,0,1,,,,,,,,,0,,,70,0
560160,note_on,0,0,4,,,,,,,,,4,,,51,62
560160,note_on,0,0,4,,,,,,,,,4,,,39,62
560160,note_off,0,0,4,,,,,,,,,4,,,39,0
560160,note_on,0,0,1,,,,,,,,,0,,,66,54
560160,note_off,480,0,2,,,,,,,,,1,,,60,0
560160,note_on,0,0,2,,,,,,,,,1,,,58,58
560160,note_off,240,0,1,,,,,,,,,0,,,68,0
560160,note_off,1440,0,4,,,,,,,,,4,,,51,0
560400,note_off,240,0,2,,,,,,,,,1,,,58,0
560400,note_on,0,0,2,,,,,,,,,1,,,57,58
560640,note_on,0,0,4,,,,,,,,,4,,,37,64
560640,note_off,0,0,4,,,,,,,,,4,,,39,0
560640,note_off,480,0,4,,,,,,,,,4,,,51,0
560640,note_on,0,0,4,,,,,,,,,4,,,49,64
560796,note_off,0,0,4,,,,,,,,,4,,,37,0
560796,note_off,156,0,4,,,,,,,,,4,,,49,0
560880,note_on,84,0,4,,,,,,,,,4,,,48,65
560880,note_on,0,0,4,,,,,,,,,4,,,36,65
561036,note_off,156,0,4,,,,,,,,,4,,,36,0
561036,note_off,0,0,4,,,,,,,,,4,,,48,0
561120,note_on,84,0,4,,,,,,,,,4,,,34,65
561120,note_on,0,0,4,,,,,,,,,4,,,46,65
561120,note_on,720,0,2,,,,,,,,,1,,,61,60
561127,note_off,7,0,2,,,,,,,,,1,,,57,0
561276,note_off,156,0,4,,,,,,,,,4,,,46,0
561276,note_off,0,0,4,,,,,,,,,4,,,34,0
561360,note_on,84,0,4,,,,,,,,,4,,,36,66
561360,note_on,0,0,4,,,,,,,,,4,,,48,66
561516,note_off,156,0,4,,,,,,,,,4,,,48,0
561516,note_off,0,0,4,,,,,,,,,4,,,36,0
561600,note_off,1440,0,1,,,,,,,,,0,,,66,0
561600,note_on,0,0,4,,,,,,,,,4,,,49,67
561600,note_on,84,0,4,,,,,,,,,4,,,37,67
561600,note_on,0,0,1,,,,,,,,,0,,,65,58
561720,set_tempo,14280,1,0,,,,,,402684,,,,,,,
561756,note_off,0,0,4,,,,,,,,,4,,,37,0
561756,note_off,156,0,4,,,,,,,,,4,,,49,0
561840,note_on,84,0,4,,,,,,,,,4,,,39,70
561840,set_tempo,120,1,0,,,,,,394736,,,,,,,
561840,note_on,0,0,4,,,,,,,,,4,,,27,70
561840,note_off,713,0,2,,,,,,,,,1,,,61,0
561840,note_on,0,0,2,,,,,,,,,1,,,55,62
562080,note_off,480,0,1,,,,,,,,,0,,,65,0
562080,note_on,0,0,1,,,,,,,,,0,,,63,59
562320,note_off,240,0,1,,,,,,,,,0,,,63,0
562320,note_on,0,0,1,,,,,,,,,0,,,61,60
562560,note_off,720,0,2,,,,,,,,,1,,,55,0
562560,note_on,0,0,4,,,,,,,,,4,,,44,71
562560,note_on,0,0,4,,,,,,,,,4,,,32,71
562560,note_off,0,0,4,,,,,,,,,4,,,39,0
562560,note_off,720,0,4,,,,,,,,,4,,,27,0
562560,note_on,0,0,2,,,,,,,,,1,,,51,64
562800,note_on,240,0,2,,,,,,,,,1,,,59,65
563040,note_on,0,0,1,,,,,,,,,0,,,60,61
563040,note_off,720,0,1,,,,,,,,,0,,,61,0
563040,note_off,240,0,2,,,,,,,,,1,,,59,0
563280,note_on,0,0,1,,,,,,,,,0,,,60,62
563280,note_off,240,0,1,,,,,,,,,0,,,60,0
563280,note_on,0,0,4,,,,,,,,,4,,,29,73
563280,note_on,0,0,4,,,,,,,,,4,,,41,73
563280,note_off,0,0,4,,,,,,,,,4,,,32,0
563280,note_off,720,0,4,,,,,,,,,4,,,44,0
563280,note_off,240,0,2,,,,,,,,,1,,,51,0
563280,note_on,0,0,2,,,,,,,,,1,,,57,66
563520,note_off,240,0,2,,,,,,,,,1,,,57,0
563520,note_on,0,0,2,,,,,,,,,1,,,58,67
563520,note_on,0,0,1,,,,,,,,,0,,,61,62
563520,note_off,240,0,1,,,,,,,,,0,,,60,0
563760,note_off,240,0,2,,,,,,,,,1,,,58,0
563760,note_on,0,0,2,,,,,,,,,1,,,60,68
563760,note_on,0,0,1,,,,,,,,,0,,,63,63
563760,note_off,240,0,1,,,,,,,,,0,,,61,0
564000,note_on,0,0,4,,,,,,,,,4,,,34,75
564000,note_off,0,0,4,,,,,,,,,4,,,41,0
564000,note_on,0,0,4,,,,,,,,,4,,,46,75
564000,note_off,720,0,4,,,,,,,,,4,,,29,0
564240,note_off,480,0,1,,,,,,,,,0,,,63,0
564240,note_on,0,0,2,,,,,,,,,1,,,57,69
564240,note_off,480,0,2,,,,,,,,,1,,,60,0
564240,note_on,0,0,1,,,,,,,,,0,,,60,64
564480,note_off,240,0,2,,,,,,,,,1,,,57,0
564480,note_on,0,0,2,,,,,,,,,1,,,58,70
564480,note_on,0,0,1,,,,,,,,,0,,,61,65
564480,note_off,240,0,1,,,,,,,,,0,,,60,0
564720,note_on,0,0,2,,,,,,,,,1,,,55,71
564720,note_off,720,0,4,,,,,,,,,4,,,46,0
564720,note_off,240,0,2,,,,,,,,,1,,,58,0
564720,note_on,0,0,4,,,,,,,,,4,,,31,76
564720,note_on,0,0,4,,,,,,,,,4,,,43,76
564720,note_off,0,0,4,,,,,,,,,4,,,34,0
564960,note_off,480,0,1,,,,,,,,,0,,,61,0
564960,note_on,0,0,1,,,,,,,,,0,,,58,66
565200,note_off,240,0,1,,,,,,,,,0,,,58,0
565200,note_on,0,0,1,,,,,,,,,0,,,63,66
565440,note_off,720,0,2,,,,,,,,,1,,,55,0
565440,note_on,0,0,2,,,,,,,,,1,,,56,73
565440,note_off,720,0,4,,,,,,,,,4,,,43,0
565440,note_off,0,0,4,,,,,,,,,4,,,31,0
565440,note_on,0,0,4,,,,,,,,,4,,,36,78
565440,note_on,0,0,4,,,,,,,,,4,,,48,78
565680,note_on,480,0,1,,,,,,,,,0,,,62,68
565687,note_off,7,0,1,,,,,,,,,0,,,63,0
565920,note_on,0,0,1,,,,,,,,,0,,,60,68
565920,note_off,233,0,1,,,,,,,,,0,,,62,0
566160,note_off,240,0,1,,,,,,,,,0,,,60,0
566160,note_on,0,0,4,,,,,,,,,4,,,34,74
566160,note_off,0,0,4,,,,,,,,,4,,,36,0
566160,note_off,720,0,4,,,,,,,,,4,,,48,0
566160,note_on,720,0,2,,,,,,,,,1,,,53,75
566160,note_on,0,0,4,,,,,,,,,4,,,46,74
566160,note_on,0,0,1,,,,,,,,,0,,,62,69
566175,note_off,15,0,2,,,,,,,,,1,,,56,0
566400,note_on,0,0,1,,,,,,,,,0,,,63,69
566400,note_off,240,0,1,,,,,,,,,0,,,62,0
566640,note_off,480,0,4,,,,,,,,,4,,,46,0
566640,note_off,240,0,1,,,,,,,,,0,,,63,0
566640,note_on,0,0,4,,,,,,,,,4,,,44,71
566640,note_on,0,0,4,,,,,,,,,4,,,32,71
566640,note_off,0,0,4,,,,,,,,,4,,,34,0
566640,note_on,0,0,1,,,,,,,,,0,,,65,70
566857,note_off,682,0,2,,,,,,,,,1,,,53,0
566880,note_off,240,0,4,,,,,,,,,4,,,44,0
566880,note_off,0,0,4,,,,,,,,,4,,,32,0
566880,note_on,0,0,4,,,,,,,,,4,,,31,69
566880,note_on,23,0,2,,,,,,,,,1,,,58,79
566880,note_on,0,0,4,,,,,,,,,4,,,43,69
567120,note_on,480,0,1,,,,,,,,,0,,,63,71
567127,note_off,7,0,1,,,,,,,,,0,,,65,0
567360,note_off,480,0,2,,,,,,,,,1,,,58,0
567360,note_on,0,0,2,,,,,,,,,1,,,61,70
567480,set_tempo,5640,1,0,,,,,,400000,,,,,,,
567600,note_on,473,0,1,,,,,,,,,0,,,68,71
567600,note_off,0,0,4,,,,,,,,,4,,,31,0
567600,note_on,0,0,4,,,,,,,,,4,,,30,65
567600,note_on,0,0,4,,,,,,,,,4,,,42,65
567600,set_tempo,120,1,0,,,,,,394736,,,,,,,
567600,note_off,720,0,4,,,,,,,,,4,,,43,0
567607,note_off,7,0,1,,,,,,,,,0,,,63,0
567832,note_off,472,0,2,,,,,,,,,1,,,61,0
567840,note_on,8,0,2,,,,,,,,,1,,,60,67
568080,note_off,240,0,2,,,,,,,,,1,,,60,0
568080,note_on,0,0,2,,,,,,,,,1,,,63,68
568320,note_on,0,0,2,,,,,,,,,1,,,61,70
568320,note_off,720,0,4,,,,,,,,,4,,,42,0
568320,note_off,240,0,2,,,,,,,,,1,,,63,0
568320,note_on,0,0,4,,,,,,,,,4,,,29,68
568320,note_off,0,0,4,,,,,,,,,4,,,30,0
568320,note_on,0,0,4,,,,,,,,,4,,,41,68
568320,note_on,713,0,1,,,,,,,,,0,,,73,74
568327,note_off,7,0,1,,,,,,,,,0,,,68,0
568560,note_on,0,0,2,,,,,,,,,1,,,70,71
568560,note_off,240,0,2,,,,,,,,,1,,,61,0
568800,note_on,0,0,4,,,,,,,,,4,,,40,71
568800,note_on,0,0,4,,,,,,,,,4,,,28,71
568800,note_off,0,0,4,,,,,,,,,4,,,41,0
568800,note_on,0,0,2,,,,,,,,,1,,,68,72
568800,note_off,240,0,2,,,,,,,,,1,,,70,0
568800,note_off,480,0,4,,,,,,,,,4,,,29,0
569040,note_off,0,0,4,,,,,,,,,4,,,28,0
569040,note_on,0,0,4,,,,,,,,,4,,,27,72
569040,note_off,240,0,4,,,,,,,,,4,,,40,0
569040,note_on,0,0,4,,,,,,,,,4,,,39,72
569040,note_off,240,0,2,,,,,,,,,1,,,68,0
569040,note_on,0,0,2,,,,,,,,,1,,,67,74
569040,note_on,713,0,1,,,,,,,,,0,,,70,78
569047,note_off,7,0,1,,,,,,,,,0,,,73,0
569280,note_off,240,0,2,,,,,,,,,1,,,67,0
569280,note_on,0,0,2,,,,,,,,,1,,,65,75
569520,note_off,240,0,2,,,,,,,,,1,,,65,0
569520,note_off,480,0,4,,,,,,,,,4,,,39,0
569520,note_off,0,0,4,,,,,,,,,4,,,27,0
569520,note_on,0,0,4,,,,,,,,,4,,,25,74
569520,note_on,0,0,2,,,,,,,,,1,,,67,77
569520,note_on,0,0,4,,,,,,,,,4,,,37,74
569760,note_off,240,0,4,,,,,,,,,4,,,37,0
569760,note_on,0,0,4,,,,,,,,,4,,,36,75
569760,note_on,713,0,1,,,,,,,,,0,,,75,81
569760,note_on,0,0,4,,,,,,,,,4,,,24,75
569760,note_off,0,0,4,,,,,,,,,4,,,25,0
569767,note_off,7,0,1,,,,,,,,,0,,,70,0
570000,note_off,480,0,2,,,,,,,,,1,,,67,0
570000,note_on,0,0,2,,,,,,,,,1,,,70,79
570240,note_off,480,0,4,,,,,,,,,4,,,36,0
570240,note_on,0,0,2,,,,,,,,,1,,,68,81
570240,note_off,473,0,1,,,,,,,,,0,,,75,0
570240,note_on,0,0,1,,,,,,,,,0,,,72,83
570240,note_on,0,0,4,,,,,,,,,4,,,44,77
570240,note_on,0,0,4,,,,,,,,,4,,,56,77
570240,note_off,240,0,2,,,,,,,,,1,,,70,0
570240,note_off,0,0,4,,,,,,,,,4,,,24,0
570480,note_off,240,0,1,,,,,,,,,0,,,72,0
570480,note_on,0,0,1,,,,,,,,,0,,,77,85
570480,note_off,240,0,4,,,,,,,,,4,,,56,0
570480,note_on,0,0,4,,,,,,,,,4,,,61,78
570480,note_on,0,0,4,,,,,,,,,4,,,49,78
570480,note_off,0,0,4,,,,,,,,,4,,,44,0
570480,note_on,0,0,2,,,,,,,,,1,,,67,82
570480,note_off,240,0,2,,,,,,,,,1,,,68,0
570636,note_off,156,0,2,,,,,,,,,1,,,67,0
570720,note_on,84,0,2,,,,,,,,,1,,,65,84
570876,note_off,156,0,2,,,,,,,,,1,,,65,0
570960,note_on,0,0,4,,,,,,,,,4,,,58,81
570960,note_on,0,0,4,,,,,,,,,4,,,46,81
570960,note_on,480,0,1,,,,,,,,,0,,,73,87
570960,note_off,0,0,4,,,,,,,,,4,,,49,0
570960,note_off,480,0,4,,,,,,,,,4,,,61,0
570960,note_on,84,0,2,,,,,,,,,1,,,70,85
570967,note_off,7,0,1,,,,,,,,,0,,,77,0
571116,note_off,156,0,2,,,,,,,,,1,,,70,0
571200,note_on,0,0,4,,,,,,,,,4,,,63,82
571200,note_off,240,0,4,,,,,,,,,4,,,58,0
571200,note_on,0,0,4,,,,,,,,,4,,,51,82
571200,note_off,0,0,4,,,,,,,,,4,,,46,0
571200,note_on,84,0,2,,,,,,,,,1,,,68,87
571200,note_on,0,0,1,,,,,,,,,0,,,79,88
571200,note_off,233,0,1,,,,,,,,,0,,,73,0
571356,note_off,156,0,2,,,,,,,,,1,,,68,0
571440,note_on,84,0,2,,,,,,,,,1,,,67,88
571596,note_off,156,0,2,,,,,,,,,1,,,67,0
571680,note_on,480,0,1,,,,,,,,,0,,,75,89
571680,note_off,480,0,4,,,,,,,,,4,,,63,0
571680,note_off,0,0,4,,,,,,,,,4,,,51,0
571680,note_on,0,0,4,,,,,,,,,4,,,60,84
571680,note_on,0,0,4,,,,,,,,,4,,,48,84
571680,set_tempo,4080,1,0,,,,,,400000,,,,,,,
571680,note_on,84,0,2,,,,,,,,,1,,,72,89
571687,note_off,7,0,1,,,,,,,,,0,,,79,0
571920,note_on,0,0,1,,,,,,,,,0,,,80,91
571920,note_off,233,0,1,,,,,,,,,0,,,75,0
571920,note_off,240,0,2,,,,,,,,,1,,,72,0
571920,note_off,240,0,4,,,,,,,,,4,,,48,0
571920,note_off,0,0,4,,,,,,,,,4,,,60,0
571920,note_on,0,0,4,,,,,,,,,4,,,65,85
571920,note_on,0,0,4,,,,,,,,,4,,,53,85
571920,note_on,0,0,2,,,,,,,,,1,,,72,91
572160,note_on,0,0,1,,,,,,,,,0,,,79,88
572160,note_off,240,0,1,,,,,,,,,0,,,80,0
572160,note_off,240,0,2,,,,,,,,,1,,,72,0
572160,note_on,0,0,2,,,,,,,,,1,,,75,88
572400,note_on,0,0,1,,,,,,,,,0,,,77,87
572400,note_off,240,0,1,,,,,,,,,0,,,79,0
572400,note_off,480,0,4,,,,,,,,,4,,,53,0
572400,note_off,0,0,4,,,,,,,,,4,,,65,0
572400,note_on,0,0,2,,,,,,,,,1,,,73,87
572400,note_off,240,0,2,,,,,,,,,1,,,75,0
572400,note_on,0,0,4,,,,,,,,,4,,,67,87
572400,note_on,0,0,4,,,,,,,,,4,,,55,87
572640,note_off,0,0,4,,,,,,,,,4,,,55,0
572640,note_on,0,0,4,,,,,,,,,4,,,68,89
572640,note_on,0,0,4,,,,,,,,,4,,,56,89
572640,note_off,240,0,4,,,,,,,,,4,,,67,0
572782,note_off,382,0,2,,,,,,,,,1,,,73,0
572790,note_off,390,0,1,,,,,,,,,0,,,77,0
572880,note_on,98,0,2,,,,,,,,,1,,,72,84
572880,note_on,90,0,1,,,,,,,,,0,,,75,84
573036,note_off,156,0,1,,,,,,,,,0,,,75,0
573036,note_off,156,0,2,,,,,,,,,1,,,72,0
573120,note_on,84,0,1,,,,,,,,,0,,,73,83
573120,note_off,0,0,4,,,,,,,,,4,,,68,0
573120,note_on,0,0,2,,,,,,,,,1,,,70,83
573120,note_on,84,0,2,,,,,,,,,1,,,67,83
573120,note_on,0,0,4,,,,,,,,,4,,,64,85
573120,note_off,480,0,4,,,,,,,,,4,,,56,0
573120,note_on,0,0,4,,,,,,,,,4,,,52,85
573276,note_off,156,0,1,,,,,,,,,0,,,73,0
573276,note_off,0,0,2,,,,,,,,,1,,,67,0
573276,note_off,156,0,2,,,,,,,,,1,,,70,0
573360,note_on,84,0,2,,,,,,,,,1,,,68,81
573360,note_on,84,0,1,,,,,,,,,0,,,72,81
573360,note_off,240,0,4,,,,,,,,,4,,,64,0
573360,note_off,0,0,4,,,,,,,,,4,,,52,0
573360,note_on,0,0,4,,,,,,,,,4,,,53,83
573360,note_on,0,0,4,,,,,,,,,4,,,65,83
573600,note_on,0,0,4,,,,,,,,,4,,,61,82
573600,note_on,0,0,1,,,,,,,,,0,,,73,80
573600,note_off,240,0,1,,,,,,,,,0,,,72,0
573600,note_off,240,0,4,,,,,,,,,4,,,65,0
573600,note_off,0,0,4,,,,,,,,,4,,,53,0
573600,note_on,0,0,4,,,,,,,,,4,,,49,82
573600,note_off,240,0,2,,,,,,,,,1,,,68,0
573600,note_on,0,0,2,,,,,,,,,1,,,65,80
573600,note_on,0,0,2,,,,,,,,,1,,,68,80
573756,note_off,156,0,1,,,,,,,,,0,,,73,0
573756,note_off,0,0,2,,,,,,,,,1,,,65,0
573756,note_off,156,0,2,,,,,,,,,1,,,68,0
573840,note_on,84,0,2,,,,,,,,,1,,,65,79
573840,note_on,84,0,1,,,,,,,,,0,,,70,79
573840,note_off,240,0,4,,,,,,,,,4,,,61,0
573840,note_off,0,0,4,,,,,,,,,4,,,49,0
573840,note_on,0,0,4,,,,,,,,,4,,,50,80
573840,note_on,0,0,2,,,,,,,,,1,,,68,79
573840,note_on,0,0,4,,,,,,,,,4,,,62,80
573996,note_off,156,0,1,,,,,,,,,0,,,70,0
573996,note_off,156,0,2,,,,,,,,,1,,,68,0
573996,note_off,0,0,2,,,,,,,,,1,,,65,0
574020,set_tempo,2340,1,0,,,,,,402684,,,,,,,
574080,note_on,0,0,1,,,,,,,,,0,,,70,71
574080,control_change,84,0,1,,,,,,,64,0,0,,,,
574080,note_on,0,0,4,,,,,,,,,4,,,63,78
574080,control_change,240,0,4,,,,,,,64,127,4,,,,
574080,note_on,0,0,4,,,,,,,,,4,,,51,78
574080,note_off,0,0,4,,,,,,,,,4,,,50,0
574080,note_off,0,0,4,,,,,,,,,4,,,62,0
574080,note_on,84,0,2,,,,,,,,,1,,,67,77
574140,note_on,60,0,1,,,,,,,,,0,,,72,70
574180,note_off,40,0,1,,,,,,,,,0,,,70,0
574200,note_on,20,0,1,,,,,,,,,0,,,70,69
574235,note_off,35,0,1,,,,,,,,,0,,,72,0
574260,note_on,25,0,1,,,,,,,,,0,,,72,68
574305,note_off,45,0,1,,,,,,,,,0,,,70,0
574320,note_on,15,0,1,,,,,,,,,0,,,70,67
574355,note_off,35,0,1,,,,,,,,,0,,,72,0
574380,note_on,25,0,1,,,,,,,,,0,,,72,66
574425,note_off,45,0,1,,,,,,,,,0,,,70,0
574440,note_on,15,0,1,,,,,,,,,0,,,70,65
574485,note_off,45,0,1,,,,,,,,,0,,,72,0
574500,note_on,15,0,1,,,,,,,,,0,,,72,64
574540,note_off,40,0,1,,,,,,,,,0,,,70,0
574560,note_on,20,0,1,,,,,,,,,0,,,70,63
574590,note_off,30,0,1,,,,,,,,,0,,,72,0
574600,note_on,10,0,1,,,,,,,,,0,,,72,62
574630,note_off,30,0,1,,,,,,,,,0,,,70,0
574640,note_on,10,0,1,,,,,,,,,0,,,70,62
574680,set_tempo,660,1,0,,,,,,408163,,,,,,,
574680,note_on,40,0,1,,,,,,,,,0,,,69,61
574690,note_off,10,0,1,,,,,,,,,0,,,72,0
574715,note_off,25,0,1,,,,,,,,,0,,,70,0
574740,note_on,25,0,1,,,,,,,,,0,,,70,60
574740,set_tempo,60,1,0,,,,,,425531,,,,,,,
574770,note_off,30,0,1,,,,,,,,,0,,,69,0
574794,set_tempo,54,1,0,,,,,,425531,,,,,,,
574800,note_on,0,0,4,,,,,,,,,4,,,51,88
574800,control_change,30,0,1,,,,,,,64,127,0,,,,
574800,control_change,720,0,2,,,,,,,64,127,1,,,,
574800,note_off,0,0,2,,,,,,,,,1,,,67,0
574800,note_on,0,0,2,,,,,,,,,1,,,67,85
574800,note_off,0,0,1,,,,,,,,,0,,,70,0
574800,note_on,0,0,2,,,,,,,,,1,,,70,85
574800,note_on,0,0,4,,,,,,,,,4,,,39,88
574800,note_off,0,0,4,,,,,,,,,4,,,51,0
574800,note_off,720,0,4,,,,,,,,,4,,,63,0
574800,note_on,0,0,1,,,,,,,,,0,,,73,91
575040,note_off,240,0,2,,,,,,,,,1,,,70,0
575040,note_off,0,0,2,,,,,,,,,1,,,67,0
575040,note_on,0,0,1,,,,,,,,,0,,,70,82
575040,set_tempo,246,1,0,,,,,,413793,,,,,,,
575040,note_off,240,0,1,,,,,,,,,0,,,73,0
575280,note_off,240,0,1,,,,,,,,,0,,,70,0
575280,note_on,0,0,1,,,,,,,,,0,,,67,75
575325,set_tempo,285,1,0,,,,,,431654,,,,,,,
575520,note_off,720,0,4,,,,,,,,,4,,,51,0
575520,note_on,0,0,1,,,,,,,,,0,,,61,71
575520,note_off,0,0,4,,,,,,,,,4,,,39,0
575520,note_off,240,0,1,,,,,,,,,0,,,67,0
575580,set_tempo,255,1,0,,,,,,434782,,,,,,,
575760,note_off,240,0,1,,,,,,,,,0,,,61,0
575760,note_on,0,0,1,,,,,,,,,0,,,58,69
575804,set_tempo,224,1,0,,,,,,437956,,,,,,,
575972,set_tempo,168,1,0,,,,,,441176,,,,,,,
576000,note_off,240,0,1,,,,,,,,,0,,,58,0
576000,note_on,0,0,1,,,,,,,,,0,,,55,66
576120,set_tempo,148,1,0,,,,,,444444,,,,,,,
576240,note_on,0,0,1,,,,,,,,,0,,,49,63
576240,note_off,240,0,1,,,,,,,,,0,,,55,0
576244,set_tempo,124,1,0,,,,,,447761,,,,,,,
576360,set_tempo,116,1,0,,,,,,451127,,,,,,,
576464,set_tempo,104,1,0,,,,,,454545,,,,,,,
576480,note_on,0,0,1,,,,,,,,,0,,,46,60
576480,note_off,240,0,1,,,,,,,,,0,,,49,0
576564,set_tempo,100,1,0,,,,,,458015,,,,,,,
576656,set_tempo,92,1,0,,,,,,461538,,,,,,,
576720,note_off,240,0,1,,,,,,,,,0,,,46,0
576720,set_tempo,64,1,0,,,,,,500000,,,,,,,
576720,note_on,0,0,1,,,,,,,,,0,,,43,57
576960,note_off,240,0,1,,,,,,,,,0,,,43,0
576960,note_on,0,0,1,,,,,,,,,0,,,39,57
576980,set_tempo,260,1,0,,,,,,476190,,,,,,,
577056,set_tempo,76,1,0,,,,,,480000,,,,,,,
577124,set_tempo,68,1,0,,,,,,483870,,,,,,,
577196,set_tempo,72,1,0,,,,,,487804,,,,,,,
577200,note_off,240,0,1,,,,,,,,,0,,,39,0
577200,note_on,0,0,1,,,,,,,,,0,,,43,55
577260,set_tempo,64,1,0,,,,,,491803,,,,,,,
577324,set_tempo,64,1,0,,,,,,495867,,,,,,,
577388,set_tempo,64,1,0,,,,,,500000,,,,,,,
577440,note_off,240,0,1,,,,,,,,,0,,,43,0
577440,note_on,0,0,1,,,,,,,,,0,,,46,53
577448,set_tempo,60,1,0,,,,,,504201,,,,,,,
577508,set_tempo,60,1,0,,,,,,508474,,,,,,,
577564,set_tempo,56,1,0,,,,,,512820,,,,,,,
577624,set_tempo,60,1,0,,,,,,517241,,,,,,,
577676,set_tempo,52,1,0,,,,,,521739,,,,,,,
577680,note_off,240,0,1,,,,,,,,,0,,,46,0
577680,note_on,0,0,1,,,,,,,,,0,,,49,51
577732,set_tempo,56,1,0,,,,,,526315,,,,,,,
577784,set_tempo,52,1,0,,,,,,530973,,,,,,,
577836,set_tempo,52,1,0,,,,,,535714,,,,,,,
577888,set_tempo,52,1,0,,,,,,540540,,,,,,,
577920,note_on,0,0,1,,,,,,,,,0,,,55,50
577920,note_off,240,0,1,,,,,,,,,0,,,49,0
577940,set_tempo,52,1,0,,,,,,545454,,,,,,,
577988,set_tempo,48,1,0,,,,,,550458,,,,,,,
578036,set_tempo,48,1,0,,,,,,555555,,,,,,,
578084,set_tempo,48,1,0,,,,,,560747,,,,,,,
578132,set_tempo,48,1,0,,,,,,566037,,,,,,,
578160,note_on,0,0,1,,,,,,,,,0,,,58,48
578160,note_off,240,0,1,,,,,,,,,0,,,55,0
578180,set_tempo,48,1,0,,,,,,571428,,,,,,,
578224,set_tempo,44,1,0,,,,,,576923,,,,,,,
578272,set_tempo,48,1,0,,,,,,582524,,,,,,,
578316,set_tempo,44,1,0,,,,,,588235,,,,,,,
578360,set_tempo,44,1,0,,,,,,594059,,,,,,,
578400,note_off,240,0,1,,,,,,,,,0,,,58,0
578400,note_on,0,0,1,,,,,,,,,0,,,61,46
578535,set_tempo,175,1,0,,,,,,895522,,,,,,,
578640,note_on,0,0,1,,,,,,,,,0,,,67,44
578640,set_tempo,105,1,0,,,,,,952380,,,,,,,
578640,note_off,240,0,1,,,,,,,,,0,,,61,0
578880,note_on,0,0,1,,,,,,,,,0,,,70,42
578880,note_off,240,0,1,,,,,,,,,0,,,67,0
578880,set_tempo,240,1,0,,,,,,1500000,,,,,,,
579120,note_on,0,0,2,,,,,,,,,1,,,61,44
579120,set_tempo,240,1,0,,,,,,1071428,,,,,,,
579120,note_on,3600,0,4,,,,,,,,,4,,,39,40
579120,note_off,240,0,1,,,,,,,,,0,,,70,0
579120,note_on,0,0,1,,,,,,,,,0,,,73,40
579120,note_on,0,0,4,,,,,,,,,4,,,51,40
579120,note_on,4080,0,2,,,,,,,,,1,,,70,44
579120,note_on,0,0,2,,,,,,,,,1,,,67,44
579840,note_off,0,0,4,,,,,,,,,4,,,39,0
579840,note_off,720,0,4,,,,,,,,,4,,,51,0
579840,note_off,720,0,2,,,,,,,,,1,,,61,0
579840,note_off,0,0,2,,,,,,,,,1,,,67,0
579840,note_off,0,0,2,,,,,,,,,1,,,70,0
579840,time_signature,720,1,0,4,4,24,8,,,,,,,,,
579840,note_off,720,0,1,,,,,,,,,0,,,73,0
580790,set_tempo,950,1,0,,,,,,1016949,,,,,,,
580800,note_on,0,0,2,,,,,,,,,1,,,70,46
580800,marker,0,1,0,,,,,,,,,,,,,
580800,control_change,960,0,2,,,,,,,64,0,1,,,,
580800,control_change,162240,0,3,,,,,,,64,0,2,,,,
580800,note_on,0,0,2,,,,,,,,,1,,,67,46
580800,note_on,0,0,2,,,,,,,,,1,,,62,46
580800,set_tempo,10,1,0,,,,,,1071428,,,,,,,
580800,control_change,960,0,4,,,,,,,64,0,4,,,,
580800,control_change,960,0,1,,,,,,,64,0,0,,,,
580800,note_on,0,0,1,,,,,,,,,0,,,74,46
580860,control_change,60,0,2,,,,,,,64,127,1,,,,
580860,control_change,60,0,4,,,,,,,64,127,4,,,,
580860,control_change,60,0,3,,,,,,,64,127,2,,,,
580860,control_change,60,0,1,,,,,,,64,127,0,,,,
580960,note_off,100,0,1,,,,,,,,,0,,,74,0
580960,note_off,0,0,2,,,,,,,,,1,,,67,0
580960,note_off,100,0,2,,,,,,,,,1,,,62,0
580960,set_tempo,160,1,0,,,,,,1052631,,,,,,,
580960,note_on,100,0,4,,,,,,,,,4,,,70,44
580960,note_off,0,0,2,,,,,,,,,1,,,70,0
580968,set_tempo,8,1,0,,,,,,1034482,,,,,,,
581076,set_tempo,108,1,0,,,,,,1071428,,,,,,,
581120,note_on,0,0,4,,,,,,,,,4,,,67,43
581120,note_off,160,0,4,,,,,,,,,4,,,70,0
581132,set_tempo,56,1,0,,,,,,1090909,,,,,,,
581188,set_tempo,56,1,0,,,,,,1111111,,,,,,,
581244,set_tempo,56,1,0,,,,,,1132075,,,,,,,
581280,note_off,160,0,4,,,,,,,,,4,,,67,0
581280,note_on,0,0,4,,,,,,,,,4,,,62,43
581300,set_tempo,56,1,0,,,,,,1153846,,,,,,,
581352,set_tempo,52,1,0,,,,,,1176470,,,,,,,
581408,set_tempo,56,1,0,,,,,,1200000,,,,,,,
581440,note_off,160,0,4,,,,,,,,,4,,,62,0
581440,note_on,0,0,4,,,,,,,,,4,,,58,42
581464,set_tempo,56,1,0,,,,,,1224489,,,,,,,
581520,set_tempo,56,1,0,,,,,,1250000,,,,,,,
581576,set_tempo,56,1,0,,,,,,1276595,,,,,,,
581600,note_on,0,0,4,,,,,,,,,4,,,55,41
581600,note_off,160,0,4,,,,,,,,,4,,,58,0
581628,set_tempo,52,1,0,,,,,,1304347,,,,,,,
581684,set_tempo,56,1,0,,,,,,1333333,,,,,,,
581740,set_tempo,56,1,0,,,,,,1363636,,,,,,,
581760,control_change,900,0,3,,,,,,,64,0,2,,,,
581760,note_off,160,0,4,,,,,,,,,4,,,55,0
581760,note_on,0,0,4,,,,,,,,,4,,,50,40
581796,set_tempo,56,1,0,,,,,,1395348,,,,,,,
581852,set_tempo,56,1,0,,,,,,1428571,,,,,,,
581904,set_tempo,52,1,0,,,,,,1463414,,,,,,,
581920,note_on,0,0,4,,,,,,,,,4,,,46,39
581920,note_off,160,0,4,,,,,,,,,4,,,50,0
581960,set_tempo,56,1,0,,,,,,1500000,,,,,,,
582016,set_tempo,56,1,0,,,,,,1538461,,,,,,,
582072,set_tempo,56,1,0,,,,,,1578947,,,,,,,
582080,note_off,160,0,4,,,,,,,,,4,,,46,0
582080,note_on,0,0,4,,,,,,,,,4,,,43,39
582128,set_tempo,56,1,0,,,,,,1621621,,,,,,,
582180,set_tempo,52,1,0,,,,,,1666666,,,,,,,
582236,set_tempo,56,1,0,,,,,,1714285,,,,,,,
582240,note_off,160,0,4,,,,,,,,,4,,,43,0
582240,note_on,0,0,4,,,,,,,,,4,,,38,38
582292,set_tempo,56,1,0,,,,,,1764705,,,,,,,
582348,set_tempo,56,1,0,,,,,,1818181,,,,,,,
582400,note_on,640,0,3,,,,,,,,,2,,,50,37
582400,note_on,0,0,3,,,,,,,,,2,,,55,37
582400,note_on,0,0,3,,,,,,,,,2,,,46,37
582400,note_on,0,0,3,,,,,,,,,2,,,38,37
582400,note_off,160,0,4,,,,,,,,,4,,,38,0
582400,note_on,0,0,4,,,,,,,,,4,,,34,37
582400,note_on,0,0,4,,,,,,,,,4,,,62,37
582552,set_tempo,204,1,0,,,,,,1875000,,,,,,,
582560,note_on,0,0,3,,,,,,,,,2,,,46,36
582560,note_on,0,0,4,,,,,,,,,4,,,62,36
582560,note_on,0,0,4,,,,,,,,,4,,,34,36
582560,note_off,160,0,3,,,,,,,,,2,,,38,0
582560,note_off,0,0,3,,,,,,,,,2,,,46,0
582560,note_off,0,0,3,,,,,,,,,2,,,55,0
582560,note_off,0,0,4,,,,,,,,,4,,,34,0
582560,note_on,0,0,3,,,,,,,,,2,,,55,36
582560,note_on,0,0,3,,,,,,,,,2,,,50,36
582560,note_off,0,0,3,,,,,,,,,2,,,50,0
582560,note_on,0,0,3,,,,,,,,,2,,,38,36
582560,note_off,160,0,4,,,,,,,,,4,,,62,0
582720,note_off,160,0,3,,,,,,,,,2,,,38,0
582720,set_tempo,168,1,0,,,,,,1935483,,,,,,,
582720,note_on,0,0,4,,,,,,,,,4,,,62,36
582720,note_on,0,0,4,,,,,,,,,4,,,34,36
582720,note_off,160,0,4,,,,,,,,,4,,,62,0
582720,note_off,0,0,4,,,,,,,,,4,,,34,0
582720,note_on,0,0,3,,,,,,,,,2,,,50,36
582720,note_on,0,0,3,,,,,,,,,2,,,46,36
582720,note_on,0,0,3,,,,,,,,,2,,,55,36
582720,note_off,0,0,3,,,,,,,,,2,,,46,0
582720,note_off,0,0,3,,,,,,,,,2,,,55,0
582720,note_off,0,0,3,,,,,,,,,2,,,50,0
582720,note_on,0,0,3,,,,,,,,,2,,,38,36
582870,set_tempo,150,1,0,,,,,,2068965,,,,,,,
582880,note_off,160,0,4,,,,,,,,,4,,,62,0
582880,note_off,0,0,4,,,,,,,,,4,,,34,0
582880,note_on,0,0,4,,,,,,,,,4,,,31,39
582880,note_on,0,0,4,,,,,,,,,4,,,62,39
582880,note_on,0,0,3,,,,,,,,,2,,,50,39
582880,note_off,0,0,3,,,,,,,,,2,,,55,0
582880,note_on,0,0,3,,,,,,,,,2,,,58,39
582880,note_off,0,0,3,,,,,,,,,2,,,50,0
582880,note_off,160,0,3,,,,,,,,,2,,,38,0
582880,note_on,0,0,3,,,,,,,,,2,,,55,39
582880,note_on,0,0,3,,,,,,,,,2,,,43,39
582880,note_on,0,0,3,,,,,,,,,2,,,38,39
582880,note_off,0,0,3,,,,,,,,,2,,,46,0
583040,note_off,0,0,3,,,,,,,,,2,,,55,0
583040,note_on,0,0,3,,,,,,,,,2,,,55,38
583040,note_on,0,0,3,,,,,,,,,2,,,43,38
583040,note_on,0,0,3,,,,,,,,,2,,,46,38
583040,note_off,160,0,3,,,,,,,,,2,,,38,0
583040,note_off,0,0,3,,,,,,,,,2,,,43,0
583040,note_off,0,0,3,,,,,,,,,2,,,58,0
583040,note_off,0,0,3,,,,,,,,,2,,,50,0
583040,note_on,0,0,3,,,,,,,,,2,,,58,38
583040,note_off,160,0,4,,,,,,,,,4,,,62,0
583040,note_off,0,0,4,,,,,,,,,4,,,31,0
583040,note_on,0,0,4,,,,,,,,,4,,,38,38
583040,note_on,0,0,4,,,,,,,,,4,,,62,38
583040,note_on,0,0,3,,,,,,,,,2,,,50,38
583200,note_off,0,0,4,,,,,,,,,4,,,38,0
583200,note_off,160,0,3,,,,,,,,,2,,,46,0
583200,note_off,0,0,3,,,,,,,,,2,,,43,0
583200,note_on,0,0,4,,,,,,,,,4,,,38,35
583200,note_on,0,0,4,,,,,,,,,4,,,62,35
583200,note_off,160,0,4,,,,,,,,,4,,,62,0
583200,note_off,0,0,3,,,,,,,,,2,,,55,0
583200,note_off,0,0,3,,,,,,,,,2,,,58,0
583200,note_off,0,0,3,,,,,,,,,2,,,50,0
583200,note_on,0,0,3,,,,,,,,,2,,,50,36
583200,note_on,0,0,3,,,,,,,,,2,,,58,36
583200,note_on,0,0,3,,,,,,,,,2,,,55,36
583200,note_on,0,0,3,,,,,,,,,2,,,43,36
583200,note_on,0,0,3,,,,,,,,,2,,,46,36
583320,set_tempo,450,1,0,,,,,,2222222,,,,,,,
583360,note_off,160,0,3,,,,,,,,,2,,,46,0
583360,note_on,0,0,4,,,,,,,,,4,,,38,33
583360,note_on,0,0,4,,,,,,,,,4,,,62,33
583360,note_off,0,0,3,,,,,,,,,2,,,43,0
583360,note_off,0,0,3,,,,,,,,,2,,,55,0
583360,note_off,0,0,3,,,,,,,,,2,,,58,0
583360,note_off,0,0,3,,,,,,,,,2,,,50,0
583360,note_off,0,0,4,,,,,,,,,4,,,38,0
583360,note_on,0,0,3,,,,,,,,,2,,,55,34
583360,note_on,0,0,3,,,,,,,,,2,,,50,34
583360,note_on,0,0,3,,,,,,,,,2,,,43,34
583360,note_on,0,0,3,,,,,,,,,2,,,46,34
583360,note_off,160,0,4,,,,,,,,,4,,,62,0
583360,note_on,0,0,3,,,,,,,,,2,,,58,34
583480,set_tempo,160,1,0,,,,,,2400000,,,,,,,
583520,note_on,0,0,3,,,,,,,,,2,,,50,32
583520,note_on,0,0,3,,,,,,,,,2,,,55,32
583520,note_on,0,0,3,,,,,,,,,2,,,58,32
583520,set_tempo,40,1,0,,,,,,3000000,,,,,,,
583520,note_off,0,0,3,,,,,,,,,2,,,58,0
583520,note_off,0,0,3,,,,,,,,,2,,,50,0
583520,note_off,0,0,3,,,,,,,,,2,,,43,0
583520,note_off,160,0,4,,,,,,,,,4,,,62,0
583520,note_off,0,0,4,,,,,,,,,4,,,38,0
583520,note_on,0,0,4,,,,,,,,,4,,,38,30
583520,note_on,0,0,4,,,,,,,,,4,,,62,30
583520,note_off,160,0,3,,,,,,,,,2,,,46,0
583520,note_on,0,0,3,,,,,,,,,2,,,46,32
583520,note_off,0,0,3,,,,,,,,,2,,,55,0
583520,note_on,0,0,3,,,,,,,,,2,,,43,32
583620,set_tempo,100,1,0,,,,,,2222222,,,,,,,
583630,note_off,0,0,3,,,,,,,,,2,,,55,0
583630,note_off,110,0,3,,,,,,,,,2,,,50,0
583630,note_off,110,0,4,,,,,,,,,4,,,62,0
583635,note_off,5,0,3,,,,,,,,,2,,,58,0
583640,note_on,2680,0,1,,,,,,,,,0,,,62,52
583665,control_change,25,0,1,,,,,,,64,0,0,,,,
583680,note_off,45,0,3,,,,,,,,,2,,,46,0
583680,note_off,0,0,3,,,,,,,,,2,,,43,0
583680,control_change,2720,0,2,,,,,,,64,0,1,,,,
583680,note_on,0,0,4,,,,,,,,,4,,,43,34
583680,note_on,0,0,4,,,,,,,,,4,,,46,34
583680,note_on,15,0,1,,,,,,,,,0,,,74,53
583680,set_tempo,60,1,0,,,,,,2068965,,,,,,,
583680,note_on,0,0,4,,,,,,,,,4,,,50,34
583680,control_change,50,0,4,,,,,,,64,0,4,,,,
583680,note_off,0,0,4,,,,,,,,,4,,,38,0
583840,note_off,160,0,4,,,,,,,,,4,,,50,0
583840,note_off,0,0,4,,,,,,,,,4,,,46,0
583840,note_on,0,0,4,,,,,,,,,4,,,50,33
583840,note_on,0,0,4,,,,,,,,,4,,,43,33
583840,note_off,0,0,4,,,,,,,,,4,,,43,0
583840,note_on,0,0,4,,,,,,,,,4,,,46,33
584000,note_off,0,0,4,,,,,,,,,4,,,43,0
584000,note_on,0,0,4,,,,,,,,,4,,,46,32
584000,note_on,0,0,4,,,,,,,,,4,,,50,32
584000,note_off,160,0,4,,,,,,,,,4,,,50,0
584000,note_on,0,0,4,,,,,,,,,4,,,43,32
584000,note_off,0,0,4,,,,,,,,,4,,,46,0
584160,note_off,160,0,4,,,,,,,,,4,,,50,0
584160,note_off,0,0,4,,,,,,,,,4,,,46,0
584160,note_off,0,0,4,,,,,,,,,4,,,43,0
584160,note_on,0,0,4,,,,,,,,,4,,,43,31
584160,note_on,0,0,4,,,,,,,,,4,,,46,31
584160,note_on,0,0,4,,,,,,,,,4,,,50,31
584320,note_on,0,0,4,,,,,,,,,4,,,46,30
584320,note_off,160,0,4,,,,,,,,,4,,,50,0
584320,note_off,0,0,4,,,,,,,,,4,,,46,0
584320,note_off,0,0,4,,,,,,,,,4,,,43,0
584320,note_on,0,0,4,,,,,,,,,4,,,43,30
584320,note_on,0,0,4,,,,,,,,,4,,,50,30
584475,note_off,795,0,1,,,,,,,,,0,,,74,0
584480,note_on,5,0,1,,,,,,,,,0,,,72,49
584480,note_on,0,0,4,,,,,,,,,4,,,46,29
584480,note_on,0,0,4,,,,,,,,,4,,,43,29
584480,note_on,0,0,4,,,,,,,,,4,,,50,29
584480,note_off,0,0,4,,,,,,,,,4,,,46,0
584480,note_off,160,0,4,,,,,,,,,4,,,50,0
584480,note_off,0,0,4,,,,,,,,,4,,,43,0
584600,note_off,120,0,1,,,,,,,,,0,,,62,0
584640,note_on,0,0,1,,,,,,,,,0,,,72,48
584640,note_off,40,0,1,,,,,,,,,0,,,72,0
584640,note_on,0,0,4,,,,,,,,,4,,,50,29
584640,note_on,0,0,4,,,,,,,,,4,,,43,29
584640,note_off,0,0,4,,,,,,,,,4,,,43,0
584640,note_off,0,0,4,,,,,,,,,4,,,46,0
584640,note_off,160,0,4,,,,,,,,,4,,,50,0
584640,note_on,0,0,4,,,,,,,,,4,,,46,29
584800,note_off,160,0,4,,,,,,,,,4,,,50,0
584800,note_off,0,0,4,,,,,,,,,4,,,46,0
584800,note_off,0,0,4,,,,,,,,,4,,,43,0
584800,note_on,0,0,4,,,,,,,,,4,,,43,28
584800,note_on,0,0,4,,,,,,,,,4,,,46,28
584800,note_on,0,0,4,,,,,,,,,4,,,50,28
584800,note_off,160,0,1,,,,,,,,,0,,,72,0
584800,note_on,0,0,1,,,,,,,,,0,,,70,47
584960,note_on,0,0,4,,,,,,,,,4,,,46,27
584960,note_on,0,0,4,,,,,,,,,4,,,50,27
584960,note_on,0,0,4,,,,,,,,,4,,,43,27
584960,note_off,0,0,4,,,,,,,,,4,,,43,0
584960,note_off,0,0,4,,,,,,,,,4,,,46,0
584960,note_off,160,0,4,,,,,,,,,4,,,50,0
584960,note_off,160,0,1,,,,,,,,,0,,,70,0
585040,note_on,80,0,1,,,,,,,,,0,,,69,46
585120,control_change,1440,0,3,,,,,,,64,0,2,,,,
585120,note_on,0,0,4,,,,,,,,,4,,,50,26
585120,note_off,80,0,1,,,,,,,,,0,,,69,0
585120,note_on,0,0,1,,,,,,,,,0,,,69,45
585120,note_off,160,0,4,,,,,,,,,4,,,50,0
585120,note_off,0,0,4,,,,,,,,,4,,,46,0
585120,note_off,0,0,4,,,,,,,,,4,,,43,0
585120,note_on,0,0,4,,,,,,,,,4,,,43,26
585120,note_on,0,0,4,,,,,,,,,4,,,46,26
585280,note_off,160,0,1,,,,,,,,,0,,,69,0
585280,note_on,0,0,1,,,,,,,,,0,,,70,43
585280,note_on,0,0,4,,,,,,,,,4,,,43,26
585280,note_off,160,0,4,,,,,,,,,4,,,50,0
585280,note_on,0,0,4,,,,,,,,,4,,,46,26
585280,note_off,0,0,4,,,,,,,,,4,,,43,0
585280,note_on,0,0,4,,,,,,,,,4,,,50,26
585280,note_off,0,0,4,,,,,,,,,4,,,46,0
585440,note_on,0,0,4,,,,,,,,,4,,,50,25
585440,note_on,0,0,4,,,,,,,,,4,,,46,25
585440,note_on,0,0,4,,,,,,,,,4,,,43,25
585440,note_off,0,0,4,,,,,,,,,4,,,43,0
585440,note_off,0,0,4,,,,,,,,,4,,,46,0
585440,note_off,160,0,1,,,,,,,,,0,,,70,0
585440,note_off,160,0,4,,,,,,,,,4,,,50,0
585502,control_change,62,0,4,,,,,,,64,0,4,,,,
585520,note_on,80,0,1,,,,,,,,,0,,,67,43
585540,set_tempo,1860,1,0,,,,,,2222222,,,,,,,
585600,set_tempo,60,1,0,,,,,,2068965,,,,,,,
585600,note_on,0,0,1,,,,,,,,,0,,,67,44
585600,note_on,0,0,4,,,,,,,,,4,,,48,26
585600,note_on,0,0,4,,,,,,,,,4,,,50,26
585600,note_on,0,0,4,,,,,,,,,4,,,45,26
585600,note_off,0,0,4,,,,,,,,,4,,,43,0
585600,note_off,0,0,4,,,,,,,,,4,,,46,0
585600,note_off,98,0,4,,,,,,,,,4,,,50,0
585600,note_off,80,0,1,,,,,,,,,0,,,67,0
585760,note_off,0,0,4,,,,,,,,,4,,,45,0
585760,note_off,160,0,4,,,,,,,,,4,,,48,0
585760,note_on,0,0,4,,,,,,,,,4,,,45,26
585760,note_on,0,0,4,,,,,,,,,4,,,54,26
585760,note_off,0,0,4,,,,,,,,,4,,,50,0
585760,note_on,0,0,4,,,,,,,,,4,,,48,26
585760,note_on,0,0,4,,,,,,,,,4,,,50,26
585920,note_on,0,0,4,,,,,,,,,4,,,50,27
585920,note_on,0,0,4,,,,,,,,,4,,,54,27
585920,note_on,0,0,4,,,,,,,,,4,,,45,27
585920,note_off,0,0,4,,,,,,,,,4,,,45,0
585920,note_on,0,0,4,,,,,,,,,4,,,48,27
585920,note_off,0,0,4,,,,,,,,,4,,,48,0
585920,note_off,160,0,4,,,,,,,,,4,,,50,0
585920,note_on,320,0,1,,,,,,,,,0,,,66,41
585920,note_off,0,0,4,,,,,,,,,4,,,54,0
585930,note_off,10,0,1,,,,,,,,,0,,,67,0
586080,note_on,0,0,4,,,,,,,,,4,,,54,28
586080,note_off,160,0,4,,,,,,,,,4,,,50,0
586080,note_off,0,0,4,,,,,,,,,4,,,48,0
586080,note_off,0,0,4,,,,,,,,,4,,,54,0
586080,note_off,0,0,4,,,,,,,,,4,,,45,0
586080,note_on,0,0,4,,,,,,,,,4,,,45,28
586080,note_on,0,0,4,,,,,,,,,4,,,48,28
586080,note_on,0,0,4,,,,,,,,,4,,,50,28
586240,note_on,0,0,4,,,,,,,,,4,,,50,29
586240,note_off,0,0,4,,,,,,,,,4,,,54,0
586240,note_on,0,0,4,,,,,,,,,4,,,48,29
586240,note_on,0,0,4,,,,,,,,,4,,,54,29
586240,note_on,0,0,4,,,,,,,,,4,,,45,29
586240,note_off,0,0,4,,,,,,,,,4,,,45,0
586240,note_off,0,0,4,,,,,,,,,4,,,48,0
586240,note_off,160,0,4,,,,,,,,,4,,,50,0
586400,note_off,160,0,4,,,,,,,,,4,,,50,0
586400,note_off,0,0,4,,,,,,,,,4,,,48,0
586400,note_off,0,0,4,,,,,,,,,4,,,54,0
586400,note_off,0,0,4,,,,,,,,,4,,,45,0
586400,note_on,0,0,4,,,,,,,,,4,,,45,29
586400,note_on,0,0,4,,,,,,,,,4,,,54,29
586400,note_on,0,0,4,,,,,,,,,4,,,48,29
586400,note_on,0,0,4,,,,,,,,,4,,,50,29
586400,note_on,470,0,1,,,,,,,,,0,,,75,46
586410,note_off,10,0,1,,,,,,,,,0,,,66,0
586560,note_off,150,0,1,,,,,,,,,0,,,75,0
586560,note_on,0,0,4,,,,,,,,,4,,,50,30
586560,note_on,0,0,4,,,,,,,,,4,,,48,30
586560,note_off,0,0,4,,,,,,,,,4,,,48,0
586560,note_on,0,0,4,,,,,,,,,4,,,45,30
586560,note_off,0,0,4,,,,,,,,,4,,,45,0
586560,note_off,0,0,4,,,,,,,,,4,,,54,0
586560,note_off,160,0,4,,,,,,,,,4,,,50,0
586560,note_on,0,0,4,,,,,,,,,4,,,54,30
586720,note_on,0,0,4,,,,,,,,,4,,,50,31
586720,note_on,160,0,1,,,,,,,,,0,,,75,48
586720,note_on,0,0,4,,,,,,,,,4,,,48,31
586720,note_on,0,0,4,,,,,,,,,4,,,45,31
586720,note_off,0,0,4,,,,,,,,,4,,,45,0
586720,note_off,160,0,4,,,,,,,,,4,,,50,0
586720,note_off,0,0,4,,,,,,,,,4,,,48,0
586720,note_off,0,0,4,,,,,,,,,4,,,54,0
586720,note_on,0,0,4,,,,,,,,,4,,,54,31
586880,note_off,160,0,4,,,,,,,,,4,,,50,0
586880,note_off,0,0,4,,,,,,,,,4,,,48,0
586880,note_off,0,0,4,,,,,,,,,4,,,54,0
586880,note_off,0,0,4,,,,,,,,,4,,,45,0
586880,note_on,0,0,4,,,,,,,,,4,,,45,32
586880,note_on,0,0,4,,,,,,,,,4,,,54,32
586880,note_on,0,0,4,,,,,,,,,4,,,48,32
586880,note_on,0,0,4,,,,,,,,,4,,,50,32
586880,note_off,160,0,1,,,,,,,,,0,,,75,0
586880,note_on,0,0,1,,,,,,,,,0,,,77,51
586960,note_on,0,0,1,,,,,,,,,0,,,75,47
586960,note_off,80,0,1,,,,,,,,,0,,,77,0
587040,note_off,80,0,1,,,,,,,,,0,,,75,0
587040,note_on,0,0,4,,,,,,,,,4,,,45,32
587040,note_off,0,0,4,,,,,,,,,4,,,45,0
587040,note_off,0,0,4,,,,,,,,,4,,,54,0
587040,note_off,0,0,4,,,,,,,,,4,,,48,0
587040,note_off,160,0,4,,,,,,,,,4,,,50,0
587040,note_on,0,0,4,,,,,,,,,4,,,54,32
587040,note_on,0,0,4,,,,,,,,,4,,,48,32
587040,note_on,0,0,4,,,,,,,,,4,,,50,32
587200,note_on,0,0,4,,,,,,,,,4,,,54,33
587200,note_on,0,0,4,,,,,,,,,4,,,45,33
587200,note_off,0,0,4,,,,,,,,,4,,,45,0
587200,note_off,0,0,4,,,,,,,,,4,,,54,0
587200,note_off,0,0,4,,,,,,,,,4,,,48,0
587200,note_on,0,0,4,,,,,,,,,4,,,48,33
587200,note_on,160,0,1,,,,,,,,,0,,,74,53
587200,note_on,0,0,4,,,,,,,,,4,,,50,33
587200,note_off,160,0,4,,,,,,,,,4,,,50,0
587360,note_off,0,0,4,,,,,,,,,4,,,54,0
587360,note_on,0,0,4,,,,,,,,,4,,,45,31
587360,note_off,0,0,4,,,,,,,,,4,,,45,0
587360,note_off,0,0,4,,,,,,,,,4,,,50,0
587360,note_on,0,0,4,,,,,,,,,4,,,54,31
587360,note_on,0,0,1,,,,,,,,,0,,,75,49
587360,note_on,0,0,4,,,,,,,,,4,,,50,31
587360,note_off,160,0,1,,,,,,,,,0,,,74,0
587360,note_off,160,0,4,,,,,,,,,4,,,48,0
587360,note_on,0,0,4,,,,,,,,,4,,,48,31
587440,note_on,0,0,1,,,,,,,,,0,,,74,47
587440,note_off,80,0,1,,,,,,,,,0,,,75,0
587460,set_tempo,1860,1,0,,,,,,2222222,,,,,,,
587520,note_off,0,0,4,,,,,,,,,4,,,45,0
587520,note_off,80,0,1,,,,,,,,,0,,,74,0
587520,note_on,0,0,1,,,,,,,,,0,,,74,46
587520,note_off,0,0,4,,,,,,,,,4,,,54,0
587520,note_on,0,0,4,,,,,,,,,4,,,46,30
587520,note_on,0,0,4,,,,,,,,,4,,,55,30
587520,note_on,0,0,4,,,,,,,,,4,,,50,30
587520,note_off,160,0,4,,,,,,,,,4,,,50,0
587520,set_tempo,60,1,0,,,,,,2068965,,,,,,,
587520,note_off,0,0,4,,,,,,,,,4,,,48,0
587680,note_on,0,0,4,,,,,,,,,4,,,50,30
587680,note_on,0,0,4,,,,,,,,,4,,,46,30
587680,note_off,0,0,4,,,,,,,,,4,,,46,0
587680,note_on,0,0,4,,,,,,,,,4,,,55,30
587680,note_off,160,0,4,,,,,,,,,4,,,50,0
587680,note_off,0,0,4,,,,,,,,,4,,,55,0
587835,note_off,315,0,1,,,,,,,,,0,,,74,0
587840,note_on,0,0,4,,,,,,,,,4,,,55,31
587840,note_on,5,0,1,,,,,,,,,0,,,79,48
587840,note_off,160,0,4,,,,,,,,,4,,,55,0
587840,note_off,0,0,4,,,,,,,,,4,,,50,0
587840,note_off,0,0,4,,,,,,,,,4,,,46,0
587840,note_on,0,0,4,,,,,,,,,4,,,46,31
587840,note_on,0,0,4,,,,,,,,,4,,,50,31
588000,note_on,0,0,4,,,,,,,,,4,,,55,32
588000,note_on,0,0,4,,,,,,,,,4,,,50,32
588000,note_on,0,0,4,,,,,,,,,4,,,47,32
588000,note_off,0,0,4,,,,,,,,,4,,,46,0
588000,note_off,0,0,4,,,,,,,,,4,,,55,0
588000,note_off,160,0,4,,,,,,,,,4,,,50,0
588160,note_on,0,0,4,,,,,,,,,4,,,55,33
588160,note_off,320,0,1,,,,,,,,,0,,,79,0
588160,note_on,0,0,1,,,,,,,,,0,,,79,48
588160,note_off,160,0,4,,,,,,,,,4,,,55,0
588160,note_off,0,0,4,,,,,,,,,4,,,50,0
588160,note_off,0,0,4,,,,,,,,,4,,,47,0
588160,note_on,0,0,4,,,,,,,,,4,,,47,33
588160,note_on,0,0,4,,,,,,,,,4,,,50,33
588320,note_off,0,0,4,,,,,,,,,4,,,55,0
588320,note_on,0,0,4,,,,,,,,,4,,,47,34
588320,note_on,0,0,1,,,,,,,,,0,,,77,47
588320,note_on,0,0,4,,,,,,,,,4,,,50,34
588320,note_off,160,0,1,,,,,,,,,0,,,79,0
588320,note_off,160,0,4,,,,,,,,,4,,,50,0
588320,note_on,0,0,4,,,,,,,,,4,,,55,34
588320,note_off,0,0,4,,,,,,,,,4,,,47,0
588480,note_off,160,0,4,,,,,,,,,4,,,55,0
588480,note_off,0,0,4,,,,,,,,,4,,,50,0
588480,note_on,0,0,4,,,,,,,,,4,,,55,34
588480,note_off,160,0,1,,,,,,,,,0,,,77,0
588480,note_on,0,0,4,,,,,,,,,4,,,48,34
588480,note_off,0,0,4,,,,,,,,,4,,,47,0
588480,note_on,0,0,4,,,,,,,,,4,,,51,34
588640,note_off,160,0,4,,,,,,,,,4,,,55,0
588640,note_off,0,0,4,,,,,,,,,4,,,51,0
588640,note_off,0,0,4,,,,,,,,,4,,,48,0
588640,note_on,0,0,4,,,,,,,,,4,,,48,35
588640,note_on,0,0,4,,,,,,,,,4,,,51,35
588640,note_on,0,0,4,,,,,,,,,4,,,55,35
588640,note_on,160,0,1,,,,,,,,,0,,,77,49
588800,note_on,0,0,4,,,,,,,,,4,,,51,36
588800,note_off,160,0,1,,,,,,,,,0,,,77,0
588800,note_on,0,0,1,,,,,,,,,0,,,75,46
588800,note_off,0,0,4,,,,,,,,,4,,,48,0
588800,note_on,0,0,4,,,,,,,,,4,,,48,36
588800,note_off,0,0,4,,,,,,,,,4,,,51,0
588800,note_off,160,0,4,,,,,,,,,4,,,55,0
588800,note_on,0,0,4,,,,,,,,,4,,,55,36
588960,note_off,160,0,4,,,,,,,,,4,,,55,0
588960,note_off,0,0,4,,,,,,,,,4,,,51,0
588960,note_off,0,0,4,,,,,,,,,4,,,48,0
588960,note_on,0,0,4,,,,,,,,,4,,,51,37
588960,note_on,0,0,4,,,,,,,,,4,,,55,37
588960,note_on,0,0,4,,,,,,,,,4,,,60,37
588960,note_off,160,0,1,,,,,,,,,0,,,75,0
589120,note_on,160,0,1,,,,,,,,,0,,,74,51
589120,note_on,0,0,4,,,,,,,,,4,,,51,38
589120,note_off,160,0,4,,,,,,,,,4,,,60,0
589120,note_on,0,0,4,,,,,,,,,4,,,60,38
589120,note_off,0,0,4,,,,,,,,,4,,,55,0
589120,note_off,0,0,4,,,,,,,,,4,,,51,0
589120,note_on,0,0,4,,,,,,,,,4,,,55,38
589280,note_on,0,0,1,,,,,,,,,0,,,72,48
589280,note_off,160,0,1,,,,,,,,,0,,,74,0
589280,note_off,160,0,4,,,,,,,,,4,,,60,0
589280,note_off,0,0,4,,,,,,,,,4,,,55,0
589280,note_on,0,0,4,,,,,,,,,4,,,60,38
589280,note_on,0,0,4,,,,,,,,,4,,,55,38
589280,note_on,0,0,4,,,,,,,,,4,,,51,38
589280,note_off,0,0,4,,,,,,,,,4,,,51,0
589380,set_tempo,1860,1,0,,,,,,2222222,,,,,,,
589440,note_off,160,0,4,,,,,,,,,4,,,60,0
589440,note_off,0,0,4,,,,,,,,,4,,,55,0
589440,note_off,0,0,4,,,,,,,,,4,,,51,0
589440,note_on,0,0,4,,,,,,,,,4,,,50,39
589440,note_on,0,0,4,,,,,,,,,4,,,58,39
589440,note_off,160,0,1,,,,,,,,,0,,,72,0
589440,note_on,0,0,4,,,,,,,,,4,,,55,39
589440,note_on,0,0,1,,,,,,,,,0,,,72,52
589440,set_tempo,60,1,0,,,,,,2068965,,,,,,,
589600,note_off,160,0,1,,,,,,,,,0,,,72,0
589600,note_on,0,0,1,,,,,,,,,0,,,70,51
589600,note_on,0,0,4,,,,,,,,,4,,,55,37
589600,note_off,0,0,4,,,,,,,,,4,,,58,0
589600,note_on,0,0,4,,,,,,,,,4,,,50,37
589600,note_on,0,0,4,,,,,,,,,4,,,58,37
589600,note_off,160,0,4,,,,,,,,,4,,,55,0
589600,note_off,0,0,4,,,,,,,,,4,,,50,0
589760,note_off,160,0,4,,,,,,,,,4,,,55,0
589760,note_off,0,0,4,,,,,,,,,4,,,58,0
589760,note_off,0,0,4,,,,,,,,,4,,,50,0
589760,note_on,0,0,4,,,,,,,,,4,,,50,36
589760,note_on,0,0,4,,,,,,,,,4,,,58,36
589760,note_off,160,0,1,,,,,,,,,0,,,70,0
589760,note_on,0,0,1,,,,,,,,,0,,,72,51
589760,note_on,0,0,4,,,,,,,,,4,,,55,36
589840,note_off,80,0,1,,,,,,,,,0,,,72,0
589840,note_on,0,0,1,,,,,,,,,0,,,74,47
589920,note_off,160,0,4,,,,,,,,,4,,,55,0
589920,note_off,0,0,4,,,,,,,,,4,,,58,0
589920,note_off,80,0,1,,,,,,,,,0,,,74,0
589920,note_on,0,0,4,,,,,,,,,4,,,50,36
589920,note_off,0,0,4,,,,,,,,,4,,,50,0
589920,note_on,0,0,4,,,,,,,,,4,,,58,36
589920,note_on,0,0,4,,,,,,,,,4,,,55,36
590080,note_off,0,0,4,,,,,,,,,4,,,58,0
590080,note_on,160,0,1,,,,,,,,,0,,,74,49
590080,note_off,160,0,4,,,,,,,,,4,,,55,0
590080,note_on,0,0,4,,,,,,,,,4,,,55,35
590080,note_on,0,0,4,,,,,,,,,4,,,58,35
590080,note_on,0,0,4,,,,,,,,,4,,,50,35
590080,note_off,0,0,4,,,,,,,,,4,,,50,0
590240,note_on,0,0,1,,,,,,,,,0,,,72,48
590240,note_off,160,0,1,,,,,,,,,0,,,74,0
590240,note_on,0,0,4,,,,,,,,,4,,,58,34
590240,note_off,160,0,4,,,,,,,,,4,,,55,0
590240,note_off,0,0,4,,,,,,,,,4,,,58,0
590240,note_off,0,0,4,,,,,,,,,4,,,50,0
590240,note_on,0,0,4,,,,,,,,,4,,,50,34
590240,note_on,0,0,4,,,,,,,,,4,,,55,34
590320,note_off,80,0,1,,,,,,,,,0,,,72,0
590320,note_on,0,0,1,,,,,,,,,0,,,70,47
590364,set_tempo,924,1,0,,,,,,2142857,,,,,,,
590400,set_tempo,36,1,0,,,,,,2068965,,,,,,,
590400,note_on,0,0,1,,,,,,,,,0,,,70,47
590400,note_off,80,0,1,,,,,,,,,0,,,70,0
590400,note_on,0,0,4,,,,,,,,,4,,,55,34
590400,note_on,0,0,4,,,,,,,,,4,,,58,34
590400,note_on,0,0,4,,,,,,,,,4,,,50,34
590400,note_off,0,0,4,,,,,,,,,4,,,50,0
590400,note_off,0,0,4,,,,,,,,,4,,,58,0
590400,note_off,160,0,4,,,,,,,,,4,,,55,0
590560,note_off,160,0,4,,,,,,,,,4,,,55,0
590560,note_on,0,0,4,,,,,,,,,4,,,50,33
590560,note_on,0,0,4,,,,,,,,,4,,,58,33
590560,note_on,0,0,4,,,,,,,,,4,,,55,33
590560,note_off,0,0,4,,,,,,,,,4,,,50,0
590560,note_off,0,0,4,,,,,,,,,4,,,58,0
590720,note_on,0,0,4,,,,,,,,,4,,,58,32
590720,note_on,0,0,4,,,,,,,,,4,,,55,32
590720,note_on,0,0,4,,,,,,,,,4,,,50,32
590720,note_off,0,0,4,,,,,,,,,4,,,50,0
590720,note_off,0,0,4,,,,,,,,,4,,,58,0
590720,note_off,160,0,4,,,,,,,,,4,,,55,0
590880,note_on,0,0,1,,,,,,,,,0,,,69,44
590880,note_off,480,0,1,,,,,,,,,0,,,70,0
590880,note_on,0,0,4,,,,,,,,,4,,,54,31
590880,note_off,0,0,4,,,,,,,,,4,,,58,0
590880,note_on,0,0,4,,,,,,,,,4,,,50,31
590880,note_off,160,0,4,,,,,,,,,4,,,55,0
590880,note_off,0,0,4,,,,,,,,,4,,,50,0
590880,note_on,0,0,4,,,,,,,,,4,,,57,31
591040,note_off,160,0,4,,,,,,,,,4,,,54,0
591040,note_off,0,0,4,,,,,,,,,4,,,57,0
591040,note_on,0,0,4,,,,,,,,,4,,,54,31
591040,note_off,0,0,4,,,,,,,,,4,,,50,0
591040,note_on,0,0,4,,,,,,,,,4,,,57,31
591040,note_on,0,0,4,,,,,,,,,4,,,50,31
591200,note_off,160,0,4,,,,,,,,,4,,,57,0
591200,note_off,0,0,4,,,,,,,,,4,,,54,0
591200,note_off,0,0,4,,,,,,,,,4,,,50,0
591200,note_on,0,0,4,,,,,,,,,4,,,50,30
591200,note_on,0,0,4,,,,,,,,,4,,,54,30
591200,note_on,0,0,4,,,,,,,,,4,,,57,30
591300,set_tempo,900,1,0,,,,,,2727272,,,,,,,
591360,note_off,160,0,4,,,,,,,,,4,,,57,0
591360,note_off,0,0,4,,,,,,,,,4,,,54,0
591360,note_off,0,0,4,,,,,,,,,4,,,50,0
591360,note_on,0,0,4,,,,,,,,,4,,,43,30
591360,note_on,0,0,4,,,,,,,,,4,,,46,30
591360,note_on,0,0,4,,,,,,,,,4,,,50,30
591360,note_off,480,0,1,,,,,,,,,0,,,69,0
591360,set_tempo,60,1,0,,,,,,2068965,,,,,,,
591360,note_on,0,0,4,,,,,,,,,4,,,55,30
591360,note_on,0,0,1,,,,,,,,,0,,,70,49
591520,note_off,160,0,4,,,,,,,,,4,,,55,0
591520,note_off,0,0,4,,,,,,,,,4,,,50,0
591520,note_off,0,0,4,,,,,,,,,4,,,46,0
591520,note_off,0,0,4,,,,,,,,,4,,,43,0
591520,note_on,0,0,4,,,,,,,,,4,,,43,30
591520,note_on,0,0,4,,,,,,,,,4,,,46,30
591520,note_on,0,0,4,,,,,,,,,4,,,50,30
591520,note_on,0,0,4,,,,,,,,,4,,,55,30
591680,note_on,0,0,4,,,,,,,,,4,,,50,30
591680,note_on,0,0,4,,,,,,,,,4,,,55,30
591680,note_off,160,0,4,,,,,,,,,4,,,55,0
591680,note_off,0,0,4,,,,,,,,,4,,,50,0
591680,note_off,0,0,4,,,,,,,,,4,,,46,0
591680,note_on,0,0,4,,,,,,,,,4,,,46,30
591680,note_off,0,0,4,,,,,,,,,4,,,43,0
591680,note_on,0,0,4,,,,,,,,,4,,,43,30
591840,note_off,160,0,4,,,,,,,,,4,,,55,0
591840,note_on,0,0,4,,,,,,,,,4,,,51,31
591840,note_on,0,0,4,,,,,,,,,4,,,46,31
591840,note_off,0,0,4,,,,,,,,,4,,,43,0
591840,note_off,0,0,4,,,,,,,,,4,,,46,0
591840,note_off,0,0,4,,,,,,,,,4,,,50,0
591840,note_on,0,0,4,,,,,,,,,4,,,43,31
592000,note_on,0,0,4,,,,,,,,,4,,,43,31
592000,note_off,160,0,4,,,,,,,,,4,,,51,0
592000,note_off,0,0,4,,,,,,,,,4,,,46,0
592000,note_on,0,0,4,,,,,,,,,4,,,46,31
592000,note_off,0,0,4,,,,,,,,,4,,,43,0
592000,note_off,640,0,1,,,,,,,,,0,,,70,0
592000,note_on,0,0,1,,,,,,,,,0,,,69,47
592000,note_on,0,0,4,,,,,,,,,4,,,51,31
592160,note_off,160,0,4,,,,,,,,,4,,,51,0
592160,note_off,0,0,4,,,,,,,,,4,,,46,0
592160,note_on,0,0,4,,,,,,,,,4,,,43,32
592160,note_on,0,0,4,,,,,,,,,4,,,46,32
592160,note_on,0,0,4,,,,,,,,,4,,,51,32
592160,note_on,0,0,1,,,,,,,,,0,,,70,44
592160,note_off,160,0,1,,,,,,,,,0,,,69,0
592160,note_off,0,0,4,,,,,,,,,4,,,43,0
592240,note_off,80,0,1,,,,,,,,,0,,,70,0
592320,note_on,80,0,1,,,,,,,,,0,,,72,49
592320,note_off,0,0,4,,,,,,,,,4,,,46,0
592320,note_off,160,0,4,,,,,,,,,4,,,51,0
592320,note_off,0,0,4,,,,,,,,,4,,,43,0
592320,note_on,0,0,4,,,,,,,,,4,,,41,32
592320,note_on,0,0,4,,,,,,,,,4,,,51,32
592320,note_on,0,0,4,,,,,,,,,4,,,46,32
592480,note_off,160,0,4,,,,,,,,,4,,,46,0
592480,note_on,0,0,4,,,,,,,,,4,,,46,32
592480,note_on,0,0,4,,,,,,,,,4,,,51,32
592480,note_on,0,0,4,,,,,,,,,4,,,41,32
592480,note_off,0,0,4,,,,,,,,,4,,,51,0
592480,note_off,0,0,4,,,,,,,,,4,,,41,0
592640,note_off,0,0,4,,,,,,,,,4,,,41,0
592640,note_off,160,0,4,,,,,,,,,4,,,46,0
592640,note_off,0,0,4,,,,,,,,,4,,,51,0
592640,note_on,0,0,4,,,,,,,,,4,,,41,33
592640,note_on,0,0,4,,,,,,,,,4,,,46,33
592640,note_on,0,0,4,,,,,,,,,4,,,51,33
592800,note_off,0,0,4,,,,,,,,,4,,,46,0
592800,note_on,0,0,4,,,,,,,,,4,,,51,33
592800,note_on,0,0,4,,,,,,,,,4,,,45,33
592800,note_on,0,0,4,,,,,,,,,4,,,41,33
592800,note_off,160,0,4,,,,,,,,,4,,,51,0
592800,note_off,0,0,4,,,,,,,,,4,,,41,0
592960,note_on,0,0,4,,,,,,,,,4,,,51,33
592960,note_on,0,0,4,,,,,,,,,4,,,45,33
592960,note_on,0,0,4,,,,,,,,,4,,,41,33
592960,note_off,0,0,4,,,,,,,,,4,,,41,0
592960,note_off,160,0,4,,,,,,,,,4,,,51,0
592960,note_off,0,0,4,,,,,,,,,4,,,45,0
592960,note_off,640,0,1,,,,,,,,,0,,,72,0
592960,note_on,0,0,1,,,,,,,,,0,,,70,49
593120,note_off,160,0,1,,,,,,,,,0,,,70,0
593120,note_on,0,0,1,,,,,,,,,0,,,72,47
593120,note_off,160,0,4,,,,,,,,,4,,,51,0
593120,note_off,0,0,4,,,,,,,,,4,,,45,0
593120,note_off,0,0,4,,,,,,,,,4,,,41,0
593120,note_on,0,0,4,,,,,,,,,4,,,41,34
593120,note_on,0,0,4,,,,,,,,,4,,,45,34
593120,note_on,0,0,4,,,,,,,,,4,,,51,34
593200,note_off,80,0,1,,,,,,,,,0,,,72,0
593220,set_tempo,1860,1,0,,,,,,2222222,,,,,,,
593280,note_off,0,0,4,,,,,,,,,4,,,41,0
593280,note_off,0,0,4,,,,,,,,,4,,,45,0
593280,note_on,0,0,4,,,,,,,,,4,,,41,34
593280,note_off,160,0,4,,,,,,,,,4,,,51,0
593280,note_on,0,0,4,,,,,,,,,4,,,46,34
593280,set_tempo,60,1,0,,,,,,2068965,,,,,,,
593280,note_on,80,0,1,,,,,,,,,0,,,74,51
593280,note_on,0,0,4,,,,,,,,,4,,,50,34
593440,note_on,0,0,4,,,,,,,,,4,,,50,35
593440,note_on,0,0,4,,,,,,,,,4,,,46,35
593440,note_on,0,0,4,,,,,,,,,4,,,41,35
593440,note_off,0,0,4,,,,,,,,,4,,,41,0
593440,note_off,0,0,4,,,,,,,,,4,,,50,0
593440,note_off,160,0,4,,,,,,,,,4,,,46,0
593600,note_on,0,0,4,,,,,,,,,4,,,50,35
593600,note_on,0,0,4,,,,,,,,,4,,,46,35
593600,note_off,0,0,4,,,,,,,,,4,,,46,0
593600,note_off,0,0,4,,,,,,,,,4,,,41,0
593600,note_on,0,0,4,,,,,,,,,4,,,41,35
593600,note_off,160,0,4,,,,,,,,,4,,,50,0
593760,note_on,0,0,4,,,,,,,,,4,,,50,35
593760,note_on,0,0,4,,,,,,,,,4,,,46,35
593760,note_on,0,0,4,,,,,,,,,4,,,41,35
593760,note_on,0,0,4,,,,,,,,,4,,,44,35
593760,note_off,0,0,4,,,,,,,,,4,,,50,0
593760,note_off,160,0,4,,,,,,,,,4,,,46,0
593760,note_off,0,0,4,,,,,,,,,4,,,41,0
593920,note_on,0,0,4,,,,,,,,,4,,,44,36
593920,note_off,640,0,1,,,,,,,,,0,,,74,0
593920,note_off,160,0,4,,,,,,,,,4,,,50,0
593920,note_off,0,0,4,,,,,,,,,4,,,46,0
593920,note_on,0,0,1,,,,,,,,,0,,,73,54
593920,note_off,0,0,4,,,,,,,,,4,,,41,0
593920,note_on,0,0,4,,,,,,,,,4,,,41,36
593920,note_on,0,0,4,,,,,,,,,4,,,46,36
593920,note_off,0,0,4,,,,,,,,,4,,,44,0
593920,note_on,0,0,4,,,,,,,,,4,,,50,36
594080,note_off,160,0,4,,,,,,,,,4,,,50,0
594080,note_off,0,0,4,,,,,,,,,4,,,46,0
594080,note_off,0,0,4,,,,,,,,,4,,,44,0
594080,note_off,0,0,4,,,,,,,,,4,,,41,0
594080,note_on,0,0,4,,,,,,,,,4,,,41,36
594080,note_on,0,0,4,,,,,,,,,4,,,44,36
594080,note_on,0,0,1,,,,,,,,,0,,,74,53
594080,note_on,0,0,4,,,,,,,,,4,,,46,36
594080,note_on,0,0,4,,,,,,,,,4,,,50,36
594080,note_off,160,0,1,,,,,,,,,0,,,73,0
594160,note_off,80,0,1,,,,,,,,,0,,,74,0
594240,note_on,0,0,4,,,,,,,,,4,,,51,37
594240,note_on,0,0,4,,,,,,,,,4,,,46,37
594240,note_on,0,0,4,,,,,,,,,4,,,43,37
594240,note_off,0,0,4,,,,,,,,,4,,,44,0
594240,note_off,0,0,4,,,,,,,,,4,,,46,0
594240,note_off,160,0,4,,,,,,,,,4,,,50,0
594240,note_off,0,0,4,,,,,,,,,4,,,41,0
594400,note_off,160,0,4,,,,,,,,,4,,,51,0
594400,note_on,0,0,4,,,,,,,,,4,,,51,37
594400,note_on,0,0,4,,,,,,,,,4,,,46,37
594400,note_on,240,0,1,,,,,,,,,0,,,74,57
594400,note_on,0,0,4,,,,,,,,,4,,,43,37
594400,note_off,0,0,4,,,,,,,,,4,,,43,0
594400,note_off,0,0,4,,,,,,,,,4,,,46,0
594560,note_off,160,0,4,,,,,,,,,4,,,46,0
594560,note_on,0,0,4,,,,,,,,,4,,,43,37
594560,note_on,0,0,4,,,,,,,,,4,,,46,37
594560,note_on,0,0,4,,,,,,,,,4,,,51,37
594560,note_off,0,0,4,,,,,,,,,4,,,51,0
594560,note_off,0,0,4,,,,,,,,,4,,,43,0
594560,note_off,160,0,1,,,,,,,,,0,,,74,0
594560,note_on,0,0,1,,,,,,,,,0,,,75,54
594720,note_off,160,0,4,,,,,,,,,4,,,51,0
594720,note_off,160,0,1,,,,,,,,,0,,,75,0
594720,note_on,0,0,4,,,,,,,,,4,,,51,38
594720,note_on,0,0,4,,,,,,,,,4,,,46,38
594720,note_on,0,0,4,,,,,,,,,4,,,39,38
594720,note_off,0,0,4,,,,,,,,,4,,,43,0
594720,note_off,0,0,4,,,,,,,,,4,,,46,0
594880,note_off,0,0,4,,,,,,,,,4,,,46,0
594880,note_on,0,0,4,,,,,,,,,4,,,51,38
594880,note_off,160,0,4,,,,,,,,,4,,,51,0
594880,note_off,0,0,4,,,,,,,,,4,,,39,0
594880,note_on,160,0,1,,,,,,,,,0,,,78,59
594880,note_on,0,0,4,,,,,,,,,4,,,46,38
594880,note_on,0,0,4,,,,,,,,,4,,,39,38
595040,note_off,0,0,4,,,,,,,,,4,,,46,0
595040,note_off,0,0,4,,,,,,,,,4,,,39,0
595040,note_on,0,0,4,,,,,,,,,4,,,39,39
595040,note_on,0,0,4,,,,,,,,,4,,,51,39
595040,note_on,0,0,4,,,,,,,,,4,,,46,39
595040,note_off,160,0,4,,,,,,,,,4,,,51,0
595040,note_on,0,0,1,,,,,,,,,0,,,79,57
595040,note_off,160,0,1,,,,,,,,,0,,,78,0
595140,set_tempo,1860,1,0,,,,,,2222222,,,,,,,
595200,note_off,160,0,1,,,,,,,,,0,,,79,0
595200,note_on,0,0,4,,,,,,,,,4,,,50,39
595200,note_on,0,0,4,,,,,,,,,4,,,46,39
595200,note_on,0,0,4,,,,,,,,,4,,,38,39
595200,note_off,0,0,4,,,,,,,,,4,,,39,0
595200,note_off,0,0,4,,,,,,,,,4,,,51,0
595200,note_off,160,0,4,,,,,,,,,4,,,46,0
595200,set_tempo,60,1,0,,,,,,2068965,,,,,,,
595360,note_on,160,0,1,,,,,,,,,0,,,79,56
595360,note_on,0,0,4,,,,,,,,,4,,,50,39
595360,note_off,160,0,4,,,,,,,,,4,,,50,0
595360,note_off,0,0,4,,,,,,,,,4,,,46,0
595360,note_off,0,0,4,,,,,,,,,4,,,38,0
595360,note_on,0,0,4,,,,,,,,,4,,,38,39
595360,note_on,0,0,4,,,,,,,,,4,,,46,39
595440,note_on,0,0,1,,,,,,,,,0,,,77,57
595440,note_off,80,0,1,,,,,,,,,0,,,79,0
595520,note_off,160,0,4,,,,,,,,,4,,,50,0
595520,note_off,0,0,4,,,,,,,,,4,,,46,0
595520,note_off,0,0,4,,,,,,,,,4,,,38,0
595520,note_on,0,0,4,,,,,,,,,4,,,38,40
595520,note_on,0,0,4,,,,,,,,,4,,,46,40
595520,note_on,0,0,4,,,,,,,,,4,,,50,40
595520,note_off,80,0,1,,,,,,,,,0,,,77,0
595520,note_on,0,0,1,,,,,,,,,0,,,82,58
595680,note_on,0,0,4,,,,,,,,,4,,,46,40
595680,note_on,0,0,4,,,,,,,,,4,,,39,40
595680,note_off,0,0,4,,,,,,,,,4,,,38,0
595680,note_off,0,0,4,,,,,,,,,4,,,46,0
595680,note_off,160,0,4,,,,,,,,,4,,,50,0
595680,note_on,0,0,4,,,,,,,,,4,,,51,40
595840,note_off,160,0,4,,,,,,,,,4,,,51,0
595840,note_off,320,0,1,,,,,,,,,0,,,82,0
595840,note_on,0,0,1,,,,,,,,,0,,,81,60
595840,note_on,0,0,4,,,,,,,,,4,,,51,41
595840,note_on,0,0,4,,,,,,,,,4,,,39,41
595840,note_off,0,0,4,,,,,,,,,4,,,39,0
595840,note_off,0,0,4,,,,,,,,,4,,,46,0
595840,note_on,0,0,4,,,,,,,,,4,,,46,41
595920,note_on,0,0,1,,,,,,,,,0,,,79,61
595920,note_off,80,0,1,,,,,,,,,0,,,81,0
596000,note_off,160,0,4,,,,,,,,,4,,,46,0
596000,note_off,0,0,4,,,,,,,,,4,,,51,0
596000,note_off,0,0,4,,,,,,,,,4,,,39,0
596000,note_on,0,0,4,,,,,,,,,4,,,39,41
596000,note_on,0,0,4,,,,,,,,,4,,,51,41
596000,note_on,0,0,1,,,,,,,,,0,,,91,62
596000,note_off,80,0,1,,,,,,,,,0,,,79,0
596000,note_on,0,0,4,,,,,,,,,4,,,46,41
596160,note_off,0,0,4,,,,,,,,,4,,,39,0
596160,note_on,0,0,4,,,,,,,,,4,,,46,41
596160,note_on,0,0,4,,,,,,,,,4,,,41,41
596160,note_off,0,0,4,,,,,,,,,4,,,46,0
596160,note_off,160,0,4,,,,,,,,,4,,,51,0
596160,note_on,0,0,4,,,,,,,,,4,,,50,41
596320,note_off,320,0,1,,,,,,,,,0,,,91,0
596320,note_on,0,0,1,,,,,,,,,0,,,89,62
596320,note_on,0,0,4,,,,,,,,,4,,,50,41
596320,note_on,0,0,4,,,,,,,,,4,,,41,41
596320,note_off,160,0,4,,,,,,,,,4,,,50,0
596320,note_off,0,0,4,,,,,,,,,4,,,46,0
596320,note_off,0,0,4,,,,,,,,,4,,,41,0
596320,note_on,0,0,4,,,,,,,,,4,,,46,41
596480,note_off,160,0,4,,,,,,,,,4,,,50,0
596480,note_on,0,0,4,,,,,,,,,4,,,50,39
596480,note_off,0,0,4,,,,,,,,,4,,,46,0
596480,note_on,0,0,4,,,,,,,,,4,,,41,39
596480,note_on,0,0,4,,,,,,,,,4,,,46,39
596480,note_off,160,0,1,,,,,,,,,0,,,89,0
596480,note_on,0,0,1,,,,,,,,,0,,,74,57
596480,note_off,0,0,4,,,,,,,,,4,,,41,0
596640,note_on,0,0,4,,,,,,,,,4,,,42,35
596640,note_off,0,0,4,,,,,,,,,4,,,41,0
596640,note_off,0,0,4,,,,,,,,,4,,,46,0
596640,note_off,160,0,4,,,,,,,,,4,,,50,0
596640,note_on,0,0,4,,,,,,,,,4,,,51,35
596640,note_on,0,0,4,,,,,,,,,4,,,48,35
596640,note_off,160,0,1,,,,,,,,,0,,,74,0
596800,note_on,0,0,4,,,,,,,,,4,,,48,34
596800,note_on,0,0,4,,,,,,,,,4,,,51,34
596800,note_off,0,0,4,,,,,,,,,4,,,42,0
596800,note_off,0,0,4,,,,,,,,,4,,,51,0
596800,note_on,0,0,4,,,,,,,,,4,,,42,34
596800,note_off,160,0,4,,,,,,,,,4,,,48,0
596880,note_on,240,0,1,,,,,,,,,0,,,77,51
596960,note_off,80,0,1,,,,,,,,,0,,,77,0
596960,note_on,0,0,4,,,,,,,,,4,,,48,33
596960,note_on,0,0,1,,,,,,,,,0,,,75,49
596960,note_off,160,0,4,,,,,,,,,4,,,48,0
596960,note_off,0,0,4,,,,,,,,,4,,,51,0
596960,note_off,0,0,4,,,,,,,,,4,,,42,0
596960,note_on,0,0,4,,,,,,,,,4,,,42,33
596960,note_on,0,0,4,,,,,,,,,4,,,54,33
596960,note_on,0,0,4,,,,,,,,,4,,,51,33
597030,set_tempo,1830,1,0,,,,,,2400000,,,,,,,
597040,note_on,0,0,1,,,,,,,,,0,,,69,47
597040,note_off,80,0,1,,,,,,,,,0,,,75,0
597075,note_off,35,0,1,,,,,,,,,0,,,69,0
597080,note_on,5,0,1,,,,,,,,,0,,,69,47
597120,note_off,0,0,4,,,,,,,,,4,,,48,0
597120,set_tempo,90,1,0,,,,,,2068965,,,,,,,
597120,note_off,160,0,4,,,,,,,,,4,,,51,0
597120,note_off,0,0,4,,,,,,,,,4,,,54,0
597120,note_on,0,0,4,,,,,,,,,4,,,48,32
597120,note_on,0,0,4,,,,,,,,,4,,,51,32
597120,note_on,0,0,4,,,,,,,,,4,,,54,32
597120,note_on,0,0,4,,,,,,,,,4,,,42,32
597120,note_off,0,0,4,,,,,,,,,4,,,42,0
597120,note_on,40,0,1,,,,,,,,,0,,,72,46
597280,note_off,0,0,4,,,,,,,,,4,,,51,0
597280,note_off,0,0,4,,,,,,,,,4,,,54,0
597280,note_on,0,0,4,,,,,,,,,4,,,42,31
597280,note_on,0,0,4,,,,,,,,,4,,,54,31
597280,note_on,0,0,4,,,,,,,,,4,,,51,31
597280,note_on,0,0,4,,,,,,,,,4,,,48,31
597280,note_off,160,0,4,,,,,,,,,4,,,48,0
597280,note_off,0,0,4,,,,,,,,,4,,,42,0
597440,note_on,0,0,4,,,,,,,,,4,,,53,30
597440,note_on,0,0,4,,,,,,,,,4,,,41,30
597440,note_off,0,0,4,,,,,,,,,4,,,42,0
597440,note_on,0,0,4,,,,,,,,,4,,,48,30
597440,note_off,0,0,4,,,,,,,,,4,,,54,0
597440,note_off,0,0,4,,,,,,,,,4,,,51,0
597440,note_off,160,0,4,,,,,,,,,4,,,48,0
597440,note_on,0,0,4,,,,,,,,,4,,,51,30
597504,note_off,384,0,1,,,,,,,,,0,,,69,0
597600,note_off,160,0,4,,,,,,,,,4,,,53,0
597600,note_on,0,0,4,,,,,,,,,4,,,53,29
597600,note_on,0,0,4,,,,,,,,,4,,,48,29
597600,note_on,0,0,4,,,,,,,,,4,,,51,29
597600,note_on,0,0,4,,,,,,,,,4,,,41,29
597600,note_off,0,0,4,,,,,,,,,4,,,41,0
597600,note_off,0,0,4,,,,,,,,,4,,,51,0
597600,note_off,0,0,4,,,,,,,,,4,,,48,0
597760,note_off,0,0,4,,,,,,,,,4,,,48,0
597760,note_off,0,0,4,,,,,,,,,4,,,51,0
597760,note_off,0,0,4,,,,,,,,,4,,,41,0
597760,note_on,0,0,4,,,,,,,,,4,,,45,28
597760,note_on,0,0,4,,,,,,,,,4,,,51,28
597760,note_on,0,0,4,,,,,,,,,4,,,48,28
597760,note_off,160,0,4,,,,,,,,,4,,,53,0
597760,note_on,0,0,4,,,,,,,,,4,,,41,28
597920,note_on,0,0,4,,,,,,,,,4,,,48,27
597920,note_on,0,0,4,,,,,,,,,4,,,41,27
597920,note_on,0,0,4,,,,,,,,,4,,,45,27
597920,note_on,0,0,4,,,,,,,,,4,,,51,27
597920,note_off,0,0,4,,,,,,,,,4,,,41,0
597920,note_off,0,0,4,,,,,,,,,4,,,45,0
597920,note_off,0,0,4,,,,,,,,,4,,,51,0
597920,note_off,160,0,4,,,,,,,,,4,,,48,0
598080,note_on,0,0,1,,,,,,,,,0,,,70,43
598080,note_on,0,0,4,,,,,,,,,4,,,46,26
598080,note_on,0,0,4,,,,,,,,,4,,,50,26
598080,note_on,0,0,4,,,,,,,,,4,,,41,26
598080,note_off,160,0,4,,,,,,,,,4,,,48,0
598080,note_off,0,0,4,,,,,,,,,4,,,45,0
598080,note_off,0,0,4,,,,,,,,,4,,,41,0
598080,note_off,576,0,1,,,,,,,,,0,,,72,0
598080,note_off,0,0,4,,,,,,,,,4,,,51,0
598240,note_on,0,0,4,,,,,,,,,4,,,53,26
598240,note_off,160,0,4,,,,,,,,,4,,,46,0
598240,note_off,0,0,4,,,,,,,,,4,,,50,0
598240,note_off,0,0,4,,,,,,,,,4,,,41,0
598240,note_on,0,0,4,,,,,,,,,4,,,46,26
598240,note_on,0,0,4,,,,,,,,,4,,,50,26
598400,note_off,160,0,4,,,,,,,,,4,,,50,0
598400,note_off,0,0,4,,,,,,,,,4,,,53,0
598400,note_off,0,0,4,,,,,,,,,4,,,46,0
598400,note_on,0,0,4,,,,,,,,,4,,,46,27
598400,note_on,0,0,4,,,,,,,,,4,,,50,27
598400,note_on,0,0,4,,,,,,,,,4,,,53,27
598560,note_off,0,0,4,,,,,,,,,4,,,46,0
598560,note_off,0,0,4,,,,,,,,,4,,,50,0
598560,note_on,0,0,4,,,,,,,,,4,,,46,27
598560,note_on,0,0,4,,,,,,,,,4,,,53,27
598560,note_on,0,0,4,,,,,,,,,4,,,50,27
598560,note_off,160,0,4,,,,,,,,,4,,,53,0
598560,note_on,0,0,1,,,,,,,,,0,,,74,47
598560,note_off,480,0,1,,,,,,,,,0,,,70,0
598720,note_on,0,0,4,,,,,,,,,4,,,50,28
598720,note_off,160,0,4,,,,,,,,,4,,,53,0
598720,note_off,0,0,4,,,,,,,,,4,,,50,0
598720,note_off,0,0,4,,,,,,,,,4,,,46,0
598720,note_on,0,0,4,,,,,,,,,4,,,46,28
598720,note_on,0,0,4,,,,,,,,,4,,,53,28
598880,note_on,0,0,4,,,,,,,,,4,,,50,28
598880,note_on,0,0,4,,,,,,,,,4,,,46,28
598880,note_off,0,0,4,,,,,,,,,4,,,50,0
598880,note_off,0,0,4,,,,,,,,,4,,,46,0
598880,note_on,0,0,4,,,,,,,,,4,,,53,28
598880,note_off,160,0,4,,,,,,,,,4,,,53,0
598980,set_tempo,1860,1,0,,,,,,2222222,,,,,,,
599040,note_on,0,0,4,,,,,,,,,4,,,53,29
599040,note_on,0,0,4,,,,,,,,,4,,,50,29
599040,note_off,0,0,4,,,,,,,,,4,,,46,0
599040,note_on,0,0,1,,,,,,,,,0,,,74,52
599040,note_off,160,0,4,,,,,,,,,4,,,53,0
599040,set_tempo,60,1,0,,,,,,2068965,,,,,,,
599040,note_off,480,0,1,,,,,,,,,0,,,74,0
599040,note_on,0,0,4,,,,,,,,,4,,,47,29
599040,note_off,0,0,4,,,,,,,,,4,,,50,0
599040,note_on,0,0,4,,,,,,,,,4,,,44,29
599200,note_on,0,0,4,,,,,,,,,4,,,50,29
599200,note_off,0,0,4,,,,,,,,,4,,,50,0
599200,note_off,0,0,4,,,,,,,,,4,,,47,0
599200,note_off,0,0,4,,,,,,,,,4,,,44,0
599200,note_on,0,0,4,,,,,,,,,4,,,44,29
599200,note_on,0,0,4,,,,,,,,,4,,,47,29
599200,note_on,0,0,4,,,,,,,,,4,,,53,29
599200,note_off,160,0,4,,,,,,,,,4,,,53,0
599355,note_off,315,0,1,,,,,,,,,0,,,74,0
599360,note_on,5,0,1,,,,,,,,,0,,,74,48
599360,note_on,0,0,4,,,,,,,,,4,,,53,30
599360,note_on,0,0,4,,,,,,,,,4,,,50,30
599360,note_off,0,0,4,,,,,,,,,4,,,47,0
599360,note_on,0,0,4,,,,,,,,,4,,,44,30
599360,note_off,0,0,4,,,,,,,,,4,,,44,0
599360,note_off,0,0,4,,,,,,,,,4,,,50,0
599360,note_off,160,0,4,,,,,,,,,4,,,53,0
599360,note_on,0,0,4,,,,,,,,,4,,,47,30
599520,note_on,0,0,4,,,,,,,,,4,,,43,30
599520,note_on,0,0,4,,,,,,,,,4,,,53,30
599520,note_off,160,0,1,,,,,,,,,0,,,74,0
599520,note_off,0,0,4,,,,,,,,,4,,,44,0
599520,note_on,0,0,4,,,,,,,,,4,,,47,30
599520,note_on,0,0,4,,,,,,,,,4,,,50,30
599520,note_off,160,0,4,,,,,,,,,4,,,53,0
599520,note_off,0,0,4,,,,,,,,,4,,,50,0
599520,note_off,0,0,4,,,,,,,,,4,,,47,0
599680,note_off,160,0,4,,,,,,,,,4,,,50,0
599680,note_off,0,0,4,,,,,,,,,4,,,53,0
599680,note_on,0,0,4,,,,,,,,,4,,,53,30
599680,note_on,0,0,4,,,,,,,,,4,,,47,30
599680,note_on,0,0,4,,,,,,,,,4,,,43,30
599680,note_off,0,0,4,,,,,,,,,4,,,47,0
599680,note_off,0,0,4,,,,,,,,,4,,,43,0
599680,note_on,0,0,4,,,,,,,,,4,,,50,30
599840,note_on,320,0,1,,,,,,,,,0,,,68,50
599840,note_off,0,0,4,,,,,,,,,4,,,53,0
599840,note_off,0,0,4,,,,,,,,,4,,,47,0
599840,note_off,0,0,4,,,,,,,,,4,,,43,0
599840,note_on,0,0,4,,,,,,,,,4,,,48,31
599840,note_on,0,0,4,,,,,,,,,4,,,56,31
599840,note_on,0,0,4,,,,,,,,,4,,,53,31
599840,note_on,0,0,4,,,,,,,,,4,,,50,31
599840,note_off,160,0,4,,,,,,,,,4,,,50,0
600000,note_on,0,0,4,,,,,,,,,4,,,55,31
600000,note_on,0,0,4,,,,,,,,,4,,,53,31
600000,note_on,0,0,4,,,,,,,,,4,,,47,31
600000,note_on,0,0,4,,,,,,,,,4,,,50,31
600000,note_off,0,0,4,,,,,,,,,4,,,56,0
600000,note_off,0,0,4,,,,,,,,,4,,,53,0
600000,note_off,160,0,4,,,,,,,,,4,,,50,0
600000,note_off,0,0,4,,,,,,,,,4,,,48,0
600160,note_off,160,0,4,,,,,,,,,4,,,55,0
600160,note_off,0,0,4,,,,,,,,,4,,,53,0
600160,note_off,0,0,4,,,,,,,,,4,,,50,0
600160,note_off,0,0,4,,,,,,,,,4,,,47,0
600160,note_on,0,0,4,,,,,,,,,4,,,47,32
600160,note_on,0,0,4,,,,,,,,,4,,,50,32
600160,note_on,0,0,4,,,,,,,,,4,,,53,32
600160,note_on,0,0,4,,,,,,,,,4,,,55,32
600320,note_on,0,0,4,,,,,,,,,4,,,55,32
600320,note_on,480,0,1,,,,,,,,,0,,,67,49
600320,note_on,0,0,4,,,,,,,,,4,,,50,32
600320,note_on,0,0,4,,,,,,,,,4,,,53,32
600320,note_off,0,0,4,,,,,,,,,4,,,47,0
600320,note_on,0,0,4,,,,,,,,,4,,,47,32
600320,note_off,160,0,4,,,,,,,,,4,,,55,0
600320,note_off,0,0,4,,,,,,,,,4,,,53,0
600320,note_off,0,0,4,,,,,,,,,4,,,50,0
600330,note_off,10,0,1,,,,,,,,,0,,,68,0
600480,note_off,0,0,4,,,,,,,,,4,,,55,0
600480,note_off,0,0,4,,,,,,,,,4,,,50,0
600480,note_off,0,0,4,,,,,,,,,4,,,47,0
600480,note_on,0,0,4,,,,,,,,,4,,,47,33
600480,note_on,0,0,4,,,,,,,,,4,,,50,33
600480,note_on,0,0,4,,,,,,,,,4,,,55,33
600480,note_on,0,0,1,,,,,,,,,0,,,77,53
600480,note_off,150,0,1,,,,,,,,,0,,,67,0
600480,note_off,160,0,4,,,,,,,,,4,,,53,0
600480,note_on,0,0,4,,,,,,,,,4,,,53,33
600640,note_on,0,0,4,,,,,,,,,4,,,53,33
600640,note_on,0,0,4,,,,,,,,,4,,,55,33
600640,note_off,0,0,4,,,,,,,,,4,,,50,0
600640,note_on,0,0,4,,,,,,,,,4,,,47,33
600640,note_off,0,0,4,,,,,,,,,4,,,47,0
600640,note_off,0,0,4,,,,,,,,,4,,,53,0
600640,note_off,160,0,4,,,,,,,,,4,,,55,0
600640,note_on,0,0,4,,,,,,,,,4,,,50,33
600800,note_on,0,0,4,,,,,,,,,4,,,55,31
600800,note_on,0,0,4,,,,,,,,,4,,,50,31
600800,note_on,0,0,4,,,,,,,,,4,,,53,31
600800,note_off,0,0,4,,,,,,,,,4,,,47,0
600800,note_off,0,0,4,,,,,,,,,4,,,50,0
600800,note_off,0,0,4,,,,,,,,,4,,,53,0
600800,note_off,160,0,4,,,,,,,,,4,,,55,0
600800,note_off,320,0,1,,,,,,,,,0,,,77,0
600800,note_on,0,0,4,,,,,,,,,4,,,47,31
600800,note_on,0,0,1,,,,,,,,,0,,,74,48
600900,set_tempo,1860,1,0,,,,,,2400000,,,,,,,
600918,note_off,118,0,1,,,,,,,,,0,,,74,0
600920,note_on,2,0,1,,,,,,,,,0,,,74,49
600960,note_off,0,0,4,,,,,,,,,4,,,53,0
600960,note_on,40,0,1,,,,,,,,,0,,,77,54
600960,note_on,0,0,4,,,,,,,,,4,,,51,28
600960,note_on,0,0,4,,,,,,,,,4,,,48,28
600960,note_off,0,0,4,,,,,,,,,4,,,47,0
600960,note_off,0,0,4,,,,,,,,,4,,,50,0
600960,note_on,0,0,4,,,,,,,,,4,,,55,28
600960,set_tempo,60,1,0,,,,,,2068965,,,,,,,
600960,note_off,160,0,4,,,,,,,,,4,,,55,0
601062,note_off,102,0,1,,,,,,,,,0,,,74,0
601120,note_on,0,0,4,,,,,,,,,4,,,55,28
601120,note_on,0,0,4,,,,,,,,,4,,,51,28
601120,note_on,0,0,4,,,,,,,,,4,,,48,28
601120,note_off,0,0,4,,,,,,,,,4,,,48,0
601120,note_off,0,0,4,,,,,,,,,4,,,51,0
601120,note_off,160,0,4,,,,,,,,,4,,,55,0
601280,note_on,218,0,1,,,,,,,,,0,,,75,49
601280,note_on,0,0,4,,,,,,,,,4,,,55,28
601280,note_off,160,0,4,,,,,,,,,4,,,55,0
601280,note_off,0,0,4,,,,,,,,,4,,,51,0
601280,note_off,0,0,4,,,,,,,,,4,,,48,0
601280,note_on,0,0,4,,,,,,,,,4,,,48,28
601280,note_on,0,0,4,,,,,,,,,4,,,51,28
601290,note_off,10,0,1,,,,,,,,,0,,,77,0
601440,note_on,0,0,4,,,,,,,,,4,,,55,29
601440,note_on,0,0,1,,,,,,,,,0,,,75,48
601440,note_off,160,0,4,,,,,,,,,4,,,55,0
601440,note_off,0,0,4,,,,,,,,,4,,,51,0
601440,note_off,0,0,4,,,,,,,,,4,,,48,0
601440,note_off,150,0,1,,,,,,,,,0,,,75,0
601440,note_on,0,0,4,,,,,,,,,4,,,48,29
601440,note_on,0,0,4,,,,,,,,,4,,,51,29
601600,note_off,0,0,4,,,,,,,,,4,,,48,0
601600,note_on,0,0,4,,,,,,,,,4,,,57,29
601600,note_off,160,0,4,,,,,,,,,4,,,55,0
601600,note_on,0,0,4,,,,,,,,,4,,,48,29
601600,note_off,0,0,4,,,,,,,,,4,,,51,0
601600,note_on,0,0,4,,,,,,,,,4,,,54,29
601760,note_on,0,0,4,,,,,,,,,4,,,57,30
601760,note_on,0,0,4,,,,,,,,,4,,,54,30
601760,note_on,0,0,4,,,,,,,,,4,,,48,30
601760,note_off,0,0,4,,,,,,,,,4,,,48,0
601760,note_off,0,0,4,,,,,,,,,4,,,54,0
601760,note_off,160,0,4,,,,,,,,,4,,,57,0
601920,note_off,0,0,4,,,,,,,,,4,,,54,0
601920,note_on,0,0,4,,,,,,,,,4,,,48,30
601920,note_on,0,0,4,,,,,,,,,4,,,57,30
601920,note_off,160,0,4,,,,,,,,,4,,,57,0
601920,note_off,0,0,4,,,,,,,,,4,,,48,0
601920,note_on,0,0,4,,,,,,,,,4,,,54,30
602075,note_off,635,0,1,,,,,,,,,0,,,75,0
602080,note_on,0,0,4,,,,,,,,,4,,,54,31
602080,note_on,0,0,4,,,,,,,,,4,,,48,31
602080,note_off,0,0,4,,,,,,,,,4,,,48,0
602080,note_off,0,0,4,,,,,,,,,4,,,54,0
602080,note_off,160,0,4,,,,,,,,,4,,,57,0
602080,note_on,0,0,4,,,,,,,,,4,,,57,31
602080,note_on,5,0,1,,,,,,,,,0,,,75,51
602240,note_on,0,0,1,,,,,,,,,0,,,75,47
602240,note_off,160,0,1,,,,,,,,,0,,,75,0
602240,note_on,0,0,4,,,,,,,,,4,,,54,31
602240,note_on,0,0,4,,,,,,,,,4,,,48,31
602240,note_on,0,0,4,,,,,,,,,4,,,57,31
602240,note_off,0,0,4,,,,,,,,,4,,,48,0
602240,note_off,160,0,4,,,,,,,,,4,,,57,0
602240,note_off,0,0,4,,,,,,,,,4,,,54,0
602400,note_off,160,0,1,,,,,,,,,0,,,75,0
602400,note_off,160,0,4,,,,,,,,,4,,,57,0
602400,note_off,0,0,4,,,,,,,,,4,,,54,0
602400,note_off,0,0,4,,,,,,,,,4,,,48,0
602400,note_on,0,0,4,,,,,,,,,4,,,46,32
602400,note_on,0,0,4,,,,,,,,,4,,,58,32
602400,note_on,0,0,4,,,,,,,,,4,,,55,32
602560,note_off,160,0,4,,,,,,,,,4,,,55,0
602560,note_on,0,0,4,,,,,,,,,4,,,55,32
602560,note_on,0,0,4,,,,,,,,,4,,,58,32
602560,note_on,0,0,4,,,,,,,,,4,,,46,32
602560,note_off,0,0,4,,,,,,,,,4,,,46,0
602560,note_on,160,0,1,,,,,,,,,0,,,74,53
602560,note_off,0,0,4,,,,,,,,,4,,,58,0
602720,note_off,0,0,4,,,,,,,,,4,,,46,0
602720,note_off,160,0,1,,,,,,,,,0,,,74,0
602720,note_off,160,0,4,,,,,,,,,4,,,55,0
602720,note_on,0,0,1,,,,,,,,,0,,,74,49
602720,note_off,0,0,4,,,,,,,,,4,,,58,0
602720,note_on,0,0,4,,,,,,,,,4,,,46,33
602720,note_on,0,0,4,,,,,,,,,4,,,55,33
602720,note_on,0,0,4,,,,,,,,,4,,,58,33
602820,set_tempo,1860,1,0,,,,,,2222222,,,,,,,
602880,note_off,0,0,4,,,,,,,,,4,,,58,0
602880,note_off,160,0,1,,,,,,,,,0,,,74,0
602880,set_tempo,60,1,0,,,,,,2068965,,,,,,,
602880,note_off,160,0,4,,,,,,,,,4,,,55,0
602880,note_on,0,0,4,,,,,,,,,4,,,57,35
602880,note_off,0,0,4,,,,,,,,,4,,,46,0
602880,note_on,0,0,4,,,,,,,,,4,,,45,35
602880,note_on,0,0,4,,,,,,,,,4,,,54,35
603040,note_on,0,0,4,,,,,,,,,4,,,57,35
603040,note_off,0,0,4,,,,,,,,,4,,,54,0
603040,note_off,160,0,4,,,,,,,,,4,,,57,0
603040,note_on,0,0,4,,,,,,,,,4,,,45,35
603040,note_on,160,0,1,,,,,,,,,0,,,72,55
603040,note_on,0,0,4,,,,,,,,,4,,,54,35
603040,note_off,0,0,4,,,,,,,,,4,,,45,0
603200,note_off,160,0,1,,,,,,,,,0,,,72,0
603200,note_on,0,0,1,,,,,,,,,0,,,72,53
603200,note_off,160,0,4,,,,,,,,,4,,,57,0
603200,note_off,0,0,4,,,,,,,,,4,,,45,0
603200,note_on,0,0,4,,,,,,,,,4,,,45,34
603200,note_on,0,0,4,,,,,,,,,4,,,54,34
603200,note_on,0,0,4,,,,,,,,,4,,,57,34
603200,note_off,0,0,4,,,,,,,,,4,,,54,0
603360,note_off,160,0,1,,,,,,,,,0,,,72,0
603360,note_on,0,0,4,,,,,,,,,4,,,55,34
603360,note_on,0,0,4,,,,,,,,,4,,,50,34
603360,note_off,0,0,4,,,,,,,,,4,,,45,0
603360,note_off,0,0,4,,,,,,,,,4,,,54,0
603360,note_off,160,0,4,,,,,,,,,4,,,57,0
603360,note_on,0,0,4,,,,,,,,,4,,,43,34
603520,note_off,160,0,4,,,,,,,,,4,,,50,0
603520,note_off,0,0,4,,,,,,,,,4,,,55,0
603520,note_off,0,0,4,,,,,,,,,4,,,43,0
603520,note_on,0,0,4,,,,,,,,,4,,,43,34
603520,note_on,0,0,4,,,,,,,,,4,,,50,34
603520,note_on,0,0,4,,,,,,,,,4,,,55,34
603520,note_on,160,0,1,,,,,,,,,0,,,70,55
603680,note_off,160,0,4,,,,,,,,,4,,,55,0
603680,note_on,0,0,1,,,,,,,,,0,,,70,51
603680,note_on,0,0,4,,,,,,,,,4,,,55,33
603680,note_on,0,0,4,,,,,,,,,4,,,50,33
603680,note_on,0,0,4,,,,,,,,,4,,,43,33
603680,note_off,0,0,4,,,,,,,,,4,,,50,0
603680,note_off,0,0,4,,,,,,,,,4,,,43,0
603680,note_off,160,0,1,,,,,,,,,0,,,70,0
603840,note_on,0,0,4,,,,,,,,,4,,,56,33
603840,note_off,160,0,1,,,,,,,,,0,,,70,0
603840,note_off,160,0,4,,,,,,,,,4,,,55,0
603840,note_off,0,0,4,,,,,,,,,4,,,50,0
603840,note_off,0,0,4,,,,,,,,,4,,,43,0
603840,note_on,0,0,4,,,,,,,,,4,,,48,33
603840,note_on,0,0,4,,,,,,,,,4,,,51,33
604000,note_off,0,0,4,,,,,,,,,4,,,56,0
604000,note_on,0,0,4,,,,,,,,,4,,,48,32
604000,note_on,0,0,4,,,,,,,,,4,,,51,32
604000,note_off,0,0,4,,,,,,,,,4,,,48,0
604000,note_on,0,0,4,,,,,,,,,4,,,56,32
604000,note_on,160,0,1,,,,,,,,,0,,,68,54
604000,note_off,160,0,4,,,,,,,,,4,,,51,0
604160,note_on,0,0,4,,,,,,,,,4,,,56,32
604160,note_on,0,0,1,,,,,,,,,0,,,68,51
604160,note_off,160,0,1,,,,,,,,,0,,,68,0
604160,note_off,160,0,4,,,,,,,,,4,,,51,0
604160,note_off,0,0,4,,,,,,,,,4,,,56,0
604160,note_off,0,0,4,,,,,,,,,4,,,48,0
604160,note_on,0,0,4,,,,,,,,,4,,,48,32
604160,note_on,0,0,4,,,,,,,,,4,,,51,32
604320,note_on,0,0,4,,,,,,,,,4,,,55,31
604320,note_on,0,0,4,,,,,,,,,4,,,52,31
604320,note_on,0,0,4,,,,,,,,,4,,,58,31
604320,note_on,0,0,4,,,,,,,,,4,,,49,31
604320,note_off,0,0,4,,,,,,,,,4,,,48,0
604320,note_off,160,0,4,,,,,,,,,4,,,56,0
604320,note_off,160,0,1,,,,,,,,,0,,,68,0
604320,note_off,0,0,4,,,,,,,,,4,,,51,0
604480,note_on,0,0,4,,,,,,,,,4,,,52,31
604480,note_on,0,0,4,,,,,,,,,4,,,55,31
604480,note_on,0,0,4,,,,,,,,,4,,,58,31
604480,note_on,160,0,1,,,,,,,,,0,,,67,51
604480,note_off,0,0,4,,,,,,,,,4,,,58,0
604480,note_off,0,0,4,,,,,,,,,4,,,52,0
604480,note_off,160,0,4,,,,,,,,,4,,,55,0
604480,note_on,0,0,4,,,,,,,,,4,,,49,31
604480,note_off,0,0,4,,,,,,,,,4,,,49,0
604640,note_on,0,0,1,,,,,,,,,0,,,67,52
604640,note_off,160,0,1,,,,,,,,,0,,,67,0
604640,note_on,0,0,4,,,,,,,,,4,,,52,30
604640,note_on,0,0,4,,,,,,,,,4,,,49,30
604640,note_off,0,0,4,,,,,,,,,4,,,49,0
604640,note_off,0,0,4,,,,,,,,,4,,,58,0
604640,note_off,0,0,4,,,,,,,,,4,,,52,0
604640,note_off,160,0,4,,,,,,,,,4,,,55,0
604640,note_on,0,0,4,,,,,,,,,4,,,55,30
604640,note_on,0,0,4,,,,,,,,,4,,,58,30
604740,set_tempo,1860,1,0,,,,,,2222222,,,,,,,
604800,note_on,0,0,4,,,,,,,,,4,,,58,32
604800,note_on,0,0,4,,,,,,,,,4,,,50,32
604800,note_off,0,0,4,,,,,,,,,4,,,49,0
604800,note_off,0,0,4,,,,,,,,,4,,,58,0
604800,note_off,160,0,4,,,,,,,,,4,,,52,0
604800,note_on,0,0,1,,,,,,,,,0,,,67,53
604800,set_tempo,60,1,0,,,,,,2068965,,,,,,,
604800,note_off,160,0,1,,,,,,,,,0,,,67,0
604800,note_on,0,0,4,,,,,,,,,4,,,55,32
604800,note_off,0,0,4,,,,,,,,,4,,,55,0
604960,note_off,160,0,4,,,,,,,,,4,,,55,0
604960,note_off,0,0,4,,,,,,,,,4,,,58,0
604960,note_off,0,0,4,,,,,,,,,4,,,50,0
604960,note_on,0,0,4,,,,,,,,,4,,,58,33
604960,note_on,0,0,4,,,,,,,,,4,,,55,33
604960,note_on,0,0,4,,,,,,,,,4,,,50,33
605115,note_off,315,0,1,,,,,,,,,0,,,67,0
605120,note_off,0,0,4,,,,,,,,,4,,,58,0
605120,note_on,0,0,4,,,,,,,,,4,,,58,34
605120,note_off,160,0,4,,,,,,,,,4,,,55,0
605120,note_on,5,0,1,,,,,,,,,0,,,70,54
605120,note_on,0,0,4,,,,,,,,,4,,,55,34
605120,note_off,0,0,4,,,,,,,,,4,,,50,0
605120,note_on,0,0,4,,,,,,,,,4,,,50,34
605280,note_on,0,0,4,,,,,,,,,4,,,52,35
605280,note_off,0,0,4,,,,,,,,,4,,,58,0
605280,note_off,160,0,4,,,,,,,,,4,,,55,0
605280,note_on,0,0,4,,,,,,,,,4,,,61,35
605280,note_on,0,0,4,,,,,,,,,4,,,55,35
605280,note_on,0,0,4,,,,,,,,,4,,,50,35
605280,note_off,0,0,4,,,,,,,,,4,,,50,0
605440,note_off,160,0,4,,,,,,,,,4,,,55,0
605440,note_off,0,0,4,,,,,,,,,4,,,61,0
605440,note_off,0,0,4,,,,,,,,,4,,,52,0
605440,note_on,0,0,4,,,,,,,,,4,,,55,36
605440,note_on,0,0,4,,,,,,,,,4,,,52,36
605440,note_on,320,0,1,,,,,,,,,0,,,69,56
605440,note_off,0,0,4,,,,,,,,,4,,,50,0
605440,note_on,0,0,4,,,,,,,,,4,,,61,36
605440,note_on,0,0,4,,,,,,,,,4,,,50,36
605450,note_off,10,0,1,,,,,,,,,0,,,70,0
605600,note_on,0,0,4,,,,,,,,,4,,,55,37
605600,note_on,0,0,4,,,,,,,,,4,,,61,37
605600,note_on,0,0,4,,,,,,,,,4,,,52,37
605600,note_on,0,0,4,,,,,,,,,4,,,50,37
605600,note_off,0,0,4,,,,,,,,,4,,,50,0
605600,note_off,0,0,4,,,,,,,,,4,,,61,0
605600,note_off,160,0,4,,,,,,,,,4,,,55,0
605600,note_off,0,0,4,,,,,,,,,4,,,52,0
605600,note_on,0,0,1,,,,,,,,,0,,,67,57
605600,note_off,150,0,1,,,,,,,,,0,,,69,0
605760,note_on,0,0,4,,,,,,,,,4,,,61,39
605760,note_on,0,0,4,,,,,,,,,4,,,52,39
605760,note_off,160,0,4,,,,,,,,,4,,,55,0
605760,note_off,0,0,4,,,,,,,,,4,,,61,0
605760,note_off,0,0,4,,,,,,,,,4,,,52,0
605760,note_off,0,0,4,,,,,,,,,4,,,50,0
605760,note_on,0,0,4,,,,,,,,,4,,,50,39
605760,note_on,0,0,4,,,,,,,,,4,,,58,39
605920,note_off,160,0,4,,,,,,,,,4,,,52,0
605920,note_off,0,0,4,,,,,,,,,4,,,61,0
605920,note_off,0,0,4,,,,,,,,,4,,,58,0
605920,note_on,0,0,4,,,,,,,,,4,,,52,37
605920,note_on,0,0,4,,,,,,,,,4,,,61,37
605920,note_on,0,0,4,,,,,,,,,4,,,58,37
605920,note_off,0,0,4,,,,,,,,,4,,,50,0
605920,note_on,0,0,4,,,,,,,,,4,,,50,37
606080,note_on,0,0,4,,,,,,,,,4,,,62,36
606080,note_on,0,0,4,,,,,,,,,4,,,54,36
606080,note_on,0,0,4,,,,,,,,,4,,,50,36
606080,note_off,0,0,4,,,,,,,,,4,,,50,0
606080,note_off,0,0,4,,,,,,,,,4,,,58,0
606080,note_on,0,0,4,,,,,,,,,4,,,57,36
606080,note_off,160,0,4,,,,,,,,,4,,,52,0
606080,note_on,480,0,1,,,,,,,,,0,,,66,54
606080,note_off,0,0,4,,,,,,,,,4,,,61,0
606085,note_off,5,0,1,,,,,,,,,0,,,67,0
606240,note_on,0,0,4,,,,,,,,,4,,,57,34
606240,note_on,0,0,4,,,,,,,,,4,,,54,34
606240,note_on,0,0,4,,,,,,,,,4,,,62,34
606240,note_on,0,0,4,,,,,,,,,4,,,50,34
606240,note_off,0,0,4,,,,,,,,,4,,,50,0
606240,note_off,0,0,4,,,,,,,,,4,,,62,0
606240,note_off,160,0,4,,,,,,,,,4,,,57,0
606240,note_off,155,0,1,,,,,,,,,0,,,66,0
606240,note_off,0,0,4,,,,,,,,,4,,,54,0
606400,note_off,0,0,4,,,,,,,,,4,,,62,0
606400,note_off,160,0,4,,,,,,,,,4,,,57,0
606400,note_off,0,0,4,,,,,,,,,4,,,54,0
606400,note_off,0,0,4,,,,,,,,,4,,,50,0
606400,note_on,0,0,4,,,,,,,,,4,,,50,34
606560,note_on,0,0,4,,,,,,,,,4,,,48,34
606560,note_on,0,0,4,,,,,,,,,4,,,50,34
606560,note_on,320,0,1,,,,,,,,,0,,,62,50
606560,note_off,160,0,4,,,,,,,,,4,,,50,0
606660,set_tempo,1860,1,0,,,,,,2222222,,,,,,,
606720,note_on,0,0,1,,,,,,,,,0,,,67,51
606720,note_off,160,0,1,,,,,,,,,0,,,62,0
606720,set_tempo,60,1,0,,,,,,2068965,,,,,,,
606720,note_off,160,0,4,,,,,,,,,4,,,50,0
606720,note_on,0,0,4,,,,,,,,,4,,,50,34
606720,note_off,0,0,4,,,,,,,,,4,,,48,0
606720,note_on,0,0,4,,,,,,,,,4,,,46,34
606880,note_off,0,0,4,,,,,,,,,4,,,46,0
606880,note_on,0,0,4,,,,,,,,,4,,,46,35
606880,note_on,0,0,4,,,,,,,,,4,,,51,35
606880,note_off,160,0,4,,,,,,,,,4,,,50,0
607040,note_off,0,0,4,,,,,,,,,4,,,46,0
607040,note_on,0,0,4,,,,,,,,,4,,,51,35
607040,note_on,0,0,4,,,,,,,,,4,,,46,35
607040,note_off,160,0,4,,,,,,,,,4,,,51,0
607200,note_on,0,0,4,,,,,,,,,4,,,46,36
607200,note_on,0,0,4,,,,,,,,,4,,,51,36
607200,note_off,160,0,4,,,,,,,,,4,,,51,0
607200,note_off,0,0,4,,,,,,,,,4,,,46,0
607360,note_off,160,0,4,,,,,,,,,4,,,51,0
607360,note_off,0,0,4,,,,,,,,,4,,,46,0
607360,note_on,0,0,4,,,,,,,,,4,,,50,36
607360,note_on,0,0,4,,,,,,,,,4,,,46,36
607505,note_off,785,0,1,,,,,,,,,0,,,67,0
607520,note_on,15,0,1,,,,,,,,,0,,,67,52
607520,note_off,160,0,4,,,,,,,,,4,,,50,0
607520,note_off,0,0,4,,,,,,,,,4,,,46,0
607520,note_on,0,0,4,,,,,,,,,4,,,46,36
607520,note_on,0,0,4,,,,,,,,,4,,,50,36
607680,note_off,160,0,4,,,,,,,,,4,,,50,0
607680,note_off,0,0,4,,,,,,,,,4,,,46,0
607680,note_on,0,0,4,,,,,,,,,4,,,45,37
607680,note_on,0,0,4,,,,,,,,,4,,,50,37
607680,note_off,160,0,1,,,,,,,,,0,,,67,0
607680,note_on,0,0,1,,,,,,,,,0,,,66,49
607840,note_off,160,0,4,,,,,,,,,4,,,50,0
607840,note_off,160,0,1,,,,,,,,,0,,,66,0
607840,note_on,0,0,4,,,,,,,,,4,,,50,37
607840,note_on,0,0,4,,,,,,,,,4,,,45,37
607840,note_off,0,0,4,,,,,,,,,4,,,45,0
608000,note_on,0,0,4,,,,,,,,,4,,,50,37
608000,note_on,0,0,4,,,,,,,,,4,,,45,37
608000,note_off,0,0,4,,,,,,,,,4,,,45,0
608000,note_off,160,0,4,,,,,,,,,4,,,50,0
608000,note_on,160,0,1,,,,,,,,,0,,,66,51
608160,note_on,0,0,4,,,,,,,,,4,,,45,38
608160,note_off,160,0,1,,,,,,,,,0,,,66,0
608160,note_off,160,0,4,,,,,,,,,4,,,50,0
608160,note_off,0,0,4,,,,,,,,,4,,,45,0
608160,note_on,0,0,4,,,,,,,,,4,,,50,38
608320,note_on,0,0,4,,,,,,,,,4,,,45,38
608320,note_on,0,0,4,,,,,,,,,4,,,50,38
608320,note_off,160,0,4,,,,,,,,,4,,,50,0
608320,note_off,0,0,4,,,,,,,,,4,,,45,0
608480,note_off,160,0,4,,,,,,,,,4,,,50,0
608480,note_off,0,0,4,,,,,,,,,4,,,45,0
608480,note_on,0,0,4,,,,,,,,,4,,,45,39
608480,note_on,0,0,4,,,,,,,,,4,,,50,39
608480,note_on,320,0,1,,,,,,,,,0,,,62,52
608580,set_tempo,1860,1,0,,,,,,2222222,,,,,,,
608640,note_off,160,0,4,,,,,,,,,4,,,50,0
608640,note_off,0,0,4,,,,,,,,,4,,,45,0
608640,note_on,0,0,4,,,,,,,,,4,,,50,39
608640,set_tempo,60,1,0,,,,,,2068965,,,,,,,
608640,note_on,0,0,4,,,,,,,,,4,,,43,39
608640,note_on,0,0,1,,,,,,,,,0,,,70,52
608640,note_off,160,0,1,,,,,,,,,0,,,62,0
608800,note_off,160,0,4,,,,,,,,,4,,,50,0
608800,note_off,0,0,4,,,,,,,,,4,,,43,0
608800,note_on,0,0,4,,,,,,,,,4,,,43,39
608800,note_on,0,0,4,,,,,,,,,4,,,51,39
608960,note_on,0,0,4,,,,,,,,,4,,,51,40
608960,note_on,0,0,4,,,,,,,,,4,,,43,40
608960,note_off,160,0,4,,,,,,,,,4,,,51,0
608960,note_off,0,0,4,,,,,,,,,4,,,43,0
609120,note_off,160,0,4,,,,,,,,,4,,,51,0
609120,note_off,0,0,4,,,,,,,,,4,,,43,0
609120,note_on,0,0,4,,,,,,,,,4,,,43,40
609120,note_on,0,0,4,,,,,,,,,4,,,51,40
609280,note_on,0,0,4,,,,,,,,,4,,,43,40
609280,note_off,160,0,4,,,,,,,,,4,,,51,0
609280,note_off,0,0,4,,,,,,,,,4,,,43,0
609280,note_on,0,0,4,,,,,,,,,4,,,50,40
609440,note_on,0,0,4,,,,,,,,,4,,,43,41
609440,note_off,160,0,4,,,,,,,,,4,,,50,0
609440,note_off,0,0,4,,,,,,,,,4,,,43,0
609440,note_on,0,0,1,,,,,,,,,0,,,70,54
609440,note_off,800,0,1,,,,,,,,,0,,,70,0
609440,note_on,0,0,4,,,,,,,,,4,,,50,41
609600,note_on,0,0,4,,,,,,,,,4,,,50,41
609600,note_on,0,0,4,,,,,,,,,4,,,43,41
609600,note_on,0,0,1,,,,,,,,,0,,,69,55
609600,note_off,160,0,4,,,,,,,,,4,,,50,0
609600,note_off,0,0,4,,,,,,,,,4,,,43,0
609600,note_off,160,0,1,,,,,,,,,0,,,70,0
609760,note_off,160,0,1,,,,,,,,,0,,,69,0
609760,note_off,160,0,4,,,,,,,,,4,,,50,0
609760,note_off,0,0,4,,,,,,,,,4,,,43,0
609760,note_on,0,0,4,,,,,,,,,4,,,42,41
609760,note_on,0,0,4,,,,,,,,,4,,,50,41
609920,note_off,160,0,4,,,,,,,,,4,,,50,0
609920,note_on,0,0,4,,,,,,,,,4,,,42,42
609920,note_on,0,0,4,,,,,,,,,4,,,50,42
609920,note_off,0,0,4,,,,,,,,,4,,,42,0
609920,note_on,160,0,1,,,,,,,,,0,,,69,56
610080,note_on,0,0,4,,,,,,,,,4,,,42,42
610080,note_off,0,0,4,,,,,,,,,4,,,42,0
610080,note_on,0,0,4,,,,,,,,,4,,,50,42
610080,note_off,160,0,1,,,,,,,,,0,,,69,0
610080,note_off,160,0,4,,,,,,,,,4,,,50,0
610240,note_on,0,0,4,,,,,,,,,4,,,41,43
610240,note_off,160,0,4,,,,,,,,,4,,,50,0
610240,note_on,0,0,4,,,,,,,,,4,,,50,43
610240,note_off,0,0,4,,,,,,,,,4,,,42,0
610240,note_on,0,0,4,,,,,,,,,4,,,43,43
610400,note_off,160,0,4,,,,,,,,,4,,,50,0
610400,note_off,0,0,4,,,,,,,,,4,,,43,0
610400,note_off,0,0,4,,,,,,,,,4,,,41,0
610400,note_on,0,0,4,,,,,,,,,4,,,41,43
610400,note_on,0,0,4,,,,,,,,,4,,,43,43
610400,note_on,320,0,1,,,,,,,,,0,,,71,58
610400,note_on,0,0,4,,,,,,,,,4,,,50,43
610500,set_tempo,1860,1,0,,,,,,2222222,,,,,,,
610560,note_off,160,0,4,,,,,,,,,4,,,50,0
610560,note_on,0,0,4,,,,,,,,,4,,,41,43
610560,note_on,0,0,4,,,,,,,,,4,,,43,43
610560,note_on,0,0,4,,,,,,,,,4,,,50,43
610560,note_off,0,0,4,,,,,,,,,4,,,43,0
610560,note_off,0,0,4,,,,,,,,,4,,,41,0
610560,set_tempo,60,1,0,,,,,,2068965,,,,,,,
610560,note_off,160,0,1,,,,,,,,,0,,,71,0
610720,note_off,160,0,4,,,,,,,,,4,,,50,0
610720,note_on,0,0,4,,,,,,,,,4,,,48,42
610720,note_on,0,0,4,,,,,,,,,4,,,43,42
610720,note_on,0,0,4,,,,,,,,,4,,,39,42
610720,note_off,0,0,4,,,,,,,,,4,,,41,0
610720,note_off,0,0,4,,,,,,,,,4,,,43,0
610880,note_on,0,0,4,,,,,,,,,4,,,48,42
610880,note_on,0,0,4,,,,,,,,,4,,,43,42
610880,note_on,0,0,4,,,,,,,,,4,,,39,42
610880,note_off,0,0,4,,,,,,,,,4,,,43,0
610880,note_off,160,0,4,,,,,,,,,4,,,48,0
610880,note_on,320,0,1,,,,,,,,,0,,,71,60
610880,note_off,0,0,4,,,,,,,,,4,,,39,0
610960,note_on,0,0,1,,,,,,,,,0,,,72,61
610960,note_off,80,0,1,,,,,,,,,0,,,71,0
611040,note_on,0,0,4,,,,,,,,,4,,,48,41
611040,note_on,0,0,4,,,,,,,,,4,,,43,41
611040,note_on,0,0,4,,,,,,,,,4,,,39,41
611040,note_off,0,0,4,,,,,,,,,4,,,39,0
611040,note_off,0,0,4,,,,,,,,,4,,,43,0
611040,note_off,160,0,4,,,,,,,,,4,,,48,0
611040,note_off,80,0,1,,,,,,,,,0,,,72,0
611200,note_on,0,0,4,,,,,,,,,4,,,60,40
611200,note_on,0,0,4,,,,,,,,,4,,,55,40
611200,note_on,0,0,4,,,,,,,,,4,,,48,40
611200,note_off,0,0,4,,,,,,,,,4,,,39,0
611200,note_off,0,0,4,,,,,,,,,4,,,43,0
611200,note_off,160,0,4,,,,,,,,,4,,,48,0
611360,note_off,0,0,4,,,,,,,,,4,,,55,0
611360,note_off,160,0,4,,,,,,,,,4,,,60,0
611360,note_on,0,0,4,,,,,,,,,4,,,60,40
611360,note_on,0,0,4,,,,,,,,,4,,,55,40
611360,note_on,0,0,4,,,,,,,,,4,,,48,40
611360,note_off,0,0,4,,,,,,,,,4,,,48,0
611360,note_on,320,0,1,,,,,,,,,0,,,77,59
611440,note_off,80,0,1,,,,,,,,,0,,,77,0
611440,note_on,0,0,1,,,,,,,,,0,,,75,58
611520,note_off,160,0,4,,,,,,,,,4,,,60,0
611520,note_on,0,0,4,,,,,,,,,4,,,60,39
611520,note_off,80,0,1,,,,,,,,,0,,,75,0
611520,note_off,0,0,4,,,,,,,,,4,,,55,0
611520,note_off,0,0,4,,,,,,,,,4,,,48,0
611520,note_on,0,0,4,,,,,,,,,4,,,48,39
611520,note_on,0,0,4,,,,,,,,,4,,,55,39
611680,note_on,0,0,4,,,,,,,,,4,,,50,38
611680,note_off,0,0,4,,,,,,,,,4,,,48,0
611680,note_off,0,0,4,,,,,,,,,4,,,55,0
611680,note_off,160,0,4,,,,,,,,,4,,,60,0
611680,note_on,0,0,4,,,,,,,,,4,,,55,38
611680,note_on,0,0,4,,,,,,,,,4,,,58,38
611840,note_off,160,0,4,,,,,,,,,4,,,55,0
611840,note_off,0,0,4,,,,,,,,,4,,,58,0
611840,note_off,0,0,4,,,,,,,,,4,,,50,0
611840,note_on,0,0,4,,,,,,,,,4,,,50,38
611840,note_on,320,0,1,,,,,,,,,0,,,75,56
611840,note_on,0,0,4,,,,,,,,,4,,,58,38
611840,note_on,0,0,4,,,,,,,,,4,,,55,38
611920,note_off,80,0,1,,,,,,,,,0,,,75,0
611920,note_on,0,0,1,,,,,,,,,0,,,74,56
612000,note_off,160,0,4,,,,,,,,,4,,,55,0
612000,note_off,0,0,4,,,,,,,,,4,,,58,0
612000,note_off,0,0,4,,,,,,,,,4,,,50,0
612000,note_on,0,0,4,,,,,,,,,4,,,58,37
612000,note_on,0,0,4,,,,,,,,,4,,,55,37
612000,note_on,0,0,4,,,,,,,,,4,,,50,37
612000,note_off,80,0,1,,,,,,,,,0,,,74,0
612160,note_on,0,0,4,,,,,,,,,4,,,60,36
612160,note_on,0,0,4,,,,,,,,,4,,,57,36
612160,note_on,0,0,4,,,,,,,,,4,,,50,36
612160,note_off,0,0,4,,,,,,,,,4,,,50,0
612160,note_off,0,0,4,,,,,,,,,4,,,58,0
612160,note_off,160,0,4,,,,,,,,,4,,,55,0
612320,note_on,0,0,4,,,,,,,,,4,,,60,35
612320,note_on,0,0,4,,,,,,,,,4,,,57,35
612320,note_on,0,0,4,,,,,,,,,4,,,51,35
612320,note_off,0,0,4,,,,,,,,,4,,,50,0
612320,note_off,0,0,4,,,,,,,,,4,,,57,0
612320,note_off,160,0,4,,,,,,,,,4,,,60,0
612320,note_on,320,0,1,,,,,,,,,0,,,67,54
612400,note_on,0,0,1,,,,,,,,,0,,,66,53
612400,note_off,80,0,1,,,,,,,,,0,,,67,0
612420,set_tempo,1860,1,0,,,,,,2222222,,,,,,,
612480,note_off,160,0,4,,,,,,,,,4,,,60,0
612480,note_off,80,0,1,,,,,,,,,0,,,66,0
612480,set_tempo,60,1,0,,,,,,2068965,,,,,,,
612480,note_off,0,0,4,,,,,,,,,4,,,57,0
612480,note_off,0,0,4,,,,,,,,,4,,,51,0
612480,note_on,0,0,4,,,,,,,,,4,,,51,35
612480,note_on,0,0,4,,,,,,,,,4,,,57,35
612480,note_on,0,0,4,,,,,,,,,4,,,60,35
612640,note_on,0,0,4,,,,,,,,,4,,,51,34
612640,note_off,0,0,4,,,,,,,,,4,,,51,0
612640,note_off,0,0,4,,,,,,,,,4,,,57,0
612640,note_off,160,0,4,,,,,,,,,4,,,60,0
612640,note_on,0,0,4,,,,,,,,,4,,,60,34
612640,note_on,0,0,4,,,,,,,,,4,,,57,34
612800,note_on,0,0,4,,,,,,,,,4,,,60,33
612800,note_on,0,0,4,,,,,,,,,4,,,51,33
612800,note_off,0,0,4,,,,,,,,,4,,,57,0
612800,note_off,0,0,4,,,,,,,,,4,,,51,0
612800,note_on,0,0,4,,,,,,,,,4,,,57,33
612800,note_on,320,0,1,,,,,,,,,0,,,66,51
612800,note_off,160,0,4,,,,,,,,,4,,,60,0
612960,note_on,0,0,4,,,,,,,,,4,,,60,33
612960,note_on,0,0,4,,,,,,,,,4,,,50,33
612960,note_off,0,0,4,,,,,,,,,4,,,57,0
612960,note_on,0,0,4,,,,,,,,,4,,,54,33
612960,note_off,0,0,4,,,,,,,,,4,,,51,0
612960,note_off,160,0,4,,,,,,,,,4,,,60,0
612960,note_off,160,0,1,,,,,,,,,0,,,66,0
612960,note_on,0,0,1,,,,,,,,,0,,,69,51
613120,note_on,0,0,4,,,,,,,,,4,,,60,32
613120,note_on,0,0,4,,,,,,,,,4,,,54,32
613120,note_on,0,0,4,,,,,,,,,4,,,50,32
613120,note_off,0,0,4,,,,,,,,,4,,,50,0
613120,note_off,160,0,4,,,,,,,,,4,,,60,0
613120,note_off,0,0,4,,,,,,,,,4,,,54,0
613120,note_on,29440,0,2,,,,,,,,,1,,,62,52
613200,set_tempo,720,1,0,,,,,,2222222,,,,,,,
613280,note_off,160,0,4,,,,,,,,,4,,,60,0
613280,note_on,0,0,4,,,,,,,,,4,,,60,31
613280,note_on,0,0,4,,,,,,,,,4,,,54,31
613280,note_on,0,0,4,,,,,,,,,4,,,50,31
613280,note_off,160,0,2,,,,,,,,,1,,,62,0
613280,note_on,0,0,2,,,,,,,,,1,,,63,50
613280,note_off,0,0,4,,,,,,,,,4,,,50,0
613280,note_off,0,0,4,,,,,,,,,4,,,54,0
613320,set_tempo,120,1,0,,,,,,2500000,,,,,,,
613360,note_on,0,0,2,,,,,,,,,1,,,62,48
613360,note_off,80,0,2,,,,,,,,,1,,,63,0
613440,note_on,0,0,2,,,,,,,,,1,,,62,47
613440,note_off,480,0,1,,,,,,,,,0,,,69,0
613440,note_on,0,0,4,,,,,,,,,4,,,58,30
613440,note_off,160,0,4,,,,,,,,,4,,,60,0
613440,note_off,0,0,4,,,,,,,,,4,,,54,0
613440,note_off,0,0,4,,,,,,,,,4,,,50,0
613440,note_on,0,0,4,,,,,,,,,4,,,55,30
613440,note_off,80,0,2,,,,,,,,,1,,,62,0
613440,note_on,0,0,1,,,,,,,,,0,,,67,48
613680,note_off,240,0,2,,,,,,,,,1,,,62,0
613680,note_off,240,0,4,,,,,,,,,4,,,58,0
613680,note_off,240,0,1,,,,,,,,,0,,,67,0
613680,note_off,0,0,4,,,,,,,,,4,,,55,0
614240,note_on,560,0,4,,,,,,,,,4,,,46,37
614240,note_on,0,0,4,,,,,,,,,4,,,34,37
614240,note_on,560,0,1,,,,,,,,,0,,,58,37
614400,note_off,160,0,1,,,,,,,,,0,,,58,0
614400,note_off,0,0,4,,,,,,,,,4,,,46,0
614400,note_off,160,0,4,,,,,,,,,4,,,34,0
614720,note_on,320,0,4,,,,,,,,,4,,,33,37
614720,note_on,0,0,4,,,,,,,,,4,,,45,37
614720,note_on,320,0,1,,,,,,,,,0,,,57,37
614880,note_off,160,0,4,,,,,,,,,4,,,45,0
614880,note_off,0,0,4,,,,,,,,,4,,,33,0
614880,note_off,160,0,1,,,,,,,,,0,,,57,0
615200,note_on,320,0,1,,,,,,,,,0,,,62,36
615200,note_on,320,0,4,,,,,,,,,4,,,38,36
615200,note_on,0,0,4,,,,,,,,,4,,,50,36
615360,note_off,160,0,1,,,,,,,,,0,,,62,0
615360,note_off,0,0,4,,,,,,,,,4,,,38,0
615360,note_off,160,0,4,,,,,,,,,4,,,50,0
615680,control_change,320,0,4,,,,,,,64,127,4,,,,
615680,control_change,0,0,3,,,,,,,64,127,2,,,,
615680,note_on,0,0,4,,,,,,,,,4,,,55,36
615680,note_on,0,0,3,,,,,,,,,2,,,50,36
615680,control_change,320,0,1,,,,,,,64,127,0,,,,
615680,note_on,0,0,1,,,,,,,,,0,,,59,36
615680,control_change,2000,0,2,,,,,,,64,127,1,,,,
615680,control_change,30560,0,3,,,,,,,64,127,2,,,,
615680,note_on,0,0,4,,,,,,,,,4,,,43,36
615840,note_off,0,0,4,,,,,,,,,4,,,43,0
615840,note_off,160,0,3,,,,,,,,,2,,,50,0
615840,note_off,160,0,1,,,,,,,,,0,,,59,0
615840,note_off,160,0,4,,,,,,,,,4,,,55,0
616160,note_on,0,0,4,,,,,,,,,4,,,55,35
616160,note_on,320,0,3,,,,,,,,,2,,,50,35
616160,note_on,0,0,3,,,,,,,,,2,,,38,35
616160,note_on,320,0,4,,,,,,,,,4,,,31,35
616160,note_on,0,0,4,,,,,,,,,4,,,43,35
616160,note_on,320,0,1,,,,,,,,,0,,,59,35
616320,note_off,0,0,3,,,,,,,,,2,,,50,0
616320,note_off,160,0,4,,,,,,,,,4,,,43,0
616320,note_off,160,0,1,,,,,,,,,0,,,59,0
616320,note_off,0,0,4,,,,,,,,,4,,,55,0
616320,note_off,160,0,3,,,,,,,,,2,,,38,0
616320,note_off,0,0,4,,,,,,,,,4,,,31,0
616640,note_on,320,0,3,,,,,,,,,2,,,50,35
616640,note_on,320,0,1,,,,,,,,,0,,,59,35
616640,note_on,0,0,3,,,,,,,,,2,,,38,35
616640,note_on,0,0,4,,,,,,,,,4,,,43,35
616640,note_on,0,0,4,,,,,,,,,4,,,55,35
616640,note_on,320,0,4,,,,,,,,,4,,,31,35
616800,note_off,160,0,4,,,,,,,,,4,,,43,0
616800,note_off,160,0,3,,,,,,,,,2,,,38,0
616800,note_off,0,0,4,,,,,,,,,4,,,55,0
616800,note_off,0,0,4,,,,,,,,,4,,,31,0
616800,note_off,0,0,3,,,,,,,,,2,,,50,0
616800,note_off,160,0,1,,,,,,,,,0,,,59,0
617120,note_on,0,0,4,,,,,,,,,4,,,43,35
617120,note_on,320,0,1,,,,,,,,,0,,,59,35
617120,note_on,0,0,4,,,,,,,,,4,,,55,35
617120,note_on,320,0,4,,,,,,,,,4,,,31,35
617120,note_on,320,0,3,,,,,,,,,2,,,50,35
617120,note_on,0,0,3,,,,,,,,,2,,,38,35
617280,note_off,0,0,4,,,,,,,,,4,,,31,0
617280,note_off,0,0,4,,,,,,,,,4,,,43,0
617280,note_off,160,0,4,,,,,,,,,4,,,55,0
617280,note_off,160,0,3,,,,,,,,,2,,,38,0
617280,note_off,0,0,3,,,,,,,,,2,,,50,0
617280,note_off,160,0,1,,,,,,,,,0,,,59,0
617600,note_on,0,0,4,,,,,,,,,4,,,55,34
617600,note_on,320,0,4,,,,,,,,,4,,,31,34
617600,note_on,320,0,1,,,,,,,,,0,,,59,34
617600,note_on,0,0,3,,,,,,,,,2,,,38,34
617600,note_on,320,0,3,,,,,,,,,2,,,50,34
617600,note_on,0,0,4,,,,,,,,,4,,,43,34
617760,note_off,160,0,4,,,,,,,,,4,,,43,0
617760,note_off,0,0,4,,,,,,,,,4,,,55,0
617760,note_off,160,0,1,,,,,,,,,0,,,59,0
617760,note_off,0,0,3,,,,,,,,,2,,,50,0
617760,note_off,160,0,3,,,,,,,,,2,,,38,0
617760,note_off,0,0,4,,,,,,,,,4,,,31,0
618080,note_on,320,0,1,,,,,,,,,0,,,59,34
618080,note_on,320,0,4,,,,,,,,,4,,,31,34
618080,note_on,0,0,4,,,,,,,,,4,,,55,34
618080,note_on,0,0,4,,,,,,,,,4,,,43,34
618080,note_on,320,0,3,,,,,,,,,2,,,50,34
618080,note_on,0,0,3,,,,,,,,,2,,,38,34
618240,note_off,0,0,4,,,,,,,,,4,,,43,0
618240,note_off,0,0,4,,,,,,,,,4,,,31,0
618240,note_off,160,0,1,,,,,,,,,0,,,59,0
618240,note_off,0,0,3,,,,,,,,,2,,,50,0
618240,note_off,160,0,4,,,,,,,,,4,,,55,0
618240,note_off,160,0,3,,,,,,,,,2,,,38,0
618560,note_on,0,0,3,,,,,,,,,2,,,38,36
618560,note_on,320,0,3,,,,,,,,,2,,,50,36
618560,note_on,0,0,3,,,,,,,,,2,,,35,36
618560,note_on,0,0,3,,,,,,,,,2,,,59,36
618560,note_on,320,0,1,,,,,,,,,0,,,62,36
618560,note_on,320,0,4,,,,,,,,,4,,,31,36
618560,note_on,0,0,4,,,,,,,,,4,,,55,36
618560,note_on,0,0,4,,,,,,,,,4,,,43,36
618720,note_off,160,0,4,,,,,,,,,4,,,55,0
618720,note_off,0,0,4,,,,,,,,,4,,,43,0
618720,note_off,0,0,4,,,,,,,,,4,,,31,0
618720,note_off,160,0,3,,,,,,,,,2,,,59,0
618720,note_off,0,0,3,,,,,,,,,2,,,38,0
618720,note_off,0,0,3,,,,,,,,,2,,,50,0
618721,note_off,161,0,1,,,,,,,,,0,,,62,0
618721,note_off,1,0,3,,,,,,,,,2,,,35,0
619040,note_on,0,0,3,,,,,,,,,2,,,59,38
619040,note_on,0,0,4,,,,,,,,,4,,,43,38
619040,note_on,320,0,4,,,,,,,,,4,,,31,38
619040,note_on,0,0,3,,,,,,,,,2,,,35,38
619040,note_on,0,0,3,,,,,,,,,2,,,38,38
619040,note_on,0,0,4,,,,,,,,,4,,,55,38
619040,note_on,319,0,1,,,,,,,,,0,,,62,38
619040,note_on,319,0,3,,,,,,,,,2,,,50,38
619200,note_off,0,0,3,,,,,,,,,2,,,38,0
619200,note_off,160,0,3,,,,,,,,,2,,,59,0
619200,note_off,0,0,3,,,,,,,,,2,,,50,0
619200,note_off,160,0,4,,,,,,,,,4,,,43,0
619200,note_off,0,0,4,,,,,,,,,4,,,55,0
619200,note_off,0,0,4,,,,,,,,,4,,,31,0
619201,note_off,1,0,3,,,,,,,,,2,,,35,0
619201,note_off,161,0,1,,,,,,,,,0,,,62,0
619520,note_on,0,0,4,,,,,,,,,4,,,43,40
619520,note_on,0,0,4,,,,,,,,,4,,,55,40
619520,note_on,319,0,1,,,,,,,,,0,,,62,40
619520,note_on,319,0,3,,,,,,,,,2,,,50,40
619520,note_on,0,0,3,,,,,,,,,2,,,38,40
619520,note_on,0,0,3,,,,,,,,,2,,,35,40
619520,note_on,0,0,3,,,,,,,,,2,,,59,40
619520,note_on,320,0,4,,,,,,,,,4,,,31,40
619680,note_off,0,0,3,,,,,,,,,2,,,38,0
619680,note_off,160,0,3,,,,,,,,,2,,,59,0
619680,note_off,0,0,4,,,,,,,,,4,,,31,0
619680,note_off,0,0,4,,,,,,,,,4,,,43,0
619680,note_off,160,0,4,,,,,,,,,4,,,55,0
619680,note_off,0,0,3,,,,,,,,,2,,,50,0
619681,note_off,161,0,1,,,,,,,,,0,,,62,0
619681,note_off,1,0,3,,,,,,,,,2,,,35,0
620000,note_on,0,0,4,,,,,,,,,4,,,55,42
620000,note_on,320,0,4,,,,,,,,,4,,,31,42
620000,note_on,319,0,3,,,,,,,,,2,,,50,42
620000,note_on,0,0,3,,,,,,,,,2,,,38,42
620000,note_on,0,0,3,,,,,,,,,2,,,35,42
620000,note_on,0,0,3,,,,,,,,,2,,,59,42
620000,note_on,319,0,1,,,,,,,,,0,,,62,42
620000,note_on,0,0,4,,,,,,,,,4,,,43,42
620160,note_off,0,0,4,,,,,,,,,4,,,55,0
620160,note_off,160,0,3,,,,,,,,,2,,,59,0
620160,note_off,0,0,3,,,,,,,,,2,,,38,0
620160,note_off,0,0,3,,,,,,,,,2,,,50,0
620160,note_off,160,0,4,,,,,,,,,4,,,43,0
620160,note_off,0,0,4,,,,,,,,,4,,,31,0
620165,note_off,165,0,1,,,,,,,,,0,,,62,0
620165,note_off,5,0,3,,,,,,,,,2,,,35,0
620480,note_on,320,0,4,,,,,,,,,4,,,31,38
620640,note_on,0,0,4,,,,,,,,,4,,,35,37
620640,note_off,160,0,4,,,,,,,,,4,,,31,0
620800,note_off,160,0,4,,,,,,,,,4,,,35,0
620960,note_on,160,0,4,,,,,,,,,4,,,38,36
621120,note_on,0,0,4,,,,,,,,,4,,,43,35
621120,note_off,160,0,4,,,,,,,,,4,,,38,0
621280,note_off,160,0,4,,,,,,,,,4,,,43,0
621440,note_on,160,0,4,,,,,,,,,4,,,47,33
621600,note_on,0,0,4,,,,,,,,,4,,,50,33
621600,note_off,160,0,4,,,,,,,,,4,,,47,0
621760,note_off,160,0,4,,,,,,,,,4,,,50,0
621920,note_on,160,0,4,,,,,,,,,4,,,55,31
622080,note_off,160,0,4,,,,,,,,,4,,,55,0
622080,note_on,0,0,4,,,,,,,,,4,,,59,30
622240,note_off,160,0,4,,,,,,,,,4,,,59,0
622400,note_on,160,0,4,,,,,,,,,4,,,62,29
622560,note_off,160,0,4,,,,,,,,,4,,,62,0
622560,note_on,0,0,4,,,,,,,,,4,,,67,28
622720,note_off,160,0,4,,,,,,,,,4,,,67,0
622880,note_on,160,0,4,,,,,,,,,4,,,71,27
623025,set_tempo,9705,1,0,,,,,,408163,,,,,,,
623040,note_off,160,0,4,,,,,,,,,4,,,71,0
624000,control_change,3835,0,1,,,,,,,7,127,0,,,,
624000,time_signature,975,1,0,6,8,24,8,,,,,,,,,
624000,marker,0,1,0,,,,,,,,,,,,,
624720,note_on,9040,0,2,,,,,,,,,1,,,74,38
624960,control_change,240,0,2,,,,,,,64,0,1,,,,
624960,control_change,960,0,1,,,,,,,64,0,0,,,,
624960,control_change,1920,0,4,,,,,,,64,0,4,,,,
624960,control_change,0,0,3,,,,,,,64,0,2,,,,
624960,control_change,4795,0,3,,,,,,,64,0,2,,,,
625440,note_off,480,0,2,,,,,,,,,1,,,74,0
625440,note_on,0,0,2,,,,,,,,,1,,,69,39
626160,note_off,720,0,2,,,,,,,,,1,,,69,0
626160,note_on,0,0,2,,,,,,,,,1,,,72,41
626880,note_off,720,0,2,,,,,,,,,1,,,72,0
626880,note_on,0,0,2,,,,,,,,,1,,,67,42
627600,note_off,720,0,2,,,,,,,,,1,,,67,0
627600,note_on,0,0,2,,,,,,,,,1,,,71,44
628320,note_off,720,0,2,,,,,,,,,1,,,71,0
628320,note_on,0,0,2,,,,,,,,,1,,,66,45
629040,note_on,0,0,2,,,,,,,,,1,,,67,40
629040,note_off,720,0,2,,,,,,,,,1,,,66,0
629520,note_off,480,0,2,,,,,,,,,1,,,67,0
629520,note_on,0,0,2,,,,,,,,,1,,,69,38
629760,note_off,240,0,2,,,,,,,,,1,,,69,0
629760,note_on,0,0,2,,,,,,,,,1,,,71,37
630360,set_tempo,6360,1,0,,,,,,413793,,,,,,,
630480,set_tempo,120,1,0,,,,,,408163,,,,,,,
630480,note_on,5520,0,1,,,,,,,,,0,,,79,40
630720,note_off,960,0,2,,,,,,,,,1,,,71,0
630720,note_on,0,0,2,,,,,,,,,1,,,72,36
630960,note_off,240,0,2,,,,,,,,,1,,,72,0
630960,note_on,0,0,2,,,,,,,,,1,,,71,36
631200,note_off,240,0,2,,,,,,,,,1,,,71,0
631200,note_off,720,0,1,,,,,,,,,0,,,79,0
631200,note_on,0,0,1,,,,,,,,,0,,,74,41
631440,note_on,240,0,2,,,,,,,,,1,,,69,36
631680,note_on,0,0,2,,,,,,,,,1,,,68,36
631680,note_off,240,0,2,,,,,,,,,1,,,69,0
631920,note_on,0,0,2,,,,,,,,,1,,,69,37
631920,note_on,0,0,1,,,,,,,,,0,,,78,42
631920,note_off,720,0,1,,,,,,,,,0,,,74,0
631920,note_off,240,0,2,,,,,,,,,1,,,68,0
632160,note_on,0,0,2,,,,,,,,,1,,,71,37
632160,note_off,240,0,2,,,,,,,,,1,,,69,0
632400,note_on,0,0,2,,,,,,,,,1,,,69,37
632400,note_off,240,0,2,,,,,,,,,1,,,71,0
632640,note_on,0,0,1,,,,,,,,,0,,,73,43
632640,note_off,720,0,1,,,,,,,,,0,,,78,0
632880,note_on,0,0,2,,,,,,,,,1,,,67,37
632880,note_off,480,0,2,,,,,,,,,1,,,69,0
633120,note_on,0,0,2,,,,,,,,,1,,,66,37
633120,note_off,240,0,2,,,,,,,,,1,,,67,0
633360,note_on,0,0,1,,,,,,,,,0,,,76,44
633360,note_off,240,0,2,,,,,,,,,1,,,66,0
633360,note_off,720,0,1,,,,,,,,,0,,,73,0
633360,note_on,0,0,2,,,,,,,,,1,,,67,37
633600,note_on,0,0,2,,,,,,,,,1,,,69,38
633600,note_off,240,0,2,,,,,,,,,1,,,67,0
633840,note_off,240,0,2,,,,,,,,,1,,,69,0
633840,note_on,0,0,2,,,,,,,,,1,,,67,38
634080,note_off,720,0,1,,,,,,,,,0,,,76,0
634080,note_on,0,0,1,,,,,,,,,0,,,69,45
634320,note_on,0,0,2,,,,,,,,,1,,,64,38
634320,note_off,480,0,2,,,,,,,,,1,,,67,0
634560,note_off,240,0,2,,,,,,,,,1,,,64,0
634560,note_on,0,0,2,,,,,,,,,1,,,66,38
634800,note_off,720,0,1,,,,,,,,,0,,,69,0
634800,note_on,0,0,1,,,,,,,,,0,,,71,42
634800,note_off,240,0,2,,,,,,,,,1,,,66,0
634800,note_on,0,0,2,,,,,,,,,1,,,67,38
635040,note_off,240,0,2,,,,,,,,,1,,,67,0
635040,note_on,0,0,2,,,,,,,,,1,,,66,38
635280,note_on,0,0,1,,,,,,,,,0,,,73,39
635280,note_on,0,0,2,,,,,,,,,1,,,64,38
635280,note_off,240,0,2,,,,,,,,,1,,,66,0
635280,note_off,480,0,1,,,,,,,,,0,,,71,0
635520,note_on,0,0,2,,,,,,,,,1,,,66,39
635520,note_off,240,0,2,,,,,,,,,1,,,64,0
635520,note_off,240,0,1,,,,,,,,,0,,,73,0
635520,note_on,0,0,1,,,,,,,,,0,,,74,38
635760,note_on,0,0,2,,,,,,,,,1,,,69,39
635760,note_off,240,0,2,,,,,,,,,1,,,66,0
635760,note_off,240,0,1,,,,,,,,,0,,,74,0
635760,note_on,0,0,1,,,,,,,,,0,,,72,40
636000,note_on,0,0,2,,,,,,,,,1,,,67,39
636000,note_off,240,0,2,,,,,,,,,1,,,69,0
636000,note_off,240,0,1,,,,,,,,,0,,,72,0
636000,note_on,0,0,1,,,,,,,,,0,,,71,40
636120,set_tempo,5640,1,0,,,,,,413793,,,,,,,
636240,note_off,240,0,1,,,,,,,,,0,,,71,0
636240,note_on,11280,0,4,,,,,,,,,4,,,62,50
636240,set_tempo,120,1,0,,,,,,408163,,,,,,,
636240,note_on,0,0,1,,,,,,,,,0,,,69,40
636480,note_on,0,0,2,,,,,,,,,1,,,65,39
636480,note_off,480,0,2,,,,,,,,,1,,,67,0
636715,note_off,475,0,1,,,,,,,,,0,,,69,0
636720,note_on,5,0,1,,,,,,,,,0,,,71,40
636955,note_off,475,0,2,,,,,,,,,1,,,65,0
636960,note_off,240,0,1,,,,,,,,,0,,,71,0
636960,note_off,720,0,4,,,,,,,,,4,,,62,0
636960,note_on,5,0,2,,,,,,,,,1,,,64,39
636960,note_on,0,0,1,,,,,,,,,0,,,72,40
636960,note_on,0,0,4,,,,,,,,,4,,,57,51
637200,note_off,240,0,1,,,,,,,,,0,,,72,0
637200,note_on,0,0,1,,,,,,,,,0,,,71,40
637440,note_off,240,0,1,,,,,,,,,0,,,71,0
637440,note_on,0,0,1,,,,,,,,,0,,,69,40
637680,note_off,720,0,4,,,,,,,,,4,,,57,0
637680,note_on,0,0,4,,,,,,,,,4,,,60,53
637680,note_off,720,0,2,,,,,,,,,1,,,64,0
637680,note_on,0,0,2,,,,,,,,,1,,,63,40
637920,note_off,480,0,1,,,,,,,,,0,,,69,0
637920,note_on,0,0,1,,,,,,,,,0,,,67,40
638160,note_off,480,0,2,,,,,,,,,1,,,63,0
638160,note_on,0,0,2,,,,,,,,,1,,,66,40
638160,note_off,240,0,1,,,,,,,,,0,,,67,0
638160,note_on,0,0,1,,,,,,,,,0,,,69,40
638400,note_on,0,0,4,,,,,,,,,4,,,55,54
638400,note_on,0,0,2,,,,,,,,,1,,,62,40
638400,note_off,240,0,2,,,,,,,,,1,,,66,0
638400,note_off,720,0,4,,,,,,,,,4,,,60,0
638400,note_off,240,0,1,,,,,,,,,0,,,69,0
638400,note_on,0,0,1,,,,,,,,,0,,,71,40
638640,note_off,240,0,1,,,,,,,,,0,,,71,0
638640,note_on,0,0,1,,,,,,,,,0,,,69,40
638880,note_on,0,0,1,,,,,,,,,0,,,67,40
638880,note_off,240,0,1,,,,,,,,,0,,,69,0
639120,note_off,240,0,1,,,,,,,,,0,,,67,0
639120,note_off,720,0,4,,,,,,,,,4,,,55,0
639120,note_on,0,0,4,,,,,,,,,4,,,59,56
639120,note_on,0,0,1,,,,,,,,,0,,,67,40
639360,note_on,960,0,2,,,,,,,,,1,,,61,41
639367,note_off,7,0,2,,,,,,,,,1,,,62,0
639600,note_off,233,0,2,,,,,,,,,1,,,61,0
639600,note_on,0,0,2,,,,,,,,,1,,,62,41
639840,note_on,0,0,4,,,,,,,,,4,,,54,57
639840,note_on,0,0,1,,,,,,,,,0,,,69,42
639840,note_off,720,0,1,,,,,,,,,0,,,67,0
639840,note_off,240,0,2,,,,,,,,,1,,,62,0
639840,note_on,0,0,2,,,,,,,,,1,,,62,41
639840,note_off,720,0,4,,,,,,,,,4,,,59,0
640080,note_off,240,0,1,,,,,,,,,0,,,69,0
640080,note_on,0,0,1,,,,,,,,,0,,,71,43
640320,note_off,240,0,1,,,,,,,,,0,,,71,0
640320,note_on,0,0,1,,,,,,,,,0,,,69,43
640560,note_off,720,0,4,,,,,,,,,4,,,54,0
640560,note_on,0,0,4,,,,,,,,,4,,,55,53
640560,note_off,240,0,1,,,,,,,,,0,,,69,0
640560,note_on,0,0,1,,,,,,,,,0,,,71,43
640800,note_on,960,0,2,,,,,,,,,1,,,67,42
640800,note_on,0,0,4,,,,,,,,,4,,,53,51
640800,note_off,240,0,4,,,,,,,,,4,,,55,0
640807,note_off,7,0,2,,,,,,,,,1,,,62,0
641040,note_on,480,0,1,,,,,,,,,0,,,72,43
641040,note_on,0,0,4,,,,,,,,,4,,,51,49
641040,note_off,240,0,4,,,,,,,,,4,,,53,0
641047,note_off,7,0,1,,,,,,,,,0,,,71,0
641280,note_on,473,0,2,,,,,,,,,1,,,65,42
641287,note_off,7,0,2,,,,,,,,,1,,,67,0
641520,note_off,480,0,4,,,,,,,,,4,,,51,0
641520,note_on,0,0,4,,,,,,,,,4,,,50,48
641520,note_on,473,0,1,,,,,,,,,0,,,71,44
641535,note_off,15,0,1,,,,,,,,,0,,,72,0
641760,note_off,225,0,1,,,,,,,,,0,,,71,0
641760,note_off,240,0,4,,,,,,,,,4,,,50,0
641760,note_on,0,0,4,,,,,,,,,4,,,47,45
641760,note_on,0,0,1,,,,,,,,,0,,,74,44
641760,note_on,473,0,2,,,,,,,,,1,,,62,42
641775,note_off,15,0,2,,,,,,,,,1,,,65,0
641880,set_tempo,5640,1,0,,,,,,413793,,,,,,,
642000,set_tempo,120,1,0,,,,,,408163,,,,,,,
642000,note_off,225,0,2,,,,,,,,,1,,,62,0
642000,note_off,240,0,1,,,,,,,,,0,,,74,0
642000,note_on,0,0,1,,,,,,,,,0,,,79,46
642240,note_on,0,0,4,,,,,,,,,4,,,48,45
642240,note_off,480,0,4,,,,,,,,,4,,,47,0
642240,note_on,240,0,2,,,,,,,,,1,,,75,42
642480,note_off,240,0,4,,,,,,,,,4,,,48,0
642480,note_on,0,0,4,,,,,,,,,4,,,51,45
642480,note_on,0,0,2,,,,,,,,,1,,,72,42
642480,note_off,240,0,2,,,,,,,,,1,,,75,0
642720,note_off,720,0,1,,,,,,,,,0,,,79,0
642720,note_on,0,0,1,,,,,,,,,0,,,74,47
642720,note_off,240,0,2,,,,,,,,,1,,,72,0
642720,note_on,0,0,4,,,,,,,,,4,,,55,45
642720,note_off,240,0,4,,,,,,,,,4,,,51,0
642720,note_on,0,0,2,,,,,,,,,1,,,70,43
642960,note_on,0,0,4,,,,,,,,,4,,,53,46
642960,note_off,240,0,4,,,,,,,,,4,,,55,0
643200,note_off,240,0,4,,,,,,,,,4,,,53,0
643200,note_on,0,0,4,,,,,,,,,4,,,51,46
643440,note_off,240,0,4,,,,,,,,,4,,,51,0
643440,note_on,0,0,1,,,,,,,,,0,,,77,47
643440,note_on,0,0,4,,,,,,,,,4,,,50,46
643440,note_off,720,0,2,,,,,,,,,1,,,70,0
643440,note_off,720,0,1,,,,,,,,,0,,,74,0
643440,note_on,0,0,2,,,,,,,,,1,,,70,43
643680,note_off,240,0,4,,,,,,,,,4,,,50,0
643680,note_on,0,0,4,,,,,,,,,4,,,48,46
643920,note_off,240,0,4,,,,,,,,,4,,,48,0
643920,note_on,0,0,4,,,,,,,,,4,,,50,46
644160,note_on,0,0,1,,,,,,,,,0,,,72,48
644160,note_off,720,0,2,,,,,,,,,1,,,70,0
644160,note_on,0,0,2,,,,,,,,,1,,,69,43
644160,note_off,240,0,4,,,,,,,,,4,,,50,0
644160,note_on,0,0,4,,,,,,,,,4,,,53,46
644160,note_off,720,0,1,,,,,,,,,0,,,77,0
644400,note_off,240,0,4,,,,,,,,,4,,,53,0
644400,note_on,0,0,4,,,,,,,,,4,,,51,46
644640,note_on,0,0,4,,,,,,,,,4,,,50,46
644640,note_on,0,0,2,,,,,,,,,1,,,71,44
644640,note_off,480,0,2,,,,,,,,,1,,,69,0
644640,note_on,0,0,1,,,,,,,,,0,,,74,49
644640,note_off,480,0,1,,,,,,,,,0,,,72,0
644640,note_off,240,0,4,,,,,,,,,4,,,51,0
644880,note_off,240,0,4,,,,,,,,,4,,,50,0
644880,note_on,0,0,4,,,,,,,,,4,,,48,47
644880,note_on,0,0,1,,,,,,,,,0,,,75,49
644880,note_on,0,0,2,,,,,,,,,1,,,67,44
644880,note_off,240,0,1,,,,,,,,,0,,,74,0
644880,note_off,240,0,2,,,,,,,,,1,,,71,0
645120,note_off,240,0,4,,,,,,,,,4,,,48,0
645120,note_on,0,0,4,,,,,,,,,4,,,47,47
645360,note_on,0,0,4,,,,,,,,,4,,,48,47
645360,note_off,240,0,4,,,,,,,,,4,,,47,0
645600,note_off,720,0,1,,,,,,,,,0,,,75,0
645600,note_on,0,0,1,,,,,,,,,0,,,69,46
645600,note_on,0,0,4,,,,,,,,,4,,,51,47
645600,note_off,240,0,4,,,,,,,,,4,,,48,0
645600,note_on,0,0,2,,,,,,,,,1,,,65,44
645600,note_off,720,0,2,,,,,,,,,1,,,67,0
645840,note_on,0,0,4,,,,,,,,,4,,,50,47
645840,note_off,240,0,4,,,,,,,,,4,,,51,0
646080,note_on,0,0,2,,,,,,,,,1,,,65,44
646080,note_off,480,0,1,,,,,,,,,0,,,69,0
646080,note_off,480,0,2,,,,,,,,,1,,,65,0
646080,note_on,0,0,1,,,,,,,,,0,,,74,47
646080,note_on,0,0,4,,,,,,,,,4,,,48,47
646080,note_off,240,0,4,,,,,,,,,4,,,50,0
646320,note_on,0,0,4,,,,,,,,,4,,,47,47
646320,note_off,240,0,4,,,,,,,,,4,,,48,0
646560,note_off,240,0,4,,,,,,,,,4,,,47,0
646560,note_on,0,0,4,,,,,,,,,4,,,48,47
646800,note_off,240,0,4,,,,,,,,,4,,,48,0
646800,note_on,0,0,4,,,,,,,,,4,,,42,48
646800,note_on,720,0,1,,,,,,,,,0,,,72,47
646800,note_on,0,0,2,,,,,,,,,1,,,63,45
646800,note_off,720,0,2,,,,,,,,,1,,,65,0
646807,note_off,7,0,1,,,,,,,,,0,,,74,0
647040,note_on,0,0,1,,,,,,,,,0,,,71,47
647040,note_off,233,0,1,,,,,,,,,0,,,72,0
647040,note_on,0,0,2,,,,,,,,,1,,,62,45
647040,note_off,240,0,2,,,,,,,,,1,,,63,0
647040,note_off,240,0,4,,,,,,,,,4,,,42,0
647040,note_on,0,0,4,,,,,,,,,4,,,43,48
647280,note_off,240,0,4,,,,,,,,,4,,,43,0
647280,note_on,0,0,4,,,,,,,,,4,,,48,48
647520,note_off,480,0,1,,,,,,,,,0,,,71,0
647520,note_off,480,0,2,,,,,,,,,1,,,62,0
647520,note_off,240,0,4,,,,,,,,,4,,,48,0
647520,note_on,0,0,4,,,,,,,,,4,,,45,48
647760,note_off,240,0,4,,,,,,,,,4,,,45,0
647760,note_on,0,0,4,,,,,,,,,4,,,50,48
648000,note_off,240,0,4,,,,,,,,,4,,,50,0
648000,note_on,0,0,4,,,,,,,,,4,,,47,48
648110,set_tempo,6110,1,0,,,,,,413793,,,,,,,
648240,set_tempo,130,1,0,,,,,,425531,,,,,,,
648240,note_on,720,0,1,,,,,,,,,0,,,67,52
648240,note_off,240,0,4,,,,,,,,,4,,,47,0
648240,note_on,0,0,4,,,,,,,,,4,,,51,48
648480,note_off,240,0,4,,,,,,,,,4,,,51,0
648480,note_on,0,0,4,,,,,,,,,4,,,50,51
648480,note_on,960,0,2,,,,,,,,,1,,,59,46
648495,set_tempo,255,1,0,,,,,,419580,,,,,,,
648600,note_on,0,0,4,,,,,,,,,4,,,48,48
648600,note_off,120,0,4,,,,,,,,,4,,,50,0
648720,note_off,120,0,4,,,,,,,,,4,,,48,0
648720,note_on,0,0,4,,,,,,,,,4,,,47,45
648720,note_on,0,0,2,,,,,,,,,1,,,62,46
648720,note_off,240,0,2,,,,,,,,,1,,,59,0
648960,note_on,0,0,2,,,,,,,,,1,,,60,46
648960,note_off,240,0,4,,,,,,,,,4,,,47,0
648960,note_off,240,0,2,,,,,,,,,1,,,62,0
649200,note_off,240,0,2,,,,,,,,,1,,,60,0
649200,note_off,960,0,1,,,,,,,,,0,,,67,0
649200,note_on,0,0,1,,,,,,,,,0,,,72,53
649200,note_on,0,0,2,,,,,,,,,1,,,63,46
649440,note_on,0,0,2,,,,,,,,,1,,,62,46
649440,note_off,240,0,2,,,,,,,,,1,,,63,0
649680,note_on,0,0,2,,,,,,,,,1,,,65,46
649680,note_off,240,0,2,,,,,,,,,1,,,62,0
649920,note_on,960,0,4,,,,,,,,,4,,,48,49
649920,note_on,0,0,2,,,,,,,,,1,,,63,48
649920,note_off,240,0,2,,,,,,,,,1,,,65,0
650040,note_on,0,0,2,,,,,,,,,1,,,62,45
650040,note_off,120,0,2,,,,,,,,,1,,,63,0
650160,note_on,0,0,2,,,,,,,,,1,,,60,43
650160,note_off,120,0,2,,,,,,,,,1,,,62,0
650160,note_off,240,0,4,,,,,,,,,4,,,48,0
650160,note_on,0,0,4,,,,,,,,,4,,,53,49
650400,note_on,0,0,4,,,,,,,,,4,,,51,49
650400,note_off,240,0,4,,,,,,,,,4,,,53,0
650400,note_off,240,0,2,,,,,,,,,1,,,60,0
650640,note_on,0,0,4,,,,,,,,,4,,,55,50
650640,note_off,240,0,4,,,,,,,,,4,,,51,0
650640,note_off,1440,0,1,,,,,,,,,0,,,72,0
650640,note_on,0,0,1,,,,,,,,,0,,,69,55
650880,note_on,0,0,4,,,,,,,,,4,,,54,50
650880,note_off,240,0,4,,,,,,,,,4,,,55,0
651120,note_on,0,0,4,,,,,,,,,4,,,60,50
651120,note_off,240,0,4,,,,,,,,,4,,,54,0
651360,note_on,960,0,2,,,,,,,,,1,,,62,47
651480,note_off,360,0,4,,,,,,,,,4,,,60,0
651480,note_on,0,0,4,,,,,,,,,4,,,58,52
651600,note_on,0,0,2,,,,,,,,,1,,,67,47
651600,note_off,240,0,2,,,,,,,,,1,,,62,0
651600,note_on,0,0,4,,,,,,,,,4,,,57,49
651600,note_off,120,0,4,,,,,,,,,4,,,58,0
651840,note_off,240,0,2,,,,,,,,,1,,,67,0
651840,note_on,0,0,2,,,,,,,,,1,,,66,48
651840,note_off,240,0,4,,,,,,,,,4,,,57,0
652080,note_on,240,0,4,,,,,,,,,4,,,54,50
652080,note_on,0,0,1,,,,,,,,,0,,,74,57
652080,note_off,1440,0,1,,,,,,,,,0,,,69,0
652080,note_off,240,0,2,,,,,,,,,1,,,66,0
652080,note_on,0,0,2,,,,,,,,,1,,,69,48
652320,note_off,240,0,4,,,,,,,,,4,,,54,0
652320,note_on,0,0,4,,,,,,,,,4,,,58,50
652320,note_off,240,0,2,,,,,,,,,1,,,69,0
652320,note_on,0,0,2,,,,,,,,,1,,,67,48
652560,note_off,240,0,2,,,,,,,,,1,,,67,0
652560,note_on,0,0,2,,,,,,,,,1,,,72,48
652560,note_off,240,0,4,,,,,,,,,4,,,58,0
652560,note_on,0,0,4,,,,,,,,,4,,,57,51
652800,note_on,0,0,2,,,,,,,,,1,,,70,50
652800,note_off,240,0,2,,,,,,,,,1,,,72,0
652800,note_on,0,0,4,,,,,,,,,4,,,55,51
652800,note_off,240,0,4,,,,,,,,,4,,,57,0
652920,note_off,120,0,2,,,,,,,,,1,,,70,0
652920,note_on,0,0,2,,,,,,,,,1,,,69,48
653040,note_off,120,0,2,,,,,,,,,1,,,69,0
653040,note_off,240,0,4,,,,,,,,,4,,,55,0
653040,note_on,0,0,4,,,,,,,,,4,,,60,51
653040,note_on,0,0,2,,,,,,,,,1,,,67,45
653280,note_off,240,0,2,,,,,,,,,1,,,67,0
653280,note_off,240,0,4,,,,,,,,,4,,,60,0
653280,note_on,0,0,4,,,,,,,,,4,,,57,51
653520,note_off,240,0,4,,,,,,,,,4,,,57,0
653520,note_on,0,0,4,,,,,,,,,4,,,62,51
653520,note_on,0,0,1,,,,,,,,,0,,,70,59
653520,note_off,1440,0,1,,,,,,,,,0,,,74,0
653760,note_on,0,0,4,,,,,,,,,4,,,58,51
653760,note_off,240,0,4,,,,,,,,,4,,,62,0
654000,note_on,0,0,4,,,,,,,,,4,,,63,51
654000,note_off,240,0,4,,,,,,,,,4,,,58,0
654240,note_on,0,0,4,,,,,,,,,4,,,62,51
654240,note_off,240,0,4,,,,,,,,,4,,,63,0
654360,note_off,120,0,4,,,,,,,,,4,,,62,0
654360,note_on,0,0,4,,,,,,,,,4,,,60,49
654480,note_on,1200,0,2,,,,,,,,,1,,,62,49
654480,note_off,120,0,4,,,,,,,,,4,,,60,0
654480,note_on,0,0,4,,,,,,,,,4,,,58,47
654720,note_off,240,0,2,,,,,,,,,1,,,62,0
654720,note_off,240,0,4,,,,,,,,,4,,,58,0
654720,note_on,0,0,2,,,,,,,,,1,,,67,49
654960,note_on,0,0,1,,,,,,,,,0,,,75,61
654960,note_off,1440,0,1,,,,,,,,,0,,,70,0
655080,note_off,360,0,2,,,,,,,,,1,,,67,0
655080,note_on,0,0,2,,,,,,,,,1,,,65,49
655200,note_off,120,0,2,,,,,,,,,1,,,65,0
655200,note_on,0,0,2,,,,,,,,,1,,,63,46
655200,note_on,480,0,4,,,,,,,,,4,,,55,52
655440,note_on,0,0,4,,,,,,,,,4,,,60,52
655440,note_off,240,0,2,,,,,,,,,1,,,63,0
655440,note_off,240,0,4,,,,,,,,,4,,,55,0
655800,note_on,0,0,4,,,,,,,,,4,,,58,52
655800,note_off,360,0,4,,,,,,,,,4,,,60,0
655920,note_off,120,0,4,,,,,,,,,4,,,58,0
655920,note_on,0,0,4,,,,,,,,,4,,,57,52
655920,note_on,480,0,2,,,,,,,,,1,,,66,50
656160,note_on,0,0,2,,,,,,,,,1,,,72,50
656160,note_off,240,0,2,,,,,,,,,1,,,66,0
656280,note_off,360,0,4,,,,,,,,,4,,,57,0
656280,note_on,0,0,4,,,,,,,,,4,,,55,53
656400,note_on,0,0,1,,,,,,,,,0,,,74,63
656400,note_off,1440,0,1,,,,,,,,,0,,,75,0
656400,note_off,120,0,4,,,,,,,,,4,,,55,0
656400,note_on,0,0,4,,,,,,,,,4,,,54,53
656520,note_on,360,0,2,,,,,,,,,1,,,70,53
656542,note_off,22,0,2,,,,,,,,,1,,,72,0
656640,note_on,0,0,4,,,,,,,,,4,,,60,53
656640,note_off,240,0,4,,,,,,,,,4,,,54,0
656640,note_off,98,0,2,,,,,,,,,1,,,70,0
656640,note_on,0,0,2,,,,,,,,,1,,,69,50
656880,note_on,0,0,4,,,,,,,,,4,,,57,53
656880,note_off,240,0,2,,,,,,,,,1,,,69,0
656880,note_on,0,0,2,,,,,,,,,1,,,72,50
656880,note_off,240,0,4,,,,,,,,,4,,,60,0
657120,note_off,240,0,4,,,,,,,,,4,,,57,0
657120,note_on,0,0,4,,,,,,,,,4,,,62,53
657120,note_off,240,0,2,,,,,,,,,1,,,72,0
657120,note_on,0,0,2,,,,,,,,,1,,,71,51
657240,note_off,120,0,2,,,,,,,,,1,,,71,0
657240,note_on,0,0,2,,,,,,,,,1,,,69,49
657360,note_on,0,0,2,,,,,,,,,1,,,67,47
657360,note_off,120,0,2,,,,,,,,,1,,,69,0
657360,note_on,0,0,4,,,,,,,,,4,,,59,53
657360,note_off,240,0,4,,,,,,,,,4,,,62,0
657600,note_on,0,0,2,,,,,,,,,1,,,67,51
657600,note_off,240,0,2,,,,,,,,,1,,,67,0
657600,note_on,0,0,4,,,,,,,,,4,,,65,53
657600,note_off,240,0,4,,,,,,,,,4,,,59,0
657840,note_on,1440,0,1,,,,,,,,,0,,,72,54
657840,note_on,0,0,4,,,,,,,,,4,,,63,54
657840,note_off,240,0,4,,,,,,,,,4,,,65,0
657847,note_off,7,0,1,,,,,,,,,0,,,74,0
657960,note_on,0,0,4,,,,,,,,,4,,,62,52
657960,note_off,120,0,4,,,,,,,,,4,,,63,0
658080,note_on,0,0,4,,,,,,,,,4,,,60,50
658080,note_off,120,0,4,,,,,,,,,4,,,62,0
658200,note_on,600,0,2,,,,,,,,,1,,,65,50
658215,note_off,15,0,2,,,,,,,,,1,,,67,0
658320,note_on,0,0,2,,,,,,,,,1,,,63,47
658320,note_off,105,0,2,,,,,,,,,1,,,65,0
658440,note_on,360,0,4,,,,,,,,,4,,,58,54
658447,note_off,7,0,4,,,,,,,,,4,,,60,0
658560,note_on,0,0,2,,,,,,,,,1,,,63,51
658560,note_on,0,0,4,,,,,,,,,4,,,57,54
658560,note_off,113,0,4,,,,,,,,,4,,,58,0
658560,note_off,240,0,2,,,,,,,,,1,,,63,0
658680,note_off,120,0,2,,,,,,,,,1,,,63,0
658680,note_on,0,0,2,,,,,,,,,1,,,62,49
658800,note_off,120,0,2,,,,,,,,,1,,,62,0
658800,note_on,0,0,2,,,,,,,,,1,,,60,47
658920,note_on,360,0,4,,,,,,,,,4,,,55,55
658942,note_off,22,0,4,,,,,,,,,4,,,57,0
659040,note_off,98,0,4,,,,,,,,,4,,,55,0
659040,note_on,0,0,2,,,,,,,,,1,,,62,52
659040,note_off,240,0,2,,,,,,,,,1,,,60,0
659040,note_on,0,0,4,,,,,,,,,4,,,53,54
659040,note_on,0,0,1,,,,,,,,,0,,,71,52
659040,note_off,1193,0,1,,,,,,,,,0,,,72,0
659160,note_off,120,0,4,,,,,,,,,4,,,53,0
659160,note_on,0,0,4,,,,,,,,,4,,,55,52
659160,set_tempo,10665,1,0,,,,,,428571,,,,,,,
659280,note_off,240,0,2,,,,,,,,,1,,,62,0
659280,note_on,0,0,1,,,,,,,,,0,,,72,52
659280,note_off,240,0,1,,,,,,,,,0,,,71,0
659280,note_on,0,0,2,,,,,,,,,1,,,63,52
659280,set_tempo,120,1,0,,,,,,425531,,,,,,,
659280,note_on,0,0,4,,,,,,,,,4,,,48,60
659280,note_on,0,0,4,,,,,,,,,4,,,36,60
659280,note_off,120,0,4,,,,,,,,,4,,,55,0
659520,note_off,240,0,2,,,,,,,,,1,,,63,0
659520,note_off,240,0,1,,,,,,,,,0,,,72,0
659520,note_on,0,0,1,,,,,,,,,0,,,77,52
659520,note_on,0,0,2,,,,,,,,,1,,,68,52
659760,note_off,240,0,2,,,,,,,,,1,,,68,0
659760,note_on,0,0,1,,,,,,,,,0,,,74,52
659760,note_off,240,0,1,,,,,,,,,0,,,77,0
659760,note_on,0,0,2,,,,,,,,,1,,,67,52
660000,note_on,0,0,2,,,,,,,,,1,,,70,52
660000,note_off,240,0,2,,,,,,,,,1,,,67,0
660000,note_on,0,0,1,,,,,,,,,0,,,79,52
660000,note_off,240,0,1,,,,,,,,,0,,,74,0
660240,note_on,0,0,1,,,,,,,,,0,,,76,52
660240,note_on,0,0,2,,,,,,,,,1,,,67,52
660240,note_off,240,0,1,,,,,,,,,0,,,79,0
660240,note_off,240,0,2,,,,,,,,,1,,,70,0
660480,note_off,240,0,2,,,,,,,,,1,,,67,0
660480,note_on,0,0,2,,,,,,,,,1,,,72,52
660480,note_off,240,0,1,,,,,,,,,0,,,76,0
660480,note_on,0,0,1,,,,,,,,,0,,,80,52
660720,note_off,1440,0,4,,,,,,,,,4,,,48,0
660720,note_off,0,0,4,,,,,,,,,4,,,36,0
660720,note_on,0,0,4,,,,,,,,,4,,,41,66
660720,note_on,0,0,4,,,,,,,,,4,,,53,66
660840,note_on,0,0,2,,,,,,,,,1,,,70,50
660840,note_off,360,0,1,,,,,,,,,0,,,80,0
660840,note_on,0,0,1,,,,,,,,,0,,,79,52
660840,note_off,360,0,2,,,,,,,,,1,,,72,0
660960,note_on,0,0,2,,,,,,,,,1,,,68,47
660960,note_off,120,0,2,,,,,,,,,1,,,70,0
660960,note_off,120,0,1,,,,,,,,,0,,,79,0
660960,note_on,0,0,1,,,,,,,,,0,,,77,49
661200,note_on,0,0,1,,,,,,,,,0,,,68,52
661200,note_off,240,0,2,,,,,,,,,1,,,68,0
661200,note_on,0,0,2,,,,,,,,,1,,,72,53
661200,note_off,240,0,1,,,,,,,,,0,,,77,0
661680,note_off,480,0,2,,,,,,,,,1,,,72,0
661680,note_on,0,0,2,,,,,,,,,1,,,65,53
661680,note_on,0,0,1,,,,,,,,,0,,,68,52
661680,note_off,480,0,1,,,,,,,,,0,,,68,0
661920,note_off,240,0,2,,,,,,,,,1,,,65,0
661920,note_on,0,0,1,,,,,,,,,0,,,69,52
661920,note_on,0,0,2,,,,,,,,,1,,,72,53
661920,note_off,240,0,1,,,,,,,,,0,,,68,0
662160,note_on,0,0,4,,,,,,,,,4,,,38,62
662160,note_off,1440,0,4,,,,,,,,,4,,,53,0
662160,note_off,0,0,4,,,,,,,,,4,,,41,0
662160,note_on,0,0,4,,,,,,,,,4,,,50,62
662280,note_on,0,0,1,,,,,,,,,0,,,70,52
662280,note_off,360,0,1,,,,,,,,,0,,,69,0
662280,note_off,360,0,2,,,,,,,,,1,,,72,0
662280,note_on,0,0,2,,,,,,,,,1,,,67,53
662400,note_on,0,0,2,,,,,,,,,1,,,66,53
662400,note_off,120,0,2,,,,,,,,,1,,,67,0
662400,note_off,120,0,1,,,,,,,,,0,,,70,0
662400,note_on,0,0,1,,,,,,,,,0,,,69,50
662640,note_off,240,0,2,,,,,,,,,1,,,66,0
662640,note_on,0,0,1,,,,,,,,,0,,,81,53
662640,note_on,0,0,2,,,,,,,,,1,,,72,54
662640,note_off,240,0,1,,,,,,,,,0,,,69,0
663120,note_off,480,0,2,,,,,,,,,1,,,72,0
663120,note_on,0,0,2,,,,,,,,,1,,,69,54
663120,note_on,0,0,1,,,,,,,,,0,,,78,53
663120,note_off,480,0,1,,,,,,,,,0,,,81,0
663360,note_on,0,0,1,,,,,,,,,0,,,82,53
663360,note_off,240,0,2,,,,,,,,,1,,,69,0
663360,note_on,0,0,2,,,,,,,,,1,,,74,54
663360,note_off,240,0,1,,,,,,,,,0,,,78,0
663600,note_off,0,0,4,,,,,,,,,4,,,38,0
663600,note_on,0,0,4,,,,,,,,,4,,,55,70
663600,note_on,0,0,4,,,,,,,,,4,,,43,70
663600,note_off,1440,0,4,,,,,,,,,4,,,50,0
663720,note_off,360,0,1,,,,,,,,,0,,,82,0
663720,note_off,360,0,2,,,,,,,,,1,,,74,0
663720,note_on,0,0,2,,,,,,,,,1,,,72,54
663720,note_on,0,0,1,,,,,,,,,0,,,81,53
663840,note_on,0,0,2,,,,,,,,,1,,,70,54
663840,note_off,120,0,1,,,,,,,,,0,,,81,0
663840,note_off,120,0,2,,,,,,,,,1,,,72,0
663840,note_on,0,0,1,,,,,,,,,0,,,79,50
664080,note_on,0,0,1,,,,,,,,,0,,,62,53
664080,note_off,240,0,1,,,,,,,,,0,,,79,0
664080,note_off,240,0,2,,,,,,,,,1,,,70,0
664560,note_off,480,0,1,,,,,,,,,0,,,62,0
664560,note_on,0,0,1,,,,,,,,,0,,,59,53
664800,note_off,240,0,1,,,,,,,,,0,,,59,0
664800,note_on,0,0,1,,,,,,,,,0,,,67,53
665040,note_on,0,0,4,,,,,,,,,4,,,39,65
665040,note_on,0,0,4,,,,,,,,,4,,,51,65
665040,note_off,1440,0,4,,,,,,,,,4,,,43,0
665040,note_off,0,0,4,,,,,,,,,4,,,55,0
665160,note_off,360,0,1,,,,,,,,,0,,,67,0
665160,note_on,0,0,1,,,,,,,,,0,,,65,52
665280,note_off,120,0,1,,,,,,,,,0,,,65,0
665280,note_on,0,0,1,,,,,,,,,0,,,63,48
665520,note_off,240,0,1,,,,,,,,,0,,,63,0
665520,note_on,1440,0,2,,,,,,,,,1,,,67,55
665520,note_on,0,0,1,,,,,,,,,0,,,70,54
666000,note_on,0,0,1,,,,,,,,,0,,,67,54
666000,note_off,480,0,1,,,,,,,,,0,,,70,0
666000,note_on,0,0,2,,,,,,,,,1,,,63,55
666000,note_off,480,0,2,,,,,,,,,1,,,67,0
666240,note_on,0,0,2,,,,,,,,,1,,,72,56
666240,note_off,240,0,1,,,,,,,,,0,,,67,0
666240,note_on,0,0,1,,,,,,,,,0,,,75,54
666240,note_off,240,0,2,,,,,,,,,1,,,63,0
666480,note_off,1440,0,4,,,,,,,,,4,,,51,0
666480,note_off,0,0,4,,,,,,,,,4,,,39,0
666480,note_on,0,0,4,,,,,,,,,4,,,44,72
666480,note_on,0,0,4,,,,,,,,,4,,,56,72
666600,note_off,360,0,1,,,,,,,,,0,,,75,0
666600,note_on,0,0,1,,,,,,,,,0,,,73,53
666600,note_on,0,0,2,,,,,,,,,1,,,70,56
666600,note_off,360,0,2,,,,,,,,,1,,,72,0
666720,note_off,120,0,2,,,,,,,,,1,,,70,0
666720,note_on,0,0,1,,,,,,,,,0,,,72,51
666720,note_on,0,0,2,,,,,,,,,1,,,68,54
666720,note_off,120,0,1,,,,,,,,,0,,,73,0
666960,note_off,240,0,2,,,,,,,,,1,,,68,0
666960,note_off,240,0,1,,,,,,,,,0,,,72,0
666960,note_on,0,0,1,,,,,,,,,0,,,65,54
667440,note_off,480,0,1,,,,,,,,,0,,,65,0
667440,note_on,0,0,1,,,,,,,,,0,,,60,54
667680,note_on,0,0,1,,,,,,,,,0,,,70,54
667680,note_off,240,0,1,,,,,,,,,0,,,60,0
667920,note_off,1440,0,4,,,,,,,,,4,,,56,0
667920,note_off,0,0,4,,,,,,,,,4,,,44,0
667920,note_on,0,0,4,,,,,,,,,4,,,43,63
667920,note_on,0,0,4,,,,,,,,,4,,,55,63
668160,note_on,0,0,1,,,,,,,,,0,,,75,54
668160,note_off,480,0,1,,,,,,,,,0,,,70,0
668400,note_off,240,0,1,,,,,,,,,0,,,75,0
668400,note_on,0,0,1,,,,,,,,,0,,,63,54
668880,note_off,480,0,1,,,,,,,,,0,,,63,0
668880,note_on,0,0,1,,,,,,,,,0,,,58,55
669120,note_off,240,0,1,,,,,,,,,0,,,58,0
669120,note_on,0,0,1,,,,,,,,,0,,,68,55
669360,note_on,0,0,4,,,,,,,,,4,,,53,61
669360,note_on,0,0,4,,,,,,,,,4,,,41,61
669360,note_off,0,0,4,,,,,,,,,4,,,43,0
669360,note_off,1440,0,4,,,,,,,,,4,,,55,0
669600,note_off,480,0,1,,,,,,,,,0,,,68,0
669600,note_on,0,0,1,,,,,,,,,0,,,74,55
669840,note_on,0,0,1,,,,,,,,,0,,,62,55
669840,note_off,240,0,1,,,,,,,,,0,,,74,0
669975,set_tempo,10695,1,0,,,,,,434782,,,,,,,
670320,note_on,0,0,1,,,,,,,,,0,,,56,55
670320,note_off,480,0,1,,,,,,,,,0,,,62,0
670560,note_off,240,0,1,,,,,,,,,0,,,56,0
670560,note_on,0,0,1,,,,,,,,,0,,,63,52
670680,note_on,0,0,1,,,,,,,,,0,,,68,52
670680,note_off,120,0,1,,,,,,,,,0,,,63,0
670800,note_on,0,0,1,,,,,,,,,0,,,67,52
670800,note_off,120,0,1,,,,,,,,,0,,,68,0
670800,note_off,0,0,4,,,,,,,,,4,,,41,0
670800,note_off,1440,0,4,,,,,,,,,4,,,53,0
670800,note_on,0,0,4,,,,,,,,,4,,,39,58
670800,note_on,0,0,4,,,,,,,,,4,,,51,58
670920,note_on,0,0,1,,,,,,,,,0,,,72,53
670920,note_off,120,0,1,,,,,,,,,0,,,67,0
671040,note_off,120,0,1,,,,,,,,,0,,,72,0
671040,note_on,0,0,1,,,,,,,,,0,,,70,51
671100,note_off,60,0,1,,,,,,,,,0,,,70,0
671100,note_on,0,0,1,,,,,,,,,0,,,68,50
671160,note_on,0,0,1,,,,,,,,,0,,,67,49
671160,note_off,60,0,1,,,,,,,,,0,,,68,0
671280,note_on,4320,0,2,,,,,,,,,1,,,58,56
671280,note_off,120,0,1,,,,,,,,,0,,,67,0
671280,note_off,0,0,4,,,,,,,,,4,,,39,0
671280,note_off,480,0,4,,,,,,,,,4,,,51,0
671400,note_off,120,0,2,,,,,,,,,1,,,58,0
671400,note_on,0,0,2,,,,,,,,,1,,,63,56
671520,note_on,0,0,2,,,,,,,,,1,,,62,56
671520,note_off,120,0,2,,,,,,,,,1,,,63,0
671520,note_on,240,0,1,,,,,,,,,0,,,68,52
671640,note_off,120,0,2,,,,,,,,,1,,,62,0
671640,note_on,0,0,2,,,,,,,,,1,,,67,59
671760,note_off,120,0,2,,,,,,,,,1,,,67,0
671760,note_on,0,0,2,,,,,,,,,1,,,65,57
671760,note_off,240,0,1,,,,,,,,,0,,,68,0
671820,note_on,0,0,2,,,,,,,,,1,,,63,56
671820,note_off,60,0,2,,,,,,,,,1,,,65,0
671880,note_on,0,0,2,,,,,,,,,1,,,62,55
671880,note_off,60,0,2,,,,,,,,,1,,,63,0
672000,note_on,720,0,4,,,,,,,,,4,,,46,61
672000,note_off,120,0,2,,,,,,,,,1,,,62,0
672120,note_off,120,0,4,,,,,,,,,4,,,46,0
672120,note_on,0,0,4,,,,,,,,,4,,,53,61
672240,note_off,120,0,4,,,,,,,,,4,,,53,0
672240,note_on,480,0,1,,,,,,,,,0,,,67,53
672240,note_on,0,0,4,,,,,,,,,4,,,51,61
672360,note_off,120,0,4,,,,,,,,,4,,,51,0
672360,note_on,0,0,4,,,,,,,,,4,,,56,61
672360,note_on,0,0,1,,,,,,,,,0,,,72,53
672360,note_off,120,0,1,,,,,,,,,0,,,67,0
672480,note_on,0,0,4,,,,,,,,,4,,,55,60
672480,note_on,0,0,1,,,,,,,,,0,,,70,52
672480,note_off,120,0,1,,,,,,,,,0,,,72,0
672480,note_off,120,0,4,,,,,,,,,4,,,56,0
672540,note_off,60,0,1,,,,,,,,,0,,,70,0
672540,note_on,0,0,1,,,,,,,,,0,,,68,50
672540,note_off,60,0,4,,,,,,,,,4,,,55,0
672540,note_on,0,0,4,,,,,,,,,4,,,53,59
672600,note_on,0,0,1,,,,,,,,,0,,,67,48
672600,note_off,60,0,1,,,,,,,,,0,,,68,0
672600,note_off,60,0,4,,,,,,,,,4,,,53,0
672600,note_on,0,0,4,,,,,,,,,4,,,51,57
672720,note_off,120,0,1,,,,,,,,,0,,,67,0
672720,note_off,120,0,4,,,,,,,,,4,,,51,0
672720,note_on,0,0,1,,,,,,,,,0,,,75,53
672840,note_off,120,0,1,,,,,,,,,0,,,75,0
672840,note_on,0,0,1,,,,,,,,,0,,,80,53
672960,note_on,960,0,2,,,,,,,,,1,,,63,57
672960,note_off,120,0,1,,,,,,,,,0,,,80,0
672960,note_on,0,0,1,,,,,,,,,0,,,79,53
673080,note_off,120,0,2,,,,,,,,,1,,,63,0
673080,note_on,0,0,2,,,,,,,,,1,,,68,57
673080,note_off,120,0,1,,,,,,,,,0,,,79,0
673080,note_on,0,0,1,,,,,,,,,0,,,84,53
673200,note_on,0,0,2,,,,,,,,,1,,,67,57
673200,note_off,120,0,2,,,,,,,,,1,,,68,0
673200,note_off,120,0,1,,,,,,,,,0,,,84,0
673200,note_on,0,0,1,,,,,,,,,0,,,82,52
673260,note_off,60,0,1,,,,,,,,,0,,,82,0
673260,note_on,0,0,1,,,,,,,,,0,,,80,50
673320,note_on,0,0,2,,,,,,,,,1,,,72,57
673320,note_off,60,0,1,,,,,,,,,0,,,80,0
673320,note_on,0,0,1,,,,,,,,,0,,,79,48
673320,note_off,120,0,2,,,,,,,,,1,,,67,0
673440,note_off,120,0,1,,,,,,,,,0,,,79,0
673440,note_off,120,0,2,,,,,,,,,1,,,72,0
673440,note_on,0,0,2,,,,,,,,,1,,,70,55
673500,note_off,60,0,2,,,,,,,,,1,,,70,0
673500,note_on,0,0,2,,,,,,,,,1,,,68,54
673560,set_tempo,3585,1,0,,,,,,441176,,,,,,,
673560,note_off,60,0,2,,,,,,,,,1,,,68,0
673560,note_on,0,0,2,,,,,,,,,1,,,67,53
673680,note_on,240,0,1,,,,,,,,,0,,,78,53
673680,set_tempo,120,1,0,,,,,,434782,,,,,,,
673680,note_on,0,0,2,,,,,,,,,1,,,75,68
673680,note_off,120,0,2,,,,,,,,,1,,,67,0
673800,note_on,0,0,1,,,,,,,,,0,,,87,53
673800,note_off,120,0,1,,,,,,,,,0,,,78,0
673920,note_off,120,0,1,,,,,,,,,0,,,87,0
673920,note_on,0,0,1,,,,,,,,,0,,,84,53
674040,note_on,0,0,1,,,,,,,,,0,,,89,54
674040,note_off,120,0,1,,,,,,,,,0,,,84,0
674160,note_on,0,0,1,,,,,,,,,0,,,87,52
674160,note_off,120,0,1,,,,,,,,,0,,,89,0
674220,note_on,0,0,1,,,,,,,,,0,,,85,51
674220,note_off,60,0,1,,,,,,,,,0,,,87,0
674280,note_on,0,0,1,,,,,,,,,0,,,84,50
674280,note_off,60,0,1,,,,,,,,,0,,,85,0
674400,note_off,120,0,1,,,,,,,,,0,,,84,0
674400,note_on,1680,0,4,,,,,,,,,4,,,60,62
674400,note_off,720,0,2,,,,,,,,,1,,,75,0
674400,note_on,0,0,2,,,,,,,,,1,,,69,69
674520,note_on,0,0,4,,,,,,,,,4,,,53,62
674520,note_off,120,0,4,,,,,,,,,4,,,60,0
674640,note_on,0,0,4,,,,,,,,,4,,,58,62
674640,note_off,120,0,4,,,,,,,,,4,,,53,0
674760,note_off,120,0,4,,,,,,,,,4,,,58,0
674760,note_on,0,0,4,,,,,,,,,4,,,53,62
674880,note_off,120,0,4,,,,,,,,,4,,,53,0
674880,note_on,0,0,4,,,,,,,,,4,,,57,62
674940,note_on,0,0,4,,,,,,,,,4,,,55,61
674940,note_off,60,0,4,,,,,,,,,4,,,57,0
675000,note_off,60,0,4,,,,,,,,,4,,,55,0
675000,note_on,0,0,4,,,,,,,,,4,,,53,59
675120,note_on,720,0,1,,,,,,,,,0,,,77,54
675120,note_off,720,0,2,,,,,,,,,1,,,69,0
675120,note_on,0,0,2,,,,,,,,,1,,,73,71
675120,note_off,120,0,4,,,,,,,,,4,,,53,0
675240,note_on,0,0,1,,,,,,,,,0,,,84,54
675240,note_off,120,0,1,,,,,,,,,0,,,77,0
675360,note_on,0,0,1,,,,,,,,,0,,,82,54
675360,note_off,120,0,1,,,,,,,,,0,,,84,0
675480,note_on,0,0,1,,,,,,,,,0,,,87,54
675480,note_off,120,0,1,,,,,,,,,0,,,82,0
675600,note_off,120,0,1,,,,,,,,,0,,,87,0
675600,note_on,0,0,1,,,,,,,,,0,,,85,53
675660,note_on,0,0,1,,,,,,,,,0,,,84,52
675660,note_off,60,0,1,,,,,,,,,0,,,85,0
675720,note_on,0,0,1,,,,,,,,,0,,,82,52
675720,note_off,60,0,1,,,,,,,,,0,,,84,0
675840,note_on,720,0,4,,,,,,,,,4,,,58,63
675840,note_on,0,0,2,,,,,,,,,1,,,67,72
675840,note_off,720,0,2,,,,,,,,,1,,,73,0
675840,note_off,120,0,1,,,,,,,,,0,,,82,0
675960,note_on,0,0,4,,,,,,,,,4,,,51,63
675960,note_off,120,0,4,,,,,,,,,4,,,58,0
676080,note_on,0,0,4,,,,,,,,,4,,,56,63
676080,note_off,120,0,4,,,,,,,,,4,,,51,0
676200,note_on,0,0,4,,,,,,,,,4,,,51,63
676200,note_off,120,0,4,,,,,,,,,4,,,56,0
676320,note_off,120,0,4,,,,,,,,,4,,,51,0
676320,note_on,0,0,4,,,,,,,,,4,,,55,62
676380,note_on,0,0,4,,,,,,,,,4,,,53,61
676380,note_off,60,0,4,,,,,,,,,4,,,55,0
676440,note_off,60,0,4,,,,,,,,,4,,,53,0
676440,note_on,0,0,4,,,,,,,,,4,,,51,60
676560,note_off,720,0,2,,,,,,,,,1,,,67,0
676560,note_on,720,0,1,,,,,,,,,0,,,75,55
676560,note_on,0,0,2,,,,,,,,,1,,,72,74
676560,note_off,120,0,4,,,,,,,,,4,,,51,0
676680,note_on,0,0,1,,,,,,,,,0,,,82,55
676680,note_off,120,0,1,,,,,,,,,0,,,75,0
676800,note_off,120,0,1,,,,,,,,,0,,,82,0
676800,note_on,0,0,1,,,,,,,,,0,,,80,55
676920,note_off,120,0,1,,,,,,,,,0,,,80,0
676920,note_on,0,0,1,,,,,,,,,0,,,85,55
677040,note_off,120,0,1,,,,,,,,,0,,,85,0
677040,note_on,0,0,1,,,,,,,,,0,,,84,53
677100,note_off,60,0,1,,,,,,,,,0,,,84,0
677100,note_on,0,0,1,,,,,,,,,0,,,82,52
677160,note_off,60,0,1,,,,,,,,,0,,,82,0
677160,note_on,0,0,1,,,,,,,,,0,,,80,51
677280,note_on,0,0,2,,,,,,,,,1,,,65,75
677280,note_off,120,0,1,,,,,,,,,0,,,80,0
677280,note_off,720,0,2,,,,,,,,,1,,,72,0
677280,note_on,720,0,4,,,,,,,,,4,,,56,63
677400,note_on,0,0,4,,,,,,,,,4,,,49,64
677400,note_off,120,0,4,,,,,,,,,4,,,56,0
677520,note_off,120,0,4,,,,,,,,,4,,,49,0
677520,note_on,0,0,4,,,,,,,,,4,,,54,64
677640,note_on,0,0,4,,,,,,,,,4,,,49,64
677640,note_off,120,0,4,,,,,,,,,4,,,54,0
677760,note_on,0,0,4,,,,,,,,,4,,,53,61
677760,note_off,120,0,4,,,,,,,,,4,,,49,0
677820,note_on,0,0,4,,,,,,,,,4,,,51,60
677820,note_off,60,0,4,,,,,,,,,4,,,53,0
677880,note_off,60,0,4,,,,,,,,,4,,,51,0
677880,note_on,0,0,4,,,,,,,,,4,,,49,59
678000,note_off,120,0,4,,,,,,,,,4,,,49,0
678000,note_on,0,0,2,,,,,,,,,1,,,67,73
678000,note_off,720,0,2,,,,,,,,,1,,,65,0
678000,note_on,0,0,4,,,,,,,,,4,,,63,64
678120,note_off,120,0,4,,,,,,,,,4,,,63,0
678120,note_on,0,0,4,,,,,,,,,4,,,58,64
678240,note_off,120,0,4,,,,,,,,,4,,,58,0
678240,note_on,0,0,4,,,,,,,,,4,,,61,64
678360,note_off,120,0,4,,,,,,,,,4,,,61,0
678360,note_on,0,0,4,,,,,,,,,4,,,58,64
678480,note_on,0,0,2,,,,,,,,,1,,,68,71
678480,note_off,120,0,4,,,,,,,,,4,,,58,0
678480,note_off,480,0,2,,,,,,,,,1,,,67,0
678480,note_on,0,0,4,,,,,,,,,4,,,60,61
678540,note_on,60,0,4,,,,,,,,,4,,,58,60
678547,note_off,7,0,4,,,,,,,,,4,,,60,0
678600,note_off,53,0,4,,,,,,,,,4,,,58,0
678600,note_on,0,0,4,,,,,,,,,4,,,56,59
678720,note_off,240,0,2,,,,,,,,,1,,,68,0
678720,note_on,0,0,2,,,,,,,,,1,,,70,68
678720,note_off,120,0,4,,,,,,,,,4,,,56,0
678720,note_on,1440,0,1,,,,,,,,,0,,,79,52
678840,note_on,0,0,1,,,,,,,,,0,,,74,52
678840,note_off,120,0,1,,,,,,,,,0,,,79,0
678960,note_off,120,0,1,,,,,,,,,0,,,74,0
678960,note_on,0,0,1,,,,,,,,,0,,,77,52
679080,note_on,0,0,1,,,,,,,,,0,,,73,52
679080,note_off,120,0,1,,,,,,,,,0,,,77,0
679200,note_off,120,0,1,,,,,,,,,0,,,73,0
679200,note_on,0,0,1,,,,,,,,,0,,,77,53
679260,note_off,60,0,1,,,,,,,,,0,,,77,0
679260,note_on,0,0,1,,,,,,,,,0,,,75,51
679320,note_off,60,0,1,,,,,,,,,0,,,75,0
679320,set_tempo,5640,1,0,,,,,,441176,,,,,,,
679320,note_on,0,0,1,,,,,,,,,0,,,73,49
679440,note_off,120,0,1,,,,,,,,,0,,,73,0
679440,note_off,720,0,2,,,,,,,,,1,,,70,0
679440,note_on,0,0,4,,,,,,,,,4,,,32,68
679440,note_on,720,0,4,,,,,,,,,4,,,44,68
679440,set_tempo,120,1,0,,,,,,428571,,,,,,,
679440,note_on,0,0,1,,,,,,,,,0,,,72,52
679440,note_on,0,0,1,,,,,,,,,0,,,62,52
679560,note_on,120,0,1,,,,,,,,,0,,,70,52
679680,note_on,0,0,1,,,,,,,,,0,,,67,52
679680,note_off,0,0,1,,,,,,,,,0,,,62,0
679680,note_off,120,0,1,,,,,,,,,0,,,70,0
679800,note_on,120,0,1,,,,,,,,,0,,,68,52
679920,note_off,120,0,1,,,,,,,,,0,,,68,0
679920,note_off,0,0,1,,,,,,,,,0,,,67,0
679920,note_off,0,0,1,,,,,,,,,0,,,72,0
679920,note_on,0,0,1,,,,,,,,,0,,,60,52
680040,note_on,120,0,1,,,,,,,,,0,,,66,52
680160,note_off,720,0,4,,,,,,,,,4,,,32,0
680160,note_off,0,0,4,,,,,,,,,4,,,44,0
680160,note_off,120,0,1,,,,,,,,,0,,,66,0
680160,note_on,0,0,4,,,,,,,,,4,,,37,69
680160,note_on,0,0,4,,,,,,,,,4,,,49,69
680160,note_on,0,0,1,,,,,,,,,0,,,56,53
680160,note_off,0,0,1,,,,,,,,,0,,,60,0
680280,note_on,120,0,1,,,,,,,,,0,,,66,53
680400,note_off,0,0,1,,,,,,,,,0,,,56,0
680400,note_off,120,0,1,,,,,,,,,0,,,66,0
680400,note_on,0,0,1,,,,,,,,,0,,,56,53
680520,note_on,120,0,1,,,,,,,,,0,,,64,53
680640,note_on,0,0,1,,,,,,,,,0,,,56,53
680640,note_off,0,0,1,,,,,,,,,0,,,56,0
680640,note_off,120,0,1,,,,,,,,,0,,,64,0
680760,note_on,120,0,1,,,,,,,,,0,,,65,53
680880,note_off,120,0,1,,,,,,,,,0,,,65,0
680880,note_on,0,0,1,,,,,,,,,0,,,61,53
680880,note_off,720,0,4,,,,,,,,,4,,,49,0
680880,note_off,0,0,4,,,,,,,,,4,,,37,0
680880,note_on,0,0,4,,,,,,,,,4,,,34,70
680880,note_on,0,0,4,,,,,,,,,4,,,46,70
680880,note_off,0,0,1,,,,,,,,,0,,,56,0
681000,note_on,120,0,1,,,,,,,,,0,,,65,53
681120,note_off,120,0,1,,,,,,,,,0,,,65,0
681120,note_on,0,0,1,,,,,,,,,0,,,61,53
681120,note_off,0,0,1,,,,,,,,,0,,,61,0
681240,note_on,120,0,1,,,,,,,,,0,,,72,53
681360,note_off,120,0,1,,,,,,,,,0,,,72,0
681360,note_off,0,0,1,,,,,,,,,0,,,61,0
681360,note_on,0,0,1,,,,,,,,,0,,,61,53
681480,note_on,120,0,1,,,,,,,,,0,,,70,53
681600,note_off,0,0,4,,,,,,,,,4,,,34,0
681600,note_on,0,0,4,,,,,,,,,4,,,39,71
681600,note_on,0,0,4,,,,,,,,,4,,,51,71
681600,note_off,720,0,4,,,,,,,,,4,,,46,0
681600,note_off,0,0,1,,,,,,,,,0,,,61,0
681600,note_off,120,0,1,,,,,,,,,0,,,70,0
681600,note_on,0,0,1,,,,,,,,,0,,,58,53
681720,note_on,120,0,1,,,,,,,,,0,,,68,54
681840,note_off,120,0,1,,,,,,,,,0,,,68,0
681840,note_off,0,0,1,,,,,,,,,0,,,58,0
681840,note_on,0,0,1,,,,,,,,,0,,,58,54
681960,note_on,120,0,1,,,,,,,,,0,,,66,54
682080,note_off,120,0,1,,,,,,,,,0,,,66,0
682080,note_off,0,0,1,,,,,,,,,0,,,58,0
682080,note_on,0,0,1,,,,,,,,,0,,,58,54
682200,note_on,120,0,1,,,,,,,,,0,,,67,54
682320,note_off,0,0,4,,,,,,,,,4,,,39,0
682320,note_on,0,0,4,,,,,,,,,4,,,36,72
682320,note_on,0,0,4,,,,,,,,,4,,,48,72
682320,note_on,0,0,1,,,,,,,,,0,,,63,54
682320,note_off,0,0,1,,,,,,,,,0,,,58,0
682320,note_off,120,0,1,,,,,,,,,0,,,67,0
682320,note_off,720,0,4,,,,,,,,,4,,,51,0
682440,note_on,120,0,1,,,,,,,,,0,,,67,54
682560,note_on,0,0,1,,,,,,,,,0,,,63,54
682560,note_off,0,0,1,,,,,,,,,0,,,63,0
682560,note_off,120,0,1,,,,,,,,,0,,,67,0
682680,note_on,120,0,1,,,,,,,,,0,,,70,54
682800,note_off,0,0,1,,,,,,,,,0,,,63,0
682800,note_off,120,0,1,,,,,,,,,0,,,70,0
682800,note_on,0,0,1,,,,,,,,,0,,,63,54
682920,note_on,120,0,1,,,,,,,,,0,,,68,54
683040,note_off,0,0,1,,,,,,,,,0,,,63,0
683040,note_off,720,0,4,,,,,,,,,4,,,48,0
683040,note_off,0,0,4,,,,,,,,,4,,,36,0
683040,note_on,0,0,4,,,,,,,,,4,,,53,74
683040,note_on,0,0,4,,,,,,,,,4,,,41,74
683040,note_on,0,0,1,,,,,,,,,0,,,62,54
683040,note_off,120,0,1,,,,,,,,,0,,,68,0
683160,note_on,120,0,1,,,,,,,,,0,,,68,54
683280,note_off,0,0,1,,,,,,,,,0,,,62,0
683280,note_on,0,0,1,,,,,,,,,0,,,67,55
683280,note_off,120,0,1,,,,,,,,,0,,,68,0
683400,note_on,120,0,1,,,,,,,,,0,,,70,55
683520,note_on,0,0,1,,,,,,,,,0,,,61,55
683520,note_off,0,0,1,,,,,,,,,0,,,67,0
683520,note_off,120,0,1,,,,,,,,,0,,,70,0
683640,note_on,120,0,1,,,,,,,,,0,,,68,55
683760,note_off,0,0,4,,,,,,,,,4,,,53,0
683760,note_off,720,0,4,,,,,,,,,4,,,41,0
683760,note_on,0,0,4,,,,,,,,,4,,,39,70
683760,note_off,0,0,1,,,,,,,,,0,,,61,0
683760,note_off,120,0,1,,,,,,,,,0,,,68,0
683760,note_on,0,0,4,,,,,,,,,4,,,51,70
683760,note_on,0,0,1,,,,,,,,,0,,,60,55
683880,note_on,120,0,1,,,,,,,,,0,,,68,55
684000,note_off,120,0,1,,,,,,,,,0,,,68,0
684000,note_off,0,0,1,,,,,,,,,0,,,60,0
684000,note_on,0,0,1,,,,,,,,,0,,,58,55
684120,note_on,120,0,1,,,,,,,,,0,,,68,55
684240,note_off,480,0,4,,,,,,,,,4,,,51,0
684240,note_on,0,0,4,,,,,,,,,4,,,37,68
684240,note_off,120,0,1,,,,,,,,,0,,,68,0
684240,note_off,0,0,1,,,,,,,,,0,,,58,0
684240,note_on,0,0,1,,,,,,,,,0,,,65,55
684240,note_on,0,0,4,,,,,,,,,4,,,49,68
684240,note_off,0,0,4,,,,,,,,,4,,,39,0
684360,note_on,120,0,1,,,,,,,,,0,,,67,55
684480,note_off,120,0,1,,,,,,,,,0,,,67,0
684480,note_on,0,0,1,,,,,,,,,0,,,63,55
684480,note_off,0,0,1,,,,,,,,,0,,,65,0
684480,note_off,240,0,4,,,,,,,,,4,,,49,0
684480,note_off,0,0,4,,,,,,,,,4,,,37,0
684480,note_on,0,0,4,,,,,,,,,4,,,36,67
684480,note_on,0,0,4,,,,,,,,,4,,,48,67
684600,note_on,120,0,1,,,,,,,,,0,,,68,55
684720,note_on,0,0,1,,,,,,,,,0,,,63,55
684720,note_off,0,0,1,,,,,,,,,0,,,63,0
684720,note_off,120,0,1,,,,,,,,,0,,,68,0
684720,note_off,240,0,4,,,,,,,,,4,,,48,0
684720,note_on,0,0,4,,,,,,,,,4,,,34,66
684720,note_off,0,0,4,,,,,,,,,4,,,36,0
684720,note_on,0,0,4,,,,,,,,,4,,,46,66
684840,note_on,120,0,1,,,,,,,,,0,,,70,56
684960,note_off,240,0,4,,,,,,,,,4,,,46,0
684960,note_off,0,0,4,,,,,,,,,4,,,34,0
684960,note_on,0,0,4,,,,,,,,,4,,,44,65
684960,note_on,0,0,4,,,,,,,,,4,,,32,65
684960,note_off,0,0,1,,,,,,,,,0,,,63,0
684960,note_on,0,0,1,,,,,,,,,0,,,63,56
684960,note_off,120,0,1,,,,,,,,,0,,,70,0
685080,set_tempo,5640,1,0,,,,,,434782,,,,,,,
685080,note_on,120,0,1,,,,,,,,,0,,,72,56
685200,note_off,120,0,1,,,,,,,,,0,,,72,0
685200,note_off,0,0,1,,,,,,,,,0,,,63,0
685200,note_on,0,0,1,,,,,,,,,0,,,70,56
685200,set_tempo,120,1,0,,,,,,425531,,,,,,,
685200,note_on,0,0,4,,,,,,,,,4,,,43,64
685200,note_on,5760,0,2,,,,,,,,,1,,,63,70
685200,note_off,240,0,4,,,,,,,,,4,,,32,0
685200,note_off,0,0,4,,,,,,,,,4,,,44,0
685200,note_on,0,0,4,,,,,,,,,4,,,31,64
685320,note_on,120,0,1,,,,,,,,,0,,,75,56
685440,note_on,0,0,1,,,,,,,,,0,,,70,56
685440,note_off,0,0,1,,,,,,,,,0,,,70,0
685440,note_off,120,0,1,,,,,,,,,0,,,75,0
685560,note_on,120,0,1,,,,,,,,,0,,,73,56
685680,note_off,0,0,1,,,,,,,,,0,,,70,0
685680,note_off,480,0,4,,,,,,,,,4,,,43,0
685680,note_off,120,0,1,,,,,,,,,0,,,73,0
685680,note_on,0,0,1,,,,,,,,,0,,,72,56
685680,note_off,0,0,4,,,,,,,,,4,,,31,0
685800,note_on,120,0,1,,,,,,,,,0,,,73,56
685920,note_off,120,0,1,,,,,,,,,0,,,73,0
685920,note_off,0,0,1,,,,,,,,,0,,,72,0
685920,note_on,0,0,1,,,,,,,,,0,,,70,56
685920,note_on,0,0,2,,,,,,,,,1,,,68,72
685920,note_off,720,0,2,,,,,,,,,1,,,63,0
686040,note_on,120,0,1,,,,,,,,,0,,,73,56
686160,note_off,120,0,1,,,,,,,,,0,,,73,0
686160,note_off,0,0,1,,,,,,,,,0,,,70,0
686160,note_on,0,0,1,,,,,,,,,0,,,71,56
686280,note_on,120,0,1,,,,,,,,,0,,,73,56
686400,note_off,120,0,1,,,,,,,,,0,,,73,0
686400,note_off,0,0,1,,,,,,,,,0,,,71,0
686400,note_on,0,0,1,,,,,,,,,0,,,71,57
686520,note_on,120,0,1,,,,,,,,,0,,,72,57
686640,note_off,120,0,1,,,,,,,,,0,,,72,0
686640,note_on,0,0,1,,,,,,,,,0,,,72,57
686640,note_off,720,0,2,,,,,,,,,1,,,68,0
686640,note_off,0,0,1,,,,,,,,,0,,,71,0
686640,note_on,0,0,2,,,,,,,,,1,,,65,74
686760,note_on,120,0,1,,,,,,,,,0,,,80,57
686880,note_off,120,0,1,,,,,,,,,0,,,80,0
686880,note_off,0,0,1,,,,,,,,,0,,,72,0
686880,note_on,0,0,1,,,,,,,,,0,,,72,57
687000,note_on,120,0,1,,,,,,,,,0,,,82,57
687120,note_off,0,0,1,,,,,,,,,0,,,72,0
687120,note_off,120,0,1,,,,,,,,,0,,,82,0
687120,note_on,0,0,1,,,,,,,,,0,,,72,57
687240,note_on,120,0,1,,,,,,,,,0,,,80,57
687360,note_on,0,0,2,,,,,,,,,1,,,70,77
687360,note_on,0,0,1,,,,,,,,,0,,,74,57
687360,note_off,720,0,2,,,,,,,,,1,,,65,0
687360,note_off,120,0,1,,,,,,,,,0,,,80,0
687360,note_off,0,0,1,,,,,,,,,0,,,72,0
687480,note_on,120,0,1,,,,,,,,,0,,,79,57
687600,note_on,0,0,1,,,,,,,,,0,,,74,57
687600,note_off,120,0,1,,,,,,,,,0,,,79,0
687600,note_off,0,0,1,,,,,,,,,0,,,74,0
687720,note_on,120,0,1,,,,,,,,,0,,,76,57
687840,note_off,120,0,1,,,,,,,,,0,,,76,0
687840,note_off,0,0,1,,,,,,,,,0,,,74,0
687840,note_on,0,0,1,,,,,,,,,0,,,74,57
687960,note_on,120,0,1,,,,,,,,,0,,,77,58
688080,note_off,720,0,2,,,,,,,,,1,,,70,0
688080,note_on,0,0,2,,,,,,,,,1,,,67,79
688080,note_off,120,0,1,,,,,,,,,0,,,77,0
688080,note_off,0,0,1,,,,,,,,,0,,,74,0
688080,note_on,0,0,1,,,,,,,,,0,,,75,58
688200,note_on,120,0,1,,,,,,,,,0,,,82,58
688320,note_off,120,0,1,,,,,,,,,0,,,82,0
688320,note_on,0,0,1,,,,,,,,,0,,,75,58
688320,note_off,0,0,1,,,,,,,,,0,,,75,0
688440,note_on,120,0,1,,,,,,,,,0,,,84,58
688560,note_off,120,0,1,,,,,,,,,0,,,84,0
688560,note_off,0,0,1,,,,,,,,,0,,,75,0
688560,note_on,0,0,1,,,,,,,,,0,,,75,58
688680,note_on,120,0,1,,,,,,,,,0,,,82,58
688800,note_off,120,0,1,,,,,,,,,0,,,82,0
688800,note_off,0,0,1,,,,,,,,,0,,,75,0
688800,note_on,0,0,1,,,,,,,,,0,,,75,58
688800,note_off,720,0,2,,,,,,,,,1,,,67,0
688800,note_on,0,0,2,,,,,,,,,1,,,72,81
688920,note_on,120,0,1,,,,,,,,,0,,,82,58
689040,note_on,0,0,1,,,,,,,,,0,,,75,58
689040,note_off,120,0,1,,,,,,,,,0,,,82,0
689040,note_off,0,0,1,,,,,,,,,0,,,75,0
689160,note_on,120,0,1,,,,,,,,,0,,,79,58
689280,note_off,120,0,1,,,,,,,,,0,,,79,0
689280,note_off,0,0,1,,,,,,,,,0,,,75,0
689280,note_on,0,0,1,,,,,,,,,0,,,75,58
689400,note_on,120,0,1,,,,,,,,,0,,,80,58
689520,note_off,0,0,1,,,,,,,,,0,,,75,0
689520,note_off,120,0,1,,,,,,,,,0,,,80,0
689520,note_on,0,0,1,,,,,,,,,0,,,74,59
689520,note_off,720,0,2,,,,,,,,,1,,,72,0
689520,note_on,0,0,2,,,,,,,,,1,,,70,77
689640,note_on,120,0,1,,,,,,,,,0,,,80,59
689760,note_off,120,0,1,,,,,,,,,0,,,80,0
689760,note_off,0,0,1,,,,,,,,,0,,,74,0
689760,note_on,0,0,1,,,,,,,,,0,,,74,59
689880,note_on,120,0,1,,,,,,,,,0,,,82,59
690000,note_off,0,0,1,,,,,,,,,0,,,74,0
690000,note_on,0,0,2,,,,,,,,,1,,,68,74
690000,note_on,0,0,1,,,,,,,,,0,,,74,59
690000,note_off,120,0,1,,,,,,,,,0,,,82,0
690000,note_off,480,0,2,,,,,,,,,1,,,70,0
690120,note_on,120,0,1,,,,,,,,,0,,,84,59
690240,note_on,0,0,2,,,,,,,,,1,,,67,73
690240,note_off,240,0,2,,,,,,,,,1,,,68,0
690240,note_off,0,0,1,,,,,,,,,0,,,74,0
690240,note_on,0,0,1,,,,,,,,,0,,,75,59
690240,note_off,120,0,1,,,,,,,,,0,,,84,0
690360,note_on,120,0,1,,,,,,,,,0,,,84,59
690480,note_on,0,0,1,,,,,,,,,0,,,75,59
690480,note_off,0,0,1,,,,,,,,,0,,,75,0
690480,note_off,120,0,1,,,,,,,,,0,,,84,0
690600,note_on,120,0,1,,,,,,,,,0,,,81,59
690720,note_off,0,0,1,,,,,,,,,0,,,75,0
690720,note_on,0,0,1,,,,,,,,,0,,,73,59
690720,note_off,120,0,1,,,,,,,,,0,,,81,0
690840,note_on,120,0,1,,,,,,,,,0,,,82,59
690960,note_off,120,0,1,,,,,,,,,0,,,82,0
690960,note_on,0,0,1,,,,,,,,,0,,,73,59
690960,note_off,0,0,1,,,,,,,,,0,,,73,0
690960,note_off,720,0,2,,,,,,,,,1,,,67,0
690960,note_on,0,0,2,,,,,,,,,1,,,70,79
691080,note_on,120,0,1,,,,,,,,,0,,,80,60
691200,note_off,120,0,1,,,,,,,,,0,,,80,0
691200,note_off,0,0,1,,,,,,,,,0,,,73,0
691200,note_on,0,0,1,,,,,,,,,0,,,73,60
691320,note_on,120,0,1,,,,,,,,,0,,,77,60
691440,note_on,0,0,1,,,,,,,,,0,,,73,60
691440,note_off,0,0,1,,,,,,,,,0,,,73,0
691440,note_off,120,0,1,,,,,,,,,0,,,77,0
691560,note_on,120,0,1,,,,,,,,,0,,,79,60
691680,note_off,0,0,1,,,,,,,,,0,,,73,0
691680,note_on,0,0,1,,,,,,,,,0,,,73,60
691680,note_off,120,0,1,,,,,,,,,0,,,79,0
691800,note_on,120,0,1,,,,,,,,,0,,,79,60
691920,note_off,120,0,1,,,,,,,,,0,,,79,0
691920,note_off,0,0,1,,,,,,,,,0,,,73,0
691920,note_on,0,0,1,,,,,,,,,0,,,73,60
692040,note_on,120,0,1,,,,,,,,,0,,,75,60
692160,note_off,120,0,1,,,,,,,,,0,,,75,0
692160,note_off,0,0,1,,,,,,,,,0,,,73,0
692160,note_on,0,0,1,,,,,,,,,0,,,73,60
692280,note_on,120,0,1,,,,,,,,,0,,,77,60
692400,note_off,120,0,1,,,,,,,,,0,,,77,0
692400,note_on,0,0,1,,,,,,,,,0,,,73,60
692400,note_off,0,0,1,,,,,,,,,0,,,73,0
692520,note_on,120,0,1,,,,,,,,,0,,,79,60
692640,note_on,0,0,1,,,,,,,,,0,,,72,61
692640,note_off,0,0,1,,,,,,,,,0,,,73,0
692640,note_off,120,0,1,,,,,,,,,0,,,79,0
692640,note_off,1680,0,2,,,,,,,,,1,,,70,0
692640,note_on,0,0,2,,,,,,,,,1,,,68,72
692760,note_on,120,0,1,,,,,,,,,0,,,80,61
692880,note_on,0,0,1,,,,,,,,,0,,,72,61
692880,note_off,0,0,1,,,,,,,,,0,,,72,0
692880,note_on,0,0,2,,,,,,,,,1,,,66,71
692880,note_off,240,0,2,,,,,,,,,1,,,68,0
692880,note_off,120,0,1,,,,,,,,,0,,,80,0
693000,note_on,120,0,1,,,,,,,,,0,,,82,61
693120,note_on,0,0,1,,,,,,,,,0,,,73,61
693120,note_off,0,0,1,,,,,,,,,0,,,72,0
693120,note_off,120,0,1,,,,,,,,,0,,,82,0
693120,note_off,240,0,2,,,,,,,,,1,,,66,0
693120,note_on,0,0,2,,,,,,,,,1,,,65,70
693240,note_on,120,0,1,,,,,,,,,0,,,82,61
693360,note_on,0,0,1,,,,,,,,,0,,,80,61
693360,note_off,0,0,1,,,,,,,,,0,,,73,0
693360,note_off,120,0,1,,,,,,,,,0,,,82,0
693480,note_on,120,0,1,,,,,,,,,0,,,85,61
693600,note_off,120,0,1,,,,,,,,,0,,,85,0
693600,note_on,0,0,1,,,,,,,,,0,,,82,61
693600,note_off,0,0,1,,,,,,,,,0,,,80,0
693600,note_off,480,0,2,,,,,,,,,1,,,65,0
693600,note_on,0,0,2,,,,,,,,,1,,,67,71
693720,set_tempo,8520,1,0,,,,,,428571,,,,,,,
693720,note_on,120,0,1,,,,,,,,,0,,,87,61
693840,note_off,240,0,2,,,,,,,,,1,,,67,0
693840,note_off,120,0,1,,,,,,,,,0,,,87,0
693840,note_off,0,0,1,,,,,,,,,0,,,82,0
693840,note_on,0,0,1,,,,,,,,,0,,,80,70
693840,note_on,8160,0,4,,,,,,,,,4,,,48,64
693840,note_on,0,0,2,,,,,,,,,1,,,68,74
693840,note_on,0,0,2,,,,,,,,,1,,,75,74
693840,set_tempo,120,1,0,,,,,,419580,,,,,,,
693960,note_on,69000,0,3,,,,,,,,,2,,,53,60
694059,note_off,219,0,4,,,,,,,,,4,,,48,0
694080,note_off,120,0,3,,,,,,,,,2,,,53,0
694080,note_on,21,0,4,,,,,,,,,4,,,51,64
694200,note_on,120,0,3,,,,,,,,,2,,,56,60
694299,note_off,219,0,4,,,,,,,,,4,,,51,0
694320,note_off,120,0,3,,,,,,,,,2,,,56,0
694320,note_on,21,0,4,,,,,,,,,4,,,55,64
694440,note_on,120,0,3,,,,,,,,,2,,,56,60
694539,note_off,219,0,4,,,,,,,,,4,,,55,0
694560,note_off,120,0,3,,,,,,,,,2,,,56,0
694560,note_off,720,0,1,,,,,,,,,0,,,80,0
694560,note_on,0,0,1,,,,,,,,,0,,,85,78
694560,note_off,720,0,2,,,,,,,,,1,,,75,0
694560,note_on,0,0,2,,,,,,,,,1,,,73,78
694560,note_on,0,0,2,,,,,,,,,1,,,79,78
694560,note_off,0,0,2,,,,,,,,,1,,,68,0
694560,note_on,21,0,4,,,,,,,,,4,,,46,64
694680,note_on,120,0,3,,,,,,,,,2,,,55,60
694800,note_off,120,0,3,,,,,,,,,2,,,55,0
694800,note_on,240,0,4,,,,,,,,,4,,,51,64
694920,note_on,120,0,3,,,,,,,,,2,,,55,60
695019,note_off,219,0,4,,,,,,,,,4,,,51,0
695040,note_on,21,0,4,,,,,,,,,4,,,51,64
695040,note_off,120,0,3,,,,,,,,,2,,,55,0
695160,note_on,120,0,3,,,,,,,,,2,,,55,60
695259,note_off,219,0,4,,,,,,,,,4,,,51,0
695280,note_off,720,0,2,,,,,,,,,1,,,79,0
695280,note_on,0,0,2,,,,,,,,,1,,,70,75
695280,note_off,720,0,1,,,,,,,,,0,,,85,0
695280,note_on,0,0,2,,,,,,,,,1,,,79,75
695280,note_off,120,0,3,,,,,,,,,2,,,55,0
695280,note_on,0,0,4,,,,,,,,,4,,,49,65
695280,note_off,21,0,4,,,,,,,,,4,,,46,0
695280,note_off,0,0,2,,,,,,,,,1,,,73,0
695280,note_on,0,0,1,,,,,,,,,0,,,82,75
695400,note_on,120,0,3,,,,,,,,,2,,,58,60
695520,note_off,120,0,3,,,,,,,,,2,,,58,0
695520,note_on,240,0,4,,,,,,,,,4,,,51,65
695640,note_on,120,0,3,,,,,,,,,2,,,58,61
695739,note_off,219,0,4,,,,,,,,,4,,,51,0
695760,note_on,21,0,4,,,,,,,,,4,,,51,65
695760,note_off,120,0,3,,,,,,,,,2,,,58,0
695880,note_on,120,0,3,,,,,,,,,2,,,58,61
695979,note_off,219,0,4,,,,,,,,,4,,,51,0
696000,note_off,120,0,3,,,,,,,,,2,,,58,0
696000,note_on,0,0,2,,,,,,,,,1,,,80,78
696000,note_on,0,0,2,,,,,,,,,1,,,75,78
696000,note_off,720,0,1,,,,,,,,,0,,,82,0
696000,note_off,0,0,2,,,,,,,,,1,,,70,0
696000,note_on,0,0,1,,,,,,,,,0,,,87,80
696000,note_on,0,0,4,,,,,,,,,4,,,48,65
696000,note_off,21,0,4,,,,,,,,,4,,,49,0
696000,note_off,720,0,2,,,,,,,,,1,,,79,0
696120,note_on,120,0,3,,,,,,,,,2,,,53,61
696240,note_on,240,0,4,,,,,,,,,4,,,51,65
696240,note_off,120,0,3,,,,,,,,,2,,,53,0
696360,note_on,120,0,3,,,,,,,,,2,,,56,61
696459,note_off,219,0,4,,,,,,,,,4,,,51,0
696480,note_on,21,0,4,,,,,,,,,4,,,55,65
696480,note_off,120,0,3,,,,,,,,,2,,,56,0
696600,note_on,120,0,3,,,,,,,,,2,,,56,61
696699,note_off,219,0,4,,,,,,,,,4,,,55,0
696720,note_on,0,0,1,,,,,,,,,0,,,84,77
696720,note_off,720,0,1,,,,,,,,,0,,,87,0
696720,note_off,21,0,4,,,,,,,,,4,,,48,0
696720,note_on,0,0,4,,,,,,,,,4,,,51,65
696720,note_on,0,0,2,,,,,,,,,1,,,78,76
696720,note_on,0,0,2,,,,,,,,,1,,,72,76
696720,note_off,0,0,2,,,,,,,,,1,,,75,0
696720,note_off,720,0,2,,,,,,,,,1,,,80,0
696720,note_off,120,0,3,,,,,,,,,2,,,56,0
696840,note_on,120,0,3,,,,,,,,,2,,,56,61
696960,note_on,240,0,4,,,,,,,,,4,,,54,66
696982,note_off,142,0,3,,,,,,,,,2,,,56,0
697080,note_on,98,0,3,,,,,,,,,2,,,56,61
697179,note_off,219,0,4,,,,,,,,,4,,,54,0
697200,note_off,120,0,3,,,,,,,,,2,,,56,0
697200,note_on,21,0,4,,,,,,,,,4,,,55,66
697200,note_on,0,0,2,,,,,,,,,1,,,75,77
697200,note_off,480,0,2,,,,,,,,,1,,,78,0
697320,note_on,120,0,3,,,,,,,,,2,,,56,61
697419,note_off,219,0,4,,,,,,,,,4,,,55,0
697440,note_on,0,0,2,,,,,,,,,1,,,77,81
697440,note_off,0,0,2,,,,,,,,,1,,,72,0
697440,note_on,0,0,4,,,,,,,,,4,,,49,66
697440,note_off,21,0,4,,,,,,,,,4,,,51,0
697440,note_off,240,0,2,,,,,,,,,1,,,75,0
697440,note_off,720,0,1,,,,,,,,,0,,,84,0
697440,note_on,0,0,1,,,,,,,,,0,,,89,82
697440,note_off,120,0,3,,,,,,,,,2,,,56,0
697560,note_on,120,0,3,,,,,,,,,2,,,56,62
697680,note_off,120,0,3,,,,,,,,,2,,,56,0
697680,note_on,240,0,4,,,,,,,,,4,,,55,66
697800,note_on,120,0,3,,,,,,,,,2,,,56,62
697899,note_off,219,0,4,,,,,,,,,4,,,55,0
697920,note_off,120,0,3,,,,,,,,,2,,,56,0
697920,note_off,480,0,2,,,,,,,,,1,,,77,0
697920,note_on,0,0,2,,,,,,,,,1,,,77,77
697920,note_on,0,0,2,,,,,,,,,1,,,82,77
697920,note_on,21,0,4,,,,,,,,,4,,,50,66
698040,note_on,120,0,3,,,,,,,,,2,,,56,62
698139,note_off,219,0,4,,,,,,,,,4,,,50,0
698160,note_on,0,0,4,,,,,,,,,4,,,51,66
698160,note_off,21,0,4,,,,,,,,,4,,,49,0
698160,note_on,0,0,2,,,,,,,,,1,,,82,77
698160,note_off,0,0,2,,,,,,,,,1,,,77,0
698160,note_off,720,0,1,,,,,,,,,0,,,89,0
698160,note_on,0,0,1,,,,,,,,,0,,,87,79
698160,note_on,0,0,2,,,,,,,,,1,,,75,77
698160,note_off,120,0,3,,,,,,,,,2,,,56,0
698160,note_off,240,0,2,,,,,,,,,1,,,82,0
698280,note_on,120,0,3,,,,,,,,,2,,,55,62
698400,note_off,240,0,4,,,,,,,,,4,,,51,0
698400,note_on,0,0,4,,,,,,,,,4,,,51,67
698400,note_off,120,0,3,,,,,,,,,2,,,55,0
698520,note_on,120,0,3,,,,,,,,,2,,,55,62
698618,note_off,218,0,4,,,,,,,,,4,,,51,0
698640,note_on,0,0,2,,,,,,,,,1,,,73,76
698640,note_off,0,0,2,,,,,,,,,1,,,75,0
698640,note_off,120,0,3,,,,,,,,,2,,,55,0
698640,note_on,22,0,4,,,,,,,,,4,,,52,67
698640,note_on,0,0,2,,,,,,,,,1,,,79,76
698640,note_off,480,0,2,,,,,,,,,1,,,82,0
698640,note_on,0,0,1,,,,,,,,,0,,,85,77
698640,note_off,480,0,1,,,,,,,,,0,,,87,0
698760,note_on,120,0,3,,,,,,,,,2,,,58,62
698859,note_off,219,0,4,,,,,,,,,4,,,52,0
698880,note_on,0,0,2,,,,,,,,,1,,,80,75
698880,note_off,120,0,3,,,,,,,,,2,,,58,0
698880,note_off,240,0,2,,,,,,,,,1,,,79,0
698880,note_off,0,0,2,,,,,,,,,1,,,73,0
698880,note_on,21,0,4,,,,,,,,,4,,,49,67
698880,note_on,0,0,1,,,,,,,,,0,,,84,76
698880,note_off,240,0,1,,,,,,,,,0,,,85,0
698880,note_on,0,0,2,,,,,,,,,1,,,72,75
699000,note_on,120,0,3,,,,,,,,,2,,,60,62
699120,note_on,240,0,4,,,,,,,,,4,,,56,67
699120,note_off,120,0,3,,,,,,,,,2,,,60,0
699240,note_on,120,0,3,,,,,,,,,2,,,60,63
699339,note_off,219,0,4,,,,,,,,,4,,,56,0
699360,note_off,120,0,3,,,,,,,,,2,,,60,0
699360,note_on,21,0,4,,,,,,,,,4,,,59,67
699480,note_on,120,0,3,,,,,,,,,2,,,60,63
699480,set_tempo,5640,1,0,,,,,,425531,,,,,,,
699579,note_off,219,0,4,,,,,,,,,4,,,59,0
699600,note_off,120,0,3,,,,,,,,,2,,,60,0
699600,note_off,720,0,1,,,,,,,,,0,,,84,0
699600,note_on,0,0,1,,,,,,,,,0,,,80,77
699600,note_off,720,0,2,,,,,,,,,1,,,80,0
699600,note_off,0,0,2,,,,,,,,,1,,,72,0
699600,note_on,0,0,2,,,,,,,,,1,,,77,79
699600,note_off,21,0,4,,,,,,,,,4,,,49,0
699600,note_on,0,0,4,,,,,,,,,4,,,53,67
699600,set_tempo,120,1,0,,,,,,419580,,,,,,,
699720,note_on,120,0,3,,,,,,,,,2,,,61,63
699840,note_on,240,0,4,,,,,,,,,4,,,56,68
699840,note_off,120,0,3,,,,,,,,,2,,,61,0
699960,note_on,120,0,3,,,,,,,,,2,,,61,63
700059,note_off,219,0,4,,,,,,,,,4,,,56,0
700080,note_off,120,0,3,,,,,,,,,2,,,61,0
700080,note_on,21,0,4,,,,,,,,,4,,,60,68
700200,note_on,120,0,3,,,,,,,,,2,,,61,63
700299,note_off,219,0,4,,,,,,,,,4,,,60,0
700320,note_off,120,0,3,,,,,,,,,2,,,61,0
700320,note_on,0,0,4,,,,,,,,,4,,,49,68
700320,note_off,21,0,4,,,,,,,,,4,,,53,0
700440,note_on,120,0,3,,,,,,,,,2,,,61,63
700560,note_on,240,0,4,,,,,,,,,4,,,56,68
700560,note_off,120,0,3,,,,,,,,,2,,,61,0
700680,note_on,120,0,3,,,,,,,,,2,,,61,63
700779,note_off,219,0,4,,,,,,,,,4,,,56,0
700800,note_off,120,0,3,,,,,,,,,2,,,61,0
700800,note_on,21,0,4,,,,,,,,,4,,,60,68
700920,note_on,120,0,3,,,,,,,,,2,,,61,63
701019,note_off,219,0,4,,,,,,,,,4,,,60,0
701040,note_off,1440,0,1,,,,,,,,,0,,,80,0
701040,note_on,0,0,1,,,,,,,,,0,,,79,73
701040,note_off,120,0,3,,,,,,,,,2,,,61,0
701040,note_on,0,0,2,,,,,,,,,1,,,75,75
701040,note_off,1440,0,2,,,,,,,,,1,,,77,0
701040,note_off,21,0,4,,,,,,,,,4,,,49,0
701040,note_on,0,0,4,,,,,,,,,4,,,53,68
701160,note_on,120,0,3,,,,,,,,,2,,,61,64
701280,note_on,240,0,4,,,,,,,,,4,,,56,69
701280,note_off,120,0,3,,,,,,,,,2,,,61,0
701400,note_on,120,0,3,,,,,,,,,2,,,61,64
701510,note_off,230,0,4,,,,,,,,,4,,,56,0
701520,note_off,480,0,2,,,,,,,,,1,,,75,0
701520,note_on,0,0,1,,,,,,,,,0,,,77,72
701520,note_on,0,0,2,,,,,,,,,1,,,73,73
701520,note_on,10,0,4,,,,,,,,,4,,,56,69
701520,note_off,480,0,1,,,,,,,,,0,,,79,0
701520,note_off,120,0,3,,,,,,,,,2,,,61,0
701640,note_on,120,0,3,,,,,,,,,2,,,61,64
701750,note_off,230,0,4,,,,,,,,,4,,,56,0
701760,note_on,0,0,1,,,,,,,,,0,,,75,71
701760,note_on,0,0,2,,,,,,,,,1,,,72,73
701760,note_off,240,0,2,,,,,,,,,1,,,73,0
701760,note_off,120,0,3,,,,,,,,,2,,,61,0
701760,note_off,10,0,4,,,,,,,,,4,,,53,0
701760,note_on,0,0,4,,,,,,,,,4,,,56,69
701760,note_off,240,0,1,,,,,,,,,0,,,77,0
701880,note_on,120,0,3,,,,,,,,,2,,,63,64
702000,note_on,240,0,4,,,,,,,,,4,,,60,69
702000,note_off,120,0,3,,,,,,,,,2,,,63,0
702120,note_on,120,0,3,,,,,,,,,2,,,63,64
702230,note_off,230,0,4,,,,,,,,,4,,,60,0
702240,note_on,10,0,4,,,,,,,,,4,,,62,69
702240,note_off,120,0,3,,,,,,,,,2,,,63,0
702360,note_on,120,0,3,,,,,,,,,2,,,63,64
702360,set_tempo,2760,1,0,,,,,,425531,,,,,,,
702470,note_off,230,0,4,,,,,,,,,4,,,62,0
702480,note_off,720,0,1,,,,,,,,,0,,,75,0
702480,note_on,0,0,1,,,,,,,,,0,,,84,77
702480,note_off,720,0,2,,,,,,,,,1,,,72,0
702480,note_off,120,0,3,,,,,,,,,2,,,63,0
702480,note_on,0,0,2,,,,,,,,,1,,,72,79
702480,note_off,10,0,4,,,,,,,,,4,,,56,0
702480,note_on,0,0,4,,,,,,,,,4,,,56,69
702480,set_tempo,120,1,0,,,,,,419580,,,,,,,
702480,note_on,0,0,2,,,,,,,,,1,,,77,79
702600,note_on,120,0,3,,,,,,,,,2,,,60,64
702720,note_off,120,0,3,,,,,,,,,2,,,60,0
702720,note_on,240,0,4,,,,,,,,,4,,,59,69
702840,note_on,120,0,3,,,,,,,,,2,,,60,65
702950,note_off,230,0,4,,,,,,,,,4,,,59,0
702960,note_off,10,0,4,,,,,,,,,4,,,56,0
702960,note_on,0,0,4,,,,,,,,,4,,,56,70
702960,note_off,120,0,3,,,,,,,,,2,,,60,0
703080,note_on,120,0,3,,,,,,,,,2,,,60,65
703200,note_on,0,0,2,,,,,,,,,1,,,77,77
703200,note_off,240,0,4,,,,,,,,,4,,,56,0
703200,note_off,120,0,3,,,,,,,,,2,,,60,0
703200,note_on,0,0,4,,,,,,,,,4,,,49,70
703200,note_off,720,0,2,,,,,,,,,1,,,77,0
703320,note_on,120,0,3,,,,,,,,,2,,,58,65
703440,note_off,120,0,3,,,,,,,,,2,,,58,0
703440,note_on,240,0,4,,,,,,,,,4,,,53,70
703560,note_on,120,0,3,,,,,,,,,2,,,58,65
703670,note_off,230,0,4,,,,,,,,,4,,,53,0
703680,note_off,120,0,3,,,,,,,,,2,,,58,0
703680,note_on,10,0,4,,,,,,,,,4,,,57,70
703800,note_on,120,0,3,,,,,,,,,2,,,58,65
703910,note_off,230,0,4,,,,,,,,,4,,,57,0
703920,note_off,720,0,2,,,,,,,,,1,,,77,0
703920,note_on,0,0,2,,,,,,,,,1,,,70,74
703920,note_off,120,0,3,,,,,,,,,2,,,58,0
703920,note_on,0,0,2,,,,,,,,,1,,,77,74
703920,note_on,1440,0,1,,,,,,,,,0,,,82,73
703920,note_off,10,0,4,,,,,,,,,4,,,49,0
703920,note_on,0,0,4,,,,,,,,,4,,,50,70
703950,note_off,30,0,1,,,,,,,,,0,,,84,0
703950,note_off,30,0,2,,,,,,,,,1,,,72,0
704040,note_on,120,0,3,,,,,,,,,2,,,58,65
704160,note_off,120,0,3,,,,,,,,,2,,,58,0
704160,note_on,240,0,4,,,,,,,,,4,,,53,70
704280,note_on,120,0,3,,,,,,,,,2,,,58,65
704390,note_off,230,0,4,,,,,,,,,4,,,53,0
704400,note_off,120,0,3,,,,,,,,,2,,,58,0
704400,note_off,450,0,1,,,,,,,,,0,,,82,0
704400,note_on,0,0,1,,,,,,,,,0,,,80,72
704400,note_off,0,0,2,,,,,,,,,1,,,70,0
704400,note_on,0,0,2,,,,,,,,,1,,,68,73
704400,note_off,450,0,2,,,,,,,,,1,,,77,0
704400,note_on,0,0,4,,,,,,,,,4,,,50,71
704400,note_off,10,0,4,,,,,,,,,4,,,50,0
704400,note_on,0,0,2,,,,,,,,,1,,,77,73
704520,note_on,120,0,3,,,,,,,,,2,,,58,66
704640,note_on,0,0,2,,,,,,,,,1,,,75,72
704640,note_on,0,0,1,,,,,,,,,0,,,79,71
704640,note_off,240,0,1,,,,,,,,,0,,,80,0
704640,note_on,0,0,4,,,,,,,,,4,,,51,71
704640,note_off,240,0,4,,,,,,,,,4,,,50,0
704640,note_off,240,0,2,,,,,,,,,1,,,77,0
704640,note_off,0,0,2,,,,,,,,,1,,,68,0
704640,note_on,0,0,2,,,,,,,,,1,,,67,72
704640,note_off,120,0,3,,,,,,,,,2,,,58,0
704760,note_on,120,0,3,,,,,,,,,2,,,58,66
704880,note_off,120,0,3,,,,,,,,,2,,,58,0
704880,note_on,240,0,4,,,,,,,,,4,,,55,71
705000,note_on,120,0,3,,,,,,,,,2,,,58,66
705110,note_off,230,0,4,,,,,,,,,4,,,55,0
705120,note_off,120,0,3,,,,,,,,,2,,,58,0
705120,note_on,10,0,4,,,,,,,,,4,,,57,71
705240,note_on,120,0,3,,,,,,,,,2,,,58,66
705350,note_off,230,0,4,,,,,,,,,4,,,57,0
705360,note_off,720,0,1,,,,,,,,,0,,,79,0
705360,note_on,0,0,1,,,,,,,,,0,,,89,79
705360,note_off,0,0,2,,,,,,,,,1,,,67,0
705360,note_on,0,0,2,,,,,,,,,1,,,77,81
705360,note_on,0,0,2,,,,,,,,,1,,,85,81
705360,note_off,720,0,2,,,,,,,,,1,,,75,0
705360,note_off,120,0,3,,,,,,,,,2,,,58,0
705360,note_off,10,0,4,,,,,,,,,4,,,51,0
705360,note_on,0,0,4,,,,,,,,,4,,,51,71
705360,set_tempo,2880,1,0,,,,,,425531,,,,,,,
705480,note_on,120,0,3,,,,,,,,,2,,,58,66
705480,set_tempo,120,1,0,,,,,,419580,,,,,,,
705600,note_on,240,0,4,,,,,,,,,4,,,55,71
705600,note_off,120,0,3,,,,,,,,,2,,,58,0
705720,note_on,120,0,3,,,,,,,,,2,,,58,66
705830,note_off,230,0,4,,,,,,,,,4,,,55,0
705840,note_off,120,0,3,,,,,,,,,2,,,58,0
705840,note_on,0,0,4,,,,,,,,,4,,,51,72
705840,note_off,10,0,4,,,,,,,,,4,,,51,0
705960,note_on,120,0,3,,,,,,,,,2,,,55,66
706080,note_on,0,0,4,,,,,,,,,4,,,51,72
706080,note_off,240,0,4,,,,,,,,,4,,,51,0
706080,note_off,120,0,3,,,,,,,,,2,,,55,0
706200,note_on,120,0,3,,,,,,,,,2,,,55,66
706310,note_off,230,0,4,,,,,,,,,4,,,51,0
706320,note_off,120,0,3,,,,,,,,,2,,,55,0
706320,note_on,10,0,4,,,,,,,,,4,,,53,72
706440,note_on,120,0,3,,,,,,,,,2,,,56,67
706550,note_off,230,0,4,,,,,,,,,4,,,53,0
706560,note_off,120,0,3,,,,,,,,,2,,,56,0
706560,note_on,10,0,4,,,,,,,,,4,,,55,72
706680,note_on,120,0,3,,,,,,,,,2,,,58,67
706790,note_off,230,0,4,,,,,,,,,4,,,55,0
706800,note_on,0,0,1,,,,,,,,,0,,,87,75
706800,note_off,120,0,3,,,,,,,,,2,,,58,0
706800,note_off,1440,0,2,,,,,,,,,1,,,85,0
706800,note_off,0,0,2,,,,,,,,,1,,,77,0
706800,note_on,0,0,2,,,,,,,,,1,,,75,76
706800,note_on,0,0,2,,,,,,,,,1,,,84,76
706800,note_off,1440,0,1,,,,,,,,,0,,,89,0
706800,note_on,10,0,4,,,,,,,,,4,,,55,72
706920,note_on,120,0,3,,,,,,,,,2,,,58,67
707030,note_off,230,0,4,,,,,,,,,4,,,55,0
707040,note_on,10,0,4,,,,,,,,,4,,,56,72
707040,note_off,120,0,3,,,,,,,,,2,,,58,0
707160,note_on,120,0,3,,,,,,,,,2,,,60,67
707270,note_off,230,0,4,,,,,,,,,4,,,56,0
707280,note_on,0,0,2,,,,,,,,,1,,,82,74
707280,note_on,10,0,4,,,,,,,,,4,,,58,72
707280,note_off,480,0,2,,,,,,,,,1,,,84,0
707280,note_on,0,0,2,,,,,,,,,1,,,73,74
707280,note_off,0,0,2,,,,,,,,,1,,,75,0
707280,note_on,0,0,1,,,,,,,,,0,,,85,74
707280,note_off,480,0,1,,,,,,,,,0,,,87,0
707280,note_off,120,0,3,,,,,,,,,2,,,60,0
707400,note_on,120,0,3,,,,,,,,,2,,,61,67
707510,note_off,230,0,4,,,,,,,,,4,,,58,0
707520,note_on,0,0,2,,,,,,,,,1,,,80,74
707520,note_on,0,0,2,,,,,,,,,1,,,72,74
707520,note_off,0,0,2,,,,,,,,,1,,,82,0
707520,note_off,120,0,3,,,,,,,,,2,,,61,0
707520,note_off,240,0,1,,,,,,,,,0,,,85,0
707520,note_off,240,0,2,,,,,,,,,1,,,73,0
707520,note_on,10,0,4,,,,,,,,,4,,,60,73
707520,note_on,0,0,1,,,,,,,,,0,,,84,73
707640,note_on,120,0,3,,,,,,,,,2,,,63,67
707750,note_off,230,0,4,,,,,,,,,4,,,60,0
707760,note_off,120,0,3,,,,,,,,,2,,,63,0
707760,note_on,10,0,4,,,,,,,,,4,,,61,73
707880,note_on,120,0,3,,,,,,,,,2,,,65,67
707979,note_off,219,0,4,,,,,,,,,4,,,61,0
708000,note_off,120,0,3,,,,,,,,,2,,,65,0
708000,note_on,21,0,4,,,,,,,,,4,,,60,73
708120,set_tempo,2640,1,0,,,,,,425531,,,,,,,
708120,note_on,120,0,3,,,,,,,,,2,,,63,68
708219,note_off,219,0,4,,,,,,,,,4,,,60,0
708240,note_on,0,0,2,,,,,,,,,1,,,80,83
708240,note_on,21,0,4,,,,,,,,,4,,,59,73
708240,set_tempo,120,1,0,,,,,,419580,,,,,,,
708240,note_on,0,0,2,,,,,,,,,1,,,86,83
708240,note_off,0,0,2,,,,,,,,,1,,,72,0
708240,note_on,0,0,1,,,,,,,,,0,,,92,81
708240,note_off,720,0,1,,,,,,,,,0,,,84,0
708240,note_off,120,0,3,,,,,,,,,2,,,63,0
708240,note_off,720,0,2,,,,,,,,,1,,,80,0
708360,note_on,120,0,3,,,,,,,,,2,,,65,68
708480,note_on,240,0,4,,,,,,,,,4,,,62,73
708480,note_off,120,0,3,,,,,,,,,2,,,65,0
708600,note_on,120,0,3,,,,,,,,,2,,,65,68
708699,note_off,219,0,4,,,,,,,,,4,,,62,0
708720,note_off,120,0,3,,,,,,,,,2,,,65,0
708720,note_on,21,0,4,,,,,,,,,4,,,64,73
708840,note_on,120,0,3,,,,,,,,,2,,,65,68
708939,note_off,219,0,4,,,,,,,,,4,,,64,0
708945,note_off,6,0,4,,,,,,,,,4,,,59,0
708960,note_on,15,0,4,,,,,,,,,4,,,59,74
708960,note_off,120,0,3,,,,,,,,,2,,,65,0
709080,note_on,120,0,3,,,,,,,,,2,,,65,68
709200,note_off,120,0,3,,,,,,,,,2,,,65,0
709200,note_on,240,0,4,,,,,,,,,4,,,62,74
709320,note_on,120,0,3,,,,,,,,,2,,,65,68
709419,note_off,219,0,4,,,,,,,,,4,,,62,0
709440,note_off,120,0,3,,,,,,,,,2,,,65,0
709440,note_on,21,0,4,,,,,,,,,4,,,64,74
709560,note_on,120,0,3,,,,,,,,,2,,,65,68
709650,note_off,210,0,4,,,,,,,,,4,,,59,0
709659,note_off,9,0,4,,,,,,,,,4,,,64,0
709680,note_on,21,0,4,,,,,,,,,4,,,59,74
709680,note_on,0,0,1,,,,,,,,,0,,,91,76
709680,note_off,120,0,3,,,,,,,,,2,,,65,0
709680,note_off,1440,0,1,,,,,,,,,0,,,92,0
709680,note_off,1440,0,2,,,,,,,,,1,,,86,0
709680,note_on,0,0,2,,,,,,,,,1,,,79,78
709680,note_off,0,0,2,,,,,,,,,1,,,80,0
709680,note_on,0,0,2,,,,,,,,,1,,,87,78
709800,note_on,120,0,3,,,,,,,,,2,,,68,69
709899,note_off,219,0,4,,,,,,,,,4,,,59,0
709920,note_off,120,0,3,,,,,,,,,2,,,68,0
709920,note_on,21,0,4,,,,,,,,,4,,,59,74
710040,note_on,120,0,3,,,,,,,,,2,,,68,69
710139,note_off,219,0,4,,,,,,,,,4,,,59,0
710160,note_off,480,0,2,,,,,,,,,1,,,87,0
710160,note_off,0,0,2,,,,,,,,,1,,,79,0
710160,note_on,0,0,2,,,,,,,,,1,,,86,77
710160,note_on,0,0,2,,,,,,,,,1,,,80,77
710160,note_off,480,0,1,,,,,,,,,0,,,91,0
710160,note_off,120,0,3,,,,,,,,,2,,,68,0
710160,note_on,0,0,1,,,,,,,,,0,,,89,75
710160,note_on,21,0,4,,,,,,,,,4,,,59,74
710280,note_on,120,0,3,,,,,,,,,2,,,68,69
710379,note_off,219,0,4,,,,,,,,,4,,,59,0
710400,note_off,240,0,1,,,,,,,,,0,,,89,0
710400,note_on,0,0,1,,,,,,,,,0,,,87,74
710400,note_off,120,0,3,,,,,,,,,2,,,68,0
710400,note_off,240,0,2,,,,,,,,,1,,,80,0
710400,note_off,0,0,2,,,,,,,,,1,,,86,0
710400,note_on,0,0,2,,,,,,,,,1,,,80,76
710400,note_on,0,0,2,,,,,,,,,1,,,84,76
710400,note_on,21,0,4,,,,,,,,,4,,,60,75
710520,note_on,120,0,3,,,,,,,,,2,,,68,69
710640,note_off,120,0,3,,,,,,,,,2,,,68,0
710640,note_on,240,0,4,,,,,,,,,4,,,63,75
710760,note_on,120,0,3,,,,,,,,,2,,,68,69
710859,note_off,219,0,4,,,,,,,,,4,,,63,0
710880,note_off,120,0,3,,,,,,,,,2,,,68,0
710880,note_on,21,0,4,,,,,,,,,4,,,67,75
711000,note_on,120,0,3,,,,,,,,,2,,,68,69
711099,note_off,219,0,4,,,,,,,,,4,,,67,0
711105,note_off,6,0,4,,,,,,,,,4,,,60,0
711120,note_off,720,0,1,,,,,,,,,0,,,87,0
711120,note_on,0,0,1,,,,,,,,,0,,,89,78
711120,note_on,0,0,2,,,,,,,,,1,,,82,80
711120,note_off,120,0,3,,,,,,,,,2,,,68,0
711120,note_on,0,0,2,,,,,,,,,1,,,80,80
711120,note_off,0,0,2,,,,,,,,,1,,,80,0
711120,note_off,720,0,2,,,,,,,,,1,,,84,0
711120,note_on,15,0,4,,,,,,,,,4,,,61,75
711240,note_on,120,0,3,,,,,,,,,2,,,68,69
711360,note_on,240,0,4,,,,,,,,,4,,,65,75
711360,note_off,120,0,3,,,,,,,,,2,,,68,0
711480,note_on,120,0,3,,,,,,,,,2,,,68,69
711579,note_off,219,0,4,,,,,,,,,4,,,65,0
711600,note_off,480,0,1,,,,,,,,,0,,,89,0
711600,note_on,21,0,4,,,,,,,,,4,,,62,75
711600,note_on,0,0,1,,,,,,,,,0,,,82,79
711600,note_off,120,0,3,,,,,,,,,2,,,68,0
711600,note_off,480,0,2,,,,,,,,,1,,,82,0
711600,note_on,0,0,2,,,,,,,,,1,,,73,80
711600,note_on,0,0,2,,,,,,,,,1,,,80,80
711600,note_off,0,0,2,,,,,,,,,1,,,80,0
711720,note_on,120,0,4,,,,,,,,,4,,,65,75
711825,note_off,0,0,4,,,,,,,,,4,,,61,0
711825,note_off,105,0,4,,,,,,,,,4,,,62,0
711840,note_off,240,0,1,,,,,,,,,0,,,82,0
711840,note_on,0,0,1,,,,,,,,,0,,,84,79
711840,note_on,0,0,2,,,,,,,,,1,,,75,80
711840,note_off,240,0,2,,,,,,,,,1,,,73,0
711840,note_off,0,0,2,,,,,,,,,1,,,80,0
711840,note_on,0,0,2,,,,,,,,,1,,,80,80
711960,note_on,0,0,4,,,,,,,,,4,,,63,74
711960,note_off,135,0,4,,,,,,,,,4,,,65,0
712080,note_on,0,0,4,,,,,,,,,4,,,61,74
712080,note_off,120,0,4,,,,,,,,,4,,,63,0
712200,note_off,120,0,4,,,,,,,,,4,,,61,0
712200,note_on,0,0,4,,,,,,,,,4,,,60,74
712320,note_off,120,0,4,,,,,,,,,4,,,60,0
712320,note_on,0,0,4,,,,,,,,,4,,,58,74
712440,note_on,0,0,4,,,,,,,,,4,,,56,74
712440,note_off,120,0,4,,,,,,,,,4,,,58,0
712560,note_off,0,0,2,,,,,,,,,1,,,80,0
712560,note_off,720,0,1,,,,,,,,,0,,,84,0
712560,note_on,0,0,1,,,,,,,,,0,,,82,79
712560,note_off,720,0,2,,,,,,,,,1,,,75,0
712560,note_on,0,0,2,,,,,,,,,1,,,75,80
712680,note_off,240,0,4,,,,,,,,,4,,,56,0
712680,note_on,0,0,4,,,,,,,,,4,,,55,74
712800,note_on,0,0,4,,,,,,,,,4,,,53,74
712800,note_off,120,0,4,,,,,,,,,4,,,55,0
712800,note_on,0,0,2,,,,,,,,,1,,,79,81
712800,note_off,240,0,2,,,,,,,,,1,,,75,0
712920,note_off,120,0,4,,,,,,,,,4,,,53,0
712920,note_on,0,0,4,,,,,,,,,4,,,51,74
713040,note_off,480,0,1,,,,,,,,,0,,,82,0
713040,note_on,0,0,1,,,,,,,,,0,,,87,79
713040,note_on,0,0,2,,,,,,,,,1,,,82,81
713040,note_on,0,0,2,,,,,,,,,1,,,79,81
713040,note_on,0,0,2,,,,,,,,,1,,,75,81
713040,note_off,120,0,4,,,,,,,,,4,,,51,0
713040,note_on,0,0,4,,,,,,,,,4,,,50,74
713040,note_off,240,0,2,,,,,,,,,1,,,79,0
713160,note_on,0,0,4,,,,,,,,,4,,,51,75
713160,note_off,120,0,4,,,,,,,,,4,,,50,0
713280,note_on,0,0,2,,,,,,,,,1,,,80,81
713280,note_off,0,0,2,,,,,,,,,1,,,75,0
713280,note_off,0,0,2,,,,,,,,,1,,,79,0
713280,note_off,240,0,2,,,,,,,,,1,,,82,0
713280,note_on,0,0,2,,,,,,,,,1,,,74,81
713280,note_off,120,0,4,,,,,,,,,4,,,51,0
713280,note_on,0,0,4,,,,,,,,,4,,,41,75
713280,note_off,240,0,1,,,,,,,,,0,,,87,0
713280,note_on,0,0,1,,,,,,,,,0,,,86,80
713400,note_on,1800,0,3,,,,,,,,,2,,,53,73
713520,note_on,240,0,4,,,,,,,,,4,,,46,75
713520,note_off,120,0,3,,,,,,,,,2,,,53,0
713640,note_on,120,0,3,,,,,,,,,2,,,53,74
713739,note_off,219,0,4,,,,,,,,,4,,,46,0
713760,note_off,120,0,3,,,,,,,,,2,,,53,0
713760,note_on,21,0,4,,,,,,,,,4,,,46,75
713880,note_on,120,0,3,,,,,,,,,2,,,53,74
713979,note_off,219,0,4,,,,,,,,,4,,,46,0
714000,note_on,0,0,2,,,,,,,,,1,,,73,81
714000,note_off,120,0,3,,,,,,,,,2,,,53,0
714000,note_on,0,0,1,,,,,,,,,0,,,85,80
714000,note_off,720,0,1,,,,,,,,,0,,,86,0
714000,note_on,0,0,4,,,,,,,,,4,,,43,75
714000,note_off,21,0,4,,,,,,,,,4,,,41,0
714000,note_on,0,0,2,,,,,,,,,1,,,82,81
714000,note_off,0,0,2,,,,,,,,,1,,,80,0
714000,note_off,720,0,2,,,,,,,,,1,,,74,0
714120,note_on,120,0,3,,,,,,,,,2,,,55,74
714240,note_off,120,0,3,,,,,,,,,2,,,55,0
714240,note_on,240,0,4,,,,,,,,,4,,,51,75
714360,note_on,120,0,3,,,,,,,,,2,,,55,74
714459,note_off,219,0,4,,,,,,,,,4,,,51,0
714480,note_on,21,0,4,,,,,,,,,4,,,51,75
714480,note_off,120,0,3,,,,,,,,,2,,,55,0
714600,note_on,120,0,3,,,,,,,,,2,,,55,74
714699,note_off,219,0,4,,,,,,,,,4,,,51,0
714705,note_off,6,0,4,,,,,,,,,4,,,43,0
714720,note_off,720,0,2,,,,,,,,,1,,,82,0
714720,note_on,0,0,2,,,,,,,,,1,,,72,82
714720,note_on,0,0,2,,,,,,,,,1,,,75,82
714720,note_off,0,0,2,,,,,,,,,1,,,73,0
714720,note_on,0,0,1,,,,,,,,,0,,,84,80
714720,note_off,120,0,3,,,,,,,,,2,,,55,0
714720,note_off,720,0,1,,,,,,,,,0,,,85,0
714720,note_on,15,0,4,,,,,,,,,4,,,44,77
714840,note_on,0,0,4,,,,,,,,,4,,,46,76
714840,note_off,120,0,4,,,,,,,,,4,,,44,0
714960,note_on,0,0,4,,,,,,,,,4,,,44,75
714960,note_off,120,0,4,,,,,,,,,4,,,46,0
715080,note_off,120,0,4,,,,,,,,,4,,,44,0
715080,note_on,0,0,4,,,,,,,,,4,,,42,74
715200,note_on,0,0,2,,,,,,,,,1,,,80,82
715200,note_on,0,0,4,,,,,,,,,4,,,41,73
715200,note_off,480,0,2,,,,,,,,,1,,,75,0
715200,note_off,120,0,4,,,,,,,,,4,,,42,0
715320,note_on,0,0,4,,,,,,,,,4,,,39,72
715320,note_off,120,0,4,,,,,,,,,4,,,41,0
715440,note_on,0,0,2,,,,,,,,,1,,,77,82
715440,note_on,0,0,2,,,,,,,,,1,,,80,82
715440,note_off,240,0,2,,,,,,,,,1,,,80,0
715440,note_off,120,0,4,,,,,,,,,4,,,39,0
715440,note_off,720,0,1,,,,,,,,,0,,,84,0
715440,note_on,0,0,1,,,,,,,,,0,,,85,81
715440,note_off,0,0,2,,,,,,,,,1,,,72,0
715440,note_on,0,0,4,,,,,,,,,4,,,37,71
715560,note_on,840,0,3,,,,,,,,,2,,,44,75
715680,note_off,120,0,3,,,,,,,,,2,,,44,0
715680,note_on,240,0,4,,,,,,,,,4,,,41,70
715800,note_on,120,0,3,,,,,,,,,2,,,44,73
715888,note_off,208,0,4,,,,,,,,,4,,,41,0
715920,note_off,480,0,1,,,,,,,,,0,,,85,0
715920,note_off,0,0,2,,,,,,,,,1,,,77,0
715920,note_on,0,0,2,,,,,,,,,1,,,77,82
715920,note_off,120,0,3,,,,,,,,,2,,,44,0
715920,note_on,32,0,4,,,,,,,,,4,,,38,70
715920,note_on,0,0,2,,,,,,,,,1,,,80,82
715920,note_on,0,0,1,,,,,,,,,0,,,82,81
715920,note_off,480,0,2,,,,,,,,,1,,,80,0
716040,note_on,120,0,3,,,,,,,,,2,,,44,70
716128,note_off,208,0,4,,,,,,,,,4,,,38,0
716160,note_off,240,0,2,,,,,,,,,1,,,80,0
716160,note_off,120,0,3,,,,,,,,,2,,,44,0
716160,note_off,0,0,2,,,,,,,,,1,,,77,0
716160,note_off,240,0,1,,,,,,,,,0,,,82,0
716160,note_on,0,0,1,,,,,,,,,0,,,84,81
716160,note_on,0,0,2,,,,,,,,,1,,,80,82
716160,note_on,0,0,2,,,,,,,,,1,,,75,82
716160,note_off,32,0,4,,,,,,,,,4,,,37,0
716160,note_on,0,0,4,,,,,,,,,4,,,39,70
716280,note_on,120,0,3,,,,,,,,,2,,,51,70
716400,note_off,120,0,3,,,,,,,,,2,,,51,0
716400,note_off,240,0,2,,,,,,,,,1,,,80,0
716400,note_off,240,0,1,,,,,,,,,0,,,84,0
716400,note_on,0,0,1,,,,,,,,,0,,,82,81
716400,note_off,0,0,2,,,,,,,,,1,,,75,0
716400,note_on,0,0,2,,,,,,,,,1,,,77,82
716400,note_on,240,0,4,,,,,,,,,4,,,37,70
716400,note_on,0,0,2,,,,,,,,,1,,,80,82
716520,note_on,120,0,3,,,,,,,,,2,,,49,70
716608,note_off,208,0,4,,,,,,,,,4,,,37,0
716610,note_off,2,0,4,,,,,,,,,4,,,39,0
716640,note_off,120,0,3,,,,,,,,,2,,,49,0
716640,note_on,30,0,4,,,,,,,,,4,,,39,70
716640,note_off,240,0,2,,,,,,,,,1,,,80,0
716640,note_on,0,0,2,,,,,,,,,1,,,79,83
716640,note_on,0,0,2,,,,,,,,,1,,,73,83
716640,note_off,0,0,2,,,,,,,,,1,,,77,0
716760,note_on,120,0,3,,,,,,,,,2,,,51,70
716760,set_tempo,8520,1,0,,,,,,425531,,,,,,,
716848,note_off,208,0,4,,,,,,,,,4,,,39,0
716880,note_off,120,0,3,,,,,,,,,2,,,51,0
716880,note_off,240,0,2,,,,,,,,,1,,,79,0
716880,note_off,0,0,2,,,,,,,,,1,,,73,0
716880,note_on,0,0,2,,,,,,,,,1,,,75,83
716880,note_on,0,0,1,,,,,,,,,0,,,80,84
716880,note_off,480,0,1,,,,,,,,,0,,,82,0
716880,note_on,32,0,4,,,,,,,,,4,,,32,70
716880,set_tempo,120,1,0,,,,,,413793,,,,,,,
716880,note_on,0,0,2,,,,,,,,,1,,,72,83
717000,note_on,120,0,3,,,,,,,,,2,,,44,70
717120,note_on,240,0,4,,,,,,,,,4,,,36,70
717120,note_off,120,0,3,,,,,,,,,2,,,44,0
717240,note_on,120,0,3,,,,,,,,,2,,,44,70
717328,note_off,208,0,4,,,,,,,,,4,,,36,0
717360,note_on,32,0,4,,,,,,,,,4,,,39,70
717360,note_off,120,0,3,,,,,,,,,2,,,44,0
717480,set_tempo,600,1,0,,,,,,419580,,,,,,,
717480,note_on,120,0,3,,,,,,,,,2,,,44,70
717568,note_off,208,0,4,,,,,,,,,4,,,39,0
717600,note_off,0,0,2,,,,,,,,,1,,,72,0
717600,note_on,0,0,2,,,,,,,,,1,,,77,86
717600,note_on,0,0,2,,,,,,,,,1,,,80,86
717600,set_tempo,120,1,0,,,,,,413793,,,,,,,
717600,note_off,32,0,4,,,,,,,,,4,,,32,0
717600,note_off,720,0,1,,,,,,,,,0,,,80,0
717600,note_on,0,0,1,,,,,,,,,0,,,85,90
717600,note_on,0,0,4,,,,,,,,,4,,,32,70
717600,note_off,120,0,3,,,,,,,,,2,,,44,0
717600,note_off,720,0,2,,,,,,,,,1,,,75,0
717720,note_on,120,0,3,,,,,,,,,2,,,44,70
717840,note_on,240,0,4,,,,,,,,,4,,,37,70
717840,note_off,120,0,3,,,,,,,,,2,,,44,0
717960,note_on,120,0,3,,,,,,,,,2,,,44,70
718048,note_off,208,0,4,,,,,,,,,4,,,37,0
718080,note_off,120,0,3,,,,,,,,,2,,,44,0
718080,note_on,32,0,4,,,,,,,,,4,,,41,71
718200,note_on,120,0,3,,,,,,,,,2,,,44,70
718288,note_off,208,0,4,,,,,,,,,4,,,41,0
718320,note_off,720,0,1,,,,,,,,,0,,,85,0
718320,note_off,32,0,4,,,,,,,,,4,,,32,0
718320,note_on,0,0,4,,,,,,,,,4,,,32,71
718320,note_on,0,0,1,,,,,,,,,0,,,82,86
718320,note_off,120,0,3,,,,,,,,,2,,,44,0
718320,note_on,0,0,2,,,,,,,,,1,,,79,83
718320,note_on,0,0,2,,,,,,,,,1,,,73,83
718320,note_off,0,0,2,,,,,,,,,1,,,77,0
718320,note_off,720,0,2,,,,,,,,,1,,,80,0
718440,note_on,120,0,3,,,,,,,,,2,,,44,70
718560,note_on,240,0,4,,,,,,,,,4,,,37,71
718560,note_off,120,0,3,,,,,,,,,2,,,44,0
718680,note_on,120,0,3,,,,,,,,,2,,,44,70
718768,note_off,208,0,4,,,,,,,,,4,,,37,0
718800,note_off,120,0,3,,,,,,,,,2,,,44,0
718800,note_on,32,0,4,,,,,,,,,4,,,40,71
718920,note_on,120,0,3,,,,,,,,,2,,,44,70
718920,set_tempo,1320,1,0,,,,,,419580,,,,,,,
719008,note_off,208,0,4,,,,,,,,,4,,,40,0
719040,note_off,32,0,4,,,,,,,,,4,,,32,0
719040,note_off,720,0,2,,,,,,,,,1,,,79,0
719040,note_off,0,0,2,,,,,,,,,1,,,73,0
719040,note_on,0,0,2,,,,,,,,,1,,,75,90
719040,note_on,0,0,2,,,,,,,,,1,,,80,90
719040,note_on,0,0,2,,,,,,,,,1,,,84,90
719040,note_on,0,0,1,,,,,,,,,0,,,87,93
719040,set_tempo,120,1,0,,,,,,413793,,,,,,,
719040,note_off,120,0,3,,,,,,,,,2,,,44,0
719040,note_off,720,0,1,,,,,,,,,0,,,82,0
719040,note_on,0,0,4,,,,,,,,,4,,,32,71
719160,note_on,120,0,3,,,,,,,,,2,,,44,70
719280,note_off,120,0,3,,,,,,,,,2,,,44,0
719280,note_on,240,0,4,,,,,,,,,4,,,36,71
719400,note_on,120,0,3,,,,,,,,,2,,,44,70
719488,note_off,208,0,4,,,,,,,,,4,,,36,0
719520,note_off,120,0,3,,,,,,,,,2,,,44,0
719520,note_on,32,0,4,,,,,,,,,4,,,39,71
719640,note_on,120,0,3,,,,,,,,,2,,,44,70
719728,note_off,208,0,4,,,,,,,,,4,,,39,0
719760,note_on,0,0,4,,,,,,,,,4,,,32,71
719760,note_off,32,0,4,,,,,,,,,4,,,32,0
719760,note_off,720,0,2,,,,,,,,,1,,,84,0
719760,note_off,0,0,2,,,,,,,,,1,,,80,0
719760,note_off,0,0,2,,,,,,,,,1,,,75,0
719760,note_off,120,0,3,,,,,,,,,2,,,44,0
719760,note_on,0,0,2,,,,,,,,,1,,,78,84
719760,note_on,0,0,1,,,,,,,,,0,,,84,89
719760,note_off,720,0,1,,,,,,,,,0,,,87,0
719760,note_on,0,0,2,,,,,,,,,1,,,72,84
719880,note_on,120,0,3,,,,,,,,,2,,,44,70
720000,note_off,120,0,3,,,,,,,,,2,,,44,0
720000,note_on,240,0,4,,,,,,,,,4,,,39,71
720120,note_on,120,0,3,,,,,,,,,2,,,44,70
720208,note_off,208,0,4,,,,,,,,,4,,,39,0
720240,note_off,120,0,3,,,,,,,,,2,,,44,0
720240,note_on,32,0,4,,,,,,,,,4,,,42,72
720360,set_tempo,1320,1,0,,,,,,419580,,,,,,,
720360,note_on,120,0,3,,,,,,,,,2,,,44,70
720459,note_off,219,0,4,,,,,,,,,4,,,42,0
720480,note_off,720,0,1,,,,,,,,,0,,,84,0
720480,note_on,0,0,1,,,,,,,,,0,,,89,96
720480,set_tempo,120,1,0,,,,,,413793,,,,,,,
720480,note_off,120,0,3,,,,,,,,,2,,,44,0
720480,note_off,0,0,2,,,,,,,,,1,,,78,0
720480,note_on,0,0,4,,,,,,,,,4,,,32,72
720480,note_on,0,0,2,,,,,,,,,1,,,85,90
720480,note_on,0,0,2,,,,,,,,,1,,,77,90
720480,note_off,720,0,2,,,,,,,,,1,,,72,0
720480,note_off,21,0,4,,,,,,,,,4,,,32,0
720600,note_on,120,0,3,,,,,,,,,2,,,44,70
720720,note_on,240,0,4,,,,,,,,,4,,,37,72
720720,note_off,120,0,3,,,,,,,,,2,,,44,0
720840,note_on,120,0,3,,,,,,,,,2,,,44,70
720939,note_off,219,0,4,,,,,,,,,4,,,37,0
720960,note_on,21,0,4,,,,,,,,,4,,,41,72
720960,note_off,120,0,3,,,,,,,,,2,,,44,0
721080,note_on,120,0,3,,,,,,,,,2,,,44,70
721179,note_off,219,0,4,,,,,,,,,4,,,41,0
721200,note_off,0,0,2,,,,,,,,,1,,,77,0
721200,note_on,0,0,4,,,,,,,,,4,,,32,72
721200,note_off,21,0,4,,,,,,,,,4,,,32,0
721200,note_on,0,0,2,,,,,,,,,1,,,77,85
721200,note_off,720,0,2,,,,,,,,,1,,,85,0
721200,note_on,0,0,2,,,,,,,,,1,,,83,85
721200,note_off,720,0,1,,,,,,,,,0,,,89,0
721200,note_on,0,0,1,,,,,,,,,0,,,86,91
721200,note_off,120,0,3,,,,,,,,,2,,,44,0
721320,note_on,120,0,3,,,,,,,,,2,,,44,70
721440,note_on,240,0,4,,,,,,,,,4,,,38,72
721440,note_off,120,0,3,,,,,,,,,2,,,44,0
721560,note_on,120,0,3,,,,,,,,,2,,,44,70
721659,note_off,219,0,4,,,,,,,,,4,,,38,0
721680,note_on,21,0,4,,,,,,,,,4,,,41,72
721680,note_off,120,0,3,,,,,,,,,2,,,44,0
721800,note_on,120,0,3,,,,,,,,,2,,,44,70
721800,set_tempo,1320,1,0,,,,,,419580,,,,,,,
721899,note_off,219,0,4,,,,,,,,,4,,,41,0
721920,note_off,720,0,2,,,,,,,,,1,,,83,0
721920,note_on,0,0,2,,,,,,,,,1,,,84,90
721920,note_on,0,0,2,,,,,,,,,1,,,78,90
721920,note_off,0,0,2,,,,,,,,,1,,,77,0
721920,note_off,120,0,3,,,,,,,,,2,,,44,0
721920,note_on,0,0,1,,,,,,,,,0,,,90,99
721920,note_off,720,0,1,,,,,,,,,0,,,86,0
721920,note_off,21,0,4,,,,,,,,,4,,,32,0
721920,note_on,0,0,4,,,,,,,,,4,,,32,72
721920,set_tempo,120,1,0,,,,,,413793,,,,,,,
722040,note_on,120,0,3,,,,,,,,,2,,,44,70
722160,note_on,240,0,4,,,,,,,,,4,,,39,72
722160,note_off,120,0,3,,,,,,,,,2,,,44,0
722280,note_on,120,0,3,,,,,,,,,2,,,44,70
722379,note_off,219,0,4,,,,,,,,,4,,,39,0
722400,note_off,120,0,3,,,,,,,,,2,,,44,0
722400,note_on,21,0,4,,,,,,,,,4,,,42,72
722520,note_on,120,0,3,,,,,,,,,2,,,44,70
722619,note_off,219,0,4,,,,,,,,,4,,,42,0
722640,note_off,120,0,3,,,,,,,,,2,,,44,0
722640,note_on,0,0,1,,,,,,,,,0,,,89,89
722640,note_off,720,0,1,,,,,,,,,0,,,90,0
722640,note_off,21,0,4,,,,,,,,,4,,,32,0
722640,note_on,0,0,4,,,,,,,,,4,,,32,73
722760,note_on,120,0,3,,,,,,,,,2,,,44,70
722880,note_off,120,0,3,,,,,,,,,2,,,44,0
722880,note_on,240,0,4,,,,,,,,,4,,,39,73
723000,note_on,120,0,3,,,,,,,,,2,,,44,70
723099,note_off,219,0,4,,,,,,,,,4,,,39,0
723120,note_off,120,0,3,,,,,,,,,2,,,44,0
723120,note_on,21,0,4,,,,,,,,,4,,,42,73
723120,note_off,480,0,1,,,,,,,,,0,,,89,0
723120,note_on,0,0,1,,,,,,,,,0,,,87,86
723240,set_tempo,1320,1,0,,,,,,419580,,,,,,,
723240,note_on,120,0,3,,,,,,,,,2,,,44,70
723339,note_off,219,0,4,,,,,,,,,4,,,42,0
723360,note_off,120,0,3,,,,,,,,,2,,,44,0
723360,note_on,0,0,2,,,,,,,,,1,,,85,92
723360,note_off,0,0,2,,,,,,,,,1,,,78,0
723360,note_off,1440,0,2,,,,,,,,,1,,,84,0
723360,note_on,0,0,1,,,,,,,,,0,,,89,91
723360,note_off,240,0,1,,,,,,,,,0,,,87,0
723360,note_off,21,0,4,,,,,,,,,4,,,32,0
723360,note_on,0,0,2,,,,,,,,,1,,,77,92
723360,note_on,0,0,4,,,,,,,,,4,,,32,73
723360,set_tempo,120,1,0,,,,,,413793,,,,,,,
723480,note_on,120,0,3,,,,,,,,,2,,,44,70
723600,note_off,120,0,3,,,,,,,,,2,,,44,0
723600,note_on,240,0,4,,,,,,,,,4,,,37,73
723720,note_on,120,0,3,,,,,,,,,2,,,44,70
723819,note_off,219,0,4,,,,,,,,,4,,,37,0
723840,note_on,21,0,4,,,,,,,,,4,,,41,73
723840,note_off,120,0,3,,,,,,,,,2,,,44,0
723960,note_on,120,0,3,,,,,,,,,2,,,44,70
724059,note_off,219,0,4,,,,,,,,,4,,,41,0
724080,note_off,0,0,2,,,,,,,,,1,,,77,0
724080,note_on,0,0,2,,,,,,,,,1,,,77,86
724080,note_on,0,0,2,,,,,,,,,1,,,86,89
724080,note_off,21,0,4,,,,,,,,,4,,,32,0
724080,note_off,120,0,3,,,,,,,,,2,,,44,0
724080,note_off,720,0,2,,,,,,,,,1,,,85,0
724080,note_on,0,0,4,,,,,,,,,4,,,32,73
724200,note_on,120,0,3,,,,,,,,,2,,,44,70
724320,note_on,240,0,4,,,,,,,,,4,,,38,73
724320,note_off,120,0,3,,,,,,,,,2,,,44,0
724440,note_on,120,0,3,,,,,,,,,2,,,44,70
724539,note_off,219,0,4,,,,,,,,,4,,,38,0
724560,note_on,21,0,4,,,,,,,,,4,,,41,73
724560,note_off,120,0,3,,,,,,,,,2,,,44,0
724680,note_on,120,0,3,,,,,,,,,2,,,44,70
724680,set_tempo,1320,1,0,,,,,,419580,,,,,,,
724779,note_off,219,0,4,,,,,,,,,4,,,41,0
724800,note_off,21,0,4,,,,,,,,,4,,,32,0
724800,note_on,0,0,4,,,,,,,,,4,,,32,73
724800,note_on,0,0,2,,,,,,,,,1,,,83,90
724800,note_on,0,0,1,,,,,,,,,0,,,92,96
724800,note_off,1440,0,1,,,,,,,,,0,,,89,0
724800,set_tempo,120,1,0,,,,,,413793,,,,,,,
724800,note_on,0,0,2,,,,,,,,,1,,,86,90
724800,note_off,0,0,2,,,,,,,,,1,,,77,0
724800,note_off,720,0,2,,,,,,,,,1,,,86,0
724800,note_off,120,0,3,,,,,,,,,2,,,44,0
724920,note_on,120,0,3,,,,,,,,,2,,,44,70
725040,note_on,240,0,4,,,,,,,,,4,,,38,74
725040,note_off,120,0,3,,,,,,,,,2,,,44,0
725160,note_on,120,0,3,,,,,,,,,2,,,44,70
725259,note_off,219,0,4,,,,,,,,,4,,,38,0
725280,note_on,21,0,4,,,,,,,,,4,,,41,74
725280,note_off,120,0,3,,,,,,,,,2,,,44,0
725400,note_on,120,0,3,,,,,,,,,2,,,44,70
725499,note_off,219,0,4,,,,,,,,,4,,,41,0
725520,note_off,21,0,4,,,,,,,,,4,,,32,0
725520,note_on,0,0,4,,,,,,,,,4,,,32,74
725520,note_on,0,0,1,,,,,,,,,0,,,90,90
725520,note_off,720,0,1,,,,,,,,,0,,,92,0
725520,note_off,120,0,3,,,,,,,,,2,,,44,0
725640,note_on,120,0,3,,,,,,,,,2,,,44,70
725760,note_on,240,0,4,,,,,,,,,4,,,38,74
725760,note_off,120,0,3,,,,,,,,,2,,,44,0
725880,note_on,120,0,3,,,,,,,,,2,,,44,70
725979,note_off,219,0,4,,,,,,,,,4,,,38,0
726000,note_on,21,0,4,,,,,,,,,4,,,41,74
726000,note_on,0,0,1,,,,,,,,,0,,,89,90
726000,note_off,480,0,1,,,,,,,,,0,,,90,0
726000,note_off,120,0,3,,,,,,,,,2,,,44,0
726120,note_on,120,0,3,,,,,,,,,2,,,44,70
726120,set_tempo,1320,1,0,,,,,,419580,,,,,,,
726219,note_off,219,0,4,,,,,,,,,4,,,41,0
726240,note_on,0,0,2,,,,,,,,,1,,,85,95
726240,note_off,120,0,3,,,,,,,,,2,,,44,0
726240,note_on,0,0,4,,,,,,,,,4,,,32,74
726240,note_off,0,0,2,,,,,,,,,1,,,83,0
726240,note_off,21,0,4,,,,,,,,,4,,,32,0
726240,note_off,1440,0,2,,,,,,,,,1,,,86,0
726240,note_on,0,0,2,,,,,,,,,1,,,88,95
726240,note_on,0,0,2,,,,,,,,,1,,,82,95
726240,set_tempo,120,1,0,,,,,,413793,,,,,,,
726240,note_off,240,0,1,,,,,,,,,0,,,89,0
726240,note_on,0,0,1,,,,,,,,,0,,,91,96
726360,note_on,120,0,3,,,,,,,,,2,,,43,70
726480,note_on,240,0,4,,,,,,,,,4,,,34,74
726480,note_off,120,0,3,,,,,,,,,2,,,43,0
726600,note_on,120,0,3,,,,,,,,,2,,,43,70
726699,note_off,219,0,4,,,,,,,,,4,,,34,0
726720,note_off,120,0,3,,,,,,,,,2,,,43,0
726720,note_on,21,0,4,,,,,,,,,4,,,37,74
726840,note_on,120,0,3,,,,,,,,,2,,,43,70
726939,note_off,219,0,4,,,,,,,,,4,,,37,0
726960,note_on,21,0,4,,,,,,,,,4,,,40,74
726960,note_off,120,0,3,,,,,,,,,2,,,43,0
727080,note_on,120,0,3,,,,,,,,,2,,,43,70
727179,note_off,219,0,4,,,,,,,,,4,,,40,0
727200,note_off,120,0,3,,,,,,,,,2,,,43,0
727200,note_on,21,0,4,,,,,,,,,4,,,37,74
727320,note_on,120,0,3,,,,,,,,,2,,,43,70
727419,note_off,219,0,4,,,,,,,,,4,,,37,0
727440,note_on,21,0,4,,,,,,,,,4,,,34,75
727440,note_off,120,0,3,,,,,,,,,2,,,43,0
727560,note_on,120,0,3,,,,,,,,,2,,,43,70
727560,set_tempo,1320,1,0,,,,,,419580,,,,,,,
727659,note_off,219,0,4,,,,,,,,,4,,,34,0
727680,note_off,0,0,2,,,,,,,,,1,,,82,0
727680,note_off,0,0,2,,,,,,,,,1,,,85,0
727680,note_on,0,0,2,,,,,,,,,1,,,88,94
727680,note_on,0,0,2,,,,,,,,,1,,,85,94
727680,note_on,0,0,2,,,,,,,,,1,,,91,94
727680,note_off,1440,0,2,,,,,,,,,1,,,88,0
727680,note_off,120,0,3,,,,,,,,,2,,,43,0
727680,set_tempo,120,1,0,,,,,,413793,,,,,,,
727680,note_on,0,0,4,,,,,,,,,4,,,32,75
727680,note_off,21,0,4,,,,,,,,,4,,,32,0
727680,note_off,1440,0,1,,,,,,,,,0,,,91,0
727680,note_on,0,0,1,,,,,,,,,0,,,94,99
727800,note_on,120,0,3,,,,,,,,,2,,,43,70
727920,note_on,240,0,4,,,,,,,,,4,,,34,75
727920,note_off,120,0,3,,,,,,,,,2,,,43,0
728040,note_on,120,0,3,,,,,,,,,2,,,43,70
728139,note_off,219,0,4,,,,,,,,,4,,,34,0
728160,note_off,120,0,3,,,,,,,,,2,,,43,0
728160,note_on,21,0,4,,,,,,,,,4,,,37,75
728280,note_on,120,0,3,,,,,,,,,2,,,43,70
728379,note_off,219,0,4,,,,,,,,,4,,,37,0
728400,note_off,120,0,3,,,,,,,,,2,,,43,0
728400,note_off,720,0,1,,,,,,,,,0,,,94,0
728400,note_on,0,0,1,,,,,,,,,0,,,92,94
728400,note_off,720,0,2,,,,,,,,,1,,,91,0
728400,note_on,21,0,4,,,,,,,,,4,,,40,75
728520,note_on,120,0,3,,,,,,,,,2,,,43,70
728619,note_off,219,0,4,,,,,,,,,4,,,40,0
728640,note_on,21,0,4,,,,,,,,,4,,,37,75
728640,note_off,120,0,3,,,,,,,,,2,,,43,0
728760,note_on,120,0,3,,,,,,,,,2,,,43,70
728859,note_off,219,0,4,,,,,,,,,4,,,37,0
728880,note_on,21,0,4,,,,,,,,,4,,,34,75
728880,note_on,0,0,1,,,,,,,,,0,,,91,90
728880,note_off,120,0,3,,,,,,,,,2,,,43,0
728880,set_tempo,1200,1,0,,,,,,419580,,,,,,,
728880,note_off,480,0,1,,,,,,,,,0,,,92,0
729000,set_tempo,120,1,0,,,,,,428571,,,,,,,
729000,note_on,120,0,3,,,,,,,,,2,,,43,70
729099,note_off,219,0,4,,,,,,,,,4,,,34,0
729120,note_on,0,0,2,,,,,,,,,1,,,92,89
729120,control_change,720,0,2,,,,,,,64,127,1,,,,
729120,note_off,0,0,2,,,,,,,,,1,,,85,0
729120,note_off,0,0,2,,,,,,,,,1,,,88,0
729120,note_on,0,0,2,,,,,,,,,1,,,84,89
729120,note_on,0,0,2,,,,,,,,,1,,,87,89
729120,note_off,0,0,4,,,,,,,,,4,,,32,0
729120,note_on,0,0,4,,,,,,,,,4,,,32,75
729120,control_change,240,0,1,,,,,,,64,127,0,,,,
729120,note_off,0,0,1,,,,,,,,,0,,,91,0
729120,note_on,0,0,1,,,,,,,,,0,,,96,92
729120,note_on,0,0,3,,,,,,,,,2,,,39,70
729120,note_on,0,0,3,,,,,,,,,2,,,36,70
729120,note_on,0,0,3,,,,,,,,,2,,,44,70
729120,note_off,0,0,3,,,,,,,,,2,,,43,0
729120,control_change,120,0,3,,,,,,,64,127,2,,,,
729120,control_change,21,0,4,,,,,,,64,127,4,,,,
729240,note_off,0,0,2,,,,,,,,,1,,,84,0
729240,note_off,0,0,2,,,,,,,,,1,,,87,0
729240,note_off,120,0,2,,,,,,,,,1,,,92,0
729240,note_off,120,0,1,,,,,,,,,0,,,96,0
729240,note_on,0,0,2,,,,,,,,,1,,,92,88
729250,set_tempo,250,1,0,,,,,,419580,,,,,,,
729360,note_on,0,0,2,,,,,,,,,1,,,87,88
729360,note_off,120,0,2,,,,,,,,,1,,,92,0
729480,note_off,120,0,2,,,,,,,,,1,,,87,0
729480,note_on,240,0,1,,,,,,,,,0,,,92,92
729600,note_on,120,0,2,,,,,,,,,1,,,87,88
729600,note_off,120,0,1,,,,,,,,,0,,,92,0
729600,note_off,480,0,4,,,,,,,,,4,,,32,0
729600,note_off,0,0,3,,,,,,,,,2,,,44,0
729600,note_off,0,0,3,,,,,,,,,2,,,36,0
729600,note_off,480,0,3,,,,,,,,,2,,,39,0
729720,note_off,120,0,2,,,,,,,,,1,,,87,0
729720,note_on,0,0,2,,,,,,,,,1,,,84,88
729840,note_off,120,0,2,,,,,,,,,1,,,84,0
729840,note_on,240,0,1,,,,,,,,,0,,,87,92
729960,note_on,120,0,2,,,,,,,,,1,,,84,88
729960,note_off,120,0,1,,,,,,,,,0,,,87,0
730080,note_off,120,0,2,,,,,,,,,1,,,84,0
730080,note_on,0,0,2,,,,,,,,,1,,,80,88
730200,note_off,120,0,2,,,,,,,,,1,,,80,0
730200,note_on,240,0,1,,,,,,,,,0,,,84,92
730320,note_on,120,0,2,,,,,,,,,1,,,80,88
730320,note_off,120,0,1,,,,,,,,,0,,,84,0
730440,note_off,120,0,2,,,,,,,,,1,,,80,0
730440,note_on,0,0,2,,,,,,,,,1,,,75,88
730560,note_on,240,0,1,,,,,,,,,0,,,72,92
730560,note_off,120,0,2,,,,,,,,,1,,,75,0
730680,note_on,120,0,2,,,,,,,,,1,,,68,89
730680,note_off,120,0,1,,,,,,,,,0,,,72,0
730800,note_off,120,0,2,,,,,,,,,1,,,68,0
730800,note_on,0,0,2,,,,,,,,,1,,,63,89
730920,note_off,120,0,2,,,,,,,,,1,,,63,0
730920,note_on,240,0,1,,,,,,,,,0,,,68,92
731040,note_off,120,0,1,,,,,,,,,0,,,68,0
731040,note_on,120,0,2,,,,,,,,,1,,,63,89
731160,note_off,120,0,2,,,,,,,,,1,,,63,0
731160,note_on,0,0,2,,,,,,,,,1,,,60,89
731280,note_off,120,0,2,,,,,,,,,1,,,60,0
731280,note_on,240,0,1,,,,,,,,,0,,,56,93
731400,note_off,120,0,1,,,,,,,,,0,,,56,0
731400,note_on,120,0,2,,,,,,,,,1,,,51,89
731520,note_off,120,0,2,,,,,,,,,1,,,51,0
731520,note_on,0,0,2,,,,,,,,,1,,,48,89
731640,note_on,240,0,1,,,,,,,,,0,,,51,93
731640,note_off,120,0,2,,,,,,,,,1,,,48,0
731760,note_off,120,0,1,,,,,,,,,0,,,51,0
731760,note_on,120,0,2,,,,,,,,,1,,,48,89
731880,note_off,120,0,2,,,,,,,,,1,,,48,0
731880,set_tempo,2630,1,0,,,,,,425531,,,,,,,
731880,note_on,0,0,2,,,,,,,,,1,,,44,89
732000,note_on,240,0,1,,,,,,,,,0,,,32,93
732000,set_tempo,120,1,0,,,,,,419580,,,,,,,
732000,note_off,120,0,2,,,,,,,,,1,,,44,0
732120,note_off,120,0,1,,,,,,,,,0,,,32,0
732120,note_on,120,0,2,,,,,,,,,1,,,36,90
732240,note_on,0,0,2,,,,,,,,,1,,,39,90
732240,note_off,120,0,2,,,,,,,,,1,,,36,0
732360,note_on,240,0,1,,,,,,,,,0,,,44,93
732360,note_off,120,0,2,,,,,,,,,1,,,39,0
732480,note_on,120,0,2,,,,,,,,,1,,,48,90
732480,note_off,120,0,1,,,,,,,,,0,,,44,0
732600,note_off,120,0,2,,,,,,,,,1,,,48,0
732600,note_on,0,0,2,,,,,,,,,1,,,51,90
732720,note_off,120,0,2,,,,,,,,,1,,,51,0
732720,note_on,240,0,1,,,,,,,,,0,,,44,93
732840,note_off,120,0,1,,,,,,,,,0,,,44,0
732840,note_on,120,0,2,,,,,,,,,1,,,48,90
732960,note_on,0,0,2,,,,,,,,,1,,,51,90
732960,note_off,120,0,2,,,,,,,,,1,,,48,0
733080,note_on,240,0,1,,,,,,,,,0,,,56,94
733080,note_off,120,0,2,,,,,,,,,1,,,51,0
733200,note_on,120,0,2,,,,,,,,,1,,,60,90
733200,note_off,120,0,1,,,,,,,,,0,,,56,0
733320,note_off,120,0,2,,,,,,,,,1,,,60,0
733320,note_on,0,0,2,,,,,,,,,1,,,63,90
733440,note_off,120,0,2,,,,,,,,,1,,,63,0
733440,note_on,240,0,1,,,,,,,,,0,,,56,94
733560,note_off,120,0,1,,,,,,,,,0,,,56,0
733560,note_on,120,0,2,,,,,,,,,1,,,60,91
733680,note_on,0,0,2,,,,,,,,,1,,,63,91
733680,note_off,120,0,2,,,,,,,,,1,,,60,0
733800,note_on,240,0,1,,,,,,,,,0,,,68,94
733800,note_off,120,0,2,,,,,,,,,1,,,63,0
733920,note_off,120,0,1,,,,,,,,,0,,,68,0
733920,note_on,120,0,2,,,,,,,,,1,,,72,91
734040,note_on,0,0,2,,,,,,,,,1,,,75,91
734040,note_off,120,0,2,,,,,,,,,1,,,72,0
734160,note_off,120,0,2,,,,,,,,,1,,,75,0
734160,note_on,240,0,1,,,,,,,,,0,,,68,94
734280,note_on,120,0,2,,,,,,,,,1,,,72,91
734280,note_off,120,0,1,,,,,,,,,0,,,68,0
734400,note_on,0,0,2,,,,,,,,,1,,,75,91
734400,note_off,120,0,2,,,,,,,,,1,,,72,0
734520,note_off,120,0,2,,,,,,,,,1,,,75,0
734520,note_on,240,0,1,,,,,,,,,0,,,80,94
734640,note_on,120,0,2,,,,,,,,,1,,,84,91
734640,set_tempo,2640,1,0,,,,,,447761,,,,,,,
734640,note_off,120,0,1,,,,,,,,,0,,,80,0
734760,note_off,120,0,2,,,,,,,,,1,,,84,0
734760,set_tempo,120,1,0,,,,,,465116,,,,,,,
734760,note_on,0,0,2,,,,,,,,,1,,,87,91
734880,note_on,0,0,2,,,,,,,,,1,,,80,91
734880,note_on,5280,0,4,,,,,,,,,4,,,32,94
734880,end_of_track,0,1,0,,,,,,,,,,,,,
734880,set_tempo,120,1,0,,,,,,500000,,,,,,,
734880,note_on,0,0,2,,,,,,,,,1,,,84,91
734880,note_on,240,0,1,,,,,,,,,0,,,92,95
734880,note_on,5280,0,3,,,,,,,,,2,,,36,94
734880,note_on,0,0,3,,,,,,,,,2,,,39,94
734880,note_off,120,0,2,,,,,,,,,1,,,87,0
734880,note_on,0,0,4,,,,,,,,,4,,,44,94
734880,note_on,0,0,2,,,,,,,,,1,,,87,91
735360,note_off,480,0,1,,,,,,,,,0,,,92,0
735360,note_off,480,0,4,,,,,,,,,4,,,44,0
735360,note_off,480,0,2,,,,,,,,,1,,,87,0
735360,note_off,0,0,2,,,,,,,,,1,,,80,0
735360,note_off,0,0,2,,,,,,,,,1,,,84,0
735360,note_off,0,0,4,,,,,,,,,4,,,32,0
735360,note_off,0,0,3,,,,,,,,,2,,,36,0
735360,note_off,480,0,3,,,,,,,,,2,,,39,0
737280,control_change,1920,0,3,,,,,,,64,0,2,,,,
737280,control_change,1920,0,1,,,,,,,64,0,0,,,,
737280,end_of_track,0,1,1,,,,,,,,,,,,,
737280,control_change,1920,0,2,,,,,,,64,0,1,,,,
737280,end_of_track,0,1,2,,,,,,,,,,,,,
737280,control_change,1920,0,4,,,,,,,64,0,4,,,,
737280,end_of_track,0,1,3,,,,,,,,,,,,,
737280,end_of_track,0,1,4,,,,,,,,,,,,,
