,note,step,duration,channel,velocity
0,40.0,60,435,3.0,27.0
1,49.0,60,315,3.0,28.0
2,37.0,0,500,3.0,26.0
3,45.0,60,380,3.0,27.0
4,52.0,60,260,3.0,29.0
5,57.0,60,660,0.0,30.0
6,61.0,660,480,0.0,30.0
7,64.0,480,480,0.0,28.0
8,69.0,480,1440,0.0,26.0
9,69.0,1440,240,0.0,34.0
10,57.0,0,310,2.0,34.0
11,49.0,0,310,3.0,34.0
12,67.0,240,190,0.0,34.0
13,67.0,0,240,0.0,35.0
14,57.0,240,310,2.0,35.0
15,50.0,0,310,3.0,35.0
16,65.0,240,190,0.0,36.0
17,65.0,240,240,0.0,36.0
18,52.0,0,310,3.0,36.0
19,57.0,0,310,2.0,36.0
20,64.0,240,190,0.0,37.0
21,64.0,240,240,0.0,37.0
22,57.0,0,310,2.0,37.0
23,53.0,0,310,3.0,37.0
24,62.0,240,240,0.0,38.0
25,69.0,240,240,0.0,39.0
26,57.0,0,310,2.0,39.0
27,49.0,0,310,3.0,39.0
28,67.0,240,190,0.0,39.0
29,67.0,0,240,0.0,40.0
30,57.0,240,310,2.0,40.0
31,50.0,0,310,3.0,40.0
32,65.0,240,190,0.0,40.0
33,65.0,0,240,0.0,41.0
34,52.0,240,310,3.0,41.0
35,57.0,0,310,2.0,41.0
36,64.0,240,190,0.0,41.0
37,64.0,0,240,0.0,42.0
38,57.0,0,310,2.0,42.0
39,53.0,240,310,3.0,42.0
40,62.0,240,190,0.0,43.0
41,74.0,0,240,0.0,42.0
42,54.0,240,310,3.0,42.0
43,62.0,0,310,2.0,42.0
44,72.0,240,190,0.0,44.0
45,72.0,0,240,0.0,46.0
46,55.0,240,310,3.0,46.0
47,62.0,0,310,2.0,46.0
48,70.0,240,240,0.0,49.0
49,70.0,0,240,0.0,51.0
50,57.0,240,310,3.0,51.0
51,62.0,0,310,2.0,51.0
52,69.0,240,190,0.0,53.0
53,69.0,0,240,0.0,55.0
54,58.0,0,310,3.0,55.0
55,62.0,240,310,2.0,55.0
56,67.0,240,190,0.0,58.0
57,67.0,0,240,0.0,62.0
58,58.0,240,310,3.0,60.0
59,62.0,0,310,2.0,60.0
60,68.0,240,190,0.0,70.0
61,68.0,0,385,0.0,80.0
62,69.0,480,75,0.0,56.0
63,68.0,60,80,0.0,52.0
64,66.0,60,75,0.0,49.0
65,68.0,60,60,0.0,46.0
66,71.0,60,120,0.0,43.0
67,69.0,120,110,0.0,37.0
68,65.0,0,960,2.0,78.0
69,62.0,240,960,2.0,78.0
70,58.0,0,960,3.0,78.0
71,64.0,0,905,2.0,34.0
72,61.0,120,905,2.0,34.0
73,57.0,0,905,3.0,34.0
74,69.0,0,905,0.0,31.0
75,40.0,960,50,3.0,26.0
76,43.0,60,50,3.0,28.0
77,48.0,60,50,3.0,29.0
78,52.0,60,50,3.0,30.0
79,55.0,60,50,3.0,31.0
80,60.0,60,660,0.0,33.0
81,64.0,660,400,0.0,30.0
82,67.0,480,400,0.0,28.0
83,72.0,480,1195,0.0,25.0
84,72.0,0,240,0.0,40.0
85,52.0,0,310,3.0,40.0
86,60.0,1440,310,2.0,40.0
87,70.0,240,190,0.0,41.0
88,70.0,240,240,0.0,43.0
89,53.0,0,310,3.0,43.0
90,60.0,0,310,2.0,43.0
91,68.0,240,190,0.0,44.0
92,68.0,240,240,0.0,45.0
93,69.0,240,190,0.0,46.0
94,69.0,240,240,0.0,47.0
95,74.0,240,190,0.0,49.0
96,74.0,0,240,0.0,50.0
97,54.0,0,310,3.0,50.0
98,62.0,240,310,2.0,50.0
99,72.0,240,190,0.0,51.0
100,72.0,240,240,0.0,52.0
101,55.0,0,310,3.0,52.0
102,62.0,0,310,2.0,52.0
103,69.0,240,190,0.0,53.0
104,69.0,240,240,0.0,55.0
105,70.0,240,190,0.0,56.0
106,70.0,240,240,0.0,57.0
107,75.0,240,190,0.0,58.0
108,75.0,240,240,0.0,59.0
109,55.0,0,310,3.0,59.0
110,63.0,0,310,2.0,59.0
111,58.0,0,310,2.0,59.0
112,74.0,240,190,0.0,60.0
113,74.0,240,240,0.0,62.0
114,73.0,240,190,0.0,63.0
115,73.0,0,240,0.0,64.0
116,61.0,0,310,2.0,64.0
117,64.0,0,310,2.0,64.0
118,58.0,0,310,2.0,64.0
119,55.0,240,310,3.0,64.0
120,82.0,240,190,0.0,65.0
121,82.0,240,240,0.0,67.0
122,76.0,240,190,0.0,69.0
123,76.0,0,240,0.0,71.0
124,55.0,0,310,3.0,69.0
125,58.0,0,310,2.0,69.0
126,61.0,0,310,2.0,69.0
127,64.0,240,310,2.0,69.0
128,85.0,240,190,0.0,73.0
129,85.0,240,240,0.0,74.0
130,77.0,240,190,0.0,76.0
131,77.0,0,240,0.0,78.0
132,56.0,240,310,3.0,74.0
133,65.0,0,310,2.0,74.0
134,62.0,0,310,2.0,74.0
135,59.0,0,310,2.0,74.0
136,86.0,240,190,0.0,80.0
137,86.0,240,240,0.0,82.0
138,77.0,240,190,0.0,84.0
139,77.0,0,240,0.0,86.0
140,56.0,240,310,3.0,78.0
141,59.0,0,310,2.0,78.0
142,65.0,0,310,2.0,78.0
143,62.0,0,310,2.0,78.0
144,89.0,240,190,0.0,90.0
145,89.0,0,240,0.0,97.0
146,57.0,240,310,3.0,86.0
147,62.0,0,310,2.0,86.0
148,65.0,0,310,2.0,86.0
149,85.0,240,190,0.0,94.0
150,85.0,240,240,0.0,90.0
151,86.0,240,190,0.0,88.0
152,86.0,240,240,0.0,86.0
153,80.0,240,190,0.0,84.0
154,80.0,240,240,0.0,82.0
155,81.0,240,190,0.0,80.0
156,81.0,240,240,0.0,78.0
157,76.0,240,190,0.0,78.0
158,76.0,240,240,0.0,77.0
159,77.0,240,190,0.0,76.0
160,77.0,240,240,0.0,75.0
161,73.0,240,190,0.0,74.0
162,73.0,240,240,0.0,73.0
163,74.0,240,190,0.0,72.0
164,74.0,240,240,0.0,71.0
165,68.0,240,190,0.0,70.0
166,68.0,240,240,0.0,69.0
167,69.0,240,190,0.0,68.0
168,69.0,240,240,0.0,67.0
169,64.0,240,190,0.0,66.0
170,64.0,240,240,0.0,65.0
171,65.0,240,190,0.0,64.0
172,65.0,240,240,0.0,63.0
173,61.0,240,190,0.0,62.0
174,61.0,240,240,0.0,61.0
175,62.0,240,190,0.0,60.0
176,62.0,240,240,0.0,59.0
177,58.0,240,190,0.0,59.0
178,58.0,240,240,0.0,73.0
179,46.0,0,240,3.0,71.0
180,45.0,0,190,3.0,60.0
181,57.0,240,190,0.0,62.0
182,45.0,240,240,3.0,56.0
183,57.0,0,240,0.0,56.0
184,49.0,240,190,3.0,56.0
185,61.0,0,190,0.0,56.0
186,49.0,0,240,3.0,56.0
187,61.0,240,240,0.0,56.0
188,62.0,0,190,0.0,57.0
189,50.0,240,190,3.0,57.0
190,62.0,240,240,0.0,58.0
191,50.0,0,240,3.0,58.0
192,46.0,0,190,3.0,59.0
193,58.0,240,190,0.0,59.0
194,58.0,0,240,0.0,78.0
195,46.0,240,240,3.0,81.0
196,57.0,0,190,0.0,68.0
197,45.0,240,190,3.0,70.0
198,57.0,240,240,0.0,63.0
199,45.0,0,240,3.0,63.0
200,61.0,240,190,0.0,64.0
201,49.0,0,190,3.0,64.0
202,61.0,240,240,0.0,65.0
203,49.0,0,240,3.0,65.0
204,50.0,0,190,3.0,67.0
205,62.0,240,190,0.0,67.0
206,50.0,240,240,3.0,68.0
207,62.0,0,240,0.0,68.0
208,46.0,240,190,3.0,69.0
209,58.0,0,190,0.0,69.0
210,58.0,240,240,0.0,86.0
211,46.0,0,240,3.0,88.0
212,57.0,240,190,0.0,76.0
213,45.0,0,190,3.0,77.0
214,57.0,240,240,0.0,70.0
215,58.0,240,240,0.0,71.0
216,59.0,0,240,0.0,73.0
217,60.0,240,240,0.0,75.0
218,61.0,240,240,0.0,77.0
219,62.0,240,240,0.0,79.0
220,63.0,240,240,0.0,81.0
221,64.0,240,240,0.0,83.0
222,53.0,0,0,2.0,88.0
223,50.0,0,1440,3.0,102.0
224,45.0,0,1920,3.0,73.0
225,65.0,240,240,0.0,85.0
226,45.0,240,0,3.0,91.0
227,66.0,240,240,0.0,87.0
228,53.0,0,0,2.0,93.0
229,50.0,0,480,2.0,88.0
230,67.0,0,240,0.0,89.0
231,68.0,240,240,0.0,91.0
232,50.0,0,480,2.0,93.0
233,69.0,0,240,0.0,93.0
234,70.0,240,240,0.0,95.0
235,55.0,0,480,2.0,97.0
236,45.0,0,480,3.0,97.0
237,52.0,0,0,2.0,102.0
238,61.0,240,240,0.0,97.0
239,69.0,240,240,0.0,99.0
240,45.0,0,480,3.0,103.0
241,55.0,0,480,2.0,102.0
242,62.0,240,160,0.0,95.0
243,57.0,160,160,2.0,71.0
244,53.0,160,160,2.0,69.0
245,57.0,160,160,2.0,67.0
246,53.0,160,160,2.0,66.0
247,38.0,0,960,3.0,108.0
248,57.0,160,160,2.0,64.0
249,53.0,160,160,2.0,63.0
250,41.0,0,310,3.0,98.0
251,57.0,160,160,2.0,61.0
252,53.0,160,160,2.0,59.0
253,57.0,0,160,2.0,58.0
254,45.0,160,310,3.0,96.0
255,53.0,160,160,2.0,56.0
256,57.0,160,160,2.0,54.0
257,53.0,160,160,2.0,54.0
258,57.0,160,160,2.0,54.0
259,53.0,160,160,2.0,54.0
260,57.0,160,160,2.0,54.0
261,53.0,160,160,2.0,54.0
262,57.0,160,160,2.0,54.0
263,53.0,160,160,2.0,55.0
264,57.0,160,160,2.0,55.0
265,53.0,160,160,2.0,55.0
266,57.0,160,160,2.0,55.0
267,53.0,160,160,2.0,55.0
268,57.0,160,160,2.0,55.0
269,69.0,0,480,0.0,52.0
270,53.0,160,160,2.0,55.0
271,57.0,160,160,2.0,56.0
272,68.0,0,480,0.0,52.0
273,53.0,160,160,2.0,56.0
274,57.0,160,160,2.0,56.0
275,53.0,160,160,2.0,56.0
276,69.0,0,480,0.0,53.0
277,57.0,160,160,2.0,56.0
278,53.0,0,160,2.0,56.0
279,57.0,160,160,2.0,57.0
280,70.0,160,480,0.0,53.0
281,53.0,160,160,2.0,57.0
282,57.0,160,160,2.0,57.0
283,53.0,160,160,2.0,57.0
284,69.0,0,480,0.0,54.0
285,57.0,160,160,2.0,57.0
286,53.0,0,160,2.0,57.0
287,57.0,160,160,2.0,57.0
288,53.0,160,160,2.0,58.0
289,57.0,160,160,2.0,58.0
290,53.0,160,160,2.0,58.0
291,57.0,160,160,2.0,58.0
292,69.0,160,0,0.0,52.0
293,53.0,0,160,2.0,58.0
294,57.0,160,160,2.0,58.0
295,53.0,160,160,2.0,58.0
296,57.0,160,160,2.0,59.0
297,53.0,160,160,2.0,59.0
298,57.0,160,160,2.0,59.0
299,50.0,0,5760,3.0,95.0
300,69.0,160,160,2.0,59.0
301,61.0,160,160,2.0,59.0
302,55.0,160,160,2.0,59.0
303,61.0,160,160,2.0,59.0
304,55.0,160,160,2.0,60.0
305,61.0,160,160,2.0,60.0
306,40.0,0,960,3.0,96.0
307,55.0,0,160,2.0,60.0
308,43.0,160,310,3.0,88.0
309,61.0,160,160,2.0,60.0
310,55.0,160,160,2.0,60.0
311,61.0,0,160,2.0,60.0
312,49.0,160,310,3.0,87.0
313,55.0,160,160,2.0,61.0
314,61.0,160,160,2.0,61.0
315,55.0,0,160,2.0,61.0
316,61.0,160,160,2.0,61.0
317,55.0,160,160,2.0,61.0
318,61.0,160,160,2.0,61.0
319,55.0,160,160,2.0,61.0
320,61.0,160,160,2.0,62.0
321,55.0,160,160,2.0,62.0
322,61.0,160,160,2.0,62.0
323,55.0,160,160,2.0,62.0
324,61.0,0,160,2.0,62.0
325,55.0,160,160,2.0,62.0
326,69.0,160,480,0.0,60.0
327,61.0,160,160,2.0,62.0
328,55.0,160,160,2.0,63.0
329,61.0,160,160,2.0,63.0
330,68.0,0,480,0.0,61.0
331,55.0,160,160,2.0,63.0
332,61.0,0,160,2.0,63.0
333,55.0,160,160,2.0,63.0
334,61.0,160,160,2.0,63.0
335,69.0,160,480,0.0,62.0
336,55.0,160,160,2.0,63.0
337,61.0,160,160,2.0,64.0
338,55.0,160,160,2.0,64.0
339,70.0,0,480,0.0,63.0
340,61.0,160,160,2.0,64.0
341,55.0,160,160,2.0,64.0
342,61.0,160,160,2.0,64.0
343,69.0,0,480,0.0,64.0
344,55.0,0,215,2.0,64.0
345,61.0,160,160,2.0,65.0
346,55.0,160,160,2.0,65.0
347,61.0,160,160,2.0,65.0
348,55.0,160,160,2.0,65.0
349,69.0,160,0,0.0,62.0
350,61.0,160,160,2.0,65.0
351,55.0,0,160,2.0,65.0
352,61.0,160,160,2.0,65.0
353,55.0,160,160,2.0,66.0
354,61.0,160,160,2.0,66.0
355,55.0,160,160,2.0,66.0
356,61.0,160,160,2.0,66.0
357,52.0,160,5775,3.0,85.0
358,69.0,0,160,2.0,66.0
359,62.0,160,160,2.0,66.0
360,57.0,160,160,2.0,66.0
361,62.0,160,160,2.0,67.0
362,57.0,160,160,2.0,67.0
363,62.0,160,160,2.0,67.0
364,41.0,160,960,3.0,94.0
365,57.0,0,160,2.0,67.0
366,45.0,160,310,3.0,89.0
367,62.0,160,160,2.0,67.0
368,57.0,160,160,2.0,67.0
369,62.0,160,160,2.0,67.0
370,50.0,0,310,3.0,87.0
371,57.0,160,160,2.0,68.0
372,62.0,160,160,2.0,68.0
373,57.0,0,160,2.0,68.0
374,62.0,160,160,2.0,68.0
375,57.0,160,160,2.0,68.0
376,62.0,160,160,2.0,68.0
377,57.0,160,160,2.0,69.0
378,62.0,160,160,2.0,69.0
379,57.0,160,160,2.0,69.0
380,62.0,160,160,2.0,69.0
381,57.0,160,160,2.0,69.0
382,62.0,160,160,2.0,69.0
383,57.0,160,160,2.0,69.0
384,53.0,160,1920,3.0,85.0
385,62.0,160,160,2.0,70.0
386,64.0,160,160,2.0,70.0
387,59.0,160,160,2.0,70.0
388,64.0,160,160,2.0,70.0
389,59.0,160,160,2.0,70.0
390,64.0,160,160,2.0,70.0
391,59.0,160,160,2.0,70.0
392,44.0,0,960,3.0,101.0
393,64.0,0,160,2.0,71.0
394,47.0,160,310,3.0,93.0
395,59.0,160,160,2.0,71.0
396,64.0,160,160,2.0,71.0
397,59.0,0,160,2.0,71.0
398,52.0,160,310,3.0,92.0
399,64.0,160,160,2.0,71.0
400,74.0,0,2781,0.0,82.0
401,59.0,160,160,2.0,71.0
402,59.0,0,160,2.0,71.0
403,64.0,160,160,2.0,72.0
404,59.0,160,160,2.0,72.0
405,64.0,160,160,2.0,72.0
406,59.0,160,160,2.0,72.0
407,64.0,160,160,2.0,72.0
408,59.0,0,160,2.0,72.0
409,64.0,160,160,2.0,73.0
410,59.0,160,160,2.0,73.0
411,64.0,160,160,2.0,73.0
412,59.0,160,160,2.0,73.0
413,56.0,160,1920,3.0,91.0
414,64.0,160,160,2.0,73.0
415,65.0,160,160,2.0,73.0
416,60.0,160,160,2.0,73.0
417,65.0,160,160,2.0,74.0
418,60.0,160,160,2.0,74.0
419,65.0,160,160,2.0,74.0
420,45.0,0,960,3.0,104.0
421,60.0,160,160,2.0,74.0
422,65.0,0,160,2.0,74.0
423,48.0,160,310,3.0,97.0
424,60.0,160,160,2.0,74.0
425,65.0,160,160,2.0,74.0
426,60.0,0,160,2.0,75.0
427,53.0,160,310,3.0,96.0
428,65.0,160,160,2.0,75.0
429,76.0,160,2781,0.0,86.0
430,60.0,160,160,2.0,75.0
431,60.0,160,160,2.0,75.0
432,65.0,160,160,2.0,75.0
433,60.0,160,160,2.0,75.0
434,65.0,160,160,2.0,75.0
435,60.0,160,160,2.0,76.0
436,65.0,160,160,2.0,76.0
437,60.0,0,160,2.0,76.0
438,65.0,160,160,2.0,76.0
439,60.0,160,160,2.0,76.0
440,65.0,160,160,2.0,76.0
441,60.0,160,160,2.0,77.0
442,57.0,0,1906,3.0,94.0
443,65.0,160,160,2.0,77.0
444,68.0,0,160,2.0,77.0
445,62.0,160,160,2.0,77.0
446,68.0,160,160,2.0,77.0
447,62.0,160,160,2.0,77.0
448,68.0,160,160,2.0,77.0
449,47.0,160,960,3.0,113.0
450,62.0,160,160,2.0,78.0
451,68.0,0,160,2.0,78.0
452,50.0,160,310,3.0,105.0
453,62.0,160,160,2.0,78.0
454,68.0,160,160,2.0,78.0
455,62.0,0,160,2.0,78.0
456,56.0,160,310,3.0,103.0
457,68.0,160,160,2.0,78.0
458,77.0,160,2781,0.0,91.0
459,62.0,160,160,2.0,78.0
460,62.0,0,160,2.0,79.0
461,68.0,160,160,2.0,79.0
462,62.0,160,160,2.0,79.0
463,68.0,160,160,2.0,79.0
464,62.0,160,160,2.0,79.0
465,68.0,160,160,2.0,79.0
466,62.0,160,160,2.0,79.0
467,68.0,160,160,2.0,80.0
468,62.0,160,160,2.0,80.0
469,68.0,160,160,2.0,80.0
470,62.0,160,160,2.0,80.0
471,68.0,160,160,2.0,80.0
472,59.0,160,1920,3.0,102.0
473,69.0,160,160,2.0,80.0
474,64.0,160,160,2.0,81.0
475,69.0,160,160,2.0,81.0
476,64.0,160,160,2.0,81.0
477,69.0,160,160,2.0,81.0
478,64.0,160,160,2.0,81.0
479,48.0,0,960,3.0,116.0
480,69.0,160,160,2.0,81.0
481,57.0,0,310,3.0,108.0
482,64.0,160,160,2.0,81.0
483,69.0,160,160,2.0,82.0
484,64.0,160,160,2.0,82.0
485,60.0,0,310,3.0,106.0
486,69.0,160,160,2.0,82.0
487,80.0,0,2781,0.0,96.0
488,64.0,160,160,2.0,82.0
489,69.0,0,160,2.0,82.0
490,72.0,160,160,2.0,82.0
491,69.0,160,160,2.0,82.0
492,72.0,160,160,2.0,83.0
493,69.0,160,160,2.0,83.0
494,72.0,160,160,2.0,83.0
495,69.0,0,160,2.0,83.0
496,66.0,0,1250,3.0,106.0
497,63.0,160,1250,3.0,106.0
498,72.0,160,160,2.0,83.0
499,69.0,160,160,2.0,83.0
500,72.0,160,160,2.0,83.0
501,69.0,160,160,2.0,84.0
502,81.0,160,834,0.0,105.0
503,72.0,160,160,2.0,84.0
504,69.0,0,160,2.0,84.0
505,72.0,160,160,2.0,84.0
506,69.0,160,160,2.0,84.0
507,72.0,160,160,2.0,84.0
508,69.0,160,160,2.0,85.0
509,72.0,160,160,2.0,85.0
510,69.0,160,160,2.0,85.0
511,63.0,0,1250,3.0,111.0
512,66.0,160,1250,3.0,111.0
513,72.0,160,160,2.0,85.0
514,69.0,160,160,2.0,85.0
515,72.0,160,160,2.0,85.0
516,69.0,160,160,2.0,85.0
517,81.0,0,834,0.0,107.0
518,72.0,160,160,2.0,86.0
519,69.0,0,160,2.0,86.0
520,72.0,160,160,2.0,86.0
521,69.0,160,160,2.0,86.0
522,72.0,160,160,2.0,86.0
523,69.0,160,160,2.0,86.0
524,72.0,160,160,2.0,86.0
525,69.0,160,160,2.0,87.0
526,63.0,0,1250,3.0,110.0
527,66.0,160,1250,3.0,110.0
528,72.0,160,160,2.0,87.0
529,69.0,160,160,2.0,87.0
530,72.0,160,160,2.0,87.0
531,69.0,160,160,2.0,87.0
532,81.0,0,834,0.0,109.0
533,72.0,160,160,2.0,87.0
534,68.0,0,480,1.0,97.0
535,71.0,160,480,1.0,97.0
536,64.0,240,240,2.0,55.0
537,62.0,0,240,2.0,55.0
538,59.0,240,240,2.0,55.0
539,80.0,0,834,0.0,100.0
540,64.0,240,240,2.0,55.0
541,65.0,240,240,2.0,55.0
542,64.0,240,240,2.0,55.0
543,83.0,240,240,0.0,65.0
544,59.0,0,240,2.0,54.0
545,62.0,0,240,2.0,54.0
546,80.0,240,190,0.0,65.0
547,52.0,0,1920,3.0,103.0
548,64.0,0,240,2.0,54.0
549,76.0,240,240,0.0,64.0
550,77.0,240,190,0.0,64.0
551,64.0,0,240,2.0,54.0
552,77.0,0,240,0.0,63.0
553,59.0,0,240,2.0,53.0
554,62.0,240,240,2.0,53.0
555,74.0,240,190,0.0,60.0
556,64.0,0,240,2.0,53.0
557,65.0,240,240,2.0,53.0
558,64.0,240,240,2.0,53.0
559,62.0,0,240,2.0,53.0
560,59.0,240,240,2.0,53.0
561,83.0,0,240,0.0,61.0
562,80.0,240,190,0.0,61.0
563,52.0,0,1920,3.0,77.0
564,64.0,0,240,2.0,52.0
565,76.0,240,240,0.0,61.0
566,77.0,240,190,0.0,60.0
567,64.0,0,240,2.0,52.0
568,59.0,0,240,2.0,52.0
569,62.0,240,240,2.0,52.0
570,77.0,0,240,0.0,60.0
571,74.0,240,190,0.0,56.0
572,64.0,0,240,2.0,51.0
573,65.0,240,240,2.0,51.0
574,64.0,240,240,2.0,51.0
575,83.0,240,240,0.0,58.0
576,62.0,0,240,2.0,51.0
577,59.0,0,240,2.0,51.0
578,80.0,240,190,0.0,57.0
579,52.0,0,0,3.0,71.0
580,64.0,0,240,2.0,51.0
581,76.0,240,240,0.0,57.0
582,77.0,240,190,0.0,57.0
583,64.0,0,240,2.0,50.0
584,59.0,0,240,2.0,50.0
585,77.0,240,240,0.0,56.0
586,62.0,0,240,2.0,50.0
587,74.0,0,190,0.0,56.0
588,64.0,240,240,2.0,50.0
589,74.0,0,240,0.0,55.0
590,72.0,0,190,0.0,55.0
591,64.0,240,240,2.0,49.0
592,59.0,240,240,2.0,49.0
593,72.0,0,240,0.0,54.0
594,56.0,0,240,2.0,49.0
595,71.0,240,190,0.0,54.0
596,52.0,240,960,3.0,70.0
597,64.0,0,240,2.0,49.0
598,71.0,0,240,0.0,54.0
599,72.0,240,190,0.0,53.0
600,64.0,0,240,2.0,48.0
601,60.0,0,240,2.0,48.0
602,57.0,0,240,2.0,48.0
603,69.0,240,310,0.0,50.0
604,64.0,240,240,2.0,48.0
605,65.0,240,240,2.0,48.0
606,64.0,240,240,2.0,48.0
607,60.0,0,240,2.0,47.0
608,57.0,0,240,2.0,47.0
609,84.0,240,240,0.0,59.0
610,81.0,0,190,0.0,59.0
611,64.0,240,240,2.0,47.0
612,52.0,240,1920,3.0,68.0
613,75.0,240,240,0.0,58.0
614,76.0,240,190,0.0,58.0
615,64.0,0,240,2.0,47.0
616,76.0,240,240,0.0,58.0
617,60.0,0,240,2.0,46.0
618,57.0,0,240,2.0,46.0
619,72.0,240,240,0.0,54.0
620,64.0,0,240,2.0,46.0
621,65.0,240,240,2.0,46.0
622,64.0,240,240,2.0,46.0
623,84.0,240,240,0.0,56.0
624,60.0,0,240,2.0,46.0
625,57.0,0,240,2.0,46.0
626,81.0,240,190,0.0,56.0
627,64.0,0,240,2.0,45.0
628,52.0,240,0,3.0,62.0
629,75.0,0,240,0.0,56.0
630,76.0,0,190,0.0,56.0
631,64.0,240,240,2.0,45.0
632,76.0,240,240,0.0,55.0
633,60.0,0,240,2.0,45.0
634,57.0,0,240,2.0,45.0
635,72.0,240,190,0.0,53.0
636,64.0,0,240,2.0,44.0
637,65.0,240,240,2.0,44.0
638,64.0,240,240,2.0,44.0
639,60.0,0,240,2.0,44.0
640,57.0,240,240,2.0,44.0
641,84.0,0,240,0.0,54.0
642,81.0,0,190,0.0,54.0
643,64.0,240,240,2.0,44.0
644,75.0,0,240,0.0,53.0
645,76.0,0,190,0.0,53.0
646,64.0,240,240,2.0,44.0
647,57.0,0,240,2.0,45.0
648,60.0,240,240,2.0,45.0
649,76.0,0,240,0.0,53.0
650,72.0,0,190,0.0,53.0
651,64.0,240,240,2.0,46.0
652,52.0,240,0,3.0,70.0
653,72.0,0,240,0.0,52.0
654,71.0,240,190,0.0,52.0
655,64.0,0,240,2.0,47.0
656,57.0,0,240,2.0,47.0
657,60.0,240,240,2.0,47.0
658,71.0,0,240,0.0,52.0
659,69.0,0,190,0.0,51.0
660,52.0,240,0,3.0,72.0
661,64.0,240,240,2.0,48.0
662,69.0,0,240,0.0,51.0
663,68.0,240,240,0.0,51.0
664,64.0,0,240,2.0,49.0
665,59.0,240,240,2.0,49.0
666,62.0,0,240,2.0,49.0
667,71.0,0,310,0.0,49.0
668,64.0,240,240,2.0,50.0
669,65.0,240,240,2.0,50.0
670,64.0,240,240,2.0,51.0
671,59.0,0,240,2.0,52.0
672,62.0,240,240,2.0,52.0
673,89.0,0,240,0.0,53.0
674,86.0,0,190,0.0,54.0
675,64.0,240,240,2.0,52.0
676,85.0,240,240,0.0,55.0
677,86.0,0,190,0.0,56.0
678,64.0,240,240,2.0,53.0
679,62.0,0,240,2.0,54.0
680,59.0,240,240,2.0,54.0
681,83.0,0,310,0.0,55.0
682,64.0,240,240,2.0,54.0
683,65.0,240,240,2.0,55.0
684,64.0,240,240,2.0,55.0
685,59.0,0,240,2.0,56.0
686,62.0,240,240,2.0,56.0
687,89.0,0,240,0.0,60.0
688,86.0,240,190,0.0,61.0
689,52.0,0,1920,3.0,76.0
690,64.0,0,240,2.0,56.0
691,85.0,0,240,0.0,62.0
692,86.0,240,190,0.0,63.0
693,64.0,0,240,2.0,58.0
694,59.0,240,240,2.0,58.0
695,62.0,0,240,2.0,58.0
696,83.0,0,310,0.0,62.0
697,64.0,240,240,2.0,59.0
698,65.0,240,240,2.0,59.0
699,64.0,240,240,2.0,60.0
700,62.0,0,240,2.0,60.0
701,59.0,240,240,2.0,60.0
702,89.0,0,240,0.0,67.0
703,86.0,0,190,0.0,68.0
704,52.0,240,1920,3.0,80.0
705,64.0,240,240,2.0,61.0
706,83.0,0,240,0.0,69.0
707,59.0,0,310,2.0,61.0
708,62.0,240,310,2.0,61.0
709,86.0,240,190,0.0,70.0
710,80.0,240,240,0.0,71.0
711,83.0,240,190,0.0,72.0
712,77.0,240,240,0.0,73.0
713,80.0,240,190,0.0,73.0
714,74.0,240,240,0.0,74.0
715,77.0,240,190,0.0,75.0
716,71.0,240,240,0.0,76.0
717,74.0,240,190,0.0,77.0
718,68.0,240,240,0.0,78.0
719,71.0,240,190,0.0,79.0
720,65.0,240,240,0.0,80.0
721,68.0,240,190,0.0,81.0
722,62.0,240,240,0.0,81.0
723,65.0,240,190,0.0,82.0
724,59.0,240,240,0.0,83.0
725,52.0,0,4270,3.0,89.0
726,62.0,240,190,0.0,84.0
727,44.0,240,240,3.0,75.0
728,56.0,0,240,0.0,85.0
729,47.0,240,240,3.0,75.0
730,59.0,0,240,0.0,86.0
731,38.0,0,240,3.0,76.0
732,50.0,240,240,0.0,87.0
733,47.0,0,240,3.0,77.0
734,59.0,240,240,0.0,88.0
735,44.0,240,240,3.0,78.0
736,56.0,0,240,0.0,89.0
737,50.0,240,240,0.0,89.0
738,38.0,0,240,3.0,79.0
739,48.0,240,190,0.0,90.0
740,36.0,0,190,3.0,80.0
741,48.0,480,190,1.0,86.0
742,45.0,0,190,3.0,82.0
743,52.0,0,190,1.0,86.0
744,36.0,0,190,2.0,82.0
745,40.0,0,190,2.0,82.0
746,57.0,0,190,0.0,92.0
747,46.0,0,1905,3.0,92.0
748,58.0,0,1920,0.0,96.0
749,57.0,1920,480,0.0,81.0
750,45.0,0,480,3.0,81.0
751,38.0,480,2765,2.0,92.0
752,41.0,0,2775,2.0,92.0
753,53.0,0,2865,1.0,92.0
754,50.0,0,2870,1.0,92.0
755,44.0,480,480,3.0,79.0
756,56.0,0,480,0.0,79.0
757,52.0,0,190,1.0,76.0
758,36.0,480,190,2.0,76.0
759,40.0,0,190,2.0,76.0
760,45.0,0,190,3.0,76.0
761,57.0,0,190,0.0,76.0
762,48.0,0,190,1.0,76.0
763,60.0,0,190,1.0,80.0
764,64.0,0,190,1.0,80.0
765,69.0,480,190,0.0,80.0
766,57.0,0,190,3.0,80.0
767,52.0,0,190,2.0,80.0
768,48.0,0,190,2.0,80.0
769,70.0,0,1905,0.0,89.0
770,58.0,0,1920,3.0,92.0
771,57.0,1920,480,3.0,82.0
772,69.0,0,480,0.0,82.0
773,65.0,480,2820,1.0,89.0
774,62.0,0,2820,1.0,89.0
775,53.0,0,2865,2.0,89.0
776,50.0,0,2865,2.0,89.0
777,56.0,0,480,3.0,80.0
778,68.0,480,480,0.0,80.0
779,60.0,480,190,1.0,78.0
780,57.0,0,190,3.0,78.0
781,64.0,0,190,1.0,78.0
782,52.0,0,190,2.0,78.0
783,48.0,0,190,2.0,78.0
784,69.0,0,190,0.0,78.0
785,81.0,480,190,0.0,84.0
786,69.0,0,190,1.0,84.0
787,60.0,0,190,3.0,84.0
788,64.0,0,190,3.0,84.0
789,70.0,480,1430,1.0,95.0
790,82.0,0,1440,0.0,95.0
791,65.0,0,1440,3.0,95.0
792,62.0,0,1440,3.0,95.0
793,71.0,0,190,1.0,92.0
794,63.0,0,190,3.0,94.0
795,66.0,0,190,3.0,94.0
796,83.0,1440,190,0.0,92.0
797,64.0,0,0,3.0,96.0
798,69.0,1440,0,3.0,96.0
799,84.0,0,1440,0.0,100.0
800,72.0,0,1440,1.0,100.0
801,73.0,0,480,1.0,91.0
802,85.0,0,480,0.0,91.0
803,74.0,0,480,1.0,85.0
804,65.0,480,480,3.0,89.0
805,86.0,0,480,0.0,85.0
806,76.0,0,480,1.0,79.0
807,88.0,0,480,0.0,79.0
808,61.0,480,480,3.0,83.0
809,77.0,480,480,1.0,74.0
810,62.0,480,0,3.0,70.0
811,89.0,0,480,0.0,74.0
812,50.0,0,480,3.0,70.0
813,58.0,0,480,3.0,70.0
814,60.0,480,480,3.0,66.0
815,57.0,0,480,3.0,66.0
816,65.0,0,960,1.0,68.0
817,77.0,0,960,0.0,68.0
818,64.0,0,480,1.0,64.0
819,52.0,0,960,3.0,66.0
820,59.0,480,480,3.0,62.0
821,76.0,0,480,0.0,64.0
822,56.0,0,480,3.0,62.0
823,57.0,480,310,3.0,59.0
824,45.0,0,310,3.0,59.0
825,69.0,0,310,0.0,61.0
826,33.0,480,310,3.0,62.0
827,64.0,0,310,0.0,55.0
828,61.0,480,310,1.0,55.0
829,62.0,0,310,1.0,58.0
830,65.0,480,310,0.0,58.0
831,34.0,480,1920,3.0,75.0
832,74.0,480,0,0.0,58.0
833,33.0,480,480,3.0,62.0
834,65.0,0,960,1.0,72.0
835,65.0,0,310,1.0,58.0
836,32.0,0,480,3.0,61.0
837,33.0,0,310,3.0,59.0
838,64.0,480,310,1.0,55.0
839,73.0,0,310,0.0,55.0
840,33.0,480,310,3.0,71.0
841,61.0,0,310,1.0,62.0
842,64.0,480,310,0.0,62.0
843,62.0,480,310,1.0,67.0
844,65.0,0,310,0.0,67.0
845,34.0,480,1920,3.0,81.0
846,74.0,480,960,1.0,79.0
847,77.0,480,0,0.0,64.0
848,33.0,480,480,3.0,68.0
849,74.0,0,310,1.0,64.0
850,32.0,0,480,3.0,66.0
851,76.0,480,310,0.0,61.0
852,33.0,0,310,3.0,63.0
853,73.0,0,310,1.0,61.0
854,33.0,480,310,3.0,77.0
855,64.0,480,310,0.0,76.0
856,61.0,0,310,1.0,70.0
857,65.0,480,310,0.0,80.0
858,62.0,0,310,1.0,75.0
859,34.0,480,1920,3.0,88.0
860,74.0,480,960,0.0,89.0
861,77.0,0,960,0.0,89.0
862,33.0,480,480,3.0,89.0
863,32.0,0,480,3.0,93.0
864,31.0,480,240,3.0,67.0
865,77.0,0,960,1.0,89.0
866,30.0,240,240,3.0,66.0
867,89.0,0,985,0.0,89.0
868,86.0,480,985,1.0,89.0
869,31.0,240,240,3.0,65.0
870,33.0,240,240,3.0,65.0
871,35.0,240,240,3.0,64.0
872,31.0,240,240,3.0,64.0
873,33.0,0,240,3.0,63.0
874,77.0,240,480,0.0,66.0
875,35.0,240,240,3.0,62.0
876,74.0,0,480,1.0,66.0
877,36.0,0,240,3.0,62.0
878,76.0,0,480,0.0,59.0
879,72.0,240,480,1.0,59.0
880,35.0,240,240,3.0,61.0
881,36.0,240,240,3.0,61.0
882,38.0,240,240,3.0,60.0
883,40.0,240,240,3.0,59.0
884,39.0,240,240,3.0,59.0
885,40.0,240,240,3.0,58.0
886,84.0,0,480,1.0,61.0
887,88.0,0,480,0.0,61.0
888,39.0,240,240,3.0,58.0
889,40.0,0,240,3.0,57.0
890,39.0,240,240,3.0,56.0
891,83.0,0,480,1.0,55.0
892,86.0,240,480,0.0,55.0
893,40.0,240,240,3.0,56.0
894,42.0,240,240,3.0,55.0
895,44.0,240,240,3.0,55.0
896,40.0,240,240,3.0,54.0
897,42.0,0,240,3.0,53.0
898,44.0,240,240,3.0,53.0
899,74.0,0,480,0.0,58.0
900,71.0,240,480,1.0,58.0
901,45.0,240,240,3.0,52.0
902,72.0,0,480,0.0,53.0
903,69.0,0,480,1.0,53.0
904,44.0,240,240,3.0,53.0
905,45.0,240,240,3.0,55.0
906,47.0,240,240,3.0,57.0
907,48.0,240,240,3.0,58.0
908,45.0,240,240,3.0,60.0
909,47.0,240,240,3.0,62.0
910,48.0,240,240,3.0,63.0
911,84.0,0,480,0.0,66.0
912,50.0,240,240,3.0,65.0
913,81.0,0,960,1.0,66.0
914,49.0,240,240,3.0,67.0
915,83.0,0,480,0.0,62.0
916,50.0,240,240,3.0,68.0
917,52.0,240,240,3.0,70.0
918,53.0,240,240,3.0,72.0
919,50.0,240,240,3.0,73.0
920,52.0,240,240,3.0,75.0
921,69.0,0,480,1.0,78.0
922,53.0,240,240,3.0,77.0
923,52.0,0,240,3.0,79.0
924,68.0,240,480,1.0,75.0
925,71.0,0,960,0.0,78.0
926,63.0,240,240,3.0,79.0
927,64.0,240,240,3.0,82.0
928,63.0,240,240,3.0,79.0
929,64.0,240,240,3.0,76.0
930,63.0,240,240,3.0,73.0
931,64.0,240,240,3.0,70.0
932,80.0,0,480,0.0,68.0
933,52.0,0,0,3.0,76.0
934,81.0,240,240,0.0,65.0
935,76.0,240,240,0.0,65.0
936,72.0,240,240,0.0,64.0
937,60.0,0,960,3.0,71.0
938,64.0,0,960,3.0,71.0
939,84.0,240,240,0.0,64.0
940,83.0,0,240,0.0,63.0
941,80.0,240,240,0.0,63.0
942,76.0,240,240,0.0,62.0
943,62.0,240,960,3.0,70.0
944,59.0,0,960,3.0,70.0
945,86.0,240,240,0.0,62.0
946,84.0,240,240,0.0,61.0
947,81.0,240,240,0.0,61.0
948,76.0,240,240,0.0,60.0
949,88.0,240,240,0.0,69.0
950,57.0,0,960,3.0,69.0
951,60.0,0,960,3.0,69.0
952,87.0,0,240,0.0,66.0
953,88.0,240,240,0.0,63.0
954,87.0,240,240,0.0,61.0
955,88.0,240,240,0.0,59.0
956,56.0,240,960,3.0,68.0
957,59.0,0,960,3.0,68.0
958,57.0,0,240,3.0,61.0
959,52.0,240,240,3.0,61.0
960,48.0,240,240,3.0,61.0
961,84.0,0,960,1.0,68.0
962,76.0,240,960,1.0,68.0
963,57.0,240,240,3.0,60.0
964,88.0,0,960,0.0,68.0
965,59.0,0,240,3.0,60.0
966,56.0,240,240,3.0,59.0
967,52.0,240,240,3.0,59.0
968,86.0,0,960,0.0,67.0
969,83.0,240,960,1.0,67.0
970,59.0,240,240,3.0,59.0
971,74.0,0,960,1.0,67.0
972,60.0,0,240,3.0,58.0
973,57.0,240,240,3.0,58.0
974,52.0,240,240,3.0,58.0
975,84.0,0,960,0.0,66.0
976,64.0,240,240,3.0,65.0
977,72.0,0,960,1.0,66.0
978,81.0,240,960,1.0,66.0
979,63.0,0,240,3.0,63.0
980,64.0,240,240,3.0,61.0
981,63.0,240,240,3.0,59.0
982,83.0,240,960,0.0,65.0
983,64.0,240,240,3.0,57.0
984,71.0,0,960,1.0,65.0
985,80.0,0,960,1.0,65.0
986,81.0,0,240,0.0,59.0
987,76.0,240,240,0.0,59.0
988,72.0,0,240,0.0,58.0
989,52.0,240,960,3.0,72.0
990,84.0,240,240,0.0,58.0
991,83.0,0,240,0.0,58.0
992,80.0,240,240,0.0,57.0
993,60.0,240,960,3.0,66.0
994,64.0,0,960,3.0,66.0
995,76.0,240,240,0.0,57.0
996,52.0,240,0,3.0,68.0
997,86.0,240,240,0.0,57.0
998,84.0,0,240,0.0,56.0
999,59.0,0,960,3.0,64.0
1000,62.0,0,960,3.0,64.0
1001,81.0,240,240,0.0,56.0
1002,76.0,0,240,0.0,56.0
1003,88.0,240,240,0.0,63.0
1004,87.0,240,240,0.0,61.0
1005,60.0,0,960,3.0,62.0
1006,57.0,240,960,3.0,62.0
1007,88.0,240,240,0.0,59.0
1008,87.0,240,240,0.0,58.0
1009,52.0,0,960,3.0,66.0
1010,59.0,0,480,3.0,60.0
1011,56.0,0,480,3.0,60.0
1012,88.0,240,240,0.0,56.0
1013,57.0,240,240,3.0,55.0
1014,52.0,240,240,3.0,55.0
1015,48.0,0,240,3.0,54.0
1016,57.0,240,240,3.0,54.0
1017,59.0,240,240,3.0,54.0
1018,84.0,0,960,1.0,60.0
1019,76.0,0,1440,1.0,60.0
1020,88.0,240,960,0.0,60.0
1021,56.0,240,240,3.0,53.0
1022,52.0,0,240,3.0,53.0
1023,59.0,240,240,3.0,53.0
1024,60.0,240,240,3.0,52.0
1025,83.0,240,960,1.0,59.0
1026,57.0,240,240,3.0,52.0
1027,86.0,0,960,0.0,59.0
1028,74.0,0,960,1.0,59.0
1029,52.0,240,240,3.0,51.0
1030,64.0,240,240,3.0,59.0
1031,63.0,240,240,3.0,57.0
1032,81.0,0,960,1.0,58.0
1033,64.0,240,240,3.0,54.0
1034,72.0,0,960,1.0,58.0
1035,84.0,0,960,0.0,58.0
1036,63.0,240,240,3.0,52.0
1037,83.0,0,480,0.0,57.0
1038,64.0,240,240,3.0,49.0
1039,71.0,0,480,1.0,57.0
1040,80.0,0,480,1.0,57.0
1041,81.0,240,240,0.0,53.0
1042,76.0,240,240,0.0,53.0
1043,72.0,0,240,0.0,53.0
1044,52.0,0,960,3.0,65.0
1045,84.0,240,240,0.0,52.0
1046,83.0,240,240,0.0,52.0
1047,64.0,0,960,3.0,59.0
1048,80.0,240,240,0.0,52.0
1049,60.0,240,960,3.0,59.0
1050,76.0,0,240,0.0,51.0
1051,52.0,0,960,3.0,63.0
1052,86.0,240,240,0.0,51.0
1053,84.0,240,240,0.0,50.0
1054,62.0,240,960,3.0,58.0
1055,59.0,0,960,3.0,58.0
1056,81.0,240,240,0.0,50.0
1057,76.0,0,240,0.0,50.0
1058,52.0,0,0,3.0,61.0
1059,88.0,240,240,0.0,55.0
1060,87.0,240,240,0.0,52.0
1061,57.0,0,960,3.0,57.0
1062,60.0,240,960,3.0,57.0
1063,88.0,240,240,0.0,50.0
1064,87.0,0,240,0.0,47.0
1065,56.0,0,480,3.0,55.0
1066,59.0,240,480,3.0,55.0
1067,88.0,240,240,0.0,45.0
1068,84.0,240,240,0.0,48.0
1069,81.0,240,240,0.0,47.0
1070,76.0,240,240,0.0,47.0
1071,57.0,0,480,3.0,54.0
1072,88.0,240,240,0.0,51.0
1073,45.0,0,960,3.0,60.0
1074,87.0,0,240,0.0,49.0
1075,88.0,240,240,0.0,47.0
1076,87.0,0,240,0.0,45.0
1077,56.0,0,480,3.0,53.0
1078,59.0,240,480,3.0,53.0
1079,52.0,240,960,3.0,60.0
1080,88.0,240,240,0.0,43.0
1081,84.0,0,240,0.0,45.0
1082,81.0,240,240,0.0,45.0
1083,76.0,240,240,0.0,51.0
1084,88.0,240,240,0.0,49.0
1085,60.0,0,480,3.0,52.0
1086,57.0,240,960,3.0,61.0
1087,87.0,240,240,0.0,47.0
1088,88.0,240,240,0.0,46.0
1089,87.0,0,240,0.0,44.0
1090,52.0,0,960,3.0,58.0
1091,88.0,240,240,0.0,42.0
1092,56.0,240,480,3.0,51.0
1093,59.0,0,480,3.0,51.0
1094,57.0,0,720,3.0,50.0
1095,81.0,240,720,0.0,40.0
1096,45.0,0,720,3.0,55.0
1097,57.0,0,770,0.0,52.0
1098,45.0,960,770,2.0,52.0
1099,33.0,0,770,3.0,52.0
1100,45.0,960,770,2.0,59.0
1101,33.0,0,770,3.0,59.0
1102,57.0,0,770,0.0,59.0
1103,33.0,0,770,3.0,66.0
1104,57.0,0,770,0.0,66.0
1105,45.0,960,770,2.0,66.0
1106,57.0,0,3840,0.0,79.0
1107,45.0,960,3840,2.0,79.0
1108,33.0,0,3840,3.0,79.0
1109,43.0,0,3840,2.0,58.0
1110,55.0,0,3840,0.0,58.0
1111,31.0,3840,3840,3.0,58.0
1112,30.0,3840,80,3.0,45.0
1113,33.0,80,80,3.0,45.0
1114,38.0,80,80,3.0,45.0
1115,42.0,80,80,3.0,45.0
1116,45.0,80,80,3.0,45.0
1117,50.0,80,80,3.0,44.0
1118,54.0,80,80,3.0,44.0
1119,57.0,80,80,3.0,44.0
1120,62.0,80,318,0.0,41.0
1121,66.0,320,480,0.0,40.0
1122,69.0,480,480,0.0,38.0
1123,74.0,480,1440,0.0,36.0
1124,36.0,1680,80,3.0,39.0
1125,39.0,80,80,3.0,39.0
1126,42.0,80,80,3.0,39.0
1127,45.0,80,80,3.0,39.0
1128,48.0,80,80,3.0,39.0
1129,51.0,80,80,3.0,39.0
1130,54.0,80,80,3.0,39.0
1131,57.0,80,80,3.0,38.0
1132,60.0,80,80,3.0,38.0
1133,63.0,80,80,3.0,38.0
1134,66.0,80,403,0.0,37.0
1135,69.0,400,480,0.0,35.0
1136,75.0,480,480,0.0,32.0
1137,78.0,480,1440,0.0,30.0
1138,37.0,1920,80,3.0,33.0
1139,42.0,80,80,3.0,33.0
1140,46.0,80,80,3.0,33.0
1141,49.0,80,80,3.0,32.0
1142,54.0,80,80,3.0,32.0
1143,58.0,80,80,3.0,32.0
1144,61.0,80,80,3.0,32.0
1145,66.0,80,80,3.0,32.0
1146,70.0,80,318,0.0,33.0
1147,73.0,320,480,0.0,32.0
1148,78.0,480,480,0.0,30.0
1149,82.0,480,1440,0.0,28.0
1150,57.0,0,160,2.0,82.0
1151,54.0,1920,160,2.0,82.0
1152,61.0,160,160,2.0,80.0
1153,54.0,0,160,2.0,78.0
1154,57.0,160,160,2.0,78.0
1155,61.0,160,160,2.0,76.0
1156,54.0,0,160,2.0,74.0
1157,57.0,160,160,2.0,74.0
1158,30.0,0,960,3.0,101.0
1159,61.0,160,160,2.0,72.0
1160,57.0,0,160,2.0,70.0
1161,54.0,160,160,2.0,70.0
1162,33.0,0,310,3.0,97.0
1163,61.0,160,160,2.0,68.0
1164,57.0,0,160,2.0,66.0
1165,54.0,160,160,2.0,66.0
1166,61.0,0,160,2.0,64.0
1167,37.0,160,310,3.0,96.0
1168,57.0,160,160,2.0,62.0
1169,54.0,0,160,2.0,62.0
1170,61.0,160,160,2.0,60.0
1171,57.0,0,160,2.0,58.0
1172,54.0,0,160,2.0,58.0
1173,61.0,160,160,2.0,56.0
1174,54.0,160,160,2.0,54.0
1175,57.0,0,160,2.0,54.0
1176,61.0,160,160,2.0,52.0
1177,57.0,0,160,2.0,50.0
1178,54.0,160,160,2.0,50.0
1179,61.0,160,160,2.0,48.0
1180,57.0,0,160,2.0,46.0
1181,54.0,160,160,2.0,46.0
1182,61.0,160,160,2.0,44.0
1183,57.0,0,160,2.0,42.0
1184,54.0,160,160,2.0,42.0
1185,61.0,0,160,2.0,42.0
1186,57.0,0,160,2.0,42.0
1187,54.0,160,160,2.0,42.0
1188,73.0,160,480,0.0,63.0
1189,61.0,160,160,2.0,42.0
1190,57.0,0,160,2.0,42.0
1191,54.0,0,160,2.0,42.0
1192,61.0,160,160,2.0,42.0
1193,72.0,160,480,0.0,63.0
1194,54.0,160,160,2.0,43.0
1195,57.0,0,160,2.0,43.0
1196,61.0,160,160,2.0,43.0
1197,54.0,160,160,2.0,43.0
1198,57.0,0,160,2.0,43.0
1199,61.0,160,160,2.0,43.0
1200,73.0,0,480,0.0,64.0
1201,54.0,0,160,2.0,43.0
1202,57.0,0,160,2.0,43.0
1203,61.0,160,160,2.0,43.0
1204,57.0,160,160,2.0,44.0
1205,74.0,160,480,0.0,64.0
1206,54.0,0,160,2.0,44.0
1207,61.0,160,160,2.0,44.0
1208,57.0,0,160,2.0,44.0
1209,54.0,160,160,2.0,44.0
1210,61.0,160,160,2.0,44.0
1211,73.0,0,480,0.0,65.0
1212,57.0,0,160,2.0,44.0
1213,54.0,160,160,2.0,44.0
1214,61.0,160,160,2.0,44.0
1215,54.0,160,160,2.0,45.0
1216,57.0,0,160,2.0,45.0
1217,61.0,160,160,2.0,45.0
1218,54.0,0,160,2.0,45.0
1219,57.0,160,160,2.0,45.0
1220,61.0,160,160,2.0,45.0
1221,73.0,160,0,0.0,61.0
1222,57.0,0,160,2.0,45.0
1223,54.0,0,160,2.0,45.0
1224,61.0,160,160,2.0,45.0
1225,57.0,0,160,2.0,46.0
1226,54.0,160,160,2.0,46.0
1227,61.0,160,160,2.0,46.0
1228,57.0,160,160,2.0,46.0
1229,54.0,0,160,2.0,46.0
1230,42.0,160,5712,3.0,95.0
1231,61.0,160,160,2.0,46.0
1232,59.0,0,160,2.0,46.0
1233,53.0,0,160,2.0,46.0
1234,61.0,160,160,2.0,46.0
1235,53.0,0,160,2.0,47.0
1236,59.0,160,160,2.0,47.0
1237,61.0,160,160,2.0,47.0
1238,53.0,0,160,2.0,47.0
1239,59.0,160,160,2.0,47.0
1240,32.0,160,960,3.0,95.0
1241,61.0,160,160,2.0,47.0
1242,59.0,0,160,2.0,47.0
1243,53.0,160,160,2.0,47.0
1244,35.0,0,310,3.0,89.0
1245,61.0,160,160,2.0,47.0
1246,59.0,160,160,2.0,48.0
1247,53.0,0,160,2.0,48.0
1248,61.0,0,160,2.0,48.0
1249,41.0,160,310,3.0,89.0
1250,53.0,0,160,2.0,48.0
1251,59.0,160,160,2.0,48.0
1252,61.0,160,160,2.0,48.0
1253,53.0,0,160,2.0,48.0
1254,59.0,0,160,2.0,48.0
1255,61.0,160,160,2.0,49.0
1256,53.0,0,160,2.0,49.0
1257,59.0,160,160,2.0,49.0
1258,61.0,160,160,2.0,49.0
1259,53.0,0,160,2.0,49.0
1260,59.0,160,160,2.0,49.0
1261,61.0,160,160,2.0,49.0
1262,59.0,0,160,2.0,49.0
1263,53.0,160,160,2.0,49.0
1264,61.0,160,160,2.0,50.0
1265,59.0,0,160,2.0,50.0
1266,53.0,160,160,2.0,50.0
1267,61.0,0,160,2.0,50.0
1268,59.0,0,160,2.0,50.0
1269,53.0,160,160,2.0,50.0
1270,73.0,160,480,0.0,71.0
1271,61.0,160,160,2.0,50.0
1272,53.0,160,160,2.0,50.0
1273,59.0,0,160,2.0,50.0
1274,61.0,160,160,2.0,51.0
1275,59.0,0,160,2.0,51.0
1276,53.0,160,160,2.0,51.0
1277,72.0,0,480,0.0,71.0
1278,61.0,0,160,2.0,51.0
1279,59.0,0,160,2.0,51.0
1280,53.0,160,160,2.0,51.0
1281,73.0,160,480,0.0,72.0
1282,61.0,160,160,2.0,51.0
1283,59.0,0,160,2.0,51.0
1284,53.0,160,160,2.0,51.0
1285,61.0,160,160,2.0,52.0
1286,59.0,0,160,2.0,52.0
1287,53.0,160,160,2.0,52.0
1288,74.0,0,480,0.0,72.0
1289,61.0,160,160,2.0,52.0
1290,59.0,160,160,2.0,52.0
1291,53.0,0,160,2.0,52.0
1292,73.0,0,480,0.0,73.0
1293,61.0,160,160,2.0,52.0
1294,59.0,0,160,2.0,52.0
1295,53.0,160,160,2.0,52.0
1296,61.0,160,160,2.0,53.0
1297,59.0,0,160,2.0,53.0
1298,53.0,160,160,2.0,53.0
1299,61.0,160,160,2.0,53.0
1300,53.0,160,160,2.0,53.0
1301,59.0,0,160,2.0,53.0
1302,73.0,160,0,0.0,70.0
1303,61.0,160,160,2.0,53.0
1304,53.0,0,160,2.0,54.0
1305,59.0,0,160,2.0,54.0
1306,61.0,160,160,2.0,54.0
1307,53.0,0,160,2.0,54.0
1308,59.0,160,160,2.0,54.0
1309,61.0,160,160,2.0,54.0
1310,59.0,0,160,2.0,54.0
1311,53.0,160,160,2.0,54.0
1312,44.0,160,5646,3.0,88.0
1313,61.0,160,160,2.0,54.0
1314,54.0,0,160,2.0,55.0
1315,57.0,0,160,2.0,55.0
1316,61.0,160,160,2.0,55.0
1317,54.0,160,160,2.0,55.0
1318,57.0,0,160,2.0,55.0
1319,61.0,160,160,2.0,55.0
1320,54.0,160,160,2.0,55.0
1321,33.0,160,960,3.0,93.0
1322,61.0,0,160,2.0,55.0
1323,57.0,160,160,2.0,55.0
1324,54.0,0,160,2.0,56.0
1325,37.0,160,310,3.0,91.0
1326,57.0,0,160,2.0,56.0
1327,61.0,160,160,2.0,56.0
1328,54.0,160,160,2.0,56.0
1329,61.0,0,160,2.0,56.0
1330,57.0,0,160,2.0,56.0
1331,42.0,160,310,3.0,90.0
1332,54.0,160,160,2.0,56.0
1333,57.0,0,160,2.0,56.0
1334,61.0,160,160,2.0,56.0
1335,54.0,160,160,2.0,57.0
1336,61.0,160,160,2.0,57.0
1337,57.0,0,160,2.0,57.0
1338,54.0,160,160,2.0,57.0
1339,61.0,0,160,2.0,57.0
1340,57.0,160,160,2.0,57.0
1341,54.0,160,160,2.0,57.0
1342,61.0,0,160,2.0,57.0
1343,57.0,160,160,2.0,57.0
1344,54.0,160,160,2.0,58.0
1345,61.0,0,160,2.0,58.0
1346,57.0,160,160,2.0,58.0
1347,54.0,160,160,2.0,58.0
1348,57.0,160,160,2.0,58.0
1349,61.0,0,160,2.0,58.0
1350,54.0,160,160,2.0,58.0
1351,45.0,0,1862,3.0,89.0
1352,61.0,160,160,2.0,58.0
1353,57.0,0,160,2.0,58.0
1354,54.0,0,160,2.0,59.0
1355,59.0,0,160,2.0,59.0
1356,62.0,160,160,2.0,59.0
1357,54.0,160,160,2.0,59.0
1358,59.0,0,160,2.0,59.0
1359,62.0,160,160,2.0,59.0
1360,54.0,160,160,2.0,59.0
1361,35.0,160,960,3.0,95.0
1362,59.0,0,160,2.0,60.0
1363,62.0,160,160,2.0,60.0
1364,54.0,160,160,2.0,60.0
1365,38.0,0,310,3.0,93.0
1366,62.0,160,160,2.0,60.0
1367,59.0,0,160,2.0,60.0
1368,54.0,160,160,2.0,60.0
1369,59.0,0,160,2.0,60.0
1370,62.0,0,160,2.0,60.0
1371,42.0,160,310,3.0,91.0
1372,54.0,160,160,2.0,60.0
1373,78.0,0,2770,0.0,89.0
1374,59.0,160,160,2.0,61.0
1375,62.0,0,160,2.0,61.0
1376,54.0,160,160,2.0,61.0
1377,59.0,0,160,2.0,61.0
1378,62.0,160,160,2.0,61.0
1379,54.0,160,160,2.0,61.0
1380,62.0,0,160,2.0,61.0
1381,59.0,160,160,2.0,61.0
1382,54.0,160,160,2.0,61.0
1383,59.0,0,160,2.0,62.0
1384,62.0,160,160,2.0,62.0
1385,54.0,0,160,2.0,62.0
1386,59.0,160,160,2.0,62.0
1387,62.0,0,160,2.0,62.0
1388,54.0,160,160,2.0,62.0
1389,62.0,160,160,2.0,62.0
1390,59.0,0,160,2.0,62.0
1391,54.0,160,160,2.0,62.0
1392,47.0,0,1862,3.0,90.0
1393,59.0,0,160,2.0,63.0
1394,62.0,160,160,2.0,63.0
1395,55.0,160,160,2.0,63.0
1396,62.0,0,160,2.0,63.0
1397,59.0,160,160,2.0,63.0
1398,55.0,160,160,2.0,63.0
1399,62.0,0,160,2.0,63.0
1400,59.0,160,160,2.0,63.0
1401,55.0,160,160,2.0,63.0
1402,62.0,0,160,2.0,64.0
1403,59.0,160,160,2.0,64.0
1404,35.0,0,960,3.0,99.0
1405,55.0,0,160,2.0,64.0
1406,38.0,160,310,3.0,95.0
1407,62.0,0,160,2.0,64.0
1408,59.0,160,160,2.0,64.0
1409,55.0,160,160,2.0,64.0
1410,62.0,0,160,2.0,64.0
1411,59.0,0,160,2.0,64.0
1412,43.0,160,310,3.0,95.0
1413,55.0,160,160,2.0,64.0
1414,78.0,160,2770,0.0,96.0
1415,62.0,0,160,2.0,65.0
1416,59.0,160,160,2.0,65.0
1417,55.0,0,160,2.0,65.0
1418,62.0,160,160,2.0,65.0
1419,59.0,0,160,2.0,65.0
1420,55.0,160,160,2.0,65.0
1421,59.0,0,160,2.0,65.0
1422,62.0,160,160,2.0,65.0
1423,55.0,160,160,2.0,66.0
1424,62.0,0,160,2.0,66.0
1425,59.0,160,160,2.0,66.0
1426,55.0,160,160,2.0,66.0
1427,62.0,160,160,2.0,66.0
1428,59.0,0,160,2.0,66.0
1429,55.0,160,160,2.0,66.0
1430,59.0,160,160,2.0,66.0
1431,62.0,0,160,2.0,66.0
1432,55.0,160,160,2.0,67.0
1433,47.0,160,1862,3.0,94.0
1434,62.0,160,160,2.0,67.0
1435,59.0,0,160,2.0,67.0
1436,55.0,160,160,2.0,67.0
1437,64.0,0,160,2.0,67.0
1438,60.0,160,160,2.0,67.0
1439,55.0,160,160,2.0,67.0
1440,60.0,0,160,2.0,67.0
1441,64.0,160,160,2.0,67.0
1442,55.0,160,160,2.0,68.0
1443,60.0,0,160,2.0,68.0
1444,64.0,160,160,2.0,68.0
1445,36.0,0,960,3.0,106.0
1446,55.0,0,160,2.0,68.0
1447,40.0,160,310,3.0,105.0
1448,64.0,0,160,2.0,68.0
1449,60.0,160,160,2.0,68.0
1450,55.0,160,160,2.0,68.0
1451,64.0,160,160,2.0,68.0
1452,60.0,0,160,2.0,68.0
1453,43.0,0,310,3.0,103.0
1454,55.0,160,160,2.0,69.0
1455,79.0,0,2770,0.0,103.0
1456,60.0,0,160,2.0,69.0
1457,64.0,160,160,2.0,69.0
1458,55.0,160,160,2.0,69.0
1459,60.0,160,160,2.0,69.0
1460,64.0,0,160,2.0,69.0
1461,55.0,160,160,2.0,69.0
1462,60.0,0,160,2.0,69.0
1463,64.0,160,160,2.0,69.0
1464,55.0,160,160,2.0,70.0
1465,60.0,160,160,2.0,70.0
1466,64.0,0,160,2.0,70.0
1467,55.0,160,160,2.0,70.0
1468,60.0,0,160,2.0,70.0
1469,64.0,160,160,2.0,70.0
1470,55.0,160,160,2.0,70.0
1471,60.0,160,160,2.0,70.0
1472,64.0,0,160,2.0,70.0
1473,55.0,160,160,2.0,71.0
1474,48.0,0,1862,3.0,102.0
1475,64.0,160,160,2.0,71.0
1476,60.0,0,160,2.0,71.0
1477,57.0,0,160,2.0,71.0
1478,64.0,0,160,2.0,71.0
1479,61.0,160,160,2.0,71.0
1480,57.0,160,160,2.0,71.0
1481,64.0,0,160,2.0,72.0
1482,61.0,160,160,2.0,72.0
1483,57.0,160,160,2.0,72.0
1484,61.0,0,160,2.0,72.0
1485,37.0,160,960,3.0,112.0
1486,64.0,160,160,2.0,72.0
1487,57.0,0,160,2.0,72.0
1488,40.0,160,310,3.0,107.0
1489,61.0,0,160,2.0,72.0
1490,64.0,160,160,2.0,72.0
1491,57.0,160,160,2.0,72.0
1492,64.0,0,160,2.0,73.0
1493,61.0,0,160,2.0,73.0
1494,45.0,160,310,3.0,106.0
1495,57.0,160,160,2.0,73.0
1496,79.0,0,2770,0.0,106.0
1497,64.0,160,160,2.0,73.0
1498,61.0,0,160,2.0,73.0
1499,57.0,0,160,2.0,73.0
1500,61.0,160,160,2.0,73.0
1501,64.0,0,160,2.0,73.0
1502,57.0,160,160,2.0,73.0
1503,61.0,0,160,2.0,74.0
1504,64.0,160,160,2.0,74.0
1505,57.0,160,160,2.0,74.0
1506,64.0,0,160,2.0,74.0
1507,61.0,160,160,2.0,74.0
1508,57.0,0,160,2.0,74.0
1509,61.0,0,160,2.0,74.0
1510,64.0,160,160,2.0,74.0
1511,57.0,160,160,2.0,74.0
1512,64.0,160,160,2.0,75.0
1513,61.0,0,160,2.0,75.0
1514,57.0,160,160,2.0,75.0
1515,49.0,160,1884,3.0,104.0
1516,61.0,0,160,2.0,75.0
1517,64.0,160,160,2.0,75.0
1518,57.0,160,160,2.0,75.0
1519,65.0,0,160,2.0,75.0
1520,62.0,160,160,2.0,75.0
1521,57.0,160,160,2.0,75.0
1522,62.0,0,160,2.0,76.0
1523,65.0,160,160,2.0,76.0
1524,57.0,160,160,2.0,76.0
1525,38.0,0,960,3.0,119.0
1526,65.0,0,160,2.0,76.0
1527,62.0,160,160,2.0,76.0
1528,57.0,160,160,2.0,76.0
1529,41.0,0,310,3.0,117.0
1530,62.0,0,160,2.0,76.0
1531,65.0,160,160,2.0,76.0
1532,57.0,160,160,2.0,76.0
1533,65.0,160,160,2.0,77.0
1534,62.0,0,160,2.0,77.0
1535,45.0,0,310,3.0,116.0
1536,57.0,160,160,2.0,77.0
1537,81.0,160,2770,0.0,111.0
1538,65.0,160,160,2.0,77.0
1539,62.0,0,160,2.0,77.0
1540,57.0,0,160,2.0,77.0
1541,62.0,0,160,2.0,77.0
1542,65.0,160,160,2.0,77.0
1543,57.0,160,160,2.0,78.0
1544,62.0,160,160,2.0,78.0
1545,65.0,0,160,2.0,78.0
1546,57.0,160,160,2.0,78.0
1547,65.0,0,160,2.0,78.0
1548,62.0,160,160,2.0,78.0
1549,57.0,0,160,2.0,78.0
1550,65.0,0,160,2.0,78.0
1551,62.0,160,160,2.0,78.0
1552,57.0,160,160,2.0,79.0
1553,62.0,0,160,2.0,79.0
1554,65.0,160,160,2.0,79.0
1555,57.0,160,160,2.0,79.0
1556,81.0,160,884,0.0,114.0
1557,50.0,160,1884,3.0,114.0
1558,65.0,0,160,2.0,79.0
1559,62.0,160,160,2.0,79.0
1560,62.0,160,160,2.0,79.0
1561,59.0,160,160,2.0,80.0
1562,62.0,160,160,2.0,80.0
1563,59.0,160,160,2.0,80.0
1564,62.0,160,160,2.0,80.0
1565,59.0,160,160,2.0,80.0
1566,68.0,0,310,1.0,107.0
1567,62.0,160,160,2.0,80.0
1568,59.0,160,160,2.0,81.0
1569,62.0,160,160,2.0,81.0
1570,59.0,160,160,2.0,81.0
1571,80.0,0,884,0.0,115.0
1572,62.0,160,160,2.0,81.0
1573,47.0,160,1920,3.0,115.0
1574,62.0,160,160,2.0,81.0
1575,58.0,160,160,2.0,82.0
1576,62.0,160,160,2.0,82.0
1577,58.0,160,160,2.0,82.0
1578,62.0,160,160,2.0,82.0
1579,58.0,0,160,2.0,82.0
1580,70.0,0,310,1.0,104.0
1581,62.0,160,160,2.0,82.0
1582,58.0,160,160,2.0,83.0
1583,62.0,160,160,2.0,83.0
1584,58.0,160,160,2.0,83.0
1585,82.0,160,884,0.0,110.0
1586,62.0,160,160,2.0,83.0
1587,46.0,160,1920,3.0,118.0
1588,45.0,0,360,3.0,111.0
1589,73.0,0,360,1.0,95.0
1590,57.0,240,240,2.0,93.0
1591,69.0,0,240,1.0,93.0
1592,56.0,240,240,2.0,90.0
1593,68.0,0,240,1.0,90.0
1594,85.0,160,934,0.0,97.0
1595,57.0,240,240,2.0,88.0
1596,69.0,0,240,1.0,88.0
1597,56.0,240,240,2.0,86.0
1598,68.0,0,240,1.0,86.0
1599,69.0,240,240,1.0,85.0
1600,57.0,0,240,2.0,85.0
1601,56.0,240,240,2.0,83.0
1602,68.0,0,240,1.0,83.0
1603,69.0,240,240,1.0,81.0
1604,57.0,0,240,2.0,81.0
1605,56.0,0,240,2.0,81.0
1606,68.0,240,240,1.0,81.0
1607,69.0,0,190,1.0,81.0
1608,57.0,240,190,2.0,81.0
1609,64.0,0,240,3.0,81.0
1610,61.0,0,240,3.0,81.0
1611,73.0,240,240,0.0,81.0
1612,76.0,0,240,0.0,81.0
1613,69.0,0,240,1.0,81.0
1614,57.0,240,240,2.0,81.0
1615,62.0,240,240,3.0,89.0
1616,65.0,0,240,3.0,89.0
1617,77.0,0,240,0.0,89.0
1618,74.0,0,240,0.0,89.0
1619,57.0,240,240,2.0,80.0
1620,69.0,0,240,1.0,80.0
1621,71.0,0,240,0.0,80.0
1622,62.0,0,240,3.0,80.0
1623,74.0,0,240,0.0,80.0
1624,59.0,240,240,2.0,80.0
1625,69.0,0,240,1.0,80.0
1626,57.0,240,240,2.0,80.0
1627,61.0,0,240,3.0,80.0
1628,76.0,240,240,0.0,80.0
1629,64.0,0,240,3.0,80.0
1630,73.0,0,240,0.0,80.0
1631,69.0,0,190,1.0,79.0
1632,57.0,240,190,2.0,79.0
1633,64.0,0,240,3.0,79.0
1634,61.0,0,240,3.0,79.0
1635,76.0,240,240,0.0,79.0
1636,73.0,0,240,0.0,79.0
1637,69.0,240,240,1.0,79.0
1638,57.0,0,240,2.0,79.0
1639,62.0,0,240,3.0,87.0
1640,74.0,240,240,0.0,87.0
1641,77.0,0,240,0.0,87.0
1642,65.0,0,240,3.0,87.0
1643,57.0,0,240,2.0,79.0
1644,69.0,240,240,1.0,79.0
1645,62.0,0,240,3.0,78.0
1646,59.0,0,240,3.0,78.0
1647,71.0,0,240,0.0,78.0
1648,59.0,240,240,2.0,78.0
1649,74.0,0,240,0.0,78.0
1650,69.0,240,240,1.0,78.0
1651,57.0,0,240,2.0,78.0
1652,64.0,0,240,3.0,78.0
1653,61.0,240,240,3.0,78.0
1654,76.0,0,240,0.0,78.0
1655,73.0,0,240,0.0,78.0
1656,57.0,0,190,2.0,78.0
1657,69.0,240,190,1.0,78.0
1658,76.0,0,240,0.0,77.0
1659,73.0,240,240,0.0,77.0
1660,61.0,0,240,3.0,77.0
1661,64.0,0,240,3.0,77.0
1662,57.0,0,240,2.0,77.0
1663,69.0,240,240,1.0,77.0
1664,65.0,0,240,3.0,84.0
1665,62.0,0,240,3.0,84.0
1666,77.0,240,240,0.0,84.0
1667,74.0,0,240,0.0,84.0
1668,69.0,0,240,1.0,77.0
1669,57.0,240,240,2.0,77.0
1670,71.0,240,240,0.0,76.0
1671,74.0,0,240,0.0,76.0
1672,59.0,0,240,2.0,76.0
1673,62.0,0,240,3.0,76.0
1674,59.0,0,240,3.0,76.0
1675,57.0,0,240,2.0,76.0
1676,69.0,240,240,1.0,76.0
1677,61.0,240,284,3.0,74.0
1678,73.0,0,284,0.0,73.0
1679,76.0,0,284,0.0,73.0
1680,64.0,0,284,3.0,74.0
1681,69.0,0,240,1.0,76.0
1682,57.0,240,240,2.0,76.0
1683,56.0,0,240,2.0,75.0
1684,68.0,240,240,1.0,75.0
1685,69.0,0,240,1.0,73.0
1686,57.0,240,240,2.0,73.0
1687,68.0,240,240,1.0,71.0
1688,56.0,0,240,2.0,71.0
1689,57.0,240,240,2.0,70.0
1690,69.0,0,240,1.0,70.0
1691,68.0,240,240,1.0,68.0
1692,56.0,0,240,2.0,68.0
1693,57.0,0,240,2.0,66.0
1694,69.0,240,240,1.0,66.0
1695,56.0,240,240,2.0,65.0
1696,68.0,0,240,1.0,65.0
1697,57.0,240,190,2.0,65.0
1698,69.0,0,190,1.0,65.0
1699,64.0,0,240,0.0,65.0
1700,49.0,0,240,3.0,65.0
1701,61.0,240,240,0.0,65.0
1702,52.0,0,240,3.0,65.0
1703,69.0,0,240,1.0,65.0
1704,57.0,240,240,2.0,65.0
1705,65.0,0,240,0.0,71.0
1706,62.0,0,240,0.0,71.0
1707,50.0,240,240,3.0,71.0
1708,53.0,0,240,3.0,71.0
1709,57.0,240,240,2.0,64.0
1710,69.0,0,240,1.0,64.0
1711,50.0,0,240,3.0,64.0
1712,47.0,0,240,3.0,64.0
1713,59.0,240,240,0.0,64.0
1714,62.0,0,240,0.0,64.0
1715,69.0,240,240,1.0,64.0
1716,57.0,0,240,2.0,64.0
1717,52.0,240,240,3.0,63.0
1718,49.0,0,240,3.0,63.0
1719,64.0,0,240,0.0,63.0
1720,61.0,0,240,0.0,63.0
1721,57.0,240,190,2.0,63.0
1722,69.0,0,190,1.0,63.0
1723,49.0,0,240,3.0,63.0
1724,52.0,0,240,3.0,63.0
1725,64.0,0,240,0.0,63.0
1726,61.0,240,240,0.0,63.0
1727,69.0,0,240,1.0,63.0
1728,57.0,240,240,2.0,63.0
1729,53.0,240,240,3.0,71.0
1730,65.0,0,240,0.0,71.0
1731,50.0,0,240,3.0,71.0
1732,62.0,0,240,0.0,71.0
1733,57.0,0,240,2.0,62.0
1734,69.0,240,240,1.0,62.0
1735,62.0,240,240,0.0,62.0
1736,59.0,0,240,0.0,62.0
1737,47.0,0,240,3.0,62.0
1738,50.0,0,240,3.0,62.0
1739,69.0,240,240,1.0,62.0
1740,57.0,0,240,2.0,62.0
1741,61.0,0,240,0.0,62.0
1742,64.0,240,240,0.0,62.0
1743,49.0,0,240,3.0,62.0
1744,52.0,0,240,3.0,62.0
1745,69.0,0,190,1.0,61.0
1746,57.0,240,190,2.0,61.0
1747,61.0,0,240,0.0,61.0
1748,64.0,0,240,0.0,61.0
1749,52.0,240,240,3.0,61.0
1750,49.0,0,240,3.0,61.0
1751,57.0,0,240,2.0,61.0
1752,69.0,240,240,1.0,61.0
1753,53.0,0,240,3.0,71.0
1754,62.0,240,240,0.0,71.0
1755,50.0,0,240,3.0,71.0
1756,65.0,0,240,0.0,71.0
1757,69.0,0,240,1.0,60.0
1758,57.0,240,240,2.0,60.0
1759,62.0,240,240,0.0,60.0
1760,47.0,0,240,3.0,60.0
1761,50.0,0,240,3.0,60.0
1762,59.0,0,240,0.0,60.0
1763,69.0,240,240,1.0,60.0
1764,57.0,0,240,2.0,60.0
1765,64.0,0,284,0.0,59.0
1766,52.0,0,284,3.0,57.0
1767,49.0,0,284,3.0,57.0
1768,61.0,240,284,0.0,59.0
1769,57.0,0,240,1.0,60.0
1770,45.0,240,240,2.0,60.0
1771,44.0,240,240,2.0,59.0
1772,56.0,0,240,1.0,59.0
1773,57.0,0,240,1.0,58.0
1774,45.0,240,240,2.0,58.0
1775,44.0,0,240,2.0,57.0
1776,56.0,240,240,1.0,57.0
1777,45.0,0,240,2.0,56.0
1778,57.0,240,240,1.0,56.0
1779,56.0,240,240,1.0,54.0
1780,44.0,0,240,2.0,54.0
1781,57.0,240,240,1.0,53.0
1782,45.0,0,240,2.0,53.0
1783,56.0,0,240,1.0,51.0
1784,44.0,240,240,2.0,51.0
1785,57.0,240,190,1.0,51.0
1786,45.0,0,190,2.0,51.0
1787,61.0,240,240,0.0,51.0
1788,64.0,0,240,0.0,51.0
1789,49.0,0,240,3.0,51.0
1790,52.0,0,240,3.0,51.0
1791,45.0,0,240,2.0,50.0
1792,57.0,240,240,1.0,50.0
1793,65.0,0,240,0.0,58.0
1794,50.0,0,240,3.0,58.0
1795,47.0,0,240,3.0,58.0
1796,62.0,240,240,0.0,58.0
1797,45.0,240,240,2.0,50.0
1798,57.0,0,240,1.0,50.0
1799,62.0,0,240,0.0,49.0
1800,53.0,240,240,3.0,49.0
1801,50.0,0,240,3.0,49.0
1802,59.0,0,240,0.0,49.0
1803,45.0,240,240,2.0,49.0
1804,57.0,0,240,1.0,49.0
1805,49.0,0,240,3.0,49.0
1806,61.0,240,240,0.0,49.0
1807,52.0,0,240,3.0,49.0
1808,64.0,0,240,0.0,49.0
1809,45.0,240,190,2.0,49.0
1810,57.0,0,190,1.0,49.0
1811,61.0,0,240,0.0,48.0
1812,64.0,0,240,0.0,48.0
1813,49.0,0,240,3.0,48.0
1814,52.0,240,240,3.0,48.0
1815,45.0,0,240,2.0,48.0
1816,57.0,240,240,1.0,48.0
1817,50.0,0,240,3.0,56.0
1818,47.0,0,240,3.0,56.0
1819,62.0,0,240,0.0,56.0
1820,65.0,240,240,0.0,56.0
1821,57.0,0,240,1.0,47.0
1822,45.0,240,240,2.0,47.0
1823,62.0,0,240,0.0,47.0
1824,50.0,0,240,3.0,47.0
1825,53.0,240,240,3.0,47.0
1826,59.0,0,240,0.0,47.0
1827,57.0,0,240,1.0,47.0
1828,45.0,240,240,2.0,47.0
1829,52.0,0,240,3.0,46.0
1830,49.0,0,240,3.0,46.0
1831,61.0,0,240,0.0,46.0
1832,64.0,240,240,0.0,46.0
1833,45.0,240,190,2.0,46.0
1834,57.0,0,190,1.0,46.0
1835,61.0,0,240,0.0,46.0
1836,64.0,0,240,0.0,46.0
1837,49.0,240,240,3.0,46.0
1838,52.0,0,240,3.0,46.0
1839,45.0,240,240,2.0,45.0
1840,57.0,0,240,1.0,45.0
1841,50.0,0,240,3.0,53.0
1842,47.0,0,240,3.0,53.0
1843,62.0,0,240,0.0,53.0
1844,65.0,240,240,0.0,53.0
1845,57.0,0,240,1.0,45.0
1846,45.0,240,240,2.0,45.0
1847,62.0,0,240,0.0,44.0
1848,59.0,240,240,0.0,44.0
1849,50.0,0,240,3.0,44.0
1850,53.0,0,240,3.0,44.0
1851,57.0,0,240,1.0,44.0
1852,45.0,240,240,2.0,44.0
1853,64.0,0,1920,0.0,44.0
1854,52.0,0,1920,3.0,43.0
1855,49.0,0,1920,3.0,43.0
1856,57.0,240,1920,1.0,47.0
1857,61.0,0,1920,0.0,44.0
1858,45.0,0,1920,2.0,47.0
1859,53.0,0,1920,1.0,46.0
1860,57.0,0,1920,1.0,46.0
1861,45.0,0,0,3.0,44.0
1862,33.0,0,0,3.0,44.0
1863,62.0,0,1920,0.0,46.0
1864,33.0,0,0,3.0,42.0
1865,52.0,0,1920,1.0,44.0
1866,61.0,0,1920,0.0,44.0
1867,57.0,1920,1920,1.0,44.0
1868,45.0,1920,1665,3.0,42.0
1869,53.0,0,1665,1.0,42.0
1870,58.0,0,1670,0.0,42.0
1871,50.0,0,1670,1.0,42.0
1872,49.0,1680,120,3.0,39.0
1873,52.0,120,120,3.0,40.0
1874,57.0,0,3840,0.0,41.0
1875,33.0,0,3840,3.0,41.0
1876,45.0,120,3840,3.0,41.0
1877,58.0,3840,1440,0.0,63.0
1878,46.0,0,1440,3.0,63.0
1879,45.0,0,480,3.0,53.0
1880,57.0,1440,480,0.0,53.0
1881,55.0,480,480,0.0,50.0
1882,43.0,0,480,3.0,51.0
1883,53.0,480,480,0.0,48.0
1884,41.0,0,480,3.0,49.0
1885,39.0,0,480,3.0,47.0
1886,51.0,480,480,0.0,45.0
1887,38.0,480,480,3.0,45.0
1888,50.0,0,480,0.0,43.0
1889,49.0,0,480,0.0,41.0
1890,37.0,480,480,3.0,44.0
1891,43.0,480,480,3.0,41.0
1892,55.0,0,480,0.0,41.0
1893,46.0,0,480,3.0,39.0
1894,58.0,480,480,0.0,39.0
1895,45.0,0,480,3.0,38.0
1896,57.0,480,480,0.0,38.0
1897,55.0,0,480,0.0,37.0
1898,43.0,480,480,3.0,37.0
1899,53.0,0,480,0.0,36.0
1900,41.0,480,480,3.0,36.0
1901,39.0,480,480,3.0,34.0
1902,51.0,0,480,0.0,34.0
1903,50.0,480,480,0.0,33.0
1904,38.0,0,480,3.0,33.0
1905,37.0,480,120,3.0,29.0
1906,40.0,120,120,3.0,28.0
1907,45.0,120,120,3.0,28.0
1908,49.0,120,120,3.0,27.0
1909,52.0,120,120,3.0,27.0
1910,57.0,120,120,0.0,27.0
1911,61.0,360,480,0.0,29.0
1912,64.0,480,480,0.0,28.0
1913,69.0,1200,0,0.0,38.0
1914,70.0,240,240,0.0,37.0
1915,69.0,240,0,0.0,36.0
1916,67.0,480,770,0.0,34.0
1917,67.0,900,60,0.0,40.0
1918,76.0,60,425,0.0,47.0
1919,74.0,60,0,0.0,41.0
1920,73.0,480,900,0.0,36.0
1921,76.0,480,0,0.0,52.0
1922,67.0,720,240,0.0,37.0
1923,70.0,240,720,0.0,40.0
1924,69.0,720,240,0.0,33.0
1925,67.0,240,480,0.0,33.0
1926,65.0,480,480,0.0,29.0
1927,69.0,0,240,0.0,54.0
1928,57.0,960,310,2.0,40.0
1929,49.0,0,310,3.0,40.0
1930,67.0,240,190,0.0,54.0
1931,67.0,240,240,0.0,54.0
1932,50.0,0,310,3.0,41.0
1933,57.0,0,310,2.0,41.0
1934,65.0,240,190,0.0,55.0
1935,65.0,0,240,0.0,55.0
1936,57.0,240,310,2.0,41.0
1937,52.0,0,310,3.0,41.0
1938,64.0,240,190,0.0,55.0
1939,64.0,240,240,0.0,56.0
1940,53.0,0,310,3.0,42.0
1941,57.0,0,310,2.0,42.0
1942,62.0,240,190,0.0,56.0
1943,69.0,0,240,0.0,56.0
1944,49.0,240,310,3.0,43.0
1945,57.0,0,310,2.0,43.0
1946,67.0,240,190,0.0,56.0
1947,67.0,0,240,0.0,57.0
1948,57.0,240,310,2.0,44.0
1949,50.0,0,310,3.0,44.0
1950,65.0,240,190,0.0,57.0
1951,65.0,0,240,0.0,57.0
1952,57.0,240,310,2.0,45.0
1953,52.0,0,310,3.0,45.0
1954,64.0,240,190,0.0,58.0
1955,64.0,0,240,0.0,58.0
1956,53.0,240,310,3.0,46.0
1957,57.0,0,310,2.0,46.0
1958,62.0,240,190,0.0,58.0
1959,74.0,0,240,0.0,58.0
1960,62.0,0,310,2.0,46.0
1961,54.0,240,310,3.0,46.0
1962,72.0,240,190,0.0,59.0
1963,72.0,0,240,0.0,61.0
1964,62.0,240,310,2.0,48.0
1965,55.0,0,310,3.0,48.0
1966,70.0,240,0,0.0,64.0
1967,57.0,0,310,3.0,50.0
1968,62.0,0,310,2.0,50.0
1969,69.0,240,190,0.0,65.0
1970,69.0,240,240,0.0,67.0
1971,62.0,0,310,2.0,53.0
1972,58.0,0,310,3.0,53.0
1973,67.0,240,190,0.0,69.0
1974,67.0,0,240,0.0,70.0
1975,62.0,240,310,2.0,58.0
1976,58.0,0,310,3.0,58.0
1977,68.0,240,190,0.0,72.0
1978,68.0,240,385,0.0,76.0
1979,69.0,480,50,0.0,60.0
1980,68.0,60,50,0.0,58.0
1981,66.0,60,50,0.0,56.0
1982,68.0,60,50,0.0,53.0
1983,71.0,60,95,0.0,51.0
1984,69.0,120,95,0.0,46.0
1985,62.0,0,960,2.0,65.0
1986,65.0,0,960,2.0,65.0
1987,58.0,0,960,3.0,65.0
1988,61.0,0,960,2.0,42.0
1989,64.0,0,960,2.0,42.0
1990,57.0,120,960,3.0,40.0
1991,69.0,0,960,0.0,41.0
1992,40.0,960,50,3.0,31.0
1993,43.0,60,50,3.0,33.0
1994,48.0,60,50,3.0,35.0
1995,52.0,60,50,3.0,37.0
1996,55.0,60,50,3.0,39.0
1997,60.0,60,658,0.0,30.0
1998,64.0,660,400,0.0,32.0
1999,67.0,480,400,0.0,33.0
2000,72.0,480,1905,0.0,34.0
2001,73.0,1920,960,0.0,53.0
2002,61.0,960,810,0.0,45.0
2003,61.0,840,120,0.0,40.0
2004,60.0,120,480,0.0,39.0
2005,58.0,480,665,0.0,36.0
2006,67.0,240,0,0.0,44.0
2007,68.0,240,240,0.0,46.0
2008,70.0,720,0,0.0,50.0
2009,73.0,240,480,0.0,54.0
2010,72.0,480,240,0.0,50.0
2011,67.0,240,240,0.0,46.0
2012,68.0,0,0,0.0,40.0
2013,56.0,0,190,1.0,50.0
2014,41.0,0,190,2.0,50.0
2015,61.0,0,190,1.0,50.0
2016,29.0,1920,190,3.0,38.0
2017,29.0,0,190,3.0,41.0
2018,68.0,960,190,0.0,43.0
2019,61.0,0,190,1.0,52.0
2020,41.0,0,190,2.0,52.0
2021,56.0,0,190,1.0,52.0
2022,68.0,0,190,0.0,45.0
2023,61.0,0,190,1.0,54.0
2024,56.0,0,190,1.0,54.0
2025,29.0,0,190,3.0,43.0
2026,41.0,960,190,2.0,54.0
2027,41.0,960,190,2.0,56.0
2028,29.0,0,190,3.0,46.0
2029,61.0,0,190,1.0,56.0
2030,56.0,0,190,1.0,56.0
2031,68.0,0,190,0.0,48.0
2032,69.0,0,160,0.0,54.0
2033,42.0,960,235,2.0,58.0
2034,37.0,0,235,2.0,58.0
2035,30.0,0,235,3.0,48.0
2036,66.0,160,160,0.0,54.0
2037,61.0,160,160,0.0,53.0
2038,57.0,160,160,0.0,53.0
2039,54.0,160,160,0.0,52.0
2040,49.0,160,160,0.0,51.0
2041,57.0,160,160,0.0,51.0
2042,54.0,160,160,0.0,50.0
2043,49.0,160,160,0.0,50.0
2044,45.0,160,80,0.0,52.0
2045,49.0,80,80,0.0,52.0
2046,54.0,80,80,0.0,53.0
2047,57.0,80,80,0.0,54.0
2048,61.0,80,80,0.0,54.0
2049,66.0,80,80,0.0,55.0
2050,69.0,80,160,0.0,56.0
2051,66.0,160,160,0.0,57.0
2052,61.0,160,160,0.0,59.0
2053,57.0,160,160,0.0,60.0
2054,61.0,160,160,0.0,62.0
2055,66.0,160,160,0.0,64.0
2056,69.0,160,160,0.0,65.0
2057,73.0,160,160,0.0,67.0
2058,78.0,160,197,0.0,68.0
2059,81.0,160,120,0.0,69.0
2060,78.0,120,120,0.0,64.0
2061,73.0,120,120,0.0,61.0
2062,69.0,120,0,0.0,62.0
2063,42.0,0,190,3.0,58.0
2064,57.0,0,190,1.0,66.0
2065,50.0,0,190,2.0,66.0
2066,54.0,0,190,1.0,66.0
2067,62.0,0,190,1.0,66.0
2068,69.0,0,190,0.0,65.0
2069,62.0,0,190,1.0,68.0
2070,50.0,960,190,2.0,68.0
2071,57.0,0,190,1.0,68.0
2072,54.0,0,190,1.0,68.0
2073,42.0,0,190,3.0,61.0
2074,54.0,0,190,1.0,70.0
2075,69.0,0,190,0.0,68.0
2076,42.0,0,190,3.0,63.0
2077,57.0,0,190,1.0,70.0
2078,62.0,0,190,1.0,70.0
2079,50.0,960,190,2.0,70.0
2080,54.0,0,190,1.0,72.0
2081,42.0,0,190,3.0,66.0
2082,69.0,0,190,0.0,71.0
2083,50.0,0,190,2.0,72.0
2084,62.0,0,190,1.0,72.0
2085,57.0,960,190,1.0,72.0
2086,70.0,960,160,0.0,70.0
2087,55.0,0,168,2.0,74.0
2088,50.0,0,168,2.0,74.0
2089,43.0,0,168,3.0,68.0
2090,67.0,160,160,0.0,69.0
2091,62.0,160,160,0.0,69.0
2092,58.0,160,160,0.0,68.0
2093,55.0,160,160,0.0,67.0
2094,50.0,160,160,0.0,66.0
2095,46.0,160,160,0.0,66.0
2096,50.0,160,160,0.0,65.0
2097,55.0,160,160,0.0,64.0
2098,46.0,160,80,0.0,66.0
2099,50.0,80,80,0.0,67.0
2100,55.0,80,80,0.0,67.0
2101,58.0,80,80,0.0,68.0
2102,62.0,80,80,0.0,69.0
2103,67.0,80,80,0.0,69.0
2104,70.0,80,160,0.0,70.0
2105,67.0,160,160,0.0,71.0
2106,62.0,160,160,0.0,73.0
2107,58.0,160,160,0.0,74.0
2108,62.0,160,160,0.0,75.0
2109,67.0,160,160,0.0,77.0
2110,70.0,160,160,0.0,78.0
2111,74.0,160,160,0.0,79.0
2112,79.0,160,160,0.0,81.0
2113,82.0,160,120,0.0,83.0
2114,79.0,120,120,0.0,80.0
2115,74.0,120,120,0.0,78.0
2116,70.0,120,120,0.0,77.0
2117,70.0,0,190,1.0,82.0
2118,73.0,0,190,1.0,82.0
2119,58.0,0,190,2.0,82.0
2120,64.0,0,190,2.0,82.0
2121,76.0,0,190,0.0,80.0
2122,61.0,120,190,2.0,82.0
2123,55.0,0,190,3.0,78.0
2124,61.0,0,190,2.0,84.0
2125,70.0,0,190,1.0,84.0
2126,73.0,0,190,1.0,84.0
2127,55.0,960,190,3.0,81.0
2128,64.0,0,190,2.0,84.0
2129,58.0,0,190,2.0,84.0
2130,76.0,0,190,0.0,82.0
2131,55.0,960,190,3.0,83.0
2132,76.0,0,190,0.0,85.0
2133,73.0,0,190,1.0,86.0
2134,70.0,0,190,1.0,86.0
2135,61.0,0,190,2.0,86.0
2136,64.0,0,190,2.0,86.0
2137,58.0,0,190,2.0,86.0
2138,58.0,0,190,2.0,88.0
2139,55.0,0,190,3.0,86.0
2140,73.0,0,190,1.0,88.0
2141,70.0,0,190,1.0,88.0
2142,64.0,0,190,2.0,88.0
2143,61.0,0,190,2.0,88.0
2144,76.0,960,190,0.0,87.0
2145,77.0,0,160,0.0,89.0
2146,65.0,0,194,1.0,90.0
2147,62.0,0,199,2.0,90.0
2148,56.0,960,199,3.0,91.0
2149,59.0,0,199,2.0,90.0
2150,74.0,160,160,0.0,89.0
2151,71.0,160,160,0.0,88.0
2152,68.0,160,160,0.0,88.0
2153,65.0,160,160,0.0,87.0
2154,74.0,160,160,0.0,87.0
2155,71.0,160,160,0.0,86.0
2156,68.0,160,160,0.0,88.0
2157,65.0,160,160,0.0,89.0
2158,62.0,160,160,0.0,90.0
2159,65.0,160,160,0.0,91.0
2160,68.0,160,160,0.0,92.0
2161,71.0,160,160,0.0,93.0
2162,74.0,160,160,0.0,94.0
2163,77.0,160,160,0.0,95.0
2164,80.0,160,160,0.0,96.0
2165,83.0,160,160,0.0,97.0
2166,86.0,160,160,0.0,99.0
2167,89.0,160,480,0.0,100.0
2168,86.0,480,480,0.0,95.0
2169,85.0,0,255,0.0,79.0
2170,69.0,240,240,2.0,42.0
2171,67.0,240,240,2.0,42.0
2172,64.0,0,240,2.0,42.0
2173,69.0,240,240,2.0,42.0
2174,70.0,240,240,2.0,42.0
2175,69.0,240,240,2.0,42.0
2176,64.0,0,240,2.0,43.0
2177,67.0,0,240,2.0,43.0
2178,88.0,240,240,0.0,54.0
2179,57.0,480,1821,3.0,79.0
2180,85.0,0,240,0.0,54.0
2181,69.0,240,240,2.0,43.0
2182,81.0,0,240,0.0,54.0
2183,82.0,240,0,0.0,55.0
2184,69.0,0,240,2.0,43.0
2185,64.0,0,240,2.0,44.0
2186,67.0,0,240,2.0,44.0
2187,69.0,240,240,2.0,44.0
2188,79.0,0,240,0.0,52.0
2189,70.0,240,240,2.0,44.0
2190,69.0,240,240,2.0,44.0
2191,88.0,0,240,0.0,56.0
2192,67.0,0,240,2.0,45.0
2193,64.0,240,240,2.0,45.0
2194,57.0,240,1821,3.0,66.0
2195,85.0,0,240,0.0,56.0
2196,69.0,240,240,2.0,45.0
2197,81.0,240,240,0.0,56.0
2198,69.0,240,240,2.0,45.0
2199,82.0,0,240,0.0,56.0
2200,82.0,0,240,0.0,56.0
2201,64.0,0,240,2.0,46.0
2202,67.0,240,240,2.0,46.0
2203,69.0,0,240,2.0,46.0
2204,79.0,240,240,0.0,55.0
2205,70.0,240,240,2.0,46.0
2206,69.0,240,240,2.0,46.0
2207,64.0,0,240,2.0,46.0
2208,67.0,0,240,2.0,46.0
2209,88.0,240,240,0.0,57.0
2210,57.0,0,1821,3.0,68.0
2211,69.0,240,240,2.0,47.0
2212,85.0,0,240,0.0,58.0
2213,81.0,0,240,0.0,58.0
2214,69.0,240,240,2.0,47.0
2215,82.0,0,0,0.0,58.0
2216,64.0,0,240,2.0,47.0
2217,67.0,240,240,2.0,47.0
2218,57.0,240,922,3.0,69.0
2219,69.0,0,240,2.0,48.0
2220,79.0,0,0,0.0,59.0
2221,69.0,240,240,2.0,48.0
2222,77.0,0,0,0.0,59.0
2223,61.0,0,240,2.0,48.0
2224,64.0,240,240,2.0,48.0
2225,57.0,240,922,3.0,70.0
2226,76.0,240,0,0.0,60.0
2227,69.0,0,240,2.0,49.0
2228,77.0,0,240,0.0,60.0
2229,69.0,240,240,2.0,49.0
2230,65.0,0,240,2.0,49.0
2231,74.0,240,240,0.0,59.0
2232,62.0,0,240,2.0,49.0
2233,69.0,240,240,2.0,49.0
2234,70.0,240,240,2.0,50.0
2235,69.0,240,240,2.0,50.0
2236,89.0,240,240,0.0,61.0
2237,65.0,0,240,2.0,50.0
2238,62.0,0,240,2.0,50.0
2239,57.0,0,1852,3.0,71.0
2240,69.0,0,240,2.0,50.0
2241,86.0,240,240,0.0,61.0
2242,80.0,0,240,0.0,61.0
2243,69.0,240,240,2.0,51.0
2244,81.0,0,0,0.0,62.0
2245,62.0,0,240,2.0,51.0
2246,65.0,240,240,2.0,51.0
2247,77.0,240,240,0.0,61.0
2248,69.0,0,240,2.0,51.0
2249,70.0,240,240,2.0,52.0
2250,69.0,240,240,2.0,52.0
2251,89.0,240,240,0.0,63.0
2252,62.0,0,240,2.0,52.0
2253,65.0,0,240,2.0,52.0
2254,57.0,240,1852,3.0,73.0
2255,86.0,240,240,0.0,63.0
2256,69.0,0,240,2.0,52.0
2257,80.0,240,240,0.0,63.0
2258,69.0,240,240,2.0,53.0
2259,81.0,0,0,0.0,64.0
2260,65.0,240,240,2.0,53.0
2261,62.0,0,240,2.0,53.0
2262,77.0,240,240,0.0,62.0
2263,69.0,0,240,2.0,53.0
2264,70.0,240,240,2.0,53.0
2265,69.0,240,240,2.0,54.0
2266,65.0,0,240,2.0,54.0
2267,89.0,240,240,0.0,64.0
2268,62.0,0,240,2.0,54.0
2269,57.0,0,1852,3.0,75.0
2270,69.0,240,240,2.0,54.0
2271,86.0,0,240,0.0,65.0
2272,80.0,240,240,0.0,65.0
2273,69.0,0,240,2.0,55.0
2274,81.0,240,240,0.0,65.0
2275,62.0,0,240,2.0,55.0
2276,81.0,240,240,0.0,65.0
2277,65.0,0,240,2.0,55.0
2278,57.0,0,891,3.0,76.0
2279,69.0,240,240,2.0,55.0
2280,77.0,0,240,0.0,66.0
2281,77.0,240,240,0.0,66.0
2282,69.0,240,240,2.0,55.0
2283,76.0,0,240,0.0,66.0
2284,76.0,0,240,0.0,66.0
2285,65.0,240,240,2.0,56.0
2286,62.0,0,240,2.0,56.0
2287,57.0,0,891,3.0,77.0
2288,69.0,240,240,2.0,56.0
2289,74.0,240,0,0.0,67.0
2290,69.0,240,240,2.0,56.0
2291,73.0,0,240,0.0,67.0
2292,76.0,0,240,0.0,65.0
2293,67.0,0,240,2.0,57.0
2294,64.0,240,240,2.0,57.0
2295,69.0,240,240,2.0,57.0
2296,70.0,240,240,2.0,57.0
2297,69.0,240,240,2.0,57.0
2298,82.0,240,240,0.0,68.0
2299,67.0,0,240,2.0,58.0
2300,64.0,0,240,2.0,58.0
2301,57.0,0,1790,3.0,78.0
2302,79.0,0,240,0.0,68.0
2303,69.0,240,240,2.0,58.0
2304,75.0,0,240,0.0,68.0
2305,69.0,0,240,2.0,58.0
2306,76.0,240,240,0.0,69.0
2307,67.0,0,240,2.0,58.0
2308,64.0,240,240,2.0,58.0
2309,73.0,0,240,0.0,67.0
2310,69.0,240,240,2.0,59.0
2311,70.0,240,240,2.0,59.0
2312,69.0,240,240,2.0,59.0
2313,67.0,240,240,2.0,59.0
2314,64.0,0,240,2.0,59.0
2315,82.0,0,240,0.0,70.0
2316,57.0,240,1790,3.0,80.0
2317,79.0,0,240,0.0,70.0
2318,69.0,240,240,2.0,60.0
2319,75.0,0,240,0.0,70.0
2320,76.0,0,240,0.0,70.0
2321,69.0,240,240,2.0,60.0
2322,67.0,0,240,2.0,60.0
2323,64.0,0,240,2.0,60.0
2324,73.0,240,240,0.0,67.0
2325,69.0,240,240,2.0,61.0
2326,70.0,240,240,2.0,61.0
2327,69.0,240,240,2.0,61.0
2328,82.0,240,240,0.0,71.0
2329,67.0,0,240,2.0,61.0
2330,64.0,0,240,2.0,61.0
2331,57.0,240,1790,3.0,82.0
2332,79.0,240,240,0.0,72.0
2333,69.0,0,240,2.0,61.0
2334,76.0,0,240,0.0,72.0
2335,79.0,240,240,0.0,72.0
2336,64.0,240,528,2.0,62.0
2337,67.0,0,528,2.0,62.0
2338,57.0,0,672,3.0,83.0
2339,73.0,240,240,0.0,72.0
2340,76.0,240,240,0.0,73.0
2341,70.0,240,240,0.0,73.0
2342,73.0,240,240,0.0,73.0
2343,67.0,240,240,0.0,73.0
2344,70.0,240,240,0.0,73.0
2345,64.0,240,240,0.0,74.0
2346,67.0,240,240,0.0,74.0
2347,61.0,240,240,0.0,74.0
2348,64.0,240,240,0.0,74.0
2349,58.0,240,240,0.0,75.0
2350,61.0,240,240,0.0,75.0
2351,55.0,240,240,0.0,75.0
2352,58.0,240,240,0.0,75.0
2353,52.0,240,240,0.0,76.0
2354,55.0,240,240,0.0,77.0
2355,37.0,240,240,3.0,66.0
2356,49.0,0,240,0.0,77.0
2357,40.0,240,240,3.0,66.0
2358,52.0,0,240,0.0,78.0
2359,31.0,0,240,3.0,67.0
2360,43.0,240,240,0.0,79.0
2361,40.0,0,240,3.0,68.0
2362,52.0,240,240,0.0,80.0
2363,49.0,0,240,0.0,81.0
2364,37.0,240,240,3.0,68.0
2365,43.0,240,240,0.0,81.0
2366,31.0,0,240,3.0,69.0
2367,29.0,240,190,3.0,70.0
2368,41.0,0,190,0.0,82.0
2369,62.0,0,190,0.0,85.0
2370,57.0,0,190,1.0,81.0
2371,53.0,0,190,1.0,81.0
2372,45.0,480,190,2.0,71.0
2373,41.0,0,190,2.0,71.0
2374,50.0,0,190,3.0,71.0
2375,63.0,0,1920,0.0,89.0
2376,51.0,0,1920,3.0,81.0
2377,62.0,1920,480,0.0,76.0
2378,50.0,0,480,3.0,70.0
2379,58.0,0,2880,1.0,89.0
2380,43.0,0,2880,2.0,81.0
2381,49.0,0,480,3.0,69.0
2382,55.0,480,2880,1.0,89.0
2383,61.0,480,480,0.0,74.0
2384,46.0,0,2887,2.0,81.0
2385,41.0,0,190,2.0,68.0
2386,45.0,0,190,2.0,68.0
2387,50.0,0,190,3.0,68.0
2388,53.0,0,190,1.0,72.0
2389,62.0,0,190,0.0,72.0
2390,57.0,480,190,1.0,72.0
2391,69.0,480,190,1.0,77.0
2392,65.0,0,190,1.0,77.0
2393,74.0,0,190,0.0,82.0
2394,62.0,0,190,3.0,75.0
2395,57.0,0,190,2.0,75.0
2396,53.0,0,190,2.0,75.0
2397,75.0,0,1920,0.0,95.0
2398,63.0,0,1925,3.0,81.0
2399,74.0,0,480,0.0,79.0
2400,62.0,1920,480,3.0,77.0
2401,55.0,0,2880,2.0,81.0
2402,58.0,0,2880,2.0,81.0
2403,73.0,480,480,0.0,77.0
2404,70.0,0,2880,1.0,95.0
2405,67.0,480,2880,1.0,95.0
2406,61.0,0,480,3.0,75.0
2407,53.0,0,190,2.0,74.0
2408,65.0,480,190,1.0,74.0
2409,69.0,0,190,1.0,74.0
2410,74.0,0,190,0.0,74.0
2411,57.0,0,190,2.0,74.0
2412,62.0,0,190,3.0,74.0
2413,65.0,0,190,3.0,82.0
2414,86.0,480,190,0.0,89.0
2415,69.0,0,190,3.0,82.0
2416,74.0,0,190,1.0,84.0
2417,67.0,0,1430,3.0,88.0
2418,70.0,0,1440,3.0,88.0
2419,86.0,1440,0,0.0,89.0
2420,75.0,480,1445,1.0,94.0
2421,76.0,0,190,1.0,89.0
2422,68.0,0,190,3.0,84.0
2423,71.0,0,190,3.0,84.0
2424,72.0,0,1440,3.0,90.0
2425,86.0,0,0,0.0,84.0
2426,69.0,1440,0,3.0,86.0
2427,77.0,480,1440,1.0,98.0
2428,72.0,0,480,3.0,86.0
2429,78.0,0,480,1.0,84.0
2430,79.0,480,480,1.0,81.0
2431,74.0,0,480,3.0,83.0
2432,70.0,0,480,3.0,83.0
2433,66.0,0,480,3.0,79.0
2434,72.0,0,480,3.0,79.0
2435,81.0,0,480,1.0,78.0
2436,86.0,480,945,0.0,78.0
2437,82.0,0,480,1.0,76.0
2438,67.0,0,0,3.0,72.0
2439,70.0,480,480,3.0,76.0
2440,63.0,480,480,3.0,72.0
2441,51.0,0,480,3.0,72.0
2442,62.0,0,480,3.0,69.0
2443,70.0,0,960,1.0,73.0
2444,65.0,480,480,3.0,69.0
2445,82.0,0,960,0.0,73.0
2446,64.0,0,480,3.0,65.0
2447,57.0,0,960,3.0,69.0
2448,61.0,480,480,3.0,65.0
2449,81.0,0,480,0.0,67.0
2450,69.0,0,480,1.0,67.0
2451,50.0,480,438,3.0,82.0
2452,74.0,0,500,0.0,79.0
2453,62.0,0,562,3.0,82.0
2454,38.0,480,190,3.0,66.0
2455,57.0,0,310,0.0,58.0
2456,54.0,480,310,1.0,58.0
2457,58.0,0,310,0.0,63.0
2458,55.0,480,310,1.0,63.0
2459,39.0,480,1920,3.0,77.0
2460,58.0,480,625,1.0,74.0
2461,67.0,0,625,0.0,74.0
2462,38.0,480,480,3.0,68.0
2463,58.0,0,310,1.0,68.0
2464,67.0,0,310,0.0,68.0
2465,37.0,480,480,3.0,66.0
2466,38.0,0,190,3.0,65.0
2467,66.0,480,310,0.0,64.0
2468,57.0,0,310,1.0,64.0
2469,38.0,480,190,3.0,72.0
2470,54.0,480,310,1.0,68.0
2471,57.0,0,310,0.0,68.0
2472,58.0,0,310,0.0,73.0
2473,55.0,480,310,1.0,73.0
2474,39.0,480,1920,3.0,81.0
2475,67.0,0,625,1.0,83.0
2476,70.0,480,625,0.0,83.0
2477,38.0,480,480,3.0,75.0
2478,67.0,480,310,1.0,75.0
2479,70.0,0,310,0.0,75.0
2480,37.0,0,480,3.0,73.0
2481,38.0,0,190,3.0,70.0
2482,66.0,0,310,1.0,71.0
2483,69.0,480,310,0.0,71.0
2484,38.0,480,190,3.0,78.0
2485,54.0,480,310,1.0,80.0
2486,57.0,0,310,0.0,80.0
2487,58.0,0,310,0.0,86.0
2488,55.0,480,310,1.0,87.0
2489,39.0,480,1920,3.0,86.0
2490,70.0,0,625,0.0,97.0
2491,67.0,480,625,1.0,96.0
2492,38.0,480,480,3.0,90.0
2493,37.0,0,480,3.0,94.0
2494,70.0,0,615,1.0,101.0
2495,79.0,0,625,1.0,101.0
2496,82.0,480,625,0.0,101.0
2497,36.0,480,240,3.0,52.0
2498,35.0,240,240,3.0,52.0
2499,36.0,240,240,3.0,53.0
2500,38.0,240,240,3.0,53.0
2501,40.0,240,240,3.0,54.0
2502,36.0,240,240,3.0,54.0
2503,38.0,240,240,3.0,55.0
2504,40.0,240,240,3.0,55.0
2505,67.0,0,480,1.0,55.0
2506,70.0,0,480,0.0,55.0
2507,41.0,240,240,3.0,56.0
2508,65.0,0,310,1.0,51.0
2509,69.0,0,310,0.0,51.0
2510,40.0,240,240,3.0,57.0
2511,41.0,240,240,3.0,57.0
2512,43.0,240,240,3.0,58.0
2513,45.0,240,240,3.0,58.0
2514,44.0,240,240,3.0,59.0
2515,45.0,0,240,3.0,59.0
2516,81.0,0,480,0.0,60.0
2517,44.0,240,240,3.0,60.0
2518,77.0,240,480,1.0,60.0
2519,45.0,0,240,3.0,60.0
2520,76.0,0,310,1.0,55.0
2521,79.0,240,310,0.0,55.0
2522,44.0,240,240,3.0,61.0
2523,45.0,240,240,3.0,61.0
2524,47.0,240,240,3.0,62.0
2525,49.0,240,240,3.0,62.0
2526,45.0,240,240,3.0,63.0
2527,47.0,0,240,3.0,63.0
2528,64.0,0,480,1.0,62.0
2529,67.0,240,480,0.0,62.0
2530,49.0,240,240,3.0,64.0
2531,50.0,240,240,3.0,64.0
2532,62.0,0,310,1.0,59.0
2533,65.0,0,310,0.0,59.0
2534,49.0,240,240,3.0,65.0
2535,50.0,240,240,3.0,65.0
2536,52.0,240,240,3.0,66.0
2537,53.0,240,240,3.0,66.0
2538,50.0,240,240,3.0,67.0
2539,52.0,0,240,3.0,67.0
2540,53.0,240,240,3.0,68.0
2541,77.0,0,480,0.0,65.0
2542,55.0,0,240,3.0,68.0
2543,76.0,240,310,0.0,61.0
2544,74.0,240,790,1.0,65.0
2545,54.0,240,240,3.0,69.0
2546,55.0,240,240,3.0,69.0
2547,57.0,240,240,3.0,70.0
2548,58.0,240,240,3.0,70.0
2549,55.0,240,240,3.0,71.0
2550,57.0,0,240,3.0,72.0
2551,58.0,240,240,3.0,72.0
2552,86.0,0,480,0.0,69.0
2553,57.0,0,240,3.0,73.0
2554,76.0,240,780,1.0,69.0
2555,85.0,240,310,0.0,64.0
2556,56.0,240,240,3.0,74.0
2557,57.0,240,240,3.0,79.0
2558,56.0,240,240,3.0,76.0
2559,57.0,240,240,3.0,74.0
2560,56.0,240,240,3.0,71.0
2561,57.0,240,240,3.0,69.0
2562,45.0,240,240,3.0,66.0
2563,64.0,0,480,1.0,75.0
2564,73.0,0,480,0.0,75.0
2565,74.0,0,240,0.0,71.0
2566,69.0,240,240,0.0,70.0
2567,65.0,240,240,0.0,70.0
2568,53.0,0,960,2.0,79.0
2569,77.0,240,240,0.0,69.0
2570,57.0,0,960,2.0,79.0
2571,76.0,0,240,0.0,68.0
2572,73.0,240,240,0.0,67.0
2573,69.0,240,240,0.0,67.0
2574,79.0,240,240,0.0,66.0
2575,55.0,240,960,2.0,77.0
2576,52.0,0,960,2.0,77.0
2577,77.0,240,240,0.0,65.0
2578,74.0,240,240,0.0,64.0
2579,69.0,240,240,0.0,64.0
2580,50.0,0,960,2.0,74.0
2581,53.0,0,960,2.0,74.0
2582,81.0,240,240,0.0,69.0
2583,80.0,0,240,0.0,67.0
2584,81.0,240,240,0.0,65.0
2585,80.0,240,240,0.0,63.0
2586,45.0,240,3825,3.0,84.0
2587,81.0,240,240,0.0,61.0
2588,49.0,240,960,2.0,72.0
2589,52.0,0,960,2.0,72.0
2590,50.0,0,240,3.0,63.0
2591,45.0,240,240,3.0,62.0
2592,41.0,240,240,3.0,62.0
2593,81.0,0,960,0.0,68.0
2594,50.0,240,240,3.0,61.0
2595,77.0,0,960,1.0,68.0
2596,69.0,240,960,1.0,68.0
2597,52.0,0,240,3.0,61.0
2598,49.0,240,240,3.0,60.0
2599,45.0,240,240,3.0,59.0
2600,52.0,240,240,3.0,59.0
2601,67.0,240,960,1.0,66.0
2602,76.0,0,960,1.0,66.0
2603,79.0,0,960,0.0,66.0
2604,53.0,240,240,3.0,58.0
2605,50.0,240,240,3.0,57.0
2606,45.0,240,240,3.0,57.0
2607,57.0,240,240,3.0,63.0
2608,65.0,0,960,1.0,63.0
2609,74.0,0,960,1.0,63.0
2610,77.0,0,960,0.0,63.0
2611,56.0,0,240,3.0,61.0
2612,57.0,240,240,3.0,60.0
2613,56.0,240,240,3.0,58.0
2614,64.0,240,960,1.0,61.0
2615,76.0,0,960,0.0,61.0
2616,57.0,240,240,3.0,56.0
2617,73.0,0,960,1.0,61.0
2618,74.0,0,240,0.0,71.0
2619,69.0,240,240,0.0,70.0
2620,65.0,240,240,0.0,70.0
2621,53.0,0,960,2.0,79.0
2622,57.0,0,960,2.0,79.0
2623,77.0,240,240,0.0,69.0
2624,76.0,0,240,0.0,68.0
2625,73.0,240,240,0.0,67.0
2626,69.0,240,240,0.0,67.0
2627,52.0,240,960,2.0,77.0
2628,55.0,0,960,2.0,77.0
2629,79.0,240,240,0.0,66.0
2630,77.0,0,240,0.0,65.0
2631,74.0,240,240,0.0,64.0
2632,69.0,240,240,0.0,64.0
2633,53.0,240,960,2.0,74.0
2634,50.0,0,960,2.0,74.0
2635,81.0,240,240,0.0,69.0
2636,80.0,0,240,0.0,67.0
2637,81.0,240,240,0.0,65.0
2638,80.0,240,240,0.0,63.0
2639,45.0,240,3825,3.0,84.0
2640,52.0,0,960,2.0,72.0
2641,81.0,240,240,0.0,61.0
2642,49.0,240,960,2.0,72.0
2643,50.0,0,240,3.0,63.0
2644,45.0,240,240,3.0,62.0
2645,41.0,240,240,3.0,62.0
2646,69.0,240,960,1.0,68.0
2647,50.0,240,240,3.0,61.0
2648,52.0,240,240,3.0,61.0
2649,49.0,240,240,3.0,60.0
2650,77.0,0,960,1.0,68.0
2651,81.0,0,960,0.0,68.0
2652,45.0,240,240,3.0,59.0
2653,52.0,240,240,3.0,59.0
2654,67.0,0,960,1.0,66.0
2655,53.0,240,240,3.0,58.0
2656,50.0,240,240,3.0,57.0
2657,76.0,0,960,1.0,66.0
2658,79.0,0,960,0.0,66.0
2659,45.0,240,240,3.0,57.0
2660,57.0,240,240,3.0,63.0
2661,65.0,0,960,1.0,63.0
2662,56.0,240,240,3.0,60.0
2663,57.0,240,240,3.0,58.0
2664,74.0,0,960,1.0,63.0
2665,77.0,0,960,0.0,63.0
2666,56.0,0,240,3.0,56.0
2667,57.0,240,240,3.0,53.0
2668,64.0,0,960,1.0,61.0
2669,76.0,0,480,0.0,61.0
2670,73.0,240,495,1.0,61.0
2671,74.0,0,240,0.0,59.0
2672,69.0,240,240,0.0,58.0
2673,65.0,240,240,0.0,58.0
2674,77.0,240,240,0.0,57.0
2675,45.0,0,0,3.0,64.0
2676,76.0,240,240,0.0,57.0
2677,73.0,240,240,0.0,56.0
2678,57.0,0,960,2.0,58.0
2679,53.0,0,960,2.0,58.0
2680,69.0,240,240,0.0,55.0
2681,79.0,240,240,0.0,55.0
2682,77.0,240,240,0.0,54.0
2683,74.0,240,240,0.0,54.0
2684,52.0,0,960,2.0,56.0
2685,55.0,0,960,2.0,56.0
2686,69.0,0,240,0.0,53.0
2687,45.0,240,0,3.0,60.0
2688,81.0,240,240,0.0,59.0
2689,80.0,0,240,0.0,57.0
2690,50.0,240,960,2.0,54.0
2691,81.0,240,240,0.0,55.0
2692,53.0,0,960,2.0,54.0
2693,80.0,240,240,0.0,54.0
2694,81.0,240,240,0.0,52.0
2695,52.0,0,480,2.0,51.0
2696,49.0,0,480,2.0,51.0
2697,77.0,240,240,0.0,50.0
2698,74.0,240,240,0.0,49.0
2699,69.0,0,240,0.0,49.0
2700,81.0,240,240,0.0,53.0
2701,38.0,0,960,3.0,62.0
2702,50.0,240,480,2.0,49.0
2703,80.0,240,240,0.0,51.0
2704,81.0,240,240,0.0,50.0
2705,80.0,240,240,0.0,48.0
2706,49.0,0,480,2.0,46.0
2707,52.0,0,480,2.0,46.0
2708,81.0,240,240,0.0,46.0
2709,45.0,0,960,3.0,61.0
2710,77.0,0,240,0.0,44.0
2711,74.0,240,240,0.0,45.0
2712,69.0,0,240,0.0,44.0
2713,81.0,240,240,0.0,49.0
2714,53.0,240,480,2.0,44.0
2715,50.0,240,960,3.0,60.0
2716,80.0,240,240,0.0,48.0
2717,81.0,240,240,0.0,46.0
2718,80.0,0,240,0.0,45.0
2719,81.0,240,240,0.0,43.0
2720,52.0,0,480,2.0,42.0
2721,45.0,0,960,3.0,56.0
2722,49.0,240,480,2.0,42.0
2723,74.0,0,480,0.0,42.0
2724,50.0,0,480,2.0,38.0
2725,38.0,240,480,3.0,53.0
2726,50.0,0,865,2.0,42.0
2727,38.0,960,865,3.0,48.0
2728,62.0,0,865,0.0,46.0
2729,62.0,0,865,0.0,50.0
2730,38.0,0,865,3.0,51.0
2731,50.0,960,865,2.0,47.0
2732,62.0,0,865,0.0,56.0
2733,50.0,0,865,2.0,51.0
2734,38.0,960,865,3.0,53.0
2735,38.0,960,240,3.0,35.0
2736,33.0,240,240,3.0,34.0
2737,29.0,240,240,3.0,34.0
2738,41.0,240,240,3.0,34.0
2739,38.0,240,240,3.0,33.0
2740,29.0,240,240,3.0,33.0
2741,45.0,240,240,3.0,33.0
2742,62.0,0,1920,0.0,47.0
2743,53.0,0,1920,1.0,47.0
2744,57.0,0,1920,1.0,47.0
2745,41.0,240,240,3.0,32.0
2746,38.0,240,240,3.0,32.0
2747,33.0,240,240,3.0,32.0
2748,29.0,240,240,3.0,32.0
2749,41.0,240,240,3.0,31.0
2750,38.0,240,240,3.0,31.0
2751,33.0,240,240,3.0,31.0
2752,45.0,240,240,3.0,30.0
2753,41.0,240,240,3.0,30.0
2754,38.0,240,240,3.0,30.0
2755,33.0,240,240,3.0,29.0
2756,29.0,240,240,3.0,29.0
2757,41.0,240,240,3.0,29.0
2758,38.0,240,240,3.0,28.0
2759,33.0,240,240,3.0,28.0
2760,45.0,240,240,3.0,28.0
2761,41.0,240,240,3.0,28.0
2762,38.0,240,240,3.0,27.0
2763,33.0,240,240,3.0,27.0
2764,29.0,240,240,3.0,27.0
2765,41.0,240,240,3.0,26.0
2766,38.0,240,240,3.0,26.0
2767,33.0,240,240,3.0,26.0
2768,45.0,240,240,3.0,25.0
2769,41.0,240,240,3.0,25.0
2770,38.0,240,240,3.0,25.0
2771,33.0,240,240,3.0,24.0
2772,29.0,240,240,3.0,24.0
2773,41.0,240,240,3.0,24.0
2774,38.0,240,240,3.0,24.0
2775,33.0,240,240,3.0,23.0
2776,45.0,240,240,3.0,23.0
2777,41.0,240,240,3.0,23.0
2778,38.0,240,240,3.0,22.0
2779,33.0,240,240,3.0,22.0
2780,29.0,240,240,3.0,22.0
2781,41.0,240,240,3.0,21.0
2782,38.0,240,240,3.0,21.0
2783,33.0,240,240,3.0,21.0
2784,45.0,240,240,3.0,20.0
2785,41.0,240,240,3.0,20.0
2786,38.0,240,1535,3.0,20.0
2787,77.0,0,1535,0.0,24.0
2788,38.0,1920,1535,3.0,24.0
2789,74.0,0,1535,1.0,24.0
2790,45.0,0,1535,2.0,24.0
2791,50.0,0,1535,2.0,24.0
2792,69.0,0,1535,1.0,24.0
2793,65.0,0,1535,1.0,24.0
2794,65.0,0,3840,1.0,21.0
2795,62.0,0,3840,1.0,21.0
2796,69.0,0,3840,1.0,21.0
2797,74.0,0,3840,0.0,21.0
2798,45.0,1920,3840,2.0,21.0
2799,50.0,0,3840,2.0,21.0
2800,38.0,0,3840,3.0,21.0
2801,34.0,7200,60,3.0,42.0
2802,41.0,60,60,3.0,41.0
2803,46.0,60,60,3.0,40.0
2804,50.0,60,60,3.0,39.0
2805,53.0,60,60,3.0,38.0
2806,58.0,60,60,3.0,37.0
2807,74.0,1140,435,0.0,49.0
2808,75.0,420,75,0.0,55.0
2809,77.0,60,440,0.0,56.0
2810,50.0,0,480,1.0,43.0
2811,53.0,480,0,1.0,37.0
2812,41.0,0,480,2.0,43.0
2813,46.0,480,480,2.0,43.0
2814,58.0,0,480,0.0,43.0
2815,34.0,0,480,3.0,43.0
2816,48.0,0,1370,1.0,37.0
2817,51.0,0,1380,1.0,37.0
2818,41.0,0,1385,2.0,37.0
2819,36.0,0,1385,3.0,37.0
2820,57.0,0,1400,0.0,37.0
2821,81.0,1440,435,0.0,54.0
2822,82.0,420,60,0.0,59.0
2823,84.0,60,430,0.0,60.0
2824,60.0,0,480,2.0,47.0
2825,53.0,0,480,2.0,47.0
2826,63.0,0,480,0.0,47.0
2827,45.0,480,480,3.0,47.0
2828,62.0,0,1038,0.0,42.0
2829,62.0,1040,60,0.0,32.0
2830,65.0,40,75,0.0,33.0
2831,63.0,40,61,0.0,35.0
2832,62.0,40,60,0.0,37.0
2833,63.0,40,60,0.0,38.0
2834,65.0,40,75,0.0,40.0
2835,67.0,40,75,0.0,42.0
2836,69.0,40,75,0.0,43.0
2837,70.0,40,60,0.0,45.0
2838,58.0,480,1440,2.0,42.0
2839,46.0,0,1440,3.0,42.0
2840,53.0,0,1440,2.0,42.0
2841,72.0,40,60,0.0,46.0
2842,74.0,40,431,0.0,56.0
2843,75.0,420,60,0.0,60.0
2844,77.0,60,385,0.0,62.0
2845,68.0,480,480,2.0,73.0
2846,77.0,480,0,0.0,59.0
2847,59.0,0,0,2.0,59.0
2848,50.0,0,480,3.0,73.0
2849,60.0,480,190,2.0,50.0
2850,75.0,0,190,0.0,50.0
2851,67.0,0,720,2.0,59.0
2852,51.0,0,720,3.0,59.0
2853,70.0,0,190,2.0,50.0
2854,62.0,240,190,2.0,50.0
2855,53.0,0,190,3.0,50.0
2856,74.0,0,190,0.0,50.0
2857,70.0,0,190,2.0,54.0
2858,72.0,0,190,0.0,54.0
2859,63.0,0,190,2.0,54.0
2860,55.0,240,190,3.0,54.0
2861,72.0,240,190,0.0,58.0
2862,70.0,0,190,2.0,58.0
2863,55.0,0,190,3.0,58.0
2864,64.0,0,190,2.0,58.0
2865,72.0,0,60,0.0,61.0
2866,74.0,40,60,0.0,57.0
2867,72.0,40,60,0.0,57.0
2868,74.0,40,60,0.0,56.0
2869,72.0,40,60,0.0,56.0
2870,74.0,40,60,0.0,56.0
2871,72.0,40,60,0.0,55.0
2872,74.0,40,60,0.0,55.0
2873,72.0,40,60,0.0,54.0
2874,71.0,40,75,0.0,54.0
2875,72.0,60,85,0.0,54.0
2876,74.0,60,120,0.0,55.0
2877,72.0,0,0,0.0,47.0
2878,53.0,0,720,3.0,61.0
2879,64.0,240,720,2.0,61.0
2880,70.0,0,720,2.0,61.0
2881,69.0,120,240,1.0,47.0
2882,65.0,0,240,1.0,47.0
2883,53.0,360,120,1.0,42.0
2884,51.0,120,120,1.0,43.0
2885,55.0,0,120,0.0,43.0
2886,57.0,120,120,0.0,44.0
2887,48.0,0,120,1.0,44.0
2888,50.0,120,420,1.0,44.0
2889,46.0,0,420,1.0,44.0
2890,48.0,0,60,1.0,49.0
2891,51.0,420,60,1.0,49.0
2892,53.0,0,480,1.0,54.0
2893,50.0,60,480,1.0,54.0
2894,58.0,0,1440,0.0,46.0
2895,50.0,0,0,1.0,47.0
2896,53.0,0,0,1.0,47.0
2897,34.0,0,1440,3.0,44.0
2898,74.0,480,243,0.0,47.0
2899,75.0,240,60,0.0,46.0
2900,74.0,40,60,0.0,48.0
2901,72.0,40,60,0.0,49.0
2902,74.0,40,78,0.0,50.0
2903,75.0,60,78,0.0,52.0
2904,77.0,60,480,0.0,57.0
2905,46.0,0,960,3.0,47.0
2906,53.0,0,480,1.0,47.0
2907,46.0,0,480,3.0,51.0
2908,34.0,480,480,3.0,51.0
2909,58.0,0,480,0.0,53.0
2910,50.0,0,480,1.0,47.0
2911,48.0,0,341,1.0,50.0
2912,51.0,0,420,1.0,50.0
2913,53.0,420,60,1.0,54.0
2914,50.0,0,60,1.0,54.0
2915,54.0,480,0,1.0,58.0
2916,51.0,0,0,1.0,58.0
2917,29.0,480,1440,3.0,50.0
2918,57.0,0,1440,0.0,49.0
2919,41.0,0,1440,3.0,50.0
2920,84.0,0,252,0.0,57.0
2921,86.0,240,60,0.0,57.0
2922,84.0,40,60,0.0,58.0
2923,83.0,40,60,0.0,60.0
2924,84.0,40,72,0.0,61.0
2925,41.0,0,480,3.0,57.0
2926,86.0,60,66,0.0,63.0
2927,87.0,60,480,0.0,69.0
2928,54.0,480,960,1.0,53.0
2929,51.0,0,960,1.0,53.0
2930,63.0,0,480,2.0,65.0
2931,58.0,0,480,1.0,65.0
2932,60.0,480,480,1.0,65.0
2933,66.0,0,480,0.0,65.0
2934,63.0,480,420,2.0,58.0
2935,57.0,0,435,1.0,58.0
2936,60.0,0,440,1.0,58.0
2937,62.0,0,60,1.0,64.0
2938,59.0,420,60,1.0,64.0
2939,65.0,0,960,0.0,58.0
2940,63.0,480,0,1.0,65.0
2941,60.0,0,0,1.0,65.0
2942,60.0,0,0,1.0,61.0
2943,84.0,0,249,0.0,64.0
2944,86.0,240,60,0.0,61.0
2945,84.0,40,60,0.0,62.0
2946,83.0,40,60,0.0,63.0
2947,84.0,40,78,0.0,65.0
2948,86.0,60,75,0.0,67.0
2949,53.0,0,960,3.0,64.0
2950,87.0,60,480,0.0,73.0
2951,63.0,480,960,1.0,61.0
2952,57.0,0,480,1.0,67.0
2953,69.0,0,480,2.0,78.0
2954,60.0,0,480,2.0,78.0
2955,54.0,480,480,3.0,78.0
2956,63.0,0,480,2.0,78.0
2957,75.0,0,480,0.0,78.0
2958,74.0,480,240,0.0,64.0
2959,62.0,0,240,2.0,64.0
2960,55.0,0,240,3.0,64.0
2961,70.0,0,240,2.0,64.0
2962,58.0,0,240,2.0,64.0
2963,58.0,0,155,2.0,74.0
2964,73.0,0,155,2.0,74.0
2965,67.0,0,155,2.0,74.0
2966,70.0,480,155,2.0,74.0
2967,52.0,0,155,3.0,74.0
2968,61.0,0,155,2.0,74.0
2969,79.0,480,960,0.0,95.0
2970,65.0,0,155,2.0,55.0
2971,58.0,0,155,2.0,55.0
2972,62.0,0,155,2.0,55.0
2973,74.0,0,155,2.0,55.0
2974,53.0,480,155,3.0,54.0
2975,70.0,0,155,2.0,55.0
2976,77.0,480,960,0.0,67.0
2977,69.0,0,155,2.0,49.0
2978,60.0,0,155,2.0,49.0
2979,53.0,0,155,2.0,49.0
2980,63.0,0,155,2.0,49.0
2981,41.0,480,155,3.0,49.0
2982,34.0,0,310,3.0,45.0
2983,46.0,0,310,2.0,44.0
2984,70.0,480,310,2.0,44.0
2985,58.0,0,310,2.0,44.0
2986,62.0,0,310,2.0,44.0
2987,46.0,360,40,3.0,39.0
2988,34.0,40,40,3.0,38.0
2989,46.0,40,40,3.0,36.0
2990,34.0,40,190,3.0,35.0
2991,46.0,360,40,3.0,39.0
2992,34.0,40,40,3.0,37.0
2993,46.0,40,40,3.0,36.0
2994,34.0,40,190,3.0,34.0
2995,46.0,360,40,3.0,37.0
2996,34.0,40,40,3.0,36.0
2997,46.0,40,40,3.0,34.0
2998,34.0,0,190,3.0,33.0
2999,63.0,0,480,0.0,48.0
3000,55.0,40,480,1.0,48.0
3001,58.0,0,480,1.0,48.0
3002,53.0,0,480,1.0,51.0
3003,58.0,480,480,1.0,51.0
3004,62.0,0,480,0.0,51.0
3005,58.0,480,0,1.0,51.0
3006,52.0,0,0,1.0,51.0
3007,61.0,0,0,0.0,51.0
3008,46.0,360,40,3.0,37.0
3009,34.0,40,40,3.0,36.0
3010,46.0,40,40,3.0,34.0
3011,34.0,0,190,3.0,32.0
3012,58.0,0,240,1.0,43.0
3013,62.0,0,240,0.0,43.0
3014,53.0,40,240,1.0,43.0
3015,46.0,360,40,3.0,33.0
3016,34.0,40,40,3.0,31.0
3017,46.0,40,40,3.0,30.0
3018,34.0,40,190,3.0,29.0
3019,46.0,360,40,3.0,33.0
3020,34.0,40,40,3.0,32.0
3021,46.0,40,40,3.0,31.0
3022,34.0,40,190,3.0,30.0
3023,60.0,0,300,0.0,44.0
3024,62.0,300,60,0.0,41.0
3025,60.0,60,60,0.0,43.0
3026,59.0,60,60,0.0,45.0
3027,60.0,60,240,0.0,46.0
3028,55.0,0,960,1.0,40.0
3029,63.0,240,240,0.0,47.0
3030,51.0,240,0,1.0,45.0
3031,60.0,0,240,0.0,48.0
3032,57.0,240,240,0.0,51.0
3033,51.0,0,0,1.0,44.0
3034,54.0,240,0,1.0,44.0
3035,46.0,360,40,3.0,29.0
3036,34.0,40,40,3.0,28.0
3037,46.0,40,40,3.0,26.0
3038,57.0,0,480,1.0,44.0
3039,60.0,0,480,0.0,48.0
3040,34.0,0,185,3.0,25.0
3041,58.0,0,240,0.0,41.0
3042,50.0,40,240,1.0,41.0
3043,53.0,0,240,1.0,41.0
3044,46.0,360,40,3.0,29.0
3045,34.0,40,40,3.0,27.0
3046,46.0,40,40,3.0,26.0
3047,34.0,40,190,3.0,24.0
3048,46.0,360,40,3.0,28.0
3049,34.0,40,40,3.0,27.0
3050,46.0,40,40,3.0,25.0
3051,34.0,0,190,3.0,24.0
3052,70.0,40,480,0.0,43.0
3053,62.0,0,480,1.0,39.0
3054,62.0,480,0,1.0,49.0
3055,58.0,0,480,1.0,43.0
3056,67.0,480,480,0.0,47.0
3057,65.0,0,480,0.0,50.0
3058,57.0,0,480,1.0,49.0
3059,48.0,360,40,3.0,34.0
3060,36.0,40,40,3.0,33.0
3061,48.0,40,40,3.0,31.0
3062,64.0,480,575,0.0,45.0
3063,60.0,0,575,1.0,45.0
3064,55.0,0,575,1.0,45.0
3065,36.0,40,190,3.0,30.0
3066,84.0,120,40,3.0,39.0
3067,72.0,40,40,3.0,37.0
3068,64.0,240,240,0.0,44.0
3069,55.0,0,240,1.0,44.0
3070,84.0,40,40,3.0,36.0
3071,60.0,0,0,1.0,46.0
3072,57.0,0,240,1.0,46.0
3073,72.0,0,240,3.0,35.0
3074,65.0,40,240,0.0,46.0
3075,67.0,0,240,0.0,47.0
3076,60.0,240,240,1.0,47.0
3077,58.0,0,240,1.0,47.0
3078,67.0,240,360,0.0,49.0
3079,60.0,0,360,1.0,49.0
3080,58.0,0,360,1.0,49.0
3081,48.0,360,40,3.0,46.0
3082,36.0,40,40,3.0,45.0
3083,48.0,40,40,3.0,43.0
3084,60.0,0,120,1.0,51.0
3085,56.0,0,120,1.0,51.0
3086,64.0,0,120,0.0,51.0
3087,65.0,0,155,0.0,52.0
3088,57.0,0,155,1.0,52.0
3089,60.0,0,155,1.0,52.0
3090,36.0,40,190,3.0,41.0
3091,65.0,240,240,0.0,53.0
3092,57.0,0,240,1.0,53.0
3093,60.0,0,0,1.0,55.0
3094,84.0,120,40,3.0,54.0
3095,72.0,40,40,3.0,52.0
3096,84.0,40,40,3.0,50.0
3097,67.0,240,240,0.0,55.0
3098,60.0,0,0,1.0,56.0
3099,64.0,0,240,1.0,55.0
3100,69.0,40,240,0.0,56.0
3101,65.0,0,0,1.0,58.0
3102,60.0,240,0,1.0,58.0
3103,72.0,0,240,3.0,49.0
3104,69.0,0,360,0.0,58.0
3105,48.0,360,40,3.0,56.0
3106,36.0,40,40,3.0,55.0
3107,66.0,0,120,0.0,60.0
3108,48.0,40,40,3.0,53.0
3109,63.0,0,120,1.0,60.0
3110,64.0,0,155,1.0,61.0
3111,67.0,40,155,0.0,61.0
3112,36.0,0,190,3.0,51.0
3113,67.0,240,240,0.0,62.0
3114,64.0,0,240,1.0,62.0
3115,60.0,240,0,1.0,64.0
3116,84.0,120,40,3.0,59.0
3117,72.0,40,40,3.0,58.0
3118,84.0,40,40,3.0,56.0
3119,69.0,0,240,0.0,64.0
3120,65.0,0,240,1.0,64.0
3121,60.0,240,0,1.0,67.0
3122,70.0,0,0,0.0,67.0
3123,72.0,40,240,3.0,55.0
3124,67.0,0,240,1.0,65.0
3125,67.0,0,360,1.0,67.0
3126,48.0,0,40,3.0,65.0
3127,36.0,40,40,3.0,63.0
3128,64.0,0,120,1.0,69.0
3129,68.0,360,120,0.0,69.0
3130,48.0,40,40,3.0,60.0
3131,69.0,0,155,0.0,70.0
3132,65.0,40,155,1.0,70.0
3133,36.0,0,190,3.0,58.0
3134,84.0,120,40,3.0,66.0
3135,72.0,40,40,3.0,64.0
3136,60.0,0,240,1.0,71.0
3137,65.0,0,240,1.0,71.0
3138,84.0,40,40,3.0,62.0
3139,69.0,240,240,0.0,71.0
3140,62.0,0,0,1.0,74.0
3141,68.0,0,0,1.0,74.0
3142,65.0,240,0,1.0,74.0
3143,71.0,0,0,0.0,74.0
3144,72.0,40,240,3.0,60.0
3145,84.0,120,40,3.0,70.0
3146,72.0,40,40,3.0,69.0
3147,84.0,40,40,3.0,67.0
3148,72.0,40,240,0.0,67.0
3149,67.0,0,240,1.0,64.0
3150,64.0,0,0,1.0,63.0
3151,48.0,120,60,3.0,58.0
3152,36.0,60,60,3.0,56.0
3153,60.0,0,385,1.0,63.0
3154,67.0,240,385,0.0,63.0
3155,48.0,60,190,3.0,53.0
3156,84.0,120,60,3.0,58.0
3157,67.0,0,240,0.0,65.0
3158,64.0,240,240,1.0,65.0
3159,60.0,0,240,1.0,65.0
3160,72.0,60,60,3.0,56.0
3161,65.0,0,240,1.0,62.0
3162,62.0,0,240,1.0,62.0
3163,71.0,60,240,0.0,62.0
3164,84.0,0,240,3.0,53.0
3165,67.0,0,240,0.0,59.0
3166,62.0,240,240,1.0,59.0
3167,65.0,0,240,1.0,59.0
3168,64.0,0,240,1.0,56.0
3169,60.0,0,0,1.0,58.0
3170,72.0,240,240,0.0,56.0
3171,48.0,120,60,3.0,51.0
3172,36.0,60,60,3.0,49.0
3173,67.0,240,385,0.0,58.0
3174,64.0,0,385,1.0,58.0
3175,48.0,60,190,3.0,45.0
3176,84.0,120,60,3.0,51.0
3177,64.0,240,240,1.0,59.0
3178,72.0,60,60,3.0,47.0
3179,67.0,0,240,0.0,59.0
3180,60.0,0,240,1.0,59.0
3181,84.0,60,240,3.0,44.0
3182,71.0,0,240,0.0,57.0
3183,62.0,0,0,1.0,54.0
3184,65.0,240,0,1.0,54.0
3185,67.0,0,240,0.0,54.0
3186,64.0,0,240,1.0,52.0
3187,60.0,0,0,1.0,50.0
3188,72.0,0,240,0.0,55.0
3189,48.0,120,60,3.0,45.0
3190,36.0,60,60,3.0,41.0
3191,48.0,60,155,3.0,37.0
3192,67.0,240,480,0.0,54.0
3193,64.0,0,480,1.0,50.0
3194,48.0,120,60,3.0,40.0
3195,36.0,60,60,3.0,37.0
3196,55.0,0,385,1.0,47.0
3197,48.0,60,190,3.0,34.0
3198,60.0,0,480,1.0,47.0
3199,64.0,240,480,0.0,51.0
3200,48.0,120,60,3.0,37.0
3201,36.0,60,60,3.0,34.0
3202,52.0,0,405,1.0,45.0
3203,55.0,240,410,1.0,45.0
3204,60.0,0,425,0.0,48.0
3205,48.0,60,190,3.0,31.0
3206,60.0,240,240,0.0,44.0
3207,59.0,240,240,3.0,44.0
3208,58.0,240,240,3.0,48.0
3209,62.0,120,40,0.0,50.0
3210,64.0,60,40,0.0,53.0
3211,57.0,240,240,3.0,52.0
3212,60.0,0,485,0.0,48.0
3213,65.0,60,40,0.0,55.0
3214,67.0,60,40,0.0,58.0
3215,69.0,60,40,0.0,61.0
3216,70.0,60,40,0.0,63.0
3217,55.0,0,230,3.0,56.0
3218,58.0,0,230,3.0,56.0
3219,53.0,240,0,2.0,57.0
3220,72.0,0,900,0.0,66.0
3221,69.0,180,60,0.0,66.0
3222,65.0,0,480,1.0,63.0
3223,60.0,240,480,2.0,58.0
3224,57.0,0,480,2.0,58.0
3225,77.0,0,420,0.0,65.0
3226,58.0,0,480,2.0,56.0
3227,65.0,60,480,1.0,60.0
3228,62.0,0,480,2.0,56.0
3229,74.0,180,60,0.0,64.0
3230,53.0,240,450,2.0,56.0
3231,60.0,60,480,2.0,55.0
3232,57.0,0,480,2.0,55.0
3233,53.0,240,480,2.0,54.0
3234,72.0,0,905,0.0,63.0
3235,53.0,240,240,2.0,53.0
3236,57.0,0,480,2.0,53.0
3237,60.0,240,480,2.0,53.0
3238,69.0,180,60,0.0,60.0
3239,65.0,0,480,1.0,58.0
3240,65.0,0,240,1.0,56.0
3241,50.0,0,240,2.0,52.0
3242,70.0,60,425,0.0,59.0
3243,67.0,180,60,0.0,58.0
3244,41.0,60,2880,3.0,65.0
3245,46.0,240,240,2.0,51.0
3246,62.0,0,240,1.0,55.0
3247,57.0,240,190,1.0,54.0
3248,57.0,0,1,2.0,49.0
3249,48.0,240,0,2.0,48.0
3250,60.0,240,380,1.0,53.0
3251,65.0,60,960,0.0,57.0
3252,53.0,0,480,2.0,49.0
3253,69.0,0,120,0.0,53.0
3254,67.0,120,120,0.0,53.0
3255,65.0,120,120,0.0,52.0
3256,60.0,0,380,1.0,51.0
3257,36.0,0,1440,3.0,58.0
3258,52.0,240,480,2.0,47.0
3259,55.0,0,480,2.0,47.0
3260,67.0,120,120,0.0,52.0
3261,48.0,0,450,2.0,47.0
3262,67.0,0,420,0.0,51.0
3263,68.0,180,60,0.0,50.0
3264,52.0,0,480,2.0,46.0
3265,48.0,240,240,2.0,45.0
3266,60.0,120,570,1.0,49.0
3267,69.0,0,240,0.0,47.0
3268,53.0,60,240,2.0,44.0
3269,41.0,0,720,3.0,49.0
3270,45.0,240,240,3.0,46.0
3271,60.0,60,40,0.0,49.0
3272,62.0,60,40,0.0,51.0
3273,64.0,60,40,0.0,53.0
3274,46.0,240,240,3.0,47.0
3275,65.0,0,40,0.0,55.0
3276,67.0,60,40,0.0,57.0
3277,69.0,60,40,0.0,59.0
3278,70.0,60,40,0.0,61.0
3279,43.0,60,240,3.0,55.0
3280,64.0,120,120,1.0,66.0
3281,53.0,240,0,2.0,59.0
3282,72.0,60,900,0.0,67.0
3283,60.0,120,480,2.0,60.0
3284,57.0,0,480,2.0,60.0
3285,69.0,180,60,0.0,65.0
3286,77.0,0,420,0.0,64.0
3287,65.0,0,960,1.0,65.0
3288,74.0,180,60,0.0,63.0
3289,62.0,60,480,2.0,58.0
3290,58.0,0,485,2.0,58.0
3291,53.0,240,465,2.0,57.0
3292,57.0,60,480,2.0,56.0
3293,64.0,120,120,1.0,59.0
3294,60.0,0,0,2.0,54.0
3295,53.0,240,0,2.0,53.0
3296,72.0,0,905,0.0,63.0
3297,65.0,0,0,1.0,56.0
3298,69.0,180,60,0.0,60.0
3299,57.0,0,480,2.0,54.0
3300,72.0,60,105,0.0,60.0
3301,50.0,0,240,2.0,52.0
3302,70.0,120,245,0.0,59.0
3303,62.0,0,240,1.0,55.0
3304,41.0,0,2880,3.0,67.0
3305,46.0,120,240,2.0,51.0
3306,67.0,120,120,0.0,59.0
3307,57.0,120,240,1.0,50.0
3308,57.0,0,240,1.0,52.0
3309,53.0,240,450,2.0,52.0
3310,60.0,0,240,1.0,54.0
3311,57.0,240,240,2.0,54.0
3312,65.0,0,960,0.0,58.0
3313,57.0,0,240,1.0,56.0
3314,53.0,240,240,2.0,56.0
3315,48.0,0,960,3.0,54.0
3316,52.0,0,240,2.0,59.0
3317,55.0,0,240,1.0,59.0
3318,60.0,240,480,0.0,60.0
3319,52.0,240,240,1.0,53.0
3320,36.0,0,480,3.0,60.0
3321,48.0,0,240,2.0,53.0
3322,53.0,0,360,1.0,49.0
3323,48.0,0,360,1.0,49.0
3324,41.0,360,0,3.0,33.0
3325,57.0,0,360,0.0,54.0
3326,29.0,0,360,3.0,49.0
3327,29.0,40,40,3.0,31.0
3328,41.0,40,40,3.0,29.0
3329,29.0,40,155,3.0,28.0
3330,41.0,360,40,3.0,35.0
3331,29.0,40,40,3.0,34.0
3332,41.0,40,40,3.0,32.0
3333,29.0,40,160,3.0,31.0
3334,65.0,240,240,0.0,44.0
3335,41.0,360,40,3.0,36.0
3336,29.0,40,40,3.0,35.0
3337,65.0,240,480,0.0,45.0
3338,41.0,40,40,3.0,34.0
3339,29.0,0,155,3.0,33.0
3340,41.0,360,40,3.0,38.0
3341,29.0,40,40,3.0,36.0
3342,41.0,40,40,3.0,34.0
3343,29.0,40,160,3.0,33.0
3344,66.0,240,0,0.0,52.0
3345,63.0,0,960,1.0,48.0
3346,66.0,240,0,0.0,53.0
3347,57.0,0,960,1.0,48.0
3348,41.0,360,40,3.0,44.0
3349,29.0,40,40,3.0,43.0
3350,41.0,40,40,3.0,41.0
3351,29.0,0,155,3.0,39.0
3352,41.0,360,40,3.0,47.0
3353,29.0,40,40,3.0,45.0
3354,41.0,40,40,3.0,43.0
3355,29.0,40,200,3.0,41.0
3356,69.0,40,720,0.0,56.0
3357,66.0,0,960,1.0,56.0
3358,63.0,0,960,1.0,56.0
3359,69.0,240,0,0.0,61.0
3360,41.0,360,40,3.0,51.0
3361,29.0,40,40,3.0,49.0
3362,41.0,40,40,3.0,48.0
3363,29.0,0,155,3.0,46.0
3364,41.0,360,40,3.0,55.0
3365,29.0,40,40,3.0,53.0
3366,41.0,40,40,3.0,51.0
3367,29.0,40,200,3.0,49.0
3368,72.0,240,0,0.0,67.0
3369,69.0,0,960,1.0,64.0
3370,63.0,0,960,1.0,64.0
3371,66.0,0,960,1.0,64.0
3372,72.0,240,240,0.0,72.0
3373,57.0,0,30,3.0,68.0
3374,60.0,120,30,3.0,68.0
3375,53.0,40,30,3.0,65.0
3376,57.0,0,30,3.0,63.0
3377,60.0,40,30,3.0,63.0
3378,75.0,240,360,0.0,83.0
3379,53.0,40,155,3.0,60.0
3380,74.0,120,55,0.0,66.0
3381,72.0,60,60,0.0,64.0
3382,70.0,60,60,0.0,62.0
3383,69.0,60,60,0.0,61.0
3384,67.0,60,55,0.0,59.0
3385,65.0,60,60,0.0,57.0
3386,64.0,60,60,0.0,55.0
3387,63.0,60,60,0.0,54.0
3388,62.0,60,55,0.0,52.0
3389,60.0,60,55,0.0,50.0
3390,58.0,60,60,0.0,48.0
3391,57.0,60,60,0.0,46.0
3392,63.0,60,55,0.0,45.0
3393,57.0,60,55,0.0,43.0
3394,51.0,420,60,1.0,43.0
3395,53.0,60,480,1.0,49.0
3396,46.0,0,1440,3.0,42.0
3397,34.0,0,1440,3.0,42.0
3398,58.0,0,1440,0.0,41.0
3399,50.0,60,1440,1.0,42.0
3400,53.0,0,0,1.0,42.0
3401,74.0,480,255,0.0,43.0
3402,75.0,240,60,0.0,41.0
3403,74.0,40,60,0.0,43.0
3404,72.0,40,60,0.0,44.0
3405,74.0,40,75,0.0,45.0
3406,75.0,60,75,0.0,47.0
3407,46.0,0,960,3.0,43.0
3408,50.0,480,0,1.0,47.0
3409,77.0,60,480,0.0,51.0
3410,46.0,0,480,3.0,47.0
3411,58.0,0,480,0.0,48.0
3412,41.0,0,0,3.0,44.0
3413,34.0,0,480,3.0,47.0
3414,53.0,420,60,1.0,51.0
3415,54.0,60,480,1.0,57.0
3416,48.0,0,1440,1.0,44.0
3417,57.0,0,1440,0.0,45.0
3418,54.0,480,0,1.0,50.0
3419,51.0,480,1440,1.0,44.0
3420,36.0,0,1440,3.0,44.0
3421,81.0,0,255,0.0,50.0
3422,82.0,240,60,0.0,51.0
3423,81.0,40,60,0.0,52.0
3424,79.0,40,60,0.0,52.0
3425,81.0,40,75,0.0,53.0
3426,82.0,60,75,0.0,54.0
3427,53.0,0,480,1.0,58.0
3428,84.0,60,480,0.0,58.0
3429,63.0,0,960,1.0,50.0
3430,60.0,0,960,1.0,50.0
3431,45.0,480,480,3.0,52.0
3432,63.0,0,480,1.0,52.0
3433,53.0,0,480,1.0,52.0
3434,56.0,0,435,1.0,54.0
3435,58.0,420,60,1.0,60.0
3436,59.0,60,480,1.0,67.0
3437,59.0,480,480,1.0,63.0
3438,53.0,0,1440,1.0,54.0
3439,62.0,0,1440,1.0,54.0
3440,34.0,480,1440,3.0,54.0
3441,46.0,0,1440,3.0,54.0
3442,74.0,0,252,0.0,57.0
3443,75.0,240,60,0.0,60.0
3444,74.0,40,60,0.0,60.0
3445,72.0,40,60,0.0,61.0
3446,74.0,40,78,0.0,62.0
3447,59.0,0,480,1.0,58.0
3448,75.0,60,78,0.0,63.0
3449,58.0,480,0,1.0,64.0
3450,68.0,0,0,1.0,64.0
3451,77.0,0,0,0.0,64.0
3452,65.0,0,960,1.0,58.0
3453,77.0,480,0,0.0,74.0
3454,50.0,0,480,3.0,64.0
3455,58.0,0,0,1.0,74.0
3456,59.0,240,240,1.0,66.0
3457,60.0,240,190,1.0,62.0
3458,75.0,0,190,0.0,62.0
3459,51.0,0,720,3.0,74.0
3460,67.0,0,720,1.0,74.0
3461,74.0,0,190,0.0,59.0
3462,53.0,0,190,3.0,59.0
3463,62.0,240,190,1.0,59.0
3464,70.0,0,190,1.0,59.0
3465,70.0,240,190,1.0,64.0
3466,63.0,0,190,1.0,64.0
3467,72.0,0,190,0.0,64.0
3468,55.0,0,190,3.0,64.0
3469,72.0,240,190,0.0,69.0
3470,55.0,0,190,3.0,69.0
3471,70.0,0,190,1.0,69.0
3472,64.0,0,190,1.0,69.0
3473,72.0,0,40,0.0,64.0
3474,74.0,40,40,0.0,63.0
3475,72.0,40,40,0.0,63.0
3476,74.0,40,40,0.0,62.0
3477,72.0,40,40,0.0,62.0
3478,74.0,40,40,0.0,61.0
3479,72.0,40,40,0.0,61.0
3480,74.0,40,40,0.0,60.0
3481,72.0,40,40,0.0,60.0
3482,71.0,40,60,0.0,59.0
3483,72.0,60,60,0.0,58.0
3484,74.0,60,120,0.0,58.0
3485,64.0,0,712,1.0,64.0
3486,53.0,240,720,3.0,64.0
3487,72.0,120,0,0.0,51.0
3488,70.0,0,727,1.0,64.0
3489,69.0,0,240,1.0,51.0
3490,65.0,0,240,1.0,51.0
3491,53.0,300,60,0.0,44.0
3492,55.0,60,60,0.0,45.0
3493,53.0,60,60,0.0,45.0
3494,52.0,60,60,0.0,45.0
3495,53.0,60,60,0.0,45.0
3496,51.0,0,60,0.0,46.0
3497,55.0,60,60,0.0,46.0
3498,48.0,0,60,0.0,46.0
3499,57.0,60,60,0.0,46.0
3500,50.0,0,435,0.0,50.0
3501,46.0,60,435,3.0,46.0
3502,51.0,0,60,0.0,49.0
3503,48.0,420,60,0.0,49.0
3504,82.0,60,60,3.0,44.0
3505,86.0,60,60,3.0,44.0
3506,82.0,60,60,3.0,44.0
3507,77.0,60,60,3.0,44.0
3508,82.0,60,60,3.0,45.0
3509,74.0,60,60,3.0,45.0
3510,53.0,60,0,0.0,52.0
3511,50.0,0,0,0.0,52.0
3512,77.0,60,60,3.0,45.0
3513,70.0,0,60,3.0,45.0
3514,74.0,60,60,3.0,46.0
3515,65.0,60,60,3.0,46.0
3516,70.0,60,60,3.0,46.0
3517,62.0,60,60,3.0,46.0
3518,65.0,60,60,3.0,46.0
3519,58.0,60,60,3.0,47.0
3520,58.0,0,1436,0.0,50.0
3521,62.0,60,60,3.0,47.0
3522,53.0,0,60,3.0,47.0
3523,58.0,60,60,3.0,47.0
3524,50.0,60,60,3.0,48.0
3525,53.0,60,60,3.0,48.0
3526,74.0,60,252,0.0,54.0
3527,46.0,60,60,3.0,48.0
3528,75.0,0,60,0.0,52.0
3529,74.0,40,60,0.0,53.0
3530,50.0,20,60,3.0,48.0
3531,72.0,20,60,0.0,54.0
3532,41.0,40,60,3.0,48.0
3533,74.0,0,78,0.0,54.0
3534,46.0,60,60,3.0,49.0
3535,75.0,0,69,0.0,56.0
3536,38.0,60,60,3.0,49.0
3537,34.0,60,60,3.0,49.0
3538,38.0,60,60,3.0,49.0
3539,41.0,60,60,3.0,50.0
3540,46.0,60,60,3.0,50.0
3541,38.0,60,60,3.0,50.0
3542,41.0,60,60,3.0,50.0
3543,46.0,60,60,3.0,50.0
3544,77.0,0,480,0.0,57.0
3545,50.0,0,60,3.0,51.0
3546,46.0,60,60,3.0,51.0
3547,41.0,60,60,3.0,51.0
3548,38.0,60,60,3.0,51.0
3549,46.0,60,60,3.0,52.0
3550,41.0,60,60,3.0,52.0
3551,38.0,60,60,3.0,52.0
3552,58.0,60,480,0.0,59.0
3553,34.0,60,60,3.0,52.0
3554,51.0,0,435,0.0,61.0
3555,48.0,0,435,0.0,61.0
3556,50.0,0,60,0.0,63.0
3557,53.0,420,60,0.0,63.0
3558,29.0,0,480,3.0,52.0
3559,84.0,60,60,3.0,54.0
3560,87.0,60,60,3.0,55.0
3561,84.0,60,60,3.0,55.0
3562,81.0,60,60,3.0,55.0
3563,84.0,60,60,3.0,55.0
3564,78.0,60,60,3.0,55.0
3565,51.0,60,480,0.0,68.0
3566,81.0,60,60,3.0,56.0
3567,54.0,0,0,0.0,65.0
3568,75.0,0,60,3.0,56.0
3569,78.0,60,60,3.0,56.0
3570,72.0,60,60,3.0,56.0
3571,75.0,60,60,3.0,57.0
3572,69.0,60,60,3.0,57.0
3573,72.0,60,60,3.0,57.0
3574,66.0,60,60,3.0,57.0
3575,69.0,60,60,3.0,57.0
3576,57.0,60,1440,0.0,61.0
3577,51.0,60,480,0.0,65.0
3578,63.0,0,60,3.0,58.0
3579,66.0,60,60,3.0,58.0
3580,60.0,60,60,3.0,58.0
3581,63.0,60,60,3.0,58.0
3582,84.0,60,258,0.0,68.0
3583,57.0,60,60,3.0,59.0
3584,86.0,0,60,0.0,66.0
3585,84.0,40,60,0.0,66.0
3586,60.0,20,60,3.0,59.0
3587,83.0,20,60,0.0,67.0
3588,54.0,40,60,3.0,59.0
3589,84.0,0,75,0.0,68.0
3590,57.0,60,60,3.0,59.0
3591,86.0,0,75,0.0,69.0
3592,48.0,60,60,3.0,59.0
3593,54.0,60,60,3.0,60.0
3594,51.0,60,60,3.0,60.0
3595,57.0,60,60,3.0,60.0
3596,54.0,60,60,3.0,60.0
3597,60.0,60,60,3.0,61.0
3598,57.0,60,60,3.0,61.0
3599,54.0,60,60,3.0,61.0
3600,87.0,0,480,0.0,70.0
3601,51.0,60,60,3.0,61.0
3602,46.0,60,60,3.0,62.0
3603,54.0,60,60,3.0,62.0
3604,51.0,60,60,3.0,62.0
3605,58.0,60,60,3.0,62.0
3606,54.0,60,60,3.0,63.0
3607,51.0,60,60,3.0,63.0
3608,66.0,0,480,0.0,72.0
3609,63.0,60,480,0.0,72.0
3610,60.0,0,225,0.0,75.0
3611,63.0,0,225,0.0,75.0
3612,60.0,0,170,0.0,76.0
3613,57.0,240,170,0.0,76.0
3614,45.0,60,480,3.0,63.0
3615,59.0,180,60,0.0,77.0
3616,62.0,0,60,0.0,77.0
3617,84.0,60,60,3.0,65.0
3618,87.0,60,60,3.0,65.0
3619,84.0,60,60,3.0,65.0
3620,81.0,60,60,3.0,66.0
3621,84.0,60,60,3.0,66.0
3622,75.0,60,60,3.0,66.0
3623,60.0,60,480,0.0,81.0
3624,81.0,60,60,3.0,66.0
3625,63.0,0,480,0.0,81.0
3626,72.0,0,60,3.0,66.0
3627,75.0,60,60,3.0,67.0
3628,69.0,60,60,3.0,67.0
3629,65.0,0,1166,0.0,75.0
3630,60.0,60,225,0.0,79.0
3631,63.0,0,230,0.0,79.0
3632,72.0,60,60,3.0,67.0
3633,63.0,60,60,3.0,67.0
3634,69.0,60,60,3.0,68.0
3635,60.0,60,50,3.0,68.0
3636,84.0,0,120,0.0,81.0
3637,63.0,60,60,3.0,68.0
3638,57.0,0,60,3.0,68.0
3639,60.0,60,65,3.0,68.0
3640,53.0,60,55,3.0,69.0
3641,57.0,60,55,3.0,69.0
3642,84.0,60,249,0.0,81.0
3643,48.0,60,55,3.0,69.0
3644,86.0,0,60,0.0,79.0
3645,84.0,40,60,0.0,80.0
3646,53.0,20,55,3.0,69.0
3647,83.0,20,60,0.0,81.0
3648,45.0,0,55,3.0,70.0
3649,84.0,40,72,0.0,82.0
3650,48.0,60,55,3.0,70.0
3651,86.0,0,78,0.0,83.0
3652,41.0,0,55,3.0,70.0
3653,45.0,60,55,3.0,70.0
3654,36.0,60,55,3.0,70.0
3655,41.0,60,55,3.0,71.0
3656,33.0,60,55,3.0,71.0
3657,36.0,60,55,3.0,71.0
3658,29.0,60,55,3.0,71.0
3659,33.0,60,55,3.0,72.0
3660,87.0,60,480,0.0,85.0
3661,30.0,60,55,3.0,75.0
3662,33.0,60,55,3.0,72.0
3663,36.0,60,55,3.0,69.0
3664,42.0,60,55,3.0,67.0
3665,45.0,60,55,3.0,64.0
3666,48.0,60,55,3.0,61.0
3667,54.0,60,55,3.0,58.0
3668,69.0,60,480,1.0,78.0
3669,72.0,0,480,1.0,78.0
3670,75.0,0,480,0.0,86.0
3671,31.0,60,55,3.0,74.0
3672,34.0,60,55,3.0,71.0
3673,38.0,60,55,3.0,68.0
3674,70.0,60,240,1.0,80.0
3675,74.0,0,240,0.0,88.0
3676,43.0,60,55,3.0,65.0
3677,46.0,60,55,3.0,62.0
3678,50.0,60,55,3.0,59.0
3679,55.0,60,55,3.0,56.0
3680,40.0,60,55,3.0,73.0
3681,43.0,60,55,3.0,73.0
3682,46.0,60,55,3.0,72.0
3683,52.0,60,55,3.0,71.0
3684,55.0,60,55,3.0,70.0
3685,58.0,60,55,3.0,69.0
3686,55.0,60,55,3.0,68.0
3687,61.0,0,55,3.0,67.0
3688,58.0,60,55,3.0,65.0
3689,73.0,0,155,1.0,74.0
3690,67.0,0,155,1.0,74.0
3691,70.0,60,155,1.0,74.0
3692,55.0,60,55,3.0,64.0
3693,52.0,60,55,3.0,62.0
3694,49.0,60,55,3.0,61.0
3695,46.0,60,55,3.0,59.0
3696,43.0,60,55,3.0,58.0
3697,40.0,60,55,3.0,56.0
3698,79.0,60,960,0.0,102.0
3699,41.0,60,55,3.0,52.0
3700,46.0,60,55,3.0,52.0
3701,50.0,60,55,3.0,51.0
3702,53.0,60,55,3.0,50.0
3703,50.0,60,55,3.0,49.0
3704,46.0,60,55,3.0,48.0
3705,41.0,60,55,3.0,48.0
3706,41.0,60,55,3.0,46.0
3707,70.0,0,155,1.0,58.0
3708,65.0,60,155,1.0,58.0
3709,74.0,0,155,1.0,58.0
3710,46.0,60,55,3.0,45.0
3711,50.0,60,55,3.0,44.0
3712,53.0,60,55,3.0,43.0
3713,50.0,60,55,3.0,43.0
3714,46.0,60,55,3.0,42.0
3715,41.0,60,55,3.0,41.0
3716,77.0,60,960,0.0,77.0
3717,51.0,0,55,3.0,40.0
3718,48.0,60,55,3.0,39.0
3719,63.0,0,155,1.0,50.0
3720,69.0,0,155,1.0,50.0
3721,65.0,60,155,1.0,50.0
3722,45.0,60,55,3.0,38.0
3723,41.0,60,55,3.0,38.0
3724,39.0,60,55,3.0,37.0
3725,36.0,60,55,3.0,36.0
3726,33.0,60,55,3.0,35.0
3727,29.0,60,55,3.0,34.0
3728,58.0,0,155,1.0,43.0
3729,70.0,0,155,1.0,43.0
3730,62.0,0,155,1.0,43.0
3731,65.0,60,155,1.0,43.0
3732,34.0,0,360,3.0,34.0
3733,46.0,360,35,3.0,33.0
3734,34.0,40,35,3.0,31.0
3735,46.0,40,35,3.0,29.0
3736,34.0,40,155,3.0,28.0
3737,46.0,360,35,3.0,33.0
3738,34.0,40,35,3.0,31.0
3739,46.0,40,35,3.0,29.0
3740,34.0,40,155,3.0,27.0
3741,46.0,360,35,3.0,35.0
3742,34.0,40,35,3.0,34.0
3743,46.0,40,35,3.0,32.0
3744,34.0,40,155,3.0,31.0
3745,56.0,0,440,1.0,44.0
3746,58.0,0,440,1.0,44.0
3747,65.0,0,440,0.0,48.0
3748,63.0,480,440,0.0,51.0
3749,58.0,0,440,1.0,47.0
3750,55.0,0,440,1.0,47.0
3751,54.0,0,440,1.0,50.0
3752,58.0,480,440,1.0,50.0
3753,62.0,0,440,0.0,53.0
3754,46.0,360,35,3.0,39.0
3755,34.0,40,35,3.0,38.0
3756,54.0,0,440,1.0,53.0
3757,58.0,0,440,1.0,53.0
3758,62.0,480,440,0.0,53.0
3759,46.0,40,35,3.0,36.0
3760,34.0,40,155,3.0,35.0
3761,55.0,0,220,1.0,49.0
3762,58.0,0,220,1.0,49.0
3763,63.0,0,220,0.0,49.0
3764,46.0,360,35,3.0,39.0
3765,34.0,40,35,3.0,37.0
3766,46.0,40,35,3.0,36.0
3767,34.0,40,155,3.0,35.0
3768,46.0,360,35,3.0,38.0
3769,34.0,40,35,3.0,37.0
3770,46.0,40,35,3.0,36.0
3771,34.0,0,155,3.0,34.0
3772,58.0,0,440,1.0,54.0
3773,68.0,0,480,0.0,54.0
3774,65.0,40,480,1.0,54.0
3775,58.0,0,440,1.0,57.0
3776,67.0,480,480,0.0,57.0
3777,63.0,0,480,1.0,57.0
3778,58.0,0,440,1.0,60.0
3779,62.0,480,0,1.0,63.0
3780,66.0,0,0,0.0,63.0
3781,51.0,360,35,3.0,44.0
3782,39.0,40,35,3.0,42.0
3783,51.0,40,35,3.0,40.0
3784,39.0,40,155,3.0,38.0
3785,51.0,360,35,3.0,45.0
3786,39.0,40,35,3.0,44.0
3787,51.0,40,35,3.0,42.0
3788,58.0,0,960,1.0,63.0
3789,39.0,40,155,3.0,41.0
3790,63.0,0,700,1.0,58.0
3791,67.0,0,700,0.0,58.0
3792,51.0,120,35,3.0,45.0
3793,39.0,40,35,3.0,43.0
3794,67.0,240,220,0.0,61.0
3795,51.0,40,35,3.0,42.0
3796,39.0,0,155,3.0,41.0
3797,75.0,40,480,0.0,64.0
3798,67.0,0,480,1.0,61.0
3799,67.0,0,480,1.0,64.0
3800,72.0,480,480,0.0,66.0
3801,63.0,0,480,1.0,64.0
3802,62.0,0,480,1.0,69.0
3803,67.0,0,480,1.0,69.0
3804,70.0,480,480,0.0,68.0
3805,53.0,360,35,3.0,38.0
3806,41.0,40,35,3.0,37.0
3807,53.0,40,35,3.0,35.0
3808,60.0,0,480,1.0,50.0
3809,69.0,0,575,0.0,60.0
3810,65.0,480,575,1.0,50.0
3811,41.0,40,155,3.0,33.0
3812,89.0,120,35,3.0,40.0
3813,77.0,40,35,3.0,38.0
3814,60.0,240,220,1.0,48.0
3815,65.0,0,220,1.0,48.0
3816,69.0,0,220,0.0,48.0
3817,89.0,40,35,3.0,37.0
3818,65.0,0,220,1.0,49.0
3819,70.0,0,220,0.0,49.0
3820,77.0,40,220,3.0,35.0
3821,62.0,0,220,1.0,49.0
3822,72.0,0,220,0.0,51.0
3823,63.0,0,220,1.0,51.0
3824,65.0,240,220,1.0,51.0
3825,72.0,240,330,0.0,52.0
3826,63.0,0,330,1.0,52.0
3827,53.0,0,35,3.0,47.0
3828,41.0,40,35,3.0,45.0
3829,61.0,0,110,1.0,54.0
3830,69.0,360,110,0.0,54.0
3831,53.0,40,35,3.0,43.0
3832,62.0,0,155,1.0,55.0
3833,70.0,40,155,0.0,55.0
3834,41.0,0,155,3.0,41.0
3835,65.0,0,660,1.0,52.0
3836,89.0,120,35,3.0,48.0
3837,77.0,40,35,3.0,47.0
3838,70.0,0,220,0.0,57.0
3839,62.0,0,220,1.0,57.0
3840,65.0,240,220,1.0,57.0
3841,89.0,40,35,3.0,45.0
3842,65.0,0,220,1.0,58.0
3843,72.0,0,220,0.0,58.0
3844,69.0,0,220,1.0,58.0
3845,77.0,40,220,3.0,43.0
3846,70.0,0,220,1.0,59.0
3847,65.0,0,220,1.0,59.0
3848,74.0,240,220,0.0,59.0
3849,74.0,0,330,0.0,61.0
3850,70.0,0,330,1.0,61.0
3851,53.0,360,35,3.0,52.0
3852,41.0,40,35,3.0,51.0
3853,71.0,0,110,0.0,63.0
3854,68.0,0,110,1.0,63.0
3855,53.0,40,35,3.0,49.0
3856,69.0,0,155,1.0,64.0
3857,41.0,0,155,3.0,47.0
3858,72.0,40,155,0.0,64.0
3859,65.0,240,660,1.0,61.0
3860,89.0,120,35,3.0,57.0
3861,77.0,40,35,3.0,55.0
3862,69.0,0,220,1.0,65.0
3863,65.0,240,220,1.0,65.0
3864,72.0,0,220,0.0,65.0
3865,89.0,40,35,3.0,53.0
3866,77.0,0,220,3.0,51.0
3867,65.0,0,220,1.0,66.0
3868,74.0,0,220,0.0,66.0
3869,70.0,40,220,1.0,66.0
3870,75.0,0,220,0.0,68.0
3871,72.0,0,220,0.0,68.0
3872,65.0,240,220,1.0,68.0
3873,75.0,0,330,0.0,69.0
3874,72.0,240,330,1.0,69.0
3875,53.0,360,35,3.0,60.0
3876,41.0,40,35,3.0,58.0
3877,69.0,0,110,1.0,71.0
3878,73.0,0,110,0.0,71.0
3879,53.0,40,35,3.0,57.0
3880,74.0,0,155,0.0,72.0
3881,41.0,0,155,3.0,55.0
3882,70.0,40,155,1.0,72.0
3883,65.0,0,660,1.0,69.0
3884,89.0,120,35,3.0,64.0
3885,77.0,40,35,3.0,62.0
3886,70.0,0,220,1.0,73.0
3887,65.0,240,220,1.0,73.0
3888,74.0,0,220,0.0,73.0
3889,89.0,40,35,3.0,60.0
3890,67.0,0,220,1.0,75.0
3891,77.0,40,220,3.0,58.0
3892,73.0,0,220,1.0,75.0
3893,70.0,0,220,1.0,75.0
3894,76.0,0,220,0.0,75.0
3895,89.0,120,35,3.0,68.0
3896,77.0,40,35,3.0,66.0
3897,76.0,0,220,0.0,76.0
3898,70.0,0,220,1.0,76.0
3899,67.0,240,220,1.0,76.0
3900,73.0,0,220,1.0,76.0
3901,89.0,40,35,3.0,65.0
3902,69.0,0,220,1.0,68.0
3903,72.0,40,220,0.0,68.0
3904,77.0,0,220,3.0,63.0
3905,53.0,120,55,3.0,56.0
3906,41.0,60,40,3.0,53.0
3907,69.0,240,385,1.0,62.0
3908,65.0,0,385,1.0,62.0
3909,72.0,0,385,0.0,62.0
3910,53.0,60,155,3.0,51.0
3911,89.0,120,55,3.0,53.0
3912,72.0,240,220,0.0,59.0
3913,65.0,0,220,1.0,59.0
3914,69.0,0,220,1.0,59.0
3915,77.0,60,55,3.0,49.0
3916,70.0,0,220,1.0,58.0
3917,89.0,0,220,3.0,46.0
3918,76.0,60,220,0.0,58.0
3919,67.0,0,220,1.0,58.0
3920,67.0,0,220,1.0,56.0
3921,70.0,240,220,1.0,56.0
3922,72.0,0,220,0.0,56.0
3923,77.0,240,220,0.0,52.0
3924,69.0,0,220,1.0,52.0
3925,72.0,0,220,1.0,52.0
3926,53.0,120,55,3.0,48.0
3927,41.0,60,55,3.0,46.0
3928,72.0,0,385,0.0,55.0
3929,69.0,0,385,1.0,55.0
3930,65.0,240,385,1.0,55.0
3931,53.0,60,155,3.0,44.0
3932,89.0,120,55,3.0,46.0
3933,65.0,0,220,1.0,55.0
3934,72.0,240,220,0.0,55.0
3935,69.0,0,220,1.0,55.0
3936,77.0,60,55,3.0,43.0
3937,89.0,0,125,3.0,41.0
3938,76.0,0,220,0.0,54.0
3939,67.0,0,220,1.0,54.0
3940,70.0,60,220,1.0,54.0
3941,72.0,0,220,0.0,52.0
3942,70.0,240,220,1.0,52.0
3943,67.0,0,220,1.0,52.0
3944,77.0,0,220,0.0,50.0
3945,65.0,0,220,1.0,50.0
3946,69.0,240,220,1.0,50.0
3947,53.0,120,55,3.0,42.0
3948,41.0,60,55,3.0,40.0
3949,69.0,0,385,1.0,47.0
3950,65.0,0,385,1.0,47.0
3951,72.0,240,385,0.0,50.0
3952,53.0,60,220,3.0,37.0
3953,53.0,120,55,3.0,40.0
3954,41.0,60,55,3.0,36.0
3955,60.0,0,385,1.0,44.0
3956,65.0,240,385,1.0,44.0
3957,69.0,0,385,0.0,47.0
3958,53.0,60,220,3.0,33.0
3959,53.0,120,55,3.0,38.0
3960,41.0,60,55,3.0,35.0
3961,60.0,0,385,1.0,42.0
3962,65.0,0,390,0.0,45.0
3963,57.0,240,395,1.0,42.0
3964,53.0,60,360,3.0,33.0
3965,65.0,240,220,1.0,42.0
3966,64.0,240,220,1.0,45.0
3967,63.0,240,220,1.0,50.0
3968,67.0,120,55,0.0,53.0
3969,65.0,0,440,0.0,50.0
3970,62.0,240,220,1.0,54.0
3971,69.0,60,55,0.0,55.0
3972,70.0,60,55,0.0,57.0
3973,72.0,60,55,0.0,59.0
3974,74.0,60,55,0.0,61.0
3975,60.0,0,220,1.0,59.0
3976,63.0,0,220,1.0,59.0
3977,75.0,60,55,0.0,63.0
3978,58.0,240,475,2.0,58.0
3979,77.0,60,885,0.0,71.0
3980,70.0,0,440,1.0,66.0
3981,74.0,180,55,0.0,67.0
3982,65.0,0,480,2.0,57.0
3983,62.0,240,485,2.0,57.0
3984,58.0,240,475,2.0,56.0
3985,70.0,0,440,1.0,63.0
3986,82.0,0,440,0.0,66.0
3987,79.0,180,55,0.0,64.0
3988,63.0,0,475,2.0,55.0
3989,67.0,60,480,2.0,55.0
3990,58.0,240,475,2.0,53.0
3991,65.0,60,475,2.0,52.0
3992,62.0,0,475,2.0,52.0
3993,58.0,240,475,2.0,51.0
3994,77.0,0,885,0.0,64.0
3995,70.0,0,440,1.0,57.0
3996,58.0,240,220,2.0,48.0
3997,74.0,180,55,0.0,60.0
3998,65.0,0,475,2.0,50.0
3999,62.0,240,485,2.0,50.0
4000,55.0,0,220,2.0,47.0
4001,70.0,0,220,1.0,54.0
4002,75.0,60,440,0.0,60.0
4003,51.0,240,220,2.0,46.0
4004,67.0,0,220,1.0,52.0
4005,72.0,180,55,0.0,58.0
4006,46.0,0,2880,3.0,69.0
4007,53.0,240,475,2.0,43.0
4008,62.0,240,440,1.0,47.0
4009,65.0,0,440,1.0,47.0
4010,58.0,0,480,2.0,42.0
4011,70.0,60,960,0.0,57.0
4012,74.0,0,120,0.0,53.0
4013,53.0,240,475,2.0,41.0
4014,72.0,120,120,0.0,53.0
4015,70.0,120,120,0.0,52.0
4016,65.0,0,440,1.0,44.0
4017,60.0,240,465,2.0,39.0
4018,57.0,0,470,2.0,39.0
4019,41.0,0,1440,3.0,51.0
4020,72.0,120,120,0.0,52.0
4021,53.0,0,465,2.0,38.0
4022,72.0,0,420,0.0,51.0
4023,53.0,240,220,2.0,36.0
4024,57.0,0,465,2.0,37.0
4025,73.0,180,60,0.0,50.0
4026,65.0,0,660,1.0,41.0
4027,46.0,120,660,3.0,41.0
4028,58.0,0,220,2.0,34.0
4029,74.0,60,240,0.0,47.0
4030,50.0,240,220,3.0,41.0
4031,65.0,60,40,0.0,49.0
4032,67.0,60,40,0.0,50.0
4033,51.0,240,220,3.0,47.0
4034,69.0,60,40,0.0,52.0
4035,70.0,0,40,0.0,53.0
4036,72.0,60,40,0.0,55.0
4037,74.0,60,40,0.0,57.0
4038,75.0,60,40,0.0,58.0
4039,48.0,60,220,3.0,53.0
4040,69.0,120,110,1.0,61.0
4041,58.0,240,475,2.0,56.0
4042,77.0,0,905,0.0,65.0
4043,65.0,0,475,2.0,55.0
4044,62.0,0,475,2.0,55.0
4045,74.0,180,60,0.0,62.0
4046,58.0,240,470,2.0,53.0
4047,70.0,120,885,1.0,60.0
4048,82.0,0,425,0.0,62.0
4049,63.0,60,470,2.0,52.0
4050,67.0,0,475,2.0,52.0
4051,79.0,180,65,0.0,61.0
4052,58.0,240,475,2.0,50.0
4053,62.0,0,465,2.0,49.0
4054,65.0,0,470,2.0,49.0
4055,69.0,120,110,1.0,52.0
4056,58.0,240,475,2.0,47.0
4057,77.0,60,890,0.0,61.0
4058,70.0,120,440,1.0,51.0
4059,58.0,240,220,2.0,44.0
4060,62.0,0,470,2.0,46.0
4061,65.0,0,470,2.0,46.0
4062,74.0,180,60,0.0,58.0
4063,77.0,0,160,0.0,57.0
4064,55.0,60,220,2.0,43.0
4065,70.0,0,220,1.0,48.0
4066,75.0,120,245,0.0,57.0
4067,67.0,0,220,1.0,47.0
4068,51.0,120,220,2.0,41.0
4069,46.0,60,2865,3.0,63.0
4070,72.0,120,120,0.0,56.0
4071,62.0,120,220,1.0,40.0
4072,62.0,0,220,1.0,41.0
4073,65.0,240,220,1.0,43.0
4074,58.0,240,465,2.0,41.0
4075,53.0,0,885,3.0,46.0
4076,58.0,0,220,2.0,45.0
4077,62.0,240,220,1.0,45.0
4078,70.0,0,960,0.0,56.0
4079,62.0,0,480,2.0,43.0
4080,57.0,0,220,1.0,45.0
4081,57.0,0,221,2.0,45.0
4082,41.0,0,440,3.0,48.0
4083,29.0,0,440,3.0,48.0
4084,53.0,0,220,2.0,40.0
4085,57.0,240,220,1.0,40.0
4086,65.0,240,480,0.0,52.0
4087,53.0,0,240,1.0,42.0
4088,58.0,0,240,1.0,42.0
4089,62.0,240,240,0.0,50.0
4090,46.0,0,360,3.0,42.0
4091,46.0,360,40,3.0,27.0
4092,34.0,40,40,3.0,26.0
4093,46.0,40,40,3.0,24.0
4094,34.0,40,155,3.0,23.0
4095,46.0,360,40,3.0,29.0
4096,34.0,40,40,3.0,27.0
4097,46.0,40,40,3.0,26.0
4098,34.0,40,155,3.0,24.0
4099,58.0,240,0,0.0,42.0
4100,46.0,360,40,3.0,34.0
4101,34.0,40,40,3.0,33.0
4102,46.0,40,40,3.0,32.0
4103,34.0,0,155,3.0,30.0
4104,46.0,360,40,3.0,41.0
4105,34.0,40,40,3.0,39.0
4106,46.0,40,40,3.0,37.0
4107,34.0,40,155,3.0,35.0
4108,59.0,0,720,0.0,45.0
4109,50.0,0,960,1.0,44.0
4110,56.0,0,960,1.0,44.0
4111,59.0,240,0,0.0,51.0
4112,53.0,40,960,1.0,44.0
4113,46.0,360,40,3.0,45.0
4114,34.0,40,40,3.0,43.0
4115,46.0,40,40,3.0,41.0
4116,34.0,0,155,3.0,40.0
4117,46.0,360,40,3.0,49.0
4118,34.0,40,40,3.0,46.0
4119,46.0,40,40,3.0,44.0
4120,34.0,40,155,3.0,42.0
4121,62.0,40,720,0.0,54.0
4122,53.0,0,960,1.0,53.0
4123,59.0,0,960,1.0,53.0
4124,56.0,0,960,1.0,53.0
4125,62.0,240,0,0.0,60.0
4126,46.0,360,40,3.0,55.0
4127,34.0,40,40,3.0,53.0
4128,46.0,40,40,3.0,51.0
4129,34.0,0,155,3.0,50.0
4130,46.0,360,40,3.0,57.0
4131,34.0,40,40,3.0,55.0
4132,46.0,40,40,3.0,53.0
4133,65.0,40,480,0.0,62.0
4134,59.0,0,480,1.0,62.0
4135,56.0,0,480,1.0,62.0
4136,34.0,40,155,3.0,52.0
4137,46.0,360,40,3.0,60.0
4138,34.0,40,40,3.0,59.0
4139,46.0,40,40,3.0,57.0
4140,68.0,0,480,0.0,69.0
4141,62.0,0,480,1.0,67.0
4142,59.0,0,480,1.0,67.0
4143,65.0,0,480,1.0,67.0
4144,34.0,40,155,3.0,55.0
4145,56.0,360,40,3.0,59.0
4146,46.0,40,40,3.0,57.0
4147,56.0,40,40,3.0,55.0
4148,46.0,0,155,3.0,53.0
4149,56.0,360,40,3.0,51.0
4150,46.0,40,40,3.0,49.0
4151,71.0,0,960,0.0,79.0
4152,56.0,40,40,3.0,47.0
4153,62.0,0,0,1.0,49.0
4154,65.0,0,0,1.0,49.0
4155,68.0,40,480,1.0,56.0
4156,46.0,0,155,3.0,44.0
4157,70.0,40,240,0.0,59.0
4158,68.0,240,240,0.0,56.0
4159,46.0,360,40,3.0,44.0
4160,34.0,40,40,3.0,43.0
4161,66.0,240,480,0.0,52.0
4162,46.0,40,40,3.0,42.0
4163,34.0,40,155,3.0,40.0
4164,46.0,360,40,3.0,46.0
4165,34.0,40,40,3.0,44.0
4166,46.0,40,40,3.0,43.0
4167,34.0,40,155,3.0,41.0
4168,67.0,0,720,0.0,55.0
4169,63.0,0,960,1.0,45.0
4170,58.0,0,960,1.0,45.0
4171,70.0,240,240,0.0,61.0
4172,58.0,360,40,3.0,54.0
4173,46.0,40,40,3.0,52.0
4174,58.0,40,40,3.0,50.0
4175,46.0,40,155,3.0,48.0
4176,58.0,360,40,3.0,54.0
4177,46.0,40,40,3.0,52.0
4178,58.0,40,40,3.0,50.0
4179,75.0,240,960,0.0,62.0
4180,46.0,40,155,3.0,48.0
4181,72.0,0,240,0.0,58.0
4182,69.0,0,727,1.0,63.0
4183,66.0,0,960,1.0,63.0
4184,69.0,240,240,0.0,57.0
4185,63.0,0,960,1.0,63.0
4186,46.0,360,40,3.0,48.0
4187,34.0,40,40,3.0,47.0
4188,72.0,240,480,0.0,56.0
4189,46.0,40,40,3.0,45.0
4190,34.0,0,155,3.0,43.0
4191,46.0,360,40,3.0,46.0
4192,34.0,40,40,3.0,43.0
4193,62.0,0,480,1.0,46.0
4194,46.0,40,40,3.0,41.0
4195,65.0,40,0,1.0,44.0
4196,34.0,0,155,3.0,38.0
4197,70.0,0,720,0.0,53.0
4198,74.0,240,240,0.0,58.0
4199,68.0,0,480,1.0,44.0
4200,77.0,240,240,0.0,63.0
4201,58.0,120,40,3.0,56.0
4202,46.0,40,40,3.0,54.0
4203,58.0,40,40,3.0,52.0
4204,46.0,0,155,3.0,50.0
4205,70.0,40,240,1.0,55.0
4206,67.0,0,240,1.0,55.0
4207,58.0,120,40,3.0,51.0
4208,46.0,40,40,3.0,49.0
4209,75.0,240,720,0.0,68.0
4210,69.0,0,240,1.0,58.0
4211,58.0,40,40,3.0,48.0
4212,66.0,40,0,1.0,46.0
4213,46.0,0,155,3.0,46.0
4214,72.0,0,240,0.0,53.0
4215,63.0,0,240,1.0,46.0
4216,58.0,120,40,3.0,45.0
4217,46.0,40,40,3.0,43.0
4218,60.0,0,240,1.0,47.0
4219,69.0,240,240,0.0,49.0
4220,63.0,0,240,1.0,47.0
4221,66.0,0,240,1.0,47.0
4222,58.0,40,40,3.0,41.0
4223,70.0,0,240,0.0,44.0
4224,62.0,0,240,1.0,40.0
4225,65.0,0,240,1.0,40.0
4226,50.0,0,440,1.0,40.0
4227,48.0,420,60,1.0,43.0
4228,51.0,0,60,1.0,43.0
4229,50.0,0,480,1.0,52.0
4230,53.0,60,480,1.0,52.0
4231,65.0,60,40,0.0,43.0
4232,64.0,60,40,0.0,45.0
4233,65.0,60,40,0.0,46.0
4234,67.0,60,40,0.0,47.0
4235,69.0,60,40,0.0,48.0
4236,70.0,60,40,0.0,49.0
4237,72.0,60,40,0.0,51.0
4238,48.0,480,480,1.0,45.0
4239,46.0,40,1440,3.0,44.0
4240,51.0,0,480,1.0,45.0
4241,70.0,0,420,0.0,53.0
4242,74.0,0,425,0.0,53.0
4243,75.0,0,65,0.0,57.0
4244,72.0,420,65,0.0,57.0
4245,50.0,0,720,1.0,53.0
4246,46.0,0,720,1.0,53.0
4247,65.0,60,950,1.0,53.0
4248,77.0,60,480,0.0,61.0
4249,74.0,0,485,0.0,61.0
4250,53.0,60,40,1.0,58.0
4251,52.0,60,40,1.0,58.0
4252,53.0,60,40,1.0,59.0
4253,55.0,60,40,1.0,60.0
4254,57.0,60,40,1.0,61.0
4255,58.0,60,40,1.0,62.0
4256,60.0,60,40,1.0,63.0
4257,72.0,0,480,0.0,57.0
4258,65.0,0,0,1.0,66.0
4259,75.0,0,485,0.0,57.0
4260,70.0,0,180,0.0,66.0
4261,74.0,60,185,0.0,66.0
4262,58.0,0,425,1.0,71.0
4263,62.0,0,425,1.0,71.0
4264,60.0,420,60,1.0,70.0
4265,63.0,0,60,1.0,70.0
4266,62.0,60,465,1.0,74.0
4267,65.0,0,470,1.0,74.0
4268,34.0,480,480,3.0,53.0
4269,33.0,480,1410,3.0,42.0
4270,84.0,1440,252,0.0,44.0
4271,86.0,240,60,0.0,46.0
4272,84.0,40,60,0.0,47.0
4273,83.0,40,60,0.0,48.0
4274,84.0,40,78,0.0,49.0
4275,86.0,60,78,0.0,52.0
4276,87.0,60,440,0.0,58.0
4277,58.0,0,480,3.0,47.0
4278,66.0,480,480,0.0,60.0
4279,65.0,480,894,0.0,47.0
4280,67.0,880,60,0.0,34.0
4281,65.0,40,60,0.0,35.0
4282,64.0,40,60,0.0,36.0
4283,65.0,40,60,0.0,38.0
4284,67.0,40,60,0.0,39.0
4285,69.0,40,60,0.0,40.0
4286,70.0,40,60,0.0,41.0
4287,72.0,40,60,0.0,42.0
4288,74.0,40,60,0.0,43.0
4289,75.0,40,60,0.0,45.0
4290,77.0,40,60,0.0,46.0
4291,79.0,40,60,0.0,47.0
4292,81.0,40,60,0.0,48.0
4293,57.0,0,1440,3.0,43.0
4294,63.0,0,1920,2.0,47.0
4295,60.0,0,1920,2.0,47.0
4296,82.0,40,60,0.0,49.0
4297,84.0,40,249,0.0,54.0
4298,86.0,240,60,0.0,54.0
4299,84.0,40,60,0.0,56.0
4300,83.0,40,60,0.0,58.0
4301,84.0,40,84,0.0,60.0
4302,86.0,60,78,0.0,62.0
4303,87.0,60,420,0.0,68.0
4304,72.0,0,480,1.0,52.0
4305,54.0,0,480,3.0,52.0
4306,69.0,0,480,1.0,52.0
4307,75.0,480,480,0.0,63.0
4308,63.0,0,480,1.0,52.0
4309,70.0,0,240,1.0,47.0
4310,62.0,0,240,1.0,47.0
4311,58.0,0,240,1.0,47.0
4312,55.0,480,240,3.0,45.0
4313,74.0,0,240,0.0,52.0
4314,61.0,0,155,1.0,84.0
4315,58.0,240,155,1.0,84.0
4316,52.0,0,155,3.0,84.0
4317,70.0,240,155,1.0,80.0
4318,67.0,0,155,1.0,80.0
4319,73.0,0,155,1.0,80.0
4320,79.0,480,960,0.0,83.0
4321,62.0,240,155,1.0,54.0
4322,53.0,0,155,3.0,51.0
4323,58.0,0,155,1.0,54.0
4324,65.0,0,155,1.0,52.0
4325,74.0,240,155,1.0,52.0
4326,70.0,0,155,1.0,52.0
4327,41.0,240,155,2.0,49.0
4328,29.0,0,155,3.0,47.0
4329,77.0,480,960,0.0,66.0
4330,60.0,240,155,1.0,46.0
4331,69.0,0,155,1.0,46.0
4332,63.0,0,155,1.0,46.0
4333,53.0,240,155,2.0,43.0
4334,41.0,0,155,3.0,42.0
4335,58.0,0,155,1.0,40.0
4336,62.0,0,155,1.0,40.0
4337,70.0,0,155,0.0,40.0
4338,65.0,240,240,1.0,46.0
4339,77.0,0,240,0.0,46.0
4340,62.0,0,240,1.0,49.0
4341,74.0,240,240,0.0,49.0
4342,59.0,240,240,1.0,52.0
4343,71.0,0,240,0.0,52.0
4344,58.0,240,240,1.0,56.0
4345,70.0,0,240,0.0,56.0
4346,34.0,240,1415,3.0,40.0
4347,46.0,0,1415,3.0,40.0
4348,56.0,240,240,1.0,54.0
4349,68.0,0,240,0.0,54.0
4350,67.0,0,240,0.0,52.0
4351,55.0,0,240,1.0,52.0
4352,58.0,240,240,1.0,50.0
4353,70.0,0,240,0.0,50.0
4354,63.0,0,240,0.0,48.0
4355,51.0,240,240,1.0,48.0
4356,55.0,0,240,1.0,46.0
4357,67.0,240,240,0.0,46.0
4358,48.0,240,240,1.0,44.0
4359,60.0,0,240,0.0,44.0
4360,65.0,0,120,0.0,42.0
4361,53.0,240,120,1.0,42.0
4362,46.0,240,1415,3.0,52.0
4363,34.0,0,1415,3.0,52.0
4364,63.0,120,120,0.0,46.0
4365,51.0,0,120,1.0,46.0
4366,62.0,0,240,0.0,42.0
4367,50.0,120,240,1.0,42.0
4368,65.0,240,240,1.0,47.0
4369,62.0,240,240,1.0,49.0
4370,59.0,0,240,1.0,52.0
4371,74.0,240,480,0.0,52.0
4372,58.0,240,240,1.0,57.0
4373,74.0,0,40,0.0,46.0
4374,75.0,40,40,0.0,47.0
4375,74.0,40,40,0.0,49.0
4376,72.0,40,60,0.0,50.0
4377,46.0,0,1400,3.0,42.0
4378,74.0,60,60,0.0,52.0
4379,56.0,240,240,1.0,55.0
4380,55.0,0,240,1.0,53.0
4381,77.0,0,240,0.0,54.0
4382,58.0,0,240,1.0,51.0
4383,75.0,240,240,0.0,51.0
4384,51.0,240,240,1.0,49.0
4385,55.0,240,240,1.0,46.0
4386,48.0,240,240,1.0,44.0
4387,75.0,0,480,0.0,46.0
4388,69.0,0,40,0.0,36.0
4389,70.0,40,40,0.0,38.0
4390,69.0,40,40,0.0,39.0
4391,53.0,240,120,1.0,42.0
4392,67.0,0,60,0.0,40.0
4393,46.0,60,1415,3.0,53.0
4394,51.0,40,120,1.0,41.0
4395,69.0,60,60,0.0,42.0
4396,50.0,0,240,1.0,41.0
4397,70.0,60,240,0.0,44.0
4398,53.0,240,120,1.0,44.0
4399,46.0,0,445,3.0,41.0
4400,69.0,0,120,0.0,40.0
4401,51.0,120,120,1.0,40.0
4402,70.0,0,240,0.0,39.0
4403,50.0,0,240,1.0,39.0
4404,53.0,240,120,1.0,42.0
4405,46.0,120,445,3.0,39.0
4406,69.0,0,120,1.0,38.0
4407,72.0,120,120,0.0,38.0
4408,51.0,0,120,1.0,38.0
4409,70.0,0,240,1.0,37.0
4410,74.0,0,240,0.0,37.0
4411,50.0,0,240,1.0,37.0
4412,53.0,240,120,1.0,40.0
4413,46.0,120,445,3.0,37.0
4414,81.0,0,120,0.0,35.0
4415,72.0,120,120,1.0,35.0
4416,51.0,0,120,1.0,35.0
4417,50.0,0,240,1.0,34.0
4418,82.0,0,240,0.0,37.0
4419,74.0,0,240,1.0,34.0
4420,46.0,120,260,3.0,34.0
4421,86.0,240,180,0.0,43.0
4422,84.0,60,0,0.0,44.0
4423,82.0,480,240,0.0,33.0
4424,34.0,240,257,3.0,31.0
4425,69.0,2520,120,0.0,46.0
4426,77.0,120,120,0.0,46.0
4427,76.0,120,120,0.0,46.0
4428,74.0,120,120,0.0,46.0
4429,62.0,120,120,2.0,46.0
4430,69.0,0,120,0.0,47.0
4431,65.0,120,120,2.0,47.0
4432,77.0,120,120,0.0,47.0
4433,50.0,0,720,3.0,46.0
4434,57.0,120,600,2.0,46.0
4435,76.0,120,120,0.0,47.0
4436,74.0,120,120,0.0,47.0
4437,62.0,120,120,2.0,47.0
4438,65.0,120,120,2.0,47.0
4439,69.0,0,120,0.0,47.0
4440,77.0,120,120,0.0,48.0
4441,76.0,120,120,0.0,48.0
4442,50.0,0,720,3.0,47.0
4443,57.0,120,605,2.0,47.0
4444,74.0,120,120,0.0,48.0
4445,62.0,120,120,2.0,48.0
4446,69.0,0,120,0.0,48.0
4447,65.0,120,120,2.0,48.0
4448,77.0,120,120,0.0,48.0
4449,50.0,0,720,3.0,48.0
4450,74.0,120,120,0.0,49.0
4451,57.0,120,600,2.0,48.0
4452,76.0,0,120,0.0,49.0
4453,61.0,120,120,2.0,49.0
4454,64.0,120,120,2.0,49.0
4455,69.0,0,120,0.0,49.0
4456,79.0,120,120,0.0,49.0
4457,77.0,120,120,0.0,50.0
4458,45.0,120,0,3.0,50.0
4459,57.0,120,605,2.0,49.0
4460,76.0,0,120,0.0,50.0
4461,61.0,120,120,2.0,50.0
4462,64.0,0,120,2.0,50.0
4463,69.0,120,120,0.0,50.0
4464,79.0,120,120,0.0,50.0
4465,77.0,120,120,0.0,50.0
4466,57.0,120,605,2.0,50.0
4467,76.0,0,120,0.0,51.0
4468,61.0,120,120,2.0,51.0
4469,64.0,0,120,2.0,51.0
4470,69.0,120,120,0.0,51.0
4471,79.0,120,120,0.0,51.0
4472,77.0,120,120,0.0,51.0
4473,45.0,0,0,3.0,51.0
4474,57.0,120,600,2.0,51.0
4475,76.0,120,120,0.0,51.0
4476,61.0,120,120,2.0,52.0
4477,69.0,120,120,0.0,52.0
4478,64.0,0,120,2.0,52.0
4479,79.0,120,120,0.0,52.0
4480,57.0,120,590,2.0,52.0
4481,76.0,120,120,0.0,52.0
4482,77.0,0,120,0.0,52.0
4483,62.0,120,120,2.0,53.0
4484,74.0,120,120,0.0,52.0
4485,65.0,0,120,2.0,52.0
4486,81.0,120,120,0.0,53.0
4487,86.0,120,120,0.0,54.0
4488,57.0,120,600,2.0,52.0
4489,50.0,120,720,3.0,52.0
4490,82.0,120,120,0.0,55.0
4491,62.0,120,120,2.0,56.0
4492,70.0,120,120,0.0,58.0
4493,74.0,120,120,0.0,59.0
4494,67.0,120,480,2.0,57.0
4495,82.0,120,120,0.0,60.0
4496,55.0,0,725,3.0,59.0
4497,79.0,0,120,0.0,61.0
4498,67.0,120,120,0.0,64.0
4499,70.0,120,120,0.0,65.0
4500,58.0,120,590,2.0,62.0
4501,79.0,120,120,0.0,66.0
4502,63.0,120,480,2.0,63.0
4503,51.0,120,725,3.0,64.0
4504,76.0,120,120,0.0,67.0
4505,64.0,120,120,0.0,62.0
4506,69.0,120,120,0.0,61.0
4507,57.0,120,590,2.0,64.0
4508,76.0,120,120,0.0,60.0
4509,61.0,120,480,2.0,63.0
4510,49.0,0,720,3.0,69.0
4511,77.0,0,120,0.0,59.0
4512,65.0,120,120,0.0,56.0
4513,69.0,120,120,0.0,55.0
4514,62.0,120,470,2.0,57.0
4515,57.0,120,590,2.0,58.0
4516,50.0,120,720,3.0,60.0
4517,77.0,120,120,0.0,54.0
4518,74.0,0,120,0.0,56.0
4519,62.0,120,120,0.0,63.0
4520,69.0,120,120,0.0,65.0
4521,53.0,120,585,2.0,59.0
4522,45.0,120,710,3.0,56.0
4523,74.0,120,120,0.0,68.0
4524,57.0,120,485,2.0,61.0
4525,73.0,120,120,0.0,70.0
4526,61.0,120,120,0.0,76.0
4527,69.0,120,120,0.0,79.0
4528,45.0,0,720,3.0,70.0
4529,55.0,120,480,2.0,74.0
4530,73.0,120,120,0.0,81.0
4531,57.0,0,360,2.0,76.0
4532,52.0,120,605,2.0,72.0
4533,74.0,0,120,0.0,80.0
4534,50.0,120,120,2.0,83.0
4535,53.0,120,120,2.0,80.0
4536,57.0,120,120,2.0,77.0
4537,62.0,120,120,2.0,74.0
4538,65.0,0,120,0.0,79.0
4539,69.0,120,120,0.0,76.0
4540,74.0,120,120,0.0,73.0
4541,77.0,120,120,0.0,69.0
4542,81.0,120,120,0.0,66.0
4543,77.0,120,120,0.0,63.0
4544,86.0,120,120,0.0,60.0
4545,38.0,120,1412,3.0,86.0
4546,81.0,120,120,0.0,57.0
4547,82.0,120,120,0.0,55.0
4548,70.0,120,120,0.0,61.0
4549,74.0,120,120,0.0,63.0
4550,82.0,120,120,0.0,65.0
4551,62.0,120,600,2.0,57.0
4552,67.0,120,480,2.0,59.0
4553,55.0,0,720,3.0,60.0
4554,79.0,120,120,0.0,67.0
4555,67.0,120,120,0.0,61.0
4556,70.0,120,120,0.0,60.0
4557,63.0,120,470,2.0,62.0
4558,58.0,120,590,2.0,63.0
4559,51.0,0,720,3.0,68.0
4560,79.0,120,120,0.0,59.0
4561,76.0,120,120,0.0,58.0
4562,64.0,120,120,0.0,55.0
4563,69.0,120,120,0.0,54.0
4564,61.0,120,470,2.0,56.0
4565,57.0,120,590,2.0,57.0
4566,49.0,0,710,3.0,58.0
4567,76.0,120,120,0.0,53.0
4568,77.0,120,120,0.0,53.0
4569,65.0,120,120,0.0,50.0
4570,69.0,120,120,0.0,49.0
4571,50.0,0,710,3.0,53.0
4572,57.0,120,600,2.0,52.0
4573,77.0,120,120,0.0,48.0
4574,62.0,120,485,2.0,51.0
4575,74.0,120,120,0.0,47.0
4576,62.0,120,120,0.0,49.0
4577,69.0,120,120,0.0,52.0
4578,45.0,0,705,3.0,50.0
4579,57.0,120,470,2.0,47.0
4580,53.0,120,600,2.0,46.0
4581,74.0,120,120,0.0,55.0
4582,73.0,0,120,0.0,58.0
4583,61.0,0,120,0.0,67.0
4584,69.0,120,120,0.0,70.0
4585,57.0,120,350,2.0,67.0
4586,45.0,120,715,3.0,58.0
4587,52.0,120,600,2.0,61.0
4588,55.0,120,480,2.0,64.0
4589,73.0,120,120,0.0,73.0
4590,74.0,0,120,0.0,76.0
4591,53.0,120,120,2.0,83.0
4592,57.0,0,120,2.0,85.0
4593,62.0,120,120,2.0,87.0
4594,81.0,60,480,0.0,89.0
4595,80.0,360,120,0.0,81.0
4596,79.0,120,120,0.0,77.0
4597,78.0,120,120,0.0,73.0
4598,77.0,120,120,0.0,70.0
4599,76.0,120,120,0.0,66.0
4600,50.0,120,1440,3.0,76.0
4601,75.0,120,120,0.0,63.0
4602,69.0,60,1267,0.0,80.0
4603,74.0,0,120,0.0,59.0
4604,62.0,120,120,0.0,48.0
4605,69.0,120,120,0.0,52.0
4606,57.0,120,465,2.0,50.0
4607,53.0,120,585,2.0,53.0
4608,45.0,120,710,3.0,56.0
4609,74.0,120,120,0.0,56.0
4610,73.0,120,120,0.0,60.0
4611,61.0,120,120,0.0,71.0
4612,69.0,120,120,0.0,75.0
4613,55.0,120,465,2.0,67.0
4614,45.0,0,705,3.0,60.0
4615,57.0,0,345,2.0,71.0
4616,52.0,120,590,2.0,64.0
4617,73.0,120,120,0.0,79.0
4618,74.0,120,120,0.0,83.0
4619,53.0,120,120,2.0,90.0
4620,57.0,60,120,2.0,93.0
4621,62.0,120,120,2.0,97.0
4622,86.0,0,480,0.0,99.0
4623,85.0,360,120,0.0,91.0
4624,84.0,120,120,0.0,86.0
4625,83.0,120,120,0.0,80.0
4626,82.0,120,120,0.0,75.0
4627,81.0,120,120,0.0,70.0
4628,80.0,120,120,0.0,65.0
4629,50.0,0,1440,3.0,83.0
4630,74.0,60,1267,0.0,89.0
4631,81.0,120,120,0.0,60.0
4632,62.0,120,120,0.0,53.0
4633,69.0,120,120,0.0,56.0
4634,57.0,120,465,2.0,53.0
4635,53.0,120,585,2.0,57.0
4636,45.0,0,710,3.0,60.0
4637,74.0,120,120,0.0,58.0
4638,73.0,120,120,0.0,61.0
4639,52.0,120,120,2.0,63.0
4640,45.0,0,360,3.0,61.0
4641,55.0,120,120,2.0,66.0
4642,33.0,120,120,3.0,70.0
4643,73.0,0,120,0.0,66.0
4644,41.0,120,120,3.0,70.0
4645,81.0,0,120,0.0,63.0
4646,85.0,0,120,0.0,60.0
4647,40.0,120,120,3.0,71.0
4648,86.0,0,120,0.0,57.0
4649,50.0,120,120,0.0,52.0
4650,38.0,120,240,3.0,71.0
4651,53.0,120,120,0.0,53.0
4652,33.0,120,120,3.0,72.0
4653,57.0,0,120,0.0,54.0
4654,62.0,120,120,0.0,55.0
4655,41.0,0,120,3.0,73.0
4656,40.0,120,120,3.0,73.0
4657,38.0,120,240,3.0,73.0
4658,50.0,120,120,0.0,58.0
4659,53.0,120,120,0.0,59.0
4660,57.0,0,120,0.0,60.0
4661,33.0,120,120,3.0,74.0
4662,41.0,0,120,3.0,75.0
4663,62.0,120,120,0.0,61.0
4664,40.0,120,120,3.0,75.0
4665,50.0,120,120,0.0,64.0
4666,38.0,120,240,3.0,75.0
4667,53.0,120,120,0.0,65.0
4668,33.0,120,120,3.0,77.0
4669,57.0,0,120,0.0,66.0
4670,41.0,120,120,3.0,77.0
4671,62.0,0,120,0.0,67.0
4672,38.0,120,120,3.0,77.0
4673,50.0,120,120,0.0,85.0
4674,53.0,120,120,0.0,76.0
4675,59.0,120,120,0.0,76.0
4676,62.0,120,120,0.0,77.0
4677,65.0,120,120,0.0,78.0
4678,43.0,0,720,3.0,90.0
4679,31.0,0,720,3.0,90.0
4680,71.0,120,120,0.0,78.0
4681,60.0,0,120,0.0,78.0
4682,48.0,0,155,3.0,82.0
4683,36.0,120,155,3.0,82.0
4684,72.0,120,120,0.0,79.0
4685,64.0,0,120,0.0,80.0
4686,52.0,120,155,3.0,84.0
4687,76.0,120,120,0.0,82.0
4688,67.0,120,120,0.0,83.0
4689,55.0,0,155,3.0,87.0
4690,79.0,120,120,0.0,84.0
4691,72.0,120,120,0.0,86.0
4692,60.0,0,155,3.0,90.0
4693,84.0,120,120,0.0,87.0
4694,76.0,120,120,0.0,88.0
4695,64.0,0,155,3.0,93.0
4696,88.0,120,120,0.0,91.0
4697,72.0,120,120,0.0,90.0
4698,60.0,0,155,3.0,91.0
4699,84.0,120,120,0.0,88.0
4700,67.0,0,120,0.0,87.0
4701,55.0,120,155,3.0,88.0
4702,79.0,120,120,0.0,85.0
4703,64.0,120,120,0.0,84.0
4704,52.0,0,155,3.0,85.0
4705,76.0,120,120,0.0,82.0
4706,67.0,120,120,0.0,81.0
4707,55.0,0,155,3.0,82.0
4708,79.0,120,120,0.0,79.0
4709,64.0,0,120,0.0,78.0
4710,52.0,120,155,3.0,79.0
4711,76.0,120,120,0.0,76.0
4712,48.0,120,80,3.0,74.0
4713,60.0,0,120,0.0,75.0
4714,31.0,0,80,3.0,74.0
4715,72.0,120,120,0.0,73.0
4716,40.0,120,120,3.0,75.0
4717,38.0,120,120,3.0,75.0
4718,48.0,120,120,0.0,56.0
4719,36.0,120,240,3.0,76.0
4720,52.0,120,120,0.0,58.0
4721,55.0,120,120,0.0,59.0
4722,31.0,0,120,3.0,78.0
4723,60.0,0,120,0.0,60.0
4724,40.0,120,120,3.0,78.0
4725,38.0,120,120,3.0,79.0
4726,36.0,120,240,3.0,80.0
4727,48.0,120,120,0.0,63.0
4728,52.0,120,120,0.0,65.0
4729,31.0,0,120,3.0,82.0
4730,55.0,120,120,0.0,66.0
4731,60.0,0,120,0.0,67.0
4732,40.0,120,120,3.0,82.0
4733,38.0,120,120,3.0,83.0
4734,48.0,120,120,0.0,71.0
4735,36.0,120,240,3.0,84.0
4736,52.0,120,120,0.0,72.0
4737,31.0,0,120,3.0,86.0
4738,55.0,120,120,0.0,73.0
4739,60.0,0,120,0.0,74.0
4740,40.0,120,120,3.0,86.0
4741,36.0,120,120,3.0,87.0
4742,62.0,120,80,0.0,84.0
4743,50.0,0,240,1.0,79.0
4744,57.0,120,0,1.0,83.0
4745,62.0,120,80,0.0,81.0
4746,50.0,0,240,1.0,83.0
4747,63.0,120,80,0.0,77.0
4748,57.0,120,240,1.0,79.0
4749,51.0,0,240,1.0,79.0
4750,29.0,0,720,3.0,79.0
4751,41.0,120,720,3.0,95.0
4752,52.0,0,160,1.0,75.0
4753,56.0,0,160,1.0,75.0
4754,64.0,0,160,0.0,75.0
4755,28.0,0,192,3.0,75.0
4756,40.0,120,192,3.0,75.0
4757,77.0,240,65,0.0,64.0
4758,79.0,40,65,0.0,64.0
4759,62.0,0,120,2.0,62.0
4760,59.0,0,192,3.0,64.0
4761,77.0,40,160,0.0,65.0
4762,64.0,40,120,2.0,63.0
4763,76.0,120,185,0.0,66.0
4764,56.0,0,192,3.0,66.0
4765,64.0,120,120,2.0,65.0
4766,77.0,0,65,0.0,68.0
4767,79.0,40,65,0.0,68.0
4768,62.0,120,120,2.0,66.0
4769,59.0,0,192,3.0,68.0
4770,77.0,40,160,0.0,69.0
4771,64.0,40,120,2.0,66.0
4772,76.0,120,185,0.0,70.0
4773,56.0,0,192,3.0,70.0
4774,64.0,120,120,2.0,68.0
4775,77.0,0,65,0.0,72.0
4776,79.0,40,65,0.0,72.0
4777,62.0,0,120,2.0,69.0
4778,59.0,120,192,3.0,72.0
4779,64.0,40,120,2.0,70.0
4780,77.0,40,163,0.0,73.0
4781,76.0,0,185,0.0,74.0
4782,56.0,120,192,3.0,74.0
4783,64.0,120,120,2.0,72.0
4784,77.0,0,65,0.0,76.0
4785,79.0,40,65,0.0,76.0
4786,62.0,120,120,2.0,73.0
4787,59.0,0,192,3.0,76.0
4788,64.0,40,120,2.0,74.0
4789,77.0,40,163,0.0,77.0
4790,76.0,0,180,0.0,78.0
4791,56.0,120,192,3.0,78.0
4792,64.0,120,120,2.0,76.0
4793,77.0,120,65,0.0,80.0
4794,79.0,40,65,0.0,80.0
4795,62.0,0,120,2.0,77.0
4796,59.0,0,192,3.0,80.0
4797,64.0,40,120,2.0,78.0
4798,77.0,40,160,0.0,81.0
4799,76.0,0,185,0.0,82.0
4800,56.0,120,192,3.0,82.0
4801,64.0,120,120,2.0,79.0
4802,77.0,0,65,0.0,84.0
4803,79.0,40,65,0.0,84.0
4804,62.0,120,120,2.0,80.0
4805,59.0,0,192,3.0,84.0
4806,77.0,40,160,0.0,84.0
4807,64.0,40,120,2.0,81.0
4808,76.0,0,180,0.0,88.0
4809,56.0,120,192,3.0,86.0
4810,64.0,120,120,2.0,83.0
4811,62.0,0,120,2.0,96.0
4812,59.0,0,192,3.0,96.0
4813,64.0,120,120,2.0,85.0
4814,56.0,120,192,3.0,84.0
4815,64.0,120,120,2.0,82.0
4816,62.0,120,120,2.0,81.0
4817,59.0,0,192,3.0,81.0
4818,64.0,120,120,2.0,80.0
4819,77.0,120,720,0.0,96.0
4820,76.0,0,155,0.0,85.0
4821,56.0,120,192,3.0,79.0
4822,64.0,120,120,2.0,77.0
4823,62.0,0,120,2.0,76.0
4824,74.0,0,155,0.0,81.0
4825,59.0,120,192,3.0,77.0
4826,64.0,120,120,2.0,74.0
4827,72.0,0,80,0.0,78.0
4828,74.0,40,80,0.0,77.0
4829,57.0,120,192,3.0,74.0
4830,64.0,40,120,2.0,72.0
4831,72.0,40,163,0.0,76.0
4832,71.0,120,155,0.0,74.0
4833,60.0,0,192,3.0,72.0
4834,64.0,120,120,2.0,69.0
4835,69.0,120,155,0.0,71.0
4836,57.0,0,192,3.0,70.0
4837,64.0,120,120,2.0,67.0
4838,68.0,120,155,0.0,67.0
4839,52.0,0,192,3.0,68.0
4840,62.0,120,120,2.0,64.0
4841,69.0,0,155,0.0,63.0
4842,59.0,120,192,3.0,65.0
4843,62.0,120,120,2.0,61.0
4844,71.0,120,155,0.0,60.0
4845,52.0,0,192,3.0,63.0
4846,62.0,120,120,2.0,59.0
4847,60.0,0,120,2.0,57.0
4848,69.0,120,155,0.0,56.0
4849,57.0,0,192,3.0,61.0
4850,64.0,120,120,2.0,56.0
4851,77.0,0,120,0.0,55.0
4852,62.0,0,120,2.0,55.0
4853,59.0,120,192,3.0,59.0
4854,89.0,0,120,0.0,68.0
4855,64.0,120,120,2.0,68.0
4856,56.0,120,192,3.0,61.0
4857,76.0,0,240,0.0,69.0
4858,88.0,0,120,0.0,69.0
4859,64.0,120,120,2.0,69.0
4860,62.0,0,120,2.0,70.0
4861,59.0,120,192,3.0,63.0
4862,89.0,120,120,0.0,71.0
4863,77.0,0,240,0.0,70.0
4864,64.0,0,120,2.0,70.0
4865,56.0,120,192,3.0,65.0
4866,64.0,0,120,2.0,72.0
4867,76.0,0,240,0.0,72.0
4868,88.0,120,120,0.0,73.0
4869,62.0,0,120,2.0,72.0
4870,59.0,120,192,3.0,68.0
4871,77.0,0,240,0.0,74.0
4872,89.0,0,120,0.0,75.0
4873,64.0,120,120,2.0,73.0
4874,56.0,0,192,3.0,70.0
4875,64.0,0,120,2.0,74.0
4876,88.0,120,120,0.0,77.0
4877,76.0,120,240,0.0,76.0
4878,59.0,0,192,3.0,72.0
4879,77.0,120,240,0.0,77.0
4880,89.0,120,120,0.0,78.0
4881,64.0,0,120,2.0,75.0
4882,56.0,120,192,3.0,75.0
4883,88.0,120,120,0.0,80.0
4884,64.0,0,120,2.0,76.0
4885,76.0,0,240,0.0,79.0
4886,62.0,120,120,2.0,77.0
4887,59.0,0,192,3.0,77.0
4888,89.0,0,120,0.0,82.0
4889,64.0,120,120,2.0,78.0
4890,77.0,0,240,0.0,81.0
4891,56.0,0,192,3.0,80.0
4892,64.0,0,120,2.0,79.0
4893,76.0,120,240,0.0,83.0
4894,88.0,120,120,0.0,84.0
4895,62.0,0,120,2.0,80.0
4896,59.0,120,192,3.0,82.0
4897,64.0,120,120,2.0,80.0
4898,89.0,0,120,0.0,86.0
4899,77.0,0,240,0.0,85.0
4900,56.0,0,192,3.0,84.0
4901,88.0,120,240,0.0,86.0
4902,76.0,0,240,0.0,86.0
4903,64.0,120,120,2.0,81.0
4904,62.0,0,120,2.0,94.0
4905,59.0,120,192,3.0,94.0
4906,64.0,120,120,2.0,87.0
4907,56.0,120,192,3.0,84.0
4908,64.0,120,120,2.0,84.0
4909,62.0,0,120,2.0,82.0
4910,77.0,0,635,0.0,94.0
4911,89.0,0,635,0.0,94.0
4912,59.0,120,192,3.0,81.0
4913,64.0,120,120,2.0,81.0
4914,88.0,120,155,0.0,85.0
4915,76.0,0,155,0.0,85.0
4916,56.0,0,192,3.0,78.0
4917,64.0,120,120,2.0,78.0
4918,62.0,0,120,2.0,76.0
4919,74.0,0,155,0.0,81.0
4920,86.0,120,155,0.0,81.0
4921,59.0,0,192,3.0,75.0
4922,64.0,120,120,2.0,75.0
4923,84.0,120,155,0.0,78.0
4924,72.0,0,155,0.0,78.0
4925,57.0,0,192,3.0,72.0
4926,64.0,120,120,2.0,72.0
4927,83.0,120,155,0.0,74.0
4928,71.0,0,155,0.0,74.0
4929,60.0,0,192,3.0,70.0
4930,64.0,120,120,2.0,69.0
4931,69.0,0,155,0.0,71.0
4932,81.0,0,155,0.0,71.0
4933,57.0,120,192,3.0,67.0
4934,64.0,120,120,2.0,66.0
4935,80.0,0,155,0.0,67.0
4936,68.0,0,155,0.0,67.0
4937,52.0,120,192,3.0,64.0
4938,62.0,120,120,2.0,63.0
4939,69.0,0,155,0.0,64.0
4940,81.0,0,155,0.0,64.0
4941,59.0,120,192,3.0,61.0
4942,62.0,120,120,2.0,60.0
4943,83.0,120,155,0.0,60.0
4944,71.0,0,155,0.0,60.0
4945,52.0,0,192,3.0,58.0
4946,62.0,120,120,2.0,57.0
4947,53.0,0,192,3.0,56.0
4948,69.0,120,240,0.0,57.0
4949,81.0,0,240,0.0,57.0
4950,60.0,120,120,2.0,54.0
4951,77.0,0,155,0.0,54.0
4952,89.0,0,155,0.0,54.0
4953,57.0,120,192,3.0,54.0
4954,60.0,120,120,2.0,56.0
4955,89.0,0,155,0.0,57.0
4956,77.0,0,155,0.0,57.0
4957,53.0,120,192,3.0,57.0
4958,60.0,120,120,2.0,59.0
4959,77.0,120,155,0.0,60.0
4960,89.0,0,155,0.0,60.0
4961,50.0,0,192,3.0,60.0
4962,58.0,120,120,2.0,62.0
4963,88.0,0,155,0.0,63.0
4964,76.0,120,155,0.0,63.0
4965,53.0,0,192,3.0,63.0
4966,58.0,120,120,2.0,65.0
4967,86.0,0,155,0.0,66.0
4968,74.0,120,155,0.0,66.0
4969,50.0,0,192,3.0,66.0
4970,58.0,120,120,2.0,67.0
4971,84.0,120,155,0.0,69.0
4972,72.0,0,155,0.0,69.0
4973,52.0,0,192,3.0,69.0
4974,60.0,120,120,2.0,70.0
4975,83.0,0,155,0.0,72.0
4976,71.0,0,155,0.0,72.0
4977,57.0,120,192,3.0,72.0
4978,60.0,120,120,2.0,73.0
4979,81.0,120,155,0.0,75.0
4980,69.0,0,155,0.0,75.0
4981,52.0,0,192,3.0,75.0
4982,60.0,120,120,2.0,76.0
4983,80.0,0,155,0.0,77.0
4984,68.0,120,155,0.0,77.0
4985,50.0,0,192,3.0,77.0
4986,59.0,120,120,2.0,79.0
4987,81.0,120,155,0.0,80.0
4988,69.0,0,155,0.0,80.0
4989,52.0,0,192,3.0,80.0
4990,59.0,120,120,2.0,82.0
4991,71.0,0,155,0.0,83.0
4992,83.0,120,155,0.0,83.0
4993,50.0,0,192,3.0,83.0
4994,59.0,120,120,2.0,85.0
4995,48.0,120,192,3.0,86.0
4996,81.0,0,240,0.0,86.0
4997,57.0,120,120,2.0,88.0
4998,69.0,0,240,0.0,86.0
4999,77.0,0,155,0.0,89.0
5000,89.0,0,155,0.0,89.0
5001,47.0,120,192,3.0,89.0
5002,57.0,120,120,2.0,89.0
5003,77.0,120,155,0.0,88.0
5004,89.0,0,155,0.0,88.0
5005,48.0,0,192,3.0,88.0
5006,57.0,120,120,2.0,87.0
5007,89.0,0,155,0.0,87.0
5008,77.0,0,155,0.0,87.0
5009,50.0,120,192,3.0,87.0
5010,59.0,0,120,2.0,86.0
5011,57.0,120,120,2.0,86.0
5012,76.0,0,155,0.0,86.0
5013,88.0,0,155,0.0,86.0
5014,48.0,120,192,3.0,86.0
5015,57.0,120,120,2.0,85.0
5016,59.0,0,120,2.0,85.0
5017,74.0,120,155,0.0,84.0
5018,86.0,0,155,0.0,84.0
5019,50.0,0,192,3.0,84.0
5020,59.0,120,120,2.0,84.0
5021,57.0,0,120,2.0,84.0
5022,84.0,0,155,0.0,83.0
5023,72.0,0,155,0.0,83.0
5024,52.0,120,192,3.0,83.0
5025,57.0,120,120,2.0,82.0
5026,60.0,0,120,2.0,82.0
5027,83.0,0,155,0.0,82.0
5028,71.0,120,155,0.0,82.0
5029,51.0,0,192,3.0,82.0
5030,60.0,0,120,2.0,81.0
5031,57.0,120,120,2.0,81.0
5032,69.0,120,155,0.0,81.0
5033,81.0,0,155,0.0,81.0
5034,52.0,0,192,3.0,81.0
5035,57.0,120,120,2.0,80.0
5036,60.0,0,120,2.0,80.0
5037,80.0,0,155,0.0,79.0
5038,68.0,0,155,0.0,79.0
5039,52.0,120,192,3.0,79.0
5040,62.0,0,120,2.0,79.0
5041,59.0,120,120,2.0,79.0
5042,81.0,0,155,0.0,78.0
5043,69.0,0,155,0.0,78.0
5044,52.0,120,192,3.0,78.0
5045,60.0,0,120,2.0,78.0
5046,57.0,120,120,2.0,78.0
5047,71.0,0,155,0.0,77.0
5048,83.0,120,155,0.0,77.0
5049,52.0,0,192,3.0,77.0
5050,56.0,0,120,2.0,76.0
5051,59.0,120,120,2.0,76.0
5052,81.0,0,240,0.0,74.0
5053,69.0,120,240,0.0,74.0
5054,60.0,120,120,2.0,60.0
5055,57.0,120,192,2.0,61.0
5056,60.0,120,120,2.0,61.0
5057,69.0,0,120,0.0,62.0
5058,52.0,120,192,2.0,62.0
5059,45.0,120,0,3.0,64.0
5060,60.0,0,120,2.0,63.0
5061,81.0,120,120,0.0,63.0
5062,60.0,120,120,2.0,64.0
5063,72.0,0,240,0.0,64.0
5064,57.0,120,192,2.0,65.0
5065,60.0,120,120,2.0,66.0
5066,72.0,0,120,0.0,66.0
5067,52.0,120,192,2.0,66.0
5068,84.0,120,120,0.0,67.0
5069,45.0,120,0,3.0,68.0
5070,60.0,0,120,2.0,67.0
5071,76.0,0,240,0.0,68.0
5072,60.0,120,120,2.0,69.0
5073,57.0,120,192,2.0,69.0
5074,60.0,120,120,2.0,70.0
5075,76.0,0,120,0.0,71.0
5076,52.0,120,192,2.0,71.0
5077,60.0,120,120,2.0,71.0
5078,45.0,120,0,3.0,72.0
5079,88.0,0,120,0.0,71.0
5080,60.0,120,120,2.0,73.0
5081,72.0,0,240,0.0,72.0
5082,57.0,120,192,2.0,74.0
5083,60.0,120,120,2.0,74.0
5084,72.0,0,120,0.0,75.0
5085,52.0,120,192,2.0,75.0
5086,60.0,120,120,2.0,76.0
5087,84.0,0,120,0.0,76.0
5088,60.0,120,120,2.0,77.0
5089,57.0,0,192,2.0,78.0
5090,60.0,120,120,2.0,79.0
5091,52.0,120,192,2.0,79.0
5092,60.0,120,120,2.0,80.0
5093,40.0,120,0,3.0,81.0
5094,81.0,120,720,0.0,90.0
5095,69.0,120,960,0.0,81.0
5096,62.0,120,120,2.0,81.0
5097,71.0,0,155,0.0,84.0
5098,83.0,0,155,0.0,84.0
5099,59.0,120,192,2.0,82.0
5100,62.0,120,120,2.0,83.0
5101,68.0,120,155,0.0,81.0
5102,80.0,0,155,0.0,81.0
5103,52.0,0,192,2.0,84.0
5104,62.0,120,120,2.0,84.0
5105,60.0,120,120,2.0,70.0
5106,81.0,120,240,0.0,78.0
5107,69.0,0,240,0.0,78.0
5108,57.0,120,192,2.0,71.0
5109,69.0,0,120,0.0,71.0
5110,60.0,120,120,2.0,71.0
5111,81.0,120,120,0.0,72.0
5112,52.0,0,192,2.0,72.0
5113,60.0,120,120,2.0,73.0
5114,45.0,120,0,3.0,74.0
5115,69.0,0,120,0.0,73.0
5116,72.0,0,240,0.0,74.0
5117,60.0,120,120,2.0,75.0
5118,57.0,120,192,2.0,76.0
5119,60.0,120,120,2.0,76.0
5120,72.0,0,120,0.0,76.0
5121,84.0,0,120,0.0,77.0
5122,52.0,120,192,2.0,77.0
5123,60.0,120,120,2.0,78.0
5124,45.0,120,0,3.0,79.0
5125,72.0,0,120,0.0,78.0
5126,76.0,0,120,0.0,79.0
5127,60.0,120,120,2.0,80.0
5128,57.0,120,192,2.0,80.0
5129,76.0,120,120,0.0,81.0
5130,60.0,0,120,2.0,81.0
5131,88.0,120,120,0.0,82.0
5132,52.0,0,192,2.0,82.0
5133,60.0,0,120,2.0,83.0
5134,76.0,120,120,0.0,83.0
5135,60.0,120,120,2.0,84.0
5136,72.0,120,240,0.0,84.0
5137,57.0,120,192,2.0,85.0
5138,60.0,0,120,2.0,86.0
5139,72.0,120,120,0.0,86.0
5140,84.0,120,120,0.0,87.0
5141,52.0,0,192,2.0,87.0
5142,45.0,0,720,3.0,84.0
5143,72.0,0,120,0.0,88.0
5144,60.0,120,120,2.0,88.0
5145,60.0,120,120,2.0,89.0
5146,57.0,0,192,2.0,90.0
5147,60.0,120,120,2.0,91.0
5148,52.0,120,192,2.0,92.0
5149,60.0,120,120,2.0,93.0
5150,40.0,120,0,3.0,95.0
5151,81.0,120,720,0.0,101.0
5152,69.0,0,960,0.0,94.0
5153,62.0,120,120,2.0,94.0
5154,71.0,0,155,0.0,94.0
5155,83.0,0,155,0.0,94.0
5156,59.0,120,192,2.0,93.0
5157,62.0,120,120,2.0,91.0
5158,68.0,0,155,0.0,91.0
5159,80.0,0,156,0.0,91.0
5160,52.0,120,192,2.0,90.0
5161,62.0,120,120,2.0,88.0
5162,69.0,0,240,0.0,88.0
5163,57.0,120,120,2.0,88.0
5164,81.0,120,240,0.0,88.0
5165,56.0,0,192,3.0,90.0
5166,57.0,120,120,2.0,91.0
5167,71.0,120,240,0.0,90.0
5168,83.0,0,240,0.0,90.0
5169,55.0,0,192,3.0,93.0
5170,57.0,120,120,2.0,95.0
5171,73.0,120,240,0.0,93.0
5172,85.0,0,240,0.0,93.0
5173,53.0,0,192,3.0,97.0
5174,86.0,120,240,0.0,97.0
5175,57.0,120,120,2.0,96.0
5176,74.0,0,240,0.0,97.0
5177,52.0,0,192,3.0,96.0
5178,57.0,120,120,2.0,95.0
5179,72.0,120,240,0.0,94.0
5180,84.0,0,240,0.0,94.0
5181,51.0,0,192,3.0,94.0
5182,57.0,120,120,2.0,93.0
5183,71.0,0,240,0.0,92.0
5184,83.0,120,240,0.0,92.0
5185,45.0,0,1447,3.0,86.0
5186,52.0,120,192,3.0,92.0
5187,72.0,0,240,0.0,90.0
5188,57.0,120,120,2.0,91.0
5189,84.0,0,240,0.0,90.0
5190,59.0,0,192,3.0,90.0
5191,80.0,120,240,0.0,88.0
5192,52.0,120,120,2.0,89.0
5193,68.0,0,240,0.0,88.0
5194,60.0,120,192,3.0,89.0
5195,69.0,0,240,0.0,86.0
5196,81.0,0,240,0.0,86.0
5197,52.0,120,120,2.0,88.0
5198,62.0,0,192,3.0,87.0
5199,52.0,120,120,2.0,86.0
5200,83.0,120,240,0.0,84.0
5201,71.0,0,240,0.0,84.0
5202,60.0,0,192,3.0,85.0
5203,52.0,120,120,2.0,84.0
5204,66.0,120,240,0.0,82.0
5205,78.0,0,240,0.0,82.0
5206,59.0,120,192,3.0,83.0
5207,52.0,120,120,2.0,83.0
5208,68.0,0,240,0.0,80.0
5209,80.0,0,240,0.0,80.0
5210,57.0,0,120,2.0,82.0
5211,81.0,120,120,0.0,83.0
5212,69.0,120,240,0.0,82.0
5213,56.0,120,192,3.0,83.0
5214,71.0,0,240,0.0,84.0
5215,83.0,120,120,0.0,86.0
5216,57.0,0,120,2.0,84.0
5217,55.0,120,192,3.0,85.0
5218,85.0,120,120,0.0,89.0
5219,73.0,0,240,0.0,87.0
5220,57.0,0,120,2.0,85.0
5221,53.0,0,192,3.0,91.0
5222,86.0,0,120,0.0,91.0
5223,74.0,120,240,0.0,91.0
5224,57.0,120,120,2.0,91.0
5225,52.0,120,192,3.0,90.0
5226,57.0,120,120,2.0,89.0
5227,84.0,0,120,0.0,89.0
5228,72.0,0,240,0.0,90.0
5229,51.0,0,192,3.0,88.0
5230,57.0,120,120,2.0,87.0
5231,83.0,0,120,0.0,87.0
5232,71.0,120,240,0.0,88.0
5233,45.0,0,1447,3.0,82.0
5234,52.0,0,192,3.0,86.0
5235,57.0,120,120,2.0,85.0
5236,84.0,0,120,0.0,85.0
5237,72.0,120,240,0.0,86.0
5238,65.0,120,192,3.0,83.0
5239,68.0,0,240,0.0,84.0
5240,80.0,120,120,0.0,83.0
5241,52.0,0,120,2.0,83.0
5242,64.0,0,192,3.0,82.0
5243,69.0,120,240,0.0,82.0
5244,81.0,0,120,0.0,82.0
5245,52.0,120,120,2.0,82.0
5246,62.0,0,192,3.0,81.0
5247,71.0,120,240,0.0,81.0
5248,83.0,0,120,0.0,80.0
5249,52.0,120,120,2.0,80.0
5250,60.0,0,192,3.0,79.0
5251,66.0,120,240,0.0,79.0
5252,78.0,0,120,0.0,78.0
5253,52.0,120,120,2.0,78.0
5254,68.0,0,120,0.0,77.0
5255,59.0,120,192,3.0,77.0
5256,52.0,0,120,2.0,76.0
5257,80.0,120,120,0.0,76.0
5258,57.0,120,120,2.0,73.0
5259,69.0,0,240,0.0,74.0
5260,81.0,0,120,0.0,72.0
5261,68.0,120,120,1.0,72.0
5262,56.0,0,120,2.0,72.0
5263,45.0,120,444,3.0,82.0
5264,69.0,0,120,1.0,72.0
5265,57.0,120,120,2.0,72.0
5266,57.0,0,120,2.0,71.0
5267,81.0,0,240,0.0,71.0
5268,69.0,120,120,1.0,71.0
5269,68.0,0,120,1.0,79.0
5270,56.0,120,120,2.0,79.0
5271,45.0,120,372,3.0,71.0
5272,69.0,0,120,1.0,69.0
5273,57.0,120,120,2.0,69.0
5274,57.0,120,120,2.0,68.0
5275,81.0,120,240,0.0,69.0
5276,69.0,0,120,1.0,68.0
5277,56.0,0,120,2.0,68.0
5278,68.0,120,120,1.0,68.0
5279,45.0,0,372,3.0,69.0
5280,69.0,0,120,1.0,67.0
5281,57.0,120,120,2.0,67.0
5282,69.0,0,120,1.0,66.0
5283,81.0,0,240,0.0,75.0
5284,57.0,120,120,2.0,66.0
5285,68.0,120,120,1.0,65.0
5286,56.0,0,120,2.0,65.0
5287,45.0,120,372,3.0,75.0
5288,69.0,120,120,1.0,65.0
5289,57.0,0,120,2.0,65.0
5290,57.0,0,120,2.0,64.0
5291,81.0,0,240,0.0,64.0
5292,69.0,120,120,1.0,64.0
5293,56.0,120,120,2.0,72.0
5294,68.0,0,120,1.0,72.0
5295,45.0,120,372,3.0,64.0
5296,69.0,120,120,1.0,62.0
5297,57.0,0,120,2.0,62.0
5298,57.0,120,120,2.0,61.0
5299,69.0,0,120,1.0,60.0
5300,81.0,120,240,0.0,62.0
5301,68.0,0,120,1.0,58.0
5302,56.0,120,120,2.0,61.0
5303,45.0,0,372,3.0,62.0
5304,69.0,120,120,1.0,56.0
5305,57.0,0,0,2.0,52.0
5306,70.0,120,192,0.0,52.0
5307,69.0,120,120,1.0,52.0
5308,61.0,0,240,2.0,52.0
5309,64.0,0,240,2.0,52.0
5310,70.0,120,192,0.0,52.0
5311,69.0,120,120,1.0,53.0
5312,70.0,120,192,0.0,53.0
5313,69.0,120,120,1.0,54.0
5314,70.0,120,192,0.0,54.0
5315,69.0,120,120,1.0,55.0
5316,70.0,120,192,0.0,55.0
5317,69.0,120,120,1.0,55.0
5318,70.0,120,192,0.0,56.0
5319,69.0,120,120,1.0,56.0
5320,70.0,120,156,0.0,57.0
5321,69.0,120,120,1.0,57.0
5322,70.0,120,156,0.0,58.0
5323,69.0,120,120,1.0,58.0
5324,73.0,120,156,0.0,60.0
5325,69.0,120,120,1.0,61.0
5326,74.0,120,156,0.0,63.0
5327,69.0,120,120,1.0,64.0
5328,76.0,120,120,0.0,66.0
5329,69.0,120,120,0.0,68.0
5330,77.0,120,120,0.0,69.0
5331,76.0,120,120,0.0,71.0
5332,75.0,0,120,0.0,58.0
5333,69.0,120,120,2.0,47.0
5334,72.0,120,120,2.0,40.0
5335,75.0,120,120,0.0,40.0
5336,81.0,120,120,0.0,40.0
5337,66.0,120,710,3.0,50.0
5338,82.0,120,120,0.0,41.0
5339,84.0,0,120,0.0,41.0
5340,69.0,120,120,2.0,40.0
5341,72.0,120,120,2.0,40.0
5342,75.0,120,120,0.0,42.0
5343,81.0,120,120,0.0,42.0
5344,66.0,120,710,3.0,44.0
5345,82.0,120,120,0.0,43.0
5346,84.0,120,120,0.0,43.0
5347,69.0,120,120,2.0,41.0
5348,72.0,120,120,2.0,41.0
5349,75.0,120,120,0.0,44.0
5350,81.0,120,120,0.0,45.0
5351,66.0,0,705,3.0,46.0
5352,82.0,120,120,0.0,45.0
5353,84.0,120,120,0.0,45.0
5354,69.0,120,120,2.0,42.0
5355,72.0,120,120,2.0,42.0
5356,74.0,120,120,0.0,47.0
5357,84.0,120,120,0.0,47.0
5358,66.0,0,695,3.0,48.0
5359,81.0,120,120,0.0,47.0
5360,82.0,120,120,0.0,50.0
5361,46.0,0,120,0.0,50.0
5362,50.0,120,120,0.0,51.0
5363,34.0,120,570,2.0,50.0
5364,31.0,0,690,3.0,57.0
5365,38.0,120,455,2.0,50.0
5366,43.0,120,345,2.0,50.0
5367,55.0,120,120,0.0,51.0
5368,58.0,0,120,0.0,51.0
5369,58.0,120,120,0.0,52.0
5370,62.0,120,120,0.0,52.0
5371,46.0,120,570,2.0,51.0
5372,50.0,120,450,2.0,52.0
5373,55.0,0,345,2.0,52.0
5374,43.0,120,705,3.0,51.0
5375,67.0,120,120,0.0,53.0
5376,70.0,120,120,0.0,53.0
5377,70.0,0,120,0.0,54.0
5378,74.0,120,120,0.0,54.0
5379,58.0,120,560,2.0,53.0
5380,67.0,120,335,2.0,54.0
5381,62.0,120,455,2.0,53.0
5382,55.0,0,695,3.0,53.0
5383,79.0,120,120,0.0,54.0
5384,67.0,0,120,3.0,53.0
5385,82.0,120,120,0.0,54.0
5386,70.0,120,120,3.0,55.0
5387,74.0,120,120,3.0,58.0
5388,77.0,0,120,0.0,57.0
5389,72.0,120,120,3.0,61.0
5390,83.0,120,120,0.0,52.0
5391,71.0,0,120,3.0,58.0
5392,84.0,120,120,0.0,47.0
5393,69.0,0,120,3.0,55.0
5394,86.0,120,120,0.0,46.0
5395,71.0,120,120,2.0,46.0
5396,74.0,120,120,2.0,46.0
5397,77.0,120,120,0.0,46.0
5398,83.0,120,120,0.0,47.0
5399,68.0,0,690,3.0,52.0
5400,84.0,120,120,0.0,47.0
5401,86.0,120,120,0.0,47.0
5402,71.0,120,120,2.0,47.0
5403,74.0,120,120,2.0,47.0
5404,77.0,120,120,0.0,47.0
5405,83.0,120,120,0.0,47.0
5406,68.0,0,695,3.0,47.0
5407,84.0,120,120,0.0,48.0
5408,86.0,120,120,0.0,48.0
5409,71.0,120,120,2.0,48.0
5410,74.0,120,120,2.0,48.0
5411,77.0,120,120,0.0,48.0
5412,83.0,120,120,0.0,48.0
5413,68.0,0,690,3.0,48.0
5414,84.0,120,120,0.0,48.0
5415,86.0,0,120,0.0,49.0
5416,71.0,120,120,2.0,49.0
5417,74.0,120,120,2.0,49.0
5418,76.0,120,120,0.0,49.0
5419,86.0,120,120,0.0,49.0
5420,68.0,120,690,3.0,49.0
5421,83.0,120,120,0.0,49.0
5422,84.0,120,120,0.0,50.0
5423,48.0,0,120,0.0,58.0
5424,52.0,120,120,0.0,58.0
5425,45.0,120,330,2.0,58.0
5426,40.0,120,450,2.0,58.0
5427,33.0,0,695,3.0,65.0
5428,36.0,120,575,2.0,58.0
5429,57.0,120,120,0.0,59.0
5430,60.0,0,120,0.0,59.0
5431,60.0,0,120,0.0,60.0
5432,64.0,120,120,0.0,60.0
5433,48.0,120,570,2.0,59.0
5434,52.0,120,455,2.0,59.0
5435,57.0,120,335,2.0,60.0
5436,45.0,120,710,3.0,59.0
5437,69.0,120,120,0.0,60.0
5438,72.0,0,120,0.0,60.0
5439,72.0,120,120,0.0,61.0
5440,76.0,120,120,0.0,61.0
5441,57.0,120,690,3.0,60.0
5442,64.0,120,455,2.0,61.0
5443,69.0,0,335,2.0,61.0
5444,60.0,120,585,2.0,60.0
5445,81.0,120,120,0.0,61.0
5446,84.0,120,120,0.0,59.0
5447,45.0,120,120,3.0,50.0
5448,46.0,120,120,3.0,50.0
5449,43.0,120,120,3.0,51.0
5450,52.0,120,120,3.0,51.0
5451,50.0,120,120,3.0,52.0
5452,49.0,120,120,3.0,52.0
5453,58.0,120,120,0.0,46.0
5454,64.0,120,120,0.0,46.0
5455,67.0,0,120,0.0,47.0
5456,49.0,120,120,3.0,53.0
5457,55.0,0,120,3.0,54.0
5458,70.0,120,120,0.0,47.0
5459,53.0,120,120,3.0,54.0
5460,52.0,120,120,3.0,55.0
5461,61.0,120,120,0.0,48.0
5462,67.0,120,120,0.0,49.0
5463,52.0,0,120,3.0,56.0
5464,70.0,120,120,0.0,49.0
5465,58.0,120,120,3.0,56.0
5466,73.0,0,120,0.0,49.0
5467,57.0,120,120,3.0,57.0
5468,55.0,120,120,3.0,57.0
5469,70.0,120,120,0.0,50.0
5470,73.0,120,120,0.0,51.0
5471,55.0,120,120,3.0,58.0
5472,76.0,0,120,0.0,51.0
5473,64.0,120,120,3.0,59.0
5474,79.0,0,120,0.0,52.0
5475,62.0,120,120,3.0,59.0
5476,61.0,120,120,3.0,56.0
5477,76.0,120,120,0.0,53.0
5478,82.0,120,120,0.0,53.0
5479,81.0,0,120,0.0,51.0
5480,41.0,120,120,3.0,52.0
5481,45.0,120,120,3.0,53.0
5482,43.0,120,120,3.0,54.0
5483,41.0,120,120,3.0,54.0
5484,62.0,120,120,0.0,55.0
5485,65.0,120,120,0.0,55.0
5486,69.0,0,120,0.0,56.0
5487,41.0,120,120,3.0,56.0
5488,53.0,120,120,3.0,57.0
5489,74.0,0,120,0.0,56.0
5490,52.0,120,120,3.0,58.0
5491,50.0,120,120,3.0,58.0
5492,65.0,120,120,0.0,57.0
5493,69.0,120,120,0.0,57.0
5494,74.0,120,120,0.0,58.0
5495,50.0,0,120,3.0,60.0
5496,77.0,0,120,0.0,58.0
5497,57.0,120,120,3.0,61.0
5498,55.0,120,120,3.0,62.0
5499,53.0,120,120,3.0,63.0
5500,69.0,120,120,0.0,59.0
5501,74.0,120,120,0.0,60.0
5502,77.0,0,120,0.0,60.0
5503,53.0,120,120,3.0,65.0
5504,81.0,0,120,0.0,60.0
5505,65.0,120,120,3.0,65.0
5506,64.0,120,120,3.0,66.0
5507,62.0,120,120,3.0,67.0
5508,65.0,120,120,3.0,67.0
5509,68.0,120,120,3.0,62.0
5510,80.0,120,120,0.0,59.0
5511,74.0,120,120,0.0,59.0
5512,75.0,120,120,0.0,59.0
5513,77.0,120,120,0.0,57.0
5514,38.0,120,120,2.0,60.0
5515,41.0,120,120,2.0,60.0
5516,44.0,0,120,2.0,60.0
5517,77.0,120,120,0.0,60.0
5518,47.0,0,120,2.0,60.0
5519,71.0,120,120,0.0,60.0
5520,72.0,120,120,0.0,60.0
5521,74.0,120,120,0.0,57.0
5522,41.0,120,120,2.0,60.0
5523,44.0,120,120,2.0,61.0
5524,74.0,120,120,0.0,61.0
5525,47.0,0,120,2.0,61.0
5526,50.0,120,120,2.0,61.0
5527,65.0,0,120,0.0,61.0
5528,67.0,120,120,0.0,61.0
5529,68.0,120,120,0.0,59.0
5530,47.0,120,120,2.0,61.0
5531,50.0,120,120,2.0,61.0
5532,53.0,120,120,2.0,62.0
5533,68.0,0,120,0.0,62.0
5534,62.0,0,120,0.0,62.0
5535,56.0,120,120,2.0,62.0
5536,63.0,120,120,0.0,62.0
5537,65.0,120,120,0.0,60.0
5538,56.0,120,120,3.0,71.0
5539,55.0,120,120,3.0,70.0
5540,79.0,120,120,0.0,62.0
5541,53.0,0,120,3.0,69.0
5542,51.0,0,120,3.0,68.0
5543,72.0,120,120,0.0,63.0
5544,74.0,0,120,0.0,63.0
5545,50.0,120,120,3.0,67.0
5546,75.0,120,120,0.0,61.0
5547,48.0,0,120,3.0,66.0
5548,39.0,120,120,2.0,63.0
5549,43.0,120,120,2.0,63.0
5550,75.0,120,120,0.0,63.0
5551,48.0,0,120,2.0,63.0
5552,67.0,120,120,0.0,63.0
5553,71.0,120,120,0.0,64.0
5554,72.0,120,120,0.0,63.0
5555,43.0,120,120,2.0,64.0
5556,48.0,120,120,2.0,64.0
5557,51.0,120,120,2.0,64.0
5558,72.0,0,120,0.0,64.0
5559,63.0,120,120,0.0,64.0
5560,65.0,120,120,0.0,64.0
5561,67.0,120,120,0.0,62.0
5562,48.0,120,120,2.0,65.0
5563,51.0,120,120,2.0,65.0
5564,67.0,0,120,0.0,65.0
5565,55.0,120,120,2.0,65.0
5566,60.0,120,120,0.0,65.0
5567,62.0,120,120,0.0,65.0
5568,63.0,120,120,0.0,65.0
5569,60.0,120,120,0.0,65.0
5570,55.0,120,120,0.0,62.0
5571,36.0,120,120,3.0,62.0
5572,48.0,120,120,3.0,62.0
5573,46.0,120,120,3.0,63.0
5574,45.0,120,120,3.0,63.0
5575,54.0,120,120,0.0,54.0
5576,60.0,120,120,0.0,54.0
5577,63.0,0,120,0.0,55.0
5578,45.0,120,120,3.0,65.0
5579,66.0,120,120,0.0,52.0
5580,51.0,0,120,3.0,66.0
5581,49.0,120,120,3.0,66.0
5582,48.0,120,120,3.0,67.0
5583,57.0,120,120,0.0,56.0
5584,63.0,120,120,0.0,57.0
5585,48.0,120,120,3.0,69.0
5586,66.0,0,120,0.0,57.0
5587,54.0,120,120,3.0,69.0
5588,69.0,0,120,0.0,58.0
5589,53.0,120,120,3.0,70.0
5590,51.0,120,120,3.0,70.0
5591,66.0,120,120,0.0,59.0
5592,69.0,120,120,0.0,59.0
5593,72.0,0,120,0.0,59.0
5594,51.0,120,120,3.0,72.0
5595,60.0,120,120,3.0,73.0
5596,75.0,0,120,0.0,60.0
5597,58.0,120,120,3.0,73.0
5598,57.0,120,120,3.0,68.0
5599,72.0,120,120,0.0,61.0
5600,78.0,120,120,0.0,61.0
5601,37.0,0,120,3.0,66.0
5602,77.0,120,120,0.0,61.0
5603,49.0,120,120,3.0,67.0
5604,48.0,120,120,3.0,67.0
5605,46.0,120,120,3.0,68.0
5606,61.0,120,120,0.0,63.0
5607,65.0,120,120,0.0,64.0
5608,70.0,120,120,0.0,64.0
5609,46.0,0,120,3.0,70.0
5610,53.0,0,120,3.0,70.0
5611,73.0,120,120,0.0,64.0
5612,51.0,120,120,3.0,71.0
5613,49.0,120,120,3.0,71.0
5614,65.0,120,120,0.0,66.0
5615,70.0,120,120,0.0,66.0
5616,73.0,120,120,0.0,66.0
5617,49.0,0,120,3.0,73.0
5618,77.0,120,120,0.0,67.0
5619,61.0,0,120,3.0,74.0
5620,60.0,120,120,3.0,74.0
5621,58.0,120,120,3.0,75.0
5622,70.0,120,120,0.0,68.0
5623,73.0,120,120,0.0,68.0
5624,77.0,120,120,0.0,69.0
5625,58.0,0,120,3.0,77.0
5626,65.0,120,120,3.0,77.0
5627,82.0,0,120,0.0,69.0
5628,63.0,120,120,3.0,75.0
5629,61.0,120,120,3.0,72.0
5630,65.0,120,120,3.0,72.0
5631,70.0,120,120,3.0,72.0
5632,89.0,120,120,0.0,76.0
5633,82.0,120,120,0.0,73.0
5634,84.0,120,120,0.0,73.0
5635,85.0,120,120,0.0,70.0
5636,39.0,120,120,2.0,73.0
5637,42.0,120,120,2.0,73.0
5638,85.0,120,120,0.0,73.0
5639,46.0,0,120,2.0,73.0
5640,78.0,120,120,0.0,73.0
5641,80.0,120,120,0.0,74.0
5642,82.0,120,120,0.0,73.0
5643,42.0,120,120,2.0,74.0
5644,46.0,120,120,2.0,74.0
5645,82.0,0,120,0.0,74.0
5646,51.0,120,120,2.0,74.0
5647,73.0,120,120,0.0,74.0
5648,77.0,120,120,0.0,74.0
5649,78.0,120,120,0.0,73.0
5650,46.0,120,120,2.0,75.0
5651,51.0,120,120,2.0,75.0
5652,54.0,0,120,2.0,75.0
5653,78.0,120,120,0.0,75.0
5654,70.0,120,120,0.0,75.0
5655,72.0,120,120,0.0,75.0
5656,73.0,120,120,0.0,72.0
5657,51.0,120,120,2.0,76.0
5658,54.0,120,120,2.0,76.0
5659,89.0,0,120,0.0,80.0
5660,58.0,120,120,2.0,76.0
5661,82.0,120,120,0.0,76.0
5662,84.0,120,120,0.0,76.0
5663,85.0,120,120,0.0,75.0
5664,41.0,120,120,2.0,76.0
5665,46.0,120,120,2.0,77.0
5666,85.0,120,120,0.0,77.0
5667,49.0,0,120,2.0,77.0
5668,77.0,120,120,0.0,77.0
5669,81.0,120,120,0.0,77.0
5670,82.0,120,120,0.0,73.0
5671,46.0,120,120,2.0,76.0
5672,49.0,120,120,2.0,76.0
5673,53.0,120,120,2.0,77.0
5674,82.0,0,120,0.0,77.0
5675,73.0,120,120,0.0,77.0
5676,75.0,120,120,0.0,77.0
5677,77.0,120,120,0.0,76.0
5678,49.0,120,120,2.0,78.0
5679,53.0,120,120,2.0,78.0
5680,58.0,120,120,2.0,78.0
5681,77.0,0,120,0.0,78.0
5682,70.0,120,120,0.0,79.0
5683,72.0,120,120,0.0,79.0
5684,73.0,120,120,0.0,76.0
5685,53.0,120,120,2.0,80.0
5686,58.0,120,120,2.0,80.0
5687,61.0,0,120,2.0,80.0
5688,85.0,120,120,0.0,80.0
5689,82.0,120,120,0.0,81.0
5690,84.0,120,120,0.0,81.0
5691,85.0,120,120,0.0,78.0
5692,42.0,120,120,2.0,81.0
5693,46.0,120,120,2.0,82.0
5694,49.0,120,120,2.0,82.0
5695,73.0,0,120,0.0,82.0
5696,70.0,120,120,0.0,83.0
5697,72.0,120,120,0.0,83.0
5698,73.0,120,120,0.0,79.0
5699,54.0,120,120,2.0,83.0
5700,58.0,120,120,2.0,83.0
5701,61.0,120,120,2.0,84.0
5702,85.0,0,120,0.0,84.0
5703,82.0,120,120,0.0,84.0
5704,84.0,120,120,0.0,85.0
5705,85.0,120,120,0.0,82.0
5706,43.0,120,120,2.0,85.0
5707,46.0,120,120,2.0,85.0
5708,73.0,0,120,0.0,86.0
5709,51.0,120,120,2.0,85.0
5710,70.0,120,120,0.0,86.0
5711,72.0,120,120,0.0,87.0
5712,73.0,120,120,0.0,84.0
5713,55.0,120,120,2.0,86.0
5714,58.0,120,120,2.0,87.0
5715,84.0,120,120,0.0,90.0
5716,63.0,0,120,2.0,87.0
5717,80.0,120,120,0.0,91.0
5718,82.0,120,120,0.0,91.0
5719,84.0,120,120,0.0,89.0
5720,44.0,120,120,2.0,88.0
5721,48.0,120,120,2.0,88.0
5722,72.0,120,120,0.0,94.0
5723,51.0,0,120,2.0,89.0
5724,68.0,120,120,0.0,94.0
5725,70.0,120,120,0.0,95.0
5726,72.0,120,120,0.0,93.0
5727,56.0,120,120,2.0,90.0
5728,60.0,120,120,2.0,90.0
5729,63.0,120,120,2.0,90.0
5730,87.0,0,120,0.0,98.0
5731,84.0,120,120,0.0,98.0
5732,85.0,120,120,0.0,99.0
5733,87.0,120,120,0.0,96.0
5734,45.0,120,120,2.0,97.0
5735,48.0,120,120,2.0,98.0
5736,75.0,120,120,0.0,98.0
5737,53.0,0,120,2.0,100.0
5738,72.0,120,120,0.0,95.0
5739,73.0,120,120,0.0,92.0
5740,75.0,120,120,0.0,88.0
5741,57.0,120,120,2.0,100.0
5742,60.0,120,120,2.0,89.0
5743,65.0,120,120,2.0,85.0
5744,73.0,120,120,0.0,66.0
5745,72.0,120,120,0.0,61.0
5746,70.0,0,120,0.0,57.0
5747,58.0,120,115,2.0,42.0
5748,61.0,0,115,2.0,43.0
5749,65.0,120,120,2.0,43.0
5750,53.0,120,480,2.0,42.0
5751,73.0,120,120,0.0,42.0
5752,72.0,120,120,0.0,43.0
5753,46.0,120,0,3.0,46.0
5754,70.0,0,120,0.0,43.0
5755,58.0,120,115,2.0,44.0
5756,61.0,0,110,2.0,45.0
5757,65.0,120,120,0.0,44.0
5758,53.0,120,480,2.0,44.0
5759,73.0,120,120,0.0,45.0
5760,72.0,120,120,0.0,45.0
5761,70.0,0,120,0.0,46.0
5762,58.0,120,115,2.0,47.0
5763,61.0,0,120,2.0,47.0
5764,65.0,120,120,0.0,47.0
5765,53.0,120,480,2.0,46.0
5766,73.0,120,120,0.0,48.0
5767,46.0,120,720,3.0,48.0
5768,70.0,120,120,0.0,48.0
5769,72.0,120,120,0.0,48.0
5770,57.0,120,115,2.0,49.0
5771,60.0,0,110,2.0,50.0
5772,65.0,120,120,0.0,50.0
5773,75.0,120,120,0.0,50.0
5774,53.0,120,480,2.0,49.0
5775,41.0,0,0,3.0,53.0
5776,73.0,120,120,0.0,51.0
5777,72.0,120,120,0.0,51.0
5778,57.0,120,115,2.0,52.0
5779,60.0,0,110,2.0,52.0
5780,65.0,120,120,0.0,52.0
5781,75.0,120,120,0.0,53.0
5782,53.0,120,480,2.0,51.0
5783,73.0,120,120,0.0,53.0
5784,41.0,0,0,3.0,55.0
5785,72.0,120,120,0.0,54.0
5786,57.0,120,115,2.0,54.0
5787,60.0,120,110,2.0,54.0
5788,65.0,0,120,0.0,55.0
5789,75.0,120,120,0.0,56.0
5790,53.0,120,480,2.0,54.0
5791,73.0,120,120,0.0,56.0
5792,41.0,0,0,3.0,58.0
5793,72.0,120,120,0.0,56.0
5794,57.0,120,115,2.0,56.0
5795,60.0,0,110,2.0,57.0
5796,65.0,120,120,0.0,58.0
5797,75.0,120,120,0.0,58.0
5798,53.0,120,480,2.0,56.0
5799,72.0,120,120,0.0,59.0
5800,73.0,120,120,0.0,59.0
5801,58.0,120,115,2.0,59.0
5802,61.0,120,110,2.0,59.0
5803,65.0,0,120,0.0,60.0
5804,73.0,120,120,0.0,61.0
5805,53.0,120,590,2.0,58.0
5806,46.0,0,720,3.0,60.0
5807,77.0,120,120,0.0,61.0
5808,58.0,120,115,2.0,61.0
5809,61.0,0,110,2.0,62.0
5810,65.0,120,120,0.0,63.0
5811,73.0,120,120,0.0,64.0
5812,77.0,120,120,0.0,64.0
5813,46.0,120,0,3.0,65.0
5814,53.0,120,600,2.0,61.0
5815,58.0,120,120,2.0,64.0
5816,61.0,120,120,2.0,64.0
5817,65.0,0,120,0.0,66.0
5818,73.0,120,120,0.0,66.0
5819,77.0,120,120,0.0,67.0
5820,46.0,120,0,3.0,68.0
5821,53.0,120,605,2.0,63.0
5822,58.0,120,120,2.0,66.0
5823,66.0,0,120,0.0,68.0
5824,61.0,120,120,2.0,66.0
5825,73.0,120,120,0.0,69.0
5826,54.0,120,600,2.0,66.0
5827,78.0,120,120,0.0,69.0
5828,46.0,120,0,3.0,70.0
5829,58.0,120,120,2.0,68.0
5830,66.0,0,120,0.0,71.0
5831,61.0,120,120,2.0,69.0
5832,73.0,120,120,0.0,72.0
5833,78.0,120,120,0.0,72.0
5834,46.0,120,0,3.0,72.0
5835,54.0,120,605,2.0,68.0
5836,61.0,120,120,2.0,71.0
5837,67.0,120,120,0.0,74.0
5838,64.0,0,120,2.0,71.0
5839,73.0,120,120,0.0,74.0
5840,79.0,120,120,0.0,75.0
5841,46.0,120,0,3.0,75.0
5842,55.0,120,605,2.0,70.0
5843,61.0,120,120,2.0,73.0
5844,64.0,120,120,2.0,74.0
5845,67.0,0,120,0.0,76.0
5846,73.0,120,120,0.0,77.0
5847,79.0,120,120,0.0,77.0
5848,55.0,120,615,2.0,73.0
5849,62.0,120,120,2.0,75.0
5850,68.0,0,120,0.0,79.0
5851,65.0,120,120,2.0,76.0
5852,74.0,120,120,0.0,80.0
5853,56.0,120,600,2.0,75.0
5854,80.0,120,120,0.0,80.0
5855,46.0,120,720,3.0,77.0
5856,62.0,120,120,2.0,80.0
5857,68.0,120,120,0.0,81.0
5858,65.0,0,120,2.0,80.0
5859,74.0,120,120,0.0,81.0
5860,46.0,120,720,3.0,80.0
5861,80.0,120,120,0.0,82.0
5862,56.0,120,605,2.0,79.0
5863,62.0,120,120,2.0,83.0
5864,65.0,120,120,2.0,84.0
5865,68.0,0,120,0.0,84.0
5866,74.0,120,120,0.0,85.0
5867,56.0,120,590,2.0,83.0
5868,46.0,120,0,3.0,87.0
5869,80.0,120,120,0.0,85.0
5870,62.0,120,120,2.0,86.0
5871,65.0,120,120,2.0,87.0
5872,68.0,0,120,0.0,88.0
5873,74.0,120,120,0.0,88.0
5874,56.0,120,600,2.0,86.0
5875,80.0,120,120,0.0,89.0
5876,81.0,120,120,0.0,90.0
5877,61.0,120,120,2.0,84.0
5878,69.0,120,120,0.0,91.0
5879,64.0,0,120,2.0,84.0
5880,76.0,0,120,0.0,99.0
5881,57.0,120,590,2.0,84.0
5882,81.0,120,240,0.0,99.0
5883,45.0,0,720,3.0,91.0
5884,73.0,120,120,0.0,92.0
5885,77.0,0,120,0.0,88.0
5886,80.0,120,240,0.0,88.0
5887,62.0,120,120,2.0,85.0
5888,69.0,120,120,0.0,86.0
5889,65.0,0,120,2.0,85.0
5890,77.0,120,120,0.0,96.0
5891,57.0,120,590,2.0,85.0
5892,50.0,0,720,3.0,89.0
5893,74.0,120,120,0.0,90.0
5894,80.0,0,240,0.0,96.0
5895,76.0,0,120,0.0,88.0
5896,81.0,0,240,0.0,88.0
5897,61.0,120,120,2.0,86.0
5898,64.0,0,120,2.0,86.0
5899,69.0,120,120,0.0,87.0
5900,76.0,120,120,0.0,98.0
5901,57.0,120,590,2.0,86.0
5902,81.0,0,240,0.0,98.0
5903,73.0,120,120,0.0,92.0
5904,45.0,120,720,3.0,90.0
5905,77.0,0,120,0.0,88.0
5906,80.0,0,240,0.0,88.0
5907,62.0,120,120,2.0,87.0
5908,69.0,0,120,0.0,87.0
5909,65.0,120,120,2.0,87.0
5910,77.0,0,120,0.0,97.0
5911,57.0,120,590,2.0,87.0
5912,74.0,120,120,0.0,92.0
5913,50.0,120,720,3.0,91.0
5914,80.0,120,240,0.0,97.0
5915,76.0,120,240,0.0,86.0
5916,81.0,0,240,0.0,86.0
5917,73.0,0,240,1.0,61.0
5918,73.0,0,120,0.0,54.0
5919,76.0,120,120,0.0,54.0
5920,61.0,120,465,2.0,54.0
5921,57.0,120,590,2.0,54.0
5922,64.0,120,350,2.0,54.0
5923,79.0,120,120,0.0,54.0
5924,45.0,0,725,3.0,81.0
5925,70.0,0,120,0.0,55.0
5926,70.0,120,120,0.0,55.0
5927,73.0,120,120,0.0,55.0
5928,64.0,120,470,2.0,55.0
5929,57.0,120,590,2.0,55.0
5930,55.0,120,720,3.0,55.0
5931,76.0,120,120,0.0,55.0
5932,67.0,0,120,0.0,68.0
5933,70.0,120,120,0.0,56.0
5934,69.0,120,120,0.0,56.0
5935,52.0,120,590,2.0,56.0
5936,57.0,120,470,2.0,56.0
5937,49.0,120,710,3.0,68.0
5938,67.0,120,120,0.0,56.0
5939,65.0,120,120,0.0,57.0
5940,65.0,120,120,0.0,57.0
5941,64.0,120,120,0.0,57.0
5942,57.0,120,465,2.0,57.0
5943,50.0,0,710,3.0,57.0
5944,53.0,120,590,2.0,57.0
5945,62.0,120,120,0.0,57.0
5946,61.0,0,120,0.0,54.0
5947,73.0,120,120,0.0,58.0
5948,76.0,120,120,0.0,58.0
5949,61.0,120,465,2.0,58.0
5950,57.0,120,590,2.0,58.0
5951,45.0,120,710,3.0,57.0
5952,64.0,0,350,2.0,58.0
5953,79.0,120,120,0.0,58.0
5954,70.0,120,120,0.0,58.0
5955,70.0,120,120,0.0,59.0
5956,73.0,120,120,0.0,59.0
5957,55.0,0,695,3.0,58.0
5958,64.0,120,455,2.0,59.0
5959,57.0,120,590,2.0,59.0
5960,76.0,120,120,0.0,59.0
5961,67.0,120,120,0.0,70.0
5962,70.0,120,120,0.0,60.0
5963,69.0,120,120,0.0,60.0
5964,49.0,0,705,3.0,72.0
5965,52.0,120,585,2.0,60.0
5966,57.0,120,465,2.0,60.0
5967,67.0,120,120,0.0,60.0
5968,65.0,0,120,0.0,60.0
5969,65.0,120,120,0.0,61.0
5970,64.0,120,120,0.0,61.0
5971,53.0,120,570,2.0,61.0
5972,57.0,120,455,2.0,61.0
5973,50.0,120,695,3.0,60.0
5974,62.0,120,120,0.0,61.0
5975,78.0,120,120,0.0,61.0
5976,78.0,0,120,0.0,62.0
5977,81.0,120,120,0.0,62.0
5978,66.0,120,465,2.0,62.0
5979,69.0,120,345,2.0,62.0
5980,62.0,120,590,2.0,62.0
5981,50.0,0,720,3.0,61.0
5982,84.0,120,120,0.0,62.0
5983,75.0,0,120,0.0,62.0
5984,75.0,120,120,0.0,63.0
5985,78.0,120,120,0.0,63.0
5986,60.0,120,695,3.0,62.0
5987,62.0,120,575,2.0,63.0
5988,69.0,120,465,2.0,63.0
5989,81.0,120,120,0.0,63.0
5990,72.0,120,155,0.0,76.0
5991,75.0,120,120,0.0,64.0
5992,74.0,120,120,0.0,64.0
5993,63.0,120,455,2.0,64.0
5994,57.0,120,585,2.0,64.0
5995,54.0,0,705,3.0,77.0
5996,72.0,120,120,0.0,64.0
5997,70.0,0,120,0.0,64.0
5998,70.0,120,120,0.0,65.0
5999,69.0,120,120,0.0,65.0
6000,62.0,120,450,2.0,65.0
6001,58.0,120,570,2.0,65.0
6002,55.0,120,705,3.0,64.0
6003,67.0,120,120,0.0,65.0
6004,66.0,0,120,0.0,63.0
6005,78.0,0,120,0.0,66.0
6006,81.0,120,120,0.0,66.0
6007,66.0,120,455,2.0,66.0
6008,69.0,120,335,2.0,66.0
6009,62.0,120,590,2.0,66.0
6010,50.0,120,720,3.0,65.0
6011,84.0,120,120,0.0,66.0
6012,75.0,0,120,0.0,66.0
6013,75.0,120,120,0.0,67.0
6014,78.0,120,120,0.0,67.0
6015,69.0,120,450,2.0,67.0
6016,62.0,120,575,2.0,67.0
6017,60.0,120,705,3.0,66.0
6018,81.0,120,120,0.0,67.0
6019,72.0,0,155,0.0,78.0
6020,75.0,120,120,0.0,68.0
6021,74.0,120,120,0.0,68.0
6022,62.0,120,465,0.0,68.0
6023,57.0,120,590,2.0,68.0
6024,72.0,120,120,0.0,68.0
6025,54.0,120,720,3.0,77.0
6026,70.0,120,120,0.0,68.0
6027,70.0,120,120,0.0,69.0
6028,69.0,120,120,0.0,69.0
6029,62.0,120,465,2.0,69.0
6030,58.0,120,590,2.0,69.0
6031,55.0,0,710,3.0,68.0
6032,67.0,120,120,0.0,69.0
6033,82.0,0,120,0.0,74.0
6034,82.0,120,120,0.0,70.0
6035,81.0,120,120,0.0,70.0
6036,57.0,120,465,2.0,70.0
6037,52.0,120,585,2.0,70.0
6038,49.0,120,705,3.0,79.0
6039,79.0,120,120,0.0,70.0
6040,77.0,120,120,0.0,70.0
6041,77.0,120,120,0.0,71.0
6042,76.0,120,120,0.0,71.0
6043,57.0,120,455,2.0,71.0
6044,53.0,120,585,2.0,71.0
6045,50.0,0,710,3.0,70.0
6046,74.0,120,120,0.0,71.0
6047,75.0,0,120,0.0,80.0
6048,75.0,120,120,0.0,72.0
6049,74.0,120,120,0.0,72.0
6050,54.0,120,690,3.0,80.0
6051,62.0,120,465,2.0,72.0
6052,57.0,120,590,2.0,72.0
6053,72.0,120,120,0.0,72.0
6054,70.0,120,120,0.0,72.0
6055,70.0,120,120,0.0,73.0
6056,69.0,120,120,0.0,73.0
6057,58.0,120,480,2.0,73.0
6058,62.0,120,465,2.0,73.0
6059,55.0,0,705,3.0,72.0
6060,67.0,120,120,0.0,73.0
6061,82.0,120,120,0.0,85.0
6062,82.0,120,120,0.0,78.0
6063,81.0,120,120,0.0,79.0
6064,52.0,120,480,2.0,74.0
6065,57.0,120,465,2.0,74.0
6066,49.0,0,705,3.0,87.0
6067,79.0,120,120,0.0,79.0
6068,77.0,120,120,0.0,79.0
6069,77.0,120,120,0.0,80.0
6070,53.0,120,480,2.0,75.0
6071,76.0,120,120,0.0,81.0
6072,50.0,0,695,3.0,79.0
6073,57.0,120,465,2.0,76.0
6074,74.0,120,120,0.0,81.0
6075,82.0,120,120,0.0,88.0
6076,82.0,120,120,0.0,83.0
6077,81.0,120,120,0.0,83.0
6078,52.0,120,480,2.0,77.0
6079,49.0,0,695,3.0,92.0
6080,57.0,120,465,2.0,77.0
6081,79.0,120,120,0.0,83.0
6082,77.0,0,120,0.0,84.0
6083,77.0,120,120,0.0,85.0
6084,76.0,120,120,0.0,85.0
6085,53.0,120,480,2.0,79.0
6086,57.0,120,455,2.0,79.0
6087,50.0,120,705,3.0,82.0
6088,74.0,120,120,0.0,85.0
6089,82.0,120,120,0.0,94.0
6090,82.0,120,120,0.0,87.0
6091,81.0,120,120,0.0,87.0
6092,52.0,120,480,2.0,80.0
6093,49.0,0,705,3.0,92.0
6094,57.0,120,470,2.0,81.0
6095,79.0,120,120,0.0,87.0
6096,77.0,0,120,0.0,88.0
6097,77.0,120,120,0.0,89.0
6098,76.0,120,120,0.0,89.0
6099,53.0,120,480,2.0,82.0
6100,57.0,120,465,2.0,82.0
6101,50.0,120,705,3.0,84.0
6102,74.0,120,120,0.0,89.0
6103,82.0,0,120,0.0,98.0
6104,49.0,0,240,2.0,83.0
6105,45.0,0,240,3.0,92.0
6106,52.0,0,240,2.0,83.0
6107,55.0,120,240,2.0,83.0
6108,79.0,120,120,0.0,86.0
6109,78.0,120,120,0.0,81.0
6110,79.0,120,120,0.0,76.0
6111,82.0,120,120,0.0,74.0
6112,79.0,120,120,0.0,73.0
6113,78.0,120,120,0.0,72.0
6114,79.0,120,120,0.0,70.0
6115,82.0,120,120,0.0,69.0
6116,79.0,120,120,0.0,68.0
6117,78.0,120,120,0.0,67.0
6118,79.0,120,120,0.0,67.0
6119,75.0,120,120,0.0,75.0
6120,76.0,120,120,0.0,69.0
6121,79.0,120,120,0.0,69.0
6122,76.0,120,120,0.0,68.0
6123,75.0,120,120,0.0,68.0
6124,76.0,120,120,0.0,67.0
6125,79.0,120,120,0.0,66.0
6126,76.0,120,120,0.0,66.0
6127,75.0,120,120,0.0,65.0
6128,76.0,120,120,0.0,65.0
6129,79.0,120,120,0.0,64.0
6130,76.0,120,120,0.0,64.0
6131,72.0,120,120,0.0,74.0
6132,73.0,120,120,0.0,69.0
6133,76.0,120,120,0.0,68.0
6134,73.0,120,120,0.0,67.0
6135,72.0,120,120,0.0,66.0
6136,73.0,120,120,0.0,65.0
6137,76.0,120,120,0.0,64.0
6138,73.0,120,120,0.0,63.0
6139,72.0,120,120,0.0,63.0
6140,73.0,120,120,0.0,62.0
6141,76.0,120,120,0.0,61.0
6142,73.0,120,120,0.0,60.0
6143,69.0,120,120,0.0,70.0
6144,70.0,120,120,0.0,63.0
6145,73.0,120,120,0.0,62.0
6146,70.0,120,120,0.0,61.0
6147,69.0,120,120,0.0,60.0
6148,70.0,120,120,0.0,59.0
6149,73.0,120,120,0.0,58.0
6150,70.0,120,120,0.0,57.0
6151,69.0,120,120,0.0,57.0
6152,70.0,120,120,0.0,56.0
6153,73.0,120,120,0.0,55.0
6154,70.0,120,120,0.0,54.0
6155,66.0,120,120,0.0,61.0
6156,67.0,120,120,0.0,51.0
6157,70.0,120,120,0.0,51.0
6158,67.0,120,120,0.0,50.0
6159,66.0,120,120,0.0,50.0
6160,67.0,120,120,0.0,50.0
6161,70.0,120,120,0.0,49.0
6162,67.0,120,120,0.0,49.0
6163,66.0,120,120,0.0,48.0
6164,67.0,120,120,0.0,48.0
6165,70.0,120,120,0.0,48.0
6166,67.0,120,120,0.0,47.0
6167,66.0,120,120,0.0,47.0
6168,67.0,120,120,0.0,46.0
6169,70.0,120,120,0.0,46.0
6170,67.0,120,120,0.0,46.0
6171,66.0,120,120,0.0,45.0
6172,67.0,120,120,0.0,45.0
6173,70.0,120,120,0.0,44.0
6174,67.0,120,120,0.0,44.0
6175,66.0,120,120,0.0,44.0
6176,67.0,120,120,0.0,43.0
6177,70.0,120,120,0.0,43.0
6178,67.0,120,120,0.0,42.0
6179,66.0,120,120,0.0,42.0
6180,67.0,120,120,0.0,42.0
6181,70.0,120,120,0.0,41.0
6182,67.0,120,120,0.0,41.0
6183,66.0,120,120,0.0,40.0
6184,67.0,120,120,0.0,40.0
6185,70.0,120,120,0.0,40.0
6186,73.0,120,120,0.0,39.0
6187,70.0,120,120,0.0,39.0
6188,67.0,120,120,0.0,38.0
6189,66.0,120,120,0.0,38.0
6190,67.0,120,120,0.0,38.0
6191,70.0,120,120,0.0,37.0
6192,73.0,120,120,0.0,37.0
6193,76.0,120,120,0.0,36.0
6194,67.0,120,120,0.0,36.0
6195,66.0,120,120,0.0,36.0
6196,67.0,120,120,0.0,38.0
6197,70.0,120,120,0.0,38.0
6198,73.0,120,120,0.0,40.0
6199,76.0,120,120,0.0,42.0
6200,69.0,120,120,0.0,44.0
6201,77.0,120,120,0.0,49.0
6202,76.0,120,120,0.0,47.0
6203,74.0,0,120,0.0,44.0
6204,62.0,120,120,2.0,45.0
6205,69.0,120,120,0.0,45.0
6206,65.0,0,120,2.0,45.0
6207,77.0,120,120,0.0,45.0
6208,57.0,120,585,2.0,45.0
6209,50.0,120,720,3.0,48.0
6210,76.0,120,120,0.0,46.0
6211,74.0,0,120,0.0,46.0
6212,62.0,120,120,2.0,46.0
6213,69.0,120,120,0.0,47.0
6214,65.0,0,120,2.0,47.0
6215,77.0,120,120,0.0,47.0
6216,57.0,120,585,2.0,46.0
6217,50.0,120,0,3.0,52.0
6218,76.0,120,120,0.0,47.0
6219,74.0,0,120,0.0,47.0
6220,62.0,120,120,2.0,48.0
6221,69.0,120,120,0.0,48.0
6222,65.0,0,120,2.0,48.0
6223,77.0,120,120,0.0,48.0
6224,57.0,120,590,2.0,48.0
6225,74.0,120,120,0.0,49.0
6226,76.0,0,120,0.0,49.0
6227,61.0,120,120,2.0,49.0
6228,64.0,0,120,2.0,50.0
6229,69.0,120,120,0.0,50.0
6230,79.0,120,120,0.0,50.0
6231,45.0,120,720,3.0,54.0
6232,57.0,120,600,2.0,49.0
6233,77.0,120,120,0.0,50.0
6234,76.0,120,120,0.0,50.0
6235,61.0,120,120,2.0,51.0
6236,69.0,0,120,0.0,51.0
6237,64.0,120,120,2.0,51.0
6238,79.0,120,120,0.0,51.0
6239,57.0,120,585,2.0,51.0
6240,77.0,120,120,0.0,52.0
6241,45.0,120,0,3.0,57.0
6242,76.0,0,120,0.0,52.0
6243,61.0,120,120,2.0,52.0
6244,64.0,120,120,2.0,53.0
6245,69.0,0,120,0.0,53.0
6246,79.0,120,120,0.0,53.0
6247,57.0,120,590,2.0,52.0
6248,77.0,120,120,0.0,53.0
6249,45.0,0,0,3.0,59.0
6250,76.0,120,120,0.0,54.0
6251,61.0,120,120,2.0,54.0
6252,64.0,120,120,2.0,54.0
6253,69.0,0,120,0.0,54.0
6254,79.0,120,120,0.0,55.0
6255,57.0,120,585,2.0,54.0
6256,76.0,120,120,0.0,55.0
6257,77.0,120,120,0.0,58.0
6258,62.0,120,120,2.0,59.0
6259,65.0,120,120,2.0,59.0
6260,74.0,0,120,0.0,59.0
6261,81.0,120,120,0.0,60.0
6262,57.0,120,585,2.0,58.0
6263,86.0,120,120,0.0,60.0
6264,50.0,0,720,3.0,61.0
6265,82.0,0,120,0.0,61.0
6266,70.0,120,120,0.0,62.0
6267,74.0,120,120,0.0,63.0
6268,67.0,120,465,2.0,62.0
6269,55.0,120,710,3.0,63.0
6270,62.0,120,590,2.0,61.0
6271,82.0,120,120,0.0,64.0
6272,79.0,120,120,0.0,64.0
6273,67.0,120,120,0.0,66.0
6274,70.0,120,120,0.0,66.0
6275,58.0,120,585,2.0,65.0
6276,51.0,0,720,3.0,64.0
6277,79.0,120,120,0.0,67.0
6278,63.0,120,480,2.0,65.0
6279,76.0,0,120,0.0,67.0
6280,64.0,120,120,0.0,64.0
6281,69.0,120,120,0.0,63.0
6282,49.0,120,705,3.0,67.0
6283,61.0,120,470,2.0,65.0
6284,57.0,120,590,2.0,66.0
6285,76.0,120,120,0.0,62.0
6286,77.0,0,120,0.0,61.0
6287,65.0,120,120,0.0,58.0
6288,69.0,120,120,0.0,57.0
6289,57.0,120,575,2.0,60.0
6290,62.0,120,465,2.0,59.0
6291,50.0,120,705,3.0,61.0
6292,77.0,120,120,0.0,56.0
6293,74.0,0,120,0.0,55.0
6294,62.0,120,120,0.0,52.0
6295,69.0,120,120,0.0,53.0
6296,45.0,120,705,3.0,55.0
6297,53.0,120,585,2.0,54.0
6298,57.0,120,470,2.0,53.0
6299,74.0,120,120,0.0,55.0
6300,73.0,120,120,0.0,56.0
6301,61.0,120,120,0.0,60.0
6302,69.0,120,120,0.0,61.0
6303,57.0,0,345,2.0,60.0
6304,52.0,120,585,2.0,57.0
6305,45.0,0,705,3.0,56.0
6306,55.0,120,470,2.0,59.0
6307,73.0,120,120,0.0,63.0
6308,74.0,120,120,0.0,64.0
6309,50.0,120,120,2.0,72.0
6310,53.0,120,120,2.0,71.0
6311,57.0,120,120,2.0,70.0
6312,65.0,0,120,0.0,69.0
6313,62.0,120,120,2.0,68.0
6314,69.0,120,120,0.0,71.0
6315,74.0,120,120,0.0,72.0
6316,77.0,120,120,0.0,73.0
6317,81.0,120,120,0.0,75.0
6318,77.0,120,120,0.0,76.0
6319,86.0,120,120,0.0,77.0
6320,38.0,0,1440,3.0,69.0
6321,81.0,120,120,0.0,72.0
6322,82.0,120,120,0.0,63.0
6323,70.0,120,120,0.0,54.0
6324,74.0,120,120,0.0,55.0
6325,62.0,120,480,2.0,52.0
6326,67.0,120,455,2.0,53.0
6327,55.0,0,705,3.0,55.0
6328,82.0,120,120,0.0,56.0
6329,79.0,120,120,0.0,57.0
6330,67.0,120,120,0.0,60.0
6331,70.0,120,120,0.0,61.0
6332,58.0,120,585,2.0,58.0
6333,51.0,0,705,3.0,59.0
6334,63.0,120,465,2.0,59.0
6335,79.0,120,120,0.0,63.0
6336,75.0,120,120,0.0,64.0
6337,63.0,120,120,0.0,67.0
6338,67.0,120,120,0.0,66.0
6339,55.0,120,575,2.0,65.0
6340,48.0,0,705,3.0,64.0
6341,60.0,120,470,2.0,66.0
6342,75.0,120,120,0.0,65.0
6343,72.0,120,120,0.0,64.0
6344,60.0,120,120,0.0,61.0
6345,65.0,120,120,0.0,59.0
6346,53.0,120,585,2.0,63.0
6347,45.0,0,705,3.0,64.0
6348,57.0,120,470,2.0,62.0
6349,72.0,120,120,0.0,58.0
6350,74.0,120,120,0.0,57.0
6351,62.0,120,120,0.0,54.0
6352,65.0,120,120,0.0,54.0
6353,53.0,120,585,2.0,56.0
6354,58.0,120,465,2.0,55.0
6355,46.0,0,710,3.0,61.0
6356,74.0,120,120,0.0,56.0
6357,75.0,0,120,0.0,57.0
6358,63.0,120,120,0.0,60.0
6359,67.0,120,120,0.0,61.0
6360,39.0,120,690,3.0,57.0
6361,51.0,120,450,2.0,59.0
6362,48.0,120,575,2.0,58.0
6363,75.0,120,120,0.0,62.0
6364,72.0,120,120,0.0,63.0
6365,60.0,120,120,0.0,67.0
6366,69.0,120,120,0.0,68.0
6367,53.0,120,465,2.0,66.0
6368,41.0,0,705,3.0,63.0
6369,48.0,120,590,2.0,64.0
6370,72.0,120,120,0.0,69.0
6371,77.0,120,120,0.0,70.0
6372,65.0,120,120,0.0,75.0
6373,70.0,120,120,0.0,73.0
6374,38.0,0,690,3.0,70.0
6375,50.0,120,465,2.0,72.0
6376,46.0,120,585,2.0,71.0
6377,77.0,120,120,0.0,70.0
6378,74.0,0,120,0.0,67.0
6379,62.0,120,120,0.0,59.0
6380,70.0,120,120,0.0,58.0
6381,46.0,120,575,2.0,65.0
6382,55.0,120,465,2.0,62.0
6383,43.0,120,705,3.0,67.0
6384,74.0,120,120,0.0,59.0
6385,75.0,120,120,0.0,60.0
6386,63.0,120,120,0.0,63.0
6387,67.0,120,120,0.0,64.0
6388,51.0,120,455,2.0,62.0
6389,39.0,0,705,3.0,60.0
6390,48.0,120,585,2.0,61.0
6391,75.0,120,120,0.0,65.0
6392,72.0,120,120,0.0,66.0
6393,60.0,120,120,0.0,69.0
6394,69.0,120,120,0.0,70.0
6395,48.0,120,585,2.0,67.0
6396,41.0,0,705,3.0,66.0
6397,53.0,120,470,2.0,68.0
6398,72.0,120,120,0.0,71.0
6399,70.0,0,120,0.0,74.0
6400,41.0,120,120,0.0,69.0
6401,46.0,120,120,0.0,64.0
6402,34.0,120,360,3.0,74.0
6403,29.0,120,120,3.0,56.0
6404,37.0,120,120,3.0,56.0
6405,36.0,120,120,3.0,56.0
6406,34.0,120,120,3.0,57.0
6407,46.0,120,120,0.0,54.0
6408,49.0,120,120,0.0,54.0
6409,53.0,0,120,0.0,55.0
6410,29.0,120,120,3.0,58.0
6411,58.0,120,120,0.0,55.0
6412,37.0,0,120,3.0,58.0
6413,36.0,120,120,3.0,59.0
6414,34.0,120,120,3.0,59.0
6415,46.0,120,120,0.0,57.0
6416,49.0,120,120,0.0,57.0
6417,53.0,120,120,0.0,58.0
6418,29.0,0,120,3.0,60.0
6419,37.0,0,120,3.0,61.0
6420,58.0,120,120,0.0,58.0
6421,36.0,120,120,3.0,61.0
6422,34.0,120,120,3.0,61.0
6423,46.0,120,120,0.0,59.0
6424,49.0,120,120,0.0,60.0
6425,53.0,120,120,0.0,60.0
6426,29.0,0,120,3.0,63.0
6427,58.0,120,120,0.0,61.0
6428,37.0,0,120,3.0,63.0
6429,34.0,120,120,3.0,63.0
6430,43.0,0,120,0.0,72.0
6431,46.0,120,120,0.0,60.0
6432,52.0,120,120,0.0,60.0
6433,55.0,120,120,0.0,60.0
6434,64.0,120,120,0.0,61.0
6435,58.0,120,240,0.0,61.0
6436,24.0,0,720,3.0,78.0
6437,36.0,120,720,3.0,78.0
6438,29.0,0,155,3.0,73.0
6439,41.0,0,155,3.0,73.0
6440,65.0,120,120,0.0,66.0
6441,53.0,120,240,0.0,64.0
6442,44.0,0,155,3.0,76.0
6443,68.0,120,120,0.0,69.0
6444,56.0,120,240,0.0,67.0
6445,48.0,0,155,3.0,79.0
6446,72.0,120,120,0.0,72.0
6447,60.0,120,240,0.0,70.0
6448,53.0,0,155,3.0,82.0
6449,65.0,120,240,0.0,73.0
6450,77.0,120,120,0.0,75.0
6451,56.0,0,155,3.0,85.0
6452,68.0,120,240,0.0,76.0
6453,80.0,120,120,0.0,78.0
6454,53.0,0,155,3.0,91.0
6455,77.0,120,120,0.0,78.0
6456,65.0,120,240,0.0,79.0
6457,48.0,0,155,3.0,84.0
6458,60.0,120,240,0.0,76.0
6459,72.0,120,120,0.0,75.0
6460,44.0,0,155,3.0,80.0
6461,56.0,120,240,0.0,73.0
6462,68.0,120,120,0.0,72.0
6463,48.0,120,155,3.0,76.0
6464,60.0,0,240,0.0,71.0
6465,72.0,120,120,0.0,69.0
6466,44.0,120,155,3.0,72.0
6467,68.0,120,120,0.0,66.0
6468,56.0,0,240,0.0,68.0
6469,41.0,0,80,3.0,64.0
6470,65.0,120,120,0.0,63.0
6471,53.0,120,240,0.0,65.0
6472,36.0,0,120,3.0,63.0
6473,44.0,120,120,3.0,65.0
6474,43.0,120,120,3.0,66.0
6475,41.0,120,120,3.0,66.0
6476,53.0,120,120,0.0,52.0
6477,56.0,120,120,0.0,53.0
6478,60.0,0,120,0.0,53.0
6479,36.0,120,120,3.0,66.0
6480,65.0,0,120,0.0,53.0
6481,44.0,120,120,3.0,67.0
6482,43.0,120,120,3.0,67.0
6483,41.0,120,120,3.0,67.0
6484,53.0,120,120,0.0,55.0
6485,56.0,120,120,0.0,55.0
6486,60.0,0,120,0.0,56.0
6487,36.0,120,120,3.0,68.0
6488,44.0,120,120,3.0,68.0
6489,65.0,0,120,0.0,56.0
6490,43.0,120,120,3.0,68.0
6491,41.0,120,120,3.0,68.0
6492,53.0,120,120,0.0,58.0
6493,56.0,120,120,0.0,58.0
6494,36.0,0,120,3.0,69.0
6495,60.0,120,120,0.0,59.0
6496,44.0,120,120,3.0,69.0
6497,65.0,0,120,0.0,59.0
6498,41.0,120,120,3.0,69.0
6499,53.0,120,120,0.0,67.0
6500,59.0,120,120,0.0,67.0
6501,62.0,120,120,0.0,68.0
6502,65.0,120,120,0.0,68.0
6503,71.0,120,120,0.0,68.0
6504,50.0,0,720,0.0,84.0
6505,43.0,0,720,3.0,84.0
6506,31.0,120,720,3.0,84.0
6507,60.0,120,120,0.0,70.0
6508,48.0,0,155,3.0,72.0
6509,36.0,0,155,3.0,72.0
6510,72.0,120,120,0.0,72.0
6511,63.0,120,120,0.0,73.0
6512,51.0,0,155,3.0,75.0
6513,75.0,120,120,0.0,75.0
6514,67.0,120,120,0.0,77.0
6515,55.0,0,155,3.0,78.0
6516,79.0,120,120,0.0,78.0
6517,72.0,120,120,0.0,80.0
6518,60.0,0,155,3.0,81.0
6519,84.0,120,120,0.0,81.0
6520,75.0,0,120,0.0,83.0
6521,63.0,120,155,3.0,84.0
6522,87.0,120,120,0.0,85.0
6523,72.0,0,120,0.0,84.0
6524,60.0,120,155,3.0,86.0
6525,84.0,120,120,0.0,83.0
6526,67.0,0,120,0.0,81.0
6527,55.0,120,155,3.0,84.0
6528,79.0,120,120,0.0,80.0
6529,63.0,120,120,0.0,78.0
6530,51.0,0,155,3.0,81.0
6531,75.0,120,120,0.0,77.0
6532,67.0,120,120,0.0,75.0
6533,55.0,0,155,3.0,78.0
6534,79.0,120,120,0.0,74.0
6535,63.0,0,120,0.0,72.0
6536,51.0,120,155,3.0,75.0
6537,75.0,120,120,0.0,71.0
6538,48.0,0,80,3.0,72.0
6539,60.0,120,120,0.0,69.0
6540,72.0,0,120,0.0,68.0
6541,31.0,120,120,3.0,71.0
6542,39.0,120,120,3.0,71.0
6543,38.0,120,120,3.0,71.0
6544,36.0,120,120,3.0,71.0
6545,48.0,120,120,0.0,54.0
6546,51.0,120,120,0.0,55.0
6547,31.0,0,120,3.0,72.0
6548,55.0,120,120,0.0,55.0
6549,60.0,0,120,0.0,55.0
6550,39.0,120,120,3.0,72.0
6551,38.0,120,120,3.0,72.0
6552,36.0,120,120,3.0,72.0
6553,48.0,120,120,0.0,57.0
6554,51.0,120,120,0.0,57.0
6555,31.0,120,120,3.0,73.0
6556,55.0,0,120,0.0,58.0
6557,60.0,120,120,0.0,58.0
6558,39.0,0,120,3.0,73.0
6559,38.0,120,120,3.0,73.0
6560,36.0,120,120,3.0,73.0
6561,48.0,120,120,0.0,59.0
6562,51.0,120,120,0.0,60.0
6563,31.0,0,120,3.0,73.0
6564,55.0,120,120,0.0,60.0
6565,60.0,120,120,0.0,61.0
6566,39.0,0,120,3.0,74.0
6567,36.0,120,120,3.0,74.0
6568,45.0,120,120,0.0,83.0
6569,48.0,120,120,0.0,70.0
6570,54.0,120,120,0.0,71.0
6571,57.0,120,120,0.0,72.0
6572,60.0,120,120,0.0,73.0
6573,66.0,120,120,0.0,74.0
6574,26.0,0,720,3.0,83.0
6575,38.0,0,720,3.0,83.0
6576,55.0,0,120,0.0,74.0
6577,43.0,0,155,3.0,84.0
6578,31.0,120,155,3.0,84.0
6579,67.0,120,120,0.0,76.0
6580,58.0,0,120,0.0,77.0
6581,46.0,120,155,3.0,86.0
6582,70.0,120,120,0.0,79.0
6583,62.0,0,120,0.0,81.0
6584,50.0,120,155,3.0,87.0
6585,74.0,120,120,0.0,82.0
6586,67.0,120,120,0.0,84.0
6587,55.0,0,155,3.0,89.0
6588,79.0,120,120,0.0,85.0
6589,70.0,0,120,0.0,87.0
6590,58.0,120,155,3.0,91.0
6591,82.0,120,120,0.0,89.0
6592,67.0,0,120,0.0,88.0
6593,55.0,120,155,3.0,93.0
6594,79.0,120,120,0.0,87.0
6595,62.0,120,120,0.0,85.0
6596,50.0,0,155,3.0,96.0
6597,74.0,120,120,0.0,84.0
6598,58.0,0,120,0.0,82.0
6599,46.0,120,155,3.0,91.0
6600,70.0,120,120,0.0,81.0
6601,62.0,120,120,0.0,80.0
6602,50.0,0,155,3.0,87.0
6603,74.0,120,120,0.0,78.0
6604,58.0,120,120,0.0,77.0
6605,46.0,0,155,3.0,82.0
6606,70.0,120,120,0.0,75.0
6607,43.0,0,80,3.0,77.0
6608,55.0,120,120,0.0,74.0
6609,67.0,0,120,0.0,73.0
6610,38.0,120,120,3.0,76.0
6611,46.0,120,120,3.0,77.0
6612,45.0,120,120,3.0,77.0
6613,43.0,120,120,3.0,78.0
6614,50.0,120,120,0.0,66.0
6615,55.0,120,120,0.0,67.0
6616,38.0,0,120,3.0,80.0
6617,58.0,120,120,0.0,67.0
6618,46.0,120,120,3.0,80.0
6619,62.0,0,120,0.0,68.0
6620,45.0,120,120,3.0,81.0
6621,43.0,120,120,3.0,82.0
6622,50.0,120,120,0.0,70.0
6623,55.0,120,120,0.0,70.0
6624,38.0,120,120,3.0,83.0
6625,58.0,0,120,0.0,71.0
6626,46.0,120,120,3.0,84.0
6627,62.0,0,120,0.0,71.0
6628,45.0,120,120,3.0,85.0
6629,43.0,120,120,3.0,85.0
6630,50.0,120,120,0.0,73.0
6631,55.0,120,120,0.0,74.0
6632,58.0,0,120,0.0,74.0
6633,38.0,120,120,3.0,87.0
6634,62.0,120,120,0.0,75.0
6635,46.0,0,120,3.0,88.0
6636,43.0,120,120,3.0,88.0
6637,62.0,120,120,0.0,89.0
6638,56.0,120,0,1.0,88.0
6639,50.0,0,240,1.0,91.0
6640,62.0,120,120,0.0,86.0
6641,50.0,120,0,1.0,84.0
6642,56.0,0,240,1.0,84.0
6643,34.0,120,720,3.0,91.0
6644,62.0,120,120,0.0,82.0
6645,46.0,0,720,3.0,91.0
6646,61.0,0,240,0.0,81.0
6647,33.0,120,240,3.0,81.0
6648,57.0,0,240,1.0,81.0
6649,52.0,0,240,1.0,81.0
6650,45.0,0,240,3.0,81.0
6651,70.0,0,60,0.0,68.0
6652,72.0,40,60,0.0,69.0
6653,55.0,0,120,2.0,70.0
6654,57.0,40,120,2.0,71.0
6655,52.0,240,240,3.0,70.0
6656,70.0,40,160,0.0,69.0
6657,69.0,0,192,0.0,70.0
6658,49.0,120,192,3.0,71.0
6659,57.0,120,120,2.0,72.0
6660,70.0,120,60,0.0,71.0
6661,72.0,40,60,0.0,72.0
6662,55.0,0,120,2.0,73.0
6663,57.0,40,120,2.0,73.0
6664,52.0,0,240,3.0,73.0
6665,70.0,40,163,0.0,72.0
6666,49.0,120,192,3.0,74.0
6667,69.0,0,192,0.0,73.0
6668,57.0,120,120,2.0,74.0
6669,70.0,0,60,0.0,74.0
6670,72.0,40,60,0.0,75.0
6671,55.0,0,120,2.0,75.0
6672,52.0,120,240,3.0,75.0
6673,57.0,40,120,2.0,75.0
6674,70.0,40,167,0.0,75.0
6675,69.0,0,192,0.0,76.0
6676,49.0,120,192,3.0,76.0
6677,57.0,120,120,2.0,77.0
6678,70.0,0,60,0.0,77.0
6679,72.0,40,60,0.0,78.0
6680,55.0,120,120,2.0,77.0
6681,57.0,40,120,2.0,78.0
6682,70.0,40,160,0.0,78.0
6683,52.0,0,240,3.0,77.0
6684,69.0,120,192,0.0,79.0
6685,49.0,0,192,3.0,78.0
6686,57.0,120,120,2.0,79.0
6687,70.0,0,60,0.0,80.0
6688,72.0,40,60,0.0,81.0
6689,55.0,120,120,2.0,80.0
6690,57.0,40,120,2.0,80.0
6691,52.0,0,240,3.0,80.0
6692,70.0,40,163,0.0,81.0
6693,69.0,0,192,0.0,82.0
6694,49.0,120,192,3.0,81.0
6695,57.0,120,120,2.0,81.0
6696,70.0,0,60,0.0,83.0
6697,72.0,40,60,0.0,84.0
6698,55.0,120,120,2.0,82.0
6699,70.0,40,160,0.0,84.0
6700,57.0,40,120,2.0,82.0
6701,52.0,0,240,3.0,82.0
6702,69.0,120,192,0.0,85.0
6703,49.0,0,192,3.0,83.0
6704,57.0,120,120,2.0,83.0
6705,55.0,0,120,2.0,92.0
6706,57.0,120,120,2.0,83.0
6707,52.0,0,240,3.0,92.0
6708,49.0,120,192,3.0,82.0
6709,57.0,120,120,2.0,81.0
6710,55.0,0,120,2.0,79.0
6711,70.0,120,635,0.0,92.0
6712,52.0,120,240,3.0,79.0
6713,57.0,120,120,2.0,78.0
6714,69.0,0,155,0.0,82.0
6715,49.0,120,192,3.0,77.0
6716,57.0,120,120,2.0,76.0
6717,55.0,120,120,2.0,75.0
6718,67.0,0,155,0.0,80.0
6719,52.0,0,240,3.0,75.0
6720,57.0,120,120,2.0,74.0
6721,65.0,0,60,0.0,77.0
6722,67.0,40,60,0.0,77.0
6723,65.0,40,160,0.0,76.0
6724,50.0,120,240,3.0,73.0
6725,57.0,40,120,2.0,72.0
6726,64.0,120,155,0.0,75.0
6727,53.0,0,240,3.0,70.0
6728,57.0,120,120,2.0,69.0
6729,62.0,0,155,0.0,72.0
6730,57.0,120,120,2.0,67.0
6731,50.0,120,240,3.0,68.0
6732,61.0,120,155,0.0,69.0
6733,55.0,120,120,2.0,65.0
6734,45.0,0,240,3.0,66.0
6735,62.0,120,155,0.0,67.0
6736,52.0,0,240,3.0,64.0
6737,55.0,120,120,2.0,63.0
6738,64.0,120,155,0.0,64.0
6739,45.0,0,240,3.0,61.0
6740,55.0,120,120,2.0,60.0
6741,53.0,0,120,2.0,59.0
6742,62.0,0,155,0.0,61.0
6743,50.0,120,240,3.0,59.0
6744,57.0,120,120,2.0,58.0
6745,55.0,120,120,2.0,70.0
6746,52.0,0,240,3.0,70.0
6747,82.0,0,120,0.0,70.0
6748,70.0,0,240,0.0,70.0
6749,57.0,120,120,2.0,70.0
6750,57.0,120,120,2.0,71.0
6751,49.0,120,240,3.0,71.0
6752,81.0,0,120,0.0,71.0
6753,69.0,0,240,0.0,71.0
6754,55.0,0,120,2.0,72.0
6755,70.0,0,240,0.0,72.0
6756,52.0,120,240,3.0,72.0
6757,82.0,0,120,0.0,73.0
6758,57.0,120,120,2.0,73.0
6759,57.0,0,120,2.0,74.0
6760,81.0,120,120,0.0,74.0
6761,69.0,0,240,0.0,73.0
6762,49.0,120,240,3.0,73.0
6763,55.0,0,120,2.0,74.0
6764,82.0,120,120,0.0,75.0
6765,52.0,0,240,3.0,74.0
6766,70.0,120,240,0.0,74.0
6767,57.0,0,120,2.0,75.0
6768,81.0,120,120,0.0,76.0
6769,69.0,0,240,0.0,76.0
6770,57.0,0,120,2.0,76.0
6771,49.0,120,240,3.0,76.0
6772,55.0,0,120,2.0,77.0
6773,57.0,0,120,2.0,77.0
6774,52.0,0,240,3.0,77.0
6775,70.0,120,240,0.0,77.0
6776,82.0,120,120,0.0,77.0
6777,57.0,120,120,2.0,78.0
6778,81.0,0,120,0.0,78.0
6779,69.0,0,240,0.0,78.0
6780,49.0,120,240,3.0,78.0
6781,55.0,0,120,2.0,79.0
6782,70.0,0,240,0.0,79.0
6783,82.0,120,120,0.0,80.0
6784,52.0,120,240,3.0,79.0
6785,57.0,0,120,2.0,80.0
6786,81.0,0,120,0.0,81.0
6787,57.0,120,120,2.0,81.0
6788,69.0,120,240,0.0,80.0
6789,49.0,0,240,3.0,80.0
6790,55.0,120,120,2.0,81.0
6791,70.0,0,240,0.0,81.0
6792,82.0,0,120,0.0,82.0
6793,57.0,120,120,2.0,82.0
6794,52.0,0,240,3.0,81.0
6795,69.0,120,120,0.0,83.0
6796,81.0,0,120,0.0,83.0
6797,57.0,120,120,2.0,83.0
6798,49.0,0,240,3.0,83.0
6799,55.0,0,120,2.0,90.0
6800,57.0,120,120,2.0,85.0
6801,52.0,0,240,3.0,90.0
6802,57.0,120,120,2.0,83.0
6803,49.0,120,240,3.0,84.0
6804,55.0,0,120,2.0,82.0
6805,82.0,0,705,0.0,90.0
6806,70.0,120,705,0.0,90.0
6807,57.0,120,120,2.0,81.0
6808,52.0,120,240,3.0,82.0
6809,69.0,120,155,0.0,82.0
6810,81.0,0,155,0.0,82.0
6811,49.0,0,192,3.0,80.0
6812,57.0,120,120,2.0,79.0
6813,55.0,120,120,2.0,78.0
6814,79.0,0,155,0.0,80.0
6815,67.0,0,155,0.0,80.0
6816,52.0,0,240,3.0,78.0
6817,57.0,120,120,2.0,77.0
6818,65.0,0,155,0.0,78.0
6819,77.0,0,155,0.0,78.0
6820,50.0,120,240,3.0,76.0
6821,57.0,120,120,2.0,75.0
6822,76.0,0,155,0.0,74.0
6823,64.0,120,155,0.0,74.0
6824,57.0,120,120,2.0,73.0
6825,53.0,0,240,3.0,74.0
6826,74.0,0,155,0.0,72.0
6827,62.0,120,155,0.0,72.0
6828,50.0,0,240,3.0,72.0
6829,57.0,120,120,2.0,71.0
6830,61.0,0,155,0.0,70.0
6831,73.0,120,155,0.0,70.0
6832,55.0,120,120,2.0,69.0
6833,45.0,0,240,3.0,70.0
6834,74.0,0,155,0.0,68.0
6835,62.0,120,155,0.0,68.0
6836,52.0,0,240,3.0,68.0
6837,55.0,120,120,2.0,67.0
6838,76.0,120,155,0.0,66.0
6839,64.0,0,155,0.0,66.0
6840,45.0,0,240,3.0,66.0
6841,55.0,120,120,2.0,65.0
6842,46.0,120,240,3.0,64.0
6843,62.0,0,240,0.0,64.0
6844,53.0,120,120,2.0,63.0
6845,74.0,0,240,0.0,64.0
6846,82.0,0,155,0.0,61.0
6847,70.0,120,155,0.0,61.0
6848,53.0,120,120,2.0,60.0
6849,50.0,0,240,3.0,61.0
6850,82.0,120,155,0.0,61.0
6851,70.0,0,155,0.0,61.0
6852,46.0,0,240,3.0,61.0
6853,53.0,120,120,2.0,61.0
6854,82.0,0,155,0.0,64.0
6855,70.0,0,155,0.0,64.0
6856,51.0,120,120,2.0,63.0
6857,43.0,120,240,3.0,62.0
6858,69.0,0,155,0.0,65.0
6859,81.0,0,155,0.0,65.0
6860,51.0,120,120,2.0,65.0
6861,46.0,120,240,3.0,64.0
6862,79.0,0,155,0.0,67.0
6863,67.0,0,155,0.0,67.0
6864,43.0,120,240,3.0,65.0
6865,51.0,120,120,2.0,66.0
6866,65.0,0,155,0.0,69.0
6867,77.0,120,155,0.0,69.0
6868,53.0,120,120,2.0,68.0
6869,45.0,0,240,3.0,67.0
6870,64.0,120,155,0.0,70.0
6871,76.0,0,155,0.0,70.0
6872,50.0,0,192,3.0,69.0
6873,53.0,120,120,2.0,69.0
6874,62.0,0,155,0.0,72.0
6875,74.0,0,155,0.0,72.0
6876,53.0,120,120,2.0,71.0
6877,45.0,120,240,3.0,70.0
6878,61.0,0,155,0.0,74.0
6879,73.0,120,155,0.0,74.0
6880,43.0,0,240,3.0,72.0
6881,52.0,120,120,2.0,73.0
6882,62.0,120,155,0.0,75.0
6883,74.0,0,155,0.0,75.0
6884,45.0,0,240,3.0,73.0
6885,52.0,120,120,2.0,74.0
6886,76.0,120,155,0.0,77.0
6887,64.0,0,155,0.0,77.0
6888,43.0,0,240,3.0,75.0
6889,52.0,120,120,2.0,76.0
6890,74.0,0,240,0.0,79.0
6891,62.0,120,240,0.0,79.0
6892,50.0,120,120,2.0,78.0
6893,41.0,0,240,3.0,77.0
6894,82.0,120,155,0.0,83.0
6895,70.0,0,155,0.0,83.0
6896,40.0,0,240,3.0,83.0
6897,50.0,120,120,2.0,81.0
6898,82.0,0,155,0.0,80.0
6899,70.0,120,155,0.0,80.0
6900,50.0,120,120,2.0,78.0
6901,41.0,0,240,3.0,82.0
6902,70.0,120,155,0.0,77.0
6903,82.0,0,155,0.0,77.0
6904,52.0,120,120,2.0,75.0
6905,50.0,0,120,2.0,75.0
6906,43.0,0,240,3.0,79.0
6907,81.0,0,155,0.0,74.0
6908,69.0,0,155,0.0,74.0
6909,50.0,0,120,2.0,72.0
6910,52.0,120,120,2.0,72.0
6911,41.0,120,240,3.0,77.0
6912,67.0,0,155,0.0,71.0
6913,79.0,0,155,0.0,71.0
6914,52.0,0,120,2.0,69.0
6915,50.0,120,120,2.0,69.0
6916,43.0,120,240,3.0,74.0
6917,65.0,120,155,0.0,68.0
6918,77.0,0,155,0.0,68.0
6919,50.0,120,120,2.0,66.0
6920,53.0,0,120,2.0,66.0
6921,45.0,0,240,3.0,72.0
6922,64.0,0,155,0.0,64.0
6923,76.0,120,155,0.0,64.0
6924,53.0,120,120,2.0,63.0
6925,44.0,0,240,3.0,69.0
6926,50.0,0,120,2.0,63.0
6927,62.0,0,155,0.0,61.0
6928,74.0,120,155,0.0,61.0
6929,45.0,120,0,3.0,64.0
6930,53.0,0,120,2.0,60.0
6931,50.0,120,120,2.0,60.0
6932,61.0,0,155,0.0,58.0
6933,73.0,0,155,0.0,58.0
6934,52.0,120,120,2.0,57.0
6935,55.0,0,120,2.0,57.0
6936,45.0,120,0,3.0,61.0
6937,62.0,0,155,0.0,55.0
6938,74.0,0,155,0.0,55.0
6939,53.0,120,120,2.0,54.0
6940,50.0,0,120,2.0,54.0
6941,45.0,120,0,3.0,59.0
6942,64.0,0,155,0.0,52.0
6943,76.0,0,155,0.0,52.0
6944,52.0,0,120,2.0,51.0
6945,49.0,120,120,2.0,51.0
6946,74.0,120,155,0.0,50.0
6947,62.0,0,155,0.0,50.0
6948,53.0,120,120,2.0,50.0
6949,53.0,120,120,2.0,52.0
6950,50.0,120,240,2.0,51.0
6951,62.0,120,120,0.0,52.0
6952,74.0,120,120,0.0,53.0
6953,53.0,0,120,2.0,53.0
6954,45.0,0,240,2.0,52.0
6955,38.0,120,0,3.0,54.0
6956,65.0,0,180,0.0,54.0
6957,53.0,120,120,2.0,55.0
6958,50.0,120,240,2.0,55.0
6959,53.0,120,120,2.0,56.0
6960,65.0,0,120,0.0,57.0
6961,77.0,0,120,0.0,57.0
6962,53.0,120,120,2.0,57.0
6963,45.0,120,240,2.0,57.0
6964,38.0,0,0,3.0,58.0
6965,69.0,120,180,0.0,58.0
6966,53.0,120,120,2.0,59.0
6967,53.0,120,120,2.0,60.0
6968,50.0,120,240,2.0,60.0
6969,69.0,0,120,0.0,61.0
6970,81.0,0,120,0.0,62.0
6971,45.0,120,240,2.0,61.0
6972,53.0,120,120,2.0,62.0
6973,65.0,0,180,0.0,63.0
6974,53.0,120,120,2.0,63.0
6975,50.0,120,240,2.0,64.0
6976,53.0,120,120,2.0,65.0
6977,65.0,0,120,0.0,65.0
6978,38.0,120,720,3.0,63.0
6979,45.0,120,240,2.0,65.0
6980,53.0,0,120,2.0,66.0
6981,77.0,120,120,0.0,66.0
6982,53.0,120,120,2.0,68.0
6983,50.0,120,240,2.0,68.0
6984,53.0,120,120,2.0,69.0
6985,45.0,120,240,2.0,70.0
6986,33.0,120,0,3.0,75.0
6987,53.0,120,120,2.0,71.0
6988,62.0,0,950,0.0,74.0
6989,74.0,0,710,0.0,80.0
6990,55.0,120,120,2.0,72.0
6991,64.0,0,155,0.0,77.0
6992,76.0,120,155,0.0,77.0
6993,55.0,120,120,2.0,73.0
6994,52.0,0,240,2.0,73.0
6995,61.0,0,155,0.0,73.0
6996,73.0,120,155,0.0,73.0
6997,55.0,120,120,2.0,75.0
6998,45.0,0,240,2.0,74.0
6999,74.0,0,155,0.0,69.0
7000,62.0,120,155,0.0,69.0
7001,53.0,120,120,2.0,58.0
7002,53.0,0,120,2.0,58.0
7003,62.0,120,120,0.0,58.0
7004,50.0,120,240,2.0,58.0
7005,74.0,120,120,0.0,59.0
7006,62.0,120,120,0.0,59.0
7007,38.0,0,0,3.0,59.0
7008,53.0,0,120,2.0,59.0
7009,45.0,0,240,2.0,59.0
7010,65.0,120,180,0.0,59.0
7011,53.0,120,120,2.0,60.0
7012,53.0,120,120,2.0,60.0
7013,50.0,120,240,2.0,60.0
7014,65.0,0,120,0.0,60.0
7015,77.0,0,120,0.0,61.0
7016,65.0,0,120,0.0,61.0
7017,53.0,120,120,2.0,61.0
7018,45.0,120,240,2.0,61.0
7019,38.0,0,0,3.0,61.0
7020,69.0,120,180,0.0,61.0
7021,53.0,120,120,2.0,62.0
7022,53.0,120,120,2.0,62.0
7023,69.0,0,120,0.0,62.0
7024,50.0,120,240,2.0,62.0
7025,81.0,0,120,0.0,63.0
7026,45.0,120,240,2.0,63.0
7027,53.0,120,120,2.0,63.0
7028,69.0,0,120,0.0,63.0
7029,38.0,120,0,3.0,63.0
7030,65.0,0,180,0.0,63.0
7031,53.0,120,120,2.0,64.0
7032,50.0,120,240,2.0,64.0
7033,53.0,0,120,2.0,64.0
7034,65.0,120,120,0.0,64.0
7035,77.0,0,120,0.0,65.0
7036,65.0,120,120,0.0,65.0
7037,53.0,0,120,2.0,65.0
7038,45.0,120,240,2.0,65.0
7039,53.0,120,120,2.0,66.0
7040,53.0,120,120,2.0,66.0
7041,50.0,120,240,2.0,66.0
7042,53.0,120,120,2.0,67.0
7043,33.0,120,0,3.0,72.0
7044,45.0,120,240,2.0,67.0
7045,62.0,0,950,0.0,73.0
7046,74.0,0,710,0.0,87.0
7047,55.0,120,120,2.0,68.0
7048,76.0,120,155,0.0,75.0
7049,64.0,0,155,0.0,75.0
7050,55.0,120,120,2.0,68.0
7051,52.0,0,240,2.0,68.0
7052,61.0,0,155,0.0,71.0
7053,73.0,0,155,0.0,71.0
7054,45.0,120,240,2.0,69.0
7055,55.0,120,120,2.0,69.0
7056,62.0,0,240,0.0,67.0
7057,74.0,120,240,0.0,67.0
7058,61.0,240,192,3.0,64.0
7059,76.0,0,240,0.0,64.0
7060,62.0,120,120,2.0,66.0
7061,78.0,120,240,0.0,69.0
7062,62.0,120,120,2.0,71.0
7063,60.0,0,240,3.0,69.0
7064,58.0,120,240,3.0,77.0
7065,79.0,0,240,0.0,77.0
7066,62.0,120,120,2.0,77.0
7067,57.0,120,240,3.0,76.0
7068,62.0,120,120,2.0,75.0
7069,86.0,0,0,0.0,74.0
7070,77.0,0,240,0.0,76.0
7071,76.0,0,240,0.0,74.0
7072,86.0,0,0,0.0,72.0
7073,56.0,120,240,3.0,74.0
7074,62.0,120,120,2.0,73.0
7075,50.0,0,1470,3.0,60.0
7076,77.0,120,240,0.0,72.0
7077,57.0,0,240,3.0,72.0
7078,62.0,120,120,2.0,71.0
7079,57.0,120,120,2.0,70.0
7080,64.0,0,240,3.0,71.0
7081,73.0,0,240,0.0,71.0
7082,85.0,120,240,0.0,71.0
7083,57.0,120,120,2.0,68.0
7084,86.0,0,240,0.0,69.0
7085,74.0,0,240,0.0,69.0
7086,65.0,120,240,3.0,69.0
7087,67.0,0,240,3.0,67.0
7088,76.0,120,240,0.0,67.0
7089,88.0,0,240,0.0,67.0
7090,57.0,120,120,2.0,66.0
7091,57.0,120,120,2.0,65.0
7092,65.0,0,240,3.0,65.0
7093,83.0,0,240,0.0,65.0
7094,71.0,120,240,0.0,65.0
7095,57.0,120,120,2.0,63.0
7096,64.0,120,240,3.0,64.0
7097,85.0,0,240,0.0,64.0
7098,73.0,0,240,0.0,64.0
7099,62.0,120,120,2.0,65.0
7100,86.0,0,120,0.0,65.0
7101,74.0,120,240,0.0,64.0
7102,61.0,120,240,3.0,66.0
7103,76.0,0,240,0.0,66.0
7104,86.0,120,120,0.0,68.0
7105,62.0,0,120,2.0,68.0
7106,78.0,0,240,0.0,69.0
7107,86.0,0,120,0.0,71.0
7108,60.0,120,240,3.0,69.0
7109,62.0,120,120,2.0,71.0
7110,58.0,0,240,3.0,75.0
7111,79.0,120,240,0.0,75.0
7112,86.0,120,120,0.0,75.0
7113,62.0,0,120,2.0,75.0
7114,86.0,120,120,0.0,74.0
7115,77.0,0,240,0.0,74.0
7116,62.0,0,120,2.0,74.0
7117,57.0,120,240,3.0,74.0
7118,86.0,120,120,0.0,73.0
7119,56.0,0,240,3.0,73.0
7120,62.0,0,120,2.0,73.0
7121,76.0,120,240,0.0,73.0
7122,50.0,0,1455,3.0,64.0
7123,57.0,120,240,3.0,73.0
7124,77.0,0,240,0.0,73.0
7125,86.0,120,120,0.0,72.0
7126,62.0,0,120,2.0,72.0
7127,85.0,0,120,0.0,71.0
7128,73.0,0,240,0.0,72.0
7129,62.0,120,120,2.0,71.0
7130,64.0,120,240,3.0,72.0
7131,57.0,0,120,2.0,70.0
7132,74.0,120,240,0.0,71.0
7133,86.0,120,120,0.0,70.0
7134,65.0,0,240,3.0,71.0
7135,88.0,120,120,0.0,69.0
7136,76.0,120,240,0.0,70.0
7137,67.0,0,240,3.0,70.0
7138,57.0,0,120,2.0,69.0
7139,71.0,0,240,0.0,69.0
7140,65.0,120,240,3.0,69.0
7141,57.0,120,120,2.0,68.0
7142,83.0,0,120,0.0,68.0
7143,64.0,120,240,3.0,68.0
7144,57.0,0,120,2.0,68.0
7145,73.0,0,240,0.0,68.0
7146,85.0,120,120,0.0,68.0
7147,74.0,0,120,0.0,75.0
7148,62.0,0,120,2.0,67.0
7149,86.0,120,120,0.0,67.0
7150,50.0,120,360,3.0,75.0
7151,73.0,120,120,0.0,66.0
7152,62.0,120,120,2.0,66.0
7153,61.0,0,240,2.0,66.0
7154,74.0,0,120,0.0,66.0
7155,86.0,0,120,0.0,65.0
7156,74.0,120,120,0.0,65.0
7157,62.0,0,120,2.0,65.0
7158,50.0,120,360,3.0,65.0
7159,73.0,0,120,0.0,72.0
7160,74.0,0,120,0.0,64.0
7161,62.0,120,120,2.0,64.0
7162,61.0,120,240,2.0,74.0
7163,86.0,120,120,0.0,63.0
7164,74.0,0,120,0.0,63.0
7165,62.0,120,120,2.0,63.0
7166,73.0,0,120,0.0,62.0
7167,50.0,0,360,3.0,63.0
7168,74.0,120,120,0.0,62.0
7169,62.0,0,120,2.0,62.0
7170,61.0,120,240,2.0,62.0
7171,86.0,0,120,0.0,70.0
7172,74.0,120,120,0.0,61.0
7173,62.0,0,120,2.0,61.0
7174,73.0,0,120,0.0,61.0
7175,50.0,120,360,3.0,67.0
7176,61.0,120,240,2.0,61.0
7177,62.0,120,120,2.0,60.0
7178,74.0,0,120,0.0,60.0
7179,86.0,0,120,0.0,60.0
7180,62.0,120,120,2.0,59.0
7181,74.0,0,120,0.0,59.0
7182,73.0,120,120,0.0,69.0
7183,50.0,120,360,3.0,60.0
7184,62.0,120,120,2.0,58.0
7185,61.0,0,240,2.0,74.0
7186,74.0,0,120,0.0,58.0
7187,86.0,120,120,0.0,58.0
7188,74.0,120,120,0.0,57.0
7189,62.0,0,120,2.0,57.0
7190,73.0,0,120,0.0,57.0
7191,50.0,0,360,3.0,58.0
7192,74.0,0,120,0.0,56.0
7193,61.0,120,240,2.0,57.0
7194,62.0,120,120,2.0,56.0
7195,75.0,0,144,0.0,65.0
7196,72.0,0,240,2.0,65.0
7197,66.0,0,240,2.0,65.0
7198,69.0,120,240,2.0,65.0
7199,74.0,120,120,1.0,55.0
7200,75.0,120,144,0.0,56.0
7201,74.0,120,120,1.0,54.0
7202,75.0,120,144,0.0,55.0
7203,74.0,120,120,1.0,53.0
7204,75.0,120,144,0.0,54.0
7205,74.0,120,120,1.0,52.0
7206,75.0,120,144,0.0,52.0
7207,74.0,120,120,1.0,51.0
7208,75.0,120,144,0.0,51.0
7209,74.0,120,120,1.0,50.0
7210,75.0,120,144,0.0,50.0
7211,74.0,120,120,1.0,49.0
7212,75.0,120,144,0.0,48.0
7213,74.0,120,120,1.0,48.0
7214,75.0,120,144,0.0,47.0
7215,74.0,120,120,1.0,46.0
7216,75.0,120,144,0.0,46.0
7217,74.0,120,120,1.0,45.0
7218,75.0,120,144,0.0,44.0
7219,75.0,120,120,1.0,44.0
7220,81.0,120,120,0.0,56.0
7221,82.0,120,120,0.0,61.0
7222,84.0,0,120,0.0,63.0
7223,69.0,120,120,2.0,63.0
7224,72.0,120,120,2.0,63.0
7225,75.0,120,120,0.0,62.0
7226,81.0,120,120,0.0,62.0
7227,66.0,120,705,3.0,61.0
7228,82.0,120,120,0.0,61.0
7229,84.0,120,120,0.0,61.0
7230,69.0,120,120,2.0,60.0
7231,72.0,120,120,2.0,59.0
7232,75.0,120,120,0.0,59.0
7233,81.0,120,120,0.0,59.0
7234,66.0,0,705,3.0,59.0
7235,82.0,120,120,0.0,58.0
7236,84.0,120,120,0.0,58.0
7237,69.0,120,120,2.0,56.0
7238,72.0,120,120,2.0,56.0
7239,75.0,120,120,0.0,56.0
7240,81.0,120,120,0.0,56.0
7241,66.0,0,710,3.0,56.0
7242,82.0,120,120,0.0,55.0
7243,84.0,120,120,0.0,55.0
7244,69.0,120,120,2.0,53.0
7245,72.0,120,120,2.0,52.0
7246,74.0,120,120,0.0,53.0
7247,84.0,120,120,0.0,53.0
7248,66.0,0,690,3.0,53.0
7249,81.0,120,120,0.0,52.0
7250,82.0,0,120,0.0,52.0
7251,67.0,120,120,0.0,54.0
7252,70.0,120,120,0.0,55.0
7253,58.0,120,585,2.0,52.0
7254,55.0,120,705,3.0,51.0
7255,62.0,120,470,1.0,51.0
7256,74.0,120,120,0.0,56.0
7257,67.0,120,120,0.0,60.0
7258,70.0,120,120,0.0,61.0
7259,55.0,120,695,3.0,56.0
7260,61.0,120,465,1.0,58.0
7261,58.0,120,585,2.0,57.0
7262,73.0,120,120,0.0,62.0
7263,67.0,120,120,0.0,66.0
7264,70.0,120,120,0.0,67.0
7265,62.0,120,465,1.0,64.0
7266,55.0,120,705,3.0,61.0
7267,58.0,120,590,2.0,61.0
7268,74.0,120,120,0.0,69.0
7269,67.0,120,120,0.0,73.0
7270,70.0,120,120,0.0,74.0
7271,64.0,120,465,1.0,71.0
7272,61.0,120,585,2.0,66.0
7273,55.0,120,705,3.0,67.0
7274,76.0,120,120,0.0,75.0
7275,71.0,120,120,2.0,70.0
7276,74.0,120,120,2.0,71.0
7277,77.0,120,120,0.0,72.0
7278,83.0,120,120,0.0,71.0
7279,68.0,120,710,3.0,72.0
7280,85.0,120,120,0.0,70.0
7281,86.0,120,120,0.0,69.0
7282,71.0,120,120,2.0,69.0
7283,74.0,120,120,2.0,68.0
7284,77.0,120,120,0.0,67.0
7285,83.0,120,120,0.0,66.0
7286,68.0,0,710,3.0,69.0
7287,85.0,120,120,0.0,66.0
7288,86.0,0,120,0.0,65.0
7289,71.0,120,120,2.0,64.0
7290,74.0,120,120,2.0,63.0
7291,77.0,120,120,0.0,63.0
7292,83.0,120,120,0.0,62.0
7293,68.0,120,695,3.0,65.0
7294,85.0,120,120,0.0,61.0
7295,86.0,0,120,0.0,61.0
7296,71.0,120,120,2.0,60.0
7297,74.0,120,120,2.0,59.0
7298,77.0,120,120,0.0,58.0
7299,86.0,120,120,0.0,58.0
7300,68.0,120,690,3.0,61.0
7301,83.0,120,120,0.0,57.0
7302,85.0,120,120,0.0,56.0
7303,69.0,120,120,0.0,53.0
7304,73.0,120,120,0.0,53.0
7305,64.0,120,465,1.0,60.0
7306,61.0,120,590,2.0,52.0
7307,57.0,0,710,3.0,56.0
7308,76.0,120,120,0.0,54.0
7309,69.0,120,120,0.0,55.0
7310,73.0,120,120,0.0,55.0
7311,63.0,120,455,1.0,63.0
7312,57.0,120,705,3.0,54.0
7313,61.0,120,590,2.0,54.0
7314,75.0,120,120,0.0,56.0
7315,69.0,120,120,0.0,57.0
7316,73.0,120,120,0.0,58.0
7317,57.0,120,690,3.0,56.0
7318,64.0,120,455,1.0,66.0
7319,61.0,120,585,2.0,57.0
7320,76.0,120,120,0.0,58.0
7321,69.0,120,120,0.0,60.0
7322,73.0,120,120,0.0,60.0
7323,66.0,120,450,1.0,69.0
7324,61.0,120,585,2.0,59.0
7325,57.0,120,710,3.0,59.0
7326,78.0,120,120,0.0,60.0
7327,69.0,120,120,0.0,61.0
7328,73.0,120,120,0.0,61.0
7329,61.0,120,575,2.0,63.0
7330,67.0,120,470,1.0,66.0
7331,57.0,120,710,3.0,63.0
7332,79.0,120,120,0.0,60.0
7333,69.0,120,120,0.0,57.0
7334,73.0,120,120,0.0,56.0
7335,61.0,120,575,2.0,58.0
7336,57.0,120,695,3.0,59.0
7337,66.0,120,465,1.0,63.0
7338,78.0,120,120,0.0,55.0
7339,69.0,120,120,0.0,52.0
7340,73.0,120,120,0.0,51.0
7341,57.0,120,695,3.0,54.0
7342,61.0,120,585,2.0,54.0
7343,67.0,120,470,1.0,60.0
7344,79.0,120,120,0.0,51.0
7345,69.0,120,120,0.0,48.0
7346,73.0,120,120,0.0,47.0
7347,57.0,120,695,3.0,50.0
7348,65.0,120,465,1.0,56.0
7349,61.0,120,590,2.0,49.0
7350,77.0,120,120,0.0,46.0
7351,69.0,120,120,0.0,46.0
7352,73.0,120,120,0.0,47.0
7353,57.0,120,695,3.0,46.0
7354,64.0,120,465,1.0,53.0
7355,61.0,120,585,2.0,48.0
7356,76.0,120,120,0.0,47.0
7357,69.0,120,120,0.0,49.0
7358,73.0,120,120,0.0,49.0
7359,57.0,120,705,3.0,46.0
7360,61.0,120,585,2.0,46.0
7361,75.0,120,120,0.0,50.0
7362,63.0,120,485,1.0,49.0
7363,69.0,120,120,0.0,52.0
7364,73.0,120,120,0.0,52.0
7365,57.0,120,690,3.0,48.0
7366,64.0,120,450,1.0,52.0
7367,61.0,120,575,2.0,48.0
7368,76.0,120,120,0.0,52.0
7369,69.0,120,120,0.0,54.0
7370,73.0,120,120,0.0,55.0
7371,66.0,120,465,1.0,54.0
7372,61.0,120,585,2.0,49.0
7373,57.0,120,710,3.0,51.0
7374,78.0,120,120,0.0,55.0
7375,69.0,120,120,0.0,51.0
7376,73.0,120,120,0.0,50.0
7377,57.0,120,695,3.0,53.0
7378,67.0,120,465,1.0,57.0
7379,61.0,120,585,2.0,53.0
7380,79.0,120,120,0.0,49.0
7381,69.0,120,120,0.0,43.0
7382,73.0,120,120,0.0,42.0
7383,61.0,120,570,2.0,47.0
7384,67.0,120,455,1.0,52.0
7385,57.0,120,695,3.0,52.0
7386,79.0,120,120,0.0,40.0
7387,69.0,120,120,0.0,35.0
7388,73.0,120,120,0.0,33.0
7389,57.0,120,690,3.0,44.0
7390,61.0,120,575,2.0,40.0
7391,67.0,120,455,1.0,47.0
7392,79.0,120,120,0.0,32.0
7393,69.0,120,120,0.0,97.0
7394,77.0,0,120,0.0,107.0
7395,57.0,120,705,3.0,35.0
7396,64.0,120,465,1.0,41.0
7397,61.0,120,585,2.0,34.0
7398,76.0,120,120,0.0,102.0
7399,81.0,120,350,0.0,107.0
7400,74.0,0,120,0.0,96.0
7401,69.0,120,120,0.0,95.0
7402,77.0,120,120,0.0,105.0
7403,50.0,120,695,3.0,100.0
7404,62.0,120,470,2.0,96.0
7405,57.0,120,590,2.0,96.0
7406,65.0,0,350,2.0,96.0
7407,76.0,120,120,0.0,100.0
7408,81.0,0,350,0.0,105.0
7409,74.0,0,120,0.0,96.0
7410,69.0,120,120,0.0,98.0
7411,77.0,120,120,0.0,107.0
7412,62.0,120,465,2.0,97.0
7413,65.0,0,345,2.0,97.0
7414,50.0,120,710,3.0,100.0
7415,57.0,120,590,2.0,97.0
7416,76.0,120,120,0.0,103.0
7417,81.0,0,350,0.0,107.0
7418,74.0,0,120,0.0,99.0
7419,69.0,0,120,0.0,102.0
7420,77.0,0,120,0.0,111.0
7421,57.0,120,560,2.0,98.0
7422,50.0,120,695,3.0,101.0
7423,65.0,120,345,2.0,98.0
7424,62.0,120,465,2.0,98.0
7425,74.0,120,120,0.0,106.0
7426,81.0,120,350,0.0,111.0
7427,76.0,120,120,0.0,101.0
7428,69.0,120,120,0.0,103.0
7429,79.0,0,120,0.0,111.0
7430,61.0,120,465,2.0,100.0
7431,57.0,120,585,2.0,99.0
7432,64.0,0,345,2.0,100.0
7433,45.0,0,705,3.0,102.0
7434,77.0,120,120,0.0,105.0
7435,81.0,120,350,0.0,111.0
7436,76.0,120,120,0.0,99.0
7437,69.0,0,120,0.0,102.0
7438,79.0,120,120,0.0,111.0
7439,61.0,120,465,2.0,101.0
7440,57.0,120,585,2.0,101.0
7441,45.0,0,710,3.0,103.0
7442,64.0,120,350,2.0,101.0
7443,77.0,120,120,0.0,107.0
7444,81.0,0,350,0.0,111.0
7445,76.0,120,120,0.0,104.0
7446,69.0,0,120,0.0,102.0
7447,79.0,0,120,0.0,110.0
7448,61.0,120,465,2.0,102.0
7449,57.0,120,585,2.0,102.0
7450,64.0,120,350,2.0,102.0
7451,45.0,0,710,3.0,104.0
7452,77.0,120,120,0.0,106.0
7453,81.0,120,350,0.0,110.0
7454,76.0,0,120,0.0,101.0
7455,69.0,120,120,0.0,103.0
7456,79.0,120,120,0.0,110.0
7457,61.0,120,465,2.0,103.0
7458,64.0,0,345,2.0,103.0
7459,57.0,120,585,2.0,103.0
7460,45.0,120,710,3.0,104.0
7461,76.0,120,120,0.0,107.0
7462,81.0,0,350,0.0,110.0
7463,77.0,0,120,0.0,103.0
7464,74.0,120,120,0.0,89.0
7465,81.0,120,120,0.0,86.0
7466,57.0,120,575,2.0,89.0
7467,62.0,120,465,2.0,85.0
7468,50.0,120,705,3.0,105.0
7469,65.0,0,350,2.0,81.0
7470,86.0,120,120,0.0,83.0
7471,82.0,0,120,0.0,80.0
7472,70.0,120,120,0.0,71.0
7473,62.0,120,480,2.0,66.0
7474,74.0,120,120,0.0,68.0
7475,55.0,120,705,3.0,68.0
7476,67.0,120,465,2.0,63.0
7477,82.0,120,120,0.0,66.0
7478,79.0,0,120,0.0,63.0
7479,67.0,120,120,0.0,66.0
7480,70.0,120,120,0.0,68.0
7481,63.0,120,455,2.0,67.0
7482,58.0,120,585,2.0,66.0
7483,51.0,120,710,3.0,65.0
7484,79.0,120,120,0.0,69.0
7485,76.0,120,120,0.0,71.0
7486,64.0,120,120,0.0,75.0
7487,69.0,120,120,0.0,74.0
7488,57.0,120,570,2.0,73.0
7489,61.0,120,470,2.0,74.0
7490,49.0,0,710,3.0,72.0
7491,76.0,120,120,0.0,72.0
7492,77.0,120,120,0.0,71.0
7493,65.0,120,120,0.0,66.0
7494,69.0,120,120,0.0,65.0
7495,57.0,120,575,2.0,69.0
7496,62.0,120,465,2.0,68.0
7497,50.0,0,705,3.0,71.0
7498,77.0,120,120,0.0,63.0
7499,74.0,120,120,0.0,62.0
7500,62.0,120,120,2.0,63.0
7501,69.0,120,120,0.0,73.0
7502,45.0,0,680,3.0,62.0
7503,57.0,120,455,2.0,60.0
7504,53.0,120,585,2.0,60.0
7505,74.0,120,120,0.0,76.0
7506,73.0,120,120,0.0,78.0
7507,61.0,0,120,2.0,82.0
7508,69.0,120,120,0.0,87.0
7509,52.0,120,585,2.0,76.0
7510,45.0,0,710,3.0,73.0
7511,57.0,120,360,2.0,82.0
7512,55.0,120,480,2.0,79.0
7513,73.0,120,120,0.0,90.0
7514,74.0,0,120,0.0,92.0
7515,50.0,120,120,2.0,91.0
7516,38.0,120,259,3.0,95.0
7517,53.0,120,120,2.0,93.0
7518,57.0,120,120,2.0,95.0
7519,62.0,120,120,2.0,96.0
7520,65.0,0,120,0.0,87.0
7521,69.0,120,120,0.0,85.0
7522,74.0,120,120,0.0,83.0
7523,77.0,120,120,0.0,81.0
7524,81.0,120,120,0.0,79.0
7525,77.0,120,120,0.0,77.0
7526,86.0,120,120,0.0,75.0
7527,81.0,120,120,0.0,73.0
7528,82.0,120,120,0.0,71.0
7529,70.0,120,120,0.0,64.0
7530,74.0,120,120,0.0,65.0
7531,55.0,0,695,3.0,71.0
7532,67.0,120,455,2.0,66.0
7533,62.0,120,575,2.0,68.0
7534,82.0,120,120,0.0,66.0
7535,79.0,120,120,0.0,67.0
7536,67.0,120,120,2.0,70.0
7537,70.0,120,120,0.0,71.0
7538,51.0,0,705,3.0,67.0
7539,58.0,120,585,2.0,68.0
7540,63.0,120,470,2.0,69.0
7541,79.0,120,120,0.0,73.0
7542,76.0,0,120,0.0,74.0
7543,64.0,120,120,2.0,79.0
7544,69.0,120,120,0.0,78.0
7545,57.0,120,575,2.0,75.0
7546,49.0,120,710,3.0,74.0
7547,61.0,120,470,2.0,76.0
7548,76.0,120,120,0.0,76.0
7549,77.0,120,120,0.0,74.0
7550,65.0,120,120,2.0,69.0
7551,69.0,120,120,0.0,67.0
7552,62.0,120,455,2.0,71.0
7553,50.0,0,695,3.0,74.0
7554,57.0,120,585,2.0,73.0
7555,77.0,120,120,0.0,66.0
7556,74.0,0,120,0.0,64.0
7557,62.0,120,120,2.0,58.0
7558,69.0,120,120,0.0,60.0
7559,45.0,120,705,3.0,64.0
7560,57.0,120,465,2.0,61.0
7561,53.0,120,585,2.0,62.0
7562,74.0,120,120,0.0,62.0
7563,73.0,120,120,0.0,64.0
7564,61.0,0,120,2.0,75.0
7565,69.0,120,120,0.0,72.0
7566,55.0,120,465,2.0,73.0
7567,57.0,120,345,2.0,75.0
7568,45.0,0,710,3.0,64.0
7569,52.0,120,590,2.0,66.0
7570,73.0,120,120,0.0,74.0
7571,74.0,120,120,0.0,77.0
7572,53.0,120,120,2.0,85.0
7573,69.0,60,60,0.0,85.0
7574,57.0,60,120,2.0,87.0
7575,62.0,120,120,2.0,89.0
7576,81.0,0,480,0.0,99.0
7577,80.0,360,120,0.0,84.0
7578,79.0,120,120,0.0,82.0
7579,78.0,120,120,0.0,79.0
7580,77.0,120,120,0.0,77.0
7581,76.0,120,120,0.0,74.0
7582,75.0,120,120,0.0,71.0
7583,50.0,0,1440,3.0,77.0
7584,74.0,120,120,0.0,69.0
7585,62.0,120,120,0.0,73.0
7586,69.0,120,120,0.0,74.0
7587,57.0,120,465,2.0,71.0
7588,53.0,120,585,2.0,70.0
7589,45.0,0,710,3.0,68.0
7590,74.0,120,120,0.0,76.0
7591,73.0,120,120,0.0,78.0
7592,61.0,120,120,0.0,82.0
7593,69.0,120,120,0.0,84.0
7594,45.0,0,705,3.0,78.0
7595,57.0,0,345,2.0,82.0
7596,55.0,120,465,2.0,81.0
7597,52.0,120,590,2.0,79.0
7598,73.0,120,120,0.0,85.0
7599,74.0,0,120,0.0,88.0
7600,74.0,60,60,0.0,95.0
7601,53.0,120,120,2.0,94.0
7602,57.0,0,120,2.0,96.0
7603,62.0,120,335,2.0,98.0
7604,86.0,60,480,0.0,109.0
7605,85.0,360,120,0.0,96.0
7606,84.0,120,120,0.0,93.0
7607,83.0,120,120,0.0,90.0
7608,82.0,120,120,0.0,87.0
7609,81.0,120,120,0.0,85.0
7610,80.0,120,120,0.0,82.0
7611,50.0,120,1440,3.0,88.0
7612,81.0,0,120,0.0,79.0
7613,62.0,120,120,0.0,81.0
7614,69.0,120,120,0.0,84.0
7615,53.0,120,585,2.0,83.0
7616,57.0,120,470,2.0,85.0
7617,45.0,120,710,3.0,77.0
7618,74.0,120,120,0.0,87.0
7619,73.0,0,120,0.0,91.0
7620,61.0,120,120,0.0,100.0
7621,69.0,120,120,0.0,103.0
7622,57.0,0,345,2.0,102.0
7623,52.0,120,590,2.0,97.0
7624,55.0,120,470,2.0,99.0
7625,45.0,120,710,3.0,87.0
7626,73.0,120,120,0.0,107.0
7627,74.0,0,120,0.0,110.0
7628,74.0,180,60,0.0,115.0
7629,50.0,120,240,3.0,104.0
7630,89.0,60,600,0.0,120.0
7631,77.0,0,600,0.0,120.0
7632,88.0,600,120,0.0,109.0
7633,76.0,0,120,0.0,109.0
7634,87.0,0,120,0.0,107.0
7635,75.0,120,120,0.0,107.0
7636,74.0,0,120,0.0,105.0
7637,86.0,120,120,0.0,105.0
7638,73.0,0,120,0.0,103.0
7639,85.0,120,120,0.0,103.0
7640,84.0,0,120,0.0,101.0
7641,72.0,120,120,0.0,101.0
7642,83.0,0,80,0.0,98.0
7643,71.0,120,80,0.0,98.0
7644,82.0,0,80,0.0,97.0
7645,70.0,80,80,0.0,97.0
7646,69.0,80,80,0.0,96.0
7647,81.0,0,80,0.0,96.0
7648,68.0,0,80,0.0,94.0
7649,80.0,80,80,0.0,94.0
7650,67.0,0,80,0.0,92.0
7651,79.0,80,80,0.0,92.0
7652,66.0,0,80,0.0,90.0
7653,78.0,80,80,0.0,90.0
7654,77.0,0,60,0.0,88.0
7655,65.0,80,60,0.0,88.0
7656,64.0,60,60,0.0,86.0
7657,76.0,0,60,0.0,86.0
7658,63.0,60,60,0.0,85.0
7659,75.0,0,60,0.0,85.0
7660,62.0,60,60,0.0,83.0
7661,74.0,0,60,0.0,83.0
7662,81.0,0,155,0.0,82.0
7663,69.0,60,155,0.0,82.0
7664,57.0,480,155,0.0,83.0
7665,69.0,0,155,0.0,83.0
7666,74.0,240,155,0.0,73.0
7667,62.0,120,135,2.0,62.0
7668,65.0,0,120,2.0,62.0
7669,69.0,120,120,0.0,68.0
7670,77.0,120,120,0.0,68.0
7671,57.0,120,575,2.0,63.0
7672,50.0,0,701,3.0,69.0
7673,74.0,120,120,0.0,67.0
7674,73.0,0,120,0.0,67.0
7675,61.0,120,120,2.0,60.0
7676,64.0,120,120,2.0,60.0
7677,69.0,0,120,0.0,66.0
7678,76.0,120,120,0.0,65.0
7679,57.0,120,585,2.0,61.0
7680,45.0,120,720,3.0,66.0
7681,73.0,120,120,0.0,65.0
7682,74.0,0,120,0.0,64.0
7683,62.0,120,120,2.0,58.0
7684,65.0,120,120,2.0,58.0
7685,81.0,0,120,0.0,63.0
7686,89.0,120,120,0.0,63.0
7687,57.0,120,590,2.0,59.0
7688,86.0,120,120,0.0,62.0
7689,50.0,120,720,3.0,63.0
7690,85.0,0,120,0.0,62.0
7691,61.0,120,120,2.0,56.0
7692,81.0,120,120,0.0,61.0
7693,64.0,0,120,2.0,56.0
7694,88.0,120,120,0.0,60.0
7695,57.0,120,575,2.0,57.0
7696,85.0,120,120,0.0,60.0
7697,45.0,120,720,3.0,60.0
7698,86.0,120,155,0.0,59.0
7699,62.0,120,135,2.0,54.0
7700,65.0,120,120,2.0,54.0
7701,69.0,0,120,0.0,58.0
7702,77.0,120,120,0.0,58.0
7703,50.0,0,687,3.0,57.0
7704,57.0,120,575,2.0,55.0
7705,74.0,120,120,0.0,57.0
7706,73.0,0,120,0.0,57.0
7707,61.0,120,120,2.0,52.0
7708,69.0,120,120,0.0,56.0
7709,64.0,0,120,2.0,52.0
7710,76.0,120,120,0.0,55.0
7711,57.0,120,585,2.0,53.0
7712,45.0,120,720,3.0,54.0
7713,73.0,120,120,0.0,55.0
7714,74.0,0,120,0.0,55.0
7715,62.0,120,120,2.0,50.0
7716,81.0,120,120,0.0,55.0
7717,65.0,0,120,2.0,50.0
7718,89.0,120,120,0.0,56.0
7719,57.0,120,590,2.0,51.0
7720,50.0,120,720,3.0,51.0
7721,86.0,120,120,0.0,58.0
7722,85.0,0,120,0.0,59.0
7723,61.0,120,120,2.0,54.0
7724,64.0,0,120,2.0,55.0
7725,81.0,120,120,0.0,64.0
7726,88.0,120,120,0.0,65.0
7727,57.0,120,575,2.0,52.0
7728,85.0,120,120,0.0,67.0
7729,45.0,120,720,3.0,53.0
7730,86.0,0,120,0.0,68.0
7731,62.0,120,120,2.0,63.0
7732,65.0,0,120,2.0,64.0
7733,89.0,120,120,0.0,73.0
7734,81.0,120,120,0.0,74.0
7735,57.0,120,595,2.0,61.0
7736,50.0,120,0,3.0,76.0
7737,86.0,120,120,0.0,75.0
7738,77.0,0,120,0.0,77.0
7739,62.0,120,120,2.0,72.0
7740,65.0,0,120,2.0,74.0
7741,86.0,120,120,0.0,81.0
7742,77.0,120,120,0.0,83.0
7743,57.0,120,590,2.0,71.0
7744,81.0,120,120,0.0,84.0
7745,50.0,0,0,3.0,87.0
7746,74.0,120,120,0.0,86.0
7747,62.0,120,120,2.0,81.0
7748,81.0,0,120,0.0,90.0
7749,65.0,120,120,2.0,83.0
7750,74.0,120,120,0.0,92.0
7751,57.0,120,590,2.0,80.0
7752,77.0,120,120,0.0,93.0
7753,50.0,120,0,3.0,99.0
7754,69.0,0,120,0.0,95.0
7755,62.0,120,120,2.0,90.0
7756,65.0,120,120,2.0,92.0
7757,77.0,0,120,0.0,99.0
7758,69.0,120,120,0.0,100.0
7759,57.0,120,575,2.0,89.0
7760,74.0,120,120,0.0,102.0
7761,65.0,120,168,0.0,103.0
7762,74.0,120,120,0.0,105.0
7763,69.0,120,120,0.0,106.0
7764,65.0,120,120,0.0,108.0
7765,62.0,120,120,0.0,109.0
7766,50.0,0,720,3.0,111.0
7767,57.0,120,120,0.0,111.0
7768,50.0,120,200,0.0,112.0
7769,62.0,120,120,0.0,104.0
7770,57.0,120,120,0.0,95.0
7771,53.0,120,120,0.0,90.0
7772,50.0,120,120,0.0,85.0
7773,45.0,120,120,0.0,80.0
7774,41.0,120,120,0.0,75.0
7775,38.0,120,360,0.0,70.0
