tick,type,time,meta,track,numerator,denominator,clocks_per_click,notated_32nd_notes_per_beat,key,tempo,port,program,channel,control,value,note,velocity
0,track_name,0,1,0,,,,,,,,,,,,,
0,program_change,0,0,5,,,,,,,,0,4,,,,
0,control_change,0,0,5,,,,,,,,,4,7,100,,
0,control_change,0,0,5,,,,,,,,,4,10,64,,
0,control_change,0,0,5,,,,,,,,,4,93,0,,
0,control_change,0,0,5,,,,,,,,,4,91,66,,
0,track_name,0,1,16,,,,,,,,,,,,,
0,midi_port,0,1,6,,,,,,,0,,,,,,
0,track_name,0,1,6,,,,,,,,,,,,,
0,track_name,0,1,5,,,,,,,,,,,,,
0,program_change,0,0,6,,,,,,,,48,5,,,,
0,control_change,0,0,6,,,,,,,,,5,10,37,,
0,control_change,0,0,6,,,,,,,,,5,93,0,,
0,control_change,0,0,6,,,,,,,,,5,91,66,,
0,note_on,0,0,6,,,,,,,,,5,,,67,58
0,midi_port,0,1,7,,,,,,,0,,,,,,
0,track_name,0,1,7,,,,,,,,,,,,,
0,program_change,0,0,7,,,,,,,,48,6,,,,
0,control_change,0,0,7,,,,,,,,,6,7,100,,
0,control_change,0,0,6,,,,,,,,,5,7,100,,
0,midi_port,0,1,5,,,,,,,0,,,,,,
0,control_change,0,0,4,,,,,,,,,3,91,66,,
0,control_change,0,0,4,,,,,,,,,3,93,0,,
0,program_change,0,0,2,,,,,,,,68,1,,,,
0,control_change,0,0,2,,,,,,,,,1,7,100,,
0,control_change,0,0,2,,,,,,,,,1,10,58,,
0,control_change,0,0,2,,,,,,,,,1,93,0,,
0,control_change,0,0,2,,,,,,,,,1,91,66,,
0,midi_port,0,1,3,,,,,,,0,,,,,,
0,track_name,0,1,3,,,,,,,,,,,,,
0,program_change,0,0,3,,,,,,,,70,2,,,,
0,control_change,0,0,3,,,,,,,,,2,7,100,,
0,control_change,0,0,3,,,,,,,,,2,10,89,,
0,control_change,0,0,3,,,,,,,,,2,93,0,,
0,control_change,0,0,3,,,,,,,,,2,91,66,,
0,note_on,0,0,3,,,,,,,,,2,,,55,46
0,note_on,0,0,3,,,,,,,,,2,,,51,56
0,midi_port,0,1,4,,,,,,,0,,,,,,
0,track_name,0,1,4,,,,,,,,,,,,,
0,program_change,0,0,4,,,,,,,,60,3,,,,
0,control_change,0,0,4,,,,,,,,,3,7,100,,
0,control_change,0,0,4,,,,,,,,,3,10,53,,
0,control_change,0,0,7,,,,,,,,,6,10,9,,
0,track_name,0,1,2,,,,,,,,,,,,,
0,control_change,0,0,7,,,,,,,,,6,93,0,,
0,note_on,0,0,7,,,,,,,,,6,,,63,40
0,control_change,0,0,10,,,,,,,,,10,91,66,,
0,note_on,0,0,10,,,,,,,,,10,,,39,57
0,midi_port,0,1,11,,,,,,,0,,,,,,
0,track_name,0,1,11,,,,,,,,,,,,,
0,end_of_track,0,1,11,,,,,,,,,,,,,
0,midi_port,0,1,12,,,,,,,0,,,,,,
0,track_name,0,1,12,,,,,,,,,,,,,
0,end_of_track,0,1,12,,,,,,,,,,,,,
0,control_change,0,0,10,,,,,,,,,10,93,0,,
0,midi_port,0,1,13,,,,,,,0,,,,,,
0,end_of_track,0,1,13,,,,,,,,,,,,,
0,midi_port,0,1,14,,,,,,,0,,,,,,
0,track_name,0,1,14,,,,,,,,,,,,,
0,end_of_track,0,1,14,,,,,,,,,,,,,
0,midi_port,0,1,15,,,,,,,0,,,,,,
0,track_name,0,1,15,,,,,,,,,,,,,
0,end_of_track,0,1,15,,,,,,,,,,,,,
0,midi_port,0,1,16,,,,,,,0,,,,,,
0,track_name,0,1,13,,,,,,,,,,,,,
0,control_change,0,0,10,,,,,,,,,10,10,119,,
0,control_change,0,0,10,,,,,,,,,10,7,100,,
0,program_change,0,0,10,,,,,,,,48,10,,,,
0,note_on,0,0,7,,,,,,,,,6,,,55,58
0,midi_port,0,1,8,,,,,,,0,,,,,,
0,track_name,0,1,8,,,,,,,,,,,,,
0,program_change,0,0,8,,,,,,,,48,7,,,,
0,control_change,0,0,8,,,,,,,,,7,7,100,,
0,control_change,0,0,8,,,,,,,,,7,10,64,,
0,control_change,0,0,8,,,,,,,,,7,93,0,,
0,control_change,0,0,8,,,,,,,,,7,91,66,,
0,note_on,0,0,8,,,,,,,,,7,,,58,62
0,midi_port,0,1,9,,,,,,,0,,,,,,
0,track_name,0,1,9,,,,,,,,,,,,,
0,program_change,0,0,9,,,,,,,,48,8,,,,
0,control_change,0,0,9,,,,,,,,,8,7,100,,
0,control_change,0,0,9,,,,,,,,,8,10,103,,
0,control_change,0,0,9,,,,,,,,,8,93,0,,
0,control_change,0,0,9,,,,,,,,,8,91,66,,
0,note_on,0,0,9,,,,,,,,,8,,,51,57
0,midi_port,0,1,10,,,,,,,0,,,,,,
0,track_name,0,1,10,,,,,,,,,,,,,
0,control_change,0,0,7,,,,,,,,,6,91,66,,
0,midi_port,0,1,2,,,,,,,0,,,,,,
0,end_of_track,0,1,16,,,,,,,,,,,,,
0,control_change,0,0,1,,,,,,,,,0,93,0,,
0,track_name,0,1,0,,,,,,,,,,,,,
0,text,0,1,0,,,,,,,,,,,,,
0,text,0,1,0,,,,,,,,,,,,,
0,text,0,1,0,,,,,,,,,,,,,
0,time_signature,0,1,0,3,4,24,8,,,,,,,,,
0,key_signature,0,1,0,,,,,Eb,,,,,,,,
0,set_tempo,0,1,0,,,,,,869565,,,,,,,
0,marker,0,1,0,,,,,,,,,,,,,
0,control_change,0,0,1,,,,,,,,,0,91,66,,
0,midi_port,0,1,1,,,,,,,0,,,,,,
0,track_name,0,1,1,,,,,,,,,,,,,
0,control_change,0,0,1,,,,,,,,,0,10,40,,
0,control_change,0,0,1,,,,,,,,,0,7,100,,
0,program_change,0,0,1,,,,,,,,73,0,,,,
90,note_on,90,0,9,,,,,,,,,8,,,51,0
90,note_on,90,0,6,,,,,,,,,5,,,67,0
90,note_on,90,0,8,,,,,,,,,7,,,58,0
90,note_on,90,0,10,,,,,,,,,10,,,39,0
90,note_on,0,0,7,,,,,,,,,6,,,63,0
90,note_on,90,0,7,,,,,,,,,6,,,55,0
120,note_on,30,0,10,,,,,,,,,10,,,36,57
120,note_on,30,0,9,,,,,,,,,8,,,48,57
120,note_on,30,0,7,,,,,,,,,6,,,63,44
120,note_on,0,0,7,,,,,,,,,6,,,55,67
120,note_on,30,0,8,,,,,,,,,7,,,60,66
120,note_on,30,0,6,,,,,,,,,5,,,67,64
210,note_on,90,0,7,,,,,,,,,6,,,55,0
210,note_on,90,0,8,,,,,,,,,7,,,60,0
210,note_on,90,0,10,,,,,,,,,10,,,36,0
210,note_on,90,0,9,,,,,,,,,8,,,48,0
210,note_on,90,0,6,,,,,,,,,5,,,67,0
210,note_on,0,0,7,,,,,,,,,6,,,63,0
240,note_on,30,0,6,,,,,,,,,5,,,68,73
240,note_on,30,0,10,,,,,,,,,10,,,32,54
240,note_on,30,0,9,,,,,,,,,8,,,44,54
240,note_on,240,0,3,,,,,,,,,2,,,51,0
240,note_on,0,0,3,,,,,,,,,2,,,55,0
240,note_on,0,0,3,,,,,,,,,2,,,53,45
240,note_on,0,0,3,,,,,,,,,2,,,56,61
240,note_on,0,0,7,,,,,,,,,6,,,65,49
240,note_on,30,0,7,,,,,,,,,6,,,60,49
240,note_on,30,0,8,,,,,,,,,7,,,56,73
330,note_on,90,0,6,,,,,,,,,5,,,68,0
345,note_on,15,0,6,,,,,,,,,5,,,72,72
360,note_on,0,0,3,,,,,,,,,2,,,53,0
360,note_on,120,0,3,,,,,,,,,2,,,56,0
360,note_on,0,0,7,,,,,,,,,6,,,63,61
360,note_on,0,0,3,,,,,,,,,2,,,55,42
360,note_on,0,0,3,,,,,,,,,2,,,51,61
360,note_on,0,0,7,,,,,,,,,6,,,60,0
360,note_on,0,0,10,,,,,,,,,10,,,34,71
360,note_on,0,0,8,,,,,,,,,7,,,58,62
360,note_on,120,0,10,,,,,,,,,10,,,32,0
360,note_on,120,0,7,,,,,,,,,6,,,65,0
360,note_on,15,0,6,,,,,,,,,5,,,72,0
360,note_on,120,0,9,,,,,,,,,8,,,44,0
360,note_on,0,0,9,,,,,,,,,8,,,46,71
360,note_on,0,0,6,,,,,,,,,5,,,67,72
360,note_on,120,0,8,,,,,,,,,7,,,56,0
480,note_on,0,0,3,,,,,,,,,2,,,53,53
480,note_on,0,0,3,,,,,,,,,2,,,55,0
480,note_on,120,0,3,,,,,,,,,2,,,51,0
480,note_on,0,0,6,,,,,,,,,5,,,65,71
480,note_on,120,0,6,,,,,,,,,5,,,67,0
480,note_on,120,0,7,,,,,,,,,6,,,63,0
480,note_on,0,0,7,,,,,,,,,6,,,62,71
480,note_on,0,0,3,,,,,,,,,2,,,50,52
540,note_on,0,0,3,,,,,,,,,2,,,53,0
540,note_on,180,0,8,,,,,,,,,7,,,58,0
540,note_on,180,0,9,,,,,,,,,8,,,46,0
540,note_on,180,0,10,,,,,,,,,10,,,34,0
540,note_on,60,0,3,,,,,,,,,2,,,50,0
540,note_on,60,0,6,,,,,,,,,5,,,65,0
540,note_on,60,0,7,,,,,,,,,6,,,62,0
720,note_on,180,0,8,,,,,,,,,7,,,60,62
720,control_change,180,0,3,,,,,,,,,2,7,100,,
720,note_on,0,0,3,,,,,,,,,2,,,51,81
720,note_on,180,0,7,,,,,,,,,6,,,63,72
720,note_on,180,0,9,,,,,,,,,8,,,48,56
720,note_on,0,0,3,,,,,,,,,2,,,56,73
720,note_on,180,0,10,,,,,,,,,10,,,36,56
720,note_on,180,0,6,,,,,,,,,5,,,68,84
722,control_change,2,0,6,,,,,,,,,5,7,99,,
728,control_change,8,0,3,,,,,,,,,2,7,101,,
730,control_change,8,0,6,,,,,,,,,5,7,100,,
736,control_change,6,0,6,,,,,,,,,5,7,101,,
736,control_change,8,0,3,,,,,,,,,2,7,102,,
742,control_change,6,0,6,,,,,,,,,5,7,102,,
744,control_change,8,0,3,,,,,,,,,2,7,103,,
748,control_change,6,0,6,,,,,,,,,5,7,103,,
750,control_change,6,0,3,,,,,,,,,2,7,104,,
754,control_change,6,0,6,,,,,,,,,5,7,104,,
758,control_change,8,0,3,,,,,,,,,2,7,105,,
760,control_change,6,0,6,,,,,,,,,5,7,105,,
766,control_change,6,0,6,,,,,,,,,5,7,106,,
766,control_change,8,0,3,,,,,,,,,2,7,106,,
772,control_change,6,0,6,,,,,,,,,5,7,107,,
774,control_change,8,0,3,,,,,,,,,2,7,107,,
778,control_change,6,0,6,,,,,,,,,5,7,108,,
780,control_change,6,0,3,,,,,,,,,2,7,108,,
786,control_change,8,0,6,,,,,,,,,5,7,109,,
788,control_change,8,0,3,,,,,,,,,2,7,109,,
792,control_change,6,0,6,,,,,,,,,5,7,110,,
796,control_change,8,0,3,,,,,,,,,2,7,110,,
798,control_change,6,0,6,,,,,,,,,5,7,111,,
804,control_change,6,0,6,,,,,,,,,5,7,112,,
804,control_change,8,0,3,,,,,,,,,2,7,111,,
810,control_change,6,0,3,,,,,,,,,2,7,112,,
810,control_change,6,0,6,,,,,,,,,5,7,113,,
816,control_change,6,0,6,,,,,,,,,5,7,114,,
818,control_change,8,0,3,,,,,,,,,2,7,113,,
822,control_change,6,0,6,,,,,,,,,5,7,115,,
826,control_change,8,0,3,,,,,,,,,2,7,114,,
828,control_change,6,0,6,,,,,,,,,5,7,116,,
834,control_change,6,0,6,,,,,,,,,5,7,117,,
834,control_change,8,0,3,,,,,,,,,2,7,115,,
840,note_on,0,0,9,,,,,,,,,8,,,50,93
840,note_on,0,0,7,,,,,,,,,6,,,65,93
840,note_on,6,0,3,,,,,,,,,2,,,51,0
840,control_change,0,0,3,,,,,,,,,2,7,116,,
840,note_on,0,0,3,,,,,,,,,2,,,53,76
840,note_on,840,0,4,,,,,,,,,3,,,58,76
840,note_on,0,0,8,,,,,,,,,7,,,58,80
840,note_on,120,0,7,,,,,,,,,6,,,63,0
840,control_change,6,0,6,,,,,,,,,5,7,118,,
840,note_on,120,0,9,,,,,,,,,8,,,48,0
840,note_on,0,0,10,,,,,,,,,10,,,38,93
840,note_on,120,0,8,,,,,,,,,7,,,60,0
840,note_on,120,0,10,,,,,,,,,10,,,36,0
842,control_change,2,0,6,,,,,,,,,5,7,118,,
848,control_change,8,0,3,,,,,,,,,2,7,115,,
850,control_change,8,0,6,,,,,,,,,5,7,117,,
856,control_change,6,0,6,,,,,,,,,5,7,116,,
856,control_change,8,0,3,,,,,,,,,2,7,114,,
862,control_change,6,0,3,,,,,,,,,2,7,113,,
862,control_change,6,0,6,,,,,,,,,5,7,115,,
868,control_change,6,0,6,,,,,,,,,5,7,114,,
870,control_change,8,0,3,,,,,,,,,2,7,112,,
874,control_change,6,0,6,,,,,,,,,5,7,113,,
878,control_change,8,0,3,,,,,,,,,2,7,111,,
880,control_change,6,0,6,,,,,,,,,5,7,112,,
884,control_change,6,0,3,,,,,,,,,2,7,110,,
888,control_change,8,0,6,,,,,,,,,5,7,111,,
892,control_change,8,0,3,,,,,,,,,2,7,109,,
894,control_change,6,0,6,,,,,,,,,5,7,110,,
900,control_change,8,0,3,,,,,,,,,2,7,108,,
900,control_change,6,0,6,,,,,,,,,5,7,109,,
906,control_change,6,0,3,,,,,,,,,2,7,107,,
906,control_change,6,0,6,,,,,,,,,5,7,108,,
912,control_change,6,0,6,,,,,,,,,5,7,107,,
914,control_change,8,0,3,,,,,,,,,2,7,106,,
918,control_change,6,0,6,,,,,,,,,5,7,106,,
922,control_change,8,0,3,,,,,,,,,2,7,105,,
926,control_change,8,0,6,,,,,,,,,5,7,105,,
928,control_change,6,0,3,,,,,,,,,2,7,104,,
932,control_change,6,0,6,,,,,,,,,5,7,104,,
936,control_change,8,0,3,,,,,,,,,2,7,103,,
938,control_change,6,0,6,,,,,,,,,5,7,103,,
944,control_change,8,0,3,,,,,,,,,2,7,102,,
944,control_change,6,0,6,,,,,,,,,5,7,102,,
950,control_change,6,0,3,,,,,,,,,2,7,101,,
950,control_change,6,0,6,,,,,,,,,5,7,101,,
956,control_change,6,0,6,,,,,,,,,5,7,100,,
958,control_change,8,0,3,,,,,,,,,2,7,100,,
960,note_on,0,0,10,,,,,,,,,10,,,39,53
960,note_on,0,0,9,,,,,,,,,8,,,51,53
960,note_on,120,0,9,,,,,,,,,8,,,50,0
960,note_on,120,0,7,,,,,,,,,6,,,65,0
960,note_on,0,0,7,,,,,,,,,6,,,63,67
960,note_on,0,0,8,,,,,,,,,7,,,58,58
960,note_on,0,0,3,,,,,,,,,2,,,55,46
960,note_on,0,0,3,,,,,,,,,2,,,51,66
960,note_on,0,0,3,,,,,,,,,2,,,56,0
960,note_on,2,0,3,,,,,,,,,2,,,53,0
960,note_on,4,0,6,,,,,,,,,5,,,68,0
960,note_on,0,0,6,,,,,,,,,5,,,67,62
960,note_on,120,0,8,,,,,,,,,7,,,58,0
960,note_on,120,0,4,,,,,,,,,3,,,58,0
960,note_on,0,0,4,,,,,,,,,3,,,58,78
960,note_on,120,0,10,,,,,,,,,10,,,38,0
962,control_change,2,0,6,,,,,,,,,5,7,99,,
964,control_change,4,0,3,,,,,,,,,2,7,99,,
1080,note_on,120,0,8,,,,,,,,,7,,,58,0
1080,note_on,0,0,8,,,,,,,,,7,,,56,81
1080,note_on,0,0,6,,,,,,,,,5,,,67,73
1080,note_on,118,0,6,,,,,,,,,5,,,67,0
1080,note_on,0,0,4,,,,,,,,,3,,,63,70
1080,note_on,0,0,3,,,,,,,,,2,,,51,0
1080,note_on,0,0,3,,,,,,,,,2,,,51,78
1080,note_on,120,0,4,,,,,,,,,3,,,58,0
1080,note_on,0,0,7,,,,,,,,,6,,,60,76
1080,note_on,0,0,7,,,,,,,,,6,,,63,84
1080,note_on,0,0,9,,,,,,,,,8,,,44,85
1080,control_change,0,0,9,,,,,,,,,8,7,99,,
1080,note_on,120,0,9,,,,,,,,,8,,,51,0
1080,control_change,0,0,7,,,,,,,,,6,7,101,,
1080,note_on,120,0,7,,,,,,,,,6,,,63,0
1080,note_on,0,0,3,,,,,,,,,2,,,55,74
1080,note_on,0,0,4,,,,,,,,,3,,,51,68
1080,note_on,116,0,3,,,,,,,,,2,,,55,0
1080,note_on,0,0,10,,,,,,,,,10,,,32,85
1080,control_change,0,0,10,,,,,,,,,10,7,99,,
1080,note_on,120,0,10,,,,,,,,,10,,,39,0
1082,control_change,2,0,8,,,,,,,,,7,7,99,,
1092,control_change,12,0,9,,,,,,,,,8,7,100,,
1092,control_change,12,0,10,,,,,,,,,10,7,100,,
1094,control_change,12,0,8,,,,,,,,,7,7,100,,
1096,control_change,16,0,7,,,,,,,,,6,7,102,,
1104,control_change,12,0,10,,,,,,,,,10,7,101,,
1104,control_change,12,0,9,,,,,,,,,8,7,101,,
1106,control_change,12,0,8,,,,,,,,,7,7,101,,
1110,control_change,14,0,7,,,,,,,,,6,7,103,,
1114,control_change,10,0,10,,,,,,,,,10,7,102,,
1116,control_change,12,0,9,,,,,,,,,8,7,102,,
1118,control_change,12,0,8,,,,,,,,,7,7,102,,
1124,control_change,14,0,7,,,,,,,,,6,7,104,,
1126,control_change,12,0,10,,,,,,,,,10,7,103,,
1126,control_change,10,0,9,,,,,,,,,8,7,103,,
1130,control_change,12,0,8,,,,,,,,,7,7,103,,
1136,control_change,10,0,10,,,,,,,,,10,7,104,,
1138,control_change,14,0,7,,,,,,,,,6,7,105,,
1138,control_change,12,0,9,,,,,,,,,8,7,104,,
1142,control_change,12,0,8,,,,,,,,,7,7,104,,
1148,control_change,12,0,10,,,,,,,,,10,7,105,,
1150,control_change,12,0,9,,,,,,,,,8,7,105,,
1152,control_change,14,0,7,,,,,,,,,6,7,106,,
1154,control_change,12,0,8,,,,,,,,,7,7,105,,
1158,control_change,10,0,10,,,,,,,,,10,7,106,,
1160,control_change,10,0,9,,,,,,,,,8,7,106,,
1166,control_change,12,0,8,,,,,,,,,7,7,106,,
1166,control_change,14,0,7,,,,,,,,,6,7,107,,
1170,control_change,12,0,10,,,,,,,,,10,7,107,,
1172,control_change,12,0,9,,,,,,,,,8,7,107,,
1178,control_change,12,0,8,,,,,,,,,7,7,107,,
1180,control_change,14,0,7,,,,,,,,,6,7,108,,
1180,control_change,10,0,10,,,,,,,,,10,7,108,,
1184,control_change,12,0,9,,,,,,,,,8,7,108,,
1188,control_change,10,0,8,,,,,,,,,7,7,108,,
1192,control_change,12,0,10,,,,,,,,,10,7,109,,
1194,control_change,10,0,9,,,,,,,,,8,7,109,,
1194,control_change,14,0,7,,,,,,,,,6,7,109,,
1200,control_change,12,0,8,,,,,,,,,7,7,109,,
1200,note_on,0,0,4,,,,,,,,,3,,,63,77
1200,note_on,0,0,3,,,,,,,,,2,,,53,74
1200,note_on,0,0,4,,,,,,,,,3,,,63,0
1200,note_on,0,0,6,,,,,,,,,5,,,65,74
1200,note_on,0,0,4,,,,,,,,,3,,,51,80
1200,note_on,120,0,4,,,,,,,,,3,,,51,0
1200,note_on,120,0,3,,,,,,,,,2,,,55,0
1200,note_on,120,0,6,,,,,,,,,5,,,67,0
1202,control_change,10,0,10,,,,,,,,,10,7,110,,
1206,control_change,12,0,9,,,,,,,,,8,7,110,,
1208,control_change,14,0,7,,,,,,,,,6,7,110,,
1212,control_change,12,0,8,,,,,,,,,7,7,110,,
1214,control_change,12,0,10,,,,,,,,,10,7,111,,
1218,control_change,12,0,9,,,,,,,,,8,7,111,,
1222,control_change,14,0,7,,,,,,,,,6,7,111,,
1224,control_change,12,0,8,,,,,,,,,7,7,111,,
1224,control_change,10,0,10,,,,,,,,,10,7,112,,
1228,control_change,10,0,9,,,,,,,,,8,7,112,,
1236,control_change,12,0,8,,,,,,,,,7,7,112,,
1236,control_change,12,0,10,,,,,,,,,10,7,113,,
1236,control_change,14,0,7,,,,,,,,,6,7,112,,
1240,control_change,12,0,9,,,,,,,,,8,7,113,,
1248,control_change,12,0,8,,,,,,,,,7,7,113,,
1248,control_change,12,0,10,,,,,,,,,10,7,114,,
1250,control_change,14,0,7,,,,,,,,,6,7,113,,
1252,control_change,12,0,9,,,,,,,,,8,7,114,,
1258,control_change,10,0,10,,,,,,,,,10,7,115,,
1260,note_on,60,0,3,,,,,,,,,2,,,53,0
1260,note_on,60,0,6,,,,,,,,,5,,,65,0
1260,note_on,0,0,3,,,,,,,,,2,,,51,0
1260,control_change,12,0,8,,,,,,,,,7,7,114,,
1264,control_change,12,0,9,,,,,,,,,8,7,115,,
1264,control_change,14,0,7,,,,,,,,,6,7,114,,
1270,control_change,12,0,10,,,,,,,,,10,7,116,,
1272,control_change,12,0,8,,,,,,,,,7,7,115,,
1274,control_change,10,0,9,,,,,,,,,8,7,116,,
1278,control_change,14,0,7,,,,,,,,,6,7,115,,
1280,control_change,10,0,10,,,,,,,,,10,7,117,,
1282,control_change,10,0,8,,,,,,,,,7,7,116,,
1286,control_change,12,0,9,,,,,,,,,8,7,117,,
1290,note_on,90,0,4,,,,,,,,,3,,,51,0
1290,note_on,0,0,4,,,,,,,,,3,,,63,0
1292,control_change,12,0,10,,,,,,,,,10,7,118,,
1292,control_change,14,0,7,,,,,,,,,6,7,116,,
1294,control_change,12,0,8,,,,,,,,,7,7,117,,
1298,control_change,12,0,9,,,,,,,,,8,7,118,,
1302,control_change,10,0,10,,,,,,,,,10,7,119,,
1305,note_on,15,0,4,,,,,,,,,3,,,63,84
1305,note_on,0,0,4,,,,,,,,,3,,,51,90
1306,control_change,14,0,7,,,,,,,,,6,7,117,,
1306,control_change,12,0,8,,,,,,,,,7,7,118,,
1308,control_change,10,0,9,,,,,,,,,8,7,119,,
1314,control_change,12,0,10,,,,,,,,,10,7,120,,
1318,control_change,12,0,8,,,,,,,,,7,7,119,,
1320,note_on,15,0,4,,,,,,,,,3,,,51,0
1320,note_on,0,0,7,,,,,,,,,6,,,60,76
1320,note_on,0,0,8,,,,,,,,,7,,,56,78
1320,note_on,2,0,8,,,,,,,,,7,,,56,0
1320,note_on,0,0,4,,,,,,,,,3,,,63,85
1320,control_change,0,0,7,,,,,,,,,6,7,118,,
1320,note_on,0,0,4,,,,,,,,,3,,,51,94
1320,note_on,0,0,4,,,,,,,,,3,,,63,0
1320,note_on,0,0,7,,,,,,,,,6,,,63,0
1320,note_on,0,0,10,,,,,,,,,10,,,32,82
1320,note_on,0,0,7,,,,,,,,,6,,,63,80
1320,note_on,14,0,7,,,,,,,,,6,,,60,0
1320,note_on,6,0,10,,,,,,,,,10,,,32,0
1320,note_on,12,0,9,,,,,,,,,8,,,44,0
1320,note_on,0,0,9,,,,,,,,,8,,,44,82
1320,control_change,0,0,9,,,,,,,,,8,7,120,,
1324,control_change,4,0,10,,,,,,,,,10,7,121,,
1330,control_change,10,0,8,,,,,,,,,7,7,120,,
1332,control_change,12,0,9,,,,,,,,,8,7,121,,
1334,control_change,14,0,7,,,,,,,,,6,7,119,,
1336,control_change,12,0,10,,,,,,,,,10,7,122,,
1342,control_change,12,0,8,,,,,,,,,7,7,121,,
1342,control_change,10,0,9,,,,,,,,,8,7,122,,
1346,control_change,10,0,10,,,,,,,,,10,7,123,,
1348,control_change,14,0,7,,,,,,,,,6,7,120,,
1350,note_on,90,0,6,,,,,,,,,5,,,71,95
1354,control_change,12,0,8,,,,,,,,,7,7,122,,
1354,control_change,12,0,9,,,,,,,,,8,7,123,,
1358,control_change,12,0,10,,,,,,,,,10,7,124,,
1362,control_change,14,0,7,,,,,,,,,6,7,121,,
1366,control_change,12,0,8,,,,,,,,,7,7,123,,
1366,control_change,12,0,9,,,,,,,,,8,7,124,,
1368,control_change,10,0,10,,,,,,,,,10,7,125,,
1376,control_change,10,0,9,,,,,,,,,8,7,125,,
1376,control_change,14,0,7,,,,,,,,,6,7,122,,
1376,control_change,10,0,8,,,,,,,,,7,7,124,,
1380,note_on,30,0,6,,,,,,,,,5,,,71,0
1380,note_on,0,0,6,,,,,,,,,5,,,72,89
1390,control_change,14,0,7,,,,,,,,,6,7,123,,
1404,control_change,14,0,7,,,,,,,,,6,7,124,,
1410,note_on,30,0,6,,,,,,,,,5,,,72,0
1410,note_on,0,0,6,,,,,,,,,5,,,68,99
1438,control_change,34,0,7,,,,,,,,,6,7,99,,
1440,note_on,0,0,10,,,,,,,,,10,,,32,99
1440,control_change,0,0,9,,,,,,,,,8,7,99,,
1440,note_on,64,0,9,,,,,,,,,8,,,44,0
1440,note_on,0,0,7,,,,,,,,,6,,,60,89
1440,note_on,0,0,7,,,,,,,,,6,,,63,90
1440,note_on,30,0,6,,,,,,,,,5,,,68,0
1440,note_on,0,0,6,,,,,,,,,5,,,67,98
1440,note_on,0,0,4,,,,,,,,,3,,,51,105
1440,control_change,0,0,10,,,,,,,,,10,7,99,,
1440,note_on,0,0,4,,,,,,,,,3,,,63,112
1440,note_on,120,0,4,,,,,,,,,3,,,63,0
1440,note_on,0,0,9,,,,,,,,,8,,,44,99
1440,note_on,64,0,8,,,,,,,,,7,,,56,0
1440,control_change,0,0,8,,,,,,,,,7,7,99,,
1440,note_on,0,0,8,,,,,,,,,7,,,56,95
1440,note_on,2,0,7,,,,,,,,,6,,,63,0
1440,note_on,72,0,10,,,,,,,,,10,,,32,0
1440,note_on,0,0,4,,,,,,,,,3,,,51,0
1440,note_on,0,0,7,,,,,,,,,6,,,60,0
1560,note_on,120,0,10,,,,,,,,,10,,,32,0
1560,note_on,0,0,9,,,,,,,,,8,,,45,93
1560,note_on,0,0,4,,,,,,,,,3,,,51,89
1560,note_on,0,0,4,,,,,,,,,3,,,63,81
1560,note_on,0,0,4,,,,,,,,,3,,,63,0
1560,note_on,120,0,4,,,,,,,,,3,,,51,0
1560,note_on,0,0,8,,,,,,,,,7,,,57,90
1560,note_on,120,0,8,,,,,,,,,7,,,56,0
1560,note_on,0,0,10,,,,,,,,,10,,,33,93
1560,note_on,120,0,9,,,,,,,,,8,,,44,0
1560,note_on,0,0,6,,,,,,,,,5,,,66,80
1560,note_on,120,0,6,,,,,,,,,5,,,67,0
1620,note_on,60,0,6,,,,,,,,,5,,,66,0
1650,note_on,90,0,4,,,,,,,,,3,,,51,0
1650,note_on,0,0,4,,,,,,,,,3,,,63,0
1665,note_on,0,0,4,,,,,,,,,3,,,51,85
1665,note_on,15,0,4,,,,,,,,,3,,,63,76
1680,note_on,0,0,7,,,,,,,,,6,,,63,74
1680,note_on,0,0,4,,,,,,,,,3,,,51,82
1680,note_on,0,0,4,,,,,,,,,3,,,63,80
1680,note_on,0,0,4,,,,,,,,,3,,,63,0
1680,note_on,15,0,4,,,,,,,,,3,,,51,0
1680,note_on,0,0,7,,,,,,,,,6,,,60,77
1680,note_on,0,0,7,,,,,,,,,6,,,63,0
1680,note_on,240,0,7,,,,,,,,,6,,,60,0
1710,note_on,90,0,6,,,,,,,,,5,,,74,90
1740,note_on,0,0,6,,,,,,,,,5,,,75,89
1740,note_on,30,0,6,,,,,,,,,5,,,74,0
1770,note_on,0,0,6,,,,,,,,,5,,,72,67
1770,note_on,30,0,6,,,,,,,,,5,,,75,0
1800,note_on,0,0,9,,,,,,,,,8,,,48,104
1800,note_on,0,0,6,,,,,,,,,5,,,70,99
1800,note_on,0,0,4,,,,,,,,,3,,,51,99
1800,note_on,0,0,8,,,,,,,,,7,,,60,99
1800,note_on,240,0,8,,,,,,,,,7,,,57,0
1800,note_on,240,0,9,,,,,,,,,8,,,45,0
1800,note_on,30,0,6,,,,,,,,,5,,,72,0
1800,note_on,120,0,7,,,,,,,,,6,,,63,0
1800,note_on,0,0,10,,,,,,,,,10,,,36,104
1800,note_on,240,0,10,,,,,,,,,10,,,33,0
1800,note_on,0,0,7,,,,,,,,,6,,,60,0
1800,note_on,0,0,7,,,,,,,,,6,,,63,95
1800,note_on,0,0,4,,,,,,,,,3,,,63,89
1800,note_on,0,0,4,,,,,,,,,3,,,51,0
1800,note_on,120,0,4,,,,,,,,,3,,,63,0
1890,note_on,90,0,6,,,,,,,,,5,,,70,0
1890,note_on,0,0,6,,,,,,,,,5,,,69,99
1905,note_on,15,0,6,,,,,,,,,5,,,69,0
1905,note_on,0,0,6,,,,,,,,,5,,,72,94
1920,note_on,0,0,6,,,,,,,,,5,,,75,99
1920,note_on,15,0,6,,,,,,,,,5,,,72,0
1950,note_on,30,0,6,,,,,,,,,5,,,75,0
1980,note_on,180,0,8,,,,,,,,,7,,,60,0
1980,note_on,180,0,10,,,,,,,,,10,,,36,0
1980,note_on,0,0,4,,,,,,,,,3,,,63,0
1980,note_on,180,0,4,,,,,,,,,3,,,51,0
1980,note_on,180,0,7,,,,,,,,,6,,,63,0
1980,note_on,180,0,9,,,,,,,,,8,,,48,0
2025,note_on,0,0,3,,,,,,,,,2,,,57,105
2025,note_on,45,0,7,,,,,,,,,6,,,63,99
2025,note_on,45,0,4,,,,,,,,,3,,,63,81
2025,note_on,45,0,9,,,,,,,,,8,,,60,99
2025,note_on,0,0,4,,,,,,,,,3,,,51,99
2025,note_on,2025,0,1,,,,,,,,,0,,,81,95
2025,note_on,765,0,3,,,,,,,,,2,,,63,82
2025,note_on,45,0,10,,,,,,,,,10,,,48,99
2025,note_on,45,0,8,,,,,,,,,7,,,60,95
2025,note_on,75,0,6,,,,,,,,,5,,,69,95
2025,note_on,0,0,2,,,,,,,,,1,,,69,99
2025,note_on,2025,0,2,,,,,,,,,1,,,75,72
2040,note_on,0,0,9,,,,,,,,,8,,,60,99
2040,note_on,0,0,7,,,,,,,,,6,,,63,99
2040,note_on,15,0,7,,,,,,,,,6,,,63,0
2040,note_on,15,0,2,,,,,,,,,1,,,69,0
2040,note_on,0,0,2,,,,,,,,,1,,,75,0
2040,note_on,0,0,8,,,,,,,,,7,,,60,98
2040,note_on,15,0,10,,,,,,,,,10,,,48,0
2040,note_on,15,0,1,,,,,,,,,0,,,81,0
2040,note_on,0,0,1,,,,,,,,,0,,,81,95
2040,note_on,0,0,10,,,,,,,,,10,,,48,99
2040,note_on,15,0,6,,,,,,,,,5,,,69,0
2040,note_on,0,0,2,,,,,,,,,1,,,75,77
2040,note_on,0,0,2,,,,,,,,,1,,,69,99
2040,note_on,15,0,8,,,,,,,,,7,,,60,0
2040,note_on,15,0,9,,,,,,,,,8,,,60,0
2040,note_on,0,0,3,,,,,,,,,2,,,57,107
2040,note_on,0,0,6,,,,,,,,,5,,,69,101
2040,note_on,0,0,3,,,,,,,,,2,,,63,78
2040,note_on,0,0,4,,,,,,,,,3,,,51,98
2040,note_on,0,0,3,,,,,,,,,2,,,63,0
2040,note_on,15,0,3,,,,,,,,,2,,,57,0
2040,note_on,0,0,4,,,,,,,,,3,,,63,81
2040,note_on,15,0,4,,,,,,,,,3,,,51,0
2040,note_on,0,0,4,,,,,,,,,3,,,63,0
2130,note_on,90,0,3,,,,,,,,,2,,,57,0
2130,note_on,90,0,1,,,,,,,,,0,,,81,0
2130,note_on,90,0,10,,,,,,,,,10,,,48,0
2130,note_on,90,0,9,,,,,,,,,8,,,60,0
2130,note_on,0,0,4,,,,,,,,,3,,,63,0
2130,note_on,90,0,2,,,,,,,,,1,,,69,0
2130,note_on,90,0,6,,,,,,,,,5,,,69,0
2130,note_on,0,0,2,,,,,,,,,1,,,75,0
2130,note_on,90,0,7,,,,,,,,,6,,,63,0
2130,note_on,90,0,8,,,,,,,,,7,,,60,0
2130,note_on,0,0,3,,,,,,,,,2,,,63,0
2130,note_on,90,0,4,,,,,,,,,3,,,51,0
2145,note_on,15,0,9,,,,,,,,,8,,,60,101
2145,note_on,15,0,10,,,,,,,,,10,,,48,101
2145,note_on,15,0,2,,,,,,,,,1,,,75,86
2145,note_on,15,0,4,,,,,,,,,3,,,51,99
2145,note_on,0,0,4,,,,,,,,,3,,,63,82
2145,note_on,15,0,6,,,,,,,,,5,,,69,99
2145,note_on,0,0,3,,,,,,,,,2,,,57,104
2145,note_on,15,0,1,,,,,,,,,0,,,81,93
2145,note_on,15,0,3,,,,,,,,,2,,,63,76
2145,note_on,15,0,7,,,,,,,,,6,,,63,95
2145,note_on,15,0,8,,,,,,,,,7,,,60,99
2145,note_on,0,0,2,,,,,,,,,1,,,69,99
2160,note_on,15,0,2,,,,,,,,,1,,,69,0
2160,note_on,0,0,2,,,,,,,,,1,,,75,0
2160,note_on,0,0,2,,,,,,,,,1,,,74,68
2160,note_on,0,0,2,,,,,,,,,1,,,70,73
2160,note_on,15,0,4,,,,,,,,,3,,,63,0
2160,note_on,0,0,4,,,,,,,,,3,,,51,0
2160,note_on,0,0,4,,,,,,,,,3,,,46,95
2160,note_on,0,0,4,,,,,,,,,3,,,58,84
2160,note_on,15,0,7,,,,,,,,,6,,,63,0
2160,note_on,0,0,6,,,,,,,,,5,,,70,99
2160,note_on,15,0,3,,,,,,,,,2,,,57,0
2160,note_on,0,0,3,,,,,,,,,2,,,58,74
2160,note_on,15,0,9,,,,,,,,,8,,,60,0
2160,note_on,0,0,9,,,,,,,,,8,,,58,94
2160,note_on,15,0,6,,,,,,,,,5,,,69,0
2160,note_on,15,0,1,,,,,,,,,0,,,81,0
2160,note_on,0,0,1,,,,,,,,,0,,,82,94
2160,note_on,15,0,10,,,,,,,,,10,,,48,0
2160,note_on,15,0,8,,,,,,,,,7,,,60,0
2160,note_on,0,0,8,,,,,,,,,7,,,58,95
2160,note_on,0,0,7,,,,,,,,,6,,,62,101
2160,note_on,0,0,3,,,,,,,,,2,,,63,0
2160,note_on,0,0,3,,,,,,,,,2,,,62,66
2160,note_on,0,0,10,,,,,,,,,10,,,46,94
2220,note_on,0,0,8,,,,,,,,,7,,,58,76
2220,note_on,60,0,8,,,,,,,,,7,,,58,0
2220,note_on,60,0,7,,,,,,,,,6,,,62,0
2220,note_on,0,0,7,,,,,,,,,6,,,58,84
2280,note_on,0,0,3,,,,,,,,,2,,,50,64
2280,note_on,120,0,9,,,,,,,,,8,,,58,0
2280,note_on,120,0,3,,,,,,,,,2,,,58,0
2280,note_on,0,0,3,,,,,,,,,2,,,62,0
2280,control_change,120,0,4,,,,,,,,,3,7,99,,
2280,note_on,0,0,9,,,,,,,,,8,,,50,71
2280,note_on,0,0,3,,,,,,,,,2,,,58,69
2280,note_on,0,0,10,,,,,,,,,10,,,38,71
2280,note_on,0,0,7,,,,,,,,,6,,,68,69
2280,note_on,120,0,6,,,,,,,,,5,,,70,0
2280,note_on,0,0,6,,,,,,,,,5,,,80,71
2280,note_on,120,0,2,,,,,,,,,1,,,70,0
2280,note_on,0,0,2,,,,,,,,,1,,,74,0
2280,note_on,0,0,2,,,,,,,,,1,,,70,61
2280,note_on,60,0,7,,,,,,,,,6,,,58,0
2280,note_on,60,0,8,,,,,,,,,7,,,58,0
2280,note_on,0,0,8,,,,,,,,,7,,,65,71
2280,note_on,120,0,10,,,,,,,,,10,,,46,0
2280,control_change,120,0,1,,,,,,,,,0,7,98,,
2282,control_change,2,0,1,,,,,,,,,0,7,94,,
2282,control_change,2,0,4,,,,,,,,,3,7,95,,
2284,control_change,2,0,1,,,,,,,,,0,7,90,,
2284,control_change,2,0,4,,,,,,,,,3,7,91,,
2286,control_change,2,0,4,,,,,,,,,3,7,86,,
2286,control_change,2,0,1,,,,,,,,,0,7,86,,
2288,control_change,2,0,4,,,,,,,,,3,7,82,,
2288,control_change,2,0,1,,,,,,,,,0,7,81,,
2290,control_change,2,0,4,,,,,,,,,3,7,78,,
2290,control_change,2,0,1,,,,,,,,,0,7,77,,
2292,control_change,2,0,4,,,,,,,,,3,7,73,,
2292,control_change,2,0,1,,,,,,,,,0,7,73,,
2294,control_change,2,0,4,,,,,,,,,3,7,69,,
2294,control_change,2,0,1,,,,,,,,,0,7,69,,
2296,control_change,2,0,1,,,,,,,,,0,7,64,,
2296,control_change,2,0,4,,,,,,,,,3,7,64,,
2340,note_on,60,0,7,,,,,,,,,6,,,68,0
2340,note_on,0,0,7,,,,,,,,,6,,,58,62
2340,note_on,60,0,8,,,,,,,,,7,,,65,0
2340,note_on,0,0,8,,,,,,,,,7,,,58,66
2400,note_on,120,0,6,,,,,,,,,5,,,80,0
2400,note_on,0,0,7,,,,,,,,,6,,,67,62
2400,note_on,120,0,9,,,,,,,,,8,,,50,0
2400,note_on,0,0,6,,,,,,,,,5,,,80,61
2400,note_on,60,0,7,,,,,,,,,6,,,58,0
2400,note_on,0,0,9,,,,,,,,,8,,,51,59
2400,note_on,0,0,8,,,,,,,,,7,,,63,76
2400,note_on,0,0,3,,,,,,,,,2,,,51,64
2400,note_on,120,0,3,,,,,,,,,2,,,50,0
2400,note_on,120,0,10,,,,,,,,,10,,,38,0
2400,note_on,0,0,10,,,,,,,,,10,,,39,59
2400,note_on,60,0,8,,,,,,,,,7,,,58,0
2430,note_on,0,0,6,,,,,,,,,5,,,79,73
2430,note_on,30,0,6,,,,,,,,,5,,,80,0
2460,note_on,60,0,8,,,,,,,,,7,,,63,0
2460,note_on,0,0,8,,,,,,,,,7,,,58,76
2460,note_on,0,0,7,,,,,,,,,6,,,58,71
2460,note_on,60,0,7,,,,,,,,,6,,,67,0
2460,note_on,0,0,6,,,,,,,,,5,,,77,71
2460,note_on,30,0,6,,,,,,,,,5,,,79,0
2490,note_on,0,0,6,,,,,,,,,5,,,75,76
2490,note_on,30,0,6,,,,,,,,,5,,,77,0
2520,control_change,224,0,1,,,,,,,,,0,7,64,,
2520,note_on,0,0,6,,,,,,,,,5,,,75,80
2520,note_on,120,0,9,,,,,,,,,8,,,51,0
2520,note_on,60,0,7,,,,,,,,,6,,,58,0
2520,note_on,0,0,9,,,,,,,,,8,,,46,69
2520,note_on,0,0,7,,,,,,,,,6,,,65,72
2520,note_on,0,0,10,,,,,,,,,10,,,34,69
2520,note_on,0,0,3,,,,,,,,,2,,,46,73
2520,note_on,120,0,3,,,,,,,,,2,,,51,0
2520,note_on,60,0,8,,,,,,,,,7,,,58,0
2520,note_on,0,0,8,,,,,,,,,7,,,62,58
2520,note_on,120,0,10,,,,,,,,,10,,,39,0
2520,note_on,30,0,6,,,,,,,,,5,,,75,0
2532,control_change,12,0,1,,,,,,,,,0,7,65,,
2542,control_change,10,0,1,,,,,,,,,0,7,66,,
2550,note_on,30,0,6,,,,,,,,,5,,,75,0
2550,note_on,0,0,6,,,,,,,,,5,,,74,82
2552,control_change,10,0,1,,,,,,,,,0,7,67,,
2562,control_change,10,0,1,,,,,,,,,0,7,68,,
2572,control_change,10,0,1,,,,,,,,,0,7,69,,
2580,note_on,0,0,7,,,,,,,,,6,,,58,90
2580,note_on,60,0,8,,,,,,,,,7,,,62,0
2580,note_on,60,0,7,,,,,,,,,6,,,65,0
2580,note_on,0,0,6,,,,,,,,,5,,,72,84
2580,note_on,0,0,8,,,,,,,,,7,,,58,84
2580,note_on,30,0,6,,,,,,,,,5,,,74,0
2582,control_change,10,0,1,,,,,,,,,0,7,70,,
2592,control_change,10,0,1,,,,,,,,,0,7,71,,
2604,control_change,12,0,1,,,,,,,,,0,7,72,,
2610,note_on,30,0,6,,,,,,,,,5,,,72,0
2610,note_on,0,0,6,,,,,,,,,5,,,70,94
2614,control_change,10,0,1,,,,,,,,,0,7,73,,
2624,control_change,10,0,1,,,,,,,,,0,7,74,,
2634,control_change,10,0,1,,,,,,,,,0,7,75,,
2640,note_on,0,0,4,,,,,,,,,3,,,46,0
2640,note_on,120,0,3,,,,,,,,,2,,,46,0
2640,note_on,0,0,2,,,,,,,,,1,,,77,65
2640,note_on,120,0,9,,,,,,,,,8,,,46,0
2640,note_on,60,0,7,,,,,,,,,6,,,58,0
2640,note_on,0,0,7,,,,,,,,,6,,,68,86
2640,note_on,360,0,2,,,,,,,,,1,,,70,0
2640,note_on,0,0,10,,,,,,,,,10,,,38,95
2640,note_on,120,0,10,,,,,,,,,10,,,34,0
2640,note_on,344,0,4,,,,,,,,,3,,,58,0
2640,note_on,0,0,8,,,,,,,,,7,,,65,85
2640,note_on,60,0,8,,,,,,,,,7,,,58,0
2640,note_on,0,0,6,,,,,,,,,5,,,70,95
2640,note_on,30,0,6,,,,,,,,,5,,,70,0
2640,note_on,0,0,3,,,,,,,,,2,,,58,0
2640,note_on,0,0,3,,,,,,,,,2,,,56,73
2640,note_on,0,0,9,,,,,,,,,8,,,50,95
2640,note_on,0,0,2,,,,,,,,,1,,,80,68
2640,note_on,0,0,1,,,,,,,,,0,,,82,73
2640,note_on,6,0,1,,,,,,,,,0,,,82,0
2640,note_on,0,0,4,,,,,,,,,3,,,46,84
2640,note_on,0,0,4,,,,,,,,,3,,,58,74
2640,control_change,0,0,4,,,,,,,,,3,7,74,,
2640,note_on,0,0,3,,,,,,,,,2,,,53,78
2644,control_change,4,0,1,,,,,,,,,0,7,76,,
2650,control_change,10,0,4,,,,,,,,,3,7,75,,
2654,control_change,10,0,1,,,,,,,,,0,7,77,,
2660,control_change,10,0,4,,,,,,,,,3,7,76,,
2664,control_change,10,0,1,,,,,,,,,0,7,78,,
2670,control_change,10,0,4,,,,,,,,,3,7,77,,
2676,control_change,12,0,1,,,,,,,,,0,7,79,,
2680,control_change,10,0,4,,,,,,,,,3,7,78,,
2686,control_change,10,0,1,,,,,,,,,0,7,80,,
2688,control_change,8,0,4,,,,,,,,,3,7,79,,
2696,control_change,10,0,1,,,,,,,,,0,7,81,,
2698,control_change,10,0,4,,,,,,,,,3,7,80,,
2700,note_on,0,0,1,,,,,,,,,0,,,82,84
2700,note_on,0,0,6,,,,,,,,,5,,,70,90
2700,note_on,60,0,6,,,,,,,,,5,,,70,0
2700,note_on,4,0,1,,,,,,,,,0,,,82,0
2706,control_change,6,0,1,,,,,,,,,0,7,82,,
2708,control_change,10,0,4,,,,,,,,,3,7,81,,
2716,control_change,10,0,1,,,,,,,,,0,7,83,,
2718,control_change,10,0,4,,,,,,,,,3,7,82,,
2726,control_change,10,0,1,,,,,,,,,0,7,84,,
2728,control_change,10,0,4,,,,,,,,,3,7,83,,
2736,control_change,10,0,1,,,,,,,,,0,7,85,,
2736,control_change,8,0,4,,,,,,,,,3,7,84,,
2746,control_change,10,0,4,,,,,,,,,3,7,85,,
2748,control_change,12,0,1,,,,,,,,,0,7,86,,
2756,control_change,10,0,4,,,,,,,,,3,7,86,,
2758,control_change,10,0,1,,,,,,,,,0,7,87,,
2760,note_on,120,0,3,,,,,,,,,2,,,53,0
2760,note_on,0,0,3,,,,,,,,,2,,,56,0
2760,note_on,0,0,3,,,,,,,,,2,,,55,82
2760,note_on,0,0,3,,,,,,,,,2,,,51,80
2760,note_on,0,0,10,,,,,,,,,10,,,39,95
2760,note_on,120,0,10,,,,,,,,,10,,,38,0
2760,note_on,120,0,8,,,,,,,,,7,,,65,0
2760,note_on,0,0,9,,,,,,,,,8,,,51,95
2760,note_on,0,0,8,,,,,,,,,7,,,65,71
2760,note_on,0,0,2,,,,,,,,,1,,,77,55
2760,note_on,0,0,2,,,,,,,,,1,,,80,68
2760,note_on,120,0,7,,,,,,,,,6,,,68,0
2760,note_on,0,0,7,,,,,,,,,6,,,68,80
2760,note_on,0,0,2,,,,,,,,,1,,,80,0
2760,note_on,120,0,2,,,,,,,,,1,,,77,0
2760,note_on,120,0,9,,,,,,,,,8,,,50,0
2766,control_change,10,0,4,,,,,,,,,3,7,87,,
2768,control_change,10,0,1,,,,,,,,,0,7,88,,
2776,control_change,10,0,4,,,,,,,,,3,7,88,,
2778,control_change,10,0,1,,,,,,,,,0,7,89,,
2784,control_change,8,0,4,,,,,,,,,3,7,89,,
2788,control_change,10,0,1,,,,,,,,,0,7,90,,
2790,note_on,0,0,2,,,,,,,,,1,,,79,65
2790,note_on,0,0,8,,,,,,,,,7,,,63,94
2790,note_on,30,0,8,,,,,,,,,7,,,65,0
2790,note_on,0,0,7,,,,,,,,,6,,,67,89
2790,note_on,30,0,7,,,,,,,,,6,,,68,0
2790,note_on,30,0,2,,,,,,,,,1,,,77,0
2790,note_on,0,0,2,,,,,,,,,1,,,80,0
2790,note_on,0,0,2,,,,,,,,,1,,,75,81
2794,control_change,10,0,4,,,,,,,,,3,7,90,,
2798,control_change,10,0,1,,,,,,,,,0,7,91,,
2804,control_change,10,0,4,,,,,,,,,3,7,91,,
2808,control_change,10,0,1,,,,,,,,,0,7,92,,
2814,control_change,10,0,4,,,,,,,,,3,7,92,,
2820,note_on,0,0,8,,,,,,,,,7,,,62,90
2820,note_on,30,0,8,,,,,,,,,7,,,63,0
2820,note_on,0,0,2,,,,,,,,,1,,,74,74
2820,control_change,0,0,1,,,,,,,,,0,7,93,,
2820,note_on,0,0,2,,,,,,,,,1,,,79,0
2820,note_on,0,0,7,,,,,,,,,6,,,66,98
2820,note_on,120,0,6,,,,,,,,,5,,,70,0
2820,note_on,30,0,7,,,,,,,,,6,,,67,0
2820,note_on,12,0,1,,,,,,,,,0,,,82,0
2820,note_on,0,0,1,,,,,,,,,0,,,82,76
2820,note_on,0,0,2,,,,,,,,,1,,,78,64
2820,note_on,0,0,6,,,,,,,,,5,,,70,95
2820,note_on,30,0,2,,,,,,,,,1,,,75,0
2824,control_change,10,0,4,,,,,,,,,3,7,93,,
2830,control_change,10,0,1,,,,,,,,,0,7,94,,
2832,control_change,8,0,4,,,,,,,,,3,7,94,,
2840,control_change,10,0,1,,,,,,,,,0,7,95,,
2842,control_change,10,0,4,,,,,,,,,3,7,95,,
2850,note_on,0,0,8,,,,,,,,,7,,,63,89
2850,note_on,0,0,7,,,,,,,,,6,,,67,99
2850,note_on,30,0,7,,,,,,,,,6,,,66,0
2850,control_change,10,0,1,,,,,,,,,0,7,96,,
2850,note_on,30,0,8,,,,,,,,,7,,,62,0
2850,note_on,30,0,2,,,,,,,,,1,,,74,0
2850,note_on,0,0,2,,,,,,,,,1,,,78,0
2850,note_on,0,0,2,,,,,,,,,1,,,79,55
2850,note_on,0,0,2,,,,,,,,,1,,,75,73
2852,control_change,10,0,4,,,,,,,,,3,7,96,,
2860,control_change,10,0,1,,,,,,,,,0,7,97,,
2862,control_change,10,0,4,,,,,,,,,3,7,97,,
2870,control_change,10,0,1,,,,,,,,,0,7,98,,
2872,control_change,10,0,4,,,,,,,,,3,7,98,,
2880,note_on,0,0,2,,,,,,,,,1,,,79,0
2880,note_on,60,0,6,,,,,,,,,5,,,70,0
2880,note_on,120,0,3,,,,,,,,,2,,,51,0
2880,note_on,0,0,6,,,,,,,,,5,,,70,77
2880,note_on,0,0,2,,,,,,,,,1,,,77,44
2880,note_on,0,0,7,,,,,,,,,6,,,65,53
2880,note_on,0,0,3,,,,,,,,,2,,,50,45
2880,note_on,0,0,3,,,,,,,,,2,,,53,45
2880,note_on,0,0,3,,,,,,,,,2,,,55,0
2880,note_on,30,0,2,,,,,,,,,1,,,75,0
2880,note_on,0,0,2,,,,,,,,,1,,,74,60
2880,control_change,10,0,1,,,,,,,,,0,7,83,,
2880,note_on,30,0,8,,,,,,,,,7,,,63,0
2880,note_on,0,0,8,,,,,,,,,7,,,62,57
2880,note_on,0,0,10,,,,,,,,,10,,,34,44
2880,control_change,8,0,4,,,,,,,,,3,7,99,,
2880,note_on,120,0,10,,,,,,,,,10,,,39,0
2880,note_on,0,0,9,,,,,,,,,8,,,46,44
2880,note_on,120,0,9,,,,,,,,,8,,,51,0
2880,note_on,30,0,7,,,,,,,,,6,,,67,0
2895,note_on,0,0,6,,,,,,,,,5,,,58,72
2895,note_on,15,0,6,,,,,,,,,5,,,70,0
2910,note_on,0,0,6,,,,,,,,,5,,,60,76
2910,note_on,15,0,6,,,,,,,,,5,,,58,0
2925,note_on,0,0,6,,,,,,,,,5,,,62,64
2925,note_on,15,0,6,,,,,,,,,5,,,60,0
2940,note_on,15,0,6,,,,,,,,,5,,,62,0
2940,note_on,0,0,6,,,,,,,,,5,,,63,72
2955,note_on,15,0,6,,,,,,,,,5,,,63,0
2955,note_on,0,0,6,,,,,,,,,5,,,65,77
2970,note_on,0,0,6,,,,,,,,,5,,,67,67
2970,note_on,15,0,6,,,,,,,,,5,,,65,0
2985,note_on,15,0,6,,,,,,,,,5,,,67,0
2985,note_on,0,0,6,,,,,,,,,5,,,69,81
3000,note_on,0,0,4,,,,,,,,,3,,,46,0
3000,note_on,120,0,4,,,,,,,,,3,,,58,0
3000,note_on,15,0,6,,,,,,,,,5,,,69,0
3000,note_on,0,0,6,,,,,,,,,5,,,70,86
3000,note_on,120,0,1,,,,,,,,,0,,,82,0
3000,note_on,120,0,3,,,,,,,,,2,,,50,0
3000,note_on,120,0,7,,,,,,,,,6,,,65,0
3000,note_on,120,0,8,,,,,,,,,7,,,62,0
3000,note_on,120,0,9,,,,,,,,,8,,,46,0
3000,note_on,0,0,3,,,,,,,,,2,,,53,0
3000,note_on,120,0,10,,,,,,,,,10,,,34,0
3000,note_on,0,0,2,,,,,,,,,1,,,77,0
3000,note_on,120,0,2,,,,,,,,,1,,,74,0
3015,note_on,0,0,6,,,,,,,,,5,,,72,62
3015,note_on,15,0,6,,,,,,,,,5,,,70,0
3030,note_on,0,0,6,,,,,,,,,5,,,74,86
3030,note_on,15,0,6,,,,,,,,,5,,,72,0
3045,note_on,0,0,6,,,,,,,,,5,,,75,94
3045,note_on,15,0,6,,,,,,,,,5,,,74,0
3060,note_on,0,0,6,,,,,,,,,5,,,77,85
3060,note_on,15,0,6,,,,,,,,,5,,,75,0
3066,control_change,66,0,1,,,,,,,,,0,7,99,,
3075,note_on,0,0,6,,,,,,,,,5,,,79,86
3075,note_on,15,0,6,,,,,,,,,5,,,77,0
3090,note_on,0,0,6,,,,,,,,,5,,,80,95
3090,note_on,15,0,6,,,,,,,,,5,,,79,0
3105,note_on,0,0,6,,,,,,,,,5,,,81,95
3105,note_on,15,0,6,,,,,,,,,5,,,80,0
3120,note_on,0,0,6,,,,,,,,,5,,,82,89
3120,note_on,15,0,6,,,,,,,,,5,,,81,0
3135,note_on,15,0,6,,,,,,,,,5,,,82,0
3150,note_on,150,0,4,,,,,,,,,3,,,65,84
3150,note_on,150,0,10,,,,,,,,,10,,,44,94
3150,note_on,150,0,9,,,,,,,,,8,,,56,94
3150,note_on,150,0,8,,,,,,,,,7,,,68,86
3150,note_on,0,0,4,,,,,,,,,3,,,58,85
3150,note_on,0,0,3,,,,,,,,,2,,,53,76
3150,note_on,0,0,7,,,,,,,,,6,,,65,94
3150,note_on,15,0,6,,,,,,,,,5,,,74,99
3150,note_on,84,0,1,,,,,,,,,0,,,86,94
3150,note_on,150,0,7,,,,,,,,,6,,,74,77
3150,note_on,0,0,2,,,,,,,,,1,,,74,77
3150,note_on,150,0,2,,,,,,,,,1,,,77,58
3150,note_on,150,0,3,,,,,,,,,2,,,62,72
3165,note_on,0,0,4,,,,,,,,,3,,,65,0
3165,note_on,15,0,3,,,,,,,,,2,,,53,0
3165,note_on,0,0,3,,,,,,,,,2,,,62,0
3165,note_on,15,0,6,,,,,,,,,5,,,74,0
3165,note_on,0,0,7,,,,,,,,,6,,,74,0
3165,note_on,15,0,4,,,,,,,,,3,,,58,0
3165,note_on,15,0,1,,,,,,,,,0,,,86,0
3165,note_on,15,0,10,,,,,,,,,10,,,44,0
3165,note_on,15,0,8,,,,,,,,,7,,,68,0
3165,note_on,15,0,9,,,,,,,,,8,,,56,0
3165,note_on,15,0,2,,,,,,,,,1,,,74,0
3165,note_on,0,0,2,,,,,,,,,1,,,77,0
3165,note_on,15,0,7,,,,,,,,,6,,,65,0
3180,note_on,15,0,7,,,,,,,,,6,,,75,80
3180,note_on,15,0,6,,,,,,,,,5,,,75,95
3180,note_on,0,0,7,,,,,,,,,6,,,67,89
3180,note_on,15,0,10,,,,,,,,,10,,,43,94
3180,note_on,0,0,4,,,,,,,,,3,,,63,84
3180,note_on,0,0,2,,,,,,,,,1,,,75,82
3180,note_on,15,0,9,,,,,,,,,8,,,55,94
3180,note_on,15,0,1,,,,,,,,,0,,,87,90
3180,note_on,15,0,8,,,,,,,,,7,,,67,86
3180,note_on,0,0,3,,,,,,,,,2,,,55,90
3180,note_on,15,0,4,,,,,,,,,3,,,67,73
3180,note_on,15,0,2,,,,,,,,,1,,,79,67
3180,note_on,15,0,3,,,,,,,,,2,,,63,73
3195,note_on,15,0,9,,,,,,,,,8,,,55,0
3195,note_on,15,0,8,,,,,,,,,7,,,67,0
3195,note_on,0,0,2,,,,,,,,,1,,,79,0
3195,note_on,15,0,2,,,,,,,,,1,,,75,0
3195,note_on,15,0,7,,,,,,,,,6,,,67,0
3195,note_on,0,0,7,,,,,,,,,6,,,75,0
3195,note_on,15,0,10,,,,,,,,,10,,,43,0
3195,note_on,15,0,1,,,,,,,,,0,,,87,0
3195,note_on,15,0,4,,,,,,,,,3,,,63,0
3195,note_on,15,0,6,,,,,,,,,5,,,75,0
3195,note_on,15,0,3,,,,,,,,,2,,,55,0
3195,note_on,0,0,3,,,,,,,,,2,,,63,0
3195,note_on,0,0,4,,,,,,,,,3,,,67,0
3210,note_on,15,0,4,,,,,,,,,3,,,67,76
3210,note_on,15,0,1,,,,,,,,,0,,,79,84
3210,note_on,15,0,8,,,,,,,,,7,,,63,86
3210,note_on,0,0,3,,,,,,,,,2,,,63,81
3210,note_on,15,0,3,,,,,,,,,2,,,67,72
3210,note_on,15,0,10,,,,,,,,,10,,,39,99
3210,note_on,15,0,2,,,,,,,,,1,,,75,64
3210,note_on,15,0,6,,,,,,,,,5,,,79,84
3210,note_on,0,0,6,,,,,,,,,5,,,70,94
3210,note_on,15,0,9,,,,,,,,,8,,,51,99
3210,note_on,15,0,7,,,,,,,,,6,,,75,84
3210,note_on,0,0,7,,,,,,,,,6,,,67,94
3210,note_on,0,0,4,,,,,,,,,3,,,63,86
3210,note_on,0,0,2,,,,,,,,,1,,,67,76
3225,note_on,15,0,4,,,,,,,,,3,,,63,0
3225,note_on,0,0,4,,,,,,,,,3,,,67,0
3225,note_on,0,0,3,,,,,,,,,2,,,67,0
3225,note_on,15,0,8,,,,,,,,,7,,,63,0
3225,note_on,15,0,7,,,,,,,,,6,,,67,0
3225,note_on,0,0,7,,,,,,,,,6,,,75,0
3225,note_on,0,0,6,,,,,,,,,5,,,79,0
3225,note_on,15,0,6,,,,,,,,,5,,,70,0
3225,note_on,15,0,3,,,,,,,,,2,,,63,0
3225,note_on,15,0,9,,,,,,,,,8,,,51,0
3225,note_on,15,0,10,,,,,,,,,10,,,39,0
3225,note_on,15,0,1,,,,,,,,,0,,,79,0
3225,note_on,15,0,2,,,,,,,,,1,,,67,0
3225,note_on,0,0,2,,,,,,,,,1,,,75,0
3240,note_on,15,0,4,,,,,,,,,3,,,65,85
3240,note_on,15,0,10,,,,,,,,,10,,,46,84
3240,note_on,15,0,7,,,,,,,,,6,,,74,78
3240,note_on,0,0,7,,,,,,,,,6,,,65,84
3240,note_on,15,0,3,,,,,,,,,2,,,65,72
3240,note_on,0,0,3,,,,,,,,,2,,,62,82
3240,note_on,0,0,4,,,,,,,,,3,,,58,86
3240,note_on,0,0,6,,,,,,,,,5,,,70,94
3240,note_on,15,0,6,,,,,,,,,5,,,77,85
3240,note_on,15,0,9,,,,,,,,,8,,,58,84
3240,note_on,15,0,2,,,,,,,,,1,,,74,68
3240,note_on,0,0,2,,,,,,,,,1,,,65,73
3240,note_on,15,0,8,,,,,,,,,7,,,70,93
3240,note_on,15,0,1,,,,,,,,,0,,,77,81
3255,note_on,0,0,6,,,,,,,,,5,,,77,0
3255,note_on,0,0,6,,,,,,,,,5,,,58,73
3255,note_on,15,0,6,,,,,,,,,5,,,70,0
3270,note_on,0,0,6,,,,,,,,,5,,,60,74
3270,note_on,15,0,6,,,,,,,,,5,,,58,0
3285,note_on,15,0,6,,,,,,,,,5,,,60,0
3285,note_on,0,0,6,,,,,,,,,5,,,62,67
3300,note_on,60,0,2,,,,,,,,,1,,,65,0
3300,note_on,0,0,2,,,,,,,,,1,,,74,0
3300,note_on,60,0,1,,,,,,,,,0,,,77,0
3300,note_on,15,0,6,,,,,,,,,5,,,62,0
3300,note_on,0,0,6,,,,,,,,,5,,,63,77
3300,note_on,60,0,9,,,,,,,,,8,,,58,0
3300,note_on,0,0,3,,,,,,,,,2,,,65,0
3300,note_on,60,0,3,,,,,,,,,2,,,62,0
3300,note_on,0,0,7,,,,,,,,,6,,,74,0
3300,note_on,60,0,7,,,,,,,,,6,,,65,0
3300,note_on,60,0,8,,,,,,,,,7,,,70,0
3300,note_on,0,0,4,,,,,,,,,3,,,65,0
3300,note_on,60,0,10,,,,,,,,,10,,,46,0
3300,note_on,60,0,4,,,,,,,,,3,,,58,0
3315,note_on,0,0,6,,,,,,,,,5,,,65,73
3315,note_on,15,0,6,,,,,,,,,5,,,63,0
3330,note_on,15,0,6,,,,,,,,,5,,,65,0
3330,note_on,0,0,6,,,,,,,,,5,,,67,67
3345,note_on,0,0,6,,,,,,,,,5,,,69,85
3345,note_on,15,0,6,,,,,,,,,5,,,67,0
3360,note_on,60,0,8,,,,,,,,,7,,,58,99
3360,note_on,60,0,7,,,,,,,,,6,,,58,77
3360,note_on,0,0,6,,,,,,,,,5,,,70,84
3360,note_on,15,0,6,,,,,,,,,5,,,69,0
3360,note_on,60,0,4,,,,,,,,,3,,,58,89
3360,note_on,0,0,2,,,,,,,,,1,,,70,90
3360,note_on,60,0,2,,,,,,,,,1,,,82,76
3360,note_on,0,0,4,,,,,,,,,3,,,46,98
3360,note_on,60,0,10,,,,,,,,,10,,,34,117
3360,note_on,60,0,9,,,,,,,,,8,,,46,117
3360,note_on,60,0,1,,,,,,,,,0,,,82,82
3375,note_on,0,0,6,,,,,,,,,5,,,72,71
3375,note_on,15,0,6,,,,,,,,,5,,,70,0
3375,note_on,15,0,7,,,,,,,,,6,,,58,0
3375,note_on,0,0,7,,,,,,,,,6,,,60,78
3390,note_on,15,0,6,,,,,,,,,5,,,72,0
3390,note_on,0,0,6,,,,,,,,,5,,,74,84
3390,note_on,15,0,7,,,,,,,,,6,,,60,0
3390,note_on,0,0,7,,,,,,,,,6,,,62,73
3405,note_on,0,0,6,,,,,,,,,5,,,75,90
3405,note_on,15,0,6,,,,,,,,,5,,,74,0
3405,note_on,0,0,7,,,,,,,,,6,,,63,84
3405,note_on,15,0,7,,,,,,,,,6,,,62,0
3420,note_on,0,0,7,,,,,,,,,6,,,65,93
3420,note_on,15,0,7,,,,,,,,,6,,,63,0
3420,note_on,15,0,6,,,,,,,,,5,,,75,0
3420,note_on,0,0,6,,,,,,,,,5,,,77,86
3435,note_on,0,0,6,,,,,,,,,5,,,79,89
3435,note_on,15,0,6,,,,,,,,,5,,,77,0
3435,note_on,0,0,7,,,,,,,,,6,,,67,81
3435,note_on,15,0,7,,,,,,,,,6,,,65,0
3450,note_on,0,0,6,,,,,,,,,5,,,80,95
3450,note_on,15,0,6,,,,,,,,,5,,,79,0
3450,note_on,0,0,7,,,,,,,,,6,,,68,94
3450,note_on,15,0,7,,,,,,,,,6,,,67,0
3465,note_on,0,0,6,,,,,,,,,5,,,81,99
3465,note_on,15,0,7,,,,,,,,,6,,,68,0
3465,note_on,0,0,7,,,,,,,,,6,,,69,101
3465,note_on,15,0,6,,,,,,,,,5,,,80,0
3480,note_on,15,0,6,,,,,,,,,5,,,81,0
3480,note_on,0,0,6,,,,,,,,,5,,,82,94
3480,note_on,0,0,4,,,,,,,,,3,,,58,0
3480,note_on,0,0,9,,,,,,,,,8,,,46,81
3480,note_on,120,0,9,,,,,,,,,8,,,46,0
3480,note_on,15,0,7,,,,,,,,,6,,,69,0
3480,note_on,120,0,1,,,,,,,,,0,,,82,0
3480,note_on,0,0,1,,,,,,,,,0,,,82,68
3480,note_on,120,0,10,,,,,,,,,10,,,34,0
3480,note_on,0,0,10,,,,,,,,,10,,,34,81
3480,note_on,120,0,2,,,,,,,,,1,,,70,0
3480,note_on,0,0,4,,,,,,,,,3,,,58,58
3480,note_on,0,0,2,,,,,,,,,1,,,82,0
3480,note_on,0,0,2,,,,,,,,,1,,,70,43
3480,note_on,0,0,7,,,,,,,,,6,,,70,82
3480,note_on,120,0,4,,,,,,,,,3,,,46,0
3480,note_on,120,0,8,,,,,,,,,7,,,58,0
3480,note_on,0,0,8,,,,,,,,,7,,,58,77
3480,note_on,0,0,2,,,,,,,,,1,,,82,39
3480,note_on,0,0,4,,,,,,,,,3,,,46,74
3495,note_on,15,0,7,,,,,,,,,6,,,70,0
3495,note_on,15,0,6,,,,,,,,,5,,,82,0
3510,note_on,30,0,1,,,,,,,,,0,,,82,0
3510,note_on,0,0,1,,,,,,,,,0,,,86,89
3510,note_on,0,0,10,,,,,,,,,10,,,44,84
3510,note_on,30,0,10,,,,,,,,,10,,,34,0
3510,note_on,0,0,9,,,,,,,,,8,,,56,84
3510,note_on,0,0,2,,,,,,,,,1,,,74,84
3510,note_on,30,0,9,,,,,,,,,8,,,46,0
3510,note_on,0,0,4,,,,,,,,,3,,,58,0
3510,note_on,30,0,4,,,,,,,,,3,,,46,0
3510,note_on,0,0,7,,,,,,,,,6,,,62,104
3510,note_on,15,0,7,,,,,,,,,6,,,70,84
3510,note_on,0,0,4,,,,,,,,,3,,,65,76
3510,note_on,0,0,4,,,,,,,,,3,,,58,80
3510,note_on,30,0,2,,,,,,,,,1,,,70,0
3510,note_on,0,0,2,,,,,,,,,1,,,77,67
3510,note_on,0,0,2,,,,,,,,,1,,,82,0
3510,note_on,15,0,6,,,,,,,,,5,,,74,101
3510,note_on,0,0,3,,,,,,,,,2,,,53,84
3510,note_on,210,0,3,,,,,,,,,2,,,62,72
3510,note_on,0,0,8,,,,,,,,,7,,,68,94
3510,note_on,30,0,8,,,,,,,,,7,,,58,0
3525,note_on,15,0,8,,,,,,,,,7,,,68,0
3525,note_on,15,0,1,,,,,,,,,0,,,86,0
3525,note_on,15,0,2,,,,,,,,,1,,,74,0
3525,note_on,0,0,2,,,,,,,,,1,,,77,0
3525,note_on,15,0,4,,,,,,,,,3,,,58,0
3525,note_on,15,0,9,,,,,,,,,8,,,56,0
3525,note_on,15,0,6,,,,,,,,,5,,,74,0
3525,note_on,0,0,3,,,,,,,,,2,,,62,0
3525,note_on,15,0,7,,,,,,,,,6,,,62,0
3525,note_on,0,0,7,,,,,,,,,6,,,70,0
3525,note_on,15,0,3,,,,,,,,,2,,,53,0
3525,note_on,0,0,4,,,,,,,,,3,,,65,0
3525,note_on,15,0,10,,,,,,,,,10,,,44,0
3540,note_on,0,0,4,,,,,,,,,3,,,63,77
3540,note_on,15,0,2,,,,,,,,,1,,,79,67
3540,note_on,0,0,2,,,,,,,,,1,,,75,82
3540,note_on,15,0,10,,,,,,,,,10,,,43,93
3540,note_on,0,0,7,,,,,,,,,6,,,63,94
3540,note_on,15,0,7,,,,,,,,,6,,,70,89
3540,note_on,15,0,6,,,,,,,,,5,,,75,98
3540,note_on,15,0,1,,,,,,,,,0,,,87,89
3540,note_on,15,0,4,,,,,,,,,3,,,67,55
3540,note_on,15,0,9,,,,,,,,,8,,,55,93
3540,note_on,15,0,8,,,,,,,,,7,,,67,89
3540,note_on,0,0,3,,,,,,,,,2,,,55,94
3540,note_on,15,0,3,,,,,,,,,2,,,63,81
3555,note_on,15,0,6,,,,,,,,,5,,,75,0
3555,note_on,0,0,3,,,,,,,,,2,,,63,0
3555,note_on,15,0,7,,,,,,,,,6,,,63,0
3555,note_on,0,0,7,,,,,,,,,6,,,70,0
3555,note_on,15,0,1,,,,,,,,,0,,,87,0
3555,note_on,15,0,3,,,,,,,,,2,,,55,0
3555,note_on,15,0,10,,,,,,,,,10,,,43,0
3555,note_on,0,0,4,,,,,,,,,3,,,67,0
3555,note_on,15,0,2,,,,,,,,,1,,,75,0
3555,note_on,0,0,2,,,,,,,,,1,,,79,0
3555,note_on,15,0,8,,,,,,,,,7,,,67,0
3555,note_on,15,0,9,,,,,,,,,8,,,55,0
3555,note_on,15,0,4,,,,,,,,,3,,,63,0
3570,note_on,15,0,7,,,,,,,,,6,,,70,82
3570,note_on,15,0,2,,,,,,,,,1,,,75,74
3570,note_on,0,0,2,,,,,,,,,1,,,67,84
3570,note_on,15,0,6,,,,,,,,,5,,,79,84
3570,note_on,0,0,6,,,,,,,,,5,,,70,99
3570,note_on,0,0,3,,,,,,,,,2,,,51,84
3570,note_on,15,0,3,,,,,,,,,2,,,55,73
3570,note_on,15,0,9,,,,,,,,,8,,,51,94
3570,note_on,15,0,1,,,,,,,,,0,,,79,89
3570,note_on,0,0,4,,,,,,,,,3,,,63,84
3570,note_on,15,0,10,,,,,,,,,10,,,39,94
3570,note_on,0,0,7,,,,,,,,,6,,,63,94
3570,note_on,15,0,4,,,,,,,,,3,,,67,71
3570,note_on,15,0,8,,,,,,,,,7,,,63,86
3585,note_on,15,0,7,,,,,,,,,6,,,63,0
3585,note_on,15,0,8,,,,,,,,,7,,,63,0
3585,note_on,15,0,3,,,,,,,,,2,,,51,0
3585,note_on,15,0,9,,,,,,,,,8,,,51,0
3585,note_on,0,0,7,,,,,,,,,6,,,70,0
3585,note_on,0,0,3,,,,,,,,,2,,,55,0
3585,note_on,0,0,6,,,,,,,,,5,,,79,0
3585,note_on,15,0,1,,,,,,,,,0,,,79,0
3585,note_on,15,0,4,,,,,,,,,3,,,63,0
3585,note_on,15,0,2,,,,,,,,,1,,,67,0
3585,note_on,15,0,6,,,,,,,,,5,,,70,0
3585,note_on,0,0,2,,,,,,,,,1,,,75,0
3585,note_on,0,0,4,,,,,,,,,3,,,67,0
3585,note_on,15,0,10,,,,,,,,,10,,,39,0
3600,note_on,15,0,8,,,,,,,,,7,,,70,86
3600,note_on,15,0,4,,,,,,,,,3,,,65,69
3600,note_on,0,0,4,,,,,,,,,3,,,58,73
3600,note_on,0,0,2,,,,,,,,,1,,,65,72
3600,note_on,0,0,7,,,,,,,,,6,,,62,89
3600,note_on,0,0,3,,,,,,,,,2,,,50,73
3600,note_on,15,0,1,,,,,,,,,0,,,77,84
3600,note_on,15,0,2,,,,,,,,,1,,,74,73
3600,note_on,0,0,6,,,,,,,,,5,,,70,82
3600,note_on,15,0,6,,,,,,,,,5,,,77,78
3600,note_on,15,0,9,,,,,,,,,8,,,58,81
3600,note_on,15,0,3,,,,,,,,,2,,,53,74
3600,note_on,15,0,7,,,,,,,,,6,,,70,64
3600,note_on,15,0,10,,,,,,,,,10,,,46,81
3660,note_on,60,0,7,,,,,,,,,6,,,62,0
3660,note_on,60,0,8,,,,,,,,,7,,,70,0
3660,note_on,0,0,7,,,,,,,,,6,,,70,0
3660,note_on,60,0,4,,,,,,,,,3,,,58,0
3660,note_on,0,0,6,,,,,,,,,5,,,77,0
3660,note_on,60,0,6,,,,,,,,,5,,,70,0
3660,note_on,0,0,3,,,,,,,,,2,,,53,0
3660,note_on,60,0,10,,,,,,,,,10,,,46,0
3660,note_on,60,0,9,,,,,,,,,8,,,58,0
3660,note_on,60,0,3,,,,,,,,,2,,,50,0
3660,note_on,0,0,4,,,,,,,,,3,,,65,0
3660,note_on,60,0,2,,,,,,,,,1,,,65,0
3660,note_on,0,0,2,,,,,,,,,1,,,74,0
3660,note_on,60,0,1,,,,,,,,,0,,,77,0
3705,note_on,45,0,9,,,,,,,,,8,,,46,94
3705,note_on,45,0,10,,,,,,,,,10,,,34,94
3705,note_on,45,0,7,,,,,,,,,6,,,70,104
3705,note_on,45,0,8,,,,,,,,,7,,,58,95
3705,note_on,45,0,6,,,,,,,,,5,,,82,99
3720,note_on,0,0,6,,,,,,,,,5,,,70,99
3720,note_on,15,0,9,,,,,,,,,8,,,46,0
3720,note_on,0,0,9,,,,,,,,,8,,,46,94
3720,note_on,15,0,8,,,,,,,,,7,,,58,0
3720,note_on,0,0,8,,,,,,,,,7,,,58,93
3720,note_on,15,0,10,,,,,,,,,10,,,34,0
3720,note_on,0,0,10,,,,,,,,,10,,,34,94
3720,note_on,0,0,7,,,,,,,,,6,,,58,99
3720,note_on,15,0,7,,,,,,,,,6,,,70,0
3720,control_change,3720,0,5,,,,,,,,,4,7,112,,
3720,note_on,15,0,6,,,,,,,,,5,,,82,0
3780,note_on,60,0,6,,,,,,,,,5,,,70,0
3780,note_on,60,0,7,,,,,,,,,6,,,58,0
3810,note_on,90,0,10,,,,,,,,,10,,,34,0
3810,note_on,90,0,9,,,,,,,,,8,,,46,0
3810,note_on,90,0,8,,,,,,,,,7,,,58,0
3825,note_on,15,0,10,,,,,,,,,10,,,34,95
3825,note_on,45,0,7,,,,,,,,,6,,,58,95
3825,note_on,165,0,1,,,,,,,,,0,,,82,86
3825,note_on,15,0,9,,,,,,,,,8,,,46,95
3825,note_on,165,0,2,,,,,,,,,1,,,70,93
3825,note_on,165,0,4,,,,,,,,,3,,,58,93
3825,note_on,0,0,4,,,,,,,,,3,,,46,98
3825,note_on,0,0,3,,,,,,,,,2,,,46,94
3825,note_on,15,0,8,,,,,,,,,7,,,58,93
3825,note_on,45,0,6,,,,,,,,,5,,,70,104
3825,note_on,165,0,3,,,,,,,,,2,,,58,84
3840,note_on,15,0,8,,,,,,,,,7,,,58,0
3840,note_on,0,0,8,,,,,,,,,7,,,58,95
3840,note_on,15,0,1,,,,,,,,,0,,,82,0
3840,note_on,0,0,7,,,,,,,,,6,,,58,94
3840,note_on,15,0,7,,,,,,,,,6,,,58,0
3840,note_on,0,0,6,,,,,,,,,5,,,58,99
3840,note_on,15,0,6,,,,,,,,,5,,,70,0
3840,note_on,0,0,10,,,,,,,,,10,,,34,95
3840,note_on,0,0,1,,,,,,,,,0,,,82,89
3840,note_on,0,0,4,,,,,,,,,3,,,58,90
3840,note_on,0,0,3,,,,,,,,,2,,,46,90
3840,note_on,0,0,2,,,,,,,,,1,,,70,89
3840,note_on,0,0,3,,,,,,,,,2,,,58,0
3840,note_on,15,0,3,,,,,,,,,2,,,46,0
3840,note_on,15,0,4,,,,,,,,,3,,,46,0
3840,note_on,0,0,4,,,,,,,,,3,,,58,0
3840,note_on,0,0,3,,,,,,,,,2,,,58,78
3840,note_on,15,0,10,,,,,,,,,10,,,34,0
3840,note_on,15,0,2,,,,,,,,,1,,,70,0
3840,note_on,15,0,9,,,,,,,,,8,,,46,0
3840,note_on,0,0,9,,,,,,,,,8,,,46,95
3840,note_on,0,0,4,,,,,,,,,3,,,46,94
3930,note_on,90,0,9,,,,,,,,,8,,,46,0
3930,note_on,90,0,1,,,,,,,,,0,,,82,0
3930,note_on,90,0,7,,,,,,,,,6,,,58,0
3930,note_on,90,0,2,,,,,,,,,1,,,70,0
3930,note_on,90,0,3,,,,,,,,,2,,,46,0
3930,note_on,0,0,3,,,,,,,,,2,,,58,0
3930,note_on,90,0,10,,,,,,,,,10,,,34,0
3930,note_on,90,0,6,,,,,,,,,5,,,58,0
3930,note_on,90,0,4,,,,,,,,,3,,,46,0
3930,note_on,0,0,4,,,,,,,,,3,,,58,0
3930,note_on,90,0,8,,,,,,,,,7,,,58,0
3945,note_on,15,0,1,,,,,,,,,0,,,82,86
3945,note_on,15,0,4,,,,,,,,,3,,,58,89
3945,note_on,0,0,4,,,,,,,,,3,,,46,94
3945,note_on,15,0,9,,,,,,,,,8,,,46,93
3945,note_on,15,0,8,,,,,,,,,7,,,58,98
3945,note_on,15,0,10,,,,,,,,,10,,,34,93
3945,note_on,15,0,2,,,,,,,,,1,,,70,89
3945,note_on,15,0,3,,,,,,,,,2,,,58,84
3945,note_on,0,0,3,,,,,,,,,2,,,46,94
3945,note_on,15,0,6,,,,,,,,,5,,,58,95
3945,note_on,15,0,7,,,,,,,,,6,,,58,95
3960,note_on,15,0,3,,,,,,,,,2,,,46,0
3960,note_on,0,0,3,,,,,,,,,2,,,58,0
3960,note_on,0,0,2,,,,,,,,,1,,,68,77
3960,control_change,0,0,4,,,,,,,,,3,7,99,,
3960,note_on,15,0,2,,,,,,,,,1,,,70,0
3960,note_on,15,0,4,,,,,,,,,3,,,46,0
3960,note_on,15,0,1,,,,,,,,,0,,,82,0
3960,note_on,0,0,4,,,,,,,,,3,,,46,80
3960,note_on,0,0,4,,,,,,,,,3,,,58,78
3960,note_on,0,0,4,,,,,,,,,3,,,58,0
3960,control_change,0,0,1,,,,,,,,,0,7,99,,
3960,note_on,0,0,1,,,,,,,,,0,,,86,94
3960,control_change,0,0,10,,,,,,,,,10,7,99,,
3960,note_on,0,0,2,,,,,,,,,1,,,74,81
3960,control_change,0,0,3,,,,,,,,,2,7,99,,
3960,note_on,0,0,6,,,,,,,,,5,,,62,93
3960,note_on,0,0,7,,,,,,,,,6,,,56,98
3960,control_change,0,0,9,,,,,,,,,8,7,99,,
3960,note_on,0,0,9,,,,,,,,,8,,,46,89
3960,note_on,15,0,9,,,,,,,,,8,,,46,0
3960,control_change,0,0,2,,,,,,,,,1,7,99,,
3960,note_on,15,0,8,,,,,,,,,7,,,58,0
3960,note_on,0,0,8,,,,,,,,,7,,,53,80
3960,control_change,0,0,8,,,,,,,,,7,7,99,,
3960,note_on,15,0,10,,,,,,,,,10,,,34,0
3960,note_on,15,0,7,,,,,,,,,6,,,58,0
3960,note_on,0,0,10,,,,,,,,,10,,,34,89
3960,note_on,0,0,3,,,,,,,,,2,,,53,68
3960,control_change,0,0,7,,,,,,,,,6,7,99,,
3960,note_on,15,0,6,,,,,,,,,5,,,58,0
3960,note_on,0,0,3,,,,,,,,,2,,,56,77
3960,control_change,0,0,6,,,,,,,,,5,7,99,,
3972,control_change,12,0,8,,,,,,,,,7,7,98,,
3972,control_change,12,0,9,,,,,,,,,8,7,98,,
3972,control_change,12,0,7,,,,,,,,,6,7,98,,
3972,control_change,12,0,2,,,,,,,,,1,7,98,,
3972,control_change,12,0,10,,,,,,,,,10,7,98,,
3972,control_change,12,0,3,,,,,,,,,2,7,98,,
3972,control_change,12,0,1,,,,,,,,,0,7,98,,
3972,control_change,12,0,6,,,,,,,,,5,7,98,,
3972,control_change,12,0,4,,,,,,,,,3,7,98,,
3982,control_change,10,0,1,,,,,,,,,0,7,97,,
3982,control_change,10,0,10,,,,,,,,,10,7,97,,
3982,control_change,10,0,2,,,,,,,,,1,7,97,,
3982,control_change,10,0,4,,,,,,,,,3,7,97,,
3982,control_change,10,0,7,,,,,,,,,6,7,97,,
3982,control_change,10,0,6,,,,,,,,,5,7,97,,
3982,control_change,10,0,8,,,,,,,,,7,7,97,,
3982,control_change,10,0,9,,,,,,,,,8,7,97,,
3982,control_change,10,0,3,,,,,,,,,2,7,97,,
3992,control_change,10,0,3,,,,,,,,,2,7,96,,
3992,control_change,10,0,6,,,,,,,,,5,7,96,,
3992,control_change,10,0,4,,,,,,,,,3,7,96,,
3992,control_change,10,0,8,,,,,,,,,7,7,96,,
3992,control_change,10,0,1,,,,,,,,,0,7,96,,
3992,control_change,10,0,9,,,,,,,,,8,7,96,,
3992,control_change,10,0,7,,,,,,,,,6,7,96,,
3992,control_change,10,0,2,,,,,,,,,1,7,96,,
3994,control_change,12,0,10,,,,,,,,,10,7,96,,
4002,control_change,10,0,1,,,,,,,,,0,7,95,,
4002,control_change,10,0,3,,,,,,,,,2,7,95,,
4002,control_change,10,0,8,,,,,,,,,7,7,95,,
4002,control_change,10,0,2,,,,,,,,,1,7,95,,
4004,control_change,12,0,4,,,,,,,,,3,7,95,,
4004,control_change,12,0,6,,,,,,,,,5,7,95,,
4004,control_change,12,0,7,,,,,,,,,6,7,95,,
4004,control_change,10,0,10,,,,,,,,,10,7,95,,
4004,control_change,12,0,9,,,,,,,,,8,7,95,,
4012,control_change,10,0,2,,,,,,,,,1,7,94,,
4012,control_change,10,0,8,,,,,,,,,7,7,94,,
4012,control_change,10,0,3,,,,,,,,,2,7,94,,
4012,control_change,10,0,1,,,,,,,,,0,7,94,,
4014,control_change,10,0,6,,,,,,,,,5,7,94,,
4014,control_change,10,0,7,,,,,,,,,6,7,94,,
4014,control_change,10,0,9,,,,,,,,,8,7,94,,
4014,control_change,10,0,4,,,,,,,,,3,7,94,,
4016,control_change,12,0,10,,,,,,,,,10,7,94,,
4022,control_change,10,0,8,,,,,,,,,7,7,93,,
4022,control_change,10,0,1,,,,,,,,,0,7,93,,
4022,control_change,10,0,2,,,,,,,,,1,7,93,,
4022,control_change,10,0,3,,,,,,,,,2,7,93,,
4024,control_change,10,0,7,,,,,,,,,6,7,93,,
4024,control_change,10,0,6,,,,,,,,,5,7,93,,
4024,control_change,10,0,9,,,,,,,,,8,7,93,,
4024,control_change,10,0,4,,,,,,,,,3,7,93,,
4026,control_change,10,0,10,,,,,,,,,10,7,93,,
4032,control_change,10,0,1,,,,,,,,,0,7,92,,
4032,control_change,10,0,2,,,,,,,,,1,7,92,,
4032,control_change,10,0,8,,,,,,,,,7,7,92,,
4032,control_change,10,0,3,,,,,,,,,2,7,92,,
4036,control_change,12,0,4,,,,,,,,,3,7,92,,
4036,control_change,10,0,10,,,,,,,,,10,7,92,,
4036,control_change,12,0,7,,,,,,,,,6,7,92,,
4036,control_change,12,0,6,,,,,,,,,5,7,92,,
4036,control_change,12,0,9,,,,,,,,,8,7,92,,
4042,control_change,10,0,2,,,,,,,,,1,7,91,,
4044,control_change,12,0,8,,,,,,,,,7,7,91,,
4044,control_change,12,0,1,,,,,,,,,0,7,91,,
4044,control_change,12,0,3,,,,,,,,,2,7,91,,
4046,control_change,10,0,9,,,,,,,,,8,7,91,,
4046,control_change,10,0,6,,,,,,,,,5,7,91,,
4046,control_change,10,0,4,,,,,,,,,3,7,91,,
4046,control_change,10,0,7,,,,,,,,,6,7,91,,
4048,control_change,12,0,10,,,,,,,,,10,7,91,,
4052,control_change,10,0,2,,,,,,,,,1,7,90,,
4054,control_change,10,0,1,,,,,,,,,0,7,90,,
4054,control_change,10,0,3,,,,,,,,,2,7,90,,
4054,control_change,10,0,8,,,,,,,,,7,7,90,,
4056,control_change,10,0,6,,,,,,,,,5,7,90,,
4056,control_change,10,0,7,,,,,,,,,6,7,90,,
4056,control_change,10,0,9,,,,,,,,,8,7,90,,
4056,control_change,10,0,4,,,,,,,,,3,7,90,,
4058,control_change,10,0,10,,,,,,,,,10,7,90,,
4062,control_change,10,0,2,,,,,,,,,1,7,89,,
4064,control_change,10,0,8,,,,,,,,,7,7,89,,
4064,control_change,10,0,1,,,,,,,,,0,7,89,,
4064,control_change,10,0,3,,,,,,,,,2,7,89,,
4066,control_change,10,0,7,,,,,,,,,6,7,89,,
4066,control_change,10,0,4,,,,,,,,,3,7,89,,
4068,control_change,12,0,9,,,,,,,,,8,7,89,,
4068,control_change,12,0,6,,,,,,,,,5,7,89,,
4070,control_change,12,0,10,,,,,,,,,10,7,89,,
4072,control_change,10,0,2,,,,,,,,,1,7,88,,
4074,control_change,10,0,8,,,,,,,,,7,7,88,,
4074,control_change,10,0,3,,,,,,,,,2,7,88,,
4074,control_change,10,0,1,,,,,,,,,0,7,88,,
4078,control_change,12,0,7,,,,,,,,,6,7,88,,
4078,control_change,10,0,9,,,,,,,,,8,7,88,,
4078,control_change,10,0,6,,,,,,,,,5,7,88,,
4078,control_change,12,0,4,,,,,,,,,3,7,88,,
4080,note_on,360,0,5,,,,,,,,,4,,,80,94
4080,control_change,10,0,10,,,,,,,,,10,7,88,,
4080,note_on,0,0,5,,,,,,,,,4,,,68,99
4084,control_change,10,0,1,,,,,,,,,0,7,87,,
4084,control_change,10,0,3,,,,,,,,,2,7,87,,
4084,control_change,12,0,2,,,,,,,,,1,7,87,,
4084,control_change,10,0,8,,,,,,,,,7,7,87,,
4088,control_change,10,0,7,,,,,,,,,6,7,87,,
4088,control_change,10,0,9,,,,,,,,,8,7,87,,
4088,control_change,10,0,6,,,,,,,,,5,7,87,,
4088,control_change,10,0,4,,,,,,,,,3,7,87,,
4092,control_change,12,0,10,,,,,,,,,10,7,87,,
4094,control_change,10,0,1,,,,,,,,,0,7,86,,
4094,control_change,10,0,8,,,,,,,,,7,7,86,,
4094,control_change,10,0,3,,,,,,,,,2,7,86,,
4094,control_change,10,0,2,,,,,,,,,1,7,86,,
4095,note_on,0,0,5,,,,,,,,,4,,,79,99
4095,note_on,0,0,5,,,,,,,,,4,,,67,98
4095,note_on,15,0,5,,,,,,,,,4,,,68,0
4095,note_on,0,0,5,,,,,,,,,4,,,80,0
4098,control_change,10,0,4,,,,,,,,,3,7,86,,
4098,control_change,10,0,7,,,,,,,,,6,7,86,,
4100,control_change,12,0,6,,,,,,,,,5,7,86,,
4100,control_change,12,0,9,,,,,,,,,8,7,86,,
4102,control_change,10,0,10,,,,,,,,,10,7,86,,
4104,control_change,10,0,2,,,,,,,,,1,7,85,,
4104,control_change,10,0,3,,,,,,,,,2,7,85,,
4104,control_change,10,0,8,,,,,,,,,7,7,85,,
4104,control_change,10,0,1,,,,,,,,,0,7,85,,
4110,control_change,10,0,6,,,,,,,,,5,7,85,,
4110,control_change,12,0,7,,,,,,,,,6,7,85,,
4110,control_change,10,0,9,,,,,,,,,8,7,85,,
4110,control_change,12,0,4,,,,,,,,,3,7,85,,
4110,note_on,15,0,5,,,,,,,,,4,,,67,0
4110,note_on,0,0,5,,,,,,,,,4,,,79,0
4110,note_on,0,0,5,,,,,,,,,4,,,84,94
4110,note_on,0,0,5,,,,,,,,,4,,,72,68
4112,control_change,10,0,10,,,,,,,,,10,7,85,,
4114,control_change,10,0,2,,,,,,,,,1,7,84,,
4116,control_change,12,0,1,,,,,,,,,0,7,84,,
4116,control_change,12,0,8,,,,,,,,,7,7,84,,
4116,control_change,12,0,3,,,,,,,,,2,7,84,,
4120,control_change,10,0,4,,,,,,,,,3,7,84,,
4120,control_change,10,0,6,,,,,,,,,5,7,84,,
4120,control_change,10,0,9,,,,,,,,,8,7,84,,
4120,control_change,10,0,7,,,,,,,,,6,7,84,,
4124,control_change,10,0,2,,,,,,,,,1,7,83,,
4124,control_change,12,0,10,,,,,,,,,10,7,84,,
4125,note_on,0,0,5,,,,,,,,,4,,,84,0
4125,note_on,15,0,5,,,,,,,,,4,,,72,0
4125,note_on,0,0,5,,,,,,,,,4,,,70,95
4125,note_on,0,0,5,,,,,,,,,4,,,82,93
4126,control_change,10,0,8,,,,,,,,,7,7,83,,
4126,control_change,10,0,1,,,,,,,,,0,7,83,,
4126,control_change,10,0,3,,,,,,,,,2,7,83,,
4130,control_change,10,0,7,,,,,,,,,6,7,83,,
4130,control_change,10,0,4,,,,,,,,,3,7,83,,
4132,control_change,12,0,9,,,,,,,,,8,7,83,,
4132,control_change,12,0,6,,,,,,,,,5,7,83,,
4134,control_change,10,0,2,,,,,,,,,1,7,82,,
4134,control_change,10,0,10,,,,,,,,,10,7,83,,
4136,control_change,10,0,3,,,,,,,,,2,7,82,,
4136,control_change,10,0,1,,,,,,,,,0,7,82,,
4136,control_change,10,0,8,,,,,,,,,7,7,82,,
4140,note_on,0,0,5,,,,,,,,,4,,,68,89
4140,control_change,10,0,4,,,,,,,,,3,7,82,,
4140,control_change,10,0,7,,,,,,,,,6,7,82,,
4140,note_on,0,0,5,,,,,,,,,4,,,80,85
4140,note_on,0,0,5,,,,,,,,,4,,,82,0
4140,note_on,15,0,5,,,,,,,,,4,,,70,0
4142,control_change,10,0,6,,,,,,,,,5,7,82,,
4142,control_change,10,0,9,,,,,,,,,8,7,82,,
4144,control_change,10,0,2,,,,,,,,,1,7,81,,
4146,control_change,10,0,8,,,,,,,,,7,7,81,,
4146,control_change,10,0,1,,,,,,,,,0,7,81,,
4146,control_change,10,0,3,,,,,,,,,2,7,81,,
4146,control_change,12,0,10,,,,,,,,,10,7,82,,
4152,control_change,12,0,7,,,,,,,,,6,7,81,,
4152,control_change,12,0,4,,,,,,,,,3,7,81,,
4152,control_change,10,0,6,,,,,,,,,5,7,81,,
4152,control_change,10,0,9,,,,,,,,,8,7,81,,
4154,control_change,10,0,2,,,,,,,,,1,7,80,,
4155,note_on,0,0,5,,,,,,,,,4,,,67,73
4155,note_on,15,0,5,,,,,,,,,4,,,68,0
4155,note_on,0,0,5,,,,,,,,,4,,,79,85
4155,note_on,0,0,5,,,,,,,,,4,,,80,0
4156,control_change,10,0,3,,,,,,,,,2,7,80,,
4156,control_change,10,0,1,,,,,,,,,0,7,80,,
4156,control_change,10,0,8,,,,,,,,,7,7,80,,
4156,control_change,10,0,10,,,,,,,,,10,7,81,,
4162,control_change,10,0,7,,,,,,,,,6,7,80,,
4162,control_change,10,0,4,,,,,,,,,3,7,80,,
4164,control_change,12,0,9,,,,,,,,,8,7,80,,
4164,control_change,10,0,2,,,,,,,,,1,7,79,,
4164,control_change,12,0,6,,,,,,,,,5,7,80,,
4166,control_change,10,0,8,,,,,,,,,7,7,79,,
4166,control_change,10,0,1,,,,,,,,,0,7,79,,
4166,control_change,10,0,3,,,,,,,,,2,7,79,,
4168,control_change,12,0,10,,,,,,,,,10,7,80,,
4170,note_on,15,0,5,,,,,,,,,4,,,67,0
4170,note_on,0,0,5,,,,,,,,,4,,,79,0
4170,note_on,0,0,5,,,,,,,,,4,,,77,68
4170,note_on,0,0,5,,,,,,,,,4,,,65,89
4172,control_change,10,0,7,,,,,,,,,6,7,79,,
4172,control_change,10,0,4,,,,,,,,,3,7,79,,
4174,control_change,10,0,6,,,,,,,,,5,7,79,,
4174,control_change,10,0,9,,,,,,,,,8,7,79,,
4174,control_change,10,0,2,,,,,,,,,1,7,78,,
4176,control_change,10,0,3,,,,,,,,,2,7,78,,
4176,control_change,10,0,8,,,,,,,,,7,7,78,,
4176,control_change,10,0,1,,,,,,,,,0,7,78,,
4178,control_change,10,0,10,,,,,,,,,10,7,79,,
4184,control_change,10,0,6,,,,,,,,,5,7,78,,
4184,control_change,12,0,4,,,,,,,,,3,7,78,,
4184,control_change,10,0,9,,,,,,,,,8,7,78,,
4184,control_change,10,0,2,,,,,,,,,1,7,77,,
4184,control_change,12,0,7,,,,,,,,,6,7,78,,
4185,note_on,0,0,5,,,,,,,,,4,,,77,0
4185,note_on,0,0,5,,,,,,,,,4,,,75,93
4185,note_on,0,0,5,,,,,,,,,4,,,63,77
4185,note_on,15,0,5,,,,,,,,,4,,,65,0
4188,control_change,12,0,1,,,,,,,,,0,7,77,,
4188,control_change,10,0,10,,,,,,,,,10,7,78,,
4188,control_change,12,0,3,,,,,,,,,2,7,77,,
4188,control_change,12,0,8,,,,,,,,,7,7,77,,
4194,control_change,10,0,7,,,,,,,,,6,7,77,,
4194,control_change,10,0,4,,,,,,,,,3,7,77,,
4194,control_change,10,0,2,,,,,,,,,1,7,76,,
4196,control_change,12,0,6,,,,,,,,,5,7,77,,
4196,control_change,12,0,9,,,,,,,,,8,7,77,,
4198,control_change,10,0,8,,,,,,,,,7,7,76,,
4198,control_change,10,0,3,,,,,,,,,2,7,76,,
4198,control_change,10,0,1,,,,,,,,,0,7,76,,
4200,note_on,0,0,5,,,,,,,,,4,,,74,99
4200,note_on,0,0,5,,,,,,,,,4,,,75,0
4200,note_on,15,0,5,,,,,,,,,4,,,63,0
4200,note_on,0,0,5,,,,,,,,,4,,,62,93
4200,control_change,12,0,10,,,,,,,,,10,7,77,,
4204,control_change,10,0,4,,,,,,,,,3,7,76,,
4204,control_change,10,0,7,,,,,,,,,6,7,76,,
4206,control_change,10,0,9,,,,,,,,,8,7,76,,
4206,control_change,12,0,2,,,,,,,,,1,7,75,,
4206,control_change,10,0,6,,,,,,,,,5,7,76,,
4208,control_change,10,0,8,,,,,,,,,7,7,75,,
4208,control_change,10,0,3,,,,,,,,,2,7,75,,
4208,control_change,10,0,1,,,,,,,,,0,7,75,,
4210,control_change,10,0,10,,,,,,,,,10,7,76,,
4215,note_on,15,0,5,,,,,,,,,4,,,62,0
4215,note_on,0,0,5,,,,,,,,,4,,,63,82
4215,note_on,0,0,5,,,,,,,,,4,,,75,94
4215,note_on,0,0,5,,,,,,,,,4,,,74,0
4216,control_change,10,0,9,,,,,,,,,8,7,75,,
4216,control_change,12,0,7,,,,,,,,,6,7,75,,
4216,control_change,12,0,4,,,,,,,,,3,7,75,,
4216,control_change,10,0,6,,,,,,,,,5,7,75,,
4216,control_change,10,0,2,,,,,,,,,1,7,74,,
4218,control_change,10,0,8,,,,,,,,,7,7,74,,
4218,control_change,10,0,3,,,,,,,,,2,7,74,,
4218,control_change,10,0,1,,,,,,,,,0,7,74,,
4222,control_change,12,0,10,,,,,,,,,10,7,75,,
4226,control_change,10,0,2,,,,,,,,,1,7,73,,
4226,control_change,10,0,4,,,,,,,,,3,7,74,,
4226,control_change,10,0,7,,,,,,,,,6,7,74,,
4228,control_change,10,0,3,,,,,,,,,2,7,73,,
4228,control_change,10,0,1,,,,,,,,,0,7,73,,
4228,control_change,10,0,8,,,,,,,,,7,7,73,,
4228,control_change,12,0,6,,,,,,,,,5,7,74,,
4228,control_change,12,0,9,,,,,,,,,8,7,74,,
4230,note_on,15,0,5,,,,,,,,,4,,,63,0
4230,note_on,0,0,5,,,,,,,,,4,,,65,82
4230,note_on,0,0,5,,,,,,,,,4,,,77,85
4230,note_on,0,0,5,,,,,,,,,4,,,75,0
4232,control_change,10,0,10,,,,,,,,,10,7,74,,
4236,control_change,10,0,7,,,,,,,,,6,7,73,,
4236,control_change,10,0,4,,,,,,,,,3,7,73,,
4236,control_change,10,0,2,,,,,,,,,1,7,72,,
4238,control_change,10,0,8,,,,,,,,,7,7,72,,
4238,control_change,10,0,1,,,,,,,,,0,7,72,,
4238,control_change,10,0,6,,,,,,,,,5,7,73,,
4238,control_change,10,0,9,,,,,,,,,8,7,73,,
4238,control_change,10,0,3,,,,,,,,,2,7,72,,
4244,control_change,12,0,10,,,,,,,,,10,7,73,,
4245,note_on,0,0,5,,,,,,,,,4,,,63,81
4245,note_on,0,0,5,,,,,,,,,4,,,75,84
4245,note_on,15,0,5,,,,,,,,,4,,,65,0
4245,note_on,0,0,5,,,,,,,,,4,,,77,0
4246,control_change,10,0,7,,,,,,,,,6,7,72,,
4246,control_change,10,0,4,,,,,,,,,3,7,72,,
4246,control_change,10,0,2,,,,,,,,,1,7,71,,
4248,control_change,10,0,3,,,,,,,,,2,7,71,,
4248,control_change,10,0,8,,,,,,,,,7,7,71,,
4248,control_change,10,0,9,,,,,,,,,8,7,72,,
4248,control_change,10,0,1,,,,,,,,,0,7,71,,
4248,control_change,10,0,6,,,,,,,,,5,7,72,,
4254,control_change,10,0,10,,,,,,,,,10,7,72,,
4256,control_change,10,0,2,,,,,,,,,1,7,70,,
4258,control_change,12,0,4,,,,,,,,,3,7,71,,
4258,control_change,12,0,7,,,,,,,,,6,7,71,,
4260,control_change,12,0,3,,,,,,,,,2,7,70,,
4260,control_change,12,0,8,,,,,,,,,7,7,70,,
4260,control_change,12,0,6,,,,,,,,,5,7,71,,
4260,control_change,12,0,1,,,,,,,,,0,7,70,,
4260,control_change,12,0,9,,,,,,,,,8,7,71,,
4260,note_on,15,0,5,,,,,,,,,4,,,63,0
4260,note_on,0,0,5,,,,,,,,,4,,,75,0
4260,note_on,0,0,5,,,,,,,,,4,,,74,93
4260,note_on,0,0,5,,,,,,,,,4,,,62,76
4264,control_change,10,0,10,,,,,,,,,10,7,71,,
4266,control_change,10,0,2,,,,,,,,,1,7,69,,
4268,control_change,10,0,7,,,,,,,,,6,7,70,,
4268,control_change,10,0,4,,,,,,,,,3,7,70,,
4270,control_change,10,0,9,,,,,,,,,8,7,70,,
4270,control_change,10,0,3,,,,,,,,,2,7,69,,
4270,control_change,10,0,6,,,,,,,,,5,7,70,,
4270,control_change,10,0,1,,,,,,,,,0,7,69,,
4270,control_change,10,0,8,,,,,,,,,7,7,69,,
4275,note_on,0,0,5,,,,,,,,,4,,,72,45
4275,note_on,0,0,5,,,,,,,,,4,,,74,0
4275,note_on,0,0,5,,,,,,,,,4,,,60,80
4275,note_on,15,0,5,,,,,,,,,4,,,62,0
4276,control_change,10,0,2,,,,,,,,,1,7,68,,
4276,control_change,12,0,10,,,,,,,,,10,7,70,,
4278,control_change,10,0,7,,,,,,,,,6,7,69,,
4278,control_change,10,0,4,,,,,,,,,3,7,69,,
4280,control_change,10,0,8,,,,,,,,,7,7,68,,
4280,control_change,10,0,9,,,,,,,,,8,7,69,,
4280,control_change,10,0,6,,,,,,,,,5,7,69,,
4280,control_change,10,0,1,,,,,,,,,0,7,68,,
4280,control_change,10,0,3,,,,,,,,,2,7,68,,
4286,control_change,10,0,2,,,,,,,,,1,7,67,,
4286,control_change,10,0,10,,,,,,,,,10,7,69,,
4290,control_change,10,0,3,,,,,,,,,2,7,67,,
4290,control_change,10,0,1,,,,,,,,,0,7,67,,
4290,note_on,0,0,5,,,,,,,,,4,,,58,81
4290,note_on,0,0,5,,,,,,,,,4,,,70,78
4290,control_change,10,0,8,,,,,,,,,7,7,67,,
4290,control_change,12,0,4,,,,,,,,,3,7,68,,
4290,note_on,0,0,5,,,,,,,,,4,,,72,0
4290,note_on,15,0,5,,,,,,,,,4,,,60,0
4290,control_change,12,0,7,,,,,,,,,6,7,68,,
4292,control_change,12,0,9,,,,,,,,,8,7,68,,
4292,control_change,12,0,6,,,,,,,,,5,7,68,,
4296,control_change,10,0,2,,,,,,,,,1,7,66,,
4298,control_change,12,0,10,,,,,,,,,10,7,68,,
4300,control_change,10,0,7,,,,,,,,,6,7,67,,
4300,control_change,10,0,4,,,,,,,,,3,7,67,,
4300,control_change,10,0,8,,,,,,,,,7,7,66,,
4300,control_change,10,0,1,,,,,,,,,0,7,66,,
4300,control_change,10,0,3,,,,,,,,,2,7,66,,
4302,control_change,10,0,6,,,,,,,,,5,7,67,,
4302,control_change,10,0,9,,,,,,,,,8,7,67,,
4305,note_on,15,0,5,,,,,,,,,4,,,58,0
4305,note_on,0,0,5,,,,,,,,,4,,,70,0
4305,note_on,0,0,5,,,,,,,,,4,,,68,70
4305,note_on,0,0,5,,,,,,,,,4,,,56,69
4306,control_change,10,0,2,,,,,,,,,1,7,65,,
4308,control_change,10,0,10,,,,,,,,,10,7,67,,
4310,control_change,10,0,8,,,,,,,,,7,7,65,,
4310,control_change,10,0,1,,,,,,,,,0,7,65,,
4310,control_change,10,0,7,,,,,,,,,6,7,66,,
4310,control_change,10,0,3,,,,,,,,,2,7,65,,
4310,control_change,10,0,4,,,,,,,,,3,7,66,,
4312,control_change,10,0,6,,,,,,,,,5,7,66,,
4312,control_change,10,0,9,,,,,,,,,8,7,66,,
4316,control_change,10,0,2,,,,,,,,,1,7,64,,
4318,control_change,10,0,10,,,,,,,,,10,7,66,,
4320,control_change,0,0,1,,,,,,,,,0,7,64,,
4320,note_on,10,0,1,,,,,,,,,0,,,86,0
4320,note_on,0,0,7,,,,,,,,,6,,,55,94
4320,note_on,10,0,8,,,,,,,,,7,,,53,0
4320,note_on,0,0,7,,,,,,,,,6,,,63,78
4320,note_on,0,0,1,,,,,,,,,0,,,87,86
4320,control_change,0,0,7,,,,,,,,,6,7,65,,
4320,note_on,10,0,7,,,,,,,,,6,,,56,0
4320,note_on,0,0,3,,,,,,,,,2,,,56,0
4320,note_on,0,0,9,,,,,,,,,8,,,51,94
4320,control_change,0,0,3,,,,,,,,,2,7,64,,
4320,note_on,8,0,9,,,,,,,,,8,,,46,0
4320,note_on,0,0,5,,,,,,,,,4,,,51,44
4320,note_on,0,0,5,,,,,,,,,4,,,55,50
4320,control_change,0,0,4,,,,,,,,,3,7,65,,
4320,note_on,0,0,10,,,,,,,,,10,,,39,94
4320,note_on,2,0,10,,,,,,,,,10,,,34,0
4320,note_on,0,0,5,,,,,,,,,4,,,58,44
4320,note_on,0,0,3,,,,,,,,,2,,,51,78
4320,note_on,0,0,5,,,,,,,,,4,,,63,68
4320,note_on,0,0,5,,,,,,,,,4,,,68,0
4320,note_on,15,0,5,,,,,,,,,4,,,56,0
4320,note_on,8,0,6,,,,,,,,,5,,,62,0
4320,note_on,0,0,6,,,,,,,,,5,,,63,90
4320,note_on,4,0,2,,,,,,,,,1,,,68,0
4320,note_on,0,0,2,,,,,,,,,1,,,74,0
4320,note_on,0,0,2,,,,,,,,,1,,,75,77
4320,note_on,0,0,2,,,,,,,,,1,,,67,85
4320,note_on,0,0,5,,,,,,,,,4,,,67,57
4320,note_on,0,0,3,,,,,,,,,2,,,55,68
4320,note_on,0,0,4,,,,,,,,,3,,,51,86
4320,note_on,10,0,4,,,,,,,,,3,,,46,0
4320,control_change,0,0,8,,,,,,,,,7,7,64,,
4320,note_on,0,0,8,,,,,,,,,7,,,51,73
4320,note_on,10,0,3,,,,,,,,,2,,,53,0
4320,note_on,0,0,4,,,,,,,,,3,,,58,0
4320,note_on,0,0,4,,,,,,,,,3,,,63,72
4322,control_change,2,0,9,,,,,,,,,8,7,65,,
4322,control_change,2,0,6,,,,,,,,,5,7,65,,
4380,note_on,60,0,2,,,,,,,,,1,,,67,0
4380,note_on,58,0,9,,,,,,,,,8,,,51,0
4380,note_on,60,0,4,,,,,,,,,3,,,51,0
4380,note_on,58,0,6,,,,,,,,,5,,,63,0
4380,note_on,60,0,8,,,,,,,,,7,,,51,0
4380,note_on,60,0,1,,,,,,,,,0,,,87,0
4380,note_on,0,0,4,,,,,,,,,3,,,63,0
4380,note_on,0,0,2,,,,,,,,,1,,,75,0
4380,note_on,60,0,10,,,,,,,,,10,,,39,0
4380,note_on,60,0,3,,,,,,,,,2,,,51,0
4380,note_on,60,0,7,,,,,,,,,6,,,55,0
4380,note_on,0,0,7,,,,,,,,,6,,,63,0
4380,note_on,0,0,3,,,,,,,,,2,,,55,0
4440,note_on,0,0,5,,,,,,,,,4,,,51,43
4440,note_on,0,0,5,,,,,,,,,4,,,67,0
4440,note_on,0,0,5,,,,,,,,,4,,,63,0
4440,note_on,0,0,5,,,,,,,,,4,,,55,0
4440,note_on,120,0,5,,,,,,,,,4,,,51,0
4440,note_on,0,0,5,,,,,,,,,4,,,67,52
4440,note_on,0,0,5,,,,,,,,,4,,,60,42
4440,note_on,0,0,5,,,,,,,,,4,,,48,65
4440,note_on,0,0,5,,,,,,,,,4,,,58,0
4500,control_change,120,0,9,,,,,,,,,8,7,99,,
4500,control_change,120,0,1,,,,,,,,,0,7,99,,
4500,control_change,120,0,8,,,,,,,,,7,7,99,,
4500,control_change,120,0,4,,,,,,,,,3,7,99,,
4500,control_change,120,0,6,,,,,,,,,5,7,99,,
4500,control_change,120,0,3,,,,,,,,,2,7,99,,
4502,control_change,122,0,10,,,,,,,,,10,7,99,,
4502,control_change,122,0,2,,,,,,,,,1,7,99,,
4504,control_change,124,0,7,,,,,,,,,6,7,99,,
4560,note_on,120,0,5,,,,,,,,,4,,,48,0
4560,note_on,0,0,5,,,,,,,,,4,,,67,0
4560,note_on,0,0,5,,,,,,,,,4,,,60,0
4560,note_on,0,0,5,,,,,,,,,4,,,51,0
4560,note_on,0,0,5,,,,,,,,,4,,,68,72
4560,note_on,0,0,5,,,,,,,,,4,,,60,44
4560,note_on,0,0,5,,,,,,,,,4,,,53,65
4560,note_on,0,0,5,,,,,,,,,4,,,44,62
4650,note_on,90,0,5,,,,,,,,,4,,,53,0
4650,note_on,0,0,5,,,,,,,,,4,,,68,0
4665,note_on,0,0,5,,,,,,,,,4,,,56,65
4665,note_on,15,0,5,,,,,,,,,4,,,72,76
4680,note_on,15,0,5,,,,,,,,,4,,,56,0
4680,note_on,0,0,5,,,,,,,,,4,,,44,0
4680,note_on,0,0,5,,,,,,,,,4,,,60,0
4680,note_on,0,0,5,,,,,,,,,4,,,72,0
4680,note_on,0,0,5,,,,,,,,,4,,,67,77
4680,note_on,0,0,5,,,,,,,,,4,,,58,64
4680,note_on,0,0,5,,,,,,,,,4,,,51,62
4680,note_on,0,0,5,,,,,,,,,4,,,46,64
4800,note_on,120,0,5,,,,,,,,,4,,,46,0
4800,note_on,0,0,5,,,,,,,,,4,,,58,0
4800,note_on,0,0,5,,,,,,,,,4,,,65,73
4800,note_on,0,0,5,,,,,,,,,4,,,58,44
4800,note_on,0,0,5,,,,,,,,,4,,,50,64
4800,note_on,0,0,5,,,,,,,,,4,,,46,55
4800,note_on,0,0,5,,,,,,,,,4,,,51,0
4800,note_on,0,0,5,,,,,,,,,4,,,67,0
4860,note_on,0,0,5,,,,,,,,,4,,,70,74
4860,note_on,0,0,5,,,,,,,,,4,,,50,0
4860,note_on,0,0,5,,,,,,,,,4,,,58,0
4860,note_on,0,0,5,,,,,,,,,4,,,65,0
4860,note_on,60,0,5,,,,,,,,,4,,,46,0
4905,note_on,45,0,5,,,,,,,,,4,,,70,0
4920,note_on,15,0,5,,,,,,,,,4,,,70,71
4965,note_on,45,0,5,,,,,,,,,4,,,70,0
4980,note_on,15,0,5,,,,,,,,,4,,,70,84
5017,note_on,37,0,5,,,,,,,,,4,,,69,78
5025,note_on,0,0,5,,,,,,,,,4,,,70,73
5025,note_on,0,0,5,,,,,,,,,4,,,70,0
5025,note_on,8,0,5,,,,,,,,,4,,,69,0
5032,note_on,7,0,5,,,,,,,,,4,,,72,53
5033,note_on,1,0,5,,,,,,,,,4,,,70,0
5040,note_on,7,0,5,,,,,,,,,4,,,72,0
5040,note_on,0,0,5,,,,,,,,,4,,,70,80
5040,note_on,0,0,5,,,,,,,,,4,,,56,56
5040,note_on,0,0,5,,,,,,,,,4,,,51,67
5040,note_on,0,0,5,,,,,,,,,4,,,48,74
5100,note_on,60,0,5,,,,,,,,,4,,,70,0
5100,note_on,0,0,5,,,,,,,,,4,,,68,73
5160,note_on,0,0,5,,,,,,,,,4,,,53,64
5160,note_on,0,0,5,,,,,,,,,4,,,58,39
5160,note_on,0,0,5,,,,,,,,,4,,,50,46
5160,note_on,0,0,5,,,,,,,,,4,,,48,0
5160,note_on,60,0,5,,,,,,,,,4,,,56,0
5160,note_on,0,0,5,,,,,,,,,4,,,51,0
5190,note_on,0,0,5,,,,,,,,,4,,,77,67
5190,note_on,30,0,5,,,,,,,,,4,,,68,0
5220,note_on,30,0,5,,,,,,,,,4,,,77,0
5220,note_on,0,0,5,,,,,,,,,4,,,74,84
5250,note_on,0,0,5,,,,,,,,,4,,,68,71
5250,note_on,30,0,5,,,,,,,,,4,,,74,0
5280,note_on,0,0,5,,,,,,,,,4,,,58,0
5280,note_on,30,0,5,,,,,,,,,4,,,68,0
5280,note_on,0,0,5,,,,,,,,,4,,,67,65
5280,note_on,0,0,5,,,,,,,,,4,,,53,0
5280,note_on,0,0,5,,,,,,,,,4,,,58,50
5280,note_on,0,0,5,,,,,,,,,4,,,51,67
5280,note_on,0,0,5,,,,,,,,,4,,,55,76
5280,note_on,0,0,5,,,,,,,,,4,,,50,0
5310,note_on,0,0,5,,,,,,,,,4,,,75,57
5310,note_on,30,0,5,,,,,,,,,4,,,67,0
5340,note_on,0,0,5,,,,,,,,,4,,,70,73
5340,note_on,30,0,5,,,,,,,,,4,,,75,0
5370,note_on,30,0,5,,,,,,,,,4,,,70,0
5370,note_on,0,0,5,,,,,,,,,4,,,67,72
5400,note_on,0,0,5,,,,,,,,,4,,,58,0
5400,note_on,0,0,5,,,,,,,,,4,,,48,65
5400,note_on,0,0,5,,,,,,,,,4,,,65,84
5400,note_on,0,0,5,,,,,,,,,4,,,55,0
5400,note_on,30,0,5,,,,,,,,,4,,,67,0
5400,note_on,0,0,5,,,,,,,,,4,,,44,65
5400,note_on,0,0,5,,,,,,,,,4,,,51,0
5430,note_on,0,0,5,,,,,,,,,4,,,72,57
5430,note_on,30,0,5,,,,,,,,,4,,,65,0
5445,note_on,0,0,5,,,,,,,,,4,,,70,68
5445,note_on,15,0,5,,,,,,,,,4,,,72,0
5460,note_on,0,0,5,,,,,,,,,4,,,53,72
5460,note_on,15,0,5,,,,,,,,,4,,,70,0
5460,note_on,0,0,5,,,,,,,,,4,,,48,0
5460,note_on,0,0,5,,,,,,,,,4,,,68,61
5475,note_on,0,0,5,,,,,,,,,4,,,67,65
5475,note_on,15,0,5,,,,,,,,,4,,,68,0
5490,note_on,15,0,5,,,,,,,,,4,,,67,0
5490,note_on,0,0,5,,,,,,,,,4,,,56,62
5490,note_on,0,0,5,,,,,,,,,4,,,68,77
5490,note_on,0,0,5,,,,,,,,,4,,,53,0
5505,note_on,0,0,5,,,,,,,,,4,,,65,61
5505,note_on,15,0,5,,,,,,,,,4,,,68,0
5520,note_on,0,0,5,,,,,,,,,4,,,56,0
5520,note_on,15,0,5,,,,,,,,,4,,,65,0
5520,note_on,0,0,5,,,,,,,,,4,,,44,0
5520,note_on,0,0,5,,,,,,,,,4,,,65,84
5520,note_on,0,0,5,,,,,,,,,4,,,55,56
5520,note_on,0,0,5,,,,,,,,,4,,,46,52
5580,note_on,60,0,5,,,,,,,,,4,,,65,0
5580,note_on,0,0,5,,,,,,,,,4,,,63,84
5640,note_on,60,0,5,,,,,,,,,4,,,63,0
5640,note_on,0,0,5,,,,,,,,,4,,,46,0
5640,note_on,0,0,5,,,,,,,,,4,,,55,0
5640,note_on,0,0,5,,,,,,,,,4,,,65,78
5640,note_on,0,0,5,,,,,,,,,4,,,56,62
5640,note_on,0,0,5,,,,,,,,,4,,,46,68
5655,note_on,15,0,5,,,,,,,,,4,,,65,0
5655,note_on,0,0,5,,,,,,,,,4,,,63,78
5670,note_on,0,0,5,,,,,,,,,4,,,62,80
5670,note_on,15,0,5,,,,,,,,,4,,,63,0
5685,note_on,15,0,5,,,,,,,,,4,,,62,0
5685,note_on,0,0,5,,,,,,,,,4,,,63,80
5700,note_on,15,0,5,,,,,,,,,4,,,63,0
5700,note_on,0,0,5,,,,,,,,,4,,,67,74
5730,note_on,0,0,5,,,,,,,,,4,,,65,89
5730,note_on,30,0,5,,,,,,,,,4,,,67,0
5760,note_on,1260,0,6,,,,,,,,,5,,,63,86
5760,note_on,1258,0,10,,,,,,,,,10,,,39,98
5760,note_on,1260,0,4,,,,,,,,,3,,,63,84
5760,note_on,0,0,5,,,,,,,,,4,,,55,78
5760,note_on,0,0,5,,,,,,,,,4,,,58,84
5760,note_on,1260,0,8,,,,,,,,,7,,,63,95
5760,note_on,0,0,7,,,,,,,,,6,,,55,90
5760,note_on,1256,0,7,,,,,,,,,6,,,63,95
5760,note_on,0,0,6,,,,,,,,,5,,,55,80
5760,note_on,30,0,5,,,,,,,,,4,,,65,0
5760,note_on,0,0,4,,,,,,,,,3,,,51,89
5760,note_on,0,0,5,,,,,,,,,4,,,63,84
5760,note_on,1260,0,9,,,,,,,,,8,,,51,98
5760,note_on,1260,0,3,,,,,,,,,2,,,55,81
5760,note_on,0,0,3,,,,,,,,,2,,,51,80
5760,note_on,0,0,5,,,,,,,,,4,,,56,0
5760,note_on,0,0,5,,,,,,,,,4,,,46,0
5820,note_on,0,0,5,,,,,,,,,4,,,58,0
5820,note_on,0,0,7,,,,,,,,,6,,,55,99
5820,note_on,0,0,7,,,,,,,,,6,,,63,0
5820,note_on,60,0,7,,,,,,,,,6,,,55,0
5820,note_on,60,0,6,,,,,,,,,5,,,55,0
5820,note_on,0,0,6,,,,,,,,,5,,,63,0
5820,note_on,0,0,6,,,,,,,,,5,,,58,94
5820,note_on,1320,0,1,,,,,,,,,0,,,70,89
5820,note_on,1318,0,2,,,,,,,,,1,,,67,66
5820,note_on,0,0,8,,,,,,,,,7,,,51,99
5820,note_on,60,0,8,,,,,,,,,7,,,63,0
5820,note_on,0,0,5,,,,,,,,,4,,,63,0
5820,note_on,0,0,2,,,,,,,,,1,,,63,73
5820,note_on,60,0,5,,,,,,,,,4,,,55,0
5850,note_on,30,0,7,,,,,,,,,6,,,55,0
5850,note_on,0,0,2,,,,,,,,,1,,,67,0
5850,note_on,30,0,2,,,,,,,,,1,,,63,0
5850,note_on,30,0,6,,,,,,,,,5,,,58,0
5850,note_on,30,0,1,,,,,,,,,0,,,70,0
5850,note_on,30,0,8,,,,,,,,,7,,,51,0
5880,note_on,0,0,4,,,,,,,,,3,,,63,0
5880,note_on,30,0,2,,,,,,,,,1,,,70,80
5880,note_on,30,0,7,,,,,,,,,6,,,58,90
5880,note_on,120,0,4,,,,,,,,,3,,,51,0
5880,note_on,0,0,2,,,,,,,,,1,,,67,73
5880,note_on,120,0,9,,,,,,,,,8,,,51,0
5880,note_on,30,0,1,,,,,,,,,0,,,75,86
5880,note_on,30,0,6,,,,,,,,,5,,,63,94
5880,note_on,120,0,10,,,,,,,,,10,,,39,0
5880,note_on,0,0,3,,,,,,,,,2,,,55,0
5880,note_on,120,0,3,,,,,,,,,2,,,51,0
5880,note_on,30,0,8,,,,,,,,,7,,,55,98
5910,note_on,30,0,7,,,,,,,,,6,,,58,0
5910,note_on,30,0,2,,,,,,,,,1,,,67,0
5910,note_on,30,0,1,,,,,,,,,0,,,75,0
5910,note_on,0,0,2,,,,,,,,,1,,,70,0
5910,note_on,30,0,6,,,,,,,,,5,,,63,0
5910,note_on,30,0,8,,,,,,,,,7,,,55,0
5940,note_on,30,0,6,,,,,,,,,5,,,67,93
5940,note_on,60,0,3,,,,,,,,,2,,,55,80
5940,note_on,30,0,2,,,,,,,,,1,,,75,89
5940,note_on,60,0,10,,,,,,,,,10,,,51,89
5940,note_on,0,0,3,,,,,,,,,2,,,51,81
5940,note_on,0,0,2,,,,,,,,,1,,,70,86
5940,note_on,30,0,1,,,,,,,,,0,,,79,94
5940,note_on,30,0,7,,,,,,,,,6,,,63,95
5940,note_on,60,0,9,,,,,,,,,8,,,63,89
5940,note_on,60,0,4,,,,,,,,,3,,,63,89
5940,note_on,30,0,8,,,,,,,,,7,,,58,95
5970,note_on,30,0,7,,,,,,,,,6,,,63,0
5970,note_on,30,0,2,,,,,,,,,1,,,70,0
5970,note_on,30,0,6,,,,,,,,,5,,,67,0
5970,note_on,30,0,9,,,,,,,,,8,,,63,0
5970,note_on,30,0,3,,,,,,,,,2,,,51,0
5970,note_on,0,0,2,,,,,,,,,1,,,75,0
5970,note_on,30,0,1,,,,,,,,,0,,,79,0
5970,note_on,30,0,8,,,,,,,,,7,,,58,0
5970,note_on,30,0,10,,,,,,,,,10,,,51,0
5970,note_on,30,0,4,,,,,,,,,3,,,63,0
5970,note_on,0,0,3,,,,,,,,,2,,,55,0
6000,note_on,30,0,8,,,,,,,,,7,,,63,90
6000,note_on,30,0,7,,,,,,,,,6,,,67,99
6000,note_on,30,0,6,,,,,,,,,5,,,70,95
6000,note_on,30,0,9,,,,,,,,,8,,,58,93
6000,note_on,0,0,3,,,,,,,,,2,,,55,82
6000,note_on,30,0,1,,,,,,,,,0,,,82,86
6000,note_on,30,0,3,,,,,,,,,2,,,58,84
6000,note_on,0,0,4,,,,,,,,,3,,,58,94
6000,note_on,0,0,2,,,,,,,,,1,,,75,84
6000,note_on,30,0,10,,,,,,,,,10,,,46,93
6000,note_on,30,0,4,,,,,,,,,3,,,70,81
6000,note_on,30,0,2,,,,,,,,,1,,,79,69
6030,note_on,30,0,4,,,,,,,,,3,,,58,0
6030,note_on,30,0,3,,,,,,,,,2,,,55,0
6030,note_on,30,0,8,,,,,,,,,7,,,63,0
6030,note_on,0,0,3,,,,,,,,,2,,,58,0
6030,note_on,0,0,4,,,,,,,,,3,,,70,0
6030,note_on,30,0,6,,,,,,,,,5,,,70,0
6030,note_on,30,0,9,,,,,,,,,8,,,58,0
6030,note_on,30,0,1,,,,,,,,,0,,,82,0
6030,note_on,30,0,7,,,,,,,,,6,,,67,0
6030,note_on,30,0,10,,,,,,,,,10,,,46,0
6030,note_on,0,0,2,,,,,,,,,1,,,79,0
6030,note_on,30,0,2,,,,,,,,,1,,,75,0
6060,note_on,0,0,2,,,,,,,,,1,,,79,80
6060,note_on,30,0,2,,,,,,,,,1,,,82,84
6060,note_on,0,0,4,,,,,,,,,3,,,55,86
6060,note_on,30,0,9,,,,,,,,,8,,,55,99
6060,note_on,30,0,3,,,,,,,,,2,,,63,78
6060,note_on,30,0,10,,,,,,,,,10,,,43,99
6060,note_on,30,0,7,,,,,,,,,6,,,70,98
6060,note_on,30,0,1,,,,,,,,,0,,,87,82
6060,note_on,30,0,8,,,,,,,,,7,,,67,94
6060,note_on,30,0,6,,,,,,,,,5,,,75,101
6060,note_on,30,0,4,,,,,,,,,3,,,67,80
6060,note_on,0,0,3,,,,,,,,,2,,,58,94
6090,note_on,30,0,8,,,,,,,,,7,,,67,0
6090,note_on,30,0,1,,,,,,,,,0,,,87,0
6090,note_on,30,0,6,,,,,,,,,5,,,75,0
6090,note_on,0,0,3,,,,,,,,,2,,,63,0
6090,note_on,30,0,4,,,,,,,,,3,,,55,0
6090,note_on,0,0,4,,,,,,,,,3,,,67,0
6090,note_on,30,0,9,,,,,,,,,8,,,55,0
6090,note_on,30,0,3,,,,,,,,,2,,,58,0
6090,note_on,0,0,2,,,,,,,,,1,,,82,0
6090,note_on,30,0,2,,,,,,,,,1,,,79,0
6090,note_on,30,0,7,,,,,,,,,6,,,70,0
6090,note_on,30,0,10,,,,,,,,,10,,,43,0
6097,note_on,277,0,5,,,,,,,,,4,,,67,89
6105,note_on,8,0,5,,,,,,,,,4,,,67,0
6105,note_on,0,0,5,,,,,,,,,4,,,70,99
6112,note_on,7,0,5,,,,,,,,,4,,,75,105
6113,note_on,1,0,5,,,,,,,,,4,,,70,0
6120,note_on,30,0,10,,,,,,,,,10,,,39,98
6120,note_on,0,0,2,,,,,,,,,1,,,79,73
6120,note_on,30,0,2,,,,,,,,,1,,,82,85
6120,note_on,0,0,4,,,,,,,,,3,,,51,95
6120,note_on,30,0,4,,,,,,,,,3,,,63,85
6120,note_on,0,0,3,,,,,,,,,2,,,63,80
6120,note_on,30,0,3,,,,,,,,,2,,,67,74
6120,note_on,30,0,8,,,,,,,,,7,,,70,98
6120,note_on,30,0,7,,,,,,,,,6,,,75,101
6120,note_on,7,0,5,,,,,,,,,4,,,75,0
6120,note_on,0,0,5,,,,,,,,,4,,,79,104
6120,note_on,0,0,5,,,,,,,,,4,,,51,84
6120,note_on,30,0,1,,,,,,,,,0,,,91,89
6120,note_on,0,0,5,,,,,,,,,4,,,46,94
6120,note_on,30,0,6,,,,,,,,,5,,,79,99
6120,note_on,0,0,5,,,,,,,,,4,,,43,99
6120,note_on,0,0,5,,,,,,,,,4,,,39,85
6120,note_on,30,0,9,,,,,,,,,8,,,51,98
6150,note_on,30,0,4,,,,,,,,,3,,,51,0
6150,note_on,0,0,4,,,,,,,,,3,,,63,0
6150,note_on,30,0,8,,,,,,,,,7,,,70,0
6150,note_on,30,0,3,,,,,,,,,2,,,63,0
6150,note_on,0,0,2,,,,,,,,,1,,,82,0
6150,note_on,30,0,2,,,,,,,,,1,,,79,0
6150,note_on,0,0,3,,,,,,,,,2,,,67,0
6150,note_on,30,0,7,,,,,,,,,6,,,75,0
6150,note_on,30,0,9,,,,,,,,,8,,,51,0
6150,note_on,30,0,10,,,,,,,,,10,,,39,0
6150,note_on,30,0,1,,,,,,,,,0,,,91,0
6150,note_on,30,0,6,,,,,,,,,5,,,79,0
6180,note_on,0,0,5,,,,,,,,,4,,,51,76
6180,note_on,0,0,5,,,,,,,,,4,,,51,0
6180,note_on,0,0,5,,,,,,,,,4,,,43,0
6180,note_on,30,0,7,,,,,,,,,6,,,63,52
6180,note_on,30,0,8,,,,,,,,,7,,,67,57
6180,note_on,0,0,5,,,,,,,,,4,,,46,0
6180,note_on,30,0,6,,,,,,,,,5,,,70,65
6180,note_on,60,0,5,,,,,,,,,4,,,39,0
6210,note_on,30,0,5,,,,,,,,,4,,,51,0
6225,note_on,45,0,7,,,,,,,,,6,,,63,0
6225,note_on,45,0,8,,,,,,,,,7,,,67,0
6225,note_on,45,0,6,,,,,,,,,5,,,70,0
6240,note_on,0,0,5,,,,,,,,,4,,,55,81
6240,note_on,0,0,5,,,,,,,,,4,,,79,78
6240,note_on,30,0,5,,,,,,,,,4,,,79,0
6240,note_on,15,0,7,,,,,,,,,6,,,63,43
6240,note_on,15,0,6,,,,,,,,,5,,,70,60
6240,note_on,15,0,8,,,,,,,,,7,,,67,44
6270,note_on,30,0,5,,,,,,,,,4,,,55,0
6285,note_on,45,0,6,,,,,,,,,5,,,70,0
6285,note_on,45,0,8,,,,,,,,,7,,,67,0
6285,note_on,45,0,7,,,,,,,,,6,,,63,0
6300,note_on,15,0,8,,,,,,,,,7,,,67,52
6300,note_on,30,0,5,,,,,,,,,4,,,58,74
6300,note_on,15,0,6,,,,,,,,,5,,,70,60
6300,note_on,15,0,7,,,,,,,,,6,,,63,58
6330,note_on,30,0,5,,,,,,,,,4,,,58,0
6345,note_on,45,0,8,,,,,,,,,7,,,67,0
6345,note_on,45,0,7,,,,,,,,,6,,,63,0
6345,note_on,45,0,6,,,,,,,,,5,,,70,0
6360,note_on,15,0,7,,,,,,,,,6,,,63,61
6360,note_on,210,0,9,,,,,,,,,8,,,51,69
6360,note_on,15,0,8,,,,,,,,,7,,,67,59
6360,note_on,15,0,6,,,,,,,,,5,,,70,65
6360,note_on,0,0,5,,,,,,,,,4,,,63,76
6360,note_on,210,0,10,,,,,,,,,10,,,39,69
6360,note_on,30,0,5,,,,,,,,,4,,,79,0
6360,note_on,0,0,5,,,,,,,,,4,,,80,60
6375,note_on,0,0,5,,,,,,,,,4,,,79,67
6375,note_on,15,0,5,,,,,,,,,4,,,80,0
6390,note_on,15,0,5,,,,,,,,,4,,,79,0
6390,note_on,0,0,5,,,,,,,,,4,,,63,0
6390,note_on,0,0,5,,,,,,,,,4,,,77,62
6405,note_on,45,0,7,,,,,,,,,6,,,63,0
6405,note_on,15,0,5,,,,,,,,,4,,,77,0
6405,note_on,0,0,5,,,,,,,,,4,,,79,78
6405,note_on,45,0,8,,,,,,,,,7,,,67,0
6405,note_on,45,0,6,,,,,,,,,5,,,70,0
6420,note_on,0,0,5,,,,,,,,,4,,,67,71
6420,note_on,60,0,9,,,,,,,,,8,,,51,0
6420,note_on,15,0,7,,,,,,,,,6,,,63,62
6420,note_on,0,0,5,,,,,,,,,4,,,82,70
6420,note_on,15,0,5,,,,,,,,,4,,,79,0
6420,note_on,15,0,8,,,,,,,,,7,,,67,64
6420,note_on,60,0,10,,,,,,,,,10,,,39,0
6420,note_on,15,0,6,,,,,,,,,5,,,70,59
6450,note_on,30,0,5,,,,,,,,,4,,,67,0
6465,note_on,45,0,7,,,,,,,,,6,,,63,0
6465,note_on,45,0,8,,,,,,,,,7,,,67,0
6465,note_on,45,0,6,,,,,,,,,5,,,70,0
6465,note_on,0,0,5,,,,,,,,,4,,,80,76
6465,note_on,15,0,5,,,,,,,,,4,,,82,0
6480,note_on,15,0,5,,,,,,,,,4,,,80,0
6480,note_on,60,0,9,,,,,,,,,8,,,50,73
6480,note_on,60,0,10,,,,,,,,,10,,,38,73
6480,note_on,0,0,5,,,,,,,,,4,,,79,71
6540,note_on,75,0,7,,,,,,,,,6,,,65,47
6540,note_on,60,0,10,,,,,,,,,10,,,38,0
6540,note_on,0,0,5,,,,,,,,,4,,,77,81
6540,note_on,0,0,5,,,,,,,,,4,,,50,76
6540,note_on,75,0,6,,,,,,,,,5,,,71,65
6540,note_on,75,0,8,,,,,,,,,7,,,67,57
6540,note_on,60,0,9,,,,,,,,,8,,,50,0
6540,note_on,60,0,5,,,,,,,,,4,,,79,0
6570,note_on,30,0,5,,,,,,,,,4,,,50,0
6600,note_on,0,0,6,,,,,,,,,5,,,71,64
6600,note_on,60,0,6,,,,,,,,,5,,,71,0
6600,note_on,60,0,8,,,,,,,,,7,,,67,0
6600,note_on,30,0,5,,,,,,,,,4,,,55,80
6600,note_on,0,0,8,,,,,,,,,7,,,67,45
6600,note_on,60,0,7,,,,,,,,,6,,,65,0
6600,note_on,0,0,7,,,,,,,,,6,,,65,69
6630,note_on,0,0,5,,,,,,,,,4,,,77,0
6630,note_on,0,0,5,,,,,,,,,4,,,89,74
6630,note_on,30,0,5,,,,,,,,,4,,,55,0
6660,note_on,0,0,8,,,,,,,,,7,,,67,43
6660,note_on,60,0,7,,,,,,,,,6,,,65,0
6660,note_on,30,0,5,,,,,,,,,4,,,59,73
6660,note_on,0,0,6,,,,,,,,,5,,,71,64
6660,note_on,60,0,6,,,,,,,,,5,,,71,0
6660,note_on,60,0,8,,,,,,,,,7,,,67,0
6660,note_on,0,0,7,,,,,,,,,6,,,65,56
6690,note_on,0,0,5,,,,,,,,,4,,,86,95
6690,note_on,30,0,5,,,,,,,,,4,,,59,0
6690,note_on,0,0,5,,,,,,,,,4,,,89,0
6720,note_on,30,0,5,,,,,,,,,4,,,62,80
6720,note_on,60,0,8,,,,,,,,,7,,,67,0
6720,note_on,180,0,9,,,,,,,,,8,,,55,62
6720,note_on,0,0,7,,,,,,,,,6,,,65,64
6720,note_on,60,0,7,,,,,,,,,6,,,65,0
6720,note_on,60,0,6,,,,,,,,,5,,,71,0
6720,note_on,0,0,6,,,,,,,,,5,,,71,62
6720,note_on,0,0,8,,,,,,,,,7,,,67,44
6720,note_on,180,0,10,,,,,,,,,10,,,43,62
6750,note_on,0,0,5,,,,,,,,,4,,,83,86
6750,note_on,0,0,5,,,,,,,,,4,,,86,0
6750,note_on,30,0,5,,,,,,,,,4,,,62,0
6780,note_on,30,0,5,,,,,,,,,4,,,55,80
6780,note_on,60,0,8,,,,,,,,,7,,,67,0
6780,note_on,0,0,8,,,,,,,,,7,,,67,45
6780,note_on,60,0,10,,,,,,,,,10,,,43,0
6780,note_on,0,0,6,,,,,,,,,5,,,71,71
6780,note_on,60,0,6,,,,,,,,,5,,,71,0
6780,note_on,60,0,7,,,,,,,,,6,,,65,0
6780,note_on,0,0,7,,,,,,,,,6,,,65,66
6780,note_on,60,0,9,,,,,,,,,8,,,55,0
6810,note_on,30,0,5,,,,,,,,,4,,,55,0
6810,note_on,0,0,5,,,,,,,,,4,,,83,0
6810,note_on,0,0,5,,,,,,,,,4,,,77,84
6840,note_on,60,0,10,,,,,,,,,10,,,36,53
6840,note_on,60,0,6,,,,,,,,,5,,,71,0
6840,note_on,30,0,5,,,,,,,,,4,,,77,0
6840,note_on,60,0,7,,,,,,,,,6,,,65,0
6840,note_on,0,0,5,,,,,,,,,4,,,74,80
6840,note_on,60,0,9,,,,,,,,,8,,,48,53
6840,note_on,60,0,8,,,,,,,,,7,,,67,0
6900,note_on,0,0,5,,,,,,,,,4,,,48,80
6900,note_on,60,0,7,,,,,,,,,6,,,63,48
6900,note_on,60,0,8,,,,,,,,,7,,,67,59
6900,note_on,60,0,6,,,,,,,,,5,,,72,60
6900,note_on,60,0,10,,,,,,,,,10,,,36,0
6900,note_on,60,0,5,,,,,,,,,4,,,74,0
6900,note_on,60,0,9,,,,,,,,,8,,,48,0
6900,note_on,0,0,5,,,,,,,,,4,,,75,86
6930,note_on,30,0,5,,,,,,,,,4,,,48,0
6960,note_on,0,0,6,,,,,,,,,5,,,72,63
6960,note_on,30,0,5,,,,,,,,,4,,,60,61
6960,note_on,60,0,7,,,,,,,,,6,,,63,0
6960,note_on,0,0,8,,,,,,,,,7,,,67,42
6960,note_on,60,0,8,,,,,,,,,7,,,67,0
6960,note_on,60,0,6,,,,,,,,,5,,,72,0
6960,note_on,0,0,7,,,,,,,,,6,,,63,66
6990,note_on,30,0,5,,,,,,,,,4,,,60,0
6990,note_on,0,0,5,,,,,,,,,4,,,77,73
6990,note_on,0,0,5,,,,,,,,,4,,,75,0
7020,note_on,30,0,5,,,,,,,,,4,,,77,0
7020,note_on,0,0,5,,,,,,,,,4,,,78,77
7020,note_on,60,0,6,,,,,,,,,5,,,72,0
7020,note_on,0,0,6,,,,,,,,,5,,,72,53
7020,note_on,0,0,5,,,,,,,,,4,,,58,80
7020,note_on,0,0,7,,,,,,,,,6,,,63,51
7020,note_on,0,0,8,,,,,,,,,7,,,67,43
7020,note_on,60,0,8,,,,,,,,,7,,,67,0
7020,note_on,60,0,7,,,,,,,,,6,,,63,0
7050,note_on,0,0,5,,,,,,,,,4,,,79,81
7050,note_on,0,0,5,,,,,,,,,4,,,78,0
7050,note_on,30,0,5,,,,,,,,,4,,,58,0
7080,note_on,0,0,6,,,,,,,,,5,,,72,61
7080,note_on,60,0,7,,,,,,,,,6,,,63,0
7080,note_on,0,0,7,,,,,,,,,6,,,63,46
7080,note_on,0,0,5,,,,,,,,,4,,,78,73
7080,note_on,30,0,5,,,,,,,,,4,,,79,0
7080,note_on,180,0,9,,,,,,,,,8,,,53,72
7080,note_on,60,0,6,,,,,,,,,5,,,72,0
7080,note_on,0,0,5,,,,,,,,,4,,,57,86
7080,note_on,60,0,8,,,,,,,,,7,,,67,0
7080,note_on,0,0,8,,,,,,,,,7,,,69,49
7080,note_on,180,0,10,,,,,,,,,10,,,41,72
7095,note_on,0,0,5,,,,,,,,,4,,,79,77
7095,note_on,15,0,5,,,,,,,,,4,,,78,0
7110,note_on,15,0,5,,,,,,,,,4,,,79,0
7110,note_on,0,0,5,,,,,,,,,4,,,57,0
7110,note_on,0,0,5,,,,,,,,,4,,,81,74
7125,note_on,0,0,5,,,,,,,,,4,,,79,78
7125,note_on,15,0,5,,,,,,,,,4,,,81,0
7140,note_on,15,0,5,,,,,,,,,4,,,79,0
7140,note_on,60,0,7,,,,,,,,,6,,,63,0
7140,note_on,0,0,7,,,,,,,,,6,,,63,57
7140,note_on,60,0,8,,,,,,,,,7,,,69,0
7140,note_on,60,0,6,,,,,,,,,5,,,72,0
7140,note_on,0,0,8,,,,,,,,,7,,,69,45
7140,note_on,0,0,5,,,,,,,,,4,,,53,71
7140,note_on,0,0,6,,,,,,,,,5,,,72,60
7140,note_on,0,0,5,,,,,,,,,4,,,77,73
7140,note_on,60,0,9,,,,,,,,,8,,,53,0
7140,note_on,60,0,10,,,,,,,,,10,,,41,0
7155,note_on,15,0,5,,,,,,,,,4,,,77,0
7155,note_on,0,0,5,,,,,,,,,4,,,75,81
7170,note_on,0,0,5,,,,,,,,,4,,,74,80
7170,note_on,0,0,5,,,,,,,,,4,,,53,0
7170,note_on,15,0,5,,,,,,,,,4,,,75,0
7185,note_on,15,0,5,,,,,,,,,4,,,74,0
7185,note_on,0,0,5,,,,,,,,,4,,,72,77
7200,note_on,0,0,5,,,,,,,,,4,,,73,71
7200,note_on,60,0,10,,,,,,,,,10,,,46,64
7200,note_on,60,0,9,,,,,,,,,8,,,58,64
7200,note_on,60,0,7,,,,,,,,,6,,,63,0
7200,note_on,15,0,5,,,,,,,,,4,,,72,0
7200,note_on,60,0,8,,,,,,,,,7,,,69,0
7200,note_on,60,0,6,,,,,,,,,5,,,72,0
7260,note_on,60,0,10,,,,,,,,,10,,,46,0
7260,note_on,60,0,7,,,,,,,,,6,,,62,45
7260,note_on,60,0,9,,,,,,,,,8,,,58,0
7260,note_on,60,0,5,,,,,,,,,4,,,73,0
7260,note_on,60,0,6,,,,,,,,,5,,,70,52
7260,note_on,60,0,8,,,,,,,,,7,,,65,45
7260,note_on,0,0,5,,,,,,,,,4,,,46,86
7260,note_on,0,0,5,,,,,,,,,4,,,74,82
7290,note_on,30,0,5,,,,,,,,,4,,,46,0
7320,note_on,0,0,6,,,,,,,,,5,,,70,60
7320,note_on,60,0,6,,,,,,,,,5,,,70,0
7320,note_on,0,0,5,,,,,,,,,4,,,50,89
7320,note_on,0,0,5,,,,,,,,,4,,,74,43
7320,note_on,0,0,7,,,,,,,,,6,,,62,49
7320,note_on,60,0,7,,,,,,,,,6,,,62,0
7320,note_on,30,0,5,,,,,,,,,4,,,74,0
7320,note_on,60,0,8,,,,,,,,,7,,,65,0
7320,note_on,0,0,8,,,,,,,,,7,,,65,50
7335,note_on,15,0,5,,,,,,,,,4,,,74,0
7335,note_on,0,0,5,,,,,,,,,4,,,70,71
7350,note_on,15,0,5,,,,,,,,,4,,,70,0
7350,note_on,0,0,5,,,,,,,,,4,,,50,0
7350,note_on,0,0,5,,,,,,,,,4,,,72,76
7365,note_on,0,0,5,,,,,,,,,4,,,74,65
7365,note_on,15,0,5,,,,,,,,,4,,,72,0
7380,note_on,0,0,5,,,,,,,,,4,,,53,85
7380,note_on,60,0,7,,,,,,,,,6,,,62,0
7380,note_on,0,0,7,,,,,,,,,6,,,62,59
7380,note_on,0,0,6,,,,,,,,,5,,,70,43
7380,note_on,60,0,8,,,,,,,,,7,,,65,0
7380,note_on,0,0,5,,,,,,,,,4,,,75,74
7380,note_on,60,0,6,,,,,,,,,5,,,70,0
7380,note_on,0,0,8,,,,,,,,,7,,,65,45
7380,note_on,15,0,5,,,,,,,,,4,,,74,0
7395,note_on,15,0,5,,,,,,,,,4,,,75,0
7395,note_on,0,0,5,,,,,,,,,4,,,77,44
7410,note_on,15,0,5,,,,,,,,,4,,,77,0
7410,note_on,0,0,5,,,,,,,,,4,,,53,0
7410,note_on,0,0,5,,,,,,,,,4,,,79,71
7425,note_on,15,0,5,,,,,,,,,4,,,79,0
7425,note_on,0,0,5,,,,,,,,,4,,,81,44
7440,note_on,0,0,5,,,,,,,,,4,,,82,72
7440,note_on,60,0,8,,,,,,,,,7,,,65,0
7440,note_on,0,0,5,,,,,,,,,4,,,58,78
7440,note_on,180,0,10,,,,,,,,,10,,,38,60
7440,note_on,60,0,6,,,,,,,,,5,,,70,0
7440,note_on,0,0,6,,,,,,,,,5,,,70,57
7440,note_on,15,0,5,,,,,,,,,4,,,81,0
7440,note_on,60,0,7,,,,,,,,,6,,,62,0
7440,note_on,0,0,7,,,,,,,,,6,,,62,58
7440,note_on,0,0,8,,,,,,,,,7,,,65,45
7440,note_on,180,0,9,,,,,,,,,8,,,50,60
7455,note_on,0,0,5,,,,,,,,,4,,,84,74
7455,note_on,15,0,5,,,,,,,,,4,,,82,0
7470,note_on,15,0,5,,,,,,,,,4,,,84,0
7470,note_on,0,0,5,,,,,,,,,4,,,58,0
7470,note_on,0,0,5,,,,,,,,,4,,,86,76
7485,note_on,15,0,5,,,,,,,,,4,,,86,0
7485,note_on,0,0,5,,,,,,,,,4,,,87,84
7500,note_on,0,0,8,,,,,,,,,7,,,65,43
7500,note_on,0,0,5,,,,,,,,,4,,,62,76
7500,note_on,0,0,5,,,,,,,,,4,,,89,76
7500,note_on,15,0,5,,,,,,,,,4,,,87,0
7500,note_on,0,0,7,,,,,,,,,6,,,62,56
7500,note_on,60,0,8,,,,,,,,,7,,,65,0
7500,note_on,60,0,9,,,,,,,,,8,,,50,0
7500,note_on,60,0,10,,,,,,,,,10,,,38,0
7500,note_on,0,0,6,,,,,,,,,5,,,70,43
7500,note_on,60,0,6,,,,,,,,,5,,,70,0
7500,note_on,60,0,7,,,,,,,,,6,,,62,0
7515,note_on,0,0,5,,,,,,,,,4,,,88,89
7515,note_on,15,0,5,,,,,,,,,4,,,89,0
7530,note_on,15,0,5,,,,,,,,,4,,,88,0
7530,note_on,0,0,5,,,,,,,,,4,,,62,0
7530,note_on,0,0,5,,,,,,,,,4,,,87,74
7537,note_on,7,0,5,,,,,,,,,4,,,84,73
7545,note_on,8,0,5,,,,,,,,,4,,,84,0
7545,note_on,0,0,5,,,,,,,,,4,,,86,76
7545,note_on,0,0,5,,,,,,,,,4,,,86,84
7545,note_on,0,0,5,,,,,,,,,4,,,87,0
7552,note_on,7,0,5,,,,,,,,,4,,,87,78
7553,note_on,1,0,5,,,,,,,,,4,,,86,0
7560,note_on,0,0,5,,,,,,,,,4,,,86,71
7560,note_on,60,0,9,,,,,,,,,8,,,51,70
7560,note_on,7,0,5,,,,,,,,,4,,,87,0
7560,note_on,60,0,8,,,,,,,,,7,,,65,0
7560,note_on,60,0,6,,,,,,,,,5,,,70,0
7560,note_on,60,0,10,,,,,,,,,10,,,39,70
7560,note_on,60,0,7,,,,,,,,,6,,,62,0
7560,note_on,0,0,5,,,,,,,,,4,,,86,0
7620,note_on,60,0,5,,,,,,,,,4,,,86,0
7620,note_on,0,0,5,,,,,,,,,4,,,84,81
7620,note_on,0,0,5,,,,,,,,,4,,,60,43
7620,note_on,60,0,7,,,,,,,,,6,,,60,63
7620,note_on,60,0,8,,,,,,,,,7,,,67,50
7620,note_on,60,0,6,,,,,,,,,5,,,70,62
7620,note_on,0,0,5,,,,,,,,,4,,,55,46
7620,note_on,0,0,5,,,,,,,,,4,,,51,57
7650,note_on,30,0,7,,,,,,,,,6,,,60,0
7680,note_on,60,0,6,,,,,,,,,5,,,70,0
7680,note_on,0,0,5,,,,,,,,,4,,,84,0
7680,note_on,120,0,10,,,,,,,,,10,,,39,0
7680,note_on,60,0,8,,,,,,,,,7,,,67,0
7680,note_on,0,0,8,,,,,,,,,7,,,67,57
7680,note_on,120,0,9,,,,,,,,,8,,,51,0
7680,note_on,30,0,7,,,,,,,,,6,,,60,54
7680,note_on,60,0,5,,,,,,,,,4,,,51,0
7680,note_on,0,0,5,,,,,,,,,4,,,84,45
7680,note_on,0,0,5,,,,,,,,,4,,,51,65
7680,note_on,0,0,5,,,,,,,,,4,,,55,57
7680,note_on,0,0,5,,,,,,,,,4,,,60,45
7680,note_on,0,0,6,,,,,,,,,5,,,70,46
7680,note_on,0,0,5,,,,,,,,,4,,,55,0
7680,note_on,0,0,5,,,,,,,,,4,,,60,0
7687,note_on,7,0,5,,,,,,,,,4,,,85,67
7688,note_on,1,0,5,,,,,,,,,4,,,84,0
7695,note_on,0,0,5,,,,,,,,,4,,,84,62
7695,note_on,7,0,5,,,,,,,,,4,,,85,0
7702,note_on,7,0,5,,,,,,,,,4,,,85,63
7703,note_on,1,0,5,,,,,,,,,4,,,84,0
7710,note_on,0,0,5,,,,,,,,,4,,,84,46
7710,note_on,7,0,5,,,,,,,,,4,,,85,0
7717,note_on,7,0,5,,,,,,,,,4,,,85,68
7718,note_on,1,0,5,,,,,,,,,4,,,84,0
7725,note_on,7,0,5,,,,,,,,,4,,,85,0
7725,note_on,0,0,5,,,,,,,,,4,,,84,52
7732,note_on,7,0,5,,,,,,,,,4,,,85,65
7733,note_on,1,0,5,,,,,,,,,4,,,84,0
7740,note_on,0,0,7,,,,,,,,,6,,,60,64
7740,note_on,0,0,8,,,,,,,,,7,,,67,55
7740,note_on,60,0,8,,,,,,,,,7,,,67,0
7740,note_on,60,0,6,,,,,,,,,5,,,70,0
7740,note_on,0,0,6,,,,,,,,,5,,,70,44
7740,note_on,0,0,5,,,,,,,,,4,,,51,64
7740,note_on,0,0,5,,,,,,,,,4,,,60,64
7740,note_on,0,0,5,,,,,,,,,4,,,84,46
7740,note_on,0,0,5,,,,,,,,,4,,,85,0
7740,note_on,0,0,5,,,,,,,,,4,,,55,0
7740,note_on,0,0,5,,,,,,,,,4,,,51,0
7740,note_on,7,0,5,,,,,,,,,4,,,60,0
7740,note_on,0,0,5,,,,,,,,,4,,,55,63
7740,note_on,60,0,7,,,,,,,,,6,,,60,0
7747,note_on,7,0,5,,,,,,,,,4,,,85,62
7748,note_on,1,0,5,,,,,,,,,4,,,84,0
7755,note_on,7,0,5,,,,,,,,,4,,,85,0
7755,note_on,0,0,5,,,,,,,,,4,,,84,58
7762,note_on,7,0,5,,,,,,,,,4,,,85,65
7763,note_on,1,0,5,,,,,,,,,4,,,84,0
7770,note_on,7,0,5,,,,,,,,,4,,,85,0
7770,note_on,0,0,5,,,,,,,,,4,,,84,60
7777,note_on,7,0,5,,,,,,,,,4,,,85,66
7778,note_on,1,0,5,,,,,,,,,4,,,84,0
7785,note_on,7,0,5,,,,,,,,,4,,,85,0
7785,note_on,0,0,5,,,,,,,,,4,,,84,59
7792,note_on,7,0,5,,,,,,,,,4,,,85,71
7793,note_on,1,0,5,,,,,,,,,4,,,84,0
7800,note_on,0,0,5,,,,,,,,,4,,,52,65
7800,note_on,60,0,6,,,,,,,,,5,,,70,0
7800,note_on,60,0,8,,,,,,,,,7,,,67,0
7800,note_on,0,0,5,,,,,,,,,4,,,58,43
7800,note_on,120,0,9,,,,,,,,,8,,,52,78
7800,note_on,0,0,8,,,,,,,,,7,,,67,51
7800,note_on,0,0,5,,,,,,,,,4,,,55,62
7800,note_on,60,0,7,,,,,,,,,6,,,60,0
7800,note_on,0,0,7,,,,,,,,,6,,,61,52
7800,note_on,0,0,5,,,,,,,,,4,,,85,0
7800,note_on,120,0,10,,,,,,,,,10,,,40,78
7800,note_on,0,0,6,,,,,,,,,5,,,70,46
7800,note_on,7,0,5,,,,,,,,,4,,,60,0
7800,note_on,0,0,5,,,,,,,,,4,,,85,61
7800,note_on,0,0,5,,,,,,,,,4,,,51,0
7800,note_on,0,0,5,,,,,,,,,4,,,55,0
7807,note_on,7,0,5,,,,,,,,,4,,,87,68
7808,note_on,1,0,5,,,,,,,,,4,,,85,0
7815,note_on,7,0,5,,,,,,,,,4,,,87,0
7815,note_on,0,0,5,,,,,,,,,4,,,85,69
7822,note_on,7,0,5,,,,,,,,,4,,,87,69
7823,note_on,1,0,5,,,,,,,,,4,,,85,0
7830,note_on,0,0,5,,,,,,,,,4,,,85,45
7830,note_on,7,0,5,,,,,,,,,4,,,87,0
7837,note_on,7,0,5,,,,,,,,,4,,,87,84
7838,note_on,1,0,5,,,,,,,,,4,,,85,0
7845,note_on,0,0,5,,,,,,,,,4,,,84,64
7845,note_on,7,0,5,,,,,,,,,4,,,87,0
7852,note_on,7,0,5,,,,,,,,,4,,,85,73
7853,note_on,1,0,5,,,,,,,,,4,,,84,0
7860,note_on,0,0,5,,,,,,,,,4,,,87,55
7860,note_on,0,0,5,,,,,,,,,4,,,61,46
7860,note_on,0,0,5,,,,,,,,,4,,,85,0
7860,note_on,0,0,5,,,,,,,,,4,,,52,0
7860,note_on,7,0,5,,,,,,,,,4,,,58,0
7860,note_on,60,0,10,,,,,,,,,10,,,40,0
7860,note_on,0,0,8,,,,,,,,,7,,,67,68
7860,note_on,0,0,6,,,,,,,,,5,,,70,56
7860,note_on,60,0,6,,,,,,,,,5,,,70,0
7860,note_on,0,0,5,,,,,,,,,4,,,55,73
7860,note_on,60,0,9,,,,,,,,,8,,,52,0
7860,note_on,0,0,7,,,,,,,,,6,,,61,68
7860,note_on,60,0,8,,,,,,,,,7,,,67,0
7860,note_on,60,0,7,,,,,,,,,6,,,61,0
7860,note_on,0,0,5,,,,,,,,,4,,,52,70
7860,note_on,0,0,5,,,,,,,,,4,,,55,0
7875,note_on,0,0,5,,,,,,,,,4,,,86,80
7875,note_on,15,0,5,,,,,,,,,4,,,87,0
7890,note_on,15,0,5,,,,,,,,,4,,,86,0
7890,note_on,0,0,5,,,,,,,,,4,,,84,77
7905,note_on,15,0,5,,,,,,,,,4,,,84,0
7905,note_on,0,0,5,,,,,,,,,4,,,82,77
7920,note_on,0,0,5,,,,,,,,,4,,,53,46
7920,note_on,60,0,9,,,,,,,,,8,,,53,62
7920,note_on,0,0,8,,,,,,,,,7,,,65,53
7920,note_on,60,0,8,,,,,,,,,7,,,67,0
7920,note_on,1770,0,4,,,,,,,,,3,,,65,43
7920,note_on,60,0,6,,,,,,,,,5,,,70,0
7920,note_on,0,0,6,,,,,,,,,5,,,69,45
7920,note_on,60,0,10,,,,,,,,,10,,,41,62
7920,note_on,60,0,7,,,,,,,,,6,,,61,0
7920,note_on,0,0,5,,,,,,,,,4,,,60,45
7920,note_on,0,0,5,,,,,,,,,4,,,82,64
7920,note_on,0,0,5,,,,,,,,,4,,,61,0
7920,note_on,0,0,5,,,,,,,,,4,,,55,0
7920,note_on,0,0,5,,,,,,,,,4,,,52,0
7920,note_on,15,0,5,,,,,,,,,4,,,82,0
7920,note_on,0,0,7,,,,,,,,,6,,,60,65
7930,note_on,0,0,5,,,,,,,,,4,,,84,67
7930,note_on,10,0,5,,,,,,,,,4,,,82,0
7940,note_on,0,0,5,,,,,,,,,4,,,82,64
7940,note_on,10,0,5,,,,,,,,,4,,,84,0
7950,note_on,10,0,5,,,,,,,,,4,,,82,0
7950,note_on,0,0,5,,,,,,,,,4,,,81,76
7980,note_on,60,0,8,,,,,,,,,7,,,65,0
7980,note_on,0,0,4,,,,,,,,,3,,,65,62
7980,note_on,0,0,5,,,,,,,,,4,,,79,58
7980,note_on,0,0,8,,,,,,,,,7,,,53,68
7980,note_on,30,0,5,,,,,,,,,4,,,81,0
7980,note_on,60,0,4,,,,,,,,,3,,,65,0
7990,note_on,0,0,5,,,,,,,,,4,,,81,69
7990,note_on,10,0,5,,,,,,,,,4,,,79,0
8000,note_on,0,0,5,,,,,,,,,4,,,79,72
8000,note_on,10,0,5,,,,,,,,,4,,,81,0
8010,note_on,0,0,5,,,,,,,,,4,,,77,84
8010,note_on,10,0,5,,,,,,,,,4,,,79,0
8025,note_on,45,0,4,,,,,,,,,3,,,65,0
8040,note_on,0,0,8,,,,,,,,,7,,,53,73
8040,note_on,0,0,5,,,,,,,,,4,,,77,78
8040,note_on,0,0,5,,,,,,,,,4,,,60,0
8040,note_on,0,0,5,,,,,,,,,4,,,53,0
8040,note_on,30,0,5,,,,,,,,,4,,,77,0
8040,note_on,120,0,10,,,,,,,,,10,,,41,0
8040,note_on,120,0,7,,,,,,,,,6,,,60,0
8040,note_on,120,0,9,,,,,,,,,8,,,53,0
8040,note_on,15,0,4,,,,,,,,,3,,,65,78
8040,note_on,120,0,6,,,,,,,,,5,,,69,0
8040,note_on,60,0,8,,,,,,,,,7,,,53,0
8085,note_on,45,0,8,,,,,,,,,7,,,53,0
8085,note_on,45,0,4,,,,,,,,,3,,,65,0
8100,note_on,60,0,9,,,,,,,,,8,,,62,72
8100,note_on,15,0,4,,,,,,,,,3,,,65,89
8100,note_on,15,0,8,,,,,,,,,7,,,53,84
8100,note_on,60,0,7,,,,,,,,,6,,,70,76
8100,note_on,1950,0,1,,,,,,,,,0,,,70,84
8100,note_on,60,0,5,,,,,,,,,4,,,77,0
8100,note_on,60,0,10,,,,,,,,,10,,,50,72
8100,note_on,1950,0,3,,,,,,,,,2,,,58,72
8100,note_on,1950,0,2,,,,,,,,,1,,,70,74
8100,note_on,60,0,6,,,,,,,,,5,,,70,76
8145,note_on,45,0,4,,,,,,,,,3,,,65,0
8145,note_on,45,0,8,,,,,,,,,7,,,53,0
8160,note_on,60,0,6,,,,,,,,,5,,,70,0
8160,note_on,60,0,3,,,,,,,,,2,,,58,0
8160,note_on,0,0,3,,,,,,,,,2,,,63,61
8160,note_on,0,0,3,,,,,,,,,2,,,57,95
8160,note_on,15,0,8,,,,,,,,,7,,,53,93
8160,note_on,60,0,2,,,,,,,,,1,,,70,0
8160,note_on,0,0,6,,,,,,,,,5,,,75,93
8160,note_on,60,0,9,,,,,,,,,8,,,62,0
8160,note_on,0,0,1,,,,,,,,,0,,,75,89
8160,note_on,0,0,7,,,,,,,,,6,,,69,94
8160,note_on,0,0,9,,,,,,,,,8,,,60,90
8160,note_on,0,0,2,,,,,,,,,1,,,75,71
8160,note_on,60,0,1,,,,,,,,,0,,,70,0
8160,note_on,60,0,10,,,,,,,,,10,,,50,0
8160,note_on,0,0,10,,,,,,,,,10,,,48,90
8160,note_on,15,0,4,,,,,,,,,3,,,65,93
8160,note_on,60,0,7,,,,,,,,,6,,,70,0
8160,note_on,0,0,2,,,,,,,,,1,,,69,85
8205,note_on,45,0,4,,,,,,,,,3,,,65,0
8205,note_on,45,0,8,,,,,,,,,7,,,53,0
8220,note_on,0,0,3,,,,,,,,,2,,,62,84
8220,note_on,15,0,8,,,,,,,,,7,,,53,95
8220,note_on,0,0,2,,,,,,,,,1,,,75,0
8220,note_on,0,0,2,,,,,,,,,1,,,79,73
8220,note_on,0,0,2,,,,,,,,,1,,,74,95
8220,note_on,0,0,7,,,,,,,,,6,,,74,104
8220,note_on,0,0,3,,,,,,,,,2,,,67,84
8220,note_on,60,0,6,,,,,,,,,5,,,75,0
8220,note_on,15,0,4,,,,,,,,,3,,,65,99
8220,note_on,0,0,10,,,,,,,,,10,,,46,93
8220,note_on,60,0,10,,,,,,,,,10,,,48,0
8220,note_on,60,0,1,,,,,,,,,0,,,75,0
8220,note_on,60,0,2,,,,,,,,,1,,,69,0
8220,note_on,0,0,1,,,,,,,,,0,,,79,62
8220,note_on,0,0,6,,,,,,,,,5,,,79,90
8220,note_on,60,0,7,,,,,,,,,6,,,69,0
8220,note_on,0,0,9,,,,,,,,,8,,,58,93
8220,note_on,60,0,3,,,,,,,,,2,,,57,0
8220,note_on,0,0,3,,,,,,,,,2,,,63,0
8220,note_on,60,0,9,,,,,,,,,8,,,60,0
8265,note_on,45,0,4,,,,,,,,,3,,,65,0
8265,note_on,45,0,8,,,,,,,,,7,,,53,0
8280,note_on,0,0,2,,,,,,,,,1,,,72,84
8280,note_on,0,0,6,,,,,,,,,5,,,77,99
8280,note_on,0,0,2,,,,,,,,,1,,,79,0
8280,note_on,60,0,2,,,,,,,,,1,,,74,0
8280,note_on,0,0,9,,,,,,,,,8,,,57,112
8280,note_on,60,0,9,,,,,,,,,8,,,58,0
8280,note_on,15,0,4,,,,,,,,,3,,,65,105
8280,note_on,0,0,2,,,,,,,,,1,,,77,84
8280,note_on,60,0,6,,,,,,,,,5,,,79,0
8280,note_on,60,0,3,,,,,,,,,2,,,62,0
8280,note_on,0,0,3,,,,,,,,,2,,,67,0
8280,note_on,0,0,3,,,,,,,,,2,,,65,95
8280,note_on,0,0,1,,,,,,,,,0,,,77,93
8280,note_on,15,0,8,,,,,,,,,7,,,53,101
8280,note_on,0,0,10,,,,,,,,,10,,,45,112
8280,note_on,60,0,10,,,,,,,,,10,,,46,0
8280,note_on,60,0,1,,,,,,,,,0,,,79,0
8280,note_on,0,0,3,,,,,,,,,2,,,60,99
8280,note_on,60,0,7,,,,,,,,,6,,,74,0
8280,note_on,0,0,7,,,,,,,,,6,,,72,99
8325,note_on,45,0,8,,,,,,,,,7,,,53,0
8325,note_on,45,0,4,,,,,,,,,3,,,65,0
8340,note_on,0,0,3,,,,,,,,,2,,,57,93
8340,note_on,60,0,2,,,,,,,,,1,,,72,0
8340,note_on,0,0,2,,,,,,,,,1,,,69,93
8340,note_on,0,0,7,,,,,,,,,6,,,69,84
8340,note_on,60,0,7,,,,,,,,,6,,,72,0
8340,note_on,60,0,9,,,,,,,,,8,,,57,0
8340,note_on,15,0,8,,,,,,,,,7,,,53,90
8340,note_on,60,0,10,,,,,,,,,10,,,45,0
8340,note_on,60,0,3,,,,,,,,,2,,,60,0
8340,note_on,15,0,4,,,,,,,,,3,,,65,86
8340,note_on,0,0,9,,,,,,,,,8,,,53,89
8340,note_on,0,0,10,,,,,,,,,10,,,41,89
8370,note_on,0,0,1,,,,,,,,,0,,,75,84
8370,note_on,90,0,1,,,,,,,,,0,,,77,0
8370,note_on,0,0,2,,,,,,,,,1,,,75,81
8370,note_on,0,0,6,,,,,,,,,5,,,75,86
8370,note_on,90,0,6,,,,,,,,,5,,,77,0
8370,note_on,30,0,2,,,,,,,,,1,,,77,0
8370,note_on,0,0,3,,,,,,,,,2,,,63,82
8370,note_on,30,0,3,,,,,,,,,2,,,65,0
8385,note_on,45,0,4,,,,,,,,,3,,,65,0
8385,note_on,45,0,8,,,,,,,,,7,,,53,0
8400,note_on,15,0,8,,,,,,,,,7,,,53,84
8400,note_on,0,0,7,,,,,,,,,6,,,70,80
8400,note_on,60,0,7,,,,,,,,,6,,,69,0
8400,note_on,0,0,6,,,,,,,,,5,,,74,86
8400,note_on,30,0,6,,,,,,,,,5,,,75,0
8400,note_on,15,0,4,,,,,,,,,3,,,65,86
8400,note_on,30,0,2,,,,,,,,,1,,,75,0
8400,note_on,60,0,10,,,,,,,,,10,,,41,0
8400,note_on,30,0,1,,,,,,,,,0,,,75,0
8400,note_on,0,0,1,,,,,,,,,0,,,74,84
8400,note_on,0,0,3,,,,,,,,,2,,,58,78
8400,note_on,0,0,3,,,,,,,,,2,,,62,84
8400,note_on,60,0,9,,,,,,,,,8,,,53,0
8400,note_on,0,0,2,,,,,,,,,1,,,69,0
8400,note_on,0,0,3,,,,,,,,,2,,,57,0
8400,note_on,30,0,3,,,,,,,,,2,,,63,0
8400,note_on,0,0,2,,,,,,,,,1,,,74,89
8400,note_on,0,0,10,,,,,,,,,10,,,46,84
8400,note_on,0,0,2,,,,,,,,,1,,,70,81
8400,note_on,0,0,9,,,,,,,,,8,,,58,84
8430,note_on,30,0,10,,,,,,,,,10,,,46,0
8430,note_on,30,0,9,,,,,,,,,8,,,58,0
8430,note_on,30,0,1,,,,,,,,,0,,,74,0
8430,note_on,0,0,3,,,,,,,,,2,,,62,0
8430,note_on,30,0,2,,,,,,,,,1,,,70,0
8430,note_on,0,0,2,,,,,,,,,1,,,74,0
8430,note_on,30,0,3,,,,,,,,,2,,,58,0
8430,note_on,30,0,7,,,,,,,,,6,,,70,0
8445,note_on,45,0,8,,,,,,,,,7,,,53,0
8445,note_on,45,0,4,,,,,,,,,3,,,65,0
8460,note_on,0,0,5,,,,,,,,,4,,,62,77
8460,note_on,360,0,5,,,,,,,,,4,,,70,78
8460,note_on,60,0,6,,,,,,,,,5,,,74,0
8490,note_on,0,0,5,,,,,,,,,4,,,65,84
8490,note_on,30,0,5,,,,,,,,,4,,,62,0
8520,note_on,30,0,5,,,,,,,,,4,,,65,0
8520,note_on,0,0,5,,,,,,,,,4,,,70,0
8520,note_on,0,0,5,,,,,,,,,4,,,75,81
8520,note_on,0,0,5,,,,,,,,,4,,,69,68
8520,note_on,0,0,5,,,,,,,,,4,,,60,73
8550,note_on,30,0,5,,,,,,,,,4,,,60,0
8550,note_on,0,0,5,,,,,,,,,4,,,63,67
8580,note_on,0,0,5,,,,,,,,,4,,,79,53
8580,note_on,0,0,5,,,,,,,,,4,,,67,50
8580,note_on,0,0,5,,,,,,,,,4,,,58,71
8580,note_on,30,0,5,,,,,,,,,4,,,63,0
8580,note_on,0,0,5,,,,,,,,,4,,,69,0
8580,note_on,0,0,5,,,,,,,,,4,,,75,0
8610,note_on,30,0,5,,,,,,,,,4,,,58,0
8610,note_on,0,0,5,,,,,,,,,4,,,62,69
8640,note_on,0,0,5,,,,,,,,,4,,,77,76
8640,note_on,0,0,5,,,,,,,,,4,,,67,0
8640,note_on,30,0,5,,,,,,,,,4,,,62,0
8640,note_on,0,0,5,,,,,,,,,4,,,79,0
8640,note_on,0,0,5,,,,,,,,,4,,,72,29
8640,note_on,0,0,5,,,,,,,,,4,,,57,84
8670,note_on,30,0,5,,,,,,,,,4,,,57,0
8670,note_on,0,0,5,,,,,,,,,4,,,60,81
8700,note_on,30,0,5,,,,,,,,,4,,,60,0
8700,note_on,0,0,5,,,,,,,,,4,,,53,76
8730,note_on,30,0,5,,,,,,,,,4,,,53,0
8730,note_on,0,0,5,,,,,,,,,4,,,57,94
8730,note_on,0,0,5,,,,,,,,,4,,,77,0
8745,note_on,15,0,5,,,,,,,,,4,,,75,85
8760,note_on,15,0,5,,,,,,,,,4,,,75,0
8760,note_on,0,0,5,,,,,,,,,4,,,58,78
8760,note_on,0,0,5,,,,,,,,,4,,,65,80
8760,note_on,0,0,5,,,,,,,,,4,,,74,76
8760,note_on,0,0,5,,,,,,,,,4,,,57,0
8760,note_on,0,0,5,,,,,,,,,4,,,72,0
8820,note_on,60,0,5,,,,,,,,,4,,,58,0
8820,note_on,360,0,6,,,,,,,,,5,,,72,68
8820,note_on,390,0,2,,,,,,,,,1,,,72,59
8820,note_on,375,0,8,,,,,,,,,7,,,67,64
8820,note_on,0,0,5,,,,,,,,,4,,,65,0
8820,note_on,0,0,5,,,,,,,,,4,,,74,0
8820,note_on,390,0,3,,,,,,,,,2,,,67,68
8820,note_on,390,0,1,,,,,,,,,0,,,84,65
8820,note_on,0,0,3,,,,,,,,,2,,,55,73
8820,note_on,375,0,4,,,,,,,,,3,,,67,62
8820,note_on,0,0,4,,,,,,,,,3,,,55,52
8820,note_on,390,0,9,,,,,,,,,8,,,63,66
8820,note_on,390,0,7,,,,,,,,,6,,,60,68
8820,note_on,390,0,10,,,,,,,,,10,,,51,66
8865,note_on,0,0,4,,,,,,,,,3,,,67,0
8865,note_on,45,0,4,,,,,,,,,3,,,55,0
8880,note_on,0,0,8,,,,,,,,,7,,,65,82
8880,note_on,0,0,4,,,,,,,,,3,,,55,76
8880,note_on,60,0,10,,,,,,,,,10,,,51,0
8880,note_on,15,0,4,,,,,,,,,3,,,67,80
8880,note_on,0,0,3,,,,,,,,,2,,,59,85
8880,note_on,0,0,3,,,,,,,,,2,,,65,81
8880,note_on,0,0,3,,,,,,,,,2,,,67,0
8880,note_on,60,0,3,,,,,,,,,2,,,55,0
8880,note_on,60,0,8,,,,,,,,,7,,,67,0
8880,note_on,0,0,10,,,,,,,,,10,,,50,81
8880,note_on,0,0,6,,,,,,,,,5,,,77,84
8880,note_on,0,0,9,,,,,,,,,8,,,62,81
8880,note_on,60,0,2,,,,,,,,,1,,,72,0
8880,note_on,0,0,2,,,,,,,,,1,,,77,62
8880,note_on,0,0,2,,,,,,,,,1,,,71,73
8880,note_on,0,0,1,,,,,,,,,0,,,83,77
8880,note_on,60,0,9,,,,,,,,,8,,,63,0
8880,note_on,60,0,1,,,,,,,,,0,,,84,0
8880,note_on,0,0,7,,,,,,,,,6,,,65,65
8880,note_on,60,0,6,,,,,,,,,5,,,72,0
8880,note_on,60,0,7,,,,,,,,,6,,,60,0
8925,note_on,45,0,4,,,,,,,,,3,,,55,0
8925,note_on,0,0,4,,,,,,,,,3,,,67,0
8940,note_on,0,0,1,,,,,,,,,0,,,80,86
8940,note_on,0,0,4,,,,,,,,,3,,,55,89
8940,note_on,60,0,8,,,,,,,,,7,,,65,0
8940,note_on,60,0,1,,,,,,,,,0,,,83,0
8940,note_on,60,0,7,,,,,,,,,6,,,65,0
8940,note_on,0,0,9,,,,,,,,,8,,,60,94
8940,note_on,0,0,7,,,,,,,,,6,,,68,84
8940,note_on,0,0,10,,,,,,,,,10,,,48,94
8940,note_on,60,0,10,,,,,,,,,10,,,50,0
8940,note_on,0,0,8,,,,,,,,,7,,,63,89
8940,note_on,15,0,4,,,,,,,,,3,,,67,77
8940,note_on,0,0,2,,,,,,,,,1,,,75,80
8940,note_on,0,0,3,,,,,,,,,2,,,60,89
8940,note_on,0,0,2,,,,,,,,,1,,,80,76
8940,note_on,0,0,2,,,,,,,,,1,,,77,0
8940,note_on,60,0,3,,,,,,,,,2,,,59,0
8940,note_on,0,0,6,,,,,,,,,5,,,80,89
8940,note_on,0,0,3,,,,,,,,,2,,,63,94
8940,note_on,60,0,2,,,,,,,,,1,,,71,0
8940,note_on,60,0,6,,,,,,,,,5,,,77,0
8940,note_on,60,0,9,,,,,,,,,8,,,62,0
8940,note_on,0,0,3,,,,,,,,,2,,,65,0
8985,note_on,45,0,4,,,,,,,,,3,,,55,0
8985,note_on,0,0,4,,,,,,,,,3,,,67,0
9000,note_on,0,0,4,,,,,,,,,3,,,55,94
9000,note_on,0,0,2,,,,,,,,,1,,,74,70
9000,note_on,60,0,2,,,,,,,,,1,,,75,0
9000,note_on,0,0,7,,,,,,,,,6,,,67,86
9000,note_on,0,0,3,,,,,,,,,2,,,59,99
9000,note_on,0,0,2,,,,,,,,,1,,,79,74
9000,note_on,60,0,6,,,,,,,,,5,,,80,0
9000,note_on,0,0,2,,,,,,,,,1,,,80,0
9000,note_on,15,0,4,,,,,,,,,3,,,67,94
9000,note_on,0,0,3,,,,,,,,,2,,,62,86
9000,note_on,0,0,3,,,,,,,,,2,,,63,0
9000,note_on,60,0,10,,,,,,,,,10,,,48,0
9000,note_on,0,0,6,,,,,,,,,5,,,79,89
9000,note_on,60,0,8,,,,,,,,,7,,,63,0
9000,note_on,60,0,3,,,,,,,,,2,,,60,0
9000,note_on,0,0,10,,,,,,,,,10,,,47,104
9000,note_on,0,0,8,,,,,,,,,7,,,62,95
9000,note_on,0,0,9,,,,,,,,,8,,,59,104
9000,note_on,60,0,9,,,,,,,,,8,,,60,0
9000,note_on,60,0,1,,,,,,,,,0,,,80,0
9000,note_on,0,0,1,,,,,,,,,0,,,79,77
9000,note_on,60,0,7,,,,,,,,,6,,,68,0
9060,note_on,60,0,10,,,,,,,,,10,,,47,0
9060,note_on,60,0,8,,,,,,,,,7,,,62,0
9060,note_on,0,0,10,,,,,,,,,10,,,43,84
9060,note_on,60,0,2,,,,,,,,,1,,,74,0
9060,note_on,0,0,2,,,,,,,,,1,,,71,69
9060,note_on,0,0,3,,,,,,,,,2,,,59,66
9060,note_on,60,0,9,,,,,,,,,8,,,59,0
9060,note_on,0,0,4,,,,,,,,,3,,,67,72
9060,note_on,0,0,3,,,,,,,,,2,,,55,80
9060,note_on,0,0,8,,,,,,,,,7,,,59,82
9060,note_on,0,0,9,,,,,,,,,8,,,55,84
9060,note_on,60,0,4,,,,,,,,,3,,,55,0
9060,note_on,0,0,4,,,,,,,,,3,,,55,76
9060,note_on,60,0,3,,,,,,,,,2,,,59,0
9060,note_on,0,0,3,,,,,,,,,2,,,62,0
9060,note_on,0,0,4,,,,,,,,,3,,,67,0
9090,note_on,0,0,2,,,,,,,,,1,,,77,71
9090,note_on,30,0,2,,,,,,,,,1,,,79,0
9090,note_on,0,0,7,,,,,,,,,6,,,65,81
9090,note_on,0,0,6,,,,,,,,,5,,,77,81
9090,note_on,90,0,6,,,,,,,,,5,,,79,0
9090,note_on,90,0,1,,,,,,,,,0,,,79,0
9090,note_on,0,0,1,,,,,,,,,0,,,89,58
9090,note_on,90,0,7,,,,,,,,,6,,,67,0
9120,note_on,30,0,7,,,,,,,,,6,,,65,0
9120,note_on,0,0,9,,,,,,,,,8,,,60,89
9120,note_on,0,0,7,,,,,,,,,6,,,63,73
9120,note_on,60,0,8,,,,,,,,,7,,,59,0
9120,note_on,0,0,8,,,,,,,,,7,,,60,68
9120,note_on,30,0,1,,,,,,,,,0,,,89,0
9120,note_on,0,0,2,,,,,,,,,1,,,75,81
9120,note_on,0,0,2,,,,,,,,,1,,,72,62
9120,note_on,60,0,9,,,,,,,,,8,,,55,0
9120,note_on,0,0,1,,,,,,,,,0,,,87,65
9120,note_on,0,0,4,,,,,,,,,3,,,67,0
9120,note_on,60,0,3,,,,,,,,,2,,,55,0
9120,note_on,30,0,6,,,,,,,,,5,,,77,0
9120,note_on,0,0,6,,,,,,,,,5,,,75,89
9120,note_on,60,0,4,,,,,,,,,3,,,55,0
9120,note_on,0,0,4,,,,,,,,,3,,,55,61
9120,note_on,0,0,4,,,,,,,,,3,,,67,61
9120,note_on,0,0,2,,,,,,,,,1,,,71,0
9120,note_on,30,0,2,,,,,,,,,1,,,77,0
9120,note_on,0,0,10,,,,,,,,,10,,,48,89
9120,note_on,0,0,3,,,,,,,,,2,,,59,0
9120,note_on,0,0,3,,,,,,,,,2,,,60,73
9120,note_on,60,0,10,,,,,,,,,10,,,43,0
9150,note_on,30,0,8,,,,,,,,,7,,,60,0
9150,note_on,30,0,7,,,,,,,,,6,,,63,0
9150,note_on,30,0,2,,,,,,,,,1,,,72,0
9150,note_on,30,0,10,,,,,,,,,10,,,48,0
9150,note_on,30,0,9,,,,,,,,,8,,,60,0
9150,note_on,0,0,2,,,,,,,,,1,,,75,0
9150,note_on,30,0,1,,,,,,,,,0,,,87,0
9180,note_on,0,0,5,,,,,,,,,4,,,63,60
9180,note_on,0,0,4,,,,,,,,,3,,,67,0
9180,note_on,60,0,6,,,,,,,,,5,,,75,0
9180,note_on,30,0,10,,,,,,,,,10,,,51,65
9180,note_on,60,0,4,,,,,,,,,3,,,55,0
9180,note_on,360,0,5,,,,,,,,,4,,,72,72
9180,note_on,30,0,9,,,,,,,,,8,,,63,65
9180,note_on,60,0,3,,,,,,,,,2,,,60,0
9195,note_on,15,0,5,,,,,,,,,4,,,72,0
9195,note_on,0,0,5,,,,,,,,,4,,,74,86
9198,note_on,3,0,5,,,,,,,,,4,,,72,74
9199,note_on,1,0,5,,,,,,,,,4,,,74,0
9202,note_on,3,0,5,,,,,,,,,4,,,72,0
9202,note_on,0,0,5,,,,,,,,,4,,,71,86
9205,note_on,3,0,5,,,,,,,,,4,,,72,76
9206,note_on,1,0,5,,,,,,,,,4,,,71,0
9209,note_on,3,0,5,,,,,,,,,4,,,72,0
9209,note_on,0,0,5,,,,,,,,,4,,,74,89
9210,note_on,30,0,9,,,,,,,,,8,,,63,0
9210,note_on,30,0,6,,,,,,,,,5,,,72,33
9210,note_on,0,0,5,,,,,,,,,4,,,67,67
9210,note_on,60,0,8,,,,,,,,,7,,,63,58
9210,note_on,60,0,7,,,,,,,,,6,,,67,51
9210,note_on,30,0,10,,,,,,,,,10,,,51,0
9210,note_on,1,0,5,,,,,,,,,4,,,63,0
9224,note_on,14,0,5,,,,,,,,,4,,,74,0
9224,note_on,0,0,5,,,,,,,,,4,,,75,84
9239,note_on,15,0,5,,,,,,,,,4,,,75,0
9240,note_on,30,0,7,,,,,,,,,6,,,67,0
9240,note_on,1,0,5,,,,,,,,,4,,,67,0
9240,note_on,30,0,8,,,,,,,,,7,,,63,0
9240,note_on,30,0,6,,,,,,,,,5,,,72,0
9240,note_on,30,0,10,,,,,,,,,10,,,50,54
9240,note_on,0,0,5,,,,,,,,,4,,,62,76
9240,note_on,0,0,5,,,,,,,,,4,,,77,81
9240,note_on,30,0,9,,,,,,,,,8,,,62,54
9255,note_on,0,0,5,,,,,,,,,4,,,79,81
9255,note_on,15,0,5,,,,,,,,,4,,,77,0
9260,note_on,0,0,5,,,,,,,,,4,,,77,69
9260,note_on,5,0,5,,,,,,,,,4,,,79,0
9265,note_on,0,0,5,,,,,,,,,4,,,76,84
9265,note_on,5,0,5,,,,,,,,,4,,,77,0
9270,note_on,30,0,10,,,,,,,,,10,,,50,0
9270,note_on,30,0,9,,,,,,,,,8,,,62,0
9270,note_on,30,0,8,,,,,,,,,7,,,62,61
9270,note_on,0,0,5,,,,,,,,,4,,,62,0
9270,note_on,0,0,5,,,,,,,,,4,,,77,76
9270,note_on,0,0,5,,,,,,,,,4,,,65,80
9270,note_on,30,0,7,,,,,,,,,6,,,65,50
9270,note_on,30,0,6,,,,,,,,,5,,,71,70
9270,note_on,5,0,5,,,,,,,,,4,,,76,0
9275,note_on,5,0,5,,,,,,,,,4,,,77,0
9285,note_on,10,0,5,,,,,,,,,4,,,79,78
9300,note_on,0,0,5,,,,,,,,,4,,,60,62
9300,note_on,15,0,5,,,,,,,,,4,,,79,0
9300,note_on,0,0,5,,,,,,,,,4,,,65,0
9300,note_on,30,0,9,,,,,,,,,8,,,60,74
9300,note_on,30,0,8,,,,,,,,,7,,,62,0
9300,note_on,30,0,6,,,,,,,,,5,,,71,0
9300,note_on,30,0,7,,,,,,,,,6,,,65,0
9300,note_on,30,0,10,,,,,,,,,10,,,48,74
9300,note_on,0,0,5,,,,,,,,,4,,,80,77
9315,note_on,15,0,5,,,,,,,,,4,,,80,0
9330,note_on,30,0,6,,,,,,,,,5,,,68,68
9330,note_on,30,0,10,,,,,,,,,10,,,48,0
9330,note_on,30,0,8,,,,,,,,,7,,,60,70
9330,note_on,30,0,9,,,,,,,,,8,,,60,0
9330,note_on,15,0,5,,,,,,,,,4,,,60,0
9330,note_on,30,0,7,,,,,,,,,6,,,63,62
9330,note_on,0,0,5,,,,,,,,,4,,,80,84
9330,note_on,0,0,5,,,,,,,,,4,,,63,76
9345,note_on,15,0,5,,,,,,,,,4,,,80,0
9360,note_on,15,0,5,,,,,,,,,4,,,63,0
9360,note_on,30,0,10,,,,,,,,,10,,,47,62
9360,note_on,30,0,9,,,,,,,,,8,,,59,62
9360,note_on,30,0,7,,,,,,,,,6,,,63,0
9360,note_on,30,0,6,,,,,,,,,5,,,68,0
9360,note_on,30,0,8,,,,,,,,,7,,,60,0
9360,note_on,0,0,5,,,,,,,,,4,,,80,82
9360,note_on,0,0,5,,,,,,,,,4,,,59,81
9390,note_on,0,0,5,,,,,,,,,4,,,80,0
9390,note_on,0,0,5,,,,,,,,,4,,,79,84
9390,note_on,0,0,5,,,,,,,,,4,,,62,69
9390,note_on,30,0,5,,,,,,,,,4,,,59,0
9390,note_on,30,0,7,,,,,,,,,6,,,62,57
9390,note_on,30,0,8,,,,,,,,,7,,,59,78
9390,note_on,30,0,6,,,,,,,,,5,,,67,68
9390,note_on,30,0,9,,,,,,,,,8,,,59,0
9390,note_on,30,0,10,,,,,,,,,10,,,47,0
9405,note_on,15,0,5,,,,,,,,,4,,,79,0
9420,note_on,15,0,5,,,,,,,,,4,,,62,0
9420,note_on,0,0,5,,,,,,,,,4,,,55,77
9420,note_on,30,0,8,,,,,,,,,7,,,59,0
9420,note_on,30,0,9,,,,,,,,,8,,,55,76
9420,note_on,30,0,7,,,,,,,,,6,,,62,0
9420,note_on,30,0,6,,,,,,,,,5,,,67,0
9420,note_on,30,0,10,,,,,,,,,10,,,43,76
9450,note_on,30,0,8,,,,,,,,,7,,,59,73
9450,note_on,30,0,9,,,,,,,,,8,,,55,0
9450,note_on,30,0,7,,,,,,,,,6,,,62,55
9450,note_on,30,0,6,,,,,,,,,5,,,65,65
9450,note_on,30,0,10,,,,,,,,,10,,,43,0
9450,note_on,30,0,5,,,,,,,,,4,,,55,0
9450,note_on,0,0,5,,,,,,,,,4,,,59,80
9465,note_on,15,0,5,,,,,,,,,4,,,77,77
9480,note_on,30,0,6,,,,,,,,,5,,,65,0
9480,note_on,0,0,5,,,,,,,,,4,,,60,84
9480,note_on,30,0,8,,,,,,,,,7,,,59,0
9480,note_on,15,0,5,,,,,,,,,4,,,77,0
9480,note_on,0,0,5,,,,,,,,,4,,,59,0
9480,note_on,30,0,9,,,,,,,,,8,,,60,65
9480,note_on,0,0,5,,,,,,,,,4,,,77,80
9480,note_on,30,0,7,,,,,,,,,6,,,62,0
9480,note_on,30,0,10,,,,,,,,,10,,,48,65
9510,note_on,0,0,5,,,,,,,,,4,,,77,0
9510,note_on,30,0,7,,,,,,,,,6,,,60,65
9510,note_on,0,0,5,,,,,,,,,4,,,75,82
9510,note_on,30,0,5,,,,,,,,,4,,,60,0
9510,note_on,30,0,10,,,,,,,,,10,,,48,0
9510,note_on,30,0,6,,,,,,,,,5,,,63,53
9510,note_on,30,0,9,,,,,,,,,8,,,60,0
9510,note_on,30,0,8,,,,,,,,,7,,,55,67
9510,note_on,0,0,5,,,,,,,,,4,,,63,68
9525,note_on,15,0,5,,,,,,,,,4,,,75,0
9540,note_on,30,0,9,,,,,,,,,8,,,58,72
9540,note_on,30,0,8,,,,,,,,,7,,,55,0
9540,note_on,30,0,7,,,,,,,,,6,,,60,0
9540,note_on,15,0,5,,,,,,,,,4,,,63,0
9540,note_on,0,0,5,,,,,,,,,4,,,58,73
9540,note_on,30,0,10,,,,,,,,,10,,,46,72
9540,note_on,30,0,6,,,,,,,,,5,,,63,0
9570,note_on,30,0,6,,,,,,,,,5,,,67,41
9570,note_on,30,0,8,,,,,,,,,7,,,64,72
9570,note_on,30,0,5,,,,,,,,,4,,,58,0
9570,note_on,0,0,5,,,,,,,,,4,,,61,76
9570,note_on,30,0,9,,,,,,,,,8,,,58,0
9570,note_on,30,0,10,,,,,,,,,10,,,46,0
9570,note_on,0,0,6,,,,,,,,,5,,,58,51
9570,note_on,30,0,7,,,,,,,,,6,,,61,52
9585,note_on,15,0,5,,,,,,,,,4,,,79,82
9600,note_on,30,0,8,,,,,,,,,7,,,64,0
9600,note_on,30,0,6,,,,,,,,,5,,,58,0
9600,note_on,0,0,6,,,,,,,,,5,,,67,0
9600,note_on,0,0,5,,,,,,,,,4,,,61,0
9600,note_on,15,0,5,,,,,,,,,4,,,79,0
9600,note_on,0,0,5,,,,,,,,,4,,,57,94
9600,note_on,30,0,10,,,,,,,,,10,,,45,81
9600,note_on,30,0,7,,,,,,,,,6,,,61,0
9600,note_on,30,0,9,,,,,,,,,8,,,57,81
9600,note_on,0,0,5,,,,,,,,,4,,,79,80
9630,note_on,30,0,7,,,,,,,,,6,,,60,46
9630,note_on,30,0,6,,,,,,,,,5,,,65,64
9630,note_on,30,0,8,,,,,,,,,7,,,57,80
9630,note_on,30,0,9,,,,,,,,,8,,,57,0
9630,note_on,30,0,10,,,,,,,,,10,,,45,0
9630,note_on,30,0,5,,,,,,,,,4,,,57,0
9630,note_on,0,0,5,,,,,,,,,4,,,79,0
9630,note_on,0,0,5,,,,,,,,,4,,,77,80
9630,note_on,0,0,5,,,,,,,,,4,,,60,84
9645,note_on,15,0,5,,,,,,,,,4,,,77,0
9660,note_on,30,0,10,,,,,,,,,10,,,41,74
9660,note_on,15,0,5,,,,,,,,,4,,,60,0
9660,note_on,0,0,5,,,,,,,,,4,,,53,72
9660,note_on,30,0,6,,,,,,,,,5,,,65,0
9660,note_on,30,0,8,,,,,,,,,7,,,57,0
9660,note_on,30,0,9,,,,,,,,,8,,,53,74
9660,note_on,30,0,7,,,,,,,,,6,,,60,0
9690,note_on,30,0,5,,,,,,,,,4,,,53,0
9690,note_on,30,0,8,,,,,,,,,7,,,57,71
9690,note_on,30,0,9,,,,,,,,,8,,,53,0
9690,note_on,0,0,5,,,,,,,,,4,,,57,84
9690,note_on,30,0,6,,,,,,,,,5,,,63,67
9690,note_on,30,0,7,,,,,,,,,6,,,60,46
9690,note_on,30,0,10,,,,,,,,,10,,,41,0
9705,note_on,15,0,5,,,,,,,,,4,,,75,81
9720,note_on,30,0,7,,,,,,,,,6,,,60,0
9720,note_on,0,0,5,,,,,,,,,4,,,58,77
9720,note_on,0,0,5,,,,,,,,,4,,,75,82
9720,note_on,0,0,5,,,,,,,,,4,,,57,0
9720,note_on,30,0,8,,,,,,,,,7,,,57,0
9720,note_on,15,0,5,,,,,,,,,4,,,75,0
9720,note_on,30,0,10,,,,,,,,,10,,,46,73
9720,note_on,30,0,6,,,,,,,,,5,,,63,0
9720,note_on,30,0,9,,,,,,,,,8,,,58,73
9750,note_on,0,0,5,,,,,,,,,4,,,70,80
9750,note_on,0,0,5,,,,,,,,,4,,,74,93
9750,note_on,0,0,5,,,,,,,,,4,,,75,0
9750,note_on,30,0,10,,,,,,,,,10,,,46,0
9750,note_on,30,0,5,,,,,,,,,4,,,58,0
9750,note_on,30,0,7,,,,,,,,,6,,,58,54
9750,note_on,30,0,9,,,,,,,,,8,,,58,0
9750,note_on,30,0,8,,,,,,,,,7,,,53,69
9750,note_on,30,0,6,,,,,,,,,5,,,62,66
9765,note_on,15,0,5,,,,,,,,,4,,,74,0
9765,note_on,0,0,5,,,,,,,,,4,,,86,77
9780,note_on,30,0,8,,,,,,,,,7,,,53,0
9780,note_on,30,0,7,,,,,,,,,6,,,58,0
9780,note_on,30,0,10,,,,,,,,,10,,,45,82
9780,note_on,30,0,9,,,,,,,,,8,,,57,82
9780,note_on,0,0,5,,,,,,,,,4,,,57,93
9780,note_on,0,0,5,,,,,,,,,4,,,70,0
9780,note_on,30,0,6,,,,,,,,,5,,,62,0
9780,note_on,15,0,5,,,,,,,,,4,,,86,0
9810,note_on,30,0,10,,,,,,,,,10,,,45,0
9810,note_on,0,0,5,,,,,,,,,4,,,69,80
9810,note_on,30,0,5,,,,,,,,,4,,,57,0
9810,note_on,30,0,6,,,,,,,,,5,,,77,52
9810,note_on,30,0,7,,,,,,,,,6,,,65,48
9810,note_on,30,0,9,,,,,,,,,8,,,57,0
9810,note_on,30,0,8,,,,,,,,,7,,,60,40
9810,note_on,0,0,5,,,,,,,,,4,,,77,81
9825,note_on,0,0,5,,,,,,,,,4,,,89,69
9825,note_on,15,0,5,,,,,,,,,4,,,77,0
9840,note_on,15,0,5,,,,,,,,,4,,,89,0
9840,note_on,30,0,9,,,,,,,,,8,,,55,76
9840,note_on,0,0,5,,,,,,,,,4,,,69,0
9840,note_on,0,0,5,,,,,,,,,4,,,55,67
9840,note_on,30,0,7,,,,,,,,,6,,,65,0
9840,note_on,30,0,6,,,,,,,,,5,,,77,0
9840,note_on,30,0,8,,,,,,,,,7,,,60,0
9840,note_on,30,0,10,,,,,,,,,10,,,43,76
9840,note_on,0,0,5,,,,,,,,,4,,,89,84
9870,note_on,0,0,5,,,,,,,,,4,,,67,73
9870,note_on,30,0,5,,,,,,,,,4,,,55,0
9870,note_on,30,0,7,,,,,,,,,6,,,63,58
9870,note_on,30,0,10,,,,,,,,,10,,,43,0
9870,note_on,30,0,8,,,,,,,,,7,,,58,55
9870,note_on,30,0,6,,,,,,,,,5,,,75,64
9870,note_on,30,0,9,,,,,,,,,8,,,55,0
9885,note_on,15,0,5,,,,,,,,,4,,,89,0
9885,note_on,0,0,5,,,,,,,,,4,,,87,86
9900,note_on,30,0,8,,,,,,,,,7,,,58,0
9900,note_on,0,0,5,,,,,,,,,4,,,53,77
9900,note_on,30,0,6,,,,,,,,,5,,,75,0
9900,note_on,0,0,5,,,,,,,,,4,,,67,0
9900,note_on,15,0,5,,,,,,,,,4,,,87,0
9900,note_on,30,0,9,,,,,,,,,8,,,53,73
9900,note_on,30,0,7,,,,,,,,,6,,,63,0
9900,note_on,30,0,10,,,,,,,,,10,,,41,73
9900,note_on,0,0,5,,,,,,,,,4,,,87,89
9930,note_on,30,0,5,,,,,,,,,4,,,53,0
9930,note_on,30,0,6,,,,,,,,,5,,,74,55
9930,note_on,30,0,7,,,,,,,,,6,,,62,59
9930,note_on,0,0,5,,,,,,,,,4,,,65,65
9930,note_on,30,0,10,,,,,,,,,10,,,41,0
9930,note_on,30,0,8,,,,,,,,,7,,,57,81
9930,note_on,30,0,9,,,,,,,,,8,,,53,0
9945,note_on,15,0,5,,,,,,,,,4,,,87,0
9945,note_on,0,0,5,,,,,,,,,4,,,86,93
9960,note_on,30,0,10,,,,,,,,,10,,,39,62
9960,note_on,15,0,5,,,,,,,,,4,,,86,0
9960,note_on,0,0,5,,,,,,,,,4,,,65,0
9960,note_on,0,0,5,,,,,,,,,4,,,86,90
9960,note_on,0,0,5,,,,,,,,,4,,,51,89
9960,note_on,30,0,8,,,,,,,,,7,,,57,0
9960,note_on,30,0,9,,,,,,,,,8,,,51,62
9960,note_on,30,0,7,,,,,,,,,6,,,62,0
9960,note_on,30,0,6,,,,,,,,,5,,,74,0
9990,note_on,30,0,8,,,,,,,,,7,,,55,66
9990,note_on,30,0,9,,,,,,,,,8,,,51,0
9990,note_on,30,0,10,,,,,,,,,10,,,39,0
9990,note_on,30,0,7,,,,,,,,,6,,,60,46
9990,note_on,0,0,5,,,,,,,,,4,,,63,72
9990,note_on,30,0,5,,,,,,,,,4,,,51,0
9990,note_on,30,0,6,,,,,,,,,5,,,72,63
10005,note_on,0,0,5,,,,,,,,,4,,,84,86
10005,note_on,15,0,5,,,,,,,,,4,,,86,0
10020,note_on,30,0,9,,,,,,,,,8,,,50,76
10020,note_on,30,0,8,,,,,,,,,7,,,55,0
10020,note_on,15,0,5,,,,,,,,,4,,,84,0
10020,note_on,0,0,5,,,,,,,,,4,,,63,0
10020,note_on,0,0,5,,,,,,,,,4,,,84,94
10020,note_on,0,0,5,,,,,,,,,4,,,50,73
10020,note_on,30,0,10,,,,,,,,,10,,,38,76
10020,note_on,30,0,6,,,,,,,,,5,,,72,0
10020,note_on,30,0,7,,,,,,,,,6,,,60,0
10050,note_on,30,0,6,,,,,,,,,5,,,71,55
10050,note_on,30,0,7,,,,,,,,,6,,,59,62
10050,note_on,30,0,10,,,,,,,,,10,,,38,0
10050,note_on,30,0,9,,,,,,,,,8,,,50,0
10050,note_on,0,0,5,,,,,,,,,4,,,62,72
10050,note_on,30,0,5,,,,,,,,,4,,,50,0
10050,note_on,0,0,8,,,,,,,,,7,,,53,43
10050,note_on,30,0,8,,,,,,,,,7,,,56,45
10065,note_on,15,0,5,,,,,,,,,4,,,84,0
10065,note_on,0,0,5,,,,,,,,,4,,,83,94
10080,note_on,0,0,5,,,,,,,,,4,,,83,84
10080,note_on,30,0,7,,,,,,,,,6,,,59,0
10080,note_on,0,0,5,,,,,,,,,4,,,62,0
10080,note_on,0,0,8,,,,,,,,,7,,,56,0
10080,note_on,30,0,6,,,,,,,,,5,,,71,0
10080,note_on,30,0,9,,,,,,,,,8,,,51,68
10080,note_on,30,0,8,,,,,,,,,7,,,53,0
10080,note_on,15,0,5,,,,,,,,,4,,,83,0
10080,note_on,0,0,5,,,,,,,,,4,,,51,77
10080,note_on,30,0,10,,,,,,,,,10,,,39,68
10110,note_on,0,0,5,,,,,,,,,4,,,60,72
10110,note_on,30,0,5,,,,,,,,,4,,,51,0
10140,note_on,30,0,5,,,,,,,,,4,,,60,0
10140,note_on,0,0,5,,,,,,,,,4,,,83,0
10140,note_on,0,0,5,,,,,,,,,4,,,84,86
10140,note_on,0,0,5,,,,,,,,,4,,,55,86
10140,note_on,60,0,10,,,,,,,,,10,,,39,0
10140,note_on,60,0,8,,,,,,,,,7,,,55,71
10140,note_on,60,0,6,,,,,,,,,5,,,72,67
10140,note_on,60,0,9,,,,,,,,,8,,,51,0
10140,note_on,60,0,7,,,,,,,,,6,,,63,53
10170,note_on,30,0,5,,,,,,,,,4,,,55,0
10170,note_on,0,0,5,,,,,,,,,4,,,60,73
10200,note_on,60,0,8,,,,,,,,,7,,,55,0
10200,note_on,60,0,7,,,,,,,,,6,,,63,0
10200,note_on,30,0,5,,,,,,,,,4,,,60,0
10200,note_on,0,0,5,,,,,,,,,4,,,51,86
10200,note_on,60,0,9,,,,,,,,,8,,,51,62
10200,note_on,60,0,10,,,,,,,,,10,,,39,62
10200,note_on,60,0,6,,,,,,,,,5,,,72,0
10230,note_on,30,0,5,,,,,,,,,4,,,51,0
10230,note_on,0,0,5,,,,,,,,,4,,,84,0
10230,note_on,0,0,5,,,,,,,,,4,,,86,89
10230,note_on,0,0,5,,,,,,,,,4,,,60,74
10260,note_on,0,0,5,,,,,,,,,4,,,87,84
10260,note_on,60,0,10,,,,,,,,,10,,,39,0
10260,note_on,60,0,8,,,,,,,,,7,,,60,59
10260,note_on,0,0,5,,,,,,,,,4,,,55,82
10260,note_on,60,0,7,,,,,,,,,6,,,67,44
10260,note_on,30,0,5,,,,,,,,,4,,,60,0
10260,note_on,60,0,9,,,,,,,,,8,,,51,0
10260,note_on,60,0,6,,,,,,,,,5,,,75,62
10260,note_on,0,0,5,,,,,,,,,4,,,86,0
10290,note_on,0,0,5,,,,,,,,,4,,,60,67
10290,note_on,30,0,5,,,,,,,,,4,,,55,0
10290,note_on,0,0,5,,,,,,,,,4,,,87,0
10290,note_on,0,0,5,,,,,,,,,4,,,86,89
10320,note_on,0,0,5,,,,,,,,,4,,,86,0
10320,note_on,0,0,5,,,,,,,,,4,,,89,84
10320,note_on,0,0,5,,,,,,,,,4,,,51,89
10320,note_on,30,0,5,,,,,,,,,4,,,60,0
10320,note_on,60,0,6,,,,,,,,,5,,,75,0
10320,note_on,60,0,7,,,,,,,,,6,,,67,0
10320,note_on,60,0,10,,,,,,,,,10,,,39,66
10320,note_on,60,0,9,,,,,,,,,8,,,51,66
10320,note_on,60,0,8,,,,,,,,,7,,,60,0
10350,note_on,0,0,5,,,,,,,,,4,,,87,86
10350,note_on,30,0,5,,,,,,,,,4,,,51,0
10350,note_on,0,0,5,,,,,,,,,4,,,60,76
10350,note_on,0,0,5,,,,,,,,,4,,,89,0
10380,note_on,0,0,5,,,,,,,,,4,,,86,82
10380,note_on,0,0,5,,,,,,,,,4,,,87,0
10380,note_on,0,0,5,,,,,,,,,4,,,55,82
10380,note_on,60,0,9,,,,,,,,,8,,,51,0
10380,note_on,60,0,8,,,,,,,,,7,,,63,51
10380,note_on,30,0,5,,,,,,,,,4,,,60,0
10380,note_on,60,0,6,,,,,,,,,5,,,79,64
10380,note_on,60,0,7,,,,,,,,,6,,,67,46
10380,note_on,60,0,10,,,,,,,,,10,,,39,0
10410,note_on,0,0,5,,,,,,,,,4,,,84,78
10410,note_on,0,0,5,,,,,,,,,4,,,60,76
10410,note_on,30,0,5,,,,,,,,,4,,,55,0
10410,note_on,0,0,5,,,,,,,,,4,,,86,0
10425,note_on,15,0,5,,,,,,,,,4,,,84,0
10425,note_on,0,0,5,,,,,,,,,4,,,77,72
10440,note_on,60,0,7,,,,,,,,,6,,,67,0
10440,note_on,15,0,5,,,,,,,,,4,,,77,0
10440,note_on,0,0,5,,,,,,,,,4,,,60,0
10440,note_on,60,0,8,,,,,,,,,7,,,63,0
10440,note_on,60,0,10,,,,,,,,,10,,,41,68
10440,note_on,0,0,5,,,,,,,,,4,,,89,94
10440,note_on,0,0,5,,,,,,,,,4,,,53,78
10440,note_on,60,0,6,,,,,,,,,5,,,79,0
10440,note_on,60,0,9,,,,,,,,,8,,,53,68
10470,note_on,30,0,5,,,,,,,,,4,,,53,0
10470,note_on,0,0,5,,,,,,,,,4,,,62,68
10500,note_on,60,0,10,,,,,,,,,10,,,41,0
10500,note_on,60,0,6,,,,,,,,,5,,,70,62
10500,note_on,60,0,8,,,,,,,,,7,,,62,58
10500,note_on,60,0,7,,,,,,,,,6,,,65,46
10500,note_on,60,0,9,,,,,,,,,8,,,53,0
10500,note_on,30,0,5,,,,,,,,,4,,,62,0
10500,note_on,0,0,5,,,,,,,,,4,,,58,64
10530,note_on,30,0,5,,,,,,,,,4,,,58,0
10530,note_on,0,0,5,,,,,,,,,4,,,89,0
10530,note_on,0,0,5,,,,,,,,,4,,,62,70
10545,note_on,15,0,5,,,,,,,,,4,,,86,93
10560,note_on,0,0,8,,,,,,,,,7,,,62,65
10560,note_on,60,0,8,,,,,,,,,7,,,62,0
10560,note_on,0,0,5,,,,,,,,,4,,,82,73
10560,note_on,0,0,5,,,,,,,,,4,,,62,0
10560,note_on,15,0,5,,,,,,,,,4,,,86,0
10560,note_on,0,0,6,,,,,,,,,5,,,70,64
10560,note_on,0,0,5,,,,,,,,,4,,,53,74
10560,note_on,0,0,7,,,,,,,,,6,,,65,45
10560,note_on,60,0,6,,,,,,,,,5,,,70,0
10560,note_on,60,0,7,,,,,,,,,6,,,65,0
10590,note_on,30,0,5,,,,,,,,,4,,,53,0
10590,note_on,0,0,5,,,,,,,,,4,,,62,74
10620,note_on,0,0,5,,,,,,,,,4,,,84,71
10620,note_on,0,0,8,,,,,,,,,7,,,62,63
10620,note_on,60,0,8,,,,,,,,,7,,,62,0
10620,note_on,0,0,7,,,,,,,,,6,,,65,52
10620,note_on,60,0,7,,,,,,,,,6,,,65,0
10620,note_on,0,0,6,,,,,,,,,5,,,70,64
10620,note_on,60,0,6,,,,,,,,,5,,,70,0
10620,note_on,30,0,5,,,,,,,,,4,,,62,0
10620,note_on,0,0,5,,,,,,,,,4,,,82,0
10620,note_on,0,0,5,,,,,,,,,4,,,58,73
10635,note_on,0,0,5,,,,,,,,,4,,,82,81
10635,note_on,15,0,5,,,,,,,,,4,,,84,0
10650,note_on,15,0,5,,,,,,,,,4,,,82,0
10650,note_on,0,0,5,,,,,,,,,4,,,58,0
10650,note_on,0,0,5,,,,,,,,,4,,,81,84
10650,note_on,0,0,5,,,,,,,,,4,,,62,73
10665,note_on,0,0,5,,,,,,,,,4,,,82,77
10665,note_on,15,0,5,,,,,,,,,4,,,81,0
10680,note_on,0,0,5,,,,,,,,,4,,,62,0
10680,note_on,0,0,8,,,,,,,,,7,,,63,54
10680,note_on,60,0,8,,,,,,,,,7,,,62,0
10680,note_on,180,0,9,,,,,,,,,8,,,53,72
10680,note_on,0,0,5,,,,,,,,,4,,,86,73
10680,note_on,60,0,7,,,,,,,,,6,,,65,0
10680,note_on,0,0,7,,,,,,,,,6,,,65,46
10680,note_on,180,0,10,,,,,,,,,10,,,41,72
10680,note_on,0,0,6,,,,,,,,,5,,,69,64
10680,note_on,60,0,6,,,,,,,,,5,,,70,0
10680,note_on,15,0,5,,,,,,,,,4,,,82,0
10680,note_on,0,0,5,,,,,,,,,4,,,53,84
10710,note_on,0,0,5,,,,,,,,,4,,,63,74
10710,note_on,30,0,5,,,,,,,,,4,,,53,0
10740,note_on,0,0,6,,,,,,,,,5,,,69,77
10740,note_on,60,0,7,,,,,,,,,6,,,65,0
10740,note_on,0,0,7,,,,,,,,,6,,,65,57
10740,note_on,0,0,5,,,,,,,,,4,,,57,99
10740,note_on,0,0,5,,,,,,,,,4,,,84,80
10740,note_on,0,0,5,,,,,,,,,4,,,86,0
10740,note_on,30,0,5,,,,,,,,,4,,,63,0
10740,note_on,60,0,9,,,,,,,,,8,,,53,0
10740,note_on,60,0,8,,,,,,,,,7,,,63,0
10740,note_on,0,0,8,,,,,,,,,7,,,63,64
10740,note_on,60,0,6,,,,,,,,,5,,,69,0
10740,note_on,60,0,10,,,,,,,,,10,,,41,0
10760,control_change,1580,0,3,,,,,,,,,2,7,64,,
10770,control_change,1620,0,2,,,,,,,,,1,7,63,,
10770,note_on,30,0,5,,,,,,,,,4,,,57,0
10770,note_on,0,0,5,,,,,,,,,4,,,63,72
10776,control_change,1596,0,4,,,,,,,,,3,7,63,,
10778,control_change,1628,0,1,,,,,,,,,0,7,63,,
10785,note_on,0,0,5,,,,,,,,,4,,,82,82
10785,note_on,15,0,5,,,,,,,,,4,,,84,0
10792,control_change,52,0,9,,,,,,,,,8,7,63,,
10794,control_change,54,0,10,,,,,,,,,10,7,63,,
10800,note_on,24,0,4,,,,,,,,,3,,,46,90
10800,control_change,8,0,9,,,,,,,,,8,7,63,,
10800,note_on,0,0,2,,,,,,,,,1,,,70,85
10800,control_change,30,0,2,,,,,,,,,1,7,63,,
10800,note_on,0,0,4,,,,,,,,,3,,,58,77
10800,control_change,0,0,4,,,,,,,,,3,7,63,,
10800,control_change,22,0,1,,,,,,,,,0,7,63,,
10800,note_on,0,0,1,,,,,,,,,0,,,82,84
10800,note_on,0,0,9,,,,,,,,,8,,,46,94
10800,note_on,60,0,8,,,,,,,,,7,,,63,0
10800,note_on,0,0,8,,,,,,,,,7,,,62,56
10800,note_on,60,0,6,,,,,,,,,5,,,69,0
10800,note_on,0,0,3,,,,,,,,,2,,,58,77
10800,note_on,0,0,6,,,,,,,,,5,,,58,71
10800,note_on,60,0,7,,,,,,,,,6,,,65,0
10800,note_on,0,0,7,,,,,,,,,6,,,70,61
10800,note_on,0,0,5,,,,,,,,,4,,,46,73
10800,control_change,40,0,3,,,,,,,,,2,7,63,,
10800,note_on,0,0,10,,,,,,,,,10,,,34,94
10800,control_change,6,0,10,,,,,,,,,10,7,63,,
10800,note_on,0,0,5,,,,,,,,,4,,,82,81
10800,note_on,0,0,5,,,,,,,,,4,,,63,0
10800,note_on,15,0,5,,,,,,,,,4,,,82,0
10800,note_on,0,0,3,,,,,,,,,2,,,46,84
10810,control_change,10,0,3,,,,,,,,,2,7,64,,
10810,control_change,10,0,1,,,,,,,,,0,7,64,,
10810,control_change,10,0,2,,,,,,,,,1,7,64,,
10810,control_change,10,0,10,,,,,,,,,10,7,64,,
10812,control_change,12,0,9,,,,,,,,,8,7,64,,
10812,control_change,12,0,4,,,,,,,,,3,7,64,,
10820,control_change,10,0,10,,,,,,,,,10,7,65,,
10820,control_change,10,0,3,,,,,,,,,2,7,65,,
10820,control_change,10,0,1,,,,,,,,,0,7,65,,
10820,control_change,10,0,2,,,,,,,,,1,7,65,,
10822,control_change,10,0,9,,,,,,,,,8,7,65,,
10822,control_change,10,0,4,,,,,,,,,3,7,65,,
10830,control_change,10,0,2,,,,,,,,,1,7,66,,
10830,control_change,10,0,10,,,,,,,,,10,7,66,,
10830,control_change,10,0,3,,,,,,,,,2,7,66,,
10830,control_change,10,0,1,,,,,,,,,0,7,66,,
10832,control_change,10,0,9,,,,,,,,,8,7,66,,
10832,control_change,10,0,4,,,,,,,,,3,7,66,,
10840,control_change,10,0,10,,,,,,,,,10,7,67,,
10840,control_change,10,0,3,,,,,,,,,2,7,67,,
10840,control_change,10,0,1,,,,,,,,,0,7,67,,
10840,control_change,10,0,2,,,,,,,,,1,7,67,,
10842,control_change,10,0,9,,,,,,,,,8,7,67,,
10842,control_change,10,0,4,,,,,,,,,3,7,67,,
10850,control_change,10,0,2,,,,,,,,,1,7,68,,
10850,control_change,10,0,3,,,,,,,,,2,7,68,,
10850,control_change,10,0,10,,,,,,,,,10,7,68,,
10850,control_change,10,0,1,,,,,,,,,0,7,68,,
10852,control_change,10,0,9,,,,,,,,,8,7,68,,
10852,control_change,10,0,4,,,,,,,,,3,7,68,,
10860,control_change,10,0,1,,,,,,,,,0,7,69,,
10860,control_change,10,0,10,,,,,,,,,10,7,69,,
10860,control_change,10,0,2,,,,,,,,,1,7,69,,
10860,control_change,10,0,3,,,,,,,,,2,7,69,,
10860,note_on,0,0,7,,,,,,,,,6,,,58,76
10860,note_on,60,0,7,,,,,,,,,6,,,70,0
10860,note_on,60,0,8,,,,,,,,,7,,,62,0
10862,control_change,10,0,9,,,,,,,,,8,7,69,,
10862,control_change,10,0,4,,,,,,,,,3,7,69,,
10870,control_change,10,0,1,,,,,,,,,0,7,70,,
10870,control_change,10,0,3,,,,,,,,,2,7,70,,
10870,control_change,10,0,2,,,,,,,,,1,7,70,,
10870,control_change,10,0,10,,,,,,,,,10,7,70,,
10872,control_change,10,0,9,,,,,,,,,8,7,70,,
10872,control_change,10,0,4,,,,,,,,,3,7,70,,
10880,control_change,10,0,1,,,,,,,,,0,7,71,,
10880,control_change,10,0,3,,,,,,,,,2,7,71,,
10880,control_change,10,0,2,,,,,,,,,1,7,71,,
10880,control_change,10,0,10,,,,,,,,,10,7,71,,
10884,control_change,12,0,9,,,,,,,,,8,7,71,,
10884,control_change,12,0,4,,,,,,,,,3,7,71,,
10890,control_change,10,0,1,,,,,,,,,0,7,72,,
10890,control_change,10,0,2,,,,,,,,,1,7,72,,
10890,control_change,10,0,10,,,,,,,,,10,7,72,,
10890,control_change,10,0,3,,,,,,,,,2,7,72,,
10894,control_change,10,0,9,,,,,,,,,8,7,72,,
10894,control_change,10,0,4,,,,,,,,,3,7,72,,
10900,control_change,10,0,2,,,,,,,,,1,7,73,,
10900,control_change,10,0,1,,,,,,,,,0,7,73,,
10900,control_change,10,0,10,,,,,,,,,10,7,73,,
10900,control_change,10,0,3,,,,,,,,,2,7,73,,
10904,control_change,10,0,9,,,,,,,,,8,7,73,,
10904,control_change,10,0,4,,,,,,,,,3,7,73,,
10910,control_change,10,0,10,,,,,,,,,10,7,74,,
10910,control_change,10,0,1,,,,,,,,,0,7,74,,
10910,control_change,10,0,2,,,,,,,,,1,7,74,,
10910,control_change,10,0,3,,,,,,,,,2,7,74,,
10914,control_change,10,0,4,,,,,,,,,3,7,74,,
10914,control_change,10,0,9,,,,,,,,,8,7,74,,
10920,note_on,120,0,5,,,,,,,,,4,,,46,0
10920,control_change,10,0,2,,,,,,,,,1,7,75,,
10920,control_change,10,0,1,,,,,,,,,0,7,75,,
10920,control_change,10,0,3,,,,,,,,,2,7,75,,
10920,note_on,60,0,8,,,,,,,,,7,,,53,84
10920,note_on,120,0,6,,,,,,,,,5,,,58,0
10920,note_on,0,0,6,,,,,,,,,5,,,61,82
10920,control_change,10,0,10,,,,,,,,,10,7,75,,
10920,note_on,0,0,5,,,,,,,,,4,,,82,0
10924,control_change,10,0,4,,,,,,,,,3,7,75,,
10924,control_change,10,0,9,,,,,,,,,8,7,75,,
10930,control_change,10,0,10,,,,,,,,,10,7,76,,
10930,control_change,10,0,1,,,,,,,,,0,7,76,,
10930,control_change,10,0,3,,,,,,,,,2,7,76,,
10930,control_change,10,0,2,,,,,,,,,1,7,76,,
10934,control_change,10,0,4,,,,,,,,,3,7,76,,
10934,control_change,10,0,9,,,,,,,,,8,7,76,,
10940,control_change,10,0,1,,,,,,,,,0,7,77,,
10940,control_change,10,0,2,,,,,,,,,1,7,77,,
10940,control_change,10,0,3,,,,,,,,,2,7,77,,
10940,control_change,10,0,10,,,,,,,,,10,7,77,,
10944,control_change,10,0,9,,,,,,,,,8,7,77,,
10944,control_change,10,0,4,,,,,,,,,3,7,77,,
10950,control_change,10,0,10,,,,,,,,,10,7,78,,
10950,control_change,10,0,1,,,,,,,,,0,7,78,,
10950,control_change,10,0,3,,,,,,,,,2,7,78,,
10950,control_change,10,0,2,,,,,,,,,1,7,78,,
10956,control_change,12,0,9,,,,,,,,,8,7,78,,
10956,control_change,12,0,4,,,,,,,,,3,7,78,,
10960,control_change,10,0,10,,,,,,,,,10,7,79,,
10960,control_change,10,0,1,,,,,,,,,0,7,79,,
10960,control_change,10,0,2,,,,,,,,,1,7,79,,
10960,control_change,10,0,3,,,,,,,,,2,7,79,,
10966,control_change,10,0,4,,,,,,,,,3,7,79,,
10966,control_change,10,0,9,,,,,,,,,8,7,79,,
10970,control_change,10,0,3,,,,,,,,,2,7,80,,
10970,control_change,10,0,1,,,,,,,,,0,7,80,,
10970,control_change,10,0,2,,,,,,,,,1,7,80,,
10970,control_change,10,0,10,,,,,,,,,10,7,80,,
10976,control_change,10,0,9,,,,,,,,,8,7,80,,
10976,control_change,10,0,4,,,,,,,,,3,7,80,,
10980,control_change,10,0,3,,,,,,,,,2,7,81,,
10980,note_on,120,0,7,,,,,,,,,6,,,58,0
10980,control_change,10,0,1,,,,,,,,,0,7,81,,
10980,control_change,10,0,10,,,,,,,,,10,7,81,,
10980,note_on,0,0,7,,,,,,,,,6,,,58,98
10980,control_change,10,0,2,,,,,,,,,1,7,81,,
10986,control_change,10,0,9,,,,,,,,,8,7,81,,
10986,control_change,10,0,4,,,,,,,,,3,7,81,,
10990,control_change,10,0,3,,,,,,,,,2,7,82,,
10990,control_change,10,0,10,,,,,,,,,10,7,82,,
10990,control_change,10,0,2,,,,,,,,,1,7,82,,
10990,control_change,10,0,1,,,,,,,,,0,7,82,,
10996,control_change,10,0,9,,,,,,,,,8,7,82,,
10996,control_change,10,0,4,,,,,,,,,3,7,82,,
11000,control_change,10,0,2,,,,,,,,,1,7,83,,
11000,control_change,10,0,10,,,,,,,,,10,7,83,,
11000,control_change,10,0,3,,,,,,,,,2,7,83,,
11000,control_change,10,0,1,,,,,,,,,0,7,83,,
11006,control_change,10,0,4,,,,,,,,,3,7,83,,
11006,control_change,10,0,9,,,,,,,,,8,7,83,,
11010,control_change,10,0,2,,,,,,,,,1,7,84,,
11010,control_change,10,0,10,,,,,,,,,10,7,84,,
11010,control_change,10,0,3,,,,,,,,,2,7,84,,
11010,control_change,10,0,1,,,,,,,,,0,7,84,,
11016,control_change,10,0,9,,,,,,,,,8,7,84,,
11016,control_change,10,0,4,,,,,,,,,3,7,84,,
11020,control_change,10,0,1,,,,,,,,,0,7,85,,
11020,control_change,10,0,2,,,,,,,,,1,7,85,,
11020,control_change,10,0,3,,,,,,,,,2,7,85,,
11020,control_change,10,0,10,,,,,,,,,10,7,85,,
11028,control_change,12,0,4,,,,,,,,,3,7,85,,
11028,control_change,12,0,9,,,,,,,,,8,7,85,,
11030,control_change,10,0,2,,,,,,,,,1,7,86,,
11030,control_change,10,0,10,,,,,,,,,10,7,86,,
11030,control_change,10,0,1,,,,,,,,,0,7,86,,
11030,control_change,10,0,3,,,,,,,,,2,7,86,,
11038,control_change,10,0,4,,,,,,,,,3,7,86,,
11038,control_change,10,0,9,,,,,,,,,8,7,86,,
11040,note_on,0,0,2,,,,,,,,,1,,,75,73
11040,note_on,0,0,2,,,,,,,,,1,,,66,78
11040,note_on,10,0,2,,,,,,,,,1,,,70,0
11040,control_change,0,0,10,,,,,,,,,10,7,87,,
11040,note_on,2,0,9,,,,,,,,,8,,,46,0
11040,note_on,0,0,6,,,,,,,,,5,,,63,98
11040,note_on,0,0,8,,,,,,,,,7,,,54,95
11040,note_on,120,0,8,,,,,,,,,7,,,53,0
11040,note_on,0,0,9,,,,,,,,,8,,,42,85
11040,note_on,120,0,6,,,,,,,,,5,,,61,0
11040,control_change,0,0,2,,,,,,,,,1,7,87,,
11040,note_on,0,0,10,,,,,,,,,10,,,30,85
11040,note_on,0,0,1,,,,,,,,,0,,,78,89
11040,control_change,0,0,1,,,,,,,,,0,7,87,,
11040,note_on,10,0,10,,,,,,,,,10,,,34,0
11040,note_on,10,0,3,,,,,,,,,2,,,46,0
11040,note_on,0,0,3,,,,,,,,,2,,,58,0
11040,note_on,0,0,3,,,,,,,,,2,,,54,93
11040,note_on,0,0,3,,,,,,,,,2,,,63,76
11040,control_change,0,0,3,,,,,,,,,2,7,87,,
11040,note_on,10,0,1,,,,,,,,,0,,,82,0
11048,control_change,10,0,4,,,,,,,,,3,7,87,,
11048,control_change,8,0,9,,,,,,,,,8,7,87,,
11050,control_change,10,0,1,,,,,,,,,0,7,88,,
11050,control_change,10,0,2,,,,,,,,,1,7,88,,
11050,control_change,10,0,3,,,,,,,,,2,7,88,,
11050,control_change,10,0,10,,,,,,,,,10,7,88,,
11058,control_change,10,0,9,,,,,,,,,8,7,88,,
11058,control_change,10,0,4,,,,,,,,,3,7,88,,
11060,control_change,10,0,3,,,,,,,,,2,7,89,,
11060,control_change,10,0,10,,,,,,,,,10,7,89,,
11060,control_change,10,0,1,,,,,,,,,0,7,89,,
11060,control_change,10,0,2,,,,,,,,,1,7,89,,
11068,control_change,10,0,4,,,,,,,,,3,7,89,,
11068,control_change,10,0,9,,,,,,,,,8,7,89,,
11070,control_change,10,0,2,,,,,,,,,1,7,90,,
11070,control_change,10,0,3,,,,,,,,,2,7,90,,
11070,control_change,10,0,10,,,,,,,,,10,7,90,,
11070,control_change,10,0,1,,,,,,,,,0,7,90,,
11078,control_change,10,0,4,,,,,,,,,3,7,90,,
11078,control_change,10,0,9,,,,,,,,,8,7,90,,
11080,control_change,10,0,10,,,,,,,,,10,7,91,,
11080,control_change,10,0,2,,,,,,,,,1,7,91,,
11080,control_change,10,0,3,,,,,,,,,2,7,91,,
11080,control_change,10,0,1,,,,,,,,,0,7,91,,
11088,control_change,10,0,9,,,,,,,,,8,7,91,,
11088,control_change,10,0,4,,,,,,,,,3,7,91,,
11090,control_change,10,0,3,,,,,,,,,2,7,92,,
11090,control_change,10,0,10,,,,,,,,,10,7,92,,
11090,control_change,10,0,2,,,,,,,,,1,7,92,,
11090,control_change,10,0,1,,,,,,,,,0,7,92,,
11100,control_change,12,0,4,,,,,,,,,3,7,92,,
11100,control_change,10,0,3,,,,,,,,,2,7,93,,
11100,control_change,10,0,1,,,,,,,,,0,7,93,,
11100,note_on,120,0,7,,,,,,,,,6,,,58,0
11100,control_change,10,0,2,,,,,,,,,1,7,93,,
11100,note_on,0,0,7,,,,,,,,,6,,,58,84
11100,control_change,12,0,9,,,,,,,,,8,7,92,,
11100,control_change,10,0,10,,,,,,,,,10,7,93,,
11110,control_change,10,0,1,,,,,,,,,0,7,94,,
11110,control_change,10,0,3,,,,,,,,,2,7,94,,
11110,control_change,10,0,9,,,,,,,,,8,7,93,,
11110,control_change,10,0,2,,,,,,,,,1,7,94,,
11110,control_change,10,0,4,,,,,,,,,3,7,93,,
11110,control_change,10,0,10,,,,,,,,,10,7,94,,
11120,control_change,10,0,10,,,,,,,,,10,7,95,,
11120,control_change,10,0,9,,,,,,,,,8,7,94,,
11120,control_change,10,0,4,,,,,,,,,3,7,94,,
11120,control_change,10,0,3,,,,,,,,,2,7,95,,
11120,control_change,10,0,1,,,,,,,,,0,7,95,,
11120,control_change,10,0,2,,,,,,,,,1,7,95,,
11130,control_change,10,0,9,,,,,,,,,8,7,95,,
11130,control_change,10,0,1,,,,,,,,,0,7,96,,
11130,control_change,10,0,2,,,,,,,,,1,7,96,,
11130,control_change,10,0,4,,,,,,,,,3,7,95,,
11130,note_on,90,0,6,,,,,,,,,5,,,63,0
11130,control_change,10,0,10,,,,,,,,,10,7,96,,
11130,control_change,10,0,3,,,,,,,,,2,7,96,,
11140,control_change,10,0,10,,,,,,,,,10,7,97,,
11140,control_change,10,0,4,,,,,,,,,3,7,96,,
11140,control_change,10,0,1,,,,,,,,,0,7,97,,
11140,control_change,10,0,9,,,,,,,,,8,7,96,,
11140,control_change,10,0,3,,,,,,,,,2,7,97,,
11140,control_change,10,0,2,,,,,,,,,1,7,97,,
11145,note_on,15,0,6,,,,,,,,,5,,,66,101
11150,control_change,10,0,1,,,,,,,,,0,7,98,,
11150,control_change,10,0,3,,,,,,,,,2,7,98,,
11150,control_change,10,0,10,,,,,,,,,10,7,98,,
11150,control_change,10,0,9,,,,,,,,,8,7,97,,
11150,control_change,10,0,4,,,,,,,,,3,7,97,,
11150,control_change,10,0,2,,,,,,,,,1,7,98,,
11160,note_on,0,0,3,,,,,,,,,2,,,54,0
11160,note_on,60,0,7,,,,,,,,,6,,,58,0
11160,note_on,10,0,4,,,,,,,,,3,,,58,0
11160,note_on,10,0,3,,,,,,,,,2,,,63,0
11160,note_on,0,0,2,,,,,,,,,1,,,73,69
11160,note_on,0,0,4,,,,,,,,,3,,,46,0
11160,note_on,0,0,2,,,,,,,,,1,,,65,74
11160,control_change,0,0,2,,,,,,,,,1,7,99,,
11160,note_on,0,0,7,,,,,,,,,6,,,56,98
11160,note_on,10,0,1,,,,,,,,,0,,,78,0
11160,note_on,0,0,1,,,,,,,,,0,,,77,86
11160,control_change,0,0,1,,,,,,,,,0,7,99,,
11160,control_change,0,0,10,,,,,,,,,10,7,99,,
11160,note_on,0,0,10,,,,,,,,,10,,,32,95
11160,note_on,10,0,10,,,,,,,,,10,,,30,0
11160,note_on,10,0,9,,,,,,,,,8,,,42,0
11160,note_on,0,0,9,,,,,,,,,8,,,44,95
11160,control_change,0,0,9,,,,,,,,,8,7,99,,
11160,note_on,10,0,2,,,,,,,,,1,,,75,0
11160,control_change,0,0,4,,,,,,,,,3,7,98,,
11160,note_on,0,0,2,,,,,,,,,1,,,66,0
11160,note_on,0,0,6,,,,,,,,,5,,,61,93
11160,note_on,15,0,6,,,,,,,,,5,,,66,0
11160,control_change,0,0,3,,,,,,,,,2,7,99,,
11160,note_on,0,0,3,,,,,,,,,2,,,53,80
11160,note_on,0,0,3,,,,,,,,,2,,,61,84
11160,note_on,120,0,8,,,,,,,,,7,,,54,0
11160,note_on,0,0,8,,,,,,,,,7,,,53,95
11175,note_on,0,0,7,,,,,,,,,6,,,55,104
11175,note_on,15,0,7,,,,,,,,,6,,,56,0
11190,note_on,0,0,7,,,,,,,,,6,,,56,94
11190,note_on,15,0,7,,,,,,,,,6,,,55,0
11205,note_on,15,0,7,,,,,,,,,6,,,56,0
11205,note_on,0,0,7,,,,,,,,,6,,,55,99
11220,note_on,0,0,7,,,,,,,,,6,,,56,98
11220,note_on,15,0,7,,,,,,,,,6,,,55,0
11235,note_on,0,0,7,,,,,,,,,6,,,55,101
11235,note_on,15,0,7,,,,,,,,,6,,,56,0
11250,note_on,0,0,7,,,,,,,,,6,,,56,99
11250,note_on,15,0,7,,,,,,,,,6,,,55,0
11265,note_on,15,0,7,,,,,,,,,6,,,56,0
11265,note_on,0,0,7,,,,,,,,,6,,,55,101
11280,note_on,0,0,2,,,,,,,,,1,,,63,73
11280,note_on,0,0,2,,,,,,,,,1,,,72,45
11280,note_on,120,0,1,,,,,,,,,0,,,77,0
11280,note_on,0,0,9,,,,,,,,,8,,,44,67
11280,note_on,0,0,10,,,,,,,,,10,,,32,67
11280,note_on,120,0,10,,,,,,,,,10,,,32,0
11280,note_on,120,0,9,,,,,,,,,8,,,44,0
11280,note_on,0,0,2,,,,,,,,,1,,,73,0
11280,note_on,15,0,7,,,,,,,,,6,,,55,0
11280,note_on,0,0,7,,,,,,,,,6,,,56,80
11280,note_on,0,0,1,,,,,,,,,0,,,75,85
11280,note_on,120,0,2,,,,,,,,,1,,,65,0
11280,note_on,0,0,3,,,,,,,,,2,,,51,73
11280,note_on,0,0,3,,,,,,,,,2,,,60,73
11280,note_on,0,0,8,,,,,,,,,7,,,51,86
11280,note_on,120,0,8,,,,,,,,,7,,,53,0
11280,note_on,0,0,6,,,,,,,,,5,,,60,89
11280,note_on,120,0,6,,,,,,,,,5,,,61,0
11280,note_on,120,0,3,,,,,,,,,2,,,53,0
11280,note_on,0,0,3,,,,,,,,,2,,,61,0
11295,note_on,15,0,9,,,,,,,,,8,,,44,0
11295,note_on,15,0,8,,,,,,,,,7,,,51,0
11295,note_on,15,0,10,,,,,,,,,10,,,32,0
11295,note_on,0,0,9,,,,,,,,,8,,,44,82
11295,note_on,0,0,10,,,,,,,,,10,,,32,82
11295,note_on,0,0,8,,,,,,,,,7,,,56,82
11310,note_on,0,0,10,,,,,,,,,10,,,34,85
11310,note_on,15,0,10,,,,,,,,,10,,,32,0
11310,note_on,15,0,9,,,,,,,,,8,,,44,0
11310,note_on,0,0,9,,,,,,,,,8,,,46,85
11310,note_on,0,0,8,,,,,,,,,7,,,58,81
11310,note_on,15,0,8,,,,,,,,,7,,,56,0
11325,note_on,15,0,9,,,,,,,,,8,,,46,0
11325,note_on,15,0,10,,,,,,,,,10,,,34,0
11325,note_on,0,0,8,,,,,,,,,7,,,60,89
11325,note_on,0,0,10,,,,,,,,,10,,,36,69
11325,note_on,15,0,8,,,,,,,,,7,,,58,0
11325,note_on,0,0,9,,,,,,,,,8,,,48,69
11340,note_on,15,0,9,,,,,,,,,8,,,48,0
11340,note_on,60,0,1,,,,,,,,,0,,,75,0
11340,note_on,0,0,9,,,,,,,,,8,,,49,80
11340,note_on,60,0,3,,,,,,,,,2,,,51,0
11340,note_on,0,0,3,,,,,,,,,2,,,60,0
11340,note_on,0,0,2,,,,,,,,,1,,,72,0
11340,note_on,0,0,10,,,,,,,,,10,,,37,80
11340,note_on,15,0,10,,,,,,,,,10,,,36,0
11340,note_on,15,0,8,,,,,,,,,7,,,60,0
11340,note_on,0,0,8,,,,,,,,,7,,,61,84
11340,note_on,60,0,2,,,,,,,,,1,,,63,0
11340,note_on,60,0,6,,,,,,,,,5,,,60,0
11355,note_on,0,0,10,,,,,,,,,10,,,39,85
11355,note_on,15,0,10,,,,,,,,,10,,,37,0
11355,note_on,15,0,8,,,,,,,,,7,,,61,0
11355,note_on,0,0,8,,,,,,,,,7,,,63,89
11355,note_on,15,0,9,,,,,,,,,8,,,49,0
11355,note_on,0,0,9,,,,,,,,,8,,,51,85
11370,note_on,15,0,9,,,,,,,,,8,,,51,0
11370,note_on,0,0,8,,,,,,,,,7,,,65,94
11370,note_on,15,0,8,,,,,,,,,7,,,63,0
11370,note_on,0,0,9,,,,,,,,,8,,,53,54
11370,note_on,15,0,10,,,,,,,,,10,,,39,0
11370,note_on,0,0,10,,,,,,,,,10,,,41,54
11385,note_on,15,0,9,,,,,,,,,8,,,53,0
11385,note_on,0,0,9,,,,,,,,,8,,,55,94
11385,note_on,0,0,8,,,,,,,,,7,,,67,84
11385,note_on,15,0,10,,,,,,,,,10,,,41,0
11385,note_on,0,0,10,,,,,,,,,10,,,43,94
11385,note_on,15,0,8,,,,,,,,,7,,,65,0
11400,note_on,15,0,8,,,,,,,,,7,,,67,0
11400,note_on,60,0,1,,,,,,,,,0,,,80,85
11400,note_on,60,0,2,,,,,,,,,1,,,68,74
11400,note_on,0,0,2,,,,,,,,,1,,,77,60
11400,note_on,0,0,10,,,,,,,,,10,,,44,74
11400,note_on,60,0,3,,,,,,,,,2,,,56,78
11400,note_on,15,0,10,,,,,,,,,10,,,43,0
11400,note_on,0,0,7,,,,,,,,,6,,,59,105
11400,note_on,0,0,3,,,,,,,,,2,,,65,72
11400,note_on,15,0,9,,,,,,,,,8,,,55,0
11400,note_on,0,0,9,,,,,,,,,8,,,56,74
11400,note_on,0,0,8,,,,,,,,,7,,,68,74
11400,note_on,120,0,7,,,,,,,,,6,,,56,0
11400,note_on,60,0,6,,,,,,,,,5,,,65,99
11430,note_on,30,0,10,,,,,,,,,10,,,44,0
11430,note_on,30,0,9,,,,,,,,,8,,,56,0
11430,note_on,30,0,8,,,,,,,,,7,,,68,0
11460,note_on,30,0,10,,,,,,,,,10,,,32,76
11460,note_on,30,0,9,,,,,,,,,8,,,44,76
11460,note_on,30,0,8,,,,,,,,,7,,,56,89
11490,note_on,90,0,6,,,,,,,,,5,,,65,0
11490,note_on,30,0,8,,,,,,,,,7,,,56,0
11490,note_on,30,0,10,,,,,,,,,10,,,32,0
11490,note_on,30,0,9,,,,,,,,,8,,,44,0
11505,note_on,15,0,6,,,,,,,,,5,,,68,90
11520,note_on,120,0,7,,,,,,,,,6,,,59,0
11520,note_on,0,0,7,,,,,,,,,6,,,58,101
11520,note_on,120,0,2,,,,,,,,,1,,,77,0
11520,note_on,0,0,2,,,,,,,,,1,,,68,0
11520,note_on,30,0,8,,,,,,,,,7,,,54,98
11520,note_on,0,0,3,,,,,,,,,2,,,54,98
11520,note_on,0,0,3,,,,,,,,,2,,,63,86
11520,note_on,0,0,3,,,,,,,,,2,,,56,0
11520,note_on,30,0,9,,,,,,,,,8,,,46,95
11520,note_on,15,0,6,,,,,,,,,5,,,68,0
11520,note_on,120,0,3,,,,,,,,,2,,,65,0
11520,note_on,0,0,1,,,,,,,,,0,,,78,93
11520,note_on,120,0,1,,,,,,,,,0,,,80,0
11520,note_on,30,0,10,,,,,,,,,10,,,34,95
11520,note_on,0,0,2,,,,,,,,,1,,,66,89
11520,note_on,0,0,2,,,,,,,,,1,,,75,77
11520,note_on,0,0,6,,,,,,,,,5,,,63,95
11535,note_on,0,0,7,,,,,,,,,6,,,57,110
11535,note_on,15,0,7,,,,,,,,,6,,,58,0
11550,note_on,15,0,7,,,,,,,,,6,,,57,0
11550,note_on,0,0,7,,,,,,,,,6,,,58,95
11565,note_on,0,0,7,,,,,,,,,6,,,57,107
11565,note_on,15,0,7,,,,,,,,,6,,,58,0
11580,note_on,15,0,7,,,,,,,,,6,,,57,0
11580,note_on,0,0,7,,,,,,,,,6,,,58,95
11595,note_on,15,0,7,,,,,,,,,6,,,58,0
11595,note_on,0,0,7,,,,,,,,,6,,,57,110
11610,note_on,15,0,7,,,,,,,,,6,,,57,0
11610,note_on,0,0,7,,,,,,,,,6,,,58,99
11625,note_on,15,0,7,,,,,,,,,6,,,58,0
11625,note_on,0,0,7,,,,,,,,,6,,,57,110
11640,note_on,120,0,2,,,,,,,,,1,,,66,0
11640,note_on,120,0,10,,,,,,,,,10,,,34,0
11640,note_on,0,0,10,,,,,,,,,10,,,34,71
11640,note_on,0,0,6,,,,,,,,,5,,,62,89
11640,note_on,120,0,6,,,,,,,,,5,,,63,0
11640,note_on,120,0,8,,,,,,,,,7,,,54,0
11640,note_on,0,0,3,,,,,,,,,2,,,62,70
11640,note_on,0,0,3,,,,,,,,,2,,,63,0
11640,note_on,120,0,3,,,,,,,,,2,,,54,0
11640,note_on,0,0,8,,,,,,,,,7,,,53,94
11640,note_on,0,0,3,,,,,,,,,2,,,53,77
11640,note_on,0,0,2,,,,,,,,,1,,,75,0
11640,note_on,0,0,2,,,,,,,,,1,,,65,70
11640,note_on,120,0,1,,,,,,,,,0,,,78,0
11640,note_on,0,0,1,,,,,,,,,0,,,77,81
11640,note_on,15,0,7,,,,,,,,,6,,,57,0
11640,note_on,120,0,9,,,,,,,,,8,,,46,0
11640,note_on,0,0,9,,,,,,,,,8,,,46,71
11640,note_on,0,0,7,,,,,,,,,6,,,58,76
11640,note_on,0,0,2,,,,,,,,,1,,,74,68
11655,note_on,0,0,8,,,,,,,,,7,,,58,81
11655,note_on,0,0,10,,,,,,,,,10,,,34,84
11655,note_on,15,0,8,,,,,,,,,7,,,53,0
11655,note_on,0,0,9,,,,,,,,,8,,,46,84
11655,note_on,15,0,9,,,,,,,,,8,,,46,0
11655,note_on,15,0,10,,,,,,,,,10,,,34,0
11670,note_on,15,0,10,,,,,,,,,10,,,34,0
11670,note_on,0,0,8,,,,,,,,,7,,,60,89
11670,note_on,15,0,8,,,,,,,,,7,,,58,0
11670,note_on,0,0,9,,,,,,,,,8,,,48,82
11670,note_on,15,0,9,,,,,,,,,8,,,46,0
11670,note_on,0,0,10,,,,,,,,,10,,,36,82
11685,note_on,0,0,8,,,,,,,,,7,,,62,80
11685,note_on,15,0,9,,,,,,,,,8,,,48,0
11685,note_on,0,0,9,,,,,,,,,8,,,50,81
11685,note_on,15,0,10,,,,,,,,,10,,,36,0
11685,note_on,0,0,10,,,,,,,,,10,,,38,81
11685,note_on,15,0,8,,,,,,,,,7,,,60,0
11700,note_on,0,0,8,,,,,,,,,7,,,63,84
11700,note_on,0,0,3,,,,,,,,,2,,,62,0
11700,note_on,60,0,3,,,,,,,,,2,,,53,0
11700,note_on,0,0,2,,,,,,,,,1,,,74,0
11700,note_on,15,0,8,,,,,,,,,7,,,62,0
11700,note_on,0,0,9,,,,,,,,,8,,,51,85
11700,note_on,60,0,1,,,,,,,,,0,,,77,0
11700,note_on,60,0,2,,,,,,,,,1,,,65,0
11700,note_on,15,0,9,,,,,,,,,8,,,50,0
11700,note_on,60,0,6,,,,,,,,,5,,,62,0
11700,note_on,0,0,10,,,,,,,,,10,,,39,85
11700,note_on,15,0,10,,,,,,,,,10,,,38,0
11715,note_on,15,0,8,,,,,,,,,7,,,63,0
11715,note_on,0,0,10,,,,,,,,,10,,,41,84
11715,note_on,15,0,9,,,,,,,,,8,,,51,0
11715,note_on,0,0,9,,,,,,,,,8,,,53,84
11715,note_on,15,0,10,,,,,,,,,10,,,39,0
11715,note_on,0,0,8,,,,,,,,,7,,,65,84
11730,note_on,0,0,9,,,,,,,,,8,,,55,71
11730,note_on,0,0,10,,,,,,,,,10,,,43,71
11730,note_on,15,0,10,,,,,,,,,10,,,41,0
11730,note_on,15,0,9,,,,,,,,,8,,,53,0
11730,note_on,15,0,8,,,,,,,,,7,,,65,0
11730,note_on,0,0,8,,,,,,,,,7,,,67,80
11745,note_on,15,0,9,,,,,,,,,8,,,55,0
11745,note_on,15,0,8,,,,,,,,,7,,,67,0
11745,note_on,15,0,10,,,,,,,,,10,,,43,0
11745,note_on,0,0,10,,,,,,,,,10,,,45,94
11745,note_on,0,0,9,,,,,,,,,8,,,57,94
11745,note_on,0,0,8,,,,,,,,,7,,,69,86
11760,note_on,60,0,6,,,,,,,,,5,,,70,101
11760,note_on,0,0,2,,,,,,,,,1,,,70,72
11760,note_on,60,0,2,,,,,,,,,1,,,74,77
11760,note_on,0,0,8,,,,,,,,,7,,,70,81
11760,note_on,600,0,4,,,,,,,,,3,,,46,95
11760,note_on,0,0,4,,,,,,,,,3,,,58,93
11760,note_on,60,0,1,,,,,,,,,0,,,82,81
11760,note_on,0,0,10,,,,,,,,,10,,,46,70
11760,note_on,15,0,10,,,,,,,,,10,,,45,0
11760,note_on,15,0,9,,,,,,,,,8,,,57,0
11760,note_on,0,0,9,,,,,,,,,8,,,58,70
11760,note_on,15,0,8,,,,,,,,,7,,,69,0
11760,note_on,0,0,3,,,,,,,,,2,,,58,89
11760,note_on,60,0,3,,,,,,,,,2,,,62,86
11760,note_on,0,0,7,,,,,,,,,6,,,58,101
11760,note_on,120,0,7,,,,,,,,,6,,,58,0
11790,note_on,30,0,9,,,,,,,,,8,,,58,0
11790,note_on,30,0,10,,,,,,,,,10,,,46,0
11790,note_on,30,0,8,,,,,,,,,7,,,70,0
11820,note_on,30,0,9,,,,,,,,,8,,,46,84
11820,note_on,30,0,10,,,,,,,,,10,,,34,84
11820,note_on,30,0,8,,,,,,,,,7,,,62,81
11850,note_on,90,0,2,,,,,,,,,1,,,70,0
11850,note_on,0,0,2,,,,,,,,,1,,,74,0
11850,note_on,90,0,1,,,,,,,,,0,,,82,0
11850,note_on,90,0,7,,,,,,,,,6,,,58,0
11850,note_on,90,0,6,,,,,,,,,5,,,70,0
11850,note_on,30,0,10,,,,,,,,,10,,,34,0
11850,note_on,90,0,3,,,,,,,,,2,,,58,0
11850,note_on,0,0,3,,,,,,,,,2,,,62,0
11850,note_on,30,0,9,,,,,,,,,8,,,46,0
11865,note_on,15,0,6,,,,,,,,,5,,,69,94
11865,note_on,15,0,7,,,,,,,,,6,,,57,95
11865,note_on,0,0,8,,,,,,,,,7,,,63,74
11865,note_on,45,0,8,,,,,,,,,7,,,62,0
11865,note_on,15,0,1,,,,,,,,,0,,,81,90
11865,note_on,0,0,3,,,,,,,,,2,,,63,78
11865,note_on,15,0,3,,,,,,,,,2,,,57,104
11865,note_on,0,0,2,,,,,,,,,1,,,75,57
11865,note_on,15,0,2,,,,,,,,,1,,,69,94
11880,note_on,120,0,4,,,,,,,,,3,,,58,0
11880,note_on,15,0,7,,,,,,,,,6,,,57,0
11880,note_on,0,0,4,,,,,,,,,3,,,46,0
11880,note_on,0,0,1,,,,,,,,,0,,,81,93
11880,note_on,15,0,1,,,,,,,,,0,,,81,0
11880,note_on,0,0,4,,,,,,,,,3,,,63,93
11880,note_on,0,0,4,,,,,,,,,3,,,51,101
11880,note_on,0,0,6,,,,,,,,,5,,,69,99
11880,note_on,15,0,8,,,,,,,,,7,,,63,0
11880,note_on,0,0,8,,,,,,,,,7,,,63,76
11880,note_on,15,0,6,,,,,,,,,5,,,69,0
11880,note_on,30,0,9,,,,,,,,,8,,,47,104
11880,note_on,0,0,7,,,,,,,,,6,,,57,98
11880,note_on,30,0,10,,,,,,,,,10,,,35,104
11880,note_on,0,0,3,,,,,,,,,2,,,57,99
11880,note_on,0,0,3,,,,,,,,,2,,,63,76
11880,note_on,15,0,2,,,,,,,,,1,,,75,0
11880,note_on,0,0,2,,,,,,,,,1,,,69,0
11880,note_on,0,0,2,,,,,,,,,1,,,75,66
11880,note_on,15,0,3,,,,,,,,,2,,,63,0
11880,note_on,0,0,3,,,,,,,,,2,,,57,0
11880,note_on,0,0,2,,,,,,,,,1,,,69,85
11910,note_on,30,0,6,,,,,,,,,5,,,69,0
11910,note_on,30,0,1,,,,,,,,,0,,,81,0
11910,note_on,30,0,8,,,,,,,,,7,,,63,0
11910,note_on,30,0,7,,,,,,,,,6,,,57,0
11940,note_on,0,0,2,,,,,,,,,1,,,75,0
11940,note_on,0,0,3,,,,,,,,,2,,,63,0
11940,note_on,0,0,6,,,,,,,,,5,,,69,99
11940,note_on,30,0,6,,,,,,,,,5,,,81,98
11940,note_on,0,0,2,,,,,,,,,1,,,78,76
11940,note_on,0,0,4,,,,,,,,,3,,,51,99
11940,note_on,0,0,4,,,,,,,,,3,,,63,105
11940,note_on,0,0,4,,,,,,,,,3,,,63,0
11940,note_on,60,0,4,,,,,,,,,3,,,51,0
11940,note_on,0,0,3,,,,,,,,,2,,,51,99
11940,note_on,0,0,3,,,,,,,,,2,,,63,84
11940,note_on,60,0,2,,,,,,,,,1,,,69,0
11940,note_on,60,0,3,,,,,,,,,2,,,57,0
11940,note_on,30,0,7,,,,,,,,,6,,,66,99
11940,note_on,0,0,2,,,,,,,,,1,,,69,94
11940,note_on,30,0,8,,,,,,,,,7,,,51,99
11940,note_on,30,0,1,,,,,,,,,0,,,81,90
12000,note_on,120,0,10,,,,,,,,,10,,,35,0
12000,note_on,120,0,9,,,,,,,,,8,,,47,0
12000,note_on,0,0,9,,,,,,,,,8,,,47,110
12000,note_on,0,0,10,,,,,,,,,10,,,35,110
12060,note_on,0,0,3,,,,,,,,,2,,,53,94
12060,note_on,0,0,4,,,,,,,,,3,,,51,105
12060,note_on,120,0,7,,,,,,,,,6,,,66,0
12060,note_on,120,0,6,,,,,,,,,5,,,69,0
12060,note_on,0,0,6,,,,,,,,,5,,,81,0
12060,note_on,0,0,6,,,,,,,,,5,,,81,94
12060,note_on,0,0,3,,,,,,,,,2,,,65,95
12060,note_on,0,0,3,,,,,,,,,2,,,63,0
12060,note_on,0,0,7,,,,,,,,,6,,,65,104
12060,note_on,0,0,4,,,,,,,,,3,,,63,105
12060,note_on,0,0,1,,,,,,,,,0,,,81,90
12060,note_on,0,0,8,,,,,,,,,7,,,53,94
12060,note_on,120,0,8,,,,,,,,,7,,,51,0
12060,note_on,0,0,2,,,,,,,,,1,,,69,90
12060,note_on,0,0,4,,,,,,,,,3,,,63,0
12060,note_on,120,0,4,,,,,,,,,3,,,51,0
12060,note_on,0,0,2,,,,,,,,,1,,,77,84
12060,note_on,0,0,2,,,,,,,,,1,,,78,0
12060,note_on,120,0,3,,,,,,,,,2,,,51,0
12060,note_on,120,0,2,,,,,,,,,1,,,69,0
12060,note_on,120,0,1,,,,,,,,,0,,,81,0
12060,note_on,0,0,6,,,,,,,,,5,,,69,101
12120,note_on,120,0,10,,,,,,,,,10,,,35,0
12120,note_on,0,0,9,,,,,,,,,8,,,47,105
12120,note_on,120,0,9,,,,,,,,,8,,,47,0
12120,note_on,0,0,10,,,,,,,,,10,,,35,105
12120,note_on,0,0,3,,,,,,,,,2,,,66,90
12120,note_on,0,0,3,,,,,,,,,2,,,65,0
12120,note_on,0,0,3,,,,,,,,,2,,,54,94
12120,note_on,60,0,7,,,,,,,,,6,,,65,0
12120,note_on,60,0,3,,,,,,,,,2,,,53,0
12120,note_on,0,0,7,,,,,,,,,6,,,63,94
12120,note_on,60,0,2,,,,,,,,,1,,,77,0
12120,note_on,0,0,2,,,,,,,,,1,,,75,89
12120,note_on,60,0,8,,,,,,,,,7,,,53,0
12120,note_on,0,0,8,,,,,,,,,7,,,54,95
12180,note_on,120,0,6,,,,,,,,,5,,,69,0
12180,note_on,0,0,7,,,,,,,,,6,,,66,90
12180,note_on,0,0,6,,,,,,,,,5,,,81,0
12180,note_on,0,0,6,,,,,,,,,5,,,81,98
12180,note_on,0,0,6,,,,,,,,,5,,,69,101
12180,note_on,0,0,8,,,,,,,,,7,,,51,99
12180,note_on,0,0,2,,,,,,,,,1,,,69,0
12180,note_on,60,0,2,,,,,,,,,1,,,75,0
12180,note_on,120,0,1,,,,,,,,,0,,,81,0
12180,note_on,60,0,7,,,,,,,,,6,,,63,0
12180,note_on,0,0,2,,,,,,,,,1,,,78,80
12180,note_on,60,0,3,,,,,,,,,2,,,54,0
12180,note_on,0,0,3,,,,,,,,,2,,,66,0
12180,note_on,0,0,2,,,,,,,,,1,,,69,94
12180,note_on,0,0,1,,,,,,,,,0,,,81,94
12180,note_on,0,0,3,,,,,,,,,2,,,51,99
12180,note_on,0,0,3,,,,,,,,,2,,,63,89
12180,note_on,120,0,4,,,,,,,,,3,,,51,0
12180,note_on,60,0,8,,,,,,,,,7,,,54,0
12180,note_on,0,0,4,,,,,,,,,3,,,51,99
12180,note_on,0,0,4,,,,,,,,,3,,,63,93
12180,note_on,0,0,4,,,,,,,,,3,,,63,0
12240,note_on,0,0,7,,,,,,,,,6,,,62,101
12240,note_on,60,0,4,,,,,,,,,3,,,63,0
12240,note_on,60,0,6,,,,,,,,,5,,,69,0
12240,note_on,0,0,6,,,,,,,,,5,,,81,0
12240,note_on,0,0,6,,,,,,,,,5,,,82,90
12240,note_on,0,0,6,,,,,,,,,5,,,70,95
12240,note_on,0,0,10,,,,,,,,,10,,,34,101
12240,note_on,120,0,10,,,,,,,,,10,,,35,0
12240,note_on,0,0,4,,,,,,,,,3,,,51,0
12240,note_on,0,0,4,,,,,,,,,3,,,46,99
12240,note_on,0,0,4,,,,,,,,,3,,,58,94
12240,note_on,1320,0,5,,,,,,,,,4,,,63,53
12240,note_on,60,0,7,,,,,,,,,6,,,66,0
12240,note_on,60,0,2,,,,,,,,,1,,,78,0
12240,note_on,60,0,3,,,,,,,,,2,,,63,0
12240,note_on,0,0,8,,,,,,,,,7,,,53,93
12240,note_on,60,0,8,,,,,,,,,7,,,51,0
12240,note_on,60,0,1,,,,,,,,,0,,,81,0
12240,note_on,0,0,1,,,,,,,,,0,,,82,82
12240,note_on,0,0,9,,,,,,,,,8,,,46,101
12240,note_on,120,0,9,,,,,,,,,8,,,47,0
12240,note_on,0,0,3,,,,,,,,,2,,,65,74
12240,note_on,0,0,3,,,,,,,,,2,,,53,73
12240,note_on,0,0,3,,,,,,,,,2,,,51,0
12240,note_on,0,0,2,,,,,,,,,1,,,70,71
12240,note_on,0,0,2,,,,,,,,,1,,,74,74
12240,note_on,0,0,2,,,,,,,,,1,,,69,0
12260,note_on,20,0,5,,,,,,,,,4,,,63,0
12260,note_on,0,0,5,,,,,,,,,4,,,69,72
12260,note_on,0,0,5,,,,,,,,,4,,,57,76
12280,note_on,0,0,5,,,,,,,,,4,,,58,70
12280,note_on,0,0,5,,,,,,,,,4,,,70,74
12280,note_on,0,0,5,,,,,,,,,4,,,69,0
12280,note_on,20,0,5,,,,,,,,,4,,,57,0
12300,note_on,60,0,7,,,,,,,,,6,,,62,0
12300,note_on,60,0,2,,,,,,,,,1,,,70,0
12300,note_on,60,0,1,,,,,,,,,0,,,82,0
12300,note_on,60,0,3,,,,,,,,,2,,,53,0
12300,note_on,0,0,7,,,,,,,,,6,,,58,56
12300,note_on,0,0,6,,,,,,,,,5,,,82,0
12300,note_on,60,0,8,,,,,,,,,7,,,53,0
12300,note_on,0,0,2,,,,,,,,,1,,,74,0
12300,note_on,60,0,10,,,,,,,,,10,,,34,0
12300,note_on,20,0,5,,,,,,,,,4,,,58,0
12300,note_on,60,0,6,,,,,,,,,5,,,70,0
12300,note_on,0,0,5,,,,,,,,,4,,,70,0
12300,note_on,0,0,5,,,,,,,,,4,,,74,80
12300,note_on,0,0,3,,,,,,,,,2,,,65,0
12300,note_on,0,0,6,,,,,,,,,5,,,58,59
12300,note_on,60,0,9,,,,,,,,,8,,,46,0
12306,control_change,66,0,4,,,,,,,,,3,7,99,,
12308,control_change,2,0,4,,,,,,,,,3,7,90,,
12310,control_change,2,0,4,,,,,,,,,3,7,81,,
12312,control_change,2,0,4,,,,,,,,,3,7,72,,
12314,control_change,2,0,4,,,,,,,,,3,7,63,,
12320,note_on,0,0,5,,,,,,,,,4,,,72,52
12320,note_on,20,0,5,,,,,,,,,4,,,74,0
12340,note_on,20,0,5,,,,,,,,,4,,,72,0
12340,note_on,0,0,5,,,,,,,,,4,,,70,64
12360,note_on,0,0,5,,,,,,,,,4,,,62,60
12360,note_on,60,0,6,,,,,,,,,5,,,58,0
12360,note_on,0,0,6,,,,,,,,,5,,,62,44
12360,note_on,60,0,10,,,,,,,,,10,,,46,61
12360,note_on,20,0,5,,,,,,,,,4,,,70,0
12360,note_on,60,0,9,,,,,,,,,8,,,58,61
12360,note_on,60,0,8,,,,,,,,,7,,,58,43
12380,note_on,20,0,5,,,,,,,,,4,,,62,0
12380,note_on,0,0,5,,,,,,,,,4,,,69,78
12380,note_on,0,0,5,,,,,,,,,4,,,57,90
12400,note_on,0,0,5,,,,,,,,,4,,,69,0
12400,note_on,0,0,5,,,,,,,,,4,,,70,89
12400,note_on,0,0,5,,,,,,,,,4,,,58,76
12400,note_on,20,0,5,,,,,,,,,4,,,57,0
12420,note_on,0,0,6,,,,,,,,,5,,,58,56
12420,note_on,60,0,6,,,,,,,,,5,,,62,0
12420,note_on,0,0,5,,,,,,,,,4,,,70,0
12420,note_on,0,0,5,,,,,,,,,4,,,74,93
12420,note_on,0,0,7,,,,,,,,,6,,,58,44
12420,note_on,120,0,7,,,,,,,,,6,,,58,0
12420,note_on,20,0,5,,,,,,,,,4,,,58,0
12440,note_on,20,0,5,,,,,,,,,4,,,74,0
12440,note_on,0,0,5,,,,,,,,,4,,,72,67
12460,note_on,20,0,5,,,,,,,,,4,,,72,0
12460,note_on,0,0,5,,,,,,,,,4,,,70,86
12480,note_on,0,0,8,,,,,,,,,7,,,57,54
12480,note_on,60,0,6,,,,,,,,,5,,,58,0
12480,note_on,0,0,6,,,,,,,,,5,,,63,44
12480,note_on,0,0,10,,,,,,,,,10,,,45,57
12480,note_on,120,0,10,,,,,,,,,10,,,46,0
12480,note_on,0,0,5,,,,,,,,,4,,,63,73
12480,note_on,120,0,9,,,,,,,,,8,,,58,0
12480,note_on,120,0,8,,,,,,,,,7,,,58,0
12480,note_on,20,0,5,,,,,,,,,4,,,70,0
12480,note_on,0,0,9,,,,,,,,,8,,,57,57
12480,note_on,60,0,7,,,,,,,,,6,,,58,0
12480,note_on,0,0,7,,,,,,,,,6,,,60,43
12500,note_on,20,0,5,,,,,,,,,4,,,63,0
12500,note_on,0,0,5,,,,,,,,,4,,,71,81
12500,note_on,0,0,5,,,,,,,,,4,,,59,81
12520,note_on,20,0,5,,,,,,,,,4,,,59,0
12520,note_on,0,0,5,,,,,,,,,4,,,60,84
12520,note_on,0,0,5,,,,,,,,,4,,,71,0
12520,note_on,0,0,5,,,,,,,,,4,,,72,68
12540,note_on,60,0,7,,,,,,,,,6,,,60,0
12540,note_on,0,0,5,,,,,,,,,4,,,75,90
12540,note_on,60,0,6,,,,,,,,,5,,,63,0
12540,note_on,0,0,7,,,,,,,,,6,,,58,53
12540,note_on,20,0,5,,,,,,,,,4,,,60,0
12540,note_on,0,0,6,,,,,,,,,5,,,58,62
12540,note_on,0,0,5,,,,,,,,,4,,,72,0
12560,note_on,0,0,5,,,,,,,,,4,,,74,93
12560,note_on,20,0,5,,,,,,,,,4,,,75,0
12580,note_on,20,0,5,,,,,,,,,4,,,74,0
12580,note_on,0,0,5,,,,,,,,,4,,,72,70
12600,note_on,120,0,10,,,,,,,,,10,,,45,0
12600,note_on,60,0,6,,,,,,,,,5,,,58,0
12600,note_on,0,0,10,,,,,,,,,10,,,44,58
12600,note_on,0,0,6,,,,,,,,,5,,,65,45
12600,note_on,0,0,7,,,,,,,,,6,,,62,43
12600,note_on,0,0,9,,,,,,,,,8,,,56,58
12600,note_on,120,0,9,,,,,,,,,8,,,57,0
12600,note_on,20,0,5,,,,,,,,,4,,,72,0
12600,note_on,0,0,5,,,,,,,,,4,,,65,84
12600,note_on,120,0,8,,,,,,,,,7,,,57,0
12600,note_on,60,0,7,,,,,,,,,6,,,58,0
12600,note_on,0,0,8,,,,,,,,,7,,,56,62
12620,note_on,20,0,5,,,,,,,,,4,,,65,0
12620,note_on,0,0,5,,,,,,,,,4,,,73,81
12620,note_on,0,0,5,,,,,,,,,4,,,61,80
12640,note_on,20,0,5,,,,,,,,,4,,,61,0
12640,note_on,0,0,5,,,,,,,,,4,,,73,0
12640,note_on,0,0,5,,,,,,,,,4,,,62,84
12640,note_on,0,0,5,,,,,,,,,4,,,74,104
12660,note_on,0,0,7,,,,,,,,,6,,,58,52
12660,note_on,20,0,5,,,,,,,,,4,,,62,0
12660,note_on,0,0,5,,,,,,,,,4,,,74,0
12660,note_on,0,0,5,,,,,,,,,4,,,77,86
12660,note_on,60,0,7,,,,,,,,,6,,,62,0
12660,note_on,60,0,6,,,,,,,,,5,,,65,0
12660,note_on,0,0,6,,,,,,,,,5,,,58,52
12680,note_on,20,0,5,,,,,,,,,4,,,77,0
12680,note_on,0,0,5,,,,,,,,,4,,,75,95
12700,note_on,20,0,5,,,,,,,,,4,,,75,0
12700,note_on,0,0,5,,,,,,,,,4,,,74,94
12720,note_on,0,0,10,,,,,,,,,10,,,43,52
12720,note_on,0,0,9,,,,,,,,,8,,,55,52
12720,note_on,120,0,10,,,,,,,,,10,,,44,0
12720,note_on,0,0,8,,,,,,,,,7,,,55,57
12720,note_on,60,0,6,,,,,,,,,5,,,58,0
12720,note_on,60,0,7,,,,,,,,,6,,,58,0
12720,note_on,120,0,8,,,,,,,,,7,,,56,0
12720,note_on,0,0,6,,,,,,,,,5,,,67,42
12720,note_on,0,0,7,,,,,,,,,6,,,63,45
12720,note_on,120,0,9,,,,,,,,,8,,,56,0
12720,note_on,20,0,5,,,,,,,,,4,,,74,0
12720,note_on,0,0,5,,,,,,,,,4,,,67,76
12740,note_on,20,0,5,,,,,,,,,4,,,67,0
12740,note_on,0,0,5,,,,,,,,,4,,,74,99
12740,note_on,0,0,5,,,,,,,,,4,,,62,81
12760,note_on,0,0,5,,,,,,,,,4,,,63,84
12760,note_on,0,0,5,,,,,,,,,4,,,75,95
12760,note_on,0,0,5,,,,,,,,,4,,,74,0
12760,note_on,20,0,5,,,,,,,,,4,,,62,0
12780,note_on,0,0,7,,,,,,,,,6,,,58,52
12780,note_on,60,0,6,,,,,,,,,5,,,67,0
12780,note_on,60,0,7,,,,,,,,,6,,,63,0
12780,note_on,0,0,6,,,,,,,,,5,,,58,44
12780,note_on,0,0,5,,,,,,,,,4,,,79,76
12780,note_on,20,0,5,,,,,,,,,4,,,63,0
12780,note_on,0,0,5,,,,,,,,,4,,,75,0
12800,note_on,0,0,5,,,,,,,,,4,,,77,95
12800,note_on,20,0,5,,,,,,,,,4,,,79,0
12820,note_on,0,0,5,,,,,,,,,4,,,75,90
12820,note_on,20,0,5,,,,,,,,,4,,,77,0
12840,note_on,0,0,5,,,,,,,,,4,,,68,86
12840,note_on,20,0,5,,,,,,,,,4,,,75,0
12840,note_on,0,0,8,,,,,,,,,7,,,50,61
12840,note_on,120,0,8,,,,,,,,,7,,,55,0
12840,note_on,0,0,9,,,,,,,,,8,,,50,66
12840,note_on,120,0,9,,,,,,,,,8,,,55,0
12840,note_on,0,0,6,,,,,,,,,5,,,68,58
12840,note_on,60,0,6,,,,,,,,,5,,,58,0
12840,note_on,0,0,7,,,,,,,,,6,,,65,63
12840,note_on,120,0,10,,,,,,,,,10,,,43,0
12840,note_on,0,0,10,,,,,,,,,10,,,38,66
12840,note_on,60,0,7,,,,,,,,,6,,,58,0
12860,note_on,0,0,5,,,,,,,,,4,,,64,85
12860,note_on,0,0,5,,,,,,,,,4,,,76,99
12860,note_on,20,0,5,,,,,,,,,4,,,68,0
12880,note_on,0,0,5,,,,,,,,,4,,,76,0
12880,note_on,20,0,5,,,,,,,,,4,,,64,0
12880,note_on,0,0,5,,,,,,,,,4,,,65,72
12880,note_on,0,0,5,,,,,,,,,4,,,77,95
12900,note_on,0,0,5,,,,,,,,,4,,,77,0
12900,note_on,0,0,5,,,,,,,,,4,,,80,93
12900,note_on,0,0,5,,,,,,,,,4,,,68,74
12900,note_on,60,0,8,,,,,,,,,7,,,50,0
12900,note_on,0,0,6,,,,,,,,,5,,,58,73
12900,note_on,60,0,6,,,,,,,,,5,,,68,0
12900,note_on,60,0,7,,,,,,,,,6,,,65,0
12900,note_on,0,0,7,,,,,,,,,6,,,58,56
12900,note_on,20,0,5,,,,,,,,,4,,,65,0
12920,note_on,20,0,5,,,,,,,,,4,,,68,0
12920,note_on,0,0,5,,,,,,,,,4,,,67,80
12920,note_on,0,0,5,,,,,,,,,4,,,79,94
12920,note_on,0,0,5,,,,,,,,,4,,,80,0
12940,note_on,0,0,5,,,,,,,,,4,,,79,0
12940,note_on,0,0,5,,,,,,,,,4,,,65,86
12940,note_on,20,0,5,,,,,,,,,4,,,67,0
12940,note_on,0,0,5,,,,,,,,,4,,,77,95
12960,note_on,20,0,5,,,,,,,,,4,,,65,0
12960,note_on,120,0,10,,,,,,,,,10,,,38,0
12960,note_on,60,0,6,,,,,,,,,5,,,58,0
12960,note_on,60,0,8,,,,,,,,,7,,,51,62
12960,note_on,0,0,10,,,,,,,,,10,,,39,54
12960,note_on,0,0,6,,,,,,,,,5,,,67,62
12960,note_on,0,0,9,,,,,,,,,8,,,51,54
12960,note_on,120,0,9,,,,,,,,,8,,,50,0
12960,note_on,60,0,7,,,,,,,,,6,,,58,0
12960,note_on,0,0,7,,,,,,,,,6,,,63,44
12960,note_on,0,0,5,,,,,,,,,4,,,77,0
12960,note_on,0,0,4,,,,,,,,,3,,,51,95
12960,note_on,0,0,5,,,,,,,,,4,,,63,63
12960,note_on,0,0,5,,,,,,,,,4,,,79,85
12960,note_on,0,0,4,,,,,,,,,3,,,63,84
12960,note_on,0,0,4,,,,,,,,,3,,,46,0
12960,note_on,646,0,4,,,,,,,,,3,,,58,0
12990,note_on,0,0,5,,,,,,,,,4,,,58,72
12990,note_on,30,0,5,,,,,,,,,4,,,63,0
13020,note_on,60,0,8,,,,,,,,,7,,,51,0
13020,note_on,60,0,10,,,,,,,,,10,,,39,0
13020,note_on,60,0,7,,,,,,,,,6,,,63,0
13020,note_on,60,0,9,,,,,,,,,8,,,51,0
13020,note_on,60,0,4,,,,,,,,,3,,,51,0
13020,note_on,0,0,5,,,,,,,,,4,,,55,76
13020,note_on,30,0,5,,,,,,,,,4,,,58,0
13020,note_on,60,0,6,,,,,,,,,5,,,67,0
13020,note_on,0,0,4,,,,,,,,,3,,,63,0
13050,note_on,0,0,5,,,,,,,,,4,,,51,72
13050,note_on,30,0,5,,,,,,,,,4,,,55,0
13080,note_on,0,0,5,,,,,,,,,4,,,79,0
13080,note_on,0,0,5,,,,,,,,,4,,,79,61
13080,note_on,0,0,5,,,,,,,,,4,,,75,65
13080,note_on,0,0,5,,,,,,,,,4,,,70,62
13080,note_on,0,0,5,,,,,,,,,4,,,67,64
13080,note_on,30,0,5,,,,,,,,,4,,,51,0
13080,note_on,0,0,5,,,,,,,,,4,,,46,72
13110,note_on,30,0,5,,,,,,,,,4,,,46,0
13110,note_on,0,0,5,,,,,,,,,4,,,43,80
13136,control_change,116,0,4,,,,,,,,,3,7,99,,
13140,note_on,0,0,5,,,,,,,,,4,,,39,72
13140,note_on,30,0,5,,,,,,,,,4,,,43,0
13170,note_on,30,0,5,,,,,,,,,4,,,39,0
13170,note_on,0,0,5,,,,,,,,,4,,,37,69
13200,note_on,0,0,5,,,,,,,,,4,,,79,0
13200,note_on,0,0,5,,,,,,,,,4,,,67,0
13200,note_on,0,0,5,,,,,,,,,4,,,70,0
13200,note_on,0,0,5,,,,,,,,,4,,,80,61
13200,note_on,0,0,5,,,,,,,,,4,,,36,84
13200,note_on,0,0,5,,,,,,,,,4,,,75,0
13200,note_on,30,0,5,,,,,,,,,4,,,37,0
13215,note_on,15,0,5,,,,,,,,,4,,,80,0
13215,note_on,0,0,5,,,,,,,,,4,,,82,71
13220,note_on,0,0,5,,,,,,,,,4,,,80,80
13220,note_on,5,0,5,,,,,,,,,4,,,82,0
13225,note_on,0,0,5,,,,,,,,,4,,,79,73
13225,note_on,5,0,5,,,,,,,,,4,,,80,0
13230,note_on,5,0,5,,,,,,,,,4,,,79,0
13230,note_on,0,0,5,,,,,,,,,4,,,36,0
13230,note_on,0,0,5,,,,,,,,,4,,,80,69
13230,note_on,0,0,5,,,,,,,,,4,,,39,73
13245,note_on,15,0,5,,,,,,,,,4,,,80,0
13245,note_on,0,0,5,,,,,,,,,4,,,82,72
13260,note_on,15,0,5,,,,,,,,,4,,,82,0
13260,note_on,0,0,5,,,,,,,,,4,,,39,0
13260,note_on,0,0,5,,,,,,,,,4,,,32,80
13260,note_on,0,0,5,,,,,,,,,4,,,86,69
13275,note_on,0,0,5,,,,,,,,,4,,,84,65
13275,note_on,15,0,5,,,,,,,,,4,,,86,0
13290,note_on,15,0,5,,,,,,,,,4,,,84,0
13290,note_on,0,0,5,,,,,,,,,4,,,32,0
13290,note_on,0,0,5,,,,,,,,,4,,,82,49
13290,note_on,0,0,5,,,,,,,,,4,,,77,61
13290,note_on,0,0,5,,,,,,,,,4,,,44,60
13305,note_on,15,0,5,,,,,,,,,4,,,77,0
13305,note_on,0,0,5,,,,,,,,,4,,,80,58
13305,note_on,0,0,5,,,,,,,,,4,,,82,0
13320,note_on,0,0,5,,,,,,,,,4,,,79,64
13320,note_on,15,0,5,,,,,,,,,4,,,80,0
13320,note_on,0,0,5,,,,,,,,,4,,,44,0
13320,note_on,0,0,5,,,,,,,,,4,,,75,52
13320,note_on,0,0,5,,,,,,,,,4,,,34,80
13350,note_on,30,0,5,,,,,,,,,4,,,34,0
13350,note_on,0,0,5,,,,,,,,,4,,,39,80
13380,note_on,30,0,5,,,,,,,,,4,,,39,0
13380,note_on,0,0,5,,,,,,,,,4,,,79,0
13380,note_on,0,0,5,,,,,,,,,4,,,79,58
13380,note_on,0,0,5,,,,,,,,,4,,,43,73
13395,note_on,15,0,5,,,,,,,,,4,,,79,0
13395,note_on,0,0,5,,,,,,,,,4,,,80,78
13410,note_on,0,0,5,,,,,,,,,4,,,81,80
13410,note_on,0,0,5,,,,,,,,,4,,,46,67
13410,note_on,15,0,5,,,,,,,,,4,,,80,0
13410,note_on,0,0,5,,,,,,,,,4,,,43,0
13425,note_on,15,0,5,,,,,,,,,4,,,81,0
13425,note_on,0,0,5,,,,,,,,,4,,,82,71
13440,note_on,15,0,5,,,,,,,,,4,,,82,0
13440,note_on,0,0,5,,,,,,,,,4,,,46,0
13440,note_on,0,0,5,,,,,,,,,4,,,75,0
13440,note_on,0,0,5,,,,,,,,,4,,,77,48
13440,note_on,0,0,5,,,,,,,,,4,,,74,57
13440,note_on,0,0,5,,,,,,,,,4,,,34,80
13470,note_on,30,0,5,,,,,,,,,4,,,34,0
13470,note_on,0,0,5,,,,,,,,,4,,,38,43
13500,note_on,30,0,5,,,,,,,,,4,,,38,0
13500,note_on,0,0,5,,,,,,,,,4,,,74,0
13500,note_on,0,0,5,,,,,,,,,4,,,41,76
13500,note_on,0,0,5,,,,,,,,,4,,,77,0
13530,note_on,30,0,5,,,,,,,,,4,,,41,0
13530,note_on,0,0,5,,,,,,,,,4,,,45,59
13560,note_on,30,0,5,,,,,,,,,4,,,45,0
13560,note_on,0,0,5,,,,,,,,,4,,,46,74
13590,note_on,30,0,5,,,,,,,,,4,,,46,0
13590,note_on,0,0,5,,,,,,,,,4,,,82,61
13590,note_on,0,0,5,,,,,,,,,4,,,50,78
13620,note_on,30,0,5,,,,,,,,,4,,,50,0
13620,note_on,0,0,5,,,,,,,,,4,,,82,0
13620,note_on,0,0,5,,,,,,,,,4,,,82,71
13620,note_on,0,0,5,,,,,,,,,4,,,53,67
13650,note_on,0,0,5,,,,,,,,,4,,,82,65
13650,note_on,0,0,5,,,,,,,,,4,,,82,0
13650,note_on,30,0,5,,,,,,,,,4,,,53,0
13650,note_on,0,0,5,,,,,,,,,4,,,58,72
13657,note_on,7,0,5,,,,,,,,,4,,,81,85
13658,note_on,1,0,5,,,,,,,,,4,,,82,0
13665,note_on,0,0,5,,,,,,,,,4,,,82,62
13665,note_on,7,0,5,,,,,,,,,4,,,81,0
13672,note_on,7,0,5,,,,,,,,,4,,,84,65
13673,note_on,1,0,5,,,,,,,,,4,,,82,0
13680,note_on,0,0,5,,,,,,,,,4,,,48,72
13680,note_on,0,0,5,,,,,,,,,4,,,82,72
13680,note_on,0,0,5,,,,,,,,,4,,,58,0
13680,note_on,7,0,5,,,,,,,,,4,,,84,0
13710,note_on,30,0,5,,,,,,,,,4,,,48,0
13710,note_on,0,0,5,,,,,,,,,4,,,51,73
13740,note_on,0,0,5,,,,,,,,,4,,,82,0
13740,note_on,30,0,5,,,,,,,,,4,,,51,0
13740,note_on,0,0,5,,,,,,,,,4,,,56,68
13740,note_on,0,0,5,,,,,,,,,4,,,80,74
13770,note_on,0,0,5,,,,,,,,,4,,,60,66
13770,note_on,30,0,5,,,,,,,,,4,,,56,0
13800,note_on,30,0,5,,,,,,,,,4,,,60,0
13800,note_on,0,0,5,,,,,,,,,4,,,50,73
13830,note_on,30,0,5,,,,,,,,,4,,,50,0
13830,note_on,0,0,5,,,,,,,,,4,,,80,0
13830,note_on,0,0,5,,,,,,,,,4,,,88,78
13830,note_on,0,0,5,,,,,,,,,4,,,53,72
13845,note_on,15,0,5,,,,,,,,,4,,,88,0
13845,note_on,0,0,5,,,,,,,,,4,,,89,73
13860,note_on,0,0,5,,,,,,,,,4,,,56,76
13860,note_on,0,0,5,,,,,,,,,4,,,87,81
13860,note_on,15,0,5,,,,,,,,,4,,,89,0
13860,note_on,0,0,5,,,,,,,,,4,,,53,0
13875,note_on,15,0,5,,,,,,,,,4,,,87,0
13875,note_on,0,0,5,,,,,,,,,4,,,86,48
13890,note_on,15,0,5,,,,,,,,,4,,,86,0
13890,note_on,0,0,5,,,,,,,,,4,,,56,0
13890,note_on,0,0,5,,,,,,,,,4,,,84,43
13890,note_on,0,0,5,,,,,,,,,4,,,58,57
13905,note_on,15,0,5,,,,,,,,,4,,,84,0
13905,note_on,0,0,5,,,,,,,,,4,,,82,73
13920,note_on,0,0,5,,,,,,,,,4,,,51,74
13920,note_on,0,0,5,,,,,,,,,4,,,80,76
13920,note_on,15,0,5,,,,,,,,,4,,,82,0
13920,note_on,0,0,5,,,,,,,,,4,,,58,0
13935,note_on,15,0,5,,,,,,,,,4,,,80,0
13935,note_on,0,0,5,,,,,,,,,4,,,79,76
13950,note_on,15,0,5,,,,,,,,,4,,,79,0
13950,note_on,0,0,5,,,,,,,,,4,,,51,0
13950,note_on,0,0,5,,,,,,,,,4,,,89,76
13950,note_on,0,0,5,,,,,,,,,4,,,55,65
13965,note_on,15,0,5,,,,,,,,,4,,,89,0
13965,note_on,0,0,5,,,,,,,,,4,,,87,85
13980,note_on,15,0,5,,,,,,,,,4,,,87,0
13980,note_on,0,0,5,,,,,,,,,4,,,55,0
13980,note_on,0,0,5,,,,,,,,,4,,,86,77
13980,note_on,0,0,5,,,,,,,,,4,,,43,61
13995,note_on,15,0,5,,,,,,,,,4,,,86,0
13995,note_on,0,0,5,,,,,,,,,4,,,84,73
14010,note_on,0,0,5,,,,,,,,,4,,,43,0
14010,note_on,0,0,5,,,,,,,,,4,,,82,58
14010,note_on,15,0,5,,,,,,,,,4,,,84,0
14010,note_on,0,0,5,,,,,,,,,4,,,46,72
14025,note_on,0,0,5,,,,,,,,,4,,,80,73
14025,note_on,15,0,5,,,,,,,,,4,,,82,0
14040,note_on,15,0,5,,,,,,,,,4,,,80,0
14040,note_on,0,0,5,,,,,,,,,4,,,46,0
14040,note_on,0,0,5,,,,,,,,,4,,,79,69
14040,note_on,0,0,5,,,,,,,,,4,,,44,68
14055,note_on,15,0,5,,,,,,,,,4,,,79,0
14055,note_on,0,0,5,,,,,,,,,4,,,77,61
14070,note_on,0,0,5,,,,,,,,,4,,,53,64
14070,note_on,0,0,5,,,,,,,,,4,,,83,72
14070,note_on,15,0,5,,,,,,,,,4,,,77,0
14070,note_on,0,0,5,,,,,,,,,4,,,44,0
14085,note_on,15,0,5,,,,,,,,,4,,,83,0
14085,note_on,0,0,5,,,,,,,,,4,,,84,73
14100,note_on,15,0,5,,,,,,,,,4,,,84,0
14100,note_on,0,0,5,,,,,,,,,4,,,53,0
14100,note_on,0,0,5,,,,,,,,,4,,,82,78
14100,note_on,0,0,5,,,,,,,,,4,,,48,81
14115,note_on,0,0,5,,,,,,,,,4,,,80,69
14115,note_on,15,0,5,,,,,,,,,4,,,82,0
14130,note_on,0,0,5,,,,,,,,,4,,,56,65
14130,note_on,0,0,5,,,,,,,,,4,,,79,71
14130,note_on,15,0,5,,,,,,,,,4,,,80,0
14130,note_on,0,0,5,,,,,,,,,4,,,48,0
14145,note_on,15,0,5,,,,,,,,,4,,,79,0
14145,note_on,0,0,5,,,,,,,,,4,,,77,71
14160,note_on,15,0,5,,,,,,,,,4,,,77,0
14160,note_on,0,0,5,,,,,,,,,4,,,56,0
14160,note_on,0,0,5,,,,,,,,,4,,,82,65
14160,note_on,0,0,5,,,,,,,,,4,,,46,65
14182,note_on,22,0,5,,,,,,,,,4,,,84,72
14183,note_on,1,0,5,,,,,,,,,4,,,82,0
14186,note_on,0,0,5,,,,,,,,,4,,,82,69
14186,note_on,3,0,5,,,,,,,,,4,,,84,0
14189,note_on,3,0,5,,,,,,,,,4,,,81,76
14190,note_on,1,0,5,,,,,,,,,4,,,82,0
14190,note_on,0,0,5,,,,,,,,,4,,,46,0
14190,note_on,0,0,5,,,,,,,,,4,,,55,64
14193,note_on,3,0,5,,,,,,,,,4,,,81,0
14193,note_on,0,0,5,,,,,,,,,4,,,82,74
14197,note_on,4,0,5,,,,,,,,,4,,,82,0
14205,note_on,8,0,5,,,,,,,,,4,,,84,61
14213,note_on,8,0,5,,,,,,,,,4,,,84,0
14220,note_on,0,0,5,,,,,,,,,4,,,75,67
14220,note_on,0,0,5,,,,,,,,,4,,,51,74
14220,note_on,7,0,5,,,,,,,,,4,,,55,0
14250,note_on,0,0,5,,,,,,,,,4,,,55,56
14250,note_on,30,0,5,,,,,,,,,4,,,51,0
14280,note_on,30,0,5,,,,,,,,,4,,,55,0
14280,note_on,0,0,5,,,,,,,,,4,,,75,0
14280,note_on,0,0,5,,,,,,,,,4,,,77,65
14280,note_on,0,0,5,,,,,,,,,4,,,46,71
14295,note_on,15,0,5,,,,,,,,,4,,,77,0
14295,note_on,0,0,5,,,,,,,,,4,,,75,73
14310,note_on,0,0,5,,,,,,,,,4,,,74,86
14310,note_on,0,0,5,,,,,,,,,4,,,46,0
14310,note_on,0,0,5,,,,,,,,,4,,,56,72
14310,note_on,15,0,5,,,,,,,,,4,,,75,0
14325,note_on,0,0,5,,,,,,,,,4,,,75,72
14325,note_on,15,0,5,,,,,,,,,4,,,74,0
14340,note_on,0,0,5,,,,,,,,,4,,,50,89
14340,note_on,0,0,5,,,,,,,,,4,,,79,65
14340,note_on,15,0,5,,,,,,,,,4,,,75,0
14340,note_on,0,0,5,,,,,,,,,4,,,56,0
14370,note_on,30,0,5,,,,,,,,,4,,,50,0
14370,note_on,0,0,5,,,,,,,,,4,,,79,0
14370,note_on,0,0,5,,,,,,,,,4,,,77,80
14370,note_on,0,0,5,,,,,,,,,4,,,56,57
14400,note_on,30,0,5,,,,,,,,,4,,,56,0
14400,note_on,0,0,5,,,,,,,,,4,,,77,0
14400,note_on,0,0,5,,,,,,,,,4,,,51,73
14410,note_on,10,0,5,,,,,,,,,4,,,51,0
14410,note_on,0,0,5,,,,,,,,,4,,,75,66
14410,note_on,0,0,5,,,,,,,,,4,,,55,64
14420,note_on,10,0,5,,,,,,,,,4,,,55,0
14420,note_on,0,0,5,,,,,,,,,4,,,75,0
14420,note_on,0,0,5,,,,,,,,,4,,,79,84
14430,note_on,10,0,5,,,,,,,,,4,,,79,0
14430,note_on,0,0,5,,,,,,,,,4,,,63,73
14440,note_on,10,0,5,,,,,,,,,4,,,63,0
14440,note_on,0,0,5,,,,,,,,,4,,,75,65
14440,note_on,0,0,5,,,,,,,,,4,,,67,70
14450,note_on,10,0,5,,,,,,,,,4,,,67,0
14450,note_on,0,0,5,,,,,,,,,4,,,75,0
14450,note_on,0,0,5,,,,,,,,,4,,,79,80
14460,note_on,10,0,5,,,,,,,,,4,,,79,0
14460,note_on,0,0,5,,,,,,,,,4,,,62,78
14470,note_on,0,0,5,,,,,,,,,4,,,74,74
14470,note_on,10,0,5,,,,,,,,,4,,,62,0
14470,note_on,0,0,5,,,,,,,,,4,,,65,64
14480,note_on,10,0,5,,,,,,,,,4,,,65,0
14480,note_on,0,0,5,,,,,,,,,4,,,74,0
14480,note_on,0,0,5,,,,,,,,,4,,,77,67
14490,note_on,10,0,5,,,,,,,,,4,,,77,0
14490,note_on,0,0,5,,,,,,,,,4,,,60,74
14500,note_on,10,0,5,,,,,,,,,4,,,60,0
14500,note_on,0,0,5,,,,,,,,,4,,,63,68
14510,note_on,0,0,5,,,,,,,,,4,,,75,81
14510,note_on,10,0,5,,,,,,,,,4,,,63,0
14520,note_on,0,0,5,,,,,,,,,4,,,58,69
14520,note_on,10,0,5,,,,,,,,,4,,,75,0
14530,note_on,0,0,5,,,,,,,,,4,,,62,68
14530,note_on,10,0,5,,,,,,,,,4,,,58,0
14530,note_on,0,0,5,,,,,,,,,4,,,70,72
14540,note_on,10,0,5,,,,,,,,,4,,,62,0
14540,note_on,0,0,5,,,,,,,,,4,,,70,0
14540,note_on,0,0,5,,,,,,,,,4,,,74,82
14550,note_on,10,0,5,,,,,,,,,4,,,74,0
14550,note_on,0,0,5,,,,,,,,,4,,,60,85
14560,note_on,10,0,5,,,,,,,,,4,,,60,0
14560,note_on,0,0,5,,,,,,,,,4,,,63,72
14570,note_on,10,0,5,,,,,,,,,4,,,63,0
14570,note_on,0,0,5,,,,,,,,,4,,,75,82
14580,note_on,0,0,5,,,,,,,,,4,,,58,65
14580,note_on,10,0,5,,,,,,,,,4,,,75,0
14590,note_on,10,0,5,,,,,,,,,4,,,58,0
14590,note_on,0,0,5,,,,,,,,,4,,,70,67
14590,note_on,0,0,5,,,,,,,,,4,,,62,70
14600,note_on,10,0,5,,,,,,,,,4,,,62,0
14600,note_on,0,0,5,,,,,,,,,4,,,70,0
14600,note_on,0,0,5,,,,,,,,,4,,,74,93
14610,note_on,0,0,5,,,,,,,,,4,,,56,67
14610,note_on,10,0,5,,,,,,,,,4,,,74,0
14620,note_on,0,0,5,,,,,,,,,4,,,68,69
14620,note_on,10,0,5,,,,,,,,,4,,,56,0
14620,note_on,0,0,5,,,,,,,,,4,,,60,69
14630,note_on,0,0,5,,,,,,,,,4,,,68,0
14630,note_on,0,0,5,,,,,,,,,4,,,72,62
14630,note_on,10,0,5,,,,,,,,,4,,,60,0
14640,note_on,10,0,5,,,,,,,,,4,,,72,0
14640,note_on,0,0,5,,,,,,,,,4,,,55,77
14650,note_on,0,0,5,,,,,,,,,4,,,58,64
14650,note_on,10,0,5,,,,,,,,,4,,,55,0
14650,note_on,0,0,5,,,,,,,,,4,,,67,69
14660,note_on,10,0,5,,,,,,,,,4,,,58,0
14660,note_on,0,0,5,,,,,,,,,4,,,70,64
14660,note_on,0,0,5,,,,,,,,,4,,,67,0
14670,note_on,10,0,5,,,,,,,,,4,,,70,0
14670,note_on,0,0,5,,,,,,,,,4,,,56,73
14680,note_on,10,0,5,,,,,,,,,4,,,56,0
14680,note_on,0,0,5,,,,,,,,,4,,,68,72
14680,note_on,0,0,5,,,,,,,,,4,,,60,60
14690,note_on,0,0,5,,,,,,,,,4,,,68,0
14690,note_on,10,0,5,,,,,,,,,4,,,60,0
14690,note_on,0,0,5,,,,,,,,,4,,,72,57
14700,note_on,10,0,5,,,,,,,,,4,,,72,0
14700,note_on,0,0,5,,,,,,,,,4,,,55,80
14710,note_on,10,0,5,,,,,,,,,4,,,55,0
14710,note_on,0,0,5,,,,,,,,,4,,,67,74
14710,note_on,0,0,5,,,,,,,,,4,,,58,71
14720,note_on,0,0,5,,,,,,,,,4,,,67,0
14720,note_on,0,0,5,,,,,,,,,4,,,70,80
14720,note_on,10,0,5,,,,,,,,,4,,,58,0
14730,note_on,10,0,5,,,,,,,,,4,,,70,0
14730,note_on,0,0,5,,,,,,,,,4,,,53,80
14740,note_on,0,0,5,,,,,,,,,4,,,56,72
14740,note_on,0,0,5,,,,,,,,,4,,,65,74
14740,note_on,10,0,5,,,,,,,,,4,,,53,0
14750,note_on,0,0,5,,,,,,,,,4,,,65,0
14750,note_on,0,0,5,,,,,,,,,4,,,68,80
14750,note_on,10,0,5,,,,,,,,,4,,,56,0
14760,note_on,2460,0,3,,,,,,,,,2,,,63,59
14760,note_on,0,0,3,,,,,,,,,2,,,63,65
14760,note_on,0,0,10,,,,,,,,,10,,,39,64
14760,program_change,1740,0,10,,,,,,,,45,10,,,,
14760,note_on,0,0,5,,,,,,,,,4,,,51,78
14760,note_on,10,0,5,,,,,,,,,4,,,68,0
14760,program_change,1740,0,6,,,,,,,,45,5,,,,
14760,note_on,1624,0,4,,,,,,,,,3,,,67,68
14760,program_change,1740,0,7,,,,,,,,45,6,,,,
14760,note_on,0,0,4,,,,,,,,,3,,,63,62
14760,program_change,1740,0,9,,,,,,,,45,8,,,,
14760,note_on,0,0,2,,,,,,,,,1,,,70,43
14760,note_on,0,0,9,,,,,,,,,8,,,51,64
14760,program_change,1740,0,8,,,,,,,,45,7,,,,
14760,note_on,2460,0,2,,,,,,,,,1,,,79,39
14770,note_on,0,0,5,,,,,,,,,4,,,63,62
14770,note_on,0,0,5,,,,,,,,,4,,,55,64
14770,note_on,10,0,5,,,,,,,,,4,,,51,0
14780,note_on,0,0,5,,,,,,,,,4,,,67,84
14780,note_on,0,0,5,,,,,,,,,4,,,63,0
14780,note_on,10,0,5,,,,,,,,,4,,,55,0
14790,note_on,0,0,5,,,,,,,,,4,,,46,76
14790,note_on,10,0,5,,,,,,,,,4,,,67,0
14800,note_on,0,0,5,,,,,,,,,4,,,51,73
14800,note_on,0,0,5,,,,,,,,,4,,,58,61
14800,note_on,10,0,5,,,,,,,,,4,,,46,0
14810,note_on,10,0,5,,,,,,,,,4,,,51,0
14810,note_on,0,0,5,,,,,,,,,4,,,63,81
14810,note_on,0,0,5,,,,,,,,,4,,,58,0
14820,note_on,60,0,9,,,,,,,,,8,,,51,0
14820,note_on,60,0,8,,,,,,,,,7,,,58,71
14820,note_on,60,0,6,,,,,,,,,5,,,67,78
14820,note_on,60,0,7,,,,,,,,,6,,,63,73
14820,note_on,0,0,5,,,,,,,,,4,,,43,80
14820,note_on,10,0,5,,,,,,,,,4,,,63,0
14820,note_on,60,0,10,,,,,,,,,10,,,39,0
14830,note_on,0,0,5,,,,,,,,,4,,,55,65
14830,note_on,0,0,5,,,,,,,,,4,,,46,71
14830,note_on,10,0,5,,,,,,,,,4,,,43,0
14840,note_on,0,0,5,,,,,,,,,4,,,55,0
14840,note_on,0,0,5,,,,,,,,,4,,,58,64
14840,note_on,10,0,5,,,,,,,,,4,,,46,0
14850,note_on,0,0,5,,,,,,,,,4,,,46,78
14850,note_on,10,0,5,,,,,,,,,4,,,58,0
14860,note_on,0,0,5,,,,,,,,,4,,,51,72
14860,note_on,0,0,5,,,,,,,,,4,,,58,71
14860,note_on,10,0,5,,,,,,,,,4,,,46,0
14870,note_on,0,0,5,,,,,,,,,4,,,63,77
14870,note_on,0,0,5,,,,,,,,,4,,,58,0
14870,note_on,10,0,5,,,,,,,,,4,,,51,0
14880,note_on,60,0,6,,,,,,,,,5,,,67,0
14880,note_on,60,0,10,,,,,,,,,10,,,36,67
14880,note_on,60,0,7,,,,,,,,,6,,,63,0
14880,note_on,10,0,5,,,,,,,,,4,,,63,0
14880,note_on,60,0,8,,,,,,,,,7,,,58,0
14880,note_on,120,0,2,,,,,,,,,1,,,70,0
14880,note_on,0,0,2,,,,,,,,,1,,,79,0
14880,note_on,0,0,2,,,,,,,,,1,,,79,40
14880,note_on,0,0,2,,,,,,,,,1,,,75,43
14880,note_on,60,0,9,,,,,,,,,8,,,48,67
14880,note_on,0,0,3,,,,,,,,,2,,,60,59
14880,note_on,120,0,3,,,,,,,,,2,,,63,0
14880,note_on,0,0,5,,,,,,,,,4,,,43,77
14890,note_on,10,0,5,,,,,,,,,4,,,43,0
14890,note_on,0,0,5,,,,,,,,,4,,,55,64
14890,note_on,0,0,5,,,,,,,,,4,,,48,65
14900,note_on,0,0,5,,,,,,,,,4,,,55,0
14900,note_on,0,0,5,,,,,,,,,4,,,60,73
14900,note_on,10,0,5,,,,,,,,,4,,,48,0
14910,note_on,10,0,5,,,,,,,,,4,,,60,0
14910,note_on,0,0,5,,,,,,,,,4,,,48,80
14920,note_on,10,0,5,,,,,,,,,4,,,48,0
14920,note_on,0,0,5,,,,,,,,,4,,,60,72
14920,note_on,0,0,5,,,,,,,,,4,,,51,73
14930,note_on,0,0,5,,,,,,,,,4,,,63,81
14930,note_on,10,0,5,,,,,,,,,4,,,51,0
14930,note_on,0,0,5,,,,,,,,,4,,,60,0
14940,note_on,60,0,10,,,,,,,,,10,,,36,0
14940,note_on,60,0,8,,,,,,,,,7,,,60,71
14940,note_on,60,0,7,,,,,,,,,6,,,63,72
14940,note_on,10,0,5,,,,,,,,,4,,,63,0
14940,note_on,0,0,5,,,,,,,,,4,,,51,82
14940,note_on,60,0,9,,,,,,,,,8,,,48,0
14940,note_on,60,0,6,,,,,,,,,5,,,67,81
14950,note_on,10,0,5,,,,,,,,,4,,,51,0
14950,note_on,0,0,5,,,,,,,,,4,,,63,65
14950,note_on,0,0,5,,,,,,,,,4,,,55,68
14960,note_on,0,0,5,,,,,,,,,4,,,63,0
14960,note_on,0,0,5,,,,,,,,,4,,,67,84
14960,note_on,10,0,5,,,,,,,,,4,,,55,0
14970,note_on,0,0,5,,,,,,,,,4,,,48,81
14970,note_on,10,0,5,,,,,,,,,4,,,67,0
14980,note_on,10,0,5,,,,,,,,,4,,,48,0
14980,note_on,0,0,5,,,,,,,,,4,,,60,74
14980,note_on,0,0,5,,,,,,,,,4,,,51,74
14990,note_on,10,0,5,,,,,,,,,4,,,51,0
14990,note_on,0,0,5,,,,,,,,,4,,,60,0
14990,note_on,0,0,5,,,,,,,,,4,,,63,81
15000,note_on,0,0,4,,,,,,,,,3,,,68,61
15000,note_on,0,0,4,,,,,,,,,3,,,65,56
15000,note_on,0,0,4,,,,,,,,,3,,,67,0
15000,note_on,240,0,4,,,,,,,,,3,,,63,0
15000,note_on,60,0,9,,,,,,,,,8,,,44,55
15000,note_on,0,0,5,,,,,,,,,4,,,44,81
15000,note_on,0,0,3,,,,,,,,,2,,,60,46
15000,note_on,120,0,2,,,,,,,,,1,,,75,0
15000,note_on,60,0,6,,,,,,,,,5,,,67,0
15000,note_on,0,0,2,,,,,,,,,1,,,79,0
15000,note_on,60,0,10,,,,,,,,,10,,,32,55
15000,note_on,60,0,7,,,,,,,,,6,,,63,0
15000,note_on,60,0,8,,,,,,,,,7,,,60,0
15000,note_on,0,0,3,,,,,,,,,2,,,56,68
15000,note_on,0,0,2,,,,,,,,,1,,,80,60
15000,note_on,0,0,2,,,,,,,,,1,,,77,45
15000,note_on,0,0,3,,,,,,,,,2,,,63,0
15000,note_on,120,0,3,,,,,,,,,2,,,60,0
15000,note_on,10,0,5,,,,,,,,,4,,,63,0
15010,note_on,0,0,5,,,,,,,,,4,,,48,72
15010,note_on,0,0,5,,,,,,,,,4,,,56,73
15010,note_on,10,0,5,,,,,,,,,4,,,44,0
15020,note_on,10,0,5,,,,,,,,,4,,,48,0
15020,note_on,0,0,5,,,,,,,,,4,,,56,0
15020,note_on,0,0,5,,,,,,,,,4,,,60,89
15030,note_on,10,0,5,,,,,,,,,4,,,60,0
15030,note_on,0,0,5,,,,,,,,,4,,,48,89
15040,note_on,10,0,5,,,,,,,,,4,,,48,0
15040,note_on,0,0,5,,,,,,,,,4,,,53,72
15040,note_on,0,0,5,,,,,,,,,4,,,60,73
15050,note_on,0,0,5,,,,,,,,,4,,,65,85
15050,note_on,10,0,5,,,,,,,,,4,,,53,0
15050,note_on,0,0,5,,,,,,,,,4,,,60,0
15060,note_on,60,0,8,,,,,,,,,7,,,60,80
15060,note_on,60,0,10,,,,,,,,,10,,,32,0
15060,note_on,60,0,6,,,,,,,,,5,,,68,80
15060,note_on,60,0,7,,,,,,,,,6,,,65,81
15060,note_on,10,0,5,,,,,,,,,4,,,65,0
15060,note_on,0,0,5,,,,,,,,,4,,,53,78
15060,note_on,60,0,9,,,,,,,,,8,,,44,0
15070,note_on,0,0,5,,,,,,,,,4,,,56,76
15070,note_on,0,0,5,,,,,,,,,4,,,65,73
15070,note_on,10,0,5,,,,,,,,,4,,,53,0
15080,note_on,0,0,5,,,,,,,,,4,,,68,80
15080,note_on,0,0,5,,,,,,,,,4,,,65,0
15080,note_on,10,0,5,,,,,,,,,4,,,56,0
15090,note_on,10,0,5,,,,,,,,,4,,,68,0
15090,note_on,90,0,2,,,,,,,,,1,,,80,0
15090,note_on,0,0,5,,,,,,,,,4,,,48,84
15100,note_on,0,0,5,,,,,,,,,4,,,60,72
15100,note_on,0,0,5,,,,,,,,,4,,,53,76
15100,note_on,10,0,5,,,,,,,,,4,,,48,0
15105,note_on,15,0,2,,,,,,,,,1,,,84,51
15110,note_on,0,0,5,,,,,,,,,4,,,65,84
15110,note_on,0,0,5,,,,,,,,,4,,,60,0
15110,note_on,10,0,5,,,,,,,,,4,,,53,0
15120,note_on,0,0,4,,,,,,,,,3,,,65,0
15120,note_on,120,0,4,,,,,,,,,3,,,68,0
15120,note_on,0,0,4,,,,,,,,,3,,,67,68
15120,note_on,0,0,2,,,,,,,,,1,,,77,0
15120,note_on,0,0,2,,,,,,,,,1,,,79,44
15120,note_on,0,0,2,,,,,,,,,1,,,75,53
15120,note_on,60,0,6,,,,,,,,,5,,,68,0
15120,note_on,60,0,10,,,,,,,,,10,,,34,76
15120,note_on,60,0,7,,,,,,,,,6,,,65,0
15120,note_on,0,0,5,,,,,,,,,4,,,46,77
15120,note_on,10,0,5,,,,,,,,,4,,,65,0
15120,note_on,60,0,9,,,,,,,,,8,,,46,76
15120,note_on,15,0,2,,,,,,,,,1,,,84,0
15120,note_on,0,0,4,,,,,,,,,3,,,63,72
15120,note_on,60,0,8,,,,,,,,,7,,,60,0
15120,note_on,0,0,3,,,,,,,,,2,,,60,0
15120,note_on,0,0,3,,,,,,,,,2,,,58,74
15120,note_on,120,0,3,,,,,,,,,2,,,56,0
15130,note_on,0,0,5,,,,,,,,,4,,,58,65
15130,note_on,10,0,5,,,,,,,,,4,,,46,0
15130,note_on,0,0,5,,,,,,,,,4,,,51,76
15140,note_on,0,0,5,,,,,,,,,4,,,58,0
15140,note_on,10,0,5,,,,,,,,,4,,,51,0
15140,note_on,0,0,5,,,,,,,,,4,,,63,78
15150,note_on,10,0,5,,,,,,,,,4,,,63,0
15150,note_on,0,0,5,,,,,,,,,4,,,51,81
15160,note_on,10,0,5,,,,,,,,,4,,,51,0
15160,note_on,0,0,5,,,,,,,,,4,,,55,67
15160,note_on,0,0,5,,,,,,,,,4,,,63,64
15170,note_on,10,0,5,,,,,,,,,4,,,55,0
15170,note_on,0,0,5,,,,,,,,,4,,,63,0
15170,note_on,0,0,5,,,,,,,,,4,,,67,84
15180,note_on,60,0,9,,,,,,,,,8,,,46,0
15180,note_on,60,0,8,,,,,,,,,7,,,58,67
15180,note_on,10,0,5,,,,,,,,,4,,,67,0
15180,note_on,60,0,10,,,,,,,,,10,,,34,0
15180,note_on,0,0,5,,,,,,,,,4,,,55,86
15180,note_on,60,0,6,,,,,,,,,5,,,67,77
15180,note_on,60,0,7,,,,,,,,,6,,,63,67
15190,note_on,0,0,5,,,,,,,,,4,,,58,73
15190,note_on,0,0,5,,,,,,,,,4,,,67,80
15190,note_on,10,0,5,,,,,,,,,4,,,55,0
15200,note_on,0,0,5,,,,,,,,,4,,,67,0
15200,note_on,0,0,5,,,,,,,,,4,,,70,84
15200,note_on,10,0,5,,,,,,,,,4,,,58,0
15210,note_on,10,0,5,,,,,,,,,4,,,70,0
15210,note_on,0,0,5,,,,,,,,,4,,,51,84
15220,note_on,10,0,5,,,,,,,,,4,,,51,0
15220,note_on,0,0,5,,,,,,,,,4,,,63,70
15220,note_on,0,0,5,,,,,,,,,4,,,55,68
15230,note_on,0,0,5,,,,,,,,,4,,,67,84
15230,note_on,10,0,5,,,,,,,,,4,,,55,0
15230,note_on,0,0,5,,,,,,,,,4,,,63,0
15240,note_on,10,0,5,,,,,,,,,4,,,67,0
15240,note_on,0,0,2,,,,,,,,,1,,,74,43
15240,note_on,0,0,2,,,,,,,,,1,,,77,40
15240,note_on,0,0,2,,,,,,,,,1,,,79,0
15240,note_on,120,0,2,,,,,,,,,1,,,75,0
15240,note_on,60,0,7,,,,,,,,,6,,,63,0
15240,note_on,60,0,9,,,,,,,,,8,,,58,78
15240,note_on,0,0,5,,,,,,,,,4,,,46,89
15240,note_on,0,0,4,,,,,,,,,3,,,58,61
15240,note_on,0,0,4,,,,,,,,,3,,,65,60
15240,note_on,0,0,4,,,,,,,,,3,,,67,0
15240,note_on,120,0,4,,,,,,,,,3,,,63,0
15240,note_on,60,0,8,,,,,,,,,7,,,58,0
15240,note_on,60,0,6,,,,,,,,,5,,,67,0
15240,note_on,120,0,3,,,,,,,,,2,,,58,0
15240,note_on,0,0,3,,,,,,,,,2,,,46,71
15240,note_on,60,0,10,,,,,,,,,10,,,46,78
15250,note_on,0,0,5,,,,,,,,,4,,,51,80
15250,note_on,10,0,5,,,,,,,,,4,,,46,0
15250,note_on,0,0,5,,,,,,,,,4,,,58,68
15260,note_on,10,0,5,,,,,,,,,4,,,51,0
15260,note_on,0,0,5,,,,,,,,,4,,,63,84
15260,note_on,0,0,5,,,,,,,,,4,,,58,0
15270,note_on,10,0,5,,,,,,,,,4,,,63,0
15270,note_on,0,0,5,,,,,,,,,4,,,53,89
15280,note_on,10,0,5,,,,,,,,,4,,,53,0
15280,note_on,0,0,5,,,,,,,,,4,,,65,78
15280,note_on,0,0,5,,,,,,,,,4,,,58,74
15290,note_on,0,0,5,,,,,,,,,4,,,70,81
15290,note_on,10,0,5,,,,,,,,,4,,,58,0
15290,note_on,0,0,5,,,,,,,,,4,,,65,0
15300,note_on,60,0,9,,,,,,,,,8,,,58,0
15300,note_on,0,0,4,,,,,,,,,3,,,65,0
15300,note_on,60,0,10,,,,,,,,,10,,,46,0
15300,note_on,60,0,6,,,,,,,,,5,,,65,84
15300,note_on,60,0,4,,,,,,,,,3,,,58,0
15300,note_on,60,0,3,,,,,,,,,2,,,46,0
15300,note_on,60,0,2,,,,,,,,,1,,,74,0
15300,note_on,0,0,2,,,,,,,,,1,,,77,0
15300,note_on,10,0,5,,,,,,,,,4,,,70,0
15300,note_on,60,0,8,,,,,,,,,7,,,58,69
15300,note_on,60,0,7,,,,,,,,,6,,,62,67
15300,note_on,0,0,5,,,,,,,,,4,,,50,90
15310,note_on,10,0,5,,,,,,,,,4,,,50,0
15310,note_on,0,0,5,,,,,,,,,4,,,62,76
15310,note_on,0,0,5,,,,,,,,,4,,,53,70
15320,note_on,0,0,5,,,,,,,,,4,,,62,0
15320,note_on,0,0,5,,,,,,,,,4,,,65,84
15320,note_on,10,0,5,,,,,,,,,4,,,53,0
15330,note_on,0,0,5,,,,,,,,,4,,,58,73
15330,note_on,10,0,5,,,,,,,,,4,,,65,0
15340,note_on,10,0,5,,,,,,,,,4,,,58,0
15340,note_on,0,0,5,,,,,,,,,4,,,70,70
15340,note_on,0,0,5,,,,,,,,,4,,,62,70
15350,note_on,10,0,5,,,,,,,,,4,,,62,0
15350,note_on,0,0,5,,,,,,,,,4,,,70,0
15350,note_on,0,0,5,,,,,,,,,4,,,74,98
15360,note_on,0,0,5,,,,,,,,,4,,,53,89
15360,note_on,0,0,7,,,,,,,,,6,,,65,71
15360,note_on,60,0,7,,,,,,,,,6,,,62,0
15360,note_on,0,0,8,,,,,,,,,7,,,62,54
15360,note_on,0,0,6,,,,,,,,,5,,,70,89
15360,note_on,10,0,5,,,,,,,,,4,,,74,0
15360,note_on,60,0,8,,,,,,,,,7,,,58,0
15360,note_on,60,0,6,,,,,,,,,5,,,65,0
15370,note_on,0,0,5,,,,,,,,,4,,,65,78
15370,note_on,10,0,5,,,,,,,,,4,,,53,0
15370,note_on,0,0,5,,,,,,,,,4,,,58,76
15380,note_on,10,0,5,,,,,,,,,4,,,58,0
15380,note_on,0,0,5,,,,,,,,,4,,,65,0
15380,note_on,0,0,5,,,,,,,,,4,,,70,89
15390,note_on,10,0,5,,,,,,,,,4,,,70,0
15390,note_on,0,0,5,,,,,,,,,4,,,62,85
15400,note_on,0,0,5,,,,,,,,,4,,,74,81
15400,note_on,10,0,5,,,,,,,,,4,,,62,0
15400,note_on,0,0,5,,,,,,,,,4,,,65,71
15410,note_on,0,0,5,,,,,,,,,4,,,77,81
15410,note_on,0,0,5,,,,,,,,,4,,,74,0
15410,note_on,10,0,5,,,,,,,,,4,,,65,0
15420,note_on,0,0,6,,,,,,,,,5,,,70,77
15420,note_on,0,0,7,,,,,,,,,6,,,65,65
15420,note_on,10,0,5,,,,,,,,,4,,,77,0
15420,note_on,0,0,5,,,,,,,,,4,,,58,76
15420,note_on,60,0,7,,,,,,,,,6,,,65,0
15420,note_on,60,0,8,,,,,,,,,7,,,62,0
15420,note_on,60,0,6,,,,,,,,,5,,,70,0
15420,note_on,0,0,8,,,,,,,,,7,,,62,67
15430,note_on,10,0,5,,,,,,,,,4,,,58,0
15430,note_on,0,0,5,,,,,,,,,4,,,70,70
15430,note_on,0,0,5,,,,,,,,,4,,,62,61
15440,note_on,0,0,5,,,,,,,,,4,,,70,0
15440,note_on,10,0,5,,,,,,,,,4,,,62,0
15440,note_on,0,0,5,,,,,,,,,4,,,74,99
15450,note_on,10,0,5,,,,,,,,,4,,,74,0
15450,note_on,0,0,5,,,,,,,,,4,,,65,94
15460,note_on,0,0,5,,,,,,,,,4,,,77,76
15460,note_on,10,0,5,,,,,,,,,4,,,65,0
15460,note_on,0,0,5,,,,,,,,,4,,,70,76
15470,note_on,0,0,5,,,,,,,,,4,,,77,0
15470,note_on,10,0,5,,,,,,,,,4,,,70,0
15470,note_on,0,0,5,,,,,,,,,4,,,82,76
15480,note_on,0,0,4,,,,,,,,,3,,,68,64
15480,note_on,60,0,7,,,,,,,,,6,,,65,0
15480,note_on,0,0,5,,,,,,,,,4,,,63,80
15480,note_on,10,0,5,,,,,,,,,4,,,82,0
15480,note_on,180,0,10,,,,,,,,,10,,,36,76
15480,note_on,60,0,6,,,,,,,,,5,,,70,0
15480,note_on,60,0,8,,,,,,,,,7,,,62,0
15480,control_change,180,0,4,,,,,,,,,3,7,99,,
15480,note_on,0,0,3,,,,,,,,,2,,,63,45
15480,note_on,0,0,4,,,,,,,,,3,,,63,67
15480,note_on,0,0,3,,,,,,,,,2,,,60,58
15480,control_change,180,0,3,,,,,,,,,2,7,99,,
15480,note_on,180,0,9,,,,,,,,,8,,,48,76
15480,note_on,0,0,2,,,,,,,,,1,,,80,57
15480,control_change,180,0,2,,,,,,,,,1,7,99,,
15488,control_change,8,0,3,,,,,,,,,2,7,100,,
15488,control_change,8,0,4,,,,,,,,,3,7,100,,
15488,control_change,8,0,2,,,,,,,,,1,7,100,,
15490,note_on,10,0,5,,,,,,,,,4,,,63,0
15490,note_on,0,0,5,,,,,,,,,4,,,75,72
15490,note_on,0,0,5,,,,,,,,,4,,,68,72
15494,control_change,6,0,4,,,,,,,,,3,7,101,,
15494,control_change,6,0,3,,,,,,,,,2,7,101,,
15496,control_change,8,0,2,,,,,,,,,1,7,101,,
15500,note_on,10,0,5,,,,,,,,,4,,,68,0
15500,control_change,6,0,4,,,,,,,,,3,7,102,,
15500,note_on,0,0,5,,,,,,,,,4,,,75,0
15500,note_on,0,0,5,,,,,,,,,4,,,80,77
15502,control_change,8,0,3,,,,,,,,,2,7,102,,
15504,control_change,8,0,2,,,,,,,,,1,7,102,,
15508,control_change,6,0,3,,,,,,,,,2,7,103,,
15508,control_change,8,0,4,,,,,,,,,3,7,103,,
15510,control_change,6,0,2,,,,,,,,,1,7,103,,
15510,note_on,10,0,5,,,,,,,,,4,,,80,0
15510,note_on,0,0,5,,,,,,,,,4,,,60,89
15514,control_change,6,0,4,,,,,,,,,3,7,104,,
15516,control_change,8,0,3,,,,,,,,,2,7,104,,
15518,control_change,8,0,2,,,,,,,,,1,7,104,,
15520,control_change,6,0,4,,,,,,,,,3,7,105,,
15520,note_on,0,0,5,,,,,,,,,4,,,63,72
15520,note_on,0,0,5,,,,,,,,,4,,,72,53
15520,note_on,10,0,5,,,,,,,,,4,,,60,0
15522,control_change,6,0,3,,,,,,,,,2,7,105,,
15526,control_change,8,0,2,,,,,,,,,1,7,105,,
15528,control_change,8,0,4,,,,,,,,,3,7,106,,
15530,note_on,10,0,5,,,,,,,,,4,,,63,0
15530,control_change,8,0,3,,,,,,,,,2,7,106,,
15530,note_on,0,0,5,,,,,,,,,4,,,72,0
15530,note_on,0,0,5,,,,,,,,,4,,,75,90
15534,control_change,8,0,2,,,,,,,,,1,7,106,,
15534,control_change,6,0,4,,,,,,,,,3,7,107,,
15536,control_change,6,0,3,,,,,,,,,2,7,107,,
15540,note_on,60,0,8,,,,,,,,,7,,,60,78
15540,note_on,60,0,9,,,,,,,,,8,,,48,0
15540,note_on,60,0,10,,,,,,,,,10,,,36,0
15540,control_change,6,0,2,,,,,,,,,1,7,107,,
15540,control_change,6,0,4,,,,,,,,,3,7,108,,
15540,note_on,10,0,5,,,,,,,,,4,,,75,0
15540,note_on,0,0,5,,,,,,,,,4,,,56,74
15540,note_on,60,0,6,,,,,,,,,5,,,68,86
15540,note_on,60,0,7,,,,,,,,,6,,,63,58
15544,control_change,8,0,3,,,,,,,,,2,7,108,,
15548,control_change,8,0,2,,,,,,,,,1,7,108,,
15548,control_change,8,0,4,,,,,,,,,3,7,109,,
15550,note_on,10,0,5,,,,,,,,,4,,,56,0
15550,control_change,6,0,3,,,,,,,,,2,7,109,,
15550,note_on,0,0,5,,,,,,,,,4,,,68,76
15550,note_on,0,0,5,,,,,,,,,4,,,60,78
15554,control_change,6,0,4,,,,,,,,,3,7,110,,
15556,control_change,8,0,2,,,,,,,,,1,7,109,,
15558,control_change,8,0,3,,,,,,,,,2,7,110,,
15560,note_on,10,0,5,,,,,,,,,4,,,60,0
15560,note_on,0,0,5,,,,,,,,,4,,,68,0
15560,control_change,6,0,4,,,,,,,,,3,7,111,,
15560,note_on,0,0,5,,,,,,,,,4,,,72,69
15564,control_change,8,0,2,,,,,,,,,1,7,110,,
15564,control_change,6,0,3,,,,,,,,,2,7,111,,
15568,control_change,8,0,4,,,,,,,,,3,7,112,,
15570,note_on,0,0,5,,,,,,,,,4,,,51,82
15570,note_on,10,0,5,,,,,,,,,4,,,72,0
15570,control_change,6,0,3,,,,,,,,,2,7,112,,
15570,control_change,6,0,2,,,,,,,,,1,7,111,,
15574,control_change,6,0,4,,,,,,,,,3,7,113,,
15578,control_change,8,0,2,,,,,,,,,1,7,112,,
15578,control_change,8,0,3,,,,,,,,,2,7,113,,
15580,note_on,10,0,5,,,,,,,,,4,,,51,0
15580,control_change,6,0,4,,,,,,,,,3,7,114,,
15580,note_on,0,0,5,,,,,,,,,4,,,56,76
15580,note_on,0,0,5,,,,,,,,,4,,,63,73
15584,control_change,6,0,3,,,,,,,,,2,7,114,,
15586,control_change,8,0,2,,,,,,,,,1,7,113,,
15588,control_change,8,0,4,,,,,,,,,3,7,115,,
15590,note_on,10,0,5,,,,,,,,,4,,,56,0
15590,note_on,0,0,5,,,,,,,,,4,,,63,0
15590,note_on,0,0,5,,,,,,,,,4,,,68,89
15592,control_change,8,0,3,,,,,,,,,2,7,115,,
15594,control_change,6,0,4,,,,,,,,,3,7,116,,
15594,control_change,8,0,2,,,,,,,,,1,7,114,,
15598,control_change,6,0,3,,,,,,,,,2,7,116,,
15600,note_on,6,0,4,,,,,,,,,3,,,63,0
15600,control_change,0,0,4,,,,,,,,,3,7,117,,
15600,note_on,0,0,4,,,,,,,,,3,,,65,72
15600,note_on,60,0,7,,,,,,,,,6,,,63,0
15600,note_on,2,0,3,,,,,,,,,2,,,60,0
15600,control_change,6,0,2,,,,,,,,,1,7,115,,
15600,note_on,0,0,2,,,,,,,,,1,,,70,57
15600,note_on,60,0,6,,,,,,,,,5,,,68,0
15600,note_on,0,0,3,,,,,,,,,2,,,65,43
15600,note_on,60,0,9,,,,,,,,,8,,,50,84
15600,note_on,0,0,3,,,,,,,,,2,,,62,53
15600,note_on,60,0,10,,,,,,,,,10,,,38,84
15600,note_on,60,0,8,,,,,,,,,7,,,60,0
15600,note_on,0,0,5,,,,,,,,,4,,,53,89
15600,note_on,10,0,5,,,,,,,,,4,,,68,0
15600,note_on,0,0,3,,,,,,,,,2,,,63,0
15606,control_change,6,0,3,,,,,,,,,2,7,117,,
15608,control_change,8,0,4,,,,,,,,,3,7,118,,
15608,control_change,8,0,2,,,,,,,,,1,7,116,,
15610,note_on,0,0,5,,,,,,,,,4,,,65,80
15610,note_on,10,0,5,,,,,,,,,4,,,53,0
15610,note_on,0,0,5,,,,,,,,,4,,,58,71
15612,control_change,6,0,3,,,,,,,,,2,7,118,,
15614,control_change,6,0,4,,,,,,,,,3,7,119,,
15616,control_change,8,0,2,,,,,,,,,1,7,117,,
15620,note_on,0,0,5,,,,,,,,,4,,,65,0
15620,note_on,10,0,5,,,,,,,,,4,,,58,0
15620,note_on,0,0,5,,,,,,,,,4,,,70,82
15620,control_change,6,0,4,,,,,,,,,3,7,120,,
15620,control_change,8,0,3,,,,,,,,,2,7,119,,
15624,control_change,8,0,2,,,,,,,,,1,7,118,,
15626,control_change,6,0,3,,,,,,,,,2,7,120,,
15628,control_change,8,0,4,,,,,,,,,3,7,121,,
15630,note_on,10,0,5,,,,,,,,,4,,,70,0
15630,note_on,0,0,5,,,,,,,,,4,,,58,84
15630,control_change,6,0,2,,,,,,,,,1,7,119,,
15634,control_change,6,0,4,,,,,,,,,3,7,122,,
15634,control_change,8,0,3,,,,,,,,,2,7,121,,
15638,control_change,8,0,2,,,,,,,,,1,7,120,,
15640,note_on,0,0,5,,,,,,,,,4,,,62,68
15640,control_change,6,0,3,,,,,,,,,2,7,122,,
15640,control_change,6,0,4,,,,,,,,,3,7,123,,
15640,note_on,10,0,5,,,,,,,,,4,,,58,0
15640,note_on,0,0,5,,,,,,,,,4,,,70,76
15646,control_change,8,0,2,,,,,,,,,1,7,121,,
15648,control_change,8,0,4,,,,,,,,,3,7,124,,
15648,control_change,8,0,3,,,,,,,,,2,7,123,,
15650,note_on,10,0,5,,,,,,,,,4,,,62,0
15650,note_on,0,0,5,,,,,,,,,4,,,70,0
15650,note_on,0,0,5,,,,,,,,,4,,,74,98
15654,control_change,6,0,4,,,,,,,,,3,7,125,,
15654,control_change,6,0,3,,,,,,,,,2,7,124,,
15654,control_change,8,0,2,,,,,,,,,1,7,122,,
15660,note_on,0,0,5,,,,,,,,,4,,,62,84
15660,note_on,10,0,5,,,,,,,,,4,,,74,0
15660,control_change,6,0,4,,,,,,,,,3,7,126,,
15660,control_change,6,0,2,,,,,,,,,1,7,123,,
15660,note_on,60,0,10,,,,,,,,,10,,,38,0
15660,note_on,60,0,7,,,,,,,,,6,,,65,80
15660,note_on,60,0,9,,,,,,,,,8,,,50,0
15660,note_on,60,0,6,,,,,,,,,5,,,68,93
15660,control_change,6,0,3,,,,,,,,,2,7,125,,
15660,note_on,60,0,8,,,,,,,,,7,,,58,89
15668,control_change,8,0,2,,,,,,,,,1,7,122,,
15668,control_change,8,0,4,,,,,,,,,3,7,125,,
15668,control_change,8,0,3,,,,,,,,,2,7,124,,
15670,note_on,0,0,5,,,,,,,,,4,,,65,78
15670,note_on,0,0,5,,,,,,,,,4,,,74,89
15670,note_on,10,0,5,,,,,,,,,4,,,62,0
15674,control_change,6,0,3,,,,,,,,,2,7,123,,
15674,control_change,6,0,4,,,,,,,,,3,7,124,,
15676,control_change,8,0,2,,,,,,,,,1,7,121,,
15680,control_change,6,0,3,,,,,,,,,2,7,122,,
15680,note_on,10,0,5,,,,,,,,,4,,,65,0
15680,note_on,0,0,5,,,,,,,,,4,,,74,0
15680,note_on,0,0,5,,,,,,,,,4,,,77,93
15680,control_change,6,0,4,,,,,,,,,3,7,123,,
15684,control_change,8,0,2,,,,,,,,,1,7,120,,
15688,control_change,8,0,4,,,,,,,,,3,7,122,,
15688,control_change,8,0,3,,,,,,,,,2,7,121,,
15690,note_on,6,0,2,,,,,,,,,1,,,70,0
15690,note_on,10,0,5,,,,,,,,,4,,,77,0
15690,note_on,0,0,5,,,,,,,,,4,,,65,80
15690,control_change,0,0,2,,,,,,,,,1,7,119,,
15694,control_change,6,0,4,,,,,,,,,3,7,121,,
15694,control_change,6,0,3,,,,,,,,,2,7,120,,
15698,control_change,8,0,2,,,,,,,,,1,7,118,,
15700,note_on,0,0,5,,,,,,,,,4,,,77,64
15700,note_on,0,0,5,,,,,,,,,4,,,68,84
15700,control_change,6,0,3,,,,,,,,,2,7,119,,
15700,note_on,10,0,5,,,,,,,,,4,,,65,0
15700,control_change,6,0,4,,,,,,,,,3,7,120,,
15706,control_change,8,0,2,,,,,,,,,1,7,117,,
15708,control_change,8,0,3,,,,,,,,,2,7,118,,
15708,control_change,8,0,4,,,,,,,,,3,7,119,,
15710,note_on,10,0,5,,,,,,,,,4,,,68,0
15710,note_on,0,0,5,,,,,,,,,4,,,77,0
15710,note_on,0,0,5,,,,,,,,,4,,,80,86
15714,control_change,8,0,2,,,,,,,,,1,7,116,,
15714,control_change,6,0,3,,,,,,,,,2,7,117,,
15714,control_change,6,0,4,,,,,,,,,3,7,118,,
15720,note_on,0,0,4,,,,,,,,,3,,,67,57
15720,note_on,0,0,3,,,,,,,,,2,,,65,0
15720,note_on,60,0,9,,,,,,,,,8,,,51,74
15720,note_on,0,0,4,,,,,,,,,3,,,63,64
15720,note_on,0,0,4,,,,,,,,,3,,,68,0
15720,note_on,6,0,4,,,,,,,,,3,,,65,0
15720,note_on,6,0,3,,,,,,,,,2,,,62,0
15720,control_change,0,0,4,,,,,,,,,3,7,117,,
15720,note_on,60,0,8,,,,,,,,,7,,,58,0
15720,control_change,0,0,3,,,,,,,,,2,7,116,,
15720,note_on,60,0,6,,,,,,,,,5,,,68,0
15720,note_on,6,0,2,,,,,,,,,1,,,80,0
15720,note_on,0,0,2,,,,,,,,,1,,,79,62
15720,note_on,0,0,2,,,,,,,,,1,,,70,43
15720,control_change,0,0,2,,,,,,,,,1,7,115,,
15720,note_on,0,0,3,,,,,,,,,2,,,63,55
15720,note_on,0,0,5,,,,,,,,,4,,,63,82
15720,note_on,0,0,3,,,,,,,,,2,,,67,44
15720,note_on,60,0,10,,,,,,,,,10,,,39,74
15720,note_on,10,0,5,,,,,,,,,4,,,80,0
15720,note_on,60,0,7,,,,,,,,,6,,,65,0
15728,control_change,8,0,2,,,,,,,,,1,7,114,,
15728,control_change,8,0,4,,,,,,,,,3,7,116,,
15728,control_change,8,0,3,,,,,,,,,2,7,115,,
15730,note_on,10,0,5,,,,,,,,,4,,,63,0
15730,note_on,0,0,5,,,,,,,,,4,,,67,68
15730,note_on,0,0,5,,,,,,,,,4,,,75,76
15734,control_change,6,0,4,,,,,,,,,3,7,115,,
15734,control_change,6,0,3,,,,,,,,,2,7,114,,
15736,control_change,8,0,2,,,,,,,,,1,7,113,,
15740,note_on,10,0,5,,,,,,,,,4,,,67,0
15740,note_on,0,0,5,,,,,,,,,4,,,79,94
15740,note_on,0,0,5,,,,,,,,,4,,,75,0
15740,control_change,6,0,3,,,,,,,,,2,7,113,,
15740,control_change,6,0,4,,,,,,,,,3,7,114,,
15744,control_change,8,0,2,,,,,,,,,1,7,112,,
15748,control_change,8,0,4,,,,,,,,,3,7,113,,
15748,control_change,8,0,3,,,,,,,,,2,7,112,,
15750,note_on,10,0,5,,,,,,,,,4,,,79,0
15750,control_change,6,0,2,,,,,,,,,1,7,111,,
15750,note_on,0,0,5,,,,,,,,,4,,,58,90
15754,control_change,6,0,4,,,,,,,,,3,7,112,,
15754,control_change,6,0,3,,,,,,,,,2,7,111,,
15758,control_change,8,0,2,,,,,,,,,1,7,110,,
15760,note_on,0,0,5,,,,,,,,,4,,,70,77
15760,note_on,10,0,5,,,,,,,,,4,,,58,0
15760,note_on,0,0,5,,,,,,,,,4,,,63,78
15760,control_change,6,0,4,,,,,,,,,3,7,111,,
15760,control_change,6,0,3,,,,,,,,,2,7,110,,
15766,control_change,8,0,2,,,,,,,,,1,7,109,,
15768,control_change,8,0,4,,,,,,,,,3,7,110,,
15768,control_change,8,0,3,,,,,,,,,2,7,109,,
15770,note_on,10,0,5,,,,,,,,,4,,,63,0
15770,note_on,0,0,5,,,,,,,,,4,,,70,0
15770,note_on,0,0,5,,,,,,,,,4,,,75,94
15774,control_change,6,0,4,,,,,,,,,3,7,109,,
15774,control_change,8,0,2,,,,,,,,,1,7,108,,
15774,control_change,6,0,3,,,,,,,,,2,7,108,,
15780,note_on,60,0,6,,,,,,,,,5,,,67,81
15780,note_on,60,0,7,,,,,,,,,6,,,63,62
15780,note_on,60,0,9,,,,,,,,,8,,,51,0
15780,control_change,6,0,2,,,,,,,,,1,7,107,,
15780,note_on,60,0,10,,,,,,,,,10,,,39,0
15780,control_change,6,0,4,,,,,,,,,3,7,108,,
15780,control_change,6,0,3,,,,,,,,,2,7,107,,
15780,note_on,60,0,8,,,,,,,,,7,,,58,73
15780,note_on,10,0,5,,,,,,,,,4,,,75,0
15780,note_on,0,0,5,,,,,,,,,4,,,55,86
15788,control_change,8,0,2,,,,,,,,,1,7,106,,
15788,control_change,8,0,3,,,,,,,,,2,7,106,,
15788,control_change,8,0,4,,,,,,,,,3,7,107,,
15790,note_on,10,0,5,,,,,,,,,4,,,55,0
15790,note_on,0,0,5,,,,,,,,,4,,,67,78
15790,note_on,0,0,5,,,,,,,,,4,,,58,74
15794,control_change,6,0,4,,,,,,,,,3,7,106,,
15794,control_change,6,0,3,,,,,,,,,2,7,105,,
15796,control_change,8,0,2,,,,,,,,,1,7,105,,
15800,note_on,0,0,5,,,,,,,,,4,,,67,0
15800,note_on,0,0,5,,,,,,,,,4,,,70,86
15800,control_change,6,0,3,,,,,,,,,2,7,104,,
15800,note_on,10,0,5,,,,,,,,,4,,,58,0
15800,control_change,6,0,4,,,,,,,,,3,7,105,,
15804,control_change,8,0,2,,,,,,,,,1,7,104,,
15808,control_change,8,0,4,,,,,,,,,3,7,104,,
15808,control_change,8,0,3,,,,,,,,,2,7,103,,
15810,note_on,0,0,5,,,,,,,,,4,,,51,85
15810,note_on,6,0,2,,,,,,,,,1,,,70,0
15810,control_change,0,0,2,,,,,,,,,1,7,103,,
15810,note_on,10,0,5,,,,,,,,,4,,,70,0
15814,control_change,6,0,4,,,,,,,,,3,7,103,,
15814,control_change,6,0,3,,,,,,,,,2,7,102,,
15818,control_change,8,0,2,,,,,,,,,1,7,102,,
15820,control_change,6,0,3,,,,,,,,,2,7,101,,
15820,control_change,6,0,4,,,,,,,,,3,7,102,,
15820,note_on,0,0,5,,,,,,,,,4,,,55,64
15820,note_on,0,0,5,,,,,,,,,4,,,63,76
15820,note_on,10,0,5,,,,,,,,,4,,,51,0
15826,control_change,8,0,2,,,,,,,,,1,7,101,,
15828,control_change,8,0,4,,,,,,,,,3,7,101,,
15828,control_change,8,0,3,,,,,,,,,2,7,100,,
15830,note_on,0,0,5,,,,,,,,,4,,,63,0
15830,note_on,10,0,5,,,,,,,,,4,,,55,0
15830,note_on,0,0,5,,,,,,,,,4,,,67,90
15834,control_change,6,0,4,,,,,,,,,3,7,100,,
15834,control_change,6,0,3,,,,,,,,,2,7,99,,
15834,control_change,8,0,2,,,,,,,,,1,7,100,,
15840,control_change,0,0,4,,,,,,,,,3,7,99,,
15840,note_on,6,0,3,,,,,,,,,2,,,63,0
15840,note_on,0,0,3,,,,,,,,,2,,,67,0
15840,note_on,0,0,3,,,,,,,,,2,,,68,60
15840,note_on,0,0,3,,,,,,,,,2,,,56,64
15840,control_change,0,0,3,,,,,,,,,2,7,98,,
15840,note_on,10,0,5,,,,,,,,,4,,,67,0
15840,note_on,0,0,5,,,,,,,,,4,,,48,84
15840,note_on,6,0,2,,,,,,,,,1,,,79,0
15840,control_change,0,0,2,,,,,,,,,1,7,99,,
15840,note_on,0,0,2,,,,,,,,,1,,,77,61
15840,note_on,0,0,2,,,,,,,,,1,,,72,56
15840,note_on,6,0,4,,,,,,,,,3,,,67,0
15840,note_on,0,0,4,,,,,,,,,3,,,63,0
15840,note_on,60,0,7,,,,,,,,,6,,,63,0
15840,note_on,60,0,8,,,,,,,,,7,,,58,0
15840,note_on,60,0,9,,,,,,,,,8,,,56,74
15840,note_on,60,0,10,,,,,,,,,10,,,44,74
15840,note_on,60,0,6,,,,,,,,,5,,,67,0
15850,note_on,0,0,5,,,,,,,,,4,,,53,73
15850,note_on,10,0,5,,,,,,,,,4,,,48,0
15850,note_on,0,0,5,,,,,,,,,4,,,60,72
15860,note_on,10,0,5,,,,,,,,,4,,,53,0
15860,note_on,0,0,5,,,,,,,,,4,,,65,72
15860,note_on,0,0,5,,,,,,,,,4,,,60,0
15870,note_on,0,0,5,,,,,,,,,4,,,53,89
15870,note_on,30,0,2,,,,,,,,,1,,,77,0
15870,note_on,0,0,2,,,,,,,,,1,,,84,53
15870,note_on,10,0,5,,,,,,,,,4,,,65,0
15880,note_on,0,0,5,,,,,,,,,4,,,56,76
15880,note_on,0,0,5,,,,,,,,,4,,,65,82
15880,note_on,10,0,5,,,,,,,,,4,,,53,0
15890,note_on,0,0,5,,,,,,,,,4,,,65,0
15890,note_on,0,0,5,,,,,,,,,4,,,68,85
15890,note_on,10,0,5,,,,,,,,,4,,,56,0
15900,note_on,10,0,5,,,,,,,,,4,,,68,0
15900,note_on,0,0,5,,,,,,,,,4,,,56,85
15900,note_on,60,0,8,,,,,,,,,7,,,56,72
15900,note_on,60,0,9,,,,,,,,,8,,,56,0
15900,note_on,60,0,6,,,,,,,,,5,,,65,76
15900,note_on,60,0,10,,,,,,,,,10,,,44,0
15900,note_on,60,0,7,,,,,,,,,6,,,60,76
15900,note_on,0,0,2,,,,,,,,,1,,,80,65
15900,note_on,30,0,2,,,,,,,,,1,,,84,0
15910,note_on,0,0,5,,,,,,,,,4,,,68,78
15910,note_on,0,0,5,,,,,,,,,4,,,60,76
15910,note_on,10,0,5,,,,,,,,,4,,,56,0
15920,note_on,0,0,5,,,,,,,,,4,,,72,84
15920,note_on,0,0,5,,,,,,,,,4,,,68,0
15920,note_on,10,0,5,,,,,,,,,4,,,60,0
15930,note_on,30,0,2,,,,,,,,,1,,,80,0
15930,note_on,0,0,5,,,,,,,,,4,,,60,94
15930,note_on,10,0,5,,,,,,,,,4,,,72,0
15930,note_on,0,0,2,,,,,,,,,1,,,77,62
15940,note_on,0,0,5,,,,,,,,,4,,,72,59
15940,note_on,0,0,5,,,,,,,,,4,,,65,78
15940,note_on,10,0,5,,,,,,,,,4,,,60,0
15950,note_on,10,0,5,,,,,,,,,4,,,65,0
15950,note_on,0,0,5,,,,,,,,,4,,,72,0
15950,note_on,0,0,5,,,,,,,,,4,,,77,89
15960,note_on,120,0,4,,,,,,,,,3,,,63,56
15960,note_on,10,0,5,,,,,,,,,4,,,77,0
15960,note_on,60,0,9,,,,,,,,,8,,,58,73
15960,note_on,60,0,6,,,,,,,,,5,,,65,0
15960,note_on,60,0,10,,,,,,,,,10,,,46,73
15960,note_on,0,0,2,,,,,,,,,1,,,72,0
15960,note_on,30,0,2,,,,,,,,,1,,,77,0
15960,note_on,0,0,3,,,,,,,,,2,,,58,60
15960,note_on,0,0,3,,,,,,,,,2,,,67,53
15960,note_on,0,0,3,,,,,,,,,2,,,68,0
15960,note_on,120,0,3,,,,,,,,,2,,,56,0
15960,note_on,0,0,2,,,,,,,,,1,,,70,60
15960,note_on,0,0,4,,,,,,,,,3,,,55,76
15960,note_on,60,0,7,,,,,,,,,6,,,60,0
15960,note_on,0,0,5,,,,,,,,,4,,,46,86
15960,note_on,0,0,2,,,,,,,,,1,,,75,44
15960,note_on,60,0,8,,,,,,,,,7,,,56,0
15970,note_on,10,0,5,,,,,,,,,4,,,46,0
15970,note_on,0,0,5,,,,,,,,,4,,,58,73
15970,note_on,0,0,5,,,,,,,,,4,,,51,84
15980,note_on,0,0,5,,,,,,,,,4,,,63,81
15980,note_on,10,0,5,,,,,,,,,4,,,51,0
15980,note_on,0,0,5,,,,,,,,,4,,,58,0
15990,note_on,10,0,5,,,,,,,,,4,,,63,0
15990,note_on,0,0,5,,,,,,,,,4,,,51,82
16000,note_on,0,0,5,,,,,,,,,4,,,55,69
16000,note_on,10,0,5,,,,,,,,,4,,,51,0
16000,note_on,0,0,5,,,,,,,,,4,,,63,74
16010,note_on,0,0,5,,,,,,,,,4,,,67,86
16010,note_on,0,0,5,,,,,,,,,4,,,63,0
16010,note_on,10,0,5,,,,,,,,,4,,,55,0
16020,note_on,60,0,6,,,,,,,,,5,,,63,77
16020,note_on,60,0,10,,,,,,,,,10,,,46,0
16020,note_on,60,0,9,,,,,,,,,8,,,58,0
16020,note_on,60,0,8,,,,,,,,,7,,,55,72
16020,note_on,10,0,5,,,,,,,,,4,,,67,0
16020,note_on,0,0,5,,,,,,,,,4,,,55,86
16020,note_on,60,0,7,,,,,,,,,6,,,58,71
16030,note_on,0,0,5,,,,,,,,,4,,,67,80
16030,note_on,10,0,5,,,,,,,,,4,,,55,0
16030,note_on,0,0,5,,,,,,,,,4,,,58,76
16040,note_on,10,0,5,,,,,,,,,4,,,58,0
16040,note_on,0,0,5,,,,,,,,,4,,,67,0
16040,note_on,0,0,5,,,,,,,,,4,,,70,94
16050,note_on,10,0,5,,,,,,,,,4,,,70,0
16050,note_on,0,0,5,,,,,,,,,4,,,58,94
16060,note_on,10,0,5,,,,,,,,,4,,,58,0
16060,note_on,0,0,5,,,,,,,,,4,,,70,76
16060,note_on,0,0,5,,,,,,,,,4,,,63,76
16070,note_on,10,0,5,,,,,,,,,4,,,63,0
16070,note_on,0,0,5,,,,,,,,,4,,,75,104
16070,note_on,0,0,5,,,,,,,,,4,,,70,0
16080,note_on,0,0,4,,,,,,,,,3,,,58,44
16080,note_on,0,0,5,,,,,,,,,4,,,46,86
16080,note_on,10,0,5,,,,,,,,,4,,,75,0
16080,note_on,60,0,8,,,,,,,,,7,,,55,0
16080,note_on,0,0,2,,,,,,,,,1,,,70,40
16080,note_on,0,0,2,,,,,,,,,1,,,77,49
16080,note_on,0,0,2,,,,,,,,,1,,,75,0
16080,note_on,0,0,3,,,,,,,,,2,,,46,65
16080,note_on,0,0,3,,,,,,,,,2,,,62,58
16080,note_on,120,0,2,,,,,,,,,1,,,70,0
16080,note_on,120,0,3,,,,,,,,,2,,,58,0
16080,note_on,60,0,9,,,,,,,,,8,,,46,72
16080,note_on,60,0,10,,,,,,,,,10,,,34,72
16080,note_on,60,0,6,,,,,,,,,5,,,63,0
16080,note_on,60,0,7,,,,,,,,,6,,,58,0
16080,note_on,0,0,7,,,,,,,,,6,,,62,78
16080,note_on,120,0,4,,,,,,,,,3,,,55,0
16080,note_on,0,0,4,,,,,,,,,3,,,63,0
16080,note_on,0,0,3,,,,,,,,,2,,,67,0
16080,note_on,0,0,4,,,,,,,,,3,,,65,53
16090,note_on,10,0,5,,,,,,,,,4,,,46,0
16090,note_on,0,0,5,,,,,,,,,4,,,58,74
16090,note_on,0,0,5,,,,,,,,,4,,,50,80
16100,note_on,0,0,5,,,,,,,,,4,,,58,0
16100,note_on,10,0,5,,,,,,,,,4,,,50,0
16100,note_on,0,0,5,,,,,,,,,4,,,62,94
16110,note_on,0,0,5,,,,,,,,,4,,,50,90
16110,note_on,10,0,5,,,,,,,,,4,,,62,0
16120,note_on,0,0,5,,,,,,,,,4,,,62,82
16120,note_on,10,0,5,,,,,,,,,4,,,50,0
16120,note_on,0,0,5,,,,,,,,,4,,,53,74
16130,note_on,10,0,5,,,,,,,,,4,,,53,0
16130,note_on,0,0,5,,,,,,,,,4,,,62,0
16130,note_on,0,0,5,,,,,,,,,4,,,65,72
16140,note_on,60,0,9,,,,,,,,,8,,,46,0
16140,note_on,60,0,10,,,,,,,,,10,,,34,0
16140,note_on,60,0,8,,,,,,,,,7,,,56,73
16140,note_on,60,0,7,,,,,,,,,6,,,62,0
16140,note_on,10,0,5,,,,,,,,,4,,,65,0
16140,note_on,0,0,5,,,,,,,,,4,,,53,82
16140,note_on,60,0,6,,,,,,,,,5,,,65,65
16150,note_on,10,0,5,,,,,,,,,4,,,53,0
16150,note_on,0,0,5,,,,,,,,,4,,,65,82
16150,note_on,0,0,5,,,,,,,,,4,,,58,74
16160,note_on,10,0,5,,,,,,,,,4,,,58,0
16160,note_on,0,0,5,,,,,,,,,4,,,70,89
16160,note_on,0,0,5,,,,,,,,,4,,,65,0
16170,note_on,10,0,5,,,,,,,,,4,,,70,0
16170,note_on,0,0,5,,,,,,,,,4,,,58,86
16180,note_on,10,0,5,,,,,,,,,4,,,58,0
16180,note_on,0,0,5,,,,,,,,,4,,,70,80
16180,note_on,0,0,5,,,,,,,,,4,,,62,68
16190,note_on,10,0,5,,,,,,,,,4,,,62,0
16190,note_on,0,0,5,,,,,,,,,4,,,70,0
16190,note_on,0,0,5,,,,,,,,,4,,,74,101
16200,note_on,0,0,4,,,,,,,,,3,,,65,0
16200,note_on,60,0,6,,,,,,,,,5,,,65,0
16200,note_on,60,0,9,,,,,,,,,8,,,51,77
16200,note_on,60,0,8,,,,,,,,,7,,,56,0
16200,note_on,0,0,3,,,,,,,,,2,,,51,56
16200,note_on,120,0,2,,,,,,,,,1,,,70,0
16200,note_on,60,0,10,,,,,,,,,10,,,39,77
16200,note_on,0,0,3,,,,,,,,,2,,,65,63
16200,note_on,0,0,2,,,,,,,,,1,,,77,0
16200,note_on,0,0,4,,,,,,,,,3,,,65,61
16200,note_on,0,0,2,,,,,,,,,1,,,80,61
16200,note_on,120,0,4,,,,,,,,,3,,,58,0
16200,note_on,0,0,3,,,,,,,,,2,,,62,0
16200,note_on,0,0,5,,,,,,,,,4,,,46,80
16200,note_on,10,0,5,,,,,,,,,4,,,74,0
16200,note_on,0,0,2,,,,,,,,,1,,,70,57
16200,note_on,0,0,4,,,,,,,,,3,,,68,61
16200,note_on,120,0,3,,,,,,,,,2,,,46,0
16210,note_on,0,0,5,,,,,,,,,4,,,50,80
16210,note_on,0,0,5,,,,,,,,,4,,,58,70
16210,note_on,10,0,5,,,,,,,,,4,,,46,0
16220,note_on,0,0,5,,,,,,,,,4,,,62,90
16220,note_on,0,0,5,,,,,,,,,4,,,58,0
16220,note_on,10,0,5,,,,,,,,,4,,,50,0
16230,note_on,0,0,5,,,,,,,,,4,,,50,94
16230,note_on,10,0,5,,,,,,,,,4,,,62,0
16240,note_on,10,0,5,,,,,,,,,4,,,50,0
16240,note_on,0,0,5,,,,,,,,,4,,,62,78
16240,note_on,0,0,5,,,,,,,,,4,,,53,69
16250,note_on,10,0,5,,,,,,,,,4,,,53,0
16250,note_on,0,0,5,,,,,,,,,4,,,62,0
16250,note_on,0,0,5,,,,,,,,,4,,,65,81
16260,note_on,60,0,6,,,,,,,,,5,,,68,80
16260,note_on,0,0,5,,,,,,,,,4,,,53,86
16260,note_on,60,0,10,,,,,,,,,10,,,39,0
16260,note_on,10,0,5,,,,,,,,,4,,,65,0
16260,note_on,120,0,7,,,,,,,,,6,,,65,76
16260,note_on,60,0,9,,,,,,,,,8,,,51,0
16260,note_on,60,0,8,,,,,,,,,7,,,62,80
16270,note_on,0,0,5,,,,,,,,,4,,,58,80
16270,note_on,0,0,5,,,,,,,,,4,,,65,84
16270,note_on,10,0,5,,,,,,,,,4,,,53,0
16280,note_on,0,0,5,,,,,,,,,4,,,65,0
16280,note_on,10,0,5,,,,,,,,,4,,,58,0
16280,note_on,0,0,5,,,,,,,,,4,,,70,93
16290,note_on,0,0,2,,,,,,,,,1,,,74,50
16290,note_on,90,0,2,,,,,,,,,1,,,70,0
16290,note_on,10,0,5,,,,,,,,,4,,,70,0
16290,note_on,0,0,5,,,,,,,,,4,,,58,86
16300,note_on,10,0,5,,,,,,,,,4,,,58,0
16300,note_on,0,0,5,,,,,,,,,4,,,62,69
16300,note_on,0,0,5,,,,,,,,,4,,,70,76
16310,note_on,0,0,5,,,,,,,,,4,,,74,104
16310,note_on,0,0,5,,,,,,,,,4,,,70,0
16310,note_on,10,0,5,,,,,,,,,4,,,62,0
16320,note_on,60,0,10,,,,,,,,,10,,,39,73
16320,note_on,0,0,5,,,,,,,,,4,,,51,86
16320,note_on,120,0,4,,,,,,,,,3,,,65,0
16320,note_on,10,0,5,,,,,,,,,4,,,74,0
16320,note_on,60,0,7,,,,,,,,,6,,,65,0
16320,note_on,30,0,2,,,,,,,,,1,,,74,0
16320,note_on,0,0,3,,,,,,,,,2,,,63,53
16320,note_on,0,0,4,,,,,,,,,3,,,63,45
16320,note_on,0,0,4,,,,,,,,,3,,,67,61
16320,note_on,60,0,8,,,,,,,,,7,,,62,0
16320,note_on,0,0,4,,,,,,,,,3,,,68,0
16320,note_on,60,0,6,,,,,,,,,5,,,68,0
16320,note_on,0,0,2,,,,,,,,,1,,,75,43
16320,note_on,0,0,2,,,,,,,,,1,,,79,43
16320,note_on,0,0,2,,,,,,,,,1,,,80,0
16320,note_on,120,0,3,,,,,,,,,2,,,65,0
16320,note_on,60,0,9,,,,,,,,,8,,,51,76
16330,note_on,10,0,5,,,,,,,,,4,,,51,0
16330,note_on,0,0,5,,,,,,,,,4,,,63,72
16330,note_on,0,0,5,,,,,,,,,4,,,55,74
16340,note_on,0,0,5,,,,,,,,,4,,,67,94
16340,note_on,0,0,5,,,,,,,,,4,,,63,0
16340,note_on,10,0,5,,,,,,,,,4,,,55,0
16350,note_on,0,0,5,,,,,,,,,4,,,58,94
16350,note_on,10,0,5,,,,,,,,,4,,,67,0
16360,note_on,10,0,5,,,,,,,,,4,,,58,0
16360,note_on,0,0,5,,,,,,,,,4,,,70,73
16360,note_on,0,0,5,,,,,,,,,4,,,63,81
16370,note_on,0,0,5,,,,,,,,,4,,,70,0
16370,note_on,10,0,5,,,,,,,,,4,,,63,0
16370,note_on,0,0,5,,,,,,,,,4,,,75,95
16380,note_on,60,0,7,,,,,,,,,6,,,63,69
16380,note_on,0,0,4,,,,,,,,,3,,,67,0
16380,note_on,60,0,4,,,,,,,,,3,,,63,0
16380,note_on,60,0,9,,,,,,,,,8,,,51,0
16380,note_on,0,0,2,,,,,,,,,1,,,79,0
16380,note_on,10,0,5,,,,,,,,,4,,,75,0
16380,note_on,0,0,5,,,,,,,,,4,,,55,94
16380,note_on,60,0,8,,,,,,,,,7,,,58,77
16380,note_on,60,0,6,,,,,,,,,5,,,67,80
16380,note_on,0,0,3,,,,,,,,,2,,,51,0
16380,note_on,60,0,3,,,,,,,,,2,,,63,0
16380,note_on,60,0,10,,,,,,,,,10,,,39,0
16380,note_on,60,0,2,,,,,,,,,1,,,75,0
16390,note_on,10,0,5,,,,,,,,,4,,,55,0
16390,note_on,0,0,5,,,,,,,,,4,,,67,78
16390,note_on,0,0,5,,,,,,,,,4,,,58,81
16400,note_on,10,0,5,,,,,,,,,4,,,58,0
16400,note_on,0,0,5,,,,,,,,,4,,,67,0
16400,note_on,0,0,5,,,,,,,,,4,,,70,95
16410,note_on,10,0,5,,,,,,,,,4,,,70,0
16410,note_on,0,0,5,,,,,,,,,4,,,63,89
16420,note_on,0,0,5,,,,,,,,,4,,,67,76
16420,note_on,10,0,5,,,,,,,,,4,,,63,0
16420,note_on,0,0,5,,,,,,,,,4,,,75,76
16430,note_on,10,0,5,,,,,,,,,4,,,67,0
16430,note_on,0,0,5,,,,,,,,,4,,,75,0
16430,note_on,0,0,5,,,,,,,,,4,,,79,99
16440,note_on,10,0,5,,,,,,,,,4,,,79,0
16440,note_on,60,0,7,,,,,,,,,6,,,63,0
16440,note_on,0,0,7,,,,,,,,,6,,,63,73
16440,note_on,60,0,6,,,,,,,,,5,,,67,0
16440,note_on,0,0,6,,,,,,,,,5,,,67,72
16440,note_on,60,0,8,,,,,,,,,7,,,58,0
16440,note_on,0,0,8,,,,,,,,,7,,,58,76
16440,note_on,0,0,5,,,,,,,,,4,,,58,93
16450,note_on,0,0,5,,,,,,,,,4,,,70,81
16450,note_on,0,0,5,,,,,,,,,4,,,63,74
16450,note_on,10,0,5,,,,,,,,,4,,,58,0
16460,note_on,10,0,5,,,,,,,,,4,,,63,0
16460,note_on,0,0,5,,,,,,,,,4,,,70,0
16460,note_on,0,0,5,,,,,,,,,4,,,75,95
16470,note_on,10,0,5,,,,,,,,,4,,,75,0
16470,note_on,0,0,5,,,,,,,,,4,,,67,93
16480,note_on,0,0,5,,,,,,,,,4,,,79,89
16480,note_on,0,0,5,,,,,,,,,4,,,70,80
16480,note_on,10,0,5,,,,,,,,,4,,,67,0
16490,note_on,0,0,5,,,,,,,,,4,,,79,0
16490,note_on,0,0,5,,,,,,,,,4,,,82,95
16490,note_on,10,0,5,,,,,,,,,4,,,70,0
16500,note_on,10,0,5,,,,,,,,,4,,,82,0
16500,note_on,0,0,8,,,,,,,,,7,,,58,74
16500,note_on,0,0,6,,,,,,,,,5,,,67,70
16500,note_on,60,0,6,,,,,,,,,5,,,67,0
16500,note_on,60,0,8,,,,,,,,,7,,,58,0
16500,note_on,60,0,7,,,,,,,,,6,,,63,0
16500,note_on,0,0,7,,,,,,,,,6,,,63,72
16500,note_on,0,0,5,,,,,,,,,4,,,63,94
16510,note_on,0,0,5,,,,,,,,,4,,,75,78
16510,note_on,10,0,5,,,,,,,,,4,,,63,0
16510,note_on,0,0,5,,,,,,,,,4,,,67,71
16520,note_on,0,0,5,,,,,,,,,4,,,79,94
16520,note_on,10,0,5,,,,,,,,,4,,,67,0
16520,note_on,0,0,5,,,,,,,,,4,,,75,0
16530,note_on,0,0,5,,,,,,,,,4,,,70,94
16530,note_on,10,0,5,,,,,,,,,4,,,79,0
16540,note_on,10,0,5,,,,,,,,,4,,,70,0
16540,note_on,0,0,5,,,,,,,,,4,,,82,76
16540,note_on,0,0,5,,,,,,,,,4,,,75,85
16550,note_on,10,0,5,,,,,,,,,4,,,75,0
16550,note_on,0,0,5,,,,,,,,,4,,,82,0
16550,note_on,0,0,5,,,,,,,,,4,,,87,99
16560,note_on,10,0,5,,,,,,,,,4,,,87,0
16560,note_on,60,0,6,,,,,,,,,5,,,67,0
16560,note_on,180,0,9,,,,,,,,,8,,,48,90
16560,note_on,0,0,5,,,,,,,,,4,,,82,71
16560,note_on,60,0,8,,,,,,,,,7,,,58,0
16560,note_on,180,0,10,,,,,,,,,10,,,36,90
16560,note_on,60,0,7,,,,,,,,,6,,,63,0
16560,note_on,0,0,5,,,,,,,,,4,,,60,80
16575,note_on,15,0,5,,,,,,,,,4,,,82,0
16575,note_on,0,0,5,,,,,,,,,4,,,84,80
16580,note_on,5,0,5,,,,,,,,,4,,,84,0
16580,note_on,0,0,5,,,,,,,,,4,,,82,80
16585,note_on,5,0,5,,,,,,,,,4,,,82,0
16585,note_on,0,0,5,,,,,,,,,4,,,81,80
16590,note_on,5,0,5,,,,,,,,,4,,,81,0
16590,note_on,0,0,5,,,,,,,,,4,,,60,0
16590,note_on,0,0,5,,,,,,,,,4,,,82,84
16590,note_on,0,0,5,,,,,,,,,4,,,68,67
16595,note_on,5,0,5,,,,,,,,,4,,,82,0
16605,note_on,10,0,5,,,,,,,,,4,,,80,73
16620,note_on,60,0,6,,,,,,,,,5,,,68,78
16620,note_on,60,0,7,,,,,,,,,6,,,63,72
16620,note_on,60,0,10,,,,,,,,,10,,,36,0
16620,note_on,60,0,9,,,,,,,,,8,,,48,0
16620,note_on,60,0,8,,,,,,,,,7,,,60,81
16620,note_on,15,0,5,,,,,,,,,4,,,80,0
16620,note_on,0,0,5,,,,,,,,,4,,,68,0
16620,note_on,0,0,5,,,,,,,,,4,,,89,86
16620,note_on,0,0,5,,,,,,,,,4,,,63,81
16650,note_on,30,0,5,,,,,,,,,4,,,63,0
16650,note_on,0,0,5,,,,,,,,,4,,,68,72
16680,note_on,60,0,6,,,,,,,,,5,,,68,0
16680,note_on,60,0,7,,,,,,,,,6,,,63,0
16680,note_on,60,0,9,,,,,,,,,8,,,50,80
16680,note_on,60,0,8,,,,,,,,,7,,,60,0
16680,note_on,60,0,10,,,,,,,,,10,,,38,80
16680,note_on,30,0,5,,,,,,,,,4,,,68,0
16680,note_on,0,0,5,,,,,,,,,4,,,62,81
16710,note_on,0,0,5,,,,,,,,,4,,,68,77
16710,note_on,0,0,5,,,,,,,,,4,,,88,68
16710,note_on,30,0,5,,,,,,,,,4,,,62,0
16710,note_on,0,0,5,,,,,,,,,4,,,89,0
16725,note_on,0,0,5,,,,,,,,,4,,,89,84
16725,note_on,15,0,5,,,,,,,,,4,,,88,0
16740,note_on,60,0,8,,,,,,,,,7,,,58,76
16740,note_on,60,0,7,,,,,,,,,6,,,65,74
16740,note_on,60,0,6,,,,,,,,,5,,,68,80
16740,note_on,60,0,10,,,,,,,,,10,,,38,0
16740,note_on,0,0,5,,,,,,,,,4,,,65,84
16740,note_on,0,0,5,,,,,,,,,4,,,87,82
16740,note_on,0,0,5,,,,,,,,,4,,,68,0
16740,note_on,60,0,9,,,,,,,,,8,,,50,0
16740,note_on,15,0,5,,,,,,,,,4,,,89,0
16755,note_on,15,0,5,,,,,,,,,4,,,87,0
16755,note_on,0,0,5,,,,,,,,,4,,,86,89
16770,note_on,15,0,5,,,,,,,,,4,,,86,0
16770,note_on,0,0,5,,,,,,,,,4,,,70,78
16770,note_on,0,0,5,,,,,,,,,4,,,65,0
16770,note_on,0,0,5,,,,,,,,,4,,,84,73
16785,note_on,0,0,5,,,,,,,,,4,,,82,81
16785,note_on,15,0,5,,,,,,,,,4,,,84,0
16800,note_on,15,0,5,,,,,,,,,4,,,82,0
16800,note_on,60,0,8,,,,,,,,,7,,,58,0
16800,note_on,0,0,5,,,,,,,,,4,,,70,0
16800,note_on,0,0,5,,,,,,,,,4,,,80,85
16800,note_on,0,0,5,,,,,,,,,4,,,63,81
16800,note_on,60,0,9,,,,,,,,,8,,,51,85
16800,note_on,60,0,7,,,,,,,,,6,,,65,0
16800,note_on,60,0,10,,,,,,,,,10,,,39,85
16800,note_on,60,0,6,,,,,,,,,5,,,68,0
16815,note_on,0,0,5,,,,,,,,,4,,,79,81
16815,note_on,15,0,5,,,,,,,,,4,,,80,0
16830,note_on,0,0,5,,,,,,,,,4,,,89,84
16830,note_on,0,0,5,,,,,,,,,4,,,67,74
16830,note_on,0,0,5,,,,,,,,,4,,,63,0
16830,note_on,15,0,5,,,,,,,,,4,,,79,0
16845,note_on,15,0,5,,,,,,,,,4,,,89,0
16845,note_on,0,0,5,,,,,,,,,4,,,87,77
16860,note_on,60,0,6,,,,,,,,,5,,,67,74
16860,note_on,60,0,9,,,,,,,,,8,,,51,0
16860,note_on,60,0,8,,,,,,,,,7,,,58,78
16860,note_on,60,0,10,,,,,,,,,10,,,39,0
16860,note_on,0,0,5,,,,,,,,,4,,,55,84
16860,note_on,0,0,5,,,,,,,,,4,,,86,81
16860,note_on,0,0,5,,,,,,,,,4,,,67,0
16860,note_on,15,0,5,,,,,,,,,4,,,87,0
16860,note_on,60,0,7,,,,,,,,,6,,,63,73
16875,note_on,0,0,5,,,,,,,,,4,,,84,78
16875,note_on,15,0,5,,,,,,,,,4,,,86,0
16890,note_on,15,0,5,,,,,,,,,4,,,84,0
16890,note_on,0,0,5,,,,,,,,,4,,,55,0
16890,note_on,0,0,5,,,,,,,,,4,,,82,76
16890,note_on,0,0,5,,,,,,,,,4,,,58,81
16905,note_on,0,0,5,,,,,,,,,4,,,80,74
16905,note_on,15,0,5,,,,,,,,,4,,,82,0
16920,note_on,60,0,10,,,,,,,,,10,,,44,81
16920,note_on,60,0,7,,,,,,,,,6,,,63,0
16920,note_on,0,0,5,,,,,,,,,4,,,58,0
16920,note_on,0,0,5,,,,,,,,,4,,,79,74
16920,note_on,15,0,5,,,,,,,,,4,,,80,0
16920,note_on,0,0,5,,,,,,,,,4,,,56,84
16920,note_on,60,0,9,,,,,,,,,8,,,56,81
16920,note_on,60,0,6,,,,,,,,,5,,,67,0
16920,note_on,60,0,8,,,,,,,,,7,,,58,0
16935,note_on,15,0,5,,,,,,,,,4,,,79,0
16935,note_on,0,0,5,,,,,,,,,4,,,77,65
16950,note_on,15,0,5,,,,,,,,,4,,,77,0
16950,note_on,0,0,5,,,,,,,,,4,,,56,0
16950,note_on,0,0,5,,,,,,,,,4,,,76,80
16950,note_on,0,0,5,,,,,,,,,4,,,65,81
16965,note_on,15,0,5,,,,,,,,,4,,,76,0
16965,note_on,0,0,5,,,,,,,,,4,,,77,81
16980,note_on,60,0,7,,,,,,,,,6,,,63,72
16980,note_on,60,0,6,,,,,,,,,5,,,65,76
16980,note_on,60,0,10,,,,,,,,,10,,,44,0
16980,note_on,60,0,9,,,,,,,,,8,,,56,0
16980,note_on,60,0,8,,,,,,,,,7,,,60,86
16980,note_on,15,0,5,,,,,,,,,4,,,77,0
16980,note_on,0,0,5,,,,,,,,,4,,,65,0
16980,note_on,0,0,5,,,,,,,,,4,,,76,84
16980,note_on,0,0,5,,,,,,,,,4,,,60,89
16995,note_on,15,0,5,,,,,,,,,4,,,76,0
16995,note_on,0,0,5,,,,,,,,,4,,,77,84
17010,note_on,0,0,5,,,,,,,,,4,,,65,84
17010,note_on,0,0,5,,,,,,,,,4,,,79,86
17010,note_on,0,0,5,,,,,,,,,4,,,60,0
17010,note_on,15,0,5,,,,,,,,,4,,,77,0
17025,note_on,15,0,5,,,,,,,,,4,,,79,0
17025,note_on,0,0,5,,,,,,,,,4,,,80,74
17040,note_on,0,0,5,,,,,,,,,4,,,79,80
17040,note_on,0,0,5,,,,,,,,,4,,,65,0
17040,note_on,15,0,5,,,,,,,,,4,,,80,0
17040,note_on,60,0,10,,,,,,,,,10,,,44,81
17040,note_on,60,0,7,,,,,,,,,6,,,63,0
17040,note_on,0,0,5,,,,,,,,,4,,,56,84
17040,note_on,60,0,9,,,,,,,,,8,,,56,81
17040,note_on,60,0,6,,,,,,,,,5,,,65,0
17040,note_on,60,0,8,,,,,,,,,7,,,60,0
17055,note_on,15,0,5,,,,,,,,,4,,,79,0
17055,note_on,0,0,5,,,,,,,,,4,,,80,86
17070,note_on,0,0,5,,,,,,,,,4,,,56,0
17070,note_on,0,0,5,,,,,,,,,4,,,65,84
17070,note_on,0,0,5,,,,,,,,,4,,,83,80
17070,note_on,15,0,5,,,,,,,,,4,,,80,0
17085,note_on,0,0,5,,,,,,,,,4,,,84,74
17085,note_on,15,0,5,,,,,,,,,4,,,83,0
17100,note_on,60,0,8,,,,,,,,,7,,,60,81
17100,note_on,0,0,5,,,,,,,,,4,,,60,81
17100,note_on,60,0,6,,,,,,,,,5,,,65,72
17100,note_on,60,0,9,,,,,,,,,8,,,56,0
17100,note_on,0,0,5,,,,,,,,,4,,,82,84
17100,note_on,0,0,5,,,,,,,,,4,,,65,0
17100,note_on,60,0,7,,,,,,,,,6,,,63,70
17100,note_on,15,0,5,,,,,,,,,4,,,84,0
17100,note_on,60,0,10,,,,,,,,,10,,,44,0
17115,note_on,15,0,5,,,,,,,,,4,,,82,0
17115,note_on,0,0,5,,,,,,,,,4,,,80,80
17130,note_on,0,0,5,,,,,,,,,4,,,65,76
17130,note_on,0,0,5,,,,,,,,,4,,,79,76
17130,note_on,0,0,5,,,,,,,,,4,,,60,0
17130,note_on,15,0,5,,,,,,,,,4,,,80,0
17145,note_on,0,0,5,,,,,,,,,4,,,77,58
17145,note_on,15,0,5,,,,,,,,,4,,,79,0
17160,note_on,15,0,5,,,,,,,,,4,,,77,0
17160,note_on,60,0,10,,,,,,,,,10,,,45,94
17160,note_on,60,0,7,,,,,,,,,6,,,63,0
17160,note_on,60,0,9,,,,,,,,,8,,,57,94
17160,note_on,60,0,8,,,,,,,,,7,,,60,0
17160,note_on,0,0,5,,,,,,,,,4,,,57,95
17160,note_on,60,0,6,,,,,,,,,5,,,65,0
17160,note_on,0,0,5,,,,,,,,,4,,,65,0
17160,note_on,0,0,5,,,,,,,,,4,,,76,80
17175,note_on,15,0,5,,,,,,,,,4,,,76,0
17175,note_on,0,0,5,,,,,,,,,4,,,77,71
17190,note_on,15,0,5,,,,,,,,,4,,,77,0
17190,note_on,0,0,5,,,,,,,,,4,,,57,0
17190,note_on,0,0,5,,,,,,,,,4,,,76,80
17190,note_on,0,0,5,,,,,,,,,4,,,65,81
17205,note_on,15,0,5,,,,,,,,,4,,,76,0
17205,note_on,0,0,5,,,,,,,,,4,,,77,77
17220,note_on,60,0,8,,,,,,,,,7,,,60,85
17220,note_on,60,0,10,,,,,,,,,10,,,45,0
17220,note_on,60,0,7,,,,,,,,,6,,,63,74
17220,note_on,60,0,9,,,,,,,,,8,,,57,0
17220,note_on,60,0,6,,,,,,,,,5,,,65,77
17220,note_on,15,0,5,,,,,,,,,4,,,77,0
17220,note_on,0,0,5,,,,,,,,,4,,,65,0
17220,note_on,0,0,5,,,,,,,,,4,,,76,84
17220,note_on,0,0,5,,,,,,,,,4,,,60,86
17235,note_on,15,0,5,,,,,,,,,4,,,76,0
17235,note_on,0,0,5,,,,,,,,,4,,,77,81
17250,note_on,15,0,5,,,,,,,,,4,,,77,0
17250,note_on,0,0,5,,,,,,,,,4,,,65,84
17250,note_on,0,0,5,,,,,,,,,4,,,79,86
17250,note_on,0,0,5,,,,,,,,,4,,,60,0
17265,note_on,15,0,5,,,,,,,,,4,,,79,0
17265,note_on,0,0,5,,,,,,,,,4,,,75,93
17280,note_on,60,0,10,,,,,,,,,10,,,46,81
17280,note_on,0,0,4,,,,,,,,,3,,,46,64
17280,note_on,0,0,6,,,,,,,,,5,,,65,74
17280,note_on,60,0,9,,,,,,,,,8,,,58,81
17280,note_on,900,0,4,,,,,,,,,3,,,58,51
17280,note_on,0,0,8,,,,,,,,,7,,,58,84
17280,note_on,0,0,7,,,,,,,,,6,,,62,72
17280,note_on,60,0,6,,,,,,,,,5,,,65,0
17280,note_on,60,0,7,,,,,,,,,6,,,63,0
17280,note_on,60,0,8,,,,,,,,,7,,,60,0
17280,note_on,15,0,5,,,,,,,,,4,,,75,0
17280,note_on,0,0,5,,,,,,,,,4,,,65,0
17280,note_on,0,0,5,,,,,,,,,4,,,75,76
17280,note_on,0,0,5,,,,,,,,,4,,,58,65
17290,note_on,10,0,5,,,,,,,,,4,,,75,0
17290,note_on,0,0,5,,,,,,,,,4,,,77,73
17300,note_on,10,0,5,,,,,,,,,4,,,77,0
17300,note_on,0,0,5,,,,,,,,,4,,,75,89
17310,note_on,0,0,5,,,,,,,,,4,,,74,86
17310,note_on,10,0,5,,,,,,,,,4,,,75,0
17325,note_on,0,0,4,,,,,,,,,3,,,58,0
17325,note_on,45,0,4,,,,,,,,,3,,,46,0
17340,note_on,15,0,4,,,,,,,,,3,,,58,56
17340,note_on,0,0,5,,,,,,,,,4,,,72,64
17340,note_on,0,0,4,,,,,,,,,3,,,46,61
17340,note_on,30,0,5,,,,,,,,,4,,,74,0
17350,note_on,0,0,5,,,,,,,,,4,,,74,80
17350,note_on,10,0,5,,,,,,,,,4,,,72,0
17360,note_on,0,0,5,,,,,,,,,4,,,72,68
17360,note_on,10,0,5,,,,,,,,,4,,,74,0
17370,note_on,0,0,5,,,,,,,,,4,,,70,76
17370,note_on,10,0,5,,,,,,,,,4,,,72,0
17385,note_on,45,0,4,,,,,,,,,3,,,46,0
17385,note_on,0,0,4,,,,,,,,,3,,,58,0
17400,note_on,0,0,4,,,,,,,,,3,,,46,54
17400,program_change,0,0,7,,,,,,,,48,6,,,,
17400,note_on,120,0,7,,,,,,,,,6,,,62,0
17400,note_on,15,0,4,,,,,,,,,3,,,58,53
17400,program_change,0,0,6,,,,,,,,48,5,,,,
17400,note_on,120,0,10,,,,,,,,,10,,,46,0
17400,note_on,120,0,8,,,,,,,,,7,,,58,0
17400,program_change,0,0,8,,,,,,,,48,7,,,,
17400,program_change,0,0,10,,,,,,,,48,10,,,,
17400,note_on,120,0,6,,,,,,,,,5,,,65,0
17400,program_change,0,0,9,,,,,,,,48,8,,,,
17400,note_on,120,0,9,,,,,,,,,8,,,58,0
17400,note_on,30,0,5,,,,,,,,,4,,,58,0
17445,note_on,0,0,4,,,,,,,,,3,,,58,0
17445,note_on,45,0,4,,,,,,,,,3,,,46,0
17460,note_on,15,0,4,,,,,,,,,3,,,58,66
17460,note_on,60,0,8,,,,,,,,,7,,,58,73
17460,note_on,0,0,4,,,,,,,,,3,,,46,80
17460,note_on,1080,0,2,,,,,,,,,1,,,75,57
17460,note_on,60,0,9,,,,,,,,,8,,,55,64
17460,note_on,0,0,2,,,,,,,,,1,,,70,56
17460,note_on,60,0,10,,,,,,,,,10,,,43,64
17460,note_on,60,0,5,,,,,,,,,4,,,70,0
17460,note_on,60,0,6,,,,,,,,,5,,,63,71
17460,note_on,0,0,3,,,,,,,,,2,,,58,68
17460,note_on,1080,0,3,,,,,,,,,2,,,63,52
17460,note_on,60,0,7,,,,,,,,,6,,,63,73
17460,note_on,5160,0,1,,,,,,,,,0,,,75,65
17505,note_on,45,0,4,,,,,,,,,3,,,46,0
17505,note_on,0,0,4,,,,,,,,,3,,,58,0
17520,note_on,60,0,8,,,,,,,,,7,,,58,0
17520,note_on,0,0,1,,,,,,,,,0,,,80,74
17520,note_on,60,0,1,,,,,,,,,0,,,75,0
17520,note_on,60,0,7,,,,,,,,,6,,,63,0
17520,note_on,0,0,7,,,,,,,,,6,,,68,89
17520,note_on,0,0,4,,,,,,,,,3,,,46,84
17520,note_on,0,0,8,,,,,,,,,7,,,56,86
17520,note_on,15,0,4,,,,,,,,,3,,,58,74
17520,note_on,0,0,10,,,,,,,,,10,,,41,93
17520,note_on,0,0,2,,,,,,,,,1,,,74,62
17520,note_on,0,0,2,,,,,,,,,1,,,75,0
17520,note_on,60,0,3,,,,,,,,,2,,,58,0
17520,note_on,0,0,3,,,,,,,,,2,,,63,0
17520,note_on,0,0,3,,,,,,,,,2,,,62,54
17520,note_on,0,0,3,,,,,,,,,2,,,56,74
17520,note_on,60,0,6,,,,,,,,,5,,,63,0
17520,note_on,0,0,6,,,,,,,,,5,,,68,89
17520,note_on,0,0,2,,,,,,,,,1,,,68,70
17520,note_on,0,0,9,,,,,,,,,8,,,53,93
17520,note_on,60,0,9,,,,,,,,,8,,,55,0
17520,note_on,60,0,10,,,,,,,,,10,,,43,0
17520,note_on,60,0,2,,,,,,,,,1,,,70,0
17565,note_on,0,0,4,,,,,,,,,3,,,58,0
17565,note_on,45,0,4,,,,,,,,,3,,,46,0
17580,note_on,0,0,9,,,,,,,,,8,,,51,89
17580,note_on,60,0,6,,,,,,,,,5,,,68,0
17580,note_on,0,0,4,,,,,,,,,3,,,46,86
17580,note_on,15,0,4,,,,,,,,,3,,,58,78
17580,note_on,60,0,8,,,,,,,,,7,,,56,0
17580,note_on,0,0,8,,,,,,,,,7,,,55,89
17580,note_on,60,0,9,,,,,,,,,8,,,53,0
17580,note_on,60,0,10,,,,,,,,,10,,,41,0
17580,note_on,0,0,2,,,,,,,,,1,,,74,0
17580,note_on,0,0,2,,,,,,,,,1,,,67,72
17580,note_on,0,0,6,,,,,,,,,5,,,72,68
17580,note_on,60,0,2,,,,,,,,,1,,,68,0
17580,note_on,0,0,1,,,,,,,,,0,,,84,76
17580,note_on,60,0,1,,,,,,,,,0,,,80,0
17580,note_on,60,0,7,,,,,,,,,6,,,68,0
17580,note_on,0,0,10,,,,,,,,,10,,,39,89
17580,note_on,0,0,3,,,,,,,,,2,,,55,76
17580,note_on,0,0,3,,,,,,,,,2,,,60,81
17580,note_on,0,0,3,,,,,,,,,2,,,62,0
17580,note_on,60,0,3,,,,,,,,,2,,,56,0
17580,note_on,0,0,7,,,,,,,,,6,,,72,62
17625,note_on,0,0,4,,,,,,,,,3,,,58,0
17625,note_on,45,0,4,,,,,,,,,3,,,46,0
17640,note_on,60,0,3,,,,,,,,,2,,,55,0
17640,note_on,0,0,3,,,,,,,,,2,,,58,89
17640,note_on,60,0,9,,,,,,,,,8,,,51,0
17640,note_on,0,0,9,,,,,,,,,8,,,50,99
17640,note_on,0,0,3,,,,,,,,,2,,,53,89
17640,note_on,0,0,6,,,,,,,,,5,,,70,99
17640,note_on,60,0,6,,,,,,,,,5,,,72,0
17640,note_on,0,0,3,,,,,,,,,2,,,60,0
17640,note_on,60,0,10,,,,,,,,,10,,,39,0
17640,note_on,60,0,2,,,,,,,,,1,,,67,0
17640,note_on,0,0,8,,,,,,,,,7,,,53,94
17640,note_on,60,0,8,,,,,,,,,7,,,55,0
17640,note_on,0,0,7,,,,,,,,,6,,,70,99
17640,note_on,60,0,1,,,,,,,,,0,,,84,0
17640,note_on,0,0,1,,,,,,,,,0,,,82,76
17640,note_on,0,0,10,,,,,,,,,10,,,38,99
17640,note_on,0,0,4,,,,,,,,,3,,,46,95
17640,note_on,15,0,4,,,,,,,,,3,,,58,90
17640,note_on,0,0,2,,,,,,,,,1,,,70,81
17640,note_on,60,0,7,,,,,,,,,6,,,72,0
17700,note_on,60,0,9,,,,,,,,,8,,,50,0
17700,note_on,0,0,3,,,,,,,,,2,,,62,44
17700,note_on,60,0,10,,,,,,,,,10,,,38,0
17700,note_on,0,0,3,,,,,,,,,2,,,53,74
17700,note_on,60,0,3,,,,,,,,,2,,,53,0
17700,note_on,0,0,3,,,,,,,,,2,,,58,0
17700,note_on,60,0,8,,,,,,,,,7,,,53,0
17700,note_on,0,0,8,,,,,,,,,7,,,58,86
17700,note_on,0,0,9,,,,,,,,,8,,,46,86
17700,note_on,0,0,10,,,,,,,,,10,,,34,86
17700,note_on,0,0,4,,,,,,,,,3,,,58,0
17700,note_on,0,0,4,,,,,,,,,3,,,46,80
17700,note_on,0,0,4,,,,,,,,,3,,,58,69
17700,note_on,60,0,2,,,,,,,,,1,,,74,81
17700,note_on,60,0,4,,,,,,,,,3,,,46,0
17730,note_on,90,0,6,,,,,,,,,5,,,70,0
17730,note_on,0,0,6,,,,,,,,,5,,,68,90
17730,note_on,0,0,7,,,,,,,,,6,,,68,80
17730,note_on,30,0,2,,,,,,,,,1,,,70,0
17730,note_on,0,0,2,,,,,,,,,1,,,80,74
17730,note_on,0,0,1,,,,,,,,,0,,,80,73
17730,note_on,90,0,1,,,,,,,,,0,,,82,0
17730,note_on,90,0,7,,,,,,,,,6,,,70,0
17760,note_on,0,0,1,,,,,,,,,0,,,79,68
17760,note_on,0,0,7,,,,,,,,,6,,,67,80
17760,note_on,0,0,8,,,,,,,,,7,,,58,70
17760,note_on,30,0,2,,,,,,,,,1,,,80,0
17760,note_on,0,0,3,,,,,,,,,2,,,55,77
17760,note_on,0,0,3,,,,,,,,,2,,,63,61
17760,note_on,0,0,3,,,,,,,,,2,,,62,0
17760,note_on,60,0,3,,,,,,,,,2,,,53,0
17760,note_on,0,0,2,,,,,,,,,1,,,74,0
17760,note_on,0,0,2,,,,,,,,,1,,,79,64
17760,note_on,0,0,2,,,,,,,,,1,,,75,69
17760,note_on,30,0,1,,,,,,,,,0,,,80,0
17760,note_on,60,0,8,,,,,,,,,7,,,58,0
17760,note_on,30,0,7,,,,,,,,,6,,,68,0
17760,note_on,0,0,9,,,,,,,,,8,,,51,84
17760,note_on,60,0,4,,,,,,,,,3,,,46,0
17760,note_on,0,0,4,,,,,,,,,3,,,58,0
17760,note_on,60,0,9,,,,,,,,,8,,,46,0
17760,note_on,0,0,4,,,,,,,,,3,,,46,78
17760,note_on,0,0,10,,,,,,,,,10,,,39,84
17760,note_on,0,0,4,,,,,,,,,3,,,58,66
17760,note_on,30,0,6,,,,,,,,,5,,,68,0
17760,note_on,60,0,10,,,,,,,,,10,,,34,0
17760,note_on,0,0,6,,,,,,,,,5,,,67,76
17790,note_on,30,0,6,,,,,,,,,5,,,67,0
17790,note_on,30,0,10,,,,,,,,,10,,,39,0
17790,note_on,30,0,3,,,,,,,,,2,,,55,0
17790,note_on,0,0,3,,,,,,,,,2,,,63,0
17790,note_on,30,0,7,,,,,,,,,6,,,67,0
17790,note_on,30,0,9,,,,,,,,,8,,,51,0
17790,note_on,30,0,2,,,,,,,,,1,,,75,0
17790,note_on,30,0,8,,,,,,,,,7,,,58,0
17790,note_on,0,0,2,,,,,,,,,1,,,79,0
17790,note_on,30,0,1,,,,,,,,,0,,,79,0
17820,note_on,60,0,4,,,,,,,,,3,,,46,0
17820,note_on,360,0,5,,,,,,,,,4,,,75,86
17820,note_on,0,0,5,,,,,,,,,4,,,67,84
17820,note_on,0,0,4,,,,,,,,,3,,,58,0
17850,note_on,0,0,5,,,,,,,,,4,,,70,72
17850,note_on,30,0,5,,,,,,,,,4,,,67,0
17880,note_on,0,0,5,,,,,,,,,4,,,80,72
17880,note_on,0,0,5,,,,,,,,,4,,,74,90
17880,note_on,0,0,5,,,,,,,,,4,,,75,0
17880,note_on,30,0,5,,,,,,,,,4,,,70,0
17880,note_on,0,0,5,,,,,,,,,4,,,65,84
17910,note_on,0,0,5,,,,,,,,,4,,,68,65
17910,note_on,30,0,5,,,,,,,,,4,,,65,0
17940,note_on,0,0,5,,,,,,,,,4,,,84,71
17940,note_on,0,0,5,,,,,,,,,4,,,72,48
17940,note_on,0,0,5,,,,,,,,,4,,,63,77
17940,note_on,30,0,5,,,,,,,,,4,,,68,0
17940,note_on,0,0,5,,,,,,,,,4,,,74,0
17940,note_on,0,0,5,,,,,,,,,4,,,80,0
17970,note_on,30,0,5,,,,,,,,,4,,,63,0
17970,note_on,0,0,5,,,,,,,,,4,,,67,72
18000,note_on,0,0,5,,,,,,,,,4,,,77,84
18000,note_on,30,0,5,,,,,,,,,4,,,67,0
18000,note_on,0,0,5,,,,,,,,,4,,,72,0
18000,note_on,0,0,5,,,,,,,,,4,,,82,73
18000,note_on,0,0,5,,,,,,,,,4,,,62,72
18000,note_on,0,0,5,,,,,,,,,4,,,84,0
18030,note_on,0,0,5,,,,,,,,,4,,,65,74
18030,note_on,30,0,5,,,,,,,,,4,,,62,0
18060,note_on,0,0,5,,,,,,,,,4,,,58,77
18060,note_on,30,0,5,,,,,,,,,4,,,65,0
18090,note_on,0,0,5,,,,,,,,,4,,,62,84
18090,note_on,0,0,5,,,,,,,,,4,,,84,77
18090,note_on,0,0,5,,,,,,,,,4,,,82,0
18090,note_on,30,0,5,,,,,,,,,4,,,58,0
18105,note_on,0,0,5,,,,,,,,,4,,,80,80
18105,note_on,15,0,5,,,,,,,,,4,,,84,0
18120,note_on,0,0,5,,,,,,,,,4,,,70,76
18120,note_on,15,0,5,,,,,,,,,4,,,80,0
18120,note_on,0,0,5,,,,,,,,,4,,,62,0
18120,note_on,0,0,5,,,,,,,,,4,,,77,0
18120,note_on,0,0,5,,,,,,,,,4,,,79,66
18120,note_on,0,0,5,,,,,,,,,4,,,63,76
18180,note_on,390,0,8,,,,,,,,,7,,,63,60
18180,note_on,390,0,10,,,,,,,,,10,,,48,70
18180,note_on,390,0,9,,,,,,,,,8,,,60,70
18180,note_on,60,0,5,,,,,,,,,4,,,63,0
18180,note_on,0,0,5,,,,,,,,,4,,,70,0
18180,note_on,0,0,5,,,,,,,,,4,,,79,0
18180,note_on,390,0,6,,,,,,,,,5,,,68,63
18180,note_on,390,0,7,,,,,,,,,6,,,56,53
18240,note_on,60,0,10,,,,,,,,,10,,,48,0
18240,note_on,0,0,10,,,,,,,,,10,,,46,84
18240,note_on,0,0,6,,,,,,,,,5,,,73,80
18240,note_on,60,0,7,,,,,,,,,6,,,56,0
18240,note_on,0,0,9,,,,,,,,,8,,,58,84
18240,note_on,0,0,7,,,,,,,,,6,,,61,82
18240,note_on,60,0,8,,,,,,,,,7,,,63,0
18240,note_on,0,0,8,,,,,,,,,7,,,61,78
18240,note_on,60,0,9,,,,,,,,,8,,,60,0
18240,note_on,60,0,6,,,,,,,,,5,,,68,0
18300,note_on,60,0,7,,,,,,,,,6,,,61,0
18300,note_on,0,0,7,,,,,,,,,6,,,65,86
18300,note_on,0,0,6,,,,,,,,,5,,,77,90
18300,note_on,60,0,6,,,,,,,,,5,,,73,0
18300,note_on,60,0,8,,,,,,,,,7,,,61,0
18300,note_on,0,0,8,,,,,,,,,7,,,60,90
18300,note_on,60,0,10,,,,,,,,,10,,,46,0
18300,note_on,0,0,9,,,,,,,,,8,,,56,93
18300,note_on,60,0,9,,,,,,,,,8,,,58,0
18300,note_on,0,0,10,,,,,,,,,10,,,44,93
18360,note_on,60,0,6,,,,,,,,,5,,,77,0
18360,note_on,0,0,6,,,,,,,,,5,,,75,98
18360,note_on,60,0,9,,,,,,,,,8,,,56,0
18360,note_on,0,0,7,,,,,,,,,6,,,63,93
18360,note_on,60,0,7,,,,,,,,,6,,,65,0
18360,note_on,60,0,10,,,,,,,,,10,,,44,0
18360,note_on,60,0,8,,,,,,,,,7,,,60,0
18360,note_on,0,0,8,,,,,,,,,7,,,58,95
18360,note_on,0,0,9,,,,,,,,,8,,,55,104
18360,note_on,0,0,10,,,,,,,,,10,,,43,104
18420,note_on,0,0,8,,,,,,,,,7,,,55,72
18420,note_on,60,0,9,,,,,,,,,8,,,55,0
18420,note_on,0,0,9,,,,,,,,,8,,,51,85
18420,note_on,60,0,8,,,,,,,,,7,,,58,0
18420,note_on,60,0,10,,,,,,,,,10,,,43,0
18420,note_on,0,0,10,,,,,,,,,10,,,39,85
18450,note_on,90,0,6,,,,,,,,,5,,,75,0
18450,note_on,0,0,7,,,,,,,,,6,,,61,74
18450,note_on,0,0,6,,,,,,,,,5,,,73,77
18450,note_on,90,0,7,,,,,,,,,6,,,63,0
18480,note_on,30,0,6,,,,,,,,,5,,,73,0
18480,note_on,0,0,10,,,,,,,,,10,,,44,85
18480,note_on,0,0,8,,,,,,,,,7,,,56,77
18480,note_on,60,0,8,,,,,,,,,7,,,55,0
18480,note_on,0,0,6,,,,,,,,,5,,,72,43
18480,note_on,60,0,9,,,,,,,,,8,,,51,0
18480,note_on,0,0,7,,,,,,,,,6,,,60,78
18480,note_on,30,0,7,,,,,,,,,6,,,61,0
18480,note_on,60,0,10,,,,,,,,,10,,,39,0
18480,note_on,0,0,9,,,,,,,,,8,,,56,85
18510,note_on,30,0,8,,,,,,,,,7,,,56,0
18510,note_on,30,0,10,,,,,,,,,10,,,44,0
18510,note_on,30,0,9,,,,,,,,,8,,,56,0
18510,note_on,30,0,7,,,,,,,,,6,,,60,0
18510,note_on,30,0,6,,,,,,,,,5,,,72,0
18540,note_on,360,0,5,,,,,,,,,4,,,80,71
18540,note_on,0,0,5,,,,,,,,,4,,,72,61
18540,note_on,30,0,10,,,,,,,,,10,,,48,53
18540,note_on,30,0,9,,,,,,,,,8,,,60,53
18540,note_on,30,0,8,,,,,,,,,7,,,63,45
18555,note_on,15,0,5,,,,,,,,,4,,,80,0
18555,note_on,0,0,5,,,,,,,,,4,,,82,80
18558,note_on,3,0,5,,,,,,,,,4,,,80,84
18559,note_on,1,0,5,,,,,,,,,4,,,82,0
18562,note_on,0,0,5,,,,,,,,,4,,,79,80
18562,note_on,3,0,5,,,,,,,,,4,,,80,0
18565,note_on,3,0,5,,,,,,,,,4,,,80,84
18566,note_on,1,0,5,,,,,,,,,4,,,79,0
18569,note_on,3,0,5,,,,,,,,,4,,,80,0
18570,note_on,1,0,5,,,,,,,,,4,,,72,0
18570,note_on,0,0,5,,,,,,,,,4,,,82,74
18570,note_on,0,0,5,,,,,,,,,4,,,75,84
18570,note_on,30,0,8,,,,,,,,,7,,,63,0
18570,note_on,60,0,6,,,,,,,,,5,,,68,67
18570,note_on,30,0,10,,,,,,,,,10,,,48,0
18570,note_on,30,0,9,,,,,,,,,8,,,60,0
18570,note_on,60,0,7,,,,,,,,,6,,,68,61
18585,note_on,0,0,5,,,,,,,,,4,,,84,67
18585,note_on,15,0,5,,,,,,,,,4,,,82,0
18600,note_on,30,0,7,,,,,,,,,6,,,68,0
18600,note_on,30,0,10,,,,,,,,,10,,,46,48
18600,note_on,30,0,8,,,,,,,,,7,,,61,64
18600,note_on,0,0,5,,,,,,,,,4,,,70,85
18600,note_on,0,0,5,,,,,,,,,4,,,85,77
18600,note_on,30,0,9,,,,,,,,,8,,,58,48
18600,note_on,15,0,5,,,,,,,,,4,,,84,0
18600,note_on,0,0,5,,,,,,,,,4,,,75,0
18600,note_on,30,0,6,,,,,,,,,5,,,68,0
18615,note_on,15,0,5,,,,,,,,,4,,,85,0
18615,note_on,0,0,5,,,,,,,,,4,,,87,86
18620,note_on,5,0,5,,,,,,,,,4,,,87,0
18620,note_on,0,0,5,,,,,,,,,4,,,85,84
18625,note_on,5,0,5,,,,,,,,,4,,,85,0
18625,note_on,0,0,5,,,,,,,,,4,,,84,84
18630,note_on,30,0,9,,,,,,,,,8,,,58,0
18630,note_on,0,0,5,,,,,,,,,4,,,73,80
18630,note_on,0,0,5,,,,,,,,,4,,,85,84
18630,note_on,30,0,10,,,,,,,,,10,,,46,0
18630,note_on,30,0,7,,,,,,,,,6,,,61,71
18630,note_on,30,0,8,,,,,,,,,7,,,61,0
18630,note_on,30,0,6,,,,,,,,,5,,,73,68
18630,note_on,0,0,5,,,,,,,,,4,,,70,0
18630,note_on,5,0,5,,,,,,,,,4,,,84,0
18635,note_on,5,0,5,,,,,,,,,4,,,85,0
18645,note_on,10,0,5,,,,,,,,,4,,,87,90
18660,note_on,30,0,8,,,,,,,,,7,,,60,65
18660,note_on,15,0,5,,,,,,,,,4,,,87,0
18660,note_on,30,0,9,,,,,,,,,8,,,56,60
18660,note_on,0,0,5,,,,,,,,,4,,,89,86
18660,note_on,0,0,5,,,,,,,,,4,,,73,0
18660,note_on,0,0,5,,,,,,,,,4,,,68,86
18660,note_on,30,0,10,,,,,,,,,10,,,44,60
18660,note_on,30,0,6,,,,,,,,,5,,,73,0
18660,note_on,30,0,7,,,,,,,,,6,,,61,0
18675,note_on,15,0,5,,,,,,,,,4,,,89,0
18690,note_on,0,0,5,,,,,,,,,4,,,72,80
18690,note_on,30,0,8,,,,,,,,,7,,,60,0
18690,note_on,30,0,10,,,,,,,,,10,,,44,0
18690,note_on,30,0,9,,,,,,,,,8,,,56,0
18690,note_on,30,0,7,,,,,,,,,6,,,65,65
18690,note_on,30,0,6,,,,,,,,,5,,,77,67
18690,note_on,15,0,5,,,,,,,,,4,,,68,0
18690,note_on,0,0,5,,,,,,,,,4,,,89,85
18705,note_on,15,0,5,,,,,,,,,4,,,89,0
18720,note_on,30,0,8,,,,,,,,,7,,,58,45
18720,note_on,30,0,10,,,,,,,,,10,,,43,45
18720,note_on,30,0,7,,,,,,,,,6,,,65,0
18720,note_on,0,0,5,,,,,,,,,4,,,67,77
18720,note_on,15,0,5,,,,,,,,,4,,,72,0
18720,note_on,0,0,5,,,,,,,,,4,,,89,85
18720,note_on,30,0,6,,,,,,,,,5,,,77,0
18720,note_on,30,0,9,,,,,,,,,8,,,55,45
18750,note_on,0,0,5,,,,,,,,,4,,,89,0
18750,note_on,0,0,5,,,,,,,,,4,,,87,74
18750,note_on,0,0,5,,,,,,,,,4,,,70,76
18750,note_on,30,0,8,,,,,,,,,7,,,58,0
18750,note_on,30,0,5,,,,,,,,,4,,,67,0
18750,note_on,30,0,7,,,,,,,,,6,,,63,71
18750,note_on,30,0,6,,,,,,,,,5,,,75,70
18750,note_on,30,0,10,,,,,,,,,10,,,43,0
18750,note_on,30,0,9,,,,,,,,,8,,,55,0
18765,note_on,15,0,5,,,,,,,,,4,,,87,0
18780,note_on,0,0,5,,,,,,,,,4,,,63,74
18780,note_on,30,0,6,,,,,,,,,5,,,75,0
18780,note_on,30,0,7,,,,,,,,,6,,,63,0
18780,note_on,15,0,5,,,,,,,,,4,,,70,0
18780,note_on,30,0,8,,,,,,,,,7,,,55,43
18780,note_on,30,0,9,,,,,,,,,8,,,51,60
18780,note_on,30,0,10,,,,,,,,,10,,,39,60
18810,note_on,30,0,6,,,,,,,,,5,,,73,58
18810,note_on,30,0,8,,,,,,,,,7,,,55,0
18810,note_on,30,0,9,,,,,,,,,8,,,51,0
18810,note_on,30,0,10,,,,,,,,,10,,,39,0
18810,note_on,30,0,5,,,,,,,,,4,,,63,0
18810,note_on,30,0,7,,,,,,,,,6,,,61,63
18810,note_on,0,0,5,,,,,,,,,4,,,67,68
18825,note_on,15,0,5,,,,,,,,,4,,,85,80
18840,note_on,0,0,5,,,,,,,,,4,,,68,86
18840,note_on,30,0,6,,,,,,,,,5,,,73,0
18840,note_on,30,0,8,,,,,,,,,7,,,56,62
18840,note_on,0,0,5,,,,,,,,,4,,,85,80
18840,note_on,0,0,5,,,,,,,,,4,,,67,0
18840,note_on,30,0,10,,,,,,,,,10,,,44,51
18840,note_on,15,0,5,,,,,,,,,4,,,85,0
18840,note_on,30,0,9,,,,,,,,,8,,,56,51
18840,note_on,30,0,7,,,,,,,,,6,,,61,0
18870,note_on,30,0,7,,,,,,,,,6,,,60,68
18870,note_on,30,0,5,,,,,,,,,4,,,68,0
18870,note_on,0,0,5,,,,,,,,,4,,,85,0
18870,note_on,30,0,10,,,,,,,,,10,,,44,0
18870,note_on,30,0,9,,,,,,,,,8,,,56,0
18870,note_on,30,0,6,,,,,,,,,5,,,72,44
18870,note_on,0,0,5,,,,,,,,,4,,,84,81
18870,note_on,0,0,5,,,,,,,,,4,,,72,80
18870,note_on,0,0,8,,,,,,,,,7,,,60,65
18870,note_on,30,0,8,,,,,,,,,7,,,56,0
18885,note_on,15,0,5,,,,,,,,,4,,,84,0
18900,note_on,15,0,5,,,,,,,,,4,,,72,0
18900,note_on,0,0,5,,,,,,,,,4,,,64,81
18900,note_on,30,0,7,,,,,,,,,6,,,60,0
18900,note_on,30,0,8,,,,,,,,,7,,,60,0
18900,note_on,30,0,9,,,,,,,,,8,,,52,73
18900,note_on,30,0,10,,,,,,,,,10,,,40,73
18900,note_on,30,0,6,,,,,,,,,5,,,72,0
18930,note_on,30,0,8,,,,,,,,,7,,,60,52
18930,note_on,30,0,6,,,,,,,,,5,,,70,65
18930,note_on,30,0,7,,,,,,,,,6,,,67,62
18930,note_on,30,0,5,,,,,,,,,4,,,64,0
18930,note_on,30,0,9,,,,,,,,,8,,,52,0
18930,note_on,30,0,10,,,,,,,,,10,,,40,0
18930,note_on,0,0,5,,,,,,,,,4,,,67,82
18945,note_on,15,0,5,,,,,,,,,4,,,82,81
18960,note_on,30,0,8,,,,,,,,,7,,,60,0
18960,note_on,30,0,9,,,,,,,,,8,,,53,43
18960,note_on,30,0,10,,,,,,,,,10,,,41,43
18960,note_on,30,0,6,,,,,,,,,5,,,70,0
18960,note_on,30,0,7,,,,,,,,,6,,,67,0
18960,note_on,15,0,5,,,,,,,,,4,,,82,0
18960,note_on,0,0,5,,,,,,,,,4,,,67,0
18960,note_on,0,0,5,,,,,,,,,4,,,65,84
18960,note_on,0,0,5,,,,,,,,,4,,,82,85
18975,note_on,0,0,5,,,,,,,,,4,,,80,72
18975,note_on,15,0,5,,,,,,,,,4,,,82,0
18990,note_on,30,0,8,,,,,,,,,7,,,60,60
18990,note_on,30,0,7,,,,,,,,,6,,,65,64
18990,note_on,30,0,6,,,,,,,,,5,,,68,62
18990,note_on,0,0,5,,,,,,,,,4,,,65,0
18990,note_on,0,0,5,,,,,,,,,4,,,68,68
18990,note_on,30,0,10,,,,,,,,,10,,,41,0
18990,note_on,30,0,9,,,,,,,,,8,,,53,0
18990,note_on,15,0,5,,,,,,,,,4,,,80,0
19005,note_on,15,0,5,,,,,,,,,4,,,80,89
19020,note_on,15,0,5,,,,,,,,,4,,,80,0
19020,note_on,0,0,5,,,,,,,,,4,,,68,0
19020,note_on,30,0,8,,,,,,,,,7,,,60,0
19020,note_on,0,0,5,,,,,,,,,4,,,80,86
19020,note_on,30,0,7,,,,,,,,,6,,,65,0
19020,note_on,30,0,6,,,,,,,,,5,,,68,0
19020,note_on,30,0,10,,,,,,,,,10,,,43,64
19020,note_on,30,0,9,,,,,,,,,8,,,55,64
19020,note_on,0,0,5,,,,,,,,,4,,,67,72
19035,note_on,0,0,5,,,,,,,,,4,,,79,86
19035,note_on,15,0,5,,,,,,,,,4,,,80,0
19050,note_on,30,0,7,,,,,,,,,6,,,64,72
19050,note_on,30,0,9,,,,,,,,,8,,,55,0
19050,note_on,30,0,6,,,,,,,,,5,,,67,60
19050,note_on,0,0,5,,,,,,,,,4,,,67,0
19050,note_on,30,0,10,,,,,,,,,10,,,43,0
19050,note_on,15,0,5,,,,,,,,,4,,,79,0
19050,note_on,30,0,8,,,,,,,,,7,,,58,57
19050,note_on,0,0,5,,,,,,,,,4,,,70,74
19065,note_on,15,0,5,,,,,,,,,4,,,79,89
19080,note_on,0,0,5,,,,,,,,,4,,,70,0
19080,note_on,0,0,5,,,,,,,,,4,,,56,84
19080,note_on,15,0,5,,,,,,,,,4,,,79,0
19080,note_on,30,0,8,,,,,,,,,7,,,58,0
19080,note_on,30,0,7,,,,,,,,,6,,,64,0
19080,note_on,0,0,5,,,,,,,,,4,,,79,77
19080,note_on,30,0,10,,,,,,,,,10,,,44,62
19080,note_on,30,0,9,,,,,,,,,8,,,56,62
19080,note_on,30,0,6,,,,,,,,,5,,,67,0
19095,note_on,15,0,5,,,,,,,,,4,,,79,0
19095,note_on,0,0,5,,,,,,,,,4,,,77,86
19110,note_on,15,0,5,,,,,,,,,4,,,77,0
19110,note_on,0,0,5,,,,,,,,,4,,,56,0
19110,note_on,0,0,5,,,,,,,,,4,,,76,85
19110,note_on,0,0,5,,,,,,,,,4,,,60,89
19125,note_on,15,0,5,,,,,,,,,4,,,76,0
19125,note_on,0,0,5,,,,,,,,,4,,,77,89
19140,note_on,60,0,8,,,,,,,,,7,,,56,58
19140,note_on,60,0,10,,,,,,,,,10,,,44,0
19140,note_on,60,0,7,,,,,,,,,6,,,60,74
19140,note_on,0,0,5,,,,,,,,,4,,,65,73
19140,note_on,60,0,9,,,,,,,,,8,,,56,0
19140,note_on,0,0,5,,,,,,,,,4,,,60,0
19140,note_on,0,0,5,,,,,,,,,4,,,80,81
19140,note_on,15,0,5,,,,,,,,,4,,,77,0
19140,note_on,60,0,6,,,,,,,,,5,,,65,65
19170,note_on,30,0,5,,,,,,,,,4,,,65,0
19170,note_on,0,0,5,,,,,,,,,4,,,80,0
19170,note_on,0,0,5,,,,,,,,,4,,,77,89
19170,note_on,0,0,5,,,,,,,,,4,,,68,73
19200,note_on,60,0,8,,,,,,,,,7,,,56,0
19200,note_on,60,0,10,,,,,,,,,10,,,46,59
19200,note_on,60,0,6,,,,,,,,,5,,,65,0
19200,note_on,60,0,9,,,,,,,,,8,,,58,59
19200,note_on,60,0,7,,,,,,,,,6,,,60,0
19200,note_on,0,0,5,,,,,,,,,4,,,58,80
19200,note_on,30,0,5,,,,,,,,,4,,,68,0
19200,note_on,0,0,5,,,,,,,,,4,,,77,0
19215,note_on,15,0,5,,,,,,,,,4,,,75,95
19230,note_on,0,0,5,,,,,,,,,4,,,58,0
19230,note_on,0,0,5,,,,,,,,,4,,,67,65
19230,note_on,0,0,5,,,,,,,,,4,,,74,95
19230,note_on,15,0,5,,,,,,,,,4,,,75,0
19245,note_on,15,0,5,,,,,,,,,4,,,74,0
19245,note_on,0,0,5,,,,,,,,,4,,,75,95
19260,note_on,0,0,5,,,,,,,,,4,,,63,73
19260,note_on,60,0,8,,,,,,,,,7,,,55,62
19260,note_on,60,0,6,,,,,,,,,5,,,63,66
19260,note_on,0,0,5,,,,,,,,,4,,,79,73
19260,note_on,0,0,5,,,,,,,,,4,,,67,0
19260,note_on,60,0,9,,,,,,,,,8,,,58,0
19260,note_on,15,0,5,,,,,,,,,4,,,75,0
19260,note_on,60,0,7,,,,,,,,,6,,,58,65
19260,note_on,60,0,10,,,,,,,,,10,,,46,0
19290,note_on,0,0,5,,,,,,,,,4,,,75,89
19290,note_on,0,0,5,,,,,,,,,4,,,67,73
19290,note_on,0,0,5,,,,,,,,,4,,,79,0
19290,note_on,30,0,5,,,,,,,,,4,,,63,0
19320,note_on,0,0,5,,,,,,,,,4,,,56,85
19320,note_on,0,0,5,,,,,,,,,4,,,75,0
19320,note_on,60,0,6,,,,,,,,,5,,,63,0
19320,note_on,60,0,8,,,,,,,,,7,,,55,0
19320,note_on,30,0,5,,,,,,,,,4,,,67,0
19320,note_on,60,0,7,,,,,,,,,6,,,58,0
19320,note_on,60,0,10,,,,,,,,,10,,,44,68
19320,note_on,60,0,9,,,,,,,,,8,,,56,68
19335,note_on,15,0,5,,,,,,,,,4,,,74,90
19350,note_on,0,0,5,,,,,,,,,4,,,65,62
19350,note_on,0,0,5,,,,,,,,,4,,,73,80
19350,note_on,0,0,5,,,,,,,,,4,,,56,0
19350,note_on,15,0,5,,,,,,,,,4,,,74,0
19365,note_on,15,0,5,,,,,,,,,4,,,73,0
19365,note_on,0,0,5,,,,,,,,,4,,,74,95
19380,note_on,60,0,8,,,,,,,,,7,,,53,53
19380,note_on,0,0,5,,,,,,,,,4,,,58,72
19380,note_on,60,0,9,,,,,,,,,8,,,56,0
19380,note_on,60,0,7,,,,,,,,,6,,,58,58
19380,note_on,60,0,6,,,,,,,,,5,,,62,68
19380,note_on,15,0,5,,,,,,,,,4,,,74,0
19380,note_on,0,0,5,,,,,,,,,4,,,77,81
19380,note_on,60,0,10,,,,,,,,,10,,,44,0
19380,note_on,0,0,5,,,,,,,,,4,,,65,0
19410,note_on,0,0,5,,,,,,,,,4,,,65,74
19410,note_on,30,0,5,,,,,,,,,4,,,58,0
19410,note_on,0,0,5,,,,,,,,,4,,,74,98
19410,note_on,0,0,5,,,,,,,,,4,,,77,0
19440,note_on,30,0,5,,,,,,,,,4,,,65,0
19440,note_on,0,0,5,,,,,,,,,4,,,74,0
19440,note_on,0,0,5,,,,,,,,,4,,,82,84
19440,note_on,60,0,9,,,,,,,,,8,,,55,68
19440,note_on,60,0,10,,,,,,,,,10,,,43,68
19440,note_on,60,0,8,,,,,,,,,7,,,53,0
19440,note_on,60,0,7,,,,,,,,,6,,,58,0
19440,note_on,60,0,6,,,,,,,,,5,,,62,0
19470,note_on,30,0,5,,,,,,,,,4,,,43,76
19470,note_on,30,0,6,,,,,,,,,5,,,58,61
19500,note_on,0,0,5,,,,,,,,,4,,,46,89
19500,note_on,0,0,5,,,,,,,,,4,,,84,82
19500,note_on,30,0,6,,,,,,,,,5,,,58,0
19500,note_on,30,0,5,,,,,,,,,4,,,43,0
19500,note_on,0,0,5,,,,,,,,,4,,,82,0
19500,note_on,60,0,10,,,,,,,,,10,,,43,0
19500,note_on,0,0,6,,,,,,,,,5,,,63,56
19500,note_on,60,0,8,,,,,,,,,7,,,55,43
19500,note_on,60,0,9,,,,,,,,,8,,,55,0
19500,note_on,0,0,8,,,,,,,,,7,,,51,43
19515,note_on,15,0,5,,,,,,,,,4,,,84,0
19515,note_on,0,0,5,,,,,,,,,4,,,82,86
19530,note_on,0,0,5,,,,,,,,,4,,,81,86
19530,note_on,0,0,5,,,,,,,,,4,,,51,84
19530,note_on,30,0,6,,,,,,,,,5,,,63,0
19530,note_on,0,0,6,,,,,,,,,5,,,58,53
19530,note_on,0,0,5,,,,,,,,,4,,,46,0
19530,note_on,15,0,5,,,,,,,,,4,,,82,0
19545,note_on,45,0,8,,,,,,,,,7,,,51,0
19545,note_on,15,0,5,,,,,,,,,4,,,81,0
19545,note_on,0,0,5,,,,,,,,,4,,,82,85
19545,note_on,0,0,8,,,,,,,,,7,,,55,0
19560,note_on,0,0,5,,,,,,,,,4,,,51,0
19560,note_on,0,0,5,,,,,,,,,4,,,84,78
19560,note_on,0,0,5,,,,,,,,,4,,,55,71
19560,note_on,15,0,5,,,,,,,,,4,,,82,0
19560,note_on,30,0,6,,,,,,,,,5,,,58,0
19560,note_on,15,0,8,,,,,,,,,7,,,55,43
19560,note_on,0,0,8,,,,,,,,,7,,,51,43
19590,note_on,0,0,5,,,,,,,,,4,,,82,84
19590,note_on,30,0,5,,,,,,,,,4,,,84,0
19590,note_on,30,0,6,,,,,,,,,5,,,58,67
19605,note_on,45,0,8,,,,,,,,,7,,,51,0
19605,note_on,0,0,8,,,,,,,,,7,,,55,0
19620,note_on,30,0,5,,,,,,,,,4,,,82,0
19620,note_on,0,0,5,,,,,,,,,4,,,55,0
19620,note_on,0,0,6,,,,,,,,,5,,,63,56
19620,note_on,30,0,6,,,,,,,,,5,,,58,0
19620,note_on,0,0,5,,,,,,,,,4,,,80,85
19620,note_on,0,0,8,,,,,,,,,7,,,51,44
19620,note_on,15,0,8,,,,,,,,,7,,,55,42
19650,note_on,0,0,6,,,,,,,,,5,,,58,57
19650,note_on,30,0,6,,,,,,,,,5,,,63,0
19650,note_on,30,0,5,,,,,,,,,4,,,80,0
19650,note_on,0,0,5,,,,,,,,,4,,,79,80
19665,note_on,0,0,8,,,,,,,,,7,,,55,0
19665,note_on,45,0,8,,,,,,,,,7,,,51,0
19680,note_on,30,0,6,,,,,,,,,5,,,58,0
19680,note_on,30,0,5,,,,,,,,,4,,,79,0
19680,note_on,0,0,5,,,,,,,,,4,,,80,73
19680,note_on,180,0,9,,,,,,,,,8,,,55,71
19680,note_on,0,0,8,,,,,,,,,7,,,51,43
19680,note_on,180,0,10,,,,,,,,,10,,,43,71
19680,note_on,15,0,8,,,,,,,,,7,,,55,45
19710,note_on,0,0,5,,,,,,,,,4,,,79,45
19710,note_on,30,0,5,,,,,,,,,4,,,80,0
19710,note_on,30,0,6,,,,,,,,,5,,,58,63
19725,note_on,45,0,8,,,,,,,,,7,,,51,0
19725,note_on,0,0,8,,,,,,,,,7,,,55,0
19740,note_on,0,0,5,,,,,,,,,4,,,77,84
19740,note_on,30,0,5,,,,,,,,,4,,,79,0
19740,note_on,60,0,10,,,,,,,,,10,,,43,0
19740,note_on,30,0,6,,,,,,,,,5,,,58,0
19740,note_on,0,0,6,,,,,,,,,5,,,63,52
19740,note_on,60,0,9,,,,,,,,,8,,,55,0
19740,note_on,15,0,8,,,,,,,,,7,,,55,52
19740,note_on,0,0,8,,,,,,,,,7,,,51,46
19770,note_on,0,0,6,,,,,,,,,5,,,58,58
19770,note_on,30,0,5,,,,,,,,,4,,,77,0
19770,note_on,0,0,5,,,,,,,,,4,,,75,90
19770,note_on,30,0,6,,,,,,,,,5,,,63,0
19785,note_on,45,0,8,,,,,,,,,7,,,51,0
19785,note_on,0,0,8,,,,,,,,,7,,,55,0
19800,note_on,60,0,9,,,,,,,,,8,,,56,64
19800,note_on,60,0,10,,,,,,,,,10,,,44,64
19800,note_on,15,0,8,,,,,,,,,7,,,53,40
19800,note_on,30,0,5,,,,,,,,,4,,,75,0
19800,note_on,0,0,5,,,,,,,,,4,,,74,90
19800,note_on,0,0,8,,,,,,,,,7,,,51,43
19800,note_on,30,0,6,,,,,,,,,5,,,58,0
19830,note_on,30,0,6,,,,,,,,,5,,,60,51
19830,note_on,30,0,5,,,,,,,,,4,,,44,82
19845,note_on,45,0,8,,,,,,,,,7,,,51,0
19845,note_on,0,0,8,,,,,,,,,7,,,53,0
19860,note_on,30,0,5,,,,,,,,,4,,,44,0
19860,note_on,0,0,5,,,,,,,,,4,,,48,94
19860,note_on,60,0,9,,,,,,,,,8,,,56,0
19860,note_on,0,0,8,,,,,,,,,7,,,51,42
19860,note_on,60,0,10,,,,,,,,,10,,,44,0
19860,note_on,30,0,6,,,,,,,,,5,,,60,0
19860,note_on,15,0,8,,,,,,,,,7,,,53,45
19860,note_on,0,0,5,,,,,,,,,4,,,74,0
19860,note_on,0,0,6,,,,,,,,,5,,,63,64
19860,note_on,0,0,5,,,,,,,,,4,,,72,68
19890,note_on,30,0,6,,,,,,,,,5,,,63,0
19890,note_on,0,0,6,,,,,,,,,5,,,60,61
19890,note_on,30,0,5,,,,,,,,,4,,,48,0
19890,note_on,0,0,5,,,,,,,,,4,,,51,89
19905,note_on,45,0,8,,,,,,,,,7,,,51,0
19905,note_on,0,0,8,,,,,,,,,7,,,53,0
19920,note_on,30,0,6,,,,,,,,,5,,,60,0
19920,note_on,15,0,8,,,,,,,,,7,,,53,43
19920,note_on,0,0,8,,,,,,,,,7,,,51,46
19920,note_on,0,0,5,,,,,,,,,4,,,56,73
19920,note_on,30,0,5,,,,,,,,,4,,,51,0
19950,note_on,30,0,6,,,,,,,,,5,,,60,70
19950,note_on,0,0,5,,,,,,,,,4,,,74,94
19950,note_on,30,0,5,,,,,,,,,4,,,72,0
19965,note_on,0,0,8,,,,,,,,,7,,,53,0
19965,note_on,45,0,8,,,,,,,,,7,,,51,0
19980,note_on,30,0,6,,,,,,,,,5,,,60,0
19980,note_on,15,0,8,,,,,,,,,7,,,53,47
19980,note_on,0,0,8,,,,,,,,,7,,,51,61
19980,note_on,0,0,5,,,,,,,,,4,,,75,89
19980,note_on,0,0,5,,,,,,,,,4,,,56,0
19980,note_on,30,0,5,,,,,,,,,4,,,74,0
19980,note_on,0,0,6,,,,,,,,,5,,,63,64
20010,note_on,0,0,6,,,,,,,,,5,,,60,66
20010,note_on,30,0,6,,,,,,,,,5,,,63,0
20010,note_on,0,0,5,,,,,,,,,4,,,74,94
20010,note_on,30,0,5,,,,,,,,,4,,,75,0
20025,note_on,0,0,8,,,,,,,,,7,,,53,0
20025,note_on,45,0,8,,,,,,,,,7,,,51,0
20040,note_on,180,0,9,,,,,,,,,8,,,56,57
20040,note_on,180,0,10,,,,,,,,,10,,,44,57
20040,note_on,0,0,8,,,,,,,,,7,,,51,69
20040,note_on,15,0,8,,,,,,,,,7,,,53,47
20040,note_on,30,0,5,,,,,,,,,4,,,74,0
20040,note_on,0,0,5,,,,,,,,,4,,,77,76
20040,note_on,30,0,6,,,,,,,,,5,,,60,0
20070,note_on,30,0,5,,,,,,,,,4,,,77,0
20070,note_on,0,0,5,,,,,,,,,4,,,75,93
20070,note_on,30,0,6,,,,,,,,,5,,,60,68
20085,note_on,0,0,8,,,,,,,,,7,,,53,0
20085,note_on,45,0,8,,,,,,,,,7,,,51,0
20100,note_on,60,0,10,,,,,,,,,10,,,44,0
20100,note_on,0,0,6,,,,,,,,,5,,,63,65
20100,note_on,0,0,5,,,,,,,,,4,,,74,90
20100,note_on,15,0,8,,,,,,,,,7,,,53,50
20100,note_on,0,0,8,,,,,,,,,7,,,51,45
20100,note_on,30,0,5,,,,,,,,,4,,,75,0
20100,note_on,30,0,6,,,,,,,,,5,,,60,0
20100,note_on,60,0,9,,,,,,,,,8,,,56,0
20130,note_on,0,0,5,,,,,,,,,4,,,72,80
20130,note_on,30,0,5,,,,,,,,,4,,,74,0
20130,note_on,30,0,6,,,,,,,,,5,,,63,0
20130,note_on,0,0,6,,,,,,,,,5,,,60,68
20145,note_on,45,0,8,,,,,,,,,7,,,51,0
20145,note_on,0,0,8,,,,,,,,,7,,,53,0
20160,note_on,30,0,5,,,,,,,,,4,,,72,0
20160,note_on,0,0,5,,,,,,,,,4,,,69,86
20160,note_on,15,0,8,,,,,,,,,7,,,55,44
20160,note_on,60,0,10,,,,,,,,,10,,,46,57
20160,note_on,0,0,8,,,,,,,,,7,,,51,46
20160,note_on,60,0,9,,,,,,,,,8,,,58,57
20160,note_on,30,0,6,,,,,,,,,5,,,60,0
20190,note_on,30,0,5,,,,,,,,,4,,,46,78
20190,note_on,30,0,6,,,,,,,,,5,,,58,60
20220,note_on,0,0,8,,,,,,,,,7,,,55,0
20220,note_on,60,0,8,,,,,,,,,7,,,51,0
20220,note_on,0,0,6,,,,,,,,,5,,,63,45
20220,note_on,60,0,10,,,,,,,,,10,,,46,0
20220,note_on,30,0,6,,,,,,,,,5,,,58,0
20220,note_on,0,0,8,,,,,,,,,7,,,55,65
20220,note_on,60,0,9,,,,,,,,,8,,,58,0
20220,note_on,0,0,5,,,,,,,,,4,,,51,77
20220,note_on,0,0,5,,,,,,,,,4,,,70,84
20220,note_on,0,0,5,,,,,,,,,4,,,69,0
20220,note_on,30,0,5,,,,,,,,,4,,,46,0
20220,note_on,0,0,8,,,,,,,,,7,,,51,64
20250,note_on,0,0,5,,,,,,,,,4,,,55,60
20250,note_on,30,0,6,,,,,,,,,5,,,63,0
20250,note_on,0,0,6,,,,,,,,,5,,,58,44
20250,note_on,30,0,5,,,,,,,,,4,,,51,0
20280,note_on,0,0,8,,,,,,,,,7,,,55,0
20280,note_on,0,0,8,,,,,,,,,7,,,51,73
20280,note_on,0,0,5,,,,,,,,,4,,,46,71
20280,note_on,0,0,5,,,,,,,,,4,,,51,68
20280,note_on,30,0,5,,,,,,,,,4,,,55,0
20280,note_on,60,0,8,,,,,,,,,7,,,51,0
20280,note_on,0,0,8,,,,,,,,,7,,,55,70
20280,note_on,30,0,6,,,,,,,,,5,,,58,0
20310,note_on,30,0,5,,,,,,,,,4,,,51,0
20310,note_on,0,0,5,,,,,,,,,4,,,70,0
20310,note_on,0,0,5,,,,,,,,,4,,,55,62
20310,note_on,0,0,5,,,,,,,,,4,,,71,80
20310,note_on,30,0,6,,,,,,,,,5,,,58,54
20340,note_on,0,0,5,,,,,,,,,4,,,46,73
20340,note_on,0,0,5,,,,,,,,,4,,,51,84
20340,note_on,0,0,5,,,,,,,,,4,,,72,61
20340,note_on,0,0,5,,,,,,,,,4,,,46,0
20340,note_on,0,0,8,,,,,,,,,7,,,55,77
20340,note_on,0,0,8,,,,,,,,,7,,,51,78
20340,note_on,60,0,8,,,,,,,,,7,,,51,0
20340,note_on,30,0,6,,,,,,,,,5,,,58,0
20340,note_on,0,0,6,,,,,,,,,5,,,67,53
20340,note_on,0,0,5,,,,,,,,,4,,,71,0
20340,note_on,30,0,5,,,,,,,,,4,,,55,0
20340,note_on,0,0,8,,,,,,,,,7,,,55,0
20370,note_on,0,0,5,,,,,,,,,4,,,55,64
20370,note_on,30,0,6,,,,,,,,,5,,,67,0
20370,note_on,30,0,5,,,,,,,,,4,,,51,0
20370,note_on,0,0,5,,,,,,,,,4,,,72,0
20370,note_on,0,0,5,,,,,,,,,4,,,70,78
20370,note_on,0,0,6,,,,,,,,,5,,,58,66
20400,note_on,180,0,9,,,,,,,,,8,,,59,60
20400,note_on,30,0,6,,,,,,,,,5,,,58,0
20400,note_on,180,0,10,,,,,,,,,10,,,47,60
20400,note_on,0,0,5,,,,,,,,,4,,,70,0
20400,note_on,0,0,5,,,,,,,,,4,,,46,0
20400,note_on,30,0,5,,,,,,,,,4,,,55,0
20400,note_on,0,0,8,,,,,,,,,7,,,53,59
20400,note_on,0,0,8,,,,,,,,,7,,,56,70
20400,note_on,0,0,8,,,,,,,,,7,,,55,0
20400,note_on,60,0,8,,,,,,,,,7,,,51,0
20400,note_on,0,0,5,,,,,,,,,4,,,70,81
20400,note_on,0,0,5,,,,,,,,,4,,,50,76
20400,note_on,0,0,5,,,,,,,,,4,,,47,76
20430,note_on,0,0,5,,,,,,,,,4,,,68,80
20430,note_on,0,0,5,,,,,,,,,4,,,53,78
20430,note_on,30,0,6,,,,,,,,,5,,,62,64
20430,note_on,0,0,5,,,,,,,,,4,,,70,0
20430,note_on,30,0,5,,,,,,,,,4,,,50,0
20460,note_on,0,0,5,,,,,,,,,4,,,47,74
20460,note_on,0,0,5,,,,,,,,,4,,,50,74
20460,note_on,0,0,8,,,,,,,,,7,,,56,0
20460,note_on,30,0,6,,,,,,,,,5,,,62,0
20460,note_on,0,0,6,,,,,,,,,5,,,62,65
20460,note_on,0,0,5,,,,,,,,,4,,,67,80
20460,note_on,0,0,5,,,,,,,,,4,,,47,0
20460,note_on,0,0,5,,,,,,,,,4,,,68,0
20460,note_on,30,0,5,,,,,,,,,4,,,53,0
20460,note_on,0,0,8,,,,,,,,,7,,,56,52
20460,note_on,0,0,8,,,,,,,,,7,,,53,43
20460,note_on,60,0,8,,,,,,,,,7,,,53,0
20490,note_on,0,0,6,,,,,,,,,5,,,62,57
20490,note_on,30,0,6,,,,,,,,,5,,,62,0
20490,note_on,0,0,5,,,,,,,,,4,,,53,68
20490,note_on,0,0,5,,,,,,,,,4,,,68,82
20490,note_on,30,0,5,,,,,,,,,4,,,50,0
20490,note_on,0,0,5,,,,,,,,,4,,,67,0
20505,note_on,0,0,5,,,,,,,,,4,,,67,65
20505,note_on,15,0,5,,,,,,,,,4,,,68,0
20510,note_on,0,0,5,,,,,,,,,4,,,68,81
20510,note_on,5,0,5,,,,,,,,,4,,,67,0
20515,note_on,0,0,5,,,,,,,,,4,,,70,93
20515,note_on,5,0,5,,,,,,,,,4,,,68,0
20520,note_on,5,0,5,,,,,,,,,4,,,70,0
20520,note_on,0,0,5,,,,,,,,,4,,,53,0
20520,note_on,0,0,6,,,,,,,,,5,,,63,62
20520,note_on,30,0,6,,,,,,,,,5,,,62,0
20520,note_on,120,0,9,,,,,,,,,8,,,59,0
20520,note_on,0,0,9,,,,,,,,,8,,,48,81
20520,note_on,0,0,5,,,,,,,,,4,,,68,81
20520,note_on,0,0,5,,,,,,,,,4,,,47,0
20520,note_on,60,0,8,,,,,,,,,7,,,53,0
20520,note_on,0,0,8,,,,,,,,,7,,,56,0
20520,note_on,0,0,8,,,,,,,,,7,,,51,71
20520,note_on,120,0,10,,,,,,,,,10,,,47,0
20520,note_on,0,0,10,,,,,,,,,10,,,36,81
20550,note_on,30,0,6,,,,,,,,,5,,,63,0
20550,note_on,30,0,10,,,,,,,,,10,,,36,0
20550,note_on,30,0,9,,,,,,,,,8,,,48,0
20560,note_on,40,0,5,,,,,,,,,4,,,68,0
20560,note_on,0,0,5,,,,,,,,,4,,,67,81
20580,note_on,1140,0,7,,,,,,,,,6,,,63,52
20580,note_on,30,0,6,,,,,,,,,5,,,75,64
20580,note_on,2760,0,4,,,,,,,,,3,,,63,60
20580,note_on,30,0,10,,,,,,,,,10,,,48,62
20580,note_on,30,0,9,,,,,,,,,8,,,60,65
20580,note_on,0,0,4,,,,,,,,,3,,,51,69
20580,note_on,0,0,5,,,,,,,,,4,,,51,65
20580,note_on,20,0,5,,,,,,,,,4,,,55,66
20580,note_on,0,0,8,,,,,,,,,7,,,51,66
20580,note_on,60,0,8,,,,,,,,,7,,,51,0
20600,note_on,20,0,5,,,,,,,,,4,,,67,0
20640,note_on,60,0,6,,,,,,,,,5,,,75,0
20640,note_on,0,0,6,,,,,,,,,5,,,74,71
20640,note_on,60,0,10,,,,,,,,,10,,,48,0
20640,note_on,0,0,5,,,,,,,,,4,,,55,0
20640,note_on,0,0,5,,,,,,,,,4,,,50,73
20640,note_on,0,0,7,,,,,,,,,6,,,62,67
20640,note_on,0,0,5,,,,,,,,,4,,,53,59
20640,note_on,60,0,7,,,,,,,,,6,,,63,0
20640,note_on,0,0,10,,,,,,,,,10,,,47,76
20640,note_on,60,0,9,,,,,,,,,8,,,60,0
20640,note_on,0,0,9,,,,,,,,,8,,,59,84
20640,note_on,40,0,5,,,,,,,,,4,,,51,0
20655,note_on,15,0,5,,,,,,,,,4,,,51,81
20663,note_on,8,0,5,,,,,,,,,4,,,51,0
20670,note_on,7,0,5,,,,,,,,,4,,,53,84
20678,note_on,8,0,5,,,,,,,,,4,,,53,0
20685,note_on,7,0,5,,,,,,,,,4,,,55,82
20693,note_on,8,0,5,,,,,,,,,4,,,55,0
20700,note_on,0,0,4,,,,,,,,,3,,,63,53
20700,note_on,60,0,9,,,,,,,,,8,,,59,0
20700,note_on,0,0,9,,,,,,,,,8,,,60,64
20700,note_on,120,0,4,,,,,,,,,3,,,51,0
20700,note_on,120,0,8,,,,,,,,,7,,,51,0
20700,note_on,0,0,8,,,,,,,,,7,,,51,68
20700,note_on,0,0,4,,,,,,,,,3,,,63,0
20700,note_on,0,0,4,,,,,,,,,3,,,51,64
20700,note_on,60,0,6,,,,,,,,,5,,,74,0
20700,note_on,0,0,5,,,,,,,,,4,,,51,82
20700,note_on,0,0,5,,,,,,,,,4,,,55,72
20700,note_on,0,0,5,,,,,,,,,4,,,50,0
20700,note_on,7,0,5,,,,,,,,,4,,,53,0
20700,note_on,0,0,5,,,,,,,,,4,,,56,90
20700,note_on,60,0,7,,,,,,,,,6,,,62,0
20700,note_on,0,0,10,,,,,,,,,10,,,48,70
20700,note_on,60,0,10,,,,,,,,,10,,,47,0
20700,note_on,0,0,6,,,,,,,,,5,,,75,76
20700,note_on,0,0,7,,,,,,,,,6,,,63,71
20708,note_on,8,0,5,,,,,,,,,4,,,56,0
20715,note_on,7,0,5,,,,,,,,,4,,,58,86
20723,note_on,8,0,5,,,,,,,,,4,,,58,0
20730,note_on,7,0,5,,,,,,,,,4,,,60,95
20738,note_on,8,0,5,,,,,,,,,4,,,60,0
20745,note_on,7,0,5,,,,,,,,,4,,,62,89
20753,note_on,8,0,5,,,,,,,,,4,,,62,0
20760,note_on,60,0,10,,,,,,,,,10,,,48,0
20760,note_on,0,0,10,,,,,,,,,10,,,46,84
20760,note_on,0,0,5,,,,,,,,,4,,,50,85
20760,note_on,60,0,9,,,,,,,,,8,,,60,0
20760,note_on,0,0,5,,,,,,,,,4,,,55,0
20760,note_on,0,0,5,,,,,,,,,4,,,63,89
20760,note_on,0,0,5,,,,,,,,,4,,,46,84
20760,note_on,60,0,6,,,,,,,,,5,,,75,0
20760,note_on,0,0,6,,,,,,,,,5,,,74,86
20760,note_on,60,0,7,,,,,,,,,6,,,63,0
20760,note_on,7,0,5,,,,,,,,,4,,,51,0
20760,note_on,0,0,9,,,,,,,,,8,,,58,80
20760,note_on,0,0,7,,,,,,,,,6,,,62,80
20765,note_on,5,0,5,,,,,,,,,4,,,63,0
20770,note_on,5,0,5,,,,,,,,,4,,,65,93
20775,note_on,5,0,5,,,,,,,,,4,,,65,0
20780,note_on,5,0,5,,,,,,,,,4,,,67,89
20785,note_on,5,0,5,,,,,,,,,4,,,67,0
20790,note_on,5,0,5,,,,,,,,,4,,,68,89
20795,note_on,5,0,5,,,,,,,,,4,,,68,0
20800,note_on,5,0,5,,,,,,,,,4,,,70,89
20805,note_on,5,0,5,,,,,,,,,4,,,70,0
20810,note_on,5,0,5,,,,,,,,,4,,,72,93
20815,note_on,5,0,5,,,,,,,,,4,,,72,0
20820,note_on,0,0,5,,,,,,,,,4,,,44,76
20820,note_on,120,0,8,,,,,,,,,7,,,51,0
20820,note_on,0,0,9,,,,,,,,,8,,,56,43
20820,note_on,60,0,9,,,,,,,,,8,,,58,0
20820,note_on,120,0,4,,,,,,,,,3,,,51,0
20820,note_on,0,0,7,,,,,,,,,6,,,60,72
20820,note_on,0,0,4,,,,,,,,,3,,,63,0
20820,note_on,0,0,5,,,,,,,,,4,,,48,73
20820,note_on,60,0,7,,,,,,,,,6,,,62,0
20820,note_on,0,0,5,,,,,,,,,4,,,74,99
20820,note_on,0,0,8,,,,,,,,,7,,,51,52
20820,note_on,5,0,5,,,,,,,,,4,,,46,0
20820,note_on,60,0,6,,,,,,,,,5,,,74,0
20820,note_on,0,0,6,,,,,,,,,5,,,72,52
20820,note_on,0,0,4,,,,,,,,,3,,,63,58
20820,note_on,0,0,10,,,,,,,,,10,,,44,85
20820,note_on,60,0,10,,,,,,,,,10,,,46,0
20820,note_on,0,0,4,,,,,,,,,3,,,51,66
20820,note_on,0,0,5,,,,,,,,,4,,,50,0
20827,note_on,7,0,5,,,,,,,,,4,,,75,99
20828,note_on,1,0,5,,,,,,,,,4,,,74,0
20835,note_on,7,0,5,,,,,,,,,4,,,75,0
20835,note_on,0,0,5,,,,,,,,,4,,,77,99
20842,note_on,7,0,5,,,,,,,,,4,,,79,89
20843,note_on,1,0,5,,,,,,,,,4,,,77,0
20850,note_on,7,0,5,,,,,,,,,4,,,79,0
20850,note_on,0,0,5,,,,,,,,,4,,,80,99
20857,note_on,7,0,5,,,,,,,,,4,,,82,94
20858,note_on,1,0,5,,,,,,,,,4,,,80,0
20865,note_on,0,0,5,,,,,,,,,4,,,84,95
20865,note_on,7,0,5,,,,,,,,,4,,,82,0
20872,note_on,7,0,5,,,,,,,,,4,,,86,105
20873,note_on,1,0,5,,,,,,,,,4,,,84,0
20880,note_on,60,0,10,,,,,,,,,10,,,44,0
20880,note_on,0,0,10,,,,,,,,,10,,,43,72
20880,note_on,60,0,7,,,,,,,,,6,,,60,0
20880,note_on,0,0,7,,,,,,,,,6,,,58,55
20880,note_on,0,0,9,,,,,,,,,8,,,55,72
20880,note_on,60,0,9,,,,,,,,,8,,,56,0
20880,note_on,0,0,5,,,,,,,,,4,,,87,105
20880,note_on,0,0,5,,,,,,,,,4,,,31,104
20880,note_on,7,0,5,,,,,,,,,4,,,48,0
20880,note_on,0,0,5,,,,,,,,,4,,,86,0
20880,note_on,0,0,6,,,,,,,,,5,,,70,58
20880,note_on,0,0,5,,,,,,,,,4,,,44,0
20880,note_on,60,0,6,,,,,,,,,5,,,72,0
20890,note_on,10,0,5,,,,,,,,,4,,,31,0
20895,note_on,15,0,6,,,,,,,,,5,,,70,0
20900,note_on,10,0,5,,,,,,,,,4,,,34,94
20910,note_on,15,0,6,,,,,,,,,5,,,70,72
20910,note_on,10,0,5,,,,,,,,,4,,,34,0
20920,note_on,10,0,5,,,,,,,,,4,,,39,80
20930,note_on,10,0,5,,,,,,,,,4,,,39,0
20940,note_on,120,0,4,,,,,,,,,3,,,51,0
20940,note_on,30,0,6,,,,,,,,,5,,,70,0
20940,note_on,60,0,10,,,,,,,,,10,,,43,0
20940,note_on,0,0,6,,,,,,,,,5,,,75,54
20940,note_on,60,0,9,,,,,,,,,8,,,55,0
20940,note_on,0,0,4,,,,,,,,,3,,,63,0
20940,note_on,10,0,5,,,,,,,,,4,,,43,93
20940,note_on,60,0,7,,,,,,,,,6,,,58,0
20940,note_on,0,0,7,,,,,,,,,6,,,63,62
20940,note_on,120,0,8,,,,,,,,,7,,,51,0
20940,note_on,0,0,8,,,,,,,,,7,,,55,43
20940,note_on,0,0,8,,,,,,,,,7,,,51,40
20950,note_on,10,0,5,,,,,,,,,4,,,43,0
20960,note_on,10,0,5,,,,,,,,,4,,,46,86
20970,note_on,0,0,6,,,,,,,,,5,,,70,74
20970,note_on,30,0,6,,,,,,,,,5,,,75,0
20970,note_on,10,0,5,,,,,,,,,4,,,46,0
20980,note_on,10,0,5,,,,,,,,,4,,,51,68
20985,note_on,45,0,8,,,,,,,,,7,,,51,0
20985,note_on,0,0,8,,,,,,,,,7,,,55,0
20990,note_on,10,0,5,,,,,,,,,4,,,51,0
21000,note_on,0,0,8,,,,,,,,,7,,,51,43
21000,note_on,30,0,6,,,,,,,,,5,,,70,0
21000,note_on,15,0,8,,,,,,,,,7,,,55,42
21000,note_on,0,0,5,,,,,,,,,4,,,55,80
21000,note_on,0,0,5,,,,,,,,,4,,,86,84
21000,note_on,10,0,5,,,,,,,,,4,,,87,0
21015,note_on,0,0,5,,,,,,,,,4,,,87,84
21015,note_on,15,0,5,,,,,,,,,4,,,86,0
21030,note_on,0,0,5,,,,,,,,,4,,,86,93
21030,note_on,15,0,5,,,,,,,,,4,,,87,0
21030,note_on,30,0,6,,,,,,,,,5,,,70,65
21045,note_on,45,0,8,,,,,,,,,7,,,51,0
21045,note_on,0,0,8,,,,,,,,,7,,,55,0
21045,note_on,0,0,5,,,,,,,,,4,,,87,89
21045,note_on,15,0,5,,,,,,,,,4,,,86,0
21060,note_on,15,0,5,,,,,,,,,4,,,87,0
21060,note_on,0,0,5,,,,,,,,,4,,,86,93
21060,note_on,30,0,6,,,,,,,,,5,,,70,0
21060,note_on,0,0,6,,,,,,,,,5,,,75,56
21060,note_on,0,0,7,,,,,,,,,6,,,58,69
21060,note_on,120,0,7,,,,,,,,,6,,,63,0
21060,note_on,15,0,8,,,,,,,,,7,,,55,44
21060,note_on,0,0,8,,,,,,,,,7,,,51,45
21060,note_on,0,0,5,,,,,,,,,4,,,55,0
21075,note_on,15,0,5,,,,,,,,,4,,,86,0
21075,note_on,0,0,5,,,,,,,,,4,,,87,89
21090,note_on,30,0,6,,,,,,,,,5,,,75,0
21090,note_on,0,0,6,,,,,,,,,5,,,70,54
21090,note_on,15,0,5,,,,,,,,,4,,,87,0
21090,note_on,0,0,5,,,,,,,,,4,,,86,86
21105,note_on,15,0,5,,,,,,,,,4,,,86,0
21105,note_on,0,0,5,,,,,,,,,4,,,87,86
21105,note_on,0,0,8,,,,,,,,,7,,,55,0
21105,note_on,45,0,8,,,,,,,,,7,,,51,0
21120,note_on,0,0,8,,,,,,,,,7,,,51,42
21120,note_on,15,0,8,,,,,,,,,7,,,55,43
21120,note_on,30,0,6,,,,,,,,,5,,,70,0
21120,note_on,180,0,10,,,,,,,,,10,,,43,72
21120,note_on,180,0,9,,,,,,,,,8,,,55,72
21120,note_on,0,0,5,,,,,,,,,4,,,89,85
21120,note_on,15,0,5,,,,,,,,,4,,,87,0
21135,note_on,15,0,5,,,,,,,,,4,,,89,0
21135,note_on,0,0,5,,,,,,,,,4,,,87,90
21150,note_on,15,0,5,,,,,,,,,4,,,87,0
21150,note_on,30,0,6,,,,,,,,,5,,,70,63
21150,note_on,0,0,5,,,,,,,,,4,,,86,89
21165,note_on,0,0,5,,,,,,,,,4,,,84,89
21165,note_on,0,0,8,,,,,,,,,7,,,55,0
21165,note_on,45,0,8,,,,,,,,,7,,,51,0
21165,note_on,15,0,5,,,,,,,,,4,,,86,0
21180,note_on,15,0,8,,,,,,,,,7,,,55,43
21180,note_on,60,0,9,,,,,,,,,8,,,55,0
21180,note_on,0,0,8,,,,,,,,,7,,,51,45
21180,note_on,120,0,7,,,,,,,,,6,,,58,0
21180,note_on,60,0,10,,,,,,,,,10,,,43,0
21180,note_on,0,0,6,,,,,,,,,5,,,75,63
21180,note_on,30,0,6,,,,,,,,,5,,,70,0
21180,note_on,15,0,5,,,,,,,,,4,,,84,0
21180,note_on,0,0,5,,,,,,,,,4,,,84,72
21180,note_on,0,0,7,,,,,,,,,6,,,55,64
21195,note_on,15,0,5,,,,,,,,,4,,,84,0
21195,note_on,0,0,5,,,,,,,,,4,,,82,84
21210,note_on,0,0,5,,,,,,,,,4,,,80,84
21210,note_on,30,0,6,,,,,,,,,5,,,75,0
21210,note_on,15,0,5,,,,,,,,,4,,,82,0
21210,note_on,0,0,6,,,,,,,,,5,,,70,73
21225,note_on,45,0,8,,,,,,,,,7,,,51,0
21225,note_on,0,0,8,,,,,,,,,7,,,55,0
21225,note_on,0,0,5,,,,,,,,,4,,,79,80
21225,note_on,15,0,5,,,,,,,,,4,,,80,0
21240,note_on,15,0,8,,,,,,,,,7,,,53,40
21240,note_on,0,0,8,,,,,,,,,7,,,51,48
21240,note_on,60,0,9,,,,,,,,,8,,,56,78
21240,note_on,30,0,6,,,,,,,,,5,,,70,0
21240,note_on,60,0,10,,,,,,,,,10,,,44,78
21240,note_on,15,0,5,,,,,,,,,4,,,79,0
21240,note_on,0,0,5,,,,,,,,,4,,,83,84
21240,note_on,0,0,5,,,,,,,,,4,,,32,84
21240,note_on,60,0,7,,,,,,,,,6,,,55,0
21250,note_on,10,0,5,,,,,,,,,4,,,32,0
21260,note_on,10,0,5,,,,,,,,,4,,,36,94
21270,note_on,30,0,6,,,,,,,,,5,,,72,62
21270,note_on,10,0,5,,,,,,,,,4,,,36,0
21280,note_on,10,0,5,,,,,,,,,4,,,39,73
21285,note_on,45,0,8,,,,,,,,,7,,,51,0
21285,note_on,0,0,8,,,,,,,,,7,,,53,0
21290,note_on,10,0,5,,,,,,,,,4,,,39,0
21300,note_on,10,0,5,,,,,,,,,4,,,83,0
21300,note_on,15,0,8,,,,,,,,,7,,,53,40
21300,note_on,0,0,8,,,,,,,,,7,,,51,53
21300,note_on,0,0,5,,,,,,,,,4,,,84,73
21300,note_on,0,0,6,,,,,,,,,5,,,75,65
21300,note_on,0,0,5,,,,,,,,,4,,,44,81
21300,note_on,60,0,7,,,,,,,,,6,,,63,52
21300,note_on,30,0,6,,,,,,,,,5,,,72,0
21300,note_on,60,0,10,,,,,,,,,10,,,44,0
21300,note_on,60,0,9,,,,,,,,,8,,,56,0
21310,note_on,10,0,5,,,,,,,,,4,,,44,0
21320,note_on,10,0,5,,,,,,,,,4,,,48,82
21330,note_on,0,0,6,,,,,,,,,5,,,72,68
21330,note_on,30,0,6,,,,,,,,,5,,,75,0
21330,note_on,10,0,5,,,,,,,,,4,,,48,0
21340,note_on,10,0,5,,,,,,,,,4,,,51,68
21345,note_on,0,0,8,,,,,,,,,7,,,53,0
21345,note_on,45,0,8,,,,,,,,,7,,,51,0
21350,note_on,10,0,5,,,,,,,,,4,,,51,0
21360,note_on,0,0,8,,,,,,,,,7,,,51,40
21360,note_on,30,0,6,,,,,,,,,5,,,72,0
21360,note_on,10,0,5,,,,,,,,,4,,,56,78
21360,note_on,15,0,8,,,,,,,,,7,,,53,41
21390,note_on,0,0,5,,,,,,,,,4,,,86,82
21390,note_on,30,0,5,,,,,,,,,4,,,84,0
21390,note_on,30,0,6,,,,,,,,,5,,,72,59
21397,note_on,7,0,5,,,,,,,,,4,,,84,82
21398,note_on,1,0,5,,,,,,,,,4,,,86,0
21405,note_on,45,0,8,,,,,,,,,7,,,51,0
21405,note_on,7,0,5,,,,,,,,,4,,,84,0
21405,note_on,0,0,5,,,,,,,,,4,,,83,84
21405,note_on,0,0,8,,,,,,,,,7,,,53,0
21412,note_on,7,0,5,,,,,,,,,4,,,84,89
21413,note_on,1,0,5,,,,,,,,,4,,,83,0
21420,note_on,0,0,5,,,,,,,,,4,,,87,84
21420,note_on,0,0,5,,,,,,,,,4,,,56,0
21420,note_on,7,0,5,,,,,,,,,4,,,84,0
21420,note_on,120,0,7,,,,,,,,,6,,,63,0
21420,note_on,0,0,6,,,,,,,,,5,,,75,60
21420,note_on,15,0,8,,,,,,,,,7,,,53,35
21420,note_on,0,0,7,,,,,,,,,6,,,60,67
21420,note_on,30,0,6,,,,,,,,,5,,,72,0
21420,note_on,0,0,8,,,,,,,,,7,,,51,43
21450,note_on,0,0,5,,,,,,,,,4,,,86,82
21450,note_on,30,0,5,,,,,,,,,4,,,87,0
21450,note_on,0,0,6,,,,,,,,,5,,,72,65
21450,note_on,30,0,6,,,,,,,,,5,,,75,0
21465,note_on,0,0,8,,,,,,,,,7,,,53,0
21465,note_on,45,0,8,,,,,,,,,7,,,51,0
21480,note_on,15,0,8,,,,,,,,,7,,,53,41
21480,note_on,180,0,9,,,,,,,,,8,,,57,86
21480,note_on,30,0,5,,,,,,,,,4,,,86,0
21480,note_on,0,0,5,,,,,,,,,4,,,89,80
21480,note_on,30,0,6,,,,,,,,,5,,,72,0
21480,note_on,180,0,10,,,,,,,,,10,,,45,86
21480,note_on,0,0,8,,,,,,,,,7,,,51,45
21510,note_on,30,0,5,,,,,,,,,4,,,89,0
21510,note_on,0,0,5,,,,,,,,,4,,,87,85
21510,note_on,30,0,6,,,,,,,,,5,,,72,64
21525,note_on,0,0,8,,,,,,,,,7,,,53,0
21525,note_on,45,0,8,,,,,,,,,7,,,51,0
21540,note_on,0,0,7,,,,,,,,,6,,,57,76
21540,note_on,0,0,8,,,,,,,,,7,,,51,45
21540,note_on,15,0,8,,,,,,,,,7,,,53,43
21540,note_on,0,0,5,,,,,,,,,4,,,57,84
21540,note_on,0,0,6,,,,,,,,,5,,,75,60
21540,note_on,30,0,6,,,,,,,,,5,,,72,0
21540,note_on,30,0,5,,,,,,,,,4,,,87,0
21540,note_on,60,0,10,,,,,,,,,10,,,45,0
21540,note_on,0,0,5,,,,,,,,,4,,,86,86
21540,note_on,60,0,9,,,,,,,,,8,,,57,0
21540,note_on,0,0,5,,,,,,,,,4,,,65,66
21540,note_on,120,0,7,,,,,,,,,6,,,60,0
21540,note_on,0,0,5,,,,,,,,,4,,,63,64
21570,note_on,30,0,5,,,,,,,,,4,,,86,0
21570,note_on,30,0,6,,,,,,,,,5,,,75,0
21570,note_on,0,0,6,,,,,,,,,5,,,72,69
21570,note_on,0,0,5,,,,,,,,,4,,,84,76
21585,note_on,45,0,8,,,,,,,,,7,,,51,0
21585,note_on,0,0,8,,,,,,,,,7,,,53,0
21600,note_on,60,0,9,,,,,,,,,8,,,58,62
21600,note_on,60,0,10,,,,,,,,,10,,,46,62
21600,note_on,30,0,6,,,,,,,,,5,,,72,0
21600,note_on,0,0,8,,,,,,,,,7,,,51,46
21600,note_on,0,0,6,,,,,,,,,5,,,70,43
21600,note_on,60,0,7,,,,,,,,,6,,,57,0
21600,note_on,0,0,7,,,,,,,,,6,,,58,51
21600,note_on,0,0,5,,,,,,,,,4,,,63,48
21600,note_on,0,0,5,,,,,,,,,4,,,67,44
21600,note_on,0,0,5,,,,,,,,,4,,,82,77
21600,note_on,0,0,5,,,,,,,,,4,,,65,0
21600,note_on,0,0,5,,,,,,,,,4,,,63,0
21600,note_on,0,0,5,,,,,,,,,4,,,57,0
21600,note_on,30,0,5,,,,,,,,,4,,,84,0
21600,note_on,15,0,8,,,,,,,,,7,,,55,46
21600,note_on,0,0,6,,,,,,,,,5,,,63,58
21600,note_on,0,0,5,,,,,,,,,4,,,58,65
21620,note_on,20,0,5,,,,,,,,,4,,,82,0
21620,note_on,0,0,5,,,,,,,,,4,,,87,72
21640,note_on,20,0,5,,,,,,,,,4,,,87,0
21640,note_on,0,0,5,,,,,,,,,4,,,86,86
21660,note_on,60,0,8,,,,,,,,,7,,,51,0
21660,note_on,60,0,9,,,,,,,,,8,,,58,0
21660,note_on,60,0,10,,,,,,,,,10,,,46,0
21660,note_on,0,0,5,,,,,,,,,4,,,84,74
21660,note_on,0,0,5,,,,,,,,,4,,,58,0
21660,note_on,0,0,5,,,,,,,,,4,,,63,0
21660,note_on,0,0,8,,,,,,,,,7,,,55,0
21660,note_on,20,0,5,,,,,,,,,4,,,86,0
21660,note_on,60,0,7,,,,,,,,,6,,,58,0
21660,note_on,60,0,6,,,,,,,,,5,,,63,0
21660,note_on,0,0,5,,,,,,,,,4,,,67,0
21660,note_on,0,0,6,,,,,,,,,5,,,70,0
21680,note_on,20,0,5,,,,,,,,,4,,,84,0
21680,note_on,0,0,5,,,,,,,,,4,,,82,78
21700,note_on,20,0,5,,,,,,,,,4,,,82,0
21700,note_on,0,0,5,,,,,,,,,4,,,81,76
21720,note_on,0,0,5,,,,,,,,,4,,,82,76
21720,note_on,20,0,5,,,,,,,,,4,,,81,0
21740,note_on,0,0,5,,,,,,,,,4,,,87,74
21740,note_on,20,0,5,,,,,,,,,4,,,82,0
21760,note_on,20,0,5,,,,,,,,,4,,,87,0
21760,note_on,0,0,5,,,,,,,,,4,,,86,84
21780,note_on,20,0,5,,,,,,,,,4,,,86,0
21780,note_on,0,0,5,,,,,,,,,4,,,84,82
21800,note_on,20,0,5,,,,,,,,,4,,,84,0
21800,note_on,0,0,5,,,,,,,,,4,,,82,76
21820,note_on,20,0,5,,,,,,,,,4,,,82,0
21820,note_on,0,0,5,,,,,,,,,4,,,81,71
21840,note_on,0,0,5,,,,,,,,,4,,,82,78
21840,note_on,20,0,5,,,,,,,,,4,,,81,0
21860,note_on,20,0,5,,,,,,,,,4,,,82,0
21860,note_on,0,0,5,,,,,,,,,4,,,84,71
21860,note_on,0,0,5,,,,,,,,,4,,,75,71
21880,note_on,20,0,5,,,,,,,,,4,,,75,0
21880,note_on,0,0,5,,,,,,,,,4,,,84,0
21880,note_on,0,0,5,,,,,,,,,4,,,82,73
21880,note_on,0,0,5,,,,,,,,,4,,,74,94
21900,note_on,0,0,5,,,,,,,,,4,,,80,78
21900,note_on,0,0,5,,,,,,,,,4,,,72,73
21900,note_on,0,0,5,,,,,,,,,4,,,82,0
21900,note_on,20,0,5,,,,,,,,,4,,,74,0
21920,note_on,0,0,5,,,,,,,,,4,,,80,0
21920,note_on,20,0,5,,,,,,,,,4,,,72,0
21920,note_on,0,0,5,,,,,,,,,4,,,70,85
21920,note_on,0,0,5,,,,,,,,,4,,,79,62
21940,note_on,20,0,5,,,,,,,,,4,,,70,0
21940,note_on,0,0,5,,,,,,,,,4,,,79,0
21940,note_on,0,0,5,,,,,,,,,4,,,78,72
21940,note_on,0,0,5,,,,,,,,,4,,,69,81
21960,note_on,0,0,5,,,,,,,,,4,,,70,78
21960,note_on,0,0,5,,,,,,,,,4,,,79,84
21960,note_on,0,0,5,,,,,,,,,4,,,78,0
21960,note_on,20,0,5,,,,,,,,,4,,,69,0
21980,note_on,20,0,5,,,,,,,,,4,,,70,0
21980,note_on,0,0,5,,,,,,,,,4,,,79,0
21980,note_on,0,0,5,,,,,,,,,4,,,80,65
21980,note_on,0,0,5,,,,,,,,,4,,,75,76
21980,note_on,0,0,5,,,,,,,,,4,,,72,66
22000,note_on,20,0,5,,,,,,,,,4,,,72,0
22000,note_on,0,0,5,,,,,,,,,4,,,75,0
22000,note_on,0,0,5,,,,,,,,,4,,,79,73
22000,note_on,0,0,5,,,,,,,,,4,,,74,74
22000,note_on,0,0,5,,,,,,,,,4,,,70,85
22000,note_on,0,0,5,,,,,,,,,4,,,80,0
22020,note_on,0,0,5,,,,,,,,,4,,,68,84
22020,note_on,20,0,5,,,,,,,,,4,,,70,0
22020,note_on,0,0,5,,,,,,,,,4,,,74,0
22020,note_on,0,0,5,,,,,,,,,4,,,79,0
22020,note_on,0,0,5,,,,,,,,,4,,,77,84
22020,note_on,0,0,5,,,,,,,,,4,,,72,44
22040,note_on,0,0,5,,,,,,,,,4,,,72,0
22040,note_on,0,0,5,,,,,,,,,4,,,77,0
22040,note_on,0,0,5,,,,,,,,,4,,,75,84
22040,note_on,0,0,5,,,,,,,,,4,,,70,76
22040,note_on,0,0,5,,,,,,,,,4,,,67,72
22040,note_on,20,0,5,,,,,,,,,4,,,68,0
22060,note_on,0,0,5,,,,,,,,,4,,,75,0
22060,note_on,0,0,5,,,,,,,,,4,,,74,94
22060,note_on,0,0,5,,,,,,,,,4,,,68,70
22060,note_on,0,0,5,,,,,,,,,4,,,65,73
22060,note_on,20,0,5,,,,,,,,,4,,,67,0
22060,note_on,0,0,5,,,,,,,,,4,,,70,0
22080,note_on,20,0,5,,,,,,,,,4,,,65,0
22080,note_on,0,0,5,,,,,,,,,4,,,68,0
22080,note_on,0,0,5,,,,,,,,,4,,,74,0
22080,note_on,0,0,5,,,,,,,,,4,,,75,94
22080,note_on,0,0,5,,,,,,,,,4,,,70,82
22080,note_on,0,0,5,,,,,,,,,4,,,67,72
22080,set_tempo,22080,1,0,,,,,,937500,,,,,,,
22100,note_on,0,0,5,,,,,,,,,4,,,70,0
22100,note_on,0,0,5,,,,,,,,,4,,,68,82
22100,note_on,0,0,5,,,,,,,,,4,,,77,84
22100,note_on,0,0,5,,,,,,,,,4,,,75,0
22100,note_on,20,0,5,,,,,,,,,4,,,67,0
22120,note_on,0,0,5,,,,,,,,,4,,,77,0
22120,note_on,0,0,5,,,,,,,,,4,,,75,86
22120,note_on,0,0,5,,,,,,,,,4,,,70,76
22120,note_on,0,0,5,,,,,,,,,4,,,67,73
22120,note_on,20,0,5,,,,,,,,,4,,,68,0
22140,note_on,0,0,5,,,,,,,,,4,,,74,99
22140,note_on,0,0,5,,,,,,,,,4,,,75,0
22140,note_on,0,0,5,,,,,,,,,4,,,70,0
22140,note_on,20,0,5,,,,,,,,,4,,,67,0
22140,note_on,0,0,5,,,,,,,,,4,,,68,74
22140,note_on,0,0,5,,,,,,,,,4,,,65,89
22160,note_on,0,0,5,,,,,,,,,4,,,68,0
22160,note_on,0,0,5,,,,,,,,,4,,,74,0
22160,note_on,0,0,5,,,,,,,,,4,,,67,45
22160,note_on,0,0,5,,,,,,,,,4,,,63,84
22160,note_on,20,0,5,,,,,,,,,4,,,65,0
22160,note_on,0,0,5,,,,,,,,,4,,,72,65
22180,note_on,0,0,5,,,,,,,,,4,,,62,77
22180,note_on,20,0,5,,,,,,,,,4,,,63,0
22180,note_on,0,0,5,,,,,,,,,4,,,67,0
22180,note_on,0,0,5,,,,,,,,,4,,,72,0
22180,note_on,0,0,5,,,,,,,,,4,,,71,80
22180,note_on,0,0,5,,,,,,,,,4,,,65,65
22200,note_on,20,0,5,,,,,,,,,4,,,62,0
22200,note_on,0,0,5,,,,,,,,,4,,,71,0
22200,set_tempo,120,1,0,,,,,,1016949,,,,,,,
22200,note_on,0,0,5,,,,,,,,,4,,,72,58
22200,note_on,0,0,5,,,,,,,,,4,,,67,69
22200,note_on,0,0,5,,,,,,,,,4,,,65,0
22200,note_on,0,0,5,,,,,,,,,4,,,63,89
22220,note_on,0,0,5,,,,,,,,,4,,,73,84
22220,note_on,0,0,5,,,,,,,,,4,,,67,0
22220,note_on,0,0,5,,,,,,,,,4,,,72,0
22220,note_on,20,0,5,,,,,,,,,4,,,63,0
22220,note_on,0,0,5,,,,,,,,,4,,,68,80
22220,note_on,0,0,5,,,,,,,,,4,,,65,74
22240,note_on,0,0,5,,,,,,,,,4,,,68,0
22240,note_on,20,0,5,,,,,,,,,4,,,65,0
22240,note_on,0,0,5,,,,,,,,,4,,,72,53
22240,note_on,0,0,5,,,,,,,,,4,,,67,77
22240,note_on,0,0,5,,,,,,,,,4,,,63,84
22240,note_on,0,0,5,,,,,,,,,4,,,73,0
22260,note_on,0,0,5,,,,,,,,,4,,,65,78
22260,note_on,20,0,5,,,,,,,,,4,,,63,0
22260,note_on,0,0,5,,,,,,,,,4,,,67,0
22260,note_on,0,0,5,,,,,,,,,4,,,61,80
22260,note_on,0,0,5,,,,,,,,,4,,,72,0
22260,note_on,0,0,5,,,,,,,,,4,,,70,90
22280,note_on,0,0,5,,,,,,,,,4,,,60,84
22280,note_on,0,0,5,,,,,,,,,4,,,63,72
22280,note_on,0,0,5,,,,,,,,,4,,,68,77
22280,note_on,0,0,5,,,,,,,,,4,,,70,0
22280,note_on,0,0,5,,,,,,,,,4,,,65,0
22280,note_on,20,0,5,,,,,,,,,4,,,61,0
22300,note_on,0,0,5,,,,,,,,,4,,,63,0
22300,note_on,20,0,5,,,,,,,,,4,,,60,0
22300,note_on,0,0,5,,,,,,,,,4,,,58,74
22300,note_on,0,0,5,,,,,,,,,4,,,61,72
22300,note_on,0,0,5,,,,,,,,,4,,,67,89
22300,note_on,0,0,5,,,,,,,,,4,,,68,0
22320,note_on,0,0,5,,,,,,,,,4,,,60,77
22320,set_tempo,120,1,0,,,,,,1111111,,,,,,,
22320,note_on,0,0,5,,,,,,,,,4,,,63,78
22320,note_on,0,0,5,,,,,,,,,4,,,68,85
22320,note_on,0,0,5,,,,,,,,,4,,,61,0
22320,note_on,0,0,5,,,,,,,,,4,,,67,0
22320,note_on,20,0,5,,,,,,,,,4,,,58,0
22340,note_on,20,0,5,,,,,,,,,4,,,60,0
22340,note_on,0,0,5,,,,,,,,,4,,,68,0
22340,note_on,0,0,5,,,,,,,,,4,,,70,90
22340,note_on,0,0,5,,,,,,,,,4,,,54,84
22360,note_on,20,0,5,,,,,,,,,4,,,54,0
22360,note_on,0,0,5,,,,,,,,,4,,,70,0
22360,note_on,0,0,5,,,,,,,,,4,,,53,72
22360,note_on,0,0,5,,,,,,,,,4,,,69,93
22380,note_on,20,0,5,,,,,,,,,4,,,53,0
22380,note_on,0,0,5,,,,,,,,,4,,,69,0
22380,note_on,0,0,5,,,,,,,,,4,,,63,0
22380,note_on,0,0,5,,,,,,,,,4,,,72,57
22380,note_on,0,0,5,,,,,,,,,4,,,63,62
22380,note_on,0,0,5,,,,,,,,,4,,,57,90
22400,note_on,0,0,5,,,,,,,,,4,,,72,0
22400,note_on,0,0,5,,,,,,,,,4,,,63,0
22400,note_on,20,0,5,,,,,,,,,4,,,57,0
22400,note_on,0,0,5,,,,,,,,,4,,,60,86
22400,note_on,0,0,5,,,,,,,,,4,,,63,68
22400,note_on,0,0,5,,,,,,,,,4,,,69,81
22420,note_on,0,0,5,,,,,,,,,4,,,69,0
22420,note_on,0,0,5,,,,,,,,,4,,,70,85
22420,note_on,20,0,5,,,,,,,,,4,,,60,0
22420,note_on,0,0,5,,,,,,,,,4,,,63,0
22420,note_on,0,0,5,,,,,,,,,4,,,61,80
22420,note_on,0,0,5,,,,,,,,,4,,,65,69
22440,note_on,0,0,5,,,,,,,,,4,,,70,0
22440,note_on,0,0,5,,,,,,,,,4,,,71,81
22440,note_on,0,0,5,,,,,,,,,4,,,65,84
22440,note_on,0,0,5,,,,,,,,,4,,,62,77
22440,note_on,20,0,5,,,,,,,,,4,,,61,0
22440,note_on,0,0,5,,,,,,,,,4,,,65,0
22440,set_tempo,120,1,0,,,,,,1016949,,,,,,,
22460,note_on,20,0,5,,,,,,,,,4,,,62,0
22460,note_on,0,0,5,,,,,,,,,4,,,71,0
22460,note_on,0,0,5,,,,,,,,,4,,,72,50
22460,note_on,0,0,5,,,,,,,,,4,,,56,80
22480,note_on,20,0,5,,,,,,,,,4,,,56,0
22480,note_on,0,0,5,,,,,,,,,4,,,72,0
22480,note_on,0,0,5,,,,,,,,,4,,,71,80
22480,note_on,0,0,5,,,,,,,,,4,,,55,81
22500,note_on,0,0,5,,,,,,,,,4,,,59,93
22500,note_on,0,0,5,,,,,,,,,4,,,65,74
22500,note_on,0,0,5,,,,,,,,,4,,,74,81
22500,note_on,0,0,5,,,,,,,,,4,,,65,0
22500,note_on,0,0,5,,,,,,,,,4,,,71,0
22500,note_on,20,0,5,,,,,,,,,4,,,55,0
22520,note_on,20,0,5,,,,,,,,,4,,,59,0
22520,note_on,0,0,5,,,,,,,,,4,,,65,0
22520,note_on,0,0,5,,,,,,,,,4,,,74,0
22520,note_on,0,0,5,,,,,,,,,4,,,71,77
22520,note_on,0,0,5,,,,,,,,,4,,,65,93
22520,note_on,0,0,5,,,,,,,,,4,,,62,86
22540,note_on,20,0,5,,,,,,,,,4,,,62,0
22540,note_on,0,0,5,,,,,,,,,4,,,65,0
22540,note_on,0,0,5,,,,,,,,,4,,,71,0
22540,note_on,0,0,5,,,,,,,,,4,,,72,61
22540,note_on,0,0,5,,,,,,,,,4,,,63,86
22540,note_on,0,0,5,,,,,,,,,4,,,67,77
22560,note_on,0,0,5,,,,,,,,,4,,,74,80
22560,note_on,0,0,5,,,,,,,,,4,,,67,0
22560,note_on,0,0,5,,,,,,,,,4,,,65,65
22560,note_on,0,0,5,,,,,,,,,4,,,68,80
22560,set_tempo,120,1,0,,,,,,937500,,,,,,,
22560,note_on,0,0,5,,,,,,,,,4,,,72,0
22560,note_on,20,0,5,,,,,,,,,4,,,63,0
22580,note_on,0,0,5,,,,,,,,,4,,,75,85
22580,note_on,0,0,5,,,,,,,,,4,,,70,86
22580,note_on,0,0,5,,,,,,,,,4,,,59,84
22580,note_on,0,0,5,,,,,,,,,4,,,74,0
22580,note_on,20,0,5,,,,,,,,,4,,,65,0
22590,note_on,10,0,5,,,,,,,,,4,,,70,0
22600,note_on,10,0,5,,,,,,,,,4,,,59,0
22600,note_on,0,0,5,,,,,,,,,4,,,74,86
22600,note_on,0,0,5,,,,,,,,,4,,,58,81
22600,note_on,0,0,5,,,,,,,,,4,,,75,0
22620,note_on,0,0,5,,,,,,,,,4,,,68,45
22620,note_on,0,0,5,,,,,,,,,4,,,77,80
22620,note_on,0,0,5,,,,,,,,,4,,,68,0
22620,note_on,0,0,5,,,,,,,,,4,,,74,0
22620,note_on,20,0,5,,,,,,,,,4,,,58,0
22620,note_on,0,0,5,,,,,,,,,4,,,62,82
22640,note_on,0,0,5,,,,,,,,,4,,,74,80
22640,note_on,0,0,5,,,,,,,,,4,,,68,86
22640,note_on,0,0,5,,,,,,,,,4,,,77,0
22640,note_on,0,0,5,,,,,,,,,4,,,68,0
22640,note_on,20,0,5,,,,,,,,,4,,,62,0
22640,note_on,0,0,5,,,,,,,,,4,,,65,84
22660,note_on,0,0,5,,,,,,,,,4,,,68,0
22660,note_on,0,0,5,,,,,,,,,4,,,74,0
22660,note_on,0,0,5,,,,,,,,,4,,,75,85
22660,note_on,0,0,5,,,,,,,,,4,,,70,84
22660,note_on,0,0,5,,,,,,,,,4,,,67,71
22660,note_on,20,0,5,,,,,,,,,4,,,65,0
22680,note_on,0,0,5,,,,,,,,,4,,,67,77
22680,set_tempo,120,1,0,,,,,,869565,,,,,,,
22680,note_on,20,0,5,,,,,,,,,4,,,67,0
22680,note_on,0,0,5,,,,,,,,,4,,,70,0
22680,note_on,0,0,5,,,,,,,,,4,,,75,0
22680,note_on,0,0,5,,,,,,,,,4,,,76,89
22680,note_on,0,0,5,,,,,,,,,4,,,70,71
22700,note_on,20,0,5,,,,,,,,,4,,,67,0
22700,note_on,0,0,5,,,,,,,,,4,,,70,82
22700,note_on,0,0,5,,,,,,,,,4,,,79,80
22700,note_on,0,0,5,,,,,,,,,4,,,76,0
22700,note_on,0,0,5,,,,,,,,,4,,,73,80
22700,note_on,0,0,5,,,,,,,,,4,,,70,0
22720,note_on,0,0,5,,,,,,,,,4,,,68,85
22720,note_on,0,0,5,,,,,,,,,4,,,79,0
22720,note_on,0,0,5,,,,,,,,,4,,,73,0
22720,note_on,20,0,5,,,,,,,,,4,,,70,0
22720,note_on,0,0,5,,,,,,,,,4,,,77,80
22720,note_on,0,0,5,,,,,,,,,4,,,72,36
22740,note_on,0,0,5,,,,,,,,,4,,,77,0
22740,note_on,0,0,5,,,,,,,,,4,,,72,52
22740,note_on,0,0,5,,,,,,,,,4,,,78,76
22740,note_on,0,0,5,,,,,,,,,4,,,72,0
22740,note_on,20,0,5,,,,,,,,,4,,,68,0
22740,note_on,0,0,5,,,,,,,,,4,,,69,82
22760,note_on,0,0,5,,,,,,,,,4,,,72,78
22760,note_on,0,0,5,,,,,,,,,4,,,75,94
22760,note_on,0,0,5,,,,,,,,,4,,,72,0
22760,note_on,0,0,5,,,,,,,,,4,,,78,0
22760,note_on,20,0,5,,,,,,,,,4,,,69,0
22760,note_on,0,0,5,,,,,,,,,4,,,80,80
22780,note_on,20,0,5,,,,,,,,,4,,,72,0
22780,note_on,0,0,5,,,,,,,,,4,,,75,0
22780,note_on,0,0,5,,,,,,,,,4,,,80,0
22780,note_on,0,0,5,,,,,,,,,4,,,79,93
22780,note_on,0,0,5,,,,,,,,,4,,,73,76
22780,note_on,0,0,5,,,,,,,,,4,,,70,86
22800,note_on,0,0,5,,,,,,,,,4,,,73,80
22800,note_on,0,0,5,,,,,,,,,4,,,76,80
22800,note_on,0,0,5,,,,,,,,,4,,,79,81
22800,note_on,0,0,5,,,,,,,,,4,,,73,0
22800,note_on,20,0,5,,,,,,,,,4,,,70,0
22800,note_on,0,0,5,,,,,,,,,4,,,79,0
22820,note_on,20,0,5,,,,,,,,,4,,,73,0
22820,note_on,0,0,5,,,,,,,,,4,,,76,0
22820,note_on,0,0,5,,,,,,,,,4,,,79,0
22820,note_on,0,0,5,,,,,,,,,4,,,82,82
22820,note_on,0,0,5,,,,,,,,,4,,,73,76
22820,note_on,0,0,5,,,,,,,,,4,,,70,86
22840,note_on,0,0,5,,,,,,,,,4,,,72,62
22840,note_on,0,0,5,,,,,,,,,4,,,75,94
22840,note_on,0,0,5,,,,,,,,,4,,,80,82
22840,note_on,0,0,5,,,,,,,,,4,,,82,0
22840,note_on,0,0,5,,,,,,,,,4,,,73,0
22840,note_on,20,0,5,,,,,,,,,4,,,70,0
22860,note_on,20,0,5,,,,,,,,,4,,,72,0
22860,note_on,0,0,5,,,,,,,,,4,,,75,0
22860,note_on,0,0,5,,,,,,,,,4,,,80,0
22860,note_on,0,0,5,,,,,,,,,4,,,81,84
22860,note_on,0,0,5,,,,,,,,,4,,,78,80
22860,note_on,0,0,5,,,,,,,,,4,,,75,89
22880,note_on,0,0,5,,,,,,,,,4,,,72,68
22880,note_on,0,0,5,,,,,,,,,4,,,75,84
22880,note_on,0,0,5,,,,,,,,,4,,,84,86
22880,note_on,0,0,5,,,,,,,,,4,,,81,0
22880,note_on,0,0,5,,,,,,,,,4,,,78,0
22880,note_on,20,0,5,,,,,,,,,4,,,75,0
22900,note_on,20,0,5,,,,,,,,,4,,,72,0
22900,note_on,0,0,5,,,,,,,,,4,,,75,0
22900,note_on,0,0,5,,,,,,,,,4,,,84,0
22900,note_on,0,0,5,,,,,,,,,4,,,82,80
22900,note_on,0,0,5,,,,,,,,,4,,,77,76
22900,note_on,0,0,5,,,,,,,,,4,,,74,93
22920,note_on,0,0,5,,,,,,,,,4,,,80,68
22920,note_on,0,0,5,,,,,,,,,4,,,83,80
22920,note_on,0,0,5,,,,,,,,,4,,,77,76
22920,note_on,0,0,5,,,,,,,,,4,,,77,0
22920,note_on,20,0,5,,,,,,,,,4,,,74,0
22920,note_on,0,0,5,,,,,,,,,4,,,82,0
22940,note_on,20,0,5,,,,,,,,,4,,,77,0
22940,note_on,0,0,5,,,,,,,,,4,,,80,0
22940,note_on,0,0,5,,,,,,,,,4,,,83,0
22940,note_on,0,0,5,,,,,,,,,4,,,86,82
22940,note_on,0,0,5,,,,,,,,,4,,,77,80
22940,note_on,0,0,5,,,,,,,,,4,,,74,93
22960,note_on,0,0,5,,,,,,,,,4,,,75,89
22960,note_on,0,0,5,,,,,,,,,4,,,84,84
22960,note_on,0,0,5,,,,,,,,,4,,,79,74
22960,note_on,0,0,5,,,,,,,,,4,,,77,0
22960,note_on,20,0,5,,,,,,,,,4,,,74,0
22960,note_on,0,0,5,,,,,,,,,4,,,86,0
22980,note_on,20,0,5,,,,,,,,,4,,,75,0
22980,note_on,0,0,5,,,,,,,,,4,,,79,0
22980,note_on,0,0,5,,,,,,,,,4,,,84,0
22980,note_on,0,0,5,,,,,,,,,4,,,85,78
22980,note_on,0,0,5,,,,,,,,,4,,,79,78
22980,note_on,0,0,5,,,,,,,,,4,,,76,93
23000,note_on,0,0,5,,,,,,,,,4,,,82,84
23000,note_on,20,0,5,,,,,,,,,4,,,76,0
23000,note_on,0,0,5,,,,,,,,,4,,,79,0
23000,note_on,0,0,5,,,,,,,,,4,,,85,0
23000,note_on,0,0,5,,,,,,,,,4,,,87,82
23000,note_on,0,0,5,,,,,,,,,4,,,79,73
23020,note_on,0,0,5,,,,,,,,,4,,,77,89
23020,note_on,0,0,5,,,,,,,,,4,,,82,0
23020,note_on,0,0,5,,,,,,,,,4,,,87,0
23020,note_on,0,0,5,,,,,,,,,4,,,86,98
23020,note_on,0,0,5,,,,,,,,,4,,,80,74
23020,note_on,20,0,5,,,,,,,,,4,,,79,0
23040,note_on,1380,0,9,,,,,,,,,8,,,45,77
23040,note_on,0,0,5,,,,,,,,,4,,,75,98
23040,note_on,0,0,5,,,,,,,,,4,,,78,78
23040,note_on,0,0,5,,,,,,,,,4,,,87,94
23040,note_on,0,0,5,,,,,,,,,4,,,86,0
23040,note_on,1380,0,7,,,,,,,,,6,,,57,77
23040,note_on,1380,0,8,,,,,,,,,7,,,57,77
23040,note_on,0,0,5,,,,,,,,,4,,,80,0
23040,note_on,20,0,5,,,,,,,,,4,,,77,0
23040,note_on,1380,0,10,,,,,,,,,10,,,33,77
23040,note_on,1380,0,6,,,,,,,,,5,,,57,77
23060,note_on,0,0,5,,,,,,,,,4,,,75,84
23060,note_on,0,0,5,,,,,,,,,4,,,78,84
23060,note_on,20,0,5,,,,,,,,,4,,,75,0
23060,note_on,0,0,5,,,,,,,,,4,,,78,0
23060,note_on,0,0,5,,,,,,,,,4,,,87,0
23070,note_on,10,0,5,,,,,,,,,4,,,75,0
23070,note_on,0,0,5,,,,,,,,,4,,,78,0
23080,note_on,10,0,5,,,,,,,,,4,,,78,86
23080,note_on,0,0,5,,,,,,,,,4,,,75,85
23090,note_on,10,0,5,,,,,,,,,4,,,75,0
23090,note_on,0,0,5,,,,,,,,,4,,,78,0
23100,note_on,60,0,7,,,,,,,,,6,,,57,0
23100,note_on,0,0,5,,,,,,,,,4,,,57,98
23100,note_on,60,0,9,,,,,,,,,8,,,45,0
23100,note_on,0,0,5,,,,,,,,,4,,,69,86
23100,note_on,60,0,10,,,,,,,,,10,,,33,0
23100,note_on,10,0,5,,,,,,,,,4,,,78,82
23100,note_on,60,0,6,,,,,,,,,5,,,57,0
23100,note_on,0,0,5,,,,,,,,,4,,,75,86
23100,note_on,60,0,8,,,,,,,,,7,,,57,0
23110,note_on,0,0,5,,,,,,,,,4,,,78,0
23110,note_on,10,0,5,,,,,,,,,4,,,75,0
23120,note_on,10,0,5,,,,,,,,,4,,,78,89
23120,note_on,0,0,5,,,,,,,,,4,,,75,94
23130,note_on,10,0,5,,,,,,,,,4,,,75,0
23130,note_on,0,0,5,,,,,,,,,4,,,78,0
23140,note_on,0,0,5,,,,,,,,,4,,,75,89
23140,note_on,10,0,5,,,,,,,,,4,,,78,86
23150,note_on,10,0,5,,,,,,,,,4,,,75,0
23150,note_on,0,0,5,,,,,,,,,4,,,78,0
23160,note_on,60,0,7,,,,,,,,,6,,,58,71
23160,note_on,60,0,10,,,,,,,,,10,,,34,71
23160,note_on,60,0,9,,,,,,,,,8,,,46,71
23160,note_on,60,0,6,,,,,,,,,5,,,58,71
23160,note_on,10,0,5,,,,,,,,,4,,,69,0
23160,note_on,0,0,5,,,,,,,,,4,,,75,73
23160,note_on,0,0,5,,,,,,,,,4,,,78,77
23160,note_on,0,0,5,,,,,,,,,4,,,57,0
23160,note_on,60,0,8,,,,,,,,,7,,,58,71
23170,note_on,0,0,5,,,,,,,,,4,,,78,0
23170,note_on,10,0,5,,,,,,,,,4,,,75,0
23180,note_on,0,0,5,,,,,,,,,4,,,75,77
23180,note_on,10,0,5,,,,,,,,,4,,,78,76
23190,note_on,0,0,5,,,,,,,,,4,,,78,0
23190,note_on,10,0,5,,,,,,,,,4,,,75,0
23200,note_on,0,0,5,,,,,,,,,4,,,75,77
23200,note_on,10,0,5,,,,,,,,,4,,,78,71
23210,note_on,10,0,5,,,,,,,,,4,,,75,0
23210,note_on,0,0,5,,,,,,,,,4,,,78,0
23220,note_on,60,0,10,,,,,,,,,10,,,34,0
23220,note_on,60,0,8,,,,,,,,,7,,,58,0
23220,note_on,60,0,9,,,,,,,,,8,,,46,0
23220,note_on,60,0,6,,,,,,,,,5,,,58,0
23220,note_on,60,0,7,,,,,,,,,6,,,58,0
23220,note_on,0,0,5,,,,,,,,,4,,,70,80
23220,note_on,10,0,5,,,,,,,,,4,,,78,76
23220,note_on,0,0,5,,,,,,,,,4,,,75,84
23220,note_on,0,0,5,,,,,,,,,4,,,58,89
23230,note_on,10,0,5,,,,,,,,,4,,,75,0
23230,note_on,0,0,5,,,,,,,,,4,,,78,0
23240,note_on,0,0,5,,,,,,,,,4,,,75,76
23240,note_on,10,0,5,,,,,,,,,4,,,78,67
23250,note_on,0,0,5,,,,,,,,,4,,,78,0
23250,note_on,10,0,5,,,,,,,,,4,,,75,0
23260,note_on,0,0,5,,,,,,,,,4,,,75,77
23260,note_on,10,0,5,,,,,,,,,4,,,78,71
23270,note_on,10,0,5,,,,,,,,,4,,,75,0
23270,note_on,0,0,5,,,,,,,,,4,,,78,0
23280,note_on,0,0,5,,,,,,,,,4,,,75,65
23280,note_on,0,0,5,,,,,,,,,4,,,78,62
23280,note_on,60,0,9,,,,,,,,,8,,,47,81
23280,note_on,0,0,5,,,,,,,,,4,,,58,0
23280,note_on,10,0,5,,,,,,,,,4,,,70,0
23280,note_on,60,0,7,,,,,,,,,6,,,59,57
23280,note_on,60,0,10,,,,,,,,,10,,,35,81
23280,note_on,60,0,8,,,,,,,,,7,,,59,57
23280,note_on,60,0,6,,,,,,,,,5,,,59,57
23290,note_on,0,0,5,,,,,,,,,4,,,78,0
23290,note_on,10,0,5,,,,,,,,,4,,,75,0
23300,note_on,0,0,5,,,,,,,,,4,,,75,63
23300,note_on,10,0,5,,,,,,,,,4,,,78,58
23310,note_on,0,0,5,,,,,,,,,4,,,78,0
23310,note_on,10,0,5,,,,,,,,,4,,,75,0
23320,note_on,0,0,5,,,,,,,,,4,,,75,69
23320,note_on,10,0,5,,,,,,,,,4,,,78,45
23330,note_on,0,0,5,,,,,,,,,4,,,78,0
23330,note_on,10,0,5,,,,,,,,,4,,,75,0
23340,note_on,60,0,6,,,,,,,,,5,,,59,0
23340,note_on,60,0,7,,,,,,,,,6,,,59,0
23340,note_on,60,0,8,,,,,,,,,7,,,59,0
23340,note_on,10,0,5,,,,,,,,,4,,,78,53
23340,note_on,0,0,5,,,,,,,,,4,,,75,64
23340,note_on,60,0,10,,,,,,,,,10,,,35,0
23340,note_on,60,0,9,,,,,,,,,8,,,47,0
23340,note_on,0,0,5,,,,,,,,,4,,,59,66
23340,note_on,0,0,5,,,,,,,,,4,,,71,63
23350,note_on,10,0,5,,,,,,,,,4,,,75,0
23350,note_on,0,0,5,,,,,,,,,4,,,78,0
23360,note_on,0,0,5,,,,,,,,,4,,,75,61
23360,note_on,10,0,5,,,,,,,,,4,,,78,51
23370,note_on,0,0,5,,,,,,,,,4,,,78,0
23370,note_on,10,0,5,,,,,,,,,4,,,75,0
23380,note_on,10,0,5,,,,,,,,,4,,,78,53
23380,note_on,0,0,5,,,,,,,,,4,,,75,72
23390,note_on,0,0,5,,,,,,,,,4,,,78,0
23390,note_on,10,0,5,,,,,,,,,4,,,75,0
23400,note_on,0,0,5,,,,,,,,,4,,,75,43
23400,note_on,60,0,10,,,,,,,,,10,,,33,55
23400,note_on,0,0,5,,,,,,,,,4,,,78,43
23400,note_on,0,0,5,,,,,,,,,4,,,59,0
23400,note_on,10,0,5,,,,,,,,,4,,,71,0
23400,note_on,60,0,6,,,,,,,,,5,,,57,55
23400,note_on,60,0,7,,,,,,,,,6,,,57,55
23400,note_on,60,0,9,,,,,,,,,8,,,45,55
23400,note_on,60,0,8,,,,,,,,,7,,,57,55
23410,note_on,0,0,5,,,,,,,,,4,,,78,0
23410,note_on,10,0,5,,,,,,,,,4,,,75,0
23420,note_on,10,0,5,,,,,,,,,4,,,77,43
23420,note_on,0,0,5,,,,,,,,,4,,,75,44
23430,note_on,10,0,5,,,,,,,,,4,,,75,0
23430,note_on,0,0,5,,,,,,,,,4,,,77,0
23440,note_on,0,0,5,,,,,,,,,4,,,75,42
23440,note_on,10,0,5,,,,,,,,,4,,,77,43
23450,note_on,0,0,5,,,,,,,,,4,,,77,0
23450,note_on,10,0,5,,,,,,,,,4,,,75,0
23460,note_on,60,0,8,,,,,,,,,7,,,57,0
23460,note_on,0,0,5,,,,,,,,,4,,,57,43
23460,note_on,0,0,5,,,,,,,,,4,,,69,44
23460,note_on,10,0,5,,,,,,,,,4,,,77,43
23460,note_on,0,0,5,,,,,,,,,4,,,75,52
23460,note_on,60,0,10,,,,,,,,,10,,,33,0
23460,note_on,60,0,7,,,,,,,,,6,,,57,0
23460,note_on,60,0,9,,,,,,,,,8,,,45,0
23460,note_on,60,0,6,,,,,,,,,5,,,57,0
23470,note_on,10,0,5,,,,,,,,,4,,,75,0
23470,note_on,0,0,5,,,,,,,,,4,,,77,0
23480,note_on,10,0,5,,,,,,,,,4,,,77,42
23480,note_on,0,0,5,,,,,,,,,4,,,75,31
23490,note_on,10,0,5,,,,,,,,,4,,,75,0
23490,note_on,0,0,5,,,,,,,,,4,,,77,0
23500,note_on,0,0,5,,,,,,,,,4,,,75,45
23500,note_on,10,0,5,,,,,,,,,4,,,77,42
23510,note_on,10,0,5,,,,,,,,,4,,,75,0
23510,note_on,0,0,5,,,,,,,,,4,,,77,0
23520,note_on,60,0,7,,,,,,,,,6,,,60,45
23520,note_on,60,0,8,,,,,,,,,7,,,60,45
23520,note_on,10,0,5,,,,,,,,,4,,,69,0
23520,note_on,0,0,5,,,,,,,,,4,,,57,0
23520,note_on,0,0,5,,,,,,,,,4,,,77,43
23520,note_on,60,0,6,,,,,,,,,5,,,60,45
23520,note_on,60,0,9,,,,,,,,,8,,,48,45
23520,note_on,60,0,10,,,,,,,,,10,,,36,45
23520,note_on,0,0,5,,,,,,,,,4,,,75,51
23530,note_on,10,0,5,,,,,,,,,4,,,75,0
23530,note_on,0,0,5,,,,,,,,,4,,,77,0
23540,note_on,10,0,5,,,,,,,,,4,,,77,43
23540,note_on,0,0,5,,,,,,,,,4,,,75,43
23550,note_on,10,0,5,,,,,,,,,4,,,75,0
23550,note_on,0,0,5,,,,,,,,,4,,,77,0
23560,note_on,10,0,5,,,,,,,,,4,,,77,44
23560,note_on,0,0,5,,,,,,,,,4,,,75,43
23570,note_on,10,0,5,,,,,,,,,4,,,75,0
23570,note_on,0,0,5,,,,,,,,,4,,,77,0
23580,note_on,60,0,6,,,,,,,,,5,,,60,0
23580,note_on,0,0,5,,,,,,,,,4,,,72,64
23580,note_on,60,0,7,,,,,,,,,6,,,60,0
23580,note_on,60,0,8,,,,,,,,,7,,,60,0
23580,note_on,60,0,9,,,,,,,,,8,,,48,0
23580,note_on,0,0,5,,,,,,,,,4,,,75,43
23580,note_on,0,0,5,,,,,,,,,4,,,60,41
23580,note_on,60,0,10,,,,,,,,,10,,,36,0
23580,note_on,10,0,5,,,,,,,,,4,,,77,41
23590,note_on,10,0,5,,,,,,,,,4,,,75,0
23590,note_on,0,0,5,,,,,,,,,4,,,77,0
23600,note_on,10,0,5,,,,,,,,,4,,,77,42
23600,note_on,0,0,5,,,,,,,,,4,,,75,45
23610,note_on,10,0,5,,,,,,,,,4,,,75,0
23610,note_on,0,0,5,,,,,,,,,4,,,77,0
23620,note_on,10,0,5,,,,,,,,,4,,,77,40
23620,note_on,0,0,5,,,,,,,,,4,,,75,43
23630,note_on,0,0,5,,,,,,,,,4,,,77,0
23630,note_on,10,0,5,,,,,,,,,4,,,75,0
23640,note_on,0,0,5,,,,,,,,,4,,,75,40
23640,note_on,0,0,5,,,,,,,,,4,,,77,40
23640,note_on,0,0,5,,,,,,,,,4,,,60,0
23640,note_on,10,0,5,,,,,,,,,4,,,72,0
23640,note_on,60,0,10,,,,,,,,,10,,,33,57
23640,note_on,60,0,7,,,,,,,,,6,,,57,43
23640,note_on,60,0,9,,,,,,,,,8,,,45,57
23640,note_on,60,0,6,,,,,,,,,5,,,57,43
23640,note_on,60,0,8,,,,,,,,,7,,,57,43
23650,note_on,10,0,5,,,,,,,,,4,,,75,0
23650,note_on,0,0,5,,,,,,,,,4,,,77,0
23660,note_on,10,0,5,,,,,,,,,4,,,77,35
23660,note_on,0,0,5,,,,,,,,,4,,,75,32
23670,note_on,0,0,5,,,,,,,,,4,,,77,0
23670,note_on,10,0,5,,,,,,,,,4,,,75,0
23680,note_on,0,0,5,,,,,,,,,4,,,75,43
23680,note_on,10,0,5,,,,,,,,,4,,,77,42
23690,note_on,10,0,5,,,,,,,,,4,,,75,0
23690,note_on,0,0,5,,,,,,,,,4,,,77,0
23700,note_on,0,0,5,,,,,,,,,4,,,75,39
23700,note_on,60,0,8,,,,,,,,,7,,,57,0
23700,note_on,0,0,5,,,,,,,,,4,,,69,43
23700,note_on,60,0,9,,,,,,,,,8,,,45,0
23700,note_on,10,0,5,,,,,,,,,4,,,77,40
23700,note_on,60,0,10,,,,,,,,,10,,,33,0
23700,note_on,0,0,5,,,,,,,,,4,,,57,39
23700,note_on,60,0,7,,,,,,,,,6,,,57,0
23700,note_on,60,0,6,,,,,,,,,5,,,57,0
23710,note_on,10,0,5,,,,,,,,,4,,,75,0
23710,note_on,0,0,5,,,,,,,,,4,,,77,0
23720,note_on,0,0,5,,,,,,,,,4,,,75,43
23720,note_on,10,0,5,,,,,,,,,4,,,77,40
23730,note_on,0,0,5,,,,,,,,,4,,,77,0
23730,note_on,10,0,5,,,,,,,,,4,,,75,0
23740,note_on,10,0,5,,,,,,,,,4,,,77,44
23740,note_on,0,0,5,,,,,,,,,4,,,75,49
23745,note_on,0,0,5,,,,,,,,,4,,,75,45
23745,note_on,5,0,5,,,,,,,,,4,,,77,41
23750,note_on,0,0,5,,,,,,,,,4,,,77,0
23750,note_on,5,0,5,,,,,,,,,4,,,75,0
23760,note_on,10,0,5,,,,,,,,,4,,,77,0
23760,note_on,0,0,5,,,,,,,,,4,,,57,0
23760,note_on,0,0,5,,,,,,,,,4,,,75,0
23760,note_on,0,0,5,,,,,,,,,4,,,69,0
23760,note_on,0,0,5,,,,,,,,,4,,,75,67
23760,note_on,60,0,9,,,,,,,,,8,,,46,33
23760,note_on,60,0,7,,,,,,,,,6,,,58,33
23760,note_on,60,0,10,,,,,,,,,10,,,34,33
23760,note_on,60,0,8,,,,,,,,,7,,,58,33
23760,note_on,60,0,6,,,,,,,,,5,,,58,33
23770,note_on,0,0,5,,,,,,,,,4,,,77,44
23770,note_on,10,0,5,,,,,,,,,4,,,75,0
23780,note_on,0,0,5,,,,,,,,,4,,,75,53
23780,note_on,10,0,5,,,,,,,,,4,,,77,0
23790,note_on,10,0,5,,,,,,,,,4,,,75,0
23790,note_on,0,0,5,,,,,,,,,4,,,77,43
23797,note_on,7,0,5,,,,,,,,,4,,,75,80
23798,note_on,1,0,5,,,,,,,,,4,,,77,0
23805,note_on,7,0,5,,,,,,,,,4,,,75,0
23805,note_on,0,0,5,,,,,,,,,4,,,77,54
23812,note_on,7,0,5,,,,,,,,,4,,,75,71
23813,note_on,1,0,5,,,,,,,,,4,,,77,0
23820,note_on,60,0,9,,,,,,,,,8,,,46,0
23820,note_on,60,0,6,,,,,,,,,5,,,58,0
23820,note_on,0,0,5,,,,,,,,,4,,,77,50
23820,note_on,7,0,5,,,,,,,,,4,,,75,0
23820,note_on,60,0,8,,,,,,,,,7,,,58,0
23820,note_on,60,0,10,,,,,,,,,10,,,34,0
23820,note_on,60,0,7,,,,,,,,,6,,,58,0
23830,note_on,10,0,5,,,,,,,,,4,,,77,0
23830,note_on,0,0,5,,,,,,,,,4,,,75,69
23840,note_on,10,0,5,,,,,,,,,4,,,75,0
23840,note_on,0,0,5,,,,,,,,,4,,,77,61
23850,note_on,10,0,5,,,,,,,,,4,,,77,0
23850,note_on,0,0,5,,,,,,,,,4,,,75,72
23857,note_on,7,0,5,,,,,,,,,4,,,77,68
23858,note_on,1,0,5,,,,,,,,,4,,,75,0
23865,note_on,7,0,5,,,,,,,,,4,,,77,0
23865,note_on,0,0,5,,,,,,,,,4,,,75,80
23872,note_on,7,0,5,,,,,,,,,4,,,77,80
23873,note_on,1,0,5,,,,,,,,,4,,,75,0
23880,note_on,7,0,5,,,,,,,,,4,,,77,0
23880,note_on,0,0,5,,,,,,,,,4,,,75,70
23890,note_on,10,0,5,,,,,,,,,4,,,75,0
23890,note_on,0,0,5,,,,,,,,,4,,,77,73
23900,note_on,10,0,5,,,,,,,,,4,,,77,0
23900,note_on,0,0,5,,,,,,,,,4,,,75,84
23910,note_on,10,0,5,,,,,,,,,4,,,75,0
23910,note_on,0,0,5,,,,,,,,,4,,,77,73
23917,note_on,7,0,5,,,,,,,,,4,,,75,80
23918,note_on,1,0,5,,,,,,,,,4,,,77,0
23925,note_on,0,0,5,,,,,,,,,4,,,77,71
23925,note_on,7,0,5,,,,,,,,,4,,,75,0
23932,note_on,7,0,5,,,,,,,,,4,,,75,84
23933,note_on,1,0,5,,,,,,,,,4,,,77,0
23940,note_on,0,0,5,,,,,,,,,4,,,77,59
23940,note_on,7,0,5,,,,,,,,,4,,,75,0
23950,note_on,0,0,5,,,,,,,,,4,,,75,78
23950,note_on,10,0,5,,,,,,,,,4,,,77,0
23960,note_on,10,0,5,,,,,,,,,4,,,75,0
23960,note_on,0,0,5,,,,,,,,,4,,,77,71
23970,note_on,10,0,5,,,,,,,,,4,,,77,0
23970,note_on,0,0,5,,,,,,,,,4,,,75,89
23977,note_on,7,0,5,,,,,,,,,4,,,77,78
23978,note_on,1,0,5,,,,,,,,,4,,,75,0
23985,note_on,7,0,5,,,,,,,,,4,,,77,0
23985,note_on,0,0,5,,,,,,,,,4,,,75,85
23992,note_on,7,0,5,,,,,,,,,4,,,77,76
23993,note_on,1,0,5,,,,,,,,,4,,,75,0
24000,note_on,7,0,5,,,,,,,,,4,,,77,0
24000,note_on,0,0,5,,,,,,,,,4,,,76,94
24010,note_on,10,0,5,,,,,,,,,4,,,76,0
24010,note_on,0,0,5,,,,,,,,,4,,,77,84
24020,note_on,10,0,5,,,,,,,,,4,,,77,0
24020,note_on,0,0,5,,,,,,,,,4,,,76,90
24030,note_on,0,0,5,,,,,,,,,4,,,77,82
24030,note_on,10,0,5,,,,,,,,,4,,,76,0
24037,note_on,7,0,5,,,,,,,,,4,,,76,95
24038,note_on,1,0,5,,,,,,,,,4,,,77,0
24045,note_on,7,0,5,,,,,,,,,4,,,76,0
24045,note_on,0,0,5,,,,,,,,,4,,,77,85
24052,note_on,7,0,5,,,,,,,,,4,,,76,99
24053,note_on,1,0,5,,,,,,,,,4,,,77,0
24060,note_on,7,0,5,,,,,,,,,4,,,76,0
24060,note_on,0,0,5,,,,,,,,,4,,,77,85
24070,note_on,0,0,5,,,,,,,,,4,,,76,98
24070,note_on,10,0,5,,,,,,,,,4,,,77,0
24080,note_on,0,0,5,,,,,,,,,4,,,77,94
24080,note_on,10,0,5,,,,,,,,,4,,,76,0
24090,note_on,10,0,5,,,,,,,,,4,,,77,0
24090,note_on,0,0,5,,,,,,,,,4,,,76,99
24097,note_on,7,0,5,,,,,,,,,4,,,77,90
24098,note_on,1,0,5,,,,,,,,,4,,,76,0
24105,note_on,0,0,5,,,,,,,,,4,,,76,99
24105,note_on,7,0,5,,,,,,,,,4,,,77,0
24112,note_on,7,0,5,,,,,,,,,4,,,77,90
24113,note_on,1,0,5,,,,,,,,,4,,,76,0
24120,note_on,300,0,9,,,,,,,,,8,,,46,44
24120,note_on,7,0,5,,,,,,,,,4,,,77,0
24120,note_on,0,0,5,,,,,,,,,4,,,77,99
24120,note_on,300,0,10,,,,,,,,,10,,,34,44
24127,note_on,7,0,5,,,,,,,,,4,,,79,90
24128,note_on,1,0,5,,,,,,,,,4,,,77,0
24135,note_on,7,0,5,,,,,,,,,4,,,79,0
24135,note_on,0,0,5,,,,,,,,,4,,,77,101
24142,note_on,7,0,5,,,,,,,,,4,,,79,95
24143,note_on,1,0,5,,,,,,,,,4,,,77,0
24150,note_on,0,0,5,,,,,,,,,4,,,77,95
24150,note_on,7,0,5,,,,,,,,,4,,,79,0
24160,note_on,0,0,5,,,,,,,,,4,,,79,99
24160,note_on,10,0,5,,,,,,,,,4,,,77,0
24170,note_on,10,0,5,,,,,,,,,4,,,79,0
24170,note_on,0,0,5,,,,,,,,,4,,,77,98
24180,note_on,360,0,7,,,,,,,,,6,,,63,45
24180,note_on,60,0,9,,,,,,,,,8,,,46,0
24180,note_on,360,0,8,,,,,,,,,7,,,58,52
24180,note_on,60,0,10,,,,,,,,,10,,,34,0
24180,note_on,0,0,5,,,,,,,,,4,,,79,94
24180,note_on,360,0,6,,,,,,,,,5,,,65,45
24180,note_on,10,0,5,,,,,,,,,4,,,77,0
24180,note_on,0,0,6,,,,,,,,,5,,,56,40
24187,note_on,7,0,5,,,,,,,,,4,,,77,95
24188,note_on,1,0,5,,,,,,,,,4,,,79,0
24195,note_on,7,0,5,,,,,,,,,4,,,77,0
24195,note_on,0,0,5,,,,,,,,,4,,,79,99
24202,note_on,7,0,5,,,,,,,,,4,,,77,95
24203,note_on,1,0,5,,,,,,,,,4,,,79,0
24210,note_on,7,0,5,,,,,,,,,4,,,77,0
24210,note_on,0,0,5,,,,,,,,,4,,,76,107
24225,note_on,0,0,5,,,,,,,,,4,,,77,104
24225,note_on,15,0,5,,,,,,,,,4,,,76,0
24240,note_on,0,0,6,,,,,,,,,5,,,65,0
24240,note_on,60,0,9,,,,,,,,,8,,,46,43
24240,note_on,60,0,10,,,,,,,,,10,,,34,43
24240,note_on,60,0,6,,,,,,,,,5,,,56,0
24240,note_on,60,0,8,,,,,,,,,7,,,58,0
24240,note_on,0,0,5,,,,,,,,,4,,,82,84
24240,note_on,15,0,5,,,,,,,,,4,,,77,0
24240,note_on,60,0,7,,,,,,,,,6,,,63,0
24247,note_on,7,0,5,,,,,,,,,4,,,84,93
24248,note_on,1,0,5,,,,,,,,,4,,,82,0
24255,note_on,7,0,5,,,,,,,,,4,,,84,0
24255,note_on,0,0,5,,,,,,,,,4,,,82,93
24262,note_on,7,0,5,,,,,,,,,4,,,84,90
24263,note_on,1,0,5,,,,,,,,,4,,,82,0
24270,note_on,7,0,5,,,,,,,,,4,,,84,0
24270,note_on,0,0,5,,,,,,,,,4,,,82,93
24280,note_on,10,0,5,,,,,,,,,4,,,82,0
24280,note_on,0,0,5,,,,,,,,,4,,,84,95
24290,note_on,0,0,5,,,,,,,,,4,,,82,90
24290,note_on,10,0,5,,,,,,,,,4,,,84,0
24300,note_on,0,0,5,,,,,,,,,4,,,84,94
24300,note_on,10,0,5,,,,,,,,,4,,,82,0
24300,note_on,60,0,6,,,,,,,,,5,,,65,43
24300,note_on,0,0,6,,,,,,,,,5,,,56,35
24300,note_on,60,0,10,,,,,,,,,10,,,34,0
24300,note_on,60,0,7,,,,,,,,,6,,,63,38
24300,note_on,60,0,9,,,,,,,,,8,,,46,0
24300,note_on,60,0,8,,,,,,,,,7,,,58,45
24307,note_on,7,0,5,,,,,,,,,4,,,82,89
24308,note_on,1,0,5,,,,,,,,,4,,,84,0
24315,note_on,0,0,5,,,,,,,,,4,,,84,94
24315,note_on,7,0,5,,,,,,,,,4,,,82,0
24322,note_on,7,0,5,,,,,,,,,4,,,82,93
24323,note_on,1,0,5,,,,,,,,,4,,,84,0
24330,note_on,0,0,5,,,,,,,,,4,,,81,105
24330,note_on,7,0,5,,,,,,,,,4,,,82,0
24345,note_on,15,0,5,,,,,,,,,4,,,81,0
24345,note_on,0,0,5,,,,,,,,,4,,,82,101
24360,note_on,60,0,9,,,,,,,,,8,,,46,57
24360,note_on,0,0,6,,,,,,,,,5,,,65,0
24360,note_on,60,0,6,,,,,,,,,5,,,56,0
24360,note_on,60,0,7,,,,,,,,,6,,,63,0
24360,note_on,60,0,8,,,,,,,,,7,,,58,0
24360,note_on,15,0,5,,,,,,,,,4,,,82,0
24360,note_on,60,0,10,,,,,,,,,10,,,34,57
24360,note_on,0,0,5,,,,,,,,,4,,,88,107
24370,note_on,10,0,5,,,,,,,,,4,,,88,0
24370,note_on,0,0,5,,,,,,,,,4,,,89,107
24380,note_on,0,0,5,,,,,,,,,4,,,88,105
24380,note_on,10,0,5,,,,,,,,,4,,,89,0
24390,note_on,10,0,5,,,,,,,,,4,,,88,0
24390,note_on,0,0,5,,,,,,,,,4,,,86,110
24405,note_on,15,0,5,,,,,,,,,4,,,86,0
24405,note_on,0,0,5,,,,,,,,,4,,,88,112
24420,note_on,60,0,8,,,,,,,,,7,,,58,48
24420,note_on,60,0,7,,,,,,,,,6,,,62,49
24420,note_on,60,0,6,,,,,,,,,5,,,65,35
24420,note_on,0,0,6,,,,,,,,,5,,,56,40
24420,note_on,15,0,5,,,,,,,,,4,,,88,0
24420,note_on,0,0,5,,,,,,,,,4,,,89,112
24420,note_on,60,0,10,,,,,,,,,10,,,34,0
24420,note_on,60,0,9,,,,,,,,,8,,,46,0
24450,note_on,30,0,5,,,,,,,,,4,,,89,0
24450,note_on,0,0,5,,,,,,,,,4,,,87,104
24454,note_on,4,0,5,,,,,,,,,4,,,87,0
24454,note_on,0,0,5,,,,,,,,,4,,,86,104
24458,note_on,4,0,5,,,,,,,,,4,,,86,0
24458,note_on,0,0,5,,,,,,,,,4,,,84,89
24462,note_on,4,0,5,,,,,,,,,4,,,84,0
24462,note_on,0,0,5,,,,,,,,,4,,,82,84
24466,note_on,0,0,5,,,,,,,,,4,,,80,69
24466,note_on,4,0,5,,,,,,,,,4,,,82,0
24470,note_on,4,0,5,,,,,,,,,4,,,80,0
24470,note_on,0,0,5,,,,,,,,,4,,,79,71
24474,note_on,4,0,5,,,,,,,,,4,,,79,0
24474,note_on,0,0,5,,,,,,,,,4,,,77,73
24478,note_on,4,0,5,,,,,,,,,4,,,77,0
24480,note_on,0,0,4,,,,,,,,,3,,,51,93
24480,note_on,60,0,10,,,,,,,,,10,,,27,94
24480,note_on,6690,0,3,,,,,,,,,2,,,63,76
24480,note_on,2,0,5,,,,,,,,,4,,,75,99
24480,note_on,0,0,5,,,,,,,,,4,,,63,94
24480,note_on,0,0,6,,,,,,,,,5,,,63,86
24480,note_on,0,0,6,,,,,,,,,5,,,65,0
24480,note_on,6690,0,1,,,,,,,,,0,,,75,81
24480,note_on,6690,0,2,,,,,,,,,1,,,75,72
24480,note_on,0,0,2,,,,,,,,,1,,,67,81
24480,note_on,0,0,3,,,,,,,,,2,,,51,94
24480,note_on,0,0,5,,,,,,,,,4,,,67,85
24480,note_on,60,0,8,,,,,,,,,7,,,58,0
24480,note_on,3540,0,4,,,,,,,,,3,,,63,72
24480,note_on,60,0,6,,,,,,,,,5,,,56,0
24480,note_on,60,0,7,,,,,,,,,6,,,62,0
24480,note_on,0,0,7,,,,,,,,,6,,,63,71
24480,note_on,0,0,7,,,,,,,,,6,,,55,84
24480,note_on,60,0,9,,,,,,,,,8,,,39,94
24480,note_on,0,0,8,,,,,,,,,7,,,51,94
24495,note_on,15,0,7,,,,,,,,,6,,,55,0
24495,note_on,15,0,9,,,,,,,,,8,,,39,0
24495,note_on,15,0,10,,,,,,,,,10,,,27,0
24495,note_on,15,0,8,,,,,,,,,7,,,51,0
24495,note_on,0,0,7,,,,,,,,,6,,,63,0
24510,note_on,15,0,10,,,,,,,,,10,,,39,84
24510,note_on,15,0,7,,,,,,,,,6,,,55,89
24510,note_on,15,0,9,,,,,,,,,8,,,51,84
24510,note_on,15,0,8,,,,,,,,,7,,,63,84
24525,note_on,15,0,7,,,,,,,,,6,,,55,0
24525,note_on,15,0,9,,,,,,,,,8,,,51,0
24525,note_on,15,0,8,,,,,,,,,7,,,63,0
24525,note_on,15,0,10,,,,,,,,,10,,,39,0
24540,note_on,15,0,10,,,,,,,,,10,,,39,78
24540,note_on,15,0,7,,,,,,,,,6,,,55,84
24540,note_on,15,0,9,,,,,,,,,8,,,51,78
24540,note_on,15,0,8,,,,,,,,,7,,,63,78
24555,note_on,15,0,7,,,,,,,,,6,,,55,0
24555,note_on,15,0,8,,,,,,,,,7,,,63,0
24555,note_on,15,0,9,,,,,,,,,8,,,51,0
24555,note_on,15,0,10,,,,,,,,,10,,,39,0
24570,note_on,15,0,9,,,,,,,,,8,,,51,82
24570,note_on,15,0,7,,,,,,,,,6,,,55,89
24570,note_on,15,0,10,,,,,,,,,10,,,39,82
24570,note_on,15,0,8,,,,,,,,,7,,,63,82
24585,note_on,15,0,10,,,,,,,,,10,,,39,0
24585,note_on,15,0,9,,,,,,,,,8,,,51,0
24585,note_on,15,0,7,,,,,,,,,6,,,55,0
24585,note_on,15,0,8,,,,,,,,,7,,,63,0
24600,note_on,0,0,6,,,,,,,,,5,,,67,90
24600,note_on,15,0,8,,,,,,,,,7,,,63,84
24600,note_on,120,0,4,,,,,,,,,3,,,51,0
24600,note_on,0,0,4,,,,,,,,,3,,,63,0
24600,note_on,0,0,4,,,,,,,,,3,,,63,72
24600,note_on,15,0,9,,,,,,,,,8,,,51,84
24600,note_on,120,0,6,,,,,,,,,5,,,63,0
24600,note_on,0,0,1,,,,,,,,,0,,,79,80
24600,note_on,120,0,1,,,,,,,,,0,,,75,0
24600,note_on,0,0,4,,,,,,,,,3,,,51,94
24600,note_on,15,0,7,,,,,,,,,6,,,55,89
24600,note_on,120,0,5,,,,,,,,,4,,,63,0
24600,note_on,0,0,5,,,,,,,,,4,,,67,0
24600,note_on,15,0,10,,,,,,,,,10,,,39,84
24600,note_on,0,0,5,,,,,,,,,4,,,75,0
24615,note_on,15,0,8,,,,,,,,,7,,,63,0
24615,note_on,15,0,7,,,,,,,,,6,,,55,0
24615,note_on,15,0,9,,,,,,,,,8,,,51,0
24615,note_on,15,0,10,,,,,,,,,10,,,39,0
24630,note_on,15,0,10,,,,,,,,,10,,,39,85
24630,note_on,15,0,7,,,,,,,,,6,,,63,74
24630,note_on,15,0,8,,,,,,,,,7,,,63,85
24630,note_on,0,0,7,,,,,,,,,6,,,55,82
24630,note_on,15,0,9,,,,,,,,,8,,,51,85
24645,note_on,15,0,8,,,,,,,,,7,,,63,0
24645,note_on,0,0,7,,,,,,,,,6,,,63,0
24645,note_on,15,0,7,,,,,,,,,6,,,55,0
24645,note_on,15,0,9,,,,,,,,,8,,,51,0
24645,note_on,15,0,10,,,,,,,,,10,,,39,0
24660,note_on,15,0,9,,,,,,,,,8,,,51,85
24660,note_on,15,0,10,,,,,,,,,10,,,39,85
24660,note_on,0,0,7,,,,,,,,,6,,,55,94
24660,note_on,15,0,7,,,,,,,,,6,,,63,80
24660,note_on,15,0,8,,,,,,,,,7,,,63,85
24675,note_on,15,0,10,,,,,,,,,10,,,39,0
24675,note_on,15,0,9,,,,,,,,,8,,,51,0
24675,note_on,0,0,7,,,,,,,,,6,,,63,0
24675,note_on,15,0,7,,,,,,,,,6,,,55,0
24675,note_on,15,0,8,,,,,,,,,7,,,63,0
24690,note_on,15,0,8,,,,,,,,,7,,,63,86
24690,note_on,0,0,7,,,,,,,,,6,,,55,89
24690,note_on,15,0,9,,,,,,,,,8,,,51,86
24690,note_on,15,0,10,,,,,,,,,10,,,39,86
24690,note_on,15,0,7,,,,,,,,,6,,,63,77
24705,note_on,15,0,7,,,,,,,,,6,,,55,0
24705,note_on,15,0,10,,,,,,,,,10,,,39,0
24705,note_on,15,0,9,,,,,,,,,8,,,51,0
24705,note_on,15,0,8,,,,,,,,,7,,,63,0
24705,note_on,0,0,7,,,,,,,,,6,,,63,0
24720,note_on,0,0,4,,,,,,,,,3,,,63,0
24720,note_on,0,0,4,,,,,,,,,3,,,63,72
24720,note_on,15,0,10,,,,,,,,,10,,,35,99
24720,note_on,120,0,4,,,,,,,,,3,,,51,0
24720,note_on,15,0,7,,,,,,,,,6,,,63,78
24720,note_on,0,0,2,,,,,,,,,1,,,80,68
24720,note_on,120,0,1,,,,,,,,,0,,,79,0
24720,note_on,15,0,9,,,,,,,,,8,,,47,99
24720,note_on,120,0,6,,,,,,,,,5,,,67,0
24720,note_on,0,0,3,,,,,,,,,2,,,59,84
24720,note_on,0,0,3,,,,,,,,,2,,,63,72
24720,note_on,0,0,3,,,,,,,,,2,,,63,0
24720,note_on,240,0,3,,,,,,,,,2,,,51,0
24720,note_on,0,0,1,,,,,,,,,0,,,80,82
24720,note_on,240,0,2,,,,,,,,,1,,,67,0
24720,note_on,0,0,2,,,,,,,,,1,,,75,0
24720,note_on,0,0,7,,,,,,,,,6,,,56,89
24720,note_on,0,0,4,,,,,,,,,3,,,51,89
24720,note_on,0,0,6,,,,,,,,,5,,,68,95
24720,note_on,0,0,2,,,,,,,,,1,,,75,76
24720,note_on,15,0,8,,,,,,,,,7,,,59,99
24735,note_on,15,0,9,,,,,,,,,8,,,47,0
24735,note_on,15,0,10,,,,,,,,,10,,,35,0
24735,note_on,15,0,7,,,,,,,,,6,,,56,0
24735,note_on,0,0,7,,,,,,,,,6,,,63,0
24735,note_on,15,0,8,,,,,,,,,7,,,59,0
24750,note_on,15,0,8,,,,,,,,,7,,,59,99
24750,note_on,15,0,9,,,,,,,,,8,,,47,99
24750,note_on,15,0,10,,,,,,,,,10,,,35,99
24750,note_on,0,0,7,,,,,,,,,6,,,56,89
24750,note_on,15,0,7,,,,,,,,,6,,,63,77
24765,note_on,0,0,7,,,,,,,,,6,,,63,0
24765,note_on,15,0,9,,,,,,,,,8,,,47,0
24765,note_on,15,0,10,,,,,,,,,10,,,35,0
24765,note_on,15,0,7,,,,,,,,,6,,,56,0
24765,note_on,15,0,8,,,,,,,,,7,,,59,0
24780,note_on,15,0,10,,,,,,,,,10,,,32,93
24780,note_on,0,0,7,,,,,,,,,6,,,59,94
24780,note_on,15,0,7,,,,,,,,,6,,,63,73
24780,note_on,15,0,9,,,,,,,,,8,,,44,93
24780,note_on,15,0,8,,,,,,,,,7,,,56,93
24795,note_on,15,0,8,,,,,,,,,7,,,56,0
24795,note_on,15,0,7,,,,,,,,,6,,,59,0
24795,note_on,0,0,7,,,,,,,,,6,,,63,0
24795,note_on,15,0,9,,,,,,,,,8,,,44,0
24795,note_on,15,0,10,,,,,,,,,10,,,32,0
24810,note_on,15,0,10,,,,,,,,,10,,,32,95
24810,note_on,15,0,8,,,,,,,,,7,,,56,95
24810,note_on,0,0,7,,,,,,,,,6,,,59,95
24810,note_on,15,0,7,,,,,,,,,6,,,63,71
24810,note_on,15,0,9,,,,,,,,,8,,,44,95
24810,note_on,90,0,1,,,,,,,,,0,,,80,0
24810,note_on,90,0,6,,,,,,,,,5,,,68,0
24825,note_on,15,0,6,,,,,,,,,5,,,71,90
24825,note_on,15,0,1,,,,,,,,,0,,,83,89
24825,note_on,15,0,8,,,,,,,,,7,,,56,0
24825,note_on,15,0,10,,,,,,,,,10,,,32,0
24825,note_on,0,0,7,,,,,,,,,6,,,63,0
24825,note_on,15,0,7,,,,,,,,,6,,,59,0
24825,note_on,15,0,9,,,,,,,,,8,,,44,0
24840,note_on,120,0,4,,,,,,,,,3,,,51,0
24840,note_on,0,0,4,,,,,,,,,3,,,63,0
24840,note_on,15,0,9,,,,,,,,,8,,,49,95
24840,note_on,0,0,2,,,,,,,,,1,,,80,0
24840,note_on,0,0,8,,,,,,,,,7,,,49,95
24840,note_on,15,0,1,,,,,,,,,0,,,83,0
24840,note_on,0,0,6,,,,,,,,,5,,,66,95
24840,note_on,15,0,8,,,,,,,,,7,,,58,86
24840,note_on,0,0,3,,,,,,,,,2,,,66,89
24840,note_on,0,0,3,,,,,,,,,2,,,63,0
24840,note_on,120,0,3,,,,,,,,,2,,,59,0
24840,note_on,0,0,1,,,,,,,,,0,,,78,84
24840,note_on,0,0,2,,,,,,,,,1,,,70,84
24840,note_on,120,0,2,,,,,,,,,1,,,75,0
24840,note_on,15,0,6,,,,,,,,,5,,,71,0
24840,note_on,0,0,3,,,,,,,,,2,,,61,78
24840,note_on,0,0,2,,,,,,,,,1,,,78,62
24840,note_on,15,0,10,,,,,,,,,10,,,37,95
24840,note_on,15,0,7,,,,,,,,,6,,,61,89
24855,note_on,0,0,7,,,,,,,,,6,,,60,98
24855,note_on,15,0,7,,,,,,,,,6,,,61,0
24870,note_on,15,0,7,,,,,,,,,6,,,60,0
24870,note_on,0,0,7,,,,,,,,,6,,,61,90
24885,note_on,15,0,7,,,,,,,,,6,,,61,0
24885,note_on,0,0,7,,,,,,,,,6,,,60,99
24900,note_on,0,0,7,,,,,,,,,6,,,61,89
24900,note_on,15,0,7,,,,,,,,,6,,,60,0
24915,note_on,0,0,7,,,,,,,,,6,,,60,95
24915,note_on,15,0,7,,,,,,,,,6,,,61,0
24930,note_on,0,0,7,,,,,,,,,6,,,61,93
24930,note_on,15,0,7,,,,,,,,,6,,,60,0
24945,note_on,15,0,7,,,,,,,,,6,,,61,0
24945,note_on,0,0,7,,,,,,,,,6,,,60,95
24960,note_on,120,0,2,,,,,,,,,1,,,70,0
24960,note_on,0,0,2,,,,,,,,,1,,,77,71
24960,note_on,0,0,2,,,,,,,,,1,,,68,66
24960,note_on,15,0,7,,,,,,,,,6,,,60,0
24960,note_on,0,0,3,,,,,,,,,2,,,65,94
24960,note_on,120,0,6,,,,,,,,,5,,,66,0
24960,note_on,0,0,6,,,,,,,,,5,,,65,84
24960,note_on,0,0,8,,,,,,,,,7,,,49,84
24960,note_on,0,0,8,,,,,,,,,7,,,56,76
24960,note_on,0,0,8,,,,,,,,,7,,,58,0
24960,note_on,120,0,8,,,,,,,,,7,,,49,0
24960,note_on,120,0,3,,,,,,,,,2,,,66,0
24960,note_on,0,0,7,,,,,,,,,6,,,61,78
24960,note_on,0,0,2,,,,,,,,,1,,,78,0
24960,note_on,0,0,1,,,,,,,,,0,,,77,80
24960,note_on,120,0,1,,,,,,,,,0,,,78,0
24960,note_on,0,0,10,,,,,,,,,10,,,37,74
24960,note_on,120,0,10,,,,,,,,,10,,,37,0
24960,note_on,120,0,9,,,,,,,,,8,,,49,0
24960,note_on,0,0,9,,,,,,,,,8,,,49,74
24975,note_on,0,0,10,,,,,,,,,10,,,37,86
24975,note_on,15,0,10,,,,,,,,,10,,,37,0
24975,note_on,0,0,9,,,,,,,,,8,,,49,86
24975,note_on,15,0,8,,,,,,,,,7,,,49,0
24975,note_on,0,0,8,,,,,,,,,7,,,56,0
24975,note_on,0,0,8,,,,,,,,,7,,,49,86
24975,note_on,15,0,9,,,,,,,,,8,,,49,0
24990,note_on,15,0,8,,,,,,,,,7,,,49,0
24990,note_on,0,0,10,,,,,,,,,10,,,39,93
24990,note_on,15,0,10,,,,,,,,,10,,,37,0
24990,note_on,0,0,9,,,,,,,,,8,,,51,93
24990,note_on,15,0,9,,,,,,,,,8,,,49,0
24990,note_on,0,0,8,,,,,,,,,7,,,51,89
25005,note_on,0,0,10,,,,,,,,,10,,,41,81
25005,note_on,15,0,10,,,,,,,,,10,,,39,0
25005,note_on,0,0,9,,,,,,,,,8,,,53,81
25005,note_on,15,0,9,,,,,,,,,8,,,51,0
25005,note_on,0,0,8,,,,,,,,,7,,,53,73
25005,note_on,15,0,8,,,,,,,,,7,,,51,0
25020,note_on,0,0,10,,,,,,,,,10,,,42,86
25020,note_on,15,0,8,,,,,,,,,7,,,53,0
25020,note_on,60,0,2,,,,,,,,,1,,,68,0
25020,note_on,0,0,7,,,,,,,,,6,,,61,72
25020,note_on,60,0,7,,,,,,,,,6,,,61,0
25020,note_on,15,0,9,,,,,,,,,8,,,53,0
25020,note_on,0,0,9,,,,,,,,,8,,,54,86
25020,note_on,60,0,6,,,,,,,,,5,,,65,0
25020,note_on,60,0,1,,,,,,,,,0,,,77,0
25020,note_on,15,0,10,,,,,,,,,10,,,41,0
25020,note_on,0,0,8,,,,,,,,,7,,,54,84
25035,note_on,15,0,9,,,,,,,,,8,,,54,0
25035,note_on,15,0,7,,,,,,,,,6,,,61,0
25035,note_on,15,0,10,,,,,,,,,10,,,42,0
25035,note_on,0,0,10,,,,,,,,,10,,,44,89
25035,note_on,0,0,8,,,,,,,,,7,,,56,89
25035,note_on,0,0,7,,,,,,,,,6,,,60,90
25035,note_on,0,0,9,,,,,,,,,8,,,56,89
25035,note_on,15,0,8,,,,,,,,,7,,,54,0
25050,note_on,0,0,7,,,,,,,,,6,,,61,80
25050,note_on,15,0,8,,,,,,,,,7,,,56,0
25050,note_on,0,0,10,,,,,,,,,10,,,46,89
25050,note_on,15,0,10,,,,,,,,,10,,,44,0
25050,note_on,15,0,9,,,,,,,,,8,,,56,0
25050,note_on,0,0,9,,,,,,,,,8,,,58,89
25050,note_on,15,0,7,,,,,,,,,6,,,60,0
25050,note_on,0,0,8,,,,,,,,,7,,,58,89
25065,note_on,15,0,8,,,,,,,,,7,,,58,0
25065,note_on,0,0,8,,,,,,,,,7,,,60,84
25065,note_on,15,0,9,,,,,,,,,8,,,58,0
25065,note_on,0,0,7,,,,,,,,,6,,,63,89
25065,note_on,15,0,10,,,,,,,,,10,,,46,0
25065,note_on,0,0,10,,,,,,,,,10,,,48,85
25065,note_on,0,0,9,,,,,,,,,8,,,60,85
25065,note_on,15,0,7,,,,,,,,,6,,,61,0
25080,note_on,0,0,8,,,,,,,,,7,,,61,74
25080,note_on,15,0,8,,,,,,,,,7,,,60,0
25080,note_on,15,0,10,,,,,,,,,10,,,48,0
25080,note_on,0,0,10,,,,,,,,,10,,,49,74
25080,note_on,0,0,9,,,,,,,,,8,,,61,74
25080,note_on,15,0,9,,,,,,,,,8,,,60,0
25080,note_on,60,0,2,,,,,,,,,1,,,77,0
25080,note_on,0,0,2,,,,,,,,,1,,,76,81
25080,note_on,120,0,3,,,,,,,,,2,,,65,0
25080,note_on,0,0,3,,,,,,,,,2,,,64,89
25080,note_on,0,0,3,,,,,,,,,2,,,61,84
25080,note_on,0,0,7,,,,,,,,,6,,,64,105
25080,note_on,15,0,7,,,,,,,,,6,,,63,0
25080,note_on,0,0,3,,,,,,,,,2,,,61,0
25095,note_on,15,0,10,,,,,,,,,10,,,49,0
25095,note_on,0,0,7,,,,,,,,,6,,,64,99
25095,note_on,15,0,7,,,,,,,,,6,,,64,0
25095,note_on,15,0,8,,,,,,,,,7,,,61,0
25095,note_on,15,0,9,,,,,,,,,8,,,61,0
25110,note_on,15,0,8,,,,,,,,,7,,,49,84
25110,note_on,15,0,9,,,,,,,,,8,,,49,89
25110,note_on,15,0,10,,,,,,,,,10,,,37,89
25110,note_on,15,0,7,,,,,,,,,6,,,64,0
25110,note_on,0,0,7,,,,,,,,,6,,,64,101
25125,note_on,15,0,10,,,,,,,,,10,,,37,0
25125,note_on,15,0,8,,,,,,,,,7,,,49,0
25125,note_on,15,0,7,,,,,,,,,6,,,64,0
25125,note_on,0,0,7,,,,,,,,,6,,,64,98
25125,note_on,15,0,9,,,,,,,,,8,,,49,0
25140,note_on,15,0,9,,,,,,,,,8,,,49,93
25140,note_on,60,0,2,,,,,,,,,1,,,70,70
25140,note_on,120,0,6,,,,,,,,,5,,,70,86
25140,note_on,15,0,10,,,,,,,,,10,,,37,93
25140,note_on,15,0,8,,,,,,,,,7,,,61,68
25140,note_on,120,0,1,,,,,,,,,0,,,82,80
25140,note_on,0,0,7,,,,,,,,,6,,,64,99
25140,note_on,15,0,7,,,,,,,,,6,,,64,0
25155,note_on,15,0,8,,,,,,,,,7,,,61,0
25155,note_on,0,0,7,,,,,,,,,6,,,64,94
25155,note_on,15,0,7,,,,,,,,,6,,,64,0
25155,note_on,15,0,9,,,,,,,,,8,,,49,0
25155,note_on,15,0,10,,,,,,,,,10,,,37,0
25170,note_on,15,0,10,,,,,,,,,10,,,37,94
25170,note_on,15,0,7,,,,,,,,,6,,,64,0
25170,note_on,0,0,7,,,,,,,,,6,,,64,90
25170,note_on,15,0,9,,,,,,,,,8,,,49,94
25170,note_on,15,0,8,,,,,,,,,7,,,61,74
25185,note_on,15,0,8,,,,,,,,,7,,,61,0
25185,note_on,0,0,7,,,,,,,,,6,,,64,89
25185,note_on,15,0,7,,,,,,,,,6,,,64,0
25185,note_on,15,0,9,,,,,,,,,8,,,49,0
25185,note_on,15,0,10,,,,,,,,,10,,,37,0
25200,note_on,0,0,2,,,,,,,,,1,,,68,84
25200,note_on,0,0,2,,,,,,,,,1,,,75,84
25200,note_on,0,0,2,,,,,,,,,1,,,76,0
25200,note_on,60,0,2,,,,,,,,,1,,,70,0
25200,note_on,0,0,1,,,,,,,,,0,,,80,93
25200,note_on,60,0,1,,,,,,,,,0,,,82,0
25200,note_on,120,0,3,,,,,,,,,2,,,61,0
25200,note_on,0,0,3,,,,,,,,,2,,,64,0
25200,note_on,0,0,4,,,,,,,,,3,,,51,90
25200,note_on,360,0,4,,,,,,,,,3,,,63,71
25200,note_on,60,0,6,,,,,,,,,5,,,70,0
25200,note_on,0,0,6,,,,,,,,,5,,,68,104
25200,note_on,15,0,8,,,,,,,,,7,,,59,101
25200,note_on,0,0,3,,,,,,,,,2,,,63,82
25200,note_on,0,0,3,,,,,,,,,2,,,59,93
25200,note_on,15,0,7,,,,,,,,,6,,,64,0
25200,note_on,0,0,7,,,,,,,,,6,,,63,99
25200,note_on,15,0,10,,,,,,,,,10,,,39,99
25200,note_on,15,0,9,,,,,,,,,8,,,51,99
25215,note_on,15,0,7,,,,,,,,,6,,,63,0
25215,note_on,0,0,7,,,,,,,,,6,,,62,101
25230,note_on,0,0,7,,,,,,,,,6,,,63,95
25230,note_on,15,0,7,,,,,,,,,6,,,62,0
25245,note_on,0,0,7,,,,,,,,,6,,,62,95
25245,note_on,15,0,7,,,,,,,,,6,,,63,0
25260,note_on,0,0,7,,,,,,,,,6,,,63,89
25260,note_on,15,0,7,,,,,,,,,6,,,62,0
25275,note_on,0,0,7,,,,,,,,,6,,,62,94
25275,note_on,15,0,7,,,,,,,,,6,,,63,0
25290,note_on,0,0,7,,,,,,,,,6,,,63,90
25290,note_on,15,0,7,,,,,,,,,6,,,62,0
25305,note_on,0,0,7,,,,,,,,,6,,,62,89
25305,note_on,15,0,7,,,,,,,,,6,,,63,0
25320,note_on,120,0,3,,,,,,,,,2,,,59,0
25320,note_on,120,0,2,,,,,,,,,1,,,68,0
25320,note_on,0,0,2,,,,,,,,,1,,,67,69
25320,note_on,120,0,10,,,,,,,,,10,,,39,0
25320,note_on,0,0,3,,,,,,,,,2,,,58,80
25320,note_on,0,0,7,,,,,,,,,6,,,63,81
25320,note_on,15,0,7,,,,,,,,,6,,,62,0
25320,note_on,120,0,1,,,,,,,,,0,,,80,0
25320,note_on,0,0,10,,,,,,,,,10,,,39,74
25320,note_on,0,0,1,,,,,,,,,0,,,79,85
25320,note_on,120,0,9,,,,,,,,,8,,,51,0
25320,note_on,0,0,9,,,,,,,,,8,,,51,74
25320,note_on,0,0,8,,,,,,,,,7,,,58,80
25320,note_on,120,0,8,,,,,,,,,7,,,59,0
25320,note_on,0,0,6,,,,,,,,,5,,,67,84
25320,note_on,120,0,6,,,,,,,,,5,,,68,0
25335,note_on,0,0,8,,,,,,,,,7,,,51,89
25335,note_on,0,0,10,,,,,,,,,10,,,39,90
25335,note_on,15,0,10,,,,,,,,,10,,,39,0
25335,note_on,15,0,9,,,,,,,,,8,,,51,0
25335,note_on,0,0,9,,,,,,,,,8,,,51,90
25335,note_on,15,0,8,,,,,,,,,7,,,58,0
25350,note_on,15,0,9,,,,,,,,,8,,,51,0
25350,note_on,0,0,9,,,,,,,,,8,,,53,89
25350,note_on,0,0,8,,,,,,,,,7,,,53,89
25350,note_on,15,0,8,,,,,,,,,7,,,51,0
25350,note_on,0,0,10,,,,,,,,,10,,,41,89
25350,note_on,15,0,10,,,,,,,,,10,,,39,0
25365,note_on,0,0,10,,,,,,,,,10,,,43,76
25365,note_on,15,0,9,,,,,,,,,8,,,53,0
25365,note_on,0,0,9,,,,,,,,,8,,,55,76
25365,note_on,0,0,8,,,,,,,,,7,,,55,89
25365,note_on,15,0,8,,,,,,,,,7,,,53,0
25365,note_on,15,0,10,,,,,,,,,10,,,41,0
25380,note_on,60,0,1,,,,,,,,,0,,,79,0
25380,note_on,15,0,10,,,,,,,,,10,,,43,0
25380,note_on,0,0,10,,,,,,,,,10,,,44,89
25380,note_on,15,0,9,,,,,,,,,8,,,55,0
25380,note_on,0,0,9,,,,,,,,,8,,,56,89
25380,note_on,0,0,4,,,,,,,,,3,,,63,67
25380,note_on,15,0,8,,,,,,,,,7,,,55,0
25380,note_on,0,0,8,,,,,,,,,7,,,56,90
25380,note_on,0,0,4,,,,,,,,,3,,,51,89
25380,note_on,60,0,6,,,,,,,,,5,,,67,0
25380,note_on,0,0,4,,,,,,,,,3,,,63,0
25380,note_on,180,0,4,,,,,,,,,3,,,51,0
25395,note_on,15,0,10,,,,,,,,,10,,,44,0
25395,note_on,0,0,8,,,,,,,,,7,,,58,80
25395,note_on,15,0,8,,,,,,,,,7,,,56,0
25395,note_on,0,0,10,,,,,,,,,10,,,46,84
25395,note_on,0,0,9,,,,,,,,,8,,,58,84
25395,note_on,15,0,9,,,,,,,,,8,,,56,0
25410,note_on,15,0,10,,,,,,,,,10,,,46,0
25410,note_on,0,0,8,,,,,,,,,7,,,60,89
25410,note_on,0,0,10,,,,,,,,,10,,,48,80
25410,note_on,15,0,8,,,,,,,,,7,,,58,0
25410,note_on,0,0,9,,,,,,,,,8,,,60,80
25410,note_on,15,0,9,,,,,,,,,8,,,58,0
25425,note_on,15,0,9,,,,,,,,,8,,,60,0
25425,note_on,0,0,9,,,,,,,,,8,,,62,81
25425,note_on,0,0,8,,,,,,,,,7,,,62,80
25425,note_on,15,0,10,,,,,,,,,10,,,48,0
25425,note_on,15,0,8,,,,,,,,,7,,,60,0
25425,note_on,0,0,10,,,,,,,,,10,,,50,81
25440,note_on,60,0,4,,,,,,,,,3,,,51,0
25440,note_on,15,0,10,,,,,,,,,10,,,50,0
25440,note_on,0,0,4,,,,,,,,,3,,,63,71
25440,note_on,0,0,4,,,,,,,,,3,,,51,93
25440,note_on,0,0,2,,,,,,,,,1,,,75,64
25440,note_on,0,0,8,,,,,,,,,7,,,63,77
25440,note_on,0,0,10,,,,,,,,,10,,,51,77
25440,note_on,15,0,9,,,,,,,,,8,,,62,0
25440,note_on,0,0,9,,,,,,,,,8,,,63,77
25440,note_on,0,0,4,,,,,,,,,3,,,63,0
25440,note_on,120,0,2,,,,,,,,,1,,,75,0
25440,note_on,15,0,8,,,,,,,,,7,,,62,0
25440,note_on,0,0,7,,,,,,,,,6,,,63,86
25440,note_on,120,0,3,,,,,,,,,2,,,63,0
25440,note_on,120,0,7,,,,,,,,,6,,,63,0
25440,note_on,0,0,3,,,,,,,,,2,,,63,81
25455,note_on,15,0,9,,,,,,,,,8,,,63,0
25455,note_on,15,0,10,,,,,,,,,10,,,51,0
25455,note_on,15,0,8,,,,,,,,,7,,,63,0
25455,note_on,0,0,7,,,,,,,,,6,,,63,74
25455,note_on,15,0,7,,,,,,,,,6,,,63,0
25455,note_on,0,0,7,,,,,,,,,6,,,58,84
25470,note_on,15,0,7,,,,,,,,,6,,,58,0
25470,note_on,15,0,10,,,,,,,,,10,,,39,90
25470,note_on,15,0,8,,,,,,,,,7,,,51,82
25470,note_on,90,0,6,,,,,,,,,5,,,67,82
25470,note_on,0,0,7,,,,,,,,,6,,,58,80
25470,note_on,0,0,7,,,,,,,,,6,,,63,0
25470,note_on,0,0,7,,,,,,,,,6,,,63,76
25470,note_on,15,0,9,,,,,,,,,8,,,51,90
25485,note_on,0,0,7,,,,,,,,,6,,,63,0
25485,note_on,15,0,10,,,,,,,,,10,,,39,0
25485,note_on,0,0,7,,,,,,,,,6,,,58,78
25485,note_on,0,0,7,,,,,,,,,6,,,63,73
25485,note_on,15,0,7,,,,,,,,,6,,,58,0
25485,note_on,15,0,9,,,,,,,,,8,,,51,0
25485,note_on,15,0,8,,,,,,,,,7,,,51,0
25485,note_on,15,0,6,,,,,,,,,5,,,67,0
25500,note_on,0,0,4,,,,,,,,,3,,,63,63
25500,note_on,0,0,3,,,,,,,,,2,,,58,0
25500,note_on,60,0,3,,,,,,,,,2,,,63,0
25500,note_on,15,0,6,,,,,,,,,5,,,67,76
25500,note_on,0,0,2,,,,,,,,,1,,,67,58
25500,note_on,0,0,2,,,,,,,,,1,,,75,66
25500,note_on,0,0,2,,,,,,,,,1,,,67,0
25500,note_on,60,0,2,,,,,,,,,1,,,75,0
25500,note_on,15,0,7,,,,,,,,,6,,,58,0
25500,note_on,0,0,7,,,,,,,,,6,,,63,0
25500,note_on,0,0,7,,,,,,,,,6,,,63,71
25500,note_on,0,0,7,,,,,,,,,6,,,58,73
25500,note_on,120,0,1,,,,,,,,,0,,,79,80
25500,note_on,0,0,3,,,,,,,,,2,,,58,77
25500,note_on,15,0,8,,,,,,,,,7,,,51,93
25500,note_on,0,0,4,,,,,,,,,3,,,51,77
25500,note_on,15,0,10,,,,,,,,,10,,,39,89
25500,note_on,0,0,4,,,,,,,,,3,,,63,0
25500,note_on,60,0,4,,,,,,,,,3,,,51,0
25500,note_on,0,0,3,,,,,,,,,2,,,63,73
25500,note_on,15,0,9,,,,,,,,,8,,,51,89
25515,note_on,15,0,7,,,,,,,,,6,,,58,0
25515,note_on,0,0,7,,,,,,,,,6,,,63,73
25515,note_on,15,0,10,,,,,,,,,10,,,39,0
25515,note_on,0,0,7,,,,,,,,,6,,,58,77
25515,note_on,15,0,9,,,,,,,,,8,,,51,0
25515,note_on,15,0,6,,,,,,,,,5,,,67,0
25515,note_on,15,0,8,,,,,,,,,7,,,51,0
25515,note_on,0,0,7,,,,,,,,,6,,,63,0
25530,note_on,15,0,8,,,,,,,,,7,,,51,99
25530,note_on,15,0,7,,,,,,,,,6,,,58,0
25530,note_on,0,0,7,,,,,,,,,6,,,63,70
25530,note_on,0,0,7,,,,,,,,,6,,,58,78
25530,note_on,15,0,9,,,,,,,,,8,,,51,90
25530,note_on,15,0,10,,,,,,,,,10,,,39,90
25530,note_on,0,0,7,,,,,,,,,6,,,63,0
25530,note_on,15,0,6,,,,,,,,,5,,,67,77
25545,note_on,15,0,7,,,,,,,,,6,,,58,0
25545,note_on,15,0,8,,,,,,,,,7,,,51,0
25545,note_on,0,0,7,,,,,,,,,6,,,63,0
25545,note_on,0,0,7,,,,,,,,,6,,,63,73
25545,note_on,0,0,7,,,,,,,,,6,,,58,78
25545,note_on,15,0,6,,,,,,,,,5,,,67,0
25545,note_on,15,0,10,,,,,,,,,10,,,39,0
25545,note_on,15,0,9,,,,,,,,,8,,,51,0
25560,note_on,0,0,3,,,,,,,,,2,,,56,89
25560,note_on,15,0,9,,,,,,,,,8,,,48,104
25560,note_on,0,0,3,,,,,,,,,2,,,63,86
25560,note_on,0,0,3,,,,,,,,,2,,,63,0
25560,note_on,0,0,7,,,,,,,,,6,,,56,99
25560,note_on,0,0,7,,,,,,,,,6,,,63,85
25560,note_on,0,0,7,,,,,,,,,6,,,63,0
25560,note_on,15,0,7,,,,,,,,,6,,,58,0
25560,note_on,60,0,4,,,,,,,,,3,,,51,0
25560,note_on,60,0,3,,,,,,,,,2,,,58,0
25560,note_on,15,0,6,,,,,,,,,5,,,68,104
25560,note_on,0,0,2,,,,,,,,,1,,,68,89
25560,note_on,0,0,4,,,,,,,,,3,,,63,0
25560,note_on,0,0,2,,,,,,,,,1,,,75,85
25560,note_on,0,0,2,,,,,,,,,1,,,75,0
25560,note_on,60,0,2,,,,,,,,,1,,,67,0
25560,note_on,60,0,1,,,,,,,,,0,,,79,0
25560,note_on,0,0,1,,,,,,,,,0,,,80,94
25560,note_on,15,0,8,,,,,,,,,7,,,60,104
25560,note_on,0,0,4,,,,,,,,,3,,,63,89
25560,note_on,0,0,4,,,,,,,,,3,,,51,98
25560,note_on,15,0,10,,,,,,,,,10,,,36,104
25590,note_on,0,0,10,,,,,,,,,10,,,36,84
25590,note_on,0,0,6,,,,,,,,,5,,,68,89
25590,note_on,0,0,8,,,,,,,,,7,,,60,84
25590,note_on,30,0,8,,,,,,,,,7,,,60,0
25590,note_on,30,0,6,,,,,,,,,5,,,68,0
25590,note_on,30,0,9,,,,,,,,,8,,,48,0
25590,note_on,0,0,7,,,,,,,,,6,,,63,69
25590,note_on,30,0,10,,,,,,,,,10,,,36,0
25590,note_on,0,0,9,,,,,,,,,8,,,48,84
25590,note_on,0,0,7,,,,,,,,,6,,,56,67
25590,note_on,0,0,7,,,,,,,,,6,,,63,0
25590,note_on,30,0,7,,,,,,,,,6,,,56,0
25620,note_on,30,0,8,,,,,,,,,7,,,60,0
25620,note_on,0,0,8,,,,,,,,,7,,,60,90
25620,note_on,30,0,6,,,,,,,,,5,,,68,0
25620,note_on,0,0,6,,,,,,,,,5,,,68,84
25620,note_on,0,0,7,,,,,,,,,6,,,63,69
25620,note_on,30,0,10,,,,,,,,,10,,,36,0
25620,note_on,0,0,10,,,,,,,,,10,,,36,90
25620,note_on,0,0,9,,,,,,,,,8,,,48,90
25620,note_on,30,0,7,,,,,,,,,6,,,56,0
25620,note_on,0,0,7,,,,,,,,,6,,,63,0
25620,note_on,0,0,7,,,,,,,,,6,,,56,68
25620,note_on,30,0,9,,,,,,,,,8,,,48,0
25650,note_on,30,0,10,,,,,,,,,10,,,36,0
25650,note_on,0,0,10,,,,,,,,,10,,,36,94
25650,note_on,0,0,9,,,,,,,,,8,,,48,94
25650,note_on,0,0,7,,,,,,,,,6,,,63,71
25650,note_on,30,0,9,,,,,,,,,8,,,48,0
25650,note_on,0,0,7,,,,,,,,,6,,,56,80
25650,note_on,0,0,8,,,,,,,,,7,,,60,94
25650,note_on,30,0,8,,,,,,,,,7,,,60,0
25650,note_on,0,0,6,,,,,,,,,5,,,68,86
25650,note_on,30,0,6,,,,,,,,,5,,,68,0
25650,note_on,0,0,7,,,,,,,,,6,,,63,0
25650,note_on,30,0,7,,,,,,,,,6,,,56,0
25680,note_on,0,0,6,,,,,,,,,5,,,63,99
25680,note_on,0,0,4,,,,,,,,,3,,,63,0
25680,note_on,120,0,4,,,,,,,,,3,,,51,0
25680,note_on,0,0,8,,,,,,,,,7,,,59,110
25680,note_on,0,0,7,,,,,,,,,6,,,57,112
25680,note_on,30,0,8,,,,,,,,,7,,,60,0
25680,note_on,120,0,2,,,,,,,,,1,,,68,0
25680,note_on,0,0,2,,,,,,,,,1,,,75,0
25680,note_on,0,0,2,,,,,,,,,1,,,78,66
25680,note_on,0,0,2,,,,,,,,,1,,,75,86
25680,note_on,0,0,6,,,,,,,,,5,,,69,104
25680,note_on,30,0,6,,,,,,,,,5,,,68,0
25680,note_on,0,0,4,,,,,,,,,3,,,51,98
25680,note_on,0,0,4,,,,,,,,,3,,,63,89
25680,note_on,30,0,9,,,,,,,,,8,,,48,0
25680,note_on,0,0,10,,,,,,,,,10,,,35,110
25680,note_on,30,0,10,,,,,,,,,10,,,36,0
25680,note_on,120,0,1,,,,,,,,,0,,,80,0
25680,note_on,0,0,3,,,,,,,,,2,,,51,99
25680,note_on,0,0,3,,,,,,,,,2,,,54,74
25680,note_on,0,0,3,,,,,,,,,2,,,63,0
25680,note_on,120,0,3,,,,,,,,,2,,,56,0
25680,note_on,30,0,7,,,,,,,,,6,,,56,0
25680,note_on,0,0,7,,,,,,,,,6,,,63,0
25680,note_on,0,0,7,,,,,,,,,6,,,66,89
25680,note_on,0,0,1,,,,,,,,,0,,,81,95
25680,note_on,0,0,9,,,,,,,,,8,,,47,110
25710,note_on,0,0,8,,,,,,,,,7,,,59,95
25710,note_on,30,0,8,,,,,,,,,7,,,59,0
25710,note_on,30,0,7,,,,,,,,,6,,,57,0
25710,note_on,0,0,9,,,,,,,,,8,,,47,95
25710,note_on,0,0,6,,,,,,,,,5,,,63,77
25710,note_on,0,0,6,,,,,,,,,5,,,69,80
25710,note_on,0,0,7,,,,,,,,,6,,,57,98
25710,note_on,0,0,7,,,,,,,,,6,,,66,69
25710,note_on,0,0,6,,,,,,,,,5,,,69,0
25710,note_on,0,0,7,,,,,,,,,6,,,66,0
25710,note_on,0,0,10,,,,,,,,,10,,,35,95
25710,note_on,30,0,10,,,,,,,,,10,,,35,0
25710,note_on,30,0,9,,,,,,,,,8,,,47,0
25710,note_on,30,0,6,,,,,,,,,5,,,63,0
25740,note_on,0,0,7,,,,,,,,,6,,,66,65
25740,note_on,30,0,9,,,,,,,,,8,,,47,0
25740,note_on,0,0,6,,,,,,,,,5,,,63,76
25740,note_on,0,0,6,,,,,,,,,5,,,69,80
25740,note_on,0,0,7,,,,,,,,,6,,,57,98
25740,note_on,30,0,6,,,,,,,,,5,,,63,0
25740,note_on,0,0,9,,,,,,,,,8,,,47,94
25740,note_on,0,0,6,,,,,,,,,5,,,69,0
25740,note_on,30,0,10,,,,,,,,,10,,,35,0
25740,note_on,0,0,10,,,,,,,,,10,,,35,94
25740,note_on,30,0,7,,,,,,,,,6,,,57,0
25740,note_on,0,0,7,,,,,,,,,6,,,66,0
25740,note_on,30,0,8,,,,,,,,,7,,,59,0
25740,note_on,0,0,8,,,,,,,,,7,,,59,94
25770,note_on,30,0,6,,,,,,,,,5,,,63,0
25770,note_on,0,0,6,,,,,,,,,5,,,69,0
25770,note_on,0,0,6,,,,,,,,,5,,,69,76
25770,note_on,0,0,6,,,,,,,,,5,,,63,73
25770,note_on,0,0,7,,,,,,,,,6,,,66,0
25770,note_on,0,0,8,,,,,,,,,7,,,59,93
25770,note_on,30,0,8,,,,,,,,,7,,,59,0
25770,note_on,0,0,10,,,,,,,,,10,,,35,93
25770,note_on,0,0,7,,,,,,,,,6,,,66,52
25770,note_on,0,0,7,,,,,,,,,6,,,57,85
25770,note_on,30,0,10,,,,,,,,,10,,,35,0
25770,note_on,0,0,9,,,,,,,,,8,,,47,93
25770,note_on,30,0,9,,,,,,,,,8,,,47,0
25770,note_on,30,0,7,,,,,,,,,6,,,57,0
25800,note_on,0,0,7,,,,,,,,,6,,,66,0
25800,note_on,0,0,7,,,,,,,,,6,,,66,64
25800,note_on,0,0,9,,,,,,,,,8,,,47,93
25800,note_on,30,0,9,,,,,,,,,8,,,47,0
25800,note_on,0,0,6,,,,,,,,,5,,,69,0
25800,note_on,30,0,7,,,,,,,,,6,,,57,0
25800,note_on,0,0,7,,,,,,,,,6,,,57,94
25800,note_on,0,0,6,,,,,,,,,5,,,69,68
25800,note_on,0,0,6,,,,,,,,,5,,,63,68
25800,note_on,30,0,6,,,,,,,,,5,,,63,0
25800,note_on,0,0,8,,,,,,,,,7,,,59,93
25800,note_on,30,0,10,,,,,,,,,10,,,35,0
25800,note_on,0,0,10,,,,,,,,,10,,,35,93
25800,note_on,30,0,8,,,,,,,,,7,,,59,0
25830,note_on,0,0,7,,,,,,,,,6,,,66,62
25830,note_on,0,0,7,,,,,,,,,6,,,57,94
25830,note_on,30,0,9,,,,,,,,,8,,,47,0
25830,note_on,0,0,9,,,,,,,,,8,,,47,93
25830,note_on,30,0,7,,,,,,,,,6,,,57,0
25830,note_on,30,0,6,,,,,,,,,5,,,63,0
25830,note_on,0,0,7,,,,,,,,,6,,,66,0
25830,note_on,0,0,6,,,,,,,,,5,,,63,73
25830,note_on,30,0,8,,,,,,,,,7,,,59,0
25830,note_on,0,0,8,,,,,,,,,7,,,59,93
25830,note_on,0,0,6,,,,,,,,,5,,,69,0
25830,note_on,30,0,10,,,,,,,,,10,,,35,0
25830,note_on,0,0,10,,,,,,,,,10,,,35,93
25830,note_on,0,0,6,,,,,,,,,5,,,69,73
25860,note_on,30,0,10,,,,,,,,,10,,,35,0
25860,note_on,30,0,6,,,,,,,,,5,,,63,0
25860,note_on,0,0,6,,,,,,,,,5,,,69,0
25860,note_on,30,0,8,,,,,,,,,7,,,59,0
25860,note_on,0,0,8,,,,,,,,,7,,,59,89
25860,note_on,0,0,10,,,,,,,,,10,,,35,89
25860,note_on,30,0,9,,,,,,,,,8,,,47,0
25860,note_on,0,0,6,,,,,,,,,5,,,63,69
25860,note_on,0,0,6,,,,,,,,,5,,,69,71
25860,note_on,0,0,7,,,,,,,,,6,,,66,45
25860,note_on,0,0,9,,,,,,,,,8,,,47,89
25860,note_on,0,0,7,,,,,,,,,6,,,57,90
25860,note_on,0,0,7,,,,,,,,,6,,,66,0
25860,note_on,30,0,7,,,,,,,,,6,,,57,0
25890,note_on,30,0,10,,,,,,,,,10,,,35,0
25890,note_on,0,0,10,,,,,,,,,10,,,35,94
25890,note_on,30,0,8,,,,,,,,,7,,,59,0
25890,note_on,0,0,8,,,,,,,,,7,,,59,94
25890,note_on,0,0,6,,,,,,,,,5,,,69,77
25890,note_on,0,0,7,,,,,,,,,6,,,66,54
25890,note_on,0,0,7,,,,,,,,,6,,,66,0
25890,note_on,0,0,6,,,,,,,,,5,,,69,0
25890,note_on,0,0,9,,,,,,,,,8,,,47,94
25890,note_on,30,0,9,,,,,,,,,8,,,47,0
25890,note_on,0,0,6,,,,,,,,,5,,,63,80
25890,note_on,30,0,6,,,,,,,,,5,,,63,0
25890,note_on,30,0,7,,,,,,,,,6,,,57,0
25890,note_on,0,0,7,,,,,,,,,6,,,57,94
25920,note_on,30,0,7,,,,,,,,,6,,,57,0
25920,note_on,0,0,7,,,,,,,,,6,,,66,0
25920,note_on,0,0,7,,,,,,,,,6,,,66,90
25920,note_on,0,0,6,,,,,,,,,5,,,69,0
25920,note_on,0,0,7,,,,,,,,,6,,,58,99
25920,note_on,30,0,6,,,,,,,,,5,,,63,0
25920,note_on,0,0,6,,,,,,,,,5,,,63,105
25920,note_on,0,0,6,,,,,,,,,5,,,70,101
25920,note_on,0,0,4,,,,,,,,,3,,,63,89
25920,note_on,0,0,3,,,,,,,,,2,,,54,77
25920,note_on,0,0,1,,,,,,,,,0,,,82,84
25920,note_on,240,0,1,,,,,,,,,0,,,81,0
25920,note_on,240,0,3,,,,,,,,,2,,,51,0
25920,note_on,0,0,3,,,,,,,,,2,,,54,0
25920,note_on,240,0,2,,,,,,,,,1,,,75,0
25920,note_on,0,0,2,,,,,,,,,1,,,78,0
25920,note_on,0,0,2,,,,,,,,,1,,,78,60
25920,note_on,30,0,9,,,,,,,,,8,,,47,0
25920,note_on,240,0,4,,,,,,,,,3,,,51,0
25920,note_on,0,0,3,,,,,,,,,2,,,51,98
25920,note_on,0,0,2,,,,,,,,,1,,,75,93
25920,note_on,0,0,4,,,,,,,,,3,,,51,99
25920,note_on,0,0,8,,,,,,,,,7,,,58,99
25920,note_on,30,0,8,,,,,,,,,7,,,59,0
25920,note_on,30,0,10,,,,,,,,,10,,,35,0
25920,note_on,0,0,10,,,,,,,,,10,,,34,99
25920,note_on,0,0,4,,,,,,,,,3,,,63,0
25920,note_on,0,0,9,,,,,,,,,8,,,46,99
25950,note_on,30,0,7,,,,,,,,,6,,,58,0
25950,note_on,0,0,7,,,,,,,,,6,,,66,0
25950,note_on,0,0,9,,,,,,,,,8,,,46,86
25950,note_on,30,0,9,,,,,,,,,8,,,46,0
25950,note_on,30,0,10,,,,,,,,,10,,,34,0
25950,note_on,0,0,6,,,,,,,,,5,,,63,67
25950,note_on,0,0,6,,,,,,,,,5,,,70,68
25950,note_on,0,0,6,,,,,,,,,5,,,70,0
25950,note_on,30,0,6,,,,,,,,,5,,,63,0
25950,note_on,0,0,7,,,,,,,,,6,,,66,72
25950,note_on,0,0,8,,,,,,,,,7,,,58,86
25950,note_on,30,0,8,,,,,,,,,7,,,58,0
25950,note_on,0,0,10,,,,,,,,,10,,,34,86
25950,note_on,0,0,7,,,,,,,,,6,,,58,81
25980,note_on,30,0,9,,,,,,,,,8,,,46,0
25980,note_on,30,0,10,,,,,,,,,10,,,34,0
25980,note_on,0,0,9,,,,,,,,,8,,,46,81
25980,note_on,0,0,8,,,,,,,,,7,,,58,81
25980,note_on,0,0,10,,,,,,,,,10,,,34,81
25980,note_on,30,0,8,,,,,,,,,7,,,58,0
25980,note_on,30,0,6,,,,,,,,,5,,,63,0
25980,note_on,30,0,7,,,,,,,,,6,,,58,0
25980,note_on,0,0,7,,,,,,,,,6,,,58,70
25980,note_on,0,0,7,,,,,,,,,6,,,66,0
25980,note_on,0,0,6,,,,,,,,,5,,,70,0
25980,note_on,0,0,7,,,,,,,,,6,,,66,65
25980,note_on,0,0,6,,,,,,,,,5,,,63,57
25980,note_on,0,0,6,,,,,,,,,5,,,70,70
26010,note_on,0,0,6,,,,,,,,,5,,,70,72
26010,note_on,0,0,8,,,,,,,,,7,,,58,84
26010,note_on,30,0,8,,,,,,,,,7,,,58,0
26010,note_on,0,0,7,,,,,,,,,6,,,58,81
26010,note_on,0,0,7,,,,,,,,,6,,,66,72
26010,note_on,0,0,7,,,,,,,,,6,,,66,0
26010,note_on,30,0,7,,,,,,,,,6,,,58,0
26010,note_on,0,0,10,,,,,,,,,10,,,34,84
26010,note_on,30,0,9,,,,,,,,,8,,,46,0
26010,note_on,30,0,6,,,,,,,,,5,,,63,0
26010,note_on,0,0,6,,,,,,,,,5,,,63,65
26010,note_on,0,0,9,,,,,,,,,8,,,46,84
26010,note_on,0,0,6,,,,,,,,,5,,,70,0
26010,note_on,30,0,10,,,,,,,,,10,,,34,0
26040,note_on,0,0,7,,,,,,,,,6,,,66,0
26040,note_on,30,0,7,,,,,,,,,6,,,58,0
26040,note_on,0,0,4,,,,,,,,,3,,,63,89
26040,note_on,0,0,8,,,,,,,,,7,,,57,105
26040,note_on,0,0,2,,,,,,,,,1,,,75,93
26040,note_on,0,0,9,,,,,,,,,8,,,45,105
26040,note_on,30,0,9,,,,,,,,,8,,,46,0
26040,note_on,30,0,8,,,,,,,,,7,,,58,0
26040,note_on,0,0,2,,,,,,,,,1,,,78,64
26040,note_on,0,0,4,,,,,,,,,3,,,51,98
26040,note_on,120,0,2,,,,,,,,,1,,,75,0
26040,note_on,0,0,4,,,,,,,,,3,,,63,0
26040,note_on,30,0,6,,,,,,,,,5,,,63,0
26040,note_on,0,0,6,,,,,,,,,5,,,70,0
26040,note_on,0,0,6,,,,,,,,,5,,,72,90
26040,note_on,0,0,6,,,,,,,,,5,,,63,99
26040,note_on,120,0,4,,,,,,,,,3,,,51,0
26040,note_on,0,0,3,,,,,,,,,2,,,51,99
26040,note_on,0,0,3,,,,,,,,,2,,,54,77
26040,note_on,0,0,3,,,,,,,,,2,,,54,0
26040,note_on,120,0,3,,,,,,,,,2,,,51,0
26040,note_on,0,0,10,,,,,,,,,10,,,33,105
26040,note_on,30,0,10,,,,,,,,,10,,,34,0
26040,note_on,0,0,7,,,,,,,,,6,,,57,115
26040,note_on,120,0,1,,,,,,,,,0,,,82,0
26040,note_on,0,0,1,,,,,,,,,0,,,84,81
26040,note_on,0,0,2,,,,,,,,,1,,,78,0
26040,note_on,0,0,7,,,,,,,,,6,,,66,89
26070,note_on,0,0,7,,,,,,,,,6,,,57,99
26070,note_on,0,0,7,,,,,,,,,6,,,66,73
26070,note_on,0,0,7,,,,,,,,,6,,,66,0
26070,note_on,30,0,7,,,,,,,,,6,,,57,0
26070,note_on,0,0,6,,,,,,,,,5,,,72,52
26070,note_on,0,0,9,,,,,,,,,8,,,45,93
26070,note_on,0,0,6,,,,,,,,,5,,,72,0
26070,note_on,30,0,6,,,,,,,,,5,,,63,0
26070,note_on,0,0,8,,,,,,,,,7,,,57,93
26070,note_on,30,0,8,,,,,,,,,7,,,57,0
26070,note_on,30,0,9,,,,,,,,,8,,,45,0
26070,note_on,0,0,6,,,,,,,,,5,,,63,77
26070,note_on,30,0,10,,,,,,,,,10,,,33,0
26070,note_on,0,0,10,,,,,,,,,10,,,33,93
26100,note_on,0,0,10,,,,,,,,,10,,,33,86
26100,note_on,30,0,10,,,,,,,,,10,,,33,0
26100,note_on,0,0,6,,,,,,,,,5,,,63,73
26100,note_on,0,0,7,,,,,,,,,6,,,57,94
26100,note_on,0,0,7,,,,,,,,,6,,,66,0
26100,note_on,0,0,7,,,,,,,,,6,,,66,68
26100,note_on,30,0,6,,,,,,,,,5,,,63,0
26100,note_on,30,0,9,,,,,,,,,8,,,45,0
26100,note_on,0,0,9,,,,,,,,,8,,,45,86
26100,note_on,30,0,8,,,,,,,,,7,,,57,0
26100,note_on,30,0,7,,,,,,,,,6,,,57,0
26100,note_on,0,0,8,,,,,,,,,7,,,57,86
26100,note_on,0,0,6,,,,,,,,,5,,,72,43
26100,note_on,0,0,6,,,,,,,,,5,,,72,0
26130,note_on,0,0,7,,,,,,,,,6,,,57,95
26130,note_on,0,0,9,,,,,,,,,8,,,45,90
26130,note_on,30,0,6,,,,,,,,,5,,,63,0
26130,note_on,0,0,7,,,,,,,,,6,,,66,0
26130,note_on,0,0,6,,,,,,,,,5,,,72,62
26130,note_on,30,0,9,,,,,,,,,8,,,45,0
26130,note_on,30,0,7,,,,,,,,,6,,,57,0
26130,note_on,30,0,10,,,,,,,,,10,,,33,0
26130,note_on,0,0,10,,,,,,,,,10,,,33,90
26130,note_on,0,0,7,,,,,,,,,6,,,66,68
26130,note_on,0,0,6,,,,,,,,,5,,,72,0
26130,note_on,0,0,6,,,,,,,,,5,,,63,76
26130,note_on,0,0,8,,,,,,,,,7,,,57,90
26130,note_on,30,0,8,,,,,,,,,7,,,57,0
26160,note_on,0,0,3,,,,,,,,,2,,,51,99
26160,note_on,0,0,4,,,,,,,,,3,,,63,0
26160,note_on,0,0,8,,,,,,,,,7,,,60,105
26160,note_on,30,0,8,,,,,,,,,7,,,57,0
26160,note_on,30,0,10,,,,,,,,,10,,,33,0
26160,note_on,0,0,10,,,,,,,,,10,,,36,105
26160,note_on,120,0,4,,,,,,,,,3,,,51,0
26160,note_on,0,0,3,,,,,,,,,2,,,54,0
26160,note_on,30,0,9,,,,,,,,,8,,,45,0
26160,note_on,0,0,3,,,,,,,,,2,,,54,77
26160,note_on,0,0,4,,,,,,,,,3,,,51,104
26160,note_on,0,0,9,,,,,,,,,8,,,48,105
26160,note_on,30,0,7,,,,,,,,,6,,,57,0
26160,note_on,120,0,3,,,,,,,,,2,,,51,0
26160,note_on,0,0,4,,,,,,,,,3,,,63,94
26160,note_on,0,0,7,,,,,,,,,6,,,66,90
26160,note_on,30,0,6,,,,,,,,,5,,,63,0
26160,note_on,0,0,6,,,,,,,,,5,,,72,0
26160,note_on,0,0,6,,,,,,,,,5,,,69,99
26160,note_on,0,0,6,,,,,,,,,5,,,63,99
26160,note_on,0,0,2,,,,,,,,,1,,,75,99
26160,note_on,0,0,7,,,,,,,,,6,,,66,0
26160,note_on,0,0,2,,,,,,,,,1,,,78,69
26160,note_on,120,0,2,,,,,,,,,1,,,75,0
26160,note_on,0,0,1,,,,,,,,,0,,,81,95
26160,note_on,120,0,1,,,,,,,,,0,,,84,0
26160,note_on,0,0,7,,,,,,,,,6,,,57,115
26160,note_on,0,0,2,,,,,,,,,1,,,78,0
26190,note_on,30,0,7,,,,,,,,,6,,,57,0
26190,note_on,0,0,7,,,,,,,,,6,,,66,0
26190,note_on,0,0,8,,,,,,,,,7,,,60,94
26190,note_on,30,0,10,,,,,,,,,10,,,36,0
26190,note_on,0,0,7,,,,,,,,,6,,,57,99
26190,note_on,0,0,7,,,,,,,,,6,,,66,73
26190,note_on,0,0,10,,,,,,,,,10,,,36,94
26190,note_on,30,0,9,,,,,,,,,8,,,48,0
26190,note_on,0,0,9,,,,,,,,,8,,,48,94
26190,note_on,0,0,6,,,,,,,,,5,,,63,77
26190,note_on,0,0,6,,,,,,,,,5,,,69,80
26190,note_on,0,0,6,,,,,,,,,5,,,69,0
26190,note_on,30,0,6,,,,,,,,,5,,,63,0
26190,note_on,30,0,8,,,,,,,,,7,,,60,0
26220,note_on,0,0,7,,,,,,,,,6,,,57,95
26220,note_on,0,0,7,,,,,,,,,6,,,66,69
26220,note_on,30,0,7,,,,,,,,,6,,,57,0
26220,note_on,30,0,8,,,,,,,,,7,,,60,0
26220,note_on,0,0,8,,,,,,,,,7,,,60,94
26220,note_on,30,0,9,,,,,,,,,8,,,48,0
26220,note_on,0,0,7,,,,,,,,,6,,,66,0
26220,note_on,0,0,9,,,,,,,,,8,,,48,94
26220,note_on,30,0,6,,,,,,,,,5,,,63,0
26220,note_on,0,0,6,,,,,,,,,5,,,69,0
26220,note_on,0,0,6,,,,,,,,,5,,,69,73
26220,note_on,0,0,6,,,,,,,,,5,,,63,76
26220,note_on,30,0,10,,,,,,,,,10,,,36,0
26220,note_on,0,0,10,,,,,,,,,10,,,36,94
26250,note_on,30,0,8,,,,,,,,,7,,,60,0
26250,note_on,0,0,9,,,,,,,,,8,,,48,94
26250,note_on,0,0,10,,,,,,,,,10,,,36,94
26250,note_on,30,0,10,,,,,,,,,10,,,36,0
26250,note_on,30,0,7,,,,,,,,,6,,,57,0
26250,note_on,0,0,7,,,,,,,,,6,,,66,0
26250,note_on,0,0,7,,,,,,,,,6,,,66,69
26250,note_on,0,0,7,,,,,,,,,6,,,57,98
26250,note_on,30,0,6,,,,,,,,,5,,,63,0
26250,note_on,0,0,6,,,,,,,,,5,,,69,0
26250,note_on,0,0,6,,,,,,,,,5,,,69,74
26250,note_on,0,0,6,,,,,,,,,5,,,63,76
26250,note_on,30,0,9,,,,,,,,,8,,,48,0
26250,note_on,0,0,8,,,,,,,,,7,,,60,94
26280,note_on,120,0,4,,,,,,,,,3,,,51,0
26280,note_on,0,0,4,,,,,,,,,3,,,51,101
26280,note_on,0,0,8,,,,,,,,,7,,,58,95
26280,note_on,30,0,8,,,,,,,,,7,,,60,0
26280,control_change,1680,0,5,,,,,,,,,4,64,80,,
26280,note_on,0,0,4,,,,,,,,,3,,,63,0
26280,note_on,0,0,9,,,,,,,,,8,,,46,95
26280,note_on,0,0,1,,,,,,,,,0,,,82,89
26280,note_on,120,0,1,,,,,,,,,0,,,81,0
26280,note_on,0,0,6,,,,,,,,,5,,,63,95
26280,note_on,0,0,6,,,,,,,,,5,,,70,82
26280,note_on,0,0,6,,,,,,,,,5,,,69,0
26280,note_on,30,0,6,,,,,,,,,5,,,63,0
26280,note_on,30,0,10,,,,,,,,,10,,,36,0
26280,note_on,0,0,10,,,,,,,,,10,,,34,95
26280,note_on,30,0,9,,,,,,,,,8,,,48,0
26280,note_on,120,0,2,,,,,,,,,1,,,75,0
26280,note_on,0,0,2,,,,,,,,,1,,,78,0
26280,note_on,120,0,3,,,,,,,,,2,,,51,0
26280,note_on,0,0,2,,,,,,,,,1,,,75,77
26280,note_on,0,0,3,,,,,,,,,2,,,54,0
26280,note_on,0,0,3,,,,,,,,,2,,,55,94
26280,note_on,0,0,3,,,,,,,,,2,,,51,89
26280,note_on,0,0,7,,,,,,,,,6,,,58,94
26280,note_on,0,0,7,,,,,,,,,6,,,67,86
26280,note_on,0,0,7,,,,,,,,,6,,,66,0
26280,note_on,0,0,2,,,,,,,,,1,,,79,67
26280,note_on,30,0,7,,,,,,,,,6,,,57,0
26280,note_on,0,0,4,,,,,,,,,3,,,63,93
26505,note_on,225,0,5,,,,,,,,,4,,,67,82
26520,note_on,15,0,5,,,,,,,,,4,,,67,0
26520,note_on,240,0,8,,,,,,,,,7,,,58,0
26520,note_on,240,0,6,,,,,,,,,5,,,63,0
26520,note_on,240,0,4,,,,,,,,,3,,,51,0
26520,note_on,0,0,4,,,,,,,,,3,,,63,0
26520,note_on,240,0,10,,,,,,,,,10,,,34,0
26520,note_on,0,0,6,,,,,,,,,5,,,70,0
26520,note_on,0,0,5,,,,,,,,,4,,,75,76
26520,note_on,0,0,3,,,,,,,,,2,,,55,0
26520,note_on,240,0,9,,,,,,,,,8,,,46,0
26520,note_on,240,0,7,,,,,,,,,6,,,58,0
26520,note_on,0,0,7,,,,,,,,,6,,,67,0
26520,note_on,0,0,2,,,,,,,,,1,,,79,0
26520,note_on,240,0,2,,,,,,,,,1,,,75,0
26520,note_on,240,0,1,,,,,,,,,0,,,82,0
26520,note_on,240,0,3,,,,,,,,,2,,,51,0
26610,note_on,90,0,5,,,,,,,,,4,,,75,0
26625,note_on,15,0,5,,,,,,,,,4,,,70,76
26640,note_on,0,0,5,,,,,,,,,4,,,79,71
26640,note_on,15,0,5,,,,,,,,,4,,,70,0
26820,note_on,180,0,5,,,,,,,,,4,,,79,0
26865,note_on,45,0,5,,,,,,,,,4,,,70,85
26880,note_on,0,0,5,,,,,,,,,4,,,79,71
26880,note_on,15,0,5,,,,,,,,,4,,,70,0
26970,note_on,90,0,5,,,,,,,,,4,,,79,0
26985,note_on,15,0,5,,,,,,,,,4,,,75,89
27000,note_on,0,0,5,,,,,,,,,4,,,82,80
27000,note_on,15,0,5,,,,,,,,,4,,,75,0
27180,note_on,180,0,5,,,,,,,,,4,,,82,0
27225,note_on,45,0,5,,,,,,,,,4,,,82,74
27240,note_on,0,0,5,,,,,,,,,4,,,82,73
27240,note_on,15,0,5,,,,,,,,,4,,,82,0
27270,note_on,0,0,5,,,,,,,,,4,,,79,80
27270,note_on,30,0,5,,,,,,,,,4,,,82,0
27300,note_on,30,0,5,,,,,,,,,4,,,79,0
27330,note_on,30,0,5,,,,,,,,,4,,,79,69
27360,note_on,30,0,5,,,,,,,,,4,,,79,0
27360,note_on,0,0,5,,,,,,,,,4,,,79,73
27390,note_on,30,0,5,,,,,,,,,4,,,79,0
27390,note_on,0,0,5,,,,,,,,,4,,,75,86
27420,note_on,30,0,5,,,,,,,,,4,,,75,0
27450,note_on,30,0,5,,,,,,,,,4,,,75,89
27480,note_on,30,0,5,,,,,,,,,4,,,75,0
27480,note_on,0,0,5,,,,,,,,,4,,,75,86
27510,note_on,0,0,5,,,,,,,,,4,,,70,86
27510,note_on,30,0,5,,,,,,,,,4,,,75,0
27540,note_on,30,0,5,,,,,,,,,4,,,70,0
27570,note_on,30,0,5,,,,,,,,,4,,,70,89
27600,note_on,0,0,5,,,,,,,,,4,,,70,90
27600,note_on,30,0,5,,,,,,,,,4,,,70,0
27630,note_on,0,0,5,,,,,,,,,4,,,68,89
27630,note_on,30,0,5,,,,,,,,,4,,,70,0
27660,note_on,30,0,5,,,,,,,,,4,,,68,0
27690,note_on,30,0,5,,,,,,,,,4,,,68,93
27720,note_on,0,0,5,,,,,,,,,4,,,67,80
27720,note_on,30,0,5,,,,,,,,,4,,,68,0
27720,note_on,0,0,7,,,,,,,,,6,,,55,58
27720,note_on,1200,0,8,,,,,,,,,7,,,58,39
27720,note_on,1200,0,7,,,,,,,,,6,,,63,38
27720,note_on,1200,0,6,,,,,,,,,5,,,67,53
27720,note_on,1200,0,9,,,,,,,,,8,,,51,43
27720,note_on,1200,0,10,,,,,,,,,10,,,39,43
27810,note_on,90,0,6,,,,,,,,,5,,,67,0
27840,note_on,120,0,5,,,,,,,,,4,,,67,0
27840,note_on,30,0,6,,,,,,,,,5,,,67,52
27930,note_on,90,0,6,,,,,,,,,5,,,67,0
27960,note_on,0,0,7,,,,,,,,,6,,,63,0
27960,note_on,0,0,8,,,,,,,,,7,,,60,50
27960,note_on,0,0,9,,,,,,,,,8,,,44,43
27960,note_on,240,0,7,,,,,,,,,6,,,55,0
27960,note_on,240,0,8,,,,,,,,,7,,,58,0
27960,note_on,0,0,7,,,,,,,,,6,,,65,38
27960,note_on,0,0,7,,,,,,,,,6,,,56,32
27960,note_on,240,0,9,,,,,,,,,8,,,51,0
27960,note_on,0,0,10,,,,,,,,,10,,,32,43
27960,note_on,240,0,10,,,,,,,,,10,,,39,0
27960,note_on,30,0,6,,,,,,,,,5,,,68,67
28050,note_on,90,0,6,,,,,,,,,5,,,68,0
28065,note_on,15,0,6,,,,,,,,,5,,,72,64
28080,note_on,120,0,10,,,,,,,,,10,,,32,0
28080,note_on,0,0,10,,,,,,,,,10,,,34,53
28080,note_on,120,0,9,,,,,,,,,8,,,44,0
28080,note_on,0,0,7,,,,,,,,,6,,,65,0
28080,note_on,120,0,7,,,,,,,,,6,,,56,0
28080,note_on,0,0,8,,,,,,,,,7,,,58,51
28080,note_on,0,0,7,,,,,,,,,6,,,62,39
28080,note_on,120,0,8,,,,,,,,,7,,,60,0
28080,note_on,0,0,9,,,,,,,,,8,,,46,53
28080,note_on,0,0,6,,,,,,,,,5,,,65,43
28080,note_on,15,0,6,,,,,,,,,5,,,72,0
28200,note_on,120,0,10,,,,,,,,,10,,,34,0
28200,note_on,120,0,7,,,,,,,,,6,,,62,0
28200,note_on,120,0,6,,,,,,,,,5,,,65,0
28200,note_on,120,0,8,,,,,,,,,7,,,58,0
28200,note_on,120,0,9,,,,,,,,,8,,,46,0
28305,note_on,465,0,5,,,,,,,,,4,,,89,78
28320,note_on,0,0,5,,,,,,,,,4,,,89,76
28320,note_on,15,0,5,,,,,,,,,4,,,89,0
28350,note_on,0,0,5,,,,,,,,,4,,,86,94
28350,note_on,30,0,5,,,,,,,,,4,,,89,0
28380,note_on,30,0,5,,,,,,,,,4,,,86,0
28410,note_on,30,0,5,,,,,,,,,4,,,86,73
28440,note_on,0,0,5,,,,,,,,,4,,,86,81
28440,note_on,30,0,5,,,,,,,,,4,,,86,0
28470,note_on,0,0,5,,,,,,,,,4,,,80,80
28470,note_on,30,0,5,,,,,,,,,4,,,86,0
28500,note_on,30,0,5,,,,,,,,,4,,,80,0
28530,note_on,30,0,5,,,,,,,,,4,,,80,81
28560,note_on,0,0,5,,,,,,,,,4,,,80,84
28560,note_on,30,0,5,,,,,,,,,4,,,80,0
28590,note_on,30,0,5,,,,,,,,,4,,,80,0
28590,note_on,0,0,5,,,,,,,,,4,,,77,82
28620,note_on,30,0,5,,,,,,,,,4,,,77,0
28650,note_on,30,0,5,,,,,,,,,4,,,77,89
28680,note_on,0,0,5,,,,,,,,,4,,,76,86
28680,note_on,30,0,5,,,,,,,,,4,,,77,0
28695,note_on,15,0,5,,,,,,,,,4,,,76,0
28695,note_on,0,0,5,,,,,,,,,4,,,77,89
28710,note_on,15,0,5,,,,,,,,,4,,,77,0
28710,note_on,0,0,5,,,,,,,,,4,,,79,76
28718,note_on,8,0,5,,,,,,,,,4,,,79,0
28725,note_on,7,0,5,,,,,,,,,4,,,77,89
28733,note_on,8,0,5,,,,,,,,,4,,,77,0
28740,note_on,7,0,5,,,,,,,,,4,,,75,86
28748,note_on,8,0,5,,,,,,,,,4,,,75,0
28755,note_on,7,0,5,,,,,,,,,4,,,74,94
28763,note_on,8,0,5,,,,,,,,,4,,,74,0
28770,note_on,7,0,5,,,,,,,,,4,,,72,76
28778,note_on,8,0,5,,,,,,,,,4,,,72,0
28785,note_on,7,0,5,,,,,,,,,4,,,70,84
28793,note_on,8,0,5,,,,,,,,,4,,,70,0
28800,note_on,7,0,5,,,,,,,,,4,,,68,89
28800,note_on,600,0,6,,,,,,,,,5,,,68,53
28800,note_on,600,0,10,,,,,,,,,10,,,34,54
28800,note_on,600,0,9,,,,,,,,,8,,,46,54
28800,note_on,600,0,8,,,,,,,,,7,,,58,45
28800,note_on,600,0,7,,,,,,,,,6,,,62,43
28890,note_on,90,0,8,,,,,,,,,7,,,58,0
28890,note_on,90,0,10,,,,,,,,,10,,,34,0
28890,note_on,90,0,7,,,,,,,,,6,,,62,0
28890,note_on,90,0,6,,,,,,,,,5,,,68,0
28890,note_on,90,0,9,,,,,,,,,8,,,46,0
28920,note_on,30,0,8,,,,,,,,,7,,,58,43
28920,note_on,30,0,6,,,,,,,,,5,,,68,62
28920,note_on,120,0,5,,,,,,,,,4,,,68,0
28920,note_on,30,0,7,,,,,,,,,6,,,65,46
28920,note_on,30,0,9,,,,,,,,,8,,,50,42
28920,note_on,30,0,10,,,,,,,,,10,,,38,42
29010,note_on,90,0,7,,,,,,,,,6,,,65,0
29010,note_on,90,0,10,,,,,,,,,10,,,38,0
29010,note_on,90,0,9,,,,,,,,,8,,,50,0
29010,note_on,90,0,8,,,,,,,,,7,,,58,0
29010,note_on,90,0,6,,,,,,,,,5,,,68,0
29040,note_on,30,0,8,,,,,,,,,7,,,58,43
29040,note_on,30,0,10,,,,,,,,,10,,,34,52
29040,note_on,30,0,7,,,,,,,,,6,,,62,45
29040,note_on,30,0,9,,,,,,,,,8,,,46,52
29040,note_on,30,0,6,,,,,,,,,5,,,68,45
29130,note_on,90,0,7,,,,,,,,,6,,,62,0
29130,note_on,90,0,6,,,,,,,,,5,,,68,0
29130,note_on,0,0,6,,,,,,,,,5,,,70,45
29130,note_on,90,0,9,,,,,,,,,8,,,46,0
29130,note_on,90,0,10,,,,,,,,,10,,,34,0
29130,note_on,90,0,8,,,,,,,,,7,,,58,0
29160,note_on,30,0,8,,,,,,,,,7,,,58,35
29160,note_on,30,0,7,,,,,,,,,6,,,63,48
29160,note_on,30,0,9,,,,,,,,,8,,,51,43
29160,note_on,30,0,10,,,,,,,,,10,,,39,43
29160,note_on,0,0,6,,,,,,,,,5,,,67,44
29160,note_on,30,0,6,,,,,,,,,5,,,70,0
29265,note_on,345,0,5,,,,,,,,,4,,,70,94
29280,note_on,120,0,7,,,,,,,,,6,,,63,0
29280,note_on,120,0,10,,,,,,,,,10,,,39,0
29280,note_on,120,0,6,,,,,,,,,5,,,67,0
29280,note_on,120,0,9,,,,,,,,,8,,,51,0
29280,note_on,120,0,8,,,,,,,,,7,,,58,0
29280,note_on,15,0,5,,,,,,,,,4,,,70,0
29280,note_on,0,0,5,,,,,,,,,4,,,82,73
29400,note_on,0,0,5,,,,,,,,,4,,,80,80
29400,note_on,120,0,5,,,,,,,,,4,,,82,0
29430,note_on,30,0,5,,,,,,,,,4,,,80,0
29430,note_on,0,0,5,,,,,,,,,4,,,79,77
29460,note_on,30,0,5,,,,,,,,,4,,,79,0
29460,note_on,0,0,5,,,,,,,,,4,,,77,76
29490,note_on,30,0,5,,,,,,,,,4,,,77,0
29490,note_on,0,0,5,,,,,,,,,4,,,75,81
29520,note_on,240,0,6,,,,,,,,,5,,,65,52
29520,note_on,240,0,7,,,,,,,,,6,,,62,44
29520,note_on,30,0,5,,,,,,,,,4,,,75,0
29520,note_on,0,0,5,,,,,,,,,4,,,74,81
29520,note_on,240,0,10,,,,,,,,,10,,,34,44
29520,note_on,240,0,9,,,,,,,,,8,,,46,44
29520,note_on,240,0,8,,,,,,,,,7,,,56,37
29610,note_on,90,0,10,,,,,,,,,10,,,34,0
29610,note_on,90,0,8,,,,,,,,,7,,,56,0
29610,note_on,90,0,6,,,,,,,,,5,,,65,0
29610,note_on,90,0,9,,,,,,,,,8,,,46,0
29610,note_on,90,0,7,,,,,,,,,6,,,62,0
29640,note_on,30,0,9,,,,,,,,,8,,,46,38
29640,note_on,30,0,7,,,,,,,,,6,,,62,42
29640,note_on,30,0,6,,,,,,,,,5,,,65,46
29640,note_on,30,0,10,,,,,,,,,10,,,34,38
29640,note_on,120,0,5,,,,,,,,,4,,,74,0
29640,note_on,30,0,8,,,,,,,,,7,,,56,33
29730,note_on,90,0,6,,,,,,,,,5,,,65,0
29730,note_on,90,0,10,,,,,,,,,10,,,34,0
29730,note_on,90,0,8,,,,,,,,,7,,,56,0
29730,note_on,90,0,9,,,,,,,,,8,,,46,0
29730,note_on,90,0,7,,,,,,,,,6,,,62,0
29760,note_on,30,0,7,,,,,,,,,6,,,62,43
29760,note_on,30,0,10,,,,,,,,,10,,,34,50
29760,note_on,30,0,9,,,,,,,,,8,,,46,50
29760,note_on,30,0,6,,,,,,,,,5,,,65,53
29760,note_on,30,0,8,,,,,,,,,7,,,56,47
29850,note_on,90,0,7,,,,,,,,,6,,,62,0
29850,note_on,90,0,9,,,,,,,,,8,,,46,0
29850,note_on,90,0,10,,,,,,,,,10,,,34,0
29850,note_on,90,0,8,,,,,,,,,7,,,56,0
29850,note_on,90,0,6,,,,,,,,,5,,,65,0
29850,note_on,0,0,6,,,,,,,,,5,,,67,45
29880,note_on,30,0,6,,,,,,,,,5,,,67,0
29880,note_on,30,0,7,,,,,,,,,6,,,63,44
29880,note_on,0,0,6,,,,,,,,,5,,,63,62
29880,note_on,30,0,10,,,,,,,,,10,,,39,43
29880,note_on,30,0,8,,,,,,,,,7,,,55,43
29880,note_on,30,0,9,,,,,,,,,8,,,51,43
29970,note_on,330,0,5,,,,,,,,,4,,,70,86
29980,note_on,10,0,5,,,,,,,,,4,,,70,0
29980,note_on,0,0,5,,,,,,,,,4,,,75,85
29990,note_on,10,0,5,,,,,,,,,4,,,75,0
29990,note_on,0,0,5,,,,,,,,,4,,,79,62
30000,note_on,120,0,10,,,,,,,,,10,,,39,0
30000,note_on,120,0,8,,,,,,,,,7,,,55,0
30000,note_on,120,0,7,,,,,,,,,6,,,63,0
30000,note_on,120,0,9,,,,,,,,,8,,,51,0
30000,note_on,120,0,6,,,,,,,,,5,,,63,0
30000,note_on,10,0,5,,,,,,,,,4,,,79,0
30000,note_on,0,0,5,,,,,,,,,4,,,82,81
30180,note_on,180,0,5,,,,,,,,,4,,,82,0
30180,note_on,0,0,5,,,,,,,,,4,,,81,89
30240,note_on,60,0,5,,,,,,,,,4,,,81,0
30240,note_on,0,0,5,,,,,,,,,4,,,82,82
30300,note_on,60,0,5,,,,,,,,,4,,,82,0
30300,note_on,0,0,5,,,,,,,,,4,,,81,93
30360,note_on,0,0,5,,,,,,,,,4,,,82,84
30360,note_on,60,0,5,,,,,,,,,4,,,81,0
30390,note_on,30,0,5,,,,,,,,,4,,,82,0
30390,note_on,0,0,5,,,,,,,,,4,,,81,84
30420,note_on,30,0,5,,,,,,,,,4,,,81,0
30420,note_on,0,0,5,,,,,,,,,4,,,82,81
30450,note_on,0,0,5,,,,,,,,,4,,,81,89
30450,note_on,30,0,5,,,,,,,,,4,,,82,0
30480,note_on,30,0,5,,,,,,,,,4,,,81,0
30480,note_on,0,0,5,,,,,,,,,4,,,82,81
30500,note_on,20,0,5,,,,,,,,,4,,,82,0
30500,note_on,0,0,5,,,,,,,,,4,,,81,84
30520,note_on,20,0,5,,,,,,,,,4,,,81,0
30520,note_on,0,0,5,,,,,,,,,4,,,82,84
30540,note_on,20,0,5,,,,,,,,,4,,,82,0
30540,note_on,0,0,5,,,,,,,,,4,,,81,86
30555,note_on,15,0,5,,,,,,,,,4,,,81,0
30555,note_on,0,0,5,,,,,,,,,4,,,82,84
30570,note_on,15,0,5,,,,,,,,,4,,,82,0
30570,note_on,0,0,5,,,,,,,,,4,,,81,85
30585,note_on,15,0,5,,,,,,,,,4,,,81,0
30585,note_on,0,0,5,,,,,,,,,4,,,82,85
30600,note_on,15,0,5,,,,,,,,,4,,,82,0
30600,note_on,0,0,5,,,,,,,,,4,,,81,81
30610,note_on,10,0,5,,,,,,,,,4,,,81,0
30610,note_on,0,0,5,,,,,,,,,4,,,82,71
30620,note_on,0,0,5,,,,,,,,,4,,,81,81
30620,note_on,10,0,5,,,,,,,,,4,,,82,0
30630,note_on,0,0,5,,,,,,,,,4,,,82,84
30630,note_on,10,0,5,,,,,,,,,4,,,81,0
30637,note_on,7,0,5,,,,,,,,,4,,,81,71
30638,note_on,1,0,5,,,,,,,,,4,,,82,0
30645,note_on,7,0,5,,,,,,,,,4,,,81,0
30645,note_on,0,0,5,,,,,,,,,4,,,82,73
30652,note_on,7,0,5,,,,,,,,,4,,,81,80
30653,note_on,1,0,5,,,,,,,,,4,,,82,0
30660,note_on,0,0,5,,,,,,,,,4,,,82,78
30660,note_on,7,0,5,,,,,,,,,4,,,81,0
30670,note_on,0,0,5,,,,,,,,,4,,,81,76
30670,note_on,10,0,5,,,,,,,,,4,,,82,0
30680,note_on,0,0,5,,,,,,,,,4,,,82,81
30680,note_on,10,0,5,,,,,,,,,4,,,81,0
30690,note_on,0,0,5,,,,,,,,,4,,,81,71
30690,note_on,10,0,5,,,,,,,,,4,,,82,0
30697,note_on,7,0,5,,,,,,,,,4,,,82,84
30698,note_on,1,0,5,,,,,,,,,4,,,81,0
30705,note_on,7,0,5,,,,,,,,,4,,,82,0
30705,note_on,0,0,5,,,,,,,,,4,,,81,86
30712,note_on,7,0,5,,,,,,,,,4,,,82,84
30713,note_on,1,0,5,,,,,,,,,4,,,81,0
30720,note_on,0,0,5,,,,,,,,,4,,,81,89
30720,note_on,7,0,5,,,,,,,,,4,,,82,0
30730,note_on,10,0,5,,,,,,,,,4,,,81,0
30730,note_on,0,0,5,,,,,,,,,4,,,82,80
30740,note_on,10,0,5,,,,,,,,,4,,,82,0
30740,note_on,0,0,5,,,,,,,,,4,,,81,86
30750,note_on,0,0,5,,,,,,,,,4,,,82,81
30750,note_on,10,0,5,,,,,,,,,4,,,81,0
30757,note_on,7,0,5,,,,,,,,,4,,,81,84
30758,note_on,1,0,5,,,,,,,,,4,,,82,0
30765,note_on,0,0,5,,,,,,,,,4,,,82,80
30765,note_on,7,0,5,,,,,,,,,4,,,81,0
30772,note_on,7,0,5,,,,,,,,,4,,,81,86
30773,note_on,1,0,5,,,,,,,,,4,,,82,0
30780,note_on,0,0,5,,,,,,,,,4,,,82,81
30780,note_on,7,0,5,,,,,,,,,4,,,81,0
30790,note_on,10,0,5,,,,,,,,,4,,,82,0
30790,note_on,0,0,5,,,,,,,,,4,,,81,93
30800,note_on,0,0,5,,,,,,,,,4,,,82,81
30800,note_on,10,0,5,,,,,,,,,4,,,81,0
30810,note_on,0,0,5,,,,,,,,,4,,,81,86
30810,note_on,10,0,5,,,,,,,,,4,,,82,0
30817,note_on,7,0,5,,,,,,,,,4,,,82,84
30818,note_on,1,0,5,,,,,,,,,4,,,81,0
30825,note_on,0,0,5,,,,,,,,,4,,,81,90
30825,note_on,7,0,5,,,,,,,,,4,,,82,0
30832,note_on,7,0,5,,,,,,,,,4,,,82,89
30833,note_on,1,0,5,,,,,,,,,4,,,81,0
30840,note_on,0,0,5,,,,,,,,,4,,,82,81
30840,note_on,7,0,5,,,,,,,,,4,,,82,0
30847,note_on,7,0,5,,,,,,,,,4,,,83,94
30848,note_on,1,0,5,,,,,,,,,4,,,82,0
30855,note_on,7,0,5,,,,,,,,,4,,,83,0
30855,note_on,0,0,5,,,,,,,,,4,,,84,81
30862,note_on,7,0,5,,,,,,,,,4,,,83,86
30863,note_on,1,0,5,,,,,,,,,4,,,84,0
30870,note_on,7,0,5,,,,,,,,,4,,,83,0
30870,note_on,0,0,5,,,,,,,,,4,,,86,89
30877,note_on,7,0,5,,,,,,,,,4,,,84,90
30878,note_on,1,0,5,,,,,,,,,4,,,86,0
30885,note_on,7,0,5,,,,,,,,,4,,,84,0
30885,note_on,0,0,5,,,,,,,,,4,,,82,93
30892,note_on,7,0,5,,,,,,,,,4,,,80,94
30893,note_on,1,0,5,,,,,,,,,4,,,82,0
30900,note_on,7,0,5,,,,,,,,,4,,,80,0
30900,note_on,0,0,5,,,,,,,,,4,,,79,90
30907,note_on,7,0,5,,,,,,,,,4,,,77,81
30908,note_on,1,0,5,,,,,,,,,4,,,79,0
30915,note_on,0,0,5,,,,,,,,,4,,,80,89
30915,note_on,7,0,5,,,,,,,,,4,,,77,0
30922,note_on,7,0,5,,,,,,,,,4,,,79,89
30923,note_on,1,0,5,,,,,,,,,4,,,80,0
30930,note_on,0,0,5,,,,,,,,,4,,,82,84
30930,note_on,7,0,5,,,,,,,,,4,,,79,0
30937,note_on,7,0,5,,,,,,,,,4,,,80,93
30938,note_on,1,0,5,,,,,,,,,4,,,82,0
30945,note_on,7,0,5,,,,,,,,,4,,,80,0
30945,note_on,0,0,5,,,,,,,,,4,,,79,90
30952,note_on,7,0,5,,,,,,,,,4,,,77,93
30953,note_on,1,0,5,,,,,,,,,4,,,79,0
30960,note_on,7,0,5,,,,,,,,,4,,,77,0
30960,note_on,0,0,5,,,,,,,,,4,,,75,94
31020,note_on,60,0,5,,,,,,,,,4,,,75,0
31035,note_on,15,0,5,,,,,,,,,4,,,74,93
31050,note_on,0,0,5,,,,,,,,,4,,,77,68
31050,note_on,15,0,5,,,,,,,,,4,,,74,0
31065,note_on,15,0,5,,,,,,,,,4,,,77,0
31065,note_on,0,0,5,,,,,,,,,4,,,75,90
31080,note_on,0,0,5,,,,,,,,,4,,,74,84
31080,note_on,15,0,5,,,,,,,,,4,,,75,0
31140,note_on,60,0,5,,,,,,,,,4,,,74,0
31140,end_of_track,0,1,5,,,,,,,,,,,,,
31320,note_on,1320,0,6,,,,,,,,,5,,,62,65
31320,note_on,4800,0,1,,,,,,,,,0,,,74,65
31320,note_on,1320,0,9,,,,,,,,,8,,,46,58
31320,note_on,4800,0,3,,,,,,,,,2,,,62,54
31320,note_on,0,0,3,,,,,,,,,2,,,46,66
31320,note_on,1320,0,8,,,,,,,,,7,,,58,59
31320,note_on,4800,0,4,,,,,,,,,3,,,58,51
31320,note_on,0,0,4,,,,,,,,,3,,,46,46
31320,note_on,1320,0,10,,,,,,,,,10,,,34,58
31320,note_on,1320,0,7,,,,,,,,,6,,,56,64
31320,note_on,4800,0,2,,,,,,,,,1,,,77,45
31320,note_on,0,0,2,,,,,,,,,1,,,68,45
31410,note_on,90,0,7,,,,,,,,,6,,,56,0
31410,note_on,90,0,6,,,,,,,,,5,,,62,0
31410,note_on,90,0,3,,,,,,,,,2,,,46,0
31410,note_on,0,0,3,,,,,,,,,2,,,62,0
31410,note_on,90,0,10,,,,,,,,,10,,,34,0
31410,note_on,90,0,4,,,,,,,,,3,,,46,0
31410,note_on,90,0,1,,,,,,,,,0,,,74,0
31410,note_on,90,0,2,,,,,,,,,1,,,68,0
31410,note_on,0,0,2,,,,,,,,,1,,,77,0
31410,note_on,90,0,9,,,,,,,,,8,,,46,0
31410,note_on,90,0,8,,,,,,,,,7,,,58,0
31410,note_on,0,0,4,,,,,,,,,3,,,58,0
31440,note_on,0,0,3,,,,,,,,,2,,,46,70
31440,note_on,30,0,3,,,,,,,,,2,,,62,72
31440,note_on,0,0,2,,,,,,,,,1,,,68,39
31440,note_on,30,0,2,,,,,,,,,1,,,77,44
31440,note_on,30,0,10,,,,,,,,,10,,,34,62
31440,note_on,30,0,9,,,,,,,,,8,,,46,62
31440,note_on,30,0,4,,,,,,,,,3,,,58,53
31440,note_on,30,0,7,,,,,,,,,6,,,56,55
31440,note_on,30,0,1,,,,,,,,,0,,,74,64
31440,note_on,30,0,6,,,,,,,,,5,,,62,64
31440,note_on,0,0,4,,,,,,,,,3,,,46,42
31440,note_on,30,0,8,,,,,,,,,7,,,58,58
31530,note_on,90,0,10,,,,,,,,,10,,,34,0
31530,note_on,90,0,2,,,,,,,,,1,,,68,0
31530,note_on,0,0,2,,,,,,,,,1,,,77,0
31530,note_on,0,0,3,,,,,,,,,2,,,62,0
31530,note_on,90,0,1,,,,,,,,,0,,,74,0
31530,note_on,90,0,8,,,,,,,,,7,,,58,0
31530,note_on,90,0,6,,,,,,,,,5,,,62,0
31530,note_on,90,0,9,,,,,,,,,8,,,46,0
31530,note_on,90,0,4,,,,,,,,,3,,,46,0
31530,note_on,0,0,4,,,,,,,,,3,,,58,0
31530,note_on,90,0,7,,,,,,,,,6,,,56,0
31530,note_on,90,0,3,,,,,,,,,2,,,46,0
31560,note_on,30,0,9,,,,,,,,,8,,,46,68
31560,note_on,0,0,4,,,,,,,,,3,,,46,61
31560,note_on,30,0,2,,,,,,,,,1,,,77,44
31560,note_on,0,0,2,,,,,,,,,1,,,68,49
31560,note_on,0,0,3,,,,,,,,,2,,,46,68
31560,note_on,30,0,8,,,,,,,,,7,,,58,53
31560,note_on,30,0,6,,,,,,,,,5,,,62,53
31560,note_on,30,0,1,,,,,,,,,0,,,74,58
31560,note_on,30,0,4,,,,,,,,,3,,,58,52
31560,note_on,30,0,10,,,,,,,,,10,,,34,68
31560,note_on,30,0,7,,,,,,,,,6,,,56,56
31560,note_on,30,0,3,,,,,,,,,2,,,62,69
31650,note_on,0,0,4,,,,,,,,,3,,,58,0
31650,note_on,90,0,8,,,,,,,,,7,,,58,0
31650,note_on,90,0,4,,,,,,,,,3,,,46,0
31650,note_on,0,0,3,,,,,,,,,2,,,62,0
31650,note_on,0,0,2,,,,,,,,,1,,,77,0
31650,note_on,0,0,2,,,,,,,,,1,,,79,50
31650,note_on,90,0,3,,,,,,,,,2,,,46,0
31650,note_on,90,0,6,,,,,,,,,5,,,62,0
31650,note_on,90,0,9,,,,,,,,,8,,,46,0
31650,note_on,90,0,1,,,,,,,,,0,,,74,0
31650,note_on,90,0,2,,,,,,,,,1,,,68,0
31650,note_on,90,0,7,,,,,,,,,6,,,56,0
31650,note_on,90,0,10,,,,,,,,,10,,,34,0
31680,note_on,0,0,3,,,,,,,,,2,,,63,47
31680,note_on,0,0,3,,,,,,,,,2,,,55,72
31680,note_on,30,0,6,,,,,,,,,5,,,63,76
31680,note_on,30,0,9,,,,,,,,,8,,,51,67
31680,note_on,30,0,1,,,,,,,,,0,,,75,72
31680,note_on,30,0,7,,,,,,,,,6,,,55,53
31680,note_on,30,0,10,,,,,,,,,10,,,39,67
31680,control_change,30,0,3,,,,,,,,,2,7,99,,
31680,note_on,30,0,2,,,,,,,,,1,,,79,0
31680,control_change,0,0,2,,,,,,,,,1,7,99,,
31680,note_on,30,0,8,,,,,,,,,7,,,58,58
31680,note_on,30,0,4,,,,,,,,,3,,,58,49
31680,note_on,0,0,2,,,,,,,,,1,,,67,38
31680,note_on,0,0,2,,,,,,,,,1,,,75,43
31680,note_on,0,0,4,,,,,,,,,3,,,51,65
31688,control_change,8,0,2,,,,,,,,,1,7,100,,
31688,control_change,8,0,3,,,,,,,,,2,7,100,,
31694,control_change,6,0,3,,,,,,,,,2,7,101,,
31696,control_change,8,0,2,,,,,,,,,1,7,101,,
31700,control_change,6,0,3,,,,,,,,,2,7,102,,
31704,control_change,8,0,2,,,,,,,,,1,7,102,,
31708,control_change,8,0,3,,,,,,,,,2,7,103,,
31712,control_change,8,0,2,,,,,,,,,1,7,103,,
31714,control_change,6,0,3,,,,,,,,,2,7,104,,
31720,control_change,8,0,2,,,,,,,,,1,7,104,,
31720,control_change,6,0,3,,,,,,,,,2,7,105,,
31728,control_change,8,0,2,,,,,,,,,1,7,105,,
31728,control_change,8,0,3,,,,,,,,,2,7,106,,
31734,control_change,6,0,3,,,,,,,,,2,7,107,,
31736,control_change,8,0,2,,,,,,,,,1,7,106,,
31740,control_change,6,0,3,,,,,,,,,2,7,108,,
31744,control_change,8,0,2,,,,,,,,,1,7,107,,
31748,control_change,8,0,3,,,,,,,,,2,7,109,,
31752,control_change,8,0,2,,,,,,,,,1,7,108,,
31754,control_change,6,0,3,,,,,,,,,2,7,110,,
31760,control_change,8,0,2,,,,,,,,,1,7,109,,
31760,control_change,6,0,3,,,,,,,,,2,7,111,,
31768,control_change,8,0,2,,,,,,,,,1,7,110,,
31768,control_change,8,0,3,,,,,,,,,2,7,112,,
31774,control_change,6,0,2,,,,,,,,,1,7,111,,
31774,control_change,6,0,3,,,,,,,,,2,7,113,,
31780,control_change,6,0,3,,,,,,,,,2,7,114,,
31782,control_change,8,0,2,,,,,,,,,1,7,112,,
31788,control_change,8,0,3,,,,,,,,,2,7,115,,
31790,control_change,8,0,2,,,,,,,,,1,7,113,,
31794,control_change,6,0,3,,,,,,,,,2,7,116,,
31798,control_change,8,0,2,,,,,,,,,1,7,114,,
31800,note_on,120,0,9,,,,,,,,,8,,,51,0
31800,note_on,120,0,1,,,,,,,,,0,,,75,0
31800,note_on,0,0,4,,,,,,,,,3,,,58,0
31800,note_on,0,0,4,,,,,,,,,3,,,46,86
31800,note_on,0,0,6,,,,,,,,,5,,,58,86
31800,note_on,120,0,6,,,,,,,,,5,,,63,0
31800,control_change,6,0,3,,,,,,,,,2,7,117,,
31800,note_on,120,0,4,,,,,,,,,3,,,51,0
31800,note_on,0,0,4,,,,,,,,,3,,,58,69
31800,note_on,120,0,8,,,,,,,,,7,,,58,0
31800,note_on,120,0,7,,,,,,,,,6,,,55,0
31800,note_on,120,0,10,,,,,,,,,10,,,39,0
31806,control_change,8,0,2,,,,,,,,,1,7,115,,
31808,control_change,8,0,3,,,,,,,,,2,7,118,,
31814,control_change,6,0,3,,,,,,,,,2,7,119,,
31814,control_change,8,0,2,,,,,,,,,1,7,116,,
31820,control_change,6,0,3,,,,,,,,,2,7,120,,
31822,control_change,8,0,2,,,,,,,,,1,7,117,,
31828,control_change,8,0,3,,,,,,,,,2,7,121,,
31830,control_change,8,0,2,,,,,,,,,1,7,118,,
31834,control_change,6,0,3,,,,,,,,,2,7,122,,
31838,control_change,8,0,2,,,,,,,,,1,7,119,,
31840,control_change,6,0,3,,,,,,,,,2,7,123,,
31846,control_change,8,0,2,,,,,,,,,1,7,120,,
31848,control_change,8,0,3,,,,,,,,,2,7,124,,
31854,control_change,8,0,2,,,,,,,,,1,7,121,,
31854,control_change,6,0,3,,,,,,,,,2,7,125,,
31860,control_change,6,0,2,,,,,,,,,1,7,122,,
31860,control_change,6,0,3,,,,,,,,,2,7,126,,
31868,control_change,8,0,2,,,,,,,,,1,7,121,,
31868,control_change,8,0,3,,,,,,,,,2,7,125,,
31874,control_change,6,0,3,,,,,,,,,2,7,124,,
31876,control_change,8,0,2,,,,,,,,,1,7,120,,
31880,control_change,6,0,3,,,,,,,,,2,7,123,,
31884,control_change,8,0,2,,,,,,,,,1,7,119,,
31888,control_change,8,0,3,,,,,,,,,2,7,122,,
31892,control_change,8,0,2,,,,,,,,,1,7,118,,
31894,control_change,6,0,3,,,,,,,,,2,7,121,,
31900,control_change,6,0,3,,,,,,,,,2,7,120,,
31900,control_change,8,0,2,,,,,,,,,1,7,117,,
31908,control_change,8,0,2,,,,,,,,,1,7,116,,
31908,control_change,8,0,3,,,,,,,,,2,7,119,,
31914,control_change,6,0,3,,,,,,,,,2,7,118,,
31916,control_change,8,0,2,,,,,,,,,1,7,115,,
31920,note_on,6,0,3,,,,,,,,,2,,,55,0
31920,note_on,120,0,9,,,,,,,,,8,,,46,70
31920,note_on,120,0,6,,,,,,,,,5,,,58,0
31920,note_on,0,0,6,,,,,,,,,5,,,62,65
31920,note_on,0,0,2,,,,,,,,,1,,,68,45
31920,note_on,0,0,2,,,,,,,,,1,,,75,0
31920,note_on,4,0,2,,,,,,,,,1,,,67,0
31920,note_on,120,0,10,,,,,,,,,10,,,34,70
31920,note_on,0,0,2,,,,,,,,,1,,,77,45
31920,note_on,120,0,7,,,,,,,,,6,,,56,47
31920,control_change,0,0,3,,,,,,,,,2,7,117,,
31920,note_on,0,0,3,,,,,,,,,2,,,56,60
31920,note_on,120,0,8,,,,,,,,,7,,,58,60
31920,note_on,0,0,3,,,,,,,,,2,,,63,0
31920,note_on,0,0,3,,,,,,,,,2,,,62,61
31924,control_change,4,0,2,,,,,,,,,1,7,114,,
31928,control_change,8,0,3,,,,,,,,,2,7,116,,
31932,control_change,8,0,2,,,,,,,,,1,7,113,,
31934,control_change,6,0,3,,,,,,,,,2,7,115,,
31940,control_change,8,0,2,,,,,,,,,1,7,112,,
31940,control_change,6,0,3,,,,,,,,,2,7,114,,
31948,control_change,8,0,2,,,,,,,,,1,7,111,,
31948,control_change,8,0,3,,,,,,,,,2,7,113,,
31954,control_change,6,0,2,,,,,,,,,1,7,110,,
31954,control_change,6,0,3,,,,,,,,,2,7,112,,
31960,control_change,6,0,3,,,,,,,,,2,7,111,,
31962,control_change,8,0,2,,,,,,,,,1,7,109,,
31968,control_change,8,0,3,,,,,,,,,2,7,110,,
31970,control_change,8,0,2,,,,,,,,,1,7,108,,
31974,control_change,6,0,3,,,,,,,,,2,7,109,,
31978,control_change,8,0,2,,,,,,,,,1,7,107,,
31980,control_change,6,0,3,,,,,,,,,2,7,108,,
31980,note_on,180,0,1,,,,,,,,,0,,,82,86
31986,control_change,8,0,2,,,,,,,,,1,7,106,,
31988,control_change,8,0,3,,,,,,,,,2,7,107,,
31994,control_change,6,0,3,,,,,,,,,2,7,106,,
31994,control_change,8,0,2,,,,,,,,,1,7,105,,
32000,control_change,6,0,3,,,,,,,,,2,7,105,,
32002,control_change,8,0,2,,,,,,,,,1,7,104,,
32008,control_change,8,0,3,,,,,,,,,2,7,104,,
32010,control_change,8,0,2,,,,,,,,,1,7,103,,
32014,control_change,6,0,3,,,,,,,,,2,7,103,,
32018,control_change,8,0,2,,,,,,,,,1,7,102,,
32020,control_change,6,0,3,,,,,,,,,2,7,102,,
32026,control_change,8,0,2,,,,,,,,,1,7,101,,
32028,control_change,8,0,3,,,,,,,,,2,7,101,,
32034,control_change,8,0,2,,,,,,,,,1,7,100,,
32034,control_change,6,0,3,,,,,,,,,2,7,100,,
32040,control_change,0,0,3,,,,,,,,,2,7,99,,
32040,note_on,0,0,3,,,,,,,,,2,,,55,80
32040,note_on,0,0,3,,,,,,,,,2,,,63,64
32040,note_on,0,0,10,,,,,,,,,10,,,39,53
32040,control_change,0,0,2,,,,,,,,,1,7,99,,
32040,note_on,0,0,2,,,,,,,,,1,,,67,62
32040,note_on,0,0,2,,,,,,,,,1,,,75,53
32040,note_on,0,0,2,,,,,,,,,1,,,77,0
32040,note_on,6,0,2,,,,,,,,,1,,,68,0
32040,note_on,6,0,3,,,,,,,,,2,,,56,0
32040,note_on,120,0,10,,,,,,,,,10,,,34,0
32040,note_on,0,0,3,,,,,,,,,2,,,62,0
32040,note_on,0,0,4,,,,,,,,,3,,,51,57
32040,note_on,0,0,9,,,,,,,,,8,,,51,53
32040,note_on,120,0,9,,,,,,,,,8,,,46,0
32040,note_on,120,0,6,,,,,,,,,5,,,62,0
32040,note_on,0,0,6,,,,,,,,,5,,,63,69
32040,note_on,0,0,7,,,,,,,,,6,,,55,65
32040,note_on,120,0,7,,,,,,,,,6,,,56,0
32040,note_on,240,0,4,,,,,,,,,3,,,46,0
32040,note_on,0,0,4,,,,,,,,,3,,,58,42
32040,note_on,0,0,4,,,,,,,,,3,,,58,0
32048,control_change,8,0,3,,,,,,,,,2,7,100,,
32048,control_change,8,0,2,,,,,,,,,1,7,100,,
32054,control_change,6,0,3,,,,,,,,,2,7,101,,
32056,control_change,8,0,2,,,,,,,,,1,7,101,,
32060,control_change,6,0,3,,,,,,,,,2,7,102,,
32064,control_change,8,0,2,,,,,,,,,1,7,102,,
32068,control_change,8,0,3,,,,,,,,,2,7,103,,
32072,control_change,8,0,2,,,,,,,,,1,7,103,,
32074,control_change,6,0,3,,,,,,,,,2,7,104,,
32080,control_change,6,0,3,,,,,,,,,2,7,105,,
32080,control_change,8,0,2,,,,,,,,,1,7,104,,
32088,control_change,8,0,3,,,,,,,,,2,7,106,,
32088,control_change,8,0,2,,,,,,,,,1,7,105,,
32094,control_change,6,0,3,,,,,,,,,2,7,107,,
32096,control_change,8,0,2,,,,,,,,,1,7,106,,
32100,note_on,0,0,1,,,,,,,,,0,,,84,52
32100,control_change,6,0,3,,,,,,,,,2,7,108,,
32100,note_on,120,0,1,,,,,,,,,0,,,82,0
32104,control_change,8,0,2,,,,,,,,,1,7,107,,
32108,control_change,8,0,3,,,,,,,,,2,7,109,,
32112,control_change,8,0,2,,,,,,,,,1,7,108,,
32114,control_change,6,0,3,,,,,,,,,2,7,110,,
32120,control_change,8,0,2,,,,,,,,,1,7,109,,
32120,control_change,6,0,3,,,,,,,,,2,7,111,,
32128,control_change,8,0,2,,,,,,,,,1,7,110,,
32128,control_change,8,0,3,,,,,,,,,2,7,112,,
32130,note_on,30,0,1,,,,,,,,,0,,,84,0
32130,note_on,0,0,1,,,,,,,,,0,,,82,38
32134,control_change,6,0,3,,,,,,,,,2,7,113,,
32136,control_change,8,0,2,,,,,,,,,1,7,111,,
32140,control_change,6,0,3,,,,,,,,,2,7,114,,
32144,control_change,8,0,2,,,,,,,,,1,7,112,,
32148,control_change,8,0,3,,,,,,,,,2,7,115,,
32152,control_change,8,0,2,,,,,,,,,1,7,113,,
32154,control_change,6,0,3,,,,,,,,,2,7,116,,
32160,note_on,30,0,1,,,,,,,,,0,,,82,0
32160,note_on,0,0,1,,,,,,,,,0,,,82,43
32160,note_on,120,0,6,,,,,,,,,5,,,63,0
32160,note_on,0,0,4,,,,,,,,,3,,,46,89
32160,note_on,0,0,4,,,,,,,,,3,,,58,74
32160,note_on,240,0,8,,,,,,,,,7,,,58,0
32160,note_on,120,0,7,,,,,,,,,6,,,55,0
32160,note_on,120,0,10,,,,,,,,,10,,,39,0
32160,note_on,0,0,4,,,,,,,,,3,,,58,0
32160,note_on,120,0,4,,,,,,,,,3,,,51,0
32160,control_change,8,0,2,,,,,,,,,1,7,114,,
32160,control_change,6,0,3,,,,,,,,,2,7,117,,
32160,note_on,120,0,9,,,,,,,,,8,,,51,0
32160,note_on,0,0,6,,,,,,,,,5,,,58,93
32168,control_change,8,0,2,,,,,,,,,1,7,115,,
32168,control_change,8,0,3,,,,,,,,,2,7,118,,
32174,control_change,6,0,3,,,,,,,,,2,7,119,,
32176,control_change,8,0,2,,,,,,,,,1,7,116,,
32180,control_change,6,0,3,,,,,,,,,2,7,120,,
32184,control_change,8,0,2,,,,,,,,,1,7,117,,
32188,control_change,8,0,3,,,,,,,,,2,7,121,,
32192,control_change,8,0,2,,,,,,,,,1,7,118,,
32194,control_change,6,0,3,,,,,,,,,2,7,122,,
32200,control_change,8,0,2,,,,,,,,,1,7,119,,
32200,control_change,6,0,3,,,,,,,,,2,7,123,,
32208,control_change,8,0,3,,,,,,,,,2,7,124,,
32208,control_change,8,0,2,,,,,,,,,1,7,120,,
32214,control_change,6,0,3,,,,,,,,,2,7,125,,
32216,control_change,8,0,2,,,,,,,,,1,7,121,,
32220,control_change,6,0,3,,,,,,,,,2,7,126,,
32222,control_change,6,0,2,,,,,,,,,1,7,122,,
32228,control_change,8,0,3,,,,,,,,,2,7,125,,
32230,control_change,8,0,2,,,,,,,,,1,7,121,,
32234,control_change,6,0,3,,,,,,,,,2,7,124,,
32238,control_change,8,0,2,,,,,,,,,1,7,120,,
32240,control_change,6,0,3,,,,,,,,,2,7,123,,
32246,control_change,8,0,2,,,,,,,,,1,7,119,,
32248,control_change,8,0,3,,,,,,,,,2,7,122,,
32252,control_change,6,0,2,,,,,,,,,1,7,118,,
32254,control_change,6,0,3,,,,,,,,,2,7,121,,
32260,control_change,8,0,2,,,,,,,,,1,7,117,,
32260,control_change,6,0,3,,,,,,,,,2,7,120,,
32268,control_change,8,0,3,,,,,,,,,2,7,119,,
32268,control_change,8,0,2,,,,,,,,,1,7,116,,
32274,control_change,6,0,2,,,,,,,,,1,7,115,,
32274,control_change,6,0,3,,,,,,,,,2,7,118,,
32280,note_on,0,0,6,,,,,,,,,5,,,62,71
32280,note_on,120,0,7,,,,,,,,,6,,,56,55
32280,note_on,120,0,6,,,,,,,,,5,,,58,0
32280,note_on,120,0,10,,,,,,,,,10,,,34,71
32280,note_on,0,0,2,,,,,,,,,1,,,68,51
32280,note_on,0,0,2,,,,,,,,,1,,,77,44
32280,note_on,0,0,2,,,,,,,,,1,,,75,0
32280,note_on,6,0,2,,,,,,,,,1,,,67,0
32280,note_on,120,0,9,,,,,,,,,8,,,46,71
32280,note_on,120,0,1,,,,,,,,,0,,,82,0
32280,note_on,120,0,8,,,,,,,,,7,,,58,50
32280,note_on,0,0,3,,,,,,,,,2,,,63,0
32280,control_change,0,0,3,,,,,,,,,2,7,117,,
32280,note_on,6,0,3,,,,,,,,,2,,,55,0
32280,note_on,0,0,3,,,,,,,,,2,,,62,53
32280,note_on,0,0,3,,,,,,,,,2,,,56,64
32282,control_change,2,0,2,,,,,,,,,1,7,114,,
32288,control_change,8,0,3,,,,,,,,,2,7,116,,
32290,control_change,8,0,2,,,,,,,,,1,7,113,,
32294,control_change,6,0,3,,,,,,,,,2,7,115,,
32298,control_change,8,0,2,,,,,,,,,1,7,112,,
32300,control_change,6,0,3,,,,,,,,,2,7,114,,
32304,control_change,6,0,2,,,,,,,,,1,7,111,,
32308,control_change,8,0,3,,,,,,,,,2,7,113,,
32312,control_change,8,0,2,,,,,,,,,1,7,110,,
32314,control_change,6,0,3,,,,,,,,,2,7,112,,
32320,control_change,8,0,2,,,,,,,,,1,7,109,,
32320,control_change,6,0,3,,,,,,,,,2,7,111,,
32326,control_change,6,0,2,,,,,,,,,1,7,108,,
32328,control_change,8,0,3,,,,,,,,,2,7,110,,
32334,control_change,6,0,3,,,,,,,,,2,7,109,,
32334,control_change,8,0,2,,,,,,,,,1,7,107,,
32340,note_on,60,0,1,,,,,,,,,0,,,82,76
32340,control_change,6,0,3,,,,,,,,,2,7,108,,
32342,control_change,8,0,2,,,,,,,,,1,7,106,,
32348,control_change,8,0,3,,,,,,,,,2,7,107,,
32350,control_change,8,0,2,,,,,,,,,1,7,105,,
32354,control_change,6,0,3,,,,,,,,,2,7,106,,
32356,control_change,6,0,2,,,,,,,,,1,7,104,,
32360,control_change,6,0,3,,,,,,,,,2,7,105,,
32364,control_change,8,0,2,,,,,,,,,1,7,103,,
32368,control_change,8,0,3,,,,,,,,,2,7,104,,
32372,control_change,8,0,2,,,,,,,,,1,7,102,,
32374,control_change,6,0,3,,,,,,,,,2,7,103,,
32378,control_change,6,0,2,,,,,,,,,1,7,101,,
32380,control_change,6,0,3,,,,,,,,,2,7,102,,
32386,control_change,8,0,2,,,,,,,,,1,7,100,,
32388,control_change,8,0,3,,,,,,,,,2,7,101,,
32394,control_change,8,0,2,,,,,,,,,1,7,99,,
32394,control_change,6,0,3,,,,,,,,,2,7,100,,
32400,note_on,0,0,10,,,,,,,,,10,,,39,65
32400,note_on,120,0,10,,,,,,,,,10,,,34,0
32400,note_on,0,0,3,,,,,,,,,2,,,55,68
32400,note_on,0,0,2,,,,,,,,,1,,,77,0
32400,note_on,120,0,9,,,,,,,,,8,,,46,0
32400,note_on,6,0,3,,,,,,,,,2,,,56,0
32400,note_on,0,0,3,,,,,,,,,2,,,62,0
32400,note_on,0,0,3,,,,,,,,,2,,,63,61
32400,control_change,0,0,3,,,,,,,,,2,7,99,,
32400,note_on,0,0,7,,,,,,,,,6,,,55,52
32400,note_on,120,0,7,,,,,,,,,6,,,56,0
32400,note_on,120,0,6,,,,,,,,,5,,,62,0
32400,note_on,0,0,6,,,,,,,,,5,,,63,67
32400,note_on,240,0,4,,,,,,,,,3,,,46,0
32400,note_on,0,0,4,,,,,,,,,3,,,58,0
32400,note_on,0,0,4,,,,,,,,,3,,,58,45
32400,note_on,0,0,9,,,,,,,,,8,,,51,65
32400,note_on,6,0,2,,,,,,,,,1,,,68,0
32400,note_on,0,0,4,,,,,,,,,3,,,51,61
32400,note_on,0,0,2,,,,,,,,,1,,,75,46
32400,note_on,0,0,2,,,,,,,,,1,,,67,62
32400,control_change,0,0,2,,,,,,,,,1,7,98,,
32460,note_on,0,0,1,,,,,,,,,0,,,84,53
32460,note_on,120,0,1,,,,,,,,,0,,,82,0
32490,note_on,30,0,1,,,,,,,,,0,,,84,0
32490,note_on,0,0,1,,,,,,,,,0,,,86,43
32520,program_change,0,0,7,,,,,,,,45,6,,,,
32520,note_on,240,0,8,,,,,,,,,7,,,58,0
32520,note_on,120,0,7,,,,,,,,,6,,,55,0
32520,program_change,0,0,8,,,,,,,,45,7,,,,
32520,note_on,120,0,10,,,,,,,,,10,,,39,0
32520,note_on,0,0,4,,,,,,,,,3,,,58,50
32520,note_on,0,0,4,,,,,,,,,3,,,39,67
32520,note_on,120,0,6,,,,,,,,,5,,,63,0
32520,program_change,0,0,6,,,,,,,,45,5,,,,
32520,note_on,0,0,1,,,,,,,,,0,,,87,37
32520,note_on,30,0,1,,,,,,,,,0,,,86,0
32520,program_change,0,0,10,,,,,,,,45,10,,,,
32520,note_on,120,0,9,,,,,,,,,8,,,51,0
32520,note_on,0,0,4,,,,,,,,,3,,,58,0
32520,program_change,0,0,9,,,,,,,,45,8,,,,
32520,note_on,120,0,2,,,,,,,,,1,,,67,0
32520,note_on,0,0,2,,,,,,,,,1,,,75,0
32520,note_on,0,0,2,,,,,,,,,1,,,79,42
32520,note_on,120,0,4,,,,,,,,,3,,,51,0
32520,note_on,120,0,3,,,,,,,,,2,,,55,0
32520,note_on,0,0,3,,,,,,,,,2,,,63,0
32520,note_on,0,0,3,,,,,,,,,2,,,58,43
32520,note_on,0,0,3,,,,,,,,,2,,,55,48
32520,note_on,0,0,2,,,,,,,,,1,,,70,53
32610,note_on,0,0,3,,,,,,,,,2,,,58,0
32610,note_on,90,0,3,,,,,,,,,2,,,55,0
32610,note_on,90,0,1,,,,,,,,,0,,,87,0
32610,note_on,0,0,4,,,,,,,,,3,,,58,0
32610,note_on,0,0,2,,,,,,,,,1,,,79,0
32610,note_on,90,0,2,,,,,,,,,1,,,70,0
32610,note_on,90,0,4,,,,,,,,,3,,,39,0
32640,note_on,0,0,2,,,,,,,,,1,,,70,50
32640,note_on,30,0,4,,,,,,,,,3,,,58,42
32640,note_on,0,0,4,,,,,,,,,3,,,39,52
32640,note_on,0,0,6,,,,,,,,,5,,,55,68
32640,note_on,120,0,6,,,,,,,,,5,,,63,50
32640,note_on,30,0,1,,,,,,,,,0,,,87,38
32640,note_on,120,0,10,,,,,,,,,10,,,27,58
32640,note_on,120,0,8,,,,,,,,,7,,,55,62
32640,note_on,30,0,2,,,,,,,,,1,,,79,40
32640,note_on,120,0,9,,,,,,,,,8,,,39,58
32640,note_on,0,0,3,,,,,,,,,2,,,55,53
32640,note_on,30,0,3,,,,,,,,,2,,,58,43
32640,note_on,120,0,7,,,,,,,,,6,,,58,58
32730,note_on,90,0,1,,,,,,,,,0,,,87,0
32730,note_on,90,0,2,,,,,,,,,1,,,70,0
32730,note_on,0,0,2,,,,,,,,,1,,,79,0
32730,note_on,90,0,3,,,,,,,,,2,,,55,0
32730,note_on,0,0,3,,,,,,,,,2,,,58,0
32730,note_on,0,0,4,,,,,,,,,3,,,58,0
32730,note_on,90,0,4,,,,,,,,,3,,,39,0
32760,note_on,120,0,6,,,,,,,,,5,,,55,0
32760,note_on,0,0,6,,,,,,,,,5,,,63,0
32760,note_on,0,0,6,,,,,,,,,5,,,55,74
32760,control_change,30,0,3,,,,,,,,,2,7,99,,
32760,note_on,120,0,10,,,,,,,,,10,,,27,0
32760,note_on,0,0,10,,,,,,,,,10,,,27,58
32760,note_on,0,0,1,,,,,,,,,0,,,87,38
32760,set_tempo,10080,1,0,,,,,,1538462,,,,,,,
32760,note_on,0,0,8,,,,,,,,,7,,,51,63
32760,note_on,120,0,8,,,,,,,,,7,,,55,0
32760,note_on,120,0,7,,,,,,,,,6,,,58,0
32760,note_on,0,0,7,,,,,,,,,6,,,55,69
32760,note_on,120,0,9,,,,,,,,,8,,,39,0
32760,control_change,30,0,1,,,,,,,,,0,7,99,,
32760,note_on,0,0,9,,,,,,,,,8,,,39,58
32760,note_on,0,0,6,,,,,,,,,5,,,63,48
32760,note_on,0,0,2,,,,,,,,,1,,,75,36
32760,note_on,0,0,3,,,,,,,,,2,,,55,43
32760,note_on,0,0,3,,,,,,,,,2,,,51,40
32760,note_on,0,0,2,,,,,,,,,1,,,67,41
32760,control_change,30,0,2,,,,,,,,,1,7,99,,
32760,control_change,30,0,4,,,,,,,,,3,7,99,,
32760,note_on,0,0,4,,,,,,,,,3,,,58,45
32760,note_on,0,0,4,,,,,,,,,3,,,39,48
32768,control_change,8,0,2,,,,,,,,,1,7,100,,
32768,control_change,8,0,4,,,,,,,,,3,7,100,,
32768,control_change,8,0,1,,,,,,,,,0,7,100,,
32768,control_change,8,0,3,,,,,,,,,2,7,100,,
32774,control_change,6,0,3,,,,,,,,,2,7,101,,
32774,control_change,6,0,1,,,,,,,,,0,7,101,,
32774,control_change,6,0,4,,,,,,,,,3,7,101,,
32776,control_change,8,0,2,,,,,,,,,1,7,101,,
32780,control_change,6,0,3,,,,,,,,,2,7,102,,
32780,control_change,6,0,4,,,,,,,,,3,7,102,,
32782,control_change,8,0,1,,,,,,,,,0,7,102,,
32784,control_change,8,0,2,,,,,,,,,1,7,102,,
32786,control_change,6,0,3,,,,,,,,,2,7,103,,
32788,control_change,6,0,1,,,,,,,,,0,7,103,,
32788,control_change,8,0,4,,,,,,,,,3,7,103,,
32792,control_change,8,0,2,,,,,,,,,1,7,103,,
32794,control_change,8,0,3,,,,,,,,,2,7,104,,
32794,control_change,6,0,4,,,,,,,,,3,7,104,,
32796,control_change,8,0,1,,,,,,,,,0,7,104,,
32800,control_change,6,0,3,,,,,,,,,2,7,105,,
32800,control_change,8,0,2,,,,,,,,,1,7,104,,
32800,control_change,6,0,4,,,,,,,,,3,7,105,,
32802,control_change,6,0,1,,,,,,,,,0,7,105,,
32806,control_change,6,0,3,,,,,,,,,2,7,106,,
32808,control_change,8,0,2,,,,,,,,,1,7,105,,
32808,control_change,8,0,4,,,,,,,,,3,7,106,,
32810,control_change,8,0,1,,,,,,,,,0,7,106,,
32812,control_change,6,0,3,,,,,,,,,2,7,107,,
32814,control_change,6,0,4,,,,,,,,,3,7,107,,
32816,control_change,6,0,1,,,,,,,,,0,7,107,,
32816,control_change,8,0,2,,,,,,,,,1,7,106,,
32818,control_change,6,0,3,,,,,,,,,2,7,108,,
32820,control_change,6,0,4,,,,,,,,,3,7,108,,
32824,control_change,8,0,2,,,,,,,,,1,7,107,,
32824,control_change,8,0,1,,,,,,,,,0,7,108,,
32826,control_change,8,0,3,,,,,,,,,2,7,109,,
32828,control_change,8,0,4,,,,,,,,,3,7,109,,
32830,control_change,6,0,1,,,,,,,,,0,7,109,,
32832,control_change,6,0,3,,,,,,,,,2,7,110,,
32832,control_change,8,0,2,,,,,,,,,1,7,108,,
32834,control_change,6,0,4,,,,,,,,,3,7,110,,
32838,control_change,6,0,3,,,,,,,,,2,7,111,,
32838,control_change,8,0,1,,,,,,,,,0,7,110,,
32840,control_change,8,0,2,,,,,,,,,1,7,109,,
32840,control_change,6,0,4,,,,,,,,,3,7,111,,
32844,control_change,6,0,1,,,,,,,,,0,7,111,,
32844,control_change,6,0,3,,,,,,,,,2,7,112,,
32848,control_change,8,0,2,,,,,,,,,1,7,110,,
32848,control_change,8,0,4,,,,,,,,,3,7,112,,
32850,control_change,6,0,3,,,,,,,,,2,7,113,,
32850,control_change,6,0,1,,,,,,,,,0,7,112,,
32854,control_change,6,0,4,,,,,,,,,3,7,113,,
32856,control_change,8,0,2,,,,,,,,,1,7,111,,
32858,control_change,8,0,3,,,,,,,,,2,7,114,,
32858,control_change,8,0,1,,,,,,,,,0,7,113,,
32860,control_change,6,0,4,,,,,,,,,3,7,114,,
32864,control_change,6,0,1,,,,,,,,,0,7,114,,
32864,control_change,8,0,2,,,,,,,,,1,7,112,,
32864,control_change,6,0,3,,,,,,,,,2,7,115,,
32868,control_change,8,0,4,,,,,,,,,3,7,115,,
32870,control_change,6,0,3,,,,,,,,,2,7,116,,
32872,control_change,8,0,2,,,,,,,,,1,7,113,,
32872,control_change,8,0,1,,,,,,,,,0,7,115,,
32874,control_change,6,0,4,,,,,,,,,3,7,116,,
32876,control_change,6,0,3,,,,,,,,,2,7,117,,
32878,control_change,6,0,1,,,,,,,,,0,7,116,,
32880,note_on,0,0,6,,,,,,,,,5,,,63,0
32880,end_of_track,0,1,6,,,,,,,,,,,,,
32880,end_of_track,0,1,8,,,,,,,,,,,,,
32880,note_on,120,0,8,,,,,,,,,7,,,51,0
32880,control_change,6,0,4,,,,,,,,,3,7,117,,
32880,note_on,120,0,9,,,,,,,,,8,,,39,0
32880,end_of_track,0,1,9,,,,,,,,,,,,,
32880,end_of_track,0,1,0,,,,,,,,,,,,,
32880,note_on,120,0,6,,,,,,,,,5,,,55,0
32880,set_tempo,120,1,0,,,,,,3157895,,,,,,,
32880,end_of_track,0,1,7,,,,,,,,,,,,,
32880,note_on,120,0,7,,,,,,,,,6,,,55,0
32880,control_change,8,0,2,,,,,,,,,1,7,114,,
32880,end_of_track,0,1,10,,,,,,,,,,,,,
32880,note_on,120,0,10,,,,,,,,,10,,,27,0
32884,control_change,8,0,3,,,,,,,,,2,7,118,,
32886,control_change,8,0,1,,,,,,,,,0,7,117,,
32888,control_change,8,0,4,,,,,,,,,3,7,118,,
32888,control_change,8,0,2,,,,,,,,,1,7,115,,
32890,control_change,6,0,3,,,,,,,,,2,7,119,,
32892,control_change,6,0,1,,,,,,,,,0,7,118,,
32894,control_change,6,0,4,,,,,,,,,3,7,119,,
32896,control_change,6,0,3,,,,,,,,,2,7,120,,
32896,control_change,8,0,2,,,,,,,,,1,7,116,,
32900,control_change,6,0,4,,,,,,,,,3,7,120,,
32900,control_change,8,0,1,,,,,,,,,0,7,119,,
32902,control_change,6,0,3,,,,,,,,,2,7,121,,
32904,control_change,8,0,2,,,,,,,,,1,7,117,,
32906,control_change,6,0,1,,,,,,,,,0,7,120,,
32908,control_change,8,0,4,,,,,,,,,3,7,121,,
32908,control_change,6,0,3,,,,,,,,,2,7,122,,
32912,control_change,8,0,2,,,,,,,,,1,7,118,,
32914,control_change,8,0,1,,,,,,,,,0,7,121,,
32914,control_change,6,0,4,,,,,,,,,3,7,122,,
32916,control_change,8,0,3,,,,,,,,,2,7,123,,
32920,control_change,8,0,2,,,,,,,,,1,7,119,,
32920,control_change,6,0,1,,,,,,,,,0,7,122,,
32920,control_change,6,0,4,,,,,,,,,3,7,123,,
32922,control_change,6,0,3,,,,,,,,,2,7,124,,
32928,control_change,8,0,1,,,,,,,,,0,7,123,,
32928,control_change,6,0,3,,,,,,,,,2,7,125,,
32928,control_change,8,0,4,,,,,,,,,3,7,124,,
32928,control_change,8,0,2,,,,,,,,,1,7,120,,
32934,control_change,6,0,1,,,,,,,,,0,7,124,,
32934,control_change,6,0,3,,,,,,,,,2,7,126,,
32934,control_change,6,0,4,,,,,,,,,3,7,125,,
32936,control_change,8,0,2,,,,,,,,,1,7,121,,
32940,control_change,6,0,1,,,,,,,,,0,7,125,,
32940,control_change,4,0,2,,,,,,,,,1,7,122,,
32940,control_change,6,0,3,,,,,,,,,2,7,126,,
32940,control_change,6,0,4,,,,,,,,,3,7,125,,
32942,control_change,2,0,2,,,,,,,,,1,7,121,,
32942,control_change,2,0,1,,,,,,,,,0,7,126,,
32944,control_change,4,0,4,,,,,,,,,3,7,124,,
32944,control_change,4,0,3,,,,,,,,,2,7,125,,
32946,control_change,4,0,2,,,,,,,,,1,7,120,,
32946,control_change,2,0,3,,,,,,,,,2,7,124,,
32946,control_change,4,0,1,,,,,,,,,0,7,125,,
32946,control_change,2,0,4,,,,,,,,,3,7,123,,
32948,control_change,2,0,2,,,,,,,,,1,7,119,,
32948,control_change,2,0,3,,,,,,,,,2,7,123,,
32948,control_change,2,0,4,,,,,,,,,3,7,122,,
32948,control_change,2,0,1,,,,,,,,,0,7,124,,
32950,control_change,2,0,1,,,,,,,,,0,7,123,,
32950,control_change,2,0,2,,,,,,,,,1,7,118,,
32950,control_change,2,0,4,,,,,,,,,3,7,121,,
32950,control_change,2,0,3,,,,,,,,,2,7,122,,
32952,control_change,2,0,1,,,,,,,,,0,7,122,,
32954,control_change,4,0,2,,,,,,,,,1,7,117,,
32954,control_change,4,0,4,,,,,,,,,3,7,120,,
32954,control_change,4,0,3,,,,,,,,,2,7,121,,
32956,control_change,2,0,2,,,,,,,,,1,7,116,,
32956,control_change,2,0,4,,,,,,,,,3,7,119,,
32956,control_change,2,0,3,,,,,,,,,2,7,120,,
32956,control_change,4,0,1,,,,,,,,,0,7,121,,
32958,control_change,2,0,2,,,,,,,,,1,7,115,,
32958,control_change,2,0,1,,,,,,,,,0,7,120,,
32958,control_change,2,0,3,,,,,,,,,2,7,119,,
32958,control_change,2,0,4,,,,,,,,,3,7,118,,
32960,control_change,2,0,3,,,,,,,,,2,7,118,,
32960,control_change,2,0,1,,,,,,,,,0,7,119,,
32960,control_change,2,0,4,,,,,,,,,3,7,117,,
32962,control_change,4,0,2,,,,,,,,,1,7,114,,
32962,control_change,2,0,1,,,,,,,,,0,7,118,,
32964,control_change,2,0,1,,,,,,,,,0,7,117,,
32964,control_change,2,0,2,,,,,,,,,1,7,113,,
32964,control_change,4,0,4,,,,,,,,,3,7,116,,
32964,control_change,4,0,3,,,,,,,,,2,7,117,,
32966,control_change,2,0,2,,,,,,,,,1,7,112,,
32966,control_change,2,0,3,,,,,,,,,2,7,116,,
32966,control_change,2,0,4,,,,,,,,,3,7,115,,
32968,control_change,4,0,1,,,,,,,,,0,7,116,,
32968,control_change,2,0,4,,,,,,,,,3,7,114,,
32968,control_change,2,0,3,,,,,,,,,2,7,115,,
32970,control_change,2,0,3,,,,,,,,,2,7,114,,
32970,control_change,2,0,4,,,,,,,,,3,7,113,,
32970,control_change,4,0,2,,,,,,,,,1,7,111,,
32970,control_change,2,0,1,,,,,,,,,0,7,115,,
32972,control_change,2,0,1,,,,,,,,,0,7,114,,
32972,control_change,2,0,2,,,,,,,,,1,7,110,,
32974,control_change,4,0,3,,,,,,,,,2,7,113,,
32974,control_change,2,0,2,,,,,,,,,1,7,109,,
32974,control_change,2,0,1,,,,,,,,,0,7,113,,
32974,control_change,4,0,4,,,,,,,,,3,7,112,,
32976,control_change,2,0,4,,,,,,,,,3,7,111,,
32976,control_change,2,0,3,,,,,,,,,2,7,112,,
32978,control_change,4,0,2,,,,,,,,,1,7,108,,
32978,control_change,2,0,4,,,,,,,,,3,7,110,,
32978,control_change,4,0,1,,,,,,,,,0,7,112,,
32978,control_change,2,0,3,,,,,,,,,2,7,111,,
32980,control_change,2,0,3,,,,,,,,,2,7,110,,
32980,control_change,2,0,1,,,,,,,,,0,7,111,,
32980,control_change,2,0,2,,,,,,,,,1,7,107,,
32980,control_change,2,0,4,,,,,,,,,3,7,109,,
32982,control_change,2,0,1,,,,,,,,,0,7,110,,
32982,control_change,2,0,3,,,,,,,,,2,7,109,,
32982,control_change,2,0,2,,,,,,,,,1,7,106,,
32984,control_change,4,0,4,,,,,,,,,3,7,108,,
32984,control_change,2,0,1,,,,,,,,,0,7,109,,
32984,control_change,2,0,2,,,,,,,,,1,7,105,,
32986,control_change,2,0,4,,,,,,,,,3,7,107,,
32986,control_change,4,0,3,,,,,,,,,2,7,108,,
32986,control_change,2,0,1,,,,,,,,,0,7,108,,
32988,control_change,4,0,2,,,,,,,,,1,7,104,,
32988,control_change,2,0,4,,,,,,,,,3,7,106,,
32988,control_change,2,0,3,,,,,,,,,2,7,107,,
32990,control_change,2,0,2,,,,,,,,,1,7,103,,
32990,control_change,4,0,1,,,,,,,,,0,7,107,,
32990,control_change,2,0,4,,,,,,,,,3,7,105,,
32990,control_change,2,0,3,,,,,,,,,2,7,106,,
32992,control_change,2,0,3,,,,,,,,,2,7,105,,
32992,control_change,2,0,1,,,,,,,,,0,7,106,,
32992,control_change,2,0,2,,,,,,,,,1,7,102,,
32994,control_change,2,0,1,,,,,,,,,0,7,105,,
32994,control_change,4,0,4,,,,,,,,,3,7,104,,
32996,control_change,4,0,2,,,,,,,,,1,7,101,,
32996,control_change,2,0,1,,,,,,,,,0,7,104,,
32996,control_change,4,0,3,,,,,,,,,2,7,104,,
32996,control_change,2,0,4,,,,,,,,,3,7,103,,
32998,control_change,2,0,2,,,,,,,,,1,7,100,,
32998,control_change,2,0,3,,,,,,,,,2,7,103,,
32998,control_change,2,0,4,,,,,,,,,3,7,102,,
33000,control_change,4,0,1,,,,,,,,,0,7,103,,
33000,control_change,2,0,2,,,,,,,,,1,7,99,,
33000,control_change,2,0,4,,,,,,,,,3,7,101,,
33000,control_change,2,0,3,,,,,,,,,2,7,102,,
33002,control_change,2,0,3,,,,,,,,,2,7,101,,
33002,control_change,2,0,1,,,,,,,,,0,7,102,,
33004,control_change,4,0,4,,,,,,,,,3,7,100,,
33004,control_change,2,0,1,,,,,,,,,0,7,101,,
33004,control_change,4,0,2,,,,,,,,,1,7,98,,
33006,control_change,2,0,2,,,,,,,,,1,7,97,,
33006,control_change,2,0,1,,,,,,,,,0,7,100,,
33006,control_change,2,0,4,,,,,,,,,3,7,99,,
33006,control_change,4,0,3,,,,,,,,,2,7,100,,
33008,control_change,2,0,1,,,,,,,,,0,7,99,,
33008,control_change,2,0,4,,,,,,,,,3,7,98,,
33008,control_change,2,0,3,,,,,,,,,2,7,99,,
33008,control_change,2,0,2,,,,,,,,,1,7,96,,
33010,control_change,2,0,4,,,,,,,,,3,7,97,,
33010,control_change,2,0,3,,,,,,,,,2,7,98,,
33012,control_change,4,0,1,,,,,,,,,0,7,98,,
33012,control_change,4,0,2,,,,,,,,,1,7,95,,
33012,control_change,2,0,3,,,,,,,,,2,7,97,,
33014,control_change,4,0,4,,,,,,,,,3,7,96,,
33014,control_change,2,0,2,,,,,,,,,1,7,94,,
33014,control_change,2,0,1,,,,,,,,,0,7,97,,
33014,control_change,2,0,3,,,,,,,,,2,7,96,,
33016,control_change,2,0,2,,,,,,,,,1,7,93,,
33016,control_change,2,0,4,,,,,,,,,3,7,95,,
33016,control_change,2,0,1,,,,,,,,,0,7,96,,
33018,control_change,2,0,4,,,,,,,,,3,7,94,,
33018,control_change,2,0,1,,,,,,,,,0,7,95,,
33018,control_change,4,0,3,,,,,,,,,2,7,95,,
33018,control_change,2,0,2,,,,,,,,,1,7,92,,
33020,control_change,2,0,3,,,,,,,,,2,7,94,,
33020,control_change,2,0,4,,,,,,,,,3,7,93,,
33022,control_change,4,0,2,,,,,,,,,1,7,91,,
33022,control_change,4,0,1,,,,,,,,,0,7,94,,
33022,control_change,2,0,3,,,,,,,,,2,7,93,,
33024,control_change,2,0,3,,,,,,,,,2,7,92,,
33024,control_change,4,0,4,,,,,,,,,3,7,92,,
33024,control_change,2,0,2,,,,,,,,,1,7,90,,
33024,control_change,2,0,1,,,,,,,,,0,7,93,,
33026,control_change,2,0,2,,,,,,,,,1,7,89,,
33026,control_change,2,0,1,,,,,,,,,0,7,92,,
33026,control_change,2,0,4,,,,,,,,,3,7,91,,
33028,control_change,4,0,3,,,,,,,,,2,7,91,,
33028,control_change,2,0,4,,,,,,,,,3,7,90,,
33028,control_change,2,0,1,,,,,,,,,0,7,91,,
33030,control_change,2,0,3,,,,,,,,,2,7,90,,
33030,control_change,2,0,1,,,,,,,,,0,7,90,,
33030,control_change,4,0,2,,,,,,,,,1,7,88,,
33030,control_change,2,0,4,,,,,,,,,3,7,89,,
33032,control_change,2,0,2,,,,,,,,,1,7,87,,
33032,control_change,2,0,3,,,,,,,,,2,7,89,,
33034,control_change,2,0,3,,,,,,,,,2,7,88,,
33034,control_change,4,0,1,,,,,,,,,0,7,89,,
33034,control_change,2,0,2,,,,,,,,,1,7,86,,
33034,control_change,4,0,4,,,,,,,,,3,7,88,,
33036,control_change,2,0,1,,,,,,,,,0,7,88,,
33036,control_change,2,0,4,,,,,,,,,3,7,87,,
33038,control_change,2,0,4,,,,,,,,,3,7,86,,
33038,control_change,4,0,3,,,,,,,,,2,7,87,,
33038,control_change,2,0,1,,,,,,,,,0,7,87,,
33038,control_change,4,0,2,,,,,,,,,1,7,85,,
33040,control_change,2,0,3,,,,,,,,,2,7,86,,
33040,control_change,2,0,2,,,,,,,,,1,7,84,,
33040,control_change,2,0,1,,,,,,,,,0,7,86,,
33040,control_change,2,0,4,,,,,,,,,3,7,85,,
33042,control_change,2,0,3,,,,,,,,,2,7,85,,
33042,control_change,2,0,2,,,,,,,,,1,7,83,,
33042,control_change,2,0,1,,,,,,,,,0,7,85,,
33044,control_change,2,0,3,,,,,,,,,2,7,84,,
33044,control_change,4,0,4,,,,,,,,,3,7,84,,
33046,control_change,2,0,4,,,,,,,,,3,7,83,,
33046,control_change,4,0,1,,,,,,,,,0,7,84,,
33046,control_change,4,0,2,,,,,,,,,1,7,82,,
33048,control_change,2,0,4,,,,,,,,,3,7,82,,
33048,control_change,2,0,1,,,,,,,,,0,7,83,,
33048,control_change,2,0,2,,,,,,,,,1,7,81,,
33048,control_change,4,0,3,,,,,,,,,2,7,83,,
33050,control_change,2,0,4,,,,,,,,,3,7,81,,
33050,control_change,2,0,2,,,,,,,,,1,7,80,,
33050,control_change,2,0,1,,,,,,,,,0,7,82,,
33050,control_change,2,0,3,,,,,,,,,2,7,82,,
33052,control_change,2,0,1,,,,,,,,,0,7,81,,
33052,control_change,2,0,2,,,,,,,,,1,7,79,,
33052,control_change,2,0,3,,,,,,,,,2,7,81,,
33054,control_change,4,0,4,,,,,,,,,3,7,80,,
33054,control_change,2,0,3,,,,,,,,,2,7,80,,
33056,control_change,4,0,1,,,,,,,,,0,7,80,,
33056,control_change,2,0,3,,,,,,,,,2,7,79,,
33056,control_change,4,0,2,,,,,,,,,1,7,78,,
33056,control_change,2,0,4,,,,,,,,,3,7,79,,
33058,control_change,2,0,1,,,,,,,,,0,7,79,,
33058,control_change,2,0,4,,,,,,,,,3,7,78,,
33058,control_change,2,0,2,,,,,,,,,1,7,77,,
33060,control_change,2,0,1,,,,,,,,,0,7,78,,
33060,control_change,2,0,4,,,,,,,,,3,7,77,,
33060,control_change,4,0,3,,,,,,,,,2,7,78,,
33060,control_change,2,0,2,,,,,,,,,1,7,76,,
33062,control_change,2,0,3,,,,,,,,,2,7,77,,
33062,control_change,2,0,1,,,,,,,,,0,7,77,,
33064,control_change,2,0,1,,,,,,,,,0,7,76,,
33064,control_change,2,0,3,,,,,,,,,2,7,76,,
33064,control_change,4,0,2,,,,,,,,,1,7,75,,
33064,control_change,4,0,4,,,,,,,,,3,7,76,,
33066,control_change,2,0,3,,,,,,,,,2,7,75,,
33066,control_change,2,0,4,,,,,,,,,3,7,75,,
33066,control_change,2,0,2,,,,,,,,,1,7,74,,
33068,control_change,2,0,4,,,,,,,,,3,7,74,,
33068,control_change,2,0,2,,,,,,,,,1,7,73,,
33068,control_change,4,0,1,,,,,,,,,0,7,75,,
33070,control_change,2,0,4,,,,,,,,,3,7,73,,
33070,control_change,4,0,3,,,,,,,,,2,7,74,,
33070,control_change,2,0,1,,,,,,,,,0,7,74,,
33072,control_change,2,0,3,,,,,,,,,2,7,73,,
33072,control_change,4,0,2,,,,,,,,,1,7,72,,
33072,control_change,2,0,1,,,,,,,,,0,7,73,,
33074,control_change,4,0,4,,,,,,,,,3,7,72,,
33074,control_change,2,0,2,,,,,,,,,1,7,71,,
33074,control_change,2,0,3,,,,,,,,,2,7,72,,
33074,control_change,2,0,1,,,,,,,,,0,7,72,,
33076,control_change,2,0,4,,,,,,,,,3,7,71,,
33076,control_change,2,0,2,,,,,,,,,1,7,70,,
33076,control_change,2,0,3,,,,,,,,,2,7,71,,
33078,control_change,4,0,1,,,,,,,,,0,7,71,,
33078,control_change,2,0,4,,,,,,,,,3,7,70,,
33080,control_change,4,0,3,,,,,,,,,2,7,70,,
33080,control_change,2,0,1,,,,,,,,,0,7,70,,
33080,control_change,2,0,4,,,,,,,,,3,7,69,,
33080,control_change,4,0,2,,,,,,,,,1,7,69,,
33082,control_change,2,0,1,,,,,,,,,0,7,69,,
33082,control_change,2,0,3,,,,,,,,,2,7,69,,
33082,control_change,2,0,2,,,,,,,,,1,7,68,,
33084,control_change,2,0,2,,,,,,,,,1,7,67,,
33084,control_change,2,0,1,,,,,,,,,0,7,68,,
33084,control_change,4,0,4,,,,,,,,,3,7,68,,
33084,control_change,2,0,3,,,,,,,,,2,7,68,,
33086,control_change,2,0,4,,,,,,,,,3,7,67,,
33086,control_change,2,0,2,,,,,,,,,1,7,66,,
33086,control_change,2,0,3,,,,,,,,,2,7,67,,
33086,control_change,2,0,1,,,,,,,,,0,7,67,,
33088,control_change,2,0,3,,,,,,,,,2,7,66,,
33088,control_change,2,0,4,,,,,,,,,3,7,66,,
33090,control_change,4,0,2,,,,,,,,,1,7,65,,
33090,control_change,4,0,1,,,,,,,,,0,7,66,,
33090,control_change,2,0,4,,,,,,,,,3,7,65,,
33092,control_change,4,0,3,,,,,,,,,2,7,65,,
33092,control_change,2,0,2,,,,,,,,,1,7,64,,
33092,control_change,2,0,1,,,,,,,,,0,7,65,,
33094,control_change,4,0,4,,,,,,,,,3,7,64,,
33094,control_change,2,0,3,,,,,,,,,2,7,64,,
33094,control_change,2,0,2,,,,,,,,,1,7,63,,
33094,control_change,2,0,1,,,,,,,,,0,7,64,,
33096,control_change,2,0,1,,,,,,,,,0,7,63,,
33096,control_change,2,0,3,,,,,,,,,2,7,63,,
33096,control_change,2,0,4,,,,,,,,,3,7,63,,
33098,control_change,2,0,3,,,,,,,,,2,7,62,,
33098,control_change,4,0,2,,,,,,,,,1,7,62,,
33098,control_change,2,0,4,,,,,,,,,3,7,62,,
33100,control_change,2,0,4,,,,,,,,,3,7,61,,
33100,control_change,4,0,1,,,,,,,,,0,7,62,,
33100,control_change,2,0,2,,,,,,,,,1,7,61,,
33102,control_change,4,0,3,,,,,,,,,2,7,61,,
33102,control_change,2,0,2,,,,,,,,,1,7,60,,
33102,control_change,2,0,1,,,,,,,,,0,7,61,,
33104,control_change,4,0,4,,,,,,,,,3,7,60,,
33104,control_change,2,0,3,,,,,,,,,2,7,60,,
33104,control_change,2,0,1,,,,,,,,,0,7,60,,
33106,control_change,2,0,3,,,,,,,,,2,7,59,,
33106,control_change,4,0,2,,,,,,,,,1,7,59,,
33106,control_change,2,0,4,,,,,,,,,3,7,59,,
33106,control_change,2,0,1,,,,,,,,,0,7,59,,
33108,control_change,2,0,4,,,,,,,,,3,7,58,,
33108,control_change,2,0,2,,,,,,,,,1,7,58,,
33108,control_change,2,0,1,,,,,,,,,0,7,58,,
33108,control_change,2,0,3,,,,,,,,,2,7,58,,
33110,control_change,2,0,2,,,,,,,,,1,7,57,,
33110,control_change,2,0,4,,,,,,,,,3,7,57,,
33112,control_change,4,0,3,,,,,,,,,2,7,57,,
33112,control_change,4,0,1,,,,,,,,,0,7,57,,
33114,control_change,2,0,3,,,,,,,,,2,7,56,,
33114,control_change,4,0,4,,,,,,,,,3,7,56,,
33114,control_change,2,0,1,,,,,,,,,0,7,56,,
33114,control_change,4,0,2,,,,,,,,,1,7,56,,
33116,control_change,2,0,4,,,,,,,,,3,7,55,,
33116,control_change,2,0,2,,,,,,,,,1,7,55,,
33116,control_change,2,0,3,,,,,,,,,2,7,55,,
33116,control_change,2,0,1,,,,,,,,,0,7,55,,
33118,control_change,2,0,2,,,,,,,,,1,7,54,,
33118,control_change,2,0,4,,,,,,,,,3,7,54,,
33118,control_change,2,0,3,,,,,,,,,2,7,54,,
33118,control_change,2,0,1,,,,,,,,,0,7,54,,
33120,end_of_track,0,1,3,,,,,,,,,,,,,
33120,note_on,2,0,1,,,,,,,,,0,,,87,0
33120,control_change,0,0,1,,,,,,,,,0,7,53,,
33120,end_of_track,0,1,1,,,,,,,,,,,,,
33120,note_on,0,0,3,,,,,,,,,2,,,55,0
33120,note_on,2,0,2,,,,,,,,,1,,,67,0
33120,note_on,0,0,2,,,,,,,,,1,,,75,0
33120,control_change,0,0,2,,,,,,,,,1,7,53,,
33120,end_of_track,0,1,2,,,,,,,,,,,,,
33120,note_on,2,0,4,,,,,,,,,3,,,39,0
33120,note_on,0,0,4,,,,,,,,,3,,,58,0
33120,control_change,0,0,4,,,,,,,,,3,7,53,,
33120,end_of_track,0,1,4,,,,,,,,,,,,,
33120,control_change,0,0,3,,,,,,,,,2,7,53,,
33120,note_on,2,0,3,,,,,,,,,2,,,51,0
