,note,step,duration,channel,velocity
0,34.0,0,96,7.0,127.0
1,34.0,0,96,6.0,127.0
2,58.0,0,288,7.0,127.0
3,53.0,288,0,7.0,100.0
4,58.0,0,0,6.0,100.0
5,62.0,0,0,6.0,100.0
6,62.0,96,288,7.0,127.0
7,53.0,0,0,6.0,100.0
8,62.0,0,96,7.0,100.0
9,58.0,0,96,7.0,100.0
10,53.0,96,0,7.0,127.0
11,62.0,0,0,6.0,100.0
12,86.0,0,96,4.0,100.0
13,82.0,0,0,4.0,127.0
14,77.0,0,0,4.0,127.0
15,74.0,0,0,4.0,127.0
16,86.0,0,192,4.0,127.0
17,58.0,0,192,7.0,127.0
18,62.0,0,192,7.0,127.0
19,53.0,0,192,6.0,100.0
20,58.0,0,192,6.0,100.0
21,62.0,0,96,7.0,100.0
22,53.0,0,96,7.0,100.0
23,58.0,0,96,7.0,100.0
24,74.0,192,96,4.0,127.0
25,62.0,0,96,6.0,100.0
26,58.0,0,0,6.0,100.0
27,53.0,0,0,6.0,100.0
28,87.0,0,96,4.0,127.0
29,82.0,0,96,4.0,127.0
30,77.0,0,0,4.0,127.0
31,62.0,96,0,6.0,100.0
32,53.0,0,0,6.0,100.0
33,58.0,0,96,7.0,100.0
34,86.0,0,0,4.0,127.0
35,82.0,0,0,4.0,127.0
36,77.0,0,0,4.0,127.0
37,74.0,0,0,4.0,127.0
38,53.0,0,0,7.0,127.0
39,62.0,0,0,7.0,127.0
40,58.0,0,0,7.0,127.0
41,53.0,0,0,7.0,127.0
42,58.0,0,0,6.0,100.0
43,50.0,0,160,6.0,100.0
44,53.0,0,160,6.0,100.0
45,77.0,0,160,4.0,127.0
46,74.0,0,160,4.0,127.0
47,70.0,192,160,4.0,127.0
48,50.0,0,160,7.0,127.0
49,82.0,0,160,4.0,127.0
50,34.0,480,96,6.0,127.0
51,34.0,0,96,7.0,127.0
52,53.0,0,288,7.0,127.0
53,58.0,96,288,7.0,127.0
54,62.0,0,288,7.0,127.0
55,65.0,0,288,7.0,127.0
56,65.0,0,96,6.0,100.0
57,53.0,0,96,7.0,100.0
58,89.0,288,96,4.0,100.0
59,86.0,0,96,4.0,100.0
60,82.0,0,96,4.0,100.0
61,77.0,0,96,4.0,100.0
62,62.0,0,96,6.0,100.0
63,58.0,0,96,7.0,100.0
64,62.0,0,96,7.0,100.0
65,65.0,0,96,7.0,100.0
66,58.0,0,96,6.0,100.0
67,53.0,0,96,6.0,100.0
68,65.0,0,192,7.0,127.0
69,62.0,192,0,7.0,100.0
70,58.0,0,0,7.0,100.0
71,53.0,96,192,7.0,127.0
72,89.0,0,192,4.0,127.0
73,86.0,0,0,4.0,127.0
74,82.0,0,0,4.0,127.0
75,77.0,0,0,4.0,127.0
76,62.0,0,192,6.0,100.0
77,53.0,0,192,6.0,100.0
78,58.0,0,0,6.0,100.0
79,65.0,0,0,6.0,100.0
80,62.0,0,96,6.0,100.0
81,53.0,96,0,6.0,100.0
82,91.0,0,96,4.0,127.0
83,65.0,0,0,7.0,100.0
84,58.0,0,0,7.0,100.0
85,53.0,0,0,7.0,100.0
86,62.0,0,96,7.0,100.0
87,82.0,0,96,4.0,127.0
88,89.0,0,96,4.0,127.0
89,53.0,0,0,7.0,127.0
90,58.0,96,0,6.0,100.0
91,62.0,0,0,6.0,100.0
92,65.0,0,0,6.0,100.0
93,86.0,0,0,4.0,127.0
94,77.0,0,0,4.0,127.0
95,58.0,0,192,7.0,127.0
96,62.0,0,192,7.0,127.0
97,65.0,0,192,7.0,127.0
98,89.0,0,192,4.0,127.0
99,82.0,0,0,4.0,127.0
100,77.0,192,0,4.0,127.0
101,53.0,0,192,6.0,100.0
102,62.0,0,0,6.0,100.0
103,86.0,0,0,4.0,127.0
104,62.0,0,160,7.0,127.0
105,58.0,0,160,7.0,127.0
106,53.0,0,160,7.0,127.0
107,53.0,0,160,6.0,100.0
108,58.0,0,160,6.0,100.0
109,74.0,0,160,4.0,127.0
110,70.0,384,96,4.0,100.0
111,72.0,96,96,4.0,100.0
112,74.0,96,384,4.0,100.0
113,64.0,0,192,7.0,100.0
114,67.0,192,192,5.0,100.0
115,65.0,192,142,7.0,100.0
116,69.0,0,142,5.0,100.0
117,72.0,0,142,4.0,100.0
118,72.0,0,96,4.0,100.0
119,59.0,192,192,7.0,100.0
120,68.0,0,192,5.0,100.0
121,74.0,96,96,4.0,100.0
122,60.0,0,192,7.0,100.0
123,67.0,96,192,5.0,100.0
124,75.0,0,384,4.0,100.0
125,69.0,0,192,5.0,100.0
126,54.0,192,192,7.0,100.0
127,70.0,0,142,5.0,100.0
128,74.0,192,142,4.0,100.0
129,55.0,0,142,7.0,127.0
130,74.0,0,96,4.0,100.0
131,51.0,192,192,7.0,100.0
132,75.0,96,96,4.0,100.0
133,67.0,0,192,5.0,100.0
134,50.0,0,192,7.0,127.0
135,65.0,0,192,5.0,100.0
136,77.0,96,288,4.0,100.0
137,70.0,0,192,5.0,100.0
138,79.0,96,96,4.0,100.0
139,49.0,192,192,7.0,100.0
140,77.0,96,96,4.0,100.0
141,67.0,0,192,5.0,100.0
142,48.0,0,192,7.0,127.0
143,75.0,96,142,4.0,100.0
144,41.0,96,192,7.0,100.0
145,77.0,96,96,4.0,100.0
146,69.0,0,192,5.0,100.0
147,75.0,0,96,4.0,100.0
148,74.0,96,96,4.0,100.0
149,70.0,0,192,5.0,100.0
150,65.0,0,192,5.0,100.0
151,46.0,96,192,7.0,127.0
152,77.0,0,96,4.0,100.0
153,67.0,96,192,5.0,100.0
154,39.0,0,192,7.0,100.0
155,72.0,0,192,5.0,100.0
156,75.0,96,96,4.0,100.0
157,41.0,96,166,7.0,127.0
158,69.0,0,166,5.0,100.0
159,72.0,0,166,4.0,100.0
160,82.0,192,96,4.0,100.0
161,84.0,96,96,4.0,100.0
162,76.0,0,192,7.0,100.0
163,86.0,96,384,4.0,100.0
164,67.0,192,192,5.0,100.0
165,84.0,0,142,4.0,100.0
166,77.0,192,142,7.0,100.0
167,69.0,0,142,5.0,100.0
168,84.0,0,96,4.0,100.0
169,86.0,96,96,4.0,100.0
170,71.0,192,192,7.0,100.0
171,68.0,0,192,5.0,100.0
172,67.0,96,192,5.0,100.0
173,72.0,0,192,7.0,100.0
174,69.0,0,192,5.0,100.0
175,87.0,0,384,4.0,100.0
176,66.0,192,192,7.0,100.0
177,67.0,192,142,7.0,100.0
178,70.0,0,142,5.0,100.0
179,86.0,0,142,4.0,100.0
180,86.0,0,96,4.0,100.0
181,67.0,192,192,5.0,100.0
182,63.0,0,192,7.0,100.0
183,87.0,96,96,4.0,100.0
184,62.0,0,192,7.0,100.0
185,65.0,96,192,5.0,100.0
186,89.0,0,288,4.0,100.0
187,70.0,192,192,5.0,100.0
188,91.0,96,96,4.0,100.0
189,61.0,0,192,7.0,100.0
190,89.0,96,96,4.0,100.0
191,67.0,0,192,5.0,100.0
192,60.0,0,192,7.0,100.0
193,87.0,96,142,4.0,100.0
194,69.0,96,160,5.0,100.0
195,53.0,0,160,7.0,100.0
196,89.0,96,96,4.0,100.0
197,87.0,0,96,4.0,100.0
198,58.0,0,192,7.0,100.0
199,65.0,96,192,5.0,100.0
200,86.0,96,142,4.0,100.0
201,54.0,96,192,7.0,100.0
202,87.0,96,96,4.0,100.0
203,86.0,96,96,4.0,100.0
204,70.0,0,384,5.0,100.0
205,53.0,0,192,7.0,100.0
206,84.0,96,96,4.0,100.0
207,86.0,96,96,4.0,100.0
208,87.0,96,94,4.0,100.0
209,69.0,0,192,5.0,100.0
210,65.0,0,192,5.0,100.0
211,51.0,0,192,7.0,100.0
212,91.0,0,94,4.0,100.0
213,50.0,0,192,7.0,127.0
214,89.0,96,96,4.0,100.0
215,70.0,0,0,5.0,100.0
216,65.0,0,192,5.0,100.0
217,91.0,0,96,4.0,100.0
218,89.0,96,96,4.0,100.0
219,49.0,96,192,7.0,100.0
220,89.0,0,96,4.0,100.0
221,87.0,96,96,4.0,100.0
222,48.0,0,192,7.0,127.0
223,67.0,96,192,5.0,100.0
224,89.0,96,96,4.0,100.0
225,41.0,0,192,7.0,100.0
226,87.0,96,0,4.0,100.0
227,69.0,0,192,5.0,100.0
228,46.0,0,192,7.0,127.0
229,86.0,96,96,4.0,100.0
230,65.0,0,192,5.0,100.0
231,87.0,0,96,4.0,100.0
232,86.0,96,0,4.0,100.0
233,42.0,96,192,7.0,100.0
234,84.0,96,96,4.0,100.0
235,70.0,0,384,5.0,100.0
236,41.0,0,192,7.0,127.0
237,86.0,0,96,4.0,100.0
238,69.0,0,192,5.0,100.0
239,65.0,96,192,5.0,100.0
240,87.0,96,96,4.0,100.0
241,39.0,0,192,7.0,100.0
242,91.0,96,96,4.0,100.0
243,65.0,0,192,5.0,100.0
244,70.0,0,192,5.0,100.0
245,89.0,96,96,4.0,100.0
246,38.0,0,192,7.0,127.0
247,76.0,0,192,5.0,100.0
248,70.0,96,192,5.0,100.0
249,37.0,0,192,7.0,127.0
250,91.0,96,192,4.0,127.0
251,75.0,96,192,5.0,100.0
252,36.0,0,192,7.0,127.0
253,92.0,96,192,4.0,127.0
254,30.0,0,160,7.0,127.0
255,75.0,0,160,5.0,127.0
256,72.0,96,160,5.0,127.0
257,93.0,96,96,4.0,127.0
258,96.0,0,96,4.0,127.0
259,70.0,96,192,5.0,127.0
260,74.0,0,192,5.0,127.0
261,94.0,96,96,4.0,127.0
262,29.0,0,192,7.0,127.0
263,93.0,0,96,4.0,127.0
264,70.0,96,160,5.0,127.0
265,75.0,0,160,5.0,127.0
266,91.0,96,96,4.0,127.0
267,39.0,0,192,7.0,127.0
268,89.0,0,48,4.0,100.0
269,86.0,96,48,4.0,100.0
270,82.0,0,48,4.0,100.0
271,41.0,0,142,7.0,127.0
272,89.0,0,48,4.0,100.0
273,93.0,0,48,4.0,100.0
274,81.0,0,48,4.0,100.0
275,84.0,192,48,4.0,100.0
276,29.0,0,142,7.0,127.0
277,41.0,0,142,7.0,127.0
278,34.0,0,96,7.0,127.0
279,46.0,0,96,7.0,127.0
280,62.0,0,96,7.0,100.0
281,53.0,96,0,7.0,100.0
282,58.0,0,96,7.0,100.0
283,62.0,0,96,7.0,100.0
284,58.0,96,0,7.0,100.0
285,53.0,0,0,7.0,100.0
286,82.0,0,336,4.0,127.0
287,86.0,0,336,4.0,127.0
288,89.0,192,336,4.0,127.0
289,94.0,0,336,4.0,127.0
290,62.0,0,96,7.0,100.0
291,50.0,96,0,7.0,100.0
292,58.0,0,0,7.0,100.0
293,53.0,0,0,7.0,100.0
294,70.0,0,336,4.0,127.0
295,82.0,96,336,4.0,127.0
296,74.0,0,336,4.0,127.0
297,58.0,0,94,7.0,100.0
298,53.0,0,94,7.0,100.0
299,50.0,96,94,7.0,100.0
300,46.0,0,768,6.0,100.0
301,34.0,0,768,6.0,100.0
302,77.0,0,48,4.0,100.0
303,86.0,96,48,4.0,100.0
304,74.0,0,48,4.0,100.0
305,53.0,0,94,7.0,100.0
306,58.0,96,94,7.0,100.0
307,62.0,0,94,7.0,100.0
308,70.0,96,48,4.0,100.0
309,74.0,0,48,4.0,100.0
310,82.0,0,48,4.0,100.0
311,50.0,96,94,7.0,100.0
312,58.0,0,94,7.0,100.0
313,74.0,0,48,4.0,100.0
314,77.0,0,48,4.0,100.0
315,86.0,96,48,4.0,100.0
316,58.0,0,94,7.0,100.0
317,53.0,0,94,7.0,100.0
318,62.0,96,94,7.0,100.0
319,75.0,0,48,4.0,100.0
320,72.0,0,48,4.0,100.0
321,84.0,96,48,4.0,100.0
322,60.0,96,94,7.0,100.0
323,58.0,0,94,7.0,100.0
324,51.0,0,94,7.0,100.0
325,34.0,0,96,7.0,127.0
326,46.0,0,96,7.0,127.0
327,58.0,96,0,7.0,100.0
328,55.0,0,0,7.0,100.0
329,63.0,0,0,7.0,100.0
330,55.0,96,0,7.0,100.0
331,58.0,0,0,7.0,100.0
332,75.0,0,336,4.0,127.0
333,79.0,0,336,4.0,127.0
334,87.0,96,336,4.0,127.0
335,63.0,0,96,7.0,100.0
336,60.0,96,0,7.0,100.0
337,58.0,0,96,7.0,100.0
338,51.0,0,0,7.0,100.0
339,58.0,0,96,7.0,100.0
340,60.0,96,0,7.0,100.0
341,72.0,0,336,4.0,127.0
342,75.0,0,336,4.0,127.0
343,84.0,96,336,4.0,127.0
344,58.0,0,94,7.0,100.0
345,51.0,0,94,7.0,100.0
346,46.0,0,768,6.0,100.0
347,34.0,0,768,6.0,100.0
348,79.0,0,48,4.0,100.0
349,87.0,0,48,4.0,100.0
350,75.0,96,48,4.0,100.0
351,58.0,0,94,7.0,100.0
352,55.0,0,94,7.0,100.0
353,63.0,96,94,7.0,100.0
354,73.0,0,48,4.0,100.0
355,85.0,96,48,4.0,100.0
356,76.0,0,48,4.0,100.0
357,61.0,0,94,7.0,100.0
358,58.0,96,94,7.0,100.0
359,52.0,0,94,7.0,100.0
360,87.0,0,48,4.0,100.0
361,78.0,0,48,4.0,100.0
362,75.0,96,48,4.0,100.0
363,58.0,96,94,7.0,100.0
364,63.0,0,94,7.0,100.0
365,54.0,0,94,7.0,100.0
366,74.0,0,48,4.0,100.0
367,86.0,96,48,4.0,100.0
368,77.0,0,48,4.0,100.0
369,58.0,96,94,7.0,100.0
370,62.0,0,94,7.0,100.0
371,53.0,0,94,7.0,100.0
372,34.0,96,96,7.0,127.0
373,46.0,0,96,7.0,127.0
374,65.0,0,96,7.0,100.0
375,56.0,0,96,7.0,100.0
376,58.0,96,96,7.0,100.0
377,56.0,96,96,7.0,100.0
378,58.0,0,96,7.0,100.0
379,65.0,96,0,7.0,100.0
380,89.0,0,336,4.0,127.0
381,80.0,0,336,4.0,127.0
382,77.0,0,336,4.0,127.0
383,58.0,0,96,7.0,100.0
384,56.0,0,96,7.0,100.0
385,62.0,96,0,7.0,100.0
386,53.0,0,0,7.0,100.0
387,58.0,0,0,7.0,100.0
388,86.0,0,336,4.0,127.0
389,74.0,0,336,4.0,127.0
390,77.0,96,336,4.0,127.0
391,58.0,0,94,7.0,100.0
392,53.0,96,94,7.0,100.0
393,62.0,0,94,7.0,100.0
394,46.0,0,768,6.0,100.0
395,34.0,0,768,6.0,100.0
396,77.0,96,48,4.0,100.0
397,80.0,0,48,4.0,100.0
398,89.0,0,48,4.0,100.0
399,56.0,96,94,7.0,100.0
400,58.0,0,94,7.0,100.0
401,65.0,0,94,7.0,100.0
402,86.0,0,48,4.0,100.0
403,78.0,0,48,4.0,100.0
404,74.0,96,48,4.0,100.0
405,62.0,96,94,7.0,100.0
406,54.0,0,94,7.0,100.0
407,58.0,0,94,7.0,100.0
408,77.0,96,48,4.0,100.0
409,80.0,0,48,4.0,100.0
410,89.0,0,48,4.0,100.0
411,58.0,0,94,7.0,100.0
412,56.0,0,94,7.0,100.0
413,65.0,96,94,7.0,100.0
414,87.0,96,48,4.0,100.0
415,75.0,0,48,4.0,100.0
416,79.0,0,48,4.0,100.0
417,63.0,0,94,7.0,100.0
418,58.0,0,94,7.0,100.0
419,55.0,96,94,7.0,100.0
420,46.0,96,96,7.0,127.0
421,34.0,0,96,7.0,127.0
422,58.0,0,96,7.0,100.0
423,63.0,96,96,7.0,100.0
424,67.0,0,96,7.0,100.0
425,58.0,96,96,7.0,100.0
426,63.0,0,96,7.0,100.0
427,67.0,0,96,7.0,100.0
428,91.0,0,336,4.0,127.0
429,79.0,0,336,4.0,127.0
430,82.0,0,336,4.0,127.0
431,67.0,0,96,7.0,100.0
432,63.0,0,96,7.0,100.0
433,58.0,96,96,7.0,100.0
434,58.0,96,96,7.0,100.0
435,55.0,0,96,7.0,100.0
436,63.0,0,96,7.0,100.0
437,55.0,96,0,7.0,100.0
438,58.0,0,96,7.0,100.0
439,63.0,0,96,7.0,100.0
440,82.0,0,336,4.0,127.0
441,75.0,96,336,4.0,127.0
442,87.0,0,336,4.0,127.0
443,79.0,0,336,4.0,127.0
444,63.0,0,94,7.0,100.0
445,58.0,0,94,7.0,100.0
446,34.0,0,768,6.0,100.0
447,46.0,0,768,6.0,100.0
448,79.0,0,48,4.0,100.0
449,82.0,96,48,4.0,100.0
450,91.0,0,48,4.0,100.0
451,58.0,96,94,7.0,100.0
452,63.0,0,94,7.0,100.0
453,67.0,0,94,7.0,100.0
454,88.0,0,48,4.0,100.0
455,82.0,0,48,4.0,100.0
456,76.0,96,48,4.0,100.0
457,64.0,96,94,7.0,100.0
458,61.0,0,94,7.0,100.0
459,58.0,0,94,7.0,100.0
460,78.0,0,48,4.0,100.0
461,82.0,0,48,4.0,100.0
462,90.0,96,48,4.0,100.0
463,58.0,0,94,7.0,100.0
464,63.0,0,94,7.0,100.0
465,66.0,96,94,7.0,100.0
466,77.0,0,48,4.0,100.0
467,82.0,96,48,4.0,100.0
468,89.0,0,48,4.0,100.0
469,62.0,0,94,7.0,100.0
470,58.0,96,94,7.0,100.0
471,65.0,0,94,7.0,100.0
472,92.0,96,48,4.0,100.0
473,80.0,0,48,4.0,100.0
474,82.0,0,48,4.0,100.0
475,65.0,0,94,7.0,100.0
476,68.0,0,94,7.0,100.0
477,58.0,96,94,7.0,100.0
478,82.0,0,48,4.0,100.0
479,90.0,96,48,4.0,100.0
480,78.0,0,48,4.0,100.0
481,62.0,0,94,7.0,100.0
482,66.0,0,94,7.0,100.0
483,58.0,96,94,7.0,100.0
484,80.0,0,48,4.0,100.0
485,92.0,0,48,4.0,100.0
486,82.0,96,48,4.0,100.0
487,65.0,0,94,7.0,100.0
488,58.0,0,94,7.0,100.0
489,68.0,96,94,7.0,100.0
490,79.0,0,48,4.0,100.0
491,82.0,96,48,4.0,100.0
492,91.0,0,48,4.0,100.0
493,58.0,0,94,7.0,100.0
494,67.0,0,94,7.0,100.0
495,63.0,96,94,7.0,100.0
496,82.0,0,48,4.0,100.0
497,87.0,0,48,4.0,100.0
498,91.0,96,48,4.0,100.0
499,94.0,0,48,4.0,100.0
500,58.0,0,94,7.0,100.0
501,60.0,0,94,7.0,100.0
502,63.0,0,94,7.0,100.0
503,67.0,96,94,7.0,100.0
504,92.0,96,48,4.0,100.0
505,80.0,0,48,4.0,100.0
506,68.0,0,94,7.0,100.0
507,58.0,0,94,7.0,100.0
508,60.0,96,94,7.0,100.0
509,63.0,0,94,7.0,100.0
510,94.0,96,48,4.0,100.0
511,82.0,0,48,4.0,100.0
512,58.0,0,94,7.0,100.0
513,63.0,0,94,7.0,100.0
514,60.0,96,94,7.0,100.0
515,70.0,0,94,7.0,100.0
516,93.0,96,48,4.0,100.0
517,81.0,0,48,4.0,100.0
518,58.0,96,94,7.0,100.0
519,60.0,0,94,7.0,100.0
520,63.0,0,94,7.0,100.0
521,69.0,0,94,7.0,100.0
522,84.0,96,160,4.0,100.0
523,96.0,0,160,4.0,100.0
524,72.0,96,94,7.0,100.0
525,60.0,0,94,7.0,100.0
526,94.0,0,160,4.0,100.0
527,82.0,96,160,4.0,100.0
528,58.0,0,94,7.0,100.0
529,70.0,96,94,7.0,100.0
530,79.0,96,160,4.0,100.0
531,91.0,0,160,4.0,100.0
532,67.0,0,94,7.0,100.0
533,55.0,96,94,7.0,100.0
534,77.0,96,160,4.0,100.0
535,89.0,0,160,4.0,100.0
536,53.0,0,94,7.0,100.0
537,65.0,96,94,7.0,100.0
538,75.0,0,160,4.0,100.0
539,87.0,96,160,4.0,100.0
540,63.0,96,94,7.0,100.0
541,51.0,0,94,7.0,100.0
542,74.0,96,160,4.0,100.0
543,86.0,0,160,4.0,100.0
544,62.0,96,94,7.0,100.0
545,50.0,0,94,7.0,100.0
546,72.0,0,160,4.0,100.0
547,84.0,96,160,4.0,100.0
548,60.0,0,94,7.0,100.0
549,48.0,96,94,7.0,100.0
550,70.0,0,160,4.0,100.0
551,82.0,96,160,4.0,100.0
552,46.0,96,94,7.0,100.0
553,58.0,0,94,7.0,100.0
554,79.0,0,142,4.0,100.0
555,67.0,96,142,4.0,100.0
556,43.0,96,94,7.0,100.0
557,55.0,0,94,7.0,100.0
558,65.0,0,142,4.0,100.0
559,77.0,96,142,4.0,100.0
560,53.0,0,94,7.0,100.0
561,41.0,96,94,7.0,100.0
562,63.0,0,142,4.0,100.0
563,75.0,96,142,4.0,100.0
564,39.0,0,94,7.0,100.0
565,51.0,96,94,7.0,100.0
566,62.0,96,142,4.0,100.0
567,74.0,0,142,4.0,100.0
568,38.0,0,94,7.0,100.0
569,50.0,96,94,7.0,100.0
570,72.0,0,48,4.0,100.0
571,60.0,96,48,4.0,100.0
572,36.0,96,94,7.0,100.0
573,48.0,0,94,7.0,100.0
574,70.0,96,48,4.0,100.0
575,58.0,0,48,4.0,100.0
576,34.0,96,94,7.0,100.0
577,46.0,0,94,7.0,100.0
578,67.0,96,48,4.0,100.0
579,55.0,0,48,4.0,100.0
580,43.0,96,94,7.0,100.0
581,31.0,0,94,7.0,100.0
582,53.0,96,48,4.0,100.0
583,65.0,0,48,4.0,100.0
584,29.0,96,94,7.0,100.0
585,41.0,0,94,7.0,100.0
586,69.0,96,48,4.0,100.0
587,33.0,96,94,7.0,100.0
588,65.0,96,48,4.0,100.0
589,29.0,96,94,7.0,100.0
590,72.0,96,48,4.0,100.0
591,36.0,96,94,7.0,100.0
592,65.0,96,48,4.0,100.0
593,29.0,96,94,7.0,100.0
594,77.0,96,48,4.0,100.0
595,41.0,96,94,7.0,100.0
596,65.0,96,48,4.0,100.0
597,29.0,96,94,7.0,100.0
598,81.0,96,48,4.0,100.0
599,45.0,96,94,7.0,100.0
600,65.0,96,48,4.0,100.0
601,29.0,96,94,7.0,100.0
602,84.0,96,48,4.0,100.0
603,48.0,96,94,7.0,100.0
604,65.0,96,48,4.0,100.0
605,29.0,96,94,7.0,100.0
606,89.0,96,48,4.0,100.0
607,53.0,96,94,7.0,100.0
608,65.0,96,48,4.0,100.0
609,29.0,96,94,7.0,100.0
610,89.0,96,48,4.0,100.0
611,53.0,96,94,7.0,100.0
612,65.0,96,48,4.0,100.0
613,29.0,96,94,7.0,100.0
614,89.0,96,48,4.0,100.0
615,53.0,96,94,7.0,100.0
616,34.0,192,94,6.0,127.0
617,34.0,0,96,7.0,127.0
618,53.0,96,288,7.0,127.0
619,58.0,0,288,7.0,127.0
620,62.0,0,288,7.0,127.0
621,86.0,0,0,4.0,127.0
622,82.0,0,0,4.0,127.0
623,74.0,0,0,4.0,127.0
624,53.0,0,96,7.0,100.0
625,58.0,0,96,7.0,100.0
626,62.0,96,0,7.0,127.0
627,77.0,0,0,4.0,127.0
628,53.0,0,192,7.0,127.0
629,58.0,0,192,7.0,127.0
630,53.0,0,96,7.0,100.0
631,58.0,0,96,7.0,100.0
632,62.0,0,96,7.0,100.0
633,87.0,0,96,4.0,100.0
634,82.0,0,0,4.0,100.0
635,77.0,0,0,4.0,100.0
636,74.0,0,0,4.0,100.0
637,86.0,96,0,4.0,127.0
638,62.0,0,0,7.0,127.0
639,53.0,0,0,7.0,127.0
640,58.0,0,0,7.0,127.0
641,58.0,192,0,7.0,127.0
642,53.0,0,0,7.0,127.0
643,74.0,0,192,4.0,127.0
644,77.0,0,192,4.0,127.0
645,82.0,0,192,4.0,127.0
646,50.0,0,160,7.0,127.0
647,70.0,0,160,4.0,127.0
648,74.0,0,160,4.0,127.0
649,77.0,0,160,4.0,127.0
650,82.0,0,160,4.0,127.0
651,34.0,0,94,6.0,127.0
652,34.0,480,96,7.0,127.0
653,62.0,0,0,7.0,100.0
654,58.0,0,0,7.0,100.0
655,53.0,0,0,7.0,100.0
656,50.0,0,0,7.0,100.0
657,77.0,0,68,4.0,100.0
658,82.0,0,68,4.0,100.0
659,74.0,288,68,4.0,100.0
660,86.0,0,68,4.0,100.0
661,74.0,0,144,4.0,127.0
662,62.0,0,144,7.0,127.0
663,50.0,96,144,7.0,127.0
664,86.0,0,144,4.0,127.0
665,74.0,0,96,4.0,100.0
666,57.0,0,0,7.0,100.0
667,54.0,96,0,7.0,100.0
668,78.0,192,96,4.0,100.0
669,86.0,0,0,4.0,100.0
670,81.0,0,0,4.0,100.0
671,50.0,0,0,7.0,100.0
672,62.0,0,0,7.0,100.0
673,86.0,96,0,4.0,127.0
674,78.0,0,0,4.0,127.0
675,74.0,0,0,4.0,127.0
676,81.0,0,192,4.0,127.0
677,78.0,0,0,4.0,127.0
678,74.0,0,0,4.0,127.0
679,57.0,0,0,7.0,127.0
680,62.0,0,192,7.0,127.0
681,54.0,0,192,7.0,127.0
682,50.0,192,0,7.0,127.0
683,81.0,0,160,4.0,127.0
684,54.0,0,160,7.0,127.0
685,86.0,0,160,4.0,127.0
686,62.0,0,160,7.0,127.0
687,50.0,480,96,7.0,100.0
688,62.0,96,256,7.0,127.0
689,74.0,0,160,4.0,100.0
690,66.0,192,160,4.0,100.0
691,69.0,0,160,4.0,100.0
692,50.0,96,96,7.0,100.0
693,62.0,96,256,7.0,127.0
694,66.0,0,160,4.0,100.0
695,69.0,192,160,4.0,100.0
696,74.0,0,160,4.0,100.0
697,50.0,96,96,7.0,100.0
698,62.0,96,256,7.0,127.0
699,69.0,0,160,4.0,100.0
700,74.0,0,160,4.0,100.0
701,66.0,192,160,4.0,100.0
702,50.0,96,96,7.0,100.0
703,62.0,96,256,7.0,127.0
704,66.0,0,160,4.0,100.0
705,69.0,192,160,4.0,100.0
706,74.0,0,160,4.0,100.0
707,50.0,96,96,7.0,100.0
708,60.0,96,256,7.0,127.0
709,57.0,0,256,7.0,127.0
710,78.0,192,160,4.0,100.0
711,74.0,0,160,4.0,100.0
712,72.0,0,160,4.0,100.0
713,69.0,0,160,4.0,100.0
714,50.0,96,96,7.0,100.0
715,60.0,96,256,7.0,127.0
716,57.0,0,256,7.0,127.0
717,69.0,192,160,4.0,100.0
718,72.0,0,160,4.0,100.0
719,74.0,0,160,4.0,100.0
720,78.0,0,160,4.0,100.0
721,50.0,96,96,7.0,100.0
722,54.0,96,256,7.0,127.0
723,57.0,0,256,7.0,127.0
724,81.0,0,160,4.0,100.0
725,78.0,0,160,4.0,100.0
726,72.0,192,160,4.0,100.0
727,69.0,0,160,4.0,100.0
728,50.0,96,94,7.0,100.0
729,45.0,0,256,6.0,100.0
730,45.0,96,256,7.0,127.0
731,84.0,0,160,4.0,100.0
732,72.0,192,160,4.0,100.0
733,78.0,0,160,4.0,100.0
734,81.0,0,160,4.0,100.0
735,50.0,96,94,7.0,127.0
736,45.0,96,256,6.0,100.0
737,45.0,0,256,7.0,127.0
738,78.0,192,160,4.0,100.0
739,81.0,0,160,4.0,100.0
740,90.0,0,160,4.0,100.0
741,84.0,0,160,4.0,100.0
742,50.0,96,94,7.0,100.0
743,43.0,96,256,6.0,100.0
744,43.0,0,256,7.0,127.0
745,81.0,0,160,4.0,100.0
746,84.0,0,160,4.0,100.0
747,93.0,192,160,4.0,100.0
748,50.0,96,94,7.0,100.0
749,42.0,96,256,6.0,100.0
750,42.0,0,256,7.0,127.0
751,96.0,192,160,4.0,100.0
752,84.0,0,160,4.0,100.0
753,93.0,0,160,4.0,100.0
754,50.0,96,94,7.0,100.0
755,39.0,96,256,7.0,127.0
756,39.0,0,256,6.0,100.0
757,84.0,0,160,4.0,100.0
758,90.0,192,160,4.0,100.0
759,93.0,0,160,4.0,100.0
760,96.0,0,160,4.0,100.0
761,50.0,96,94,7.0,100.0
762,96.0,96,160,4.0,100.0
763,93.0,0,160,4.0,100.0
764,90.0,0,160,4.0,100.0
765,84.0,0,160,4.0,100.0
766,38.0,0,160,7.0,127.0
767,50.0,0,160,7.0,127.0
768,75.0,192,96,7.0,100.0
769,81.0,0,96,4.0,100.0
770,84.0,0,96,4.0,100.0
771,74.0,96,96,7.0,100.0
772,80.0,0,96,4.0,100.0
773,83.0,0,96,4.0,100.0
774,81.0,96,142,4.0,100.0
775,84.0,0,142,4.0,100.0
776,75.0,0,142,7.0,100.0
777,74.0,0,96,7.0,100.0
778,69.0,0,96,4.0,100.0
779,66.0,192,96,4.0,100.0
780,73.0,96,96,7.0,100.0
781,70.0,0,96,4.0,100.0
782,67.0,0,96,4.0,100.0
783,66.0,0,142,4.0,100.0
784,74.0,96,142,7.0,100.0
785,69.0,0,142,4.0,100.0
786,63.0,0,96,7.0,100.0
787,81.0,192,96,4.0,100.0
788,84.0,0,96,4.0,100.0
789,62.0,96,96,7.0,100.0
790,80.0,0,96,4.0,100.0
791,83.0,0,96,4.0,100.0
792,84.0,0,160,4.0,100.0
793,63.0,96,160,7.0,100.0
794,81.0,0,160,4.0,100.0
795,62.0,0,96,7.0,100.0
796,90.0,192,96,4.0,100.0
797,61.0,0,96,7.0,100.0
798,93.0,96,96,4.0,100.0
799,96.0,0,96,4.0,100.0
800,62.0,96,160,7.0,100.0
801,98.0,96,96,4.0,100.0
802,96.0,96,96,4.0,100.0
803,95.0,96,96,4.0,100.0
804,50.0,0,96,7.0,100.0
805,96.0,0,96,4.0,100.0
806,54.0,96,160,7.0,127.0
807,98.0,96,96,4.0,100.0
808,100.0,96,96,4.0,100.0
809,96.0,0,96,4.0,100.0
810,57.0,96,96,7.0,100.0
811,93.0,96,96,4.0,100.0
812,60.0,0,160,7.0,127.0
813,95.0,96,96,4.0,100.0
814,96.0,96,96,4.0,100.0
815,93.0,96,96,4.0,100.0
816,66.0,0,96,7.0,100.0
817,90.0,96,96,4.0,100.0
818,69.0,0,160,7.0,127.0
819,91.0,96,96,4.0,100.0
820,72.0,96,96,7.0,100.0
821,93.0,0,96,4.0,100.0
822,90.0,96,96,4.0,100.0
823,69.0,0,96,7.0,100.0
824,81.0,96,96,7.0,100.0
825,84.0,0,96,4.0,100.0
826,86.0,96,96,4.0,100.0
827,83.0,0,96,7.0,100.0
828,88.0,0,96,4.0,100.0
829,84.0,96,96,7.0,100.0
830,84.0,0,96,4.0,100.0
831,81.0,96,96,7.0,100.0
832,72.0,96,96,7.0,100.0
833,81.0,0,96,4.0,100.0
834,83.0,96,96,4.0,100.0
835,74.0,0,96,7.0,100.0
836,84.0,96,96,4.0,100.0
837,76.0,0,96,7.0,100.0
838,81.0,96,96,4.0,100.0
839,72.0,0,96,7.0,100.0
840,78.0,96,96,4.0,100.0
841,69.0,0,96,7.0,100.0
842,71.0,96,96,7.0,100.0
843,79.0,0,96,4.0,100.0
844,81.0,0,96,4.0,100.0
845,72.0,96,96,7.0,100.0
846,78.0,96,96,4.0,100.0
847,69.0,0,96,7.0,100.0
848,66.0,96,96,7.0,100.0
849,74.0,0,160,4.0,100.0
850,72.0,0,160,4.0,100.0
851,69.0,0,160,4.0,100.0
852,67.0,96,96,7.0,100.0
853,69.0,96,96,7.0,100.0
854,66.0,96,96,7.0,100.0
855,95.0,0,96,4.0,100.0
856,71.0,96,142,7.0,100.0
857,67.0,0,142,7.0,100.0
858,62.0,0,142,7.0,100.0
859,96.0,96,96,4.0,100.0
860,95.0,96,96,4.0,100.0
861,93.0,96,96,4.0,100.0
862,50.0,0,96,7.0,100.0
863,95.0,96,96,4.0,100.0
864,55.0,0,160,7.0,127.0
865,96.0,96,96,4.0,100.0
866,98.0,96,96,4.0,100.0
867,95.0,0,96,4.0,100.0
868,59.0,96,96,7.0,100.0
869,91.0,96,96,4.0,100.0
870,62.0,0,160,7.0,127.0
871,93.0,96,96,4.0,100.0
872,95.0,96,96,4.0,100.0
873,91.0,96,96,4.0,100.0
874,67.0,0,96,7.0,100.0
875,86.0,96,96,4.0,100.0
876,71.0,0,160,7.0,127.0
877,90.0,96,96,4.0,100.0
878,91.0,96,96,4.0,100.0
879,86.0,96,96,4.0,100.0
880,74.0,0,96,7.0,100.0
881,79.0,96,96,7.0,100.0
882,83.0,0,96,4.0,100.0
883,81.0,0,96,7.0,100.0
884,84.0,96,96,4.0,100.0
885,83.0,0,96,7.0,100.0
886,86.0,96,96,4.0,100.0
887,83.0,0,96,4.0,100.0
888,79.0,96,96,7.0,100.0
889,79.0,96,96,4.0,100.0
890,71.0,0,96,7.0,100.0
891,72.0,0,96,7.0,100.0
892,81.0,96,96,4.0,100.0
893,74.0,96,96,7.0,100.0
894,83.0,0,96,4.0,100.0
895,79.0,0,96,4.0,100.0
896,71.0,96,96,7.0,100.0
897,74.0,96,96,4.0,100.0
898,67.0,0,96,7.0,100.0
899,69.0,0,96,7.0,100.0
900,78.0,96,96,4.0,100.0
901,79.0,0,96,4.0,100.0
902,71.0,96,96,7.0,100.0
903,71.0,0,96,4.0,100.0
904,67.0,96,96,7.0,100.0
905,71.0,96,96,7.0,100.0
906,67.0,0,96,4.0,100.0
907,72.0,96,96,7.0,100.0
908,69.0,0,96,4.0,100.0
909,74.0,96,96,7.0,100.0
910,71.0,0,96,4.0,100.0
911,71.0,0,94,7.0,100.0
912,67.0,96,96,4.0,100.0
913,72.0,0,96,7.0,100.0
914,69.0,0,142,4.0,100.0
915,62.0,96,142,4.0,100.0
916,66.0,0,142,4.0,100.0
917,74.0,96,96,7.0,100.0
918,88.0,96,96,4.0,100.0
919,72.0,0,96,7.0,100.0
920,71.0,0,96,7.0,100.0
921,86.0,96,96,4.0,100.0
922,88.0,96,96,4.0,100.0
923,72.0,0,96,7.0,100.0
924,86.0,0,96,4.0,100.0
925,74.0,96,96,7.0,100.0
926,84.0,96,96,4.0,100.0
927,76.0,0,96,7.0,100.0
928,88.0,96,96,4.0,100.0
929,72.0,0,96,7.0,100.0
930,69.0,96,96,7.0,100.0
931,84.0,0,96,4.0,100.0
932,83.0,0,96,4.0,100.0
933,71.0,96,96,7.0,100.0
934,81.0,0,96,4.0,100.0
935,72.0,96,96,7.0,100.0
936,84.0,96,96,4.0,100.0
937,69.0,0,96,7.0,100.0
938,81.0,0,96,4.0,100.0
939,66.0,96,96,7.0,100.0
940,67.0,96,96,7.0,100.0
941,79.0,0,96,4.0,100.0
942,78.0,0,96,4.0,100.0
943,69.0,96,96,7.0,100.0
944,66.0,0,96,7.0,100.0
945,81.0,96,96,4.0,100.0
946,76.0,0,96,4.0,100.0
947,60.0,96,96,7.0,100.0
948,74.0,96,96,4.0,100.0
949,62.0,0,96,7.0,100.0
950,72.0,96,96,4.0,100.0
951,64.0,0,96,7.0,100.0
952,60.0,0,96,7.0,100.0
953,76.0,96,96,4.0,100.0
954,57.0,0,96,7.0,100.0
955,72.0,96,96,4.0,100.0
956,71.0,96,96,4.0,100.0
957,59.0,0,96,7.0,100.0
958,69.0,96,96,4.0,100.0
959,60.0,0,96,7.0,100.0
960,57.0,0,96,7.0,100.0
961,72.0,96,96,4.0,100.0
962,69.0,0,96,4.0,100.0
963,54.0,96,96,7.0,100.0
964,55.0,0,96,7.0,100.0
965,67.0,96,96,4.0,100.0
966,57.0,96,96,7.0,100.0
967,66.0,0,96,4.0,100.0
968,69.0,0,96,4.0,100.0
969,54.0,96,96,7.0,100.0
970,69.0,96,96,7.0,100.0
971,72.0,0,96,4.0,100.0
972,71.0,96,96,4.0,100.0
973,67.0,0,96,7.0,100.0
974,69.0,96,96,4.0,100.0
975,66.0,0,96,7.0,100.0
976,69.0,96,94,7.0,100.0
977,72.0,0,96,4.0,100.0
978,71.0,0,96,7.0,100.0
979,67.0,0,142,4.0,100.0
980,62.0,96,142,4.0,100.0
981,72.0,96,96,7.0,100.0
982,71.0,0,96,7.0,100.0
983,98.0,96,96,4.0,100.0
984,96.0,0,96,4.0,100.0
985,69.0,96,96,7.0,100.0
986,71.0,96,96,7.0,100.0
987,98.0,0,96,4.0,100.0
988,96.0,0,96,4.0,100.0
989,72.0,96,96,7.0,100.0
990,74.0,0,96,7.0,100.0
991,95.0,96,96,4.0,100.0
992,71.0,96,96,7.0,100.0
993,98.0,0,96,4.0,100.0
994,67.0,96,96,7.0,100.0
995,95.0,0,96,4.0,100.0
996,93.0,0,96,4.0,100.0
997,69.0,96,96,7.0,100.0
998,91.0,96,96,4.0,100.0
999,71.0,0,96,7.0,100.0
1000,95.0,96,96,4.0,100.0
1001,67.0,0,96,7.0,100.0
1002,83.0,96,96,4.0,100.0
1003,62.0,0,96,7.0,100.0
1004,81.0,96,96,4.0,100.0
1005,66.0,0,96,7.0,100.0
1006,67.0,0,96,7.0,100.0
1007,79.0,96,96,4.0,100.0
1008,83.0,96,96,4.0,100.0
1009,62.0,0,96,7.0,100.0
1010,59.0,96,96,7.0,100.0
1011,74.0,0,96,4.0,100.0
1012,72.0,96,96,4.0,100.0
1013,60.0,0,96,7.0,100.0
1014,71.0,0,96,4.0,100.0
1015,62.0,96,96,7.0,100.0
1016,59.0,0,96,7.0,100.0
1017,74.0,96,96,4.0,100.0
1018,83.0,96,96,4.0,100.0
1019,55.0,0,96,7.0,100.0
1020,81.0,0,96,4.0,100.0
1021,57.0,96,96,7.0,100.0
1022,79.0,0,96,4.0,100.0
1023,59.0,96,96,7.0,100.0
1024,83.0,96,96,4.0,100.0
1025,55.0,0,96,7.0,100.0
1026,50.0,0,96,7.0,100.0
1027,86.0,96,96,4.0,100.0
1028,84.0,96,96,4.0,100.0
1029,54.0,0,96,7.0,100.0
1030,55.0,0,96,7.0,100.0
1031,83.0,96,96,4.0,100.0
1032,86.0,0,96,4.0,100.0
1033,50.0,96,96,7.0,100.0
1034,48.0,0,96,7.0,100.0
1035,88.0,96,160,4.0,100.0
1036,55.0,96,96,7.0,100.0
1037,50.0,0,96,7.0,100.0
1038,81.0,96,160,4.0,100.0
1039,86.0,0,160,4.0,100.0
1040,90.0,0,160,4.0,100.0
1041,48.0,96,96,7.0,100.0
1042,79.0,0,142,4.0,100.0
1043,86.0,0,142,4.0,100.0
1044,91.0,96,142,4.0,100.0
1045,47.0,0,192,7.0,100.0
1046,55.0,192,192,7.0,100.0
1047,43.0,0,192,7.0,100.0
1048,48.0,0,94,7.0,127.0
1049,52.0,192,94,7.0,127.0
1050,60.0,192,96,7.0,100.0
1051,57.0,96,96,7.0,100.0
1052,54.0,96,192,7.0,100.0
1053,69.0,0,192,4.0,100.0
1054,66.0,0,192,4.0,100.0
1055,62.0,192,192,7.0,100.0
1056,50.0,0,192,7.0,100.0
1057,55.0,0,94,7.0,127.0
1058,67.0,0,94,4.0,100.0
1059,59.0,0,94,7.0,127.0
1060,71.0,192,94,4.0,100.0
1061,83.0,192,96,4.0,100.0
1062,91.0,0,96,4.0,100.0
1063,81.0,96,96,4.0,100.0
1064,90.0,0,96,4.0,100.0
1065,64.0,0,384,7.0,100.0
1066,55.0,0,384,7.0,100.0
1067,91.0,0,192,4.0,100.0
1068,83.0,0,0,4.0,100.0
1069,64.0,0,192,7.0,100.0
1070,55.0,192,192,7.0,100.0
1071,79.0,0,192,4.0,100.0
1072,88.0,0,192,4.0,100.0
1073,78.0,0,192,4.0,100.0
1074,66.0,192,192,7.0,100.0
1075,81.0,0,192,4.0,100.0
1076,86.0,0,192,4.0,100.0
1077,57.0,192,0,7.0,100.0
1078,67.0,0,96,7.0,100.0
1079,76.0,0,192,4.0,100.0
1080,69.0,96,96,7.0,100.0
1081,85.0,0,192,4.0,100.0
1082,79.0,96,0,4.0,100.0
1083,69.0,0,192,7.0,100.0
1084,88.0,0,192,4.0,100.0
1085,71.0,0,144,7.0,100.0
1086,73.0,144,48,7.0,100.0
1087,78.0,0,192,4.0,100.0
1088,86.0,192,192,4.0,100.0
1089,62.0,0,528,7.0,100.0
1090,62.0,0,528,6.0,100.0
1091,74.0,0,160,7.0,100.0
1092,78.0,48,160,4.0,100.0
1093,86.0,0,160,4.0,100.0
1094,76.0,0,96,7.0,100.0
1095,86.0,192,96,4.0,100.0
1096,79.0,0,96,4.0,100.0
1097,78.0,96,96,7.0,100.0
1098,81.0,0,96,4.0,100.0
1099,84.0,0,96,4.0,100.0
1100,83.0,0,160,4.0,100.0
1101,79.0,96,192,7.0,100.0
1102,71.0,0,192,7.0,100.0
1103,74.0,0,192,7.0,100.0
1104,91.0,192,192,4.0,100.0
1105,79.0,0,256,4.0,100.0
1106,72.0,192,94,7.0,100.0
1107,76.0,0,94,7.0,100.0
1108,88.0,0,94,4.0,100.0
1109,69.0,0,96,7.0,100.0
1110,96.0,0,96,4.0,100.0
1111,84.0,192,96,4.0,100.0
1112,88.0,0,96,4.0,100.0
1113,93.0,0,96,4.0,100.0
1114,72.0,96,96,7.0,100.0
1115,90.0,0,160,4.0,100.0
1116,74.0,0,192,7.0,100.0
1117,69.0,0,192,7.0,100.0
1118,66.0,192,192,7.0,100.0
1119,98.0,0,192,4.0,100.0
1120,86.0,0,256,4.0,100.0
1121,67.0,192,94,7.0,100.0
1122,71.0,0,94,7.0,100.0
1123,95.0,0,94,4.0,100.0
1124,91.0,192,96,4.0,100.0
1125,90.0,96,96,4.0,100.0
1126,67.0,0,192,7.0,100.0
1127,71.0,96,192,7.0,100.0
1128,64.0,192,0,7.0,100.0
1129,91.0,0,192,4.0,100.0
1130,88.0,0,192,4.0,100.0
1131,72.0,0,192,7.0,100.0
1132,67.0,0,192,7.0,100.0
1133,67.0,0,94,6.0,100.0
1134,69.0,96,94,6.0,100.0
1135,72.0,0,192,7.0,100.0
1136,64.0,0,192,7.0,100.0
1137,84.0,192,192,4.0,100.0
1138,63.0,0,192,7.0,100.0
1139,71.0,192,0,7.0,100.0
1140,66.0,0,0,7.0,100.0
1141,78.0,0,192,4.0,100.0
1142,83.0,0,192,4.0,100.0
1143,63.0,0,160,7.0,100.0
1144,78.0,0,192,5.0,100.0
1145,81.0,0,96,5.0,100.0
1146,63.0,0,192,7.0,100.0
1147,79.0,96,0,5.0,100.0
1148,59.0,192,192,7.0,100.0
1149,83.0,0,528,4.0,100.0
1150,67.0,0,192,7.0,100.0
1151,64.0,0,192,7.0,100.0
1152,62.0,0,96,7.0,100.0
1153,65.0,0,96,7.0,100.0
1154,82.0,0,192,4.0,100.0
1155,88.0,0,192,4.0,100.0
1156,61.0,96,96,7.0,100.0
1157,64.0,0,0,7.0,100.0
1158,79.0,192,352,5.0,100.0
1159,61.0,0,160,7.0,100.0
1160,79.0,192,96,5.0,100.0
1161,77.0,96,96,5.0,100.0
1162,61.0,0,192,7.0,100.0
1163,57.0,0,192,7.0,100.0
1164,81.0,96,528,4.0,100.0
1165,77.0,96,160,5.0,100.0
1166,62.0,0,192,7.0,100.0
1167,65.0,0,192,7.0,100.0
1168,60.0,0,96,7.0,100.0
1169,63.0,0,96,7.0,100.0
1170,59.0,96,96,7.0,100.0
1171,80.0,0,192,4.0,100.0
1172,86.0,0,192,4.0,100.0
1173,62.0,0,96,7.0,100.0
1174,59.0,0,160,7.0,100.0
1175,62.0,0,160,7.0,100.0
1176,77.0,192,96,5.0,100.0
1177,76.0,96,96,5.0,100.0
1178,59.0,0,192,7.0,100.0
1179,55.0,0,192,7.0,100.0
1180,79.0,96,528,4.0,100.0
1181,76.0,0,160,5.0,100.0
1182,64.0,96,192,7.0,100.0
1183,60.0,0,192,7.0,100.0
1184,62.0,0,96,7.0,100.0
1185,59.0,0,96,7.0,100.0
1186,61.0,96,96,7.0,100.0
1187,58.0,96,0,7.0,100.0
1188,79.0,192,192,4.0,100.0
1189,85.0,0,192,4.0,100.0
1190,76.0,0,352,5.0,100.0
1191,61.0,0,160,7.0,100.0
1192,76.0,192,96,5.0,100.0
1193,58.0,0,192,7.0,100.0
1194,54.0,0,192,7.0,100.0
1195,75.0,96,96,5.0,100.0
1196,78.0,0,528,4.0,100.0
1197,74.0,96,160,5.0,100.0
1198,59.0,0,192,7.0,100.0
1199,62.0,0,192,7.0,100.0
1200,60.0,0,96,7.0,100.0
1201,57.0,192,96,7.0,100.0
1202,56.0,96,96,7.0,100.0
1203,83.0,0,192,4.0,100.0
1204,77.0,96,0,4.0,100.0
1205,59.0,0,96,7.0,100.0
1206,74.0,0,352,5.0,100.0
1207,59.0,0,160,6.0,100.0
1208,56.0,0,160,7.0,100.0
1209,76.0,96,160,4.0,100.0
1210,57.0,0,96,7.0,100.0
1211,73.0,96,160,5.0,100.0
1212,64.0,0,192,6.0,100.0
1213,55.0,96,96,7.0,100.0
1214,81.0,0,96,4.0,100.0
1215,75.0,0,96,4.0,100.0
1216,72.0,0,160,5.0,100.0
1217,57.0,0,192,6.0,100.0
1218,54.0,96,192,7.0,100.0
1219,55.0,0,96,7.0,100.0
1220,74.0,96,192,4.0,100.0
1221,71.0,96,160,5.0,100.0
1222,79.0,0,94,4.0,100.0
1223,59.0,0,192,6.0,100.0
1224,47.0,96,96,7.0,100.0
1225,74.0,0,96,4.0,100.0
1226,86.0,96,96,4.0,100.0
1227,85.0,96,96,4.0,100.0
1228,84.0,96,96,4.0,100.0
1229,81.0,96,96,4.0,100.0
1230,78.0,96,96,4.0,100.0
1231,75.0,96,96,4.0,100.0
1232,74.0,96,96,4.0,100.0
1233,73.0,96,96,4.0,100.0
1234,72.0,96,96,4.0,100.0
1235,69.0,96,96,4.0,100.0
1236,60.0,0,1104,6.0,100.0
1237,45.0,0,1104,7.0,127.0
1238,50.0,96,1104,7.0,127.0
1239,66.0,96,96,4.0,100.0
1240,63.0,96,96,5.0,100.0
1241,67.0,0,160,4.0,100.0
1242,62.0,96,94,5.0,100.0
1243,76.0,96,96,4.0,100.0
1244,59.0,0,336,6.0,100.0
1245,47.0,0,336,7.0,100.0
1246,50.0,0,336,7.0,100.0
1247,59.0,0,336,7.0,100.0
1248,67.0,0,160,5.0,100.0
1249,74.0,96,96,4.0,100.0
1250,74.0,0,96,4.0,100.0
1251,86.0,96,96,4.0,100.0
1252,85.0,96,96,4.0,100.0
1253,84.0,96,96,4.0,100.0
1254,81.0,96,96,4.0,100.0
1255,78.0,96,96,4.0,100.0
1256,75.0,96,96,4.0,100.0
1257,74.0,96,96,4.0,100.0
1258,73.0,96,96,4.0,100.0
1259,72.0,96,96,4.0,100.0
1260,69.0,96,96,4.0,100.0
1261,60.0,96,1104,6.0,100.0
1262,45.0,0,1104,7.0,127.0
1263,50.0,0,1104,7.0,127.0
1264,66.0,96,96,4.0,100.0
1265,63.0,0,96,5.0,100.0
1266,67.0,0,160,4.0,100.0
1267,62.0,96,94,5.0,100.0
1268,76.0,0,96,4.0,100.0
1269,59.0,0,336,7.0,100.0
1270,50.0,0,336,7.0,100.0
1271,47.0,0,336,7.0,100.0
1272,59.0,96,336,6.0,100.0
1273,67.0,96,160,5.0,100.0
1274,74.0,96,96,4.0,100.0
1275,74.0,0,96,4.0,100.0
1276,71.0,0,94,5.0,100.0
1277,79.0,96,96,4.0,100.0
1278,74.0,0,94,5.0,100.0
1279,83.0,96,96,4.0,100.0
1280,72.0,96,94,5.0,100.0
1281,35.0,0,384,7.0,100.0
1282,47.0,96,384,7.0,100.0
1283,81.0,0,96,4.0,100.0
1284,71.0,96,94,5.0,100.0
1285,75.0,96,94,5.0,100.0
1286,76.0,96,94,5.0,100.0
1287,71.0,96,94,5.0,100.0
1288,52.0,0,384,7.0,100.0
1289,40.0,0,384,7.0,100.0
1290,70.0,0,94,5.0,100.0
1291,75.0,96,94,5.0,100.0
1292,76.0,96,94,5.0,100.0
1293,70.0,96,94,5.0,100.0
1294,79.0,0,768,4.0,100.0
1295,49.0,0,384,7.0,100.0
1296,37.0,96,384,7.0,100.0
1297,69.0,0,94,5.0,100.0
1298,38.0,0,160,7.0,100.0
1299,50.0,0,160,7.0,100.0
1300,73.0,96,94,5.0,100.0
1301,78.0,96,192,4.0,100.0
1302,74.0,0,94,5.0,100.0
1303,74.0,96,160,4.0,100.0
1304,86.0,96,94,5.0,100.0
1305,86.0,96,96,4.0,100.0
1306,98.0,96,96,4.0,100.0
1307,97.0,96,96,4.0,100.0
1308,96.0,96,96,4.0,100.0
1309,93.0,96,96,4.0,100.0
1310,90.0,96,96,4.0,100.0
1311,87.0,96,96,4.0,100.0
1312,86.0,96,96,4.0,100.0
1313,85.0,96,96,4.0,100.0
1314,84.0,96,96,4.0,100.0
1315,81.0,96,96,4.0,100.0
1316,57.0,0,1104,7.0,127.0
1317,62.0,0,1104,7.0,127.0
1318,72.0,0,1104,6.0,100.0
1319,78.0,96,96,4.0,100.0
1320,75.0,96,96,5.0,100.0
1321,79.0,0,160,4.0,100.0
1322,74.0,96,94,5.0,100.0
1323,88.0,96,96,4.0,100.0
1324,71.0,0,336,6.0,100.0
1325,59.0,0,336,7.0,100.0
1326,62.0,0,336,7.0,100.0
1327,71.0,0,336,7.0,100.0
1328,79.0,0,160,5.0,100.0
1329,86.0,96,96,4.0,100.0
1330,86.0,96,96,4.0,100.0
1331,98.0,96,96,4.0,100.0
1332,97.0,96,96,4.0,100.0
1333,96.0,96,96,4.0,100.0
1334,93.0,96,96,4.0,100.0
1335,90.0,96,96,4.0,100.0
1336,87.0,96,96,4.0,100.0
1337,86.0,96,96,4.0,100.0
1338,85.0,96,96,4.0,100.0
1339,84.0,96,96,4.0,100.0
1340,81.0,96,96,4.0,100.0
1341,60.0,0,1104,6.0,100.0
1342,45.0,0,1104,7.0,127.0
1343,50.0,0,1104,7.0,127.0
1344,78.0,96,96,4.0,100.0
1345,75.0,0,96,5.0,100.0
1346,47.0,0,160,7.0,100.0
1347,50.0,96,160,7.0,100.0
1348,59.0,0,160,7.0,100.0
1349,79.0,0,160,4.0,100.0
1350,74.0,96,94,5.0,100.0
1351,88.0,0,96,4.0,100.0
1352,79.0,0,160,5.0,100.0
1353,59.0,96,160,7.0,100.0
1354,86.0,96,96,4.0,100.0
1355,86.0,0,96,4.0,100.0
1356,71.0,96,94,5.0,100.0
1357,79.0,0,96,4.0,100.0
1358,74.0,0,94,5.0,100.0
1359,83.0,96,96,4.0,100.0
1360,72.0,0,94,5.0,100.0
1361,81.0,96,96,4.0,100.0
1362,59.0,96,384,7.0,127.0
1363,71.0,96,94,5.0,100.0
1364,75.0,96,94,5.0,100.0
1365,76.0,96,94,5.0,100.0
1366,71.0,96,94,5.0,100.0
1367,64.0,0,384,7.0,100.0
1368,70.0,0,94,5.0,100.0
1369,75.0,96,94,5.0,100.0
1370,76.0,96,94,5.0,100.0
1371,70.0,96,94,5.0,100.0
1372,61.0,96,384,7.0,100.0
1373,79.0,0,768,4.0,100.0
1374,69.0,0,94,5.0,100.0
1375,74.0,96,94,5.0,100.0
1376,62.0,0,192,7.0,100.0
1377,78.0,96,192,4.0,100.0
1378,67.0,0,94,5.0,100.0
1379,63.0,0,160,7.0,100.0
1380,79.0,96,160,4.0,100.0
1381,72.0,96,94,5.0,100.0
1382,79.0,0,96,4.0,100.0
1383,76.0,96,94,5.0,100.0
1384,84.0,0,96,4.0,100.0
1385,79.0,96,94,5.0,100.0
1386,88.0,0,96,4.0,100.0
1387,77.0,0,94,5.0,100.0
1388,64.0,96,384,7.0,127.0
1389,86.0,96,96,4.0,100.0
1390,76.0,96,94,5.0,100.0
1391,80.0,96,94,5.0,100.0
1392,81.0,96,94,5.0,100.0
1393,76.0,96,94,5.0,100.0
1394,69.0,0,384,7.0,100.0
1395,75.0,96,94,5.0,100.0
1396,80.0,96,94,5.0,100.0
1397,81.0,96,94,5.0,100.0
1398,75.0,96,94,5.0,100.0
1399,84.0,0,768,4.0,100.0
1400,66.0,0,384,7.0,100.0
1401,74.0,96,94,5.0,100.0
1402,79.0,96,94,5.0,100.0
1403,67.0,0,192,7.0,100.0
1404,83.0,0,192,4.0,100.0
1405,72.0,0,94,5.0,100.0
1406,84.0,96,160,4.0,100.0
1407,68.0,0,160,7.0,100.0
1408,77.0,96,94,5.0,100.0
1409,84.0,0,96,4.0,100.0
1410,81.0,96,94,5.0,100.0
1411,89.0,0,96,4.0,100.0
1412,84.0,96,94,5.0,100.0
1413,93.0,0,96,4.0,100.0
1414,82.0,96,94,5.0,100.0
1415,91.0,0,96,4.0,100.0
1416,69.0,96,384,7.0,127.0
1417,80.0,96,94,5.0,100.0
1418,77.0,96,94,5.0,100.0
1419,80.0,96,94,5.0,100.0
1420,79.0,96,94,5.0,100.0
1421,73.0,0,384,7.0,100.0
1422,80.0,0,94,5.0,100.0
1423,85.0,96,94,5.0,100.0
1424,86.0,96,94,5.0,100.0
1425,80.0,96,94,5.0,100.0
1426,71.0,96,384,7.0,100.0
1427,79.0,96,94,5.0,100.0
1428,83.0,96,94,5.0,100.0
1429,84.0,96,94,5.0,100.0
1430,79.0,96,94,5.0,100.0
1431,72.0,0,544,7.0,127.0
1432,60.0,0,544,7.0,127.0
1433,88.0,0,544,4.0,100.0
1434,84.0,96,160,5.0,100.0
1435,36.0,0,160,6.0,100.0
1436,48.0,0,160,6.0,100.0
1437,48.0,0,160,7.0,127.0
1438,36.0,0,160,7.0,127.0
1439,76.0,0,160,4.0,100.0
1440,79.0,192,160,4.0,100.0
1441,88.0,0,160,4.0,100.0
1442,84.0,0,160,4.0,100.0
1443,86.0,192,160,4.0,127.0
1444,83.0,0,160,4.0,127.0
1445,84.0,0,94,4.0,100.0
1446,88.0,192,94,4.0,100.0
1447,86.0,96,94,4.0,100.0
1448,89.0,0,94,4.0,100.0
1449,88.0,96,142,4.0,100.0
1450,91.0,0,142,4.0,100.0
1451,84.0,192,142,4.0,100.0
1452,88.0,0,142,4.0,100.0
1453,64.0,0,160,7.0,100.0
1454,60.0,0,160,7.0,100.0
1455,59.0,192,142,7.0,127.0
1456,62.0,0,142,7.0,127.0
1457,60.0,192,94,7.0,100.0
1458,64.0,0,94,7.0,100.0
1459,62.0,96,94,7.0,100.0
1460,65.0,0,94,7.0,100.0
1461,67.0,96,142,7.0,100.0
1462,64.0,0,142,7.0,100.0
1463,88.0,0,160,4.0,100.0
1464,36.0,0,160,6.0,100.0
1465,48.0,0,160,6.0,100.0
1466,84.0,0,160,4.0,100.0
1467,76.0,192,160,4.0,100.0
1468,79.0,0,160,4.0,100.0
1469,48.0,0,160,7.0,127.0
1470,36.0,0,160,7.0,127.0
1471,86.0,192,160,4.0,127.0
1472,83.0,0,160,4.0,127.0
1473,88.0,192,94,4.0,100.0
1474,84.0,0,94,4.0,100.0
1475,86.0,96,94,4.0,100.0
1476,89.0,0,94,4.0,100.0
1477,88.0,96,48,4.0,100.0
1478,91.0,0,48,4.0,100.0
1479,79.0,0,160,4.0,100.0
1480,91.0,0,160,4.0,100.0
1481,37.0,0,160,6.0,100.0
1482,88.0,0,160,4.0,100.0
1483,49.0,192,160,7.0,127.0
1484,37.0,0,160,7.0,127.0
1485,49.0,0,160,6.0,100.0
1486,81.0,0,160,4.0,100.0
1487,45.0,0,160,6.0,100.0
1488,33.0,0,160,7.0,127.0
1489,45.0,0,160,7.0,127.0
1490,91.0,384,160,4.0,100.0
1491,88.0,0,160,4.0,100.0
1492,85.0,0,160,4.0,100.0
1493,79.0,0,160,4.0,100.0
1494,33.0,0,160,6.0,100.0
1495,38.0,384,160,7.0,127.0
1496,83.0,0,160,4.0,100.0
1497,86.0,0,160,4.0,100.0
1498,91.0,0,160,4.0,100.0
1499,50.0,0,160,6.0,100.0
1500,50.0,0,160,7.0,127.0
1501,38.0,0,160,6.0,100.0
1502,79.0,0,160,4.0,100.0
1503,91.0,0,142,4.0,100.0
1504,85.0,0,142,4.0,100.0
1505,81.0,0,142,4.0,100.0
1506,79.0,0,142,4.0,100.0
1507,52.0,0,160,7.0,127.0
1508,40.0,0,160,7.0,127.0
1509,52.0,0,160,6.0,100.0
1510,40.0,384,160,6.0,100.0
1511,38.0,0,96,7.0,127.0
1512,42.0,96,96,7.0,100.0
1513,43.0,96,96,7.0,100.0
1514,86.0,192,384,4.0,100.0
1515,83.0,0,384,4.0,100.0
1516,91.0,0,384,4.0,100.0
1517,79.0,0,384,4.0,100.0
1518,47.0,96,96,7.0,100.0
1519,50.0,0,96,7.0,100.0
1520,54.0,96,96,7.0,100.0
1521,55.0,96,96,7.0,100.0
1522,59.0,96,96,7.0,100.0
1523,62.0,96,96,7.0,100.0
1524,83.0,96,576,4.0,100.0
1525,79.0,0,576,4.0,100.0
1526,86.0,0,576,4.0,100.0
1527,66.0,96,96,7.0,100.0
1528,67.0,0,96,7.0,100.0
1529,74.0,96,160,4.0,100.0
1530,79.0,0,160,4.0,100.0
1531,83.0,0,160,4.0,100.0
1532,71.0,96,94,7.0,100.0
1533,74.0,96,96,4.0,100.0
1534,78.0,96,96,4.0,100.0
1535,67.0,0,96,7.0,100.0
1536,79.0,96,96,4.0,100.0
1537,71.0,0,96,7.0,100.0
1538,83.0,96,96,4.0,100.0
1539,85.0,0,96,4.0,100.0
1540,73.0,96,96,7.0,100.0
1541,74.0,0,96,7.0,100.0
1542,86.0,96,96,4.0,100.0
1543,76.0,96,96,7.0,100.0
1544,88.0,0,96,4.0,100.0
1545,86.0,0,96,4.0,100.0
1546,74.0,96,96,7.0,100.0
1547,90.0,96,96,4.0,100.0
1548,78.0,0,96,7.0,100.0
1549,79.0,0,96,7.0,100.0
1550,91.0,96,96,4.0,100.0
1551,81.0,0,96,7.0,100.0
1552,93.0,96,96,4.0,100.0
1553,91.0,96,96,4.0,100.0
1554,79.0,0,96,7.0,100.0
1555,94.0,96,96,4.0,100.0
1556,82.0,0,96,7.0,100.0
1557,95.0,96,96,4.0,100.0
1558,83.0,0,96,7.0,100.0
1559,96.0,96,96,4.0,100.0
1560,84.0,0,96,7.0,100.0
1561,95.0,0,96,4.0,100.0
1562,83.0,96,96,7.0,100.0
1563,98.0,96,160,4.0,100.0
1564,86.0,0,160,7.0,100.0
1565,62.0,0,64,7.0,100.0
1566,64.0,64,64,7.0,100.0
1567,84.0,192,160,4.0,100.0
1568,81.0,0,160,4.0,100.0
1569,74.0,0,160,4.0,100.0
1570,66.0,64,64,7.0,100.0
1571,55.0,0,126,7.0,127.0
1572,71.0,128,126,7.0,100.0
1573,67.0,128,126,7.0,100.0
1574,66.0,128,126,7.0,100.0
1575,71.0,128,126,7.0,100.0
1576,74.0,0,720,5.0,100.0
1577,67.0,128,126,7.0,100.0
1578,79.0,64,768,4.0,100.0
1579,83.0,0,768,4.0,100.0
1580,63.0,128,126,7.0,127.0
1581,72.0,128,126,7.0,100.0
1582,79.0,0,336,5.0,100.0
1583,67.0,128,126,7.0,100.0
1584,84.0,0,384,4.0,100.0
1585,60.0,0,126,7.0,127.0
1586,72.0,128,126,7.0,100.0
1587,79.0,0,336,5.0,100.0
1588,67.0,128,126,7.0,100.0
1589,87.0,128,384,4.0,100.0
1590,84.0,0,384,4.0,100.0
1591,59.0,0,126,7.0,127.0
1592,71.0,128,126,7.0,100.0
1593,86.0,128,336,5.0,100.0
1594,67.0,128,126,7.0,100.0
1595,55.0,0,126,7.0,127.0
1596,71.0,128,126,7.0,100.0
1597,83.0,128,336,5.0,100.0
1598,67.0,128,126,7.0,100.0
1599,79.0,0,768,4.0,100.0
1600,91.0,0,768,4.0,100.0
1601,60.0,128,126,7.0,127.0
1602,72.0,128,126,7.0,100.0
1603,79.0,0,336,5.0,100.0
1604,67.0,128,126,7.0,100.0
1605,84.0,0,384,4.0,100.0
1606,87.0,0,384,4.0,100.0
1607,63.0,128,126,7.0,127.0
1608,72.0,128,126,7.0,100.0
1609,79.0,0,336,5.0,100.0
1610,67.0,128,126,7.0,100.0
1611,84.0,0,384,4.0,100.0
1612,62.0,0,126,7.0,127.0
1613,70.0,128,126,7.0,100.0
1614,67.0,128,126,7.0,100.0
1615,82.0,128,384,4.0,100.0
1616,62.0,128,126,7.0,127.0
1617,71.0,128,126,7.0,100.0
1618,79.0,0,720,5.0,100.0
1619,67.0,128,126,7.0,100.0
1620,83.0,0,384,4.0,100.0
1621,62.0,0,126,7.0,127.0
1622,72.0,128,126,7.0,100.0
1623,78.0,0,336,5.0,100.0
1624,69.0,128,126,7.0,100.0
1625,86.0,128,384,4.0,100.0
1626,50.0,0,126,7.0,127.0
1627,62.0,128,126,7.0,100.0
1628,84.0,128,288,4.0,100.0
1629,81.0,0,288,4.0,100.0
1630,74.0,64,160,5.0,100.0
1631,81.0,0,94,4.0,127.0
1632,60.0,64,126,7.0,100.0
1633,78.0,32,94,4.0,127.0
1634,79.0,0,46,5.0,100.0
1635,81.0,48,46,5.0,100.0
1636,43.0,0,96,7.0,127.0
1637,79.0,0,46,5.0,100.0
1638,74.0,0,160,5.0,100.0
1639,81.0,48,46,5.0,100.0
1640,55.0,48,96,7.0,100.0
1641,79.0,0,46,5.0,100.0
1642,81.0,48,46,5.0,100.0
1643,59.0,48,96,7.0,100.0
1644,79.0,0,46,5.0,100.0
1645,81.0,48,46,5.0,100.0
1646,55.0,48,96,7.0,100.0
1647,79.0,0,46,5.0,100.0
1648,81.0,48,46,5.0,100.0
1649,54.0,48,96,7.0,127.0
1650,79.0,0,46,5.0,100.0
1651,81.0,48,46,5.0,100.0
1652,55.0,48,96,7.0,100.0
1653,79.0,48,46,5.0,100.0
1654,81.0,48,46,5.0,100.0
1655,67.0,0,96,7.0,100.0
1656,79.0,48,46,5.0,100.0
1657,81.0,48,46,5.0,100.0
1658,83.0,96,768,4.0,127.0
1659,55.0,0,96,7.0,100.0
1660,79.0,48,46,5.0,100.0
1661,81.0,48,46,5.0,100.0
1662,52.0,0,96,7.0,127.0
1663,79.0,48,46,5.0,100.0
1664,81.0,48,46,5.0,100.0
1665,55.0,0,96,7.0,100.0
1666,79.0,0,46,5.0,100.0
1667,81.0,48,46,5.0,100.0
1668,67.0,48,96,7.0,100.0
1669,79.0,0,46,5.0,100.0
1670,81.0,48,46,5.0,100.0
1671,84.0,0,384,4.0,127.0
1672,55.0,48,96,7.0,100.0
1673,79.0,0,46,5.0,100.0
1674,81.0,48,46,5.0,100.0
1675,48.0,0,96,7.0,127.0
1676,79.0,48,46,5.0,100.0
1677,81.0,48,46,5.0,100.0
1678,55.0,0,96,7.0,100.0
1679,79.0,48,46,5.0,100.0
1680,81.0,48,46,5.0,100.0
1681,64.0,0,96,7.0,100.0
1682,79.0,48,46,5.0,100.0
1683,55.0,0,94,7.0,100.0
1684,81.0,48,46,5.0,100.0
1685,88.0,48,384,4.0,127.0
1686,79.0,0,46,5.0,100.0
1687,81.0,48,46,5.0,100.0
1688,47.0,48,94,7.0,127.0
1689,79.0,0,46,5.0,100.0
1690,81.0,48,46,5.0,100.0
1691,55.0,48,94,7.0,100.0
1692,79.0,48,46,5.0,100.0
1693,62.0,0,94,7.0,100.0
1694,81.0,48,46,5.0,100.0
1695,79.0,0,46,5.0,100.0
1696,55.0,48,94,7.0,100.0
1697,81.0,48,46,5.0,100.0
1698,79.0,0,46,5.0,100.0
1699,43.0,48,94,7.0,127.0
1700,81.0,48,46,5.0,100.0
1701,79.0,48,46,5.0,100.0
1702,81.0,48,46,5.0,100.0
1703,55.0,0,94,7.0,100.0
1704,79.0,48,46,5.0,100.0
1705,81.0,48,46,5.0,100.0
1706,59.0,0,94,7.0,100.0
1707,79.0,48,46,5.0,100.0
1708,91.0,0,720,4.0,127.0
1709,81.0,48,46,5.0,100.0
1710,55.0,0,94,7.0,100.0
1711,79.0,0,46,5.0,100.0
1712,48.0,48,94,7.0,127.0
1713,81.0,48,46,5.0,100.0
1714,79.0,48,46,5.0,100.0
1715,55.0,0,94,7.0,100.0
1716,81.0,48,46,5.0,100.0
1717,79.0,48,46,5.0,100.0
1718,64.0,0,94,7.0,100.0
1719,81.0,48,46,5.0,100.0
1720,79.0,0,46,5.0,100.0
1721,81.0,48,46,5.0,100.0
1722,55.0,48,94,7.0,100.0
1723,88.0,0,384,4.0,127.0
1724,79.0,0,46,5.0,100.0
1725,52.0,0,94,7.0,127.0
1726,81.0,48,46,5.0,100.0
1727,79.0,48,46,5.0,100.0
1728,81.0,48,46,5.0,100.0
1729,55.0,0,94,7.0,100.0
1730,79.0,48,46,5.0,100.0
1731,81.0,48,46,5.0,100.0
1732,67.0,0,94,7.0,100.0
1733,79.0,0,46,5.0,100.0
1734,55.0,48,94,7.0,100.0
1735,81.0,48,46,5.0,100.0
1736,84.0,48,384,4.0,127.0
1737,79.0,0,46,5.0,100.0
1738,81.0,48,46,5.0,100.0
1739,50.0,48,94,7.0,127.0
1740,79.0,0,46,5.0,100.0
1741,81.0,48,46,5.0,100.0
1742,52.0,48,94,7.0,100.0
1743,82.0,0,192,4.0,127.0
1744,79.0,0,46,5.0,100.0
1745,81.0,48,46,5.0,100.0
1746,54.0,48,94,7.0,100.0
1747,79.0,0,46,5.0,100.0
1748,55.0,48,94,7.0,100.0
1749,81.0,48,46,5.0,100.0
1750,79.0,0,46,5.0,100.0
1751,57.0,48,94,7.0,127.0
1752,81.0,48,46,5.0,100.0
1753,79.0,48,46,5.0,100.0
1754,59.0,0,94,7.0,100.0
1755,81.0,48,46,5.0,100.0
1756,83.0,0,384,4.0,127.0
1757,79.0,0,46,5.0,100.0
1758,81.0,48,46,5.0,100.0
1759,57.0,0,94,7.0,100.0
1760,79.0,0,46,5.0,100.0
1761,81.0,48,46,5.0,100.0
1762,55.0,48,94,7.0,100.0
1763,86.0,48,192,4.0,127.0
1764,88.0,0,46,4.0,100.0
1765,54.0,48,94,7.0,127.0
1766,86.0,48,46,4.0,100.0
1767,88.0,0,46,4.0,100.0
1768,55.0,48,94,7.0,100.0
1769,86.0,48,46,4.0,100.0
1770,88.0,48,46,4.0,100.0
1771,54.0,0,94,7.0,100.0
1772,86.0,48,46,4.0,100.0
1773,88.0,48,46,4.0,100.0
1774,74.0,0,160,5.0,100.0
1775,86.0,48,46,4.0,100.0
1776,52.0,0,94,7.0,100.0
1777,88.0,0,46,4.0,100.0
1778,50.0,48,94,7.0,127.0
1779,86.0,48,46,4.0,100.0
1780,88.0,0,46,4.0,100.0
1781,86.0,48,46,4.0,100.0
1782,48.0,48,94,7.0,100.0
1783,88.0,48,46,4.0,100.0
1784,47.0,0,94,7.0,100.0
1785,86.0,48,46,4.0,100.0
1786,85.0,48,46,4.0,100.0
1787,45.0,0,94,7.0,100.0
1788,86.0,48,46,4.0,100.0
1789,31.0,48,94,7.0,127.0
1790,95.0,0,160,4.0,127.0
1791,89.0,0,160,4.0,127.0
1792,86.0,0,160,4.0,127.0
1793,98.0,0,160,4.0,127.0
1794,43.0,96,94,7.0,127.0
1795,31.0,0,94,7.0,127.0
1796,43.0,96,94,7.0,127.0
1797,31.0,96,94,7.0,127.0
1798,86.0,0,336,4.0,127.0
1799,89.0,0,336,4.0,127.0
1800,95.0,96,336,4.0,127.0
1801,98.0,0,336,4.0,127.0
1802,43.0,96,94,7.0,127.0
1803,31.0,0,94,7.0,127.0
1804,84.0,96,142,4.0,100.0
1805,86.0,0,142,4.0,100.0
1806,96.0,0,142,4.0,100.0
1807,89.0,0,142,4.0,100.0
1808,43.0,96,94,7.0,127.0
1809,31.0,0,94,7.0,127.0
1810,83.0,0,142,4.0,100.0
1811,95.0,0,142,4.0,100.0
1812,89.0,0,142,4.0,100.0
1813,86.0,96,142,4.0,100.0
1814,43.0,96,94,7.0,100.0
1815,31.0,96,94,7.0,127.0
1816,96.0,0,142,4.0,100.0
1817,86.0,0,142,4.0,100.0
1818,84.0,0,142,4.0,100.0
1819,43.0,96,94,7.0,100.0
1820,31.0,96,94,7.0,127.0
1821,98.0,0,142,4.0,100.0
1822,86.0,0,142,4.0,100.0
1823,89.0,0,142,4.0,100.0
1824,43.0,96,94,7.0,100.0
1825,32.0,0,94,7.0,127.0
1826,95.0,96,142,4.0,100.0
1827,88.0,0,142,4.0,100.0
1828,86.0,0,142,4.0,100.0
1829,83.0,0,142,4.0,100.0
1830,44.0,96,94,7.0,100.0
1831,84.0,0,48,4.0,100.0
1832,88.0,0,48,4.0,100.0
1833,96.0,0,48,4.0,100.0
1834,33.0,96,94,7.0,127.0
1835,45.0,96,94,7.0,100.0
1836,83.0,0,48,4.0,100.0
1837,95.0,96,48,4.0,100.0
1838,86.0,0,48,4.0,100.0
1839,88.0,0,48,4.0,100.0
1840,32.0,0,94,7.0,127.0
1841,44.0,96,94,7.0,100.0
1842,96.0,0,48,4.0,100.0
1843,84.0,0,48,4.0,100.0
1844,88.0,0,48,4.0,100.0
1845,33.0,96,94,7.0,127.0
1846,45.0,96,94,7.0,100.0
1847,81.0,0,48,4.0,100.0
1848,88.0,0,48,4.0,100.0
1849,84.0,0,48,4.0,100.0
1850,93.0,0,48,4.0,100.0
1851,36.0,96,94,7.0,127.0
1852,48.0,96,94,7.0,100.0
1853,88.0,96,48,4.0,100.0
1854,81.0,0,48,4.0,100.0
1855,91.0,0,48,4.0,100.0
1856,37.0,0,94,7.0,127.0
1857,49.0,96,94,7.0,100.0
1858,81.0,0,48,4.0,100.0
1859,91.0,96,48,4.0,100.0
1860,85.0,0,48,4.0,100.0
1861,40.0,0,94,7.0,127.0
1862,52.0,96,94,7.0,100.0
1863,90.0,0,48,4.0,100.0
1864,81.0,96,48,4.0,100.0
1865,84.0,0,48,4.0,100.0
1866,38.0,0,94,7.0,127.0
1867,50.0,96,94,7.0,100.0
1868,93.0,96,48,4.0,100.0
1869,81.0,0,48,4.0,100.0
1870,84.0,0,48,4.0,100.0
1871,38.0,0,94,7.0,127.0
1872,50.0,96,94,7.0,100.0
1873,79.0,0,48,4.0,100.0
1874,83.0,0,48,4.0,100.0
1875,91.0,0,48,4.0,100.0
1876,38.0,96,94,7.0,127.0
1877,50.0,96,94,7.0,100.0
1878,86.0,0,48,4.0,100.0
1879,83.0,0,48,4.0,100.0
1880,74.0,96,48,4.0,100.0
1881,43.0,0,94,7.0,127.0
1882,55.0,96,94,7.0,100.0
1883,78.0,0,48,4.0,100.0
1884,90.0,0,48,4.0,100.0
1885,84.0,96,48,4.0,100.0
1886,38.0,0,94,7.0,127.0
1887,50.0,96,94,7.0,100.0
1888,93.0,96,48,4.0,100.0
1889,84.0,0,48,4.0,100.0
1890,81.0,0,48,4.0,100.0
1891,50.0,0,94,7.0,127.0
1892,62.0,96,94,7.0,100.0
1893,91.0,0,48,4.0,100.0
1894,83.0,96,48,4.0,100.0
1895,79.0,0,48,4.0,100.0
1896,38.0,0,94,7.0,127.0
1897,50.0,96,94,7.0,100.0
1898,86.0,0,48,4.0,100.0
1899,83.0,96,48,4.0,100.0
1900,74.0,0,48,4.0,100.0
1901,43.0,0,94,7.0,127.0
1902,55.0,96,94,7.0,100.0
1903,78.0,0,48,4.0,100.0
1904,84.0,0,48,4.0,100.0
1905,90.0,96,48,4.0,100.0
1906,38.0,0,94,7.0,127.0
1907,50.0,96,94,7.0,100.0
1908,81.0,0,48,4.0,100.0
1909,84.0,0,48,4.0,100.0
1910,90.0,0,48,4.0,100.0
1911,93.0,0,48,4.0,100.0
1912,50.0,96,94,7.0,127.0
1913,62.0,96,94,7.0,100.0
1914,43.0,0,94,7.0,127.0
1915,79.0,96,94,4.0,127.0
1916,91.0,0,94,4.0,100.0
1917,55.0,96,94,7.0,100.0
1918,38.0,96,94,7.0,127.0
1919,74.0,0,94,4.0,100.0
1920,86.0,0,94,4.0,100.0
1921,50.0,96,94,7.0,100.0
1922,78.0,96,94,4.0,127.0
1923,42.0,0,94,7.0,127.0
1924,54.0,96,94,7.0,100.0
1925,90.0,0,94,4.0,100.0
1926,45.0,0,94,7.0,127.0
1927,81.0,96,94,4.0,100.0
1928,57.0,0,94,7.0,100.0
1929,93.0,96,94,4.0,100.0
1930,43.0,96,94,7.0,127.0
1931,79.0,0,94,4.0,127.0
1932,91.0,96,94,4.0,100.0
1933,55.0,0,94,7.0,100.0
1934,74.0,96,94,4.0,100.0
1935,38.0,0,94,7.0,127.0
1936,86.0,0,94,4.0,100.0
1937,50.0,96,94,7.0,100.0
1938,78.0,96,94,4.0,127.0
1939,30.0,0,94,7.0,127.0
1940,90.0,96,94,4.0,100.0
1941,42.0,0,94,7.0,100.0
1942,81.0,96,94,4.0,100.0
1943,33.0,0,94,7.0,127.0
1944,93.0,96,94,4.0,100.0
1945,45.0,0,94,7.0,100.0
1946,31.0,0,160,7.0,127.0
1947,31.0,0,160,6.0,100.0
1948,43.0,0,160,6.0,100.0
1949,43.0,0,160,7.0,127.0
1950,79.0,96,160,4.0,127.0
1951,91.0,0,160,4.0,127.0
1952,33.0,0,160,6.0,100.0
1953,45.0,384,160,7.0,127.0
1954,33.0,0,160,7.0,127.0
1955,45.0,0,160,6.0,100.0
1956,93.0,0,160,4.0,127.0
1957,81.0,0,160,4.0,127.0
1958,82.0,0,640,4.0,127.0
1959,94.0,0,640,4.0,127.0
1960,46.0,384,640,7.0,127.0
1961,34.0,0,640,7.0,127.0
1962,46.0,0,720,6.0,127.0
1963,34.0,0,720,6.0,127.0
1964,46.0,672,96,7.0,100.0
1965,58.0,288,0,7.0,100.0
1966,58.0,96,0,7.0,127.0
1967,50.0,1056,96,7.0,100.0
1968,70.0,0,96,4.0,100.0
1969,82.0,0,288,4.0,127.0
1970,62.0,96,288,7.0,127.0
1971,82.0,96,0,4.0,127.0
1972,62.0,0,0,7.0,127.0
1973,34.0,1056,96,6.0,127.0
1974,34.0,0,96,7.0,127.0
1975,53.0,0,288,6.0,100.0
1976,53.0,96,288,7.0,127.0
1977,58.0,0,288,7.0,127.0
1978,62.0,0,0,6.0,100.0
1979,58.0,0,0,6.0,100.0
1980,62.0,0,0,7.0,100.0
1981,53.0,0,96,7.0,100.0
1982,58.0,0,96,7.0,100.0
1983,74.0,0,96,4.0,100.0
1984,77.0,288,96,4.0,100.0
1985,82.0,0,96,4.0,100.0
1986,86.0,0,96,4.0,100.0
1987,58.0,96,0,6.0,100.0
1988,53.0,0,0,6.0,100.0
1989,53.0,0,192,7.0,127.0
1990,62.0,0,192,6.0,100.0
1991,58.0,192,0,7.0,100.0
1992,62.0,0,192,7.0,127.0
1993,74.0,0,0,4.0,127.0
1994,77.0,0,192,4.0,127.0
1995,82.0,0,192,4.0,127.0
1996,86.0,0,192,4.0,127.0
1997,62.0,96,0,7.0,100.0
1998,53.0,0,0,7.0,100.0
1999,58.0,0,0,7.0,100.0
2000,53.0,0,96,6.0,100.0
2001,58.0,0,96,6.0,100.0
2002,82.0,0,0,4.0,127.0
2003,77.0,0,0,4.0,127.0
2004,74.0,0,0,4.0,127.0
2005,87.0,0,96,4.0,127.0
2006,62.0,0,0,6.0,100.0
2007,86.0,0,96,4.0,127.0
2008,82.0,96,0,4.0,127.0
2009,74.0,0,0,4.0,127.0
2010,62.0,0,0,7.0,127.0
2011,77.0,0,0,4.0,127.0
2012,53.0,0,96,6.0,100.0
2013,58.0,0,96,6.0,100.0
2014,53.0,0,192,7.0,127.0
2015,58.0,0,192,7.0,127.0
2016,53.0,0,192,6.0,100.0
2017,62.0,0,192,6.0,100.0
2018,86.0,0,192,4.0,127.0
2019,82.0,0,0,4.0,127.0
2020,77.0,0,0,4.0,127.0
2021,58.0,0,0,6.0,100.0
2022,50.0,0,160,6.0,100.0
2023,53.0,0,160,6.0,100.0
2024,50.0,192,160,7.0,127.0
2025,53.0,0,160,7.0,127.0
2026,70.0,0,160,4.0,127.0
2027,74.0,0,160,4.0,127.0
2028,58.0,0,160,7.0,127.0
2029,34.0,480,96,7.0,127.0
2030,34.0,0,96,6.0,127.0
2031,53.0,0,288,7.0,127.0
2032,58.0,0,288,7.0,127.0
2033,62.0,0,288,7.0,127.0
2034,65.0,96,288,7.0,127.0
2035,53.0,0,96,7.0,100.0
2036,58.0,96,0,7.0,127.0
2037,62.0,0,96,7.0,100.0
2038,65.0,0,96,7.0,100.0
2039,53.0,0,96,6.0,100.0
2040,58.0,0,96,6.0,100.0
2041,62.0,0,96,6.0,100.0
2042,65.0,0,96,6.0,100.0
2043,77.0,0,96,4.0,100.0
2044,82.0,288,96,4.0,100.0
2045,86.0,0,96,4.0,100.0
2046,89.0,0,0,4.0,127.0
2047,58.0,0,192,6.0,100.0
2048,62.0,0,192,6.0,100.0
2049,65.0,0,192,6.0,100.0
2050,53.0,192,0,6.0,100.0
2051,77.0,0,192,4.0,127.0
2052,86.0,0,192,4.0,127.0
2053,65.0,0,0,7.0,100.0
2054,62.0,0,0,7.0,100.0
2055,58.0,0,0,7.0,100.0
2056,53.0,0,0,7.0,100.0
2057,82.0,0,192,4.0,127.0
2058,65.0,0,96,6.0,100.0
2059,58.0,0,0,6.0,100.0
2060,62.0,0,0,6.0,100.0
2061,53.0,0,0,6.0,100.0
2062,77.0,0,96,4.0,127.0
2063,82.0,0,96,4.0,127.0
2064,86.0,0,96,4.0,127.0
2065,91.0,0,96,4.0,127.0
2066,65.0,0,96,7.0,100.0
2067,62.0,96,0,7.0,127.0
2068,58.0,0,0,7.0,127.0
2069,53.0,0,0,7.0,127.0
2070,65.0,96,96,6.0,100.0
2071,62.0,0,0,6.0,100.0
2072,77.0,0,96,4.0,127.0
2073,82.0,0,96,4.0,127.0
2074,86.0,0,0,4.0,127.0
2075,89.0,0,96,4.0,127.0
2076,89.0,0,192,4.0,127.0
2077,86.0,192,0,4.0,127.0
2078,82.0,0,0,4.0,127.0
2079,58.0,0,192,6.0,100.0
2080,58.0,0,0,7.0,127.0
2081,62.0,0,0,7.0,127.0
2082,77.0,0,0,4.0,127.0
2083,65.0,0,192,7.0,127.0
2084,65.0,0,192,6.0,100.0
2085,53.0,0,0,6.0,100.0
2086,74.0,0,160,4.0,127.0
2087,62.0,0,160,6.0,100.0
2088,53.0,0,160,7.0,127.0
2089,58.0,0,160,6.0,100.0
2090,70.0,384,96,4.0,100.0
2091,72.0,96,96,4.0,100.0
2092,64.0,0,192,7.0,100.0
2093,67.0,192,192,5.0,100.0
2094,74.0,96,384,4.0,100.0
2095,69.0,192,142,5.0,100.0
2096,72.0,0,142,4.0,100.0
2097,65.0,0,142,7.0,100.0
2098,72.0,0,96,4.0,100.0
2099,59.0,192,192,7.0,100.0
2100,68.0,0,192,5.0,100.0
2101,74.0,96,96,4.0,100.0
2102,67.0,0,192,5.0,100.0
2103,60.0,96,192,7.0,100.0
2104,69.0,0,192,5.0,100.0
2105,75.0,0,384,4.0,100.0
2106,54.0,192,192,7.0,100.0
2107,70.0,0,142,5.0,100.0
2108,74.0,192,142,4.0,100.0
2109,55.0,0,142,7.0,127.0
2110,74.0,0,96,4.0,100.0
2111,75.0,96,96,4.0,100.0
2112,67.0,0,192,5.0,100.0
2113,51.0,192,192,7.0,100.0
2114,65.0,0,192,5.0,100.0
2115,50.0,0,192,7.0,127.0
2116,77.0,96,288,4.0,100.0
2117,79.0,96,96,4.0,100.0
2118,49.0,0,192,7.0,100.0
2119,70.0,192,192,5.0,100.0
2120,77.0,96,96,4.0,100.0
2121,48.0,0,192,7.0,127.0
2122,67.0,0,192,5.0,100.0
2123,75.0,96,142,4.0,100.0
2124,77.0,96,96,4.0,100.0
2125,69.0,0,192,5.0,100.0
2126,41.0,96,192,7.0,100.0
2127,75.0,96,96,4.0,100.0
2128,70.0,0,192,5.0,100.0
2129,65.0,0,192,5.0,100.0
2130,46.0,0,192,7.0,127.0
2131,74.0,96,96,4.0,100.0
2132,77.0,0,96,4.0,100.0
2133,39.0,0,192,7.0,100.0
2134,72.0,96,192,5.0,100.0
2135,67.0,0,192,5.0,100.0
2136,75.0,96,96,4.0,100.0
2137,41.0,0,166,7.0,127.0
2138,69.0,96,166,5.0,100.0
2139,72.0,0,166,4.0,100.0
2140,82.0,192,96,4.0,100.0
2141,84.0,96,96,4.0,100.0
2142,76.0,192,192,7.0,100.0
2143,67.0,0,192,5.0,100.0
2144,86.0,96,384,4.0,100.0
2145,69.0,0,142,5.0,100.0
2146,77.0,0,142,7.0,100.0
2147,84.0,192,142,4.0,100.0
2148,84.0,192,96,4.0,100.0
2149,86.0,96,96,4.0,100.0
2150,71.0,0,192,7.0,100.0
2151,68.0,0,192,5.0,100.0
2152,72.0,96,192,7.0,100.0
2153,67.0,0,192,5.0,100.0
2154,69.0,0,192,5.0,100.0
2155,66.0,192,192,7.0,100.0
2156,87.0,0,384,4.0,100.0
2157,70.0,0,142,5.0,100.0
2158,86.0,0,142,4.0,100.0
2159,67.0,192,142,7.0,100.0
2160,86.0,192,96,4.0,100.0
2161,63.0,0,192,7.0,100.0
2162,67.0,0,192,5.0,100.0
2163,87.0,96,96,4.0,100.0
2164,62.0,96,192,7.0,100.0
2165,65.0,0,192,5.0,100.0
2166,89.0,0,288,4.0,100.0
2167,70.0,192,192,5.0,100.0
2168,61.0,0,192,7.0,100.0
2169,91.0,96,96,4.0,100.0
2170,89.0,0,96,4.0,100.0
2171,67.0,0,192,5.0,100.0
2172,60.0,96,192,7.0,100.0
2173,87.0,96,142,4.0,100.0
2174,69.0,96,160,5.0,100.0
2175,53.0,0,160,7.0,100.0
2176,89.0,96,96,4.0,100.0
2177,87.0,0,96,4.0,100.0
2178,58.0,0,192,7.0,100.0
2179,65.0,96,192,5.0,100.0
2180,86.0,96,142,4.0,100.0
2181,87.0,96,96,4.0,100.0
2182,54.0,96,192,7.0,100.0
2183,86.0,0,96,4.0,100.0
2184,53.0,96,192,7.0,100.0
2185,84.0,96,96,4.0,100.0
2186,70.0,0,384,5.0,100.0
2187,86.0,0,96,4.0,100.0
2188,87.0,96,94,4.0,100.0
2189,69.0,0,192,5.0,100.0
2190,51.0,96,192,7.0,100.0
2191,65.0,0,192,5.0,100.0
2192,91.0,0,94,4.0,100.0
2193,89.0,96,96,4.0,100.0
2194,50.0,96,192,7.0,127.0
2195,70.0,0,0,5.0,100.0
2196,65.0,0,192,5.0,100.0
2197,91.0,96,96,4.0,100.0
2198,49.0,0,192,7.0,100.0
2199,89.0,0,0,4.0,100.0
2200,67.0,0,192,5.0,100.0
2201,87.0,96,96,4.0,100.0
2202,48.0,96,192,7.0,127.0
2203,89.0,0,96,4.0,100.0
2204,87.0,96,96,4.0,100.0
2205,41.0,0,192,7.0,100.0
2206,69.0,96,192,5.0,100.0
2207,87.0,0,96,4.0,100.0
2208,86.0,96,96,4.0,100.0
2209,65.0,0,192,5.0,100.0
2210,46.0,96,192,7.0,127.0
2211,87.0,96,96,4.0,100.0
2212,42.0,0,192,7.0,100.0
2213,86.0,96,96,4.0,100.0
2214,86.0,0,96,4.0,100.0
2215,41.0,96,192,7.0,127.0
2216,70.0,0,384,5.0,100.0
2217,84.0,96,96,4.0,100.0
2218,86.0,0,96,4.0,100.0
2219,39.0,96,192,7.0,100.0
2220,65.0,0,0,5.0,100.0
2221,69.0,0,192,5.0,100.0
2222,87.0,96,96,4.0,100.0
2223,91.0,0,96,4.0,100.0
2224,38.0,96,192,7.0,127.0
2225,70.0,0,192,5.0,100.0
2226,89.0,96,96,4.0,100.0
2227,70.0,0,192,5.0,100.0
2228,76.0,96,192,5.0,100.0
2229,37.0,0,192,7.0,127.0
2230,91.0,96,192,4.0,127.0
2231,75.0,96,0,5.0,127.0
2232,36.0,96,192,7.0,127.0
2233,92.0,96,192,4.0,127.0
2234,72.0,0,160,5.0,127.0
2235,30.0,0,160,7.0,127.0
2236,93.0,96,96,4.0,127.0
2237,96.0,0,96,4.0,127.0
2238,74.0,0,192,5.0,127.0
2239,94.0,96,96,4.0,127.0
2240,70.0,96,0,5.0,127.0
2241,29.0,0,192,7.0,127.0
2242,93.0,0,96,4.0,127.0
2243,75.0,0,160,5.0,127.0
2244,91.0,96,96,4.0,127.0
2245,39.0,0,192,7.0,127.0
2246,89.0,96,48,4.0,100.0
2247,82.0,0,48,4.0,100.0
2248,86.0,0,48,4.0,100.0
2249,41.0,0,142,7.0,127.0
2250,81.0,0,48,4.0,100.0
2251,84.0,0,48,4.0,100.0
2252,93.0,0,48,4.0,100.0
2253,89.0,0,48,4.0,100.0
2254,29.0,192,142,7.0,127.0
2255,41.0,0,142,7.0,127.0
2256,46.0,0,96,7.0,127.0
2257,34.0,0,96,7.0,127.0
2258,62.0,96,0,7.0,100.0
2259,58.0,0,0,7.0,100.0
2260,53.0,0,96,7.0,100.0
2261,58.0,96,0,7.0,100.0
2262,53.0,0,0,7.0,100.0
2263,82.0,0,336,4.0,127.0
2264,86.0,0,336,4.0,127.0
2265,94.0,0,336,4.0,127.0
2266,89.0,0,336,4.0,127.0
2267,62.0,0,96,7.0,100.0
2268,53.0,96,96,7.0,100.0
2269,58.0,0,96,7.0,100.0
2270,50.0,96,0,7.0,100.0
2271,50.0,0,0,7.0,100.0
2272,53.0,0,0,7.0,100.0
2273,58.0,96,0,7.0,100.0
2274,70.0,0,336,4.0,127.0
2275,74.0,96,336,4.0,127.0
2276,82.0,0,336,4.0,127.0
2277,34.0,0,768,6.0,100.0
2278,46.0,192,768,6.0,100.0
2279,74.0,0,48,4.0,100.0
2280,86.0,0,48,4.0,100.0
2281,77.0,96,48,4.0,100.0
2282,62.0,96,94,7.0,100.0
2283,58.0,0,94,7.0,100.0
2284,53.0,0,94,7.0,100.0
2285,74.0,0,48,4.0,100.0
2286,70.0,0,48,4.0,100.0
2287,82.0,96,48,4.0,100.0
2288,50.0,0,94,7.0,100.0
2289,58.0,96,94,7.0,100.0
2290,86.0,96,48,4.0,100.0
2291,74.0,0,48,4.0,100.0
2292,77.0,0,48,4.0,100.0
2293,53.0,0,94,7.0,100.0
2294,58.0,0,94,7.0,100.0
2295,62.0,96,94,7.0,100.0
2296,84.0,96,48,4.0,100.0
2297,75.0,0,48,4.0,100.0
2298,72.0,0,48,4.0,100.0
2299,60.0,0,94,7.0,100.0
2300,58.0,0,94,7.0,100.0
2301,51.0,96,94,7.0,100.0
2302,46.0,0,96,7.0,127.0
2303,34.0,0,96,7.0,127.0
2304,55.0,96,96,7.0,100.0
2305,63.0,96,0,7.0,100.0
2306,58.0,0,96,7.0,100.0
2307,55.0,0,96,7.0,100.0
2308,63.0,96,0,7.0,100.0
2309,58.0,0,96,7.0,100.0
2310,75.0,0,336,4.0,127.0
2311,87.0,0,336,4.0,127.0
2312,79.0,96,336,4.0,127.0
2313,55.0,0,96,7.0,100.0
2314,58.0,0,96,7.0,100.0
2315,58.0,96,96,7.0,100.0
2316,51.0,0,96,7.0,100.0
2317,60.0,0,96,7.0,100.0
2318,58.0,0,96,7.0,100.0
2319,60.0,96,96,7.0,100.0
2320,51.0,0,0,7.0,100.0
2321,72.0,0,336,4.0,127.0
2322,75.0,0,336,4.0,127.0
2323,84.0,96,336,4.0,127.0
2324,60.0,96,94,7.0,100.0
2325,58.0,0,94,7.0,100.0
2326,34.0,0,768,6.0,100.0
2327,46.0,0,768,6.0,100.0
2328,79.0,0,48,4.0,100.0
2329,75.0,0,48,4.0,100.0
2330,87.0,96,48,4.0,100.0
2331,55.0,96,94,7.0,100.0
2332,63.0,0,94,7.0,100.0
2333,58.0,0,94,7.0,100.0
2334,85.0,0,48,4.0,100.0
2335,76.0,96,48,4.0,100.0
2336,73.0,0,48,4.0,100.0
2337,52.0,0,94,7.0,100.0
2338,61.0,96,94,7.0,100.0
2339,58.0,0,94,7.0,100.0
2340,87.0,0,48,4.0,100.0
2341,78.0,96,48,4.0,100.0
2342,75.0,0,48,4.0,100.0
2343,63.0,0,94,7.0,100.0
2344,58.0,0,94,7.0,100.0
2345,54.0,96,94,7.0,100.0
2346,86.0,96,48,4.0,100.0
2347,74.0,0,48,4.0,100.0
2348,77.0,0,48,4.0,100.0
2349,58.0,0,94,7.0,100.0
2350,62.0,0,94,7.0,100.0
2351,53.0,96,94,7.0,100.0
2352,34.0,0,96,7.0,127.0
2353,46.0,0,96,7.0,127.0
2354,65.0,0,96,7.0,100.0
2355,58.0,96,0,7.0,100.0
2356,56.0,0,0,7.0,100.0
2357,65.0,0,96,7.0,100.0
2358,56.0,0,0,7.0,100.0
2359,58.0,96,0,7.0,100.0
2360,80.0,0,336,4.0,127.0
2361,89.0,0,336,4.0,127.0
2362,77.0,0,336,4.0,127.0
2363,65.0,0,96,7.0,100.0
2364,53.0,0,96,7.0,100.0
2365,58.0,96,96,7.0,100.0
2366,62.0,0,96,7.0,100.0
2367,53.0,96,96,7.0,100.0
2368,58.0,0,96,7.0,100.0
2369,62.0,0,96,7.0,100.0
2370,77.0,0,336,4.0,127.0
2371,86.0,96,336,4.0,127.0
2372,74.0,0,336,4.0,127.0
2373,62.0,0,94,7.0,100.0
2374,58.0,0,94,7.0,100.0
2375,53.0,96,94,7.0,100.0
2376,46.0,0,768,6.0,100.0
2377,34.0,96,768,6.0,100.0
2378,89.0,0,48,4.0,100.0
2379,77.0,96,48,4.0,100.0
2380,80.0,0,48,4.0,100.0
2381,65.0,0,94,7.0,100.0
2382,56.0,96,94,7.0,100.0
2383,58.0,0,94,7.0,100.0
2384,78.0,0,48,4.0,100.0
2385,86.0,0,48,4.0,100.0
2386,74.0,96,48,4.0,100.0
2387,58.0,0,94,7.0,100.0
2388,62.0,0,94,7.0,100.0
2389,54.0,96,94,7.0,100.0
2390,89.0,96,48,4.0,100.0
2391,80.0,0,48,4.0,100.0
2392,77.0,0,48,4.0,100.0
2393,65.0,96,94,7.0,100.0
2394,56.0,0,94,7.0,100.0
2395,58.0,0,94,7.0,100.0
2396,75.0,96,48,4.0,100.0
2397,87.0,0,48,4.0,100.0
2398,79.0,0,48,4.0,100.0
2399,58.0,0,94,7.0,100.0
2400,55.0,96,94,7.0,100.0
2401,63.0,0,94,7.0,100.0
2402,34.0,0,96,7.0,127.0
2403,46.0,0,96,7.0,127.0
2404,58.0,96,96,7.0,100.0
2405,63.0,0,96,7.0,100.0
2406,67.0,0,96,7.0,100.0
2407,67.0,96,96,7.0,100.0
2408,63.0,0,0,7.0,100.0
2409,58.0,0,0,7.0,100.0
2410,79.0,96,336,4.0,127.0
2411,91.0,0,336,4.0,127.0
2412,82.0,0,336,4.0,127.0
2413,67.0,96,96,7.0,100.0
2414,58.0,0,96,7.0,100.0
2415,55.0,0,96,7.0,100.0
2416,63.0,0,0,7.0,100.0
2417,58.0,96,0,7.0,100.0
2418,55.0,0,0,7.0,100.0
2419,82.0,0,336,4.0,127.0
2420,75.0,0,336,4.0,127.0
2421,87.0,0,336,4.0,127.0
2422,79.0,96,336,4.0,127.0
2423,63.0,0,94,7.0,100.0
2424,34.0,0,768,6.0,100.0
2425,46.0,0,768,6.0,100.0
2426,82.0,96,48,4.0,100.0
2427,79.0,0,48,4.0,100.0
2428,91.0,0,48,4.0,100.0
2429,63.0,0,94,7.0,100.0
2430,58.0,0,94,7.0,100.0
2431,67.0,96,94,7.0,100.0
2432,82.0,0,48,4.0,100.0
2433,76.0,0,48,4.0,100.0
2434,88.0,96,48,4.0,100.0
2435,64.0,96,94,7.0,100.0
2436,61.0,0,94,7.0,100.0
2437,58.0,0,94,7.0,100.0
2438,90.0,0,48,4.0,100.0
2439,82.0,0,48,4.0,100.0
2440,78.0,96,48,4.0,100.0
2441,58.0,0,94,7.0,100.0
2442,63.0,96,94,7.0,100.0
2443,66.0,0,94,7.0,100.0
2444,77.0,96,48,4.0,100.0
2445,82.0,0,48,4.0,100.0
2446,89.0,0,48,4.0,100.0
2447,62.0,0,94,7.0,100.0
2448,65.0,96,94,7.0,100.0
2449,58.0,0,94,7.0,100.0
2450,80.0,0,48,4.0,100.0
2451,82.0,96,48,4.0,100.0
2452,92.0,0,48,4.0,100.0
2453,58.0,96,94,7.0,100.0
2454,65.0,0,94,7.0,100.0
2455,68.0,0,94,7.0,100.0
2456,78.0,0,48,4.0,100.0
2457,82.0,96,48,4.0,100.0
2458,90.0,0,48,4.0,100.0
2459,62.0,0,94,7.0,100.0
2460,58.0,96,94,7.0,100.0
2461,66.0,0,94,7.0,100.0
2462,92.0,96,48,4.0,100.0
2463,82.0,0,48,4.0,100.0
2464,80.0,0,48,4.0,100.0
2465,58.0,96,94,7.0,100.0
2466,65.0,0,94,7.0,100.0
2467,68.0,0,94,7.0,100.0
2468,91.0,0,48,4.0,100.0
2469,82.0,96,48,4.0,100.0
2470,79.0,0,48,4.0,100.0
2471,63.0,0,94,7.0,100.0
2472,58.0,96,94,7.0,100.0
2473,67.0,0,94,7.0,100.0
2474,94.0,96,48,4.0,100.0
2475,91.0,0,48,4.0,100.0
2476,87.0,0,48,4.0,100.0
2477,82.0,0,48,4.0,100.0
2478,58.0,96,94,7.0,100.0
2479,60.0,0,94,7.0,100.0
2480,63.0,0,94,7.0,100.0
2481,67.0,0,94,7.0,100.0
2482,92.0,0,48,4.0,100.0
2483,80.0,96,48,4.0,100.0
2484,68.0,0,94,7.0,100.0
2485,63.0,0,94,7.0,100.0
2486,60.0,0,94,7.0,100.0
2487,58.0,96,94,7.0,100.0
2488,94.0,0,48,4.0,100.0
2489,82.0,96,48,4.0,100.0
2490,58.0,0,94,7.0,100.0
2491,60.0,0,94,7.0,100.0
2492,70.0,0,94,7.0,100.0
2493,63.0,96,94,7.0,100.0
2494,93.0,0,48,4.0,100.0
2495,81.0,96,48,4.0,100.0
2496,69.0,96,94,7.0,100.0
2497,63.0,0,94,7.0,100.0
2498,60.0,0,94,7.0,100.0
2499,58.0,0,94,7.0,100.0
2500,84.0,0,160,4.0,100.0
2501,96.0,96,160,4.0,100.0
2502,72.0,96,94,7.0,100.0
2503,60.0,0,94,7.0,100.0
2504,82.0,96,160,4.0,100.0
2505,94.0,0,160,4.0,100.0
2506,58.0,0,94,7.0,100.0
2507,70.0,96,94,7.0,100.0
2508,91.0,0,160,4.0,100.0
2509,79.0,96,160,4.0,100.0
2510,67.0,0,94,7.0,100.0
2511,55.0,96,94,7.0,100.0
2512,77.0,0,160,4.0,100.0
2513,89.0,96,160,4.0,100.0
2514,65.0,0,94,7.0,100.0
2515,53.0,96,94,7.0,100.0
2516,87.0,0,160,4.0,100.0
2517,75.0,96,160,4.0,100.0
2518,63.0,96,94,7.0,100.0
2519,51.0,0,94,7.0,100.0
2520,86.0,96,160,4.0,100.0
2521,74.0,0,160,4.0,100.0
2522,50.0,96,94,7.0,100.0
2523,62.0,0,94,7.0,100.0
2524,72.0,96,160,4.0,100.0
2525,84.0,0,160,4.0,100.0
2526,48.0,0,94,7.0,100.0
2527,60.0,96,94,7.0,100.0
2528,70.0,96,160,4.0,100.0
2529,82.0,0,160,4.0,100.0
2530,46.0,96,94,7.0,100.0
2531,58.0,0,94,7.0,100.0
2532,67.0,0,142,4.0,100.0
2533,79.0,96,142,4.0,100.0
2534,43.0,96,94,7.0,100.0
2535,55.0,0,94,7.0,100.0
2536,65.0,96,142,4.0,100.0
2537,77.0,0,142,4.0,100.0
2538,53.0,96,94,7.0,100.0
2539,41.0,0,94,7.0,100.0
2540,75.0,0,142,4.0,100.0
2541,63.0,96,142,4.0,100.0
2542,39.0,0,94,7.0,100.0
2543,51.0,96,94,7.0,100.0
2544,62.0,96,142,4.0,100.0
2545,74.0,0,142,4.0,100.0
2546,38.0,96,94,7.0,100.0
2547,50.0,0,94,7.0,100.0
2548,72.0,0,48,4.0,100.0
2549,60.0,96,48,4.0,100.0
2550,48.0,0,94,7.0,100.0
2551,36.0,96,94,7.0,100.0
2552,70.0,0,48,4.0,100.0
2553,58.0,96,48,4.0,100.0
2554,34.0,96,94,7.0,100.0
2555,46.0,0,94,7.0,100.0
2556,55.0,96,48,4.0,100.0
2557,67.0,0,48,4.0,100.0
2558,43.0,96,94,7.0,100.0
2559,31.0,0,94,7.0,100.0
2560,53.0,96,48,4.0,100.0
2561,65.0,0,48,4.0,100.0
2562,29.0,96,94,7.0,100.0
2563,41.0,0,94,7.0,100.0
2564,69.0,96,48,4.0,100.0
2565,33.0,96,94,7.0,100.0
2566,65.0,96,48,4.0,100.0
2567,29.0,96,94,7.0,100.0
2568,72.0,96,48,4.0,100.0
2569,36.0,96,94,7.0,100.0
2570,65.0,96,48,4.0,100.0
2571,29.0,96,94,7.0,100.0
2572,77.0,96,48,4.0,100.0
2573,41.0,96,94,7.0,100.0
2574,65.0,96,48,4.0,100.0
2575,29.0,96,94,7.0,100.0
2576,81.0,96,48,4.0,100.0
2577,45.0,96,94,7.0,100.0
2578,65.0,96,48,4.0,100.0
2579,29.0,96,94,7.0,100.0
2580,84.0,96,48,4.0,100.0
2581,48.0,96,94,7.0,100.0
2582,65.0,96,48,4.0,100.0
2583,29.0,96,94,7.0,100.0
2584,89.0,96,48,4.0,100.0
2585,53.0,96,94,7.0,100.0
2586,65.0,96,48,4.0,100.0
2587,29.0,96,94,7.0,100.0
2588,89.0,96,48,4.0,100.0
2589,53.0,96,94,7.0,100.0
2590,65.0,96,48,4.0,100.0
2591,29.0,96,94,7.0,100.0
2592,89.0,96,48,4.0,100.0
2593,53.0,96,94,7.0,100.0
2594,34.0,0,94,6.0,127.0
2595,34.0,192,96,7.0,127.0
2596,58.0,0,288,7.0,127.0
2597,53.0,288,0,7.0,100.0
2598,62.0,0,0,7.0,100.0
2599,58.0,0,0,7.0,127.0
2600,74.0,0,96,4.0,100.0
2601,53.0,96,0,7.0,127.0
2602,82.0,0,96,4.0,100.0
2603,86.0,0,96,4.0,100.0
2604,77.0,0,0,4.0,127.0
2605,62.0,0,0,7.0,100.0
2606,58.0,0,0,7.0,100.0
2607,53.0,0,0,7.0,100.0
2608,86.0,0,192,4.0,127.0
2609,82.0,0,0,4.0,100.0
2610,74.0,0,0,4.0,100.0
2611,77.0,0,96,4.0,100.0
2612,87.0,192,96,4.0,100.0
2613,82.0,0,0,4.0,100.0
2614,86.0,0,96,4.0,100.0
2615,53.0,96,96,7.0,100.0
2616,77.0,0,0,4.0,127.0
2617,58.0,0,96,7.0,100.0
2618,62.0,0,96,7.0,100.0
2619,74.0,96,0,4.0,127.0
2620,82.0,0,192,4.0,127.0
2621,62.0,0,192,7.0,127.0
2622,58.0,192,0,7.0,127.0
2623,86.0,0,192,4.0,127.0
2624,77.0,0,0,4.0,127.0
2625,74.0,0,0,4.0,127.0
2626,53.0,0,0,7.0,127.0
2627,70.0,0,160,4.0,127.0
2628,82.0,0,160,4.0,127.0
2629,50.0,0,160,7.0,127.0
2630,34.0,0,94,6.0,127.0
2631,34.0,480,96,7.0,127.0
2632,58.0,96,288,7.0,127.0
2633,50.0,0,288,7.0,127.0
2634,53.0,0,288,7.0,127.0
2635,62.0,0,288,7.0,127.0
2636,62.0,0,68,7.0,100.0
2637,77.0,0,68,4.0,100.0
2638,74.0,0,68,4.0,100.0
2639,53.0,0,68,7.0,100.0
2640,86.0,0,68,4.0,100.0
2641,50.0,288,68,7.0,100.0
2642,58.0,0,68,7.0,100.0
2643,82.0,0,68,4.0,100.0
2644,74.0,96,144,4.0,127.0
2645,86.0,0,144,4.0,127.0
2646,50.0,0,144,7.0,127.0
2647,62.0,0,144,7.0,127.0
2648,62.0,0,96,7.0,100.0
2649,86.0,0,96,4.0,100.0
2650,81.0,96,0,4.0,100.0
2651,78.0,0,0,4.0,100.0
2652,74.0,0,0,4.0,100.0
2653,50.0,0,0,7.0,100.0
2654,54.0,0,0,7.0,100.0
2655,57.0,0,0,7.0,100.0
2656,86.0,0,96,4.0,100.0
2657,62.0,0,0,7.0,127.0
2658,74.0,0,0,4.0,127.0
2659,57.0,96,0,7.0,127.0
2660,54.0,0,0,7.0,127.0
2661,50.0,0,0,7.0,127.0
2662,54.0,192,0,7.0,127.0
2663,78.0,0,192,4.0,127.0
2664,81.0,0,192,4.0,127.0
2665,86.0,0,192,4.0,127.0
2666,86.0,0,160,4.0,127.0
2667,50.0,0,160,7.0,127.0
2668,78.0,0,160,4.0,127.0
2669,81.0,0,160,4.0,127.0
2670,62.0,0,160,7.0,127.0
2671,74.0,0,160,4.0,127.0
2672,57.0,0,160,7.0,127.0
2673,50.0,480,96,7.0,100.0
2674,62.0,96,256,7.0,127.0
2675,66.0,192,160,4.0,100.0
2676,74.0,0,160,4.0,100.0
2677,69.0,0,160,4.0,100.0
2678,50.0,96,96,7.0,100.0
2679,62.0,96,256,7.0,127.0
2680,66.0,192,160,4.0,100.0
2681,69.0,0,160,4.0,100.0
2682,74.0,0,160,4.0,100.0
2683,50.0,96,96,7.0,100.0
2684,62.0,96,256,7.0,127.0
2685,69.0,0,160,4.0,100.0
2686,74.0,192,160,4.0,100.0
2687,66.0,0,160,4.0,100.0
2688,50.0,96,96,7.0,100.0
2689,62.0,96,256,7.0,127.0
2690,66.0,192,160,4.0,100.0
2691,69.0,0,160,4.0,100.0
2692,74.0,0,160,4.0,100.0
2693,50.0,96,96,7.0,100.0
2694,60.0,96,256,7.0,127.0
2695,57.0,0,256,7.0,127.0
2696,72.0,192,160,4.0,100.0
2697,69.0,0,160,4.0,100.0
2698,74.0,0,160,4.0,100.0
2699,78.0,0,160,4.0,100.0
2700,50.0,96,96,7.0,100.0
2701,60.0,96,256,7.0,127.0
2702,57.0,0,256,7.0,127.0
2703,78.0,0,160,4.0,100.0
2704,69.0,192,160,4.0,100.0
2705,72.0,0,160,4.0,100.0
2706,74.0,0,160,4.0,100.0
2707,50.0,96,96,7.0,100.0
2708,54.0,96,256,7.0,127.0
2709,57.0,0,256,7.0,127.0
2710,81.0,0,160,4.0,100.0
2711,78.0,0,160,4.0,100.0
2712,72.0,0,160,4.0,100.0
2713,69.0,192,160,4.0,100.0
2714,50.0,96,94,7.0,100.0
2715,45.0,96,256,7.0,127.0
2716,45.0,0,256,6.0,100.0
2717,72.0,0,160,4.0,100.0
2718,78.0,192,160,4.0,100.0
2719,81.0,0,160,4.0,100.0
2720,84.0,0,160,4.0,100.0
2721,50.0,96,94,7.0,127.0
2722,45.0,96,256,7.0,127.0
2723,45.0,0,256,6.0,100.0
2724,84.0,0,160,4.0,100.0
2725,90.0,0,160,4.0,100.0
2726,81.0,0,160,4.0,100.0
2727,78.0,192,160,4.0,100.0
2728,50.0,96,94,7.0,100.0
2729,43.0,96,256,7.0,127.0
2730,43.0,0,256,6.0,100.0
2731,84.0,0,160,4.0,100.0
2732,81.0,0,160,4.0,100.0
2733,93.0,192,160,4.0,100.0
2734,50.0,96,94,7.0,100.0
2735,42.0,96,256,6.0,100.0
2736,42.0,0,256,7.0,127.0
2737,84.0,0,160,4.0,100.0
2738,93.0,192,160,4.0,100.0
2739,96.0,0,160,4.0,100.0
2740,50.0,96,94,7.0,100.0
2741,39.0,96,256,7.0,127.0
2742,39.0,0,256,6.0,100.0
2743,90.0,0,160,4.0,100.0
2744,93.0,192,160,4.0,100.0
2745,84.0,0,160,4.0,100.0
2746,96.0,0,160,4.0,100.0
2747,50.0,96,94,7.0,100.0
2748,96.0,0,160,4.0,100.0
2749,93.0,0,160,4.0,100.0
2750,90.0,0,160,4.0,100.0
2751,84.0,0,160,4.0,100.0
2752,38.0,0,160,7.0,127.0
2753,50.0,96,160,7.0,127.0
2754,75.0,0,96,7.0,100.0
2755,81.0,192,96,4.0,100.0
2756,84.0,0,96,4.0,100.0
2757,80.0,0,96,4.0,100.0
2758,83.0,0,96,4.0,100.0
2759,74.0,96,96,7.0,100.0
2760,81.0,0,142,4.0,100.0
2761,84.0,0,142,4.0,100.0
2762,75.0,96,142,7.0,100.0
2763,66.0,0,96,4.0,100.0
2764,74.0,192,96,7.0,100.0
2765,69.0,0,96,4.0,100.0
2766,73.0,0,96,7.0,100.0
2767,70.0,0,96,4.0,100.0
2768,67.0,96,96,4.0,100.0
2769,74.0,96,142,7.0,100.0
2770,69.0,0,142,4.0,100.0
2771,66.0,0,142,4.0,100.0
2772,63.0,0,96,7.0,100.0
2773,81.0,0,96,4.0,100.0
2774,84.0,192,96,4.0,100.0
2775,62.0,96,96,7.0,100.0
2776,80.0,0,96,4.0,100.0
2777,83.0,0,96,4.0,100.0
2778,63.0,96,160,7.0,100.0
2779,84.0,0,160,4.0,100.0
2780,81.0,0,160,4.0,100.0
2781,90.0,0,96,4.0,100.0
2782,62.0,192,96,7.0,100.0
2783,93.0,96,96,4.0,100.0
2784,61.0,0,96,7.0,100.0
2785,96.0,96,96,4.0,100.0
2786,62.0,0,160,7.0,100.0
2787,98.0,96,96,4.0,100.0
2788,96.0,96,96,4.0,100.0
2789,95.0,96,96,4.0,100.0
2790,50.0,0,96,7.0,100.0
2791,96.0,0,96,4.0,100.0
2792,54.0,96,160,7.0,127.0
2793,98.0,96,96,4.0,100.0
2794,100.0,96,96,4.0,100.0
2795,96.0,0,96,4.0,100.0
2796,57.0,96,96,7.0,100.0
2797,93.0,0,96,4.0,100.0
2798,60.0,96,160,7.0,127.0
2799,95.0,96,96,4.0,100.0
2800,96.0,96,96,4.0,100.0
2801,66.0,96,96,7.0,100.0
2802,93.0,0,96,4.0,100.0
2803,90.0,96,96,4.0,100.0
2804,69.0,0,160,7.0,127.0
2805,91.0,96,96,4.0,100.0
2806,72.0,0,96,7.0,100.0
2807,93.0,96,96,4.0,100.0
2808,90.0,0,96,4.0,100.0
2809,69.0,96,96,7.0,100.0
2810,81.0,0,96,7.0,100.0
2811,84.0,96,96,4.0,100.0
2812,83.0,0,96,7.0,100.0
2813,86.0,96,96,4.0,100.0
2814,84.0,0,96,7.0,100.0
2815,88.0,96,96,4.0,100.0
2816,81.0,96,96,7.0,100.0
2817,84.0,0,96,4.0,100.0
2818,72.0,0,96,7.0,100.0
2819,81.0,96,96,4.0,100.0
2820,74.0,96,96,7.0,100.0
2821,83.0,0,96,4.0,100.0
2822,76.0,96,96,7.0,100.0
2823,84.0,0,96,4.0,100.0
2824,72.0,96,96,7.0,100.0
2825,81.0,0,96,4.0,100.0
2826,78.0,0,96,4.0,100.0
2827,69.0,96,96,7.0,100.0
2828,71.0,96,96,7.0,100.0
2829,79.0,0,96,4.0,100.0
2830,72.0,96,96,7.0,100.0
2831,81.0,0,96,4.0,100.0
2832,78.0,96,96,4.0,100.0
2833,69.0,0,96,7.0,100.0
2834,66.0,0,96,7.0,100.0
2835,69.0,0,160,4.0,100.0
2836,74.0,96,160,4.0,100.0
2837,72.0,0,160,4.0,100.0
2838,67.0,96,96,7.0,100.0
2839,69.0,96,96,7.0,100.0
2840,66.0,96,96,7.0,100.0
2841,95.0,0,96,4.0,100.0
2842,62.0,0,142,7.0,100.0
2843,67.0,0,142,7.0,100.0
2844,71.0,96,142,7.0,100.0
2845,96.0,96,96,4.0,100.0
2846,95.0,96,96,4.0,100.0
2847,93.0,96,96,4.0,100.0
2848,50.0,0,96,7.0,100.0
2849,95.0,0,96,4.0,100.0
2850,55.0,96,160,7.0,127.0
2851,96.0,96,96,4.0,100.0
2852,98.0,96,96,4.0,100.0
2853,95.0,96,96,4.0,100.0
2854,59.0,0,96,7.0,100.0
2855,91.0,96,96,4.0,100.0
2856,62.0,0,160,7.0,127.0
2857,93.0,96,96,4.0,100.0
2858,95.0,96,96,4.0,100.0
2859,67.0,96,96,7.0,100.0
2860,91.0,0,96,4.0,100.0
2861,86.0,96,96,4.0,100.0
2862,71.0,0,160,7.0,127.0
2863,90.0,96,96,4.0,100.0
2864,91.0,96,96,4.0,100.0
2865,74.0,96,96,7.0,100.0
2866,86.0,0,96,4.0,100.0
2867,83.0,0,96,4.0,100.0
2868,79.0,96,96,7.0,100.0
2869,84.0,0,96,4.0,100.0
2870,81.0,96,96,7.0,100.0
2871,86.0,96,96,4.0,100.0
2872,83.0,0,96,7.0,100.0
2873,83.0,96,96,4.0,100.0
2874,79.0,0,96,7.0,100.0
2875,79.0,0,96,4.0,100.0
2876,71.0,96,96,7.0,100.0
2877,81.0,96,96,4.0,100.0
2878,72.0,0,96,7.0,100.0
2879,74.0,0,96,7.0,100.0
2880,83.0,96,96,4.0,100.0
2881,71.0,96,96,7.0,100.0
2882,79.0,0,96,4.0,100.0
2883,67.0,96,96,7.0,100.0
2884,74.0,0,96,4.0,100.0
2885,69.0,96,96,7.0,100.0
2886,78.0,0,96,4.0,100.0
2887,79.0,96,96,4.0,100.0
2888,71.0,0,96,7.0,100.0
2889,71.0,96,96,4.0,100.0
2890,67.0,0,96,7.0,100.0
2891,67.0,96,96,4.0,100.0
2892,71.0,0,96,7.0,100.0
2893,72.0,0,96,7.0,100.0
2894,69.0,96,96,4.0,100.0
2895,74.0,96,96,7.0,100.0
2896,71.0,0,96,4.0,100.0
2897,71.0,96,94,7.0,100.0
2898,67.0,0,96,4.0,100.0
2899,72.0,96,96,7.0,100.0
2900,69.0,0,142,4.0,100.0
2901,62.0,0,142,4.0,100.0
2902,66.0,0,142,4.0,100.0
2903,74.0,96,96,7.0,100.0
2904,88.0,96,96,4.0,100.0
2905,72.0,0,96,7.0,100.0
2906,86.0,96,96,4.0,100.0
2907,71.0,0,96,7.0,100.0
2908,72.0,0,96,7.0,100.0
2909,88.0,96,96,4.0,100.0
2910,74.0,96,96,7.0,100.0
2911,86.0,0,96,4.0,100.0
2912,84.0,96,96,4.0,100.0
2913,76.0,0,96,7.0,100.0
2914,88.0,96,96,4.0,100.0
2915,72.0,0,96,7.0,100.0
2916,69.0,0,96,7.0,100.0
2917,84.0,96,96,4.0,100.0
2918,83.0,96,96,4.0,100.0
2919,71.0,0,96,7.0,100.0
2920,81.0,96,96,4.0,100.0
2921,72.0,0,96,7.0,100.0
2922,84.0,96,96,4.0,100.0
2923,69.0,0,96,7.0,100.0
2924,66.0,0,96,7.0,100.0
2925,81.0,96,96,4.0,100.0
2926,67.0,0,96,7.0,100.0
2927,79.0,96,96,4.0,100.0
2928,69.0,0,96,7.0,100.0
2929,78.0,96,96,4.0,100.0
2930,66.0,96,96,7.0,100.0
2931,81.0,0,96,4.0,100.0
2932,60.0,96,96,7.0,100.0
2933,76.0,0,96,4.0,100.0
2934,74.0,0,96,4.0,100.0
2935,62.0,96,96,7.0,100.0
2936,72.0,96,96,4.0,100.0
2937,64.0,0,96,7.0,100.0
2938,60.0,96,96,7.0,100.0
2939,76.0,0,96,4.0,100.0
2940,57.0,96,96,7.0,100.0
2941,72.0,0,96,4.0,100.0
2942,59.0,96,96,7.0,100.0
2943,71.0,0,96,4.0,100.0
2944,60.0,0,96,7.0,100.0
2945,69.0,96,96,4.0,100.0
2946,72.0,0,96,4.0,100.0
2947,57.0,96,96,7.0,100.0
2948,69.0,96,96,4.0,100.0
2949,54.0,0,96,7.0,100.0
2950,67.0,0,96,4.0,100.0
2951,55.0,96,96,7.0,100.0
2952,66.0,0,96,4.0,100.0
2953,57.0,96,96,7.0,100.0
2954,54.0,96,96,7.0,100.0
2955,69.0,0,96,4.0,100.0
2956,69.0,0,96,7.0,100.0
2957,72.0,96,96,4.0,100.0
2958,71.0,96,96,4.0,100.0
2959,67.0,0,96,7.0,100.0
2960,66.0,0,96,7.0,100.0
2961,69.0,96,96,4.0,100.0
2962,69.0,96,94,7.0,100.0
2963,72.0,0,96,4.0,100.0
2964,71.0,96,96,7.0,100.0
2965,67.0,0,142,4.0,100.0
2966,62.0,0,142,4.0,100.0
2967,72.0,96,96,7.0,100.0
2968,71.0,0,96,7.0,100.0
2969,98.0,96,96,4.0,100.0
2970,69.0,0,96,7.0,100.0
2971,96.0,96,96,4.0,100.0
2972,98.0,0,96,4.0,100.0
2973,71.0,96,96,7.0,100.0
2974,72.0,0,96,7.0,100.0
2975,96.0,96,96,4.0,100.0
2976,74.0,0,96,7.0,100.0
2977,95.0,96,96,4.0,100.0
2978,98.0,0,96,4.0,100.0
2979,71.0,96,96,7.0,100.0
2980,67.0,96,96,7.0,100.0
2981,95.0,0,96,4.0,100.0
2982,69.0,96,96,7.0,100.0
2983,93.0,0,96,4.0,100.0
2984,71.0,96,96,7.0,100.0
2985,91.0,0,96,4.0,100.0
2986,67.0,0,96,7.0,100.0
2987,95.0,96,96,4.0,100.0
2988,83.0,96,96,4.0,100.0
2989,62.0,0,96,7.0,100.0
2990,81.0,96,96,4.0,100.0
2991,66.0,0,96,7.0,100.0
2992,79.0,96,96,4.0,100.0
2993,67.0,0,96,7.0,100.0
2994,62.0,96,96,7.0,100.0
2995,83.0,0,96,4.0,100.0
2996,59.0,96,96,7.0,100.0
2997,74.0,0,96,4.0,100.0
2998,72.0,0,96,4.0,100.0
2999,60.0,96,96,7.0,100.0
3000,71.0,96,96,4.0,100.0
3001,62.0,0,96,7.0,100.0
3002,74.0,96,96,4.0,100.0
3003,59.0,0,96,7.0,100.0
3004,83.0,96,96,4.0,100.0
3005,55.0,0,96,7.0,100.0
3006,57.0,0,96,7.0,100.0
3007,81.0,96,96,4.0,100.0
3008,59.0,0,96,7.0,100.0
3009,79.0,96,96,4.0,100.0
3010,55.0,0,96,7.0,100.0
3011,83.0,96,96,4.0,100.0
3012,86.0,0,96,4.0,100.0
3013,50.0,96,96,7.0,100.0
3014,54.0,0,96,7.0,100.0
3015,84.0,96,96,4.0,100.0
3016,83.0,96,96,4.0,100.0
3017,55.0,0,96,7.0,100.0
3018,86.0,96,96,4.0,100.0
3019,50.0,0,96,7.0,100.0
3020,48.0,0,96,7.0,100.0
3021,88.0,96,160,4.0,100.0
3022,55.0,96,96,7.0,100.0
3023,50.0,96,96,7.0,100.0
3024,81.0,0,160,4.0,100.0
3025,86.0,0,160,4.0,100.0
3026,90.0,0,160,4.0,100.0
3027,48.0,96,96,7.0,100.0
3028,79.0,96,142,4.0,100.0
3029,86.0,0,142,4.0,100.0
3030,91.0,0,142,4.0,100.0
3031,47.0,0,192,7.0,100.0
3032,43.0,0,192,7.0,100.0
3033,55.0,192,192,7.0,100.0
3034,48.0,0,94,7.0,127.0
3035,52.0,192,94,7.0,127.0
3036,60.0,192,96,7.0,100.0
3037,57.0,96,96,7.0,100.0
3038,54.0,96,192,7.0,100.0
3039,66.0,0,192,4.0,100.0
3040,69.0,0,192,4.0,100.0
3041,50.0,192,192,7.0,100.0
3042,62.0,0,192,7.0,100.0
3043,71.0,0,94,4.0,100.0
3044,67.0,192,94,4.0,100.0
3045,55.0,0,94,7.0,127.0
3046,59.0,0,94,7.0,127.0
3047,83.0,0,96,4.0,100.0
3048,91.0,0,96,4.0,100.0
3049,90.0,0,96,4.0,100.0
3050,81.0,96,96,4.0,100.0
3051,83.0,0,192,4.0,100.0
3052,91.0,96,192,4.0,100.0
3053,64.0,192,0,7.0,100.0
3054,55.0,0,0,7.0,100.0
3055,79.0,0,192,4.0,100.0
3056,83.0,0,192,4.0,100.0
3057,88.0,0,192,4.0,100.0
3058,57.0,0,192,7.0,100.0
3059,66.0,0,192,7.0,100.0
3060,81.0,192,192,4.0,100.0
3061,78.0,0,192,4.0,100.0
3062,86.0,0,192,4.0,100.0
3063,67.0,0,96,7.0,100.0
3064,57.0,192,160,7.0,100.0
3065,79.0,0,192,4.0,100.0
3066,85.0,0,192,4.0,100.0
3067,76.0,0,192,4.0,100.0
3068,69.0,96,96,7.0,100.0
3069,69.0,0,192,7.0,100.0
3070,79.0,96,192,4.0,100.0
3071,88.0,0,192,4.0,100.0
3072,71.0,192,144,7.0,100.0
3073,86.0,0,192,4.0,100.0
3074,78.0,0,192,4.0,100.0
3075,73.0,144,48,7.0,100.0
3076,62.0,0,528,7.0,100.0
3077,62.0,0,528,6.0,100.0
3078,86.0,0,160,4.0,100.0
3079,74.0,48,160,7.0,100.0
3080,78.0,0,160,4.0,100.0
3081,86.0,0,96,4.0,100.0
3082,76.0,192,96,7.0,100.0
3083,79.0,0,96,4.0,100.0
3084,81.0,0,96,4.0,100.0
3085,84.0,96,96,4.0,100.0
3086,78.0,0,96,7.0,100.0
3087,83.0,0,160,4.0,100.0
3088,79.0,96,192,7.0,100.0
3089,71.0,0,192,7.0,100.0
3090,91.0,0,192,4.0,100.0
3091,74.0,192,192,7.0,100.0
3092,79.0,0,256,4.0,100.0
3093,72.0,0,94,7.0,100.0
3094,76.0,0,94,7.0,100.0
3095,88.0,192,94,4.0,100.0
3096,69.0,192,96,7.0,100.0
3097,84.0,0,96,4.0,100.0
3098,96.0,0,96,4.0,100.0
3099,88.0,96,96,4.0,100.0
3100,93.0,0,96,4.0,100.0
3101,72.0,0,96,7.0,100.0
3102,90.0,0,160,4.0,100.0
3103,74.0,0,192,7.0,100.0
3104,98.0,0,192,4.0,100.0
3105,66.0,192,192,7.0,100.0
3106,69.0,0,192,7.0,100.0
3107,86.0,0,256,4.0,100.0
3108,67.0,0,94,7.0,100.0
3109,71.0,0,94,7.0,100.0
3110,95.0,192,94,4.0,100.0
3111,91.0,192,96,4.0,100.0
3112,90.0,96,96,4.0,100.0
3113,64.0,0,192,7.0,100.0
3114,91.0,0,192,4.0,100.0
3115,71.0,0,192,7.0,100.0
3116,67.0,192,0,7.0,100.0
3117,64.0,0,192,7.0,100.0
3118,72.0,0,192,7.0,100.0
3119,88.0,0,192,4.0,100.0
3120,67.0,0,94,6.0,100.0
3121,69.0,96,94,6.0,100.0
3122,64.0,192,192,7.0,100.0
3123,72.0,0,192,7.0,100.0
3124,84.0,0,192,4.0,100.0
3125,63.0,96,192,7.0,100.0
3126,71.0,0,192,7.0,100.0
3127,83.0,0,0,4.0,100.0
3128,78.0,0,192,4.0,100.0
3129,66.0,0,0,7.0,100.0
3130,63.0,192,160,7.0,100.0
3131,71.0,0,160,7.0,100.0
3132,78.0,0,192,5.0,100.0
3133,81.0,0,96,5.0,100.0
3134,59.0,0,192,7.0,100.0
3135,63.0,192,192,7.0,100.0
3136,79.0,0,0,5.0,100.0
3137,67.0,0,192,7.0,100.0
3138,64.0,96,192,7.0,100.0
3139,62.0,0,96,7.0,100.0
3140,65.0,0,96,7.0,100.0
3141,61.0,0,0,7.0,100.0
3142,88.0,192,192,4.0,100.0
3143,64.0,96,0,7.0,100.0
3144,82.0,0,192,4.0,100.0
3145,79.0,0,352,5.0,100.0
3146,79.0,0,96,5.0,100.0
3147,57.0,192,192,7.0,100.0
3148,61.0,0,192,7.0,100.0
3149,77.0,96,96,5.0,100.0
3150,81.0,0,528,4.0,100.0
3151,77.0,0,160,5.0,100.0
3152,62.0,96,192,7.0,100.0
3153,65.0,0,192,7.0,100.0
3154,63.0,0,96,7.0,100.0
3155,60.0,192,96,7.0,100.0
3156,62.0,96,96,7.0,100.0
3157,86.0,0,192,4.0,100.0
3158,80.0,0,192,4.0,100.0
3159,59.0,96,0,7.0,100.0
3160,62.0,0,160,7.0,100.0
3161,77.0,192,96,5.0,100.0
3162,55.0,0,192,7.0,100.0
3163,59.0,0,192,7.0,100.0
3164,76.0,96,96,5.0,100.0
3165,79.0,0,528,4.0,100.0
3166,76.0,0,160,5.0,100.0
3167,64.0,0,192,7.0,100.0
3168,60.0,96,192,7.0,100.0
3169,59.0,0,96,7.0,100.0
3170,62.0,0,96,7.0,100.0
3171,85.0,0,192,4.0,100.0
3172,58.0,96,96,7.0,100.0
3173,61.0,0,96,7.0,100.0
3174,79.0,192,192,4.0,100.0
3175,58.0,0,160,7.0,100.0
3176,61.0,0,160,7.0,100.0
3177,76.0,0,352,5.0,100.0
3178,76.0,0,96,5.0,100.0
3179,58.0,0,192,7.0,100.0
3180,75.0,96,96,5.0,100.0
3181,54.0,192,192,7.0,100.0
3182,78.0,96,528,4.0,100.0
3183,74.0,0,160,5.0,100.0
3184,62.0,0,192,7.0,100.0
3185,59.0,96,192,7.0,100.0
3186,60.0,0,96,7.0,100.0
3187,57.0,192,96,7.0,100.0
3188,59.0,96,96,7.0,100.0
3189,56.0,96,0,7.0,100.0
3190,77.0,0,192,4.0,100.0
3191,83.0,0,192,4.0,100.0
3192,77.0,0,96,4.0,100.0
3193,59.0,0,160,6.0,100.0
3194,74.0,0,352,5.0,100.0
3195,76.0,96,160,4.0,100.0
3196,57.0,0,96,7.0,100.0
3197,73.0,0,160,5.0,100.0
3198,55.0,96,96,7.0,100.0
3199,64.0,96,192,6.0,100.0
3200,81.0,0,96,4.0,100.0
3201,75.0,96,96,4.0,100.0
3202,72.0,0,160,5.0,100.0
3203,54.0,0,192,7.0,100.0
3204,57.0,0,192,6.0,100.0
3205,74.0,96,192,4.0,100.0
3206,55.0,96,96,7.0,100.0
3207,71.0,0,160,5.0,100.0
3208,79.0,0,94,4.0,100.0
3209,47.0,96,96,7.0,100.0
3210,59.0,0,192,6.0,100.0
3211,74.0,96,96,4.0,100.0
3212,86.0,96,96,4.0,100.0
3213,85.0,96,96,4.0,100.0
3214,84.0,96,96,4.0,100.0
3215,81.0,96,96,4.0,100.0
3216,78.0,96,96,4.0,100.0
3217,75.0,96,96,4.0,100.0
3218,74.0,96,96,4.0,100.0
3219,73.0,96,96,4.0,100.0
3220,72.0,96,96,4.0,100.0
3221,69.0,96,96,4.0,100.0
3222,60.0,0,1104,6.0,100.0
3223,50.0,0,1104,7.0,127.0
3224,45.0,0,1104,7.0,127.0
3225,66.0,96,96,4.0,100.0
3226,63.0,0,96,5.0,100.0
3227,67.0,96,160,4.0,100.0
3228,62.0,96,94,5.0,100.0
3229,76.0,0,96,4.0,100.0
3230,59.0,0,336,6.0,100.0
3231,59.0,0,336,7.0,100.0
3232,47.0,0,336,7.0,100.0
3233,50.0,0,336,7.0,100.0
3234,67.0,96,160,5.0,100.0
3235,74.0,96,0,4.0,100.0
3236,86.0,96,96,4.0,100.0
3237,85.0,96,96,4.0,100.0
3238,84.0,96,96,4.0,100.0
3239,81.0,96,96,4.0,100.0
3240,78.0,96,96,4.0,100.0
3241,75.0,96,96,4.0,100.0
3242,74.0,96,96,4.0,100.0
3243,73.0,96,96,4.0,100.0
3244,72.0,96,96,4.0,100.0
3245,69.0,96,96,4.0,100.0
3246,50.0,0,1104,7.0,127.0
3247,60.0,0,1104,6.0,100.0
3248,45.0,0,1104,7.0,127.0
3249,66.0,96,96,4.0,100.0
3250,63.0,96,96,5.0,100.0
3251,67.0,0,160,4.0,100.0
3252,62.0,96,94,5.0,100.0
3253,76.0,96,96,4.0,100.0
3254,59.0,0,336,6.0,100.0
3255,47.0,0,336,7.0,100.0
3256,50.0,0,336,7.0,100.0
3257,59.0,0,336,7.0,100.0
3258,67.0,0,160,5.0,100.0
3259,74.0,96,96,4.0,100.0
3260,74.0,0,96,4.0,100.0
3261,71.0,0,94,5.0,100.0
3262,79.0,96,96,4.0,100.0
3263,74.0,96,94,5.0,100.0
3264,83.0,0,96,4.0,100.0
3265,72.0,96,94,5.0,100.0
3266,47.0,96,384,7.0,100.0
3267,81.0,0,96,4.0,100.0
3268,35.0,0,384,7.0,100.0
3269,71.0,96,94,5.0,100.0
3270,75.0,96,94,5.0,100.0
3271,76.0,96,94,5.0,100.0
3272,71.0,96,94,5.0,100.0
3273,40.0,0,384,7.0,100.0
3274,52.0,0,384,7.0,100.0
3275,70.0,0,94,5.0,100.0
3276,75.0,96,94,5.0,100.0
3277,76.0,96,94,5.0,100.0
3278,70.0,96,94,5.0,100.0
3279,79.0,0,768,4.0,100.0
3280,37.0,0,384,7.0,100.0
3281,49.0,96,384,7.0,100.0
3282,69.0,0,94,5.0,100.0
3283,38.0,0,160,7.0,100.0
3284,50.0,96,160,7.0,100.0
3285,73.0,96,94,5.0,100.0
3286,78.0,0,192,4.0,100.0
3287,74.0,96,94,5.0,100.0
3288,74.0,0,160,4.0,100.0
3289,86.0,96,94,5.0,100.0
3290,86.0,0,96,4.0,100.0
3291,98.0,96,96,4.0,100.0
3292,97.0,96,96,4.0,100.0
3293,96.0,96,96,4.0,100.0
3294,93.0,96,96,4.0,100.0
3295,90.0,96,96,4.0,100.0
3296,87.0,96,96,4.0,100.0
3297,86.0,96,96,4.0,100.0
3298,85.0,96,96,4.0,100.0
3299,84.0,96,96,4.0,100.0
3300,81.0,96,96,4.0,100.0
3301,57.0,0,1104,7.0,127.0
3302,62.0,96,1104,7.0,127.0
3303,72.0,0,1104,6.0,100.0
3304,78.0,96,96,4.0,100.0
3305,75.0,0,96,5.0,100.0
3306,79.0,0,160,4.0,100.0
3307,74.0,96,94,5.0,100.0
3308,88.0,0,96,4.0,100.0
3309,71.0,96,336,6.0,100.0
3310,71.0,0,336,7.0,100.0
3311,62.0,0,336,7.0,100.0
3312,59.0,0,336,7.0,100.0
3313,79.0,96,160,5.0,100.0
3314,86.0,0,0,4.0,100.0
3315,98.0,96,96,4.0,100.0
3316,97.0,96,96,4.0,100.0
3317,96.0,96,96,4.0,100.0
3318,93.0,96,96,4.0,100.0
3319,90.0,96,96,4.0,100.0
3320,87.0,96,96,4.0,100.0
3321,86.0,96,96,4.0,100.0
3322,85.0,96,96,4.0,100.0
3323,84.0,96,96,4.0,100.0
3324,81.0,96,96,4.0,100.0
3325,45.0,0,1104,7.0,127.0
3326,60.0,96,1104,6.0,100.0
3327,50.0,0,1104,7.0,127.0
3328,78.0,96,96,4.0,100.0
3329,75.0,0,96,5.0,100.0
3330,47.0,96,160,7.0,100.0
3331,50.0,0,160,7.0,100.0
3332,79.0,0,160,4.0,100.0
3333,59.0,0,160,7.0,100.0
3334,74.0,96,94,5.0,100.0
3335,88.0,0,96,4.0,100.0
3336,59.0,96,160,7.0,100.0
3337,79.0,0,160,5.0,100.0
3338,86.0,96,96,4.0,100.0
3339,86.0,0,96,4.0,100.0
3340,71.0,96,94,5.0,100.0
3341,79.0,0,96,4.0,100.0
3342,74.0,96,94,5.0,100.0
3343,83.0,0,96,4.0,100.0
3344,72.0,0,94,5.0,100.0
3345,81.0,96,96,4.0,100.0
3346,59.0,96,384,7.0,127.0
3347,71.0,0,94,5.0,100.0
3348,75.0,96,94,5.0,100.0
3349,76.0,96,94,5.0,100.0
3350,71.0,96,94,5.0,100.0
3351,64.0,0,384,7.0,100.0
3352,70.0,96,94,5.0,100.0
3353,75.0,96,94,5.0,100.0
3354,76.0,96,94,5.0,100.0
3355,70.0,96,94,5.0,100.0
3356,61.0,0,384,7.0,100.0
3357,79.0,96,768,4.0,100.0
3358,69.0,0,94,5.0,100.0
3359,74.0,96,94,5.0,100.0
3360,62.0,0,192,7.0,100.0
3361,78.0,96,192,4.0,100.0
3362,67.0,96,94,5.0,100.0
3363,63.0,0,160,7.0,100.0
3364,79.0,0,160,4.0,100.0
3365,72.0,96,94,5.0,100.0
3366,79.0,0,96,4.0,100.0
3367,76.0,0,94,5.0,100.0
3368,84.0,96,96,4.0,100.0
3369,79.0,0,94,5.0,100.0
3370,88.0,96,96,4.0,100.0
3371,77.0,96,94,5.0,100.0
3372,86.0,0,96,4.0,100.0
3373,64.0,96,384,7.0,127.0
3374,76.0,96,94,5.0,100.0
3375,80.0,96,94,5.0,100.0
3376,81.0,96,94,5.0,100.0
3377,76.0,96,94,5.0,100.0
3378,69.0,0,384,7.0,100.0
3379,75.0,96,94,5.0,100.0
3380,80.0,96,94,5.0,100.0
3381,81.0,96,94,5.0,100.0
3382,75.0,96,94,5.0,100.0
3383,66.0,0,384,7.0,100.0
3384,84.0,0,768,4.0,100.0
3385,74.0,96,94,5.0,100.0
3386,79.0,96,94,5.0,100.0
3387,67.0,0,192,7.0,100.0
3388,83.0,0,192,4.0,100.0
3389,72.0,0,94,5.0,100.0
3390,84.0,0,160,4.0,100.0
3391,68.0,96,160,7.0,100.0
3392,77.0,96,94,5.0,100.0
3393,84.0,96,96,4.0,100.0
3394,81.0,0,94,5.0,100.0
3395,89.0,96,96,4.0,100.0
3396,84.0,96,94,5.0,100.0
3397,93.0,0,96,4.0,100.0
3398,82.0,0,94,5.0,100.0
3399,69.0,0,384,7.0,127.0
3400,91.0,96,96,4.0,100.0
3401,80.0,96,94,5.0,100.0
3402,77.0,96,94,5.0,100.0
3403,80.0,96,94,5.0,100.0
3404,79.0,96,94,5.0,100.0
3405,73.0,0,384,7.0,100.0
3406,80.0,0,94,5.0,100.0
3407,85.0,96,94,5.0,100.0
3408,86.0,96,94,5.0,100.0
3409,80.0,96,94,5.0,100.0
3410,71.0,96,384,7.0,100.0
3411,79.0,0,94,5.0,100.0
3412,83.0,96,94,5.0,100.0
3413,84.0,96,94,5.0,100.0
3414,79.0,96,94,5.0,100.0
3415,84.0,96,160,5.0,100.0
3416,88.0,96,544,4.0,100.0
3417,72.0,0,544,7.0,127.0
3418,60.0,0,544,7.0,127.0
3419,48.0,0,160,6.0,100.0
3420,84.0,0,160,4.0,100.0
3421,88.0,0,160,4.0,100.0
3422,36.0,0,160,6.0,100.0
3423,79.0,0,160,4.0,100.0
3424,76.0,0,160,4.0,100.0
3425,36.0,192,160,7.0,127.0
3426,48.0,0,160,7.0,127.0
3427,86.0,0,160,4.0,127.0
3428,83.0,192,160,4.0,127.0
3429,88.0,192,94,4.0,100.0
3430,84.0,0,94,4.0,100.0
3431,86.0,0,94,4.0,100.0
3432,89.0,96,94,4.0,100.0
3433,91.0,0,142,4.0,100.0
3434,88.0,96,142,4.0,100.0
3435,84.0,0,142,4.0,100.0
3436,88.0,0,142,4.0,100.0
3437,60.0,0,160,7.0,100.0
3438,64.0,192,160,7.0,100.0
3439,62.0,192,142,7.0,127.0
3440,59.0,0,142,7.0,127.0
3441,64.0,192,94,7.0,100.0
3442,60.0,0,94,7.0,100.0
3443,65.0,0,94,7.0,100.0
3444,62.0,96,94,7.0,100.0
3445,64.0,0,142,7.0,100.0
3446,67.0,96,142,7.0,100.0
3447,48.0,0,160,6.0,100.0
3448,88.0,0,160,4.0,100.0
3449,79.0,0,160,4.0,100.0
3450,76.0,0,160,4.0,100.0
3451,48.0,192,160,7.0,127.0
3452,36.0,0,160,7.0,127.0
3453,36.0,0,160,6.0,100.0
3454,84.0,0,160,4.0,100.0
3455,86.0,0,160,4.0,127.0
3456,83.0,192,160,4.0,127.0
3457,84.0,192,94,4.0,100.0
3458,88.0,0,94,4.0,100.0
3459,86.0,96,94,4.0,100.0
3460,89.0,0,94,4.0,100.0
3461,91.0,0,48,4.0,100.0
3462,88.0,96,48,4.0,100.0
3463,49.0,0,160,6.0,100.0
3464,37.0,0,160,6.0,100.0
3465,91.0,0,160,4.0,100.0
3466,88.0,0,160,4.0,100.0
3467,81.0,0,160,4.0,100.0
3468,79.0,192,160,4.0,100.0
3469,49.0,0,160,7.0,127.0
3470,37.0,0,160,7.0,127.0
3471,45.0,384,160,7.0,127.0
3472,88.0,0,160,4.0,100.0
3473,79.0,0,160,4.0,100.0
3474,33.0,0,160,7.0,127.0
3475,91.0,0,160,4.0,100.0
3476,85.0,0,160,4.0,100.0
3477,45.0,0,160,6.0,100.0
3478,33.0,0,160,6.0,100.0
3479,86.0,0,160,4.0,100.0
3480,50.0,0,160,7.0,127.0
3481,83.0,0,160,4.0,100.0
3482,38.0,0,160,6.0,100.0
3483,50.0,0,160,6.0,100.0
3484,79.0,384,160,4.0,100.0
3485,91.0,0,160,4.0,100.0
3486,38.0,0,160,7.0,127.0
3487,91.0,0,142,4.0,100.0
3488,85.0,0,142,4.0,100.0
3489,81.0,0,142,4.0,100.0
3490,79.0,0,142,4.0,100.0
3491,52.0,0,160,7.0,127.0
3492,40.0,0,160,7.0,127.0
3493,40.0,0,160,6.0,100.0
3494,52.0,384,160,6.0,100.0
3495,38.0,192,96,7.0,127.0
3496,42.0,96,96,7.0,100.0
3497,43.0,96,96,7.0,100.0
3498,47.0,96,96,7.0,100.0
3499,79.0,0,384,4.0,100.0
3500,91.0,0,384,4.0,100.0
3501,86.0,0,384,4.0,100.0
3502,83.0,0,0,4.0,100.0
3503,50.0,96,96,7.0,100.0
3504,54.0,96,96,7.0,100.0
3505,55.0,96,96,7.0,100.0
3506,59.0,96,96,7.0,100.0
3507,62.0,96,96,7.0,100.0
3508,86.0,0,576,4.0,100.0
3509,83.0,0,0,4.0,100.0
3510,79.0,0,0,4.0,100.0
3511,66.0,96,96,7.0,100.0
3512,67.0,96,96,7.0,100.0
3513,74.0,0,160,4.0,100.0
3514,71.0,96,94,7.0,100.0
3515,74.0,96,96,4.0,100.0
3516,78.0,96,96,4.0,100.0
3517,67.0,96,96,7.0,100.0
3518,79.0,0,96,4.0,100.0
3519,71.0,96,96,7.0,100.0
3520,83.0,0,96,4.0,100.0
3521,73.0,0,96,7.0,100.0
3522,85.0,96,96,4.0,100.0
3523,74.0,96,96,7.0,100.0
3524,86.0,0,96,4.0,100.0
3525,76.0,96,96,7.0,100.0
3526,88.0,0,96,4.0,100.0
3527,86.0,96,96,4.0,100.0
3528,74.0,0,96,7.0,100.0
3529,90.0,96,96,4.0,100.0
3530,78.0,0,96,7.0,100.0
3531,79.0,0,96,7.0,100.0
3532,91.0,96,96,4.0,100.0
3533,81.0,96,96,7.0,100.0
3534,93.0,0,96,4.0,100.0
3535,79.0,96,96,7.0,100.0
3536,91.0,0,96,4.0,100.0
3537,94.0,0,96,4.0,100.0
3538,82.0,96,96,7.0,100.0
3539,95.0,96,96,4.0,100.0
3540,83.0,0,96,7.0,100.0
3541,96.0,0,96,4.0,100.0
3542,84.0,96,96,7.0,100.0
3543,83.0,96,96,7.0,100.0
3544,95.0,0,96,4.0,100.0
3545,86.0,96,160,7.0,100.0
3546,98.0,0,160,4.0,100.0
3547,62.0,0,64,7.0,100.0
3548,64.0,64,64,7.0,100.0
3549,74.0,0,160,4.0,100.0
3550,81.0,192,160,4.0,100.0
3551,84.0,0,160,4.0,100.0
3552,66.0,64,64,7.0,100.0
3553,55.0,64,126,7.0,127.0
3554,71.0,128,126,7.0,100.0
3555,67.0,128,126,7.0,100.0
3556,66.0,128,126,7.0,100.0
3557,71.0,128,126,7.0,100.0
3558,74.0,0,720,5.0,100.0
3559,67.0,128,126,7.0,100.0
3560,79.0,0,768,4.0,100.0
3561,83.0,0,768,4.0,100.0
3562,63.0,0,126,7.0,127.0
3563,72.0,128,126,7.0,100.0
3564,79.0,128,336,5.0,100.0
3565,67.0,128,126,7.0,100.0
3566,84.0,0,0,4.0,100.0
3567,60.0,128,126,7.0,127.0
3568,72.0,128,126,7.0,100.0
3569,79.0,0,336,5.0,100.0
3570,67.0,128,126,7.0,100.0
3571,87.0,0,384,4.0,100.0
3572,59.0,0,126,7.0,127.0
3573,71.0,128,126,7.0,100.0
3574,86.0,0,336,5.0,100.0
3575,67.0,128,126,7.0,100.0
3576,55.0,0,126,7.0,127.0
3577,71.0,128,126,7.0,100.0
3578,83.0,128,336,5.0,100.0
3579,67.0,128,126,7.0,100.0
3580,91.0,128,768,4.0,100.0
3581,79.0,0,768,4.0,100.0
3582,60.0,0,126,7.0,127.0
3583,72.0,128,126,7.0,100.0
3584,79.0,0,336,5.0,100.0
3585,67.0,128,126,7.0,100.0
3586,87.0,0,384,4.0,100.0
3587,84.0,128,0,4.0,100.0
3588,63.0,0,126,7.0,127.0
3589,72.0,128,126,7.0,100.0
3590,79.0,0,336,5.0,100.0
3591,67.0,128,126,7.0,100.0
3592,62.0,128,126,7.0,127.0
3593,70.0,128,126,7.0,100.0
3594,67.0,128,126,7.0,100.0
3595,82.0,0,384,4.0,100.0
3596,62.0,128,126,7.0,127.0
3597,71.0,128,126,7.0,100.0
3598,79.0,0,720,5.0,100.0
3599,67.0,128,126,7.0,100.0
3600,83.0,0,384,4.0,100.0
3601,62.0,0,126,7.0,127.0
3602,72.0,128,126,7.0,100.0
3603,78.0,0,336,5.0,100.0
3604,69.0,128,126,7.0,100.0
3605,86.0,128,384,4.0,100.0
3606,50.0,0,126,7.0,127.0
3607,62.0,128,126,7.0,100.0
3608,81.0,128,288,4.0,100.0
3609,84.0,0,288,4.0,100.0
3610,74.0,64,160,5.0,100.0
3611,78.0,32,94,4.0,127.0
3612,81.0,0,94,4.0,127.0
3613,60.0,64,126,7.0,100.0
3614,79.0,0,46,5.0,100.0
3615,81.0,48,46,5.0,100.0
3616,43.0,0,96,7.0,127.0
3617,79.0,48,46,5.0,100.0
3618,74.0,0,160,5.0,100.0
3619,81.0,48,46,5.0,100.0
3620,55.0,0,96,7.0,100.0
3621,79.0,0,46,5.0,100.0
3622,81.0,48,46,5.0,100.0
3623,59.0,48,96,7.0,100.0
3624,79.0,48,46,5.0,100.0
3625,81.0,48,46,5.0,100.0
3626,55.0,0,96,7.0,100.0
3627,79.0,0,46,5.0,100.0
3628,81.0,48,46,5.0,100.0
3629,54.0,48,96,7.0,127.0
3630,79.0,48,46,5.0,100.0
3631,81.0,48,46,5.0,100.0
3632,55.0,0,96,7.0,100.0
3633,79.0,0,46,5.0,100.0
3634,81.0,48,46,5.0,100.0
3635,67.0,48,96,7.0,100.0
3636,79.0,48,46,5.0,100.0
3637,81.0,48,46,5.0,100.0
3638,55.0,0,96,7.0,100.0
3639,83.0,96,768,4.0,127.0
3640,79.0,0,46,5.0,100.0
3641,81.0,48,46,5.0,100.0
3642,52.0,48,96,7.0,127.0
3643,79.0,0,46,5.0,100.0
3644,81.0,48,46,5.0,100.0
3645,55.0,48,96,7.0,100.0
3646,79.0,0,46,5.0,100.0
3647,81.0,48,46,5.0,100.0
3648,67.0,48,96,7.0,100.0
3649,79.0,0,46,5.0,100.0
3650,81.0,48,46,5.0,100.0
3651,55.0,48,96,7.0,100.0
3652,84.0,0,384,4.0,127.0
3653,79.0,0,46,5.0,100.0
3654,81.0,48,46,5.0,100.0
3655,48.0,48,96,7.0,127.0
3656,79.0,48,46,5.0,100.0
3657,81.0,48,46,5.0,100.0
3658,55.0,0,96,7.0,100.0
3659,79.0,0,46,5.0,100.0
3660,81.0,48,46,5.0,100.0
3661,64.0,48,96,7.0,100.0
3662,79.0,48,46,5.0,100.0
3663,81.0,48,46,5.0,100.0
3664,55.0,0,94,7.0,100.0
3665,88.0,0,384,4.0,127.0
3666,79.0,0,46,5.0,100.0
3667,47.0,48,94,7.0,127.0
3668,81.0,48,46,5.0,100.0
3669,79.0,48,46,5.0,100.0
3670,81.0,48,46,5.0,100.0
3671,55.0,0,94,7.0,100.0
3672,79.0,48,46,5.0,100.0
3673,81.0,48,46,5.0,100.0
3674,62.0,0,94,7.0,100.0
3675,79.0,48,46,5.0,100.0
3676,81.0,48,46,5.0,100.0
3677,55.0,0,94,7.0,100.0
3678,79.0,0,46,5.0,100.0
3679,43.0,48,94,7.0,127.0
3680,81.0,48,46,5.0,100.0
3681,79.0,48,46,5.0,100.0
3682,81.0,48,46,5.0,100.0
3683,55.0,0,94,7.0,100.0
3684,79.0,48,46,5.0,100.0
3685,81.0,48,46,5.0,100.0
3686,59.0,0,94,7.0,100.0
3687,79.0,0,46,5.0,100.0
3688,91.0,0,720,4.0,127.0
3689,81.0,48,46,5.0,100.0
3690,55.0,48,94,7.0,100.0
3691,79.0,0,46,5.0,100.0
3692,81.0,48,46,5.0,100.0
3693,48.0,0,94,7.0,127.0
3694,79.0,0,46,5.0,100.0
3695,55.0,48,94,7.0,100.0
3696,81.0,48,46,5.0,100.0
3697,79.0,48,46,5.0,100.0
3698,64.0,0,94,7.0,100.0
3699,81.0,48,46,5.0,100.0
3700,79.0,0,46,5.0,100.0
3701,81.0,48,46,5.0,100.0
3702,55.0,48,94,7.0,100.0
3703,88.0,48,384,4.0,127.0
3704,79.0,0,46,5.0,100.0
3705,52.0,48,94,7.0,127.0
3706,81.0,48,46,5.0,100.0
3707,79.0,48,46,5.0,100.0
3708,81.0,48,46,5.0,100.0
3709,55.0,0,94,7.0,100.0
3710,79.0,0,46,5.0,100.0
3711,81.0,48,46,5.0,100.0
3712,67.0,48,94,7.0,100.0
3713,79.0,48,46,5.0,100.0
3714,55.0,0,94,7.0,100.0
3715,81.0,48,46,5.0,100.0
3716,84.0,0,384,4.0,127.0
3717,79.0,0,46,5.0,100.0
3718,81.0,48,46,5.0,100.0
3719,50.0,0,94,7.0,127.0
3720,79.0,48,46,5.0,100.0
3721,52.0,0,94,7.0,100.0
3722,81.0,48,46,5.0,100.0
3723,82.0,48,192,4.0,127.0
3724,79.0,0,46,5.0,100.0
3725,54.0,48,94,7.0,100.0
3726,81.0,48,46,5.0,100.0
3727,79.0,0,46,5.0,100.0
3728,81.0,48,46,5.0,100.0
3729,55.0,48,94,7.0,100.0
3730,79.0,48,46,5.0,100.0
3731,81.0,48,46,5.0,100.0
3732,57.0,0,94,7.0,127.0
3733,79.0,48,46,5.0,100.0
3734,59.0,0,94,7.0,100.0
3735,81.0,48,46,5.0,100.0
3736,83.0,0,384,4.0,127.0
3737,79.0,0,46,5.0,100.0
3738,57.0,0,94,7.0,100.0
3739,81.0,48,46,5.0,100.0
3740,79.0,0,46,5.0,100.0
3741,81.0,48,46,5.0,100.0
3742,55.0,48,94,7.0,100.0
3743,86.0,48,192,4.0,127.0
3744,88.0,48,46,4.0,100.0
3745,86.0,48,46,4.0,100.0
3746,54.0,0,94,7.0,127.0
3747,88.0,48,46,4.0,100.0
3748,86.0,48,46,4.0,100.0
3749,55.0,0,94,7.0,100.0
3750,88.0,48,46,4.0,100.0
3751,54.0,0,94,7.0,100.0
3752,86.0,48,46,4.0,100.0
3753,88.0,0,46,4.0,100.0
3754,74.0,0,160,5.0,100.0
3755,86.0,48,46,4.0,100.0
3756,52.0,48,94,7.0,100.0
3757,88.0,48,46,4.0,100.0
3758,50.0,0,94,7.0,127.0
3759,86.0,48,46,4.0,100.0
3760,88.0,0,46,4.0,100.0
3761,48.0,48,94,7.0,100.0
3762,86.0,48,46,4.0,100.0
3763,88.0,0,46,4.0,100.0
3764,47.0,48,94,7.0,100.0
3765,86.0,48,46,4.0,100.0
3766,85.0,0,46,4.0,100.0
3767,45.0,48,94,7.0,100.0
3768,86.0,48,46,4.0,100.0
3769,31.0,0,94,7.0,127.0
3770,86.0,0,160,4.0,127.0
3771,89.0,0,160,4.0,127.0
3772,95.0,0,160,4.0,127.0
3773,98.0,48,160,4.0,127.0
3774,43.0,96,94,7.0,127.0
3775,31.0,0,94,7.0,127.0
3776,43.0,96,94,7.0,127.0
3777,31.0,96,94,7.0,127.0
3778,89.0,0,336,4.0,127.0
3779,98.0,0,336,4.0,127.0
3780,95.0,0,336,4.0,127.0
3781,86.0,96,336,4.0,127.0
3782,43.0,96,94,7.0,127.0
3783,31.0,0,94,7.0,127.0
3784,96.0,96,142,4.0,100.0
3785,89.0,0,142,4.0,100.0
3786,86.0,0,142,4.0,100.0
3787,84.0,0,142,4.0,100.0
3788,43.0,96,94,7.0,127.0
3789,31.0,0,94,7.0,127.0
3790,86.0,96,142,4.0,100.0
3791,95.0,0,142,4.0,100.0
3792,89.0,0,142,4.0,100.0
3793,83.0,0,142,4.0,100.0
3794,43.0,96,94,7.0,100.0
3795,31.0,0,94,7.0,127.0
3796,84.0,96,142,4.0,100.0
3797,86.0,0,142,4.0,100.0
3798,96.0,0,142,4.0,100.0
3799,43.0,96,94,7.0,100.0
3800,31.0,0,94,7.0,127.0
3801,98.0,0,142,4.0,100.0
3802,89.0,0,142,4.0,100.0
3803,86.0,96,142,4.0,100.0
3804,43.0,96,94,7.0,100.0
3805,32.0,96,94,7.0,127.0
3806,86.0,0,142,4.0,100.0
3807,83.0,0,142,4.0,100.0
3808,88.0,0,142,4.0,100.0
3809,95.0,0,142,4.0,100.0
3810,44.0,96,94,7.0,100.0
3811,84.0,96,48,4.0,100.0
3812,88.0,0,48,4.0,100.0
3813,96.0,0,48,4.0,100.0
3814,33.0,0,94,7.0,127.0
3815,45.0,96,94,7.0,100.0
3816,83.0,0,48,4.0,100.0
3817,86.0,96,48,4.0,100.0
3818,95.0,0,48,4.0,100.0
3819,88.0,0,48,4.0,100.0
3820,32.0,0,94,7.0,127.0
3821,44.0,96,94,7.0,100.0
3822,96.0,96,48,4.0,100.0
3823,88.0,0,48,4.0,100.0
3824,84.0,0,48,4.0,100.0
3825,33.0,0,94,7.0,127.0
3826,45.0,96,94,7.0,100.0
3827,81.0,0,48,4.0,100.0
3828,84.0,0,48,4.0,100.0
3829,88.0,96,48,4.0,100.0
3830,93.0,0,48,4.0,100.0
3831,36.0,0,94,7.0,127.0
3832,48.0,96,94,7.0,100.0
3833,91.0,0,48,4.0,100.0
3834,88.0,0,48,4.0,100.0
3835,81.0,96,48,4.0,100.0
3836,37.0,0,94,7.0,127.0
3837,49.0,96,94,7.0,100.0
3838,81.0,0,48,4.0,100.0
3839,85.0,96,48,4.0,100.0
3840,91.0,0,48,4.0,100.0
3841,40.0,0,94,7.0,127.0
3842,52.0,96,94,7.0,100.0
3843,81.0,0,48,4.0,100.0
3844,84.0,96,48,4.0,100.0
3845,90.0,0,48,4.0,100.0
3846,38.0,0,94,7.0,127.0
3847,50.0,96,94,7.0,100.0
3848,81.0,0,48,4.0,100.0
3849,84.0,0,48,4.0,100.0
3850,93.0,96,48,4.0,100.0
3851,38.0,0,94,7.0,127.0
3852,50.0,96,94,7.0,100.0
3853,91.0,0,48,4.0,100.0
3854,83.0,0,48,4.0,100.0
3855,79.0,0,48,4.0,100.0
3856,38.0,96,94,7.0,127.0
3857,50.0,96,94,7.0,100.0
3858,74.0,96,48,4.0,100.0
3859,83.0,0,48,4.0,100.0
3860,86.0,0,48,4.0,100.0
3861,43.0,0,94,7.0,127.0
3862,55.0,96,94,7.0,100.0
3863,78.0,0,48,4.0,100.0
3864,84.0,96,48,4.0,100.0
3865,90.0,0,48,4.0,100.0
3866,38.0,0,94,7.0,127.0
3867,50.0,96,94,7.0,100.0
3868,93.0,0,48,4.0,100.0
3869,84.0,0,48,4.0,100.0
3870,81.0,96,48,4.0,100.0
3871,50.0,0,94,7.0,127.0
3872,62.0,96,94,7.0,100.0
3873,91.0,0,48,4.0,100.0
3874,83.0,0,48,4.0,100.0
3875,79.0,96,48,4.0,100.0
3876,38.0,0,94,7.0,127.0
3877,50.0,96,94,7.0,100.0
3878,74.0,0,48,4.0,100.0
3879,83.0,0,48,4.0,100.0
3880,86.0,0,48,4.0,100.0
3881,43.0,96,94,7.0,127.0
3882,55.0,96,94,7.0,100.0
3883,90.0,0,48,4.0,100.0
3884,78.0,0,48,4.0,100.0
3885,84.0,0,48,4.0,100.0
3886,38.0,96,94,7.0,127.0
3887,50.0,96,94,7.0,100.0
3888,81.0,0,48,4.0,100.0
3889,84.0,96,48,4.0,100.0
3890,90.0,0,48,4.0,100.0
3891,93.0,0,48,4.0,100.0
3892,50.0,0,94,7.0,127.0
3893,62.0,96,94,7.0,100.0
3894,79.0,96,94,4.0,127.0
3895,43.0,0,94,7.0,127.0
3896,55.0,0,94,7.0,100.0
3897,91.0,96,94,4.0,100.0
3898,74.0,0,94,4.0,100.0
3899,38.0,96,94,7.0,127.0
3900,86.0,0,94,4.0,100.0
3901,50.0,96,94,7.0,100.0
3902,42.0,96,94,7.0,127.0
3903,78.0,0,94,4.0,127.0
3904,54.0,0,94,7.0,100.0
3905,90.0,96,94,4.0,100.0
3906,81.0,96,94,4.0,100.0
3907,45.0,0,94,7.0,127.0
3908,93.0,0,94,4.0,100.0
3909,57.0,96,94,7.0,100.0
3910,43.0,96,94,7.0,127.0
3911,79.0,0,94,4.0,127.0
3912,55.0,96,94,7.0,100.0
3913,91.0,0,94,4.0,100.0
3914,38.0,96,94,7.0,127.0
3915,74.0,0,94,4.0,100.0
3916,86.0,0,94,4.0,100.0
3917,50.0,96,94,7.0,100.0
3918,30.0,96,94,7.0,127.0
3919,78.0,0,94,4.0,127.0
3920,90.0,0,94,4.0,100.0
3921,42.0,96,94,7.0,100.0
3922,81.0,0,94,4.0,100.0
3923,33.0,96,94,7.0,127.0
3924,45.0,96,94,7.0,100.0
3925,93.0,0,94,4.0,100.0
3926,79.0,96,160,4.0,127.0
3927,91.0,0,160,4.0,127.0
3928,43.0,0,160,7.0,127.0
3929,31.0,0,160,7.0,127.0
3930,43.0,0,160,6.0,100.0
3931,31.0,0,160,6.0,100.0
3932,81.0,384,160,4.0,127.0
3933,93.0,0,160,4.0,127.0
3934,45.0,0,160,7.0,127.0
3935,45.0,0,160,6.0,100.0
3936,33.0,0,160,6.0,100.0
3937,33.0,0,160,7.0,127.0
3938,47.0,0,720,7.0,127.0
3939,95.0,0,720,4.0,127.0
3940,83.0,0,720,4.0,127.0
3941,35.0,0,720,6.0,127.0
3942,47.0,384,720,6.0,127.0
3943,35.0,0,720,7.0,127.0
3944,83.0,0,160,4.0,127.0
3945,95.0,0,160,4.0,127.0
3946,35.0,0,160,7.0,127.0
3947,47.0,0,160,7.0,127.0
3948,47.0,0,160,6.0,100.0
3949,35.0,768,160,6.0,100.0
3950,36.0,384,160,6.0,100.0
3951,48.0,0,160,6.0,100.0
3952,36.0,0,160,7.0,127.0
3953,48.0,0,160,7.0,127.0
3954,84.0,0,160,4.0,127.0
3955,96.0,0,160,4.0,127.0
3956,98.0,0,720,4.0,127.0
3957,86.0,384,720,4.0,127.0
3958,38.0,0,720,7.0,127.0
3959,50.0,0,720,6.0,127.0
3960,38.0,0,720,6.0,127.0
3961,50.0,0,720,7.0,127.0
3962,71.0,768,94,7.0,100.0
3963,79.0,0,160,4.0,90.0
3964,86.0,0,160,4.0,90.0
3965,74.0,0,160,4.0,90.0
3966,67.0,96,94,7.0,100.0
3967,71.0,0,94,7.0,100.0
3968,67.0,96,94,7.0,100.0
3969,71.0,96,94,7.0,100.0
3970,74.0,0,336,4.0,90.0
3971,79.0,0,336,4.0,90.0
3972,86.0,96,336,4.0,90.0
3973,67.0,96,94,7.0,100.0
3974,72.0,96,94,7.0,100.0
3975,75.0,0,160,4.0,90.0
3976,79.0,0,160,4.0,90.0
3977,84.0,0,160,4.0,90.0
3978,67.0,96,94,7.0,100.0
3979,77.0,0,48,4.0,90.0
3980,79.0,0,48,4.0,90.0
3981,83.0,96,48,4.0,90.0
3982,74.0,0,94,7.0,100.0
3983,67.0,96,94,7.0,100.0
3984,84.0,0,48,4.0,90.0
3985,75.0,0,48,4.0,90.0
3986,79.0,0,48,4.0,90.0
3987,72.0,96,94,7.0,100.0
3988,67.0,96,94,7.0,100.0
3989,79.0,0,48,4.0,90.0
3990,86.0,0,48,4.0,90.0
3991,74.0,96,48,4.0,90.0
3992,71.0,0,94,7.0,100.0
3993,67.0,96,94,7.0,100.0
3994,79.0,0,48,4.0,90.0
3995,83.0,0,48,4.0,90.0
3996,77.0,96,48,4.0,90.0
3997,74.0,0,94,7.0,100.0
3998,67.0,96,94,7.0,100.0
3999,72.0,0,94,7.0,100.0
4000,87.0,96,160,4.0,100.0
4001,79.0,0,160,4.0,100.0
4002,75.0,0,160,4.0,100.0
4003,67.0,96,94,7.0,100.0
4004,72.0,0,94,7.0,100.0
4005,67.0,96,94,7.0,100.0
4006,72.0,96,94,7.0,100.0
4007,75.0,0,336,4.0,100.0
4008,87.0,96,336,4.0,100.0
4009,79.0,0,336,4.0,100.0
4010,67.0,96,94,7.0,100.0
4011,71.0,0,94,7.0,100.0
4012,74.0,96,160,4.0,100.0
4013,79.0,0,160,4.0,100.0
4014,77.0,0,160,4.0,100.0
4015,86.0,0,160,4.0,100.0
4016,67.0,96,94,7.0,100.0
4017,75.0,0,48,4.0,100.0
4018,84.0,96,48,4.0,100.0
4019,79.0,0,48,4.0,100.0
4020,72.0,0,94,7.0,100.0
4021,67.0,96,94,7.0,100.0
4022,86.0,0,48,4.0,100.0
4023,79.0,0,48,4.0,100.0
4024,77.0,96,48,4.0,100.0
4025,74.0,0,48,4.0,100.0
4026,71.0,0,94,7.0,100.0
4027,67.0,96,94,7.0,100.0
4028,79.0,96,48,4.0,100.0
4029,87.0,0,48,4.0,100.0
4030,75.0,0,48,4.0,100.0
4031,72.0,0,94,7.0,100.0
4032,67.0,96,94,7.0,100.0
4033,84.0,0,48,4.0,100.0
4034,79.0,96,48,4.0,100.0
4035,75.0,0,48,4.0,100.0
4036,72.0,0,94,7.0,100.0
4037,60.0,96,94,7.0,100.0
4038,70.0,0,94,7.0,100.0
4039,89.0,0,160,4.0,127.0
4040,80.0,0,160,4.0,127.0
4041,77.0,96,160,4.0,127.0
4042,58.0,96,94,7.0,100.0
4043,62.0,0,94,7.0,100.0
4044,70.0,0,94,7.0,100.0
4045,58.0,96,94,7.0,100.0
4046,70.0,0,94,7.0,100.0
4047,62.0,96,94,7.0,100.0
4048,77.0,0,336,4.0,127.0
4049,80.0,0,336,4.0,127.0
4050,89.0,96,336,4.0,127.0
4051,58.0,96,94,7.0,100.0
4052,70.0,0,94,7.0,100.0
4053,63.0,0,94,7.0,100.0
4054,75.0,96,160,4.0,127.0
4055,87.0,0,160,4.0,127.0
4056,79.0,0,160,4.0,127.0
4057,58.0,96,94,7.0,100.0
4058,74.0,0,48,4.0,127.0
4059,77.0,96,48,4.0,127.0
4060,86.0,0,48,4.0,127.0
4061,70.0,0,94,7.0,100.0
4062,65.0,0,94,7.0,100.0
4063,58.0,96,94,7.0,100.0
4064,75.0,0,48,4.0,127.0
4065,79.0,96,48,4.0,127.0
4066,87.0,0,48,4.0,127.0
4067,70.0,0,94,7.0,100.0
4068,63.0,0,94,7.0,100.0
4069,58.0,96,94,7.0,100.0
4070,77.0,0,48,4.0,127.0
4071,80.0,0,48,4.0,127.0
4072,89.0,0,48,4.0,127.0
4073,62.0,0,94,7.0,100.0
4074,70.0,96,94,7.0,100.0
4075,58.0,96,94,7.0,100.0
4076,86.0,0,48,4.0,127.0
4077,82.0,0,48,4.0,127.0
4078,77.0,0,48,4.0,127.0
4079,74.0,0,48,4.0,127.0
4080,44.0,96,94,7.0,100.0
4081,56.0,96,94,7.0,100.0
4082,43.0,0,94,7.0,100.0
4083,79.0,96,160,4.0,127.0
4084,87.0,0,160,4.0,127.0
4085,91.0,0,160,4.0,127.0
4086,55.0,96,94,7.0,100.0
4087,55.0,96,94,7.0,100.0
4088,67.0,96,94,7.0,100.0
4089,41.0,0,94,7.0,100.0
4090,80.0,0,160,4.0,127.0
4091,92.0,96,160,4.0,127.0
4092,89.0,0,160,4.0,127.0
4093,53.0,96,94,7.0,100.0
4094,53.0,96,94,7.0,100.0
4095,65.0,96,94,7.0,100.0
4096,39.0,0,94,7.0,100.0
4097,51.0,96,94,7.0,100.0
4098,63.0,0,528,7.0,100.0
4099,94.0,0,720,4.0,127.0
4100,82.0,96,720,4.0,127.0
4101,51.0,96,528,7.0,100.0
4102,91.0,0,720,4.0,127.0
4103,63.0,576,160,4.0,100.0
4104,67.0,0,160,4.0,100.0
4105,55.0,192,96,7.0,100.0
4106,58.0,96,94,7.0,100.0
4107,65.0,96,160,4.0,100.0
4108,68.0,0,160,4.0,100.0
4109,53.0,192,96,7.0,100.0
4110,56.0,96,94,7.0,100.0
4111,55.0,0,448,7.0,100.0
4112,70.0,0,640,4.0,100.0
4113,67.0,96,640,4.0,100.0
4114,51.0,192,448,7.0,100.0
4115,51.0,480,96,7.0,100.0
4116,63.0,96,288,7.0,127.0
4117,63.0,96,0,7.0,100.0
4118,51.0,1056,96,4.0,100.0
4119,55.0,0,96,7.0,100.0
4120,67.0,288,0,7.0,100.0
4121,63.0,0,0,4.0,100.0
4122,63.0,0,0,4.0,100.0
4123,67.0,96,160,7.0,100.0
4124,46.0,1056,96,4.0,100.0
4125,51.0,96,288,4.0,100.0
4126,51.0,288,96,4.0,100.0
4127,51.0,96,142,4.0,100.0
4128,53.0,192,96,4.0,100.0
4129,39.0,0,96,7.0,100.0
4130,51.0,96,96,4.0,100.0
4131,51.0,96,142,4.0,100.0
4132,44.0,96,0,7.0,100.0
4133,48.0,192,142,4.0,100.0
4134,44.0,96,142,7.0,100.0
4135,46.0,192,96,7.0,100.0
4136,44.0,0,0,7.0,100.0
4137,48.0,0,384,4.0,100.0
4138,56.0,96,160,4.0,100.0
4139,56.0,192,96,4.0,100.0
4140,41.0,0,160,7.0,100.0
4141,55.0,96,96,4.0,100.0
4142,53.0,0,142,4.0,100.0
4143,53.0,192,96,4.0,100.0
4144,51.0,96,96,4.0,100.0
4145,41.0,96,384,7.0,100.0
4146,46.0,0,142,7.0,100.0
4147,50.0,96,142,4.0,100.0
4148,46.0,192,96,7.0,100.0
4149,44.0,96,96,7.0,100.0
4150,43.0,0,142,7.0,100.0
4151,43.0,192,96,7.0,100.0
4152,50.0,96,384,4.0,100.0
4153,41.0,96,96,7.0,100.0
4154,40.0,0,142,7.0,100.0
4155,58.0,96,142,4.0,100.0
4156,58.0,192,94,4.0,100.0
4157,56.0,96,94,4.0,100.0
4158,55.0,96,142,4.0,100.0
4159,55.0,192,94,4.0,100.0
4160,53.0,96,94,4.0,100.0
4161,40.0,0,384,7.0,100.0
4162,48.0,96,142,7.0,100.0
4163,52.0,0,142,4.0,100.0
4164,48.0,192,94,7.0,100.0
4165,46.0,96,94,7.0,100.0
4166,44.0,96,142,7.0,100.0
4167,44.0,192,94,7.0,100.0
4168,43.0,96,94,7.0,100.0
4169,52.0,0,384,4.0,100.0
4170,60.0,0,142,4.0,100.0
4171,41.0,96,142,7.0,100.0
4172,60.0,192,94,4.0,100.0
4173,58.0,96,94,4.0,100.0
4174,48.0,0,94,7.0,100.0
4175,56.0,0,142,4.0,100.0
4176,53.0,96,142,7.0,100.0
4177,56.0,192,94,4.0,100.0
4178,53.0,0,94,7.0,100.0
4179,55.0,96,94,4.0,100.0
4180,51.0,0,94,7.0,100.0
4181,50.0,0,142,7.0,100.0
4182,53.0,96,142,4.0,100.0
4183,50.0,192,94,7.0,100.0
4184,53.0,0,94,4.0,100.0
4185,48.0,96,94,7.0,100.0
4186,55.0,0,94,4.0,100.0
4187,46.0,96,142,7.0,100.0
4188,56.0,0,142,4.0,100.0
4189,48.0,0,94,7.0,100.0
4190,56.0,192,94,4.0,100.0
4191,50.0,0,94,7.0,100.0
4192,58.0,96,94,4.0,100.0
4193,55.0,96,142,4.0,100.0
4194,51.0,0,160,7.0,100.0
4195,55.0,192,94,4.0,100.0
4196,53.0,96,94,4.0,100.0
4197,43.0,0,192,7.0,100.0
4198,51.0,96,142,4.0,100.0
4199,45.0,0,142,7.0,100.0
4200,53.0,192,94,6.0,100.0
4201,48.0,0,142,7.0,127.0
4202,65.0,0,94,4.0,100.0
4203,51.0,96,94,6.0,100.0
4204,46.0,0,142,7.0,100.0
4205,50.0,96,160,6.0,100.0
4206,70.0,0,256,4.0,100.0
4207,46.0,192,94,7.0,100.0
4208,48.0,96,94,7.0,100.0
4209,70.0,0,94,4.0,100.0
4210,50.0,96,142,7.0,100.0
4211,70.0,0,142,4.0,100.0
4212,51.0,0,94,7.0,100.0
4213,72.0,192,94,4.0,100.0
4214,70.0,0,94,4.0,100.0
4215,53.0,96,94,7.0,100.0
4216,58.0,0,94,6.0,100.0
4217,55.0,0,142,7.0,100.0
4218,70.0,96,142,4.0,100.0
4219,63.0,0,256,5.0,100.0
4220,67.0,192,142,4.0,100.0
4221,63.0,96,94,5.0,100.0
4222,63.0,0,142,5.0,100.0
4223,65.0,192,94,5.0,100.0
4224,63.0,96,94,5.0,100.0
4225,67.0,96,384,4.0,100.0
4226,63.0,96,142,5.0,100.0
4227,48.0,0,142,7.0,127.0
4228,75.0,0,142,4.0,100.0
4229,75.0,192,94,4.0,100.0
4230,48.0,0,94,7.0,100.0
4231,60.0,0,142,5.0,100.0
4232,74.0,96,94,4.0,100.0
4233,50.0,0,94,7.0,100.0
4234,72.0,0,142,4.0,100.0
4235,51.0,96,142,7.0,127.0
4236,72.0,0,94,4.0,100.0
4237,53.0,192,94,7.0,100.0
4238,60.0,0,336,5.0,100.0
4239,70.0,96,94,4.0,100.0
4240,55.0,0,94,7.0,100.0
4241,69.0,0,142,4.0,100.0
4242,53.0,96,142,7.0,127.0
4243,65.0,0,142,5.0,100.0
4244,65.0,192,94,5.0,100.0
4245,63.0,96,94,5.0,100.0
4246,53.0,96,142,7.0,127.0
4247,62.0,0,142,5.0,100.0
4248,53.0,192,94,7.0,100.0
4249,62.0,0,94,5.0,100.0
4250,51.0,0,94,7.0,100.0
4251,60.0,96,94,5.0,100.0
4252,69.0,0,384,4.0,100.0
4253,59.0,0,142,6.0,100.0
4254,77.0,0,142,4.0,100.0
4255,50.0,96,142,7.0,127.0
4256,50.0,0,94,7.0,100.0
4257,77.0,192,94,4.0,100.0
4258,75.0,96,94,4.0,100.0
4259,51.0,0,94,7.0,100.0
4260,74.0,96,142,4.0,100.0
4261,53.0,0,142,7.0,127.0
4262,55.0,192,94,7.0,100.0
4263,74.0,0,94,4.0,100.0
4264,59.0,0,336,6.0,100.0
4265,72.0,0,94,4.0,100.0
4266,56.0,96,94,7.0,100.0
4267,67.0,96,142,5.0,100.0
4268,55.0,0,142,7.0,127.0
4269,71.0,0,142,4.0,100.0
4270,67.0,192,94,5.0,100.0
4271,65.0,96,94,5.0,100.0
4272,63.0,96,142,5.0,100.0
4273,55.0,0,142,7.0,127.0
4274,63.0,192,94,5.0,100.0
4275,55.0,0,94,7.0,100.0
4276,62.0,96,94,5.0,100.0
4277,53.0,0,94,7.0,100.0
4278,71.0,0,384,4.0,100.0
4279,60.0,96,142,6.0,100.0
4280,51.0,0,142,7.0,127.0
4281,79.0,0,142,4.0,127.0
4282,79.0,0,94,4.0,100.0
4283,51.0,0,94,7.0,100.0
4284,77.0,0,94,4.0,100.0
4285,53.0,96,94,7.0,100.0
4286,55.0,96,142,7.0,127.0
4287,75.0,0,142,4.0,127.0
4288,60.0,192,336,6.0,100.0
4289,57.0,0,94,7.0,100.0
4290,67.0,192,94,5.0,100.0
4291,75.0,0,94,4.0,100.0
4292,65.0,0,94,5.0,100.0
4293,74.0,0,94,4.0,100.0
4294,59.0,96,94,7.0,100.0
4295,60.0,96,142,7.0,127.0
4296,63.0,0,142,5.0,100.0
4297,72.0,0,142,4.0,127.0
4298,65.0,192,94,5.0,100.0
4299,50.0,0,94,7.0,100.0
4300,72.0,0,94,4.0,100.0
4301,67.0,0,94,5.0,100.0
4302,70.0,96,94,4.0,100.0
4303,52.0,0,94,7.0,100.0
4304,68.0,96,142,4.0,127.0
4305,53.0,0,142,7.0,127.0
4306,60.0,0,142,5.0,100.0
4307,60.0,0,94,5.0,100.0
4308,41.0,192,94,7.0,100.0
4309,68.0,0,94,4.0,100.0
4310,58.0,96,94,5.0,100.0
4311,67.0,0,94,4.0,100.0
4312,43.0,0,94,7.0,100.0
4313,65.0,0,142,4.0,127.0
4314,44.0,0,160,7.0,127.0
4315,60.0,96,160,5.0,100.0
4316,65.0,0,94,4.0,100.0
4317,62.0,192,142,5.0,100.0
4318,46.0,0,160,7.0,127.0
4319,67.0,96,94,4.0,100.0
4320,68.0,0,142,4.0,100.0
4321,63.0,96,142,5.0,100.0
4322,47.0,0,160,7.0,127.0
4323,62.0,0,94,5.0,100.0
4324,46.0,192,94,7.0,100.0
4325,70.0,0,142,4.0,100.0
4326,65.0,96,94,5.0,100.0
4327,62.0,0,94,5.0,100.0
4328,34.0,0,94,7.0,100.0
4329,63.0,0,160,4.0,127.0
4330,70.0,0,160,4.0,127.0
4331,39.0,0,256,7.0,127.0
4332,67.0,96,256,5.0,127.0
4333,67.0,0,94,5.0,100.0
4334,39.0,288,94,7.0,100.0
4335,67.0,0,142,5.0,127.0
4336,39.0,96,160,7.0,127.0
4337,68.0,192,94,5.0,100.0
4338,41.0,0,94,7.0,100.0
4339,70.0,96,94,4.0,100.0
4340,67.0,0,94,5.0,100.0
4341,39.0,0,94,7.0,100.0
4342,67.0,0,142,5.0,127.0
4343,39.0,0,160,7.0,127.0
4344,48.0,96,256,6.0,100.0
4345,75.0,0,256,4.0,127.0
4346,63.0,0,142,5.0,127.0
4347,36.0,192,160,7.0,127.0
4348,75.0,0,94,4.0,100.0
4349,48.0,96,94,6.0,100.0
4350,48.0,0,142,6.0,100.0
4351,75.0,96,142,4.0,127.0
4352,50.0,192,94,6.0,100.0
4353,77.0,0,94,4.0,100.0
4354,75.0,0,94,4.0,100.0
4355,48.0,96,94,6.0,100.0
4356,36.0,0,384,7.0,127.0
4357,44.0,96,142,7.0,127.0
4358,48.0,0,142,6.0,100.0
4359,75.0,0,142,4.0,127.0
4360,63.0,0,544,5.0,127.0
4361,44.0,192,94,7.0,100.0
4362,72.0,0,94,5.0,100.0
4363,44.0,0,142,6.0,100.0
4364,72.0,0,142,4.0,127.0
4365,70.0,96,94,5.0,100.0
4366,43.0,0,94,7.0,100.0
4367,41.0,0,142,7.0,127.0
4368,68.0,0,160,5.0,100.0
4369,41.0,192,94,7.0,100.0
4370,68.0,0,94,5.0,100.0
4371,67.0,96,94,5.0,100.0
4372,39.0,0,94,7.0,100.0
4373,44.0,96,384,6.0,100.0
4374,72.0,0,384,4.0,127.0
4375,80.0,0,142,4.0,127.0
4376,53.0,96,142,6.0,127.0
4377,38.0,0,142,7.0,127.0
4378,65.0,0,160,5.0,100.0
4379,53.0,192,94,6.0,100.0
4380,80.0,0,94,4.0,100.0
4381,79.0,0,94,4.0,100.0
4382,51.0,96,94,6.0,100.0
4383,50.0,96,142,6.0,127.0
4384,77.0,0,142,4.0,127.0
4385,77.0,192,94,4.0,100.0
4386,50.0,0,94,6.0,100.0
4387,48.0,96,94,6.0,100.0
4388,75.0,0,94,4.0,100.0
4389,65.0,0,384,5.0,100.0
4390,38.0,0,384,7.0,100.0
4391,46.0,0,142,6.0,127.0
4392,74.0,96,142,4.0,127.0
4393,74.0,0,142,5.0,100.0
4394,46.0,0,142,7.0,127.0
4395,46.0,192,94,7.0,100.0
4396,74.0,0,94,5.0,100.0
4397,44.0,0,94,7.0,100.0
4398,72.0,96,94,5.0,100.0
4399,70.0,96,142,5.0,100.0
4400,43.0,0,142,7.0,127.0
4401,70.0,192,94,5.0,100.0
4402,43.0,0,94,7.0,100.0
4403,68.0,96,94,5.0,100.0
4404,41.0,0,94,7.0,100.0
4405,46.0,0,384,6.0,100.0
4406,74.0,0,384,4.0,100.0
4407,67.0,0,142,5.0,100.0
4408,82.0,0,142,4.0,127.0
4409,55.0,96,142,6.0,127.0
4410,40.0,0,142,7.0,127.0
4411,82.0,192,94,4.0,100.0
4412,55.0,0,94,6.0,100.0
4413,80.0,96,94,4.0,100.0
4414,53.0,0,94,6.0,100.0
4415,79.0,96,142,4.0,127.0
4416,52.0,0,142,6.0,127.0
4417,52.0,192,94,6.0,100.0
4418,79.0,0,94,4.0,100.0
4419,77.0,0,94,4.0,100.0
4420,50.0,96,94,6.0,100.0
4421,40.0,0,384,7.0,100.0
4422,76.0,0,142,4.0,127.0
4423,48.0,0,142,6.0,127.0
4424,48.0,96,160,7.0,100.0
4425,67.0,0,544,5.0,100.0
4426,55.0,192,94,5.0,100.0
4427,48.0,0,94,7.0,100.0
4428,55.0,0,160,6.0,100.0
4429,46.0,96,94,7.0,100.0
4430,61.0,0,94,5.0,100.0
4431,64.0,0,192,4.0,100.0
4432,44.0,0,160,7.0,100.0
4433,60.0,96,160,5.0,100.0
4434,48.0,0,192,6.0,100.0
4435,65.0,0,192,4.0,100.0
4436,60.0,0,94,5.0,100.0
4437,52.0,0,160,6.0,100.0
4438,43.0,0,160,7.0,100.0
4439,58.0,96,94,5.0,100.0
4440,67.0,192,192,4.0,100.0
4441,56.0,0,160,5.0,100.0
4442,53.0,96,192,6.0,100.0
4443,65.0,192,94,5.0,100.0
4444,63.0,96,94,5.0,100.0
4445,48.0,0,192,6.0,100.0
4446,68.0,0,528,4.0,100.0
4447,41.0,0,528,7.0,127.0
4448,62.0,96,160,5.0,100.0
4449,53.0,0,192,6.0,100.0
4450,62.0,0,94,5.0,100.0
4451,69.0,0,160,4.0,100.0
4452,42.0,192,160,7.0,100.0
4453,51.0,0,160,6.0,100.0
4454,60.0,96,94,5.0,100.0
4455,70.0,0,142,4.0,127.0
4456,58.0,0,160,5.0,127.0
4457,50.0,96,192,6.0,127.0
4458,79.0,0,94,4.0,100.0
4459,77.0,96,94,4.0,100.0
4460,50.0,192,192,6.0,100.0
4461,75.0,0,142,4.0,127.0
4462,43.0,0,528,7.0,127.0
4463,55.0,96,192,6.0,100.0
4464,75.0,0,94,4.0,100.0
4465,53.0,0,160,6.0,100.0
4466,43.0,192,160,7.0,100.0
4467,74.0,96,94,4.0,100.0
4468,51.0,0,142,6.0,127.0
4469,56.0,0,94,6.0,100.0
4470,60.0,192,160,5.0,100.0
4471,55.0,96,94,6.0,100.0
4472,53.0,0,142,6.0,127.0
4473,44.0,0,528,7.0,127.0
4474,72.0,96,576,4.0,127.0
4475,53.0,0,94,6.0,127.0
4476,65.0,96,336,5.0,100.0
4477,73.0,0,160,4.0,127.0
4478,45.0,192,160,7.0,127.0
4479,51.0,96,94,6.0,127.0
4480,65.0,0,142,5.0,127.0
4481,50.0,0,142,6.0,127.0
4482,74.0,96,142,4.0,127.0
4483,46.0,0,160,7.0,127.0
4484,75.0,0,94,4.0,100.0
4485,67.0,0,94,5.0,100.0
4486,58.0,192,94,6.0,100.0
4487,47.0,0,160,7.0,127.0
4488,65.0,0,94,5.0,100.0
4489,56.0,0,94,6.0,100.0
4490,74.0,96,94,4.0,100.0
4491,55.0,0,142,6.0,100.0
4492,63.0,96,142,5.0,127.0
4493,72.0,0,142,4.0,127.0
4494,48.0,0,160,7.0,127.0
4495,71.0,0,94,4.0,100.0
4496,53.0,192,160,6.0,100.0
4497,62.0,0,160,5.0,100.0
4498,50.0,0,160,7.0,127.0
4499,67.0,96,94,4.0,100.0
4500,48.0,0,160,6.0,127.0
4501,51.0,0,160,6.0,127.0
4502,48.0,0,160,7.0,127.0
4503,51.0,0,160,7.0,127.0
4504,72.0,0,256,4.0,127.0
4505,75.0,0,256,4.0,127.0
4506,72.0,96,256,5.0,127.0
4507,75.0,0,256,5.0,127.0
4508,75.0,0,94,5.0,100.0
4509,72.0,0,94,5.0,100.0
4510,72.0,288,94,4.0,127.0
4511,75.0,0,94,4.0,127.0
4512,75.0,96,142,4.0,127.0
4513,72.0,0,142,4.0,127.0
4514,72.0,0,160,5.0,100.0
4515,75.0,0,160,5.0,100.0
4516,74.0,192,94,4.0,127.0
4517,77.0,0,94,4.0,127.0
4518,72.0,0,94,4.0,127.0
4519,75.0,0,94,4.0,127.0
4520,48.0,96,94,7.0,127.0
4521,51.0,0,94,7.0,127.0
4522,72.0,0,142,4.0,127.0
4523,75.0,0,142,4.0,127.0
4524,53.0,96,256,7.0,127.0
4525,56.0,0,256,7.0,127.0
4526,68.0,192,142,4.0,127.0
4527,72.0,0,142,4.0,127.0
4528,56.0,0,94,7.0,127.0
4529,53.0,96,94,7.0,127.0
4530,53.0,0,142,7.0,127.0
4531,56.0,0,142,7.0,127.0
4532,55.0,0,94,7.0,127.0
4533,58.0,192,94,7.0,127.0
4534,56.0,0,94,7.0,127.0
4535,53.0,96,94,7.0,127.0
4536,68.0,0,384,4.0,127.0
4537,72.0,96,384,4.0,127.0
4538,53.0,0,142,7.0,127.0
4539,77.0,0,142,4.0,127.0
4540,80.0,0,142,4.0,127.0
4541,56.0,96,142,7.0,127.0
4542,80.0,0,96,4.0,100.0
4543,77.0,192,96,4.0,100.0
4544,49.0,0,160,7.0,127.0
4545,53.0,0,160,7.0,127.0
4546,79.0,96,96,4.0,100.0
4547,75.0,0,96,4.0,100.0
4548,73.0,0,142,4.0,127.0
4549,77.0,96,142,4.0,127.0
4550,73.0,192,96,4.0,100.0
4551,77.0,0,96,4.0,100.0
4552,72.0,96,96,4.0,100.0
4553,75.0,0,96,4.0,100.0
4554,49.0,0,384,7.0,127.0
4555,53.0,0,384,7.0,127.0
4556,70.0,96,142,4.0,127.0
4557,58.0,0,142,7.0,127.0
4558,61.0,0,142,7.0,127.0
4559,73.0,0,142,4.0,127.0
4560,58.0,192,94,7.0,100.0
4561,61.0,0,94,7.0,100.0
4562,56.0,96,94,7.0,100.0
4563,60.0,0,94,7.0,100.0
4564,58.0,0,142,7.0,127.0
4565,55.0,0,142,7.0,127.0
4566,58.0,192,94,7.0,100.0
4567,55.0,0,94,7.0,100.0
4568,56.0,96,94,7.0,100.0
4569,53.0,0,94,7.0,100.0
4570,70.0,96,384,4.0,127.0
4571,73.0,0,384,4.0,127.0
4572,82.0,96,142,4.0,127.0
4573,79.0,0,142,4.0,127.0
4574,52.0,0,142,7.0,127.0
4575,55.0,0,142,7.0,127.0
4576,82.0,192,96,4.0,100.0
4577,79.0,0,96,4.0,100.0
4578,77.0,96,96,4.0,100.0
4579,80.0,0,96,4.0,100.0
4580,76.0,0,142,4.0,127.0
4581,79.0,0,142,4.0,127.0
4582,79.0,0,96,4.0,100.0
4583,76.0,192,96,4.0,100.0
4584,52.0,96,384,7.0,127.0
4585,74.0,0,96,4.0,100.0
4586,77.0,96,96,4.0,100.0
4587,55.0,0,384,7.0,127.0
4588,72.0,96,142,4.0,127.0
4589,76.0,0,142,4.0,127.0
4590,64.0,0,160,7.0,127.0
4591,60.0,0,160,7.0,127.0
4592,63.0,0,96,7.0,100.0
4593,60.0,192,96,7.0,100.0
4594,58.0,96,96,7.0,100.0
4595,61.0,0,96,7.0,100.0
4596,56.0,0,160,7.0,127.0
4597,60.0,0,160,7.0,127.0
4598,56.0,192,96,7.0,100.0
4599,60.0,0,96,7.0,100.0
4600,55.0,96,96,7.0,100.0
4601,58.0,0,96,7.0,100.0
4602,72.0,0,384,4.0,127.0
4603,77.0,96,384,4.0,127.0
4604,80.0,0,160,4.0,127.0
4605,56.0,96,160,7.0,127.0
4606,53.0,0,160,7.0,127.0
4607,84.0,0,160,4.0,127.0
4608,50.0,0,96,7.0,100.0
4609,53.0,0,96,7.0,100.0
4610,84.0,0,96,4.0,100.0
4611,80.0,192,96,4.0,100.0
4612,79.0,0,96,4.0,100.0
4613,55.0,0,96,7.0,100.0
4614,51.0,96,96,7.0,100.0
4615,82.0,0,96,4.0,100.0
4616,56.0,0,142,7.0,127.0
4617,53.0,0,142,7.0,127.0
4618,77.0,96,142,4.0,127.0
4619,80.0,0,142,4.0,127.0
4620,79.0,0,96,4.0,100.0
4621,82.0,0,96,4.0,100.0
4622,51.0,0,96,7.0,100.0
4623,48.0,192,96,7.0,100.0
4624,53.0,0,96,7.0,100.0
4625,50.0,96,96,7.0,100.0
4626,77.0,0,96,4.0,100.0
4627,80.0,0,96,4.0,100.0
4628,75.0,0,142,4.0,127.0
4629,55.0,96,142,7.0,127.0
4630,79.0,0,142,4.0,127.0
4631,51.0,0,142,7.0,127.0
4632,47.0,192,96,7.0,100.0
4633,50.0,0,96,7.0,100.0
4634,89.0,0,96,4.0,100.0
4635,80.0,0,96,4.0,100.0
4636,48.0,0,96,7.0,100.0
4637,51.0,0,96,7.0,100.0
4638,79.0,96,96,4.0,100.0
4639,87.0,0,96,4.0,100.0
4640,77.0,0,142,4.0,127.0
4641,86.0,0,142,4.0,127.0
4642,50.0,96,142,7.0,127.0
4643,53.0,0,142,7.0,127.0
4644,48.0,0,96,7.0,100.0
4645,45.0,192,96,7.0,100.0
4646,79.0,0,96,4.0,100.0
4647,87.0,0,96,4.0,100.0
4648,77.0,0,96,4.0,100.0
4649,86.0,0,96,4.0,100.0
4650,50.0,0,96,7.0,100.0
4651,47.0,96,96,7.0,100.0
4652,84.0,0,142,4.0,127.0
4653,75.0,96,142,4.0,127.0
4654,51.0,0,142,7.0,127.0
4655,48.0,0,142,7.0,127.0
4656,61.0,0,96,7.0,100.0
4657,65.0,0,96,7.0,100.0
4658,82.0,0,96,4.0,100.0
4659,79.0,192,96,4.0,100.0
4660,60.0,96,96,7.0,100.0
4661,63.0,0,96,7.0,100.0
4662,84.0,0,96,4.0,100.0
4663,80.0,0,96,4.0,100.0
4664,61.0,0,142,7.0,127.0
4665,85.0,0,142,4.0,127.0
4666,82.0,0,142,4.0,127.0
4667,58.0,96,142,7.0,127.0
4668,77.0,0,96,4.0,100.0
4669,80.0,0,96,4.0,100.0
4670,63.0,0,96,7.0,100.0
4671,60.0,192,96,7.0,100.0
4672,58.0,0,96,7.0,100.0
4673,61.0,0,96,7.0,100.0
4674,82.0,0,96,4.0,100.0
4675,79.0,96,96,4.0,100.0
4676,60.0,0,142,7.0,127.0
4677,56.0,96,142,7.0,127.0
4678,84.0,0,142,4.0,127.0
4679,80.0,0,142,4.0,127.0
4680,75.0,0,94,4.0,100.0
4681,72.0,0,160,4.0,100.0
4682,60.0,0,160,7.0,100.0
4683,56.0,192,160,7.0,100.0
4684,77.0,96,94,4.0,100.0
4685,62.0,0,160,7.0,127.0
4686,55.0,0,160,7.0,127.0
4687,71.0,0,160,4.0,100.0
4688,79.0,96,160,4.0,127.0
4689,71.0,0,94,4.0,127.0
4690,74.0,288,94,4.0,127.0
4691,67.0,288,94,7.0,100.0
4692,71.0,0,94,7.0,100.0
4693,79.0,0,640,4.0,127.0
4694,71.0,96,256,7.0,127.0
4695,67.0,0,256,7.0,127.0
4696,83.0,96,640,4.0,127.0
4697,59.0,0,94,7.0,100.0
4698,55.0,0,94,7.0,100.0
4699,71.0,288,94,4.0,100.0
4700,74.0,0,94,4.0,100.0
4701,59.0,0,256,7.0,127.0
4702,55.0,0,256,7.0,127.0
4703,43.0,0,94,7.0,127.0
4704,47.0,288,94,7.0,127.0
4705,79.0,96,528,4.0,127.0
4706,83.0,0,528,4.0,127.0
4707,47.0,0,160,7.0,127.0
4708,43.0,96,160,7.0,127.0
4709,87.0,0,96,4.0,100.0
4710,83.0,192,160,4.0,100.0
4711,79.0,0,160,4.0,100.0
4712,86.0,96,94,4.0,100.0
4713,91.0,0,96,4.0,100.0
4714,83.0,96,160,4.0,100.0
4715,86.0,0,160,4.0,100.0
4716,89.0,96,94,4.0,100.0
4717,87.0,96,96,7.0,100.0
4718,86.0,96,94,7.0,100.0
4719,79.0,0,96,4.0,100.0
4720,71.0,96,160,4.0,100.0
4721,74.0,0,160,4.0,100.0
4722,77.0,96,94,4.0,100.0
4723,75.0,96,96,7.0,100.0
4724,74.0,96,94,7.0,100.0
4725,67.0,0,96,4.0,100.0
4726,62.0,0,160,4.0,100.0
4727,59.0,96,160,4.0,100.0
4728,65.0,96,94,4.0,100.0
4729,63.0,96,96,7.0,100.0
4730,62.0,96,94,7.0,100.0
4731,79.0,0,96,4.0,100.0
4732,71.0,96,160,4.0,100.0
4733,74.0,0,160,4.0,100.0
4734,77.0,96,94,4.0,100.0
4735,75.0,96,96,7.0,100.0
4736,74.0,96,94,7.0,100.0
4737,60.0,0,256,7.0,127.0
4738,72.0,0,256,7.0,127.0
4739,75.0,0,94,7.0,100.0
4740,72.0,288,94,7.0,100.0
4741,75.0,96,256,7.0,127.0
4742,72.0,0,256,7.0,127.0
4743,79.0,0,640,4.0,127.0
4744,84.0,96,640,4.0,127.0
4745,87.0,0,640,4.0,127.0
4746,60.0,0,94,7.0,100.0
4747,63.0,0,94,7.0,100.0
4748,60.0,0,256,7.0,127.0
4749,63.0,0,256,7.0,127.0
4750,51.0,0,94,7.0,127.0
4751,48.0,288,94,7.0,127.0
4752,79.0,0,624,4.0,100.0
4753,84.0,96,528,4.0,127.0
4754,87.0,0,528,4.0,127.0
4755,75.0,288,624,4.0,100.0
4756,51.0,96,160,7.0,127.0
4757,48.0,0,160,7.0,127.0
4758,89.0,192,96,4.0,100.0
4759,84.0,0,160,4.0,100.0
4760,79.0,0,160,4.0,100.0
4761,87.0,96,94,4.0,100.0
4762,92.0,96,96,4.0,100.0
4763,87.0,0,160,4.0,100.0
4764,84.0,0,160,4.0,100.0
4765,91.0,96,94,4.0,100.0
4766,89.0,96,96,7.0,100.0
4767,87.0,96,94,7.0,100.0
4768,80.0,0,96,4.0,100.0
4769,75.0,0,160,4.0,100.0
4770,72.0,96,160,4.0,100.0
4771,79.0,96,94,4.0,100.0
4772,77.0,96,96,7.0,100.0
4773,75.0,96,94,7.0,100.0
4774,68.0,0,96,4.0,100.0
4775,60.0,96,160,4.0,100.0
4776,63.0,0,160,4.0,100.0
4777,67.0,96,94,4.0,100.0
4778,65.0,96,96,7.0,100.0
4779,63.0,96,94,7.0,100.0
4780,80.0,0,96,4.0,100.0
4781,75.0,0,160,4.0,100.0
4782,72.0,96,160,4.0,100.0
4783,79.0,96,94,4.0,100.0
4784,77.0,96,96,7.0,100.0
4785,75.0,96,94,7.0,100.0
4786,70.0,0,256,7.0,127.0
4787,58.0,0,256,7.0,127.0
4788,70.0,288,94,7.0,100.0
4789,74.0,0,94,7.0,100.0
4790,89.0,0,640,4.0,127.0
4791,77.0,96,640,4.0,127.0
4792,86.0,0,640,4.0,127.0
4793,74.0,0,256,7.0,127.0
4794,70.0,96,256,7.0,127.0
4795,58.0,0,94,7.0,100.0
4796,62.0,0,94,7.0,100.0
4797,77.0,288,94,4.0,100.0
4798,74.0,0,94,4.0,100.0
4799,58.0,0,256,6.0,100.0
4800,62.0,0,256,6.0,100.0
4801,58.0,0,256,7.0,127.0
4802,62.0,0,256,7.0,127.0
4803,46.0,0,94,6.0,100.0
4804,50.0,0,94,6.0,100.0
4805,77.0,288,94,4.0,100.0
4806,50.0,0,94,7.0,127.0
4807,46.0,0,94,7.0,127.0
4808,86.0,96,528,4.0,100.0
4809,89.0,0,528,4.0,100.0
4810,46.0,0,160,7.0,127.0
4811,82.0,0,160,4.0,100.0
4812,50.0,96,160,7.0,127.0
4813,50.0,0,160,6.0,100.0
4814,46.0,0,160,6.0,100.0
4815,91.0,0,96,4.0,100.0
4816,82.0,0,160,4.0,100.0
4817,86.0,192,160,4.0,100.0
4818,89.0,96,94,4.0,100.0
4819,94.0,0,96,4.0,100.0
4820,89.0,96,160,4.0,100.0
4821,86.0,0,160,4.0,100.0
4822,92.0,96,94,4.0,100.0
4823,91.0,96,96,7.0,100.0
4824,89.0,96,94,7.0,100.0
4825,82.0,0,96,4.0,100.0
4826,77.0,0,160,4.0,100.0
4827,74.0,96,160,4.0,100.0
4828,80.0,96,94,4.0,100.0
4829,79.0,96,96,7.0,100.0
4830,77.0,96,94,7.0,100.0
4831,70.0,96,96,4.0,100.0
4832,62.0,0,160,4.0,100.0
4833,65.0,0,160,4.0,100.0
4834,68.0,96,94,4.0,100.0
4835,67.0,96,96,7.0,100.0
4836,65.0,96,94,7.0,100.0
4837,82.0,0,96,4.0,100.0
4838,74.0,0,160,4.0,100.0
4839,77.0,96,160,4.0,100.0
4840,80.0,96,94,4.0,100.0
4841,79.0,96,96,7.0,100.0
4842,77.0,96,94,7.0,100.0
4843,63.0,0,256,7.0,127.0
4844,75.0,0,256,7.0,127.0
4845,75.0,0,94,7.0,100.0
4846,79.0,288,94,7.0,100.0
4847,79.0,0,256,7.0,127.0
4848,75.0,96,256,7.0,127.0
4849,87.0,0,640,4.0,127.0
4850,91.0,96,640,4.0,127.0
4851,82.0,0,94,4.0,100.0
4852,67.0,288,94,7.0,100.0
4853,63.0,0,94,7.0,100.0
4854,79.0,0,94,4.0,100.0
4855,63.0,0,256,7.0,127.0
4856,67.0,0,256,7.0,127.0
4857,51.0,288,94,7.0,100.0
4858,79.0,0,94,4.0,100.0
4859,63.0,0,94,7.0,100.0
4860,87.0,0,528,4.0,100.0
4861,91.0,96,528,4.0,100.0
4862,51.0,96,160,7.0,127.0
4863,63.0,0,160,7.0,127.0
4864,84.0,0,160,4.0,100.0
4865,78.0,288,94,4.0,100.0
4866,81.0,0,94,4.0,100.0
4867,62.0,0,94,7.0,100.0
4868,74.0,288,94,7.0,100.0
4869,90.0,96,640,4.0,127.0
4870,62.0,0,256,7.0,127.0
4871,74.0,96,256,7.0,127.0
4872,93.0,0,640,4.0,127.0
4873,62.0,0,94,7.0,100.0
4874,81.0,288,94,4.0,100.0
4875,78.0,0,94,4.0,100.0
4876,50.0,0,94,7.0,100.0
4877,62.0,0,256,7.0,127.0
4878,50.0,0,256,6.0,127.0
4879,50.0,0,256,7.0,127.0
4880,62.0,0,256,6.0,127.0
4881,38.0,0,94,6.0,100.0
4882,50.0,288,94,6.0,100.0
4883,50.0,0,94,7.0,100.0
4884,38.0,0,94,7.0,100.0
4885,81.0,0,94,4.0,100.0
4886,50.0,0,160,6.0,127.0
4887,38.0,96,160,6.0,127.0
4888,50.0,0,160,7.0,127.0
4889,38.0,0,160,7.0,127.0
4890,90.0,0,640,4.0,100.0
4891,93.0,96,640,4.0,100.0
4892,86.0,0,256,4.0,100.0
4893,83.0,0,94,4.0,100.0
4894,80.0,288,94,4.0,100.0
4895,65.0,0,94,7.0,100.0
4896,74.0,0,94,7.0,100.0
4897,71.0,0,94,7.0,100.0
4898,68.0,0,94,7.0,100.0
4899,62.0,288,94,7.0,100.0
4900,62.0,0,256,7.0,127.0
4901,68.0,0,256,7.0,127.0
4902,71.0,0,256,7.0,127.0
4903,74.0,0,256,7.0,127.0
4904,65.0,96,256,7.0,127.0
4905,95.0,0,640,4.0,127.0
4906,86.0,0,640,4.0,127.0
4907,83.0,96,640,4.0,127.0
4908,89.0,0,640,4.0,127.0
4909,92.0,0,640,4.0,127.0
4910,80.0,0,94,4.0,100.0
4911,83.0,0,94,4.0,100.0
4912,62.0,0,94,7.0,100.0
4913,59.0,0,94,7.0,100.0
4914,56.0,288,94,7.0,100.0
4915,53.0,0,94,7.0,100.0
4916,50.0,0,94,7.0,100.0
4917,53.0,0,256,7.0,127.0
4918,56.0,0,256,7.0,127.0
4919,59.0,0,256,7.0,127.0
4920,62.0,0,256,7.0,127.0
4921,50.0,0,256,7.0,127.0
4922,50.0,288,94,7.0,100.0
4923,38.0,0,94,7.0,100.0
4924,41.0,0,94,7.0,100.0
4925,44.0,0,94,7.0,100.0
4926,47.0,0,94,7.0,100.0
4927,50.0,96,160,7.0,127.0
4928,47.0,0,160,7.0,127.0
4929,44.0,0,160,7.0,127.0
4930,41.0,0,160,7.0,127.0
4931,38.0,0,160,7.0,127.0
4932,83.0,96,640,4.0,127.0
4933,86.0,0,640,4.0,127.0
4934,95.0,0,640,4.0,127.0
4935,92.0,0,640,4.0,127.0
4936,89.0,0,640,4.0,127.0
4937,82.0,0,94,4.0,100.0
4938,85.0,288,94,4.0,100.0
4939,79.0,0,94,4.0,100.0
4940,76.0,0,94,4.0,100.0
4941,62.0,0,94,7.0,100.0
4942,67.0,0,94,7.0,100.0
4943,70.0,288,94,7.0,100.0
4944,76.0,0,94,7.0,100.0
4945,97.0,96,640,4.0,127.0
4946,88.0,0,640,4.0,127.0
4947,62.0,96,256,7.0,127.0
4948,67.0,0,256,7.0,127.0
4949,76.0,0,256,7.0,127.0
4950,70.0,0,256,7.0,127.0
4951,91.0,0,640,4.0,127.0
4952,94.0,0,640,4.0,127.0
4953,76.0,0,94,4.0,100.0
4954,55.0,0,94,7.0,100.0
4955,79.0,288,94,4.0,100.0
4956,82.0,0,94,4.0,100.0
4957,50.0,0,94,7.0,100.0
4958,64.0,0,94,7.0,100.0
4959,58.0,0,94,7.0,100.0
4960,85.0,0,94,4.0,100.0
4961,50.0,0,256,7.0,127.0
4962,64.0,0,256,7.0,127.0
4963,58.0,0,256,7.0,127.0
4964,55.0,0,256,7.0,127.0
4965,46.0,0,94,7.0,100.0
4966,43.0,0,94,7.0,100.0
4967,52.0,288,94,7.0,100.0
4968,38.0,0,94,7.0,100.0
4969,38.0,0,160,7.0,127.0
4970,43.0,0,160,7.0,127.0
4971,46.0,0,160,7.0,127.0
4972,52.0,96,160,7.0,127.0
4973,88.0,96,640,4.0,127.0
4974,91.0,0,640,4.0,127.0
4975,94.0,0,640,4.0,127.0
4976,97.0,0,640,4.0,127.0
4977,78.0,0,94,4.0,100.0
4978,81.0,0,94,4.0,100.0
4979,86.0,288,94,4.0,100.0
4980,86.0,96,256,4.0,127.0
4981,90.0,0,256,4.0,127.0
4982,93.0,0,256,4.0,127.0
4983,98.0,0,256,4.0,127.0
4984,62.0,288,94,7.0,100.0
4985,66.0,0,94,7.0,100.0
4986,69.0,0,94,7.0,100.0
4987,74.0,0,94,7.0,100.0
4988,86.0,0,96,4.0,100.0
4989,62.0,96,256,7.0,127.0
4990,66.0,0,256,7.0,127.0
4991,69.0,0,256,7.0,127.0
4992,74.0,0,256,7.0,127.0
4993,98.0,0,256,4.0,127.0
4994,62.0,0,94,7.0,100.0
4995,50.0,0,94,7.0,100.0
4996,74.0,288,96,4.0,100.0
4997,62.0,0,256,7.0,127.0
4998,50.0,0,256,7.0,127.0
4999,86.0,96,256,4.0,127.0
5000,38.0,0,94,7.0,100.0
5001,50.0,0,94,7.0,100.0
5002,74.0,288,96,4.0,100.0
5003,86.0,96,256,4.0,127.0
5004,50.0,0,256,7.0,127.0
5005,38.0,0,256,7.0,127.0
5006,74.0,288,96,4.0,100.0
5007,50.0,0,96,7.0,100.0
5008,38.0,0,256,7.0,127.0
5009,86.0,96,256,4.0,127.0
5010,62.0,288,96,7.0,100.0
5011,74.0,0,96,4.0,100.0
5012,50.0,96,256,7.0,100.0
5013,86.0,0,256,4.0,100.0
5014,74.0,0,96,4.0,100.0
5015,62.0,288,96,7.0,100.0
5016,86.0,96,256,4.0,100.0
5017,50.0,0,256,7.0,100.0
5018,74.0,288,96,4.0,100.0
5019,62.0,0,96,7.0,100.0
5020,50.0,0,256,7.0,100.0
5021,86.0,96,256,4.0,100.0
5022,71.0,288,96,7.0,100.0
5023,75.0,0,96,4.0,100.0
5024,59.0,96,128,7.0,100.0
5025,71.0,128,128,7.0,100.0
5026,70.0,128,128,7.0,100.0
5027,87.0,0,384,5.0,100.0
5028,71.0,128,128,7.0,100.0
5029,66.0,128,128,7.0,100.0
5030,87.0,0,720,4.0,100.0
5031,71.0,128,126,7.0,100.0
5032,75.0,0,384,5.0,100.0
5033,67.0,0,126,7.0,100.0
5034,71.0,128,126,7.0,100.0
5035,67.0,128,126,7.0,100.0
5036,88.0,0,384,4.0,100.0
5037,71.0,128,126,7.0,100.0
5038,64.0,128,126,7.0,100.0
5039,71.0,128,126,7.0,100.0
5040,76.0,128,768,5.0,100.0
5041,79.0,0,384,4.0,100.0
5042,63.0,128,126,7.0,100.0
5043,71.0,128,126,7.0,100.0
5044,63.0,128,126,7.0,100.0
5045,78.0,0,384,5.0,100.0
5046,71.0,128,126,7.0,100.0
5047,59.0,128,126,7.0,100.0
5048,83.0,0,720,4.0,100.0
5049,75.0,0,336,5.0,100.0
5050,71.0,128,126,7.0,100.0
5051,59.0,0,126,7.0,100.0
5052,64.0,128,126,7.0,100.0
5053,59.0,128,126,7.0,100.0
5054,79.0,0,384,4.0,100.0
5055,71.0,128,0,5.0,100.0
5056,76.0,0,384,5.0,100.0
5057,67.0,0,126,7.0,100.0
5058,64.0,128,126,7.0,100.0
5059,67.0,128,126,7.0,100.0
5060,76.0,0,384,4.0,100.0
5061,66.0,0,126,7.0,100.0
5062,71.0,128,126,7.0,100.0
5063,66.0,128,126,7.0,100.0
5064,74.0,128,384,4.0,100.0
5065,71.0,128,126,7.0,100.0
5066,66.0,128,126,7.0,100.0
5067,71.0,128,126,7.0,100.0
5068,75.0,0,384,4.0,100.0
5069,66.0,128,126,7.0,100.0
5070,70.0,128,126,7.0,100.0
5071,66.0,128,126,7.0,100.0
5072,78.0,0,384,4.0,100.0
5073,70.0,0,126,7.0,100.0
5074,76.0,128,192,4.0,100.0
5075,66.0,128,126,7.0,100.0
5076,70.0,64,126,7.0,100.0
5077,73.0,64,192,4.0,100.0
5078,66.0,128,126,7.0,100.0
5079,75.0,0,160,4.0,100.0
5080,71.0,128,126,7.0,100.0
5081,66.0,64,126,7.0,100.0
5082,62.0,64,192,4.0,127.0
5083,71.0,0,126,7.0,100.0
5084,66.0,128,126,7.0,100.0
5085,71.0,128,126,7.0,100.0
5086,63.0,128,384,4.0,127.0
5087,70.0,128,126,7.0,100.0
5088,73.0,128,126,7.0,100.0
5089,70.0,128,126,7.0,100.0
5090,66.0,0,384,4.0,127.0
5091,73.0,0,126,7.0,100.0
5092,64.0,128,192,4.0,127.0
5093,70.0,128,126,7.0,100.0
5094,61.0,64,160,4.0,127.0
5095,73.0,64,126,7.0,100.0
5096,71.0,0,96,4.0,100.0
5097,75.0,0,96,4.0,100.0
5098,66.0,128,126,7.0,100.0
5099,76.0,96,96,4.0,100.0
5100,71.0,32,126,7.0,100.0
5101,75.0,64,96,4.0,100.0
5102,66.0,64,126,7.0,100.0
5103,74.0,32,96,4.0,100.0
5104,75.0,96,96,4.0,100.0
5105,71.0,0,126,7.0,100.0
5106,76.0,96,96,4.0,100.0
5107,66.0,32,126,7.0,100.0
5108,78.0,64,96,4.0,100.0
5109,71.0,64,126,7.0,100.0
5110,77.0,32,96,4.0,100.0
5111,80.0,0,96,4.0,100.0
5112,66.0,96,126,7.0,100.0
5113,78.0,96,96,4.0,100.0
5114,70.0,32,126,7.0,100.0
5115,77.0,64,96,4.0,100.0
5116,66.0,64,126,7.0,100.0
5117,78.0,32,96,4.0,100.0
5118,76.0,96,96,4.0,100.0
5119,70.0,0,126,7.0,100.0
5120,75.0,96,96,4.0,100.0
5121,66.0,32,126,7.0,100.0
5122,76.0,64,96,4.0,100.0
5123,70.0,64,126,7.0,100.0
5124,73.0,32,96,4.0,100.0
5125,63.0,0,94,4.0,100.0
5126,66.0,96,126,7.0,100.0
5127,75.0,0,160,4.0,100.0
5128,64.0,96,96,4.0,100.0
5129,71.0,32,126,7.0,100.0
5130,63.0,64,96,4.0,100.0
5131,66.0,64,126,7.0,100.0
5132,62.0,32,96,4.0,100.0
5133,63.0,96,96,4.0,100.0
5134,71.0,0,126,7.0,100.0
5135,64.0,96,96,4.0,100.0
5136,66.0,32,126,7.0,100.0
5137,66.0,64,96,4.0,100.0
5138,71.0,64,126,7.0,100.0
5139,65.0,32,96,4.0,100.0
5140,68.0,0,96,4.0,100.0
5141,70.0,96,126,7.0,100.0
5142,66.0,96,96,4.0,100.0
5143,73.0,32,126,7.0,100.0
5144,65.0,64,96,4.0,100.0
5145,70.0,64,126,7.0,100.0
5146,66.0,32,96,4.0,100.0
5147,64.0,96,96,4.0,100.0
5148,73.0,0,160,7.0,100.0
5149,63.0,96,96,4.0,100.0
5150,64.0,96,96,4.0,100.0
5151,30.0,0,94,7.0,127.0
5152,61.0,96,96,4.0,100.0
5153,54.0,0,160,4.0,100.0
5154,61.0,0,160,4.0,100.0
5155,64.0,0,160,4.0,100.0
5156,34.0,96,256,7.0,127.0
5157,34.0,288,94,7.0,127.0
5158,34.0,96,160,7.0,127.0
5159,35.0,192,94,7.0,127.0
5160,54.0,0,94,5.0,100.0
5161,34.0,96,94,7.0,127.0
5162,34.0,0,160,7.0,127.0
5163,58.0,96,256,5.0,100.0
5164,30.0,192,160,7.0,127.0
5165,58.0,96,94,5.0,100.0
5166,58.0,96,160,5.0,100.0
5167,59.0,192,94,5.0,100.0
5168,58.0,0,94,5.0,100.0
5169,66.0,96,94,4.0,100.0
5170,58.0,96,160,6.0,100.0
5171,73.0,0,256,4.0,100.0
5172,54.0,192,160,6.0,100.0
5173,73.0,96,94,4.0,100.0
5174,73.0,96,160,4.0,100.0
5175,75.0,192,94,4.0,100.0
5176,73.0,0,94,4.0,100.0
5177,61.0,96,94,5.0,100.0
5178,73.0,96,160,4.0,100.0
5179,64.0,0,256,5.0,100.0
5180,70.0,192,160,4.0,100.0
5181,64.0,96,94,5.0,100.0
5182,64.0,96,160,5.0,100.0
5183,66.0,192,94,5.0,100.0
5184,64.0,96,94,5.0,100.0
5185,30.0,0,94,7.0,100.0
5186,64.0,96,160,5.0,100.0
5187,40.0,0,256,7.0,100.0
5188,61.0,192,160,5.0,100.0
5189,40.0,96,94,7.0,100.0
5190,42.0,0,94,6.0,100.0
5191,40.0,96,160,7.0,100.0
5192,52.0,0,256,6.0,100.0
5193,66.0,288,94,4.0,100.0
5194,52.0,0,94,6.0,100.0
5195,52.0,0,160,6.0,100.0
5196,76.0,96,256,4.0,100.0
5197,76.0,0,94,4.0,100.0
5198,64.0,288,94,5.0,100.0
5199,76.0,0,160,4.0,100.0
5200,73.0,96,256,5.0,100.0
5201,37.0,288,94,7.0,100.0
5202,73.0,0,94,5.0,100.0
5203,73.0,0,160,5.0,100.0
5204,46.0,96,256,7.0,127.0
5205,49.0,288,94,6.0,100.0
5206,46.0,0,94,7.0,100.0
5207,46.0,0,160,7.0,100.0
5208,58.0,96,256,6.0,100.0
5209,73.0,0,94,4.0,100.0
5210,58.0,288,94,6.0,100.0
5211,58.0,0,160,6.0,127.0
5212,82.0,96,256,4.0,100.0
5213,82.0,288,94,4.0,100.0
5214,61.0,0,94,6.0,100.0
5215,82.0,0,160,4.0,100.0
5216,70.0,96,256,6.0,127.0
5217,70.0,288,94,5.0,100.0
5218,40.0,0,96,7.0,100.0
5219,70.0,96,160,5.0,127.0
5220,52.0,288,96,4.0,100.0
5221,49.0,0,640,7.0,127.0
5222,43.0,288,96,7.0,100.0
5223,61.0,96,640,4.0,127.0
5224,55.0,288,96,4.0,100.0
5225,52.0,96,640,7.0,127.0
5226,43.0,288,96,7.0,100.0
5227,64.0,96,478,4.0,127.0
5228,55.0,96,96,4.0,100.0
5229,52.0,96,256,7.0,127.0
5230,67.0,96,96,7.0,100.0
5231,64.0,96,256,4.0,127.0
5232,79.0,96,96,4.0,100.0
5233,76.0,96,256,7.0,127.0
5234,44.0,96,96,7.0,100.0
5235,88.0,96,286,4.0,127.0
5236,56.0,96,96,4.0,100.0
5237,52.0,96,256,7.0,127.0
5238,68.0,96,96,7.0,100.0
5239,64.0,96,256,4.0,127.0
5240,80.0,96,96,4.0,100.0
5241,76.0,96,256,7.0,127.0
5242,45.0,96,96,7.0,100.0
5243,88.0,96,286,4.0,127.0
5244,57.0,96,96,4.0,100.0
5245,52.0,96,256,7.0,127.0
5246,69.0,96,96,7.0,100.0
5247,64.0,96,256,4.0,127.0
5248,81.0,96,96,4.0,100.0
5249,76.0,96,256,7.0,127.0
5250,45.0,96,96,7.0,100.0
5251,88.0,96,286,4.0,100.0
5252,57.0,96,96,4.0,100.0
5253,53.0,96,256,7.0,127.0
5254,69.0,96,96,7.0,100.0
5255,65.0,96,256,4.0,127.0
5256,81.0,96,96,4.0,100.0
5257,77.0,96,256,7.0,127.0
5258,89.0,96,160,4.0,127.0
5259,34.0,0,94,6.0,127.0
5260,46.0,0,94,6.0,127.0
5261,34.0,0,94,7.0,127.0
5262,46.0,96,94,7.0,127.0
5263,58.0,0,160,7.0,127.0
5264,46.0,0,160,7.0,127.0
5265,60.0,192,94,7.0,127.0
5266,82.0,0,288,4.0,127.0
5267,86.0,0,288,4.0,127.0
5268,77.0,0,0,4.0,127.0
5269,74.0,96,0,4.0,127.0
5270,82.0,0,288,5.0,100.0
5271,77.0,96,288,5.0,100.0
5272,86.0,0,288,5.0,100.0
5273,74.0,0,0,5.0,100.0
5274,58.0,0,336,6.0,127.0
5275,46.0,0,336,6.0,127.0
5276,58.0,0,94,7.0,127.0
5277,82.0,96,0,4.0,127.0
5278,86.0,0,96,4.0,127.0
5279,82.0,0,96,5.0,100.0
5280,86.0,0,0,5.0,100.0
5281,77.0,0,0,5.0,100.0
5282,53.0,0,160,7.0,127.0
5283,77.0,0,192,4.0,127.0
5284,86.0,0,192,4.0,127.0
5285,74.0,0,192,4.0,127.0
5286,74.0,0,192,5.0,100.0
5287,82.0,0,192,5.0,100.0
5288,55.0,0,94,7.0,127.0
5289,87.0,0,96,5.0,100.0
5290,74.0,0,96,5.0,100.0
5291,77.0,0,96,5.0,100.0
5292,82.0,0,96,5.0,100.0
5293,74.0,0,96,4.0,127.0
5294,87.0,192,96,4.0,127.0
5295,82.0,96,0,4.0,127.0
5296,77.0,0,0,4.0,127.0
5297,53.0,0,336,6.0,127.0
5298,53.0,0,94,7.0,127.0
5299,82.0,0,0,4.0,127.0
5300,77.0,0,0,4.0,127.0
5301,74.0,0,0,4.0,127.0
5302,86.0,96,0,4.0,127.0
5303,77.0,0,96,5.0,100.0
5304,82.0,0,96,5.0,100.0
5305,86.0,0,96,5.0,100.0
5306,74.0,0,96,5.0,100.0
5307,50.0,0,160,7.0,127.0
5308,77.0,192,0,4.0,127.0
5309,51.0,0,94,7.0,127.0
5310,50.0,0,336,6.0,127.0
5311,82.0,0,160,4.0,127.0
5312,70.0,0,160,4.0,127.0
5313,74.0,0,160,4.0,127.0
5314,50.0,96,94,7.0,127.0
5315,46.0,0,160,7.0,127.0
5316,46.0,96,160,6.0,127.0
5317,48.0,192,94,7.0,127.0
5318,48.0,0,94,6.0,127.0
5319,46.0,0,22,7.0,127.0
5320,46.0,0,22,6.0,127.0
5321,38.0,0,36,7.0,127.0
5322,38.0,24,36,6.0,127.0
5323,77.0,0,0,5.0,100.0
5324,74.0,0,96,5.0,100.0
5325,50.0,0,36,6.0,127.0
5326,50.0,36,36,7.0,127.0
5327,74.0,0,96,4.0,100.0
5328,77.0,0,96,4.0,100.0
5329,62.0,0,160,7.0,127.0
5330,62.0,36,160,6.0,127.0
5331,63.0,192,94,6.0,100.0
5332,63.0,0,94,7.0,127.0
5333,82.0,0,288,5.0,100.0
5334,77.0,96,0,4.0,127.0
5335,89.0,0,288,4.0,127.0
5336,89.0,0,0,5.0,100.0
5337,82.0,0,288,4.0,127.0
5338,62.0,0,94,6.0,100.0
5339,62.0,0,94,7.0,127.0
5340,77.0,0,96,5.0,100.0
5341,82.0,0,96,5.0,100.0
5342,86.0,0,96,5.0,100.0
5343,82.0,0,96,4.0,127.0
5344,86.0,0,96,4.0,127.0
5345,89.0,0,96,4.0,127.0
5346,58.0,0,160,6.0,127.0
5347,58.0,96,160,7.0,127.0
5348,89.0,0,192,5.0,100.0
5349,86.0,192,0,5.0,100.0
5350,82.0,0,0,5.0,100.0
5351,89.0,0,192,4.0,127.0
5352,86.0,0,0,4.0,127.0
5353,82.0,0,0,4.0,127.0
5354,77.0,0,0,4.0,127.0
5355,77.0,0,0,5.0,100.0
5356,62.0,0,94,7.0,127.0
5357,62.0,0,94,6.0,100.0
5358,91.0,0,96,5.0,100.0
5359,86.0,0,0,5.0,100.0
5360,82.0,0,0,5.0,100.0
5361,91.0,0,96,4.0,127.0
5362,58.0,0,94,6.0,100.0
5363,58.0,96,94,7.0,127.0
5364,86.0,0,96,4.0,127.0
5365,82.0,0,0,4.0,127.0
5366,89.0,0,0,4.0,127.0
5367,89.0,0,96,5.0,100.0
5368,77.0,0,96,5.0,100.0
5369,77.0,96,0,4.0,127.0
5370,53.0,0,160,7.0,127.0
5371,53.0,0,160,6.0,127.0
5372,86.0,0,0,4.0,127.0
5373,82.0,0,0,4.0,127.0
5374,58.0,0,94,7.0,100.0
5375,58.0,0,94,6.0,100.0
5376,74.0,192,160,4.0,127.0
5377,77.0,0,160,4.0,127.0
5378,53.0,0,94,6.0,100.0
5379,53.0,96,94,7.0,100.0
5380,50.0,0,94,7.0,100.0
5381,50.0,96,94,6.0,100.0
5382,46.0,96,94,7.0,100.0
5383,46.0,0,94,6.0,100.0
5384,51.0,96,94,6.0,100.0
5385,51.0,0,94,7.0,100.0
5386,79.0,0,96,4.0,100.0
5387,82.0,0,96,4.0,100.0
5388,48.0,0,94,7.0,100.0
5389,48.0,96,94,6.0,100.0
5390,81.0,0,96,4.0,100.0
5391,84.0,0,96,4.0,100.0
5392,46.0,96,160,7.0,100.0
5393,50.0,192,94,7.0,100.0
5394,46.0,96,94,7.0,100.0
5395,86.0,0,384,4.0,100.0
5396,82.0,0,384,4.0,100.0
5397,77.0,96,0,4.0,100.0
5398,81.0,0,160,4.0,100.0
5399,84.0,0,160,4.0,100.0
5400,41.0,0,160,7.0,100.0
5401,53.0,0,160,7.0,100.0
5402,51.0,0,94,7.0,100.0
5403,69.0,0,96,4.0,100.0
5404,72.0,0,96,4.0,100.0
5405,65.0,192,160,5.0,100.0
5406,50.0,96,94,7.0,100.0
5407,71.0,0,96,4.0,100.0
5408,74.0,0,96,4.0,100.0
5409,48.0,0,160,7.0,100.0
5410,50.0,192,94,7.0,100.0
5411,67.0,0,336,5.0,100.0
5412,48.0,96,94,7.0,100.0
5413,75.0,0,384,4.0,100.0
5414,72.0,96,384,4.0,100.0
5415,70.0,0,160,4.0,100.0
5416,67.0,0,160,5.0,100.0
5417,43.0,0,160,7.0,100.0
5418,55.0,96,160,7.0,100.0
5419,74.0,0,160,4.0,100.0
5420,56.0,192,96,7.0,100.0
5421,53.0,0,96,7.0,100.0
5422,74.0,0,96,4.0,100.0
5423,51.0,0,96,7.0,100.0
5424,75.0,96,96,4.0,100.0
5425,55.0,0,96,7.0,100.0
5426,70.0,0,352,5.0,100.0
5427,50.0,0,192,7.0,100.0
5428,53.0,0,192,7.0,100.0
5429,77.0,96,288,4.0,100.0
5430,70.0,0,160,5.0,100.0
5431,67.0,192,160,5.0,100.0
5432,49.0,0,192,7.0,100.0
5433,52.0,0,192,7.0,100.0
5434,79.0,96,96,4.0,100.0
5435,77.0,0,96,4.0,100.0
5436,67.0,0,160,5.0,100.0
5437,48.0,96,0,7.0,100.0
5438,51.0,0,192,7.0,100.0
5439,75.0,96,192,4.0,100.0
5440,69.0,0,160,5.0,100.0
5441,77.0,96,94,4.0,100.0
5442,41.0,0,192,7.0,100.0
5443,75.0,0,96,4.0,100.0
5444,70.0,0,160,5.0,100.0
5445,46.0,0,192,7.0,100.0
5446,74.0,96,96,4.0,100.0
5447,43.0,96,192,7.0,100.0
5448,77.0,0,96,4.0,100.0
5449,68.0,0,96,4.0,100.0
5450,74.0,0,96,4.0,100.0
5451,47.0,96,96,7.0,100.0
5452,38.0,0,96,7.0,100.0
5453,65.0,0,96,4.0,100.0
5454,48.0,0,96,7.0,100.0
5455,67.0,96,96,4.0,100.0
5456,72.0,0,96,4.0,100.0
5457,75.0,0,96,4.0,100.0
5458,39.0,0,96,7.0,100.0
5459,63.0,0,96,4.0,100.0
5460,60.0,0,160,4.0,100.0
5461,69.0,0,160,4.0,100.0
5462,72.0,0,160,4.0,100.0
5463,48.0,0,160,7.0,100.0
5464,41.0,96,160,7.0,100.0
5465,58.0,0,96,6.0,100.0
5466,74.0,0,96,4.0,100.0
5467,53.0,192,160,7.0,100.0
5468,75.0,0,96,4.0,100.0
5469,60.0,96,96,6.0,100.0
5470,69.0,96,94,5.0,100.0
5471,62.0,96,288,6.0,100.0
5472,77.0,0,288,4.0,100.0
5473,79.0,96,96,4.0,100.0
5474,63.0,0,96,6.0,100.0
5475,70.0,96,286,5.0,100.0
5476,66.0,96,94,5.0,100.0
5477,60.0,0,288,6.0,100.0
5478,75.0,96,288,4.0,100.0
5479,77.0,96,96,4.0,100.0
5480,62.0,0,96,6.0,100.0
5481,69.0,96,286,5.0,100.0
5482,60.0,0,96,6.0,100.0
5483,75.0,96,96,4.0,100.0
5484,70.0,0,94,5.0,100.0
5485,58.0,96,96,6.0,100.0
5486,74.0,0,96,4.0,100.0
5487,77.0,0,96,4.0,100.0
5488,62.0,96,96,6.0,100.0
5489,75.0,96,96,4.0,100.0
5490,60.0,0,96,6.0,100.0
5491,65.0,0,336,5.0,100.0
5492,53.0,0,1312,7.0,100.0
5493,57.0,0,160,6.0,100.0
5494,72.0,96,160,4.0,100.0
5495,60.0,0,96,6.0,100.0
5496,63.0,0,96,5.0,100.0
5497,75.0,0,96,4.0,100.0
5498,58.0,192,160,7.0,100.0
5499,62.0,96,96,6.0,100.0
5500,77.0,0,96,4.0,100.0
5501,65.0,0,96,5.0,100.0
5502,67.0,0,96,5.0,100.0
5503,69.0,96,96,5.0,100.0
5504,79.0,0,288,4.0,100.0
5505,63.0,96,288,6.0,100.0
5506,80.0,0,96,4.0,100.0
5507,65.0,96,96,6.0,100.0
5508,70.0,96,286,5.0,100.0
5509,69.0,96,94,5.0,100.0
5510,62.0,0,288,6.0,100.0
5511,77.0,96,288,4.0,100.0
5512,63.0,96,96,6.0,100.0
5513,79.0,0,96,4.0,100.0
5514,62.0,96,96,6.0,100.0
5515,77.0,0,96,4.0,100.0
5516,70.0,96,352,5.0,100.0
5517,58.0,0,928,7.0,100.0
5518,75.0,0,96,4.0,100.0
5519,60.0,96,96,6.0,100.0
5520,79.0,96,96,4.0,100.0
5521,63.0,0,96,6.0,100.0
5522,58.0,0,160,7.0,100.0
5523,62.0,0,96,6.0,100.0
5524,77.0,96,96,4.0,100.0
5525,70.0,0,336,5.0,100.0
5526,58.0,96,160,6.0,100.0
5527,58.0,0,160,7.0,100.0
5528,74.0,0,160,4.0,100.0
5529,62.0,192,96,6.0,100.0
5530,77.0,0,96,4.0,100.0
5531,58.0,0,160,7.0,100.0
5532,78.0,0,96,4.0,100.0
5533,63.0,96,96,6.0,100.0
5534,69.0,96,94,5.0,100.0
5535,80.0,96,288,4.0,100.0
5536,65.0,0,288,6.0,100.0
5537,58.0,0,336,7.0,100.0
5538,82.0,0,96,4.0,100.0
5539,66.0,96,96,6.0,100.0
5540,70.0,96,336,5.0,100.0
5541,63.0,0,160,7.0,100.0
5542,63.0,0,160,6.0,100.0
5543,78.0,96,160,4.0,100.0
5544,66.0,0,94,5.0,100.0
5545,78.0,0,96,4.0,100.0
5546,63.0,192,96,6.0,100.0
5547,61.0,0,160,7.0,100.0
5548,68.0,0,94,5.0,100.0
5549,80.0,96,96,4.0,100.0
5550,65.0,0,96,6.0,100.0
5551,70.0,0,94,5.0,100.0
5552,72.0,96,94,5.0,100.0
5553,66.0,96,288,6.0,100.0
5554,82.0,0,288,4.0,100.0
5555,83.0,0,96,4.0,100.0
5556,68.0,96,96,6.0,100.0
5557,73.0,96,286,5.0,100.0
5558,65.0,0,96,6.0,100.0
5559,80.0,96,160,4.0,100.0
5560,77.0,96,94,5.0,100.0
5561,71.0,0,96,6.0,100.0
5562,78.0,96,94,5.0,100.0
5563,70.0,0,96,6.0,100.0
5564,82.0,0,96,4.0,100.0
5565,61.0,0,720,7.0,127.0
5566,80.0,0,94,5.0,100.0
5567,83.0,96,96,4.0,100.0
5568,68.0,0,96,6.0,100.0
5569,66.0,0,160,6.0,100.0
5570,82.0,0,160,5.0,100.0
5571,85.0,0,288,4.0,100.0
5572,87.0,96,96,4.0,100.0
5573,85.0,96,96,4.0,100.0
5574,78.0,0,336,5.0,100.0
5575,70.0,192,336,6.0,100.0
5576,83.0,96,192,4.0,100.0
5577,61.0,96,720,7.0,127.0
5578,85.0,96,96,4.0,100.0
5579,83.0,0,96,4.0,100.0
5580,77.0,0,352,5.0,100.0
5581,68.0,96,352,6.0,100.0
5582,82.0,96,192,4.0,100.0
5583,78.0,96,160,5.0,100.0
5584,83.0,96,96,4.0,100.0
5585,66.0,0,192,6.0,100.0
5586,78.0,0,94,5.0,100.0
5587,82.0,96,96,4.0,100.0
5588,80.0,96,94,4.0,100.0
5589,77.0,0,94,5.0,100.0
5590,73.0,0,192,6.0,100.0
5591,78.0,0,94,5.0,100.0
5592,82.0,96,96,4.0,100.0
5593,61.0,96,720,7.0,127.0
5594,71.0,0,160,6.0,100.0
5595,80.0,96,94,5.0,100.0
5596,83.0,0,96,4.0,100.0
5597,80.0,0,94,5.0,100.0
5598,71.0,0,96,6.0,100.0
5599,87.0,0,96,4.0,100.0
5600,77.0,0,94,5.0,100.0
5601,85.0,0,96,4.0,100.0
5602,70.0,96,96,6.0,100.0
5603,87.0,96,96,4.0,100.0
5604,71.0,0,96,6.0,100.0
5605,85.0,0,96,4.0,100.0
5606,70.0,0,0,6.0,100.0
5607,78.0,0,286,5.0,100.0
5608,85.0,96,96,4.0,100.0
5609,76.0,0,94,5.0,100.0
5610,68.0,96,96,6.0,100.0
5611,83.0,0,96,4.0,100.0
5612,85.0,96,96,4.0,100.0
5613,70.0,0,96,6.0,100.0
5614,61.0,96,720,7.0,127.0
5615,68.0,0,96,6.0,100.0
5616,83.0,0,0,4.0,100.0
5617,77.0,0,286,5.0,100.0
5618,68.0,96,96,6.0,100.0
5619,73.0,0,94,5.0,100.0
5620,66.0,96,96,6.0,100.0
5621,82.0,0,96,4.0,100.0
5622,75.0,0,96,6.0,100.0
5623,83.0,0,96,4.0,100.0
5624,78.0,96,160,5.0,100.0
5625,73.0,96,96,6.0,100.0
5626,82.0,0,0,4.0,100.0
5627,78.0,96,94,5.0,100.0
5628,80.0,0,94,4.0,100.0
5629,77.0,96,94,5.0,100.0
5630,73.0,0,192,6.0,100.0
5631,78.0,96,94,5.0,100.0
5632,82.0,0,96,4.0,100.0
5633,61.0,0,720,7.0,127.0
5634,71.0,0,160,6.0,100.0
5635,80.0,96,94,5.0,100.0
5636,83.0,0,96,4.0,100.0
5637,77.0,0,94,5.0,100.0
5638,69.0,0,96,6.0,100.0
5639,87.0,96,96,4.0,100.0
5640,78.0,96,94,5.0,100.0
5641,70.0,0,96,6.0,100.0
5642,85.0,0,96,4.0,100.0
5643,71.0,96,96,6.0,100.0
5644,73.0,0,96,4.0,100.0
5645,61.0,0,336,7.0,127.0
5646,78.0,0,160,5.0,100.0
5647,85.0,0,96,4.0,100.0
5648,70.0,96,96,6.0,100.0
5649,76.0,0,94,5.0,100.0
5650,67.0,96,96,6.0,100.0
5651,85.0,0,96,4.0,100.0
5652,77.0,0,94,5.0,100.0
5653,83.0,0,96,4.0,100.0
5654,68.0,96,96,6.0,100.0
5655,71.0,0,96,4.0,100.0
5656,70.0,0,96,6.0,100.0
5657,61.0,0,336,7.0,127.0
5658,77.0,96,160,5.0,100.0
5659,68.0,0,96,6.0,100.0
5660,83.0,96,96,4.0,100.0
5661,77.0,0,94,5.0,100.0
5662,83.0,0,96,4.0,100.0
5663,65.0,96,96,6.0,100.0
5664,78.0,0,94,5.0,100.0
5665,66.0,96,96,6.0,100.0
5666,82.0,0,96,4.0,100.0
5667,68.0,0,96,6.0,100.0
5668,70.0,96,96,4.0,100.0
5669,61.0,0,336,7.0,127.0
5670,78.0,0,160,5.0,100.0
5671,82.0,0,96,4.0,100.0
5672,66.0,96,96,6.0,100.0
5673,82.0,0,96,4.0,100.0
5674,66.0,96,96,6.0,100.0
5675,61.0,0,160,7.0,127.0
5676,80.0,96,94,4.0,100.0
5677,65.0,0,96,6.0,100.0
5678,66.0,0,96,6.0,100.0
5679,82.0,0,96,4.0,100.0
5680,59.0,96,160,7.0,127.0
5681,68.0,0,96,6.0,100.0
5682,83.0,96,96,4.0,100.0
5683,73.0,0,286,5.0,100.0
5684,87.0,0,96,4.0,100.0
5685,70.0,0,160,6.0,100.0
5686,58.0,96,160,7.0,127.0
5687,78.0,96,94,5.0,100.0
5688,85.0,0,192,4.0,100.0
5689,68.0,0,160,6.0,100.0
5690,56.0,0,160,7.0,127.0
5691,83.0,0,160,5.0,100.0
5692,77.0,96,160,5.0,100.0
5693,86.0,96,192,4.0,100.0
5694,51.0,0,160,7.0,127.0
5695,78.0,0,160,5.0,100.0
5696,63.0,96,160,6.0,100.0
5697,82.0,0,160,5.0,100.0
5698,87.0,96,96,4.0,100.0
5699,88.0,96,96,4.0,100.0
5700,50.0,0,160,7.0,127.0
5701,77.0,0,160,5.0,100.0
5702,82.0,0,160,5.0,100.0
5703,62.0,0,160,6.0,100.0
5704,89.0,96,96,4.0,100.0
5705,92.0,96,96,4.0,100.0
5706,61.0,0,160,6.0,100.0
5707,49.0,0,160,7.0,127.0
5708,82.0,0,160,5.0,100.0
5709,78.0,0,160,5.0,100.0
5710,90.0,96,96,4.0,100.0
5711,89.0,0,96,4.0,100.0
5712,78.0,0,160,5.0,100.0
5713,82.0,0,160,5.0,100.0
5714,87.0,96,96,4.0,100.0
5715,49.0,0,288,6.0,100.0
5716,37.0,96,336,7.0,127.0
5717,80.0,0,160,5.0,100.0
5718,77.0,96,160,5.0,100.0
5719,85.0,0,160,4.0,100.0
5720,47.0,96,96,6.0,100.0
5721,46.0,0,96,6.0,100.0
5722,89.0,0,160,4.0,100.0
5723,85.0,0,160,4.0,100.0
5724,77.0,0,160,5.0,100.0
5725,80.0,96,160,5.0,100.0
5726,37.0,0,160,7.0,127.0
5727,44.0,96,96,6.0,100.0
5728,30.0,0,94,7.0,127.0
5729,42.0,96,94,7.0,127.0
5730,54.0,0,94,7.0,100.0
5731,58.0,0,94,7.0,100.0
5732,49.0,96,94,7.0,100.0
5733,49.0,96,94,7.0,100.0
5734,54.0,0,94,7.0,100.0
5735,58.0,0,94,7.0,100.0
5736,90.0,0,336,4.0,127.0
5737,85.0,0,336,4.0,127.0
5738,82.0,0,336,4.0,127.0
5739,78.0,0,336,4.0,127.0
5740,49.0,96,94,7.0,100.0
5741,54.0,0,94,7.0,100.0
5742,58.0,0,94,7.0,100.0
5743,46.0,0,94,7.0,100.0
5744,49.0,0,94,7.0,100.0
5745,54.0,96,94,7.0,100.0
5746,46.0,96,94,7.0,100.0
5747,54.0,0,94,7.0,100.0
5748,49.0,0,94,7.0,100.0
5749,66.0,96,336,4.0,127.0
5750,61.0,0,336,4.0,127.0
5751,58.0,0,336,4.0,127.0
5752,46.0,96,94,7.0,100.0
5753,49.0,0,94,7.0,100.0
5754,54.0,0,94,7.0,100.0
5755,66.0,0,48,4.0,100.0
5756,61.0,0,48,4.0,100.0
5757,70.0,96,48,4.0,100.0
5758,49.0,96,94,7.0,100.0
5759,54.0,0,94,7.0,100.0
5760,58.0,0,94,7.0,100.0
5761,58.0,0,48,4.0,100.0
5762,61.0,96,48,4.0,100.0
5763,66.0,0,48,4.0,100.0
5764,46.0,96,94,7.0,100.0
5765,49.0,0,94,7.0,100.0
5766,54.0,0,94,7.0,100.0
5767,61.0,0,48,4.0,100.0
5768,70.0,96,48,4.0,100.0
5769,66.0,0,48,4.0,100.0
5770,58.0,0,94,7.0,100.0
5771,54.0,0,94,7.0,100.0
5772,49.0,96,94,7.0,100.0
5773,59.0,0,48,4.0,100.0
5774,62.0,96,48,4.0,100.0
5775,65.0,0,48,4.0,100.0
5776,68.0,0,48,4.0,100.0
5777,47.0,96,94,7.0,100.0
5778,50.0,0,94,7.0,100.0
5779,53.0,0,94,7.0,100.0
5780,56.0,0,94,7.0,100.0
5781,42.0,0,94,7.0,127.0
5782,30.0,0,94,7.0,127.0
5783,59.0,0,94,7.0,100.0
5784,53.0,96,94,7.0,100.0
5785,50.0,0,94,7.0,100.0
5786,56.0,0,94,7.0,100.0
5787,50.0,0,94,7.0,100.0
5788,53.0,96,94,7.0,100.0
5789,56.0,0,94,7.0,100.0
5790,59.0,0,94,7.0,100.0
5791,80.0,0,336,4.0,127.0
5792,83.0,0,336,4.0,127.0
5793,86.0,96,336,4.0,127.0
5794,89.0,0,336,4.0,127.0
5795,92.0,0,336,4.0,127.0
5796,56.0,0,94,7.0,100.0
5797,53.0,0,94,7.0,100.0
5798,50.0,0,94,7.0,100.0
5799,59.0,96,94,7.0,100.0
5800,50.0,96,94,7.0,100.0
5801,53.0,0,94,7.0,100.0
5802,56.0,0,94,7.0,100.0
5803,47.0,0,94,7.0,100.0
5804,47.0,96,94,7.0,100.0
5805,50.0,0,94,7.0,100.0
5806,53.0,0,94,7.0,100.0
5807,56.0,0,94,7.0,100.0
5808,59.0,0,336,4.0,127.0
5809,62.0,0,336,4.0,127.0
5810,65.0,0,336,4.0,127.0
5811,68.0,96,336,4.0,127.0
5812,56.0,96,94,7.0,100.0
5813,53.0,0,94,7.0,100.0
5814,50.0,0,94,7.0,100.0
5815,47.0,0,94,7.0,100.0
5816,62.0,96,48,4.0,100.0
5817,65.0,0,48,4.0,100.0
5818,71.0,0,48,4.0,100.0
5819,68.0,0,48,4.0,100.0
5820,50.0,0,94,7.0,100.0
5821,53.0,96,94,7.0,100.0
5822,56.0,0,94,7.0,100.0
5823,59.0,0,94,7.0,100.0
5824,59.0,96,48,4.0,100.0
5825,62.0,0,48,4.0,100.0
5826,65.0,0,48,4.0,100.0
5827,68.0,0,48,4.0,100.0
5828,56.0,96,94,7.0,100.0
5829,53.0,0,94,7.0,100.0
5830,50.0,0,94,7.0,100.0
5831,47.0,0,94,7.0,100.0
5832,68.0,0,48,4.0,100.0
5833,71.0,0,48,4.0,100.0
5834,62.0,0,48,4.0,100.0
5835,65.0,96,48,4.0,100.0
5836,59.0,96,94,7.0,100.0
5837,56.0,0,94,7.0,100.0
5838,53.0,0,94,7.0,100.0
5839,50.0,0,94,7.0,100.0
5840,67.0,0,48,4.0,100.0
5841,70.0,96,48,4.0,100.0
5842,64.0,0,48,4.0,100.0
5843,61.0,0,48,4.0,100.0
5844,55.0,96,94,7.0,100.0
5845,58.0,0,94,7.0,100.0
5846,49.0,0,94,7.0,100.0
5847,52.0,0,94,7.0,100.0
5848,42.0,0,94,7.0,127.0
5849,30.0,96,94,7.0,127.0
5850,52.0,0,94,7.0,100.0
5851,61.0,0,94,7.0,100.0
5852,58.0,96,94,7.0,100.0
5853,61.0,0,94,7.0,100.0
5854,52.0,96,94,7.0,100.0
5855,58.0,0,94,7.0,100.0
5856,94.0,0,336,4.0,127.0
5857,88.0,0,336,4.0,127.0
5858,85.0,0,336,4.0,127.0
5859,82.0,0,336,4.0,127.0
5860,58.0,0,94,7.0,100.0
5861,52.0,0,94,7.0,100.0
5862,61.0,96,94,7.0,100.0
5863,49.0,0,94,7.0,100.0
5864,55.0,0,94,7.0,100.0
5865,58.0,96,94,7.0,100.0
5866,58.0,96,94,7.0,100.0
5867,55.0,0,94,7.0,100.0
5868,49.0,0,94,7.0,100.0
5869,64.0,0,336,4.0,127.0
5870,67.0,0,336,4.0,127.0
5871,70.0,96,336,4.0,127.0
5872,61.0,0,336,4.0,127.0
5873,55.0,0,94,7.0,100.0
5874,49.0,96,94,7.0,100.0
5875,58.0,0,94,7.0,100.0
5876,64.0,0,48,4.0,100.0
5877,67.0,96,48,4.0,100.0
5878,70.0,0,48,4.0,100.0
5879,73.0,0,48,4.0,100.0
5880,55.0,0,94,7.0,100.0
5881,61.0,96,94,7.0,100.0
5882,58.0,0,94,7.0,100.0
5883,52.0,0,94,7.0,100.0
5884,61.0,0,48,4.0,100.0
5885,67.0,96,48,4.0,100.0
5886,70.0,0,48,4.0,100.0
5887,64.0,0,48,4.0,100.0
5888,49.0,0,94,7.0,100.0
5889,55.0,0,94,7.0,100.0
5890,58.0,0,94,7.0,100.0
5891,52.0,96,94,7.0,100.0
5892,67.0,0,48,4.0,100.0
5893,64.0,0,48,4.0,100.0
5894,73.0,96,48,4.0,100.0
5895,70.0,0,48,4.0,100.0
5896,58.0,0,94,7.0,100.0
5897,52.0,0,94,7.0,100.0
5898,55.0,0,94,7.0,100.0
5899,61.0,96,94,7.0,100.0
5900,62.0,96,48,4.0,100.0
5901,66.0,0,48,4.0,100.0
5902,71.0,0,48,4.0,100.0
5903,50.0,0,94,7.0,100.0
5904,54.0,96,94,7.0,100.0
5905,59.0,0,94,7.0,100.0
5906,30.0,0,94,7.0,127.0
5907,42.0,0,94,7.0,127.0
5908,54.0,96,94,7.0,100.0
5909,59.0,0,94,7.0,100.0
5910,62.0,0,94,7.0,100.0
5911,62.0,0,94,7.0,100.0
5912,59.0,0,94,7.0,100.0
5913,54.0,96,94,7.0,100.0
5914,95.0,0,336,4.0,127.0
5915,90.0,0,336,4.0,127.0
5916,86.0,0,336,4.0,127.0
5917,83.0,96,336,4.0,127.0
5918,62.0,96,94,7.0,100.0
5919,59.0,0,94,7.0,100.0
5920,54.0,0,94,7.0,100.0
5921,59.0,0,94,7.0,100.0
5922,50.0,96,94,7.0,100.0
5923,54.0,0,94,7.0,100.0
5924,59.0,0,94,7.0,100.0
5925,54.0,0,94,7.0,100.0
5926,50.0,96,94,7.0,100.0
5927,71.0,96,336,4.0,127.0
5928,66.0,0,336,4.0,127.0
5929,62.0,0,336,4.0,127.0
5930,50.0,0,94,7.0,100.0
5931,59.0,0,94,7.0,100.0
5932,54.0,96,94,7.0,100.0
5933,74.0,96,48,4.0,100.0
5934,65.0,0,48,4.0,100.0
5935,68.0,0,48,4.0,100.0
5936,71.0,0,48,4.0,100.0
5937,56.0,0,94,7.0,100.0
5938,53.0,96,94,7.0,100.0
5939,59.0,0,94,7.0,100.0
5940,62.0,0,94,7.0,100.0
5941,68.0,0,48,4.0,100.0
5942,65.0,0,48,4.0,100.0
5943,62.0,0,48,4.0,100.0
5944,71.0,96,48,4.0,100.0
5945,50.0,0,94,7.0,100.0
5946,53.0,96,94,7.0,100.0
5947,56.0,0,94,7.0,100.0
5948,59.0,0,94,7.0,100.0
5949,71.0,0,48,4.0,100.0
5950,68.0,0,48,4.0,100.0
5951,74.0,96,48,4.0,100.0
5952,65.0,0,48,4.0,100.0
5953,56.0,0,94,7.0,100.0
5954,59.0,0,94,7.0,100.0
5955,62.0,0,94,7.0,100.0
5956,53.0,96,94,7.0,100.0
5957,73.0,0,48,4.0,100.0
5958,70.0,0,48,4.0,100.0
5959,64.0,96,48,4.0,100.0
5960,67.0,0,48,4.0,100.0
5961,55.0,0,94,7.0,100.0
5962,52.0,96,94,7.0,100.0
5963,61.0,0,94,7.0,100.0
5964,58.0,0,94,7.0,100.0
5965,70.0,0,48,4.0,100.0
5966,73.0,0,48,4.0,100.0
5967,76.0,0,48,4.0,100.0
5968,67.0,96,48,4.0,100.0
5969,55.0,96,94,7.0,100.0
5970,64.0,0,94,7.0,100.0
5971,61.0,0,94,7.0,100.0
5972,58.0,0,94,7.0,100.0
5973,67.0,0,48,4.0,100.0
5974,70.0,0,48,4.0,100.0
5975,73.0,96,48,4.0,100.0
5976,64.0,0,48,4.0,100.0
5977,58.0,0,94,7.0,100.0
5978,52.0,0,94,7.0,100.0
5979,61.0,0,94,7.0,100.0
5980,55.0,96,94,7.0,100.0
5981,76.0,0,48,4.0,100.0
5982,73.0,0,48,4.0,100.0
5983,67.0,96,48,4.0,100.0
5984,70.0,0,48,4.0,100.0
5985,55.0,0,94,7.0,100.0
5986,58.0,0,94,7.0,100.0
5987,61.0,0,94,7.0,100.0
5988,64.0,96,94,7.0,100.0
5989,71.0,0,48,4.0,100.0
5990,66.0,96,48,4.0,100.0
5991,74.0,0,48,4.0,100.0
5992,62.0,96,94,7.0,100.0
5993,59.0,0,94,7.0,100.0
5994,54.0,0,94,7.0,100.0
5995,71.0,0,48,4.0,100.0
5996,66.0,0,48,4.0,100.0
5997,74.0,0,48,4.0,100.0
5998,78.0,96,48,4.0,100.0
5999,54.0,0,94,7.0,100.0
6000,59.0,0,94,7.0,100.0
6001,62.0,96,94,7.0,100.0
6002,71.0,0,48,4.0,100.0
6003,74.0,96,48,4.0,100.0
6004,66.0,0,48,4.0,100.0
6005,59.0,96,94,7.0,100.0
6006,62.0,0,94,7.0,100.0
6007,54.0,0,94,7.0,100.0
6008,78.0,0,48,4.0,100.0
6009,74.0,0,48,4.0,100.0
6010,71.0,96,48,4.0,100.0
6011,66.0,0,48,4.0,100.0
6012,62.0,0,94,7.0,100.0
6013,59.0,0,94,7.0,100.0
6014,54.0,96,94,7.0,100.0
6015,71.0,96,48,4.0,100.0
6016,77.0,0,48,4.0,100.0
6017,68.0,0,48,4.0,100.0
6018,73.0,0,48,4.0,100.0
6019,65.0,0,94,7.0,100.0
6020,61.0,96,94,7.0,100.0
6021,59.0,0,94,7.0,100.0
6022,56.0,0,94,7.0,100.0
6023,80.0,0,160,4.0,100.0
6024,92.0,96,160,4.0,100.0
6025,56.0,0,94,7.0,100.0
6026,68.0,96,94,7.0,100.0
6027,90.0,96,160,4.0,100.0
6028,78.0,0,160,4.0,100.0
6029,54.0,96,94,7.0,100.0
6030,66.0,0,94,7.0,100.0
6031,75.0,0,160,4.0,100.0
6032,87.0,96,160,4.0,100.0
6033,51.0,96,94,7.0,100.0
6034,63.0,0,94,7.0,100.0
6035,85.0,96,160,4.0,100.0
6036,73.0,0,160,4.0,100.0
6037,49.0,96,94,7.0,100.0
6038,61.0,0,94,7.0,100.0
6039,83.0,96,160,4.0,100.0
6040,71.0,0,160,4.0,100.0
6041,59.0,0,94,7.0,100.0
6042,47.0,96,94,7.0,100.0
6043,82.0,0,160,4.0,100.0
6044,70.0,96,160,4.0,100.0
6045,46.0,96,94,7.0,100.0
6046,58.0,0,94,7.0,100.0
6047,80.0,96,160,4.0,100.0
6048,68.0,0,160,4.0,100.0
6049,56.0,0,94,7.0,100.0
6050,44.0,96,94,7.0,100.0
6051,78.0,96,160,4.0,100.0
6052,66.0,0,160,4.0,100.0
6053,54.0,96,94,7.0,100.0
6054,42.0,0,94,7.0,100.0
6055,63.0,0,142,4.0,100.0
6056,75.0,96,142,4.0,100.0
6057,51.0,96,94,7.0,100.0
6058,39.0,0,94,7.0,100.0
6059,73.0,0,142,4.0,100.0
6060,61.0,96,142,4.0,100.0
6061,49.0,96,94,7.0,100.0
6062,37.0,0,94,7.0,100.0
6063,71.0,96,142,4.0,100.0
6064,59.0,0,142,4.0,100.0
6065,47.0,96,94,7.0,100.0
6066,35.0,0,94,7.0,100.0
6067,70.0,96,142,4.0,100.0
6068,58.0,0,142,4.0,100.0
6069,46.0,96,94,7.0,100.0
6070,34.0,0,94,7.0,100.0
6071,68.0,96,48,4.0,100.0
6072,56.0,0,48,4.0,100.0
6073,32.0,96,94,7.0,100.0
6074,44.0,0,94,7.0,100.0
6075,54.0,96,48,4.0,100.0
6076,66.0,0,48,4.0,100.0
6077,42.0,96,94,7.0,100.0
6078,30.0,0,94,7.0,100.0
6079,51.0,96,48,4.0,100.0
6080,63.0,0,48,4.0,100.0
6081,39.0,96,94,7.0,100.0
6082,61.0,0,48,4.0,100.0
6083,49.0,96,48,4.0,100.0
6084,37.0,96,94,7.0,127.0
6085,65.0,96,48,4.0,100.0
6086,41.0,96,94,7.0,100.0
6087,61.0,96,48,4.0,100.0
6088,37.0,96,94,7.0,127.0
6089,68.0,96,48,4.0,100.0
6090,44.0,96,94,7.0,100.0
6091,61.0,96,48,4.0,100.0
6092,37.0,96,94,7.0,127.0
6093,73.0,96,48,4.0,100.0
6094,49.0,96,94,7.0,100.0
6095,61.0,96,48,4.0,100.0
6096,37.0,96,94,7.0,127.0
6097,77.0,96,48,4.0,100.0
6098,53.0,96,94,7.0,100.0
6099,61.0,96,48,4.0,100.0
6100,37.0,96,94,7.0,127.0
6101,80.0,96,48,4.0,100.0
6102,56.0,96,94,7.0,100.0
6103,61.0,96,48,4.0,100.0
6104,37.0,96,94,7.0,127.0
6105,85.0,96,48,4.0,100.0
6106,61.0,96,94,7.0,100.0
6107,61.0,96,48,4.0,100.0
6108,37.0,96,94,7.0,127.0
6109,85.0,96,48,4.0,100.0
6110,61.0,96,94,7.0,100.0
6111,61.0,96,48,4.0,100.0
6112,37.0,96,94,7.0,127.0
6113,85.0,96,256,4.0,100.0
6114,61.0,96,160,7.0,127.0
6115,54.0,0,160,7.0,127.0
6116,35.0,192,94,7.0,127.0
6117,35.0,0,94,6.0,100.0
6118,62.0,288,0,7.0,127.0
6119,59.0,0,288,6.0,100.0
6120,54.0,0,288,6.0,100.0
6121,59.0,0,0,7.0,127.0
6122,54.0,0,0,7.0,127.0
6123,62.0,0,288,6.0,100.0
6124,86.0,0,0,4.0,127.0
6125,62.0,96,0,7.0,127.0
6126,83.0,0,0,4.0,127.0
6127,78.0,0,96,4.0,127.0
6128,74.0,0,96,4.0,127.0
6129,54.0,0,0,7.0,127.0
6130,59.0,0,0,7.0,127.0
6131,78.0,0,192,4.0,127.0
6132,62.0,0,0,7.0,127.0
6133,54.0,0,0,7.0,127.0
6134,74.0,0,192,4.0,127.0
6135,59.0,192,0,7.0,127.0
6136,62.0,0,192,6.0,100.0
6137,54.0,0,192,6.0,100.0
6138,59.0,0,192,6.0,100.0
6139,88.0,0,96,4.0,127.0
6140,83.0,0,96,4.0,127.0
6141,78.0,0,0,4.0,127.0
6142,74.0,96,0,4.0,127.0
6143,59.0,0,0,7.0,127.0
6144,54.0,0,0,7.0,127.0
6145,62.0,0,96,7.0,127.0
6146,54.0,0,0,7.0,127.0
6147,78.0,96,0,4.0,127.0
6148,86.0,0,96,4.0,127.0
6149,83.0,0,0,4.0,127.0
6150,62.0,0,192,7.0,127.0
6151,59.0,192,0,7.0,127.0
6152,54.0,0,0,7.0,127.0
6153,86.0,0,192,4.0,127.0
6154,83.0,0,0,4.0,127.0
6155,78.0,0,0,4.0,127.0
6156,74.0,0,192,4.0,127.0
6157,62.0,0,192,6.0,100.0
6158,59.0,0,0,6.0,100.0
6159,54.0,0,192,6.0,100.0
6160,74.0,0,192,4.0,127.0
6161,71.0,0,192,4.0,127.0
6162,50.0,0,192,6.0,100.0
6163,54.0,0,192,6.0,100.0
6164,50.0,0,192,7.0,127.0
6165,47.0,480,96,7.0,100.0
6166,62.0,96,256,7.0,100.0
6167,78.0,0,160,4.0,100.0
6168,83.0,0,160,4.0,100.0
6169,86.0,192,160,4.0,100.0
6170,74.0,0,160,4.0,100.0
6171,47.0,96,96,7.0,100.0
6172,62.0,96,256,7.0,100.0
6173,83.0,0,160,4.0,100.0
6174,78.0,0,160,4.0,100.0
6175,74.0,0,160,4.0,100.0
6176,86.0,192,160,4.0,100.0
6177,47.0,96,96,7.0,100.0
6178,62.0,96,256,7.0,100.0
6179,83.0,192,160,4.0,100.0
6180,79.0,0,160,4.0,100.0
6181,74.0,0,160,4.0,100.0
6182,86.0,0,160,4.0,100.0
6183,43.0,96,96,7.0,100.0
6184,59.0,96,256,7.0,100.0
6185,86.0,192,160,4.0,100.0
6186,83.0,0,160,4.0,100.0
6187,79.0,0,160,4.0,100.0
6188,74.0,0,160,4.0,100.0
6189,43.0,96,96,7.0,100.0
6190,59.0,96,256,7.0,100.0
6191,83.0,0,160,4.0,100.0
6192,79.0,192,160,4.0,100.0
6193,74.0,0,160,4.0,100.0
6194,86.0,0,160,4.0,100.0
6195,43.0,96,96,7.0,100.0
6196,59.0,96,256,7.0,100.0
6197,86.0,0,160,4.0,100.0
6198,83.0,0,160,4.0,100.0
6199,79.0,0,160,4.0,100.0
6200,74.0,192,160,4.0,100.0
6201,43.0,96,96,7.0,100.0
6202,59.0,96,256,7.0,100.0
6203,75.0,192,160,4.0,100.0
6204,79.0,0,160,4.0,100.0
6205,84.0,0,160,4.0,100.0
6206,87.0,0,160,4.0,100.0
6207,36.0,96,96,7.0,100.0
6208,51.0,96,256,7.0,127.0
6209,87.0,0,160,4.0,100.0
6210,84.0,192,160,4.0,100.0
6211,79.0,0,160,4.0,100.0
6212,75.0,0,160,4.0,100.0
6213,36.0,96,96,7.0,100.0
6214,51.0,96,256,7.0,127.0
6215,75.0,192,160,4.0,100.0
6216,79.0,0,160,4.0,100.0
6217,84.0,0,160,4.0,100.0
6218,87.0,0,160,4.0,100.0
6219,36.0,96,94,7.0,100.0
6220,51.0,96,256,7.0,127.0
6221,75.0,0,160,4.0,100.0
6222,79.0,192,160,4.0,100.0
6223,84.0,0,160,4.0,100.0
6224,87.0,0,160,4.0,100.0
6225,36.0,96,94,7.0,100.0
6226,51.0,96,256,7.0,127.0
6227,81.0,0,160,4.0,100.0
6228,75.0,192,160,4.0,100.0
6229,87.0,0,160,4.0,100.0
6230,84.0,0,160,4.0,100.0
6231,29.0,96,94,7.0,100.0
6232,45.0,96,256,7.0,127.0
6233,75.0,0,160,4.0,100.0
6234,81.0,0,160,4.0,100.0
6235,84.0,0,160,4.0,100.0
6236,87.0,192,160,4.0,100.0
6237,29.0,96,94,7.0,100.0
6238,45.0,96,256,7.0,127.0
6239,87.0,0,160,4.0,100.0
6240,81.0,0,160,4.0,100.0
6241,84.0,192,160,4.0,100.0
6242,75.0,0,160,4.0,100.0
6243,41.0,96,94,7.0,100.0
6244,36.0,96,256,7.0,127.0
6245,93.0,192,160,4.0,100.0
6246,87.0,0,160,4.0,100.0
6247,84.0,0,160,4.0,100.0
6248,81.0,0,160,4.0,100.0
6249,41.0,96,94,7.0,100.0
6250,33.0,96,256,7.0,127.0
6251,96.0,0,160,4.0,100.0
6252,93.0,0,160,4.0,100.0
6253,87.0,192,160,4.0,100.0
6254,84.0,0,160,4.0,100.0
6255,41.0,96,94,7.0,100.0
6256,30.0,96,256,7.0,127.0
6257,99.0,0,160,4.0,100.0
6258,87.0,0,160,4.0,100.0
6259,93.0,0,160,4.0,100.0
6260,96.0,192,160,4.0,100.0
6261,41.0,96,94,7.0,127.0
6262,87.0,0,142,4.0,100.0
6263,93.0,0,142,4.0,100.0
6264,99.0,0,142,4.0,100.0
6265,96.0,0,142,4.0,100.0
6266,29.0,0,160,7.0,100.0
6267,41.0,96,160,7.0,100.0
6268,29.0,0,160,6.0,100.0
6269,41.0,0,160,6.0,100.0
6270,87.0,192,96,4.0,100.0
6271,84.0,0,96,4.0,100.0
6272,78.0,0,96,7.0,100.0
6273,83.0,0,96,4.0,100.0
6274,77.0,0,96,7.0,100.0
6275,86.0,96,96,4.0,100.0
6276,84.0,96,142,4.0,100.0
6277,87.0,0,142,4.0,100.0
6278,78.0,0,142,7.0,100.0
6279,69.0,0,96,4.0,100.0
6280,72.0,0,96,4.0,100.0
6281,77.0,192,96,7.0,100.0
6282,73.0,0,96,4.0,100.0
6283,70.0,96,96,4.0,100.0
6284,76.0,0,96,7.0,100.0
6285,72.0,96,142,4.0,100.0
6286,77.0,0,142,7.0,100.0
6287,69.0,0,142,4.0,100.0
6288,66.0,0,96,7.0,100.0
6289,72.0,0,96,4.0,100.0
6290,75.0,192,96,4.0,100.0
6291,65.0,96,96,7.0,100.0
6292,71.0,0,96,4.0,100.0
6293,74.0,0,96,4.0,100.0
6294,72.0,96,160,4.0,100.0
6295,75.0,0,160,4.0,100.0
6296,66.0,0,160,7.0,100.0
6297,65.0,0,96,7.0,100.0
6298,81.0,192,96,4.0,100.0
6299,84.0,96,96,4.0,100.0
6300,64.0,0,96,7.0,100.0
6301,87.0,96,96,4.0,100.0
6302,60.0,0,160,7.0,100.0
6303,53.0,0,160,7.0,100.0
6304,57.0,0,160,7.0,100.0
6305,63.0,0,160,7.0,100.0
6306,89.0,96,96,4.0,100.0
6307,87.0,96,96,4.0,100.0
6308,53.0,96,96,7.0,100.0
6309,86.0,0,96,4.0,100.0
6310,87.0,96,96,4.0,100.0
6311,57.0,0,160,7.0,127.0
6312,89.0,96,96,4.0,100.0
6313,91.0,96,96,4.0,100.0
6314,60.0,0,96,7.0,100.0
6315,87.0,96,96,4.0,100.0
6316,84.0,0,96,4.0,100.0
6317,65.0,96,160,7.0,127.0
6318,86.0,96,96,4.0,100.0
6319,87.0,96,96,4.0,100.0
6320,69.0,96,96,7.0,100.0
6321,84.0,0,96,4.0,100.0
6322,81.0,96,96,4.0,100.0
6323,72.0,0,160,7.0,127.0
6324,82.0,96,96,4.0,100.0
6325,84.0,96,96,4.0,100.0
6326,75.0,0,96,7.0,100.0
6327,72.0,96,96,7.0,100.0
6328,81.0,0,96,4.0,100.0
6329,67.0,96,96,7.0,100.0
6330,75.0,0,96,4.0,100.0
6331,69.0,96,96,7.0,100.0
6332,77.0,0,96,4.0,100.0
6333,79.0,0,96,4.0,100.0
6334,70.0,96,96,7.0,100.0
6335,75.0,96,96,4.0,100.0
6336,67.0,0,96,7.0,100.0
6337,63.0,0,96,7.0,100.0
6338,72.0,96,96,4.0,100.0
6339,74.0,0,96,4.0,100.0
6340,65.0,96,96,7.0,100.0
6341,75.0,96,96,4.0,100.0
6342,67.0,0,96,7.0,100.0
6343,72.0,96,96,4.0,100.0
6344,63.0,0,96,7.0,100.0
6345,69.0,96,96,4.0,100.0
6346,60.0,0,96,7.0,100.0
6347,62.0,96,96,7.0,100.0
6348,70.0,0,96,4.0,100.0
6349,72.0,0,96,4.0,100.0
6350,63.0,96,96,7.0,100.0
6351,60.0,96,96,7.0,100.0
6352,69.0,0,96,4.0,100.0
6353,57.0,96,96,7.0,100.0
6354,65.0,0,160,4.0,100.0
6355,63.0,0,160,4.0,100.0
6356,60.0,0,160,4.0,100.0
6357,58.0,96,96,7.0,100.0
6358,60.0,96,96,7.0,100.0
6359,57.0,96,96,7.0,100.0
6360,86.0,0,96,4.0,100.0
6361,62.0,0,160,7.0,100.0
6362,58.0,96,160,7.0,100.0
6363,53.0,0,160,7.0,100.0
6364,87.0,96,96,4.0,100.0
6365,86.0,96,96,4.0,100.0
6366,53.0,96,96,7.0,100.0
6367,84.0,0,96,4.0,100.0
6368,86.0,0,96,4.0,100.0
6369,58.0,96,160,7.0,127.0
6370,87.0,96,96,4.0,100.0
6371,89.0,96,96,4.0,100.0
6372,86.0,0,96,4.0,100.0
6373,62.0,96,96,7.0,100.0
6374,82.0,0,96,4.0,100.0
6375,65.0,96,160,7.0,127.0
6376,84.0,96,96,4.0,100.0
6377,86.0,96,96,4.0,100.0
6378,82.0,96,96,4.0,100.0
6379,70.0,0,96,7.0,100.0
6380,77.0,96,96,4.0,100.0
6381,74.0,0,160,7.0,127.0
6382,81.0,96,96,4.0,100.0
6383,62.0,96,96,7.0,100.0
6384,82.0,0,96,4.0,100.0
6385,77.0,0,96,4.0,100.0
6386,58.0,96,96,7.0,100.0
6387,74.0,0,96,4.0,100.0
6388,70.0,96,96,7.0,100.0
6389,72.0,0,96,7.0,100.0
6390,75.0,96,96,4.0,100.0
6391,74.0,96,96,7.0,100.0
6392,77.0,0,96,4.0,100.0
6393,74.0,0,96,4.0,100.0
6394,70.0,96,96,7.0,100.0
6395,62.0,96,96,7.0,100.0
6396,70.0,0,96,4.0,100.0
6397,63.0,96,96,7.0,100.0
6398,72.0,0,96,4.0,100.0
6399,65.0,0,96,7.0,100.0
6400,74.0,96,96,4.0,100.0
6401,62.0,0,96,7.0,100.0
6402,70.0,96,96,4.0,100.0
6403,58.0,96,96,7.0,100.0
6404,65.0,0,96,4.0,100.0
6405,69.0,0,96,4.0,100.0
6406,60.0,96,96,7.0,100.0
6407,70.0,0,96,4.0,100.0
6408,62.0,96,96,7.0,100.0
6409,62.0,0,96,4.0,100.0
6410,58.0,96,96,7.0,100.0
6411,70.0,96,96,4.0,100.0
6412,74.0,0,96,7.0,100.0
6413,75.0,0,96,7.0,100.0
6414,72.0,96,96,4.0,100.0
6415,74.0,0,96,4.0,100.0
6416,77.0,96,96,7.0,100.0
6417,70.0,0,96,4.0,100.0
6418,74.0,96,96,7.0,100.0
6419,75.0,0,96,7.0,100.0
6420,65.0,0,142,4.0,100.0
6421,69.0,0,142,4.0,100.0
6422,72.0,96,142,4.0,100.0
6423,77.0,96,96,7.0,100.0
6424,75.0,0,96,7.0,100.0
6425,91.0,96,96,4.0,100.0
6426,89.0,0,96,4.0,100.0
6427,74.0,96,96,7.0,100.0
6428,75.0,0,96,7.0,100.0
6429,91.0,96,96,4.0,100.0
6430,77.0,96,96,7.0,100.0
6431,89.0,0,96,4.0,100.0
6432,87.0,96,96,4.0,100.0
6433,79.0,0,96,7.0,100.0
6434,75.0,0,94,7.0,100.0
6435,91.0,96,96,4.0,100.0
6436,72.0,96,96,7.0,100.0
6437,87.0,0,96,4.0,100.0
6438,74.0,0,96,7.0,100.0
6439,86.0,96,96,4.0,100.0
6440,75.0,96,96,7.0,100.0
6441,84.0,0,96,4.0,100.0
6442,72.0,0,96,7.0,100.0
6443,87.0,96,96,4.0,100.0
6444,84.0,0,96,4.0,100.0
6445,69.0,96,96,7.0,100.0
6446,82.0,96,96,4.0,100.0
6447,70.0,0,96,7.0,100.0
6448,81.0,0,96,4.0,100.0
6449,72.0,96,96,7.0,100.0
6450,84.0,96,96,4.0,100.0
6451,69.0,0,96,7.0,100.0
6452,78.0,0,96,4.0,100.0
6453,63.0,96,96,7.0,100.0
6454,77.0,96,96,4.0,100.0
6455,65.0,0,96,7.0,100.0
6456,75.0,0,96,4.0,100.0
6457,66.0,96,96,7.0,100.0
6458,78.0,0,96,4.0,100.0
6459,63.0,96,96,7.0,100.0
6460,75.0,0,96,4.0,100.0
6461,60.0,96,96,7.0,100.0
6462,74.0,96,96,4.0,100.0
6463,62.0,0,96,7.0,100.0
6464,72.0,96,96,4.0,100.0
6465,63.0,0,96,7.0,100.0
6466,75.0,96,96,4.0,100.0
6467,60.0,0,96,7.0,100.0
6468,72.0,96,96,4.0,100.0
6469,57.0,0,96,7.0,100.0
6470,58.0,0,96,7.0,100.0
6471,70.0,96,96,4.0,100.0
6472,69.0,96,96,4.0,100.0
6473,60.0,0,96,7.0,100.0
6474,57.0,96,96,7.0,100.0
6475,72.0,0,96,4.0,100.0
6476,72.0,0,96,7.0,100.0
6477,63.0,96,96,4.0,100.0
6478,62.0,0,96,4.0,100.0
6479,70.0,96,96,7.0,100.0
6480,60.0,0,96,4.0,100.0
6481,69.0,96,96,7.0,100.0
6482,72.0,96,94,7.0,100.0
6483,63.0,0,96,4.0,100.0
6484,74.0,96,96,7.0,100.0
6485,65.0,0,142,4.0,100.0
6486,70.0,0,142,4.0,100.0
6487,75.0,96,96,7.0,100.0
6488,89.0,96,96,4.0,100.0
6489,74.0,0,96,7.0,100.0
6490,87.0,96,96,4.0,100.0
6491,72.0,0,96,7.0,100.0
6492,74.0,0,96,7.0,100.0
6493,89.0,96,96,4.0,100.0
6494,75.0,96,96,7.0,100.0
6495,87.0,0,96,4.0,100.0
6496,77.0,96,96,7.0,100.0
6497,86.0,0,96,4.0,100.0
6498,74.0,0,96,7.0,100.0
6499,89.0,96,96,4.0,100.0
6500,86.0,0,96,4.0,100.0
6501,70.0,96,96,7.0,100.0
6502,84.0,96,96,4.0,100.0
6503,72.0,0,96,7.0,100.0
6504,82.0,0,96,4.0,100.0
6505,74.0,96,96,7.0,100.0
6506,70.0,0,96,7.0,100.0
6507,86.0,96,96,4.0,100.0
6508,77.0,96,96,4.0,100.0
6509,65.0,0,96,7.0,100.0
6510,69.0,96,96,7.0,100.0
6511,75.0,0,96,4.0,100.0
6512,70.0,96,96,7.0,100.0
6513,74.0,0,96,4.0,100.0
6514,65.0,96,96,7.0,100.0
6515,77.0,0,96,4.0,100.0
6516,62.0,96,96,7.0,100.0
6517,82.0,0,96,4.0,100.0
6518,63.0,96,96,7.0,100.0
6519,79.0,0,96,4.0,100.0
6520,77.0,0,96,4.0,100.0
6521,65.0,96,96,7.0,100.0
6522,82.0,96,96,4.0,100.0
6523,62.0,0,96,7.0,100.0
6524,58.0,96,96,7.0,100.0
6525,77.0,0,96,4.0,100.0
6526,60.0,96,96,7.0,100.0
6527,75.0,0,96,4.0,100.0
6528,74.0,96,96,4.0,100.0
6529,62.0,0,96,7.0,100.0
6530,77.0,0,96,4.0,100.0
6531,58.0,96,96,7.0,100.0
6532,53.0,0,96,7.0,100.0
6533,86.0,96,96,4.0,100.0
6534,57.0,96,96,7.0,100.0
6535,84.0,0,96,4.0,100.0
6536,82.0,0,96,4.0,100.0
6537,58.0,96,96,7.0,100.0
6538,74.0,0,336,4.0,100.0
6539,86.0,96,96,4.0,100.0
6540,53.0,0,96,7.0,100.0
6541,51.0,0,96,7.0,100.0
6542,87.0,0,96,4.0,100.0
6543,58.0,96,96,7.0,100.0
6544,84.0,0,96,4.0,100.0
6545,53.0,0,96,7.0,100.0
6546,86.0,96,96,4.0,100.0
6547,78.0,96,336,4.0,100.0
6548,51.0,96,96,7.0,100.0
6549,87.0,0,96,4.0,100.0
6550,77.0,0,160,4.0,100.0
6551,89.0,96,160,4.0,100.0
6552,50.0,0,192,7.0,100.0
6553,46.0,0,192,7.0,100.0
6554,58.0,192,192,7.0,100.0
6555,51.0,192,94,7.0,127.0
6556,55.0,0,94,7.0,127.0
6557,63.0,192,96,7.0,100.0
6558,60.0,96,96,7.0,100.0
6559,57.0,96,192,7.0,100.0
6560,65.0,0,192,7.0,100.0
6561,53.0,0,192,7.0,100.0
6562,69.0,192,192,4.0,100.0
6563,72.0,0,192,4.0,100.0
6564,70.0,0,160,4.0,100.0
6565,74.0,0,160,4.0,100.0
6566,58.0,192,160,7.0,127.0
6567,62.0,0,160,7.0,127.0
6568,94.0,192,96,4.0,100.0
6569,93.0,96,96,4.0,100.0
6570,94.0,96,160,4.0,100.0
6571,91.0,0,192,4.0,100.0
6572,61.0,0,192,7.0,100.0
6573,58.0,0,192,7.0,100.0
6574,79.0,192,192,4.0,100.0
6575,82.0,0,192,4.0,100.0
6576,67.0,0,192,7.0,100.0
6577,64.0,0,192,7.0,100.0
6578,60.0,192,192,7.0,100.0
6579,65.0,0,192,7.0,100.0
6580,69.0,0,192,7.0,100.0
6581,77.0,0,192,4.0,100.0
6582,81.0,0,192,4.0,100.0
6583,89.0,0,192,4.0,100.0
6584,70.0,0,96,7.0,100.0
6585,67.0,0,160,7.0,100.0
6586,60.0,192,160,7.0,100.0
6587,76.0,0,192,4.0,100.0
6588,88.0,0,192,4.0,100.0
6589,79.0,0,0,4.0,100.0
6590,72.0,0,0,7.0,100.0
6591,91.0,96,192,4.0,100.0
6592,82.0,0,192,4.0,100.0
6593,65.0,0,192,7.0,100.0
6594,74.0,0,144,7.0,100.0
6595,65.0,0,160,7.0,100.0
6596,77.0,0,192,4.0,100.0
6597,81.0,0,192,4.0,100.0
6598,89.0,192,192,4.0,100.0
6599,76.0,144,48,7.0,100.0
6600,77.0,48,160,7.0,100.0
6601,65.0,0,160,7.0,100.0
6602,89.0,0,160,4.0,100.0
6603,81.0,0,160,4.0,100.0
6604,67.0,0,96,7.0,100.0
6605,70.0,0,96,4.0,100.0
6606,77.0,192,96,4.0,100.0
6607,75.0,96,96,4.0,100.0
6608,69.0,0,96,7.0,100.0
6609,72.0,0,96,4.0,100.0
6610,74.0,0,160,4.0,100.0
6611,70.0,0,192,7.0,100.0
6612,82.0,0,192,4.0,100.0
6613,62.0,192,192,7.0,100.0
6614,65.0,0,192,7.0,100.0
6615,70.0,0,256,4.0,100.0
6616,63.0,0,94,7.0,100.0
6617,67.0,0,94,7.0,100.0
6618,79.0,192,94,4.0,100.0
6619,87.0,0,96,4.0,100.0
6620,75.0,0,96,4.0,100.0
6621,72.0,192,96,7.0,100.0
6622,75.0,0,96,7.0,100.0
6623,79.0,96,96,4.0,100.0
6624,84.0,0,96,4.0,100.0
6625,81.0,0,160,4.0,100.0
6626,77.0,96,192,7.0,100.0
6627,89.0,192,192,4.0,100.0
6628,72.0,0,192,7.0,100.0
6629,69.0,0,192,7.0,100.0
6630,77.0,0,256,4.0,100.0
6631,86.0,0,94,4.0,100.0
6632,70.0,0,94,7.0,100.0
6633,74.0,192,94,7.0,100.0
6634,82.0,192,96,4.0,100.0
6635,67.0,0,96,7.0,100.0
6636,66.0,0,96,7.0,100.0
6637,81.0,96,96,4.0,100.0
6638,82.0,0,160,4.0,100.0
6639,67.0,96,160,7.0,100.0
6640,79.0,0,192,4.0,100.0
6641,91.0,0,192,4.0,100.0
6642,67.0,0,0,7.0,100.0
6643,70.0,0,192,7.0,100.0
6644,75.0,0,192,7.0,100.0
6645,72.0,0,192,7.0,100.0
6646,75.0,192,192,4.0,100.0
6647,79.0,0,192,4.0,100.0
6648,87.0,0,192,4.0,100.0
6649,66.0,0,192,7.0,100.0
6650,69.0,192,192,7.0,100.0
6651,81.0,0,192,4.0,100.0
6652,86.0,0,0,4.0,100.0
6653,74.0,0,192,4.0,100.0
6654,69.0,0,160,7.0,100.0
6655,66.0,192,160,7.0,100.0
6656,74.0,0,160,5.0,100.0
6657,84.0,0,96,5.0,100.0
6658,66.0,0,192,7.0,100.0
6659,82.0,0,0,5.0,100.0
6660,62.0,192,192,7.0,100.0
6661,67.0,0,192,7.0,100.0
6662,70.0,96,192,7.0,100.0
6663,65.0,192,96,7.0,100.0
6664,68.0,0,96,7.0,100.0
6665,85.0,0,160,5.0,100.0
6666,64.0,96,94,7.0,100.0
6667,67.0,0,94,7.0,100.0
6668,91.0,0,192,4.0,100.0
6669,82.0,0,352,5.0,100.0
6670,64.0,0,0,7.0,100.0
6671,67.0,0,192,7.0,100.0
6672,82.0,192,96,5.0,100.0
6673,60.0,0,192,7.0,100.0
6674,80.0,0,0,5.0,100.0
6675,84.0,96,528,4.0,100.0
6676,68.0,0,192,7.0,100.0
6677,65.0,96,192,7.0,100.0
6678,66.0,192,96,7.0,100.0
6679,63.0,0,96,7.0,100.0
6680,83.0,0,160,5.0,100.0
6681,65.0,96,96,7.0,100.0
6682,62.0,0,0,7.0,100.0
6683,89.0,0,192,4.0,100.0
6684,65.0,0,160,7.0,100.0
6685,80.0,0,96,5.0,100.0
6686,58.0,192,192,7.0,100.0
6687,62.0,0,192,7.0,100.0
6688,79.0,96,96,5.0,100.0
6689,82.0,96,528,4.0,100.0
6690,79.0,0,160,5.0,100.0
6691,67.0,96,192,7.0,100.0
6692,63.0,0,192,7.0,100.0
6693,65.0,0,96,7.0,100.0
6694,62.0,0,96,7.0,100.0
6695,82.0,0,160,5.0,100.0
6696,61.0,96,94,7.0,100.0
6697,64.0,0,94,7.0,100.0
6698,88.0,0,192,4.0,100.0
6699,79.0,192,352,5.0,100.0
6700,61.0,96,192,7.0,100.0
6701,64.0,0,192,7.0,100.0
6702,79.0,0,96,5.0,100.0
6703,61.0,0,192,7.0,100.0
6704,57.0,192,192,7.0,100.0
6705,77.0,0,0,5.0,100.0
6706,81.0,0,528,4.0,100.0
6707,62.0,0,192,7.0,100.0
6708,65.0,96,192,7.0,100.0
6709,63.0,0,96,7.0,100.0
6710,60.0,0,96,7.0,100.0
6711,86.0,192,160,4.0,100.0
6712,80.0,0,160,5.0,100.0
6713,62.0,96,94,7.0,100.0
6714,59.0,0,94,7.0,100.0
6715,80.0,0,96,4.0,100.0
6716,77.0,0,352,5.0,100.0
6717,62.0,0,160,6.0,100.0
6718,59.0,96,192,7.0,100.0
6719,79.0,96,192,4.0,100.0
6720,60.0,96,96,7.0,100.0
6721,75.0,0,160,5.0,100.0
6722,63.0,0,160,6.0,100.0
6723,84.0,0,94,4.0,100.0
6724,58.0,96,96,7.0,100.0
6725,78.0,0,96,4.0,100.0
6726,60.0,0,160,6.0,100.0
6727,75.0,0,160,5.0,100.0
6728,57.0,96,192,7.0,100.0
6729,58.0,0,96,7.0,100.0
6730,77.0,96,192,4.0,100.0
6731,74.0,0,160,5.0,100.0
6732,62.0,96,160,6.0,100.0
6733,82.0,96,94,4.0,100.0
6734,50.0,0,94,7.0,100.0
6735,77.0,0,96,4.0,100.0
6736,89.0,96,96,4.0,100.0
6737,88.0,96,96,4.0,100.0
6738,87.0,96,96,4.0,100.0
6739,84.0,96,96,4.0,100.0
6740,81.0,96,96,4.0,100.0
6741,78.0,96,96,4.0,100.0
6742,77.0,96,96,4.0,100.0
6743,76.0,96,96,4.0,100.0
6744,75.0,96,96,4.0,100.0
6745,72.0,96,96,4.0,100.0
6746,53.0,0,1104,7.0,127.0
6747,63.0,96,1104,6.0,100.0
6748,48.0,0,1104,7.0,127.0
6749,69.0,96,96,4.0,100.0
6750,66.0,96,96,5.0,100.0
6751,70.0,0,160,4.0,100.0
6752,65.0,96,94,5.0,100.0
6753,79.0,0,96,4.0,100.0
6754,53.0,0,336,7.0,100.0
6755,50.0,0,336,7.0,100.0
6756,62.0,0,336,6.0,100.0
6757,70.0,96,160,5.0,100.0
6758,77.0,96,0,4.0,100.0
6759,89.0,96,96,4.0,100.0
6760,88.0,96,96,4.0,100.0
6761,87.0,96,96,4.0,100.0
6762,84.0,96,96,4.0,100.0
6763,81.0,96,96,4.0,100.0
6764,78.0,96,96,4.0,100.0
6765,77.0,96,96,4.0,100.0
6766,76.0,96,96,4.0,100.0
6767,75.0,96,96,4.0,100.0
6768,72.0,96,96,4.0,100.0
6769,41.0,0,1104,7.0,127.0
6770,51.0,0,1104,6.0,100.0
6771,36.0,0,1104,7.0,127.0
6772,69.0,96,96,4.0,100.0
6773,66.0,0,96,5.0,100.0
6774,70.0,0,160,4.0,100.0
6775,65.0,96,94,5.0,100.0
6776,79.0,0,96,4.0,100.0
6777,41.0,0,336,7.0,100.0
6778,38.0,0,336,7.0,100.0
6779,50.0,96,336,6.0,100.0
6780,70.0,96,160,5.0,100.0
6781,77.0,0,0,4.0,100.0
6782,74.0,0,94,5.0,100.0
6783,82.0,96,96,4.0,100.0
6784,77.0,0,94,5.0,100.0
6785,86.0,96,96,4.0,100.0
6786,75.0,96,94,5.0,100.0
6787,84.0,0,96,4.0,100.0
6788,38.0,0,384,7.0,127.0
6789,50.0,96,384,6.0,100.0
6790,74.0,96,94,5.0,100.0
6791,78.0,96,94,5.0,100.0
6792,79.0,96,94,5.0,100.0
6793,74.0,96,94,5.0,100.0
6794,55.0,0,384,6.0,100.0
6795,43.0,0,384,7.0,100.0
6796,73.0,0,94,5.0,100.0
6797,78.0,96,94,5.0,100.0
6798,79.0,96,94,5.0,100.0
6799,73.0,96,94,5.0,100.0
6800,40.0,0,384,7.0,100.0
6801,82.0,0,768,4.0,100.0
6802,52.0,96,384,6.0,100.0
6803,72.0,0,94,5.0,100.0
6804,41.0,0,160,7.0,100.0
6805,53.0,0,160,6.0,100.0
6806,76.0,96,94,5.0,100.0
6807,81.0,96,192,4.0,100.0
6808,77.0,96,94,5.0,100.0
6809,77.0,0,160,4.0,100.0
6810,89.0,96,94,5.0,100.0
6811,89.0,0,96,4.0,100.0
6812,101.0,96,96,4.0,100.0
6813,100.0,96,96,4.0,100.0
6814,99.0,96,96,4.0,100.0
6815,96.0,96,96,4.0,100.0
6816,93.0,96,96,4.0,100.0
6817,90.0,96,96,4.0,100.0
6818,89.0,96,96,4.0,100.0
6819,88.0,96,96,4.0,100.0
6820,87.0,96,96,4.0,100.0
6821,84.0,96,96,4.0,100.0
6822,75.0,0,1104,6.0,100.0
6823,60.0,96,1104,7.0,127.0
6824,65.0,0,1104,7.0,127.0
6825,81.0,96,96,4.0,100.0
6826,78.0,0,96,5.0,100.0
6827,82.0,0,160,4.0,100.0
6828,77.0,96,94,5.0,100.0
6829,91.0,96,96,4.0,100.0
6830,74.0,96,336,6.0,100.0
6831,62.0,0,336,7.0,100.0
6832,65.0,0,336,7.0,100.0
6833,82.0,0,160,5.0,100.0
6834,89.0,96,94,4.0,100.0
6835,89.0,96,96,4.0,100.0
6836,88.0,96,96,4.0,100.0
6837,87.0,96,96,4.0,100.0
6838,84.0,96,96,4.0,100.0
6839,81.0,96,96,4.0,100.0
6840,78.0,96,96,4.0,100.0
6841,77.0,96,96,4.0,100.0
6842,76.0,96,96,4.0,100.0
6843,75.0,96,96,4.0,100.0
6844,72.0,96,96,4.0,100.0
6845,63.0,0,1104,6.0,100.0
6846,48.0,0,1104,7.0,127.0
6847,53.0,96,1104,7.0,127.0
6848,69.0,96,96,4.0,100.0
6849,66.0,0,96,5.0,100.0
6850,70.0,96,160,4.0,100.0
6851,65.0,96,94,5.0,100.0
6852,79.0,0,96,4.0,100.0
6853,50.0,0,336,7.0,100.0
6854,53.0,0,336,7.0,100.0
6855,62.0,0,336,6.0,100.0
6856,70.0,96,160,5.0,100.0
6857,77.0,96,96,4.0,100.0
6858,77.0,96,96,4.0,100.0
6859,74.0,0,94,5.0,100.0
6860,82.0,96,96,4.0,100.0
6861,77.0,96,94,5.0,100.0
6862,86.0,0,96,4.0,100.0
6863,75.0,0,94,5.0,100.0
6864,84.0,96,96,4.0,100.0
6865,50.0,0,384,7.0,127.0
6866,62.0,0,384,6.0,100.0
6867,74.0,0,94,5.0,100.0
6868,78.0,96,94,5.0,100.0
6869,79.0,96,94,5.0,100.0
6870,74.0,96,94,5.0,100.0
6871,55.0,0,384,7.0,100.0
6872,67.0,96,384,6.0,100.0
6873,73.0,0,94,5.0,100.0
6874,78.0,96,94,5.0,100.0
6875,79.0,96,94,5.0,100.0
6876,73.0,96,94,5.0,100.0
6877,52.0,96,384,7.0,100.0
6878,64.0,0,384,6.0,100.0
6879,82.0,0,768,4.0,100.0
6880,72.0,0,94,5.0,100.0
6881,77.0,96,94,5.0,100.0
6882,81.0,0,192,4.0,100.0
6883,53.0,0,192,7.0,100.0
6884,65.0,96,192,6.0,100.0
6885,70.0,0,94,5.0,100.0
6886,54.0,0,160,7.0,100.0
6887,66.0,0,160,6.0,100.0
6888,82.0,96,160,4.0,100.0
6889,75.0,96,94,5.0,100.0
6890,82.0,96,96,4.0,100.0
6891,79.0,0,94,5.0,100.0
6892,87.0,96,96,4.0,100.0
6893,82.0,96,94,5.0,100.0
6894,91.0,0,96,4.0,100.0
6895,80.0,96,94,5.0,100.0
6896,89.0,0,96,4.0,100.0
6897,55.0,0,384,7.0,127.0
6898,67.0,0,384,7.0,127.0
6899,79.0,96,94,5.0,100.0
6900,83.0,96,94,5.0,100.0
6901,84.0,96,94,5.0,100.0
6902,79.0,96,94,5.0,100.0
6903,60.0,0,384,7.0,100.0
6904,72.0,0,384,7.0,100.0
6905,78.0,0,94,5.0,100.0
6906,83.0,96,94,5.0,100.0
6907,84.0,96,94,5.0,100.0
6908,78.0,96,94,5.0,100.0
6909,69.0,0,384,7.0,100.0
6910,57.0,96,384,7.0,100.0
6911,87.0,0,768,4.0,100.0
6912,77.0,96,94,5.0,100.0
6913,82.0,96,94,5.0,100.0
6914,70.0,0,192,7.0,100.0
6915,58.0,0,192,7.0,100.0
6916,86.0,0,192,4.0,100.0
6917,75.0,0,94,5.0,100.0
6918,71.0,0,160,7.0,100.0
6919,87.0,0,160,4.0,100.0
6920,59.0,96,160,7.0,100.0
6921,80.0,96,94,5.0,100.0
6922,84.0,96,94,5.0,100.0
6923,87.0,0,192,4.0,100.0
6924,87.0,0,94,5.0,100.0
6925,85.0,96,94,5.0,100.0
6926,72.0,96,384,7.0,127.0
6927,60.0,0,384,7.0,127.0
6928,92.0,0,0,4.0,100.0
6929,85.0,0,94,5.0,100.0
6930,83.0,96,94,5.0,100.0
6931,82.0,96,94,5.0,100.0
6932,83.0,96,94,5.0,100.0
6933,64.0,0,384,7.0,100.0
6934,76.0,96,384,7.0,100.0
6935,83.0,96,94,5.0,100.0
6936,88.0,96,94,5.0,100.0
6937,89.0,96,94,5.0,100.0
6938,83.0,96,94,5.0,100.0
6939,74.0,0,384,7.0,100.0
6940,62.0,0,384,7.0,100.0
6941,82.0,0,94,5.0,100.0
6942,86.0,96,94,5.0,100.0
6943,87.0,96,94,5.0,100.0
6944,82.0,96,94,5.0,100.0
6945,63.0,0,544,7.0,127.0
6946,75.0,96,544,7.0,127.0
6947,91.0,0,544,4.0,100.0
6948,79.0,96,160,5.0,100.0
6949,79.0,0,160,4.0,100.0
6950,82.0,0,160,4.0,100.0
6951,87.0,192,160,4.0,100.0
6952,91.0,0,160,4.0,100.0
6953,39.0,0,160,7.0,127.0
6954,51.0,0,160,7.0,127.0
6955,39.0,0,160,6.0,100.0
6956,51.0,0,160,6.0,100.0
6957,86.0,192,160,4.0,127.0
6958,89.0,0,160,4.0,127.0
6959,91.0,0,94,4.0,100.0
6960,87.0,192,94,4.0,100.0
6961,92.0,96,94,4.0,100.0
6962,89.0,0,94,4.0,100.0
6963,91.0,0,160,4.0,100.0
6964,94.0,96,160,4.0,100.0
6965,67.0,0,160,7.0,100.0
6966,87.0,0,160,4.0,100.0
6967,91.0,0,160,4.0,100.0
6968,63.0,192,160,7.0,100.0
6969,62.0,192,160,7.0,127.0
6970,65.0,0,160,7.0,127.0
6971,67.0,0,94,7.0,100.0
6972,63.0,192,94,7.0,100.0
6973,65.0,96,94,7.0,100.0
6974,68.0,0,94,7.0,100.0
6975,67.0,0,48,7.0,100.0
6976,70.0,96,48,7.0,100.0
6977,82.0,0,160,4.0,100.0
6978,79.0,0,160,4.0,100.0
6979,87.0,0,160,4.0,100.0
6980,51.0,0,160,7.0,127.0
6981,39.0,0,160,7.0,127.0
6982,51.0,0,160,6.0,100.0
6983,39.0,192,160,6.0,100.0
6984,91.0,0,160,4.0,100.0
6985,86.0,192,160,4.0,100.0
6986,89.0,0,160,4.0,100.0
6987,91.0,192,94,4.0,100.0
6988,87.0,0,94,4.0,100.0
6989,89.0,96,94,4.0,100.0
6990,92.0,0,94,4.0,100.0
6991,94.0,0,48,4.0,100.0
6992,91.0,96,48,4.0,100.0
6993,70.0,0,160,4.0,100.0
6994,72.0,0,160,4.0,100.0
6995,79.0,0,160,4.0,100.0
6996,82.0,0,160,4.0,100.0
6997,40.0,192,160,6.0,100.0
6998,52.0,0,160,6.0,100.0
6999,52.0,0,160,7.0,127.0
7000,40.0,0,160,7.0,127.0
7001,36.0,0,160,7.0,127.0
7002,48.0,0,160,7.0,127.0
7003,82.0,0,160,4.0,100.0
7004,48.0,0,160,6.0,100.0
7005,70.0,0,160,4.0,100.0
7006,76.0,0,160,4.0,100.0
7007,79.0,0,160,4.0,100.0
7008,36.0,384,160,6.0,100.0
7009,70.0,0,160,4.0,100.0
7010,74.0,384,160,4.0,100.0
7011,77.0,0,160,4.0,100.0
7012,82.0,0,160,4.0,100.0
7013,53.0,0,160,7.0,127.0
7014,41.0,0,160,7.0,127.0
7015,41.0,0,160,6.0,100.0
7016,53.0,0,160,6.0,100.0
7017,76.0,0,160,4.0,100.0
7018,55.0,0,160,7.0,127.0
7019,82.0,0,160,4.0,100.0
7020,43.0,384,160,6.0,100.0
7021,72.0,0,160,4.0,100.0
7022,70.0,0,160,4.0,100.0
7023,43.0,0,160,7.0,127.0
7024,55.0,0,160,6.0,100.0
7025,41.0,192,96,7.0,127.0
7026,45.0,96,96,7.0,100.0
7027,46.0,96,96,7.0,100.0
7028,77.0,0,384,4.0,127.0
7029,74.0,0,384,4.0,127.0
7030,70.0,0,384,4.0,127.0
7031,82.0,0,384,4.0,127.0
7032,50.0,96,96,7.0,100.0
7033,53.0,0,96,7.0,100.0
7034,57.0,96,96,7.0,100.0
7035,58.0,96,96,7.0,100.0
7036,62.0,96,96,7.0,100.0
7037,65.0,96,96,7.0,100.0
7038,69.0,96,96,7.0,100.0
7039,74.0,0,0,4.0,100.0
7040,77.0,96,576,4.0,127.0
7041,70.0,96,96,7.0,100.0
7042,74.0,96,96,7.0,100.0
7043,77.0,96,96,4.0,100.0
7044,81.0,96,96,4.0,100.0
7045,82.0,96,96,4.0,100.0
7046,70.0,0,96,7.0,100.0
7047,74.0,96,96,7.0,100.0
7048,86.0,0,96,4.0,100.0
7049,88.0,0,96,4.0,100.0
7050,76.0,96,96,7.0,100.0
7051,77.0,0,96,7.0,100.0
7052,89.0,96,96,4.0,100.0
7053,91.0,96,96,4.0,100.0
7054,79.0,0,96,7.0,100.0
7055,77.0,0,96,7.0,100.0
7056,89.0,96,96,4.0,100.0
7057,81.0,96,96,7.0,100.0
7058,93.0,0,96,4.0,100.0
7059,94.0,0,96,4.0,100.0
7060,82.0,96,96,7.0,100.0
7061,84.0,0,96,7.0,100.0
7062,96.0,96,96,4.0,100.0
7063,94.0,96,96,4.0,100.0
7064,82.0,0,96,7.0,100.0
7065,97.0,96,96,4.0,100.0
7066,85.0,0,96,7.0,100.0
7067,98.0,96,96,4.0,100.0
7068,86.0,0,96,7.0,100.0
7069,87.0,96,96,7.0,100.0
7070,99.0,0,96,4.0,100.0
7071,98.0,96,96,4.0,100.0
7072,86.0,0,96,7.0,100.0
7073,89.0,0,160,7.0,100.0
7074,101.0,96,192,4.0,100.0
7075,65.0,0,64,7.0,100.0
7076,67.0,64,64,7.0,100.0
7077,69.0,64,62,7.0,100.0
7078,72.0,192,192,4.0,100.0
7079,75.0,0,192,4.0,100.0
7080,58.0,0,128,7.0,127.0
7081,70.0,128,128,7.0,100.0
7082,69.0,128,128,7.0,100.0
7083,70.0,0,128,7.0,127.0
7084,69.0,128,128,7.0,100.0
7085,74.0,64,720,5.0,100.0
7086,86.0,128,384,4.0,100.0
7087,70.0,128,128,7.0,100.0
7088,66.0,0,128,7.0,127.0
7089,70.0,128,128,7.0,100.0
7090,75.0,0,336,5.0,100.0
7091,66.0,128,128,7.0,100.0
7092,87.0,128,384,4.0,100.0
7093,70.0,128,128,7.0,127.0
7094,63.0,128,128,7.0,100.0
7095,78.0,0,336,5.0,100.0
7096,70.0,128,126,7.0,100.0
7097,90.0,0,384,4.0,100.0
7098,62.0,0,126,7.0,127.0
7099,70.0,128,126,7.0,100.0
7100,65.0,128,126,7.0,100.0
7101,58.0,0,126,7.0,127.0
7102,70.0,128,126,7.0,100.0
7103,74.0,128,336,5.0,100.0
7104,77.0,0,336,5.0,100.0
7105,65.0,128,126,7.0,100.0
7106,63.0,128,126,7.0,127.0
7107,82.0,128,960,4.0,100.0
7108,70.0,128,126,7.0,100.0
7109,78.0,0,336,5.0,100.0
7110,63.0,64,126,7.0,100.0
7111,90.0,64,192,4.0,100.0
7112,66.0,0,126,7.0,127.0
7113,70.0,128,126,7.0,100.0
7114,75.0,0,336,5.0,100.0
7115,66.0,128,126,7.0,100.0
7116,87.0,128,384,4.0,100.0
7117,65.0,128,126,7.0,127.0
7118,70.0,128,126,7.0,100.0
7119,65.0,128,126,7.0,100.0
7120,85.0,0,384,4.0,100.0
7121,73.0,0,384,4.0,100.0
7122,71.0,0,126,7.0,127.0
7123,65.0,128,126,7.0,100.0
7124,71.0,128,126,7.0,100.0
7125,86.0,0,384,4.0,100.0
7126,74.0,128,384,4.0,100.0
7127,65.0,0,126,7.0,127.0
7128,72.0,128,126,7.0,100.0
7129,69.0,128,126,7.0,100.0
7130,89.0,0,384,4.0,100.0
7131,77.0,128,384,4.0,100.0
7132,53.0,128,126,7.0,127.0
7133,60.0,128,126,7.0,100.0
7134,87.0,0,288,4.0,100.0
7135,75.0,0,288,4.0,100.0
7136,57.0,128,126,7.0,100.0
7137,72.0,32,96,4.0,100.0
7138,84.0,0,96,4.0,100.0
7139,82.0,0,46,5.0,100.0
7140,84.0,48,46,5.0,100.0
7141,46.0,0,96,7.0,127.0
7142,82.0,48,46,5.0,100.0
7143,84.0,48,46,5.0,100.0
7144,58.0,0,96,7.0,100.0
7145,82.0,0,46,5.0,100.0
7146,84.0,48,46,5.0,100.0
7147,62.0,48,96,7.0,100.0
7148,82.0,48,46,5.0,100.0
7149,84.0,48,46,5.0,100.0
7150,58.0,0,96,7.0,100.0
7151,82.0,48,46,5.0,100.0
7152,84.0,48,46,5.0,100.0
7153,53.0,0,96,7.0,127.0
7154,82.0,48,46,5.0,100.0
7155,84.0,48,46,5.0,100.0
7156,58.0,0,96,7.0,100.0
7157,82.0,0,46,5.0,100.0
7158,84.0,48,46,5.0,100.0
7159,68.0,48,96,7.0,100.0
7160,82.0,48,46,5.0,100.0
7161,86.0,0,720,4.0,100.0
7162,74.0,96,720,4.0,100.0
7163,84.0,48,46,5.0,100.0
7164,58.0,0,96,7.0,100.0
7165,82.0,0,46,5.0,100.0
7166,84.0,48,46,5.0,100.0
7167,55.0,0,96,7.0,127.0
7168,82.0,48,46,5.0,100.0
7169,84.0,48,46,5.0,100.0
7170,58.0,0,96,7.0,100.0
7171,82.0,48,46,5.0,100.0
7172,84.0,48,46,5.0,100.0
7173,70.0,0,96,7.0,100.0
7174,82.0,0,46,5.0,100.0
7175,87.0,0,336,4.0,100.0
7176,75.0,48,336,4.0,100.0
7177,84.0,48,46,5.0,100.0
7178,58.0,48,96,7.0,100.0
7179,82.0,0,46,5.0,100.0
7180,84.0,48,46,5.0,100.0
7181,51.0,48,96,7.0,127.0
7182,82.0,48,46,5.0,100.0
7183,84.0,48,46,5.0,100.0
7184,58.0,0,96,7.0,100.0
7185,82.0,0,46,5.0,100.0
7186,84.0,48,46,5.0,100.0
7187,67.0,48,96,7.0,100.0
7188,82.0,0,46,5.0,100.0
7189,79.0,0,336,4.0,100.0
7190,91.0,0,336,4.0,100.0
7191,58.0,48,94,7.0,100.0
7192,84.0,48,46,5.0,100.0
7193,82.0,48,46,5.0,100.0
7194,84.0,48,46,5.0,100.0
7195,50.0,0,94,7.0,127.0
7196,82.0,48,46,5.0,100.0
7197,58.0,0,94,7.0,100.0
7198,84.0,48,46,5.0,100.0
7199,82.0,0,46,5.0,100.0
7200,84.0,48,46,5.0,100.0
7201,65.0,48,94,7.0,100.0
7202,82.0,48,46,5.0,100.0
7203,84.0,48,46,5.0,100.0
7204,58.0,0,94,7.0,100.0
7205,82.0,48,46,5.0,100.0
7206,84.0,48,46,5.0,100.0
7207,46.0,0,94,7.0,127.0
7208,82.0,0,46,5.0,100.0
7209,58.0,48,94,7.0,100.0
7210,84.0,48,46,5.0,100.0
7211,82.0,48,46,5.0,100.0
7212,84.0,48,46,5.0,100.0
7213,62.0,0,94,7.0,100.0
7214,82.0,48,46,5.0,100.0
7215,94.0,0,720,4.0,100.0
7216,82.0,0,720,4.0,100.0
7217,58.0,0,94,7.0,100.0
7218,84.0,48,46,5.0,100.0
7219,82.0,48,46,5.0,100.0
7220,51.0,0,94,7.0,127.0
7221,84.0,48,46,5.0,100.0
7222,82.0,0,46,5.0,100.0
7223,84.0,48,46,5.0,100.0
7224,58.0,48,94,7.0,100.0
7225,82.0,48,46,5.0,100.0
7226,84.0,48,46,5.0,100.0
7227,67.0,0,94,7.0,100.0
7228,82.0,48,46,5.0,100.0
7229,79.0,0,336,4.0,100.0
7230,91.0,0,336,4.0,100.0
7231,84.0,48,46,5.0,100.0
7232,58.0,0,94,7.0,100.0
7233,82.0,48,46,5.0,100.0
7234,84.0,48,46,5.0,100.0
7235,55.0,0,94,7.0,127.0
7236,82.0,48,46,5.0,100.0
7237,84.0,48,46,5.0,100.0
7238,58.0,0,94,7.0,100.0
7239,82.0,48,46,5.0,100.0
7240,70.0,0,94,7.0,100.0
7241,84.0,48,46,5.0,100.0
7242,82.0,48,46,5.0,100.0
7243,75.0,0,336,4.0,100.0
7244,87.0,0,336,4.0,100.0
7245,84.0,48,46,5.0,100.0
7246,58.0,0,94,7.0,100.0
7247,82.0,48,46,5.0,100.0
7248,84.0,48,46,5.0,100.0
7249,53.0,0,94,7.0,127.0
7250,82.0,48,46,5.0,100.0
7251,58.0,0,94,7.0,127.0
7252,84.0,48,46,5.0,100.0
7253,73.0,0,192,4.0,100.0
7254,85.0,0,192,4.0,100.0
7255,82.0,0,46,5.0,100.0
7256,57.0,48,94,7.0,127.0
7257,84.0,48,46,5.0,100.0
7258,82.0,48,46,5.0,100.0
7259,58.0,0,94,7.0,127.0
7260,84.0,48,46,5.0,100.0
7261,82.0,0,46,5.0,100.0
7262,53.0,48,94,7.0,127.0
7263,84.0,48,46,5.0,100.0
7264,82.0,48,46,5.0,100.0
7265,84.0,48,46,5.0,100.0
7266,50.0,0,94,7.0,127.0
7267,86.0,0,384,4.0,100.0
7268,74.0,0,384,4.0,100.0
7269,82.0,48,46,5.0,100.0
7270,84.0,48,46,5.0,100.0
7271,48.0,0,94,7.0,127.0
7272,82.0,48,46,5.0,100.0
7273,84.0,48,46,5.0,100.0
7274,46.0,0,94,7.0,127.0
7275,89.0,0,0,4.0,100.0
7276,77.0,0,192,4.0,100.0
7277,82.0,48,46,5.0,100.0
7278,81.0,48,46,5.0,100.0
7279,41.0,0,94,7.0,127.0
7280,82.0,48,46,5.0,100.0
7281,81.0,48,46,5.0,100.0
7282,43.0,0,94,7.0,127.0
7283,82.0,0,46,5.0,100.0
7284,81.0,48,46,5.0,100.0
7285,45.0,48,94,7.0,127.0
7286,82.0,48,46,5.0,100.0
7287,46.0,0,94,7.0,127.0
7288,81.0,48,46,5.0,100.0
7289,82.0,48,46,5.0,100.0
7290,81.0,48,46,5.0,100.0
7291,48.0,0,94,7.0,127.0
7292,82.0,0,46,5.0,100.0
7293,81.0,48,46,5.0,100.0
7294,50.0,0,94,7.0,127.0
7295,87.0,48,96,4.0,100.0
7296,82.0,0,46,5.0,100.0
7297,51.0,48,94,7.0,127.0
7298,81.0,48,46,5.0,100.0
7299,84.0,0,96,4.0,100.0
7300,82.0,0,46,5.0,100.0
7301,81.0,48,46,5.0,100.0
7302,53.0,48,94,7.0,127.0
7303,89.0,0,0,4.0,127.0
7304,34.0,0,94,7.0,127.0
7305,86.0,0,160,4.0,127.0
7306,77.0,0,160,4.0,127.0
7307,80.0,48,160,4.0,127.0
7308,46.0,96,94,7.0,100.0
7309,34.0,0,94,7.0,127.0
7310,46.0,96,94,7.0,100.0
7311,34.0,96,94,7.0,127.0
7312,101.0,0,336,4.0,127.0
7313,92.0,0,336,4.0,127.0
7314,98.0,0,336,4.0,127.0
7315,89.0,96,336,4.0,127.0
7316,46.0,96,94,7.0,100.0
7317,34.0,96,94,7.0,127.0
7318,89.0,0,160,4.0,100.0
7319,92.0,0,160,4.0,100.0
7320,99.0,0,160,4.0,100.0
7321,87.0,0,160,4.0,100.0
7322,46.0,96,94,7.0,100.0
7323,34.0,96,94,7.0,127.0
7324,92.0,0,160,4.0,100.0
7325,89.0,0,160,4.0,100.0
7326,86.0,0,160,4.0,100.0
7327,98.0,0,160,4.0,100.0
7328,46.0,96,94,7.0,100.0
7329,34.0,96,94,7.0,127.0
7330,89.0,0,160,4.0,100.0
7331,99.0,0,160,4.0,100.0
7332,92.0,0,160,4.0,100.0
7333,87.0,0,160,4.0,100.0
7334,46.0,96,94,7.0,100.0
7335,34.0,0,94,7.0,127.0
7336,101.0,0,160,4.0,100.0
7337,92.0,0,160,4.0,100.0
7338,89.0,96,160,4.0,100.0
7339,46.0,96,94,7.0,100.0
7340,35.0,0,94,7.0,127.0
7341,98.0,0,160,4.0,100.0
7342,91.0,0,160,4.0,100.0
7343,89.0,96,160,4.0,100.0
7344,86.0,0,160,4.0,100.0
7345,47.0,96,94,7.0,100.0
7346,87.0,96,48,4.0,100.0
7347,91.0,0,48,4.0,100.0
7348,99.0,0,48,4.0,100.0
7349,36.0,0,94,7.0,127.0
7350,48.0,96,94,7.0,100.0
7351,91.0,0,48,4.0,100.0
7352,98.0,0,48,4.0,100.0
7353,86.0,0,48,4.0,100.0
7354,89.0,0,48,4.0,100.0
7355,35.0,96,94,7.0,127.0
7356,47.0,96,94,7.0,100.0
7357,87.0,0,48,4.0,100.0
7358,91.0,0,48,4.0,100.0
7359,99.0,0,48,4.0,100.0
7360,36.0,96,94,7.0,127.0
7361,48.0,96,94,7.0,100.0
7362,84.0,0,48,4.0,100.0
7363,91.0,0,48,4.0,100.0
7364,96.0,0,48,4.0,100.0
7365,39.0,96,94,7.0,127.0
7366,51.0,96,94,7.0,100.0
7367,94.0,0,48,4.0,100.0
7368,91.0,0,48,4.0,100.0
7369,84.0,96,48,4.0,100.0
7370,40.0,0,94,7.0,127.0
7371,52.0,96,94,7.0,100.0
7372,84.0,0,48,4.0,100.0
7373,94.0,0,48,4.0,100.0
7374,88.0,96,48,4.0,100.0
7375,43.0,0,94,7.0,127.0
7376,55.0,96,94,7.0,100.0
7377,84.0,0,48,4.0,100.0
7378,87.0,0,48,4.0,100.0
7379,93.0,0,48,4.0,100.0
7380,41.0,96,94,7.0,127.0
7381,53.0,96,94,7.0,100.0
7382,84.0,96,48,4.0,100.0
7383,87.0,0,48,4.0,100.0
7384,96.0,0,48,4.0,100.0
7385,41.0,0,94,7.0,127.0
7386,53.0,96,94,7.0,100.0
7387,94.0,96,48,4.0,100.0
7388,86.0,0,48,4.0,100.0
7389,82.0,0,48,4.0,100.0
7390,41.0,0,94,7.0,127.0
7391,53.0,96,94,7.0,100.0
7392,89.0,0,48,4.0,100.0
7393,86.0,0,48,4.0,100.0
7394,77.0,96,48,4.0,100.0
7395,46.0,0,94,7.0,127.0
7396,58.0,96,94,7.0,100.0
7397,87.0,0,48,4.0,100.0
7398,81.0,0,48,4.0,100.0
7399,89.0,0,48,4.0,100.0
7400,93.0,96,48,4.0,100.0
7401,41.0,0,94,7.0,127.0
7402,53.0,96,94,7.0,100.0
7403,89.0,0,48,4.0,100.0
7404,96.0,0,48,4.0,100.0
7405,84.0,96,48,4.0,100.0
7406,87.0,0,48,4.0,100.0
7407,53.0,0,94,7.0,127.0
7408,65.0,96,94,7.0,100.0
7409,89.0,0,48,4.0,100.0
7410,94.0,0,48,4.0,100.0
7411,86.0,0,48,4.0,100.0
7412,82.0,96,48,4.0,100.0
7413,41.0,0,94,7.0,127.0
7414,53.0,96,94,7.0,100.0
7415,77.0,0,48,4.0,100.0
7416,89.0,0,48,4.0,100.0
7417,86.0,0,48,4.0,100.0
7418,46.0,96,94,7.0,127.0
7419,58.0,96,94,7.0,100.0
7420,93.0,0,48,4.0,100.0
7421,87.0,0,48,4.0,100.0
7422,89.0,0,48,4.0,100.0
7423,81.0,0,48,4.0,100.0
7424,41.0,96,94,7.0,127.0
7425,53.0,96,94,7.0,100.0
7426,89.0,0,48,4.0,100.0
7427,96.0,0,48,4.0,100.0
7428,87.0,0,48,4.0,100.0
7429,84.0,0,48,4.0,100.0
7430,53.0,96,94,7.0,127.0
7431,65.0,96,94,7.0,100.0
7432,46.0,96,94,7.0,127.0
7433,82.0,0,94,4.0,127.0
7434,58.0,0,94,7.0,100.0
7435,94.0,96,94,4.0,100.0
7436,41.0,0,94,7.0,127.0
7437,77.0,96,94,4.0,100.0
7438,89.0,96,94,4.0,100.0
7439,53.0,0,94,7.0,100.0
7440,81.0,96,94,4.0,127.0
7441,45.0,0,94,7.0,127.0
7442,57.0,96,94,7.0,100.0
7443,93.0,0,94,4.0,100.0
7444,48.0,0,94,7.0,127.0
7445,84.0,96,94,4.0,100.0
7446,96.0,0,94,4.0,100.0
7447,60.0,96,94,7.0,100.0
7448,46.0,96,94,7.0,127.0
7449,82.0,0,94,4.0,127.0
7450,94.0,0,94,4.0,100.0
7451,58.0,96,94,7.0,100.0
7452,41.0,96,94,7.0,127.0
7453,77.0,0,94,4.0,100.0
7454,53.0,96,94,7.0,100.0
7455,89.0,0,94,4.0,100.0
7456,69.0,0,94,4.0,127.0
7457,33.0,96,94,7.0,127.0
7458,45.0,0,94,7.0,100.0
7459,81.0,96,94,4.0,100.0
7460,72.0,96,94,4.0,100.0
7461,36.0,0,94,7.0,127.0
7462,48.0,0,94,7.0,100.0
7463,84.0,96,94,4.0,100.0
7464,70.0,96,94,4.0,127.0
7465,34.0,0,94,7.0,127.0
7466,46.0,0,94,7.0,100.0
7467,82.0,96,94,4.0,100.0
7468,29.0,96,94,7.0,127.0
7469,65.0,0,94,4.0,100.0
7470,77.0,96,94,4.0,100.0
7471,41.0,0,94,7.0,100.0
7472,35.0,0,94,7.0,127.0
7473,71.0,96,94,4.0,127.0
7474,83.0,0,94,4.0,100.0
7475,47.0,96,94,7.0,100.0
7476,38.0,96,94,7.0,127.0
7477,74.0,0,94,4.0,100.0
7478,86.0,0,94,4.0,100.0
7479,50.0,96,94,7.0,100.0
7480,36.0,0,94,7.0,127.0
7481,72.0,96,94,4.0,127.0
7482,84.0,96,94,4.0,100.0
7483,48.0,0,94,7.0,100.0
7484,67.0,0,94,4.0,100.0
7485,31.0,96,94,7.0,127.0
7486,43.0,96,94,7.0,100.0
7487,79.0,0,94,4.0,100.0
7488,35.0,96,94,7.0,127.0
7489,71.0,0,94,4.0,127.0
7490,47.0,96,94,7.0,100.0
7491,83.0,0,94,4.0,100.0
7492,38.0,96,94,7.0,127.0
7493,74.0,0,94,4.0,100.0
7494,86.0,0,94,4.0,100.0
7495,50.0,96,94,7.0,100.0
7496,72.0,96,94,4.0,127.0
7497,36.0,0,94,7.0,127.0
7498,84.0,96,94,4.0,100.0
7499,48.0,0,94,7.0,100.0
7500,67.0,96,94,4.0,100.0
7501,31.0,0,94,7.0,127.0
7502,79.0,96,94,4.0,100.0
7503,43.0,0,94,7.0,100.0
7504,72.0,96,94,4.0,127.0
7505,36.0,0,94,7.0,127.0
7506,48.0,0,94,7.0,100.0
7507,84.0,96,94,4.0,100.0
7508,75.0,96,94,4.0,100.0
7509,39.0,0,94,7.0,127.0
7510,51.0,96,94,7.0,100.0
7511,87.0,0,94,4.0,100.0
7512,74.0,0,94,4.0,127.0
7513,38.0,96,94,7.0,127.0
7514,86.0,0,94,4.0,100.0
7515,50.0,96,94,7.0,100.0
7516,69.0,0,94,4.0,100.0
7517,33.0,96,94,7.0,127.0
7518,45.0,96,94,7.0,100.0
7519,81.0,0,94,4.0,100.0
7520,37.0,96,94,7.0,127.0
7521,73.0,0,94,4.0,127.0
7522,85.0,96,94,4.0,100.0
7523,49.0,0,94,7.0,100.0
7524,76.0,96,94,4.0,127.0
7525,40.0,0,94,7.0,127.0
7526,88.0,96,94,4.0,100.0
7527,52.0,0,94,7.0,100.0
7528,38.0,96,94,7.0,127.0
7529,74.0,0,94,4.0,127.0
7530,50.0,96,94,7.0,100.0
7531,86.0,0,94,4.0,100.0
7532,33.0,96,94,7.0,127.0
7533,69.0,0,94,4.0,100.0
7534,45.0,96,94,7.0,100.0
7535,81.0,0,94,4.0,100.0
7536,38.0,96,94,7.0,127.0
7537,74.0,0,94,4.0,127.0
7538,50.0,0,94,7.0,100.0
7539,86.0,96,94,4.0,100.0
7540,41.0,0,94,7.0,127.0
7541,77.0,96,94,4.0,100.0
7542,89.0,96,94,4.0,100.0
7543,53.0,0,94,7.0,100.0
7544,39.0,0,94,7.0,127.0
7545,75.0,96,94,4.0,127.0
7546,87.0,0,94,4.0,100.0
7547,51.0,96,94,7.0,100.0
7548,34.0,96,94,7.0,127.0
7549,70.0,0,94,4.0,100.0
7550,46.0,0,94,7.0,100.0
7551,82.0,96,94,4.0,100.0
7552,38.0,96,94,7.0,127.0
7553,74.0,0,94,4.0,127.0
7554,50.0,0,94,7.0,100.0
7555,86.0,96,94,4.0,100.0
7556,41.0,96,94,7.0,127.0
7557,77.0,0,94,4.0,100.0
7558,53.0,96,94,7.0,100.0
7559,89.0,0,94,4.0,100.0
7560,39.0,96,94,7.0,127.0
7561,75.0,0,94,4.0,127.0
7562,87.0,96,94,4.0,100.0
7563,51.0,0,94,7.0,100.0
7564,70.0,0,94,4.0,100.0
7565,34.0,96,94,7.0,127.0
7566,82.0,96,94,4.0,100.0
7567,46.0,0,94,7.0,100.0
7568,75.0,0,94,4.0,127.0
7569,39.0,96,94,7.0,127.0
7570,87.0,96,94,4.0,100.0
7571,51.0,0,94,7.0,100.0
7572,42.0,96,94,7.0,127.0
7573,78.0,0,94,4.0,100.0
7574,90.0,96,94,4.0,100.0
7575,54.0,0,94,7.0,100.0
7576,77.0,96,94,4.0,127.0
7577,41.0,0,94,7.0,127.0
7578,89.0,0,94,4.0,100.0
7579,53.0,96,94,7.0,100.0
7580,72.0,96,94,4.0,100.0
7581,36.0,0,94,7.0,127.0
7582,84.0,96,94,4.0,100.0
7583,48.0,0,94,7.0,100.0
7584,75.0,96,94,4.0,127.0
7585,39.0,0,94,7.0,127.0
7586,87.0,96,94,4.0,100.0
7587,51.0,0,94,7.0,100.0
7588,42.0,0,94,7.0,127.0
7589,78.0,96,94,4.0,100.0
7590,54.0,0,94,7.0,100.0
7591,90.0,96,94,4.0,100.0
7592,37.0,96,94,7.0,127.0
7593,73.0,0,94,4.0,127.0
7594,85.0,96,94,4.0,100.0
7595,49.0,0,94,7.0,100.0
7596,69.0,96,94,4.0,100.0
7597,33.0,0,94,7.0,127.0
7598,45.0,96,94,7.0,100.0
7599,81.0,0,94,4.0,100.0
7600,72.0,96,94,4.0,127.0
7601,36.0,0,94,7.0,127.0
7602,84.0,96,94,4.0,100.0
7603,48.0,0,94,7.0,100.0
7604,75.0,96,94,4.0,100.0
7605,39.0,0,94,7.0,127.0
7606,51.0,0,94,7.0,100.0
7607,87.0,96,94,4.0,100.0
7608,66.0,96,94,4.0,127.0
7609,30.0,0,94,7.0,127.0
7610,42.0,96,94,7.0,100.0
7611,78.0,0,94,4.0,100.0
7612,29.0,96,94,7.0,127.0
7613,65.0,0,94,4.0,100.0
7614,41.0,96,94,7.0,100.0
7615,77.0,0,94,4.0,100.0
7616,33.0,0,94,7.0,127.0
7617,69.0,96,94,4.0,127.0
7618,81.0,0,94,4.0,100.0
7619,45.0,96,94,7.0,100.0
7620,75.0,0,94,4.0,100.0
7621,39.0,96,94,7.0,127.0
7622,87.0,96,70,4.0,100.0
7623,51.0,0,70,7.0,100.0
7624,71.0,0,94,5.0,75.0
7625,70.0,96,94,5.0,75.0
7626,71.0,96,94,5.0,75.0
7627,70.0,96,94,5.0,75.0
7628,34.0,0,384,7.0,127.0
7629,46.0,0,384,7.0,127.0
7630,71.0,96,94,5.0,75.0
7631,70.0,96,94,5.0,75.0
7632,71.0,96,94,5.0,75.0
7633,70.0,96,94,5.0,75.0
7634,56.0,0,384,7.0,100.0
7635,74.0,96,768,4.0,127.0
7636,44.0,0,384,7.0,100.0
7637,71.0,0,94,5.0,75.0
7638,70.0,96,94,5.0,75.0
7639,71.0,96,94,5.0,75.0
7640,70.0,96,94,5.0,75.0
7641,54.0,0,384,7.0,100.0
7642,42.0,96,384,7.0,100.0
7643,75.0,0,384,4.0,127.0
7644,71.0,0,94,5.0,75.0
7645,70.0,96,94,5.0,75.0
7646,71.0,96,94,5.0,75.0
7647,70.0,96,94,5.0,75.0
7648,78.0,0,384,4.0,127.0
7649,39.0,96,384,7.0,100.0
7650,51.0,0,384,7.0,100.0
7651,71.0,96,94,5.0,75.0
7652,70.0,96,94,5.0,75.0
7653,71.0,96,94,5.0,75.0
7654,70.0,96,94,5.0,75.0
7655,50.0,0,384,7.0,127.0
7656,38.0,0,384,7.0,127.0
7657,71.0,0,94,5.0,75.0
7658,70.0,96,94,5.0,75.0
7659,71.0,96,94,5.0,75.0
7660,70.0,96,94,5.0,75.0
7661,82.0,0,768,4.0,127.0
7662,34.0,96,384,7.0,100.0
7663,46.0,0,384,7.0,100.0
7664,71.0,0,94,5.0,75.0
7665,70.0,96,94,5.0,75.0
7666,71.0,96,94,5.0,75.0
7667,39.0,96,336,7.0,100.0
7668,51.0,0,336,7.0,100.0
7669,70.0,96,94,5.0,75.0
7670,78.0,0,384,4.0,127.0
7671,71.0,0,94,5.0,75.0
7672,70.0,96,94,5.0,75.0
7673,58.0,0,192,7.0,100.0
7674,54.0,0,192,7.0,100.0
7675,60.0,0,46,6.0,75.0
7676,72.0,0,46,5.0,75.0
7677,70.0,0,46,5.0,75.0
7678,58.0,48,46,6.0,75.0
7679,60.0,0,46,6.0,75.0
7680,72.0,48,46,5.0,75.0
7681,75.0,96,336,4.0,127.0
7682,70.0,48,46,5.0,75.0
7683,58.0,0,46,6.0,75.0
7684,55.0,96,192,7.0,100.0
7685,72.0,48,46,5.0,75.0
7686,60.0,0,46,6.0,75.0
7687,58.0,48,46,6.0,75.0
7688,70.0,0,46,5.0,75.0
7689,60.0,48,46,6.0,75.0
7690,72.0,0,46,5.0,75.0
7691,70.0,48,46,5.0,75.0
7692,58.0,0,46,6.0,75.0
7693,53.0,0,192,7.0,127.0
7694,60.0,48,46,6.0,75.0
7695,72.0,0,46,5.0,75.0
7696,58.0,0,46,6.0,75.0
7697,70.0,48,46,5.0,75.0
7698,60.0,48,46,6.0,75.0
7699,72.0,0,46,5.0,75.0
7700,70.0,48,46,5.0,75.0
7701,58.0,0,46,6.0,75.0
7702,55.0,0,192,7.0,100.0
7703,60.0,48,46,6.0,75.0
7704,72.0,0,46,5.0,75.0
7705,58.0,0,46,6.0,75.0
7706,70.0,48,46,5.0,75.0
7707,60.0,48,46,6.0,75.0
7708,72.0,0,46,5.0,75.0
7709,58.0,48,46,6.0,75.0
7710,70.0,0,46,5.0,75.0
7711,56.0,0,192,7.0,100.0
7712,72.0,48,46,5.0,75.0
7713,60.0,0,46,6.0,75.0
7714,70.0,0,46,5.0,75.0
7715,58.0,48,46,6.0,75.0
7716,60.0,48,46,6.0,75.0
7717,72.0,0,46,5.0,75.0
7718,58.0,48,46,6.0,75.0
7719,70.0,0,46,5.0,75.0
7720,53.0,0,192,7.0,100.0
7721,74.0,0,768,4.0,127.0
7722,72.0,48,46,5.0,75.0
7723,60.0,0,46,6.0,75.0
7724,70.0,48,46,5.0,75.0
7725,58.0,0,46,6.0,75.0
7726,60.0,0,46,6.0,75.0
7727,72.0,48,46,5.0,75.0
7728,70.0,0,46,5.0,75.0
7729,58.0,48,46,6.0,75.0
7730,55.0,0,192,7.0,127.0
7731,60.0,0,46,6.0,75.0
7732,72.0,0,46,5.0,75.0
7733,70.0,0,46,5.0,75.0
7734,58.0,48,46,6.0,75.0
7735,60.0,0,46,6.0,75.0
7736,72.0,48,46,5.0,75.0
7737,70.0,48,46,5.0,75.0
7738,58.0,0,46,6.0,75.0
7739,56.0,48,192,7.0,100.0
7740,60.0,0,46,6.0,75.0
7741,72.0,0,46,5.0,75.0
7742,58.0,48,46,6.0,75.0
7743,70.0,0,46,5.0,75.0
7744,60.0,48,46,6.0,75.0
7745,72.0,0,46,5.0,75.0
7746,70.0,48,46,5.0,75.0
7747,58.0,0,46,6.0,75.0
7748,55.0,48,192,7.0,100.0
7749,75.0,0,576,4.0,127.0
7750,72.0,0,46,5.0,75.0
7751,60.0,0,46,6.0,75.0
7752,70.0,48,46,5.0,75.0
7753,58.0,0,46,6.0,75.0
7754,72.0,0,46,5.0,75.0
7755,60.0,48,46,6.0,75.0
7756,58.0,0,46,6.0,75.0
7757,70.0,48,46,5.0,75.0
7758,51.0,0,192,7.0,100.0
7759,79.0,48,192,4.0,127.0
7760,72.0,0,46,5.0,75.0
7761,60.0,48,46,6.0,75.0
7762,58.0,0,46,6.0,75.0
7763,70.0,48,46,5.0,75.0
7764,72.0,0,46,5.0,75.0
7765,60.0,48,46,6.0,75.0
7766,70.0,0,46,5.0,75.0
7767,58.0,48,46,6.0,75.0
7768,50.0,0,192,7.0,127.0
7769,72.0,48,46,5.0,75.0
7770,60.0,0,46,6.0,75.0
7771,70.0,48,46,5.0,75.0
7772,58.0,0,46,6.0,75.0
7773,72.0,48,46,5.0,75.0
7774,60.0,0,46,6.0,75.0
7775,58.0,48,46,6.0,75.0
7776,70.0,0,46,5.0,75.0
7777,51.0,0,192,7.0,100.0
7778,72.0,0,46,5.0,75.0
7779,60.0,0,46,6.0,75.0
7780,58.0,48,46,6.0,75.0
7781,70.0,0,46,5.0,75.0
7782,60.0,48,46,6.0,75.0
7783,72.0,0,46,5.0,75.0
7784,70.0,0,46,5.0,75.0
7785,58.0,48,46,6.0,75.0
7786,53.0,48,192,7.0,100.0
7787,82.0,0,576,4.0,127.0
7788,60.0,0,46,6.0,75.0
7789,72.0,48,46,5.0,75.0
7790,70.0,0,46,5.0,75.0
7791,58.0,48,46,6.0,75.0
7792,60.0,0,46,6.0,75.0
7793,72.0,48,46,5.0,75.0
7794,70.0,0,46,5.0,75.0
7795,58.0,48,46,6.0,75.0
7796,80.0,0,192,4.0,127.0
7797,50.0,0,192,7.0,100.0
7798,60.0,0,46,6.0,75.0
7799,72.0,0,46,5.0,75.0
7800,58.0,0,46,6.0,75.0
7801,70.0,48,46,5.0,75.0
7802,72.0,48,46,5.0,75.0
7803,60.0,0,46,6.0,75.0
7804,70.0,0,46,5.0,75.0
7805,58.0,48,46,6.0,75.0
7806,79.0,48,192,4.0,127.0
7807,51.0,0,192,7.0,127.0
7808,60.0,0,46,6.0,75.0
7809,72.0,48,46,5.0,75.0
7810,70.0,0,46,5.0,75.0
7811,58.0,48,46,6.0,75.0
7812,72.0,48,46,5.0,75.0
7813,60.0,0,46,6.0,75.0
7814,58.0,48,46,6.0,75.0
7815,70.0,0,46,5.0,75.0
7816,77.0,0,192,4.0,127.0
7817,53.0,0,192,7.0,100.0
7818,72.0,48,46,5.0,75.0
7819,60.0,0,46,6.0,75.0
7820,70.0,48,46,5.0,75.0
7821,58.0,0,46,6.0,75.0
7822,60.0,0,46,6.0,75.0
7823,72.0,48,46,5.0,75.0
7824,70.0,48,46,5.0,75.0
7825,58.0,0,46,6.0,75.0
7826,55.0,0,192,7.0,100.0
7827,75.0,0,192,4.0,127.0
7828,72.0,0,46,5.0,75.0
7829,60.0,0,46,6.0,75.0
7830,70.0,48,46,5.0,75.0
7831,58.0,0,46,6.0,75.0
7832,60.0,0,46,6.0,75.0
7833,72.0,48,46,5.0,75.0
7834,74.0,0,160,4.0,127.0
7835,58.0,48,46,6.0,75.0
7836,70.0,0,46,5.0,75.0
7837,56.0,48,192,7.0,100.0
7838,72.0,0,46,5.0,75.0
7839,60.0,0,46,6.0,75.0
7840,70.0,0,46,5.0,75.0
7841,58.0,48,46,6.0,75.0
7842,60.0,48,46,6.0,75.0
7843,72.0,0,46,5.0,75.0
7844,58.0,0,46,6.0,75.0
7845,70.0,48,46,5.0,75.0
7846,72.0,48,46,5.0,75.0
7847,60.0,0,46,6.0,75.0
7848,70.0,48,46,5.0,75.0
7849,58.0,0,46,6.0,75.0
7850,72.0,0,46,5.0,75.0
7851,60.0,48,46,6.0,75.0
7852,58.0,0,46,6.0,75.0
7853,70.0,48,46,5.0,75.0
7854,72.0,48,46,5.0,75.0
7855,60.0,0,46,6.0,75.0
7856,58.0,48,46,6.0,75.0
7857,70.0,0,46,5.0,75.0
7858,72.0,0,46,5.0,75.0
7859,60.0,48,46,6.0,75.0
7860,58.0,0,46,6.0,75.0
7861,70.0,48,46,5.0,75.0
7862,55.0,0,576,7.0,127.0
7863,75.0,48,576,4.0,127.0
7864,72.0,0,46,5.0,75.0
7865,60.0,0,46,6.0,75.0
7866,58.0,48,46,6.0,75.0
7867,70.0,0,46,5.0,75.0
7868,72.0,0,46,5.0,75.0
7869,60.0,48,46,6.0,75.0
7870,56.0,48,160,7.0,100.0
7871,70.0,48,46,5.0,75.0
7872,58.0,0,46,6.0,75.0
7873,74.0,0,192,4.0,127.0
7874,60.0,0,46,6.0,75.0
7875,72.0,48,46,5.0,75.0
7876,58.0,0,46,6.0,75.0
7877,70.0,48,46,5.0,75.0
7878,72.0,48,46,5.0,75.0
7879,60.0,0,46,6.0,75.0
7880,70.0,0,46,5.0,75.0
7881,58.0,48,46,6.0,75.0
7882,77.0,0,192,4.0,127.0
7883,72.0,48,46,5.0,75.0
7884,60.0,0,46,6.0,75.0
7885,70.0,0,46,5.0,75.0
7886,58.0,48,46,6.0,75.0
7887,72.0,48,46,5.0,75.0
7888,60.0,0,46,6.0,75.0
7889,58.0,0,46,6.0,75.0
7890,70.0,48,46,5.0,75.0
7891,72.0,0,46,5.0,75.0
7892,60.0,48,46,6.0,75.0
7893,70.0,48,46,5.0,75.0
7894,58.0,0,46,6.0,75.0
7895,60.0,48,46,6.0,75.0
7896,72.0,0,46,5.0,75.0
7897,58.0,48,46,6.0,75.0
7898,70.0,0,46,5.0,75.0
7899,75.0,0,384,4.0,127.0
7900,55.0,0,576,7.0,127.0
7901,60.0,0,46,6.0,75.0
7902,72.0,0,46,5.0,75.0
7903,58.0,48,46,6.0,75.0
7904,70.0,0,46,5.0,75.0
7905,60.0,48,46,6.0,75.0
7906,72.0,0,46,5.0,75.0
7907,53.0,0,160,7.0,100.0
7908,70.0,48,46,5.0,75.0
7909,58.0,0,46,6.0,75.0
7910,74.0,48,192,4.0,127.0
7911,74.0,0,34,4.0,100.0
7912,75.0,36,16,4.0,100.0
7913,74.0,18,16,4.0,100.0
7914,75.0,18,16,4.0,100.0
7915,74.0,18,16,4.0,100.0
7916,75.0,18,16,4.0,100.0
7917,74.0,18,16,4.0,100.0
7918,75.0,18,16,4.0,100.0
7919,74.0,18,16,4.0,100.0
7920,75.0,18,16,4.0,100.0
7921,74.0,18,16,4.0,100.0
7922,75.0,18,16,4.0,100.0
7923,74.0,18,16,4.0,100.0
7924,75.0,18,16,4.0,100.0
7925,74.0,18,16,4.0,100.0
7926,75.0,18,16,4.0,100.0
7927,74.0,18,16,4.0,100.0
7928,75.0,18,16,4.0,100.0
7929,74.0,18,16,4.0,100.0
7930,75.0,18,16,4.0,100.0
7931,74.0,18,16,4.0,100.0
7932,75.0,18,16,4.0,100.0
7933,74.0,18,16,4.0,100.0
7934,75.0,18,16,4.0,100.0
7935,74.0,18,16,4.0,100.0
7936,75.0,18,16,4.0,100.0
7937,74.0,18,16,4.0,100.0
7938,75.0,18,10,4.0,100.0
7939,74.0,12,10,4.0,100.0
7940,75.0,12,10,4.0,100.0
7941,74.0,12,10,4.0,100.0
7942,75.0,12,10,4.0,100.0
7943,74.0,12,10,4.0,100.0
7944,75.0,12,10,4.0,100.0
7945,74.0,12,10,4.0,100.0
7946,75.0,12,10,4.0,100.0
7947,74.0,12,10,4.0,100.0
7948,75.0,12,10,4.0,100.0
7949,74.0,12,10,4.0,100.0
7950,75.0,12,10,4.0,100.0
7951,74.0,12,10,4.0,100.0
7952,75.0,12,10,4.0,100.0
7953,74.0,12,10,4.0,100.0
7954,75.0,12,10,4.0,100.0
7955,74.0,12,10,4.0,100.0
7956,53.0,0,720,7.0,127.0
7957,58.0,0,720,6.0,105.0
7958,62.0,48,720,6.0,105.0
7959,70.0,0,720,5.0,105.0
7960,75.0,12,10,4.0,100.0
7961,74.0,12,10,4.0,100.0
7962,72.0,12,10,4.0,100.0
7963,74.0,12,10,4.0,100.0
7964,72.0,12,48,4.0,100.0
7965,74.0,48,48,4.0,100.0
7966,75.0,48,96,4.0,100.0
7967,70.0,0,96,7.0,100.0
7968,74.0,96,96,4.0,100.0
7969,69.0,96,96,7.0,100.0
7970,72.0,0,96,4.0,100.0
7971,70.0,96,96,4.0,100.0
7972,67.0,0,96,7.0,100.0
7973,69.0,96,96,4.0,100.0
7974,65.0,0,96,7.0,100.0
7975,70.0,96,96,4.0,100.0
7976,67.0,0,96,7.0,100.0
7977,72.0,96,96,4.0,100.0
7978,69.0,0,96,7.0,100.0
7979,70.0,0,96,7.0,100.0
7980,74.0,96,96,4.0,100.0
7981,75.0,96,96,4.0,100.0
7982,72.0,0,96,7.0,100.0
7983,74.0,0,96,7.0,100.0
7984,77.0,96,96,4.0,100.0
7985,75.0,96,96,7.0,100.0
7986,79.0,0,96,4.0,100.0
7987,77.0,96,96,7.0,100.0
7988,81.0,0,96,4.0,100.0
7989,79.0,96,96,7.0,100.0
7990,82.0,0,96,4.0,100.0
7991,81.0,96,96,7.0,100.0
7992,84.0,0,96,4.0,100.0
7993,82.0,96,94,7.0,100.0
7994,86.0,0,96,4.0,100.0
7995,87.0,96,96,4.0,100.0
7996,41.0,96,96,7.0,127.0
7997,89.0,0,96,4.0,100.0
7998,87.0,96,96,4.0,100.0
7999,43.0,0,96,7.0,127.0
8000,45.0,0,96,7.0,127.0
8001,86.0,96,96,4.0,100.0
8002,46.0,96,96,7.0,127.0
8003,84.0,0,96,4.0,100.0
8004,82.0,0,96,4.0,100.0
8005,48.0,96,96,7.0,127.0
8006,50.0,96,96,7.0,127.0
8007,81.0,0,96,4.0,100.0
8008,79.0,0,96,4.0,100.0
8009,51.0,96,96,7.0,127.0
8010,77.0,96,96,4.0,100.0
8011,53.0,0,96,7.0,100.0
8012,55.0,0,96,7.0,100.0
8013,75.0,96,96,4.0,100.0
8014,57.0,96,96,7.0,100.0
8015,74.0,0,96,4.0,100.0
8016,72.0,0,96,4.0,100.0
8017,58.0,96,96,7.0,100.0
8018,60.0,96,96,7.0,100.0
8019,70.0,0,96,4.0,100.0
8020,69.0,0,96,4.0,100.0
8021,62.0,96,96,7.0,100.0
8022,63.0,0,96,7.0,100.0
8023,67.0,96,96,4.0,100.0
8024,62.0,0,96,7.0,100.0
8025,65.0,96,96,4.0,100.0
8026,58.0,96,256,7.0,100.0
8027,62.0,0,256,7.0,100.0
8028,65.0,0,256,4.0,100.0
8029,74.0,0,256,4.0,100.0
8030,74.0,0,94,4.0,100.0
8031,58.0,0,94,7.0,100.0
8032,62.0,0,94,7.0,100.0
8033,65.0,288,94,4.0,100.0
8034,65.0,96,160,4.0,100.0
8035,74.0,0,160,4.0,100.0
8036,58.0,0,160,7.0,100.0
8037,62.0,0,160,7.0,100.0
8038,35.0,0,96,7.0,127.0
8039,62.0,0,96,4.0,100.0
8040,65.0,0,96,4.0,100.0
8041,47.0,288,96,7.0,127.0
8042,67.0,0,0,4.0,127.0
8043,75.0,288,0,4.0,127.0
8044,63.0,0,0,4.0,127.0
8045,67.0,0,0,4.0,127.0
8046,48.0,96,288,7.0,127.0
8047,36.0,0,288,7.0,127.0
8048,48.0,0,0,7.0,127.0
8049,36.0,0,0,7.0,127.0
8050,75.0,96,0,4.0,127.0
8051,63.0,0,0,4.0,127.0
8052,67.0,0,0,4.0,127.0
8053,62.0,288,94,7.0,100.0
8054,59.0,0,94,7.0,100.0
8055,67.0,0,94,4.0,100.0
8056,65.0,0,94,4.0,100.0
8057,67.0,96,256,4.0,100.0
8058,63.0,0,256,7.0,100.0
8059,60.0,0,256,7.0,100.0
8060,75.0,0,256,4.0,100.0
8061,75.0,0,94,4.0,100.0
8062,67.0,0,94,4.0,100.0
8063,60.0,0,94,7.0,100.0
8064,63.0,288,94,7.0,100.0
8065,63.0,0,160,7.0,100.0
8066,75.0,0,160,4.0,100.0
8067,67.0,0,160,4.0,100.0
8068,60.0,96,160,7.0,100.0
8069,37.0,0,96,7.0,127.0
8070,69.0,0,0,4.0,127.0
8071,49.0,288,96,7.0,127.0
8072,64.0,0,96,4.0,127.0
8073,67.0,0,96,4.0,127.0
8074,65.0,0,288,4.0,127.0
8075,50.0,288,0,7.0,127.0
8076,38.0,0,0,7.0,127.0
8077,77.0,96,288,4.0,127.0
8078,77.0,0,96,4.0,127.0
8079,69.0,0,96,4.0,127.0
8080,65.0,96,0,4.0,127.0
8081,38.0,0,0,7.0,127.0
8082,77.0,0,160,4.0,127.0
8083,50.0,0,160,7.0,127.0
8084,69.0,0,160,4.0,127.0
8085,69.0,0,94,4.0,100.0
8086,67.0,288,94,4.0,100.0
8087,61.0,0,94,7.0,100.0
8088,64.0,0,94,7.0,100.0
8089,77.0,0,256,4.0,100.0
8090,69.0,0,256,4.0,100.0
8091,65.0,96,256,7.0,100.0
8092,62.0,0,256,7.0,100.0
8093,77.0,288,94,4.0,100.0
8094,65.0,0,94,7.0,100.0
8095,69.0,0,94,4.0,100.0
8096,62.0,0,94,7.0,100.0
8097,69.0,0,160,4.0,100.0
8098,77.0,0,160,4.0,100.0
8099,65.0,0,160,7.0,100.0
8100,62.0,96,160,7.0,100.0
8101,70.0,0,96,4.0,100.0
8102,65.0,0,96,4.0,100.0
8103,68.0,0,96,4.0,100.0
8104,38.0,0,96,7.0,127.0
8105,50.0,288,96,7.0,127.0
8106,79.0,0,288,4.0,127.0
8107,70.0,288,0,4.0,127.0
8108,67.0,0,0,4.0,127.0
8109,39.0,0,288,7.0,127.0
8110,51.0,0,0,7.0,127.0
8111,79.0,0,0,4.0,127.0
8112,67.0,0,0,4.0,127.0
8113,39.0,96,0,7.0,127.0
8114,70.0,0,0,4.0,127.0
8115,51.0,0,160,7.0,127.0
8116,39.0,0,96,6.0,105.0
8117,51.0,0,96,6.0,105.0
8118,39.0,1056,96,7.0,127.0
8119,75.0,0,96,4.0,127.0
8120,67.0,0,96,4.0,127.0
8121,51.0,0,96,7.0,127.0
8122,29.0,288,0,7.0,127.0
8123,41.0,0,0,7.0,127.0
8124,75.0,0,288,4.0,127.0
8125,72.0,0,288,4.0,127.0
8126,69.0,0,288,4.0,127.0
8127,29.0,96,288,6.0,105.0
8128,81.0,0,0,4.0,127.0
8129,41.0,0,0,6.0,105.0
8130,41.0,96,0,6.0,105.0
8131,69.0,0,96,4.0,127.0
8132,75.0,0,96,4.0,127.0
8133,72.0,0,0,4.0,127.0
8134,29.0,0,0,6.0,105.0
8135,29.0,0,0,7.0,127.0
8136,75.0,0,160,4.0,127.0
8137,69.0,0,160,4.0,127.0
8138,81.0,0,160,4.0,127.0
8139,41.0,0,160,7.0,127.0
8140,30.0,960,96,7.0,100.0
8141,29.0,96,96,7.0,100.0
8142,30.0,96,96,7.0,100.0
8143,29.0,96,96,7.0,100.0
8144,30.0,96,96,7.0,100.0
8145,86.0,0,94,4.0,100.0
8146,82.0,0,94,4.0,100.0
8147,77.0,0,94,4.0,100.0
8148,74.0,96,94,4.0,100.0
8149,29.0,0,96,7.0,100.0
8150,33.0,96,96,7.0,100.0
8151,82.0,0,160,4.0,100.0
8152,86.0,0,160,4.0,100.0
8153,74.0,0,160,4.0,100.0
8154,77.0,0,160,4.0,100.0
8155,34.0,96,96,7.0,100.0
8156,82.0,0,94,4.0,100.0
8157,87.0,96,94,4.0,100.0
8158,77.0,0,94,4.0,100.0
8159,74.0,0,94,4.0,100.0
8160,33.0,0,96,7.0,100.0
8161,82.0,0,94,4.0,100.0
8162,74.0,0,94,4.0,100.0
8163,86.0,0,94,4.0,100.0
8164,77.0,0,94,4.0,100.0
8165,34.0,96,96,7.0,100.0
8166,82.0,0,48,4.0,100.0
8167,77.0,0,48,4.0,100.0
8168,74.0,96,48,4.0,100.0
8169,86.0,0,48,4.0,100.0
8170,30.0,0,96,7.0,100.0
8171,29.0,96,96,7.0,100.0
8172,70.0,0,48,4.0,100.0
8173,74.0,96,48,4.0,100.0
8174,77.0,0,48,4.0,100.0
8175,82.0,0,48,4.0,100.0
8176,30.0,0,96,7.0,100.0
8177,29.0,96,94,7.0,100.0
8178,62.0,0,48,4.0,127.0
8179,70.0,0,48,4.0,127.0
8180,74.0,0,48,4.0,127.0
8181,65.0,0,48,4.0,127.0
8182,42.0,0,96,7.0,100.0
8183,41.0,96,96,7.0,100.0
8184,58.0,0,48,4.0,127.0
8185,65.0,0,48,4.0,127.0
8186,70.0,0,48,4.0,127.0
8187,62.0,0,48,4.0,127.0
8188,42.0,96,96,7.0,100.0
8189,34.0,96,336,7.0,100.0
8190,41.0,96,94,7.0,100.0
8191,30.0,96,96,7.0,100.0
8192,29.0,96,96,7.0,100.0
8193,77.0,0,256,4.0,100.0
8194,82.0,0,256,4.0,100.0
8195,86.0,0,256,4.0,100.0
8196,89.0,0,256,4.0,100.0
8197,30.0,96,96,7.0,100.0
8198,77.0,0,94,4.0,100.0
8199,89.0,96,94,4.0,100.0
8200,86.0,0,94,4.0,100.0
8201,82.0,0,94,4.0,100.0
8202,29.0,0,96,7.0,100.0
8203,33.0,96,96,7.0,100.0
8204,89.0,0,160,4.0,100.0
8205,86.0,0,160,4.0,100.0
8206,82.0,0,160,4.0,100.0
8207,77.0,0,160,4.0,100.0
8208,34.0,96,96,7.0,100.0
8209,86.0,0,94,4.0,100.0
8210,82.0,0,94,4.0,100.0
8211,91.0,0,94,4.0,100.0
8212,77.0,96,94,4.0,100.0
8213,33.0,0,96,7.0,100.0
8214,89.0,0,94,4.0,100.0
8215,77.0,0,94,4.0,100.0
8216,82.0,0,94,4.0,100.0
8217,86.0,0,94,4.0,100.0
8218,34.0,96,96,7.0,100.0
8219,89.0,0,48,4.0,100.0
8220,77.0,0,48,4.0,100.0
8221,82.0,0,48,4.0,100.0
8222,86.0,0,48,4.0,100.0
8223,30.0,96,96,7.0,100.0
8224,29.0,96,96,7.0,100.0
8225,74.0,0,48,4.0,100.0
8226,77.0,0,48,4.0,100.0
8227,82.0,0,48,4.0,100.0
8228,86.0,0,48,4.0,100.0
8229,30.0,96,96,7.0,100.0
8230,29.0,96,94,7.0,100.0
8231,65.0,0,48,4.0,127.0
8232,70.0,0,48,4.0,127.0
8233,74.0,0,48,4.0,127.0
8234,77.0,0,48,4.0,127.0
8235,42.0,0,96,7.0,100.0
8236,41.0,96,96,7.0,100.0
8237,74.0,96,48,4.0,127.0
8238,70.0,0,48,4.0,127.0
8239,65.0,0,48,4.0,127.0
8240,62.0,0,48,4.0,127.0
8241,42.0,0,96,7.0,100.0
8242,34.0,96,336,7.0,100.0
8243,41.0,96,94,7.0,100.0
8244,86.0,0,48,4.0,100.0
8245,89.0,96,48,4.0,100.0
8246,30.0,0,96,7.0,100.0
8247,29.0,96,96,7.0,100.0
8248,82.0,0,48,4.0,100.0
8249,86.0,0,48,4.0,100.0
8250,30.0,96,96,7.0,100.0
8251,29.0,96,94,7.0,100.0
8252,74.0,0,48,4.0,127.0
8253,77.0,96,48,4.0,127.0
8254,42.0,0,94,7.0,100.0
8255,41.0,96,94,7.0,100.0
8256,70.0,96,48,4.0,127.0
8257,74.0,0,48,4.0,127.0
8258,42.0,0,94,7.0,100.0
8259,34.0,0,336,7.0,100.0
8260,41.0,96,94,7.0,100.0
8261,86.0,0,48,4.0,100.0
8262,82.0,0,48,4.0,100.0
8263,30.0,96,94,7.0,100.0
8264,29.0,96,94,7.0,100.0
8265,77.0,96,48,4.0,100.0
8266,82.0,0,48,4.0,100.0
8267,30.0,0,94,7.0,100.0
8268,29.0,96,94,7.0,100.0
8269,70.0,96,48,4.0,127.0
8270,74.0,0,48,4.0,127.0
8271,42.0,0,94,7.0,100.0
8272,41.0,96,94,7.0,100.0
8273,70.0,0,48,4.0,127.0
8274,65.0,0,48,4.0,127.0
8275,42.0,96,94,7.0,100.0
8276,34.0,0,336,7.0,100.0
8277,41.0,96,94,7.0,100.0
8278,82.0,96,48,4.0,100.0
8279,77.0,0,48,4.0,100.0
8280,30.0,0,94,7.0,100.0
8281,29.0,96,94,7.0,100.0
8282,74.0,96,48,4.0,100.0
8283,77.0,0,48,4.0,100.0
8284,30.0,0,94,7.0,100.0
8285,29.0,96,94,7.0,100.0
8286,65.0,0,48,4.0,127.0
8287,70.0,0,48,4.0,127.0
8288,42.0,96,94,7.0,100.0
8289,41.0,96,94,7.0,100.0
8290,62.0,96,48,4.0,127.0
8291,65.0,0,48,4.0,127.0
8292,42.0,0,94,7.0,100.0
8293,34.0,0,336,7.0,100.0
8294,41.0,96,94,7.0,100.0
8295,54.0,0,94,7.0,100.0
8296,53.0,96,94,7.0,100.0
8297,54.0,96,94,7.0,100.0
8298,53.0,96,94,7.0,100.0
8299,54.0,96,94,7.0,100.0
8300,53.0,96,94,7.0,100.0
8301,54.0,96,94,7.0,100.0
8302,69.0,0,720,4.0,100.0
8303,46.0,0,720,7.0,100.0
8304,75.0,96,720,4.0,100.0
8305,53.0,96,94,7.0,100.0
8306,74.0,0,48,4.0,100.0
8307,77.0,96,48,4.0,100.0
8308,70.0,0,48,4.0,100.0
8309,74.0,192,48,4.0,100.0
8310,30.0,0,94,7.0,100.0
8311,29.0,96,94,7.0,100.0
8312,65.0,0,48,4.0,127.0
8313,62.0,0,48,4.0,127.0
8314,42.0,0,96,7.0,100.0
8315,41.0,96,96,7.0,100.0
8316,58.0,0,48,4.0,127.0
8317,62.0,0,48,4.0,127.0
8318,42.0,96,96,7.0,100.0
8319,34.0,96,336,7.0,100.0
8320,41.0,96,94,7.0,100.0
8321,70.0,96,48,4.0,100.0
8322,74.0,0,48,4.0,100.0
8323,30.0,0,94,7.0,100.0
8324,29.0,96,94,7.0,100.0
8325,65.0,0,48,4.0,100.0
8326,70.0,96,48,4.0,100.0
8327,30.0,0,94,7.0,100.0
8328,29.0,96,94,7.0,100.0
8329,58.0,0,48,4.0,127.0
8330,62.0,0,48,4.0,127.0
8331,42.0,96,94,7.0,100.0
8332,41.0,96,94,7.0,100.0
8333,53.0,0,48,4.0,127.0
8334,58.0,0,48,4.0,127.0
8335,42.0,96,94,7.0,100.0
8336,34.0,0,336,7.0,100.0
8337,41.0,96,94,7.0,100.0
8338,65.0,96,48,4.0,100.0
8339,70.0,0,48,4.0,100.0
8340,30.0,0,94,7.0,100.0
8341,29.0,96,94,7.0,100.0
8342,62.0,96,48,4.0,100.0
8343,65.0,0,48,4.0,100.0
8344,30.0,0,94,7.0,100.0
8345,29.0,96,94,7.0,100.0
8346,53.0,96,48,4.0,127.0
8347,58.0,0,48,4.0,127.0
8348,42.0,0,94,7.0,100.0
8349,41.0,96,94,7.0,100.0
8350,50.0,0,48,4.0,127.0
8351,53.0,0,48,4.0,127.0
8352,42.0,96,94,7.0,100.0
8353,34.0,0,336,7.0,100.0
8354,41.0,96,94,7.0,100.0
8355,42.0,96,96,7.0,100.0
8356,41.0,96,96,7.0,100.0
8357,42.0,96,96,7.0,100.0
8358,41.0,96,96,7.0,100.0
8359,42.0,96,96,7.0,100.0
8360,41.0,96,96,7.0,100.0
8361,42.0,96,96,7.0,100.0
8362,34.0,0,720,7.0,100.0
8363,63.0,0,720,4.0,100.0
8364,57.0,0,720,4.0,100.0
8365,41.0,96,94,7.0,100.0
8366,45.0,96,96,7.0,100.0
8367,46.0,96,96,7.0,100.0
8368,45.0,96,96,7.0,100.0
8369,66.0,0,94,4.0,100.0
8370,63.0,96,94,4.0,100.0
8371,57.0,0,94,4.0,100.0
8372,46.0,0,96,7.0,100.0
8373,57.0,0,48,4.0,100.0
8374,66.0,96,48,4.0,100.0
8375,63.0,0,48,4.0,100.0
8376,45.0,0,96,7.0,100.0
8377,46.0,96,96,7.0,100.0
8378,58.0,0,48,4.0,100.0
8379,62.0,0,48,4.0,100.0
8380,65.0,96,48,4.0,100.0
8381,45.0,0,96,7.0,100.0
8382,46.0,96,94,7.0,100.0
8383,42.0,0,94,7.0,100.0
8384,41.0,96,94,7.0,100.0
8385,42.0,96,94,7.0,100.0
8386,63.0,0,94,4.0,100.0
8387,41.0,96,94,7.0,100.0
8388,54.0,0,94,4.0,100.0
8389,57.0,0,94,4.0,100.0
8390,60.0,0,94,4.0,100.0
8391,60.0,0,48,4.0,100.0
8392,63.0,0,48,4.0,100.0
8393,54.0,0,48,4.0,100.0
8394,57.0,0,48,4.0,100.0
8395,42.0,96,94,7.0,100.0
8396,41.0,96,94,7.0,100.0
8397,62.0,96,48,4.0,100.0
8398,58.0,0,48,4.0,100.0
8399,53.0,0,48,4.0,100.0
8400,42.0,0,94,7.0,100.0
8401,34.0,96,720,7.0,100.0
8402,41.0,96,94,7.0,100.0
8403,33.0,96,96,7.0,127.0
8404,34.0,96,96,7.0,100.0
8405,33.0,96,96,7.0,100.0
8406,63.0,96,94,4.0,100.0
8407,54.0,0,94,4.0,100.0
8408,60.0,0,94,4.0,100.0
8409,57.0,0,94,4.0,100.0
8410,34.0,0,96,7.0,100.0
8411,63.0,0,48,4.0,100.0
8412,60.0,96,48,4.0,100.0
8413,57.0,0,48,4.0,100.0
8414,54.0,0,48,4.0,100.0
8415,33.0,0,96,7.0,100.0
8416,34.0,96,96,7.0,100.0
8417,62.0,96,48,4.0,100.0
8418,58.0,0,48,4.0,100.0
8419,53.0,0,48,4.0,100.0
8420,33.0,0,96,7.0,100.0
8421,34.0,96,96,7.0,100.0
8422,30.0,96,96,7.0,100.0
8423,29.0,96,96,7.0,100.0
8424,30.0,96,96,7.0,100.0
8425,60.0,0,94,4.0,100.0
8426,54.0,0,94,4.0,100.0
8427,57.0,0,94,4.0,100.0
8428,51.0,96,94,4.0,100.0
8429,29.0,0,96,7.0,100.0
8430,51.0,96,48,4.0,100.0
8431,54.0,0,48,4.0,100.0
8432,57.0,0,48,4.0,100.0
8433,60.0,0,48,4.0,100.0
8434,30.0,0,96,7.0,100.0
8435,29.0,96,96,7.0,100.0
8436,58.0,0,48,4.0,100.0
8437,53.0,0,48,4.0,100.0
8438,50.0,0,48,4.0,100.0
8439,34.0,96,96,7.0,100.0
8440,41.0,0,96,7.0,100.0
8441,29.0,96,96,7.0,100.0
8442,34.0,96,96,7.0,100.0
8443,41.0,0,96,7.0,100.0
8444,29.0,96,96,7.0,100.0
8445,41.0,96,96,7.0,100.0
8446,34.0,0,96,7.0,100.0
8447,50.0,0,94,4.0,100.0
8448,62.0,0,94,4.0,100.0
8449,58.0,0,94,4.0,100.0
8450,53.0,0,94,4.0,100.0
8451,29.0,96,96,7.0,100.0
8452,50.0,0,48,4.0,100.0
8453,53.0,0,48,4.0,100.0
8454,58.0,0,48,4.0,100.0
8455,62.0,0,48,4.0,100.0
8456,41.0,0,96,7.0,100.0
8457,34.0,96,96,7.0,100.0
8458,29.0,96,96,7.0,100.0
8459,50.0,0,48,4.0,100.0
8460,53.0,0,48,4.0,100.0
8461,58.0,0,48,4.0,100.0
8462,41.0,0,96,7.0,100.0
8463,34.0,96,96,7.0,100.0
8464,29.0,96,94,7.0,100.0
8465,41.0,96,96,7.0,100.0
8466,34.0,96,96,7.0,100.0
8467,41.0,0,96,7.0,100.0
8468,62.0,96,160,4.0,100.0
8469,58.0,0,160,4.0,100.0
8470,53.0,0,160,4.0,100.0
8471,50.0,0,160,4.0,100.0
8472,34.0,96,96,7.0,100.0
8473,41.0,96,96,7.0,100.0
8474,34.0,96,96,7.0,100.0
8475,46.0,96,96,7.0,100.0
8476,41.0,0,96,7.0,100.0
8477,34.0,96,96,7.0,100.0
8478,41.0,0,96,7.0,127.0
8479,46.0,96,96,7.0,127.0
8480,34.0,96,96,7.0,127.0
8481,41.0,96,96,7.0,127.0
8482,46.0,0,96,7.0,127.0
8483,34.0,96,96,7.0,127.0
8484,89.0,0,160,5.0,127.0
8485,94.0,0,160,5.0,127.0
8486,86.0,0,160,5.0,127.0
8487,53.0,0,160,7.0,127.0
8488,46.0,0,160,6.0,105.0
8489,58.0,0,160,7.0,127.0
8490,53.0,0,160,6.0,105.0
8491,58.0,0,160,6.0,105.0
8492,46.0,0,160,7.0,127.0
8493,50.0,0,160,7.0,127.0
8494,82.0,0,160,5.0,127.0
8495,50.0,0,160,6.0,105.0
8496,82.0,0,160,4.0,127.0
8497,89.0,0,160,4.0,127.0
8498,94.0,96,160,4.0,127.0
8499,86.0,0,160,4.0,127.0
8500,70.0,0,720,5.0,127.0
8501,34.0,0,720,6.0,105.0
8502,70.0,0,720,4.0,127.0
8503,58.0,0,720,4.0,127.0
8504,34.0,0,720,7.0,127.0
8505,46.0,0,720,6.0,105.0
8506,58.0,384,720,5.0,127.0
8507,46.0,0,720,7.0,127.0
8508,62.0,0,144,7.0,100.0
8509,58.0,1536,144,7.0,100.0
8510,74.0,0,144,4.0,100.0
8511,60.0,144,48,7.0,100.0
8512,69.0,0,48,4.0,100.0
8513,77.0,0,48,4.0,100.0
8514,53.0,0,48,7.0,100.0
8515,77.0,0,192,4.0,100.0
8516,57.0,48,192,7.0,100.0
8517,60.0,0,192,7.0,100.0
8518,72.0,0,192,4.0,100.0
8519,65.0,0,94,4.0,100.0
8520,58.0,0,94,7.0,100.0
8521,62.0,192,94,7.0,100.0
8522,74.0,0,94,4.0,100.0
8523,55.0,0,144,7.0,100.0
8524,70.0,192,144,4.0,100.0
8525,58.0,0,144,7.0,100.0
8526,50.0,0,48,7.0,100.0
8527,57.0,0,48,7.0,100.0
8528,66.0,0,48,4.0,100.0
8529,74.0,144,48,4.0,100.0
8530,54.0,48,192,7.0,100.0
8531,57.0,0,192,7.0,100.0
8532,69.0,0,192,4.0,100.0
8533,74.0,0,192,4.0,100.0
8534,55.0,192,94,7.0,100.0
8535,58.0,0,94,7.0,100.0
8536,62.0,0,94,4.0,100.0
8537,70.0,0,94,4.0,100.0
8538,51.0,0,144,7.0,100.0
8539,55.0,192,144,7.0,100.0
8540,67.0,0,144,4.0,100.0
8541,53.0,0,48,7.0,100.0
8542,46.0,144,48,7.0,100.0
8543,62.0,0,48,4.0,100.0
8544,70.0,0,48,4.0,100.0
8545,53.0,0,192,7.0,100.0
8546,50.0,48,192,7.0,100.0
8547,70.0,0,192,4.0,100.0
8548,65.0,0,192,4.0,100.0
8549,58.0,0,94,4.0,100.0
8550,51.0,192,94,7.0,100.0
8551,55.0,0,94,7.0,100.0
8552,67.0,0,94,4.0,100.0
8553,51.0,0,144,7.0,100.0
8554,55.0,0,144,7.0,100.0
8555,67.0,192,144,4.0,100.0
8556,58.0,0,144,4.0,100.0
8557,53.0,0,48,7.0,100.0
8558,69.0,48,0,4.0,100.0
8559,63.0,0,0,4.0,100.0
8560,48.0,0,0,7.0,100.0
8561,70.0,0,94,4.0,100.0
8562,58.0,0,94,4.0,100.0
8563,50.0,192,94,7.0,100.0
8564,53.0,0,286,7.0,100.0
8565,50.0,192,144,7.0,100.0
8566,70.0,0,144,4.0,100.0
8567,53.0,0,160,7.0,100.0
8568,65.0,0,160,4.0,100.0
8569,45.0,0,0,7.0,100.0
8570,72.0,0,48,4.0,100.0
8571,72.0,0,192,4.0,100.0
8572,65.0,0,0,4.0,100.0
8573,44.0,0,94,7.0,100.0
8574,53.0,48,286,7.0,100.0
8575,70.0,0,94,4.0,100.0
8576,74.0,192,94,4.0,100.0
8577,74.0,0,144,4.0,100.0
8578,53.0,0,144,7.0,100.0
8579,44.0,0,144,7.0,100.0
8580,70.0,192,160,4.0,100.0
8581,51.0,48,0,7.0,100.0
8582,43.0,0,0,7.0,100.0
8583,75.0,0,0,4.0,100.0
8584,70.0,0,0,4.0,100.0
8585,41.0,0,94,7.0,100.0
8586,49.0,0,94,7.0,100.0
8587,65.0,0,94,4.0,100.0
8588,77.0,192,94,4.0,100.0
8589,73.0,0,94,4.0,100.0
8590,67.0,0,94,4.0,100.0
8591,70.0,0,94,4.0,100.0
8592,72.0,0,94,4.0,100.0
8593,79.0,0,94,4.0,100.0
8594,48.0,192,94,7.0,127.0
8595,40.0,0,94,7.0,127.0
8596,69.0,0,94,4.0,100.0
8597,41.0,0,94,7.0,127.0
8598,53.0,192,94,7.0,127.0
8599,72.0,0,94,4.0,100.0
8600,60.0,0,94,4.0,100.0
8601,70.0,0,144,7.0,100.0
8602,74.0,384,144,7.0,100.0
8603,86.0,0,144,4.0,100.0
8604,89.0,48,0,4.0,100.0
8605,81.0,0,48,4.0,100.0
8606,65.0,144,48,7.0,100.0
8607,72.0,0,0,7.0,100.0
8608,69.0,0,192,7.0,100.0
8609,84.0,0,192,4.0,100.0
8610,70.0,192,94,7.0,100.0
8611,74.0,0,94,7.0,100.0
8612,77.0,0,94,4.0,100.0
8613,86.0,0,94,4.0,100.0
8614,70.0,0,144,7.0,100.0
8615,67.0,0,144,7.0,100.0
8616,82.0,192,144,4.0,100.0
8617,86.0,48,0,4.0,100.0
8618,78.0,144,48,4.0,100.0
8619,69.0,0,0,7.0,100.0
8620,62.0,0,48,7.0,100.0
8621,66.0,0,192,7.0,100.0
8622,81.0,0,192,4.0,100.0
8623,82.0,0,94,4.0,100.0
8624,70.0,0,94,7.0,100.0
8625,74.0,0,94,4.0,100.0
8626,67.0,192,94,7.0,100.0
8627,67.0,0,144,7.0,100.0
8628,79.0,0,144,4.0,100.0
8629,63.0,192,144,7.0,100.0
8630,65.0,0,48,7.0,100.0
8631,58.0,0,48,7.0,100.0
8632,82.0,0,0,4.0,100.0
8633,74.0,144,48,4.0,100.0
8634,65.0,0,192,7.0,100.0
8635,62.0,48,192,7.0,100.0
8636,77.0,0,192,4.0,100.0
8637,79.0,0,94,4.0,100.0
8638,70.0,0,94,4.0,100.0
8639,67.0,192,94,7.0,100.0
8640,63.0,0,94,7.0,100.0
8641,67.0,0,144,7.0,100.0
8642,79.0,192,144,4.0,100.0
8643,70.0,0,144,4.0,100.0
8644,63.0,0,144,7.0,100.0
8645,60.0,0,48,7.0,100.0
8646,81.0,48,0,4.0,100.0
8647,75.0,0,48,4.0,100.0
8648,65.0,0,0,7.0,100.0
8649,60.0,0,192,7.0,100.0
8650,75.0,0,192,4.0,100.0
8651,62.0,0,94,7.0,100.0
8652,70.0,192,94,4.0,100.0
8653,82.0,0,94,4.0,100.0
8654,74.0,192,144,7.0,100.0
8655,82.0,0,144,4.0,100.0
8656,77.0,0,160,4.0,100.0
8657,69.0,0,48,7.0,100.0
8658,72.0,144,48,7.0,100.0
8659,84.0,48,0,4.0,100.0
8660,72.0,0,192,7.0,100.0
8661,69.0,0,192,7.0,100.0
8662,68.0,0,94,7.0,100.0
8663,86.0,192,94,4.0,100.0
8664,70.0,0,94,7.0,100.0
8665,77.0,0,286,4.0,100.0
8666,67.0,0,144,7.0,100.0
8667,87.0,0,144,4.0,100.0
8668,82.0,192,160,4.0,100.0
8669,70.0,0,160,7.0,100.0
8670,88.0,0,48,4.0,100.0
8671,66.0,0,0,7.0,100.0
8672,82.0,48,192,4.0,100.0
8673,88.0,0,192,4.0,100.0
8674,70.0,0,192,7.0,100.0
8675,65.0,0,94,7.0,100.0
8676,72.0,0,94,7.0,100.0
8677,89.0,0,94,4.0,100.0
8678,81.0,0,94,4.0,100.0
8679,77.0,192,94,4.0,100.0
8680,82.0,0,94,4.0,100.0
8681,91.0,0,94,4.0,100.0
8682,60.0,0,94,7.0,127.0
8683,48.0,0,94,7.0,127.0
8684,79.0,0,94,4.0,100.0
8685,88.0,192,94,4.0,100.0
8686,77.0,0,94,4.0,100.0
8687,89.0,192,94,4.0,100.0
8688,65.0,0,94,7.0,127.0
8689,53.0,0,94,7.0,127.0
8690,81.0,0,94,4.0,100.0
8691,71.0,0,144,4.0,100.0
8692,74.0,0,144,4.0,100.0
8693,77.0,0,48,4.0,100.0
8694,74.0,48,0,4.0,100.0
8695,77.0,0,192,4.0,100.0
8696,71.0,192,94,4.0,100.0
8697,74.0,0,94,4.0,100.0
8698,65.0,0,528,7.0,100.0
8699,53.0,384,528,7.0,100.0
8700,71.0,192,144,4.0,100.0
8701,74.0,0,144,4.0,100.0
8702,79.0,144,48,4.0,100.0
8703,75.0,48,0,4.0,100.0
8704,79.0,0,192,4.0,100.0
8705,72.0,192,94,4.0,100.0
8706,75.0,0,94,4.0,100.0
8707,41.0,0,528,7.0,100.0
8708,53.0,0,528,7.0,100.0
8709,72.0,0,144,4.0,100.0
8710,69.0,0,144,4.0,100.0
8711,72.0,0,0,4.0,100.0
8712,75.0,48,0,4.0,100.0
8713,72.0,192,0,4.0,100.0
8714,69.0,0,94,4.0,100.0
8715,53.0,0,528,7.0,100.0
8716,41.0,192,528,7.0,100.0
8717,72.0,0,144,4.0,100.0
8718,69.0,0,144,4.0,100.0
8719,73.0,144,48,4.0,100.0
8720,77.0,0,48,4.0,100.0
8721,77.0,0,192,4.0,100.0
8722,74.0,192,0,4.0,100.0
8723,70.0,0,94,4.0,100.0
8724,29.0,0,528,7.0,100.0
8725,41.0,192,528,7.0,100.0
8726,57.0,0,144,4.0,100.0
8727,60.0,0,144,4.0,100.0
8728,60.0,48,0,4.0,95.0
8729,63.0,144,48,4.0,100.0
8730,30.0,0,352,7.0,100.0
8731,42.0,192,352,7.0,100.0
8732,63.0,0,384,4.0,95.0
8733,58.0,192,192,4.0,95.0
8734,62.0,0,192,4.0,95.0
8735,31.0,192,384,7.0,100.0
8736,43.0,0,384,7.0,100.0
8737,45.0,0,192,7.0,100.0
8738,57.0,0,192,4.0,93.0
8739,33.0,192,192,7.0,100.0
8740,60.0,0,192,4.0,93.0
8741,55.0,0,192,4.0,93.0
8742,58.0,192,192,4.0,93.0
8743,34.0,0,192,7.0,100.0
8744,46.0,0,192,7.0,100.0
8745,35.0,0,192,7.0,100.0
8746,47.0,0,192,7.0,100.0
8747,57.0,192,384,4.0,93.0
8748,53.0,0,384,4.0,93.0
8749,48.0,0,336,7.0,100.0
8750,36.0,192,336,7.0,100.0
8751,52.0,0,192,4.0,90.0
8752,55.0,192,192,4.0,90.0
8753,36.0,192,192,7.0,100.0
8754,51.0,192,0,4.0,87.0
8755,60.0,0,384,4.0,87.0
8756,43.0,0,336,7.0,100.0
8757,50.0,0,160,4.0,87.0
8758,55.0,0,544,4.0,87.0
8759,59.0,192,160,4.0,87.0
8760,59.0,768,144,4.0,100.0
8761,62.0,144,48,4.0,100.0
8762,62.0,48,192,4.0,100.0
8763,59.0,192,94,4.0,100.0
8764,43.0,0,142,7.0,100.0
8765,71.0,0,142,4.0,100.0
8766,74.0,0,46,4.0,100.0
8767,47.0,144,46,7.0,100.0
8768,47.0,48,160,7.0,100.0
8769,74.0,0,160,4.0,100.0
8770,62.0,192,448,4.0,100.0
8771,55.0,0,448,7.0,100.0
8772,71.0,192,94,4.0,100.0
8773,43.0,0,94,7.0,100.0
8774,72.0,192,144,7.0,100.0
8775,84.0,0,144,4.0,100.0
8776,87.0,0,0,4.0,100.0
8777,75.0,48,0,7.0,100.0
8778,84.0,0,94,4.0,100.0
8779,72.0,192,94,7.0,100.0
8780,62.0,0,144,4.0,127.0
8781,71.0,0,144,4.0,127.0
8782,74.0,0,48,4.0,100.0
8783,65.0,48,0,4.0,100.0
8784,74.0,0,192,4.0,100.0
8785,62.0,192,94,4.0,100.0
8786,71.0,0,94,4.0,100.0
8787,43.0,192,528,7.0,127.0
8788,55.0,0,528,7.0,127.0
8789,71.0,0,144,4.0,127.0
8790,62.0,0,144,4.0,127.0
8791,67.0,144,48,4.0,100.0
8792,75.0,0,48,4.0,100.0
8793,75.0,0,192,4.0,100.0
8794,67.0,48,192,4.0,100.0
8795,63.0,192,94,4.0,100.0
8796,72.0,0,94,4.0,100.0
8797,48.0,192,528,7.0,127.0
8798,36.0,0,528,7.0,127.0
8799,69.0,192,144,4.0,127.0
8800,72.0,0,144,4.0,127.0
8801,72.0,0,48,4.0,127.0
8802,81.0,48,0,4.0,127.0
8803,29.0,0,352,7.0,127.0
8804,41.0,0,352,7.0,127.0
8805,72.0,0,192,4.0,127.0
8806,69.0,0,94,4.0,127.0
8807,77.0,0,94,4.0,127.0
8808,53.0,192,94,7.0,100.0
8809,41.0,0,94,7.0,100.0
8810,82.0,0,94,4.0,127.0
8811,70.0,192,94,4.0,127.0
8812,46.0,0,94,6.0,100.0
8813,34.0,0,94,6.0,100.0
8814,34.0,0,94,7.0,127.0
8815,46.0,0,94,7.0,127.0
8816,70.0,0,94,4.0,127.0
8817,34.0,0,94,7.0,127.0
8818,46.0,0,94,7.0,127.0
8819,46.0,0,94,6.0,100.0
8820,34.0,0,94,6.0,100.0
8821,82.0,192,94,4.0,127.0
8822,83.0,0,144,4.0,100.0
8823,86.0,384,144,4.0,100.0
8824,86.0,0,0,4.0,100.0
8825,89.0,48,0,4.0,100.0
8826,83.0,192,94,4.0,100.0
8827,86.0,0,94,4.0,100.0
8828,65.0,0,528,7.0,100.0
8829,77.0,0,528,7.0,100.0
8830,83.0,192,144,4.0,100.0
8831,86.0,0,144,4.0,100.0
8832,87.0,144,48,4.0,100.0
8833,91.0,48,0,4.0,100.0
8834,87.0,0,192,4.0,100.0
8835,84.0,0,94,4.0,100.0
8836,87.0,192,94,4.0,100.0
8837,53.0,0,528,7.0,100.0
8838,65.0,0,528,7.0,100.0
8839,81.0,0,144,4.0,100.0
8840,84.0,144,0,4.0,100.0
8841,87.0,0,48,4.0,100.0
8842,84.0,0,0,4.0,100.0
8843,87.0,48,192,4.0,100.0
8844,84.0,192,0,4.0,100.0
8845,81.0,0,94,4.0,100.0
8846,53.0,192,528,7.0,100.0
8847,65.0,0,528,7.0,100.0
8848,81.0,0,144,4.0,100.0
8849,84.0,0,144,4.0,100.0
8850,89.0,0,48,4.0,100.0
8851,85.0,144,48,4.0,100.0
8852,86.0,192,0,4.0,100.0
8853,89.0,0,192,4.0,100.0
8854,82.0,0,94,4.0,100.0
8855,41.0,0,528,7.0,100.0
8856,53.0,192,528,7.0,100.0
8857,69.0,0,144,4.0,100.0
8858,72.0,0,0,4.0,100.0
8859,75.0,48,0,4.0,95.0
8860,72.0,0,0,4.0,95.0
8861,42.0,192,352,7.0,100.0
8862,54.0,0,352,7.0,100.0
8863,54.0,192,192,7.0,95.0
8864,60.0,0,192,7.0,95.0
8865,63.0,0,192,7.0,95.0
8866,62.0,0,192,7.0,95.0
8867,58.0,0,192,7.0,95.0
8868,74.0,0,192,4.0,95.0
8869,70.0,192,192,4.0,95.0
8870,55.0,0,192,7.0,95.0
8871,60.0,0,192,7.0,93.0
8872,72.0,0,192,4.0,93.0
8873,69.0,0,192,4.0,93.0
8874,57.0,192,192,7.0,93.0
8875,70.0,192,192,4.0,93.0
8876,46.0,0,192,7.0,93.0
8877,55.0,0,192,7.0,93.0
8878,58.0,0,192,7.0,93.0
8879,67.0,0,192,4.0,93.0
8880,47.0,192,192,7.0,93.0
8881,65.0,0,384,4.0,93.0
8882,53.0,0,384,7.0,93.0
8883,57.0,0,384,7.0,93.0
8884,69.0,0,384,4.0,93.0
8885,48.0,192,336,7.0,90.0
8886,52.0,192,192,7.0,90.0
8887,55.0,0,192,7.0,90.0
8888,67.0,0,0,4.0,87.0
8889,64.0,0,192,4.0,90.0
8890,48.0,0,192,7.0,87.0
8891,67.0,192,0,4.0,87.0
8892,51.0,192,192,7.0,87.0
8893,63.0,0,384,4.0,87.0
8894,72.0,0,384,4.0,87.0
8895,60.0,0,384,7.0,87.0
8896,55.0,0,528,7.0,87.0
8897,71.0,0,160,4.0,87.0
8898,59.0,192,160,7.0,87.0
8899,62.0,0,160,4.0,87.0
8900,71.0,768,144,4.0,100.0
8901,74.0,48,0,4.0,100.0
8902,71.0,192,94,4.0,100.0
8903,55.0,0,144,7.0,100.0
8904,83.0,0,144,4.0,100.0
8905,59.0,144,48,7.0,100.0
8906,86.0,0,48,4.0,100.0
8907,86.0,0,160,4.0,100.0
8908,59.0,48,192,7.0,100.0
8909,74.0,192,384,4.0,100.0
8910,67.0,0,448,7.0,100.0
8911,55.0,192,94,7.0,100.0
8912,83.0,0,94,4.0,100.0
8913,72.0,0,144,4.0,100.0
8914,60.0,192,144,7.0,100.0
8915,75.0,0,48,4.0,100.0
8916,63.0,144,48,7.0,100.0
8917,75.0,48,192,4.0,100.0
8918,63.0,0,192,7.0,100.0
8919,60.0,0,94,7.0,100.0
8920,72.0,192,94,4.0,100.0
8921,83.0,0,144,4.0,127.0
8922,74.0,0,144,4.0,127.0
8923,77.0,0,48,4.0,100.0
8924,86.0,144,48,4.0,100.0
8925,86.0,0,192,4.0,100.0
8926,77.0,48,192,4.0,100.0
8927,83.0,192,94,4.0,100.0
8928,74.0,0,94,4.0,100.0
8929,55.0,0,528,7.0,127.0
8930,67.0,192,528,7.0,127.0
8931,74.0,0,144,4.0,127.0
8932,83.0,0,144,4.0,127.0
8933,87.0,0,48,4.0,127.0
8934,79.0,48,0,4.0,100.0
8935,87.0,0,192,4.0,100.0
8936,75.0,192,94,4.0,100.0
8937,84.0,0,94,4.0,100.0
8938,60.0,0,528,7.0,127.0
8939,48.0,192,528,7.0,127.0
8940,84.0,192,144,4.0,127.0
8941,81.0,0,144,4.0,127.0
8942,84.0,144,48,4.0,127.0
8943,93.0,48,0,4.0,127.0
8944,84.0,0,192,4.0,127.0
8945,81.0,192,94,4.0,127.0
8946,89.0,0,94,4.0,127.0
8947,41.0,0,528,7.0,127.0
8948,53.0,0,528,7.0,127.0
8949,82.0,192,32,4.0,127.0
8950,94.0,0,32,4.0,127.0
8951,46.0,0,94,6.0,100.0
8952,34.0,0,94,6.0,100.0
8953,46.0,0,94,7.0,127.0
8954,34.0,0,94,7.0,127.0
8955,82.0,0,32,4.0,127.0
8956,94.0,0,32,4.0,127.0
8957,34.0,0,142,6.0,100.0
8958,46.0,192,142,6.0,100.0
8959,34.0,0,142,7.0,127.0
8960,46.0,0,142,7.0,127.0
8961,46.0,0,94,7.0,100.0
8962,34.0,0,94,7.0,100.0
8963,46.0,0,94,7.0,100.0
8964,34.0,192,94,7.0,100.0
8965,85.0,0,352,4.0,100.0
8966,73.0,384,352,4.0,100.0
8967,77.0,192,192,4.0,100.0
8968,89.0,0,192,4.0,100.0
8969,34.0,192,64,7.0,100.0
8970,41.0,64,64,7.0,100.0
8971,49.0,64,64,7.0,100.0
8972,34.0,64,64,7.0,100.0
8973,41.0,64,64,7.0,100.0
8974,73.0,0,352,4.0,100.0
8975,85.0,0,352,4.0,100.0
8976,49.0,64,64,7.0,100.0
8977,34.0,64,64,7.0,100.0
8978,41.0,64,64,7.0,100.0
8979,49.0,64,64,7.0,100.0
8980,82.0,0,192,4.0,100.0
8981,70.0,0,192,4.0,100.0
8982,34.0,64,64,7.0,100.0
8983,41.0,64,64,7.0,100.0
8984,49.0,64,64,7.0,100.0
8985,65.0,0,192,4.0,100.0
8986,77.0,0,192,4.0,100.0
8987,34.0,64,64,7.0,100.0
8988,41.0,64,64,7.0,100.0
8989,49.0,64,64,7.0,100.0
8990,34.0,64,64,7.0,100.0
8991,41.0,64,64,7.0,100.0
8992,70.0,0,384,4.0,100.0
8993,49.0,64,64,7.0,100.0
8994,82.0,0,384,4.0,100.0
8995,34.0,64,64,7.0,100.0
8996,41.0,64,64,7.0,100.0
8997,73.0,0,192,4.0,100.0
8998,85.0,0,192,4.0,100.0
8999,49.0,64,64,7.0,100.0
9000,34.0,0,64,7.0,100.0
9001,41.0,64,64,7.0,100.0
9002,49.0,64,64,7.0,100.0
9003,34.0,64,64,7.0,100.0
9004,41.0,64,64,7.0,100.0
9005,89.0,64,384,4.0,100.0
9006,77.0,0,384,4.0,100.0
9007,49.0,64,64,7.0,100.0
9008,34.0,64,64,7.0,100.0
9009,41.0,64,64,7.0,100.0
9010,85.0,0,192,4.0,100.0
9011,73.0,0,192,4.0,100.0
9012,49.0,64,64,7.0,100.0
9013,34.0,0,64,7.0,100.0
9014,41.0,64,64,7.0,100.0
9015,49.0,64,64,7.0,100.0
9016,34.0,64,64,7.0,100.0
9017,41.0,64,64,7.0,100.0
9018,70.0,0,384,4.0,100.0
9019,82.0,64,384,4.0,100.0
9020,49.0,64,64,7.0,100.0
9021,34.0,64,64,7.0,100.0
9022,41.0,64,64,7.0,100.0
9023,49.0,64,64,7.0,100.0
9024,77.0,0,192,4.0,100.0
9025,65.0,0,192,4.0,100.0
9026,34.0,64,64,7.0,100.0
9027,41.0,64,64,7.0,100.0
9028,49.0,64,64,7.0,100.0
9029,34.0,64,64,7.0,100.0
9030,41.0,64,64,7.0,100.0
9031,70.0,0,384,4.0,100.0
9032,82.0,0,384,4.0,100.0
9033,49.0,64,64,7.0,100.0
9034,32.0,0,64,7.0,100.0
9035,41.0,64,64,7.0,100.0
9036,49.0,64,64,7.0,100.0
9037,85.0,64,192,4.0,100.0
9038,73.0,0,192,4.0,100.0
9039,32.0,0,64,7.0,100.0
9040,41.0,64,64,7.0,100.0
9041,49.0,64,64,7.0,100.0
9042,32.0,64,64,7.0,100.0
9043,41.0,64,64,7.0,100.0
9044,89.0,64,384,4.0,100.0
9045,77.0,0,384,4.0,100.0
9046,49.0,64,64,7.0,100.0
9047,37.0,0,64,7.0,100.0
9048,41.0,64,64,7.0,100.0
9049,92.0,64,192,4.0,100.0
9050,49.0,64,64,7.0,100.0
9051,80.0,0,192,4.0,100.0
9052,37.0,0,64,7.0,100.0
9053,41.0,64,64,7.0,100.0
9054,73.0,64,160,4.0,100.0
9055,85.0,0,160,4.0,100.0
9056,49.0,64,64,7.0,100.0
9057,37.0,64,64,7.0,100.0
9058,41.0,64,64,7.0,100.0
9059,49.0,64,64,7.0,100.0
9060,82.0,64,142,4.0,100.0
9061,70.0,0,142,4.0,100.0
9062,82.0,192,142,4.0,100.0
9063,70.0,0,142,4.0,100.0
9064,49.0,0,352,7.0,100.0
9065,37.0,0,352,7.0,100.0
9066,41.0,0,192,7.0,100.0
9067,53.0,192,192,7.0,100.0
9068,73.0,192,64,4.0,100.0
9069,70.0,64,64,4.0,100.0
9070,65.0,64,64,4.0,100.0
9071,73.0,64,64,4.0,100.0
9072,70.0,64,64,4.0,100.0
9073,37.0,0,352,7.0,100.0
9074,49.0,0,352,7.0,100.0
9075,65.0,64,64,4.0,100.0
9076,77.0,0,64,4.0,100.0
9077,73.0,64,64,4.0,100.0
9078,46.0,0,192,7.0,100.0
9079,34.0,64,192,7.0,100.0
9080,70.0,64,64,4.0,100.0
9081,73.0,0,64,4.0,100.0
9082,70.0,64,64,4.0,100.0
9083,65.0,64,64,4.0,100.0
9084,29.0,64,192,7.0,100.0
9085,41.0,0,192,7.0,100.0
9086,73.0,64,64,4.0,100.0
9087,70.0,64,64,4.0,100.0
9088,65.0,64,64,4.0,100.0
9089,70.0,64,64,4.0,100.0
9090,65.0,64,64,4.0,100.0
9091,34.0,0,384,7.0,100.0
9092,46.0,0,384,7.0,100.0
9093,61.0,64,64,4.0,100.0
9094,65.0,0,64,4.0,100.0
9095,61.0,64,64,4.0,100.0
9096,58.0,64,64,4.0,100.0
9097,37.0,64,192,7.0,100.0
9098,49.0,0,192,7.0,100.0
9099,61.0,64,64,4.0,100.0
9100,70.0,0,64,4.0,100.0
9101,58.0,64,64,4.0,100.0
9102,61.0,64,64,4.0,100.0
9103,70.0,64,64,4.0,100.0
9104,61.0,64,64,4.0,100.0
9105,53.0,0,384,7.0,100.0
9106,41.0,0,384,7.0,100.0
9107,58.0,64,64,4.0,100.0
9108,65.0,0,64,4.0,100.0
9109,73.0,0,64,4.0,100.0
9110,61.0,64,64,4.0,100.0
9111,37.0,0,192,7.0,100.0
9112,49.0,64,192,7.0,100.0
9113,65.0,64,64,4.0,100.0
9114,77.0,0,64,4.0,100.0
9115,73.0,64,64,4.0,100.0
9116,70.0,64,64,4.0,100.0
9117,77.0,64,64,4.0,100.0
9118,73.0,64,64,4.0,100.0
9119,46.0,0,384,7.0,100.0
9120,70.0,64,64,4.0,100.0
9121,34.0,64,384,7.0,100.0
9122,73.0,64,64,4.0,100.0
9123,70.0,64,64,4.0,100.0
9124,29.0,0,192,7.0,100.0
9125,41.0,0,192,7.0,100.0
9126,65.0,64,64,4.0,100.0
9127,70.0,0,64,4.0,100.0
9128,65.0,64,64,4.0,100.0
9129,61.0,64,64,4.0,100.0
9130,70.0,64,64,4.0,100.0
9131,65.0,64,64,4.0,100.0
9132,34.0,64,384,7.0,100.0
9133,46.0,0,384,7.0,100.0
9134,61.0,64,64,4.0,100.0
9135,65.0,0,64,4.0,100.0
9136,61.0,64,64,4.0,100.0
9137,49.0,0,192,7.0,100.0
9138,37.0,64,192,7.0,100.0
9139,58.0,64,64,4.0,100.0
9140,61.0,64,64,4.0,100.0
9141,68.0,0,64,4.0,100.0
9142,56.0,64,64,4.0,100.0
9143,61.0,64,64,4.0,100.0
9144,68.0,64,64,4.0,100.0
9145,65.0,64,64,4.0,100.0
9146,53.0,0,384,7.0,100.0
9147,41.0,0,384,7.0,100.0
9148,61.0,64,64,4.0,100.0
9149,65.0,0,64,4.0,100.0
9150,73.0,0,64,4.0,100.0
9151,61.0,64,64,4.0,100.0
9152,65.0,64,64,4.0,100.0
9153,44.0,64,192,7.0,100.0
9154,56.0,0,192,7.0,100.0
9155,77.0,0,64,4.0,100.0
9156,73.0,64,64,4.0,100.0
9157,49.0,64,160,7.0,100.0
9158,37.0,0,160,7.0,100.0
9159,68.0,64,64,4.0,100.0
9160,77.0,64,64,4.0,100.0
9161,73.0,64,64,4.0,100.0
9162,68.0,64,64,4.0,100.0
9163,80.0,0,64,4.0,100.0
9164,77.0,64,64,4.0,100.0
9165,37.0,0,142,7.0,100.0
9166,49.0,64,142,7.0,100.0
9167,73.0,64,64,4.0,100.0
9168,49.0,0,142,7.0,100.0
9169,37.0,0,142,7.0,100.0
9170,73.0,0,160,4.0,100.0
9171,65.0,64,160,4.0,100.0
9172,37.0,192,64,7.0,100.0
9173,41.0,64,64,7.0,100.0
9174,49.0,64,64,7.0,100.0
9175,37.0,0,64,7.0,100.0
9176,41.0,64,64,7.0,100.0
9177,49.0,64,64,7.0,100.0
9178,37.0,64,64,7.0,100.0
9179,41.0,64,64,7.0,100.0
9180,77.0,64,352,4.0,100.0
9181,89.0,0,352,4.0,100.0
9182,49.0,64,64,7.0,100.0
9183,37.0,0,64,7.0,100.0
9184,41.0,64,64,7.0,100.0
9185,92.0,0,192,4.0,100.0
9186,80.0,64,192,4.0,100.0
9187,49.0,64,64,7.0,100.0
9188,37.0,0,64,7.0,100.0
9189,41.0,64,64,7.0,100.0
9190,49.0,64,64,7.0,100.0
9191,37.0,64,64,7.0,100.0
9192,41.0,64,64,7.0,100.0
9193,49.0,64,64,7.0,100.0
9194,77.0,64,384,4.0,100.0
9195,89.0,0,384,4.0,100.0
9196,37.0,0,64,7.0,100.0
9197,41.0,64,64,7.0,100.0
9198,85.0,64,192,4.0,100.0
9199,73.0,0,192,4.0,100.0
9200,49.0,64,64,7.0,100.0
9201,37.0,0,64,7.0,100.0
9202,41.0,64,64,7.0,100.0
9203,49.0,64,64,7.0,100.0
9204,68.0,64,192,4.0,100.0
9205,80.0,0,192,4.0,100.0
9206,37.0,0,64,7.0,100.0
9207,41.0,64,64,7.0,100.0
9208,49.0,64,64,7.0,100.0
9209,37.0,64,64,7.0,100.0
9210,41.0,64,64,7.0,100.0
9211,85.0,64,384,4.0,100.0
9212,49.0,64,64,7.0,100.0
9213,73.0,0,384,4.0,100.0
9214,32.0,0,64,7.0,100.0
9215,41.0,64,64,7.0,100.0
9216,49.0,64,64,7.0,100.0
9217,89.0,0,192,4.0,100.0
9218,77.0,64,192,4.0,100.0
9219,32.0,64,64,7.0,100.0
9220,41.0,64,64,7.0,100.0
9221,49.0,64,64,7.0,100.0
9222,32.0,64,64,7.0,100.0
9223,41.0,64,64,7.0,100.0
9224,49.0,64,64,7.0,100.0
9225,92.0,0,384,4.0,100.0
9226,80.0,0,384,4.0,100.0
9227,32.0,64,64,7.0,100.0
9228,41.0,64,64,7.0,100.0
9229,77.0,0,192,4.0,100.0
9230,89.0,0,192,4.0,100.0
9231,49.0,64,64,7.0,100.0
9232,34.0,0,64,7.0,100.0
9233,41.0,64,64,7.0,100.0
9234,49.0,64,64,7.0,100.0
9235,34.0,64,64,7.0,100.0
9236,41.0,64,64,7.0,100.0
9237,73.0,64,384,4.0,100.0
9238,85.0,0,384,4.0,100.0
9239,49.0,64,64,7.0,100.0
9240,34.0,0,64,7.0,100.0
9241,41.0,64,64,7.0,100.0
9242,82.0,64,192,4.0,100.0
9243,70.0,0,192,4.0,100.0
9244,49.0,64,64,7.0,100.0
9245,34.0,0,64,7.0,100.0
9246,41.0,64,64,7.0,100.0
9247,49.0,64,64,7.0,100.0
9248,34.0,64,64,7.0,100.0
9249,41.0,64,64,7.0,100.0
9250,49.0,64,64,7.0,100.0
9251,77.0,0,384,4.0,100.0
9252,65.0,64,384,4.0,100.0
9253,34.0,0,64,7.0,100.0
9254,41.0,64,64,7.0,100.0
9255,49.0,64,64,7.0,100.0
9256,70.0,0,192,4.0,100.0
9257,82.0,64,192,4.0,100.0
9258,29.0,64,64,7.0,100.0
9259,41.0,64,64,7.0,100.0
9260,49.0,64,64,7.0,100.0
9261,29.0,64,64,7.0,100.0
9262,41.0,64,64,7.0,100.0
9263,85.0,0,384,4.0,100.0
9264,49.0,64,64,7.0,100.0
9265,73.0,0,384,4.0,100.0
9266,29.0,0,64,7.0,100.0
9267,41.0,64,64,7.0,100.0
9268,49.0,64,64,7.0,100.0
9269,89.0,64,192,4.0,100.0
9270,77.0,0,192,4.0,100.0
9271,34.0,64,64,7.0,100.0
9272,41.0,64,64,7.0,100.0
9273,70.0,0,160,4.0,100.0
9274,82.0,0,160,4.0,100.0
9275,49.0,64,64,7.0,100.0
9276,34.0,64,192,7.0,100.0
9277,61.0,0,142,4.0,100.0
9278,73.0,192,142,4.0,100.0
9279,73.0,192,142,4.0,100.0
9280,61.0,0,142,4.0,100.0
9281,53.0,0,352,7.0,100.0
9282,41.0,0,352,7.0,100.0
9283,61.0,0,64,4.0,100.0
9284,65.0,64,64,4.0,100.0
9285,44.0,0,192,7.0,100.0
9286,73.0,64,64,4.0,100.0
9287,56.0,192,192,7.0,100.0
9288,77.0,0,64,4.0,100.0
9289,73.0,64,64,4.0,100.0
9290,68.0,64,64,4.0,100.0
9291,77.0,64,64,4.0,100.0
9292,73.0,64,64,4.0,100.0
9293,41.0,64,384,7.0,100.0
9294,53.0,0,384,7.0,100.0
9295,68.0,64,64,4.0,100.0
9296,77.0,0,64,4.0,100.0
9297,73.0,64,64,4.0,100.0
9298,80.0,0,160,4.0,100.0
9299,68.0,64,64,4.0,100.0
9300,37.0,0,192,7.0,100.0
9301,49.0,64,192,7.0,100.0
9302,77.0,0,64,4.0,100.0
9303,73.0,64,64,4.0,100.0
9304,32.0,0,192,7.0,100.0
9305,44.0,0,192,7.0,100.0
9306,68.0,64,64,4.0,100.0
9307,77.0,0,64,4.0,100.0
9308,73.0,64,64,4.0,100.0
9309,68.0,64,64,4.0,100.0
9310,73.0,64,64,4.0,100.0
9311,68.0,64,64,4.0,100.0
9312,49.0,0,384,7.0,100.0
9313,37.0,64,384,7.0,100.0
9314,65.0,64,64,4.0,100.0
9315,68.0,0,64,4.0,100.0
9316,61.0,0,64,4.0,100.0
9317,56.0,64,64,4.0,100.0
9318,53.0,64,192,7.0,100.0
9319,41.0,0,192,7.0,100.0
9320,61.0,64,64,4.0,100.0
9321,73.0,0,64,4.0,100.0
9322,65.0,0,64,4.0,100.0
9323,61.0,64,64,4.0,100.0
9324,65.0,64,64,4.0,100.0
9325,73.0,64,64,4.0,100.0
9326,68.0,64,64,4.0,100.0
9327,65.0,64,64,4.0,100.0
9328,56.0,64,384,7.0,100.0
9329,44.0,0,384,7.0,100.0
9330,77.0,64,64,4.0,100.0
9331,73.0,64,64,4.0,100.0
9332,68.0,64,64,4.0,100.0
9333,41.0,0,192,7.0,100.0
9334,53.0,0,192,7.0,100.0
9335,80.0,64,64,4.0,100.0
9336,77.0,64,64,4.0,100.0
9337,73.0,64,64,4.0,100.0
9338,77.0,64,64,4.0,100.0
9339,73.0,64,64,4.0,100.0
9340,37.0,0,384,7.0,100.0
9341,49.0,0,384,7.0,100.0
9342,77.0,64,64,4.0,100.0
9343,77.0,0,64,4.0,100.0
9344,73.0,64,64,4.0,100.0
9345,46.0,0,192,7.0,100.0
9346,65.0,64,64,4.0,100.0
9347,34.0,64,192,7.0,100.0
9348,73.0,0,64,4.0,100.0
9349,70.0,64,64,4.0,100.0
9350,65.0,64,64,4.0,100.0
9351,73.0,64,64,4.0,100.0
9352,70.0,64,64,4.0,100.0
9353,65.0,64,64,4.0,100.0
9354,29.0,0,384,7.0,100.0
9355,41.0,64,384,7.0,100.0
9356,70.0,64,64,4.0,100.0
9357,65.0,64,64,4.0,100.0
9358,34.0,0,192,7.0,100.0
9359,61.0,64,64,4.0,100.0
9360,46.0,0,192,7.0,100.0
9361,65.0,0,64,4.0,100.0
9362,61.0,64,64,4.0,100.0
9363,58.0,64,64,4.0,100.0
9364,65.0,64,64,4.0,100.0
9365,61.0,64,64,4.0,100.0
9366,58.0,64,64,4.0,100.0
9367,49.0,0,384,7.0,100.0
9368,37.0,64,384,7.0,100.0
9369,70.0,0,64,4.0,100.0
9370,61.0,0,64,4.0,100.0
9371,58.0,64,64,4.0,100.0
9372,41.0,64,192,7.0,100.0
9373,53.0,0,192,7.0,100.0
9374,61.0,64,64,4.0,100.0
9375,73.0,0,64,4.0,100.0
9376,70.0,64,64,4.0,100.0
9377,34.0,0,160,7.0,100.0
9378,46.0,64,160,7.0,100.0
9379,65.0,64,64,4.0,100.0
9380,73.0,64,64,4.0,100.0
9381,70.0,64,64,4.0,100.0
9382,65.0,64,64,4.0,100.0
9383,77.0,64,64,4.0,100.0
9384,73.0,64,64,4.0,100.0
9385,65.0,64,64,4.0,100.0
9386,61.0,0,62,7.0,100.0
9387,58.0,64,62,7.0,100.0
9388,70.0,64,160,4.0,100.0
9389,53.0,64,62,7.0,100.0
9390,61.0,64,62,7.0,100.0
9391,58.0,64,62,7.0,100.0
9392,53.0,64,62,7.0,100.0
9393,65.0,64,62,7.0,100.0
9394,61.0,64,62,7.0,100.0
9395,53.0,64,62,7.0,100.0
9396,70.0,0,32,4.0,100.0
9397,58.0,64,94,7.0,100.0
9398,73.0,0,32,4.0,100.0
9399,61.0,192,94,7.0,100.0
9400,72.0,0,32,4.0,100.0
9401,60.0,192,94,7.0,100.0
9402,65.0,0,32,4.0,100.0
9403,53.0,192,94,7.0,100.0
9404,77.0,192,32,4.0,100.0
9405,65.0,0,94,7.0,100.0
9406,75.0,192,32,4.0,100.0
9407,63.0,0,94,7.0,100.0
9408,73.0,192,32,4.0,100.0
9409,61.0,0,94,7.0,100.0
9410,72.0,192,32,4.0,100.0
9411,60.0,0,94,7.0,100.0
9412,70.0,192,32,4.0,100.0
9413,58.0,0,94,7.0,100.0
9414,73.0,192,32,4.0,100.0
9415,61.0,0,94,7.0,100.0
9416,72.0,0,32,4.0,100.0
9417,60.0,192,94,7.0,100.0
9418,68.0,192,32,4.0,100.0
9419,56.0,0,94,7.0,100.0
9420,72.0,192,32,4.0,100.0
9421,60.0,0,94,7.0,100.0
9422,67.0,192,94,4.0,100.0
9423,55.0,0,94,7.0,100.0
9424,53.0,0,336,7.0,127.0
9425,65.0,192,336,4.0,127.0
9426,41.0,0,94,7.0,100.0
9427,53.0,384,94,7.0,100.0
9428,68.0,0,94,4.0,100.0
9429,72.0,96,94,4.0,100.0
9430,65.0,0,94,4.0,100.0
9431,56.0,0,94,7.0,100.0
9432,44.0,96,94,7.0,100.0
9433,65.0,0,94,4.0,100.0
9434,72.0,96,94,4.0,100.0
9435,68.0,0,94,4.0,100.0
9436,55.0,96,94,7.0,100.0
9437,43.0,0,94,7.0,100.0
9438,64.0,96,94,4.0,100.0
9439,70.0,0,94,4.0,100.0
9440,72.0,0,94,4.0,100.0
9441,36.0,0,94,7.0,100.0
9442,48.0,96,94,7.0,100.0
9443,64.0,0,94,4.0,100.0
9444,67.0,96,94,4.0,100.0
9445,70.0,0,94,4.0,100.0
9446,72.0,0,94,4.0,100.0
9447,60.0,0,94,7.0,100.0
9448,48.0,96,94,7.0,100.0
9449,72.0,0,94,4.0,100.0
9450,64.0,0,94,4.0,100.0
9451,67.0,96,94,4.0,100.0
9452,46.0,96,94,7.0,100.0
9453,58.0,0,94,7.0,100.0
9454,64.0,0,94,4.0,100.0
9455,67.0,96,94,4.0,100.0
9456,72.0,0,94,4.0,100.0
9457,44.0,96,94,7.0,100.0
9458,56.0,0,94,7.0,100.0
9459,65.0,96,94,4.0,100.0
9460,72.0,0,94,4.0,100.0
9461,68.0,0,94,4.0,100.0
9462,55.0,0,94,7.0,100.0
9463,43.0,96,94,7.0,100.0
9464,64.0,0,94,4.0,100.0
9465,70.0,0,94,4.0,100.0
9466,72.0,96,94,4.0,100.0
9467,41.0,0,94,7.0,100.0
9468,53.0,96,94,7.0,100.0
9469,72.0,0,94,4.0,100.0
9470,68.0,0,94,4.0,100.0
9471,65.0,96,94,4.0,100.0
9472,44.0,0,94,7.0,100.0
9473,56.0,96,94,7.0,100.0
9474,68.0,0,94,4.0,100.0
9475,65.0,0,94,4.0,100.0
9476,72.0,0,94,4.0,100.0
9477,77.0,96,94,4.0,100.0
9478,43.0,96,94,7.0,100.0
9479,55.0,0,94,7.0,100.0
9480,65.0,0,94,4.0,100.0
9481,70.0,96,94,4.0,100.0
9482,77.0,0,94,4.0,100.0
9483,72.0,0,94,4.0,100.0
9484,48.0,96,94,7.0,100.0
9485,60.0,0,94,7.0,100.0
9486,72.0,0,94,4.0,100.0
9487,70.0,0,94,4.0,100.0
9488,76.0,96,94,4.0,100.0
9489,64.0,0,94,4.0,100.0
9490,57.0,0,94,7.0,100.0
9491,45.0,96,94,7.0,100.0
9492,77.0,0,94,4.0,100.0
9493,72.0,0,94,4.0,100.0
9494,65.0,96,94,4.0,100.0
9495,53.0,96,94,7.0,100.0
9496,41.0,0,94,7.0,100.0
9497,65.0,96,94,4.0,100.0
9498,72.0,0,94,4.0,100.0
9499,75.0,0,94,4.0,100.0
9500,58.0,96,94,7.0,100.0
9501,46.0,0,94,7.0,100.0
9502,65.0,96,94,4.0,100.0
9503,70.0,0,94,4.0,100.0
9504,73.0,0,94,4.0,100.0
9505,48.0,96,94,7.0,100.0
9506,60.0,0,94,7.0,100.0
9507,72.0,0,94,4.0,100.0
9508,69.0,0,94,4.0,100.0
9509,63.0,96,94,4.0,100.0
9510,77.0,0,94,4.0,127.0
9511,49.0,96,94,7.0,100.0
9512,70.0,0,94,4.0,127.0
9513,82.0,0,94,4.0,127.0
9514,61.0,96,94,7.0,100.0
9515,48.0,0,94,7.0,100.0
9516,73.0,0,94,4.0,127.0
9517,77.0,0,94,4.0,127.0
9518,82.0,0,94,4.0,127.0
9519,85.0,96,94,4.0,127.0
9520,58.0,96,94,7.0,100.0
9521,41.0,0,94,7.0,100.0
9522,77.0,0,94,4.0,127.0
9523,81.0,96,94,4.0,127.0
9524,84.0,0,94,4.0,127.0
9525,72.0,0,94,4.0,127.0
9526,53.0,96,94,7.0,100.0
9527,39.0,0,94,7.0,100.0
9528,69.0,96,94,4.0,127.0
9529,65.0,0,94,4.0,127.0
9530,72.0,0,94,4.0,127.0
9531,77.0,0,94,4.0,127.0
9532,51.0,96,94,7.0,100.0
9533,82.0,96,94,4.0,127.0
9534,37.0,0,94,7.0,100.0
9535,89.0,0,94,4.0,127.0
9536,77.0,0,94,4.0,127.0
9537,49.0,96,94,7.0,100.0
9538,75.0,0,94,4.0,127.0
9539,77.0,0,94,4.0,127.0
9540,81.0,0,94,4.0,127.0
9541,87.0,96,94,4.0,127.0
9542,36.0,0,94,7.0,100.0
9543,48.0,96,94,7.0,100.0
9544,85.0,0,94,4.0,127.0
9545,82.0,0,94,4.0,127.0
9546,73.0,96,94,4.0,127.0
9547,77.0,0,94,4.0,127.0
9548,34.0,0,94,7.0,100.0
9549,46.0,96,94,7.0,100.0
9550,33.0,96,94,7.0,100.0
9551,77.0,0,94,4.0,127.0
9552,84.0,0,94,4.0,127.0
9553,72.0,0,94,4.0,127.0
9554,45.0,96,94,7.0,100.0
9555,73.0,0,94,4.0,127.0
9556,77.0,0,94,4.0,127.0
9557,82.0,0,94,4.0,127.0
9558,34.0,0,94,7.0,100.0
9559,70.0,96,94,4.0,127.0
9560,46.0,96,94,7.0,100.0
9561,77.0,0,94,4.0,127.0
9562,34.0,96,94,7.0,100.0
9563,73.0,0,94,4.0,127.0
9564,82.0,0,94,4.0,127.0
9565,85.0,0,94,4.0,127.0
9566,46.0,96,94,7.0,100.0
9567,77.0,0,94,4.0,127.0
9568,33.0,96,94,7.0,100.0
9569,72.0,0,94,4.0,127.0
9570,84.0,0,94,4.0,127.0
9571,45.0,96,94,7.0,100.0
9572,65.0,0,94,4.0,127.0
9573,72.0,0,94,4.0,127.0
9574,77.0,0,94,4.0,127.0
9575,39.0,0,94,7.0,100.0
9576,69.0,96,94,4.0,127.0
9577,51.0,96,94,7.0,100.0
9578,37.0,0,94,7.0,100.0
9579,89.0,0,94,4.0,127.0
9580,77.0,96,94,4.0,127.0
9581,49.0,96,94,7.0,100.0
9582,34.0,96,94,7.0,100.0
9583,73.0,0,94,4.0,127.0
9584,82.0,0,94,4.0,127.0
9585,85.0,0,94,4.0,127.0
9586,46.0,96,94,7.0,100.0
9587,84.0,0,336,4.0,127.0
9588,81.0,0,336,4.0,127.0
9589,72.0,96,336,4.0,127.0
9590,53.0,0,336,7.0,100.0
9591,41.0,0,336,7.0,100.0
9592,61.0,384,94,7.0,100.0
9593,89.0,0,94,4.0,127.0
9594,77.0,0,94,4.0,127.0
9595,73.0,96,94,7.0,100.0
9596,58.0,0,94,7.0,100.0
9597,85.0,96,94,4.0,127.0
9598,82.0,0,94,4.0,127.0
9599,70.0,96,94,7.0,100.0
9600,84.0,96,336,4.0,127.0
9601,81.0,0,336,4.0,127.0
9602,77.0,0,160,6.0,127.0
9603,77.0,192,160,7.0,127.0
9604,72.0,0,336,4.0,127.0
9605,69.0,192,336,4.0,127.0
9606,65.0,192,160,7.0,127.0
9607,57.0,192,336,4.0,127.0
9608,60.0,0,336,4.0,127.0
9609,53.0,192,160,7.0,127.0
9610,45.0,0,336,4.0,127.0
9611,48.0,192,336,4.0,127.0
9612,41.0,192,160,7.0,127.0
9613,41.0,0,160,6.0,127.0
9614,33.0,192,928,4.0,127.0
9615,29.0,192,736,7.0,127.0
9616,36.0,0,928,4.0,127.0
9617,29.0,0,736,6.0,127.0
9618,29.0,768,62,7.0,100.0
9619,31.0,64,62,7.0,100.0
9620,33.0,64,62,7.0,100.0
9621,34.0,64,94,7.0,100.0
9622,36.0,96,94,7.0,100.0
9623,38.0,96,94,7.0,100.0
9624,40.0,96,94,7.0,100.0
9625,41.0,96,62,4.0,100.0
9626,43.0,64,62,4.0,100.0
9627,45.0,64,62,4.0,100.0
9628,46.0,64,94,4.0,100.0
9629,48.0,96,94,4.0,100.0
9630,50.0,96,94,4.0,100.0
9631,52.0,96,94,4.0,100.0
9632,53.0,96,62,7.0,100.0
9633,55.0,64,62,7.0,100.0
9634,57.0,64,62,7.0,100.0
9635,58.0,64,94,7.0,100.0
9636,60.0,96,94,7.0,100.0
9637,62.0,96,94,7.0,100.0
9638,64.0,96,94,7.0,100.0
9639,65.0,96,62,4.0,100.0
9640,67.0,64,62,4.0,100.0
9641,69.0,64,62,4.0,100.0
9642,70.0,64,94,4.0,100.0
9643,72.0,96,94,4.0,100.0
9644,74.0,96,94,4.0,100.0
9645,76.0,96,94,4.0,100.0
9646,77.0,96,62,7.0,100.0
9647,79.0,64,62,7.0,100.0
9648,81.0,64,62,7.0,100.0
9649,82.0,64,94,7.0,100.0
9650,84.0,96,94,7.0,100.0
9651,86.0,96,94,7.0,100.0
9652,88.0,96,94,7.0,100.0
9653,89.0,96,62,4.0,100.0
9654,65.0,0,62,7.0,100.0
9655,67.0,0,62,7.0,100.0
9656,91.0,64,62,4.0,100.0
9657,69.0,64,62,7.0,100.0
9658,93.0,0,62,4.0,100.0
9659,94.0,0,94,4.0,100.0
9660,70.0,64,94,7.0,100.0
9661,72.0,96,94,7.0,100.0
9662,96.0,0,94,4.0,100.0
9663,98.0,0,94,4.0,100.0
9664,74.0,96,94,7.0,100.0
9665,100.0,0,94,4.0,100.0
9666,76.0,96,94,7.0,100.0
9667,101.0,0,94,4.0,127.0
9668,77.0,96,94,7.0,127.0
9669,75.0,0,46,4.0,127.0
9670,78.0,192,46,4.0,127.0
9671,53.0,0,46,7.0,100.0
9672,69.0,48,46,4.0,100.0
9673,63.0,0,46,7.0,100.0
9674,78.0,0,46,4.0,100.0
9675,53.0,0,46,7.0,100.0
9676,75.0,48,46,4.0,100.0
9677,63.0,0,46,7.0,100.0
9678,69.0,48,46,4.0,100.0
9679,75.0,0,46,4.0,127.0
9680,53.0,48,46,7.0,100.0
9681,78.0,0,46,4.0,127.0
9682,63.0,0,46,7.0,100.0
9683,69.0,48,46,4.0,100.0
9684,75.0,48,46,4.0,100.0
9685,78.0,0,46,4.0,100.0
9686,53.0,0,46,7.0,100.0
9687,69.0,48,46,4.0,100.0
9688,63.0,0,46,7.0,100.0
9689,53.0,0,46,7.0,100.0
9690,75.0,48,46,4.0,127.0
9691,78.0,0,46,4.0,127.0
9692,69.0,48,46,4.0,100.0
9693,63.0,0,46,7.0,100.0
9694,78.0,0,46,4.0,100.0
9695,53.0,48,46,7.0,100.0
9696,75.0,0,46,4.0,100.0
9697,63.0,0,46,7.0,100.0
9698,69.0,48,46,4.0,127.0
9699,58.0,0,144,7.0,100.0
9700,62.0,0,144,7.0,100.0
9701,74.0,624,144,4.0,100.0
9702,77.0,0,0,4.0,100.0
9703,60.0,0,48,7.0,100.0
9704,53.0,0,48,7.0,100.0
9705,69.0,144,48,4.0,100.0
9706,72.0,48,192,4.0,100.0
9707,57.0,0,192,7.0,100.0
9708,60.0,0,192,7.0,100.0
9709,74.0,192,94,4.0,100.0
9710,65.0,0,94,4.0,100.0
9711,62.0,0,94,7.0,100.0
9712,58.0,0,94,7.0,100.0
9713,55.0,0,144,7.0,100.0
9714,70.0,192,144,4.0,100.0
9715,58.0,0,144,7.0,100.0
9716,74.0,48,0,4.0,100.0
9717,66.0,0,48,4.0,100.0
9718,50.0,144,48,7.0,100.0
9719,57.0,0,48,7.0,100.0
9720,57.0,0,192,7.0,100.0
9721,69.0,0,192,4.0,100.0
9722,54.0,0,192,7.0,100.0
9723,70.0,0,94,4.0,100.0
9724,55.0,192,94,7.0,100.0
9725,62.0,0,94,4.0,100.0
9726,58.0,0,94,7.0,100.0
9727,55.0,192,144,7.0,100.0
9728,51.0,0,144,7.0,100.0
9729,67.0,0,144,4.0,100.0
9730,62.0,0,48,4.0,100.0
9731,46.0,0,48,7.0,100.0
9732,53.0,0,48,7.0,100.0
9733,70.0,0,0,4.0,100.0
9734,65.0,48,192,4.0,100.0
9735,53.0,0,192,7.0,100.0
9736,50.0,0,192,7.0,100.0
9737,51.0,0,94,7.0,100.0
9738,67.0,192,94,4.0,100.0
9739,58.0,0,94,4.0,100.0
9740,55.0,0,94,7.0,100.0
9741,58.0,0,144,4.0,100.0
9742,67.0,192,144,4.0,100.0
9743,51.0,0,144,7.0,100.0
9744,55.0,0,144,7.0,100.0
9745,69.0,144,48,4.0,100.0
9746,53.0,0,48,7.0,100.0
9747,63.0,0,48,4.0,100.0
9748,48.0,48,0,7.0,100.0
9749,63.0,0,192,4.0,100.0
9750,69.0,0,192,4.0,100.0
9751,58.0,192,94,4.0,100.0
9752,70.0,0,94,4.0,100.0
9753,53.0,0,286,7.0,100.0
9754,50.0,0,94,7.0,100.0
9755,70.0,0,144,4.0,100.0
9756,50.0,192,144,7.0,100.0
9757,65.0,0,160,4.0,100.0
9758,53.0,0,160,7.0,100.0
9759,45.0,48,0,7.0,100.0
9760,72.0,0,0,4.0,100.0
9761,65.0,0,192,4.0,100.0
9762,53.0,0,286,7.0,100.0
9763,44.0,192,94,7.0,100.0
9764,65.0,0,94,4.0,100.0
9765,70.0,0,94,4.0,100.0
9766,74.0,0,94,4.0,100.0
9767,44.0,0,144,7.0,100.0
9768,53.0,192,144,7.0,100.0
9769,74.0,0,144,4.0,100.0
9770,70.0,0,160,4.0,100.0
9771,51.0,0,48,7.0,100.0
9772,43.0,0,48,7.0,100.0
9773,75.0,0,0,4.0,100.0
9774,43.0,48,192,7.0,100.0
9775,51.0,0,192,7.0,100.0
9776,70.0,0,0,4.0,100.0
9777,65.0,0,94,4.0,100.0
9778,73.0,0,94,4.0,100.0
9779,77.0,0,94,4.0,100.0
9780,49.0,192,94,7.0,100.0
9781,41.0,0,94,7.0,100.0
9782,40.0,0,94,7.0,127.0
9783,48.0,192,94,7.0,127.0
9784,70.0,0,94,4.0,127.0
9785,79.0,0,94,4.0,127.0
9786,67.0,0,94,4.0,127.0
9787,72.0,0,94,4.0,127.0
9788,72.0,192,94,4.0,127.0
9789,69.0,0,94,4.0,127.0
9790,41.0,0,94,7.0,127.0
9791,53.0,0,94,7.0,127.0
9792,60.0,0,94,4.0,127.0
9793,86.0,384,144,4.0,100.0
9794,74.0,0,144,7.0,100.0
9795,70.0,0,144,7.0,100.0
9796,89.0,48,0,4.0,100.0
9797,81.0,0,48,4.0,100.0
9798,65.0,0,48,7.0,100.0
9799,72.0,0,48,7.0,100.0
9800,72.0,0,192,7.0,100.0
9801,69.0,0,192,7.0,100.0
9802,77.0,96,190,4.0,100.0
9803,74.0,0,94,7.0,100.0
9804,70.0,0,94,7.0,100.0
9805,86.0,96,94,4.0,100.0
9806,82.0,192,144,4.0,100.0
9807,70.0,0,144,7.0,100.0
9808,67.0,0,144,7.0,100.0
9809,62.0,0,48,7.0,100.0
9810,69.0,0,48,7.0,100.0
9811,78.0,0,48,4.0,100.0
9812,86.0,144,48,4.0,100.0
9813,86.0,48,160,4.0,100.0
9814,66.0,0,192,7.0,100.0
9815,69.0,0,192,7.0,100.0
9816,67.0,0,94,7.0,100.0
9817,74.0,96,190,4.0,100.0
9818,70.0,0,94,7.0,100.0
9819,82.0,96,94,4.0,100.0
9820,79.0,0,144,4.0,100.0
9821,63.0,192,144,7.0,100.0
9822,67.0,0,144,7.0,100.0
9823,74.0,0,48,4.0,100.0
9824,58.0,0,48,7.0,100.0
9825,82.0,48,0,4.0,100.0
9826,65.0,0,0,7.0,100.0
9827,62.0,0,192,7.0,100.0
9828,79.0,0,94,4.0,100.0
9829,70.0,96,190,4.0,100.0
9830,67.0,0,94,7.0,100.0
9831,63.0,96,94,7.0,100.0
9832,67.0,0,144,7.0,100.0
9833,63.0,0,144,7.0,100.0
9834,70.0,192,144,4.0,100.0
9835,79.0,0,144,4.0,100.0
9836,65.0,0,48,7.0,100.0
9837,60.0,0,48,7.0,100.0
9838,75.0,0,48,4.0,100.0
9839,81.0,144,48,4.0,100.0
9840,81.0,48,160,4.0,100.0
9841,60.0,0,192,7.0,100.0
9842,75.0,96,96,4.0,100.0
9843,65.0,0,286,7.0,100.0
9844,62.0,96,94,7.0,100.0
9845,70.0,0,94,4.0,100.0
9846,82.0,0,94,4.0,100.0
9847,82.0,0,144,4.0,100.0
9848,74.0,192,144,7.0,100.0
9849,77.0,0,160,4.0,100.0
9850,69.0,0,48,7.0,100.0
9851,72.0,0,48,7.0,100.0
9852,84.0,48,0,4.0,100.0
9853,72.0,0,192,7.0,100.0
9854,69.0,0,192,7.0,100.0
9855,75.0,96,190,4.0,100.0
9856,86.0,0,94,4.0,100.0
9857,70.0,0,94,7.0,100.0
9858,68.0,96,94,7.0,100.0
9859,70.0,144,0,7.0,100.0
9860,67.0,192,144,7.0,100.0
9861,87.0,0,144,4.0,100.0
9862,82.0,0,160,4.0,100.0
9863,88.0,48,0,4.0,100.0
9864,70.0,0,0,7.0,100.0
9865,66.0,0,0,7.0,100.0
9866,82.0,96,96,4.0,100.0
9867,72.0,0,94,7.0,100.0
9868,65.0,96,94,7.0,100.0
9869,89.0,0,94,4.0,100.0
9870,81.0,0,96,4.0,100.0
9871,48.0,0,94,7.0,127.0
9872,60.0,0,94,7.0,127.0
9873,91.0,0,96,4.0,127.0
9874,88.0,0,96,4.0,127.0
9875,82.0,192,96,4.0,127.0
9876,79.0,0,96,4.0,127.0
9877,77.0,0,94,4.0,127.0
9878,81.0,0,94,4.0,127.0
9879,65.0,192,94,7.0,127.0
9880,53.0,0,94,7.0,127.0
9881,89.0,0,94,4.0,127.0
9882,74.0,0,144,4.0,127.0
9883,71.0,384,144,4.0,127.0
9884,77.0,0,48,4.0,100.0
9885,74.0,144,48,4.0,100.0
9886,65.0,0,286,7.0,127.0
9887,53.0,0,286,7.0,127.0
9888,53.0,96,96,7.0,100.0
9889,74.0,0,192,4.0,100.0
9890,77.0,48,192,4.0,100.0
9891,74.0,0,94,4.0,100.0
9892,71.0,0,94,4.0,100.0
9893,65.0,96,94,7.0,100.0
9894,71.0,0,144,4.0,127.0
9895,74.0,192,144,4.0,127.0
9896,79.0,144,48,4.0,100.0
9897,75.0,48,0,4.0,100.0
9898,41.0,0,286,7.0,127.0
9899,53.0,0,286,7.0,127.0
9900,41.0,96,96,7.0,100.0
9901,79.0,0,192,4.0,100.0
9902,72.0,0,94,4.0,100.0
9903,53.0,96,94,7.0,100.0
9904,75.0,0,94,4.0,100.0
9905,69.0,192,144,4.0,127.0
9906,72.0,144,0,4.0,100.0
9907,75.0,0,48,4.0,100.0
9908,41.0,0,286,7.0,127.0
9909,53.0,0,286,7.0,127.0
9910,75.0,0,160,4.0,100.0
9911,72.0,48,160,4.0,100.0
9912,41.0,0,96,7.0,100.0
9913,53.0,0,94,7.0,100.0
9914,63.0,96,190,4.0,100.0
9915,72.0,0,94,4.0,100.0
9916,69.0,96,94,4.0,100.0
9917,69.0,0,144,4.0,127.0
9918,72.0,0,144,4.0,127.0
9919,77.0,144,48,4.0,100.0
9920,73.0,0,48,4.0,100.0
9921,29.0,192,286,7.0,127.0
9922,41.0,0,286,7.0,127.0
9923,77.0,0,160,4.0,100.0
9924,74.0,48,160,4.0,100.0
9925,29.0,0,96,7.0,100.0
9926,41.0,0,94,7.0,100.0
9927,65.0,96,190,4.0,100.0
9928,70.0,0,94,4.0,100.0
9929,74.0,96,94,4.0,100.0
9930,60.0,192,144,4.0,100.0
9931,57.0,0,144,4.0,100.0
9932,63.0,0,0,4.0,100.0
9933,60.0,48,0,4.0,100.0
9934,42.0,0,352,7.0,100.0
9935,30.0,0,352,7.0,100.0
9936,58.0,0,192,4.0,100.0
9937,62.0,192,192,4.0,100.0
9938,31.0,192,576,7.0,100.0
9939,60.0,0,192,4.0,100.0
9940,57.0,192,192,4.0,100.0
9941,43.0,0,576,7.0,100.0
9942,55.0,0,192,4.0,100.0
9943,33.0,0,192,7.0,100.0
9944,45.0,192,192,7.0,100.0
9945,58.0,0,192,4.0,100.0
9946,46.0,0,192,7.0,100.0
9947,34.0,192,192,7.0,100.0
9948,35.0,192,192,7.0,100.0
9949,47.0,0,192,7.0,100.0
9950,53.0,0,384,4.0,100.0
9951,57.0,0,384,4.0,100.0
9952,55.0,192,0,4.0,100.0
9953,52.0,0,192,4.0,100.0
9954,48.0,192,192,7.0,100.0
9955,36.0,0,192,7.0,100.0
9956,36.0,0,192,7.0,100.0
9957,51.0,0,0,4.0,100.0
9958,60.0,0,384,4.0,100.0
9959,43.0,192,336,7.0,100.0
9960,50.0,192,160,4.0,100.0
9961,59.0,0,160,4.0,100.0
9962,59.0,768,144,4.0,100.0
9963,62.0,48,0,4.0,100.0
9964,59.0,192,94,4.0,100.0
9965,71.0,0,144,4.0,100.0
9966,43.0,0,144,7.0,100.0
9967,47.0,48,0,7.0,100.0
9968,74.0,0,0,4.0,100.0
9969,62.0,96,0,4.0,100.0
9970,55.0,192,448,7.0,100.0
9971,71.0,0,94,4.0,100.0
9972,43.0,96,94,7.0,100.0
9973,72.0,192,144,7.0,100.0
9974,84.0,0,144,4.0,100.0
9975,75.0,144,48,7.0,100.0
9976,87.0,48,0,4.0,100.0
9977,75.0,0,192,7.0,100.0
9978,72.0,0,94,7.0,100.0
9979,84.0,192,94,4.0,100.0
9980,62.0,192,144,4.0,100.0
9981,71.0,0,144,4.0,100.0
9982,65.0,144,48,4.0,100.0
9983,74.0,0,48,4.0,100.0
9984,43.0,0,286,7.0,127.0
9985,55.0,0,286,7.0,127.0
9986,74.0,0,192,4.0,100.0
9987,65.0,48,192,4.0,100.0
9988,43.0,96,96,7.0,100.0
9989,71.0,96,94,4.0,100.0
9990,62.0,0,94,4.0,100.0
9991,55.0,0,94,7.0,100.0
9992,71.0,192,144,4.0,100.0
9993,62.0,0,144,4.0,100.0
9994,67.0,0,48,4.0,100.0
9995,75.0,144,48,4.0,100.0
9996,36.0,0,286,7.0,127.0
9997,48.0,0,286,7.0,127.0
9998,36.0,96,96,7.0,100.0
9999,67.0,0,192,4.0,100.0
10000,75.0,48,192,4.0,100.0
10001,48.0,96,94,7.0,100.0
10002,63.0,0,94,4.0,100.0
10003,72.0,0,94,4.0,100.0
10004,69.0,0,144,4.0,100.0
10005,72.0,0,0,4.0,100.0
10006,81.0,144,48,4.0,100.0
10007,29.0,0,286,7.0,127.0
10008,41.0,192,286,7.0,127.0
10009,41.0,96,96,7.0,100.0
10010,72.0,48,192,4.0,100.0
10011,81.0,0,192,4.0,100.0
10012,77.0,0,94,4.0,100.0
10013,53.0,96,94,7.0,100.0
10014,69.0,0,94,4.0,100.0
10015,70.0,192,94,4.0,127.0
10016,82.0,0,94,4.0,127.0
10017,34.0,0,94,7.0,127.0
10018,46.0,0,94,7.0,127.0
10019,82.0,0,94,4.0,127.0
10020,70.0,0,94,4.0,127.0
10021,46.0,192,94,7.0,127.0
10022,34.0,0,94,7.0,127.0
10023,86.0,144,0,4.0,100.0
10024,83.0,0,144,4.0,100.0
10025,89.0,0,0,4.0,100.0
10026,86.0,48,0,4.0,100.0
10027,77.0,0,286,7.0,127.0
10028,65.0,0,286,7.0,127.0
10029,65.0,96,96,7.0,100.0
10030,77.0,96,94,7.0,100.0
10031,86.0,0,94,4.0,100.0
10032,83.0,0,94,4.0,100.0
10033,86.0,0,144,4.0,100.0
10034,83.0,0,144,4.0,100.0
10035,87.0,144,48,4.0,100.0
10036,91.0,0,48,4.0,100.0
10037,53.0,0,286,7.0,127.0
10038,65.0,192,286,7.0,127.0
10039,53.0,96,96,7.0,100.0
10040,87.0,96,0,4.0,100.0
10041,91.0,0,192,4.0,100.0
10042,65.0,0,94,7.0,100.0
10043,84.0,0,94,4.0,100.0
10044,81.0,192,144,4.0,100.0
10045,84.0,0,144,4.0,100.0
10046,84.0,144,48,4.0,100.0
10047,87.0,0,48,4.0,100.0
10048,53.0,0,286,7.0,127.0
10049,65.0,0,286,7.0,127.0
10050,84.0,48,160,4.0,100.0
10051,87.0,0,160,4.0,100.0
10052,53.0,0,96,7.0,100.0
10053,84.0,0,94,4.0,100.0
10054,65.0,96,94,7.0,100.0
10055,81.0,0,94,4.0,100.0
10056,75.0,96,190,4.0,100.0
10057,84.0,0,144,4.0,100.0
10058,81.0,192,144,4.0,100.0
10059,89.0,48,0,4.0,100.0
10060,85.0,0,48,4.0,100.0
10061,41.0,0,286,7.0,127.0
10062,53.0,0,286,7.0,127.0
10063,86.0,0,160,4.0,100.0
10064,41.0,96,94,7.0,100.0
10065,53.0,96,94,7.0,100.0
10066,86.0,0,94,4.0,100.0
10067,82.0,0,94,4.0,100.0
10068,77.0,0,190,4.0,100.0
10069,72.0,0,0,4.0,100.0
10070,69.0,192,144,4.0,100.0
10071,75.0,144,48,4.0,100.0
10072,72.0,0,0,4.0,100.0
10073,54.0,0,352,7.0,100.0
10074,60.0,0,352,7.0,100.0
10075,63.0,0,352,7.0,100.0
10076,63.0,0,192,7.0,100.0
10077,60.0,0,192,7.0,100.0
10078,54.0,192,192,7.0,100.0
10079,75.0,48,384,4.0,100.0
10080,58.0,0,192,7.0,100.0
10081,70.0,0,192,4.0,100.0
10082,74.0,0,192,4.0,100.0
10083,55.0,0,192,7.0,100.0
10084,62.0,192,192,7.0,100.0
10085,60.0,0,96,7.0,100.0
10086,57.0,0,96,7.0,100.0
10087,69.0,192,192,4.0,100.0
10088,45.0,96,96,7.0,100.0
10089,72.0,0,192,4.0,100.0
10090,46.0,0,192,7.0,100.0
10091,55.0,96,192,7.0,100.0
10092,67.0,0,192,4.0,100.0
10093,70.0,0,192,4.0,100.0
10094,58.0,0,192,7.0,100.0
10095,47.0,0,192,7.0,100.0
10096,69.0,192,384,4.0,100.0
10097,65.0,0,384,4.0,100.0
10098,53.0,0,384,7.0,100.0
10099,57.0,0,384,7.0,100.0
10100,48.0,192,336,7.0,100.0
10101,52.0,0,192,7.0,100.0
10102,64.0,192,192,4.0,100.0
10103,67.0,0,192,4.0,100.0
10104,55.0,0,0,7.0,90.0
10105,48.0,0,160,7.0,90.0
10106,51.0,0,192,7.0,90.0
10107,67.0,0,192,4.0,90.0
10108,60.0,192,384,7.0,90.0
10109,63.0,0,384,4.0,90.0
10110,72.0,0,384,4.0,90.0
10111,55.0,192,336,7.0,90.0
10112,59.0,192,160,7.0,90.0
10113,67.0,0,352,4.0,90.0
10114,71.0,0,160,4.0,90.0
10115,62.0,0,160,4.0,90.0
10116,71.0,768,144,4.0,90.0
10117,74.0,144,48,4.0,90.0
10118,74.0,48,192,4.0,90.0
10119,71.0,192,94,4.0,90.0
10120,31.0,0,144,7.0,90.0
10121,59.0,0,144,4.0,90.0
10122,35.0,48,0,7.0,90.0
10123,62.0,0,0,4.0,90.0
10124,50.0,192,286,4.0,90.0
10125,43.0,0,448,7.0,90.0
10126,31.0,0,94,7.0,90.0
10127,59.0,96,94,4.0,90.0
10128,50.0,96,190,4.0,90.0
10129,72.0,192,144,7.0,90.0
10130,84.0,0,144,4.0,100.0
10131,87.0,48,0,4.0,100.0
10132,75.0,0,48,7.0,90.0
10133,75.0,0,192,7.0,90.0
10134,84.0,192,94,4.0,100.0
10135,72.0,0,94,7.0,90.0
10136,83.0,192,142,4.0,100.0
10137,74.0,0,142,4.0,100.0
10138,86.0,0,46,4.0,100.0
10139,77.0,144,46,4.0,100.0
10140,55.0,0,286,7.0,126.0
10141,67.0,0,286,7.0,126.0
10142,86.0,48,160,4.0,100.0
10143,77.0,0,160,4.0,100.0
10144,55.0,96,96,7.0,90.0
10145,74.0,0,94,4.0,100.0
10146,67.0,96,94,7.0,90.0
10147,83.0,0,94,4.0,100.0
10148,74.0,0,144,4.0,127.0
10149,83.0,0,144,4.0,127.0
10150,87.0,48,0,4.0,127.0
10151,79.0,0,0,4.0,127.0
10152,48.0,192,286,7.0,126.0
10153,60.0,0,286,7.0,126.0
10154,48.0,96,96,7.0,126.0
10155,75.0,0,94,4.0,127.0
10156,84.0,0,94,4.0,127.0
10157,60.0,96,94,7.0,126.0
10158,81.0,0,144,4.0,127.0
10159,84.0,192,144,4.0,127.0
10160,93.0,0,48,4.0,127.0
10161,84.0,48,0,4.0,127.0
10162,53.0,0,286,7.0,126.0
10163,41.0,0,286,7.0,126.0
10164,93.0,0,192,4.0,127.0
10165,41.0,96,96,7.0,126.0
10166,81.0,0,94,4.0,127.0
10167,89.0,96,94,4.0,127.0
10168,53.0,0,94,7.0,126.0
10169,94.0,192,94,4.0,127.0
10170,82.0,0,94,4.0,127.0
10171,46.0,0,94,7.0,126.0
10172,34.0,0,94,7.0,126.0
10173,46.0,0,94,7.0,126.0
10174,34.0,0,94,7.0,126.0
10175,94.0,192,94,4.0,127.0
10176,82.0,0,94,4.0,127.0
10177,47.0,0,94,7.0,90.0
10178,59.0,0,94,4.0,100.0
10179,71.0,384,94,4.0,100.0
10180,35.0,0,94,7.0,90.0
10181,35.0,0,94,7.0,90.0
10182,47.0,0,94,7.0,90.0
10183,59.0,192,94,4.0,100.0
10184,71.0,0,94,4.0,100.0
10185,82.0,0,94,4.0,127.0
10186,94.0,0,94,4.0,127.0
10187,34.0,384,94,7.0,126.0
10188,46.0,0,94,7.0,126.0
10189,94.0,0,94,4.0,127.0
10190,34.0,192,94,7.0,126.0
10191,46.0,0,94,7.0,126.0
10192,82.0,0,94,4.0,127.0
10193,59.0,0,94,4.0,100.0
10194,47.0,0,94,7.0,90.0
10195,35.0,0,94,7.0,90.0
10196,71.0,384,94,4.0,100.0
10197,35.0,0,94,7.0,90.0
10198,47.0,192,94,7.0,90.0
10199,59.0,0,94,4.0,100.0
10200,71.0,0,94,4.0,100.0
10201,46.0,0,94,7.0,90.0
10202,34.0,384,94,7.0,90.0
10203,70.0,0,94,4.0,100.0
10204,58.0,0,94,4.0,100.0
10205,70.0,0,94,4.0,100.0
10206,58.0,0,94,4.0,100.0
10207,46.0,0,94,7.0,90.0
10208,34.0,192,94,7.0,90.0
10209,62.0,384,144,4.0,100.0
10210,66.0,48,0,4.0,100.0
10211,62.0,192,94,4.0,100.0
10212,59.0,0,94,4.0,127.0
10213,47.0,0,94,7.0,90.0
10214,71.0,0,94,4.0,127.0
10215,35.0,192,94,7.0,90.0
10216,47.0,0,94,7.0,90.0
10217,71.0,0,94,4.0,127.0
10218,59.0,192,94,4.0,127.0
10219,35.0,0,94,7.0,90.0
10220,71.0,384,94,4.0,127.0
10221,59.0,0,94,4.0,127.0
10222,47.0,0,94,7.0,90.0
10223,35.0,0,94,7.0,90.0
10224,35.0,0,94,7.0,90.0
10225,47.0,0,94,7.0,90.0
10226,59.0,192,94,4.0,127.0
10227,71.0,0,94,4.0,127.0
10228,35.0,384,94,7.0,90.0
10229,71.0,0,94,4.0,127.0
10230,59.0,0,94,4.0,127.0
10231,47.0,0,94,7.0,90.0
10232,71.0,0,160,4.0,127.0
10233,59.0,192,160,4.0,127.0
10234,35.0,0,160,7.0,126.0
10235,47.0,0,160,7.0,126.0
10236,71.0,192,160,4.0,127.0
10237,47.0,0,160,7.0,126.0
10238,35.0,0,160,7.0,126.0
10239,59.0,0,160,4.0,127.0
10240,47.0,192,160,7.0,126.0
10241,35.0,0,160,7.0,126.0
10242,59.0,0,160,4.0,127.0
10243,71.0,0,160,4.0,127.0
10244,35.0,0,160,7.0,126.0
10245,47.0,0,160,7.0,126.0
10246,71.0,0,160,4.0,127.0
10247,59.0,192,160,4.0,127.0
10248,59.0,192,160,4.0,127.0
10249,71.0,0,160,4.0,127.0
10250,47.0,0,160,7.0,126.0
10251,35.0,0,160,7.0,126.0
10252,83.0,0,160,4.0,127.0
10253,35.0,192,160,7.0,126.0
10254,47.0,0,160,7.0,126.0
10255,71.0,0,160,4.0,127.0
10256,35.0,0,160,7.0,126.0
10257,47.0,192,160,7.0,126.0
10258,83.0,0,160,4.0,127.0
10259,71.0,0,160,4.0,127.0
10260,47.0,0,160,7.0,126.0
10261,35.0,192,160,7.0,126.0
10262,71.0,0,160,4.0,127.0
10263,83.0,0,160,4.0,127.0
10264,83.0,0,160,4.0,127.0
10265,71.0,192,160,4.0,127.0
10266,35.0,0,160,7.0,126.0
10267,47.0,0,160,7.0,126.0
10268,35.0,0,160,7.0,126.0
10269,35.0,0,160,6.0,127.0
10270,47.0,0,160,6.0,127.0
10271,47.0,192,160,7.0,126.0
10272,95.0,0,160,4.0,127.0
10273,83.0,0,160,4.0,127.0
10274,47.0,0,160,6.0,127.0
10275,35.0,0,160,7.0,126.0
10276,47.0,192,160,7.0,126.0
10277,35.0,0,160,6.0,127.0
10278,83.0,0,160,4.0,127.0
10279,95.0,0,160,4.0,127.0
10280,47.0,0,160,6.0,127.0
10281,35.0,0,160,6.0,127.0
10282,83.0,0,160,4.0,127.0
10283,95.0,0,160,4.0,127.0
10284,35.0,192,160,7.0,126.0
10285,47.0,0,160,7.0,126.0
10286,47.0,0,160,6.0,127.0
10287,35.0,192,160,6.0,127.0
10288,83.0,0,160,4.0,127.0
10289,35.0,0,160,7.0,126.0
10290,47.0,0,160,7.0,126.0
10291,95.0,0,160,4.0,127.0
10292,47.0,0,160,6.0,127.0
10293,35.0,0,160,6.0,127.0
10294,83.0,0,160,4.0,127.0
10295,95.0,0,160,4.0,127.0
10296,35.0,0,160,7.0,126.0
10297,47.0,192,160,7.0,126.0
10298,47.0,0,160,7.0,126.0
10299,35.0,0,160,6.0,127.0
10300,47.0,0,160,6.0,127.0
10301,35.0,192,160,7.0,126.0
10302,95.0,0,160,4.0,127.0
10303,83.0,0,160,4.0,127.0
10304,46.0,0,94,6.0,127.0
10305,34.0,0,94,6.0,127.0
10306,82.0,0,94,4.0,127.0
10307,46.0,0,94,7.0,126.0
10308,94.0,0,94,4.0,127.0
10309,34.0,192,94,7.0,126.0
10310,34.0,192,94,7.0,126.0
10311,46.0,0,94,7.0,126.0
10312,94.0,0,94,4.0,127.0
10313,82.0,0,94,4.0,127.0
10314,58.0,0,144,7.0,90.0
10315,62.0,384,144,4.0,100.0
10316,53.0,144,48,7.0,90.0
10317,65.0,0,48,4.0,100.0
10318,65.0,0,160,4.0,100.0
10319,60.0,96,96,4.0,100.0
10320,57.0,48,192,7.0,90.0
10321,62.0,96,94,4.0,100.0
10322,53.0,0,94,4.0,100.0
10323,58.0,0,94,7.0,90.0
10324,74.0,192,144,4.0,100.0
10325,70.0,0,144,7.0,90.0
10326,77.0,144,48,4.0,100.0
10327,65.0,0,48,7.0,90.0
10328,77.0,48,160,4.0,100.0
10329,72.0,96,96,4.0,100.0
10330,69.0,0,192,7.0,90.0
10331,74.0,0,94,4.0,100.0
10332,70.0,96,94,7.0,90.0
10333,65.0,0,94,4.0,100.0
10334,82.0,192,144,7.0,90.0
10335,86.0,0,144,4.0,100.0
10336,77.0,144,48,7.0,90.0
10337,89.0,48,0,4.0,100.0
10338,81.0,0,192,7.0,90.0
10339,84.0,96,96,4.0,100.0
10340,77.0,0,94,4.0,100.0
10341,86.0,96,94,4.0,100.0
10342,82.0,0,94,7.0,90.0
10343,33.0,0,288,7.0,90.0
10344,57.0,960,288,4.0,90.0
10345,45.0,0,288,7.0,90.0
10346,37.0,0,256,7.0,90.0
10347,49.0,0,256,7.0,90.0
10348,61.0,288,256,4.0,90.0
10349,69.0,192,0,4.0,90.0
10350,73.0,288,192,4.0,90.0
10351,61.0,0,256,4.0,90.0
10352,66.0,0,256,4.0,90.0
10353,42.0,0,288,7.0,90.0
10354,49.0,0,288,7.0,90.0
10355,54.0,96,0,7.0,90.0
10356,61.0,0,96,4.0,90.0
10357,49.0,0,0,7.0,90.0
10358,42.0,0,96,7.0,90.0
10359,69.0,0,96,4.0,90.0
10360,45.0,0,96,7.0,90.0
10361,57.0,96,96,7.0,90.0
10362,66.0,0,96,4.0,90.0
10363,61.0,0,0,4.0,90.0
10364,59.0,0,96,4.0,90.0
10365,65.0,0,96,4.0,90.0
10366,68.0,0,96,4.0,90.0
10367,44.0,0,96,7.0,90.0
10368,49.0,0,96,7.0,90.0
10369,56.0,96,96,7.0,90.0
10370,61.0,0,256,4.0,90.0
10371,57.0,0,256,4.0,90.0
10372,66.0,0,256,4.0,90.0
10373,42.0,0,256,7.0,90.0
10374,49.0,0,256,7.0,90.0
10375,54.0,96,256,7.0,90.0
10376,69.0,0,256,4.0,90.0
10377,59.0,0,192,4.0,90.0
10378,66.0,288,192,4.0,90.0
10379,71.0,0,192,4.0,90.0
10380,50.0,0,192,7.0,90.0
10381,38.0,0,192,7.0,90.0
10382,74.0,96,0,4.0,90.0
10383,66.0,0,0,4.0,90.0
10384,62.0,0,0,4.0,90.0
10385,35.0,0,96,7.0,90.0
10386,47.0,0,96,7.0,90.0
10387,35.0,0,192,7.0,90.0
10388,47.0,0,192,7.0,90.0
10389,33.0,0,96,7.0,90.0
10390,45.0,192,96,7.0,90.0
10391,73.0,0,96,4.0,90.0
10392,66.0,0,0,4.0,90.0
10393,61.0,96,0,4.0,90.0
10394,33.0,0,96,7.0,90.0
10395,45.0,0,96,7.0,90.0
10396,73.0,0,0,4.0,90.0
10397,32.0,0,96,7.0,90.0
10398,44.0,0,96,7.0,90.0
10399,77.0,96,96,4.0,90.0
10400,71.0,0,96,4.0,90.0
10401,65.0,0,96,4.0,90.0
10402,73.0,0,0,4.0,90.0
10403,78.0,96,94,4.0,90.0
10404,66.0,0,94,4.0,90.0
10405,30.0,0,94,7.0,90.0
10406,69.0,0,94,4.0,90.0
10407,42.0,0,94,7.0,90.0
10408,68.0,96,256,4.0,90.0
10409,73.0,0,256,4.0,90.0
10410,80.0,0,256,4.0,90.0
10411,29.0,0,256,7.0,90.0
10412,41.0,0,256,7.0,90.0
10413,74.0,0,256,4.0,90.0
10414,56.0,0,256,7.0,90.0
10415,62.0,0,256,7.0,90.0
10416,59.0,0,256,7.0,90.0
10417,68.0,0,256,4.0,90.0
10418,53.0,288,256,7.0,90.0
10419,71.0,0,256,4.0,90.0
10420,62.0,192,94,5.0,90.0
10421,74.0,288,288,4.0,90.0
10422,71.0,0,288,4.0,90.0
10423,68.0,0,288,4.0,90.0
10424,41.0,0,288,7.0,90.0
10425,29.0,0,288,7.0,90.0
10426,61.0,96,192,4.0,90.0
10427,69.0,0,192,4.0,90.0
10428,73.0,0,192,4.0,90.0
10429,42.0,0,192,7.0,90.0
10430,30.0,0,192,7.0,90.0
10431,71.0,0,0,4.0,90.0
10432,65.0,0,0,4.0,90.0
10433,62.0,96,0,4.0,90.0
10434,59.0,0,0,4.0,90.0
10435,32.0,0,96,7.0,90.0
10436,44.0,0,96,7.0,90.0
10437,32.0,0,256,7.0,90.0
10438,44.0,0,256,7.0,90.0
10439,59.0,0,96,4.0,90.0
10440,62.0,0,96,4.0,90.0
10441,65.0,288,96,4.0,90.0
10442,71.0,0,96,4.0,90.0
10443,32.0,0,96,7.0,90.0
10444,44.0,0,96,7.0,90.0
10445,57.0,0,96,4.0,90.0
10446,61.0,0,96,4.0,90.0
10447,69.0,0,96,4.0,90.0
10448,66.0,96,96,4.0,90.0
10449,33.0,0,96,7.0,90.0
10450,45.0,0,96,7.0,90.0
10451,35.0,0,96,7.0,90.0
10452,47.0,0,96,7.0,90.0
10453,56.0,96,96,4.0,90.0
10454,62.0,0,96,4.0,90.0
10455,66.0,0,96,4.0,90.0
10456,68.0,96,0,4.0,90.0
10457,56.0,0,160,4.0,90.0
10458,48.0,0,160,7.0,90.0
10459,66.0,0,160,4.0,90.0
10460,63.0,0,160,4.0,90.0
10461,36.0,0,160,7.0,90.0
10462,36.0,192,94,7.0,90.0
10463,48.0,0,94,7.0,90.0
10464,68.0,0,94,4.0,90.0
10465,63.0,0,94,4.0,90.0
10466,56.0,0,94,4.0,90.0
10467,66.0,0,94,4.0,90.0
10468,48.0,0,94,7.0,90.0
10469,36.0,96,94,7.0,90.0
10470,66.0,0,96,4.0,90.0
10471,56.0,0,96,4.0,90.0
10472,68.0,0,96,4.0,90.0
10473,63.0,0,0,4.0,90.0
10474,48.0,0,94,7.0,90.0
10475,36.0,0,94,7.0,90.0
10476,66.0,0,96,4.0,90.0
10477,57.0,0,0,4.0,90.0
10478,69.0,0,96,4.0,90.0
10479,36.0,0,94,7.0,90.0
10480,48.0,96,94,7.0,90.0
10481,66.0,0,96,4.0,90.0
10482,54.0,0,96,4.0,90.0
10483,63.0,0,96,4.0,90.0
10484,63.0,0,96,4.0,90.0
10485,60.0,96,96,4.0,90.0
10486,54.0,96,256,5.0,90.0
10487,57.0,0,256,5.0,90.0
10488,49.0,0,256,7.0,90.0
10489,37.0,0,256,7.0,90.0
10490,66.0,0,256,5.0,90.0
10491,61.0,96,94,4.0,90.0
10492,37.0,0,94,7.0,90.0
10493,49.0,0,94,7.0,90.0
10494,56.0,0,96,4.0,90.0
10495,53.0,96,96,4.0,90.0
10496,61.0,0,96,4.0,90.0
10497,65.0,0,96,4.0,90.0
10498,49.0,96,94,7.0,90.0
10499,53.0,0,94,7.0,90.0
10500,56.0,0,94,7.0,90.0
10501,68.0,0,96,4.0,90.0
10502,59.0,96,94,7.0,90.0
10503,56.0,0,94,7.0,90.0
10504,49.0,0,94,7.0,90.0
10505,71.0,0,96,4.0,90.0
10506,65.0,0,96,5.0,90.0
10507,49.0,0,160,7.0,90.0
10508,59.0,0,160,7.0,90.0
10509,68.0,96,94,5.0,90.0
10510,62.0,96,192,4.0,90.0
10511,71.0,0,192,4.0,90.0
10512,61.0,96,94,4.0,90.0
10513,49.0,0,94,7.0,90.0
10514,57.0,0,94,7.0,90.0
10515,69.0,0,94,4.0,90.0
10516,66.0,0,94,4.0,90.0
10517,57.0,0,94,7.0,90.0
10518,49.0,0,94,7.0,90.0
10519,69.0,96,96,4.0,90.0
10520,66.0,0,96,4.0,90.0
10521,61.0,0,96,4.0,90.0
10522,49.0,0,94,7.0,90.0
10523,56.0,0,94,7.0,90.0
10524,59.0,0,96,4.0,90.0
10525,62.0,0,96,4.0,90.0
10526,65.0,0,96,4.0,90.0
10527,68.0,96,96,4.0,90.0
10528,57.0,0,48,5.0,90.0
10529,54.0,0,94,7.0,90.0
10530,49.0,96,94,7.0,90.0
10531,60.0,48,46,5.0,90.0
10532,63.0,0,96,4.0,90.0
10533,66.0,0,96,4.0,90.0
10534,57.0,0,192,4.0,90.0
10535,60.0,0,192,4.0,90.0
10536,63.0,0,192,4.0,90.0
10537,66.0,0,192,4.0,90.0
10538,49.0,0,192,7.0,90.0
10539,54.0,48,192,7.0,90.0
10540,56.0,192,94,4.0,90.0
10541,49.0,0,94,7.0,90.0
10542,53.0,0,94,7.0,90.0
10543,65.0,0,94,4.0,90.0
10544,61.0,0,94,4.0,90.0
10545,65.0,0,96,4.0,90.0
10546,53.0,0,96,7.0,90.0
10547,49.0,96,160,7.0,90.0
10548,56.0,0,96,7.0,90.0
10549,68.0,96,96,4.0,90.0
10550,59.0,0,48,7.0,90.0
10551,71.0,0,48,4.0,90.0
10552,56.0,96,94,7.0,90.0
10553,49.0,0,94,7.0,90.0
10554,62.0,48,48,7.0,90.0
10555,74.0,48,0,4.0,90.0
10556,65.0,0,192,5.0,90.0
10557,68.0,96,0,5.0,90.0
10558,71.0,0,192,4.0,90.0
10559,59.0,0,192,7.0,90.0
10560,62.0,0,192,7.0,90.0
10561,65.0,0,96,5.0,90.0
10562,49.0,0,192,7.0,90.0
10563,73.0,0,94,4.0,90.0
10564,69.0,96,94,5.0,90.0
10565,66.0,0,94,5.0,90.0
10566,49.0,0,96,7.0,90.0
10567,57.0,0,96,7.0,90.0
10568,61.0,0,96,7.0,90.0
10569,49.0,0,94,7.0,90.0
10570,57.0,96,94,7.0,90.0
10571,61.0,0,94,7.0,90.0
10572,66.0,48,46,5.0,90.0
10573,73.0,0,96,4.0,90.0
10574,69.0,0,96,4.0,90.0
10575,49.0,0,94,7.0,90.0
10576,56.0,0,94,7.0,90.0
10577,59.0,0,94,7.0,90.0
10578,65.0,0,96,4.0,90.0
10579,62.0,0,96,4.0,90.0
10580,68.0,0,96,4.0,90.0
10581,71.0,48,96,4.0,90.0
10582,49.0,0,94,7.0,90.0
10583,54.0,0,94,7.0,90.0
10584,57.0,0,94,7.0,90.0
10585,69.0,0,96,4.0,90.0
10586,66.0,0,96,4.0,90.0
10587,63.0,0,96,4.0,90.0
10588,60.0,96,96,4.0,90.0
10589,54.0,0,160,7.0,90.0
10590,49.0,96,160,7.0,90.0
10591,57.0,0,160,7.0,90.0
10592,63.0,96,96,5.0,90.0
10593,66.0,0,192,4.0,90.0
10594,69.0,0,192,4.0,90.0
10595,60.0,0,96,5.0,90.0
10596,68.0,96,94,4.0,90.0
10597,49.0,0,94,7.0,90.0
10598,65.0,0,94,5.0,90.0
10599,61.0,0,94,5.0,90.0
10600,56.0,0,94,7.0,90.0
10601,53.0,0,94,7.0,90.0
10602,49.0,0,0,7.0,90.0
10603,65.0,0,192,4.0,90.0
10604,68.0,0,192,4.0,90.0
10605,53.0,0,192,7.0,90.0
10606,56.0,0,192,7.0,90.0
10607,58.0,0,94,7.0,90.0
10608,52.0,192,94,7.0,90.0
10609,55.0,0,94,7.0,90.0
10610,64.0,0,94,4.0,90.0
10611,67.0,0,94,4.0,90.0
10612,61.0,96,286,4.0,90.0
10613,67.0,0,24,4.0,90.0
10614,83.0,24,168,4.0,90.0
10615,71.0,72,96,5.0,90.0
10616,50.0,96,256,7.0,90.0
10617,55.0,0,256,7.0,90.0
10618,59.0,0,256,7.0,90.0
10619,81.0,0,96,4.0,90.0
10620,69.0,96,96,5.0,90.0
10621,62.0,0,160,7.0,90.0
10622,79.0,96,192,4.0,90.0
10623,55.0,0,256,7.0,90.0
10624,59.0,0,256,7.0,90.0
10625,67.0,0,256,5.0,90.0
10626,62.0,192,94,7.0,90.0
10627,78.0,0,96,4.0,90.0
10628,76.0,0,192,4.0,90.0
10629,60.0,0,256,7.0,90.0
10630,64.0,96,256,7.0,90.0
10631,67.0,0,288,5.0,90.0
10632,78.0,192,96,4.0,90.0
10633,79.0,0,160,4.0,90.0
10634,67.0,0,160,5.0,90.0
10635,59.0,96,192,7.0,90.0
10636,62.0,192,0,7.0,90.0
10637,66.0,0,96,4.0,90.0
10638,62.0,96,0,7.0,90.0
10639,66.0,0,0,4.0,90.0
10640,69.0,96,96,4.0,90.0
10641,61.0,0,96,7.0,90.0
10642,73.0,0,96,4.0,90.0
10643,69.0,0,96,4.0,90.0
10644,66.0,96,96,4.0,90.0
10645,61.0,0,0,7.0,90.0
10646,57.0,0,96,7.0,90.0
10647,54.0,0,96,7.0,90.0
10648,49.0,0,0,7.0,90.0
10649,56.0,0,160,7.0,90.0
10650,53.0,0,160,7.0,90.0
10651,65.0,96,192,4.0,90.0
10652,68.0,0,192,4.0,90.0
10653,73.0,0,192,4.0,90.0
10654,56.0,192,96,7.0,90.0
10655,53.0,96,0,7.0,90.0
10656,49.0,0,0,7.0,90.0
10657,61.0,0,0,7.0,90.0
10658,65.0,0,0,4.0,90.0
10659,68.0,0,0,4.0,90.0
10660,73.0,0,0,4.0,90.0
10661,56.0,0,192,7.0,90.0
10662,69.0,0,94,4.0,90.0
10663,54.0,0,94,7.0,90.0
10664,57.0,192,94,7.0,90.0
10665,61.0,0,94,7.0,90.0
10666,66.0,0,94,4.0,90.0
10667,54.0,0,96,7.0,90.0
10668,57.0,0,96,7.0,90.0
10669,61.0,0,96,7.0,90.0
10670,66.0,0,96,4.0,90.0
10671,69.0,96,96,4.0,90.0
10672,57.0,96,96,7.0,90.0
10673,66.0,0,96,4.0,90.0
10674,61.0,0,96,4.0,90.0
10675,68.0,96,48,4.0,90.0
10676,65.0,0,48,4.0,90.0
10677,56.0,0,48,7.0,90.0
10678,59.0,0,48,7.0,90.0
10679,54.0,0,48,7.0,90.0
10680,57.0,0,48,7.0,90.0
10681,69.0,0,48,4.0,90.0
10682,66.0,48,48,4.0,90.0
10683,59.0,0,96,5.0,90.0
10684,37.0,0,94,7.0,90.0
10685,41.0,96,96,7.0,90.0
10686,68.0,48,192,4.0,90.0
10687,71.0,0,192,4.0,90.0
10688,62.0,0,96,5.0,90.0
10689,69.0,0,96,4.0,90.0
10690,66.0,0,96,4.0,90.0
10691,42.0,0,96,7.0,90.0
10692,61.0,96,96,5.0,90.0
10693,69.0,0,96,4.0,90.0
10694,44.0,0,144,7.0,90.0
10695,68.0,96,96,4.0,90.0
10696,45.0,48,48,7.0,90.0
10697,59.0,96,192,5.0,90.0
10698,62.0,0,192,5.0,90.0
10699,65.0,0,192,5.0,90.0
10700,37.0,0,528,6.0,90.0
10701,47.0,48,48,7.0,90.0
10702,57.0,0,96,5.0,90.0
10703,63.0,0,96,5.0,90.0
10704,66.0,48,0,4.0,90.0
10705,48.0,48,48,7.0,90.0
10706,57.0,0,96,4.0,90.0
10707,55.0,96,96,4.0,90.0
10708,64.0,0,96,4.0,90.0
10709,56.0,0,94,4.0,90.0
10710,65.0,96,94,4.0,90.0
10711,61.0,0,0,5.0,90.0
10712,37.0,0,334,7.0,90.0
10713,49.0,0,334,7.0,90.0
10714,49.0,48,48,7.0,90.0
10715,65.0,96,142,4.0,90.0
10716,56.0,0,142,5.0,90.0
10717,53.0,48,48,7.0,90.0
10718,56.0,0,48,7.0,90.0
10719,68.0,48,48,4.0,90.0
10720,71.0,0,48,4.0,90.0
10721,59.0,48,48,7.0,90.0
10722,74.0,48,48,4.0,90.0
10723,62.0,0,48,7.0,90.0
10724,37.0,0,94,7.0,90.0
10725,49.0,0,94,7.0,90.0
10726,65.0,0,96,5.0,90.0
10727,68.0,48,96,5.0,90.0
10728,62.0,0,96,5.0,90.0
10729,41.0,96,94,7.0,90.0
10730,49.0,0,94,7.0,90.0
10731,53.0,0,94,7.0,90.0
10732,74.0,0,192,4.0,90.0
10733,71.0,0,192,4.0,90.0
10734,68.0,0,96,5.0,90.0
10735,71.0,0,96,5.0,90.0
10736,49.0,0,94,7.0,90.0
10737,54.0,0,94,7.0,90.0
10738,42.0,96,94,7.0,90.0
10739,69.0,0,96,5.0,90.0
10740,73.0,0,96,4.0,90.0
10741,73.0,0,96,4.0,90.0
10742,49.0,0,144,7.0,90.0
10743,44.0,0,144,7.0,90.0
10744,56.0,0,144,7.0,90.0
10745,71.0,96,96,4.0,90.0
10746,62.0,96,192,5.0,90.0
10747,65.0,0,192,5.0,90.0
10748,57.0,48,48,7.0,90.0
10749,45.0,0,48,7.0,90.0
10750,68.0,0,192,5.0,90.0
10751,59.0,48,48,7.0,90.0
10752,47.0,0,48,7.0,90.0
10753,66.0,0,96,5.0,90.0
10754,63.0,0,96,5.0,90.0
10755,60.0,48,48,7.0,90.0
10756,69.0,0,96,4.0,90.0
10757,48.0,0,48,7.0,90.0
10758,60.0,0,96,5.0,90.0
10759,63.0,0,0,5.0,90.0
10760,49.0,0,160,6.0,90.0
10761,54.0,96,96,7.0,90.0
10762,57.0,0,96,7.0,90.0
10763,69.0,0,192,4.0,90.0
10764,66.0,0,192,4.0,90.0
10765,60.0,0,96,5.0,90.0
10766,61.0,0,94,5.0,90.0
10767,49.0,0,94,6.0,90.0
10768,56.0,0,94,7.0,90.0
10769,53.0,96,94,7.0,90.0
10770,68.0,0,94,4.0,90.0
10771,65.0,0,94,4.0,90.0
10772,49.0,96,94,7.0,90.0
10773,56.0,0,94,7.0,90.0
10774,61.0,0,94,5.0,90.0
10775,53.0,0,94,7.0,90.0
10776,65.0,0,96,4.0,90.0
10777,68.0,0,96,4.0,90.0
10778,55.0,0,96,7.0,90.0
10779,52.0,0,96,7.0,90.0
10780,49.0,96,96,7.0,90.0
10781,58.0,0,96,7.0,90.0
10782,64.0,0,96,5.0,90.0
10783,67.0,0,160,4.0,90.0
10784,50.0,96,94,7.0,90.0
10785,55.0,0,94,7.0,90.0
10786,62.0,0,94,5.0,90.0
10787,59.0,0,94,7.0,90.0
10788,67.0,0,24,4.0,90.0
10789,83.0,24,166,4.0,90.0
10790,50.0,0,256,7.0,90.0
10791,43.0,96,256,7.0,90.0
10792,59.0,0,256,7.0,90.0
10793,81.0,168,96,4.0,90.0
10794,81.0,0,96,4.0,90.0
10795,79.0,96,96,4.0,90.0
10796,91.0,0,96,4.0,90.0
10797,47.0,96,256,7.0,90.0
10798,55.0,0,256,7.0,90.0
10799,62.0,0,256,7.0,90.0
10800,90.0,0,0,4.0,90.0
10801,78.0,96,96,4.0,90.0
10802,78.0,0,96,4.0,90.0
10803,76.0,0,96,4.0,90.0
10804,88.0,96,96,4.0,90.0
10805,78.0,96,96,4.0,90.0
10806,90.0,96,0,4.0,90.0
10807,48.0,96,288,7.0,90.0
10808,64.0,0,288,7.0,90.0
10809,55.0,0,0,7.0,90.0
10810,78.0,0,96,4.0,90.0
10811,62.0,0,96,7.0,90.0
10812,47.0,0,160,7.0,90.0
10813,55.0,0,94,7.0,90.0
10814,91.0,0,142,4.0,90.0
10815,79.0,96,142,4.0,90.0
10816,50.0,96,94,7.0,90.0
10817,78.0,48,48,4.0,90.0
10818,66.0,48,0,4.0,90.0
10819,54.0,0,0,7.0,90.0
10820,54.0,0,0,7.0,90.0
10821,50.0,0,96,7.0,90.0
10822,78.0,0,96,4.0,90.0
10823,57.0,96,96,7.0,90.0
10824,49.0,0,0,7.0,90.0
10825,81.0,0,96,4.0,90.0
10826,69.0,0,96,4.0,90.0
10827,54.0,0,96,7.0,90.0
10828,57.0,0,96,7.0,90.0
10829,61.0,96,96,7.0,90.0
10830,73.0,96,0,4.0,90.0
10831,85.0,0,0,4.0,90.0
10832,49.0,0,160,7.0,90.0
10833,56.0,0,160,7.0,90.0
10834,61.0,0,160,7.0,90.0
10835,53.0,0,160,7.0,90.0
10836,85.0,0,0,4.0,90.0
10837,73.0,0,0,4.0,90.0
10838,54.0,192,96,7.0,90.0
10839,61.0,0,0,7.0,90.0
10840,57.0,96,0,7.0,90.0
10841,54.0,0,94,7.0,90.0
10842,85.0,0,96,4.0,90.0
10843,73.0,0,96,4.0,90.0
10844,62.0,0,96,7.0,90.0
10845,86.0,96,96,4.0,90.0
10846,74.0,0,96,4.0,90.0
10847,47.0,0,160,7.0,90.0
10848,67.0,0,96,4.0,90.0
10849,55.0,96,96,7.0,90.0
10850,79.0,0,96,4.0,90.0
10851,71.0,96,96,4.0,90.0
10852,83.0,0,96,4.0,90.0
10853,59.0,0,96,7.0,90.0
10854,37.0,0,96,7.0,90.0
10855,61.0,0,96,4.0,90.0
10856,73.0,96,96,4.0,90.0
10857,49.0,0,192,7.0,90.0
10858,53.0,96,96,7.0,90.0
10859,65.0,0,96,4.0,90.0
10860,77.0,0,96,4.0,90.0
10861,78.0,0,94,4.0,90.0
10862,54.0,0,94,7.0,90.0
10863,66.0,0,94,4.0,90.0
10864,49.0,0,94,7.0,90.0
10865,42.0,96,94,7.0,90.0
10866,85.0,0,144,4.0,90.0
10867,73.0,0,144,4.0,90.0
10868,68.0,144,48,4.0,90.0
10869,56.0,0,192,7.0,90.0
10870,49.0,0,0,7.0,90.0
10871,80.0,0,48,4.0,90.0
10872,41.0,0,192,7.0,90.0
10873,69.0,0,94,4.0,90.0
10874,81.0,0,94,4.0,90.0
10875,42.0,0,94,7.0,90.0
10876,54.0,48,94,7.0,90.0
10877,81.0,0,144,4.0,90.0
10878,69.0,0,144,4.0,90.0
10879,57.0,0,144,7.0,90.0
10880,49.0,96,160,7.0,90.0
10881,65.0,144,46,4.0,90.0
10882,77.0,0,46,4.0,90.0
10883,53.0,0,46,7.0,90.0
10884,42.0,144,48,7.0,90.0
10885,49.0,96,46,7.0,90.0
10886,54.0,0,46,7.0,90.0
10887,57.0,0,46,7.0,90.0
10888,61.0,0,46,7.0,90.0
10889,61.0,96,48,7.0,90.0
10890,57.0,0,48,7.0,90.0
10891,54.0,0,48,7.0,90.0
10892,49.0,0,48,7.0,90.0
10893,42.0,96,48,7.0,90.0
10894,49.0,0,46,7.0,90.0
10895,54.0,0,46,7.0,90.0
10896,57.0,0,46,7.0,90.0
10897,61.0,0,46,7.0,90.0
10898,73.0,96,142,4.0,126.0
10899,54.0,0,48,7.0,90.0
10900,57.0,0,48,7.0,90.0
10901,61.0,0,48,7.0,90.0
10902,49.0,96,48,7.0,90.0
10903,73.0,48,94,4.0,90.0
10904,42.0,48,48,7.0,90.0
10905,49.0,0,46,7.0,90.0
10906,54.0,0,46,7.0,90.0
10907,57.0,48,46,7.0,90.0
10908,61.0,0,46,7.0,90.0
10909,73.0,48,94,4.0,90.0
10910,78.0,48,0,5.0,90.0
10911,73.0,48,94,4.0,90.0
10912,54.0,0,48,7.0,90.0
10913,57.0,0,48,7.0,90.0
10914,61.0,0,48,7.0,90.0
10915,49.0,0,48,7.0,90.0
10916,73.0,48,94,4.0,90.0
10917,42.0,48,48,7.0,90.0
10918,81.0,0,96,5.0,90.0
10919,61.0,0,46,7.0,90.0
10920,49.0,0,46,7.0,90.0
10921,73.0,48,94,4.0,90.0
10922,57.0,0,46,7.0,90.0
10923,54.0,0,46,7.0,90.0
10924,73.0,48,46,4.0,90.0
10925,85.0,48,96,5.0,90.0
10926,49.0,0,48,7.0,90.0
10927,53.0,0,48,7.0,90.0
10928,56.0,0,48,7.0,90.0
10929,59.0,48,48,7.0,90.0
10930,61.0,0,48,7.0,90.0
10931,83.0,48,94,4.0,90.0
10932,77.0,0,94,4.0,90.0
10933,44.0,48,48,7.0,90.0
10934,85.0,0,192,5.0,90.0
10935,53.0,48,46,7.0,90.0
10936,56.0,0,46,7.0,90.0
10937,59.0,0,46,7.0,90.0
10938,62.0,0,46,7.0,90.0
10939,88.0,0,48,5.0,90.0
10940,83.0,48,142,4.0,90.0
10941,77.0,0,142,4.0,90.0
10942,86.0,48,48,5.0,90.0
10943,53.0,0,48,7.0,90.0
10944,59.0,0,48,7.0,90.0
10945,62.0,0,48,7.0,90.0
10946,56.0,48,48,7.0,90.0
10947,86.0,0,96,5.0,90.0
10948,71.0,48,94,4.0,90.0
10949,44.0,0,48,7.0,90.0
10950,77.0,48,96,5.0,90.0
10951,56.0,0,46,7.0,90.0
10952,59.0,0,46,7.0,90.0
10953,62.0,0,46,7.0,90.0
10954,53.0,48,46,7.0,90.0
10955,71.0,48,94,4.0,90.0
10956,83.0,0,94,5.0,90.0
10957,71.0,48,94,4.0,90.0
10958,53.0,0,48,7.0,90.0
10959,59.0,0,48,7.0,90.0
10960,56.0,0,48,7.0,90.0
10961,62.0,48,48,7.0,90.0
10962,83.0,0,96,5.0,90.0
10963,65.0,48,94,4.0,90.0
10964,44.0,0,48,7.0,90.0
10965,71.0,48,96,5.0,90.0
10966,59.0,0,46,7.0,90.0
10967,62.0,48,46,7.0,90.0
10968,56.0,0,46,7.0,90.0
10969,65.0,48,94,4.0,90.0
10970,53.0,0,46,7.0,90.0
10971,73.0,0,48,5.0,90.0
10972,74.0,48,48,5.0,90.0
10973,65.0,0,94,4.0,90.0
10974,53.0,48,48,7.0,90.0
10975,56.0,0,48,7.0,90.0
10976,59.0,0,48,7.0,90.0
10977,62.0,0,48,7.0,90.0
10978,74.0,0,96,5.0,90.0
10979,65.0,48,94,4.0,90.0
10980,71.0,0,94,4.0,90.0
10981,44.0,0,48,7.0,90.0
10982,53.0,0,46,7.0,90.0
10983,71.0,48,94,4.0,90.0
10984,61.0,48,46,7.0,90.0
10985,59.0,0,46,7.0,90.0
10986,56.0,0,46,7.0,90.0
10987,65.0,0,94,4.0,90.0
10988,73.0,48,144,5.0,90.0
10989,65.0,0,46,4.0,90.0
10990,71.0,48,46,5.0,90.0
10991,71.0,48,48,4.0,90.0
10992,61.0,0,48,7.0,90.0
10993,57.0,0,48,7.0,90.0
10994,54.0,0,48,7.0,90.0
10995,49.0,0,48,7.0,90.0
10996,42.0,48,48,7.0,90.0
10997,69.0,48,96,4.0,90.0
10998,61.0,0,46,7.0,90.0
10999,57.0,48,46,7.0,90.0
11000,54.0,0,46,7.0,90.0
11001,49.0,0,46,7.0,90.0
11002,73.0,48,96,4.0,90.0
11003,78.0,48,80,4.0,90.0
11004,61.0,0,48,7.0,90.0
11005,57.0,48,48,7.0,90.0
11006,54.0,0,48,7.0,90.0
11007,49.0,0,48,7.0,90.0
11008,81.0,32,32,4.0,90.0
11009,85.0,32,64,4.0,90.0
11010,42.0,32,48,7.0,90.0
11011,90.0,32,32,4.0,90.0
11012,92.0,32,32,4.0,90.0
11013,93.0,32,32,4.0,90.0
11014,61.0,0,46,7.0,90.0
11015,54.0,0,46,7.0,90.0
11016,49.0,0,46,7.0,90.0
11017,57.0,0,46,7.0,90.0
11018,90.0,32,32,4.0,90.0
11019,85.0,0,0,4.0,90.0
11020,86.0,42,18,4.0,90.0
11021,85.0,18,18,4.0,90.0
11022,61.0,0,96,7.0,90.0
11023,59.0,0,96,7.0,90.0
11024,56.0,0,96,7.0,90.0
11025,53.0,32,96,7.0,90.0
11026,49.0,0,96,7.0,90.0
11027,86.0,18,18,4.0,90.0
11028,85.0,18,18,4.0,90.0
11029,86.0,18,18,4.0,90.0
11030,85.0,18,18,4.0,90.0
11031,86.0,18,18,4.0,90.0
11032,85.0,18,18,4.0,90.0
11033,86.0,18,18,4.0,90.0
11034,85.0,12,18,4.0,90.0
11035,86.0,18,18,4.0,90.0
11036,85.0,18,18,4.0,90.0
11037,86.0,18,18,4.0,90.0
11038,44.0,6,96,7.0,90.0
11039,85.0,18,18,4.0,90.0
11040,86.0,18,18,4.0,90.0
11041,85.0,18,18,4.0,90.0
11042,86.0,18,18,4.0,90.0
11043,84.0,18,18,4.0,90.0
11044,85.0,18,18,4.0,90.0
11045,88.0,18,32,4.0,90.0
11046,53.0,0,46,7.0,90.0
11047,56.0,0,46,7.0,90.0
11048,59.0,0,46,7.0,90.0
11049,62.0,0,46,7.0,90.0
11050,85.0,32,32,4.0,90.0
11051,86.0,32,32,4.0,90.0
11052,86.0,0,32,4.0,90.0
11053,62.0,0,48,7.0,90.0
11054,56.0,0,48,7.0,90.0
11055,53.0,0,48,7.0,90.0
11056,59.0,32,48,7.0,90.0
11057,76.0,32,32,4.0,90.0
11058,77.0,0,0,4.0,90.0
11059,44.0,32,48,7.0,90.0
11060,86.0,32,32,4.0,90.0
11061,85.0,32,0,4.0,90.0
11062,59.0,0,46,7.0,90.0
11063,62.0,0,46,7.0,90.0
11064,53.0,0,46,7.0,90.0
11065,56.0,0,46,7.0,90.0
11066,82.0,32,32,4.0,90.0
11067,83.0,32,0,4.0,90.0
11068,65.0,24,24,4.0,90.0
11069,53.0,0,48,7.0,90.0
11070,56.0,0,48,7.0,90.0
11071,59.0,0,48,7.0,90.0
11072,62.0,0,48,7.0,90.0
11073,66.0,24,24,4.0,90.0
11074,68.0,24,24,4.0,90.0
11075,69.0,0,24,4.0,90.0
11076,44.0,24,48,7.0,90.0
11077,70.0,24,24,4.0,90.0
11078,71.0,24,24,4.0,90.0
11079,72.0,24,24,4.0,90.0
11080,73.0,0,32,4.0,90.0
11081,62.0,0,46,7.0,90.0
11082,59.0,0,46,7.0,90.0
11083,56.0,24,46,7.0,90.0
11084,53.0,0,46,7.0,90.0
11085,74.0,32,32,4.0,90.0
11086,75.0,32,32,4.0,90.0
11087,76.0,32,32,4.0,90.0
11088,53.0,0,48,7.0,90.0
11089,56.0,0,48,7.0,90.0
11090,59.0,0,48,7.0,90.0
11091,62.0,0,48,7.0,90.0
11092,73.0,32,32,4.0,90.0
11093,74.0,32,32,4.0,90.0
11094,74.0,0,24,4.0,90.0
11095,44.0,32,48,7.0,90.0
11096,83.0,24,24,4.0,90.0
11097,80.0,24,24,4.0,90.0
11098,77.0,24,24,4.0,90.0
11099,74.0,0,24,4.0,90.0
11100,61.0,0,46,7.0,90.0
11101,53.0,0,46,7.0,90.0
11102,56.0,0,46,7.0,90.0
11103,59.0,24,46,7.0,90.0
11104,72.0,24,24,4.0,90.0
11105,74.0,24,24,4.0,90.0
11106,73.0,24,22,4.0,90.0
11107,54.0,0,48,7.0,90.0
11108,57.0,24,48,7.0,90.0
11109,61.0,0,48,7.0,90.0
11110,73.0,0,96,5.0,90.0
11111,66.0,48,94,4.0,90.0
11112,45.0,48,48,7.0,90.0
11113,66.0,48,94,4.0,90.0
11114,54.0,48,48,7.0,90.0
11115,57.0,0,48,7.0,90.0
11116,61.0,0,48,7.0,90.0
11117,78.0,0,144,5.0,90.0
11118,73.0,48,48,5.0,90.0
11119,53.0,0,48,7.0,90.0
11120,56.0,0,48,7.0,90.0
11121,59.0,0,48,7.0,90.0
11122,62.0,0,48,7.0,90.0
11123,71.0,48,94,4.0,90.0
11124,65.0,0,94,4.0,90.0
11125,44.0,48,48,7.0,90.0
11126,74.0,48,192,5.0,90.0
11127,53.0,0,46,7.0,90.0
11128,56.0,0,46,7.0,90.0
11129,59.0,0,46,7.0,90.0
11130,61.0,48,46,7.0,90.0
11131,71.0,48,94,4.0,90.0
11132,65.0,0,94,4.0,90.0
11133,65.0,48,46,4.0,90.0
11134,73.0,0,94,5.0,90.0
11135,71.0,0,46,4.0,90.0
11136,73.0,0,32,4.0,90.0
11137,61.0,0,48,7.0,90.0
11138,54.0,48,48,7.0,90.0
11139,57.0,0,48,7.0,90.0
11140,85.0,32,32,4.0,90.0
11141,80.0,32,32,4.0,90.0
11142,83.0,0,24,4.0,90.0
11143,81.0,24,24,4.0,90.0
11144,45.0,32,48,7.0,90.0
11145,77.0,24,24,4.0,90.0
11146,78.0,24,24,4.0,90.0
11147,80.0,24,24,4.0,90.0
11148,78.0,24,24,4.0,90.0
11149,49.0,0,48,7.0,90.0
11150,54.0,0,48,7.0,90.0
11151,57.0,0,48,7.0,90.0
11152,61.0,0,48,7.0,90.0
11153,81.0,24,16,4.0,90.0
11154,78.0,16,16,4.0,90.0
11155,73.0,16,16,4.0,90.0
11156,76.0,0,46,5.0,90.0
11157,61.0,0,48,7.0,90.0
11158,49.0,0,48,7.0,90.0
11159,53.0,0,48,7.0,90.0
11160,56.0,0,48,7.0,90.0
11161,59.0,16,48,7.0,90.0
11162,75.0,0,46,5.0,90.0
11163,74.0,48,46,5.0,90.0
11164,44.0,0,48,7.0,90.0
11165,65.0,48,0,4.0,90.0
11166,71.0,48,96,4.0,90.0
11167,56.0,48,46,7.0,90.0
11168,59.0,0,46,7.0,90.0
11169,74.0,0,94,5.0,90.0
11170,61.0,0,46,7.0,90.0
11171,65.0,0,0,4.0,90.0
11172,71.0,0,96,4.0,90.0
11173,73.0,48,46,5.0,90.0
11174,71.0,0,46,5.0,90.0
11175,61.0,0,48,7.0,90.0
11176,57.0,0,48,7.0,90.0
11177,66.0,48,94,5.0,90.0
11178,45.0,48,48,7.0,90.0
11179,73.0,48,144,4.0,90.0
11180,58.0,0,46,7.0,90.0
11181,61.0,48,46,7.0,90.0
11182,78.0,48,94,4.0,90.0
11183,58.0,48,48,7.0,90.0
11184,61.0,0,48,7.0,90.0
11185,66.0,48,94,5.0,90.0
11186,78.0,48,190,4.0,90.0
11187,46.0,48,48,7.0,90.0
11188,78.0,48,94,4.0,90.0
11189,59.0,48,46,7.0,90.0
11190,63.0,0,46,7.0,90.0
11191,63.0,48,48,7.0,90.0
11192,59.0,0,48,7.0,90.0
11193,71.0,48,94,5.0,90.0
11194,47.0,48,48,7.0,90.0
11195,78.0,48,192,4.0,90.0
11196,83.0,48,94,4.0,90.0
11197,61.0,48,46,7.0,90.0
11198,64.0,0,46,7.0,90.0
11199,61.0,48,48,7.0,90.0
11200,64.0,0,48,7.0,90.0
11201,83.0,48,190,4.0,90.0
11202,71.0,48,94,5.0,90.0
11203,49.0,48,48,7.0,90.0
11204,66.0,48,46,7.0,90.0
11205,63.0,0,46,7.0,90.0
11206,83.0,0,94,4.0,90.0
11207,71.0,48,94,4.0,90.0
11208,71.0,0,94,4.0,90.0
11209,83.0,48,94,4.0,90.0
11210,66.0,48,46,7.0,90.0
11211,63.0,0,46,7.0,90.0
11212,51.0,48,46,7.0,90.0
11213,67.0,0,46,7.0,90.0
11214,64.0,48,46,7.0,90.0
11215,71.0,0,94,4.0,90.0
11216,83.0,0,94,4.0,90.0
11217,52.0,0,46,7.0,90.0
11218,66.0,0,46,7.0,90.0
11219,71.0,48,94,4.0,90.0
11220,83.0,0,94,4.0,90.0
11221,69.0,48,46,7.0,90.0
11222,54.0,48,46,7.0,90.0
11223,71.0,0,48,4.0,90.0
11224,71.0,48,46,7.0,90.0
11225,67.0,0,46,7.0,90.0
11226,83.0,48,0,4.0,90.0
11227,55.0,0,46,7.0,90.0
11228,76.0,0,94,4.0,90.0
11229,88.0,0,94,4.0,90.0
11230,68.0,0,46,7.0,90.0
11231,71.0,48,46,7.0,90.0
11232,56.0,0,46,7.0,90.0
11233,88.0,0,94,4.0,90.0
11234,86.0,0,94,4.0,90.0
11235,73.0,48,46,7.0,90.0
11236,69.0,0,46,7.0,90.0
11237,76.0,48,94,4.0,90.0
11238,83.0,0,94,4.0,90.0
11239,81.0,0,46,4.0,90.0
11240,85.0,48,46,4.0,90.0
11241,88.0,0,46,4.0,90.0
11242,57.0,0,46,7.0,90.0
11243,88.0,0,48,4.0,90.0
11244,76.0,0,142,4.0,90.0
11245,69.0,0,94,7.0,90.0
11246,73.0,48,94,7.0,90.0
11247,80.0,48,48,4.0,90.0
11248,83.0,0,48,4.0,90.0
11249,76.0,48,94,4.0,90.0
11250,61.0,0,96,7.0,90.0
11251,81.0,48,48,4.0,90.0
11252,80.0,0,48,4.0,90.0
11253,57.0,0,160,7.0,90.0
11254,78.0,0,94,4.0,90.0
11255,81.0,48,48,4.0,90.0
11256,63.0,48,142,7.0,90.0
11257,78.0,0,48,4.0,90.0
11258,84.0,48,94,4.0,90.0
11259,78.0,48,46,4.0,90.0
11260,63.0,0,48,7.0,90.0
11261,81.0,48,46,4.0,90.0
11262,66.0,0,48,7.0,90.0
11263,64.0,0,48,7.0,90.0
11264,79.0,48,48,4.0,90.0
11265,63.0,48,48,7.0,90.0
11266,78.0,0,48,4.0,90.0
11267,57.0,0,256,7.0,90.0
11268,79.0,0,48,4.0,90.0
11269,64.0,48,48,7.0,90.0
11270,83.0,0,238,4.0,90.0
11271,62.0,48,94,7.0,90.0
11272,77.0,0,94,4.0,90.0
11273,80.0,48,48,4.0,90.0
11274,82.0,48,48,4.0,90.0
11275,81.0,48,48,4.0,90.0
11276,80.0,48,48,4.0,90.0
11277,57.0,0,256,7.0,90.0
11278,76.0,0,160,4.0,90.0
11279,81.0,48,48,4.0,90.0
11280,61.0,0,238,7.0,90.0
11281,76.0,48,48,4.0,90.0
11282,83.0,0,94,4.0,90.0
11283,76.0,48,48,4.0,90.0
11284,61.0,0,48,7.0,90.0
11285,79.0,0,46,4.0,90.0
11286,64.0,0,48,7.0,90.0
11287,78.0,48,46,4.0,90.0
11288,62.0,0,48,7.0,90.0
11289,77.0,0,46,4.0,90.0
11290,61.0,48,48,7.0,90.0
11291,57.0,0,256,7.0,90.0
11292,78.0,48,46,4.0,90.0
11293,62.0,0,48,7.0,90.0
11294,81.0,48,240,4.0,90.0
11295,75.0,0,94,5.0,90.0
11296,63.0,0,96,7.0,90.0
11297,60.0,0,96,7.0,90.0
11298,78.0,48,48,4.0,90.0
11299,81.0,0,48,4.0,90.0
11300,57.0,48,160,6.0,90.0
11301,61.0,0,94,7.0,90.0
11302,76.0,0,94,5.0,90.0
11303,64.0,48,94,7.0,90.0
11304,79.0,48,48,4.0,90.0
11305,78.0,0,48,4.0,90.0
11306,63.0,0,48,7.0,90.0
11307,79.0,48,0,4.0,90.0
11308,64.0,0,0,7.0,90.0
11309,73.0,0,190,5.0,90.0
11310,58.0,48,190,6.0,90.0
11311,61.0,48,48,7.0,90.0
11312,76.0,0,48,4.0,90.0
11313,64.0,0,48,7.0,90.0
11314,79.0,0,48,4.0,90.0
11315,59.0,48,94,6.0,90.0
11316,74.0,0,94,5.0,90.0
11317,62.0,48,48,7.0,90.0
11318,78.0,0,48,4.0,90.0
11319,61.0,0,48,7.0,90.0
11320,76.0,48,48,4.0,90.0
11321,62.0,48,46,7.0,90.0
11322,77.0,0,48,4.0,90.0
11323,71.0,0,142,5.0,90.0
11324,65.0,48,46,5.0,90.0
11325,56.0,0,190,6.0,90.0
11326,62.0,0,94,6.0,90.0
11327,77.0,48,96,4.0,90.0
11328,70.0,0,46,5.0,90.0
11329,61.0,0,94,6.0,90.0
11330,55.0,0,94,6.0,90.0
11331,69.0,48,46,5.0,90.0
11332,76.0,48,96,4.0,90.0
11333,64.0,0,96,4.0,90.0
11334,68.0,0,46,5.0,90.0
11335,57.0,0,94,6.0,90.0
11336,69.0,48,46,5.0,90.0
11337,62.0,0,94,6.0,90.0
11338,54.0,48,94,6.0,90.0
11339,66.0,0,94,4.0,90.0
11340,74.0,0,94,4.0,90.0
11341,73.0,48,46,5.0,90.0
11342,52.0,0,48,7.0,90.0
11343,76.0,0,46,5.0,90.0
11344,45.0,0,94,6.0,90.0
11345,49.0,48,48,7.0,90.0
11346,79.0,0,96,4.0,90.0
11347,52.0,0,48,7.0,90.0
11348,74.0,48,94,5.0,90.0
11349,47.0,0,94,6.0,90.0
11350,78.0,0,94,4.0,90.0
11351,50.0,48,48,7.0,90.0
11352,49.0,48,48,7.0,90.0
11353,50.0,48,46,7.0,90.0
11354,44.0,0,94,6.0,90.0
11355,77.0,0,94,5.0,90.0
11356,71.0,0,94,5.0,90.0
11357,50.0,0,48,7.0,90.0
11358,41.0,48,94,6.0,90.0
11359,44.0,48,48,7.0,90.0
11360,83.0,0,192,4.0,90.0
11361,80.0,0,96,4.0,90.0
11362,74.0,0,0,4.0,90.0
11363,71.0,0,96,4.0,90.0
11364,47.0,0,48,7.0,90.0
11365,69.0,0,94,4.0,90.0
11366,81.0,48,94,4.0,90.0
11367,45.0,48,48,7.0,90.0
11368,42.0,0,142,6.0,90.0
11369,44.0,0,48,7.0,90.0
11370,41.0,0,46,6.0,90.0
11371,45.0,48,48,7.0,90.0
11372,40.0,48,46,7.0,90.0
11373,45.0,0,46,7.0,90.0
11374,32.0,48,46,6.0,90.0
11375,86.0,0,192,4.0,90.0
11376,74.0,48,192,4.0,90.0
11377,79.0,0,0,4.0,90.0
11378,34.0,48,46,6.0,90.0
11379,76.0,0,94,4.0,90.0
11380,73.0,0,94,4.0,90.0
11381,33.0,48,46,6.0,90.0
11382,85.0,0,94,4.0,90.0
11383,32.0,0,46,6.0,90.0
11384,33.0,48,46,6.0,90.0
11385,33.0,48,48,7.0,90.0
11386,52.0,48,48,7.0,90.0
11387,91.0,48,238,4.0,90.0
11388,79.0,0,238,4.0,90.0
11389,85.0,0,238,4.0,90.0
11390,88.0,0,238,4.0,90.0
11391,49.0,48,48,7.0,90.0
11392,67.0,48,48,4.0,90.0
11393,55.0,0,48,7.0,90.0
11394,64.0,48,48,4.0,90.0
11395,52.0,0,48,7.0,90.0
11396,58.0,48,48,7.0,90.0
11397,70.0,0,48,4.0,90.0
11398,68.0,48,48,4.0,90.0
11399,56.0,0,48,7.0,90.0
11400,57.0,0,48,7.0,90.0
11401,69.0,48,48,4.0,90.0
11402,52.0,0,48,7.0,90.0
11403,64.0,48,48,4.0,90.0
11404,59.0,48,48,7.0,90.0
11405,71.0,0,48,4.0,90.0
11406,57.0,48,48,7.0,90.0
11407,69.0,0,48,4.0,90.0
11408,55.0,48,46,7.0,90.0
11409,67.0,0,48,4.0,90.0
11410,54.0,0,48,7.0,90.0
11411,66.0,0,94,4.0,90.0
11412,59.0,48,48,7.0,90.0
11413,56.0,48,48,7.0,90.0
11414,57.0,48,48,7.0,90.0
11415,54.0,0,48,7.0,90.0
11416,59.0,48,48,7.0,90.0
11417,56.0,48,48,7.0,90.0
11418,57.0,48,48,7.0,90.0
11419,54.0,48,48,7.0,90.0
11420,50.0,48,448,5.0,90.0
11421,38.0,48,256,6.0,90.0
11422,59.0,48,48,7.0,90.0
11423,54.0,0,48,7.0,90.0
11424,38.0,0,48,6.0,90.0
11425,57.0,48,46,7.0,90.0
11426,50.0,48,96,5.0,90.0
11427,33.0,0,0,6.0,90.0
11428,52.0,0,48,7.0,90.0
11429,49.0,48,96,5.0,90.0
11430,57.0,48,48,7.0,90.0
11431,54.0,0,48,7.0,90.0
11432,57.0,48,48,7.0,90.0
11433,50.0,48,96,5.0,90.0
11434,55.0,48,48,7.0,90.0
11435,57.0,48,48,7.0,90.0
11436,52.0,0,0,5.0,90.0
11437,55.0,48,48,7.0,90.0
11438,57.0,48,48,7.0,90.0
11439,54.0,0,48,7.0,90.0
11440,50.0,48,96,5.0,90.0
11441,57.0,48,48,7.0,90.0
11442,33.0,0,0,6.0,90.0
11443,52.0,0,48,7.0,90.0
11444,57.0,48,46,7.0,90.0
11445,49.0,48,96,5.0,90.0
11446,54.0,48,48,7.0,90.0
11447,30.0,0,94,6.0,90.0
11448,59.0,48,48,7.0,90.0
11449,56.0,48,48,7.0,90.0
11450,57.0,48,48,7.0,90.0
11451,54.0,48,48,7.0,90.0
11452,50.0,0,256,5.0,90.0
11453,59.0,48,48,7.0,90.0
11454,56.0,0,48,7.0,90.0
11455,57.0,48,48,7.0,90.0
11456,54.0,48,48,7.0,90.0
11457,59.0,48,48,7.0,90.0
11458,50.0,48,0,5.0,90.0
11459,74.0,0,288,4.0,90.0
11460,86.0,0,288,4.0,90.0
11461,54.0,0,48,7.0,90.0
11462,74.0,0,48,4.0,90.0
11463,86.0,0,48,4.0,90.0
11464,57.0,48,46,7.0,90.0
11465,81.0,0,48,4.0,90.0
11466,69.0,0,0,4.0,90.0
11467,52.0,48,48,7.0,90.0
11468,49.0,0,96,5.0,90.0
11469,57.0,48,48,7.0,90.0
11470,54.0,0,48,7.0,90.0
11471,50.0,48,96,5.0,90.0
11472,57.0,48,48,7.0,90.0
11473,55.0,48,48,7.0,90.0
11474,81.0,0,256,4.0,90.0
11475,57.0,48,48,7.0,90.0
11476,52.0,48,0,5.0,90.0
11477,55.0,0,48,7.0,90.0
11478,57.0,48,48,7.0,90.0
11479,54.0,0,48,7.0,90.0
11480,81.0,0,0,4.0,90.0
11481,69.0,48,0,4.0,90.0
11482,57.0,48,48,7.0,90.0
11483,50.0,48,96,5.0,90.0
11484,52.0,0,48,7.0,90.0
11485,57.0,48,46,7.0,90.0
11486,49.0,0,96,5.0,90.0
11487,54.0,0,32,7.0,90.0
11488,59.0,32,32,7.0,90.0
11489,66.0,0,94,4.0,90.0
11490,78.0,0,94,4.0,90.0
11491,57.0,32,32,7.0,90.0
11492,56.0,32,32,7.0,90.0
11493,59.0,32,32,7.0,90.0
11494,57.0,32,32,7.0,90.0
11495,54.0,0,32,7.0,90.0
11496,59.0,32,32,7.0,90.0
11497,50.0,48,256,5.0,90.0
11498,57.0,32,32,7.0,90.0
11499,56.0,0,32,7.0,90.0
11500,59.0,32,32,7.0,90.0
11501,38.0,32,190,6.0,90.0
11502,57.0,32,32,7.0,90.0
11503,54.0,32,32,7.0,90.0
11504,59.0,32,32,7.0,90.0
11505,38.0,0,94,6.0,90.0
11506,57.0,32,32,7.0,90.0
11507,50.0,32,192,5.0,90.0
11508,38.0,0,32,6.0,90.0
11509,54.0,32,32,7.0,90.0
11510,58.0,32,32,7.0,90.0
11511,37.0,0,32,6.0,90.0
11512,57.0,32,30,7.0,90.0
11513,50.0,0,96,5.0,90.0
11514,38.0,0,32,6.0,90.0
11515,52.0,0,32,7.0,90.0
11516,59.0,32,32,7.0,90.0
11517,57.0,32,32,7.0,90.0
11518,49.0,32,96,5.0,90.0
11519,54.0,32,32,7.0,90.0
11520,59.0,32,32,7.0,90.0
11521,33.0,0,160,6.0,90.0
11522,50.0,0,96,5.0,90.0
11523,57.0,32,32,7.0,90.0
11524,55.0,32,32,7.0,90.0
11525,59.0,32,32,7.0,90.0
11526,57.0,32,32,7.0,90.0
11527,52.0,0,0,5.0,90.0
11528,55.0,32,32,7.0,90.0
11529,59.0,32,32,7.0,90.0
11530,33.0,0,190,6.0,90.0
11531,57.0,32,32,7.0,90.0
11532,54.0,0,32,7.0,90.0
11533,59.0,32,32,7.0,90.0
11534,57.0,32,32,7.0,90.0
11535,50.0,32,96,5.0,90.0
11536,52.0,0,32,7.0,90.0
11537,59.0,32,32,7.0,90.0
11538,57.0,32,30,7.0,90.0
11539,49.0,32,96,5.0,90.0
11540,33.0,0,192,6.0,90.0
11541,54.0,0,32,7.0,90.0
11542,59.0,32,32,7.0,90.0
11543,30.0,0,94,6.0,90.0
11544,57.0,32,32,7.0,90.0
11545,56.0,32,32,7.0,90.0
11546,59.0,32,32,7.0,90.0
11547,57.0,32,32,7.0,90.0
11548,54.0,32,32,7.0,90.0
11549,59.0,32,32,7.0,90.0
11550,50.0,32,256,5.0,90.0
11551,57.0,32,32,7.0,90.0
11552,56.0,32,32,7.0,90.0
11553,59.0,32,32,7.0,90.0
11554,57.0,32,32,7.0,90.0
11555,74.0,0,192,4.0,90.0
11556,86.0,0,192,4.0,90.0
11557,54.0,32,32,7.0,90.0
11558,59.0,32,32,7.0,90.0
11559,57.0,32,32,7.0,90.0
11560,50.0,0,0,5.0,90.0
11561,74.0,0,96,4.0,90.0
11562,86.0,0,96,4.0,90.0
11563,54.0,32,32,7.0,90.0
11564,86.0,0,32,4.0,90.0
11565,74.0,0,32,4.0,90.0
11566,58.0,32,32,7.0,90.0
11567,73.0,0,32,4.0,90.0
11568,85.0,0,32,4.0,90.0
11569,57.0,0,30,7.0,90.0
11570,74.0,32,32,4.0,90.0
11571,86.0,0,32,4.0,90.0
11572,52.0,0,32,7.0,90.0
11573,59.0,32,32,7.0,90.0
11574,57.0,32,32,7.0,90.0
11575,49.0,32,96,5.0,90.0
11576,54.0,32,32,7.0,90.0
11577,81.0,0,160,4.0,90.0
11578,69.0,0,160,4.0,90.0
11579,59.0,32,32,7.0,90.0
11580,50.0,0,96,5.0,90.0
11581,57.0,32,32,7.0,90.0
11582,55.0,32,32,7.0,90.0
11583,59.0,32,32,7.0,90.0
11584,52.0,32,0,5.0,90.0
11585,57.0,32,32,7.0,90.0
11586,55.0,0,32,7.0,90.0
11587,59.0,32,32,7.0,90.0
11588,81.0,0,192,4.0,90.0
11589,57.0,32,32,7.0,90.0
11590,69.0,0,192,4.0,90.0
11591,54.0,0,32,7.0,90.0
11592,59.0,32,32,7.0,90.0
11593,57.0,32,32,7.0,90.0
11594,50.0,32,96,5.0,90.0
11595,52.0,0,32,7.0,90.0
11596,57.0,32,32,7.0,90.0
11597,69.0,0,160,4.0,90.0
11598,81.0,0,160,4.0,90.0
11599,55.0,32,30,7.0,90.0
11600,79.0,0,32,4.0,90.0
11601,67.0,0,32,4.0,90.0
11602,49.0,32,96,5.0,90.0
11603,54.0,0,32,7.0,90.0
11604,57.0,32,32,7.0,90.0
11605,66.0,0,94,4.0,90.0
11606,78.0,32,94,4.0,90.0
11607,55.0,32,32,7.0,90.0
11608,66.0,0,32,4.0,90.0
11609,54.0,32,32,7.0,90.0
11610,76.0,32,32,4.0,90.0
11611,55.0,0,32,7.0,90.0
11612,74.0,0,32,4.0,90.0
11613,57.0,32,32,7.0,90.0
11614,73.0,0,32,4.0,90.0
11615,59.0,32,32,7.0,90.0
11616,61.0,32,32,7.0,90.0
11617,50.0,0,256,5.0,90.0
11618,71.0,0,32,4.0,90.0
11619,78.0,0,160,4.0,90.0
11620,62.0,32,32,7.0,90.0
11621,69.0,0,32,4.0,90.0
11622,67.0,0,32,4.0,90.0
11623,70.0,32,32,4.0,90.0
11624,69.0,32,32,4.0,90.0
11625,67.0,32,32,4.0,90.0
11626,64.0,0,128,7.0,90.0
11627,62.0,32,32,7.0,90.0
11628,69.0,0,32,4.0,90.0
11629,71.0,0,32,4.0,90.0
11630,61.0,32,32,7.0,90.0
11631,73.0,0,32,4.0,90.0
11632,59.0,32,32,7.0,90.0
11633,57.0,32,32,7.0,90.0
11634,74.0,0,32,4.0,90.0
11635,79.0,32,256,4.0,90.0
11636,55.0,0,30,7.0,90.0
11637,76.0,32,32,4.0,90.0
11638,52.0,0,288,5.0,90.0
11639,61.0,0,32,7.0,90.0
11640,64.0,32,32,7.0,90.0
11641,81.0,32,94,4.0,90.0
11642,69.0,0,94,4.0,90.0
11643,62.0,32,32,7.0,90.0
11644,69.0,0,32,4.0,90.0
11645,57.0,32,32,7.0,90.0
11646,79.0,32,32,4.0,90.0
11647,59.0,0,32,7.0,90.0
11648,60.0,32,32,7.0,90.0
11649,78.0,0,32,4.0,90.0
11650,62.0,0,32,7.0,90.0
11651,76.0,32,32,4.0,90.0
11652,81.0,0,160,4.0,90.0
11653,74.0,0,32,4.0,90.0
11654,64.0,32,32,7.0,90.0
11655,66.0,0,32,7.0,90.0
11656,72.0,32,32,4.0,90.0
11657,54.0,0,288,5.0,90.0
11658,71.0,32,32,4.0,90.0
11659,74.0,32,32,4.0,90.0
11660,72.0,32,32,4.0,90.0
11661,71.0,32,32,4.0,90.0
11662,67.0,0,128,7.0,90.0
11663,66.0,32,32,7.0,90.0
11664,72.0,0,32,4.0,90.0
11665,74.0,0,32,4.0,90.0
11666,64.0,32,32,7.0,90.0
11667,76.0,0,32,4.0,90.0
11668,62.0,32,32,7.0,90.0
11669,78.0,32,32,4.0,90.0
11670,83.0,0,256,4.0,90.0
11671,55.0,0,256,5.0,90.0
11672,60.0,0,32,7.0,90.0
11673,59.0,0,30,7.0,90.0
11674,64.0,0,32,7.0,90.0
11675,79.0,32,64,4.0,90.0
11676,61.0,32,32,7.0,90.0
11677,79.0,0,32,4.0,90.0
11678,78.0,0,32,4.0,90.0
11679,62.0,32,32,7.0,90.0
11680,76.0,0,32,4.0,90.0
11681,64.0,32,32,7.0,90.0
11682,66.0,32,32,7.0,90.0
11683,57.0,0,160,7.0,90.0
11684,74.0,0,32,4.0,90.0
11685,85.0,32,160,4.0,90.0
11686,73.0,0,32,4.0,90.0
11687,67.0,32,32,7.0,90.0
11688,74.0,32,32,4.0,90.0
11689,66.0,0,32,7.0,90.0
11690,64.0,32,32,7.0,90.0
11691,76.0,0,32,4.0,90.0
11692,86.0,0,94,4.0,90.0
11693,59.0,0,94,7.0,90.0
11694,78.0,0,32,4.0,90.0
11695,62.0,32,32,7.0,90.0
11696,70.0,32,30,5.0,90.0
11697,76.0,0,32,4.0,90.0
11698,64.0,0,32,5.0,90.0
11699,82.0,32,32,4.0,90.0
11700,81.0,32,32,4.0,90.0
11701,66.0,0,32,5.0,90.0
11702,67.0,32,32,5.0,90.0
11703,79.0,0,32,4.0,90.0
11704,61.0,0,160,5.0,90.0
11705,78.0,0,32,4.0,90.0
11706,69.0,32,32,5.0,90.0
11707,88.0,0,160,4.0,90.0
11708,70.0,32,32,5.0,90.0
11709,76.0,0,32,4.0,90.0
11710,78.0,0,32,4.0,90.0
11711,69.0,0,32,5.0,90.0
11712,79.0,32,32,4.0,90.0
11713,67.0,0,32,5.0,90.0
11714,63.0,32,94,5.0,90.0
11715,66.0,0,30,5.0,90.0
11716,81.0,32,30,4.0,90.0
11717,90.0,0,94,4.0,90.0
11718,79.0,32,32,4.0,90.0
11719,67.0,0,32,5.0,90.0
11720,70.0,32,32,5.0,90.0
11721,78.0,0,32,4.0,90.0
11722,91.0,0,94,4.0,90.0
11723,64.0,0,94,5.0,90.0
11724,76.0,32,32,4.0,90.0
11725,73.0,0,32,5.0,90.0
11726,75.0,0,32,4.0,90.0
11727,72.0,32,32,5.0,90.0
11728,71.0,0,32,5.0,90.0
11729,74.0,32,32,4.0,90.0
11730,81.0,0,94,4.0,90.0
11731,66.0,0,94,5.0,90.0
11732,75.0,0,32,4.0,90.0
11733,72.0,32,32,5.0,90.0
11734,71.0,0,32,5.0,90.0
11735,74.0,32,32,4.0,90.0
11736,67.0,0,46,5.0,90.0
11737,72.0,32,32,4.0,90.0
11738,69.0,0,32,5.0,90.0
11739,83.0,0,94,4.0,90.0
11740,67.0,0,30,5.0,90.0
11741,71.0,32,32,4.0,90.0
11742,55.0,0,46,5.0,90.0
11743,59.0,0,32,5.0,90.0
11744,74.0,0,32,4.0,90.0
11745,61.0,32,32,5.0,90.0
11746,73.0,0,32,4.0,90.0
11747,71.0,0,32,4.0,90.0
11748,62.0,32,32,5.0,90.0
11749,68.0,32,32,4.0,90.0
11750,65.0,0,32,5.0,90.0
11751,77.0,32,160,4.0,90.0
11752,69.0,32,32,4.0,90.0
11753,64.0,0,32,5.0,90.0
11754,56.0,0,160,5.0,90.0
11755,62.0,0,32,5.0,90.0
11756,71.0,32,32,4.0,90.0
11757,61.0,0,32,5.0,90.0
11758,73.0,0,32,4.0,90.0
11759,63.0,0,32,5.0,90.0
11760,70.0,32,32,4.0,90.0
11761,69.0,0,30,4.0,90.0
11762,64.0,32,30,5.0,90.0
11763,55.0,32,94,5.0,90.0
11764,76.0,0,94,4.0,90.0
11765,75.0,32,288,4.0,90.0
11766,81.0,0,288,4.0,90.0
11767,66.0,0,288,5.0,90.0
11768,69.0,0,288,5.0,90.0
11769,83.0,0,192,4.0,90.0
11770,78.0,192,0,4.0,90.0
11771,71.0,0,0,4.0,90.0
11772,63.0,0,192,5.0,90.0
11773,66.0,0,192,5.0,90.0
11774,75.0,0,96,4.0,90.0
11775,59.0,0,96,5.0,90.0
11776,63.0,0,96,5.0,90.0
11777,66.0,0,96,5.0,90.0
11778,81.0,0,48,4.0,90.0
11779,78.0,48,48,4.0,90.0
11780,64.0,96,142,5.0,90.0
11781,67.0,0,142,5.0,90.0
11782,91.0,0,48,4.0,90.0
11783,79.0,48,48,4.0,90.0
11784,83.0,0,48,4.0,90.0
11785,71.0,0,48,4.0,90.0
11786,59.0,0,48,5.0,90.0
11787,69.0,48,46,5.0,90.0
11788,90.0,0,48,4.0,90.0
11789,78.0,0,48,4.0,90.0
11790,55.0,48,142,5.0,90.0
11791,67.0,0,46,5.0,90.0
11792,88.0,0,48,4.0,90.0
11793,76.0,48,48,4.0,90.0
11794,66.0,0,46,5.0,90.0
11795,74.0,0,48,4.0,90.0
11796,68.0,48,46,5.0,90.0
11797,77.0,0,48,4.0,90.0
11798,71.0,0,46,5.0,90.0
11799,79.0,48,48,4.0,90.0
11800,86.0,0,160,4.0,90.0
11801,57.0,48,160,5.0,90.0
11802,69.0,0,46,5.0,90.0
11803,78.0,48,48,4.0,90.0
11804,85.0,0,46,4.0,90.0
11805,81.0,0,46,4.0,90.0
11806,33.0,48,46,7.0,90.0
11807,73.0,0,46,4.0,90.0
11808,45.0,0,46,7.0,90.0
11809,76.0,0,46,4.0,90.0
11810,43.0,48,22,7.0,90.0
11811,31.0,0,22,7.0,90.0
11812,42.0,24,22,7.0,90.0
11813,30.0,0,22,7.0,90.0
11814,84.0,24,0,4.0,90.0
11815,81.0,0,0,4.0,90.0
11816,72.0,0,48,4.0,90.0
11817,75.0,0,48,4.0,90.0
11818,30.0,0,22,7.0,90.0
11819,33.0,0,22,7.0,90.0
11820,78.0,24,24,4.0,90.0
11821,36.0,0,22,7.0,90.0
11822,75.0,24,24,4.0,90.0
11823,39.0,24,22,7.0,90.0
11824,72.0,0,0,4.0,90.0
11825,42.0,24,22,7.0,90.0
11826,69.0,0,24,4.0,90.0
11827,45.0,0,22,7.0,90.0
11828,66.0,24,24,4.0,90.0
11829,48.0,0,22,7.0,90.0
11830,63.0,24,24,4.0,90.0
11831,51.0,0,22,7.0,90.0
11832,62.0,24,24,4.0,90.0
11833,54.0,0,22,7.0,90.0
11834,69.0,24,24,4.0,90.0
11835,60.0,24,22,7.0,90.0
11836,63.0,0,24,4.0,90.0
11837,55.0,0,22,7.0,90.0
11838,62.0,0,24,4.0,90.0
11839,59.0,24,24,4.0,90.0
11840,59.0,24,22,7.0,90.0
11841,71.0,0,46,4.0,90.0
11842,67.0,0,0,4.0,90.0
11843,43.0,0,160,7.0,90.0
11844,55.0,24,160,7.0,90.0
11845,62.0,0,160,4.0,90.0
11846,70.0,0,160,4.0,90.0
11847,58.0,0,160,4.0,90.0
11848,66.0,0,32,4.0,90.0
11849,33.0,0,32,7.0,90.0
11850,62.0,32,32,4.0,90.0
11851,38.0,0,32,7.0,90.0
11852,69.0,288,94,4.0,90.0
11853,57.0,0,32,4.0,90.0
11854,42.0,32,32,7.0,90.0
11855,66.0,0,22,4.0,90.0
11856,45.0,0,24,7.0,90.0
11857,50.0,24,24,7.0,90.0
11858,62.0,0,24,4.0,90.0
11859,54.0,24,24,7.0,90.0
11860,57.0,0,24,4.0,90.0
11861,66.0,0,24,4.0,90.0
11862,57.0,24,24,7.0,90.0
11863,50.0,0,24,7.0,90.0
11864,66.0,24,24,4.0,90.0
11865,69.0,0,142,4.0,90.0
11866,54.0,24,24,7.0,90.0
11867,62.0,0,24,4.0,90.0
11868,50.0,0,24,7.0,90.0
11869,65.0,0,24,4.0,90.0
11870,68.0,0,46,4.0,90.0
11871,47.0,24,46,7.0,90.0
11872,62.0,0,24,4.0,90.0
11873,53.0,24,24,7.0,90.0
11874,52.0,0,94,7.0,90.0
11875,49.0,0,94,7.0,90.0
11876,67.0,0,94,4.0,90.0
11877,58.0,0,94,4.0,90.0
11878,55.0,0,94,4.0,90.0
11879,64.0,24,94,4.0,90.0
11880,46.0,0,144,7.0,90.0
11881,49.0,96,144,7.0,90.0
11882,52.0,0,144,7.0,90.0
11883,55.0,0,144,7.0,90.0
11884,47.0,144,48,7.0,90.0
11885,54.0,48,0,7.0,90.0
11886,51.0,0,0,7.0,90.0
11887,47.0,0,160,7.0,90.0
11888,59.0,0,96,7.0,90.0
11889,51.0,96,0,7.0,90.0
11890,47.0,0,0,7.0,90.0
11891,54.0,0,0,7.0,90.0
11892,66.0,0,0,4.0,90.0
11893,63.0,0,0,4.0,90.0
11894,59.0,0,192,7.0,90.0
11895,54.0,0,0,7.0,90.0
11896,51.0,0,96,7.0,90.0
11897,71.0,192,96,4.0,90.0
11898,47.0,0,96,7.0,90.0
11899,59.0,0,96,7.0,90.0
11900,35.0,0,96,7.0,90.0
11901,47.0,0,96,7.0,90.0
11902,71.0,0,192,4.0,90.0
11903,66.0,96,192,4.0,90.0
11904,63.0,0,192,4.0,90.0
11905,59.0,0,0,4.0,90.0
11906,63.0,96,96,4.0,90.0
11907,66.0,0,96,4.0,90.0
11908,71.0,0,96,4.0,90.0
11909,42.0,0,192,7.0,90.0
11910,30.0,96,192,7.0,90.0
11911,43.0,0,96,7.0,90.0
11912,31.0,0,96,7.0,90.0
11913,59.0,0,96,4.0,90.0
11914,64.0,96,96,4.0,90.0
11915,71.0,0,96,4.0,90.0
11916,61.0,0,160,4.0,90.0
11917,64.0,0,160,4.0,90.0
11918,69.0,0,160,4.0,90.0
11919,57.0,0,160,4.0,90.0
11920,33.0,0,160,7.0,90.0
11921,45.0,96,160,7.0,90.0
11922,26.0,0,192,7.0,90.0
11923,38.0,192,192,7.0,90.0
11924,69.0,0,192,4.0,90.0
11925,57.0,0,192,4.0,90.0
11926,66.0,0,0,4.0,90.0
11927,62.0,0,192,4.0,90.0
11928,54.0,192,96,7.0,90.0
11929,57.0,0,192,4.0,90.0
11930,45.0,96,192,7.0,90.0
11931,57.0,0,96,7.0,90.0
11932,69.0,192,96,4.0,90.0
11933,54.0,96,192,7.0,90.0
11934,66.0,0,192,4.0,90.0
11935,45.0,0,0,7.0,90.0
11936,78.0,0,96,4.0,90.0
11937,81.0,0,96,4.0,90.0
11938,90.0,0,96,4.0,90.0
11939,33.0,192,96,7.0,90.0
11940,47.0,96,192,7.0,90.0
11941,88.0,0,192,4.0,90.0
11942,79.0,0,192,4.0,90.0
11943,76.0,192,0,4.0,90.0
11944,35.0,0,192,7.0,90.0
11945,45.0,0,0,7.0,90.0
11946,69.0,0,96,4.0,90.0
11947,81.0,0,0,4.0,90.0
11948,79.0,0,96,4.0,90.0
11949,49.0,0,96,7.0,90.0
11950,45.0,0,0,7.0,90.0
11951,37.0,0,96,7.0,90.0
11952,38.0,0,160,7.0,90.0
11953,69.0,0,160,4.0,90.0
11954,78.0,96,160,4.0,90.0
11955,50.0,0,160,7.0,90.0
11956,66.0,192,96,7.0,90.0
11957,78.0,0,96,4.0,90.0
11958,57.0,96,192,7.0,90.0
11959,69.0,0,192,4.0,90.0
11960,69.0,0,96,4.0,90.0
11961,81.0,0,96,4.0,90.0
11962,42.0,192,96,7.0,90.0
11963,54.0,0,96,7.0,90.0
11964,78.0,96,192,4.0,90.0
11965,66.0,0,192,4.0,90.0
11966,45.0,192,0,7.0,90.0
11967,57.0,0,192,7.0,90.0
11968,81.0,0,96,4.0,90.0
11969,69.0,0,96,4.0,90.0
11970,42.0,0,192,7.0,90.0
11971,54.0,0,192,7.0,90.0
11972,45.0,0,0,7.0,90.0
11973,40.0,0,96,7.0,90.0
11974,71.0,0,192,4.0,90.0
11975,52.0,96,96,7.0,90.0
11976,83.0,96,192,4.0,90.0
11977,45.0,0,96,7.0,90.0
11978,79.0,0,96,4.0,90.0
11979,73.0,0,96,4.0,90.0
11980,76.0,0,96,4.0,90.0
11981,33.0,0,96,7.0,90.0
11982,85.0,96,96,4.0,90.0
11983,74.0,0,288,4.0,90.0
11984,86.0,0,288,4.0,90.0
11985,38.0,96,288,7.0,90.0
11986,45.0,0,0,7.0,90.0
11987,78.0,0,288,4.0,90.0
11988,33.0,288,0,7.0,90.0
11989,88.0,0,0,4.0,90.0
11990,85.0,0,0,4.0,90.0
11991,76.0,288,288,4.0,90.0
11992,76.0,0,192,4.0,90.0
11993,45.0,0,192,7.0,90.0
11994,43.0,0,48,7.0,90.0
11995,87.0,0,96,4.0,90.0
11996,90.0,0,96,4.0,90.0
11997,42.0,48,48,7.0,90.0
11998,78.0,192,96,4.0,90.0
11999,40.0,0,48,7.0,90.0
12000,38.0,48,48,7.0,90.0
12001,91.0,0,96,4.0,90.0
12002,88.0,0,0,4.0,90.0
12003,79.0,48,96,4.0,90.0
12004,37.0,0,32,7.0,90.0
12005,40.0,32,32,7.0,90.0
12006,93.0,0,0,4.0,90.0
12007,81.0,32,0,4.0,90.0
12008,45.0,32,32,7.0,90.0
12009,88.0,0,0,4.0,90.0
12010,49.0,0,32,7.0,90.0
12011,52.0,32,32,7.0,90.0
12012,57.0,32,30,7.0,90.0
12013,91.0,0,96,4.0,90.0
12014,81.0,0,0,4.0,90.0
12015,93.0,0,94,4.0,90.0
12016,81.0,0,96,4.0,90.0
12017,69.0,96,96,4.0,90.0
12018,42.0,32,288,7.0,90.0
12019,66.0,96,96,4.0,90.0
12020,78.0,96,0,4.0,90.0
12021,54.0,0,288,7.0,90.0
12022,66.0,0,96,4.0,90.0
12023,62.0,96,96,4.0,90.0
12024,74.0,0,96,4.0,90.0
12025,64.0,96,96,4.0,90.0
12026,76.0,0,96,4.0,90.0
12027,57.0,0,288,7.0,90.0
12028,45.0,0,288,7.0,90.0
12029,66.0,0,256,4.0,90.0
12030,50.0,96,256,7.0,90.0
12031,62.0,0,256,7.0,90.0
12032,78.0,0,256,4.0,90.0
12033,67.0,288,192,4.0,90.0
12034,79.0,0,192,4.0,90.0
12035,59.0,0,192,7.0,90.0
12036,47.0,0,192,7.0,90.0
12037,43.0,0,96,7.0,90.0
12038,83.0,0,0,4.0,90.0
12039,71.0,96,0,4.0,90.0
12040,55.0,0,96,7.0,90.0
12041,79.0,192,0,4.0,90.0
12042,52.0,0,192,7.0,90.0
12043,40.0,0,192,7.0,90.0
12044,55.0,0,94,7.0,90.0
12045,82.0,0,94,4.0,90.0
12046,70.0,0,94,4.0,90.0
12047,52.0,0,94,7.0,90.0
12048,82.0,96,96,4.0,90.0
12049,70.0,0,96,4.0,90.0
12050,76.0,0,96,4.0,90.0
12051,52.0,0,192,7.0,90.0
12052,49.0,0,192,7.0,90.0
12053,88.0,96,96,4.0,90.0
12054,50.0,0,48,7.0,90.0
12055,77.0,0,48,4.0,90.0
12056,89.0,96,48,4.0,90.0
12057,47.0,0,48,7.0,90.0
12058,46.0,0,48,7.0,90.0
12059,49.0,0,48,7.0,90.0
12060,90.0,0,0,4.0,90.0
12061,78.0,48,0,4.0,90.0
12062,46.0,0,46,7.0,90.0
12063,49.0,48,48,7.0,90.0
12064,54.0,48,48,7.0,90.0
12065,58.0,48,48,7.0,90.0
12066,61.0,48,48,7.0,90.0
12067,66.0,48,48,7.0,90.0
12068,75.0,0,48,4.0,90.0
12069,78.0,48,48,4.0,90.0
12070,80.0,48,48,4.0,90.0
12071,87.0,48,48,4.0,90.0
12072,90.0,48,48,4.0,90.0
12073,68.0,0,256,7.0,90.0
12074,66.0,0,256,7.0,90.0
12075,63.0,0,256,7.0,90.0
12076,60.0,48,256,7.0,90.0
12077,92.0,48,46,4.0,90.0
12078,44.0,48,192,7.0,90.0
12079,56.0,0,192,7.0,90.0
12080,77.0,0,288,4.0,90.0
12081,41.0,192,96,7.0,90.0
12082,53.0,0,96,7.0,90.0
12083,65.0,0,288,4.0,90.0
12084,68.0,0,94,5.0,90.0
12085,41.0,0,96,7.0,90.0
12086,53.0,0,96,7.0,90.0
12087,77.0,0,94,5.0,90.0
12088,49.0,0,96,7.0,90.0
12089,37.0,96,96,7.0,90.0
12090,80.0,96,192,4.0,90.0
12091,80.0,0,94,5.0,90.0
12092,78.0,0,96,4.0,90.0
12093,51.0,0,96,7.0,90.0
12094,39.0,96,96,7.0,90.0
12095,80.0,0,94,5.0,90.0
12096,53.0,96,160,7.0,90.0
12097,41.0,0,160,7.0,90.0
12098,73.0,96,94,5.0,90.0
12099,85.0,0,256,4.0,90.0
12100,73.0,96,94,5.0,90.0
12101,53.0,0,96,7.0,90.0
12102,56.0,0,96,7.0,90.0
12103,73.0,0,94,5.0,90.0
12104,69.0,96,94,5.0,90.0
12105,57.0,0,192,7.0,90.0
12106,81.0,96,192,4.0,90.0
12107,54.0,0,192,7.0,90.0
12108,73.0,0,94,5.0,90.0
12109,66.0,0,94,5.0,90.0
12110,61.0,0,96,7.0,90.0
12111,57.0,96,0,7.0,90.0
12112,78.0,0,96,4.0,90.0
12113,78.0,0,94,5.0,90.0
12114,87.0,96,94,5.0,90.0
12115,61.0,0,192,7.0,90.0
12116,90.0,0,192,4.0,90.0
12117,90.0,0,94,4.0,90.0
12118,87.0,0,94,4.0,90.0
12119,78.0,96,94,4.0,90.0
12120,60.0,0,94,7.0,90.0
12121,56.0,0,94,7.0,90.0
12122,56.0,96,96,7.0,90.0
12123,60.0,0,96,7.0,90.0
12124,78.0,0,96,4.0,90.0
12125,87.0,0,0,4.0,90.0
12126,90.0,0,96,4.0,90.0
12127,78.0,0,96,4.0,90.0
12128,60.0,96,96,7.0,90.0
12129,80.0,0,0,4.0,90.0
12130,63.0,0,96,7.0,90.0
12131,85.0,0,94,4.0,90.0
12132,77.0,96,94,4.0,90.0
12133,61.0,0,94,7.0,90.0
12134,65.0,0,94,7.0,90.0
12135,62.0,96,46,7.0,90.0
12136,65.0,48,48,7.0,90.0
12137,68.0,48,48,7.0,90.0
12138,80.0,0,160,4.0,90.0
12139,83.0,0,160,4.0,90.0
12140,77.0,0,160,4.0,90.0
12141,74.0,48,48,7.0,90.0
12142,77.0,48,48,7.0,90.0
12143,56.0,0,48,4.0,90.0
12144,80.0,48,48,7.0,90.0
12145,53.0,0,48,4.0,90.0
12146,50.0,0,48,4.0,90.0
12147,74.0,48,72,7.0,90.0
12148,82.0,0,72,7.0,90.0
12149,77.0,0,72,7.0,90.0
12150,80.0,0,72,7.0,90.0
12151,53.0,48,48,4.0,90.0
12152,58.0,48,48,4.0,90.0
12153,62.0,48,48,4.0,90.0
12154,65.0,48,48,4.0,90.0
12155,70.0,48,46,4.0,90.0
12156,43.0,48,48,7.0,90.0
12157,46.0,48,48,7.0,90.0
12158,51.0,48,48,7.0,90.0
12159,82.0,0,192,4.0,90.0
12160,70.0,0,192,4.0,90.0
12161,55.0,48,48,7.0,90.0
12162,58.0,48,48,7.0,90.0
12163,63.0,48,46,7.0,90.0
12164,67.0,0,96,4.0,90.0
12165,79.0,0,96,4.0,90.0
12166,46.0,48,48,7.0,90.0
12167,67.0,0,96,4.0,90.0
12168,79.0,0,96,4.0,90.0
12169,51.0,48,48,7.0,90.0
12170,55.0,0,48,7.0,90.0
12171,58.0,48,48,7.0,90.0
12172,75.0,48,96,4.0,90.0
12173,63.0,0,96,4.0,90.0
12174,56.0,48,48,7.0,90.0
12175,65.0,0,48,4.0,90.0
12176,53.0,0,46,7.0,90.0
12177,74.0,0,94,4.0,90.0
12178,70.0,0,94,4.0,90.0
12179,77.0,0,94,4.0,90.0
12180,68.0,48,48,4.0,90.0
12181,51.0,48,48,7.0,126.0
12182,55.0,48,48,7.0,90.0
12183,58.0,48,48,7.0,90.0
12184,67.0,0,160,4.0,90.0
12185,70.0,0,160,4.0,90.0
12186,75.0,0,160,4.0,90.0
12187,79.0,0,160,4.0,90.0
12188,63.0,48,48,7.0,90.0
12189,44.0,0,48,7.0,90.0
12190,56.0,48,46,7.0,90.0
12191,83.0,0,96,4.0,90.0
12192,71.0,48,96,4.0,90.0
12193,47.0,0,48,7.0,90.0
12194,51.0,48,48,7.0,90.0
12195,56.0,48,48,7.0,90.0
12196,68.0,48,192,4.0,90.0
12197,80.0,0,192,4.0,90.0
12198,59.0,48,48,7.0,90.0
12199,49.0,0,48,7.0,90.0
12200,61.0,48,46,7.0,90.0
12201,65.0,48,96,4.0,126.0
12202,77.0,0,96,4.0,126.0
12203,46.0,48,48,7.0,90.0
12204,49.0,48,48,7.0,90.0
12205,54.0,48,48,7.0,90.0
12206,73.0,0,160,4.0,90.0
12207,85.0,0,160,4.0,90.0
12208,58.0,48,48,7.0,90.0
12209,49.0,0,48,7.0,90.0
12210,61.0,48,46,7.0,90.0
12211,82.0,48,96,4.0,126.0
12212,70.0,0,96,4.0,126.0
12213,51.0,0,48,7.0,90.0
12214,55.0,48,48,7.0,90.0
12215,58.0,48,48,7.0,90.0
12216,67.0,0,160,4.0,90.0
12217,79.0,48,160,4.0,90.0
12218,63.0,48,48,7.0,90.0
12219,55.0,48,48,7.0,90.0
12220,75.0,0,94,4.0,90.0
12221,58.0,0,46,7.0,90.0
12222,67.0,0,48,4.0,90.0
12223,63.0,48,0,4.0,90.0
12224,56.0,0,48,7.0,90.0
12225,68.0,0,96,4.0,90.0
12226,59.0,48,48,7.0,90.0
12227,63.0,48,48,7.0,90.0
12228,71.0,0,160,4.0,90.0
12229,68.0,48,48,7.0,90.0
12230,60.0,48,48,7.0,90.0
12231,63.0,48,46,7.0,90.0
12232,68.0,0,96,4.0,90.0
12233,61.0,48,48,7.0,90.0
12234,64.0,48,48,7.0,90.0
12235,68.0,48,48,7.0,90.0
12236,76.0,0,160,4.0,90.0
12237,73.0,48,48,7.0,90.0
12238,65.0,0,48,7.0,90.0
12239,68.0,48,46,7.0,90.0
12240,73.0,48,96,4.0,90.0
12241,54.0,48,48,7.0,90.0
12242,58.0,48,48,7.0,90.0
12243,61.0,48,48,7.0,90.0
12244,70.0,0,160,4.0,90.0
12245,66.0,48,48,7.0,90.0
12246,39.0,48,48,7.0,126.0
12247,51.0,48,46,7.0,126.0
12248,78.0,0,96,4.0,126.0
12249,90.0,0,96,4.0,126.0
12250,42.0,0,48,7.0,90.0
12251,46.0,48,48,7.0,90.0
12252,51.0,48,48,7.0,90.0
12253,54.0,48,48,7.0,90.0
12254,75.0,0,192,4.0,90.0
12255,87.0,48,192,4.0,90.0
12256,44.0,48,48,7.0,90.0
12257,56.0,48,46,7.0,90.0
12258,84.0,0,96,4.0,126.0
12259,72.0,0,96,4.0,126.0
12260,40.0,48,48,7.0,126.0
12261,44.0,48,48,7.0,90.0
12262,49.0,48,48,7.0,90.0
12263,52.0,48,48,7.0,90.0
12264,80.0,0,192,4.0,90.0
12265,92.0,0,192,4.0,90.0
12266,44.0,48,48,7.0,90.0
12267,56.0,48,46,7.0,90.0
12268,88.0,0,96,4.0,126.0
12269,76.0,0,96,4.0,126.0
12270,45.0,48,48,7.0,90.0
12271,49.0,48,48,7.0,90.0
12272,52.0,48,48,7.0,90.0
12273,85.0,0,160,4.0,90.0
12274,73.0,0,160,4.0,90.0
12275,57.0,48,48,7.0,90.0
12276,49.0,0,48,7.0,90.0
12277,61.0,48,46,7.0,90.0
12278,69.0,48,96,4.0,90.0
12279,57.0,0,96,4.0,90.0
12280,57.0,0,94,5.0,90.0
12281,58.0,48,46,5.0,90.0
12282,63.0,48,46,5.0,90.0
12283,54.0,48,142,6.0,90.0
12284,51.0,0,192,7.0,90.0
12285,66.0,48,192,4.0,90.0
12286,55.0,0,48,7.0,90.0
12287,63.0,48,96,4.0,90.0
12288,58.0,48,48,7.0,90.0
12289,56.0,48,48,7.0,90.0
12290,59.0,48,48,7.0,90.0
12291,63.0,48,48,7.0,90.0
12292,68.0,48,48,7.0,90.0
12293,83.0,0,192,4.0,90.0
12294,60.0,48,48,7.0,90.0
12295,63.0,48,46,7.0,90.0
12296,80.0,0,96,4.0,90.0
12297,61.0,0,48,7.0,90.0
12298,65.0,48,48,7.0,90.0
12299,68.0,48,48,7.0,90.0
12300,77.0,48,160,4.0,90.0
12301,73.0,48,48,7.0,90.0
12302,65.0,48,48,7.0,90.0
12303,73.0,0,96,4.0,90.0
12304,85.0,0,96,4.0,90.0
12305,68.0,48,48,7.0,90.0
12306,73.0,0,46,5.0,90.0
12307,66.0,48,48,7.0,90.0
12308,69.0,0,48,7.0,90.0
12309,78.0,48,94,5.0,90.0
12310,73.0,48,48,7.0,90.0
12311,81.0,0,160,4.0,90.0
12312,69.0,48,46,5.0,90.0
12313,78.0,0,48,7.0,90.0
12314,59.0,48,48,7.0,90.0
12315,71.0,0,46,7.0,90.0
12316,59.0,48,46,7.0,90.0
12317,74.0,0,96,4.0,90.0
12318,86.0,0,96,4.0,90.0
12319,56.0,48,46,7.0,90.0
12320,68.0,0,46,7.0,90.0
12321,83.0,0,160,4.0,90.0
12322,71.0,48,160,4.0,90.0
12323,53.0,96,46,7.0,90.0
12324,65.0,0,46,7.0,90.0
12325,80.0,0,96,4.0,90.0
12326,68.0,48,96,4.0,90.0
12327,49.0,48,46,7.0,90.0
12328,61.0,0,46,7.0,90.0
12329,77.0,0,160,4.0,90.0
12330,65.0,96,160,4.0,90.0
12331,37.0,96,46,7.0,90.0
12332,49.0,0,46,7.0,90.0
12333,74.0,48,96,4.0,90.0
12334,71.0,0,96,4.0,90.0
12335,68.0,96,0,4.0,90.0
12336,65.0,0,0,4.0,90.0
12337,49.0,48,46,7.0,90.0
12338,37.0,0,46,7.0,90.0
12339,71.0,0,160,4.0,90.0
12340,62.0,0,160,4.0,90.0
12341,37.0,96,46,7.0,126.0
12342,65.0,0,96,4.0,90.0
12343,62.0,0,0,4.0,90.0
12344,59.0,0,0,4.0,90.0
12345,68.0,0,96,4.0,90.0
12346,37.0,48,46,7.0,126.0
12347,65.0,96,160,4.0,90.0
12348,56.0,0,160,4.0,90.0
12349,37.0,96,46,7.0,126.0
12350,37.0,0,94,7.0,126.0
12351,53.0,0,120,4.0,90.0
12352,56.0,0,120,4.0,90.0
12353,59.0,0,120,4.0,90.0
12354,62.0,48,120,4.0,90.0
12355,59.0,24,24,4.0,90.0
12356,56.0,24,24,4.0,90.0
12357,37.0,96,94,7.0,90.0
12358,53.0,24,24,4.0,90.0
12359,50.0,24,24,4.0,90.0
12360,47.0,24,24,4.0,90.0
12361,44.0,24,24,4.0,90.0
12362,37.0,0,94,7.0,90.0
12363,47.0,24,24,4.0,90.0
12364,47.0,0,24,4.0,90.0
12365,50.0,0,24,4.0,90.0
12366,53.0,24,24,4.0,90.0
12367,56.0,24,24,4.0,90.0
12368,44.0,24,94,7.0,90.0
12369,37.0,0,94,7.0,90.0
12370,59.0,24,0,4.0,90.0
12371,62.0,0,24,4.0,90.0
12372,65.0,24,24,4.0,90.0
12373,68.0,24,24,4.0,90.0
12374,44.0,0,94,7.0,90.0
12375,37.0,0,94,7.0,90.0
12376,71.0,24,24,4.0,90.0
12377,74.0,24,24,4.0,90.0
12378,71.0,0,24,4.0,90.0
12379,77.0,24,24,4.0,90.0
12380,80.0,24,24,4.0,90.0
12381,37.0,0,94,7.0,90.0
12382,44.0,0,94,7.0,90.0
12383,83.0,24,22,4.0,90.0
12384,86.0,0,24,4.0,90.0
12385,84.0,24,24,4.0,90.0
12386,86.0,24,24,4.0,90.0
12387,81.0,0,94,4.0,90.0
12388,30.0,24,94,7.0,90.0
12389,37.0,0,94,7.0,90.0
12390,42.0,0,94,7.0,90.0
12391,85.0,24,24,4.0,90.0
12392,86.0,0,24,4.0,90.0
12393,73.0,24,24,4.0,90.0
12394,86.0,24,24,4.0,90.0
12395,81.0,0,94,5.0,90.0
12396,42.0,0,94,7.0,90.0
12397,37.0,0,94,7.0,90.0
12398,30.0,24,94,7.0,90.0
12399,85.0,24,24,4.0,90.0
12400,73.0,0,24,4.0,90.0
12401,85.0,24,24,4.0,90.0
12402,86.0,24,24,4.0,90.0
12403,37.0,0,94,7.0,90.0
12404,81.0,0,94,5.0,90.0
12405,49.0,0,94,7.0,90.0
12406,42.0,24,94,7.0,90.0
12407,85.0,24,24,4.0,90.0
12408,83.0,0,24,4.0,90.0
12409,69.0,24,24,4.0,90.0
12410,83.0,24,24,4.0,90.0
12411,37.0,0,94,7.0,90.0
12412,42.0,0,94,7.0,90.0
12413,49.0,24,94,7.0,90.0
12414,81.0,24,24,4.0,90.0
12415,69.0,0,24,4.0,90.0
12416,81.0,24,24,4.0,90.0
12417,83.0,24,24,4.0,90.0
12418,37.0,0,94,7.0,90.0
12419,49.0,0,94,7.0,90.0
12420,42.0,24,94,7.0,90.0
12421,81.0,24,24,4.0,90.0
12422,80.0,24,24,4.0,90.0
12423,66.0,24,24,4.0,90.0
12424,80.0,24,24,4.0,90.0
12425,37.0,0,94,7.0,90.0
12426,49.0,0,94,7.0,90.0
12427,42.0,0,94,7.0,90.0
12428,78.0,24,24,4.0,90.0
12429,68.0,24,24,4.0,90.0
12430,80.0,24,24,4.0,90.0
12431,81.0,24,24,4.0,90.0
12432,37.0,0,94,7.0,90.0
12433,41.0,0,94,7.0,90.0
12434,49.0,0,94,7.0,90.0
12435,80.0,24,24,4.0,90.0
12436,69.0,0,24,4.0,90.0
12437,81.0,24,24,4.0,90.0
12438,83.0,24,24,4.0,90.0
12439,37.0,0,94,7.0,90.0
12440,42.0,24,94,7.0,90.0
12441,49.0,0,94,7.0,90.0
12442,81.0,24,24,4.0,90.0
12443,83.0,24,24,4.0,90.0
12444,70.0,24,24,4.0,90.0
12445,83.0,24,24,4.0,90.0
12446,49.0,0,94,7.0,90.0
12447,37.0,0,94,7.0,90.0
12448,42.0,0,94,7.0,90.0
12449,82.0,24,24,4.0,90.0
12450,71.0,0,24,4.0,90.0
12451,83.0,24,24,4.0,90.0
12452,85.0,24,24,4.0,90.0
12453,42.0,24,94,7.0,90.0
12454,50.0,0,94,7.0,90.0
12455,38.0,0,94,7.0,90.0
12456,83.0,24,24,4.0,90.0
12457,85.0,0,24,4.0,90.0
12458,83.0,24,24,4.0,90.0
12459,71.0,24,24,4.0,90.0
12460,38.0,24,94,7.0,90.0
12461,42.0,0,94,7.0,90.0
12462,50.0,0,94,7.0,90.0
12463,83.0,24,24,4.0,90.0
12464,71.0,0,24,4.0,90.0
12465,83.0,24,24,4.0,90.0
12466,85.0,24,24,4.0,90.0
12467,50.0,0,94,7.0,90.0
12468,42.0,24,94,7.0,90.0
12469,38.0,0,94,7.0,90.0
12470,83.0,24,24,4.0,90.0
12471,88.0,24,22,4.0,90.0
12472,86.0,24,24,4.0,90.0
12473,74.0,24,24,4.0,90.0
12474,35.0,0,94,7.0,90.0
12475,42.0,0,94,7.0,90.0
12476,47.0,0,94,7.0,90.0
12477,86.0,24,24,4.0,90.0
12478,74.0,0,24,4.0,90.0
12479,86.0,24,24,4.0,90.0
12480,88.0,24,24,4.0,90.0
12481,35.0,24,94,7.0,90.0
12482,47.0,0,94,7.0,90.0
12483,42.0,0,94,7.0,90.0
12484,86.0,24,24,4.0,90.0
12485,88.0,0,24,4.0,90.0
12486,86.0,24,24,4.0,90.0
12487,74.0,24,24,4.0,90.0
12488,59.0,24,94,7.0,90.0
12489,54.0,0,94,7.0,90.0
12490,47.0,0,94,7.0,90.0
12491,86.0,24,24,4.0,90.0
12492,73.0,0,24,4.0,90.0
12493,85.0,24,24,4.0,90.0
12494,86.0,24,24,4.0,90.0
12495,45.0,0,94,7.0,90.0
12496,57.0,0,94,7.0,90.0
12497,54.0,24,94,7.0,90.0
12498,85.0,24,24,4.0,90.0
12499,86.0,0,22,4.0,90.0
12500,85.0,24,24,4.0,90.0
12501,73.0,24,24,4.0,90.0
12502,45.0,0,94,7.0,90.0
12503,54.0,0,94,7.0,90.0
12504,57.0,24,94,7.0,90.0
12505,85.0,24,24,4.0,90.0
12506,83.0,0,24,4.0,90.0
12507,77.0,0,24,4.0,90.0
12508,89.0,24,24,4.0,90.0
12509,90.0,24,24,4.0,90.0
12510,49.0,0,94,7.0,90.0
12511,56.0,0,94,7.0,90.0
12512,44.0,24,94,7.0,90.0
12513,89.0,24,24,4.0,90.0
12514,92.0,24,24,4.0,90.0
12515,90.0,24,24,4.0,90.0
12516,81.0,24,24,4.0,90.0
12517,78.0,0,24,4.0,90.0
12518,42.0,0,94,7.0,90.0
12519,54.0,0,94,7.0,90.0
12520,49.0,0,94,7.0,90.0
12521,90.0,24,24,4.0,90.0
12522,93.0,0,24,4.0,90.0
12523,92.0,24,24,4.0,90.0
12524,80.0,24,24,4.0,90.0
12525,49.0,0,94,7.0,90.0
12526,56.0,24,94,7.0,90.0
12527,41.0,0,94,7.0,90.0
12528,92.0,24,22,4.0,90.0
12529,92.0,24,24,4.0,90.0
12530,80.0,24,24,4.0,90.0
12531,56.0,0,94,7.0,90.0
12532,92.0,24,22,4.0,90.0
12533,49.0,0,94,7.0,90.0
12534,41.0,24,94,7.0,90.0
12535,92.0,24,24,4.0,90.0
12536,80.0,24,24,4.0,90.0
12537,61.0,0,94,7.0,90.0
12538,59.0,0,94,7.0,90.0
12539,92.0,24,22,4.0,90.0
12540,53.0,24,94,7.0,90.0
12541,56.0,0,94,7.0,90.0
12542,80.0,24,24,4.0,90.0
12543,88.0,24,24,4.0,90.0
12544,53.0,24,94,7.0,90.0
12545,62.0,0,94,7.0,90.0
12546,56.0,0,94,7.0,90.0
12547,59.0,0,94,7.0,90.0
12548,86.0,24,24,4.0,90.0
12549,85.0,24,24,4.0,90.0
12550,86.0,24,24,4.0,90.0
12551,80.0,24,24,4.0,90.0
12552,56.0,0,94,7.0,90.0
12553,62.0,0,94,7.0,90.0
12554,53.0,0,94,7.0,90.0
12555,86.0,24,22,4.0,90.0
12556,59.0,0,94,7.0,90.0
12557,86.0,24,24,4.0,90.0
12558,80.0,24,24,4.0,90.0
12559,62.0,24,94,7.0,90.0
12560,59.0,0,94,7.0,90.0
12561,56.0,0,94,7.0,90.0
12562,53.0,0,94,7.0,90.0
12563,86.0,24,24,4.0,90.0
12564,74.0,0,24,4.0,90.0
12565,85.0,24,24,4.0,90.0
12566,88.0,24,24,4.0,90.0
12567,62.0,0,94,7.0,90.0
12568,59.0,0,94,7.0,90.0
12569,53.0,0,94,7.0,90.0
12570,56.0,24,94,7.0,90.0
12571,86.0,24,24,4.0,90.0
12572,85.0,0,24,4.0,90.0
12573,86.0,24,24,4.0,90.0
12574,74.0,24,24,4.0,90.0
12575,53.0,24,94,7.0,90.0
12576,44.0,0,94,7.0,90.0
12577,41.0,0,94,7.0,90.0
12578,86.0,24,24,4.0,90.0
12579,74.0,24,24,4.0,90.0
12580,86.0,24,24,4.0,90.0
12581,88.0,24,24,4.0,90.0
12582,41.0,0,94,7.0,90.0
12583,53.0,0,94,7.0,90.0
12584,44.0,0,94,7.0,90.0
12585,86.0,0,0,4.0,90.0
12586,85.0,24,24,4.0,90.0
12587,73.0,24,24,4.0,90.0
12588,53.0,0,94,7.0,90.0
12589,41.0,0,94,7.0,90.0
12590,44.0,24,94,7.0,90.0
12591,85.0,24,24,4.0,90.0
12592,84.0,0,24,4.0,90.0
12593,85.0,24,24,4.0,90.0
12594,73.0,24,24,4.0,90.0
12595,54.0,0,94,7.0,90.0
12596,42.0,24,94,7.0,90.0
12597,45.0,0,94,7.0,90.0
12598,85.0,24,24,4.0,90.0
12599,82.0,24,24,4.0,90.0
12600,83.0,24,24,4.0,90.0
12601,71.0,24,24,4.0,90.0
12602,56.0,0,94,7.0,90.0
12603,47.0,0,94,7.0,90.0
12604,44.0,0,94,7.0,90.0
12605,83.0,24,24,4.0,90.0
12606,71.0,24,24,4.0,90.0
12607,83.0,24,24,4.0,90.0
12608,85.0,24,24,4.0,90.0
12609,56.0,0,94,7.0,90.0
12610,47.0,0,94,7.0,90.0
12611,44.0,0,94,7.0,90.0
12612,83.0,24,24,4.0,90.0
12613,82.0,24,24,4.0,90.0
12614,83.0,24,24,4.0,90.0
12615,71.0,24,24,4.0,90.0
12616,59.0,0,94,7.0,90.0
12617,62.0,0,94,7.0,90.0
12618,65.0,0,94,7.0,90.0
12619,56.0,0,94,7.0,90.0
12620,83.0,24,24,4.0,90.0
12621,71.0,0,24,4.0,90.0
12622,83.0,24,24,4.0,90.0
12623,85.0,24,24,4.0,90.0
12624,59.0,24,94,7.0,90.0
12625,62.0,0,94,7.0,90.0
12626,83.0,24,22,4.0,90.0
12627,65.0,0,94,7.0,90.0
12628,56.0,0,94,7.0,90.0
12629,85.0,24,24,4.0,90.0
12630,71.0,24,24,4.0,90.0
12631,65.0,0,94,7.0,90.0
12632,62.0,24,94,7.0,90.0
12633,59.0,0,94,7.0,90.0
12634,56.0,0,94,7.0,90.0
12635,83.0,24,22,4.0,90.0
12636,83.0,24,24,4.0,90.0
12637,69.0,24,24,4.0,90.0
12638,57.0,0,94,7.0,90.0
12639,81.0,24,22,4.0,90.0
12640,66.0,24,94,7.0,90.0
12641,61.0,0,94,7.0,90.0
12642,59.0,0,46,7.0,90.0
12643,62.0,24,46,7.0,90.0
12644,66.0,0,46,7.0,90.0
12645,81.0,24,24,4.0,90.0
12646,68.0,0,24,4.0,90.0
12647,66.0,0,46,7.0,90.0
12648,60.0,24,46,7.0,90.0
12649,63.0,0,46,7.0,90.0
12650,80.0,24,24,4.0,90.0
12651,68.0,24,24,4.0,90.0
12652,80.0,24,24,4.0,90.0
12653,79.0,0,24,4.0,90.0
12654,66.0,0,46,7.0,90.0
12655,68.0,0,46,7.0,90.0
12656,63.0,24,46,7.0,90.0
12657,60.0,0,46,7.0,90.0
12658,80.0,24,24,4.0,90.0
12659,81.0,24,24,4.0,90.0
12660,80.0,24,24,4.0,90.0
12661,68.0,24,24,4.0,90.0
12662,60.0,0,46,7.0,90.0
12663,66.0,0,46,7.0,90.0
12664,63.0,0,46,7.0,90.0
12665,80.0,24,24,4.0,90.0
12666,68.0,24,24,4.0,90.0
12667,80.0,24,24,4.0,90.0
12668,81.0,0,24,4.0,90.0
12669,63.0,0,46,7.0,90.0
12670,68.0,0,46,7.0,90.0
12671,66.0,0,46,7.0,90.0
12672,60.0,24,46,7.0,90.0
12673,80.0,24,24,4.0,90.0
12674,81.0,24,24,4.0,90.0
12675,80.0,24,24,4.0,90.0
12676,68.0,0,24,4.0,90.0
12677,63.0,0,46,7.0,90.0
12678,66.0,24,46,7.0,90.0
12679,60.0,0,46,7.0,90.0
12680,80.0,24,24,4.0,90.0
12681,69.0,24,24,4.0,90.0
12682,81.0,24,24,4.0,90.0
12683,83.0,24,24,4.0,90.0
12684,66.0,0,46,7.0,90.0
12685,63.0,0,46,7.0,90.0
12686,60.0,0,46,7.0,90.0
12687,69.0,0,46,7.0,90.0
12688,81.0,24,24,4.0,90.0
12689,80.0,24,24,4.0,90.0
12690,78.0,24,24,4.0,90.0
12691,66.0,0,24,4.0,90.0
12692,48.0,0,46,7.0,90.0
12693,51.0,0,46,7.0,90.0
12694,54.0,24,46,7.0,90.0
12695,57.0,0,46,7.0,90.0
12696,78.0,24,24,4.0,90.0
12697,77.0,24,24,4.0,90.0
12698,78.0,24,24,4.0,90.0
12699,66.0,0,24,4.0,90.0
12700,78.0,24,24,4.0,90.0
12701,49.0,0,70,7.0,90.0
12702,54.0,0,70,7.0,90.0
12703,57.0,24,70,7.0,90.0
12704,80.0,24,24,4.0,90.0
12705,78.0,24,24,4.0,90.0
12706,66.0,0,24,4.0,90.0
12707,78.0,24,24,4.0,90.0
12708,60.0,0,70,7.0,90.0
12709,57.0,0,70,7.0,90.0
12710,54.0,0,70,7.0,90.0
12711,49.0,24,70,7.0,90.0
12712,77.0,24,24,4.0,90.0
12713,78.0,24,24,4.0,90.0
12714,66.0,0,24,4.0,90.0
12715,78.0,24,22,4.0,90.0
12716,61.0,24,46,7.0,90.0
12717,57.0,0,46,7.0,90.0
12718,54.0,0,46,7.0,90.0
12719,49.0,0,46,7.0,90.0
12720,78.0,24,24,4.0,90.0
12721,65.0,24,24,4.0,90.0
12722,61.0,24,94,7.0,90.0
12723,56.0,0,94,7.0,90.0
12724,53.0,0,94,7.0,90.0
12725,49.0,0,94,7.0,90.0
12726,77.0,24,22,4.0,90.0
12727,81.0,24,24,4.0,90.0
12728,68.0,24,24,4.0,90.0
12729,56.0,0,94,7.0,90.0
12730,53.0,0,94,7.0,90.0
12731,80.0,24,22,4.0,90.0
12732,49.0,24,94,7.0,90.0
12733,85.0,24,24,4.0,90.0
12734,71.0,24,24,4.0,90.0
12735,49.0,0,94,7.0,90.0
12736,56.0,0,94,7.0,90.0
12737,83.0,24,22,4.0,90.0
12738,59.0,24,94,7.0,90.0
12739,85.0,24,24,4.0,90.0
12740,71.0,24,24,4.0,90.0
12741,85.0,24,24,4.0,90.0
12742,49.0,0,94,7.0,90.0
12743,56.0,0,94,7.0,90.0
12744,59.0,0,94,7.0,90.0
12745,83.0,24,24,4.0,90.0
12746,82.0,24,24,4.0,90.0
12747,83.0,24,24,4.0,90.0
12748,71.0,24,24,4.0,90.0
12749,56.0,0,94,7.0,90.0
12750,59.0,0,94,7.0,90.0
12751,49.0,0,94,7.0,90.0
12752,83.0,24,24,4.0,90.0
12753,83.0,0,24,4.0,90.0
12754,81.0,24,24,4.0,90.0
12755,69.0,24,24,4.0,90.0
12756,57.0,24,94,7.0,90.0
12757,54.0,0,94,7.0,90.0
12758,49.0,0,94,7.0,90.0
12759,81.0,24,24,4.0,90.0
12760,83.0,24,24,4.0,90.0
12761,69.0,24,24,4.0,90.0
12762,83.0,24,24,4.0,90.0
12763,49.0,0,94,7.0,90.0
12764,54.0,0,94,7.0,90.0
12765,57.0,0,94,7.0,90.0
12766,81.0,24,24,4.0,90.0
12767,81.0,24,24,4.0,90.0
12768,68.0,24,24,4.0,90.0
12769,81.0,24,24,4.0,90.0
12770,56.0,0,94,7.0,90.0
12771,53.0,0,94,7.0,90.0
12772,50.0,0,94,7.0,90.0
12773,47.0,0,94,7.0,90.0
12774,80.0,24,24,4.0,90.0
12775,80.0,24,24,4.0,90.0
12776,66.0,24,24,4.0,90.0
12777,80.0,24,24,4.0,90.0
12778,48.0,0,94,7.0,90.0
12779,45.0,0,94,7.0,90.0
12780,54.0,0,94,7.0,90.0
12781,51.0,0,94,7.0,90.0
12782,78.0,24,24,4.0,90.0
12783,77.0,0,24,4.0,90.0
12784,78.0,24,24,4.0,90.0
12785,66.0,24,24,4.0,90.0
12786,45.0,0,94,7.0,90.0
12787,51.0,0,94,7.0,90.0
12788,48.0,0,94,7.0,90.0
12789,54.0,24,94,7.0,90.0
12790,78.0,24,24,4.0,90.0
12791,80.0,0,24,4.0,90.0
12792,78.0,24,24,4.0,90.0
12793,66.0,24,24,4.0,90.0
12794,51.0,0,94,7.0,90.0
12795,48.0,0,94,7.0,90.0
12796,45.0,24,94,7.0,90.0
12797,54.0,0,94,7.0,90.0
12798,78.0,24,24,4.0,90.0
12799,65.0,24,24,4.0,90.0
12800,77.0,24,24,4.0,90.0
12801,78.0,24,24,4.0,90.0
12802,49.0,0,94,7.0,90.0
12803,44.0,0,94,7.0,90.0
12804,53.0,0,94,7.0,90.0
12805,77.0,24,24,4.0,90.0
12806,78.0,0,24,4.0,90.0
12807,65.0,24,24,4.0,90.0
12808,78.0,24,24,4.0,90.0
12809,53.0,24,94,7.0,90.0
12810,49.0,0,94,7.0,90.0
12811,44.0,0,94,7.0,90.0
12812,77.0,24,24,4.0,90.0
12813,68.0,0,24,4.0,90.0
12814,53.0,24,46,6.0,90.0
12815,80.0,24,24,4.0,90.0
12816,81.0,0,24,4.0,90.0
12817,49.0,0,94,7.0,126.0
12818,56.0,24,46,6.0,90.0
12819,53.0,0,46,6.0,90.0
12820,80.0,24,24,4.0,90.0
12821,83.0,0,24,4.0,90.0
12822,56.0,0,46,6.0,90.0
12823,59.0,24,46,6.0,90.0
12824,71.0,24,24,4.0,90.0
12825,74.0,24,24,4.0,90.0
12826,59.0,0,46,6.0,90.0
12827,62.0,0,46,6.0,90.0
12828,49.0,0,94,7.0,126.0
12829,86.0,24,24,4.0,90.0
12830,85.0,24,24,4.0,90.0
12831,86.0,24,24,4.0,90.0
12832,74.0,24,24,4.0,90.0
12833,49.0,0,94,7.0,90.0
12834,62.0,0,94,7.0,90.0
12835,59.0,0,94,7.0,90.0
12836,86.0,24,24,4.0,90.0
12837,88.0,0,24,4.0,90.0
12838,86.0,24,24,4.0,90.0
12839,74.0,24,24,4.0,90.0
12840,49.0,0,94,7.0,90.0
12841,62.0,24,94,7.0,90.0
12842,59.0,0,94,7.0,90.0
12843,86.0,24,24,4.0,90.0
12844,86.0,24,24,4.0,90.0
12845,74.0,24,24,4.0,90.0
12846,86.0,24,24,4.0,90.0
12847,61.0,0,94,7.0,90.0
12848,57.0,0,94,7.0,90.0
12849,85.0,24,22,4.0,90.0
12850,49.0,0,94,7.0,90.0
12851,86.0,24,24,4.0,90.0
12852,73.0,24,24,4.0,90.0
12853,85.0,24,22,4.0,90.0
12854,61.0,0,94,7.0,90.0
12855,57.0,0,94,7.0,90.0
12856,49.0,24,94,7.0,90.0
12857,85.0,24,24,4.0,90.0
12858,71.0,24,24,4.0,90.0
12859,59.0,24,94,7.0,90.0
12860,56.0,0,94,7.0,90.0
12861,49.0,0,94,7.0,90.0
12862,83.0,24,22,4.0,90.0
12863,83.0,24,24,4.0,90.0
12864,69.0,24,24,4.0,90.0
12865,54.0,0,94,7.0,90.0
12866,49.0,24,94,7.0,90.0
12867,57.0,0,94,7.0,90.0
12868,81.0,24,22,4.0,90.0
12869,83.0,0,24,4.0,90.0
12870,69.0,24,24,4.0,90.0
12871,83.0,24,24,4.0,90.0
12872,49.0,24,94,7.0,90.0
12873,54.0,0,94,7.0,90.0
12874,57.0,0,94,7.0,90.0
12875,81.0,24,24,4.0,90.0
12876,80.0,0,24,4.0,90.0
12877,81.0,24,24,4.0,90.0
12878,69.0,24,24,4.0,90.0
12879,49.0,0,94,7.0,90.0
12880,54.0,24,94,7.0,90.0
12881,57.0,0,94,7.0,90.0
12882,60.0,0,94,7.0,90.0
12883,81.0,24,24,4.0,90.0
12884,81.0,0,24,4.0,90.0
12885,69.0,24,24,4.0,90.0
12886,81.0,24,24,4.0,90.0
12887,61.0,0,94,7.0,90.0
12888,80.0,24,22,4.0,90.0
12889,49.0,24,94,7.0,90.0
12890,56.0,0,94,7.0,90.0
12891,53.0,0,94,7.0,90.0
12892,80.0,24,24,4.0,90.0
12893,68.0,24,24,4.0,90.0
12894,61.0,0,94,7.0,90.0
12895,56.0,0,94,7.0,90.0
12896,49.0,24,94,7.0,90.0
12897,80.0,24,22,4.0,90.0
12898,53.0,0,94,7.0,90.0
12899,92.0,24,24,4.0,90.0
12900,80.0,24,24,4.0,90.0
12901,49.0,24,94,7.0,90.0
12902,56.0,0,94,7.0,90.0
12903,61.0,0,94,7.0,90.0
12904,53.0,0,94,7.0,90.0
12905,92.0,24,22,4.0,90.0
12906,91.0,24,24,4.0,90.0
12907,79.0,24,24,4.0,90.0
12908,49.0,0,94,7.0,90.0
12909,61.0,24,94,7.0,90.0
12910,58.0,0,94,7.0,90.0
12911,55.0,0,94,7.0,90.0
12912,52.0,0,94,7.0,90.0
12913,91.0,24,22,4.0,90.0
12914,91.0,24,24,4.0,90.0
12915,79.0,24,24,4.0,90.0
12916,55.0,0,94,7.0,90.0
12917,59.0,0,94,7.0,90.0
12918,50.0,24,94,7.0,90.0
12919,91.0,24,22,4.0,90.0
12920,62.0,0,94,7.0,90.0
12921,91.0,24,24,4.0,90.0
12922,83.0,24,24,4.0,90.0
12923,50.0,0,94,7.0,90.0
12924,55.0,24,94,7.0,90.0
12925,59.0,0,94,7.0,90.0
12926,95.0,24,22,4.0,90.0
12927,62.0,0,94,7.0,90.0
12928,95.0,24,24,4.0,90.0
12929,81.0,24,24,4.0,90.0
12930,62.0,24,94,7.0,90.0
12931,55.0,0,94,7.0,90.0
12932,59.0,0,94,7.0,90.0
12933,93.0,24,22,4.0,90.0
12934,50.0,0,94,7.0,90.0
12935,93.0,24,24,4.0,90.0
12936,79.0,24,24,4.0,90.0
12937,91.0,24,22,4.0,90.0
12938,62.0,0,94,7.0,90.0
12939,50.0,24,94,7.0,90.0
12940,55.0,0,94,7.0,90.0
12941,59.0,0,94,7.0,90.0
12942,91.0,24,24,4.0,90.0
12943,79.0,24,24,4.0,90.0
12944,55.0,0,94,7.0,90.0
12945,59.0,0,94,7.0,90.0
12946,91.0,24,22,4.0,90.0
12947,62.0,24,94,7.0,90.0
12948,91.0,24,24,4.0,90.0
12949,79.0,24,24,4.0,90.0
12950,55.0,24,94,7.0,90.0
12951,78.0,24,22,4.0,90.0
12952,90.0,0,22,4.0,90.0
12953,62.0,0,94,7.0,90.0
12954,59.0,0,94,7.0,90.0
12955,90.0,24,24,4.0,90.0
12956,76.0,24,24,4.0,90.0
12957,55.0,0,94,7.0,90.0
12958,88.0,24,22,4.0,90.0
12959,64.0,0,94,7.0,90.0
12960,60.0,24,94,7.0,90.0
12961,88.0,24,24,4.0,90.0
12962,76.0,24,24,4.0,90.0
12963,88.0,24,22,4.0,90.0
12964,55.0,0,94,7.0,90.0
12965,60.0,24,94,7.0,90.0
12966,64.0,0,94,7.0,90.0
12967,88.0,24,24,4.0,90.0
12968,76.0,24,24,4.0,90.0
12969,90.0,0,22,4.0,90.0
12970,55.0,24,94,7.0,90.0
12971,78.0,24,22,4.0,90.0
12972,60.0,0,94,7.0,90.0
12973,64.0,0,94,7.0,90.0
12974,90.0,24,24,4.0,90.0
12975,79.0,24,24,4.0,90.0
12976,91.0,24,22,4.0,90.0
12977,55.0,0,94,7.0,90.0
12978,62.0,24,94,7.0,90.0
12979,59.0,0,94,7.0,90.0
12980,91.0,24,24,4.0,90.0
12981,79.0,24,24,4.0,90.0
12982,62.0,24,94,7.0,90.0
12983,55.0,0,94,7.0,90.0
12984,59.0,0,94,7.0,90.0
12985,91.0,24,22,4.0,90.0
12986,50.0,0,94,7.0,90.0
12987,91.0,24,24,4.0,90.0
12988,79.0,24,24,4.0,90.0
12989,90.0,24,22,4.0,90.0
12990,78.0,0,22,4.0,90.0
12991,54.0,0,94,7.0,90.0
12992,62.0,0,94,7.0,90.0
12993,57.0,24,94,7.0,90.0
12994,50.0,0,94,7.0,90.0
12995,90.0,0,24,4.0,90.0
12996,78.0,24,22,4.0,90.0
12997,78.0,24,24,4.0,90.0
12998,57.0,0,94,7.0,90.0
12999,62.0,24,94,7.0,90.0
13000,50.0,0,94,7.0,90.0
13001,90.0,24,22,4.0,90.0
13002,54.0,0,94,7.0,90.0
13003,93.0,0,24,4.0,90.0
13004,81.0,24,22,4.0,90.0
13005,81.0,24,24,4.0,90.0
13006,54.0,0,94,7.0,90.0
13007,49.0,24,94,7.0,90.0
13008,61.0,0,94,7.0,90.0
13009,93.0,24,22,4.0,90.0
13010,57.0,0,94,7.0,90.0
13011,97.0,0,24,4.0,90.0
13012,85.0,24,22,4.0,90.0
13013,85.0,24,24,4.0,90.0
13014,54.0,0,94,7.0,90.0
13015,97.0,24,22,4.0,90.0
13016,61.0,0,94,7.0,90.0
13017,49.0,24,94,7.0,90.0
13018,57.0,0,94,7.0,90.0
13019,97.0,24,24,4.0,90.0
13020,85.0,24,24,4.0,90.0
13021,56.0,0,94,7.0,90.0
13022,53.0,24,94,7.0,90.0
13023,61.0,0,94,7.0,90.0
13024,97.0,24,22,4.0,90.0
13025,49.0,0,94,7.0,90.0
13026,85.0,24,24,4.0,90.0
13027,73.0,24,24,4.0,90.0
13028,85.0,24,22,4.0,90.0
13029,61.0,0,94,7.0,90.0
13030,53.0,0,94,7.0,90.0
13031,49.0,24,94,7.0,90.0
13032,56.0,0,94,7.0,90.0
13033,97.0,24,24,4.0,90.0
13034,85.0,24,24,4.0,90.0
13035,97.0,24,22,4.0,90.0
13036,56.0,0,94,7.0,90.0
13037,49.0,24,94,7.0,90.0
13038,53.0,0,94,7.0,90.0
13039,61.0,0,94,7.0,90.0
13040,85.0,24,24,4.0,90.0
13041,73.0,24,24,4.0,90.0
13042,53.0,0,94,7.0,90.0
13043,56.0,0,94,7.0,90.0
13044,61.0,24,94,7.0,90.0
13045,85.0,24,22,4.0,90.0
13046,49.0,0,94,7.0,90.0
13047,97.0,24,24,4.0,90.0
13048,85.0,24,24,4.0,90.0
13049,61.0,24,94,7.0,90.0
13050,56.0,0,94,7.0,90.0
13051,53.0,0,94,7.0,90.0
13052,49.0,0,94,7.0,90.0
13053,97.0,24,24,4.0,90.0
13054,93.0,24,24,4.0,90.0
13055,81.0,24,22,4.0,90.0
13056,81.0,24,24,4.0,90.0
13057,61.0,0,94,7.0,90.0
13058,93.0,24,22,4.0,90.0
13059,54.0,0,94,7.0,90.0
13060,57.0,0,94,7.0,90.0
13061,93.0,0,24,4.0,90.0
13062,81.0,24,22,4.0,90.0
13063,81.0,24,24,4.0,90.0
13064,57.0,24,94,7.0,90.0
13065,61.0,0,94,7.0,90.0
13066,54.0,0,94,7.0,90.0
13067,93.0,24,22,4.0,90.0
13068,90.0,24,24,4.0,90.0
13069,61.0,0,46,7.0,90.0
13070,78.0,24,22,4.0,90.0
13071,57.0,0,46,7.0,90.0
13072,78.0,0,24,4.0,90.0
13073,66.0,24,22,4.0,90.0
13074,45.0,0,46,7.0,90.0
13075,49.0,0,46,7.0,90.0
13076,57.0,24,46,7.0,90.0
13077,71.0,0,24,4.0,90.0
13078,44.0,0,46,7.0,90.0
13079,49.0,0,46,7.0,90.0
13080,56.0,24,46,7.0,90.0
13081,80.0,0,46,4.0,90.0
13082,77.0,0,46,4.0,90.0
13083,68.0,24,22,4.0,90.0
13084,73.0,0,24,4.0,90.0
13085,42.0,24,46,7.0,90.0
13086,49.0,0,46,7.0,90.0
13087,54.0,0,46,7.0,90.0
13088,78.0,0,46,4.0,90.0
13089,81.0,0,46,4.0,90.0
13090,69.0,24,22,4.0,90.0
13091,37.0,24,46,7.0,90.0
13092,49.0,0,46,7.0,90.0
13093,83.0,0,94,4.0,90.0
13094,71.0,0,94,4.0,90.0
13095,80.0,0,94,4.0,90.0
13096,37.0,48,96,7.0,90.0
13097,25.0,0,96,7.0,90.0
13098,62.0,48,96,4.0,90.0
13099,68.0,0,96,4.0,90.0
13100,71.0,0,96,4.0,90.0
13101,41.0,48,96,7.0,90.0
13102,29.0,0,96,7.0,90.0
13103,69.0,0,96,4.0,90.0
13104,66.0,48,96,4.0,90.0
13105,61.0,0,96,4.0,90.0
13106,42.0,48,96,7.0,90.0
13107,30.0,0,96,7.0,90.0
13108,69.0,0,96,4.0,90.0
13109,62.0,0,96,4.0,90.0
13110,65.0,0,96,4.0,90.0
13111,59.0,48,0,4.0,90.0
13112,32.0,0,96,7.0,90.0
13113,44.0,48,96,7.0,90.0
13114,45.0,0,48,7.0,90.0
13115,68.0,0,96,4.0,90.0
13116,65.0,0,96,4.0,90.0
13117,33.0,48,48,7.0,90.0
13118,62.0,0,96,4.0,90.0
13119,47.0,0,48,7.0,90.0
13120,35.0,48,48,7.0,90.0
13121,48.0,48,48,7.0,90.0
13122,57.0,0,96,4.0,90.0
13123,63.0,0,96,4.0,90.0
13124,66.0,0,96,4.0,90.0
13125,36.0,0,48,7.0,90.0
13126,49.0,0,46,7.0,90.0
13127,37.0,0,46,7.0,90.0
13128,48.0,0,48,7.0,90.0
13129,36.0,48,48,7.0,90.0
13130,63.0,0,142,5.0,90.0
13131,37.0,48,48,7.0,90.0
13132,49.0,0,48,7.0,90.0
13133,60.0,48,46,5.0,90.0
13134,48.0,0,48,7.0,90.0
13135,36.0,0,48,7.0,90.0
13136,61.0,48,46,5.0,90.0
13137,49.0,0,48,7.0,90.0
13138,37.0,0,48,7.0,90.0
13139,60.0,0,46,5.0,90.0
13140,36.0,0,48,7.0,90.0
13141,48.0,48,48,7.0,90.0
13142,57.0,48,288,4.0,90.0
13143,66.0,0,288,4.0,90.0
13144,49.0,0,48,7.0,90.0
13145,37.0,48,48,7.0,90.0
13146,53.0,48,48,7.0,90.0
13147,65.0,0,142,4.0,90.0
13148,56.0,0,142,4.0,90.0
13149,61.0,0,142,4.0,90.0
13150,56.0,48,48,7.0,90.0
13151,53.0,0,48,7.0,90.0
13152,68.0,48,48,4.0,90.0
13153,71.0,48,48,4.0,90.0
13154,56.0,0,48,7.0,90.0
13155,59.0,48,46,7.0,90.0
13156,74.0,0,0,4.0,90.0
13157,59.0,0,46,7.0,90.0
13158,56.0,0,46,7.0,90.0
13159,53.0,48,46,7.0,90.0
13160,49.0,0,46,7.0,90.0
13161,62.0,0,96,4.0,90.0
13162,65.0,0,96,4.0,90.0
13163,71.0,0,96,4.0,90.0
13164,68.0,48,0,4.0,90.0
13165,37.0,48,96,7.0,90.0
13166,49.0,0,96,7.0,90.0
13167,71.0,0,96,4.0,90.0
13168,74.0,0,96,4.0,90.0
13169,62.0,0,96,4.0,90.0
13170,53.0,48,96,7.0,90.0
13171,41.0,0,96,7.0,90.0
13172,69.0,0,96,4.0,90.0
13173,61.0,48,96,4.0,90.0
13174,73.0,48,0,4.0,90.0
13175,54.0,48,94,7.0,90.0
13176,42.0,0,94,7.0,90.0
13177,62.0,0,96,4.0,90.0
13178,65.0,0,96,4.0,90.0
13179,68.0,0,96,4.0,90.0
13180,44.0,48,96,7.0,90.0
13181,56.0,0,96,7.0,90.0
13182,71.0,0,96,4.0,90.0
13183,68.0,0,96,4.0,90.0
13184,57.0,0,48,7.0,90.0
13185,45.0,48,48,7.0,90.0
13186,65.0,0,96,4.0,90.0
13187,62.0,48,96,4.0,90.0
13188,59.0,0,48,7.0,90.0
13189,47.0,0,48,7.0,90.0
13190,63.0,0,96,4.0,90.0
13191,69.0,48,0,4.0,90.0
13192,66.0,0,96,4.0,90.0
13193,48.0,0,96,7.0,90.0
13194,60.0,48,96,7.0,90.0
13195,49.0,48,46,7.0,90.0
13196,61.0,0,46,7.0,90.0
13197,60.0,48,46,5.0,90.0
13198,36.0,0,48,7.0,90.0
13199,48.0,0,48,7.0,90.0
13200,61.0,0,46,5.0,90.0
13201,49.0,48,48,7.0,90.0
13202,37.0,0,48,7.0,90.0
13203,66.0,0,192,4.0,90.0
13204,60.0,48,46,5.0,90.0
13205,48.0,0,48,7.0,90.0
13206,36.0,0,48,7.0,90.0
13207,68.0,0,94,4.0,90.0
13208,65.0,0,94,4.0,90.0
13209,61.0,0,46,5.0,90.0
13210,37.0,48,46,7.0,90.0
13211,49.0,0,46,7.0,90.0
13212,36.0,0,48,7.0,90.0
13213,48.0,0,48,7.0,90.0
13214,49.0,48,46,7.0,90.0
13215,37.0,0,46,7.0,90.0
13216,65.0,0,96,4.0,90.0
13217,61.0,0,96,4.0,90.0
13218,56.0,0,96,4.0,90.0
13219,37.0,48,48,7.0,90.0
13220,55.0,0,96,4.0,90.0
13221,58.0,0,96,4.0,90.0
13222,64.0,0,96,4.0,90.0
13223,46.0,48,48,7.0,90.0
13224,38.0,0,48,7.0,90.0
13225,62.0,48,94,4.0,90.0
13226,59.0,0,94,4.0,90.0
13227,55.0,0,94,4.0,90.0
13228,47.0,48,46,7.0,90.0
13229,67.0,48,24,4.0,90.0
13230,31.0,0,48,7.0,90.0
13231,43.0,24,48,7.0,90.0
13232,50.0,0,48,7.0,90.0
13233,83.0,24,166,4.0,90.0
13234,71.0,48,94,5.0,90.0
13235,43.0,48,48,7.0,90.0
13236,50.0,0,48,7.0,90.0
13237,69.0,0,94,5.0,90.0
13238,43.0,48,48,7.0,90.0
13239,81.0,48,96,4.0,90.0
13240,35.0,48,48,7.0,90.0
13241,69.0,0,96,4.0,90.0
13242,43.0,48,48,7.0,90.0
13243,81.0,0,96,4.0,90.0
13244,55.0,48,48,7.0,90.0
13245,79.0,0,0,4.0,90.0
13246,67.0,0,0,4.0,90.0
13247,43.0,48,48,7.0,90.0
13248,55.0,48,48,7.0,90.0
13249,71.0,0,48,4.0,90.0
13250,78.0,0,48,4.0,90.0
13251,43.0,48,48,7.0,90.0
13252,74.0,0,0,4.0,90.0
13253,36.0,0,48,7.0,90.0
13254,43.0,48,48,7.0,90.0
13255,78.0,0,96,4.0,90.0
13256,67.0,0,0,4.0,90.0
13257,55.0,48,48,7.0,90.0
13258,67.0,48,0,4.0,90.0
13259,72.0,0,96,4.0,90.0
13260,76.0,0,0,4.0,90.0
13261,43.0,48,48,7.0,90.0
13262,55.0,0,48,7.0,90.0
13263,72.0,0,0,4.0,90.0
13264,75.0,48,48,4.0,90.0
13265,78.0,0,48,4.0,90.0
13266,69.0,48,0,4.0,90.0
13267,43.0,0,48,7.0,90.0
13268,31.0,0,48,7.0,90.0
13269,78.0,0,48,4.0,90.0
13270,75.0,0,48,4.0,90.0
13271,72.0,0,48,4.0,90.0
13272,74.0,0,48,4.0,90.0
13273,71.0,0,48,4.0,90.0
13274,43.0,48,48,7.0,90.0
13275,79.0,0,48,4.0,90.0
13276,55.0,0,48,7.0,90.0
13277,71.0,48,94,4.0,90.0
13278,79.0,0,94,4.0,90.0
13279,43.0,48,46,7.0,90.0
13280,74.0,0,94,4.0,90.0
13281,55.0,48,24,7.0,90.0
13282,67.0,0,48,4.0,90.0
13283,43.0,24,24,7.0,90.0
13284,66.0,0,48,4.0,90.0
13285,54.0,24,48,4.0,90.0
13286,42.0,0,48,7.0,90.0
13287,38.0,0,0,7.0,90.0
13288,42.0,0,48,7.0,90.0
13289,54.0,48,96,4.0,90.0
13290,66.0,0,96,4.0,90.0
13291,45.0,0,0,7.0,90.0
13292,37.0,0,48,7.0,90.0
13293,42.0,0,48,7.0,90.0
13294,57.0,48,96,4.0,90.0
13295,49.0,48,48,7.0,90.0
13296,61.0,0,96,4.0,90.0
13297,69.0,0,96,4.0,90.0
13298,66.0,0,0,4.0,90.0
13299,37.0,48,48,7.0,90.0
13300,45.0,0,48,7.0,90.0
13301,42.0,0,48,7.0,90.0
13302,73.0,0,96,4.0,90.0
13303,69.0,0,96,4.0,90.0
13304,61.0,0,96,4.0,90.0
13305,49.0,48,48,7.0,90.0
13306,44.0,48,48,7.0,90.0
13307,41.0,0,48,7.0,90.0
13308,37.0,0,48,7.0,90.0
13309,49.0,48,48,7.0,90.0
13310,37.0,48,48,7.0,90.0
13311,44.0,0,48,7.0,90.0
13312,41.0,0,48,7.0,90.0
13313,61.0,0,192,4.0,90.0
13314,65.0,0,192,4.0,90.0
13315,68.0,0,192,4.0,90.0
13316,73.0,0,192,4.0,90.0
13317,49.0,48,48,7.0,90.0
13318,45.0,0,46,7.0,90.0
13319,42.0,0,46,7.0,90.0
13320,73.0,0,94,4.0,90.0
13321,69.0,0,94,4.0,90.0
13322,66.0,0,94,4.0,90.0
13323,61.0,48,94,4.0,90.0
13324,49.0,48,48,7.0,90.0
13325,42.0,0,48,7.0,90.0
13326,45.0,0,48,7.0,90.0
13327,73.0,48,96,4.0,90.0
13328,61.0,0,96,4.0,90.0
13329,49.0,48,48,7.0,90.0
13330,69.0,0,96,4.0,90.0
13331,35.0,0,48,7.0,90.0
13332,47.0,0,48,7.0,90.0
13333,50.0,48,48,7.0,90.0
13334,74.0,48,96,4.0,90.0
13335,62.0,0,96,4.0,90.0
13336,67.0,48,0,4.0,90.0
13337,35.0,0,48,7.0,90.0
13338,43.0,0,48,7.0,90.0
13339,47.0,48,48,7.0,90.0
13340,55.0,0,96,4.0,90.0
13341,35.0,0,48,7.0,90.0
13342,47.0,0,48,7.0,90.0
13343,47.0,48,48,7.0,90.0
13344,71.0,0,96,4.0,90.0
13345,59.0,48,96,4.0,90.0
13346,49.0,0,48,7.0,90.0
13347,37.0,0,48,7.0,90.0
13348,61.0,48,96,4.0,90.0
13349,49.0,48,48,7.0,90.0
13350,37.0,48,48,7.0,90.0
13351,41.0,48,48,7.0,90.0
13352,53.0,0,96,4.0,90.0
13353,65.0,0,96,4.0,90.0
13354,30.0,48,48,7.0,90.0
13355,54.0,0,94,4.0,90.0
13356,37.0,48,46,7.0,90.0
13357,66.0,0,94,4.0,90.0
13358,42.0,0,46,7.0,90.0
13359,29.0,0,48,7.0,90.0
13360,37.0,48,48,7.0,90.0
13361,44.0,0,48,7.0,90.0
13362,29.0,48,48,7.0,90.0
13363,73.0,48,144,4.0,90.0
13364,61.0,0,144,4.0,90.0
13365,68.0,0,48,4.0,90.0
13366,56.0,0,48,4.0,90.0
13367,37.0,48,48,7.0,90.0
13368,44.0,0,48,7.0,90.0
13369,30.0,0,48,7.0,90.0
13370,45.0,48,46,7.0,90.0
13371,37.0,0,46,7.0,90.0
13372,57.0,0,94,4.0,90.0
13373,69.0,48,94,4.0,90.0
13374,37.0,48,48,7.0,90.0
13375,42.0,48,48,7.0,90.0
13376,49.0,0,48,7.0,90.0
13377,37.0,48,48,7.0,90.0
13378,81.0,0,144,4.0,90.0
13379,69.0,0,144,4.0,90.0
13380,65.0,0,46,4.0,90.0
13381,49.0,48,46,7.0,90.0
13382,77.0,0,46,4.0,90.0
13383,38.0,144,46,7.0,90.0
13384,50.0,0,46,7.0,90.0
13385,69.0,0,46,7.0,90.0
13386,66.0,0,46,7.0,90.0
13387,57.0,96,46,7.0,90.0
13388,62.0,0,46,7.0,90.0
13389,62.0,0,46,7.0,90.0
13390,69.0,0,46,7.0,90.0
13391,57.0,96,46,7.0,90.0
13392,66.0,0,46,7.0,90.0
13393,38.0,96,46,7.0,90.0
13394,50.0,0,46,7.0,90.0
13395,69.0,0,46,7.0,90.0
13396,66.0,0,46,7.0,90.0
13397,62.0,96,46,7.0,90.0
13398,57.0,0,46,7.0,90.0
13399,66.0,0,46,7.0,90.0
13400,69.0,0,46,7.0,90.0
13401,78.0,0,142,4.0,90.0
13402,57.0,96,46,7.0,90.0
13403,62.0,0,46,7.0,90.0
13404,78.0,48,94,4.0,90.0
13405,38.0,48,46,7.0,90.0
13406,50.0,0,46,7.0,90.0
13407,57.0,0,46,7.0,90.0
13408,62.0,0,46,7.0,90.0
13409,66.0,0,46,7.0,90.0
13410,69.0,0,46,7.0,90.0
13411,78.0,48,94,4.0,90.0
13412,81.0,48,96,5.0,90.0
13413,57.0,0,46,7.0,90.0
13414,66.0,0,46,7.0,90.0
13415,69.0,0,46,7.0,90.0
13416,62.0,0,46,7.0,90.0
13417,78.0,48,96,4.0,90.0
13418,86.0,48,96,5.0,90.0
13419,38.0,0,46,7.0,90.0
13420,50.0,0,46,7.0,90.0
13421,78.0,48,96,4.0,90.0
13422,88.0,48,96,5.0,90.0
13423,69.0,0,46,7.0,90.0
13424,66.0,0,46,7.0,90.0
13425,62.0,0,46,7.0,90.0
13426,57.0,0,46,7.0,90.0
13427,78.0,48,0,4.0,90.0
13428,90.0,48,0,5.0,90.0
13429,91.0,42,19,5.0,90.0
13430,90.0,21,21,5.0,90.0
13431,57.0,0,94,7.0,90.0
13432,69.0,0,94,7.0,90.0
13433,64.0,0,94,7.0,90.0
13434,61.0,0,94,7.0,90.0
13435,91.0,21,18,5.0,90.0
13436,90.0,18,18,5.0,90.0
13437,91.0,18,18,5.0,90.0
13438,90.0,18,18,5.0,90.0
13439,88.0,18,16,5.0,90.0
13440,90.0,18,18,5.0,90.0
13441,37.0,18,46,7.0,90.0
13442,49.0,0,46,7.0,90.0
13443,81.0,48,46,4.0,90.0
13444,93.0,0,96,5.0,90.0
13445,57.0,0,46,7.0,90.0
13446,61.0,0,46,7.0,90.0
13447,64.0,0,46,7.0,90.0
13448,69.0,48,46,7.0,90.0
13449,91.0,0,96,5.0,90.0
13450,64.0,0,46,7.0,90.0
13451,57.0,0,46,7.0,90.0
13452,69.0,0,46,7.0,90.0
13453,61.0,0,46,7.0,90.0
13454,81.0,0,190,4.0,90.0
13455,37.0,0,46,7.0,90.0
13456,49.0,0,46,7.0,90.0
13457,81.0,96,46,4.0,90.0
13458,91.0,96,144,5.0,90.0
13459,88.0,48,46,5.0,90.0
13460,57.0,0,46,7.0,90.0
13461,61.0,0,46,7.0,90.0
13462,64.0,0,46,7.0,90.0
13463,69.0,0,46,7.0,90.0
13464,85.0,48,46,5.0,90.0
13465,86.0,48,46,5.0,90.0
13466,69.0,0,46,7.0,90.0
13467,64.0,48,46,7.0,90.0
13468,61.0,0,46,7.0,90.0
13469,57.0,0,46,7.0,90.0
13470,87.0,0,48,4.0,90.0
13471,88.0,48,80,4.0,90.0
13472,49.0,48,46,7.0,90.0
13473,37.0,0,46,7.0,90.0
13474,79.0,32,32,4.0,90.0
13475,78.0,32,32,4.0,90.0
13476,79.0,0,32,4.0,90.0
13477,64.0,0,46,7.0,90.0
13478,69.0,0,46,7.0,90.0
13479,61.0,0,46,7.0,90.0
13480,57.0,32,46,7.0,90.0
13481,81.0,32,32,4.0,90.0
13482,82.0,32,32,4.0,90.0
13483,85.0,32,32,4.0,90.0
13484,69.0,0,46,7.0,90.0
13485,57.0,0,46,7.0,90.0
13486,61.0,0,46,7.0,90.0
13487,64.0,0,46,7.0,90.0
13488,83.0,32,32,4.0,90.0
13489,81.0,32,32,4.0,90.0
13490,79.0,0,32,4.0,90.0
13491,49.0,32,46,7.0,90.0
13492,37.0,0,46,7.0,90.0
13493,78.0,32,32,4.0,90.0
13494,79.0,32,32,4.0,90.0
13495,80.0,0,32,4.0,90.0
13496,64.0,0,46,7.0,90.0
13497,69.0,0,46,7.0,90.0
13498,61.0,32,46,7.0,90.0
13499,57.0,0,46,7.0,90.0
13500,81.0,32,32,4.0,90.0
13501,76.0,32,32,4.0,90.0
13502,69.0,0,46,7.0,90.0
13503,79.0,0,46,4.0,90.0
13504,57.0,32,46,7.0,90.0
13505,62.0,0,46,7.0,90.0
13506,66.0,0,46,7.0,90.0
13507,38.0,0,46,7.0,90.0
13508,50.0,48,46,7.0,90.0
13509,78.0,48,94,4.0,90.0
13510,66.0,0,46,7.0,90.0
13511,62.0,0,46,7.0,90.0
13512,57.0,0,46,7.0,90.0
13513,54.0,48,46,7.0,90.0
13514,81.0,48,94,4.0,90.0
13515,54.0,0,46,7.0,90.0
13516,86.0,48,94,4.0,90.0
13517,59.0,0,46,7.0,90.0
13518,66.0,0,46,7.0,90.0
13519,62.0,48,46,7.0,90.0
13520,47.0,0,46,7.0,90.0
13521,35.0,48,46,7.0,90.0
13522,86.0,48,94,4.0,90.0
13523,66.0,48,46,7.0,90.0
13524,62.0,0,46,7.0,90.0
13525,59.0,0,46,7.0,90.0
13526,54.0,0,46,7.0,90.0
13527,88.0,48,94,4.0,90.0
13528,90.0,0,0,4.0,90.0
13529,90.0,24,0,4.0,90.0
13530,91.0,18,18,4.0,90.0
13531,90.0,18,18,4.0,90.0
13532,54.0,0,94,7.0,90.0
13533,58.0,0,94,7.0,90.0
13534,64.0,0,94,7.0,90.0
13535,66.0,48,94,7.0,90.0
13536,61.0,0,94,7.0,90.0
13537,91.0,18,18,4.0,90.0
13538,90.0,18,18,4.0,90.0
13539,91.0,18,18,4.0,90.0
13540,90.0,18,18,4.0,90.0
13541,91.0,18,18,4.0,90.0
13542,90.0,18,18,4.0,90.0
13543,91.0,18,18,4.0,90.0
13544,90.0,12,18,4.0,90.0
13545,91.0,18,18,4.0,90.0
13546,90.0,18,18,4.0,90.0
13547,91.0,18,18,4.0,90.0
13548,46.0,0,94,7.0,90.0
13549,34.0,6,94,7.0,90.0
13550,90.0,18,18,4.0,90.0
13551,91.0,18,18,4.0,90.0
13552,90.0,18,18,4.0,90.0
13553,91.0,18,18,4.0,90.0
13554,89.0,18,18,4.0,90.0
13555,90.0,18,18,4.0,90.0
13556,64.0,0,46,7.0,90.0
13557,55.0,0,46,7.0,90.0
13558,58.0,0,46,7.0,90.0
13559,61.0,0,46,7.0,90.0
13560,67.0,0,46,7.0,90.0
13561,93.0,18,48,4.0,90.0
13562,91.0,48,48,4.0,90.0
13563,67.0,0,46,7.0,90.0
13564,64.0,0,46,7.0,90.0
13565,55.0,0,46,7.0,90.0
13566,58.0,48,46,7.0,90.0
13567,61.0,0,46,7.0,90.0
13568,91.0,0,128,4.0,90.0
13569,46.0,96,46,7.0,90.0
13570,34.0,0,46,7.0,90.0
13571,87.0,32,32,4.0,90.0
13572,88.0,32,32,4.0,90.0
13573,91.0,0,32,4.0,90.0
13574,67.0,0,46,7.0,90.0
13575,61.0,0,46,7.0,90.0
13576,58.0,32,46,7.0,90.0
13577,64.0,0,46,7.0,90.0
13578,55.0,0,46,7.0,90.0
13579,90.0,32,32,4.0,90.0
13580,55.0,0,46,7.0,90.0
13581,58.0,0,46,7.0,90.0
13582,61.0,0,46,7.0,90.0
13583,64.0,0,46,7.0,90.0
13584,67.0,32,46,7.0,90.0
13585,88.0,32,160,4.0,90.0
13586,34.0,96,46,7.0,90.0
13587,46.0,0,46,7.0,90.0
13588,84.0,32,32,4.0,90.0
13589,85.0,32,32,4.0,90.0
13590,88.0,0,32,4.0,90.0
13591,55.0,0,46,7.0,90.0
13592,58.0,0,46,7.0,90.0
13593,61.0,0,46,7.0,90.0
13594,64.0,32,46,7.0,90.0
13595,67.0,0,46,7.0,90.0
13596,86.0,32,32,4.0,90.0
13597,85.0,32,32,4.0,90.0
13598,83.0,32,24,4.0,90.0
13599,54.0,0,46,7.0,90.0
13600,58.0,0,46,7.0,90.0
13601,66.0,0,46,7.0,90.0
13602,64.0,0,46,7.0,90.0
13603,61.0,0,46,7.0,90.0
13604,82.0,24,24,4.0,90.0
13605,86.0,24,24,4.0,90.0
13606,85.0,24,24,4.0,90.0
13607,84.0,0,24,4.0,90.0
13608,34.0,0,46,7.0,90.0
13609,46.0,24,46,7.0,90.0
13610,85.0,24,24,4.0,90.0
13611,76.0,24,24,4.0,90.0
13612,79.0,24,24,4.0,90.0
13613,77.0,0,24,4.0,90.0
13614,64.0,0,46,7.0,90.0
13615,54.0,0,46,7.0,90.0
13616,61.0,0,46,7.0,90.0
13617,66.0,24,46,7.0,90.0
13618,58.0,0,46,7.0,90.0
13619,78.0,24,24,4.0,90.0
13620,73.0,24,24,4.0,90.0
13621,76.0,24,24,4.0,90.0
13622,59.0,0,46,7.0,90.0
13623,54.0,0,46,7.0,90.0
13624,66.0,0,46,7.0,90.0
13625,62.0,24,46,7.0,90.0
13626,74.0,0,94,4.0,90.0
13627,47.0,0,46,7.0,90.0
13628,35.0,0,46,7.0,90.0
13629,62.0,0,46,7.0,90.0
13630,59.0,0,46,7.0,90.0
13631,54.0,0,46,7.0,90.0
13632,66.0,96,46,7.0,90.0
13633,83.0,96,144,4.0,90.0
13634,78.0,48,48,4.0,90.0
13635,54.0,0,46,7.0,90.0
13636,66.0,0,46,7.0,90.0
13637,58.0,0,46,7.0,90.0
13638,64.0,0,46,7.0,90.0
13639,37.0,48,46,7.0,90.0
13640,49.0,0,46,7.0,90.0
13641,76.0,48,0,5.0,90.0
13642,70.0,48,96,5.0,90.0
13643,79.0,48,192,4.0,90.0
13644,66.0,0,46,7.0,90.0
13645,58.0,0,46,7.0,90.0
13646,54.0,0,46,7.0,90.0
13647,64.0,0,46,7.0,90.0
13648,70.0,0,96,5.0,90.0
13649,70.0,48,48,5.0,90.0
13650,76.0,0,48,5.0,90.0
13651,78.0,48,96,4.0,90.0
13652,78.0,0,22,4.0,90.0
13653,62.0,48,46,7.0,90.0
13654,66.0,0,46,7.0,90.0
13655,59.0,0,46,7.0,90.0
13656,54.0,0,46,7.0,90.0
13657,90.0,24,24,4.0,90.0
13658,85.0,24,24,4.0,90.0
13659,71.0,0,94,5.0,90.0
13660,74.0,0,94,5.0,90.0
13661,86.0,24,24,4.0,90.0
13662,88.0,0,24,4.0,90.0
13663,47.0,0,46,7.0,90.0
13664,35.0,24,46,7.0,90.0
13665,86.0,24,24,4.0,90.0
13666,82.0,24,24,4.0,90.0
13667,83.0,24,24,4.0,90.0
13668,85.0,24,24,4.0,90.0
13669,54.0,0,46,7.0,90.0
13670,62.0,0,46,7.0,90.0
13671,59.0,0,46,7.0,90.0
13672,66.0,0,46,7.0,90.0
13673,83.0,24,24,4.0,90.0
13674,86.0,24,16,4.0,90.0
13675,83.0,16,16,4.0,90.0
13676,78.0,16,16,4.0,90.0
13677,64.0,0,46,7.0,90.0
13678,66.0,16,46,7.0,90.0
13679,58.0,0,46,7.0,90.0
13680,54.0,0,46,7.0,90.0
13681,81.0,0,48,4.0,90.0
13682,37.0,0,46,7.0,90.0
13683,49.0,48,46,7.0,90.0
13684,76.0,0,96,5.0,90.0
13685,70.0,48,0,5.0,90.0
13686,79.0,48,96,4.0,90.0
13687,54.0,0,46,7.0,90.0
13688,58.0,48,46,7.0,90.0
13689,64.0,0,46,7.0,90.0
13690,66.0,0,46,7.0,90.0
13691,76.0,0,96,5.0,90.0
13692,79.0,0,96,4.0,90.0
13693,70.0,0,48,5.0,90.0
13694,76.0,0,48,5.0,90.0
13695,78.0,0,0,4.0,90.0
13696,54.0,0,46,7.0,90.0
13697,62.0,0,46,7.0,90.0
13698,66.0,0,46,7.0,90.0
13699,59.0,0,46,7.0,90.0
13700,71.0,48,48,5.0,90.0
13701,74.0,0,48,5.0,90.0
13702,38.0,0,46,7.0,90.0
13703,50.0,48,46,7.0,90.0
13704,66.0,48,96,5.0,90.0
13705,71.0,48,48,5.0,90.0
13706,74.0,0,48,5.0,90.0
13707,61.0,0,46,7.0,90.0
13708,54.0,0,46,7.0,90.0
13709,49.0,0,46,7.0,90.0
13710,66.0,0,94,4.0,90.0
13711,78.0,0,94,4.0,90.0
13712,70.0,0,48,5.0,90.0
13713,76.0,0,0,5.0,90.0
13714,66.0,48,46,4.0,90.0
13715,78.0,0,46,4.0,90.0
13716,70.0,0,48,5.0,90.0
13717,47.0,0,46,7.0,90.0
13718,54.0,0,46,7.0,90.0
13719,59.0,0,46,7.0,90.0
13720,71.0,48,0,5.0,90.0
13721,66.0,0,48,5.0,90.0
13722,47.0,48,46,7.0,90.0
13723,35.0,0,46,7.0,90.0
13724,78.0,0,142,4.0,90.0
13725,66.0,0,142,4.0,90.0
13726,78.0,48,0,5.0,90.0
13727,74.0,0,48,5.0,90.0
13728,45.0,0,46,7.0,90.0
13729,83.0,0,94,4.0,90.0
13730,71.0,0,94,4.0,90.0
13731,57.0,0,46,7.0,90.0
13732,75.0,0,48,5.0,90.0
13733,83.0,0,46,4.0,90.0
13734,75.0,48,46,5.0,90.0
13735,78.0,0,46,5.0,90.0
13736,71.0,0,46,4.0,90.0
13737,72.0,0,46,4.0,90.0
13738,44.0,0,46,7.0,90.0
13739,56.0,0,46,7.0,90.0
13740,84.0,0,46,4.0,90.0
13741,78.0,0,46,4.0,90.0
13742,75.0,48,46,4.0,90.0
13743,72.0,0,94,4.0,90.0
13744,75.0,0,94,4.0,90.0
13745,84.0,0,94,4.0,90.0
13746,78.0,48,94,4.0,90.0
13747,44.0,48,46,7.0,90.0
13748,32.0,0,46,7.0,90.0
13749,78.0,0,46,4.0,90.0
13750,42.0,48,46,7.0,90.0
13751,54.0,0,46,7.0,90.0
13752,84.0,48,94,4.0,90.0
13753,81.0,0,46,4.0,90.0
13754,72.0,0,94,4.0,90.0
13755,75.0,0,94,4.0,90.0
13756,84.0,0,46,4.0,90.0
13757,81.0,0,46,4.0,90.0
13758,75.0,0,46,4.0,90.0
13759,72.0,48,46,4.0,90.0
13760,85.0,0,46,4.0,90.0
13761,80.0,0,46,4.0,90.0
13762,73.0,0,46,4.0,90.0
13763,53.0,48,0,7.0,90.0
13764,41.0,0,48,7.0,90.0
13765,65.0,0,48,7.0,90.0
13766,53.0,0,0,7.0,90.0
13767,80.0,0,94,4.0,90.0
13768,85.0,0,94,4.0,90.0
13769,73.0,0,94,4.0,90.0
13770,41.0,48,48,7.0,90.0
13771,80.0,0,46,4.0,90.0
13772,65.0,0,48,7.0,90.0
13773,53.0,0,48,7.0,90.0
13774,73.0,48,94,4.0,90.0
13775,78.0,48,46,4.0,90.0
13776,85.0,0,94,4.0,90.0
13777,39.0,0,48,7.0,90.0
13778,51.0,0,0,7.0,90.0
13779,63.0,0,46,7.0,90.0
13780,78.0,48,46,4.0,90.0
13781,85.0,0,94,4.0,90.0
13782,77.0,48,46,4.0,90.0
13783,73.0,0,94,4.0,90.0
13784,37.0,0,94,7.0,90.0
13785,49.0,0,94,7.0,90.0
13786,84.0,48,48,4.0,90.0
13787,72.0,0,48,4.0,90.0
13788,87.0,0,48,4.0,90.0
13789,75.0,0,48,4.0,90.0
13790,65.0,0,96,7.0,90.0
13791,68.0,0,96,7.0,90.0
13792,73.0,48,48,4.0,90.0
13793,85.0,0,48,4.0,90.0
13794,72.0,0,48,4.0,90.0
13795,84.0,48,48,4.0,90.0
13796,61.0,48,160,6.0,90.0
13797,66.0,0,94,7.0,90.0
13798,73.0,48,48,4.0,90.0
13799,85.0,0,48,4.0,90.0
13800,67.0,48,46,7.0,90.0
13801,70.0,0,142,7.0,90.0
13802,88.0,0,96,4.0,90.0
13803,76.0,0,96,4.0,90.0
13804,67.0,48,48,7.0,90.0
13805,70.0,0,48,7.0,90.0
13806,70.0,0,48,7.0,90.0
13807,73.0,0,48,7.0,90.0
13808,68.0,48,48,7.0,90.0
13809,71.0,0,48,7.0,90.0
13810,70.0,0,48,7.0,90.0
13811,67.0,48,48,7.0,90.0
13812,61.0,0,256,6.0,90.0
13813,68.0,0,48,7.0,90.0
13814,71.0,48,48,7.0,90.0
13815,87.0,0,238,4.0,90.0
13816,75.0,48,238,4.0,90.0
13817,66.0,0,48,7.0,90.0
13818,70.0,48,48,7.0,90.0
13819,72.0,0,48,4.0,90.0
13820,69.0,48,48,7.0,90.0
13821,66.0,0,48,7.0,90.0
13822,84.0,0,48,4.0,90.0
13823,75.0,48,48,4.0,90.0
13824,87.0,0,48,4.0,90.0
13825,73.0,48,48,4.0,90.0
13826,85.0,0,48,4.0,90.0
13827,84.0,48,48,4.0,90.0
13828,72.0,0,48,4.0,90.0
13829,61.0,0,256,6.0,90.0
13830,73.0,0,48,4.0,90.0
13831,85.0,48,48,4.0,90.0
13832,65.0,0,238,7.0,90.0
13833,68.0,0,238,7.0,90.0
13834,68.0,48,48,7.0,90.0
13835,87.0,0,96,4.0,90.0
13836,75.0,0,96,4.0,90.0
13837,65.0,0,48,7.0,90.0
13838,68.0,0,48,7.0,90.0
13839,71.0,48,48,7.0,90.0
13840,66.0,48,48,7.0,90.0
13841,70.0,0,48,7.0,90.0
13842,65.0,48,48,7.0,90.0
13843,68.0,0,48,7.0,90.0
13844,61.0,48,256,6.0,90.0
13845,66.0,48,48,7.0,90.0
13846,70.0,0,48,7.0,90.0
13847,73.0,0,238,4.0,90.0
13848,85.0,0,238,4.0,90.0
13849,67.0,48,96,7.0,90.0
13850,82.0,0,48,4.0,90.0
13851,70.0,48,48,4.0,90.0
13852,64.0,0,96,7.0,90.0
13853,73.0,0,48,4.0,90.0
13854,85.0,0,48,4.0,90.0
13855,61.0,0,160,6.0,90.0
13856,68.0,0,94,7.0,90.0
13857,65.0,48,94,7.0,90.0
13858,71.0,0,48,4.0,90.0
13859,83.0,48,48,4.0,90.0
13860,70.0,0,48,4.0,90.0
13861,82.0,0,48,4.0,90.0
13862,62.0,0,94,6.0,90.0
13863,68.0,0,96,7.0,90.0
13864,71.0,0,48,4.0,90.0
13865,65.0,48,96,7.0,90.0
13866,83.0,48,48,4.0,90.0
13867,71.0,0,48,4.0,90.0
13868,83.0,0,48,4.0,90.0
13869,68.0,48,48,7.0,90.0
13870,62.0,0,94,6.0,90.0
13871,65.0,0,48,7.0,90.0
13872,80.0,48,48,4.0,90.0
13873,68.0,0,48,4.0,90.0
13874,83.0,0,48,4.0,90.0
13875,71.0,0,48,4.0,90.0
13876,68.0,48,48,7.0,90.0
13877,63.0,0,94,6.0,90.0
13878,82.0,0,48,4.0,90.0
13879,66.0,0,48,7.0,90.0
13880,70.0,48,48,4.0,90.0
13881,80.0,0,48,4.0,90.0
13882,68.0,0,48,4.0,90.0
13883,65.0,48,48,7.0,90.0
13884,60.0,0,94,6.0,90.0
13885,69.0,48,48,4.0,90.0
13886,81.0,0,48,4.0,90.0
13887,66.0,0,48,7.0,90.0
13888,66.0,0,48,7.0,90.0
13889,60.0,0,94,6.0,90.0
13890,63.0,48,48,7.0,90.0
13891,81.0,0,96,4.0,90.0
13892,69.0,48,96,4.0,90.0
13893,66.0,0,48,7.0,90.0
13894,59.0,0,94,6.0,90.0
13895,65.0,48,48,7.0,90.0
13896,73.0,0,96,4.0,90.0
13897,80.0,48,96,4.0,90.0
13898,68.0,0,96,4.0,90.0
13899,66.0,0,48,7.0,90.0
13900,61.0,48,46,7.0,90.0
13901,58.0,0,94,6.0,90.0
13902,78.0,0,94,5.0,90.0
13903,66.0,0,46,7.0,90.0
13904,73.0,48,142,5.0,90.0
13905,73.0,0,46,5.0,90.0
13906,56.0,0,94,6.0,90.0
13907,61.0,48,94,6.0,90.0
13908,65.0,48,46,7.0,90.0
13909,83.0,0,96,4.0,90.0
13910,80.0,48,46,5.0,90.0
13911,61.0,0,94,6.0,90.0
13912,78.0,48,46,5.0,90.0
13913,54.0,0,94,6.0,90.0
13914,66.0,0,94,7.0,90.0
13915,82.0,0,94,4.0,90.0
13916,77.0,0,46,5.0,90.0
13917,78.0,48,46,5.0,90.0
13918,59.0,0,94,6.0,90.0
13919,59.0,48,94,7.0,90.0
13920,59.0,0,48,7.0,90.0
13921,47.0,0,190,6.0,90.0
13922,75.0,48,96,4.0,90.0
13923,78.0,0,96,4.0,90.0
13924,53.0,48,48,7.0,90.0
13925,87.0,0,192,4.0,90.0
13926,56.0,0,48,7.0,90.0
13927,85.0,48,94,4.0,90.0
13928,46.0,0,94,6.0,90.0
13929,73.0,0,94,4.0,90.0
13930,78.0,0,94,4.0,90.0
13931,54.0,48,48,7.0,90.0
13932,51.0,0,48,7.0,90.0
13933,45.0,0,94,6.0,90.0
13934,49.0,48,48,7.0,90.0
13935,48.0,0,48,7.0,90.0
13936,44.0,48,94,6.0,90.0
13937,49.0,48,46,7.0,90.0
13938,78.0,0,192,4.0,90.0
13939,90.0,48,192,4.0,90.0
13940,39.0,0,48,7.0,90.0
13941,77.0,0,94,4.0,90.0
13942,89.0,48,94,4.0,90.0
13943,37.0,48,48,7.0,90.0
13944,36.0,48,48,7.0,90.0
13945,37.0,48,48,7.0,90.0
13946,37.0,48,46,7.0,90.0
13947,56.0,48,48,7.0,90.0
13948,95.0,0,238,4.0,90.0
13949,92.0,0,238,4.0,90.0
13950,89.0,0,238,4.0,90.0
13951,83.0,0,238,4.0,90.0
13952,53.0,48,48,7.0,90.0
13953,59.0,48,48,7.0,90.0
13954,71.0,0,48,4.0,90.0
13955,56.0,48,48,7.0,90.0
13956,68.0,0,48,4.0,90.0
13957,62.0,48,48,7.0,90.0
13958,74.0,0,48,4.0,90.0
13959,60.0,0,48,7.0,90.0
13960,72.0,48,48,4.0,90.0
13961,61.0,48,48,7.0,90.0
13962,73.0,0,48,4.0,90.0
13963,56.0,48,48,7.0,90.0
13964,68.0,0,48,4.0,90.0
13965,75.0,0,48,4.0,90.0
13966,63.0,48,48,7.0,90.0
13967,73.0,0,48,4.0,90.0
13968,61.0,48,48,7.0,90.0
13969,71.0,48,48,4.0,90.0
13970,59.0,0,48,7.0,90.0
13971,58.0,0,46,7.0,90.0
13972,63.0,48,46,7.0,90.0
13973,70.0,0,94,4.0,90.0
13974,60.0,48,46,7.0,90.0
13975,61.0,48,46,7.0,90.0
13976,58.0,48,46,7.0,90.0
13977,63.0,48,46,7.0,90.0
13978,60.0,48,46,7.0,90.0
13979,61.0,48,46,7.0,90.0
13980,58.0,48,46,7.0,90.0
13981,54.0,48,448,6.0,90.0
13982,42.0,0,256,4.0,90.0
13983,63.0,48,46,7.0,90.0
13984,58.0,0,46,7.0,90.0
13985,42.0,0,48,4.0,90.0
13986,61.0,0,46,7.0,90.0
13987,37.0,0,0,4.0,90.0
13988,54.0,48,96,6.0,90.0
13989,56.0,48,46,7.0,90.0
13990,61.0,48,46,7.0,90.0
13991,53.0,0,96,6.0,90.0
13992,58.0,48,46,7.0,90.0
13993,61.0,48,46,7.0,90.0
13994,54.0,0,96,6.0,90.0
13995,59.0,0,46,7.0,90.0
13996,61.0,48,46,7.0,90.0
13997,56.0,48,96,6.0,90.0
13998,59.0,0,46,7.0,90.0
13999,61.0,48,46,7.0,90.0
14000,56.0,0,96,6.0,90.0
14001,58.0,48,46,7.0,90.0
14002,61.0,48,46,7.0,90.0
14003,37.0,48,0,4.0,90.0
14004,54.0,0,96,6.0,90.0
14005,56.0,0,46,7.0,90.0
14006,61.0,48,46,7.0,90.0
14007,53.0,0,96,6.0,90.0
14008,58.0,0,46,7.0,90.0
14009,34.0,0,94,4.0,90.0
14010,63.0,48,46,7.0,90.0
14011,60.0,48,46,7.0,90.0
14012,61.0,48,46,7.0,90.0
14013,58.0,0,46,7.0,90.0
14014,63.0,48,46,7.0,90.0
14015,60.0,48,46,7.0,90.0
14016,61.0,48,46,7.0,90.0
14017,58.0,48,46,7.0,90.0
14018,54.0,48,448,6.0,90.0
14019,78.0,48,256,4.0,90.0
14020,90.0,0,256,4.0,90.0
14021,63.0,48,46,7.0,90.0
14022,58.0,0,46,7.0,90.0
14023,90.0,48,48,4.0,90.0
14024,78.0,0,48,4.0,90.0
14025,61.0,0,46,7.0,90.0
14026,54.0,0,96,6.0,90.0
14027,73.0,0,48,4.0,90.0
14028,85.0,48,0,4.0,90.0
14029,56.0,0,46,7.0,90.0
14030,61.0,48,46,7.0,90.0
14031,53.0,0,96,6.0,90.0
14032,58.0,48,46,7.0,90.0
14033,61.0,48,46,7.0,90.0
14034,54.0,0,96,6.0,90.0
14035,59.0,0,46,7.0,90.0
14036,73.0,0,256,4.0,90.0
14037,61.0,48,46,7.0,90.0
14038,56.0,48,96,6.0,90.0
14039,59.0,48,46,7.0,90.0
14040,61.0,48,46,7.0,90.0
14041,56.0,0,96,6.0,90.0
14042,58.0,48,46,7.0,90.0
14043,61.0,48,46,7.0,90.0
14044,73.0,0,192,4.0,90.0
14045,54.0,0,96,6.0,90.0
14046,85.0,0,192,4.0,90.0
14047,56.0,48,46,7.0,90.0
14048,61.0,48,46,7.0,90.0
14049,73.0,0,96,4.0,90.0
14050,53.0,0,96,6.0,90.0
14051,85.0,0,96,4.0,90.0
14052,58.0,48,30,7.0,90.0
14053,63.0,32,30,7.0,90.0
14054,82.0,0,94,4.0,90.0
14055,61.0,32,30,7.0,90.0
14056,70.0,0,94,4.0,90.0
14057,60.0,32,30,7.0,90.0
14058,63.0,32,30,7.0,90.0
14059,61.0,32,30,7.0,90.0
14060,58.0,32,30,7.0,90.0
14061,63.0,32,30,7.0,90.0
14062,61.0,32,30,7.0,90.0
14063,60.0,32,30,7.0,90.0
14064,63.0,32,30,7.0,90.0
14065,61.0,32,30,7.0,90.0
14066,42.0,0,190,4.0,90.0
14067,58.0,32,30,7.0,90.0
14068,63.0,32,30,7.0,90.0
14069,54.0,0,448,6.0,90.0
14070,61.0,32,30,7.0,90.0
14071,42.0,0,94,4.0,90.0
14072,58.0,32,30,7.0,90.0
14073,42.0,0,32,4.0,90.0
14074,62.0,32,30,7.0,90.0
14075,41.0,0,32,4.0,90.0
14076,61.0,32,30,7.0,90.0
14077,42.0,0,32,4.0,90.0
14078,54.0,0,96,6.0,90.0
14079,56.0,0,30,7.0,90.0
14080,63.0,32,30,7.0,90.0
14081,61.0,32,30,7.0,90.0
14082,53.0,32,96,6.0,90.0
14083,58.0,0,30,7.0,90.0
14084,63.0,32,30,7.0,90.0
14085,37.0,0,160,4.0,90.0
14086,61.0,32,30,7.0,90.0
14087,54.0,32,96,6.0,90.0
14088,59.0,0,30,7.0,90.0
14089,63.0,32,30,7.0,90.0
14090,61.0,32,30,7.0,90.0
14091,56.0,0,0,6.0,90.0
14092,59.0,32,30,7.0,90.0
14093,63.0,32,30,7.0,90.0
14094,61.0,32,30,7.0,90.0
14095,37.0,0,190,4.0,90.0
14096,58.0,0,30,7.0,90.0
14097,63.0,32,30,7.0,90.0
14098,61.0,32,30,7.0,90.0
14099,54.0,32,96,6.0,90.0
14100,56.0,0,30,7.0,90.0
14101,63.0,32,30,7.0,90.0
14102,37.0,0,160,4.0,90.0
14103,61.0,32,30,7.0,90.0
14104,53.0,32,96,6.0,90.0
14105,58.0,0,30,7.0,90.0
14106,63.0,32,30,7.0,90.0
14107,34.0,32,94,4.0,90.0
14108,61.0,32,30,7.0,90.0
14109,60.0,32,30,7.0,90.0
14110,63.0,32,30,7.0,90.0
14111,61.0,32,30,7.0,90.0
14112,58.0,0,30,7.0,90.0
14113,63.0,32,30,7.0,90.0
14114,61.0,32,30,7.0,90.0
14115,60.0,32,30,7.0,90.0
14116,63.0,32,30,7.0,90.0
14117,61.0,32,30,7.0,90.0
14118,90.0,32,190,4.0,90.0
14119,78.0,0,190,4.0,90.0
14120,58.0,32,30,7.0,90.0
14121,63.0,32,30,7.0,90.0
14122,54.0,0,448,6.0,90.0
14123,90.0,0,94,4.0,90.0
14124,61.0,32,30,7.0,90.0
14125,78.0,0,94,4.0,90.0
14126,58.0,32,30,7.0,90.0
14127,78.0,0,32,4.0,90.0
14128,90.0,0,32,4.0,90.0
14129,62.0,32,30,7.0,90.0
14130,77.0,0,32,4.0,90.0
14131,89.0,0,32,4.0,90.0
14132,61.0,0,30,7.0,90.0
14133,54.0,0,96,6.0,90.0
14134,78.0,32,32,4.0,90.0
14135,90.0,0,32,4.0,90.0
14136,56.0,32,30,7.0,90.0
14137,63.0,32,30,7.0,90.0
14138,61.0,32,30,7.0,90.0
14139,53.0,0,96,6.0,90.0
14140,58.0,0,30,7.0,90.0
14141,63.0,32,30,7.0,90.0
14142,85.0,0,160,4.0,90.0
14143,73.0,0,160,4.0,90.0
14144,61.0,32,30,7.0,90.0
14145,54.0,32,96,6.0,90.0
14146,59.0,0,30,7.0,90.0
14147,63.0,32,30,7.0,90.0
14148,61.0,32,30,7.0,90.0
14149,56.0,32,0,6.0,90.0
14150,59.0,0,30,7.0,90.0
14151,63.0,32,30,7.0,90.0
14152,85.0,32,190,4.0,90.0
14153,61.0,32,30,7.0,90.0
14154,73.0,0,190,4.0,90.0
14155,58.0,0,30,7.0,90.0
14156,63.0,32,30,7.0,90.0
14157,61.0,32,30,7.0,90.0
14158,54.0,32,96,6.0,90.0
14159,56.0,0,30,7.0,90.0
14160,61.0,32,30,7.0,90.0
14161,85.0,0,160,4.0,90.0
14162,73.0,0,160,4.0,90.0
14163,59.0,0,30,7.0,90.0
14164,53.0,32,96,6.0,90.0
14165,71.0,32,32,4.0,90.0
14166,83.0,0,32,4.0,90.0
14167,58.0,0,30,7.0,90.0
14168,63.0,32,30,7.0,90.0
14169,61.0,32,30,7.0,90.0
14170,70.0,0,94,5.0,90.0
14171,82.0,32,94,4.0,90.0
14172,70.0,0,30,5.0,90.0
14173,58.0,32,30,7.0,90.0
14174,59.0,32,30,7.0,90.0
14175,80.0,0,30,5.0,90.0
14176,61.0,0,30,7.0,90.0
14177,78.0,32,30,5.0,90.0
14178,63.0,32,30,7.0,90.0
14179,77.0,0,30,5.0,90.0
14180,75.0,32,30,5.0,90.0
14181,65.0,0,30,7.0,90.0
14182,54.0,0,256,6.0,90.0
14183,82.0,0,160,4.0,90.0
14184,66.0,0,30,7.0,90.0
14185,73.0,32,30,5.0,90.0
14186,71.0,0,30,5.0,90.0
14187,73.0,32,30,5.0,90.0
14188,70.0,32,30,5.0,90.0
14189,71.0,32,30,5.0,90.0
14190,68.0,0,126,7.0,90.0
14191,73.0,32,30,5.0,90.0
14192,66.0,0,30,7.0,90.0
14193,75.0,32,30,5.0,90.0
14194,65.0,0,30,7.0,90.0
14195,77.0,0,30,5.0,90.0
14196,63.0,32,30,7.0,90.0
14197,78.0,32,30,5.0,90.0
14198,61.0,0,30,7.0,90.0
14199,56.0,0,256,6.0,90.0
14200,83.0,32,256,4.0,90.0
14201,80.0,0,30,5.0,90.0
14202,59.0,32,30,7.0,90.0
14203,65.0,0,30,7.0,90.0
14204,68.0,32,30,7.0,90.0
14205,73.0,0,94,5.0,90.0
14206,85.0,0,94,4.0,90.0
14207,66.0,32,30,7.0,90.0
14208,61.0,32,30,7.0,90.0
14209,82.0,0,30,5.0,90.0
14210,63.0,32,30,7.0,90.0
14211,80.0,0,30,5.0,90.0
14212,64.0,32,30,7.0,90.0
14213,78.0,0,30,5.0,90.0
14214,66.0,0,30,7.0,90.0
14215,76.0,32,30,5.0,90.0
14216,75.0,32,30,5.0,90.0
14217,68.0,0,30,7.0,90.0
14218,58.0,32,256,6.0,90.0
14219,85.0,0,160,4.0,90.0
14220,70.0,0,30,7.0,90.0
14221,73.0,32,30,5.0,90.0
14222,73.0,0,30,5.0,90.0
14223,75.0,32,30,5.0,90.0
14224,76.0,32,30,5.0,90.0
14225,75.0,32,30,5.0,90.0
14226,71.0,0,126,7.0,90.0
14227,77.0,32,30,5.0,90.0
14228,70.0,0,30,7.0,90.0
14229,78.0,32,30,5.0,90.0
14230,68.0,0,30,7.0,90.0
14231,66.0,32,30,7.0,90.0
14232,80.0,0,30,5.0,90.0
14233,65.0,32,30,7.0,90.0
14234,82.0,0,30,5.0,90.0
14235,87.0,32,256,4.0,90.0
14236,59.0,0,256,6.0,90.0
14237,63.0,32,30,7.0,90.0
14238,61.0,32,30,7.0,90.0
14239,83.0,0,62,5.0,90.0
14240,65.0,0,30,7.0,90.0
14241,83.0,32,30,5.0,90.0
14242,82.0,0,30,5.0,90.0
14243,66.0,32,30,7.0,90.0
14244,80.0,32,30,5.0,90.0
14245,68.0,0,30,7.0,90.0
14246,70.0,32,30,7.0,90.0
14247,78.0,0,30,5.0,90.0
14248,89.0,0,160,4.0,90.0
14249,61.0,0,160,6.0,90.0
14250,77.0,32,30,5.0,90.0
14251,71.0,0,30,7.0,90.0
14252,78.0,32,30,5.0,90.0
14253,70.0,0,30,7.0,90.0
14254,68.0,0,30,7.0,90.0
14255,80.0,32,30,5.0,90.0
14256,66.0,0,30,7.0,90.0
14257,63.0,0,94,6.0,90.0
14258,90.0,0,94,4.0,90.0
14259,82.0,32,30,5.0,90.0
14260,65.0,0,30,7.0,90.0
14261,80.0,32,30,5.0,90.0
14262,83.0,32,30,5.0,90.0
14263,68.0,0,30,7.0,90.0
14264,82.0,0,30,5.0,90.0
14265,70.0,32,30,7.0,90.0
14266,71.0,32,30,7.0,90.0
14267,80.0,0,30,5.0,90.0
14268,73.0,32,30,7.0,90.0
14269,82.0,0,30,5.0,90.0
14270,92.0,0,160,4.0,90.0
14271,65.0,0,160,6.0,90.0
14272,83.0,32,30,5.0,90.0
14273,75.0,0,30,7.0,90.0
14274,82.0,0,30,5.0,90.0
14275,73.0,32,30,7.0,90.0
14276,83.0,32,30,5.0,90.0
14277,71.0,0,30,7.0,90.0
14278,66.0,0,94,6.0,90.0
14279,94.0,0,94,4.0,90.0
14280,70.0,0,30,7.0,90.0
14281,76.0,32,30,7.0,90.0
14282,85.0,32,62,5.0,90.0
14283,73.0,32,30,7.0,90.0
14284,82.0,0,30,5.0,90.0
14285,95.0,0,94,4.0,90.0
14286,68.0,0,94,6.0,90.0
14287,75.0,32,30,7.0,90.0
14288,83.0,0,30,5.0,90.0
14289,76.0,0,30,7.0,90.0
14290,70.0,0,30,7.0,90.0
14291,79.0,32,30,5.0,90.0
14292,78.0,0,30,5.0,90.0
14293,66.0,32,30,7.0,90.0
14294,67.0,32,30,7.0,90.0
14295,85.0,0,94,4.0,90.0
14296,76.0,0,30,5.0,90.0
14297,58.0,0,94,6.0,90.0
14298,75.0,32,30,5.0,90.0
14299,66.0,0,30,7.0,90.0
14300,76.0,32,30,5.0,90.0
14301,64.0,0,30,7.0,90.0
14302,59.0,0,94,6.0,90.0
14303,87.0,0,94,4.0,90.0
14304,63.0,32,62,7.0,90.0
14305,78.0,0,62,5.0,90.0
14306,77.0,32,30,5.0,90.0
14307,65.0,0,30,7.0,90.0
14308,66.0,0,30,7.0,90.0
14309,75.0,32,30,5.0,90.0
14310,72.0,32,30,5.0,90.0
14311,69.0,0,30,7.0,90.0
14312,68.0,32,30,7.0,90.0
14313,73.0,0,30,5.0,90.0
14314,81.0,32,160,4.0,90.0
14315,60.0,0,160,6.0,90.0
14316,75.0,0,30,5.0,90.0
14317,66.0,32,30,7.0,90.0
14318,61.0,32,30,7.0,90.0
14319,77.0,0,30,5.0,90.0
14320,74.0,0,30,5.0,90.0
14321,65.0,32,30,7.0,90.0
14322,73.0,0,30,5.0,90.0
14323,80.0,0,94,4.0,90.0
14324,68.0,32,30,7.0,90.0
14325,59.0,0,94,6.0,90.0
14326,76.0,0,160,5.0,90.0
14327,75.0,192,94,5.0,90.0
14328,79.0,32,288,4.0,90.0
14329,70.0,0,288,7.0,90.0
14330,73.0,0,288,7.0,90.0
14331,85.0,0,288,4.0,90.0
14332,67.0,0,192,7.0,90.0
14333,70.0,0,192,7.0,90.0
14334,75.0,0,192,4.0,90.0
14335,82.0,96,192,4.0,90.0
14336,87.0,0,192,4.0,90.0
14337,82.0,0,96,4.0,90.0
14338,75.0,0,96,4.0,90.0
14339,63.0,192,96,7.0,90.0
14340,73.0,96,0,4.0,90.0
14341,67.0,0,96,7.0,90.0
14342,70.0,0,48,7.0,90.0
14343,85.0,0,48,4.0,90.0
14344,70.0,0,48,4.0,90.0
14345,82.0,48,48,4.0,90.0
14346,67.0,0,48,7.0,90.0
14347,68.0,0,46,7.0,90.0
14348,83.0,0,48,4.0,90.0
14349,71.0,0,48,4.0,90.0
14350,56.0,48,94,6.0,90.0
14351,63.0,48,46,7.0,90.0
14352,75.0,0,48,4.0,90.0
14353,87.0,0,48,4.0,90.0
14354,61.0,0,46,7.0,90.0
14355,94.0,0,48,4.0,90.0
14356,82.0,0,48,4.0,90.0
14357,59.0,48,46,7.0,90.0
14358,47.0,48,94,6.0,90.0
14359,92.0,0,96,4.0,90.0
14360,80.0,0,96,4.0,90.0
14361,58.0,0,94,7.0,90.0
14362,49.0,48,94,7.0,90.0
14363,37.0,0,46,7.0,90.0
14364,46.0,48,46,7.0,90.0
14365,90.0,0,94,4.0,90.0
14366,78.0,48,94,4.0,90.0
14367,78.0,0,46,4.0,90.0
14368,70.0,0,46,4.0,90.0
14369,66.0,0,46,4.0,90.0
14370,49.0,0,72,7.0,90.0
14371,37.0,48,72,7.0,90.0
14372,47.0,24,24,7.0,90.0
14373,35.0,0,24,7.0,90.0
14374,65.0,0,48,4.0,90.0
14375,68.0,0,48,4.0,90.0
14376,77.0,48,48,4.0,90.0
14377,34.0,24,24,7.0,90.0
14378,46.0,0,24,7.0,90.0
14379,76.0,0,0,4.0,90.0
14380,73.0,0,0,4.0,90.0
14381,67.0,0,0,4.0,90.0
14382,64.0,0,0,4.0,90.0
14383,35.0,24,24,7.0,90.0
14384,47.0,0,24,7.0,90.0
14385,34.0,24,22,7.0,90.0
14386,37.0,24,22,7.0,90.0
14387,40.0,24,22,7.0,90.0
14388,43.0,24,22,7.0,90.0
14389,46.0,24,22,7.0,90.0
14390,49.0,24,22,7.0,90.0
14391,52.0,24,22,7.0,90.0
14392,55.0,24,22,7.0,90.0
14393,58.0,0,22,7.0,90.0
14394,73.0,0,22,5.0,90.0
14395,61.0,24,22,7.0,90.0
14396,67.0,24,22,5.0,90.0
14397,64.0,0,22,7.0,90.0
14398,71.0,24,22,5.0,90.0
14399,59.0,0,22,7.0,90.0
14400,63.0,0,22,7.0,90.0
14401,66.0,24,22,5.0,90.0
14402,75.0,0,48,4.0,90.0
14403,66.0,0,160,4.0,90.0
14404,47.0,0,160,7.0,90.0
14405,59.0,0,160,7.0,90.0
14406,62.0,24,160,4.0,90.0
14407,71.0,0,160,4.0,90.0
14408,74.0,0,160,4.0,90.0
14409,37.0,0,30,7.0,90.0
14410,42.0,32,30,7.0,90.0
14411,46.0,32,30,7.0,90.0
14412,49.0,32,30,7.0,90.0
14413,54.0,32,30,7.0,90.0
14414,58.0,32,30,7.0,90.0
14415,70.0,288,192,4.0,90.0
14416,66.0,0,192,4.0,90.0
14417,61.0,0,192,4.0,90.0
14418,54.0,0,22,7.0,90.0
14419,70.0,32,22,5.0,90.0
14420,58.0,24,22,7.0,90.0
14421,66.0,0,22,5.0,90.0
14422,49.0,0,46,6.0,90.0
14423,73.0,0,240,4.0,90.0
14424,69.0,0,22,5.0,90.0
14425,54.0,24,22,7.0,90.0
14426,66.0,24,22,5.0,90.0
14427,51.0,0,46,6.0,90.0
14428,57.0,0,22,7.0,90.0
14429,72.0,0,48,4.0,90.0
14430,59.0,0,94,7.0,90.0
14431,62.0,24,94,4.0,90.0
14432,68.0,0,94,4.0,90.0
14433,65.0,0,94,4.0,90.0
14434,56.0,0,94,7.0,90.0
14435,53.0,0,94,7.0,90.0
14436,50.0,0,94,7.0,90.0
14437,71.0,0,94,4.0,90.0
14438,53.0,0,144,7.0,90.0
14439,50.0,96,144,7.0,90.0
14440,59.0,0,144,7.0,90.0
14441,56.0,0,144,7.0,90.0
14442,51.0,0,48,7.0,90.0
14443,55.0,144,48,7.0,90.0
14444,58.0,0,48,7.0,90.0
14445,55.0,0,160,7.0,90.0
14446,51.0,48,160,7.0,90.0
14447,58.0,0,160,7.0,90.0
14448,55.0,0,94,7.0,90.0
14449,63.0,0,94,7.0,90.0
14450,51.0,192,94,7.0,90.0
14451,58.0,0,94,7.0,90.0
14452,70.0,96,160,4.0,90.0
14453,67.0,0,160,4.0,90.0
14454,63.0,0,160,7.0,90.0
14455,58.0,0,160,7.0,90.0
14456,55.0,0,160,7.0,90.0
14457,51.0,0,160,7.0,90.0
14458,75.0,0,94,4.0,90.0
14459,63.0,192,94,7.0,90.0
14460,58.0,0,94,7.0,90.0
14461,55.0,0,94,7.0,90.0
14462,67.0,0,94,4.0,90.0
14463,70.0,0,94,4.0,90.0
14464,51.0,0,94,7.0,90.0
14465,39.0,0,94,7.0,90.0
14466,51.0,0,94,7.0,90.0
14467,67.0,0,160,4.0,90.0
14468,63.0,0,160,4.0,90.0
14469,70.0,96,160,4.0,90.0
14470,75.0,0,160,4.0,90.0
14471,34.0,96,160,7.0,90.0
14472,46.0,0,160,7.0,90.0
14473,67.0,0,96,4.0,90.0
14474,63.0,96,0,4.0,90.0
14475,75.0,0,0,4.0,90.0
14476,35.0,0,94,7.0,90.0
14477,47.0,0,94,7.0,90.0
14478,66.0,0,96,4.0,90.0
14479,37.0,0,160,7.0,90.0
14480,49.0,0,160,7.0,90.0
14481,73.0,192,0,4.0,90.0
14482,65.0,0,192,4.0,90.0
14483,61.0,0,0,4.0,90.0
14484,42.0,0,160,7.0,90.0
14485,30.0,0,160,7.0,90.0
14486,70.0,0,160,4.0,90.0
14487,66.0,0,160,4.0,90.0
14488,58.0,0,96,7.0,90.0
14489,70.0,192,96,4.0,90.0
14490,61.0,0,192,4.0,90.0
14491,49.0,96,192,7.0,90.0
14492,73.0,0,96,4.0,90.0
14493,61.0,192,96,7.0,90.0
14494,58.0,0,160,7.0,90.0
14495,70.0,96,160,4.0,90.0
14496,73.0,0,94,4.0,90.0
14497,82.0,0,94,4.0,90.0
14498,70.0,0,94,4.0,90.0
14499,49.0,0,192,7.0,90.0
14500,37.0,192,192,7.0,90.0
14501,51.0,96,48,7.0,90.0
14502,39.0,0,48,7.0,90.0
14503,68.0,0,160,4.0,90.0
14504,71.0,0,160,4.0,90.0
14505,80.0,96,160,4.0,90.0
14506,37.0,0,48,7.0,90.0
14507,49.0,48,48,7.0,90.0
14508,39.0,0,48,7.0,90.0
14509,49.0,0,48,7.0,90.0
14510,51.0,0,48,7.0,90.0
14511,68.0,0,96,4.0,90.0
14512,71.0,0,96,4.0,90.0
14513,73.0,0,96,4.0,90.0
14514,53.0,0,48,7.0,90.0
14515,49.0,0,0,7.0,90.0
14516,41.0,48,48,7.0,90.0
14517,61.0,48,0,4.0,90.0
14518,66.0,0,160,4.0,90.0
14519,73.0,0,160,4.0,90.0
14520,70.0,0,160,4.0,90.0
14521,54.0,0,160,7.0,90.0
14522,42.0,0,160,7.0,90.0
14523,82.0,192,96,4.0,90.0
14524,70.0,0,96,7.0,90.0
14525,61.0,96,192,7.0,90.0
14526,73.0,0,192,4.0,90.0
14527,73.0,0,96,4.0,90.0
14528,85.0,0,96,4.0,90.0
14529,46.0,0,96,7.0,90.0
14530,34.0,192,96,7.0,90.0
14531,49.0,0,94,7.0,90.0
14532,37.0,0,94,7.0,90.0
14533,82.0,0,160,4.0,90.0
14534,70.0,96,160,4.0,90.0
14535,61.0,0,96,7.0,90.0
14536,49.0,0,0,7.0,90.0
14537,58.0,0,96,7.0,90.0
14538,46.0,96,96,7.0,90.0
14539,49.0,0,0,7.0,90.0
14540,85.0,0,192,4.0,90.0
14541,73.0,0,192,4.0,90.0
14542,85.0,0,46,5.0,90.0
14543,83.0,48,46,5.0,90.0
14544,56.0,96,192,7.0,90.0
14545,87.0,96,96,4.0,90.0
14546,44.0,0,192,7.0,90.0
14547,75.0,0,96,4.0,90.0
14548,49.0,48,0,7.0,90.0
14549,82.0,0,46,5.0,90.0
14550,83.0,48,46,5.0,90.0
14551,77.0,0,96,4.0,90.0
14552,89.0,0,96,4.0,90.0
14553,49.0,0,0,7.0,90.0
14554,37.0,0,96,7.0,90.0
14555,78.0,48,256,4.0,90.0
14556,54.0,0,256,7.0,90.0
14557,90.0,0,256,4.0,90.0
14558,82.0,0,256,5.0,90.0
14559,42.0,0,256,7.0,90.0
14560,85.0,192,94,5.0,90.0
14561,89.0,0,288,4.0,90.0
14562,80.0,0,288,4.0,90.0
14563,92.0,0,288,4.0,90.0
14564,37.0,288,288,7.0,90.0
14565,49.0,0,288,7.0,90.0
14566,90.0,0,160,4.0,90.0
14567,42.0,0,160,7.0,90.0
14568,30.0,0,160,7.0,90.0
14569,82.0,0,160,4.0,90.0
14570,85.0,0,160,4.0,90.0
14571,94.0,96,160,4.0,90.0
14572,54.0,192,96,7.0,90.0
14573,42.0,0,96,7.0,90.0
14574,82.0,96,0,4.0,90.0
14575,73.0,0,0,4.0,90.0
14576,70.0,0,96,4.0,90.0
14577,85.0,0,144,4.0,90.0
14578,54.0,0,192,7.0,90.0
14579,42.0,0,192,7.0,90.0
14580,86.0,0,48,4.0,90.0
14581,83.0,0,48,4.0,90.0
14582,74.0,144,48,4.0,90.0
14583,88.0,0,48,4.0,90.0
14584,76.0,0,48,4.0,90.0
14585,85.0,0,48,4.0,90.0
14586,42.0,0,72,7.0,90.0
14587,54.0,48,72,7.0,90.0
14588,78.0,0,46,4.0,90.0
14589,86.0,48,46,4.0,90.0
14590,90.0,0,46,4.0,90.0
14591,52.0,24,24,7.0,90.0
14592,40.0,0,24,7.0,90.0
14593,90.0,0,192,4.0,90.0
14594,78.0,0,192,4.0,90.0
14595,50.0,24,256,7.0,90.0
14596,38.0,0,256,7.0,90.0
14597,74.0,0,94,4.0,90.0
14598,86.0,192,94,4.0,90.0
14599,74.0,96,94,4.0,90.0
14600,86.0,0,94,4.0,90.0
14601,83.0,0,96,4.0,90.0
14602,71.0,96,96,4.0,90.0
14603,42.0,0,288,7.0,90.0
14604,85.0,96,96,4.0,90.0
14605,54.0,0,288,7.0,90.0
14606,73.0,0,96,4.0,90.0
14607,47.0,0,160,7.0,90.0
14608,59.0,0,160,7.0,90.0
14609,86.0,0,160,4.0,90.0
14610,74.0,96,160,4.0,90.0
14611,47.0,0,94,7.0,90.0
14612,59.0,384,94,7.0,90.0
14613,55.0,96,46,7.0,90.0
14614,43.0,0,46,7.0,90.0
14615,50.0,48,48,7.0,90.0
14616,38.0,48,0,7.0,90.0
14617,50.0,0,160,7.0,90.0
14618,83.0,0,256,4.0,90.0
14619,71.0,0,256,4.0,90.0
14620,47.0,0,0,7.0,90.0
14621,35.0,96,0,7.0,90.0
14622,43.0,96,96,7.0,90.0
14623,31.0,0,96,7.0,90.0
14624,86.0,0,256,4.0,90.0
14625,74.0,0,256,4.0,90.0
14626,45.0,0,96,7.0,90.0
14627,33.0,96,96,7.0,90.0
14628,47.0,0,94,7.0,90.0
14629,35.0,0,94,7.0,90.0
14630,55.0,0,96,7.0,90.0
14631,47.0,96,96,7.0,90.0
14632,48.0,0,96,7.0,90.0
14633,57.0,96,96,7.0,90.0
14634,50.0,96,94,7.0,90.0
14635,59.0,0,94,7.0,90.0
14636,91.0,96,382,4.0,90.0
14637,79.0,0,382,4.0,90.0
14638,74.0,0,96,4.0,90.0
14639,71.0,0,96,4.0,90.0
14640,59.0,96,96,7.0,90.0
14641,62.0,0,96,7.0,90.0
14642,60.0,0,48,7.0,90.0
14643,66.0,0,48,4.0,90.0
14644,72.0,96,48,4.0,90.0
14645,50.0,0,48,7.0,90.0
14646,57.0,0,48,7.0,90.0
14647,71.0,0,48,4.0,90.0
14648,55.0,0,48,7.0,90.0
14649,67.0,48,0,4.0,90.0
14650,59.0,0,48,7.0,90.0
14651,59.0,0,30,7.0,90.0
14652,64.0,32,30,7.0,90.0
14653,62.0,32,30,7.0,90.0
14654,71.0,0,94,4.0,90.0
14655,61.0,32,30,7.0,90.0
14656,64.0,32,30,7.0,90.0
14657,62.0,32,30,7.0,90.0
14658,59.0,32,30,7.0,90.0
14659,64.0,32,30,7.0,90.0
14660,62.0,32,30,7.0,90.0
14661,61.0,32,30,7.0,90.0
14662,64.0,32,30,7.0,90.0
14663,43.0,0,190,4.0,90.0
14664,62.0,32,30,7.0,90.0
14665,59.0,0,30,7.0,90.0
14666,64.0,32,30,7.0,90.0
14667,55.0,0,448,6.0,90.0
14668,62.0,32,30,7.0,90.0
14669,43.0,32,94,4.0,90.0
14670,59.0,32,30,7.0,90.0
14671,43.0,0,32,4.0,90.0
14672,63.0,32,30,7.0,90.0
14673,42.0,0,32,4.0,90.0
14674,62.0,32,30,7.0,90.0
14675,43.0,0,32,4.0,90.0
14676,55.0,0,96,6.0,90.0
14677,57.0,0,30,7.0,90.0
14678,64.0,32,30,7.0,90.0
14679,62.0,32,30,7.0,90.0
14680,54.0,32,96,6.0,90.0
14681,59.0,32,30,7.0,90.0
14682,64.0,32,30,7.0,90.0
14683,38.0,0,160,4.0,90.0
14684,62.0,32,30,7.0,90.0
14685,55.0,0,96,6.0,90.0
14686,60.0,0,30,7.0,90.0
14687,64.0,32,30,7.0,90.0
14688,62.0,32,30,7.0,90.0
14689,57.0,32,0,6.0,90.0
14690,60.0,0,30,7.0,90.0
14691,64.0,32,30,7.0,90.0
14692,38.0,32,190,4.0,90.0
14693,62.0,32,30,7.0,90.0
14694,59.0,0,30,7.0,90.0
14695,64.0,32,30,7.0,90.0
14696,62.0,32,30,7.0,90.0
14697,55.0,0,96,6.0,90.0
14698,58.0,32,30,7.0,90.0
14699,64.0,32,30,7.0,90.0
14700,62.0,32,30,7.0,90.0
14701,38.0,32,192,4.0,90.0
14702,54.0,0,96,6.0,90.0
14703,59.0,0,30,7.0,90.0
14704,64.0,32,30,7.0,90.0
14705,35.0,32,94,4.0,90.0
14706,62.0,32,30,7.0,90.0
14707,61.0,32,30,7.0,90.0
14708,64.0,32,30,7.0,90.0
14709,62.0,32,30,7.0,90.0
14710,59.0,32,30,7.0,90.0
14711,64.0,32,30,7.0,90.0
14712,62.0,32,30,7.0,90.0
14713,61.0,32,30,7.0,90.0
14714,64.0,32,30,7.0,90.0
14715,62.0,32,30,7.0,90.0
14716,91.0,0,190,4.0,90.0
14717,79.0,0,190,4.0,90.0
14718,59.0,32,30,7.0,90.0
14719,64.0,32,30,7.0,90.0
14720,55.0,0,448,6.0,90.0
14721,79.0,0,94,4.0,90.0
14722,91.0,0,94,4.0,90.0
14723,62.0,32,30,7.0,90.0
14724,59.0,0,30,7.0,90.0
14725,79.0,0,30,4.0,90.0
14726,91.0,0,30,4.0,90.0
14727,63.0,32,30,7.0,90.0
14728,78.0,0,30,4.0,90.0
14729,90.0,0,30,4.0,90.0
14730,79.0,0,30,4.0,90.0
14731,91.0,32,30,4.0,90.0
14732,62.0,0,30,7.0,90.0
14733,55.0,32,96,6.0,90.0
14734,57.0,0,30,7.0,90.0
14735,64.0,32,30,7.0,90.0
14736,62.0,32,30,7.0,90.0
14737,54.0,0,96,6.0,90.0
14738,59.0,32,30,7.0,90.0
14739,64.0,32,30,7.0,90.0
14740,74.0,32,160,4.0,90.0
14741,86.0,0,160,4.0,90.0
14742,62.0,32,30,7.0,90.0
14743,55.0,0,96,6.0,90.0
14744,60.0,0,30,7.0,90.0
14745,64.0,32,30,7.0,90.0
14746,62.0,32,30,7.0,90.0
14747,57.0,0,0,6.0,90.0
14748,60.0,32,30,7.0,90.0
14749,64.0,32,30,7.0,90.0
14750,74.0,32,190,4.0,90.0
14751,86.0,0,190,4.0,90.0
14752,62.0,32,30,7.0,90.0
14753,59.0,32,30,7.0,90.0
14754,64.0,32,30,7.0,90.0
14755,55.0,0,94,6.0,90.0
14756,62.0,32,30,7.0,90.0
14757,58.0,32,30,7.0,90.0
14758,64.0,32,30,7.0,90.0
14759,74.0,0,160,4.0,90.0
14760,86.0,0,160,4.0,90.0
14761,62.0,32,30,7.0,90.0
14762,54.0,32,0,6.0,90.0
14763,58.0,0,30,7.0,90.0
14764,64.0,32,30,7.0,90.0
14765,62.0,32,30,7.0,90.0
14766,59.0,32,30,7.0,90.0
14767,64.0,32,30,7.0,90.0
14768,86.0,0,160,4.0,90.0
14769,74.0,0,160,4.0,90.0
14770,62.0,32,30,7.0,90.0
14771,55.0,0,96,6.0,90.0
14772,59.0,0,30,7.0,90.0
14773,64.0,32,30,7.0,90.0
14774,62.0,32,30,7.0,90.0
14775,56.0,0,96,6.0,90.0
14776,59.0,0,30,7.0,90.0
14777,64.0,32,30,7.0,90.0
14778,74.0,32,190,4.0,90.0
14779,62.0,32,30,7.0,90.0
14780,86.0,0,190,4.0,90.0
14781,56.0,32,96,6.0,90.0
14782,59.0,0,30,7.0,90.0
14783,65.0,32,30,7.0,90.0
14784,62.0,32,30,7.0,90.0
14785,56.0,0,0,6.0,90.0
14786,59.0,32,30,7.0,90.0
14787,74.0,0,126,4.0,90.0
14788,86.0,0,126,4.0,90.0
14789,65.0,32,30,7.0,90.0
14790,73.0,0,32,4.0,90.0
14791,85.0,0,32,4.0,90.0
14792,62.0,0,30,7.0,90.0
14793,74.0,0,0,4.0,90.0
14794,86.0,0,0,4.0,90.0
14795,62.0,32,30,7.0,90.0
14796,66.0,32,30,7.0,90.0
14797,64.0,32,30,7.0,90.0
14798,57.0,0,96,6.0,90.0
14799,62.0,32,30,7.0,90.0
14800,66.0,32,30,7.0,90.0
14801,78.0,0,160,4.0,90.0
14802,64.0,32,30,7.0,90.0
14803,58.0,0,96,6.0,90.0
14804,62.0,0,30,7.0,90.0
14805,66.0,32,30,7.0,90.0
14806,64.0,32,30,7.0,90.0
14807,59.0,32,96,6.0,90.0
14808,62.0,32,30,7.0,90.0
14809,66.0,32,30,7.0,90.0
14810,64.0,32,30,7.0,90.0
14811,74.0,0,190,4.0,90.0
14812,78.0,0,190,4.0,90.0
14813,86.0,0,190,4.0,90.0
14814,59.0,0,94,6.0,90.0
14815,62.0,32,30,7.0,90.0
14816,66.0,32,30,7.0,90.0
14817,59.0,0,94,6.0,90.0
14818,64.0,32,30,7.0,90.0
14819,78.0,0,126,4.0,126.0
14820,62.0,0,30,7.0,90.0
14821,90.0,0,126,4.0,126.0
14822,89.0,0,30,4.0,126.0
14823,77.0,32,30,4.0,126.0
14824,65.0,0,30,7.0,90.0
14825,59.0,32,94,6.0,90.0
14826,66.0,32,30,7.0,90.0
14827,78.0,0,30,4.0,126.0
14828,90.0,0,30,4.0,126.0
14829,62.0,32,30,7.0,126.0
14830,67.0,32,30,7.0,90.0
14831,66.0,32,30,7.0,90.0
14832,59.0,0,94,6.0,90.0
14833,63.0,32,30,7.0,126.0
14834,68.0,32,30,7.0,90.0
14835,78.0,0,160,4.0,126.0
14836,90.0,0,160,4.0,126.0
14837,66.0,32,30,7.0,90.0
14838,60.0,0,94,6.0,90.0
14839,63.0,32,30,7.0,126.0
14840,69.0,32,30,7.0,90.0
14841,60.0,0,94,6.0,90.0
14842,66.0,32,30,7.0,90.0
14843,51.0,0,30,7.0,126.0
14844,78.0,0,142,4.0,126.0
14845,90.0,0,142,4.0,126.0
14846,57.0,32,30,7.0,126.0
14847,48.0,32,94,6.0,126.0
14848,54.0,32,30,7.0,126.0
14849,63.0,0,30,7.0,126.0
14850,69.0,32,30,7.0,90.0
14851,66.0,32,30,7.0,90.0
14852,60.0,32,94,6.0,126.0
14853,51.0,32,30,7.0,126.0
14854,78.0,0,142,4.0,126.0
14855,90.0,0,142,4.0,126.0
14856,57.0,32,30,7.0,126.0
14857,54.0,32,30,7.0,126.0
14858,48.0,0,94,6.0,126.0
14859,60.0,0,22,7.0,126.0
14860,78.0,32,46,5.0,90.0
14861,69.0,24,22,7.0,126.0
14862,90.0,0,46,4.0,90.0
14863,78.0,0,46,4.0,90.0
14864,90.0,0,46,5.0,90.0
14865,66.0,24,22,7.0,90.0
14866,63.0,0,22,7.0,90.0
14867,69.0,24,22,7.0,126.0
14868,90.0,0,48,5.0,126.0
14869,90.0,0,48,4.0,126.0
14870,48.0,0,22,7.0,126.0
14871,57.0,24,22,7.0,126.0
14872,90.0,0,46,4.0,126.0
14873,90.0,24,46,5.0,126.0
14874,54.0,24,22,7.0,90.0
14875,51.0,0,22,7.0,90.0
14876,57.0,24,22,7.0,90.0
14877,90.0,0,48,5.0,126.0
14878,90.0,0,0,4.0,126.0
14879,60.0,24,22,7.0,126.0
14880,69.0,24,22,7.0,126.0
14881,90.0,0,46,5.0,126.0
14882,63.0,0,22,7.0,90.0
14883,66.0,0,22,7.0,90.0
14884,69.0,24,22,7.0,126.0
14885,90.0,24,48,4.0,126.0
14886,90.0,24,0,5.0,126.0
14887,48.0,0,14,7.0,126.0
14888,57.0,16,14,7.0,126.0
14889,51.0,16,14,7.0,90.0
14890,54.0,0,14,7.0,90.0
14891,90.0,0,46,4.0,126.0
14892,57.0,0,14,7.0,126.0
14893,51.0,16,14,7.0,90.0
14894,54.0,0,14,7.0,90.0
14895,57.0,16,14,7.0,126.0
14896,90.0,16,0,5.0,126.0
14897,90.0,16,48,4.0,126.0
14898,60.0,0,14,7.0,126.0
14899,69.0,16,14,7.0,126.0
14900,66.0,16,14,7.0,90.0
14901,63.0,0,14,7.0,90.0
14902,90.0,0,46,4.0,126.0
14903,69.0,0,14,7.0,126.0
14904,63.0,16,14,7.0,126.0
14905,66.0,0,14,7.0,126.0
14906,69.0,16,14,7.0,90.0
14907,90.0,16,48,5.0,126.0
14908,90.0,0,48,4.0,126.0
14909,48.0,16,14,7.0,126.0
14910,57.0,16,14,7.0,126.0
14911,54.0,0,14,7.0,126.0
14912,90.0,0,46,4.0,126.0
14913,90.0,0,46,5.0,126.0
14914,51.0,16,14,7.0,126.0
14915,57.0,0,14,7.0,126.0
14916,54.0,16,14,7.0,126.0
14917,51.0,0,14,7.0,126.0
14918,90.0,16,94,4.0,126.0
14919,90.0,0,94,5.0,126.0
14920,57.0,16,62,7.0,126.0
14921,61.0,64,192,7.0,90.0
14922,73.0,0,192,4.0,90.0
14923,69.0,0,0,4.0,90.0
14924,57.0,96,0,7.0,90.0
14925,54.0,0,96,7.0,90.0
14926,66.0,96,96,4.0,90.0
14927,65.0,0,96,4.0,90.0
14928,61.0,0,0,4.0,90.0
14929,56.0,0,96,7.0,90.0
14930,49.0,0,96,7.0,90.0
14931,68.0,96,96,4.0,90.0
14932,54.0,0,160,7.0,90.0
14933,66.0,0,160,4.0,90.0
14934,57.0,96,160,4.0,90.0
14935,42.0,0,160,7.0,90.0
14936,69.0,0,160,4.0,90.0
14937,61.0,0,94,4.0,90.0
14938,58.0,192,94,4.0,90.0
14939,70.0,0,94,4.0,90.0
14940,66.0,0,94,4.0,90.0
14941,54.0,0,96,7.0,90.0
14942,42.0,0,96,7.0,90.0
14943,71.0,0,0,4.0,90.0
14944,62.0,0,0,4.0,90.0
14945,59.0,0,192,4.0,90.0
14946,47.0,0,192,7.0,90.0
14947,35.0,0,0,7.0,90.0
14948,66.0,0,0,4.0,90.0
14949,74.0,96,0,4.0,90.0
14950,47.0,0,96,7.0,90.0
14951,44.0,0,192,7.0,90.0
14952,71.0,0,192,4.0,90.0
14953,32.0,0,192,7.0,90.0
14954,62.0,0,192,4.0,90.0
14955,65.0,0,192,4.0,90.0
14956,61.0,0,94,4.0,90.0
14957,66.0,0,94,4.0,90.0
14958,69.0,192,94,4.0,90.0
14959,73.0,0,94,4.0,90.0
14960,45.0,0,94,7.0,90.0
14961,33.0,0,94,7.0,90.0
14962,61.0,0,96,4.0,90.0
14963,66.0,0,96,4.0,90.0
14964,73.0,96,96,4.0,90.0
14965,33.0,0,96,7.0,90.0
14966,45.0,0,96,7.0,90.0
14967,69.0,0,96,4.0,90.0
14968,47.0,0,96,7.0,90.0
14969,35.0,0,96,7.0,90.0
14970,62.0,0,96,4.0,90.0
14971,68.0,0,96,4.0,90.0
14972,71.0,0,96,4.0,90.0
14973,59.0,96,96,4.0,90.0
14974,48.0,96,0,7.0,90.0
14975,36.0,0,0,7.0,90.0
14976,69.0,0,0,4.0,90.0
14977,66.0,0,0,4.0,90.0
14978,63.0,0,96,4.0,90.0
14979,57.0,96,96,4.0,90.0
14980,63.0,0,94,5.0,90.0
14981,57.0,0,192,4.0,90.0
14982,49.0,0,144,7.0,90.0
14983,37.0,96,144,7.0,90.0
14984,61.0,0,160,5.0,90.0
14985,68.0,0,94,4.0,90.0
14986,65.0,0,94,4.0,90.0
14987,56.0,96,94,4.0,90.0
14988,36.0,0,48,7.0,90.0
14989,48.0,48,48,7.0,90.0
14990,65.0,0,94,4.0,90.0
14991,49.0,0,94,7.0,90.0
14992,37.0,0,94,7.0,90.0
14993,61.0,0,94,4.0,90.0
14994,56.0,0,94,4.0,90.0
14995,55.0,0,94,5.0,90.0
14996,58.0,0,94,5.0,90.0
14997,64.0,96,94,5.0,90.0
14998,49.0,0,96,7.0,90.0
14999,37.0,0,96,7.0,90.0
15000,55.0,0,94,5.0,90.0
15001,59.0,0,94,5.0,90.0
15002,62.0,0,94,5.0,90.0
15003,50.0,96,94,7.0,90.0
15004,38.0,0,94,7.0,90.0
15005,71.0,96,24,4.0,90.0
15006,71.0,72,94,5.0,90.0
15007,83.0,24,166,4.0,90.0
15008,38.0,0,256,7.0,90.0
15009,47.0,0,256,7.0,90.0
15010,31.0,0,256,7.0,90.0
15011,69.0,96,94,5.0,90.0
15012,81.0,0,0,4.0,90.0
15013,69.0,0,96,4.0,90.0
15014,79.0,0,96,4.0,90.0
15015,67.0,96,96,4.0,90.0
15016,35.0,96,256,7.0,90.0
15017,50.0,0,256,7.0,90.0
15018,43.0,0,256,7.0,90.0
15019,78.0,0,96,4.0,90.0
15020,66.0,96,0,4.0,90.0
15021,78.0,0,96,4.0,90.0
15022,76.0,0,96,4.0,90.0
15023,64.0,96,96,4.0,90.0
15024,52.0,0,256,7.0,90.0
15025,43.0,0,256,7.0,90.0
15026,36.0,0,256,7.0,90.0
15027,78.0,0,0,4.0,90.0
15028,66.0,0,0,4.0,90.0
15029,50.0,96,94,7.0,90.0
15030,43.0,0,94,7.0,90.0
15031,35.0,0,94,7.0,90.0
15032,43.0,96,142,7.0,90.0
15033,67.0,0,142,4.0,90.0
15034,79.0,0,142,4.0,90.0
15035,38.0,96,94,6.0,90.0
15036,66.0,48,0,4.0,90.0
15037,54.0,0,0,4.0,90.0
15038,42.0,0,0,7.0,90.0
15039,38.0,0,96,7.0,90.0
15040,57.0,0,96,4.0,90.0
15041,37.0,96,96,7.0,90.0
15042,69.0,0,0,4.0,90.0
15043,45.0,0,96,7.0,90.0
15044,73.0,0,96,4.0,90.0
15045,66.0,0,96,4.0,90.0
15046,61.0,96,96,4.0,90.0
15047,49.0,0,0,7.0,90.0
15048,37.0,0,96,7.0,90.0
15049,37.0,0,160,7.0,90.0
15050,61.0,0,160,4.0,90.0
15051,65.0,0,160,4.0,90.0
15052,68.0,96,160,4.0,90.0
15053,73.0,0,160,4.0,90.0
15054,49.0,0,94,7.0,90.0
15055,42.0,0,94,7.0,90.0
15056,66.0,0,96,4.0,90.0
15057,61.0,192,96,4.0,90.0
15058,73.0,0,96,4.0,90.0
15059,69.0,0,0,4.0,90.0
15060,42.0,0,94,6.0,90.0
15061,49.0,0,94,7.0,90.0
15062,61.0,96,96,4.0,90.0
15063,73.0,0,96,4.0,90.0
15064,50.0,0,94,7.0,90.0
15065,74.0,0,96,4.0,90.0
15066,67.0,96,0,4.0,90.0
15067,62.0,96,96,4.0,90.0
15068,43.0,0,94,7.0,90.0
15069,55.0,0,96,4.0,90.0
15070,71.0,0,94,4.0,90.0
15071,59.0,96,94,4.0,90.0
15072,35.0,0,286,6.0,90.0
15073,47.0,0,94,7.0,90.0
15074,37.0,0,94,6.0,90.0
15075,61.0,0,96,4.0,90.0
15076,49.0,0,96,4.0,90.0
15077,37.0,96,96,7.0,90.0
15078,65.0,96,48,4.0,90.0
15079,53.0,0,48,4.0,90.0
15080,41.0,0,48,7.0,90.0
15081,37.0,0,94,6.0,90.0
15082,66.0,48,48,4.0,90.0
15083,54.0,0,48,4.0,90.0
15084,43.0,0,48,7.0,90.0
15085,42.0,0,94,7.0,90.0
15086,37.0,0,94,7.0,90.0
15087,64.0,0,142,5.0,90.0
15088,54.0,48,142,5.0,90.0
15089,58.0,0,142,5.0,90.0
15090,66.0,0,160,4.0,90.0
15091,30.0,0,96,7.0,90.0
15092,42.0,96,96,7.0,90.0
15093,66.0,48,94,5.0,90.0
15094,34.0,48,96,7.0,90.0
15095,46.0,0,96,7.0,90.0
15096,78.0,0,96,4.0,90.0
15097,66.0,48,94,5.0,90.0
15098,49.0,0,96,7.0,90.0
15099,37.0,48,96,7.0,90.0
15100,66.0,48,94,5.0,90.0
15101,78.0,0,192,4.0,90.0
15102,42.0,0,96,7.0,90.0
15103,30.0,48,96,7.0,90.0
15104,66.0,48,94,5.0,90.0
15105,73.0,48,96,4.0,90.0
15106,34.0,0,96,7.0,90.0
15107,46.0,0,96,7.0,90.0
15108,66.0,48,94,5.0,90.0
15109,35.0,0,96,7.0,90.0
15110,47.0,48,96,7.0,90.0
15111,76.0,0,96,4.0,90.0
15112,66.0,48,94,5.0,90.0
15113,74.0,0,94,4.0,90.0
15114,42.0,48,96,7.0,90.0
15115,30.0,0,96,7.0,90.0
15116,62.0,48,94,5.0,90.0
15117,65.0,0,94,5.0,90.0
15118,68.0,0,94,5.0,90.0
15119,71.0,48,0,4.0,90.0
15120,47.0,0,96,7.0,90.0
15121,35.0,0,96,7.0,90.0
15122,65.0,0,94,5.0,90.0
15123,62.0,48,94,5.0,90.0
15124,68.0,0,94,5.0,90.0
15125,50.0,0,96,7.0,90.0
15126,38.0,0,96,7.0,90.0
15127,62.0,48,94,5.0,90.0
15128,65.0,0,94,5.0,90.0
15129,68.0,0,94,5.0,90.0
15130,42.0,0,96,7.0,90.0
15131,30.0,0,96,7.0,90.0
15132,74.0,48,96,4.0,90.0
15133,65.0,0,94,5.0,90.0
15134,62.0,48,94,5.0,90.0
15135,68.0,0,94,5.0,90.0
15136,62.0,48,46,5.0,90.0
15137,65.0,0,46,5.0,90.0
15138,68.0,0,46,5.0,90.0
15139,47.0,48,96,7.0,90.0
15140,35.0,0,96,7.0,90.0
15141,71.0,0,96,4.0,90.0
15142,70.0,0,30,4.0,90.0
15143,78.0,32,32,4.0,90.0
15144,66.0,0,94,4.0,90.0
15145,37.0,48,94,7.0,90.0
15146,49.0,0,94,7.0,90.0
15147,61.0,0,94,4.0,90.0
15148,73.0,32,32,4.0,90.0
15149,82.0,32,32,4.0,90.0
15150,78.0,32,32,4.0,90.0
15151,42.0,0,96,7.0,90.0
15152,85.0,32,32,4.0,90.0
15153,30.0,0,96,7.0,90.0
15154,78.0,0,32,4.0,90.0
15155,91.0,32,32,4.0,90.0
15156,90.0,32,32,4.0,90.0
15157,46.0,0,96,7.0,90.0
15158,34.0,32,96,7.0,90.0
15159,89.0,0,32,4.0,90.0
15160,90.0,32,32,4.0,90.0
15161,49.0,32,96,7.0,90.0
15162,37.0,0,96,7.0,90.0
15163,88.0,32,64,4.0,90.0
15164,85.0,32,32,4.0,90.0
15165,82.0,32,30,4.0,90.0
15166,30.0,0,96,7.0,90.0
15167,42.0,32,96,7.0,90.0
15168,79.0,0,30,4.0,90.0
15169,78.0,32,30,4.0,90.0
15170,73.0,0,94,4.0,90.0
15171,34.0,32,96,7.0,90.0
15172,46.0,0,96,7.0,90.0
15173,76.0,32,64,4.0,90.0
15174,73.0,32,32,4.0,90.0
15175,35.0,32,96,7.0,90.0
15176,47.0,0,96,7.0,90.0
15177,74.0,32,32,4.0,90.0
15178,83.0,0,32,4.0,90.0
15179,78.0,32,32,4.0,90.0
15180,42.0,0,96,7.0,90.0
15181,30.0,32,96,7.0,90.0
15182,86.0,32,64,4.0,90.0
15183,85.0,32,32,4.0,90.0
15184,47.0,32,96,7.0,90.0
15185,35.0,0,96,7.0,90.0
15186,83.0,0,0,4.0,90.0
15187,50.0,0,30,7.0,90.0
15188,38.0,32,30,7.0,90.0
15189,30.0,32,30,7.0,90.0
15190,35.0,32,30,7.0,90.0
15191,38.0,32,30,7.0,90.0
15192,42.0,32,30,7.0,90.0
15193,47.0,32,30,7.0,90.0
15194,71.0,0,192,4.0,90.0
15195,74.0,0,192,4.0,90.0
15196,77.0,0,192,4.0,90.0
15197,80.0,0,192,4.0,90.0
15198,50.0,32,30,7.0,90.0
15199,42.0,32,30,7.0,90.0
15200,50.0,32,30,7.0,90.0
15201,80.0,0,96,4.0,90.0
15202,83.0,0,96,4.0,90.0
15203,77.0,0,96,4.0,90.0
15204,74.0,0,96,4.0,90.0
15205,71.0,0,96,4.0,90.0
15206,42.0,0,30,7.0,90.0
15207,49.0,32,30,7.0,90.0
15208,42.0,32,30,7.0,90.0
15209,54.0,32,30,7.0,90.0
15210,49.0,32,30,7.0,90.0
15211,54.0,32,30,7.0,90.0
15212,42.0,32,30,7.0,90.0
15213,49.0,32,30,7.0,90.0
15214,42.0,32,30,7.0,90.0
15215,54.0,32,30,7.0,90.0
15216,49.0,32,30,7.0,90.0
15217,54.0,32,30,7.0,90.0
15218,42.0,32,30,7.0,90.0
15219,49.0,32,30,7.0,90.0
15220,78.0,0,448,4.0,90.0
15221,73.0,0,448,4.0,90.0
15222,70.0,32,448,4.0,90.0
15223,82.0,0,448,4.0,90.0
15224,42.0,32,30,7.0,90.0
15225,54.0,0,30,7.0,90.0
15226,49.0,32,30,7.0,90.0
15227,54.0,32,30,7.0,90.0
15228,42.0,32,30,7.0,90.0
15229,49.0,32,30,7.0,90.0
15230,42.0,32,30,7.0,90.0
15231,54.0,32,30,7.0,90.0
15232,49.0,32,30,7.0,90.0
15233,78.0,0,256,4.0,90.0
15234,73.0,0,256,4.0,90.0
15235,70.0,0,256,4.0,90.0
15236,82.0,32,256,4.0,90.0
15237,54.0,32,30,7.0,90.0
15238,42.0,0,30,7.0,90.0
15239,49.0,32,30,7.0,90.0
15240,42.0,32,30,7.0,90.0
15241,54.0,32,30,7.0,90.0
15242,49.0,32,30,7.0,90.0
15243,54.0,32,30,7.0,90.0
15244,42.0,32,30,7.0,90.0
15245,49.0,32,30,7.0,90.0
15246,78.0,0,256,4.0,90.0
15247,90.0,0,256,4.0,90.0
15248,82.0,32,256,4.0,90.0
15249,42.0,32,30,7.0,90.0
15250,54.0,0,30,7.0,90.0
15251,49.0,32,30,7.0,90.0
15252,54.0,32,30,7.0,90.0
15253,42.0,32,30,7.0,90.0
15254,37.0,32,30,7.0,90.0
15255,42.0,32,30,7.0,90.0
15256,78.0,0,190,4.0,90.0
15257,90.0,0,190,4.0,90.0
15258,30.0,32,30,7.0,90.0
15259,37.0,32,30,7.0,90.0
15260,30.0,32,30,7.0,90.0
15261,42.0,32,30,7.0,90.0
15262,37.0,32,30,7.0,90.0
15263,42.0,32,30,7.0,90.0
15264,30.0,32,30,7.0,90.0
15265,37.0,32,30,7.0,90.0
15266,30.0,32,30,7.0,90.0
15267,42.0,32,30,7.0,90.0
15268,37.0,32,30,7.0,90.0
15269,82.0,0,352,4.0,90.0
15270,85.0,0,352,4.0,90.0
15271,94.0,0,352,4.0,90.0
15272,42.0,32,30,7.0,90.0
15273,37.0,32,30,7.0,90.0
15274,42.0,32,30,7.0,90.0
15275,37.0,32,30,7.0,90.0
15276,73.0,0,94,4.0,90.0
15277,49.0,32,96,7.0,90.0
15278,61.0,96,96,7.0,90.0
15279,73.0,0,192,4.0,90.0
15280,57.0,0,96,7.0,90.0
15281,69.0,96,0,4.0,90.0
15282,57.0,0,96,7.0,90.0
15283,54.0,96,96,7.0,90.0
15284,66.0,0,96,4.0,90.0
15285,56.0,0,96,7.0,90.0
15286,53.0,0,96,7.0,90.0
15287,61.0,0,96,4.0,90.0
15288,65.0,0,96,4.0,90.0
15289,68.0,0,96,4.0,90.0
15290,49.0,96,96,7.0,90.0
15291,54.0,0,94,7.0,90.0
15292,57.0,96,94,7.0,90.0
15293,61.0,0,160,4.0,90.0
15294,66.0,0,160,4.0,90.0
15295,69.0,0,160,4.0,90.0
15296,58.0,96,96,4.0,90.0
15297,61.0,0,96,4.0,90.0
15298,66.0,0,96,4.0,90.0
15299,70.0,0,96,4.0,90.0
15300,54.0,0,286,7.0,90.0
15301,42.0,96,286,7.0,90.0
15302,59.0,0,192,4.0,90.0
15303,71.0,0,192,4.0,90.0
15304,66.0,0,0,4.0,90.0
15305,62.0,96,192,4.0,90.0
15306,47.0,96,96,7.0,90.0
15307,35.0,0,96,7.0,90.0
15308,73.0,96,96,4.0,90.0
15309,42.0,0,96,7.0,90.0
15310,30.0,0,96,7.0,90.0
15311,61.0,0,96,4.0,90.0
15312,70.0,0,96,4.0,90.0
15313,74.0,0,94,4.0,90.0
15314,71.0,0,94,4.0,90.0
15315,66.0,0,94,4.0,90.0
15316,62.0,0,94,4.0,90.0
15317,35.0,96,94,7.0,90.0
15318,29.0,96,192,7.0,90.0
15319,41.0,0,192,7.0,90.0
15320,62.0,0,192,4.0,90.0
15321,68.0,0,192,4.0,90.0
15322,71.0,0,192,4.0,90.0
15323,74.0,0,192,4.0,90.0
15324,41.0,192,0,7.0,90.0
15325,29.0,0,0,7.0,90.0
15326,74.0,0,0,4.0,90.0
15327,71.0,0,0,4.0,90.0
15328,68.0,0,192,4.0,90.0
15329,62.0,0,0,4.0,90.0
15330,68.0,0,48,4.0,90.0
15331,42.0,48,0,7.0,90.0
15332,73.0,0,48,4.0,90.0
15333,70.0,0,0,4.0,90.0
15334,61.0,0,48,4.0,90.0
15335,30.0,0,0,7.0,90.0
15336,73.0,0,528,4.0,90.0
15337,61.0,0,528,4.0,90.0
15338,49.0,0,544,7.0,90.0
15339,42.0,288,544,7.0,90.0
15340,70.0,0,528,4.0,90.0
15341,85.0,288,528,4.0,90.0
15342,78.0,0,528,4.0,90.0
15343,85.0,288,256,4.0,90.0
15344,78.0,0,256,4.0,90.0
15345,70.0,0,256,4.0,90.0
15346,37.0,0,544,7.0,90.0
15347,30.0,288,544,7.0,90.0
15348,58.0,288,256,4.0,90.0
15349,46.0,0,256,7.0,90.0
15350,37.0,0,256,7.0,90.0
15351,30.0,0,256,7.0,90.0
15352,66.0,0,256,4.0,90.0
15353,73.0,0,256,4.0,90.0
15354,66.0,48,528,4.0,90.0
15355,73.0,48,480,4.0,90.0
15356,46.0,48,624,7.0,90.0
15357,37.0,48,672,7.0,90.0
15358,30.0,288,720,7.0,90.0
15359,58.0,48,576,4.0,90.0
15360,41.0,912,14,7.0,100.0
15361,53.0,16,14,7.0,100.0
15362,53.0,16,14,4.0,100.0
15363,65.0,16,14,4.0,100.0
15364,65.0,16,14,7.0,100.0
15365,77.0,16,14,7.0,100.0
15366,77.0,0,16,4.0,100.0
15367,89.0,16,440,4.0,100.0
15368,29.0,16,424,7.0,100.0
15369,41.0,0,424,7.0,100.0
15370,77.0,472,70,4.0,100.0
15371,89.0,0,70,4.0,100.0
15372,41.0,0,94,7.0,100.0
15373,53.0,72,94,7.0,100.0
15374,89.0,0,70,4.0,100.0
15375,85.0,0,70,4.0,100.0
15376,80.0,0,70,4.0,100.0
15377,77.0,120,70,4.0,100.0
15378,49.0,72,46,7.0,100.0
15379,37.0,0,46,7.0,100.0
15380,77.0,0,70,4.0,100.0
15381,85.0,120,70,4.0,100.0
15382,82.0,0,70,4.0,100.0
15383,89.0,0,70,4.0,100.0
15384,46.0,0,46,7.0,100.0
15385,34.0,72,46,7.0,100.0
15386,78.0,0,480,4.0,100.0
15387,82.0,0,480,4.0,100.0
15388,85.0,0,480,4.0,100.0
15389,90.0,120,480,4.0,100.0
15390,30.0,0,478,7.0,100.0
15391,42.0,72,478,7.0,100.0
15392,73.0,456,24,4.0,100.0
15393,78.0,24,24,4.0,100.0
15394,73.0,24,24,4.0,100.0
15395,78.0,24,24,4.0,100.0
15396,73.0,24,24,4.0,100.0
15397,78.0,24,24,4.0,100.0
15398,66.0,24,22,4.0,100.0
15399,66.0,24,24,5.0,100.0
15400,71.0,24,24,5.0,100.0
15401,66.0,24,24,5.0,100.0
15402,71.0,24,24,5.0,100.0
15403,66.0,24,24,5.0,100.0
15404,71.0,24,24,5.0,100.0
15405,63.0,24,24,5.0,100.0
15406,75.0,0,0,4.0,100.0
15407,65.0,24,24,5.0,100.0
15408,68.0,24,24,5.0,100.0
15409,53.0,0,24,7.0,100.0
15410,56.0,0,24,7.0,100.0
15411,65.0,0,24,5.0,100.0
15412,68.0,0,24,5.0,100.0
15413,53.0,24,24,7.0,100.0
15414,65.0,0,24,5.0,100.0
15415,56.0,24,24,7.0,100.0
15416,53.0,0,24,7.0,100.0
15417,68.0,24,24,5.0,100.0
15418,73.0,24,96,4.0,100.0
15419,65.0,0,24,5.0,100.0
15420,56.0,24,24,7.0,100.0
15421,68.0,24,24,5.0,100.0
15422,71.0,0,48,4.0,100.0
15423,49.0,0,24,7.0,100.0
15424,66.0,0,0,5.0,100.0
15425,70.0,24,48,4.0,100.0
15426,54.0,0,48,7.0,100.0
15427,75.0,48,48,4.0,100.0
15428,69.0,0,48,4.0,100.0
15429,48.0,0,48,7.0,100.0
15430,49.0,0,48,7.0,100.0
15431,68.0,48,84,4.0,100.0
15432,65.0,0,84,5.0,100.0
15433,42.0,48,46,7.0,100.0
15434,70.0,36,10,4.0,100.0
15435,66.0,0,10,5.0,100.0
15436,78.0,0,46,4.0,100.0
15437,82.0,0,46,4.0,100.0
15438,70.0,12,46,4.0,100.0
15439,73.0,0,46,4.0,100.0
15440,54.0,48,46,7.0,100.0
15441,42.0,0,46,7.0,100.0
15442,78.0,0,70,4.0,100.0
15443,75.0,120,70,4.0,100.0
15444,70.0,0,70,4.0,100.0
15445,82.0,0,70,4.0,100.0
15446,51.0,72,46,7.0,100.0
15447,39.0,0,46,7.0,100.0
15448,47.0,0,360,7.0,100.0
15449,35.0,24,360,7.0,100.0
15450,78.0,0,384,4.0,100.0
15451,75.0,0,384,4.0,100.0
15452,87.0,120,384,4.0,100.0
15453,54.0,408,24,7.0,100.0
15454,56.0,24,24,7.0,100.0
15455,58.0,24,24,7.0,100.0
15456,59.0,24,24,7.0,100.0
15457,61.0,24,24,7.0,100.0
15458,63.0,24,24,7.0,100.0
15459,64.0,24,24,7.0,100.0
15460,63.0,24,24,7.0,100.0
15461,66.0,24,24,4.0,100.0
15462,59.0,0,24,7.0,100.0
15463,66.0,0,24,7.0,100.0
15464,68.0,24,24,4.0,100.0
15465,64.0,24,24,7.0,100.0
15466,70.0,0,24,4.0,100.0
15467,71.0,0,24,4.0,100.0
15468,63.0,24,24,7.0,100.0
15469,61.0,0,24,7.0,100.0
15470,73.0,24,24,4.0,100.0
15471,75.0,0,24,4.0,100.0
15472,59.0,24,24,7.0,100.0
15473,58.0,0,24,7.0,100.0
15474,76.0,24,24,4.0,100.0
15475,59.0,0,22,7.0,100.0
15476,75.0,24,24,4.0,100.0
15477,71.0,0,24,4.0,100.0
15478,54.0,24,24,7.0,100.0
15479,56.0,24,24,7.0,100.0
15480,78.0,0,24,4.0,100.0
15481,76.0,0,24,4.0,100.0
15482,58.0,24,24,7.0,100.0
15483,75.0,24,24,4.0,100.0
15484,59.0,0,24,7.0,100.0
15485,73.0,24,24,4.0,100.0
15486,61.0,0,24,7.0,100.0
15487,71.0,24,24,4.0,100.0
15488,63.0,0,24,7.0,100.0
15489,70.0,0,24,4.0,100.0
15490,64.0,24,24,7.0,100.0
15491,71.0,24,22,4.0,100.0
15492,63.0,0,22,7.0,100.0
15493,78.0,0,24,4.0,100.0
15494,75.0,24,24,7.0,100.0
15495,80.0,24,24,4.0,100.0
15496,78.0,0,24,7.0,100.0
15497,82.0,24,24,4.0,100.0
15498,76.0,0,24,7.0,100.0
15499,83.0,24,24,4.0,100.0
15500,75.0,0,24,7.0,100.0
15501,85.0,0,24,4.0,100.0
15502,73.0,24,24,7.0,100.0
15503,87.0,0,24,4.0,100.0
15504,71.0,24,24,7.0,100.0
15505,70.0,0,24,7.0,100.0
15506,88.0,24,24,4.0,100.0
15507,71.0,24,24,7.0,100.0
15508,87.0,0,24,4.0,100.0
15509,70.0,24,24,7.0,100.0
15510,85.0,0,24,4.0,100.0
15511,75.0,24,24,7.0,100.0
15512,83.0,0,24,4.0,100.0
15513,82.0,24,24,4.0,100.0
15514,73.0,0,24,7.0,100.0
15515,71.0,0,24,7.0,100.0
15516,80.0,24,24,4.0,100.0
15517,70.0,24,24,7.0,100.0
15518,78.0,0,24,4.0,100.0
15519,76.0,24,24,4.0,100.0
15520,68.0,0,24,7.0,100.0
15521,66.0,0,24,7.0,100.0
15522,75.0,24,24,4.0,100.0
15523,64.0,24,24,7.0,100.0
15524,73.0,0,24,4.0,100.0
15525,71.0,24,24,4.0,100.0
15526,63.0,0,24,7.0,100.0
15527,61.0,0,24,7.0,100.0
15528,70.0,24,24,4.0,100.0
15529,59.0,0,24,7.0,100.0
15530,68.0,24,24,4.0,100.0
15531,58.0,24,24,7.0,100.0
15532,66.0,0,24,4.0,100.0
15533,61.0,24,24,7.0,100.0
15534,76.0,0,24,4.0,100.0
15535,59.0,0,24,7.0,100.0
15536,75.0,24,24,4.0,100.0
15537,80.0,0,24,4.0,100.0
15538,64.0,24,24,7.0,100.0
15539,63.0,24,24,7.0,100.0
15540,78.0,0,24,4.0,100.0
15541,83.0,0,24,4.0,100.0
15542,62.0,24,24,7.0,100.0
15543,61.0,24,24,7.0,100.0
15544,82.0,0,24,4.0,100.0
15545,88.0,0,24,4.0,100.0
15546,54.0,24,0,7.0,100.0
15547,61.0,0,70,7.0,100.0
15548,66.0,0,70,7.0,100.0
15549,76.0,0,70,4.0,100.0
15550,82.0,0,70,4.0,100.0
15551,88.0,0,70,4.0,100.0
15552,75.0,0,70,4.0,100.0
15553,78.0,72,70,4.0,100.0
15554,83.0,0,70,4.0,100.0
15555,87.0,0,70,4.0,100.0
15556,47.0,72,46,7.0,100.0
15557,35.0,0,46,7.0,100.0
15558,83.0,0,70,4.0,100.0
15559,80.0,120,70,4.0,100.0
15560,87.0,0,70,4.0,100.0
15561,75.0,0,70,4.0,100.0
15562,75.0,48,46,4.0,100.0
15563,44.0,0,94,6.0,127.0
15564,32.0,0,94,6.0,127.0
15565,44.0,0,94,7.0,127.0
15566,32.0,24,94,7.0,127.0
15567,68.0,48,48,4.0,100.0
15568,75.0,48,48,4.0,100.0
15569,76.0,48,48,4.0,100.0
15570,75.0,48,48,4.0,100.0
15571,68.0,48,48,4.0,100.0
15572,75.0,48,46,4.0,100.0
15573,68.0,48,48,7.0,100.0
15574,61.0,48,48,7.0,100.0
15575,68.0,48,48,7.0,100.0
15576,70.0,48,48,7.0,100.0
15577,68.0,48,48,7.0,100.0
15578,61.0,48,48,7.0,100.0
15579,68.0,48,48,7.0,100.0
15580,76.0,48,430,4.0,100.0
15581,70.0,48,48,4.0,100.0
15582,75.0,48,48,4.0,100.0
15583,74.0,48,48,4.0,100.0
15584,75.0,48,48,4.0,100.0
15585,67.0,48,256,7.0,100.0
15586,70.0,48,48,4.0,100.0
15587,75.0,48,48,4.0,100.0
15588,73.0,48,48,4.0,100.0
15589,72.0,48,48,4.0,100.0
15590,75.0,48,48,4.0,100.0
15591,66.0,48,0,7.0,100.0
15592,72.0,0,48,4.0,100.0
15593,80.0,48,48,4.0,100.0
15594,73.0,0,48,4.0,100.0
15595,64.0,48,96,7.0,100.0
15596,80.0,48,48,4.0,100.0
15597,75.0,0,48,4.0,100.0
15598,80.0,48,48,4.0,100.0
15599,63.0,48,96,7.0,100.0
15600,61.0,48,46,7.0,100.0
15601,56.0,48,48,7.0,100.0
15602,49.0,48,48,7.0,100.0
15603,76.0,0,160,4.0,100.0
15604,56.0,48,48,7.0,100.0
15605,57.0,48,48,7.0,100.0
15606,56.0,48,48,7.0,100.0
15607,49.0,48,48,7.0,100.0
15608,56.0,48,48,7.0,100.0
15609,64.0,0,240,4.0,100.0
15610,61.0,48,48,4.0,100.0
15611,66.0,48,48,4.0,100.0
15612,65.0,48,48,4.0,100.0
15613,66.0,48,48,4.0,100.0
15614,57.0,48,256,7.0,100.0
15615,61.0,48,48,4.0,100.0
15616,66.0,0,48,4.0,100.0
15617,56.0,48,94,7.0,100.0
15618,64.0,48,48,4.0,100.0
15619,58.0,0,48,6.0,100.0
15620,63.0,48,94,4.0,100.0
15621,61.0,48,48,6.0,100.0
15622,58.0,48,48,6.0,100.0
15623,63.0,48,48,6.0,100.0
15624,64.0,48,48,6.0,100.0
15625,75.0,0,192,5.0,100.0
15626,63.0,48,48,6.0,100.0
15627,55.0,0,336,7.0,100.0
15628,58.0,0,48,6.0,100.0
15629,73.0,48,96,5.0,100.0
15630,63.0,48,48,6.0,100.0
15631,71.0,48,46,5.0,100.0
15632,56.0,0,48,6.0,100.0
15633,75.0,48,48,5.0,100.0
15634,59.0,0,48,6.0,100.0
15635,71.0,48,48,5.0,100.0
15636,56.0,0,48,6.0,100.0
15637,75.0,48,48,5.0,100.0
15638,59.0,0,48,6.0,100.0
15639,61.0,0,48,6.0,100.0
15640,76.0,48,48,5.0,100.0
15641,59.0,0,48,6.0,100.0
15642,75.0,48,48,5.0,100.0
15643,56.0,48,48,6.0,100.0
15644,71.0,0,48,5.0,100.0
15645,47.0,0,94,7.0,100.0
15646,59.0,0,48,6.0,100.0
15647,75.0,48,48,5.0,100.0
15648,83.0,0,240,4.0,100.0
15649,52.0,48,94,6.0,100.0
15650,80.0,48,48,4.0,100.0
15651,81.0,0,48,4.0,100.0
15652,76.0,0,160,5.0,100.0
15653,85.0,48,48,4.0,100.0
15654,76.0,0,48,4.0,100.0
15655,49.0,0,256,7.0,100.0
15656,69.0,48,94,5.0,100.0
15657,61.0,48,192,6.0,100.0
15658,81.0,48,48,4.0,100.0
15659,75.0,0,48,4.0,100.0
15660,71.0,0,94,5.0,100.0
15661,51.0,0,94,7.0,100.0
15662,59.0,48,94,6.0,100.0
15663,80.0,48,48,4.0,100.0
15664,75.0,0,48,4.0,100.0
15665,71.0,0,94,5.0,100.0
15666,80.0,48,48,4.0,100.0
15667,59.0,0,96,6.0,100.0
15668,75.0,0,48,4.0,100.0
15669,73.0,48,94,5.0,100.0
15670,58.0,0,96,6.0,100.0
15671,79.0,48,48,4.0,100.0
15672,75.0,0,48,4.0,100.0
15673,51.0,48,256,7.0,100.0
15674,71.0,0,94,5.0,100.0
15675,80.0,48,48,4.0,100.0
15676,56.0,48,96,6.0,100.0
15677,75.0,0,48,4.0,100.0
15678,70.0,48,94,5.0,100.0
15679,55.0,0,94,6.0,100.0
15680,51.0,0,94,7.0,100.0
15681,82.0,48,48,4.0,127.0
15682,71.0,0,70,4.0,100.0
15683,75.0,216,70,4.0,100.0
15684,80.0,0,70,4.0,100.0
15685,83.0,0,70,4.0,100.0
15686,56.0,0,46,7.0,100.0
15687,44.0,72,46,7.0,100.0
15688,71.0,120,70,4.0,100.0
15689,76.0,0,70,4.0,100.0
15690,80.0,0,70,4.0,100.0
15691,83.0,0,70,4.0,100.0
15692,40.0,72,46,7.0,100.0
15693,52.0,0,46,7.0,100.0
15694,73.0,0,70,4.0,100.0
15695,76.0,120,70,4.0,100.0
15696,80.0,0,70,4.0,100.0
15697,85.0,0,70,4.0,100.0
15698,49.0,72,46,7.0,100.0
15699,37.0,0,46,7.0,100.0
15700,33.0,40,14,7.0,100.0
15701,81.0,0,70,4.0,100.0
15702,45.0,16,14,7.0,100.0
15703,85.0,0,70,4.0,100.0
15704,73.0,0,70,4.0,100.0
15705,76.0,120,70,4.0,100.0
15706,45.0,16,16,4.0,100.0
15707,57.0,16,14,4.0,100.0
15708,57.0,16,16,4.0,100.0
15709,69.0,16,14,4.0,100.0
15710,69.0,16,16,4.0,100.0
15711,81.0,16,14,4.0,100.0
15712,33.0,16,14,7.0,100.0
15713,45.0,0,14,7.0,100.0
15714,81.0,16,112,4.0,100.0
15715,93.0,16,96,4.0,100.0
15716,80.0,64,64,4.0,100.0
15717,92.0,0,64,4.0,100.0
15718,76.0,64,64,4.0,100.0
15719,88.0,0,64,4.0,100.0
15720,75.0,64,64,4.0,100.0
15721,87.0,0,64,4.0,100.0
15722,74.0,64,64,4.0,100.0
15723,86.0,0,64,4.0,100.0
15724,71.0,64,62,4.0,100.0
15725,83.0,0,62,4.0,100.0
15726,80.0,64,32,4.0,100.0
15727,76.0,32,32,4.0,100.0
15728,75.0,32,32,4.0,100.0
15729,74.0,32,32,4.0,100.0
15730,71.0,32,32,4.0,100.0
15731,68.0,32,32,4.0,100.0
15732,64.0,32,32,4.0,100.0
15733,63.0,32,32,4.0,100.0
15734,62.0,32,32,4.0,100.0
15735,59.0,32,24,4.0,100.0
15736,56.0,24,24,4.0,100.0
15737,52.0,24,24,4.0,100.0
15738,51.0,24,22,4.0,100.0
15739,50.0,24,24,4.0,100.0
15740,52.0,24,12,4.0,100.0
15741,50.0,12,12,4.0,100.0
15742,52.0,12,12,4.0,100.0
15743,50.0,12,12,4.0,100.0
15744,52.0,12,12,4.0,100.0
15745,50.0,12,12,4.0,100.0
15746,52.0,12,12,4.0,100.0
15747,50.0,12,12,4.0,100.0
15748,52.0,12,12,4.0,100.0
15749,50.0,12,12,4.0,100.0
15750,52.0,12,12,4.0,100.0
15751,50.0,12,12,4.0,100.0
15752,52.0,12,12,4.0,100.0
15753,50.0,12,12,4.0,100.0
15754,52.0,12,12,4.0,100.0
15755,50.0,12,12,4.0,100.0
15756,52.0,12,12,4.0,100.0
15757,50.0,12,12,4.0,100.0
15758,52.0,12,12,4.0,100.0
15759,50.0,12,12,4.0,100.0
15760,52.0,12,12,4.0,100.0
15761,50.0,12,12,4.0,100.0
15762,51.0,12,24,4.0,100.0
15763,52.0,24,12,4.0,100.0
15764,51.0,12,12,4.0,100.0
15765,52.0,12,12,4.0,100.0
15766,51.0,12,12,4.0,100.0
15767,52.0,12,12,4.0,100.0
15768,51.0,12,12,4.0,100.0
15769,52.0,12,12,4.0,100.0
15770,51.0,12,12,4.0,100.0
15771,52.0,12,12,4.0,100.0
15772,51.0,12,12,4.0,100.0
15773,52.0,12,12,4.0,100.0
15774,51.0,12,12,4.0,100.0
15775,52.0,12,12,4.0,100.0
15776,51.0,12,12,4.0,100.0
15777,52.0,12,24,4.0,127.0
15778,54.0,24,12,4.0,100.0
15779,52.0,12,12,4.0,100.0
15780,54.0,12,12,4.0,100.0
15781,52.0,12,12,4.0,100.0
15782,54.0,12,12,4.0,100.0
15783,52.0,12,12,4.0,100.0
15784,54.0,12,12,4.0,100.0
15785,52.0,12,12,4.0,100.0
15786,54.0,12,12,4.0,100.0
15787,52.0,12,12,4.0,100.0
15788,54.0,12,12,4.0,100.0
15789,47.0,16,1414,7.0,100.0
15790,40.0,0,1414,7.0,100.0
15791,38.0,0,1414,7.0,100.0
15792,33.0,0,1414,7.0,100.0
15793,52.0,12,12,4.0,100.0
15794,54.0,12,12,4.0,100.0
15795,52.0,12,12,4.0,100.0
15796,54.0,12,12,4.0,100.0
15797,52.0,12,12,4.0,100.0
15798,54.0,12,12,4.0,100.0
15799,52.0,12,12,4.0,100.0
15800,54.0,12,12,4.0,100.0
15801,52.0,12,12,4.0,100.0
15802,54.0,12,12,4.0,100.0
15803,52.0,12,12,4.0,100.0
15804,54.0,12,12,4.0,100.0
15805,52.0,12,12,4.0,100.0
15806,54.0,12,12,4.0,100.0
15807,52.0,12,12,4.0,100.0
15808,54.0,12,12,4.0,100.0
15809,52.0,12,12,4.0,100.0
15810,54.0,12,12,4.0,100.0
15811,52.0,12,12,4.0,100.0
15812,51.0,12,36,4.0,100.0
15813,52.0,36,22,4.0,100.0
15814,33.0,48,46,7.0,100.0
15815,45.0,0,46,7.0,100.0
15816,49.0,60,96,4.0,100.0
15817,52.0,0,96,4.0,100.0
15818,49.0,48,22,4.0,100.0
15819,52.0,0,22,4.0,100.0
15820,33.0,36,22,7.0,100.0
15821,45.0,0,22,7.0,100.0
15822,49.0,12,48,4.0,100.0
15823,52.0,0,48,4.0,100.0
15824,33.0,0,46,7.0,100.0
15825,45.0,48,46,7.0,100.0
15826,52.0,0,96,4.0,100.0
15827,49.0,48,96,4.0,100.0
15828,57.0,48,22,4.0,100.0
15829,49.0,0,22,4.0,100.0
15830,30.0,36,22,7.0,100.0
15831,42.0,0,22,7.0,100.0
15832,57.0,48,0,4.0,100.0
15833,54.0,0,0,4.0,100.0
15834,49.0,12,48,4.0,100.0
15835,38.0,48,46,7.0,100.0
15836,50.0,0,46,7.0,100.0
15837,57.0,48,0,4.0,100.0
15838,54.0,0,22,4.0,100.0
15839,50.0,36,22,7.0,100.0
15840,38.0,0,22,7.0,100.0
15841,54.0,0,0,4.0,100.0
15842,57.0,48,0,4.0,100.0
15843,38.0,48,46,7.0,100.0
15844,50.0,0,46,7.0,100.0
15845,54.0,0,0,4.0,100.0
15846,62.0,48,22,4.0,100.0
15847,47.0,0,22,7.0,100.0
15848,35.0,36,22,7.0,100.0
15849,54.0,0,48,4.0,100.0
15850,59.0,12,48,4.0,100.0
15851,62.0,0,48,4.0,100.0
15852,55.0,48,46,7.0,100.0
15853,43.0,0,46,7.0,100.0
15854,62.0,0,96,4.0,100.0
15855,59.0,48,0,4.0,100.0
15856,62.0,0,22,4.0,100.0
15857,55.0,0,22,7.0,100.0
15858,43.0,36,22,7.0,100.0
15859,59.0,0,48,4.0,100.0
15860,62.0,48,0,4.0,100.0
15861,55.0,48,46,7.0,100.0
15862,43.0,0,46,7.0,100.0
15863,59.0,0,0,4.0,100.0
15864,67.0,48,22,4.0,100.0
15865,52.0,0,22,7.0,100.0
15866,40.0,36,22,7.0,100.0
15867,67.0,48,0,4.0,100.0
15868,59.0,12,48,4.0,100.0
15869,60.0,48,46,7.0,100.0
15870,48.0,0,46,7.0,100.0
15871,64.0,0,0,4.0,100.0
15872,67.0,48,22,4.0,100.0
15873,48.0,36,22,7.0,100.0
15874,60.0,0,22,7.0,100.0
15875,67.0,12,48,4.0,100.0
15876,64.0,48,0,4.0,100.0
15877,57.0,48,46,7.0,100.0
15878,45.0,0,46,7.0,100.0
15879,72.0,0,96,4.0,100.0
15880,64.0,48,22,4.0,100.0
15881,72.0,0,22,4.0,100.0
15882,45.0,36,22,7.0,100.0
15883,57.0,0,22,7.0,100.0
15884,64.0,12,48,4.0,100.0
15885,72.0,0,48,4.0,100.0
15886,53.0,48,46,7.0,100.0
15887,41.0,0,46,7.0,100.0
15888,72.0,48,0,4.0,100.0
15889,69.0,0,0,4.0,100.0
15890,41.0,0,22,7.0,100.0
15891,53.0,24,22,7.0,100.0
15892,69.0,24,48,4.0,127.0
15893,72.0,0,48,4.0,127.0
15894,38.0,48,46,7.0,127.0
15895,50.0,0,46,7.0,127.0
15896,69.0,0,96,4.0,127.0
15897,77.0,48,96,4.0,127.0
15898,77.0,0,22,4.0,127.0
15899,69.0,48,22,4.0,127.0
15900,74.0,0,22,4.0,127.0
15901,38.0,24,22,7.0,127.0
15902,50.0,0,22,7.0,127.0
15903,69.0,0,34,4.0,127.0
15904,74.0,24,34,4.0,127.0
15905,77.0,0,34,4.0,127.0
15906,40.0,0,46,6.0,127.0
15907,37.0,0,46,7.0,127.0
15908,40.0,0,46,7.0,127.0
15909,37.0,0,46,6.0,127.0
15910,45.0,0,46,7.0,127.0
15911,45.0,0,46,6.0,127.0
15912,33.0,48,46,7.0,127.0
15913,33.0,0,46,6.0,127.0
15914,81.0,0,96,4.0,127.0
15915,76.0,0,96,4.0,127.0
15916,73.0,0,96,4.0,127.0
15917,69.0,0,0,4.0,100.0
15918,69.0,0,96,5.0,100.0
15919,73.0,0,0,5.0,100.0
15920,76.0,0,0,5.0,100.0
15921,81.0,48,0,5.0,100.0
15922,73.0,0,22,4.0,100.0
15923,81.0,0,22,4.0,100.0
15924,69.0,0,22,5.0,100.0
15925,76.0,0,22,4.0,100.0
15926,40.0,0,22,6.0,100.0
15927,37.0,0,22,6.0,100.0
15928,33.0,0,22,6.0,100.0
15929,33.0,0,22,7.0,100.0
15930,37.0,24,22,7.0,100.0
15931,40.0,0,22,7.0,100.0
15932,45.0,0,22,7.0,100.0
15933,45.0,0,22,6.0,100.0
15934,69.0,0,48,4.0,100.0
15935,73.0,24,48,4.0,100.0
15936,76.0,0,48,4.0,100.0
15937,81.0,0,48,4.0,100.0
15938,81.0,0,0,5.0,100.0
15939,69.0,0,0,5.0,100.0
15940,73.0,0,0,5.0,100.0
15941,76.0,0,0,5.0,100.0
15942,37.0,0,46,6.0,100.0
15943,33.0,0,46,6.0,100.0
15944,45.0,0,46,7.0,100.0
15945,40.0,48,46,7.0,100.0
15946,37.0,0,46,7.0,100.0
15947,33.0,0,46,7.0,100.0
15948,40.0,0,46,6.0,100.0
15949,45.0,0,46,6.0,100.0
15950,81.0,48,0,5.0,100.0
15951,76.0,0,0,5.0,100.0
15952,73.0,0,0,5.0,100.0
15953,69.0,0,0,5.0,100.0
15954,81.0,0,0,4.0,100.0
15955,76.0,0,0,4.0,100.0
15956,73.0,0,0,4.0,100.0
15957,69.0,0,0,4.0,100.0
15958,33.0,0,22,7.0,100.0
15959,40.0,0,22,7.0,100.0
15960,45.0,0,22,7.0,100.0
15961,45.0,24,22,6.0,100.0
15962,40.0,0,22,6.0,100.0
15963,37.0,0,22,6.0,100.0
15964,33.0,0,22,6.0,100.0
15965,37.0,0,22,7.0,100.0
15966,81.0,48,0,4.0,100.0
15967,76.0,0,0,4.0,100.0
15968,73.0,0,0,4.0,100.0
15969,69.0,0,0,4.0,100.0
15970,81.0,0,48,5.0,100.0
15971,76.0,0,48,5.0,100.0
15972,73.0,0,48,5.0,100.0
15973,69.0,0,48,5.0,100.0
15974,33.0,0,46,7.0,127.0
15975,37.0,48,46,7.0,127.0
15976,40.0,0,46,7.0,127.0
15977,45.0,0,46,7.0,127.0
15978,73.0,0,48,4.0,100.0
15979,69.0,48,22,4.0,100.0
15980,81.0,0,22,4.0,100.0
15981,33.0,0,22,7.0,100.0
15982,45.0,24,22,7.0,100.0
15983,69.0,0,0,4.0,100.0
15984,81.0,48,0,4.0,100.0
15985,33.0,48,46,7.0,100.0
15986,45.0,0,46,7.0,100.0
15987,81.0,0,22,4.0,100.0
15988,69.0,48,22,4.0,100.0
15989,33.0,24,22,7.0,100.0
15990,45.0,0,22,7.0,100.0
15991,69.0,48,0,4.0,100.0
15992,81.0,0,0,4.0,100.0
15993,33.0,48,46,7.0,100.0
15994,45.0,0,46,7.0,100.0
15995,69.0,48,0,4.0,100.0
15996,81.0,0,22,4.0,100.0
15997,33.0,24,22,7.0,100.0
15998,45.0,0,22,7.0,100.0
15999,81.0,24,48,4.0,100.0
16000,69.0,0,48,4.0,100.0
16001,29.0,48,46,7.0,100.0
16002,41.0,0,46,7.0,100.0
16003,81.0,48,0,4.0,100.0
16004,69.0,48,96,4.0,100.0
16005,69.0,0,22,4.0,100.0
16006,29.0,24,22,7.0,100.0
16007,41.0,0,22,7.0,100.0
16008,69.0,0,48,4.0,100.0
16009,81.0,24,48,4.0,100.0
16010,81.0,0,72,4.0,100.0
16011,41.0,0,94,7.0,127.0
16012,29.0,48,94,7.0,127.0
16013,82.0,72,24,4.0,100.0
16014,81.0,24,24,4.0,100.0
16015,82.0,24,24,4.0,100.0
16016,81.0,24,24,4.0,100.0
16017,82.0,24,24,4.0,100.0
16018,81.0,24,24,4.0,100.0
16019,82.0,24,24,4.0,100.0
16020,81.0,24,24,4.0,100.0
16021,53.0,0,94,7.0,127.0
16022,57.0,0,94,7.0,127.0
16023,82.0,24,24,4.0,100.0
16024,81.0,24,24,4.0,100.0
16025,82.0,24,24,4.0,100.0
16026,81.0,24,24,4.0,100.0
16027,82.0,24,24,4.0,100.0
16028,81.0,24,24,4.0,100.0
16029,82.0,24,24,4.0,100.0
16030,81.0,24,24,4.0,100.0
16031,82.0,24,24,4.0,100.0
16032,81.0,24,24,4.0,100.0
16033,82.0,24,24,4.0,100.0
16034,81.0,24,24,4.0,100.0
16035,82.0,24,24,4.0,100.0
16036,81.0,0,24,4.0,100.0
16037,82.0,24,24,4.0,100.0
16038,81.0,24,24,4.0,100.0
16039,41.0,24,94,7.0,127.0
16040,29.0,0,94,7.0,127.0
16041,82.0,24,24,4.0,100.0
16042,81.0,24,24,4.0,100.0
16043,82.0,24,24,4.0,100.0
16044,81.0,24,24,4.0,100.0
16045,82.0,24,22,4.0,100.0
16046,84.0,0,48,4.0,100.0
16047,86.0,48,24,4.0,100.0
16048,60.0,24,94,7.0,127.0
16049,57.0,0,94,7.0,127.0
16050,84.0,24,24,4.0,100.0
16051,86.0,24,24,4.0,100.0
16052,84.0,24,24,4.0,100.0
16053,86.0,24,24,4.0,100.0
16054,84.0,24,24,4.0,100.0
16055,86.0,24,24,4.0,100.0
16056,84.0,24,24,4.0,100.0
16057,86.0,24,24,4.0,100.0
16058,84.0,24,24,4.0,100.0
16059,86.0,24,24,4.0,100.0
16060,84.0,24,24,4.0,100.0
16061,86.0,24,24,4.0,100.0
16062,84.0,24,24,4.0,100.0
16063,86.0,0,24,4.0,100.0
16064,84.0,24,24,4.0,100.0
16065,86.0,24,24,4.0,100.0
16066,29.0,0,94,7.0,127.0
16067,41.0,24,94,7.0,127.0
16068,84.0,24,24,4.0,100.0
16069,86.0,24,24,4.0,100.0
16070,84.0,24,24,4.0,100.0
16071,86.0,24,24,4.0,100.0
16072,84.0,24,22,4.0,100.0
16073,89.0,24,48,4.0,100.0
16074,91.0,48,24,4.0,100.0
16075,60.0,0,94,7.0,127.0
16076,65.0,0,94,7.0,127.0
16077,53.0,0,94,7.0,127.0
16078,57.0,0,94,7.0,127.0
16079,89.0,24,24,4.0,100.0
16080,91.0,24,24,4.0,100.0
16081,89.0,24,24,4.0,100.0
16082,91.0,24,24,4.0,100.0
16083,89.0,24,24,4.0,100.0
16084,91.0,24,24,4.0,100.0
16085,89.0,24,24,4.0,100.0
16086,91.0,24,24,4.0,100.0
16087,29.0,0,94,7.0,127.0
16088,41.0,0,94,7.0,127.0
16089,89.0,24,24,4.0,100.0
16090,91.0,24,24,4.0,100.0
16091,89.0,24,24,4.0,100.0
16092,91.0,24,24,4.0,100.0
16093,89.0,24,72,4.0,100.0
16094,60.0,24,94,7.0,127.0
16095,57.0,0,94,7.0,127.0
16096,65.0,0,94,7.0,127.0
16097,53.0,0,94,7.0,127.0
16098,87.0,48,48,4.0,100.0
16099,86.0,48,48,4.0,100.0
16100,84.0,48,48,4.0,100.0
16101,82.0,48,48,4.0,100.0
16102,81.0,48,48,4.0,100.0
16103,79.0,48,48,4.0,100.0
16104,77.0,48,48,4.0,100.0
16105,75.0,48,48,4.0,100.0
16106,74.0,48,48,4.0,100.0
16107,41.0,0,288,6.0,127.0
16108,29.0,0,288,6.0,127.0
16109,41.0,0,288,7.0,127.0
16110,29.0,0,288,7.0,127.0
16111,43.0,0,48,7.0,100.0
16112,72.0,0,48,4.0,100.0
16113,43.0,48,48,6.0,100.0
16114,45.0,0,48,6.0,100.0
16115,77.0,0,48,4.0,100.0
16116,45.0,48,48,7.0,100.0
16117,41.0,0,94,6.0,100.0
16118,38.0,0,94,6.0,100.0
16119,34.0,48,94,6.0,100.0
16120,62.0,0,94,4.0,100.0
16121,58.0,0,94,4.0,100.0
16122,46.0,0,94,6.0,100.0
16123,46.0,0,94,7.0,100.0
16124,41.0,0,94,7.0,100.0
16125,38.0,0,94,7.0,100.0
16126,70.0,0,94,4.0,100.0
16127,65.0,0,94,4.0,100.0
16128,34.0,0,94,7.0,100.0
16129,67.0,288,48,4.0,100.0
16130,65.0,48,48,4.0,100.0
16131,63.0,48,48,4.0,100.0
16132,62.0,48,48,4.0,100.0
16133,60.0,48,48,4.0,100.0
16134,58.0,48,48,4.0,100.0
16135,57.0,48,48,4.0,100.0
16136,53.0,0,94,6.0,100.0
16137,58.0,48,48,4.0,100.0
16138,57.0,48,48,4.0,100.0
16139,55.0,48,48,4.0,100.0
16140,53.0,48,48,4.0,100.0
16141,69.0,0,72,6.0,100.0
16142,55.0,48,48,4.0,100.0
16143,70.0,24,24,6.0,100.0
16144,69.0,0,24,6.0,100.0
16145,53.0,24,48,4.0,100.0
16146,70.0,24,24,6.0,100.0
16147,69.0,24,24,6.0,100.0
16148,70.0,24,24,6.0,100.0
16149,51.0,0,48,4.0,100.0
16150,69.0,24,24,6.0,100.0
16151,50.0,0,48,4.0,100.0
16152,70.0,24,24,6.0,100.0
16153,69.0,0,24,6.0,100.0
16154,51.0,24,48,4.0,100.0
16155,70.0,24,24,6.0,100.0
16156,69.0,0,24,6.0,100.0
16157,50.0,24,48,4.0,100.0
16158,67.0,24,36,6.0,100.0
16159,69.0,12,36,6.0,100.0
16160,48.0,24,48,4.0,100.0
16161,70.0,36,160,6.0,100.0
16162,46.0,0,160,4.0,100.0
16163,70.0,288,48,6.0,100.0
16164,69.0,48,48,6.0,100.0
16165,67.0,48,48,6.0,100.0
16166,65.0,48,48,6.0,100.0
16167,63.0,48,48,6.0,100.0
16168,62.0,48,48,6.0,100.0
16169,67.0,48,160,6.0,100.0
16170,67.0,288,48,6.0,100.0
16171,65.0,48,48,6.0,100.0
16172,63.0,48,48,6.0,100.0
16173,62.0,48,48,6.0,100.0
16174,60.0,48,48,6.0,100.0
16175,58.0,48,48,6.0,100.0
16176,63.0,48,160,6.0,100.0
16177,63.0,288,46,6.0,100.0
16178,62.0,48,46,6.0,100.0
16179,60.0,48,46,6.0,100.0
16180,62.0,48,46,6.0,100.0
16181,60.0,48,46,6.0,100.0
16182,58.0,48,46,6.0,100.0
16183,57.0,48,46,6.0,100.0
16184,58.0,48,46,6.0,100.0
16185,57.0,48,46,6.0,100.0
16186,55.0,48,46,6.0,100.0
16187,53.0,48,46,6.0,100.0
16188,55.0,48,46,6.0,100.0
16189,57.0,48,46,6.0,100.0
16190,58.0,48,46,6.0,100.0
16191,59.0,48,46,6.0,100.0
16192,60.0,48,46,6.0,100.0
16193,62.0,48,46,6.0,100.0
16194,60.0,48,46,6.0,100.0
16195,58.0,48,46,6.0,100.0
16196,60.0,48,46,6.0,100.0
16197,62.0,48,46,6.0,100.0
16198,63.0,48,46,6.0,100.0
16199,64.0,48,46,6.0,100.0
16200,65.0,48,46,6.0,100.0
16201,67.0,48,46,6.0,100.0
16202,65.0,48,46,6.0,100.0
16203,63.0,48,46,6.0,100.0
16204,62.0,48,46,6.0,100.0
16205,60.0,48,46,6.0,100.0
16206,58.0,48,46,6.0,100.0
16207,57.0,48,46,6.0,100.0
16208,58.0,48,46,6.0,100.0
16209,57.0,48,46,6.0,100.0
16210,55.0,48,46,6.0,100.0
16211,53.0,48,46,6.0,100.0
16212,55.0,48,46,6.0,100.0
16213,57.0,48,46,6.0,100.0
16214,58.0,48,46,6.0,100.0
16215,59.0,48,46,6.0,100.0
16216,60.0,48,46,6.0,100.0
16217,62.0,48,46,6.0,100.0
16218,60.0,48,46,6.0,100.0
16219,58.0,48,46,6.0,100.0
16220,60.0,48,46,6.0,100.0
16221,62.0,48,46,6.0,100.0
16222,63.0,48,46,6.0,100.0
16223,64.0,48,46,6.0,100.0
16224,65.0,48,46,6.0,100.0
16225,67.0,48,46,6.0,100.0
16226,65.0,48,46,6.0,100.0
16227,58.0,48,46,6.0,100.0
16228,66.0,48,46,6.0,100.0
16229,67.0,48,46,6.0,100.0
16230,66.0,48,46,6.0,100.0
16231,58.0,48,46,6.0,100.0
16232,67.0,48,46,6.0,100.0
16233,69.0,48,46,6.0,100.0
16234,67.0,48,46,6.0,100.0
16235,66.0,48,46,6.0,100.0
16236,67.0,48,46,6.0,100.0
16237,69.0,48,46,6.0,100.0
16238,67.0,48,46,6.0,100.0
16239,64.0,48,46,6.0,100.0
16240,65.0,48,46,6.0,100.0
16241,67.0,48,46,6.0,100.0
16242,65.0,48,46,6.0,100.0
16243,64.0,48,46,6.0,100.0
16244,65.0,48,46,6.0,100.0
16245,67.0,48,46,6.0,100.0
16246,65.0,48,46,6.0,100.0
16247,62.0,48,46,6.0,100.0
16248,63.0,48,46,6.0,100.0
16249,65.0,48,46,6.0,100.0
16250,63.0,48,46,6.0,100.0
16251,61.0,48,46,6.0,100.0
16252,62.0,48,46,6.0,100.0
16253,63.0,48,46,6.0,100.0
16254,62.0,48,46,6.0,100.0
16255,61.0,48,46,6.0,100.0
16256,62.0,48,46,6.0,100.0
16257,58.0,0,94,4.0,100.0
16258,63.0,48,46,6.0,100.0
16259,62.0,48,46,6.0,100.0
16260,59.0,48,46,6.0,100.0
16261,76.0,0,72,4.0,127.0
16262,60.0,48,46,6.0,100.0
16263,77.0,24,24,4.0,100.0
16264,76.0,24,24,4.0,100.0
16265,62.0,0,46,6.0,100.0
16266,77.0,24,24,4.0,100.0
16267,76.0,0,24,4.0,100.0
16268,60.0,24,46,6.0,100.0
16269,77.0,24,24,4.0,100.0
16270,76.0,0,24,4.0,100.0
16271,57.0,24,46,6.0,100.0
16272,77.0,24,24,4.0,100.0
16273,76.0,0,24,4.0,100.0
16274,58.0,24,46,6.0,100.0
16275,77.0,24,24,4.0,100.0
16276,76.0,24,24,4.0,100.0
16277,60.0,0,46,6.0,100.0
16278,74.0,24,36,4.0,100.0
16279,58.0,24,46,6.0,100.0
16280,76.0,12,36,4.0,100.0
16281,77.0,36,160,4.0,100.0
16282,57.0,96,94,6.0,100.0
16283,77.0,96,48,4.0,100.0
16284,76.0,48,48,4.0,100.0
16285,74.0,48,48,4.0,100.0
16286,69.0,96,256,6.0,127.0
16287,72.0,48,48,4.0,100.0
16288,70.0,48,48,4.0,100.0
16289,69.0,48,48,4.0,100.0
16290,74.0,48,160,4.0,100.0
16291,53.0,96,94,6.0,100.0
16292,74.0,96,48,4.0,100.0
16293,72.0,48,48,4.0,100.0
16294,70.0,48,48,4.0,100.0
16295,65.0,96,256,6.0,127.0
16296,69.0,48,48,4.0,100.0
16297,67.0,48,48,4.0,100.0
16298,65.0,48,48,4.0,100.0
16299,70.0,48,160,4.0,100.0
16300,50.0,96,94,6.0,100.0
16301,62.0,96,96,6.0,100.0
16302,70.0,96,46,4.0,100.0
16303,69.0,48,46,4.0,100.0
16304,60.0,0,96,6.0,100.0
16305,67.0,0,46,4.0,100.0
16306,69.0,48,46,4.0,100.0
16307,58.0,48,96,6.0,100.0
16308,67.0,0,46,4.0,100.0
16309,65.0,48,46,4.0,100.0
16310,59.0,48,96,6.0,100.0
16311,64.0,48,46,4.0,100.0
16312,60.0,0,94,6.0,100.0
16313,65.0,48,46,4.0,100.0
16314,64.0,48,46,4.0,100.0
16315,62.0,48,46,4.0,100.0
16316,60.0,0,46,4.0,100.0
16317,62.0,48,46,4.0,100.0
16318,64.0,48,46,4.0,100.0
16319,65.0,48,46,4.0,100.0
16320,66.0,48,46,4.0,100.0
16321,58.0,48,256,6.0,100.0
16322,67.0,48,46,4.0,100.0
16323,69.0,0,46,4.0,100.0
16324,58.0,48,94,6.0,100.0
16325,67.0,48,46,4.0,100.0
16326,65.0,0,46,4.0,100.0
16327,67.0,48,46,4.0,100.0
16328,58.0,48,96,6.0,100.0
16329,69.0,0,46,4.0,100.0
16330,70.0,48,46,4.0,100.0
16331,57.0,48,96,6.0,100.0
16332,71.0,0,46,4.0,100.0
16333,72.0,48,46,4.0,100.0
16334,55.0,48,96,6.0,100.0
16335,74.0,48,46,4.0,100.0
16336,72.0,48,46,4.0,100.0
16337,53.0,0,96,6.0,100.0
16338,70.0,48,46,4.0,100.0
16339,69.0,48,46,4.0,100.0
16340,52.0,0,96,6.0,100.0
16341,67.0,48,46,4.0,100.0
16342,65.0,48,46,4.0,100.0
16343,53.0,0,96,6.0,100.0
16344,64.0,0,46,4.0,100.0
16345,65.0,48,46,4.0,100.0
16346,60.0,48,94,6.0,100.0
16347,64.0,48,46,4.0,100.0
16348,62.0,48,46,4.0,100.0
16349,60.0,48,46,4.0,100.0
16350,62.0,48,46,4.0,100.0
16351,64.0,48,46,4.0,100.0
16352,65.0,48,46,4.0,100.0
16353,66.0,48,46,4.0,100.0
16354,67.0,48,46,4.0,100.0
16355,58.0,0,288,6.0,100.0
16356,69.0,48,46,4.0,100.0
16357,65.0,48,46,4.0,100.0
16358,57.0,0,96,6.0,100.0
16359,64.0,48,46,4.0,100.0
16360,65.0,48,46,4.0,100.0
16361,62.0,0,94,6.0,100.0
16362,72.0,48,46,4.0,100.0
16363,70.0,48,46,4.0,100.0
16364,69.0,48,46,4.0,100.0
16365,70.0,48,46,4.0,100.0
16366,72.0,48,46,4.0,100.0
16367,70.0,48,46,4.0,100.0
16368,68.0,48,46,4.0,100.0
16369,69.0,48,46,4.0,100.0
16370,61.0,0,288,6.0,100.0
16371,70.0,48,46,4.0,100.0
16372,69.0,48,46,4.0,100.0
16373,60.0,0,96,6.0,100.0
16374,67.0,0,46,4.0,100.0
16375,65.0,48,94,6.0,100.0
16376,68.0,48,46,4.0,100.0
16377,75.0,48,46,4.0,100.0
16378,74.0,48,46,4.0,100.0
16379,72.0,0,46,4.0,100.0
16380,73.0,48,46,4.0,100.0
16381,74.0,48,46,4.0,100.0
16382,73.0,48,46,4.0,100.0
16383,71.0,48,46,4.0,100.0
16384,72.0,48,46,4.0,100.0
16385,64.0,48,288,6.0,100.0
16386,74.0,0,46,4.0,100.0
16387,63.0,48,94,6.0,100.0
16388,72.0,48,46,4.0,100.0
16389,68.0,0,46,4.0,127.0
16390,69.0,48,46,4.0,100.0
16391,41.0,0,94,6.0,127.0
16392,70.0,48,46,4.0,100.0
16393,69.0,48,46,4.0,100.0
16394,64.0,48,46,4.0,100.0
16395,57.0,0,72,6.0,127.0
16396,65.0,48,46,4.0,100.0
16397,58.0,24,24,6.0,100.0
16398,57.0,24,24,6.0,100.0
16399,67.0,0,46,4.0,100.0
16400,58.0,24,24,6.0,100.0
16401,63.0,48,336,5.0,127.0
16402,57.0,24,24,6.0,100.0
16403,65.0,0,46,4.0,100.0
16404,58.0,24,24,6.0,100.0
16405,57.0,0,24,6.0,100.0
16406,71.0,0,46,4.0,100.0
16407,58.0,24,24,6.0,100.0
16408,57.0,0,24,6.0,100.0
16409,72.0,24,46,4.0,100.0
16410,58.0,24,24,6.0,100.0
16411,57.0,0,24,6.0,100.0
16412,74.0,24,46,4.0,100.0
16413,55.0,24,36,6.0,100.0
16414,72.0,24,46,4.0,100.0
16415,57.0,12,36,6.0,100.0
16416,65.0,24,286,5.0,100.0
16417,58.0,36,160,6.0,100.0
16418,62.0,96,94,4.0,100.0
16419,58.0,96,48,6.0,100.0
16420,69.0,0,94,5.0,100.0
16421,57.0,48,48,6.0,100.0
16422,55.0,48,48,6.0,100.0
16423,74.0,96,256,4.0,127.0
16424,53.0,48,48,6.0,100.0
16425,51.0,48,48,6.0,100.0
16426,70.0,0,160,5.0,100.0
16427,50.0,48,48,6.0,100.0
16428,55.0,48,160,6.0,100.0
16429,58.0,96,94,4.0,100.0
16430,55.0,96,48,6.0,100.0
16431,66.0,0,94,5.0,100.0
16432,53.0,48,48,6.0,100.0
16433,51.0,48,48,6.0,100.0
16434,70.0,96,256,4.0,127.0
16435,50.0,48,48,6.0,100.0
16436,48.0,48,48,6.0,100.0
16437,67.0,0,160,5.0,100.0
16438,46.0,48,48,6.0,100.0
16439,51.0,48,160,6.0,100.0
16440,67.0,96,94,4.0,100.0
16441,79.0,96,96,4.0,100.0
16442,51.0,96,46,6.0,100.0
16443,50.0,48,46,6.0,100.0
16444,77.0,0,96,4.0,100.0
16445,71.0,0,96,5.0,100.0
16446,48.0,48,46,6.0,100.0
16447,50.0,48,46,6.0,100.0
16448,72.0,0,96,5.0,100.0
16449,75.0,0,96,4.0,100.0
16450,48.0,0,46,6.0,100.0
16451,46.0,48,46,6.0,100.0
16452,67.0,48,96,5.0,100.0
16453,76.0,0,96,4.0,100.0
16454,45.0,0,46,6.0,100.0
16455,46.0,48,46,6.0,100.0
16456,77.0,0,94,4.0,100.0
16457,72.0,48,96,5.0,100.0
16458,45.0,0,46,6.0,100.0
16459,65.0,48,94,5.0,100.0
16460,43.0,48,46,6.0,100.0
16461,41.0,0,46,6.0,100.0
16462,43.0,48,46,6.0,100.0
16463,72.0,48,94,5.0,100.0
16464,45.0,48,46,6.0,100.0
16465,66.0,0,94,5.0,100.0
16466,46.0,48,46,6.0,100.0
16467,47.0,48,46,6.0,100.0
16468,75.0,0,256,4.0,127.0
16469,48.0,48,46,6.0,100.0
16470,50.0,0,46,6.0,100.0
16471,48.0,48,46,6.0,100.0
16472,75.0,48,94,4.0,100.0
16473,46.0,0,46,6.0,100.0
16474,48.0,48,46,6.0,100.0
16475,65.0,0,288,5.0,100.0
16476,75.0,48,96,4.0,100.0
16477,50.0,0,46,6.0,100.0
16478,51.0,48,46,6.0,100.0
16479,74.0,48,96,4.0,100.0
16480,65.0,0,96,5.0,100.0
16481,52.0,0,46,6.0,100.0
16482,53.0,48,46,6.0,100.0
16483,63.0,0,96,5.0,100.0
16484,72.0,48,96,4.0,100.0
16485,55.0,0,46,6.0,100.0
16486,53.0,48,46,6.0,100.0
16487,70.0,0,96,4.0,100.0
16488,62.0,48,96,5.0,100.0
16489,51.0,0,46,6.0,100.0
16490,50.0,48,46,6.0,100.0
16491,69.0,48,96,4.0,100.0
16492,60.0,0,96,5.0,100.0
16493,48.0,0,46,6.0,100.0
16494,46.0,48,46,6.0,100.0
16495,70.0,48,94,4.0,100.0
16496,62.0,0,94,5.0,100.0
16497,45.0,48,46,6.0,100.0
16498,46.0,48,46,6.0,100.0
16499,65.0,0,94,5.0,100.0
16500,45.0,48,46,6.0,100.0
16501,43.0,48,46,6.0,100.0
16502,71.0,0,96,4.0,100.0
16503,41.0,0,46,6.0,100.0
16504,43.0,48,46,6.0,100.0
16505,72.0,48,96,4.0,100.0
16506,45.0,48,46,6.0,100.0
16507,46.0,48,46,6.0,100.0
16508,66.0,0,96,4.0,100.0
16509,45.0,0,46,6.0,100.0
16510,46.0,48,46,6.0,100.0
16511,63.0,0,288,5.0,127.0
16512,48.0,0,46,6.0,100.0
16513,65.0,48,160,4.0,100.0
16514,62.0,48,94,5.0,100.0
16515,50.0,48,46,6.0,100.0
16516,51.0,48,46,6.0,100.0
16517,80.0,0,94,4.0,100.0
16518,53.0,48,46,6.0,100.0
16519,55.0,48,46,6.0,100.0
16520,51.0,48,46,6.0,100.0
16521,70.0,0,96,5.0,100.0
16522,49.0,48,46,6.0,100.0
16523,50.0,48,46,6.0,100.0
16524,76.0,0,96,5.0,100.0
16525,52.0,0,46,6.0,100.0
16526,49.0,48,46,6.0,100.0
16527,50.0,48,46,6.0,100.0
16528,53.0,48,46,6.0,100.0
16529,79.0,0,288,4.0,127.0
16530,58.0,0,46,6.0,100.0
16531,70.0,48,256,5.0,100.0
16532,62.0,48,46,6.0,100.0
16533,77.0,48,94,4.0,100.0
16534,54.0,48,46,6.0,100.0
16535,55.0,48,46,6.0,100.0
16536,72.0,0,94,5.0,100.0
16537,57.0,0,46,6.0,100.0
16538,54.0,48,46,6.0,100.0
16539,76.0,48,96,4.0,100.0
16540,51.0,0,46,6.0,100.0
16541,52.0,48,46,6.0,100.0
16542,79.0,0,96,4.0,100.0
16543,53.0,0,46,6.0,100.0
16544,52.0,48,46,6.0,100.0
16545,73.0,48,96,4.0,100.0
16546,53.0,0,46,6.0,100.0
16547,57.0,48,46,6.0,100.0
16548,70.0,48,288,5.0,127.0
16549,60.0,48,46,6.0,100.0
16550,72.0,48,160,4.0,100.0
16551,69.0,0,94,5.0,100.0
16552,65.0,48,46,6.0,100.0
16553,59.0,48,46,6.0,100.0
16554,89.0,0,94,4.0,100.0
16555,60.0,48,46,6.0,100.0
16556,62.0,0,46,6.0,100.0
16557,60.0,48,46,6.0,100.0
16558,81.0,48,96,5.0,100.0
16559,56.0,48,46,6.0,100.0
16560,57.0,48,46,6.0,100.0
16561,84.0,0,96,5.0,100.0
16562,58.0,48,46,6.0,100.0
16563,57.0,48,46,6.0,100.0
16564,78.0,0,96,5.0,100.0
16565,58.0,0,46,6.0,100.0
16566,57.0,48,46,6.0,100.0
16567,87.0,0,288,4.0,127.0
16568,55.0,48,46,6.0,100.0
16569,77.0,48,160,5.0,100.0
16570,53.0,48,46,6.0,100.0
16571,86.0,0,94,4.0,100.0
16572,51.0,48,46,6.0,100.0
16573,53.0,48,46,6.0,100.0
16574,92.0,0,94,4.0,100.0
16575,55.0,0,46,6.0,100.0
16576,51.0,48,46,6.0,100.0
16577,82.0,48,96,5.0,100.0
16578,50.0,48,46,6.0,100.0
16579,49.0,48,46,6.0,100.0
16580,88.0,0,96,5.0,100.0
16581,48.0,48,46,6.0,100.0
16582,49.0,48,46,6.0,100.0
16583,50.0,48,46,6.0,100.0
16584,52.0,48,46,6.0,100.0
16585,91.0,0,288,4.0,127.0
16586,82.0,0,192,5.0,100.0
16587,53.0,48,46,6.0,100.0
16588,54.0,48,46,6.0,100.0
16589,86.0,0,96,5.0,100.0
16590,55.0,48,46,6.0,100.0
16591,57.0,48,46,6.0,100.0
16592,89.0,0,190,4.0,100.0
16593,83.0,0,96,5.0,100.0
16594,58.0,48,46,6.0,100.0
16595,59.0,48,46,6.0,100.0
16596,79.0,0,96,5.0,100.0
16597,48.0,0,46,6.0,100.0
16598,52.0,48,46,6.0,100.0
16599,89.0,0,192,4.0,100.0
16600,84.0,48,96,5.0,100.0
16601,55.0,48,46,6.0,100.0
16602,88.0,0,94,4.0,100.0
16603,60.0,48,46,6.0,100.0
16604,79.0,0,96,5.0,100.0
16605,53.0,48,46,6.0,100.0
16606,55.0,48,46,6.0,100.0
16607,84.0,0,96,5.0,100.0
16608,56.0,0,46,6.0,100.0
16609,57.0,48,46,6.0,100.0
16610,46.0,48,46,6.0,100.0
16611,77.0,48,190,5.0,100.0
16612,87.0,0,286,4.0,100.0
16613,50.0,48,46,6.0,100.0
16614,53.0,0,46,6.0,100.0
16615,58.0,48,46,6.0,100.0
16616,86.0,0,96,4.0,100.0
16617,52.0,0,46,6.0,100.0
16618,82.0,48,160,5.0,100.0
16619,85.0,48,94,4.0,100.0
16620,55.0,48,46,6.0,100.0
16621,58.0,48,46,6.0,100.0
16622,70.0,0,94,5.0,100.0
16623,64.0,48,46,6.0,100.0
16624,55.0,0,46,7.0,100.0
16625,73.0,0,144,4.0,100.0
16626,58.0,48,94,6.0,100.0
16627,51.0,0,46,7.0,100.0
16628,79.0,48,48,4.0,100.0
16629,55.0,0,46,7.0,100.0
16630,82.0,48,48,4.0,100.0
16631,85.0,48,46,4.0,100.0
16632,51.0,0,46,7.0,100.0
16633,76.0,48,72,5.0,127.0
16634,85.0,0,94,4.0,100.0
16635,77.0,72,24,5.0,100.0
16636,76.0,0,24,5.0,100.0
16637,84.0,24,46,4.0,100.0
16638,77.0,24,24,5.0,100.0
16639,76.0,24,24,5.0,100.0
16640,82.0,0,46,4.0,100.0
16641,77.0,24,24,5.0,100.0
16642,76.0,24,24,5.0,100.0
16643,81.0,0,46,4.0,100.0
16644,77.0,24,24,5.0,100.0
16645,76.0,24,24,5.0,100.0
16646,82.0,0,46,4.0,100.0
16647,77.0,24,24,5.0,100.0
16648,76.0,24,24,5.0,100.0
16649,84.0,0,46,4.0,100.0
16650,74.0,24,36,5.0,100.0
16651,82.0,24,46,4.0,100.0
16652,76.0,12,36,5.0,100.0
16653,81.0,36,46,4.0,100.0
16654,79.0,48,46,4.0,100.0
16655,41.0,0,94,7.0,100.0
16656,81.0,48,46,4.0,100.0
16657,77.0,0,160,5.0,100.0
16658,82.0,48,46,4.0,100.0
16659,84.0,0,46,4.0,100.0
16660,57.0,48,72,7.0,127.0
16661,82.0,48,46,4.0,100.0
16662,58.0,24,24,7.0,100.0
16663,57.0,24,24,7.0,100.0
16664,81.0,0,46,4.0,100.0
16665,58.0,24,24,7.0,100.0
16666,57.0,0,24,7.0,100.0
16667,79.0,24,46,4.0,100.0
16668,58.0,24,24,7.0,100.0
16669,57.0,0,24,7.0,100.0
16670,77.0,24,46,4.0,100.0
16671,58.0,24,24,7.0,100.0
16672,57.0,24,24,7.0,100.0
16673,79.0,0,46,4.0,100.0
16674,58.0,24,24,7.0,100.0
16675,57.0,0,24,7.0,100.0
16676,77.0,24,46,4.0,100.0
16677,55.0,24,36,7.0,100.0
16678,75.0,24,46,4.0,100.0
16679,57.0,12,36,7.0,100.0
16680,74.0,0,46,4.0,100.0
16681,62.0,0,94,5.0,100.0
16682,85.0,48,46,4.0,100.0
16683,86.0,48,46,4.0,100.0
16684,58.0,36,160,7.0,100.0
16685,85.0,48,46,4.0,100.0
16686,78.0,48,72,5.0,127.0
16687,87.0,0,94,4.0,100.0
16688,79.0,72,24,5.0,100.0
16689,78.0,24,24,5.0,100.0
16690,86.0,0,46,4.0,100.0
16691,79.0,24,24,5.0,100.0
16692,78.0,0,24,5.0,100.0
16693,84.0,24,46,4.0,100.0
16694,79.0,24,24,5.0,100.0
16695,78.0,0,24,5.0,100.0
16696,83.0,24,46,4.0,100.0
16697,79.0,24,24,5.0,100.0
16698,78.0,0,24,5.0,100.0
16699,84.0,24,46,4.0,100.0
16700,79.0,24,24,5.0,100.0
16701,78.0,0,24,5.0,100.0
16702,86.0,24,46,4.0,100.0
16703,76.0,24,36,5.0,100.0
16704,84.0,24,46,4.0,100.0
16705,78.0,12,36,5.0,100.0
16706,83.0,0,46,4.0,100.0
16707,43.0,0,94,7.0,100.0
16708,81.0,48,46,4.0,100.0
16709,83.0,48,46,4.0,100.0
16710,79.0,36,160,5.0,100.0
16711,84.0,48,46,4.0,100.0
16712,86.0,48,48,4.0,100.0
16713,59.0,0,72,7.0,127.0
16714,84.0,48,48,4.0,100.0
16715,60.0,24,24,7.0,100.0
16716,59.0,24,24,7.0,100.0
16717,83.0,0,48,4.0,100.0
16718,60.0,24,24,7.0,100.0
16719,59.0,24,24,7.0,100.0
16720,80.0,0,48,4.0,100.0
16721,60.0,24,24,7.0,100.0
16722,59.0,0,24,7.0,100.0
16723,79.0,24,48,4.0,100.0
16724,60.0,24,24,7.0,100.0
16725,59.0,24,24,7.0,100.0
16726,80.0,0,48,4.0,100.0
16727,60.0,24,24,7.0,100.0
16728,59.0,0,24,7.0,100.0
16729,79.0,24,48,4.0,100.0
16730,57.0,24,36,7.0,100.0
16731,77.0,24,48,4.0,100.0
16732,59.0,12,36,7.0,100.0
16733,67.0,0,48,5.0,100.0
16734,60.0,36,94,7.0,100.0
16735,71.0,48,48,5.0,100.0
16736,72.0,48,48,5.0,100.0
16737,75.0,0,160,4.0,100.0
16738,44.0,0,94,6.0,100.0
16739,44.0,0,94,7.0,100.0
16740,73.0,48,48,5.0,100.0
16741,75.0,48,48,5.0,100.0
16742,60.0,0,72,7.0,127.0
16743,73.0,48,48,5.0,100.0
16744,62.0,24,24,7.0,100.0
16745,60.0,0,24,7.0,100.0
16746,62.0,24,24,7.0,100.0
16747,72.0,24,48,5.0,100.0
16748,60.0,0,24,7.0,100.0
16749,70.0,24,48,5.0,100.0
16750,62.0,24,24,7.0,100.0
16751,60.0,0,24,7.0,100.0
16752,68.0,0,48,5.0,100.0
16753,62.0,24,24,7.0,100.0
16754,60.0,0,24,7.0,100.0
16755,62.0,24,24,7.0,100.0
16756,70.0,24,48,5.0,100.0
16757,60.0,24,24,7.0,100.0
16758,68.0,0,48,5.0,100.0
16759,58.0,24,36,7.0,100.0
16760,60.0,12,36,7.0,100.0
16761,66.0,24,48,5.0,100.0
16762,75.0,24,256,4.0,127.0
16763,73.0,96,46,4.0,100.0
16764,61.0,0,160,7.0,100.0
16765,65.0,36,160,5.0,100.0
16766,75.0,48,46,4.0,100.0
16767,77.0,48,46,4.0,100.0
16768,78.0,48,46,4.0,100.0
16769,77.0,0,46,4.0,100.0
16770,61.0,48,48,7.0,100.0
16771,75.0,48,46,4.0,100.0
16772,60.0,0,48,7.0,100.0
16773,73.0,0,46,4.0,100.0
16774,58.0,48,48,7.0,100.0
16775,72.0,0,46,4.0,100.0
16776,56.0,48,48,7.0,100.0
16777,70.0,0,46,4.0,100.0
16778,54.0,48,48,7.0,100.0
16779,68.0,0,46,4.0,100.0
16780,53.0,48,48,7.0,100.0
16781,61.0,48,46,5.0,100.0
16782,63.0,48,46,5.0,100.0
16783,64.0,48,46,5.0,100.0
16784,58.0,0,160,7.0,100.0
16785,65.0,48,46,5.0,100.0
16786,73.0,0,238,4.0,100.0
16787,75.0,48,46,4.0,100.0
16788,73.0,0,46,4.0,100.0
16789,58.0,48,48,7.0,100.0
16790,66.0,48,160,5.0,100.0
16791,72.0,0,46,4.0,100.0
16792,56.0,48,48,7.0,100.0
16793,70.0,0,46,4.0,100.0
16794,54.0,48,48,7.0,100.0
16795,68.0,0,46,4.0,100.0
16796,53.0,48,48,7.0,100.0
16797,66.0,48,46,4.0,100.0
16798,51.0,0,48,7.0,100.0
16799,65.0,48,46,4.0,100.0
16800,49.0,0,48,7.0,100.0
16801,58.0,0,46,5.0,100.0
16802,60.0,48,46,5.0,100.0
16803,61.0,48,46,5.0,100.0
16804,54.0,48,160,7.0,100.0
16805,62.0,48,46,5.0,100.0
16806,63.0,48,46,5.0,100.0
16807,62.0,48,46,5.0,100.0
16808,63.0,48,46,5.0,100.0
16809,54.0,0,46,7.0,100.0
16810,65.0,0,46,5.0,100.0
16811,53.0,48,46,7.0,100.0
16812,51.0,0,46,7.0,100.0
16813,70.0,0,448,4.0,100.0
16814,53.0,48,46,7.0,100.0
16815,66.0,48,94,5.0,100.0
16816,51.0,48,46,7.0,100.0
16817,49.0,48,46,7.0,100.0
16818,67.0,0,94,5.0,100.0
16819,70.0,0,94,4.0,100.0
16820,48.0,0,46,7.0,100.0
16821,68.0,48,94,5.0,100.0
16822,49.0,48,46,7.0,100.0
16823,72.0,0,94,4.0,100.0
16824,48.0,48,46,7.0,100.0
16825,46.0,48,46,7.0,100.0
16826,73.0,0,94,4.0,100.0
16827,44.0,48,46,7.0,100.0
16828,46.0,48,46,7.0,100.0
16829,48.0,48,46,7.0,100.0
16830,49.0,48,46,7.0,100.0
16831,50.0,48,46,7.0,100.0
16832,75.0,0,256,4.0,127.0
16833,66.0,0,256,4.0,127.0
16834,51.0,48,46,7.0,100.0
16835,53.0,48,46,7.0,100.0
16836,66.0,0,94,4.0,100.0
16837,75.0,0,94,4.0,100.0
16838,51.0,48,46,7.0,100.0
16839,49.0,0,46,7.0,100.0
16840,51.0,48,46,7.0,100.0
16841,75.0,0,96,4.0,100.0
16842,66.0,48,96,4.0,100.0
16843,53.0,0,46,7.0,100.0
16844,54.0,48,46,7.0,100.0
16845,73.0,48,96,4.0,100.0
16846,65.0,0,96,4.0,100.0
16847,55.0,48,46,7.0,100.0
16848,56.0,48,46,7.0,100.0
16849,63.0,0,96,4.0,100.0
16850,72.0,0,96,4.0,100.0
16851,58.0,0,46,7.0,100.0
16852,56.0,48,46,7.0,100.0
16853,73.0,48,96,4.0,100.0
16854,61.0,0,96,4.0,100.0
16855,54.0,48,46,7.0,100.0
16856,53.0,48,46,7.0,100.0
16857,60.0,0,94,5.0,100.0
16858,63.0,0,96,4.0,100.0
16859,51.0,0,46,7.0,100.0
16860,65.0,48,48,4.0,100.0
16861,61.0,0,94,5.0,100.0
16862,49.0,48,46,7.0,100.0
16863,66.0,0,48,4.0,100.0
16864,68.0,0,48,4.0,100.0
16865,60.0,48,94,5.0,100.0
16866,44.0,0,94,7.0,100.0
16867,70.0,48,48,4.0,100.0
16868,72.0,48,48,4.0,100.0
16869,63.0,0,94,5.0,100.0
16870,73.0,48,48,4.0,100.0
16871,74.0,48,48,4.0,100.0
16872,75.0,48,48,4.0,100.0
16873,77.0,48,48,4.0,100.0
16874,75.0,48,48,4.0,100.0
16875,73.0,48,48,4.0,100.0
16876,51.0,0,256,7.0,127.0
16877,42.0,0,256,7.0,127.0
16878,72.0,48,48,4.0,100.0
16879,70.0,48,48,4.0,100.0
16880,51.0,0,94,7.0,100.0
16881,42.0,0,94,7.0,100.0
16882,68.0,48,48,4.0,100.0
16883,73.0,0,48,4.0,100.0
16884,75.0,48,48,4.0,100.0
16885,51.0,48,96,7.0,100.0
16886,42.0,0,96,7.0,100.0
16887,77.0,48,48,4.0,100.0
16888,49.0,0,96,7.0,100.0
16889,41.0,0,96,7.0,100.0
16890,78.0,48,48,4.0,100.0
16891,79.0,48,48,4.0,100.0
16892,80.0,48,48,4.0,100.0
16893,48.0,0,96,7.0,100.0
16894,39.0,0,96,7.0,100.0
16895,82.0,48,48,4.0,100.0
16896,37.0,0,96,7.0,100.0
16897,80.0,48,48,4.0,100.0
16898,49.0,0,96,7.0,100.0
16899,78.0,48,48,4.0,100.0
16900,77.0,48,48,4.0,100.0
16901,48.0,0,96,7.0,100.0
16902,51.0,0,96,7.0,100.0
16903,75.0,48,48,4.0,100.0
16904,49.0,0,94,7.0,100.0
16905,53.0,0,94,7.0,100.0
16906,73.0,48,48,4.0,100.0
16907,60.0,48,46,5.0,100.0
16908,68.0,0,94,4.0,100.0
16909,61.0,48,46,5.0,100.0
16910,60.0,48,46,5.0,100.0
16911,58.0,48,46,5.0,100.0
16912,56.0,0,46,5.0,100.0
16913,58.0,48,46,5.0,100.0
16914,60.0,48,46,5.0,100.0
16915,61.0,48,46,5.0,100.0
16916,62.0,48,46,5.0,100.0
16917,63.0,48,46,5.0,100.0
16918,66.0,48,288,4.0,100.0
16919,60.0,0,46,5.0,100.0
16920,61.0,48,46,5.0,100.0
16921,65.0,48,96,4.0,100.0
16922,64.0,48,46,5.0,100.0
16923,65.0,48,46,5.0,100.0
16924,49.0,0,94,7.0,100.0
16925,37.0,0,94,7.0,100.0
16926,66.0,48,46,5.0,100.0
16927,70.0,0,160,4.0,100.0
16928,65.0,48,46,5.0,100.0
16929,62.0,0,46,5.0,100.0
16930,63.0,48,46,5.0,100.0
16931,67.0,48,46,5.0,100.0
16932,68.0,48,46,5.0,100.0
16933,66.0,48,46,5.0,100.0
16934,67.0,48,46,5.0,100.0
16935,48.0,0,288,7.0,127.0
16936,36.0,48,288,7.0,127.0
16937,68.0,48,46,5.0,100.0
16938,67.0,48,46,5.0,100.0
16939,34.0,0,96,7.0,100.0
16940,46.0,0,96,7.0,100.0
16941,69.0,0,46,5.0,100.0
16942,73.0,48,94,4.0,127.0
16943,70.0,48,46,5.0,100.0
16944,72.0,48,46,5.0,100.0
16945,51.0,0,160,7.0,100.0
16946,39.0,0,160,7.0,100.0
16947,70.0,48,46,5.0,100.0
16948,67.0,48,46,5.0,100.0
16949,68.0,48,46,5.0,100.0
16950,70.0,48,46,5.0,100.0
16951,68.0,48,46,5.0,100.0
16952,66.0,48,46,5.0,100.0
16953,72.0,0,256,4.0,127.0
16954,67.0,48,46,5.0,100.0
16955,68.0,48,46,5.0,100.0
16956,67.0,48,46,5.0,100.0
16957,70.0,0,94,4.0,100.0
16958,69.0,0,46,5.0,100.0
16959,43.0,48,94,7.0,100.0
16960,55.0,0,94,7.0,100.0
16961,70.0,48,46,5.0,100.0
16962,72.0,48,46,5.0,100.0
16963,75.0,0,160,4.0,100.0
16964,70.0,48,46,5.0,100.0
16965,68.0,0,46,5.0,100.0
16966,70.0,48,46,5.0,100.0
16967,72.0,48,46,5.0,100.0
16968,73.0,48,46,5.0,100.0
16969,72.0,48,46,5.0,100.0
16970,73.0,48,46,5.0,100.0
16971,53.0,0,288,7.0,127.0
16972,41.0,48,288,7.0,127.0
16973,71.0,48,46,5.0,100.0
16974,72.0,48,46,5.0,100.0
16975,39.0,0,96,7.0,100.0
16976,51.0,0,96,7.0,100.0
16977,71.0,0,46,5.0,100.0
16978,77.0,0,94,4.0,127.0
16979,72.0,48,46,5.0,100.0
16980,73.0,48,46,5.0,100.0
16981,44.0,0,160,7.0,100.0
16982,56.0,48,160,7.0,100.0
16983,72.0,48,46,5.0,100.0
16984,69.0,48,46,5.0,100.0
16985,77.0,0,94,4.0,127.0
16986,70.0,48,46,5.0,100.0
16987,72.0,48,46,5.0,100.0
16988,70.0,48,46,5.0,100.0
16989,75.0,0,94,4.0,100.0
16990,62.0,48,46,5.0,100.0
16991,63.0,48,46,5.0,100.0
16992,55.0,0,94,7.0,100.0
16993,43.0,0,94,7.0,100.0
16994,65.0,48,46,5.0,100.0
16995,63.0,48,46,5.0,100.0
16996,67.0,0,46,5.0,100.0
16997,55.0,0,70,7.0,100.0
16998,43.0,0,70,7.0,100.0
16999,73.0,48,94,4.0,100.0
17000,68.0,48,46,5.0,100.0
17001,70.0,0,46,5.0,100.0
17002,53.0,48,70,7.0,100.0
17003,41.0,0,70,7.0,100.0
17004,68.0,48,46,5.0,100.0
17005,67.0,48,46,5.0,100.0
17006,73.0,0,94,4.0,100.0
17007,68.0,48,46,5.0,100.0
17008,70.0,0,46,5.0,100.0
17009,72.0,48,94,4.0,100.0
17010,68.0,48,46,5.0,100.0
17011,67.0,48,46,5.0,100.0
17012,68.0,48,46,5.0,100.0
17013,63.0,0,94,7.0,100.0
17014,51.0,0,94,7.0,100.0
17015,70.0,0,46,5.0,100.0
17016,71.0,48,46,5.0,100.0
17017,73.0,48,94,4.0,100.0
17018,51.0,0,46,6.0,100.0
17019,91.0,0,72,4.0,127.0
17020,49.0,48,46,6.0,100.0
17021,63.0,48,94,7.0,100.0
17022,92.0,24,24,4.0,100.0
17023,91.0,0,24,4.0,100.0
17024,48.0,24,46,6.0,100.0
17025,92.0,24,24,4.0,100.0
17026,91.0,24,24,4.0,100.0
17027,61.0,0,94,7.0,100.0
17028,49.0,0,46,6.0,100.0
17029,92.0,24,24,4.0,100.0
17030,91.0,0,24,4.0,100.0
17031,49.0,0,46,6.0,100.0
17032,92.0,24,24,4.0,100.0
17033,91.0,24,24,4.0,100.0
17034,47.0,0,46,6.0,100.0
17035,61.0,24,94,7.0,100.0
17036,92.0,24,24,4.0,100.0
17037,91.0,0,24,4.0,100.0
17038,43.0,24,46,6.0,100.0
17039,89.0,24,36,4.0,100.0
17040,60.0,0,94,7.0,100.0
17041,47.0,24,46,6.0,100.0
17042,91.0,12,36,4.0,100.0
17043,92.0,36,160,4.0,100.0
17044,48.0,96,94,7.0,100.0
17045,92.0,96,48,4.0,100.0
17046,60.0,96,160,7.0,127.0
17047,67.0,0,94,6.0,100.0
17048,91.0,48,48,4.0,100.0
17049,89.0,48,48,4.0,100.0
17050,87.0,48,48,4.0,100.0
17051,85.0,48,48,4.0,100.0
17052,68.0,0,160,6.0,100.0
17053,84.0,48,48,4.0,100.0
17054,89.0,48,160,4.0,100.0
17055,44.0,96,94,7.0,100.0
17056,89.0,96,48,4.0,100.0
17057,56.0,96,160,7.0,127.0
17058,64.0,0,94,6.0,100.0
17059,87.0,48,48,4.0,100.0
17060,85.0,0,48,4.0,100.0
17061,84.0,48,48,4.0,100.0
17062,82.0,48,48,4.0,100.0
17063,65.0,48,160,6.0,100.0
17064,80.0,48,48,4.0,100.0
17065,85.0,48,160,4.0,100.0
17066,41.0,96,94,7.0,100.0
17067,53.0,96,70,7.0,100.0
17068,80.0,96,46,4.0,100.0
17069,57.0,0,70,7.0,100.0
17070,75.0,0,94,5.0,100.0
17071,79.0,48,46,4.0,100.0
17072,82.0,48,46,4.0,100.0
17073,73.0,0,94,5.0,100.0
17074,58.0,0,94,7.0,100.0
17075,84.0,48,46,4.0,100.0
17076,82.0,0,46,4.0,100.0
17077,80.0,48,46,4.0,100.0
17078,70.0,48,94,5.0,100.0
17079,62.0,0,94,7.0,100.0
17080,79.0,0,46,4.0,100.0
17081,80.0,48,46,4.0,100.0
17082,70.0,0,94,5.0,100.0
17083,63.0,48,94,7.0,100.0
17084,79.0,48,46,4.0,100.0
17085,77.0,48,46,4.0,100.0
17086,75.0,0,46,4.0,100.0
17087,77.0,48,46,4.0,100.0
17088,79.0,48,46,4.0,100.0
17089,80.0,48,46,4.0,100.0
17090,81.0,48,46,4.0,100.0
17091,61.0,0,286,7.0,127.0
17092,58.0,48,286,7.0,127.0
17093,82.0,48,46,4.0,100.0
17094,84.0,48,46,4.0,100.0
17095,82.0,48,46,4.0,100.0
17096,61.0,0,94,7.0,100.0
17097,58.0,0,94,7.0,100.0
17098,80.0,48,46,4.0,100.0
17099,82.0,48,46,4.0,100.0
17100,58.0,0,96,7.0,100.0
17101,61.0,0,96,7.0,100.0
17102,84.0,0,46,4.0,100.0
17103,85.0,48,46,4.0,100.0
17104,56.0,48,96,7.0,100.0
17105,60.0,0,96,7.0,100.0
17106,86.0,0,46,4.0,100.0
17107,87.0,48,46,4.0,100.0
17108,58.0,0,96,7.0,100.0
17109,49.0,48,96,7.0,100.0
17110,89.0,48,46,4.0,100.0
17111,87.0,48,46,4.0,100.0
17112,48.0,0,96,7.0,100.0
17113,56.0,0,96,7.0,100.0
17114,85.0,48,46,4.0,100.0
17115,84.0,48,46,4.0,100.0
17116,46.0,0,96,7.0,100.0
17117,55.0,0,96,7.0,100.0
17118,82.0,0,46,4.0,100.0
17119,56.0,48,94,7.0,100.0
17120,48.0,0,94,7.0,100.0
17121,80.0,48,46,4.0,100.0
17122,43.0,48,46,7.0,100.0
17123,73.0,0,94,4.0,100.0
17124,82.0,0,94,4.0,100.0
17125,44.0,48,46,7.0,100.0
17126,43.0,48,46,7.0,100.0
17127,41.0,48,46,7.0,100.0
17128,39.0,0,46,7.0,100.0
17129,41.0,48,46,7.0,100.0
17130,43.0,48,46,7.0,100.0
17131,44.0,48,46,7.0,100.0
17132,45.0,48,46,7.0,100.0
17133,70.0,48,286,4.0,127.0
17134,73.0,0,286,4.0,127.0
17135,46.0,48,46,7.0,100.0
17136,48.0,0,46,7.0,100.0
17137,65.0,48,94,4.0,100.0
17138,46.0,48,46,7.0,100.0
17139,73.0,0,94,4.0,100.0
17140,43.0,0,46,7.0,100.0
17141,44.0,48,46,7.0,100.0
17142,65.0,48,96,4.0,100.0
17143,73.0,0,96,4.0,100.0
17144,46.0,48,46,7.0,100.0
17145,48.0,48,46,7.0,100.0
17146,63.0,0,96,4.0,100.0
17147,72.0,0,96,4.0,100.0
17148,49.0,0,46,7.0,100.0
17149,51.0,48,46,7.0,100.0
17150,70.0,0,96,4.0,100.0
17151,61.0,48,96,4.0,100.0
17152,53.0,0,46,7.0,100.0
17153,51.0,48,46,7.0,100.0
17154,60.0,0,96,4.0,100.0
17155,68.0,48,96,4.0,100.0
17156,49.0,0,46,7.0,100.0
17157,48.0,48,46,7.0,100.0
17158,67.0,48,96,4.0,100.0
17159,58.0,0,96,4.0,100.0
17160,46.0,0,46,7.0,100.0
17161,68.0,48,94,4.0,100.0
17162,60.0,0,94,4.0,100.0
17163,44.0,48,46,7.0,100.0
17164,69.0,0,46,4.0,100.0
17165,70.0,48,46,4.0,100.0
17166,54.0,48,96,7.0,127.0
17167,63.0,0,96,7.0,127.0
17168,72.0,48,46,4.0,100.0
17169,73.0,48,46,4.0,100.0
17170,61.0,0,96,7.0,100.0
17171,53.0,0,96,7.0,100.0
17172,75.0,0,46,4.0,100.0
17173,77.0,48,46,4.0,100.0
17174,51.0,48,96,7.0,100.0
17175,60.0,0,96,7.0,100.0
17176,78.0,0,46,4.0,100.0
17177,77.0,48,46,4.0,100.0
17178,49.0,48,96,7.0,100.0
17179,58.0,0,96,7.0,100.0
17180,75.0,0,46,4.0,100.0
17181,73.0,48,46,4.0,100.0
17182,57.0,48,96,7.0,100.0
17183,48.0,0,96,7.0,100.0
17184,72.0,0,46,4.0,100.0
17185,58.0,0,94,7.0,100.0
17186,49.0,48,94,7.0,100.0
17187,70.0,48,46,4.0,100.0
17188,45.0,0,46,7.0,100.0
17189,46.0,48,46,7.0,100.0
17190,75.0,48,96,4.0,127.0
17191,66.0,0,96,4.0,127.0
17192,48.0,0,46,7.0,100.0
17193,49.0,48,46,7.0,100.0
17194,65.0,0,96,4.0,100.0
17195,73.0,48,96,4.0,100.0
17196,51.0,0,46,7.0,100.0
17197,53.0,48,46,7.0,100.0
17198,63.0,48,96,4.0,100.0
17199,72.0,0,96,4.0,100.0
17200,54.0,48,46,7.0,100.0
17201,53.0,48,46,7.0,100.0
17202,61.0,0,96,4.0,100.0
17203,70.0,0,96,4.0,100.0
17204,51.0,48,46,7.0,100.0
17205,49.0,48,46,7.0,100.0
17206,60.0,0,96,4.0,100.0
17207,69.0,0,96,4.0,100.0
17208,48.0,0,46,7.0,100.0
17209,70.0,0,94,4.0,100.0
17210,61.0,48,94,4.0,100.0
17211,46.0,48,46,7.0,100.0
17212,50.0,48,46,6.0,100.0
17213,51.0,48,46,6.0,100.0
17214,44.0,0,96,7.0,127.0
17215,53.0,48,46,6.0,100.0
17216,55.0,48,46,6.0,100.0
17217,43.0,0,96,7.0,100.0
17218,56.0,48,46,6.0,100.0
17219,58.0,48,46,6.0,100.0
17220,41.0,0,96,7.0,100.0
17221,59.0,48,46,6.0,100.0
17222,58.0,48,46,6.0,100.0
17223,39.0,0,96,7.0,100.0
17224,56.0,48,46,6.0,100.0
17225,55.0,48,46,6.0,100.0
17226,38.0,0,96,7.0,100.0
17227,53.0,48,46,6.0,100.0
17228,51.0,48,46,6.0,100.0
17229,39.0,0,94,7.0,100.0
17230,52.0,48,46,6.0,100.0
17231,53.0,48,46,6.0,100.0
17232,46.0,0,96,7.0,127.0
17233,55.0,48,46,6.0,100.0
17234,56.0,48,46,6.0,100.0
17235,44.0,0,96,7.0,100.0
17236,58.0,48,46,6.0,100.0
17237,60.0,48,46,6.0,100.0
17238,43.0,0,96,7.0,100.0
17239,61.0,48,46,6.0,100.0
17240,60.0,48,46,6.0,100.0
17241,41.0,0,96,7.0,100.0
17242,58.0,48,46,6.0,100.0
17243,56.0,48,46,6.0,100.0
17244,40.0,0,96,7.0,100.0
17245,55.0,0,46,6.0,100.0
17246,53.0,48,46,6.0,100.0
17247,41.0,48,94,7.0,100.0
17248,53.0,0,46,6.0,100.0
17249,54.0,48,46,6.0,100.0
17250,75.0,0,96,4.0,127.0
17251,71.0,48,96,4.0,127.0
17252,56.0,0,46,6.0,100.0
17253,58.0,48,46,6.0,100.0
17254,70.0,0,96,4.0,100.0
17255,73.0,48,96,4.0,100.0
17256,59.0,48,46,6.0,100.0
17257,61.0,48,46,6.0,100.0
17258,68.0,0,96,4.0,100.0
17259,71.0,0,96,4.0,100.0
17260,63.0,0,46,6.0,100.0
17261,61.0,48,46,6.0,100.0
17262,66.0,48,96,4.0,100.0
17263,70.0,0,96,4.0,100.0
17264,59.0,0,46,6.0,100.0
17265,58.0,48,46,6.0,100.0
17266,68.0,48,96,4.0,100.0
17267,65.0,0,96,4.0,100.0
17268,56.0,48,46,6.0,100.0
17269,66.0,0,94,4.0,100.0
17270,70.0,0,94,4.0,100.0
17271,54.0,48,46,6.0,100.0
17272,43.0,0,46,6.0,100.0
17273,44.0,48,46,6.0,100.0
17274,85.0,0,96,4.0,127.0
17275,76.0,48,96,4.0,127.0
17276,46.0,0,46,6.0,100.0
17277,47.0,48,46,6.0,100.0
17278,83.0,0,96,4.0,100.0
17279,75.0,48,96,4.0,100.0
17280,49.0,48,46,6.0,100.0
17281,51.0,48,46,6.0,100.0
17282,73.0,0,96,4.0,100.0
17283,82.0,0,96,4.0,100.0
17284,52.0,48,46,6.0,100.0
17285,51.0,48,46,6.0,100.0
17286,71.0,0,96,4.0,100.0
17287,80.0,0,96,4.0,100.0
17288,49.0,0,46,6.0,100.0
17289,47.0,48,46,6.0,100.0
17290,70.0,48,96,4.0,100.0
17291,79.0,0,96,4.0,100.0
17292,46.0,48,46,6.0,100.0
17293,44.0,48,46,6.0,100.0
17294,42.0,48,46,6.0,100.0
17295,80.0,0,160,4.0,100.0
17296,71.0,0,160,4.0,100.0
17297,40.0,48,46,6.0,100.0
17298,39.0,48,46,6.0,100.0
17299,38.0,48,46,6.0,100.0
17300,39.0,48,46,6.0,100.0
17301,80.0,0,160,4.0,100.0
17302,83.0,0,160,4.0,100.0
17303,43.0,48,46,6.0,100.0
17304,46.0,0,46,6.0,100.0
17305,79.0,48,94,4.0,100.0
17306,51.0,48,46,6.0,100.0
17307,82.0,0,94,4.0,100.0
17308,55.0,48,72,6.0,127.0
17309,56.0,72,24,6.0,100.0
17310,55.0,24,24,6.0,100.0
17311,56.0,24,24,6.0,100.0
17312,55.0,24,24,6.0,100.0
17313,56.0,24,24,6.0,100.0
17314,55.0,24,24,6.0,100.0
17315,56.0,24,24,6.0,100.0
17316,76.0,0,256,4.0,100.0
17317,73.0,0,256,4.0,100.0
17318,55.0,24,24,6.0,100.0
17319,56.0,24,24,6.0,100.0
17320,55.0,0,24,6.0,100.0
17321,43.0,0,336,7.0,127.0
17322,53.0,24,36,6.0,100.0
17323,55.0,36,36,6.0,100.0
17324,73.0,0,192,4.0,100.0
17325,76.0,24,192,4.0,100.0
17326,56.0,0,160,6.0,100.0
17327,75.0,96,94,4.0,100.0
17328,71.0,0,94,4.0,100.0
17329,73.0,96,96,4.0,100.0
17330,70.0,0,96,4.0,100.0
17331,44.0,36,352,7.0,127.0
17332,56.0,0,352,7.0,127.0
17333,71.0,96,96,4.0,100.0
17334,68.0,0,96,4.0,100.0
17335,70.0,0,96,4.0,100.0
17336,67.0,96,96,4.0,100.0
17337,39.0,0,160,7.0,127.0
17338,51.0,0,160,7.0,127.0
17339,68.0,0,96,4.0,100.0
17340,71.0,96,96,4.0,100.0
17341,73.0,96,96,4.0,100.0
17342,70.0,0,96,4.0,100.0
17343,37.0,0,160,7.0,127.0
17344,49.0,0,160,7.0,127.0
17345,53.0,0,72,6.0,127.0
17346,75.0,0,190,4.0,100.0
17347,54.0,72,24,6.0,100.0
17348,53.0,24,24,6.0,100.0
17349,54.0,24,24,6.0,100.0
17350,53.0,24,24,6.0,100.0
17351,75.0,0,94,4.0,100.0
17352,71.0,0,94,4.0,100.0
17353,54.0,24,24,6.0,100.0
17354,53.0,0,24,6.0,100.0
17355,54.0,24,24,6.0,100.0
17356,53.0,24,24,6.0,100.0
17357,54.0,24,24,6.0,100.0
17358,53.0,24,24,6.0,100.0
17359,41.0,96,336,7.0,127.0
17360,51.0,24,36,6.0,100.0
17361,53.0,36,36,6.0,100.0
17362,71.0,0,256,4.0,127.0
17363,75.0,24,256,4.0,127.0
17364,54.0,36,160,6.0,100.0
17365,42.0,0,160,7.0,127.0
17366,70.0,96,192,4.0,100.0
17367,73.0,0,192,4.0,100.0
17368,49.0,96,160,6.0,127.0
17369,37.0,0,160,7.0,127.0
17370,68.0,0,96,4.0,100.0
17371,71.0,96,96,4.0,100.0
17372,70.0,0,96,4.0,100.0
17373,66.0,0,96,4.0,100.0
17374,51.0,0,160,6.0,127.0
17375,39.0,96,160,7.0,127.0
17376,68.0,96,96,4.0,100.0
17377,65.0,0,96,4.0,100.0
17378,70.0,0,96,4.0,100.0
17379,66.0,0,96,4.0,100.0
17380,68.0,0,96,4.0,100.0
17381,71.0,96,96,4.0,100.0
17382,35.0,0,286,7.0,127.0
17383,47.0,96,286,7.0,127.0
17384,73.0,0,94,4.0,100.0
17385,66.0,96,96,5.0,100.0
17386,66.0,0,96,5.0,100.0
17387,34.0,96,96,7.0,127.0
17388,46.0,0,96,7.0,127.0
17389,75.0,0,192,4.0,100.0
17390,44.0,96,96,7.0,127.0
17391,32.0,0,96,7.0,127.0
17392,65.0,0,96,5.0,100.0
17393,66.0,0,96,5.0,100.0
17394,34.0,0,96,7.0,127.0
17395,46.0,96,96,7.0,127.0
17396,68.0,96,48,5.0,100.0
17397,66.0,48,48,5.0,100.0
17398,73.0,0,192,4.0,100.0
17399,35.0,0,96,7.0,127.0
17400,47.0,0,96,7.0,127.0
17401,65.0,48,48,5.0,100.0
17402,68.0,48,48,5.0,100.0
17403,73.0,0,0,4.0,100.0
17404,49.0,0,96,7.0,127.0
17405,37.0,0,96,7.0,127.0
17406,70.0,0,94,5.0,100.0
17407,58.0,48,48,4.0,100.0
17408,61.0,48,48,4.0,100.0
17409,30.0,0,160,7.0,127.0
17410,42.0,48,160,7.0,127.0
17411,66.0,48,48,4.0,100.0
17412,70.0,48,32,4.0,100.0
17413,66.0,48,48,5.0,100.0
17414,71.0,48,32,4.0,100.0
17415,65.0,0,48,5.0,100.0
17416,63.0,48,48,5.0,100.0
17417,49.0,48,48,7.0,100.0
17418,65.0,48,96,5.0,100.0
17419,51.0,48,48,7.0,100.0
17420,66.0,0,48,5.0,100.0
17421,73.0,0,192,4.0,100.0
17422,68.0,0,48,5.0,100.0
17423,53.0,48,48,7.0,100.0
17424,54.0,48,46,7.0,100.0
17425,46.0,48,48,7.0,100.0
17426,49.0,48,48,7.0,100.0
17427,70.0,0,160,5.0,100.0
17428,54.0,48,48,7.0,100.0
17429,58.0,48,32,7.0,100.0
17430,78.0,48,48,4.0,100.0
17431,59.0,0,32,7.0,100.0
17432,77.0,48,48,4.0,100.0
17433,75.0,48,48,4.0,100.0
17434,77.0,0,96,4.0,100.0
17435,78.0,96,48,4.0,100.0
17436,61.0,48,160,7.0,127.0
17437,77.0,48,46,5.0,100.0
17438,65.0,48,48,5.0,100.0
17439,68.0,48,48,5.0,100.0
17440,73.0,48,48,5.0,100.0
17441,77.0,48,32,5.0,100.0
17442,80.0,48,286,4.0,100.0
17443,89.0,48,48,4.0,100.0
17444,78.0,0,32,5.0,100.0
17445,87.0,48,48,4.0,100.0
17446,85.0,48,48,4.0,100.0
17447,84.0,48,96,4.0,100.0
17448,56.0,48,48,7.0,100.0
17449,85.0,48,48,4.0,100.0
17450,58.0,0,48,7.0,100.0
17451,80.0,0,160,5.0,127.0
17452,60.0,0,48,7.0,100.0
17453,87.0,48,48,4.0,100.0
17454,61.0,48,46,7.0,100.0
17455,53.0,48,48,7.0,100.0
17456,56.0,48,48,7.0,100.0
17457,80.0,0,160,4.0,100.0
17458,61.0,48,48,7.0,100.0
17459,53.0,48,32,7.0,100.0
17460,77.0,0,238,5.0,100.0
17461,77.0,48,48,5.0,100.0
17462,54.0,0,32,7.0,100.0
17463,75.0,48,48,5.0,100.0
17464,73.0,48,48,5.0,100.0
17465,72.0,48,48,5.0,100.0
17466,70.0,48,48,5.0,100.0
17467,68.0,48,48,5.0,100.0
17468,66.0,48,48,5.0,100.0
17469,77.0,0,32,4.0,127.0
17470,56.0,0,240,7.0,127.0
17471,65.0,48,94,5.0,127.0
17472,65.0,48,48,7.0,100.0
17473,78.0,48,32,4.0,100.0
17474,63.0,0,48,7.0,100.0
17475,61.0,48,48,7.0,100.0
17476,60.0,48,48,7.0,100.0
17477,68.0,48,46,5.0,100.0
17478,58.0,0,48,7.0,100.0
17479,70.0,48,46,5.0,100.0
17480,56.0,0,48,7.0,100.0
17481,72.0,0,46,5.0,100.0
17482,54.0,48,48,7.0,100.0
17483,80.0,0,238,4.0,100.0
17484,53.0,0,94,7.0,100.0
17485,74.0,48,94,5.0,100.0
17486,77.0,48,46,4.0,100.0
17487,75.0,48,46,4.0,100.0
17488,73.0,48,46,4.0,100.0
17489,56.0,0,94,7.0,100.0
17490,54.0,0,46,7.0,100.0
17491,70.0,0,142,5.0,100.0
17492,54.0,48,48,5.0,100.0
17493,58.0,48,48,5.0,100.0
17494,75.0,48,160,4.0,100.0
17495,63.0,48,48,5.0,100.0
17496,66.0,48,32,5.0,100.0
17497,90.0,48,48,4.0,100.0
17498,68.0,48,32,5.0,100.0
17499,89.0,0,48,4.0,100.0
17500,87.0,48,48,4.0,100.0
17501,86.0,48,48,4.0,100.0
17502,83.0,0,48,4.0,100.0
17503,62.0,48,48,7.0,100.0
17504,63.0,0,48,7.0,100.0
17505,82.0,48,48,4.0,100.0
17506,65.0,48,48,7.0,100.0
17507,80.0,0,48,4.0,100.0
17508,63.0,0,46,7.0,100.0
17509,70.0,0,286,5.0,127.0
17510,54.0,48,48,7.0,100.0
17511,58.0,48,48,7.0,100.0
17512,78.0,48,160,4.0,100.0
17513,51.0,48,48,7.0,100.0
17514,54.0,48,32,7.0,100.0
17515,66.0,0,142,5.0,100.0
17516,78.0,48,48,5.0,100.0
17517,56.0,0,32,7.0,100.0
17518,77.0,48,48,5.0,100.0
17519,75.0,48,48,5.0,100.0
17520,74.0,48,48,5.0,100.0
17521,71.0,48,48,5.0,100.0
17522,70.0,48,48,5.0,100.0
17523,68.0,48,48,5.0,100.0
17524,78.0,0,32,4.0,100.0
17525,58.0,0,238,7.0,127.0
17526,54.0,48,46,7.0,100.0
17527,80.0,48,32,4.0,100.0
17528,53.0,0,46,7.0,100.0
17529,66.0,48,160,5.0,100.0
17530,51.0,48,46,7.0,100.0
17531,50.0,0,46,7.0,100.0
17532,47.0,48,46,7.0,100.0
17533,46.0,48,46,7.0,100.0
17534,44.0,48,46,7.0,100.0
17535,43.0,48,32,7.0,100.0
17536,82.0,48,238,4.0,127.0
17537,79.0,48,48,4.0,100.0
17538,44.0,0,32,7.0,100.0
17539,77.0,48,48,4.0,100.0
17540,75.0,48,48,4.0,100.0
17541,46.0,0,32,7.0,100.0
17542,87.0,48,46,4.0,100.0
17543,83.0,48,48,4.0,100.0
17544,47.0,0,32,7.0,100.0
17545,82.0,48,48,4.0,100.0
17546,80.0,48,48,4.0,100.0
17547,92.0,48,46,4.0,100.0
17548,89.0,48,48,4.0,100.0
17549,87.0,48,48,4.0,100.0
17550,86.0,48,48,4.0,100.0
17551,59.0,0,240,7.0,127.0
17552,56.0,48,48,7.0,100.0
17553,54.0,48,48,7.0,100.0
17554,53.0,48,48,7.0,100.0
17555,92.0,48,238,4.0,127.0
17556,80.0,48,48,4.0,100.0
17557,78.0,48,48,4.0,100.0
17558,51.0,48,192,7.0,100.0
17559,77.0,48,48,4.0,100.0
17560,80.0,0,48,4.0,100.0
17561,77.0,48,48,4.0,100.0
17562,75.0,48,48,4.0,100.0
17563,58.0,0,336,6.0,100.0
17564,50.0,48,160,7.0,100.0
17565,74.0,48,46,4.0,100.0
17566,77.0,48,48,4.0,100.0
17567,74.0,0,72,7.0,127.0
17568,70.0,48,48,4.0,100.0
17569,75.0,24,24,7.0,100.0
17570,74.0,0,24,7.0,100.0
17571,75.0,24,24,7.0,100.0
17572,69.0,24,48,4.0,100.0
17573,74.0,24,24,7.0,100.0
17574,70.0,0,46,4.0,100.0
17575,75.0,24,24,7.0,100.0
17576,74.0,24,24,7.0,100.0
17577,75.0,24,24,7.0,100.0
17578,82.0,0,48,4.0,100.0
17579,74.0,24,24,7.0,100.0
17580,77.0,0,48,4.0,100.0
17581,75.0,24,24,7.0,100.0
17582,74.0,24,24,7.0,100.0
17583,75.0,24,24,7.0,100.0
17584,76.0,0,48,4.0,100.0
17585,74.0,0,24,7.0,100.0
17586,77.0,24,46,4.0,100.0
17587,75.0,24,24,7.0,100.0
17588,74.0,24,24,7.0,100.0
17589,89.0,0,48,4.0,100.0
17590,75.0,24,24,7.0,100.0
17591,74.0,24,24,7.0,100.0
17592,75.0,24,24,7.0,100.0
17593,82.0,0,48,4.0,100.0
17594,74.0,24,24,7.0,100.0
17595,81.0,0,48,4.0,100.0
17596,75.0,24,24,7.0,100.0
17597,74.0,24,24,7.0,100.0
17598,82.0,0,46,4.0,100.0
17599,75.0,24,24,7.0,100.0
17600,74.0,0,24,7.0,100.0
17601,94.0,24,48,4.0,100.0
17602,75.0,24,24,7.0,100.0
17603,74.0,0,24,7.0,100.0
17604,92.0,24,48,4.0,100.0
17605,75.0,24,24,7.0,100.0
17606,74.0,0,24,7.0,100.0
17607,90.0,24,48,4.0,100.0
17608,72.0,24,36,7.0,100.0
17609,74.0,12,36,7.0,100.0
17610,89.0,24,48,4.0,100.0
17611,90.0,36,160,4.0,100.0
17612,47.0,192,94,4.0,100.0
17613,47.0,0,94,5.0,100.0
17614,75.0,0,336,7.0,127.0
17615,75.0,192,94,7.0,100.0
17616,73.0,0,32,7.0,100.0
17617,65.0,96,32,7.0,100.0
17618,59.0,192,352,4.0,127.0
17619,59.0,0,352,5.0,127.0
17620,71.0,0,32,7.0,100.0
17621,63.0,0,32,7.0,100.0
17622,86.0,96,94,4.0,127.0
17623,70.0,96,32,7.0,100.0
17624,61.0,0,32,7.0,100.0
17625,68.0,0,32,7.0,100.0
17626,59.0,96,32,7.0,100.0
17627,58.0,96,32,7.0,100.0
17628,66.0,0,32,7.0,100.0
17629,87.0,0,352,4.0,127.0
17630,44.0,0,94,4.0,100.0
17631,44.0,192,94,5.0,100.0
17632,63.0,96,336,7.0,127.0
17633,71.0,0,336,7.0,127.0
17634,63.0,0,32,7.0,100.0
17635,71.0,192,32,7.0,100.0
17636,70.0,96,32,7.0,100.0
17637,61.0,0,32,7.0,100.0
17638,56.0,192,352,4.0,127.0
17639,56.0,0,352,5.0,127.0
17640,68.0,0,32,7.0,100.0
17641,59.0,0,32,7.0,100.0
17642,82.0,96,94,4.0,127.0
17643,58.0,0,32,7.0,100.0
17644,66.0,96,32,7.0,100.0
17645,65.0,0,32,7.0,100.0
17646,56.0,0,32,7.0,100.0
17647,54.0,0,32,7.0,100.0
17648,63.0,96,32,7.0,100.0
17649,83.0,96,352,4.0,127.0
17650,59.0,96,336,7.0,127.0
17651,68.0,0,336,7.0,127.0
17652,41.0,0,160,5.0,100.0
17653,41.0,192,160,4.0,100.0
17654,68.0,0,32,7.0,100.0
17655,59.0,192,32,7.0,100.0
17656,58.0,0,32,7.0,100.0
17657,66.0,96,32,7.0,100.0
17658,53.0,0,352,4.0,127.0
17659,53.0,192,352,5.0,127.0
17660,56.0,0,32,7.0,100.0
17661,65.0,96,32,7.0,100.0
17662,66.0,0,32,7.0,100.0
17663,58.0,96,32,7.0,100.0
17664,82.0,0,160,4.0,127.0
17665,56.0,96,32,7.0,100.0
17666,65.0,0,32,7.0,100.0
17667,54.0,96,32,7.0,100.0
17668,63.0,0,32,7.0,100.0
17669,53.0,96,70,7.0,127.0
17670,62.0,0,70,7.0,127.0
17671,63.0,0,32,7.0,100.0
17672,54.0,96,32,7.0,100.0
17673,83.0,0,352,4.0,127.0
17674,53.0,96,70,7.0,127.0
17675,62.0,0,70,7.0,127.0
17676,51.0,96,32,7.0,100.0
17677,60.0,0,32,7.0,100.0
17678,82.0,0,160,4.0,127.0
17679,50.0,96,70,7.0,127.0
17680,58.0,0,70,7.0,127.0
17681,51.0,96,32,7.0,100.0
17682,60.0,0,32,7.0,100.0
17683,53.0,96,70,7.0,127.0
17684,62.0,0,70,7.0,127.0
17685,54.0,0,32,7.0,100.0
17686,63.0,96,32,7.0,100.0
17687,64.0,0,70,7.0,127.0
17688,55.0,96,70,7.0,127.0
17689,56.0,96,32,7.0,100.0
17690,65.0,0,32,7.0,100.0
17691,80.0,0,528,4.0,127.0
17692,58.0,0,70,5.0,127.0
17693,66.0,96,70,5.0,127.0
17694,56.0,96,32,5.0,100.0
17695,65.0,0,32,5.0,100.0
17696,54.0,96,70,5.0,127.0
17697,63.0,0,70,5.0,127.0
17698,92.0,0,286,4.0,127.0
17699,56.0,96,32,5.0,100.0
17700,65.0,0,32,5.0,100.0
17701,58.0,0,70,5.0,127.0
17702,66.0,96,70,5.0,127.0
17703,90.0,0,94,4.0,127.0
17704,68.0,96,32,5.0,100.0
17705,59.0,0,32,5.0,100.0
17706,69.0,96,70,5.0,127.0
17707,65.0,0,70,5.0,127.0
17708,89.0,0,94,4.0,127.0
17709,66.0,0,32,5.0,100.0
17710,70.0,96,32,5.0,100.0
17711,68.0,0,70,5.0,127.0
17712,71.0,0,70,5.0,127.0
17713,87.0,96,94,4.0,127.0
17714,66.0,96,32,5.0,100.0
17715,70.0,0,32,5.0,100.0
17716,59.0,0,70,5.0,127.0
17717,68.0,0,70,5.0,127.0
17718,86.0,96,94,4.0,127.0
17719,66.0,96,32,5.0,100.0
17720,58.0,0,32,5.0,100.0
17721,65.0,0,70,5.0,127.0
17722,68.0,96,70,5.0,127.0
17723,63.0,96,32,5.0,127.0
17724,66.0,0,32,5.0,127.0
17725,65.0,0,70,5.0,100.0
17726,56.0,96,70,5.0,100.0
17727,58.0,96,32,5.0,127.0
17728,66.0,0,32,5.0,127.0
17729,56.0,96,70,5.0,127.0
17730,65.0,0,70,5.0,127.0
17731,63.0,96,32,5.0,127.0
17732,54.0,0,32,5.0,127.0
17733,34.0,0,528,6.0,100.0
17734,34.0,0,528,7.0,127.0
17735,46.0,0,528,7.0,127.0
17736,46.0,0,528,6.0,100.0
17737,62.0,0,70,5.0,127.0
17738,53.0,96,70,5.0,127.0
17739,63.0,96,32,5.0,127.0
17740,54.0,0,32,5.0,127.0
17741,62.0,0,70,5.0,127.0
17742,65.0,96,70,5.0,127.0
17743,63.0,96,32,5.0,127.0
17744,66.0,0,32,5.0,127.0
17745,65.0,96,70,5.0,127.0
17746,68.0,0,70,5.0,127.0
17747,66.0,0,32,5.0,127.0
17748,70.0,96,32,5.0,127.0
17749,44.0,0,528,7.0,127.0
17750,32.0,0,528,7.0,127.0
17751,44.0,0,528,6.0,100.0
17752,32.0,0,528,6.0,100.0
17753,72.0,0,70,5.0,127.0
17754,63.0,0,70,5.0,127.0
17755,74.0,96,32,5.0,127.0
17756,65.0,0,32,5.0,127.0
17757,66.0,96,70,5.0,127.0
17758,75.0,0,70,5.0,127.0
17759,44.0,0,286,6.0,100.0
17760,44.0,0,286,7.0,127.0
17761,32.0,0,286,6.0,100.0
17762,32.0,96,286,7.0,127.0
17763,68.0,96,32,5.0,127.0
17764,77.0,0,32,5.0,127.0
17765,78.0,0,70,5.0,127.0
17766,70.0,0,70,5.0,127.0
17767,42.0,0,94,6.0,100.0
17768,42.0,0,94,7.0,127.0
17769,30.0,96,94,7.0,127.0
17770,30.0,0,94,6.0,100.0
17771,71.0,0,32,5.0,127.0
17772,79.0,96,32,5.0,127.0
17773,77.0,0,70,5.0,127.0
17774,80.0,96,70,5.0,127.0
17775,41.0,0,94,7.0,127.0
17776,29.0,0,94,6.0,100.0
17777,41.0,0,94,6.0,100.0
17778,29.0,0,94,7.0,127.0
17779,82.0,0,32,5.0,127.0
17780,78.0,96,32,5.0,127.0
17781,83.0,0,48,5.0,127.0
17782,80.0,96,48,5.0,127.0
17783,27.0,0,94,7.0,127.0
17784,39.0,0,94,7.0,127.0
17785,39.0,0,94,6.0,100.0
17786,27.0,0,94,6.0,100.0
17787,78.0,96,94,5.0,127.0
17788,82.0,0,94,5.0,127.0
17789,80.0,0,48,5.0,127.0
17790,71.0,0,48,5.0,127.0
17791,26.0,96,94,7.0,127.0
17792,26.0,0,94,6.0,100.0
17793,38.0,0,94,6.0,100.0
17794,38.0,0,94,7.0,127.0
17795,78.0,0,94,5.0,127.0
17796,70.0,96,94,5.0,127.0
17797,39.0,0,94,7.0,127.0
17798,27.0,0,94,7.0,127.0
17799,27.0,0,94,6.0,100.0
17800,75.0,96,94,4.0,127.0
17801,68.0,0,94,5.0,127.0
17802,39.0,0,94,6.0,100.0
17803,58.0,0,32,7.0,127.0
17804,66.0,96,94,5.0,127.0
17805,56.0,96,32,7.0,127.0
17806,65.0,0,94,5.0,127.0
17807,73.0,0,94,4.0,127.0
17808,54.0,96,32,7.0,127.0
17809,63.0,0,94,5.0,127.0
17810,53.0,96,32,7.0,127.0
17811,61.0,0,94,5.0,127.0
17812,72.0,0,94,4.0,127.0
17813,51.0,96,32,7.0,127.0
17814,60.0,0,94,5.0,127.0
17815,58.0,0,32,5.0,127.0
17816,49.0,96,32,7.0,127.0
17817,48.0,0,32,7.0,127.0
17818,57.0,96,32,5.0,127.0
17819,46.0,96,32,7.0,127.0
17820,54.0,0,32,6.0,127.0
17821,53.0,0,32,6.0,127.0
17822,45.0,96,32,7.0,127.0
17823,42.0,0,32,7.0,127.0
17824,51.0,96,32,6.0,127.0
17825,49.0,96,32,6.0,127.0
17826,41.0,0,32,7.0,127.0
17827,63.0,0,528,4.0,127.0
17828,81.0,96,82,4.0,100.0
17829,73.0,0,94,5.0,100.0
17830,82.0,84,34,4.0,100.0
17831,81.0,24,34,4.0,100.0
17832,82.0,36,34,4.0,100.0
17833,72.0,12,94,5.0,100.0
17834,81.0,36,34,4.0,100.0
17835,82.0,36,34,4.0,100.0
17836,77.0,0,94,5.0,100.0
17837,81.0,36,34,4.0,100.0
17838,82.0,12,34,4.0,100.0
17839,81.0,36,34,4.0,100.0
17840,75.0,24,94,5.0,100.0
17841,82.0,36,34,4.0,100.0
17842,81.0,24,34,4.0,100.0
17843,73.0,12,94,5.0,100.0
17844,82.0,36,34,4.0,100.0
17845,81.0,36,34,4.0,100.0
17846,51.0,0,528,6.0,127.0
17847,39.0,0,528,7.0,127.0
17848,82.0,36,34,4.0,100.0
17849,72.0,0,94,5.0,100.0
17850,81.0,36,34,4.0,100.0
17851,82.0,12,34,4.0,100.0
17852,36.0,0,82,6.0,127.0
17853,81.0,36,34,4.0,100.0
17854,78.0,0,94,5.0,100.0
17855,82.0,36,34,4.0,100.0
17856,37.0,0,34,6.0,127.0
17857,81.0,24,22,4.0,100.0
17858,36.0,0,34,6.0,127.0
17859,79.0,24,22,4.0,100.0
17860,72.0,12,94,5.0,100.0
17861,37.0,12,34,6.0,127.0
17862,81.0,12,22,4.0,100.0
17863,36.0,0,34,6.0,127.0
17864,75.0,0,34,5.0,100.0
17865,37.0,36,34,6.0,127.0
17866,77.0,0,34,5.0,100.0
17867,36.0,36,34,6.0,127.0
17868,75.0,0,34,5.0,100.0
17869,77.0,0,34,5.0,100.0
17870,37.0,36,34,6.0,127.0
17871,36.0,0,34,6.0,127.0
17872,75.0,36,34,5.0,100.0
17873,37.0,0,34,6.0,127.0
17874,77.0,36,34,5.0,100.0
17875,36.0,36,34,6.0,127.0
17876,75.0,0,34,5.0,100.0
17877,77.0,36,34,5.0,100.0
17878,37.0,0,34,6.0,127.0
17879,75.0,36,34,5.0,100.0
17880,36.0,0,34,6.0,127.0
17881,37.0,36,34,6.0,127.0
17882,77.0,0,34,5.0,100.0
17883,36.0,0,34,6.0,127.0
17884,75.0,36,34,5.0,100.0
17885,37.0,36,34,6.0,127.0
17886,77.0,0,34,5.0,100.0
17887,75.0,36,34,5.0,100.0
17888,36.0,0,34,6.0,127.0
17889,77.0,36,34,5.0,100.0
17890,37.0,0,34,6.0,127.0
17891,36.0,36,22,6.0,127.0
17892,75.0,0,22,5.0,100.0
17893,82.0,24,528,4.0,100.0
17894,36.0,0,720,7.0,127.0
17895,24.0,24,720,7.0,127.0
17896,34.0,0,22,6.0,127.0
17897,73.0,24,22,5.0,100.0
17898,36.0,24,22,6.0,127.0
17899,75.0,0,22,5.0,100.0
17900,34.0,0,22,7.0,100.0
17901,36.0,24,22,7.0,100.0
17902,73.0,0,94,4.0,127.0
17903,82.0,24,94,4.0,127.0
17904,80.0,0,94,4.0,100.0
17905,72.0,48,94,4.0,100.0
17906,78.0,0,94,4.0,127.0
17907,70.0,96,94,4.0,127.0
17908,34.0,24,304,7.0,127.0
17909,77.0,0,94,4.0,100.0
17910,68.0,96,94,4.0,100.0
17911,66.0,0,94,4.0,127.0
17912,75.0,96,94,4.0,127.0
17913,34.0,0,528,6.0,127.0
17914,65.0,0,94,4.0,100.0
17915,73.0,96,94,4.0,100.0
17916,75.0,0,94,5.0,100.0
17917,34.0,0,94,7.0,127.0
17918,24.0,0,94,7.0,127.0
17919,36.0,0,94,7.0,127.0
17920,63.0,96,94,5.0,100.0
17921,25.0,96,94,7.0,127.0
17922,37.0,0,94,7.0,127.0
17923,65.0,0,94,5.0,100.0
17924,78.0,96,336,4.0,100.0
17925,66.0,0,94,5.0,100.0
17926,39.0,0,94,7.0,127.0
17927,27.0,96,94,7.0,127.0
17928,68.0,0,94,5.0,100.0
17929,41.0,0,94,7.0,127.0
17930,29.0,96,94,7.0,127.0
17931,30.0,0,94,7.0,127.0
17932,42.0,0,94,7.0,127.0
17933,78.0,96,94,5.0,100.0
17934,70.0,96,190,5.0,100.0
17935,77.0,0,94,5.0,100.0
17936,68.0,96,94,5.0,100.0
17937,66.0,96,94,5.0,100.0
17938,75.0,0,94,5.0,100.0
17939,37.0,0,336,7.0,127.0
17940,25.0,0,336,7.0,127.0
17941,65.0,0,94,5.0,100.0
17942,73.0,96,94,5.0,100.0
17943,79.0,0,46,4.0,100.0
17944,85.0,48,46,4.0,100.0
17945,82.0,48,46,4.0,100.0
17946,76.0,96,160,5.0,100.0
17947,79.0,48,46,4.0,100.0
17948,76.0,48,46,4.0,100.0
17949,82.0,48,46,4.0,100.0
17950,79.0,48,46,4.0,100.0
17951,76.0,48,46,4.0,100.0
17952,73.0,48,46,4.0,100.0
17953,79.0,48,46,4.0,100.0
17954,76.0,48,46,4.0,100.0
17955,36.0,0,528,7.0,127.0
17956,24.0,0,528,7.0,127.0
17957,73.0,48,46,4.0,100.0
17958,72.0,0,46,4.0,100.0
17959,52.0,48,82,6.0,127.0
17960,79.0,48,46,4.0,100.0
17961,53.0,36,34,6.0,127.0
17962,76.0,12,46,4.0,100.0
17963,52.0,24,34,6.0,127.0
17964,72.0,24,46,4.0,100.0
17965,53.0,12,34,6.0,127.0
17966,52.0,0,34,6.0,127.0
17967,73.0,36,46,4.0,100.0
17968,53.0,36,34,6.0,127.0
17969,82.0,12,46,4.0,100.0
17970,52.0,24,34,6.0,127.0
17971,79.0,24,46,4.0,100.0
17972,53.0,12,34,6.0,127.0
17973,52.0,0,34,6.0,127.0
17974,76.0,36,46,4.0,100.0
17975,53.0,36,34,6.0,127.0
17976,52.0,24,34,6.0,127.0
17977,53.0,36,34,6.0,127.0
17978,52.0,36,34,6.0,127.0
17979,52.0,0,528,7.0,127.0
17980,40.0,0,528,7.0,127.0
17981,70.0,0,528,5.0,100.0
17982,72.0,12,160,4.0,100.0
17983,50.0,36,34,6.0,127.0
17984,52.0,36,22,6.0,127.0
17985,55.0,24,82,6.0,127.0
17986,56.0,84,34,6.0,127.0
17987,55.0,36,34,6.0,127.0
17988,56.0,36,34,6.0,127.0
17989,55.0,0,34,6.0,127.0
17990,56.0,36,34,6.0,127.0
17991,55.0,36,34,6.0,127.0
17992,56.0,36,34,6.0,127.0
17993,55.0,36,34,6.0,127.0
17994,56.0,36,34,6.0,127.0
17995,55.0,36,34,6.0,127.0
17996,56.0,36,34,6.0,127.0
17997,55.0,36,34,6.0,127.0
17998,55.0,0,528,7.0,127.0
17999,82.0,36,336,4.0,127.0
18000,56.0,36,34,6.0,127.0
18001,55.0,36,22,6.0,127.0
18002,67.0,24,82,4.0,100.0
18003,68.0,84,34,4.0,100.0
18004,67.0,36,34,4.0,100.0
18005,68.0,36,34,4.0,100.0
18006,67.0,36,34,4.0,100.0
18007,68.0,36,34,4.0,100.0
18008,67.0,36,34,4.0,100.0
18009,68.0,36,34,4.0,100.0
18010,67.0,36,34,4.0,100.0
18011,68.0,36,34,4.0,100.0
18012,67.0,36,34,4.0,100.0
18013,68.0,36,34,4.0,100.0
18014,67.0,36,34,4.0,100.0
18015,29.0,0,528,7.0,127.0
18016,58.0,0,528,5.0,100.0
18017,68.0,36,34,4.0,100.0
18018,67.0,36,22,4.0,100.0
18019,45.0,0,82,7.0,127.0
18020,60.0,0,94,5.0,100.0
18021,46.0,84,34,7.0,127.0
18022,45.0,24,34,7.0,127.0
18023,65.0,24,160,4.0,127.0
18024,46.0,36,34,7.0,127.0
18025,45.0,36,34,7.0,127.0
18026,46.0,36,34,7.0,127.0
18027,45.0,36,34,7.0,127.0
18028,46.0,36,34,7.0,127.0
18029,45.0,36,34,7.0,127.0
18030,46.0,36,34,7.0,127.0
18031,45.0,36,34,7.0,127.0
18032,46.0,36,34,7.0,127.0
18033,45.0,36,34,7.0,127.0
18034,75.0,12,432,5.0,127.0
18035,45.0,0,528,6.0,127.0
18036,46.0,36,34,7.0,127.0
18037,45.0,36,22,7.0,127.0
18038,60.0,0,82,6.0,100.0
18039,61.0,84,34,6.0,100.0
18040,60.0,36,34,6.0,100.0
18041,61.0,36,34,6.0,100.0
18042,60.0,36,34,6.0,100.0
18043,61.0,36,34,6.0,100.0
18044,60.0,36,34,6.0,100.0
18045,61.0,36,34,6.0,100.0
18046,60.0,36,34,6.0,100.0
18047,61.0,36,34,6.0,100.0
18048,60.0,36,34,6.0,100.0
18049,61.0,36,34,6.0,100.0
18050,60.0,36,34,6.0,100.0
18051,60.0,24,528,7.0,127.0
18052,87.0,0,336,4.0,127.0
18053,61.0,36,34,6.0,100.0
18054,60.0,36,22,6.0,100.0
18055,72.0,0,82,4.0,100.0
18056,73.0,84,34,4.0,100.0
18057,72.0,36,34,4.0,100.0
18058,73.0,36,34,4.0,100.0
18059,72.0,36,34,4.0,100.0
18060,73.0,36,34,4.0,100.0
18061,72.0,36,34,4.0,100.0
18062,73.0,36,34,4.0,100.0
18063,63.0,24,352,5.0,127.0
18064,72.0,36,34,4.0,100.0
18065,73.0,36,34,4.0,100.0
18066,72.0,24,34,4.0,100.0
18067,73.0,36,34,4.0,100.0
18068,72.0,36,34,4.0,100.0
18069,34.0,0,528,7.0,127.0
18070,64.0,12,160,5.0,100.0
18071,73.0,36,34,4.0,100.0
18072,72.0,36,22,4.0,100.0
18073,49.0,0,82,7.0,127.0
18074,65.0,0,94,5.0,100.0
18075,51.0,84,34,7.0,127.0
18076,49.0,24,34,7.0,127.0
18077,70.0,24,160,4.0,127.0
18078,51.0,36,34,7.0,127.0
18079,49.0,36,34,7.0,127.0
18080,51.0,36,34,7.0,127.0
18081,49.0,36,34,7.0,127.0
18082,51.0,36,34,7.0,127.0
18083,49.0,36,34,7.0,127.0
18084,51.0,36,34,7.0,127.0
18085,49.0,36,34,7.0,127.0
18086,51.0,36,34,7.0,127.0
18087,49.0,36,34,7.0,127.0
18088,49.0,0,528,6.0,127.0
18089,73.0,12,432,5.0,127.0
18090,48.0,36,34,7.0,127.0
18091,49.0,36,22,7.0,127.0
18092,58.0,0,82,6.0,100.0
18093,60.0,84,34,6.0,100.0
18094,58.0,36,34,6.0,100.0
18095,60.0,36,34,6.0,100.0
18096,58.0,36,34,6.0,100.0
18097,60.0,36,34,6.0,100.0
18098,58.0,36,34,6.0,100.0
18099,60.0,36,34,6.0,100.0
18100,58.0,36,34,6.0,100.0
18101,60.0,36,34,6.0,100.0
18102,58.0,36,34,6.0,100.0
18103,60.0,36,34,6.0,100.0
18104,58.0,36,34,6.0,100.0
18105,51.0,0,528,7.0,127.0
18106,85.0,24,528,4.0,127.0
18107,57.0,36,34,6.0,100.0
18108,58.0,36,22,6.0,100.0
18109,70.0,0,82,4.0,100.0
18110,72.0,84,34,4.0,100.0
18111,70.0,36,34,4.0,100.0
18112,72.0,36,34,4.0,100.0
18113,70.0,36,34,4.0,100.0
18114,72.0,36,34,4.0,100.0
18115,56.0,24,286,6.0,100.0
18116,70.0,36,34,4.0,100.0
18117,72.0,12,34,4.0,100.0
18118,70.0,36,34,4.0,100.0
18119,55.0,24,94,6.0,100.0
18120,72.0,36,34,4.0,100.0
18121,70.0,24,34,4.0,100.0
18122,53.0,12,94,6.0,100.0
18123,72.0,36,34,4.0,100.0
18124,70.0,0,34,4.0,100.0
18125,61.0,0,528,5.0,127.0
18126,72.0,36,34,4.0,100.0
18127,51.0,36,94,6.0,100.0
18128,70.0,36,34,4.0,100.0
18129,72.0,12,34,4.0,100.0
18130,70.0,36,34,4.0,100.0
18131,50.0,24,94,6.0,100.0
18132,72.0,36,34,4.0,100.0
18133,70.0,24,34,4.0,100.0
18134,72.0,36,34,4.0,100.0
18135,51.0,12,94,6.0,100.0
18136,70.0,0,34,4.0,100.0
18137,72.0,36,34,4.0,100.0
18138,67.0,0,286,5.0,100.0
18139,70.0,36,34,4.0,100.0
18140,72.0,12,34,4.0,100.0
18141,70.0,36,34,4.0,100.0
18142,65.0,24,94,5.0,100.0
18143,72.0,36,34,4.0,100.0
18144,70.0,24,34,4.0,100.0
18145,72.0,36,34,4.0,100.0
18146,63.0,12,94,5.0,100.0
18147,70.0,36,34,4.0,100.0
18148,69.0,36,34,4.0,100.0
18149,61.0,0,94,5.0,100.0
18150,70.0,36,22,4.0,100.0
18151,60.0,0,94,5.0,100.0
18152,51.0,36,528,6.0,100.0
18153,61.0,96,94,5.0,100.0
18154,59.0,96,94,6.0,100.0
18155,77.0,24,288,4.0,100.0
18156,60.0,96,94,6.0,100.0
18157,75.0,0,96,4.0,100.0
18158,58.0,96,94,6.0,100.0
18159,73.0,0,96,4.0,100.0
18160,51.0,0,336,7.0,100.0
18161,56.0,96,94,6.0,100.0
18162,72.0,0,96,4.0,100.0
18163,51.0,96,84,7.0,127.0
18164,67.0,0,94,5.0,100.0
18165,71.0,0,96,4.0,100.0
18166,53.0,84,36,7.0,100.0
18167,51.0,24,36,7.0,100.0
18168,72.0,12,94,4.0,100.0
18169,68.0,0,94,5.0,100.0
18170,53.0,36,36,7.0,100.0
18171,51.0,0,36,7.0,100.0
18172,53.0,36,36,7.0,100.0
18173,69.0,36,94,5.0,100.0
18174,75.0,0,96,4.0,100.0
18175,51.0,36,36,7.0,100.0
18176,53.0,12,36,7.0,100.0
18177,51.0,36,36,7.0,100.0
18178,70.0,0,94,5.0,100.0
18179,73.0,24,96,4.0,100.0
18180,53.0,36,36,7.0,100.0
18181,51.0,24,36,7.0,100.0
18182,63.0,0,94,5.0,100.0
18183,72.0,12,96,4.0,100.0
18184,53.0,36,36,7.0,100.0
18185,51.0,0,36,7.0,100.0
18186,50.0,36,36,7.0,100.0
18187,70.0,0,96,4.0,100.0
18188,51.0,36,24,7.0,100.0
18189,61.0,36,160,5.0,100.0
18190,53.0,24,96,7.0,100.0
18191,68.0,0,96,4.0,100.0
18192,70.0,96,96,4.0,100.0
18193,55.0,0,96,7.0,100.0
18194,56.0,0,46,7.0,100.0
18195,48.0,48,46,7.0,100.0
18196,61.0,0,192,5.0,100.0
18197,51.0,0,46,7.0,100.0
18198,63.0,96,160,4.0,100.0
18199,60.0,48,94,5.0,100.0
18200,56.0,48,46,7.0,100.0
18201,60.0,48,32,7.0,100.0
18202,80.0,48,48,4.0,100.0
18203,61.0,48,32,7.0,100.0
18204,79.0,0,48,4.0,100.0
18205,77.0,48,48,4.0,100.0
18206,75.0,48,32,4.0,100.0
18207,70.0,48,48,5.0,100.0
18208,79.0,48,32,4.0,100.0
18209,72.0,0,48,5.0,100.0
18210,63.0,0,160,7.0,100.0
18211,73.0,48,48,5.0,100.0
18212,72.0,0,46,5.0,100.0
18213,80.0,48,94,4.0,100.0
18214,60.0,48,48,5.0,100.0
18215,63.0,48,48,5.0,100.0
18216,68.0,48,48,5.0,100.0
18217,72.0,48,32,5.0,100.0
18218,84.0,48,48,4.0,100.0
18219,73.0,48,32,5.0,100.0
18220,82.0,0,48,4.0,100.0
18221,80.0,48,48,4.0,100.0
18222,58.0,48,48,7.0,100.0
18223,60.0,48,48,7.0,100.0
18224,79.0,48,160,4.0,100.0
18225,61.0,48,48,7.0,100.0
18226,80.0,48,46,4.0,100.0
18227,75.0,0,286,5.0,100.0
18228,72.0,48,48,4.0,100.0
18229,75.0,48,48,4.0,100.0
18230,63.0,0,160,7.0,100.0
18231,80.0,48,48,4.0,100.0
18232,84.0,48,32,4.0,100.0
18233,56.0,48,46,7.0,100.0
18234,85.0,48,32,4.0,100.0
18235,55.0,0,46,7.0,100.0
18236,53.0,48,46,7.0,100.0
18237,55.0,48,48,6.0,100.0
18238,56.0,48,48,6.0,100.0
18239,51.0,0,160,7.0,100.0
18240,87.0,48,160,4.0,127.0
18241,58.0,48,48,6.0,100.0
18242,60.0,48,68,6.0,100.0
18243,72.0,48,48,4.0,100.0
18244,61.0,48,32,6.0,100.0
18245,70.0,0,48,4.0,100.0
18246,68.0,48,48,4.0,100.0
18247,53.0,48,46,7.0,100.0
18248,51.0,48,46,7.0,100.0
18249,67.0,48,160,4.0,100.0
18250,49.0,48,46,7.0,100.0
18251,63.0,0,238,5.0,127.0
18252,48.0,48,94,7.0,100.0
18253,60.0,48,46,5.0,100.0
18254,58.0,48,46,5.0,100.0
18255,50.0,0,46,7.0,100.0
18256,52.0,0,46,7.0,100.0
18257,56.0,48,46,5.0,100.0
18258,68.0,0,238,4.0,100.0
18259,60.0,0,94,5.0,127.0
18260,68.0,48,48,4.0,100.0
18261,72.0,48,48,4.0,100.0
18262,53.0,48,160,7.0,127.0
18263,77.0,48,48,4.0,100.0
18264,80.0,48,32,4.0,100.0
18265,77.0,48,46,5.0,100.0
18266,82.0,0,32,4.0,100.0
18267,75.0,48,46,5.0,100.0
18268,73.0,48,46,5.0,100.0
18269,52.0,48,48,7.0,100.0
18270,53.0,48,48,7.0,100.0
18271,55.0,48,48,7.0,100.0
18272,56.0,48,32,7.0,100.0
18273,72.0,48,238,5.0,100.0
18274,68.0,48,46,5.0,100.0
18275,58.0,48,32,7.0,100.0
18276,67.0,0,46,5.0,100.0
18277,84.0,0,352,4.0,100.0
18278,65.0,48,46,5.0,100.0
18279,80.0,48,48,4.0,100.0
18280,79.0,48,48,4.0,100.0
18281,77.0,48,48,4.0,100.0
18282,76.0,48,32,4.0,100.0
18283,68.0,0,238,5.0,100.0
18284,60.0,48,238,7.0,100.0
18285,72.0,0,46,5.0,100.0
18286,56.0,48,46,7.0,100.0
18287,77.0,0,32,4.0,100.0
18288,55.0,0,46,7.0,100.0
18289,70.0,48,46,5.0,100.0
18290,53.0,0,46,7.0,100.0
18291,68.0,48,46,5.0,100.0
18292,80.0,0,32,4.0,100.0
18293,60.0,48,46,7.0,100.0
18294,65.0,48,46,7.0,100.0
18295,82.0,0,32,4.0,100.0
18296,64.0,48,46,7.0,100.0
18297,62.0,48,46,7.0,100.0
18298,60.0,0,46,7.0,100.0
18299,72.0,0,46,5.0,100.0
18300,58.0,48,46,7.0,100.0
18301,74.0,0,46,5.0,100.0
18302,56.0,48,46,7.0,100.0
18303,76.0,48,46,5.0,100.0
18304,55.0,0,46,7.0,100.0
18305,84.0,48,238,4.0,100.0
18306,80.0,48,48,4.0,100.0
18307,79.0,48,48,4.0,100.0
18308,53.0,0,160,7.0,100.0
18309,77.0,48,160,5.0,100.0
18310,77.0,48,48,4.0,100.0
18311,81.0,0,32,4.0,100.0
18312,60.0,48,46,7.0,100.0
18313,63.0,48,46,7.0,100.0
18314,82.0,0,32,4.0,100.0
18315,61.0,48,46,7.0,100.0
18316,60.0,48,46,7.0,100.0
18317,58.0,0,46,7.0,100.0
18318,72.0,48,46,5.0,100.0
18319,57.0,0,46,7.0,100.0
18320,74.0,0,46,5.0,100.0
18321,55.0,48,46,7.0,100.0
18322,53.0,48,46,7.0,100.0
18323,76.0,0,46,5.0,100.0
18324,84.0,48,238,4.0,100.0
18325,81.0,48,48,4.0,100.0
18326,79.0,48,48,4.0,100.0
18327,77.0,0,160,5.0,100.0
18328,51.0,48,160,7.0,100.0
18329,77.0,48,48,4.0,100.0
18330,82.0,48,32,4.0,100.0
18331,49.0,0,46,7.0,100.0
18332,61.0,48,46,7.0,100.0
18333,84.0,0,32,4.0,100.0
18334,60.0,48,46,7.0,100.0
18335,58.0,48,46,7.0,100.0
18336,57.0,48,46,7.0,100.0
18337,55.0,48,46,7.0,100.0
18338,77.0,0,46,5.0,100.0
18339,79.0,0,46,5.0,100.0
18340,53.0,48,46,7.0,100.0
18341,81.0,48,46,5.0,100.0
18342,51.0,0,46,7.0,100.0
18343,85.0,0,238,4.0,100.0
18344,82.0,48,48,4.0,100.0
18345,78.0,48,48,4.0,100.0
18346,82.0,0,160,5.0,100.0
18347,49.0,48,160,7.0,100.0
18348,77.0,48,48,4.0,100.0
18349,75.0,48,32,5.0,100.0
18350,48.0,0,46,7.0,100.0
18351,60.0,48,46,7.0,100.0
18352,77.0,0,32,5.0,100.0
18353,58.0,48,46,7.0,100.0
18354,81.0,0,160,4.0,100.0
18355,57.0,48,46,7.0,100.0
18356,54.0,48,46,7.0,100.0
18357,53.0,0,46,7.0,100.0
18358,81.0,48,46,4.0,100.0
18359,84.0,48,46,4.0,100.0
18360,51.0,0,46,7.0,100.0
18361,85.0,48,46,4.0,100.0
18362,49.0,0,46,7.0,100.0
18363,78.0,0,238,5.0,100.0
18364,75.0,48,46,5.0,100.0
18365,73.0,48,46,5.0,100.0
18366,48.0,0,160,7.0,100.0
18367,87.0,48,160,4.0,100.0
18368,72.0,48,46,5.0,100.0
18369,50.0,0,32,7.0,127.0
18370,38.0,0,32,7.0,127.0
18371,77.0,48,46,5.0,100.0
18372,82.0,48,46,5.0,100.0
18373,39.0,0,32,7.0,127.0
18374,51.0,48,32,7.0,127.0
18375,81.0,0,46,5.0,100.0
18376,79.0,48,46,5.0,100.0
18377,77.0,0,46,5.0,100.0
18378,75.0,48,46,5.0,100.0
18379,74.0,48,46,5.0,100.0
18380,72.0,48,46,5.0,100.0
18381,41.0,0,238,7.0,127.0
18382,73.0,0,46,4.0,100.0
18383,53.0,48,238,7.0,127.0
18384,77.0,48,46,4.0,100.0
18385,50.0,0,48,7.0,100.0
18386,78.0,0,46,4.0,100.0
18387,48.0,48,48,7.0,100.0
18388,80.0,0,46,4.0,100.0
18389,46.0,48,48,7.0,100.0
18390,51.0,0,32,7.0,127.0
18391,39.0,0,32,7.0,127.0
18392,79.0,48,46,4.0,100.0
18393,82.0,48,46,4.0,100.0
18394,70.0,48,286,5.0,100.0
18395,53.0,0,32,7.0,127.0
18396,41.0,0,32,7.0,127.0
18397,80.0,48,46,4.0,100.0
18398,79.0,48,46,4.0,100.0
18399,77.0,0,46,4.0,100.0
18400,75.0,48,46,4.0,100.0
18401,74.0,0,46,4.0,100.0
18402,72.0,48,46,4.0,100.0
18403,63.0,48,142,5.0,100.0
18404,55.0,48,238,7.0,127.0
18405,43.0,0,238,7.0,127.0
18406,67.0,48,46,5.0,100.0
18407,51.0,0,48,7.0,100.0
18408,68.0,48,46,5.0,100.0
18409,47.0,0,48,7.0,100.0
18410,70.0,48,160,4.0,100.0
18411,70.0,48,46,5.0,100.0
18412,46.0,0,48,7.0,100.0
18413,43.0,48,32,7.0,127.0
18414,55.0,0,32,7.0,127.0
18415,63.0,0,46,5.0,100.0
18416,75.0,48,46,5.0,100.0
18417,44.0,0,32,7.0,127.0
18418,56.0,48,32,7.0,127.0
18419,73.0,0,46,5.0,100.0
18420,72.0,48,46,5.0,100.0
18421,70.0,48,46,5.0,100.0
18422,68.0,48,46,5.0,100.0
18423,67.0,48,46,5.0,100.0
18424,65.0,48,46,5.0,100.0
18425,46.0,0,238,7.0,127.0
18426,58.0,0,238,7.0,127.0
18427,67.0,0,46,4.0,100.0
18428,70.0,0,46,4.0,100.0
18429,55.0,48,48,7.0,100.0
18430,72.0,48,46,4.0,100.0
18431,53.0,0,48,7.0,100.0
18432,73.0,0,46,4.0,100.0
18433,51.0,48,48,7.0,100.0
18434,44.0,0,32,7.0,127.0
18435,56.0,48,32,7.0,127.0
18436,72.0,0,46,4.0,100.0
18437,63.0,48,286,5.0,100.0
18438,84.0,48,46,4.0,100.0
18439,58.0,0,32,7.0,127.0
18440,46.0,48,32,7.0,127.0
18441,82.0,0,46,4.0,100.0
18442,80.0,48,46,4.0,100.0
18443,79.0,0,46,4.0,100.0
18444,77.0,48,46,4.0,100.0
18445,75.0,48,46,4.0,100.0
18446,73.0,48,46,4.0,100.0
18447,63.0,48,32,5.0,100.0
18448,60.0,48,238,7.0,127.0
18449,48.0,0,238,7.0,127.0
18450,56.0,48,48,7.0,100.0
18451,65.0,0,32,5.0,100.0
18452,51.0,48,48,7.0,100.0
18453,48.0,48,48,7.0,100.0
18454,68.0,0,32,5.0,100.0
18455,56.0,48,48,7.0,100.0
18456,72.0,0,286,4.0,100.0
18457,51.0,48,48,7.0,100.0
18458,70.0,0,32,5.0,100.0
18459,48.0,0,48,7.0,100.0
18460,79.0,48,94,4.0,100.0
18461,44.0,48,48,7.0,100.0
18462,72.0,0,32,5.0,100.0
18463,51.0,48,48,7.0,100.0
18464,48.0,48,48,7.0,100.0
18465,73.0,48,32,5.0,100.0
18466,44.0,0,48,7.0,100.0
18467,39.0,48,48,7.0,100.0
18468,42.0,48,48,7.0,100.0
18469,80.0,0,288,4.0,100.0
18470,51.0,48,48,7.0,100.0
18471,48.0,48,48,7.0,100.0
18472,75.0,0,160,5.0,127.0
18473,82.0,0,96,4.0,100.0
18474,42.0,48,48,7.0,100.0
18475,53.0,0,32,7.0,127.0
18476,41.0,0,32,7.0,127.0
18477,73.0,48,46,5.0,100.0
18478,77.0,48,46,5.0,100.0
18479,54.0,48,32,7.0,127.0
18480,42.0,0,32,7.0,127.0
18481,75.0,0,46,5.0,100.0
18482,84.0,0,160,4.0,100.0
18483,73.0,48,46,5.0,100.0
18484,72.0,48,46,5.0,100.0
18485,70.0,48,46,5.0,100.0
18486,68.0,48,46,5.0,100.0
18487,66.0,48,46,5.0,100.0
18488,68.0,48,32,4.0,100.0
18489,44.0,0,238,7.0,127.0
18490,56.0,0,238,7.0,127.0
18491,53.0,48,48,7.0,100.0
18492,72.0,48,32,4.0,100.0
18493,49.0,0,48,7.0,100.0
18494,44.0,48,48,7.0,100.0
18495,53.0,48,48,7.0,100.0
18496,65.0,0,286,5.0,100.0
18497,49.0,48,48,7.0,100.0
18498,44.0,48,48,7.0,100.0
18499,66.0,0,94,5.0,100.0
18500,41.0,48,48,7.0,100.0
18501,49.0,0,48,7.0,100.0
18502,73.0,0,256,4.0,127.0
18503,44.0,48,48,7.0,100.0
18504,41.0,0,48,7.0,100.0
18505,37.0,48,48,7.0,100.0
18506,76.0,48,96,4.0,100.0
18507,44.0,48,48,7.0,100.0
18508,68.0,48,256,5.0,127.0
18509,77.0,0,96,4.0,100.0
18510,41.0,48,48,7.0,100.0
18511,39.0,0,48,7.0,100.0
18512,78.0,0,96,4.0,100.0
18513,37.0,48,48,7.0,100.0
18514,58.0,0,32,7.0,127.0
18515,46.0,0,32,7.0,127.0
18516,79.0,48,48,4.0,100.0
18517,82.0,48,48,4.0,100.0
18518,47.0,0,32,7.0,127.0
18519,59.0,0,32,7.0,127.0
18520,80.0,48,48,4.0,100.0
18521,70.0,48,256,5.0,100.0
18522,78.0,48,48,4.0,100.0
18523,77.0,48,48,4.0,100.0
18524,75.0,48,48,4.0,100.0
18525,73.0,48,48,4.0,100.0
18526,71.0,48,48,4.0,100.0
18527,49.0,0,238,7.0,127.0
18528,61.0,0,238,7.0,127.0
18529,61.0,48,94,5.0,100.0
18530,58.0,48,48,7.0,100.0
18531,54.0,48,48,7.0,100.0
18532,65.0,0,94,5.0,100.0
18533,49.0,48,48,7.0,100.0
18534,58.0,48,48,7.0,100.0
18535,70.0,0,286,4.0,100.0
18536,54.0,48,48,7.0,100.0
18537,49.0,48,48,7.0,100.0
18538,71.0,0,94,4.0,100.0
18539,46.0,48,48,7.0,100.0
18540,54.0,48,48,7.0,100.0
18541,66.0,0,256,5.0,100.0
18542,49.0,48,48,7.0,100.0
18543,46.0,0,48,7.0,100.0
18544,68.0,48,94,5.0,100.0
18545,42.0,48,48,7.0,100.0
18546,49.0,0,48,7.0,100.0
18547,70.0,48,94,5.0,100.0
18548,73.0,0,288,4.0,127.0
18549,46.0,48,48,7.0,100.0
18550,44.0,0,48,7.0,100.0
18551,78.0,48,94,5.0,100.0
18552,42.0,48,48,7.0,100.0
18553,82.0,0,96,4.0,100.0
18554,50.0,0,32,7.0,127.0
18555,38.0,0,32,7.0,127.0
18556,78.0,0,46,5.0,100.0
18557,83.0,48,94,4.0,100.0
18558,74.0,48,48,5.0,100.0
18559,52.0,0,32,7.0,127.0
18560,40.0,0,32,7.0,127.0
18561,73.0,48,48,5.0,100.0
18562,71.0,48,48,5.0,100.0
18563,70.0,0,48,5.0,100.0
18564,67.0,48,48,5.0,100.0
18565,66.0,48,48,5.0,100.0
18566,64.0,48,48,5.0,100.0
18567,66.0,0,32,4.0,100.0
18568,54.0,48,238,7.0,127.0
18569,42.0,0,238,7.0,127.0
18570,50.0,48,48,7.0,100.0
18571,70.0,0,32,4.0,100.0
18572,47.0,48,48,7.0,100.0
18573,62.0,48,160,5.0,100.0
18574,42.0,48,48,7.0,100.0
18575,62.0,48,32,5.0,100.0
18576,50.0,0,48,7.0,100.0
18577,47.0,48,48,7.0,100.0
18578,64.0,48,32,5.0,100.0
18579,42.0,0,48,7.0,100.0
18580,38.0,48,48,7.0,100.0
18581,47.0,48,48,7.0,100.0
18582,71.0,0,256,4.0,100.0
18583,42.0,48,48,7.0,100.0
18584,73.0,0,32,4.0,100.0
18585,38.0,48,48,7.0,100.0
18586,35.0,48,48,7.0,100.0
18587,74.0,0,32,4.0,100.0
18588,42.0,48,48,7.0,100.0
18589,66.0,0,256,5.0,127.0
18590,38.0,48,48,7.0,100.0
18591,73.0,48,32,5.0,100.0
18592,76.0,0,32,4.0,100.0
18593,37.0,0,48,7.0,100.0
18594,35.0,48,48,7.0,100.0
18595,74.0,48,32,5.0,100.0
18596,78.0,0,32,4.0,100.0
18597,30.0,0,94,7.0,127.0
18598,82.0,96,32,4.0,100.0
18599,73.0,0,48,5.0,100.0
18600,71.0,48,48,5.0,100.0
18601,74.0,48,48,5.0,100.0
18602,71.0,48,48,5.0,100.0
18603,67.0,48,48,6.0,100.0
18604,66.0,48,48,6.0,100.0
18605,71.0,48,48,6.0,100.0
18606,83.0,0,256,4.0,127.0
18607,66.0,48,48,6.0,100.0
18608,85.0,48,32,4.0,100.0
18609,64.0,0,48,6.0,100.0
18610,62.0,48,48,6.0,100.0
18611,86.0,0,32,4.0,100.0
18612,66.0,48,48,7.0,100.0
18613,62.0,48,48,7.0,100.0
18614,88.0,48,32,4.0,100.0
18615,61.0,0,48,7.0,100.0
18616,59.0,48,48,7.0,100.0
18617,90.0,48,32,4.0,127.0
18618,62.0,0,48,7.0,100.0
18619,59.0,48,48,7.0,100.0
18620,55.0,48,48,7.0,100.0
18621,54.0,48,48,7.0,100.0
18622,55.0,48,48,7.0,100.0
18623,78.0,0,94,4.0,100.0
18624,54.0,48,48,7.0,100.0
18625,56.0,48,48,7.0,100.0
18626,58.0,48,48,7.0,100.0
18627,59.0,48,48,7.0,100.0
18628,61.0,48,48,7.0,100.0
18629,62.0,48,48,7.0,100.0
18630,64.0,48,48,7.0,100.0
18631,66.0,48,48,7.0,100.0
18632,67.0,48,48,7.0,100.0
18633,66.0,48,48,7.0,100.0
18634,65.0,48,48,7.0,100.0
18635,64.0,48,48,7.0,100.0
18636,62.0,48,48,7.0,100.0
18637,61.0,48,48,7.0,100.0
18638,78.0,0,192,4.0,100.0
18639,59.0,48,48,7.0,100.0
18640,61.0,48,48,7.0,100.0
18641,62.0,48,48,7.0,100.0
18642,61.0,48,48,7.0,100.0
18643,60.0,48,48,7.0,100.0
18644,59.0,48,48,7.0,100.0
18645,58.0,48,48,7.0,100.0
18646,56.0,48,48,7.0,100.0
18647,54.0,48,48,7.0,100.0
18648,76.0,0,384,4.0,100.0
18649,56.0,48,48,7.0,100.0
18650,58.0,48,48,7.0,100.0
18651,59.0,48,48,7.0,100.0
18652,58.0,48,48,7.0,100.0
18653,73.0,0,192,4.0,100.0
18654,59.0,48,48,7.0,100.0
18655,61.0,48,48,7.0,100.0
18656,62.0,48,48,7.0,100.0
18657,61.0,48,48,7.0,100.0
18658,62.0,48,48,7.0,100.0
18659,64.0,48,48,7.0,100.0
18660,74.0,0,384,4.0,100.0
18661,64.0,144,160,7.0,100.0
18662,59.0,192,46,7.0,100.0
18663,61.0,48,46,7.0,100.0
18664,62.0,48,46,7.0,100.0
18665,64.0,48,46,7.0,100.0
18666,73.0,0,384,4.0,100.0
18667,66.0,0,46,7.0,100.0
18668,67.0,48,46,7.0,100.0
18669,71.0,48,160,4.0,100.0
18670,67.0,0,160,7.0,100.0
18671,62.0,192,46,7.0,100.0
18672,64.0,48,46,7.0,100.0
18673,66.0,48,46,7.0,100.0
18674,68.0,48,46,7.0,100.0
18675,71.0,144,384,4.0,100.0
18676,70.0,0,46,7.0,100.0
18677,71.0,48,46,7.0,100.0
18678,66.0,48,192,4.0,100.0
18679,71.0,0,160,7.0,100.0
18680,74.0,144,192,4.0,100.0
18681,70.0,192,72,7.0,100.0
18682,71.0,72,24,7.0,100.0
18683,70.0,24,24,7.0,100.0
18684,71.0,24,24,7.0,100.0
18685,70.0,24,24,7.0,100.0
18686,73.0,0,192,4.0,100.0
18687,71.0,24,24,7.0,100.0
18688,70.0,0,24,7.0,100.0
18689,71.0,24,24,7.0,100.0
18690,70.0,24,24,7.0,100.0
18691,66.0,24,94,4.0,100.0
18692,71.0,24,24,7.0,100.0
18693,70.0,24,24,7.0,100.0
18694,68.0,24,36,7.0,100.0
18695,70.0,36,36,7.0,100.0
18696,82.0,36,72,4.0,100.0
18697,54.0,0,94,7.0,127.0
18698,83.0,72,24,4.0,100.0
18699,82.0,24,24,4.0,100.0
18700,83.0,24,24,4.0,100.0
18701,82.0,24,24,4.0,100.0
18702,83.0,24,24,4.0,100.0
18703,82.0,24,24,4.0,100.0
18704,83.0,24,24,4.0,100.0
18705,82.0,24,24,4.0,100.0
18706,83.0,24,22,4.0,100.0
18707,82.0,24,22,4.0,100.0
18708,80.0,24,36,4.0,100.0
18709,82.0,36,36,4.0,100.0
18710,59.0,36,94,7.0,127.0
18711,83.0,0,160,4.0,100.0
18712,74.0,192,72,7.0,100.0
18713,76.0,72,24,7.0,100.0
18714,74.0,0,24,7.0,100.0
18715,76.0,24,24,7.0,100.0
18716,83.0,24,48,4.0,100.0
18717,74.0,0,24,7.0,100.0
18718,81.0,24,48,4.0,100.0
18719,76.0,24,24,7.0,100.0
18720,74.0,0,24,7.0,100.0
18721,76.0,24,24,7.0,100.0
18722,79.0,24,48,4.0,100.0
18723,74.0,24,24,7.0,100.0
18724,76.0,24,22,7.0,100.0
18725,78.0,0,48,4.0,100.0
18726,74.0,24,22,7.0,100.0
18727,76.0,0,48,4.0,100.0
18728,73.0,24,36,7.0,100.0
18729,78.0,24,48,4.0,100.0
18730,74.0,12,36,7.0,100.0
18731,79.0,36,48,4.0,100.0
18732,81.0,48,48,4.0,100.0
18733,79.0,48,48,4.0,100.0
18734,76.0,0,160,7.0,100.0
18735,78.0,48,48,4.0,100.0
18736,76.0,0,48,4.0,100.0
18737,45.0,0,94,7.0,127.0
18738,74.0,48,48,4.0,100.0
18739,73.0,48,48,4.0,100.0
18740,67.0,48,160,5.0,100.0
18741,74.0,48,48,4.0,100.0
18742,76.0,48,48,4.0,100.0
18743,61.0,0,72,7.0,100.0
18744,74.0,48,48,4.0,100.0
18745,62.0,24,24,7.0,100.0
18746,61.0,0,24,7.0,100.0
18747,73.0,24,48,4.0,100.0
18748,62.0,24,24,7.0,100.0
18749,61.0,24,24,7.0,100.0
18750,62.0,24,24,7.0,100.0
18751,71.0,0,48,4.0,100.0
18752,61.0,24,24,7.0,100.0
18753,62.0,24,24,7.0,100.0
18754,69.0,0,48,4.0,100.0
18755,61.0,0,24,7.0,100.0
18756,62.0,24,22,7.0,100.0
18757,68.0,24,48,4.0,100.0
18758,61.0,24,22,7.0,100.0
18759,69.0,0,48,4.0,100.0
18760,59.0,24,36,7.0,100.0
18761,67.0,24,48,4.0,100.0
18762,61.0,12,36,7.0,100.0
18763,66.0,36,48,4.0,100.0
18764,69.0,48,48,4.0,100.0
18765,71.0,0,48,4.0,100.0
18766,62.0,0,160,7.0,100.0
18767,69.0,48,96,5.0,100.0
18768,73.0,48,48,4.0,100.0
18769,74.0,48,48,4.0,100.0
18770,71.0,0,96,5.0,100.0
18771,76.0,48,48,4.0,100.0
18772,78.0,0,48,4.0,100.0
18773,67.0,48,96,5.0,100.0
18774,79.0,48,48,4.0,100.0
18775,81.0,48,48,4.0,100.0
18776,83.0,48,48,4.0,100.0
18777,66.0,0,96,5.0,100.0
18778,81.0,48,48,4.0,100.0
18779,65.0,0,94,5.0,100.0
18780,80.0,48,48,4.0,100.0
18781,79.0,0,48,4.0,100.0
18782,78.0,48,48,4.0,100.0
18783,76.0,48,48,4.0,100.0
18784,57.0,0,160,7.0,100.0
18785,75.0,48,48,4.0,100.0
18786,76.0,0,48,4.0,100.0
18787,78.0,48,48,4.0,100.0
18788,76.0,48,48,4.0,100.0
18789,75.0,48,48,4.0,100.0
18790,66.0,48,384,6.0,100.0
18791,74.0,0,48,4.0,100.0
18792,73.0,48,48,4.0,100.0
18793,71.0,48,48,4.0,100.0
18794,69.0,48,48,4.0,100.0
18795,64.0,48,192,6.0,100.0
18796,55.0,48,384,7.0,100.0
18797,71.0,48,48,4.0,100.0
18798,73.0,48,48,4.0,100.0
18799,74.0,48,48,4.0,100.0
18800,73.0,48,48,4.0,100.0
18801,55.0,0,192,6.0,100.0
18802,52.0,0,192,7.0,100.0
18803,74.0,48,48,4.0,100.0
18804,76.0,48,48,4.0,100.0
18805,78.0,48,48,4.0,100.0
18806,59.0,0,192,6.0,100.0
18807,76.0,48,48,4.0,100.0
18808,78.0,48,48,4.0,100.0
18809,79.0,48,46,4.0,100.0
18810,57.0,0,192,6.0,100.0
18811,54.0,0,384,7.0,100.0
18812,79.0,144,160,4.0,100.0
18813,74.0,192,46,4.0,100.0
18814,76.0,48,46,4.0,100.0
18815,78.0,48,46,4.0,100.0
18816,79.0,48,46,4.0,100.0
18817,55.0,0,384,6.0,100.0
18818,52.0,0,384,7.0,100.0
18819,81.0,0,46,4.0,100.0
18820,83.0,48,46,4.0,100.0
18821,50.0,0,192,7.0,100.0
18822,54.0,48,192,6.0,100.0
18823,83.0,144,160,4.0,100.0
18824,78.0,192,46,4.0,100.0
18825,79.0,48,46,4.0,100.0
18826,55.0,0,288,6.0,100.0
18827,81.0,0,46,4.0,100.0
18828,83.0,48,46,4.0,100.0
18829,50.0,0,384,7.0,100.0
18830,54.0,48,96,6.0,100.0
18831,85.0,0,46,4.0,100.0
18832,86.0,48,46,4.0,100.0
18833,52.0,0,96,6.0,100.0
18834,54.0,48,96,6.0,100.0
18835,45.0,48,192,7.0,100.0
18836,56.0,96,96,6.0,100.0
18837,86.0,0,160,4.0,100.0
18838,57.0,96,94,6.0,100.0
18839,54.0,0,192,7.0,100.0
18840,85.0,0,72,4.0,100.0
18841,86.0,72,24,4.0,100.0
18842,85.0,24,24,4.0,100.0
18843,86.0,24,24,4.0,100.0
18844,85.0,24,24,4.0,100.0
18845,86.0,24,24,4.0,100.0
18846,52.0,96,192,7.0,100.0
18847,85.0,24,24,4.0,100.0
18848,86.0,24,24,4.0,100.0
18849,85.0,24,24,4.0,100.0
18850,86.0,24,22,4.0,100.0
18851,85.0,24,22,4.0,100.0
18852,83.0,24,36,4.0,100.0
18853,46.0,0,160,7.0,100.0
18854,85.0,36,36,4.0,100.0
18855,55.0,0,384,6.0,100.0
18856,54.0,36,94,6.0,100.0
18857,70.0,0,94,4.0,100.0
18858,70.0,192,72,5.0,100.0
18859,71.0,72,24,5.0,100.0
18860,70.0,24,24,5.0,100.0
18861,71.0,24,24,5.0,100.0
18862,70.0,24,24,5.0,100.0
18863,78.0,0,192,4.0,100.0
18864,71.0,24,24,5.0,100.0
18865,70.0,0,24,5.0,100.0
18866,71.0,24,24,5.0,100.0
18867,70.0,24,24,5.0,100.0
18868,71.0,24,24,5.0,100.0
18869,70.0,24,24,5.0,100.0
18870,71.0,24,24,5.0,100.0
18871,70.0,24,24,5.0,100.0
18872,76.0,24,192,4.0,100.0
18873,71.0,24,24,5.0,100.0
18874,70.0,0,24,5.0,100.0
18875,71.0,24,24,5.0,100.0
18876,54.0,0,48,7.0,100.0
18877,70.0,24,24,5.0,100.0
18878,71.0,24,22,5.0,100.0
18879,52.0,0,48,7.0,100.0
18880,70.0,24,22,5.0,100.0
18881,50.0,0,48,7.0,100.0
18882,68.0,24,36,5.0,100.0
18883,73.0,24,192,4.0,100.0
18884,49.0,24,48,7.0,100.0
18885,70.0,12,36,5.0,100.0
18886,47.0,36,48,7.0,100.0
18887,49.0,48,48,7.0,100.0
18888,50.0,48,48,7.0,100.0
18889,76.0,0,192,4.0,100.0
18890,52.0,48,48,7.0,100.0
18891,54.0,48,48,7.0,100.0
18892,55.0,48,48,7.0,100.0
18893,71.0,0,336,5.0,100.0
18894,54.0,48,48,7.0,100.0
18895,53.0,48,48,7.0,100.0
18896,52.0,0,48,7.0,100.0
18897,50.0,48,48,7.0,100.0
18898,49.0,48,48,7.0,100.0
18899,47.0,48,48,7.0,100.0
18900,66.0,48,192,5.0,100.0
18901,49.0,0,48,7.0,100.0
18902,50.0,48,48,7.0,100.0
18903,49.0,48,48,7.0,100.0
18904,74.0,0,576,4.0,100.0
18905,48.0,48,48,7.0,100.0
18906,47.0,48,48,7.0,100.0
18907,46.0,48,48,7.0,100.0
18908,44.0,48,48,7.0,100.0
18909,42.0,48,48,7.0,100.0
18910,64.0,48,384,5.0,100.0
18911,44.0,48,48,7.0,100.0
18912,46.0,48,48,7.0,100.0
18913,47.0,48,48,7.0,100.0
18914,61.0,0,192,5.0,100.0
18915,46.0,48,48,7.0,100.0
18916,47.0,48,48,7.0,100.0
18917,49.0,48,48,7.0,100.0
18918,50.0,48,48,7.0,100.0
18919,73.0,0,576,4.0,100.0
18920,64.0,0,192,5.0,100.0
18921,49.0,48,48,7.0,100.0
18922,50.0,48,48,7.0,100.0
18923,52.0,48,46,7.0,100.0
18924,62.0,0,192,5.0,100.0
18925,52.0,0,160,7.0,100.0
18926,47.0,192,48,7.0,100.0
18927,49.0,48,48,7.0,100.0
18928,50.0,48,48,7.0,100.0
18929,61.0,144,384,5.0,100.0
18930,52.0,48,48,7.0,100.0
18931,54.0,48,48,7.0,100.0
18932,55.0,48,46,7.0,100.0
18933,71.0,0,720,4.0,100.0
18934,59.0,0,192,5.0,100.0
18935,64.0,0,96,4.0,100.0
18936,55.0,144,160,7.0,100.0
18937,62.0,96,96,4.0,100.0
18938,59.0,0,0,5.0,100.0
18939,50.0,0,48,7.0,100.0
18940,61.0,96,96,4.0,100.0
18941,52.0,48,48,7.0,100.0
18942,54.0,0,48,7.0,100.0
18943,62.0,48,96,4.0,100.0
18944,56.0,48,48,7.0,100.0
18945,58.0,0,48,7.0,100.0
18946,59.0,48,46,7.0,100.0
18947,61.0,0,96,4.0,100.0
18948,62.0,48,96,4.0,100.0
18949,54.0,48,192,5.0,100.0
18950,64.0,0,96,4.0,100.0
18951,59.0,96,160,7.0,100.0
18952,62.0,0,192,5.0,100.0
18953,65.0,96,96,4.0,100.0
18954,58.0,0,72,7.0,100.0
18955,59.0,72,24,7.0,100.0
18956,58.0,24,24,7.0,100.0
18957,59.0,24,24,7.0,100.0
18958,58.0,24,24,7.0,100.0
18959,59.0,24,24,7.0,100.0
18960,61.0,96,192,5.0,100.0
18961,58.0,0,24,7.0,100.0
18962,59.0,24,24,7.0,100.0
18963,58.0,24,24,7.0,100.0
18964,59.0,24,24,7.0,100.0
18965,58.0,24,24,7.0,100.0
18966,66.0,0,336,4.0,100.0
18967,59.0,24,36,7.0,100.0
18968,54.0,24,160,5.0,100.0
18969,58.0,36,36,7.0,100.0
18970,42.0,36,94,7.0,100.0
18971,44.0,96,46,7.0,100.0
18972,78.0,0,160,4.0,100.0
18973,46.0,48,46,7.0,100.0
18974,47.0,48,46,7.0,100.0
18975,74.0,0,72,4.0,100.0
18976,49.0,48,46,7.0,100.0
18977,76.0,24,24,4.0,100.0
18978,74.0,24,24,4.0,100.0
18979,50.0,0,46,7.0,100.0
18980,76.0,24,24,4.0,100.0
18981,74.0,24,24,4.0,100.0
18982,52.0,0,46,7.0,100.0
18983,76.0,24,24,4.0,100.0
18984,74.0,0,24,4.0,100.0
18985,76.0,24,24,4.0,100.0
18986,74.0,24,24,4.0,100.0
18987,54.0,24,94,7.0,100.0
18988,76.0,24,24,4.0,100.0
18989,74.0,24,24,4.0,100.0
18990,76.0,24,36,4.0,100.0
18991,74.0,36,34,4.0,100.0
18992,71.0,0,96,4.0,100.0
18993,59.0,36,160,7.0,100.0
18994,62.0,0,192,5.0,100.0
18995,65.0,96,96,4.0,100.0
18996,58.0,0,72,7.0,100.0
18997,59.0,72,24,7.0,100.0
18998,58.0,24,24,7.0,100.0
18999,59.0,24,24,7.0,100.0
19000,61.0,96,160,5.0,100.0
19001,58.0,24,24,7.0,100.0
19002,59.0,24,24,7.0,100.0
19003,58.0,0,24,7.0,100.0
19004,59.0,24,24,7.0,100.0
19005,58.0,24,24,7.0,100.0
19006,59.0,24,24,7.0,100.0
19007,58.0,24,24,7.0,100.0
19008,66.0,0,336,4.0,100.0
19009,59.0,24,36,7.0,100.0
19010,54.0,24,160,5.0,100.0
19011,58.0,36,36,7.0,100.0
19012,66.0,0,94,4.0,100.0
19013,68.0,96,46,4.0,100.0
19014,42.0,0,160,7.0,100.0
19015,54.0,36,160,6.0,100.0
19016,70.0,48,46,4.0,100.0
19017,71.0,0,46,4.0,100.0
19018,50.0,48,72,6.0,100.0
19019,73.0,48,46,4.0,100.0
19020,52.0,24,24,6.0,100.0
19021,50.0,24,24,6.0,100.0
19022,74.0,0,46,4.0,100.0
19023,52.0,24,24,6.0,100.0
19024,50.0,24,24,6.0,100.0
19025,76.0,0,46,4.0,100.0
19026,52.0,24,24,6.0,100.0
19027,50.0,24,24,6.0,100.0
19028,78.0,0,46,4.0,100.0
19029,52.0,24,24,6.0,100.0
19030,50.0,24,24,6.0,100.0
19031,79.0,0,46,4.0,100.0
19032,52.0,24,24,6.0,100.0
19033,50.0,24,24,6.0,100.0
19034,52.0,24,36,6.0,100.0
19035,50.0,36,36,6.0,100.0
19036,47.0,36,94,6.0,100.0
19037,79.0,0,160,4.0,100.0
19038,37.0,0,94,7.0,100.0
19039,46.0,96,94,6.0,100.0
19040,38.0,0,46,7.0,100.0
19041,78.0,0,72,4.0,100.0
19042,40.0,48,46,7.0,100.0
19043,79.0,24,24,4.0,100.0
19044,78.0,24,24,4.0,100.0
19045,42.0,0,46,7.0,100.0
19046,79.0,24,24,4.0,100.0
19047,45.0,96,160,6.0,100.0
19048,78.0,24,24,4.0,100.0
19049,43.0,0,46,7.0,100.0
19050,79.0,24,24,4.0,100.0
19051,78.0,0,24,4.0,100.0
19052,45.0,24,46,7.0,100.0
19053,79.0,24,24,4.0,100.0
19054,78.0,24,24,4.0,100.0
19055,47.0,0,46,7.0,100.0
19056,79.0,24,24,4.0,100.0
19057,78.0,24,24,4.0,100.0
19058,79.0,24,36,4.0,100.0
19059,78.0,36,36,4.0,100.0
19060,50.0,0,160,7.0,100.0
19061,74.0,36,160,4.0,100.0
19062,54.0,0,160,6.0,100.0
19063,43.0,0,48,7.0,100.0
19064,62.0,0,72,5.0,100.0
19065,45.0,48,48,7.0,100.0
19066,64.0,24,24,5.0,100.0
19067,62.0,24,24,5.0,100.0
19068,64.0,24,24,5.0,100.0
19069,47.0,0,48,7.0,100.0
19070,62.0,24,24,5.0,100.0
19071,64.0,24,24,5.0,100.0
19072,49.0,0,48,7.0,100.0
19073,62.0,24,24,5.0,100.0
19074,50.0,0,48,7.0,100.0
19075,64.0,24,24,5.0,100.0
19076,62.0,24,24,5.0,100.0
19077,52.0,0,46,7.0,100.0
19078,64.0,24,24,5.0,100.0
19079,62.0,24,24,5.0,100.0
19080,71.0,192,336,4.0,100.0
19081,64.0,24,36,5.0,100.0
19082,62.0,36,36,5.0,100.0
19083,52.0,0,160,7.0,100.0
19084,61.0,36,160,5.0,100.0
19085,67.0,0,160,4.0,100.0
19086,64.0,0,48,4.0,100.0
19087,49.0,192,48,7.0,100.0
19088,66.0,48,48,4.0,100.0
19089,50.0,0,48,7.0,100.0
19090,67.0,48,48,4.0,100.0
19091,52.0,0,48,7.0,100.0
19092,54.0,0,48,7.0,100.0
19093,69.0,48,48,4.0,100.0
19094,55.0,48,48,7.0,100.0
19095,71.0,0,48,4.0,100.0
19096,73.0,48,46,4.0,100.0
19097,57.0,0,46,7.0,100.0
19098,61.0,48,48,5.0,100.0
19099,62.0,48,48,5.0,100.0
19100,64.0,0,48,5.0,100.0
19101,66.0,48,48,5.0,100.0
19102,67.0,48,48,5.0,100.0
19103,57.0,48,160,7.0,100.0
19104,73.0,0,160,4.0,100.0
19105,69.0,48,46,5.0,100.0
19106,52.0,0,48,7.0,100.0
19107,67.0,48,48,4.0,100.0
19108,69.0,48,48,4.0,100.0
19109,54.0,0,48,7.0,100.0
19110,71.0,0,48,4.0,100.0
19111,55.0,48,48,7.0,100.0
19112,57.0,0,48,7.0,100.0
19113,73.0,48,48,4.0,100.0
19114,59.0,48,48,7.0,100.0
19115,74.0,0,48,4.0,100.0
19116,61.0,48,46,7.0,100.0
19117,76.0,0,46,4.0,100.0
19118,64.0,48,48,5.0,100.0
19119,66.0,48,48,5.0,100.0
19120,67.0,0,48,5.0,100.0
19121,69.0,48,48,5.0,100.0
19122,71.0,48,48,5.0,100.0
19123,76.0,48,160,4.0,100.0
19124,61.0,0,160,7.0,100.0
19125,73.0,48,46,5.0,100.0
19126,64.0,0,48,7.0,100.0
19127,79.0,48,48,4.0,100.0
19128,78.0,0,48,4.0,100.0
19129,62.0,48,48,7.0,100.0
19130,61.0,48,48,7.0,100.0
19131,76.0,0,48,4.0,100.0
19132,74.0,48,48,4.0,100.0
19133,59.0,0,48,7.0,100.0
19134,73.0,48,48,4.0,100.0
19135,57.0,0,48,7.0,100.0
19136,55.0,0,46,7.0,100.0
19137,71.0,48,46,4.0,100.0
19138,67.0,48,48,5.0,100.0
19139,66.0,48,48,5.0,100.0
19140,64.0,0,48,5.0,100.0
19141,62.0,48,48,5.0,100.0
19142,61.0,48,48,5.0,100.0
19143,55.0,48,160,7.0,100.0
19144,71.0,0,160,4.0,100.0
19145,59.0,48,46,5.0,100.0
19146,76.0,0,48,4.0,100.0
19147,61.0,48,48,7.0,100.0
19148,74.0,48,48,4.0,100.0
19149,59.0,0,48,7.0,100.0
19150,57.0,0,48,7.0,100.0
19151,73.0,48,48,4.0,100.0
19152,55.0,48,48,7.0,100.0
19153,71.0,0,48,4.0,100.0
19154,54.0,0,48,7.0,100.0
19155,69.0,48,48,4.0,100.0
19156,67.0,48,46,4.0,100.0
19157,52.0,0,46,7.0,100.0
19158,64.0,48,48,5.0,100.0
19159,62.0,48,48,5.0,100.0
19160,61.0,48,48,5.0,100.0
19161,59.0,48,48,5.0,100.0
19162,57.0,48,48,5.0,100.0
19163,67.0,0,160,4.0,100.0
19164,52.0,0,160,7.0,100.0
19165,55.0,48,46,5.0,100.0
19166,38.0,0,46,7.0,100.0
19167,62.0,0,46,5.0,127.0
19168,61.0,48,46,5.0,100.0
19169,40.0,0,46,7.0,100.0
19170,59.0,48,46,5.0,100.0
19171,42.0,0,46,7.0,100.0
19172,66.0,48,160,4.0,127.0
19173,57.0,0,46,5.0,100.0
19174,43.0,48,46,7.0,100.0
19175,55.0,0,46,5.0,100.0
19176,44.0,48,46,7.0,100.0
19177,54.0,48,46,5.0,100.0
19178,45.0,0,46,7.0,100.0
19179,66.0,48,46,4.0,100.0
19180,67.0,48,46,4.0,100.0
19181,69.0,0,46,4.0,100.0
19182,71.0,48,46,4.0,100.0
19183,73.0,48,46,4.0,100.0
19184,54.0,0,160,6.0,100.0
19185,45.0,48,160,7.0,100.0
19186,74.0,48,46,4.0,100.0
19187,42.0,0,46,7.0,100.0
19188,66.0,48,46,5.0,127.0
19189,64.0,48,46,5.0,100.0
19190,43.0,0,46,7.0,100.0
19191,45.0,48,46,7.0,100.0
19192,62.0,0,46,5.0,100.0
19193,69.0,0,160,4.0,100.0
19194,61.0,48,46,5.0,100.0
19195,47.0,0,46,7.0,100.0
19196,49.0,0,46,7.0,100.0
19197,59.0,48,46,5.0,100.0
19198,57.0,0,46,5.0,100.0
19199,50.0,48,46,7.0,100.0
19200,69.0,48,46,4.0,100.0
19201,71.0,48,46,4.0,100.0
19202,73.0,48,46,4.0,100.0
19203,74.0,48,46,4.0,100.0
19204,76.0,48,46,4.0,100.0
19205,57.0,0,160,6.0,100.0
19206,50.0,0,160,7.0,100.0
19207,78.0,48,46,4.0,100.0
19208,43.0,0,46,7.0,100.0
19209,67.0,0,46,5.0,127.0
19210,45.0,48,46,7.0,100.0
19211,66.0,0,46,5.0,100.0
19212,47.0,0,46,7.0,100.0
19213,64.0,48,46,5.0,100.0
19214,71.0,48,160,4.0,100.0
19215,62.0,48,46,5.0,100.0
19216,49.0,0,46,7.0,100.0
19217,61.0,0,46,5.0,100.0
19218,50.0,48,46,7.0,100.0
19219,59.0,0,46,5.0,100.0
19220,52.0,48,46,7.0,100.0
19221,71.0,48,46,4.0,100.0
19222,73.0,48,46,4.0,100.0
19223,74.0,0,46,4.0,100.0
19224,76.0,48,46,4.0,100.0
19225,78.0,48,46,4.0,100.0
19226,52.0,0,160,7.0,100.0
19227,67.0,48,160,5.0,100.0
19228,79.0,48,46,4.0,100.0
19229,76.0,0,46,5.0,100.0
19230,49.0,0,46,7.0,100.0
19231,74.0,0,46,5.0,100.0
19232,50.0,48,46,7.0,100.0
19233,52.0,0,46,7.0,100.0
19234,73.0,48,46,5.0,100.0
19235,79.0,48,160,4.0,100.0
19236,54.0,0,46,7.0,100.0
19237,71.0,48,46,5.0,100.0
19238,55.0,48,46,7.0,100.0
19239,69.0,0,46,5.0,100.0
19240,57.0,48,46,7.0,100.0
19241,67.0,0,46,5.0,100.0
19242,79.0,48,46,4.0,100.0
19243,81.0,48,46,4.0,100.0
19244,83.0,48,46,4.0,100.0
19245,85.0,48,46,4.0,100.0
19246,86.0,48,46,4.0,100.0
19247,79.0,0,160,5.0,100.0
19248,57.0,0,160,7.0,100.0
19249,88.0,48,46,4.0,100.0
19250,90.0,0,46,4.0,100.0
19251,50.0,48,46,7.0,100.0
19252,49.0,0,46,7.0,100.0
19253,88.0,48,46,4.0,100.0
19254,47.0,48,46,7.0,100.0
19255,86.0,0,46,4.0,100.0
19256,78.0,0,160,5.0,100.0
19257,45.0,48,46,7.0,100.0
19258,85.0,0,46,4.0,100.0
19259,43.0,0,46,7.0,100.0
19260,83.0,48,46,4.0,100.0
19261,42.0,48,46,7.0,100.0
19262,81.0,0,46,4.0,100.0
19263,54.0,48,46,6.0,100.0
19264,55.0,48,46,6.0,100.0
19265,57.0,48,46,6.0,100.0
19266,59.0,48,46,6.0,100.0
19267,61.0,48,46,6.0,100.0
19268,81.0,0,160,4.0,100.0
19269,62.0,48,46,6.0,100.0
19270,86.0,0,46,4.0,100.0
19271,47.0,0,46,7.0,100.0
19272,45.0,48,46,7.0,100.0
19273,85.0,0,46,4.0,100.0
19274,43.0,0,46,7.0,100.0
19275,83.0,48,46,4.0,100.0
19276,74.0,48,160,5.0,100.0
19277,42.0,48,46,7.0,100.0
19278,81.0,0,46,4.0,100.0
19279,40.0,48,46,7.0,100.0
19280,79.0,0,46,4.0,100.0
19281,38.0,48,46,7.0,100.0
19282,78.0,0,46,4.0,100.0
19283,50.0,48,46,6.0,100.0
19284,52.0,48,46,6.0,100.0
19285,54.0,48,46,6.0,100.0
19286,55.0,48,46,6.0,100.0
19287,57.0,48,46,6.0,100.0
19288,78.0,0,160,4.0,100.0
19289,59.0,48,46,6.0,100.0
19290,55.0,48,46,7.0,100.0
19291,59.0,0,46,6.0,100.0
19292,57.0,48,46,6.0,100.0
19293,54.0,0,46,7.0,100.0
19294,55.0,48,46,6.0,100.0
19295,52.0,0,46,7.0,100.0
19296,50.0,0,46,7.0,100.0
19297,54.0,48,46,6.0,100.0
19298,49.0,0,46,7.0,100.0
19299,52.0,48,46,6.0,100.0
19300,50.0,48,46,6.0,100.0
19301,47.0,0,46,7.0,100.0
19302,74.0,48,46,4.0,100.0
19303,76.0,48,46,4.0,100.0
19304,78.0,48,46,4.0,100.0
19305,79.0,48,46,4.0,100.0
19306,81.0,48,46,4.0,100.0
19307,50.0,0,160,6.0,100.0
19308,47.0,0,160,7.0,100.0
19309,82.0,48,46,4.0,100.0
19310,83.0,0,46,4.0,127.0
19311,43.0,48,46,7.0,100.0
19312,45.0,0,46,7.0,100.0
19313,81.0,48,46,4.0,100.0
19314,79.0,48,46,4.0,100.0
19315,47.0,0,46,7.0,100.0
19316,48.0,48,46,7.0,100.0
19317,78.0,0,46,4.0,100.0
19318,76.0,48,46,4.0,127.0
19319,50.0,0,46,7.0,100.0
19320,74.0,0,46,4.0,100.0
19321,52.0,48,46,7.0,100.0
19322,79.0,48,46,4.0,100.0
19323,47.0,0,46,7.0,100.0
19324,78.0,48,46,4.0,100.0
19325,48.0,0,46,7.0,100.0
19326,76.0,48,46,4.0,127.0
19327,50.0,0,46,7.0,100.0
19328,52.0,0,46,7.0,100.0
19329,74.0,48,46,4.0,100.0
19330,72.0,0,46,4.0,100.0
19331,54.0,48,46,7.0,100.0
19332,71.0,48,46,4.0,100.0
19333,55.0,0,46,7.0,100.0
19334,76.0,0,46,4.0,127.0
19335,45.0,48,46,7.0,100.0
19336,74.0,48,46,4.0,100.0
19337,47.0,0,46,7.0,100.0
19338,49.0,0,46,7.0,100.0
19339,73.0,48,46,4.0,100.0
19340,50.0,0,46,7.0,100.0
19341,71.0,48,46,4.0,100.0
19342,52.0,48,46,7.0,100.0
19343,69.0,0,46,4.0,127.0
19344,68.0,0,46,4.0,100.0
19345,53.0,48,46,7.0,100.0
19346,45.0,48,46,7.0,100.0
19347,64.0,0,46,5.0,100.0
19348,47.0,48,46,7.0,100.0
19349,62.0,0,46,5.0,100.0
19350,49.0,48,46,7.0,100.0
19351,61.0,0,46,5.0,100.0
19352,50.0,0,46,7.0,100.0
19353,59.0,48,46,5.0,100.0
19354,49.0,48,46,7.0,100.0
19355,57.0,0,46,5.0,100.0
19356,47.0,48,46,7.0,100.0
19357,56.0,0,46,5.0,100.0
19358,64.0,0,46,5.0,100.0
19359,62.0,48,46,5.0,100.0
19360,61.0,48,46,5.0,100.0
19361,67.0,0,448,4.0,100.0
19362,62.0,48,46,5.0,100.0
19363,46.0,48,238,7.0,100.0
19364,44.0,48,46,7.0,100.0
19365,42.0,48,46,7.0,100.0
19366,44.0,48,46,7.0,100.0
19367,64.0,0,238,5.0,100.0
19368,61.0,48,46,5.0,100.0
19369,62.0,48,46,5.0,100.0
19370,66.0,48,336,4.0,127.0
19371,46.0,48,160,7.0,100.0
19372,64.0,48,46,5.0,100.0
19373,47.0,0,48,7.0,100.0
19374,49.0,48,48,7.0,100.0
19375,47.0,48,48,7.0,100.0
19376,66.0,0,160,4.0,100.0
19377,45.0,48,48,7.0,100.0
19378,44.0,48,48,7.0,100.0
19379,50.0,48,48,7.0,100.0
19380,47.0,48,48,7.0,100.0
19381,62.0,48,336,5.0,100.0
19382,53.0,48,48,7.0,100.0
19383,56.0,48,46,7.0,100.0
19384,62.0,48,46,5.0,100.0
19385,59.0,48,46,5.0,100.0
19386,65.0,48,46,5.0,100.0
19387,45.0,0,48,7.0,100.0
19388,71.0,0,478,4.0,127.0
19389,54.0,48,48,7.0,100.0
19390,50.0,0,48,7.0,100.0
19391,66.0,48,160,5.0,100.0
19392,57.0,48,48,7.0,100.0
19393,62.0,0,46,5.0,100.0
19394,54.0,48,48,7.0,100.0
19395,69.0,48,160,4.0,100.0
19396,64.0,48,46,7.0,100.0
19397,66.0,0,46,5.0,100.0
19398,65.0,0,46,5.0,100.0
19399,62.0,48,46,5.0,100.0
19400,68.0,0,96,4.0,100.0
19401,47.0,48,96,7.0,100.0
19402,58.0,0,46,5.0,100.0
19403,64.0,48,46,5.0,100.0
19404,67.0,48,96,4.0,100.0
19405,49.0,0,96,7.0,100.0
19406,62.0,48,46,5.0,100.0
19407,50.0,0,94,7.0,100.0
19408,57.0,48,46,5.0,100.0
19409,31.0,0,94,6.0,127.0
19410,31.0,48,94,7.0,127.0
19411,66.0,0,192,4.0,100.0
19412,58.0,0,160,5.0,127.0
19413,64.0,96,96,4.0,100.0
19414,49.0,0,72,7.0,127.0
19415,50.0,72,24,7.0,127.0
19416,49.0,0,24,7.0,127.0
19417,50.0,24,24,7.0,127.0
19418,49.0,24,24,7.0,127.0
19419,55.0,24,94,5.0,100.0
19420,50.0,24,24,7.0,127.0
19421,49.0,24,24,7.0,127.0
19422,50.0,24,24,7.0,127.0
19423,58.0,96,256,4.0,100.0
19424,49.0,24,24,7.0,127.0
19425,50.0,24,24,7.0,127.0
19426,49.0,0,24,7.0,127.0
19427,47.0,24,36,7.0,127.0
19428,52.0,0,160,5.0,100.0
19429,49.0,36,36,7.0,127.0
19430,58.0,24,142,4.0,100.0
19431,56.0,48,46,4.0,100.0
19432,54.0,36,142,5.0,100.0
19433,50.0,0,160,7.0,127.0
19434,53.0,48,46,5.0,100.0
19435,57.0,48,142,4.0,100.0
19436,61.0,48,46,4.0,100.0
19437,54.0,48,142,5.0,100.0
19438,50.0,48,48,7.0,127.0
19439,55.0,48,46,5.0,100.0
19440,49.0,0,48,7.0,127.0
19441,62.0,0,142,4.0,100.0
19442,47.0,0,48,7.0,127.0
19443,61.0,48,46,4.0,100.0
19444,45.0,0,48,7.0,127.0
19445,57.0,48,142,5.0,100.0
19446,43.0,48,48,7.0,127.0
19447,60.0,0,46,5.0,100.0
19448,42.0,48,48,7.0,127.0
19449,62.0,0,142,4.0,100.0
19450,53.0,48,46,4.0,100.0
19451,59.0,0,142,5.0,100.0
19452,47.0,48,160,7.0,127.0
19453,49.0,48,46,5.0,100.0
19454,54.0,48,142,4.0,100.0
19455,54.0,48,46,4.0,100.0
19456,50.0,48,142,5.0,100.0
19457,47.0,0,48,7.0,127.0
19458,51.0,48,46,5.0,100.0
19459,45.0,0,48,7.0,127.0
19460,55.0,48,142,4.0,100.0
19461,43.0,48,48,7.0,127.0
19462,57.0,48,46,4.0,100.0
19463,42.0,0,48,7.0,127.0
19464,52.0,0,142,5.0,100.0
19465,40.0,48,48,7.0,127.0
19466,54.0,0,46,5.0,100.0
19467,38.0,48,48,7.0,127.0
19468,59.0,0,142,4.0,100.0
19469,58.0,48,46,4.0,100.0
19470,55.0,0,142,5.0,100.0
19471,43.0,48,160,7.0,127.0
19472,54.0,48,46,5.0,100.0
19473,59.0,48,142,4.0,100.0
19474,63.0,48,46,4.0,100.0
19475,43.0,0,46,7.0,100.0
19476,55.0,48,142,5.0,100.0
19477,57.0,48,46,5.0,100.0
19478,42.0,0,46,7.0,100.0
19479,40.0,0,46,7.0,100.0
19480,64.0,48,142,4.0,100.0
19481,39.0,0,46,7.0,100.0
19482,66.0,48,46,4.0,100.0
19483,59.0,48,142,5.0,100.0
19484,40.0,48,46,7.0,100.0
19485,58.0,48,46,5.0,100.0
19486,38.0,0,46,7.0,100.0
19487,37.0,0,46,7.0,100.0
19488,67.0,0,190,4.0,100.0
19489,38.0,48,46,7.0,100.0
19490,37.0,0,46,7.0,100.0
19491,57.0,48,160,5.0,100.0
19492,35.0,48,46,7.0,100.0
19493,68.0,48,94,4.0,100.0
19494,33.0,0,46,7.0,100.0
19495,35.0,48,46,7.0,100.0
19496,37.0,48,46,7.0,100.0
19497,38.0,48,46,7.0,100.0
19498,64.0,0,94,5.0,100.0
19499,39.0,48,46,7.0,100.0
19500,69.0,48,256,4.0,127.0
19501,61.0,0,94,5.0,100.0
19502,40.0,48,46,7.0,100.0
19503,42.0,48,46,7.0,100.0
19504,40.0,48,46,7.0,100.0
19505,67.0,0,94,4.0,100.0
19506,38.0,48,46,7.0,100.0
19507,40.0,48,46,7.0,100.0
19508,57.0,0,190,5.0,100.0
19509,38.0,48,46,7.0,100.0
19510,66.0,0,160,4.0,100.0
19511,58.0,0,94,5.0,100.0
19512,37.0,48,46,7.0,100.0
19513,35.0,48,46,7.0,100.0
19514,37.0,48,46,7.0,100.0
19515,38.0,48,46,7.0,100.0
19516,40.0,48,46,7.0,100.0
19517,66.0,0,96,4.0,100.0
19518,41.0,0,46,7.0,100.0
19519,59.0,0,256,5.0,127.0
19520,42.0,48,46,7.0,100.0
19521,63.0,48,96,4.0,100.0
19522,43.0,0,46,7.0,100.0
19523,42.0,48,46,7.0,100.0
19524,57.0,48,94,5.0,100.0
19525,40.0,0,46,7.0,100.0
19526,55.0,48,94,5.0,100.0
19527,59.0,0,190,4.0,100.0
19528,41.0,48,46,7.0,100.0
19529,40.0,0,46,7.0,100.0
19530,38.0,48,46,7.0,100.0
19531,71.0,48,96,4.0,100.0
19532,36.0,0,46,7.0,100.0
19533,38.0,48,46,7.0,100.0
19534,40.0,0,46,7.0,100.0
19535,67.0,48,94,5.0,100.0
19536,41.0,48,46,7.0,100.0
19537,42.0,0,46,7.0,100.0
19538,64.0,48,94,5.0,100.0
19539,43.0,48,46,7.0,100.0
19540,72.0,48,288,4.0,100.0
19541,45.0,0,46,7.0,100.0
19542,43.0,48,46,7.0,100.0
19543,71.0,48,96,4.0,100.0
19544,42.0,0,46,7.0,100.0
19545,60.0,0,190,5.0,100.0
19546,43.0,48,46,7.0,100.0
19547,42.0,0,46,7.0,100.0
19548,69.0,48,160,4.0,100.0
19549,40.0,48,46,7.0,100.0
19550,61.0,48,94,5.0,100.0
19551,38.0,0,46,7.0,100.0
19552,40.0,48,46,7.0,100.0
19553,42.0,48,46,7.0,100.0
19554,43.0,48,46,7.0,100.0
19555,69.0,0,96,4.0,100.0
19556,44.0,48,46,7.0,100.0
19557,62.0,48,256,5.0,100.0
19558,45.0,48,46,7.0,100.0
19559,66.0,0,96,4.0,100.0
19560,47.0,0,46,7.0,100.0
19561,45.0,48,46,7.0,100.0
19562,60.0,0,94,5.0,100.0
19563,59.0,0,46,5.0,100.0
19564,43.0,48,94,7.0,100.0
19565,60.0,48,46,5.0,100.0
19566,62.0,48,190,4.0,100.0
19567,59.0,48,46,5.0,100.0
19568,74.0,0,48,4.0,100.0
19569,57.0,48,46,5.0,100.0
19570,72.0,0,48,4.0,100.0
19571,55.0,0,46,6.0,100.0
19572,57.0,48,46,6.0,100.0
19573,55.0,48,96,7.0,100.0
19574,59.0,0,46,6.0,100.0
19575,60.0,48,46,6.0,100.0
19576,53.0,48,96,7.0,100.0
19577,61.0,48,46,6.0,100.0
19578,71.0,0,256,4.0,100.0
19579,52.0,0,94,7.0,100.0
19580,62.0,48,46,6.0,100.0
19581,56.0,0,46,6.0,100.0
19582,62.0,48,46,6.0,100.0
19583,60.0,48,46,6.0,100.0
19584,76.0,48,190,4.0,100.0
19585,62.0,48,46,6.0,100.0
19586,60.0,0,46,6.0,100.0
19587,76.0,48,48,4.0,100.0
19588,59.0,48,46,6.0,100.0
19589,55.0,0,192,7.0,100.0
19590,74.0,0,48,4.0,100.0
19591,57.0,0,46,6.0,100.0
19592,59.0,48,46,6.0,100.0
19593,57.0,0,96,7.0,100.0
19594,60.0,0,46,6.0,100.0
19595,62.0,48,46,6.0,100.0
19596,55.0,48,96,7.0,100.0
19597,72.0,48,192,4.0,100.0
19598,63.0,0,46,6.0,100.0
19599,54.0,48,94,7.0,100.0
19600,64.0,48,46,6.0,100.0
19601,73.0,0,94,4.0,100.0
19602,58.0,48,46,6.0,100.0
19603,64.0,48,46,6.0,100.0
19604,62.0,0,46,6.0,100.0
19605,64.0,48,46,6.0,100.0
19606,78.0,0,190,4.0,100.0
19607,62.0,48,46,6.0,100.0
19608,78.0,0,48,4.0,100.0
19609,61.0,48,46,6.0,100.0
19610,58.0,48,192,7.0,100.0
19611,76.0,0,48,4.0,100.0
19612,59.0,0,46,6.0,100.0
19613,61.0,48,46,6.0,100.0
19614,59.0,48,96,7.0,100.0
19615,62.0,48,46,6.0,100.0
19616,64.0,48,46,6.0,100.0
19617,57.0,0,96,7.0,100.0
19618,65.0,48,46,6.0,100.0
19619,74.0,0,256,4.0,100.0
19620,55.0,0,94,7.0,100.0
19621,66.0,48,46,6.0,100.0
19622,67.0,0,46,6.0,100.0
19623,71.0,48,48,4.0,100.0
19624,65.0,0,46,6.0,100.0
19625,64.0,0,46,6.0,100.0
19626,65.0,48,46,6.0,100.0
19627,79.0,48,142,4.0,100.0
19628,64.0,0,46,6.0,100.0
19629,79.0,48,48,4.0,100.0
19630,62.0,0,46,6.0,100.0
19631,77.0,48,48,4.0,100.0
19632,59.0,48,192,7.0,100.0
19633,60.0,48,46,6.0,100.0
19634,62.0,48,46,6.0,100.0
19635,76.0,0,96,4.0,100.0
19636,60.0,0,96,7.0,100.0
19637,64.0,48,46,6.0,100.0
19638,62.0,48,46,6.0,100.0
19639,79.0,0,96,4.0,100.0
19640,59.0,0,96,7.0,100.0
19641,60.0,0,46,6.0,100.0
19642,62.0,48,46,6.0,100.0
19643,57.0,0,96,7.0,100.0
19644,78.0,48,96,4.0,100.0
19645,60.0,0,46,6.0,100.0
19646,59.0,48,46,6.0,100.0
19647,79.0,48,94,4.0,100.0
19648,55.0,0,96,7.0,100.0
19649,57.0,0,46,6.0,127.0
19650,54.0,48,94,6.0,100.0
19651,59.0,48,46,6.0,100.0
19652,84.0,0,94,4.0,127.0
19653,54.0,0,96,7.0,127.0
19654,57.0,48,46,6.0,100.0
19655,55.0,48,46,6.0,100.0
19656,52.0,0,96,7.0,127.0
19657,51.0,0,48,7.0,100.0
19658,69.0,48,72,4.0,100.0
19659,50.0,48,48,7.0,100.0
19660,71.0,24,24,4.0,100.0
19661,69.0,0,24,4.0,100.0
19662,71.0,24,24,4.0,100.0
19663,48.0,24,48,7.0,100.0
19664,54.0,0,160,6.0,100.0
19665,69.0,24,24,4.0,100.0
19666,50.0,0,48,7.0,100.0
19667,71.0,24,24,4.0,100.0
19668,69.0,24,24,4.0,100.0
19669,71.0,24,24,4.0,100.0
19670,51.0,0,48,7.0,100.0
19671,69.0,24,24,4.0,100.0
19672,71.0,24,24,4.0,100.0
19673,50.0,0,48,7.0,100.0
19674,69.0,24,24,4.0,100.0
19675,51.0,0,48,7.0,100.0
19676,67.0,24,36,4.0,100.0
19677,66.0,0,160,5.0,127.0
19678,48.0,24,46,7.0,100.0
19679,69.0,12,36,4.0,100.0
19680,67.0,36,160,4.0,127.0
19681,59.0,96,94,7.0,100.0
19682,67.0,96,48,4.0,100.0
19683,57.0,0,94,6.0,100.0
19684,69.0,48,48,4.0,100.0
19685,71.0,0,48,4.0,100.0
19686,47.0,96,256,7.0,127.0
19687,72.0,48,48,4.0,100.0
19688,74.0,48,48,4.0,100.0
19689,55.0,48,160,6.0,100.0
19690,76.0,48,48,4.0,100.0
19691,71.0,48,160,4.0,127.0
19692,55.0,96,94,7.0,100.0
19693,71.0,96,48,4.0,100.0
19694,54.0,0,94,6.0,100.0
19695,72.0,48,48,4.0,100.0
19696,74.0,0,48,4.0,100.0
19697,43.0,96,256,7.0,127.0
19698,76.0,48,48,4.0,100.0
19699,52.0,48,96,6.0,100.0
19700,78.0,0,48,4.0,100.0
19701,47.0,48,94,7.0,100.0
19702,79.0,48,48,4.0,100.0
19703,50.0,0,96,6.0,100.0
19704,45.0,48,94,7.0,100.0
19705,48.0,0,94,6.0,100.0
19706,74.0,0,160,4.0,127.0
19707,60.0,96,94,7.0,100.0
19708,48.0,96,94,7.0,100.0
19709,52.0,0,94,6.0,100.0
19710,74.0,0,46,4.0,100.0
19711,50.0,96,94,6.0,100.0
19712,47.0,0,94,7.0,100.0
19713,76.0,48,46,4.0,100.0
19714,78.0,0,46,4.0,100.0
19715,76.0,48,46,4.0,100.0
19716,45.0,48,94,7.0,100.0
19717,48.0,0,94,6.0,100.0
19718,78.0,0,46,4.0,100.0
19719,79.0,48,46,4.0,100.0
19720,43.0,0,94,7.0,100.0
19721,47.0,48,94,6.0,100.0
19722,81.0,0,46,4.0,100.0
19723,80.0,48,46,4.0,100.0
19724,42.0,48,94,7.0,127.0
19725,81.0,0,46,4.0,100.0
19726,45.0,0,160,6.0,100.0
19727,83.0,48,46,4.0,100.0
19728,51.0,48,94,7.0,127.0
19729,84.0,48,46,4.0,100.0
19730,83.0,48,46,4.0,100.0
19731,81.0,0,46,4.0,100.0
19732,52.0,48,94,6.0,100.0
19733,79.0,48,46,4.0,100.0
19734,78.0,0,46,4.0,100.0
19735,75.0,48,46,4.0,100.0
19736,54.0,48,94,6.0,100.0
19737,74.0,48,46,4.0,100.0
19738,76.0,48,46,4.0,100.0
19739,55.0,0,94,6.0,100.0
19740,78.0,48,46,4.0,100.0
19741,57.0,0,94,6.0,100.0
19742,76.0,48,46,4.0,100.0
19743,74.0,48,46,4.0,100.0
19744,59.0,0,94,6.0,100.0
19745,72.0,48,46,4.0,100.0
19746,71.0,0,46,4.0,100.0
19747,50.0,0,640,7.0,127.0
19748,60.0,48,94,6.0,100.0
19749,69.0,48,46,4.0,100.0
19750,67.0,0,46,4.0,100.0
19751,69.0,48,46,4.0,100.0
19752,50.0,48,94,7.0,127.0
19753,59.0,0,94,6.0,100.0
19754,71.0,48,46,4.0,100.0
19755,57.0,0,94,6.0,100.0
19756,48.0,0,94,7.0,127.0
19757,72.0,48,46,4.0,100.0
19758,74.0,0,46,4.0,100.0
19759,47.0,0,94,7.0,127.0
19760,75.0,48,46,4.0,100.0
19761,76.0,0,46,4.0,100.0
19762,55.0,48,190,6.0,100.0
19763,79.0,48,46,4.0,100.0
19764,78.0,0,46,4.0,100.0
19765,48.0,48,160,7.0,127.0
19766,76.0,48,46,4.0,100.0
19767,74.0,48,46,4.0,100.0
19768,60.0,48,160,6.0,100.0
19769,79.0,48,46,4.0,100.0
19770,78.0,48,46,4.0,100.0
19771,50.0,0,160,7.0,127.0
19772,59.0,0,94,6.0,100.0
19773,79.0,48,46,4.0,100.0
19774,58.0,48,46,5.0,100.0
19775,67.0,48,46,5.0,100.0
19776,66.0,48,46,5.0,100.0
19777,52.0,0,160,7.0,127.0
19778,73.0,0,160,4.0,100.0
19779,67.0,48,46,5.0,100.0
19780,54.0,48,46,7.0,100.0
19781,57.0,48,46,7.0,100.0
19782,69.0,0,94,5.0,100.0
19783,55.0,48,46,7.0,100.0
19784,63.0,0,94,5.0,100.0
19785,54.0,48,46,7.0,100.0
19786,52.0,48,46,7.0,100.0
19787,50.0,48,46,7.0,100.0
19788,66.0,0,94,5.0,100.0
19789,52.0,48,46,7.0,100.0
19790,54.0,48,46,7.0,100.0
19791,72.0,0,384,4.0,100.0
19792,55.0,48,46,7.0,100.0
19793,69.0,0,160,5.0,100.0
19794,50.0,48,46,7.0,100.0
19795,55.0,0,46,7.0,100.0
19796,71.0,0,160,4.0,100.0
19797,66.0,48,94,5.0,100.0
19798,54.0,48,46,7.0,100.0
19799,52.0,0,46,7.0,100.0
19800,54.0,48,46,7.0,100.0
19801,73.0,48,96,4.0,100.0
19802,52.0,48,46,7.0,100.0
19803,50.0,48,46,7.0,100.0
19804,74.0,0,96,4.0,100.0
19805,49.0,0,46,7.0,100.0
19806,50.0,48,46,7.0,100.0
19807,67.0,0,94,5.0,100.0
19808,76.0,48,96,4.0,100.0
19809,49.0,48,46,7.0,100.0
19810,47.0,48,46,7.0,100.0
19811,78.0,0,96,4.0,100.0
19812,50.0,0,72,6.0,100.0
19813,45.0,48,94,7.0,127.0
19814,52.0,72,24,6.0,100.0
19815,50.0,24,24,6.0,100.0
19816,52.0,24,24,6.0,100.0
19817,50.0,24,24,6.0,100.0
19818,44.0,0,94,7.0,127.0
19819,52.0,24,24,6.0,100.0
19820,50.0,0,24,6.0,100.0
19821,52.0,24,24,6.0,100.0
19822,50.0,24,24,6.0,100.0
19823,79.0,0,288,4.0,127.0
19824,52.0,24,24,6.0,100.0
19825,50.0,24,24,6.0,100.0
19826,49.0,24,36,6.0,100.0
19827,78.0,0,96,4.0,100.0
19828,50.0,36,36,6.0,100.0
19829,76.0,36,94,4.0,100.0
19830,45.0,24,336,7.0,127.0
19831,79.0,96,48,4.0,100.0
19832,49.0,0,160,6.0,100.0
19833,78.0,48,48,4.0,100.0
19834,50.0,0,48,6.0,100.0
19835,66.0,48,160,4.0,100.0
19836,47.0,96,94,7.0,127.0
19837,52.0,48,48,6.0,100.0
19838,54.0,0,48,6.0,100.0
19839,55.0,48,48,6.0,100.0
19840,57.0,48,48,6.0,100.0
19841,45.0,48,160,7.0,127.0
19842,59.0,48,48,6.0,100.0
19843,76.0,96,48,4.0,100.0
19844,54.0,48,160,6.0,100.0
19845,74.0,48,48,4.0,100.0
19846,54.0,96,48,6.0,100.0
19847,62.0,48,160,4.0,100.0
19848,43.0,0,94,7.0,127.0
19849,55.0,48,48,6.0,100.0
19850,57.0,0,48,6.0,100.0
19851,59.0,48,48,6.0,100.0
19852,61.0,48,48,6.0,100.0
19853,54.0,48,160,7.0,127.0
19854,62.0,48,48,6.0,100.0
19855,83.0,96,46,4.0,100.0
19856,57.0,48,160,6.0,100.0
19857,81.0,48,46,4.0,100.0
19858,78.0,48,46,4.0,100.0
19859,74.0,48,46,4.0,100.0
19860,73.0,48,46,4.0,100.0
19861,57.0,0,46,6.0,100.0
19862,50.0,0,94,7.0,127.0
19863,71.0,48,46,4.0,100.0
19864,59.0,0,46,6.0,100.0
19865,61.0,0,46,5.0,100.0
19866,52.0,0,46,7.0,100.0
19867,51.0,48,46,7.0,100.0
19868,60.0,0,46,5.0,100.0
19869,61.0,0,46,5.0,100.0
19870,52.0,48,46,7.0,100.0
19871,70.0,48,160,4.0,100.0
19872,63.0,48,46,5.0,100.0
19873,54.0,0,46,7.0,100.0
19874,55.0,48,46,7.0,100.0
19875,64.0,0,46,5.0,100.0
19876,54.0,48,46,7.0,100.0
19877,63.0,0,46,5.0,100.0
19878,55.0,48,46,7.0,100.0
19879,64.0,0,46,5.0,100.0
19880,57.0,48,46,7.0,100.0
19881,66.0,0,46,5.0,100.0
19882,59.0,0,46,7.0,100.0
19883,67.0,48,46,5.0,100.0
19884,69.0,0,256,4.0,100.0
19885,57.0,0,46,7.0,100.0
19886,66.0,48,46,5.0,100.0
19887,55.0,48,46,7.0,100.0
19888,64.0,0,46,5.0,100.0
19889,62.0,48,46,5.0,100.0
19890,71.0,0,94,4.0,100.0
19891,56.0,0,46,7.0,100.0
19892,73.0,0,46,4.0,100.0
19893,57.0,0,46,6.0,100.0
19894,56.0,0,46,6.0,100.0
19895,45.0,48,94,7.0,127.0
19896,72.0,48,46,4.0,100.0
19897,57.0,48,46,6.0,100.0
19898,73.0,0,46,4.0,100.0
19899,59.0,48,46,6.0,100.0
19900,74.0,0,46,4.0,100.0
19901,76.0,0,46,4.0,100.0
19902,61.0,48,94,6.0,100.0
19903,75.0,48,46,4.0,100.0
19904,49.0,48,46,6.0,100.0
19905,76.0,0,46,4.0,100.0
19906,78.0,0,46,4.0,100.0
19907,50.0,48,46,6.0,100.0
19908,79.0,0,46,4.0,100.0
19909,45.0,0,160,7.0,127.0
19910,78.0,48,46,4.0,100.0
19911,76.0,0,46,4.0,100.0
19912,74.0,48,46,4.0,100.0
19913,47.0,48,94,7.0,127.0
19914,73.0,0,46,4.0,100.0
19915,49.0,48,94,7.0,127.0
19916,70.0,48,46,4.0,100.0
19917,52.0,48,286,6.0,100.0
19918,54.0,0,46,6.0,100.0
19919,69.0,0,46,4.0,100.0
19920,71.0,0,46,4.0,100.0
19921,55.0,48,46,6.0,100.0
19922,72.0,0,46,4.0,100.0
19923,57.0,48,46,6.0,100.0
19924,71.0,0,46,4.0,100.0
19925,55.0,48,46,6.0,100.0
19926,54.0,48,46,6.0,100.0
19927,69.0,0,46,4.0,100.0
19928,50.0,48,256,7.0,127.0
19929,52.0,0,46,6.0,100.0
19930,67.0,48,46,4.0,100.0
19931,66.0,48,46,4.0,100.0
19932,50.0,0,46,6.0,100.0
19933,52.0,0,46,6.0,100.0
19934,67.0,48,46,4.0,100.0
19935,54.0,48,46,6.0,100.0
19936,69.0,0,46,4.0,100.0
19937,55.0,0,46,6.0,100.0
19938,71.0,48,46,4.0,100.0
19939,57.0,48,46,6.0,100.0
19940,72.0,0,72,4.0,100.0
19941,59.0,48,46,6.0,100.0
19942,74.0,24,24,4.0,100.0
19943,72.0,24,24,4.0,100.0
19944,60.0,0,46,6.0,100.0
19945,74.0,24,24,4.0,100.0
19946,72.0,24,24,4.0,100.0
19947,62.0,0,46,6.0,100.0
19948,74.0,24,24,4.0,100.0
19949,72.0,24,24,4.0,100.0
19950,64.0,0,46,6.0,100.0
19951,74.0,24,24,4.0,100.0
19952,72.0,24,24,4.0,100.0
19953,62.0,0,46,6.0,100.0
19954,74.0,24,24,4.0,100.0
19955,72.0,0,24,4.0,100.0
19956,64.0,24,46,6.0,100.0
19957,71.0,24,36,4.0,100.0
19958,50.0,0,94,7.0,127.0
19959,66.0,24,46,6.0,100.0
19960,72.0,12,36,4.0,100.0
19961,55.0,0,46,7.0,100.0
19962,59.0,48,46,7.0,100.0
19963,55.0,48,46,7.0,100.0
19964,67.0,0,160,5.0,100.0
19965,71.0,36,160,4.0,100.0
19966,52.0,48,46,7.0,100.0
19967,54.0,0,46,6.0,100.0
19968,69.0,48,72,4.0,100.0
19969,52.0,48,46,6.0,100.0
19970,71.0,24,24,4.0,100.0
19971,69.0,0,24,4.0,100.0
19972,54.0,24,46,6.0,100.0
19973,71.0,24,24,4.0,100.0
19974,69.0,0,24,4.0,100.0
19975,55.0,24,46,6.0,100.0
19976,71.0,24,24,4.0,100.0
19977,69.0,24,24,4.0,100.0
19978,57.0,0,46,6.0,100.0
19979,71.0,24,24,4.0,100.0
19980,69.0,24,24,4.0,100.0
19981,59.0,0,46,6.0,100.0
19982,71.0,24,24,4.0,100.0
19983,69.0,0,24,4.0,100.0
19984,61.0,0,46,6.0,100.0
19985,71.0,24,36,4.0,100.0
19986,47.0,24,94,7.0,127.0
19987,63.0,24,46,6.0,100.0
19988,69.0,12,36,4.0,100.0
19989,68.0,0,46,4.0,100.0
19990,71.0,48,46,4.0,100.0
19991,68.0,48,46,4.0,100.0
19992,52.0,0,160,7.0,127.0
19993,64.0,36,160,5.0,100.0
19994,64.0,48,46,4.0,100.0
19995,52.0,48,46,6.0,100.0
19996,67.0,0,72,4.0,100.0
19997,50.0,48,46,6.0,100.0
19998,69.0,24,24,4.0,100.0
19999,67.0,0,24,4.0,100.0
20000,52.0,24,46,6.0,100.0
20001,69.0,24,24,4.0,100.0
20002,67.0,24,24,4.0,100.0
20003,54.0,0,46,6.0,100.0
20004,69.0,24,24,4.0,100.0
20005,67.0,24,24,4.0,100.0
20006,55.0,0,46,6.0,100.0
20007,69.0,24,24,4.0,100.0
20008,67.0,24,24,4.0,100.0
20009,57.0,0,46,6.0,100.0
20010,69.0,24,24,4.0,100.0
20011,67.0,24,24,4.0,100.0
20012,59.0,0,46,6.0,100.0
20013,69.0,24,36,4.0,100.0
20014,45.0,0,94,7.0,127.0
20015,61.0,24,46,6.0,100.0
20016,67.0,12,36,4.0,100.0
20017,66.0,36,46,4.0,100.0
20018,69.0,48,46,4.0,100.0
20019,66.0,48,46,4.0,100.0
20020,50.0,0,160,7.0,127.0
20021,62.0,0,160,5.0,100.0
20022,62.0,48,46,4.0,100.0
20023,66.0,0,46,5.0,100.0
20024,57.0,48,72,7.0,127.0
20025,64.0,48,46,5.0,100.0
20026,59.0,24,24,7.0,100.0
20027,57.0,0,24,7.0,100.0
20028,66.0,24,46,5.0,100.0
20029,59.0,24,24,7.0,100.0
20030,57.0,0,24,7.0,100.0
20031,67.0,24,46,5.0,100.0
20032,59.0,24,24,7.0,100.0
20033,57.0,24,24,7.0,100.0
20034,69.0,0,46,5.0,100.0
20035,59.0,24,24,7.0,100.0
20036,57.0,24,24,7.0,100.0
20037,71.0,0,46,5.0,100.0
20038,59.0,24,24,7.0,100.0
20039,57.0,24,24,7.0,100.0
20040,73.0,0,46,5.0,100.0
20041,59.0,24,36,7.0,100.0
20042,75.0,24,46,5.0,100.0
20043,83.0,0,94,4.0,100.0
20044,57.0,12,36,7.0,100.0
20045,56.0,36,46,7.0,100.0
20046,76.0,0,94,5.0,100.0
20047,59.0,48,46,7.0,100.0
20048,56.0,48,46,7.0,100.0
20049,52.0,48,46,7.0,100.0
20050,88.0,0,94,4.0,100.0
20051,64.0,0,46,5.0,100.0
20052,55.0,48,72,7.0,127.0
20053,62.0,48,46,5.0,100.0
20054,57.0,24,24,7.0,100.0
20055,55.0,0,24,7.0,100.0
20056,64.0,24,46,5.0,100.0
20057,57.0,24,24,7.0,100.0
20058,55.0,24,24,7.0,100.0
20059,66.0,0,46,5.0,100.0
20060,57.0,24,24,7.0,100.0
20061,55.0,24,24,7.0,100.0
20062,67.0,0,46,5.0,100.0
20063,57.0,24,24,7.0,100.0
20064,55.0,24,24,7.0,100.0
20065,69.0,0,46,5.0,100.0
20066,57.0,24,24,7.0,100.0
20067,55.0,0,24,7.0,100.0
20068,71.0,0,46,5.0,100.0
20069,57.0,24,36,7.0,100.0
20070,73.0,24,46,5.0,100.0
20071,81.0,24,94,4.0,100.0
20072,55.0,12,36,7.0,100.0
20073,54.0,0,46,7.0,100.0
20074,74.0,36,94,5.0,100.0
20075,57.0,48,46,7.0,100.0
20076,54.0,48,46,7.0,100.0
20077,50.0,48,46,7.0,100.0
20078,86.0,0,94,4.0,100.0
20079,62.0,48,46,5.0,100.0
20080,53.0,0,72,7.0,127.0
20081,60.0,48,46,5.0,100.0
20082,55.0,24,24,7.0,100.0
20083,53.0,0,24,7.0,100.0
20084,62.0,24,46,5.0,100.0
20085,55.0,24,24,7.0,100.0
20086,53.0,0,24,7.0,100.0
20087,63.0,24,46,5.0,100.0
20088,55.0,24,24,7.0,100.0
20089,53.0,0,24,7.0,100.0
20090,65.0,24,46,5.0,100.0
20091,55.0,24,24,7.0,100.0
20092,53.0,24,24,7.0,100.0
20093,67.0,0,46,5.0,100.0
20094,55.0,24,24,7.0,100.0
20095,53.0,24,24,7.0,100.0
20096,69.0,0,46,5.0,100.0
20097,55.0,24,36,7.0,100.0
20098,79.0,0,94,4.0,100.0
20099,71.0,24,46,5.0,100.0
20100,53.0,12,36,7.0,100.0
20101,51.0,36,46,7.0,100.0
20102,55.0,48,46,7.0,100.0
20103,72.0,0,94,5.0,100.0
20104,51.0,0,46,7.0,100.0
20105,48.0,48,46,7.0,100.0
20106,84.0,48,142,4.0,100.0
20107,76.0,48,46,4.0,100.0
20108,56.0,48,94,6.0,127.0
20109,56.0,0,94,7.0,127.0
20110,77.0,48,46,4.0,100.0
20111,79.0,48,46,4.0,100.0
20112,41.0,48,72,7.0,127.0
20113,80.0,0,94,4.0,100.0
20114,64.0,48,46,5.0,100.0
20115,43.0,24,24,7.0,100.0
20116,41.0,0,24,7.0,100.0
20117,65.0,24,46,5.0,100.0
20118,43.0,24,24,7.0,100.0
20119,41.0,24,24,7.0,100.0
20120,67.0,0,46,5.0,100.0
20121,43.0,24,24,7.0,100.0
20122,41.0,24,24,7.0,100.0
20123,43.0,24,24,7.0,100.0
20124,41.0,24,24,7.0,100.0
20125,70.0,0,46,4.0,100.0
20126,43.0,24,24,7.0,100.0
20127,41.0,0,24,7.0,100.0
20128,72.0,24,46,4.0,100.0
20129,40.0,24,36,7.0,100.0
20130,74.0,24,46,4.0,100.0
20131,41.0,12,36,7.0,100.0
20132,68.0,0,238,5.0,100.0
20133,67.0,48,46,5.0,100.0
20134,70.0,48,46,5.0,100.0
20135,39.0,36,160,7.0,127.0
20136,75.0,0,160,4.0,100.0
20137,68.0,48,46,5.0,100.0
20138,67.0,48,46,5.0,100.0
20139,65.0,48,46,5.0,100.0
20140,63.0,0,46,5.0,100.0
20141,39.0,48,48,7.0,127.0
20142,62.0,48,46,5.0,100.0
20143,41.0,0,48,7.0,127.0
20144,75.0,48,46,4.0,100.0
20145,43.0,0,48,7.0,127.0
20146,74.0,48,46,4.0,100.0
20147,44.0,0,48,7.0,127.0
20148,72.0,48,46,4.0,100.0
20149,46.0,0,48,7.0,127.0
20150,70.0,48,46,4.0,100.0
20151,48.0,0,48,7.0,127.0
20152,75.0,48,46,4.0,100.0
20153,70.0,48,46,4.0,100.0
20154,75.0,48,46,4.0,100.0
20155,43.0,0,160,7.0,127.0
20156,63.0,0,352,5.0,127.0
20157,74.0,48,46,4.0,100.0
20158,72.0,48,46,4.0,100.0
20159,70.0,48,46,4.0,100.0
20160,68.0,48,46,4.0,100.0
20161,43.0,0,48,7.0,127.0
20162,67.0,0,46,4.0,100.0
20163,44.0,48,48,7.0,127.0
20164,75.0,0,46,5.0,100.0
20165,46.0,48,48,7.0,127.0
20166,74.0,0,46,5.0,100.0
20167,48.0,48,48,7.0,127.0
20168,72.0,48,46,5.0,100.0
20169,50.0,0,48,7.0,127.0
20170,70.0,0,46,5.0,100.0
20171,51.0,48,48,7.0,127.0
20172,79.0,0,238,4.0,127.0
20173,77.0,48,46,4.0,100.0
20174,80.0,48,46,4.0,100.0
20175,46.0,48,160,7.0,127.0
20176,74.0,0,160,5.0,100.0
20177,79.0,48,46,4.0,100.0
20178,77.0,48,46,4.0,100.0
20179,75.0,48,46,4.0,100.0
20180,74.0,48,46,4.0,100.0
20181,46.0,0,46,7.0,100.0
20182,72.0,48,46,4.0,100.0
20183,48.0,0,46,7.0,100.0
20184,65.0,0,46,5.0,100.0
20185,50.0,48,46,7.0,100.0
20186,67.0,0,46,5.0,100.0
20187,48.0,48,46,7.0,100.0
20188,65.0,48,46,5.0,100.0
20189,50.0,0,46,7.0,100.0
20190,51.0,48,46,7.0,100.0
20191,63.0,0,46,5.0,100.0
20192,62.0,48,46,5.0,100.0
20193,53.0,0,46,7.0,100.0
20194,52.0,48,46,7.0,100.0
20195,60.0,0,46,5.0,100.0
20196,62.0,0,46,5.0,100.0
20197,53.0,48,46,7.0,100.0
20198,70.0,0,352,4.0,100.0
20199,63.0,48,46,5.0,100.0
20200,55.0,0,46,7.0,100.0
20201,56.0,0,46,7.0,100.0
20202,70.0,48,46,4.0,100.0
20203,72.0,48,46,4.0,100.0
20204,55.0,0,46,7.0,100.0
20205,74.0,48,46,4.0,100.0
20206,53.0,0,46,7.0,100.0
20207,51.0,0,46,7.0,100.0
20208,75.0,48,46,4.0,100.0
20209,50.0,48,46,7.0,100.0
20210,65.0,0,238,5.0,100.0
20211,67.0,0,46,5.0,100.0
20212,51.0,48,46,7.0,100.0
20213,50.0,0,46,7.0,100.0
20214,68.0,48,46,5.0,100.0
20215,69.0,48,46,5.0,100.0
20216,48.0,0,46,7.0,100.0
20217,46.0,0,46,7.0,100.0
20218,77.0,0,238,4.0,100.0
20219,79.0,0,46,4.0,100.0
20220,48.0,48,46,7.0,100.0
20221,46.0,0,46,7.0,100.0
20222,80.0,48,46,4.0,100.0
20223,81.0,48,46,4.0,100.0
20224,44.0,0,46,7.0,100.0
20225,70.0,48,238,5.0,100.0
20226,43.0,0,46,7.0,100.0
20227,44.0,0,46,7.0,100.0
20228,72.0,48,46,5.0,100.0
20229,74.0,48,46,5.0,100.0
20230,46.0,0,46,7.0,100.0
20231,82.0,48,160,4.0,100.0
20232,75.0,48,46,5.0,100.0
20233,48.0,0,46,7.0,100.0
20234,80.0,0,46,4.0,100.0
20235,77.0,0,46,5.0,100.0
20236,50.0,48,46,7.0,100.0
20237,51.0,48,46,7.0,100.0
20238,79.0,0,46,4.0,100.0
20239,75.0,0,46,5.0,100.0
20240,77.0,0,46,4.0,100.0
20241,74.0,0,46,5.0,100.0
20242,53.0,48,46,7.0,100.0
20243,75.0,0,46,4.0,100.0
20244,75.0,48,46,5.0,100.0
20245,55.0,0,46,7.0,100.0
20246,44.0,48,46,6.0,127.0
20247,44.0,0,46,7.0,127.0
20248,46.0,48,46,7.0,127.0
20249,84.0,0,94,4.0,127.0
20250,48.0,48,46,7.0,127.0
20251,49.0,48,46,7.0,127.0
20252,51.0,0,46,7.0,127.0
20253,68.0,48,72,4.0,127.0
20254,53.0,48,46,7.0,127.0
20255,70.0,24,24,4.0,100.0
20256,68.0,24,24,4.0,100.0
20257,55.0,0,46,7.0,127.0
20258,70.0,24,24,4.0,100.0
20259,68.0,0,24,4.0,100.0
20260,56.0,24,46,7.0,127.0
20261,70.0,24,24,4.0,100.0
20262,68.0,0,24,4.0,100.0
20263,58.0,24,46,7.0,127.0
20264,70.0,24,24,4.0,100.0
20265,68.0,24,24,4.0,100.0
20266,59.0,0,46,7.0,127.0
20267,70.0,24,24,4.0,100.0
20268,68.0,0,24,4.0,100.0
20269,67.0,24,36,4.0,100.0
20270,60.0,24,94,7.0,127.0
20271,68.0,36,36,4.0,100.0
20272,77.0,36,46,4.0,100.0
20273,80.0,0,94,7.0,100.0
20274,80.0,0,94,6.0,100.0
20275,79.0,48,46,4.0,100.0
20276,80.0,48,46,4.0,100.0
20277,82.0,48,46,4.0,100.0
20278,84.0,48,46,4.0,100.0
20279,65.0,0,72,7.0,127.0
20280,86.0,48,46,4.0,100.0
20281,67.0,24,24,7.0,100.0
20282,65.0,0,24,7.0,100.0
20283,87.0,24,46,4.0,100.0
20284,67.0,24,24,7.0,100.0
20285,65.0,24,24,7.0,100.0
20286,88.0,0,46,4.0,100.0
20287,67.0,24,24,7.0,100.0
20288,65.0,24,24,7.0,100.0
20289,89.0,0,46,4.0,100.0
20290,67.0,24,24,7.0,100.0
20291,65.0,0,24,7.0,100.0
20292,91.0,24,46,4.0,100.0
20293,67.0,24,24,7.0,100.0
20294,65.0,24,24,7.0,100.0
20295,63.0,24,36,7.0,100.0
20296,92.0,0,94,4.0,100.0
20297,65.0,36,36,7.0,100.0
20298,55.0,36,46,7.0,100.0
20299,94.0,0,94,4.0,127.0
20300,56.0,48,46,7.0,100.0
20301,58.0,48,46,7.0,100.0
20302,60.0,48,46,7.0,100.0
20303,62.0,0,46,7.0,100.0
20304,79.0,48,72,4.0,127.0
20305,63.0,48,46,7.0,100.0
20306,80.0,24,24,4.0,100.0
20307,79.0,24,24,4.0,100.0
20308,65.0,0,46,7.0,100.0
20309,80.0,24,24,4.0,100.0
20310,79.0,24,24,4.0,100.0
20311,67.0,0,46,7.0,100.0
20312,80.0,24,24,4.0,100.0
20313,79.0,0,24,4.0,100.0
20314,68.0,24,46,7.0,100.0
20315,80.0,24,24,4.0,100.0
20316,79.0,0,24,4.0,100.0
20317,69.0,24,46,7.0,100.0
20318,80.0,24,24,4.0,100.0
20319,79.0,24,24,4.0,100.0
20320,77.0,24,36,4.0,100.0
20321,70.0,0,94,7.0,100.0
20322,79.0,36,36,4.0,100.0
20323,75.0,0,46,4.0,100.0
20324,55.0,0,94,7.0,127.0
20325,77.0,48,46,4.0,100.0
20326,55.0,36,94,6.0,127.0
20327,79.0,48,46,4.0,100.0
20328,80.0,48,46,4.0,100.0
20329,82.0,0,46,4.0,100.0
20330,39.0,48,72,7.0,127.0
20331,84.0,48,46,4.0,100.0
20332,41.0,24,24,7.0,100.0
20333,39.0,0,24,7.0,100.0
20334,85.0,24,46,4.0,100.0
20335,41.0,24,24,7.0,100.0
20336,39.0,0,24,7.0,100.0
20337,86.0,24,46,4.0,100.0
20338,41.0,24,24,7.0,100.0
20339,39.0,24,24,7.0,100.0
20340,87.0,0,46,4.0,100.0
20341,41.0,24,24,7.0,100.0
20342,39.0,24,24,7.0,100.0
20343,89.0,0,46,4.0,100.0
20344,41.0,24,24,7.0,100.0
20345,39.0,0,24,7.0,100.0
20346,90.0,24,46,4.0,100.0
20347,38.0,24,36,7.0,100.0
20348,91.0,24,46,4.0,100.0
20349,39.0,12,36,7.0,100.0
20350,82.0,36,48,5.0,100.0
20351,34.0,0,94,6.0,127.0
20352,34.0,0,94,7.0,127.0
20353,92.0,0,94,4.0,127.0
20354,80.0,48,48,5.0,100.0
20355,79.0,48,48,5.0,100.0
20356,77.0,48,48,5.0,100.0
20357,75.0,0,48,5.0,100.0
20358,50.0,48,72,7.0,127.0
20359,51.0,24,24,7.0,100.0
20360,74.0,48,48,5.0,100.0
20361,50.0,0,24,7.0,100.0
20362,51.0,24,24,7.0,100.0
20363,72.0,24,48,5.0,100.0
20364,50.0,0,24,7.0,100.0
20365,70.0,24,48,5.0,100.0
20366,51.0,24,24,7.0,100.0
20367,50.0,0,24,7.0,100.0
20368,51.0,24,24,7.0,100.0
20369,69.0,24,48,5.0,100.0
20370,50.0,0,24,7.0,100.0
20371,51.0,24,24,7.0,100.0
20372,70.0,24,48,5.0,100.0
20373,50.0,24,24,7.0,100.0
20374,65.0,0,48,5.0,100.0
20375,77.0,0,336,4.0,127.0
20376,48.0,24,36,7.0,100.0
20377,50.0,12,36,7.0,100.0
20378,68.0,24,48,5.0,100.0
20379,39.0,36,94,6.0,127.0
20380,67.0,0,94,5.0,127.0
20381,39.0,0,94,7.0,127.0
20382,82.0,48,48,4.0,100.0
20383,84.0,48,48,4.0,100.0
20384,86.0,48,48,4.0,100.0
20385,87.0,48,48,4.0,100.0
20386,55.0,0,72,7.0,127.0
20387,56.0,24,24,7.0,100.0
20388,86.0,48,48,4.0,100.0
20389,55.0,24,24,7.0,100.0
20390,56.0,24,24,7.0,100.0
20391,87.0,0,48,4.0,100.0
20392,55.0,0,24,7.0,100.0
20393,89.0,24,48,4.0,100.0
20394,56.0,24,24,7.0,100.0
20395,55.0,0,24,7.0,100.0
20396,56.0,24,24,7.0,100.0
20397,91.0,24,48,4.0,100.0
20398,55.0,24,24,7.0,100.0
20399,89.0,0,48,4.0,100.0
20400,56.0,24,24,7.0,100.0
20401,55.0,0,24,7.0,100.0
20402,91.0,24,48,4.0,100.0
20403,82.0,0,336,5.0,127.0
20404,53.0,24,36,7.0,100.0
20405,55.0,12,36,7.0,100.0
20406,92.0,24,48,4.0,100.0
20407,36.0,36,94,7.0,127.0
20408,94.0,0,94,4.0,127.0
20409,39.0,0,94,6.0,127.0
20410,80.0,96,48,5.0,100.0
20411,79.0,48,48,5.0,100.0
20412,77.0,0,48,5.0,100.0
20413,52.0,0,72,7.0,127.0
20414,53.0,24,24,7.0,100.0
20415,76.0,48,48,5.0,100.0
20416,52.0,0,24,7.0,100.0
20417,53.0,24,24,7.0,100.0
20418,73.0,24,48,5.0,100.0
20419,52.0,24,24,7.0,100.0
20420,53.0,24,24,7.0,100.0
20421,72.0,0,48,5.0,100.0
20422,52.0,24,24,7.0,100.0
20423,53.0,24,24,7.0,100.0
20424,71.0,0,48,5.0,100.0
20425,52.0,0,24,7.0,100.0
20426,72.0,24,48,5.0,100.0
20427,53.0,24,24,7.0,100.0
20428,52.0,0,24,7.0,100.0
20429,79.0,48,336,4.0,127.0
20430,67.0,24,48,5.0,100.0
20431,50.0,24,36,7.0,100.0
20432,52.0,12,36,7.0,100.0
20433,70.0,24,48,5.0,100.0
20434,41.0,36,94,7.0,127.0
20435,41.0,0,94,6.0,127.0
20436,68.0,0,94,5.0,127.0
20437,84.0,96,48,4.0,100.0
20438,88.0,48,48,4.0,100.0
20439,89.0,0,48,4.0,100.0
20440,56.0,0,72,7.0,127.0
20441,58.0,24,24,7.0,100.0
20442,91.0,48,48,4.0,100.0
20443,56.0,0,24,7.0,100.0
20444,58.0,24,24,7.0,100.0
20445,92.0,24,48,4.0,100.0
20446,56.0,0,24,7.0,100.0
20447,91.0,24,48,4.0,100.0
20448,58.0,24,24,7.0,100.0
20449,56.0,24,24,7.0,100.0
20450,58.0,24,24,7.0,100.0
20451,89.0,0,48,4.0,100.0
20452,84.0,48,256,5.0,127.0
20453,56.0,0,24,7.0,100.0
20454,58.0,24,24,7.0,100.0
20455,87.0,24,48,4.0,100.0
20456,56.0,0,24,7.0,100.0
20457,86.0,0,48,4.0,100.0
20458,55.0,24,36,7.0,100.0
20459,78.0,24,94,5.0,100.0
20460,84.0,24,48,4.0,100.0
20461,56.0,12,36,7.0,100.0
20462,79.0,36,94,4.0,100.0
20463,83.0,0,94,4.0,100.0
20464,55.0,0,94,7.0,127.0
20465,74.0,96,32,4.0,100.0
20466,59.0,0,32,7.0,100.0
20467,43.0,0,22,7.0,100.0
20468,59.0,96,22,4.0,100.0
20469,44.0,0,22,7.0,100.0
20470,60.0,24,22,4.0,100.0
20471,59.0,24,22,4.0,100.0
20472,43.0,0,22,7.0,100.0
20473,44.0,0,22,7.0,100.0
20474,60.0,24,22,4.0,100.0
20475,55.0,24,94,5.0,100.0
20476,71.0,96,22,5.0,100.0
20477,72.0,24,22,5.0,100.0
20478,71.0,24,22,5.0,100.0
20479,72.0,24,22,5.0,100.0
20480,79.0,0,94,4.0,100.0
20481,63.0,24,94,7.0,127.0
20482,63.0,96,22,4.0,100.0
20483,48.0,0,22,7.0,100.0
20484,50.0,24,22,7.0,100.0
20485,65.0,0,22,4.0,100.0
20486,63.0,0,22,4.0,100.0
20487,48.0,24,22,7.0,100.0
20488,65.0,24,22,4.0,100.0
20489,50.0,0,22,7.0,100.0
20490,60.0,24,94,5.0,100.0
20491,75.0,96,22,5.0,100.0
20492,77.0,24,22,5.0,100.0
20493,75.0,24,22,5.0,100.0
20494,77.0,24,22,5.0,100.0
20495,57.0,24,94,7.0,127.0
20496,84.0,0,94,4.0,100.0
20497,69.0,96,22,4.0,100.0
20498,42.0,0,22,7.0,100.0
20499,43.0,24,22,7.0,100.0
20500,70.0,0,22,4.0,100.0
20501,42.0,24,22,7.0,100.0
20502,69.0,0,22,4.0,100.0
20503,43.0,24,22,7.0,100.0
20504,70.0,0,22,4.0,100.0
20505,62.0,24,94,5.0,100.0
20506,78.0,96,22,5.0,100.0
20507,79.0,24,22,5.0,100.0
20508,78.0,24,22,5.0,100.0
20509,79.0,24,22,5.0,100.0
20510,86.0,24,94,4.0,100.0
20511,58.0,0,94,7.0,127.0
20512,70.0,96,22,4.0,100.0
20513,43.0,0,22,7.0,100.0
20514,45.0,0,22,7.0,100.0
20515,72.0,24,22,4.0,100.0
20516,70.0,24,22,4.0,100.0
20517,43.0,0,22,7.0,100.0
20518,45.0,24,22,7.0,100.0
20519,72.0,0,22,4.0,100.0
20520,67.0,24,94,5.0,127.0
20521,82.0,96,22,5.0,100.0
20522,84.0,24,22,5.0,100.0
20523,82.0,24,22,5.0,100.0
20524,84.0,24,22,5.0,100.0
20525,91.0,0,94,4.0,100.0
20526,64.0,24,94,7.0,127.0
20527,49.0,0,22,7.0,100.0
20528,76.0,96,22,4.0,100.0
20529,50.0,24,22,7.0,100.0
20530,77.0,0,22,4.0,100.0
20531,76.0,0,22,4.0,100.0
20532,49.0,24,22,7.0,100.0
20533,77.0,0,22,4.0,100.0
20534,50.0,24,22,7.0,100.0
20535,73.0,24,94,4.0,127.0
20536,88.0,96,22,4.0,127.0
20537,89.0,24,22,4.0,127.0
20538,88.0,24,22,4.0,127.0
20539,89.0,24,22,4.0,127.0
20540,57.0,0,94,7.0,127.0
20541,81.0,24,94,4.0,127.0
20542,93.0,0,94,4.0,127.0
20543,53.0,96,94,7.0,127.0
20544,77.0,0,94,4.0,127.0
20545,89.0,0,94,4.0,127.0
20546,50.0,0,94,7.0,127.0
20547,86.0,0,94,4.0,127.0
20548,74.0,96,94,4.0,127.0
20549,69.0,0,94,4.0,127.0
20550,81.0,96,94,4.0,127.0
20551,45.0,0,94,7.0,127.0
20552,41.0,0,94,7.0,127.0
20553,77.0,0,94,4.0,127.0
20554,65.0,96,94,4.0,127.0
20555,38.0,0,94,7.0,127.0
20556,74.0,96,94,4.0,127.0
20557,62.0,0,94,4.0,127.0
20558,45.0,96,94,7.0,127.0
20559,69.0,0,94,4.0,127.0
20560,57.0,0,94,4.0,127.0
20561,33.0,0,94,7.0,127.0
20562,34.0,96,94,7.0,127.0
20563,46.0,0,94,7.0,127.0
20564,68.0,0,94,4.0,127.0
20565,62.0,0,94,4.0,127.0
20566,56.0,0,94,4.0,127.0
20567,74.0,0,94,4.0,127.0
20568,68.0,0,94,4.0,127.0
20569,46.0,0,94,7.0,127.0
20570,34.0,0,94,7.0,127.0
20571,80.0,96,94,4.0,127.0
20572,33.0,0,94,6.0,100.0
20573,37.0,0,94,6.0,100.0
20574,45.0,0,94,6.0,100.0
20575,40.0,0,94,6.0,100.0
20576,81.0,0,94,4.0,127.0
20577,37.0,0,94,7.0,127.0
20578,40.0,0,94,7.0,127.0
20579,45.0,0,94,7.0,127.0
20580,73.0,0,94,4.0,127.0
20581,69.0,96,94,4.0,127.0
20582,33.0,0,94,7.0,127.0
20583,93.0,0,94,4.0,127.0
20584,40.0,0,94,6.0,100.0
20585,37.0,192,94,6.0,100.0
20586,33.0,0,94,6.0,100.0
20587,33.0,0,94,7.0,127.0
20588,37.0,0,94,7.0,127.0
20589,40.0,0,94,7.0,127.0
20590,45.0,0,94,7.0,127.0
20591,81.0,0,94,4.0,127.0
20592,85.0,0,94,4.0,127.0
20593,88.0,0,94,4.0,127.0
20594,45.0,0,94,6.0,100.0
20595,69.0,1152,192,4.0,100.0
20596,67.0,192,192,4.0,100.0
20597,66.0,192,192,4.0,100.0
20598,67.0,192,192,4.0,100.0
20599,69.0,192,192,4.0,100.0
20600,62.0,192,192,4.0,100.0
20601,64.0,0,192,4.0,100.0
20602,62.0,192,192,5.0,100.0
20603,60.0,0,192,5.0,100.0
20604,66.0,192,192,4.0,100.0
20605,59.0,192,192,5.0,100.0
20606,61.0,192,192,5.0,100.0
20607,67.0,0,384,4.0,100.0
20608,66.0,0,192,4.0,100.0
20609,62.0,192,352,5.0,100.0
20610,64.0,192,336,4.0,100.0
20611,57.0,192,192,7.0,100.0
20612,55.0,0,192,7.0,100.0
20613,61.0,0,384,5.0,100.0
20614,54.0,0,192,7.0,100.0
20615,63.0,192,192,5.0,100.0
20616,64.0,0,192,5.0,100.0
20617,55.0,192,192,7.0,100.0
20618,69.0,192,768,4.0,100.0
20619,66.0,0,352,5.0,100.0
20620,71.0,192,160,4.0,100.0
20621,57.0,192,384,7.0,100.0
20622,55.0,0,192,7.0,100.0
20623,73.0,192,192,4.0,100.0
20624,64.0,0,192,5.0,100.0
20625,74.0,0,192,4.0,100.0
20626,54.0,0,192,7.0,100.0
20627,69.0,192,192,4.0,100.0
20628,62.0,192,384,5.0,100.0
20629,59.0,0,192,7.0,100.0
20630,64.0,192,192,5.0,100.0
20631,49.0,0,192,7.0,100.0
20632,67.0,0,192,4.0,100.0
20633,50.0,0,192,7.0,100.0
20634,57.0,192,192,5.0,100.0
20635,58.0,0,192,5.0,100.0
20636,66.0,0,384,4.0,100.0
20637,43.0,192,192,7.0,100.0
20638,44.0,0,192,7.0,100.0
20639,59.0,0,192,5.0,100.0
20640,61.0,192,192,5.0,100.0
20641,45.0,0,192,7.0,100.0
20642,47.0,0,160,7.0,100.0
20643,64.0,192,544,4.0,100.0
20644,62.0,192,160,5.0,100.0
20645,76.0,0,192,4.0,100.0
20646,69.0,192,192,5.0,100.0
20647,42.0,0,192,7.0,100.0
20648,71.0,0,192,5.0,100.0
20649,74.0,192,192,4.0,100.0
20650,44.0,0,192,7.0,100.0
20651,71.0,192,192,5.0,100.0
20652,45.0,0,192,7.0,100.0
20653,73.0,0,192,4.0,100.0
20654,74.0,0,192,4.0,100.0
20655,47.0,0,192,7.0,100.0
20656,69.0,192,192,5.0,100.0
20657,49.0,0,192,7.0,100.0
20658,76.0,192,192,4.0,100.0
20659,67.0,0,192,5.0,100.0
20660,69.0,192,192,4.0,100.0
20661,50.0,0,192,7.0,100.0
20662,66.0,0,192,5.0,100.0
20663,71.0,192,192,4.0,100.0
20664,67.0,0,192,5.0,100.0
20665,62.0,0,192,7.0,100.0
20666,69.0,0,192,5.0,100.0
20667,60.0,0,192,7.0,100.0
20668,72.0,192,192,4.0,100.0
20669,59.0,0,192,7.0,100.0
20670,62.0,192,192,5.0,100.0
20671,74.0,0,384,4.0,100.0
20672,64.0,0,192,5.0,100.0
20673,60.0,192,192,7.0,100.0
20674,62.0,192,192,7.0,100.0
20675,66.0,0,192,5.0,100.0
20676,55.0,192,160,7.0,100.0
20677,72.0,0,384,4.0,100.0
20678,67.0,0,336,5.0,100.0
20679,71.0,0,160,4.0,100.0
20680,57.0,192,192,7.0,100.0
20681,59.0,0,192,7.0,100.0
20682,52.0,192,192,7.0,100.0
20683,69.0,192,384,4.0,100.0
20684,66.0,0,384,5.0,100.0
20685,67.0,192,192,4.0,100.0
20686,64.0,0,192,5.0,100.0
20687,54.0,0,192,7.0,100.0
20688,55.0,0,192,7.0,100.0
20689,66.0,192,192,4.0,100.0
20690,62.0,0,384,5.0,100.0
20691,56.0,192,192,7.0,100.0
20692,57.0,192,192,7.0,100.0
20693,64.0,0,384,4.0,100.0
20694,61.0,0,384,5.0,100.0
20695,55.0,192,192,7.0,100.0
20696,69.0,0,384,4.0,100.0
20697,54.0,0,192,7.0,100.0
20698,66.0,192,192,4.0,100.0
20699,59.0,0,192,7.0,100.0
20700,57.0,192,160,7.0,100.0
20701,63.0,192,576,5.0,100.0
20702,71.0,0,352,4.0,100.0
20703,64.0,192,192,5.0,100.0
20704,61.0,192,192,6.0,100.0
20705,76.0,0,192,4.0,100.0
20706,55.0,0,384,7.0,100.0
20707,59.0,0,192,6.0,100.0
20708,74.0,0,192,4.0,100.0
20709,53.0,192,192,7.0,100.0
20710,58.0,0,192,6.0,100.0
20711,73.0,192,192,4.0,100.0
20712,78.0,192,192,4.0,100.0
20713,54.0,0,384,7.0,100.0
20714,62.0,0,192,6.0,100.0
20715,56.0,0,96,7.0,100.0
20716,76.0,192,192,4.0,100.0
20717,61.0,0,192,6.0,100.0
20718,58.0,96,96,7.0,100.0
20719,74.0,0,160,4.0,100.0
20720,59.0,0,160,7.0,100.0
20721,62.0,96,192,6.0,100.0
20722,57.0,0,192,7.0,100.0
20723,61.0,192,192,6.0,100.0
20724,81.0,0,192,4.0,100.0
20725,64.0,0,192,6.0,100.0
20726,79.0,0,192,4.0,100.0
20727,61.0,192,192,7.0,100.0
20728,78.0,192,160,4.0,100.0
20729,66.0,0,160,5.0,100.0
20730,62.0,0,160,7.0,100.0
20731,75.0,192,192,4.0,100.0
20732,71.0,0,192,5.0,100.0
20733,54.0,0,192,7.0,100.0
20734,51.0,0,192,7.0,100.0
20735,69.0,192,192,5.0,100.0
20736,78.0,0,192,4.0,100.0
20737,71.0,0,160,4.0,100.0
20738,52.0,0,160,7.0,100.0
20739,67.0,192,160,5.0,100.0
20740,66.0,0,192,5.0,100.0
20741,64.0,0,192,7.0,100.0
20742,69.0,192,192,4.0,100.0
20743,62.0,192,192,7.0,100.0
20744,68.0,0,192,5.0,100.0
20745,71.0,0,192,4.0,100.0
20746,61.0,192,160,7.0,100.0
20747,69.0,0,192,5.0,100.0
20748,73.0,0,192,4.0,100.0
20749,45.0,192,192,7.0,100.0
20750,74.0,0,192,4.0,100.0
20751,71.0,0,192,5.0,100.0
20752,43.0,0,192,7.0,100.0
20753,73.0,0,192,5.0,100.0
20754,42.0,0,192,7.0,100.0
20755,76.0,192,384,4.0,100.0
20756,69.0,192,192,5.0,100.0
20757,44.0,192,192,7.0,100.0
20758,74.0,0,192,4.0,100.0
20759,65.0,0,192,5.0,100.0
20760,45.0,192,0,7.0,100.0
20761,64.0,0,192,5.0,100.0
20762,73.0,192,192,4.0,100.0
20763,44.0,192,192,7.0,100.0
20764,40.0,192,192,7.0,100.0
20765,45.0,192,192,7.0,100.0
20766,62.0,0,768,5.0,100.0
20767,71.0,0,768,4.0,100.0
20768,69.0,0,160,4.0,100.0
20769,57.0,192,160,7.0,100.0
20770,61.0,0,160,5.0,100.0
20771,54.0,0,192,7.0,100.0
20772,72.0,192,384,4.0,100.0
20773,63.0,0,384,5.0,100.0
20774,55.0,192,336,7.0,100.0
20775,71.0,192,160,4.0,100.0
20776,64.0,0,192,5.0,100.0
20777,52.0,192,192,7.0,100.0
20778,73.0,0,384,4.0,100.0
20779,67.0,0,384,5.0,100.0
20780,51.0,192,192,7.0,100.0
20781,74.0,192,160,4.0,100.0
20782,50.0,0,160,7.0,100.0
20783,66.0,0,192,5.0,100.0
20784,67.0,0,192,5.0,100.0
20785,48.0,192,192,7.0,100.0
20786,53.0,192,192,7.0,100.0
20787,75.0,0,384,4.0,100.0
20788,57.0,0,192,6.0,100.0
20789,74.0,0,160,4.0,100.0
20790,46.0,0,192,7.0,100.0
20791,58.0,192,192,6.0,100.0
20792,73.0,192,192,4.0,100.0
20793,46.0,0,192,7.0,100.0
20794,52.0,0,192,6.0,100.0
20795,72.0,192,94,4.0,100.0
20796,53.0,0,160,7.0,100.0
20797,45.0,0,160,7.0,100.0
20798,69.0,192,72,5.0,100.0
20799,70.0,72,24,5.0,100.0
20800,69.0,24,24,5.0,100.0
20801,70.0,24,24,5.0,100.0
20802,48.0,0,160,7.0,100.0
20803,69.0,24,24,5.0,100.0
20804,70.0,24,24,5.0,100.0
20805,77.0,0,192,4.0,100.0
20806,69.0,0,24,5.0,100.0
20807,70.0,24,24,5.0,100.0
20808,69.0,24,24,5.0,100.0
20809,70.0,24,24,5.0,100.0
20810,69.0,24,24,5.0,100.0
20811,67.0,24,36,5.0,100.0
20812,41.0,24,160,7.0,100.0
20813,75.0,0,192,4.0,100.0
20814,69.0,36,36,5.0,100.0
20815,46.0,0,160,7.0,100.0
20816,70.0,0,160,5.0,100.0
20817,74.0,36,192,4.0,100.0
20818,70.0,96,48,5.0,100.0
20819,69.0,48,48,5.0,100.0
20820,75.0,192,192,4.0,100.0
20821,67.0,48,48,5.0,100.0
20822,65.0,48,48,5.0,100.0
20823,63.0,48,48,5.0,100.0
20824,77.0,0,192,4.0,100.0
20825,62.0,48,48,5.0,100.0
20826,67.0,0,160,5.0,100.0
20827,71.0,48,192,4.0,100.0
20828,67.0,96,48,5.0,100.0
20829,72.0,192,192,4.0,100.0
20830,65.0,48,48,5.0,100.0
20831,63.0,0,48,5.0,100.0
20832,62.0,48,48,5.0,100.0
20833,60.0,48,48,5.0,100.0
20834,74.0,48,192,4.0,100.0
20835,59.0,48,48,5.0,100.0
20836,71.0,48,94,5.0,100.0
20837,43.0,0,160,7.0,100.0
20838,62.0,0,160,4.0,100.0
20839,59.0,0,72,7.0,100.0
20840,60.0,72,24,7.0,100.0
20841,59.0,24,24,7.0,100.0
20842,60.0,24,24,7.0,100.0
20843,59.0,24,24,7.0,100.0
20844,60.0,24,24,7.0,100.0
20845,67.0,192,192,5.0,100.0
20846,59.0,24,24,7.0,100.0
20847,60.0,24,24,7.0,100.0
20848,59.0,24,24,7.0,100.0
20849,60.0,24,24,7.0,100.0
20850,59.0,24,24,7.0,100.0
20851,57.0,24,36,7.0,100.0
20852,59.0,36,36,7.0,100.0
20853,65.0,0,192,5.0,100.0
20854,60.0,36,160,7.0,100.0
20855,64.0,0,192,5.0,100.0
20856,60.0,96,48,7.0,100.0
20857,58.0,48,48,7.0,100.0
20858,65.0,192,192,5.0,100.0
20859,57.0,48,48,7.0,100.0
20860,55.0,48,48,7.0,100.0
20861,53.0,48,48,7.0,100.0
20862,52.0,48,48,7.0,100.0
20863,67.0,0,192,5.0,100.0
20864,57.0,48,160,7.0,100.0
20865,60.0,0,192,5.0,100.0
20866,57.0,96,48,7.0,100.0
20867,72.0,192,160,4.0,100.0
20868,62.0,0,192,5.0,100.0
20869,55.0,48,48,7.0,100.0
20870,53.0,48,48,7.0,100.0
20871,52.0,48,48,7.0,100.0
20872,50.0,48,48,7.0,100.0
20873,70.0,0,160,4.0,100.0
20874,48.0,48,48,7.0,100.0
20875,64.0,0,192,5.0,100.0
20876,53.0,48,160,7.0,100.0
20877,69.0,0,160,4.0,100.0
20878,65.0,0,192,5.0,100.0
20879,53.0,96,46,7.0,100.0
20880,70.0,192,160,4.0,100.0
20881,52.0,48,46,7.0,100.0
20882,67.0,0,192,5.0,100.0
20883,50.0,0,46,7.0,100.0
20884,48.0,48,46,7.0,100.0
20885,46.0,48,46,7.0,100.0
20886,72.0,0,160,4.0,100.0
20887,45.0,48,46,7.0,100.0
20888,69.0,48,192,5.0,100.0
20889,48.0,0,46,7.0,100.0
20890,63.0,48,94,5.0,100.0
20891,65.0,0,94,4.0,100.0
20892,46.0,48,46,7.0,100.0
20893,45.0,0,46,7.0,100.0
20894,43.0,48,46,7.0,100.0
20895,72.0,48,160,5.0,100.0
20896,81.0,48,72,4.0,100.0
20897,82.0,72,24,4.0,100.0
20898,81.0,24,24,4.0,100.0
20899,82.0,24,24,4.0,100.0
20900,29.0,0,160,7.0,127.0
20901,41.0,0,160,7.0,127.0
20902,81.0,24,24,4.0,100.0
20903,82.0,24,24,4.0,100.0
20904,81.0,24,24,4.0,100.0
20905,82.0,24,24,4.0,100.0
20906,77.0,0,160,5.0,100.0
20907,81.0,24,24,4.0,100.0
20908,82.0,24,24,4.0,100.0
20909,81.0,24,24,4.0,100.0
20910,79.0,24,36,4.0,100.0
20911,39.0,0,160,7.0,127.0
20912,27.0,0,160,7.0,127.0
20913,81.0,36,34,4.0,100.0
20914,78.0,0,94,5.0,100.0
20915,82.0,96,46,4.0,127.0
20916,38.0,36,160,7.0,127.0
20917,26.0,0,160,7.0,127.0
20918,81.0,48,46,4.0,100.0
20919,79.0,48,46,4.0,100.0
20920,77.0,48,46,4.0,100.0
20921,75.0,48,46,4.0,100.0
20922,39.0,0,160,7.0,127.0
20923,27.0,0,160,7.0,127.0
20924,74.0,48,46,4.0,100.0
20925,58.0,96,46,6.0,127.0
20926,41.0,48,160,7.0,127.0
20927,29.0,0,160,7.0,127.0
20928,56.0,48,46,6.0,100.0
20929,55.0,0,46,6.0,100.0
20930,53.0,48,46,6.0,100.0
20931,51.0,48,46,6.0,100.0
20932,27.0,0,160,7.0,127.0
20933,39.0,48,160,7.0,127.0
20934,50.0,48,46,6.0,100.0
20935,79.0,96,46,4.0,127.0
20936,41.0,0,160,7.0,127.0
20937,29.0,48,160,7.0,127.0
20938,77.0,48,46,4.0,100.0
20939,75.0,0,46,4.0,100.0
20940,74.0,48,46,4.0,100.0
20941,72.0,48,46,4.0,100.0
20942,43.0,48,160,7.0,127.0
20943,31.0,0,160,7.0,127.0
20944,70.0,48,46,4.0,100.0
20945,60.0,96,46,6.0,127.0
20946,40.0,0,160,7.0,127.0
20947,28.0,48,160,7.0,127.0
20948,58.0,48,46,6.0,100.0
20949,56.0,0,46,6.0,100.0
20950,55.0,48,46,6.0,100.0
20951,53.0,48,46,6.0,100.0
20952,29.0,0,160,7.0,127.0
20953,41.0,48,160,7.0,127.0
20954,52.0,48,46,6.0,100.0
20955,77.0,96,46,4.0,127.0
20956,31.0,0,160,7.0,127.0
20957,43.0,48,160,7.0,127.0
20958,76.0,48,46,4.0,100.0
20959,73.0,0,46,4.0,100.0
20960,72.0,48,46,4.0,100.0
20961,70.0,48,46,4.0,100.0
20962,41.0,0,160,7.0,127.0
20963,29.0,48,160,7.0,127.0
20964,69.0,48,46,4.0,100.0
20965,57.0,96,46,6.0,127.0
20966,43.0,48,160,7.0,127.0
20967,31.0,0,160,7.0,127.0
20968,55.0,48,46,6.0,100.0
20969,54.0,0,46,6.0,100.0
20970,51.0,48,46,6.0,100.0
20971,50.0,48,46,6.0,100.0
20972,33.0,0,160,7.0,127.0
20973,45.0,48,160,7.0,127.0
20974,48.0,48,46,6.0,100.0
20975,86.0,96,46,4.0,100.0
20976,42.0,0,160,7.0,127.0
20977,30.0,48,160,7.0,127.0
20978,84.0,48,46,4.0,100.0
20979,82.0,0,46,4.0,100.0
20980,81.0,48,46,4.0,100.0
20981,79.0,48,46,4.0,100.0
20982,43.0,0,160,7.0,127.0
20983,31.0,48,160,7.0,127.0
20984,78.0,48,46,4.0,100.0
20985,62.0,96,46,5.0,100.0
20986,45.0,0,160,7.0,127.0
20987,33.0,48,160,7.0,127.0
20988,61.0,48,46,5.0,100.0
20989,60.0,48,46,5.0,100.0
20990,58.0,48,46,5.0,100.0
20991,57.0,48,46,5.0,100.0
20992,43.0,0,160,7.0,127.0
20993,31.0,0,160,7.0,127.0
20994,55.0,48,46,5.0,100.0
20995,75.0,96,46,4.0,100.0
20996,33.0,48,160,7.0,127.0
20997,45.0,0,160,7.0,127.0
20998,74.0,48,46,4.0,100.0
20999,72.0,48,46,4.0,100.0
21000,34.0,0,46,7.0,127.0
21001,70.0,48,46,4.0,100.0
21002,46.0,0,46,7.0,100.0
21003,48.0,48,46,7.0,100.0
21004,69.0,0,46,4.0,100.0
21005,46.0,48,46,7.0,100.0
21006,67.0,0,46,4.0,100.0
21007,65.0,48,46,4.0,100.0
21008,45.0,0,46,7.0,100.0
21009,64.0,48,46,4.0,100.0
21010,43.0,0,46,7.0,100.0
21011,62.0,0,46,5.0,100.0
21012,41.0,48,46,7.0,100.0
21013,60.0,0,46,5.0,100.0
21014,40.0,48,46,7.0,100.0
21015,70.0,0,94,4.0,100.0
21016,58.0,48,46,4.0,100.0
21017,43.0,0,46,7.0,100.0
21018,41.0,48,46,7.0,100.0
21019,57.0,0,46,4.0,100.0
21020,52.0,48,46,7.0,100.0
21021,55.0,0,46,4.0,100.0
21022,53.0,0,46,4.0,100.0
21023,50.0,48,46,7.0,100.0
21024,52.0,48,46,4.0,100.0
21025,48.0,0,46,7.0,100.0
21026,50.0,0,46,4.0,100.0
21027,46.0,48,46,7.0,100.0
21028,60.0,0,46,4.0,100.0
21029,45.0,48,46,7.0,100.0
21030,43.0,48,46,7.0,100.0
21031,58.0,0,46,4.0,100.0
21032,41.0,0,46,7.0,100.0
21033,57.0,48,46,4.0,100.0
21034,55.0,0,46,4.0,100.0
21035,40.0,48,46,7.0,100.0
21036,53.0,48,46,4.0,100.0
21037,38.0,0,46,7.0,100.0
21038,52.0,48,46,4.0,100.0
21039,36.0,0,46,7.0,100.0
21040,50.0,0,46,4.0,100.0
21041,58.0,0,94,6.0,100.0
21042,48.0,48,46,4.0,100.0
21043,58.0,48,94,7.0,100.0
21044,52.0,48,46,4.0,100.0
21045,55.0,48,46,4.0,100.0
21046,43.0,0,72,7.0,127.0
21047,46.0,0,94,4.0,127.0
21048,46.0,48,94,5.0,127.0
21049,45.0,72,24,7.0,127.0
21050,43.0,24,24,7.0,127.0
21051,45.0,24,24,7.0,127.0
21052,43.0,24,24,7.0,127.0
21053,45.0,24,24,7.0,127.0
21054,43.0,24,24,7.0,127.0
21055,45.0,24,24,7.0,127.0
21056,64.0,0,72,5.0,127.0
21057,43.0,24,24,7.0,127.0
21058,45.0,24,24,7.0,127.0
21059,65.0,0,24,5.0,100.0
21060,64.0,0,24,5.0,100.0
21061,43.0,24,24,7.0,127.0
21062,65.0,24,24,5.0,100.0
21063,41.0,0,36,7.0,127.0
21064,64.0,24,24,5.0,100.0
21065,65.0,12,24,5.0,100.0
21066,43.0,12,36,7.0,127.0
21067,64.0,24,24,5.0,100.0
21068,65.0,24,24,5.0,100.0
21069,64.0,24,24,5.0,100.0
21070,65.0,24,24,5.0,100.0
21071,64.0,24,24,5.0,100.0
21072,62.0,24,36,5.0,100.0
21073,41.0,0,160,7.0,127.0
21074,64.0,36,36,5.0,100.0
21075,41.0,96,46,7.0,100.0
21076,65.0,36,160,5.0,127.0
21077,43.0,48,46,7.0,100.0
21078,45.0,48,46,7.0,100.0
21079,46.0,48,46,7.0,100.0
21080,48.0,48,46,7.0,100.0
21081,65.0,0,48,5.0,100.0
21082,50.0,48,46,7.0,100.0
21083,64.0,0,48,5.0,100.0
21084,62.0,0,48,5.0,100.0
21085,60.0,48,48,5.0,100.0
21086,58.0,48,48,5.0,100.0
21087,45.0,48,160,7.0,127.0
21088,57.0,48,48,5.0,100.0
21089,45.0,96,46,7.0,100.0
21090,62.0,48,160,5.0,100.0
21091,46.0,48,46,7.0,100.0
21092,48.0,48,46,7.0,100.0
21093,50.0,48,46,7.0,100.0
21094,52.0,0,46,7.0,100.0
21095,62.0,48,48,5.0,100.0
21096,53.0,48,46,7.0,100.0
21097,60.0,0,48,5.0,100.0
21098,58.0,0,48,5.0,100.0
21099,57.0,48,48,5.0,100.0
21100,55.0,48,48,5.0,100.0
21101,48.0,48,160,7.0,127.0
21102,53.0,48,48,5.0,100.0
21103,48.0,96,46,7.0,100.0
21104,58.0,48,160,5.0,100.0
21105,50.0,48,46,7.0,100.0
21106,52.0,48,46,7.0,100.0
21107,50.0,48,46,7.0,100.0
21108,70.0,0,46,5.0,100.0
21109,52.0,48,46,7.0,100.0
21110,53.0,0,46,7.0,100.0
21111,69.0,48,46,5.0,100.0
21112,67.0,0,46,5.0,127.0
21113,55.0,48,46,7.0,100.0
21114,53.0,48,46,7.0,100.0
21115,69.0,0,46,5.0,100.0
21116,55.0,0,46,7.0,100.0
21117,67.0,48,46,5.0,100.0
21118,65.0,0,46,5.0,100.0
21119,57.0,48,46,7.0,100.0
21120,58.0,0,46,7.0,100.0
21121,64.0,48,46,5.0,127.0
21122,57.0,0,46,7.0,100.0
21123,65.0,48,46,5.0,100.0
21124,64.0,48,46,5.0,100.0
21125,55.0,0,46,7.0,100.0
21126,62.0,48,46,5.0,100.0
21127,57.0,0,46,7.0,100.0
21128,60.0,48,46,5.0,127.0
21129,58.0,0,46,7.0,100.0
21130,62.0,48,46,5.0,100.0
21131,57.0,0,46,7.0,100.0
21132,64.0,0,46,5.0,100.0
21133,55.0,48,46,7.0,100.0
21134,53.0,0,46,7.0,100.0
21135,65.0,48,46,5.0,100.0
21136,52.0,0,46,7.0,100.0
21137,66.0,48,46,5.0,127.0
21138,50.0,48,46,7.0,100.0
21139,67.0,0,46,5.0,100.0
21140,48.0,0,46,7.0,100.0
21141,69.0,48,46,5.0,100.0
21142,67.0,0,46,5.0,100.0
21143,50.0,48,46,7.0,100.0
21144,51.0,48,46,7.0,100.0
21145,65.0,0,46,5.0,127.0
21146,67.0,48,46,5.0,100.0
21147,50.0,0,46,7.0,100.0
21148,48.0,48,46,7.0,100.0
21149,69.0,0,46,5.0,100.0
21150,46.0,48,46,7.0,100.0
21151,70.0,0,46,5.0,100.0
21152,50.0,48,46,7.0,100.0
21153,71.0,0,46,5.0,127.0
21154,48.0,48,46,7.0,100.0
21155,72.0,0,46,5.0,100.0
21156,74.0,48,46,5.0,100.0
21157,46.0,0,46,7.0,100.0
21158,72.0,0,46,5.0,100.0
21159,45.0,48,46,7.0,100.0
21160,74.0,48,46,5.0,100.0
21161,46.0,0,46,7.0,100.0
21162,45.0,0,46,7.0,100.0
21163,75.0,0,94,4.0,127.0
21164,72.0,48,46,5.0,100.0
21165,70.0,48,46,5.0,100.0
21166,43.0,0,46,7.0,100.0
21167,69.0,48,46,5.0,100.0
21168,41.0,0,46,7.0,100.0
21169,60.0,48,72,4.0,127.0
21170,62.0,72,24,4.0,100.0
21171,60.0,24,24,4.0,100.0
21172,62.0,24,24,4.0,100.0
21173,60.0,24,24,4.0,100.0
21174,29.0,0,94,6.0,127.0
21175,29.0,0,94,7.0,127.0
21176,62.0,24,24,4.0,100.0
21177,60.0,0,24,4.0,100.0
21178,62.0,24,24,4.0,100.0
21179,45.0,24,72,7.0,127.0
21180,60.0,24,24,4.0,100.0
21181,46.0,0,24,7.0,100.0
21182,62.0,24,24,4.0,100.0
21183,60.0,0,24,4.0,100.0
21184,45.0,24,24,7.0,100.0
21185,46.0,24,24,7.0,100.0
21186,58.0,0,36,4.0,100.0
21187,45.0,24,24,7.0,100.0
21188,51.0,0,384,6.0,100.0
21189,46.0,12,24,7.0,100.0
21190,60.0,12,36,4.0,100.0
21191,45.0,0,24,7.0,100.0
21192,46.0,24,24,7.0,100.0
21193,45.0,24,24,7.0,100.0
21194,46.0,24,24,7.0,100.0
21195,45.0,24,24,7.0,100.0
21196,43.0,24,36,7.0,100.0
21197,58.0,0,160,4.0,127.0
21198,50.0,24,160,6.0,100.0
21199,45.0,36,36,7.0,100.0
21200,58.0,96,48,4.0,100.0
21201,46.0,36,160,7.0,100.0
21202,60.0,48,48,4.0,100.0
21203,62.0,48,48,4.0,100.0
21204,63.0,48,48,4.0,100.0
21205,46.0,48,48,7.0,100.0
21206,62.0,0,48,5.0,100.0
21207,65.0,0,48,4.0,100.0
21208,45.0,48,48,7.0,100.0
21209,67.0,0,48,4.0,100.0
21210,60.0,0,48,5.0,100.0
21211,58.0,0,48,5.0,100.0
21212,43.0,48,48,7.0,100.0
21213,57.0,48,48,5.0,100.0
21214,41.0,0,48,7.0,100.0
21215,39.0,0,48,7.0,100.0
21216,55.0,48,48,5.0,100.0
21217,63.0,0,160,4.0,100.0
21218,53.0,0,48,5.0,100.0
21219,38.0,48,48,7.0,100.0
21220,62.0,96,48,4.0,100.0
21221,58.0,48,160,5.0,100.0
21222,43.0,0,160,7.0,100.0
21223,63.0,48,48,4.0,100.0
21224,65.0,48,48,4.0,100.0
21225,67.0,48,48,4.0,100.0
21226,69.0,48,48,4.0,100.0
21227,43.0,0,48,7.0,100.0
21228,70.0,48,48,4.0,100.0
21229,41.0,0,48,7.0,100.0
21230,39.0,48,48,7.0,100.0
21231,58.0,0,144,5.0,100.0
21232,38.0,48,48,7.0,100.0
21233,59.0,0,48,5.0,100.0
21234,60.0,0,48,5.0,100.0
21235,36.0,48,48,7.0,100.0
21236,67.0,0,160,4.0,100.0
21237,35.0,0,48,7.0,100.0
21238,62.0,48,48,5.0,100.0
21239,65.0,96,46,4.0,100.0
21240,63.0,48,160,5.0,100.0
21241,36.0,0,160,7.0,100.0
21242,67.0,48,46,4.0,100.0
21243,69.0,48,46,4.0,100.0
21244,67.0,48,46,4.0,100.0
21245,51.0,48,46,7.0,100.0
21246,69.0,0,46,4.0,100.0
21247,50.0,0,46,7.0,100.0
21248,70.0,48,46,4.0,100.0
21249,48.0,48,46,7.0,100.0
21250,72.0,0,46,4.0,100.0
21251,63.0,0,160,5.0,100.0
21252,70.0,0,46,4.0,100.0
21253,50.0,48,46,7.0,100.0
21254,72.0,48,46,4.0,100.0
21255,48.0,0,46,7.0,100.0
21256,46.0,48,46,7.0,100.0
21257,74.0,0,46,4.0,100.0
21258,45.0,48,46,7.0,100.0
21259,75.0,0,46,4.0,100.0
21260,64.0,0,160,5.0,100.0
21261,74.0,0,46,4.0,100.0
21262,46.0,48,46,7.0,100.0
21263,72.0,48,46,4.0,100.0
21264,45.0,0,46,7.0,100.0
21265,74.0,0,46,4.0,100.0
21266,43.0,48,46,7.0,100.0
21267,75.0,48,46,4.0,100.0
21268,41.0,0,46,7.0,100.0
21269,43.0,0,46,7.0,100.0
21270,74.0,48,46,4.0,100.0
21271,45.0,48,46,7.0,100.0
21272,73.0,0,46,4.0,100.0
21273,46.0,48,46,7.0,100.0
21274,72.0,0,46,4.0,100.0
21275,70.0,48,46,4.0,100.0
21276,48.0,0,46,7.0,100.0
21277,65.0,0,352,5.0,100.0
21278,49.0,48,46,7.0,100.0
21279,69.0,0,46,4.0,100.0
21280,50.0,0,46,7.0,100.0
21281,67.0,48,46,4.0,100.0
21282,69.0,48,46,4.0,100.0
21283,63.0,0,94,5.0,100.0
21284,48.0,0,46,7.0,100.0
21285,70.0,48,46,4.0,100.0
21286,46.0,0,46,7.0,100.0
21287,48.0,48,46,7.0,100.0
21288,69.0,0,46,4.0,100.0
21289,50.0,0,46,7.0,100.0
21290,67.0,48,46,4.0,100.0
21291,51.0,48,46,7.0,100.0
21292,65.0,0,46,4.0,100.0
21293,62.0,0,192,5.0,100.0
21294,65.0,0,46,4.0,100.0
21295,52.0,48,46,7.0,100.0
21296,60.0,0,94,5.0,100.0
21297,51.0,48,46,7.0,100.0
21298,78.0,0,46,4.0,100.0
21299,79.0,48,46,4.0,100.0
21300,50.0,0,46,7.0,100.0
21301,77.0,0,46,4.0,100.0
21302,51.0,48,46,7.0,100.0
21303,75.0,48,46,4.0,100.0
21304,53.0,0,46,7.0,100.0
21305,74.0,48,46,4.0,100.0
21306,55.0,0,46,7.0,100.0
21307,72.0,0,46,4.0,100.0
21308,57.0,48,46,7.0,100.0
21309,58.0,48,46,7.0,100.0
21310,70.0,0,46,4.0,100.0
21311,60.0,0,46,7.0,100.0
21312,69.0,48,46,4.0,100.0
21313,70.0,0,46,4.0,100.0
21314,58.0,48,46,7.0,100.0
21315,69.0,48,46,4.0,100.0
21316,60.0,0,46,7.0,100.0
21317,62.0,48,46,7.0,100.0
21318,67.0,0,46,4.0,100.0
21319,65.0,48,46,4.0,127.0
21320,63.0,0,46,7.0,127.0
21321,67.0,48,46,4.0,100.0
21322,62.0,0,46,7.0,100.0
21323,69.0,0,46,4.0,100.0
21324,61.0,48,46,7.0,100.0
21325,60.0,0,46,7.0,100.0
21326,70.0,48,46,4.0,100.0
21327,58.0,48,46,7.0,127.0
21328,72.0,0,46,4.0,127.0
21329,57.0,48,46,7.0,100.0
21330,73.0,0,46,4.0,100.0
21331,74.0,0,46,4.0,100.0
21332,55.0,48,46,7.0,100.0
21333,57.0,48,46,7.0,100.0
21334,72.0,0,46,4.0,100.0
21335,58.0,48,46,7.0,127.0
21336,74.0,0,46,4.0,127.0
21337,76.0,48,46,4.0,100.0
21338,70.0,0,94,5.0,100.0
21339,57.0,0,46,7.0,100.0
21340,77.0,0,46,4.0,100.0
21341,55.0,48,46,7.0,100.0
21342,53.0,0,46,7.0,100.0
21343,79.0,48,94,4.0,100.0
21344,55.0,48,72,6.0,127.0
21345,72.0,48,46,4.0,100.0
21346,57.0,24,24,6.0,100.0
21347,55.0,24,24,6.0,100.0
21348,74.0,0,46,4.0,100.0
21349,57.0,24,24,6.0,100.0
21350,52.0,0,160,7.0,100.0
21351,55.0,24,24,6.0,100.0
21352,76.0,0,46,4.0,100.0
21353,57.0,24,24,6.0,100.0
21354,55.0,0,24,6.0,100.0
21355,77.0,24,46,4.0,100.0
21356,57.0,24,24,6.0,100.0
21357,55.0,24,24,6.0,100.0
21358,79.0,0,46,4.0,100.0
21359,57.0,24,24,6.0,100.0
21360,55.0,24,24,6.0,100.0
21361,81.0,0,46,4.0,100.0
21362,53.0,24,36,6.0,100.0
21363,46.0,0,160,7.0,100.0
21364,82.0,24,46,4.0,100.0
21365,55.0,12,36,6.0,100.0
21366,84.0,36,46,4.0,100.0
21367,81.0,48,46,4.0,100.0
21368,79.0,48,46,4.0,100.0
21369,45.0,0,160,7.0,100.0
21370,53.0,0,160,6.0,100.0
21371,77.0,48,46,4.0,100.0
21372,75.0,0,46,4.0,100.0
21373,57.0,0,72,6.0,127.0
21374,74.0,48,46,4.0,100.0
21375,58.0,24,24,6.0,100.0
21376,57.0,0,24,6.0,100.0
21377,76.0,24,46,4.0,100.0
21378,58.0,24,24,6.0,100.0
21379,54.0,48,160,7.0,100.0
21380,57.0,0,24,6.0,100.0
21381,78.0,24,46,4.0,100.0
21382,58.0,24,24,6.0,100.0
21383,57.0,24,24,6.0,100.0
21384,79.0,0,46,4.0,100.0
21385,58.0,24,24,6.0,100.0
21386,57.0,0,24,6.0,100.0
21387,81.0,24,46,4.0,100.0
21388,58.0,24,24,6.0,100.0
21389,57.0,24,24,6.0,100.0
21390,82.0,0,46,4.0,100.0
21391,55.0,24,36,6.0,100.0
21392,48.0,0,160,7.0,100.0
21393,84.0,24,46,4.0,100.0
21394,57.0,12,36,6.0,100.0
21395,86.0,0,46,4.0,100.0
21396,82.0,48,46,4.0,100.0
21397,81.0,48,46,4.0,100.0
21398,46.0,0,160,7.0,100.0
21399,55.0,36,160,6.0,100.0
21400,79.0,48,46,4.0,100.0
21401,77.0,0,46,4.0,100.0
21402,58.0,48,72,6.0,127.0
21403,75.0,48,46,4.0,100.0
21404,60.0,24,24,6.0,100.0
21405,58.0,24,24,6.0,100.0
21406,77.0,0,46,4.0,100.0
21407,60.0,24,24,6.0,100.0
21408,55.0,0,160,7.0,100.0
21409,58.0,0,24,6.0,100.0
21410,79.0,24,46,4.0,100.0
21411,60.0,24,24,6.0,100.0
21412,58.0,24,24,6.0,100.0
21413,81.0,0,46,4.0,100.0
21414,60.0,24,24,6.0,100.0
21415,58.0,24,24,6.0,100.0
21416,82.0,0,46,4.0,100.0
21417,60.0,24,24,6.0,100.0
21418,58.0,0,24,6.0,100.0
21419,84.0,24,46,4.0,100.0
21420,57.0,24,36,6.0,100.0
21421,50.0,0,160,7.0,100.0
21422,86.0,24,46,4.0,100.0
21423,58.0,12,36,6.0,100.0
21424,87.0,0,94,4.0,100.0
21425,48.0,36,94,7.0,100.0
21426,57.0,0,160,6.0,100.0
21427,72.0,96,72,4.0,127.0
21428,43.0,48,46,7.0,100.0
21429,74.0,24,24,4.0,100.0
21430,72.0,24,24,4.0,100.0
21431,45.0,0,46,7.0,100.0
21432,74.0,24,24,4.0,100.0
21433,69.0,0,160,5.0,100.0
21434,72.0,24,24,4.0,100.0
21435,46.0,0,46,7.0,100.0
21436,74.0,24,24,4.0,100.0
21437,72.0,24,24,4.0,100.0
21438,48.0,0,46,7.0,100.0
21439,74.0,24,24,4.0,100.0
21440,72.0,0,24,4.0,100.0
21441,50.0,24,46,7.0,100.0
21442,74.0,24,24,4.0,100.0
21443,72.0,0,24,4.0,100.0
21444,52.0,24,46,7.0,100.0
21445,70.0,24,36,4.0,100.0
21446,63.0,0,160,5.0,100.0
21447,54.0,24,46,7.0,100.0
21448,72.0,12,36,4.0,100.0
21449,43.0,0,46,7.0,100.0
21450,62.0,0,94,5.0,100.0
21451,55.0,48,46,7.0,100.0
21452,41.0,48,46,7.0,100.0
21453,70.0,36,160,4.0,100.0
21454,61.0,0,94,5.0,100.0
21455,53.0,48,46,7.0,100.0
21456,40.0,0,46,7.0,100.0
21457,70.0,48,72,4.0,127.0
21458,41.0,48,46,7.0,100.0
21459,72.0,24,24,4.0,100.0
21460,70.0,24,24,4.0,100.0
21461,43.0,0,46,7.0,100.0
21462,72.0,24,24,4.0,100.0
21463,67.0,0,160,5.0,100.0
21464,70.0,0,24,4.0,100.0
21465,45.0,24,46,7.0,100.0
21466,72.0,24,24,4.0,100.0
21467,70.0,24,24,4.0,100.0
21468,46.0,0,46,7.0,100.0
21469,72.0,24,24,4.0,100.0
21470,70.0,0,24,4.0,100.0
21471,48.0,24,46,7.0,100.0
21472,72.0,24,24,4.0,100.0
21473,70.0,0,24,4.0,100.0
21474,50.0,24,46,7.0,100.0
21475,69.0,24,36,4.0,100.0
21476,61.0,0,160,5.0,100.0
21477,52.0,24,46,7.0,100.0
21478,70.0,12,36,4.0,100.0
21479,41.0,0,46,7.0,100.0
21480,60.0,36,94,4.0,100.0
21481,69.0,0,94,4.0,100.0
21482,53.0,48,46,7.0,100.0
21483,39.0,48,46,7.0,100.0
21484,51.0,48,46,7.0,100.0
21485,68.0,0,94,4.0,100.0
21486,59.0,0,94,4.0,100.0
21487,38.0,0,46,7.0,100.0
21488,68.0,48,72,4.0,127.0
21489,39.0,48,46,7.0,100.0
21490,70.0,24,24,4.0,100.0
21491,68.0,0,24,4.0,100.0
21492,41.0,24,46,7.0,100.0
21493,70.0,24,24,4.0,100.0
21494,65.0,0,160,5.0,100.0
21495,68.0,0,24,4.0,100.0
21496,43.0,24,46,7.0,100.0
21497,70.0,24,24,4.0,100.0
21498,68.0,0,24,4.0,100.0
21499,44.0,24,46,7.0,100.0
21500,70.0,24,24,4.0,100.0
21501,68.0,24,24,4.0,100.0
21502,46.0,0,46,7.0,100.0
21503,70.0,24,24,4.0,100.0
21504,68.0,0,24,4.0,100.0
21505,48.0,24,46,7.0,100.0
21506,67.0,24,36,4.0,100.0
21507,59.0,0,160,5.0,100.0
21508,50.0,24,46,7.0,100.0
21509,68.0,12,36,4.0,100.0
21510,39.0,0,46,7.0,100.0
21511,51.0,48,46,7.0,100.0
21512,58.0,0,94,5.0,100.0
21513,67.0,36,160,4.0,100.0
21514,64.0,48,94,5.0,100.0
21515,49.0,0,94,7.0,100.0
21516,37.0,0,94,7.0,100.0
21517,49.0,96,46,5.0,100.0
21518,34.0,0,72,7.0,127.0
21519,48.0,48,46,5.0,100.0
21520,36.0,24,24,7.0,127.0
21521,34.0,24,24,7.0,127.0
21522,50.0,0,46,5.0,100.0
21523,36.0,24,24,7.0,127.0
21524,34.0,0,24,7.0,127.0
21525,52.0,24,46,5.0,100.0
21526,36.0,24,24,7.0,127.0
21527,34.0,24,24,7.0,127.0
21528,53.0,0,46,5.0,100.0
21529,36.0,24,24,7.0,127.0
21530,34.0,24,24,7.0,127.0
21531,55.0,0,46,5.0,100.0
21532,36.0,24,24,7.0,127.0
21533,34.0,24,24,7.0,127.0
21534,57.0,0,46,5.0,100.0
21535,33.0,24,36,7.0,127.0
21536,58.0,24,46,5.0,100.0
21537,67.0,0,94,4.0,100.0
21538,34.0,12,36,7.0,127.0
21539,60.0,0,46,5.0,100.0
21540,64.0,0,94,4.0,100.0
21541,57.0,48,46,5.0,100.0
21542,55.0,0,46,5.0,100.0
21543,33.0,36,160,7.0,127.0
21544,53.0,48,46,5.0,100.0
21545,65.0,48,94,4.0,100.0
21546,51.0,0,46,5.0,100.0
21547,36.0,48,72,7.0,127.0
21548,50.0,48,46,5.0,100.0
21549,38.0,24,24,7.0,127.0
21550,36.0,24,24,7.0,127.0
21551,52.0,0,46,5.0,100.0
21552,38.0,24,24,7.0,127.0
21553,36.0,24,24,7.0,127.0
21554,54.0,0,46,5.0,100.0
21555,38.0,24,24,7.0,127.0
21556,36.0,0,24,7.0,127.0
21557,55.0,24,46,5.0,100.0
21558,38.0,24,24,7.0,127.0
21559,36.0,0,24,7.0,127.0
21560,57.0,24,46,5.0,100.0
21561,38.0,24,24,7.0,127.0
21562,36.0,0,24,7.0,127.0
21563,58.0,24,46,5.0,100.0
21564,34.0,24,36,7.0,127.0
21565,69.0,0,94,4.0,100.0
21566,60.0,24,46,5.0,100.0
21567,36.0,12,36,7.0,127.0
21568,62.0,0,46,5.0,100.0
21569,66.0,0,94,4.0,100.0
21570,58.0,48,46,5.0,100.0
21571,57.0,0,46,5.0,100.0
21572,34.0,36,160,7.0,127.0
21573,67.0,48,94,4.0,100.0
21574,55.0,48,46,5.0,100.0
21575,53.0,0,46,5.0,100.0
21576,38.0,48,72,7.0,127.0
21577,51.0,48,46,5.0,100.0
21578,39.0,24,24,7.0,127.0
21579,38.0,0,24,7.0,127.0
21580,53.0,24,46,5.0,100.0
21581,39.0,24,24,7.0,127.0
21582,38.0,24,24,7.0,127.0
21583,55.0,0,46,5.0,100.0
21584,39.0,24,24,7.0,127.0
21585,38.0,0,24,7.0,127.0
21586,57.0,24,46,5.0,100.0
21587,39.0,24,24,7.0,127.0
21588,38.0,24,24,7.0,127.0
21589,58.0,0,46,5.0,100.0
21590,39.0,24,24,7.0,127.0
21591,38.0,0,24,7.0,127.0
21592,60.0,24,46,5.0,100.0
21593,36.0,24,36,7.0,127.0
21594,70.0,0,94,4.0,100.0
21595,62.0,24,46,5.0,100.0
21596,38.0,12,36,7.0,127.0
21597,63.0,0,46,5.0,100.0
21598,60.0,48,46,5.0,100.0
21599,67.0,36,94,4.0,100.0
21600,58.0,48,46,5.0,100.0
21601,36.0,0,160,7.0,127.0
21602,57.0,48,46,5.0,100.0
21603,69.0,0,94,4.0,100.0
21604,69.0,48,46,5.0,100.0
21605,39.0,0,72,7.0,127.0
21606,72.0,0,94,4.0,100.0
21607,65.0,48,46,5.0,100.0
21608,41.0,24,24,7.0,127.0
21609,39.0,0,24,7.0,127.0
21610,67.0,24,46,5.0,100.0
21611,41.0,24,24,7.0,127.0
21612,39.0,0,24,7.0,127.0
21613,69.0,24,46,5.0,100.0
21614,41.0,24,24,7.0,127.0
21615,70.0,0,46,5.0,100.0
21616,77.0,0,160,4.0,100.0
21617,69.0,48,46,5.0,100.0
21618,70.0,48,46,5.0,100.0
21619,38.0,24,160,7.0,127.0
21620,74.0,0,94,4.0,100.0
21621,65.0,48,46,5.0,100.0
21622,67.0,0,46,5.0,100.0
21623,66.0,48,46,5.0,100.0
21624,40.0,0,94,7.0,127.0
21625,72.0,48,94,4.0,100.0
21626,67.0,48,46,5.0,100.0
21627,70.0,0,94,4.0,100.0
21628,60.0,48,46,5.0,100.0
21629,52.0,0,94,7.0,127.0
21630,60.0,0,46,5.0,100.0
21631,63.0,48,46,6.0,100.0
21632,69.0,48,94,4.0,100.0
21633,62.0,48,46,6.0,100.0
21634,68.0,0,94,4.0,100.0
21635,60.0,48,46,6.0,100.0
21636,59.0,0,46,6.0,100.0
21637,67.0,0,46,5.0,100.0
21638,69.0,0,46,5.0,100.0
21639,60.0,48,46,6.0,100.0
21640,62.0,0,46,6.0,100.0
21641,71.0,48,46,5.0,100.0
21642,72.0,0,46,5.0,100.0
21643,63.0,48,46,6.0,100.0
21644,64.0,0,46,6.0,100.0
21645,73.0,48,46,5.0,100.0
21646,79.0,48,256,4.0,127.0
21647,65.0,0,46,6.0,100.0
21648,74.0,48,46,5.0,100.0
21649,75.0,48,46,5.0,100.0
21650,67.0,0,46,6.0,100.0
21651,53.0,0,528,7.0,127.0
21652,65.0,48,46,6.0,100.0
21653,74.0,0,46,5.0,100.0
21654,77.0,0,94,4.0,100.0
21655,60.0,48,46,6.0,100.0
21656,62.0,48,46,6.0,100.0
21657,77.0,0,96,4.0,100.0
21658,63.0,48,46,6.0,100.0
21659,65.0,48,46,6.0,100.0
21660,75.0,0,96,4.0,100.0
21661,66.0,48,46,6.0,100.0
21662,67.0,48,46,6.0,100.0
21663,74.0,0,96,4.0,100.0
21664,68.0,0,46,6.0,100.0
21665,67.0,48,46,6.0,100.0
21666,72.0,48,96,4.0,100.0
21667,65.0,0,46,6.0,100.0
21668,63.0,48,46,6.0,100.0
21669,71.0,48,96,4.0,100.0
21670,62.0,0,46,6.0,100.0
21671,53.0,0,528,7.0,127.0
21672,63.0,48,46,6.0,100.0
21673,72.0,48,96,4.0,100.0
21674,69.0,0,46,5.0,100.0
21675,60.0,48,46,6.0,100.0
21676,77.0,0,94,4.0,100.0
21677,70.0,48,46,5.0,100.0
21678,62.0,0,46,6.0,100.0
21679,60.0,48,46,6.0,100.0
21680,69.0,0,46,5.0,100.0
21681,58.0,0,46,6.0,100.0
21682,67.0,48,46,5.0,100.0
21683,57.0,48,46,6.0,100.0
21684,65.0,0,46,5.0,100.0
21685,58.0,48,46,6.0,100.0
21686,67.0,0,46,5.0,100.0
21687,69.0,48,46,5.0,100.0
21688,60.0,0,46,6.0,100.0
21689,70.0,0,46,5.0,100.0
21690,62.0,48,46,6.0,100.0
21691,63.0,48,46,6.0,100.0
21692,71.0,0,46,5.0,100.0
21693,75.0,0,256,4.0,127.0
21694,72.0,0,46,5.0,100.0
21695,64.0,48,46,6.0,100.0
21696,65.0,48,46,6.0,100.0
21697,74.0,0,46,5.0,100.0
21698,53.0,0,528,7.0,127.0
21699,75.0,0,94,4.0,100.0
21700,72.0,0,46,5.0,100.0
21701,63.0,48,46,6.0,100.0
21702,58.0,0,46,6.0,100.0
21703,60.0,48,46,6.0,100.0
21704,75.0,0,96,4.0,100.0
21705,62.0,48,46,6.0,100.0
21706,63.0,48,46,6.0,100.0
21707,74.0,0,96,4.0,100.0
21708,64.0,0,46,6.0,100.0
21709,65.0,48,46,6.0,100.0
21710,72.0,48,96,4.0,100.0
21711,67.0,48,46,6.0,100.0
21712,65.0,48,46,6.0,100.0
21713,70.0,0,96,4.0,100.0
21714,63.0,48,46,6.0,100.0
21715,62.0,48,46,6.0,100.0
21716,53.0,48,478,7.0,127.0
21717,69.0,0,96,4.0,100.0
21718,60.0,0,46,6.0,100.0
21719,58.0,48,46,6.0,100.0
21720,70.0,48,94,4.0,100.0
21721,54.0,0,94,7.0,100.0
21722,59.0,0,46,5.0,100.0
21723,55.0,48,94,7.0,127.0
21724,60.0,48,46,5.0,100.0
21725,43.0,0,94,7.0,127.0
21726,59.0,48,46,5.0,100.0
21727,57.0,48,46,5.0,100.0
21728,55.0,0,46,5.0,100.0
21729,57.0,48,46,5.0,100.0
21730,59.0,48,46,5.0,100.0
21731,60.0,48,46,5.0,100.0
21732,61.0,48,46,5.0,100.0
21733,41.0,48,256,7.0,127.0
21734,53.0,0,256,7.0,127.0
21735,62.0,48,46,5.0,100.0
21736,63.0,48,46,5.0,100.0
21737,62.0,48,46,5.0,100.0
21738,41.0,0,94,7.0,100.0
21739,53.0,0,94,7.0,100.0
21740,60.0,48,46,5.0,100.0
21741,62.0,48,46,5.0,100.0
21742,72.0,0,94,4.0,100.0
21743,41.0,0,96,7.0,100.0
21744,53.0,0,96,7.0,100.0
21745,64.0,48,46,5.0,100.0
21746,65.0,48,46,5.0,100.0
21747,40.0,0,96,7.0,100.0
21748,52.0,0,96,7.0,100.0
21749,66.0,48,46,5.0,100.0
21750,67.0,48,46,5.0,100.0
21751,49.0,0,96,7.0,100.0
21752,37.0,0,96,7.0,100.0
21753,68.0,0,46,5.0,100.0
21754,67.0,48,46,5.0,100.0
21755,36.0,0,96,7.0,100.0
21756,48.0,48,96,7.0,100.0
21757,65.0,0,46,5.0,100.0
21758,70.0,0,256,4.0,127.0
21759,64.0,48,46,5.0,100.0
21760,35.0,48,96,7.0,100.0
21761,47.0,0,96,7.0,100.0
21762,61.0,0,46,5.0,100.0
21763,70.0,0,94,4.0,100.0
21764,60.0,48,46,5.0,100.0
21765,48.0,0,96,7.0,100.0
21766,36.0,48,96,7.0,100.0
21767,69.0,0,46,4.0,100.0
21768,53.0,48,94,7.0,100.0
21769,41.0,0,94,7.0,100.0
21770,70.0,48,46,4.0,100.0
21771,69.0,48,46,4.0,100.0
21772,67.0,48,46,4.0,100.0
21773,65.0,0,46,4.0,100.0
21774,67.0,48,46,4.0,100.0
21775,69.0,48,46,4.0,100.0
21776,70.0,48,46,4.0,100.0
21777,71.0,48,46,4.0,100.0
21778,51.0,0,256,7.0,100.0
21779,39.0,48,256,7.0,100.0
21780,72.0,48,46,4.0,100.0
21781,74.0,48,46,4.0,100.0
21782,39.0,0,94,7.0,100.0
21783,51.0,0,94,7.0,100.0
21784,72.0,48,46,4.0,100.0
21785,70.0,0,46,4.0,100.0
21786,72.0,48,46,4.0,100.0
21787,39.0,0,96,7.0,100.0
21788,51.0,48,96,7.0,100.0
21789,74.0,48,46,4.0,100.0
21790,75.0,48,46,4.0,100.0
21791,50.0,0,96,7.0,100.0
21792,38.0,0,96,7.0,100.0
21793,76.0,48,46,4.0,100.0
21794,77.0,48,46,4.0,100.0
21795,36.0,0,96,7.0,100.0
21796,48.0,0,96,7.0,100.0
21797,79.0,48,46,4.0,100.0
21798,35.0,0,94,7.0,100.0
21799,77.0,48,46,4.0,100.0
21800,47.0,0,94,7.0,100.0
21801,71.0,0,46,4.0,100.0
21802,74.0,48,46,4.0,100.0
21803,67.0,48,96,6.0,100.0
21804,75.0,48,46,4.0,100.0
21805,77.0,48,46,4.0,100.0
21806,65.0,0,94,6.0,100.0
21807,71.0,48,46,4.0,100.0
21808,72.0,48,46,4.0,100.0
21809,65.0,0,96,6.0,100.0
21810,74.0,0,46,4.0,100.0
21811,72.0,48,46,4.0,100.0
21812,63.0,48,96,6.0,100.0
21813,74.0,48,46,4.0,100.0
21814,75.0,48,46,4.0,100.0
21815,62.0,0,96,6.0,100.0
21816,77.0,0,46,4.0,100.0
21817,75.0,48,46,4.0,100.0
21818,60.0,48,94,6.0,100.0
21819,69.0,0,46,4.0,100.0
21820,72.0,48,46,4.0,100.0
21821,41.0,0,96,7.0,100.0
21822,53.0,48,96,7.0,100.0
21823,74.0,48,46,4.0,100.0
21824,75.0,48,46,4.0,100.0
21825,51.0,0,94,7.0,100.0
21826,39.0,0,94,7.0,100.0
21827,76.0,48,46,4.0,100.0
21828,77.0,48,46,4.0,100.0
21829,39.0,0,96,7.0,100.0
21830,51.0,0,96,7.0,100.0
21831,79.0,48,46,4.0,100.0
21832,77.0,48,46,4.0,100.0
21833,50.0,0,96,7.0,100.0
21834,38.0,0,96,7.0,100.0
21835,81.0,0,46,4.0,100.0
21836,82.0,48,46,4.0,100.0
21837,36.0,48,96,7.0,100.0
21838,48.0,0,96,7.0,100.0
21839,84.0,48,46,4.0,100.0
21840,82.0,48,46,4.0,100.0
21841,46.0,0,94,7.0,100.0
21842,34.0,0,94,7.0,100.0
21843,78.0,0,46,4.0,100.0
21844,79.0,48,46,4.0,100.0
21845,75.0,48,96,5.0,100.0
21846,81.0,0,46,4.0,100.0
21847,74.0,48,94,5.0,100.0
21848,79.0,48,46,4.0,100.0
21849,80.0,48,46,4.0,100.0
21850,81.0,48,46,4.0,100.0
21851,74.0,0,96,5.0,100.0
21852,82.0,0,46,4.0,100.0
21853,81.0,48,46,4.0,100.0
21854,72.0,48,96,5.0,100.0
21855,83.0,0,46,4.0,100.0
21856,84.0,48,46,4.0,100.0
21857,70.0,48,96,5.0,100.0
21858,86.0,0,46,4.0,100.0
21859,84.0,48,46,4.0,100.0
21860,69.0,48,94,5.0,100.0
21861,76.0,0,46,4.0,100.0
21862,78.0,48,46,4.0,100.0
21863,74.0,48,96,5.0,100.0
21864,79.0,0,46,4.0,100.0
21865,78.0,48,46,4.0,100.0
21866,72.0,48,94,5.0,100.0
21867,79.0,0,46,4.0,100.0
21868,80.0,48,46,4.0,100.0
21869,72.0,48,96,5.0,100.0
21870,81.0,48,46,4.0,100.0
21871,79.0,48,46,4.0,100.0
21872,70.0,0,96,5.0,100.0
21873,82.0,48,46,4.0,100.0
21874,83.0,48,46,4.0,100.0
21875,74.0,0,96,5.0,100.0
21876,84.0,48,46,4.0,100.0
21877,82.0,48,46,4.0,100.0
21878,75.0,0,94,5.0,100.0
21879,80.0,0,46,4.0,100.0
21880,81.0,48,46,4.0,100.0
21881,74.0,48,96,5.0,100.0
21882,82.0,0,46,4.0,100.0
21883,72.0,48,94,5.0,100.0
21884,81.0,48,46,4.0,100.0
21885,85.0,0,46,4.0,100.0
21886,86.0,48,46,4.0,100.0
21887,76.0,48,96,5.0,100.0
21888,87.0,48,46,4.0,100.0
21889,86.0,48,46,4.0,100.0
21890,77.0,0,96,5.0,100.0
21891,83.0,48,46,4.0,100.0
21892,84.0,48,46,4.0,100.0
21893,75.0,0,96,5.0,100.0
21894,86.0,0,46,4.0,100.0
21895,82.0,48,46,4.0,100.0
21896,74.0,48,94,5.0,100.0
21897,73.0,48,46,4.0,100.0
21898,74.0,48,46,4.0,100.0
21899,54.0,0,94,7.0,127.0
21900,42.0,0,94,7.0,127.0
21901,72.0,48,46,4.0,100.0
21902,43.0,0,94,7.0,100.0
21903,55.0,0,94,7.0,100.0
21904,70.0,48,46,4.0,100.0
21905,68.0,48,46,5.0,100.0
21906,62.0,48,46,5.0,100.0
21907,41.0,0,94,7.0,127.0
21908,53.0,0,94,7.0,127.0
21909,71.0,0,94,4.0,100.0
21910,67.0,48,46,5.0,100.0
21911,64.0,48,46,5.0,100.0
21912,52.0,0,94,7.0,100.0
21913,72.0,0,94,4.0,100.0
21914,40.0,0,94,7.0,100.0
21915,62.0,0,46,5.0,100.0
21916,55.0,0,94,7.0,127.0
21917,64.0,48,46,5.0,100.0
21918,43.0,0,94,7.0,127.0
21919,70.0,48,94,4.0,100.0
21920,61.0,48,46,5.0,100.0
21921,57.0,0,94,7.0,100.0
21922,45.0,0,94,7.0,100.0
21923,69.0,0,94,4.0,100.0
21924,64.0,48,46,5.0,100.0
21925,70.0,0,46,5.0,100.0
21926,64.0,48,46,5.0,100.0
21927,55.0,0,94,7.0,127.0
21928,43.0,0,94,7.0,127.0
21929,73.0,48,94,4.0,100.0
21930,68.0,48,46,5.0,100.0
21931,74.0,0,94,4.0,100.0
21932,66.0,48,46,5.0,100.0
21933,42.0,0,94,7.0,100.0
21934,54.0,0,94,7.0,100.0
21935,63.0,0,46,5.0,100.0
21936,45.0,0,94,7.0,127.0
21937,66.0,48,46,5.0,100.0
21938,57.0,0,94,7.0,127.0
21939,72.0,48,94,4.0,100.0
21940,62.0,48,46,5.0,100.0
21941,46.0,0,94,7.0,100.0
21942,67.0,48,46,5.0,100.0
21943,58.0,0,94,7.0,100.0
21944,70.0,0,94,4.0,100.0
21945,70.0,0,46,5.0,100.0
21946,69.0,48,46,5.0,100.0
21947,54.0,0,94,7.0,127.0
21948,42.0,48,94,7.0,127.0
21949,75.0,0,94,4.0,100.0
21950,70.0,0,46,5.0,100.0
21951,76.0,48,94,4.0,100.0
21952,55.0,0,94,7.0,100.0
21953,43.0,0,94,7.0,100.0
21954,67.0,48,46,5.0,100.0
21955,73.0,0,46,5.0,100.0
21956,51.0,0,94,7.0,127.0
21957,39.0,0,94,7.0,127.0
21958,72.0,48,46,5.0,100.0
21959,78.0,48,94,4.0,100.0
21960,75.0,0,46,5.0,100.0
21961,79.0,48,94,4.0,100.0
21962,40.0,0,94,7.0,100.0
21963,70.0,48,46,5.0,100.0
21964,52.0,0,94,7.0,100.0
21965,64.0,0,94,5.0,127.0
21966,70.0,0,94,5.0,127.0
21967,67.0,0,94,5.0,127.0
21968,61.0,0,142,7.0,127.0
21969,61.0,0,142,6.0,127.0
21970,58.0,0,142,7.0,127.0
21971,58.0,48,142,6.0,127.0
21972,43.0,0,72,7.0,127.0
21973,88.0,0,72,4.0,127.0
21974,89.0,72,24,4.0,100.0
21975,45.0,0,24,7.0,100.0
21976,88.0,0,24,4.0,100.0
21977,43.0,24,24,7.0,100.0
21978,45.0,24,24,7.0,100.0
21979,89.0,0,24,4.0,100.0
21980,88.0,24,24,4.0,100.0
21981,43.0,0,24,7.0,100.0
21982,89.0,0,24,4.0,100.0
21983,45.0,24,24,7.0,100.0
21984,88.0,24,24,4.0,100.0
21985,43.0,0,24,7.0,100.0
21986,45.0,24,24,7.0,100.0
21987,89.0,0,24,4.0,100.0
21988,88.0,24,24,4.0,100.0
21989,43.0,0,24,7.0,100.0
21990,45.0,0,24,7.0,100.0
21991,89.0,24,24,4.0,100.0
21992,43.0,24,24,7.0,100.0
21993,88.0,0,24,4.0,100.0
21994,46.0,0,336,6.0,100.0
21995,88.0,0,336,5.0,100.0
21996,85.0,0,336,5.0,100.0
21997,82.0,192,336,5.0,100.0
21998,41.0,24,36,7.0,100.0
21999,86.0,0,36,4.0,100.0
22000,88.0,0,34,4.0,100.0
22001,43.0,36,34,7.0,100.0
22002,91.0,0,160,5.0,100.0
22003,91.0,36,160,4.0,127.0
22004,58.0,96,94,5.0,127.0
22005,76.0,96,72,5.0,127.0
22006,77.0,72,24,5.0,127.0
22007,76.0,0,24,5.0,127.0
22008,91.0,24,46,4.0,100.0
22009,77.0,24,24,5.0,127.0
22010,76.0,24,24,5.0,127.0
22011,89.0,0,46,4.0,100.0
22012,77.0,24,24,5.0,127.0
22013,76.0,24,24,5.0,127.0
22014,88.0,0,46,4.0,100.0
22015,77.0,24,24,5.0,127.0
22016,76.0,24,24,5.0,127.0
22017,85.0,0,46,4.0,100.0
22018,77.0,24,24,5.0,127.0
22019,76.0,24,24,5.0,127.0
22020,84.0,0,46,4.0,100.0
22021,74.0,24,36,5.0,127.0
22022,82.0,24,46,4.0,100.0
22023,76.0,12,36,5.0,127.0
22024,77.0,36,160,5.0,127.0
22025,81.0,96,70,4.0,100.0
22026,93.0,96,70,4.0,127.0
22027,77.0,0,48,5.0,100.0
22028,64.0,96,96,6.0,100.0
22029,76.0,48,48,5.0,100.0
22030,74.0,48,48,5.0,100.0
22031,65.0,0,94,6.0,100.0
22032,72.0,48,48,5.0,100.0
22033,70.0,48,48,5.0,100.0
22034,69.0,48,48,5.0,100.0
22035,74.0,48,160,5.0,100.0
22036,77.0,96,70,4.0,100.0
22037,89.0,96,70,4.0,127.0
22038,74.0,96,48,5.0,100.0
22039,72.0,48,48,5.0,100.0
22040,61.0,0,96,6.0,100.0
22041,70.0,48,48,5.0,100.0
22042,62.0,0,94,6.0,100.0
22043,69.0,48,48,5.0,100.0
22044,67.0,48,48,5.0,100.0
22045,65.0,48,48,5.0,100.0
22046,70.0,48,160,5.0,100.0
22047,74.0,96,96,4.0,100.0
22048,86.0,96,96,4.0,100.0
22049,70.0,0,46,5.0,100.0
22050,69.0,48,46,5.0,100.0
22051,84.0,96,96,4.0,100.0
22052,67.0,48,46,5.0,100.0
22053,69.0,48,46,5.0,100.0
22054,82.0,0,96,4.0,100.0
22055,67.0,48,46,5.0,100.0
22056,65.0,48,46,5.0,100.0
22057,83.0,0,96,4.0,100.0
22058,64.0,48,46,5.0,100.0
22059,65.0,48,46,5.0,100.0
22060,84.0,0,94,4.0,100.0
22061,64.0,48,46,5.0,100.0
22062,62.0,48,46,5.0,100.0
22063,60.0,0,46,5.0,100.0
22064,62.0,48,46,5.0,100.0
22065,64.0,48,46,5.0,100.0
22066,65.0,48,46,5.0,100.0
22067,66.0,48,46,5.0,100.0
22068,82.0,48,256,4.0,100.0
22069,67.0,48,46,5.0,100.0
22070,69.0,48,46,5.0,100.0
22071,67.0,48,46,5.0,100.0
22072,82.0,0,96,4.0,100.0
22073,77.0,0,48,4.0,100.0
22074,70.0,48,94,5.0,100.0
22075,79.0,48,48,4.0,100.0
22076,81.0,48,48,4.0,100.0
22077,82.0,48,48,4.0,100.0
22078,83.0,0,48,4.0,100.0
22079,84.0,48,48,4.0,100.0
22080,86.0,48,48,4.0,100.0
22081,84.0,48,48,4.0,100.0
22082,82.0,48,48,4.0,100.0
22083,69.0,48,256,5.0,100.0
22084,81.0,48,48,4.0,100.0
22085,79.0,0,48,4.0,100.0
22086,69.0,48,96,5.0,100.0
22087,77.0,48,48,4.0,100.0
22088,66.0,48,48,5.0,100.0
22089,86.0,0,94,4.0,100.0
22090,67.0,48,48,5.0,100.0
22091,66.0,48,48,5.0,100.0
22092,64.0,48,48,5.0,100.0
22093,62.0,48,48,5.0,100.0
22094,64.0,48,48,5.0,100.0
22095,66.0,48,48,5.0,100.0
22096,67.0,48,48,5.0,100.0
22097,68.0,48,48,5.0,100.0
22098,84.0,0,256,4.0,100.0
22099,69.0,48,48,5.0,100.0
22100,70.0,0,48,5.0,100.0
22101,84.0,48,96,4.0,100.0
22102,69.0,48,48,5.0,100.0
22103,79.0,48,48,4.0,100.0
22104,72.0,0,94,5.0,100.0
22105,81.0,48,48,4.0,100.0
22106,82.0,48,48,4.0,100.0
22107,84.0,48,48,4.0,100.0
22108,85.0,0,48,4.0,100.0
22109,86.0,48,48,4.0,100.0
22110,87.0,48,48,4.0,100.0
22111,86.0,48,48,4.0,100.0
22112,84.0,48,48,4.0,100.0
22113,70.0,48,256,5.0,100.0
22114,82.0,48,48,4.0,100.0
22115,81.0,48,48,4.0,100.0
22116,70.0,0,96,5.0,100.0
22117,79.0,48,48,4.0,100.0
22118,69.0,48,48,5.0,100.0
22119,89.0,0,94,4.0,100.0
22120,70.0,48,48,5.0,100.0
22121,69.0,48,48,5.0,100.0
22122,67.0,48,48,5.0,100.0
22123,65.0,48,48,5.0,100.0
22124,67.0,48,48,5.0,100.0
22125,69.0,48,48,5.0,100.0
22126,70.0,48,48,5.0,100.0
22127,71.0,48,48,5.0,100.0
22128,87.0,0,256,4.0,100.0
22129,72.0,48,48,5.0,100.0
22130,74.0,48,48,5.0,100.0
22131,72.0,48,48,5.0,100.0
22132,87.0,0,96,4.0,100.0
22133,82.0,0,48,4.0,100.0
22134,75.0,48,94,5.0,100.0
22135,84.0,48,48,4.0,100.0
22136,86.0,48,48,4.0,100.0
22137,87.0,48,48,4.0,100.0
22138,88.0,0,48,4.0,100.0
22139,89.0,48,48,4.0,100.0
22140,91.0,48,48,4.0,100.0
22141,89.0,48,48,4.0,100.0
22142,88.0,48,48,4.0,100.0
22143,74.0,48,256,5.0,100.0
22144,89.0,48,48,4.0,100.0
22145,75.0,48,46,5.0,100.0
22146,90.0,0,48,4.0,100.0
22147,73.0,48,46,5.0,100.0
22148,89.0,0,48,4.0,100.0
22149,71.0,48,46,5.0,100.0
22150,86.0,0,48,4.0,100.0
22151,72.0,0,46,5.0,100.0
22152,87.0,48,48,4.0,100.0
22153,73.0,48,46,5.0,100.0
22154,89.0,0,48,4.0,100.0
22155,72.0,0,46,5.0,100.0
22156,87.0,48,48,4.0,100.0
22157,69.0,48,46,5.0,100.0
22158,84.0,0,48,4.0,100.0
22159,70.0,48,46,5.0,100.0
22160,85.0,0,48,4.0,100.0
22161,72.0,48,46,5.0,100.0
22162,87.0,0,48,4.0,100.0
22163,70.0,48,46,5.0,100.0
22164,85.0,0,48,4.0,100.0
22165,68.0,48,46,5.0,100.0
22166,83.0,0,48,4.0,100.0
22167,69.0,48,46,5.0,100.0
22168,84.0,0,48,4.0,100.0
22169,70.0,0,46,5.0,100.0
22170,85.0,48,48,4.0,100.0
22171,69.0,48,46,5.0,100.0
22172,84.0,0,48,4.0,100.0
22173,75.0,48,94,5.0,100.0
22174,29.0,0,94,7.0,127.0
22175,90.0,96,94,4.0,100.0
22176,77.0,96,48,4.0,100.0
22177,45.0,0,72,7.0,127.0
22178,75.0,48,48,4.0,100.0
22179,46.0,24,24,7.0,100.0
22180,45.0,0,24,7.0,100.0
22181,77.0,24,48,4.0,100.0
22182,46.0,24,24,7.0,100.0
22183,45.0,0,24,7.0,100.0
22184,46.0,24,24,7.0,100.0
22185,75.0,24,48,4.0,100.0
22186,45.0,24,24,7.0,100.0
22187,77.0,0,48,4.0,100.0
22188,46.0,24,24,7.0,100.0
22189,45.0,24,24,7.0,100.0
22190,46.0,24,24,7.0,100.0
22191,75.0,0,48,4.0,100.0
22192,45.0,0,24,7.0,100.0
22193,74.0,24,48,4.0,100.0
22194,72.0,0,336,5.0,100.0
22195,43.0,24,36,7.0,100.0
22196,45.0,12,36,7.0,100.0
22197,75.0,24,48,4.0,100.0
22198,66.0,0,478,5.0,100.0
22199,74.0,0,160,4.0,100.0
22200,46.0,0,160,7.0,127.0
22201,58.0,96,70,5.0,100.0
22202,70.0,36,190,5.0,100.0
22203,65.0,0,94,5.0,100.0
22204,70.0,96,70,5.0,100.0
22205,74.0,96,48,4.0,100.0
22206,46.0,0,48,7.0,100.0
22207,75.0,0,48,4.0,100.0
22208,45.0,48,48,7.0,100.0
22209,43.0,48,48,7.0,100.0
22210,77.0,0,48,4.0,100.0
22211,41.0,0,48,7.0,100.0
22212,79.0,48,48,4.0,100.0
22213,81.0,48,48,4.0,100.0
22214,39.0,0,48,7.0,100.0
22215,38.0,0,48,7.0,100.0
22216,82.0,48,48,4.0,100.0
22217,41.0,48,160,7.0,127.0
22218,77.0,0,160,4.0,100.0
22219,62.0,96,70,5.0,100.0
22220,74.0,96,70,5.0,100.0
22221,43.0,96,48,7.0,100.0
22222,77.0,0,48,4.0,100.0
22223,41.0,0,48,7.0,100.0
22224,79.0,48,48,4.0,100.0
22225,81.0,0,48,4.0,100.0
22226,39.0,48,48,7.0,100.0
22227,38.0,0,48,7.0,100.0
22228,82.0,48,48,4.0,100.0
22229,36.0,0,48,7.0,100.0
22230,84.0,48,48,4.0,100.0
22231,34.0,48,48,7.0,100.0
22232,86.0,0,48,4.0,100.0
22233,81.0,0,160,4.0,100.0
22234,39.0,48,160,7.0,127.0
22235,63.0,96,70,5.0,100.0
22236,75.0,96,70,5.0,100.0
22237,39.0,0,46,7.0,100.0
22238,79.0,96,48,4.0,100.0
22239,38.0,0,46,7.0,100.0
22240,81.0,48,48,4.0,100.0
22241,36.0,48,46,7.0,100.0
22242,82.0,0,48,4.0,100.0
22243,38.0,0,46,7.0,100.0
22244,83.0,48,48,4.0,100.0
22245,36.0,48,46,7.0,100.0
22246,84.0,0,48,4.0,100.0
22247,34.0,0,46,7.0,100.0
22248,86.0,48,48,4.0,100.0
22249,87.0,48,94,4.0,100.0
22250,33.0,0,96,7.0,127.0
22251,45.0,0,48,7.0,100.0
22252,88.0,96,94,4.0,100.0
22253,43.0,48,46,7.0,100.0
22254,88.0,48,46,4.0,100.0
22255,41.0,0,94,7.0,127.0
22256,89.0,48,46,4.0,100.0
22257,53.0,0,94,6.0,100.0
22258,87.0,48,46,4.0,100.0
22259,86.0,48,46,4.0,100.0
22260,84.0,0,46,4.0,100.0
22261,69.0,48,72,5.0,100.0
22262,82.0,48,46,4.0,100.0
22263,70.0,24,24,5.0,100.0
22264,69.0,0,24,5.0,100.0
22265,81.0,24,46,4.0,100.0
22266,70.0,24,24,5.0,100.0
22267,69.0,24,24,5.0,100.0
22268,79.0,0,46,4.0,100.0
22269,70.0,24,24,5.0,100.0
22270,69.0,24,24,5.0,100.0
22271,77.0,0,46,4.0,100.0
22272,70.0,24,24,5.0,100.0
22273,69.0,0,24,5.0,100.0
22274,79.0,24,46,4.0,100.0
22275,70.0,24,24,5.0,100.0
22276,69.0,24,24,5.0,100.0
22277,77.0,0,46,4.0,100.0
22278,67.0,24,36,5.0,100.0
22279,75.0,24,46,4.0,100.0
22280,69.0,12,36,5.0,100.0
22281,74.0,36,46,4.0,100.0
22282,75.0,48,46,4.0,100.0
22283,77.0,48,46,4.0,100.0
22284,70.0,0,160,5.0,100.0
22285,46.0,0,94,7.0,127.0
22286,76.0,48,46,4.0,100.0
22287,62.0,0,22,7.0,100.0
22288,60.0,24,22,7.0,100.0
22289,62.0,24,22,7.0,100.0
22290,77.0,48,94,4.0,100.0
22291,60.0,24,22,7.0,100.0
22292,70.0,24,48,5.0,100.0
22293,69.0,48,48,5.0,100.0
22294,67.0,48,48,5.0,100.0
22295,65.0,48,48,5.0,100.0
22296,63.0,48,48,5.0,100.0
22297,62.0,48,48,5.0,100.0
22298,59.0,0,70,4.0,100.0
22299,67.0,48,160,5.0,100.0
22300,77.0,192,72,4.0,100.0
22301,79.0,72,24,4.0,100.0
22302,77.0,24,24,4.0,100.0
22303,67.0,0,48,5.0,100.0
22304,79.0,24,24,4.0,100.0
22305,77.0,0,24,4.0,100.0
22306,79.0,24,24,4.0,100.0
22307,65.0,24,48,5.0,100.0
22308,77.0,0,24,4.0,100.0
22309,79.0,24,24,4.0,100.0
22310,63.0,24,48,5.0,100.0
22311,77.0,24,24,4.0,100.0
22312,79.0,24,24,4.0,100.0
22313,62.0,0,48,5.0,100.0
22314,77.0,24,24,4.0,100.0
22315,60.0,0,48,5.0,100.0
22316,75.0,24,36,4.0,100.0
22317,59.0,24,48,5.0,100.0
22318,77.0,12,36,4.0,100.0
22319,79.0,0,160,4.0,100.0
22320,63.0,36,160,5.0,100.0
22321,51.0,96,94,7.0,127.0
22322,60.0,96,22,7.0,100.0
22323,58.0,24,22,7.0,100.0
22324,60.0,24,22,7.0,100.0
22325,58.0,24,22,7.0,100.0
22326,79.0,24,48,4.0,100.0
22327,63.0,0,48,5.0,100.0
22328,77.0,48,48,4.0,100.0
22329,62.0,0,48,5.0,100.0
22330,75.0,48,48,4.0,100.0
22331,60.0,0,48,5.0,100.0
22332,74.0,48,48,4.0,100.0
22333,59.0,0,48,5.0,100.0
22334,57.0,48,48,5.0,100.0
22335,72.0,0,48,4.0,100.0
22336,55.0,0,48,5.0,100.0
22337,71.0,48,48,4.0,100.0
22338,36.0,48,94,7.0,127.0
22339,63.0,0,160,5.0,100.0
22340,72.0,0,160,4.0,100.0
22341,52.0,0,72,7.0,127.0
22342,53.0,72,24,7.0,100.0
22343,52.0,0,24,7.0,100.0
22344,72.0,24,48,4.0,100.0
22345,53.0,24,24,7.0,100.0
22346,67.0,192,160,5.0,100.0
22347,52.0,24,24,7.0,100.0
22348,70.0,0,48,4.0,100.0
22349,53.0,24,24,7.0,100.0
22350,52.0,0,24,7.0,100.0
22351,53.0,24,24,7.0,100.0
22352,69.0,0,48,4.0,100.0
22353,52.0,24,24,7.0,100.0
22354,53.0,24,24,7.0,100.0
22355,67.0,0,48,4.0,100.0
22356,52.0,0,24,7.0,100.0
22357,65.0,24,48,4.0,100.0
22358,50.0,24,36,7.0,100.0
22359,60.0,24,160,5.0,100.0
22360,64.0,24,48,4.0,100.0
22361,52.0,12,36,7.0,100.0
22362,62.0,0,48,4.0,100.0
22363,60.0,48,48,4.0,100.0
22364,58.0,48,48,4.0,100.0
22365,53.0,36,160,7.0,127.0
22366,57.0,48,48,4.0,100.0
22367,69.0,48,94,4.0,100.0
22368,62.0,96,48,5.0,100.0
22369,53.0,0,48,7.0,100.0
22370,52.0,0,48,7.0,100.0
22371,60.0,48,48,5.0,100.0
22372,58.0,48,48,5.0,100.0
22373,50.0,0,48,7.0,100.0
22374,57.0,48,48,5.0,100.0
22375,48.0,0,48,7.0,100.0
22376,55.0,48,48,5.0,100.0
22377,46.0,0,48,7.0,100.0
22378,53.0,48,48,5.0,100.0
22379,45.0,0,48,7.0,100.0
22380,52.0,48,48,5.0,100.0
22381,50.0,48,48,5.0,100.0
22382,48.0,48,48,5.0,100.0
22383,55.0,0,160,7.0,127.0
22384,46.0,48,48,5.0,100.0
22385,58.0,48,94,5.0,100.0
22386,75.0,0,46,4.0,100.0
22387,55.0,96,48,7.0,100.0
22388,74.0,48,46,4.0,100.0
22389,53.0,0,48,7.0,100.0
22390,72.0,48,46,4.0,100.0
22391,51.0,0,48,7.0,100.0
22392,70.0,0,46,4.0,100.0
22393,50.0,48,48,7.0,100.0
22394,69.0,0,46,4.0,100.0
22395,48.0,48,48,7.0,100.0
22396,67.0,48,46,4.0,100.0
22397,46.0,0,48,7.0,100.0
22398,65.0,48,46,4.0,100.0
22399,63.0,48,46,4.0,100.0
22400,62.0,48,46,4.0,100.0
22401,57.0,0,160,7.0,127.0
22402,60.0,48,46,4.0,100.0
22403,72.0,48,94,4.0,100.0
22404,60.0,96,46,5.0,100.0
22405,57.0,0,48,7.0,100.0
22406,58.0,48,46,5.0,100.0
22407,55.0,0,48,7.0,100.0
22408,57.0,0,46,6.0,100.0
22409,53.0,48,48,7.0,100.0
22410,55.0,0,46,6.0,100.0
22411,51.0,48,48,7.0,100.0
22412,53.0,0,46,6.0,100.0
22413,50.0,48,48,7.0,100.0
22414,51.0,0,46,6.0,100.0
22415,48.0,48,48,7.0,100.0
22416,50.0,0,46,6.0,100.0
22417,46.0,48,46,7.0,100.0
22418,60.0,0,46,6.0,100.0
22419,57.0,48,46,7.0,100.0
22420,55.0,0,46,7.0,100.0
22421,58.0,48,46,6.0,100.0
22422,57.0,48,46,6.0,100.0
22423,53.0,0,46,7.0,100.0
22424,58.0,48,46,7.0,100.0
22425,74.0,0,46,4.0,100.0
22426,57.0,0,46,7.0,100.0
22427,62.0,0,94,5.0,100.0
22428,72.0,48,46,4.0,100.0
22429,77.0,0,46,4.0,100.0
22430,62.0,48,46,7.0,100.0
22431,60.0,48,46,7.0,100.0
22432,75.0,0,46,4.0,100.0
22433,74.0,48,46,4.0,100.0
22434,58.0,0,46,7.0,100.0
22435,72.0,48,46,4.0,100.0
22436,57.0,0,46,7.0,100.0
22437,70.0,0,46,4.0,100.0
22438,55.0,48,46,7.0,100.0
22439,69.0,48,46,4.0,100.0
22440,53.0,0,46,7.0,100.0
22441,79.0,48,46,4.0,100.0
22442,51.0,0,46,7.0,100.0
22443,50.0,48,46,7.0,100.0
22444,77.0,0,46,4.0,100.0
22445,48.0,48,46,7.0,100.0
22446,75.0,0,46,4.0,100.0
22447,46.0,48,46,7.0,100.0
22448,74.0,0,46,4.0,100.0
22449,43.0,0,46,7.0,100.0
22450,82.0,48,46,4.0,100.0
22451,81.0,48,46,4.0,100.0
22452,45.0,0,46,7.0,100.0
22453,79.0,48,46,4.0,100.0
22454,46.0,0,46,7.0,100.0
22455,74.0,0,160,5.0,100.0
22456,77.0,48,46,4.0,100.0
22457,47.0,0,46,7.0,100.0
22458,48.0,0,46,7.0,100.0
22459,75.0,0,94,4.0,100.0
22460,67.0,48,94,5.0,100.0
22461,50.0,48,46,7.0,100.0
22462,51.0,48,46,7.0,100.0
22463,72.0,0,94,5.0,100.0
22464,50.0,48,46,7.0,100.0
22465,48.0,0,46,7.0,100.0
22466,93.0,48,72,4.0,100.0
22467,46.0,48,46,7.0,100.0
22468,94.0,24,24,4.0,100.0
22469,93.0,0,24,4.0,100.0
22470,45.0,0,46,7.0,100.0
22471,94.0,24,24,4.0,100.0
22472,93.0,24,24,4.0,100.0
22473,84.0,24,94,5.0,100.0
22474,43.0,0,46,7.0,100.0
22475,94.0,24,24,4.0,100.0
22476,93.0,24,24,4.0,100.0
22477,41.0,0,46,7.0,100.0
22478,94.0,24,24,4.0,100.0
22479,93.0,24,24,4.0,100.0
22480,39.0,0,46,7.0,100.0
22481,94.0,24,24,4.0,100.0
22482,93.0,24,24,4.0,100.0
22483,38.0,0,46,7.0,100.0
22484,91.0,24,36,4.0,100.0
22485,89.0,0,94,5.0,100.0
22486,36.0,24,46,7.0,100.0
22487,93.0,12,36,4.0,100.0
22488,34.0,36,94,7.0,127.0
22489,94.0,0,160,4.0,100.0
22490,86.0,96,94,5.0,100.0
22491,50.0,96,72,7.0,127.0
22492,51.0,72,24,7.0,100.0
22493,50.0,24,24,7.0,100.0
22494,94.0,0,48,4.0,100.0
22495,51.0,24,24,7.0,100.0
22496,50.0,24,24,7.0,100.0
22497,51.0,24,24,7.0,100.0
22498,93.0,0,48,4.0,100.0
22499,50.0,24,24,7.0,100.0
22500,51.0,24,24,7.0,100.0
22501,91.0,0,48,4.0,100.0
22502,50.0,24,24,7.0,100.0
22503,51.0,24,24,7.0,100.0
22504,89.0,0,48,4.0,100.0
22505,50.0,24,24,7.0,100.0
22506,87.0,0,48,4.0,100.0
22507,48.0,24,36,7.0,100.0
22508,50.0,12,36,7.0,100.0
22509,86.0,24,48,4.0,100.0
22510,91.0,0,32,4.0,100.0
22511,63.0,36,94,6.0,100.0
22512,51.0,0,94,7.0,127.0
22513,79.0,96,32,4.0,100.0
22514,77.0,96,72,5.0,100.0
22515,79.0,72,24,5.0,100.0
22516,77.0,24,24,5.0,100.0
22517,79.0,24,24,5.0,100.0
22518,91.0,0,48,4.0,100.0
22519,77.0,0,24,5.0,100.0
22520,79.0,24,24,5.0,100.0
22521,89.0,24,48,4.0,100.0
22522,77.0,24,24,5.0,100.0
22523,87.0,0,48,4.0,100.0
22524,79.0,24,24,5.0,100.0
22525,77.0,0,24,5.0,100.0
22526,79.0,24,24,5.0,100.0
22527,86.0,24,48,4.0,100.0
22528,77.0,24,24,5.0,100.0
22529,84.0,0,48,4.0,100.0
22530,75.0,24,36,5.0,100.0
22531,77.0,12,36,5.0,100.0
22532,82.0,24,48,4.0,100.0
22533,79.0,36,94,5.0,100.0
22534,87.0,0,160,4.0,100.0
22535,80.0,96,94,5.0,100.0
22536,81.0,96,94,5.0,100.0
22537,87.0,0,46,4.0,100.0
22538,86.0,48,46,4.0,100.0
22539,52.0,96,94,7.0,100.0
22540,84.0,48,46,4.0,100.0
22541,86.0,48,46,4.0,100.0
22542,84.0,0,46,4.0,100.0
22543,53.0,0,160,7.0,100.0
22544,82.0,48,46,4.0,100.0
22545,64.0,48,94,6.0,100.0
22546,81.0,48,46,4.0,100.0
22547,82.0,48,46,4.0,100.0
22548,65.0,0,94,6.0,100.0
22549,81.0,0,46,4.0,100.0
22550,53.0,48,70,7.0,100.0
22551,79.0,48,46,4.0,100.0
22552,77.0,0,46,4.0,100.0
22553,79.0,48,46,4.0,100.0
22554,81.0,48,46,4.0,100.0
22555,82.0,48,46,4.0,100.0
22556,83.0,48,46,4.0,100.0
22557,63.0,48,256,7.0,100.0
22558,66.0,0,256,7.0,100.0
22559,84.0,48,46,4.0,100.0
22560,86.0,48,46,4.0,100.0
22561,66.0,0,94,7.0,100.0
22562,84.0,48,46,4.0,100.0
22563,63.0,0,94,7.0,100.0
22564,82.0,48,46,4.0,100.0
22565,84.0,48,46,4.0,100.0
22566,63.0,0,96,7.0,100.0
22567,66.0,0,96,7.0,100.0
22568,86.0,48,46,4.0,100.0
22569,87.0,48,46,4.0,100.0
22570,62.0,0,96,7.0,100.0
22571,65.0,0,96,7.0,100.0
22572,89.0,0,46,4.0,100.0
22573,80.0,48,46,4.0,100.0
22574,63.0,0,96,7.0,100.0
22575,60.0,48,96,7.0,100.0
22576,81.0,48,46,4.0,100.0
22577,58.0,0,94,7.0,100.0
22578,62.0,0,94,7.0,100.0
22579,82.0,48,46,4.0,100.0
22580,46.0,0,46,7.0,127.0
22581,48.0,48,46,7.0,127.0
22582,84.0,48,96,4.0,100.0
22583,46.0,0,46,7.0,127.0
22584,45.0,48,46,7.0,127.0
22585,82.0,48,94,4.0,100.0
22586,46.0,48,46,7.0,127.0
22587,48.0,48,46,7.0,127.0
22588,79.0,0,96,4.0,127.0
22589,82.0,0,96,4.0,127.0
22590,50.0,48,46,7.0,127.0
22591,51.0,48,46,7.0,127.0
22592,77.0,0,96,4.0,127.0
22593,80.0,0,96,4.0,127.0
22594,52.0,0,46,7.0,127.0
22595,53.0,48,46,7.0,127.0
22596,70.0,0,96,4.0,127.0
22597,79.0,48,96,4.0,127.0
22598,55.0,48,46,7.0,127.0
22599,53.0,48,46,7.0,127.0
22600,77.0,0,94,4.0,127.0
22601,68.0,0,94,4.0,127.0
22602,50.0,0,46,7.0,127.0
22603,51.0,48,46,7.0,127.0
22604,92.0,48,96,4.0,127.0
22605,89.0,0,96,4.0,127.0
22606,53.0,0,46,7.0,127.0
22607,51.0,48,46,7.0,127.0
22608,87.0,48,94,4.0,127.0
22609,91.0,0,94,4.0,127.0
22610,47.0,0,46,7.0,127.0
22611,48.0,48,46,7.0,127.0
22612,87.0,0,96,4.0,127.0
22613,91.0,48,96,4.0,127.0
22614,50.0,0,46,7.0,127.0
22615,84.0,48,94,4.0,127.0
22616,87.0,0,94,4.0,127.0
22617,51.0,48,46,7.0,127.0
22618,52.0,48,46,7.0,127.0
22619,53.0,48,46,7.0,127.0
22620,86.0,0,96,4.0,127.0
22621,82.0,0,96,4.0,127.0
22622,55.0,48,46,7.0,127.0
22623,86.0,0,94,4.0,127.0
22624,53.0,48,46,7.0,127.0
22625,89.0,0,94,4.0,127.0
22626,41.0,0,94,7.0,127.0
22627,53.0,48,94,7.0,127.0
22628,72.0,0,96,4.0,127.0
22629,75.0,0,96,4.0,127.0
22630,81.0,0,96,4.0,127.0
22631,70.0,0,94,4.0,127.0
22632,74.0,0,94,4.0,127.0
22633,82.0,96,94,4.0,127.0
22634,34.0,0,94,7.0,127.0
22635,46.0,0,94,7.0,127.0
22636,80.0,0,94,4.0,127.0
22637,80.0,288,94,5.0,127.0
22638,66.0,192,72,4.0,100.0
22639,34.0,0,94,7.0,100.0
22640,67.0,72,24,4.0,100.0
22641,66.0,24,24,4.0,100.0
22642,67.0,24,24,4.0,100.0
22643,66.0,24,24,4.0,100.0
22644,67.0,24,24,4.0,100.0
22645,66.0,0,24,4.0,100.0
22646,67.0,24,24,4.0,100.0
22647,66.0,24,24,4.0,100.0
22648,50.0,24,72,7.0,100.0
22649,51.0,0,24,7.0,100.0
22650,67.0,24,24,4.0,100.0
22651,50.0,24,24,7.0,100.0
22652,66.0,0,24,4.0,100.0
22653,67.0,24,24,4.0,100.0
22654,51.0,0,24,7.0,100.0
22655,66.0,0,24,4.0,100.0
22656,48.0,24,24,7.0,100.0
22657,67.0,0,22,4.0,100.0
22658,50.0,24,24,7.0,100.0
22659,63.0,24,94,6.0,100.0
22660,51.0,0,94,7.0,100.0
22661,78.0,0,94,4.0,100.0
22662,78.0,192,72,6.0,100.0
22663,63.0,0,72,4.0,100.0
22664,65.0,0,24,4.0,100.0
22665,80.0,72,24,6.0,100.0
22666,63.0,0,24,4.0,100.0
22667,78.0,24,24,6.0,100.0
22668,80.0,24,24,6.0,100.0
22669,65.0,0,24,4.0,100.0
22670,63.0,24,24,4.0,100.0
22671,77.0,0,24,6.0,100.0
22672,78.0,0,22,6.0,100.0
22673,65.0,24,24,4.0,100.0
22674,63.0,0,24,4.0,100.0
22675,65.0,24,24,4.0,100.0
22676,63.0,24,24,4.0,100.0
22677,54.0,0,94,7.0,100.0
22678,54.0,0,94,6.0,100.0
22679,42.0,0,94,6.0,100.0
22680,42.0,24,94,7.0,100.0
22681,65.0,24,24,4.0,100.0
22682,63.0,24,24,4.0,100.0
22683,65.0,24,24,4.0,100.0
22684,63.0,24,24,4.0,100.0
22685,65.0,24,22,4.0,100.0
22686,27.0,24,72,6.0,100.0
22687,27.0,0,72,7.0,100.0
22688,29.0,0,24,7.0,100.0
22689,29.0,72,24,6.0,100.0
22690,66.0,0,130,4.0,127.0
22691,27.0,0,36,6.0,100.0
22692,27.0,24,36,7.0,100.0
22693,45.0,36,36,4.0,100.0
22694,29.0,0,36,6.0,100.0
22695,29.0,0,36,7.0,100.0
22696,27.0,0,36,7.0,100.0
22697,27.0,0,36,6.0,100.0
22698,48.0,36,36,4.0,100.0
22699,51.0,0,36,4.0,100.0
22700,29.0,0,36,7.0,100.0
22701,29.0,36,36,6.0,100.0
22702,54.0,36,36,4.0,100.0
22703,27.0,0,36,7.0,100.0
22704,27.0,0,36,6.0,100.0
22705,57.0,36,36,4.0,100.0
22706,29.0,0,36,7.0,100.0
22707,29.0,0,36,6.0,100.0
22708,27.0,36,36,6.0,100.0
22709,27.0,0,36,7.0,100.0
22710,60.0,0,36,4.0,100.0
22711,29.0,36,36,6.0,100.0
22712,29.0,0,36,7.0,100.0
22713,63.0,0,36,4.0,100.0
22714,27.0,36,36,7.0,100.0
22715,29.0,36,36,7.0,100.0
22716,27.0,36,36,7.0,100.0
22717,66.0,0,130,4.0,127.0
22718,29.0,36,36,7.0,100.0
22719,57.0,24,36,4.0,100.0
22720,27.0,12,36,7.0,100.0
22721,60.0,24,36,4.0,100.0
22722,29.0,12,36,7.0,100.0
22723,63.0,24,36,4.0,100.0
22724,27.0,12,36,7.0,100.0
22725,66.0,24,36,4.0,100.0
22726,29.0,12,36,7.0,100.0
22727,69.0,24,36,4.0,100.0
22728,27.0,12,36,7.0,100.0
22729,72.0,24,36,4.0,100.0
22730,29.0,12,36,7.0,100.0
22731,75.0,24,36,4.0,100.0
22732,27.0,12,36,7.0,100.0
22733,29.0,12,36,7.0,100.0
22734,78.0,24,82,4.0,127.0
22735,27.0,36,36,7.0,100.0
22736,69.0,0,36,4.0,100.0
22737,29.0,36,36,7.0,100.0
22738,72.0,36,36,4.0,100.0
22739,27.0,0,36,7.0,100.0
22740,75.0,0,36,4.0,100.0
22741,29.0,36,36,7.0,100.0
22742,78.0,36,36,4.0,100.0
22743,27.0,0,36,7.0,100.0
22744,81.0,36,36,4.0,100.0
22745,29.0,0,36,7.0,100.0
22746,84.0,36,36,4.0,100.0
22747,27.0,0,36,7.0,100.0
22748,87.0,36,36,4.0,100.0
22749,29.0,0,36,7.0,100.0
22750,27.0,36,36,7.0,100.0
22751,29.0,36,36,7.0,100.0
22752,90.0,0,106,4.0,127.0
22753,27.0,36,36,7.0,100.0
22754,69.0,0,36,4.0,100.0
22755,29.0,36,36,7.0,100.0
22756,72.0,36,36,4.0,100.0
22757,27.0,0,36,7.0,100.0
22758,29.0,36,36,7.0,100.0
22759,75.0,0,36,4.0,100.0
22760,27.0,36,36,7.0,100.0
22761,29.0,36,36,7.0,100.0
22762,78.0,0,106,4.0,127.0
22763,27.0,36,36,7.0,100.0
22764,57.0,36,36,4.0,100.0
22765,29.0,0,36,7.0,100.0
22766,60.0,0,36,4.0,100.0
22767,27.0,36,36,7.0,100.0
22768,29.0,0,36,7.0,100.0
22769,63.0,36,36,4.0,100.0
22770,27.0,36,36,7.0,100.0
22771,66.0,0,46,4.0,127.0
22772,29.0,36,36,7.0,100.0
22773,45.0,12,48,4.0,100.0
22774,27.0,24,36,7.0,100.0
22775,48.0,24,48,4.0,100.0
22776,29.0,12,36,7.0,100.0
22777,27.0,36,36,7.0,100.0
22778,51.0,0,48,4.0,100.0
22779,29.0,36,36,7.0,100.0
22780,27.0,24,36,7.0,100.0
22781,29.0,36,36,7.0,100.0
22782,27.0,36,36,7.0,100.0
22783,54.0,12,160,4.0,127.0
22784,29.0,36,36,7.0,100.0
22785,27.0,36,24,7.0,100.0
22786,34.0,0,36,6.0,100.0
22787,36.0,36,36,6.0,100.0
22788,34.0,36,24,6.0,100.0
22789,36.0,24,36,6.0,100.0
22790,34.0,36,24,6.0,100.0
22791,29.0,24,160,7.0,100.0
22792,36.0,24,34,6.0,100.0
22793,34.0,0,36,7.0,100.0
22794,36.0,36,36,7.0,100.0
22795,51.0,0,288,4.0,100.0
22796,45.0,0,288,4.0,100.0
22797,42.0,0,288,4.0,100.0
22798,34.0,36,36,7.0,100.0
22799,36.0,12,36,7.0,100.0
22800,34.0,36,36,7.0,100.0
22801,50.0,24,94,4.0,100.0
22802,44.0,0,94,4.0,100.0
22803,41.0,0,94,4.0,100.0
22804,36.0,36,36,7.0,100.0
22805,70.0,12,48,4.0,100.0
22806,34.0,24,36,7.0,100.0
22807,36.0,12,36,7.0,100.0
22808,68.0,24,48,4.0,100.0
22809,34.0,36,36,7.0,100.0
22810,70.0,0,48,4.0,100.0
22811,36.0,36,36,7.0,100.0
22812,34.0,24,24,7.0,100.0
22813,68.0,12,48,4.0,100.0
22814,36.0,0,36,7.0,100.0
22815,70.0,24,48,4.0,100.0
22816,34.0,36,24,7.0,100.0
22817,36.0,12,36,7.0,100.0
22818,68.0,12,48,4.0,100.0
22819,34.0,36,24,7.0,100.0
22820,67.0,0,48,4.0,100.0
22821,36.0,24,36,7.0,100.0
22822,68.0,24,48,4.0,100.0
22823,29.0,0,0,6.0,100.0
22824,34.0,12,36,7.0,100.0
22825,36.0,0,36,7.0,100.0
22826,34.0,36,36,7.0,100.0
22827,36.0,36,36,7.0,100.0
22828,34.0,12,36,7.0,100.0
22829,71.0,36,160,4.0,100.0
22830,36.0,36,36,7.0,100.0
22831,56.0,24,94,5.0,100.0
22832,34.0,36,36,7.0,100.0
22833,36.0,24,36,7.0,100.0
22834,68.0,12,94,5.0,100.0
22835,34.0,36,36,7.0,100.0
22836,36.0,0,36,7.0,100.0
22837,71.0,0,48,5.0,100.0
22838,34.0,36,36,7.0,100.0
22839,79.0,36,94,4.0,100.0
22840,70.0,12,48,5.0,100.0
22841,36.0,24,36,7.0,100.0
22842,34.0,12,24,7.0,100.0
22843,68.0,0,48,5.0,100.0
22844,36.0,24,36,7.0,100.0
22845,80.0,24,94,4.0,100.0
22846,66.0,12,48,5.0,100.0
22847,34.0,24,24,7.0,100.0
22848,36.0,0,36,7.0,100.0
22849,65.0,24,48,5.0,100.0
22850,34.0,36,24,7.0,100.0
22851,36.0,12,34,7.0,100.0
22852,63.0,12,48,5.0,100.0
22853,34.0,36,36,7.0,100.0
22854,36.0,36,36,7.0,100.0
22855,34.0,36,36,7.0,100.0
22856,36.0,12,36,7.0,100.0
22857,68.0,0,160,5.0,100.0
22858,34.0,36,36,7.0,100.0
22859,53.0,24,94,5.0,100.0
22860,36.0,36,36,7.0,100.0
22861,34.0,24,36,7.0,100.0
22862,65.0,12,94,5.0,100.0
22863,36.0,36,36,7.0,100.0
22864,34.0,0,36,7.0,100.0
22865,68.0,36,48,5.0,100.0
22866,36.0,36,36,7.0,100.0
22867,76.0,0,94,4.0,100.0
22868,34.0,24,24,7.0,100.0
22869,66.0,12,48,5.0,100.0
22870,36.0,0,36,7.0,100.0
22871,65.0,0,48,5.0,100.0
22872,34.0,36,24,7.0,100.0
22873,77.0,24,94,4.0,100.0
22874,36.0,12,36,7.0,100.0
22875,63.0,12,48,5.0,100.0
22876,34.0,36,24,7.0,100.0
22877,62.0,0,48,5.0,100.0
22878,36.0,24,36,7.0,100.0
22879,29.0,0,576,6.0,100.0
22880,34.0,12,36,7.0,100.0
22881,59.0,24,48,5.0,100.0
22882,36.0,0,36,7.0,100.0
22883,34.0,36,36,7.0,100.0
22884,36.0,36,36,7.0,100.0
22885,34.0,12,36,7.0,100.0
22886,66.0,0,160,5.0,100.0
22887,36.0,36,36,7.0,100.0
22888,51.0,24,94,5.0,100.0
22889,34.0,36,36,7.0,100.0
22890,36.0,24,36,7.0,100.0
22891,63.0,12,94,5.0,100.0
22892,34.0,36,36,7.0,100.0
22893,36.0,0,36,7.0,100.0
22894,66.0,0,48,5.0,100.0
22895,34.0,36,36,7.0,100.0
22896,74.0,36,94,4.0,100.0
22897,65.0,12,48,5.0,100.0
22898,36.0,24,36,7.0,100.0
22899,34.0,12,24,7.0,100.0
22900,63.0,0,48,5.0,100.0
22901,36.0,24,36,7.0,100.0
22902,75.0,24,94,4.0,100.0
22903,34.0,24,24,7.0,100.0
22904,61.0,12,48,5.0,100.0
22905,36.0,0,36,7.0,100.0
22906,59.0,0,48,5.0,100.0
22907,34.0,36,24,7.0,100.0
22908,36.0,12,34,7.0,100.0
22909,58.0,12,48,5.0,100.0
22910,29.0,36,576,6.0,100.0
22911,34.0,0,36,7.0,100.0
22912,63.0,24,144,4.0,100.0
22913,36.0,36,36,7.0,100.0
22914,57.0,36,94,5.0,100.0
22915,65.0,12,48,4.0,100.0
22916,34.0,24,36,7.0,100.0
22917,36.0,12,36,7.0,100.0
22918,63.0,24,48,4.0,100.0
22919,34.0,0,36,7.0,100.0
22920,62.0,36,48,4.0,100.0
22921,36.0,36,36,7.0,100.0
22922,63.0,12,48,4.0,100.0
22923,34.0,24,36,7.0,100.0
22924,61.0,24,48,4.0,100.0
22925,36.0,12,36,7.0,100.0
22926,34.0,0,36,7.0,100.0
22927,60.0,36,48,4.0,100.0
22928,36.0,36,36,7.0,100.0
22929,34.0,24,24,7.0,100.0
22930,59.0,12,48,4.0,100.0
22931,36.0,24,36,7.0,100.0
22932,60.0,0,48,4.0,100.0
22933,34.0,36,24,7.0,100.0
22934,54.0,0,256,5.0,100.0
22935,36.0,12,36,7.0,100.0
22936,59.0,12,48,4.0,100.0
22937,34.0,0,24,7.0,100.0
22938,60.0,0,48,4.0,100.0
22939,29.0,0,528,6.0,100.0
22940,36.0,24,36,7.0,100.0
22941,54.0,36,94,5.0,100.0
22942,61.0,24,48,4.0,100.0
22943,34.0,12,36,7.0,100.0
22944,36.0,0,36,7.0,100.0
22945,34.0,36,36,7.0,100.0
22946,54.0,36,94,5.0,100.0
22947,63.0,0,94,4.0,100.0
22948,36.0,36,36,7.0,100.0
22949,34.0,12,36,7.0,100.0
22950,36.0,36,36,7.0,100.0
22951,53.0,24,94,5.0,100.0
22952,34.0,36,36,7.0,100.0
22953,36.0,24,36,7.0,100.0
22954,53.0,12,96,5.0,100.0
22955,34.0,36,36,7.0,100.0
22956,36.0,0,36,7.0,100.0
22957,34.0,36,36,7.0,100.0
22958,51.0,36,96,5.0,100.0
22959,36.0,36,36,7.0,100.0
22960,34.0,12,24,7.0,100.0
22961,60.0,0,256,4.0,100.0
22962,36.0,24,36,7.0,100.0
22963,34.0,36,24,7.0,100.0
22964,50.0,24,96,5.0,100.0
22965,36.0,24,36,7.0,100.0
22966,34.0,36,24,7.0,100.0
22967,36.0,24,34,7.0,100.0
22968,51.0,0,94,5.0,100.0
22969,60.0,0,94,4.0,100.0
22970,29.0,0,576,6.0,100.0
22971,34.0,0,36,6.0,100.0
22972,36.0,36,36,6.0,100.0
22973,60.0,0,96,4.0,100.0
22974,51.0,0,96,4.0,100.0
22975,34.0,36,36,6.0,100.0
22976,36.0,12,36,6.0,100.0
22977,29.0,36,160,7.0,100.0
22978,34.0,36,36,6.0,100.0
22979,50.0,24,94,4.0,100.0
22980,58.0,0,94,4.0,100.0
22981,36.0,36,36,6.0,100.0
22982,34.0,24,36,6.0,100.0
22983,57.0,0,96,4.0,100.0
22984,36.0,36,36,6.0,100.0
22985,51.0,0,96,4.0,100.0
22986,34.0,36,36,6.0,100.0
22987,29.0,12,160,7.0,100.0
22988,36.0,36,36,6.0,100.0
22989,58.0,0,94,4.0,100.0
22990,50.0,0,94,4.0,100.0
22991,34.0,36,24,6.0,100.0
22992,36.0,0,36,6.0,100.0
22993,34.0,36,24,6.0,100.0
22994,51.0,0,96,4.0,100.0
22995,45.0,24,96,4.0,100.0
22996,36.0,24,36,6.0,100.0
22997,54.0,0,96,4.0,100.0
22998,34.0,36,24,6.0,100.0
22999,36.0,24,36,6.0,100.0
23000,29.0,0,160,7.0,100.0
23001,34.0,36,34,6.0,100.0
23002,46.0,0,94,4.0,100.0
23003,50.0,0,94,4.0,100.0
23004,53.0,0,94,4.0,100.0
23005,36.0,0,24,6.0,100.0
23006,34.0,24,24,6.0,100.0
23007,36.0,24,24,6.0,100.0
23008,63.0,0,96,4.0,100.0
23009,54.0,36,96,4.0,100.0
23010,57.0,0,96,4.0,100.0
23011,34.0,24,24,6.0,100.0
23012,36.0,0,24,6.0,100.0
23013,34.0,24,24,6.0,100.0
23014,29.0,0,160,7.0,100.0
23015,36.0,24,24,6.0,100.0
23016,62.0,0,94,4.0,100.0
23017,53.0,24,94,4.0,100.0
23018,58.0,0,94,4.0,100.0
23019,34.0,24,24,6.0,100.0
23020,36.0,0,24,6.0,100.0
23021,34.0,24,24,6.0,100.0
23022,36.0,24,24,6.0,100.0
23023,69.0,24,96,4.0,100.0
23024,66.0,0,96,4.0,100.0
23025,63.0,0,96,4.0,100.0
23026,34.0,24,24,6.0,100.0
23027,36.0,0,24,6.0,100.0
23028,34.0,24,24,6.0,100.0
23029,29.0,0,160,7.0,100.0
23030,36.0,24,24,6.0,100.0
23031,70.0,24,94,4.0,100.0
23032,62.0,0,94,4.0,100.0
23033,65.0,0,94,4.0,100.0
23034,34.0,24,24,6.0,100.0
23035,36.0,0,24,6.0,100.0
23036,34.0,24,24,6.0,100.0
23037,36.0,24,24,6.0,100.0
23038,69.0,0,96,4.0,100.0
23039,78.0,0,96,4.0,100.0
23040,75.0,0,96,4.0,100.0
23041,34.0,24,24,6.0,100.0
23042,36.0,0,24,6.0,100.0
23043,34.0,24,24,6.0,100.0
23044,29.0,24,160,7.0,100.0
23045,33.0,24,24,6.0,100.0
23046,74.0,0,94,4.0,100.0
23047,70.0,24,94,4.0,100.0
23048,34.0,24,22,6.0,100.0
23049,77.0,0,94,4.0,100.0
23050,81.0,24,46,4.0,100.0
23051,82.0,48,16,4.0,100.0
23052,81.0,18,16,4.0,100.0
23053,82.0,18,16,4.0,100.0
23054,81.0,18,16,4.0,100.0
23055,82.0,18,16,4.0,100.0
23056,81.0,18,16,4.0,100.0
23057,82.0,18,16,4.0,100.0
23058,81.0,18,16,4.0,100.0
23059,30.0,0,192,7.0,100.0
23060,34.0,0,192,7.0,100.0
23061,42.0,0,192,7.0,100.0
23062,82.0,0,16,4.0,100.0
23063,81.0,18,16,4.0,100.0
23064,82.0,18,16,4.0,100.0
23065,81.0,18,16,4.0,100.0
23066,82.0,18,10,4.0,100.0
23067,81.0,12,10,4.0,100.0
23068,82.0,12,10,4.0,100.0
23069,81.0,12,10,4.0,100.0
23070,82.0,12,10,4.0,100.0
23071,81.0,12,10,4.0,100.0
23072,82.0,12,10,4.0,100.0
23073,81.0,12,10,4.0,100.0
23074,79.0,12,10,4.0,100.0
23075,81.0,12,10,4.0,100.0
23076,72.0,0,384,5.0,100.0
23077,75.0,0,384,5.0,100.0
23078,73.0,0,166,5.0,100.0
23079,82.0,12,166,4.0,100.0
23080,70.0,0,166,5.0,100.0
23081,31.0,18,358,7.0,100.0
23082,34.0,0,358,7.0,100.0
23083,43.0,0,358,7.0,100.0
23084,64.0,0,46,5.0,100.0
23085,55.0,192,46,7.0,100.0
23086,57.0,48,16,7.0,100.0
23087,65.0,0,16,5.0,100.0
23088,55.0,18,16,7.0,100.0
23089,64.0,0,16,5.0,100.0
23090,57.0,18,16,7.0,100.0
23091,65.0,0,16,5.0,100.0
23092,64.0,0,16,5.0,100.0
23093,55.0,18,16,7.0,100.0
23094,65.0,18,16,5.0,100.0
23095,57.0,0,16,7.0,100.0
23096,64.0,18,16,5.0,100.0
23097,55.0,0,16,7.0,100.0
23098,65.0,18,16,5.0,100.0
23099,57.0,0,16,7.0,100.0
23100,64.0,18,16,5.0,100.0
23101,55.0,0,16,7.0,100.0
23102,57.0,0,16,7.0,100.0
23103,65.0,18,16,5.0,100.0
23104,64.0,18,16,5.0,100.0
23105,55.0,0,16,7.0,100.0
23106,65.0,18,16,5.0,100.0
23107,57.0,0,16,7.0,100.0
23108,64.0,18,16,5.0,100.0
23109,55.0,0,16,7.0,100.0
23110,57.0,0,10,7.0,100.0
23111,65.0,18,10,5.0,100.0
23112,64.0,0,10,5.0,100.0
23113,55.0,12,10,7.0,100.0
23114,65.0,12,10,5.0,100.0
23115,57.0,0,10,7.0,100.0
23116,55.0,0,10,7.0,100.0
23117,64.0,12,10,5.0,100.0
23118,57.0,12,10,7.0,100.0
23119,65.0,0,10,5.0,100.0
23120,64.0,0,10,5.0,100.0
23121,55.0,12,10,7.0,100.0
23122,57.0,0,10,7.0,100.0
23123,65.0,12,10,5.0,100.0
23124,73.0,0,160,4.0,100.0
23125,70.0,0,160,4.0,100.0
23126,55.0,0,10,7.0,100.0
23127,64.0,12,10,5.0,100.0
23128,62.0,12,10,5.0,100.0
23129,53.0,0,10,7.0,100.0
23130,64.0,12,10,5.0,100.0
23131,55.0,0,10,7.0,100.0
23132,65.0,0,166,5.0,100.0
23133,72.0,0,166,4.0,100.0
23134,57.0,12,166,7.0,100.0
23135,60.0,192,46,6.0,100.0
23136,69.0,0,46,5.0,100.0
23137,62.0,0,16,6.0,100.0
23138,70.0,48,16,5.0,100.0
23139,69.0,18,16,5.0,100.0
23140,60.0,0,16,6.0,100.0
23141,70.0,18,16,5.0,100.0
23142,62.0,0,16,6.0,100.0
23143,60.0,0,16,6.0,100.0
23144,69.0,18,16,5.0,100.0
23145,62.0,18,16,6.0,100.0
23146,70.0,0,16,5.0,100.0
23147,60.0,0,16,6.0,100.0
23148,69.0,18,16,5.0,100.0
23149,62.0,0,16,6.0,100.0
23150,70.0,18,16,5.0,100.0
23151,69.0,0,16,5.0,100.0
23152,60.0,18,16,6.0,100.0
23153,70.0,18,16,5.0,100.0
23154,62.0,0,16,6.0,100.0
23155,69.0,18,16,5.0,100.0
23156,60.0,0,16,6.0,100.0
23157,70.0,0,16,5.0,100.0
23158,62.0,18,16,6.0,100.0
23159,69.0,18,16,5.0,100.0
23160,60.0,0,16,6.0,100.0
23161,62.0,18,10,6.0,100.0
23162,70.0,0,10,5.0,100.0
23163,69.0,12,10,5.0,100.0
23164,60.0,0,10,6.0,100.0
23165,70.0,12,10,5.0,100.0
23166,62.0,0,10,6.0,100.0
23167,60.0,0,10,6.0,100.0
23168,69.0,12,10,5.0,100.0
23169,62.0,0,10,6.0,100.0
23170,70.0,12,10,5.0,100.0
23171,69.0,0,10,5.0,100.0
23172,60.0,12,10,6.0,100.0
23173,62.0,12,10,6.0,100.0
23174,70.0,0,10,5.0,100.0
23175,75.0,0,160,4.0,100.0
23176,53.0,0,160,7.0,100.0
23177,60.0,12,10,6.0,100.0
23178,69.0,0,10,5.0,100.0
23179,58.0,12,10,6.0,100.0
23180,67.0,0,10,5.0,100.0
23181,60.0,0,10,6.0,100.0
23182,69.0,12,10,5.0,100.0
23183,53.0,0,160,7.0,100.0
23184,57.0,0,160,7.0,100.0
23185,60.0,12,160,6.0,100.0
23186,72.0,0,160,4.0,100.0
23187,75.0,0,160,4.0,100.0
23188,65.0,0,160,5.0,100.0
23189,75.0,0,256,4.0,100.0
23190,65.0,192,256,4.0,100.0
23191,53.0,0,256,7.0,100.0
23192,57.0,0,256,7.0,100.0
23193,60.0,0,256,7.0,100.0
23194,72.0,0,256,4.0,100.0
23195,79.0,288,48,4.0,100.0
23196,77.0,48,48,4.0,100.0
23197,75.0,48,48,4.0,100.0
23198,74.0,48,48,4.0,100.0
23199,72.0,48,48,4.0,100.0
23200,71.0,48,48,4.0,100.0
23201,75.0,48,160,4.0,100.0
23202,67.0,0,48,4.0,100.0
23203,55.0,288,48,7.0,100.0
23204,53.0,0,48,7.0,100.0
23205,65.0,48,48,4.0,100.0
23206,63.0,48,48,4.0,100.0
23207,51.0,0,48,7.0,100.0
23208,62.0,48,48,4.0,100.0
23209,50.0,0,48,7.0,100.0
23210,60.0,48,48,4.0,100.0
23211,48.0,0,48,7.0,100.0
23212,47.0,0,48,7.0,100.0
23213,59.0,48,48,4.0,100.0
23214,63.0,0,160,4.0,100.0
23215,51.0,48,160,7.0,100.0
23216,67.0,0,48,7.0,100.0
23217,79.0,288,48,4.0,100.0
23218,77.0,48,48,4.0,100.0
23219,65.0,0,48,7.0,100.0
23220,63.0,0,48,7.0,100.0
23221,75.0,48,48,4.0,100.0
23222,62.0,48,48,7.0,100.0
23223,74.0,0,48,4.0,100.0
23224,60.0,48,48,7.0,100.0
23225,72.0,0,48,4.0,100.0
23226,59.0,48,48,7.0,100.0
23227,71.0,0,48,4.0,100.0
23228,79.0,48,48,4.0,100.0
23229,67.0,0,48,7.0,100.0
23230,65.0,0,48,7.0,100.0
23231,77.0,48,48,4.0,100.0
23232,63.0,48,48,7.0,100.0
23233,75.0,0,48,4.0,100.0
23234,74.0,0,48,4.0,100.0
23235,62.0,48,48,7.0,100.0
23236,72.0,48,48,4.0,100.0
23237,60.0,0,48,7.0,100.0
23238,70.0,48,48,4.0,100.0
23239,58.0,0,48,7.0,100.0
23240,57.0,0,48,7.0,100.0
23241,69.0,48,48,4.0,100.0
23242,67.0,48,48,4.0,100.0
23243,55.0,0,48,7.0,100.0
23244,65.0,0,48,4.0,100.0
23245,53.0,48,48,7.0,100.0
23246,63.0,0,48,4.0,100.0
23247,51.0,48,48,7.0,100.0
23248,62.0,48,48,4.0,100.0
23249,50.0,0,48,7.0,100.0
23250,48.0,0,48,7.0,100.0
23251,60.0,48,48,4.0,100.0
23252,46.0,0,48,7.0,100.0
23253,58.0,48,48,4.0,100.0
23254,57.0,0,48,4.0,100.0
23255,45.0,48,48,7.0,100.0
23256,43.0,48,48,7.0,100.0
23257,55.0,0,48,4.0,100.0
23258,41.0,48,48,7.0,100.0
23259,53.0,0,48,4.0,100.0
23260,51.0,48,48,4.0,100.0
23261,39.0,0,48,7.0,100.0
23262,38.0,48,48,7.0,100.0
23263,50.0,0,48,4.0,100.0
23264,36.0,48,48,7.0,100.0
23265,48.0,0,48,4.0,100.0
23266,34.0,48,48,7.0,100.0
23267,46.0,0,48,4.0,100.0
23268,33.0,48,48,7.0,100.0
23269,45.0,0,48,4.0,100.0
23270,43.0,0,48,4.0,100.0
23271,31.0,48,48,7.0,100.0
23272,29.0,0,48,7.0,100.0
23273,41.0,48,48,4.0,100.0
23274,28.0,0,48,7.0,100.0
23275,40.0,48,48,4.0,100.0
23276,53.0,0,94,5.0,100.0
23277,41.0,48,94,4.0,100.0
23278,41.0,0,94,5.0,100.0
23279,53.0,0,94,4.0,100.0
23280,29.0,0,142,7.0,127.0
23281,29.0,0,142,6.0,127.0
23282,81.0,0,72,4.0,127.0
23283,45.0,0,72,6.0,127.0
23284,45.0,0,72,7.0,127.0
23285,46.0,0,24,6.0,100.0
23286,46.0,72,24,7.0,100.0
23287,82.0,0,24,4.0,100.0
23288,45.0,0,24,6.0,100.0
23289,45.0,0,24,7.0,100.0
23290,81.0,24,24,4.0,100.0
23291,46.0,0,24,7.0,100.0
23292,82.0,0,24,4.0,100.0
23293,46.0,24,24,6.0,100.0
23294,45.0,24,24,7.0,100.0
23295,45.0,0,24,6.0,100.0
23296,81.0,0,24,4.0,100.0
23297,46.0,0,24,6.0,100.0
23298,46.0,24,24,7.0,100.0
23299,82.0,0,24,4.0,100.0
23300,45.0,0,24,7.0,100.0
23301,45.0,24,24,6.0,100.0
23302,81.0,0,24,4.0,100.0
23303,46.0,24,24,6.0,100.0
23304,46.0,0,24,7.0,100.0
23305,82.0,0,24,4.0,100.0
23306,45.0,0,24,6.0,100.0
23307,45.0,24,24,7.0,100.0
23308,81.0,0,24,4.0,100.0
23309,46.0,0,24,6.0,100.0
23310,82.0,0,24,4.0,100.0
23311,46.0,24,24,7.0,100.0
23312,81.0,0,24,4.0,100.0
23313,45.0,24,24,7.0,100.0
23314,45.0,0,24,6.0,100.0
23315,69.0,192,336,5.0,100.0
23316,43.0,0,36,6.0,100.0
23317,43.0,0,36,7.0,100.0
23318,79.0,24,36,4.0,100.0
23319,81.0,0,36,4.0,100.0
23320,45.0,0,36,7.0,100.0
23321,45.0,36,36,6.0,100.0
23322,46.0,0,94,6.0,100.0
23323,46.0,36,94,7.0,100.0
23324,70.0,0,94,4.0,100.0
23325,82.0,0,94,4.0,100.0
23326,70.0,0,94,5.0,100.0
23327,55.0,0,94,4.0,100.0
23328,31.0,192,94,6.0,100.0
23329,31.0,0,94,7.0,100.0
23330,67.0,0,94,4.0,100.0
23331,55.0,0,94,5.0,100.0
23332,47.0,0,72,6.0,127.0
23333,83.0,0,72,4.0,127.0
23334,47.0,192,72,7.0,127.0
23335,84.0,0,24,4.0,100.0
23336,48.0,0,24,7.0,100.0
23337,48.0,72,24,6.0,100.0
23338,47.0,0,24,6.0,100.0
23339,47.0,24,24,7.0,100.0
23340,83.0,0,24,4.0,100.0
23341,84.0,24,24,4.0,100.0
23342,48.0,0,24,7.0,100.0
23343,48.0,0,24,6.0,100.0
23344,47.0,0,24,6.0,100.0
23345,47.0,0,24,7.0,100.0
23346,83.0,24,24,4.0,100.0
23347,48.0,0,24,6.0,100.0
23348,48.0,24,24,7.0,100.0
23349,84.0,0,24,4.0,100.0
23350,47.0,0,24,7.0,100.0
23351,47.0,0,24,6.0,100.0
23352,83.0,24,24,4.0,100.0
23353,84.0,0,24,4.0,100.0
23354,48.0,24,24,7.0,100.0
23355,48.0,0,24,6.0,100.0
23356,47.0,24,24,7.0,100.0
23357,83.0,0,24,4.0,100.0
23358,47.0,0,24,6.0,100.0
23359,48.0,24,24,7.0,100.0
23360,84.0,0,24,4.0,100.0
23361,48.0,0,24,6.0,100.0
23362,47.0,0,24,6.0,100.0
23363,47.0,0,24,7.0,100.0
23364,83.0,24,24,4.0,100.0
23365,45.0,0,36,7.0,100.0
23366,45.0,0,36,6.0,100.0
23367,81.0,24,36,4.0,100.0
23368,71.0,0,352,5.0,100.0
23369,83.0,0,36,4.0,100.0
23370,47.0,0,36,6.0,100.0
23371,47.0,36,36,7.0,100.0
23372,48.0,36,94,6.0,100.0
23373,72.0,0,94,5.0,100.0
23374,84.0,0,94,4.0,100.0
23375,48.0,0,94,7.0,100.0
23376,57.0,0,94,5.0,100.0
23377,33.0,0,94,6.0,100.0
23378,69.0,0,94,4.0,100.0
23379,33.0,192,94,7.0,100.0
23380,85.0,0,72,4.0,127.0
23381,49.0,0,72,7.0,127.0
23382,49.0,192,72,6.0,127.0
23383,50.0,72,24,6.0,100.0
23384,50.0,0,24,7.0,100.0
23385,86.0,0,24,4.0,100.0
23386,49.0,0,24,7.0,100.0
23387,85.0,0,24,4.0,100.0
23388,49.0,24,24,6.0,100.0
23389,50.0,0,24,7.0,100.0
23390,50.0,0,24,6.0,100.0
23391,86.0,24,24,4.0,100.0
23392,49.0,0,24,7.0,100.0
23393,49.0,24,24,6.0,100.0
23394,85.0,0,24,4.0,100.0
23395,50.0,0,24,7.0,100.0
23396,86.0,24,24,4.0,100.0
23397,50.0,0,24,6.0,100.0
23398,49.0,0,24,6.0,100.0
23399,85.0,0,24,4.0,100.0
23400,49.0,24,24,7.0,100.0
23401,86.0,0,24,4.0,100.0
23402,50.0,24,24,6.0,100.0
23403,50.0,0,24,7.0,100.0
23404,85.0,24,24,4.0,100.0
23405,49.0,0,24,7.0,100.0
23406,49.0,0,24,6.0,100.0
23407,86.0,24,24,4.0,100.0
23408,50.0,0,24,7.0,100.0
23409,50.0,0,24,6.0,100.0
23410,85.0,24,24,4.0,100.0
23411,49.0,0,24,7.0,100.0
23412,49.0,0,24,6.0,100.0
23413,73.0,0,336,5.0,100.0
23414,47.0,24,36,7.0,100.0
23415,83.0,0,36,4.0,100.0
23416,47.0,0,36,6.0,100.0
23417,49.0,0,36,6.0,100.0
23418,85.0,0,36,4.0,100.0
23419,49.0,36,36,7.0,100.0
23420,50.0,0,94,6.0,100.0
23421,50.0,0,94,7.0,100.0
23422,74.0,0,94,5.0,100.0
23423,86.0,36,94,4.0,100.0
23424,70.0,0,94,4.0,100.0
23425,58.0,0,94,5.0,100.0
23426,34.0,0,94,7.0,100.0
23427,34.0,192,94,6.0,100.0
23428,86.0,192,72,4.0,127.0
23429,50.0,0,72,6.0,127.0
23430,50.0,0,72,7.0,127.0
23431,87.0,72,24,4.0,100.0
23432,51.0,0,24,7.0,100.0
23433,51.0,0,24,6.0,100.0
23434,50.0,0,24,6.0,100.0
23435,86.0,24,24,4.0,100.0
23436,50.0,0,24,7.0,100.0
23437,51.0,0,24,7.0,100.0
23438,51.0,24,24,6.0,100.0
23439,87.0,0,24,4.0,100.0
23440,50.0,0,24,7.0,100.0
23441,50.0,0,24,6.0,100.0
23442,86.0,24,24,4.0,100.0
23443,87.0,0,24,4.0,100.0
23444,51.0,24,24,7.0,100.0
23445,51.0,0,24,6.0,100.0
23446,50.0,0,24,6.0,100.0
23447,50.0,24,24,7.0,100.0
23448,86.0,0,24,4.0,100.0
23449,51.0,0,24,6.0,100.0
23450,51.0,0,24,7.0,100.0
23451,87.0,24,24,4.0,100.0
23452,50.0,24,24,7.0,100.0
23453,50.0,0,24,6.0,100.0
23454,86.0,0,24,4.0,100.0
23455,87.0,0,24,4.0,100.0
23456,51.0,0,24,6.0,100.0
23457,51.0,24,24,7.0,100.0
23458,50.0,24,24,6.0,100.0
23459,86.0,0,24,4.0,100.0
23460,50.0,0,24,7.0,100.0
23461,74.0,0,336,5.0,100.0
23462,48.0,24,36,6.0,100.0
23463,48.0,0,36,7.0,100.0
23464,84.0,0,36,4.0,100.0
23465,86.0,0,36,4.0,100.0
23466,50.0,36,36,6.0,100.0
23467,50.0,0,36,7.0,100.0
23468,87.0,0,94,4.0,100.0
23469,75.0,0,94,5.0,100.0
23470,51.0,36,94,7.0,100.0
23471,51.0,0,94,6.0,100.0
23472,60.0,0,94,5.0,100.0
23473,36.0,192,94,7.0,100.0
23474,36.0,0,94,6.0,100.0
23475,72.0,0,94,4.0,100.0
23476,88.0,0,72,4.0,127.0
23477,52.0,192,72,7.0,127.0
23478,52.0,0,72,6.0,127.0
23479,89.0,72,24,4.0,100.0
23480,53.0,0,24,7.0,100.0
23481,53.0,0,24,6.0,100.0
23482,52.0,0,24,6.0,100.0
23483,88.0,24,24,4.0,100.0
23484,52.0,0,24,7.0,100.0
23485,89.0,0,24,4.0,100.0
23486,53.0,24,24,6.0,100.0
23487,53.0,0,24,7.0,100.0
23488,52.0,0,24,7.0,100.0
23489,88.0,24,24,4.0,100.0
23490,52.0,0,24,6.0,100.0
23491,53.0,24,24,7.0,100.0
23492,53.0,0,24,6.0,100.0
23493,89.0,0,24,4.0,100.0
23494,52.0,24,24,7.0,100.0
23495,52.0,0,24,6.0,100.0
23496,88.0,0,24,4.0,100.0
23497,89.0,0,24,4.0,100.0
23498,53.0,0,24,6.0,100.0
23499,53.0,24,24,7.0,100.0
23500,52.0,0,24,7.0,100.0
23501,88.0,24,24,4.0,100.0
23502,52.0,0,24,6.0,100.0
23503,53.0,24,24,7.0,100.0
23504,89.0,0,24,4.0,100.0
23505,53.0,0,24,6.0,100.0
23506,52.0,24,24,7.0,100.0
23507,88.0,0,24,4.0,100.0
23508,52.0,0,24,6.0,100.0
23509,86.0,0,36,4.0,100.0
23510,50.0,0,36,6.0,100.0
23511,50.0,24,36,7.0,100.0
23512,76.0,0,352,5.0,100.0
23513,52.0,36,36,6.0,100.0
23514,88.0,0,36,4.0,100.0
23515,52.0,0,36,7.0,100.0
23516,77.0,0,94,5.0,100.0
23517,53.0,0,94,7.0,100.0
23518,89.0,0,94,4.0,100.0
23519,53.0,36,94,6.0,100.0
23520,62.0,192,94,5.0,100.0
23521,74.0,0,94,4.0,100.0
23522,38.0,0,94,6.0,100.0
23523,38.0,0,94,7.0,100.0
23524,54.0,0,72,6.0,127.0
23525,54.0,0,72,7.0,127.0
23526,90.0,0,72,4.0,127.0
23527,55.0,0,24,7.0,100.0
23528,91.0,72,24,4.0,100.0
23529,55.0,0,24,6.0,100.0
23530,54.0,0,24,6.0,100.0
23531,90.0,0,24,4.0,100.0
23532,54.0,24,24,7.0,100.0
23533,55.0,0,24,7.0,100.0
23534,55.0,24,24,6.0,100.0
23535,91.0,0,24,4.0,100.0
23536,54.0,24,24,6.0,100.0
23537,90.0,0,24,4.0,100.0
23538,54.0,0,24,7.0,100.0
23539,91.0,0,24,4.0,100.0
23540,55.0,0,24,6.0,100.0
23541,55.0,24,24,7.0,100.0
23542,54.0,0,24,7.0,100.0
23543,54.0,0,24,6.0,100.0
23544,90.0,24,24,4.0,100.0
23545,55.0,24,24,7.0,100.0
23546,91.0,0,24,4.0,100.0
23547,55.0,0,24,6.0,100.0
23548,90.0,0,24,4.0,100.0
23549,54.0,0,24,6.0,100.0
23550,54.0,24,24,7.0,100.0
23551,55.0,0,24,7.0,100.0
23552,91.0,24,24,4.0,100.0
23553,55.0,0,24,6.0,100.0
23554,54.0,0,24,6.0,100.0
23555,54.0,24,24,7.0,100.0
23556,90.0,0,24,4.0,100.0
23557,78.0,192,336,5.0,100.0
23558,88.0,0,36,4.0,100.0
23559,52.0,0,36,6.0,100.0
23560,52.0,24,36,7.0,100.0
23561,54.0,0,36,7.0,100.0
23562,90.0,0,36,4.0,100.0
23563,54.0,36,36,6.0,100.0
23564,55.0,36,94,7.0,100.0
23565,79.0,0,94,5.0,100.0
23566,55.0,0,94,6.0,100.0
23567,91.0,0,94,4.0,100.0
23568,75.0,192,94,4.0,100.0
23569,87.0,0,94,4.0,100.0
23570,51.0,0,94,7.0,100.0
23571,51.0,0,94,6.0,100.0
23572,39.0,0,94,7.0,100.0
23573,63.0,0,94,5.0,100.0
23574,39.0,0,94,6.0,100.0
23575,81.0,0,256,4.0,127.0
23576,63.0,0,256,7.0,127.0
23577,65.0,192,256,7.0,127.0
23578,93.0,0,256,4.0,127.0
23579,89.0,0,256,4.0,127.0
23580,53.0,0,256,7.0,127.0
23581,84.0,0,256,4.0,127.0
23582,60.0,0,256,7.0,127.0
23583,87.0,0,256,4.0,127.0
23584,86.0,0,256,4.0,127.0
23585,89.0,0,256,4.0,127.0
23586,58.0,0,256,7.0,127.0
23587,53.0,0,256,7.0,127.0
23588,50.0,0,256,7.0,127.0
23589,46.0,384,256,7.0,127.0
23590,82.0,0,256,4.0,127.0
23591,94.0,0,256,4.0,127.0
23592,72.0,0,286,4.0,127.0
23593,48.0,0,286,7.0,127.0
23594,51.0,0,286,7.0,127.0
23595,53.0,384,286,7.0,127.0
23596,81.0,0,286,4.0,127.0
23597,77.0,0,286,4.0,127.0
23598,75.0,0,286,4.0,127.0
23599,69.0,0,286,4.0,127.0
23600,41.0,0,286,7.0,127.0
23601,22.0,384,94,7.0,127.0
23602,34.0,96,94,7.0,127.0
23603,34.0,0,720,7.0,127.0
23604,38.0,0,720,7.0,127.0
23605,41.0,0,720,7.0,127.0
23606,46.0,0,720,7.0,127.0
23607,74.0,96,720,4.0,127.0
23608,82.0,0,720,4.0,127.0
23609,77.0,0,720,4.0,127.0
23610,70.0,0,720,4.0,127.0
