,note,step,duration,channel,velocity
0,58.0,36,648,5.0,0.0
1,46.0,0,648,5.0,0.0
2,70.0,0,48,7.0,0.0
3,63.0,0,48,7.0,0.0
4,67.0,60,48,7.0,0.0
5,39.0,0,48,10.0,0.0
6,67.0,0,48,7.0,0.0
7,63.0,0,48,7.0,0.0
8,75.0,0,48,7.0,0.0
9,58.0,60,48,10.0,0.0
10,46.0,60,48,10.0,0.0
11,55.0,0,48,10.0,0.0
12,51.0,0,48,10.0,0.0
13,75.0,0,48,7.0,0.0
14,70.0,0,48,7.0,0.0
15,67.0,0,48,7.0,0.0
16,67.0,0,48,7.0,0.0
17,70.0,0,48,7.0,0.0
18,79.0,0,48,7.0,0.0
19,39.0,60,48,10.0,0.0
20,58.0,36,48,10.0,0.0
21,79.0,24,24,7.0,0.0
22,70.0,0,48,7.0,0.0
23,75.0,6,48,7.0,0.0
24,46.0,0,48,10.0,0.0
25,55.0,0,48,10.0,0.0
26,51.0,0,48,10.0,0.0
27,82.0,30,24,7.0,0.0
28,82.0,24,24,7.0,0.0
29,39.0,0,48,10.0,0.0
30,75.0,6,48,7.0,0.0
31,79.0,0,48,7.0,0.0
32,87.0,54,24,7.0,0.0
33,75.0,0,216,7.0,0.0
34,79.0,0,216,7.0,0.0
35,82.0,0,216,7.0,0.0
36,87.0,12,216,7.0,0.0
37,58.0,60,48,10.0,0.0
38,51.0,60,48,10.0,0.0
39,55.0,0,48,10.0,0.0
40,46.0,0,48,10.0,0.0
41,39.0,48,48,10.0,0.0
42,58.0,0,48,10.0,0.0
43,87.0,24,24,7.0,0.0
44,79.0,0,48,7.0,0.0
45,82.0,0,48,7.0,0.0
46,51.0,0,48,10.0,0.0
47,55.0,6,48,10.0,0.0
48,46.0,0,48,10.0,0.0
49,91.0,54,24,7.0,0.0
50,34.0,0,48,10.0,0.0
51,58.0,0,2088,5.0,0.0
52,46.0,36,2088,5.0,0.0
53,80.0,0,48,7.0,0.0
54,82.0,0,48,7.0,0.0
55,77.0,0,48,7.0,0.0
56,89.0,60,48,7.0,0.0
57,58.0,36,48,10.0,0.0
58,80.0,6,48,7.0,0.0
59,86.0,24,24,7.0,0.0
60,82.0,0,48,7.0,0.0
61,77.0,0,48,7.0,0.0
62,50.0,0,48,10.0,0.0
63,53.0,0,48,10.0,0.0
64,46.0,0,48,10.0,0.0
65,89.0,54,24,7.0,0.0
66,82.0,60,48,7.0,0.0
67,79.0,0,48,7.0,0.0
68,39.0,0,48,10.0,0.0
69,87.0,0,48,7.0,0.0
70,58.0,36,48,10.0,0.0
71,46.0,0,48,10.0,0.0
72,55.0,6,48,10.0,0.0
73,51.0,0,48,10.0,0.0
74,79.0,24,24,7.0,0.0
75,75.0,0,48,7.0,0.0
76,82.0,18,24,7.0,0.0
77,74.0,12,276,7.0,0.0
78,77.0,0,276,7.0,0.0
79,34.0,9,48,10.0,0.0
80,82.0,15,12,7.0,0.0
81,84.0,15,12,7.0,0.0
82,82.0,6,12,7.0,0.0
83,84.0,15,12,7.0,0.0
84,82.0,15,12,7.0,0.0
85,58.0,9,48,10.0,0.0
86,84.0,15,12,7.0,0.0
87,82.0,6,12,7.0,0.0
88,84.0,27,12,7.0,0.0
89,82.0,24,24,7.0,0.0
90,53.0,6,48,10.0,0.0
91,50.0,0,48,10.0,0.0
92,46.0,0,48,10.0,0.0
93,81.0,54,24,7.0,0.0
94,82.0,0,96,7.0,0.0
95,34.0,48,48,10.0,0.0
96,58.0,60,48,10.0,0.0
97,50.0,0,48,10.0,0.0
98,70.0,60,48,7.0,0.0
99,53.0,0,48,10.0,0.0
100,46.0,0,48,10.0,0.0
101,67.0,0,48,7.0,0.0
102,70.0,0,48,7.0,0.0
103,63.0,0,48,7.0,0.0
104,39.0,60,48,10.0,0.0
105,75.0,60,48,7.0,0.0
106,58.0,0,48,10.0,0.0
107,67.0,0,48,7.0,0.0
108,63.0,0,48,7.0,0.0
109,51.0,0,48,10.0,0.0
110,67.0,0,48,7.0,0.0
111,46.0,0,48,10.0,0.0
112,55.0,0,48,10.0,0.0
113,75.0,60,48,7.0,0.0
114,70.0,0,48,7.0,0.0
115,39.0,0,48,10.0,0.0
116,79.0,0,48,7.0,0.0
117,70.0,60,48,7.0,0.0
118,67.0,0,48,7.0,0.0
119,58.0,36,48,10.0,0.0
120,79.0,24,24,7.0,0.0
121,51.0,0,48,10.0,0.0
122,46.0,6,48,10.0,0.0
123,55.0,0,48,10.0,0.0
124,75.0,0,48,7.0,0.0
125,70.0,0,48,7.0,0.0
126,82.0,30,24,7.0,0.0
127,79.0,0,48,7.0,0.0
128,75.0,0,48,7.0,0.0
129,82.0,24,24,7.0,0.0
130,39.0,6,48,10.0,0.0
131,87.0,54,24,7.0,0.0
132,58.0,60,48,10.0,0.0
133,82.0,0,216,7.0,0.0
134,79.0,0,216,7.0,0.0
135,75.0,12,216,7.0,0.0
136,87.0,0,216,7.0,0.0
137,55.0,0,48,10.0,0.0
138,46.0,0,48,10.0,0.0
139,51.0,60,48,10.0,0.0
140,39.0,48,48,10.0,0.0
141,58.0,36,48,10.0,0.0
142,79.0,0,48,7.0,0.0
143,82.0,6,48,7.0,0.0
144,46.0,0,48,10.0,0.0
145,55.0,0,48,10.0,0.0
146,51.0,0,48,10.0,0.0
147,87.0,24,24,7.0,0.0
148,91.0,54,24,7.0,0.0
149,80.0,60,48,7.0,0.0
150,34.0,0,48,10.0,0.0
151,89.0,0,48,7.0,0.0
152,82.0,0,48,7.0,0.0
153,77.0,0,48,7.0,0.0
154,58.0,36,48,10.0,0.0
155,50.0,0,48,10.0,0.0
156,53.0,6,48,10.0,0.0
157,46.0,0,48,10.0,0.0
158,77.0,0,48,7.0,0.0
159,80.0,0,48,7.0,0.0
160,82.0,0,48,7.0,0.0
161,86.0,24,24,7.0,0.0
162,89.0,54,24,7.0,0.0
163,39.0,0,48,10.0,0.0
164,79.0,60,48,7.0,0.0
165,82.0,0,48,7.0,0.0
166,87.0,0,48,7.0,0.0
167,58.0,36,48,10.0,0.0
168,79.0,24,24,7.0,0.0
169,46.0,6,48,10.0,0.0
170,51.0,0,48,10.0,0.0
171,55.0,0,48,10.0,0.0
172,75.0,0,48,7.0,0.0
173,82.0,18,24,7.0,0.0
174,46.0,9,48,10.0,0.0
175,77.0,0,276,7.0,0.0
176,74.0,0,276,7.0,0.0
177,82.0,15,12,7.0,0.0
178,84.0,15,12,7.0,0.0
179,82.0,6,12,7.0,0.0
180,84.0,15,12,7.0,0.0
181,58.0,9,48,10.0,0.0
182,82.0,15,12,7.0,0.0
183,84.0,15,12,7.0,0.0
184,82.0,6,12,7.0,0.0
185,84.0,27,12,7.0,0.0
186,50.0,6,48,10.0,0.0
187,53.0,0,48,10.0,0.0
188,82.0,24,24,7.0,0.0
189,81.0,54,24,7.0,0.0
190,82.0,12,96,7.0,0.0
191,46.0,48,48,10.0,0.0
192,65.0,0,48,10.0,0.0
193,62.0,0,48,10.0,0.0
194,64.0,6,48,10.0,0.0
195,61.0,0,48,10.0,0.0
196,70.0,0,24,7.0,0.0
197,82.0,24,24,7.0,0.0
198,81.0,54,24,7.0,0.0
199,69.0,0,24,7.0,0.0
200,81.0,0,48,7.0,0.0
201,46.0,48,48,10.0,0.0
202,69.0,0,48,7.0,0.0
203,46.0,0,96,5.0,0.0
204,58.0,12,96,5.0,0.0
205,63.0,36,48,10.0,0.0
206,60.0,0,48,10.0,0.0
207,59.0,6,48,10.0,0.0
208,80.0,0,24,7.0,0.0
209,62.0,0,48,10.0,0.0
210,68.0,24,24,7.0,0.0
211,79.0,0,24,7.0,0.0
212,67.0,54,24,7.0,0.0
213,79.0,0,48,7.0,0.0
214,67.0,0,48,7.0,0.0
215,46.0,48,48,10.0,0.0
216,46.0,12,96,5.0,0.0
217,58.0,0,96,5.0,0.0
218,58.0,36,48,10.0,0.0
219,61.0,0,48,10.0,0.0
220,57.0,0,48,10.0,0.0
221,60.0,6,48,10.0,0.0
222,78.0,24,24,7.0,0.0
223,66.0,0,24,7.0,0.0
224,65.0,0,24,7.0,0.0
225,77.0,54,24,7.0,0.0
226,46.0,0,96,5.0,0.0
227,65.0,0,48,7.0,0.0
228,77.0,48,48,7.0,0.0
229,58.0,12,96,5.0,0.0
230,46.0,0,48,10.0,0.0
231,59.0,36,48,10.0,0.0
232,56.0,0,48,10.0,0.0
233,76.0,24,24,7.0,0.0
234,64.0,0,24,7.0,0.0
235,55.0,0,48,10.0,0.0
236,58.0,6,48,10.0,0.0
237,75.0,0,24,7.0,0.0
238,63.0,54,24,7.0,0.0
239,75.0,0,48,7.0,0.0
240,46.0,48,48,10.0,0.0
241,63.0,0,48,7.0,0.0
242,58.0,0,96,5.0,0.0
243,46.0,12,96,5.0,0.0
244,57.0,36,48,10.0,0.0
245,54.0,0,48,10.0,0.0
246,75.0,0,24,7.0,0.0
247,68.0,0,48,7.0,0.0
248,53.0,0,48,10.0,0.0
249,70.0,0,48,7.0,0.0
250,63.0,24,24,7.0,0.0
251,56.0,6,48,10.0,0.0
252,62.0,54,24,7.0,0.0
253,74.0,0,24,7.0,0.0
254,34.0,48,48,10.0,0.0
255,62.0,12,96,7.0,0.0
256,58.0,0,648,5.0,0.0
257,46.0,36,648,5.0,0.0
258,68.0,0,96,7.0,0.0
259,74.0,0,96,7.0,0.0
260,70.0,0,96,7.0,0.0
261,58.0,60,48,10.0,0.0
262,62.0,0,48,7.0,0.0
263,53.0,0,48,10.0,0.0
264,50.0,0,48,10.0,0.0
265,46.0,60,48,10.0,0.0
266,68.0,0,48,7.0,0.0
267,74.0,0,48,7.0,0.0
268,70.0,0,48,7.0,0.0
269,34.0,24,48,10.0,0.0
270,74.0,0,72,7.0,0.0
271,68.0,0,72,7.0,0.0
272,70.0,36,72,7.0,0.0
273,62.0,0,72,7.0,0.0
274,58.0,6,48,10.0,0.0
275,75.0,0,24,7.0,0.0
276,70.0,0,24,7.0,0.0
277,68.0,54,24,7.0,0.0
278,63.0,0,24,7.0,0.0
279,65.0,0,48,7.0,0.0
280,53.0,0,48,10.0,0.0
281,46.0,60,48,10.0,0.0
282,68.0,0,48,7.0,0.0
283,70.0,0,48,7.0,0.0
284,77.0,0,48,7.0,0.0
285,50.0,0,48,10.0,0.0
286,68.0,0,48,7.0,0.0
287,70.0,0,48,7.0,0.0
288,65.0,60,48,7.0,0.0
289,77.0,0,48,7.0,0.0
290,39.0,0,48,10.0,0.0
291,79.0,60,48,7.0,0.0
292,67.0,0,48,7.0,0.0
293,70.0,0,48,7.0,0.0
294,58.0,0,48,10.0,0.0
295,51.0,0,48,10.0,0.0
296,46.0,60,48,10.0,0.0
297,75.0,0,48,7.0,0.0
298,67.0,0,48,7.0,0.0
299,70.0,0,48,7.0,0.0
300,55.0,0,48,10.0,0.0
301,63.0,0,48,7.0,0.0
302,67.0,12,96,7.0,0.0
303,63.0,0,96,7.0,0.0
304,70.0,0,96,7.0,0.0
305,75.0,0,96,7.0,0.0
306,39.0,48,48,10.0,0.0
307,62.0,0,48,10.0,0.0
308,65.0,0,48,10.0,0.0
309,82.0,24,24,7.0,0.0
310,61.0,6,48,10.0,0.0
311,64.0,0,48,10.0,0.0
312,70.0,0,24,7.0,0.0
313,81.0,0,24,7.0,0.0
314,69.0,54,24,7.0,0.0
315,81.0,48,48,7.0,0.0
316,69.0,0,48,7.0,0.0
317,46.0,0,48,10.0,0.0
318,46.0,0,96,5.0,0.0
319,58.0,12,96,5.0,0.0
320,63.0,36,48,10.0,0.0
321,60.0,0,48,10.0,0.0
322,68.0,24,24,7.0,0.0
323,62.0,0,48,10.0,0.0
324,80.0,0,24,7.0,0.0
325,59.0,6,48,10.0,0.0
326,79.0,54,24,7.0,0.0
327,67.0,0,24,7.0,0.0
328,39.0,0,48,10.0,0.0
329,58.0,12,96,5.0,0.0
330,46.0,0,96,5.0,0.0
331,67.0,48,48,7.0,0.0
332,79.0,0,48,7.0,0.0
333,58.0,36,48,10.0,0.0
334,61.0,0,48,10.0,0.0
335,60.0,6,48,10.0,0.0
336,66.0,0,24,7.0,0.0
337,78.0,24,24,7.0,0.0
338,57.0,0,48,10.0,0.0
339,65.0,0,24,7.0,0.0
340,77.0,54,24,7.0,0.0
341,46.0,12,96,5.0,0.0
342,58.0,0,96,5.0,0.0
343,39.0,48,48,10.0,0.0
344,65.0,0,48,7.0,0.0
345,77.0,0,48,7.0,0.0
346,59.0,0,48,10.0,0.0
347,56.0,36,48,10.0,0.0
348,55.0,0,48,10.0,0.0
349,58.0,6,48,10.0,0.0
350,76.0,24,24,7.0,0.0
351,64.0,0,24,7.0,0.0
352,63.0,54,24,7.0,0.0
353,75.0,0,24,7.0,0.0
354,53.0,0,96,10.0,0.0
355,62.0,48,48,7.0,0.0
356,46.0,0,96,5.0,0.0
357,58.0,0,96,5.0,0.0
358,56.0,48,96,10.0,0.0
359,74.0,0,48,7.0,0.0
360,46.0,0,96,10.0,0.0
361,50.0,0,96,10.0,0.0
362,50.0,0,24,12.0,0.0
363,62.0,0,24,11.0,0.0
364,49.0,0,24,12.0,0.0
365,61.0,0,24,11.0,0.0
366,49.0,0,48,12.0,0.0
367,61.0,0,48,11.0,0.0
368,48.0,0,24,12.0,0.0
369,60.0,0,24,11.0,0.0
370,47.0,0,24,12.0,0.0
371,59.0,0,24,11.0,0.0
372,47.0,0,48,12.0,0.0
373,59.0,0,48,11.0,0.0
374,58.0,0,24,11.0,0.0
375,46.0,30,24,12.0,0.0
376,45.0,54,24,12.0,0.0
377,57.0,0,24,11.0,0.0
378,57.0,0,48,11.0,0.0
379,45.0,0,48,12.0,0.0
380,44.0,0,24,12.0,0.0
381,56.0,0,24,11.0,0.0
382,55.0,0,24,11.0,0.0
383,43.0,54,24,12.0,0.0
384,55.0,0,48,11.0,0.0
385,43.0,96,48,12.0,0.0
386,70.0,6,48,3.0,0.0
387,53.0,0,24,11.0,0.0
388,58.0,0,24,11.0,0.0
389,58.0,0,48,3.0,0.0
390,58.0,0,48,4.0,0.0
391,70.0,0,48,1.0,0.0
392,58.0,0,48,5.0,0.0
393,70.0,0,48,5.0,0.0
394,82.0,0,48,1.0,0.0
395,53.0,0,24,13.0,0.0
396,41.0,24,24,12.0,0.0
397,70.0,0,24,11.0,0.0
398,70.0,0,48,0.0,0.0
399,46.0,0,48,4.0,0.0
400,51.0,0,24,11.0,0.0
401,39.0,0,24,12.0,0.0
402,58.0,0,24,11.0,0.0
403,51.0,0,24,13.0,0.0
404,70.0,0,18,11.0,0.0
405,46.0,0,48,4.0,0.0
406,39.0,0,48,12.0,0.0
407,79.0,0,48,1.0,0.0
408,75.0,60,48,1.0,0.0
409,51.0,0,48,8.0,0.0
410,58.0,0,48,4.0,0.0
411,70.0,0,48,11.0,0.0
412,55.0,0,144,11.0,0.0
413,51.0,0,144,11.0,0.0
414,58.0,0,144,11.0,0.0
415,51.0,0,48,13.0,0.0
416,51.0,0,48,6.0,0.0
417,70.0,0,48,3.0,0.0
418,58.0,0,48,3.0,0.0
419,70.0,0,48,0.0,0.0
420,67.0,0,108,5.0,0.0
421,63.0,0,108,5.0,0.0
422,63.0,0,48,6.0,0.0
423,75.0,0,48,0.0,0.0
424,51.0,0,48,13.0,0.0
425,75.0,0,48,11.0,0.0
426,51.0,0,48,6.0,0.0
427,63.0,0,48,4.0,0.0
428,51.0,0,48,4.0,0.0
429,75.0,0,48,3.0,0.0
430,63.0,0,48,3.0,0.0
431,75.0,0,48,1.0,0.0
432,79.0,0,48,1.0,0.0
433,63.0,36,48,6.0,0.0
434,39.0,0,48,12.0,0.0
435,75.0,0,48,0.0,0.0
436,51.0,0,48,13.0,0.0
437,51.0,0,48,8.0,0.0
438,39.0,0,48,12.0,0.0
439,67.0,0,156,5.0,0.0
440,63.0,0,156,6.0,0.0
441,51.0,0,156,6.0,0.0
442,63.0,0,48,4.0,0.0
443,51.0,0,48,4.0,0.0
444,75.0,0,48,1.0,0.0
445,63.0,0,156,5.0,0.0
446,79.0,0,48,1.0,0.0
447,63.0,0,48,3.0,0.0
448,75.0,0,48,3.0,0.0
449,75.0,60,48,11.0,0.0
450,79.0,0,48,0.0,0.0
451,79.0,0,112,1.0,0.0
452,75.0,32,112,1.0,0.0
453,58.0,0,144,11.0,0.0
454,70.0,0,144,11.0,0.0
455,67.0,0,48,3.0,0.0
456,51.0,0,96,13.0,0.0
457,79.0,0,48,3.0,0.0
458,67.0,0,48,4.0,0.0
459,55.0,0,144,11.0,0.0
460,51.0,0,144,11.0,0.0
461,55.0,0,48,4.0,0.0
462,39.0,16,96,12.0,0.0
463,79.0,48,48,11.0,0.0
464,51.0,0,48,8.0,0.0
465,79.0,0,24,11.0,0.0
466,79.0,0,24,3.0,0.0
467,67.0,0,24,3.0,0.0
468,63.0,24,24,6.0,0.0
469,39.0,0,48,12.0,0.0
470,75.0,6,48,1.0,0.0
471,79.0,0,24,0.0,0.0
472,67.0,0,24,0.0,0.0
473,51.0,0,24,6.0,0.0
474,63.0,0,48,5.0,0.0
475,51.0,0,48,13.0,0.0
476,67.0,0,48,5.0,0.0
477,51.0,0,24,4.0,0.0
478,55.0,0,24,4.0,0.0
479,79.0,0,48,1.0,0.0
480,63.0,30,24,6.0,0.0
481,82.0,0,24,11.0,0.0
482,70.0,0,24,3.0,0.0
483,82.0,0,24,0.0,0.0
484,70.0,0,24,0.0,0.0
485,58.0,0,24,4.0,0.0
486,55.0,0,24,4.0,0.0
487,82.0,0,24,3.0,0.0
488,51.0,0,24,6.0,0.0
489,79.0,0,48,1.0,0.0
490,70.0,24,24,3.0,0.0
491,51.0,6,48,6.0,0.0
492,70.0,0,24,0.0,0.0
493,39.0,0,48,12.0,0.0
494,82.0,0,24,0.0,0.0
495,58.0,0,24,11.0,0.0
496,70.0,0,24,11.0,0.0
497,58.0,0,24,4.0,0.0
498,67.0,0,48,5.0,0.0
499,55.0,0,48,4.0,0.0
500,51.0,0,48,13.0,0.0
501,63.0,0,48,6.0,0.0
502,63.0,0,48,5.0,0.0
503,58.0,0,24,3.0,0.0
504,51.0,0,48,8.0,0.0
505,75.0,0,48,1.0,0.0
506,55.0,0,24,11.0,0.0
507,51.0,0,24,11.0,0.0
508,82.0,0,24,11.0,0.0
509,63.0,0,24,3.0,0.0
510,75.0,30,24,3.0,0.0
511,58.0,0,24,11.0,0.0
512,70.0,0,24,11.0,0.0
513,87.0,0,24,11.0,0.0
514,55.0,0,24,11.0,0.0
515,51.0,0,24,11.0,0.0
516,87.0,0,24,0.0,0.0
517,75.0,0,24,0.0,0.0
518,63.0,0,24,4.0,0.0
519,63.0,0,216,6.0,0.0
520,51.0,0,216,6.0,0.0
521,63.0,0,216,3.0,0.0
522,70.0,0,24,11.0,0.0
523,55.0,0,216,4.0,0.0
524,75.0,0,216,0.0,0.0
525,51.0,30,24,11.0,0.0
526,55.0,0,24,11.0,0.0
527,87.0,0,216,11.0,0.0
528,87.0,0,216,0.0,0.0
529,58.0,0,24,11.0,0.0
530,51.0,0,24,8.0,0.0
531,79.0,0,216,1.0,0.0
532,75.0,0,216,1.0,0.0
533,75.0,0,216,3.0,0.0
534,67.0,0,216,5.0,0.0
535,63.0,48,216,5.0,0.0
536,51.0,0,216,13.0,0.0
537,63.0,0,216,4.0,0.0
538,39.0,0,216,12.0,0.0
539,70.0,0,24,11.0,0.0
540,58.0,0,24,11.0,0.0
541,55.0,0,24,11.0,0.0
542,51.0,0,24,11.0,0.0
543,51.0,30,24,8.0,0.0
544,55.0,0,24,11.0,0.0
545,51.0,0,24,11.0,0.0
546,51.0,30,24,8.0,0.0
547,70.0,0,24,11.0,0.0
548,58.0,0,24,11.0,0.0
549,51.0,0,24,11.0,0.0
550,51.0,0,24,8.0,0.0
551,58.0,102,24,11.0,0.0
552,70.0,0,24,11.0,0.0
553,55.0,0,24,11.0,0.0
554,58.0,0,144,11.0,0.0
555,70.0,0,144,11.0,0.0
556,55.0,0,144,11.0,0.0
557,51.0,0,144,11.0,0.0
558,51.0,0,96,8.0,0.0
559,51.0,0,48,12.0,0.0
560,63.0,0,24,4.0,0.0
561,51.0,0,48,4.0,0.0
562,51.0,0,48,6.0,0.0
563,63.0,0,48,6.0,0.0
564,87.0,24,24,11.0,0.0
565,51.0,0,48,8.0,0.0
566,79.0,6,48,1.0,0.0
567,75.0,0,48,1.0,0.0
568,75.0,0,24,3.0,0.0
569,63.0,0,24,3.0,0.0
570,63.0,0,48,5.0,0.0
571,51.0,0,48,13.0,0.0
572,87.0,0,24,0.0,0.0
573,75.0,0,24,0.0,0.0
574,67.0,0,48,5.0,0.0
575,91.0,0,24,0.0,0.0
576,79.0,0,24,0.0,0.0
577,79.0,0,24,3.0,0.0
578,91.0,0,24,11.0,0.0
579,67.0,0,24,4.0,0.0
580,67.0,54,24,3.0,0.0
581,77.0,0,48,1.0,0.0
582,46.0,48,48,8.0,0.0
583,80.0,0,48,1.0,0.0
584,89.0,0,48,0.0,0.0
585,65.0,0,48,3.0,0.0
586,77.0,0,48,3.0,0.0
587,50.0,0,48,13.0,0.0
588,53.0,24,144,11.0,0.0
589,56.0,0,144,11.0,0.0
590,68.0,0,144,11.0,0.0
591,58.0,0,144,11.0,0.0
592,89.0,0,48,11.0,0.0
593,65.0,48,96,5.0,0.0
594,58.0,0,96,5.0,0.0
595,50.0,0,48,4.0,0.0
596,65.0,0,48,4.0,0.0
597,77.0,0,48,0.0,0.0
598,46.0,0,48,6.0,0.0
599,58.0,0,48,6.0,0.0
600,50.0,0,48,12.0,0.0
601,65.0,0,48,5.0,0.0
602,80.0,0,48,1.0,0.0
603,86.0,0,24,11.0,0.0
604,46.0,0,48,13.0,0.0
605,62.0,0,24,3.0,0.0
606,77.0,0,48,1.0,0.0
607,74.0,0,24,3.0,0.0
608,58.0,0,48,5.0,0.0
609,46.0,6,48,4.0,0.0
610,46.0,0,48,8.0,0.0
611,46.0,0,48,6.0,0.0
612,62.0,0,24,4.0,0.0
613,58.0,0,48,6.0,0.0
614,74.0,0,24,0.0,0.0
615,86.0,0,24,0.0,0.0
616,46.0,0,48,12.0,0.0
617,77.0,0,24,3.0,0.0
618,65.0,0,24,3.0,0.0
619,89.0,0,24,0.0,0.0
620,65.0,0,24,4.0,0.0
621,77.0,0,24,0.0,0.0
622,89.0,54,24,11.0,0.0
623,87.0,48,48,11.0,0.0
624,51.0,0,48,13.0,0.0
625,51.0,0,48,8.0,0.0
626,58.0,0,144,11.0,0.0
627,87.0,0,48,0.0,0.0
628,75.0,0,48,0.0,0.0
629,51.0,0,48,12.0,0.0
630,63.0,0,48,3.0,0.0
631,75.0,0,48,3.0,0.0
632,51.0,0,48,4.0,0.0
633,67.0,0,144,11.0,0.0
634,51.0,24,144,11.0,0.0
635,63.0,0,48,4.0,0.0
636,79.0,0,48,1.0,0.0
637,63.0,0,48,6.0,0.0
638,55.0,48,96,5.0,0.0
639,63.0,0,96,5.0,0.0
640,55.0,0,144,11.0,0.0
641,75.0,0,48,1.0,0.0
642,51.0,0,48,6.0,0.0
643,70.0,0,48,0.0,0.0
644,82.0,0,48,11.0,0.0
645,55.0,0,48,12.0,0.0
646,67.0,24,48,5.0,0.0
647,51.0,0,48,8.0,0.0
648,63.0,0,48,6.0,0.0
649,79.0,0,48,1.0,0.0
650,75.0,0,48,1.0,0.0
651,51.0,0,48,6.0,0.0
652,70.0,0,48,3.0,0.0
653,58.0,0,48,3.0,0.0
654,58.0,0,48,4.0,0.0
655,55.0,0,48,4.0,0.0
656,82.0,0,48,0.0,0.0
657,63.0,0,48,5.0,0.0
658,55.0,0,48,13.0,0.0
659,50.0,0,144,11.0,0.0
660,53.0,0,144,11.0,0.0
661,70.0,0,12,0.0,0.0
662,65.0,24,144,5.0,0.0
663,58.0,9,48,13.0,0.0
664,58.0,0,144,5.0,0.0
665,46.0,0,144,6.0,0.0
666,65.0,0,144,11.0,0.0
667,58.0,0,144,11.0,0.0
668,62.0,0,48,3.0,0.0
669,58.0,0,48,12.0,0.0
670,46.0,0,12,8.0,0.0
671,58.0,0,144,6.0,0.0
672,58.0,15,12,4.0,0.0
673,70.0,0,12,3.0,0.0
674,82.0,0,12,0.0,0.0
675,82.0,0,12,11.0,0.0
676,74.0,0,144,1.0,0.0
677,77.0,0,144,1.0,0.0
678,46.0,0,12,8.0,0.0
679,84.0,0,12,0.0,0.0
680,60.0,15,12,4.0,0.0
681,72.0,0,12,0.0,0.0
682,72.0,0,12,3.0,0.0
683,84.0,0,12,11.0,0.0
684,82.0,0,12,0.0,0.0
685,82.0,0,12,11.0,0.0
686,58.0,6,12,4.0,0.0
687,46.0,0,12,8.0,0.0
688,70.0,0,12,0.0,0.0
689,70.0,0,12,3.0,0.0
690,72.0,0,12,0.0,0.0
691,84.0,0,12,0.0,0.0
692,84.0,15,12,11.0,0.0
693,46.0,0,12,8.0,0.0
694,72.0,0,12,3.0,0.0
695,60.0,0,12,4.0,0.0
696,82.0,0,12,11.0,0.0
697,82.0,0,12,0.0,0.0
698,46.0,0,48,4.0,0.0
699,58.0,0,12,4.0,0.0
700,70.0,0,12,0.0,0.0
701,46.0,15,12,8.0,0.0
702,46.0,9,48,13.0,0.0
703,65.0,0,48,3.0,0.0
704,46.0,0,48,12.0,0.0
705,70.0,0,12,3.0,0.0
706,84.0,0,12,0.0,0.0
707,46.0,0,12,8.0,0.0
708,72.0,15,12,3.0,0.0
709,60.0,0,12,4.0,0.0
710,72.0,0,12,0.0,0.0
711,84.0,0,12,11.0,0.0
712,58.0,6,12,4.0,0.0
713,82.0,0,12,11.0,0.0
714,70.0,0,12,0.0,0.0
715,46.0,0,12,8.0,0.0
716,82.0,0,12,0.0,0.0
717,70.0,0,12,3.0,0.0
718,72.0,0,12,0.0,0.0
719,84.0,0,12,0.0,0.0
720,60.0,0,12,4.0,0.0
721,72.0,0,12,3.0,0.0
722,46.0,0,12,8.0,0.0
723,84.0,27,12,11.0,0.0
724,82.0,0,24,0.0,0.0
725,70.0,0,24,0.0,0.0
726,46.0,0,48,4.0,0.0
727,46.0,0,48,8.0,0.0
728,58.0,0,24,4.0,0.0
729,82.0,0,24,11.0,0.0
730,70.0,0,24,3.0,0.0
731,62.0,0,48,3.0,0.0
732,46.0,0,48,13.0,0.0
733,46.0,6,48,12.0,0.0
734,81.0,0,24,11.0,0.0
735,69.0,0,24,3.0,0.0
736,57.0,30,24,4.0,0.0
737,81.0,0,24,0.0,0.0
738,69.0,0,24,0.0,0.0
739,46.0,0,48,6.0,0.0
740,58.0,0,48,6.0,0.0
741,50.0,24,24,11.0,0.0
742,70.0,0,48,3.0,0.0
743,58.0,0,48,3.0,0.0
744,74.0,0,48,1.0,0.0
745,77.0,0,48,1.0,0.0
746,46.0,0,48,4.0,0.0
747,58.0,0,48,4.0,0.0
748,58.0,0,48,5.0,0.0
749,82.0,0,48,11.0,0.0
750,53.0,0,24,11.0,0.0
751,58.0,0,24,11.0,0.0
752,46.0,6,48,13.0,0.0
753,70.0,0,48,0.0,0.0
754,46.0,0,48,12.0,0.0
755,65.0,0,24,11.0,0.0
756,65.0,0,48,5.0,0.0
757,82.0,0,48,0.0,0.0
758,53.0,0,24,11.0,0.0
759,50.0,0,24,11.0,0.0
760,58.0,0,24,11.0,0.0
761,65.0,30,24,11.0,0.0
762,46.0,0,24,12.0,0.0
763,65.0,0,24,11.0,0.0
764,46.0,0,24,13.0,0.0
765,58.0,0,24,11.0,0.0
766,65.0,0,24,11.0,0.0
767,56.0,0,24,13.0,0.0
768,58.0,30,24,11.0,0.0
769,56.0,0,24,11.0,0.0
770,44.0,0,24,12.0,0.0
771,79.0,0,48,1.0,0.0
772,46.0,0,48,4.0,0.0
773,43.0,24,24,12.0,0.0
774,70.0,0,48,0.0,0.0
775,58.0,0,24,11.0,0.0
776,70.0,0,48,3.0,0.0
777,58.0,6,48,3.0,0.0
778,55.0,0,24,13.0,0.0
779,67.0,0,24,11.0,0.0
780,70.0,0,48,5.0,0.0
781,70.0,0,48,11.0,0.0
782,58.0,0,48,5.0,0.0
783,75.0,0,48,1.0,0.0
784,58.0,0,48,4.0,0.0
785,55.0,0,24,11.0,0.0
786,58.0,0,24,11.0,0.0
787,67.0,54,24,11.0,0.0
788,41.0,0,24,12.0,0.0
789,53.0,0,24,11.0,0.0
790,53.0,0,24,13.0,0.0
791,67.0,0,108,5.0,0.0
792,51.0,0,48,13.0,0.0
793,51.0,0,48,8.0,0.0
794,51.0,0,144,11.0,0.0
795,55.0,0,144,11.0,0.0
796,63.0,36,108,6.0,0.0
797,51.0,0,108,6.0,0.0
798,67.0,0,144,11.0,0.0
799,63.0,0,108,5.0,0.0
800,58.0,24,144,11.0,0.0
801,70.0,0,48,3.0,0.0
802,58.0,0,48,3.0,0.0
803,46.0,0,48,4.0,0.0
804,58.0,0,48,4.0,0.0
805,75.0,0,48,1.0,0.0
806,39.0,0,48,12.0,0.0
807,79.0,0,48,1.0,0.0
808,70.0,0,48,11.0,0.0
809,70.0,60,48,0.0,0.0
810,63.0,0,48,3.0,0.0
811,39.0,0,48,12.0,0.0
812,75.0,0,48,1.0,0.0
813,63.0,0,48,4.0,0.0
814,51.0,0,48,4.0,0.0
815,75.0,0,48,3.0,0.0
816,79.0,0,48,1.0,0.0
817,75.0,0,48,11.0,0.0
818,51.0,0,48,13.0,0.0
819,75.0,0,48,0.0,0.0
820,79.0,0,48,1.0,0.0
821,51.0,0,48,8.0,0.0
822,63.0,0,156,6.0,0.0
823,51.0,0,156,6.0,0.0
824,51.0,0,48,13.0,0.0
825,75.0,0,48,0.0,0.0
826,75.0,60,48,1.0,0.0
827,39.0,0,48,12.0,0.0
828,75.0,0,48,11.0,0.0
829,75.0,0,48,3.0,0.0
830,63.0,0,48,3.0,0.0
831,67.0,16,156,5.0,0.0
832,51.0,0,48,4.0,0.0
833,63.0,0,48,4.0,0.0
834,63.0,0,156,5.0,0.0
835,58.0,24,144,11.0,0.0
836,39.0,0,96,12.0,0.0
837,79.0,0,112,1.0,0.0
838,67.0,48,48,4.0,0.0
839,51.0,0,96,13.0,0.0
840,55.0,0,48,4.0,0.0
841,67.0,0,144,11.0,0.0
842,67.0,0,48,3.0,0.0
843,79.0,0,48,3.0,0.0
844,79.0,0,48,11.0,0.0
845,51.0,0,144,11.0,0.0
846,55.0,0,144,11.0,0.0
847,75.0,32,112,1.0,0.0
848,79.0,0,48,0.0,0.0
849,79.0,0,24,3.0,0.0
850,67.0,0,24,3.0,0.0
851,67.0,0,24,0.0,0.0
852,51.0,0,48,8.0,0.0
853,79.0,6,48,1.0,0.0
854,63.0,0,48,5.0,0.0
855,67.0,0,48,5.0,0.0
856,79.0,0,24,11.0,0.0
857,51.0,0,48,13.0,0.0
858,79.0,0,24,0.0,0.0
859,75.0,0,48,1.0,0.0
860,63.0,0,24,6.0,0.0
861,51.0,0,24,6.0,0.0
862,55.0,0,24,4.0,0.0
863,51.0,0,24,4.0,0.0
864,39.0,0,48,12.0,0.0
865,82.0,0,24,3.0,0.0
866,70.0,0,24,0.0,0.0
867,82.0,0,24,0.0,0.0
868,82.0,0,24,11.0,0.0
869,51.0,0,24,6.0,0.0
870,63.0,30,24,6.0,0.0
871,70.0,0,24,3.0,0.0
872,58.0,0,24,4.0,0.0
873,55.0,0,24,4.0,0.0
874,39.0,0,48,12.0,0.0
875,58.0,0,24,4.0,0.0
876,70.0,24,24,3.0,0.0
877,58.0,0,24,3.0,0.0
878,55.0,0,48,4.0,0.0
879,55.0,0,24,11.0,0.0
880,51.0,0,24,11.0,0.0
881,63.0,0,48,6.0,0.0
882,67.0,0,24,11.0,0.0
883,51.0,0,48,6.0,0.0
884,70.0,0,24,0.0,0.0
885,67.0,0,48,5.0,0.0
886,75.0,0,48,1.0,0.0
887,51.0,0,48,13.0,0.0
888,82.0,0,24,11.0,0.0
889,58.0,0,24,11.0,0.0
890,63.0,0,48,5.0,0.0
891,51.0,0,48,8.0,0.0
892,82.0,0,24,0.0,0.0
893,79.0,6,48,1.0,0.0
894,87.0,0,24,11.0,0.0
895,51.0,0,24,11.0,0.0
896,55.0,0,24,11.0,0.0
897,63.0,0,246,4.0,0.0
898,58.0,0,24,11.0,0.0
899,63.0,0,24,3.0,0.0
900,75.0,30,24,0.0,0.0
901,87.0,0,24,0.0,0.0
902,75.0,0,24,3.0,0.0
903,67.0,0,24,11.0,0.0
904,63.0,0,216,3.0,0.0
905,75.0,0,216,3.0,0.0
906,55.0,0,216,4.0,0.0
907,87.0,0,216,11.0,0.0
908,51.0,48,216,13.0,0.0
909,55.0,0,24,11.0,0.0
910,39.0,0,216,12.0,0.0
911,58.0,0,24,11.0,0.0
912,67.0,0,24,11.0,0.0
913,67.0,0,216,5.0,0.0
914,63.0,0,216,5.0,0.0
915,87.0,0,216,0.0,0.0
916,75.0,0,216,0.0,0.0
917,51.0,0,24,11.0,0.0
918,79.0,0,216,1.0,0.0
919,51.0,30,24,8.0,0.0
920,63.0,0,216,6.0,0.0
921,51.0,0,216,6.0,0.0
922,75.0,0,216,1.0,0.0
923,67.0,0,24,11.0,0.0
924,55.0,0,24,11.0,0.0
925,51.0,0,24,8.0,0.0
926,51.0,0,24,11.0,0.0
927,58.0,30,24,11.0,0.0
928,58.0,0,24,11.0,0.0
929,67.0,0,24,11.0,0.0
930,51.0,30,24,8.0,0.0
931,55.0,0,24,11.0,0.0
932,51.0,0,24,11.0,0.0
933,51.0,0,24,8.0,0.0
934,55.0,0,24,11.0,0.0
935,51.0,102,24,11.0,0.0
936,58.0,0,24,11.0,0.0
937,67.0,0,24,11.0,0.0
938,58.0,0,144,11.0,0.0
939,67.0,0,144,11.0,0.0
940,51.0,0,96,8.0,0.0
941,51.0,0,144,11.0,0.0
942,55.0,0,144,11.0,0.0
943,51.0,0,48,6.0,0.0
944,51.0,0,48,13.0,0.0
945,51.0,0,48,12.0,0.0
946,75.0,0,24,3.0,0.0
947,51.0,0,48,4.0,0.0
948,63.0,0,24,3.0,0.0
949,63.0,24,24,4.0,0.0
950,51.0,6,48,8.0,0.0
951,87.0,0,24,0.0,0.0
952,63.0,0,48,6.0,0.0
953,75.0,0,24,0.0,0.0
954,87.0,0,24,11.0,0.0
955,75.0,0,48,1.0,0.0
956,79.0,0,48,1.0,0.0
957,67.0,0,48,5.0,0.0
958,63.0,0,48,5.0,0.0
959,91.0,0,24,11.0,0.0
960,79.0,0,24,3.0,0.0
961,67.0,0,24,4.0,0.0
962,79.0,54,24,0.0,0.0
963,91.0,0,24,0.0,0.0
964,67.0,0,24,3.0,0.0
965,58.0,0,96,5.0,0.0
966,65.0,0,96,5.0,0.0
967,77.0,0,48,0.0,0.0
968,89.0,0,48,0.0,0.0
969,77.0,0,48,1.0,0.0
970,50.0,48,48,13.0,0.0
971,65.0,0,48,3.0,0.0
972,50.0,48,96,11.0,0.0
973,53.0,0,96,11.0,0.0
974,65.0,0,48,4.0,0.0
975,68.0,0,144,11.0,0.0
976,80.0,0,48,1.0,0.0
977,46.0,0,48,6.0,0.0
978,50.0,0,48,12.0,0.0
979,89.0,0,48,11.0,0.0
980,77.0,0,48,3.0,0.0
981,58.0,0,48,6.0,0.0
982,46.0,0,48,8.0,0.0
983,58.0,0,144,11.0,0.0
984,50.0,0,48,4.0,0.0
985,53.0,0,24,11.0,0.0
986,56.0,0,24,11.0,0.0
987,46.0,0,48,13.0,0.0
988,58.0,0,48,5.0,0.0
989,46.0,0,48,8.0,0.0
990,86.0,0,24,11.0,0.0
991,46.0,0,48,12.0,0.0
992,46.0,0,48,6.0,0.0
993,77.0,0,48,1.0,0.0
994,65.0,0,48,5.0,0.0
995,86.0,0,24,0.0,0.0
996,62.0,0,24,3.0,0.0
997,74.0,0,24,3.0,0.0
998,62.0,0,24,4.0,0.0
999,58.0,0,48,6.0,0.0
1000,46.0,6,48,4.0,0.0
1001,74.0,24,24,0.0,0.0
1002,80.0,0,48,1.0,0.0
1003,65.0,0,24,3.0,0.0
1004,77.0,0,24,3.0,0.0
1005,56.0,0,24,11.0,0.0
1006,89.0,0,24,11.0,0.0
1007,65.0,0,24,4.0,0.0
1008,77.0,54,24,0.0,0.0
1009,89.0,0,24,0.0,0.0
1010,53.0,0,24,11.0,0.0
1011,75.0,0,48,0.0,0.0
1012,51.0,0,48,13.0,0.0
1013,51.0,0,48,6.0,0.0
1014,63.0,0,48,6.0,0.0
1015,55.0,0,144,11.0,0.0
1016,51.0,0,144,11.0,0.0
1017,63.0,0,48,4.0,0.0
1018,67.0,0,144,11.0,0.0
1019,58.0,24,144,11.0,0.0
1020,51.0,0,48,4.0,0.0
1021,51.0,0,48,12.0,0.0
1022,51.0,0,48,8.0,0.0
1023,55.0,48,96,5.0,0.0
1024,63.0,0,96,5.0,0.0
1025,87.0,0,48,0.0,0.0
1026,87.0,0,48,11.0,0.0
1027,75.0,0,48,1.0,0.0
1028,75.0,48,48,3.0,0.0
1029,79.0,0,48,1.0,0.0
1030,63.0,0,48,3.0,0.0
1031,63.0,0,48,5.0,0.0
1032,55.0,0,48,12.0,0.0
1033,58.0,0,48,4.0,0.0
1034,58.0,0,48,3.0,0.0
1035,70.0,0,48,3.0,0.0
1036,79.0,0,48,1.0,0.0
1037,75.0,0,48,1.0,0.0
1038,55.0,0,48,13.0,0.0
1039,63.0,0,48,6.0,0.0
1040,82.0,24,48,11.0,0.0
1041,51.0,0,48,8.0,0.0
1042,82.0,0,48,0.0,0.0
1043,70.0,0,48,0.0,0.0
1044,51.0,0,48,6.0,0.0
1045,67.0,0,48,5.0,0.0
1046,55.0,0,48,4.0,0.0
1047,70.0,0,12,0.0,0.0
1048,82.0,0,12,0.0,0.0
1049,62.0,0,48,3.0,0.0
1050,70.0,0,12,3.0,0.0
1051,58.0,0,144,6.0,0.0
1052,82.0,0,12,11.0,0.0
1053,53.0,0,144,11.0,0.0
1054,77.0,0,144,1.0,0.0
1055,74.0,0,144,1.0,0.0
1056,58.0,0,48,13.0,0.0
1057,50.0,0,144,11.0,0.0
1058,46.0,0,144,6.0,0.0
1059,58.0,0,144,5.0,0.0
1060,46.0,3,24,8.0,0.0
1061,58.0,0,144,11.0,0.0
1062,65.0,0,144,11.0,0.0
1063,58.0,6,48,12.0,0.0
1064,58.0,12,12,4.0,0.0
1065,65.0,0,144,5.0,0.0
1066,72.0,0,12,0.0,0.0
1067,84.0,0,12,0.0,0.0
1068,60.0,15,12,4.0,0.0
1069,84.0,0,12,11.0,0.0
1070,72.0,0,12,3.0,0.0
1071,46.0,3,24,8.0,0.0
1072,70.0,0,12,3.0,0.0
1073,82.0,0,12,11.0,0.0
1074,58.0,0,12,4.0,0.0
1075,70.0,6,12,0.0,0.0
1076,82.0,0,12,0.0,0.0
1077,72.0,0,12,0.0,0.0
1078,60.0,0,12,4.0,0.0
1079,84.0,0,12,0.0,0.0
1080,72.0,15,12,3.0,0.0
1081,84.0,0,12,11.0,0.0
1082,46.0,0,48,4.0,0.0
1083,58.0,0,12,4.0,0.0
1084,46.0,3,24,8.0,0.0
1085,46.0,0,48,12.0,0.0
1086,65.0,0,48,3.0,0.0
1087,82.0,0,12,0.0,0.0
1088,70.0,0,12,0.0,0.0
1089,46.0,6,48,13.0,0.0
1090,82.0,12,12,11.0,0.0
1091,70.0,0,12,3.0,0.0
1092,72.0,15,12,0.0,0.0
1093,72.0,0,12,3.0,0.0
1094,84.0,0,12,0.0,0.0
1095,84.0,0,12,11.0,0.0
1096,60.0,0,12,4.0,0.0
1097,82.0,0,12,11.0,0.0
1098,82.0,0,12,0.0,0.0
1099,70.0,6,12,0.0,0.0
1100,58.0,0,12,4.0,0.0
1101,70.0,0,12,3.0,0.0
1102,46.0,3,24,8.0,0.0
1103,72.0,0,12,3.0,0.0
1104,60.0,0,12,4.0,0.0
1105,84.0,0,12,0.0,0.0
1106,84.0,27,12,11.0,0.0
1107,72.0,0,12,0.0,0.0
1108,46.0,0,48,4.0,0.0
1109,46.0,0,24,8.0,0.0
1110,70.0,0,24,3.0,0.0
1111,62.0,6,48,3.0,0.0
1112,70.0,24,24,0.0,0.0
1113,46.0,0,48,12.0,0.0
1114,46.0,0,48,13.0,0.0
1115,82.0,0,24,11.0,0.0
1116,82.0,0,24,0.0,0.0
1117,58.0,0,24,4.0,0.0
1118,81.0,0,24,11.0,0.0
1119,81.0,0,24,0.0,0.0
1120,57.0,30,24,4.0,0.0
1121,69.0,0,24,0.0,0.0
1122,69.0,0,24,3.0,0.0
1123,46.0,0,24,8.0,0.0
1124,77.0,6,48,1.0,0.0
1125,65.0,0,24,11.0,0.0
1126,58.0,24,24,11.0,0.0
1127,46.0,0,96,8.0,0.0
1128,82.0,0,48,11.0,0.0
1129,58.0,0,48,3.0,0.0
1130,46.0,0,48,13.0,0.0
1131,46.0,0,48,12.0,0.0
1132,65.0,0,96,5.0,0.0
1133,74.0,0,48,1.0,0.0
1134,58.0,0,96,5.0,0.0
1135,46.0,0,48,4.0,0.0
1136,70.0,0,48,3.0,0.0
1137,53.0,0,24,11.0,0.0
1138,46.0,0,96,6.0,0.0
1139,82.0,0,48,0.0,0.0
1140,70.0,0,48,0.0,0.0
1141,58.0,0,48,4.0,0.0
1142,58.0,12,96,6.0,0.0
1143,50.0,0,24,11.0,0.0
1144,50.0,30,24,11.0,0.0
1145,53.0,0,24,11.0,0.0
1146,65.0,0,24,11.0,0.0
1147,58.0,0,24,11.0,0.0
1148,62.0,0,24,11.0,0.0
1149,46.0,0,48,13.0,0.0
1150,46.0,6,48,12.0,0.0
1151,65.0,12,24,11.0,0.0
1152,46.0,0,48,4.0,0.0
1153,65.0,0,24,11.0,0.0
1154,62.0,30,24,11.0,0.0
1155,46.0,6,48,4.0,0.0
1156,82.0,0,24,3.0,0.0
1157,70.0,24,24,3.0,0.0
1158,82.0,0,24,11.0,0.0
1159,61.0,0,24,11.0,0.0
1160,70.0,0,696,1.0,0.0
1161,64.0,0,24,11.0,0.0
1162,46.0,0,48,12.0,0.0
1163,82.0,18,696,1.0,0.0
1164,46.0,0,48,13.0,0.0
1165,80.0,0,24,11.0,0.0
1166,69.0,0,24,3.0,0.0
1167,81.0,0,24,3.0,0.0
1168,61.0,30,24,11.0,0.0
1169,64.0,0,24,11.0,0.0
1170,46.0,0,96,6.0,0.0
1171,81.0,6,48,11.0,0.0
1172,63.0,0,24,11.0,0.0
1173,46.0,0,96,13.0,0.0
1174,46.0,0,96,12.0,0.0
1175,55.0,0,96,5.0,0.0
1176,46.0,0,96,5.0,0.0
1177,46.0,0,96,4.0,0.0
1178,58.0,18,96,6.0,0.0
1179,60.0,24,24,11.0,0.0
1180,69.0,0,48,3.0,0.0
1181,46.0,0,96,8.0,0.0
1182,81.0,0,48,3.0,0.0
1183,63.0,30,24,11.0,0.0
1184,60.0,0,24,11.0,0.0
1185,63.0,0,24,11.0,0.0
1186,60.0,12,24,11.0,0.0
1187,63.0,30,24,11.0,0.0
1188,60.0,0,24,11.0,0.0
1189,68.0,0,24,3.0,0.0
1190,80.0,0,24,3.0,0.0
1191,80.0,30,24,11.0,0.0
1192,62.0,0,24,11.0,0.0
1193,59.0,0,24,11.0,0.0
1194,79.0,0,24,3.0,0.0
1195,67.0,0,24,3.0,0.0
1196,62.0,0,24,11.0,0.0
1197,79.0,0,24,11.0,0.0
1198,59.0,30,24,11.0,0.0
1199,46.0,0,96,4.0,0.0
1200,79.0,0,48,11.0,0.0
1201,58.0,0,96,6.0,0.0
1202,46.0,0,96,6.0,0.0
1203,58.0,24,24,11.0,0.0
1204,79.0,6,48,3.0,0.0
1205,46.0,0,96,8.0,0.0
1206,46.0,18,96,13.0,0.0
1207,67.0,0,48,3.0,0.0
1208,55.0,0,96,5.0,0.0
1209,46.0,0,96,5.0,0.0
1210,61.0,0,24,11.0,0.0
1211,46.0,0,96,12.0,0.0
1212,58.0,30,24,11.0,0.0
1213,61.0,0,24,11.0,0.0
1214,58.0,12,24,11.0,0.0
1215,61.0,0,24,11.0,0.0
1216,58.0,0,24,11.0,0.0
1217,61.0,30,24,11.0,0.0
1218,78.0,0,24,3.0,0.0
1219,90.0,0,24,0.0,0.0
1220,78.0,0,24,0.0,0.0
1221,78.0,0,24,11.0,0.0
1222,66.0,0,24,3.0,0.0
1223,66.0,0,24,4.0,0.0
1224,57.0,0,24,11.0,0.0
1225,60.0,30,24,11.0,0.0
1226,77.0,0,24,3.0,0.0
1227,60.0,0,24,11.0,0.0
1228,77.0,0,24,0.0,0.0
1229,89.0,0,24,0.0,0.0
1230,65.0,0,24,3.0,0.0
1231,65.0,30,24,4.0,0.0
1232,77.0,0,24,11.0,0.0
1233,57.0,0,24,11.0,0.0
1234,56.0,0,24,11.0,0.0
1235,77.0,0,48,3.0,0.0
1236,58.0,0,96,6.0,0.0
1237,46.0,0,96,12.0,0.0
1238,46.0,0,96,6.0,0.0
1239,65.0,0,48,4.0,0.0
1240,46.0,0,96,13.0,0.0
1241,77.0,0,48,0.0,0.0
1242,89.0,0,48,0.0,0.0
1243,46.0,18,96,5.0,0.0
1244,65.0,0,48,3.0,0.0
1245,77.0,6,48,11.0,0.0
1246,59.0,24,24,11.0,0.0
1247,46.0,0,96,8.0,0.0
1248,46.0,0,96,4.0,0.0
1249,55.0,0,96,5.0,0.0
1250,56.0,0,24,11.0,0.0
1251,59.0,30,24,11.0,0.0
1252,59.0,12,24,11.0,0.0
1253,56.0,0,24,11.0,0.0
1254,56.0,0,24,11.0,0.0
1255,59.0,30,24,11.0,0.0
1256,76.0,0,24,11.0,0.0
1257,76.0,30,24,3.0,0.0
1258,64.0,0,24,3.0,0.0
1259,88.0,0,24,0.0,0.0
1260,76.0,0,24,0.0,0.0
1261,55.0,0,24,11.0,0.0
1262,64.0,0,24,4.0,0.0
1263,58.0,0,24,11.0,0.0
1264,75.0,0,24,3.0,0.0
1265,63.0,0,24,3.0,0.0
1266,75.0,0,24,11.0,0.0
1267,87.0,30,24,0.0,0.0
1268,75.0,0,24,0.0,0.0
1269,63.0,0,24,4.0,0.0
1270,58.0,0,24,11.0,0.0
1271,55.0,0,24,11.0,0.0
1272,54.0,24,24,11.0,0.0
1273,46.0,0,96,12.0,0.0
1274,46.0,0,96,8.0,0.0
1275,46.0,0,96,5.0,0.0
1276,46.0,0,96,13.0,0.0
1277,63.0,0,48,3.0,0.0
1278,46.0,0,96,4.0,0.0
1279,75.0,0,48,0.0,0.0
1280,75.0,0,48,11.0,0.0
1281,63.0,0,48,4.0,0.0
1282,75.0,0,48,3.0,0.0
1283,46.0,0,96,6.0,0.0
1284,58.0,0,96,6.0,0.0
1285,55.0,0,96,5.0,0.0
1286,57.0,0,24,11.0,0.0
1287,87.0,6,48,0.0,0.0
1288,54.0,30,24,11.0,0.0
1289,57.0,0,24,11.0,0.0
1290,54.0,0,24,11.0,0.0
1291,57.0,12,24,11.0,0.0
1292,54.0,0,24,11.0,0.0
1293,57.0,30,24,11.0,0.0
1294,63.0,0,24,3.0,0.0
1295,75.0,24,24,11.0,0.0
1296,56.0,0,24,11.0,0.0
1297,80.0,6,48,1.0,0.0
1298,63.0,0,24,4.0,0.0
1299,77.0,0,48,1.0,0.0
1300,87.0,0,24,0.0,0.0
1301,82.0,0,54,0.0,0.0
1302,53.0,0,24,11.0,0.0
1303,75.0,0,24,3.0,0.0
1304,53.0,30,24,11.0,0.0
1305,62.0,0,24,4.0,0.0
1306,56.0,0,24,11.0,0.0
1307,74.0,0,24,11.0,0.0
1308,86.0,0,24,0.0,0.0
1309,74.0,0,24,3.0,0.0
1310,62.0,0,24,3.0,0.0
1311,86.0,0,96,0.0,0.0
1312,82.0,18,96,0.0,0.0
1313,74.0,0,96,3.0,0.0
1314,46.0,0,96,12.0,0.0
1315,53.0,30,24,11.0,0.0
1316,74.0,0,96,11.0,0.0
1317,68.0,0,96,5.0,0.0
1318,65.0,0,96,5.0,0.0
1319,56.0,0,24,11.0,0.0
1320,62.0,0,96,3.0,0.0
1321,46.0,0,96,4.0,0.0
1322,46.0,0,96,13.0,0.0
1323,80.0,0,96,1.0,0.0
1324,77.0,0,96,1.0,0.0
1325,46.0,0,96,8.0,0.0
1326,62.0,0,96,4.0,0.0
1327,58.0,0,96,6.0,0.0
1328,46.0,0,96,6.0,0.0
1329,58.0,0,24,11.0,0.0
1330,56.0,30,24,11.0,0.0
1331,56.0,12,24,11.0,0.0
1332,53.0,0,24,11.0,0.0
1333,56.0,0,24,11.0,0.0
1334,58.0,30,24,11.0,0.0
1335,80.0,0,48,1.0,0.0
1336,46.0,0,48,6.0,0.0
1337,58.0,0,48,6.0,0.0
1338,62.0,6,48,3.0,0.0
1339,86.0,0,48,0.0,0.0
1340,56.0,24,24,11.0,0.0
1341,82.0,0,48,0.0,0.0
1342,46.0,0,48,13.0,0.0
1343,74.0,0,48,3.0,0.0
1344,46.0,0,48,4.0,0.0
1345,62.0,0,48,4.0,0.0
1346,46.0,0,48,12.0,0.0
1347,68.0,0,48,5.0,0.0
1348,77.0,0,48,1.0,0.0
1349,65.0,0,48,5.0,0.0
1350,53.0,0,24,11.0,0.0
1351,74.0,0,48,11.0,0.0
1352,46.0,0,48,8.0,0.0
1353,58.0,0,24,11.0,0.0
1354,56.0,30,24,11.0,0.0
1355,80.0,0,72,1.0,0.0
1356,74.0,0,72,3.0,0.0
1357,46.0,0,72,6.0,0.0
1358,58.0,0,72,6.0,0.0
1359,46.0,0,72,8.0,0.0
1360,46.0,0,72,13.0,0.0
1361,77.0,0,72,1.0,0.0
1362,62.0,0,72,3.0,0.0
1363,86.0,0,72,0.0,0.0
1364,46.0,0,72,4.0,0.0
1365,62.0,0,72,4.0,0.0
1366,68.0,0,72,5.0,0.0
1367,65.0,0,72,5.0,0.0
1368,56.0,0,24,11.0,0.0
1369,53.0,30,24,11.0,0.0
1370,46.0,12,72,12.0,0.0
1371,82.0,0,72,0.0,0.0
1372,74.0,0,72,11.0,0.0
1373,58.0,0,24,11.0,0.0
1374,56.0,18,24,11.0,0.0
1375,56.0,0,24,11.0,0.0
1376,53.0,30,24,11.0,0.0
1377,46.0,0,24,6.0,0.0
1378,75.0,0,24,11.0,0.0
1379,46.0,0,24,12.0,0.0
1380,67.0,0,24,5.0,0.0
1381,58.0,0,24,6.0,0.0
1382,75.0,0,24,3.0,0.0
1383,87.0,0,24,0.0,0.0
1384,82.0,0,24,0.0,0.0
1385,46.0,0,24,8.0,0.0
1386,63.0,0,24,5.0,0.0
1387,63.0,0,24,3.0,0.0
1388,55.0,0,24,11.0,0.0
1389,46.0,0,24,4.0,0.0
1390,51.0,30,24,11.0,0.0
1391,79.0,0,24,1.0,0.0
1392,75.0,0,24,1.0,0.0
1393,46.0,0,24,13.0,0.0
1394,63.0,0,24,4.0,0.0
1395,80.0,0,48,1.0,0.0
1396,77.0,0,48,11.0,0.0
1397,65.0,0,48,5.0,0.0
1398,58.0,0,48,5.0,0.0
1399,82.0,0,48,0.0,0.0
1400,89.0,0,48,0.0,0.0
1401,50.0,24,24,11.0,0.0
1402,77.0,0,48,1.0,0.0
1403,77.0,0,48,3.0,0.0
1404,46.0,0,48,12.0,0.0
1405,46.0,0,48,13.0,0.0
1406,65.0,0,48,3.0,0.0
1407,46.0,6,48,6.0,0.0
1408,58.0,0,48,6.0,0.0
1409,65.0,0,48,4.0,0.0
1410,46.0,0,48,4.0,0.0
1411,56.0,0,24,11.0,0.0
1412,46.0,0,48,8.0,0.0
1413,58.0,0,24,11.0,0.0
1414,62.0,30,24,11.0,0.0
1415,51.0,0,96,13.0,0.0
1416,55.0,0,96,5.0,0.0
1417,51.0,0,96,6.0,0.0
1418,65.0,0,48,3.0,0.0
1419,77.0,0,48,3.0,0.0
1420,77.0,6,48,11.0,0.0
1421,55.0,12,96,6.0,0.0
1422,89.0,0,48,0.0,0.0
1423,55.0,24,24,11.0,0.0
1424,51.0,0,96,4.0,0.0
1425,63.0,0,96,5.0,0.0
1426,51.0,0,24,11.0,0.0
1427,65.0,0,48,4.0,0.0
1428,80.0,0,48,1.0,0.0
1429,51.0,0,96,12.0,0.0
1430,51.0,0,96,8.0,0.0
1431,77.0,0,48,1.0,0.0
1432,58.0,0,24,11.0,0.0
1433,55.0,30,24,11.0,0.0
1434,91.0,0,48,0.0,0.0
1435,55.0,12,24,11.0,0.0
1436,67.0,0,48,3.0,0.0
1437,79.0,0,48,11.0,0.0
1438,51.0,0,24,11.0,0.0
1439,67.0,0,48,4.0,0.0
1440,79.0,0,48,3.0,0.0
1441,79.0,0,48,1.0,0.0
1442,75.0,6,48,1.0,0.0
1443,58.0,30,24,11.0,0.0
1444,55.0,0,24,11.0,0.0
1445,75.0,6,48,3.0,0.0
1446,75.0,0,48,1.0,0.0
1447,55.0,0,48,6.0,0.0
1448,79.0,0,48,1.0,0.0
1449,63.0,0,48,4.0,0.0
1450,75.0,0,48,11.0,0.0
1451,51.0,0,48,12.0,0.0
1452,51.0,0,48,4.0,0.0
1453,51.0,0,24,11.0,0.0
1454,63.0,0,48,5.0,0.0
1455,51.0,0,48,13.0,0.0
1456,51.0,0,48,6.0,0.0
1457,55.0,0,48,5.0,0.0
1458,51.0,0,48,8.0,0.0
1459,87.0,0,48,0.0,0.0
1460,63.0,0,48,3.0,0.0
1461,55.0,24,24,11.0,0.0
1462,55.0,0,24,11.0,0.0
1463,58.0,30,24,11.0,0.0
1464,75.0,0,96,1.0,0.0
1465,51.0,0,96,6.0,0.0
1466,55.0,0,96,6.0,0.0
1467,51.0,0,96,8.0,0.0
1468,87.0,0,96,0.0,0.0
1469,51.0,0,96,12.0,0.0
1470,55.0,24,24,11.0,0.0
1471,75.0,0,96,3.0,0.0
1472,63.0,6,48,3.0,0.0
1473,75.0,0,96,11.0,0.0
1474,51.0,18,96,4.0,0.0
1475,63.0,0,96,4.0,0.0
1476,51.0,0,24,11.0,0.0
1477,51.0,0,96,13.0,0.0
1478,79.0,0,96,1.0,0.0
1479,63.0,0,96,5.0,0.0
1480,55.0,0,96,5.0,0.0
1481,58.0,30,24,11.0,0.0
1482,55.0,0,24,11.0,0.0
1483,55.0,12,24,11.0,0.0
1484,51.0,0,24,11.0,0.0
1485,58.0,30,24,11.0,0.0
1486,55.0,0,24,11.0,0.0
1487,77.0,0,48,1.0,0.0
1488,46.0,6,48,13.0,0.0
1489,80.0,0,48,1.0,0.0
1490,58.0,0,48,5.0,0.0
1491,65.0,0,48,5.0,0.0
1492,75.0,24,24,11.0,0.0
1493,53.0,0,24,11.0,0.0
1494,87.0,0,24,0.0,0.0
1495,46.0,0,48,6.0,0.0
1496,46.0,0,48,8.0,0.0
1497,63.0,0,24,4.0,0.0
1498,46.0,0,48,4.0,0.0
1499,46.0,0,48,12.0,0.0
1500,58.0,0,48,6.0,0.0
1501,56.0,0,24,11.0,0.0
1502,63.0,0,24,3.0,0.0
1503,75.0,0,24,3.0,0.0
1504,58.0,0,24,11.0,0.0
1505,74.0,0,24,11.0,0.0
1506,86.0,30,24,0.0,0.0
1507,62.0,0,24,3.0,0.0
1508,74.0,0,24,3.0,0.0
1509,56.0,0,24,11.0,0.0
1510,62.0,0,24,4.0,0.0
1511,62.0,0,96,3.0,0.0
1512,68.0,0,96,5.0,0.0
1513,65.0,0,96,5.0,0.0
1514,82.0,0,96,0.0,0.0
1515,74.0,0,96,11.0,0.0
1516,62.0,0,96,4.0,0.0
1517,46.0,0,96,4.0,0.0
1518,74.0,0,96,3.0,0.0
1519,86.0,0,96,0.0,0.0
1520,56.0,30,24,11.0,0.0
1521,46.0,18,96,12.0,0.0
1522,46.0,0,96,6.0,0.0
1523,58.0,0,96,6.0,0.0
1524,46.0,0,96,8.0,0.0
1525,46.0,0,96,13.0,0.0
1526,53.0,0,24,11.0,0.0
1527,77.0,0,96,1.0,0.0
1528,80.0,0,96,1.0,0.0
1529,56.0,30,24,11.0,0.0
1530,58.0,0,24,11.0,0.0
1531,56.0,0,24,11.0,0.0
1532,53.0,12,24,11.0,0.0
1533,56.0,0,24,11.0,0.0
1534,58.0,30,24,11.0,0.0
1535,62.0,0,48,3.0,0.0
1536,56.0,0,24,11.0,0.0
1537,53.0,24,24,11.0,0.0
1538,46.0,0,48,13.0,0.0
1539,46.0,0,48,4.0,0.0
1540,62.0,0,48,4.0,0.0
1541,58.0,6,48,6.0,0.0
1542,46.0,0,48,6.0,0.0
1543,82.0,0,48,0.0,0.0
1544,74.0,0,48,3.0,0.0
1545,46.0,0,48,8.0,0.0
1546,86.0,0,48,0.0,0.0
1547,80.0,0,48,1.0,0.0
1548,68.0,0,48,5.0,0.0
1549,65.0,0,48,5.0,0.0
1550,74.0,0,48,11.0,0.0
1551,46.0,0,48,12.0,0.0
1552,77.0,0,48,1.0,0.0
1553,58.0,0,24,11.0,0.0
1554,56.0,30,24,11.0,0.0
1555,58.0,0,72,6.0,0.0
1556,74.0,0,72,11.0,0.0
1557,62.0,0,72,4.0,0.0
1558,56.0,30,24,11.0,0.0
1559,46.0,12,72,6.0,0.0
1560,46.0,0,72,4.0,0.0
1561,46.0,0,72,12.0,0.0
1562,80.0,0,72,1.0,0.0
1563,77.0,0,72,1.0,0.0
1564,53.0,0,24,11.0,0.0
1565,62.0,0,72,3.0,0.0
1566,74.0,0,72,3.0,0.0
1567,46.0,0,72,8.0,0.0
1568,65.0,0,72,5.0,0.0
1569,68.0,0,72,5.0,0.0
1570,86.0,0,72,0.0,0.0
1571,82.0,0,72,0.0,0.0
1572,46.0,0,72,13.0,0.0
1573,58.0,18,24,11.0,0.0
1574,56.0,0,24,11.0,0.0
1575,56.0,0,24,11.0,0.0
1576,53.0,30,24,11.0,0.0
1577,46.0,0,24,12.0,0.0
1578,63.0,0,24,5.0,0.0
1579,75.0,0,24,11.0,0.0
1580,46.0,0,24,4.0,0.0
1581,63.0,0,24,4.0,0.0
1582,46.0,0,24,13.0,0.0
1583,46.0,0,24,8.0,0.0
1584,87.0,0,24,0.0,0.0
1585,51.0,0,24,11.0,0.0
1586,75.0,0,24,1.0,0.0
1587,79.0,0,24,1.0,0.0
1588,82.0,0,24,0.0,0.0
1589,46.0,30,24,6.0,0.0
1590,75.0,0,24,3.0,0.0
1591,67.0,0,24,5.0,0.0
1592,55.0,0,24,11.0,0.0
1593,58.0,0,24,6.0,0.0
1594,63.0,0,24,3.0,0.0
1595,56.0,24,24,11.0,0.0
1596,46.0,0,48,4.0,0.0
1597,46.0,0,48,6.0,0.0
1598,77.0,0,48,11.0,0.0
1599,46.0,6,48,13.0,0.0
1600,46.0,0,48,8.0,0.0
1601,80.0,0,48,1.0,0.0
1602,65.0,0,48,4.0,0.0
1603,77.0,0,48,1.0,0.0
1604,46.0,0,48,12.0,0.0
1605,58.0,0,48,6.0,0.0
1606,65.0,0,48,3.0,0.0
1607,77.0,0,48,3.0,0.0
1608,89.0,0,48,0.0,0.0
1609,58.0,0,48,5.0,0.0
1610,82.0,0,48,0.0,0.0
1611,65.0,0,48,5.0,0.0
1612,50.0,0,24,11.0,0.0
1613,62.0,0,24,11.0,0.0
1614,58.0,30,24,11.0,0.0
1615,77.0,30,24,3.0,0.0
1616,55.0,0,96,5.0,0.0
1617,63.0,0,96,5.0,0.0
1618,89.0,0,24,0.0,0.0
1619,65.0,0,24,4.0,0.0
1620,51.0,0,276,12.0,0.0
1621,75.0,0,96,1.0,0.0
1622,63.0,0,96,6.0,0.0
1623,77.0,0,24,11.0,0.0
1624,51.0,18,276,13.0,0.0
1625,55.0,0,24,11.0,0.0
1626,65.0,0,24,3.0,0.0
1627,51.0,0,24,11.0,0.0
1628,51.0,0,96,8.0,0.0
1629,51.0,18,96,6.0,0.0
1630,79.0,0,96,1.0,0.0
1631,55.0,0,24,11.0,0.0
1632,79.0,0,24,3.0,0.0
1633,91.0,0,24,0.0,0.0
1634,58.0,30,24,11.0,0.0
1635,79.0,0,24,11.0,0.0
1636,67.0,0,24,4.0,0.0
1637,67.0,0,24,3.0,0.0
1638,51.0,12,24,11.0,0.0
1639,55.0,0,24,11.0,0.0
1640,55.0,30,24,11.0,0.0
1641,58.0,0,24,11.0,0.0
1642,75.0,0,48,11.0,0.0
1643,87.0,0,48,0.0,0.0
1644,51.0,0,24,11.0,0.0
1645,75.0,0,48,0.0,0.0
1646,51.0,0,48,4.0,0.0
1647,75.0,0,48,3.0,0.0
1648,63.0,0,48,1.0,0.0
1649,55.0,24,24,11.0,0.0
1650,75.0,0,48,1.0,0.0
1651,63.0,6,48,3.0,0.0
1652,55.0,30,24,11.0,0.0
1653,58.0,0,24,11.0,0.0
1654,63.0,0,72,1.0,0.0
1655,75.0,0,72,1.0,0.0
1656,51.0,0,72,4.0,0.0
1657,75.0,12,72,11.0,0.0
1658,51.0,0,24,11.0,0.0
1659,55.0,30,24,11.0,0.0
1660,75.0,0,72,3.0,0.0
1661,63.0,0,72,3.0,0.0
1662,87.0,0,72,0.0,0.0
1663,75.0,0,72,0.0,0.0
1664,58.0,0,24,11.0,0.0
1665,55.0,18,24,11.0,0.0
1666,63.0,12,24,11.0,0.0
1667,58.0,0,24,11.0,0.0
1668,77.0,0,24,3.0,0.0
1669,53.0,0,24,4.0,0.0
1670,89.0,0,24,0.0,0.0
1671,77.0,0,24,0.0,0.0
1672,65.0,0,24,3.0,0.0
1673,58.0,30,24,11.0,0.0
1674,77.0,0,24,11.0,0.0
1675,55.0,0,24,11.0,0.0
1676,65.0,0,24,1.0,0.0
1677,77.0,0,24,1.0,0.0
1678,39.0,0,48,13.0,0.0
1679,55.0,0,48,4.0,0.0
1680,67.0,0,48,1.0,0.0
1681,79.0,0,48,1.0,0.0
1682,79.0,6,48,11.0,0.0
1683,79.0,0,48,0.0,0.0
1684,39.0,0,48,4.0,0.0
1685,67.0,0,48,3.0,0.0
1686,51.0,24,24,11.0,0.0
1687,91.0,0,48,0.0,0.0
1688,79.0,0,48,3.0,0.0
1689,39.0,0,48,12.0,0.0
1690,55.0,0,24,11.0,0.0
1691,58.0,30,24,11.0,0.0
1692,55.0,0,24,11.0,0.0
1693,53.0,0,24,11.0,0.0
1694,56.0,0,24,11.0,0.0
1695,79.0,0,24,3.0,0.0
1696,67.0,30,24,3.0,0.0
1697,67.0,0,24,1.0,0.0
1698,53.0,18,276,12.0,0.0
1699,79.0,0,24,11.0,0.0
1700,58.0,0,96,6.0,0.0
1701,46.0,0,96,6.0,0.0
1702,46.0,18,96,8.0,0.0
1703,53.0,0,276,13.0,0.0
1704,91.0,0,24,0.0,0.0
1705,55.0,0,24,4.0,0.0
1706,79.0,0,24,0.0,0.0
1707,65.0,0,96,5.0,0.0
1708,79.0,0,24,1.0,0.0
1709,58.0,0,24,11.0,0.0
1710,80.0,0,24,11.0,0.0
1711,80.0,0,24,3.0,0.0
1712,68.0,0,24,3.0,0.0
1713,80.0,30,24,0.0,0.0
1714,56.0,0,24,4.0,0.0
1715,68.0,0,24,1.0,0.0
1716,80.0,0,24,1.0,0.0
1717,56.0,0,24,11.0,0.0
1718,92.0,0,24,0.0,0.0
1719,56.0,12,24,11.0,0.0
1720,53.0,0,24,11.0,0.0
1721,58.0,0,24,11.0,0.0
1722,56.0,30,24,11.0,0.0
1723,53.0,0,48,4.0,0.0
1724,77.0,0,48,0.0,0.0
1725,53.0,0,24,11.0,0.0
1726,77.0,0,48,1.0,0.0
1727,65.0,0,48,1.0,0.0
1728,89.0,0,48,0.0,0.0
1729,65.0,0,48,3.0,0.0
1730,77.0,0,48,11.0,0.0
1731,77.0,6,48,3.0,0.0
1732,56.0,24,24,11.0,0.0
1733,56.0,0,24,11.0,0.0
1734,58.0,30,24,11.0,0.0
1735,77.0,12,72,3.0,0.0
1736,53.0,30,24,11.0,0.0
1737,77.0,0,72,1.0,0.0
1738,65.0,0,72,3.0,0.0
1739,56.0,0,24,11.0,0.0
1740,65.0,0,72,1.0,0.0
1741,77.0,0,72,11.0,0.0
1742,77.0,0,72,0.0,0.0
1743,53.0,0,72,4.0,0.0
1744,89.0,0,72,0.0,0.0
1745,58.0,18,24,11.0,0.0
1746,56.0,0,24,11.0,0.0
1747,58.0,12,24,11.0,0.0
1748,62.0,0,24,11.0,0.0
1749,67.0,0,24,1.0,0.0
1750,79.0,30,24,1.0,0.0
1751,58.0,0,24,11.0,0.0
1752,55.0,0,24,4.0,0.0
1753,56.0,0,24,11.0,0.0
1754,67.0,0,24,3.0,0.0
1755,79.0,0,24,3.0,0.0
1756,79.0,0,24,11.0,0.0
1757,79.0,0,24,0.0,0.0
1758,91.0,0,24,0.0,0.0
1759,80.0,0,48,0.0,0.0
1760,41.0,6,48,13.0,0.0
1761,56.0,0,24,11.0,0.0
1762,68.0,0,48,1.0,0.0
1763,80.0,0,48,1.0,0.0
1764,92.0,0,48,0.0,0.0
1765,80.0,0,48,11.0,0.0
1766,41.0,0,48,4.0,0.0
1767,56.0,0,48,4.0,0.0
1768,80.0,0,48,3.0,0.0
1769,68.0,0,48,3.0,0.0
1770,41.0,0,48,12.0,0.0
1771,53.0,24,24,11.0,0.0
1772,58.0,0,24,11.0,0.0
1773,56.0,30,24,11.0,0.0
1774,80.0,0,24,3.0,0.0
1775,82.0,0,48,0.0,0.0
1776,70.0,6,48,0.0,0.0
1777,63.0,0,96,6.0,0.0
1778,51.0,0,24,11.0,0.0
1779,55.0,0,276,13.0,0.0
1780,56.0,0,24,4.0,0.0
1781,67.0,0,96,5.0,0.0
1782,68.0,24,24,3.0,0.0
1783,51.0,18,96,8.0,0.0
1784,51.0,0,96,6.0,0.0
1785,80.0,0,24,1.0,0.0
1786,55.0,18,276,12.0,0.0
1787,80.0,0,24,11.0,0.0
1788,68.0,0,24,1.0,0.0
1789,58.0,0,24,11.0,0.0
1790,82.0,0,24,3.0,0.0
1791,70.0,0,24,1.0,0.0
1792,82.0,0,24,1.0,0.0
1793,70.0,0,24,3.0,0.0
1794,63.0,0,24,11.0,0.0
1795,58.0,0,24,4.0,0.0
1796,58.0,30,24,11.0,0.0
1797,82.0,0,24,11.0,0.0
1798,58.0,0,24,11.0,0.0
1799,51.0,12,24,11.0,0.0
1800,58.0,30,24,11.0,0.0
1801,63.0,0,24,11.0,0.0
1802,79.0,0,48,3.0,0.0
1803,55.0,0,48,4.0,0.0
1804,51.0,0,24,11.0,0.0
1805,67.0,6,48,3.0,0.0
1806,79.0,0,48,11.0,0.0
1807,79.0,0,48,1.0,0.0
1808,58.0,24,24,11.0,0.0
1809,67.0,0,48,1.0,0.0
1810,58.0,30,24,11.0,0.0
1811,63.0,0,24,11.0,0.0
1812,55.0,0,72,4.0,0.0
1813,51.0,30,24,11.0,0.0
1814,79.0,0,72,11.0,0.0
1815,79.0,0,72,1.0,0.0
1816,67.0,0,72,1.0,0.0
1817,58.0,0,24,11.0,0.0
1818,79.0,12,72,3.0,0.0
1819,67.0,0,72,3.0,0.0
1820,63.0,0,24,11.0,0.0
1821,58.0,18,24,11.0,0.0
1822,67.0,12,24,11.0,0.0
1823,63.0,0,24,11.0,0.0
1824,80.0,0,24,1.0,0.0
1825,80.0,30,24,3.0,0.0
1826,63.0,0,24,11.0,0.0
1827,68.0,0,24,3.0,0.0
1828,58.0,0,24,11.0,0.0
1829,80.0,0,24,11.0,0.0
1830,56.0,0,24,4.0,0.0
1831,68.0,0,24,1.0,0.0
1832,58.0,0,24,11.0,0.0
1833,43.0,6,48,4.0,0.0
1834,58.0,0,48,4.0,0.0
1835,70.0,0,48,3.0,0.0
1836,82.0,0,48,3.0,0.0
1837,51.0,24,24,11.0,0.0
1838,82.0,0,48,1.0,0.0
1839,43.0,0,48,12.0,0.0
1840,70.0,0,48,1.0,0.0
1841,43.0,0,48,13.0,0.0
1842,82.0,0,48,11.0,0.0
1843,63.0,0,24,11.0,0.0
1844,58.0,30,24,11.0,0.0
1845,60.0,0,24,11.0,0.0
1846,84.0,0,72,11.0,0.0
1847,44.0,0,72,13.0,0.0
1848,65.0,18,96,5.0,0.0
1849,63.0,0,96,5.0,0.0
1850,44.0,0,72,4.0,0.0
1851,60.0,0,72,4.0,0.0
1852,51.0,0,96,8.0,0.0
1853,84.0,0,72,3.0,0.0
1854,72.0,0,72,3.0,0.0
1855,51.0,30,24,11.0,0.0
1856,72.0,12,72,1.0,0.0
1857,84.0,0,72,1.0,0.0
1858,51.0,0,96,6.0,0.0
1859,63.0,0,96,6.0,0.0
1860,44.0,0,72,12.0,0.0
1861,63.0,18,24,11.0,0.0
1862,60.0,0,24,11.0,0.0
1863,60.0,0,24,11.0,0.0
1864,51.0,12,24,11.0,0.0
1865,63.0,0,24,11.0,0.0
1866,82.0,0,24,11.0,0.0
1867,70.0,0,24,3.0,0.0
1868,72.0,0,24,1.0,0.0
1869,56.0,0,24,13.0,0.0
1870,56.0,0,24,4.0,0.0
1871,58.0,0,24,4.0,0.0
1872,82.0,30,24,3.0,0.0
1873,56.0,0,24,12.0,0.0
1874,60.0,0,24,11.0,0.0
1875,82.0,0,24,1.0,0.0
1876,72.0,0,48,1.0,0.0
1877,56.0,0,48,12.0,0.0
1878,80.0,0,48,11.0,0.0
1879,80.0,0,48,1.0,0.0
1880,60.0,24,24,11.0,0.0
1881,56.0,0,48,4.0,0.0
1882,80.0,6,48,3.0,0.0
1883,68.0,0,48,3.0,0.0
1884,56.0,0,48,13.0,0.0
1885,51.0,0,24,11.0,0.0
1886,60.0,0,24,11.0,0.0
1887,63.0,30,24,11.0,0.0
1888,84.0,0,72,0.0,0.0
1889,60.0,0,24,11.0,0.0
1890,56.0,0,72,13.0,0.0
1891,51.0,0,96,6.0,0.0
1892,53.0,30,24,11.0,0.0
1893,63.0,0,96,6.0,0.0
1894,79.0,0,72,3.0,0.0
1895,67.0,0,72,3.0,0.0
1896,56.0,0,72,4.0,0.0
1897,68.0,0,72,4.0,0.0
1898,79.0,0,72,11.0,0.0
1899,51.0,0,96,8.0,0.0
1900,91.0,0,72,0.0,0.0
1901,79.0,0,72,1.0,0.0
1902,65.0,0,96,5.0,0.0
1903,63.0,18,96,5.0,0.0
1904,56.0,12,72,12.0,0.0
1905,72.0,0,72,1.0,0.0
1906,63.0,18,24,11.0,0.0
1907,60.0,0,24,11.0,0.0
1908,53.0,12,24,11.0,0.0
1909,60.0,0,24,11.0,0.0
1910,56.0,0,24,4.0,0.0
1911,77.0,30,24,11.0,0.0
1912,65.0,0,24,3.0,0.0
1913,77.0,0,24,3.0,0.0
1914,56.0,0,24,12.0,0.0
1915,63.0,0,24,11.0,0.0
1916,65.0,0,24,4.0,0.0
1917,56.0,0,24,13.0,0.0
1918,72.0,0,24,1.0,0.0
1919,84.0,0,24,0.0,0.0
1920,89.0,0,24,0.0,0.0
1921,77.0,0,24,1.0,0.0
1922,60.0,0,24,11.0,0.0
1923,55.0,0,48,4.0,0.0
1924,75.0,0,48,3.0,0.0
1925,75.0,0,48,1.0,0.0
1926,63.0,0,48,4.0,0.0
1927,63.0,0,48,3.0,0.0
1928,84.0,0,48,0.0,0.0
1929,57.0,0,48,12.0,0.0
1930,53.0,0,24,11.0,0.0
1931,87.0,0,48,0.0,0.0
1932,60.0,24,24,11.0,0.0
1933,57.0,0,48,13.0,0.0
1934,75.0,0,48,11.0,0.0
1935,72.0,6,48,1.0,0.0
1936,60.0,0,24,11.0,0.0
1937,63.0,30,24,11.0,0.0
1938,74.0,0,72,3.0,0.0
1939,46.0,0,72,6.0,0.0
1940,58.0,0,72,5.0,0.0
1941,58.0,0,72,6.0,0.0
1942,62.0,30,24,11.0,0.0
1943,46.0,0,72,8.0,0.0
1944,65.0,0,72,5.0,0.0
1945,62.0,0,72,3.0,0.0
1946,70.0,12,72,1.0,0.0
1947,58.0,0,72,4.0,0.0
1948,74.0,0,72,11.0,0.0
1949,58.0,0,72,12.0,0.0
1950,58.0,0,24,11.0,0.0
1951,74.0,0,72,1.0,0.0
1952,58.0,0,72,13.0,0.0
1953,86.0,0,72,0.0,0.0
1954,77.0,0,72,0.0,0.0
1955,62.0,0,72,4.0,0.0
1956,58.0,18,24,11.0,0.0
1957,53.0,0,24,11.0,0.0
1958,58.0,30,24,11.0,0.0
1959,63.0,0,24,11.0,0.0
1960,53.0,0,24,11.0,0.0
1961,75.0,0,24,1.0,0.0
1962,46.0,0,24,8.0,0.0
1963,46.0,0,24,6.0,0.0
1964,58.0,0,24,6.0,0.0
1965,58.0,0,24,5.0,0.0
1966,72.0,0,24,1.0,0.0
1967,57.0,30,24,13.0,0.0
1968,65.0,0,24,5.0,0.0
1969,57.0,0,24,4.0,0.0
1970,60.0,0,24,4.0,0.0
1971,72.0,0,24,11.0,0.0
1972,60.0,0,24,11.0,0.0
1973,72.0,0,24,3.0,0.0
1974,60.0,0,24,3.0,0.0
1975,75.0,0,24,0.0,0.0
1976,84.0,0,24,0.0,0.0
1977,57.0,0,24,12.0,0.0
1978,56.0,0,48,4.0,0.0
1979,58.0,0,48,4.0,0.0
1980,62.0,0,24,11.0,0.0
1981,46.0,0,48,6.0,0.0
1982,74.0,0,48,0.0,0.0
1983,77.0,0,48,1.0,0.0
1984,46.0,0,48,8.0,0.0
1985,56.0,0,48,12.0,0.0
1986,70.0,0,48,3.0,0.0
1987,74.0,0,48,1.0,0.0
1988,58.0,0,48,5.0,0.0
1989,65.0,0,48,5.0,0.0
1990,82.0,0,48,0.0,0.0
1991,70.0,0,48,11.0,0.0
1992,65.0,24,24,11.0,0.0
1993,58.0,0,48,3.0,0.0
1994,58.0,6,48,6.0,0.0
1995,56.0,0,48,13.0,0.0
1996,58.0,0,24,11.0,0.0
1997,62.0,30,24,11.0,0.0
1998,55.0,0,72,4.0,0.0
1999,63.0,0,72,5.0,0.0
2000,63.0,30,24,11.0,0.0
2001,91.0,0,72,0.0,0.0
2002,87.0,12,72,0.0,0.0
2003,58.0,0,72,6.0,0.0
2004,55.0,0,72,13.0,0.0
2005,67.0,0,72,5.0,0.0
2006,51.0,0,72,4.0,0.0
2007,67.0,0,72,3.0,0.0
2008,79.0,0,72,11.0,0.0
2009,67.0,0,24,11.0,0.0
2010,75.0,0,72,1.0,0.0
2011,79.0,0,72,1.0,0.0
2012,55.0,0,72,12.0,0.0
2013,46.0,0,72,8.0,0.0
2014,79.0,0,72,3.0,0.0
2015,46.0,0,72,6.0,0.0
2016,63.0,0,24,11.0,0.0
2017,58.0,18,24,11.0,0.0
2018,56.0,0,24,11.0,0.0
2019,68.0,30,24,11.0,0.0
2020,63.0,0,24,5.0,0.0
2021,46.0,0,24,8.0,0.0
2022,80.0,0,24,1.0,0.0
2023,77.0,0,24,1.0,0.0
2024,65.0,0,24,11.0,0.0
2025,46.0,0,24,6.0,0.0
2026,89.0,0,24,0.0,0.0
2027,80.0,30,24,11.0,0.0
2028,67.0,0,24,5.0,0.0
2029,92.0,0,24,0.0,0.0
2030,68.0,0,24,3.0,0.0
2031,58.0,0,24,6.0,0.0
2032,53.0,0,24,4.0,0.0
2033,53.0,0,24,12.0,0.0
2034,80.0,0,24,3.0,0.0
2035,53.0,0,24,13.0,0.0
2036,58.0,0,24,11.0,0.0
2037,56.0,0,24,4.0,0.0
2038,55.0,0,48,4.0,0.0
2039,58.0,0,48,4.0,0.0
2040,82.0,0,48,11.0,0.0
2041,51.0,0,48,13.0,0.0
2042,51.0,0,48,12.0,0.0
2043,91.0,0,48,0.0,0.0
2044,63.0,0,48,6.0,0.0
2045,70.0,0,24,11.0,0.0
2046,70.0,0,48,3.0,0.0
2047,67.0,0,48,5.0,0.0
2048,55.0,24,24,11.0,0.0
2049,51.0,0,48,6.0,0.0
2050,51.0,6,48,8.0,0.0
2051,63.0,0,48,5.0,0.0
2052,82.0,0,48,1.0,0.0
2053,79.0,0,48,1.0,0.0
2054,79.0,0,48,3.0,0.0
2055,58.0,102,24,11.0,0.0
2056,67.0,0,24,11.0,0.0
2057,84.0,0,96,1.0,0.0
2058,51.0,0,96,8.0,0.0
2059,72.0,0,96,3.0,0.0
2060,84.0,0,96,0.0,0.0
2061,92.0,0,96,0.0,0.0
2062,56.0,0,96,13.0,0.0
2063,63.0,0,96,5.0,0.0
2064,65.0,0,96,5.0,0.0
2065,68.0,0,96,11.0,0.0
2066,56.0,0,96,12.0,0.0
2067,84.0,0,96,3.0,0.0
2068,84.0,180,96,11.0,0.0
2069,80.0,0,96,1.0,0.0
2070,63.0,0,96,6.0,0.0
2071,51.0,0,96,6.0,0.0
2072,60.0,0,96,4.0,0.0
2073,56.0,0,96,4.0,0.0
2074,72.0,0,96,11.0,0.0
2075,58.0,0,96,4.0,0.0
2076,80.0,0,96,1.0,0.0
2077,77.0,0,96,1.0,0.0
2078,46.0,0,96,4.0,0.0
2079,86.0,156,96,11.0,0.0
2080,65.0,0,96,5.0,0.0
2081,58.0,0,96,5.0,0.0
2082,46.0,0,96,8.0,0.0
2083,89.0,0,96,0.0,0.0
2084,86.0,0,96,0.0,0.0
2085,58.0,0,96,11.0,0.0
2086,58.0,0,96,6.0,0.0
2087,46.0,0,96,6.0,0.0
2088,46.0,0,96,13.0,0.0
2089,77.0,0,96,11.0,0.0
2090,70.0,0,96,11.0,0.0
2091,46.0,0,96,12.0,0.0
2092,65.0,0,96,11.0,0.0
2093,74.0,0,96,3.0,0.0
2094,65.0,0,96,3.0,0.0
2095,74.0,0,96,11.0,0.0
2096,51.0,0,96,8.0,0.0
2097,51.0,0,96,12.0,0.0
2098,87.0,0,96,0.0,0.0
2099,67.0,0,96,11.0,0.0
2100,51.0,0,96,11.0,0.0
2101,87.0,0,96,11.0,0.0
2102,58.0,0,96,11.0,0.0
2103,51.0,0,96,13.0,0.0
2104,51.0,0,96,6.0,0.0
2105,75.0,0,96,1.0,0.0
2106,79.0,0,96,1.0,0.0
2107,79.0,0,96,11.0,0.0
2108,70.0,0,96,11.0,0.0
2109,63.0,0,96,6.0,0.0
2110,75.0,18,96,11.0,0.0
2111,39.0,0,96,4.0,0.0
2112,67.0,0,96,3.0,0.0
2113,75.0,0,96,3.0,0.0
2114,51.0,24,72,5.0,0.0
2115,63.0,0,72,5.0,0.0
2116,51.0,0,96,4.0,0.0
2117,51.0,54,24,5.0,0.0
2118,63.0,0,24,5.0,0.0
2119,63.0,60,48,5.0,0.0
2120,51.0,0,48,5.0,0.0
2121,51.0,60,48,5.0,0.0
2122,63.0,0,48,5.0,0.0
2123,63.0,60,48,5.0,0.0
2124,51.0,0,48,5.0,0.0
2125,51.0,0,48,5.0,0.0
2126,63.0,66,48,5.0,0.0
2127,51.0,0,288,5.0,0.0
2128,75.0,0,144,3.0,0.0
2129,60.0,0,144,12.0,0.0
2130,63.0,0,144,4.0,0.0
2131,87.0,30,144,11.0,0.0
2132,51.0,18,96,8.0,0.0
2133,75.0,0,144,1.0,0.0
2134,60.0,0,144,4.0,0.0
2135,87.0,0,144,0.0,0.0
2136,60.0,0,144,13.0,0.0
2137,63.0,6,288,5.0,0.0
2138,63.0,0,24,11.0,0.0
2139,51.0,30,24,11.0,0.0
2140,65.0,0,24,11.0,0.0
2141,53.0,12,24,11.0,0.0
2142,67.0,0,24,11.0,0.0
2143,55.0,30,24,11.0,0.0
2144,68.0,0,24,11.0,0.0
2145,56.0,0,24,11.0,0.0
2146,70.0,30,24,11.0,0.0
2147,58.0,0,24,11.0,0.0
2148,72.0,0,144,3.0,0.0
2149,84.0,0,144,3.0,0.0
2150,75.0,0,144,1.0,0.0
2151,84.0,0,144,0.0,0.0
2152,60.0,0,24,11.0,0.0
2153,84.0,0,144,1.0,0.0
2154,56.0,0,144,12.0,0.0
2155,56.0,0,144,13.0,0.0
2156,56.0,30,144,4.0,0.0
2157,60.0,0,144,4.0,0.0
2158,72.0,0,24,11.0,0.0
2159,84.0,0,24,11.0,0.0
2160,51.0,30,24,8.0,0.0
2161,83.0,0,24,11.0,0.0
2162,51.0,0,24,8.0,0.0
2163,71.0,0,24,11.0,0.0
2164,59.0,30,24,11.0,0.0
2165,84.0,24,24,11.0,0.0
2166,60.0,0,24,11.0,0.0
2167,72.0,0,24,11.0,0.0
2168,51.0,0,24,8.0,0.0
2169,74.0,0,24,11.0,0.0
2170,62.0,0,24,11.0,0.0
2171,86.0,0,24,11.0,0.0
2172,51.0,30,24,8.0,0.0
2173,87.0,0,24,11.0,0.0
2174,75.0,0,24,11.0,0.0
2175,51.0,0,24,8.0,0.0
2176,63.0,0,24,11.0,0.0
2177,84.0,78,24,11.0,0.0
2178,72.0,0,24,11.0,0.0
2179,60.0,0,24,11.0,0.0
2180,51.0,0,24,8.0,0.0
2181,82.0,0,96,3.0,0.0
2182,70.0,0,96,11.0,0.0
2183,82.0,0,96,1.0,0.0
2184,46.0,0,72,6.0,0.0
2185,58.0,24,72,6.0,0.0
2186,55.0,0,96,4.0,0.0
2187,58.0,18,96,4.0,0.0
2188,70.0,0,96,3.0,0.0
2189,46.0,0,72,5.0,0.0
2190,55.0,0,96,12.0,0.0
2191,58.0,0,96,11.0,0.0
2192,82.0,0,96,0.0,0.0
2193,87.0,0,96,0.0,0.0
2194,55.0,0,96,13.0,0.0
2195,46.0,0,96,8.0,0.0
2196,58.0,0,72,5.0,0.0
2197,75.0,0,96,1.0,0.0
2198,82.0,0,96,11.0,0.0
2199,58.0,0,24,5.0,0.0
2200,46.0,54,24,5.0,0.0
2201,46.0,0,24,6.0,0.0
2202,58.0,0,24,6.0,0.0
2203,46.0,0,48,5.0,0.0
2204,58.0,0,48,5.0,0.0
2205,58.0,0,48,6.0,0.0
2206,46.0,60,48,6.0,0.0
2207,46.0,0,48,5.0,0.0
2208,58.0,60,48,6.0,0.0
2209,46.0,0,48,6.0,0.0
2210,58.0,0,48,5.0,0.0
2211,46.0,0,48,6.0,0.0
2212,58.0,0,48,5.0,0.0
2213,46.0,0,48,5.0,0.0
2214,58.0,60,48,6.0,0.0
2215,46.0,0,48,5.0,0.0
2216,58.0,36,48,6.0,0.0
2217,46.0,0,48,6.0,0.0
2218,58.0,0,48,5.0,0.0
2219,56.0,0,144,4.0,0.0
2220,58.0,0,144,13.0,0.0
2221,58.0,6,288,5.0,0.0
2222,46.0,0,288,5.0,0.0
2223,65.0,0,144,3.0,0.0
2224,68.0,0,144,3.0,0.0
2225,46.0,18,96,8.0,0.0
2226,56.0,30,24,11.0,0.0
2227,89.0,0,144,0.0,0.0
2228,58.0,0,144,12.0,0.0
2229,46.0,0,288,6.0,0.0
2230,80.0,0,144,11.0,0.0
2231,58.0,0,288,6.0,0.0
2232,92.0,0,144,0.0,0.0
2233,80.0,0,144,1.0,0.0
2234,77.0,0,144,1.0,0.0
2235,53.0,0,144,4.0,0.0
2236,58.0,30,24,11.0,0.0
2237,58.0,0,24,11.0,0.0
2238,56.0,12,24,11.0,0.0
2239,58.0,30,24,11.0,0.0
2240,60.0,0,24,11.0,0.0
2241,62.0,0,24,11.0,0.0
2242,56.0,30,24,11.0,0.0
2243,58.0,0,24,11.0,0.0
2244,63.0,30,24,11.0,0.0
2245,77.0,0,24,11.0,0.0
2246,56.0,30,24,11.0,0.0
2247,65.0,0,24,11.0,0.0
2248,46.0,0,24,8.0,0.0
2249,65.0,0,144,3.0,0.0
2250,53.0,0,144,4.0,0.0
2251,62.0,0,144,3.0,0.0
2252,46.0,0,144,12.0,0.0
2253,89.0,0,144,0.0,0.0
2254,46.0,0,144,4.0,0.0
2255,74.0,0,144,1.0,0.0
2256,77.0,0,144,1.0,0.0
2257,46.0,0,144,13.0,0.0
2258,84.0,0,144,0.0,0.0
2259,58.0,0,24,11.0,0.0
2260,64.0,30,24,11.0,0.0
2261,76.0,0,24,11.0,0.0
2262,46.0,0,24,8.0,0.0
2263,56.0,0,24,11.0,0.0
2264,46.0,0,24,8.0,0.0
2265,65.0,24,24,11.0,0.0
2266,77.0,0,24,11.0,0.0
2267,58.0,0,24,11.0,0.0
2268,79.0,0,24,11.0,0.0
2269,67.0,30,24,11.0,0.0
2270,46.0,0,24,8.0,0.0
2271,80.0,0,24,11.0,0.0
2272,46.0,30,24,8.0,0.0
2273,68.0,0,24,11.0,0.0
2274,56.0,0,24,11.0,0.0
2275,77.0,0,24,11.0,0.0
2276,65.0,0,24,11.0,0.0
2277,58.0,78,24,11.0,0.0
2278,46.0,0,24,8.0,0.0
2279,75.0,0,96,1.0,0.0
2280,63.0,24,72,5.0,0.0
2281,63.0,0,96,3.0,0.0
2282,51.0,0,72,5.0,0.0
2283,51.0,0,96,13.0,0.0
2284,63.0,0,72,6.0,0.0
2285,67.0,0,96,3.0,0.0
2286,51.0,0,72,6.0,0.0
2287,63.0,0,96,11.0,0.0
2288,51.0,0,96,12.0,0.0
2289,55.0,0,96,11.0,0.0
2290,51.0,0,96,11.0,0.0
2291,79.0,0,96,0.0,0.0
2292,55.0,0,96,4.0,0.0
2293,51.0,0,96,4.0,0.0
2294,51.0,18,96,8.0,0.0
2295,75.0,0,96,11.0,0.0
2296,87.0,0,96,0.0,0.0
2297,63.0,0,24,6.0,0.0
2298,51.0,54,24,6.0,0.0
2299,63.0,0,24,5.0,0.0
2300,51.0,0,24,5.0,0.0
2301,63.0,60,48,6.0,0.0
2302,63.0,0,48,5.0,0.0
2303,51.0,0,48,5.0,0.0
2304,51.0,0,48,6.0,0.0
2305,63.0,60,48,5.0,0.0
2306,51.0,0,48,6.0,0.0
2307,51.0,0,48,5.0,0.0
2308,63.0,0,48,6.0,0.0
2309,51.0,60,48,5.0,0.0
2310,51.0,0,48,6.0,0.0
2311,63.0,0,48,5.0,0.0
2312,63.0,0,48,6.0,0.0
2313,63.0,0,48,5.0,0.0
2314,51.0,84,48,5.0,0.0
2315,63.0,0,48,6.0,0.0
2316,51.0,0,48,6.0,0.0
2317,63.0,24,72,6.0,0.0
2318,51.0,0,72,6.0,0.0
2319,67.0,0,96,3.0,0.0
2320,75.0,0,96,3.0,0.0
2321,51.0,0,96,8.0,0.0
2322,51.0,0,96,13.0,0.0
2323,75.0,0,96,1.0,0.0
2324,51.0,0,96,12.0,0.0
2325,63.0,0,96,11.0,0.0
2326,79.0,0,96,11.0,0.0
2327,70.0,0,96,11.0,0.0
2328,55.0,0,96,11.0,0.0
2329,91.0,0,96,0.0,0.0
2330,51.0,0,72,5.0,0.0
2331,82.0,0,96,0.0,0.0
2332,63.0,0,72,5.0,0.0
2333,51.0,18,96,4.0,0.0
2334,55.0,0,96,4.0,0.0
2335,79.0,0,96,1.0,0.0
2336,51.0,54,24,5.0,0.0
2337,63.0,0,24,5.0,0.0
2338,51.0,0,24,6.0,0.0
2339,63.0,0,24,6.0,0.0
2340,63.0,0,48,5.0,0.0
2341,51.0,0,48,6.0,0.0
2342,63.0,60,48,6.0,0.0
2343,51.0,0,48,5.0,0.0
2344,51.0,0,48,6.0,0.0
2345,63.0,60,48,5.0,0.0
2346,51.0,0,48,5.0,0.0
2347,63.0,0,48,6.0,0.0
2348,51.0,0,48,6.0,0.0
2349,63.0,0,48,6.0,0.0
2350,63.0,0,48,5.0,0.0
2351,51.0,60,48,5.0,0.0
2352,51.0,0,48,5.0,0.0
2353,63.0,0,48,5.0,0.0
2354,51.0,0,48,6.0,0.0
2355,63.0,108,48,6.0,0.0
2356,75.0,0,96,1.0,0.0
2357,63.0,0,96,3.0,0.0
2358,51.0,0,96,12.0,0.0
2359,87.0,0,96,0.0,0.0
2360,79.0,0,96,0.0,0.0
2361,51.0,100,96,6.0,0.0
2362,51.0,0,96,8.0,0.0
2363,51.0,0,96,4.0,0.0
2364,67.0,0,96,3.0,0.0
2365,63.0,0,96,6.0,0.0
2366,51.0,0,96,13.0,0.0
2367,63.0,0,96,11.0,0.0
2368,55.0,0,96,11.0,0.0
2369,63.0,0,96,5.0,0.0
2370,51.0,0,96,5.0,0.0
2371,51.0,0,96,11.0,0.0
2372,51.0,20,16,10.0,0.0
2373,63.0,0,16,7.0,0.0
2374,62.0,20,16,7.0,0.0
2375,50.0,0,16,10.0,0.0
2376,60.0,0,16,7.0,0.0
2377,48.0,20,16,10.0,0.0
2378,58.0,20,16,7.0,0.0
2379,46.0,0,16,10.0,0.0
2380,60.0,0,16,7.0,0.0
2381,48.0,20,16,10.0,0.0
2382,62.0,28,16,7.0,0.0
2383,50.0,0,16,10.0,0.0
2384,51.0,0,24,10.0,0.0
2385,63.0,30,24,7.0,0.0
2386,53.0,0,24,10.0,0.0
2387,65.0,22,24,7.0,0.0
2388,67.0,20,16,7.0,0.0
2389,55.0,0,16,10.0,0.0
2390,53.0,20,16,10.0,0.0
2391,65.0,0,16,7.0,0.0
2392,51.0,0,16,10.0,0.0
2393,63.0,20,16,7.0,0.0
2394,50.0,20,16,10.0,0.0
2395,62.0,0,16,7.0,0.0
2396,63.0,0,16,7.0,0.0
2397,51.0,20,16,10.0,0.0
2398,53.0,0,16,10.0,0.0
2399,65.0,28,16,7.0,0.0
2400,55.0,0,24,10.0,0.0
2401,67.0,30,24,7.0,0.0
2402,56.0,0,24,10.0,0.0
2403,68.0,22,24,7.0,0.0
2404,70.0,20,16,7.0,0.0
2405,58.0,0,16,10.0,0.0
2406,56.0,0,16,10.0,0.0
2407,68.0,20,16,7.0,0.0
2408,67.0,0,16,7.0,0.0
2409,55.0,28,16,10.0,0.0
2410,68.0,30,24,7.0,0.0
2411,56.0,0,24,10.0,0.0
2412,70.0,0,24,7.0,0.0
2413,58.0,30,24,10.0,0.0
2414,72.0,0,24,7.0,0.0
2415,60.0,30,24,10.0,0.0
2416,74.0,0,24,7.0,0.0
2417,62.0,102,24,10.0,0.0
2418,75.0,0,96,7.0,0.0
2419,63.0,100,96,10.0,0.0
2420,63.0,0,16,10.0,0.0
2421,75.0,20,16,7.0,0.0
2422,62.0,20,16,10.0,0.0
2423,74.0,0,16,7.0,0.0
2424,60.0,20,16,10.0,0.0
2425,72.0,0,16,7.0,0.0
2426,58.0,20,16,10.0,0.0
2427,70.0,0,16,7.0,0.0
2428,72.0,20,16,7.0,0.0
2429,60.0,0,16,10.0,0.0
2430,74.0,0,16,7.0,0.0
2431,62.0,28,16,10.0,0.0
2432,75.0,30,24,7.0,0.0
2433,63.0,0,24,10.0,0.0
2434,65.0,22,24,10.0,0.0
2435,77.0,0,24,7.0,0.0
2436,67.0,20,16,10.0,0.0
2437,79.0,0,16,7.0,0.0
2438,65.0,20,16,10.0,0.0
2439,77.0,0,16,7.0,0.0
2440,75.0,20,16,7.0,0.0
2441,63.0,0,16,10.0,0.0
2442,74.0,0,16,7.0,0.0
2443,62.0,20,16,10.0,0.0
2444,75.0,0,16,7.0,0.0
2445,63.0,20,16,10.0,0.0
2446,77.0,0,16,7.0,0.0
2447,65.0,28,16,10.0,0.0
2448,79.0,30,24,7.0,0.0
2449,67.0,0,24,10.0,0.0
2450,68.0,0,24,10.0,0.0
2451,80.0,22,24,7.0,0.0
2452,70.0,0,16,10.0,0.0
2453,82.0,20,16,7.0,0.0
2454,80.0,20,16,7.0,0.0
2455,68.0,0,16,10.0,0.0
2456,67.0,28,16,10.0,0.0
2457,79.0,0,16,7.0,0.0
2458,80.0,0,24,7.0,0.0
2459,68.0,30,24,10.0,0.0
2460,82.0,0,24,7.0,0.0
2461,70.0,30,24,10.0,0.0
2462,84.0,30,24,7.0,0.0
2463,72.0,0,24,10.0,0.0
2464,74.0,0,24,10.0,0.0
2465,86.0,22,24,7.0,0.0
2466,75.0,20,16,10.0,0.0
2467,87.0,0,16,7.0,0.0
2468,74.0,0,16,10.0,0.0
2469,86.0,20,16,7.0,0.0
2470,72.0,0,16,10.0,0.0
2471,84.0,20,16,7.0,0.0
2472,82.0,20,16,7.0,0.0
2473,70.0,0,16,10.0,0.0
2474,72.0,0,16,10.0,0.0
2475,84.0,20,16,7.0,0.0
2476,74.0,0,16,10.0,0.0
2477,86.0,28,16,7.0,0.0
2478,75.0,30,24,10.0,0.0
2479,87.0,0,24,7.0,0.0
2480,77.0,0,24,10.0,0.0
2481,89.0,22,24,7.0,0.0
2482,91.0,0,16,7.0,0.0
2483,79.0,20,16,10.0,0.0
2484,89.0,0,16,7.0,0.0
2485,77.0,20,16,10.0,0.0
2486,75.0,0,16,10.0,0.0
2487,87.0,20,16,7.0,0.0
2488,86.0,0,16,7.0,0.0
2489,74.0,20,16,10.0,0.0
2490,87.0,20,16,7.0,0.0
2491,75.0,0,16,10.0,0.0
2492,77.0,28,16,10.0,0.0
2493,89.0,0,16,7.0,0.0
2494,91.0,30,24,7.0,0.0
2495,79.0,0,24,10.0,0.0
2496,80.0,30,24,10.0,0.0
2497,92.0,0,24,7.0,0.0
2498,82.0,21,24,10.0,0.0
2499,94.0,9,45,7.0,0.0
2500,80.0,21,24,10.0,0.0
2501,92.0,9,45,7.0,0.0
2502,79.0,21,24,10.0,0.0
2503,91.0,9,45,7.0,0.0
2504,96.0,9,45,7.0,0.0
2505,84.0,21,24,10.0,0.0
2506,82.0,21,24,10.0,0.0
2507,94.0,9,45,7.0,0.0
2508,80.0,21,24,10.0,0.0
2509,92.0,9,45,7.0,0.0
2510,79.0,21,24,10.0,0.0
2511,91.0,9,45,7.0,0.0
2512,89.0,9,45,7.0,0.0
2513,77.0,21,24,10.0,0.0
2514,87.0,9,45,7.0,0.0
2515,75.0,21,24,10.0,0.0
2516,74.0,21,24,10.0,0.0
2517,86.0,9,45,7.0,0.0
2518,72.0,21,24,10.0,0.0
2519,84.0,9,45,7.0,0.0
2520,83.0,9,45,7.0,0.0
2521,71.0,21,24,10.0,0.0
2522,70.0,21,24,10.0,0.0
2523,82.0,9,45,7.0,0.0
2524,68.0,21,24,10.0,0.0
2525,80.0,9,45,7.0,0.0
2526,79.0,9,45,7.0,0.0
2527,67.0,21,24,10.0,0.0
2528,84.0,9,45,7.0,0.0
2529,72.0,21,24,10.0,0.0
2530,70.0,21,24,10.0,0.0
2531,82.0,9,45,7.0,0.0
2532,80.0,9,45,7.0,0.0
2533,68.0,21,24,10.0,0.0
2534,67.0,21,24,10.0,0.0
2535,79.0,9,45,7.0,0.0
2536,77.0,9,45,7.0,0.0
2537,65.0,21,24,10.0,0.0
2538,75.0,9,45,7.0,0.0
2539,63.0,21,24,10.0,0.0
2540,62.0,21,24,10.0,0.0
2541,74.0,9,45,7.0,0.0
2542,72.0,9,45,7.0,0.0
2543,60.0,21,24,10.0,0.0
2544,59.0,6,24,10.0,0.0
2545,71.0,48,30,7.0,0.0
2546,67.0,3,285,7.0,0.0
2547,70.0,18,90,7.0,0.0
2548,27.0,0,1356,5.0,0.0
2549,51.0,0,288,10.0,0.0
2550,55.0,42,48,10.0,0.0
2551,58.0,6,48,10.0,0.0
2552,72.0,15,24,7.0,0.0
2553,70.0,15,24,7.0,0.0
2554,69.0,15,24,7.0,0.0
2555,63.0,60,48,10.0,0.0
2556,70.0,9,24,7.0,0.0
2557,79.0,1,119,7.0,0.0
2558,55.0,56,48,10.0,0.0
2559,58.0,60,48,10.0,0.0
2560,75.0,60,48,7.0,0.0
2561,63.0,0,48,10.0,0.0
2562,51.0,0,288,10.0,0.0
2563,56.0,60,48,10.0,0.0
2564,68.0,12,276,7.0,0.0
2565,74.0,34,194,7.0,0.0
2566,60.0,60,48,10.0,0.0
2567,63.0,26,48,10.0,0.0
2568,72.0,49,119,7.0,0.0
2569,56.0,48,48,10.0,0.0
2570,59.0,11,48,10.0,0.0
2571,68.0,60,48,7.0,0.0
2572,63.0,0,48,10.0,0.0
2573,71.0,0,48,7.0,0.0
2574,68.0,24,144,7.0,0.0
2575,65.0,0,144,7.0,0.0
2576,71.0,25,119,7.0,0.0
2577,53.0,0,288,10.0,0.0
2578,56.0,60,48,10.0,0.0
2579,51.0,0,288,10.0,0.0
2580,58.0,11,48,10.0,0.0
2581,62.0,60,48,10.0,0.0
2582,70.0,0,48,7.0,0.0
2583,68.0,0,96,7.0,0.0
2584,70.0,12,96,7.0,0.0
2585,56.0,48,48,10.0,0.0
2586,65.0,0,96,7.0,0.0
2587,58.0,60,48,10.0,0.0
2588,62.0,11,48,10.0,0.0
2589,65.0,0,48,7.0,0.0
2590,70.0,0,48,7.0,0.0
2591,72.0,13,14,7.0,0.0
2592,55.0,9,48,10.0,0.0
2593,51.0,26,288,10.0,0.0
2594,70.0,15,12,7.0,0.0
2595,67.0,12,276,7.0,0.0
2596,72.0,15,12,7.0,0.0
2597,70.0,6,12,7.0,0.0
2598,72.0,15,12,7.0,0.0
2599,70.0,15,12,7.0,0.0
2600,58.0,9,48,10.0,0.0
2601,72.0,15,12,7.0,0.0
2602,70.0,6,12,7.0,0.0
2603,72.0,15,12,7.0,0.0
2604,70.0,15,12,7.0,0.0
2605,63.0,21,48,10.0,0.0
2606,72.0,15,12,7.0,0.0
2607,70.0,6,12,7.0,0.0
2608,69.0,15,24,7.0,0.0
2609,55.0,48,48,10.0,0.0
2610,70.0,24,24,7.0,0.0
2611,75.0,34,119,7.0,0.0
2612,58.0,0,48,10.0,0.0
2613,63.0,24,48,10.0,0.0
2614,70.0,21,12,7.0,0.0
2615,53.0,60,48,10.0,0.0
2616,50.0,0,144,10.0,0.0
2617,65.0,24,144,7.0,0.0
2618,77.0,0,96,7.0,0.0
2619,70.0,15,18,7.0,0.0
2620,58.0,3,48,10.0,0.0
2621,62.0,15,48,10.0,0.0
2622,70.0,24,48,7.0,0.0
2623,55.0,60,48,10.0,0.0
2624,52.0,0,144,10.0,0.0
2625,67.0,24,144,7.0,0.0
2626,70.0,21,12,7.0,0.0
2627,79.0,18,96,7.0,0.0
2628,70.0,0,96,7.0,0.0
2629,58.0,18,48,10.0,0.0
2630,64.0,24,48,10.0,0.0
2631,56.0,60,48,10.0,0.0
2632,53.0,3,288,10.0,0.0
2633,70.0,6,12,7.0,0.0
2634,70.0,30,3,7.0,0.0
2635,68.0,0,276,7.0,0.0
2636,80.0,0,276,7.0,0.0
2637,58.0,60,48,10.0,0.0
2638,68.0,0,48,11.0,0.0
2639,65.0,0,48,11.0,0.0
2640,53.0,0,48,13.0,0.0
2641,65.0,60,48,10.0,0.0
2642,53.0,0,48,12.0,0.0
2643,53.0,0,96,12.0,0.0
2644,56.0,48,48,10.0,0.0
2645,53.0,0,96,13.0,0.0
2646,58.0,0,96,11.0,0.0
2647,68.0,12,96,11.0,0.0
2648,58.0,0,48,10.0,0.0
2649,65.0,15,48,10.0,0.0
2650,56.0,60,48,10.0,0.0
2651,68.0,0,144,7.0,0.0
2652,53.0,24,144,10.0,0.0
2653,70.0,9,3,7.0,0.0
2654,80.0,33,96,7.0,0.0
2655,70.0,0,96,7.0,0.0
2656,58.0,3,48,10.0,0.0
2657,58.0,0,48,11.0,0.0
2658,65.0,15,48,10.0,0.0
2659,55.0,0,144,10.0,0.0
2660,70.0,24,3,7.0,0.0
2661,58.0,12,96,11.0,0.0
2662,58.0,48,48,10.0,0.0
2663,75.0,21,12,7.0,0.0
2664,82.0,18,96,7.0,0.0
2665,75.0,0,96,7.0,0.0
2666,63.0,18,48,10.0,0.0
2667,67.0,24,48,10.0,0.0
2668,75.0,6,12,7.0,0.0
2669,60.0,60,48,10.0,0.0
2670,75.0,30,3,7.0,0.0
2671,84.0,0,276,7.0,0.0
2672,72.0,0,276,7.0,0.0
2673,63.0,60,48,10.0,0.0
2674,56.0,0,48,13.0,0.0
2675,68.0,0,48,10.0,0.0
2676,72.0,0,48,11.0,0.0
2677,56.0,0,48,12.0,0.0
2678,51.0,60,48,11.0,0.0
2679,56.0,0,96,13.0,0.0
2680,56.0,0,96,12.0,0.0
2681,60.0,48,48,10.0,0.0
2682,72.0,0,96,11.0,0.0
2683,56.0,12,96,11.0,0.0
2684,63.0,0,48,10.0,0.0
2685,68.0,15,48,10.0,0.0
2686,65.0,5,504,4.0,0.0
2687,77.0,36,12,7.0,0.0
2688,72.0,9,3,7.0,0.0
2689,60.0,0,144,10.0,0.0
2690,57.0,24,144,10.0,0.0
2691,63.0,60,48,10.0,0.0
2692,84.0,33,96,7.0,0.0
2693,77.0,0,96,7.0,0.0
2694,65.0,3,48,10.0,0.0
2695,69.0,0,48,10.0,0.0
2696,60.0,15,48,11.0,0.0
2697,77.0,45,48,7.0,0.0
2698,58.0,0,144,10.0,0.0
2699,60.0,12,96,11.0,0.0
2700,74.0,24,144,7.0,0.0
2701,62.0,48,48,10.0,0.0
2702,77.0,0,96,7.0,0.0
2703,86.0,33,96,7.0,0.0
2704,65.0,3,48,10.0,0.0
2705,70.0,15,48,10.0,0.0
2706,77.0,141,48,7.0,0.0
2707,75.0,34,194,7.0,0.0
2708,60.0,0,194,10.0,0.0
2709,63.0,0,164,10.0,0.0
2710,77.0,0,164,7.0,0.0
2711,81.0,15,134,7.0,0.0
2712,84.0,15,104,7.0,0.0
2713,65.0,0,134,10.0,0.0
2714,87.0,15,74,7.0,0.0
2715,69.0,0,104,10.0,0.0
2716,72.0,0,74,10.0,0.0
2717,63.0,60,48,4.0,0.0
2718,62.0,60,48,4.0,0.0
2719,60.0,60,48,4.0,0.0
2720,58.0,60,48,4.0,0.0
2721,57.0,60,48,4.0,0.0
2722,55.0,108,48,4.0,0.0
2723,53.0,72,96,4.0,0.0
2724,53.0,146,48,4.0,0.0
2725,77.0,0,194,7.0,0.0
2726,50.0,0,194,10.0,0.0
2727,80.0,15,164,7.0,0.0
2728,53.0,0,164,10.0,0.0
2729,82.0,15,134,7.0,0.0
2730,86.0,15,104,7.0,0.0
2731,56.0,0,134,10.0,0.0
2732,89.0,15,74,7.0,0.0
2733,59.0,34,104,10.0,0.0
2734,62.0,0,74,10.0,0.0
2735,65.0,60,48,4.0,0.0
2736,77.0,0,48,3.0,0.0
2737,75.0,0,48,3.0,0.0
2738,63.0,60,48,4.0,0.0
2739,62.0,60,48,4.0,0.0
2740,74.0,0,48,3.0,0.0
2741,60.0,49,59,4.0,0.0
2742,72.0,11,48,3.0,0.0
2743,71.0,60,48,3.0,0.0
2744,59.0,0,48,4.0,0.0
2745,68.0,0,48,3.0,0.0
2746,56.0,108,48,4.0,0.0
2747,67.0,0,96,3.0,0.0
2748,55.0,72,96,4.0,0.0
2749,67.0,108,48,3.0,0.0
2750,55.0,0,48,4.0,0.0
2751,67.0,48,96,5.0,0.0
2752,79.0,0,96,11.0,0.0
2753,51.0,60,144,11.0,0.0
2754,63.0,0,96,11.0,0.0
2755,55.0,0,96,5.0,0.0
2756,72.0,0,96,11.0,0.0
2757,51.0,0,228,13.0,0.0
2758,67.0,0,96,11.0,0.0
2759,63.0,0,96,6.0,0.0
2760,79.0,0,96,1.0,0.0
2761,72.0,0,96,1.0,0.0
2762,60.0,0,96,11.0,0.0
2763,67.0,0,96,3.0,0.0
2764,63.0,0,96,3.0,0.0
2765,51.0,0,96,8.0,0.0
2766,51.0,0,96,6.0,0.0
2767,51.0,0,96,4.0,0.0
2768,55.0,0,96,4.0,0.0
2769,84.0,0,96,0.0,0.0
2770,39.0,0,228,12.0,0.0
2771,67.0,0,48,3.0,0.0
2772,79.0,0,48,3.0,0.0
2773,91.0,6,48,0.0,0.0
2774,79.0,0,24,11.0,0.0
2775,67.0,0,48,4.0,0.0
2776,51.0,0,48,11.0,0.0
2777,67.0,24,24,11.0,0.0
2778,79.0,0,48,1.0,0.0
2779,67.0,0,24,11.0,0.0
2780,79.0,30,24,11.0,0.0
2781,56.0,0,48,12.0,0.0
2782,77.0,0,24,11.0,0.0
2783,77.0,0,48,1.0,0.0
2784,56.0,0,24,11.0,0.0
2785,56.0,0,48,13.0,0.0
2786,56.0,0,48,4.0,0.0
2787,65.0,0,48,4.0,0.0
2788,65.0,0,48,3.0,0.0
2789,77.0,6,48,3.0,0.0
2790,89.0,0,48,0.0,0.0
2791,65.0,24,24,11.0,0.0
2792,56.0,30,24,11.0,0.0
2793,77.0,0,24,11.0,0.0
2794,65.0,0,24,11.0,0.0
2795,63.0,0,48,4.0,0.0
2796,63.0,0,24,11.0,0.0
2797,55.0,0,48,12.0,0.0
2798,75.0,0,48,1.0,0.0
2799,55.0,0,24,11.0,0.0
2800,63.0,0,48,3.0,0.0
2801,75.0,6,48,3.0,0.0
2802,75.0,24,24,11.0,0.0
2803,87.0,0,48,0.0,0.0
2804,55.0,0,48,13.0,0.0
2805,55.0,0,48,4.0,0.0
2806,55.0,0,24,11.0,0.0
2807,75.0,0,24,11.0,0.0
2808,63.0,30,24,11.0,0.0
2809,74.0,0,59,3.0,0.0
2810,74.0,0,59,1.0,0.0
2811,53.0,6,48,4.0,0.0
2812,62.0,0,59,4.0,0.0
2813,62.0,25,59,3.0,0.0
2814,53.0,0,48,12.0,0.0
2815,86.0,0,59,0.0,0.0
2816,62.0,0,24,11.0,0.0
2817,55.0,0,24,11.0,0.0
2818,74.0,24,24,11.0,0.0
2819,53.0,0,48,13.0,0.0
2820,62.0,0,24,11.0,0.0
2821,55.0,0,24,11.0,0.0
2822,74.0,5,24,11.0,0.0
2823,72.0,0,24,11.0,0.0
2824,60.0,0,48,3.0,0.0
2825,67.0,0,48,5.0,0.0
2826,55.0,0,48,5.0,0.0
2827,72.0,0,48,3.0,0.0
2828,84.0,0,48,0.0,0.0
2829,60.0,0,48,4.0,0.0
2830,51.0,6,48,4.0,0.0
2831,72.0,0,48,1.0,0.0
2832,51.0,0,48,13.0,0.0
2833,60.0,24,24,11.0,0.0
2834,55.0,0,24,11.0,0.0
2835,51.0,0,48,12.0,0.0
2836,55.0,30,24,11.0,0.0
2837,60.0,0,24,11.0,0.0
2838,72.0,0,24,11.0,0.0
2839,50.0,0,48,12.0,0.0
2840,59.0,0,48,4.0,0.0
2841,65.0,0,48,5.0,0.0
2842,55.0,0,24,11.0,0.0
2843,55.0,0,48,5.0,0.0
2844,59.0,0,24,11.0,0.0
2845,50.0,6,48,13.0,0.0
2846,83.0,0,29,0.0,0.0
2847,71.0,5,24,11.0,0.0
2848,71.0,0,48,3.0,0.0
2849,59.0,0,48,3.0,0.0
2850,50.0,0,48,4.0,0.0
2851,71.0,19,29,1.0,0.0
2852,71.0,0,24,11.0,0.0
2853,59.0,30,24,11.0,0.0
2854,55.0,0,24,11.0,0.0
2855,48.0,0,48,12.0,0.0
2856,60.0,0,24,11.0,0.0
2857,63.0,12,96,5.0,0.0
2858,51.0,0,48,8.0,0.0
2859,72.0,0,24,11.0,0.0
2860,84.0,25,119,0.0,0.0
2861,51.0,0,48,6.0,0.0
2862,63.0,0,48,6.0,0.0
2863,72.0,0,119,3.0,0.0
2864,60.0,0,119,4.0,0.0
2865,48.0,0,48,4.0,0.0
2866,60.0,0,119,3.0,0.0
2867,72.0,0,119,1.0,0.0
2868,48.0,6,48,13.0,0.0
2869,72.0,0,24,11.0,0.0
2870,60.0,0,24,11.0,0.0
2871,63.0,0,48,6.0,0.0
2872,51.0,0,48,6.0,0.0
2873,46.0,0,48,12.0,0.0
2874,58.0,0,24,11.0,0.0
2875,72.0,12,24,11.0,0.0
2876,60.0,0,24,11.0,0.0
2877,46.0,0,48,13.0,0.0
2878,46.0,6,48,4.0,0.0
2879,51.0,0,48,8.0,0.0
2880,60.0,5,24,11.0,0.0
2881,58.0,0,24,11.0,0.0
2882,72.0,0,24,11.0,0.0
2883,74.0,24,24,11.0,0.0
2884,45.0,6,48,13.0,0.0
2885,45.0,0,48,12.0,0.0
2886,74.0,0,59,3.0,0.0
2887,62.0,0,59,3.0,0.0
2888,86.0,0,59,0.0,0.0
2889,62.0,0,59,4.0,0.0
2890,74.0,25,59,1.0,0.0
2891,45.0,0,48,4.0,0.0
2892,57.0,0,24,11.0,0.0
2893,62.0,0,24,11.0,0.0
2894,62.0,0,24,11.0,0.0
2895,74.0,0,24,11.0,0.0
2896,57.0,5,24,11.0,0.0
2897,75.0,0,24,11.0,0.0
2898,43.0,0,48,13.0,0.0
2899,55.0,0,24,11.0,0.0
2900,63.0,0,24,11.0,0.0
2901,60.0,5,24,11.0,0.0
2902,63.0,0,48,4.0,0.0
2903,43.0,0,48,4.0,0.0
2904,63.0,6,48,3.0,0.0
2905,75.0,0,48,3.0,0.0
2906,43.0,0,48,12.0,0.0
2907,87.0,0,48,0.0,0.0
2908,75.0,19,29,1.0,0.0
2909,60.0,0,24,11.0,0.0
2910,63.0,0,24,11.0,0.0
2911,55.0,0,24,11.0,0.0
2912,75.0,30,24,11.0,0.0
2913,53.0,0,24,11.0,0.0
2914,87.0,0,59,0.0,0.0
2915,79.0,25,59,0.0,0.0
2916,41.0,0,48,12.0,0.0
2917,41.0,6,48,13.0,0.0
2918,75.0,0,59,3.0,0.0
2919,75.0,0,59,1.0,0.0
2920,55.0,0,59,4.0,0.0
2921,41.0,0,48,4.0,0.0
2922,79.0,0,59,1.0,0.0
2923,67.0,0,59,3.0,0.0
2924,63.0,0,24,11.0,0.0
2925,60.0,0,24,11.0,0.0
2926,60.0,5,24,11.0,0.0
2927,53.0,0,24,11.0,0.0
2928,63.0,0,24,11.0,0.0
2929,53.0,0,48,13.0,0.0
2930,69.0,0,24,11.0,0.0
2931,84.0,25,59,0.0,0.0
2932,53.0,6,48,4.0,0.0
2933,56.0,0,59,4.0,0.0
2934,81.0,0,59,0.0,0.0
2935,53.0,0,48,12.0,0.0
2936,60.0,0,24,11.0,0.0
2937,72.0,0,59,3.0,0.0
2938,65.0,24,24,11.0,0.0
2939,65.0,0,48,5.0,0.0
2940,63.0,0,24,11.0,0.0
2941,81.0,0,59,1.0,0.0
2942,69.0,0,59,3.0,0.0
2943,72.0,0,59,1.0,0.0
2944,60.0,0,24,11.0,0.0
2945,69.0,5,24,11.0,0.0
2946,63.0,0,24,11.0,0.0
2947,65.0,0,24,11.0,0.0
2948,70.0,24,24,11.0,0.0
2949,62.0,0,24,11.0,0.0
2950,58.0,0,24,11.0,0.0
2951,53.0,6,48,12.0,0.0
2952,70.0,0,119,3.0,0.0
2953,65.0,12,96,5.0,0.0
2954,53.0,0,48,13.0,0.0
2955,74.0,0,119,1.0,0.0
2956,82.0,0,119,1.0,0.0
2957,74.0,0,119,3.0,0.0
2958,58.0,25,119,4.0,0.0
2959,53.0,0,48,4.0,0.0
2960,65.0,0,24,11.0,0.0
2961,82.0,0,119,0.0,0.0
2962,86.0,0,119,0.0,0.0
2963,70.0,0,24,11.0,0.0
2964,62.0,0,24,11.0,0.0
2965,65.0,30,24,11.0,0.0
2966,58.0,0,24,11.0,0.0
2967,53.0,0,48,4.0,0.0
2968,62.0,0,24,11.0,0.0
2969,58.0,0,24,11.0,0.0
2970,53.0,6,48,13.0,0.0
2971,70.0,12,24,11.0,0.0
2972,53.0,0,48,12.0,0.0
2973,70.0,0,24,11.0,0.0
2974,58.0,5,24,11.0,0.0
2975,62.0,0,24,11.0,0.0
2976,65.0,0,48,5.0,0.0
2977,57.0,24,24,11.0,0.0
2978,72.0,0,24,11.0,0.0
2979,69.0,6,48,3.0,0.0
2980,72.0,0,48,3.0,0.0
2981,81.0,0,48,1.0,0.0
2982,84.0,0,48,1.0,0.0
2983,53.0,0,48,12.0,0.0
2984,84.0,0,48,0.0,0.0
2985,81.0,0,48,0.0,0.0
2986,60.0,0,24,11.0,0.0
2987,53.0,0,48,4.0,0.0
2988,60.0,0,48,4.0,0.0
2989,53.0,0,48,13.0,0.0
2990,72.0,0,24,11.0,0.0
2991,60.0,102,24,11.0,0.0
2992,57.0,0,24,11.0,0.0
2993,60.0,0,96,4.0,0.0
2994,81.0,0,112,1.0,0.0
2995,84.0,116,112,1.0,0.0
2996,53.0,0,96,13.0,0.0
2997,53.0,16,96,4.0,0.0
2998,53.0,0,96,11.0,0.0
2999,81.0,0,96,0.0,0.0
3000,72.0,0,96,3.0,0.0
3001,65.0,0,96,5.0,0.0
3002,84.0,0,96,0.0,0.0
3003,69.0,0,96,3.0,0.0
3004,65.0,0,96,11.0,0.0
3005,72.0,0,96,11.0,0.0
3006,57.0,0,96,11.0,0.0
3007,53.0,0,96,12.0,0.0
3008,87.0,0,48,7.0,0.0
3009,63.0,60,48,10.0,0.0
3010,75.0,0,48,7.0,0.0
3011,74.0,0,48,7.0,0.0
3012,86.0,60,48,7.0,0.0
3013,62.0,0,48,10.0,0.0
3014,84.0,0,48,7.0,0.0
3015,72.0,0,48,7.0,0.0
3016,60.0,60,48,10.0,0.0
3017,70.0,0,48,7.0,0.0
3018,82.0,0,48,7.0,0.0
3019,58.0,60,48,10.0,0.0
3020,69.0,0,48,7.0,0.0
3021,57.0,0,48,10.0,0.0
3022,81.0,60,48,7.0,0.0
3023,67.0,0,48,7.0,0.0
3024,55.0,0,48,10.0,0.0
3025,79.0,108,48,7.0,0.0
3026,77.0,0,96,7.0,0.0
3027,53.0,0,96,10.0,0.0
3028,65.0,72,96,7.0,0.0
3029,53.0,0,48,10.0,0.0
3030,65.0,0,48,7.0,0.0
3031,77.0,108,48,7.0,0.0
3032,50.0,0,96,13.0,0.0
3033,83.0,0,96,0.0,0.0
3034,50.0,0,96,12.0,0.0
3035,59.0,0,96,11.0,0.0
3036,86.0,0,96,0.0,0.0
3037,62.0,0,96,4.0,0.0
3038,77.0,0,96,1.0,0.0
3039,59.0,0,96,4.0,0.0
3040,71.0,0,96,3.0,0.0
3041,68.0,0,96,3.0,0.0
3042,74.0,0,96,11.0,0.0
3043,65.0,132,96,11.0,0.0
3044,65.0,0,96,5.0,0.0
3045,53.0,0,96,11.0,0.0
3046,56.0,0,96,11.0,0.0
3047,80.0,0,96,1.0,0.0
3048,89.0,0,48,7.0,0.0
3049,77.0,0,48,7.0,0.0
3050,65.0,60,48,10.0,0.0
3051,75.0,60,48,7.0,0.0
3052,63.0,0,48,10.0,0.0
3053,87.0,0,48,7.0,0.0
3054,62.0,60,48,10.0,0.0
3055,86.0,0,48,7.0,0.0
3056,74.0,0,48,7.0,0.0
3057,84.0,0,48,7.0,0.0
3058,60.0,60,48,10.0,0.0
3059,72.0,0,48,7.0,0.0
3060,83.0,0,48,7.0,0.0
3061,71.0,0,48,7.0,0.0
3062,59.0,60,48,10.0,0.0
3063,68.0,0,48,7.0,0.0
3064,80.0,0,48,7.0,0.0
3065,56.0,108,48,10.0,0.0
3066,67.0,0,96,7.0,0.0
3067,79.0,0,96,7.0,0.0
3068,55.0,72,96,10.0,0.0
3069,67.0,0,48,7.0,0.0
3070,55.0,0,48,10.0,0.0
3071,79.0,36,48,7.0,0.0
3072,51.0,0,96,12.0,0.0
3073,60.0,18,96,11.0,0.0
3074,55.0,0,96,11.0,0.0
3075,51.0,0,96,13.0,0.0
3076,39.0,30,24,10.0,0.0
3077,67.0,0,96,11.0,0.0
3078,43.0,30,24,10.0,0.0
3079,48.0,12,24,10.0,0.0
3080,51.0,12,24,10.0,0.0
3081,55.0,7,6,7.0,0.0
3082,60.0,8,6,7.0,0.0
3083,63.0,7,6,7.0,0.0
3084,67.0,8,6,7.0,0.0
3085,72.0,7,6,7.0,0.0
3086,75.0,8,6,7.0,0.0
3087,79.0,7,6,7.0,0.0
3088,84.0,8,6,7.0,0.0
3089,87.0,42,6,7.0,0.0
3090,67.0,7,48,10.0,0.0
3091,79.0,53,48,7.0,0.0
3092,91.0,0,48,7.0,0.0
3093,65.0,7,48,10.0,0.0
3094,77.0,53,48,7.0,0.0
3095,89.0,0,48,7.0,0.0
3096,63.0,7,48,10.0,0.0
3097,75.0,0,48,7.0,0.0
3098,87.0,53,48,7.0,0.0
3099,86.0,0,48,7.0,0.0
3100,62.0,60,48,10.0,0.0
3101,74.0,0,48,7.0,0.0
3102,60.0,60,48,10.0,0.0
3103,72.0,0,48,7.0,0.0
3104,84.0,0,48,7.0,0.0
3105,59.0,0,48,10.0,0.0
3106,71.0,24,48,7.0,0.0
3107,83.0,0,48,7.0,0.0
3108,60.0,0,12,10.0,0.0
3109,72.0,3,96,7.0,0.0
3110,84.0,15,12,7.0,0.0
3111,86.0,15,12,7.0,0.0
3112,62.0,0,12,10.0,0.0
3113,60.0,15,12,10.0,0.0
3114,84.0,0,12,7.0,0.0
3115,62.0,15,12,10.0,0.0
3116,86.0,0,12,7.0,0.0
3117,59.0,3,24,10.0,0.0
3118,84.0,12,12,7.0,0.0
3119,86.0,9,12,7.0,0.0
3120,82.0,15,24,7.0,0.0
3121,60.0,15,24,10.0,0.0
3122,84.0,39,24,7.0,0.0
3123,62.0,15,48,10.0,0.0
3124,86.0,45,48,7.0,0.0
3125,63.0,0,48,10.0,0.0
3126,75.0,0,48,7.0,0.0
3127,87.0,60,48,7.0,0.0
3128,79.0,60,48,7.0,0.0
3129,67.0,0,48,7.0,0.0
3130,55.0,0,48,10.0,0.0
3131,81.0,0,48,7.0,0.0
3132,69.0,0,48,7.0,0.0
3133,57.0,108,48,10.0,0.0
3134,70.0,34,134,7.0,0.0
3135,82.0,0,134,7.0,0.0
3136,58.0,38,96,10.0,0.0
3137,53.0,0,48,14.0,0.0
3138,60.0,0,48,11.0,0.0
3139,60.0,0,48,10.0,0.0
3140,57.0,24,48,11.0,0.0
3141,41.0,0,48,14.0,0.0
3142,84.0,0,48,7.0,0.0
3143,72.0,0,48,7.0,0.0
3144,72.0,12,12,7.0,0.0
3145,57.0,6,648,11.0,0.0
3146,53.0,18,96,14.0,0.0
3147,60.0,0,648,11.0,0.0
3148,41.0,0,96,14.0,0.0
3149,53.0,30,24,10.0,0.0
3150,84.0,21,228,7.0,0.0
3151,57.0,30,24,10.0,0.0
3152,60.0,12,24,10.0,0.0
3153,57.0,30,24,10.0,0.0
3154,60.0,30,24,10.0,0.0
3155,57.0,30,24,10.0,0.0
3156,53.0,30,24,10.0,0.0
3157,53.0,18,96,14.0,0.0
3158,41.0,0,96,14.0,0.0
3159,57.0,9,24,10.0,0.0
3160,60.0,12,24,10.0,0.0
3161,82.0,21,48,7.0,0.0
3162,57.0,9,24,10.0,0.0
3163,60.0,30,24,10.0,0.0
3164,81.0,21,48,7.0,0.0
3165,57.0,9,24,10.0,0.0
3166,53.0,30,24,10.0,0.0
3167,41.0,0,96,14.0,0.0
3168,53.0,12,96,14.0,0.0
3169,79.0,10,74,7.0,0.0
3170,57.0,20,24,10.0,0.0
3171,60.0,12,24,10.0,0.0
3172,81.0,6,48,7.0,0.0
3173,57.0,30,24,10.0,0.0
3174,60.0,24,24,10.0,0.0
3175,77.0,6,48,7.0,0.0
3176,57.0,30,24,10.0,0.0
3177,53.0,30,24,10.0,0.0
3178,53.0,0,96,14.0,0.0
3179,41.0,12,96,14.0,0.0
3180,79.0,10,74,7.0,0.0
3181,57.0,20,24,10.0,0.0
3182,60.0,12,24,10.0,0.0
3183,81.0,0,48,7.0,0.0
3184,57.0,30,24,10.0,0.0
3185,77.0,6,48,7.0,0.0
3186,60.0,24,24,10.0,0.0
3187,57.0,30,24,10.0,0.0
3188,53.0,30,24,10.0,0.0
3189,58.0,6,648,11.0,0.0
3190,41.0,0,96,14.0,0.0
3191,62.0,0,648,11.0,0.0
3192,77.0,6,228,7.0,0.0
3193,53.0,18,96,14.0,0.0
3194,58.0,30,24,10.0,0.0
3195,62.0,12,24,10.0,0.0
3196,86.0,0,168,7.0,0.0
3197,58.0,30,24,10.0,0.0
3198,62.0,30,24,10.0,0.0
3199,58.0,30,24,10.0,0.0
3200,53.0,24,24,10.0,0.0
3201,41.0,12,96,14.0,0.0
3202,53.0,0,96,14.0,0.0
3203,58.0,30,24,10.0,0.0
3204,84.0,6,48,7.0,0.0
3205,62.0,12,24,10.0,0.0
3206,58.0,30,24,10.0,0.0
3207,82.0,6,48,7.0,0.0
3208,62.0,24,24,10.0,0.0
3209,58.0,30,24,10.0,0.0
3210,53.0,30,24,10.0,0.0
3211,41.0,12,96,14.0,0.0
3212,81.0,10,74,7.0,0.0
3213,53.0,0,96,14.0,0.0
3214,58.0,20,24,10.0,0.0
3215,62.0,12,24,10.0,0.0
3216,82.0,6,48,7.0,0.0
3217,58.0,30,24,10.0,0.0
3218,77.0,6,48,7.0,0.0
3219,62.0,24,24,10.0,0.0
3220,58.0,30,24,10.0,0.0
3221,81.0,10,74,7.0,0.0
3222,53.0,12,96,14.0,0.0
3223,41.0,0,96,14.0,0.0
3224,53.0,30,24,10.0,0.0
3225,58.0,20,24,10.0,0.0
3226,82.0,0,48,7.0,0.0
3227,62.0,12,24,10.0,0.0
3228,58.0,30,24,10.0,0.0
3229,62.0,24,24,10.0,0.0
3230,77.0,6,48,7.0,0.0
3231,58.0,30,24,10.0,0.0
3232,63.0,0,648,11.0,0.0
3233,53.0,30,24,10.0,0.0
3234,53.0,0,96,14.0,0.0
3235,41.0,18,96,14.0,0.0
3236,60.0,6,648,11.0,0.0
3237,77.0,30,144,7.0,0.0
3238,60.0,30,24,10.0,0.0
3239,63.0,12,24,10.0,0.0
3240,87.0,6,168,7.0,0.0
3241,60.0,30,24,10.0,0.0
3242,63.0,0,24,10.0,0.0
3243,60.0,30,24,10.0,0.0
3244,41.0,12,96,14.0,0.0
3245,53.0,24,24,10.0,0.0
3246,53.0,0,96,14.0,0.0
3247,60.0,30,24,10.0,0.0
3248,86.0,6,48,7.0,0.0
3249,63.0,12,24,10.0,0.0
3250,60.0,30,24,10.0,0.0
3251,84.0,6,48,7.0,0.0
3252,63.0,24,24,10.0,0.0
3253,60.0,30,24,10.0,0.0
3254,53.0,30,24,10.0,0.0
3255,53.0,12,96,14.0,0.0
3256,41.0,0,96,14.0,0.0
3257,83.0,10,74,7.0,0.0
3258,60.0,20,24,10.0,0.0
3259,63.0,12,24,10.0,0.0
3260,84.0,6,48,7.0,0.0
3261,60.0,30,24,10.0,0.0
3262,77.0,6,48,7.0,0.0
3263,63.0,24,24,10.0,0.0
3264,60.0,30,24,10.0,0.0
3265,41.0,12,96,14.0,0.0
3266,53.0,0,96,14.0,0.0
3267,53.0,30,24,10.0,0.0
3268,83.0,25,59,7.0,0.0
3269,60.0,5,24,10.0,0.0
3270,84.0,0,48,7.0,0.0
3271,63.0,12,24,10.0,0.0
3272,60.0,30,24,10.0,0.0
3273,63.0,20,24,10.0,0.0
3274,77.0,10,44,7.0,0.0
3275,89.0,0,24,7.0,0.0
3276,60.0,30,24,10.0,0.0
3277,34.0,18,96,14.0,0.0
3278,58.0,0,24,10.0,0.0
3279,46.0,0,96,14.0,0.0
3280,58.0,0,209,11.0,0.0
3281,89.0,30,24,7.0,0.0
3282,62.0,25,209,11.0,0.0
3283,62.0,0,24,10.0,0.0
3284,65.0,30,24,10.0,0.0
3285,86.0,0,24,7.0,0.0
3286,70.0,0,24,10.0,0.0
3287,82.0,12,24,7.0,0.0
3288,65.0,0,24,10.0,0.0
3289,89.0,0,24,7.0,0.0
3290,62.0,30,24,10.0,0.0
3291,86.0,30,24,7.0,0.0
3292,70.0,0,24,10.0,0.0
3293,65.0,0,24,10.0,0.0
3294,62.0,0,24,10.0,0.0
3295,82.0,30,24,7.0,0.0
3296,91.0,5,24,7.0,0.0
3297,58.0,0,24,10.0,0.0
3298,67.0,10,224,11.0,0.0
3299,63.0,15,209,11.0,0.0
3300,63.0,0,24,10.0,0.0
3301,87.0,0,24,7.0,0.0
3302,67.0,30,24,10.0,0.0
3303,70.0,0,24,10.0,0.0
3304,82.0,30,24,7.0,0.0
3305,63.0,0,24,10.0,0.0
3306,67.0,30,24,10.0,0.0
3307,91.0,0,24,7.0,0.0
3308,70.0,30,24,10.0,0.0
3309,87.0,0,24,7.0,0.0
3310,67.0,0,24,10.0,0.0
3311,63.0,0,24,10.0,0.0
3312,82.0,30,24,7.0,0.0
3313,89.0,5,24,7.0,0.0
3314,58.0,0,24,10.0,0.0
3315,62.0,0,209,11.0,0.0
3316,65.0,25,209,11.0,0.0
3317,65.0,0,24,10.0,0.0
3318,62.0,0,24,10.0,0.0
3319,86.0,30,24,7.0,0.0
3320,70.0,0,24,10.0,0.0
3321,82.0,30,24,7.0,0.0
3322,62.0,0,24,10.0,0.0
3323,65.0,0,24,10.0,0.0
3324,89.0,30,24,7.0,0.0
3325,86.0,30,24,7.0,0.0
3326,70.0,0,24,10.0,0.0
3327,82.0,30,24,7.0,0.0
3328,62.0,0,24,10.0,0.0
3329,65.0,0,24,10.0,0.0
3330,58.0,5,24,10.0,0.0
3331,46.0,0,96,14.0,0.0
3332,60.0,0,144,11.0,0.0
3333,89.0,0,24,7.0,0.0
3334,34.0,12,96,14.0,0.0
3335,63.0,0,144,11.0,0.0
3336,65.0,0,24,10.0,0.0
3337,60.0,0,24,10.0,0.0
3338,87.0,30,24,7.0,0.0
3339,69.0,12,24,10.0,0.0
3340,84.0,0,24,7.0,0.0
3341,60.0,30,24,10.0,0.0
3342,89.0,0,24,7.0,0.0
3343,65.0,0,24,10.0,0.0
3344,87.0,0,24,7.0,0.0
3345,46.0,0,48,14.0,0.0
3346,34.0,6,48,14.0,0.0
3347,69.0,24,24,10.0,0.0
3348,84.0,0,24,7.0,0.0
3349,60.0,0,24,10.0,0.0
3350,65.0,30,24,10.0,0.0
3351,46.0,0,96,14.0,0.0
3352,34.0,18,96,14.0,0.0
3353,62.0,10,224,11.0,0.0
3354,58.0,0,24,10.0,0.0
3355,58.0,10,194,11.0,0.0
3356,89.0,30,24,7.0,0.0
3357,65.0,0,24,10.0,0.0
3358,86.0,30,24,7.0,0.0
3359,82.0,0,24,7.0,0.0
3360,70.0,12,24,10.0,0.0
3361,62.0,0,24,10.0,0.0
3362,89.0,30,24,7.0,0.0
3363,65.0,0,24,10.0,0.0
3364,86.0,0,24,7.0,0.0
3365,70.0,30,24,10.0,0.0
3366,65.0,20,24,10.0,0.0
3367,62.0,0,24,10.0,0.0
3368,82.0,0,24,7.0,0.0
3369,91.0,0,24,7.0,0.0
3370,58.0,20,24,10.0,0.0
3371,63.0,10,194,11.0,0.0
3372,67.0,25,209,11.0,0.0
3373,87.0,0,24,7.0,0.0
3374,63.0,30,24,10.0,0.0
3375,67.0,0,24,10.0,0.0
3376,70.0,30,24,10.0,0.0
3377,82.0,0,24,7.0,0.0
3378,67.0,0,24,10.0,0.0
3379,63.0,0,24,10.0,0.0
3380,91.0,30,24,7.0,0.0
3381,87.0,0,24,7.0,0.0
3382,70.0,30,24,10.0,0.0
3383,82.0,0,24,7.0,0.0
3384,63.0,20,24,10.0,0.0
3385,67.0,0,24,10.0,0.0
3386,62.0,25,209,11.0,0.0
3387,58.0,0,24,10.0,0.0
3388,89.0,5,24,7.0,0.0
3389,65.0,10,194,11.0,0.0
3390,62.0,0,24,10.0,0.0
3391,86.0,30,24,7.0,0.0
3392,65.0,0,24,10.0,0.0
3393,70.0,30,24,10.0,0.0
3394,82.0,0,24,7.0,0.0
3395,62.0,0,24,10.0,0.0
3396,65.0,30,24,10.0,0.0
3397,89.0,0,24,7.0,0.0
3398,70.0,30,24,10.0,0.0
3399,86.0,0,24,7.0,0.0
3400,62.0,20,24,10.0,0.0
3401,82.0,0,24,7.0,0.0
3402,65.0,0,24,10.0,0.0
3403,46.0,0,96,12.0,0.0
3404,89.0,0,24,7.0,0.0
3405,60.0,24,144,11.0,0.0
3406,46.0,12,96,13.0,0.0
3407,63.0,0,144,11.0,0.0
3408,58.0,5,24,10.0,0.0
3409,87.0,0,24,7.0,0.0
3410,65.0,30,24,10.0,0.0
3411,60.0,0,24,10.0,0.0
3412,69.0,12,24,10.0,0.0
3413,84.0,0,24,7.0,0.0
3414,60.0,0,24,10.0,0.0
3415,89.0,30,24,7.0,0.0
3416,65.0,0,24,10.0,0.0
3417,46.0,6,48,13.0,0.0
3418,46.0,0,48,12.0,0.0
3419,69.0,0,24,10.0,0.0
3420,87.0,0,24,7.0,0.0
3421,60.0,0,24,10.0,0.0
3422,84.0,30,24,7.0,0.0
3423,65.0,0,24,10.0,0.0
3424,46.0,0,144,13.0,0.0
3425,46.0,0,144,12.0,0.0
3426,58.0,25,209,11.0,0.0
3427,89.0,0,24,7.0,0.0
3428,62.0,10,194,11.0,0.0
3429,58.0,30,24,10.0,0.0
3430,62.0,30,24,10.0,0.0
3431,65.0,0,24,10.0,0.0
3432,86.0,0,24,7.0,0.0
3433,82.0,30,24,7.0,0.0
3434,70.0,0,24,10.0,0.0
3435,62.0,0,24,10.0,0.0
3436,65.0,0,24,10.0,0.0
3437,89.0,30,24,7.0,0.0
3438,70.0,0,24,10.0,0.0
3439,86.0,30,24,7.0,0.0
3440,82.0,0,24,7.0,0.0
3441,65.0,20,24,10.0,0.0
3442,62.0,0,24,10.0,0.0
3443,91.0,0,24,7.0,0.0
3444,58.0,5,24,10.0,0.0
3445,51.0,30,144,13.0,0.0
3446,51.0,0,144,12.0,0.0
3447,67.0,0,209,11.0,0.0
3448,63.0,25,209,11.0,0.0
3449,67.0,30,24,10.0,0.0
3450,63.0,0,24,10.0,0.0
3451,87.0,0,24,7.0,0.0
3452,82.0,30,24,7.0,0.0
3453,70.0,0,24,10.0,0.0
3454,91.0,0,24,7.0,0.0
3455,63.0,30,24,10.0,0.0
3456,67.0,0,24,10.0,0.0
3457,70.0,0,24,10.0,0.0
3458,87.0,0,24,7.0,0.0
3459,67.0,0,24,10.0,0.0
3460,82.0,30,24,7.0,0.0
3461,63.0,0,24,10.0,0.0
3462,65.0,0,209,11.0,0.0
3463,46.0,30,144,12.0,0.0
3464,62.0,25,209,11.0,0.0
3465,89.0,0,24,7.0,0.0
3466,46.0,0,144,13.0,0.0
3467,58.0,5,24,10.0,0.0
3468,62.0,0,24,10.0,0.0
3469,65.0,0,24,10.0,0.0
3470,86.0,30,24,7.0,0.0
3471,70.0,0,24,10.0,0.0
3472,82.0,30,24,7.0,0.0
3473,89.0,0,24,7.0,0.0
3474,62.0,30,24,10.0,0.0
3475,65.0,0,24,10.0,0.0
3476,86.0,0,24,7.0,0.0
3477,70.0,0,24,10.0,0.0
3478,62.0,30,24,10.0,0.0
3479,65.0,0,24,10.0,0.0
3480,82.0,0,24,7.0,0.0
3481,91.0,5,24,7.0,0.0
3482,51.0,0,144,13.0,0.0
3483,67.0,0,144,11.0,0.0
3484,63.0,0,144,11.0,0.0
3485,51.0,0,144,12.0,0.0
3486,58.0,0,24,10.0,0.0
3487,63.0,0,24,10.0,0.0
3488,67.0,30,24,10.0,0.0
3489,87.0,0,24,7.0,0.0
3490,82.0,24,24,7.0,0.0
3491,70.0,0,24,10.0,0.0
3492,91.0,0,24,7.0,0.0
3493,67.0,30,24,10.0,0.0
3494,63.0,0,24,10.0,0.0
3495,70.0,0,24,10.0,0.0
3496,87.0,30,24,7.0,0.0
3497,82.0,30,24,7.0,0.0
3498,63.0,0,24,10.0,0.0
3499,67.0,0,24,10.0,0.0
3500,46.0,0,96,13.0,0.0
3501,46.0,0,96,12.0,0.0
3502,58.0,30,24,10.0,0.0
3503,58.0,0,96,11.0,0.0
3504,65.0,18,96,11.0,0.0
3505,89.0,0,24,7.0,0.0
3506,62.0,0,96,11.0,0.0
3507,62.0,30,24,10.0,0.0
3508,86.0,0,24,7.0,0.0
3509,65.0,12,24,10.0,0.0
3510,82.0,0,24,7.0,0.0
3511,58.0,30,24,10.0,0.0
3512,91.0,0,24,7.0,0.0
3513,63.0,6,48,11.0,0.0
3514,51.0,0,48,13.0,0.0
3515,67.0,0,48,11.0,0.0
3516,58.0,0,48,11.0,0.0
3517,87.0,0,24,7.0,0.0
3518,51.0,0,48,12.0,0.0
3519,63.0,24,24,10.0,0.0
3520,82.0,30,24,7.0,0.0
3521,67.0,0,24,10.0,0.0
3522,46.0,0,96,12.0,0.0
3523,58.0,0,96,11.0,0.0
3524,89.0,30,24,7.0,0.0
3525,46.0,0,96,13.0,0.0
3526,62.0,2,112,11.0,0.0
3527,58.0,0,24,10.0,0.0
3528,65.0,16,96,11.0,0.0
3529,62.0,30,24,10.0,0.0
3530,86.0,0,24,7.0,0.0
3531,82.0,0,24,7.0,0.0
3532,65.0,12,24,10.0,0.0
3533,91.0,30,24,7.0,0.0
3534,58.0,0,24,10.0,0.0
3535,58.0,0,48,11.0,0.0
3536,63.0,0,24,10.0,0.0
3537,51.0,0,48,13.0,0.0
3538,87.0,24,24,7.0,0.0
3539,51.0,0,48,12.0,0.0
3540,63.0,0,48,11.0,0.0
3541,67.0,6,48,11.0,0.0
3542,67.0,0,24,10.0,0.0
3543,82.0,30,24,7.0,0.0
3544,58.0,30,24,10.0,0.0
3545,46.0,18,96,12.0,0.0
3546,89.0,0,24,7.0,0.0
3547,65.0,0,96,11.0,0.0
3548,58.0,0,96,11.0,0.0
3549,46.0,0,96,13.0,0.0
3550,62.0,0,96,11.0,0.0
3551,86.0,0,24,7.0,0.0
3552,62.0,30,24,10.0,0.0
3553,82.0,12,24,7.0,0.0
3554,65.0,0,24,10.0,0.0
3555,91.0,30,24,7.0,0.0
3556,58.0,0,24,10.0,0.0
3557,87.0,24,24,7.0,0.0
3558,58.0,0,48,11.0,0.0
3559,51.0,0,48,12.0,0.0
3560,51.0,0,48,13.0,0.0
3561,63.0,0,24,10.0,0.0
3562,67.0,6,48,11.0,0.0
3563,63.0,0,48,11.0,0.0
3564,67.0,30,24,10.0,0.0
3565,82.0,0,24,7.0,0.0
3566,89.0,0,24,7.0,0.0
3567,65.0,0,96,11.0,0.0
3568,58.0,18,96,11.0,0.0
3569,46.0,0,96,13.0,0.0
3570,58.0,30,24,10.0,0.0
3571,46.0,0,96,12.0,0.0
3572,62.0,0,96,11.0,0.0
3573,86.0,0,24,7.0,0.0
3574,62.0,30,24,10.0,0.0
3575,65.0,12,24,10.0,0.0
3576,82.0,0,24,7.0,0.0
3577,91.0,0,24,7.0,0.0
3578,58.0,30,24,10.0,0.0
3579,67.0,0,48,11.0,0.0
3580,51.0,0,48,13.0,0.0
3581,63.0,6,48,11.0,0.0
3582,58.0,0,48,11.0,0.0
3583,87.0,0,24,7.0,0.0
3584,63.0,24,24,10.0,0.0
3585,51.0,0,48,12.0,0.0
3586,82.0,0,24,7.0,0.0
3587,67.0,30,24,10.0,0.0
3588,68.0,0,96,11.0,0.0
3589,46.0,0,96,13.0,0.0
3590,65.0,0,96,11.0,0.0
3591,46.0,0,96,12.0,0.0
3592,58.0,0,96,11.0,0.0
3593,80.0,24,24,7.0,0.0
3594,68.0,6,48,10.0,0.0
3595,62.0,12,96,11.0,0.0
3596,92.0,30,24,7.0,0.0
3597,65.0,6,48,10.0,0.0
3598,77.0,12,24,7.0,0.0
3599,89.0,30,24,7.0,0.0
3600,62.0,6,48,10.0,0.0
3601,74.0,24,24,7.0,0.0
3602,86.0,30,24,7.0,0.0
3603,58.0,6,48,10.0,0.0
3604,70.0,24,24,7.0,0.0
3605,82.0,30,24,7.0,0.0
3606,68.0,24,24,7.0,0.0
3607,56.0,6,48,10.0,0.0
3608,80.0,30,24,7.0,0.0
3609,65.0,24,24,7.0,0.0
3610,53.0,6,48,10.0,0.0
3611,77.0,30,24,7.0,0.0
3612,62.0,24,24,7.0,0.0
3613,50.0,6,48,10.0,0.0
3614,74.0,30,24,7.0,0.0
3615,46.0,6,48,10.0,0.0
3616,58.0,24,24,7.0,0.0
3617,70.0,30,24,7.0,0.0
3618,44.0,6,48,10.0,0.0
3619,56.0,24,24,7.0,0.0
3620,68.0,30,24,7.0,0.0
3621,53.0,24,24,7.0,0.0
3622,41.0,6,48,10.0,0.0
3623,65.0,30,24,7.0,0.0
3624,50.0,24,24,7.0,0.0
3625,38.0,6,48,10.0,0.0
3626,62.0,30,24,7.0,0.0
3627,46.0,24,24,7.0,0.0
3628,34.0,6,48,10.0,0.0
3629,58.0,30,24,7.0,0.0
3630,50.0,24,24,7.0,0.0
3631,38.0,6,48,10.0,0.0
3632,62.0,30,24,7.0,0.0
3633,41.0,6,48,10.0,0.0
3634,53.0,24,24,7.0,0.0
3635,65.0,30,24,7.0,0.0
3636,56.0,24,24,7.0,0.0
3637,44.0,6,48,10.0,0.0
3638,68.0,30,24,7.0,0.0
3639,58.0,24,24,7.0,0.0
3640,46.0,6,48,10.0,0.0
3641,70.0,30,24,7.0,0.0
3642,50.0,6,48,10.0,0.0
3643,62.0,24,24,7.0,0.0
3644,74.0,30,24,7.0,0.0
3645,53.0,6,48,10.0,0.0
3646,65.0,24,24,7.0,0.0
3647,77.0,30,24,7.0,0.0
3648,68.0,24,24,7.0,0.0
3649,56.0,6,48,10.0,0.0
3650,80.0,30,24,7.0,0.0
3651,70.0,24,24,7.0,0.0
3652,58.0,6,48,10.0,0.0
3653,82.0,30,24,7.0,0.0
3654,62.0,6,48,10.0,0.0
3655,74.0,24,24,7.0,0.0
3656,86.0,30,24,7.0,0.0
3657,65.0,6,48,10.0,0.0
3658,77.0,24,24,7.0,0.0
3659,89.0,30,24,7.0,0.0
3660,80.0,24,24,7.0,0.0
3661,68.0,6,48,10.0,0.0
3662,92.0,30,24,7.0,0.0
3663,70.0,6,48,10.0,0.0
3664,82.0,24,24,7.0,0.0
3665,94.0,30,24,7.0,0.0
3666,83.0,24,24,7.0,0.0
3667,71.0,6,48,10.0,0.0
3668,95.0,30,24,7.0,0.0
3669,59.0,6,48,10.0,0.0
3670,71.0,24,24,7.0,0.0
3671,83.0,30,24,7.0,0.0
3672,70.0,24,24,7.0,0.0
3673,58.0,6,48,10.0,0.0
3674,82.0,30,24,7.0,0.0
3675,83.0,24,24,7.0,0.0
3676,71.0,6,48,10.0,0.0
3677,95.0,30,24,7.0,0.0
3678,71.0,24,24,7.0,0.0
3679,59.0,6,48,10.0,0.0
3680,83.0,30,24,7.0,0.0
3681,70.0,24,24,7.0,0.0
3682,58.0,6,48,10.0,0.0
3683,82.0,30,24,7.0,0.0
3684,71.0,6,48,10.0,0.0
3685,83.0,24,24,7.0,0.0
3686,95.0,30,24,7.0,0.0
3687,59.0,6,48,10.0,0.0
3688,71.0,24,24,7.0,0.0
3689,83.0,30,24,7.0,0.0
3690,58.0,6,48,10.0,0.0
3691,70.0,24,24,7.0,0.0
3692,82.0,30,24,7.0,0.0
3693,83.0,24,24,7.0,0.0
3694,71.0,6,48,10.0,0.0
3695,95.0,30,24,7.0,0.0
3696,71.0,24,24,7.0,0.0
3697,59.0,6,48,10.0,0.0
3698,83.0,30,24,7.0,0.0
3699,70.0,24,24,7.0,0.0
3700,58.0,6,48,10.0,0.0
3701,82.0,30,24,7.0,0.0
3702,69.0,24,24,7.0,0.0
3703,57.0,6,48,10.0,0.0
3704,81.0,30,24,7.0,0.0
3705,56.0,6,48,10.0,0.0
3706,68.0,24,24,7.0,0.0
3707,80.0,30,24,7.0,0.0
3708,67.0,24,24,7.0,0.0
3709,55.0,6,48,10.0,0.0
3710,79.0,30,24,7.0,0.0
3711,54.0,6,48,10.0,0.0
3712,66.0,24,24,7.0,0.0
3713,78.0,30,24,7.0,0.0
3714,53.0,6,48,10.0,0.0
3715,65.0,24,24,7.0,0.0
3716,77.0,30,24,7.0,0.0
3717,52.0,6,48,10.0,0.0
3718,64.0,24,24,7.0,0.0
3719,76.0,30,24,7.0,0.0
3720,63.0,24,24,7.0,0.0
3721,51.0,6,48,10.0,0.0
3722,75.0,30,24,7.0,0.0
3723,62.0,24,24,7.0,0.0
3724,50.0,6,48,10.0,0.0
3725,74.0,30,24,7.0,0.0
3726,49.0,6,48,10.0,0.0
3727,61.0,24,24,7.0,0.0
3728,73.0,30,24,7.0,0.0
3729,48.0,6,48,10.0,0.0
3730,60.0,24,24,7.0,0.0
3731,72.0,30,24,7.0,0.0
3732,47.0,6,48,10.0,0.0
3733,59.0,24,24,7.0,0.0
3734,71.0,30,24,7.0,0.0
3735,58.0,24,24,7.0,0.0
3736,46.0,6,48,10.0,0.0
3737,70.0,54,24,7.0,0.0
3738,63.0,0,48,7.0,0.0
3739,58.0,0,599,5.0,0.0
3740,46.0,37,599,5.0,0.0
3741,67.0,60,48,7.0,0.0
3742,39.0,0,48,10.0,0.0
3743,70.0,0,48,7.0,0.0
3744,58.0,0,48,10.0,0.0
3745,75.0,60,48,7.0,0.0
3746,63.0,0,48,7.0,0.0
3747,67.0,0,48,7.0,0.0
3748,51.0,0,48,10.0,0.0
3749,70.0,0,48,7.0,0.0
3750,46.0,0,48,10.0,0.0
3751,75.0,60,48,7.0,0.0
3752,55.0,0,48,10.0,0.0
3753,67.0,0,48,7.0,0.0
3754,79.0,0,48,7.0,0.0
3755,67.0,0,48,7.0,0.0
3756,70.0,0,48,7.0,0.0
3757,39.0,60,48,10.0,0.0
3758,58.0,36,48,10.0,0.0
3759,51.0,0,48,10.0,0.0
3760,70.0,6,48,7.0,0.0
3761,46.0,0,48,10.0,0.0
3762,79.0,24,24,7.0,0.0
3763,55.0,0,48,10.0,0.0
3764,75.0,0,48,7.0,0.0
3765,82.0,30,24,7.0,0.0
3766,75.0,0,48,7.0,0.0
3767,79.0,6,48,7.0,0.0
3768,39.0,0,48,10.0,0.0
3769,82.0,24,24,7.0,0.0
3770,87.0,54,24,7.0,0.0
3771,82.0,0,216,7.0,0.0
3772,75.0,0,216,7.0,0.0
3773,87.0,0,216,7.0,0.0
3774,58.0,60,48,10.0,0.0
3775,79.0,12,216,7.0,0.0
3776,46.0,0,48,10.0,0.0
3777,55.0,60,48,10.0,0.0
3778,51.0,0,48,10.0,0.0
3779,39.0,11,48,10.0,0.0
3780,58.0,36,48,10.0,0.0
3781,46.0,6,48,10.0,0.0
3782,51.0,0,48,10.0,0.0
3783,55.0,0,48,10.0,0.0
3784,79.0,0,48,7.0,0.0
3785,82.0,0,48,7.0,0.0
3786,87.0,24,24,7.0,0.0
3787,91.0,54,24,7.0,0.0
3788,82.0,0,48,7.0,0.0
3789,58.0,0,2088,5.0,0.0
3790,46.0,0,2088,5.0,0.0
3791,80.0,0,48,7.0,0.0
3792,34.0,60,48,10.0,0.0
3793,77.0,0,48,7.0,0.0
3794,89.0,0,48,7.0,0.0
3795,58.0,36,48,10.0,0.0
3796,53.0,0,48,10.0,0.0
3797,80.0,0,48,7.0,0.0
3798,46.0,6,48,10.0,0.0
3799,56.0,0,48,10.0,0.0
3800,86.0,24,24,7.0,0.0
3801,77.0,0,48,7.0,0.0
3802,82.0,0,48,7.0,0.0
3803,89.0,54,24,7.0,0.0
3804,82.0,0,48,7.0,0.0
3805,39.0,60,48,10.0,0.0
3806,79.0,0,48,7.0,0.0
3807,87.0,0,48,7.0,0.0
3808,58.0,36,48,10.0,0.0
3809,55.0,0,48,10.0,0.0
3810,51.0,0,48,10.0,0.0
3811,46.0,0,48,10.0,0.0
3812,79.0,24,24,7.0,0.0
3813,75.0,6,48,7.0,0.0
3814,82.0,18,24,7.0,0.0
3815,77.0,0,276,7.0,0.0
3816,34.0,9,48,10.0,0.0
3817,82.0,15,12,7.0,0.0
3818,74.0,0,276,7.0,0.0
3819,84.0,15,12,7.0,0.0
3820,82.0,6,12,7.0,0.0
3821,84.0,15,12,7.0,0.0
3822,82.0,15,12,7.0,0.0
3823,58.0,9,48,10.0,0.0
3824,84.0,15,12,7.0,0.0
3825,82.0,6,12,7.0,0.0
3826,84.0,27,12,7.0,0.0
3827,46.0,0,48,10.0,0.0
3828,82.0,24,24,7.0,0.0
3829,53.0,6,48,10.0,0.0
3830,50.0,0,48,10.0,0.0
3831,81.0,54,24,7.0,0.0
3832,82.0,12,96,7.0,0.0
3833,34.0,48,48,10.0,0.0
3834,58.0,60,48,10.0,0.0
3835,46.0,0,48,10.0,0.0
3836,53.0,0,48,10.0,0.0
3837,70.0,60,48,7.0,0.0
3838,56.0,0,48,10.0,0.0
3839,67.0,0,48,7.0,0.0
3840,63.0,0,48,7.0,0.0
3841,70.0,0,48,7.0,0.0
3842,39.0,60,48,10.0,0.0
3843,67.0,0,48,7.0,0.0
3844,58.0,0,48,10.0,0.0
3845,63.0,60,48,7.0,0.0
3846,75.0,0,48,7.0,0.0
3847,75.0,0,48,7.0,0.0
3848,70.0,0,48,7.0,0.0
3849,51.0,0,48,10.0,0.0
3850,55.0,0,48,10.0,0.0
3851,46.0,0,48,10.0,0.0
3852,67.0,60,48,7.0,0.0
3853,79.0,0,48,7.0,0.0
3854,67.0,60,48,7.0,0.0
3855,70.0,0,48,7.0,0.0
3856,39.0,0,48,10.0,0.0
3857,58.0,36,48,10.0,0.0
3858,79.0,24,24,7.0,0.0
3859,70.0,0,48,7.0,0.0
3860,75.0,0,48,7.0,0.0
3861,55.0,0,48,10.0,0.0
3862,46.0,0,48,10.0,0.0
3863,51.0,6,48,10.0,0.0
3864,82.0,30,24,7.0,0.0
3865,75.0,6,48,7.0,0.0
3866,82.0,24,24,7.0,0.0
3867,79.0,0,48,7.0,0.0
3868,39.0,0,48,10.0,0.0
3869,87.0,54,24,7.0,0.0
3870,58.0,60,48,10.0,0.0
3871,75.0,12,216,7.0,0.0
3872,87.0,0,216,7.0,0.0
3873,79.0,0,216,7.0,0.0
3874,82.0,0,216,7.0,0.0
3875,51.0,0,48,10.0,0.0
3876,46.0,60,48,10.0,0.0
3877,55.0,0,48,10.0,0.0
3878,39.0,48,48,10.0,0.0
3879,58.0,36,48,10.0,0.0
3880,79.0,0,48,7.0,0.0
3881,87.0,24,24,7.0,0.0
3882,82.0,0,48,7.0,0.0
3883,51.0,0,48,10.0,0.0
3884,55.0,0,48,10.0,0.0
3885,46.0,6,48,10.0,0.0
3886,91.0,54,24,7.0,0.0
3887,89.0,0,48,7.0,0.0
3888,34.0,60,48,10.0,0.0
3889,82.0,0,48,7.0,0.0
3890,77.0,0,48,7.0,0.0
3891,80.0,0,48,7.0,0.0
3892,58.0,36,48,10.0,0.0
3893,46.0,0,48,10.0,0.0
3894,56.0,0,48,10.0,0.0
3895,53.0,0,48,10.0,0.0
3896,86.0,24,24,7.0,0.0
3897,82.0,6,48,7.0,0.0
3898,77.0,0,48,7.0,0.0
3899,80.0,0,48,7.0,0.0
3900,89.0,54,24,7.0,0.0
3901,82.0,0,48,7.0,0.0
3902,39.0,0,48,10.0,0.0
3903,87.0,60,48,7.0,0.0
3904,79.0,0,48,7.0,0.0
3905,58.0,36,48,10.0,0.0
3906,79.0,24,24,7.0,0.0
3907,51.0,0,48,10.0,0.0
3908,46.0,0,48,10.0,0.0
3909,75.0,6,48,7.0,0.0
3910,55.0,0,48,10.0,0.0
3911,82.0,18,24,7.0,0.0
3912,74.0,0,276,7.0,0.0
3913,82.0,15,12,7.0,0.0
3914,77.0,12,276,7.0,0.0
3915,46.0,9,48,10.0,0.0
3916,84.0,15,12,7.0,0.0
3917,82.0,6,12,7.0,0.0
3918,84.0,15,12,7.0,0.0
3919,82.0,15,12,7.0,0.0
3920,58.0,9,48,10.0,0.0
3921,84.0,15,12,7.0,0.0
3922,82.0,6,12,7.0,0.0
3923,84.0,27,12,7.0,0.0
3924,50.0,0,48,10.0,0.0
3925,82.0,24,24,7.0,0.0
3926,53.0,6,48,10.0,0.0
3927,81.0,54,24,7.0,0.0
3928,46.0,48,48,10.0,0.0
3929,82.0,0,96,7.0,0.0
3930,62.0,0,48,10.0,0.0
3931,65.0,36,48,10.0,0.0
3932,61.0,0,48,10.0,0.0
3933,64.0,6,48,10.0,0.0
3934,82.0,0,24,7.0,0.0
3935,70.0,24,24,7.0,0.0
3936,69.0,0,24,7.0,0.0
3937,81.0,54,24,7.0,0.0
3938,69.0,48,48,7.0,0.0
3939,81.0,0,48,7.0,0.0
3940,46.0,0,96,5.0,0.0
3941,58.0,12,96,5.0,0.0
3942,46.0,0,48,10.0,0.0
3943,60.0,36,48,10.0,0.0
3944,63.0,0,48,10.0,0.0
3945,68.0,24,24,7.0,0.0
3946,80.0,0,24,7.0,0.0
3947,62.0,6,48,10.0,0.0
3948,59.0,0,48,10.0,0.0
3949,67.0,54,24,7.0,0.0
3950,79.0,0,24,7.0,0.0
3951,58.0,12,96,5.0,0.0
3952,79.0,0,48,7.0,0.0
3953,46.0,0,48,10.0,0.0
3954,67.0,48,48,7.0,0.0
3955,46.0,0,96,5.0,0.0
3956,58.0,36,48,10.0,0.0
3957,61.0,0,48,10.0,0.0
3958,78.0,24,24,7.0,0.0
3959,66.0,0,24,7.0,0.0
3960,57.0,0,48,10.0,0.0
3961,60.0,6,48,10.0,0.0
3962,77.0,0,24,7.0,0.0
3963,65.0,54,24,7.0,0.0
3964,58.0,12,96,5.0,0.0
3965,46.0,0,96,5.0,0.0
3966,77.0,0,48,7.0,0.0
3967,65.0,0,48,7.0,0.0
3968,46.0,48,48,10.0,0.0
3969,56.0,36,48,10.0,0.0
3970,59.0,0,48,10.0,0.0
3971,64.0,24,24,7.0,0.0
3972,76.0,0,24,7.0,0.0
3973,58.0,0,48,10.0,0.0
3974,55.0,6,48,10.0,0.0
3975,75.0,54,24,7.0,0.0
3976,63.0,0,24,7.0,0.0
3977,46.0,12,96,5.0,0.0
3978,58.0,0,96,5.0,0.0
3979,46.0,0,48,10.0,0.0
3980,75.0,0,48,7.0,0.0
3981,63.0,48,48,7.0,0.0
3982,57.0,36,48,10.0,0.0
3983,54.0,0,48,10.0,0.0
3984,70.0,0,48,7.0,0.0
3985,68.0,6,48,7.0,0.0
3986,75.0,0,24,7.0,0.0
3987,53.0,0,48,10.0,0.0
3988,56.0,0,48,10.0,0.0
3989,63.0,24,24,7.0,0.0
3990,62.0,0,24,7.0,0.0
3991,74.0,54,24,7.0,0.0
3992,34.0,48,48,10.0,0.0
3993,46.0,0,648,5.0,0.0
3994,58.0,0,648,5.0,0.0
3995,62.0,0,96,14.0,0.0
3996,46.0,12,96,14.0,0.0
3997,53.0,0,96,14.0,0.0
3998,58.0,0,96,14.0,0.0
3999,62.0,0,96,7.0,0.0
4000,70.0,0,96,7.0,0.0
4001,74.0,0,96,7.0,0.0
4002,68.0,0,96,7.0,0.0
4003,34.0,0,96,14.0,0.0
4004,58.0,60,48,10.0,0.0
4005,62.0,60,48,7.0,0.0
4006,53.0,0,48,10.0,0.0
4007,56.0,0,48,10.0,0.0
4008,46.0,0,48,10.0,0.0
4009,70.0,0,48,7.0,0.0
4010,74.0,0,48,7.0,0.0
4011,68.0,0,48,7.0,0.0
4012,34.0,24,48,10.0,0.0
4013,58.0,0,96,14.0,0.0
4014,65.0,12,96,14.0,0.0
4015,46.0,0,96,14.0,0.0
4016,50.0,0,96,14.0,0.0
4017,62.0,0,72,7.0,0.0
4018,70.0,0,72,7.0,0.0
4019,68.0,24,72,7.0,0.0
4020,74.0,0,72,7.0,0.0
4021,34.0,0,96,14.0,0.0
4022,58.0,6,48,10.0,0.0
4023,70.0,54,24,7.0,0.0
4024,75.0,0,24,7.0,0.0
4025,63.0,0,24,7.0,0.0
4026,68.0,0,24,7.0,0.0
4027,68.0,0,48,7.0,0.0
4028,70.0,0,48,7.0,0.0
4029,77.0,0,48,7.0,0.0
4030,65.0,0,48,7.0,0.0
4031,53.0,0,48,10.0,0.0
4032,56.0,0,48,10.0,0.0
4033,46.0,60,48,10.0,0.0
4034,39.0,0,48,10.0,0.0
4035,63.0,0,96,14.0,0.0
4036,39.0,0,96,14.0,0.0
4037,58.0,0,96,14.0,0.0
4038,55.0,12,96,14.0,0.0
4039,51.0,0,96,14.0,0.0
4040,77.0,0,48,7.0,0.0
4041,70.0,0,48,7.0,0.0
4042,68.0,48,48,7.0,0.0
4043,65.0,0,48,7.0,0.0
4044,58.0,0,48,10.0,0.0
4045,70.0,0,48,7.0,0.0
4046,67.0,60,48,7.0,0.0
4047,79.0,0,48,7.0,0.0
4048,63.0,0,48,7.0,0.0
4049,67.0,60,48,7.0,0.0
4050,75.0,0,48,7.0,0.0
4051,70.0,0,48,7.0,0.0
4052,46.0,0,48,10.0,0.0
4053,55.0,0,48,10.0,0.0
4054,51.0,0,48,10.0,0.0
4055,75.0,12,96,7.0,0.0
4056,39.0,48,48,10.0,0.0
4057,70.0,0,96,7.0,0.0
4058,67.0,0,96,7.0,0.0
4059,63.0,0,96,7.0,0.0
4060,62.0,36,48,10.0,0.0
4061,65.0,0,48,10.0,0.0
4062,61.0,0,48,10.0,0.0
4063,64.0,6,48,10.0,0.0
4064,70.0,24,24,7.0,0.0
4065,82.0,0,24,7.0,0.0
4066,81.0,0,24,7.0,0.0
4067,69.0,54,24,7.0,0.0
4068,46.0,12,96,5.0,0.0
4069,81.0,0,48,7.0,0.0
4070,69.0,0,48,7.0,0.0
4071,58.0,0,96,5.0,0.0
4072,46.0,48,48,10.0,0.0
4073,60.0,36,48,10.0,0.0
4074,63.0,0,48,10.0,0.0
4075,59.0,0,48,10.0,0.0
4076,80.0,0,24,7.0,0.0
4077,68.0,24,24,7.0,0.0
4078,62.0,6,48,10.0,0.0
4079,67.0,0,24,7.0,0.0
4080,79.0,54,24,7.0,0.0
4081,67.0,48,48,7.0,0.0
4082,39.0,0,48,10.0,0.0
4083,46.0,12,96,5.0,0.0
4084,58.0,0,96,5.0,0.0
4085,79.0,0,48,7.0,0.0
4086,58.0,36,48,10.0,0.0
4087,61.0,0,48,10.0,0.0
4088,57.0,0,48,10.0,0.0
4089,60.0,6,48,10.0,0.0
4090,78.0,0,24,7.0,0.0
4091,66.0,24,24,7.0,0.0
4092,77.0,0,24,7.0,0.0
4093,65.0,54,24,7.0,0.0
4094,77.0,48,48,7.0,0.0
4095,65.0,0,48,7.0,0.0
4096,39.0,0,48,10.0,0.0
4097,58.0,0,96,5.0,0.0
4098,46.0,12,96,5.0,0.0
4099,59.0,36,48,10.0,0.0
4100,56.0,0,48,10.0,0.0
4101,55.0,6,48,10.0,0.0
4102,58.0,0,48,10.0,0.0
4103,76.0,0,24,7.0,0.0
4104,64.0,24,24,7.0,0.0
4105,63.0,0,24,7.0,0.0
4106,75.0,54,24,7.0,0.0
4107,39.0,0,56,10.0,0.0
4108,63.0,0,56,7.0,0.0
4109,67.0,112,56,7.0,0.0
4110,70.0,0,56,7.0,0.0
4111,58.0,8,48,5.0,0.0
4112,46.0,0,48,5.0,0.0
4113,75.0,0,56,7.0,0.0
4114,58.0,0,48,11.0,0.0
4115,63.0,0,48,11.0,0.0
4116,58.0,108,48,5.0,0.0
4117,46.0,0,48,5.0,0.0
4118,55.0,0,48,11.0,0.0
4119,51.0,0,48,12.0,0.0
4120,62.0,0,96,11.0,0.0
4121,53.0,0,96,11.0,0.0
4122,58.0,0,96,5.0,0.0
4123,46.0,0,96,5.0,0.0
4124,46.0,0,96,12.0,0.0
4125,68.0,72,96,11.0,0.0
4126,58.0,0,48,5.0,0.0
4127,46.0,0,48,5.0,0.0
4128,46.0,0,48,12.0,0.0
4129,62.0,84,48,11.0,0.0
4130,68.0,0,48,11.0,0.0
4131,53.0,0,48,11.0,0.0
4132,53.0,0,72,11.0,0.0
4133,62.0,0,72,11.0,0.0
4134,68.0,0,72,11.0,0.0
4135,46.0,0,72,12.0,0.0
4136,58.0,42,72,5.0,0.0
4137,46.0,0,72,5.0,0.0
4138,58.0,0,24,5.0,0.0
4139,46.0,0,24,5.0,0.0
4140,51.0,30,48,11.0,0.0
4141,46.0,24,24,12.0,0.0
4142,63.0,0,24,11.0,0.0
4143,67.0,0,24,11.0,0.0
4144,46.0,0,48,5.0,0.0
4145,46.0,60,48,12.0,0.0
4146,58.0,0,48,5.0,0.0
4147,65.0,0,48,11.0,0.0
4148,50.0,30,96,11.0,0.0
4149,51.0,0,96,11.0,0.0
4150,58.0,0,96,5.0,0.0
4151,46.0,0,96,5.0,0.0
4152,65.0,18,48,11.0,0.0
4153,39.0,12,96,12.0,0.0
4154,67.0,60,48,11.0,0.0
4155,58.0,0,48,11.0,0.0
4156,58.0,108,48,5.0,0.0
4157,55.0,0,48,11.0,0.0
4158,63.0,0,48,11.0,0.0
4159,46.0,0,48,5.0,0.0
4160,39.0,0,48,12.0,0.0
4161,51.0,0,48,11.0,0.0
4162,51.0,0,96,11.0,0.0
4163,39.0,48,96,12.0,0.0
4164,46.0,0,96,5.0,0.0
4165,55.0,0,96,11.0,0.0
4166,63.0,0,96,11.0,0.0
4167,58.0,0,96,5.0,0.0
4168,75.0,30,24,10.0,0.0
4169,87.0,0,24,7.0,0.0
4170,82.0,0,24,7.0,0.0
4171,79.0,30,24,10.0,0.0
4172,86.0,0,24,7.0,0.0
4173,77.0,30,24,10.0,0.0
4174,80.0,30,24,10.0,0.0
4175,82.0,0,24,7.0,0.0
4176,77.0,0,24,10.0,0.0
4177,86.0,30,24,7.0,0.0
4178,82.0,30,24,7.0,0.0
4179,80.0,0,24,10.0,0.0
4180,77.0,0,24,10.0,0.0
4181,86.0,30,24,7.0,0.0
4182,80.0,30,24,10.0,0.0
4183,82.0,0,24,7.0,0.0
4184,86.0,0,24,7.0,0.0
4185,77.0,30,24,10.0,0.0
4186,82.0,30,24,7.0,0.0
4187,80.0,0,24,10.0,0.0
4188,87.0,0,24,7.0,0.0
4189,75.0,30,24,10.0,0.0
4190,82.0,30,24,7.0,0.0
4191,80.0,0,24,10.0,0.0
4192,89.0,0,24,7.0,0.0
4193,74.0,24,24,10.0,0.0
4194,65.0,6,48,11.0,0.0
4195,82.0,30,24,7.0,0.0
4196,80.0,0,24,10.0,0.0
4197,63.0,18,96,11.0,0.0
4198,75.0,0,24,10.0,0.0
4199,89.0,30,24,7.0,0.0
4200,79.0,0,24,10.0,0.0
4201,82.0,30,24,7.0,0.0
4202,91.0,0,24,7.0,0.0
4203,75.0,12,24,10.0,0.0
4204,79.0,0,24,10.0,0.0
4205,82.0,30,24,7.0,0.0
4206,63.0,6,48,11.0,0.0
4207,75.0,0,24,10.0,0.0
4208,87.0,24,24,7.0,0.0
4209,79.0,30,24,10.0,0.0
4210,82.0,0,24,7.0,0.0
4211,87.0,0,24,7.0,0.0
4212,63.0,12,72,11.0,0.0
4213,75.0,30,24,10.0,0.0
4214,79.0,18,24,10.0,0.0
4215,82.0,0,24,7.0,0.0
4216,87.0,0,24,7.0,0.0
4217,75.0,30,24,10.0,0.0
4218,79.0,0,24,10.0,0.0
4219,82.0,0,24,7.0,0.0
4220,65.0,30,24,11.0,0.0
4221,67.0,0,48,11.0,0.0
4222,51.0,6,48,12.0,0.0
4223,79.0,24,24,7.0,0.0
4224,75.0,30,24,7.0,0.0
4225,68.0,18,96,11.0,0.0
4226,50.0,0,96,12.0,0.0
4227,80.0,30,24,7.0,0.0
4228,77.0,30,24,7.0,0.0
4229,80.0,12,24,7.0,0.0
4230,79.0,30,24,7.0,0.0
4231,50.0,6,48,12.0,0.0
4232,77.0,24,24,7.0,0.0
4233,75.0,30,24,7.0,0.0
4234,74.0,30,24,7.0,0.0
4235,50.0,12,72,12.0,0.0
4236,72.0,18,24,7.0,0.0
4237,70.0,30,24,7.0,0.0
4238,68.0,0,24,7.0,0.0
4239,51.0,30,24,12.0,0.0
4240,67.0,24,24,7.0,0.0
4241,68.0,0,48,11.0,0.0
4242,53.0,6,48,12.0,0.0
4243,65.0,30,24,7.0,0.0
4244,53.0,6,48,12.0,0.0
4245,67.0,12,96,11.0,0.0
4246,70.0,24,24,7.0,0.0
4247,67.0,30,24,7.0,0.0
4248,55.0,6,48,12.0,0.0
4249,70.0,12,24,7.0,0.0
4250,68.0,30,24,7.0,0.0
4251,51.0,0,48,12.0,0.0
4252,67.0,6,48,11.0,0.0
4253,67.0,24,24,7.0,0.0
4254,65.0,30,24,7.0,0.0
4255,67.0,12,72,11.0,0.0
4256,51.0,18,96,12.0,0.0
4257,63.0,30,24,7.0,0.0
4258,62.0,18,24,7.0,0.0
4259,60.0,12,24,7.0,0.0
4260,68.0,30,24,11.0,0.0
4261,58.0,0,24,7.0,0.0
4262,58.0,18,96,11.0,0.0
4263,56.0,24,24,7.0,0.0
4264,70.0,6,48,11.0,0.0
4265,55.0,30,24,7.0,0.0
4266,60.0,12,24,7.0,0.0
4267,72.0,18,96,11.0,0.0
4268,57.0,0,96,11.0,0.0
4269,57.0,30,24,7.0,0.0
4270,60.0,12,24,7.0,0.0
4271,58.0,30,24,7.0,0.0
4272,57.0,6,48,11.0,0.0
4273,57.0,24,24,7.0,0.0
4274,54.0,30,24,7.0,0.0
4275,53.0,30,24,7.0,0.0
4276,57.0,12,72,11.0,0.0
4277,51.0,18,24,7.0,0.0
4278,49.0,30,24,7.0,0.0
4279,48.0,0,24,7.0,0.0
4280,58.0,30,24,11.0,0.0
4281,60.0,0,48,11.0,0.0
4282,46.0,24,24,7.0,0.0
4283,48.0,6,48,12.0,0.0
4284,45.0,30,24,7.0,0.0
4285,60.0,6,48,11.0,0.0
4286,49.0,24,24,10.0,0.0
4287,46.0,12,96,12.0,0.0
4288,46.0,30,24,10.0,0.0
4289,61.0,6,48,11.0,0.0
4290,49.0,12,24,10.0,0.0
4291,48.0,30,24,10.0,0.0
4292,46.0,24,24,10.0,0.0
4293,58.0,0,48,11.0,0.0
4294,46.0,6,48,12.0,0.0
4295,44.0,30,24,10.0,0.0
4296,58.0,18,96,11.0,0.0
4297,42.0,30,24,10.0,0.0
4298,46.0,12,72,12.0,0.0
4299,70.0,18,24,7.0,0.0
4300,41.0,0,24,10.0,0.0
4301,73.0,12,24,7.0,0.0
4302,39.0,0,24,10.0,0.0
4303,77.0,0,24,7.0,0.0
4304,37.0,30,24,10.0,0.0
4305,48.0,0,24,12.0,0.0
4306,65.0,6,48,11.0,0.0
4307,49.0,0,48,12.0,0.0
4308,82.0,24,24,7.0,0.0
4309,36.0,0,24,10.0,0.0
4310,82.0,0,24,7.0,0.0
4311,34.0,30,24,10.0,0.0
4312,64.0,0,96,11.0,0.0
4313,82.0,30,24,7.0,0.0
4314,36.0,18,96,10.0,0.0
4315,48.0,0,96,12.0,0.0
4316,79.0,30,24,7.0,0.0
4317,82.0,12,24,7.0,0.0
4318,80.0,30,24,7.0,0.0
4319,79.0,24,24,7.0,0.0
4320,64.0,6,48,11.0,0.0
4321,77.0,30,24,7.0,0.0
4322,76.0,30,24,7.0,0.0
4323,64.0,12,72,11.0,0.0
4324,73.0,18,24,7.0,0.0
4325,72.0,30,24,7.0,0.0
4326,65.0,0,24,11.0,0.0
4327,70.0,30,24,7.0,0.0
4328,55.0,6,48,12.0,0.0
4329,67.0,0,48,11.0,0.0
4330,68.0,24,24,7.0,0.0
4331,67.0,30,24,7.0,0.0
4332,56.0,24,24,10.0,0.0
4333,65.0,12,96,7.0,0.0
4334,67.0,6,48,11.0,0.0
4335,53.0,0,96,12.0,0.0
4336,53.0,30,24,10.0,0.0
4337,56.0,12,24,10.0,0.0
4338,68.0,6,48,11.0,0.0
4339,55.0,30,24,10.0,0.0
4340,53.0,24,24,10.0,0.0
4341,53.0,6,48,12.0,0.0
4342,65.0,0,48,11.0,0.0
4343,51.0,30,24,10.0,0.0
4344,65.0,18,96,11.0,0.0
4345,53.0,12,72,12.0,0.0
4346,49.0,30,24,10.0,0.0
4347,77.0,18,24,7.0,0.0
4348,48.0,0,24,10.0,0.0
4349,46.0,12,24,10.0,0.0
4350,80.0,0,24,7.0,0.0
4351,55.0,0,24,12.0,0.0
4352,84.0,0,24,7.0,0.0
4353,44.0,30,24,10.0,0.0
4354,43.0,24,24,10.0,0.0
4355,72.0,0,48,11.0,0.0
4356,89.0,0,24,7.0,0.0
4357,56.0,6,48,12.0,0.0
4358,41.0,0,24,10.0,0.0
4359,89.0,30,24,7.0,0.0
4360,71.0,0,96,11.0,0.0
4361,89.0,30,24,7.0,0.0
4362,55.0,0,96,12.0,0.0
4363,43.0,18,96,10.0,0.0
4364,86.0,30,24,7.0,0.0
4365,92.0,12,24,7.0,0.0
4366,91.0,30,24,7.0,0.0
4367,71.0,6,48,11.0,0.0
4368,89.0,0,24,7.0,0.0
4369,77.0,24,24,10.0,0.0
4370,75.0,30,24,10.0,0.0
4371,87.0,0,24,7.0,0.0
4372,71.0,12,72,11.0,0.0
4373,86.0,30,24,7.0,0.0
4374,74.0,0,24,10.0,0.0
4375,84.0,0,24,7.0,0.0
4376,72.0,18,24,10.0,0.0
4377,71.0,30,24,10.0,0.0
4378,83.0,0,24,7.0,0.0
4379,80.0,30,24,7.0,0.0
4380,68.0,0,24,10.0,0.0
4381,72.0,0,24,11.0,0.0
4382,50.0,6,48,12.0,0.0
4383,74.0,0,48,11.0,0.0
4384,67.0,0,24,10.0,0.0
4385,79.0,24,24,7.0,0.0
4386,65.0,22,24,10.0,0.0
4387,77.0,0,24,7.0,0.0
4388,48.0,12,96,12.0,0.0
4389,75.0,0,16,7.0,0.0
4390,63.0,20,16,10.0,0.0
4391,74.0,8,48,11.0,0.0
4392,62.0,12,16,10.0,0.0
4393,74.0,0,16,7.0,0.0
4394,72.0,0,16,7.0,0.0
4395,60.0,20,16,10.0,0.0
4396,75.0,8,48,11.0,0.0
4397,70.0,20,16,7.0,0.0
4398,58.0,0,16,10.0,0.0
4399,68.0,0,16,7.0,0.0
4400,56.0,0,16,10.0,0.0
4401,67.0,0,16,7.0,0.0
4402,55.0,20,16,10.0,0.0
4403,72.0,8,48,11.0,0.0
4404,48.0,0,48,12.0,0.0
4405,65.0,20,16,7.0,0.0
4406,53.0,0,16,10.0,0.0
4407,51.0,12,16,10.0,0.0
4408,63.0,0,16,7.0,0.0
4409,50.0,0,16,10.0,0.0
4410,62.0,20,16,7.0,0.0
4411,72.0,18,96,11.0,0.0
4412,48.0,0,16,10.0,0.0
4413,60.0,20,16,7.0,0.0
4414,48.0,4,72,12.0,0.0
4415,46.0,20,16,10.0,0.0
4416,58.0,0,16,7.0,0.0
4417,44.0,0,16,10.0,0.0
4418,56.0,16,16,7.0,0.0
4419,55.0,0,16,7.0,0.0
4420,43.0,20,16,10.0,0.0
4421,41.0,0,16,10.0,0.0
4422,53.0,0,16,7.0,0.0
4423,50.0,2,24,12.0,0.0
4424,39.0,28,16,10.0,0.0
4425,51.0,0,16,7.0,0.0
4426,72.0,0,48,11.0,0.0
4427,60.0,0,48,11.0,0.0
4428,50.0,24,24,7.0,0.0
4429,48.0,0,48,12.0,0.0
4430,38.0,0,24,10.0,0.0
4431,48.0,0,24,7.0,0.0
4432,36.0,102,24,10.0,0.0
4433,35.0,0,96,10.0,0.0
4434,47.0,0,96,10.0,0.0
4435,59.0,0,96,11.0,0.0
4436,47.0,72,96,12.0,0.0
4437,71.0,0,96,11.0,0.0
4438,47.0,84,48,12.0,0.0
4439,59.0,0,48,11.0,0.0
4440,71.0,0,48,11.0,0.0
4441,71.0,0,72,11.0,0.0
4442,47.0,42,72,12.0,0.0
4443,59.0,0,72,11.0,0.0
4444,72.0,0,24,11.0,0.0
4445,60.0,0,24,11.0,0.0
4446,48.0,0,24,12.0,0.0
4447,74.0,0,48,11.0,0.0
4448,62.0,0,48,11.0,0.0
4449,50.0,108,48,12.0,0.0
4450,63.0,0,96,11.0,0.0
4451,75.0,0,96,11.0,0.0
4452,51.0,72,96,12.0,0.0
4453,72.0,0,48,11.0,0.0
4454,60.0,0,48,11.0,0.0
4455,48.0,0,48,12.0,0.0
4456,72.0,0,72,11.0,0.0
4457,60.0,0,72,11.0,0.0
4458,48.0,42,72,12.0,0.0
4459,50.0,54,24,12.0,0.0
4460,62.0,0,24,11.0,0.0
4461,74.0,0,24,11.0,0.0
4462,51.0,0,48,12.0,0.0
4463,63.0,0,48,11.0,0.0
4464,75.0,108,48,11.0,0.0
4465,77.0,0,96,11.0,0.0
4466,53.0,0,96,12.0,0.0
4467,65.0,0,96,11.0,0.0
4468,50.0,0,48,12.0,0.0
4469,74.0,0,48,11.0,0.0
4470,62.0,0,48,11.0,0.0
4471,74.0,42,72,11.0,0.0
4472,50.0,0,72,12.0,0.0
4473,62.0,0,72,11.0,0.0
4474,51.0,0,24,12.0,0.0
4475,63.0,0,24,11.0,0.0
4476,75.0,0,24,11.0,0.0
4477,77.0,108,48,11.0,0.0
4478,53.0,0,48,12.0,0.0
4479,65.0,0,48,11.0,0.0
4480,79.0,0,96,11.0,0.0
4481,67.0,0,96,11.0,0.0
4482,55.0,0,96,12.0,0.0
4483,84.0,0,48,0.0,0.0
4484,60.0,84,48,4.0,0.0
4485,72.0,0,48,1.0,0.0
4486,72.0,42,72,1.0,0.0
4487,84.0,0,72,0.0,0.0
4488,60.0,0,72,4.0,0.0
4489,86.0,0,24,0.0,0.0
4490,74.0,0,24,1.0,0.0
4491,62.0,54,24,4.0,0.0
4492,88.0,60,48,0.0,0.0
4493,76.0,0,48,1.0,0.0
4494,64.0,0,48,4.0,0.0
4495,65.0,0,48,4.0,0.0
4496,89.0,120,48,0.0,0.0
4497,77.0,0,48,1.0,0.0
4498,86.0,0,48,0.0,0.0
4499,74.0,84,48,1.0,0.0
4500,62.0,0,48,4.0,0.0
4501,74.0,0,72,1.0,0.0
4502,86.0,0,72,0.0,0.0
4503,62.0,42,72,4.0,0.0
4504,76.0,0,24,1.0,0.0
4505,88.0,0,24,0.0,0.0
4506,64.0,54,24,4.0,0.0
4507,89.0,108,48,0.0,0.0
4508,77.0,0,48,1.0,0.0
4509,65.0,0,48,4.0,0.0
4510,79.0,0,96,1.0,0.0
4511,67.0,0,96,4.0,0.0
4512,91.0,72,96,0.0,0.0
4513,60.0,0,48,10.0,0.0
4514,84.0,84,48,7.0,0.0
4515,72.0,0,48,7.0,0.0
4516,72.0,0,72,7.0,0.0
4517,60.0,0,72,10.0,0.0
4518,84.0,42,72,7.0,0.0
4519,74.0,0,24,7.0,0.0
4520,86.0,0,24,7.0,0.0
4521,62.0,54,24,10.0,0.0
4522,88.0,36,48,7.0,0.0
4523,76.0,0,48,7.0,0.0
4524,64.0,0,48,10.0,0.0
4525,59.0,18,96,11.0,0.0
4526,77.0,0,24,10.0,0.0
4527,65.0,0,96,11.0,0.0
4528,62.0,0,96,11.0,0.0
4529,86.0,0,24,7.0,0.0
4530,83.0,30,24,7.0,0.0
4531,76.0,0,24,10.0,0.0
4532,88.0,30,24,7.0,0.0
4533,83.0,0,24,7.0,0.0
4534,74.0,12,24,10.0,0.0
4535,89.0,0,24,7.0,0.0
4536,86.0,0,24,7.0,0.0
4537,77.0,30,24,10.0,0.0
4538,88.0,0,24,7.0,0.0
4539,83.0,0,24,7.0,0.0
4540,76.0,30,24,10.0,0.0
4541,74.0,0,24,10.0,0.0
4542,89.0,30,24,7.0,0.0
4543,77.0,30,24,10.0,0.0
4544,83.0,0,24,7.0,0.0
4545,86.0,0,24,7.0,0.0
4546,76.0,0,24,10.0,0.0
4547,88.0,30,24,7.0,0.0
4548,83.0,0,24,7.0,0.0
4549,74.0,0,24,10.0,0.0
4550,89.0,30,24,7.0,0.0
4551,77.0,30,24,10.0,0.0
4552,86.0,0,24,7.0,0.0
4553,83.0,30,24,7.0,0.0
4554,88.0,0,24,7.0,0.0
4555,76.0,0,24,10.0,0.0
4556,89.0,0,24,7.0,0.0
4557,74.0,30,24,10.0,0.0
4558,86.0,0,24,7.0,0.0
4559,83.0,0,24,7.0,0.0
4560,77.0,30,24,10.0,0.0
4561,88.0,30,24,7.0,0.0
4562,76.0,0,24,10.0,0.0
4563,74.0,0,24,10.0,0.0
4564,89.0,30,24,7.0,0.0
4565,83.0,0,24,7.0,0.0
4566,86.0,30,24,7.0,0.0
4567,77.0,0,24,10.0,0.0
4568,83.0,0,24,7.0,0.0
4569,76.0,0,24,10.0,0.0
4570,88.0,30,24,7.0,0.0
4571,74.0,30,24,10.0,0.0
4572,89.0,0,24,7.0,0.0
4573,86.0,0,24,7.0,0.0
4574,83.0,0,24,7.0,0.0
4575,77.0,30,24,10.0,0.0
4576,76.0,30,24,10.0,0.0
4577,88.0,0,24,7.0,0.0
4578,74.0,0,24,10.0,0.0
4579,89.0,0,24,7.0,0.0
4580,83.0,30,24,7.0,0.0
4581,77.0,30,24,10.0,0.0
4582,86.0,0,24,7.0,0.0
4583,76.0,30,24,10.0,0.0
4584,88.0,0,24,7.0,0.0
4585,83.0,0,24,7.0,0.0
4586,89.0,0,24,7.0,0.0
4587,74.0,30,24,10.0,0.0
4588,77.0,30,24,10.0,0.0
4589,83.0,0,24,7.0,0.0
4590,74.0,0,24,10.0,0.0
4591,86.0,30,24,7.0,0.0
4592,89.0,0,24,7.0,0.0
4593,71.0,30,24,10.0,0.0
4594,77.0,30,24,7.0,0.0
4595,74.0,0,24,10.0,0.0
4596,71.0,0,24,10.0,0.0
4597,83.0,30,24,7.0,0.0
4598,65.0,30,24,10.0,0.0
4599,86.0,0,24,7.0,0.0
4600,71.0,0,24,10.0,0.0
4601,74.0,30,24,7.0,0.0
4602,65.0,30,24,10.0,0.0
4603,77.0,0,24,7.0,0.0
4604,83.0,0,24,7.0,0.0
4605,62.0,30,24,10.0,0.0
4606,71.0,30,24,7.0,0.0
4607,65.0,0,24,10.0,0.0
4608,62.0,0,24,10.0,0.0
4609,74.0,30,24,7.0,0.0
4610,59.0,0,24,10.0,0.0
4611,77.0,30,24,7.0,0.0
4612,62.0,0,24,10.0,0.0
4613,65.0,30,24,7.0,0.0
4614,71.0,0,24,7.0,0.0
4615,59.0,30,24,10.0,0.0
4616,53.0,30,24,10.0,0.0
4617,74.0,0,24,7.0,0.0
4618,59.0,30,24,10.0,0.0
4619,62.0,0,24,7.0,0.0
4620,65.0,0,24,7.0,0.0
4621,53.0,30,24,10.0,0.0
4622,71.0,30,24,7.0,0.0
4623,50.0,0,24,10.0,0.0
4624,53.0,0,24,10.0,0.0
4625,59.0,30,24,7.0,0.0
4626,62.0,0,24,7.0,0.0
4627,50.0,30,24,10.0,0.0
4628,65.0,0,24,7.0,0.0
4629,47.0,30,24,10.0,0.0
4630,50.0,0,24,10.0,0.0
4631,53.0,30,24,7.0,0.0
4632,47.0,0,24,10.0,0.0
4633,59.0,30,24,7.0,0.0
4634,41.0,0,24,10.0,0.0
4635,62.0,30,24,7.0,0.0
4636,53.0,0,24,7.0,0.0
4637,50.0,30,24,10.0,0.0
4638,47.0,30,24,10.0,0.0
4639,59.0,0,24,7.0,0.0
4640,62.0,30,24,7.0,0.0
4641,41.0,0,24,10.0,0.0
4642,59.0,0,24,7.0,0.0
4643,53.0,30,24,10.0,0.0
4644,62.0,0,24,7.0,0.0
4645,50.0,30,24,10.0,0.0
4646,47.0,0,24,10.0,0.0
4647,65.0,30,24,7.0,0.0
4648,53.0,30,24,10.0,0.0
4649,59.0,0,24,7.0,0.0
4650,50.0,0,24,10.0,0.0
4651,62.0,30,24,7.0,0.0
4652,47.0,30,24,10.0,0.0
4653,65.0,0,24,7.0,0.0
4654,59.0,30,24,10.0,0.0
4655,62.0,0,24,7.0,0.0
4656,65.0,30,24,7.0,0.0
4657,53.0,0,24,10.0,0.0
4658,50.0,0,24,10.0,0.0
4659,71.0,30,24,7.0,0.0
4660,59.0,0,24,10.0,0.0
4661,62.0,30,24,7.0,0.0
4662,53.0,0,24,10.0,0.0
4663,65.0,30,24,7.0,0.0
4664,50.0,0,24,10.0,0.0
4665,71.0,30,24,7.0,0.0
4666,62.0,0,24,10.0,0.0
4667,65.0,30,24,7.0,0.0
4668,59.0,30,24,10.0,0.0
4669,71.0,0,24,7.0,0.0
4670,53.0,30,24,10.0,0.0
4671,74.0,0,24,7.0,0.0
4672,65.0,30,24,7.0,0.0
4673,62.0,0,24,10.0,0.0
4674,71.0,0,24,7.0,0.0
4675,59.0,30,24,10.0,0.0
4676,53.0,30,24,10.0,0.0
4677,74.0,0,24,7.0,0.0
4678,65.0,30,24,10.0,0.0
4679,71.0,0,24,7.0,0.0
4680,74.0,30,24,7.0,0.0
4681,62.0,0,24,10.0,0.0
4682,77.0,0,24,7.0,0.0
4683,59.0,30,24,10.0,0.0
4684,71.0,30,24,7.0,0.0
4685,65.0,0,24,10.0,0.0
4686,62.0,30,24,10.0,0.0
4687,74.0,0,24,7.0,0.0
4688,77.0,30,24,7.0,0.0
4689,59.0,0,24,10.0,0.0
4690,71.0,30,24,10.0,0.0
4691,74.0,0,24,7.0,0.0
4692,77.0,0,24,7.0,0.0
4693,65.0,30,24,10.0,0.0
4694,62.0,0,24,10.0,0.0
4695,83.0,30,24,7.0,0.0
4696,74.0,30,24,7.0,0.0
4697,71.0,0,24,10.0,0.0
4698,77.0,30,24,7.0,0.0
4699,65.0,0,24,10.0,0.0
4700,62.0,0,24,10.0,0.0
4701,83.0,30,24,7.0,0.0
4702,74.0,30,24,10.0,0.0
4703,77.0,0,24,7.0,0.0
4704,71.0,30,24,10.0,0.0
4705,83.0,0,24,7.0,0.0
4706,86.0,0,24,7.0,0.0
4707,65.0,30,24,10.0,0.0
4708,77.0,0,24,7.0,0.0
4709,74.0,30,24,10.0,0.0
4710,83.0,0,24,7.0,0.0
4711,71.0,30,24,10.0,0.0
4712,65.0,30,24,10.0,0.0
4713,86.0,0,24,7.0,0.0
4714,77.0,0,24,10.0,0.0
4715,83.0,30,24,7.0,0.0
4716,74.0,0,24,10.0,0.0
4717,86.0,30,24,7.0,0.0
4718,71.0,0,24,10.0,0.0
4719,89.0,30,24,7.0,0.0
4720,83.0,30,24,7.0,0.0
4721,77.0,0,24,10.0,0.0
4722,86.0,0,24,7.0,0.0
4723,74.0,30,24,10.0,0.0
4724,71.0,0,24,10.0,0.0
4725,89.0,30,24,7.0,0.0
4726,86.0,30,24,7.0,0.0
4727,83.0,0,24,10.0,0.0
4728,89.0,30,24,7.0,0.0
4729,77.0,0,24,10.0,0.0
4730,74.0,30,24,10.0,0.0
4731,95.0,0,24,7.0,0.0
4732,89.0,0,24,7.0,0.0
4733,86.0,30,24,10.0,0.0
4734,91.0,0,24,7.0,0.0
4735,83.0,30,24,10.0,0.0
4736,95.0,0,24,7.0,0.0
4737,79.0,30,24,10.0,0.0
4738,98.0,30,24,7.0,0.0
4739,77.0,0,24,10.0,0.0
4740,86.0,30,24,10.0,0.0
4741,89.0,0,24,7.0,0.0
4742,83.0,30,24,10.0,0.0
4743,91.0,0,24,7.0,0.0
4744,79.0,30,24,10.0,0.0
4745,95.0,0,24,7.0,0.0
4746,77.0,0,24,10.0,0.0
4747,98.0,30,24,7.0,0.0
4748,86.0,30,24,10.0,0.0
4749,89.0,0,24,7.0,0.0
4750,91.0,0,24,7.0,0.0
4751,83.0,30,24,10.0,0.0
4752,79.0,0,24,10.0,0.0
4753,95.0,30,24,7.0,0.0
4754,98.0,0,24,7.0,0.0
4755,77.0,30,24,10.0,0.0
4756,89.0,0,24,7.0,0.0
4757,86.0,30,24,10.0,0.0
4758,91.0,0,24,7.0,0.0
4759,83.0,30,24,10.0,0.0
4760,79.0,30,24,10.0,0.0
4761,95.0,0,24,7.0,0.0
4762,98.0,0,24,7.0,0.0
4763,77.0,30,24,10.0,0.0
4764,89.0,0,24,7.0,0.0
4765,86.0,30,24,10.0,0.0
4766,91.0,0,24,7.0,0.0
4767,83.0,30,24,10.0,0.0
4768,95.0,30,24,7.0,0.0
4769,79.0,0,24,10.0,0.0
4770,77.0,0,24,10.0,0.0
4771,98.0,30,24,7.0,0.0
4772,86.0,0,24,10.0,0.0
4773,89.0,30,24,7.0,0.0
4774,83.0,0,24,10.0,0.0
4775,91.0,30,24,7.0,0.0
4776,95.0,0,24,7.0,0.0
4777,79.0,30,24,10.0,0.0
4778,77.0,0,24,10.0,0.0
4779,98.0,30,24,7.0,0.0
4780,89.0,30,24,7.0,0.0
4781,77.0,0,96,10.0,0.0
4782,79.0,18,96,10.0,0.0
4783,83.0,0,96,10.0,0.0
4784,86.0,0,96,10.0,0.0
4785,91.0,30,24,7.0,0.0
4786,95.0,12,24,7.0,0.0
4787,98.0,30,24,7.0,0.0
4788,89.0,30,24,7.0,0.0
4789,91.0,30,24,7.0,0.0
4790,95.0,30,24,7.0,0.0
4791,98.0,30,24,7.0,0.0
4792,89.0,30,24,7.0,0.0
4793,91.0,30,24,7.0,0.0
4794,95.0,30,24,7.0,0.0
4795,98.0,30,24,7.0,0.0
4796,89.0,30,24,7.0,0.0
4797,91.0,30,24,7.0,0.0
4798,95.0,30,24,7.0,0.0
4799,98.0,22,24,7.0,0.0
4800,89.0,20,16,7.0,0.0
4801,91.0,20,16,7.0,0.0
4802,95.0,16,16,7.0,0.0
4803,89.0,15,12,7.0,0.0
4804,91.0,15,12,7.0,0.0
4805,95.0,51,12,7.0,0.0
4806,98.0,75,48,7.0,0.0
4807,67.0,45,48,14.0,0.0
4808,55.0,0,48,14.0,0.0
4809,48.0,0,96,14.0,0.0
4810,55.0,0,96,14.0,0.0
4811,60.0,0,96,14.0,0.0
4812,64.0,0,96,14.0,0.0
4813,67.0,12,96,14.0,0.0
4814,76.0,0,48,7.0,0.0
4815,72.0,0,48,7.0,0.0
4816,79.0,15,33,7.0,0.0
4817,36.0,48,48,10.0,0.0
4818,72.0,0,48,7.0,0.0
4819,84.0,0,48,7.0,0.0
4820,60.0,60,48,10.0,0.0
4821,76.0,0,48,7.0,0.0
4822,76.0,0,48,7.0,0.0
4823,79.0,60,48,7.0,0.0
4824,55.0,0,48,10.0,0.0
4825,52.0,0,48,10.0,0.0
4826,84.0,0,48,7.0,0.0
4827,36.0,0,48,10.0,0.0
4828,76.0,0,48,7.0,0.0
4829,79.0,60,48,7.0,0.0
4830,88.0,0,48,7.0,0.0
4831,60.0,36,48,10.0,0.0
4832,55.0,0,48,10.0,0.0
4833,52.0,0,48,10.0,0.0
4834,88.0,24,24,7.0,0.0
4835,79.0,6,48,7.0,0.0
4836,64.0,0,48,14.0,0.0
4837,67.0,0,48,14.0,0.0
4838,60.0,0,48,14.0,0.0
4839,55.0,0,48,14.0,0.0
4840,48.0,0,48,14.0,0.0
4841,91.0,30,24,7.0,0.0
4842,88.0,0,48,7.0,0.0
4843,91.0,24,24,7.0,0.0
4844,48.0,0,96,14.0,0.0
4845,84.0,6,48,7.0,0.0
4846,55.0,0,96,14.0,0.0
4847,67.0,12,96,14.0,0.0
4848,64.0,0,96,14.0,0.0
4849,60.0,0,96,14.0,0.0
4850,36.0,0,48,10.0,0.0
4851,96.0,42,24,7.0,0.0
4852,84.0,0,264,7.0,0.0
4853,88.0,24,264,7.0,0.0
4854,91.0,0,264,7.0,0.0
4855,96.0,0,264,7.0,0.0
4856,60.0,60,48,10.0,0.0
4857,52.0,0,48,10.0,0.0
4858,55.0,60,48,10.0,0.0
4859,36.0,60,48,10.0,0.0
4860,60.0,36,48,10.0,0.0
4861,55.0,0,48,10.0,0.0
4862,52.0,36,48,10.0,0.0
4863,64.0,0,48,14.0,0.0
4864,55.0,0,48,14.0,0.0
4865,48.0,0,48,14.0,0.0
4866,60.0,0,48,14.0,0.0
4867,67.0,0,48,14.0,0.0
4868,55.0,12,96,14.0,0.0
4869,36.0,0,48,10.0,0.0
4870,88.0,24,24,7.0,0.0
4871,79.0,0,48,7.0,0.0
4872,84.0,6,48,7.0,0.0
4873,48.0,0,96,14.0,0.0
4874,67.0,0,96,14.0,0.0
4875,64.0,0,96,14.0,0.0
4876,60.0,0,96,14.0,0.0
4877,91.0,42,24,7.0,0.0
4878,91.0,24,264,7.0,0.0
4879,79.0,0,264,7.0,0.0
4880,60.0,60,48,10.0,0.0
4881,84.0,0,264,7.0,0.0
4882,52.0,60,48,10.0,0.0
4883,55.0,0,48,10.0,0.0
4884,36.0,60,48,10.0,0.0
4885,60.0,36,48,10.0,0.0
4886,55.0,0,48,10.0,0.0
4887,52.0,0,48,10.0,0.0
4888,48.0,36,48,14.0,0.0
4889,64.0,0,48,14.0,0.0
4890,60.0,0,48,14.0,0.0
4891,67.0,0,48,14.0,0.0
4892,55.0,0,48,14.0,0.0
4893,84.0,24,24,7.0,0.0
4894,67.0,0,96,14.0,0.0
4895,64.0,0,96,14.0,0.0
4896,76.0,0,48,7.0,0.0
4897,60.0,12,96,14.0,0.0
4898,79.0,6,48,7.0,0.0
4899,55.0,0,96,14.0,0.0
4900,48.0,0,96,14.0,0.0
4901,36.0,0,48,10.0,0.0
4902,88.0,42,24,7.0,0.0
4903,88.0,0,264,7.0,0.0
4904,76.0,0,264,7.0,0.0
4905,60.0,60,48,10.0,0.0
4906,79.0,24,264,7.0,0.0
4907,55.0,60,48,10.0,0.0
4908,52.0,0,48,10.0,0.0
4909,36.0,60,48,10.0,0.0
4910,60.0,36,48,10.0,0.0
4911,55.0,0,48,10.0,0.0
4912,52.0,0,48,10.0,0.0
4913,60.0,0,48,14.0,0.0
4914,64.0,0,48,14.0,0.0
4915,67.0,0,48,14.0,0.0
4916,48.0,36,48,14.0,0.0
4917,55.0,0,48,14.0,0.0
4918,81.0,24,24,7.0,0.0
4919,41.0,6,48,10.0,0.0
4920,62.0,0,96,14.0,0.0
4921,69.0,0,96,14.0,0.0
4922,57.0,12,96,14.0,0.0
4923,53.0,0,96,14.0,0.0
4924,60.0,0,96,14.0,0.0
4925,96.0,42,24,7.0,0.0
4926,96.0,12,96,7.0,0.0
4927,57.0,48,48,10.0,0.0
4928,50.0,0,48,10.0,0.0
4929,53.0,36,48,10.0,0.0
4930,57.0,12,96,14.0,0.0
4931,77.0,24,24,7.0,0.0
4932,53.0,0,96,14.0,0.0
4933,69.0,0,96,14.0,0.0
4934,41.0,6,48,10.0,0.0
4935,60.0,0,96,14.0,0.0
4936,62.0,0,96,14.0,0.0
4937,93.0,42,24,7.0,0.0
4938,93.0,12,96,7.0,0.0
4939,57.0,48,48,10.0,0.0
4940,53.0,0,48,10.0,0.0
4941,50.0,36,48,10.0,0.0
4942,53.0,12,96,14.0,0.0
4943,62.0,0,96,14.0,0.0
4944,69.0,0,96,14.0,0.0
4945,57.0,0,96,14.0,0.0
4946,60.0,0,96,14.0,0.0
4947,74.0,24,24,7.0,0.0
4948,41.0,6,48,10.0,0.0
4949,89.0,42,24,7.0,0.0
4950,89.0,12,96,7.0,0.0
4951,57.0,48,48,10.0,0.0
4952,53.0,36,48,10.0,0.0
4953,50.0,0,48,10.0,0.0
4954,69.0,24,24,7.0,0.0
4955,60.0,0,96,14.0,0.0
4956,41.0,6,48,10.0,0.0
4957,57.0,12,96,14.0,0.0
4958,53.0,0,96,14.0,0.0
4959,69.0,0,96,14.0,0.0
4960,62.0,0,96,14.0,0.0
4961,86.0,42,24,7.0,0.0
4962,86.0,12,96,7.0,0.0
4963,57.0,48,48,10.0,0.0
4964,50.0,36,48,10.0,0.0
4965,53.0,0,48,10.0,0.0
4966,55.0,0,96,14.0,0.0
4967,43.0,6,48,10.0,0.0
4968,67.0,0,96,14.0,0.0
4969,64.0,0,96,14.0,0.0
4970,60.0,12,96,14.0,0.0
4971,67.0,24,24,7.0,0.0
4972,76.0,30,24,7.0,0.0
4973,72.0,12,24,7.0,0.0
4974,60.0,6,48,10.0,0.0
4975,79.0,30,24,7.0,0.0
4976,76.0,24,24,7.0,0.0
4977,52.0,0,48,10.0,0.0
4978,55.0,6,48,10.0,0.0
4979,84.0,22,24,7.0,0.0
4980,60.0,0,96,14.0,0.0
4981,79.0,20,16,7.0,0.0
4982,67.0,12,96,14.0,0.0
4983,64.0,0,96,14.0,0.0
4984,55.0,0,96,14.0,0.0
4985,43.0,8,48,10.0,0.0
4986,88.0,12,16,7.0,0.0
4987,84.0,20,16,7.0,0.0
4988,60.0,8,48,10.0,0.0
4989,91.0,20,16,7.0,0.0
4990,88.0,0,16,7.0,0.0
4991,96.0,20,16,7.0,0.0
4992,52.0,0,48,10.0,0.0
4993,55.0,8,48,10.0,0.0
4994,91.0,20,16,7.0,0.0
4995,88.0,12,16,7.0,0.0
4996,84.0,52,16,7.0,0.0
4997,67.0,12,96,14.0,0.0
4998,55.0,0,96,14.0,0.0
4999,79.0,0,96,7.0,0.0
5000,62.0,0,96,14.0,0.0
5001,43.0,48,48,10.0,0.0
5002,59.0,0,96,14.0,0.0
5003,59.0,60,48,10.0,0.0
5004,50.0,24,48,10.0,0.0
5005,55.0,0,48,10.0,0.0
5006,67.0,6,96,14.0,0.0
5007,62.0,0,96,14.0,0.0
5008,86.0,15,12,7.0,0.0
5009,55.0,0,96,14.0,0.0
5010,59.0,0,96,14.0,0.0
5011,43.0,9,48,10.0,0.0
5012,88.0,15,12,7.0,0.0
5013,86.0,6,12,7.0,0.0
5014,88.0,15,12,7.0,0.0
5015,86.0,15,12,7.0,0.0
5016,59.0,9,48,10.0,0.0
5017,88.0,9,12,7.0,0.0
5018,86.0,6,12,7.0,0.0
5019,88.0,15,12,7.0,0.0
5020,86.0,15,12,7.0,0.0
5021,55.0,0,48,10.0,0.0
5022,50.0,9,48,10.0,0.0
5023,88.0,15,12,7.0,0.0
5024,84.0,6,12,7.0,0.0
5025,86.0,27,12,7.0,0.0
5026,36.0,24,24,10.0,0.0
5027,88.0,6,48,7.0,0.0
5028,84.0,0,48,7.0,0.0
5029,38.0,30,24,10.0,0.0
5030,88.0,6,48,7.0,0.0
5031,84.0,0,48,7.0,0.0
5032,40.0,24,24,10.0,0.0
5033,41.0,30,24,10.0,0.0
5034,84.0,6,48,7.0,0.0
5035,43.0,24,24,10.0,0.0
5036,88.0,0,48,7.0,0.0
5037,45.0,30,24,10.0,0.0
5038,48.0,0,24,11.0,0.0
5039,47.0,24,24,10.0,0.0
5040,88.0,0,48,7.0,0.0
5041,84.0,6,48,7.0,0.0
5042,48.0,30,24,10.0,0.0
5043,60.0,0,24,11.0,0.0
5044,60.0,12,96,11.0,0.0
5045,88.0,6,48,7.0,0.0
5046,84.0,0,48,7.0,0.0
5047,50.0,24,24,10.0,0.0
5048,52.0,30,24,10.0,0.0
5049,53.0,12,24,10.0,0.0
5050,88.0,6,48,7.0,0.0
5051,84.0,0,48,7.0,0.0
5052,55.0,30,24,10.0,0.0
5053,57.0,24,24,10.0,0.0
5054,84.0,0,48,7.0,0.0
5055,88.0,6,48,7.0,0.0
5056,59.0,30,24,10.0,0.0
5057,84.0,6,48,7.0,0.0
5058,88.0,0,48,7.0,0.0
5059,60.0,24,24,10.0,0.0
5060,62.0,30,24,10.0,0.0
5061,64.0,24,24,10.0,0.0
5062,88.0,0,48,7.0,0.0
5063,84.0,6,48,7.0,0.0
5064,65.0,30,24,10.0,0.0
5065,60.0,24,24,11.0,0.0
5066,84.0,6,48,7.0,0.0
5067,67.0,0,24,10.0,0.0
5068,88.0,0,48,7.0,0.0
5069,69.0,0,24,10.0,0.0
5070,72.0,30,24,11.0,0.0
5071,88.0,6,48,7.0,0.0
5072,72.0,12,96,11.0,0.0
5073,84.0,0,48,7.0,0.0
5074,71.0,24,24,10.0,0.0
5075,72.0,30,24,10.0,0.0
5076,84.0,6,48,7.0,0.0
5077,74.0,12,24,10.0,0.0
5078,88.0,0,48,7.0,0.0
5079,76.0,30,24,10.0,0.0
5080,91.0,30,24,7.0,0.0
5081,77.0,0,24,10.0,0.0
5082,89.0,30,24,7.0,0.0
5083,79.0,18,96,10.0,0.0
5084,88.0,30,24,7.0,0.0
5085,86.0,12,24,7.0,0.0
5086,84.0,30,24,7.0,0.0
5087,83.0,30,24,7.0,0.0
5088,81.0,30,24,7.0,0.0
5089,55.0,0,24,11.0,0.0
5090,79.0,0,24,7.0,0.0
5091,55.0,6,48,10.0,0.0
5092,67.0,24,24,11.0,0.0
5093,77.0,30,24,7.0,0.0
5094,67.0,18,96,11.0,0.0
5095,60.0,0,48,10.0,0.0
5096,76.0,24,24,7.0,0.0
5097,64.0,6,48,10.0,0.0
5098,74.0,12,24,7.0,0.0
5099,64.0,0,48,10.0,0.0
5100,60.0,6,48,10.0,0.0
5101,72.0,24,24,7.0,0.0
5102,43.0,6,48,10.0,0.0
5103,71.0,24,24,7.0,0.0
5104,69.0,30,24,7.0,0.0
5105,67.0,24,24,7.0,0.0
5106,52.0,6,48,10.0,0.0
5107,48.0,0,48,10.0,0.0
5108,65.0,30,24,7.0,0.0
5109,52.0,0,48,10.0,0.0
5110,48.0,6,48,10.0,0.0
5111,64.0,24,24,7.0,0.0
5112,62.0,22,24,7.0,0.0
5113,60.0,8,16,7.0,0.0
5114,43.0,6,48,10.0,0.0
5115,43.0,12,24,12.0,0.0
5116,59.0,12,16,7.0,0.0
5117,55.0,2,24,12.0,0.0
5118,57.0,20,16,7.0,0.0
5119,55.0,12,96,12.0,0.0
5120,50.0,8,48,10.0,0.0
5121,55.0,20,16,7.0,0.0
5122,47.0,0,48,10.0,0.0
5123,54.0,12,16,7.0,0.0
5124,55.0,32,16,7.0,0.0
5125,50.0,0,48,10.0,0.0
5126,47.0,10,48,10.0,0.0
5127,57.0,8,28,7.0,0.0
5128,58.0,26,28,7.0,0.0
5129,60.0,6,48,7.0,0.0
5130,36.0,24,24,10.0,0.0
5131,38.0,30,24,10.0,0.0
5132,72.0,6,48,7.0,0.0
5133,40.0,24,24,10.0,0.0
5134,76.0,0,48,7.0,0.0
5135,41.0,30,24,10.0,0.0
5136,43.0,24,24,10.0,0.0
5137,76.0,0,48,7.0,0.0
5138,72.0,6,48,7.0,0.0
5139,45.0,30,24,10.0,0.0
5140,47.0,0,24,10.0,0.0
5141,48.0,24,24,11.0,0.0
5142,72.0,0,48,7.0,0.0
5143,76.0,6,48,7.0,0.0
5144,48.0,0,24,10.0,0.0
5145,60.0,30,24,11.0,0.0
5146,84.0,0,48,7.0,0.0
5147,88.0,6,48,7.0,0.0
5148,60.0,12,96,11.0,0.0
5149,50.0,24,24,10.0,0.0
5150,52.0,30,24,10.0,0.0
5151,88.0,6,48,7.0,0.0
5152,53.0,12,24,10.0,0.0
5153,84.0,0,48,7.0,0.0
5154,55.0,22,24,10.0,0.0
5155,84.0,0,48,7.0,0.0
5156,88.0,8,48,7.0,0.0
5157,57.0,20,16,10.0,0.0
5158,59.0,12,16,10.0,0.0
5159,60.0,20,16,10.0,0.0
5160,62.0,20,16,10.0,0.0
5161,84.0,0,48,7.0,0.0
5162,88.0,8,48,7.0,0.0
5163,64.0,12,16,10.0,0.0
5164,65.0,20,16,10.0,0.0
5165,84.0,8,48,7.0,0.0
5166,88.0,0,48,7.0,0.0
5167,67.0,20,16,10.0,0.0
5168,69.0,12,16,10.0,0.0
5169,71.0,20,16,10.0,0.0
5170,72.0,8,16,10.0,0.0
5171,84.0,6,48,7.0,0.0
5172,88.0,0,48,7.0,0.0
5173,60.0,12,24,11.0,0.0
5174,74.0,12,16,10.0,0.0
5175,72.0,2,24,11.0,0.0
5176,76.0,28,16,10.0,0.0
5177,88.0,6,48,7.0,0.0
5178,84.0,0,48,7.0,0.0
5179,72.0,12,96,11.0,0.0
5180,77.0,24,24,10.0,0.0
5181,79.0,30,24,10.0,0.0
5182,88.0,6,48,7.0,0.0
5183,84.0,0,48,7.0,0.0
5184,81.0,12,24,10.0,0.0
5185,83.0,30,24,10.0,0.0
5186,84.0,20,96,10.0,0.0
5187,96.0,30,24,7.0,0.0
5188,95.0,22,24,7.0,0.0
5189,93.0,20,16,7.0,0.0
5190,91.0,0,16,7.0,0.0
5191,89.0,20,16,7.0,0.0
5192,88.0,20,16,7.0,0.0
5193,86.0,20,16,7.0,0.0
5194,84.0,20,16,7.0,0.0
5195,83.0,8,16,7.0,0.0
5196,55.0,6,48,10.0,0.0
5197,55.0,12,24,11.0,0.0
5198,81.0,12,16,7.0,0.0
5199,67.0,2,24,11.0,0.0
5200,79.0,28,16,7.0,0.0
5201,77.0,24,24,7.0,0.0
5202,64.0,6,48,10.0,0.0
5203,67.0,12,96,11.0,0.0
5204,60.0,0,48,10.0,0.0
5205,76.0,30,24,7.0,0.0
5206,60.0,6,48,10.0,0.0
5207,64.0,0,48,10.0,0.0
5208,74.0,12,24,7.0,0.0
5209,72.0,30,24,7.0,0.0
5210,43.0,6,48,10.0,0.0
5211,71.0,24,24,7.0,0.0
5212,69.0,30,24,7.0,0.0
5213,52.0,0,48,10.0,0.0
5214,48.0,6,48,10.0,0.0
5215,67.0,24,24,7.0,0.0
5216,65.0,30,24,7.0,0.0
5217,48.0,6,48,10.0,0.0
5218,52.0,0,48,10.0,0.0
5219,64.0,24,24,7.0,0.0
5220,62.0,22,24,7.0,0.0
5221,43.0,12,24,12.0,0.0
5222,60.0,8,16,7.0,0.0
5223,43.0,6,48,10.0,0.0
5224,59.0,12,16,7.0,0.0
5225,55.0,2,24,12.0,0.0
5226,57.0,20,16,7.0,0.0
5227,50.0,0,48,10.0,0.0
5228,53.0,8,48,10.0,0.0
5229,55.0,20,16,7.0,0.0
5230,55.0,12,96,12.0,0.0
5231,54.0,12,16,7.0,0.0
5232,55.0,28,16,7.0,0.0
5233,57.0,12,24,7.0,0.0
5234,53.0,0,48,10.0,0.0
5235,50.0,6,48,10.0,0.0
5236,59.0,78,24,7.0,0.0
5237,48.0,0,96,13.0,0.0
5238,60.0,0,72,11.0,0.0
5239,72.0,0,96,11.0,0.0
5240,64.0,0,96,11.0,0.0
5241,60.0,0,96,7.0,0.0
5242,55.0,0,96,11.0,0.0
5243,48.0,0,96,4.0,0.0
5244,48.0,0,96,12.0,0.0
5245,76.0,18,96,0.0,0.0
5246,84.0,0,96,0.0,0.0
5247,60.0,0,96,3.0,0.0
5248,76.0,0,96,1.0,0.0
5249,76.0,0,96,11.0,0.0
5250,67.0,0,96,11.0,0.0
5251,84.0,0,96,11.0,0.0
5252,72.0,0,96,3.0,0.0
5253,52.0,0,96,10.0,0.0
5254,48.0,0,96,10.0,0.0
5255,72.0,0,96,1.0,0.0
5256,48.0,24,72,11.0,0.0
5257,48.0,54,24,11.0,0.0
5258,60.0,0,24,11.0,0.0
5259,48.0,60,48,11.0,0.0
5260,60.0,0,48,11.0,0.0
5261,48.0,0,48,11.0,0.0
5262,60.0,60,48,11.0,0.0
5263,60.0,0,48,11.0,0.0
5264,48.0,60,48,11.0,0.0
5265,48.0,66,48,11.0,0.0
5266,60.0,0,48,11.0,0.0
5267,72.0,0,288,3.0,0.0
5268,48.0,0,288,11.0,0.0
5269,84.0,0,144,11.0,0.0
5270,72.0,0,144,1.0,0.0
5271,84.0,0,144,0.0,0.0
5272,57.0,30,144,12.0,0.0
5273,60.0,0,288,3.0,0.0
5274,60.0,0,144,4.0,0.0
5275,57.0,0,144,13.0,0.0
5276,84.0,0,144,1.0,0.0
5277,57.0,0,144,4.0,0.0
5278,60.0,30,24,11.0,0.0
5279,62.0,30,24,11.0,0.0
5280,64.0,30,24,11.0,0.0
5281,65.0,0,24,11.0,0.0
5282,67.0,30,24,11.0,0.0
5283,53.0,0,144,13.0,0.0
5284,57.0,0,144,4.0,0.0
5285,53.0,0,144,4.0,0.0
5286,96.0,0,144,0.0,0.0
5287,81.0,0,144,1.0,0.0
5288,69.0,30,24,11.0,0.0
5289,53.0,30,144,12.0,0.0
5290,81.0,0,24,11.0,0.0
5291,68.0,0,24,11.0,0.0
5292,80.0,30,24,11.0,0.0
5293,81.0,0,24,11.0,0.0
5294,69.0,24,24,11.0,0.0
5295,83.0,0,24,11.0,0.0
5296,71.0,30,24,11.0,0.0
5297,84.0,0,24,11.0,0.0
5298,72.0,0,24,11.0,0.0
5299,69.0,0,24,11.0,0.0
5300,81.0,78,24,11.0,0.0
5301,79.0,0,96,11.0,0.0
5302,67.0,0,72,3.0,0.0
5303,79.0,0,72,3.0,0.0
5304,52.0,0,96,13.0,0.0
5305,67.0,0,96,11.0,0.0
5306,52.0,0,96,12.0,0.0
5307,79.0,0,96,1.0,0.0
5308,84.0,18,96,0.0,0.0
5309,55.0,0,96,11.0,0.0
5310,91.0,0,96,0.0,0.0
5311,67.0,0,72,4.0,0.0
5312,55.0,24,72,4.0,0.0
5313,67.0,0,24,4.0,0.0
5314,55.0,0,24,4.0,0.0
5315,79.0,54,24,3.0,0.0
5316,67.0,0,24,3.0,0.0
5317,55.0,60,48,4.0,0.0
5318,67.0,0,48,4.0,0.0
5319,79.0,0,48,3.0,0.0
5320,67.0,0,48,3.0,0.0
5321,67.0,0,48,4.0,0.0
5322,55.0,0,48,4.0,0.0
5323,67.0,0,48,3.0,0.0
5324,79.0,60,48,3.0,0.0
5325,67.0,60,48,4.0,0.0
5326,67.0,0,48,3.0,0.0
5327,79.0,0,48,3.0,0.0
5328,55.0,0,48,4.0,0.0
5329,55.0,0,48,4.0,0.0
5330,79.0,0,48,3.0,0.0
5331,67.0,36,48,3.0,0.0
5332,67.0,0,48,4.0,0.0
5333,83.0,0,144,0.0,0.0
5334,89.0,30,144,0.0,0.0
5335,71.0,0,144,1.0,0.0
5336,55.0,0,288,4.0,0.0
5337,77.0,0,144,1.0,0.0
5338,77.0,0,144,11.0,0.0
5339,50.0,30,24,11.0,0.0
5340,55.0,0,144,12.0,0.0
5341,55.0,0,144,13.0,0.0
5342,67.0,0,288,4.0,0.0
5343,67.0,0,288,3.0,0.0
5344,79.0,6,288,3.0,0.0
5345,49.0,30,24,11.0,0.0
5346,55.0,30,24,11.0,0.0
5347,50.0,0,24,11.0,0.0
5348,49.0,30,24,11.0,0.0
5349,57.0,0,24,11.0,0.0
5350,50.0,0,24,11.0,0.0
5351,59.0,0,24,11.0,0.0
5352,60.0,30,24,11.0,0.0
5353,52.0,0,24,11.0,0.0
5354,83.0,0,144,0.0,0.0
5355,43.0,0,144,13.0,0.0
5356,74.0,0,24,11.0,0.0
5357,43.0,0,144,12.0,0.0
5358,62.0,0,24,11.0,0.0
5359,74.0,0,144,1.0,0.0
5360,53.0,30,24,11.0,0.0
5361,86.0,0,144,0.0,0.0
5362,71.0,0,144,1.0,0.0
5363,55.0,30,24,11.0,0.0
5364,73.0,0,24,11.0,0.0
5365,61.0,0,24,11.0,0.0
5366,74.0,0,24,11.0,0.0
5367,62.0,24,24,11.0,0.0
5368,53.0,0,24,11.0,0.0
5369,64.0,30,24,11.0,0.0
5370,76.0,0,24,11.0,0.0
5371,55.0,0,24,11.0,0.0
5372,77.0,30,24,11.0,0.0
5373,65.0,0,24,11.0,0.0
5374,53.0,0,24,11.0,0.0
5375,74.0,0,24,11.0,0.0
5376,62.0,0,24,11.0,0.0
5377,55.0,78,24,11.0,0.0
5378,72.0,0,96,0.0,0.0
5379,60.0,0,96,3.0,0.0
5380,72.0,0,96,1.0,0.0
5381,48.0,18,96,13.0,0.0
5382,48.0,0,96,12.0,0.0
5383,64.0,0,96,11.0,0.0
5384,72.0,0,96,11.0,0.0
5385,84.0,0,96,0.0,0.0
5386,76.0,0,96,11.0,0.0
5387,84.0,0,96,11.0,0.0
5388,48.0,0,96,4.0,0.0
5389,72.0,0,96,3.0,0.0
5390,60.0,0,96,4.0,0.0
5391,60.0,0,72,11.0,0.0
5392,48.0,24,72,11.0,0.0
5393,67.0,0,96,11.0,0.0
5394,48.0,0,24,11.0,0.0
5395,60.0,54,24,11.0,0.0
5396,60.0,60,48,11.0,0.0
5397,48.0,0,48,11.0,0.0
5398,48.0,60,48,11.0,0.0
5399,60.0,0,48,11.0,0.0
5400,48.0,0,48,11.0,0.0
5401,60.0,60,48,11.0,0.0
5402,48.0,84,48,11.0,0.0
5403,60.0,0,48,11.0,0.0
5404,48.0,0,72,11.0,0.0
5405,72.0,0,96,0.0,0.0
5406,84.0,0,96,0.0,0.0
5407,60.0,0,96,4.0,0.0
5408,48.0,0,96,4.0,0.0
5409,72.0,0,96,3.0,0.0
5410,60.0,24,72,11.0,0.0
5411,48.0,0,96,13.0,0.0
5412,72.0,0,96,1.0,0.0
5413,48.0,0,96,12.0,0.0
5414,84.0,0,96,11.0,0.0
5415,72.0,0,96,11.0,0.0
5416,48.0,0,24,11.0,0.0
5417,60.0,54,24,11.0,0.0
5418,48.0,60,48,11.0,0.0
5419,60.0,0,48,11.0,0.0
5420,60.0,60,48,11.0,0.0
5421,48.0,0,48,11.0,0.0
5422,48.0,60,48,11.0,0.0
5423,60.0,0,48,11.0,0.0
5424,48.0,84,48,11.0,0.0
5425,60.0,0,48,11.0,0.0
5426,63.0,42,72,5.0,0.0
5427,51.0,0,72,5.0,0.0
5428,51.0,54,24,5.0,0.0
5429,63.0,0,24,5.0,0.0
5430,51.0,60,48,5.0,0.0
5431,63.0,0,48,5.0,0.0
5432,51.0,60,48,5.0,0.0
5433,63.0,0,48,5.0,0.0
5434,51.0,0,48,5.0,0.0
5435,63.0,60,48,5.0,0.0
5436,63.0,60,48,5.0,0.0
5437,51.0,0,48,5.0,0.0
5438,63.0,0,48,5.0,0.0
5439,51.0,60,48,5.0,0.0
5440,51.0,0,48,5.0,0.0
5441,63.0,60,48,5.0,0.0
5442,51.0,0,48,5.0,0.0
5443,63.0,60,48,5.0,0.0
5444,63.0,60,48,5.0,0.0
5445,51.0,0,48,5.0,0.0
5446,51.0,60,48,5.0,0.0
5447,63.0,0,48,5.0,0.0
5448,75.0,0,48,7.0,0.0
5449,51.0,60,48,5.0,0.0
5450,63.0,0,48,5.0,0.0
5451,75.0,48,48,7.0,0.0
5452,44.0,0,48,10.0,0.0
5453,44.0,0,96,14.0,0.0
5454,63.0,0,1896,5.0,0.0
5455,56.0,0,96,14.0,0.0
5456,68.0,0,96,14.0,0.0
5457,63.0,0,96,14.0,0.0
5458,60.0,12,96,14.0,0.0
5459,51.0,12,1896,5.0,0.0
5460,63.0,0,48,10.0,0.0
5461,80.0,60,48,7.0,0.0
5462,51.0,0,48,10.0,0.0
5463,56.0,0,48,10.0,0.0
5464,60.0,0,48,10.0,0.0
5465,80.0,60,48,7.0,0.0
5466,44.0,60,48,10.0,0.0
5467,84.0,0,48,7.0,0.0
5468,63.0,36,48,10.0,0.0
5469,63.0,0,48,14.0,0.0
5470,60.0,0,48,10.0,0.0
5471,56.0,0,48,10.0,0.0
5472,51.0,0,48,10.0,0.0
5473,68.0,0,48,14.0,0.0
5474,60.0,0,48,14.0,0.0
5475,56.0,6,48,14.0,0.0
5476,44.0,0,48,14.0,0.0
5477,84.0,24,24,7.0,0.0
5478,87.0,30,24,7.0,0.0
5479,44.0,6,48,10.0,0.0
5480,56.0,0,96,14.0,0.0
5481,63.0,0,96,14.0,0.0
5482,68.0,0,96,14.0,0.0
5483,60.0,12,96,14.0,0.0
5484,87.0,24,24,7.0,0.0
5485,44.0,0,96,14.0,0.0
5486,92.0,42,24,7.0,0.0
5487,92.0,12,216,7.0,0.0
5488,63.0,60,48,10.0,0.0
5489,60.0,0,48,10.0,0.0
5490,56.0,0,48,10.0,0.0
5491,51.0,60,48,10.0,0.0
5492,44.0,48,48,10.0,0.0
5493,63.0,24,48,10.0,0.0
5494,56.0,9,48,14.0,0.0
5495,92.0,15,12,7.0,0.0
5496,44.0,0,48,14.0,0.0
5497,60.0,0,48,10.0,0.0
5498,63.0,0,48,14.0,0.0
5499,51.0,0,48,10.0,0.0
5500,56.0,0,48,10.0,0.0
5501,68.0,0,48,14.0,0.0
5502,60.0,0,48,14.0,0.0
5503,94.0,15,12,7.0,0.0
5504,91.0,6,12,7.0,0.0
5505,92.0,51,12,7.0,0.0
5506,44.0,0,96,14.0,0.0
5507,96.0,48,48,7.0,0.0
5508,61.0,0,96,14.0,0.0
5509,63.0,0,96,14.0,0.0
5510,56.0,0,96,14.0,0.0
5511,67.0,12,96,14.0,0.0
5512,44.0,0,48,10.0,0.0
5513,94.0,0,48,7.0,0.0
5514,61.0,60,48,10.0,0.0
5515,92.0,0,48,7.0,0.0
5516,51.0,0,48,10.0,0.0
5517,58.0,60,48,10.0,0.0
5518,55.0,0,48,10.0,0.0
5519,44.0,0,48,10.0,0.0
5520,91.0,60,48,7.0,0.0
5521,61.0,0,48,10.0,0.0
5522,89.0,60,48,7.0,0.0
5523,67.0,0,48,14.0,0.0
5524,44.0,0,48,14.0,0.0
5525,56.0,0,48,14.0,0.0
5526,63.0,0,48,14.0,0.0
5527,55.0,36,48,10.0,0.0
5528,87.0,0,48,7.0,0.0
5529,61.0,0,48,14.0,0.0
5530,51.0,0,48,10.0,0.0
5531,58.0,0,48,10.0,0.0
5532,44.0,12,96,14.0,0.0
5533,56.0,0,96,14.0,0.0
5534,68.0,0,96,14.0,0.0
5535,63.0,0,96,14.0,0.0
5536,60.0,0,96,14.0,0.0
5537,87.0,24,24,7.0,0.0
5538,44.0,6,48,10.0,0.0
5539,89.0,30,24,7.0,0.0
5540,63.0,6,48,10.0,0.0
5541,87.0,12,24,7.0,0.0
5542,86.0,30,24,7.0,0.0
5543,51.0,6,48,10.0,0.0
5544,60.0,0,48,10.0,0.0
5545,87.0,24,24,7.0,0.0
5546,88.0,30,24,7.0,0.0
5547,44.0,6,48,10.0,0.0
5548,89.0,24,24,7.0,0.0
5549,90.0,30,24,7.0,0.0
5550,91.0,24,24,7.0,0.0
5551,63.0,6,48,10.0,0.0
5552,92.0,22,24,7.0,0.0
5553,51.0,8,48,10.0,0.0
5554,93.0,20,16,7.0,0.0
5555,56.0,0,48,10.0,0.0
5556,63.0,0,48,14.0,0.0
5557,60.0,0,48,14.0,0.0
5558,68.0,0,48,14.0,0.0
5559,44.0,0,48,14.0,0.0
5560,56.0,0,48,14.0,0.0
5561,60.0,0,48,10.0,0.0
5562,94.0,12,16,7.0,0.0
5563,95.0,28,16,7.0,0.0
5564,96.0,24,24,7.0,0.0
5565,61.0,0,96,14.0,0.0
5566,67.0,0,96,14.0,0.0
5567,56.0,0,96,14.0,0.0
5568,44.0,12,96,14.0,0.0
5569,44.0,6,48,10.0,0.0
5570,63.0,0,96,14.0,0.0
5571,95.0,30,24,7.0,0.0
5572,61.0,6,48,10.0,0.0
5573,94.0,12,24,7.0,0.0
5574,93.0,30,24,7.0,0.0
5575,51.0,0,48,10.0,0.0
5576,55.0,6,48,10.0,0.0
5577,58.0,0,48,10.0,0.0
5578,92.0,24,24,7.0,0.0
5579,91.0,30,24,7.0,0.0
5580,44.0,6,48,10.0,0.0
5581,90.0,24,24,7.0,0.0
5582,89.0,30,24,7.0,0.0
5583,88.0,24,24,7.0,0.0
5584,61.0,6,48,10.0,0.0
5585,87.0,30,24,7.0,0.0
5586,58.0,0,48,11.0,0.0
5587,55.0,0,48,10.0,0.0
5588,86.0,24,24,7.0,0.0
5589,51.0,0,48,10.0,0.0
5590,58.0,0,48,10.0,0.0
5591,67.0,0,48,11.0,0.0
5592,61.0,6,48,11.0,0.0
5593,63.0,0,48,11.0,0.0
5594,87.0,30,24,7.0,0.0
5595,56.0,12,36,12.0,0.0
5596,44.0,0,48,10.0,0.0
5597,68.0,0,48,11.0,0.0
5598,63.0,0,48,11.0,0.0
5599,56.0,0,36,13.0,0.0
5600,88.0,12,24,7.0,0.0
5601,60.0,0,48,11.0,0.0
5602,56.0,0,48,11.0,0.0
5603,89.0,30,24,7.0,0.0
5604,60.0,6,48,10.0,0.0
5605,56.0,0,48,11.0,0.0
5606,68.0,0,48,11.0,0.0
5607,56.0,0,48,12.0,0.0
5608,90.0,12,24,7.0,0.0
5609,60.0,0,48,11.0,0.0
5610,56.0,0,48,13.0,0.0
5611,63.0,0,48,11.0,0.0
5612,91.0,30,24,7.0,0.0
5613,92.0,24,24,7.0,0.0
5614,56.0,0,48,10.0,0.0
5615,51.0,6,48,10.0,0.0
5616,93.0,35,24,7.0,0.0
5617,44.0,0,48,10.0,0.0
5618,56.0,0,48,12.0,0.0
5619,56.0,0,48,11.0,0.0
5620,60.0,0,48,11.0,0.0
5621,68.0,17,48,11.0,0.0
5622,63.0,0,48,11.0,0.0
5623,94.0,19,29,7.0,0.0
5624,56.0,0,48,13.0,0.0
5625,95.0,36,29,7.0,0.0
5626,68.0,29,48,11.0,0.0
5627,60.0,0,48,11.0,0.0
5628,56.0,0,48,13.0,0.0
5629,63.0,0,48,11.0,0.0
5630,60.0,0,48,10.0,0.0
5631,56.0,0,48,12.0,0.0
5632,56.0,0,48,11.0,0.0
5633,96.0,7,29,7.0,0.0
5634,97.0,31,29,7.0,0.0
5635,51.0,5,48,10.0,0.0
5636,56.0,0,48,10.0,0.0
5637,98.0,31,29,7.0,0.0
5638,68.0,0,48,11.0,0.0
5639,44.0,6,48,10.0,0.0
5640,60.0,0,48,11.0,0.0
5641,63.0,0,48,11.0,0.0
5642,56.0,0,48,13.0,0.0
5643,56.0,0,48,11.0,0.0
5644,56.0,0,48,12.0,0.0
5645,99.0,24,24,7.0,0.0
5646,98.0,30,24,7.0,0.0
5647,56.0,0,48,12.0,0.0
5648,68.0,0,48,11.0,0.0
5649,60.0,0,48,10.0,0.0
5650,56.0,0,48,13.0,0.0
5651,56.0,6,48,11.0,0.0
5652,60.0,0,48,11.0,0.0
5653,97.0,24,24,7.0,0.0
5654,63.0,0,48,11.0,0.0
5655,96.0,30,24,7.0,0.0
5656,56.0,6,48,10.0,0.0
5657,51.0,0,48,10.0,0.0
5658,95.0,24,24,7.0,0.0
5659,94.0,30,24,7.0,0.0
5660,60.0,0,48,11.0,0.0
5661,44.0,0,48,10.0,0.0
5662,93.0,24,24,7.0,0.0
5663,56.0,6,48,13.0,0.0
5664,56.0,0,48,12.0,0.0
5665,63.0,0,48,11.0,0.0
5666,56.0,0,48,11.0,0.0
5667,68.0,0,48,11.0,0.0
5668,92.0,30,24,7.0,0.0
5669,56.0,0,48,12.0,0.0
5670,68.0,0,48,11.0,0.0
5671,60.0,6,48,11.0,0.0
5672,56.0,0,48,11.0,0.0
5673,91.0,24,24,7.0,0.0
5674,63.0,0,48,11.0,0.0
5675,60.0,0,48,10.0,0.0
5676,56.0,0,48,13.0,0.0
5677,90.0,30,24,7.0,0.0
5678,51.0,6,48,10.0,0.0
5679,56.0,0,48,10.0,0.0
5680,89.0,24,24,7.0,0.0
5681,88.0,30,24,7.0,0.0
5682,89.0,24,24,7.0,0.0
5683,49.0,0,48,13.0,0.0
5684,49.0,6,48,12.0,0.0
5685,56.0,0,48,11.0,0.0
5686,49.0,0,48,10.0,0.0
5687,68.0,0,48,11.0,0.0
5688,61.0,0,48,11.0,0.0
5689,65.0,0,48,11.0,0.0
5690,90.0,30,24,7.0,0.0
5691,65.0,0,48,10.0,0.0
5692,68.0,0,48,11.0,0.0
5693,56.0,0,48,11.0,0.0
5694,49.0,0,48,13.0,0.0
5695,91.0,24,24,7.0,0.0
5696,65.0,6,48,11.0,0.0
5697,49.0,0,48,12.0,0.0
5698,61.0,0,48,11.0,0.0
5699,92.0,30,24,7.0,0.0
5700,93.0,24,24,7.0,0.0
5701,56.0,0,48,10.0,0.0
5702,58.0,0,48,10.0,0.0
5703,61.0,6,48,10.0,0.0
5704,94.0,30,24,7.0,0.0
5705,56.0,6,48,11.0,0.0
5706,49.0,0,48,13.0,0.0
5707,68.0,0,48,11.0,0.0
5708,49.0,0,48,12.0,0.0
5709,49.0,0,48,10.0,0.0
5710,65.0,0,48,11.0,0.0
5711,61.0,0,48,11.0,0.0
5712,95.0,24,24,7.0,0.0
5713,96.0,30,24,7.0,0.0
5714,97.0,24,24,7.0,0.0
5715,65.0,0,48,11.0,0.0
5716,56.0,0,48,11.0,0.0
5717,61.0,6,48,11.0,0.0
5718,65.0,0,48,10.0,0.0
5719,68.0,0,48,11.0,0.0
5720,49.0,0,48,12.0,0.0
5721,49.0,0,48,13.0,0.0
5722,98.0,30,24,7.0,0.0
5723,99.0,24,24,7.0,0.0
5724,58.0,0,48,10.0,0.0
5725,61.0,6,48,10.0,0.0
5726,56.0,0,48,10.0,0.0
5727,100.0,30,24,7.0,0.0
5728,49.0,0,48,12.0,0.0
5729,49.0,0,48,10.0,0.0
5730,68.0,6,48,11.0,0.0
5731,56.0,0,48,11.0,0.0
5732,61.0,0,48,11.0,0.0
5733,49.0,0,48,13.0,0.0
5734,101.0,24,24,7.0,0.0
5735,65.0,0,48,11.0,0.0
5736,100.0,30,24,7.0,0.0
5737,56.0,6,48,11.0,0.0
5738,99.0,24,24,7.0,0.0
5739,61.0,0,48,11.0,0.0
5740,65.0,0,48,11.0,0.0
5741,49.0,0,48,12.0,0.0
5742,68.0,0,48,11.0,0.0
5743,65.0,0,48,10.0,0.0
5744,49.0,0,48,13.0,0.0
5745,98.0,30,24,7.0,0.0
5746,97.0,24,24,7.0,0.0
5747,58.0,0,48,10.0,0.0
5748,61.0,6,48,10.0,0.0
5749,56.0,0,48,10.0,0.0
5750,96.0,30,24,7.0,0.0
5751,49.0,0,48,13.0,0.0
5752,61.0,0,48,11.0,0.0
5753,95.0,24,24,7.0,0.0
5754,65.0,0,48,11.0,0.0
5755,49.0,0,48,10.0,0.0
5756,56.0,0,48,11.0,0.0
5757,68.0,6,48,11.0,0.0
5758,49.0,0,48,12.0,0.0
5759,94.0,30,24,7.0,0.0
5760,49.0,0,48,12.0,0.0
5761,65.0,6,48,11.0,0.0
5762,61.0,0,48,11.0,0.0
5763,49.0,0,48,13.0,0.0
5764,56.0,0,48,11.0,0.0
5765,93.0,24,24,7.0,0.0
5766,65.0,0,48,10.0,0.0
5767,68.0,0,48,11.0,0.0
5768,92.0,22,24,7.0,0.0
5769,91.0,20,16,7.0,0.0
5770,56.0,0,48,10.0,0.0
5771,58.0,0,48,10.0,0.0
5772,61.0,8,48,10.0,0.0
5773,90.0,12,16,7.0,0.0
5774,89.0,28,16,7.0,0.0
5775,63.0,0,48,11.0,0.0
5776,88.0,24,24,7.0,0.0
5777,51.0,0,48,10.0,0.0
5778,51.0,0,48,13.0,0.0
5779,60.0,6,48,11.0,0.0
5780,56.0,0,48,11.0,0.0
5781,51.0,0,48,12.0,0.0
5782,87.0,30,24,7.0,0.0
5783,60.0,0,48,11.0,0.0
5784,63.0,0,48,11.0,0.0
5785,86.0,24,24,7.0,0.0
5786,51.0,6,48,12.0,0.0
5787,63.0,0,48,10.0,0.0
5788,51.0,0,48,13.0,0.0
5789,56.0,0,48,11.0,0.0
5790,85.0,30,24,7.0,0.0
5791,60.0,0,48,10.0,0.0
5792,56.0,6,48,10.0,0.0
5793,84.0,24,24,7.0,0.0
5794,83.0,30,24,7.0,0.0
5795,82.0,24,24,7.0,0.0
5796,51.0,0,48,13.0,0.0
5797,56.0,0,48,11.0,0.0
5798,51.0,0,48,12.0,0.0
5799,60.0,6,48,11.0,0.0
5800,63.0,0,48,11.0,0.0
5801,51.0,0,48,10.0,0.0
5802,81.0,30,24,7.0,0.0
5803,63.0,0,48,11.0,0.0
5804,60.0,0,48,11.0,0.0
5805,63.0,0,48,10.0,0.0
5806,51.0,0,48,12.0,0.0
5807,80.0,24,24,7.0,0.0
5808,56.0,0,48,11.0,0.0
5809,51.0,6,48,13.0,0.0
5810,79.0,30,24,7.0,0.0
5811,60.0,6,48,10.0,0.0
5812,56.0,0,48,10.0,0.0
5813,78.0,24,24,7.0,0.0
5814,77.0,30,24,7.0,0.0
5815,51.0,0,48,13.0,0.0
5816,51.0,0,48,12.0,0.0
5817,63.0,0,48,11.0,0.0
5818,76.0,24,24,7.0,0.0
5819,61.0,0,48,11.0,0.0
5820,51.0,0,48,11.0,0.0
5821,39.0,6,48,10.0,0.0
5822,58.0,0,48,11.0,0.0
5823,55.0,0,48,11.0,0.0
5824,75.0,30,24,7.0,0.0
5825,51.0,0,48,13.0,0.0
5826,51.0,0,48,12.0,0.0
5827,74.0,24,24,7.0,0.0
5828,51.0,6,48,11.0,0.0
5829,61.0,0,48,10.0,0.0
5830,61.0,0,48,11.0,0.0
5831,63.0,0,48,11.0,0.0
5832,58.0,0,48,11.0,0.0
5833,55.0,0,48,11.0,0.0
5834,73.0,30,24,7.0,0.0
5835,58.0,0,48,10.0,0.0
5836,55.0,0,48,10.0,0.0
5837,72.0,24,24,7.0,0.0
5838,51.0,6,48,10.0,0.0
5839,71.0,22,24,7.0,0.0
5840,61.0,0,48,11.0,0.0
5841,70.0,20,16,7.0,0.0
5842,63.0,0,48,11.0,0.0
5843,51.0,0,48,11.0,0.0
5844,51.0,0,48,13.0,0.0
5845,39.0,0,48,10.0,0.0
5846,55.0,8,48,11.0,0.0
5847,51.0,0,48,12.0,0.0
5848,58.0,0,48,11.0,0.0
5849,72.0,12,16,7.0,0.0
5850,70.0,28,16,7.0,0.0
5851,51.0,0,48,12.0,0.0
5852,55.0,0,48,11.0,0.0
5853,51.0,0,48,13.0,0.0
5854,61.0,6,48,11.0,0.0
5855,63.0,0,48,11.0,0.0
5856,69.0,24,24,7.0,0.0
5857,61.0,0,48,10.0,0.0
5858,58.0,0,48,11.0,0.0
5859,51.0,0,48,11.0,0.0
5860,70.0,30,24,7.0,0.0
5861,55.0,6,48,10.0,0.0
5862,51.0,0,48,10.0,0.0
5863,58.0,0,48,10.0,0.0
5864,75.0,24,24,7.0,0.0
5865,67.0,30,24,7.0,0.0
5866,68.0,6,48,7.0,0.0
5867,44.0,24,24,10.0,0.0
5868,46.0,30,24,10.0,0.0
5869,84.0,6,48,7.0,0.0
5870,80.0,0,48,7.0,0.0
5871,48.0,24,24,10.0,0.0
5872,49.0,30,24,10.0,0.0
5873,84.0,0,48,7.0,0.0
5874,80.0,6,48,7.0,0.0
5875,51.0,24,24,10.0,0.0
5876,53.0,30,24,10.0,0.0
5877,55.0,24,24,10.0,0.0
5878,44.0,0,24,12.0,0.0
5879,84.0,6,48,7.0,0.0
5880,80.0,0,48,7.0,0.0
5881,56.0,0,24,12.0,0.0
5882,56.0,30,24,10.0,0.0
5883,58.0,24,24,10.0,0.0
5884,87.0,0,48,7.0,0.0
5885,56.0,12,96,12.0,0.0
5886,84.0,6,48,7.0,0.0
5887,60.0,30,24,10.0,0.0
5888,87.0,6,48,7.0,0.0
5889,84.0,0,48,7.0,0.0
5890,61.0,12,24,10.0,0.0
5891,63.0,30,24,10.0,0.0
5892,87.0,0,48,7.0,0.0
5893,84.0,6,48,7.0,0.0
5894,65.0,24,24,10.0,0.0
5895,67.0,30,24,10.0,0.0
5896,68.0,24,24,10.0,0.0
5897,87.0,6,48,7.0,0.0
5898,92.0,0,48,7.0,0.0
5899,70.0,30,24,10.0,0.0
5900,92.0,6,48,7.0,0.0
5901,72.0,24,24,10.0,0.0
5902,87.0,0,48,7.0,0.0
5903,73.0,30,24,10.0,0.0
5904,92.0,0,48,7.0,0.0
5905,75.0,19,29,10.0,0.0
5906,56.0,5,24,11.0,0.0
5907,87.0,6,48,7.0,0.0
5908,68.0,11,24,11.0,0.0
5909,77.0,36,29,10.0,0.0
5910,68.0,12,96,11.0,0.0
5911,92.0,29,48,7.0,0.0
5912,87.0,0,48,7.0,0.0
5913,79.0,7,29,10.0,0.0
5914,80.0,19,29,10.0,0.0
5915,92.0,5,48,7.0,0.0
5916,87.0,0,48,7.0,0.0
5917,82.0,31,29,10.0,0.0
5918,84.0,18,96,10.0,0.0
5919,96.0,30,24,7.0,0.0
5920,94.0,30,24,7.0,0.0
5921,92.0,12,24,7.0,0.0
5922,91.0,30,24,7.0,0.0
5923,89.0,30,24,7.0,0.0
5924,87.0,30,24,7.0,0.0
5925,85.0,24,24,7.0,0.0
5926,63.0,6,48,10.0,0.0
5927,63.0,0,24,11.0,0.0
5928,84.0,30,24,7.0,0.0
5929,75.0,0,24,11.0,0.0
5930,68.0,0,48,10.0,0.0
5931,82.0,24,24,7.0,0.0
5932,72.0,6,48,10.0,0.0
5933,75.0,12,96,11.0,0.0
5934,80.0,30,24,7.0,0.0
5935,72.0,0,48,10.0,0.0
5936,68.0,6,48,10.0,0.0
5937,79.0,12,24,7.0,0.0
5938,77.0,30,24,7.0,0.0
5939,51.0,6,48,10.0,0.0
5940,75.0,24,24,7.0,0.0
5941,73.0,30,24,7.0,0.0
5942,60.0,6,48,10.0,0.0
5943,56.0,0,48,10.0,0.0
5944,72.0,24,24,7.0,0.0
5945,70.0,30,24,7.0,0.0
5946,60.0,6,48,10.0,0.0
5947,56.0,0,48,10.0,0.0
5948,68.0,24,24,7.0,0.0
5949,67.0,22,24,7.0,0.0
5950,51.0,12,24,11.0,0.0
5951,60.0,6,48,10.0,0.0
5952,65.0,8,16,7.0,0.0
5953,63.0,12,16,7.0,0.0
5954,63.0,2,24,11.0,0.0
5955,62.0,20,16,7.0,0.0
5956,63.0,12,96,11.0,0.0
5957,67.0,8,48,10.0,0.0
5958,70.0,0,48,10.0,0.0
5959,63.0,20,16,7.0,0.0
5960,64.0,12,16,7.0,0.0
5961,65.0,28,16,7.0,0.0
5962,66.0,12,24,7.0,0.0
5963,70.0,0,48,10.0,0.0
5964,67.0,6,48,10.0,0.0
5965,67.0,30,24,7.0,0.0
5966,68.0,6,48,7.0,0.0
5967,45.0,24,24,10.0,0.0
5968,46.0,30,24,10.0,0.0
5969,84.0,6,48,7.0,0.0
5970,80.0,0,48,7.0,0.0
5971,48.0,24,24,10.0,0.0
5972,49.0,30,24,10.0,0.0
5973,80.0,0,48,7.0,0.0
5974,84.0,6,48,7.0,0.0
5975,51.0,24,24,10.0,0.0
5976,53.0,30,24,10.0,0.0
5977,44.0,0,24,12.0,0.0
5978,84.0,6,48,7.0,0.0
5979,80.0,0,48,7.0,0.0
5980,55.0,24,24,10.0,0.0
5981,56.0,30,24,12.0,0.0
5982,56.0,0,24,10.0,0.0
5983,84.0,0,48,7.0,0.0
5984,58.0,24,24,10.0,0.0
5985,87.0,6,48,7.0,0.0
5986,56.0,12,96,12.0,0.0
5987,60.0,30,24,10.0,0.0
5988,61.0,12,24,10.0,0.0
5989,84.0,6,48,7.0,0.0
5990,87.0,0,48,7.0,0.0
5991,63.0,30,24,10.0,0.0
5992,65.0,24,24,10.0,0.0
5993,87.0,6,48,7.0,0.0
5994,84.0,0,48,7.0,0.0
5995,67.0,30,24,10.0,0.0
5996,87.0,6,48,7.0,0.0
5997,92.0,0,48,7.0,0.0
5998,68.0,24,24,10.0,0.0
5999,70.0,30,24,10.0,0.0
6000,72.0,24,24,10.0,0.0
6001,87.0,0,48,7.0,0.0
6002,92.0,6,48,7.0,0.0
6003,73.0,22,24,10.0,0.0
6004,75.0,8,16,10.0,0.0
6005,56.0,12,24,11.0,0.0
6006,87.0,0,48,7.0,0.0
6007,92.0,6,48,7.0,0.0
6008,77.0,12,16,10.0,0.0
6009,68.0,2,24,11.0,0.0
6010,79.0,28,16,10.0,0.0
6011,80.0,24,24,10.0,0.0
6012,92.0,6,48,7.0,0.0
6013,96.0,0,48,7.0,0.0
6014,68.0,12,96,11.0,0.0
6015,82.0,30,24,10.0,0.0
6016,92.0,0,48,7.0,0.0
6017,96.0,6,48,7.0,0.0
6018,84.0,12,24,10.0,0.0
6019,85.0,30,24,10.0,0.0
6020,99.0,30,24,7.0,0.0
6021,87.0,18,96,10.0,0.0
6022,97.0,30,24,7.0,0.0
6023,96.0,12,24,7.0,0.0
6024,94.0,30,24,7.0,0.0
6025,92.0,30,24,7.0,0.0
6026,91.0,22,24,7.0,0.0
6027,63.0,6,48,10.0,0.0
6028,89.0,8,16,7.0,0.0
6029,63.0,12,24,11.0,0.0
6030,87.0,12,16,7.0,0.0
6031,75.0,2,24,11.0,0.0
6032,85.0,20,16,7.0,0.0
6033,72.0,8,48,10.0,0.0
6034,84.0,20,16,7.0,0.0
6035,75.0,0,96,11.0,0.0
6036,68.0,0,48,10.0,0.0
6037,82.0,12,16,7.0,0.0
6038,80.0,20,16,7.0,0.0
6039,72.0,8,48,10.0,0.0
6040,79.0,20,16,7.0,0.0
6041,68.0,0,48,10.0,0.0
6042,77.0,12,16,7.0,0.0
6043,75.0,20,16,7.0,0.0
6044,51.0,8,48,10.0,0.0
6045,73.0,20,16,7.0,0.0
6046,72.0,12,16,7.0,0.0
6047,70.0,20,16,7.0,0.0
6048,68.0,20,16,7.0,0.0
6049,60.0,8,48,10.0,0.0
6050,56.0,0,48,10.0,0.0
6051,67.0,12,16,7.0,0.0
6052,65.0,20,16,7.0,0.0
6053,63.0,20,16,7.0,0.0
6054,56.0,8,48,10.0,0.0
6055,60.0,0,48,10.0,0.0
6056,61.0,12,16,7.0,0.0
6057,60.0,20,16,7.0,0.0
6058,58.0,0,16,10.0,0.0
6059,39.0,6,48,10.0,0.0
6060,58.0,8,16,7.0,0.0
6061,51.0,12,24,11.0,0.0
6062,56.0,12,16,7.0,0.0
6063,56.0,0,16,10.0,0.0
6064,63.0,2,24,11.0,0.0
6065,55.0,0,16,10.0,0.0
6066,55.0,28,16,7.0,0.0
6067,53.0,24,24,7.0,0.0
6068,63.0,12,96,11.0,0.0
6069,49.0,6,48,10.0,0.0
6070,53.0,0,24,10.0,0.0
6071,46.0,0,48,10.0,0.0
6072,51.0,30,24,10.0,0.0
6073,51.0,0,24,7.0,0.0
6074,46.0,0,48,10.0,0.0
6075,49.0,6,48,10.0,0.0
6076,53.0,12,24,7.0,0.0
6077,53.0,0,24,10.0,0.0
6078,55.0,0,24,7.0,0.0
6079,55.0,78,24,10.0,0.0
6080,48.0,0,96,10.0,0.0
6081,44.0,0,96,10.0,0.0
6082,80.0,0,96,0.0,0.0
6083,80.0,0,96,1.0,0.0
6084,68.0,0,96,1.0,0.0
6085,51.0,0,96,11.0,0.0
6086,56.0,0,96,7.0,0.0
6087,44.0,18,96,4.0,0.0
6088,68.0,0,96,3.0,0.0
6089,56.0,0,96,4.0,0.0
6090,56.0,0,72,11.0,0.0
6091,68.0,24,72,11.0,0.0
6092,60.0,0,96,11.0,0.0
6093,63.0,0,96,11.0,0.0
6094,80.0,0,96,11.0,0.0
6095,56.0,0,96,13.0,0.0
6096,72.0,0,96,11.0,0.0
6097,56.0,0,96,12.0,0.0
6098,56.0,0,24,11.0,0.0
6099,68.0,54,24,11.0,0.0
6100,56.0,60,48,11.0,0.0
6101,68.0,0,48,11.0,0.0
6102,68.0,60,48,11.0,0.0
6103,56.0,0,48,11.0,0.0
6104,68.0,60,48,11.0,0.0
6105,56.0,0,48,11.0,0.0
6106,68.0,66,48,11.0,0.0
6107,56.0,0,48,11.0,0.0
6108,68.0,0,288,11.0,0.0
6109,92.0,0,144,0.0,0.0
6110,53.0,0,144,12.0,0.0
6111,80.0,0,144,1.0,0.0
6112,80.0,6,288,3.0,0.0
6113,68.0,0,288,3.0,0.0
6114,56.0,0,144,4.0,0.0
6115,53.0,0,144,4.0,0.0
6116,80.0,30,144,11.0,0.0
6117,80.0,0,288,0.0,0.0
6118,53.0,0,144,13.0,0.0
6119,56.0,30,24,11.0,0.0
6120,58.0,30,24,11.0,0.0
6121,60.0,30,24,11.0,0.0
6122,61.0,0,24,11.0,0.0
6123,62.0,30,24,11.0,0.0
6124,49.0,0,144,13.0,0.0
6125,63.0,30,24,11.0,0.0
6126,77.0,0,144,1.0,0.0
6127,89.0,0,144,0.0,0.0
6128,49.0,0,144,4.0,0.0
6129,65.0,0,144,4.0,0.0
6130,77.0,0,24,11.0,0.0
6131,49.0,30,144,12.0,0.0
6132,76.0,30,24,11.0,0.0
6133,62.0,0,24,11.0,0.0
6134,63.0,24,24,11.0,0.0
6135,77.0,0,24,11.0,0.0
6136,79.0,0,24,11.0,0.0
6137,65.0,30,24,11.0,0.0
6138,80.0,0,24,11.0,0.0
6139,67.0,0,24,11.0,0.0
6140,65.0,0,24,11.0,0.0
6141,77.0,78,24,11.0,0.0
6142,63.0,0,96,3.0,0.0
6143,51.0,0,72,6.0,0.0
6144,63.0,0,72,6.0,0.0
6145,63.0,0,72,5.0,0.0
6146,75.0,0,96,0.0,0.0
6147,87.0,0,96,0.0,0.0
6148,48.0,0,96,13.0,0.0
6149,75.0,0,96,3.0,0.0
6150,51.0,24,72,5.0,0.0
6151,63.0,0,96,4.0,0.0
6152,48.0,0,96,4.0,0.0
6153,63.0,0,96,11.0,0.0
6154,48.0,0,96,12.0,0.0
6155,75.0,18,96,11.0,0.0
6156,75.0,0,96,1.0,0.0
6157,63.0,54,24,6.0,0.0
6158,51.0,0,24,6.0,0.0
6159,63.0,0,24,5.0,0.0
6160,51.0,0,24,5.0,0.0
6161,63.0,60,48,5.0,0.0
6162,51.0,0,48,5.0,0.0
6163,51.0,0,48,6.0,0.0
6164,63.0,0,48,6.0,0.0
6165,63.0,0,48,5.0,0.0
6166,51.0,0,48,6.0,0.0
6167,63.0,60,48,6.0,0.0
6168,51.0,0,48,5.0,0.0
6169,63.0,0,48,5.0,0.0
6170,63.0,60,48,6.0,0.0
6171,51.0,0,48,6.0,0.0
6172,51.0,0,48,5.0,0.0
6173,63.0,0,48,5.0,0.0
6174,51.0,0,48,5.0,0.0
6175,51.0,36,48,6.0,0.0
6176,63.0,0,48,6.0,0.0
6177,58.0,0,144,4.0,0.0
6178,70.0,0,144,3.0,0.0
6179,61.0,0,144,4.0,0.0
6180,51.0,0,288,5.0,0.0
6181,63.0,0,288,5.0,0.0
6182,58.0,0,24,11.0,0.0
6183,82.0,0,144,1.0,0.0
6184,73.0,30,144,11.0,0.0
6185,73.0,0,144,3.0,0.0
6186,55.0,30,24,11.0,0.0
6187,75.0,0,288,1.0,0.0
6188,63.0,0,144,12.0,0.0
6189,82.0,0,144,0.0,0.0
6190,85.0,0,144,0.0,0.0
6191,85.0,0,144,11.0,0.0
6192,51.0,0,288,6.0,0.0
6193,63.0,6,288,6.0,0.0
6194,63.0,0,144,13.0,0.0
6195,58.0,0,24,11.0,0.0
6196,61.0,30,24,11.0,0.0
6197,55.0,30,24,11.0,0.0
6198,58.0,0,24,11.0,0.0
6199,61.0,30,24,11.0,0.0
6200,58.0,0,24,11.0,0.0
6201,55.0,0,24,11.0,0.0
6202,58.0,0,24,11.0,0.0
6203,61.0,30,24,11.0,0.0
6204,82.0,0,144,0.0,0.0
6205,58.0,0,24,11.0,0.0
6206,79.0,30,144,1.0,0.0
6207,70.0,0,144,3.0,0.0
6208,67.0,0,144,3.0,0.0
6209,55.0,30,24,11.0,0.0
6210,82.0,0,24,11.0,0.0
6211,79.0,0,144,0.0,0.0
6212,51.0,0,144,13.0,0.0
6213,51.0,0,144,12.0,0.0
6214,70.0,0,24,11.0,0.0
6215,58.0,0,144,4.0,0.0
6216,55.0,0,144,4.0,0.0
6217,54.0,0,24,11.0,0.0
6218,81.0,0,24,11.0,0.0
6219,57.0,0,24,11.0,0.0
6220,69.0,30,24,11.0,0.0
6221,58.0,0,24,11.0,0.0
6222,82.0,24,24,11.0,0.0
6223,70.0,0,24,11.0,0.0
6224,55.0,0,24,11.0,0.0
6225,72.0,0,24,11.0,0.0
6226,56.0,0,24,11.0,0.0
6227,84.0,30,24,11.0,0.0
6228,60.0,0,24,11.0,0.0
6229,58.0,0,24,11.0,0.0
6230,62.0,0,24,11.0,0.0
6231,73.0,0,24,11.0,0.0
6232,85.0,0,24,11.0,0.0
6233,82.0,0,24,11.0,0.0
6234,55.0,78,24,11.0,0.0
6235,58.0,0,24,11.0,0.0
6236,70.0,0,24,11.0,0.0
6237,80.0,0,96,11.0,0.0
6238,68.0,0,72,11.0,0.0
6239,68.0,0,96,3.0,0.0
6240,80.0,0,96,1.0,0.0
6241,44.0,0,96,13.0,0.0
6242,44.0,0,96,12.0,0.0
6243,56.0,0,96,4.0,0.0
6244,56.0,24,72,11.0,0.0
6245,80.0,0,96,0.0,0.0
6246,48.0,0,96,11.0,0.0
6247,72.0,0,96,1.0,0.0
6248,56.0,18,6,11.0,0.0
6249,68.0,54,24,11.0,0.0
6250,56.0,60,48,11.0,0.0
6251,68.0,0,48,11.0,0.0
6252,68.0,60,48,11.0,0.0
6253,56.0,0,48,11.0,0.0
6254,68.0,60,48,11.0,0.0
6255,56.0,0,48,11.0,0.0
6256,68.0,0,48,11.0,0.0
6257,56.0,84,48,11.0,0.0
6258,56.0,0,96,4.0,0.0
6259,44.0,0,96,13.0,0.0
6260,68.0,0,96,3.0,0.0
6261,44.0,0,96,12.0,0.0
6262,44.0,0,96,4.0,0.0
6263,68.0,0,96,1.0,0.0
6264,80.0,0,96,1.0,0.0
6265,56.0,24,72,11.0,0.0
6266,68.0,0,72,11.0,0.0
6267,80.0,18,96,0.0,0.0
6268,56.0,0,6,11.0,0.0
6269,68.0,0,6,11.0,0.0
6270,68.0,60,48,11.0,0.0
6271,56.0,0,48,11.0,0.0
6272,68.0,0,48,11.0,0.0
6273,56.0,60,48,11.0,0.0
6274,56.0,60,48,11.0,0.0
6275,68.0,0,48,11.0,0.0
6276,68.0,0,48,11.0,0.0
6277,56.0,84,48,11.0,0.0
6278,71.0,42,72,1.0,0.0
6279,59.0,0,72,4.0,0.0
6280,71.0,0,24,1.0,0.0
6281,59.0,54,24,4.0,0.0
6282,71.0,60,48,1.0,0.0
6283,59.0,0,48,4.0,0.0
6284,59.0,0,48,4.0,0.0
6285,71.0,60,48,1.0,0.0
6286,71.0,60,48,1.0,0.0
6287,59.0,0,48,4.0,0.0
6288,59.0,0,48,4.0,0.0
6289,71.0,60,48,1.0,0.0
6290,59.0,0,48,4.0,0.0
6291,71.0,60,48,1.0,0.0
6292,71.0,60,48,1.0,0.0
6293,59.0,0,48,4.0,0.0
6294,71.0,60,48,1.0,0.0
6295,59.0,0,48,4.0,0.0
6296,71.0,0,48,1.0,0.0
6297,59.0,60,48,4.0,0.0
6298,71.0,60,48,1.0,0.0
6299,59.0,0,48,4.0,0.0
6300,71.0,360,48,1.0,0.0
6301,59.0,0,48,4.0,0.0
6302,71.0,0,1896,1.0,0.0
6303,59.0,0,1896,4.0,0.0
6304,71.0,60,48,7.0,0.0
6305,68.0,0,96,14.0,0.0
6306,64.0,0,96,14.0,0.0
6307,59.0,0,96,14.0,0.0
6308,71.0,48,48,7.0,0.0
6309,40.0,12,96,14.0,0.0
6310,40.0,0,48,10.0,0.0
6311,52.0,0,96,14.0,0.0
6312,64.0,0,48,10.0,0.0
6313,76.0,60,48,7.0,0.0
6314,59.0,60,48,10.0,0.0
6315,76.0,0,48,7.0,0.0
6316,80.0,0,48,7.0,0.0
6317,56.0,60,48,10.0,0.0
6318,64.0,36,48,10.0,0.0
6319,59.0,0,48,14.0,0.0
6320,80.0,24,24,7.0,0.0
6321,40.0,0,48,14.0,0.0
6322,68.0,0,48,14.0,0.0
6323,59.0,0,48,10.0,0.0
6324,64.0,6,48,14.0,0.0
6325,52.0,0,48,14.0,0.0
6326,83.0,30,24,7.0,0.0
6327,59.0,0,96,14.0,0.0
6328,40.0,0,96,14.0,0.0
6329,68.0,0,96,14.0,0.0
6330,64.0,12,96,14.0,0.0
6331,52.0,0,96,14.0,0.0
6332,83.0,24,24,7.0,0.0
6333,56.0,6,48,10.0,0.0
6334,88.0,42,24,7.0,0.0
6335,64.0,60,48,10.0,0.0
6336,88.0,12,216,7.0,0.0
6337,59.0,60,48,10.0,0.0
6338,56.0,48,48,10.0,0.0
6339,64.0,36,48,10.0,0.0
6340,40.0,0,48,14.0,0.0
6341,88.0,24,24,7.0,0.0
6342,59.0,6,48,14.0,0.0
6343,68.0,0,48,14.0,0.0
6344,59.0,0,48,10.0,0.0
6345,52.0,0,48,14.0,0.0
6346,64.0,0,48,14.0,0.0
6347,92.0,30,24,7.0,0.0
6348,40.0,0,96,14.0,0.0
6349,59.0,0,96,14.0,0.0
6350,52.0,0,96,14.0,0.0
6351,54.0,6,48,10.0,0.0
6352,66.0,12,96,14.0,0.0
6353,87.0,24,24,7.0,0.0
6354,69.0,0,96,14.0,0.0
6355,90.0,30,24,7.0,0.0
6356,63.0,6,48,10.0,0.0
6357,93.0,12,24,7.0,0.0
6358,90.0,30,24,7.0,0.0
6359,87.0,24,24,7.0,0.0
6360,59.0,6,48,10.0,0.0
6361,83.0,30,24,7.0,0.0
6362,87.0,24,24,7.0,0.0
6363,54.0,6,48,10.0,0.0
6364,90.0,30,24,7.0,0.0
6365,63.0,6,48,10.0,0.0
6366,93.0,24,24,7.0,0.0
6367,90.0,30,24,7.0,0.0
6368,59.0,0,48,14.0,0.0
6369,40.0,0,48,14.0,0.0
6370,52.0,0,48,14.0,0.0
6371,69.0,0,48,14.0,0.0
6372,65.0,0,48,14.0,0.0
6373,87.0,24,24,7.0,0.0
6374,59.0,6,48,10.0,0.0
6375,83.0,30,24,7.0,0.0
6376,56.0,6,48,10.0,0.0
6377,68.0,12,96,14.0,0.0
6378,59.0,0,96,14.0,0.0
6379,88.0,24,24,7.0,0.0
6380,40.0,0,96,14.0,0.0
6381,64.0,0,96,14.0,0.0
6382,52.0,0,96,14.0,0.0
6383,92.0,30,24,7.0,0.0
6384,64.0,6,48,10.0,0.0
6385,95.0,12,24,7.0,0.0
6386,92.0,30,24,7.0,0.0
6387,59.0,6,48,10.0,0.0
6388,88.0,24,24,7.0,0.0
6389,83.0,30,24,7.0,0.0
6390,88.0,24,24,7.0,0.0
6391,56.0,6,48,10.0,0.0
6392,92.0,30,24,7.0,0.0
6393,64.0,6,48,10.0,0.0
6394,95.0,24,24,7.0,0.0
6395,92.0,30,24,7.0,0.0
6396,68.0,0,48,14.0,0.0
6397,88.0,24,24,7.0,0.0
6398,59.0,0,48,14.0,0.0
6399,40.0,0,48,14.0,0.0
6400,52.0,6,48,14.0,0.0
6401,59.0,0,48,10.0,0.0
6402,64.0,0,48,14.0,0.0
6403,83.0,30,24,7.0,0.0
6404,87.0,24,24,7.0,0.0
6405,66.0,12,96,14.0,0.0
6406,59.0,0,96,14.0,0.0
6407,40.0,0,96,14.0,0.0
6408,52.0,0,96,14.0,0.0
6409,54.0,6,48,10.0,0.0
6410,69.0,0,96,14.0,0.0
6411,90.0,30,24,7.0,0.0
6412,63.0,6,48,10.0,0.0
6413,93.0,12,24,7.0,0.0
6414,90.0,30,24,7.0,0.0
6415,87.0,24,24,7.0,0.0
6416,59.0,6,48,10.0,0.0
6417,83.0,30,24,7.0,0.0
6418,87.0,24,24,7.0,0.0
6419,54.0,6,48,10.0,0.0
6420,90.0,30,24,7.0,0.0
6421,63.0,6,48,10.0,0.0
6422,93.0,24,24,7.0,0.0
6423,90.0,30,24,7.0,0.0
6424,65.0,0,48,11.0,0.0
6425,87.0,24,24,7.0,0.0
6426,69.0,0,48,11.0,0.0
6427,59.0,0,48,10.0,0.0
6428,59.0,6,48,11.0,0.0
6429,52.0,0,48,12.0,0.0
6430,83.0,30,24,7.0,0.0
6431,64.0,0,48,11.0,0.0
6432,68.0,0,48,11.0,0.0
6433,88.0,24,24,7.0,0.0
6434,56.0,0,48,10.0,0.0
6435,59.0,0,48,11.0,0.0
6436,52.0,6,48,12.0,0.0
6437,92.0,30,24,7.0,0.0
6438,95.0,24,24,7.0,0.0
6439,64.0,0,48,11.0,0.0
6440,64.0,0,48,10.0,0.0
6441,59.0,6,48,11.0,0.0
6442,68.0,0,48,11.0,0.0
6443,52.0,0,48,12.0,0.0
6444,92.0,30,24,7.0,0.0
6445,88.0,24,24,7.0,0.0
6446,59.0,6,48,10.0,0.0
6447,83.0,30,24,7.0,0.0
6448,88.0,24,24,7.0,0.0
6449,71.0,0,48,11.0,0.0
6450,59.0,0,48,11.0,0.0
6451,56.0,6,48,11.0,0.0
6452,64.0,0,48,11.0,0.0
6453,56.0,0,48,10.0,0.0
6454,52.0,0,48,12.0,0.0
6455,92.0,30,24,7.0,0.0
6456,95.0,24,24,7.0,0.0
6457,59.0,0,48,11.0,0.0
6458,64.0,0,48,11.0,0.0
6459,56.0,0,48,11.0,0.0
6460,52.0,0,48,12.0,0.0
6461,64.0,0,48,10.0,0.0
6462,71.0,6,48,11.0,0.0
6463,92.0,30,24,7.0,0.0
6464,88.0,24,24,7.0,0.0
6465,59.0,6,48,10.0,0.0
6466,83.0,30,24,7.0,0.0
6467,56.0,0,48,10.0,0.0
6468,88.0,24,24,7.0,0.0
6469,64.0,0,48,11.0,0.0
6470,56.0,0,48,11.0,0.0
6471,59.0,0,48,11.0,0.0
6472,71.0,0,48,11.0,0.0
6473,52.0,6,48,12.0,0.0
6474,92.0,30,24,7.0,0.0
6475,52.0,0,48,12.0,0.0
6476,56.0,6,48,11.0,0.0
6477,59.0,0,48,11.0,0.0
6478,71.0,0,48,11.0,0.0
6479,64.0,0,48,11.0,0.0
6480,64.0,0,48,10.0,0.0
6481,95.0,24,24,7.0,0.0
6482,92.0,30,24,7.0,0.0
6483,88.0,24,24,7.0,0.0
6484,59.0,6,48,10.0,0.0
6485,83.0,30,24,7.0,0.0
6486,56.0,6,48,11.0,0.0
6487,59.0,0,48,11.0,0.0
6488,56.0,0,48,10.0,0.0
6489,64.0,0,48,11.0,0.0
6490,71.0,0,48,11.0,0.0
6491,52.0,0,48,12.0,0.0
6492,88.0,24,24,7.0,0.0
6493,92.0,30,24,7.0,0.0
6494,59.0,0,48,11.0,0.0
6495,56.0,6,48,11.0,0.0
6496,95.0,24,24,7.0,0.0
6497,64.0,0,48,10.0,0.0
6498,71.0,0,48,11.0,0.0
6499,64.0,0,48,11.0,0.0
6500,52.0,0,48,12.0,0.0
6501,92.0,30,24,7.0,0.0
6502,59.0,6,48,10.0,0.0
6503,88.0,24,24,7.0,0.0
6504,83.0,30,24,7.0,0.0
6505,64.0,0,48,11.0,0.0
6506,45.0,0,48,10.0,0.0
6507,88.0,24,24,7.0,0.0
6508,61.0,0,48,11.0,0.0
6509,57.0,0,48,11.0,0.0
6510,57.0,0,48,12.0,0.0
6511,73.0,6,48,11.0,0.0
6512,93.0,30,24,7.0,0.0
6513,64.0,6,48,10.0,0.0
6514,57.0,0,48,11.0,0.0
6515,64.0,0,48,11.0,0.0
6516,73.0,0,48,11.0,0.0
6517,57.0,0,48,12.0,0.0
6518,61.0,0,48,11.0,0.0
6519,97.0,24,24,7.0,0.0
6520,93.0,30,24,7.0,0.0
6521,57.0,6,48,10.0,0.0
6522,61.0,0,48,10.0,0.0
6523,88.0,24,24,7.0,0.0
6524,85.0,30,24,7.0,0.0
6525,61.0,0,48,11.0,0.0
6526,73.0,6,48,11.0,0.0
6527,57.0,0,48,11.0,0.0
6528,64.0,0,48,11.0,0.0
6529,57.0,0,48,12.0,0.0
6530,88.0,24,24,7.0,0.0
6531,45.0,0,48,10.0,0.0
6532,93.0,30,24,7.0,0.0
6533,73.0,0,48,11.0,0.0
6534,57.0,0,48,12.0,0.0
6535,64.0,0,48,10.0,0.0
6536,61.0,6,48,11.0,0.0
6537,97.0,24,24,7.0,0.0
6538,57.0,0,48,11.0,0.0
6539,64.0,0,48,11.0,0.0
6540,93.0,30,24,7.0,0.0
6541,88.0,24,24,7.0,0.0
6542,61.0,0,48,10.0,0.0
6543,57.0,6,48,10.0,0.0
6544,85.0,30,24,7.0,0.0
6545,64.0,0,48,11.0,0.0
6546,57.0,6,48,11.0,0.0
6547,61.0,0,48,11.0,0.0
6548,45.0,0,48,10.0,0.0
6549,57.0,0,48,12.0,0.0
6550,88.0,24,24,7.0,0.0
6551,73.0,0,48,11.0,0.0
6552,93.0,30,24,7.0,0.0
6553,61.0,0,48,11.0,0.0
6554,57.0,0,48,11.0,0.0
6555,64.0,6,48,10.0,0.0
6556,97.0,24,24,7.0,0.0
6557,73.0,0,48,11.0,0.0
6558,57.0,0,48,12.0,0.0
6559,64.0,0,48,11.0,0.0
6560,93.0,30,24,7.0,0.0
6561,88.0,24,24,7.0,0.0
6562,57.0,6,48,10.0,0.0
6563,61.0,0,48,10.0,0.0
6564,85.0,30,24,7.0,0.0
6565,57.0,6,48,12.0,0.0
6566,45.0,0,48,10.0,0.0
6567,64.0,0,48,11.0,0.0
6568,88.0,24,24,7.0,0.0
6569,57.0,0,48,11.0,0.0
6570,61.0,0,48,11.0,0.0
6571,73.0,0,48,11.0,0.0
6572,93.0,30,24,7.0,0.0
6573,97.0,24,24,7.0,0.0
6574,57.0,0,48,11.0,0.0
6575,61.0,0,48,11.0,0.0
6576,57.0,0,48,12.0,0.0
6577,64.0,6,48,11.0,0.0
6578,73.0,0,48,11.0,0.0
6579,64.0,0,48,10.0,0.0
6580,93.0,30,24,7.0,0.0
6581,61.0,6,48,10.0,0.0
6582,88.0,24,24,7.0,0.0
6583,57.0,0,48,10.0,0.0
6584,85.0,30,24,7.0,0.0
6585,47.0,6,48,10.0,0.0
6586,88.0,24,24,7.0,0.0
6587,59.0,0,48,11.0,0.0
6588,71.0,0,48,11.0,0.0
6589,64.0,0,48,11.0,0.0
6590,59.0,0,48,12.0,0.0
6591,56.0,0,48,11.0,0.0
6592,92.0,30,24,7.0,0.0
6593,95.0,24,24,7.0,0.0
6594,71.0,0,48,11.0,0.0
6595,59.0,0,48,12.0,0.0
6596,59.0,0,48,11.0,0.0
6597,64.0,6,48,10.0,0.0
6598,56.0,0,48,11.0,0.0
6599,64.0,0,48,11.0,0.0
6600,83.0,30,24,7.0,0.0
6601,88.0,24,24,7.0,0.0
6602,56.0,0,48,10.0,0.0
6603,59.0,6,48,10.0,0.0
6604,92.0,22,24,7.0,0.0
6605,64.0,0,48,11.0,0.0
6606,47.0,0,48,10.0,0.0
6607,100.0,20,16,7.0,0.0
6608,71.0,0,48,11.0,0.0
6609,47.0,8,48,12.0,0.0
6610,56.0,0,48,11.0,0.0
6611,59.0,0,48,11.0,0.0
6612,104.0,12,16,7.0,0.0
6613,107.0,20,16,7.0,0.0
6614,100.0,20,16,7.0,0.0
6615,64.0,0,48,10.0,0.0
6616,59.0,8,48,11.0,0.0
6617,56.0,0,48,11.0,0.0
6618,71.0,0,48,11.0,0.0
6619,64.0,0,48,11.0,0.0
6620,47.0,0,48,12.0,0.0
6621,95.0,12,16,7.0,0.0
6622,92.0,16,16,7.0,0.0
6623,56.0,9,48,10.0,0.0
6624,100.0,15,12,7.0,0.0
6625,59.0,0,48,10.0,0.0
6626,95.0,15,12,7.0,0.0
6627,92.0,6,12,7.0,0.0
6628,88.0,51,12,7.0,0.0
6629,71.0,12,96,7.0,0.0
6630,47.0,0,48,10.0,0.0
6631,61.0,48,48,11.0,0.0
6632,59.0,0,48,11.0,0.0
6633,71.0,0,48,11.0,0.0
6634,66.0,0,48,11.0,0.0
6635,47.0,0,48,12.0,0.0
6636,63.0,0,48,10.0,0.0
6637,61.0,0,48,11.0,0.0
6638,71.0,0,48,11.0,0.0
6639,47.0,0,48,12.0,0.0
6640,59.0,60,48,11.0,0.0
6641,66.0,0,48,11.0,0.0
6642,54.0,24,48,10.0,0.0
6643,59.0,0,48,10.0,0.0
6644,61.0,0,48,11.0,0.0
6645,66.0,0,48,11.0,0.0
6646,59.0,0,48,11.0,0.0
6647,47.0,0,48,12.0,0.0
6648,78.0,15,12,7.0,0.0
6649,47.0,9,48,10.0,0.0
6650,71.0,0,48,11.0,0.0
6651,80.0,15,12,7.0,0.0
6652,78.0,6,12,7.0,0.0
6653,80.0,15,12,7.0,0.0
6654,66.0,0,48,11.0,0.0
6655,59.0,0,48,11.0,0.0
6656,61.0,0,48,11.0,0.0
6657,47.0,9,48,12.0,0.0
6658,78.0,15,12,7.0,0.0
6659,63.0,0,48,10.0,0.0
6660,71.0,0,48,11.0,0.0
6661,80.0,15,12,7.0,0.0
6662,78.0,6,12,7.0,0.0
6663,80.0,15,12,7.0,0.0
6664,59.0,0,48,10.0,0.0
6665,78.0,15,12,7.0,0.0
6666,54.0,9,48,10.0,0.0
6667,80.0,15,12,7.0,0.0
6668,78.0,6,12,7.0,0.0
6669,80.0,27,12,7.0,0.0
6670,40.0,24,24,10.0,0.0
6671,76.0,6,48,7.0,0.0
6672,42.0,30,24,10.0,0.0
6673,83.0,6,48,7.0,0.0
6674,44.0,24,24,10.0,0.0
6675,80.0,0,48,7.0,0.0
6676,45.0,30,24,10.0,0.0
6677,80.0,6,48,7.0,0.0
6678,47.0,24,24,10.0,0.0
6679,83.0,0,48,7.0,0.0
6680,49.0,30,24,10.0,0.0
6681,80.0,0,48,7.0,0.0
6682,52.0,0,24,11.0,0.0
6683,83.0,6,48,7.0,0.0
6684,51.0,24,24,10.0,0.0
6685,64.0,0,24,11.0,0.0
6686,52.0,30,24,10.0,0.0
6687,83.0,6,48,7.0,0.0
6688,88.0,0,48,7.0,0.0
6689,64.0,12,96,11.0,0.0
6690,54.0,24,24,10.0,0.0
6691,56.0,30,24,10.0,0.0
6692,83.0,0,48,7.0,0.0
6693,88.0,6,48,7.0,0.0
6694,57.0,12,24,10.0,0.0
6695,59.0,30,24,10.0,0.0
6696,61.0,24,24,10.0,0.0
6697,83.0,6,48,7.0,0.0
6698,88.0,0,48,7.0,0.0
6699,63.0,30,24,10.0,0.0
6700,88.0,6,48,7.0,0.0
6701,92.0,0,48,7.0,0.0
6702,64.0,24,24,10.0,0.0
6703,66.0,30,24,10.0,0.0
6704,92.0,6,48,7.0,0.0
6705,88.0,0,48,7.0,0.0
6706,68.0,24,24,10.0,0.0
6707,69.0,30,24,10.0,0.0
6708,88.0,6,48,7.0,0.0
6709,92.0,0,48,7.0,0.0
6710,64.0,0,24,11.0,0.0
6711,71.0,24,24,10.0,0.0
6712,76.0,0,24,11.0,0.0
6713,73.0,30,24,10.0,0.0
6714,92.0,0,48,7.0,0.0
6715,88.0,6,48,7.0,0.0
6716,75.0,24,24,10.0,0.0
6717,76.0,0,96,11.0,0.0
6718,76.0,22,24,10.0,0.0
6719,92.0,0,48,7.0,0.0
6720,88.0,8,48,7.0,0.0
6721,78.0,20,16,10.0,0.0
6722,80.0,12,16,10.0,0.0
6723,81.0,28,16,10.0,0.0
6724,83.0,2,112,10.0,0.0
6725,95.0,30,24,7.0,0.0
6726,93.0,30,24,7.0,0.0
6727,92.0,28,24,7.0,0.0
6728,90.0,30,24,7.0,0.0
6729,88.0,30,24,7.0,0.0
6730,87.0,30,24,7.0,0.0
6731,59.0,0,24,11.0,0.0
6732,85.0,24,24,7.0,0.0
6733,59.0,6,48,10.0,0.0
6734,71.0,30,24,11.0,0.0
6735,83.0,0,24,7.0,0.0
6736,81.0,24,24,7.0,0.0
6737,64.0,6,48,10.0,0.0
6738,71.0,12,96,11.0,0.0
6739,68.0,0,48,10.0,0.0
6740,80.0,22,24,7.0,0.0
6741,68.0,8,48,10.0,0.0
6742,64.0,0,48,10.0,0.0
6743,78.0,20,16,7.0,0.0
6744,76.0,0,16,7.0,0.0
6745,75.0,28,16,7.0,0.0
6746,73.0,24,24,7.0,0.0
6747,47.0,6,48,10.0,0.0
6748,71.0,30,24,7.0,0.0
6749,56.0,6,48,10.0,0.0
6750,69.0,24,24,7.0,0.0
6751,52.0,0,48,10.0,0.0
6752,68.0,30,24,7.0,0.0
6753,52.0,0,48,10.0,0.0
6754,56.0,6,48,10.0,0.0
6755,66.0,24,24,7.0,0.0
6756,64.0,22,24,7.0,0.0
6757,63.0,8,16,7.0,0.0
6758,47.0,12,24,12.0,0.0
6759,47.0,6,48,10.0,0.0
6760,61.0,12,16,7.0,0.0
6761,59.0,2,24,12.0,0.0
6762,59.0,20,16,7.0,0.0
6763,59.0,12,96,12.0,0.0
6764,54.0,8,48,10.0,0.0
6765,58.0,20,16,7.0,0.0
6766,57.0,0,48,10.0,0.0
6767,59.0,12,16,7.0,0.0
6768,61.0,28,16,7.0,0.0
6769,54.0,0,48,10.0,0.0
6770,57.0,6,48,10.0,0.0
6771,62.0,12,24,7.0,0.0
6772,63.0,30,24,7.0,0.0
6773,40.0,24,24,10.0,0.0
6774,64.0,6,48,7.0,0.0
6775,42.0,30,24,10.0,0.0
6776,44.0,24,24,10.0,0.0
6777,80.0,0,48,7.0,0.0
6778,83.0,6,48,7.0,0.0
6779,45.0,30,24,10.0,0.0
6780,80.0,6,48,7.0,0.0
6781,83.0,0,48,7.0,0.0
6782,47.0,24,24,10.0,0.0
6783,49.0,30,24,10.0,0.0
6784,80.0,6,48,7.0,0.0
6785,83.0,0,48,7.0,0.0
6786,52.0,24,24,11.0,0.0
6787,51.0,0,24,10.0,0.0
6788,64.0,30,24,11.0,0.0
6789,52.0,0,24,10.0,0.0
6790,64.0,12,96,11.0,0.0
6791,88.0,6,48,7.0,0.0
6792,83.0,0,48,7.0,0.0
6793,54.0,24,24,10.0,0.0
6794,56.0,30,24,10.0,0.0
6795,88.0,0,48,7.0,0.0
6796,83.0,6,48,7.0,0.0
6797,57.0,12,24,10.0,0.0
6798,59.0,22,24,10.0,0.0
6799,61.0,20,16,10.0,0.0
6800,83.0,0,48,7.0,0.0
6801,88.0,8,48,7.0,0.0
6802,63.0,12,16,10.0,0.0
6803,64.0,20,16,10.0,0.0
6804,92.0,8,48,7.0,0.0
6805,88.0,0,48,7.0,0.0
6806,66.0,20,16,10.0,0.0
6807,68.0,12,16,10.0,0.0
6808,69.0,20,16,10.0,0.0
6809,92.0,8,48,7.0,0.0
6810,71.0,20,16,10.0,0.0
6811,88.0,0,48,7.0,0.0
6812,73.0,12,16,10.0,0.0
6813,75.0,20,16,10.0,0.0
6814,76.0,8,16,10.0,0.0
6815,88.0,0,48,7.0,0.0
6816,92.0,6,48,7.0,0.0
6817,64.0,12,24,11.0,0.0
6818,78.0,12,16,10.0,0.0
6819,76.0,2,24,11.0,0.0
6820,80.0,28,16,10.0,0.0
6821,88.0,0,48,7.0,0.0
6822,81.0,24,24,10.0,0.0
6823,92.0,6,48,7.0,0.0
6824,76.0,12,96,11.0,0.0
6825,83.0,30,24,10.0,0.0
6826,88.0,0,48,7.0,0.0
6827,85.0,12,24,10.0,0.0
6828,92.0,6,48,7.0,0.0
6829,87.0,22,24,10.0,0.0
6830,88.0,20,96,10.0,0.0
6831,100.0,20,16,7.0,0.0
6832,99.0,20,16,7.0,0.0
6833,97.0,20,16,7.0,0.0
6834,95.0,20,16,7.0,0.0
6835,93.0,0,16,7.0,0.0
6836,92.0,20,16,7.0,0.0
6837,90.0,20,16,7.0,0.0
6838,88.0,20,16,7.0,0.0
6839,87.0,20,16,7.0,0.0
6840,59.0,12,24,11.0,0.0
6841,85.0,8,16,7.0,0.0
6842,59.0,6,48,10.0,0.0
6843,83.0,12,16,7.0,0.0
6844,71.0,2,24,11.0,0.0
6845,81.0,20,16,7.0,0.0
6846,71.0,12,96,11.0,0.0
6847,80.0,20,16,7.0,0.0
6848,64.0,0,48,10.0,0.0
6849,68.0,8,48,10.0,0.0
6850,78.0,12,16,7.0,0.0
6851,76.0,20,16,7.0,0.0
6852,75.0,20,16,7.0,0.0
6853,64.0,8,48,10.0,0.0
6854,68.0,0,48,10.0,0.0
6855,73.0,0,16,7.0,0.0
6856,71.0,20,16,7.0,0.0
6857,47.0,8,48,10.0,0.0
6858,69.0,20,16,7.0,0.0
6859,68.0,12,16,7.0,0.0
6860,66.0,20,16,7.0,0.0
6861,64.0,20,16,7.0,0.0
6862,52.0,8,48,10.0,0.0
6863,56.0,0,48,10.0,0.0
6864,63.0,12,16,7.0,0.0
6865,61.0,20,16,7.0,0.0
6866,59.0,20,16,7.0,0.0
6867,56.0,8,48,10.0,0.0
6868,52.0,0,48,10.0,0.0
6869,57.0,12,16,7.0,0.0
6870,56.0,20,16,7.0,0.0
6871,54.0,8,16,7.0,0.0
6872,47.0,12,24,12.0,0.0
6873,35.0,6,48,10.0,0.0
6874,52.0,12,16,7.0,0.0
6875,59.0,2,24,12.0,0.0
6876,52.0,28,16,7.0,0.0
6877,49.0,24,24,7.0,0.0
6878,42.0,6,48,10.0,0.0
6879,45.0,0,48,10.0,0.0
6880,59.0,12,96,12.0,0.0
6881,47.0,30,24,7.0,0.0
6882,42.0,0,48,10.0,0.0
6883,45.0,6,48,10.0,0.0
6884,49.0,12,24,7.0,0.0
6885,51.0,78,24,7.0,0.0
6886,56.0,18,96,11.0,0.0
6887,76.0,0,96,11.0,0.0
6888,52.0,0,96,12.0,0.0
6889,64.0,0,96,11.0,0.0
6890,76.0,0,96,1.0,0.0
6891,64.0,0,96,1.0,0.0
6892,40.0,0,96,10.0,0.0
6893,44.0,0,96,10.0,0.0
6894,52.0,0,96,13.0,0.0
6895,52.0,0,96,7.0,0.0
6896,76.0,0,96,0.0,0.0
6897,71.0,0,96,11.0,0.0
6898,52.0,0,96,11.0,0.0
6899,64.0,0,72,4.0,0.0
6900,52.0,24,72,4.0,0.0
6901,64.0,0,24,4.0,0.0
6902,52.0,54,24,4.0,0.0
6903,52.0,60,48,4.0,0.0
6904,64.0,0,48,4.0,0.0
6905,64.0,60,48,4.0,0.0
6906,52.0,0,48,4.0,0.0
6907,64.0,0,48,4.0,0.0
6908,52.0,60,48,4.0,0.0
6909,64.0,108,48,4.0,0.0
6910,52.0,0,48,4.0,0.0
6911,76.0,0,144,0.0,0.0
6912,64.0,0,288,4.0,0.0
6913,61.0,48,96,11.0,0.0
6914,61.0,0,144,13.0,0.0
6915,52.0,0,288,4.0,0.0
6916,76.0,0,144,1.0,0.0
6917,88.0,6,288,0.0,0.0
6918,76.0,0,144,11.0,0.0
6919,61.0,0,144,12.0,0.0
6920,64.0,24,144,11.0,0.0
6921,52.0,36,48,11.0,0.0
6922,57.0,0,144,13.0,0.0
6923,73.0,24,144,1.0,0.0
6924,57.0,0,144,12.0,0.0
6925,85.0,0,144,1.0,0.0
6926,73.0,30,24,11.0,0.0
6927,85.0,0,144,0.0,0.0
6928,64.0,0,144,11.0,0.0
6929,57.0,12,96,11.0,0.0
6930,72.0,30,24,11.0,0.0
6931,73.0,12,24,11.0,0.0
6932,75.0,30,24,11.0,0.0
6933,76.0,0,24,11.0,0.0
6934,52.0,6,48,11.0,0.0
6935,73.0,78,24,11.0,0.0
6936,56.0,0,96,12.0,0.0
6937,56.0,16,96,13.0,0.0
6938,83.0,0,96,1.0,0.0
6939,71.0,0,96,1.0,0.0
6940,47.0,0,72,4.0,0.0
6941,59.0,24,72,4.0,0.0
6942,56.0,0,96,11.0,0.0
6943,83.0,0,96,0.0,0.0
6944,71.0,0,96,11.0,0.0
6945,59.0,0,24,4.0,0.0
6946,47.0,54,24,4.0,0.0
6947,47.0,0,48,4.0,0.0
6948,59.0,60,48,4.0,0.0
6949,59.0,0,48,4.0,0.0
6950,47.0,60,48,4.0,0.0
6951,59.0,0,48,4.0,0.0
6952,47.0,60,48,4.0,0.0
6953,47.0,36,48,4.0,0.0
6954,59.0,0,48,4.0,0.0
6955,83.0,6,288,0.0,0.0
6956,81.0,30,144,1.0,0.0
6957,47.0,0,288,4.0,0.0
6958,59.0,0,288,4.0,0.0
6959,90.0,0,144,0.0,0.0
6960,59.0,0,144,12.0,0.0
6961,81.0,0,144,11.0,0.0
6962,59.0,0,144,13.0,0.0
6963,69.0,0,144,11.0,0.0
6964,71.0,0,288,1.0,0.0
6965,51.0,30,24,11.0,0.0
6966,59.0,30,24,11.0,0.0
6967,51.0,30,24,11.0,0.0
6968,59.0,30,24,11.0,0.0
6969,51.0,0,24,11.0,0.0
6970,59.0,30,24,11.0,0.0
6971,51.0,0,24,11.0,0.0
6972,78.0,0,144,1.0,0.0
6973,47.0,30,144,12.0,0.0
6974,87.0,0,144,0.0,0.0
6975,78.0,0,24,11.0,0.0
6976,47.0,0,144,13.0,0.0
6977,66.0,30,24,11.0,0.0
6978,77.0,0,24,11.0,0.0
6979,59.0,0,24,11.0,0.0
6980,65.0,30,24,11.0,0.0
6981,78.0,0,24,11.0,0.0
6982,51.0,0,24,11.0,0.0
6983,66.0,24,24,11.0,0.0
6984,80.0,0,24,11.0,0.0
6985,59.0,30,24,11.0,0.0
6986,68.0,0,24,11.0,0.0
6987,81.0,0,24,11.0,0.0
6988,69.0,0,24,11.0,0.0
6989,51.0,0,24,11.0,0.0
6990,59.0,0,24,11.0,0.0
6991,78.0,30,24,11.0,0.0
6992,66.0,0,24,11.0,0.0
6993,40.0,30,24,10.0,0.0
6994,64.0,0,96,11.0,0.0
6995,76.0,0,96,11.0,0.0
6996,52.0,12,72,11.0,0.0
6997,52.0,0,96,13.0,0.0
6998,52.0,18,96,12.0,0.0
6999,64.0,0,24,7.0,0.0
7000,71.0,18,24,7.0,0.0
7001,47.0,0,24,10.0,0.0
7002,55.0,0,24,10.0,0.0
7003,79.0,12,24,7.0,0.0
7004,47.0,30,24,10.0,0.0
7005,71.0,0,24,7.0,0.0
7006,52.0,0,24,11.0,0.0
7007,52.0,6,48,11.0,0.0
7008,40.0,0,24,10.0,0.0
7009,64.0,24,24,7.0,0.0
7010,71.0,30,24,7.0,0.0
7011,47.0,0,24,10.0,0.0
7012,52.0,12,96,14.0,0.0
7013,64.0,24,24,7.0,0.0
7014,52.0,6,48,11.0,0.0
7015,40.0,0,24,10.0,0.0
7016,40.0,0,96,14.0,0.0
7017,47.0,30,24,10.0,0.0
7018,71.0,0,24,7.0,0.0
7019,55.0,0,24,10.0,0.0
7020,79.0,12,24,7.0,0.0
7021,52.0,6,48,11.0,0.0
7022,47.0,30,24,10.0,0.0
7023,71.0,0,24,7.0,0.0
7024,64.0,0,24,7.0,0.0
7025,40.0,24,24,10.0,0.0
7026,52.0,6,48,11.0,0.0
7027,71.0,0,24,7.0,0.0
7028,47.0,30,24,10.0,0.0
7029,52.0,12,72,11.0,0.0
7030,64.0,30,24,7.0,0.0
7031,40.0,18,96,14.0,0.0
7032,52.0,0,96,14.0,0.0
7033,40.0,0,24,10.0,0.0
7034,47.0,18,24,10.0,0.0
7035,71.0,0,24,7.0,0.0
7036,55.0,0,24,10.0,0.0
7037,79.0,12,24,7.0,0.0
7038,71.0,0,24,7.0,0.0
7039,47.0,30,24,10.0,0.0
7040,52.0,0,24,11.0,0.0
7041,40.0,0,24,10.0,0.0
7042,52.0,6,48,11.0,0.0
7043,64.0,24,24,7.0,0.0
7044,47.0,0,24,10.0,0.0
7045,71.0,30,24,7.0,0.0
7046,64.0,24,24,7.0,0.0
7047,40.0,0,24,10.0,0.0
7048,40.0,12,96,14.0,0.0
7049,52.0,6,48,11.0,0.0
7050,52.0,0,96,14.0,0.0
7051,47.0,0,24,10.0,0.0
7052,71.0,30,24,7.0,0.0
7053,52.0,6,48,11.0,0.0
7054,79.0,12,24,7.0,0.0
7055,55.0,0,24,10.0,0.0
7056,71.0,30,24,7.0,0.0
7057,47.0,0,24,10.0,0.0
7058,52.0,6,48,11.0,0.0
7059,64.0,0,24,7.0,0.0
7060,40.0,24,24,10.0,0.0
7061,47.0,30,24,10.0,0.0
7062,71.0,0,24,7.0,0.0
7063,69.0,0,24,7.0,0.0
7064,72.0,12,72,11.0,0.0
7065,45.0,0,96,14.0,0.0
7066,57.0,18,96,14.0,0.0
7067,60.0,0,72,11.0,0.0
7068,45.0,30,24,10.0,0.0
7069,76.0,0,24,7.0,0.0
7070,52.0,18,24,10.0,0.0
7071,84.0,0,24,7.0,0.0
7072,60.0,12,24,10.0,0.0
7073,60.0,0,24,11.0,0.0
7074,76.0,30,24,7.0,0.0
7075,52.0,0,24,10.0,0.0
7076,72.0,0,24,11.0,0.0
7077,72.0,6,48,11.0,0.0
7078,45.0,0,24,10.0,0.0
7079,69.0,24,24,7.0,0.0
7080,60.0,0,48,11.0,0.0
7081,52.0,30,24,10.0,0.0
7082,76.0,0,24,7.0,0.0
7083,45.0,12,96,14.0,0.0
7084,45.0,0,24,10.0,0.0
7085,57.0,0,96,14.0,0.0
7086,72.0,0,48,11.0,0.0
7087,60.0,6,48,11.0,0.0
7088,69.0,24,24,7.0,0.0
7089,52.0,0,24,10.0,0.0
7090,76.0,30,24,7.0,0.0
7091,84.0,0,24,7.0,0.0
7092,72.0,6,48,11.0,0.0
7093,60.0,0,48,11.0,0.0
7094,60.0,12,24,10.0,0.0
7095,52.0,0,24,10.0,0.0
7096,76.0,30,24,7.0,0.0
7097,60.0,0,48,11.0,0.0
7098,72.0,6,48,11.0,0.0
7099,45.0,0,24,10.0,0.0
7100,69.0,24,24,7.0,0.0
7101,52.0,0,24,10.0,0.0
7102,76.0,30,24,7.0,0.0
7103,57.0,0,96,14.0,0.0
7104,72.0,12,72,11.0,0.0
7105,60.0,0,72,11.0,0.0
7106,45.0,30,24,10.0,0.0
7107,45.0,18,96,14.0,0.0
7108,69.0,0,24,7.0,0.0
7109,76.0,0,24,7.0,0.0
7110,52.0,18,24,10.0,0.0
7111,60.0,12,24,10.0,0.0
7112,84.0,0,24,7.0,0.0
7113,76.0,0,24,7.0,0.0
7114,52.0,0,24,10.0,0.0
7115,60.0,0,24,11.0,0.0
7116,72.0,30,24,11.0,0.0
7117,72.0,0,48,11.0,0.0
7118,60.0,6,48,11.0,0.0
7119,69.0,24,24,7.0,0.0
7120,45.0,0,24,10.0,0.0
7121,76.0,30,24,7.0,0.0
7122,52.0,0,24,10.0,0.0
7123,69.0,0,24,7.0,0.0
7124,57.0,12,96,14.0,0.0
7125,45.0,0,96,14.0,0.0
7126,45.0,24,24,10.0,0.0
7127,60.0,0,48,11.0,0.0
7128,72.0,6,48,11.0,0.0
7129,76.0,30,24,7.0,0.0
7130,52.0,0,24,10.0,0.0
7131,72.0,6,48,11.0,0.0
7132,84.0,12,24,7.0,0.0
7133,60.0,0,24,10.0,0.0
7134,60.0,0,48,11.0,0.0
7135,52.0,30,24,10.0,0.0
7136,76.0,0,24,7.0,0.0
7137,45.0,0,24,10.0,0.0
7138,72.0,6,48,11.0,0.0
7139,60.0,0,48,11.0,0.0
7140,69.0,24,24,7.0,0.0
7141,52.0,0,24,10.0,0.0
7142,76.0,30,24,7.0,0.0
7143,50.0,0,96,14.0,0.0
7144,69.0,0,24,7.0,0.0
7145,45.0,30,24,10.0,0.0
7146,50.0,12,72,11.0,0.0
7147,38.0,18,96,14.0,0.0
7148,74.0,18,24,7.0,0.0
7149,50.0,0,24,10.0,0.0
7150,60.0,0,24,10.0,0.0
7151,84.0,12,24,7.0,0.0
7152,74.0,0,24,7.0,0.0
7153,50.0,30,24,10.0,0.0
7154,50.0,0,24,11.0,0.0
7155,45.0,0,24,10.0,0.0
7156,50.0,6,48,11.0,0.0
7157,69.0,24,24,7.0,0.0
7158,74.0,0,24,7.0,0.0
7159,50.0,30,24,10.0,0.0
7160,43.0,0,24,10.0,0.0
7161,55.0,0,112,14.0,0.0
7162,43.0,2,112,14.0,0.0
7163,70.0,12,72,11.0,0.0
7164,58.0,0,72,11.0,0.0
7165,67.0,30,24,7.0,0.0
7166,74.0,0,24,7.0,0.0
7167,50.0,18,24,10.0,0.0
7168,82.0,0,24,7.0,0.0
7169,58.0,28,24,10.0,0.0
7170,70.0,0,24,11.0,0.0
7171,74.0,0,24,7.0,0.0
7172,50.0,0,24,10.0,0.0
7173,58.0,30,24,11.0,0.0
7174,58.0,0,48,11.0,0.0
7175,70.0,0,24,7.0,0.0
7176,43.0,24,24,10.0,0.0
7177,70.0,6,48,11.0,0.0
7178,74.0,30,24,7.0,0.0
7179,50.0,0,24,10.0,0.0
7180,43.0,0,24,10.0,0.0
7181,36.0,18,96,14.0,0.0
7182,48.0,12,72,11.0,0.0
7183,67.0,30,24,7.0,0.0
7184,48.0,0,96,14.0,0.0
7185,48.0,0,24,10.0,0.0
7186,72.0,18,24,7.0,0.0
7187,82.0,12,24,7.0,0.0
7188,58.0,0,24,10.0,0.0
7189,48.0,0,24,10.0,0.0
7190,48.0,30,24,11.0,0.0
7191,72.0,0,24,7.0,0.0
7192,43.0,24,24,10.0,0.0
7193,48.0,6,48,11.0,0.0
7194,67.0,0,24,7.0,0.0
7195,48.0,0,24,10.0,0.0
7196,72.0,30,24,7.0,0.0
7197,53.0,0,112,14.0,0.0
7198,41.0,2,112,14.0,0.0
7199,56.0,12,72,11.0,0.0
7200,68.0,0,72,11.0,0.0
7201,41.0,30,24,10.0,0.0
7202,65.0,0,24,7.0,0.0
7203,72.0,0,24,7.0,0.0
7204,48.0,18,24,10.0,0.0
7205,80.0,0,24,7.0,0.0
7206,56.0,28,24,10.0,0.0
7207,56.0,0,24,11.0,0.0
7208,72.0,0,24,7.0,0.0
7209,68.0,0,24,11.0,0.0
7210,48.0,30,24,10.0,0.0
7211,41.0,0,24,10.0,0.0
7212,56.0,6,48,11.0,0.0
7213,68.0,0,48,11.0,0.0
7214,65.0,24,24,7.0,0.0
7215,48.0,30,24,10.0,0.0
7216,72.0,0,24,7.0,0.0
7217,65.0,0,24,7.0,0.0
7218,41.0,0,96,14.0,0.0
7219,53.0,18,96,14.0,0.0
7220,53.0,12,72,11.0,0.0
7221,41.0,30,24,10.0,0.0
7222,72.0,0,24,7.0,0.0
7223,48.0,18,24,10.0,0.0
7224,56.0,0,24,10.0,0.0
7225,80.0,12,24,7.0,0.0
7226,53.0,0,24,11.0,0.0
7227,72.0,30,24,7.0,0.0
7228,48.0,0,24,10.0,0.0
7229,65.0,24,24,7.0,0.0
7230,41.0,0,24,10.0,0.0
7231,53.0,6,48,11.0,0.0
7232,72.0,0,24,7.0,0.0
7233,48.0,30,24,10.0,0.0
7234,68.0,0,72,11.0,0.0
7235,41.0,0,24,10.0,0.0
7236,56.0,12,72,11.0,0.0
7237,65.0,30,24,7.0,0.0
7238,53.0,18,96,14.0,0.0
7239,41.0,0,96,14.0,0.0
7240,48.0,0,24,10.0,0.0
7241,72.0,18,24,7.0,0.0
7242,80.0,12,24,7.0,0.0
7243,56.0,0,24,10.0,0.0
7244,48.0,0,24,10.0,0.0
7245,72.0,0,24,7.0,0.0
7246,56.0,30,24,11.0,0.0
7247,68.0,0,24,11.0,0.0
7248,68.0,6,48,11.0,0.0
7249,41.0,0,24,10.0,0.0
7250,65.0,24,24,7.0,0.0
7251,56.0,0,48,11.0,0.0
7252,48.0,0,24,10.0,0.0
7253,72.0,30,24,7.0,0.0
7254,65.0,0,24,7.0,0.0
7255,38.0,30,24,10.0,0.0
7256,50.0,18,96,14.0,0.0
7257,50.0,12,72,11.0,0.0
7258,38.0,0,96,14.0,0.0
7259,50.0,0,24,10.0,0.0
7260,74.0,18,24,7.0,0.0
7261,80.0,0,24,7.0,0.0
7262,56.0,12,24,10.0,0.0
7263,74.0,0,24,7.0,0.0
7264,50.0,30,24,10.0,0.0
7265,50.0,0,24,11.0,0.0
7266,65.0,0,24,7.0,0.0
7267,50.0,6,48,11.0,0.0
7268,40.0,13,119,10.0,0.0
7269,38.0,24,24,10.0,0.0
7270,50.0,0,24,10.0,0.0
7271,74.0,30,24,7.0,0.0
7272,36.0,18,96,14.0,0.0
7273,36.0,0,24,10.0,0.0
7274,48.0,0,96,14.0,0.0
7275,56.0,0,72,11.0,0.0
7276,77.0,30,24,7.0,0.0
7277,68.0,12,72,11.0,0.0
7278,86.0,0,24,7.0,0.0
7279,48.0,5,24,10.0,0.0
7280,53.0,0,24,10.0,0.0
7281,92.0,12,24,7.0,0.0
7282,56.0,0,24,11.0,0.0
7283,48.0,0,24,10.0,0.0
7284,68.0,30,24,11.0,0.0
7285,86.0,0,24,7.0,0.0
7286,68.0,6,48,11.0,0.0
7287,36.0,24,24,10.0,0.0
7288,56.0,0,48,11.0,0.0
7289,77.0,0,24,7.0,0.0
7290,86.0,0,24,7.0,0.0
7291,48.0,30,24,10.0,0.0
7292,46.0,0,72,13.0,0.0
7293,46.0,0,72,12.0,0.0
7294,53.0,12,72,11.0,0.0
7295,34.0,18,96,10.0,0.0
7296,92.0,30,24,7.0,0.0
7297,46.0,0,96,10.0,0.0
7298,62.0,0,72,11.0,0.0
7299,68.0,0,72,11.0,0.0
7300,86.0,18,24,7.0,0.0
7301,77.0,12,24,7.0,0.0
7302,53.0,30,24,11.0,0.0
7303,46.0,0,24,13.0,0.0
7304,62.0,0,24,11.0,0.0
7305,68.0,0,24,11.0,0.0
7306,86.0,0,24,7.0,0.0
7307,46.0,0,24,12.0,0.0
7308,92.0,24,24,7.0,0.0
7309,46.0,0,48,12.0,0.0
7310,53.0,6,48,11.0,0.0
7311,68.0,0,48,11.0,0.0
7312,62.0,0,48,11.0,0.0
7313,46.0,0,48,13.0,0.0
7314,86.0,30,24,7.0,0.0
7315,68.0,0,48,11.0,0.0
7316,77.0,24,24,7.0,0.0
7317,46.0,0,48,12.0,0.0
7318,46.0,0,48,13.0,0.0
7319,62.0,0,48,11.0,0.0
7320,53.0,6,48,11.0,0.0
7321,74.0,30,24,7.0,0.0
7322,46.0,6,48,12.0,0.0
7323,68.0,0,48,11.0,0.0
7324,53.0,0,48,11.0,0.0
7325,65.0,24,24,7.0,0.0
7326,46.0,0,48,13.0,0.0
7327,62.0,0,48,11.0,0.0
7328,74.0,30,24,7.0,0.0
7329,80.0,24,24,7.0,0.0
7330,62.0,0,48,11.0,0.0
7331,68.0,0,48,11.0,0.0
7332,46.0,0,48,13.0,0.0
7333,46.0,6,48,12.0,0.0
7334,53.0,0,48,11.0,0.0
7335,74.0,30,24,7.0,0.0
7336,53.0,0,72,11.0,0.0
7337,65.0,30,24,7.0,0.0
7338,68.0,0,72,11.0,0.0
7339,46.0,0,72,13.0,0.0
7340,46.0,0,72,12.0,0.0
7341,62.0,12,72,11.0,0.0
7342,62.0,18,24,7.0,0.0
7343,53.0,30,24,7.0,0.0
7344,62.0,0,24,11.0,0.0
7345,68.0,0,24,11.0,0.0
7346,62.0,0,24,7.0,0.0
7347,53.0,0,24,11.0,0.0
7348,46.0,0,24,12.0,0.0
7349,46.0,30,24,13.0,0.0
7350,53.0,0,48,11.0,0.0
7351,68.0,0,48,11.0,0.0
7352,46.0,0,48,12.0,0.0
7353,46.0,0,48,13.0,0.0
7354,62.0,6,48,11.0,0.0
7355,65.0,24,24,7.0,0.0
7356,62.0,30,24,7.0,0.0
7357,46.0,6,48,13.0,0.0
7358,46.0,0,48,12.0,0.0
7359,62.0,0,48,11.0,0.0
7360,53.0,24,24,10.0,0.0
7361,68.0,0,48,11.0,0.0
7362,53.0,0,48,11.0,0.0
7363,50.0,30,24,10.0,0.0
7364,46.0,0,48,12.0,0.0
7365,41.0,24,24,10.0,0.0
7366,46.0,0,48,13.0,0.0
7367,53.0,6,48,11.0,0.0
7368,62.0,0,48,11.0,0.0
7369,68.0,0,48,11.0,0.0
7370,50.0,30,24,10.0,0.0
7371,68.0,0,48,11.0,0.0
7372,62.0,0,48,11.0,0.0
7373,53.0,24,24,10.0,0.0
7374,46.0,0,48,13.0,0.0
7375,46.0,6,48,12.0,0.0
7376,53.0,0,48,11.0,0.0
7377,50.0,30,24,10.0,0.0
7378,65.0,0,72,5.0,0.0
7379,41.0,30,24,10.0,0.0
7380,74.0,0,72,3.0,0.0
7381,68.0,0,72,3.0,0.0
7382,58.0,0,72,5.0,0.0
7383,80.0,12,72,1.0,0.0
7384,50.0,18,24,10.0,0.0
7385,53.0,30,24,10.0,0.0
7386,74.0,0,24,3.0,0.0
7387,50.0,0,24,10.0,0.0
7388,68.0,30,24,3.0,0.0
7389,65.0,0,24,5.0,0.0
7390,58.0,0,24,5.0,0.0
7391,80.0,0,24,1.0,0.0
7392,41.0,24,24,10.0,0.0
7393,80.0,0,48,1.0,0.0
7394,58.0,0,48,5.0,0.0
7395,68.0,6,48,3.0,0.0
7396,74.0,0,48,3.0,0.0
7397,65.0,0,48,5.0,0.0
7398,50.0,30,24,10.0,0.0
7399,68.0,0,48,3.0,0.0
7400,80.0,0,48,1.0,0.0
7401,74.0,6,48,3.0,0.0
7402,65.0,0,48,5.0,0.0
7403,53.0,24,24,7.0,0.0
7404,58.0,0,48,5.0,0.0
7405,62.0,30,24,7.0,0.0
7406,65.0,0,48,5.0,0.0
7407,58.0,6,48,5.0,0.0
7408,68.0,24,24,7.0,0.0
7409,68.0,0,48,3.0,0.0
7410,74.0,0,48,3.0,0.0
7411,80.0,0,48,1.0,0.0
7412,62.0,30,24,7.0,0.0
7413,53.0,24,24,7.0,0.0
7414,65.0,0,48,5.0,0.0
7415,58.0,6,48,5.0,0.0
7416,80.0,0,48,1.0,0.0
7417,68.0,0,48,3.0,0.0
7418,74.0,0,48,3.0,0.0
7419,62.0,30,24,7.0,0.0
7420,65.0,0,72,5.0,0.0
7421,58.0,0,72,5.0,0.0
7422,74.0,0,72,3.0,0.0
7423,80.0,12,72,1.0,0.0
7424,65.0,30,24,7.0,0.0
7425,68.0,0,72,3.0,0.0
7426,74.0,18,24,7.0,0.0
7427,80.0,30,24,7.0,0.0
7428,74.0,0,24,3.0,0.0
7429,68.0,30,24,3.0,0.0
7430,65.0,0,24,5.0,0.0
7431,58.0,0,24,5.0,0.0
7432,80.0,0,24,1.0,0.0
7433,74.0,0,24,7.0,0.0
7434,68.0,0,48,3.0,0.0
7435,65.0,0,48,5.0,0.0
7436,58.0,0,48,5.0,0.0
7437,80.0,6,48,1.0,0.0
7438,65.0,24,24,7.0,0.0
7439,74.0,0,48,3.0,0.0
7440,74.0,30,24,7.0,0.0
7441,65.0,0,48,5.0,0.0
7442,68.0,0,48,3.0,0.0
7443,74.0,6,48,3.0,0.0
7444,58.0,0,48,5.0,0.0
7445,77.0,24,24,7.0,0.0
7446,80.0,0,48,1.0,0.0
7447,86.0,30,24,7.0,0.0
7448,74.0,0,48,3.0,0.0
7449,92.0,24,24,7.0,0.0
7450,68.0,6,48,3.0,0.0
7451,80.0,0,48,1.0,0.0
7452,58.0,0,48,5.0,0.0
7453,65.0,0,48,5.0,0.0
7454,86.0,30,24,7.0,0.0
7455,80.0,6,48,1.0,0.0
7456,65.0,0,48,5.0,0.0
7457,58.0,0,48,5.0,0.0
7458,68.0,0,48,3.0,0.0
7459,74.0,0,48,3.0,0.0
7460,77.0,24,24,7.0,0.0
7461,86.0,30,24,7.0,0.0
7462,34.0,18,96,10.0,0.0
7463,53.0,12,72,11.0,0.0
7464,62.0,0,72,11.0,0.0
7465,46.0,0,72,13.0,0.0
7466,92.0,30,24,7.0,0.0
7467,68.0,0,72,11.0,0.0
7468,46.0,0,72,12.0,0.0
7469,86.0,18,24,7.0,0.0
7470,77.0,12,24,7.0,0.0
7471,68.0,0,24,11.0,0.0
7472,46.0,30,24,12.0,0.0
7473,62.0,0,24,11.0,0.0
7474,86.0,0,24,7.0,0.0
7475,53.0,0,24,11.0,0.0
7476,46.0,0,24,13.0,0.0
7477,53.0,6,48,11.0,0.0
7478,68.0,0,48,11.0,0.0
7479,62.0,0,48,11.0,0.0
7480,46.0,0,48,12.0,0.0
7481,92.0,24,24,7.0,0.0
7482,46.0,0,48,13.0,0.0
7483,86.0,30,24,7.0,0.0
7484,53.0,0,48,11.0,0.0
7485,62.0,0,48,11.0,0.0
7486,77.0,24,24,7.0,0.0
7487,46.0,6,48,12.0,0.0
7488,68.0,0,48,11.0,0.0
7489,46.0,0,48,13.0,0.0
7490,74.0,30,24,7.0,0.0
7491,53.0,6,48,11.0,0.0
7492,62.0,0,48,11.0,0.0
7493,46.0,0,48,12.0,0.0
7494,46.0,0,48,13.0,0.0
7495,68.0,0,48,11.0,0.0
7496,65.0,24,24,7.0,0.0
7497,74.0,30,24,7.0,0.0
7498,46.0,0,48,13.0,0.0
7499,80.0,24,24,7.0,0.0
7500,68.0,0,48,11.0,0.0
7501,46.0,6,48,12.0,0.0
7502,62.0,0,48,11.0,0.0
7503,53.0,0,48,11.0,0.0
7504,74.0,30,24,7.0,0.0
7505,53.0,0,72,11.0,0.0
7506,62.0,12,72,11.0,0.0
7507,46.0,0,72,13.0,0.0
7508,65.0,30,24,7.0,0.0
7509,68.0,0,72,11.0,0.0
7510,46.0,0,72,12.0,0.0
7511,62.0,18,24,7.0,0.0
7512,53.0,30,24,7.0,0.0
7513,62.0,30,24,7.0,0.0
7514,46.0,0,24,12.0,0.0
7515,68.0,0,24,11.0,0.0
7516,46.0,0,24,13.0,0.0
7517,53.0,0,24,11.0,0.0
7518,62.0,0,24,11.0,0.0
7519,53.0,0,48,11.0,0.0
7520,46.0,0,48,13.0,0.0
7521,46.0,0,48,12.0,0.0
7522,68.0,0,48,11.0,0.0
7523,68.0,24,24,7.0,0.0
7524,62.0,6,48,11.0,0.0
7525,62.0,30,24,7.0,0.0
7526,53.0,0,48,11.0,0.0
7527,62.0,6,48,11.0,0.0
7528,53.0,24,24,10.0,0.0
7529,46.0,0,48,12.0,0.0
7530,68.0,0,48,11.0,0.0
7531,46.0,0,48,13.0,0.0
7532,50.0,30,24,10.0,0.0
7533,68.0,6,48,11.0,0.0
7534,41.0,24,24,10.0,0.0
7535,46.0,0,48,13.0,0.0
7536,53.0,0,48,11.0,0.0
7537,62.0,0,48,11.0,0.0
7538,46.0,0,48,12.0,0.0
7539,50.0,30,24,10.0,0.0
7540,68.0,0,48,11.0,0.0
7541,53.0,0,48,11.0,0.0
7542,53.0,24,24,10.0,0.0
7543,46.0,6,48,13.0,0.0
7544,62.0,0,48,11.0,0.0
7545,46.0,0,48,12.0,0.0
7546,50.0,30,24,10.0,0.0
7547,41.0,30,24,10.0,0.0
7548,80.0,0,72,1.0,0.0
7549,58.0,12,72,5.0,0.0
7550,65.0,0,72,5.0,0.0
7551,74.0,0,72,3.0,0.0
7552,68.0,0,72,3.0,0.0
7553,50.0,18,24,10.0,0.0
7554,56.0,30,24,10.0,0.0
7555,50.0,0,24,10.0,0.0
7556,80.0,30,24,1.0,0.0
7557,68.0,0,24,3.0,0.0
7558,74.0,0,24,3.0,0.0
7559,58.0,0,24,5.0,0.0
7560,65.0,0,24,5.0,0.0
7561,80.0,0,48,1.0,0.0
7562,58.0,0,48,5.0,0.0
7563,41.0,24,24,10.0,0.0
7564,68.0,0,48,3.0,0.0
7565,65.0,0,48,5.0,0.0
7566,74.0,6,48,3.0,0.0
7567,50.0,30,24,10.0,0.0
7568,80.0,6,48,1.0,0.0
7569,53.0,24,24,7.0,0.0
7570,74.0,0,48,3.0,0.0
7571,68.0,0,48,3.0,0.0
7572,65.0,0,48,5.0,0.0
7573,58.0,0,48,5.0,0.0
7574,62.0,30,24,7.0,0.0
7575,65.0,0,48,5.0,0.0
7576,74.0,0,48,3.0,0.0
7577,68.0,0,48,3.0,0.0
7578,58.0,0,48,5.0,0.0
7579,80.0,6,48,1.0,0.0
7580,68.0,24,24,7.0,0.0
7581,62.0,30,24,7.0,0.0
7582,53.0,24,24,7.0,0.0
7583,68.0,0,48,3.0,0.0
7584,80.0,0,48,1.0,0.0
7585,65.0,0,48,5.0,0.0
7586,58.0,6,48,5.0,0.0
7587,74.0,0,48,3.0,0.0
7588,62.0,30,24,7.0,0.0
7589,68.0,0,72,3.0,0.0
7590,58.0,0,72,5.0,0.0
7591,65.0,0,72,5.0,0.0
7592,74.0,0,72,3.0,0.0
7593,65.0,30,24,7.0,0.0
7594,80.0,12,72,1.0,0.0
7595,74.0,18,24,7.0,0.0
7596,80.0,30,24,7.0,0.0
7597,68.0,0,24,3.0,0.0
7598,74.0,30,24,3.0,0.0
7599,65.0,0,24,5.0,0.0
7600,74.0,0,24,7.0,0.0
7601,58.0,0,24,5.0,0.0
7602,80.0,0,24,1.0,0.0
7603,80.0,0,48,1.0,0.0
7604,65.0,24,24,7.0,0.0
7605,74.0,0,48,3.0,0.0
7606,58.0,0,48,5.0,0.0
7607,65.0,0,48,5.0,0.0
7608,68.0,6,48,3.0,0.0
7609,74.0,30,24,7.0,0.0
7610,68.0,0,48,3.0,0.0
7611,80.0,0,48,1.0,0.0
7612,74.0,0,48,3.0,0.0
7613,65.0,0,48,5.0,0.0
7614,58.0,6,48,5.0,0.0
7615,77.0,24,24,7.0,0.0
7616,86.0,30,24,7.0,0.0
7617,65.0,0,48,5.0,0.0
7618,92.0,24,24,7.0,0.0
7619,58.0,0,48,5.0,0.0
7620,80.0,0,48,1.0,0.0
7621,74.0,6,48,3.0,0.0
7622,68.0,0,48,3.0,0.0
7623,86.0,30,24,7.0,0.0
7624,74.0,6,48,3.0,0.0
7625,68.0,0,48,3.0,0.0
7626,80.0,0,48,1.0,0.0
7627,58.0,0,48,5.0,0.0
7628,65.0,0,48,5.0,0.0
7629,77.0,24,24,7.0,0.0
7630,86.0,30,24,7.0,0.0
7631,65.0,0,72,5.0,0.0
7632,92.0,0,24,7.0,0.0
7633,74.0,0,72,3.0,0.0
7634,80.0,0,72,1.0,0.0
7635,58.0,12,72,5.0,0.0
7636,68.0,0,72,3.0,0.0
7637,46.0,30,24,10.0,0.0
7638,86.0,0,24,7.0,0.0
7639,50.0,18,24,10.0,0.0
7640,53.0,0,24,10.0,0.0
7641,77.0,30,24,7.0,0.0
7642,86.0,0,24,7.0,0.0
7643,80.0,30,24,1.0,0.0
7644,65.0,0,24,5.0,0.0
7645,56.0,0,24,10.0,0.0
7646,58.0,0,24,5.0,0.0
7647,68.0,0,24,3.0,0.0
7648,74.0,0,24,3.0,0.0
7649,80.0,0,48,1.0,0.0
7650,58.0,24,24,10.0,0.0
7651,74.0,0,48,3.0,0.0
7652,58.0,0,48,5.0,0.0
7653,68.0,6,48,3.0,0.0
7654,65.0,0,48,5.0,0.0
7655,92.0,0,24,7.0,0.0
7656,62.0,30,24,10.0,0.0
7657,86.0,0,24,7.0,0.0
7658,77.0,0,24,7.0,0.0
7659,46.0,12,72,13.0,0.0
7660,62.0,0,72,11.0,0.0
7661,53.0,0,72,11.0,0.0
7662,65.0,30,24,10.0,0.0
7663,46.0,0,72,12.0,0.0
7664,68.0,0,72,11.0,0.0
7665,68.0,18,24,10.0,0.0
7666,86.0,0,24,7.0,0.0
7667,58.0,30,24,10.0,0.0
7668,92.0,0,24,7.0,0.0
7669,62.0,0,24,10.0,0.0
7670,62.0,0,24,11.0,0.0
7671,46.0,0,24,12.0,0.0
7672,68.0,30,24,11.0,0.0
7673,53.0,0,24,11.0,0.0
7674,86.0,0,24,7.0,0.0
7675,46.0,0,24,13.0,0.0
7676,46.0,0,48,13.0,0.0
7677,62.0,0,48,11.0,0.0
7678,46.0,0,48,12.0,0.0
7679,77.0,24,24,7.0,0.0
7680,68.0,0,48,11.0,0.0
7681,65.0,0,24,10.0,0.0
7682,53.0,6,48,11.0,0.0
7683,68.0,30,24,10.0,0.0
7684,86.0,0,24,7.0,0.0
7685,68.0,0,72,3.0,0.0
7686,92.0,0,24,7.0,0.0
7687,65.0,0,72,5.0,0.0
7688,58.0,0,72,5.0,0.0
7689,80.0,12,72,1.0,0.0
7690,58.0,30,24,10.0,0.0
7691,74.0,0,72,3.0,0.0
7692,62.0,18,24,10.0,0.0
7693,86.0,0,24,7.0,0.0
7694,65.0,30,24,10.0,0.0
7695,77.0,0,24,7.0,0.0
7696,68.0,0,24,10.0,0.0
7697,65.0,0,24,5.0,0.0
7698,86.0,0,24,7.0,0.0
7699,80.0,0,24,1.0,0.0
7700,68.0,0,24,3.0,0.0
7701,74.0,30,24,3.0,0.0
7702,58.0,0,24,5.0,0.0
7703,58.0,0,48,5.0,0.0
7704,65.0,6,48,5.0,0.0
7705,58.0,24,24,10.0,0.0
7706,68.0,0,48,3.0,0.0
7707,80.0,0,48,1.0,0.0
7708,74.0,0,48,3.0,0.0
7709,92.0,0,24,7.0,0.0
7710,62.0,0,24,10.0,0.0
7711,86.0,30,24,7.0,0.0
7712,46.0,0,72,12.0,0.0
7713,62.0,0,72,11.0,0.0
7714,65.0,30,24,10.0,0.0
7715,77.0,0,24,7.0,0.0
7716,46.0,0,72,13.0,0.0
7717,68.0,12,72,11.0,0.0
7718,53.0,0,72,11.0,0.0
7719,86.0,18,24,7.0,0.0
7720,68.0,0,24,10.0,0.0
7721,58.0,30,24,10.0,0.0
7722,92.0,0,24,7.0,0.0
7723,62.0,0,24,11.0,0.0
7724,46.0,0,24,12.0,0.0
7725,68.0,0,24,11.0,0.0
7726,86.0,0,24,7.0,0.0
7727,46.0,0,24,13.0,0.0
7728,62.0,0,24,10.0,0.0
7729,53.0,30,24,11.0,0.0
7730,53.0,0,48,11.0,0.0
7731,77.0,24,24,7.0,0.0
7732,46.0,0,48,13.0,0.0
7733,62.0,0,48,11.0,0.0
7734,65.0,0,24,10.0,0.0
7735,46.0,6,48,12.0,0.0
7736,68.0,0,48,11.0,0.0
7737,68.0,0,24,10.0,0.0
7738,86.0,30,24,7.0,0.0
7739,92.0,0,24,7.0,0.0
7740,59.0,30,24,10.0,0.0
7741,89.0,30,24,7.0,0.0
7742,62.0,0,24,10.0,0.0
7743,65.0,30,24,10.0,0.0
7744,86.0,0,24,7.0,0.0
7745,68.0,0,24,10.0,0.0
7746,83.0,30,24,7.0,0.0
7747,91.0,0,24,7.0,0.0
7748,58.0,30,24,10.0,0.0
7749,82.0,0,24,7.0,0.0
7750,67.0,30,24,10.0,0.0
7751,90.0,0,24,7.0,0.0
7752,57.0,30,24,10.0,0.0
7753,87.0,0,24,7.0,0.0
7754,60.0,30,24,10.0,0.0
7755,84.0,30,24,7.0,0.0
7756,64.0,0,24,10.0,0.0
7757,68.0,0,24,10.0,0.0
7758,81.0,30,24,7.0,0.0
7759,89.0,0,24,7.0,0.0
7760,56.0,30,24,10.0,0.0
7761,80.0,0,24,7.0,0.0
7762,65.0,30,24,10.0,0.0
7763,55.0,30,24,10.0,0.0
7764,88.0,0,24,7.0,0.0
7765,79.0,0,24,7.0,0.0
7766,64.0,30,24,10.0,0.0
7767,54.0,30,24,10.0,0.0
7768,87.0,0,24,7.0,0.0
7769,78.0,30,24,7.0,0.0
7770,63.0,0,24,10.0,0.0
7771,86.0,0,24,7.0,0.0
7772,53.0,30,24,10.0,0.0
7773,62.0,0,24,10.0,0.0
7774,77.0,30,24,7.0,0.0
7775,85.0,0,24,7.0,0.0
7776,52.0,30,24,10.0,0.0
7777,76.0,30,24,7.0,0.0
7778,61.0,0,24,10.0,0.0
7779,51.0,0,24,10.0,0.0
7780,84.0,30,24,7.0,0.0
7781,75.0,30,24,7.0,0.0
7782,60.0,0,24,10.0,0.0
7783,83.0,0,24,7.0,0.0
7784,50.0,30,24,10.0,0.0
7785,58.0,0,24,10.0,0.0
7786,74.0,30,24,7.0,0.0
7787,83.0,30,24,7.0,0.0
7788,59.0,0,24,10.0,0.0
7789,58.0,0,24,10.0,0.0
7790,82.0,30,24,7.0,0.0
7791,59.0,0,24,10.0,0.0
7792,83.0,30,24,7.0,0.0
7793,58.0,0,24,10.0,0.0
7794,82.0,30,24,7.0,0.0
7795,59.0,0,24,10.0,0.0
7796,83.0,30,24,7.0,0.0
7797,58.0,30,24,10.0,0.0
7798,82.0,0,24,7.0,0.0
7799,83.0,0,24,7.0,0.0
7800,59.0,30,24,10.0,0.0
7801,82.0,0,24,7.0,0.0
7802,58.0,30,24,10.0,0.0
7803,83.0,0,24,7.0,0.0
7804,59.0,30,24,10.0,0.0
7805,58.0,0,24,10.0,0.0
7806,82.0,30,24,7.0,0.0
7807,83.0,0,24,7.0,0.0
7808,59.0,30,24,10.0,0.0
7809,82.0,0,24,7.0,0.0
7810,58.0,30,24,10.0,0.0
7811,83.0,0,24,7.0,0.0
7812,59.0,30,24,10.0,0.0
7813,58.0,30,24,10.0,0.0
7814,82.0,0,24,7.0,0.0
7815,59.0,30,24,10.0,0.0
7816,83.0,0,24,7.0,0.0
7817,82.0,0,24,7.0,0.0
7818,58.0,30,24,10.0,0.0
7819,83.0,0,24,7.0,0.0
7820,59.0,30,24,10.0,0.0
7821,58.0,30,24,10.0,0.0
7822,82.0,0,24,7.0,0.0
7823,83.0,0,24,7.0,0.0
7824,59.0,30,24,10.0,0.0
7825,82.0,0,24,7.0,0.0
7826,58.0,30,24,10.0,0.0
7827,59.0,0,24,10.0,0.0
7828,83.0,30,24,7.0,0.0
7829,82.0,30,24,7.0,0.0
7830,58.0,0,24,10.0,0.0
7831,83.0,30,24,7.0,0.0
7832,59.0,0,24,10.0,0.0
7833,58.0,0,24,10.0,0.0
7834,82.0,18,24,7.0,0.0
7835,58.0,15,12,10.0,0.0
7836,82.0,0,12,7.0,0.0
7837,83.0,15,12,7.0,0.0
7838,57.0,0,12,10.0,0.0
7839,82.0,0,12,7.0,0.0
7840,58.0,15,12,10.0,0.0
7841,83.0,15,12,7.0,0.0
7842,57.0,0,12,10.0,0.0
7843,58.0,0,12,10.0,0.0
7844,82.0,15,12,7.0,0.0
7845,57.0,0,12,10.0,0.0
7846,83.0,15,12,7.0,0.0
7847,82.0,15,12,7.0,0.0
7848,58.0,0,12,10.0,0.0
7849,57.0,0,12,10.0,0.0
7850,83.0,15,12,7.0,0.0
7851,58.0,0,12,10.0,0.0
7852,82.0,15,12,7.0,0.0
7853,83.0,15,12,7.0,0.0
7854,57.0,0,12,10.0,0.0
7855,58.0,0,12,10.0,0.0
7856,82.0,15,12,7.0,0.0
7857,57.0,0,12,10.0,0.0
7858,83.0,15,12,7.0,0.0
7859,58.0,0,12,10.0,0.0
7860,82.0,15,12,7.0,0.0
7861,83.0,0,12,7.0,0.0
7862,57.0,15,12,10.0,0.0
7863,82.0,0,12,7.0,0.0
7864,58.0,15,12,10.0,0.0
7865,83.0,0,12,7.0,0.0
7866,57.0,15,12,10.0,0.0
7867,58.0,0,12,10.0,0.0
7868,82.0,15,12,7.0,0.0
7869,57.0,0,12,10.0,0.0
7870,83.0,15,12,7.0,0.0
7871,58.0,0,12,10.0,0.0
7872,82.0,15,12,7.0,0.0
7873,83.0,0,12,7.0,0.0
7874,57.0,15,12,10.0,0.0
7875,58.0,0,12,10.0,0.0
7876,82.0,15,12,7.0,0.0
7877,57.0,15,12,10.0,0.0
7878,83.0,0,12,7.0,0.0
7879,82.0,0,12,7.0,0.0
7880,58.0,15,12,10.0,0.0
7881,83.0,0,12,7.0,0.0
7882,57.0,15,12,10.0,0.0
7883,58.0,0,12,10.0,0.0
7884,82.0,15,12,7.0,0.0
7885,57.0,0,12,10.0,0.0
7886,83.0,15,12,7.0,0.0
7887,82.0,15,12,7.0,0.0
7888,58.0,0,12,10.0,0.0
7889,83.0,15,12,7.0,0.0
7890,57.0,0,12,10.0,0.0
7891,58.0,0,12,10.0,0.0
7892,82.0,15,12,7.0,0.0
7893,83.0,15,12,7.0,0.0
7894,57.0,0,12,10.0,0.0
7895,82.0,15,12,7.0,0.0
7896,58.0,0,12,10.0,0.0
7897,57.0,0,12,10.0,0.0
7898,83.0,15,12,7.0,0.0
7899,82.0,0,12,7.0,0.0
7900,58.0,15,12,10.0,0.0
7901,57.0,0,12,10.0,0.0
7902,83.0,15,12,7.0,0.0
7903,82.0,15,12,7.0,0.0
7904,58.0,0,12,10.0,0.0
7905,57.0,15,12,10.0,0.0
7906,83.0,0,12,7.0,0.0
7907,58.0,0,12,10.0,0.0
7908,82.0,15,12,7.0,0.0
7909,83.0,15,12,7.0,0.0
7910,57.0,0,12,10.0,0.0
7911,82.0,0,12,7.0,0.0
7912,58.0,15,12,10.0,0.0
7913,83.0,0,12,7.0,0.0
7914,57.0,15,12,10.0,0.0
7915,58.0,15,12,10.0,0.0
7916,82.0,0,12,7.0,0.0
7917,57.0,0,12,10.0,0.0
7918,83.0,15,12,7.0,0.0
7919,82.0,0,12,7.0,0.0
7920,58.0,15,12,10.0,0.0
7921,83.0,0,12,7.0,0.0
7922,57.0,15,12,10.0,0.0
7923,82.0,0,12,7.0,0.0
7924,58.0,15,12,10.0,0.0
7925,57.0,15,12,10.0,0.0
7926,83.0,0,12,7.0,0.0
7927,82.0,0,12,7.0,0.0
7928,58.0,15,12,10.0,0.0
7929,83.0,0,12,7.0,0.0
7930,57.0,15,12,10.0,0.0
7931,82.0,0,12,7.0,0.0
7932,58.0,15,12,10.0,0.0
7933,60.0,15,12,10.0,0.0
7934,84.0,0,12,7.0,0.0
7935,82.0,15,12,7.0,0.0
7936,58.0,0,12,10.0,0.0
7937,60.0,0,12,10.0,0.0
7938,84.0,15,12,7.0,0.0
7939,58.0,0,12,10.0,0.0
7940,82.0,15,12,7.0,0.0
7941,60.0,15,12,10.0,0.0
7942,84.0,0,12,7.0,0.0
7943,58.0,0,12,10.0,0.0
7944,82.0,15,12,7.0,0.0
7945,60.0,0,12,10.0,0.0
7946,84.0,15,12,7.0,0.0
7947,58.0,0,12,10.0,0.0
7948,82.0,15,12,7.0,0.0
7949,84.0,0,12,7.0,0.0
7950,60.0,15,12,10.0,0.0
7951,82.0,0,12,7.0,0.0
7952,58.0,15,12,10.0,0.0
7953,60.0,15,12,10.0,0.0
7954,84.0,0,12,7.0,0.0
7955,58.0,15,12,10.0,0.0
7956,82.0,0,12,7.0,0.0
7957,84.0,0,12,7.0,0.0
7958,60.0,15,12,10.0,0.0
7959,82.0,0,12,7.0,0.0
7960,58.0,15,12,10.0,0.0
7961,60.0,0,12,10.0,0.0
7962,84.0,15,12,7.0,0.0
7963,58.0,0,12,10.0,0.0
7964,82.0,15,12,7.0,0.0
7965,60.0,15,12,10.0,0.0
7966,84.0,0,12,7.0,0.0
7967,82.0,0,12,7.0,0.0
7968,58.0,15,12,10.0,0.0
7969,60.0,15,12,10.0,0.0
7970,84.0,0,12,7.0,0.0
7971,58.0,0,12,10.0,0.0
7972,82.0,15,12,7.0,0.0
7973,84.0,0,12,7.0,0.0
7974,60.0,15,12,10.0,0.0
7975,82.0,0,12,7.0,0.0
7976,58.0,15,12,10.0,0.0
7977,84.0,0,12,7.0,0.0
7978,60.0,15,12,10.0,0.0
7979,58.0,15,12,10.0,0.0
7980,82.0,0,12,7.0,0.0
7981,84.0,0,12,7.0,0.0
7982,60.0,15,12,10.0,0.0
7983,82.0,15,12,7.0,0.0
7984,58.0,0,12,10.0,0.0
7985,60.0,15,12,10.0,0.0
7986,84.0,0,12,7.0,0.0
7987,58.0,0,12,10.0,0.0
7988,82.0,15,12,7.0,0.0
7989,60.0,0,12,10.0,0.0
7990,84.0,15,12,7.0,0.0
7991,58.0,0,12,10.0,0.0
7992,82.0,15,12,7.0,0.0
7993,84.0,15,12,7.0,0.0
7994,60.0,0,12,10.0,0.0
7995,58.0,0,12,10.0,0.0
7996,82.0,15,12,7.0,0.0
7997,60.0,0,12,10.0,0.0
7998,84.0,15,12,7.0,0.0
7999,58.0,0,12,10.0,0.0
8000,82.0,15,12,7.0,0.0
8001,60.0,0,12,10.0,0.0
8002,84.0,15,12,7.0,0.0
8003,58.0,15,12,10.0,0.0
8004,82.0,0,12,7.0,0.0
8005,84.0,0,12,7.0,0.0
8006,60.0,15,12,10.0,0.0
8007,82.0,15,12,7.0,0.0
8008,58.0,0,12,10.0,0.0
8009,84.0,0,12,7.0,0.0
8010,60.0,15,12,10.0,0.0
8011,82.0,0,12,7.0,0.0
8012,58.0,15,12,10.0,0.0
8013,60.0,0,12,10.0,0.0
8014,84.0,15,12,7.0,0.0
8015,82.0,15,12,7.0,0.0
8016,58.0,0,12,10.0,0.0
8017,60.0,0,12,10.0,0.0
8018,84.0,15,12,7.0,0.0
8019,58.0,0,48,11.0,0.0
8020,58.0,15,12,10.0,0.0
8021,55.0,9,48,11.0,0.0
8022,82.0,0,12,7.0,0.0
8023,84.0,0,12,7.0,0.0
8024,60.0,15,12,10.0,0.0
8025,82.0,6,12,7.0,0.0
8026,58.0,0,12,10.0,0.0
8027,60.0,15,12,10.0,0.0
8028,84.0,0,12,7.0,0.0
8029,51.0,0,96,14.0,0.0
8030,82.0,15,12,7.0,0.0
8031,55.0,0,48,11.0,0.0
8032,58.0,9,48,11.0,0.0
8033,39.0,6,96,14.0,0.0
8034,58.0,0,12,10.0,0.0
8035,60.0,15,12,10.0,0.0
8036,84.0,0,12,7.0,0.0
8037,82.0,0,12,7.0,0.0
8038,58.0,6,12,10.0,0.0
8039,60.0,15,12,10.0,0.0
8040,84.0,0,12,7.0,0.0
8041,58.0,15,12,10.0,0.0
8042,82.0,0,12,7.0,0.0
8043,58.0,0,48,11.0,0.0
8044,63.0,9,48,11.0,0.0
8045,60.0,0,12,10.0,0.0
8046,84.0,9,12,7.0,0.0
8047,82.0,0,12,7.0,0.0
8048,58.0,6,12,10.0,0.0
8049,60.0,0,12,10.0,0.0
8050,84.0,15,12,7.0,0.0
8051,82.0,15,12,7.0,0.0
8052,58.0,0,12,10.0,0.0
8053,84.0,0,12,7.0,0.0
8054,60.0,15,12,10.0,0.0
8055,58.0,15,12,10.0,0.0
8056,82.0,0,12,7.0,0.0
8057,84.0,0,12,7.0,0.0
8058,60.0,15,12,10.0,0.0
8059,82.0,0,12,7.0,0.0
8060,58.0,15,12,10.0,0.0
8061,60.0,15,12,10.0,0.0
8062,84.0,0,12,7.0,0.0
8063,58.0,0,12,10.0,0.0
8064,82.0,15,12,7.0,0.0
8065,60.0,15,12,10.0,0.0
8066,84.0,0,12,7.0,0.0
8067,82.0,0,12,7.0,0.0
8068,58.0,15,12,10.0,0.0
8069,84.0,0,12,7.0,0.0
8070,60.0,15,12,10.0,0.0
8071,82.0,0,12,7.0,0.0
8072,58.0,15,12,10.0,0.0
8073,84.0,0,12,7.0,0.0
8074,60.0,15,12,10.0,0.0
8075,51.0,0,48,11.0,0.0
8076,55.0,9,48,11.0,0.0
8077,58.0,0,12,10.0,0.0
8078,58.0,0,48,11.0,0.0
8079,82.0,15,12,7.0,0.0
8080,63.0,0,48,11.0,0.0
8081,60.0,15,12,10.0,0.0
8082,84.0,0,12,7.0,0.0
8083,82.0,0,12,7.0,0.0
8084,58.0,6,12,10.0,0.0
8085,60.0,15,12,10.0,0.0
8086,84.0,0,12,7.0,0.0
8087,55.0,6,96,11.0,0.0
8088,63.0,9,48,11.0,0.0
8089,82.0,0,12,7.0,0.0
8090,58.0,15,12,10.0,0.0
8091,58.0,0,48,11.0,0.0
8092,51.0,0,96,11.0,0.0
8093,84.0,0,12,7.0,0.0
8094,60.0,15,12,10.0,0.0
8095,58.0,6,12,10.0,0.0
8096,82.0,0,12,7.0,0.0
8097,84.0,0,12,7.0,0.0
8098,60.0,15,12,10.0,0.0
8099,63.0,9,48,11.0,0.0
8100,67.0,0,48,11.0,0.0
8101,82.0,15,12,7.0,0.0
8102,58.0,0,12,10.0,0.0
8103,84.0,0,12,7.0,0.0
8104,60.0,9,12,10.0,0.0
8105,82.0,0,12,7.0,0.0
8106,58.0,6,12,10.0,0.0
8107,84.0,15,12,7.0,0.0
8108,60.0,0,12,10.0,0.0
8109,58.0,0,12,10.0,0.0
8110,82.0,15,12,7.0,0.0
8111,84.0,15,12,7.0,0.0
8112,60.0,0,12,10.0,0.0
8113,82.0,15,12,7.0,0.0
8114,58.0,0,12,10.0,0.0
8115,60.0,0,12,10.0,0.0
8116,84.0,15,12,7.0,0.0
8117,58.0,0,12,10.0,0.0
8118,82.0,15,12,7.0,0.0
8119,84.0,15,12,7.0,0.0
8120,60.0,0,12,10.0,0.0
8121,58.0,15,12,10.0,0.0
8122,82.0,0,12,7.0,0.0
8123,84.0,0,12,7.0,0.0
8124,60.0,15,12,10.0,0.0
8125,58.0,15,12,10.0,0.0
8126,82.0,0,12,7.0,0.0
8127,60.0,15,12,10.0,0.0
8128,84.0,0,12,7.0,0.0
8129,82.0,15,12,7.0,0.0
8130,58.0,0,12,10.0,0.0
8131,60.0,0,12,10.0,0.0
8132,84.0,15,12,7.0,0.0
8133,58.0,0,12,10.0,0.0
8134,67.0,9,48,11.0,0.0
8135,63.0,0,48,11.0,0.0
8136,58.0,0,48,11.0,0.0
8137,55.0,0,48,11.0,0.0
8138,82.0,15,12,7.0,0.0
8139,60.0,15,12,10.0,0.0
8140,84.0,0,12,7.0,0.0
8141,82.0,0,12,7.0,0.0
8142,58.0,6,12,10.0,0.0
8143,60.0,0,12,10.0,0.0
8144,84.0,15,12,7.0,0.0
8145,67.0,0,24,11.0,0.0
8146,58.0,0,96,11.0,0.0
8147,63.0,3,24,11.0,0.0
8148,82.0,0,12,7.0,0.0
8149,55.0,6,96,11.0,0.0
8150,58.0,12,12,10.0,0.0
8151,84.0,15,12,7.0,0.0
8152,60.0,0,12,10.0,0.0
8153,58.0,0,12,10.0,0.0
8154,82.0,12,12,7.0,0.0
8155,70.0,0,24,11.0,0.0
8156,67.0,3,24,11.0,0.0
8157,84.0,15,12,7.0,0.0
8158,60.0,0,12,10.0,0.0
8159,70.0,0,48,11.0,0.0
8160,58.0,0,12,10.0,0.0
8161,82.0,15,12,7.0,0.0
8162,67.0,9,48,11.0,0.0
8163,60.0,9,12,10.0,0.0
8164,84.0,0,12,7.0,0.0
8165,82.0,6,12,7.0,0.0
8166,58.0,0,12,10.0,0.0
8167,84.0,0,12,7.0,0.0
8168,60.0,15,12,10.0,0.0
8169,82.0,0,12,7.0,0.0
8170,58.0,15,12,10.0,0.0
8171,84.0,0,12,7.0,0.0
8172,60.0,15,12,10.0,0.0
8173,82.0,15,12,7.0,0.0
8174,58.0,0,12,10.0,0.0
8175,60.0,0,12,10.0,0.0
8176,84.0,15,12,7.0,0.0
8177,58.0,15,12,10.0,0.0
8178,82.0,0,12,7.0,0.0
8179,60.0,15,12,10.0,0.0
8180,84.0,0,12,7.0,0.0
8181,58.0,0,12,10.0,0.0
8182,82.0,15,12,7.0,0.0
8183,60.0,0,12,10.0,0.0
8184,84.0,15,12,7.0,0.0
8185,58.0,0,12,10.0,0.0
8186,82.0,15,12,7.0,0.0
8187,60.0,15,12,10.0,0.0
8188,84.0,0,12,7.0,0.0
8189,82.0,0,12,7.0,0.0
8190,58.0,15,12,10.0,0.0
8191,84.0,15,12,7.0,0.0
8192,60.0,0,12,10.0,0.0
8193,58.0,15,12,10.0,0.0
8194,82.0,0,12,7.0,0.0
8195,84.0,0,12,7.0,0.0
8196,60.0,15,12,10.0,0.0
8197,82.0,0,12,7.0,0.0
8198,58.0,15,12,10.0,0.0
8199,84.0,0,12,7.0,0.0
8200,60.0,15,12,10.0,0.0
8201,58.0,15,12,10.0,0.0
8202,82.0,0,12,7.0,0.0
8203,84.0,15,12,7.0,0.0
8204,60.0,0,12,10.0,0.0
8205,58.0,15,12,10.0,0.0
8206,82.0,0,12,7.0,0.0
8207,60.0,15,12,10.0,0.0
8208,84.0,0,12,7.0,0.0
8209,82.0,15,12,7.0,0.0
8210,58.0,0,12,10.0,0.0
8211,60.0,15,12,10.0,0.0
8212,84.0,0,12,7.0,0.0
8213,82.0,15,12,7.0,0.0
8214,58.0,0,12,10.0,0.0
8215,84.0,15,12,7.0,0.0
8216,60.0,0,12,10.0,0.0
8217,58.0,0,12,10.0,0.0
8218,82.0,15,12,7.0,0.0
8219,60.0,15,12,10.0,0.0
8220,84.0,0,12,7.0,0.0
8221,58.0,0,12,10.0,0.0
8222,82.0,15,12,7.0,0.0
8223,60.0,15,12,10.0,0.0
8224,84.0,0,12,7.0,0.0
8225,82.0,0,12,7.0,0.0
8226,58.0,15,12,10.0,0.0
8227,84.0,0,12,7.0,0.0
8228,60.0,15,12,10.0,0.0
8229,82.0,15,12,7.0,0.0
8230,58.0,0,12,10.0,0.0
8231,60.0,0,12,10.0,0.0
8232,84.0,15,12,7.0,0.0
8233,82.0,0,12,7.0,0.0
8234,58.0,15,12,10.0,0.0
8235,60.0,15,12,10.0,0.0
8236,84.0,0,12,7.0,0.0
8237,58.0,0,12,10.0,0.0
8238,82.0,15,12,7.0,0.0
8239,60.0,0,12,10.0,0.0
8240,84.0,15,12,7.0,0.0
8241,63.0,0,48,11.0,0.0
8242,58.0,9,48,11.0,0.0
8243,58.0,15,12,10.0,0.0
8244,82.0,0,12,7.0,0.0
8245,84.0,0,12,7.0,0.0
8246,60.0,15,12,10.0,0.0
8247,82.0,6,12,7.0,0.0
8248,58.0,0,12,10.0,0.0
8249,84.0,0,12,7.0,0.0
8250,60.0,15,12,10.0,0.0
8251,58.0,9,48,11.0,0.0
8252,51.0,0,96,14.0,0.0
8253,39.0,6,96,14.0,0.0
8254,82.0,0,12,7.0,0.0
8255,63.0,0,48,11.0,0.0
8256,58.0,15,12,10.0,0.0
8257,84.0,15,12,7.0,0.0
8258,60.0,0,12,10.0,0.0
8259,58.0,6,12,10.0,0.0
8260,82.0,0,12,7.0,0.0
8261,84.0,15,12,7.0,0.0
8262,60.0,0,12,10.0,0.0
8263,82.0,15,12,7.0,0.0
8264,67.0,0,48,11.0,0.0
8265,58.0,0,12,10.0,0.0
8266,63.0,9,48,11.0,0.0
8267,84.0,9,12,7.0,0.0
8268,60.0,0,12,10.0,0.0
8269,58.0,6,12,10.0,0.0
8270,82.0,0,12,7.0,0.0
8271,84.0,15,12,7.0,0.0
8272,60.0,0,12,10.0,0.0
8273,58.0,0,12,10.0,0.0
8274,82.0,15,12,7.0,0.0
8275,60.0,0,12,10.0,0.0
8276,84.0,15,12,7.0,0.0
8277,82.0,0,12,7.0,0.0
8278,58.0,15,12,10.0,0.0
8279,60.0,15,12,10.0,0.0
8280,84.0,0,12,7.0,0.0
8281,58.0,0,12,10.0,0.0
8282,82.0,15,12,7.0,0.0
8283,84.0,0,12,7.0,0.0
8284,60.0,15,12,10.0,0.0
8285,58.0,15,12,10.0,0.0
8286,82.0,0,12,7.0,0.0
8287,60.0,15,12,10.0,0.0
8288,84.0,0,12,7.0,0.0
8289,82.0,15,12,7.0,0.0
8290,58.0,0,12,10.0,0.0
8291,84.0,0,12,7.0,0.0
8292,60.0,15,12,10.0,0.0
8293,58.0,15,12,10.0,0.0
8294,82.0,0,12,7.0,0.0
8295,84.0,15,12,7.0,0.0
8296,60.0,0,12,10.0,0.0
8297,58.0,0,12,10.0,0.0
8298,63.0,0,48,11.0,0.0
8299,51.0,0,48,11.0,0.0
8300,67.0,9,48,11.0,0.0
8301,82.0,15,12,7.0,0.0
8302,55.0,0,48,11.0,0.0
8303,84.0,0,12,7.0,0.0
8304,60.0,15,12,10.0,0.0
8305,58.0,6,12,10.0,0.0
8306,82.0,0,12,7.0,0.0
8307,84.0,0,12,7.0,0.0
8308,60.0,15,12,10.0,0.0
8309,55.0,6,96,11.0,0.0
8310,58.0,15,12,10.0,0.0
8311,67.0,9,48,11.0,0.0
8312,63.0,0,48,11.0,0.0
8313,82.0,0,12,7.0,0.0
8314,51.0,0,96,11.0,0.0
8315,84.0,15,12,7.0,0.0
8316,60.0,0,12,10.0,0.0
8317,58.0,0,12,10.0,0.0
8318,82.0,6,12,7.0,0.0
8319,60.0,0,12,10.0,0.0
8320,84.0,15,12,7.0,0.0
8321,67.0,9,48,11.0,0.0
8322,70.0,0,48,11.0,0.0
8323,58.0,15,12,10.0,0.0
8324,82.0,0,12,7.0,0.0
8325,84.0,0,12,7.0,0.0
8326,60.0,9,12,10.0,0.0
8327,58.0,0,12,10.0,0.0
8328,82.0,6,12,7.0,0.0
8329,60.0,0,12,10.0,0.0
8330,84.0,15,12,7.0,0.0
8331,58.0,0,12,10.0,0.0
8332,82.0,15,12,7.0,0.0
8333,84.0,0,12,7.0,0.0
8334,60.0,15,12,10.0,0.0
8335,82.0,0,12,7.0,0.0
8336,58.0,15,12,10.0,0.0
8337,84.0,15,12,7.0,0.0
8338,60.0,0,12,10.0,0.0
8339,82.0,15,12,7.0,0.0
8340,58.0,0,12,10.0,0.0
8341,60.0,15,12,10.0,0.0
8342,84.0,0,12,7.0,0.0
8343,82.0,15,12,7.0,0.0
8344,58.0,0,12,10.0,0.0
8345,84.0,0,12,7.0,0.0
8346,60.0,15,12,10.0,0.0
8347,82.0,0,12,7.0,0.0
8348,58.0,15,12,10.0,0.0
8349,60.0,0,12,10.0,0.0
8350,84.0,15,12,7.0,0.0
8351,58.0,0,12,10.0,0.0
8352,82.0,15,12,7.0,0.0
8353,84.0,0,12,7.0,0.0
8354,60.0,15,12,10.0,0.0
8355,67.0,9,48,11.0,0.0
8356,58.0,15,12,10.0,0.0
8357,63.0,0,48,11.0,0.0
8358,58.0,0,48,11.0,0.0
8359,70.0,0,48,11.0,0.0
8360,82.0,0,12,7.0,0.0
8361,84.0,0,12,7.0,0.0
8362,60.0,15,12,10.0,0.0
8363,58.0,0,12,10.0,0.0
8364,82.0,6,12,7.0,0.0
8365,60.0,15,12,10.0,0.0
8366,84.0,0,12,7.0,0.0
8367,67.0,6,48,11.0,0.0
8368,63.0,6,96,11.0,0.0
8369,82.0,0,24,7.0,0.0
8370,70.0,3,24,11.0,0.0
8371,58.0,0,96,11.0,0.0
8372,58.0,12,12,10.0,0.0
8373,60.0,15,12,10.0,0.0
8374,75.0,3,24,11.0,0.0
8375,80.0,0,24,7.0,0.0
8376,58.0,6,12,10.0,0.0
8377,60.0,15,12,10.0,0.0
8378,75.0,0,48,11.0,0.0
8379,79.0,3,24,7.0,0.0
8380,67.0,6,48,11.0,0.0
8381,58.0,12,12,10.0,0.0
8382,60.0,9,12,10.0,0.0
8383,58.0,6,12,10.0,0.0
8384,77.0,3,24,7.0,0.0
8385,60.0,15,12,10.0,0.0
8386,75.0,3,24,7.0,0.0
8387,58.0,12,12,10.0,0.0
8388,60.0,15,12,10.0,0.0
8389,58.0,12,12,10.0,0.0
8390,74.0,3,24,7.0,0.0
8391,60.0,15,12,10.0,0.0
8392,58.0,12,12,10.0,0.0
8393,72.0,3,24,7.0,0.0
8394,60.0,15,12,10.0,0.0
8395,58.0,12,12,10.0,0.0
8396,70.0,3,24,7.0,0.0
8397,60.0,15,12,10.0,0.0
8398,68.0,3,24,7.0,0.0
8399,58.0,12,12,10.0,0.0
8400,60.0,15,12,10.0,0.0
8401,67.0,3,24,7.0,0.0
8402,58.0,12,12,10.0,0.0
8403,60.0,15,12,10.0,0.0
8404,58.0,12,12,10.0,0.0
8405,65.0,3,24,7.0,0.0
8406,60.0,15,12,10.0,0.0
8407,63.0,3,24,7.0,0.0
8408,58.0,12,12,10.0,0.0
8409,60.0,27,12,10.0,0.0
8410,62.0,24,24,7.0,0.0
8411,58.0,6,48,10.0,0.0
8412,60.0,30,24,7.0,0.0
8413,56.0,0,24,10.0,0.0
8414,58.0,30,24,7.0,0.0
8415,55.0,0,24,10.0,0.0
8416,60.0,30,24,7.0,0.0
8417,53.0,0,24,10.0,0.0
8418,62.0,30,24,7.0,0.0
8419,51.0,30,24,10.0,0.0
8420,63.0,0,24,7.0,0.0
8421,58.0,0,2988,5.0,0.0
8422,46.0,0,2988,5.0,0.0
8423,50.0,30,24,10.0,0.0
8424,65.0,0,24,7.0,0.0
8425,48.0,30,24,10.0,0.0
8426,67.0,0,24,7.0,0.0
8427,68.0,30,24,7.0,0.0
8428,46.0,0,24,10.0,0.0
8429,70.0,30,24,7.0,0.0
8430,44.0,0,24,10.0,0.0
8431,43.0,0,24,10.0,0.0
8432,72.0,30,24,7.0,0.0
8433,41.0,54,24,10.0,0.0
8434,74.0,0,24,7.0,0.0
8435,39.0,0,48,10.0,0.0
8436,75.0,60,48,7.0,0.0
8437,70.0,0,48,7.0,0.0
8438,67.0,60,48,7.0,0.0
8439,58.0,0,48,10.0,0.0
8440,46.0,0,48,10.0,0.0
8441,55.0,0,48,10.0,0.0
8442,51.0,60,48,10.0,0.0
8443,75.0,0,48,7.0,0.0
8444,70.0,0,48,7.0,0.0
8445,67.0,0,48,7.0,0.0
8446,79.0,0,48,7.0,0.0
8447,39.0,60,48,10.0,0.0
8448,75.0,36,48,7.0,0.0
8449,58.0,0,48,10.0,0.0
8450,70.0,0,48,7.0,0.0
8451,51.0,0,48,10.0,0.0
8452,55.0,0,48,10.0,0.0
8453,46.0,6,48,10.0,0.0
8454,79.0,24,24,7.0,0.0
8455,82.0,30,24,7.0,0.0
8456,75.0,0,48,7.0,0.0
8457,39.0,0,48,10.0,0.0
8458,79.0,6,48,7.0,0.0
8459,82.0,24,24,7.0,0.0
8460,87.0,54,24,7.0,0.0
8461,79.0,0,216,7.0,0.0
8462,75.0,12,216,7.0,0.0
8463,58.0,60,48,10.0,0.0
8464,87.0,0,216,7.0,0.0
8465,82.0,0,216,7.0,0.0
8466,46.0,0,48,10.0,0.0
8467,55.0,60,48,10.0,0.0
8468,51.0,0,48,10.0,0.0
8469,39.0,48,48,10.0,0.0
8470,58.0,36,48,10.0,0.0
8471,79.0,0,48,7.0,0.0
8472,82.0,0,48,7.0,0.0
8473,87.0,24,24,7.0,0.0
8474,46.0,6,48,10.0,0.0
8475,51.0,0,48,10.0,0.0
8476,55.0,0,48,10.0,0.0
8477,91.0,54,24,7.0,0.0
8478,82.0,60,48,7.0,0.0
8479,80.0,0,48,7.0,0.0
8480,77.0,0,48,7.0,0.0
8481,89.0,0,48,7.0,0.0
8482,34.0,0,48,10.0,0.0
8483,58.0,36,48,10.0,0.0
8484,77.0,0,48,7.0,0.0
8485,46.0,0,48,10.0,0.0
8486,53.0,0,48,10.0,0.0
8487,80.0,6,48,7.0,0.0
8488,82.0,0,48,7.0,0.0
8489,50.0,0,48,10.0,0.0
8490,86.0,24,24,7.0,0.0
8491,89.0,54,24,7.0,0.0
8492,87.0,60,48,7.0,0.0
8493,82.0,0,48,7.0,0.0
8494,79.0,0,48,7.0,0.0
8495,39.0,0,48,10.0,0.0
8496,58.0,36,48,10.0,0.0
8497,55.0,0,48,10.0,0.0
8498,51.0,0,48,10.0,0.0
8499,46.0,0,48,10.0,0.0
8500,75.0,6,48,7.0,0.0
8501,79.0,24,24,7.0,0.0
8502,82.0,18,24,7.0,0.0
8503,34.0,9,48,10.0,0.0
8504,82.0,15,12,7.0,0.0
8505,77.0,12,276,7.0,0.0
8506,74.0,0,276,7.0,0.0
8507,84.0,15,12,7.0,0.0
8508,82.0,6,12,7.0,0.0
8509,84.0,15,12,7.0,0.0
8510,82.0,15,12,7.0,0.0
8511,58.0,9,48,10.0,0.0
8512,84.0,15,12,7.0,0.0
8513,82.0,6,12,7.0,0.0
8514,84.0,27,12,7.0,0.0
8515,53.0,0,48,10.0,0.0
8516,50.0,6,48,10.0,0.0
8517,46.0,0,48,10.0,0.0
8518,82.0,24,24,7.0,0.0
8519,81.0,54,24,7.0,0.0
8520,34.0,48,48,10.0,0.0
8521,82.0,0,96,7.0,0.0
8522,58.0,60,48,10.0,0.0
8523,46.0,0,48,10.0,0.0
8524,50.0,60,48,10.0,0.0
8525,53.0,0,48,10.0,0.0
8526,70.0,0,48,7.0,0.0
8527,39.0,60,48,10.0,0.0
8528,70.0,0,48,7.0,0.0
8529,63.0,0,48,7.0,0.0
8530,67.0,0,48,7.0,0.0
8531,67.0,0,48,7.0,0.0
8532,63.0,0,48,7.0,0.0
8533,58.0,60,48,10.0,0.0
8534,75.0,0,48,7.0,0.0
8535,51.0,0,48,10.0,0.0
8536,55.0,0,48,10.0,0.0
8537,46.0,0,48,10.0,0.0
8538,75.0,60,48,7.0,0.0
8539,67.0,0,48,7.0,0.0
8540,70.0,0,48,7.0,0.0
8541,67.0,60,48,7.0,0.0
8542,70.0,0,48,7.0,0.0
8543,39.0,0,48,10.0,0.0
8544,79.0,0,48,7.0,0.0
8545,58.0,36,48,10.0,0.0
8546,79.0,24,24,7.0,0.0
8547,70.0,0,48,7.0,0.0
8548,75.0,6,48,7.0,0.0
8549,55.0,0,48,10.0,0.0
8550,51.0,0,48,10.0,0.0
8551,46.0,0,48,10.0,0.0
8552,82.0,30,24,7.0,0.0
8553,39.0,6,48,10.0,0.0
8554,82.0,24,24,7.0,0.0
8555,75.0,0,48,7.0,0.0
8556,79.0,0,48,7.0,0.0
8557,87.0,54,24,7.0,0.0
8558,87.0,0,216,7.0,0.0
8559,82.0,0,216,7.0,0.0
8560,79.0,12,216,7.0,0.0
8561,75.0,0,216,7.0,0.0
8562,58.0,60,48,10.0,0.0
8563,46.0,0,48,10.0,0.0
8564,55.0,0,48,10.0,0.0
8565,51.0,60,48,10.0,0.0
8566,39.0,48,48,10.0,0.0
8567,58.0,36,48,10.0,0.0
8568,55.0,0,48,10.0,0.0
8569,87.0,24,24,7.0,0.0
8570,46.0,0,48,10.0,0.0
8571,51.0,6,48,10.0,0.0
8572,79.0,0,48,7.0,0.0
8573,82.0,0,48,7.0,0.0
8574,91.0,54,24,7.0,0.0
8575,89.0,0,48,7.0,0.0
8576,82.0,60,48,7.0,0.0
8577,80.0,0,48,7.0,0.0
8578,34.0,0,48,10.0,0.0
8579,77.0,0,48,7.0,0.0
8580,58.0,36,48,10.0,0.0
8581,80.0,0,48,7.0,0.0
8582,53.0,6,48,10.0,0.0
8583,50.0,0,48,10.0,0.0
8584,86.0,24,24,7.0,0.0
8585,82.0,0,48,7.0,0.0
8586,77.0,0,48,7.0,0.0
8587,46.0,0,48,10.0,0.0
8588,89.0,54,24,7.0,0.0
8589,87.0,0,48,7.0,0.0
8590,39.0,60,48,10.0,0.0
8591,82.0,0,48,7.0,0.0
8592,79.0,0,48,7.0,0.0
8593,58.0,36,48,10.0,0.0
8594,55.0,0,48,10.0,0.0
8595,51.0,0,48,10.0,0.0
8596,46.0,0,48,10.0,0.0
8597,75.0,6,48,7.0,0.0
8598,79.0,24,24,7.0,0.0
8599,82.0,18,24,7.0,0.0
8600,82.0,15,12,7.0,0.0
8601,74.0,12,276,7.0,0.0
8602,77.0,0,276,7.0,0.0
8603,46.0,9,48,10.0,0.0
8604,84.0,15,12,7.0,0.0
8605,82.0,6,12,7.0,0.0
8606,84.0,15,12,7.0,0.0
8607,82.0,15,12,7.0,0.0
8608,58.0,9,48,10.0,0.0
8609,84.0,15,12,7.0,0.0
8610,82.0,6,12,7.0,0.0
8611,84.0,27,12,7.0,0.0
8612,53.0,0,48,10.0,0.0
8613,82.0,24,24,7.0,0.0
8614,50.0,6,48,10.0,0.0
8615,81.0,54,24,7.0,0.0
8616,46.0,48,48,10.0,0.0
8617,82.0,0,96,7.0,0.0
8618,62.0,36,48,10.0,0.0
8619,65.0,0,48,10.0,0.0
8620,64.0,0,48,10.0,0.0
8621,61.0,6,48,10.0,0.0
8622,70.0,24,24,7.0,0.0
8623,82.0,0,24,7.0,0.0
8624,81.0,0,24,7.0,0.0
8625,69.0,54,24,7.0,0.0
8626,81.0,0,48,7.0,0.0
8627,69.0,0,48,7.0,0.0
8628,46.0,0,96,5.0,0.0
8629,58.0,12,96,5.0,0.0
8630,46.0,48,48,10.0,0.0
8631,60.0,0,48,10.0,0.0
8632,63.0,36,48,10.0,0.0
8633,59.0,0,48,10.0,0.0
8634,62.0,6,48,10.0,0.0
8635,68.0,0,24,7.0,0.0
8636,80.0,24,24,7.0,0.0
8637,67.0,54,24,7.0,0.0
8638,79.0,0,24,7.0,0.0
8639,67.0,48,48,7.0,0.0
8640,79.0,0,48,7.0,0.0
8641,46.0,0,96,5.0,0.0
8642,58.0,12,96,5.0,0.0
8643,46.0,0,48,10.0,0.0
8644,61.0,0,48,10.0,0.0
8645,58.0,36,48,10.0,0.0
8646,57.0,0,48,10.0,0.0
8647,60.0,6,48,10.0,0.0
8648,66.0,0,24,7.0,0.0
8649,78.0,24,24,7.0,0.0
8650,77.0,0,24,7.0,0.0
8651,65.0,54,24,7.0,0.0
8652,46.0,48,48,10.0,0.0
8653,58.0,12,96,5.0,0.0
8654,65.0,0,48,7.0,0.0
8655,77.0,0,48,7.0,0.0
8656,46.0,0,96,5.0,0.0
8657,56.0,0,48,10.0,0.0
8658,59.0,36,48,10.0,0.0
8659,66.0,0,24,7.0,0.0
8660,55.0,0,48,10.0,0.0
8661,76.0,24,24,7.0,0.0
8662,58.0,6,48,10.0,0.0
8663,63.0,0,24,7.0,0.0
8664,75.0,54,24,7.0,0.0
8665,46.0,0,96,5.0,0.0
8666,46.0,48,48,10.0,0.0
8667,75.0,0,48,7.0,0.0
8668,63.0,0,48,7.0,0.0
8669,58.0,12,96,5.0,0.0
8670,54.0,36,48,10.0,0.0
8671,57.0,0,48,10.0,0.0
8672,63.0,0,24,7.0,0.0
8673,68.0,6,48,7.0,0.0
8674,70.0,0,48,7.0,0.0
8675,53.0,0,48,10.0,0.0
8676,56.0,0,48,10.0,0.0
8677,75.0,24,24,7.0,0.0
8678,74.0,0,24,7.0,0.0
8679,62.0,54,24,7.0,0.0
8680,34.0,0,96,14.0,0.0
8681,62.0,0,96,14.0,0.0
8682,58.0,0,96,14.0,0.0
8683,46.0,4,648,5.0,0.0
8684,58.0,0,648,5.0,0.0
8685,46.0,0,96,14.0,0.0
8686,53.0,12,96,14.0,0.0
8687,62.0,0,96,7.0,0.0
8688,70.0,0,96,7.0,0.0
8689,74.0,0,96,7.0,0.0
8690,68.0,0,96,7.0,0.0
8691,34.0,48,48,10.0,0.0
8692,58.0,60,48,10.0,0.0
8693,74.0,60,48,7.0,0.0
8694,53.0,0,48,10.0,0.0
8695,50.0,0,48,10.0,0.0
8696,46.0,0,48,10.0,0.0
8697,70.0,0,48,7.0,0.0
8698,68.0,0,48,7.0,0.0
8699,62.0,0,48,7.0,0.0
8700,58.0,12,96,14.0,0.0
8701,70.0,24,72,7.0,0.0
8702,68.0,0,72,7.0,0.0
8703,74.0,0,72,7.0,0.0
8704,46.0,0,96,14.0,0.0
8705,50.0,0,96,14.0,0.0
8706,65.0,0,96,14.0,0.0
8707,62.0,0,72,7.0,0.0
8708,34.0,24,48,10.0,0.0
8709,34.0,0,96,14.0,0.0
8710,58.0,6,48,10.0,0.0
8711,75.0,0,24,7.0,0.0
8712,70.0,0,24,7.0,0.0
8713,68.0,54,24,7.0,0.0
8714,63.0,0,24,7.0,0.0
8715,70.0,0,48,7.0,0.0
8716,53.0,0,48,10.0,0.0
8717,46.0,0,48,10.0,0.0
8718,50.0,0,48,10.0,0.0
8719,65.0,0,48,7.0,0.0
8720,77.0,0,48,7.0,0.0
8721,68.0,60,48,7.0,0.0
8722,39.0,0,96,14.0,0.0
8723,51.0,0,96,14.0,0.0
8724,55.0,12,96,14.0,0.0
8725,39.0,0,48,10.0,0.0
8726,63.0,0,96,14.0,0.0
8727,58.0,0,96,14.0,0.0
8728,68.0,0,48,7.0,0.0
8729,65.0,0,48,7.0,0.0
8730,77.0,0,48,7.0,0.0
8731,70.0,48,48,7.0,0.0
8732,67.0,0,48,7.0,0.0
8733,70.0,60,48,7.0,0.0
8734,58.0,0,48,10.0,0.0
8735,79.0,0,48,7.0,0.0
8736,67.0,0,48,7.0,0.0
8737,55.0,0,48,10.0,0.0
8738,51.0,0,48,10.0,0.0
8739,46.0,0,48,10.0,0.0
8740,70.0,108,48,7.0,0.0
8741,75.0,0,48,7.0,0.0
8742,63.0,0,48,7.0,0.0
8743,39.0,32,112,10.0,0.0
8744,67.0,0,96,7.0,0.0
8745,63.0,12,96,7.0,0.0
8746,70.0,0,96,7.0,0.0
8747,75.0,0,96,7.0,0.0
8748,70.0,24,24,7.0,0.0
8749,65.0,6,48,10.0,0.0
8750,62.0,0,48,10.0,0.0
8751,82.0,30,24,7.0,0.0
8752,64.0,6,48,10.0,0.0
8753,61.0,0,48,10.0,0.0
8754,69.0,24,24,7.0,0.0
8755,81.0,30,24,7.0,0.0
8756,69.0,24,24,7.0,0.0
8757,61.0,6,48,10.0,0.0
8758,64.0,0,48,10.0,0.0
8759,81.0,30,24,7.0,0.0
8760,68.0,24,24,7.0,0.0
8761,60.0,0,48,10.0,0.0
8762,63.0,6,48,10.0,0.0
8763,80.0,30,24,7.0,0.0
8764,59.0,6,48,10.0,0.0
8765,62.0,0,48,10.0,0.0
8766,67.0,24,24,7.0,0.0
8767,79.0,30,24,7.0,0.0
8768,62.0,6,48,10.0,0.0
8769,67.0,24,24,7.0,0.0
8770,59.0,0,48,10.0,0.0
8771,79.0,30,24,7.0,0.0
8772,66.0,24,24,7.0,0.0
8773,58.0,0,48,10.0,0.0
8774,61.0,6,48,10.0,0.0
8775,78.0,30,24,7.0,0.0
8776,57.0,0,48,10.0,0.0
8777,65.0,24,24,7.0,0.0
8778,60.0,6,48,10.0,0.0
8779,77.0,30,24,7.0,0.0
8780,65.0,24,24,7.0,0.0
8781,60.0,0,48,10.0,0.0
8782,57.0,6,48,10.0,0.0
8783,77.0,30,24,7.0,0.0
8784,64.0,24,24,7.0,0.0
8785,59.0,6,48,10.0,0.0
8786,56.0,0,48,10.0,0.0
8787,76.0,30,24,7.0,0.0
8788,55.0,6,48,10.0,0.0
8789,58.0,0,48,10.0,0.0
8790,63.0,24,24,7.0,0.0
8791,75.0,30,24,7.0,0.0
8792,58.0,6,48,10.0,0.0
8793,55.0,0,48,10.0,0.0
8794,63.0,24,24,7.0,0.0
8795,75.0,30,24,7.0,0.0
8796,50.0,30,24,12.0,0.0
8797,62.0,0,24,11.0,0.0
8798,49.0,0,24,12.0,0.0
8799,61.0,0,24,11.0,0.0
8800,49.0,0,48,12.0,0.0
8801,61.0,0,48,11.0,0.0
8802,49.0,36,48,12.0,0.0
8803,61.0,0,48,11.0,0.0
8804,48.0,0,24,12.0,0.0
8805,60.0,0,24,11.0,0.0
8806,47.0,54,24,12.0,0.0
8807,59.0,0,24,11.0,0.0
8808,59.0,0,48,11.0,0.0
8809,47.0,0,48,12.0,0.0
8810,47.0,36,48,12.0,0.0
8811,59.0,0,48,11.0,0.0
8812,46.0,0,24,12.0,0.0
8813,58.0,0,24,11.0,0.0
8814,57.0,0,24,11.0,0.0
8815,45.0,0,24,12.0,0.0
8816,45.0,0,48,12.0,0.0
8817,57.0,0,48,11.0,0.0
8818,57.0,0,48,11.0,0.0
8819,45.0,0,48,12.0,0.0
8820,56.0,0,24,11.0,0.0
8821,44.0,30,24,12.0,0.0
8822,43.0,54,24,12.0,0.0
8823,55.0,0,24,11.0,0.0
8824,43.0,0,48,12.0,0.0
8825,55.0,0,48,11.0,0.0
8826,55.0,0,48,11.0,0.0
8827,43.0,0,48,12.0,0.0
8828,70.0,6,48,3.0,0.0
8829,58.0,0,48,3.0,0.0
8830,70.0,0,48,5.0,0.0
8831,58.0,0,48,5.0,0.0
8832,53.0,0,24,13.0,0.0
8833,58.0,0,24,11.0,0.0
8834,70.0,0,48,0.0,0.0
8835,82.0,0,48,1.0,0.0
8836,70.0,0,48,1.0,0.0
8837,46.0,0,48,4.0,0.0
8838,41.0,0,24,12.0,0.0
8839,53.0,0,24,11.0,0.0
8840,70.0,24,24,11.0,0.0
8841,58.0,0,48,4.0,0.0
8842,58.0,0,24,11.0,0.0
8843,51.0,0,24,13.0,0.0
8844,39.0,54,24,12.0,0.0
8845,51.0,0,24,11.0,0.0
8846,70.0,0,18,11.0,0.0
8847,63.0,0,48,6.0,0.0
8848,79.0,0,48,1.0,0.0
8849,67.0,0,108,5.0,0.0
8850,51.0,60,48,8.0,0.0
8851,51.0,0,48,6.0,0.0
8852,58.0,0,144,11.0,0.0
8853,51.0,0,48,13.0,0.0
8854,63.0,0,108,5.0,0.0
8855,70.0,0,48,0.0,0.0
8856,75.0,0,48,1.0,0.0
8857,58.0,0,48,4.0,0.0
8858,55.0,0,144,11.0,0.0
8859,51.0,24,144,11.0,0.0
8860,70.0,0,48,3.0,0.0
8861,58.0,0,48,3.0,0.0
8862,39.0,0,48,12.0,0.0
8863,46.0,0,48,4.0,0.0
8864,70.0,0,48,11.0,0.0
8865,63.0,0,48,3.0,0.0
8866,39.0,0,48,12.0,0.0
8867,75.0,0,48,3.0,0.0
8868,75.0,36,48,1.0,0.0
8869,51.0,0,48,4.0,0.0
8870,63.0,0,48,4.0,0.0
8871,79.0,0,48,1.0,0.0
8872,63.0,0,48,6.0,0.0
8873,51.0,0,48,6.0,0.0
8874,75.0,0,48,0.0,0.0
8875,75.0,0,48,11.0,0.0
8876,51.0,0,48,13.0,0.0
8877,63.0,0,156,5.0,0.0
8878,63.0,0,156,6.0,0.0
8879,51.0,16,156,6.0,0.0
8880,51.0,0,48,8.0,0.0
8881,75.0,0,48,1.0,0.0
8882,51.0,0,48,4.0,0.0
8883,79.0,0,48,1.0,0.0
8884,63.0,0,48,4.0,0.0
8885,75.0,0,48,0.0,0.0
8886,75.0,60,48,11.0,0.0
8887,63.0,0,48,3.0,0.0
8888,75.0,0,48,3.0,0.0
8889,51.0,0,48,13.0,0.0
8890,39.0,0,48,12.0,0.0
8891,67.0,0,156,5.0,0.0
8892,55.0,0,48,4.0,0.0
8893,79.0,0,48,0.0,0.0
8894,51.0,0,144,11.0,0.0
8895,55.0,24,144,11.0,0.0
8896,51.0,0,96,13.0,0.0
8897,39.0,0,96,12.0,0.0
8898,75.0,32,112,1.0,0.0
8899,79.0,0,48,3.0,0.0
8900,67.0,0,48,3.0,0.0
8901,67.0,0,48,4.0,0.0
8902,58.0,0,144,11.0,0.0
8903,79.0,48,48,11.0,0.0
8904,70.0,0,144,11.0,0.0
8905,79.0,0,112,1.0,0.0
8906,63.0,0,24,6.0,0.0
8907,63.0,0,48,5.0,0.0
8908,67.0,0,48,5.0,0.0
8909,79.0,0,48,1.0,0.0
8910,51.0,0,48,13.0,0.0
8911,75.0,0,48,1.0,0.0
8912,39.0,6,48,12.0,0.0
8913,51.0,0,48,8.0,0.0
8914,51.0,0,24,6.0,0.0
8915,51.0,0,24,4.0,0.0
8916,67.0,0,24,3.0,0.0
8917,79.0,0,24,3.0,0.0
8918,79.0,0,24,0.0,0.0
8919,55.0,0,24,4.0,0.0
8920,79.0,0,24,11.0,0.0
8921,67.0,0,24,0.0,0.0
8922,82.0,0,24,3.0,0.0
8923,82.0,0,24,0.0,0.0
8924,51.0,0,24,6.0,0.0
8925,70.0,0,24,3.0,0.0
8926,70.0,30,24,0.0,0.0
8927,58.0,0,24,4.0,0.0
8928,82.0,0,24,11.0,0.0
8929,55.0,0,24,4.0,0.0
8930,63.0,0,24,6.0,0.0
8931,63.0,0,48,6.0,0.0
8932,70.0,0,24,3.0,0.0
8933,58.0,0,24,3.0,0.0
8934,75.0,0,48,1.0,0.0
8935,70.0,0,24,11.0,0.0
8936,58.0,0,24,11.0,0.0
8937,39.0,0,48,12.0,0.0
8938,51.0,0,48,6.0,0.0
8939,55.0,0,24,11.0,0.0
8940,63.0,0,48,5.0,0.0
8941,82.0,0,24,11.0,0.0
8942,55.0,0,48,4.0,0.0
8943,51.0,0,48,13.0,0.0
8944,58.0,0,24,4.0,0.0
8945,51.0,0,48,8.0,0.0
8946,70.0,24,24,0.0,0.0
8947,67.0,0,48,5.0,0.0
8948,51.0,0,24,11.0,0.0
8949,82.0,0,24,0.0,0.0
8950,79.0,6,48,1.0,0.0
8951,55.0,0,24,11.0,0.0
8952,75.0,30,24,3.0,0.0
8953,63.0,0,24,4.0,0.0
8954,75.0,0,24,0.0,0.0
8955,70.0,0,24,11.0,0.0
8956,87.0,0,24,0.0,0.0
8957,87.0,0,24,11.0,0.0
8958,51.0,0,24,11.0,0.0
8959,58.0,0,24,11.0,0.0
8960,63.0,0,24,3.0,0.0
8961,58.0,0,24,11.0,0.0
8962,55.0,0,24,11.0,0.0
8963,67.0,0,216,5.0,0.0
8964,63.0,48,216,5.0,0.0
8965,63.0,0,216,4.0,0.0
8966,39.0,0,216,12.0,0.0
8967,79.0,0,216,1.0,0.0
8968,63.0,0,216,3.0,0.0
8969,75.0,0,216,3.0,0.0
8970,55.0,0,216,4.0,0.0
8971,70.0,30,24,11.0,0.0
8972,75.0,0,216,1.0,0.0
8973,51.0,0,24,11.0,0.0
8974,63.0,0,216,6.0,0.0
8975,75.0,0,216,0.0,0.0
8976,87.0,0,216,0.0,0.0
8977,51.0,0,216,6.0,0.0
8978,51.0,0,216,13.0,0.0
8979,87.0,0,216,11.0,0.0
8980,51.0,0,24,8.0,0.0
8981,55.0,30,24,11.0,0.0
8982,51.0,0,24,8.0,0.0
8983,58.0,0,24,11.0,0.0
8984,70.0,0,24,11.0,0.0
8985,51.0,0,24,11.0,0.0
8986,55.0,0,24,11.0,0.0
8987,51.0,0,24,8.0,0.0
8988,51.0,0,24,11.0,0.0
8989,70.0,0,24,11.0,0.0
8990,58.0,30,24,11.0,0.0
8991,51.0,0,24,8.0,0.0
8992,51.0,0,24,11.0,0.0
8993,55.0,0,24,11.0,0.0
8994,70.0,102,24,11.0,0.0
8995,58.0,0,24,11.0,0.0
8996,58.0,0,144,11.0,0.0
8997,70.0,0,144,11.0,0.0
8998,55.0,0,144,11.0,0.0
8999,51.0,0,144,11.0,0.0
9000,51.0,0,96,8.0,0.0
9001,79.0,0,48,1.0,0.0
9002,51.0,0,48,4.0,0.0
9003,67.0,0,48,5.0,0.0
9004,75.0,0,48,1.0,0.0
9005,87.0,24,24,0.0,0.0
9006,75.0,0,24,0.0,0.0
9007,87.0,0,24,11.0,0.0
9008,51.0,6,48,13.0,0.0
9009,63.0,0,48,5.0,0.0
9010,63.0,0,24,4.0,0.0
9011,75.0,0,24,3.0,0.0
9012,51.0,0,48,6.0,0.0
9013,63.0,0,48,6.0,0.0
9014,51.0,0,48,8.0,0.0
9015,63.0,0,24,3.0,0.0
9016,51.0,0,48,12.0,0.0
9017,79.0,54,24,0.0,0.0
9018,91.0,0,24,0.0,0.0
9019,67.0,0,24,3.0,0.0
9020,79.0,0,24,3.0,0.0
9021,91.0,0,24,11.0,0.0
9022,67.0,0,24,4.0,0.0
9023,77.0,0,48,0.0,0.0
9024,89.0,0,48,0.0,0.0
9025,89.0,0,48,11.0,0.0
9026,58.0,0,48,6.0,0.0
9027,77.0,0,48,3.0,0.0
9028,80.0,0,48,1.0,0.0
9029,50.0,48,48,13.0,0.0
9030,46.0,0,48,6.0,0.0
9031,65.0,0,48,3.0,0.0
9032,50.0,0,48,12.0,0.0
9033,46.0,0,48,8.0,0.0
9034,58.0,48,96,5.0,0.0
9035,65.0,0,96,5.0,0.0
9036,53.0,0,144,11.0,0.0
9037,56.0,24,144,11.0,0.0
9038,77.0,0,48,1.0,0.0
9039,68.0,0,144,11.0,0.0
9040,58.0,0,144,11.0,0.0
9041,65.0,0,48,4.0,0.0
9042,50.0,0,48,4.0,0.0
9043,86.0,0,24,11.0,0.0
9044,46.0,0,48,13.0,0.0
9045,46.0,0,48,4.0,0.0
9046,58.0,0,48,6.0,0.0
9047,46.0,0,48,6.0,0.0
9048,62.0,0,24,4.0,0.0
9049,65.0,0,48,5.0,0.0
9050,58.0,6,48,5.0,0.0
9051,74.0,0,24,3.0,0.0
9052,46.0,0,48,8.0,0.0
9053,86.0,0,24,0.0,0.0
9054,46.0,0,48,12.0,0.0
9055,62.0,0,24,3.0,0.0
9056,77.0,0,48,1.0,0.0
9057,74.0,0,24,0.0,0.0
9058,80.0,0,48,1.0,0.0
9059,89.0,0,24,0.0,0.0
9060,77.0,0,24,3.0,0.0
9061,65.0,54,24,3.0,0.0
9062,89.0,0,24,11.0,0.0
9063,77.0,0,24,0.0,0.0
9064,65.0,0,24,4.0,0.0
9065,63.0,0,48,3.0,0.0
9066,79.0,0,48,1.0,0.0
9067,75.0,0,48,3.0,0.0
9068,51.0,0,144,11.0,0.0
9069,55.0,0,144,11.0,0.0
9070,75.0,0,48,1.0,0.0
9071,58.0,0,144,11.0,0.0
9072,67.0,24,144,11.0,0.0
9073,87.0,0,48,0.0,0.0
9074,63.0,0,48,6.0,0.0
9075,87.0,0,48,11.0,0.0
9076,55.0,48,96,5.0,0.0
9077,63.0,0,96,5.0,0.0
9078,51.0,0,48,6.0,0.0
9079,51.0,0,48,12.0,0.0
9080,63.0,0,48,4.0,0.0
9081,51.0,0,48,13.0,0.0
9082,51.0,0,48,8.0,0.0
9083,75.0,48,48,0.0,0.0
9084,51.0,0,48,4.0,0.0
9085,70.0,0,48,0.0,0.0
9086,55.0,0,48,4.0,0.0
9087,55.0,0,48,12.0,0.0
9088,51.0,0,48,6.0,0.0
9089,82.0,0,48,11.0,0.0
9090,58.0,0,48,4.0,0.0
9091,63.0,0,48,6.0,0.0
9092,82.0,0,48,0.0,0.0
9093,63.0,0,48,5.0,0.0
9094,67.0,0,48,5.0,0.0
9095,58.0,0,48,3.0,0.0
9096,55.0,24,48,13.0,0.0
9097,70.0,0,48,3.0,0.0
9098,51.0,0,48,8.0,0.0
9099,75.0,0,48,1.0,0.0
9100,79.0,0,48,1.0,0.0
9101,58.0,0,48,12.0,0.0
9102,62.0,0,48,3.0,0.0
9103,70.0,0,12,3.0,0.0
9104,46.0,0,12,8.0,0.0
9105,82.0,0,12,0.0,0.0
9106,46.0,0,144,6.0,0.0
9107,77.0,0,144,1.0,0.0
9108,58.0,9,48,13.0,0.0
9109,65.0,0,144,5.0,0.0
9110,58.0,0,144,5.0,0.0
9111,58.0,0,144,6.0,0.0
9112,74.0,0,144,1.0,0.0
9113,65.0,24,144,11.0,0.0
9114,50.0,0,144,11.0,0.0
9115,53.0,0,144,11.0,0.0
9116,58.0,0,144,11.0,0.0
9117,82.0,0,12,11.0,0.0
9118,70.0,0,12,0.0,0.0
9119,58.0,15,12,4.0,0.0
9120,46.0,15,12,8.0,0.0
9121,60.0,0,12,4.0,0.0
9122,84.0,0,12,0.0,0.0
9123,72.0,0,12,0.0,0.0
9124,84.0,0,12,11.0,0.0
9125,72.0,0,12,3.0,0.0
9126,46.0,0,12,8.0,0.0
9127,82.0,0,12,11.0,0.0
9128,70.0,0,12,3.0,0.0
9129,82.0,0,12,0.0,0.0
9130,70.0,0,12,0.0,0.0
9131,58.0,6,12,4.0,0.0
9132,72.0,0,12,3.0,0.0
9133,72.0,0,12,0.0,0.0
9134,84.0,0,12,0.0,0.0
9135,46.0,0,12,8.0,0.0
9136,60.0,15,12,4.0,0.0
9137,84.0,0,12,11.0,0.0
9138,82.0,0,12,11.0,0.0
9139,46.0,0,48,13.0,0.0
9140,70.0,0,12,0.0,0.0
9141,70.0,0,12,3.0,0.0
9142,46.0,0,48,12.0,0.0
9143,46.0,0,12,8.0,0.0
9144,82.0,0,12,0.0,0.0
9145,65.0,0,48,3.0,0.0
9146,58.0,15,12,4.0,0.0
9147,46.0,9,48,4.0,0.0
9148,72.0,0,12,0.0,0.0
9149,84.0,0,12,0.0,0.0
9150,72.0,0,12,3.0,0.0
9151,84.0,0,12,11.0,0.0
9152,46.0,15,12,8.0,0.0
9153,60.0,0,12,4.0,0.0
9154,70.0,0,12,3.0,0.0
9155,82.0,0,12,11.0,0.0
9156,82.0,0,12,0.0,0.0
9157,70.0,0,12,0.0,0.0
9158,46.0,6,12,8.0,0.0
9159,58.0,0,12,4.0,0.0
9160,46.0,0,12,8.0,0.0
9161,60.0,0,12,4.0,0.0
9162,84.0,0,12,11.0,0.0
9163,84.0,0,12,0.0,0.0
9164,72.0,0,12,0.0,0.0
9165,72.0,27,12,3.0,0.0
9166,82.0,0,24,0.0,0.0
9167,46.0,0,48,13.0,0.0
9168,70.0,0,24,0.0,0.0
9169,46.0,0,48,4.0,0.0
9170,58.0,0,24,4.0,0.0
9171,70.0,0,24,3.0,0.0
9172,62.0,6,48,3.0,0.0
9173,46.0,0,48,8.0,0.0
9174,82.0,0,24,11.0,0.0
9175,46.0,0,48,12.0,0.0
9176,81.0,0,24,11.0,0.0
9177,57.0,30,24,4.0,0.0
9178,69.0,0,24,0.0,0.0
9179,81.0,0,24,0.0,0.0
9180,69.0,0,24,3.0,0.0
9181,46.0,0,48,4.0,0.0
9182,58.0,0,48,4.0,0.0
9183,58.0,6,48,5.0,0.0
9184,46.0,0,48,13.0,0.0
9185,65.0,0,48,5.0,0.0
9186,70.0,0,48,3.0,0.0
9187,58.0,0,48,3.0,0.0
9188,50.0,0,24,11.0,0.0
9189,58.0,0,48,6.0,0.0
9190,46.0,0,48,6.0,0.0
9191,82.0,0,48,0.0,0.0
9192,70.0,0,48,0.0,0.0
9193,82.0,0,48,11.0,0.0
9194,53.0,0,24,11.0,0.0
9195,74.0,0,48,1.0,0.0
9196,77.0,0,48,1.0,0.0
9197,65.0,0,24,11.0,0.0
9198,46.0,0,48,12.0,0.0
9199,58.0,24,24,11.0,0.0
9200,58.0,0,24,11.0,0.0
9201,50.0,0,24,11.0,0.0
9202,53.0,0,24,11.0,0.0
9203,65.0,30,24,11.0,0.0
9204,46.0,0,24,13.0,0.0
9205,46.0,0,24,12.0,0.0
9206,58.0,0,24,11.0,0.0
9207,65.0,30,24,11.0,0.0
9208,56.0,0,24,13.0,0.0
9209,44.0,0,24,12.0,0.0
9210,58.0,30,24,11.0,0.0
9211,65.0,0,24,11.0,0.0
9212,56.0,0,24,11.0,0.0
9213,46.0,0,48,4.0,0.0
9214,67.0,0,24,11.0,0.0
9215,58.0,24,24,11.0,0.0
9216,58.0,6,48,5.0,0.0
9217,70.0,0,48,5.0,0.0
9218,43.0,0,24,12.0,0.0
9219,58.0,0,48,4.0,0.0
9220,55.0,0,24,11.0,0.0
9221,55.0,0,24,13.0,0.0
9222,70.0,0,48,11.0,0.0
9223,70.0,0,48,0.0,0.0
9224,79.0,0,48,1.0,0.0
9225,70.0,0,48,3.0,0.0
9226,58.0,0,48,3.0,0.0
9227,75.0,0,48,1.0,0.0
9228,53.0,0,24,11.0,0.0
9229,58.0,0,24,11.0,0.0
9230,67.0,0,24,11.0,0.0
9231,53.0,0,24,13.0,0.0
9232,41.0,54,24,12.0,0.0
9233,51.0,0,48,8.0,0.0
9234,39.0,0,48,12.0,0.0
9235,58.0,0,48,4.0,0.0
9236,46.0,0,48,4.0,0.0
9237,51.0,0,144,11.0,0.0
9238,55.0,24,144,11.0,0.0
9239,79.0,0,48,1.0,0.0
9240,75.0,0,48,1.0,0.0
9241,51.0,0,48,13.0,0.0
9242,70.0,0,48,11.0,0.0
9243,58.0,60,48,3.0,0.0
9244,70.0,0,48,0.0,0.0
9245,63.0,0,108,5.0,0.0
9246,51.0,0,108,6.0,0.0
9247,63.0,0,108,6.0,0.0
9248,58.0,0,144,11.0,0.0
9249,67.0,0,144,11.0,0.0
9250,67.0,36,108,5.0,0.0
9251,70.0,0,48,3.0,0.0
9252,75.0,0,48,0.0,0.0
9253,51.0,0,48,13.0,0.0
9254,51.0,0,48,4.0,0.0
9255,63.0,0,48,4.0,0.0
9256,39.0,0,48,12.0,0.0
9257,75.0,0,48,3.0,0.0
9258,75.0,0,48,11.0,0.0
9259,79.0,0,48,1.0,0.0
9260,75.0,0,48,1.0,0.0
9261,63.0,0,48,3.0,0.0
9262,79.0,0,48,1.0,0.0
9263,75.0,0,48,1.0,0.0
9264,63.0,0,48,4.0,0.0
9265,51.0,0,48,13.0,0.0
9266,51.0,0,48,4.0,0.0
9267,75.0,0,48,11.0,0.0
9268,75.0,0,48,0.0,0.0
9269,63.0,0,156,6.0,0.0
9270,67.0,0,156,5.0,0.0
9271,63.0,0,156,5.0,0.0
9272,51.0,60,48,8.0,0.0
9273,39.0,0,48,12.0,0.0
9274,63.0,0,48,3.0,0.0
9275,75.0,0,48,3.0,0.0
9276,51.0,16,156,6.0,0.0
9277,67.0,0,144,11.0,0.0
9278,79.0,0,48,0.0,0.0
9279,79.0,0,48,11.0,0.0
9280,39.0,0,96,12.0,0.0
9281,79.0,48,48,3.0,0.0
9282,67.0,0,48,3.0,0.0
9283,55.0,0,144,11.0,0.0
9284,51.0,0,144,11.0,0.0
9285,55.0,0,48,4.0,0.0
9286,67.0,0,48,4.0,0.0
9287,58.0,24,144,11.0,0.0
9288,51.0,0,96,13.0,0.0
9289,79.0,0,112,1.0,0.0
9290,75.0,32,112,1.0,0.0
9291,63.0,0,24,6.0,0.0
9292,51.0,0,24,6.0,0.0
9293,67.0,0,24,3.0,0.0
9294,63.0,0,48,5.0,0.0
9295,51.0,0,48,13.0,0.0
9296,79.0,0,24,3.0,0.0
9297,79.0,6,48,1.0,0.0
9298,67.0,0,48,5.0,0.0
9299,51.0,0,48,8.0,0.0
9300,79.0,0,24,11.0,0.0
9301,39.0,0,48,12.0,0.0
9302,55.0,0,24,4.0,0.0
9303,67.0,0,24,0.0,0.0
9304,79.0,0,24,0.0,0.0
9305,75.0,0,48,1.0,0.0
9306,51.0,0,24,4.0,0.0
9307,58.0,0,24,4.0,0.0
9308,55.0,0,24,4.0,0.0
9309,70.0,0,24,3.0,0.0
9310,82.0,0,24,3.0,0.0
9311,51.0,0,24,6.0,0.0
9312,63.0,0,24,6.0,0.0
9313,70.0,0,24,0.0,0.0
9314,82.0,0,24,0.0,0.0
9315,82.0,30,24,11.0,0.0
9316,82.0,0,24,0.0,0.0
9317,58.0,0,24,11.0,0.0
9318,67.0,0,24,11.0,0.0
9319,82.0,0,24,11.0,0.0
9320,58.0,0,24,3.0,0.0
9321,70.0,0,24,3.0,0.0
9322,63.0,0,48,6.0,0.0
9323,75.0,0,48,1.0,0.0
9324,39.0,0,48,12.0,0.0
9325,51.0,24,24,11.0,0.0
9326,63.0,6,48,5.0,0.0
9327,55.0,0,24,11.0,0.0
9328,51.0,0,48,6.0,0.0
9329,70.0,0,24,0.0,0.0
9330,51.0,0,48,8.0,0.0
9331,67.0,0,48,5.0,0.0
9332,79.0,0,48,1.0,0.0
9333,51.0,0,48,13.0,0.0
9334,58.0,0,24,4.0,0.0
9335,55.0,0,48,4.0,0.0
9336,67.0,0,24,11.0,0.0
9337,51.0,0,24,11.0,0.0
9338,55.0,0,24,11.0,0.0
9339,75.0,30,24,3.0,0.0
9340,58.0,0,24,11.0,0.0
9341,63.0,0,246,4.0,0.0
9342,75.0,0,24,0.0,0.0
9343,63.0,0,24,3.0,0.0
9344,87.0,0,24,11.0,0.0
9345,87.0,0,24,0.0,0.0
9346,87.0,0,216,0.0,0.0
9347,63.0,0,216,3.0,0.0
9348,55.0,0,24,11.0,0.0
9349,51.0,0,24,11.0,0.0
9350,75.0,0,216,1.0,0.0
9351,79.0,0,216,1.0,0.0
9352,55.0,48,216,4.0,0.0
9353,63.0,0,216,5.0,0.0
9354,67.0,0,216,5.0,0.0
9355,51.0,0,216,6.0,0.0
9356,75.0,0,216,0.0,0.0
9357,39.0,0,216,12.0,0.0
9358,51.0,30,24,8.0,0.0
9359,58.0,0,24,11.0,0.0
9360,51.0,0,216,13.0,0.0
9361,67.0,0,24,11.0,0.0
9362,63.0,0,216,6.0,0.0
9363,75.0,0,216,3.0,0.0
9364,87.0,0,216,11.0,0.0
9365,51.0,0,24,11.0,0.0
9366,58.0,0,24,11.0,0.0
9367,67.0,0,24,11.0,0.0
9368,51.0,30,24,8.0,0.0
9369,55.0,0,24,11.0,0.0
9370,51.0,0,24,11.0,0.0
9371,55.0,0,24,11.0,0.0
9372,67.0,30,24,11.0,0.0
9373,58.0,0,24,11.0,0.0
9374,51.0,0,24,8.0,0.0
9375,51.0,0,24,11.0,0.0
9376,67.0,0,24,11.0,0.0
9377,58.0,0,24,11.0,0.0
9378,55.0,102,24,11.0,0.0
9379,51.0,0,24,8.0,0.0
9380,51.0,0,144,11.0,0.0
9381,55.0,0,144,11.0,0.0
9382,51.0,0,96,8.0,0.0
9383,67.0,0,144,11.0,0.0
9384,58.0,0,144,11.0,0.0
9385,51.0,0,48,13.0,0.0
9386,51.0,0,48,8.0,0.0
9387,75.0,0,24,3.0,0.0
9388,63.0,0,24,3.0,0.0
9389,75.0,0,48,1.0,0.0
9390,63.0,24,24,4.0,0.0
9391,51.0,6,48,4.0,0.0
9392,67.0,0,48,5.0,0.0
9393,51.0,0,48,6.0,0.0
9394,51.0,0,48,12.0,0.0
9395,75.0,0,24,0.0,0.0
9396,63.0,0,48,6.0,0.0
9397,79.0,0,48,1.0,0.0
9398,87.0,0,24,0.0,0.0
9399,87.0,0,24,11.0,0.0
9400,63.0,0,48,5.0,0.0
9401,67.0,0,24,4.0,0.0
9402,67.0,0,24,3.0,0.0
9403,79.0,0,24,3.0,0.0
9404,79.0,54,24,0.0,0.0
9405,91.0,0,24,0.0,0.0
9406,91.0,0,24,11.0,0.0
9407,50.0,0,48,13.0,0.0
9408,65.0,0,96,5.0,0.0
9409,46.0,0,48,8.0,0.0
9410,65.0,0,48,4.0,0.0
9411,50.0,0,48,4.0,0.0
9412,89.0,0,48,11.0,0.0
9413,58.0,48,96,5.0,0.0
9414,58.0,24,144,11.0,0.0
9415,65.0,0,48,3.0,0.0
9416,68.0,0,144,11.0,0.0
9417,58.0,0,48,6.0,0.0
9418,77.0,0,48,3.0,0.0
9419,46.0,48,48,6.0,0.0
9420,53.0,0,96,11.0,0.0
9421,50.0,0,48,12.0,0.0
9422,80.0,0,48,1.0,0.0
9423,77.0,0,48,1.0,0.0
9424,89.0,0,48,0.0,0.0
9425,77.0,0,48,0.0,0.0
9426,50.0,0,96,11.0,0.0
9427,46.0,0,48,8.0,0.0
9428,46.0,0,48,6.0,0.0
9429,86.0,0,24,11.0,0.0
9430,74.0,0,24,0.0,0.0
9431,86.0,0,24,0.0,0.0
9432,46.0,0,48,4.0,0.0
9433,46.0,0,48,12.0,0.0
9434,56.0,0,24,11.0,0.0
9435,46.0,6,48,13.0,0.0
9436,58.0,0,48,6.0,0.0
9437,62.0,0,24,4.0,0.0
9438,53.0,0,24,11.0,0.0
9439,58.0,0,48,5.0,0.0
9440,65.0,0,48,5.0,0.0
9441,80.0,0,48,1.0,0.0
9442,62.0,0,24,3.0,0.0
9443,74.0,0,24,3.0,0.0
9444,77.0,0,48,1.0,0.0
9445,53.0,0,24,11.0,0.0
9446,89.0,54,24,11.0,0.0
9447,77.0,0,24,3.0,0.0
9448,65.0,0,24,3.0,0.0
9449,56.0,0,24,11.0,0.0
9450,89.0,0,24,0.0,0.0
9451,77.0,0,24,0.0,0.0
9452,65.0,0,24,4.0,0.0
9453,63.0,0,48,6.0,0.0
9454,87.0,0,48,0.0,0.0
9455,51.0,0,48,6.0,0.0
9456,75.0,0,48,0.0,0.0
9457,67.0,24,144,11.0,0.0
9458,58.0,0,144,11.0,0.0
9459,55.0,0,144,11.0,0.0
9460,51.0,0,48,13.0,0.0
9461,51.0,0,144,11.0,0.0
9462,79.0,0,48,1.0,0.0
9463,63.0,0,96,5.0,0.0
9464,51.0,0,48,4.0,0.0
9465,63.0,0,48,4.0,0.0
9466,51.0,0,48,8.0,0.0
9467,51.0,0,48,12.0,0.0
9468,75.0,0,48,3.0,0.0
9469,63.0,0,48,3.0,0.0
9470,75.0,48,48,1.0,0.0
9471,87.0,0,48,11.0,0.0
9472,55.0,48,96,5.0,0.0
9473,82.0,0,48,11.0,0.0
9474,70.0,0,48,0.0,0.0
9475,82.0,0,48,0.0,0.0
9476,67.0,0,48,5.0,0.0
9477,63.0,0,48,6.0,0.0
9478,51.0,0,48,6.0,0.0
9479,63.0,0,48,5.0,0.0
9480,51.0,0,48,8.0,0.0
9481,70.0,0,48,3.0,0.0
9482,58.0,0,48,3.0,0.0
9483,55.0,0,48,13.0,0.0
9484,55.0,0,48,12.0,0.0
9485,75.0,0,48,1.0,0.0
9486,79.0,0,48,1.0,0.0
9487,58.0,0,48,4.0,0.0
9488,55.0,0,48,4.0,0.0
9489,53.0,0,144,11.0,0.0
9490,50.0,0,144,11.0,0.0
9491,70.0,0,12,0.0,0.0
9492,74.0,0,144,1.0,0.0
9493,58.0,6,48,12.0,0.0
9494,62.0,0,48,3.0,0.0
9495,82.0,12,12,0.0,0.0
9496,70.0,0,12,3.0,0.0
9497,46.0,3,24,8.0,0.0
9498,58.0,0,144,11.0,0.0
9499,77.0,0,144,1.0,0.0
9500,65.0,0,144,11.0,0.0
9501,82.0,0,12,11.0,0.0
9502,58.0,24,144,5.0,0.0
9503,46.0,0,144,6.0,0.0
9504,58.0,0,144,6.0,0.0
9505,65.0,0,144,5.0,0.0
9506,58.0,0,48,13.0,0.0
9507,58.0,0,12,4.0,0.0
9508,60.0,0,12,4.0,0.0
9509,72.0,0,12,0.0,0.0
9510,84.0,15,12,0.0,0.0
9511,72.0,0,12,3.0,0.0
9512,84.0,0,12,11.0,0.0
9513,82.0,6,12,11.0,0.0
9514,46.0,3,24,8.0,0.0
9515,70.0,0,12,3.0,0.0
9516,82.0,0,12,0.0,0.0
9517,58.0,0,12,4.0,0.0
9518,70.0,0,12,0.0,0.0
9519,72.0,0,12,0.0,0.0
9520,84.0,15,12,0.0,0.0
9521,72.0,0,12,3.0,0.0
9522,84.0,0,12,11.0,0.0
9523,60.0,0,12,4.0,0.0
9524,70.0,0,12,3.0,0.0
9525,70.0,12,12,0.0,0.0
9526,46.0,3,24,8.0,0.0
9527,82.0,0,12,0.0,0.0
9528,65.0,0,48,3.0,0.0
9529,46.0,0,48,4.0,0.0
9530,58.0,0,12,4.0,0.0
9531,46.0,6,48,13.0,0.0
9532,46.0,0,48,12.0,0.0
9533,82.0,0,12,11.0,0.0
9534,84.0,0,12,11.0,0.0
9535,60.0,15,12,4.0,0.0
9536,72.0,0,12,0.0,0.0
9537,84.0,0,12,0.0,0.0
9538,72.0,0,12,3.0,0.0
9539,70.0,0,12,3.0,0.0
9540,82.0,0,12,0.0,0.0
9541,46.0,3,24,8.0,0.0
9542,58.0,0,12,4.0,0.0
9543,70.0,0,12,0.0,0.0
9544,82.0,6,12,11.0,0.0
9545,60.0,0,12,4.0,0.0
9546,72.0,0,12,0.0,0.0
9547,84.0,27,12,0.0,0.0
9548,72.0,0,12,3.0,0.0
9549,84.0,0,12,11.0,0.0
9550,46.0,0,24,8.0,0.0
9551,46.0,0,48,4.0,0.0
9552,58.0,0,24,4.0,0.0
9553,46.0,0,48,12.0,0.0
9554,62.0,6,48,3.0,0.0
9555,82.0,0,24,0.0,0.0
9556,70.0,0,24,0.0,0.0
9557,70.0,0,24,3.0,0.0
9558,82.0,0,24,11.0,0.0
9559,46.0,0,48,13.0,0.0
9560,69.0,0,24,3.0,0.0
9561,69.0,0,24,0.0,0.0
9562,81.0,0,24,0.0,0.0
9563,81.0,0,24,11.0,0.0
9564,46.0,30,24,8.0,0.0
9565,57.0,0,24,4.0,0.0
9566,46.0,0,48,13.0,0.0
9567,70.0,0,48,3.0,0.0
9568,58.0,0,48,4.0,0.0
9569,46.0,0,48,4.0,0.0
9570,58.0,0,48,3.0,0.0
9571,74.0,0,48,1.0,0.0
9572,46.0,12,96,6.0,0.0
9573,65.0,0,96,5.0,0.0
9574,58.0,0,96,5.0,0.0
9575,46.0,0,48,12.0,0.0
9576,50.0,24,24,11.0,0.0
9577,53.0,0,24,11.0,0.0
9578,77.0,0,48,1.0,0.0
9579,58.0,0,24,11.0,0.0
9580,82.0,0,48,11.0,0.0
9581,58.0,0,96,6.0,0.0
9582,70.0,0,48,0.0,0.0
9583,82.0,6,48,0.0,0.0
9584,65.0,0,24,11.0,0.0
9585,46.0,0,96,8.0,0.0
9586,53.0,0,24,11.0,0.0
9587,50.0,0,24,11.0,0.0
9588,65.0,0,24,11.0,0.0
9589,58.0,30,24,11.0,0.0
9590,46.0,6,48,4.0,0.0
9591,62.0,12,24,11.0,0.0
9592,46.0,0,48,13.0,0.0
9593,65.0,0,24,11.0,0.0
9594,46.0,0,48,12.0,0.0
9595,65.0,0,24,11.0,0.0
9596,62.0,30,24,11.0,0.0
9597,70.0,0,696,1.0,0.0
9598,64.0,0,24,11.0,0.0
9599,82.0,0,24,3.0,0.0
9600,82.0,0,696,1.0,0.0
9601,46.0,0,48,13.0,0.0
9602,70.0,0,24,3.0,0.0
9603,82.0,24,24,11.0,0.0
9604,61.0,0,24,11.0,0.0
9605,46.0,6,48,12.0,0.0
9606,46.0,0,48,4.0,0.0
9607,64.0,0,24,11.0,0.0
9608,61.0,0,24,11.0,0.0
9609,69.0,30,24,3.0,0.0
9610,81.0,0,24,3.0,0.0
9611,80.0,0,24,11.0,0.0
9612,58.0,0,96,6.0,0.0
9613,46.0,0,96,5.0,0.0
9614,46.0,0,96,4.0,0.0
9615,60.0,0,24,11.0,0.0
9616,81.0,0,48,3.0,0.0
9617,46.0,0,96,12.0,0.0
9618,46.0,0,96,6.0,0.0
9619,55.0,0,96,5.0,0.0
9620,81.0,0,48,11.0,0.0
9621,63.0,24,24,11.0,0.0
9622,46.0,18,96,13.0,0.0
9623,69.0,6,48,3.0,0.0
9624,46.0,0,96,8.0,0.0
9625,63.0,0,24,11.0,0.0
9626,60.0,30,24,11.0,0.0
9627,63.0,12,24,11.0,0.0
9628,60.0,0,24,11.0,0.0
9629,63.0,0,24,11.0,0.0
9630,60.0,30,24,11.0,0.0
9631,59.0,30,24,11.0,0.0
9632,62.0,0,24,11.0,0.0
9633,80.0,0,24,11.0,0.0
9634,80.0,0,24,3.0,0.0
9635,68.0,0,24,3.0,0.0
9636,59.0,0,24,11.0,0.0
9637,79.0,0,24,11.0,0.0
9638,62.0,30,24,11.0,0.0
9639,67.0,0,24,3.0,0.0
9640,79.0,0,24,3.0,0.0
9641,79.0,0,48,11.0,0.0
9642,46.0,18,96,5.0,0.0
9643,46.0,0,96,8.0,0.0
9644,61.0,0,24,11.0,0.0
9645,46.0,0,96,12.0,0.0
9646,67.0,6,48,3.0,0.0
9647,55.0,0,96,5.0,0.0
9648,46.0,0,96,13.0,0.0
9649,46.0,0,96,6.0,0.0
9650,58.0,0,96,6.0,0.0
9651,58.0,24,24,11.0,0.0
9652,79.0,0,48,3.0,0.0
9653,46.0,0,96,4.0,0.0
9654,58.0,30,24,11.0,0.0
9655,61.0,0,24,11.0,0.0
9656,61.0,0,24,11.0,0.0
9657,58.0,12,24,11.0,0.0
9658,58.0,0,24,11.0,0.0
9659,61.0,30,24,11.0,0.0
9660,66.0,0,24,3.0,0.0
9661,66.0,0,24,4.0,0.0
9662,78.0,0,24,3.0,0.0
9663,78.0,0,24,0.0,0.0
9664,90.0,30,24,0.0,0.0
9665,78.0,0,24,11.0,0.0
9666,57.0,0,24,11.0,0.0
9667,60.0,0,24,11.0,0.0
9668,57.0,30,24,11.0,0.0
9669,89.0,0,24,0.0,0.0
9670,77.0,0,24,3.0,0.0
9671,60.0,0,24,11.0,0.0
9672,65.0,0,24,4.0,0.0
9673,77.0,0,24,0.0,0.0
9674,77.0,0,24,11.0,0.0
9675,65.0,0,24,3.0,0.0
9676,77.0,0,48,11.0,0.0
9677,65.0,0,48,4.0,0.0
9678,56.0,0,24,11.0,0.0
9679,46.0,0,96,4.0,0.0
9680,46.0,0,96,6.0,0.0
9681,58.0,0,96,6.0,0.0
9682,55.0,0,96,5.0,0.0
9683,46.0,0,96,13.0,0.0
9684,59.0,24,24,11.0,0.0
9685,77.0,0,48,0.0,0.0
9686,46.0,0,96,12.0,0.0
9687,65.0,0,48,3.0,0.0
9688,46.0,18,96,8.0,0.0
9689,89.0,6,48,0.0,0.0
9690,46.0,0,96,5.0,0.0
9691,77.0,0,48,3.0,0.0
9692,56.0,30,24,11.0,0.0
9693,59.0,0,24,11.0,0.0
9694,56.0,12,24,11.0,0.0
9695,59.0,0,24,11.0,0.0
9696,59.0,30,24,11.0,0.0
9697,56.0,0,24,11.0,0.0
9698,76.0,0,24,0.0,0.0
9699,64.0,0,24,4.0,0.0
9700,88.0,0,24,0.0,0.0
9701,76.0,0,24,11.0,0.0
9702,64.0,0,24,3.0,0.0
9703,58.0,30,24,11.0,0.0
9704,55.0,0,24,11.0,0.0
9705,76.0,0,24,3.0,0.0
9706,75.0,0,24,11.0,0.0
9707,75.0,0,24,0.0,0.0
9708,87.0,0,24,0.0,0.0
9709,63.0,0,24,4.0,0.0
9710,63.0,0,24,3.0,0.0
9711,75.0,0,24,3.0,0.0
9712,55.0,0,24,11.0,0.0
9713,58.0,30,24,11.0,0.0
9714,57.0,24,24,11.0,0.0
9715,75.0,0,48,3.0,0.0
9716,63.0,0,48,3.0,0.0
9717,54.0,0,24,11.0,0.0
9718,75.0,0,48,0.0,0.0
9719,87.0,0,48,0.0,0.0
9720,63.0,6,48,4.0,0.0
9721,46.0,0,96,4.0,0.0
9722,58.0,0,96,6.0,0.0
9723,46.0,0,96,6.0,0.0
9724,55.0,0,96,5.0,0.0
9725,46.0,0,96,8.0,0.0
9726,46.0,18,96,12.0,0.0
9727,46.0,0,96,13.0,0.0
9728,75.0,0,48,11.0,0.0
9729,46.0,0,96,5.0,0.0
9730,57.0,30,24,11.0,0.0
9731,54.0,0,24,11.0,0.0
9732,54.0,0,24,11.0,0.0
9733,57.0,12,24,11.0,0.0
9734,54.0,0,24,11.0,0.0
9735,57.0,30,24,11.0,0.0
9736,63.0,0,24,4.0,0.0
9737,53.0,24,24,11.0,0.0
9738,82.0,0,54,0.0,0.0
9739,56.0,0,24,11.0,0.0
9740,75.0,0,24,3.0,0.0
9741,80.0,0,48,1.0,0.0
9742,75.0,0,24,11.0,0.0
9743,77.0,6,48,1.0,0.0
9744,87.0,0,24,0.0,0.0
9745,63.0,0,24,3.0,0.0
9746,74.0,30,24,3.0,0.0
9747,62.0,0,24,3.0,0.0
9748,62.0,0,24,4.0,0.0
9749,56.0,0,24,11.0,0.0
9750,53.0,0,24,11.0,0.0
9751,74.0,0,24,11.0,0.0
9752,86.0,0,24,0.0,0.0
9753,56.0,30,24,11.0,0.0
9754,80.0,0,96,1.0,0.0
9755,58.0,0,96,6.0,0.0
9756,53.0,0,24,11.0,0.0
9757,46.0,0,96,6.0,0.0
9758,77.0,0,96,1.0,0.0
9759,46.0,0,96,4.0,0.0
9760,65.0,18,96,5.0,0.0
9761,68.0,0,96,5.0,0.0
9762,46.0,0,96,8.0,0.0
9763,86.0,0,96,0.0,0.0
9764,46.0,0,96,12.0,0.0
9765,62.0,0,96,4.0,0.0
9766,82.0,0,96,0.0,0.0
9767,74.0,0,96,11.0,0.0
9768,46.0,0,96,13.0,0.0
9769,62.0,0,96,3.0,0.0
9770,74.0,0,96,3.0,0.0
9771,58.0,30,24,11.0,0.0
9772,56.0,0,24,11.0,0.0
9773,53.0,12,24,11.0,0.0
9774,56.0,0,24,11.0,0.0
9775,56.0,30,24,11.0,0.0
9776,58.0,0,24,11.0,0.0
9777,62.0,0,48,3.0,0.0
9778,74.0,0,48,3.0,0.0
9779,56.0,0,24,11.0,0.0
9780,80.0,0,48,1.0,0.0
9781,46.0,0,48,4.0,0.0
9782,62.0,6,48,4.0,0.0
9783,77.0,0,48,1.0,0.0
9784,53.0,24,24,11.0,0.0
9785,46.0,0,48,12.0,0.0
9786,68.0,0,48,5.0,0.0
9787,65.0,0,48,5.0,0.0
9788,58.0,0,48,6.0,0.0
9789,46.0,0,48,6.0,0.0
9790,82.0,0,48,0.0,0.0
9791,46.0,0,48,13.0,0.0
9792,74.0,0,48,11.0,0.0
9793,46.0,0,48,8.0,0.0
9794,86.0,0,48,0.0,0.0
9795,58.0,0,24,11.0,0.0
9796,56.0,30,24,11.0,0.0
9797,62.0,0,72,4.0,0.0
9798,46.0,0,72,4.0,0.0
9799,68.0,0,72,5.0,0.0
9800,56.0,0,24,11.0,0.0
9801,46.0,0,72,8.0,0.0
9802,65.0,0,72,5.0,0.0
9803,46.0,0,72,13.0,0.0
9804,77.0,12,72,1.0,0.0
9805,74.0,0,72,11.0,0.0
9806,86.0,0,72,0.0,0.0
9807,82.0,0,72,0.0,0.0
9808,80.0,0,72,1.0,0.0
9809,62.0,0,72,3.0,0.0
9810,74.0,0,72,3.0,0.0
9811,46.0,0,72,12.0,0.0
9812,58.0,0,72,6.0,0.0
9813,46.0,0,72,6.0,0.0
9814,53.0,30,24,11.0,0.0
9815,56.0,0,24,11.0,0.0
9816,58.0,18,24,11.0,0.0
9817,53.0,30,24,11.0,0.0
9818,56.0,0,24,11.0,0.0
9819,63.0,0,24,5.0,0.0
9820,75.0,0,24,11.0,0.0
9821,67.0,0,24,5.0,0.0
9822,55.0,0,24,11.0,0.0
9823,82.0,0,24,0.0,0.0
9824,87.0,0,24,0.0,0.0
9825,75.0,0,24,1.0,0.0
9826,75.0,0,24,3.0,0.0
9827,63.0,0,24,3.0,0.0
9828,46.0,0,24,12.0,0.0
9829,51.0,0,24,11.0,0.0
9830,79.0,0,24,1.0,0.0
9831,63.0,0,24,4.0,0.0
9832,46.0,30,24,4.0,0.0
9833,46.0,0,24,13.0,0.0
9834,46.0,0,24,8.0,0.0
9835,58.0,0,24,6.0,0.0
9836,46.0,0,24,6.0,0.0
9837,65.0,0,48,4.0,0.0
9838,46.0,0,48,13.0,0.0
9839,77.0,0,48,1.0,0.0
9840,65.0,0,48,3.0,0.0
9841,77.0,0,48,3.0,0.0
9842,80.0,0,48,1.0,0.0
9843,46.0,0,48,12.0,0.0
9844,46.0,0,48,8.0,0.0
9845,50.0,0,24,11.0,0.0
9846,46.0,0,48,6.0,0.0
9847,65.0,0,48,5.0,0.0
9848,58.0,0,48,5.0,0.0
9849,58.0,0,48,6.0,0.0
9850,77.0,0,48,11.0,0.0
9851,56.0,24,24,11.0,0.0
9852,82.0,6,48,0.0,0.0
9853,89.0,0,48,0.0,0.0
9854,46.0,0,48,4.0,0.0
9855,58.0,30,24,11.0,0.0
9856,62.0,0,24,11.0,0.0
9857,89.0,0,48,0.0,0.0
9858,51.0,0,96,4.0,0.0
9859,51.0,0,96,8.0,0.0
9860,65.0,6,48,4.0,0.0
9861,77.0,0,48,3.0,0.0
9862,51.0,0,96,6.0,0.0
9863,51.0,0,96,12.0,0.0
9864,80.0,0,48,1.0,0.0
9865,77.0,0,48,1.0,0.0
9866,51.0,24,24,11.0,0.0
9867,55.0,0,24,11.0,0.0
9868,51.0,12,96,13.0,0.0
9869,55.0,0,96,6.0,0.0
9870,55.0,0,96,5.0,0.0
9871,63.0,0,96,5.0,0.0
9872,77.0,0,48,11.0,0.0
9873,65.0,0,48,3.0,0.0
9874,58.0,0,24,11.0,0.0
9875,55.0,30,24,11.0,0.0
9876,79.0,0,48,11.0,0.0
9877,51.0,0,24,11.0,0.0
9878,75.0,0,48,1.0,0.0
9879,67.0,6,48,3.0,0.0
9880,79.0,0,48,1.0,0.0
9881,91.0,0,48,0.0,0.0
9882,79.0,0,48,3.0,0.0
9883,55.0,12,24,11.0,0.0
9884,67.0,0,48,4.0,0.0
9885,55.0,0,24,11.0,0.0
9886,58.0,30,24,11.0,0.0
9887,55.0,0,48,5.0,0.0
9888,55.0,24,24,11.0,0.0
9889,75.0,0,48,11.0,0.0
9890,75.0,0,48,3.0,0.0
9891,51.0,0,48,13.0,0.0
9892,51.0,0,48,8.0,0.0
9893,63.0,0,48,4.0,0.0
9894,51.0,0,48,4.0,0.0
9895,87.0,0,48,0.0,0.0
9896,63.0,6,48,5.0,0.0
9897,63.0,0,48,3.0,0.0
9898,75.0,0,48,1.0,0.0
9899,51.0,0,24,11.0,0.0
9900,51.0,0,48,6.0,0.0
9901,55.0,0,48,6.0,0.0
9902,51.0,0,48,12.0,0.0
9903,79.0,0,48,1.0,0.0
9904,55.0,0,24,11.0,0.0
9905,58.0,30,24,11.0,0.0
9906,79.0,18,96,1.0,0.0
9907,55.0,0,96,6.0,0.0
9908,51.0,0,96,6.0,0.0
9909,55.0,0,96,5.0,0.0
9910,75.0,0,96,1.0,0.0
9911,51.0,24,24,11.0,0.0
9912,51.0,0,96,12.0,0.0
9913,87.0,0,96,0.0,0.0
9914,51.0,0,96,8.0,0.0
9915,63.0,0,96,5.0,0.0
9916,55.0,0,24,11.0,0.0
9917,63.0,0,96,4.0,0.0
9918,51.0,0,96,13.0,0.0
9919,75.0,0,96,3.0,0.0
9920,75.0,0,96,11.0,0.0
9921,63.0,6,48,3.0,0.0
9922,51.0,0,96,4.0,0.0
9923,55.0,30,24,11.0,0.0
9924,58.0,0,24,11.0,0.0
9925,55.0,12,24,11.0,0.0
9926,51.0,0,24,11.0,0.0
9927,55.0,30,24,11.0,0.0
9928,58.0,0,24,11.0,0.0
9929,58.0,0,48,6.0,0.0
9930,75.0,0,24,11.0,0.0
9931,46.0,6,48,6.0,0.0
9932,46.0,0,48,13.0,0.0
9933,65.0,0,48,5.0,0.0
9934,58.0,0,48,5.0,0.0
9935,87.0,24,24,0.0,0.0
9936,53.0,0,24,11.0,0.0
9937,63.0,0,24,3.0,0.0
9938,75.0,0,24,3.0,0.0
9939,46.0,0,48,12.0,0.0
9940,46.0,0,48,8.0,0.0
9941,56.0,0,24,11.0,0.0
9942,77.0,0,48,1.0,0.0
9943,46.0,0,48,4.0,0.0
9944,63.0,0,24,4.0,0.0
9945,80.0,0,48,1.0,0.0
9946,56.0,0,24,11.0,0.0
9947,86.0,0,24,0.0,0.0
9948,74.0,0,24,11.0,0.0
9949,58.0,0,24,11.0,0.0
9950,62.0,0,24,3.0,0.0
9951,62.0,30,24,4.0,0.0
9952,74.0,0,24,3.0,0.0
9953,74.0,0,96,11.0,0.0
9954,68.0,0,96,5.0,0.0
9955,56.0,30,24,11.0,0.0
9956,65.0,0,96,5.0,0.0
9957,62.0,0,96,4.0,0.0
9958,86.0,18,96,0.0,0.0
9959,62.0,0,96,3.0,0.0
9960,80.0,0,96,1.0,0.0
9961,53.0,0,24,11.0,0.0
9962,46.0,0,96,4.0,0.0
9963,46.0,0,96,13.0,0.0
9964,46.0,0,96,6.0,0.0
9965,58.0,0,96,6.0,0.0
9966,82.0,0,96,0.0,0.0
9967,46.0,0,96,8.0,0.0
9968,46.0,0,96,12.0,0.0
9969,77.0,0,96,1.0,0.0
9970,74.0,0,96,3.0,0.0
9971,56.0,0,24,11.0,0.0
9972,58.0,30,24,11.0,0.0
9973,56.0,0,24,11.0,0.0
9974,53.0,12,24,11.0,0.0
9975,58.0,30,24,11.0,0.0
9976,56.0,0,24,11.0,0.0
9977,46.0,0,48,8.0,0.0
9978,68.0,0,48,5.0,0.0
9979,65.0,0,48,5.0,0.0
9980,56.0,24,24,11.0,0.0
9981,46.0,0,48,13.0,0.0
9982,62.0,0,48,4.0,0.0
9983,74.0,6,48,3.0,0.0
9984,62.0,0,48,3.0,0.0
9985,46.0,0,48,4.0,0.0
9986,86.0,0,48,0.0,0.0
9987,74.0,0,48,11.0,0.0
9988,82.0,0,48,0.0,0.0
9989,77.0,0,48,1.0,0.0
9990,46.0,0,48,12.0,0.0
9991,80.0,0,48,1.0,0.0
9992,46.0,0,48,6.0,0.0
9993,58.0,0,48,6.0,0.0
9994,53.0,0,24,11.0,0.0
9995,58.0,0,24,11.0,0.0
9996,56.0,30,24,11.0,0.0
9997,82.0,0,72,0.0,0.0
9998,74.0,0,72,3.0,0.0
9999,62.0,0,72,3.0,0.0
10000,77.0,0,72,1.0,0.0
10001,65.0,0,72,5.0,0.0
10002,46.0,0,72,4.0,0.0
10003,62.0,0,72,4.0,0.0
10004,80.0,0,72,1.0,0.0
10005,86.0,12,72,0.0,0.0
10006,46.0,0,72,8.0,0.0
10007,68.0,0,72,5.0,0.0
10008,46.0,0,72,12.0,0.0
10009,74.0,0,72,11.0,0.0
10010,53.0,0,24,11.0,0.0
10011,46.0,0,72,13.0,0.0
10012,56.0,30,24,11.0,0.0
10013,58.0,0,72,6.0,0.0
10014,46.0,0,72,6.0,0.0
10015,56.0,18,24,11.0,0.0
10016,58.0,0,24,11.0,0.0
10017,53.0,0,24,11.0,0.0
10018,56.0,30,24,11.0,0.0
10019,63.0,0,24,3.0,0.0
10020,55.0,0,24,11.0,0.0
10021,75.0,0,24,11.0,0.0
10022,46.0,0,24,6.0,0.0
10023,58.0,0,24,6.0,0.0
10024,46.0,0,24,8.0,0.0
10025,46.0,0,24,4.0,0.0
10026,63.0,0,24,4.0,0.0
10027,51.0,30,24,11.0,0.0
10028,79.0,0,24,1.0,0.0
10029,75.0,0,24,3.0,0.0
10030,75.0,0,24,1.0,0.0
10031,82.0,0,24,0.0,0.0
10032,87.0,0,24,0.0,0.0
10033,46.0,0,24,12.0,0.0
10034,63.0,0,24,5.0,0.0
10035,67.0,0,24,5.0,0.0
10036,46.0,0,24,13.0,0.0
10037,77.0,0,48,11.0,0.0
10038,46.0,0,48,13.0,0.0
10039,46.0,0,48,8.0,0.0
10040,46.0,0,48,12.0,0.0
10041,46.0,0,48,6.0,0.0
10042,89.0,0,48,0.0,0.0
10043,58.0,0,48,6.0,0.0
10044,56.0,0,24,11.0,0.0
10045,46.0,0,48,4.0,0.0
10046,82.0,0,48,0.0,0.0
10047,65.0,0,48,4.0,0.0
10048,65.0,0,48,5.0,0.0
10049,77.0,0,48,3.0,0.0
10050,58.0,0,48,5.0,0.0
10051,50.0,24,24,11.0,0.0
10052,65.0,0,48,3.0,0.0
10053,77.0,6,48,1.0,0.0
10054,80.0,0,48,1.0,0.0
10055,62.0,0,24,11.0,0.0
10056,58.0,30,24,11.0,0.0
10057,79.0,0,96,1.0,0.0
10058,77.0,0,24,11.0,0.0
10059,75.0,0,96,1.0,0.0
10060,51.0,0,96,6.0,0.0
10061,89.0,0,24,0.0,0.0
10062,63.0,18,96,6.0,0.0
10063,55.0,0,96,5.0,0.0
10064,51.0,0,24,11.0,0.0
10065,51.0,18,276,12.0,0.0
10066,65.0,30,24,3.0,0.0
10067,77.0,0,24,3.0,0.0
10068,51.0,0,96,8.0,0.0
10069,63.0,0,96,5.0,0.0
10070,51.0,0,276,13.0,0.0
10071,65.0,0,24,4.0,0.0
10072,55.0,0,24,11.0,0.0
10073,58.0,30,24,11.0,0.0
10074,55.0,0,24,11.0,0.0
10075,67.0,0,24,3.0,0.0
10076,79.0,0,24,3.0,0.0
10077,67.0,0,24,4.0,0.0
10078,91.0,0,24,0.0,0.0
10079,79.0,0,24,11.0,0.0
10080,55.0,0,24,11.0,0.0
10081,51.0,12,24,11.0,0.0
10082,58.0,0,24,11.0,0.0
10083,55.0,30,24,11.0,0.0
10084,55.0,0,24,11.0,0.0
10085,63.0,6,48,1.0,0.0
10086,75.0,0,48,1.0,0.0
10087,63.0,0,48,3.0,0.0
10088,75.0,0,48,11.0,0.0
10089,75.0,0,48,3.0,0.0
10090,75.0,0,48,0.0,0.0
10091,87.0,0,48,0.0,0.0
10092,51.0,0,48,4.0,0.0
10093,51.0,24,24,11.0,0.0
10094,58.0,0,24,11.0,0.0
10095,55.0,30,24,11.0,0.0
10096,63.0,12,72,1.0,0.0
10097,75.0,0,72,1.0,0.0
10098,75.0,0,72,0.0,0.0
10099,55.0,30,24,11.0,0.0
10100,87.0,0,72,0.0,0.0
10101,75.0,0,72,11.0,0.0
10102,51.0,0,24,11.0,0.0
10103,75.0,0,72,3.0,0.0
10104,63.0,0,72,3.0,0.0
10105,51.0,0,72,4.0,0.0
10106,58.0,0,24,11.0,0.0
10107,55.0,18,24,11.0,0.0
10108,63.0,0,24,11.0,0.0
10109,58.0,12,24,11.0,0.0
10110,65.0,0,24,3.0,0.0
10111,53.0,0,24,4.0,0.0
10112,77.0,0,24,3.0,0.0
10113,58.0,0,24,11.0,0.0
10114,77.0,0,24,0.0,0.0
10115,89.0,0,24,0.0,0.0
10116,77.0,0,24,1.0,0.0
10117,65.0,30,24,1.0,0.0
10118,77.0,0,24,11.0,0.0
10119,55.0,0,24,11.0,0.0
10120,79.0,0,48,1.0,0.0
10121,67.0,0,48,3.0,0.0
10122,79.0,0,48,3.0,0.0
10123,67.0,0,48,1.0,0.0
10124,79.0,6,48,11.0,0.0
10125,39.0,0,48,12.0,0.0
10126,55.0,0,48,4.0,0.0
10127,39.0,0,48,4.0,0.0
10128,91.0,0,48,0.0,0.0
10129,79.0,0,48,0.0,0.0
10130,51.0,24,24,11.0,0.0
10131,55.0,0,24,11.0,0.0
10132,39.0,0,48,13.0,0.0
10133,55.0,0,24,11.0,0.0
10134,58.0,30,24,11.0,0.0
10135,46.0,0,96,8.0,0.0
10136,79.0,0,24,3.0,0.0
10137,55.0,0,24,4.0,0.0
10138,79.0,0,24,1.0,0.0
10139,53.0,0,24,11.0,0.0
10140,67.0,0,24,1.0,0.0
10141,91.0,0,24,0.0,0.0
10142,53.0,0,276,13.0,0.0
10143,79.0,0,24,0.0,0.0
10144,65.0,0,96,5.0,0.0
10145,46.0,0,96,6.0,0.0
10146,67.0,0,24,3.0,0.0
10147,53.0,0,276,12.0,0.0
10148,56.0,0,24,11.0,0.0
10149,58.0,18,96,6.0,0.0
10150,79.0,30,24,11.0,0.0
10151,68.0,0,24,3.0,0.0
10152,80.0,0,24,3.0,0.0
10153,58.0,0,24,11.0,0.0
10154,80.0,0,24,0.0,0.0
10155,80.0,0,24,11.0,0.0
10156,80.0,0,24,1.0,0.0
10157,68.0,0,24,1.0,0.0
10158,56.0,0,24,4.0,0.0
10159,56.0,30,24,11.0,0.0
10160,92.0,0,24,0.0,0.0
10161,56.0,12,24,11.0,0.0
10162,53.0,0,24,11.0,0.0
10163,56.0,0,24,11.0,0.0
10164,58.0,30,24,11.0,0.0
10165,53.0,0,48,4.0,0.0
10166,56.0,24,24,11.0,0.0
10167,77.0,0,48,0.0,0.0
10168,77.0,0,48,1.0,0.0
10169,77.0,0,48,3.0,0.0
10170,65.0,6,48,3.0,0.0
10171,77.0,0,48,11.0,0.0
10172,89.0,0,48,0.0,0.0
10173,65.0,0,48,1.0,0.0
10174,53.0,0,24,11.0,0.0
10175,58.0,30,24,11.0,0.0
10176,56.0,0,24,11.0,0.0
10177,53.0,30,24,11.0,0.0
10178,89.0,0,72,0.0,0.0
10179,56.0,0,24,11.0,0.0
10180,77.0,0,72,0.0,0.0
10181,77.0,0,72,11.0,0.0
10182,77.0,12,72,1.0,0.0
10183,65.0,0,72,1.0,0.0
10184,77.0,0,72,3.0,0.0
10185,65.0,0,72,3.0,0.0
10186,53.0,0,72,4.0,0.0
10187,58.0,0,24,11.0,0.0
10188,56.0,18,24,11.0,0.0
10189,62.0,0,24,11.0,0.0
10190,58.0,12,24,11.0,0.0
10191,79.0,0,24,11.0,0.0
10192,58.0,0,24,11.0,0.0
10193,56.0,0,24,11.0,0.0
10194,67.0,0,24,3.0,0.0
10195,79.0,0,24,0.0,0.0
10196,67.0,0,24,1.0,0.0
10197,79.0,0,24,1.0,0.0
10198,55.0,0,24,4.0,0.0
10199,91.0,30,24,0.0,0.0
10200,79.0,0,24,3.0,0.0
10201,68.0,0,48,1.0,0.0
10202,80.0,0,48,1.0,0.0
10203,53.0,0,24,11.0,0.0
10204,41.0,0,48,4.0,0.0
10205,68.0,0,48,3.0,0.0
10206,80.0,0,48,11.0,0.0
10207,56.0,24,24,11.0,0.0
10208,41.0,0,48,12.0,0.0
10209,56.0,0,48,4.0,0.0
10210,41.0,0,48,13.0,0.0
10211,80.0,0,48,0.0,0.0
10212,92.0,6,48,0.0,0.0
10213,80.0,0,48,3.0,0.0
10214,56.0,0,24,11.0,0.0
10215,58.0,30,24,11.0,0.0
10216,80.0,0,24,11.0,0.0
10217,68.0,0,24,3.0,0.0
10218,80.0,0,24,3.0,0.0
10219,55.0,0,276,13.0,0.0
10220,68.0,24,24,1.0,0.0
10221,82.0,6,48,0.0,0.0
10222,56.0,0,24,4.0,0.0
10223,58.0,0,24,11.0,0.0
10224,51.0,0,96,8.0,0.0
10225,63.0,0,96,6.0,0.0
10226,51.0,18,96,6.0,0.0
10227,70.0,0,48,0.0,0.0
10228,51.0,0,24,11.0,0.0
10229,80.0,0,24,1.0,0.0
10230,67.0,0,96,5.0,0.0
10231,55.0,18,276,12.0,0.0
10232,82.0,0,24,11.0,0.0
10233,58.0,0,24,4.0,0.0
10234,82.0,0,24,1.0,0.0
10235,70.0,30,24,1.0,0.0
10236,58.0,0,24,11.0,0.0
10237,63.0,0,24,11.0,0.0
10238,82.0,0,24,3.0,0.0
10239,70.0,0,24,3.0,0.0
10240,58.0,0,24,11.0,0.0
10241,51.0,12,24,11.0,0.0
10242,58.0,0,24,11.0,0.0
10243,63.0,30,24,11.0,0.0
10244,55.0,0,48,4.0,0.0
10245,58.0,24,24,11.0,0.0
10246,79.0,0,48,1.0,0.0
10247,79.0,6,48,3.0,0.0
10248,67.0,0,48,3.0,0.0
10249,67.0,0,48,1.0,0.0
10250,79.0,0,48,11.0,0.0
10251,51.0,0,24,11.0,0.0
10252,58.0,0,24,11.0,0.0
10253,63.0,30,24,11.0,0.0
10254,79.0,0,72,1.0,0.0
10255,67.0,0,72,3.0,0.0
10256,67.0,12,72,1.0,0.0
10257,51.0,0,24,11.0,0.0
10258,79.0,0,72,3.0,0.0
10259,55.0,0,72,4.0,0.0
10260,79.0,0,72,11.0,0.0
10261,58.0,30,24,11.0,0.0
10262,63.0,18,24,11.0,0.0
10263,58.0,0,24,11.0,0.0
10264,63.0,12,24,11.0,0.0
10265,67.0,0,24,11.0,0.0
10266,63.0,0,24,11.0,0.0
10267,80.0,0,24,1.0,0.0
10268,58.0,0,24,11.0,0.0
10269,68.0,0,24,3.0,0.0
10270,80.0,0,24,3.0,0.0
10271,80.0,0,24,11.0,0.0
10272,68.0,30,24,1.0,0.0
10273,56.0,0,24,4.0,0.0
10274,82.0,0,48,11.0,0.0
10275,70.0,0,48,3.0,0.0
10276,82.0,0,48,3.0,0.0
10277,43.0,0,48,13.0,0.0
10278,51.0,0,24,11.0,0.0
10279,43.0,0,48,12.0,0.0
10280,82.0,0,48,1.0,0.0
10281,70.0,6,48,1.0,0.0
10282,58.0,0,48,4.0,0.0
10283,43.0,0,48,4.0,0.0
10284,58.0,24,24,11.0,0.0
10285,63.0,0,24,11.0,0.0
10286,58.0,30,24,11.0,0.0
10287,65.0,18,96,5.0,0.0
10288,84.0,0,72,3.0,0.0
10289,72.0,0,72,3.0,0.0
10290,60.0,0,24,11.0,0.0
10291,60.0,0,72,4.0,0.0
10292,51.0,0,96,6.0,0.0
10293,63.0,0,96,6.0,0.0
10294,63.0,0,96,5.0,0.0
10295,51.0,30,24,11.0,0.0
10296,44.0,0,72,13.0,0.0
10297,51.0,0,96,8.0,0.0
10298,84.0,0,72,11.0,0.0
10299,44.0,0,72,4.0,0.0
10300,84.0,12,72,1.0,0.0
10301,72.0,0,72,1.0,0.0
10302,44.0,0,72,12.0,0.0
10303,63.0,0,24,11.0,0.0
10304,60.0,18,24,11.0,0.0
10305,51.0,0,24,11.0,0.0
10306,60.0,12,24,11.0,0.0
10307,60.0,0,24,11.0,0.0
10308,82.0,0,24,11.0,0.0
10309,56.0,0,24,4.0,0.0
10310,82.0,0,24,1.0,0.0
10311,63.0,30,24,11.0,0.0
10312,82.0,0,24,3.0,0.0
10313,70.0,0,24,3.0,0.0
10314,56.0,0,24,13.0,0.0
10315,72.0,0,24,1.0,0.0
10316,56.0,0,24,12.0,0.0
10317,58.0,0,24,4.0,0.0
10318,80.0,0,48,11.0,0.0
10319,80.0,0,48,1.0,0.0
10320,51.0,24,24,11.0,0.0
10321,56.0,0,48,12.0,0.0
10322,56.0,0,48,13.0,0.0
10323,80.0,0,48,3.0,0.0
10324,68.0,0,48,3.0,0.0
10325,72.0,0,48,1.0,0.0
10326,60.0,0,24,11.0,0.0
10327,56.0,0,48,4.0,0.0
10328,63.0,0,24,11.0,0.0
10329,60.0,30,24,11.0,0.0
10330,63.0,0,96,6.0,0.0
10331,56.0,0,72,13.0,0.0
10332,84.0,0,72,0.0,0.0
10333,91.0,0,72,0.0,0.0
10334,53.0,0,24,11.0,0.0
10335,67.0,0,72,3.0,0.0
10336,79.0,0,72,3.0,0.0
10337,51.0,0,96,6.0,0.0
10338,68.0,0,72,4.0,0.0
10339,63.0,18,96,5.0,0.0
10340,65.0,0,96,5.0,0.0
10341,60.0,30,24,11.0,0.0
10342,79.0,0,72,11.0,0.0
10343,51.0,0,96,8.0,0.0
10344,56.0,0,72,12.0,0.0
10345,79.0,12,72,1.0,0.0
10346,72.0,0,72,1.0,0.0
10347,56.0,0,72,4.0,0.0
10348,60.0,18,24,11.0,0.0
10349,63.0,0,24,11.0,0.0
10350,53.0,0,24,11.0,0.0
10351,60.0,12,24,11.0,0.0
10352,56.0,0,24,13.0,0.0
10353,60.0,0,24,11.0,0.0
10354,89.0,0,24,0.0,0.0
10355,56.0,30,24,4.0,0.0
10356,65.0,0,24,4.0,0.0
10357,63.0,0,24,11.0,0.0
10358,56.0,0,24,12.0,0.0
10359,84.0,0,24,0.0,0.0
10360,77.0,0,24,1.0,0.0
10361,77.0,0,24,11.0,0.0
10362,77.0,0,24,3.0,0.0
10363,72.0,0,24,1.0,0.0
10364,65.0,0,24,3.0,0.0
10365,57.0,0,48,13.0,0.0
10366,57.0,0,48,12.0,0.0
10367,87.0,0,48,0.0,0.0
10368,63.0,0,48,3.0,0.0
10369,75.0,6,48,3.0,0.0
10370,63.0,0,48,4.0,0.0
10371,53.0,24,24,11.0,0.0
10372,60.0,0,24,11.0,0.0
10373,75.0,0,48,1.0,0.0
10374,75.0,0,48,11.0,0.0
10375,72.0,0,48,1.0,0.0
10376,84.0,0,48,0.0,0.0
10377,55.0,0,48,4.0,0.0
10378,63.0,30,24,11.0,0.0
10379,60.0,0,24,11.0,0.0
10380,58.0,0,24,11.0,0.0
10381,58.0,0,72,5.0,0.0
10382,74.0,0,72,3.0,0.0
10383,58.0,0,72,4.0,0.0
10384,58.0,0,72,13.0,0.0
10385,86.0,0,72,0.0,0.0
10386,77.0,0,72,0.0,0.0
10387,58.0,0,72,6.0,0.0
10388,46.0,0,72,6.0,0.0
10389,62.0,12,72,4.0,0.0
10390,58.0,0,72,12.0,0.0
10391,62.0,30,24,11.0,0.0
10392,46.0,0,72,8.0,0.0
10393,74.0,0,72,1.0,0.0
10394,70.0,0,72,1.0,0.0
10395,74.0,0,72,11.0,0.0
10396,65.0,0,72,5.0,0.0
10397,62.0,0,72,3.0,0.0
10398,58.0,0,24,11.0,0.0
10399,53.0,18,24,11.0,0.0
10400,63.0,0,24,11.0,0.0
10401,58.0,30,24,11.0,0.0
10402,75.0,0,24,0.0,0.0
10403,75.0,0,24,1.0,0.0
10404,72.0,0,24,1.0,0.0
10405,72.0,0,24,11.0,0.0
10406,46.0,0,24,6.0,0.0
10407,60.0,0,24,11.0,0.0
10408,57.0,0,24,13.0,0.0
10409,84.0,0,24,0.0,0.0
10410,46.0,0,24,8.0,0.0
10411,58.0,0,24,6.0,0.0
10412,58.0,0,24,5.0,0.0
10413,72.0,0,24,3.0,0.0
10414,53.0,0,24,11.0,0.0
10415,57.0,0,24,4.0,0.0
10416,60.0,0,24,4.0,0.0
10417,60.0,0,24,3.0,0.0
10418,65.0,0,24,5.0,0.0
10419,57.0,30,24,12.0,0.0
10420,70.0,0,48,11.0,0.0
10421,62.0,24,24,11.0,0.0
10422,56.0,0,48,4.0,0.0
10423,58.0,6,48,4.0,0.0
10424,56.0,0,48,12.0,0.0
10425,65.0,0,48,5.0,0.0
10426,74.0,0,48,0.0,0.0
10427,74.0,0,48,1.0,0.0
10428,58.0,0,48,6.0,0.0
10429,65.0,0,24,11.0,0.0
10430,46.0,0,48,6.0,0.0
10431,58.0,0,48,5.0,0.0
10432,46.0,0,48,8.0,0.0
10433,70.0,0,48,3.0,0.0
10434,58.0,0,48,3.0,0.0
10435,56.0,0,48,13.0,0.0
10436,77.0,0,48,1.0,0.0
10437,82.0,0,48,0.0,0.0
10438,62.0,30,24,11.0,0.0
10439,58.0,0,24,11.0,0.0
10440,67.0,0,72,5.0,0.0
10441,67.0,30,24,11.0,0.0
10442,67.0,0,72,3.0,0.0
10443,79.0,0,72,3.0,0.0
10444,63.0,0,72,5.0,0.0
10445,46.0,0,72,6.0,0.0
10446,58.0,0,72,6.0,0.0
10447,63.0,0,24,11.0,0.0
10448,79.0,0,72,1.0,0.0
10449,46.0,0,72,8.0,0.0
10450,55.0,0,72,4.0,0.0
10451,91.0,0,72,0.0,0.0
10452,51.0,0,72,4.0,0.0
10453,55.0,12,72,13.0,0.0
10454,55.0,0,72,12.0,0.0
10455,75.0,0,72,1.0,0.0
10456,79.0,0,72,11.0,0.0
10457,87.0,0,72,0.0,0.0
10458,58.0,18,24,11.0,0.0
10459,63.0,0,24,11.0,0.0
10460,68.0,0,24,11.0,0.0
10461,56.0,30,24,11.0,0.0
10462,80.0,0,24,11.0,0.0
10463,80.0,0,24,1.0,0.0
10464,53.0,0,24,13.0,0.0
10465,58.0,0,24,6.0,0.0
10466,53.0,0,24,12.0,0.0
10467,63.0,0,24,5.0,0.0
10468,58.0,0,24,11.0,0.0
10469,65.0,0,24,11.0,0.0
10470,53.0,0,24,4.0,0.0
10471,56.0,0,24,4.0,0.0
10472,92.0,0,24,0.0,0.0
10473,89.0,0,24,0.0,0.0
10474,46.0,0,24,6.0,0.0
10475,67.0,30,24,5.0,0.0
10476,77.0,0,24,1.0,0.0
10477,68.0,0,24,3.0,0.0
10478,80.0,0,24,3.0,0.0
10479,46.0,0,24,8.0,0.0
10480,58.0,0,48,4.0,0.0
10481,51.0,0,48,12.0,0.0
10482,70.0,24,24,11.0,0.0
10483,51.0,0,48,13.0,0.0
10484,51.0,0,48,8.0,0.0
10485,82.0,0,48,1.0,0.0
10486,55.0,0,24,11.0,0.0
10487,70.0,0,48,3.0,0.0
10488,91.0,0,48,0.0,0.0
10489,55.0,0,48,4.0,0.0
10490,79.0,0,48,1.0,0.0
10491,79.0,0,48,3.0,0.0
10492,82.0,0,48,11.0,0.0
10493,67.0,0,48,5.0,0.0
10494,63.0,0,48,5.0,0.0
10495,63.0,6,48,6.0,0.0
10496,51.0,0,48,6.0,0.0
10497,58.0,102,24,11.0,0.0
10498,67.0,0,24,11.0,0.0
10499,51.0,0,96,8.0,0.0
10500,56.0,0,96,4.0,0.0
10501,60.0,0,96,4.0,0.0
10502,84.0,0,96,11.0,0.0
10503,84.0,0,96,0.0,0.0
10504,92.0,0,96,0.0,0.0
10505,63.0,0,96,5.0,0.0
10506,65.0,0,96,5.0,0.0
10507,56.0,0,96,13.0,0.0
10508,84.0,0,96,3.0,0.0
10509,51.0,0,96,6.0,0.0
10510,56.0,0,96,12.0,0.0
10511,63.0,0,96,6.0,0.0
10512,80.0,0,96,1.0,0.0
10513,84.0,0,96,1.0,0.0
10514,68.0,0,96,11.0,0.0
10515,72.0,180,96,11.0,0.0
10516,72.0,0,96,3.0,0.0
10517,58.0,0,96,4.0,0.0
10518,46.0,0,96,4.0,0.0
10519,46.0,0,96,8.0,0.0
10520,74.0,0,96,11.0,0.0
10521,89.0,0,96,0.0,0.0
10522,86.0,0,96,0.0,0.0
10523,65.0,0,96,11.0,0.0
10524,46.0,0,96,12.0,0.0
10525,74.0,0,96,3.0,0.0
10526,46.0,0,96,6.0,0.0
10527,46.0,0,96,13.0,0.0
10528,58.0,0,96,6.0,0.0
10529,58.0,0,96,5.0,0.0
10530,58.0,0,96,11.0,0.0
10531,65.0,0,96,5.0,0.0
10532,86.0,0,96,11.0,0.0
10533,65.0,0,96,3.0,0.0
10534,77.0,0,96,11.0,0.0
10535,70.0,0,96,11.0,0.0
10536,80.0,0,96,1.0,0.0
10537,77.0,156,96,1.0,0.0
10538,75.0,0,96,1.0,0.0
10539,79.0,0,96,1.0,0.0
10540,51.0,24,72,5.0,0.0
10541,51.0,0,96,4.0,0.0
10542,51.0,0,96,11.0,0.0
10543,51.0,0,96,13.0,0.0
10544,63.0,0,72,5.0,0.0
10545,51.0,0,96,8.0,0.0
10546,39.0,18,96,4.0,0.0
10547,51.0,0,96,6.0,0.0
10548,75.0,0,96,3.0,0.0
10549,67.0,0,96,3.0,0.0
10550,87.0,0,96,0.0,0.0
10551,58.0,0,96,11.0,0.0
10552,75.0,0,96,11.0,0.0
10553,67.0,0,96,11.0,0.0
10554,87.0,0,96,11.0,0.0
10555,79.0,0,96,11.0,0.0
10556,63.0,0,96,6.0,0.0
10557,51.0,0,96,12.0,0.0
10558,70.0,0,96,11.0,0.0
10559,51.0,54,24,5.0,0.0
10560,63.0,0,24,5.0,0.0
10561,51.0,60,48,5.0,0.0
10562,63.0,0,48,5.0,0.0
10563,51.0,60,48,5.0,0.0
10564,63.0,0,48,5.0,0.0
10565,51.0,0,48,5.0,0.0
10566,63.0,60,48,5.0,0.0
10567,63.0,66,48,5.0,0.0
10568,51.0,0,48,5.0,0.0
10569,63.0,6,288,5.0,0.0
10570,87.0,30,144,11.0,0.0
10571,51.0,0,288,5.0,0.0
10572,51.0,18,96,8.0,0.0
10573,60.0,0,144,12.0,0.0
10574,75.0,0,144,1.0,0.0
10575,87.0,0,144,0.0,0.0
10576,60.0,0,144,13.0,0.0
10577,75.0,0,144,3.0,0.0
10578,60.0,0,144,4.0,0.0
10579,63.0,0,144,4.0,0.0
10580,51.0,0,24,11.0,0.0
10581,63.0,30,24,11.0,0.0
10582,53.0,12,24,11.0,0.0
10583,65.0,0,24,11.0,0.0
10584,67.0,0,24,11.0,0.0
10585,55.0,30,24,11.0,0.0
10586,68.0,0,24,11.0,0.0
10587,56.0,0,24,11.0,0.0
10588,70.0,0,24,11.0,0.0
10589,58.0,30,24,11.0,0.0
10590,56.0,0,144,13.0,0.0
10591,51.0,0,24,8.0,0.0
10592,56.0,0,144,12.0,0.0
10593,72.0,0,24,11.0,0.0
10594,60.0,30,24,11.0,0.0
10595,75.0,0,144,1.0,0.0
10596,72.0,0,144,3.0,0.0
10597,84.0,0,24,11.0,0.0
10598,60.0,0,144,4.0,0.0
10599,84.0,0,144,1.0,0.0
10600,56.0,0,144,4.0,0.0
10601,84.0,0,144,0.0,0.0
10602,84.0,0,144,3.0,0.0
10603,59.0,30,24,11.0,0.0
10604,83.0,0,24,11.0,0.0
10605,51.0,0,24,8.0,0.0
10606,71.0,0,24,11.0,0.0
10607,84.0,0,24,11.0,0.0
10608,51.0,0,24,8.0,0.0
10609,72.0,0,24,11.0,0.0
10610,60.0,24,24,11.0,0.0
10611,86.0,0,24,11.0,0.0
10612,74.0,0,24,11.0,0.0
10613,62.0,0,24,11.0,0.0
10614,51.0,30,24,8.0,0.0
10615,75.0,0,24,11.0,0.0
10616,63.0,30,24,11.0,0.0
10617,87.0,0,24,11.0,0.0
10618,51.0,0,24,8.0,0.0
10619,84.0,0,24,11.0,0.0
10620,51.0,0,24,8.0,0.0
10621,60.0,0,24,11.0,0.0
10622,72.0,78,24,11.0,0.0
10623,46.0,18,96,8.0,0.0
10624,82.0,0,96,1.0,0.0
10625,75.0,0,96,1.0,0.0
10626,58.0,0,96,4.0,0.0
10627,70.0,0,96,11.0,0.0
10628,58.0,0,72,6.0,0.0
10629,55.0,0,96,12.0,0.0
10630,58.0,0,96,11.0,0.0
10631,87.0,0,96,0.0,0.0
10632,82.0,0,96,0.0,0.0
10633,55.0,0,96,13.0,0.0
10634,82.0,0,96,11.0,0.0
10635,55.0,0,96,4.0,0.0
10636,58.0,0,72,5.0,0.0
10637,70.0,0,96,3.0,0.0
10638,46.0,24,72,6.0,0.0
10639,82.0,0,96,3.0,0.0
10640,46.0,0,72,5.0,0.0
10641,46.0,54,24,5.0,0.0
10642,46.0,0,24,6.0,0.0
10643,58.0,0,24,6.0,0.0
10644,58.0,0,24,5.0,0.0
10645,46.0,60,48,6.0,0.0
10646,58.0,0,48,6.0,0.0
10647,46.0,0,48,5.0,0.0
10648,58.0,0,48,5.0,0.0
10649,46.0,0,48,5.0,0.0
10650,58.0,0,48,5.0,0.0
10651,46.0,60,48,6.0,0.0
10652,58.0,0,48,6.0,0.0
10653,58.0,60,48,6.0,0.0
10654,46.0,0,48,6.0,0.0
10655,58.0,0,48,5.0,0.0
10656,46.0,0,48,5.0,0.0
10657,58.0,0,48,5.0,0.0
10658,46.0,0,48,5.0,0.0
10659,58.0,0,48,6.0,0.0
10660,46.0,36,48,6.0,0.0
10661,68.0,0,144,3.0,0.0
10662,46.0,0,288,5.0,0.0
10663,58.0,6,288,5.0,0.0
10664,92.0,0,144,0.0,0.0
10665,89.0,0,144,0.0,0.0
10666,58.0,30,144,12.0,0.0
10667,80.0,0,144,11.0,0.0
10668,46.0,18,96,8.0,0.0
10669,65.0,0,144,3.0,0.0
10670,56.0,30,24,11.0,0.0
10671,56.0,0,144,4.0,0.0
10672,58.0,0,288,6.0,0.0
10673,46.0,0,288,6.0,0.0
10674,53.0,0,144,4.0,0.0
10675,77.0,0,144,1.0,0.0
10676,80.0,0,144,1.0,0.0
10677,58.0,0,144,13.0,0.0
10678,58.0,30,24,11.0,0.0
10679,56.0,12,24,11.0,0.0
10680,58.0,0,24,11.0,0.0
10681,60.0,0,24,11.0,0.0
10682,58.0,30,24,11.0,0.0
10683,56.0,0,24,11.0,0.0
10684,62.0,0,24,11.0,0.0
10685,63.0,0,24,11.0,0.0
10686,58.0,30,24,11.0,0.0
10687,77.0,0,24,11.0,0.0
10688,84.0,0,144,0.0,0.0
10689,62.0,0,144,3.0,0.0
10690,65.0,0,144,3.0,0.0
10691,46.0,0,144,12.0,0.0
10692,65.0,0,24,11.0,0.0
10693,77.0,30,144,1.0,0.0
10694,46.0,0,144,4.0,0.0
10695,46.0,0,144,13.0,0.0
10696,53.0,0,144,4.0,0.0
10697,89.0,0,144,0.0,0.0
10698,56.0,30,24,11.0,0.0
10699,46.0,0,24,8.0,0.0
10700,74.0,0,144,1.0,0.0
10701,76.0,0,24,11.0,0.0
10702,46.0,0,24,8.0,0.0
10703,58.0,0,24,11.0,0.0
10704,64.0,30,24,11.0,0.0
10705,46.0,0,24,8.0,0.0
10706,56.0,0,24,11.0,0.0
10707,65.0,0,24,11.0,0.0
10708,77.0,24,24,11.0,0.0
10709,58.0,0,24,11.0,0.0
10710,46.0,0,24,8.0,0.0
10711,79.0,0,24,11.0,0.0
10712,67.0,30,24,11.0,0.0
10713,56.0,0,24,11.0,0.0
10714,80.0,0,24,11.0,0.0
10715,68.0,0,24,11.0,0.0
10716,46.0,0,24,8.0,0.0
10717,77.0,0,24,11.0,0.0
10718,58.0,78,24,11.0,0.0
10719,65.0,0,24,11.0,0.0
10720,46.0,0,24,8.0,0.0
10721,63.0,0,72,5.0,0.0
10722,51.0,0,96,12.0,0.0
10723,51.0,24,72,5.0,0.0
10724,51.0,0,96,13.0,0.0
10725,63.0,0,96,3.0,0.0
10726,87.0,0,96,0.0,0.0
10727,79.0,0,96,0.0,0.0
10728,55.0,0,96,4.0,0.0
10729,51.0,0,96,4.0,0.0
10730,67.0,0,96,3.0,0.0
10731,63.0,0,72,6.0,0.0
10732,51.0,0,72,6.0,0.0
10733,51.0,0,96,11.0,0.0
10734,51.0,18,96,8.0,0.0
10735,63.0,0,96,11.0,0.0
10736,55.0,0,96,11.0,0.0
10737,75.0,0,96,11.0,0.0
10738,75.0,0,96,1.0,0.0
10739,51.0,0,24,6.0,0.0
10740,63.0,0,24,6.0,0.0
10741,51.0,0,24,5.0,0.0
10742,63.0,54,24,5.0,0.0
10743,63.0,0,48,5.0,0.0
10744,51.0,0,48,5.0,0.0
10745,51.0,60,48,6.0,0.0
10746,63.0,0,48,6.0,0.0
10747,51.0,60,48,5.0,0.0
10748,63.0,0,48,5.0,0.0
10749,63.0,0,48,6.0,0.0
10750,51.0,0,48,6.0,0.0
10751,63.0,0,48,5.0,0.0
10752,51.0,0,48,5.0,0.0
10753,51.0,0,48,6.0,0.0
10754,63.0,60,48,6.0,0.0
10755,63.0,0,48,5.0,0.0
10756,51.0,0,48,5.0,0.0
10757,51.0,84,48,6.0,0.0
10758,63.0,0,48,6.0,0.0
10759,51.0,0,96,12.0,0.0
10760,63.0,0,72,6.0,0.0
10761,51.0,0,72,5.0,0.0
10762,51.0,0,72,6.0,0.0
10763,75.0,18,96,1.0,0.0
10764,67.0,0,96,3.0,0.0
10765,51.0,0,96,13.0,0.0
10766,75.0,0,96,3.0,0.0
10767,82.0,0,96,0.0,0.0
10768,91.0,0,96,0.0,0.0
10769,55.0,0,96,11.0,0.0
10770,51.0,0,96,8.0,0.0
10771,70.0,0,96,11.0,0.0
10772,63.0,24,72,5.0,0.0
10773,79.0,0,96,11.0,0.0
10774,63.0,0,96,11.0,0.0
10775,55.0,0,96,4.0,0.0
10776,51.0,0,96,4.0,0.0
10777,79.0,0,96,1.0,0.0
10778,63.0,0,24,5.0,0.0
10779,51.0,0,24,5.0,0.0
10780,63.0,54,24,6.0,0.0
10781,51.0,0,24,6.0,0.0
10782,63.0,0,48,6.0,0.0
10783,51.0,60,48,6.0,0.0
10784,51.0,0,48,5.0,0.0
10785,63.0,0,48,5.0,0.0
10786,51.0,0,48,5.0,0.0
10787,63.0,60,48,5.0,0.0
10788,63.0,0,48,6.0,0.0
10789,51.0,0,48,6.0,0.0
10790,51.0,0,48,5.0,0.0
10791,51.0,0,48,6.0,0.0
10792,63.0,0,48,6.0,0.0
10793,63.0,60,48,5.0,0.0
10794,63.0,0,48,6.0,0.0
10795,63.0,0,48,5.0,0.0
10796,51.0,0,48,5.0,0.0
10797,51.0,108,48,6.0,0.0
10798,63.0,0,96,5.0,0.0
10799,75.0,0,96,1.0,0.0
10800,51.0,0,96,6.0,0.0
10801,63.0,100,96,6.0,0.0
10802,63.0,0,96,3.0,0.0
10803,51.0,0,96,8.0,0.0
10804,51.0,0,96,4.0,0.0
10805,51.0,0,96,5.0,0.0
10806,67.0,0,96,3.0,0.0
10807,55.0,0,96,11.0,0.0
10808,63.0,0,96,11.0,0.0
10809,79.0,0,96,0.0,0.0
10810,87.0,0,96,0.0,0.0
10811,51.0,0,96,11.0,0.0
10812,51.0,0,96,12.0,0.0
10813,51.0,0,96,13.0,0.0
10814,63.0,20,16,7.0,0.0
10815,51.0,0,16,10.0,0.0
10816,50.0,20,16,10.0,0.0
10817,62.0,0,16,7.0,0.0
10818,60.0,20,16,7.0,0.0
10819,48.0,0,16,10.0,0.0
10820,46.0,0,16,10.0,0.0
10821,58.0,20,16,7.0,0.0
10822,48.0,20,16,10.0,0.0
10823,60.0,0,16,7.0,0.0
10824,62.0,0,16,7.0,0.0
10825,50.0,28,16,10.0,0.0
10826,63.0,0,24,7.0,0.0
10827,51.0,30,24,10.0,0.0
10828,53.0,22,24,10.0,0.0
10829,65.0,0,24,7.0,0.0
10830,67.0,0,16,7.0,0.0
10831,55.0,20,16,10.0,0.0
10832,53.0,0,16,10.0,0.0
10833,65.0,20,16,7.0,0.0
10834,63.0,20,16,7.0,0.0
10835,51.0,0,16,10.0,0.0
10836,50.0,20,16,10.0,0.0
10837,62.0,0,16,7.0,0.0
10838,63.0,0,16,7.0,0.0
10839,51.0,20,16,10.0,0.0
10840,65.0,0,16,7.0,0.0
10841,53.0,28,16,10.0,0.0
10842,67.0,0,24,7.0,0.0
10843,55.0,30,24,10.0,0.0
10844,56.0,0,24,10.0,0.0
10845,68.0,22,24,7.0,0.0
10846,58.0,0,16,10.0,0.0
10847,70.0,20,16,7.0,0.0
10848,56.0,0,16,10.0,0.0
10849,68.0,20,16,7.0,0.0
10850,67.0,28,16,7.0,0.0
10851,55.0,0,16,10.0,0.0
10852,68.0,30,24,7.0,0.0
10853,56.0,0,24,10.0,0.0
10854,70.0,30,24,7.0,0.0
10855,58.0,0,24,10.0,0.0
10856,60.0,0,24,10.0,0.0
10857,72.0,30,24,7.0,0.0
10858,62.0,0,24,10.0,0.0
10859,74.0,102,24,7.0,0.0
10860,63.0,100,96,10.0,0.0
10861,75.0,0,96,7.0,0.0
10862,63.0,20,16,10.0,0.0
10863,75.0,0,16,7.0,0.0
10864,74.0,20,16,7.0,0.0
10865,62.0,0,16,10.0,0.0
10866,60.0,0,16,10.0,0.0
10867,72.0,20,16,7.0,0.0
10868,58.0,0,16,10.0,0.0
10869,70.0,20,16,7.0,0.0
10870,72.0,20,16,7.0,0.0
10871,60.0,0,16,10.0,0.0
10872,74.0,0,16,7.0,0.0
10873,62.0,28,16,10.0,0.0
10874,75.0,0,24,7.0,0.0
10875,63.0,30,24,10.0,0.0
10876,77.0,0,24,7.0,0.0
10877,65.0,22,24,10.0,0.0
10878,79.0,0,16,7.0,0.0
10879,67.0,20,16,10.0,0.0
10880,77.0,20,16,7.0,0.0
10881,65.0,0,16,10.0,0.0
10882,75.0,0,16,7.0,0.0
10883,63.0,20,16,10.0,0.0
10884,74.0,0,16,7.0,0.0
10885,62.0,20,16,10.0,0.0
10886,75.0,0,16,7.0,0.0
10887,63.0,20,16,10.0,0.0
10888,77.0,28,16,7.0,0.0
10889,65.0,0,16,10.0,0.0
10890,67.0,0,24,10.0,0.0
10891,79.0,30,24,7.0,0.0
10892,68.0,0,24,10.0,0.0
10893,80.0,22,24,7.0,0.0
10894,70.0,0,16,10.0,0.0
10895,82.0,20,16,7.0,0.0
10896,68.0,20,16,10.0,0.0
10897,80.0,0,16,7.0,0.0
10898,79.0,28,16,7.0,0.0
10899,67.0,0,16,10.0,0.0
10900,68.0,0,24,10.0,0.0
10901,80.0,30,24,7.0,0.0
10902,70.0,0,24,10.0,0.0
10903,82.0,30,24,7.0,0.0
10904,72.0,0,24,10.0,0.0
10905,84.0,30,24,7.0,0.0
10906,86.0,22,24,7.0,0.0
10907,74.0,0,24,10.0,0.0
10908,87.0,20,16,7.0,0.0
10909,75.0,0,16,10.0,0.0
10910,74.0,0,16,10.0,0.0
10911,86.0,20,16,7.0,0.0
10912,72.0,20,16,10.0,0.0
10913,84.0,0,16,7.0,0.0
10914,82.0,20,16,7.0,0.0
10915,70.0,0,16,10.0,0.0
10916,84.0,0,16,7.0,0.0
10917,72.0,20,16,10.0,0.0
10918,86.0,0,16,7.0,0.0
10919,74.0,28,16,10.0,0.0
10920,75.0,0,24,10.0,0.0
10921,87.0,30,24,7.0,0.0
10922,77.0,0,24,10.0,0.0
10923,89.0,22,24,7.0,0.0
10924,91.0,0,16,7.0,0.0
10925,79.0,20,16,10.0,0.0
10926,89.0,0,16,7.0,0.0
10927,77.0,20,16,10.0,0.0
10928,87.0,0,16,7.0,0.0
10929,75.0,20,16,10.0,0.0
10930,86.0,20,16,7.0,0.0
10931,74.0,0,16,10.0,0.0
10932,87.0,0,16,7.0,0.0
10933,75.0,20,16,10.0,0.0
10934,77.0,0,16,10.0,0.0
10935,89.0,28,16,7.0,0.0
10936,91.0,30,24,7.0,0.0
10937,79.0,0,24,10.0,0.0
10938,92.0,0,24,7.0,0.0
10939,80.0,30,24,10.0,0.0
10940,94.0,0,24,7.0,0.0
10941,82.0,30,24,10.0,0.0
10942,80.0,0,24,10.0,0.0
10943,92.0,30,24,7.0,0.0
10944,79.0,30,24,10.0,0.0
10945,91.0,0,24,7.0,0.0
10946,84.0,0,24,10.0,0.0
10947,96.0,30,24,7.0,0.0
10948,94.0,0,24,7.0,0.0
10949,82.0,30,24,10.0,0.0
10950,92.0,30,24,7.0,0.0
10951,80.0,0,24,10.0,0.0
10952,79.0,0,24,10.0,0.0
10953,91.0,30,24,7.0,0.0
10954,89.0,0,24,7.0,0.0
10955,77.0,30,24,10.0,0.0
10956,87.0,0,24,7.0,0.0
10957,75.0,30,24,10.0,0.0
10958,86.0,0,24,7.0,0.0
10959,74.0,30,24,10.0,0.0
10960,84.0,30,24,7.0,0.0
10961,72.0,0,24,10.0,0.0
10962,83.0,0,24,7.0,0.0
10963,71.0,30,24,10.0,0.0
10964,70.0,30,24,10.0,0.0
10965,82.0,0,24,7.0,0.0
10966,80.0,0,24,7.0,0.0
10967,68.0,30,24,10.0,0.0
10968,67.0,0,24,10.0,0.0
10969,79.0,30,24,7.0,0.0
10970,72.0,0,24,10.0,0.0
10971,84.0,30,24,7.0,0.0
10972,70.0,0,24,10.0,0.0
10973,82.0,30,24,7.0,0.0
10974,68.0,30,24,10.0,0.0
10975,80.0,0,24,7.0,0.0
10976,79.0,0,24,7.0,0.0
10977,67.0,30,24,10.0,0.0
10978,77.0,30,24,7.0,0.0
10979,65.0,0,24,10.0,0.0
10980,63.0,30,24,10.0,0.0
10981,75.0,0,24,7.0,0.0
10982,74.0,30,24,7.0,0.0
10983,62.0,0,24,10.0,0.0
10984,72.0,30,24,7.0,0.0
10985,60.0,0,24,10.0,0.0
10986,59.0,54,24,10.0,0.0
10987,71.0,0,24,7.0,0.0
10988,51.0,0,288,10.0,0.0
10989,67.0,26,288,7.0,0.0
10990,70.0,12,96,7.0,0.0
10991,27.0,12,1356,5.0,0.0
10992,55.0,48,48,10.0,0.0
10993,58.0,36,48,10.0,0.0
10994,72.0,15,24,7.0,0.0
10995,63.0,6,48,10.0,0.0
10996,70.0,9,24,7.0,0.0
10997,69.0,15,24,7.0,0.0
10998,70.0,39,24,7.0,0.0
10999,79.0,34,134,7.0,0.0
11000,55.0,60,48,10.0,0.0
11001,58.0,0,48,10.0,0.0
11002,63.0,11,48,10.0,0.0
11003,75.0,49,59,7.0,0.0
11004,74.0,24,144,7.0,0.0
11005,68.0,12,276,7.0,0.0
11006,56.0,60,48,10.0,0.0
11007,51.0,4,288,10.0,0.0
11008,60.0,36,48,10.0,0.0
11009,63.0,60,48,10.0,0.0
11010,56.0,48,48,10.0,0.0
11011,72.0,56,112,7.0,0.0
11012,59.0,0,48,10.0,0.0
11013,65.0,0,48,7.0,0.0
11014,68.0,0,48,7.0,0.0
11015,63.0,60,48,10.0,0.0
11016,71.0,0,48,7.0,0.0
11017,53.0,0,288,10.0,0.0
11018,51.0,60,288,10.0,0.0
11019,71.0,12,96,7.0,0.0
11020,65.0,24,144,7.0,0.0
11021,68.0,0,144,7.0,0.0
11022,56.0,48,48,10.0,0.0
11023,58.0,36,48,10.0,0.0
11024,62.0,60,48,10.0,0.0
11025,70.0,0,48,7.0,0.0
11026,70.0,0,96,7.0,0.0
11027,68.0,0,96,7.0,0.0
11028,65.0,12,96,7.0,0.0
11029,56.0,48,48,10.0,0.0
11030,58.0,0,48,10.0,0.0
11031,62.0,0,48,10.0,0.0
11032,70.0,0,48,7.0,0.0
11033,65.0,24,48,7.0,0.0
11034,51.0,0,288,10.0,0.0
11035,55.0,9,48,10.0,0.0
11036,70.0,15,12,7.0,0.0
11037,67.0,0,276,7.0,0.0
11038,72.0,15,12,7.0,0.0
11039,70.0,6,12,7.0,0.0
11040,72.0,15,12,7.0,0.0
11041,70.0,15,12,7.0,0.0
11042,58.0,9,48,10.0,0.0
11043,72.0,15,12,7.0,0.0
11044,70.0,6,12,7.0,0.0
11045,72.0,15,12,7.0,0.0
11046,70.0,15,12,7.0,0.0
11047,63.0,21,48,10.0,0.0
11048,72.0,15,12,7.0,0.0
11049,70.0,6,12,7.0,0.0
11050,69.0,30,24,7.0,0.0
11051,55.0,48,48,10.0,0.0
11052,70.0,9,24,7.0,0.0
11053,75.0,27,96,7.0,0.0
11054,58.0,33,48,10.0,0.0
11055,63.0,24,48,10.0,0.0
11056,65.0,24,144,7.0,0.0
11057,53.0,60,48,10.0,0.0
11058,50.0,0,144,10.0,0.0
11059,70.0,21,12,7.0,0.0
11060,77.0,33,96,7.0,0.0
11061,70.0,15,18,7.0,0.0
11062,58.0,3,48,10.0,0.0
11063,62.0,15,48,10.0,0.0
11064,70.0,24,48,7.0,0.0
11065,67.0,24,144,7.0,0.0
11066,52.0,0,144,10.0,0.0
11067,55.0,60,48,10.0,0.0
11068,70.0,21,12,7.0,0.0
11069,79.0,0,96,7.0,0.0
11070,70.0,18,96,7.0,0.0
11071,58.0,18,48,10.0,0.0
11072,64.0,24,48,10.0,0.0
11073,53.0,3,288,10.0,0.0
11074,56.0,60,48,10.0,0.0
11075,70.0,6,12,7.0,0.0
11076,70.0,30,3,7.0,0.0
11077,80.0,0,276,7.0,0.0
11078,68.0,57,276,7.0,0.0
11079,58.0,60,48,10.0,0.0
11080,68.0,0,48,11.0,0.0
11081,53.0,60,48,13.0,0.0
11082,53.0,0,48,12.0,0.0
11083,58.0,0,48,11.0,0.0
11084,65.0,0,48,10.0,0.0
11085,65.0,0,48,11.0,0.0
11086,53.0,0,96,13.0,0.0
11087,53.0,0,96,11.0,0.0
11088,58.0,0,96,11.0,0.0
11089,56.0,48,48,10.0,0.0
11090,53.0,0,96,12.0,0.0
11091,68.0,12,96,11.0,0.0
11092,58.0,0,48,10.0,0.0
11093,65.0,15,48,10.0,0.0
11094,56.0,60,48,10.0,0.0
11095,70.0,9,3,7.0,0.0
11096,68.0,0,144,7.0,0.0
11097,53.0,24,144,10.0,0.0
11098,80.0,0,96,7.0,0.0
11099,70.0,33,96,7.0,0.0
11100,58.0,3,48,10.0,0.0
11101,65.0,15,48,10.0,0.0
11102,70.0,24,3,7.0,0.0
11103,55.0,24,144,10.0,0.0
11104,58.0,60,48,10.0,0.0
11105,75.0,21,12,7.0,0.0
11106,75.0,18,96,7.0,0.0
11107,82.0,0,96,7.0,0.0
11108,63.0,18,48,10.0,0.0
11109,67.0,24,48,10.0,0.0
11110,60.0,60,48,10.0,0.0
11111,75.0,6,12,7.0,0.0
11112,75.0,30,3,7.0,0.0
11113,72.0,0,276,7.0,0.0
11114,84.0,0,276,7.0,0.0
11115,63.0,56,48,10.0,0.0
11116,70.0,0,44,11.0,0.0
11117,51.0,0,44,11.0,0.0
11118,68.0,60,48,10.0,0.0
11119,56.0,0,44,13.0,0.0
11120,56.0,4,44,12.0,0.0
11121,60.0,60,48,10.0,0.0
11122,56.0,49,119,12.0,0.0
11123,56.0,0,119,11.0,0.0
11124,56.0,0,119,13.0,0.0
11125,70.0,0,119,11.0,0.0
11126,63.0,3,48,10.0,0.0
11127,68.0,15,48,10.0,0.0
11128,60.0,60,48,10.0,0.0
11129,77.0,9,3,7.0,0.0
11130,72.0,0,144,7.0,0.0
11131,75.0,24,144,7.0,0.0
11132,77.0,0,96,7.0,0.0
11133,84.0,33,96,7.0,0.0
11134,65.0,3,48,10.0,0.0
11135,69.0,15,48,10.0,0.0
11136,74.0,0,144,7.0,0.0
11137,62.0,60,48,10.0,0.0
11138,77.0,24,3,7.0,0.0
11139,77.0,21,12,7.0,0.0
11140,86.0,0,96,7.0,0.0
11141,77.0,18,96,7.0,0.0
11142,65.0,18,48,10.0,0.0
11143,70.0,24,48,10.0,0.0
11144,63.0,60,48,10.0,0.0
11145,77.0,6,12,7.0,0.0
11146,75.0,0,276,7.0,0.0
11147,81.0,0,276,7.0,0.0
11148,77.0,30,3,7.0,0.0
11149,87.0,57,276,7.0,0.0
11150,65.0,56,48,10.0,0.0
11151,69.0,60,48,10.0,0.0
11152,75.0,4,44,11.0,0.0
11153,75.0,4,104,11.0,0.0
11154,63.0,56,48,10.0,0.0
11155,65.0,3,48,10.0,0.0
11156,69.0,15,48,10.0,0.0
11157,65.0,60,48,10.0,0.0
11158,77.0,9,3,7.0,0.0
11159,82.0,36,12,7.0,0.0
11160,89.0,33,96,7.0,0.0
11161,82.0,0,96,7.0,0.0
11162,70.0,3,48,10.0,0.0
11163,74.0,15,48,10.0,0.0
11164,82.0,24,48,7.0,0.0
11165,79.0,24,144,7.0,0.0
11166,67.0,60,48,10.0,0.0
11167,82.0,21,12,7.0,0.0
11168,82.0,0,96,7.0,0.0
11169,91.0,18,96,7.0,0.0
11170,70.0,18,48,10.0,0.0
11171,76.0,30,48,10.0,0.0
11172,82.0,96,48,7.0,0.0
11173,80.0,30,114,7.0,0.0
11174,65.0,0,114,10.0,0.0
11175,68.0,0,84,10.0,0.0
11176,82.0,0,84,7.0,0.0
11177,86.0,0,54,7.0,0.0
11178,70.0,0,54,10.0,0.0
11179,89.0,0,24,7.0,0.0
11180,74.0,0,24,10.0,0.0
11181,82.0,0,24,7.0,0.0
11182,86.0,0,24,7.0,0.0
11183,89.0,0,24,7.0,0.0
11184,92.0,0,24,7.0,0.0
11185,77.0,0,24,10.0,0.0
11186,70.0,0,24,10.0,0.0
11187,68.0,84,24,10.0,0.0
11188,74.0,0,24,10.0,0.0
11189,68.0,60,48,5.0,0.0
11190,67.0,60,48,5.0,0.0
11191,65.0,60,48,5.0,0.0
11192,63.0,60,48,5.0,0.0
11193,62.0,60,48,5.0,0.0
11194,60.0,108,48,5.0,0.0
11195,58.0,72,96,5.0,0.0
11196,58.0,126,48,5.0,0.0
11197,55.0,0,114,10.0,0.0
11198,70.0,30,114,7.0,0.0
11199,72.0,0,114,7.0,0.0
11200,58.0,0,84,10.0,0.0
11201,75.0,0,84,7.0,0.0
11202,60.0,0,54,10.0,0.0
11203,79.0,0,54,7.0,0.0
11204,63.0,0,24,10.0,0.0
11205,70.0,84,24,7.0,0.0
11206,82.0,0,24,7.0,0.0
11207,67.0,0,24,10.0,0.0
11208,63.0,0,24,10.0,0.0
11209,60.0,0,24,10.0,0.0
11210,58.0,0,24,10.0,0.0
11211,82.0,60,48,1.0,0.0
11212,70.0,0,48,3.0,0.0
11213,58.0,0,48,4.0,0.0
11214,56.0,0,48,4.0,0.0
11215,68.0,0,48,3.0,0.0
11216,80.0,60,48,1.0,0.0
11217,55.0,0,48,4.0,0.0
11218,67.0,0,48,3.0,0.0
11219,79.0,60,48,1.0,0.0
11220,53.0,0,48,4.0,0.0
11221,65.0,60,48,3.0,0.0
11222,77.0,0,48,1.0,0.0
11223,52.0,0,48,4.0,0.0
11224,76.0,60,48,1.0,0.0
11225,64.0,0,48,3.0,0.0
11226,61.0,0,48,3.0,0.0
11227,73.0,0,48,1.0,0.0
11228,49.0,108,48,4.0,0.0
11229,72.0,72,96,1.0,0.0
11230,60.0,0,96,3.0,0.0
11231,48.0,0,96,4.0,0.0
11232,60.0,108,48,3.0,0.0
11233,72.0,0,48,1.0,0.0
11234,48.0,0,48,4.0,0.0
11235,56.0,0,228,11.0,0.0
11236,65.0,0,96,5.0,0.0
11237,56.0,0,96,4.0,0.0
11238,60.0,0,96,4.0,0.0
11239,60.0,0,96,11.0,0.0
11240,68.0,0,96,5.0,0.0
11241,44.0,28,236,12.0,0.0
11242,72.0,0,96,1.0,0.0
11243,84.0,0,96,0.0,0.0
11244,80.0,0,96,0.0,0.0
11245,77.0,0,96,1.0,0.0
11246,44.0,0,236,13.0,0.0
11247,72.0,0,96,3.0,0.0
11248,68.0,0,96,3.0,0.0
11249,72.0,108,96,11.0,0.0
11250,65.0,0,96,11.0,0.0
11251,60.0,0,48,4.0,0.0
11252,72.0,6,48,3.0,0.0
11253,84.0,0,48,1.0,0.0
11254,84.0,0,24,11.0,0.0
11255,72.0,24,24,11.0,0.0
11256,72.0,2,24,11.0,0.0
11257,84.0,0,24,11.0,0.0
11258,58.0,0,48,4.0,0.0
11259,82.0,0,48,1.0,0.0
11260,61.0,6,48,13.0,0.0
11261,61.0,0,48,12.0,0.0
11262,70.0,0,24,11.0,0.0
11263,70.0,0,48,3.0,0.0
11264,82.0,24,24,11.0,0.0
11265,61.0,0,24,11.0,0.0
11266,61.0,0,24,11.0,0.0
11267,70.0,0,24,11.0,0.0
11268,82.0,30,24,11.0,0.0
11269,60.0,6,48,12.0,0.0
11270,56.0,0,48,4.0,0.0
11271,80.0,0,24,11.0,0.0
11272,60.0,24,24,11.0,0.0
11273,68.0,0,48,3.0,0.0
11274,68.0,0,24,11.0,0.0
11275,80.0,0,48,1.0,0.0
11276,60.0,0,48,13.0,0.0
11277,68.0,0,24,11.0,0.0
11278,80.0,0,24,11.0,0.0
11279,60.0,30,24,11.0,0.0
11280,79.0,0,24,11.0,0.0
11281,48.0,24,24,11.0,0.0
11282,67.0,0,24,11.0,0.0
11283,67.0,0,48,3.0,0.0
11284,60.0,0,24,11.0,0.0
11285,79.0,6,48,1.0,0.0
11286,55.0,0,48,4.0,0.0
11287,58.0,0,48,13.0,0.0
11288,91.0,0,48,0.0,0.0
11289,58.0,0,48,12.0,0.0
11290,48.0,0,24,11.0,0.0
11291,67.0,0,24,11.0,0.0
11292,79.0,30,24,11.0,0.0
11293,60.0,0,24,11.0,0.0
11294,89.0,0,48,0.0,0.0
11295,48.0,0,24,11.0,0.0
11296,60.0,0,24,11.0,0.0
11297,65.0,0,48,3.0,0.0
11298,77.0,0,48,1.0,0.0
11299,53.0,0,48,4.0,0.0
11300,56.0,0,48,13.0,0.0
11301,65.0,0,24,11.0,0.0
11302,56.0,6,48,12.0,0.0
11303,77.0,24,24,11.0,0.0
11304,77.0,0,24,11.0,0.0
11305,60.0,0,24,11.0,0.0
11306,65.0,30,24,11.0,0.0
11307,48.0,0,24,11.0,0.0
11308,52.0,0,48,4.0,0.0
11309,76.0,24,24,11.0,0.0
11310,55.0,0,48,13.0,0.0
11311,76.0,0,48,1.0,0.0
11312,64.0,0,24,11.0,0.0
11313,55.0,6,48,12.0,0.0
11314,60.0,0,24,11.0,0.0
11315,64.0,0,48,3.0,0.0
11316,88.0,0,48,0.0,0.0
11317,48.0,0,24,11.0,0.0
11318,48.0,0,24,11.0,0.0
11319,60.0,30,24,11.0,0.0
11320,76.0,0,24,11.0,0.0
11321,64.0,0,24,11.0,0.0
11322,53.0,0,48,13.0,0.0
11323,53.0,0,96,4.0,0.0
11324,65.0,0,24,11.0,0.0
11325,65.0,0,96,3.0,0.0
11326,77.0,24,24,11.0,0.0
11327,77.0,12,96,1.0,0.0
11328,53.0,0,24,11.0,0.0
11329,53.0,6,48,12.0,0.0
11330,89.0,0,96,0.0,0.0
11331,65.0,0,24,11.0,0.0
11332,77.0,0,24,11.0,0.0
11333,51.0,6,48,13.0,0.0
11334,77.0,0,24,11.0,0.0
11335,51.0,0,48,12.0,0.0
11336,65.0,0,24,11.0,0.0
11337,63.0,12,24,11.0,0.0
11338,63.0,0,24,11.0,0.0
11339,77.0,0,24,11.0,0.0
11340,65.0,30,24,11.0,0.0
11341,67.0,24,24,11.0,0.0
11342,55.0,0,48,4.0,0.0
11343,79.0,0,48,1.0,0.0
11344,50.0,0,48,13.0,0.0
11345,62.0,0,24,11.0,0.0
11346,79.0,0,24,11.0,0.0
11347,50.0,0,48,12.0,0.0
11348,67.0,0,48,3.0,0.0
11349,91.0,6,48,0.0,0.0
11350,79.0,30,24,11.0,0.0
11351,62.0,0,24,11.0,0.0
11352,67.0,0,24,11.0,0.0
11353,48.0,6,48,13.0,0.0
11354,68.0,0,24,11.0,0.0
11355,92.0,0,48,0.0,0.0
11356,60.0,24,24,11.0,0.0
11357,68.0,0,48,3.0,0.0
11358,80.0,0,24,11.0,0.0
11359,48.0,0,48,12.0,0.0
11360,80.0,0,48,1.0,0.0
11361,56.0,0,48,4.0,0.0
11362,80.0,0,24,11.0,0.0
11363,68.0,30,24,11.0,0.0
11364,60.0,0,24,11.0,0.0
11365,46.0,0,48,12.0,0.0
11366,68.0,0,48,3.0,0.0
11367,68.0,0,48,1.0,0.0
11368,72.0,0,24,11.0,0.0
11369,58.0,0,24,11.0,0.0
11370,60.0,0,48,3.0,0.0
11371,80.0,0,48,1.0,0.0
11372,80.0,0,48,0.0,0.0
11373,84.0,0,48,0.0,0.0
11374,60.0,24,24,11.0,0.0
11375,46.0,6,48,13.0,0.0
11376,56.0,0,48,4.0,0.0
11377,48.0,0,48,4.0,0.0
11378,72.0,0,24,11.0,0.0
11379,58.0,30,24,11.0,0.0
11380,60.0,0,24,11.0,0.0
11381,56.0,0,24,11.0,0.0
11382,74.0,24,24,11.0,0.0
11383,65.0,0,48,5.0,0.0
11384,58.0,0,48,5.0,0.0
11385,58.0,6,48,13.0,0.0
11386,53.0,0,48,4.0,0.0
11387,50.0,0,48,4.0,0.0
11388,74.0,0,48,1.0,0.0
11389,77.0,0,48,1.0,0.0
11390,53.0,0,24,11.0,0.0
11391,86.0,0,48,0.0,0.0
11392,80.0,0,48,0.0,0.0
11393,46.0,0,48,8.0,0.0
11394,58.0,0,48,12.0,0.0
11395,65.0,0,48,3.0,0.0
11396,58.0,0,48,6.0,0.0
11397,46.0,0,48,6.0,0.0
11398,62.0,0,48,3.0,0.0
11399,62.0,0,24,11.0,0.0
11400,74.0,0,24,11.0,0.0
11401,53.0,30,24,11.0,0.0
11402,56.0,0,24,11.0,0.0
11403,62.0,0,24,11.0,0.0
11404,87.0,0,48,0.0,0.0
11405,63.0,0,24,11.0,0.0
11406,46.0,0,48,13.0,0.0
11407,79.0,0,96,1.0,0.0
11408,75.0,0,24,11.0,0.0
11409,67.0,12,96,3.0,0.0
11410,58.0,0,96,6.0,0.0
11411,46.0,0,96,6.0,0.0
11412,75.0,0,96,1.0,0.0
11413,82.0,0,48,0.0,0.0
11414,63.0,0,96,3.0,0.0
11415,55.0,0,96,4.0,0.0
11416,51.0,0,96,4.0,0.0
11417,58.0,0,96,5.0,0.0
11418,67.0,0,96,5.0,0.0
11419,51.0,24,24,11.0,0.0
11420,55.0,0,24,11.0,0.0
11421,46.0,6,48,12.0,0.0
11422,46.0,0,96,8.0,0.0
11423,63.0,30,24,11.0,0.0
11424,51.0,0,24,11.0,0.0
11425,55.0,0,24,11.0,0.0
11426,75.0,0,24,11.0,0.0
11427,55.0,12,24,11.0,0.0
11428,51.0,0,24,11.0,0.0
11429,58.0,0,48,12.0,0.0
11430,75.0,0,24,11.0,0.0
11431,63.0,0,24,11.0,0.0
11432,87.0,0,48,0.0,0.0
11433,58.0,6,48,13.0,0.0
11434,63.0,0,24,11.0,0.0
11435,75.0,0,24,11.0,0.0
11436,51.0,0,24,11.0,0.0
11437,55.0,30,24,11.0,0.0
11438,89.0,0,48,0.0,0.0
11439,58.0,0,48,5.0,0.0
11440,50.0,0,48,4.0,0.0
11441,50.0,24,24,11.0,0.0
11442,46.0,0,48,12.0,0.0
11443,53.0,0,24,11.0,0.0
11444,65.0,0,24,11.0,0.0
11445,65.0,0,48,5.0,0.0
11446,53.0,0,48,4.0,0.0
11447,86.0,0,48,0.0,0.0
11448,58.0,0,24,11.0,0.0
11449,46.0,0,48,6.0,0.0
11450,65.0,0,48,3.0,0.0
11451,77.0,0,24,11.0,0.0
11452,58.0,0,48,6.0,0.0
11453,46.0,0,48,13.0,0.0
11454,46.0,6,48,8.0,0.0
11455,77.0,0,48,1.0,0.0
11456,62.0,0,48,3.0,0.0
11457,74.0,0,48,1.0,0.0
11458,53.0,102,24,11.0,0.0
11459,50.0,0,24,11.0,0.0
11460,77.0,0,24,11.0,0.0
11461,58.0,0,24,11.0,0.0
11462,65.0,0,24,11.0,0.0
11463,65.0,0,96,3.0,0.0
11464,74.0,0,96,1.0,0.0
11465,58.0,0,96,6.0,0.0
11466,65.0,0,96,5.0,0.0
11467,46.0,0,96,13.0,0.0
11468,46.0,0,96,6.0,0.0
11469,58.0,0,96,5.0,0.0
11470,62.0,0,96,11.0,0.0
11471,77.0,0,96,11.0,0.0
11472,70.0,0,96,11.0,0.0
11473,46.0,0,96,12.0,0.0
11474,46.0,0,96,8.0,0.0
11475,65.0,0,96,11.0,0.0
11476,62.0,0,96,3.0,0.0
11477,50.0,0,96,11.0,0.0
11478,53.0,0,96,11.0,0.0
11479,77.0,0,96,1.0,0.0
11480,50.0,0,96,4.0,0.0
11481,53.0,0,96,4.0,0.0
11482,86.0,132,96,0.0,0.0
11483,89.0,0,96,0.0,0.0
11484,58.0,0,96,11.0,0.0
11485,68.0,0,48,10.0,0.0
11486,92.0,0,48,7.0,0.0
11487,80.0,60,48,7.0,0.0
11488,79.0,0,48,7.0,0.0
11489,91.0,60,48,7.0,0.0
11490,67.0,0,48,10.0,0.0
11491,65.0,0,48,10.0,0.0
11492,89.0,60,48,7.0,0.0
11493,77.0,0,48,7.0,0.0
11494,87.0,0,48,7.0,0.0
11495,75.0,0,48,7.0,0.0
11496,63.0,60,48,10.0,0.0
11497,62.0,0,48,10.0,0.0
11498,74.0,0,48,7.0,0.0
11499,86.0,60,48,7.0,0.0
11500,60.0,0,48,10.0,0.0
11501,84.0,108,48,7.0,0.0
11502,72.0,0,48,7.0,0.0
11503,82.0,0,96,7.0,0.0
11504,58.0,72,96,10.0,0.0
11505,70.0,0,96,7.0,0.0
11506,70.0,0,48,7.0,0.0
11507,58.0,108,48,10.0,0.0
11508,82.0,0,48,7.0,0.0
11509,55.0,0,96,12.0,0.0
11510,55.0,0,96,13.0,0.0
11511,88.0,0,96,0.0,0.0
11512,91.0,0,96,0.0,0.0
11513,58.0,0,96,4.0,0.0
11514,55.0,0,96,4.0,0.0
11515,64.0,0,96,11.0,0.0
11516,55.0,0,96,11.0,0.0
11517,70.0,0,96,11.0,0.0
11518,67.0,0,96,3.0,0.0
11519,70.0,0,96,3.0,0.0
11520,67.0,0,96,11.0,0.0
11521,82.0,0,96,11.0,0.0
11522,46.0,0,96,8.0,0.0
11523,46.0,0,96,6.0,0.0
11524,46.0,0,96,5.0,0.0
11525,58.0,0,96,5.0,0.0
11526,58.0,0,96,6.0,0.0
11527,79.0,0,96,1.0,0.0
11528,76.0,132,96,1.0,0.0
11529,58.0,0,96,11.0,0.0
11530,70.0,0,48,10.0,0.0
11531,94.0,60,48,7.0,0.0
11532,82.0,0,48,7.0,0.0
11533,92.0,60,48,7.0,0.0
11534,68.0,0,48,10.0,0.0
11535,80.0,0,48,7.0,0.0
11536,79.0,60,48,7.0,0.0
11537,91.0,0,48,7.0,0.0
11538,67.0,0,48,10.0,0.0
11539,77.0,0,48,7.0,0.0
11540,65.0,0,48,10.0,0.0
11541,89.0,60,48,7.0,0.0
11542,64.0,60,48,10.0,0.0
11543,76.0,0,48,7.0,0.0
11544,88.0,0,48,7.0,0.0
11545,85.0,108,48,7.0,0.0
11546,73.0,0,48,7.0,0.0
11547,61.0,0,48,10.0,0.0
11548,72.0,72,96,7.0,0.0
11549,60.0,0,96,10.0,0.0
11550,84.0,0,96,7.0,0.0
11551,72.0,0,48,7.0,0.0
11552,84.0,0,48,7.0,0.0
11553,60.0,36,48,10.0,0.0
11554,60.0,0,96,11.0,0.0
11555,56.0,0,96,13.0,0.0
11556,56.0,18,96,12.0,0.0
11557,65.0,0,96,11.0,0.0
11558,72.0,0,96,11.0,0.0
11559,44.0,30,24,10.0,0.0
11560,48.0,30,24,10.0,0.0
11561,53.0,12,24,10.0,0.0
11562,56.0,18,24,10.0,0.0
11563,60.0,15,12,7.0,0.0
11564,65.0,15,12,7.0,0.0
11565,68.0,15,12,7.0,0.0
11566,72.0,15,12,7.0,0.0
11567,77.0,15,12,7.0,0.0
11568,80.0,15,12,7.0,0.0
11569,84.0,15,12,7.0,0.0
11570,89.0,15,12,7.0,0.0
11571,96.0,0,48,7.0,0.0
11572,84.0,60,48,7.0,0.0
11573,92.0,36,12,7.0,0.0
11574,72.0,0,48,10.0,0.0
11575,82.0,0,48,7.0,0.0
11576,94.0,60,48,7.0,0.0
11577,70.0,0,48,10.0,0.0
11578,92.0,0,48,7.0,0.0
11579,80.0,60,48,7.0,0.0
11580,68.0,0,48,10.0,0.0
11581,91.0,0,48,7.0,0.0
11582,67.0,0,48,10.0,0.0
11583,79.0,60,48,7.0,0.0
11584,89.0,0,48,7.0,0.0
11585,77.0,0,48,7.0,0.0
11586,65.0,60,48,10.0,0.0
11587,88.0,24,48,7.0,0.0
11588,64.0,0,48,10.0,0.0
11589,76.0,0,48,7.0,0.0
11590,89.0,0,12,7.0,0.0
11591,77.0,15,12,7.0,0.0
11592,65.0,0,12,10.0,0.0
11593,91.0,0,12,7.0,0.0
11594,79.0,0,12,7.0,0.0
11595,67.0,15,12,10.0,0.0
11596,65.0,0,12,10.0,0.0
11597,89.0,0,12,7.0,0.0
11598,77.0,15,12,7.0,0.0
11599,67.0,15,12,10.0,0.0
11600,91.0,0,12,7.0,0.0
11601,79.0,0,12,7.0,0.0
11602,65.0,15,12,10.0,0.0
11603,89.0,0,12,7.0,0.0
11604,77.0,0,12,7.0,0.0
11605,91.0,15,12,7.0,0.0
11606,67.0,0,12,10.0,0.0
11607,79.0,0,12,7.0,0.0
11608,89.0,15,12,7.0,0.0
11609,65.0,0,12,10.0,0.0
11610,77.0,0,12,7.0,0.0
11611,67.0,0,12,10.0,0.0
11612,79.0,51,12,7.0,0.0
11613,91.0,0,12,7.0,0.0
11614,91.0,0,48,7.0,0.0
11615,67.0,0,48,10.0,0.0
11616,79.0,60,48,7.0,0.0
11617,68.0,60,48,10.0,0.0
11618,92.0,0,48,7.0,0.0
11619,80.0,0,48,7.0,0.0
11620,84.0,0,48,7.0,0.0
11621,60.0,60,48,10.0,0.0
11622,72.0,0,48,7.0,0.0
11623,62.0,0,48,10.0,0.0
11624,74.0,101,48,7.0,0.0
11625,86.0,0,48,7.0,0.0
11626,63.0,7,89,10.0,0.0
11627,87.0,0,96,7.0,0.0
11628,75.0,72,96,7.0,0.0
11629,65.0,0,48,10.0,0.0
11630,58.0,0,48,14.0,0.0
11631,77.0,0,48,7.0,0.0
11632,65.0,0,48,11.0,0.0
11633,89.0,41,48,7.0,0.0
11634,77.0,4,44,7.0,0.0
11635,89.0,25,209,7.0,0.0
11636,62.0,11,48,11.0,0.0
11637,58.0,10,104,14.0,0.0
11638,46.0,0,48,14.0,0.0
11639,58.0,15,29,10.0,0.0
11640,65.0,6,648,11.0,0.0
11641,62.0,25,29,10.0,0.0
11642,46.0,25,59,14.0,0.0
11643,62.0,0,648,11.0,0.0
11644,65.0,20,24,10.0,0.0
11645,62.0,5,24,10.0,0.0
11646,65.0,30,24,10.0,0.0
11647,62.0,30,24,10.0,0.0
11648,58.0,5,24,10.0,0.0
11649,46.0,12,96,14.0,0.0
11650,58.0,0,96,14.0,0.0
11651,62.0,30,24,10.0,0.0
11652,87.0,6,48,7.0,0.0
11653,65.0,12,24,10.0,0.0
11654,62.0,30,24,10.0,0.0
11655,86.0,6,48,7.0,0.0
11656,65.0,24,24,10.0,0.0
11657,62.0,30,24,10.0,0.0
11658,84.0,6,48,7.0,0.0
11659,58.0,24,24,10.0,0.0
11660,46.0,12,96,14.0,0.0
11661,58.0,0,96,14.0,0.0
11662,62.0,30,24,10.0,0.0
11663,65.0,12,24,10.0,0.0
11664,86.0,6,48,7.0,0.0
11665,62.0,30,24,10.0,0.0
11666,82.0,6,48,7.0,0.0
11667,65.0,24,24,10.0,0.0
11668,62.0,30,24,10.0,0.0
11669,58.0,24,24,10.0,0.0
11670,84.0,6,48,7.0,0.0
11671,46.0,12,96,14.0,0.0
11672,58.0,0,96,14.0,0.0
11673,62.0,30,24,10.0,0.0
11674,86.0,0,48,7.0,0.0
11675,65.0,12,24,10.0,0.0
11676,62.0,30,24,10.0,0.0
11677,65.0,24,24,10.0,0.0
11678,82.0,6,48,7.0,0.0
11679,62.0,30,24,10.0,0.0
11680,67.0,6,648,11.0,0.0
11681,82.0,24,180,7.0,0.0
11682,46.0,0,96,14.0,0.0
11683,58.0,18,96,14.0,0.0
11684,58.0,30,24,10.0,0.0
11685,63.0,0,648,11.0,0.0
11686,63.0,30,24,10.0,0.0
11687,91.0,6,168,7.0,0.0
11688,67.0,12,24,10.0,0.0
11689,63.0,30,24,10.0,0.0
11690,67.0,30,24,10.0,0.0
11691,63.0,6,24,10.0,0.0
11692,58.0,24,24,10.0,0.0
11693,58.0,0,96,14.0,0.0
11694,46.0,12,96,14.0,0.0
11695,63.0,30,24,10.0,0.0
11696,67.0,12,24,10.0,0.0
11697,89.0,6,48,7.0,0.0
11698,63.0,30,24,10.0,0.0
11699,67.0,24,24,10.0,0.0
11700,87.0,6,48,7.0,0.0
11701,63.0,30,24,10.0,0.0
11702,58.0,24,24,10.0,0.0
11703,58.0,12,96,14.0,0.0
11704,46.0,0,96,14.0,0.0
11705,86.0,6,48,7.0,0.0
11706,63.0,30,24,10.0,0.0
11707,67.0,12,24,10.0,0.0
11708,87.0,6,48,7.0,0.0
11709,63.0,30,24,10.0,0.0
11710,82.0,6,48,7.0,0.0
11711,67.0,24,24,10.0,0.0
11712,63.0,30,24,10.0,0.0
11713,86.0,6,48,7.0,0.0
11714,46.0,0,96,14.0,0.0
11715,58.0,12,96,14.0,0.0
11716,58.0,24,24,10.0,0.0
11717,63.0,30,24,10.0,0.0
11718,87.0,0,48,7.0,0.0
11719,67.0,12,24,10.0,0.0
11720,63.0,30,24,10.0,0.0
11721,82.0,6,48,7.0,0.0
11722,67.0,24,24,10.0,0.0
11723,63.0,30,24,10.0,0.0
11724,58.0,18,96,14.0,0.0
11725,65.0,6,648,11.0,0.0
11726,46.0,0,96,14.0,0.0
11727,68.0,0,648,11.0,0.0
11728,82.0,6,48,7.0,0.0
11729,58.0,24,24,10.0,0.0
11730,65.0,30,24,10.0,0.0
11731,68.0,12,24,10.0,0.0
11732,92.0,6,168,7.0,0.0
11733,65.0,30,24,10.0,0.0
11734,68.0,30,24,10.0,0.0
11735,65.0,30,24,10.0,0.0
11736,46.0,12,96,14.0,0.0
11737,58.0,0,96,14.0,0.0
11738,58.0,24,24,10.0,0.0
11739,65.0,30,24,10.0,0.0
11740,91.0,6,48,7.0,0.0
11741,68.0,12,24,10.0,0.0
11742,65.0,30,24,10.0,0.0
11743,89.0,6,48,7.0,0.0
11744,68.0,24,24,10.0,0.0
11745,65.0,30,24,10.0,0.0
11746,58.0,12,96,14.0,0.0
11747,88.0,6,48,7.0,0.0
11748,46.0,0,96,14.0,0.0
11749,58.0,24,24,10.0,0.0
11750,65.0,30,24,10.0,0.0
11751,89.0,6,48,7.0,0.0
11752,68.0,12,24,10.0,0.0
11753,65.0,30,24,10.0,0.0
11754,82.0,6,48,7.0,0.0
11755,68.0,24,24,10.0,0.0
11756,65.0,30,24,10.0,0.0
11757,88.0,6,48,7.0,0.0
11758,46.0,0,96,14.0,0.0
11759,58.0,24,24,10.0,0.0
11760,58.0,12,96,14.0,0.0
11761,65.0,30,24,10.0,0.0
11762,89.0,0,48,7.0,0.0
11763,68.0,12,24,10.0,0.0
11764,65.0,30,24,10.0,0.0
11765,68.0,30,24,10.0,0.0
11766,82.0,0,24,7.0,0.0
11767,65.0,30,24,10.0,0.0
11768,94.0,0,24,7.0,0.0
11769,63.0,0,24,10.0,0.0
11770,67.0,30,144,11.0,0.0
11771,63.0,0,144,11.0,0.0
11772,39.0,0,96,14.0,0.0
11773,51.0,18,96,14.0,0.0
11774,94.0,30,24,7.0,0.0
11775,67.0,0,24,10.0,0.0
11776,91.0,0,24,7.0,0.0
11777,70.0,30,24,10.0,0.0
11778,75.0,0,24,10.0,0.0
11779,87.0,12,24,7.0,0.0
11780,70.0,0,24,10.0,0.0
11781,67.0,30,24,10.0,0.0
11782,94.0,0,24,7.0,0.0
11783,91.0,0,24,7.0,0.0
11784,75.0,0,24,10.0,0.0
11785,67.0,0,24,10.0,0.0
11786,70.0,0,24,10.0,0.0
11787,87.0,30,24,7.0,0.0
11788,96.0,0,24,7.0,0.0
11789,72.0,30,144,11.0,0.0
11790,68.0,0,144,11.0,0.0
11791,63.0,30,24,10.0,0.0
11792,72.0,0,24,10.0,0.0
11793,92.0,30,24,7.0,0.0
11794,87.0,0,24,7.0,0.0
11795,75.0,30,24,10.0,0.0
11796,96.0,0,24,7.0,0.0
11797,68.0,0,24,10.0,0.0
11798,72.0,30,24,10.0,0.0
11799,75.0,0,24,10.0,0.0
11800,92.0,0,24,7.0,0.0
11801,87.0,30,24,7.0,0.0
11802,68.0,0,24,10.0,0.0
11803,72.0,0,24,10.0,0.0
11804,63.0,30,24,10.0,0.0
11805,70.0,30,144,11.0,0.0
11806,94.0,0,24,7.0,0.0
11807,67.0,0,144,11.0,0.0
11808,91.0,0,24,7.0,0.0
11809,70.0,30,24,10.0,0.0
11810,67.0,0,24,10.0,0.0
11811,75.0,30,24,10.0,0.0
11812,87.0,0,24,7.0,0.0
11813,67.0,0,24,10.0,0.0
11814,94.0,30,24,7.0,0.0
11815,70.0,0,24,10.0,0.0
11816,75.0,0,24,10.0,0.0
11817,91.0,0,24,7.0,0.0
11818,87.0,30,24,7.0,0.0
11819,70.0,0,24,10.0,0.0
11820,67.0,0,24,10.0,0.0
11821,51.0,0,96,14.0,0.0
11822,68.0,0,144,11.0,0.0
11823,65.0,24,144,11.0,0.0
11824,94.0,30,24,7.0,0.0
11825,63.0,0,24,10.0,0.0
11826,63.0,12,96,14.0,0.0
11827,92.0,0,24,7.0,0.0
11828,68.0,30,24,10.0,0.0
11829,65.0,0,24,10.0,0.0
11830,89.0,0,24,7.0,0.0
11831,74.0,12,24,10.0,0.0
11832,94.0,30,24,7.0,0.0
11833,68.0,0,24,10.0,0.0
11834,65.0,0,24,10.0,0.0
11835,74.0,0,24,10.0,0.0
11836,92.0,0,24,7.0,0.0
11837,51.0,6,48,14.0,0.0
11838,63.0,0,48,14.0,0.0
11839,68.0,30,24,10.0,0.0
11840,65.0,0,24,10.0,0.0
11841,89.0,0,24,7.0,0.0
11842,51.0,0,96,14.0,0.0
11843,39.0,18,96,14.0,0.0
11844,67.0,30,144,11.0,0.0
11845,63.0,30,24,10.0,0.0
11846,94.0,0,24,7.0,0.0
11847,63.0,0,144,11.0,0.0
11848,67.0,0,24,10.0,0.0
11849,91.0,30,24,7.0,0.0
11850,70.0,0,24,10.0,0.0
11851,75.0,0,24,10.0,0.0
11852,87.0,12,24,7.0,0.0
11853,70.0,0,24,10.0,0.0
11854,94.0,0,24,7.0,0.0
11855,67.0,30,24,10.0,0.0
11856,75.0,0,24,10.0,0.0
11857,91.0,0,24,7.0,0.0
11858,87.0,0,24,7.0,0.0
11859,67.0,0,24,10.0,0.0
11860,70.0,30,24,10.0,0.0
11861,72.0,0,144,11.0,0.0
11862,63.0,30,24,10.0,0.0
11863,96.0,0,24,7.0,0.0
11864,68.0,0,144,11.0,0.0
11865,72.0,0,24,10.0,0.0
11866,68.0,0,24,10.0,0.0
11867,92.0,30,24,7.0,0.0
11868,75.0,30,24,10.0,0.0
11869,87.0,0,24,7.0,0.0
11870,96.0,0,24,7.0,0.0
11871,68.0,0,24,10.0,0.0
11872,72.0,30,24,10.0,0.0
11873,92.0,0,24,7.0,0.0
11874,75.0,30,24,10.0,0.0
11875,68.0,0,24,10.0,0.0
11876,72.0,0,24,10.0,0.0
11877,87.0,30,24,7.0,0.0
11878,67.0,30,144,11.0,0.0
11879,70.0,0,144,11.0,0.0
11880,94.0,30,24,7.0,0.0
11881,63.0,0,24,10.0,0.0
11882,70.0,30,24,10.0,0.0
11883,67.0,0,24,10.0,0.0
11884,91.0,0,24,7.0,0.0
11885,87.0,0,24,7.0,0.0
11886,75.0,30,24,10.0,0.0
11887,67.0,0,24,10.0,0.0
11888,94.0,0,24,7.0,0.0
11889,70.0,30,24,10.0,0.0
11890,91.0,0,24,7.0,0.0
11891,75.0,0,24,10.0,0.0
11892,87.0,0,24,7.0,0.0
11893,67.0,30,24,10.0,0.0
11894,70.0,0,24,10.0,0.0
11895,63.0,0,96,14.0,0.0
11896,51.0,12,96,14.0,0.0
11897,94.0,0,24,7.0,0.0
11898,63.0,30,24,10.0,0.0
11899,65.0,24,144,11.0,0.0
11900,68.0,0,144,11.0,0.0
11901,68.0,30,24,10.0,0.0
11902,92.0,0,24,7.0,0.0
11903,65.0,0,24,10.0,0.0
11904,89.0,0,24,7.0,0.0
11905,74.0,12,24,10.0,0.0
11906,94.0,30,24,7.0,0.0
11907,65.0,0,24,10.0,0.0
11908,68.0,0,24,10.0,0.0
11909,92.0,0,24,7.0,0.0
11910,63.0,6,48,14.0,0.0
11911,51.0,0,48,14.0,0.0
11912,74.0,0,24,10.0,0.0
11913,68.0,0,24,10.0,0.0
11914,65.0,30,24,10.0,0.0
11915,89.0,0,24,7.0,0.0
11916,39.0,18,96,14.0,0.0
11917,94.0,30,24,7.0,0.0
11918,63.0,0,24,10.0,0.0
11919,67.0,0,144,11.0,0.0
11920,63.0,30,144,11.0,0.0
11921,51.0,0,144,12.0,0.0
11922,67.0,0,24,10.0,0.0
11923,91.0,30,24,7.0,0.0
11924,70.0,0,24,10.0,0.0
11925,75.0,12,24,10.0,0.0
11926,87.0,0,24,7.0,0.0
11927,70.0,30,24,10.0,0.0
11928,94.0,0,24,7.0,0.0
11929,67.0,0,24,10.0,0.0
11930,91.0,0,24,7.0,0.0
11931,75.0,0,24,10.0,0.0
11932,87.0,30,24,7.0,0.0
11933,67.0,0,24,10.0,0.0
11934,70.0,0,24,10.0,0.0
11935,96.0,0,24,7.0,0.0
11936,56.0,0,144,12.0,0.0
11937,68.0,30,144,11.0,0.0
11938,72.0,0,144,11.0,0.0
11939,63.0,30,24,10.0,0.0
11940,92.0,0,24,7.0,0.0
11941,72.0,30,24,10.0,0.0
11942,68.0,0,24,10.0,0.0
11943,87.0,30,24,7.0,0.0
11944,63.0,0,24,10.0,0.0
11945,72.0,0,24,10.0,0.0
11946,68.0,0,24,10.0,0.0
11947,96.0,30,24,7.0,0.0
11948,63.0,0,24,10.0,0.0
11949,92.0,0,24,7.0,0.0
11950,87.0,30,24,7.0,0.0
11951,72.0,0,24,10.0,0.0
11952,68.0,0,24,10.0,0.0
11953,51.0,0,144,12.0,0.0
11954,94.0,30,24,7.0,0.0
11955,70.0,0,144,11.0,0.0
11956,67.0,0,144,11.0,0.0
11957,63.0,0,24,10.0,0.0
11958,67.0,0,24,10.0,0.0
11959,70.0,30,24,10.0,0.0
11960,91.0,0,24,7.0,0.0
11961,75.0,0,24,10.0,0.0
11962,87.0,30,24,7.0,0.0
11963,67.0,0,24,10.0,0.0
11964,70.0,30,24,10.0,0.0
11965,94.0,0,24,7.0,0.0
11966,91.0,30,24,7.0,0.0
11967,75.0,0,24,10.0,0.0
11968,67.0,0,24,10.0,0.0
11969,70.0,0,24,10.0,0.0
11970,87.0,30,24,7.0,0.0
11971,68.0,0,144,11.0,0.0
11972,72.0,0,144,11.0,0.0
11973,96.0,30,24,7.0,0.0
11974,56.0,0,144,12.0,0.0
11975,63.0,0,24,10.0,0.0
11976,92.0,0,24,7.0,0.0
11977,68.0,30,24,10.0,0.0
11978,72.0,0,24,10.0,0.0
11979,63.0,0,24,10.0,0.0
11980,87.0,24,24,7.0,0.0
11981,68.0,0,24,10.0,0.0
11982,72.0,0,24,10.0,0.0
11983,96.0,30,24,7.0,0.0
11984,63.0,0,24,10.0,0.0
11985,92.0,30,24,7.0,0.0
11986,68.0,30,24,10.0,0.0
11987,72.0,0,24,10.0,0.0
11988,87.0,0,24,7.0,0.0
11989,94.0,30,24,7.0,0.0
11990,51.0,0,96,12.0,0.0
11991,70.0,0,96,11.0,0.0
11992,63.0,18,96,11.0,0.0
11993,63.0,0,24,10.0,0.0
11994,67.0,0,96,11.0,0.0
11995,91.0,30,24,7.0,0.0
11996,67.0,0,24,10.0,0.0
11997,87.0,12,24,7.0,0.0
11998,70.0,0,24,10.0,0.0
11999,63.0,0,24,10.0,0.0
12000,96.0,30,24,7.0,0.0
12001,56.0,0,48,12.0,0.0
12002,63.0,6,48,11.0,0.0
12003,72.0,0,48,11.0,0.0
12004,68.0,0,24,10.0,0.0
12005,68.0,0,48,11.0,0.0
12006,92.0,24,24,7.0,0.0
12007,72.0,0,24,10.0,0.0
12008,87.0,30,24,7.0,0.0
12009,63.0,30,24,10.0,0.0
12010,63.0,0,96,11.0,0.0
12011,94.0,0,24,7.0,0.0
12012,70.0,18,96,11.0,0.0
12013,67.0,0,96,11.0,0.0
12014,51.0,0,96,12.0,0.0
12015,67.0,0,24,10.0,0.0
12016,91.0,30,24,7.0,0.0
12017,87.0,0,24,7.0,0.0
12018,70.0,12,24,10.0,0.0
12019,96.0,0,24,7.0,0.0
12020,63.0,30,24,10.0,0.0
12021,68.0,24,24,10.0,0.0
12022,56.0,6,48,12.0,0.0
12023,68.0,0,48,11.0,0.0
12024,63.0,0,48,11.0,0.0
12025,72.0,0,48,11.0,0.0
12026,92.0,0,24,7.0,0.0
12027,87.0,30,24,7.0,0.0
12028,72.0,0,24,10.0,0.0
12029,67.0,18,96,11.0,0.0
12030,94.0,0,24,7.0,0.0
12031,63.0,30,24,10.0,0.0
12032,51.0,0,96,12.0,0.0
12033,70.0,0,96,11.0,0.0
12034,63.0,0,96,11.0,0.0
12035,91.0,0,24,7.0,0.0
12036,67.0,30,24,10.0,0.0
12037,70.0,0,24,10.0,0.0
12038,87.0,12,24,7.0,0.0
12039,63.0,30,24,10.0,0.0
12040,96.0,0,24,7.0,0.0
12041,63.0,0,48,11.0,0.0
12042,56.0,0,48,12.0,0.0
12043,72.0,0,48,11.0,0.0
12044,68.0,0,24,10.0,0.0
12045,92.0,24,24,7.0,0.0
12046,68.0,6,48,11.0,0.0
12047,72.0,0,24,10.0,0.0
12048,87.0,30,24,7.0,0.0
12049,51.0,0,96,12.0,0.0
12050,63.0,0,96,11.0,0.0
12051,67.0,0,96,11.0,0.0
12052,51.0,0,96,13.0,0.0
12053,94.0,30,24,7.0,0.0
12054,63.0,0,24,10.0,0.0
12055,70.0,18,96,11.0,0.0
12056,91.0,30,24,7.0,0.0
12057,67.0,0,24,10.0,0.0
12058,70.0,12,24,10.0,0.0
12059,87.0,0,24,7.0,0.0
12060,96.0,0,24,7.0,0.0
12061,63.0,30,24,10.0,0.0
12062,68.0,0,48,11.0,0.0
12063,92.0,0,24,7.0,0.0
12064,56.0,0,48,12.0,0.0
12065,68.0,24,24,10.0,0.0
12066,56.0,0,48,13.0,0.0
12067,72.0,0,48,11.0,0.0
12068,63.0,6,48,11.0,0.0
12069,87.0,0,24,7.0,0.0
12070,72.0,30,24,10.0,0.0
12071,73.0,24,24,7.0,0.0
12072,51.0,0,96,13.0,0.0
12073,73.0,6,48,10.0,0.0
12074,51.0,0,96,12.0,0.0
12075,73.0,0,96,11.0,0.0
12076,63.0,12,96,11.0,0.0
12077,67.0,0,96,11.0,0.0
12078,70.0,0,96,11.0,0.0
12079,85.0,30,24,7.0,0.0
12080,70.0,6,48,10.0,0.0
12081,70.0,12,24,7.0,0.0
12082,82.0,30,24,7.0,0.0
12083,67.0,6,48,10.0,0.0
12084,67.0,24,24,7.0,0.0
12085,79.0,30,24,7.0,0.0
12086,75.0,24,24,7.0,0.0
12087,63.0,6,48,10.0,0.0
12088,87.0,30,24,7.0,0.0
12089,61.0,6,48,10.0,0.0
12090,73.0,24,24,7.0,0.0
12091,85.0,30,24,7.0,0.0
12092,70.0,24,24,7.0,0.0
12093,58.0,6,48,10.0,0.0
12094,82.0,30,24,7.0,0.0
12095,67.0,24,24,7.0,0.0
12096,55.0,6,48,10.0,0.0
12097,79.0,30,24,7.0,0.0
12098,63.0,24,24,7.0,0.0
12099,51.0,6,48,10.0,0.0
12100,75.0,30,24,7.0,0.0
12101,49.0,6,48,10.0,0.0
12102,61.0,24,24,7.0,0.0
12103,73.0,30,24,7.0,0.0
12104,58.0,24,24,7.0,0.0
12105,46.0,6,48,10.0,0.0
12106,70.0,30,24,7.0,0.0
12107,55.0,24,24,7.0,0.0
12108,43.0,6,48,10.0,0.0
12109,67.0,30,24,7.0,0.0
12110,51.0,24,24,7.0,0.0
12111,39.0,6,48,10.0,0.0
12112,63.0,30,24,7.0,0.0
12113,55.0,24,24,7.0,0.0
12114,43.0,6,48,10.0,0.0
12115,67.0,30,24,7.0,0.0
12116,46.0,6,48,10.0,0.0
12117,58.0,24,24,7.0,0.0
12118,70.0,30,24,7.0,0.0
12119,49.0,6,48,10.0,0.0
12120,61.0,24,24,7.0,0.0
12121,73.0,30,24,7.0,0.0
12122,63.0,24,24,7.0,0.0
12123,51.0,6,48,10.0,0.0
12124,75.0,30,24,7.0,0.0
12125,55.0,6,48,10.0,0.0
12126,67.0,24,24,7.0,0.0
12127,79.0,30,24,7.0,0.0
12128,58.0,6,48,10.0,0.0
12129,70.0,24,24,7.0,0.0
12130,82.0,30,24,7.0,0.0
12131,73.0,24,24,7.0,0.0
12132,61.0,6,48,10.0,0.0
12133,85.0,30,24,7.0,0.0
12134,75.0,24,24,7.0,0.0
12135,63.0,6,48,10.0,0.0
12136,87.0,30,24,7.0,0.0
12137,79.0,24,24,7.0,0.0
12138,67.0,6,48,10.0,0.0
12139,91.0,30,24,7.0,0.0
12140,70.0,6,48,10.0,0.0
12141,82.0,24,24,7.0,0.0
12142,94.0,30,24,7.0,0.0
12143,83.0,24,24,7.0,0.0
12144,71.0,6,48,10.0,0.0
12145,95.0,30,24,7.0,0.0
12146,84.0,24,24,7.0,0.0
12147,72.0,6,48,10.0,0.0
12148,96.0,30,24,7.0,0.0
12149,85.0,24,24,7.0,0.0
12150,73.0,6,48,10.0,0.0
12151,97.0,30,24,7.0,0.0
12152,61.0,6,48,10.0,0.0
12153,73.0,24,24,7.0,0.0
12154,85.0,30,24,7.0,0.0
12155,72.0,24,24,7.0,0.0
12156,60.0,6,48,10.0,0.0
12157,84.0,30,24,7.0,0.0
12158,85.0,24,24,7.0,0.0
12159,73.0,6,48,10.0,0.0
12160,97.0,30,24,7.0,0.0
12161,61.0,6,48,10.0,0.0
12162,73.0,24,24,7.0,0.0
12163,85.0,30,24,7.0,0.0
12164,60.0,6,48,10.0,0.0
12165,72.0,24,24,7.0,0.0
12166,84.0,30,24,7.0,0.0
12167,73.0,6,48,10.0,0.0
12168,85.0,24,24,7.0,0.0
12169,97.0,30,24,7.0,0.0
12170,61.0,6,48,10.0,0.0
12171,73.0,24,24,7.0,0.0
12172,85.0,30,24,7.0,0.0
12173,72.0,24,24,7.0,0.0
12174,60.0,6,48,10.0,0.0
12175,84.0,30,24,7.0,0.0
12176,85.0,24,24,7.0,0.0
12177,73.0,6,48,10.0,0.0
12178,97.0,30,24,7.0,0.0
12179,61.0,6,48,10.0,0.0
12180,73.0,24,24,7.0,0.0
12181,85.0,30,24,7.0,0.0
12182,72.0,24,24,7.0,0.0
12183,60.0,6,48,10.0,0.0
12184,84.0,30,24,7.0,0.0
12185,71.0,24,24,7.0,0.0
12186,59.0,6,48,10.0,0.0
12187,83.0,30,24,7.0,0.0
12188,58.0,6,48,10.0,0.0
12189,70.0,24,24,7.0,0.0
12190,82.0,30,24,7.0,0.0
12191,57.0,6,48,10.0,0.0
12192,69.0,24,24,7.0,0.0
12193,81.0,30,24,7.0,0.0
12194,68.0,24,24,7.0,0.0
12195,56.0,6,48,10.0,0.0
12196,80.0,30,24,7.0,0.0
12197,55.0,6,48,10.0,0.0
12198,67.0,24,24,7.0,0.0
12199,79.0,30,24,7.0,0.0
12200,66.0,24,24,7.0,0.0
12201,54.0,6,48,10.0,0.0
12202,78.0,30,24,7.0,0.0
12203,53.0,6,48,10.0,0.0
12204,65.0,24,24,7.0,0.0
12205,77.0,30,24,7.0,0.0
12206,64.0,24,24,7.0,0.0
12207,52.0,6,48,10.0,0.0
12208,76.0,30,24,7.0,0.0
12209,51.0,6,48,10.0,0.0
12210,63.0,24,24,7.0,0.0
12211,75.0,30,24,7.0,0.0
12212,50.0,6,48,10.0,0.0
12213,62.0,24,24,7.0,0.0
12214,74.0,30,24,7.0,0.0
12215,63.0,24,24,7.0,0.0
12216,51.0,6,48,10.0,0.0
12217,75.0,30,24,7.0,0.0
12218,51.0,6,48,10.0,0.0
12219,63.0,24,24,7.0,0.0
12220,75.0,54,24,7.0,0.0
12221,44.0,60,48,10.0,0.0
12222,68.0,0,48,7.0,0.0
12223,72.0,0,48,7.0,0.0
12224,75.0,0,48,7.0,0.0
12225,63.0,60,48,10.0,0.0
12226,72.0,0,48,7.0,0.0
12227,80.0,0,48,7.0,0.0
12228,68.0,0,48,7.0,0.0
12229,60.0,0,48,10.0,0.0
12230,51.0,0,48,10.0,0.0
12231,56.0,0,48,10.0,0.0
12232,75.0,60,48,7.0,0.0
12233,80.0,0,48,7.0,0.0
12234,72.0,0,48,7.0,0.0
12235,44.0,60,48,10.0,0.0
12236,72.0,0,48,7.0,0.0
12237,75.0,0,48,7.0,0.0
12238,84.0,0,48,7.0,0.0
12239,63.0,36,48,10.0,0.0
12240,75.0,54,54,7.0,0.0
12241,80.0,0,54,7.0,0.0
12242,60.0,6,48,10.0,0.0
12243,51.0,0,48,10.0,0.0
12244,84.0,24,24,7.0,0.0
12245,87.0,0,24,7.0,0.0
12246,80.0,0,54,7.0,0.0
12247,87.0,0,54,7.0,0.0
12248,84.0,54,54,7.0,0.0
12249,44.0,6,48,10.0,0.0
12250,92.0,0,24,7.0,0.0
12251,63.0,60,48,10.0,0.0
12252,87.0,12,216,7.0,0.0
12253,80.0,0,216,7.0,0.0
12254,92.0,0,216,7.0,0.0
12255,84.0,0,216,7.0,0.0
12256,60.0,60,48,10.0,0.0
12257,51.0,0,48,10.0,0.0
12258,44.0,48,48,10.0,0.0
12259,63.0,36,48,10.0,0.0
12260,60.0,0,24,11.0,0.0
12261,56.0,0,48,13.0,0.0
12262,48.0,0,24,11.0,0.0
12263,80.0,0,24,11.0,0.0
12264,80.0,0,24,0.0,0.0
12265,56.0,6,48,12.0,0.0
12266,63.0,0,48,5.0,0.0
12267,68.0,24,24,3.0,0.0
12268,68.0,0,24,0.0,0.0
12269,56.0,0,24,4.0,0.0
12270,75.0,0,48,1.0,0.0
12271,72.0,0,48,1.0,0.0
12272,51.0,0,48,10.0,0.0
12273,60.0,0,48,10.0,0.0
12274,56.0,0,48,10.0,0.0
12275,51.0,0,48,5.0,0.0
12276,72.0,0,24,3.0,0.0
12277,72.0,0,24,0.0,0.0
12278,51.0,0,24,11.0,0.0
12279,84.0,0,24,0.0,0.0
12280,56.0,30,24,11.0,0.0
12281,84.0,0,24,11.0,0.0
12282,60.0,0,24,4.0,0.0
12283,61.0,24,24,11.0,0.0
12284,70.0,0,48,3.0,0.0
12285,55.0,6,48,12.0,0.0
12286,55.0,0,48,13.0,0.0
12287,82.0,0,48,11.0,0.0
12288,63.0,0,96,5.0,0.0
12289,51.0,18,96,5.0,0.0
12290,58.0,0,48,4.0,0.0
12291,51.0,0,96,6.0,0.0
12292,63.0,0,96,6.0,0.0
12293,51.0,0,96,8.0,0.0
12294,75.0,0,48,1.0,0.0
12295,70.0,0,48,1.0,0.0
12296,49.0,0,24,11.0,0.0
12297,82.0,0,48,0.0,0.0
12298,70.0,0,48,0.0,0.0
12299,51.0,30,24,11.0,0.0
12300,58.0,0,24,11.0,0.0
12301,61.0,0,24,11.0,0.0
12302,49.0,12,24,11.0,0.0
12303,58.0,30,24,11.0,0.0
12304,51.0,0,24,11.0,0.0
12305,87.0,0,48,0.0,0.0
12306,51.0,6,48,5.0,0.0
12307,63.0,0,48,5.0,0.0
12308,55.0,0,24,4.0,0.0
12309,51.0,0,48,13.0,0.0
12310,51.0,0,48,12.0,0.0
12311,61.0,24,24,11.0,0.0
12312,79.0,0,24,11.0,0.0
12313,49.0,0,24,11.0,0.0
12314,79.0,0,24,1.0,0.0
12315,82.0,0,48,0.0,0.0
12316,66.0,0,24,3.0,0.0
12317,70.0,0,24,3.0,0.0
12318,82.0,0,24,11.0,0.0
12319,58.0,0,24,11.0,0.0
12320,82.0,30,24,1.0,0.0
12321,58.0,0,24,4.0,0.0
12322,51.0,0,24,11.0,0.0
12323,51.0,0,96,5.0,0.0
12324,63.0,16,96,5.0,0.0
12325,80.0,0,48,1.0,0.0
12326,56.0,0,48,12.0,0.0
12327,68.0,0,48,3.0,0.0
12328,56.0,0,48,13.0,0.0
12329,56.0,0,48,4.0,0.0
12330,84.0,0,48,0.0,0.0
12331,46.0,24,24,11.0,0.0
12332,51.0,0,96,8.0,0.0
12333,60.0,0,24,11.0,0.0
12334,80.0,6,48,11.0,0.0
12335,51.0,0,112,6.0,0.0
12336,63.0,2,112,6.0,0.0
12337,87.0,0,48,0.0,0.0
12338,56.0,0,24,11.0,0.0
12339,51.0,30,24,11.0,0.0
12340,60.0,0,24,11.0,0.0
12341,46.0,12,24,11.0,0.0
12342,56.0,0,24,11.0,0.0
12343,51.0,30,24,11.0,0.0
12344,60.0,0,48,13.0,0.0
12345,80.0,0,48,1.0,0.0
12346,75.0,0,48,11.0,0.0
12347,72.0,0,48,3.0,0.0
12348,75.0,0,48,0.0,0.0
12349,87.0,0,48,0.0,0.0
12350,84.0,0,48,1.0,0.0
12351,60.0,0,24,11.0,0.0
12352,63.0,0,48,5.0,0.0
12353,60.0,0,48,12.0,0.0
12354,51.0,0,48,5.0,0.0
12355,46.0,24,24,11.0,0.0
12356,63.0,6,48,4.0,0.0
12357,60.0,0,48,4.0,0.0
12358,68.0,0,48,3.0,0.0
12359,51.0,18,24,11.0,0.0
12360,56.0,0,24,11.0,0.0
12361,51.0,6,96,5.0,0.0
12362,75.0,0,96,0.0,0.0
12363,87.0,0,12,0.0,0.0
12364,51.0,0,96,6.0,0.0
12365,63.0,0,96,6.0,0.0
12366,58.0,0,96,11.0,0.0
12367,63.0,0,96,5.0,0.0
12368,51.0,0,96,8.0,0.0
12369,82.0,0,96,1.0,0.0
12370,51.0,0,96,12.0,0.0
12371,79.0,0,96,1.0,0.0
12372,75.0,0,12,11.0,0.0
12373,51.0,0,96,4.0,0.0
12374,51.0,0,96,13.0,0.0
12375,67.0,0,96,3.0,0.0
12376,70.0,0,96,3.0,0.0
12377,55.0,0,96,11.0,0.0
12378,63.0,15,12,4.0,0.0
12379,65.0,0,12,4.0,0.0
12380,89.0,0,12,0.0,0.0
12381,77.0,15,12,11.0,0.0
12382,63.0,0,12,4.0,0.0
12383,87.0,0,12,0.0,0.0
12384,75.0,15,12,11.0,0.0
12385,89.0,15,12,0.0,0.0
12386,77.0,0,12,11.0,0.0
12387,65.0,0,12,4.0,0.0
12388,87.0,0,12,0.0,0.0
12389,75.0,0,12,11.0,0.0
12390,63.0,15,12,4.0,0.0
12391,77.0,0,12,11.0,0.0
12392,89.0,0,12,0.0,0.0
12393,65.0,9,12,4.0,0.0
12394,75.0,0,12,11.0,0.0
12395,87.0,0,12,0.0,0.0
12396,63.0,15,12,4.0,0.0
12397,77.0,27,12,11.0,0.0
12398,89.0,0,12,0.0,0.0
12399,65.0,0,12,4.0,0.0
12400,63.0,30,24,4.0,0.0
12401,87.0,0,24,0.0,0.0
12402,75.0,0,24,11.0,0.0
12403,86.0,0,24,0.0,0.0
12404,62.0,102,24,4.0,0.0
12405,74.0,0,24,11.0,0.0
12406,75.0,0,96,11.0,0.0
12407,87.0,72,96,0.0,0.0
12408,63.0,0,96,4.0,0.0
12409,75.0,60,48,7.0,0.0
12410,72.0,60,48,7.0,0.0
12411,44.0,0,48,10.0,0.0
12412,56.0,0,48,10.0,0.0
12413,68.0,0,48,7.0,0.0
12414,75.0,0,48,7.0,0.0
12415,63.0,60,48,10.0,0.0
12416,80.0,0,48,7.0,0.0
12417,68.0,0,48,7.0,0.0
12418,72.0,0,48,7.0,0.0
12419,60.0,0,48,10.0,0.0
12420,80.0,0,48,7.0,0.0
12421,75.0,0,48,7.0,0.0
12422,72.0,60,48,7.0,0.0
12423,56.0,0,48,10.0,0.0
12424,51.0,0,48,10.0,0.0
12425,44.0,0,48,10.0,0.0
12426,72.0,60,48,7.0,0.0
12427,84.0,0,48,7.0,0.0
12428,75.0,0,48,7.0,0.0
12429,63.0,36,48,10.0,0.0
12430,80.0,0,54,7.0,0.0
12431,84.0,24,24,7.0,0.0
12432,51.0,6,48,10.0,0.0
12433,60.0,0,48,10.0,0.0
12434,75.0,0,54,7.0,0.0
12435,87.0,54,24,7.0,0.0
12436,44.0,6,48,10.0,0.0
12437,84.0,0,54,7.0,0.0
12438,80.0,0,54,7.0,0.0
12439,87.0,0,54,7.0,0.0
12440,92.0,54,24,7.0,0.0
12441,87.0,0,216,7.0,0.0
12442,80.0,12,216,7.0,0.0
12443,63.0,60,48,10.0,0.0
12444,84.0,0,216,7.0,0.0
12445,92.0,0,216,7.0,0.0
12446,51.0,60,48,10.0,0.0
12447,60.0,0,48,10.0,0.0
12448,44.0,48,48,10.0,0.0
12449,63.0,36,48,10.0,0.0
12450,60.0,0,48,10.0,0.0
12451,80.0,0,24,0.0,0.0
12452,51.0,0,48,10.0,0.0
12453,80.0,0,24,11.0,0.0
12454,68.0,0,24,0.0,0.0
12455,48.0,0,24,11.0,0.0
12456,56.0,0,48,12.0,0.0
12457,51.0,0,48,5.0,0.0
12458,63.0,0,48,5.0,0.0
12459,56.0,0,24,4.0,0.0
12460,60.0,0,24,11.0,0.0
12461,56.0,0,48,13.0,0.0
12462,75.0,0,48,1.0,0.0
12463,72.0,0,48,1.0,0.0
12464,68.0,24,24,3.0,0.0
12465,56.0,6,48,10.0,0.0
12466,84.0,0,24,11.0,0.0
12467,84.0,0,24,0.0,0.0
12468,56.0,0,24,11.0,0.0
12469,51.0,0,24,11.0,0.0
12470,60.0,0,24,4.0,0.0
12471,72.0,0,24,0.0,0.0
12472,72.0,30,24,3.0,0.0
12473,49.0,24,24,11.0,0.0
12474,55.0,0,48,13.0,0.0
12475,61.0,0,24,11.0,0.0
12476,70.0,0,48,0.0,0.0
12477,51.0,0,96,8.0,0.0
12478,55.0,0,48,12.0,0.0
12479,63.0,18,96,6.0,0.0
12480,51.0,0,96,6.0,0.0
12481,70.0,0,48,1.0,0.0
12482,82.0,0,48,0.0,0.0
12483,75.0,6,48,1.0,0.0
12484,70.0,0,48,3.0,0.0
12485,63.0,0,96,5.0,0.0
12486,51.0,0,96,5.0,0.0
12487,58.0,0,48,4.0,0.0
12488,82.0,0,48,11.0,0.0
12489,51.0,0,24,11.0,0.0
12490,58.0,30,24,11.0,0.0
12491,49.0,0,24,11.0,0.0
12492,61.0,12,24,11.0,0.0
12493,51.0,30,24,11.0,0.0
12494,58.0,0,24,11.0,0.0
12495,79.0,0,24,1.0,0.0
12496,82.0,0,48,0.0,0.0
12497,79.0,0,24,11.0,0.0
12498,51.0,0,48,5.0,0.0
12499,63.0,0,48,5.0,0.0
12500,49.0,24,24,11.0,0.0
12501,87.0,0,48,0.0,0.0
12502,51.0,6,48,12.0,0.0
12503,66.0,0,24,3.0,0.0
12504,61.0,0,24,11.0,0.0
12505,55.0,0,24,4.0,0.0
12506,51.0,0,48,13.0,0.0
12507,58.0,0,24,4.0,0.0
12508,82.0,0,24,11.0,0.0
12509,51.0,0,24,11.0,0.0
12510,82.0,30,24,1.0,0.0
12511,58.0,0,24,11.0,0.0
12512,70.0,0,24,3.0,0.0
12513,60.0,24,24,11.0,0.0
12514,51.0,16,96,5.0,0.0
12515,63.0,0,96,5.0,0.0
12516,63.0,2,112,6.0,0.0
12517,51.0,0,112,6.0,0.0
12518,56.0,0,48,12.0,0.0
12519,51.0,0,96,8.0,0.0
12520,80.0,0,48,1.0,0.0
12521,56.0,0,48,13.0,0.0
12522,84.0,0,48,0.0,0.0
12523,87.0,0,48,0.0,0.0
12524,56.0,0,48,4.0,0.0
12525,46.0,0,24,11.0,0.0
12526,68.0,0,48,3.0,0.0
12527,80.0,6,48,11.0,0.0
12528,51.0,30,24,11.0,0.0
12529,56.0,0,24,11.0,0.0
12530,60.0,12,24,11.0,0.0
12531,46.0,0,24,11.0,0.0
12532,56.0,0,24,11.0,0.0
12533,51.0,30,24,11.0,0.0
12534,46.0,0,24,11.0,0.0
12535,80.0,0,48,1.0,0.0
12536,60.0,6,48,4.0,0.0
12537,75.0,0,48,11.0,0.0
12538,63.0,0,48,5.0,0.0
12539,51.0,0,48,5.0,0.0
12540,60.0,0,48,12.0,0.0
12541,60.0,24,24,11.0,0.0
12542,60.0,0,48,13.0,0.0
12543,63.0,0,48,4.0,0.0
12544,72.0,0,48,3.0,0.0
12545,68.0,0,48,3.0,0.0
12546,84.0,0,48,1.0,0.0
12547,75.0,0,48,0.0,0.0
12548,87.0,0,48,0.0,0.0
12549,56.0,0,24,11.0,0.0
12550,51.0,18,24,11.0,0.0
12551,51.0,0,96,8.0,0.0
12552,51.0,0,96,6.0,0.0
12553,67.0,0,96,3.0,0.0
12554,70.0,6,96,3.0,0.0
12555,82.0,0,96,1.0,0.0
12556,63.0,0,96,6.0,0.0
12557,51.0,0,96,12.0,0.0
12558,55.0,0,96,11.0,0.0
12559,51.0,0,96,5.0,0.0
12560,63.0,0,96,5.0,0.0
12561,75.0,0,96,0.0,0.0
12562,51.0,0,96,13.0,0.0
12563,79.0,0,96,1.0,0.0
12564,87.0,0,12,0.0,0.0
12565,75.0,0,12,11.0,0.0
12566,58.0,0,96,11.0,0.0
12567,63.0,15,12,4.0,0.0
12568,51.0,0,96,4.0,0.0
12569,77.0,0,12,11.0,0.0
12570,89.0,15,12,0.0,0.0
12571,65.0,0,12,4.0,0.0
12572,75.0,15,12,11.0,0.0
12573,87.0,0,12,0.0,0.0
12574,63.0,0,12,4.0,0.0
12575,89.0,0,12,0.0,0.0
12576,65.0,0,12,4.0,0.0
12577,77.0,15,12,11.0,0.0
12578,63.0,0,12,4.0,0.0
12579,87.0,0,12,0.0,0.0
12580,75.0,15,12,11.0,0.0
12581,65.0,0,12,4.0,0.0
12582,89.0,0,12,0.0,0.0
12583,77.0,9,12,11.0,0.0
12584,87.0,0,12,0.0,0.0
12585,63.0,0,12,4.0,0.0
12586,75.0,15,12,11.0,0.0
12587,77.0,0,12,11.0,0.0
12588,65.0,27,12,4.0,0.0
12589,89.0,0,12,0.0,0.0
12590,87.0,30,24,0.0,0.0
12591,63.0,0,24,4.0,0.0
12592,75.0,0,24,11.0,0.0
12593,62.0,102,24,4.0,0.0
12594,74.0,0,24,11.0,0.0
12595,86.0,0,24,0.0,0.0
12596,75.0,0,96,11.0,0.0
12597,63.0,48,96,4.0,0.0
12598,87.0,0,96,0.0,0.0
12599,65.0,0,24,10.0,0.0
12600,75.0,30,24,7.0,0.0
12601,87.0,0,24,7.0,0.0
12602,74.0,0,24,7.0,0.0
12603,68.0,30,24,10.0,0.0
12604,86.0,0,24,7.0,0.0
12605,74.0,18,96,7.0,0.0
12606,86.0,0,96,7.0,0.0
12607,65.0,30,24,10.0,0.0
12608,68.0,30,24,10.0,0.0
12609,65.0,12,24,10.0,0.0
12610,68.0,30,24,10.0,0.0
12611,63.0,30,24,10.0,0.0
12612,85.0,0,24,7.0,0.0
12613,73.0,0,24,7.0,0.0
12614,72.0,0,24,7.0,0.0
12615,67.0,30,24,10.0,0.0
12616,84.0,0,24,7.0,0.0
12617,84.0,0,96,7.0,0.0
12618,72.0,18,96,7.0,0.0
12619,63.0,30,24,10.0,0.0
12620,67.0,30,24,10.0,0.0
12621,63.0,12,24,10.0,0.0
12622,67.0,30,24,10.0,0.0
12623,61.0,30,24,10.0,0.0
12624,83.0,0,24,7.0,0.0
12625,71.0,0,24,7.0,0.0
12626,70.0,0,24,7.0,0.0
12627,82.0,0,24,7.0,0.0
12628,65.0,30,24,10.0,0.0
12629,61.0,30,24,10.0,0.0
12630,82.0,18,96,7.0,0.0
12631,70.0,0,96,7.0,0.0
12632,65.0,30,24,10.0,0.0
12633,61.0,12,24,10.0,0.0
12634,65.0,30,24,10.0,0.0
12635,60.0,0,24,10.0,0.0
12636,81.0,30,24,7.0,0.0
12637,69.0,0,24,7.0,0.0
12638,80.0,30,24,7.0,0.0
12639,68.0,0,24,7.0,0.0
12640,63.0,0,24,10.0,0.0
12641,60.0,30,24,10.0,0.0
12642,68.0,0,96,7.0,0.0
12643,80.0,18,96,7.0,0.0
12644,63.0,30,24,10.0,0.0
12645,60.0,12,24,10.0,0.0
12646,63.0,30,24,10.0,0.0
12647,68.0,0,48,3.0,0.0
12648,60.0,24,24,11.0,0.0
12649,56.0,0,24,11.0,0.0
12650,51.0,0,48,5.0,0.0
12651,63.0,0,48,5.0,0.0
12652,56.0,0,48,13.0,0.0
12653,80.0,6,48,11.0,0.0
12654,56.0,0,48,12.0,0.0
12655,72.0,0,48,1.0,0.0
12656,80.0,0,48,1.0,0.0
12657,56.0,0,48,4.0,0.0
12658,51.0,30,24,11.0,0.0
12659,63.0,0,24,11.0,0.0
12660,51.0,0,96,8.0,0.0
12661,79.0,0,96,1.0,0.0
12662,51.0,0,96,5.0,0.0
12663,63.0,0,96,5.0,0.0
12664,51.0,0,96,13.0,0.0
12665,51.0,16,96,12.0,0.0
12666,63.0,0,96,6.0,0.0
12667,55.0,0,96,4.0,0.0
12668,67.0,2,112,3.0,0.0
12669,70.0,0,96,1.0,0.0
12670,61.0,0,24,11.0,0.0
12671,58.0,30,24,11.0,0.0
12672,51.0,0,96,6.0,0.0
12673,79.0,0,96,11.0,0.0
12674,51.0,0,24,11.0,0.0
12675,63.0,30,24,11.0,0.0
12676,67.0,0,24,11.0,0.0
12677,58.0,12,24,11.0,0.0
12678,51.0,30,24,11.0,0.0
12679,70.0,0,24,11.0,0.0
12680,73.0,0,48,3.0,0.0
12681,82.0,0,48,0.0,0.0
12682,87.0,0,48,0.0,0.0
12683,51.0,0,48,12.0,0.0
12684,51.0,0,48,5.0,0.0
12685,63.0,0,48,5.0,0.0
12686,79.0,6,48,11.0,0.0
12687,67.0,0,48,3.0,0.0
12688,51.0,0,48,13.0,0.0
12689,55.0,0,48,4.0,0.0
12690,58.0,0,24,11.0,0.0
12691,73.0,24,24,11.0,0.0
12692,61.0,0,48,4.0,0.0
12693,70.0,0,48,1.0,0.0
12694,79.0,0,48,1.0,0.0
12695,58.0,30,24,11.0,0.0
12696,73.0,0,24,11.0,0.0
12697,73.0,0,72,3.0,0.0
12698,70.0,0,72,1.0,0.0
12699,63.0,0,96,6.0,0.0
12700,51.0,18,96,6.0,0.0
12701,55.0,0,72,4.0,0.0
12702,61.0,0,72,4.0,0.0
12703,67.0,0,72,3.0,0.0
12704,51.0,0,96,8.0,0.0
12705,82.0,0,72,0.0,0.0
12706,63.0,0,72,5.0,0.0
12707,51.0,12,72,13.0,0.0
12708,51.0,0,72,12.0,0.0
12709,58.0,0,24,11.0,0.0
12710,87.0,0,72,0.0,0.0
12711,79.0,0,72,11.0,0.0
12712,51.0,0,72,5.0,0.0
12713,73.0,30,24,11.0,0.0
12714,79.0,0,72,1.0,0.0
12715,51.0,0,24,11.0,0.0
12716,63.0,18,24,11.0,0.0
12717,58.0,0,24,11.0,0.0
12718,73.0,12,24,11.0,0.0
12719,56.0,0,24,11.0,0.0
12720,80.0,30,24,11.0,0.0
12721,72.0,0,24,11.0,0.0
12722,63.0,0,24,5.0,0.0
12723,51.0,0,24,5.0,0.0
12724,56.0,0,24,4.0,0.0
12725,72.0,0,24,1.0,0.0
12726,51.0,0,24,13.0,0.0
12727,60.0,0,24,4.0,0.0
12728,80.0,0,24,1.0,0.0
12729,51.0,0,24,12.0,0.0
12730,72.0,0,24,3.0,0.0
12731,68.0,0,24,3.0,0.0
12732,87.0,0,24,0.0,0.0
12733,84.0,0,24,0.0,0.0
12734,70.0,24,24,11.0,0.0
12735,51.0,0,48,12.0,0.0
12736,51.0,0,48,13.0,0.0
12737,67.0,0,48,3.0,0.0
12738,70.0,0,48,3.0,0.0
12739,51.0,0,48,4.0,0.0
12740,87.0,0,48,0.0,0.0
12741,82.0,0,48,0.0,0.0
12742,82.0,0,48,1.0,0.0
12743,79.0,0,48,1.0,0.0
12744,55.0,0,24,11.0,0.0
12745,51.0,0,48,5.0,0.0
12746,63.0,6,48,5.0,0.0
12747,58.0,0,48,4.0,0.0
12748,82.0,0,48,11.0,0.0
12749,70.0,30,24,11.0,0.0
12750,55.0,0,24,11.0,0.0
12751,63.0,0,96,5.0,0.0
12752,51.0,0,96,5.0,0.0
12753,56.0,24,24,11.0,0.0
12754,44.0,0,96,4.0,0.0
12755,58.0,6,48,4.0,0.0
12756,70.0,0,48,3.0,0.0
12757,56.0,0,96,12.0,0.0
12758,82.0,0,48,1.0,0.0
12759,87.0,0,96,0.0,0.0
12760,84.0,0,96,0.0,0.0
12761,51.0,12,96,8.0,0.0
12762,72.0,0,24,11.0,0.0
12763,63.0,0,96,6.0,0.0
12764,82.0,0,48,11.0,0.0
12765,51.0,0,96,6.0,0.0
12766,56.0,0,96,13.0,0.0
12767,63.0,30,24,11.0,0.0
12768,51.0,0,24,11.0,0.0
12769,84.0,0,48,1.0,0.0
12770,56.0,12,24,11.0,0.0
12771,60.0,0,48,4.0,0.0
12772,84.0,0,48,11.0,0.0
12773,72.0,0,24,11.0,0.0
12774,72.0,6,48,3.0,0.0
12775,75.0,0,48,1.0,0.0
12776,63.0,0,48,3.0,0.0
12777,63.0,30,24,11.0,0.0
12778,51.0,0,24,11.0,0.0
12779,56.0,0,24,11.0,0.0
12780,72.0,24,24,11.0,0.0
12781,56.0,0,48,12.0,0.0
12782,56.0,0,48,13.0,0.0
12783,63.0,0,48,5.0,0.0
12784,51.0,0,48,5.0,0.0
12785,80.0,0,48,11.0,0.0
12786,56.0,0,48,4.0,0.0
12787,87.0,0,48,0.0,0.0
12788,68.0,0,48,3.0,0.0
12789,44.0,0,48,4.0,0.0
12790,60.0,0,48,3.0,0.0
12791,84.0,0,48,0.0,0.0
12792,80.0,0,48,1.0,0.0
12793,72.0,6,48,1.0,0.0
12794,63.0,102,24,11.0,0.0
12795,51.0,0,24,11.0,0.0
12796,80.0,0,96,11.0,0.0
12797,44.0,16,96,4.0,0.0
12798,56.0,0,96,4.0,0.0
12799,68.0,0,96,3.0,0.0
12800,60.0,0,96,3.0,0.0
12801,51.0,0,96,5.0,0.0
12802,63.0,0,96,5.0,0.0
12803,84.0,0,96,0.0,0.0
12804,63.0,0,96,11.0,0.0
12805,80.0,0,112,1.0,0.0
12806,72.0,32,112,1.0,0.0
12807,56.0,0,96,13.0,0.0
12808,56.0,0,96,11.0,0.0
12809,87.0,0,96,0.0,0.0
12810,72.0,0,96,11.0,0.0
12811,56.0,0,96,12.0,0.0
12812,51.0,0,96,11.0,0.0
12813,75.0,30,24,7.0,0.0
12814,65.0,0,24,10.0,0.0
12815,87.0,0,24,7.0,0.0
12816,68.0,30,24,10.0,0.0
12817,65.0,0,24,10.0,0.0
12818,75.0,30,24,7.0,0.0
12819,68.0,0,24,10.0,0.0
12820,87.0,30,24,7.0,0.0
12821,75.0,30,24,7.0,0.0
12822,65.0,0,24,10.0,0.0
12823,68.0,0,24,10.0,0.0
12824,74.0,30,24,7.0,0.0
12825,63.0,30,24,10.0,0.0
12826,73.0,0,24,7.0,0.0
12827,85.0,30,24,7.0,0.0
12828,67.0,0,24,10.0,0.0
12829,63.0,0,24,10.0,0.0
12830,73.0,30,24,7.0,0.0
12831,67.0,0,24,10.0,0.0
12832,85.0,30,24,7.0,0.0
12833,73.0,0,24,7.0,0.0
12834,63.0,30,24,10.0,0.0
12835,67.0,30,24,10.0,0.0
12836,72.0,0,24,7.0,0.0
12837,71.0,0,24,7.0,0.0
12838,61.0,30,24,10.0,0.0
12839,65.0,0,24,10.0,0.0
12840,83.0,30,24,7.0,0.0
12841,61.0,0,24,10.0,0.0
12842,71.0,30,24,7.0,0.0
12843,65.0,30,24,10.0,0.0
12844,83.0,0,24,7.0,0.0
12845,71.0,0,24,7.0,0.0
12846,61.0,30,24,10.0,0.0
12847,70.0,30,24,7.0,0.0
12848,65.0,0,24,10.0,0.0
12849,60.0,30,24,10.0,0.0
12850,69.0,0,24,7.0,0.0
12851,81.0,30,24,7.0,0.0
12852,63.0,0,24,10.0,0.0
12853,60.0,0,24,10.0,0.0
12854,68.0,30,24,7.0,0.0
12855,63.0,0,24,10.0,0.0
12856,80.0,30,24,7.0,0.0
12857,60.0,0,24,10.0,0.0
12858,68.0,30,24,7.0,0.0
12859,63.0,0,24,10.0,0.0
12860,80.0,30,24,7.0,0.0
12861,48.0,0,24,12.0,0.0
12862,60.0,0,24,11.0,0.0
12863,47.0,0,24,12.0,0.0
12864,59.0,0,24,11.0,0.0
12865,47.0,0,24,12.0,0.0
12866,59.0,0,24,11.0,0.0
12867,59.0,0,24,11.0,0.0
12868,47.0,0,24,12.0,0.0
12869,59.0,0,24,11.0,0.0
12870,47.0,30,24,12.0,0.0
12871,47.0,0,24,12.0,0.0
12872,59.0,0,24,11.0,0.0
12873,46.0,0,24,12.0,0.0
12874,58.0,0,24,11.0,0.0
12875,57.0,0,24,11.0,0.0
12876,45.0,30,24,12.0,0.0
12877,57.0,0,24,11.0,0.0
12878,45.0,0,24,12.0,0.0
12879,57.0,0,24,11.0,0.0
12880,45.0,30,24,12.0,0.0
12881,57.0,0,24,11.0,0.0
12882,45.0,30,24,12.0,0.0
12883,45.0,0,24,12.0,0.0
12884,57.0,0,24,11.0,0.0
12885,56.0,0,24,11.0,0.0
12886,44.0,30,24,12.0,0.0
12887,43.0,30,24,12.0,0.0
12888,55.0,0,24,11.0,0.0
12889,55.0,0,24,11.0,0.0
12890,43.0,0,24,12.0,0.0
12891,43.0,0,24,12.0,0.0
12892,55.0,0,24,11.0,0.0
12893,55.0,0,24,11.0,0.0
12894,43.0,0,24,12.0,0.0
12895,55.0,0,24,11.0,0.0
12896,43.0,30,24,12.0,0.0
12897,42.0,0,24,12.0,0.0
12898,54.0,30,24,11.0,0.0
12899,41.0,0,24,12.0,0.0
12900,53.0,30,24,11.0,0.0
12901,41.0,30,24,12.0,0.0
12902,53.0,0,24,11.0,0.0
12903,41.0,30,24,12.0,0.0
12904,53.0,0,24,11.0,0.0
12905,40.0,30,24,12.0,0.0
12906,52.0,0,24,11.0,0.0
12907,40.0,0,24,12.0,0.0
12908,52.0,30,24,11.0,0.0
12909,55.0,0,48,4.0,0.0
12910,58.0,0,48,4.0,0.0
12911,46.0,0,48,5.0,0.0
12912,51.0,24,24,13.0,0.0
12913,39.0,0,24,12.0,0.0
12914,55.0,0,24,11.0,0.0
12915,51.0,0,24,11.0,0.0
12916,82.0,6,48,0.0,0.0
12917,70.0,0,48,0.0,0.0
12918,58.0,0,48,5.0,0.0
12919,70.0,0,48,1.0,0.0
12920,82.0,0,48,1.0,0.0
12921,70.0,0,24,11.0,0.0
12922,58.0,0,24,11.0,0.0
12923,70.0,0,48,3.0,0.0
12924,67.0,0,48,3.0,0.0
12925,58.0,0,24,11.0,0.0
12926,51.0,0,24,11.0,0.0
12927,55.0,30,24,11.0,0.0
12928,51.0,0,24,13.0,0.0
12929,70.0,0,24,11.0,0.0
12930,39.0,0,24,12.0,0.0
12931,51.0,0,96,6.0,0.0
12932,51.0,0,96,8.0,0.0
12933,39.0,0,24,12.0,0.0
12934,87.0,0,96,0.0,0.0
12935,70.0,0,96,3.0,0.0
12936,58.0,0,96,4.0,0.0
12937,55.0,0,96,5.0,0.0
12938,79.0,0,96,3.0,0.0
12939,55.0,0,96,4.0,0.0
12940,51.0,0,24,11.0,0.0
12941,55.0,30,24,11.0,0.0
12942,58.0,0,24,11.0,0.0
12943,70.0,0,24,11.0,0.0
12944,91.0,0,96,0.0,0.0
12945,79.0,0,96,1.0,0.0
12946,51.0,0,24,13.0,0.0
12947,82.0,0,96,1.0,0.0
12948,63.0,18,96,6.0,0.0
12949,63.0,0,96,5.0,0.0
12950,51.0,0,24,13.0,0.0
12951,75.0,0,24,11.0,0.0
12952,55.0,0,24,11.0,0.0
12953,58.0,30,24,11.0,0.0
12954,51.0,0,24,12.0,0.0
12955,63.0,0,24,11.0,0.0
12956,51.0,0,24,13.0,0.0
12957,58.0,0,24,11.0,0.0
12958,51.0,0,24,12.0,0.0
12959,55.0,0,24,11.0,0.0
12960,63.0,0,24,11.0,0.0
12961,75.0,12,24,11.0,0.0
12962,63.0,0,24,11.0,0.0
12963,58.0,0,24,11.0,0.0
12964,55.0,0,24,11.0,0.0
12965,51.0,0,24,13.0,0.0
12966,51.0,0,24,12.0,0.0
12967,75.0,30,24,11.0,0.0
12968,63.0,0,24,11.0,0.0
12969,51.0,0,24,13.0,0.0
12970,75.0,0,24,11.0,0.0
12971,51.0,30,24,12.0,0.0
12972,55.0,0,24,11.0,0.0
12973,58.0,0,24,11.0,0.0
12974,51.0,0,24,12.0,0.0
12975,51.0,0,24,13.0,0.0
12976,63.0,30,24,11.0,0.0
12977,58.0,0,24,11.0,0.0
12978,79.0,0,24,11.0,0.0
12979,67.0,0,24,11.0,0.0
12980,63.0,0,24,11.0,0.0
12981,58.0,30,24,11.0,0.0
12982,79.0,0,96,1.0,0.0
12983,51.0,0,96,6.0,0.0
12984,67.0,0,24,11.0,0.0
12985,63.0,0,96,5.0,0.0
12986,91.0,0,96,0.0,0.0
12987,70.0,0,96,3.0,0.0
12988,79.0,18,96,3.0,0.0
12989,87.0,0,96,0.0,0.0
12990,63.0,0,96,6.0,0.0
12991,51.0,0,24,13.0,0.0
12992,51.0,0,24,12.0,0.0
12993,51.0,0,96,8.0,0.0
12994,79.0,0,24,11.0,0.0
12995,58.0,0,96,4.0,0.0
12996,55.0,0,96,4.0,0.0
12997,82.0,0,96,1.0,0.0
12998,55.0,0,96,5.0,0.0
12999,51.0,30,24,12.0,0.0
13000,67.0,0,24,11.0,0.0
13001,51.0,0,24,13.0,0.0
13002,58.0,0,24,11.0,0.0
13003,79.0,0,24,11.0,0.0
13004,63.0,0,24,11.0,0.0
13005,58.0,0,24,11.0,0.0
13006,63.0,0,24,11.0,0.0
13007,79.0,0,24,11.0,0.0
13008,67.0,0,24,11.0,0.0
13009,51.0,0,24,12.0,0.0
13010,51.0,12,24,13.0,0.0
13011,79.0,30,24,11.0,0.0
13012,63.0,0,24,11.0,0.0
13013,51.0,0,24,12.0,0.0
13014,67.0,0,24,11.0,0.0
13015,51.0,0,24,13.0,0.0
13016,58.0,0,24,11.0,0.0
13017,51.0,30,24,13.0,0.0
13018,51.0,0,24,12.0,0.0
13019,58.0,0,24,11.0,0.0
13020,79.0,0,24,11.0,0.0
13021,67.0,0,24,11.0,0.0
13022,63.0,0,24,11.0,0.0
13023,51.0,0,24,13.0,0.0
13024,82.0,0,24,11.0,0.0
13025,63.0,0,24,11.0,0.0
13026,67.0,0,24,11.0,0.0
13027,51.0,30,24,12.0,0.0
13028,70.0,0,24,11.0,0.0
13029,70.0,0,24,11.0,0.0
13030,51.0,0,24,13.0,0.0
13031,51.0,0,24,12.0,0.0
13032,91.0,0,96,0.0,0.0
13033,63.0,0,96,6.0,0.0
13034,63.0,0,96,5.0,0.0
13035,70.0,0,96,3.0,0.0
13036,51.0,18,96,6.0,0.0
13037,51.0,0,96,8.0,0.0
13038,58.0,0,96,4.0,0.0
13039,79.0,0,96,3.0,0.0
13040,82.0,0,96,1.0,0.0
13041,87.0,0,96,0.0,0.0
13042,55.0,0,96,4.0,0.0
13043,82.0,30,24,11.0,0.0
13044,67.0,0,24,11.0,0.0
13045,63.0,0,24,11.0,0.0
13046,79.0,0,96,1.0,0.0
13047,55.0,0,96,5.0,0.0
13048,51.0,30,24,12.0,0.0
13049,70.0,0,24,11.0,0.0
13050,51.0,0,24,13.0,0.0
13051,87.0,0,24,11.0,0.0
13052,67.0,0,24,11.0,0.0
13053,75.0,0,24,11.0,0.0
13054,75.0,0,24,11.0,0.0
13055,70.0,0,24,11.0,0.0
13056,67.0,0,24,11.0,0.0
13057,51.0,12,24,12.0,0.0
13058,51.0,0,24,13.0,0.0
13059,87.0,0,24,11.0,0.0
13060,51.0,30,24,13.0,0.0
13061,87.0,0,24,11.0,0.0
13062,67.0,0,24,11.0,0.0
13063,51.0,0,24,12.0,0.0
13064,70.0,0,24,11.0,0.0
13065,75.0,0,24,11.0,0.0
13066,67.0,0,24,11.0,0.0
13067,87.0,0,24,11.0,0.0
13068,75.0,0,24,11.0,0.0
13069,51.0,30,24,13.0,0.0
13070,70.0,0,24,11.0,0.0
13071,51.0,0,24,12.0,0.0
13072,51.0,0,24,12.0,0.0
13073,87.0,0,24,11.0,0.0
13074,51.0,0,24,13.0,0.0
13075,70.0,0,24,11.0,0.0
13076,75.0,30,24,11.0,0.0
13077,67.0,0,24,11.0,0.0
13078,79.0,18,96,1.0,0.0
13079,82.0,0,96,1.0,0.0
13080,51.0,0,96,6.0,0.0
13081,79.0,0,96,3.0,0.0
13082,70.0,0,24,11.0,0.0
13083,67.0,0,24,11.0,0.0
13084,63.0,0,96,6.0,0.0
13085,63.0,0,96,5.0,0.0
13086,51.0,30,24,12.0,0.0
13087,55.0,0,96,5.0,0.0
13088,51.0,0,96,8.0,0.0
13089,87.0,0,24,11.0,0.0
13090,70.0,0,96,3.0,0.0
13091,55.0,0,96,4.0,0.0
13092,58.0,0,96,4.0,0.0
13093,87.0,0,96,0.0,0.0
13094,91.0,0,96,0.0,0.0
13095,51.0,0,24,13.0,0.0
13096,75.0,0,24,11.0,0.0
13097,70.0,30,24,11.0,0.0
13098,75.0,0,24,11.0,0.0
13099,87.0,0,24,11.0,0.0
13100,51.0,0,24,12.0,0.0
13101,67.0,0,24,11.0,0.0
13102,51.0,0,24,13.0,0.0
13103,67.0,0,24,11.0,0.0
13104,70.0,0,24,11.0,0.0
13105,51.0,0,24,13.0,0.0
13106,87.0,0,24,11.0,0.0
13107,75.0,0,24,11.0,0.0
13108,51.0,0,24,12.0,0.0
13109,67.0,0,24,11.0,0.0
13110,51.0,0,24,13.0,0.0
13111,87.0,0,24,11.0,0.0
13112,75.0,0,24,11.0,0.0
13113,51.0,0,24,12.0,0.0
13114,70.0,30,24,11.0,0.0
13115,70.0,0,24,11.0,0.0
13116,51.0,0,24,13.0,0.0
13117,87.0,0,24,11.0,0.0
13118,67.0,0,24,11.0,0.0
13119,75.0,30,24,11.0,0.0
13120,51.0,0,24,12.0,0.0
13121,51.0,0,24,12.0,0.0
13122,51.0,30,24,13.0,0.0
13123,79.0,0,24,11.0,0.0
13124,67.0,0,24,11.0,0.0
13125,58.0,0,24,11.0,0.0
13126,91.0,0,24,11.0,0.0
13127,58.0,0,96,5.0,0.0
13128,58.0,0,96,6.0,0.0
13129,58.0,0,24,11.0,0.0
13130,77.0,0,96,1.0,0.0
13131,46.0,0,96,6.0,0.0
13132,68.0,0,24,11.0,0.0
13133,53.0,0,96,4.0,0.0
13134,50.0,30,24,13.0,0.0
13135,80.0,0,96,1.0,0.0
13136,86.0,0,96,0.0,0.0
13137,77.0,0,24,11.0,0.0
13138,56.0,0,96,4.0,0.0
13139,89.0,18,96,0.0,0.0
13140,68.0,0,96,3.0,0.0
13141,77.0,0,96,3.0,0.0
13142,46.0,0,96,8.0,0.0
13143,50.0,0,24,12.0,0.0
13144,89.0,0,24,11.0,0.0
13145,65.0,0,96,5.0,0.0
13146,58.0,0,24,11.0,0.0
13147,77.0,30,24,11.0,0.0
13148,50.0,0,24,13.0,0.0
13149,50.0,0,24,12.0,0.0
13150,89.0,0,24,11.0,0.0
13151,56.0,0,24,11.0,0.0
13152,77.0,0,24,11.0,0.0
13153,50.0,0,24,13.0,0.0
13154,50.0,12,24,12.0,0.0
13155,56.0,0,24,11.0,0.0
13156,58.0,0,24,11.0,0.0
13157,89.0,0,24,11.0,0.0
13158,58.0,0,24,11.0,0.0
13159,50.0,0,24,13.0,0.0
13160,56.0,0,24,11.0,0.0
13161,77.0,0,24,11.0,0.0
13162,50.0,30,24,12.0,0.0
13163,89.0,0,24,11.0,0.0
13164,46.0,0,24,13.0,0.0
13165,46.0,0,24,12.0,0.0
13166,58.0,0,24,11.0,0.0
13167,56.0,0,24,11.0,0.0
13168,86.0,0,24,11.0,0.0
13169,74.0,30,24,11.0,0.0
13170,89.0,0,24,11.0,0.0
13171,46.0,0,24,13.0,0.0
13172,56.0,0,24,11.0,0.0
13173,77.0,0,24,11.0,0.0
13174,58.0,0,24,11.0,0.0
13175,46.0,30,24,12.0,0.0
13176,87.0,0,24,11.0,0.0
13177,75.0,0,24,11.0,0.0
13178,63.0,0,96,5.0,0.0
13179,51.0,30,24,12.0,0.0
13180,46.0,18,96,8.0,0.0
13181,58.0,0,96,6.0,0.0
13182,46.0,0,96,6.0,0.0
13183,51.0,0,24,13.0,0.0
13184,51.0,0,96,4.0,0.0
13185,55.0,0,96,5.0,0.0
13186,55.0,0,96,4.0,0.0
13187,68.0,0,96,3.0,0.0
13188,79.0,0,96,1.0,0.0
13189,55.0,0,24,11.0,0.0
13190,58.0,0,24,11.0,0.0
13191,75.0,0,96,1.0,0.0
13192,82.0,0,96,0.0,0.0
13193,87.0,0,96,0.0,0.0
13194,75.0,0,96,3.0,0.0
13195,51.0,30,24,13.0,0.0
13196,75.0,0,24,11.0,0.0
13197,55.0,0,24,11.0,0.0
13198,87.0,0,24,11.0,0.0
13199,58.0,0,24,11.0,0.0
13200,51.0,0,24,12.0,0.0
13201,51.0,0,24,13.0,0.0
13202,55.0,0,24,11.0,0.0
13203,58.0,0,24,11.0,0.0
13204,51.0,0,24,12.0,0.0
13205,75.0,12,24,11.0,0.0
13206,87.0,0,24,11.0,0.0
13207,87.0,0,24,11.0,0.0
13208,51.0,0,24,12.0,0.0
13209,58.0,0,24,11.0,0.0
13210,51.0,0,24,13.0,0.0
13211,55.0,0,24,11.0,0.0
13212,75.0,30,24,11.0,0.0
13213,58.0,0,24,11.0,0.0
13214,55.0,0,24,13.0,0.0
13215,63.0,0,24,11.0,0.0
13216,55.0,30,24,11.0,0.0
13217,82.0,0,24,11.0,0.0
13218,55.0,0,24,12.0,0.0
13219,70.0,0,24,11.0,0.0
13220,55.0,0,24,12.0,0.0
13221,55.0,0,24,13.0,0.0
13222,82.0,0,24,11.0,0.0
13223,58.0,0,24,11.0,0.0
13224,63.0,0,24,11.0,0.0
13225,70.0,0,24,11.0,0.0
13226,55.0,30,24,11.0,0.0
13227,58.0,0,24,12.0,0.0
13228,70.0,0,24,11.0,0.0
13229,74.0,0,112,3.0,0.0
13230,65.0,2,112,3.0,0.0
13231,58.0,0,24,13.0,0.0
13232,58.0,0,96,6.0,0.0
13233,46.0,16,96,6.0,0.0
13234,82.0,0,24,11.0,0.0
13235,58.0,0,96,5.0,0.0
13236,86.0,0,96,0.0,0.0
13237,62.0,0,96,4.0,0.0
13238,65.0,0,96,5.0,0.0
13239,46.0,0,96,8.0,0.0
13240,89.0,0,96,0.0,0.0
13241,58.0,0,24,11.0,0.0
13242,62.0,30,24,11.0,0.0
13243,53.0,0,24,11.0,0.0
13244,53.0,0,96,4.0,0.0
13245,82.0,0,96,1.0,0.0
13246,77.0,0,96,1.0,0.0
13247,70.0,30,24,11.0,0.0
13248,82.0,0,24,11.0,0.0
13249,62.0,0,24,11.0,0.0
13250,46.0,0,24,12.0,0.0
13251,46.0,0,24,13.0,0.0
13252,65.0,0,24,11.0,0.0
13253,82.0,0,24,11.0,0.0
13254,46.0,0,24,13.0,0.0
13255,70.0,0,24,11.0,0.0
13256,46.0,0,24,12.0,0.0
13257,62.0,0,24,11.0,0.0
13258,65.0,12,24,11.0,0.0
13259,46.0,0,24,12.0,0.0
13260,65.0,30,24,11.0,0.0
13261,70.0,0,24,11.0,0.0
13262,46.0,0,24,13.0,0.0
13263,62.0,0,24,11.0,0.0
13264,82.0,0,24,11.0,0.0
13265,46.0,0,24,13.0,0.0
13266,46.0,30,24,12.0,0.0
13267,62.0,0,24,11.0,0.0
13268,65.0,0,24,11.0,0.0
13269,70.0,0,24,11.0,0.0
13270,82.0,0,24,11.0,0.0
13271,46.0,30,24,12.0,0.0
13272,69.0,0,24,11.0,0.0
13273,58.0,0,24,13.0,0.0
13274,63.0,0,24,11.0,0.0
13275,66.0,0,24,11.0,0.0
13276,81.0,0,24,11.0,0.0
13277,74.0,0,96,3.0,0.0
13278,86.0,0,96,0.0,0.0
13279,77.0,0,96,1.0,0.0
13280,82.0,18,96,1.0,0.0
13281,65.0,0,96,3.0,0.0
13282,89.0,0,96,0.0,0.0
13283,58.0,0,96,6.0,0.0
13284,58.0,0,96,5.0,0.0
13285,65.0,0,96,5.0,0.0
13286,53.0,0,96,4.0,0.0
13287,62.0,0,96,4.0,0.0
13288,46.0,0,96,8.0,0.0
13289,70.0,0,24,11.0,0.0
13290,65.0,0,24,11.0,0.0
13291,82.0,0,24,11.0,0.0
13292,46.0,30,24,12.0,0.0
13293,62.0,0,24,11.0,0.0
13294,46.0,0,96,6.0,0.0
13295,58.0,0,24,13.0,0.0
13296,82.0,0,24,11.0,0.0
13297,58.0,0,24,11.0,0.0
13298,70.0,0,24,11.0,0.0
13299,46.0,0,24,12.0,0.0
13300,58.0,30,24,13.0,0.0
13301,70.0,0,24,11.0,0.0
13302,46.0,0,24,12.0,0.0
13303,58.0,0,24,13.0,0.0
13304,58.0,0,24,11.0,0.0
13305,82.0,12,24,11.0,0.0
13306,44.0,0,24,12.0,0.0
13307,56.0,30,24,11.0,0.0
13308,70.0,0,24,11.0,0.0
13309,56.0,0,24,13.0,0.0
13310,82.0,0,24,11.0,0.0
13311,55.0,0,48,4.0,0.0
13312,70.0,0,48,0.0,0.0
13313,82.0,0,48,0.0,0.0
13314,58.0,0,48,6.0,0.0
13315,46.0,0,48,6.0,0.0
13316,58.0,0,24,11.0,0.0
13317,55.0,0,24,11.0,0.0
13318,70.0,0,48,3.0,0.0
13319,43.0,24,24,12.0,0.0
13320,51.0,0,24,11.0,0.0
13321,55.0,0,24,13.0,0.0
13322,46.0,0,48,5.0,0.0
13323,82.0,6,48,1.0,0.0
13324,70.0,0,48,1.0,0.0
13325,46.0,0,48,8.0,0.0
13326,58.0,0,48,5.0,0.0
13327,70.0,0,24,11.0,0.0
13328,58.0,0,48,4.0,0.0
13329,55.0,0,24,11.0,0.0
13330,58.0,30,24,11.0,0.0
13331,70.0,0,24,11.0,0.0
13332,53.0,0,24,13.0,0.0
13333,41.0,0,24,12.0,0.0
13334,51.0,0,24,11.0,0.0
13335,51.0,0,96,6.0,0.0
13336,70.0,0,24,11.0,0.0
13337,55.0,0,24,11.0,0.0
13338,51.0,0,24,11.0,0.0
13339,39.0,30,24,12.0,0.0
13340,82.0,0,96,1.0,0.0
13341,51.0,0,24,13.0,0.0
13342,63.0,0,96,6.0,0.0
13343,55.0,18,96,5.0,0.0
13344,63.0,0,96,5.0,0.0
13345,55.0,0,96,4.0,0.0
13346,70.0,0,96,3.0,0.0
13347,79.0,0,96,3.0,0.0
13348,58.0,0,96,4.0,0.0
13349,51.0,0,96,8.0,0.0
13350,91.0,0,96,0.0,0.0
13351,87.0,0,96,0.0,0.0
13352,79.0,0,96,1.0,0.0
13353,58.0,0,24,11.0,0.0
13354,58.0,0,24,11.0,0.0
13355,55.0,0,24,11.0,0.0
13356,51.0,30,24,12.0,0.0
13357,51.0,0,24,13.0,0.0
13358,63.0,0,24,11.0,0.0
13359,75.0,0,24,11.0,0.0
13360,75.0,0,24,11.0,0.0
13361,51.0,0,24,12.0,0.0
13362,58.0,0,24,11.0,0.0
13363,55.0,12,24,11.0,0.0
13364,51.0,0,24,13.0,0.0
13365,63.0,0,24,11.0,0.0
13366,63.0,0,24,11.0,0.0
13367,51.0,0,24,12.0,0.0
13368,55.0,0,24,11.0,0.0
13369,75.0,0,24,11.0,0.0
13370,58.0,0,24,11.0,0.0
13371,51.0,30,24,13.0,0.0
13372,51.0,0,24,12.0,0.0
13373,51.0,30,24,13.0,0.0
13374,58.0,0,24,11.0,0.0
13375,55.0,0,24,11.0,0.0
13376,63.0,0,24,11.0,0.0
13377,75.0,0,24,11.0,0.0
13378,51.0,0,24,12.0,0.0
13379,58.0,0,24,11.0,0.0
13380,63.0,30,24,11.0,0.0
13381,79.0,0,24,11.0,0.0
13382,51.0,0,24,13.0,0.0
13383,67.0,0,24,11.0,0.0
13384,70.0,0,96,3.0,0.0
13385,91.0,0,96,0.0,0.0
13386,79.0,0,96,3.0,0.0
13387,67.0,0,24,11.0,0.0
13388,63.0,0,24,11.0,0.0
13389,58.0,0,24,11.0,0.0
13390,51.0,0,96,8.0,0.0
13391,79.0,0,96,1.0,0.0
13392,55.0,0,96,5.0,0.0
13393,63.0,0,96,5.0,0.0
13394,79.0,0,24,11.0,0.0
13395,82.0,0,96,1.0,0.0
13396,51.0,0,96,6.0,0.0
13397,55.0,0,96,4.0,0.0
13398,58.0,0,96,4.0,0.0
13399,51.0,30,24,13.0,0.0
13400,63.0,18,96,6.0,0.0
13401,51.0,0,24,12.0,0.0
13402,87.0,0,96,0.0,0.0
13403,51.0,0,24,12.0,0.0
13404,58.0,0,24,11.0,0.0
13405,79.0,0,24,11.0,0.0
13406,51.0,0,24,13.0,0.0
13407,67.0,0,24,11.0,0.0
13408,63.0,30,24,11.0,0.0
13409,51.0,0,24,13.0,0.0
13410,51.0,0,24,12.0,0.0
13411,63.0,0,24,11.0,0.0
13412,58.0,0,24,11.0,0.0
13413,79.0,0,24,11.0,0.0
13414,67.0,12,24,11.0,0.0
13415,67.0,0,24,11.0,0.0
13416,79.0,0,24,11.0,0.0
13417,51.0,0,24,12.0,0.0
13418,58.0,0,24,11.0,0.0
13419,63.0,0,24,11.0,0.0
13420,51.0,30,24,13.0,0.0
13421,58.0,0,24,11.0,0.0
13422,63.0,0,24,11.0,0.0
13423,79.0,0,24,11.0,0.0
13424,51.0,30,24,12.0,0.0
13425,51.0,0,24,13.0,0.0
13426,67.0,0,24,11.0,0.0
13427,51.0,0,24,12.0,0.0
13428,67.0,0,24,11.0,0.0
13429,63.0,0,24,11.0,0.0
13430,70.0,30,24,11.0,0.0
13431,51.0,0,24,13.0,0.0
13432,82.0,0,24,11.0,0.0
13433,67.0,0,24,11.0,0.0
13434,55.0,0,96,5.0,0.0
13435,51.0,0,96,6.0,0.0
13436,63.0,0,96,6.0,0.0
13437,82.0,0,24,11.0,0.0
13438,70.0,0,24,11.0,0.0
13439,63.0,0,96,5.0,0.0
13440,55.0,0,96,4.0,0.0
13441,51.0,0,24,13.0,0.0
13442,63.0,30,24,11.0,0.0
13443,70.0,0,96,3.0,0.0
13444,79.0,0,96,1.0,0.0
13445,82.0,0,96,1.0,0.0
13446,51.0,0,24,12.0,0.0
13447,91.0,0,96,0.0,0.0
13448,87.0,0,96,0.0,0.0
13449,79.0,18,96,3.0,0.0
13450,58.0,0,96,4.0,0.0
13451,51.0,0,96,8.0,0.0
13452,67.0,0,24,11.0,0.0
13453,70.0,0,24,11.0,0.0
13454,51.0,0,24,13.0,0.0
13455,51.0,0,24,12.0,0.0
13456,87.0,0,24,11.0,0.0
13457,75.0,30,24,11.0,0.0
13458,51.0,0,24,12.0,0.0
13459,87.0,0,24,11.0,0.0
13460,75.0,0,24,11.0,0.0
13461,51.0,0,24,13.0,0.0
13462,67.0,12,24,11.0,0.0
13463,70.0,0,24,11.0,0.0
13464,87.0,0,24,11.0,0.0
13465,51.0,0,24,12.0,0.0
13466,75.0,0,24,11.0,0.0
13467,51.0,0,24,13.0,0.0
13468,70.0,30,24,11.0,0.0
13469,67.0,0,24,11.0,0.0
13470,70.0,0,24,11.0,0.0
13471,67.0,0,24,11.0,0.0
13472,51.0,30,24,12.0,0.0
13473,51.0,0,24,13.0,0.0
13474,75.0,0,24,11.0,0.0
13475,87.0,0,24,11.0,0.0
13476,51.0,0,24,12.0,0.0
13477,70.0,0,24,11.0,0.0
13478,67.0,0,24,11.0,0.0
13479,75.0,30,24,11.0,0.0
13480,51.0,0,24,13.0,0.0
13481,87.0,0,24,11.0,0.0
13482,82.0,0,96,1.0,0.0
13483,79.0,0,96,1.0,0.0
13484,51.0,0,96,6.0,0.0
13485,51.0,0,24,12.0,0.0
13486,75.0,30,24,11.0,0.0
13487,63.0,0,96,5.0,0.0
13488,70.0,0,24,11.0,0.0
13489,67.0,0,24,11.0,0.0
13490,51.0,0,24,13.0,0.0
13491,70.0,0,96,3.0,0.0
13492,55.0,0,96,5.0,0.0
13493,79.0,0,96,3.0,0.0
13494,51.0,0,96,8.0,0.0
13495,55.0,18,96,4.0,0.0
13496,63.0,0,96,6.0,0.0
13497,87.0,0,96,0.0,0.0
13498,91.0,0,96,0.0,0.0
13499,87.0,0,24,11.0,0.0
13500,58.0,0,96,4.0,0.0
13501,51.0,0,24,12.0,0.0
13502,51.0,0,24,13.0,0.0
13503,87.0,0,24,11.0,0.0
13504,70.0,0,24,11.0,0.0
13505,67.0,30,24,11.0,0.0
13506,75.0,0,24,11.0,0.0
13507,75.0,0,24,11.0,0.0
13508,70.0,12,24,11.0,0.0
13509,67.0,0,24,11.0,0.0
13510,51.0,0,24,12.0,0.0
13511,87.0,0,24,11.0,0.0
13512,51.0,0,24,13.0,0.0
13513,75.0,30,24,11.0,0.0
13514,51.0,0,24,12.0,0.0
13515,87.0,0,24,11.0,0.0
13516,67.0,0,24,11.0,0.0
13517,70.0,0,24,11.0,0.0
13518,51.0,0,24,13.0,0.0
13519,75.0,0,24,11.0,0.0
13520,87.0,0,24,11.0,0.0
13521,51.0,30,24,12.0,0.0
13522,70.0,0,24,11.0,0.0
13523,67.0,0,24,11.0,0.0
13524,51.0,0,24,13.0,0.0
13525,51.0,0,24,13.0,0.0
13526,67.0,0,24,11.0,0.0
13527,79.0,30,24,11.0,0.0
13528,91.0,0,24,11.0,0.0
13529,58.0,0,24,11.0,0.0
13530,51.0,0,24,12.0,0.0
13531,46.0,0,96,6.0,0.0
13532,56.0,0,96,4.0,0.0
13533,53.0,0,96,4.0,0.0
13534,82.0,0,96,0.0,0.0
13535,89.0,0,96,0.0,0.0
13536,68.0,0,24,11.0,0.0
13537,70.0,0,24,11.0,0.0
13538,46.0,0,96,8.0,0.0
13539,77.0,0,96,3.0,0.0
13540,77.0,18,96,1.0,0.0
13541,80.0,0,96,1.0,0.0
13542,89.0,30,24,11.0,0.0
13543,65.0,0,96,5.0,0.0
13544,58.0,0,96,5.0,0.0
13545,58.0,0,96,6.0,0.0
13546,68.0,0,96,3.0,0.0
13547,50.0,0,24,12.0,0.0
13548,77.0,0,24,11.0,0.0
13549,50.0,0,24,13.0,0.0
13550,58.0,30,24,11.0,0.0
13551,50.0,0,24,12.0,0.0
13552,77.0,0,24,11.0,0.0
13553,56.0,0,24,11.0,0.0
13554,89.0,0,24,11.0,0.0
13555,50.0,0,24,13.0,0.0
13556,56.0,12,24,11.0,0.0
13557,89.0,0,24,11.0,0.0
13558,50.0,0,24,13.0,0.0
13559,77.0,0,24,11.0,0.0
13560,58.0,0,24,11.0,0.0
13561,50.0,0,24,12.0,0.0
13562,77.0,0,24,11.0,0.0
13563,89.0,30,24,11.0,0.0
13564,50.0,0,24,13.0,0.0
13565,50.0,0,24,12.0,0.0
13566,58.0,0,24,11.0,0.0
13567,56.0,0,24,11.0,0.0
13568,58.0,30,24,11.0,0.0
13569,56.0,0,24,11.0,0.0
13570,46.0,0,24,12.0,0.0
13571,46.0,0,24,13.0,0.0
13572,86.0,0,24,11.0,0.0
13573,74.0,0,24,11.0,0.0
13574,89.0,30,24,11.0,0.0
13575,46.0,0,24,13.0,0.0
13576,56.0,0,24,11.0,0.0
13577,58.0,0,24,11.0,0.0
13578,77.0,0,24,11.0,0.0
13579,46.0,0,24,12.0,0.0
13580,51.0,0,24,12.0,0.0
13581,63.0,0,96,6.0,0.0
13582,58.0,30,24,11.0,0.0
13583,55.0,0,24,11.0,0.0
13584,55.0,0,96,4.0,0.0
13585,63.0,0,96,5.0,0.0
13586,55.0,0,96,5.0,0.0
13587,51.0,0,96,4.0,0.0
13588,75.0,0,24,11.0,0.0
13589,75.0,18,96,1.0,0.0
13590,79.0,0,96,1.0,0.0
13591,75.0,0,96,3.0,0.0
13592,51.0,0,96,8.0,0.0
13593,51.0,0,24,13.0,0.0
13594,67.0,0,96,3.0,0.0
13595,82.0,0,96,0.0,0.0
13596,89.0,0,96,0.0,0.0
13597,87.0,0,24,11.0,0.0
13598,51.0,0,96,6.0,0.0
13599,51.0,0,24,13.0,0.0
13600,51.0,0,24,12.0,0.0
13601,55.0,0,24,11.0,0.0
13602,58.0,0,24,11.0,0.0
13603,87.0,30,24,11.0,0.0
13604,75.0,0,24,11.0,0.0
13605,75.0,0,24,11.0,0.0
13606,51.0,0,24,13.0,0.0
13607,87.0,12,24,11.0,0.0
13608,55.0,0,24,11.0,0.0
13609,51.0,0,24,12.0,0.0
13610,58.0,0,24,11.0,0.0
13611,87.0,0,24,11.0,0.0
13612,75.0,30,24,11.0,0.0
13613,51.0,0,24,13.0,0.0
13614,51.0,0,24,12.0,0.0
13615,58.0,0,24,11.0,0.0
13616,55.0,0,24,11.0,0.0
13617,55.0,0,24,13.0,0.0
13618,70.0,30,24,11.0,0.0
13619,55.0,0,24,11.0,0.0
13620,63.0,0,24,11.0,0.0
13621,82.0,0,24,11.0,0.0
13622,55.0,0,24,12.0,0.0
13623,58.0,0,24,11.0,0.0
13624,82.0,0,24,11.0,0.0
13625,55.0,0,24,12.0,0.0
13626,70.0,30,24,11.0,0.0
13627,55.0,0,24,11.0,0.0
13628,58.0,0,24,11.0,0.0
13629,63.0,0,24,11.0,0.0
13630,55.0,0,24,13.0,0.0
13631,77.0,0,96,1.0,0.0
13632,82.0,0,24,11.0,0.0
13633,89.0,0,96,0.0,0.0
13634,86.0,0,96,0.0,0.0
13635,65.0,0,96,5.0,0.0
13636,58.0,0,96,5.0,0.0
13637,58.0,30,24,11.0,0.0
13638,62.0,0,24,11.0,0.0
13639,53.0,0,24,11.0,0.0
13640,82.0,0,96,1.0,0.0
13641,53.0,0,96,4.0,0.0
13642,50.0,0,96,4.0,0.0
13643,58.0,0,24,12.0,0.0
13644,65.0,0,96,3.0,0.0
13645,46.0,0,96,8.0,0.0
13646,74.0,18,96,3.0,0.0
13647,58.0,0,24,13.0,0.0
13648,46.0,0,96,6.0,0.0
13649,58.0,0,96,6.0,0.0
13650,70.0,0,24,11.0,0.0
13651,70.0,0,24,11.0,0.0
13652,46.0,0,24,13.0,0.0
13653,82.0,0,24,11.0,0.0
13654,65.0,0,24,11.0,0.0
13655,46.0,30,24,12.0,0.0
13656,62.0,0,24,11.0,0.0
13657,46.0,12,24,13.0,0.0
13658,82.0,0,24,11.0,0.0
13659,65.0,0,24,11.0,0.0
13660,46.0,0,24,12.0,0.0
13661,70.0,0,24,11.0,0.0
13662,62.0,0,24,11.0,0.0
13663,70.0,30,24,11.0,0.0
13664,65.0,0,24,11.0,0.0
13665,46.0,0,24,12.0,0.0
13666,46.0,0,24,13.0,0.0
13667,82.0,0,24,11.0,0.0
13668,62.0,0,24,11.0,0.0
13669,65.0,0,24,11.0,0.0
13670,46.0,0,24,13.0,0.0
13671,46.0,30,24,12.0,0.0
13672,82.0,0,24,11.0,0.0
13673,62.0,0,24,11.0,0.0
13674,70.0,0,24,11.0,0.0
13675,46.0,0,24,12.0,0.0
13676,63.0,0,24,11.0,0.0
13677,66.0,0,24,11.0,0.0
13678,46.0,30,24,13.0,0.0
13679,69.0,0,24,11.0,0.0
13680,81.0,0,24,11.0,0.0
13681,82.0,0,24,11.0,0.0
13682,46.0,0,96,4.0,0.0
13683,58.0,0,96,4.0,0.0
13684,46.0,0,96,6.0,0.0
13685,58.0,0,96,6.0,0.0
13686,70.0,0,96,3.0,0.0
13687,82.0,0,96,3.0,0.0
13688,46.0,0,96,8.0,0.0
13689,46.0,0,24,13.0,0.0
13690,62.0,0,24,11.0,0.0
13691,65.0,0,24,11.0,0.0
13692,46.0,30,24,12.0,0.0
13693,70.0,18,96,1.0,0.0
13694,82.0,0,96,1.0,0.0
13695,46.0,0,96,5.0,0.0
13696,70.0,0,96,0.0,0.0
13697,70.0,0,24,11.0,0.0
13698,82.0,0,96,0.0,0.0
13699,58.0,0,96,5.0,0.0
13700,65.0,30,24,11.0,0.0
13701,70.0,0,24,11.0,0.0
13702,58.0,0,24,13.0,0.0
13703,58.0,0,24,12.0,0.0
13704,82.0,0,24,11.0,0.0
13705,62.0,0,24,11.0,0.0
13706,62.0,0,24,11.0,0.0
13707,65.0,0,24,11.0,0.0
13708,58.0,0,24,13.0,0.0
13709,58.0,0,24,12.0,0.0
13710,82.0,12,24,11.0,0.0
13711,70.0,0,24,11.0,0.0
13712,70.0,0,24,11.0,0.0
13713,58.0,0,24,12.0,0.0
13714,62.0,0,24,11.0,0.0
13715,58.0,0,24,13.0,0.0
13716,65.0,30,24,11.0,0.0
13717,82.0,0,24,11.0,0.0
13718,58.0,0,24,12.0,0.0
13719,70.0,0,24,11.0,0.0
13720,58.0,30,24,13.0,0.0
13721,65.0,0,24,11.0,0.0
13722,82.0,0,24,11.0,0.0
13723,62.0,0,24,11.0,0.0
13724,64.0,0,24,11.0,0.0
13725,58.0,0,24,12.0,0.0
13726,61.0,0,24,11.0,0.0
13727,69.0,0,24,11.0,0.0
13728,58.0,0,24,13.0,0.0
13729,81.0,30,24,11.0,0.0
13730,58.0,18,96,5.0,0.0
13731,70.0,0,96,1.0,0.0
13732,82.0,0,96,1.0,0.0
13733,82.0,0,96,0.0,0.0
13734,46.0,0,96,5.0,0.0
13735,46.0,0,24,13.0,0.0
13736,46.0,0,96,6.0,0.0
13737,69.0,0,24,11.0,0.0
13738,46.0,30,24,12.0,0.0
13739,70.0,0,96,3.0,0.0
13740,58.0,0,96,6.0,0.0
13741,82.0,0,96,3.0,0.0
13742,81.0,0,24,11.0,0.0
13743,58.0,0,96,4.0,0.0
13744,46.0,0,96,4.0,0.0
13745,60.0,0,24,11.0,0.0
13746,63.0,0,24,11.0,0.0
13747,70.0,0,96,0.0,0.0
13748,46.0,0,96,8.0,0.0
13749,81.0,0,24,11.0,0.0
13750,58.0,30,24,12.0,0.0
13751,69.0,0,24,11.0,0.0
13752,58.0,0,24,13.0,0.0
13753,63.0,0,24,11.0,0.0
13754,60.0,0,24,11.0,0.0
13755,81.0,0,24,11.0,0.0
13756,58.0,0,24,13.0,0.0
13757,63.0,12,24,11.0,0.0
13758,60.0,0,24,11.0,0.0
13759,69.0,0,24,11.0,0.0
13760,58.0,0,24,12.0,0.0
13761,60.0,30,24,11.0,0.0
13762,81.0,0,24,11.0,0.0
13763,58.0,0,24,12.0,0.0
13764,63.0,0,24,11.0,0.0
13765,58.0,0,24,13.0,0.0
13766,69.0,0,24,11.0,0.0
13767,59.0,0,24,11.0,0.0
13768,58.0,30,24,12.0,0.0
13769,58.0,0,24,13.0,0.0
13770,68.0,0,24,11.0,0.0
13771,62.0,0,24,11.0,0.0
13772,80.0,0,24,11.0,0.0
13773,79.0,30,24,11.0,0.0
13774,58.0,0,24,12.0,0.0
13775,67.0,0,24,11.0,0.0
13776,58.0,0,24,13.0,0.0
13777,62.0,0,24,11.0,0.0
13778,59.0,0,24,11.0,0.0
13779,70.0,0,96,0.0,0.0
13780,82.0,0,96,0.0,0.0
13781,46.0,0,96,5.0,0.0
13782,82.0,0,96,1.0,0.0
13783,70.0,0,96,1.0,0.0
13784,46.0,0,24,13.0,0.0
13785,70.0,0,96,3.0,0.0
13786,82.0,0,96,3.0,0.0
13787,67.0,0,24,11.0,0.0
13788,46.0,0,24,12.0,0.0
13789,46.0,0,96,6.0,0.0
13790,58.0,0,96,6.0,0.0
13791,46.0,0,96,8.0,0.0
13792,58.0,0,96,4.0,0.0
13793,46.0,18,96,4.0,0.0
13794,58.0,0,24,11.0,0.0
13795,61.0,30,24,11.0,0.0
13796,79.0,0,24,11.0,0.0
13797,58.0,0,96,5.0,0.0
13798,67.0,0,24,11.0,0.0
13799,79.0,0,24,11.0,0.0
13800,61.0,0,24,11.0,0.0
13801,58.0,0,24,13.0,0.0
13802,58.0,30,24,11.0,0.0
13803,58.0,0,24,12.0,0.0
13804,79.0,0,24,11.0,0.0
13805,58.0,0,24,13.0,0.0
13806,58.0,0,24,11.0,0.0
13807,61.0,0,24,11.0,0.0
13808,67.0,0,24,11.0,0.0
13809,58.0,12,24,12.0,0.0
13810,61.0,30,24,11.0,0.0
13811,58.0,0,24,11.0,0.0
13812,79.0,0,24,11.0,0.0
13813,58.0,0,24,13.0,0.0
13814,67.0,0,24,11.0,0.0
13815,58.0,0,24,12.0,0.0
13816,60.0,0,24,11.0,0.0
13817,78.0,0,24,11.0,0.0
13818,66.0,0,24,11.0,0.0
13819,58.0,0,24,12.0,0.0
13820,57.0,30,24,11.0,0.0
13821,58.0,0,24,13.0,0.0
13822,58.0,0,24,12.0,0.0
13823,65.0,30,24,11.0,0.0
13824,57.0,0,24,11.0,0.0
13825,60.0,0,24,11.0,0.0
13826,58.0,0,24,13.0,0.0
13827,77.0,0,24,11.0,0.0
13828,46.0,0,96,4.0,0.0
13829,77.0,0,24,11.0,0.0
13830,65.0,0,24,11.0,0.0
13831,58.0,0,96,4.0,0.0
13832,70.0,0,96,3.0,0.0
13833,82.0,0,96,3.0,0.0
13834,46.0,30,24,13.0,0.0
13835,58.0,0,96,5.0,0.0
13836,70.0,0,96,0.0,0.0
13837,46.0,0,24,12.0,0.0
13838,46.0,0,96,8.0,0.0
13839,46.0,0,96,6.0,0.0
13840,56.0,0,24,11.0,0.0
13841,46.0,0,96,5.0,0.0
13842,82.0,0,96,0.0,0.0
13843,59.0,0,24,11.0,0.0
13844,58.0,0,96,6.0,0.0
13845,82.0,18,96,1.0,0.0
13846,70.0,0,96,1.0,0.0
13847,65.0,0,24,11.0,0.0
13848,56.0,0,24,11.0,0.0
13849,58.0,0,24,13.0,0.0
13850,59.0,0,24,11.0,0.0
13851,58.0,0,24,12.0,0.0
13852,77.0,30,24,11.0,0.0
13853,77.0,12,24,11.0,0.0
13854,58.0,0,24,13.0,0.0
13855,59.0,0,24,11.0,0.0
13856,56.0,0,24,11.0,0.0
13857,65.0,0,24,11.0,0.0
13858,58.0,0,24,12.0,0.0
13859,59.0,0,24,11.0,0.0
13860,58.0,0,24,12.0,0.0
13861,58.0,30,24,13.0,0.0
13862,65.0,0,24,11.0,0.0
13863,56.0,0,24,11.0,0.0
13864,77.0,0,24,11.0,0.0
13865,58.0,0,24,12.0,0.0
13866,55.0,0,24,11.0,0.0
13867,58.0,0,24,13.0,0.0
13868,58.0,30,24,11.0,0.0
13869,76.0,0,24,11.0,0.0
13870,64.0,0,24,11.0,0.0
13871,75.0,0,24,11.0,0.0
13872,58.0,30,24,13.0,0.0
13873,57.0,0,24,11.0,0.0
13874,63.0,0,24,11.0,0.0
13875,54.0,0,24,11.0,0.0
13876,58.0,0,24,12.0,0.0
13877,46.0,0,96,8.0,0.0
13878,75.0,0,24,11.0,0.0
13879,70.0,0,96,0.0,0.0
13880,82.0,0,96,0.0,0.0
13881,46.0,0,96,6.0,0.0
13882,58.0,0,96,6.0,0.0
13883,56.0,0,24,11.0,0.0
13884,46.0,0,24,13.0,0.0
13885,53.0,0,24,11.0,0.0
13886,58.0,0,96,4.0,0.0
13887,46.0,0,96,4.0,0.0
13888,82.0,0,96,1.0,0.0
13889,63.0,30,24,11.0,0.0
13890,82.0,0,96,3.0,0.0
13891,46.0,0,96,5.0,0.0
13892,58.0,0,96,5.0,0.0
13893,46.0,0,24,12.0,0.0
13894,70.0,18,96,3.0,0.0
13895,70.0,0,96,1.0,0.0
13896,58.0,0,24,13.0,0.0
13897,53.0,0,24,11.0,0.0
13898,75.0,0,24,11.0,0.0
13899,56.0,0,24,11.0,0.0
13900,63.0,0,24,11.0,0.0
13901,58.0,30,24,12.0,0.0
13902,53.0,0,24,11.0,0.0
13903,56.0,12,24,11.0,0.0
13904,63.0,0,24,11.0,0.0
13905,75.0,0,24,11.0,0.0
13906,58.0,0,24,13.0,0.0
13907,58.0,0,24,12.0,0.0
13908,75.0,0,24,11.0,0.0
13909,58.0,0,24,12.0,0.0
13910,58.0,0,24,13.0,0.0
13911,63.0,0,24,11.0,0.0
13912,53.0,30,24,11.0,0.0
13913,56.0,0,24,11.0,0.0
13914,63.0,0,24,11.0,0.0
13915,58.0,30,24,13.0,0.0
13916,56.0,0,24,11.0,0.0
13917,53.0,0,24,11.0,0.0
13918,75.0,0,24,11.0,0.0
13919,58.0,0,24,12.0,0.0
13920,53.0,0,24,11.0,0.0
13921,58.0,0,24,12.0,0.0
13922,62.0,0,24,11.0,0.0
13923,56.0,0,24,11.0,0.0
13924,58.0,30,24,13.0,0.0
13925,74.0,0,24,11.0,0.0
13926,46.0,0,24,13.0,0.0
13927,58.0,0,96,6.0,0.0
13928,56.0,0,24,11.0,0.0
13929,77.0,0,96,1.0,0.0
13930,65.0,0,96,6.0,0.0
13931,62.0,0,24,11.0,0.0
13932,56.0,0,96,4.0,0.0
13933,62.0,0,96,4.0,0.0
13934,77.0,0,96,3.0,0.0
13935,68.0,0,96,3.0,0.0
13936,74.0,0,24,11.0,0.0
13937,80.0,0,96,1.0,0.0
13938,58.0,18,96,5.0,0.0
13939,65.0,0,96,5.0,0.0
13940,53.0,0,24,11.0,0.0
13941,86.0,0,96,0.0,0.0
13942,89.0,0,96,0.0,0.0
13943,46.0,30,24,12.0,0.0
13944,46.0,0,96,8.0,0.0
13945,58.0,0,24,11.0,0.0
13946,62.0,0,24,11.0,0.0
13947,58.0,0,24,13.0,0.0
13948,74.0,0,24,11.0,0.0
13949,55.0,0,24,11.0,0.0
13950,58.0,30,24,12.0,0.0
13951,58.0,0,24,12.0,0.0
13952,58.0,0,24,13.0,0.0
13953,74.0,0,24,11.0,0.0
13954,53.0,0,24,11.0,0.0
13955,56.0,0,24,11.0,0.0
13956,62.0,12,24,11.0,0.0
13957,74.0,0,24,11.0,0.0
13958,53.0,0,24,11.0,0.0
13959,62.0,30,24,11.0,0.0
13960,58.0,0,24,13.0,0.0
13961,58.0,0,24,12.0,0.0
13962,56.0,0,24,11.0,0.0
13963,74.0,30,24,11.0,0.0
13964,58.0,0,24,12.0,0.0
13965,58.0,0,24,13.0,0.0
13966,56.0,0,24,11.0,0.0
13967,53.0,0,24,11.0,0.0
13968,62.0,0,24,11.0,0.0
13969,53.0,0,24,11.0,0.0
13970,58.0,30,24,13.0,0.0
13971,58.0,0,24,12.0,0.0
13972,62.0,0,24,11.0,0.0
13973,56.0,0,24,11.0,0.0
13974,74.0,0,24,11.0,0.0
13975,86.0,16,96,0.0,0.0
13976,56.0,30,24,11.0,0.0
13977,53.0,0,24,11.0,0.0
13978,89.0,0,96,0.0,0.0
13979,46.0,0,24,13.0,0.0
13980,58.0,0,96,5.0,0.0
13981,80.0,0,96,1.0,0.0
13982,62.0,0,24,11.0,0.0
13983,77.0,0,96,3.0,0.0
13984,68.0,0,96,3.0,0.0
13985,46.0,0,96,8.0,0.0
13986,74.0,0,24,11.0,0.0
13987,65.0,2,112,6.0,0.0
13988,65.0,0,96,5.0,0.0
13989,58.0,0,112,6.0,0.0
13990,77.0,0,96,1.0,0.0
13991,56.0,0,96,4.0,0.0
13992,62.0,0,96,4.0,0.0
13993,46.0,0,24,12.0,0.0
13994,58.0,0,24,12.0,0.0
13995,75.0,0,24,11.0,0.0
13996,58.0,0,24,13.0,0.0
13997,63.0,30,24,11.0,0.0
13998,56.0,0,24,11.0,0.0
13999,63.0,0,24,11.0,0.0
14000,56.0,0,24,11.0,0.0
14001,53.0,0,24,11.0,0.0
14002,46.0,12,24,13.0,0.0
14003,75.0,0,24,11.0,0.0
14004,46.0,0,24,12.0,0.0
14005,46.0,30,24,12.0,0.0
14006,77.0,0,24,11.0,0.0
14007,56.0,0,24,11.0,0.0
14008,58.0,0,24,11.0,0.0
14009,46.0,0,24,13.0,0.0
14010,65.0,0,24,11.0,0.0
14011,53.0,0,24,11.0,0.0
14012,77.0,30,24,11.0,0.0
14013,46.0,0,24,12.0,0.0
14014,53.0,0,24,11.0,0.0
14015,46.0,0,24,13.0,0.0
14016,56.0,0,24,11.0,0.0
14017,65.0,0,24,11.0,0.0
14018,58.0,0,24,11.0,0.0
14019,65.0,0,24,11.0,0.0
14020,53.0,30,24,11.0,0.0
14021,56.0,0,24,11.0,0.0
14022,46.0,0,24,13.0,0.0
14023,46.0,0,24,12.0,0.0
14024,77.0,0,24,11.0,0.0
14025,58.0,0,24,11.0,0.0
14026,51.0,0,24,12.0,0.0
14027,75.0,2,112,3.0,0.0
14028,67.0,0,112,3.0,0.0
14029,51.0,0,24,13.0,0.0
14030,63.0,0,96,5.0,0.0
14031,55.0,16,96,4.0,0.0
14032,65.0,26,28,11.0,0.0
14033,51.0,0,96,4.0,0.0
14034,91.0,0,96,0.0,0.0
14035,75.0,0,96,1.0,0.0
14036,79.0,0,96,1.0,0.0
14037,51.0,0,96,6.0,0.0
14038,51.0,0,96,8.0,0.0
14039,55.0,0,96,5.0,0.0
14040,82.0,0,96,0.0,0.0
14041,58.0,0,24,11.0,0.0
14042,55.0,4,24,11.0,0.0
14043,51.0,0,24,11.0,0.0
14044,77.0,0,24,11.0,0.0
14045,63.0,0,96,6.0,0.0
14046,51.0,0,24,13.0,0.0
14047,51.0,0,24,11.0,0.0
14048,55.0,30,24,11.0,0.0
14049,58.0,0,24,11.0,0.0
14050,77.0,0,24,11.0,0.0
14051,51.0,0,24,12.0,0.0
14052,65.0,0,24,11.0,0.0
14053,58.0,0,24,11.0,0.0
14054,51.0,0,24,11.0,0.0
14055,51.0,0,24,12.0,0.0
14056,55.0,0,24,11.0,0.0
14057,67.0,0,24,11.0,0.0
14058,51.0,12,24,13.0,0.0
14059,79.0,0,24,11.0,0.0
14060,51.0,0,24,13.0,0.0
14061,79.0,0,24,11.0,0.0
14062,67.0,0,24,11.0,0.0
14063,55.0,0,24,11.0,0.0
14064,51.0,0,24,11.0,0.0
14065,51.0,0,24,12.0,0.0
14066,58.0,30,24,11.0,0.0
14067,58.0,0,24,11.0,0.0
14068,51.0,0,24,11.0,0.0
14069,55.0,30,24,11.0,0.0
14070,51.0,0,24,13.0,0.0
14071,51.0,0,24,12.0,0.0
14072,75.0,0,24,11.0,0.0
14073,67.0,0,96,3.0,0.0
14074,75.0,60,96,3.0,0.0
14075,63.0,0,24,11.0,0.0
14076,58.0,0,24,11.0,0.0
14077,55.0,42,24,11.0,0.0
14078,51.0,0,24,11.0,0.0
14079,51.0,0,24,13.0,0.0
14080,51.0,0,24,12.0,0.0
14081,63.0,0,24,11.0,0.0
14082,75.0,0,24,11.0,0.0
14083,82.0,0,96,0.0,0.0
14084,63.0,16,96,11.0,0.0
14085,79.0,0,96,1.0,0.0
14086,55.0,0,96,5.0,0.0
14087,51.0,0,96,12.0,0.0
14088,87.0,0,96,0.0,0.0
14089,63.0,0,96,5.0,0.0
14090,55.0,0,96,11.0,0.0
14091,51.0,0,96,11.0,0.0
14092,63.0,0,96,6.0,0.0
14093,51.0,0,96,6.0,0.0
14094,75.0,0,96,1.0,0.0
14095,75.0,0,96,11.0,0.0
14096,51.0,0,96,4.0,0.0
14097,55.0,56,112,4.0,0.0
14098,51.0,0,96,13.0,0.0
14099,58.0,0,96,11.0,0.0
14100,51.0,0,96,8.0,0.0
14101,63.0,108,48,4.0,0.0
14102,62.0,72,96,4.0,0.0
14103,62.0,84,48,4.0,0.0
14104,62.0,42,72,4.0,0.0
14105,63.0,54,24,4.0,0.0
14106,65.0,60,48,4.0,0.0
14107,65.0,60,48,4.0,0.0
14108,67.0,60,48,4.0,0.0
14109,63.0,0,48,4.0,0.0
14110,51.0,0,48,5.0,0.0
14111,63.0,60,48,5.0,0.0
14112,51.0,0,48,5.0,0.0
14113,63.0,0,48,5.0,0.0
14114,63.0,60,48,4.0,0.0
14115,67.0,60,48,5.0,0.0
14116,55.0,0,48,5.0,0.0
14117,51.0,0,48,5.0,0.0
14118,63.0,36,48,5.0,0.0
14119,75.0,0,48,7.0,0.0
14120,87.0,0,48,7.0,0.0
14121,58.0,0,1896,5.0,0.0
14122,86.0,0,96,7.0,0.0
14123,53.0,30,24,10.0,0.0
14124,70.0,6,1896,5.0,0.0
14125,74.0,18,96,7.0,0.0
14126,56.0,0,24,10.0,0.0
14127,58.0,30,24,10.0,0.0
14128,62.0,12,24,10.0,0.0
14129,56.0,30,24,10.0,0.0
14130,58.0,0,24,10.0,0.0
14131,62.0,24,24,10.0,0.0
14132,74.0,0,48,7.0,0.0
14133,86.0,6,48,7.0,0.0
14134,58.0,30,24,10.0,0.0
14135,56.0,0,24,10.0,0.0
14136,46.0,30,24,10.0,0.0
14137,86.0,0,72,7.0,0.0
14138,74.0,12,72,7.0,0.0
14139,58.0,18,24,10.0,0.0
14140,56.0,0,24,10.0,0.0
14141,62.0,30,24,10.0,0.0
14142,87.0,0,24,7.0,0.0
14143,75.0,0,24,7.0,0.0
14144,56.0,30,24,10.0,0.0
14145,58.0,0,24,10.0,0.0
14146,89.0,6,48,7.0,0.0
14147,77.0,0,48,7.0,0.0
14148,62.0,24,24,10.0,0.0
14149,56.0,30,24,10.0,0.0
14150,58.0,0,24,10.0,0.0
14151,89.0,6,48,7.0,0.0
14152,51.0,24,24,10.0,0.0
14153,77.0,0,48,7.0,0.0
14154,58.0,30,24,10.0,0.0
14155,55.0,0,24,10.0,0.0
14156,91.0,0,48,7.0,0.0
14157,79.0,6,48,7.0,0.0
14158,63.0,24,24,10.0,0.0
14159,58.0,30,24,10.0,0.0
14160,55.0,0,24,10.0,0.0
14161,75.0,6,48,7.0,0.0
14162,87.0,0,48,7.0,0.0
14163,63.0,24,24,10.0,0.0
14164,58.0,0,24,10.0,0.0
14165,55.0,30,24,10.0,0.0
14166,46.0,30,24,10.0,0.0
14167,75.0,0,72,7.0,0.0
14168,87.0,12,72,7.0,0.0
14169,58.0,0,24,10.0,0.0
14170,55.0,18,24,10.0,0.0
14171,63.0,30,24,10.0,0.0
14172,89.0,0,24,7.0,0.0
14173,55.0,30,24,10.0,0.0
14174,58.0,0,24,10.0,0.0
14175,77.0,0,24,7.0,0.0
14176,91.0,6,48,7.0,0.0
14177,79.0,0,48,7.0,0.0
14178,63.0,24,24,10.0,0.0
14179,55.0,0,24,10.0,0.0
14180,58.0,30,24,10.0,0.0
14181,91.0,0,48,7.0,0.0
14182,53.0,24,24,10.0,0.0
14183,39.0,12,96,14.0,0.0
14184,51.0,0,96,14.0,0.0
14185,79.0,6,48,7.0,0.0
14186,56.0,30,24,10.0,0.0
14187,58.0,0,24,10.0,0.0
14188,80.0,0,48,7.0,0.0
14189,92.0,6,48,7.0,0.0
14190,62.0,12,24,10.0,0.0
14191,56.0,30,24,10.0,0.0
14192,58.0,0,24,10.0,0.0
14193,89.0,0,48,7.0,0.0
14194,77.0,6,48,7.0,0.0
14195,62.0,24,24,10.0,0.0
14196,58.0,30,24,10.0,0.0
14197,56.0,0,24,10.0,0.0
14198,77.0,0,72,7.0,0.0
14199,46.0,30,24,10.0,0.0
14200,34.0,18,96,14.0,0.0
14201,46.0,0,96,14.0,0.0
14202,89.0,12,72,7.0,0.0
14203,58.0,18,24,10.0,0.0
14204,56.0,0,24,10.0,0.0
14205,62.0,12,24,10.0,0.0
14206,56.0,30,24,10.0,0.0
14207,58.0,0,24,10.0,0.0
14208,79.0,0,24,7.0,0.0
14209,91.0,0,24,7.0,0.0
14210,92.0,0,48,7.0,0.0
14211,80.0,6,48,7.0,0.0
14212,62.0,24,24,10.0,0.0
14213,58.0,0,24,10.0,0.0
14214,56.0,18,24,10.0,0.0
14215,41.0,6,96,14.0,0.0
14216,51.0,3,24,10.0,0.0
14217,94.0,12,12,7.0,0.0
14218,53.0,0,96,14.0,0.0
14219,96.0,15,12,7.0,0.0
14220,58.0,3,24,10.0,0.0
14221,94.0,12,12,7.0,0.0
14222,55.0,0,24,10.0,0.0
14223,96.0,15,12,7.0,0.0
14224,63.0,3,24,10.0,0.0
14225,94.0,12,12,7.0,0.0
14226,96.0,9,12,7.0,0.0
14227,94.0,12,12,7.0,0.0
14228,55.0,0,24,10.0,0.0
14229,58.0,3,24,10.0,0.0
14230,96.0,15,12,7.0,0.0
14231,63.0,0,48,11.0,0.0
14232,94.0,12,12,7.0,0.0
14233,63.0,3,24,10.0,0.0
14234,51.0,6,48,11.0,0.0
14235,96.0,15,12,7.0,0.0
14236,55.0,3,24,10.0,0.0
14237,94.0,6,12,7.0,0.0
14238,58.0,0,24,10.0,0.0
14239,96.0,15,12,7.0,0.0
14240,94.0,12,12,7.0,0.0
14241,63.0,0,72,11.0,0.0
14242,34.0,6,96,14.0,0.0
14243,51.0,12,72,11.0,0.0
14244,46.0,3,24,10.0,0.0
14245,46.0,0,96,14.0,0.0
14246,96.0,15,12,7.0,0.0
14247,94.0,12,12,7.0,0.0
14248,58.0,3,24,10.0,0.0
14249,55.0,0,24,10.0,0.0
14250,96.0,15,12,7.0,0.0
14251,94.0,0,12,7.0,0.0
14252,63.0,3,24,10.0,0.0
14253,96.0,9,12,7.0,0.0
14254,53.0,0,24,11.0,0.0
14255,94.0,12,12,7.0,0.0
14256,58.0,3,24,10.0,0.0
14257,55.0,0,24,10.0,0.0
14258,65.0,0,24,11.0,0.0
14259,96.0,15,12,7.0,0.0
14260,63.0,3,24,10.0,0.0
14261,94.0,12,12,7.0,0.0
14262,67.0,6,48,11.0,0.0
14263,55.0,0,48,11.0,0.0
14264,96.0,15,12,7.0,0.0
14265,58.0,3,24,10.0,0.0
14266,55.0,0,24,10.0,0.0
14267,94.0,6,12,7.0,0.0
14268,96.0,15,12,7.0,0.0
14269,53.0,3,24,10.0,0.0
14270,51.0,6,96,14.0,0.0
14271,39.0,0,96,14.0,0.0
14272,94.0,12,12,7.0,0.0
14273,68.0,6,48,11.0,0.0
14274,56.0,13,59,11.0,0.0
14275,96.0,15,12,7.0,0.0
14276,56.0,3,24,10.0,0.0
14277,94.0,6,12,7.0,0.0
14278,58.0,0,24,10.0,0.0
14279,96.0,2,12,7.0,0.0
14280,62.0,3,24,10.0,0.0
14281,94.0,12,12,7.0,0.0
14282,96.0,9,12,7.0,0.0
14283,94.0,12,12,7.0,0.0
14284,56.0,0,24,10.0,0.0
14285,58.0,3,24,10.0,0.0
14286,96.0,15,12,7.0,0.0
14287,53.0,0,48,11.0,0.0
14288,65.0,6,48,11.0,0.0
14289,94.0,12,12,7.0,0.0
14290,62.0,3,24,10.0,0.0
14291,96.0,15,12,7.0,0.0
14292,58.0,3,24,10.0,0.0
14293,56.0,0,24,10.0,0.0
14294,94.0,6,12,7.0,0.0
14295,96.0,15,12,7.0,0.0
14296,94.0,12,12,7.0,0.0
14297,53.0,0,72,11.0,0.0
14298,65.0,12,72,11.0,0.0
14299,34.0,6,96,14.0,0.0
14300,46.0,0,96,14.0,0.0
14301,46.0,3,24,10.0,0.0
14302,96.0,15,12,7.0,0.0
14303,58.0,0,24,10.0,0.0
14304,94.0,12,12,7.0,0.0
14305,56.0,3,24,10.0,0.0
14306,96.0,15,12,7.0,0.0
14307,94.0,0,12,7.0,0.0
14308,62.0,3,24,10.0,0.0
14309,96.0,9,12,7.0,0.0
14310,94.0,12,12,7.0,0.0
14311,55.0,14,28,11.0,0.0
14312,58.0,3,24,10.0,0.0
14313,56.0,0,24,10.0,0.0
14314,67.0,0,24,11.0,0.0
14315,96.0,1,12,7.0,0.0
14316,56.0,6,48,11.0,0.0
14317,68.0,0,48,11.0,0.0
14318,94.0,12,12,7.0,0.0
14319,62.0,3,24,10.0,0.0
14320,96.0,15,12,7.0,0.0
14321,94.0,6,12,7.0,0.0
14322,56.0,0,24,10.0,0.0
14323,58.0,3,24,10.0,0.0
14324,96.0,15,12,7.0,0.0
14325,51.0,3,24,10.0,0.0
14326,70.0,13,299,11.0,0.0
14327,58.0,0,299,11.0,0.0
14328,58.0,0,96,14.0,0.0
14329,46.0,0,96,14.0,0.0
14330,94.0,12,12,7.0,0.0
14331,96.0,15,12,7.0,0.0
14332,55.0,0,24,10.0,0.0
14333,58.0,3,24,10.0,0.0
14334,94.0,12,12,7.0,0.0
14335,96.0,15,12,7.0,0.0
14336,63.0,3,24,10.0,0.0
14337,94.0,12,12,7.0,0.0
14338,96.0,9,12,7.0,0.0
14339,94.0,12,12,7.0,0.0
14340,58.0,0,24,10.0,0.0
14341,55.0,3,24,10.0,0.0
14342,96.0,15,12,7.0,0.0
14343,63.0,3,24,10.0,0.0
14344,94.0,12,12,7.0,0.0
14345,75.0,6,48,1.0,0.0
14346,55.0,0,48,5.0,0.0
14347,63.0,0,48,5.0,0.0
14348,70.0,0,48,3.0,0.0
14349,96.0,15,12,7.0,0.0
14350,58.0,0,24,10.0,0.0
14351,55.0,3,24,10.0,0.0
14352,94.0,6,12,7.0,0.0
14353,96.0,15,12,7.0,0.0
14354,70.0,12,72,3.0,0.0
14355,46.0,6,96,14.0,0.0
14356,34.0,0,96,14.0,0.0
14357,94.0,12,12,7.0,0.0
14358,63.0,0,72,5.0,0.0
14359,55.0,0,72,5.0,0.0
14360,46.0,3,24,10.0,0.0
14361,75.0,0,72,1.0,0.0
14362,96.0,15,12,7.0,0.0
14363,94.0,12,12,7.0,0.0
14364,58.0,3,24,10.0,0.0
14365,55.0,0,24,10.0,0.0
14366,96.0,15,12,7.0,0.0
14367,63.0,3,24,10.0,0.0
14368,94.0,0,12,7.0,0.0
14369,96.0,9,12,7.0,0.0
14370,74.0,0,24,3.0,0.0
14371,94.0,12,12,7.0,0.0
14372,55.0,0,24,10.0,0.0
14373,58.0,3,24,5.0,0.0
14374,58.0,0,24,10.0,0.0
14375,77.0,0,24,1.0,0.0
14376,65.0,0,24,5.0,0.0
14377,96.0,2,12,7.0,0.0
14378,94.0,12,12,7.0,0.0
14379,75.0,0,48,3.0,0.0
14380,63.0,3,24,10.0,0.0
14381,63.0,6,48,5.0,0.0
14382,67.0,0,48,5.0,0.0
14383,79.0,0,48,1.0,0.0
14384,96.0,15,12,7.0,0.0
14385,94.0,6,12,7.0,0.0
14386,55.0,0,24,10.0,0.0
14387,58.0,3,24,10.0,0.0
14388,96.0,15,12,7.0,0.0
14389,55.0,0,96,11.0,0.0
14390,53.0,3,24,10.0,0.0
14391,74.0,0,48,3.0,0.0
14392,65.0,0,48,5.0,0.0
14393,68.0,0,48,5.0,0.0
14394,67.0,0,96,11.0,0.0
14395,94.0,12,12,7.0,0.0
14396,39.0,6,96,14.0,0.0
14397,51.0,0,96,14.0,0.0
14398,80.0,6,48,1.0,0.0
14399,96.0,15,12,7.0,0.0
14400,56.0,0,24,10.0,0.0
14401,58.0,3,24,10.0,0.0
14402,94.0,6,12,7.0,0.0
14403,96.0,15,12,7.0,0.0
14404,62.0,3,24,10.0,0.0
14405,94.0,12,12,7.0,0.0
14406,96.0,9,12,7.0,0.0
14407,58.0,0,24,10.0,0.0
14408,56.0,3,24,10.0,0.0
14409,94.0,12,12,7.0,0.0
14410,96.0,15,12,7.0,0.0
14411,65.0,0,48,5.0,0.0
14412,77.0,0,48,1.0,0.0
14413,74.0,0,48,3.0,0.0
14414,58.0,6,48,5.0,0.0
14415,62.0,3,24,10.0,0.0
14416,94.0,12,12,7.0,0.0
14417,96.0,15,12,7.0,0.0
14418,56.0,0,24,10.0,0.0
14419,94.0,6,12,7.0,0.0
14420,58.0,3,24,10.0,0.0
14421,96.0,15,12,7.0,0.0
14422,74.0,0,72,3.0,0.0
14423,77.0,0,72,1.0,0.0
14424,46.0,3,24,10.0,0.0
14425,65.0,12,72,5.0,0.0
14426,58.0,0,72,5.0,0.0
14427,94.0,12,12,7.0,0.0
14428,96.0,15,12,7.0,0.0
14429,56.0,0,24,10.0,0.0
14430,58.0,3,24,10.0,0.0
14431,94.0,12,12,7.0,0.0
14432,96.0,15,12,7.0,0.0
14433,94.0,0,12,7.0,0.0
14434,62.0,3,24,10.0,0.0
14435,96.0,15,12,7.0,0.0
14436,79.0,0,24,1.0,0.0
14437,75.0,3,24,3.0,0.0
14438,58.0,0,24,10.0,0.0
14439,56.0,0,24,10.0,0.0
14440,94.0,12,12,7.0,0.0
14441,67.0,0,24,5.0,0.0
14442,63.0,0,24,5.0,0.0
14443,96.0,15,12,7.0,0.0
14444,65.0,6,48,5.0,0.0
14445,68.0,0,48,5.0,0.0
14446,80.0,0,48,1.0,0.0
14447,94.0,12,12,7.0,0.0
14448,77.0,0,48,3.0,0.0
14449,62.0,3,24,10.0,0.0
14450,96.0,15,12,7.0,0.0
14451,94.0,6,12,7.0,0.0
14452,58.0,3,24,10.0,0.0
14453,56.0,0,24,10.0,0.0
14454,96.0,27,12,7.0,0.0
14455,79.0,0,96,3.0,0.0
14456,67.0,0,96,5.0,0.0
14457,70.0,0,96,5.0,0.0
14458,82.0,18,96,1.0,0.0
14459,82.0,0,72,7.0,0.0
14460,51.0,30,24,10.0,0.0
14461,94.0,12,72,7.0,0.0
14462,55.0,0,24,10.0,0.0
14463,58.0,18,24,10.0,0.0
14464,63.0,12,24,10.0,0.0
14465,80.0,0,24,7.0,0.0
14466,92.0,0,24,7.0,0.0
14467,55.0,30,24,10.0,0.0
14468,58.0,0,24,10.0,0.0
14469,79.0,6,48,7.0,0.0
14470,91.0,0,48,7.0,0.0
14471,63.0,24,24,10.0,0.0
14472,58.0,0,24,10.0,0.0
14473,55.0,30,24,10.0,0.0
14474,51.0,30,24,10.0,0.0
14475,79.0,12,72,7.0,0.0
14476,91.0,0,72,7.0,0.0
14477,55.0,18,24,10.0,0.0
14478,58.0,0,24,10.0,0.0
14479,63.0,30,24,10.0,0.0
14480,77.0,0,24,7.0,0.0
14481,89.0,0,24,7.0,0.0
14482,55.0,0,24,10.0,0.0
14483,58.0,30,24,10.0,0.0
14484,75.0,6,48,7.0,0.0
14485,87.0,0,48,7.0,0.0
14486,63.0,24,24,10.0,0.0
14487,58.0,0,24,10.0,0.0
14488,55.0,30,24,10.0,0.0
14489,75.0,12,72,7.0,0.0
14490,87.0,0,72,7.0,0.0
14491,51.0,30,24,10.0,0.0
14492,58.0,18,24,10.0,0.0
14493,55.0,0,24,10.0,0.0
14494,63.0,30,24,10.0,0.0
14495,58.0,0,24,10.0,0.0
14496,55.0,0,24,10.0,0.0
14497,89.0,30,24,7.0,0.0
14498,77.0,0,24,7.0,0.0
14499,91.0,6,48,7.0,0.0
14500,79.0,0,48,7.0,0.0
14501,63.0,24,24,10.0,0.0
14502,55.0,30,24,10.0,0.0
14503,58.0,0,24,10.0,0.0
14504,51.0,30,24,10.0,0.0
14505,75.0,0,72,3.0,0.0
14506,67.0,12,72,5.0,0.0
14507,79.0,0,72,7.0,0.0
14508,91.0,0,72,7.0,0.0
14509,79.0,0,72,1.0,0.0
14510,63.0,0,72,5.0,0.0
14511,55.0,18,24,10.0,0.0
14512,58.0,0,24,10.0,0.0
14513,63.0,30,24,10.0,0.0
14514,79.0,0,24,1.0,0.0
14515,92.0,0,24,7.0,0.0
14516,58.0,30,24,10.0,0.0
14517,55.0,0,24,10.0,0.0
14518,80.0,0,24,7.0,0.0
14519,63.0,0,24,5.0,0.0
14520,75.0,0,24,3.0,0.0
14521,67.0,0,24,5.0,0.0
14522,67.0,0,48,5.0,0.0
14523,63.0,0,48,5.0,0.0
14524,63.0,24,24,10.0,0.0
14525,94.0,0,48,7.0,0.0
14526,79.0,0,48,1.0,0.0
14527,75.0,6,48,3.0,0.0
14528,82.0,0,48,7.0,0.0
14529,58.0,30,24,10.0,0.0
14530,55.0,0,24,10.0,0.0
14531,44.0,30,24,10.0,0.0
14532,96.0,0,72,7.0,0.0
14533,84.0,12,72,7.0,0.0
14534,51.0,18,24,10.0,0.0
14535,56.0,0,24,10.0,0.0
14536,53.0,0,24,10.0,0.0
14537,60.0,30,24,10.0,0.0
14538,82.0,30,24,7.0,0.0
14539,51.0,0,24,10.0,0.0
14540,56.0,0,24,10.0,0.0
14541,53.0,0,24,10.0,0.0
14542,94.0,0,24,7.0,0.0
14543,92.0,0,48,7.0,0.0
14544,60.0,24,24,10.0,0.0
14545,80.0,6,48,7.0,0.0
14546,51.0,0,24,10.0,0.0
14547,53.0,0,24,10.0,0.0
14548,56.0,30,24,10.0,0.0
14549,44.0,30,24,10.0,0.0
14550,80.0,0,72,7.0,0.0
14551,92.0,12,72,7.0,0.0
14552,51.0,0,24,10.0,0.0
14553,56.0,18,24,10.0,0.0
14554,53.0,0,24,10.0,0.0
14555,60.0,30,24,10.0,0.0
14556,53.0,0,24,10.0,0.0
14557,56.0,30,24,10.0,0.0
14558,51.0,0,24,10.0,0.0
14559,79.0,0,24,7.0,0.0
14560,91.0,0,24,7.0,0.0
14561,60.0,24,24,10.0,0.0
14562,77.0,6,48,7.0,0.0
14563,89.0,0,48,7.0,0.0
14564,51.0,0,24,10.0,0.0
14565,53.0,30,24,10.0,0.0
14566,56.0,0,24,10.0,0.0
14567,44.0,30,24,10.0,0.0
14568,89.0,12,72,7.0,0.0
14569,77.0,0,72,7.0,0.0
14570,56.0,18,24,10.0,0.0
14571,51.0,0,24,10.0,0.0
14572,53.0,0,24,10.0,0.0
14573,60.0,30,24,10.0,0.0
14574,91.0,0,24,7.0,0.0
14575,79.0,0,24,7.0,0.0
14576,56.0,0,24,10.0,0.0
14577,51.0,30,24,10.0,0.0
14578,53.0,0,24,10.0,0.0
14579,92.0,6,48,7.0,0.0
14580,60.0,24,24,10.0,0.0
14581,80.0,0,48,7.0,0.0
14582,53.0,30,24,10.0,0.0
14583,51.0,0,24,10.0,0.0
14584,56.0,0,24,10.0,0.0
14585,65.0,12,72,5.0,0.0
14586,77.0,0,72,1.0,0.0
14587,80.0,0,72,7.0,0.0
14588,92.0,0,72,7.0,0.0
14589,44.0,30,24,10.0,0.0
14590,75.0,0,72,3.0,0.0
14591,63.0,0,72,5.0,0.0
14592,56.0,18,24,10.0,0.0
14593,51.0,0,24,10.0,0.0
14594,53.0,0,24,10.0,0.0
14595,60.0,30,24,10.0,0.0
14596,51.0,0,24,10.0,0.0
14597,65.0,0,24,5.0,0.0
14598,63.0,0,24,5.0,0.0
14599,82.0,30,24,7.0,0.0
14600,94.0,0,24,7.0,0.0
14601,56.0,0,24,10.0,0.0
14602,53.0,0,24,10.0,0.0
14603,77.0,0,24,1.0,0.0
14604,75.0,0,24,3.0,0.0
14605,96.0,0,48,7.0,0.0
14606,84.0,0,48,7.0,0.0
14607,77.0,0,48,1.0,0.0
14608,63.0,0,48,5.0,0.0
14609,75.0,6,48,3.0,0.0
14610,60.0,24,24,10.0,0.0
14611,65.0,0,48,5.0,0.0
14612,53.0,30,24,10.0,0.0
14613,56.0,0,24,10.0,0.0
14614,51.0,0,24,10.0,0.0
14615,46.0,24,24,10.0,0.0
14616,84.0,0,48,7.0,0.0
14617,55.0,0,24,11.0,0.0
14618,51.0,0,24,11.0,0.0
14619,96.0,6,48,7.0,0.0
14620,55.0,0,24,11.0,0.0
14621,51.0,30,24,10.0,0.0
14622,55.0,0,24,10.0,0.0
14623,51.0,0,24,11.0,0.0
14624,51.0,0,24,11.0,0.0
14625,55.0,0,24,11.0,0.0
14626,63.0,24,24,10.0,0.0
14627,82.0,6,48,7.0,0.0
14628,94.0,0,48,7.0,0.0
14629,55.0,0,24,11.0,0.0
14630,55.0,30,24,10.0,0.0
14631,51.0,0,24,11.0,0.0
14632,51.0,0,24,10.0,0.0
14633,92.0,6,48,7.0,0.0
14634,80.0,0,48,7.0,0.0
14635,63.0,24,24,10.0,0.0
14636,51.0,0,24,11.0,0.0
14637,55.0,0,24,11.0,0.0
14638,55.0,30,24,11.0,0.0
14639,51.0,0,24,10.0,0.0
14640,55.0,0,24,10.0,0.0
14641,51.0,0,24,11.0,0.0
14642,79.0,0,48,7.0,0.0
14643,91.0,6,48,7.0,0.0
14644,46.0,0,24,10.0,0.0
14645,55.0,24,24,11.0,0.0
14646,51.0,0,24,11.0,0.0
14647,51.0,30,24,11.0,0.0
14648,51.0,0,24,10.0,0.0
14649,55.0,0,24,10.0,0.0
14650,55.0,0,24,11.0,0.0
14651,89.0,0,48,7.0,0.0
14652,55.0,0,24,11.0,0.0
14653,77.0,6,48,7.0,0.0
14654,51.0,0,24,11.0,0.0
14655,63.0,24,24,10.0,0.0
14656,55.0,0,24,10.0,0.0
14657,51.0,0,24,10.0,0.0
14658,55.0,0,24,11.0,0.0
14659,51.0,30,24,11.0,0.0
14660,63.0,0,24,10.0,0.0
14661,51.0,0,24,11.0,0.0
14662,75.0,0,48,7.0,0.0
14663,87.0,6,48,7.0,0.0
14664,55.0,24,24,11.0,0.0
14665,55.0,0,24,10.0,0.0
14666,55.0,0,24,11.0,0.0
14667,51.0,30,24,11.0,0.0
14668,51.0,0,24,10.0,0.0
14669,46.0,30,24,10.0,0.0
14670,63.0,0,24,11.0,0.0
14671,75.0,0,144,7.0,0.0
14672,51.0,0,24,11.0,0.0
14673,87.0,0,144,7.0,0.0
14674,55.0,0,24,11.0,0.0
14675,51.0,18,96,12.0,0.0
14676,55.0,30,24,11.0,0.0
14677,58.0,0,24,11.0,0.0
14678,51.0,0,24,10.0,0.0
14679,55.0,0,24,10.0,0.0
14680,51.0,0,24,11.0,0.0
14681,63.0,12,24,10.0,0.0
14682,55.0,0,24,11.0,0.0
14683,51.0,0,24,11.0,0.0
14684,58.0,0,24,11.0,0.0
14685,58.0,30,24,11.0,0.0
14686,51.0,0,24,10.0,0.0
14687,55.0,0,24,10.0,0.0
14688,55.0,0,24,11.0,0.0
14689,51.0,0,24,11.0,0.0
14690,55.0,0,24,11.0,0.0
14691,51.0,30,24,11.0,0.0
14692,63.0,0,24,10.0,0.0
14693,58.0,0,24,11.0,0.0
14694,55.0,0,24,10.0,0.0
14695,58.0,0,24,11.0,0.0
14696,55.0,30,24,11.0,0.0
14697,51.0,0,24,11.0,0.0
14698,51.0,0,24,10.0,0.0
14699,58.0,0,24,11.0,0.0
14700,46.0,30,24,10.0,0.0
14701,79.0,18,96,7.0,0.0
14702,56.0,0,24,11.0,0.0
14703,74.0,0,72,1.0,0.0
14704,58.0,0,72,5.0,0.0
14705,65.0,0,72,5.0,0.0
14706,91.0,0,96,7.0,0.0
14707,68.0,12,72,3.0,0.0
14708,50.0,0,24,11.0,0.0
14709,46.0,0,96,12.0,0.0
14710,50.0,0,24,11.0,0.0
14711,56.0,0,24,11.0,0.0
14712,58.0,18,24,11.0,0.0
14713,56.0,0,24,10.0,0.0
14714,53.0,0,24,10.0,0.0
14715,62.0,0,24,10.0,0.0
14716,58.0,0,24,11.0,0.0
14717,50.0,12,24,11.0,0.0
14718,56.0,0,24,11.0,0.0
14719,58.0,30,24,5.0,0.0
14720,53.0,0,24,10.0,0.0
14721,56.0,0,24,10.0,0.0
14722,58.0,0,24,11.0,0.0
14723,68.0,0,24,3.0,0.0
14724,65.0,0,24,5.0,0.0
14725,50.0,0,24,11.0,0.0
14726,74.0,0,24,1.0,0.0
14727,56.0,0,24,11.0,0.0
14728,89.0,0,48,7.0,0.0
14729,77.0,0,48,7.0,0.0
14730,74.0,0,48,1.0,0.0
14731,50.0,0,24,11.0,0.0
14732,58.0,6,48,5.0,0.0
14733,65.0,0,48,5.0,0.0
14734,56.0,0,24,11.0,0.0
14735,68.0,0,48,3.0,0.0
14736,62.0,0,24,10.0,0.0
14737,58.0,0,24,11.0,0.0
14738,56.0,0,24,11.0,0.0
14739,58.0,0,24,11.0,0.0
14740,53.0,0,24,10.0,0.0
14741,56.0,0,24,10.0,0.0
14742,50.0,30,24,11.0,0.0
14743,79.0,0,96,1.0,0.0
14744,55.0,0,96,11.0,0.0
14745,55.0,0,96,5.0,0.0
14746,63.0,0,96,5.0,0.0
14747,51.0,0,96,6.0,0.0
14748,75.0,0,96,7.0,0.0
14749,87.0,0,96,7.0,0.0
14750,51.0,0,96,11.0,0.0
14751,70.0,0,96,3.0,0.0
14752,67.0,0,96,3.0,0.0
14753,75.0,0,96,1.0,0.0
14754,53.0,0,96,12.0,0.0
14755,58.0,30,24,11.0,0.0
14756,58.0,0,96,10.0,0.0
14757,87.0,0,96,0.0,0.0
14758,63.0,0,96,4.0,0.0
14759,55.0,0,96,4.0,0.0
14760,51.0,0,96,10.0,0.0
14761,55.0,0,96,10.0,0.0
14762,63.0,18,96,11.0,0.0
14763,82.0,0,96,0.0,0.0
14764,63.0,0,96,10.0,0.0
14765,58.0,30,24,11.0,0.0
14766,58.0,12,24,11.0,0.0
14767,58.0,30,24,11.0,0.0
14768,58.0,24,24,11.0,0.0
14769,63.0,6,48,11.0,0.0
14770,58.0,30,24,11.0,0.0
14771,63.0,12,72,11.0,0.0
14772,46.0,18,96,12.0,0.0
14773,58.0,30,24,11.0,0.0
14774,58.0,18,24,11.0,0.0
14775,58.0,12,24,11.0,0.0
14776,58.0,0,24,11.0,0.0
14777,65.0,30,24,11.0,0.0
14778,67.0,6,48,11.0,0.0
14779,58.0,24,24,11.0,0.0
14780,58.0,102,24,11.0,0.0
14781,58.0,0,96,6.0,0.0
14782,58.0,6,648,11.0,0.0
14783,46.0,0,96,6.0,0.0
14784,58.0,0,96,5.0,0.0
14785,74.0,0,96,1.0,0.0
14786,80.0,0,96,1.0,0.0
14787,62.0,0,96,4.0,0.0
14788,58.0,0,96,4.0,0.0
14789,65.0,0,96,5.0,0.0
14790,68.0,0,96,11.0,0.0
14791,51.0,72,96,14.0,0.0
14792,86.0,0,96,0.0,0.0
14793,70.0,0,96,3.0,0.0
14794,68.0,0,96,3.0,0.0
14795,39.0,0,96,14.0,0.0
14796,82.0,0,96,0.0,0.0
14797,65.0,84,48,11.0,0.0
14798,65.0,24,72,11.0,0.0
14799,46.0,18,96,14.0,0.0
14800,34.0,0,96,14.0,0.0
14801,67.0,69,24,11.0,0.0
14802,68.0,21,48,11.0,0.0
14803,51.0,30,24,10.0,0.0
14804,70.0,25,299,11.0,0.0
14805,41.0,18,96,14.0,0.0
14806,53.0,0,96,14.0,0.0
14807,55.0,30,24,10.0,0.0
14808,58.0,12,24,10.0,0.0
14809,55.0,30,24,10.0,0.0
14810,58.0,0,24,10.0,0.0
14811,63.0,30,24,7.0,0.0
14812,75.0,0,24,7.0,0.0
14813,55.0,30,24,10.0,0.0
14814,63.0,0,24,7.0,0.0
14815,46.0,30,24,10.0,0.0
14816,46.0,0,96,14.0,0.0
14817,34.0,12,96,14.0,0.0
14818,75.0,0,24,7.0,0.0
14819,55.0,30,24,10.0,0.0
14820,65.0,0,24,7.0,0.0
14821,58.0,12,24,10.0,0.0
14822,77.0,0,24,7.0,0.0
14823,55.0,5,24,10.0,0.0
14824,67.0,0,24,7.0,0.0
14825,58.0,30,24,10.0,0.0
14826,79.0,0,24,7.0,0.0
14827,55.0,30,24,10.0,0.0
14828,39.0,0,96,14.0,0.0
14829,53.0,0,24,10.0,0.0
14830,70.0,6,288,11.0,0.0
14831,51.0,18,96,14.0,0.0
14832,58.0,0,288,11.0,0.0
14833,68.0,30,24,7.0,0.0
14834,80.0,0,24,7.0,0.0
14835,58.0,30,24,10.0,0.0
14836,56.0,0,24,10.0,0.0
14837,62.0,12,24,10.0,0.0
14838,58.0,30,24,10.0,0.0
14839,56.0,0,24,10.0,0.0
14840,65.0,0,24,7.0,0.0
14841,62.0,30,24,10.0,0.0
14842,77.0,30,24,7.0,0.0
14843,56.0,0,24,10.0,0.0
14844,58.0,0,24,10.0,0.0
14845,65.0,0,24,7.0,0.0
14846,46.0,12,96,14.0,0.0
14847,34.0,0,96,14.0,0.0
14848,46.0,30,24,10.0,0.0
14849,58.0,30,24,10.0,0.0
14850,77.0,0,24,7.0,0.0
14851,56.0,0,24,10.0,0.0
14852,67.0,0,24,7.0,0.0
14853,62.0,12,24,10.0,0.0
14854,79.0,30,24,7.0,0.0
14855,56.0,0,24,10.0,0.0
14856,58.0,0,24,10.0,0.0
14857,68.0,0,24,7.0,0.0
14858,62.0,30,24,10.0,0.0
14859,80.0,30,24,7.0,0.0
14860,56.0,0,24,10.0,0.0
14861,58.0,0,24,10.0,0.0
14862,41.0,0,96,14.0,0.0
14863,70.0,0,1008,11.0,0.0
14864,58.0,6,1008,11.0,0.0
14865,51.0,0,24,10.0,0.0
14866,70.0,30,24,7.0,0.0
14867,53.0,18,96,14.0,0.0
14868,82.0,0,24,7.0,0.0
14869,58.0,0,24,10.0,0.0
14870,55.0,30,24,10.0,0.0
14871,79.0,0,24,7.0,0.0
14872,63.0,12,24,10.0,0.0
14873,91.0,30,24,7.0,0.0
14874,55.0,0,24,10.0,0.0
14875,58.0,0,24,10.0,0.0
14876,74.0,30,24,7.0,0.0
14877,63.0,0,24,10.0,0.0
14878,86.0,30,24,7.0,0.0
14879,58.0,0,24,10.0,0.0
14880,55.0,0,24,10.0,0.0
14881,46.0,0,96,14.0,0.0
14882,46.0,30,24,10.0,0.0
14883,75.0,0,24,7.0,0.0
14884,34.0,18,96,14.0,0.0
14885,87.0,0,24,7.0,0.0
14886,58.0,0,24,10.0,0.0
14887,55.0,30,24,10.0,0.0
14888,77.0,0,24,7.0,0.0
14889,63.0,12,24,10.0,0.0
14890,58.0,30,24,10.0,0.0
14891,89.0,0,24,7.0,0.0
14892,55.0,0,24,10.0,0.0
14893,63.0,0,24,10.0,0.0
14894,79.0,30,24,7.0,0.0
14895,58.0,0,24,10.0,0.0
14896,91.0,0,24,7.0,0.0
14897,55.0,30,24,10.0,0.0
14898,79.0,0,24,7.0,0.0
14899,53.0,30,24,10.0,0.0
14900,51.0,0,96,14.0,0.0
14901,39.0,18,96,14.0,0.0
14902,56.0,0,24,10.0,0.0
14903,91.0,0,24,7.0,0.0
14904,58.0,30,24,10.0,0.0
14905,62.0,12,24,10.0,0.0
14906,80.0,0,24,7.0,0.0
14907,92.0,0,24,7.0,0.0
14908,56.0,30,24,10.0,0.0
14909,58.0,0,24,10.0,0.0
14910,76.0,30,24,7.0,0.0
14911,62.0,0,24,10.0,0.0
14912,58.0,30,24,10.0,0.0
14913,56.0,0,24,10.0,0.0
14914,88.0,0,24,7.0,0.0
14915,34.0,18,96,14.0,0.0
14916,46.0,0,96,14.0,0.0
14917,77.0,0,24,7.0,0.0
14918,46.0,30,24,10.0,0.0
14919,89.0,0,24,7.0,0.0
14920,58.0,30,24,10.0,0.0
14921,56.0,0,24,10.0,0.0
14922,79.0,0,24,7.0,0.0
14923,62.0,12,24,10.0,0.0
14924,91.0,0,24,7.0,0.0
14925,58.0,30,24,10.0,0.0
14926,56.0,0,24,10.0,0.0
14927,80.0,0,24,7.0,0.0
14928,62.0,30,24,10.0,0.0
14929,56.0,0,24,10.0,0.0
14930,92.0,0,24,7.0,0.0
14931,58.0,18,24,10.0,0.0
14932,46.0,6,96,14.0,0.0
14933,51.0,3,24,10.0,0.0
14934,94.0,12,12,7.0,0.0
14935,58.0,0,96,14.0,0.0
14936,96.0,15,12,7.0,0.0
14937,94.0,12,12,7.0,0.0
14938,55.0,3,24,10.0,0.0
14939,96.0,15,12,7.0,0.0
14940,94.0,12,12,7.0,0.0
14941,58.0,3,24,10.0,0.0
14942,96.0,9,12,7.0,0.0
14943,94.0,12,12,7.0,0.0
14944,63.0,3,24,10.0,0.0
14945,96.0,15,12,7.0,0.0
14946,55.0,0,48,5.0,0.0
14947,63.0,6,48,5.0,0.0
14948,67.0,3,24,10.0,0.0
14949,75.0,0,48,1.0,0.0
14950,70.0,0,48,3.0,0.0
14951,94.0,12,12,7.0,0.0
14952,96.0,15,12,7.0,0.0
14953,94.0,6,12,7.0,0.0
14954,70.0,3,24,10.0,0.0
14955,96.0,15,12,7.0,0.0
14956,75.0,0,72,1.0,0.0
14957,70.0,0,72,3.0,0.0
14958,75.0,3,24,10.0,0.0
14959,94.0,12,12,7.0,0.0
14960,63.0,0,72,5.0,0.0
14961,55.0,12,72,5.0,0.0
14962,34.0,6,96,14.0,0.0
14963,46.0,0,96,14.0,0.0
14964,96.0,15,12,7.0,0.0
14965,70.0,3,24,10.0,0.0
14966,94.0,12,12,7.0,0.0
14967,96.0,15,12,7.0,0.0
14968,94.0,0,12,7.0,0.0
14969,77.0,3,24,10.0,0.0
14970,96.0,9,12,7.0,0.0
14971,74.0,0,24,3.0,0.0
14972,65.0,0,24,5.0,0.0
14973,58.0,0,24,5.0,0.0
14974,94.0,6,12,7.0,0.0
14975,74.0,0,24,10.0,0.0
14976,77.0,3,24,1.0,0.0
14977,96.0,15,12,7.0,0.0
14978,94.0,12,12,7.0,0.0
14979,67.0,0,48,5.0,0.0
14980,79.0,3,24,10.0,0.0
14981,75.0,0,48,3.0,0.0
14982,79.0,6,48,1.0,0.0
14983,63.0,0,48,5.0,0.0
14984,96.0,15,12,7.0,0.0
14985,96.0,0,12,7.0,0.0
14986,75.0,3,24,10.0,0.0
14987,94.0,6,12,7.0,0.0
14988,94.0,15,12,7.0,0.0
14989,77.0,6,48,3.0,0.0
14990,94.0,12,12,7.0,0.0
14991,51.0,0,96,14.0,0.0
14992,80.0,0,48,1.0,0.0
14993,70.0,6,288,11.0,0.0
14994,96.0,0,12,7.0,0.0
14995,65.0,0,48,5.0,0.0
14996,68.0,0,48,5.0,0.0
14997,80.0,3,24,10.0,0.0
14998,58.0,0,288,11.0,0.0
14999,39.0,6,96,14.0,0.0
15000,96.0,15,12,7.0,0.0
15001,77.0,3,24,10.0,0.0
15002,94.0,6,12,7.0,0.0
15003,96.0,15,12,7.0,0.0
15004,94.0,12,12,7.0,0.0
15005,74.0,3,24,10.0,0.0
15006,96.0,9,12,7.0,0.0
15007,94.0,12,12,7.0,0.0
15008,70.0,3,24,10.0,0.0
15009,96.0,15,12,7.0,0.0
15010,94.0,12,12,7.0,0.0
15011,77.0,6,48,1.0,0.0
15012,74.0,0,48,3.0,0.0
15013,77.0,3,24,10.0,0.0
15014,58.0,0,48,5.0,0.0
15015,65.0,0,48,5.0,0.0
15016,96.0,15,12,7.0,0.0
15017,94.0,6,12,7.0,0.0
15018,74.0,3,24,10.0,0.0
15019,96.0,15,12,7.0,0.0
15020,65.0,0,72,5.0,0.0
15021,58.0,0,72,5.0,0.0
15022,77.0,0,72,1.0,0.0
15023,74.0,0,72,3.0,0.0
15024,94.0,12,12,7.0,0.0
15025,77.0,3,24,10.0,0.0
15026,96.0,15,12,7.0,0.0
15027,94.0,12,12,7.0,0.0
15028,74.0,3,24,10.0,0.0
15029,96.0,15,12,7.0,0.0
15030,79.0,3,24,10.0,0.0
15031,94.0,12,12,7.0,0.0
15032,96.0,0,12,7.0,0.0
15033,94.0,15,12,7.0,0.0
15034,63.0,0,24,5.0,0.0
15035,75.0,3,24,3.0,0.0
15036,75.0,0,24,10.0,0.0
15037,79.0,0,24,1.0,0.0
15038,67.0,0,24,5.0,0.0
15039,96.0,6,12,7.0,0.0
15040,94.0,15,12,7.0,0.0
15041,80.0,3,24,10.0,0.0
15042,65.0,0,48,5.0,0.0
15043,94.0,0,12,7.0,0.0
15044,77.0,0,48,3.0,0.0
15045,96.0,12,12,7.0,0.0
15046,68.0,6,48,5.0,0.0
15047,80.0,0,48,1.0,0.0
15048,96.0,15,12,7.0,0.0
15049,94.0,6,12,7.0,0.0
15050,77.0,3,24,10.0,0.0
15051,96.0,27,12,7.0,0.0
15052,58.0,0,96,11.0,0.0
15053,67.0,18,96,5.0,0.0
15054,70.0,0,96,5.0,0.0
15055,79.0,0,96,3.0,0.0
15056,70.0,12,72,11.0,0.0
15057,94.0,30,24,7.0,0.0
15058,82.0,0,96,1.0,0.0
15059,82.0,0,24,10.0,0.0
15060,79.0,0,24,10.0,0.0
15061,91.0,18,24,7.0,0.0
15062,87.0,12,24,7.0,0.0
15063,75.0,0,24,10.0,0.0
15064,70.0,0,24,10.0,0.0
15065,82.0,30,24,7.0,0.0
15066,68.0,0,24,11.0,0.0
15067,79.0,0,24,10.0,0.0
15068,91.0,24,24,7.0,0.0
15069,67.0,6,48,11.0,0.0
15070,75.0,30,24,10.0,0.0
15071,87.0,0,24,7.0,0.0
15072,51.0,18,96,5.0,0.0
15073,63.0,0,96,5.0,0.0
15074,67.0,12,72,11.0,0.0
15075,75.0,0,96,3.0,0.0
15076,70.0,30,24,10.0,0.0
15077,79.0,0,96,1.0,0.0
15078,82.0,0,24,7.0,0.0
15079,67.0,0,24,10.0,0.0
15080,79.0,18,24,7.0,0.0
15081,75.0,12,24,10.0,0.0
15082,87.0,0,24,7.0,0.0
15083,65.0,30,24,11.0,0.0
15084,70.0,0,24,10.0,0.0
15085,82.0,0,24,7.0,0.0
15086,79.0,24,24,7.0,0.0
15087,67.0,0,24,10.0,0.0
15088,63.0,6,48,11.0,0.0
15089,63.0,30,24,10.0,0.0
15090,75.0,0,24,7.0,0.0
15091,63.0,0,96,5.0,0.0
15092,70.0,30,24,10.0,0.0
15093,63.0,12,72,11.0,0.0
15094,75.0,0,96,3.0,0.0
15095,79.0,18,96,1.0,0.0
15096,82.0,0,24,7.0,0.0
15097,51.0,0,96,5.0,0.0
15098,79.0,0,24,7.0,0.0
15099,67.0,18,24,10.0,0.0
15100,75.0,0,24,7.0,0.0
15101,63.0,12,24,10.0,0.0
15102,58.0,0,24,10.0,0.0
15103,65.0,0,24,11.0,0.0
15104,70.0,30,24,7.0,0.0
15105,63.0,0,24,10.0,0.0
15106,75.0,24,24,7.0,0.0
15107,67.0,6,48,11.0,0.0
15108,79.0,30,24,7.0,0.0
15109,67.0,0,24,10.0,0.0
15110,82.0,0,24,7.0,0.0
15111,67.0,12,72,11.0,0.0
15112,70.0,30,24,10.0,0.0
15113,79.0,18,96,1.0,0.0
15114,63.0,0,96,5.0,0.0
15115,51.0,0,96,5.0,0.0
15116,75.0,0,96,3.0,0.0
15117,75.0,18,24,10.0,0.0
15118,87.0,0,24,7.0,0.0
15119,79.0,0,24,10.0,0.0
15120,91.0,12,24,7.0,0.0
15121,75.0,0,24,10.0,0.0
15122,68.0,0,24,11.0,0.0
15123,87.0,30,24,7.0,0.0
15124,70.0,6,48,11.0,0.0
15125,82.0,24,24,10.0,0.0
15126,94.0,0,24,7.0,0.0
15127,79.0,0,24,10.0,0.0
15128,91.0,30,24,7.0,0.0
15129,56.0,0,96,4.0,0.0
15130,77.0,0,96,1.0,0.0
15131,65.0,0,96,5.0,0.0
15132,63.0,18,96,5.0,0.0
15133,60.0,0,96,4.0,0.0
15134,75.0,0,96,3.0,0.0
15135,72.0,12,72,11.0,0.0
15136,96.0,0,24,7.0,0.0
15137,84.0,30,24,10.0,0.0
15138,80.0,18,24,10.0,0.0
15139,92.0,0,24,7.0,0.0
15140,77.0,12,24,10.0,0.0
15141,89.0,0,24,7.0,0.0
15142,84.0,30,24,7.0,0.0
15143,70.0,0,24,11.0,0.0
15144,72.0,0,24,10.0,0.0
15145,68.0,6,48,11.0,0.0
15146,80.0,24,24,10.0,0.0
15147,92.0,0,24,7.0,0.0
15148,77.0,30,24,10.0,0.0
15149,89.0,0,24,7.0,0.0
15150,68.0,12,72,11.0,0.0
15151,77.0,0,96,1.0,0.0
15152,75.0,0,96,3.0,0.0
15153,72.0,30,24,10.0,0.0
15154,65.0,0,96,5.0,0.0
15155,63.0,18,96,5.0,0.0
15156,60.0,0,96,4.0,0.0
15157,56.0,0,96,4.0,0.0
15158,84.0,0,24,7.0,0.0
15159,80.0,0,24,7.0,0.0
15160,68.0,18,24,10.0,0.0
15161,77.0,12,24,10.0,0.0
15162,89.0,0,24,7.0,0.0
15163,84.0,0,24,7.0,0.0
15164,72.0,30,24,10.0,0.0
15165,67.0,0,24,11.0,0.0
15166,65.0,6,48,11.0,0.0
15167,80.0,0,24,7.0,0.0
15168,68.0,24,24,10.0,0.0
15169,77.0,30,24,7.0,0.0
15170,65.0,0,24,10.0,0.0
15171,65.0,0,96,5.0,0.0
15172,56.0,0,96,4.0,0.0
15173,72.0,30,24,10.0,0.0
15174,60.0,0,96,4.0,0.0
15175,77.0,0,96,1.0,0.0
15176,84.0,0,24,7.0,0.0
15177,63.0,18,96,5.0,0.0
15178,65.0,12,72,11.0,0.0
15179,75.0,0,96,3.0,0.0
15180,68.0,18,24,10.0,0.0
15181,80.0,0,24,7.0,0.0
15182,77.0,0,24,7.0,0.0
15183,65.0,12,24,10.0,0.0
15184,67.0,30,24,11.0,0.0
15185,72.0,0,24,7.0,0.0
15186,60.0,0,24,10.0,0.0
15187,65.0,24,24,10.0,0.0
15188,77.0,0,24,7.0,0.0
15189,68.0,6,48,11.0,0.0
15190,80.0,30,24,7.0,0.0
15191,68.0,0,24,10.0,0.0
15192,63.0,0,96,5.0,0.0
15193,68.0,12,72,11.0,0.0
15194,56.0,0,96,4.0,0.0
15195,60.0,0,96,4.0,0.0
15196,75.0,0,96,3.0,0.0
15197,65.0,18,96,5.0,0.0
15198,72.0,0,24,10.0,0.0
15199,84.0,30,24,7.0,0.0
15200,77.0,0,96,1.0,0.0
15201,89.0,0,24,7.0,0.0
15202,77.0,18,24,10.0,0.0
15203,92.0,0,24,7.0,0.0
15204,80.0,12,24,10.0,0.0
15205,89.0,30,24,7.0,0.0
15206,70.0,0,24,11.0,0.0
15207,77.0,0,24,10.0,0.0
15208,72.0,6,48,11.0,0.0
15209,84.0,24,24,10.0,0.0
15210,96.0,0,24,7.0,0.0
15211,80.0,0,24,10.0,0.0
15212,92.0,54,24,7.0,0.0
15213,79.0,0,96,1.0,0.0
15214,63.0,0,96,5.0,0.0
15215,75.0,0,96,3.0,0.0
15216,67.0,0,96,5.0,0.0
15217,58.0,12,96,4.0,0.0
15218,72.0,36,48,11.0,0.0
15219,96.0,0,48,7.0,0.0
15220,84.0,0,48,10.0,0.0
15221,82.0,0,24,10.0,0.0
15222,94.0,12,24,7.0,0.0
15223,70.0,6,48,11.0,0.0
15224,80.0,30,24,10.0,0.0
15225,92.0,0,24,7.0,0.0
15226,68.0,6,48,11.0,0.0
15227,91.0,0,24,7.0,0.0
15228,79.0,24,24,10.0,0.0
15229,89.0,0,24,7.0,0.0
15230,77.0,30,24,10.0,0.0
15231,67.0,0,96,5.0,0.0
15232,75.0,0,96,3.0,0.0
15233,75.0,24,24,10.0,0.0
15234,67.0,6,48,11.0,0.0
15235,58.0,12,96,4.0,0.0
15236,63.0,0,96,5.0,0.0
15237,79.0,0,96,1.0,0.0
15238,87.0,0,24,7.0,0.0
15239,86.0,0,24,7.0,0.0
15240,74.0,30,24,10.0,0.0
15241,84.0,0,24,7.0,0.0
15242,65.0,6,48,11.0,0.0
15243,72.0,12,24,10.0,0.0
15244,70.0,30,24,10.0,0.0
15245,82.0,0,24,7.0,0.0
15246,80.0,24,24,7.0,0.0
15247,68.0,0,24,10.0,0.0
15248,63.0,6,48,11.0,0.0
15249,67.0,0,24,10.0,0.0
15250,79.0,30,24,7.0,0.0
15251,79.0,0,96,1.0,0.0
15252,77.0,30,24,7.0,0.0
15253,63.0,0,96,5.0,0.0
15254,75.0,16,96,3.0,0.0
15255,67.0,0,96,5.0,0.0
15256,46.0,0,96,4.0,0.0
15257,58.0,0,96,4.0,0.0
15258,65.0,0,24,10.0,0.0
15259,63.0,2,112,11.0,0.0
15260,63.0,0,24,10.0,0.0
15261,75.0,30,24,7.0,0.0
15262,74.0,12,24,7.0,0.0
15263,62.0,0,24,10.0,0.0
15264,75.0,0,24,7.0,0.0
15265,63.0,18,24,10.0,0.0
15266,79.0,3,24,7.0,0.0
15267,65.0,12,12,11.0,0.0
15268,67.0,0,24,10.0,0.0
15269,63.0,15,12,11.0,0.0
15270,62.0,12,12,11.0,0.0
15271,63.0,0,24,10.0,0.0
15272,75.0,3,24,7.0,0.0
15273,63.0,27,12,11.0,0.0
15274,70.0,30,24,10.0,0.0
15275,82.0,0,24,7.0,0.0
15276,67.0,18,96,11.0,0.0
15277,79.0,30,24,7.0,0.0
15278,67.0,0,24,10.0,0.0
15279,75.0,0,24,10.0,0.0
15280,87.0,12,24,7.0,0.0
15281,82.0,0,24,7.0,0.0
15282,70.0,30,24,10.0,0.0
15283,79.0,24,24,10.0,0.0
15284,58.0,0,48,5.0,0.0
15285,77.0,0,48,1.0,0.0
15286,58.0,0,48,4.0,0.0
15287,74.0,6,48,3.0,0.0
15288,65.0,0,48,11.0,0.0
15289,91.0,0,24,7.0,0.0
15290,65.0,0,48,5.0,0.0
15291,46.0,0,48,4.0,0.0
15292,77.0,78,24,10.0,0.0
15293,89.0,0,24,7.0,0.0
15294,67.0,0,96,3.0,0.0
15295,63.0,0,96,11.0,0.0
15296,75.0,0,96,3.0,0.0
15297,87.0,18,96,0.0,0.0
15298,51.0,0,96,4.0,0.0
15299,51.0,0,96,12.0,0.0
15300,75.0,0,96,1.0,0.0
15301,67.0,0,96,1.0,0.0
15302,51.0,0,72,5.0,0.0
15303,63.0,0,72,5.0,0.0
15304,55.0,0,96,11.0,0.0
15305,51.0,0,96,11.0,0.0
15306,75.0,0,96,10.0,0.0
15307,75.0,0,96,0.0,0.0
15308,87.0,0,96,7.0,0.0
15309,75.0,0,96,11.0,0.0
15310,63.0,24,72,6.0,0.0
15311,51.0,0,72,6.0,0.0
15312,51.0,0,96,8.0,0.0
15313,51.0,54,24,6.0,0.0
15314,63.0,0,24,5.0,0.0
15315,51.0,0,24,5.0,0.0
15316,63.0,0,24,6.0,0.0
15317,63.0,60,48,5.0,0.0
15318,63.0,0,48,6.0,0.0
15319,51.0,0,48,6.0,0.0
15320,51.0,0,48,5.0,0.0
15321,63.0,0,48,6.0,0.0
15322,51.0,0,48,6.0,0.0
15323,63.0,60,48,5.0,0.0
15324,51.0,0,48,5.0,0.0
15325,63.0,0,48,6.0,0.0
15326,51.0,0,48,6.0,0.0
15327,51.0,0,48,5.0,0.0
15328,63.0,60,48,5.0,0.0
15329,51.0,0,48,5.0,0.0
15330,63.0,0,48,5.0,0.0
15331,63.0,66,48,6.0,0.0
15332,51.0,0,48,6.0,0.0
15333,87.0,0,144,11.0,0.0
15334,60.0,0,144,12.0,0.0
15335,63.0,0,288,6.0,0.0
15336,51.0,0,288,6.0,0.0
15337,87.0,0,144,0.0,0.0
15338,51.0,0,288,5.0,0.0
15339,63.0,0,288,5.0,0.0
15340,60.0,0,144,4.0,0.0
15341,63.0,0,144,4.0,0.0
15342,75.0,0,144,3.0,0.0
15343,75.0,0,144,1.0,0.0
15344,51.0,30,24,11.0,0.0
15345,63.0,0,24,11.0,0.0
15346,53.0,0,24,11.0,0.0
15347,65.0,30,24,11.0,0.0
15348,67.0,30,24,11.0,0.0
15349,55.0,0,24,11.0,0.0
15350,56.0,0,24,11.0,0.0
15351,68.0,30,24,11.0,0.0
15352,70.0,30,24,11.0,0.0
15353,58.0,0,24,11.0,0.0
15354,84.0,0,144,1.0,0.0
15355,72.0,0,144,3.0,0.0
15356,72.0,30,24,11.0,0.0
15357,72.0,0,144,1.0,0.0
15358,84.0,0,144,0.0,0.0
15359,60.0,0,24,11.0,0.0
15360,84.0,0,144,3.0,0.0
15361,84.0,0,24,11.0,0.0
15362,60.0,0,144,4.0,0.0
15363,56.0,0,144,4.0,0.0
15364,56.0,0,144,12.0,0.0
15365,83.0,0,24,11.0,0.0
15366,71.0,30,24,11.0,0.0
15367,59.0,0,24,11.0,0.0
15368,72.0,0,24,11.0,0.0
15369,84.0,24,24,11.0,0.0
15370,60.0,0,24,11.0,0.0
15371,74.0,0,24,11.0,0.0
15372,62.0,0,24,11.0,0.0
15373,86.0,30,24,11.0,0.0
15374,87.0,0,24,11.0,0.0
15375,63.0,30,24,11.0,0.0
15376,75.0,0,24,11.0,0.0
15377,84.0,78,24,11.0,0.0
15378,60.0,0,24,11.0,0.0
15379,72.0,0,24,11.0,0.0
15380,82.0,0,96,0.0,0.0
15381,46.0,0,96,8.0,0.0
15382,82.0,0,96,11.0,0.0
15383,70.0,0,96,1.0,0.0
15384,58.0,0,72,5.0,0.0
15385,82.0,0,96,1.0,0.0
15386,70.0,0,96,3.0,0.0
15387,82.0,18,96,3.0,0.0
15388,55.0,0,96,4.0,0.0
15389,58.0,0,96,4.0,0.0
15390,70.0,0,96,11.0,0.0
15391,58.0,0,96,11.0,0.0
15392,55.0,0,96,12.0,0.0
15393,46.0,24,72,5.0,0.0
15394,46.0,0,72,6.0,0.0
15395,58.0,0,72,6.0,0.0
15396,58.0,0,24,6.0,0.0
15397,46.0,0,24,6.0,0.0
15398,46.0,0,24,5.0,0.0
15399,58.0,54,24,5.0,0.0
15400,46.0,0,48,5.0,0.0
15401,58.0,0,48,5.0,0.0
15402,46.0,60,48,6.0,0.0
15403,58.0,0,48,6.0,0.0
15404,46.0,60,48,5.0,0.0
15405,58.0,0,48,6.0,0.0
15406,46.0,0,48,6.0,0.0
15407,58.0,0,48,5.0,0.0
15408,58.0,0,48,6.0,0.0
15409,46.0,0,48,5.0,0.0
15410,58.0,0,48,5.0,0.0
15411,46.0,60,48,6.0,0.0
15412,46.0,36,48,6.0,0.0
15413,58.0,0,48,6.0,0.0
15414,46.0,0,48,5.0,0.0
15415,58.0,0,48,5.0,0.0
15416,46.0,6,288,6.0,0.0
15417,53.0,0,144,4.0,0.0
15418,56.0,0,144,4.0,0.0
15419,65.0,30,144,3.0,0.0
15420,58.0,0,144,12.0,0.0
15421,77.0,0,144,1.0,0.0
15422,80.0,0,144,11.0,0.0
15423,58.0,0,288,6.0,0.0
15424,68.0,0,144,3.0,0.0
15425,80.0,0,144,1.0,0.0
15426,56.0,30,24,11.0,0.0
15427,87.0,0,96,0.0,0.0
15428,79.0,18,96,0.0,0.0
15429,46.0,0,288,5.0,0.0
15430,58.0,0,288,5.0,0.0
15431,58.0,30,24,11.0,0.0
15432,56.0,0,24,11.0,0.0
15433,58.0,12,24,11.0,0.0
15434,58.0,0,24,11.0,0.0
15435,60.0,30,24,11.0,0.0
15436,56.0,0,24,11.0,0.0
15437,62.0,0,24,11.0,0.0
15438,58.0,30,24,11.0,0.0
15439,63.0,0,24,11.0,0.0
15440,56.0,0,24,11.0,0.0
15441,74.0,0,144,1.0,0.0
15442,77.0,0,144,1.0,0.0
15443,50.0,0,144,4.0,0.0
15444,65.0,30,24,11.0,0.0
15445,46.0,0,144,12.0,0.0
15446,62.0,30,144,3.0,0.0
15447,65.0,0,144,3.0,0.0
15448,77.0,0,24,11.0,0.0
15449,53.0,0,144,4.0,0.0
15450,76.0,30,24,11.0,0.0
15451,64.0,0,24,11.0,0.0
15452,58.0,0,24,11.0,0.0
15453,77.0,0,24,11.0,0.0
15454,56.0,0,24,11.0,0.0
15455,65.0,24,24,11.0,0.0
15456,79.0,0,24,11.0,0.0
15457,58.0,30,24,11.0,0.0
15458,67.0,0,24,11.0,0.0
15459,80.0,0,24,11.0,0.0
15460,68.0,0,24,11.0,0.0
15461,56.0,0,24,11.0,0.0
15462,77.0,78,24,11.0,0.0
15463,58.0,0,24,11.0,0.0
15464,65.0,0,24,11.0,0.0
15465,51.0,18,96,4.0,0.0
15466,51.0,0,96,5.0,0.0
15467,51.0,0,96,6.0,0.0
15468,63.0,0,96,3.0,0.0
15469,67.0,0,96,3.0,0.0
15470,75.0,0,96,1.0,0.0
15471,55.0,0,96,4.0,0.0
15472,51.0,0,96,12.0,0.0
15473,51.0,24,72,8.0,0.0
15474,63.0,0,96,11.0,0.0
15475,75.0,0,96,11.0,0.0
15476,51.0,0,96,11.0,0.0
15477,55.0,0,96,11.0,0.0
15478,51.0,30,24,8.0,0.0
15479,51.0,6,48,8.0,0.0
15480,51.0,24,24,7.0,0.0
15481,53.0,22,24,7.0,0.0
15482,51.0,8,48,8.0,0.0
15483,55.0,20,16,7.0,0.0
15484,56.0,12,16,7.0,0.0
15485,58.0,20,16,7.0,0.0
15486,60.0,20,16,7.0,0.0
15487,51.0,8,48,8.0,0.0
15488,62.0,12,16,7.0,0.0
15489,63.0,20,16,7.0,0.0
15490,51.0,8,48,8.0,0.0
15491,65.0,20,16,7.0,0.0
15492,67.0,12,16,7.0,0.0
15493,68.0,20,16,7.0,0.0
15494,63.0,0,144,10.0,0.0
15495,60.0,12,144,10.0,0.0
15496,70.0,20,16,7.0,0.0
15497,51.0,4,72,8.0,0.0
15498,72.0,20,16,7.0,0.0
15499,74.0,16,16,7.0,0.0
15500,75.0,20,16,7.0,0.0
15501,77.0,18,16,7.0,0.0
15502,51.0,2,24,8.0,0.0
15503,79.0,20,16,7.0,0.0
15504,51.0,8,48,8.0,0.0
15505,80.0,8,16,7.0,0.0
15506,82.0,12,16,7.0,0.0
15507,84.0,20,16,7.0,0.0
15508,51.0,8,48,8.0,0.0
15509,86.0,20,16,7.0,0.0
15510,56.0,24,144,10.0,0.0
15511,60.0,0,144,10.0,0.0
15512,87.0,12,16,7.0,0.0
15513,86.0,52,16,7.0,0.0
15514,89.0,0,48,7.0,0.0
15515,51.0,36,48,8.0,0.0
15516,51.0,6,48,8.0,0.0
15517,87.0,0,24,7.0,0.0
15518,84.0,78,24,7.0,0.0
15519,46.0,24,72,8.0,0.0
15520,58.0,0,96,10.0,0.0
15521,82.0,18,96,7.0,0.0
15522,55.0,0,96,10.0,0.0
15523,46.0,30,24,8.0,0.0
15524,46.0,6,48,8.0,0.0
15525,70.0,24,24,7.0,0.0
15526,72.0,30,24,7.0,0.0
15527,46.0,6,48,8.0,0.0
15528,74.0,24,24,7.0,0.0
15529,75.0,22,24,7.0,0.0
15530,77.0,20,16,7.0,0.0
15531,46.0,8,48,8.0,0.0
15532,79.0,12,16,7.0,0.0
15533,80.0,20,16,7.0,0.0
15534,46.0,8,48,8.0,0.0
15535,82.0,20,16,7.0,0.0
15536,84.0,12,16,7.0,0.0
15537,86.0,20,16,7.0,0.0
15538,46.0,42,72,8.0,0.0
15539,87.0,20,16,7.0,0.0
15540,58.0,0,288,10.0,0.0
15541,65.0,24,144,10.0,0.0
15542,68.0,0,144,10.0,0.0
15543,89.0,20,16,7.0,0.0
15544,91.0,16,16,7.0,0.0
15545,92.0,12,216,7.0,0.0
15546,46.0,30,24,8.0,0.0
15547,46.0,60,48,8.0,0.0
15548,65.0,24,144,10.0,0.0
15549,46.0,48,48,8.0,0.0
15550,62.0,0,144,10.0,0.0
15551,46.0,36,48,8.0,0.0
15552,89.0,0,48,7.0,0.0
15553,46.0,28,48,8.0,0.0
15554,68.0,0,144,10.0,0.0
15555,65.0,24,144,10.0,0.0
15556,58.0,36,288,10.0,0.0
15557,46.0,4,72,8.0,0.0
15558,82.0,20,16,7.0,0.0
15559,84.0,20,16,7.0,0.0
15560,86.0,16,16,7.0,0.0
15561,87.0,20,16,7.0,0.0
15562,89.0,18,16,7.0,0.0
15563,46.0,2,24,8.0,0.0
15564,91.0,28,16,7.0,0.0
15565,46.0,60,48,8.0,0.0
15566,92.0,12,156,7.0,0.0
15567,65.0,24,144,10.0,0.0
15568,62.0,0,144,10.0,0.0
15569,46.0,48,48,8.0,0.0
15570,46.0,0,48,8.0,0.0
15571,89.0,28,48,7.0,0.0
15572,46.0,0,48,8.0,0.0
15573,68.0,24,144,10.0,0.0
15574,65.0,0,144,10.0,0.0
15575,82.0,20,16,7.0,0.0
15576,46.0,4,72,8.0,0.0
15577,58.0,4,288,10.0,0.0
15578,84.0,20,16,7.0,0.0
15579,86.0,16,16,7.0,0.0
15580,87.0,20,16,7.0,0.0
15581,89.0,18,16,7.0,0.0
15582,46.0,2,24,8.0,0.0
15583,91.0,28,16,7.0,0.0
15584,46.0,60,48,8.0,0.0
15585,92.0,32,172,7.0,0.0
15586,46.0,60,48,8.0,0.0
15587,65.0,24,144,10.0,0.0
15588,62.0,0,144,10.0,0.0
15589,46.0,0,48,8.0,0.0
15590,46.0,0,48,8.0,0.0
15591,77.0,0,48,7.0,0.0
15592,89.0,84,48,7.0,0.0
15593,82.0,0,48,7.0,0.0
15594,80.0,0,48,7.0,0.0
15595,76.0,0,144,7.0,0.0
15596,80.0,0,144,7.0,0.0
15597,58.0,0,288,10.0,0.0
15598,61.0,24,144,10.0,0.0
15599,64.0,0,144,10.0,0.0
15600,88.0,0,144,7.0,0.0
15601,82.0,0,144,7.0,0.0
15602,46.0,42,72,8.0,0.0
15603,46.0,30,24,8.0,0.0
15604,46.0,60,48,8.0,0.0
15605,46.0,60,48,8.0,0.0
15606,89.0,24,144,7.0,0.0
15607,80.0,0,144,7.0,0.0
15608,62.0,0,144,10.0,0.0
15609,65.0,0,144,10.0,0.0
15610,77.0,0,144,7.0,0.0
15611,46.0,36,48,8.0,0.0
15612,46.0,84,48,8.0,0.0
15613,59.0,0,144,10.0,0.0
15614,62.0,0,144,10.0,0.0
15615,65.0,0,144,10.0,0.0
15616,89.0,0,144,7.0,0.0
15617,80.0,24,144,7.0,0.0
15618,77.0,0,144,7.0,0.0
15619,46.0,42,72,8.0,0.0
15620,46.0,30,24,8.0,0.0
15621,46.0,60,48,8.0,0.0
15622,63.0,0,144,10.0,0.0
15623,46.0,60,48,8.0,0.0
15624,60.0,24,144,10.0,0.0
15625,87.0,0,144,7.0,0.0
15626,75.0,0,144,7.0,0.0
15627,79.0,0,144,7.0,0.0
15628,46.0,36,48,8.0,0.0
15629,46.0,84,48,8.0,0.0
15630,87.0,0,144,7.0,0.0
15631,78.0,0,144,7.0,0.0
15632,57.0,0,144,10.0,0.0
15633,60.0,0,144,10.0,0.0
15634,63.0,0,144,10.0,0.0
15635,46.0,42,72,8.0,0.0
15636,75.0,24,144,7.0,0.0
15637,46.0,30,24,8.0,0.0
15638,46.0,60,48,8.0,0.0
15639,58.0,0,144,10.0,0.0
15640,74.0,0,144,7.0,0.0
15641,77.0,24,144,7.0,0.0
15642,62.0,0,144,10.0,0.0
15643,46.0,60,48,8.0,0.0
15644,86.0,0,144,7.0,0.0
15645,46.0,36,48,8.0,0.0
15646,46.0,84,48,8.0,0.0
15647,76.0,0,144,7.0,0.0
15648,82.0,0,144,7.0,0.0
15649,73.0,0,144,7.0,0.0
15650,85.0,0,144,7.0,0.0
15651,58.0,0,144,10.0,0.0
15652,55.0,0,144,10.0,0.0
15653,61.0,24,144,10.0,0.0
15654,46.0,42,72,8.0,0.0
15655,46.0,30,24,8.0,0.0
15656,46.0,60,48,8.0,0.0
15657,79.0,0,144,7.0,0.0
15658,84.0,0,144,7.0,0.0
15659,76.0,24,144,7.0,0.0
15660,60.0,0,144,10.0,0.0
15661,58.0,0,144,10.0,0.0
15662,52.0,0,144,10.0,0.0
15663,46.0,60,48,8.0,0.0
15664,72.0,0,144,7.0,0.0
15665,55.0,0,144,10.0,0.0
15666,46.0,36,48,8.0,0.0
15667,46.0,84,48,8.0,0.0
15668,76.0,0,144,7.0,0.0
15669,82.0,0,144,7.0,0.0
15670,46.0,42,72,8.0,0.0
15671,48.0,0,144,10.0,0.0
15672,58.0,0,144,10.0,0.0
15673,70.0,0,144,7.0,0.0
15674,52.0,0,144,10.0,0.0
15675,72.0,0,144,7.0,0.0
15676,79.0,0,144,7.0,0.0
15677,55.0,24,144,10.0,0.0
15678,46.0,30,24,8.0,0.0
15679,46.0,60,48,8.0,0.0
15680,56.0,0,144,10.0,0.0
15681,72.0,0,144,7.0,0.0
15682,77.0,24,144,7.0,0.0
15683,53.0,0,144,10.0,0.0
15684,80.0,0,144,7.0,0.0
15685,68.0,0,144,7.0,0.0
15686,46.0,60,48,8.0,0.0
15687,46.0,36,48,8.0,0.0
15688,46.0,84,48,8.0,0.0
15689,68.0,0,144,7.0,0.0
15690,53.0,0,144,10.0,0.0
15691,46.0,42,72,8.0,0.0
15692,70.0,0,144,7.0,0.0
15693,56.0,0,144,10.0,0.0
15694,46.0,36,288,10.0,0.0
15695,80.0,0,144,7.0,0.0
15696,74.0,24,144,7.0,0.0
15697,77.0,0,144,7.0,0.0
15698,46.0,30,24,8.0,0.0
15699,46.0,60,48,8.0,0.0
15700,46.0,60,48,8.0,0.0
15701,67.0,0,144,7.0,0.0
15702,70.0,0,144,7.0,0.0
15703,51.0,24,144,10.0,0.0
15704,55.0,0,144,10.0,0.0
15705,75.0,0,144,7.0,0.0
15706,79.0,0,144,7.0,0.0
15707,46.0,0,48,8.0,0.0
15708,46.0,84,48,8.0,0.0
15709,46.0,36,288,10.0,0.0
15710,56.0,24,144,10.0,0.0
15711,53.0,0,144,10.0,0.0
15712,46.0,42,72,8.0,0.0
15713,77.0,0,144,7.0,0.0
15714,80.0,0,144,7.0,0.0
15715,70.0,0,144,7.0,0.0
15716,68.0,0,144,7.0,0.0
15717,74.0,0,144,7.0,0.0
15718,46.0,30,24,8.0,0.0
15719,46.0,60,48,8.0,0.0
15720,68.0,0,144,7.0,0.0
15721,53.0,0,144,10.0,0.0
15722,46.0,60,48,8.0,0.0
15723,50.0,0,144,10.0,0.0
15724,77.0,0,144,7.0,0.0
15725,70.0,24,144,7.0,0.0
15726,65.0,0,144,7.0,0.0
15727,46.0,0,48,8.0,0.0
15728,46.0,60,48,8.0,0.0
15729,39.0,24,48,10.0,0.0
15730,63.0,12,144,7.0,0.0
15731,46.0,42,72,8.0,0.0
15732,70.0,0,144,7.0,0.0
15733,75.0,0,144,7.0,0.0
15734,55.0,12,96,10.0,0.0
15735,46.0,30,24,8.0,0.0
15736,46.0,60,48,8.0,0.0
15737,46.0,60,48,8.0,0.0
15738,46.0,60,48,8.0,0.0
15739,46.0,60,48,8.0,0.0
15740,46.0,42,72,8.0,0.0
15741,63.0,0,144,7.0,0.0
15742,58.0,0,144,7.0,0.0
15743,70.0,12,144,7.0,0.0
15744,39.0,24,48,10.0,0.0
15745,55.0,12,96,10.0,0.0
15746,46.0,30,24,8.0,0.0
15747,46.0,60,48,8.0,0.0
15748,46.0,60,48,8.0,0.0
15749,46.0,60,48,8.0,0.0
15750,46.0,84,48,8.0,0.0
15751,67.0,24,144,7.0,0.0
15752,58.0,0,144,7.0,0.0
15753,55.0,0,144,7.0,0.0
15754,39.0,0,144,10.0,0.0
15755,46.0,42,72,8.0,0.0
15756,46.0,30,24,8.0,0.0
15757,46.0,60,48,8.0,0.0
15758,46.0,60,48,8.0,0.0
15759,46.0,60,48,8.0,0.0
15760,46.0,84,48,8.0,0.0
15761,39.0,24,144,10.0,0.0
15762,46.0,0,144,10.0,0.0
15763,55.0,0,144,7.0,0.0
15764,46.0,42,72,8.0,0.0
15765,63.0,0,144,7.0,0.0
15766,58.0,0,144,7.0,0.0
15767,46.0,30,24,8.0,0.0
15768,46.0,60,48,8.0,0.0
15769,46.0,60,48,8.0,0.0
15770,46.0,60,48,8.0,0.0
15771,46.0,36,48,8.0,0.0
15772,51.0,30,24,7.0,0.0
15773,39.0,0,24,10.0,0.0
15774,53.0,30,24,7.0,0.0
15775,41.0,0,24,10.0,0.0
15776,43.0,30,24,10.0,0.0
15777,55.0,0,24,7.0,0.0
15778,56.0,0,24,7.0,0.0
15779,44.0,30,24,10.0,0.0
15780,58.0,30,24,7.0,0.0
15781,46.0,0,24,10.0,0.0
15782,48.0,30,24,10.0,0.0
15783,60.0,0,24,7.0,0.0
15784,62.0,30,24,7.0,0.0
15785,50.0,0,24,10.0,0.0
15786,63.0,30,24,7.0,0.0
15787,51.0,0,24,10.0,0.0
15788,62.0,30,24,7.0,0.0
15789,50.0,0,24,10.0,0.0
15790,48.0,30,24,10.0,0.0
15791,60.0,0,24,7.0,0.0
15792,46.0,30,24,10.0,0.0
15793,58.0,0,24,7.0,0.0
15794,57.0,0,24,7.0,0.0
15795,45.0,30,24,10.0,0.0
15796,46.0,0,24,10.0,0.0
15797,58.0,30,24,7.0,0.0
15798,48.0,30,24,10.0,0.0
15799,60.0,0,24,7.0,0.0
15800,50.0,0,24,10.0,0.0
15801,62.0,30,24,7.0,0.0
15802,51.0,30,24,10.0,0.0
15803,63.0,0,24,7.0,0.0
15804,53.0,30,24,10.0,0.0
15805,65.0,0,24,7.0,0.0
15806,67.0,30,24,7.0,0.0
15807,55.0,0,24,10.0,0.0
15808,56.0,0,24,10.0,0.0
15809,68.0,30,24,7.0,0.0
15810,58.0,30,24,10.0,0.0
15811,70.0,0,24,7.0,0.0
15812,56.0,30,24,10.0,0.0
15813,68.0,0,24,7.0,0.0
15814,55.0,22,24,10.0,0.0
15815,67.0,0,24,7.0,0.0
15816,65.0,0,16,7.0,0.0
15817,53.0,20,16,10.0,0.0
15818,51.0,0,16,10.0,0.0
15819,63.0,20,16,7.0,0.0
15820,50.0,0,16,10.0,0.0
15821,62.0,28,16,7.0,0.0
15822,63.0,30,24,7.0,0.0
15823,51.0,0,24,10.0,0.0
15824,53.0,30,24,10.0,0.0
15825,65.0,0,24,7.0,0.0
15826,55.0,30,24,10.0,0.0
15827,67.0,0,24,7.0,0.0
15828,68.0,30,24,7.0,0.0
15829,56.0,0,24,10.0,0.0
15830,70.0,0,24,7.0,0.0
15831,58.0,30,24,10.0,0.0
15832,72.0,30,24,7.0,0.0
15833,60.0,0,24,10.0,0.0
15834,62.0,30,24,10.0,0.0
15835,74.0,0,24,7.0,0.0
15836,63.0,0,24,10.0,0.0
15837,75.0,30,24,7.0,0.0
15838,62.0,30,24,10.0,0.0
15839,74.0,0,24,7.0,0.0
15840,60.0,0,24,10.0,0.0
15841,72.0,30,24,7.0,0.0
15842,70.0,0,24,7.0,0.0
15843,58.0,30,24,10.0,0.0
15844,56.0,0,24,10.0,0.0
15845,68.0,30,24,7.0,0.0
15846,55.0,30,24,10.0,0.0
15847,67.0,0,24,7.0,0.0
15848,56.0,30,24,10.0,0.0
15849,68.0,0,24,7.0,0.0
15850,58.0,0,24,10.0,0.0
15851,70.0,30,24,7.0,0.0
15852,60.0,22,24,10.0,0.0
15853,72.0,0,24,7.0,0.0
15854,62.0,0,16,10.0,0.0
15855,74.0,20,16,7.0,0.0
15856,63.0,0,16,10.0,0.0
15857,75.0,20,16,7.0,0.0
15858,65.0,20,16,10.0,0.0
15859,77.0,0,16,7.0,0.0
15860,67.0,20,16,10.0,0.0
15861,79.0,0,16,7.0,0.0
15862,65.0,0,16,10.0,0.0
15863,77.0,20,16,7.0,0.0
15864,75.0,0,16,7.0,0.0
15865,63.0,20,16,10.0,0.0
15866,74.0,0,16,7.0,0.0
15867,62.0,20,16,10.0,0.0
15868,60.0,0,16,10.0,0.0
15869,72.0,20,16,7.0,0.0
15870,58.0,0,16,10.0,0.0
15871,70.0,20,16,7.0,0.0
15872,56.0,20,16,10.0,0.0
15873,68.0,0,16,7.0,0.0
15874,67.0,20,16,7.0,0.0
15875,55.0,0,16,10.0,0.0
15876,53.0,28,16,10.0,0.0
15877,65.0,0,16,7.0,0.0
15878,63.0,0,24,7.0,0.0
15879,51.0,30,24,10.0,0.0
15880,53.0,30,24,10.0,0.0
15881,65.0,0,24,7.0,0.0
15882,67.0,30,24,7.0,0.0
15883,55.0,0,24,10.0,0.0
15884,68.0,30,24,7.0,0.0
15885,56.0,0,24,10.0,0.0
15886,58.0,0,24,10.0,0.0
15887,70.0,30,24,7.0,0.0
15888,60.0,0,24,10.0,0.0
15889,72.0,30,24,7.0,0.0
15890,74.0,0,24,7.0,0.0
15891,62.0,30,24,10.0,0.0
15892,75.0,0,24,7.0,0.0
15893,63.0,30,24,10.0,0.0
15894,62.0,0,24,10.0,0.0
15895,74.0,30,24,7.0,0.0
15896,72.0,0,24,7.0,0.0
15897,60.0,30,24,10.0,0.0
15898,70.0,0,24,7.0,0.0
15899,58.0,30,24,10.0,0.0
15900,57.0,0,24,10.0,0.0
15901,69.0,22,24,7.0,0.0
15902,58.0,0,16,10.0,0.0
15903,70.0,20,16,7.0,0.0
15904,60.0,20,16,10.0,0.0
15905,72.0,0,16,7.0,0.0
15906,62.0,20,16,10.0,0.0
15907,74.0,0,16,7.0,0.0
15908,63.0,20,16,10.0,0.0
15909,75.0,0,16,7.0,0.0
15910,77.0,20,16,7.0,0.0
15911,65.0,0,16,10.0,0.0
15912,79.0,20,16,7.0,0.0
15913,67.0,0,16,10.0,0.0
15914,80.0,0,16,7.0,0.0
15915,68.0,20,16,10.0,0.0
15916,82.0,0,16,7.0,0.0
15917,70.0,20,16,10.0,0.0
15918,72.0,0,16,10.0,0.0
15919,84.0,20,16,7.0,0.0
15920,74.0,0,16,10.0,0.0
15921,86.0,20,16,7.0,0.0
15922,75.0,0,16,10.0,0.0
15923,87.0,20,16,7.0,0.0
15924,89.0,20,16,7.0,0.0
15925,77.0,0,16,10.0,0.0
15926,79.0,0,16,10.0,0.0
15927,91.0,20,16,7.0,0.0
15928,80.0,20,16,10.0,0.0
15929,92.0,0,16,7.0,0.0
15930,82.0,0,16,10.0,0.0
15931,94.0,28,16,7.0,0.0
15932,96.0,30,24,7.0,0.0
15933,84.0,0,24,10.0,0.0
15934,98.0,0,24,7.0,0.0
15935,86.0,54,24,10.0,0.0
15936,67.0,0,48,3.0,0.0
15937,55.0,0,48,5.0,0.0
15938,58.0,0,48,11.0,0.0
15939,55.0,0,48,4.0,0.0
15940,58.0,0,48,4.0,0.0
15941,51.0,0,96,8.0,0.0
15942,70.0,0,48,3.0,0.0
15943,70.0,0,48,1.0,0.0
15944,67.0,0,48,1.0,0.0
15945,55.0,0,48,11.0,0.0
15946,63.0,0,96,6.0,0.0
15947,51.0,0,96,6.0,0.0
15948,51.0,0,48,13.0,0.0
15949,87.0,12,96,10.0,0.0
15950,79.0,0,48,0.0,0.0
15951,82.0,0,48,0.0,0.0
15952,70.0,0,48,11.0,0.0
15953,99.0,0,96,7.0,0.0
15954,63.0,0,48,5.0,0.0
15955,51.0,48,48,12.0,0.0
15956,87.0,0,48,0.0,0.0
15957,79.0,0,48,0.0,0.0
15958,75.0,0,48,3.0,0.0
15959,67.0,0,48,1.0,0.0
15960,75.0,0,48,1.0,0.0
15961,51.0,0,48,12.0,0.0
15962,55.0,0,48,5.0,0.0
15963,58.0,60,48,11.0,0.0
15964,75.0,0,48,11.0,0.0
15965,51.0,0,48,13.0,0.0
15966,63.0,0,48,11.0,0.0
15967,63.0,0,48,4.0,0.0
15968,63.0,0,48,5.0,0.0
15969,67.0,0,48,3.0,0.0
15970,63.0,0,156,5.0,0.0
15971,63.0,0,48,11.0,0.0
15972,58.0,60,48,11.0,0.0
15973,51.0,0,48,12.0,0.0
15974,55.0,0,156,5.0,0.0
15975,75.0,0,48,3.0,0.0
15976,79.0,0,48,0.0,0.0
15977,51.0,0,48,13.0,0.0
15978,55.0,0,108,4.0,0.0
15979,58.0,0,108,4.0,0.0
15980,75.0,0,48,11.0,0.0
15981,67.0,0,48,1.0,0.0
15982,67.0,0,48,3.0,0.0
15983,87.0,0,48,0.0,0.0
15984,75.0,0,48,1.0,0.0
15985,63.0,0,48,11.0,0.0
15986,79.0,0,48,11.0,0.0
15987,63.0,0,96,6.0,0.0
15988,51.0,0,96,6.0,0.0
15989,51.0,0,96,8.0,0.0
15990,75.0,0,48,3.0,0.0
15991,75.0,48,48,1.0,0.0
15992,87.0,0,48,0.0,0.0
15993,67.0,0,48,3.0,0.0
15994,67.0,0,48,1.0,0.0
15995,79.0,0,48,0.0,0.0
15996,67.0,0,48,11.0,0.0
15997,51.0,0,96,13.0,0.0
15998,51.0,48,96,12.0,0.0
15999,51.0,0,48,13.0,0.0
16000,67.0,0,48,3.0,0.0
16001,51.0,0,48,8.0,0.0
16002,75.0,0,48,3.0,0.0
16003,55.0,0,48,4.0,0.0
16004,63.0,0,48,6.0,0.0
16005,79.0,0,48,1.0,0.0
16006,82.0,0,48,0.0,0.0
16007,58.0,0,48,4.0,0.0
16008,63.0,24,24,11.0,0.0
16009,87.0,0,48,0.0,0.0
16010,63.0,6,48,5.0,0.0
16011,75.0,0,48,1.0,0.0
16012,67.0,0,24,11.0,0.0
16013,51.0,0,48,12.0,0.0
16014,55.0,0,48,5.0,0.0
16015,79.0,0,24,11.0,0.0
16016,51.0,0,48,6.0,0.0
16017,67.0,0,24,11.0,0.0
16018,70.0,30,24,11.0,0.0
16019,82.0,0,24,11.0,0.0
16020,51.0,0,48,8.0,0.0
16021,70.0,24,24,11.0,0.0
16022,63.0,0,48,5.0,0.0
16023,75.0,0,48,3.0,0.0
16024,79.0,0,48,1.0,0.0
16025,75.0,0,48,1.0,0.0
16026,55.0,6,48,5.0,0.0
16027,67.0,0,48,3.0,0.0
16028,63.0,0,48,6.0,0.0
16029,82.0,0,24,11.0,0.0
16030,51.0,0,48,13.0,0.0
16031,51.0,0,48,6.0,0.0
16032,51.0,0,48,12.0,0.0
16033,58.0,0,24,11.0,0.0
16034,58.0,0,48,4.0,0.0
16035,87.0,0,48,0.0,0.0
16036,82.0,0,48,0.0,0.0
16037,55.0,0,48,4.0,0.0
16038,63.0,0,24,11.0,0.0
16039,87.0,0,24,11.0,0.0
16040,55.0,102,24,11.0,0.0
16041,75.0,0,24,11.0,0.0
16042,55.0,0,216,5.0,0.0
16043,51.0,0,216,12.0,0.0
16044,63.0,0,216,5.0,0.0
16045,58.0,0,216,4.0,0.0
16046,55.0,0,216,4.0,0.0
16047,51.0,0,216,6.0,0.0
16048,63.0,0,216,6.0,0.0
16049,51.0,120,96,8.0,0.0
16050,75.0,0,216,11.0,0.0
16051,51.0,0,216,13.0,0.0
16052,79.0,0,216,1.0,0.0
16053,75.0,0,216,1.0,0.0
16054,82.0,0,216,0.0,0.0
16055,67.0,0,216,3.0,0.0
16056,75.0,0,216,3.0,0.0
16057,87.0,0,216,11.0,0.0
16058,63.0,0,216,11.0,0.0
16059,87.0,72,216,0.0,0.0
16060,55.0,0,216,11.0,0.0
16061,70.0,0,48,11.0,0.0
16062,67.0,0,48,11.0,0.0
16063,70.0,0,48,1.0,0.0
16064,82.0,0,48,1.0,0.0
16065,82.0,36,48,0.0,0.0
16066,46.0,0,48,12.0,0.0
16067,58.0,0,48,6.0,0.0
16068,46.0,0,48,6.0,0.0
16069,58.0,0,48,4.0,0.0
16070,58.0,0,48,11.0,0.0
16071,46.0,0,48,4.0,0.0
16072,58.0,0,48,5.0,0.0
16073,46.0,0,48,13.0,0.0
16074,70.0,0,48,3.0,0.0
16075,46.0,0,48,8.0,0.0
16076,67.0,0,48,3.0,0.0
16077,65.0,0,48,3.0,0.0
16078,46.0,0,48,8.0,0.0
16079,65.0,0,48,5.0,0.0
16080,58.0,0,48,4.0,0.0
16081,74.0,0,48,3.0,0.0
16082,62.0,0,48,4.0,0.0
16083,58.0,0,24,11.0,0.0
16084,46.0,0,48,6.0,0.0
16085,58.0,6,48,6.0,0.0
16086,46.0,0,48,13.0,0.0
16087,46.0,0,48,12.0,0.0
16088,89.0,0,48,0.0,0.0
16089,70.0,0,24,11.0,0.0
16090,77.0,0,48,1.0,0.0
16091,74.0,0,48,1.0,0.0
16092,86.0,0,48,0.0,0.0
16093,58.0,0,48,5.0,0.0
16094,74.0,0,24,11.0,0.0
16095,77.0,0,24,11.0,0.0
16096,65.0,0,24,11.0,0.0
16097,62.0,102,24,11.0,0.0
16098,65.0,0,216,5.0,0.0
16099,58.0,0,216,5.0,0.0
16100,89.0,0,216,0.0,0.0
16101,86.0,0,216,0.0,0.0
16102,77.0,0,216,11.0,0.0
16103,74.0,0,216,3.0,0.0
16104,46.0,0,216,6.0,0.0
16105,46.0,0,216,13.0,0.0
16106,65.0,0,216,11.0,0.0
16107,62.0,0,216,11.0,0.0
16108,46.0,0,216,12.0,0.0
16109,74.0,0,216,11.0,0.0
16110,58.0,0,216,6.0,0.0
16111,65.0,0,216,3.0,0.0
16112,74.0,0,216,1.0,0.0
16113,77.0,0,216,1.0,0.0
16114,46.0,120,96,8.0,0.0
16115,58.0,0,216,4.0,0.0
16116,62.0,72,216,4.0,0.0
16117,46.0,0,48,13.0,0.0
16118,46.0,0,48,8.0,0.0
16119,70.0,0,48,1.0,0.0
16120,46.0,0,48,12.0,0.0
16121,82.0,0,48,0.0,0.0
16122,58.0,36,48,6.0,0.0
16123,70.0,0,48,3.0,0.0
16124,58.0,0,48,3.0,0.0
16125,46.0,0,48,6.0,0.0
16126,70.0,0,48,11.0,0.0
16127,58.0,0,48,5.0,0.0
16128,58.0,0,48,11.0,0.0
16129,58.0,0,48,4.0,0.0
16130,46.0,0,48,4.0,0.0
16131,75.0,0,48,3.0,0.0
16132,58.0,24,24,11.0,0.0
16133,75.0,0,48,1.0,0.0
16134,79.0,0,48,1.0,0.0
16135,87.0,0,48,0.0,0.0
16136,67.0,0,48,3.0,0.0
16137,51.0,0,48,12.0,0.0
16138,91.0,0,48,0.0,0.0
16139,63.0,0,48,6.0,0.0
16140,51.0,0,48,13.0,0.0
16141,70.0,0,24,11.0,0.0
16142,51.0,0,48,6.0,0.0
16143,55.0,0,48,4.0,0.0
16144,67.0,0,48,5.0,0.0
16145,63.0,6,48,4.0,0.0
16146,58.0,0,48,5.0,0.0
16147,51.0,0,48,8.0,0.0
16148,79.0,0,24,11.0,0.0
16149,75.0,0,24,11.0,0.0
16150,63.0,0,24,11.0,0.0
16151,67.0,102,24,11.0,0.0
16152,79.0,0,96,11.0,0.0
16153,51.0,0,96,8.0,0.0
16154,75.0,0,96,1.0,0.0
16155,55.0,0,96,4.0,0.0
16156,63.0,0,96,4.0,0.0
16157,51.0,0,96,6.0,0.0
16158,63.0,0,96,6.0,0.0
16159,58.0,0,96,5.0,0.0
16160,67.0,0,96,5.0,0.0
16161,51.0,0,96,12.0,0.0
16162,67.0,0,96,3.0,0.0
16163,75.0,0,96,3.0,0.0
16164,51.0,0,96,13.0,0.0
16165,67.0,0,96,11.0,0.0
16166,63.0,0,96,11.0,0.0
16167,75.0,0,96,11.0,0.0
16168,87.0,0,96,0.0,0.0
16169,91.0,48,96,0.0,0.0
16170,79.0,0,96,1.0,0.0
16171,63.0,6,48,6.0,0.0
16172,51.0,0,48,6.0,0.0
16173,51.0,0,48,8.0,0.0
16174,79.0,0,48,1.0,0.0
16175,75.0,0,48,1.0,0.0
16176,75.0,0,48,3.0,0.0
16177,67.0,0,48,3.0,0.0
16178,51.0,0,48,13.0,0.0
16179,63.0,0,48,4.0,0.0
16180,58.0,0,48,5.0,0.0
16181,67.0,0,48,5.0,0.0
16182,51.0,0,48,12.0,0.0
16183,58.0,0,24,11.0,0.0
16184,55.0,0,48,4.0,0.0
16185,87.0,0,48,0.0,0.0
16186,91.0,0,48,0.0,0.0
16187,70.0,0,24,11.0,0.0
16188,75.0,0,24,11.0,0.0
16189,79.0,0,24,11.0,0.0
16190,63.0,102,24,11.0,0.0
16191,67.0,0,24,11.0,0.0
16192,63.0,0,96,6.0,0.0
16193,51.0,0,96,6.0,0.0
16194,75.0,0,96,1.0,0.0
16195,79.0,0,96,1.0,0.0
16196,67.0,0,96,3.0,0.0
16197,75.0,48,96,3.0,0.0
16198,75.0,0,96,11.0,0.0
16199,51.0,0,96,8.0,0.0
16200,63.0,0,96,4.0,0.0
16201,55.0,0,96,4.0,0.0
16202,58.0,0,96,5.0,0.0
16203,51.0,0,96,13.0,0.0
16204,67.0,0,96,5.0,0.0
16205,79.0,0,96,11.0,0.0
16206,51.0,0,96,12.0,0.0
16207,67.0,0,96,11.0,0.0
16208,87.0,0,96,0.0,0.0
16209,91.0,0,96,0.0,0.0
16210,63.0,0,96,11.0,0.0
16211,51.0,0,48,12.0,0.0
16212,58.0,0,24,11.0,0.0
16213,51.0,0,48,13.0,0.0
16214,51.0,0,48,8.0,0.0
16215,67.0,0,48,3.0,0.0
16216,63.0,0,48,6.0,0.0
16217,51.0,6,48,6.0,0.0
16218,63.0,0,48,4.0,0.0
16219,75.0,0,48,3.0,0.0
16220,91.0,0,48,0.0,0.0
16221,75.0,0,48,1.0,0.0
16222,58.0,0,48,5.0,0.0
16223,67.0,0,48,5.0,0.0
16224,87.0,0,48,0.0,0.0
16225,70.0,0,24,11.0,0.0
16226,79.0,0,48,1.0,0.0
16227,55.0,0,48,4.0,0.0
16228,67.0,0,24,11.0,0.0
16229,63.0,0,24,11.0,0.0
16230,75.0,0,24,11.0,0.0
16231,79.0,102,24,11.0,0.0
16232,75.0,0,96,11.0,0.0
16233,58.0,0,96,5.0,0.0
16234,79.0,0,96,11.0,0.0
16235,91.0,0,96,0.0,0.0
16236,67.0,0,96,5.0,0.0
16237,75.0,0,96,3.0,0.0
16238,67.0,0,96,3.0,0.0
16239,51.0,0,96,12.0,0.0
16240,75.0,0,96,1.0,0.0
16241,55.0,0,96,4.0,0.0
16242,87.0,0,96,0.0,0.0
16243,79.0,0,96,1.0,0.0
16244,63.0,0,96,4.0,0.0
16245,51.0,0,96,6.0,0.0
16246,51.0,0,96,8.0,0.0
16247,63.0,48,96,6.0,0.0
16248,51.0,0,96,13.0,0.0
16249,67.0,0,96,11.0,0.0
16250,63.0,0,96,11.0,0.0
16251,51.0,0,48,12.0,0.0
16252,58.0,0,48,5.0,0.0
16253,67.0,0,48,5.0,0.0
16254,51.0,0,48,8.0,0.0
16255,55.0,0,48,4.0,0.0
16256,63.0,0,48,4.0,0.0
16257,91.0,0,48,0.0,0.0
16258,87.0,6,48,0.0,0.0
16259,70.0,0,24,11.0,0.0
16260,51.0,0,48,6.0,0.0
16261,58.0,0,24,11.0,0.0
16262,75.0,0,48,3.0,0.0
16263,67.0,0,48,3.0,0.0
16264,79.0,0,48,1.0,0.0
16265,51.0,0,48,13.0,0.0
16266,63.0,0,48,6.0,0.0
16267,75.0,0,48,1.0,0.0
16268,67.0,0,24,11.0,0.0
16269,79.0,102,24,11.0,0.0
16270,75.0,0,24,11.0,0.0
16271,63.0,0,24,11.0,0.0
16272,87.0,0,96,0.0,0.0
16273,75.0,0,96,1.0,0.0
16274,79.0,0,96,1.0,0.0
16275,91.0,0,96,0.0,0.0
16276,51.0,120,96,8.0,0.0
16277,51.0,0,96,13.0,0.0
16278,67.0,0,96,5.0,0.0
16279,51.0,0,96,12.0,0.0
16280,67.0,0,96,3.0,0.0
16281,75.0,0,96,3.0,0.0
16282,55.0,0,96,4.0,0.0
16283,75.0,0,96,11.0,0.0
16284,67.0,0,96,11.0,0.0
16285,63.0,0,96,11.0,0.0
16286,51.0,0,96,6.0,0.0
16287,63.0,0,96,4.0,0.0
16288,58.0,0,96,5.0,0.0
16289,79.0,0,96,11.0,0.0
16290,63.0,0,96,6.0,0.0
16291,58.0,0,96,11.0,0.0
16292,75.0,0,96,1.0,0.0
16293,79.0,0,96,1.0,0.0
16294,63.0,0,96,6.0,0.0
16295,51.0,0,96,6.0,0.0
16296,87.0,0,96,0.0,0.0
16297,91.0,0,96,0.0,0.0
16298,51.0,0,96,13.0,0.0
16299,51.0,0,96,8.0,0.0
16300,75.0,0,96,3.0,0.0
16301,67.0,0,96,3.0,0.0
16302,55.0,0,96,4.0,0.0
16303,75.0,0,96,11.0,0.0
16304,58.0,0,96,5.0,0.0
16305,67.0,0,96,5.0,0.0
16306,67.0,0,96,11.0,0.0
16307,51.0,0,96,12.0,0.0
16308,79.0,180,96,11.0,0.0
16309,55.0,0,96,11.0,0.0
16310,63.0,0,96,11.0,0.0
16311,63.0,0,96,4.0,0.0
16312,51.0,0,96,11.0,0.0
16313,70.0,0,96,11.0,0.0
16314,79.0,0,96,0.0,0.0
16315,51.0,0,96,12.0,0.0
16316,51.0,0,96,4.0,0.0
16317,51.0,0,96,8.0,0.0
16318,55.0,0,96,5.0,0.0
16319,67.0,180,96,1.0,0.0
16320,75.0,0,96,1.0,0.0
16321,63.0,0,96,6.0,0.0
16322,51.0,0,96,13.0,0.0
16323,55.0,0,96,11.0,0.0
16324,75.0,0,96,3.0,0.0
16325,63.0,0,96,5.0,0.0
16326,87.0,0,96,0.0,0.0
16327,75.0,0,96,11.0,0.0
16328,51.0,0,96,6.0,0.0
16329,63.0,0,96,4.0,0.0
16330,63.0,0,96,11.0,0.0
16331,58.0,0,96,11.0,0.0
16332,67.0,0,96,3.0,0.0
16333,51.0,0,96,6.0,0.0
16334,51.0,0,96,8.0,0.0
16335,51.0,0,96,11.0,0.0
16336,63.0,0,96,6.0,0.0
16337,63.0,0,96,1.0,0.0
16338,63.0,0,96,5.0,0.0
16339,51.0,0,96,5.0,0.0
16340,51.0,0,96,12.0,0.0
16341,75.0,0,96,0.0,0.0
16342,63.0,0,96,11.0,0.0
16343,51.0,0,96,4.0,0.0
16344,63.0,0,96,3.0,0.0
16345,55.0,0,96,11.0,0.0
16346,51.0,0,96,13.0,0.0
