,note,step,duration,channel,velocity
0,81.0,0,120,0.0,0.0
1,57.0,360,120,3.0,0.0
2,69.0,0,120,0.0,0.0
3,52.0,0,240,3.0,0.0
4,64.0,0,240,0.0,0.0
5,76.0,540,240,0.0,0.0
6,64.0,60,60,0.0,0.0
7,52.0,0,60,3.0,0.0
8,50.0,0,60,3.0,0.0
9,62.0,60,60,0.0,0.0
10,49.0,60,60,3.0,0.0
11,61.0,0,60,0.0,0.0
12,47.0,0,60,3.0,0.0
13,59.0,240,60,0.0,0.0
14,45.0,0,240,3.0,0.0
15,57.0,600,240,0.0,0.0
16,69.0,360,120,0.0,0.0
17,57.0,0,120,3.0,0.0
18,81.0,0,120,0.0,0.0
19,54.0,540,240,3.0,0.0
20,66.0,0,240,0.0,0.0
21,78.0,0,240,0.0,0.0
22,54.0,60,60,3.0,0.0
23,66.0,0,60,0.0,0.0
24,64.0,0,60,0.0,0.0
25,52.0,60,60,3.0,0.0
26,50.0,0,60,3.0,0.0
27,62.0,60,60,0.0,0.0
28,49.0,0,60,3.0,0.0
29,61.0,240,60,0.0,0.0
30,47.0,0,240,3.0,0.0
31,59.0,600,240,0.0,0.0
32,74.0,360,120,0.0,0.0
33,62.0,0,120,3.0,0.0
34,86.0,0,120,0.0,0.0
35,59.0,0,240,3.0,0.0
36,71.0,0,240,0.0,0.0
37,83.0,480,240,0.0,0.0
38,68.0,480,240,0.0,0.0
39,80.0,0,240,0.0,0.0
40,56.0,0,240,3.0,0.0
41,52.0,480,240,3.0,0.0
42,64.0,0,240,0.0,0.0
43,76.0,0,240,0.0,0.0
44,62.0,0,240,0.0,0.0
45,74.0,0,240,0.0,0.0
46,50.0,480,240,3.0,0.0
47,71.0,480,240,0.0,0.0
48,59.0,0,240,0.0,0.0
49,47.0,0,240,3.0,0.0
50,44.0,0,240,3.0,0.0
51,68.0,0,240,0.0,0.0
52,56.0,480,240,0.0,0.0
53,52.0,0,240,0.0,0.0
54,64.0,0,240,0.0,0.0
55,40.0,400,240,3.0,0.0
56,57.0,80,90,0.0,0.0
57,61.0,80,90,0.0,0.0
58,64.0,300,90,0.0,0.0
59,45.0,195,360,3.0,0.0
60,49.0,35,300,3.0,0.0
61,52.0,5,240,3.0,0.0
62,57.0,15,180,3.0,0.0
63,69.0,5,150,0.0,0.0
64,71.0,240,150,0.0,0.0
65,73.0,240,150,0.0,0.0
66,74.0,240,150,0.0,0.0
67,76.0,240,150,0.0,0.0
68,78.0,240,150,0.0,0.0
69,80.0,240,150,0.0,0.0
70,81.0,565,150,0.0,0.0
71,76.0,0,720,0.0,0.0
72,68.0,0,240,1.0,0.0
73,52.0,240,240,3.0,0.0
74,54.0,0,240,3.0,0.0
75,69.0,240,240,1.0,0.0
76,71.0,0,240,1.0,0.0
77,74.0,0,240,0.0,0.0
78,56.0,190,240,3.0,0.0
79,64.0,290,180,1.0,0.0
80,73.0,0,180,0.0,0.0
81,57.0,0,180,3.0,0.0
82,45.0,240,240,3.0,0.0
83,49.0,240,240,3.0,0.0
84,50.0,480,240,3.0,0.0
85,52.0,0,720,3.0,0.0
86,56.0,0,240,1.0,0.0
87,64.0,240,240,0.0,0.0
88,57.0,0,240,1.0,0.0
89,66.0,240,240,0.0,0.0
90,50.0,190,240,3.0,0.0
91,68.0,0,240,0.0,0.0
92,59.0,0,240,1.0,0.0
93,69.0,0,180,0.0,0.0
94,61.0,50,180,1.0,0.0
95,49.0,240,240,3.0,0.0
96,64.0,0,240,0.0,0.0
97,52.0,240,240,3.0,0.0
98,69.0,240,240,0.0,0.0
99,49.0,0,240,3.0,0.0
100,73.0,0,240,0.0,0.0
101,45.0,190,240,3.0,0.0
102,44.0,190,240,3.0,0.0
103,71.0,50,180,1.0,0.0
104,76.0,190,720,0.0,0.0
105,68.0,50,180,1.0,0.0
106,40.0,190,240,3.0,0.0
107,42.0,0,240,3.0,0.0
108,69.0,50,180,1.0,0.0
109,44.0,0,240,3.0,0.0
110,74.0,240,240,0.0,0.0
111,71.0,50,180,1.0,0.0
112,73.0,0,240,0.0,0.0
113,45.0,240,240,3.0,0.0
114,64.0,145,570,1.0,0.0
115,71.0,95,240,0.0,0.0
116,44.0,0,240,3.0,0.0
117,69.0,0,240,0.0,0.0
118,42.0,190,240,3.0,0.0
119,71.0,190,240,0.0,0.0
120,47.0,0,240,3.0,0.0
121,63.0,50,180,1.0,0.0
122,68.0,50,180,0.0,0.0
123,52.0,145,240,3.0,0.0
124,59.0,95,390,1.0,0.0
125,47.0,0,240,3.0,0.0
126,64.0,240,240,0.0,0.0
127,68.0,145,240,0.0,0.0
128,54.0,0,240,3.0,0.0
129,57.0,95,390,1.0,0.0
130,47.0,190,240,3.0,0.0
131,71.0,0,240,0.0,0.0
132,68.0,50,180,0.0,0.0
133,40.0,0,15,3.0,0.0
134,59.0,95,390,1.0,0.0
135,52.0,145,240,3.0,0.0
136,47.0,240,240,3.0,0.0
137,64.0,0,240,0.0,0.0
138,63.0,0,390,1.0,0.0
139,57.0,95,390,1.0,0.0
140,54.0,145,240,3.0,0.0
141,68.0,0,240,0.0,0.0
142,47.0,240,240,3.0,0.0
143,71.0,0,240,0.0,0.0
144,68.0,0,240,0.0,0.0
145,52.0,0,240,3.0,0.0
146,40.0,432,240,3.0,0.0
147,59.0,0,180,1.0,0.0
148,40.0,0,180,3.0,0.0
149,64.0,0,180,0.0,0.0
150,56.0,480,180,1.0,0.0
151,40.0,0,180,3.0,0.0
152,59.0,0,180,1.0,0.0
153,56.0,0,180,1.0,0.0
154,64.0,648,180,0.0,0.0
155,81.0,0,120,0.0,0.0
156,69.0,0,120,0.0,0.0
157,57.0,360,120,3.0,0.0
158,64.0,0,240,0.0,0.0
159,76.0,0,240,0.0,0.0
160,52.0,540,240,3.0,0.0
161,52.0,0,60,3.0,0.0
162,64.0,60,60,0.0,0.0
163,50.0,0,60,3.0,0.0
164,62.0,60,60,0.0,0.0
165,49.0,0,60,3.0,0.0
166,61.0,60,60,0.0,0.0
167,59.0,180,120,0.0,0.0
168,47.0,60,60,3.0,0.0
169,45.0,560,240,3.0,0.0
170,57.0,0,240,0.0,0.0
171,33.0,80,90,3.0,0.0
172,37.0,80,90,3.0,0.0
173,40.0,120,90,3.0,0.0
174,45.0,240,120,3.0,0.0
175,47.0,240,120,3.0,0.0
176,49.0,240,120,3.0,0.0
177,50.0,240,120,3.0,0.0
178,52.0,240,120,3.0,0.0
179,54.0,240,120,3.0,0.0
180,56.0,240,120,3.0,0.0
181,57.0,600,120,3.0,0.0
182,52.0,0,720,3.0,0.0
183,56.0,0,240,1.0,0.0
184,64.0,240,240,0.0,0.0
185,57.0,0,240,1.0,0.0
186,66.0,240,240,0.0,0.0
187,68.0,190,240,0.0,0.0
188,50.0,0,240,3.0,0.0
189,59.0,0,240,1.0,0.0
190,69.0,50,180,0.0,0.0
191,61.0,0,180,1.0,0.0
192,49.0,240,240,3.0,0.0
193,64.0,0,240,0.0,0.0
194,52.0,240,240,3.0,0.0
195,69.0,240,240,0.0,0.0
196,49.0,0,240,3.0,0.0
197,45.0,190,240,3.0,0.0
198,73.0,0,240,0.0,0.0
199,76.0,0,720,0.0,0.0
200,71.0,240,240,1.0,0.0
201,44.0,50,180,3.0,0.0
202,68.0,240,240,1.0,0.0
203,52.0,0,240,3.0,0.0
204,69.0,240,240,1.0,0.0
205,54.0,0,240,3.0,0.0
206,74.0,0,240,0.0,0.0
207,56.0,190,240,3.0,0.0
208,71.0,0,240,1.0,0.0
209,73.0,0,480,0.0,0.0
210,64.0,0,480,1.0,0.0
211,57.0,290,180,3.0,0.0
212,52.0,240,240,3.0,0.0
213,57.0,240,240,3.0,0.0
214,61.0,480,240,3.0,0.0
215,64.0,240,720,3.0,0.0
216,76.0,0,240,0.0,0.0
217,68.0,240,240,1.0,0.0
218,78.0,0,240,0.0,0.0
219,69.0,0,240,1.0,0.0
220,80.0,0,240,0.0,0.0
221,71.0,0,240,1.0,0.0
222,62.0,240,240,3.0,0.0
223,81.0,240,240,0.0,0.0
224,61.0,0,240,3.0,0.0
225,73.0,0,240,1.0,0.0
226,56.0,240,240,3.0,0.0
227,76.0,0,480,1.0,0.0
228,83.0,0,240,0.0,0.0
229,85.0,240,240,0.0,0.0
230,57.0,0,240,3.0,0.0
231,54.0,0,240,3.0,0.0
232,86.0,240,240,0.0,0.0
233,81.0,0,240,1.0,0.0
234,85.0,0,240,1.0,0.0
235,52.0,432,240,3.0,0.0
236,88.0,0,240,0.0,0.0
237,40.0,0,180,3.0,0.0
238,80.0,368,180,0.0,0.0
239,71.0,0,180,1.0,0.0
240,74.0,0,180,1.0,0.0
241,76.0,0,180,1.0,0.0
242,45.0,80,90,3.0,0.0
243,81.0,48,180,0.0,0.0
244,73.0,0,180,1.0,0.0
245,76.0,0,180,1.0,0.0
246,49.0,32,90,3.0,0.0
247,50.0,80,90,3.0,0.0
248,52.0,80,90,3.0,0.0
249,54.0,80,90,3.0,0.0
250,56.0,80,90,3.0,0.0
251,57.0,80,90,3.0,0.0
252,61.0,80,90,3.0,0.0
253,62.0,80,90,3.0,0.0
254,64.0,80,90,3.0,0.0
255,66.0,80,90,3.0,0.0
256,68.0,120,90,3.0,0.0
257,69.0,240,120,3.0,0.0
258,68.0,240,120,3.0,0.0
259,66.0,240,120,3.0,0.0
260,64.0,200,120,3.0,0.0
261,62.0,40,120,3.0,0.0
262,64.0,40,90,0.0,0.0
263,68.0,80,90,0.0,0.0
264,69.0,80,90,0.0,0.0
265,61.0,40,120,3.0,0.0
266,71.0,40,90,0.0,0.0
267,73.0,80,90,0.0,0.0
268,74.0,80,90,0.0,0.0
269,76.0,40,90,0.0,0.0
270,59.0,40,120,3.0,0.0
271,80.0,80,90,0.0,0.0
272,81.0,80,90,0.0,0.0
273,83.0,40,90,0.0,0.0
274,57.0,40,120,3.0,0.0
275,85.0,80,90,0.0,0.0
276,86.0,120,90,0.0,0.0
277,56.0,35,120,3.0,0.0
278,88.0,205,150,0.0,0.0
279,86.0,205,150,0.0,0.0
280,54.0,35,120,3.0,0.0
281,85.0,205,150,0.0,0.0
282,52.0,35,120,3.0,0.0
283,83.0,165,150,0.0,0.0
284,50.0,35,120,3.0,0.0
285,49.0,80,90,3.0,0.0
286,81.0,0,480,0.0,0.0
287,52.0,80,90,3.0,0.0
288,54.0,80,90,3.0,0.0
289,56.0,80,90,3.0,0.0
290,57.0,80,90,3.0,0.0
291,59.0,80,90,3.0,0.0
292,61.0,80,90,3.0,0.0
293,64.0,80,90,3.0,0.0
294,66.0,80,90,3.0,0.0
295,68.0,80,90,3.0,0.0
296,69.0,80,90,3.0,0.0
297,71.0,155,90,3.0,0.0
298,73.0,240,150,3.0,0.0
299,71.0,240,150,3.0,0.0
300,69.0,240,150,3.0,0.0
301,68.0,240,150,3.0,0.0
302,69.0,5,150,3.0,0.0
303,71.0,80,90,0.0,0.0
304,73.0,80,90,0.0,0.0
305,68.0,5,150,3.0,0.0
306,75.0,75,90,0.0,0.0
307,76.0,80,90,0.0,0.0
308,77.0,80,90,0.0,0.0
309,66.0,5,150,3.0,0.0
310,78.0,75,90,0.0,0.0
311,74.0,80,90,0.0,0.0
312,76.0,80,90,0.0,0.0
313,78.0,75,90,0.0,0.0
314,64.0,5,150,3.0,0.0
315,80.0,80,90,0.0,0.0
316,81.0,155,90,0.0,0.0
317,83.0,240,150,0.0,0.0
318,62.0,0,150,3.0,0.0
319,81.0,240,150,0.0,0.0
320,61.0,0,150,3.0,0.0
321,59.0,240,150,3.0,0.0
322,80.0,0,150,0.0,0.0
323,78.0,240,150,0.0,0.0
324,57.0,0,150,3.0,0.0
325,56.0,240,150,3.0,0.0
326,76.0,0,150,0.0,0.0
327,74.0,240,150,0.0,0.0
328,54.0,0,150,3.0,0.0
329,73.0,0,150,0.0,0.0
330,52.0,240,150,3.0,0.0
331,71.0,240,150,0.0,0.0
332,50.0,0,150,3.0,0.0
333,69.0,155,240,0.0,0.0
334,49.0,85,150,3.0,0.0
335,68.0,0,150,0.0,0.0
336,47.0,240,150,3.0,0.0
337,45.0,240,150,3.0,0.0
338,66.0,0,150,0.0,0.0
339,44.0,565,150,3.0,0.0
340,64.0,0,150,0.0,0.0
341,47.0,0,1920,3.0,0.0
342,61.0,240,240,1.0,0.0
343,63.0,0,15,0.0,0.0
344,59.0,240,240,1.0,0.0
345,57.0,240,240,1.0,0.0
346,56.0,240,240,1.0,0.0
347,64.0,0,480,0.0,0.0
348,54.0,240,240,1.0,0.0
349,52.0,240,240,1.0,0.0
350,58.0,240,480,0.0,0.0
351,54.0,0,240,1.0,0.0
352,35.0,225,2160,3.0,0.0
353,51.0,240,240,1.0,0.0
354,59.0,0,480,0.0,0.0
355,49.0,240,240,1.0,0.0
356,51.0,0,480,0.0,0.0
357,47.0,240,240,1.0,0.0
358,45.0,240,240,1.0,0.0
359,44.0,240,240,1.0,0.0
360,52.0,240,480,0.0,0.0
361,42.0,0,240,1.0,0.0
362,40.0,240,240,1.0,0.0
363,46.0,255,480,0.0,0.0
364,42.0,0,240,1.0,0.0
365,47.0,0,480,0.0,0.0
366,39.0,0,480,1.0,0.0
367,39.0,240,240,0.0,0.0
368,42.0,240,240,0.0,0.0
369,46.0,240,240,0.0,0.0
370,47.0,240,240,0.0,0.0
371,51.0,240,240,0.0,0.0
372,54.0,240,240,0.0,0.0
373,58.0,240,240,0.0,0.0
374,59.0,240,240,0.0,0.0
375,58.0,190,240,0.0,0.0
376,59.0,290,180,0.0,0.0
377,59.0,240,240,0.0,0.0
378,61.0,240,240,0.0,0.0
379,59.0,240,240,0.0,0.0
380,66.0,190,240,0.0,0.0
381,63.0,290,180,0.0,0.0
382,57.0,240,240,0.0,0.0
383,56.0,190,240,0.0,0.0
384,57.0,290,180,0.0,0.0
385,59.0,240,240,0.0,0.0
386,61.0,240,240,0.0,0.0
387,59.0,240,240,0.0,0.0
388,66.0,190,240,0.0,0.0
389,63.0,290,180,0.0,0.0
390,57.0,240,240,0.0,0.0
391,56.0,190,240,0.0,0.0
392,57.0,290,180,0.0,0.0
393,59.0,240,240,0.0,0.0
394,61.0,240,240,0.0,0.0
395,59.0,240,240,0.0,0.0
396,68.0,190,240,0.0,0.0
397,64.0,1250,180,0.0,0.0
398,51.0,120,3840,3.0,0.0
399,54.0,0,3600,3.0,0.0
400,57.0,30,2850,3.0,0.0
401,59.0,45,2100,3.0,0.0
402,63.0,240,240,0.0,0.0
403,60.0,240,1920,3.0,0.0
404,66.0,240,240,0.0,0.0
405,69.0,240,240,0.0,0.0
406,71.0,240,240,0.0,0.0
407,72.0,240,240,0.0,0.0
408,71.0,240,240,0.0,0.0
409,74.0,195,240,0.0,0.0
410,72.0,0,240,0.0,0.0
411,59.0,0,480,3.0,0.0
412,71.0,210,240,0.0,0.0
413,69.0,240,240,0.0,0.0
414,57.0,0,480,3.0,0.0
415,67.0,240,240,0.0,0.0
416,66.0,0,240,0.0,0.0
417,64.0,120,480,0.0,0.0
418,55.0,120,120,3.0,0.0
419,52.0,120,240,3.0,0.0
420,59.0,0,120,3.0,0.0
421,52.0,0,240,3.0,0.0
422,55.0,120,120,3.0,0.0
423,59.0,0,120,3.0,0.0
424,52.0,0,240,3.0,0.0
425,55.0,120,120,3.0,0.0
426,59.0,120,120,3.0,0.0
427,55.0,120,120,3.0,0.0
428,76.0,120,240,0.0,0.0
429,52.0,0,240,3.0,0.0
430,59.0,0,120,3.0,0.0
431,52.0,0,240,3.0,0.0
432,55.0,120,120,3.0,0.0
433,75.0,120,240,0.0,0.0
434,59.0,0,120,3.0,0.0
435,55.0,120,120,3.0,0.0
436,76.0,0,240,0.0,0.0
437,59.0,120,120,3.0,0.0
438,52.0,0,15,3.0,0.0
439,79.0,0,240,0.0,0.0
440,55.0,120,120,3.0,0.0
441,59.0,120,120,3.0,0.0
442,76.0,15,240,0.0,0.0
443,55.0,105,120,3.0,0.0
444,52.0,120,240,3.0,0.0
445,59.0,0,120,3.0,0.0
446,76.0,60,360,0.0,0.0
447,57.0,120,120,3.0,0.0
448,54.0,120,240,3.0,0.0
449,59.0,0,120,3.0,0.0
450,57.0,0,120,3.0,0.0
451,60.0,0,120,3.0,0.0
452,78.0,60,60,0.0,0.0
453,76.0,0,60,0.0,0.0
454,75.0,120,960,0.0,0.0
455,57.0,120,120,3.0,0.0
456,54.0,120,15,3.0,0.0
457,60.0,0,120,3.0,0.0
458,54.0,120,240,3.0,0.0
459,57.0,120,120,3.0,0.0
460,60.0,0,120,3.0,0.0
461,54.0,0,240,3.0,0.0
462,57.0,120,120,3.0,0.0
463,60.0,120,120,3.0,0.0
464,57.0,120,120,3.0,0.0
465,60.0,0,120,3.0,0.0
466,57.0,120,120,3.0,0.0
467,54.0,0,15,3.0,0.0
468,74.0,120,480,0.0,0.0
469,60.0,0,120,3.0,0.0
470,57.0,120,120,3.0,0.0
471,54.0,120,15,3.0,0.0
472,60.0,0,120,3.0,0.0
473,59.0,120,120,3.0,0.0
474,74.0,30,690,0.0,0.0
475,55.0,120,240,3.0,0.0
476,60.0,0,120,3.0,0.0
477,59.0,120,120,3.0,0.0
478,62.0,0,120,3.0,0.0
479,55.0,120,15,3.0,0.0
480,59.0,90,120,3.0,0.0
481,62.0,0,120,3.0,0.0
482,59.0,120,120,3.0,0.0
483,55.0,120,15,3.0,0.0
484,79.0,0,240,0.0,0.0
485,62.0,0,120,3.0,0.0
486,59.0,120,120,3.0,0.0
487,55.0,120,15,3.0,0.0
488,78.0,0,240,0.0,0.0
489,62.0,0,120,3.0,0.0
490,79.0,0,240,0.0,0.0
491,59.0,120,120,3.0,0.0
492,62.0,0,120,3.0,0.0
493,59.0,120,120,3.0,0.0
494,55.0,120,15,3.0,0.0
495,83.0,0,240,0.0,0.0
496,62.0,120,120,3.0,0.0
497,55.0,0,240,3.0,0.0
498,59.0,120,120,3.0,0.0
499,62.0,0,120,3.0,0.0
500,79.0,120,15,0.0,0.0
501,57.0,120,240,3.0,0.0
502,60.0,120,120,3.0,0.0
503,62.0,0,120,3.0,0.0
504,57.0,0,240,3.0,0.0
505,60.0,15,120,3.0,0.0
506,81.0,60,60,0.0,0.0
507,63.0,0,120,3.0,0.0
508,79.0,120,60,0.0,0.0
509,57.0,0,240,3.0,0.0
510,60.0,120,120,3.0,0.0
511,78.0,0,960,0.0,0.0
512,63.0,120,120,3.0,0.0
513,60.0,120,120,3.0,0.0
514,57.0,0,240,3.0,0.0
515,63.0,120,120,3.0,0.0
516,60.0,120,120,3.0,0.0
517,57.0,120,240,3.0,0.0
518,63.0,0,120,3.0,0.0
519,60.0,120,120,3.0,0.0
520,63.0,120,120,3.0,0.0
521,60.0,120,120,3.0,0.0
522,57.0,0,15,3.0,0.0
523,63.0,120,120,3.0,0.0
524,60.0,120,120,3.0,0.0
525,57.0,0,15,3.0,0.0
526,63.0,0,120,3.0,0.0
527,62.0,120,120,3.0,0.0
528,58.0,0,240,3.0,0.0
529,77.0,120,15,0.0,0.0
530,63.0,120,120,3.0,0.0
531,62.0,120,120,3.0,0.0
532,65.0,115,120,3.0,0.0
533,62.0,120,120,3.0,0.0
534,58.0,5,15,3.0,0.0
535,65.0,115,120,3.0,0.0
536,58.0,5,15,3.0,0.0
537,62.0,120,120,3.0,0.0
538,82.0,10,240,0.0,0.0
539,65.0,110,120,3.0,0.0
540,81.0,0,240,0.0,0.0
541,58.0,5,240,3.0,0.0
542,62.0,120,120,3.0,0.0
543,65.0,115,120,3.0,0.0
544,62.0,120,120,3.0,0.0
545,82.0,10,240,0.0,0.0
546,65.0,110,120,3.0,0.0
547,62.0,120,120,3.0,0.0
548,58.0,0,15,3.0,0.0
549,86.0,0,240,0.0,0.0
550,65.0,115,120,3.0,0.0
551,58.0,0,240,3.0,0.0
552,62.0,120,120,3.0,0.0
553,65.0,110,120,3.0,0.0
554,82.0,10,15,0.0,0.0
555,60.0,120,240,3.0,0.0
556,63.0,120,120,3.0,0.0
557,65.0,0,120,3.0,0.0
558,63.0,20,120,3.0,0.0
559,84.0,60,60,0.0,0.0
560,66.0,120,120,3.0,0.0
561,82.0,0,60,0.0,0.0
562,63.0,120,120,3.0,0.0
563,81.0,0,960,0.0,0.0
564,60.0,0,15,3.0,0.0
565,66.0,0,120,3.0,0.0
566,63.0,120,120,3.0,0.0
567,60.0,120,15,3.0,0.0
568,66.0,120,120,3.0,0.0
569,61.0,120,240,3.0,0.0
570,64.0,120,120,3.0,0.0
571,66.0,0,120,3.0,0.0
572,64.0,120,120,3.0,0.0
573,67.0,0,120,3.0,0.0
574,61.0,120,15,3.0,0.0
575,64.0,120,120,3.0,0.0
576,81.0,0,480,0.0,0.0
577,67.0,120,120,3.0,0.0
578,61.0,0,240,3.0,0.0
579,64.0,120,120,3.0,0.0
580,67.0,80,120,3.0,0.0
581,62.0,120,240,3.0,0.0
582,66.0,40,120,3.0,0.0
583,81.0,40,90,0.0,0.0
584,83.0,80,90,0.0,0.0
585,67.0,0,120,3.0,0.0
586,81.0,0,90,0.0,0.0
587,80.0,115,120,0.0,0.0
588,66.0,0,120,3.0,0.0
589,62.0,120,240,3.0,0.0
590,69.0,0,120,3.0,0.0
591,81.0,5,120,0.0,0.0
592,66.0,120,120,3.0,0.0
593,72.0,0,960,1.0,0.0
594,84.0,0,960,0.0,0.0
595,69.0,120,120,3.0,0.0
596,62.0,0,15,3.0,0.0
597,66.0,120,120,3.0,0.0
598,69.0,0,120,3.0,0.0
599,66.0,120,120,3.0,0.0
600,69.0,0,120,3.0,0.0
601,66.0,120,120,3.0,0.0
602,63.0,120,15,3.0,0.0
603,69.0,0,120,3.0,0.0
604,83.0,80,480,0.0,0.0
605,71.0,0,480,1.0,0.0
606,66.0,120,120,3.0,0.0
607,69.0,120,120,3.0,0.0
608,63.0,0,15,3.0,0.0
609,66.0,120,120,3.0,0.0
610,69.0,0,120,3.0,0.0
611,64.0,0,240,3.0,0.0
612,68.0,40,120,3.0,0.0
613,83.0,40,90,0.0,0.0
614,85.0,80,90,0.0,0.0
615,69.0,80,120,3.0,0.0
616,83.0,0,90,0.0,0.0
617,64.0,0,240,3.0,0.0
618,68.0,40,120,3.0,0.0
619,82.0,40,90,0.0,0.0
620,83.0,80,90,0.0,0.0
621,71.0,0,120,3.0,0.0
622,85.0,120,90,0.0,0.0
623,64.0,120,240,3.0,0.0
624,68.0,120,120,3.0,0.0
625,74.0,0,960,1.0,0.0
626,86.0,120,960,0.0,0.0
627,71.0,0,120,3.0,0.0
628,68.0,120,120,3.0,0.0
629,64.0,0,240,3.0,0.0
630,71.0,120,120,3.0,0.0
631,65.0,120,240,3.0,0.0
632,68.0,120,120,3.0,0.0
633,71.0,0,120,3.0,0.0
634,68.0,120,120,3.0,0.0
635,71.0,0,120,3.0,0.0
636,65.0,0,15,3.0,0.0
637,68.0,120,120,3.0,0.0
638,73.0,0,480,1.0,0.0
639,71.0,120,120,3.0,0.0
640,68.0,120,120,3.0,0.0
641,65.0,0,15,3.0,0.0
642,71.0,0,120,3.0,0.0
643,69.0,40,120,3.0,0.0
644,66.0,0,240,3.0,0.0
645,85.0,80,15,0.0,0.0
646,87.0,80,90,0.0,0.0
647,71.0,0,120,3.0,0.0
648,85.0,80,90,0.0,0.0
649,69.0,40,120,3.0,0.0
650,84.0,40,90,0.0,0.0
651,66.0,0,240,3.0,0.0
652,85.0,80,90,0.0,0.0
653,72.0,120,120,3.0,0.0
654,87.0,0,90,0.0,0.0
655,76.0,120,960,1.0,0.0
656,69.0,120,120,3.0,0.0
657,88.0,0,960,0.0,0.0
658,66.0,120,240,3.0,0.0
659,72.0,0,120,3.0,0.0
660,69.0,120,120,3.0,0.0
661,66.0,120,240,3.0,0.0
662,69.0,120,120,3.0,0.0
663,72.0,0,120,3.0,0.0
664,66.0,120,15,3.0,0.0
665,69.0,120,120,3.0,0.0
666,72.0,0,120,3.0,0.0
667,69.0,120,120,3.0,0.0
668,72.0,0,120,3.0,0.0
669,66.0,120,15,3.0,0.0
670,69.0,120,120,3.0,0.0
671,72.0,385,120,3.0,0.0
672,75.0,0,15,1.0,0.0
673,69.0,433,390,3.0,0.0
674,87.0,0,15,0.0,0.0
675,66.0,0,390,3.0,0.0
676,48.0,99,90,3.0,0.0
677,60.0,0,90,3.0,0.0
678,59.0,0,150,3.0,0.0
679,47.0,98,150,3.0,0.0
680,45.0,0,180,3.0,0.0
681,57.0,99,180,3.0,0.0
682,43.0,0,210,3.0,0.0
683,55.0,156,210,3.0,0.0
684,42.0,650,300,3.0,0.0
685,54.0,0,300,3.0,0.0
686,76.0,480,240,1.0,0.0
687,88.0,0,240,0.0,0.0
688,75.0,0,480,1.0,0.0
689,87.0,353,480,0.0,0.0
690,60.0,94,120,3.0,0.0
691,48.0,0,120,3.0,0.0
692,47.0,95,150,3.0,0.0
693,59.0,0,150,3.0,0.0
694,45.0,0,180,3.0,0.0
695,57.0,94,180,3.0,0.0
696,43.0,154,210,3.0,0.0
697,55.0,0,210,3.0,0.0
698,42.0,650,300,3.0,0.0
699,54.0,0,300,3.0,0.0
700,88.0,480,240,0.0,0.0
701,87.0,288,480,0.0,0.0
702,72.0,0,300,3.0,0.0
703,69.0,0,300,3.0,0.0
704,66.0,192,300,3.0,0.0
705,88.0,480,240,0.0,0.0
706,87.0,288,480,0.0,0.0
707,72.0,192,300,3.0,0.0
708,69.0,0,300,3.0,0.0
709,66.0,0,300,3.0,0.0
710,88.0,480,240,0.0,0.0
711,87.0,288,480,0.0,0.0
712,72.0,0,300,3.0,0.0
713,66.0,0,300,3.0,0.0
714,69.0,1102,300,3.0,0.0
715,83.0,370,180,0.0,0.0
716,64.0,0,480,3.0,0.0
717,59.0,0,480,3.0,0.0
718,56.0,0,480,3.0,0.0
719,76.0,80,90,0.0,0.0
720,88.0,80,90,0.0,0.0
721,76.0,80,90,0.0,0.0
722,71.0,80,90,0.0,0.0
723,83.0,80,90,0.0,0.0
724,71.0,80,90,0.0,0.0
725,68.0,80,90,0.0,0.0
726,80.0,80,90,0.0,0.0
727,68.0,80,90,0.0,0.0
728,64.0,80,90,0.0,0.0
729,76.0,80,90,0.0,0.0
730,64.0,80,90,0.0,0.0
731,59.0,80,90,0.0,0.0
732,71.0,80,90,0.0,0.0
733,59.0,80,90,0.0,0.0
734,56.0,80,90,0.0,0.0
735,68.0,80,90,0.0,0.0
736,56.0,80,90,0.0,0.0
737,52.0,80,90,0.0,0.0
738,64.0,80,90,0.0,0.0
739,52.0,960,90,0.0,0.0
740,52.0,0,960,0.0,0.0
741,54.0,960,960,0.0,0.0
742,46.0,0,960,3.0,0.0
743,35.0,320,960,3.0,0.0
744,45.0,0,960,3.0,0.0
745,59.0,0,960,0.0,0.0
746,51.0,0,960,0.0,0.0
747,40.0,80,480,3.0,0.0
748,44.0,0,480,3.0,0.0
749,52.0,80,90,0.0,0.0
750,64.0,80,90,0.0,0.0
751,52.0,0,90,0.0,0.0
752,56.0,80,90,0.0,0.0
753,68.0,80,90,0.0,0.0
754,56.0,80,90,0.0,0.0
755,59.0,80,90,0.0,0.0
756,71.0,80,90,0.0,0.0
757,59.0,80,90,0.0,0.0
758,64.0,80,90,0.0,0.0
759,76.0,80,90,0.0,0.0
760,64.0,80,90,0.0,0.0
761,68.0,80,90,0.0,0.0
762,80.0,80,90,0.0,0.0
763,68.0,80,90,0.0,0.0
764,71.0,80,90,0.0,0.0
765,83.0,80,90,0.0,0.0
766,71.0,80,90,0.0,0.0
767,76.0,80,90,0.0,0.0
768,88.0,80,90,0.0,0.0
769,78.0,0,960,0.0,0.0
770,76.0,960,15,0.0,0.0
771,70.0,960,960,3.0,0.0
772,75.0,0,960,0.0,0.0
773,83.0,0,960,0.0,0.0
774,69.0,0,960,3.0,0.0
775,59.0,80,960,3.0,0.0
776,76.0,40,120,0.0,0.0
777,64.0,40,90,0.0,0.0
778,68.0,80,90,0.0,0.0
779,69.0,80,90,0.0,0.0
780,71.0,80,90,0.0,0.0
781,73.0,80,90,0.0,0.0
782,75.0,130,90,0.0,0.0
783,76.0,30,120,0.0,0.0
784,80.0,80,90,0.0,0.0
785,81.0,80,90,0.0,0.0
786,83.0,80,90,0.0,0.0
787,85.0,80,90,0.0,0.0
788,87.0,120,90,0.0,0.0
789,88.0,240,120,0.0,0.0
790,87.0,240,120,0.0,0.0
791,85.0,240,120,0.0,0.0
792,83.0,200,120,0.0,0.0
793,47.0,40,90,3.0,0.0
794,81.0,40,120,0.0,0.0
795,51.0,80,90,3.0,0.0
796,52.0,80,90,3.0,0.0
797,80.0,40,120,0.0,0.0
798,54.0,40,90,3.0,0.0
799,56.0,80,90,3.0,0.0
800,57.0,80,90,3.0,0.0
801,78.0,40,120,0.0,0.0
802,59.0,40,90,3.0,0.0
803,63.0,80,90,3.0,0.0
804,64.0,80,90,3.0,0.0
805,76.0,40,120,0.0,0.0
806,66.0,40,90,3.0,0.0
807,68.0,80,90,3.0,0.0
808,69.0,120,90,3.0,0.0
809,71.0,0,120,3.0,0.0
810,75.0,240,120,0.0,0.0
811,69.0,240,120,3.0,0.0
812,68.0,240,120,3.0,0.0
813,66.0,200,120,3.0,0.0
814,64.0,80,480,3.0,0.0
815,40.0,80,90,3.0,0.0
816,44.0,80,90,3.0,0.0
817,45.0,80,90,3.0,0.0
818,47.0,80,90,3.0,0.0
819,49.0,80,90,3.0,0.0
820,51.0,0,90,3.0,0.0
821,52.0,80,90,3.0,0.0
822,56.0,80,90,3.0,0.0
823,57.0,80,90,3.0,0.0
824,59.0,80,90,3.0,0.0
825,61.0,80,90,3.0,0.0
826,63.0,120,90,3.0,0.0
827,64.0,240,120,3.0,0.0
828,63.0,240,120,3.0,0.0
829,61.0,240,120,3.0,0.0
830,59.0,240,120,3.0,0.0
831,57.0,40,120,3.0,0.0
832,59.0,80,90,0.0,0.0
833,63.0,80,90,0.0,0.0
834,56.0,40,120,3.0,0.0
835,64.0,40,90,0.0,0.0
836,66.0,80,90,0.0,0.0
837,68.0,80,90,0.0,0.0
838,54.0,40,120,3.0,0.0
839,69.0,40,90,0.0,0.0
840,71.0,80,90,0.0,0.0
841,75.0,80,90,0.0,0.0
842,76.0,40,90,0.0,0.0
843,52.0,40,120,3.0,0.0
844,78.0,80,90,0.0,0.0
845,80.0,120,90,0.0,0.0
846,83.0,240,120,0.0,0.0
847,51.0,0,120,3.0,0.0
848,49.0,0,120,3.0,0.0
849,81.0,240,120,0.0,0.0
850,80.0,0,120,0.0,0.0
851,47.0,240,120,3.0,0.0
852,78.0,0,120,0.0,0.0
853,45.0,240,120,3.0,0.0
854,76.0,0,120,0.0,0.0
855,44.0,240,120,3.0,0.0
856,75.0,240,120,0.0,0.0
857,42.0,0,120,3.0,0.0
858,73.0,0,120,0.0,0.0
859,40.0,240,120,3.0,0.0
860,71.0,0,120,0.0,0.0
861,39.0,240,120,3.0,0.0
862,69.0,0,120,0.0,0.0
863,37.0,240,120,3.0,0.0
864,35.0,0,120,3.0,0.0
865,68.0,240,120,0.0,0.0
866,33.0,0,120,3.0,0.0
867,66.0,240,120,0.0,0.0
868,32.0,0,120,3.0,0.0
869,64.0,240,120,0.0,0.0
870,33.0,120,960,3.0,0.0
871,63.0,240,120,0.0,0.0
872,61.0,240,120,0.0,0.0
873,59.0,240,120,0.0,0.0
874,57.0,120,120,0.0,0.0
875,35.0,240,960,3.0,0.0
876,56.0,240,120,0.0,0.0
877,54.0,240,120,0.0,0.0
878,52.0,240,120,0.0,0.0
879,51.0,120,120,0.0,0.0
880,40.0,25,1890,3.0,0.0
881,52.0,240,240,0.0,0.0
882,54.0,240,240,0.0,0.0
883,56.0,240,240,0.0,0.0
884,57.0,240,240,0.0,0.0
885,69.0,480,960,0.0,0.0
886,59.0,240,240,0.0,0.0
887,61.0,240,240,0.0,0.0
888,62.0,215,240,0.0,0.0
889,63.0,0,240,0.0,0.0
890,68.0,240,960,0.0,0.0
891,59.0,0,960,1.0,0.0
892,40.0,25,3810,3.0,0.0
893,42.0,240,240,3.0,0.0
894,44.0,240,240,3.0,0.0
895,45.0,0,240,3.0,0.0
896,66.0,240,960,0.0,0.0
897,47.0,240,240,3.0,0.0
898,49.0,240,240,3.0,0.0
899,50.0,240,240,3.0,0.0
900,51.0,0,240,3.0,0.0
901,64.0,240,960,0.0,0.0
902,56.0,240,240,3.0,0.0
903,52.0,0,960,3.0,0.0
904,54.0,240,240,3.0,0.0
905,56.0,240,240,3.0,0.0
906,57.0,0,240,3.0,0.0
907,69.0,480,960,0.0,0.0
908,51.0,240,480,3.0,0.0
909,59.0,240,240,3.0,0.0
910,61.0,0,240,3.0,0.0
911,54.0,0,480,3.0,0.0
912,62.0,215,240,3.0,0.0
913,63.0,0,240,3.0,0.0
914,68.0,0,960,0.0,0.0
915,40.0,30,1890,3.0,0.0
916,42.0,240,240,3.0,0.0
917,44.0,240,240,3.0,0.0
918,45.0,0,240,3.0,0.0
919,57.0,0,960,1.0,0.0
920,59.0,240,15,1.0,0.0
921,47.0,240,240,3.0,0.0
922,66.0,120,960,0.0,0.0
923,49.0,240,240,3.0,0.0
924,50.0,210,240,3.0,0.0
925,51.0,0,240,3.0,0.0
926,59.0,0,240,1.0,0.0
927,56.0,41,240,1.0,0.0
928,52.0,120,120,3.0,0.0
929,40.0,79,270,3.0,0.0
930,64.0,0,240,0.0,0.0
931,49.0,240,120,3.0,0.0
932,47.0,240,120,3.0,0.0
933,45.0,240,120,3.0,0.0
934,59.0,0,180,1.0,0.0
935,64.0,0,180,0.0,0.0
936,56.0,168,180,1.0,0.0
937,44.0,72,120,3.0,0.0
938,45.0,240,120,3.0,0.0
939,64.0,168,180,0.0,0.0
940,44.0,72,120,3.0,0.0
941,59.0,0,180,1.0,0.0
942,56.0,0,180,1.0,0.0
943,42.0,312,120,3.0,0.0
944,64.0,0,180,0.0,0.0
945,59.0,960,180,1.0,0.0
946,40.0,0,180,3.0,0.0
947,56.0,0,180,1.0,0.0
948,56.0,0,180,1.0,0.0
949,59.0,960,180,0.0,0.0
950,40.0,0,180,3.0,0.0
951,56.0,1920,180,0.0,0.0
952,40.0,0,180,3.0,0.0
953,52.0,0,180,1.0,0.0
954,64.0,960,180,3.0,0.0
955,71.0,0,180,0.0,0.0
956,64.0,0,180,3.0,0.0
957,67.0,960,180,1.0,0.0
958,64.0,0,180,3.0,0.0
959,67.0,1608,180,0.0,0.0
960,72.0,0,120,0.0,0.0
961,84.0,0,120,0.0,0.0
962,60.0,360,120,3.0,0.0
963,55.0,0,240,3.0,0.0
964,67.0,540,240,0.0,0.0
965,79.0,0,240,0.0,0.0
966,55.0,0,60,3.0,0.0
967,67.0,60,60,0.0,0.0
968,53.0,0,60,3.0,0.0
969,65.0,60,60,0.0,0.0
970,64.0,0,60,0.0,0.0
971,52.0,60,60,3.0,0.0
972,62.0,0,60,0.0,0.0
973,50.0,240,60,3.0,0.0
974,60.0,0,240,0.0,0.0
975,48.0,600,240,3.0,0.0
976,60.0,360,120,3.0,0.0
977,72.0,0,120,0.0,0.0
978,84.0,0,120,0.0,0.0
979,69.0,0,240,0.0,0.0
980,81.0,0,240,0.0,0.0
981,57.0,540,240,3.0,0.0
982,57.0,0,60,3.0,0.0
983,69.0,60,60,0.0,0.0
984,67.0,60,60,0.0,0.0
985,55.0,0,60,3.0,0.0
986,53.0,60,60,3.0,0.0
987,65.0,0,60,0.0,0.0
988,52.0,240,60,3.0,0.0
989,64.0,0,60,0.0,0.0
990,62.0,600,240,0.0,0.0
991,50.0,0,240,3.0,0.0
992,89.0,0,120,0.0,0.0
993,77.0,360,120,0.0,0.0
994,65.0,0,120,3.0,0.0
995,62.0,0,240,3.0,0.0
996,86.0,0,240,0.0,0.0
997,74.0,480,240,0.0,0.0
998,71.0,480,240,0.0,0.0
999,83.0,0,240,0.0,0.0
1000,59.0,0,240,3.0,0.0
1001,67.0,0,240,0.0,0.0
1002,55.0,0,240,3.0,0.0
1003,79.0,480,240,0.0,0.0
1004,53.0,0,240,3.0,0.0
1005,65.0,480,240,0.0,0.0
1006,77.0,0,240,0.0,0.0
1007,62.0,480,240,0.0,0.0
1008,50.0,0,240,3.0,0.0
1009,74.0,0,240,0.0,0.0
1010,71.0,480,240,0.0,0.0
1011,47.0,0,240,3.0,0.0
1012,59.0,0,240,0.0,0.0
1013,43.0,480,240,3.0,0.0
1014,55.0,0,240,0.0,0.0
1015,67.0,0,240,0.0,0.0
1016,43.0,0,240,3.0,0.0
1017,55.0,360,240,0.0,0.0
1018,67.0,0,240,0.0,0.0
1019,68.0,120,120,1.0,0.0
1020,32.0,0,240,0.0,0.0
1021,68.0,0,240,0.0,0.0
1022,44.0,0,240,0.0,0.0
1023,63.0,0,120,1.0,0.0
1024,60.0,120,120,1.0,0.0
1025,56.0,120,15,1.0,0.0
1026,63.0,120,120,1.0,0.0
1027,56.0,120,120,1.0,0.0
1028,60.0,0,120,1.0,0.0
1029,63.0,120,120,1.0,0.0
1030,44.0,120,120,3.0,0.0
1031,60.0,0,120,1.0,0.0
1032,56.0,0,120,1.0,0.0
1033,63.0,120,120,1.0,0.0
1034,39.0,120,240,3.0,0.0
1035,56.0,120,120,1.0,0.0
1036,60.0,0,120,1.0,0.0
1037,63.0,0,120,1.0,0.0
1038,56.0,0,120,1.0,0.0
1039,60.0,120,120,1.0,0.0
1040,63.0,120,120,1.0,0.0
1041,60.0,0,120,1.0,0.0
1042,56.0,120,120,1.0,0.0
1043,63.0,60,120,1.0,0.0
1044,60.0,0,120,1.0,0.0
1045,56.0,60,120,1.0,0.0
1046,51.0,60,60,3.0,0.0
1047,49.0,0,60,3.0,0.0
1048,63.0,0,120,1.0,0.0
1049,48.0,60,60,3.0,0.0
1050,46.0,120,60,3.0,0.0
1051,44.0,43,930,3.0,0.0
1052,60.0,120,120,1.0,0.0
1053,56.0,0,120,1.0,0.0
1054,63.0,120,120,1.0,0.0
1055,56.0,0,120,1.0,0.0
1056,60.0,120,120,1.0,0.0
1057,63.0,120,120,1.0,0.0
1058,60.0,120,120,1.0,0.0
1059,56.0,0,120,1.0,0.0
1060,63.0,120,120,1.0,0.0
1061,87.0,0,120,0.0,0.0
1062,60.0,0,120,1.0,0.0
1063,56.0,77,120,1.0,0.0
1064,63.0,120,120,1.0,0.0
1065,84.0,120,240,0.0,0.0
1066,60.0,120,120,1.0,0.0
1067,56.0,0,120,1.0,0.0
1068,63.0,0,120,1.0,0.0
1069,56.0,0,120,1.0,0.0
1070,60.0,120,120,1.0,0.0
1071,63.0,120,120,1.0,0.0
1072,80.0,0,240,0.0,0.0
1073,56.0,120,120,1.0,0.0
1074,60.0,0,120,1.0,0.0
1075,63.0,120,120,1.0,0.0
1076,56.0,0,120,1.0,0.0
1077,60.0,120,120,1.0,0.0
1078,63.0,120,120,1.0,0.0
1079,56.0,120,120,1.0,0.0
1080,60.0,0,120,1.0,0.0
1081,75.0,120,240,0.0,0.0
1082,63.0,0,120,1.0,0.0
1083,60.0,0,120,1.0,0.0
1084,56.0,120,120,1.0,0.0
1085,63.0,120,120,1.0,0.0
1086,56.0,0,120,1.0,0.0
1087,72.0,120,240,0.0,0.0
1088,60.0,120,120,1.0,0.0
1089,63.0,0,120,1.0,0.0
1090,56.0,0,120,1.0,0.0
1091,60.0,120,120,1.0,0.0
1092,63.0,120,120,1.0,0.0
1093,70.0,0,240,0.0,0.0
1094,56.0,120,120,1.0,0.0
1095,60.0,0,120,1.0,0.0
1096,63.0,120,120,1.0,0.0
1097,56.0,120,120,1.0,0.0
1098,60.0,0,120,1.0,0.0
1099,63.0,120,120,1.0,0.0
1100,60.0,120,120,1.0,0.0
1101,68.0,0,240,0.0,0.0
1102,56.0,0,120,1.0,0.0
1103,63.0,120,120,1.0,0.0
1104,60.0,120,120,1.0,0.0
1105,56.0,0,120,1.0,0.0
1106,63.0,120,120,1.0,0.0
1107,61.0,0,120,1.0,0.0
1108,58.0,120,120,1.0,0.0
1109,67.0,120,240,0.0,0.0
1110,63.0,0,120,1.0,0.0
1111,58.0,0,120,1.0,0.0
1112,55.0,120,120,1.0,0.0
1113,61.0,0,120,1.0,0.0
1114,63.0,120,120,1.0,0.0
1115,55.0,120,120,1.0,0.0
1116,61.0,0,120,1.0,0.0
1117,58.0,0,120,1.0,0.0
1118,63.0,120,120,1.0,0.0
1119,51.0,0,120,3.0,0.0
1120,55.0,0,120,1.0,0.0
1121,58.0,120,120,1.0,0.0
1122,61.0,0,120,1.0,0.0
1123,63.0,120,120,1.0,0.0
1124,46.0,120,240,3.0,0.0
1125,58.0,0,120,1.0,0.0
1126,55.0,120,120,1.0,0.0
1127,61.0,0,120,1.0,0.0
1128,63.0,0,120,1.0,0.0
1129,55.0,120,120,1.0,0.0
1130,61.0,0,120,1.0,0.0
1131,58.0,0,120,1.0,0.0
1132,63.0,120,120,1.0,0.0
1133,61.0,0,120,1.0,0.0
1134,55.0,120,120,1.0,0.0
1135,58.0,0,120,1.0,0.0
1136,63.0,60,120,1.0,0.0
1137,55.0,0,120,1.0,0.0
1138,58.0,0,120,1.0,0.0
1139,46.0,60,60,3.0,0.0
1140,61.0,60,120,1.0,0.0
1141,44.0,0,60,3.0,0.0
1142,43.0,60,60,3.0,0.0
1143,63.0,0,120,1.0,0.0
1144,41.0,120,60,3.0,0.0
1145,55.0,0,120,1.0,0.0
1146,61.0,0,120,1.0,0.0
1147,58.0,120,120,1.0,0.0
1148,39.0,104,990,3.0,0.0
1149,63.0,120,120,1.0,0.0
1150,55.0,0,120,1.0,0.0
1151,61.0,0,120,1.0,0.0
1152,58.0,120,120,1.0,0.0
1153,63.0,120,120,1.0,0.0
1154,58.0,0,120,1.0,0.0
1155,61.0,120,120,1.0,0.0
1156,55.0,0,120,1.0,0.0
1157,63.0,120,120,1.0,0.0
1158,55.0,0,120,1.0,0.0
1159,58.0,0,120,1.0,0.0
1160,61.0,0,120,1.0,0.0
1161,85.0,120,120,0.0,0.0
1162,63.0,16,120,1.0,0.0
1163,61.0,120,120,1.0,0.0
1164,55.0,0,120,1.0,0.0
1165,82.0,120,240,0.0,0.0
1166,58.0,0,120,1.0,0.0
1167,63.0,0,120,1.0,0.0
1168,55.0,0,120,1.0,0.0
1169,61.0,120,120,1.0,0.0
1170,58.0,0,120,1.0,0.0
1171,63.0,120,120,1.0,0.0
1172,55.0,120,120,1.0,0.0
1173,61.0,0,120,1.0,0.0
1174,58.0,0,120,1.0,0.0
1175,79.0,0,240,0.0,0.0
1176,63.0,120,120,1.0,0.0
1177,61.0,0,120,1.0,0.0
1178,58.0,120,120,1.0,0.0
1179,55.0,0,120,1.0,0.0
1180,63.0,120,120,1.0,0.0
1181,58.0,0,120,1.0,0.0
1182,55.0,0,120,1.0,0.0
1183,61.0,120,120,1.0,0.0
1184,73.0,0,240,0.0,0.0
1185,63.0,120,120,1.0,0.0
1186,58.0,0,120,1.0,0.0
1187,61.0,0,120,1.0,0.0
1188,55.0,120,120,1.0,0.0
1189,63.0,120,120,1.0,0.0
1190,58.0,120,120,1.0,0.0
1191,61.0,0,120,1.0,0.0
1192,55.0,0,120,1.0,0.0
1193,70.0,0,240,0.0,0.0
1194,63.0,120,120,1.0,0.0
1195,61.0,0,120,1.0,0.0
1196,55.0,0,120,1.0,0.0
1197,58.0,120,120,1.0,0.0
1198,63.0,120,120,1.0,0.0
1199,67.0,120,240,0.0,0.0
1200,58.0,120,120,1.0,0.0
1201,55.0,0,120,1.0,0.0
1202,61.0,0,120,1.0,0.0
1203,63.0,0,120,1.0,0.0
1204,55.0,0,120,1.0,0.0
1205,61.0,0,120,1.0,0.0
1206,58.0,120,120,1.0,0.0
1207,63.0,120,120,1.0,0.0
1208,65.0,0,240,0.0,0.0
1209,58.0,0,120,1.0,0.0
1210,61.0,120,120,1.0,0.0
1211,55.0,0,120,1.0,0.0
1212,63.0,120,120,1.0,0.0
1213,61.0,0,120,1.0,0.0
1214,55.0,120,120,1.0,0.0
1215,58.0,0,120,1.0,0.0
1216,63.0,120,120,1.0,0.0
1217,58.0,120,120,1.0,0.0
1218,55.0,0,120,1.0,0.0
1219,64.0,120,240,0.0,0.0
1220,60.0,0,120,1.0,0.0
1221,55.0,0,120,1.0,0.0
1222,58.0,120,120,1.0,0.0
1223,60.0,120,120,1.0,0.0
1224,55.0,0,120,1.0,0.0
1225,58.0,120,120,1.0,0.0
1226,60.0,120,120,1.0,0.0
1227,58.0,120,120,1.0,0.0
1228,55.0,0,120,1.0,0.0
1229,48.0,0,120,3.0,0.0
1230,60.0,120,120,1.0,0.0
1231,58.0,120,120,1.0,0.0
1232,43.0,120,240,3.0,0.0
1233,55.0,0,120,1.0,0.0
1234,60.0,0,120,1.0,0.0
1235,55.0,120,120,1.0,0.0
1236,58.0,0,120,1.0,0.0
1237,60.0,120,120,1.0,0.0
1238,55.0,0,120,1.0,0.0
1239,58.0,120,120,1.0,0.0
1240,60.0,60,120,1.0,0.0
1241,43.0,60,60,3.0,0.0
1242,58.0,0,120,1.0,0.0
1243,55.0,60,120,1.0,0.0
1244,41.0,0,60,3.0,0.0
1245,60.0,120,120,1.0,0.0
1246,40.0,60,60,3.0,0.0
1247,38.0,0,60,3.0,0.0
1248,36.0,104,990,3.0,0.0
1249,58.0,120,120,1.0,0.0
1250,55.0,0,120,1.0,0.0
1251,60.0,120,120,1.0,0.0
1252,58.0,120,120,1.0,0.0
1253,55.0,0,120,1.0,0.0
1254,60.0,120,120,1.0,0.0
1255,55.0,120,120,1.0,0.0
1256,58.0,0,120,1.0,0.0
1257,60.0,120,120,1.0,0.0
1258,58.0,0,120,1.0,0.0
1259,55.0,0,120,1.0,0.0
1260,82.0,120,120,0.0,0.0
1261,60.0,16,120,1.0,0.0
1262,58.0,0,120,1.0,0.0
1263,79.0,120,240,0.0,0.0
1264,55.0,120,120,1.0,0.0
1265,60.0,0,120,1.0,0.0
1266,55.0,120,120,1.0,0.0
1267,58.0,0,120,1.0,0.0
1268,60.0,120,120,1.0,0.0
1269,58.0,0,120,1.0,0.0
1270,76.0,0,240,0.0,0.0
1271,55.0,120,120,1.0,0.0
1272,60.0,120,120,1.0,0.0
1273,55.0,0,120,1.0,0.0
1274,58.0,120,120,1.0,0.0
1275,60.0,120,120,1.0,0.0
1276,72.0,0,240,0.0,0.0
1277,58.0,120,120,1.0,0.0
1278,55.0,0,120,1.0,0.0
1279,60.0,120,120,1.0,0.0
1280,58.0,120,120,1.0,0.0
1281,55.0,0,120,1.0,0.0
1282,60.0,120,120,1.0,0.0
1283,55.0,120,120,1.0,0.0
1284,58.0,0,120,1.0,0.0
1285,70.0,120,240,0.0,0.0
1286,60.0,0,120,1.0,0.0
1287,58.0,0,120,1.0,0.0
1288,55.0,120,120,1.0,0.0
1289,60.0,120,120,1.0,0.0
1290,55.0,0,120,1.0,0.0
1291,58.0,120,120,1.0,0.0
1292,67.0,120,240,0.0,0.0
1293,60.0,0,120,1.0,0.0
1294,55.0,0,120,1.0,0.0
1295,58.0,120,120,1.0,0.0
1296,60.0,120,120,1.0,0.0
1297,64.0,0,240,0.0,0.0
1298,55.0,120,120,1.0,0.0
1299,58.0,0,120,1.0,0.0
1300,60.0,120,120,1.0,0.0
1301,55.0,120,120,1.0,0.0
1302,58.0,0,120,1.0,0.0
1303,60.0,120,120,1.0,0.0
1304,36.0,98,3750,3.0,0.0
1305,41.0,8,3690,3.0,0.0
1306,44.0,7,3660,3.0,0.0
1307,56.0,0,120,1.0,0.0
1308,48.0,0,3600,3.0,0.0
1309,53.0,120,120,1.0,0.0
1310,60.0,120,120,1.0,0.0
1311,53.0,0,120,1.0,0.0
1312,56.0,120,120,1.0,0.0
1313,60.0,120,120,1.0,0.0
1314,56.0,120,120,1.0,0.0
1315,53.0,0,120,1.0,0.0
1316,60.0,120,120,1.0,0.0
1317,84.0,0,120,0.0,0.0
1318,56.0,120,120,1.0,0.0
1319,53.0,0,120,1.0,0.0
1320,60.0,120,120,1.0,0.0
1321,56.0,120,120,1.0,0.0
1322,53.0,0,120,1.0,0.0
1323,80.0,120,240,0.0,0.0
1324,60.0,0,120,1.0,0.0
1325,56.0,0,120,1.0,0.0
1326,53.0,120,120,1.0,0.0
1327,60.0,120,120,1.0,0.0
1328,53.0,0,120,1.0,0.0
1329,56.0,120,120,1.0,0.0
1330,77.0,120,240,0.0,0.0
1331,60.0,0,120,1.0,0.0
1332,56.0,120,120,1.0,0.0
1333,53.0,0,120,1.0,0.0
1334,60.0,120,120,1.0,0.0
1335,72.0,120,240,0.0,0.0
1336,53.0,0,120,1.0,0.0
1337,56.0,120,120,1.0,0.0
1338,60.0,0,120,1.0,0.0
1339,56.0,0,120,1.0,0.0
1340,53.0,120,120,1.0,0.0
1341,60.0,120,120,1.0,0.0
1342,53.0,120,120,1.0,0.0
1343,56.0,0,120,1.0,0.0
1344,72.0,0,240,0.0,0.0
1345,60.0,120,120,1.0,0.0
1346,53.0,120,120,1.0,0.0
1347,56.0,0,120,1.0,0.0
1348,60.0,120,120,1.0,0.0
1349,56.0,0,120,1.0,0.0
1350,68.0,120,240,0.0,0.0
1351,53.0,120,120,1.0,0.0
1352,60.0,0,120,1.0,0.0
1353,56.0,120,120,1.0,0.0
1354,53.0,0,120,1.0,0.0
1355,60.0,120,120,1.0,0.0
1356,56.0,120,120,1.0,0.0
1357,53.0,0,120,1.0,0.0
1358,65.0,7,240,0.0,0.0
1359,60.0,0,120,1.0,0.0
1360,53.0,120,120,1.0,0.0
1361,56.0,0,120,1.0,0.0
1362,60.0,120,120,1.0,0.0
1363,36.0,0,3960,3.0,0.0
1364,41.0,105,3930,3.0,0.0
1365,44.0,0,3870,3.0,0.0
1366,48.0,8,3840,3.0,0.0
1367,56.0,0,120,1.0,0.0
1368,59.0,0,120,1.0,0.0
1369,53.0,120,120,1.0,0.0
1370,62.0,120,120,1.0,0.0
1371,53.0,120,120,1.0,0.0
1372,56.0,0,120,1.0,0.0
1373,59.0,0,120,1.0,0.0
1374,62.0,120,120,1.0,0.0
1375,59.0,120,120,1.0,0.0
1376,53.0,0,120,1.0,0.0
1377,56.0,0,120,1.0,0.0
1378,62.0,120,120,1.0,0.0
1379,89.0,0,120,0.0,0.0
1380,56.0,0,120,1.0,0.0
1381,59.0,0,120,1.0,0.0
1382,53.0,120,120,1.0,0.0
1383,62.0,120,120,1.0,0.0
1384,56.0,120,120,1.0,0.0
1385,59.0,0,120,1.0,0.0
1386,53.0,0,120,1.0,0.0
1387,86.0,120,240,0.0,0.0
1388,62.0,0,120,1.0,0.0
1389,59.0,0,120,1.0,0.0
1390,53.0,120,120,1.0,0.0
1391,56.0,0,120,1.0,0.0
1392,62.0,120,120,1.0,0.0
1393,83.0,0,240,0.0,0.0
1394,59.0,0,120,1.0,0.0
1395,56.0,0,120,1.0,0.0
1396,53.0,120,120,1.0,0.0
1397,62.0,120,120,1.0,0.0
1398,56.0,120,120,1.0,0.0
1399,59.0,0,120,1.0,0.0
1400,53.0,0,120,1.0,0.0
1401,62.0,120,120,1.0,0.0
1402,56.0,120,120,1.0,0.0
1403,59.0,0,120,1.0,0.0
1404,53.0,0,120,1.0,0.0
1405,80.0,120,240,0.0,0.0
1406,62.0,0,120,1.0,0.0
1407,53.0,120,120,1.0,0.0
1408,56.0,0,120,1.0,0.0
1409,59.0,0,120,1.0,0.0
1410,62.0,120,120,1.0,0.0
1411,77.0,0,240,0.0,0.0
1412,59.0,120,120,1.0,0.0
1413,56.0,0,120,1.0,0.0
1414,53.0,0,120,1.0,0.0
1415,62.0,120,120,1.0,0.0
1416,53.0,0,120,1.0,0.0
1417,56.0,120,120,1.0,0.0
1418,59.0,0,120,1.0,0.0
1419,62.0,120,120,1.0,0.0
1420,74.0,0,240,0.0,0.0
1421,56.0,0,120,1.0,0.0
1422,53.0,120,120,1.0,0.0
1423,59.0,0,120,1.0,0.0
1424,62.0,120,120,1.0,0.0
1425,59.0,0,120,1.0,0.0
1426,56.0,0,120,1.0,0.0
1427,53.0,120,120,1.0,0.0
1428,62.0,120,120,1.0,0.0
1429,59.0,0,120,1.0,0.0
1430,71.0,0,240,0.0,0.0
1431,53.0,0,120,1.0,0.0
1432,56.0,120,120,1.0,0.0
1433,62.0,120,120,1.0,0.0
1434,53.0,0,120,1.0,0.0
1435,59.0,120,120,1.0,0.0
1436,56.0,0,120,1.0,0.0
1437,62.0,7,120,1.0,0.0
1438,52.0,0,120,1.0,0.0
1439,55.0,120,120,1.0,0.0
1440,72.0,120,240,0.0,0.0
1441,60.0,0,120,1.0,0.0
1442,52.0,0,120,1.0,0.0
1443,55.0,120,120,1.0,0.0
1444,60.0,120,120,1.0,0.0
1445,55.0,0,120,1.0,0.0
1446,48.0,120,240,3.0,0.0
1447,52.0,120,120,1.0,0.0
1448,60.0,0,120,1.0,0.0
1449,52.0,0,120,1.0,0.0
1450,55.0,120,120,1.0,0.0
1451,60.0,120,120,1.0,0.0
1452,55.0,120,120,1.0,0.0
1453,52.0,0,120,1.0,0.0
1454,43.0,120,240,3.0,0.0
1455,60.0,0,120,1.0,0.0
1456,55.0,0,120,1.0,0.0
1457,52.0,120,120,1.0,0.0
1458,60.0,120,120,1.0,0.0
1459,55.0,120,120,1.0,0.0
1460,40.0,0,240,3.0,0.0
1461,52.0,0,120,1.0,0.0
1462,60.0,120,120,1.0,0.0
1463,55.0,120,120,1.0,0.0
1464,52.0,0,120,1.0,0.0
1465,60.0,288,120,1.0,0.0
1466,48.0,0,300,2.0,0.0
1467,55.0,0,300,2.0,0.0
1468,52.0,0,300,2.0,0.0
1469,36.0,960,300,3.0,0.0
1470,60.0,0,300,0.0,0.0
1471,48.0,1152,300,2.0,0.0
1472,43.0,0,300,2.0,0.0
1473,55.0,0,300,2.0,0.0
1474,52.0,0,300,2.0,0.0
1475,36.0,0,300,3.0,0.0
1476,60.0,0,300,0.0,0.0
1477,52.0,0,480,2.0,0.0
1478,60.0,0,480,0.0,0.0
1479,48.0,320,480,2.0,0.0
1480,43.0,0,480,2.0,0.0
1481,55.0,0,480,2.0,0.0
1482,36.0,0,480,3.0,0.0
1483,53.0,80,90,0.0,0.0
1484,57.0,80,90,0.0,0.0
1485,60.0,120,90,0.0,0.0
1486,65.0,240,120,0.0,0.0
1487,45.0,0,480,3.0,0.0
1488,53.0,120,480,3.0,0.0
1489,48.0,0,480,3.0,0.0
1490,41.0,0,480,3.0,0.0
1491,67.0,120,120,0.0,0.0
1492,69.0,240,120,0.0,0.0
1493,70.0,240,120,0.0,0.0
1494,72.0,240,120,0.0,0.0
1495,74.0,240,120,0.0,0.0
1496,76.0,240,120,0.0,0.0
1497,77.0,600,120,0.0,0.0
1498,72.0,240,720,0.0,0.0
1499,48.0,0,240,3.0,0.0
1500,64.0,240,240,1.0,0.0
1501,65.0,0,240,1.0,0.0
1502,50.0,0,240,3.0,0.0
1503,70.0,0,240,0.0,0.0
1504,52.0,120,240,3.0,0.0
1505,67.0,0,240,1.0,0.0
1506,60.0,240,240,1.0,0.0
1507,69.0,0,240,0.0,0.0
1508,53.0,120,120,3.0,0.0
1509,41.0,240,240,3.0,0.0
1510,45.0,240,240,3.0,0.0
1511,46.0,480,240,3.0,0.0
1512,48.0,240,720,3.0,0.0
1513,52.0,0,240,1.0,0.0
1514,60.0,240,240,0.0,0.0
1515,53.0,0,240,1.0,0.0
1516,62.0,0,240,0.0,0.0
1517,64.0,0,240,0.0,0.0
1518,55.0,240,240,1.0,0.0
1519,46.0,0,240,3.0,0.0
1520,57.0,0,240,1.0,0.0
1521,65.0,0,240,0.0,0.0
1522,45.0,240,240,3.0,0.0
1523,48.0,240,240,3.0,0.0
1524,60.0,0,240,0.0,0.0
1525,45.0,0,240,3.0,0.0
1526,65.0,240,240,0.0,0.0
1527,69.0,0,240,0.0,0.0
1528,41.0,240,240,3.0,0.0
1529,72.0,0,720,0.0,0.0
1530,40.0,0,240,3.0,0.0
1531,67.0,240,240,1.0,0.0
1532,64.0,0,240,1.0,0.0
1533,36.0,240,240,3.0,0.0
1534,65.0,0,240,1.0,0.0
1535,38.0,240,240,3.0,0.0
1536,67.0,120,240,1.0,0.0
1537,70.0,0,240,0.0,0.0
1538,40.0,0,240,3.0,0.0
1539,41.0,0,120,3.0,0.0
1540,69.0,360,120,0.0,0.0
1541,60.0,0,120,1.0,0.0
1542,45.0,120,240,3.0,0.0
1543,47.0,240,120,3.0,0.0
1544,59.0,0,120,1.0,0.0
1545,62.0,0,120,1.0,0.0
1546,67.0,0,120,0.0,0.0
1547,43.0,240,120,3.0,0.0
1548,60.0,0,120,1.0,0.0
1549,57.0,0,120,1.0,0.0
1550,48.0,0,120,3.0,0.0
1551,65.0,240,120,0.0,0.0
1552,47.0,240,120,3.0,0.0
1553,58.0,0,120,1.0,0.0
1554,55.0,200,120,1.0,0.0
1555,48.0,0,120,3.0,0.0
1556,64.0,0,120,0.0,0.0
1557,41.0,80,90,3.0,0.0
1558,45.0,80,90,3.0,0.0
1559,48.0,120,90,3.0,0.0
1560,57.0,0,480,1.0,0.0
1561,60.0,120,480,1.0,0.0
1562,65.0,0,480,0.0,0.0
1563,53.0,240,120,3.0,0.0
1564,55.0,120,120,3.0,0.0
1565,57.0,240,120,3.0,0.0
1566,58.0,240,120,3.0,0.0
1567,60.0,240,120,3.0,0.0
1568,62.0,240,120,3.0,0.0
1569,64.0,240,120,3.0,0.0
1570,65.0,600,120,3.0,0.0
1571,64.0,240,720,3.0,0.0
1572,64.0,0,240,1.0,0.0
1573,72.0,240,240,0.0,0.0
1574,74.0,0,240,0.0,0.0
1575,65.0,0,240,1.0,0.0
1576,67.0,120,240,1.0,0.0
1577,76.0,0,240,0.0,0.0
1578,58.0,0,240,3.0,0.0
1579,77.0,0,120,0.0,0.0
1580,69.0,360,120,1.0,0.0
1581,57.0,0,120,3.0,0.0
1582,60.0,240,240,3.0,0.0
1583,72.0,0,240,0.0,0.0
1584,57.0,0,240,3.0,0.0
1585,77.0,240,240,0.0,0.0
1586,53.0,240,240,3.0,0.0
1587,81.0,0,240,0.0,0.0
1588,84.0,0,720,0.0,0.0
1589,79.0,0,240,1.0,0.0
1590,52.0,240,240,3.0,0.0
1591,76.0,240,240,1.0,0.0
1592,48.0,0,240,3.0,0.0
1593,77.0,240,240,1.0,0.0
1594,50.0,0,240,3.0,0.0
1595,82.0,0,240,0.0,0.0
1596,79.0,240,240,1.0,0.0
1597,52.0,0,240,3.0,0.0
1598,53.0,240,240,3.0,0.0
1599,81.0,0,480,0.0,0.0
1600,77.0,0,480,1.0,0.0
1601,45.0,240,240,3.0,0.0
1602,50.0,240,240,3.0,0.0
1603,53.0,480,240,3.0,0.0
1604,57.0,0,720,3.0,0.0
1605,73.0,0,240,0.0,0.0
1606,69.0,240,240,1.0,0.0
1607,74.0,240,240,0.0,0.0
1608,71.0,0,240,1.0,0.0
1609,73.0,120,240,1.0,0.0
1610,55.0,0,240,3.0,0.0
1611,76.0,0,240,0.0,0.0
1612,77.0,0,120,0.0,0.0
1613,74.0,0,120,1.0,0.0
1614,53.0,360,120,3.0,0.0
1615,69.0,240,240,0.0,0.0
1616,57.0,0,240,3.0,0.0
1617,53.0,0,240,3.0,0.0
1618,74.0,240,240,0.0,0.0
1619,50.0,0,240,3.0,0.0
1620,77.0,240,240,0.0,0.0
1621,49.0,0,240,3.0,0.0
1622,76.0,240,240,1.0,0.0
1623,81.0,0,720,0.0,0.0
1624,45.0,0,240,3.0,0.0
1625,73.0,240,240,1.0,0.0
1626,47.0,240,240,3.0,0.0
1627,74.0,0,240,1.0,0.0
1628,49.0,120,240,3.0,0.0
1629,76.0,0,240,1.0,0.0
1630,79.0,0,240,0.0,0.0
1631,69.0,0,120,1.0,0.0
1632,77.0,240,120,0.0,0.0
1633,50.0,0,120,3.0,0.0
1634,53.0,240,120,3.0,0.0
1635,55.0,0,120,3.0,0.0
1636,76.0,0,120,0.0,0.0
1637,70.0,240,120,1.0,0.0
1638,67.0,0,120,1.0,0.0
1639,52.0,240,120,3.0,0.0
1640,69.0,0,120,1.0,0.0
1641,65.0,0,120,1.0,0.0
1642,57.0,240,120,3.0,0.0
1643,74.0,0,120,0.0,0.0
1644,56.0,240,120,3.0,0.0
1645,69.0,0,120,1.0,0.0
1646,64.0,200,120,1.0,0.0
1647,73.0,0,120,0.0,0.0
1648,57.0,0,120,3.0,0.0
1649,62.0,80,90,0.0,0.0
1650,65.0,80,90,0.0,0.0
1651,69.0,120,90,0.0,0.0
1652,74.0,200,120,0.0,0.0
1653,50.0,40,90,1.0,0.0
1654,76.0,40,120,0.0,0.0
1655,53.0,80,90,1.0,0.0
1656,57.0,120,90,1.0,0.0
1657,77.0,0,120,0.0,0.0
1658,62.0,200,120,1.0,0.0
1659,79.0,0,120,0.0,0.0
1660,38.0,40,90,3.0,0.0
1661,64.0,40,120,1.0,0.0
1662,41.0,80,90,3.0,0.0
1663,45.0,120,90,3.0,0.0
1664,81.0,0,120,0.0,0.0
1665,65.0,240,120,1.0,0.0
1666,50.0,0,120,3.0,0.0
1667,52.0,0,120,3.0,0.0
1668,67.0,240,120,1.0,0.0
1669,53.0,200,120,3.0,0.0
1670,69.0,0,120,1.0,0.0
1671,67.0,80,90,0.0,0.0
1672,70.0,80,90,0.0,0.0
1673,74.0,120,90,0.0,0.0
1674,79.0,200,120,0.0,0.0
1675,81.0,40,120,0.0,0.0
1676,55.0,40,90,1.0,0.0
1677,58.0,80,90,1.0,0.0
1678,62.0,120,90,1.0,0.0
1679,67.0,200,120,1.0,0.0
1680,82.0,0,120,0.0,0.0
1681,69.0,40,120,1.0,0.0
1682,84.0,0,120,0.0,0.0
1683,43.0,40,90,3.0,0.0
1684,46.0,80,90,3.0,0.0
1685,50.0,120,90,3.0,0.0
1686,86.0,240,120,0.0,0.0
1687,55.0,0,120,3.0,0.0
1688,70.0,0,120,1.0,0.0
1689,57.0,240,120,3.0,0.0
1690,72.0,0,120,1.0,0.0
1691,74.0,200,120,1.0,0.0
1692,58.0,0,120,3.0,0.0
1693,60.0,80,90,0.0,0.0
1694,64.0,80,90,0.0,0.0
1695,67.0,120,90,0.0,0.0
1696,72.0,200,120,0.0,0.0
1697,48.0,40,90,1.0,0.0
1698,74.0,40,120,0.0,0.0
1699,52.0,80,90,1.0,0.0
1700,55.0,120,90,1.0,0.0
1701,76.0,200,120,0.0,0.0
1702,60.0,0,120,1.0,0.0
1703,77.0,40,120,0.0,0.0
1704,36.0,40,90,3.0,0.0
1705,62.0,0,120,1.0,0.0
1706,40.0,80,90,3.0,0.0
1707,43.0,120,90,3.0,0.0
1708,64.0,240,120,1.0,0.0
1709,48.0,0,120,3.0,0.0
1710,79.0,0,120,0.0,0.0
1711,65.0,240,120,1.0,0.0
1712,50.0,0,120,3.0,0.0
1713,67.0,200,120,1.0,0.0
1714,52.0,0,120,3.0,0.0
1715,65.0,80,90,0.0,0.0
1716,69.0,80,90,0.0,0.0
1717,72.0,120,90,0.0,0.0
1718,77.0,200,120,0.0,0.0
1719,53.0,40,90,1.0,0.0
1720,79.0,40,120,0.0,0.0
1721,57.0,80,90,1.0,0.0
1722,60.0,120,90,1.0,0.0
1723,65.0,200,120,1.0,0.0
1724,81.0,0,120,0.0,0.0
1725,82.0,40,120,0.0,0.0
1726,67.0,0,120,1.0,0.0
1727,41.0,40,90,3.0,0.0
1728,45.0,80,90,3.0,0.0
1729,48.0,120,90,3.0,0.0
1730,69.0,0,120,1.0,0.0
1731,84.0,240,120,0.0,0.0
1732,53.0,0,120,3.0,0.0
1733,55.0,0,120,3.0,0.0
1734,70.0,240,120,1.0,0.0
1735,72.0,240,120,1.0,0.0
1736,57.0,0,120,3.0,0.0
1737,84.0,240,120,0.0,0.0
1738,67.0,240,120,3.0,0.0
1739,70.0,0,120,1.0,0.0
1740,76.0,120,480,0.0,0.0
1741,72.0,0,120,1.0,0.0
1742,69.0,120,120,3.0,0.0
1743,70.0,0,120,3.0,0.0
1744,73.0,240,120,1.0,0.0
1745,76.0,240,120,0.0,0.0
1746,72.0,0,120,1.0,0.0
1747,69.0,240,120,3.0,0.0
1748,77.0,120,480,0.0,0.0
1749,67.0,120,120,3.0,0.0
1750,70.0,0,120,1.0,0.0
1751,69.0,0,120,1.0,0.0
1752,65.0,240,120,3.0,0.0
1753,77.0,240,120,0.0,0.0
1754,73.0,120,480,0.0,0.0
1755,64.0,0,120,3.0,0.0
1756,67.0,240,120,1.0,0.0
1757,65.0,0,120,3.0,0.0
1758,69.0,120,120,1.0,0.0
1759,67.0,200,120,3.0,0.0
1760,70.0,0,120,1.0,0.0
1761,62.0,80,90,0.0,0.0
1762,65.0,80,90,0.0,0.0
1763,69.0,120,90,0.0,0.0
1764,74.0,200,120,0.0,0.0
1765,50.0,40,90,1.0,0.0
1766,76.0,40,120,0.0,0.0
1767,53.0,80,90,1.0,0.0
1768,57.0,120,90,1.0,0.0
1769,62.0,0,120,1.0,0.0
1770,77.0,200,120,0.0,0.0
1771,79.0,0,120,0.0,0.0
1772,64.0,40,120,1.0,0.0
1773,38.0,40,90,3.0,0.0
1774,41.0,80,90,3.0,0.0
1775,45.0,120,90,3.0,0.0
1776,65.0,240,120,1.0,0.0
1777,50.0,0,120,3.0,0.0
1778,81.0,60,540,0.0,0.0
1779,67.0,0,120,1.0,0.0
1780,52.0,180,120,3.0,0.0
1781,69.0,0,120,1.0,0.0
1782,53.0,240,120,3.0,0.0
1783,81.0,240,120,0.0,0.0
1784,73.0,120,480,0.0,0.0
1785,67.0,0,120,1.0,0.0
1786,64.0,240,120,3.0,0.0
1787,69.0,0,120,1.0,0.0
1788,65.0,120,120,3.0,0.0
1789,67.0,240,120,3.0,0.0
1790,70.0,0,120,1.0,0.0
1791,73.0,240,120,0.0,0.0
1792,69.0,0,120,1.0,0.0
1793,65.0,240,120,3.0,0.0
1794,74.0,120,480,0.0,0.0
1795,67.0,120,120,1.0,0.0
1796,64.0,0,120,3.0,0.0
1797,65.0,0,120,1.0,0.0
1798,62.0,240,120,3.0,0.0
1799,74.0,240,120,0.0,0.0
1800,62.0,240,120,3.0,0.0
1801,65.0,0,120,1.0,0.0
1802,68.0,120,480,0.0,0.0
1803,64.0,0,120,1.0,0.0
1804,60.0,120,120,3.0,0.0
1805,59.0,200,120,3.0,0.0
1806,62.0,0,120,1.0,0.0
1807,57.0,80,90,0.0,0.0
1808,60.0,80,90,0.0,0.0
1809,64.0,120,90,0.0,0.0
1810,69.0,200,120,0.0,0.0
1811,45.0,40,90,1.0,0.0
1812,71.0,40,120,0.0,0.0
1813,48.0,80,90,1.0,0.0
1814,52.0,120,90,1.0,0.0
1815,57.0,0,120,1.0,0.0
1816,72.0,200,120,0.0,0.0
1817,33.0,40,90,3.0,0.0
1818,59.0,0,120,1.0,0.0
1819,74.0,40,120,0.0,0.0
1820,36.0,80,90,3.0,0.0
1821,40.0,120,90,3.0,0.0
1822,60.0,0,120,1.0,0.0
1823,45.0,240,120,3.0,0.0
1824,76.0,120,480,0.0,0.0
1825,62.0,120,120,1.0,0.0
1826,47.0,0,120,3.0,0.0
1827,64.0,0,120,1.0,0.0
1828,48.0,240,120,3.0,0.0
1829,76.0,240,120,0.0,0.0
1830,59.0,240,120,3.0,0.0
1831,68.0,120,480,0.0,0.0
1832,62.0,0,120,1.0,0.0
1833,60.0,0,120,3.0,0.0
1834,64.0,120,120,1.0,0.0
1835,62.0,240,120,3.0,0.0
1836,65.0,0,120,1.0,0.0
1837,68.0,240,120,0.0,0.0
1838,69.0,120,480,0.0,0.0
1839,60.0,0,120,3.0,0.0
1840,64.0,240,120,1.0,0.0
1841,59.0,0,120,3.0,0.0
1842,62.0,120,120,1.0,0.0
1843,60.0,0,120,1.0,0.0
1844,57.0,240,120,3.0,0.0
1845,69.0,240,120,0.0,0.0
1846,57.0,0,120,3.0,0.0
1847,60.0,240,120,1.0,0.0
1848,63.0,120,480,0.0,0.0
1849,59.0,0,120,1.0,0.0
1850,56.0,120,120,3.0,0.0
1851,57.0,0,120,1.0,0.0
1852,54.0,240,120,3.0,0.0
1853,63.0,814,120,0.0,0.0
1854,64.0,0,720,0.0,0.0
1855,56.0,54,720,1.0,0.0
1856,40.0,26,450,3.0,0.0
1857,44.0,66,450,3.0,0.0
1858,47.0,226,450,3.0,0.0
1859,52.0,480,1440,3.0,0.0
1860,64.0,0,120,1.0,0.0
1861,66.0,14,120,0.0,0.0
1862,57.0,0,120,1.0,0.0
1863,59.0,240,120,1.0,0.0
1864,68.0,0,120,0.0,0.0
1865,64.0,0,120,1.0,0.0
1866,69.0,240,120,0.0,0.0
1867,64.0,0,120,1.0,0.0
1868,60.0,0,120,1.0,0.0
1869,64.0,240,120,1.0,0.0
1870,62.0,0,120,1.0,0.0
1871,71.0,0,120,0.0,0.0
1872,68.0,120,120,0.0,0.0
1873,59.0,0,120,1.0,0.0
1874,64.0,0,120,1.0,0.0
1875,60.0,0,480,1.0,0.0
1876,64.0,0,480,1.0,0.0
1877,69.0,214,480,0.0,0.0
1878,40.0,80,450,3.0,0.0
1879,45.0,66,450,3.0,0.0
1880,48.0,226,450,3.0,0.0
1881,52.0,480,1440,3.0,0.0
1882,64.0,0,120,1.0,0.0
1883,72.0,14,120,0.0,0.0
1884,62.0,0,120,1.0,0.0
1885,64.0,240,120,1.0,0.0
1886,71.0,0,120,0.0,0.0
1887,69.0,0,120,0.0,0.0
1888,64.0,240,120,1.0,0.0
1889,60.0,0,120,1.0,0.0
1890,59.0,240,120,1.0,0.0
1891,68.0,0,120,0.0,0.0
1892,64.0,0,120,1.0,0.0
1893,66.0,0,120,0.0,0.0
1894,57.0,0,120,1.0,0.0
1895,64.0,120,120,1.0,0.0
1896,56.0,214,480,1.0,0.0
1897,64.0,0,480,0.0,0.0
1898,40.0,80,450,3.0,0.0
1899,44.0,66,450,3.0,0.0
1900,47.0,226,450,3.0,0.0
1901,52.0,480,1440,3.0,0.0
1902,64.0,0,120,1.0,0.0
1903,57.0,0,120,1.0,0.0
1904,66.0,14,120,0.0,0.0
1905,59.0,0,120,1.0,0.0
1906,68.0,240,120,0.0,0.0
1907,64.0,0,120,1.0,0.0
1908,64.0,240,120,1.0,0.0
1909,60.0,0,120,1.0,0.0
1910,69.0,0,120,0.0,0.0
1911,71.0,240,120,0.0,0.0
1912,62.0,0,120,1.0,0.0
1913,64.0,0,120,1.0,0.0
1914,59.0,0,120,1.0,0.0
1915,64.0,0,120,1.0,0.0
1916,68.0,120,120,0.0,0.0
1917,69.0,214,480,0.0,0.0
1918,64.0,0,480,1.0,0.0
1919,60.0,0,480,1.0,0.0
1920,40.0,80,450,3.0,0.0
1921,45.0,66,450,3.0,0.0
1922,48.0,226,450,3.0,0.0
1923,52.0,360,1440,3.0,0.0
1924,72.0,14,120,0.0,0.0
1925,64.0,0,120,1.0,0.0
1926,62.0,0,120,1.0,0.0
1927,64.0,240,120,1.0,0.0
1928,71.0,0,120,0.0,0.0
1929,69.0,240,120,0.0,0.0
1930,60.0,0,120,1.0,0.0
1931,64.0,0,120,1.0,0.0
1932,59.0,0,120,1.0,0.0
1933,64.0,0,120,1.0,0.0
1934,68.0,240,120,0.0,0.0
1935,66.0,0,120,0.0,0.0
1936,57.0,0,120,1.0,0.0
1937,64.0,120,120,1.0,0.0
1938,59.0,0,960,1.0,0.0
1939,64.0,360,1920,0.0,0.0
1940,56.0,120,960,1.0,0.0
1941,40.0,240,120,3.0,0.0
1942,44.0,240,120,3.0,0.0
1943,47.0,120,120,3.0,0.0
1944,49.0,240,120,3.0,0.0
1945,51.0,240,120,3.0,0.0
1946,52.0,240,120,3.0,0.0
1947,40.0,120,120,3.0,0.0
1948,69.0,0,1920,0.0,0.0
1949,60.0,0,1920,1.0,0.0
1950,57.0,360,1920,1.0,0.0
1951,66.0,0,1920,1.0,0.0
1952,42.0,240,120,3.0,0.0
1953,45.0,240,120,3.0,0.0
1954,49.0,240,120,3.0,0.0
1955,50.0,240,120,3.0,0.0
1956,52.0,240,120,3.0,0.0
1957,54.0,240,120,3.0,0.0
1958,42.0,120,120,3.0,0.0
1959,68.0,0,1920,1.0,0.0
1960,62.0,120,1920,1.0,0.0
1961,64.0,0,1920,1.0,0.0
1962,74.0,0,1920,0.0,0.0
1963,71.0,0,1920,1.0,0.0
1964,44.0,240,120,3.0,0.0
1965,47.0,240,120,3.0,0.0
1966,51.0,240,120,3.0,0.0
1967,52.0,240,120,3.0,0.0
1968,54.0,240,120,3.0,0.0
1969,56.0,240,120,3.0,0.0
1970,57.0,120,120,3.0,0.0
1971,59.0,240,120,3.0,0.0
1972,62.0,0,120,1.0,0.0
1973,64.0,0,120,1.0,0.0
1974,62.0,0,120,1.0,0.0
1975,64.0,0,120,1.0,0.0
1976,57.0,240,120,3.0,0.0
1977,56.0,0,120,3.0,0.0
1978,64.0,240,120,1.0,0.0
1979,62.0,0,120,1.0,0.0
1980,54.0,240,120,3.0,0.0
1981,64.0,0,120,1.0,0.0
1982,62.0,0,120,1.0,0.0
1983,52.0,120,480,3.0,0.0
1984,74.0,0,120,0.0,0.0
1985,64.0,240,120,1.0,0.0
1986,62.0,0,120,1.0,0.0
1987,73.0,0,120,0.0,0.0
1988,64.0,0,120,1.0,0.0
1989,62.0,120,120,1.0,0.0
1990,71.0,0,120,0.0,0.0
1991,64.0,240,120,1.0,0.0
1992,62.0,0,120,1.0,0.0
1993,62.0,0,120,1.0,0.0
1994,69.0,0,120,0.0,0.0
1995,64.0,240,120,1.0,0.0
1996,68.0,120,480,0.0,0.0
1997,64.0,0,120,1.0,0.0
1998,62.0,0,120,1.0,0.0
1999,52.0,240,120,3.0,0.0
2000,54.0,120,120,3.0,0.0
2001,62.0,0,120,1.0,0.0
2002,64.0,0,120,1.0,0.0
2003,62.0,0,120,1.0,0.0
2004,56.0,0,120,3.0,0.0
2005,64.0,240,120,1.0,0.0
2006,57.0,240,120,3.0,0.0
2007,62.0,0,120,1.0,0.0
2008,64.0,0,120,1.0,0.0
2009,62.0,0,120,1.0,0.0
2010,59.0,120,480,3.0,0.0
2011,68.0,240,120,0.0,0.0
2012,64.0,0,120,1.0,0.0
2013,62.0,0,120,1.0,0.0
2014,64.0,120,120,1.0,0.0
2015,69.0,0,120,0.0,0.0
2016,71.0,0,120,0.0,0.0
2017,64.0,240,120,1.0,0.0
2018,62.0,0,120,1.0,0.0
2019,62.0,360,120,1.0,0.0
2020,73.0,0,120,0.0,0.0
2021,64.0,0,120,1.0,0.0
2022,74.0,0,240,0.0,0.0
2023,62.0,960,240,1.0,0.0
2024,64.0,0,240,1.0,0.0
2025,56.0,0,240,2.0,0.0
2026,52.0,0,240,3.0,0.0
2027,54.0,0,240,3.0,0.0
2028,69.0,0,240,1.0,0.0
2029,61.0,0,240,1.0,0.0
2030,73.0,0,240,0.0,0.0
2031,57.0,960,240,2.0,0.0
2032,78.0,0,240,0.0,0.0
2033,69.0,0,240,1.0,0.0
2034,66.0,0,240,1.0,0.0
2035,50.0,0,240,3.0,0.0
2036,59.0,960,240,2.0,0.0
2037,59.0,1560,240,2.0,0.0
2038,68.0,0,240,0.0,0.0
2039,62.0,0,240,1.0,0.0
2040,52.0,0,240,3.0,0.0
2041,57.0,360,120,3.0,0.0
2042,69.0,0,120,0.0,0.0
2043,81.0,0,120,0.0,0.0
2044,64.0,0,240,0.0,0.0
2045,76.0,0,240,0.0,0.0
2046,52.0,540,240,3.0,0.0
2047,64.0,60,60,0.0,0.0
2048,52.0,0,60,3.0,0.0
2049,50.0,0,60,3.0,0.0
2050,62.0,60,60,0.0,0.0
2051,61.0,60,60,0.0,0.0
2052,49.0,0,60,3.0,0.0
2053,59.0,0,60,0.0,0.0
2054,47.0,240,60,3.0,0.0
2055,45.0,600,240,3.0,0.0
2056,57.0,0,240,0.0,0.0
2057,69.0,0,120,0.0,0.0
2058,81.0,0,120,0.0,0.0
2059,57.0,360,120,3.0,0.0
2060,78.0,0,240,0.0,0.0
2061,66.0,0,240,0.0,0.0
2062,54.0,540,240,3.0,0.0
2063,66.0,0,60,0.0,0.0
2064,54.0,60,60,3.0,0.0
2065,52.0,60,60,3.0,0.0
2066,64.0,0,60,0.0,0.0
2067,62.0,0,60,0.0,0.0
2068,50.0,60,60,3.0,0.0
2069,61.0,240,60,0.0,0.0
2070,49.0,0,60,3.0,0.0
2071,59.0,600,240,0.0,0.0
2072,47.0,0,240,3.0,0.0
2073,62.0,360,120,3.0,0.0
2074,74.0,0,120,0.0,0.0
2075,86.0,0,120,0.0,0.0
2076,59.0,0,240,3.0,0.0
2077,83.0,480,240,0.0,0.0
2078,71.0,0,240,0.0,0.0
2079,68.0,0,240,0.0,0.0
2080,80.0,0,240,0.0,0.0
2081,56.0,480,240,3.0,0.0
2082,76.0,0,240,0.0,0.0
2083,64.0,480,240,0.0,0.0
2084,52.0,0,240,3.0,0.0
2085,50.0,480,240,3.0,0.0
2086,74.0,0,240,0.0,0.0
2087,62.0,0,240,0.0,0.0
2088,59.0,0,240,0.0,0.0
2089,47.0,480,240,3.0,0.0
2090,71.0,0,240,0.0,0.0
2091,68.0,0,240,0.0,0.0
2092,44.0,480,240,3.0,0.0
2093,56.0,0,240,0.0,0.0
2094,64.0,0,240,0.0,0.0
2095,40.0,400,240,3.0,0.0
2096,52.0,0,240,0.0,0.0
2097,57.0,80,90,0.0,0.0
2098,61.0,80,90,0.0,0.0
2099,64.0,300,90,0.0,0.0
2100,45.0,195,360,3.0,0.0
2101,49.0,35,300,3.0,0.0
2102,52.0,5,240,3.0,0.0
2103,57.0,15,180,3.0,0.0
2104,69.0,5,150,0.0,0.0
2105,71.0,240,150,0.0,0.0
2106,73.0,240,150,0.0,0.0
2107,74.0,240,150,0.0,0.0
2108,76.0,240,150,0.0,0.0
2109,78.0,240,150,0.0,0.0
2110,80.0,240,150,0.0,0.0
2111,81.0,565,150,0.0,0.0
2112,76.0,240,720,0.0,0.0
2113,68.0,0,240,1.0,0.0
2114,52.0,240,240,3.0,0.0
2115,69.0,0,240,1.0,0.0
2116,54.0,0,240,3.0,0.0
2117,56.0,190,240,3.0,0.0
2118,71.0,0,240,1.0,0.0
2119,74.0,0,240,0.0,0.0
2120,73.0,0,180,0.0,0.0
2121,64.0,0,180,1.0,0.0
2122,57.0,290,180,3.0,0.0
2123,45.0,240,240,3.0,0.0
2124,49.0,240,240,3.0,0.0
2125,50.0,480,240,3.0,0.0
2126,52.0,0,720,3.0,0.0
2127,56.0,0,240,1.0,0.0
2128,64.0,240,240,0.0,0.0
2129,57.0,0,240,1.0,0.0
2130,66.0,240,240,0.0,0.0
2131,50.0,0,240,3.0,0.0
2132,59.0,0,240,1.0,0.0
2133,68.0,190,240,0.0,0.0
2134,49.0,240,240,3.0,0.0
2135,69.0,0,180,0.0,0.0
2136,61.0,50,180,1.0,0.0
2137,64.0,240,240,0.0,0.0
2138,52.0,0,240,3.0,0.0
2139,69.0,240,240,0.0,0.0
2140,49.0,0,240,3.0,0.0
2141,45.0,0,240,3.0,0.0
2142,73.0,190,240,0.0,0.0
2143,71.0,50,180,1.0,0.0
2144,44.0,190,240,3.0,0.0
2145,76.0,0,720,0.0,0.0
2146,68.0,50,180,1.0,0.0
2147,40.0,190,240,3.0,0.0
2148,42.0,190,240,3.0,0.0
2149,69.0,50,180,1.0,0.0
2150,74.0,240,240,0.0,0.0
2151,71.0,50,180,1.0,0.0
2152,44.0,0,240,3.0,0.0
2153,45.0,0,240,3.0,0.0
2154,73.0,240,240,0.0,0.0
2155,64.0,145,570,1.0,0.0
2156,71.0,95,240,0.0,0.0
2157,44.0,0,240,3.0,0.0
2158,69.0,0,240,0.0,0.0
2159,42.0,190,240,3.0,0.0
2160,71.0,190,240,0.0,0.0
2161,47.0,0,240,3.0,0.0
2162,63.0,50,180,1.0,0.0
2163,59.0,95,390,1.0,0.0
2164,52.0,145,240,3.0,0.0
2165,40.0,0,960,3.0,0.0
2166,68.0,50,180,0.0,0.0
2167,47.0,240,240,3.0,0.0
2168,64.0,0,240,0.0,0.0
2169,68.0,145,240,0.0,0.0
2170,54.0,0,240,3.0,0.0
2171,57.0,95,390,1.0,0.0
2172,71.0,190,240,0.0,0.0
2173,47.0,0,240,3.0,0.0
2174,52.0,145,240,3.0,0.0
2175,40.0,0,960,3.0,0.0
2176,68.0,50,180,0.0,0.0
2177,59.0,95,390,1.0,0.0
2178,47.0,240,240,3.0,0.0
2179,64.0,0,240,0.0,0.0
2180,68.0,0,240,0.0,0.0
2181,57.0,0,390,1.0,0.0
2182,63.0,95,390,1.0,0.0
2183,54.0,145,240,3.0,0.0
2184,47.0,388,240,3.0,0.0
2185,71.0,0,240,0.0,0.0
2186,64.0,0,480,1.0,0.0
2187,59.0,960,480,1.0,0.0
2188,68.0,23,390,0.0,0.0
2189,52.0,69,420,3.0,0.0
2190,40.0,0,420,3.0,0.0
2191,64.0,240,240,0.0,0.0
2192,55.0,0,480,1.0,0.0
2193,60.0,0,480,1.0,0.0
2194,67.0,240,240,0.0,0.0
2195,52.0,0,240,3.0,0.0
2196,40.0,0,480,3.0,0.0
2197,45.0,240,240,3.0,0.0
2198,69.0,0,240,0.0,0.0
2199,66.0,240,240,0.0,0.0
2200,57.0,0,480,1.0,0.0
2201,50.0,0,240,3.0,0.0
2202,45.0,240,240,3.0,0.0
2203,62.0,0,240,0.0,0.0
2204,55.0,0,480,1.0,0.0
2205,60.0,240,480,1.0,0.0
2206,52.0,240,240,3.0,0.0
2207,67.0,0,240,0.0,0.0
2208,69.0,0,240,0.0,0.0
2209,45.0,0,240,3.0,0.0
2210,66.0,240,240,0.0,0.0
2211,38.0,0,15,3.0,0.0
2212,50.0,0,240,3.0,0.0
2213,57.0,0,480,1.0,0.0
2214,45.0,240,240,3.0,0.0
2215,62.0,0,240,0.0,0.0
2216,67.0,0,240,0.0,0.0
2217,52.0,240,240,3.0,0.0
2218,55.0,0,480,1.0,0.0
2219,60.0,0,480,1.0,0.0
2220,45.0,388,240,3.0,0.0
2221,69.0,0,240,0.0,0.0
2222,50.0,23,390,3.0,0.0
2223,66.0,69,420,0.0,0.0
2224,62.0,0,480,1.0,0.0
2225,38.0,0,15,3.0,0.0
2226,57.0,960,480,1.0,0.0
2227,69.0,240,240,0.0,0.0
2228,62.0,0,480,1.0,0.0
2229,68.0,0,480,1.0,0.0
2230,74.0,0,240,0.0,0.0
2231,47.0,240,480,3.0,0.0
2232,59.0,240,240,3.0,0.0
2233,76.0,0,240,0.0,0.0
2234,52.0,0,240,3.0,0.0
2235,73.0,0,240,0.0,0.0
2236,45.0,0,480,3.0,0.0
2237,57.0,240,240,3.0,0.0
2238,64.0,0,480,1.0,0.0
2239,52.0,0,240,3.0,0.0
2240,69.0,240,240,0.0,0.0
2241,68.0,0,480,1.0,0.0
2242,62.0,0,480,1.0,0.0
2243,74.0,0,240,0.0,0.0
2244,59.0,240,240,3.0,0.0
2245,47.0,0,480,3.0,0.0
2246,76.0,240,240,0.0,0.0
2247,52.0,0,240,3.0,0.0
2248,64.0,0,480,1.0,0.0
2249,45.0,0,480,3.0,0.0
2250,57.0,240,240,3.0,0.0
2251,73.0,0,240,0.0,0.0
2252,69.0,240,240,0.0,0.0
2253,52.0,0,240,3.0,0.0
2254,59.0,0,240,3.0,0.0
2255,68.0,0,480,1.0,0.0
2256,62.0,0,480,1.0,0.0
2257,74.0,240,240,0.0,0.0
2258,47.0,80,480,3.0,0.0
2259,76.0,0,240,0.0,0.0
2260,52.0,0,240,3.0,0.0
2261,73.0,0,240,1.0,0.0
2262,81.0,0,240,0.0,0.0
2263,76.0,80,240,1.0,0.0
2264,45.0,80,90,3.0,0.0
2265,49.0,80,90,3.0,0.0
2266,50.0,0,90,3.0,0.0
2267,52.0,80,90,3.0,0.0
2268,54.0,80,90,3.0,0.0
2269,56.0,80,90,3.0,0.0
2270,57.0,80,90,3.0,0.0
2271,61.0,80,90,3.0,0.0
2272,62.0,80,90,3.0,0.0
2273,64.0,80,90,3.0,0.0
2274,66.0,80,90,3.0,0.0
2275,68.0,120,90,3.0,0.0
2276,69.0,240,120,3.0,0.0
2277,68.0,240,120,3.0,0.0
2278,66.0,240,120,3.0,0.0
2279,64.0,200,120,3.0,0.0
2280,64.0,40,90,0.0,0.0
2281,62.0,40,120,3.0,0.0
2282,68.0,80,90,0.0,0.0
2283,69.0,80,90,0.0,0.0
2284,71.0,40,90,0.0,0.0
2285,61.0,40,120,3.0,0.0
2286,73.0,80,90,0.0,0.0
2287,74.0,80,90,0.0,0.0
2288,76.0,40,90,0.0,0.0
2289,59.0,40,120,3.0,0.0
2290,80.0,80,90,0.0,0.0
2291,81.0,80,90,0.0,0.0
2292,83.0,40,90,0.0,0.0
2293,57.0,40,120,3.0,0.0
2294,85.0,80,90,0.0,0.0
2295,86.0,120,90,0.0,0.0
2296,56.0,35,120,3.0,0.0
2297,88.0,205,150,0.0,0.0
2298,52.0,35,120,3.0,0.0
2299,86.0,205,150,0.0,0.0
2300,85.0,205,150,0.0,0.0
2301,54.0,35,120,3.0,0.0
2302,56.0,35,120,3.0,0.0
2303,83.0,165,150,0.0,0.0
2304,81.0,0,480,0.0,0.0
2305,45.0,80,90,3.0,0.0
2306,49.0,80,90,3.0,0.0
2307,50.0,80,90,3.0,0.0
2308,52.0,80,90,3.0,0.0
2309,54.0,80,90,3.0,0.0
2310,56.0,80,90,3.0,0.0
2311,57.0,80,90,3.0,0.0
2312,61.0,80,90,3.0,0.0
2313,62.0,80,90,3.0,0.0
2314,64.0,80,90,3.0,0.0
2315,66.0,80,90,3.0,0.0
2316,68.0,155,90,3.0,0.0
2317,69.0,240,150,3.0,0.0
2318,68.0,240,150,3.0,0.0
2319,66.0,240,150,3.0,0.0
2320,64.0,165,150,3.0,0.0
2321,64.0,75,90,0.0,0.0
2322,62.0,5,150,3.0,0.0
2323,68.0,80,90,0.0,0.0
2324,69.0,80,90,0.0,0.0
2325,71.0,75,90,0.0,0.0
2326,61.0,5,150,3.0,0.0
2327,73.0,80,90,0.0,0.0
2328,74.0,80,90,0.0,0.0
2329,59.0,5,150,3.0,0.0
2330,76.0,75,90,0.0,0.0
2331,80.0,80,90,0.0,0.0
2332,81.0,80,90,0.0,0.0
2333,83.0,75,90,0.0,0.0
2334,57.0,5,150,3.0,0.0
2335,85.0,83,90,0.0,0.0
2336,86.0,152,90,0.0,0.0
2337,56.0,240,150,3.0,0.0
2338,88.0,0,150,0.0,0.0
2339,86.0,0,150,0.0,0.0
2340,54.0,240,150,3.0,0.0
2341,85.0,240,150,0.0,0.0
2342,52.0,0,150,3.0,0.0
2343,50.0,240,150,3.0,0.0
2344,83.0,0,150,0.0,0.0
2345,81.0,0,150,0.0,0.0
2346,49.0,240,150,3.0,0.0
2347,79.0,240,150,0.0,0.0
2348,47.0,0,150,3.0,0.0
2349,45.0,0,150,3.0,0.0
2350,78.0,240,150,0.0,0.0
2351,44.0,240,150,3.0,0.0
2352,76.0,0,150,0.0,0.0
2353,42.0,85,150,3.0,0.0
2354,75.0,155,240,0.0,0.0
2355,73.0,0,150,0.0,0.0
2356,40.0,240,150,3.0,0.0
2357,71.0,240,150,0.0,0.0
2358,39.0,0,150,3.0,0.0
2359,69.0,0,150,0.0,0.0
2360,35.0,565,150,3.0,0.0
2361,68.0,0,480,0.0,0.0
2362,40.0,350,3960,3.0,0.0
2363,66.0,240,240,1.0,0.0
2364,68.0,0,480,0.0,0.0
2365,64.0,240,240,1.0,0.0
2366,62.0,240,240,1.0,0.0
2367,69.0,240,480,0.0,0.0
2368,61.0,240,240,1.0,0.0
2369,59.0,0,240,1.0,0.0
2370,57.0,240,240,1.0,0.0
2371,63.0,0,480,0.0,0.0
2372,59.0,240,240,1.0,0.0
2373,64.0,0,480,0.0,0.0
2374,56.0,240,240,1.0,0.0
2375,54.0,240,240,1.0,0.0
2376,56.0,0,480,0.0,0.0
2377,52.0,240,240,1.0,0.0
2378,50.0,240,240,1.0,0.0
2379,57.0,240,480,0.0,0.0
2380,49.0,240,240,1.0,0.0
2381,47.0,0,240,1.0,0.0
2382,45.0,240,240,1.0,0.0
2383,51.0,0,480,0.0,0.0
2384,47.0,130,240,1.0,0.0
2385,44.0,240,480,1.0,0.0
2386,52.0,0,480,0.0,0.0
2387,44.0,0,240,0.0,0.0
2388,47.0,240,240,0.0,0.0
2389,51.0,240,240,0.0,0.0
2390,52.0,240,240,0.0,0.0
2391,56.0,240,240,0.0,0.0
2392,59.0,240,240,0.0,0.0
2393,63.0,240,240,0.0,0.0
2394,64.0,240,240,0.0,0.0
2395,63.0,190,240,0.0,0.0
2396,64.0,290,180,0.0,0.0
2397,64.0,240,240,0.0,0.0
2398,65.0,240,240,0.0,0.0
2399,64.0,240,240,0.0,0.0
2400,71.0,190,240,0.0,0.0
2401,68.0,290,180,0.0,0.0
2402,62.0,240,240,0.0,0.0
2403,61.0,190,240,0.0,0.0
2404,62.0,290,180,0.0,0.0
2405,64.0,240,240,0.0,0.0
2406,65.0,240,240,0.0,0.0
2407,64.0,240,240,0.0,0.0
2408,71.0,190,240,0.0,0.0
2409,68.0,290,180,0.0,0.0
2410,60.0,240,240,0.0,0.0
2411,59.0,190,240,0.0,0.0
2412,60.0,290,180,0.0,0.0
2413,64.0,240,240,0.0,0.0
2414,65.0,240,240,0.0,0.0
2415,64.0,240,240,0.0,0.0
2416,72.0,190,240,0.0,0.0
2417,69.0,1250,180,0.0,0.0
2418,56.0,0,3840,3.0,0.0
2419,59.0,0,3600,3.0,0.0
2420,62.0,30,2850,3.0,0.0
2421,64.0,5,2100,3.0,0.0
2422,68.0,240,240,0.0,0.0
2423,65.0,40,1890,3.0,0.0
2424,71.0,240,240,0.0,0.0
2425,74.0,240,240,0.0,0.0
2426,76.0,240,240,0.0,0.0
2427,77.0,240,240,0.0,0.0
2428,76.0,240,240,0.0,0.0
2429,79.0,195,240,0.0,0.0
2430,77.0,240,240,0.0,0.0
2431,64.0,240,480,3.0,0.0
2432,76.0,210,240,0.0,0.0
2433,74.0,0,240,0.0,0.0
2434,72.0,240,240,0.0,0.0
2435,62.0,0,480,3.0,0.0
2436,71.0,120,240,0.0,0.0
2437,57.0,120,240,3.0,0.0
2438,69.0,0,480,0.0,0.0
2439,60.0,120,120,3.0,0.0
2440,64.0,0,120,3.0,0.0
2441,60.0,120,120,3.0,0.0
2442,57.0,0,240,3.0,0.0
2443,64.0,120,120,3.0,0.0
2444,60.0,120,120,3.0,0.0
2445,64.0,0,120,3.0,0.0
2446,60.0,120,120,3.0,0.0
2447,57.0,120,15,3.0,0.0
2448,81.0,0,240,0.0,0.0
2449,64.0,120,120,3.0,0.0
2450,60.0,120,120,3.0,0.0
2451,80.0,0,240,0.0,0.0
2452,64.0,0,120,3.0,0.0
2453,81.0,0,240,0.0,0.0
2454,57.0,120,15,3.0,0.0
2455,60.0,120,120,3.0,0.0
2456,64.0,0,120,3.0,0.0
2457,60.0,120,120,3.0,0.0
2458,84.0,120,240,0.0,0.0
2459,64.0,0,120,3.0,0.0
2460,57.0,0,15,3.0,0.0
2461,60.0,105,120,3.0,0.0
2462,81.0,15,240,0.0,0.0
2463,64.0,0,120,3.0,0.0
2464,81.0,0,360,0.0,0.0
2465,59.0,120,240,3.0,0.0
2466,62.0,120,120,3.0,0.0
2467,64.0,0,120,3.0,0.0
2468,62.0,60,120,3.0,0.0
2469,59.0,120,240,3.0,0.0
2470,65.0,0,120,3.0,0.0
2471,83.0,60,60,0.0,0.0
2472,81.0,0,60,0.0,0.0
2473,80.0,120,960,0.0,0.0
2474,62.0,120,120,3.0,0.0
2475,59.0,0,240,3.0,0.0
2476,65.0,120,120,3.0,0.0
2477,62.0,120,120,3.0,0.0
2478,65.0,0,120,3.0,0.0
2479,62.0,120,120,3.0,0.0
2480,59.0,120,15,3.0,0.0
2481,65.0,0,120,3.0,0.0
2482,59.0,120,15,3.0,0.0
2483,62.0,120,120,3.0,0.0
2484,65.0,0,120,3.0,0.0
2485,62.0,120,120,3.0,0.0
2486,65.0,0,120,3.0,0.0
2487,62.0,120,120,3.0,0.0
2488,59.0,120,15,3.0,0.0
2489,65.0,0,120,3.0,0.0
2490,79.0,0,15,0.0,0.0
2491,64.0,120,120,3.0,0.0
2492,60.0,0,240,3.0,0.0
2493,65.0,120,120,3.0,0.0
2494,64.0,120,120,3.0,0.0
2495,67.0,0,120,3.0,0.0
2496,60.0,120,15,3.0,0.0
2497,64.0,90,120,3.0,0.0
2498,67.0,0,120,3.0,0.0
2499,84.0,0,240,0.0,0.0
2500,64.0,120,120,3.0,0.0
2501,60.0,0,240,3.0,0.0
2502,67.0,120,120,3.0,0.0
2503,83.0,0,240,0.0,0.0
2504,64.0,120,120,3.0,0.0
2505,67.0,120,120,3.0,0.0
2506,84.0,120,240,0.0,0.0
2507,60.0,0,15,3.0,0.0
2508,64.0,120,120,3.0,0.0
2509,67.0,0,120,3.0,0.0
2510,60.0,0,15,3.0,0.0
2511,64.0,120,120,3.0,0.0
2512,88.0,120,240,0.0,0.0
2513,67.0,0,120,3.0,0.0
2514,64.0,120,120,3.0,0.0
2515,60.0,120,240,3.0,0.0
2516,84.0,0,240,0.0,0.0
2517,67.0,0,120,3.0,0.0
2518,65.0,120,120,3.0,0.0
2519,62.0,120,240,3.0,0.0
2520,84.0,45,360,0.0,0.0
2521,67.0,0,120,3.0,0.0
2522,65.0,15,120,3.0,0.0
2523,62.0,0,240,3.0,0.0
2524,68.0,0,120,3.0,0.0
2525,86.0,60,60,0.0,0.0
2526,84.0,120,60,0.0,0.0
2527,65.0,120,120,3.0,0.0
2528,62.0,0,240,3.0,0.0
2529,83.0,120,960,0.0,0.0
2530,68.0,120,120,3.0,0.0
2531,65.0,120,120,3.0,0.0
2532,68.0,120,120,3.0,0.0
2533,62.0,0,15,3.0,0.0
2534,65.0,120,120,3.0,0.0
2535,68.0,120,240,3.0,0.0
2536,65.0,0,120,3.0,0.0
2537,62.0,120,15,3.0,0.0
2538,65.0,0,120,3.0,0.0
2539,68.0,120,15,3.0,0.0
2540,62.0,120,15,3.0,0.0
2541,65.0,120,120,3.0,0.0
2542,68.0,120,240,3.0,0.0
2543,82.0,0,15,0.0,0.0
2544,63.0,120,240,3.0,0.0
2545,67.0,0,120,3.0,0.0
2546,55.0,120,120,3.0,0.0
2547,51.0,120,240,3.0,0.0
2548,58.0,0,120,3.0,0.0
2549,55.0,120,120,3.0,0.0
2550,51.0,120,240,3.0,0.0
2551,58.0,0,120,3.0,0.0
2552,55.0,120,120,3.0,0.0
2553,51.0,0,240,3.0,0.0
2554,75.0,120,240,0.0,0.0
2555,58.0,0,120,3.0,0.0
2556,74.0,120,240,0.0,0.0
2557,55.0,120,120,3.0,0.0
2558,51.0,0,240,3.0,0.0
2559,58.0,0,120,3.0,0.0
2560,75.0,0,240,0.0,0.0
2561,55.0,120,120,3.0,0.0
2562,58.0,0,120,3.0,0.0
2563,79.0,120,240,0.0,0.0
2564,51.0,120,15,3.0,0.0
2565,55.0,120,120,3.0,0.0
2566,58.0,0,120,3.0,0.0
2567,51.0,0,15,3.0,0.0
2568,75.0,0,240,0.0,0.0
2569,55.0,120,120,3.0,0.0
2570,58.0,0,120,3.0,0.0
2571,53.0,120,240,3.0,0.0
2572,56.0,120,120,3.0,0.0
2573,75.0,40,390,0.0,0.0
2574,58.0,0,120,3.0,0.0
2575,56.0,20,120,3.0,0.0
2576,59.0,0,240,3.0,0.0
2577,77.0,60,60,0.0,0.0
2578,75.0,120,60,0.0,0.0
2579,56.0,120,120,3.0,0.0
2580,53.0,0,15,3.0,0.0
2581,74.0,0,960,0.0,0.0
2582,59.0,120,240,3.0,0.0
2583,56.0,0,120,3.0,0.0
2584,53.0,120,240,3.0,0.0
2585,59.0,120,240,3.0,0.0
2586,57.0,0,120,3.0,0.0
2587,59.0,0,120,3.0,0.0
2588,54.0,120,15,3.0,0.0
2589,57.0,120,120,3.0,0.0
2590,60.0,0,120,3.0,0.0
2591,74.0,0,480,0.0,0.0
2592,57.0,120,120,3.0,0.0
2593,60.0,120,120,3.0,0.0
2594,54.0,0,15,3.0,0.0
2595,57.0,120,120,3.0,0.0
2596,60.0,80,120,3.0,0.0
2597,59.0,40,120,3.0,0.0
2598,74.0,40,90,0.0,0.0
2599,76.0,80,90,0.0,0.0
2600,60.0,0,120,3.0,0.0
2601,74.0,120,90,0.0,0.0
2602,55.0,0,15,3.0,0.0
2603,59.0,0,120,3.0,0.0
2604,73.0,115,120,0.0,0.0
2605,62.0,120,120,3.0,0.0
2606,74.0,5,120,0.0,0.0
2607,77.0,120,960,0.0,0.0
2608,65.0,0,960,1.0,0.0
2609,59.0,120,120,3.0,0.0
2610,55.0,0,240,3.0,0.0
2611,62.0,120,120,3.0,0.0
2612,59.0,120,120,3.0,0.0
2613,55.0,120,240,3.0,0.0
2614,62.0,0,120,3.0,0.0
2615,56.0,120,240,3.0,0.0
2616,59.0,120,120,3.0,0.0
2617,62.0,0,120,3.0,0.0
2618,59.0,120,120,3.0,0.0
2619,62.0,0,120,3.0,0.0
2620,56.0,0,15,3.0,0.0
2621,59.0,120,120,3.0,0.0
2622,64.0,0,480,1.0,0.0
2623,62.0,120,120,3.0,0.0
2624,59.0,120,120,3.0,0.0
2625,56.0,0,240,3.0,0.0
2626,62.0,80,120,3.0,0.0
2627,76.0,0,15,0.0,0.0
2628,61.0,40,120,3.0,0.0
2629,78.0,80,90,0.0,0.0
2630,62.0,0,120,3.0,0.0
2631,76.0,0,90,0.0,0.0
2632,75.0,40,90,0.0,0.0
2633,57.0,80,15,3.0,0.0
2634,61.0,40,120,3.0,0.0
2635,76.0,80,90,0.0,0.0
2636,64.0,120,120,3.0,0.0
2637,78.0,0,90,0.0,0.0
2638,61.0,120,120,3.0,0.0
2639,67.0,0,960,1.0,0.0
2640,57.0,0,15,3.0,0.0
2641,79.0,120,960,0.0,0.0
2642,64.0,120,120,3.0,0.0
2643,61.0,120,120,3.0,0.0
2644,57.0,0,240,3.0,0.0
2645,64.0,120,120,3.0,0.0
2646,61.0,120,120,3.0,0.0
2647,58.0,120,240,3.0,0.0
2648,64.0,0,120,3.0,0.0
2649,61.0,120,120,3.0,0.0
2650,64.0,0,120,3.0,0.0
2651,58.0,0,15,3.0,0.0
2652,66.0,0,480,1.0,0.0
2653,61.0,120,120,3.0,0.0
2654,64.0,0,120,3.0,0.0
2655,58.0,120,15,3.0,0.0
2656,61.0,120,120,3.0,0.0
2657,64.0,0,120,3.0,0.0
2658,78.0,80,15,0.0,0.0
2659,62.0,40,120,3.0,0.0
2660,59.0,0,240,3.0,0.0
2661,80.0,80,90,0.0,0.0
2662,64.0,0,120,3.0,0.0
2663,78.0,80,90,0.0,0.0
2664,62.0,40,120,3.0,0.0
2665,59.0,120,240,3.0,0.0
2666,77.0,40,90,0.0,0.0
2667,78.0,80,90,0.0,0.0
2668,65.0,0,120,3.0,0.0
2669,80.0,0,90,0.0,0.0
2670,69.0,0,960,1.0,0.0
2671,59.0,0,240,3.0,0.0
2672,62.0,120,120,3.0,0.0
2673,81.0,0,960,0.0,0.0
2674,65.0,120,120,3.0,0.0
2675,62.0,120,120,3.0,0.0
2676,59.0,0,240,3.0,0.0
2677,65.0,120,120,3.0,0.0
2678,62.0,120,120,3.0,0.0
2679,59.0,120,240,3.0,0.0
2680,65.0,0,120,3.0,0.0
2681,62.0,120,120,3.0,0.0
2682,59.0,0,240,3.0,0.0
2683,65.0,120,120,3.0,0.0
2684,62.0,120,120,3.0,0.0
2685,68.0,0,480,1.0,0.0
2686,65.0,120,120,3.0,0.0
2687,59.0,0,15,3.0,0.0
2688,62.0,120,120,3.0,0.0
2689,65.0,0,120,3.0,0.0
2690,80.0,0,15,0.0,0.0
2691,59.0,0,390,3.0,0.0
2692,62.0,0,390,3.0,0.0
2693,68.0,0,390,1.0,0.0
2694,53.0,14,90,3.0,0.0
2695,65.0,76,90,0.0,0.0
2696,64.0,80,120,0.0,0.0
2697,52.0,9,120,3.0,0.0
2698,50.0,5,150,3.0,0.0
2699,62.0,84,150,0.0,0.0
2700,48.0,2,180,3.0,0.0
2701,60.0,201,180,0.0,0.0
2702,47.0,0,300,3.0,0.0
2703,59.0,650,300,0.0,0.0
2704,81.0,0,240,0.0,0.0
2705,69.0,480,240,1.0,0.0
2706,68.0,333,480,1.0,0.0
2707,80.0,0,480,0.0,0.0
2708,65.0,6,90,0.0,0.0
2709,53.0,79,90,3.0,0.0
2710,52.0,82,120,3.0,0.0
2711,64.0,4,120,0.0,0.0
2712,62.0,2,150,0.0,0.0
2713,50.0,83,150,3.0,0.0
2714,48.0,200,180,3.0,0.0
2715,60.0,1,180,0.0,0.0
2716,47.0,650,300,3.0,0.0
2717,59.0,0,300,0.0,0.0
2718,81.0,480,240,0.0,0.0
2719,80.0,192,480,0.0,0.0
2720,62.0,288,180,3.0,0.0
2721,59.0,0,180,3.0,0.0
2722,65.0,0,180,3.0,0.0
2723,81.0,480,240,0.0,0.0
2724,80.0,192,480,0.0,0.0
2725,62.0,0,180,3.0,0.0
2726,65.0,288,180,3.0,0.0
2727,59.0,0,180,3.0,0.0
2728,81.0,480,240,0.0,0.0
2729,80.0,192,480,0.0,0.0
2730,62.0,0,180,3.0,0.0
2731,65.0,0,180,3.0,0.0
2732,59.0,1198,180,3.0,0.0
2733,76.0,370,180,0.0,0.0
2734,52.0,0,480,3.0,0.0
2735,57.0,80,480,3.0,0.0
2736,49.0,0,480,3.0,0.0
2737,81.0,80,90,0.0,0.0
2738,93.0,80,90,0.0,0.0
2739,81.0,0,90,0.0,0.0
2740,76.0,80,90,0.0,0.0
2741,88.0,80,90,0.0,0.0
2742,76.0,80,90,0.0,0.0
2743,73.0,80,90,0.0,0.0
2744,85.0,80,90,0.0,0.0
2745,73.0,80,90,0.0,0.0
2746,69.0,80,90,0.0,0.0
2747,81.0,80,90,0.0,0.0
2748,69.0,80,90,0.0,0.0
2749,64.0,80,90,0.0,0.0
2750,76.0,80,90,0.0,0.0
2751,64.0,80,90,0.0,0.0
2752,61.0,80,90,0.0,0.0
2753,73.0,80,90,0.0,0.0
2754,61.0,80,90,0.0,0.0
2755,57.0,80,90,0.0,0.0
2756,69.0,80,90,0.0,0.0
2757,57.0,960,90,0.0,0.0
2758,51.0,960,960,3.0,0.0
2759,57.0,0,960,1.0,0.0
2760,42.0,0,960,3.0,0.0
2761,59.0,0,960,0.0,0.0
2762,56.0,0,960,1.0,0.0
2763,50.0,0,960,3.0,0.0
2764,64.0,320,960,0.0,0.0
2765,40.0,0,960,3.0,0.0
2766,49.0,80,480,3.0,0.0
2767,45.0,0,480,3.0,0.0
2768,52.0,80,90,0.0,0.0
2769,64.0,80,90,0.0,0.0
2770,52.0,0,90,0.0,0.0
2771,57.0,80,90,0.0,0.0
2772,69.0,80,90,0.0,0.0
2773,57.0,80,90,0.0,0.0
2774,61.0,80,90,0.0,0.0
2775,73.0,80,90,0.0,0.0
2776,61.0,80,90,0.0,0.0
2777,64.0,80,90,0.0,0.0
2778,76.0,80,90,0.0,0.0
2779,64.0,80,90,0.0,0.0
2780,69.0,80,90,0.0,0.0
2781,81.0,80,90,0.0,0.0
2782,69.0,80,90,0.0,0.0
2783,73.0,80,90,0.0,0.0
2784,85.0,80,90,0.0,0.0
2785,73.0,80,90,0.0,0.0
2786,76.0,80,90,0.0,0.0
2787,88.0,80,90,0.0,0.0
2788,76.0,960,90,0.0,0.0
2789,75.0,0,960,1.0,0.0
2790,81.0,0,960,1.0,0.0
2791,87.0,0,960,0.0,0.0
2792,69.0,0,960,3.0,0.0
2793,66.0,960,960,3.0,0.0
2794,64.0,80,960,3.0,0.0
2795,74.0,0,960,1.0,0.0
2796,83.0,0,15,1.0,0.0
2797,80.0,0,960,1.0,0.0
2798,68.0,0,960,3.0,0.0
2799,88.0,0,960,0.0,0.0
2800,57.0,80,90,0.0,0.0
2801,73.0,0,240,0.0,0.0
2802,81.0,0,240,0.0,0.0
2803,61.0,80,90,0.0,0.0
2804,62.0,80,90,0.0,0.0
2805,64.0,80,90,0.0,0.0
2806,66.0,80,90,0.0,0.0
2807,68.0,160,90,0.0,0.0
2808,69.0,0,240,0.0,0.0
2809,73.0,80,90,0.0,0.0
2810,74.0,80,90,0.0,0.0
2811,76.0,80,90,0.0,0.0
2812,78.0,80,90,0.0,0.0
2813,80.0,120,90,0.0,0.0
2814,81.0,240,120,0.0,0.0
2815,80.0,240,120,0.0,0.0
2816,78.0,240,120,0.0,0.0
2817,76.0,200,120,0.0,0.0
2818,40.0,40,90,3.0,0.0
2819,74.0,40,120,0.0,0.0
2820,44.0,80,90,3.0,0.0
2821,45.0,80,90,3.0,0.0
2822,73.0,40,120,0.0,0.0
2823,47.0,40,90,3.0,0.0
2824,49.0,80,90,3.0,0.0
2825,50.0,80,90,3.0,0.0
2826,71.0,40,120,0.0,0.0
2827,52.0,40,90,3.0,0.0
2828,56.0,80,90,3.0,0.0
2829,57.0,80,90,3.0,0.0
2830,69.0,40,120,0.0,0.0
2831,59.0,40,90,3.0,0.0
2832,61.0,80,90,3.0,0.0
2833,62.0,120,90,3.0,0.0
2834,64.0,0,120,3.0,0.0
2835,68.0,240,120,0.0,0.0
2836,62.0,240,120,3.0,0.0
2837,61.0,240,120,3.0,0.0
2838,59.0,240,120,3.0,0.0
2839,57.0,80,240,3.0,0.0
2840,33.0,40,120,3.0,0.0
2841,37.0,80,90,3.0,0.0
2842,38.0,0,90,3.0,0.0
2843,40.0,80,90,3.0,0.0
2844,42.0,80,90,3.0,0.0
2845,44.0,80,90,3.0,0.0
2846,45.0,80,90,3.0,0.0
2847,49.0,80,90,3.0,0.0
2848,50.0,80,90,3.0,0.0
2849,52.0,80,90,3.0,0.0
2850,54.0,80,90,3.0,0.0
2851,56.0,120,90,3.0,0.0
2852,57.0,240,120,3.0,0.0
2853,56.0,240,120,3.0,0.0
2854,54.0,240,120,3.0,0.0
2855,52.0,240,120,3.0,0.0
2856,50.0,40,120,3.0,0.0
2857,64.0,80,90,0.0,0.0
2858,68.0,80,90,0.0,0.0
2859,69.0,40,90,0.0,0.0
2860,49.0,40,120,3.0,0.0
2861,71.0,80,90,0.0,0.0
2862,73.0,80,90,0.0,0.0
2863,47.0,40,120,3.0,0.0
2864,74.0,40,90,0.0,0.0
2865,76.0,80,90,0.0,0.0
2866,80.0,80,90,0.0,0.0
2867,45.0,40,120,3.0,0.0
2868,81.0,40,90,0.0,0.0
2869,83.0,80,90,0.0,0.0
2870,85.0,120,90,0.0,0.0
2871,88.0,0,120,0.0,0.0
2872,44.0,240,120,3.0,0.0
2873,86.0,0,120,0.0,0.0
2874,42.0,240,120,3.0,0.0
2875,85.0,0,120,0.0,0.0
2876,40.0,240,120,3.0,0.0
2877,83.0,240,120,0.0,0.0
2878,38.0,0,120,3.0,0.0
2879,81.0,240,120,0.0,0.0
2880,37.0,177,1860,3.0,0.0
2881,80.0,240,120,0.0,0.0
2882,78.0,240,120,0.0,0.0
2883,76.0,240,120,0.0,0.0
2884,74.0,240,120,0.0,0.0
2885,73.0,240,120,0.0,0.0
2886,71.0,240,120,0.0,0.0
2887,69.0,63,120,0.0,0.0
2888,68.0,240,120,0.0,0.0
2889,38.0,120,960,3.0,0.0
2890,66.0,240,120,0.0,0.0
2891,64.0,240,120,0.0,0.0
2892,62.0,120,120,0.0,0.0
2893,61.0,240,120,0.0,0.0
2894,40.0,240,960,3.0,0.0
2895,59.0,240,120,0.0,0.0
2896,57.0,240,120,0.0,0.0
2897,56.0,120,120,0.0,0.0
2898,57.0,240,960,0.0,0.0
2899,33.0,25,1890,3.0,0.0
2900,45.0,240,240,0.0,0.0
2901,47.0,240,240,0.0,0.0
2902,49.0,240,240,0.0,0.0
2903,50.0,0,240,0.0,0.0
2904,52.0,240,240,0.0,0.0
2905,62.0,480,960,0.0,0.0
2906,54.0,240,240,0.0,0.0
2907,55.0,215,240,0.0,0.0
2908,56.0,0,240,0.0,0.0
2909,33.0,25,3810,3.0,0.0
2910,52.0,0,960,1.0,0.0
2911,61.0,0,960,0.0,0.0
2912,57.0,240,960,1.0,0.0
2913,35.0,240,240,3.0,0.0
2914,37.0,240,240,3.0,0.0
2915,38.0,0,240,3.0,0.0
2916,40.0,240,240,3.0,0.0
2917,59.0,0,960,0.0,0.0
2918,52.0,240,960,1.0,0.0
2919,50.0,0,960,1.0,0.0
2920,42.0,240,240,3.0,0.0
2921,43.0,240,240,3.0,0.0
2922,44.0,0,240,3.0,0.0
2923,57.0,0,960,0.0,0.0
2924,45.0,0,960,3.0,0.0
2925,49.0,240,240,3.0,0.0
2926,47.0,240,240,3.0,0.0
2927,49.0,240,240,3.0,0.0
2928,50.0,240,240,3.0,0.0
2929,44.0,240,480,3.0,0.0
2930,52.0,240,240,3.0,0.0
2931,62.0,0,960,0.0,0.0
2932,54.0,0,240,3.0,0.0
2933,47.0,0,480,3.0,0.0
2934,55.0,215,240,3.0,0.0
2935,56.0,480,240,3.0,0.0
2936,33.0,30,1890,3.0,0.0
2937,61.0,0,960,0.0,0.0
2938,57.0,0,960,1.0,0.0
2939,35.0,240,240,3.0,0.0
2940,37.0,240,240,3.0,0.0
2941,38.0,0,240,3.0,0.0
2942,40.0,240,240,3.0,0.0
2943,50.0,0,960,1.0,0.0
2944,52.0,240,15,1.0,0.0
2945,59.0,120,960,0.0,0.0
2946,42.0,240,240,3.0,0.0
2947,43.0,210,240,3.0,0.0
2948,44.0,0,240,3.0,0.0
2949,52.0,120,240,1.0,0.0
2950,57.0,0,240,0.0,0.0
2951,49.0,0,240,1.0,0.0
2952,33.0,120,120,3.0,0.0
2953,45.0,0,120,3.0,0.0
2954,42.0,240,120,3.0,0.0
2955,40.0,240,120,3.0,0.0
2956,38.0,240,120,3.0,0.0
2957,49.0,0,180,1.0,0.0
2958,37.0,72,120,3.0,0.0
2959,57.0,168,180,0.0,0.0
2960,52.0,0,180,1.0,0.0
2961,38.0,240,120,3.0,0.0
2962,57.0,0,180,0.0,0.0
2963,49.0,168,180,1.0,0.0
2964,52.0,0,180,1.0,0.0
2965,37.0,72,120,3.0,0.0
2966,35.0,312,120,3.0,0.0
2967,57.0,0,180,0.0,0.0
2968,33.0,0,180,3.0,0.0
2969,49.0,960,180,1.0,0.0
2970,52.0,0,180,1.0,0.0
2971,52.0,960,180,0.0,0.0
2972,49.0,0,180,1.0,0.0
2973,33.0,0,180,3.0,0.0
2974,49.0,0,180,0.0,0.0
2975,33.0,0,180,3.0,0.0
2976,45.0,2268,180,1.0,0.0
2977,38.0,240,60,3.0,0.0
2978,40.0,180,60,3.0,0.0
2979,66.0,60,15,0.0,0.0
2980,42.0,240,60,3.0,0.0
2981,50.0,0,15,1.0,0.0
2982,57.0,0,15,1.0,0.0
2983,40.0,180,60,3.0,0.0
2984,50.0,60,15,1.0,0.0
2985,66.0,0,480,0.0,0.0
2986,42.0,240,60,3.0,0.0
2987,38.0,180,60,3.0,0.0
2988,49.0,0,480,1.0,0.0
2989,57.0,60,15,1.0,0.0
2990,43.0,240,60,3.0,0.0
2991,64.0,0,480,0.0,0.0
2992,45.0,180,60,3.0,0.0
2993,42.0,240,60,3.0,0.0
2994,57.0,60,15,1.0,0.0
2995,50.0,0,960,1.0,0.0
2996,66.0,0,960,0.0,0.0
2997,40.0,240,60,3.0,0.0
2998,42.0,240,60,3.0,0.0
2999,38.0,180,60,3.0,0.0
3000,67.0,60,960,0.0,0.0
3001,37.0,240,60,3.0,0.0
3002,61.0,0,960,1.0,0.0
3003,52.0,0,960,1.0,0.0
3004,45.0,240,60,3.0,0.0
3005,47.0,240,60,3.0,0.0
3006,49.0,180,60,3.0,0.0
3007,66.0,0,480,0.0,0.0
3008,50.0,240,60,3.0,0.0
3009,44.0,180,60,3.0,0.0
3010,64.0,0,240,0.0,0.0
3011,57.0,240,15,1.0,0.0
3012,49.0,0,240,1.0,0.0
3013,45.0,480,240,3.0,0.0
3014,45.0,240,960,1.0,0.0
3015,44.0,240,240,3.0,0.0
3016,43.0,240,240,3.0,0.0
3017,42.0,0,240,3.0,0.0
3018,40.0,60,240,3.0,0.0
3019,66.0,0,480,0.0,0.0
3020,38.0,240,60,3.0,0.0
3021,40.0,180,60,3.0,0.0
3022,57.0,0,15,1.0,0.0
3023,50.0,60,15,1.0,0.0
3024,42.0,240,60,3.0,0.0
3025,40.0,180,60,3.0,0.0
3026,66.0,0,15,0.0,0.0
3027,42.0,240,60,3.0,0.0
3028,57.0,60,15,1.0,0.0
3029,50.0,0,15,1.0,0.0
3030,38.0,60,60,3.0,0.0
3031,43.0,240,240,3.0,0.0
3032,55.0,0,15,1.0,0.0
3033,59.0,0,240,2.0,0.0
3034,71.0,240,15,0.0,0.0
3035,61.0,0,240,2.0,0.0
3036,45.0,240,240,3.0,0.0
3037,62.0,0,240,2.0,0.0
3038,47.0,240,240,3.0,0.0
3039,49.0,0,240,3.0,0.0
3040,64.0,240,240,2.0,0.0
3041,66.0,0,240,2.0,0.0
3042,54.0,0,240,2.0,0.0
3043,69.0,240,240,0.0,0.0
3044,50.0,0,240,3.0,0.0
3045,52.0,0,240,3.0,0.0
3046,55.0,240,240,2.0,0.0
3047,61.0,0,240,2.0,0.0
3048,67.0,0,240,0.0,0.0
3049,54.0,240,240,3.0,0.0
3050,57.0,0,240,2.0,0.0
3051,66.0,0,240,0.0,0.0
3052,62.0,0,240,2.0,0.0
3053,59.0,0,240,2.0,0.0
3054,55.0,237,240,2.0,0.0
3055,64.0,0,240,0.0,0.0
3056,43.0,3,240,3.0,0.0
3057,62.0,40,480,0.0,0.0
3058,54.0,240,240,2.0,0.0
3059,57.0,0,240,2.0,0.0
3060,45.0,0,15,3.0,0.0
3061,52.0,0,480,2.0,0.0
3062,55.0,40,240,2.0,0.0
3063,61.0,40,40,0.0,0.0
3064,62.0,40,40,0.0,0.0
3065,61.0,40,40,0.0,0.0
3066,62.0,40,40,0.0,0.0
3067,61.0,40,40,0.0,0.0
3068,62.0,0,40,0.0,0.0
3069,61.0,40,40,0.0,0.0
3070,62.0,40,40,0.0,0.0
3071,61.0,60,40,0.0,0.0
3072,59.0,60,60,2.0,0.0
3073,61.0,240,60,0.0,0.0
3074,45.0,120,240,2.0,0.0
3075,38.0,156,720,3.0,0.0
3076,57.0,0,15,2.0,0.0
3077,45.0,0,15,3.0,0.0
3078,55.0,0,480,2.0,0.0
3079,64.0,156,480,0.0,0.0
3080,47.0,120,120,3.0,0.0
3081,49.0,0,120,3.0,0.0
3082,57.0,0,150,2.0,0.0
3083,54.0,0,150,2.0,0.0
3084,62.0,84,150,0.0,0.0
3085,50.0,0,150,3.0,0.0
3086,64.0,240,150,1.0,0.0
3087,66.0,240,150,1.0,0.0
3088,68.0,564,150,1.0,0.0
3089,69.0,0,960,1.0,0.0
3090,64.0,240,240,2.0,0.0
3091,57.0,0,480,3.0,0.0
3092,61.0,180,240,2.0,0.0
3093,64.0,40,240,2.0,0.0
3094,66.0,60,60,1.0,0.0
3095,59.0,240,480,3.0,0.0
3096,68.0,0,15,1.0,0.0
3097,62.0,0,240,2.0,0.0
3098,69.0,40,40,1.0,0.0
3099,68.0,40,40,1.0,0.0
3100,69.0,40,40,1.0,0.0
3101,68.0,40,40,1.0,0.0
3102,69.0,40,40,1.0,0.0
3103,68.0,40,40,1.0,0.0
3104,64.0,0,240,2.0,0.0
3105,69.0,40,40,1.0,0.0
3106,68.0,60,40,1.0,0.0
3107,66.0,60,60,1.0,0.0
3108,68.0,0,60,1.0,0.0
3109,69.0,0,240,1.0,0.0
3110,61.0,240,240,2.0,0.0
3111,57.0,40,960,3.0,0.0
3112,64.0,240,240,1.0,0.0
3113,61.0,180,240,1.0,0.0
3114,64.0,0,240,1.0,0.0
3115,54.0,60,60,3.0,0.0
3116,56.0,0,60,3.0,0.0
3117,62.0,40,240,1.0,0.0
3118,59.0,0,240,1.0,0.0
3119,56.0,40,40,3.0,0.0
3120,57.0,40,40,3.0,0.0
3121,56.0,40,40,3.0,0.0
3122,57.0,40,40,3.0,0.0
3123,56.0,40,40,3.0,0.0
3124,57.0,0,40,3.0,0.0
3125,64.0,0,240,1.0,0.0
3126,56.0,40,40,3.0,0.0
3127,57.0,40,40,3.0,0.0
3128,56.0,60,40,3.0,0.0
3129,54.0,60,60,3.0,0.0
3130,56.0,240,60,3.0,0.0
3131,57.0,240,240,3.0,0.0
3132,69.0,0,960,0.0,0.0
3133,61.0,0,240,1.0,0.0
3134,52.0,0,240,3.0,0.0
3135,64.0,240,240,1.0,0.0
3136,49.0,0,240,3.0,0.0
3137,57.0,180,240,1.0,0.0
3138,64.0,0,240,1.0,0.0
3139,52.0,0,240,3.0,0.0
3140,66.0,60,60,0.0,0.0
3141,59.0,0,240,1.0,0.0
3142,50.0,0,240,3.0,0.0
3143,68.0,40,15,0.0,0.0
3144,69.0,40,40,0.0,0.0
3145,68.0,40,40,0.0,0.0
3146,69.0,40,40,0.0,0.0
3147,68.0,40,40,0.0,0.0
3148,69.0,40,40,0.0,0.0
3149,52.0,0,240,3.0,0.0
3150,64.0,0,240,1.0,0.0
3151,68.0,40,40,0.0,0.0
3152,69.0,40,40,0.0,0.0
3153,68.0,60,40,0.0,0.0
3154,66.0,60,60,0.0,0.0
3155,68.0,240,60,0.0,0.0
3156,69.0,0,480,0.0,0.0
3157,57.0,0,240,1.0,0.0
3158,49.0,240,240,3.0,0.0
3159,61.0,0,240,1.0,0.0
3160,45.0,240,240,3.0,0.0
3161,68.0,0,480,0.0,0.0
3162,47.0,0,480,3.0,0.0
3163,62.0,240,240,1.0,0.0
3164,57.0,240,240,1.0,0.0
3165,67.0,0,480,0.0,0.0
3166,49.0,0,480,3.0,0.0
3167,64.0,240,240,1.0,0.0
3168,50.0,0,480,1.0,0.0
3169,38.0,240,60,3.0,0.0
3170,57.0,60,15,1.0,0.0
3171,40.0,180,60,3.0,0.0
3172,66.0,0,15,0.0,0.0
3173,57.0,60,15,1.0,0.0
3174,50.0,0,480,1.0,0.0
3175,42.0,240,60,3.0,0.0
3176,40.0,180,60,3.0,0.0
3177,42.0,240,60,3.0,0.0
3178,57.0,0,480,1.0,0.0
3179,50.0,0,480,1.0,0.0
3180,66.0,60,15,0.0,0.0
3181,38.0,180,60,3.0,0.0
3182,43.0,240,60,3.0,0.0
3183,49.0,60,480,1.0,0.0
3184,57.0,0,480,1.0,0.0
3185,64.0,0,480,0.0,0.0
3186,45.0,180,60,3.0,0.0
3187,50.0,0,960,1.0,0.0
3188,66.0,0,960,0.0,0.0
3189,42.0,240,60,3.0,0.0
3190,57.0,60,960,1.0,0.0
3191,40.0,240,60,3.0,0.0
3192,42.0,240,60,3.0,0.0
3193,38.0,180,60,3.0,0.0
3194,59.0,0,480,1.0,0.0
3195,51.0,60,480,1.0,0.0
3196,45.0,240,60,3.0,0.0
3197,66.0,0,480,0.0,0.0
3198,47.0,180,60,3.0,0.0
3199,52.0,0,960,1.0,0.0
3200,67.0,0,960,0.0,0.0
3201,59.0,60,960,1.0,0.0
3202,43.0,240,60,3.0,0.0
3203,42.0,240,60,3.0,0.0
3204,43.0,240,60,3.0,0.0
3205,40.0,180,60,3.0,0.0
3206,57.0,0,480,1.0,0.0
3207,69.0,0,480,0.0,0.0
3208,66.0,60,480,1.0,0.0
3209,62.0,0,480,1.0,0.0
3210,48.0,240,60,3.0,0.0
3211,54.0,0,480,3.0,0.0
3212,50.0,180,60,3.0,0.0
3213,71.0,96,1440,0.0,0.0
3214,62.0,60,480,1.0,0.0
3215,59.0,0,1440,1.0,0.0
3216,47.0,240,60,3.0,0.0
3217,55.0,60,720,3.0,0.0
3218,45.0,180,60,3.0,0.0
3219,67.0,0,960,1.0,0.0
3220,43.0,180,60,3.0,0.0
3221,42.0,60,60,3.0,0.0
3222,54.0,216,120,3.0,0.0
3223,52.0,180,150,3.0,0.0
3224,40.0,60,90,3.0,0.0
3225,50.0,84,150,3.0,0.0
3226,38.0,60,90,3.0,0.0
3227,64.0,0,15,1.0,0.0
3228,73.0,96,240,0.0,0.0
3229,61.0,0,240,1.0,0.0
3230,69.0,0,240,1.0,0.0
3231,49.0,84,150,3.0,0.0
3232,37.0,60,90,3.0,0.0
3233,62.0,96,240,1.0,0.0
3234,74.0,0,240,0.0,0.0
3235,47.0,84,150,3.0,0.0
3236,35.0,60,90,3.0,0.0
3237,33.0,144,90,3.0,0.0
3238,67.0,0,15,1.0,0.0
3239,64.0,96,480,1.0,0.0
3240,73.0,0,480,1.0,0.0
3241,45.0,96,240,3.0,0.0
3242,76.0,0,480,0.0,0.0
3243,43.0,0,240,3.0,0.0
3244,31.0,144,90,3.0,0.0
3245,69.0,0,15,1.0,0.0
3246,74.0,0,240,1.0,0.0
3247,78.0,96,240,0.0,0.0
3248,30.0,144,90,3.0,0.0
3249,42.0,0,240,3.0,0.0
3250,67.0,0,240,1.0,0.0
3251,31.0,144,90,3.0,0.0
3252,71.0,0,240,1.0,0.0
3253,43.0,0,240,3.0,0.0
3254,76.0,240,240,0.0,0.0
3255,45.0,0,480,3.0,0.0
3256,66.0,240,240,1.0,0.0
3257,33.0,40,480,3.0,0.0
3258,74.0,0,480,0.0,0.0
3259,69.0,0,240,1.0,0.0
3260,64.0,40,240,1.0,0.0
3261,73.0,40,40,0.0,0.0
3262,45.0,120,720,3.0,0.0
3263,33.0,0,480,3.0,0.0
3264,74.0,40,40,0.0,0.0
3265,73.0,40,40,0.0,0.0
3266,74.0,40,40,0.0,0.0
3267,73.0,40,40,0.0,0.0
3268,74.0,0,40,0.0,0.0
3269,73.0,40,40,0.0,0.0
3270,74.0,40,40,0.0,0.0
3271,73.0,60,40,0.0,0.0
3272,71.0,60,60,0.0,0.0
3273,73.0,0,60,0.0,0.0
3274,76.0,156,480,0.0,0.0
3275,67.0,240,15,1.0,0.0
3276,38.0,240,720,3.0,0.0
3277,47.0,120,120,3.0,0.0
3278,49.0,0,120,3.0,0.0
3279,66.0,0,150,1.0,0.0
3280,50.0,84,150,3.0,0.0
3281,74.0,0,150,0.0,0.0
3282,66.0,240,240,0.0,0.0
3283,74.0,240,240,0.0,0.0
3284,71.0,0,240,0.0,0.0
3285,59.0,0,240,3.0,0.0
3286,62.0,240,240,3.0,0.0
3287,70.0,0,240,0.0,0.0
3288,61.0,0,480,3.0,0.0
3289,66.0,0,15,1.0,0.0
3290,64.0,192,480,3.0,0.0
3291,73.0,0,240,0.0,0.0
3292,62.0,0,180,3.0,0.0
3293,71.0,168,180,0.0,0.0
3294,66.0,0,180,3.0,0.0
3295,66.0,120,120,0.0,0.0
3296,78.0,120,120,0.0,0.0
3297,76.0,120,120,0.0,0.0
3298,74.0,120,120,0.0,0.0
3299,62.0,0,240,3.0,0.0
3300,59.0,120,240,3.0,0.0
3301,73.0,120,120,0.0,0.0
3302,71.0,0,120,0.0,0.0
3303,70.0,40,120,0.0,0.0
3304,61.0,0,480,3.0,0.0
3305,64.0,192,480,3.0,0.0
3306,71.0,30,40,0.0,0.0
3307,70.0,30,40,0.0,0.0
3308,68.0,50,40,0.0,0.0
3309,70.0,90,60,0.0,0.0
3310,73.0,120,120,0.0,0.0
3311,71.0,0,120,0.0,0.0
3312,66.0,0,180,3.0,0.0
3313,62.0,168,180,3.0,0.0
3314,71.0,0,180,0.0,0.0
3315,66.0,120,120,0.0,0.0
3316,78.0,120,120,0.0,0.0
3317,76.0,120,120,0.0,0.0
3318,74.0,120,120,0.0,0.0
3319,50.0,0,240,3.0,0.0
3320,54.0,120,240,3.0,0.0
3321,73.0,120,120,0.0,0.0
3322,71.0,0,120,0.0,0.0
3323,69.0,40,120,0.0,0.0
3324,54.0,120,240,3.0,0.0
3325,71.0,40,40,0.0,0.0
3326,69.0,40,40,0.0,0.0
3327,68.0,0,40,0.0,0.0
3328,69.0,120,120,0.0,0.0
3329,57.0,0,240,3.0,0.0
3330,73.0,480,120,0.0,0.0
3331,66.0,0,480,0.0,0.0
3332,49.0,0,15,3.0,0.0
3333,57.0,0,240,3.0,0.0
3334,61.0,0,240,1.0,0.0
3335,65.0,192,480,0.0,0.0
3336,59.0,240,240,1.0,0.0
3337,49.0,0,480,3.0,0.0
3338,56.0,0,480,3.0,0.0
3339,61.0,0,240,1.0,0.0
3340,42.0,0,180,3.0,0.0
3341,57.0,0,180,1.0,0.0
3342,66.0,0,180,0.0,0.0
3343,54.0,288,180,3.0,0.0
3344,49.0,240,240,3.0,0.0
3345,50.0,240,240,3.0,0.0
3346,49.0,240,240,3.0,0.0
3347,57.0,240,240,3.0,0.0
3348,45.0,0,240,3.0,0.0
3349,73.0,0,240,0.0,0.0
3350,54.0,240,240,3.0,0.0
3351,61.0,0,15,1.0,0.0
3352,44.0,240,240,3.0,0.0
3353,73.0,0,720,0.0,0.0
3354,53.0,0,240,3.0,0.0
3355,56.0,0,240,3.0,0.0
3356,47.0,96,240,3.0,0.0
3357,45.0,0,240,3.0,0.0
3358,54.0,144,90,3.0,0.0
3359,49.0,0,120,3.0,0.0
3360,57.0,120,120,3.0,0.0
3361,56.0,120,120,3.0,0.0
3362,59.0,120,120,3.0,0.0
3363,57.0,120,120,3.0,0.0
3364,45.0,0,240,3.0,0.0
3365,56.0,120,120,3.0,0.0
3366,73.0,0,240,0.0,0.0
3367,54.0,0,120,3.0,0.0
3368,44.0,240,240,3.0,0.0
3369,53.0,0,240,3.0,0.0
3370,73.0,0,720,0.0,0.0
3371,61.0,240,15,1.0,0.0
3372,56.0,96,240,3.0,0.0
3373,47.0,0,240,3.0,0.0
3374,45.0,0,240,3.0,0.0
3375,54.0,144,90,3.0,0.0
3376,49.0,120,120,3.0,0.0
3377,57.0,120,120,3.0,0.0
3378,56.0,120,120,3.0,0.0
3379,59.0,120,120,3.0,0.0
3380,57.0,120,120,3.0,0.0
3381,56.0,120,120,3.0,0.0
3382,45.0,0,240,3.0,0.0
3383,54.0,192,15,3.0,0.0
3384,47.0,0,180,3.0,0.0
3385,47.0,48,180,3.0,0.0
3386,55.0,0,180,3.0,0.0
3387,62.0,192,240,0.0,0.0
3388,55.0,0,180,3.0,0.0
3389,62.0,0,180,3.0,0.0
3390,47.0,48,180,3.0,0.0
3391,74.0,192,240,0.0,0.0
3392,71.0,192,240,0.0,0.0
3393,62.0,48,180,3.0,0.0
3394,55.0,0,180,3.0,0.0
3395,47.0,0,180,3.0,0.0
3396,62.0,0,180,3.0,0.0
3397,69.0,192,240,0.0,0.0
3398,55.0,48,180,3.0,0.0
3399,47.0,0,180,3.0,0.0
3400,67.0,192,240,0.0,0.0
3401,55.0,48,180,3.0,0.0
3402,62.0,0,180,3.0,0.0
3403,47.0,0,180,3.0,0.0
3404,62.0,0,180,3.0,0.0
3405,48.0,0,180,3.0,0.0
3406,57.0,168,180,3.0,0.0
3407,67.0,72,360,0.0,0.0
3408,57.0,0,180,3.0,0.0
3409,48.0,0,180,3.0,0.0
3410,62.0,48,180,3.0,0.0
3411,66.0,192,120,0.0,0.0
3412,66.0,120,960,0.0,0.0
3413,48.0,240,180,3.0,0.0
3414,57.0,0,180,3.0,0.0
3415,62.0,0,180,3.0,0.0
3416,62.0,0,180,3.0,0.0
3417,57.0,0,180,3.0,0.0
3418,48.0,240,180,3.0,0.0
3419,48.0,240,180,3.0,0.0
3420,57.0,0,180,3.0,0.0
3421,62.0,0,180,3.0,0.0
3422,48.0,48,180,3.0,0.0
3423,57.0,0,180,3.0,0.0
3424,62.0,0,180,3.0,0.0
3425,67.0,72,120,0.0,0.0
3426,50.0,0,180,3.0,0.0
3427,47.0,0,180,3.0,0.0
3428,55.0,0,180,3.0,0.0
3429,62.0,48,180,3.0,0.0
3430,69.0,120,120,0.0,0.0
3431,71.0,72,120,0.0,0.0
3432,62.0,0,180,3.0,0.0
3433,55.0,0,180,3.0,0.0
3434,47.0,48,180,3.0,0.0
3435,50.0,0,180,3.0,0.0
3436,72.0,120,120,0.0,0.0
3437,55.0,48,180,3.0,0.0
3438,47.0,0,180,3.0,0.0
3439,62.0,0,180,3.0,0.0
3440,50.0,0,180,3.0,0.0
3441,74.0,72,120,0.0,0.0
3442,73.0,120,120,0.0,0.0
3443,76.0,72,120,0.0,0.0
3444,50.0,0,180,3.0,0.0
3445,55.0,0,180,3.0,0.0
3446,62.0,48,180,3.0,0.0
3447,47.0,0,180,3.0,0.0
3448,50.0,0,180,3.0,0.0
3449,62.0,0,180,3.0,0.0
3450,47.0,0,180,3.0,0.0
3451,55.0,48,180,3.0,0.0
3452,74.0,120,15,0.0,0.0
3453,72.0,12,60,0.0,0.0
3454,71.0,120,60,0.0,0.0
3455,55.0,48,180,3.0,0.0
3456,47.0,0,180,3.0,0.0
3457,50.0,0,180,3.0,0.0
3458,62.0,0,180,3.0,0.0
3459,71.0,60,120,0.0,0.0
3460,69.0,12,60,0.0,0.0
3461,67.0,30,60,0.0,0.0
3462,66.0,20,40,0.0,0.0
3463,67.0,10,20,0.0,0.0
3464,69.0,165,40,0.0,0.0
3465,67.0,46,360,0.0,0.0
3466,63.0,0,180,3.0,0.0
3467,57.0,161,180,3.0,0.0
3468,48.0,0,180,3.0,0.0
3469,48.0,0,180,3.0,0.0
3470,63.0,0,180,3.0,0.0
3471,57.0,48,180,3.0,0.0
3472,66.0,192,120,0.0,0.0
3473,48.0,0,180,3.0,0.0
3474,63.0,240,180,3.0,0.0
3475,66.0,192,720,0.0,0.0
3476,57.0,0,180,3.0,0.0
3477,57.0,0,180,3.0,0.0
3478,63.0,0,180,3.0,0.0
3479,48.0,240,180,3.0,0.0
3480,63.0,0,180,3.0,0.0
3481,51.0,48,180,3.0,0.0
3482,57.0,0,180,3.0,0.0
3483,47.0,0,180,3.0,0.0
3484,47.0,0,180,3.0,0.0
3485,57.0,0,180,3.0,0.0
3486,66.0,192,240,0.0,0.0
3487,51.0,0,180,3.0,0.0
3488,63.0,48,180,3.0,0.0
3489,69.0,72,360,0.0,0.0
3490,47.0,0,180,3.0,0.0
3491,51.0,0,180,3.0,0.0
3492,57.0,168,180,3.0,0.0
3493,63.0,0,180,3.0,0.0
3494,51.0,0,180,3.0,0.0
3495,47.0,0,180,3.0,0.0
3496,57.0,48,180,3.0,0.0
3497,63.0,0,180,3.0,0.0
3498,67.0,192,15,0.0,0.0
3499,47.0,0,180,3.0,0.0
3500,52.0,240,180,3.0,0.0
3501,64.0,0,180,3.0,0.0
3502,55.0,0,180,3.0,0.0
3503,52.0,0,180,3.0,0.0
3504,47.0,0,180,3.0,0.0
3505,55.0,0,180,3.0,0.0
3506,64.0,240,180,3.0,0.0
3507,50.0,0,180,3.0,0.0
3508,62.0,0,180,3.0,0.0
3509,46.0,0,180,3.0,0.0
3510,64.0,0,180,3.0,0.0
3511,55.0,48,180,3.0,0.0
3512,67.0,192,15,0.0,0.0
3513,50.0,0,180,3.0,0.0
3514,55.0,48,180,3.0,0.0
3515,62.0,0,180,3.0,0.0
3516,46.0,0,180,3.0,0.0
3517,64.0,0,180,3.0,0.0
3518,67.0,192,15,0.0,0.0
3519,45.0,115,1200,3.0,0.0
3520,61.0,0,180,3.0,0.0
3521,55.0,0,180,3.0,0.0
3522,57.0,0,180,3.0,0.0
3523,64.0,48,180,3.0,0.0
3524,33.0,10,1200,3.0,0.0
3525,64.0,240,240,0.0,0.0
3526,61.0,240,240,0.0,0.0
3527,57.0,230,240,1.0,0.0
3528,55.0,5,240,1.0,0.0
3529,47.0,120,120,3.0,0.0
3530,52.0,0,240,1.0,0.0
3531,49.0,60,120,3.0,0.0
3532,57.0,0,480,1.0,0.0
3533,50.0,0,480,1.0,0.0
3534,38.0,240,60,3.0,0.0
3535,40.0,180,60,3.0,0.0
3536,42.0,240,60,3.0,0.0
3537,66.0,60,15,0.0,0.0
3538,40.0,180,60,3.0,0.0
3539,66.0,60,480,0.0,0.0
3540,57.0,60,15,1.0,0.0
3541,50.0,0,15,1.0,0.0
3542,42.0,240,60,3.0,0.0
3543,38.0,180,60,3.0,0.0
3544,43.0,240,60,3.0,0.0
3545,49.0,60,480,1.0,0.0
3546,57.0,0,15,1.0,0.0
3547,64.0,0,480,0.0,0.0
3548,45.0,180,60,3.0,0.0
3549,57.0,0,960,1.0,0.0
3550,50.0,0,960,1.0,0.0
3551,66.0,60,960,0.0,0.0
3552,42.0,240,60,3.0,0.0
3553,40.0,240,60,3.0,0.0
3554,42.0,240,60,3.0,0.0
3555,38.0,180,60,3.0,0.0
3556,67.0,0,960,0.0,0.0
3557,61.0,0,960,1.0,0.0
3558,52.0,60,960,1.0,0.0
3559,37.0,240,60,3.0,0.0
3560,45.0,240,60,3.0,0.0
3561,47.0,240,60,3.0,0.0
3562,49.0,180,60,3.0,0.0
3563,50.0,240,60,3.0,0.0
3564,66.0,0,480,0.0,0.0
3565,44.0,180,60,3.0,0.0
3566,49.0,0,240,1.0,0.0
3567,45.0,480,240,3.0,0.0
3568,64.0,0,240,0.0,0.0
3569,57.0,240,15,1.0,0.0
3570,45.0,240,960,1.0,0.0
3571,44.0,240,240,3.0,0.0
3572,43.0,240,240,3.0,0.0
3573,61.0,0,240,0.0,0.0
3574,42.0,0,240,3.0,0.0
3575,62.0,0,240,0.0,0.0
3576,64.0,0,240,0.0,0.0
3577,40.0,60,240,3.0,0.0
3578,38.0,240,60,3.0,0.0
3579,40.0,180,60,3.0,0.0
3580,66.0,60,15,0.0,0.0
3581,50.0,0,15,1.0,0.0
3582,57.0,0,15,1.0,0.0
3583,42.0,240,60,3.0,0.0
3584,40.0,180,60,3.0,0.0
3585,42.0,240,60,3.0,0.0
3586,66.0,0,360,0.0,0.0
3587,57.0,120,360,1.0,0.0
3588,50.0,0,360,1.0,0.0
3589,38.0,60,60,3.0,0.0
3590,71.0,240,120,0.0,0.0
3591,55.0,0,120,1.0,0.0
3592,59.0,240,240,1.0,0.0
3593,55.0,240,960,1.0,0.0
3594,43.0,0,240,3.0,0.0
3595,71.0,0,960,0.0,0.0
3596,45.0,240,240,3.0,0.0
3597,61.0,0,240,1.0,0.0
3598,47.0,240,240,3.0,0.0
3599,62.0,0,240,1.0,0.0
3600,64.0,0,240,1.0,0.0
3601,49.0,0,240,3.0,0.0
3602,50.0,0,240,3.0,0.0
3603,66.0,0,240,1.0,0.0
3604,69.0,0,240,0.0,0.0
3605,54.0,240,240,1.0,0.0
3606,52.0,0,240,3.0,0.0
3607,67.0,0,240,0.0,0.0
3608,55.0,0,240,1.0,0.0
3609,61.0,240,240,1.0,0.0
3610,54.0,0,240,3.0,0.0
3611,66.0,0,240,0.0,0.0
3612,62.0,240,240,1.0,0.0
3613,57.0,0,240,1.0,0.0
3614,55.0,0,240,1.0,0.0
3615,43.0,0,240,3.0,0.0
3616,59.0,240,240,1.0,0.0
3617,64.0,0,240,0.0,0.0
3618,45.0,0,480,3.0,0.0
3619,62.0,0,480,0.0,0.0
3620,54.0,240,240,1.0,0.0
3621,57.0,40,240,1.0,0.0
3622,61.0,40,40,0.0,0.0
3623,52.0,0,480,1.0,0.0
3624,55.0,40,240,1.0,0.0
3625,45.0,240,480,3.0,0.0
3626,62.0,40,40,0.0,0.0
3627,61.0,40,40,0.0,0.0
3628,62.0,40,40,0.0,0.0
3629,61.0,40,40,0.0,0.0
3630,62.0,0,40,0.0,0.0
3631,61.0,40,40,0.0,0.0
3632,57.0,0,240,1.0,0.0
3633,62.0,40,40,0.0,0.0
3634,61.0,60,40,0.0,0.0
3635,59.0,60,60,1.0,0.0
3636,61.0,0,60,0.0,0.0
3637,64.0,192,480,0.0,0.0
3638,55.0,0,480,1.0,0.0
3639,38.0,192,720,3.0,0.0
3640,45.0,120,240,1.0,0.0
3641,47.0,120,120,3.0,0.0
3642,49.0,0,120,3.0,0.0
3643,57.0,0,15,1.0,0.0
3644,54.0,0,180,1.0,0.0
3645,62.0,0,180,0.0,0.0
3646,50.0,48,180,3.0,0.0
3647,52.0,240,180,2.0,0.0
3648,54.0,240,180,2.0,0.0
3649,56.0,528,180,2.0,0.0
3650,57.0,0,960,2.0,0.0
3651,64.0,240,240,1.0,0.0
3652,61.0,180,240,1.0,0.0
3653,64.0,40,240,1.0,0.0
3654,54.0,60,60,2.0,0.0
3655,56.0,0,60,2.0,0.0
3656,56.0,40,40,2.0,0.0
3657,62.0,40,240,1.0,0.0
3658,59.0,0,240,1.0,0.0
3659,57.0,40,40,2.0,0.0
3660,56.0,40,40,2.0,0.0
3661,57.0,40,40,2.0,0.0
3662,56.0,40,40,2.0,0.0
3663,57.0,0,40,2.0,0.0
3664,64.0,0,240,1.0,0.0
3665,56.0,40,40,2.0,0.0
3666,57.0,40,40,2.0,0.0
3667,56.0,60,40,2.0,0.0
3668,54.0,60,60,2.0,0.0
3669,56.0,240,60,2.0,0.0
3670,69.0,40,960,0.0,0.0
3671,61.0,240,240,1.0,0.0
3672,57.0,0,480,2.0,0.0
3673,64.0,240,240,1.0,0.0
3674,52.0,0,480,2.0,0.0
3675,61.0,180,240,1.0,0.0
3676,64.0,0,240,1.0,0.0
3677,66.0,60,60,0.0,0.0
3678,50.0,0,480,2.0,0.0
3679,59.0,40,240,1.0,0.0
3680,68.0,0,15,0.0,0.0
3681,69.0,40,40,0.0,0.0
3682,68.0,40,40,0.0,0.0
3683,69.0,40,40,0.0,0.0
3684,68.0,40,40,0.0,0.0
3685,69.0,0,40,0.0,0.0
3686,68.0,40,40,0.0,0.0
3687,64.0,0,240,1.0,0.0
3688,69.0,40,40,0.0,0.0
3689,68.0,60,40,0.0,0.0
3690,66.0,60,60,0.0,0.0
3691,68.0,240,60,0.0,0.0
3692,45.0,0,960,3.0,0.0
3693,49.0,240,240,2.0,0.0
3694,69.0,0,240,0.0,0.0
3695,61.0,0,240,1.0,0.0
3696,64.0,0,240,1.0,0.0
3697,52.0,240,240,1.0,0.0
3698,57.0,180,240,1.0,0.0
3699,61.0,0,240,1.0,0.0
3700,64.0,40,240,1.0,0.0
3701,52.0,0,240,1.0,0.0
3702,42.0,60,60,3.0,0.0
3703,59.0,0,240,1.0,0.0
3704,44.0,0,15,3.0,0.0
3705,62.0,40,240,1.0,0.0
3706,45.0,40,40,3.0,0.0
3707,44.0,40,40,3.0,0.0
3708,45.0,40,40,3.0,0.0
3709,44.0,40,40,3.0,0.0
3710,45.0,0,40,3.0,0.0
3711,44.0,40,40,3.0,0.0
3712,52.0,0,240,1.0,0.0
3713,64.0,0,240,1.0,0.0
3714,45.0,40,40,3.0,0.0
3715,44.0,60,40,3.0,0.0
3716,42.0,60,60,3.0,0.0
3717,44.0,240,60,3.0,0.0
3718,45.0,0,1440,3.0,0.0
3719,61.0,240,240,0.0,0.0
3720,69.0,240,480,0.0,0.0
3721,33.0,240,240,3.0,0.0
3722,57.0,0,240,1.0,0.0
3723,62.0,0,240,1.0,0.0
3724,35.0,0,480,3.0,0.0
3725,57.0,240,240,1.0,0.0
3726,68.0,240,480,0.0,0.0
3727,64.0,0,240,1.0,0.0
3728,37.0,0,480,3.0,0.0
3729,57.0,60,240,1.0,0.0
3730,67.0,0,240,0.0,0.0
3731,38.0,240,60,3.0,0.0
3732,66.0,0,480,0.0,0.0
3733,40.0,180,60,3.0,0.0
3734,57.0,60,15,1.0,0.0
3735,50.0,0,15,1.0,0.0
3736,42.0,240,60,3.0,0.0
3737,40.0,180,60,3.0,0.0
3738,50.0,60,15,1.0,0.0
3739,42.0,240,60,3.0,0.0
3740,66.0,0,15,0.0,0.0
3741,57.0,0,480,1.0,0.0
3742,38.0,180,60,3.0,0.0
3743,64.0,60,480,0.0,0.0
3744,43.0,240,60,3.0,0.0
3745,49.0,0,480,1.0,0.0
3746,45.0,180,60,3.0,0.0
3747,57.0,0,15,1.0,0.0
3748,50.0,0,960,1.0,0.0
3749,42.0,240,60,3.0,0.0
3750,40.0,240,60,3.0,0.0
3751,42.0,240,60,3.0,0.0
3752,38.0,180,60,3.0,0.0
3753,66.0,60,15,0.0,0.0
3754,51.0,0,480,1.0,0.0
3755,45.0,240,60,3.0,0.0
3756,47.0,180,60,3.0,0.0
3757,59.0,60,15,1.0,0.0
3758,52.0,0,960,1.0,0.0
3759,43.0,240,60,3.0,0.0
3760,67.0,60,960,0.0,0.0
3761,42.0,240,60,3.0,0.0
3762,43.0,240,60,3.0,0.0
3763,40.0,180,60,3.0,0.0
3764,69.0,0,480,0.0,0.0
3765,57.0,0,480,1.0,0.0
3766,48.0,240,60,3.0,0.0
3767,54.0,0,480,3.0,0.0
3768,66.0,0,480,1.0,0.0
3769,50.0,180,60,3.0,0.0
3770,47.0,240,60,3.0,0.0
3771,55.0,60,720,3.0,0.0
3772,71.0,120,1440,0.0,0.0
3773,62.0,60,15,1.0,0.0
3774,59.0,0,1440,1.0,0.0
3775,45.0,180,60,3.0,0.0
3776,67.0,0,960,1.0,0.0
3777,43.0,180,60,3.0,0.0
3778,42.0,180,60,3.0,0.0
3779,54.0,120,240,3.0,0.0
3780,40.0,120,120,3.0,0.0
3781,52.0,120,240,3.0,0.0
3782,38.0,120,120,3.0,0.0
3783,50.0,0,240,3.0,0.0
3784,69.0,0,240,1.0,0.0
3785,64.0,0,15,1.0,0.0
3786,61.0,0,240,1.0,0.0
3787,49.0,0,240,3.0,0.0
3788,73.0,0,240,0.0,0.0
3789,37.0,120,120,3.0,0.0
3790,74.0,0,240,0.0,0.0
3791,62.0,0,240,1.0,0.0
3792,35.0,120,120,3.0,0.0
3793,47.0,120,240,3.0,0.0
3794,67.0,0,15,1.0,0.0
3795,73.0,0,480,1.0,0.0
3796,76.0,120,480,0.0,0.0
3797,33.0,120,120,3.0,0.0
3798,45.0,120,240,3.0,0.0
3799,64.0,0,480,1.0,0.0
3800,31.0,120,120,3.0,0.0
3801,43.0,0,240,3.0,0.0
3802,69.0,0,240,1.0,0.0
3803,78.0,0,240,0.0,0.0
3804,42.0,120,240,3.0,0.0
3805,69.0,0,240,1.0,0.0
3806,74.0,0,240,1.0,0.0
3807,30.0,120,120,3.0,0.0
3808,76.0,0,240,0.0,0.0
3809,31.0,120,120,3.0,0.0
3810,71.0,0,240,1.0,0.0
3811,67.0,0,240,1.0,0.0
3812,43.0,240,240,3.0,0.0
3813,45.0,0,480,3.0,0.0
3814,74.0,0,480,0.0,0.0
3815,66.0,240,240,1.0,0.0
3816,69.0,0,240,1.0,0.0
3817,64.0,40,240,1.0,0.0
3818,33.0,40,15,3.0,0.0
3819,73.0,40,40,0.0,0.0
3820,45.0,189,480,3.0,0.0
3821,74.0,40,40,0.0,0.0
3822,73.0,40,40,0.0,0.0
3823,74.0,40,40,0.0,0.0
3824,73.0,40,40,0.0,0.0
3825,74.0,0,40,0.0,0.0
3826,73.0,40,40,0.0,0.0
3827,67.0,3,240,1.0,0.0
3828,74.0,40,40,0.0,0.0
3829,73.0,60,40,0.0,0.0
3830,71.0,60,60,0.0,0.0
3831,73.0,0,60,0.0,0.0
3832,66.0,240,480,1.0,0.0
3833,74.0,288,180,0.0,0.0
3834,38.0,0,480,3.0,0.0
3835,50.0,0,480,3.0,0.0
3836,66.0,0,480,3.0,0.0
3837,74.0,0,240,0.0,0.0
3838,73.0,240,240,0.0,0.0
3839,74.0,240,240,0.0,0.0
3840,67.0,240,480,1.0,0.0
3841,71.0,240,240,0.0,0.0
3842,74.0,0,240,0.0,0.0
3843,69.0,120,720,0.0,0.0
3844,66.0,240,240,1.0,0.0
3845,62.0,240,240,1.0,0.0
3846,61.0,0,240,1.0,0.0
3847,62.0,120,240,1.0,0.0
3848,71.0,120,120,0.0,0.0
3849,69.0,0,15,0.0,0.0
3850,59.0,0,240,1.0,0.0
3851,67.0,120,120,0.0,0.0
3852,62.0,0,240,1.0,0.0
3853,66.0,120,120,0.0,0.0
3854,67.0,480,120,0.0,0.0
3855,57.0,120,600,1.0,0.0
3856,66.0,0,480,0.0,0.0
3857,50.0,120,240,3.0,0.0
3858,49.0,120,240,3.0,0.0
3859,58.0,0,120,1.0,0.0
3860,50.0,120,240,3.0,0.0
3861,59.0,120,120,1.0,0.0
3862,57.0,0,15,1.0,0.0
3863,47.0,120,240,3.0,0.0
3864,55.0,0,120,1.0,0.0
3865,54.0,120,120,1.0,0.0
3866,50.0,0,240,3.0,0.0
3867,55.0,240,120,1.0,0.0
3868,45.0,0,240,3.0,0.0
3869,62.0,240,240,0.0,0.0
3870,54.0,0,240,1.0,0.0
3871,67.0,0,480,0.0,0.0
3872,59.0,0,240,1.0,0.0
3873,52.0,0,480,3.0,0.0
3874,43.0,240,240,3.0,0.0
3875,61.0,240,240,1.0,0.0
3876,45.0,120,960,3.0,0.0
3877,54.0,240,240,3.0,0.0
3878,66.0,0,240,0.0,0.0
3879,62.0,0,480,1.0,0.0
3880,55.0,0,480,3.0,0.0
3881,64.0,240,240,0.0,0.0
3882,69.0,0,240,0.0,0.0
3883,61.0,0,240,1.0,0.0
3884,62.0,120,120,0.0,0.0
3885,54.0,0,480,3.0,0.0
3886,50.0,120,480,3.0,0.0
3887,62.0,0,120,1.0,0.0
3888,74.0,120,120,0.0,0.0
3889,73.0,120,120,0.0,0.0
3890,74.0,0,120,0.0,0.0
3891,76.0,120,120,0.0,0.0
3892,74.0,120,120,0.0,0.0
3893,71.0,120,120,0.0,0.0
3894,67.0,120,240,3.0,0.0
3895,74.0,0,120,0.0,0.0
3896,66.0,0,240,3.0,0.0
3897,69.0,120,120,0.0,0.0
3898,74.0,120,120,0.0,0.0
3899,68.0,120,120,0.0,0.0
3900,65.0,120,240,3.0,0.0
3901,74.0,0,120,0.0,0.0
3902,66.0,120,120,3.0,0.0
3903,69.0,120,720,0.0,0.0
3904,62.0,120,120,3.0,0.0
3905,61.0,120,120,3.0,0.0
3906,62.0,120,120,3.0,0.0
3907,64.0,120,120,3.0,0.0
3908,62.0,0,120,3.0,0.0
3909,59.0,120,120,3.0,0.0
3910,67.0,0,240,0.0,0.0
3911,62.0,120,120,3.0,0.0
3912,66.0,120,240,0.0,0.0
3913,57.0,120,120,3.0,0.0
3914,62.0,0,120,3.0,0.0
3915,65.0,0,240,0.0,0.0
3916,56.0,120,120,3.0,0.0
3917,62.0,240,120,3.0,0.0
3918,66.0,120,480,0.0,0.0
3919,57.0,0,480,3.0,0.0
3920,50.0,120,120,3.0,0.0
3921,49.0,120,120,3.0,0.0
3922,50.0,0,120,3.0,0.0
3923,52.0,78,120,3.0,0.0
3924,50.0,120,90,3.0,0.0
3925,62.0,0,240,1.0,0.0
3926,55.0,0,240,1.0,0.0
3927,47.0,120,90,3.0,0.0
3928,67.0,78,240,0.0,0.0
3929,50.0,42,90,3.0,0.0
3930,57.0,0,240,1.0,0.0
3931,62.0,78,240,1.0,0.0
3932,45.0,120,90,3.0,0.0
3933,66.0,0,240,0.0,0.0
3934,50.0,42,90,3.0,0.0
3935,71.0,78,240,0.0,0.0
3936,43.0,120,90,3.0,0.0
3937,59.0,0,240,1.0,0.0
3938,50.0,42,90,3.0,0.0
3939,57.0,0,240,1.0,0.0
3940,62.0,0,15,1.0,0.0
3941,69.0,0,240,0.0,0.0
3942,42.0,120,90,3.0,0.0
3943,54.0,42,90,3.0,0.0
3944,59.0,0,240,1.0,0.0
3945,67.0,156,240,0.0,0.0
3946,64.0,0,240,1.0,0.0
3947,43.0,120,90,3.0,0.0
3948,55.0,42,90,3.0,0.0
3949,45.0,240,150,3.0,0.0
3950,62.0,149,480,1.0,0.0
3951,66.0,0,480,0.0,0.0
3952,57.0,84,150,3.0,0.0
3953,64.0,60,480,0.0,0.0
3954,45.0,233,150,3.0,0.0
3955,61.0,0,480,1.0,0.0
3956,55.0,98,150,3.0,0.0
3957,38.0,240,60,3.0,0.0
3958,53.0,0,480,1.0,0.0
3959,57.0,0,480,1.0,0.0
3960,40.0,180,60,3.0,0.0
3961,41.0,240,60,3.0,0.0
3962,50.0,0,15,1.0,0.0
3963,62.0,0,15,1.0,0.0
3964,65.0,60,15,0.0,0.0
3965,53.0,0,480,1.0,0.0
3966,40.0,180,60,3.0,0.0
3967,41.0,240,60,3.0,0.0
3968,65.0,0,480,0.0,0.0
3969,57.0,60,15,1.0,0.0
3970,53.0,60,480,1.0,0.0
3971,50.0,0,480,1.0,0.0
3972,62.0,0,480,1.0,0.0
3973,38.0,180,60,3.0,0.0
3974,57.0,0,15,1.0,0.0
3975,52.0,0,480,1.0,0.0
3976,61.0,0,480,1.0,0.0
3977,49.0,0,480,1.0,0.0
3978,43.0,240,60,3.0,0.0
3979,64.0,0,480,0.0,0.0
3980,45.0,180,60,3.0,0.0
3981,57.0,60,15,1.0,0.0
3982,62.0,0,960,1.0,0.0
3983,50.0,0,960,1.0,0.0
3984,65.0,0,960,0.0,0.0
3985,41.0,240,60,3.0,0.0
3986,40.0,240,60,3.0,0.0
3987,41.0,240,60,3.0,0.0
3988,38.0,180,60,3.0,0.0
3989,63.0,0,480,1.0,0.0
3990,60.0,0,480,1.0,0.0
3991,53.0,240,15,1.0,0.0
3992,57.0,0,480,1.0,0.0
3993,39.0,240,240,3.0,0.0
3994,51.0,0,240,3.0,0.0
3995,38.0,240,240,3.0,0.0
3996,50.0,0,240,3.0,0.0
3997,63.0,0,480,1.0,0.0
3998,65.0,0,15,0.0,0.0
3999,36.0,240,240,3.0,0.0
4000,48.0,0,240,3.0,0.0
4001,34.0,0,240,3.0,0.0
4002,46.0,240,240,3.0,0.0
4003,53.0,0,15,1.0,0.0
4004,57.0,0,15,1.0,0.0
4005,65.0,0,15,0.0,0.0
4006,60.0,0,15,1.0,0.0
4007,63.0,0,480,1.0,0.0
4008,45.0,240,240,3.0,0.0
4009,33.0,0,240,3.0,0.0
4010,29.0,240,240,3.0,0.0
4011,41.0,0,240,3.0,0.0
4012,34.0,13,240,3.0,0.0
4013,58.0,240,960,1.0,0.0
4014,62.0,0,960,1.0,0.0
4015,53.0,0,960,1.0,0.0
4016,46.0,227,240,3.0,0.0
4017,65.0,0,15,0.0,0.0
4018,36.0,0,240,3.0,0.0
4019,48.0,240,240,3.0,0.0
4020,38.0,240,240,3.0,0.0
4021,50.0,0,240,3.0,0.0
4022,39.0,0,240,3.0,0.0
4023,51.0,0,240,3.0,0.0
4024,53.0,0,240,3.0,0.0
4025,41.0,120,240,3.0,0.0
4026,74.0,0,480,0.0,0.0
4027,43.0,120,120,3.0,0.0
4028,55.0,0,120,3.0,0.0
4029,45.0,0,120,3.0,0.0
4030,57.0,0,120,3.0,0.0
4031,62.0,0,15,1.0,0.0
4032,70.0,0,15,1.0,0.0
4033,65.0,232,15,1.0,0.0
4034,46.0,0,15,3.0,0.0
4035,58.0,1,240,3.0,0.0
4036,74.0,0,960,0.0,0.0
4037,60.0,240,240,3.0,0.0
4038,48.0,0,240,3.0,0.0
4039,62.0,240,240,3.0,0.0
4040,50.0,0,240,3.0,0.0
4041,63.0,0,240,3.0,0.0
4042,51.0,240,240,3.0,0.0
4043,58.0,0,480,3.0,0.0
4044,65.0,120,240,3.0,0.0
4045,53.0,0,240,3.0,0.0
4046,67.0,0,120,3.0,0.0
4047,55.0,120,120,3.0,0.0
4048,57.0,0,120,3.0,0.0
4049,69.0,0,120,3.0,0.0
4050,77.0,0,15,1.0,0.0
4051,74.0,0,15,1.0,0.0
4052,86.0,240,15,0.0,0.0
4053,58.0,240,240,3.0,0.0
4054,70.0,0,240,3.0,0.0
4055,69.0,240,240,3.0,0.0
4056,57.0,0,240,3.0,0.0
4057,58.0,0,240,3.0,0.0
4058,70.0,240,240,3.0,0.0
4059,57.0,0,240,3.0,0.0
4060,69.0,240,240,3.0,0.0
4061,77.0,240,480,0.0,0.0
4062,74.0,0,15,1.0,0.0
4063,68.0,0,15,3.0,0.0
4064,56.0,240,15,3.0,0.0
4065,57.0,0,1440,3.0,0.0
4066,69.0,240,240,3.0,0.0
4067,76.0,0,480,0.0,0.0
4068,73.0,0,480,1.0,0.0
4069,68.0,480,240,3.0,0.0
4070,69.0,0,960,3.0,0.0
4071,76.0,0,240,1.0,0.0
4072,79.0,240,240,0.0,0.0
4073,73.0,240,240,1.0,0.0
4074,76.0,0,240,0.0,0.0
4075,74.0,0,240,0.0,0.0
4076,71.0,480,240,1.0,0.0
4077,73.0,480,480,0.0,0.0
4078,69.0,0,480,1.0,0.0
4079,56.0,0,240,3.0,0.0
4080,57.0,0,960,3.0,0.0
4081,79.0,240,240,1.0,0.0
4082,83.0,0,240,0.0,0.0
4083,76.0,240,240,1.0,0.0
4084,79.0,0,240,0.0,0.0
4085,74.0,480,240,1.0,0.0
4086,78.0,0,240,0.0,0.0
4087,73.0,480,480,1.0,0.0
4088,76.0,0,480,0.0,0.0
4089,44.0,0,240,3.0,0.0
4090,45.0,0,1680,3.0,0.0
4091,88.0,240,240,0.0,0.0
4092,83.0,0,240,1.0,0.0
4093,79.0,0,15,1.0,0.0
4094,76.0,240,240,1.0,0.0
4095,85.0,0,240,0.0,0.0
4096,83.0,0,240,0.0,0.0
4097,74.0,0,240,1.0,0.0
4098,78.0,240,240,1.0,0.0
4099,57.0,0,15,3.0,0.0
4100,81.0,0,240,0.0,0.0
4101,73.0,0,240,1.0,0.0
4102,76.0,240,240,1.0,0.0
4103,74.0,0,240,1.0,0.0
4104,71.0,240,240,1.0,0.0
4105,57.0,0,15,3.0,0.0
4106,79.0,0,240,0.0,0.0
4107,73.0,0,240,1.0,0.0
4108,69.0,0,240,1.0,0.0
4109,78.0,0,240,0.0,0.0
4110,57.0,240,15,3.0,0.0
4111,76.0,0,240,0.0,0.0
4112,67.0,0,240,1.0,0.0
4113,71.0,240,240,1.0,0.0
4114,57.0,240,240,3.0,0.0
4115,74.0,0,240,0.0,0.0
4116,69.0,0,240,1.0,0.0
4117,66.0,0,240,1.0,0.0
4118,57.0,0,240,3.0,0.0
4119,64.0,0,240,1.0,0.0
4120,67.0,0,240,1.0,0.0
4121,76.0,60,240,0.0,0.0
4122,73.0,0,240,1.0,0.0
4123,50.0,180,60,3.0,0.0
4124,69.0,0,60,2.0,0.0
4125,62.0,0,480,1.0,0.0
4126,69.0,60,120,2.0,0.0
4127,68.0,60,120,2.0,0.0
4128,52.0,60,60,3.0,0.0
4129,69.0,60,60,2.0,0.0
4130,69.0,180,60,2.0,0.0
4131,54.0,0,60,3.0,0.0
4132,78.0,60,15,0.0,0.0
4133,69.0,60,120,2.0,0.0
4134,52.0,60,60,3.0,0.0
4135,68.0,60,120,2.0,0.0
4136,69.0,60,60,2.0,0.0
4137,62.0,60,15,1.0,0.0
4138,69.0,180,60,2.0,0.0
4139,54.0,0,60,3.0,0.0
4140,78.0,0,480,0.0,0.0
4141,69.0,60,120,2.0,0.0
4142,50.0,60,60,3.0,0.0
4143,68.0,60,120,2.0,0.0
4144,69.0,60,60,2.0,0.0
4145,55.0,180,60,3.0,0.0
4146,76.0,0,480,0.0,0.0
4147,69.0,0,60,2.0,0.0
4148,61.0,60,480,1.0,0.0
4149,69.0,60,120,2.0,0.0
4150,57.0,60,60,3.0,0.0
4151,68.0,60,120,2.0,0.0
4152,69.0,60,60,2.0,0.0
4153,69.0,180,60,2.0,0.0
4154,54.0,0,60,3.0,0.0
4155,78.0,0,960,0.0,0.0
4156,62.0,60,960,1.0,0.0
4157,69.0,60,120,2.0,0.0
4158,68.0,60,120,2.0,0.0
4159,52.0,60,60,3.0,0.0
4160,69.0,120,60,2.0,0.0
4161,54.0,180,60,3.0,0.0
4162,69.0,0,60,2.0,0.0
4163,69.0,60,120,2.0,0.0
4164,68.0,60,120,2.0,0.0
4165,50.0,60,60,3.0,0.0
4166,69.0,60,60,2.0,0.0
4167,79.0,0,960,0.0,0.0
4168,64.0,60,960,1.0,0.0
4169,49.0,0,60,3.0,0.0
4170,69.0,180,60,2.0,0.0
4171,69.0,60,120,2.0,0.0
4172,68.0,60,120,2.0,0.0
4173,57.0,60,60,3.0,0.0
4174,69.0,120,60,2.0,0.0
4175,69.0,180,60,2.0,0.0
4176,59.0,0,60,3.0,0.0
4177,69.0,60,120,2.0,0.0
4178,68.0,60,120,2.0,0.0
4179,61.0,60,60,3.0,0.0
4180,69.0,60,60,2.0,0.0
4181,62.0,180,60,3.0,0.0
4182,78.0,60,480,0.0,0.0
4183,62.0,0,480,1.0,0.0
4184,69.0,0,60,2.0,0.0
4185,69.0,60,120,2.0,0.0
4186,56.0,60,60,3.0,0.0
4187,68.0,60,120,2.0,0.0
4188,69.0,60,60,2.0,0.0
4189,61.0,0,480,3.0,0.0
4190,69.0,180,60,2.0,0.0
4191,61.0,0,240,1.0,0.0
4192,57.0,0,480,3.0,0.0
4193,76.0,120,240,0.0,0.0
4194,69.0,0,120,2.0,0.0
4195,68.0,120,120,2.0,0.0
4196,69.0,120,120,2.0,0.0
4197,68.0,120,120,2.0,0.0
4198,69.0,120,120,2.0,0.0
4199,71.0,120,120,2.0,0.0
4200,69.0,120,15,2.0,0.0
4201,67.0,120,120,2.0,0.0
4202,66.0,120,120,2.0,0.0
4203,64.0,60,120,2.0,0.0
4204,62.0,180,60,2.0,0.0
4205,42.0,120,240,3.0,0.0
4206,62.0,0,120,2.0,0.0
4207,41.0,0,240,3.0,0.0
4208,61.0,60,120,2.0,0.0
4209,62.0,60,60,2.0,0.0
4210,42.0,120,240,3.0,0.0
4211,50.0,0,15,1.0,0.0
4212,69.0,60,15,0.0,0.0
4213,62.0,180,60,2.0,0.0
4214,62.0,0,120,2.0,0.0
4215,61.0,60,120,2.0,0.0
4216,41.0,0,240,3.0,0.0
4217,62.0,60,60,2.0,0.0
4218,42.0,120,240,3.0,0.0
4219,62.0,180,60,2.0,0.0
4220,70.0,0,480,0.0,0.0
4221,50.0,0,480,1.0,0.0
4222,62.0,0,120,2.0,0.0
4223,61.0,60,120,2.0,0.0
4224,38.0,60,240,3.0,0.0
4225,62.0,60,60,2.0,0.0
4226,71.0,0,960,0.0,0.0
4227,50.0,60,480,1.0,0.0
4228,43.0,0,240,3.0,0.0
4229,62.0,180,60,2.0,0.0
4230,62.0,120,120,2.0,0.0
4231,61.0,60,120,2.0,0.0
4232,45.0,0,240,3.0,0.0
4233,62.0,60,60,2.0,0.0
4234,47.0,0,240,3.0,0.0
4235,55.0,0,240,1.0,0.0
4236,62.0,180,60,2.0,0.0
4237,62.0,120,120,2.0,0.0
4238,55.0,0,240,1.0,0.0
4239,64.0,60,120,2.0,0.0
4240,49.0,120,240,3.0,0.0
4241,64.0,60,60,2.0,0.0
4242,54.0,120,240,1.0,0.0
4243,50.0,0,240,3.0,0.0
4244,66.0,120,120,2.0,0.0
4245,69.0,0,240,0.0,0.0
4246,57.0,0,120,2.0,0.0
4247,52.0,0,240,3.0,0.0
4248,67.0,120,240,0.0,0.0
4249,61.0,120,120,2.0,0.0
4250,55.0,0,240,1.0,0.0
4251,57.0,0,120,2.0,0.0
4252,62.0,120,120,2.0,0.0
4253,54.0,120,240,1.0,0.0
4254,42.0,0,240,3.0,0.0
4255,66.0,0,240,0.0,0.0
4256,57.0,0,120,2.0,0.0
4257,59.0,120,120,2.0,0.0
4258,43.0,0,240,3.0,0.0
4259,64.0,120,240,0.0,0.0
4260,55.0,0,120,2.0,0.0
4261,45.0,120,480,3.0,0.0
4262,62.0,0,480,0.0,0.0
4263,54.0,60,120,2.0,0.0
4264,57.0,120,60,2.0,0.0
4265,57.0,120,60,2.0,0.0
4266,57.0,60,60,2.0,0.0
4267,61.0,480,480,0.0,0.0
4268,45.0,0,480,3.0,0.0
4269,52.0,0,480,3.0,0.0
4270,55.0,60,120,2.0,0.0
4271,57.0,120,60,2.0,0.0
4272,57.0,120,60,2.0,0.0
4273,57.0,60,60,2.0,0.0
4274,57.0,0,480,2.0,0.0
4275,54.0,0,480,2.0,0.0
4276,38.0,10,1680,3.0,0.0
4277,62.0,0,480,0.0,0.0
4278,50.0,240,240,3.0,0.0
4279,49.0,240,240,3.0,0.0
4280,47.0,360,240,3.0,0.0
4281,45.0,5,2160,3.0,0.0
4282,67.0,120,360,0.0,0.0
4283,61.0,0,480,1.0,0.0
4284,64.0,230,480,1.0,0.0
4285,69.0,0,120,0.0,0.0
4286,62.0,0,240,1.0,0.0
4287,66.0,240,240,0.0,0.0
4288,57.0,0,240,1.0,0.0
4289,38.0,240,240,3.0,0.0
4290,37.0,240,240,3.0,0.0
4291,35.0,360,240,3.0,0.0
4292,33.0,0,720,3.0,0.0
4293,55.0,235,480,1.0,0.0
4294,61.0,0,480,1.0,0.0
4295,64.0,120,360,0.0,0.0
4296,66.0,0,120,0.0,0.0
4297,54.0,120,240,1.0,0.0
4298,62.0,0,240,0.0,0.0
4299,57.0,0,240,1.0,0.0
4300,50.0,120,120,3.0,0.0
4301,49.0,120,120,3.0,0.0
4302,52.0,78,120,3.0,0.0
4303,50.0,120,90,3.0,0.0
4304,49.0,120,90,3.0,0.0
4305,47.0,162,90,3.0,0.0
4306,61.0,0,480,1.0,0.0
4307,45.0,120,1440,3.0,0.0
4308,67.0,120,120,0.0,0.0
4309,64.0,0,480,1.0,0.0
4310,71.0,120,120,0.0,0.0
4311,69.0,120,120,0.0,0.0
4312,67.0,240,120,0.0,0.0
4313,62.0,120,240,1.0,0.0
4314,57.0,0,240,1.0,0.0
4315,66.0,0,240,0.0,0.0
4316,38.0,120,120,3.0,0.0
4317,37.0,120,120,3.0,0.0
4318,40.0,78,120,3.0,0.0
4319,38.0,120,90,3.0,0.0
4320,37.0,142,90,3.0,0.0
4321,35.0,20,90,3.0,0.0
4322,55.0,205,480,1.0,0.0
4323,64.0,120,120,0.0,0.0
4324,33.0,155,690,3.0,0.0
4325,61.0,0,480,1.0,0.0
4326,67.0,120,120,0.0,0.0
4327,66.0,120,120,0.0,0.0
4328,64.0,0,120,0.0,0.0
4329,62.0,0,960,0.0,0.0
4330,54.0,240,720,1.0,0.0
4331,35.0,120,120,3.0,0.0
4332,37.0,240,120,3.0,0.0
4333,57.0,0,240,1.0,0.0
4334,54.0,240,240,1.0,0.0
4335,38.0,240,15,3.0,0.0
4336,57.0,1440,240,1.0,0.0
4337,54.0,1080,1440,1.0,0.0
4338,45.0,0,1440,3.0,0.0
4339,50.0,0,1440,3.0,0.0
4340,62.0,0,15,0.0,0.0
4341,81.0,120,120,0.0,0.0
4342,76.0,120,120,0.0,0.0
4343,85.0,120,120,0.0,0.0
4344,81.0,240,120,0.0,0.0
4345,88.0,480,240,0.0,0.0
4346,61.0,360,240,3.0,0.0
4347,57.0,0,240,3.0,0.0
4348,64.0,0,240,3.0,0.0
4349,73.0,120,120,0.0,0.0
4350,69.0,120,120,0.0,0.0
4351,76.0,120,120,0.0,0.0
4352,73.0,240,120,0.0,0.0
4353,81.0,480,240,0.0,0.0
4354,57.0,0,240,3.0,0.0
4355,52.0,0,240,3.0,0.0
4356,45.0,0,240,3.0,0.0
4357,49.0,360,240,3.0,0.0
4358,61.0,120,120,0.0,0.0
4359,57.0,120,120,0.0,0.0
4360,64.0,120,120,0.0,0.0
4361,61.0,240,120,0.0,0.0
4362,57.0,480,240,3.0,0.0
4363,69.0,0,240,0.0,0.0
4364,59.0,0,240,1.0,0.0
4365,63.0,0,240,1.0,0.0
4366,54.0,480,240,3.0,0.0
4367,69.0,0,240,0.0,0.0
4368,66.0,0,240,1.0,0.0
4369,69.0,0,240,0.0,0.0
4370,51.0,0,240,3.0,0.0
4371,59.0,720,240,1.0,0.0
4372,52.0,0,480,3.0,0.0
4373,59.0,120,960,1.0,0.0
4374,69.0,240,480,0.0,0.0
4375,66.0,0,480,1.0,0.0
4376,64.0,240,240,1.0,0.0
4377,68.0,0,240,0.0,0.0
4378,40.0,0,240,3.0,0.0
4379,80.0,120,120,0.0,0.0
4380,76.0,120,120,0.0,0.0
4381,83.0,120,120,0.0,0.0
4382,80.0,240,120,0.0,0.0
4383,86.0,480,240,0.0,0.0
4384,62.0,0,240,3.0,0.0
4385,56.0,0,240,3.0,0.0
4386,52.0,360,240,3.0,0.0
4387,59.0,0,240,3.0,0.0
4388,68.0,120,120,0.0,0.0
4389,64.0,120,120,0.0,0.0
4390,71.0,120,120,0.0,0.0
4391,68.0,240,120,0.0,0.0
4392,74.0,480,240,0.0,0.0
4393,40.0,360,240,3.0,0.0
4394,52.0,0,240,3.0,0.0
4395,44.0,0,240,3.0,0.0
4396,47.0,0,240,3.0,0.0
4397,62.0,120,120,0.0,0.0
4398,59.0,120,120,0.0,0.0
4399,64.0,120,120,0.0,0.0
4400,62.0,240,120,0.0,0.0
4401,68.0,480,240,0.0,0.0
4402,59.0,0,240,3.0,0.0
4403,62.0,0,240,1.0,0.0
4404,52.0,0,240,3.0,0.0
4405,68.0,480,240,0.0,0.0
4406,68.0,0,240,0.0,0.0
4407,59.0,0,240,3.0,0.0
4408,52.0,720,240,3.0,0.0
4409,62.0,0,240,1.0,0.0
4410,71.0,0,480,0.0,0.0
4411,56.0,240,480,3.0,0.0
4412,45.0,120,960,3.0,0.0
4413,62.0,0,480,1.0,0.0
4414,69.0,0,240,0.0,0.0
4415,61.0,240,240,1.0,0.0
4416,57.0,0,240,3.0,0.0
4417,81.0,120,120,0.0,0.0
4418,76.0,120,120,0.0,0.0
4419,85.0,120,120,0.0,0.0
4420,81.0,240,120,0.0,0.0
4421,88.0,480,240,0.0,0.0
4422,64.0,0,240,3.0,0.0
4423,61.0,360,240,3.0,0.0
4424,57.0,0,240,3.0,0.0
4425,73.0,120,120,0.0,0.0
4426,69.0,120,120,0.0,0.0
4427,76.0,120,120,0.0,0.0
4428,73.0,240,120,0.0,0.0
4429,81.0,480,240,0.0,0.0
4430,49.0,0,240,3.0,0.0
4431,52.0,0,240,3.0,0.0
4432,57.0,360,240,3.0,0.0
4433,45.0,0,240,3.0,0.0
4434,61.0,120,120,0.0,0.0
4435,57.0,120,120,0.0,0.0
4436,64.0,120,120,0.0,0.0
4437,61.0,240,120,0.0,0.0
4438,69.0,0,240,0.0,0.0
4439,57.0,480,240,3.0,0.0
4440,54.0,0,240,3.0,0.0
4441,63.0,0,240,1.0,0.0
4442,69.0,480,240,0.0,0.0
4443,59.0,0,240,1.0,0.0
4444,51.0,0,240,3.0,0.0
4445,59.0,0,240,1.0,0.0
4446,66.0,0,240,1.0,0.0
4447,69.0,720,240,0.0,0.0
4448,69.0,0,480,0.0,0.0
4449,66.0,240,480,1.0,0.0
4450,59.0,120,960,1.0,0.0
4451,52.0,0,480,3.0,0.0
4452,68.0,0,240,0.0,0.0
4453,64.0,240,240,1.0,0.0
4454,40.0,0,240,3.0,0.0
4455,80.0,120,120,0.0,0.0
4456,76.0,120,120,0.0,0.0
4457,83.0,120,120,0.0,0.0
4458,80.0,240,120,0.0,0.0
4459,86.0,480,240,0.0,0.0
4460,59.0,0,240,3.0,0.0
4461,62.0,0,240,3.0,0.0
4462,52.0,360,240,3.0,0.0
4463,56.0,0,240,3.0,0.0
4464,68.0,120,120,0.0,0.0
4465,64.0,120,120,0.0,0.0
4466,71.0,120,120,0.0,0.0
4467,68.0,240,120,0.0,0.0
4468,74.0,480,240,0.0,0.0
4469,40.0,360,240,3.0,0.0
4470,52.0,0,240,3.0,0.0
4471,47.0,0,240,3.0,0.0
4472,44.0,0,240,3.0,0.0
4473,62.0,120,120,0.0,0.0
4474,59.0,120,120,0.0,0.0
4475,64.0,120,120,0.0,0.0
4476,62.0,240,120,0.0,0.0
4477,68.0,480,240,0.0,0.0
4478,62.0,0,240,1.0,0.0
4479,68.0,0,240,0.0,0.0
4480,59.0,480,240,3.0,0.0
4481,52.0,0,240,3.0,0.0
4482,68.0,720,240,0.0,0.0
4483,59.0,0,240,3.0,0.0
4484,52.0,0,240,3.0,0.0
4485,62.0,0,240,1.0,0.0
4486,62.0,0,480,1.0,0.0
4487,56.0,0,480,3.0,0.0
4488,45.0,120,960,3.0,0.0
4489,71.0,240,480,0.0,0.0
4490,57.0,240,240,3.0,0.0
4491,61.0,0,240,1.0,0.0
4492,69.0,0,240,0.0,0.0
4493,56.0,120,120,3.0,0.0
4494,52.0,120,120,3.0,0.0
4495,59.0,120,120,3.0,0.0
4496,56.0,240,120,3.0,0.0
4497,64.0,480,240,3.0,0.0
4498,68.0,0,240,1.0,0.0
4499,76.0,360,240,0.0,0.0
4500,71.0,0,240,1.0,0.0
4501,56.0,120,120,3.0,0.0
4502,50.0,120,120,3.0,0.0
4503,59.0,120,120,3.0,0.0
4504,56.0,240,120,3.0,0.0
4505,62.0,480,240,3.0,0.0
4506,66.0,0,240,1.0,0.0
4507,73.0,0,240,1.0,0.0
4508,78.0,360,240,0.0,0.0
4509,53.0,120,120,3.0,0.0
4510,49.0,120,120,3.0,0.0
4511,56.0,120,120,3.0,0.0
4512,53.0,240,120,3.0,0.0
4513,61.0,480,240,3.0,0.0
4514,80.0,0,240,0.0,0.0
4515,77.0,0,240,1.0,0.0
4516,71.0,0,240,1.0,0.0
4517,68.0,480,240,1.0,0.0
4518,61.0,720,240,3.0,0.0
4519,61.0,0,480,3.0,0.0
4520,77.0,0,480,0.0,0.0
4521,68.0,240,480,1.0,0.0
4522,71.0,0,480,1.0,0.0
4523,54.0,360,240,3.0,0.0
4524,69.0,0,240,1.0,0.0
4525,78.0,0,240,0.0,0.0
4526,57.0,120,120,3.0,0.0
4527,54.0,120,120,3.0,0.0
4528,61.0,120,120,3.0,0.0
4529,57.0,240,120,3.0,0.0
4530,66.0,480,240,3.0,0.0
4531,78.0,360,240,0.0,0.0
4532,73.0,0,240,1.0,0.0
4533,69.0,0,240,1.0,0.0
4534,56.0,120,120,3.0,0.0
4535,52.0,120,120,3.0,0.0
4536,61.0,120,120,3.0,0.0
4537,56.0,240,120,3.0,0.0
4538,64.0,480,240,3.0,0.0
4539,73.0,0,240,1.0,0.0
4540,80.0,360,240,0.0,0.0
4541,68.0,0,240,1.0,0.0
4542,55.0,120,120,3.0,0.0
4543,51.0,120,120,3.0,0.0
4544,58.0,120,120,3.0,0.0
4545,55.0,240,120,3.0,0.0
4546,63.0,480,240,3.0,0.0
4547,82.0,0,240,0.0,0.0
4548,79.0,0,240,1.0,0.0
4549,70.0,480,240,1.0,0.0
4550,73.0,0,240,1.0,0.0
4551,63.0,720,240,3.0,0.0
4552,70.0,0,480,1.0,0.0
4553,63.0,0,480,3.0,0.0
4554,79.0,0,480,0.0,0.0
4555,73.0,240,480,1.0,0.0
4556,56.0,0,240,3.0,0.0
4557,80.0,0,240,0.0,0.0
4558,71.0,1200,240,1.0,0.0
4559,75.0,240,480,0.0,0.0
4560,59.0,0,480,3.0,0.0
4561,68.0,0,15,1.0,0.0
4562,76.0,1680,240,0.0,0.0
4563,61.0,0,240,3.0,0.0
4564,68.0,480,480,0.0,0.0
4565,63.0,0,480,1.0,0.0
4566,51.0,0,480,3.0,0.0
4567,59.0,0,480,3.0,0.0
4568,58.0,0,480,3.0,0.0
4569,51.0,0,480,3.0,0.0
4570,67.0,156,480,0.0,0.0
4571,61.0,0,480,1.0,0.0
4572,56.0,84,150,3.0,0.0
4573,44.0,0,150,3.0,0.0
4574,59.0,240,240,1.0,0.0
4575,68.0,0,240,0.0,0.0
4576,63.0,240,240,2.0,0.0
4577,59.0,24,450,3.0,0.0
4578,75.0,216,240,0.0,0.0
4579,63.0,240,240,2.0,0.0
4580,56.0,24,450,3.0,0.0
4581,75.0,216,240,0.0,0.0
4582,63.0,456,240,2.0,0.0
4583,75.0,0,960,0.0,0.0
4584,58.0,24,450,3.0,0.0
4585,63.0,456,240,2.0,0.0
4586,61.0,24,450,3.0,0.0
4587,63.0,456,240,2.0,0.0
4588,67.0,456,480,0.0,0.0
4589,58.0,24,450,3.0,0.0
4590,63.0,0,240,2.0,0.0
4591,68.0,480,480,0.0,0.0
4592,59.0,24,450,3.0,0.0
4593,63.0,0,240,2.0,0.0
4594,58.0,398,480,3.0,0.0
4595,70.0,12,480,0.0,0.0
4596,61.0,0,240,2.0,0.0
4597,71.0,28,420,0.0,0.0
4598,56.0,42,450,3.0,0.0
4599,59.0,438,240,2.0,0.0
4600,71.0,0,60,0.0,0.0
4601,70.0,0,480,0.0,0.0
4602,49.0,42,450,3.0,0.0
4603,61.0,438,240,2.0,0.0
4604,51.0,42,450,3.0,0.0
4605,68.0,80,480,0.0,0.0
4606,59.0,0,240,2.0,0.0
4607,51.0,42,450,3.0,0.0
4608,67.0,80,90,0.0,0.0
4609,68.0,80,90,0.0,0.0
4610,67.0,120,90,0.0,0.0
4611,58.0,360,240,2.0,0.0
4612,65.0,78,120,0.0,0.0
4613,67.0,0,120,0.0,0.0
4614,68.0,30,360,0.0,0.0
4615,56.0,90,390,3.0,0.0
4616,63.0,360,240,2.0,0.0
4617,75.0,78,360,0.0,0.0
4618,59.0,42,450,3.0,0.0
4619,63.0,360,240,2.0,0.0
4620,56.0,42,450,3.0,0.0
4621,75.0,78,360,0.0,0.0
4622,63.0,438,240,2.0,0.0
4623,58.0,42,450,3.0,0.0
4624,75.0,438,960,0.0,0.0
4625,63.0,438,240,2.0,0.0
4626,61.0,42,450,3.0,0.0
4627,63.0,0,240,2.0,0.0
4628,58.0,42,450,3.0,0.0
4629,67.0,720,480,0.0,0.0
4630,63.0,0,240,2.0,0.0
4631,63.0,0,1440,3.0,0.0
4632,68.0,720,1440,0.0,0.0
4633,75.0,480,240,0.0,0.0
4634,75.0,240,240,0.0,0.0
4635,59.0,0,15,3.0,0.0
4636,66.0,0,1440,3.0,0.0
4637,75.0,0,1440,0.0,0.0
4638,69.0,480,240,0.0,0.0
4639,69.0,240,240,0.0,0.0
4640,68.0,0,1440,0.0,0.0
4641,59.0,720,15,3.0,0.0
4642,64.0,0,1440,3.0,0.0
4643,52.0,0,1440,3.0,0.0
4644,74.0,480,240,0.0,0.0
4645,74.0,240,240,0.0,0.0
4646,73.0,0,1440,0.0,0.0
4647,57.0,720,1440,3.0,0.0
4648,64.0,0,1440,3.0,0.0
4649,67.0,480,240,0.0,0.0
4650,67.0,240,240,0.0,0.0
4651,66.0,0,1440,0.0,0.0
4652,62.0,0,1440,3.0,0.0
4653,57.0,720,1440,3.0,0.0
4654,50.0,0,1440,3.0,0.0
4655,74.0,480,240,0.0,0.0
4656,74.0,240,240,0.0,0.0
4657,52.0,0,1440,3.0,0.0
4658,59.0,0,1440,3.0,0.0
4659,47.0,0,1440,3.0,0.0
4660,68.0,0,1440,0.0,0.0
4661,62.0,2520,1440,0.0,0.0
4662,74.0,480,240,0.0,0.0
4663,74.0,240,240,0.0,0.0
4664,81.0,120,120,0.0,0.0
4665,76.0,120,120,0.0,0.0
4666,85.0,120,120,0.0,0.0
4667,81.0,240,120,0.0,0.0
4668,88.0,480,240,0.0,0.0
4669,64.0,0,240,3.0,0.0
4670,57.0,360,240,3.0,0.0
4671,61.0,0,240,3.0,0.0
4672,73.0,120,120,0.0,0.0
4673,69.0,120,120,0.0,0.0
4674,76.0,120,120,0.0,0.0
4675,73.0,240,120,0.0,0.0
4676,81.0,480,240,0.0,0.0
4677,45.0,0,240,3.0,0.0
4678,49.0,360,240,3.0,0.0
4679,57.0,0,240,3.0,0.0
4680,52.0,0,240,3.0,0.0
4681,61.0,120,120,0.0,0.0
4682,57.0,120,120,0.0,0.0
4683,64.0,120,120,0.0,0.0
4684,61.0,240,120,0.0,0.0
4685,69.0,480,240,0.0,0.0
4686,57.0,0,240,3.0,0.0
4687,54.0,0,240,3.0,0.0
4688,59.0,0,240,0.0,0.0
4689,69.0,480,240,0.0,0.0
4690,63.0,0,240,0.0,0.0
4691,59.0,0,240,0.0,0.0
4692,69.0,0,240,0.0,0.0
4693,66.0,0,240,0.0,0.0
4694,51.0,720,240,3.0,0.0
4695,52.0,0,480,3.0,0.0
4696,66.0,0,480,0.0,0.0
4697,69.0,360,480,0.0,0.0
4698,59.0,120,960,0.0,0.0
4699,68.0,0,360,0.0,0.0
4700,40.0,120,360,3.0,0.0
4701,64.0,0,360,0.0,0.0
4702,80.0,120,120,0.0,0.0
4703,76.0,120,120,0.0,0.0
4704,83.0,120,120,0.0,0.0
4705,80.0,240,120,0.0,0.0
4706,86.0,480,240,0.0,0.0
4707,52.0,0,240,3.0,0.0
4708,59.0,360,240,3.0,0.0
4709,62.0,0,240,3.0,0.0
4710,56.0,0,240,3.0,0.0
4711,68.0,120,120,0.0,0.0
4712,64.0,120,120,0.0,0.0
4713,71.0,120,120,0.0,0.0
4714,68.0,240,120,0.0,0.0
4715,74.0,480,240,0.0,0.0
4716,52.0,0,240,3.0,0.0
4717,40.0,0,240,3.0,0.0
4718,47.0,0,240,3.0,0.0
4719,44.0,360,240,3.0,0.0
4720,62.0,120,120,0.0,0.0
4721,59.0,120,120,0.0,0.0
4722,64.0,120,120,0.0,0.0
4723,62.0,240,120,0.0,0.0
4724,68.0,480,240,0.0,0.0
4725,62.0,0,240,1.0,0.0
4726,52.0,480,240,3.0,0.0
4727,68.0,0,240,0.0,0.0
4728,59.0,0,240,3.0,0.0
4729,59.0,720,240,3.0,0.0
4730,52.0,0,240,3.0,0.0
4731,68.0,0,240,0.0,0.0
4732,62.0,0,240,1.0,0.0
4733,62.0,360,480,1.0,0.0
4734,45.0,120,960,3.0,0.0
4735,56.0,0,480,3.0,0.0
4736,71.0,0,480,0.0,0.0
4737,57.0,120,360,3.0,0.0
4738,61.0,0,360,1.0,0.0
4739,69.0,0,360,0.0,0.0
4740,49.0,120,120,3.0,0.0
4741,45.0,120,120,3.0,0.0
4742,52.0,120,120,3.0,0.0
4743,49.0,240,120,3.0,0.0
4744,57.0,480,240,3.0,0.0
4745,69.0,360,240,1.0,0.0
4746,61.0,0,240,1.0,0.0
4747,64.0,0,240,1.0,0.0
4748,73.0,0,240,0.0,0.0
4749,42.0,120,120,3.0,0.0
4750,38.0,120,120,3.0,0.0
4751,45.0,120,120,3.0,0.0
4752,42.0,240,120,3.0,0.0
4753,50.0,480,240,3.0,0.0
4754,78.0,0,240,0.0,0.0
4755,66.0,360,240,1.0,0.0
4756,74.0,0,240,1.0,0.0
4757,44.0,120,120,3.0,0.0
4758,40.0,120,120,3.0,0.0
4759,47.0,120,120,3.0,0.0
4760,44.0,240,120,3.0,0.0
4761,52.0,480,240,3.0,0.0
4762,80.0,480,240,0.0,0.0
4763,68.0,0,240,1.0,0.0
4764,71.0,0,240,1.0,0.0
4765,74.0,0,240,1.0,0.0
4766,40.0,480,240,3.0,0.0
4767,73.0,0,240,1.0,0.0
4768,76.0,0,240,1.0,0.0
4769,81.0,0,240,0.0,0.0
4770,69.0,480,240,1.0,0.0
4771,33.0,720,240,3.0,0.0
4772,64.0,448,480,0.0,0.0
4773,72.0,448,480,0.0,0.0
4774,57.0,32,450,3.0,0.0
4775,64.0,0,240,2.0,0.0
4776,71.0,448,480,0.0,0.0
4777,59.0,32,450,3.0,0.0
4778,64.0,0,240,2.0,0.0
4779,69.0,448,480,0.0,0.0
4780,60.0,32,450,3.0,0.0
4781,64.0,0,240,2.0,0.0
4782,62.0,32,450,3.0,0.0
4783,77.0,0,480,0.0,0.0
4784,68.0,0,480,0.0,0.0
4785,64.0,448,240,2.0,0.0
4786,76.0,0,480,0.0,0.0
4787,60.0,32,450,3.0,0.0
4788,69.0,448,480,0.0,0.0
4789,64.0,0,240,2.0,0.0
4790,74.0,0,480,0.0,0.0
4791,71.0,448,480,0.0,0.0
4792,59.0,32,450,3.0,0.0
4793,64.0,0,240,2.0,0.0
4794,72.0,448,480,0.0,0.0
4795,57.0,32,450,3.0,0.0
4796,64.0,0,240,2.0,0.0
4797,59.0,32,450,3.0,0.0
4798,71.0,0,480,0.0,0.0
4799,64.0,448,240,2.0,0.0
4800,60.0,32,450,3.0,0.0
4801,69.0,448,480,0.0,0.0
4802,64.0,0,240,2.0,0.0
4803,68.0,448,480,0.0,0.0
4804,77.0,0,480,0.0,0.0
4805,62.0,32,450,3.0,0.0
4806,64.0,0,240,2.0,0.0
4807,60.0,32,450,3.0,0.0
4808,69.0,448,480,0.0,0.0
4809,76.0,0,480,0.0,0.0
4810,64.0,0,240,2.0,0.0
4811,59.0,32,450,3.0,0.0
4812,71.0,448,480,0.0,0.0
4813,74.0,0,480,0.0,0.0
4814,64.0,0,240,2.0,0.0
4815,57.0,32,450,3.0,0.0
4816,72.0,448,480,0.0,0.0
4817,64.0,0,240,2.0,0.0
4818,55.0,32,450,3.0,0.0
4819,71.0,448,480,0.0,0.0
4820,64.0,0,240,2.0,0.0
4821,54.0,32,450,3.0,0.0
4822,69.0,448,480,0.0,0.0
4823,63.0,0,240,2.0,0.0
4824,67.0,464,480,0.0,0.0
4825,52.0,32,450,3.0,0.0
4826,55.0,0,240,2.0,0.0
4827,66.0,0,480,0.0,0.0
4828,54.0,16,450,3.0,0.0
4829,57.0,432,240,2.0,0.0
4830,64.0,0,480,0.0,0.0
4831,55.0,48,420,3.0,0.0
4832,59.0,480,240,2.0,0.0
4833,60.0,0,480,0.0,0.0
4834,45.0,480,480,3.0,0.0
4835,57.0,0,240,2.0,0.0
4836,59.0,0,480,0.0,0.0
4837,47.0,0,480,3.0,0.0
4838,55.0,480,240,2.0,0.0
4839,63.0,0,480,0.0,0.0
4840,57.0,240,480,0.0,0.0
4841,47.0,0,480,3.0,0.0
4842,54.0,0,240,2.0,0.0
4843,55.0,0,480,0.0,0.0
4844,52.0,240,240,3.0,0.0
4845,64.0,240,480,0.0,0.0
4846,40.0,720,240,3.0,0.0
4847,64.0,448,480,0.0,0.0
4848,57.0,32,450,3.0,0.0
4849,72.0,448,480,0.0,0.0
4850,64.0,0,240,2.0,0.0
4851,71.0,0,480,0.0,0.0
4852,59.0,32,450,3.0,0.0
4853,64.0,448,240,2.0,0.0
4854,69.0,448,480,0.0,0.0
4855,60.0,32,450,3.0,0.0
4856,64.0,0,240,2.0,0.0
4857,62.0,32,450,3.0,0.0
4858,68.0,448,480,0.0,0.0
4859,77.0,0,480,0.0,0.0
4860,64.0,0,240,2.0,0.0
4861,76.0,0,480,0.0,0.0
4862,69.0,448,480,0.0,0.0
4863,60.0,32,450,3.0,0.0
4864,64.0,0,240,2.0,0.0
4865,59.0,32,450,3.0,0.0
4866,71.0,448,480,0.0,0.0
4867,74.0,0,480,0.0,0.0
4868,64.0,0,240,2.0,0.0
4869,57.0,32,450,3.0,0.0
4870,72.0,448,480,0.0,0.0
4871,64.0,0,240,2.0,0.0
4872,71.0,448,480,0.0,0.0
4873,59.0,32,450,3.0,0.0
4874,64.0,0,240,2.0,0.0
4875,69.0,0,480,0.0,0.0
4876,60.0,32,450,3.0,0.0
4877,64.0,448,240,2.0,0.0
4878,62.0,32,450,3.0,0.0
4879,68.0,0,480,0.0,0.0
4880,77.0,0,480,0.0,0.0
4881,64.0,448,240,2.0,0.0
4882,69.0,0,480,0.0,0.0
4883,76.0,0,480,0.0,0.0
4884,60.0,32,450,3.0,0.0
4885,64.0,448,240,2.0,0.0
4886,59.0,32,450,3.0,0.0
4887,71.0,448,480,0.0,0.0
4888,74.0,0,480,0.0,0.0
4889,64.0,0,240,2.0,0.0
4890,57.0,32,450,3.0,0.0
4891,72.0,448,480,0.0,0.0
4892,64.0,0,240,2.0,0.0
4893,71.0,448,480,0.0,0.0
4894,55.0,32,450,3.0,0.0
4895,64.0,0,240,2.0,0.0
4896,69.0,0,480,0.0,0.0
4897,54.0,32,450,3.0,0.0
4898,63.0,448,240,2.0,0.0
4899,67.0,0,480,0.0,0.0
4900,52.0,32,450,3.0,0.0
4901,55.0,464,240,2.0,0.0
4902,66.0,432,480,0.0,0.0
4903,54.0,16,450,3.0,0.0
4904,57.0,0,240,2.0,0.0
4905,55.0,48,420,3.0,0.0
4906,64.0,0,480,0.0,0.0
4907,59.0,480,240,2.0,0.0
4908,60.0,0,480,0.0,0.0
4909,45.0,0,480,3.0,0.0
4910,57.0,480,240,2.0,0.0
4911,59.0,0,480,0.0,0.0
4912,55.0,0,240,2.0,0.0
4913,63.0,0,480,0.0,0.0
4914,47.0,480,15,3.0,0.0
4915,57.0,240,480,0.0,0.0
4916,54.0,0,240,2.0,0.0
4917,52.0,240,240,3.0,0.0
4918,64.0,0,480,0.0,0.0
4919,55.0,240,480,0.0,0.0
4920,40.0,320,240,3.0,0.0
4921,67.0,80,90,0.0,0.0
4922,69.0,80,90,0.0,0.0
4923,67.0,120,90,0.0,0.0
4924,66.0,120,120,0.0,0.0
4925,67.0,464,120,0.0,0.0
4926,76.0,0,480,0.0,0.0
4927,60.0,16,450,3.0,0.0
4928,67.0,464,240,2.0,0.0
4929,62.0,16,450,3.0,0.0
4930,74.0,0,480,0.0,0.0
4931,67.0,464,240,2.0,0.0
4932,64.0,16,450,3.0,0.0
4933,72.0,464,480,0.0,0.0
4934,67.0,0,240,2.0,0.0
4935,81.0,0,480,0.0,0.0
4936,65.0,16,450,3.0,0.0
4937,71.0,0,480,0.0,0.0
4938,67.0,464,240,2.0,0.0
4939,72.0,0,480,0.0,0.0
4940,79.0,0,480,0.0,0.0
4941,64.0,16,450,3.0,0.0
4942,67.0,464,240,2.0,0.0
4943,77.0,0,480,0.0,0.0
4944,62.0,16,450,3.0,0.0
4945,74.0,464,480,0.0,0.0
4946,67.0,0,240,2.0,0.0
4947,60.0,16,450,3.0,0.0
4948,76.0,0,480,0.0,0.0
4949,67.0,464,240,2.0,0.0
4950,74.0,464,480,0.0,0.0
4951,62.0,16,450,3.0,0.0
4952,67.0,0,240,2.0,0.0
4953,64.0,16,450,3.0,0.0
4954,72.0,464,480,0.0,0.0
4955,67.0,0,240,2.0,0.0
4956,73.0,0,480,0.0,0.0
4957,67.0,16,450,3.0,0.0
4958,82.0,0,480,0.0,0.0
4959,69.0,432,240,2.0,0.0
4960,65.0,48,420,3.0,0.0
4961,74.0,0,480,0.0,0.0
4962,81.0,0,480,0.0,0.0
4963,69.0,432,240,2.0,0.0
4964,76.0,0,480,0.0,0.0
4965,79.0,0,480,0.0,0.0
4966,64.0,48,420,3.0,0.0
4967,69.0,432,240,2.0,0.0
4968,77.0,0,480,0.0,0.0
4969,62.0,48,420,3.0,0.0
4970,69.0,432,240,2.0,0.0
4971,60.0,48,420,3.0,0.0
4972,76.0,432,480,0.0,0.0
4973,69.0,0,240,2.0,0.0
4974,59.0,48,420,3.0,0.0
4975,74.0,432,480,0.0,0.0
4976,69.0,0,240,2.0,0.0
4977,57.0,48,420,3.0,0.0
4978,72.0,432,480,0.0,0.0
4979,69.0,0,240,2.0,0.0
4980,55.0,48,420,3.0,0.0
4981,71.0,480,480,0.0,0.0
4982,67.0,0,240,2.0,0.0
4983,69.0,0,480,0.0,0.0
4984,53.0,432,480,3.0,0.0
4985,65.0,0,240,2.0,0.0
4986,68.0,0,480,0.0,0.0
4987,52.0,48,420,3.0,0.0
4988,64.0,432,240,2.0,0.0
4989,50.0,48,420,3.0,0.0
4990,65.0,432,480,0.0,0.0
4991,62.0,0,240,2.0,0.0
4992,64.0,432,480,0.0,0.0
4993,48.0,48,420,3.0,0.0
4994,60.0,0,240,2.0,0.0
4995,62.0,432,480,0.0,0.0
4996,47.0,48,420,3.0,0.0
4997,59.0,0,240,2.0,0.0
4998,45.0,48,420,3.0,0.0
4999,60.0,0,480,0.0,0.0
5000,57.0,432,240,2.0,0.0
5001,44.0,48,420,3.0,0.0
5002,59.0,0,480,0.0,0.0
5003,56.0,240,240,2.0,0.0
5004,60.0,0,480,0.0,0.0
5005,72.0,448,480,0.0,0.0
5006,45.0,48,420,3.0,0.0
5007,57.0,192,240,2.0,0.0
5008,64.0,0,240,2.0,0.0
5009,59.0,32,450,3.0,0.0
5010,71.0,0,480,0.0,0.0
5011,64.0,448,240,2.0,0.0
5012,69.0,0,480,0.0,0.0
5013,60.0,32,450,3.0,0.0
5014,64.0,448,240,2.0,0.0
5015,62.0,32,450,3.0,0.0
5016,77.0,0,480,0.0,0.0
5017,68.0,448,480,0.0,0.0
5018,64.0,0,240,2.0,0.0
5019,76.0,0,480,0.0,0.0
5020,60.0,32,450,3.0,0.0
5021,64.0,448,240,2.0,0.0
5022,59.0,32,450,3.0,0.0
5023,74.0,448,480,0.0,0.0
5024,64.0,0,240,2.0,0.0
5025,57.0,32,450,3.0,0.0
5026,72.0,448,480,0.0,0.0
5027,64.0,0,240,2.0,0.0
5028,59.0,32,450,3.0,0.0
5029,71.0,0,480,0.0,0.0
5030,64.0,448,240,2.0,0.0
5031,69.0,448,480,0.0,0.0
5032,60.0,32,450,3.0,0.0
5033,64.0,0,240,2.0,0.0
5034,52.0,0,15,3.0,0.0
5035,62.0,32,450,3.0,0.0
5036,68.0,0,480,0.0,0.0
5037,77.0,448,480,0.0,0.0
5038,80.0,0,480,0.0,0.0
5039,64.0,0,240,2.0,0.0
5040,81.0,0,480,0.0,0.0
5041,60.0,32,450,3.0,0.0
5042,69.0,0,480,0.0,0.0
5043,76.0,0,480,0.0,0.0
5044,64.0,448,240,2.0,0.0
5045,74.0,0,480,0.0,0.0
5046,71.0,448,480,0.0,0.0
5047,83.0,0,480,0.0,0.0
5048,59.0,32,450,3.0,0.0
5049,64.0,0,240,2.0,0.0
5050,72.0,448,480,0.0,0.0
5051,57.0,32,450,3.0,0.0
5052,84.0,0,480,0.0,0.0
5053,64.0,0,240,2.0,0.0
5054,59.0,32,450,3.0,0.0
5055,71.0,0,480,0.0,0.0
5056,83.0,0,480,0.0,0.0
5057,64.0,448,240,2.0,0.0
5058,69.0,0,480,0.0,0.0
5059,81.0,0,480,0.0,0.0
5060,60.0,32,450,3.0,0.0
5061,64.0,0,240,2.0,0.0
5062,89.0,0,480,0.0,0.0
5063,77.0,0,480,0.0,0.0
5064,80.0,448,480,0.0,0.0
5065,52.0,0,1440,3.0,0.0
5066,62.0,32,450,3.0,0.0
5067,64.0,0,240,2.0,0.0
5068,88.0,0,480,0.0,0.0
5069,60.0,32,450,3.0,0.0
5070,76.0,0,480,0.0,0.0
5071,81.0,0,480,0.0,0.0
5072,64.0,448,240,2.0,0.0
5073,86.0,0,480,0.0,0.0
5074,74.0,192,480,0.0,0.0
5075,83.0,0,480,0.0,0.0
5076,59.0,32,450,3.0,0.0
5077,64.0,0,240,2.0,0.0
5078,57.0,32,450,3.0,0.0
5079,72.0,256,180,0.0,0.0
5080,84.0,0,180,0.0,0.0
5081,69.0,192,240,2.0,0.0
5082,50.0,192,480,3.0,0.0
5083,74.0,0,180,0.0,0.0
5084,83.0,0,180,0.0,0.0
5085,86.0,0,180,0.0,0.0
5086,77.0,288,180,0.0,0.0
5087,62.0,0,240,2.0,0.0
5088,83.0,288,180,0.0,0.0
5089,74.0,0,180,0.0,0.0
5090,71.0,0,180,0.0,0.0
5091,52.0,0,480,3.0,0.0
5092,80.0,0,180,0.0,0.0
5093,64.0,240,240,2.0,0.0
5094,72.0,0,240,0.0,0.0
5095,81.0,0,240,0.0,0.0
5096,69.0,0,240,0.0,0.0
5097,57.0,396,240,3.0,0.0
5098,45.0,444,150,3.0,0.0
5099,81.0,120,120,0.0,0.0
5100,76.0,120,120,0.0,0.0
5101,85.0,120,120,0.0,0.0
5102,81.0,240,120,0.0,0.0
5103,88.0,480,240,0.0,0.0
5104,57.0,0,240,3.0,0.0
5105,61.0,0,240,3.0,0.0
5106,64.0,360,240,3.0,0.0
5107,73.0,120,120,0.0,0.0
5108,69.0,120,120,0.0,0.0
5109,76.0,120,120,0.0,0.0
5110,73.0,240,120,0.0,0.0
5111,81.0,480,240,0.0,0.0
5112,52.0,0,240,3.0,0.0
5113,57.0,0,240,3.0,0.0
5114,45.0,360,240,3.0,0.0
5115,49.0,0,240,3.0,0.0
5116,61.0,120,120,0.0,0.0
5117,57.0,120,120,0.0,0.0
5118,64.0,120,120,0.0,0.0
5119,61.0,240,120,0.0,0.0
5120,69.0,480,240,0.0,0.0
5121,57.0,0,240,3.0,0.0
5122,59.0,0,240,1.0,0.0
5123,54.0,0,240,3.0,0.0
5124,63.0,480,240,1.0,0.0
5125,69.0,0,240,0.0,0.0
5126,69.0,720,240,0.0,0.0
5127,59.0,0,240,1.0,0.0
5128,66.0,0,240,1.0,0.0
5129,51.0,0,240,3.0,0.0
5130,52.0,240,480,3.0,0.0
5131,59.0,120,960,1.0,0.0
5132,66.0,0,480,1.0,0.0
5133,69.0,0,480,0.0,0.0
5134,64.0,240,240,1.0,0.0
5135,40.0,0,240,3.0,0.0
5136,68.0,0,240,0.0,0.0
5137,80.0,120,120,0.0,0.0
5138,76.0,120,120,0.0,0.0
5139,83.0,120,120,0.0,0.0
5140,80.0,240,120,0.0,0.0
5141,86.0,480,240,0.0,0.0
5142,59.0,0,240,3.0,0.0
5143,62.0,0,240,3.0,0.0
5144,56.0,360,240,3.0,0.0
5145,52.0,0,240,3.0,0.0
5146,68.0,120,120,0.0,0.0
5147,64.0,120,120,0.0,0.0
5148,71.0,120,120,0.0,0.0
5149,68.0,240,120,0.0,0.0
5150,74.0,480,240,0.0,0.0
5151,44.0,360,240,3.0,0.0
5152,47.0,0,240,3.0,0.0
5153,52.0,0,240,3.0,0.0
5154,40.0,0,240,3.0,0.0
5155,62.0,120,120,0.0,0.0
5156,59.0,120,120,0.0,0.0
5157,64.0,120,120,0.0,0.0
5158,62.0,240,120,0.0,0.0
5159,68.0,480,240,0.0,0.0
5160,62.0,0,240,1.0,0.0
5161,59.0,0,240,3.0,0.0
5162,52.0,0,240,3.0,0.0
5163,68.0,480,240,0.0,0.0
5164,68.0,720,240,0.0,0.0
5165,59.0,0,240,3.0,0.0
5166,62.0,0,240,1.0,0.0
5167,52.0,0,240,3.0,0.0
5168,62.0,0,480,1.0,0.0
5169,71.0,0,480,0.0,0.0
5170,45.0,120,960,3.0,0.0
5171,56.0,240,480,3.0,0.0
5172,61.0,240,240,1.0,0.0
5173,69.0,0,240,0.0,0.0
5174,57.0,0,240,3.0,0.0
5175,56.0,120,120,3.0,0.0
5176,52.0,120,120,3.0,0.0
5177,59.0,120,120,3.0,0.0
5178,56.0,240,120,3.0,0.0
5179,64.0,480,240,3.0,0.0
5180,76.0,360,240,0.0,0.0
5181,71.0,0,240,1.0,0.0
5182,68.0,0,240,1.0,0.0
5183,56.0,120,120,3.0,0.0
5184,50.0,120,120,3.0,0.0
5185,59.0,120,120,3.0,0.0
5186,56.0,240,120,3.0,0.0
5187,62.0,480,240,3.0,0.0
5188,66.0,0,240,1.0,0.0
5189,73.0,360,240,1.0,0.0
5190,78.0,0,240,0.0,0.0
5191,53.0,120,120,3.0,0.0
5192,49.0,120,120,3.0,0.0
5193,56.0,120,120,3.0,0.0
5194,53.0,240,120,3.0,0.0
5195,61.0,480,240,3.0,0.0
5196,80.0,0,240,0.0,0.0
5197,71.0,480,240,1.0,0.0
5198,77.0,0,240,1.0,0.0
5199,68.0,0,240,1.0,0.0
5200,61.0,720,240,3.0,0.0
5201,71.0,0,480,1.0,0.0
5202,68.0,0,480,1.0,0.0
5203,61.0,240,480,3.0,0.0
5204,77.0,0,480,0.0,0.0
5205,69.0,0,240,1.0,0.0
5206,54.0,0,240,3.0,0.0
5207,78.0,360,240,0.0,0.0
5208,57.0,120,120,3.0,0.0
5209,54.0,120,120,3.0,0.0
5210,61.0,120,120,3.0,0.0
5211,57.0,240,120,3.0,0.0
5212,66.0,480,240,3.0,0.0
5213,69.0,0,240,1.0,0.0
5214,73.0,0,240,1.0,0.0
5215,78.0,360,240,0.0,0.0
5216,56.0,120,120,3.0,0.0
5217,52.0,120,120,3.0,0.0
5218,61.0,120,120,3.0,0.0
5219,56.0,240,120,3.0,0.0
5220,64.0,480,240,3.0,0.0
5221,80.0,360,240,0.0,0.0
5222,73.0,0,240,1.0,0.0
5223,68.0,0,240,1.0,0.0
5224,55.0,120,120,3.0,0.0
5225,51.0,120,120,3.0,0.0
5226,58.0,120,120,3.0,0.0
5227,55.0,240,120,3.0,0.0
5228,63.0,480,240,3.0,0.0
5229,70.0,0,240,1.0,0.0
5230,73.0,480,240,1.0,0.0
5231,82.0,0,240,0.0,0.0
5232,79.0,0,240,1.0,0.0
5233,63.0,720,240,3.0,0.0
5234,79.0,0,480,0.0,0.0
5235,73.0,240,480,1.0,0.0
5236,63.0,0,480,3.0,0.0
5237,70.0,0,480,1.0,0.0
5238,80.0,0,240,0.0,0.0
5239,56.0,0,240,3.0,0.0
5240,71.0,1200,240,1.0,0.0
5241,59.0,0,480,3.0,0.0
5242,75.0,240,480,0.0,0.0
5243,61.0,0,240,3.0,0.0
5244,76.0,0,240,0.0,0.0
5245,68.0,0,15,1.0,0.0
5246,63.0,0,480,1.0,0.0
5247,68.0,0,480,0.0,0.0
5248,59.0,0,480,3.0,0.0
5249,61.0,0,480,1.0,0.0
5250,51.0,480,15,3.0,0.0
5251,58.0,0,480,3.0,0.0
5252,67.0,0,480,0.0,0.0
5253,68.0,0,240,0.0,0.0
5254,59.0,240,240,1.0,0.0
5255,44.0,84,150,3.0,0.0
5256,56.0,0,150,3.0,0.0
5257,63.0,240,240,2.0,0.0
5258,59.0,24,450,3.0,0.0
5259,75.0,216,240,0.0,0.0
5260,63.0,240,240,2.0,0.0
5261,56.0,24,450,3.0,0.0
5262,75.0,216,240,0.0,0.0
5263,63.0,456,240,2.0,0.0
5264,58.0,24,450,3.0,0.0
5265,75.0,0,960,0.0,0.0
5266,63.0,456,240,2.0,0.0
5267,61.0,24,450,3.0,0.0
5268,63.0,456,240,2.0,0.0
5269,58.0,24,450,3.0,0.0
5270,67.0,456,480,0.0,0.0
5271,63.0,0,240,2.0,0.0
5272,59.0,24,450,3.0,0.0
5273,68.0,0,480,0.0,0.0
5274,63.0,480,240,2.0,0.0
5275,70.0,0,480,0.0,0.0
5276,58.0,398,480,3.0,0.0
5277,61.0,12,240,2.0,0.0
5278,71.0,28,420,0.0,0.0
5279,56.0,42,450,3.0,0.0
5280,59.0,438,240,2.0,0.0
5281,71.0,0,60,0.0,0.0
5282,70.0,438,480,0.0,0.0
5283,49.0,42,450,3.0,0.0
5284,61.0,0,240,2.0,0.0
5285,51.0,42,450,3.0,0.0
5286,68.0,0,480,0.0,0.0
5287,59.0,80,240,2.0,0.0
5288,51.0,42,450,3.0,0.0
5289,67.0,80,90,0.0,0.0
5290,68.0,80,90,0.0,0.0
5291,67.0,120,90,0.0,0.0
5292,65.0,78,120,0.0,0.0
5293,58.0,360,240,2.0,0.0
5294,67.0,0,120,0.0,0.0
5295,68.0,30,360,0.0,0.0
5296,56.0,90,390,3.0,0.0
5297,63.0,360,240,2.0,0.0
5298,75.0,78,360,0.0,0.0
5299,59.0,42,450,3.0,0.0
5300,63.0,360,240,2.0,0.0
5301,75.0,78,360,0.0,0.0
5302,56.0,42,450,3.0,0.0
5303,63.0,438,240,2.0,0.0
5304,75.0,0,960,0.0,0.0
5305,58.0,42,450,3.0,0.0
5306,63.0,438,240,2.0,0.0
5307,61.0,42,450,3.0,0.0
5308,63.0,438,240,2.0,0.0
5309,58.0,42,450,3.0,0.0
5310,67.0,0,480,0.0,0.0
5311,63.0,720,240,2.0,0.0
5312,68.0,0,1440,0.0,0.0
5313,63.0,720,1440,3.0,0.0
5314,59.0,0,1440,3.0,0.0
5315,75.0,480,240,0.0,0.0
5316,75.0,240,240,0.0,0.0
5317,75.0,720,1440,0.0,0.0
5318,66.0,0,1440,3.0,0.0
5319,69.0,480,240,0.0,0.0
5320,69.0,240,240,0.0,0.0
5321,68.0,0,1440,0.0,0.0
5322,52.0,720,1440,3.0,0.0
5323,59.0,0,15,3.0,0.0
5324,74.0,480,240,0.0,0.0
5325,74.0,240,240,0.0,0.0
5326,73.0,720,1440,0.0,0.0
5327,57.0,0,1440,3.0,0.0
5328,64.0,0,15,3.0,0.0
5329,67.0,480,240,0.0,0.0
5330,67.0,240,240,0.0,0.0
5331,62.0,0,1440,3.0,0.0
5332,57.0,0,1440,3.0,0.0
5333,50.0,720,1440,3.0,0.0
5334,66.0,0,1440,0.0,0.0
5335,74.0,480,240,0.0,0.0
5336,74.0,240,240,0.0,0.0
5337,59.0,0,1440,3.0,0.0
5338,68.0,2520,1440,0.0,0.0
5339,52.0,0,1440,3.0,0.0
5340,62.0,0,1440,0.0,0.0
5341,47.0,0,1440,3.0,0.0
5342,74.0,480,240,0.0,0.0
5343,74.0,240,240,0.0,0.0
5344,81.0,120,120,0.0,0.0
5345,76.0,120,120,0.0,0.0
5346,85.0,120,120,0.0,0.0
5347,81.0,240,120,0.0,0.0
5348,88.0,480,240,0.0,0.0
5349,64.0,0,240,3.0,0.0
5350,57.0,360,240,3.0,0.0
5351,61.0,0,240,3.0,0.0
5352,73.0,120,120,0.0,0.0
5353,69.0,120,120,0.0,0.0
5354,76.0,120,120,0.0,0.0
5355,73.0,240,120,0.0,0.0
5356,81.0,480,240,0.0,0.0
5357,45.0,0,240,3.0,0.0
5358,52.0,0,240,3.0,0.0
5359,57.0,0,240,3.0,0.0
5360,49.0,360,240,3.0,0.0
5361,61.0,120,120,0.0,0.0
5362,57.0,120,120,0.0,0.0
5363,64.0,120,120,0.0,0.0
5364,61.0,240,120,0.0,0.0
5365,57.0,0,240,3.0,0.0
5366,69.0,480,240,0.0,0.0
5367,59.0,0,240,0.0,0.0
5368,69.0,0,240,0.0,0.0
5369,63.0,0,240,0.0,0.0
5370,54.0,480,240,3.0,0.0
5371,66.0,720,240,0.0,0.0
5372,69.0,0,240,0.0,0.0
5373,51.0,0,240,3.0,0.0
5374,59.0,0,240,0.0,0.0
5375,69.0,0,480,0.0,0.0
5376,59.0,120,960,0.0,0.0
5377,52.0,360,480,3.0,0.0
5378,66.0,0,480,0.0,0.0
5379,64.0,0,360,0.0,0.0
5380,40.0,120,360,3.0,0.0
5381,68.0,0,360,0.0,0.0
5382,80.0,120,120,0.0,0.0
5383,76.0,120,120,0.0,0.0
5384,83.0,120,120,0.0,0.0
5385,80.0,240,120,0.0,0.0
5386,86.0,480,240,0.0,0.0
5387,62.0,0,240,3.0,0.0
5388,52.0,360,240,3.0,0.0
5389,56.0,0,240,3.0,0.0
5390,59.0,0,240,3.0,0.0
5391,68.0,120,120,0.0,0.0
5392,64.0,120,120,0.0,0.0
5393,71.0,120,120,0.0,0.0
5394,68.0,240,120,0.0,0.0
5395,74.0,480,240,0.0,0.0
5396,52.0,0,240,3.0,0.0
5397,40.0,0,240,3.0,0.0
5398,47.0,360,240,3.0,0.0
5399,44.0,0,240,3.0,0.0
5400,62.0,120,120,0.0,0.0
5401,59.0,120,120,0.0,0.0
5402,64.0,120,120,0.0,0.0
5403,62.0,240,120,0.0,0.0
5404,68.0,480,240,0.0,0.0
5405,52.0,480,240,3.0,0.0
5406,59.0,0,240,3.0,0.0
5407,68.0,0,240,0.0,0.0
5408,62.0,0,240,1.0,0.0
5409,68.0,0,240,0.0,0.0
5410,52.0,720,240,3.0,0.0
5411,59.0,0,240,3.0,0.0
5412,62.0,0,240,1.0,0.0
5413,56.0,360,480,3.0,0.0
5414,62.0,0,480,1.0,0.0
5415,71.0,0,480,0.0,0.0
5416,45.0,120,960,3.0,0.0
5417,61.0,0,360,1.0,0.0
5418,57.0,120,360,3.0,0.0
5419,69.0,0,360,0.0,0.0
5420,49.0,120,120,3.0,0.0
5421,45.0,120,120,3.0,0.0
5422,52.0,120,120,3.0,0.0
5423,49.0,240,120,3.0,0.0
5424,57.0,480,240,3.0,0.0
5425,73.0,360,240,0.0,0.0
5426,61.0,0,240,1.0,0.0
5427,69.0,0,240,1.0,0.0
5428,64.0,0,240,1.0,0.0
5429,42.0,120,120,3.0,0.0
5430,38.0,120,120,3.0,0.0
5431,45.0,120,120,3.0,0.0
5432,42.0,240,120,3.0,0.0
5433,50.0,480,240,3.0,0.0
5434,74.0,0,240,1.0,0.0
5435,78.0,0,240,0.0,0.0
5436,66.0,360,240,1.0,0.0
5437,44.0,120,120,3.0,0.0
5438,40.0,120,120,3.0,0.0
5439,47.0,120,120,3.0,0.0
5440,44.0,240,120,3.0,0.0
5441,52.0,480,240,3.0,0.0
5442,68.0,480,240,1.0,0.0
5443,74.0,0,240,1.0,0.0
5444,71.0,0,240,1.0,0.0
5445,80.0,0,240,0.0,0.0
5446,40.0,480,240,3.0,0.0
5447,81.0,0,240,0.0,0.0
5448,76.0,0,240,1.0,0.0
5449,69.0,0,240,1.0,0.0
5450,73.0,480,240,1.0,0.0
5451,33.0,2760,240,3.0,0.0
5452,45.0,120,120,0.0,0.0
5453,49.0,120,120,0.0,0.0
5454,52.0,120,120,0.0,0.0
5455,57.0,80,120,0.0,0.0
5456,61.0,80,90,0.0,0.0
5457,64.0,80,90,0.0,0.0
5458,69.0,60,90,0.0,0.0
5459,73.0,60,60,0.0,0.0
5460,76.0,60,60,0.0,0.0
5461,81.0,60,60,0.0,0.0
5462,85.0,240,60,0.0,0.0
5463,88.0,200,240,0.0,0.0
5464,57.0,40,450,3.0,0.0
5465,64.0,240,240,2.0,0.0
5466,88.0,200,240,0.0,0.0
5467,61.0,40,450,3.0,0.0
5468,64.0,240,240,2.0,0.0
5469,59.0,40,450,3.0,0.0
5470,88.0,120,240,0.0,0.0
5471,68.0,80,120,0.0,0.0
5472,64.0,440,240,2.0,0.0
5473,62.0,40,450,3.0,0.0
5474,64.0,440,240,2.0,0.0
5475,59.0,40,450,3.0,0.0
5476,64.0,0,240,2.0,0.0
5477,62.0,40,450,3.0,0.0
5478,68.0,440,15,0.0,0.0
5479,64.0,440,240,2.0,0.0
5480,61.0,40,450,3.0,0.0
5481,69.0,440,480,0.0,0.0
5482,64.0,0,240,2.0,0.0
5483,71.0,440,480,0.0,0.0
5484,56.0,40,450,3.0,0.0
5485,64.0,0,240,2.0,0.0
5486,73.0,440,480,0.0,0.0
5487,57.0,40,450,3.0,0.0
5488,64.0,0,240,2.0,0.0
5489,54.0,40,450,3.0,0.0
5490,74.0,0,480,0.0,0.0
5491,59.0,0,240,2.0,0.0
5492,73.0,480,60,0.0,0.0
5493,52.0,230,480,3.0,0.0
5494,76.0,120,720,0.0,0.0
5495,61.0,10,240,2.0,0.0
5496,57.0,430,480,3.0,0.0
5497,61.0,10,240,2.0,0.0
5498,74.0,120,120,0.0,0.0
5499,73.0,0,120,0.0,0.0
5500,71.0,0,480,0.0,0.0
5501,52.0,40,450,3.0,0.0
5502,56.0,440,240,2.0,0.0
5503,50.0,40,450,3.0,0.0
5504,56.0,360,240,2.0,0.0
5505,49.0,40,450,3.0,0.0
5506,57.0,0,240,2.0,0.0
5507,57.0,80,120,0.0,0.0
5508,61.0,80,120,0.0,0.0
5509,64.0,80,90,0.0,0.0
5510,52.0,40,450,3.0,0.0
5511,69.0,80,90,0.0,0.0
5512,73.0,80,90,0.0,0.0
5513,76.0,80,90,0.0,0.0
5514,57.0,0,240,2.0,0.0
5515,81.0,40,90,0.0,0.0
5516,85.0,240,90,0.0,0.0
5517,88.0,200,240,0.0,0.0
5518,50.0,40,450,3.0,0.0
5519,56.0,240,240,2.0,0.0
5520,52.0,40,450,3.0,0.0
5521,88.0,200,240,0.0,0.0
5522,56.0,240,240,2.0,0.0
5523,88.0,120,240,0.0,0.0
5524,46.0,40,450,3.0,0.0
5525,66.0,80,120,0.0,0.0
5526,54.0,440,240,2.0,0.0
5527,66.0,0,960,0.0,0.0
5528,52.0,40,450,3.0,0.0
5529,54.0,440,240,2.0,0.0
5530,49.0,40,450,3.0,0.0
5531,58.0,440,240,2.0,0.0
5532,68.0,0,480,0.0,0.0
5533,52.0,40,450,3.0,0.0
5534,58.0,240,240,2.0,0.0
5535,47.0,0,1440,3.0,0.0
5536,52.0,230,480,3.0,0.0
5537,68.0,120,240,0.0,0.0
5538,69.0,120,120,0.0,0.0
5539,59.0,10,240,2.0,0.0
5540,68.0,0,120,0.0,0.0
5541,66.0,225,240,0.0,0.0
5542,56.0,15,480,3.0,0.0
5543,68.0,240,240,0.0,0.0
5544,59.0,0,240,2.0,0.0
5545,71.0,225,240,0.0,0.0
5546,54.0,15,480,3.0,0.0
5547,59.0,240,240,2.0,0.0
5548,69.0,0,240,0.0,0.0
5549,57.0,15,480,3.0,0.0
5550,66.0,225,240,0.0,0.0
5551,47.0,480,480,3.0,0.0
5552,63.0,0,240,0.0,0.0
5553,59.0,0,240,2.0,0.0
5554,63.0,0,960,1.0,0.0
5555,66.0,0,960,0.0,0.0
5556,52.0,0,1440,3.0,0.0
5557,57.0,240,240,3.0,0.0
5558,59.0,240,240,3.0,0.0
5559,57.0,192,240,3.0,0.0
5560,64.0,288,180,0.0,0.0
5561,56.0,240,480,3.0,0.0
5562,76.0,0,240,0.0,0.0
5563,71.0,240,240,0.0,0.0
5564,73.0,480,240,0.0,0.0
5565,74.0,0,960,0.0,0.0
5566,71.0,240,240,1.0,0.0
5567,66.0,240,240,1.0,0.0
5568,68.0,480,240,1.0,0.0
5569,69.0,240,960,1.0,0.0
5570,73.0,0,960,0.0,0.0
5571,57.0,240,240,1.0,0.0
5572,61.0,240,240,1.0,0.0
5573,63.0,0,240,1.0,0.0
5574,64.0,156,240,1.0,0.0
5575,71.0,0,1440,0.0,0.0
5576,68.0,0,1440,1.0,0.0
5577,63.0,240,150,1.0,0.0
5578,64.0,240,150,1.0,0.0
5579,66.0,324,150,1.0,0.0
5580,64.0,240,480,1.0,0.0
5581,52.0,240,15,3.0,0.0
5582,47.0,240,240,3.0,0.0
5583,49.0,480,240,3.0,0.0
5584,40.0,0,1920,3.0,0.0
5585,50.0,0,960,3.0,0.0
5586,59.0,0,960,1.0,0.0
5587,71.0,240,240,0.0,0.0
5588,66.0,240,240,0.0,0.0
5589,68.0,480,240,0.0,0.0
5590,49.0,0,480,3.0,0.0
5591,69.0,240,960,0.0,0.0
5592,57.0,240,240,1.0,0.0
5593,61.0,240,240,1.0,0.0
5594,54.0,0,480,3.0,0.0
5595,63.0,0,240,1.0,0.0
5596,52.0,0,480,3.0,0.0
5597,40.0,240,240,3.0,0.0
5598,68.0,0,480,0.0,0.0
5599,59.0,0,480,1.0,0.0
5600,64.0,0,480,1.0,0.0
5601,39.0,156,240,3.0,0.0
5602,40.0,240,150,3.0,0.0
5603,42.0,240,150,3.0,0.0
5604,40.0,240,150,3.0,0.0
5605,38.0,240,150,3.0,0.0
5606,37.0,240,150,3.0,0.0
5607,35.0,324,150,3.0,0.0
5608,33.0,120,240,3.0,0.0
5609,57.0,91,120,0.0,0.0
5610,52.0,29,210,2.0,0.0
5611,61.0,80,120,0.0,0.0
5612,64.0,80,90,0.0,0.0
5613,49.0,30,420,3.0,0.0
5614,69.0,80,90,0.0,0.0
5615,73.0,80,90,0.0,0.0
5616,76.0,80,90,0.0,0.0
5617,52.0,29,210,2.0,0.0
5618,81.0,21,90,0.0,0.0
5619,85.0,240,90,0.0,0.0
5620,88.0,181,240,0.0,0.0
5621,45.0,30,420,3.0,0.0
5622,52.0,269,210,2.0,0.0
5623,49.0,30,420,3.0,0.0
5624,88.0,181,240,0.0,0.0
5625,52.0,269,210,2.0,0.0
5626,88.0,120,240,0.0,0.0
5627,47.0,30,420,3.0,0.0
5628,68.0,61,120,0.0,0.0
5629,52.0,450,210,2.0,0.0
5630,68.0,421,960,0.0,0.0
5631,50.0,30,420,3.0,0.0
5632,52.0,450,210,2.0,0.0
5633,47.0,30,420,3.0,0.0
5634,52.0,29,210,2.0,0.0
5635,49.0,30,420,3.0,0.0
5636,69.0,60,480,0.0,0.0
5637,57.0,29,210,2.0,0.0
5638,50.0,30,450,3.0,0.0
5639,71.0,60,60,0.0,0.0
5640,73.0,60,60,0.0,0.0
5641,71.0,60,60,0.0,0.0
5642,70.0,120,60,0.0,0.0
5643,59.0,0,240,2.0,0.0
5644,71.0,90,120,0.0,0.0
5645,73.0,104,120,0.0,0.0
5646,54.0,30,450,3.0,0.0
5647,74.0,160,90,0.0,0.0
5648,76.0,160,90,0.0,0.0
5649,59.0,450,240,2.0,0.0
5650,78.0,26,90,0.0,0.0
5651,52.0,30,450,3.0,0.0
5652,69.0,0,480,0.0,0.0
5653,61.0,240,240,2.0,0.0
5654,73.0,210,240,0.0,0.0
5655,52.0,30,450,3.0,0.0
5656,62.0,0,240,2.0,0.0
5657,68.0,0,15,1.0,0.0
5658,57.0,0,1440,3.0,0.0
5659,71.0,480,15,0.0,0.0
5660,62.0,240,240,3.0,0.0
5661,64.0,240,240,3.0,0.0
5662,62.0,240,240,3.0,0.0
5663,61.0,0,480,3.0,0.0
5664,69.0,120,240,0.0,0.0
5665,78.0,120,120,0.0,0.0
5666,76.0,120,120,0.0,0.0
5667,74.0,120,120,0.0,0.0
5668,73.0,120,120,0.0,0.0
5669,71.0,120,120,0.0,0.0
5670,69.0,120,120,0.0,0.0
5671,68.0,120,120,0.0,0.0
5672,69.0,120,120,0.0,0.0
5673,71.0,120,120,0.0,0.0
5674,69.0,120,120,0.0,0.0
5675,68.0,360,480,0.0,0.0
5676,59.0,120,120,3.0,0.0
5677,62.0,120,120,3.0,0.0
5678,64.0,120,120,3.0,0.0
5679,62.0,0,120,3.0,0.0
5680,59.0,120,480,3.0,0.0
5681,76.0,120,120,0.0,0.0
5682,74.0,0,120,0.0,0.0
5683,73.0,120,120,0.0,0.0
5684,71.0,120,120,0.0,0.0
5685,69.0,120,120,0.0,0.0
5686,68.0,120,120,0.0,0.0
5687,69.0,120,120,0.0,0.0
5688,71.0,120,120,0.0,0.0
5689,73.0,120,120,0.0,0.0
5690,71.0,120,120,0.0,0.0
5691,69.0,0,480,0.0,0.0
5692,73.0,120,120,3.0,0.0
5693,76.0,120,120,3.0,0.0
5694,81.0,120,120,3.0,0.0
5695,76.0,360,120,3.0,0.0
5696,73.0,0,480,3.0,0.0
5697,81.0,120,120,0.0,0.0
5698,80.0,120,120,0.0,0.0
5699,78.0,120,120,0.0,0.0
5700,76.0,120,120,0.0,0.0
5701,74.0,120,120,0.0,0.0
5702,73.0,120,120,0.0,0.0
5703,66.0,120,480,3.0,0.0
5704,62.0,0,480,3.0,0.0
5705,71.0,120,120,0.0,0.0
5706,74.0,120,120,0.0,0.0
5707,78.0,120,120,0.0,0.0
5708,76.0,0,120,0.0,0.0
5709,74.0,120,120,0.0,0.0
5710,73.0,120,120,0.0,0.0
5711,71.0,120,120,0.0,0.0
5712,69.0,120,120,0.0,0.0
5713,59.0,0,480,3.0,0.0
5714,62.0,0,480,3.0,0.0
5715,68.0,120,120,0.0,0.0
5716,52.0,0,480,3.0,0.0
5717,69.0,120,120,0.0,0.0
5718,71.0,120,120,0.0,0.0
5719,69.0,120,120,0.0,0.0
5720,68.0,120,120,0.0,0.0
5721,66.0,120,120,0.0,0.0
5722,64.0,120,120,0.0,0.0
5723,62.0,120,120,0.0,0.0
5724,61.0,120,120,0.0,0.0
5725,57.0,0,480,3.0,0.0
5726,69.0,120,120,0.0,0.0
5727,64.0,120,120,0.0,0.0
5728,73.0,120,120,0.0,0.0
5729,69.0,120,120,0.0,0.0
5730,76.0,120,120,0.0,0.0
5731,73.0,120,120,0.0,0.0
5732,81.0,120,120,0.0,0.0
5733,76.0,120,120,0.0,0.0
5734,85.0,120,120,0.0,0.0
5735,81.0,120,120,0.0,0.0
5736,88.0,120,120,0.0,0.0
5737,86.0,120,120,0.0,0.0
5738,85.0,120,120,0.0,0.0
5739,83.0,120,120,0.0,0.0
5740,81.0,120,120,0.0,0.0
5741,80.0,120,120,0.0,0.0
5742,81.0,120,120,0.0,0.0
5743,83.0,120,120,0.0,0.0
5744,81.0,120,120,0.0,0.0
5745,80.0,0,480,0.0,0.0
5746,71.0,120,120,3.0,0.0
5747,74.0,120,120,3.0,0.0
5748,76.0,120,120,3.0,0.0
5749,74.0,240,120,3.0,0.0
5750,71.0,120,480,3.0,0.0
5751,87.0,120,120,0.0,0.0
5752,88.0,120,120,0.0,0.0
5753,86.0,0,120,0.0,0.0
5754,85.0,120,120,0.0,0.0
5755,83.0,120,120,0.0,0.0
5756,81.0,120,120,0.0,0.0
5757,80.0,120,120,0.0,0.0
5758,81.0,120,120,0.0,0.0
5759,83.0,120,120,0.0,0.0
5760,85.0,120,120,0.0,0.0
5761,83.0,120,120,0.0,0.0
5762,73.0,120,120,3.0,0.0
5763,81.0,360,480,0.0,0.0
5764,76.0,120,120,3.0,0.0
5765,81.0,120,120,3.0,0.0
5766,76.0,0,120,3.0,0.0
5767,73.0,120,480,3.0,0.0
5768,85.0,120,120,0.0,0.0
5769,83.0,0,120,0.0,0.0
5770,81.0,120,120,0.0,0.0
5771,80.0,120,120,0.0,0.0
5772,78.0,120,120,0.0,0.0
5773,76.0,120,120,0.0,0.0
5774,69.0,0,480,3.0,0.0
5775,66.0,120,480,3.0,0.0
5776,75.0,120,120,0.0,0.0
5777,78.0,120,120,0.0,0.0
5778,81.0,120,120,0.0,0.0
5779,80.0,0,120,0.0,0.0
5780,78.0,120,120,0.0,0.0
5781,76.0,120,120,0.0,0.0
5782,75.0,120,120,0.0,0.0
5783,73.0,120,120,0.0,0.0
5784,66.0,0,480,3.0,0.0
5785,71.0,120,120,0.0,0.0
5786,63.0,120,480,3.0,0.0
5787,75.0,120,120,0.0,0.0
5788,78.0,120,120,0.0,0.0
5789,76.0,0,120,0.0,0.0
5790,75.0,120,120,0.0,0.0
5791,73.0,120,120,0.0,0.0
5792,71.0,120,120,0.0,0.0
5793,69.0,120,120,0.0,0.0
5794,64.0,120,480,3.0,0.0
5795,68.0,120,120,0.0,0.0
5796,64.0,120,120,0.0,0.0
5797,71.0,120,120,0.0,0.0
5798,68.0,0,120,0.0,0.0
5799,76.0,120,120,0.0,0.0
5800,71.0,120,120,0.0,0.0
5801,80.0,120,120,0.0,0.0
5802,76.0,120,120,0.0,0.0
5803,83.0,120,120,0.0,0.0
5804,80.0,120,120,0.0,0.0
5805,52.0,120,240,3.0,0.0
5806,56.0,0,240,3.0,0.0
5807,88.0,120,120,0.0,0.0
5808,87.0,0,120,0.0,0.0
5809,85.0,120,120,0.0,0.0
5810,54.0,0,240,3.0,0.0
5811,57.0,0,240,3.0,0.0
5812,83.0,120,120,0.0,0.0
5813,81.0,120,120,0.0,0.0
5814,56.0,0,240,3.0,0.0
5815,59.0,0,240,3.0,0.0
5816,80.0,120,120,0.0,0.0
5817,78.0,120,120,0.0,0.0
5818,57.0,0,240,3.0,0.0
5819,61.0,120,240,3.0,0.0
5820,81.0,0,120,0.0,0.0
5821,85.0,120,120,0.0,0.0
5822,83.0,120,120,0.0,0.0
5823,81.0,120,120,0.0,0.0
5824,80.0,120,120,0.0,0.0
5825,78.0,120,120,0.0,0.0
5826,76.0,120,120,0.0,0.0
5827,75.0,120,120,0.0,0.0
5828,51.0,0,240,3.0,0.0
5829,47.0,0,240,3.0,0.0
5830,54.0,0,240,3.0,0.0
5831,57.0,120,240,3.0,0.0
5832,76.0,0,120,0.0,0.0
5833,75.0,120,120,0.0,0.0
5834,73.0,120,120,0.0,0.0
5835,71.0,120,120,0.0,0.0
5836,69.0,120,120,0.0,0.0
5837,68.0,120,120,0.0,0.0
5838,66.0,240,120,0.0,0.0
5839,64.0,0,480,0.0,0.0
5840,52.0,240,240,3.0,0.0
5841,59.0,0,120,2.0,0.0
5842,56.0,0,240,3.0,0.0
5843,59.0,240,120,2.0,0.0
5844,64.0,180,300,3.0,0.0
5845,59.0,60,120,2.0,0.0
5846,56.0,0,240,3.0,0.0
5847,59.0,240,120,2.0,0.0
5848,52.0,240,240,3.0,0.0
5849,59.0,0,120,2.0,0.0
5850,56.0,240,240,3.0,0.0
5851,59.0,0,120,2.0,0.0
5852,71.0,0,240,0.0,0.0
5853,52.0,156,240,3.0,0.0
5854,59.0,0,120,2.0,0.0
5855,76.0,84,150,0.0,0.0
5856,56.0,0,240,3.0,0.0
5857,59.0,240,120,2.0,0.0
5858,57.0,0,240,3.0,0.0
5859,76.0,0,240,0.0,0.0
5860,59.0,156,120,2.0,0.0
5861,54.0,40,240,3.0,0.0
5862,75.0,84,150,0.0,0.0
5863,59.0,0,120,2.0,0.0
5864,73.0,40,40,0.0,0.0
5865,51.0,156,240,3.0,0.0
5866,75.0,160,40,0.0,0.0
5867,73.0,0,150,0.0,0.0
5868,59.0,0,120,2.0,0.0
5869,47.0,0,240,3.0,0.0
5870,71.0,84,150,0.0,0.0
5871,59.0,240,120,2.0,0.0
5872,45.0,240,240,3.0,0.0
5873,71.0,0,240,0.0,0.0
5874,59.0,0,120,2.0,0.0
5875,47.0,0,240,3.0,0.0
5876,59.0,240,120,2.0,0.0
5877,45.0,240,240,3.0,0.0
5878,71.0,0,240,0.0,0.0
5879,59.0,0,120,2.0,0.0
5880,47.0,0,240,3.0,0.0
5881,59.0,240,120,2.0,0.0
5882,44.0,165,240,3.0,0.0
5883,71.0,75,420,0.0,0.0
5884,59.0,0,120,2.0,0.0
5885,47.0,0,240,3.0,0.0
5886,59.0,22,120,2.0,0.0
5887,71.0,218,90,0.0,0.0
5888,52.0,240,240,3.0,0.0
5889,80.0,0,720,0.0,0.0
5890,59.0,0,120,2.0,0.0
5891,56.0,240,240,3.0,0.0
5892,59.0,0,120,2.0,0.0
5893,52.0,120,240,3.0,0.0
5894,59.0,0,120,2.0,0.0
5895,81.0,120,120,0.0,0.0
5896,56.0,0,240,3.0,0.0
5897,80.0,0,120,0.0,0.0
5898,59.0,120,120,2.0,0.0
5899,52.0,0,240,3.0,0.0
5900,78.0,120,120,0.0,0.0
5901,59.0,120,120,2.0,0.0
5902,76.0,120,120,0.0,0.0
5903,56.0,0,240,3.0,0.0
5904,59.0,240,120,2.0,0.0
5905,57.0,0,240,3.0,0.0
5906,76.0,156,240,0.0,0.0
5907,59.0,0,120,2.0,0.0
5908,54.0,40,240,3.0,0.0
5909,75.0,84,150,0.0,0.0
5910,59.0,0,120,2.0,0.0
5911,73.0,40,40,0.0,0.0
5912,51.0,0,240,3.0,0.0
5913,75.0,160,40,0.0,0.0
5914,73.0,0,150,0.0,0.0
5915,59.0,156,120,2.0,0.0
5916,47.0,240,240,3.0,0.0
5917,71.0,84,150,0.0,0.0
5918,59.0,0,120,2.0,0.0
5919,45.0,240,240,3.0,0.0
5920,71.0,0,240,0.0,0.0
5921,59.0,0,120,2.0,0.0
5922,47.0,0,240,3.0,0.0
5923,59.0,230,120,2.0,0.0
5924,45.0,10,240,3.0,0.0
5925,71.0,0,240,0.0,0.0
5926,59.0,230,120,2.0,0.0
5927,47.0,10,240,3.0,0.0
5928,59.0,230,120,2.0,0.0
5929,44.0,10,240,3.0,0.0
5930,71.0,82,360,0.0,0.0
5931,59.0,105,120,2.0,0.0
5932,47.0,10,240,3.0,0.0
5933,59.0,22,120,2.0,0.0
5934,71.0,38,60,0.0,0.0
5935,76.0,5,60,0.0,0.0
5936,80.0,208,60,0.0,0.0
5937,83.0,120,720,0.0,0.0
5938,52.0,10,240,3.0,0.0
5939,59.0,230,120,2.0,0.0
5940,56.0,10,240,3.0,0.0
5941,59.0,230,120,2.0,0.0
5942,52.0,10,240,3.0,0.0
5943,59.0,0,120,2.0,0.0
5944,56.0,10,240,3.0,0.0
5945,85.0,110,120,0.0,0.0
5946,59.0,0,120,2.0,0.0
5947,83.0,120,120,0.0,0.0
5948,52.0,10,240,3.0,0.0
5949,81.0,110,120,0.0,0.0
5950,80.0,0,120,0.0,0.0
5951,59.0,120,120,2.0,0.0
5952,56.0,10,240,3.0,0.0
5953,78.0,110,120,0.0,0.0
5954,59.0,0,120,2.0,0.0
5955,76.0,230,120,0.0,0.0
5956,57.0,10,240,3.0,0.0
5957,76.0,0,240,0.0,0.0
5958,59.0,156,120,2.0,0.0
5959,54.0,10,240,3.0,0.0
5960,75.0,74,150,0.0,0.0
5961,59.0,40,120,2.0,0.0
5962,73.0,40,40,0.0,0.0
5963,51.0,10,240,3.0,0.0
5964,75.0,150,40,0.0,0.0
5965,73.0,156,150,0.0,0.0
5966,59.0,0,120,2.0,0.0
5967,71.0,74,150,0.0,0.0
5968,47.0,10,240,3.0,0.0
5969,59.0,230,120,2.0,0.0
5970,71.0,230,240,0.0,0.0
5971,45.0,10,240,3.0,0.0
5972,59.0,0,120,2.0,0.0
5973,47.0,10,240,3.0,0.0
5974,59.0,230,120,2.0,0.0
5975,45.0,10,240,3.0,0.0
5976,71.0,0,240,0.0,0.0
5977,59.0,230,120,2.0,0.0
5978,47.0,10,240,3.0,0.0
5979,59.0,240,120,2.0,0.0
5980,44.0,40,420,3.0,0.0
5981,71.0,190,240,0.0,0.0
5982,59.0,0,120,2.0,0.0
5983,76.0,0,480,0.0,0.0
5984,56.0,10,240,2.0,0.0
5985,64.0,0,480,1.0,0.0
5986,59.0,240,120,2.0,0.0
5987,44.0,40,420,3.0,0.0
5988,59.0,190,120,2.0,0.0
5989,74.0,240,240,0.0,0.0
5990,62.0,0,240,1.0,0.0
5991,56.0,10,240,2.0,0.0
5992,59.0,0,120,2.0,0.0
5993,43.0,40,420,3.0,0.0
5994,61.0,190,720,1.0,0.0
5995,73.0,0,240,0.0,0.0
5996,57.0,80,120,2.0,0.0
5997,55.0,10,240,2.0,0.0
5998,74.0,80,90,0.0,0.0
5999,73.0,30,90,0.0,0.0
6000,57.0,240,120,2.0,0.0
6001,71.0,0,90,0.0,0.0
6002,43.0,40,420,3.0,0.0
6003,73.0,0,240,0.0,0.0
6004,57.0,0,120,2.0,0.0
6005,55.0,10,240,2.0,0.0
6006,64.0,240,240,1.0,0.0
6007,76.0,0,240,0.0,0.0
6008,57.0,0,120,2.0,0.0
6009,42.0,40,420,3.0,0.0
6010,64.0,0,480,1.0,0.0
6011,76.0,240,480,0.0,0.0
6012,57.0,190,120,2.0,0.0
6013,54.0,10,240,2.0,0.0
6014,57.0,0,120,2.0,0.0
6015,62.0,0,480,1.0,0.0
6016,42.0,40,420,3.0,0.0
6017,74.0,0,480,0.0,0.0
6018,57.0,190,120,2.0,0.0
6019,54.0,10,240,2.0,0.0
6020,57.0,240,120,2.0,0.0
6021,42.0,40,420,3.0,0.0
6022,56.0,190,120,2.0,0.0
6023,54.0,10,240,2.0,0.0
6024,56.0,240,120,2.0,0.0
6025,60.0,240,480,1.0,0.0
6026,72.0,0,480,0.0,0.0
6027,42.0,40,420,3.0,0.0
6028,56.0,190,120,2.0,0.0
6029,54.0,10,240,2.0,0.0
6030,56.0,0,120,2.0,0.0
6031,63.0,0,240,1.0,0.0
6032,75.0,190,240,0.0,0.0
6033,40.0,40,420,3.0,0.0
6034,56.0,0,120,2.0,0.0
6035,52.0,10,240,2.0,0.0
6036,73.0,190,480,0.0,0.0
6037,61.0,0,480,1.0,0.0
6038,56.0,240,120,2.0,0.0
6039,40.0,40,420,3.0,0.0
6040,56.0,0,120,2.0,0.0
6041,59.0,0,240,1.0,0.0
6042,52.0,10,240,2.0,0.0
6043,71.0,0,240,0.0,0.0
6044,56.0,240,120,2.0,0.0
6045,40.0,50,420,3.0,0.0
6046,58.0,190,720,1.0,0.0
6047,70.0,0,240,0.0,0.0
6048,54.0,80,120,2.0,0.0
6049,52.0,230,240,2.0,0.0
6050,71.0,80,90,0.0,0.0
6051,70.0,30,90,0.0,0.0
6052,54.0,0,120,2.0,0.0
6053,68.0,10,90,0.0,0.0
6054,70.0,0,240,0.0,0.0
6055,40.0,30,420,3.0,0.0
6056,54.0,0,120,2.0,0.0
6057,52.0,20,210,2.0,0.0
6058,61.0,0,240,1.0,0.0
6059,54.0,240,120,2.0,0.0
6060,73.0,0,15,0.0,0.0
6061,39.0,40,420,3.0,0.0
6062,61.0,0,480,1.0,0.0
6063,54.0,190,120,2.0,0.0
6064,51.0,10,240,2.0,0.0
6065,54.0,240,120,2.0,0.0
6066,71.0,0,480,0.0,0.0
6067,59.0,0,480,1.0,0.0
6068,39.0,40,420,3.0,0.0
6069,54.0,190,120,2.0,0.0
6070,51.0,10,240,2.0,0.0
6071,54.0,240,120,2.0,0.0
6072,38.0,30,420,3.0,0.0
6073,52.0,190,120,2.0,0.0
6074,50.0,20,210,2.0,0.0
6075,52.0,240,120,2.0,0.0
6076,56.0,240,480,1.0,0.0
6077,38.0,40,420,3.0,0.0
6078,68.0,0,480,0.0,0.0
6079,52.0,180,120,2.0,0.0
6080,50.0,20,210,2.0,0.0
6081,52.0,0,120,2.0,0.0
6082,69.0,0,240,0.0,0.0
6083,37.0,40,420,3.0,0.0
6084,57.0,0,240,1.0,0.0
6085,52.0,180,120,2.0,0.0
6086,57.0,180,480,1.0,0.0
6087,49.0,20,210,2.0,0.0
6088,69.0,0,480,0.0,0.0
6089,52.0,240,120,2.0,0.0
6090,37.0,40,420,3.0,0.0
6091,52.0,0,120,2.0,0.0
6092,49.0,20,210,2.0,0.0
6093,64.0,0,480,1.0,0.0
6094,76.0,180,480,0.0,0.0
6095,52.0,240,120,2.0,0.0
6096,35.0,40,420,3.0,0.0
6097,52.0,0,120,2.0,0.0
6098,47.0,20,210,2.0,0.0
6099,74.0,0,480,0.0,0.0
6100,68.0,0,480,1.0,0.0
6101,52.0,240,120,2.0,0.0
6102,33.0,40,420,3.0,0.0
6103,52.0,180,120,2.0,0.0
6104,73.0,220,240,0.0,0.0
6105,45.0,20,210,2.0,0.0
6106,69.0,0,240,1.0,0.0
6107,52.0,0,120,2.0,0.0
6108,71.0,0,480,0.0,0.0
6109,68.0,0,480,1.0,0.0
6110,40.0,20,210,3.0,0.0
6111,52.0,220,120,2.0,0.0
6112,42.0,20,210,3.0,0.0
6113,52.0,220,120,2.0,0.0
6114,44.0,20,210,3.0,0.0
6115,52.0,220,120,2.0,0.0
6116,45.0,20,210,3.0,0.0
6117,52.0,220,120,2.0,0.0
6118,47.0,20,210,3.0,0.0
6119,52.0,220,120,2.0,0.0
6120,49.0,20,210,3.0,0.0
6121,52.0,220,120,2.0,0.0
6122,50.0,20,210,3.0,0.0
6123,52.0,220,120,2.0,0.0
6124,47.0,20,210,3.0,0.0
6125,80.0,0,240,0.0,0.0
6126,68.0,220,240,1.0,0.0
6127,52.0,0,120,2.0,0.0
6128,69.0,0,240,1.0,0.0
6129,49.0,20,210,3.0,0.0
6130,52.0,220,120,2.0,0.0
6131,45.0,20,210,3.0,0.0
6132,69.0,0,480,1.0,0.0
6133,81.0,0,15,0.0,0.0
6134,52.0,240,120,2.0,0.0
6135,37.0,20,450,3.0,0.0
6136,52.0,0,120,2.0,0.0
6137,49.0,20,210,3.0,0.0
6138,64.0,0,480,1.0,0.0
6139,76.0,0,480,0.0,0.0
6140,52.0,240,120,2.0,0.0
6141,35.0,20,450,3.0,0.0
6142,52.0,200,120,2.0,0.0
6143,74.0,0,480,0.0,0.0
6144,68.0,0,480,1.0,0.0
6145,47.0,20,210,3.0,0.0
6146,52.0,240,120,2.0,0.0
6147,33.0,20,450,3.0,0.0
6148,52.0,200,120,2.0,0.0
6149,73.0,0,240,0.0,0.0
6150,69.0,0,240,1.0,0.0
6151,45.0,20,210,3.0,0.0
6152,52.0,88,120,2.0,0.0
6153,68.0,0,480,1.0,0.0
6154,40.0,110,90,3.0,0.0
6155,71.0,78,480,0.0,0.0
6156,52.0,130,90,2.0,0.0
6157,42.0,110,90,3.0,0.0
6158,52.0,42,90,2.0,0.0
6159,44.0,120,90,3.0,0.0
6160,52.0,120,90,2.0,0.0
6161,45.0,120,90,3.0,0.0
6162,52.0,120,90,2.0,0.0
6163,46.0,120,90,3.0,0.0
6164,52.0,120,90,2.0,0.0
6165,47.0,120,90,3.0,0.0
6166,52.0,120,90,2.0,0.0
6167,48.0,120,90,3.0,0.0
6168,52.0,120,90,2.0,0.0
6169,49.0,120,90,3.0,0.0
6170,52.0,120,90,2.0,0.0
6171,50.0,120,90,3.0,0.0
6172,52.0,120,90,2.0,0.0
6173,49.0,120,90,3.0,0.0
6174,52.0,120,90,2.0,0.0
6175,47.0,120,90,3.0,0.0
6176,52.0,120,90,2.0,0.0
6177,45.0,120,90,3.0,0.0
6178,52.0,120,90,2.0,0.0
6179,44.0,120,90,3.0,0.0
6180,52.0,120,90,2.0,0.0
6181,42.0,120,90,3.0,0.0
6182,52.0,120,90,2.0,0.0
6183,44.0,120,90,3.0,0.0
6184,52.0,120,90,2.0,0.0
6185,40.0,120,90,3.0,0.0
6186,52.0,122,90,2.0,0.0
6187,33.0,80,90,0.0,0.0
6188,37.0,80,90,0.0,0.0
6189,40.0,80,90,0.0,0.0
6190,45.0,80,90,0.0,0.0
6191,49.0,80,90,0.0,0.0
6192,52.0,60,90,0.0,0.0
6193,57.0,60,60,0.0,0.0
6194,61.0,60,60,0.0,0.0
6195,64.0,60,60,0.0,0.0
6196,69.0,60,60,0.0,0.0
6197,73.0,60,60,0.0,0.0
6198,76.0,60,60,0.0,0.0
6199,81.0,60,60,0.0,0.0
6200,85.0,240,60,0.0,0.0
6201,57.0,20,450,3.0,0.0
6202,88.0,220,240,0.0,0.0
6203,64.0,240,240,2.0,0.0
6204,61.0,20,450,3.0,0.0
6205,88.0,220,240,0.0,0.0
6206,64.0,240,240,2.0,0.0
6207,59.0,20,450,3.0,0.0
6208,88.0,120,240,0.0,0.0
6209,64.0,460,240,2.0,0.0
6210,68.0,100,120,0.0,0.0
6211,62.0,20,450,3.0,0.0
6212,64.0,460,240,2.0,0.0
6213,59.0,20,450,3.0,0.0
6214,64.0,0,240,2.0,0.0
6215,68.0,460,15,0.0,0.0
6216,62.0,20,450,3.0,0.0
6217,64.0,240,240,2.0,0.0
6218,61.0,120,240,3.0,0.0
6219,69.0,120,360,0.0,0.0
6220,57.0,0,240,3.0,0.0
6221,64.0,240,120,0.0,0.0
6222,56.0,125,240,3.0,0.0
6223,71.0,115,360,0.0,0.0
6224,52.0,0,240,3.0,0.0
6225,64.0,370,120,0.0,0.0
6226,57.0,40,450,3.0,0.0
6227,73.0,70,360,0.0,0.0
6228,64.0,360,240,2.0,0.0
6229,64.0,0,120,0.0,0.0
6230,74.0,80,360,0.0,0.0
6231,54.0,40,450,3.0,0.0
6232,59.0,0,240,2.0,0.0
6233,69.0,440,120,0.0,0.0
6234,52.0,40,450,3.0,0.0
6235,76.0,120,720,0.0,0.0
6236,61.0,240,240,2.0,0.0
6237,57.0,40,450,3.0,0.0
6238,61.0,440,240,2.0,0.0
6239,74.0,80,120,0.0,0.0
6240,73.0,0,120,0.0,0.0
6241,52.0,40,450,3.0,0.0
6242,71.0,420,480,0.0,0.0
6243,56.0,0,240,2.0,0.0
6244,50.0,60,420,3.0,0.0
6245,56.0,360,240,2.0,0.0
6246,49.0,60,420,3.0,0.0
6247,57.0,60,120,0.0,0.0
6248,57.0,80,240,2.0,0.0
6249,61.0,0,120,0.0,0.0
6250,64.0,80,90,0.0,0.0
6251,52.0,60,420,3.0,0.0
6252,69.0,80,90,0.0,0.0
6253,73.0,80,90,0.0,0.0
6254,76.0,80,90,0.0,0.0
6255,57.0,0,240,2.0,0.0
6256,81.0,20,90,0.0,0.0
6257,85.0,240,90,0.0,0.0
6258,88.0,180,240,0.0,0.0
6259,47.0,60,420,3.0,0.0
6260,56.0,240,240,2.0,0.0
6261,88.0,180,240,0.0,0.0
6262,52.0,60,420,3.0,0.0
6263,56.0,240,240,2.0,0.0
6264,46.0,60,420,3.0,0.0
6265,88.0,120,240,0.0,0.0
6266,66.0,60,120,0.0,0.0
6267,54.0,480,240,2.0,0.0
6268,66.0,0,960,0.0,0.0
6269,52.0,0,480,3.0,0.0
6270,54.0,480,240,2.0,0.0
6271,49.0,480,480,3.0,0.0
6272,58.0,0,240,2.0,0.0
6273,58.0,0,240,2.0,0.0
6274,52.0,240,15,3.0,0.0
6275,68.0,0,15,0.0,0.0
6276,59.0,0,240,2.0,0.0
6277,69.0,120,120,0.0,0.0
6278,68.0,0,120,0.0,0.0
6279,66.0,220,240,0.0,0.0
6280,56.0,20,450,3.0,0.0
6281,59.0,240,240,2.0,0.0
6282,68.0,0,240,0.0,0.0
6283,71.0,220,240,0.0,0.0
6284,54.0,20,450,3.0,0.0
6285,69.0,0,240,0.0,0.0
6286,59.0,0,240,2.0,0.0
6287,57.0,20,450,3.0,0.0
6288,66.0,220,240,0.0,0.0
6289,47.0,240,15,3.0,0.0
6290,63.0,480,240,0.0,0.0
6291,59.0,0,240,2.0,0.0
6292,63.0,0,960,1.0,0.0
6293,52.0,240,1440,3.0,0.0
6294,66.0,0,960,0.0,0.0
6295,57.0,240,240,3.0,0.0
6296,59.0,240,240,3.0,0.0
6297,57.0,192,240,3.0,0.0
6298,56.0,0,480,3.0,0.0
6299,64.0,288,180,0.0,0.0
6300,76.0,0,240,0.0,0.0
6301,71.0,240,240,0.0,0.0
6302,73.0,480,240,0.0,0.0
6303,52.0,240,3120,3.0,0.0
6304,74.0,0,960,0.0,0.0
6305,71.0,240,240,1.0,0.0
6306,66.0,240,240,1.0,0.0
6307,68.0,480,240,1.0,0.0
6308,73.0,240,960,0.0,0.0
6309,69.0,0,960,1.0,0.0
6310,57.0,240,240,1.0,0.0
6311,61.0,240,240,1.0,0.0
6312,63.0,0,240,1.0,0.0
6313,68.0,0,1440,1.0,0.0
6314,64.0,156,240,1.0,0.0
6315,71.0,0,1440,0.0,0.0
6316,63.0,240,150,1.0,0.0
6317,64.0,240,150,1.0,0.0
6318,66.0,324,150,1.0,0.0
6319,64.0,0,480,1.0,0.0
6320,52.0,240,240,3.0,0.0
6321,47.0,240,240,3.0,0.0
6322,49.0,480,240,3.0,0.0
6323,59.0,480,960,1.0,0.0
6324,50.0,0,960,3.0,0.0
6325,40.0,0,1920,3.0,0.0
6326,71.0,240,240,0.0,0.0
6327,66.0,240,240,0.0,0.0
6328,68.0,0,240,0.0,0.0
6329,49.0,240,480,3.0,0.0
6330,69.0,0,960,0.0,0.0
6331,57.0,0,240,1.0,0.0
6332,61.0,240,240,1.0,0.0
6333,54.0,0,480,3.0,0.0
6334,63.0,240,240,1.0,0.0
6335,68.0,0,480,0.0,0.0
6336,64.0,156,480,1.0,0.0
6337,59.0,0,480,1.0,0.0
6338,40.0,240,240,3.0,0.0
6339,52.0,0,480,3.0,0.0
6340,39.0,0,240,3.0,0.0
6341,40.0,240,150,3.0,0.0
6342,42.0,240,150,3.0,0.0
6343,40.0,240,150,3.0,0.0
6344,38.0,240,150,3.0,0.0
6345,37.0,240,150,3.0,0.0
6346,35.0,164,150,3.0,0.0
6347,45.0,80,90,0.0,0.0
6348,33.0,0,480,3.0,0.0
6349,49.0,80,90,0.0,0.0
6350,52.0,80,90,0.0,0.0
6351,52.0,0,240,2.0,0.0
6352,57.0,80,90,0.0,0.0
6353,61.0,80,90,0.0,0.0
6354,64.0,80,90,0.0,0.0
6355,69.0,80,90,0.0,0.0
6356,49.0,0,480,3.0,0.0
6357,73.0,80,90,0.0,0.0
6358,76.0,120,90,0.0,0.0
6359,81.0,120,120,0.0,0.0
6360,52.0,240,240,2.0,0.0
6361,85.0,0,120,0.0,0.0
6362,45.0,0,480,3.0,0.0
6363,88.0,240,240,0.0,0.0
6364,52.0,240,240,2.0,0.0
6365,88.0,240,240,0.0,0.0
6366,49.0,240,480,3.0,0.0
6367,52.0,0,240,2.0,0.0
6368,47.0,480,480,3.0,0.0
6369,88.0,120,240,0.0,0.0
6370,52.0,0,240,2.0,0.0
6371,68.0,120,120,0.0,0.0
6372,68.0,480,960,0.0,0.0
6373,50.0,0,480,3.0,0.0
6374,52.0,480,240,2.0,0.0
6375,47.0,0,480,3.0,0.0
6376,52.0,0,240,2.0,0.0
6377,49.0,0,480,3.0,0.0
6378,69.0,60,480,0.0,0.0
6379,57.0,0,240,2.0,0.0
6380,50.0,0,480,3.0,0.0
6381,71.0,60,60,0.0,0.0
6382,73.0,60,60,0.0,0.0
6383,71.0,60,60,0.0,0.0
6384,70.0,120,60,0.0,0.0
6385,59.0,104,240,2.0,0.0
6386,71.0,120,120,0.0,0.0
6387,73.0,0,120,0.0,0.0
6388,74.0,160,90,0.0,0.0
6389,54.0,0,480,3.0,0.0
6390,76.0,160,90,0.0,0.0
6391,59.0,480,240,2.0,0.0
6392,78.0,56,90,0.0,0.0
6393,69.0,240,480,0.0,0.0
6394,61.0,0,240,2.0,0.0
6395,52.0,0,15,3.0,0.0
6396,73.0,240,240,0.0,0.0
6397,71.0,0,240,0.0,0.0
6398,62.0,480,240,2.0,0.0
6399,68.0,0,15,1.0,0.0
6400,71.0,0,960,0.0,0.0
6401,62.0,240,240,3.0,0.0
6402,64.0,240,240,3.0,0.0
6403,62.0,0,240,3.0,0.0
6404,69.0,108,150,0.0,0.0
6405,61.0,104,480,3.0,0.0
6406,64.0,160,90,0.0,0.0
6407,65.0,56,90,0.0,0.0
6408,66.0,160,90,0.0,0.0
6409,67.0,160,90,0.0,0.0
6410,68.0,56,90,0.0,0.0
6411,57.0,240,15,3.0,0.0
6412,52.0,0,240,3.0,0.0
6413,48.0,24,240,3.0,0.0
6414,45.0,0,240,3.0,0.0
6415,69.0,160,90,0.0,0.0
6416,70.0,160,90,0.0,0.0
6417,64.0,24,240,3.0,0.0
6418,57.0,0,240,3.0,0.0
6419,60.0,0,240,3.0,0.0
6420,71.0,136,90,0.0,0.0
6421,72.0,160,90,0.0,0.0
6422,73.0,160,90,0.0,0.0
6423,74.0,160,90,0.0,0.0
6424,75.0,160,90,0.0,0.0
6425,76.0,216,90,0.0,0.0
6426,77.0,104,150,0.0,0.0
6427,60.0,64,360,3.0,0.0
6428,76.0,96,90,0.0,0.0
6429,69.0,56,90,0.0,0.0
6430,64.0,0,15,3.0,0.0
6431,57.0,0,15,3.0,0.0
6432,60.0,0,120,3.0,0.0
6433,59.0,0,240,3.0,0.0
6434,64.0,0,15,3.0,0.0
6435,62.0,0,240,3.0,0.0
6436,68.0,160,90,0.0,0.0
6437,69.0,160,90,0.0,0.0
6438,59.0,0,240,3.0,0.0
6439,62.0,24,240,3.0,0.0
6440,70.0,136,90,0.0,0.0
6441,64.0,0,240,3.0,0.0
6442,71.0,160,90,0.0,0.0
6443,72.0,160,90,0.0,0.0
6444,73.0,160,90,0.0,0.0
6445,74.0,160,90,0.0,0.0
6446,75.0,216,90,0.0,0.0
6447,59.0,0,360,3.0,0.0
6448,62.0,0,360,3.0,0.0
6449,64.0,64,360,3.0,0.0
6450,76.0,104,150,0.0,0.0
6451,74.0,96,90,0.0,0.0
6452,68.0,56,90,0.0,0.0
6453,62.0,240,120,3.0,0.0
6454,64.0,0,120,3.0,0.0
6455,59.0,0,120,3.0,0.0
6456,60.0,24,240,3.0,0.0
6457,64.0,0,240,3.0,0.0
6458,69.0,160,90,0.0,0.0
6459,71.0,160,90,0.0,0.0
6460,72.0,160,90,0.0,0.0
6461,73.0,160,90,0.0,0.0
6462,74.0,160,90,0.0,0.0
6463,75.0,160,90,0.0,0.0
6464,76.0,160,90,0.0,0.0
6465,77.0,160,90,0.0,0.0
6466,78.0,160,90,0.0,0.0
6467,79.0,160,90,0.0,0.0
6468,80.0,160,90,0.0,0.0
6469,81.0,160,90,0.0,0.0
6470,76.0,160,90,0.0,0.0
6471,77.0,216,90,0.0,0.0
6472,74.0,80,150,0.0,0.0
6473,50.0,24,240,3.0,0.0
6474,53.0,0,240,3.0,0.0
6475,59.0,0,240,3.0,0.0
6476,77.0,160,90,0.0,0.0
6477,71.0,216,90,0.0,0.0
6478,72.0,80,150,0.0,0.0
6479,60.0,24,240,3.0,0.0
6480,57.0,0,240,3.0,0.0
6481,52.0,0,240,3.0,0.0
6482,76.0,160,90,0.0,0.0
6483,69.0,216,90,0.0,0.0
6484,52.0,0,240,3.0,0.0
6485,59.0,24,240,3.0,0.0
6486,71.0,80,150,0.0,0.0
6487,62.0,0,240,3.0,0.0
6488,74.0,160,90,0.0,0.0
6489,68.0,296,90,0.0,0.0
6490,64.0,0,240,1.0,0.0
6491,60.0,24,240,1.0,0.0
6492,69.0,0,240,0.0,0.0
6493,45.0,160,90,3.0,0.0
6494,46.0,160,90,3.0,0.0
6495,69.0,0,240,0.0,0.0
6496,60.0,24,240,1.0,0.0
6497,47.0,136,90,3.0,0.0
6498,64.0,0,240,1.0,0.0
6499,48.0,160,90,3.0,0.0
6500,49.0,160,90,3.0,0.0
6501,50.0,160,90,3.0,0.0
6502,51.0,160,90,3.0,0.0
6503,52.0,216,90,3.0,0.0
6504,60.0,0,360,1.0,0.0
6505,53.0,104,150,3.0,0.0
6506,52.0,96,90,3.0,0.0
6507,45.0,56,90,3.0,0.0
6508,69.0,0,15,0.0,0.0
6509,64.0,64,15,1.0,0.0
6510,60.0,0,120,1.0,0.0
6511,69.0,0,240,1.0,0.0
6512,74.0,24,240,1.0,0.0
6513,65.0,0,240,1.0,0.0
6514,77.0,0,240,0.0,0.0
6515,38.0,160,90,3.0,0.0
6516,40.0,160,90,3.0,0.0
6517,74.0,0,240,1.0,0.0
6518,77.0,0,240,0.0,0.0
6519,41.0,136,90,3.0,0.0
6520,69.0,0,240,1.0,0.0
6521,65.0,24,240,1.0,0.0
6522,42.0,160,90,3.0,0.0
6523,43.0,160,90,3.0,0.0
6524,44.0,160,90,3.0,0.0
6525,45.0,160,90,3.0,0.0
6526,46.0,216,90,3.0,0.0
6527,47.0,104,150,3.0,0.0
6528,77.0,0,360,0.0,0.0
6529,45.0,96,90,3.0,0.0
6530,38.0,56,90,3.0,0.0
6531,65.0,64,15,1.0,0.0
6532,74.0,0,15,1.0,0.0
6533,69.0,0,15,1.0,0.0
6534,77.0,0,15,0.0,0.0
6535,74.0,0,15,1.0,0.0
6536,67.0,0,240,1.0,0.0
6537,71.0,0,240,1.0,0.0
6538,65.0,0,240,1.0,0.0
6539,31.0,160,150,3.0,0.0
6540,33.0,160,150,3.0,0.0
6541,65.0,0,240,1.0,0.0
6542,35.0,80,150,3.0,0.0
6543,77.0,0,240,0.0,0.0
6544,74.0,0,240,1.0,0.0
6545,71.0,0,240,1.0,0.0
6546,67.0,80,240,1.0,0.0
6547,36.0,160,150,3.0,0.0
6548,38.0,160,150,3.0,0.0
6549,40.0,160,150,3.0,0.0
6550,41.0,160,150,3.0,0.0
6551,43.0,160,150,3.0,0.0
6552,67.0,0,360,1.0,0.0
6553,74.0,0,360,1.0,0.0
6554,65.0,0,360,1.0,0.0
6555,45.0,160,150,3.0,0.0
6556,47.0,40,150,3.0,0.0
6557,48.0,160,150,3.0,0.0
6558,71.0,0,15,1.0,0.0
6559,77.0,120,15,0.0,0.0
6560,50.0,80,150,3.0,0.0
6561,67.0,0,15,1.0,0.0
6562,74.0,0,15,1.0,0.0
6563,65.0,0,15,1.0,0.0
6564,71.0,80,240,1.0,0.0
6565,77.0,0,240,0.0,0.0
6566,52.0,160,150,3.0,0.0
6567,53.0,160,150,3.0,0.0
6568,55.0,160,150,3.0,0.0
6569,74.0,120,360,1.0,0.0
6570,67.0,0,360,1.0,0.0
6571,71.0,0,360,1.0,0.0
6572,65.0,0,360,1.0,0.0
6573,57.0,40,150,3.0,0.0
6574,59.0,160,150,3.0,0.0
6575,77.0,0,15,0.0,0.0
6576,74.0,0,120,1.0,0.0
6577,65.0,0,120,1.0,0.0
6578,71.0,0,120,1.0,0.0
6579,67.0,0,15,1.0,0.0
6580,76.0,80,240,0.0,0.0
6581,60.0,80,150,3.0,0.0
6582,64.0,0,240,1.0,0.0
6583,72.0,0,240,1.0,0.0
6584,59.0,160,150,3.0,0.0
6585,57.0,160,150,3.0,0.0
6586,55.0,160,150,3.0,0.0
6587,53.0,40,150,3.0,0.0
6588,52.0,0,150,3.0,0.0
6589,64.0,0,15,1.0,0.0
6590,72.0,0,15,1.0,0.0
6591,76.0,0,15,0.0,0.0
6592,67.0,120,15,1.0,0.0
6593,53.0,80,150,3.0,0.0
6594,65.0,0,240,1.0,0.0
6595,69.0,80,240,1.0,0.0
6596,74.0,0,240,0.0,0.0
6597,62.0,0,240,1.0,0.0
6598,55.0,160,150,3.0,0.0
6599,57.0,160,150,3.0,0.0
6600,62.0,113,360,1.0,0.0
6601,66.0,0,360,1.0,0.0
6602,69.0,0,360,1.0,0.0
6603,54.0,160,150,3.0,0.0
6604,72.0,7,360,0.0,0.0
6605,55.0,40,150,3.0,0.0
6606,57.0,0,150,3.0,0.0
6607,69.0,160,120,1.0,0.0
6608,72.0,0,120,0.0,0.0
6609,63.0,0,120,1.0,0.0
6610,64.0,0,240,1.0,0.0
6611,43.0,80,150,3.0,0.0
6612,72.0,0,240,0.0,0.0
6613,67.0,80,240,1.0,0.0
6614,60.0,0,15,1.0,0.0
6615,48.0,160,150,3.0,0.0
6616,52.0,160,150,3.0,0.0
6617,55.0,80,150,3.0,0.0
6618,67.0,0,240,1.0,0.0
6619,62.0,0,240,1.0,0.0
6620,59.0,80,240,1.0,0.0
6621,65.0,0,240,1.0,0.0
6622,74.0,0,240,0.0,0.0
6623,53.0,160,150,3.0,0.0
6624,50.0,160,150,3.0,0.0
6625,72.0,0,240,0.0,0.0
6626,48.0,80,150,3.0,0.0
6627,64.0,80,240,1.0,0.0
6628,60.0,0,240,1.0,0.0
6629,67.0,0,240,1.0,0.0
6630,55.0,160,150,3.0,0.0
6631,52.0,160,150,3.0,0.0
6632,48.0,160,150,3.0,0.0
6633,43.0,160,150,3.0,0.0
6634,40.0,264,150,3.0,0.0
6635,36.0,104,480,3.0,0.0
6636,64.0,160,90,0.0,0.0
6637,65.0,56,90,0.0,0.0
6638,66.0,160,90,0.0,0.0
6639,67.0,160,90,0.0,0.0
6640,68.0,296,90,0.0,0.0
6641,45.0,0,240,3.0,0.0
6642,57.0,0,240,3.0,0.0
6643,52.0,24,240,3.0,0.0
6644,48.0,0,240,3.0,0.0
6645,69.0,160,90,0.0,0.0
6646,70.0,160,90,0.0,0.0
6647,64.0,24,240,3.0,0.0
6648,57.0,0,240,3.0,0.0
6649,60.0,0,240,3.0,0.0
6650,71.0,136,90,0.0,0.0
6651,72.0,160,90,0.0,0.0
6652,73.0,160,90,0.0,0.0
6653,74.0,160,90,0.0,0.0
6654,75.0,160,90,0.0,0.0
6655,76.0,216,90,0.0,0.0
6656,77.0,104,150,0.0,0.0
6657,64.0,0,360,3.0,0.0
6658,60.0,0,360,3.0,0.0
6659,76.0,96,90,0.0,0.0
6660,69.0,56,90,0.0,0.0
6661,64.0,240,120,3.0,0.0
6662,60.0,0,120,3.0,0.0
6663,57.0,64,15,3.0,0.0
6664,64.0,24,240,3.0,0.0
6665,62.0,0,240,3.0,0.0
6666,59.0,0,240,3.0,0.0
6667,68.0,160,90,0.0,0.0
6668,69.0,160,90,0.0,0.0
6669,70.0,136,90,0.0,0.0
6670,62.0,0,240,3.0,0.0
6671,59.0,0,240,3.0,0.0
6672,64.0,24,240,3.0,0.0
6673,71.0,160,90,0.0,0.0
6674,72.0,160,90,0.0,0.0
6675,73.0,160,90,0.0,0.0
6676,74.0,160,90,0.0,0.0
6677,75.0,216,90,0.0,0.0
6678,76.0,104,150,0.0,0.0
6679,59.0,0,360,3.0,0.0
6680,74.0,96,90,0.0,0.0
6681,68.0,56,90,0.0,0.0
6682,64.0,0,15,3.0,0.0
6683,62.0,64,15,3.0,0.0
6684,59.0,240,120,3.0,0.0
6685,64.0,0,15,3.0,0.0
6686,60.0,0,240,3.0,0.0
6687,69.0,160,90,0.0,0.0
6688,71.0,160,90,0.0,0.0
6689,72.0,160,90,0.0,0.0
6690,73.0,160,90,0.0,0.0
6691,74.0,160,90,0.0,0.0
6692,75.0,160,90,0.0,0.0
6693,76.0,160,90,0.0,0.0
6694,77.0,160,90,0.0,0.0
6695,78.0,160,90,0.0,0.0
6696,79.0,160,90,0.0,0.0
6697,80.0,160,90,0.0,0.0
6698,81.0,160,90,0.0,0.0
6699,76.0,160,90,0.0,0.0
6700,77.0,216,90,0.0,0.0
6701,50.0,24,240,3.0,0.0
6702,53.0,0,240,3.0,0.0
6703,74.0,80,150,0.0,0.0
6704,59.0,0,240,3.0,0.0
6705,77.0,160,90,0.0,0.0
6706,71.0,216,90,0.0,0.0
6707,72.0,80,150,0.0,0.0
6708,52.0,0,240,3.0,0.0
6709,60.0,24,240,3.0,0.0
6710,57.0,0,240,3.0,0.0
6711,76.0,160,90,0.0,0.0
6712,69.0,216,90,0.0,0.0
6713,62.0,0,240,3.0,0.0
6714,59.0,24,240,3.0,0.0
6715,52.0,0,240,3.0,0.0
6716,71.0,80,150,0.0,0.0
6717,74.0,160,90,0.0,0.0
6718,68.0,296,90,0.0,0.0
6719,60.0,0,240,1.0,0.0
6720,69.0,24,240,0.0,0.0
6721,64.0,0,240,1.0,0.0
6722,45.0,160,90,3.0,0.0
6723,46.0,160,90,3.0,0.0
6724,64.0,0,240,1.0,0.0
6725,60.0,0,240,1.0,0.0
6726,47.0,136,90,3.0,0.0
6727,69.0,24,240,0.0,0.0
6728,48.0,160,90,3.0,0.0
6729,49.0,160,90,3.0,0.0
6730,50.0,160,90,3.0,0.0
6731,51.0,160,90,3.0,0.0
6732,52.0,216,90,3.0,0.0
6733,53.0,104,150,3.0,0.0
6734,69.0,0,360,0.0,0.0
6735,52.0,96,90,3.0,0.0
6736,45.0,56,90,3.0,0.0
6737,64.0,64,15,1.0,0.0
6738,60.0,0,15,1.0,0.0
6739,69.0,0,120,0.0,0.0
6740,74.0,0,240,1.0,0.0
6741,77.0,24,240,0.0,0.0
6742,65.0,0,240,1.0,0.0
6743,69.0,0,240,1.0,0.0
6744,38.0,160,90,3.0,0.0
6745,40.0,160,90,3.0,0.0
6746,74.0,0,240,1.0,0.0
6747,77.0,0,240,0.0,0.0
6748,65.0,24,240,1.0,0.0
6749,69.0,0,240,1.0,0.0
6750,41.0,136,90,3.0,0.0
6751,42.0,160,90,3.0,0.0
6752,43.0,160,90,3.0,0.0
6753,44.0,160,90,3.0,0.0
6754,45.0,160,90,3.0,0.0
6755,46.0,216,90,3.0,0.0
6756,69.0,0,360,1.0,0.0
6757,47.0,104,150,3.0,0.0
6758,65.0,0,360,1.0,0.0
6759,77.0,0,360,0.0,0.0
6760,45.0,96,90,3.0,0.0
6761,38.0,56,90,3.0,0.0
6762,74.0,64,15,1.0,0.0
6763,65.0,240,120,1.0,0.0
6764,69.0,0,120,1.0,0.0
6765,77.0,0,120,0.0,0.0
6766,71.0,80,240,1.0,0.0
6767,67.0,0,240,1.0,0.0
6768,65.0,0,240,1.0,0.0
6769,74.0,0,240,1.0,0.0
6770,77.0,0,240,0.0,0.0
6771,31.0,160,150,3.0,0.0
6772,33.0,160,150,3.0,0.0
6773,77.0,0,240,0.0,0.0
6774,35.0,80,150,3.0,0.0
6775,74.0,0,240,1.0,0.0
6776,71.0,0,240,1.0,0.0
6777,67.0,0,240,1.0,0.0
6778,65.0,80,240,1.0,0.0
6779,36.0,160,150,3.0,0.0
6780,38.0,160,150,3.0,0.0
6781,40.0,160,150,3.0,0.0
6782,41.0,160,150,3.0,0.0
6783,43.0,160,150,3.0,0.0
6784,45.0,160,150,3.0,0.0
6785,67.0,0,360,1.0,0.0
6786,71.0,0,360,1.0,0.0
6787,74.0,0,360,1.0,0.0
6788,65.0,0,360,1.0,0.0
6789,47.0,40,150,3.0,0.0
6790,48.0,0,150,3.0,0.0
6791,77.0,120,15,0.0,0.0
6792,74.0,0,120,1.0,0.0
6793,67.0,0,15,1.0,0.0
6794,71.0,0,15,1.0,0.0
6795,50.0,80,150,3.0,0.0
6796,77.0,0,15,0.0,0.0
6797,65.0,160,15,1.0,0.0
6798,74.0,0,240,1.0,0.0
6799,52.0,160,150,3.0,0.0
6800,53.0,160,150,3.0,0.0
6801,55.0,160,150,3.0,0.0
6802,74.0,0,360,1.0,0.0
6803,57.0,40,150,3.0,0.0
6804,59.0,0,150,3.0,0.0
6805,77.0,0,15,0.0,0.0
6806,65.0,120,15,1.0,0.0
6807,71.0,0,15,1.0,0.0
6808,67.0,0,15,1.0,0.0
6809,74.0,0,120,1.0,0.0
6810,60.0,80,150,3.0,0.0
6811,72.0,0,240,1.0,0.0
6812,76.0,0,240,0.0,0.0
6813,67.0,80,240,1.0,0.0
6814,64.0,0,240,1.0,0.0
6815,59.0,160,150,3.0,0.0
6816,57.0,160,150,3.0,0.0
6817,64.0,0,360,1.0,0.0
6818,72.0,0,360,1.0,0.0
6819,55.0,160,150,3.0,0.0
6820,67.0,120,360,1.0,0.0
6821,53.0,40,150,3.0,0.0
6822,52.0,0,150,3.0,0.0
6823,76.0,0,15,0.0,0.0
6824,67.0,160,120,1.0,0.0
6825,64.0,0,120,1.0,0.0
6826,72.0,0,120,1.0,0.0
6827,62.0,0,240,1.0,0.0
6828,65.0,0,240,1.0,0.0
6829,74.0,80,240,0.0,0.0
6830,53.0,80,150,3.0,0.0
6831,69.0,0,240,1.0,0.0
6832,55.0,160,150,3.0,0.0
6833,57.0,160,150,3.0,0.0
6834,54.0,160,150,3.0,0.0
6835,60.0,160,480,1.0,0.0
6836,62.0,113,360,1.0,0.0
6837,66.0,0,360,1.0,0.0
6838,55.0,40,150,3.0,0.0
6839,57.0,0,150,3.0,0.0
6840,72.0,0,15,0.0,0.0
6841,69.0,7,15,1.0,0.0
6842,63.0,0,120,1.0,0.0
6843,72.0,80,240,0.0,0.0
6844,43.0,80,150,3.0,0.0
6845,64.0,0,240,1.0,0.0
6846,60.0,0,240,1.0,0.0
6847,67.0,0,240,1.0,0.0
6848,48.0,160,150,3.0,0.0
6849,52.0,160,150,3.0,0.0
6850,62.0,0,240,1.0,0.0
6851,59.0,80,240,1.0,0.0
6852,74.0,0,240,0.0,0.0
6853,65.0,0,240,1.0,0.0
6854,67.0,0,240,1.0,0.0
6855,55.0,80,150,3.0,0.0
6856,53.0,160,150,3.0,0.0
6857,50.0,160,150,3.0,0.0
6858,72.0,0,240,0.0,0.0
6859,64.0,0,240,1.0,0.0
6860,60.0,0,240,1.0,0.0
6861,48.0,80,150,3.0,0.0
6862,67.0,80,240,1.0,0.0
6863,55.0,160,150,3.0,0.0
6864,52.0,160,150,3.0,0.0
6865,48.0,160,150,3.0,0.0
6866,43.0,160,150,3.0,0.0
6867,40.0,264,150,3.0,0.0
6868,36.0,104,480,3.0,0.0
6869,55.0,160,90,0.0,0.0
6870,56.0,56,90,0.0,0.0
6871,57.0,160,90,0.0,0.0
6872,58.0,160,90,0.0,0.0
6873,59.0,160,90,0.0,0.0
6874,55.0,0,240,3.0,0.0
6875,60.0,136,90,0.0,0.0
6876,52.0,0,240,3.0,0.0
6877,48.0,24,240,3.0,0.0
6878,61.0,160,90,0.0,0.0
6879,62.0,160,90,0.0,0.0
6880,63.0,160,90,0.0,0.0
6881,64.0,160,90,0.0,0.0
6882,65.0,160,90,0.0,0.0
6883,66.0,160,90,0.0,0.0
6884,67.0,160,90,0.0,0.0
6885,68.0,160,90,0.0,0.0
6886,69.0,160,90,0.0,0.0
6887,70.0,160,90,0.0,0.0
6888,71.0,320,90,0.0,0.0
6889,62.0,104,960,1.0,0.0
6890,72.0,104,480,0.0,0.0
6891,43.0,160,90,3.0,0.0
6892,45.0,56,90,3.0,0.0
6893,71.0,0,480,0.0,0.0
6894,46.0,160,90,3.0,0.0
6895,47.0,160,90,3.0,0.0
6896,48.0,56,90,3.0,0.0
6897,49.0,160,90,3.0,0.0
6898,50.0,160,90,3.0,0.0
6899,51.0,160,90,3.0,0.0
6900,52.0,160,90,3.0,0.0
6901,53.0,160,90,3.0,0.0
6902,54.0,320,90,3.0,0.0
6903,50.0,104,960,3.0,0.0
6904,55.0,104,480,3.0,0.0
6905,62.0,160,90,0.0,0.0
6906,64.0,56,90,0.0,0.0
6907,53.0,0,480,3.0,0.0
6908,65.0,160,90,0.0,0.0
6909,66.0,160,90,0.0,0.0
6910,67.0,56,90,0.0,0.0
6911,68.0,160,90,0.0,0.0
6912,69.0,160,90,0.0,0.0
6913,70.0,160,90,0.0,0.0
6914,71.0,160,90,0.0,0.0
6915,72.0,160,90,0.0,0.0
6916,73.0,320,90,0.0,0.0
6917,64.0,104,960,1.0,0.0
6918,74.0,104,480,0.0,0.0
6919,45.0,160,90,3.0,0.0
6920,47.0,56,90,3.0,0.0
6921,72.0,0,480,0.0,0.0
6922,48.0,160,90,3.0,0.0
6923,49.0,160,90,3.0,0.0
6924,50.0,56,90,3.0,0.0
6925,51.0,160,90,3.0,0.0
6926,52.0,160,90,3.0,0.0
6927,53.0,160,90,3.0,0.0
6928,54.0,160,90,3.0,0.0
6929,55.0,160,90,3.0,0.0
6930,56.0,320,90,3.0,0.0
6931,52.0,104,960,3.0,0.0
6932,57.0,104,480,3.0,0.0
6933,64.0,160,90,0.0,0.0
6934,66.0,56,90,0.0,0.0
6935,55.0,0,480,3.0,0.0
6936,67.0,160,90,0.0,0.0
6937,69.0,160,90,0.0,0.0
6938,70.0,56,90,0.0,0.0
6939,71.0,160,90,0.0,0.0
6940,72.0,160,90,0.0,0.0
6941,73.0,160,90,0.0,0.0
6942,74.0,160,90,0.0,0.0
6943,75.0,160,90,0.0,0.0
6944,76.0,160,90,0.0,0.0
6945,51.0,0,1440,3.0,0.0
6946,57.0,0,1440,3.0,0.0
6947,54.0,104,1440,3.0,0.0
6948,59.0,0,1440,3.0,0.0
6949,77.0,160,90,0.0,0.0
6950,78.0,160,90,0.0,0.0
6951,79.0,160,90,0.0,0.0
6952,80.0,160,90,0.0,0.0
6953,81.0,160,90,0.0,0.0
6954,82.0,160,90,0.0,0.0
6955,83.0,160,90,0.0,0.0
6956,71.0,160,90,0.0,0.0
6957,84.0,56,90,0.0,0.0
6958,51.0,0,240,3.0,0.0
6959,54.0,0,240,3.0,0.0
6960,59.0,24,240,3.0,0.0
6961,81.0,136,90,0.0,0.0
6962,71.0,160,90,0.0,0.0
6963,83.0,160,90,0.0,0.0
6964,59.0,0,240,3.0,0.0
6965,55.0,24,240,3.0,0.0
6966,79.0,136,90,0.0,0.0
6967,52.0,0,240,3.0,0.0
6968,71.0,160,90,0.0,0.0
6969,81.0,160,90,0.0,0.0
6970,60.0,0,240,3.0,0.0
6971,78.0,136,90,0.0,0.0
6972,57.0,24,240,3.0,0.0
6973,69.0,160,90,0.0,0.0
6974,79.0,160,90,0.0,0.0
6975,76.0,136,90,0.0,0.0
6976,59.0,24,240,3.0,0.0
6977,67.0,160,90,0.0,0.0
6978,78.0,160,90,0.0,0.0
6979,75.0,136,90,0.0,0.0
6980,47.0,0,240,3.0,0.0
6981,57.0,24,240,3.0,0.0
6982,66.0,160,90,0.0,0.0
6983,78.0,160,90,0.0,0.0
6984,76.0,136,90,0.0,0.0
6985,52.0,24,240,3.0,0.0
6986,56.0,0,240,3.0,0.0
6987,68.0,160,90,0.0,0.0
6988,77.0,160,90,0.0,0.0
6989,74.0,160,90,0.0,0.0
6990,71.0,160,90,0.0,0.0
6991,76.0,160,90,0.0,0.0
6992,72.0,160,90,0.0,0.0
6993,69.0,160,90,0.0,0.0
6994,74.0,160,90,0.0,0.0
6995,71.0,160,90,0.0,0.0
6996,68.0,160,90,0.0,0.0
6997,72.0,296,90,0.0,0.0
6998,57.0,0,240,3.0,0.0
6999,52.0,0,240,3.0,0.0
7000,48.0,24,240,3.0,0.0
7001,45.0,0,240,3.0,0.0
7002,69.0,160,90,0.0,0.0
7003,70.0,160,90,0.0,0.0
7004,71.0,136,90,0.0,0.0
7005,60.0,0,240,3.0,0.0
7006,57.0,24,240,3.0,0.0
7007,64.0,0,240,3.0,0.0
7008,72.0,160,90,0.0,0.0
7009,73.0,160,90,0.0,0.0
7010,74.0,160,90,0.0,0.0
7011,75.0,160,90,0.0,0.0
7012,76.0,216,90,0.0,0.0
7013,77.0,104,150,0.0,0.0
7014,45.0,0,360,3.0,0.0
7015,52.0,0,360,3.0,0.0
7016,48.0,0,360,3.0,0.0
7017,76.0,96,90,0.0,0.0
7018,69.0,56,90,0.0,0.0
7019,52.0,0,120,3.0,0.0
7020,57.0,64,15,3.0,0.0
7021,48.0,0,120,3.0,0.0
7022,45.0,0,120,3.0,0.0
7023,56.0,0,240,3.0,0.0
7024,52.0,24,240,3.0,0.0
7025,47.0,0,240,3.0,0.0
7026,50.0,0,240,3.0,0.0
7027,68.0,160,90,0.0,0.0
7028,69.0,160,90,0.0,0.0
7029,62.0,0,240,3.0,0.0
7030,70.0,136,90,0.0,0.0
7031,59.0,0,240,3.0,0.0
7032,64.0,24,240,3.0,0.0
7033,71.0,160,90,0.0,0.0
7034,72.0,160,90,0.0,0.0
7035,73.0,160,90,0.0,0.0
7036,74.0,160,90,0.0,0.0
7037,75.0,216,90,0.0,0.0
7038,76.0,104,150,0.0,0.0
7039,47.0,0,360,3.0,0.0
7040,74.0,96,90,0.0,0.0
7041,68.0,56,90,0.0,0.0
7042,50.0,64,15,3.0,0.0
7043,56.0,0,15,3.0,0.0
7044,52.0,0,15,3.0,0.0
7045,47.0,0,120,3.0,0.0
7046,57.0,24,240,3.0,0.0
7047,48.0,0,240,3.0,0.0
7048,52.0,0,240,3.0,0.0
7049,69.0,160,90,0.0,0.0
7050,71.0,160,90,0.0,0.0
7051,72.0,136,90,0.0,0.0
7052,64.0,0,240,3.0,0.0
7053,69.0,24,240,3.0,0.0
7054,60.0,0,240,3.0,0.0
7055,74.0,160,90,0.0,0.0
7056,75.0,160,90,0.0,0.0
7057,76.0,160,90,0.0,0.0
7058,77.0,160,90,0.0,0.0
7059,78.0,160,90,0.0,0.0
7060,79.0,160,90,0.0,0.0
7061,80.0,160,90,0.0,0.0
7062,81.0,160,90,0.0,0.0
7063,82.0,160,90,0.0,0.0
7064,83.0,160,90,0.0,0.0
7065,84.0,160,90,0.0,0.0
7066,57.0,0,240,3.0,0.0
7067,85.0,136,90,0.0,0.0
7068,53.0,24,240,3.0,0.0
7069,86.0,160,90,0.0,0.0
7070,87.0,216,90,0.0,0.0
7071,88.0,80,150,0.0,0.0
7072,52.0,24,240,3.0,0.0
7073,57.0,0,240,3.0,0.0
7074,60.0,0,240,3.0,0.0
7075,84.0,160,90,0.0,0.0
7076,81.0,216,90,0.0,0.0
7077,86.0,80,150,0.0,0.0
7078,62.0,0,240,3.0,0.0
7079,52.0,24,240,3.0,0.0
7080,59.0,0,240,3.0,0.0
7081,83.0,160,90,0.0,0.0
7082,80.0,160,90,0.0,0.0
7083,81.0,136,90,0.0,0.0
7084,57.0,0,240,3.0,0.0
7085,60.0,24,240,3.0,0.0
7086,77.0,160,90,0.0,0.0
7087,76.0,160,90,0.0,0.0
7088,74.0,160,90,0.0,0.0
7089,72.0,160,90,0.0,0.0
7090,71.0,320,90,0.0,0.0
7091,69.0,104,480,0.0,0.0
7092,57.0,160,90,3.0,0.0
7093,55.0,56,90,3.0,0.0
7094,53.0,160,90,3.0,0.0
7095,52.0,160,90,3.0,0.0
7096,50.0,216,90,3.0,0.0
7097,48.0,160,480,3.0,0.0
7098,60.0,160,150,0.0,0.0
7099,61.0,160,150,0.0,0.0
7100,62.0,0,150,0.0,0.0
7101,63.0,160,150,0.0,0.0
7102,64.0,160,150,0.0,0.0
7103,65.0,160,150,0.0,0.0
7104,66.0,160,150,0.0,0.0
7105,67.0,160,150,0.0,0.0
7106,68.0,160,150,0.0,0.0
7107,69.0,160,150,0.0,0.0
7108,70.0,160,150,0.0,0.0
7109,71.0,320,150,0.0,0.0
7110,62.0,160,960,1.0,0.0
7111,72.0,0,480,0.0,0.0
7112,43.0,160,150,3.0,0.0
7113,45.0,160,150,3.0,0.0
7114,46.0,160,150,3.0,0.0
7115,71.0,0,480,0.0,0.0
7116,47.0,160,150,3.0,0.0
7117,48.0,0,150,3.0,0.0
7118,49.0,160,150,3.0,0.0
7119,50.0,160,150,3.0,0.0
7120,51.0,160,150,3.0,0.0
7121,52.0,160,150,3.0,0.0
7122,53.0,160,150,3.0,0.0
7123,54.0,320,150,3.0,0.0
7124,55.0,160,480,3.0,0.0
7125,50.0,0,960,3.0,0.0
7126,62.0,160,150,0.0,0.0
7127,64.0,0,150,0.0,0.0
7128,65.0,160,150,0.0,0.0
7129,53.0,160,480,3.0,0.0
7130,66.0,160,150,0.0,0.0
7131,67.0,0,150,0.0,0.0
7132,68.0,160,150,0.0,0.0
7133,69.0,160,150,0.0,0.0
7134,70.0,160,150,0.0,0.0
7135,71.0,160,150,0.0,0.0
7136,72.0,160,150,0.0,0.0
7137,73.0,320,150,0.0,0.0
7138,74.0,160,480,0.0,0.0
7139,64.0,0,960,1.0,0.0
7140,45.0,160,150,3.0,0.0
7141,47.0,0,150,3.0,0.0
7142,48.0,160,150,3.0,0.0
7143,72.0,0,480,0.0,0.0
7144,49.0,160,150,3.0,0.0
7145,50.0,160,150,3.0,0.0
7146,51.0,160,150,3.0,0.0
7147,52.0,160,150,3.0,0.0
7148,53.0,160,150,3.0,0.0
7149,54.0,160,150,3.0,0.0
7150,55.0,160,150,3.0,0.0
7151,56.0,320,150,3.0,0.0
7152,52.0,160,960,3.0,0.0
7153,57.0,0,480,3.0,0.0
7154,64.0,160,150,0.0,0.0
7155,66.0,160,150,0.0,0.0
7156,55.0,0,480,3.0,0.0
7157,67.0,160,150,0.0,0.0
7158,69.0,160,150,0.0,0.0
7159,70.0,0,150,0.0,0.0
7160,71.0,160,150,0.0,0.0
7161,72.0,160,150,0.0,0.0
7162,73.0,160,150,0.0,0.0
7163,74.0,160,150,0.0,0.0
7164,75.0,160,150,0.0,0.0
7165,76.0,160,150,0.0,0.0
7166,77.0,160,150,0.0,0.0
7167,54.0,0,1440,3.0,0.0
7168,57.0,0,1440,3.0,0.0
7169,51.0,160,1440,3.0,0.0
7170,78.0,160,150,0.0,0.0
7171,79.0,160,150,0.0,0.0
7172,80.0,160,150,0.0,0.0
7173,81.0,160,150,0.0,0.0
7174,82.0,160,150,0.0,0.0
7175,83.0,160,150,0.0,0.0
7176,71.0,160,150,0.0,0.0
7177,84.0,0,150,0.0,0.0
7178,81.0,160,150,0.0,0.0
7179,59.0,0,15,3.0,0.0
7180,51.0,160,480,3.0,0.0
7181,54.0,0,480,3.0,0.0
7182,71.0,160,150,0.0,0.0
7183,83.0,0,150,0.0,0.0
7184,79.0,160,150,0.0,0.0
7185,59.0,0,480,3.0,0.0
7186,52.0,0,480,3.0,0.0
7187,55.0,0,480,3.0,0.0
7188,71.0,160,150,0.0,0.0
7189,81.0,160,150,0.0,0.0
7190,60.0,0,480,3.0,0.0
7191,57.0,160,480,3.0,0.0
7192,78.0,160,150,0.0,0.0
7193,71.0,160,150,0.0,0.0
7194,79.0,0,150,0.0,0.0
7195,59.0,160,480,3.0,0.0
7196,76.0,160,150,0.0,0.0
7197,71.0,160,150,0.0,0.0
7198,78.0,0,150,0.0,0.0
7199,75.0,160,150,0.0,0.0
7200,47.0,0,480,3.0,0.0
7201,57.0,0,480,3.0,0.0
7202,66.0,160,150,0.0,0.0
7203,78.0,160,150,0.0,0.0
7204,52.0,0,480,3.0,0.0
7205,56.0,160,480,3.0,0.0
7206,76.0,104,150,0.0,0.0
7207,68.0,160,90,0.0,0.0
7208,77.0,56,90,0.0,0.0
7209,74.0,104,150,0.0,0.0
7210,71.0,160,90,0.0,0.0
7211,76.0,216,90,0.0,0.0
7212,72.0,104,150,0.0,0.0
7213,69.0,160,90,0.0,0.0
7214,74.0,216,90,0.0,0.0
7215,71.0,104,150,0.0,0.0
7216,68.0,160,90,0.0,0.0
7217,72.0,296,90,0.0,0.0
7218,48.0,0,240,3.0,0.0
7219,52.0,0,240,3.0,0.0
7220,45.0,24,240,3.0,0.0
7221,57.0,0,240,3.0,0.0
7222,69.0,160,90,0.0,0.0
7223,70.0,160,90,0.0,0.0
7224,71.0,136,90,0.0,0.0
7225,57.0,0,240,3.0,0.0
7226,64.0,0,240,3.0,0.0
7227,60.0,24,240,3.0,0.0
7228,72.0,160,90,0.0,0.0
7229,73.0,160,90,0.0,0.0
7230,74.0,160,90,0.0,0.0
7231,75.0,160,90,0.0,0.0
7232,76.0,216,90,0.0,0.0
7233,77.0,104,150,0.0,0.0
7234,76.0,96,90,0.0,0.0
7235,69.0,56,90,0.0,0.0
7236,52.0,0,15,3.0,0.0
7237,48.0,0,15,3.0,0.0
7238,57.0,64,15,3.0,0.0
7239,45.0,0,15,3.0,0.0
7240,52.0,0,15,3.0,0.0
7241,56.0,24,240,3.0,0.0
7242,50.0,0,240,3.0,0.0
7243,47.0,0,240,3.0,0.0
7244,68.0,160,90,0.0,0.0
7245,69.0,160,90,0.0,0.0
7246,70.0,136,90,0.0,0.0
7247,64.0,24,240,3.0,0.0
7248,62.0,0,240,3.0,0.0
7249,59.0,0,240,3.0,0.0
7250,71.0,160,90,0.0,0.0
7251,72.0,160,90,0.0,0.0
7252,73.0,160,90,0.0,0.0
7253,74.0,160,90,0.0,0.0
7254,75.0,216,90,0.0,0.0
7255,76.0,104,150,0.0,0.0
7256,47.0,64,360,3.0,0.0
7257,52.0,0,360,3.0,0.0
7258,74.0,96,90,0.0,0.0
7259,68.0,56,90,0.0,0.0
7260,50.0,0,15,3.0,0.0
7261,56.0,0,15,3.0,0.0
7262,47.0,0,120,3.0,0.0
7263,52.0,0,120,3.0,0.0
7264,57.0,0,240,3.0,0.0
7265,52.0,24,240,3.0,0.0
7266,48.0,0,240,3.0,0.0
7267,69.0,160,90,0.0,0.0
7268,71.0,160,90,0.0,0.0
7269,60.0,24,240,3.0,0.0
7270,64.0,0,240,3.0,0.0
7271,72.0,136,90,0.0,0.0
7272,69.0,0,240,3.0,0.0
7273,73.0,160,90,0.0,0.0
7274,74.0,160,90,0.0,0.0
7275,75.0,160,90,0.0,0.0
7276,76.0,160,90,0.0,0.0
7277,77.0,160,90,0.0,0.0
7278,78.0,160,90,0.0,0.0
7279,79.0,160,90,0.0,0.0
7280,80.0,160,90,0.0,0.0
7281,65.0,0,1920,3.0,0.0
7282,81.0,160,90,0.0,0.0
7283,69.0,0,1920,3.0,0.0
7284,82.0,160,90,0.0,0.0
7285,83.0,160,90,0.0,0.0
7286,84.0,160,90,0.0,0.0
7287,83.0,160,90,0.0,0.0
7288,86.0,160,90,0.0,0.0
7289,84.0,160,90,0.0,0.0
7290,75.0,264,960,3.0,0.0
7291,83.0,160,90,0.0,0.0
7292,86.0,160,90,0.0,0.0
7293,84.0,160,90,0.0,0.0
7294,83.0,160,90,0.0,0.0
7295,81.0,56,90,0.0,0.0
7296,80.0,104,960,0.0,0.0
7297,64.0,160,90,3.0,0.0
7298,65.0,160,90,3.0,0.0
7299,66.0,160,90,3.0,0.0
7300,67.0,160,90,3.0,0.0
7301,68.0,56,90,3.0,0.0
7302,88.0,264,960,0.0,0.0
7303,80.0,0,960,1.0,0.0
7304,69.0,160,90,3.0,0.0
7305,70.0,160,90,3.0,0.0
7306,71.0,216,90,3.0,0.0
7307,72.0,104,150,3.0,0.0
7308,71.0,160,90,3.0,0.0
7309,64.0,56,90,3.0,0.0
7310,81.0,264,1920,1.0,0.0
7311,87.0,0,1920,0.0,0.0
7312,78.0,0,1920,1.0,0.0
7313,66.0,160,90,3.0,0.0
7314,68.0,160,90,3.0,0.0
7315,69.0,160,90,3.0,0.0
7316,70.0,160,90,3.0,0.0
7317,71.0,216,90,3.0,0.0
7318,72.0,104,150,3.0,0.0
7319,69.0,160,90,3.0,0.0
7320,66.0,216,90,3.0,0.0
7321,72.0,104,150,3.0,0.0
7322,69.0,160,90,3.0,0.0
7323,66.0,56,90,3.0,0.0
7324,76.0,104,1920,1.0,0.0
7325,86.0,0,1920,0.0,0.0
7326,83.0,0,1920,1.0,0.0
7327,80.0,0,1920,1.0,0.0
7328,68.0,160,90,3.0,0.0
7329,69.0,160,90,3.0,0.0
7330,71.0,160,90,3.0,0.0
7331,72.0,160,90,3.0,0.0
7332,73.0,160,90,3.0,0.0
7333,74.0,160,90,3.0,0.0
7334,75.0,160,90,3.0,0.0
7335,76.0,160,90,3.0,0.0
7336,77.0,160,90,3.0,0.0
7337,78.0,160,90,3.0,0.0
7338,79.0,56,90,3.0,0.0
7339,80.0,160,90,0.0,0.0
7340,81.0,160,90,0.0,0.0
7341,82.0,160,90,0.0,0.0
7342,83.0,160,90,0.0,0.0
7343,84.0,160,90,0.0,0.0
7344,85.0,160,90,0.0,0.0
7345,86.0,160,90,0.0,0.0
7346,84.0,160,90,0.0,0.0
7347,83.0,160,90,0.0,0.0
7348,81.0,160,90,0.0,0.0
7349,79.0,160,90,0.0,0.0
7350,78.0,160,90,0.0,0.0
7351,76.0,160,90,0.0,0.0
7352,74.0,160,90,0.0,0.0
7353,73.0,160,90,0.0,0.0
7354,71.0,160,90,0.0,0.0
7355,69.0,160,90,0.0,0.0
7356,68.0,160,90,0.0,0.0
7357,71.0,160,90,0.0,0.0
7358,69.0,160,90,0.0,0.0
7359,68.0,160,90,0.0,0.0
7360,66.0,160,90,0.0,0.0
7361,64.0,160,90,0.0,0.0
7362,63.0,160,90,0.0,0.0
7363,66.0,160,90,0.0,0.0
7364,64.0,160,90,0.0,0.0
7365,62.0,160,90,0.0,0.0
7366,61.0,160,90,0.0,0.0
7367,59.0,160,90,0.0,0.0
7368,58.0,160,90,0.0,0.0
7369,62.0,160,90,0.0,0.0
7370,61.0,160,90,0.0,0.0
7371,59.0,160,90,0.0,0.0
7372,57.0,160,90,0.0,0.0
7373,56.0,160,90,0.0,0.0
7374,54.0,160,90,0.0,0.0
7375,59.0,160,90,0.0,0.0
7376,57.0,160,90,0.0,0.0
7377,56.0,160,90,0.0,0.0
7378,54.0,160,90,0.0,0.0
7379,52.0,160,90,0.0,0.0
7380,51.0,160,90,0.0,0.0
7381,54.0,160,90,0.0,0.0
7382,52.0,160,90,0.0,0.0
7383,50.0,160,90,0.0,0.0
7384,49.0,160,90,0.0,0.0
7385,47.0,160,90,0.0,0.0
7386,46.0,160,90,0.0,0.0
7387,50.0,160,90,0.0,0.0
7388,49.0,160,90,0.0,0.0
7389,47.0,160,90,0.0,0.0
7390,45.0,160,90,0.0,0.0
7391,44.0,160,90,0.0,0.0
7392,42.0,160,90,0.0,0.0
7393,40.0,160,90,0.0,0.0
7394,42.0,160,90,0.0,0.0
7395,40.0,160,90,0.0,0.0
7396,38.0,160,90,0.0,0.0
7397,37.0,160,90,0.0,0.0
7398,35.0,120,90,0.0,0.0
7399,33.0,64,60,0.0,0.0
7400,35.0,63,60,0.0,0.0
7401,37.0,64,60,0.0,0.0
7402,38.0,64,60,0.0,0.0
7403,40.0,63,90,0.0,0.0
7404,42.0,64,90,0.0,0.0
7405,44.0,64,90,0.0,0.0
7406,45.0,63,90,0.0,0.0
7407,47.0,64,90,0.0,0.0
7408,49.0,64,90,0.0,0.0
7409,50.0,63,90,0.0,0.0
7410,52.0,64,90,0.0,0.0
7411,54.0,64,120,0.0,0.0
7412,56.0,63,120,0.0,0.0
7413,57.0,64,120,0.0,0.0
7414,59.0,64,120,0.0,0.0
7415,61.0,63,120,0.0,0.0
7416,62.0,64,120,0.0,0.0
7417,64.0,64,120,0.0,0.0
7418,66.0,63,120,0.0,0.0
7419,68.0,64,150,0.0,0.0
7420,69.0,64,150,0.0,0.0
7421,71.0,63,150,0.0,0.0
7422,73.0,64,150,0.0,0.0
7423,74.0,64,150,0.0,0.0
7424,76.0,63,150,0.0,0.0
7425,78.0,64,150,0.0,0.0
7426,80.0,64,150,0.0,0.0
7427,81.0,63,180,0.0,0.0
7428,83.0,64,180,0.0,0.0
7429,85.0,64,180,0.0,0.0
7430,86.0,122,180,0.0,0.0
7431,59.0,480,480,3.0,0.0
7432,88.0,120,240,0.0,0.0
7433,64.0,0,240,2.0,0.0
7434,68.0,120,120,0.0,0.0
7435,68.0,0,960,0.0,0.0
7436,62.0,480,480,3.0,0.0
7437,64.0,0,240,2.0,0.0
7438,59.0,0,480,3.0,0.0
7439,64.0,480,240,2.0,0.0
7440,68.0,0,480,0.0,0.0
7441,62.0,0,480,3.0,0.0
7442,64.0,240,240,2.0,0.0
7443,61.0,130,240,3.0,0.0
7444,69.0,50,360,0.0,0.0
7445,57.0,240,240,3.0,0.0
7446,73.0,60,60,0.0,0.0
7447,71.0,0,15,0.0,0.0
7448,56.0,140,240,3.0,0.0
7449,52.0,375,240,3.0,0.0
7450,74.0,60,60,0.0,0.0
7451,73.0,0,60,0.0,0.0
7452,73.0,45,360,0.0,0.0
7453,57.0,0,480,3.0,0.0
7454,61.0,0,240,2.0,0.0
7455,76.0,60,60,0.0,0.0
7456,54.0,480,480,3.0,0.0
7457,74.0,310,15,0.0,0.0
7458,57.0,0,240,2.0,0.0
7459,78.0,5,180,0.0,0.0
7460,52.0,375,480,3.0,0.0
7461,76.0,55,840,0.0,0.0
7462,61.0,0,240,2.0,0.0
7463,57.0,0,480,3.0,0.0
7464,61.0,5,240,2.0,0.0
7465,74.0,50,60,0.0,0.0
7466,73.0,475,60,0.0,0.0
7467,71.0,0,480,0.0,0.0
7468,52.0,0,480,3.0,0.0
7469,56.0,480,240,2.0,0.0
7470,50.0,69,480,3.0,0.0
7471,56.0,0,240,2.0,0.0
7472,49.0,0,480,3.0,0.0
7473,57.0,63,60,0.0,0.0
7474,59.0,64,60,0.0,0.0
7475,57.0,63,90,0.0,0.0
7476,56.0,64,90,0.0,0.0
7477,57.0,33,240,2.0,0.0
7478,57.0,63,90,0.0,0.0
7479,59.0,64,90,0.0,0.0
7480,61.0,30,90,0.0,0.0
7481,63.0,64,90,0.0,0.0
7482,52.0,61,480,3.0,0.0
7483,64.0,63,90,0.0,0.0
7484,66.0,63,90,0.0,0.0
7485,68.0,64,90,0.0,0.0
7486,69.0,63,120,0.0,0.0
7487,57.0,0,240,2.0,0.0
7488,71.0,64,120,0.0,0.0
7489,73.0,63,120,0.0,0.0
7490,75.0,3,120,0.0,0.0
7491,76.0,63,120,0.0,0.0
7492,47.0,67,480,3.0,0.0
7493,78.0,85,120,0.0,0.0
7494,80.0,84,120,0.0,0.0
7495,81.0,85,120,0.0,0.0
7496,83.0,84,150,0.0,0.0
7497,56.0,0,240,2.0,0.0
7498,85.0,18,150,0.0,0.0
7499,87.0,89,150,0.0,0.0
7500,88.0,240,150,0.0,0.0
7501,52.0,240,480,3.0,0.0
7502,88.0,84,150,0.0,0.0
7503,56.0,0,240,2.0,0.0
7504,88.0,120,240,0.0,0.0
7505,46.0,0,480,3.0,0.0
7506,66.0,120,120,0.0,0.0
7507,54.0,480,240,2.0,0.0
7508,66.0,480,960,0.0,0.0
7509,52.0,0,480,3.0,0.0
7510,54.0,480,240,2.0,0.0
7511,49.0,0,480,3.0,0.0
7512,58.0,0,240,2.0,0.0
7513,68.0,0,480,0.0,0.0
7514,58.0,0,240,2.0,0.0
7515,68.0,120,240,0.0,0.0
7516,52.0,240,15,3.0,0.0
7517,69.0,120,120,0.0,0.0
7518,59.0,240,240,2.0,0.0
7519,68.0,0,120,0.0,0.0
7520,56.0,0,480,3.0,0.0
7521,66.0,240,240,0.0,0.0
7522,59.0,240,240,2.0,0.0
7523,68.0,0,240,0.0,0.0
7524,54.0,240,480,3.0,0.0
7525,71.0,240,240,0.0,0.0
7526,59.0,0,240,2.0,0.0
7527,69.0,0,240,0.0,0.0
7528,57.0,480,480,2.0,0.0
7529,47.0,0,15,3.0,0.0
7530,66.0,240,240,0.0,0.0
7531,63.0,0,240,0.0,0.0
7532,59.0,0,240,2.0,0.0
7533,52.0,0,1440,3.0,0.0
7534,63.0,0,960,1.0,0.0
7535,66.0,96,960,0.0,0.0
7536,57.0,240,240,3.0,0.0
7537,59.0,240,240,3.0,0.0
7538,57.0,0,240,3.0,0.0
7539,64.0,144,90,0.0,0.0
7540,56.0,0,480,3.0,0.0
7541,76.0,120,120,0.0,0.0
7542,75.0,120,120,0.0,0.0
7543,76.0,120,120,0.0,0.0
7544,78.0,120,120,0.0,0.0
7545,76.0,120,120,0.0,0.0
7546,71.0,120,120,0.0,0.0
7547,73.0,240,120,0.0,0.0
7548,74.0,0,960,0.0,0.0
7549,52.0,115,2160,3.0,0.0
7550,71.0,120,120,1.0,0.0
7551,70.0,120,120,1.0,0.0
7552,71.0,120,120,1.0,0.0
7553,73.0,120,120,1.0,0.0
7554,71.0,120,120,1.0,0.0
7555,66.0,120,120,1.0,0.0
7556,68.0,360,120,1.0,0.0
7557,73.0,245,960,0.0,0.0
7558,69.0,0,960,1.0,0.0
7559,57.0,120,120,3.0,0.0
7560,56.0,120,120,3.0,0.0
7561,57.0,120,120,3.0,0.0
7562,59.0,120,120,3.0,0.0
7563,61.0,120,120,3.0,0.0
7564,63.0,0,120,3.0,0.0
7565,64.0,120,480,3.0,0.0
7566,68.0,0,480,1.0,0.0
7567,71.0,0,480,0.0,0.0
7568,51.0,120,120,3.0,0.0
7569,52.0,0,120,3.0,0.0
7570,54.0,120,120,3.0,0.0
7571,52.0,120,120,3.0,0.0
7572,51.0,120,120,3.0,0.0
7573,52.0,240,120,3.0,0.0
7574,40.0,115,2160,3.0,0.0
7575,64.0,120,120,1.0,0.0
7576,63.0,120,120,1.0,0.0
7577,64.0,120,120,1.0,0.0
7578,66.0,120,120,1.0,0.0
7579,64.0,120,120,1.0,0.0
7580,59.0,120,120,1.0,0.0
7581,61.0,240,120,1.0,0.0
7582,62.0,245,960,1.0,0.0
7583,71.0,120,120,0.0,0.0
7584,70.0,120,120,0.0,0.0
7585,71.0,120,120,0.0,0.0
7586,73.0,120,120,0.0,0.0
7587,71.0,120,120,0.0,0.0
7588,66.0,120,120,0.0,0.0
7589,68.0,0,120,0.0,0.0
7590,69.0,120,960,0.0,0.0
7591,61.0,0,960,1.0,0.0
7592,42.0,120,120,3.0,0.0
7593,44.0,120,120,3.0,0.0
7594,45.0,120,120,3.0,0.0
7595,47.0,120,120,3.0,0.0
7596,49.0,120,120,3.0,0.0
7597,51.0,0,120,3.0,0.0
7598,59.0,120,480,1.0,0.0
7599,52.0,120,120,3.0,0.0
7600,68.0,0,480,0.0,0.0
7601,54.0,120,120,3.0,0.0
7602,56.0,120,120,3.0,0.0
7603,57.0,0,120,3.0,0.0
7604,59.0,120,120,3.0,0.0
7605,57.0,120,120,3.0,0.0
7606,56.0,120,120,3.0,0.0
7607,54.0,120,120,3.0,0.0
7608,52.0,120,120,3.0,0.0
7609,54.0,120,120,3.0,0.0
7610,52.0,120,120,3.0,0.0
7611,50.0,120,120,3.0,0.0
7612,49.0,120,120,3.0,0.0
7613,50.0,120,120,3.0,0.0
7614,49.0,120,120,3.0,0.0
7615,47.0,75,120,3.0,0.0
7616,57.0,63,60,0.0,0.0
7617,45.0,37,480,3.0,0.0
7618,59.0,63,90,0.0,0.0
7619,57.0,63,90,0.0,0.0
7620,56.0,64,90,0.0,0.0
7621,52.0,0,240,2.0,0.0
7622,57.0,63,90,0.0,0.0
7623,59.0,63,90,0.0,0.0
7624,61.0,26,90,0.0,0.0
7625,63.0,63,90,0.0,0.0
7626,64.0,63,90,0.0,0.0
7627,49.0,0,480,3.0,0.0
7628,66.0,64,90,0.0,0.0
7629,68.0,63,120,0.0,0.0
7630,69.0,63,120,0.0,0.0
7631,52.0,62,240,2.0,0.0
7632,71.0,63,120,0.0,0.0
7633,73.0,63,120,0.0,0.0
7634,75.0,1,120,0.0,0.0
7635,76.0,63,120,0.0,0.0
7636,45.0,67,480,3.0,0.0
7637,78.0,85,120,0.0,0.0
7638,80.0,84,120,0.0,0.0
7639,81.0,84,120,0.0,0.0
7640,83.0,84,150,0.0,0.0
7641,52.0,0,240,2.0,0.0
7642,85.0,18,150,0.0,0.0
7643,87.0,89,150,0.0,0.0
7644,88.0,240,150,0.0,0.0
7645,49.0,0,480,3.0,0.0
7646,88.0,84,150,0.0,0.0
7647,52.0,240,240,2.0,0.0
7648,88.0,120,240,0.0,0.0
7649,47.0,0,480,3.0,0.0
7650,68.0,120,120,0.0,0.0
7651,52.0,480,240,2.0,0.0
7652,50.0,480,480,3.0,0.0
7653,68.0,0,960,0.0,0.0
7654,52.0,0,240,2.0,0.0
7655,47.0,480,480,3.0,0.0
7656,52.0,0,240,2.0,0.0
7657,49.0,0,480,3.0,0.0
7658,69.0,60,480,0.0,0.0
7659,57.0,0,240,2.0,0.0
7660,50.0,0,480,3.0,0.0
7661,71.0,60,60,0.0,0.0
7662,73.0,60,60,0.0,0.0
7663,71.0,60,60,0.0,0.0
7664,70.0,120,60,0.0,0.0
7665,59.0,0,240,2.0,0.0
7666,71.0,120,120,0.0,0.0
7667,73.0,104,120,0.0,0.0
7668,54.0,0,480,3.0,0.0
7669,74.0,160,90,0.0,0.0
7670,76.0,160,90,0.0,0.0
7671,59.0,480,240,2.0,0.0
7672,78.0,56,90,0.0,0.0
7673,69.0,0,480,0.0,0.0
7674,61.0,240,240,2.0,0.0
7675,52.0,0,15,3.0,0.0
7676,73.0,240,240,0.0,0.0
7677,62.0,0,240,2.0,0.0
7678,71.0,0,240,0.0,0.0
7679,68.0,0,15,1.0,0.0
7680,71.0,240,960,0.0,0.0
7681,57.0,120,1920,3.0,0.0
7682,62.0,240,240,3.0,0.0
7683,64.0,240,240,3.0,0.0
7684,62.0,0,240,3.0,0.0
7685,61.0,0,480,3.0,0.0
7686,69.0,120,240,0.0,0.0
7687,78.0,120,120,0.0,0.0
7688,76.0,120,120,0.0,0.0
7689,74.0,120,120,0.0,0.0
7690,73.0,120,120,0.0,0.0
7691,71.0,120,120,0.0,0.0
7692,69.0,0,120,0.0,0.0
7693,68.0,120,120,0.0,0.0
7694,69.0,120,120,0.0,0.0
7695,71.0,120,120,0.0,0.0
7696,69.0,120,120,0.0,0.0
7697,59.0,120,120,3.0,0.0
7698,68.0,360,480,0.0,0.0
7699,62.0,120,120,3.0,0.0
7700,64.0,120,120,3.0,0.0
7701,62.0,0,120,3.0,0.0
7702,59.0,120,480,3.0,0.0
7703,76.0,120,120,0.0,0.0
7704,74.0,0,120,0.0,0.0
7705,73.0,120,120,0.0,0.0
7706,71.0,120,120,0.0,0.0
7707,69.0,120,120,0.0,0.0
7708,68.0,120,120,0.0,0.0
7709,69.0,120,120,0.0,0.0
7710,71.0,120,120,0.0,0.0
7711,73.0,120,120,0.0,0.0
7712,71.0,120,120,0.0,0.0
7713,73.0,120,120,3.0,0.0
7714,69.0,360,480,0.0,0.0
7715,76.0,120,120,3.0,0.0
7716,81.0,120,120,3.0,0.0
7717,76.0,0,120,3.0,0.0
7718,73.0,0,480,3.0,0.0
7719,81.0,120,120,0.0,0.0
7720,80.0,120,120,0.0,0.0
7721,78.0,120,120,0.0,0.0
7722,76.0,120,120,0.0,0.0
7723,74.0,120,120,0.0,0.0
7724,73.0,120,120,0.0,0.0
7725,62.0,0,480,3.0,0.0
7726,71.0,120,120,0.0,0.0
7727,66.0,120,480,3.0,0.0
7728,74.0,120,120,0.0,0.0
7729,78.0,120,120,0.0,0.0
7730,76.0,0,120,0.0,0.0
7731,74.0,120,120,0.0,0.0
7732,73.0,120,120,0.0,0.0
7733,71.0,120,120,0.0,0.0
7734,69.0,120,120,0.0,0.0
7735,68.0,120,120,0.0,0.0
7736,52.0,0,480,3.0,0.0
7737,62.0,0,480,3.0,0.0
7738,59.0,120,480,3.0,0.0
7739,69.0,120,120,0.0,0.0
7740,71.0,120,120,0.0,0.0
7741,69.0,0,120,0.0,0.0
7742,68.0,120,120,0.0,0.0
7743,66.0,120,120,0.0,0.0
7744,64.0,120,120,0.0,0.0
7745,62.0,120,120,0.0,0.0
7746,57.0,0,480,3.0,0.0
7747,61.0,120,120,0.0,0.0
7748,69.0,120,120,0.0,0.0
7749,64.0,120,120,0.0,0.0
7750,73.0,120,120,0.0,0.0
7751,69.0,120,120,0.0,0.0
7752,76.0,120,120,0.0,0.0
7753,73.0,120,120,0.0,0.0
7754,81.0,120,120,0.0,0.0
7755,76.0,120,120,0.0,0.0
7756,85.0,120,120,0.0,0.0
7757,81.0,120,120,0.0,0.0
7758,88.0,120,120,0.0,0.0
7759,86.0,120,120,0.0,0.0
7760,85.0,120,120,0.0,0.0
7761,83.0,120,120,0.0,0.0
7762,81.0,120,120,0.0,0.0
7763,80.0,120,120,0.0,0.0
7764,81.0,120,120,0.0,0.0
7765,83.0,120,120,0.0,0.0
7766,81.0,120,120,0.0,0.0
7767,80.0,0,480,0.0,0.0
7768,71.0,120,120,3.0,0.0
7769,74.0,120,120,3.0,0.0
7770,76.0,120,120,3.0,0.0
7771,74.0,240,120,3.0,0.0
7772,71.0,0,480,3.0,0.0
7773,87.0,120,120,0.0,0.0
7774,88.0,120,120,0.0,0.0
7775,86.0,120,120,0.0,0.0
7776,85.0,120,120,0.0,0.0
7777,83.0,120,120,0.0,0.0
7778,81.0,120,120,0.0,0.0
7779,80.0,120,120,0.0,0.0
7780,81.0,120,120,0.0,0.0
7781,83.0,120,120,0.0,0.0
7782,85.0,120,120,0.0,0.0
7783,83.0,120,120,0.0,0.0
7784,81.0,360,480,0.0,0.0
7785,73.0,120,120,3.0,0.0
7786,76.0,120,120,3.0,0.0
7787,81.0,120,120,3.0,0.0
7788,76.0,0,120,3.0,0.0
7789,73.0,120,480,3.0,0.0
7790,85.0,120,120,0.0,0.0
7791,83.0,0,120,0.0,0.0
7792,81.0,120,120,0.0,0.0
7793,80.0,120,120,0.0,0.0
7794,78.0,120,120,0.0,0.0
7795,76.0,120,120,0.0,0.0
7796,75.0,120,120,0.0,0.0
7797,66.0,0,480,3.0,0.0
7798,69.0,0,480,3.0,0.0
7799,76.0,120,120,0.0,0.0
7800,78.0,120,120,0.0,0.0
7801,80.0,120,120,0.0,0.0
7802,81.0,120,120,0.0,0.0
7803,80.0,120,120,0.0,0.0
7804,78.0,120,120,0.0,0.0
7805,76.0,120,120,0.0,0.0
7806,75.0,120,120,0.0,0.0
7807,57.0,0,480,3.0,0.0
7808,54.0,0,480,3.0,0.0
7809,73.0,120,120,0.0,0.0
7810,71.0,120,120,0.0,0.0
7811,69.0,120,120,0.0,0.0
7812,68.0,120,120,0.0,0.0
7813,66.0,120,120,0.0,0.0
7814,64.0,120,120,0.0,0.0
7815,63.0,210,120,0.0,0.0
7816,52.0,30,210,3.0,0.0
7817,64.0,0,480,0.0,0.0
7818,64.0,210,120,2.0,0.0
7819,54.0,30,210,3.0,0.0
7820,64.0,210,120,2.0,0.0
7821,56.0,30,210,3.0,0.0
7822,64.0,210,120,2.0,0.0
7823,57.0,30,210,3.0,0.0
7824,64.0,210,120,2.0,0.0
7825,59.0,30,210,3.0,0.0
7826,64.0,210,120,2.0,0.0
7827,61.0,30,210,3.0,0.0
7828,64.0,165,120,2.0,0.0
7829,63.0,75,180,3.0,0.0
7830,64.0,135,120,3.0,0.0
7831,66.0,105,120,3.0,0.0
7832,64.0,210,120,3.0,0.0
7833,62.0,30,210,3.0,0.0
7834,80.0,210,960,0.0,0.0
7835,64.0,210,120,2.0,0.0
7836,59.0,30,210,3.0,0.0
7837,64.0,210,120,2.0,0.0
7838,56.0,30,210,3.0,0.0
7839,64.0,210,120,2.0,0.0
7840,52.0,30,210,3.0,0.0
7841,64.0,0,120,2.0,0.0
7842,51.0,30,210,3.0,0.0
7843,81.0,156,240,0.0,0.0
7844,64.0,0,120,2.0,0.0
7845,52.0,30,210,3.0,0.0
7846,80.0,54,150,0.0,0.0
7847,64.0,40,120,2.0,0.0
7848,51.0,30,210,3.0,0.0
7849,78.0,40,40,0.0,0.0
7850,80.0,130,40,0.0,0.0
7851,78.0,156,150,0.0,0.0
7852,64.0,0,120,2.0,0.0
7853,76.0,54,150,0.0,0.0
7854,52.0,30,210,3.0,0.0
7855,64.0,210,120,2.0,0.0
7856,76.0,35,420,0.0,0.0
7857,49.0,30,210,3.0,0.0
7858,64.0,175,120,2.0,0.0
7859,52.0,30,210,3.0,0.0
7860,64.0,5,120,2.0,0.0
7861,76.0,205,60,0.0,0.0
7862,85.0,0,720,0.0,0.0
7863,57.0,30,210,3.0,0.0
7864,64.0,210,120,2.0,0.0
7865,61.0,30,210,3.0,0.0
7866,64.0,210,120,2.0,0.0
7867,57.0,30,210,3.0,0.0
7868,64.0,120,120,2.0,0.0
7869,86.0,90,120,0.0,0.0
7870,61.0,30,210,3.0,0.0
7871,64.0,0,120,2.0,0.0
7872,85.0,156,120,0.0,0.0
7873,83.0,54,150,0.0,0.0
7874,57.0,30,210,3.0,0.0
7875,64.0,156,120,2.0,0.0
7876,81.0,54,150,0.0,0.0
7877,61.0,30,210,3.0,0.0
7878,64.0,210,120,2.0,0.0
7879,62.0,30,210,3.0,0.0
7880,80.0,210,960,0.0,0.0
7881,64.0,210,120,2.0,0.0
7882,59.0,30,210,3.0,0.0
7883,64.0,210,120,2.0,0.0
7884,56.0,30,210,3.0,0.0
7885,64.0,210,120,2.0,0.0
7886,52.0,30,210,3.0,0.0
7887,64.0,0,120,2.0,0.0
7888,81.0,0,240,0.0,0.0
7889,51.0,30,210,3.0,0.0
7890,64.0,156,120,2.0,0.0
7891,52.0,30,210,3.0,0.0
7892,80.0,54,150,0.0,0.0
7893,64.0,40,120,2.0,0.0
7894,78.0,40,40,0.0,0.0
7895,51.0,30,210,3.0,0.0
7896,80.0,130,40,0.0,0.0
7897,78.0,0,150,0.0,0.0
7898,64.0,156,120,2.0,0.0
7899,52.0,30,210,3.0,0.0
7900,76.0,54,150,0.0,0.0
7901,64.0,210,120,2.0,0.0
7902,76.0,39,360,0.0,0.0
7903,49.0,30,210,3.0,0.0
7904,64.0,115,120,2.0,0.0
7905,52.0,24,210,3.0,0.0
7906,76.0,40,30,0.0,0.0
7907,64.0,210,120,2.0,0.0
7908,81.0,16,30,0.0,0.0
7909,85.0,6,30,0.0,0.0
7910,88.0,0,720,0.0,0.0
7911,57.0,30,210,3.0,0.0
7912,64.0,210,120,2.0,0.0
7913,61.0,30,210,3.0,0.0
7914,64.0,210,120,2.0,0.0
7915,57.0,30,210,3.0,0.0
7916,64.0,120,120,2.0,0.0
7917,61.0,30,210,3.0,0.0
7918,87.0,90,120,0.0,0.0
7919,64.0,0,120,2.0,0.0
7920,88.0,120,120,0.0,0.0
7921,57.0,30,210,3.0,0.0
7922,86.0,90,120,0.0,0.0
7923,64.0,120,120,2.0,0.0
7924,85.0,0,120,0.0,0.0
7925,83.0,90,120,0.0,0.0
7926,61.0,30,210,3.0,0.0
7927,81.0,0,120,0.0,0.0
7928,64.0,210,120,2.0,0.0
7929,80.0,0,720,0.0,0.0
7930,62.0,30,210,3.0,0.0
7931,64.0,210,120,2.0,0.0
7932,59.0,30,210,3.0,0.0
7933,64.0,210,120,2.0,0.0
7934,56.0,30,210,3.0,0.0
7935,64.0,60,120,2.0,0.0
7936,81.0,60,60,0.0,0.0
7937,52.0,30,210,3.0,0.0
7938,80.0,60,60,0.0,0.0
7939,64.0,240,120,2.0,0.0
7940,78.0,30,60,0.0,0.0
7941,80.0,0,60,0.0,0.0
7942,81.0,156,240,0.0,0.0
7943,51.0,0,480,3.0,0.0
7944,64.0,0,120,2.0,0.0
7945,80.0,54,150,0.0,0.0
7946,52.0,30,210,3.0,0.0
7947,64.0,40,120,2.0,0.0
7948,51.0,0,480,3.0,0.0
7949,78.0,40,40,0.0,0.0
7950,80.0,160,40,0.0,0.0
7951,78.0,156,150,0.0,0.0
7952,64.0,0,120,2.0,0.0
7953,52.0,30,210,3.0,0.0
7954,76.0,54,150,0.0,0.0
7955,64.0,240,120,2.0,0.0
7956,49.0,0,480,3.0,0.0
7957,76.0,0,240,0.0,0.0
7958,64.0,210,120,2.0,0.0
7959,69.0,0,480,1.0,0.0
7960,52.0,30,210,3.0,0.0
7961,81.0,0,480,0.0,0.0
7962,64.0,240,120,2.0,0.0
7963,49.0,0,480,3.0,0.0
7964,64.0,210,120,2.0,0.0
7965,52.0,30,210,3.0,0.0
7966,67.0,240,240,1.0,0.0
7967,79.0,0,240,0.0,0.0
7968,64.0,0,120,2.0,0.0
7969,66.0,0,720,1.0,0.0
7970,78.0,60,240,0.0,0.0
7971,62.0,0,120,2.0,0.0
7972,50.0,30,210,3.0,0.0
7973,80.0,60,60,0.0,0.0
7974,78.0,60,60,0.0,0.0
7975,77.0,30,60,0.0,0.0
7976,62.0,0,120,2.0,0.0
7977,78.0,0,60,0.0,0.0
7978,48.0,240,15,3.0,0.0
7979,78.0,0,240,0.0,0.0
7980,62.0,210,120,2.0,0.0
7981,69.0,0,240,1.0,0.0
7982,81.0,0,240,0.0,0.0
7983,50.0,30,210,3.0,0.0
7984,62.0,0,120,2.0,0.0
7985,69.0,0,480,1.0,0.0
7986,81.0,240,480,0.0,0.0
7987,62.0,210,120,2.0,0.0
7988,50.0,30,210,3.0,0.0
7989,62.0,0,120,2.0,0.0
7990,47.0,0,15,3.0,0.0
7991,67.0,0,480,1.0,0.0
7992,79.0,0,480,0.0,0.0
7993,62.0,210,120,2.0,0.0
7994,50.0,30,210,3.0,0.0
7995,62.0,240,120,2.0,0.0
7996,47.0,0,15,3.0,0.0
7997,61.0,240,120,2.0,0.0
7998,49.0,0,240,3.0,0.0
7999,61.0,0,120,2.0,0.0
8000,77.0,0,480,0.0,0.0
8001,47.0,240,15,3.0,0.0
8002,65.0,0,480,1.0,0.0
8003,61.0,210,120,2.0,0.0
8004,49.0,30,210,3.0,0.0
8005,61.0,240,120,2.0,0.0
8006,68.0,0,240,1.0,0.0
8007,80.0,210,240,0.0,0.0
8008,46.0,0,480,3.0,0.0
8009,61.0,0,120,2.0,0.0
8010,66.0,210,480,1.0,0.0
8011,78.0,0,480,0.0,0.0
8012,49.0,30,210,3.0,0.0
8013,61.0,240,120,2.0,0.0
8014,46.0,0,480,3.0,0.0
8015,61.0,0,120,2.0,0.0
8016,49.0,30,210,3.0,0.0
8017,76.0,0,240,0.0,0.0
8018,64.0,240,240,1.0,0.0
8019,61.0,0,120,2.0,0.0
8020,75.0,0,240,0.0,0.0
8021,59.0,60,120,2.0,0.0
8022,47.0,30,210,3.0,0.0
8023,76.0,60,60,0.0,0.0
8024,75.0,60,60,0.0,0.0
8025,59.0,0,120,2.0,0.0
8026,73.0,30,60,0.0,0.0
8027,75.0,0,60,0.0,0.0
8028,45.0,240,15,3.0,0.0
8029,75.0,0,240,0.0,0.0
8030,59.0,210,120,2.0,0.0
8031,47.0,22,210,3.0,0.0
8032,59.0,240,120,2.0,0.0
8033,78.0,0,15,0.0,0.0
8034,44.0,0,480,3.0,0.0
8035,66.0,0,480,1.0,0.0
8036,59.0,210,120,2.0,0.0
8037,47.0,30,210,3.0,0.0
8038,59.0,240,120,2.0,0.0
8039,76.0,240,480,0.0,0.0
8040,64.0,0,480,1.0,0.0
8041,44.0,0,480,3.0,0.0
8042,59.0,210,120,2.0,0.0
8043,47.0,30,210,3.0,0.0
8044,59.0,0,120,2.0,0.0
8045,43.0,240,480,3.0,0.0
8046,57.0,210,120,2.0,0.0
8047,45.0,30,210,3.0,0.0
8048,57.0,0,120,2.0,0.0
8049,61.0,0,480,1.0,0.0
8050,73.0,240,480,0.0,0.0
8051,43.0,0,480,3.0,0.0
8052,57.0,210,120,2.0,0.0
8053,45.0,30,210,3.0,0.0
8054,57.0,0,120,2.0,0.0
8055,64.0,0,240,1.0,0.0
8056,76.0,0,240,0.0,0.0
8057,42.0,240,480,3.0,0.0
8058,57.0,210,120,2.0,0.0
8059,74.0,210,480,0.0,0.0
8060,45.0,30,210,3.0,0.0
8061,62.0,0,480,1.0,0.0
8062,57.0,0,120,2.0,0.0
8063,40.0,240,480,3.0,0.0
8064,57.0,0,120,2.0,0.0
8065,45.0,30,210,3.0,0.0
8066,61.0,210,480,1.0,0.0
8067,73.0,0,480,0.0,0.0
8068,57.0,0,120,2.0,0.0
8069,38.0,240,480,3.0,0.0
8070,57.0,0,120,2.0,0.0
8071,71.0,0,480,0.0,0.0
8072,45.0,30,210,3.0,0.0
8073,59.0,0,480,1.0,0.0
8074,57.0,0,120,2.0,0.0
8075,39.0,0,480,3.0,0.0
8076,57.0,210,120,2.0,0.0
8077,78.0,0,240,0.0,0.0
8078,45.0,30,210,3.0,0.0
8079,66.0,0,240,1.0,0.0
8080,57.0,240,120,2.0,0.0
8081,69.0,45,720,0.0,0.0
8082,40.0,30,450,3.0,0.0
8083,45.0,120,120,2.0,0.0
8084,49.0,90,120,2.0,0.0
8085,52.0,240,120,2.0,0.0
8086,40.0,30,450,3.0,0.0
8087,45.0,15,120,2.0,0.0
8088,71.0,60,60,0.0,0.0
8089,49.0,60,120,2.0,0.0
8090,69.0,0,60,0.0,0.0
8091,68.0,30,60,0.0,0.0
8092,52.0,240,120,2.0,0.0
8093,69.0,0,60,0.0,0.0
8094,40.0,30,450,3.0,0.0
8095,68.0,0,960,1.0,0.0
8096,62.0,160,960,1.0,0.0
8097,73.0,0,720,0.0,0.0
8098,47.0,120,120,2.0,0.0
8099,50.0,90,120,2.0,0.0
8100,52.0,240,120,2.0,0.0
8101,40.0,30,450,3.0,0.0
8102,47.0,120,120,2.0,0.0
8103,50.0,90,120,2.0,0.0
8104,71.0,0,240,0.0,0.0
8105,52.0,0,120,2.0,0.0
8106,61.0,40,360,1.0,0.0
8107,69.0,15,360,0.0,0.0
8108,45.0,80,90,0.0,0.0
8109,49.0,80,90,0.0,0.0
8110,52.0,25,90,0.0,0.0
8111,57.0,80,90,0.0,0.0
8112,61.0,80,90,0.0,0.0
8113,64.0,80,90,0.0,0.0
8114,69.0,80,90,0.0,0.0
8115,73.0,80,90,0.0,0.0
8116,76.0,80,90,0.0,0.0
8117,81.0,80,90,0.0,0.0
8118,85.0,240,90,0.0,0.0
8119,57.0,240,480,3.0,0.0
8120,88.0,240,240,0.0,0.0
8121,64.0,0,240,2.0,0.0
8122,61.0,0,480,3.0,0.0
8123,88.0,240,240,0.0,0.0
8124,64.0,240,240,2.0,0.0
8125,88.0,120,240,0.0,0.0
8126,59.0,480,480,3.0,0.0
8127,68.0,120,120,0.0,0.0
8128,64.0,0,240,2.0,0.0
8129,68.0,0,960,0.0,0.0
8130,62.0,480,480,3.0,0.0
8131,64.0,0,240,2.0,0.0
8132,59.0,0,480,3.0,0.0
8133,64.0,480,240,2.0,0.0
8134,62.0,360,480,3.0,0.0
8135,68.0,0,480,0.0,0.0
8136,64.0,0,240,2.0,0.0
8137,61.0,0,480,3.0,0.0
8138,64.0,0,240,2.0,0.0
8139,68.0,120,120,0.0,0.0
8140,69.0,360,120,0.0,0.0
8141,56.0,0,480,3.0,0.0
8142,70.0,120,120,0.0,0.0
8143,64.0,0,240,2.0,0.0
8144,71.0,360,120,0.0,0.0
8145,57.0,0,480,3.0,0.0
8146,64.0,0,240,2.0,0.0
8147,72.0,120,120,0.0,0.0
8148,73.0,360,120,0.0,0.0
8149,54.0,0,480,3.0,0.0
8150,57.0,450,270,2.0,0.0
8151,73.0,120,120,0.0,0.0
8152,74.0,30,120,0.0,0.0
8153,52.0,105,480,3.0,0.0
8154,76.0,60,600,0.0,0.0
8155,61.0,15,240,2.0,0.0
8156,57.0,15,480,3.0,0.0
8157,75.0,60,60,0.0,0.0
8158,76.0,60,60,0.0,0.0
8159,61.0,0,240,2.0,0.0
8160,78.0,60,60,0.0,0.0
8161,76.0,60,60,0.0,0.0
8162,74.0,45,60,0.0,0.0
8163,73.0,465,60,0.0,0.0
8164,71.0,465,480,0.0,0.0
8165,52.0,15,480,3.0,0.0
8166,56.0,0,240,2.0,0.0
8167,50.0,15,480,3.0,0.0
8168,56.0,360,240,2.0,0.0
8169,49.0,15,480,3.0,0.0
8170,57.0,105,120,0.0,0.0
8171,57.0,0,240,2.0,0.0
8172,61.0,80,120,0.0,0.0
8173,52.0,15,480,3.0,0.0
8174,64.0,80,90,0.0,0.0
8175,69.0,80,90,0.0,0.0
8176,73.0,80,90,0.0,0.0
8177,57.0,240,240,2.0,0.0
8178,76.0,80,90,0.0,0.0
8179,81.0,65,90,0.0,0.0
8180,85.0,0,90,0.0,0.0
8181,49.0,15,480,3.0,0.0
8182,88.0,225,240,0.0,0.0
8183,57.0,240,240,2.0,0.0
8184,88.0,225,240,0.0,0.0
8185,52.0,15,480,3.0,0.0
8186,57.0,240,240,2.0,0.0
8187,88.0,120,240,0.0,0.0
8188,49.0,15,480,3.0,0.0
8189,58.0,465,240,2.0,0.0
8190,70.0,105,120,0.0,0.0
8191,70.0,225,720,0.0,0.0
8192,52.0,15,480,3.0,0.0
8193,58.0,240,240,2.0,0.0
8194,48.0,15,480,3.0,0.0
8195,79.0,0,240,0.0,0.0
8196,58.0,240,240,2.0,0.0
8197,52.0,15,480,3.0,0.0
8198,76.0,225,240,0.0,0.0
8199,58.0,240,240,2.0,0.0
8200,70.0,0,240,0.0,0.0
8201,48.0,225,480,3.0,0.0
8202,69.0,240,240,0.0,0.0
8203,57.0,0,240,2.0,0.0
8204,72.0,15,240,0.0,0.0
8205,53.0,15,480,3.0,0.0
8206,77.0,225,240,0.0,0.0
8207,57.0,240,240,2.0,0.0
8208,72.0,0,240,0.0,0.0
8209,81.0,225,240,0.0,0.0
8210,48.0,15,480,3.0,0.0
8211,57.0,0,240,2.0,0.0
8212,77.0,240,240,0.0,0.0
8213,53.0,15,480,3.0,0.0
8214,72.0,225,240,0.0,0.0
8215,57.0,0,240,2.0,0.0
8216,69.0,80,240,0.0,0.0
8217,48.0,15,480,3.0,0.0
8218,70.0,80,90,0.0,0.0
8219,72.0,80,90,0.0,0.0
8220,70.0,120,90,0.0,0.0
8221,69.0,105,120,0.0,0.0
8222,58.0,0,240,2.0,0.0
8223,70.0,465,120,0.0,0.0
8224,79.0,225,720,0.0,0.0
8225,55.0,15,480,3.0,0.0
8226,58.0,240,240,2.0,0.0
8227,48.0,15,480,3.0,0.0
8228,76.0,240,240,0.0,0.0
8229,58.0,0,240,2.0,0.0
8230,52.0,15,480,3.0,0.0
8231,72.0,225,240,0.0,0.0
8232,58.0,0,240,2.0,0.0
8233,70.0,120,240,0.0,0.0
8234,69.0,120,120,0.0,0.0
8235,48.0,15,480,3.0,0.0
8236,72.0,120,120,0.0,0.0
8237,77.0,105,120,0.0,0.0
8238,57.0,0,240,2.0,0.0
8239,76.0,120,120,0.0,0.0
8240,53.0,15,480,3.0,0.0
8241,77.0,120,120,0.0,0.0
8242,72.0,120,120,0.0,0.0
8243,81.0,105,120,0.0,0.0
8244,57.0,0,240,2.0,0.0
8245,80.0,120,120,0.0,0.0
8246,48.0,15,480,3.0,0.0
8247,81.0,120,120,0.0,0.0
8248,77.0,120,120,0.0,0.0
8249,57.0,0,240,2.0,0.0
8250,84.0,105,120,0.0,0.0
8251,83.0,120,120,0.0,0.0
8252,84.0,120,120,0.0,0.0
8253,53.0,15,480,3.0,0.0
8254,81.0,120,120,0.0,0.0
8255,77.0,105,120,0.0,0.0
8256,57.0,0,240,2.0,0.0
8257,72.0,80,120,0.0,0.0
8258,70.0,80,90,0.0,0.0
8259,48.0,15,480,3.0,0.0
8260,72.0,80,90,0.0,0.0
8261,70.0,120,90,0.0,0.0
8262,58.0,0,240,2.0,0.0
8263,69.0,105,120,0.0,0.0
8264,70.0,465,120,0.0,0.0
8265,52.0,15,480,3.0,0.0
8266,79.0,465,960,0.0,0.0
8267,58.0,465,240,2.0,0.0
8268,48.0,15,480,3.0,0.0
8269,58.0,0,240,2.0,0.0
8270,52.0,15,480,3.0,0.0
8271,58.0,465,240,2.0,0.0
8272,70.0,0,15,0.0,0.0
8273,49.0,15,480,3.0,0.0
8274,58.0,465,240,2.0,0.0
8275,79.0,465,960,0.0,0.0
8276,52.0,15,480,3.0,0.0
8277,58.0,465,240,2.0,0.0
8278,49.0,15,480,3.0,0.0
8279,58.0,0,240,2.0,0.0
8280,70.0,240,480,0.0,0.0
8281,52.0,15,480,3.0,0.0
8282,58.0,0,240,2.0,0.0
8283,50.0,15,480,3.0,0.0
8284,71.0,225,240,0.0,0.0
8285,59.0,0,240,2.0,0.0
8286,78.0,240,240,0.0,0.0
8287,77.0,225,240,0.0,0.0
8288,54.0,15,480,3.0,0.0
8289,78.0,0,240,0.0,0.0
8290,59.0,240,240,2.0,0.0
8291,76.0,225,240,0.0,0.0
8292,50.0,15,480,3.0,0.0
8293,74.0,0,240,0.0,0.0
8294,59.0,240,240,2.0,0.0
8295,73.0,225,240,0.0,0.0
8296,54.0,15,480,3.0,0.0
8297,71.0,465,240,0.0,0.0
8298,59.0,0,240,2.0,0.0
8299,52.0,15,480,3.0,0.0
8300,69.0,60,720,0.0,0.0
8301,61.0,240,240,2.0,0.0
8302,57.0,0,480,3.0,0.0
8303,61.0,465,240,2.0,0.0
8304,71.0,60,60,0.0,0.0
8305,69.0,60,60,0.0,0.0
8306,68.0,60,60,0.0,0.0
8307,69.0,0,60,0.0,0.0
8308,52.0,15,480,3.0,0.0
8309,73.0,225,720,0.0,0.0
8310,62.0,240,240,2.0,0.0
8311,59.0,15,480,3.0,0.0
8312,71.0,240,240,0.0,0.0
8313,62.0,0,240,2.0,0.0
8314,69.0,240,240,0.0,0.0
8315,61.0,0,480,2.0,0.0
8316,57.0,0,480,3.0,0.0
8317,33.0,80,90,3.0,0.0
8318,64.0,0,15,1.0,0.0
8319,61.0,80,15,1.0,0.0
8320,37.0,80,90,3.0,0.0
8321,40.0,0,90,3.0,0.0
8322,45.0,80,90,3.0,0.0
8323,49.0,80,90,3.0,0.0
8324,52.0,240,90,3.0,0.0
8325,61.0,0,15,1.0,0.0
8326,64.0,0,15,1.0,0.0
8327,57.0,240,240,3.0,0.0
8328,64.0,0,15,1.0,0.0
8329,61.0,0,15,1.0,0.0
8330,57.0,0,240,3.0,0.0
8331,64.0,240,15,1.0,0.0
8332,61.0,0,15,1.0,0.0
8333,56.0,240,240,3.0,0.0
8334,64.0,240,15,1.0,0.0
8335,64.0,80,240,1.0,0.0
8336,62.0,0,15,1.0,0.0
8337,59.0,0,15,1.0,0.0
8338,64.0,80,90,0.0,0.0
8339,68.0,80,90,0.0,0.0
8340,71.0,80,90,0.0,0.0
8341,59.0,0,15,1.0,0.0
8342,62.0,0,15,1.0,0.0
8343,64.0,0,240,1.0,0.0
8344,76.0,80,90,0.0,0.0
8345,80.0,80,90,0.0,0.0
8346,83.0,240,90,0.0,0.0
8347,88.0,240,240,0.0,0.0
8348,56.0,0,240,1.0,0.0
8349,59.0,0,240,1.0,0.0
8350,64.0,0,240,1.0,0.0
8351,59.0,0,240,1.0,0.0
8352,64.0,240,240,1.0,0.0
8353,56.0,0,240,1.0,0.0
8354,56.0,240,240,1.0,0.0
8355,59.0,0,240,1.0,0.0
8356,88.0,0,240,0.0,0.0
8357,64.0,0,240,1.0,0.0
8358,56.0,240,240,1.0,0.0
8359,64.0,0,240,1.0,0.0
8360,59.0,0,240,1.0,0.0
8361,64.0,0,240,1.0,0.0
8362,61.0,240,240,1.0,0.0
8363,57.0,0,240,1.0,0.0
8364,85.0,0,240,0.0,0.0
8365,57.0,0,240,1.0,0.0
8366,64.0,0,240,1.0,0.0
8367,61.0,80,15,1.0,0.0
8368,33.0,80,90,3.0,0.0
8369,57.0,0,240,1.0,0.0
8370,37.0,80,90,3.0,0.0
8371,40.0,0,90,3.0,0.0
8372,45.0,80,90,3.0,0.0
8373,61.0,80,15,1.0,0.0
8374,64.0,0,15,1.0,0.0
8375,57.0,0,240,1.0,0.0
8376,49.0,80,90,3.0,0.0
8377,52.0,240,90,3.0,0.0
8378,64.0,0,15,1.0,0.0
8379,61.0,0,15,1.0,0.0
8380,57.0,0,240,3.0,0.0
8381,64.0,240,240,1.0,0.0
8382,57.0,0,240,3.0,0.0
8383,61.0,0,15,1.0,0.0
8384,61.0,0,240,1.0,0.0
8385,64.0,240,15,1.0,0.0
8386,56.0,0,240,3.0,0.0
8387,64.0,0,240,1.0,0.0
8388,59.0,240,15,1.0,0.0
8389,64.0,80,240,1.0,0.0
8390,62.0,0,15,1.0,0.0
8391,62.0,0,240,1.0,0.0
8392,64.0,80,90,0.0,0.0
8393,68.0,80,90,0.0,0.0
8394,71.0,0,90,0.0,0.0
8395,59.0,80,15,1.0,0.0
8396,64.0,0,240,1.0,0.0
8397,62.0,240,240,1.0,0.0
8398,76.0,80,90,0.0,0.0
8399,80.0,80,90,0.0,0.0
8400,83.0,0,90,0.0,0.0
8401,88.0,240,240,0.0,0.0
8402,64.0,0,240,1.0,0.0
8403,56.0,0,240,1.0,0.0
8404,59.0,0,240,1.0,0.0
8405,59.0,0,15,1.0,0.0
8406,56.0,240,15,1.0,0.0
8407,64.0,0,15,1.0,0.0
8408,88.0,0,240,0.0,0.0
8409,59.0,0,15,1.0,0.0
8410,56.0,240,15,1.0,0.0
8411,64.0,0,240,1.0,0.0
8412,85.0,240,240,0.0,0.0
8413,61.0,0,240,1.0,0.0
8414,57.0,0,240,1.0,0.0
8415,64.0,0,240,1.0,0.0
8416,33.0,80,90,3.0,0.0
8417,64.0,80,15,1.0,0.0
8418,61.0,0,15,1.0,0.0
8419,57.0,0,15,1.0,0.0
8420,37.0,80,90,3.0,0.0
8421,40.0,0,90,3.0,0.0
8422,57.0,80,15,1.0,0.0
8423,45.0,80,90,3.0,0.0
8424,64.0,0,240,1.0,0.0
8425,61.0,0,240,1.0,0.0
8426,49.0,80,90,3.0,0.0
8427,52.0,0,90,3.0,0.0
8428,57.0,240,240,3.0,0.0
8429,61.0,0,240,1.0,0.0
8430,64.0,0,240,1.0,0.0
8431,61.0,0,240,1.0,0.0
8432,64.0,240,15,1.0,0.0
8433,57.0,0,240,3.0,0.0
8434,61.0,240,15,1.0,0.0
8435,64.0,0,15,1.0,0.0
8436,61.0,0,240,3.0,0.0
8437,64.0,240,240,3.0,0.0
8438,57.0,0,15,1.0,0.0
8439,55.0,0,15,1.0,0.0
8440,55.0,0,15,1.0,0.0
8441,57.0,80,15,1.0,0.0
8442,57.0,80,90,0.0,0.0
8443,61.0,80,90,0.0,0.0
8444,64.0,0,90,0.0,0.0
8445,69.0,80,90,0.0,0.0
8446,57.0,240,240,1.0,0.0
8447,73.0,80,90,0.0,0.0
8448,76.0,0,90,0.0,0.0
8449,55.0,0,15,1.0,0.0
8450,61.0,0,240,1.0,0.0
8451,81.0,0,240,0.0,0.0
8452,57.0,0,240,1.0,0.0
8453,55.0,240,15,1.0,0.0
8454,55.0,0,15,1.0,0.0
8455,57.0,0,15,1.0,0.0
8456,61.0,240,15,1.0,0.0
8457,81.0,0,240,0.0,0.0
8458,61.0,240,15,1.0,0.0
8459,55.0,240,240,1.0,0.0
8460,57.0,0,15,1.0,0.0
8461,54.0,0,240,1.0,0.0
8462,81.0,120,240,0.0,0.0
8463,62.0,120,120,0.0,0.0
8464,54.0,0,240,1.0,0.0
8465,62.0,0,960,0.0,0.0
8466,57.0,240,15,1.0,0.0
8467,54.0,240,240,1.0,0.0
8468,57.0,0,15,1.0,0.0
8469,54.0,0,240,1.0,0.0
8470,57.0,240,15,1.0,0.0
8471,53.0,240,15,1.0,0.0
8472,57.0,240,15,1.0,0.0
8473,63.0,0,480,0.0,0.0
8474,53.0,0,15,1.0,0.0
8475,57.0,240,240,1.0,0.0
8476,61.0,240,720,1.0,0.0
8477,64.0,0,720,0.0,0.0
8478,52.0,240,240,1.0,0.0
8479,52.0,240,240,1.0,0.0
8480,40.0,0,240,1.0,0.0
8481,52.0,0,240,1.0,0.0
8482,57.0,240,240,1.0,0.0
8483,61.0,0,240,0.0,0.0
8484,40.0,240,240,1.0,0.0
8485,59.0,0,720,1.0,0.0
8486,62.0,0,720,0.0,0.0
8487,52.0,240,240,1.0,0.0
8488,40.0,240,240,1.0,0.0
8489,56.0,240,240,1.0,0.0
8490,59.0,0,240,0.0,0.0
8491,52.0,0,240,1.0,0.0
8492,45.0,240,240,1.0,0.0
8493,61.0,0,480,0.0,0.0
8494,57.0,80,90,0.0,0.0
8495,57.0,80,15,1.0,0.0
8496,61.0,80,90,0.0,0.0
8497,64.0,0,90,0.0,0.0
8498,69.0,80,90,0.0,0.0
8499,73.0,80,90,0.0,0.0
8500,76.0,240,90,0.0,0.0
8501,57.0,0,15,1.0,0.0
8502,81.0,0,240,0.0,0.0
8503,55.0,0,15,1.0,0.0
8504,61.0,0,15,1.0,0.0
8505,81.0,240,240,0.0,0.0
8506,55.0,240,15,1.0,0.0
8507,57.0,0,15,1.0,0.0
8508,61.0,0,15,1.0,0.0
8509,61.0,240,240,1.0,0.0
8510,55.0,0,240,1.0,0.0
8511,81.0,120,240,0.0,0.0
8512,57.0,0,15,1.0,0.0
8513,57.0,0,15,1.0,0.0
8514,54.0,0,15,1.0,0.0
8515,62.0,120,120,0.0,0.0
8516,62.0,0,960,0.0,0.0
8517,57.0,240,15,1.0,0.0
8518,54.0,240,15,1.0,0.0
8519,54.0,0,15,1.0,0.0
8520,57.0,240,15,1.0,0.0
8521,54.0,0,15,1.0,0.0
8522,57.0,240,15,1.0,0.0
8523,81.0,0,480,0.0,0.0
8524,54.0,0,240,1.0,0.0
8525,57.0,240,240,1.0,0.0
8526,54.0,0,240,1.0,0.0
8527,81.0,0,240,0.0,0.0
8528,57.0,240,15,1.0,0.0
8529,60.0,120,15,1.0,0.0
8530,57.0,0,15,1.0,0.0
8531,63.0,120,120,0.0,0.0
8532,53.0,0,15,1.0,0.0
8533,63.0,240,960,0.0,0.0
8534,57.0,0,15,1.0,0.0
8535,60.0,240,240,1.0,0.0
8536,53.0,0,15,1.0,0.0
8537,57.0,0,15,1.0,0.0
8538,60.0,0,15,1.0,0.0
8539,57.0,0,15,1.0,0.0
8540,53.0,240,15,1.0,0.0
8541,60.0,240,15,1.0,0.0
8542,57.0,0,15,1.0,0.0
8543,53.0,0,15,1.0,0.0
8544,81.0,240,480,0.0,0.0
8545,63.0,0,240,1.0,0.0
8546,60.0,0,240,1.0,0.0
8547,60.0,0,240,1.0,0.0
8548,53.0,240,15,1.0,0.0
8549,63.0,0,240,1.0,0.0
8550,58.0,0,960,3.0,0.0
8551,62.0,396,960,3.0,0.0
8552,82.0,156,240,0.0,0.0
8553,81.0,240,150,0.0,0.0
8554,79.0,240,150,0.0,0.0
8555,77.0,84,150,0.0,0.0
8556,60.0,0,960,3.0,0.0
8557,63.0,240,960,3.0,0.0
8558,75.0,39,930,0.0,0.0
8559,69.0,240,150,1.0,0.0
8560,67.0,240,150,1.0,0.0
8561,65.0,45,150,1.0,0.0
8562,70.0,156,240,1.0,0.0
8563,74.0,39,930,0.0,0.0
8564,58.0,0,960,3.0,0.0
8565,62.0,396,960,3.0,0.0
8566,53.0,0,15,3.0,0.0
8567,69.0,240,150,1.0,0.0
8568,67.0,240,150,1.0,0.0
8569,65.0,45,150,1.0,0.0
8570,63.0,19,930,1.0,0.0
8571,48.0,0,960,3.0,0.0
8572,41.0,104,960,3.0,0.0
8573,51.0,0,960,3.0,0.0
8574,69.0,240,150,0.0,0.0
8575,67.0,240,150,0.0,0.0
8576,65.0,65,150,0.0,0.0
8577,41.0,0,1440,3.0,0.0
8578,62.0,0,90,1.0,0.0
8579,70.0,160,90,0.0,0.0
8580,58.0,160,90,0.0,0.0
8581,59.0,160,90,0.0,0.0
8582,60.0,160,90,0.0,0.0
8583,61.0,160,90,0.0,0.0
8584,62.0,160,90,0.0,0.0
8585,63.0,160,90,0.0,0.0
8586,64.0,160,90,0.0,0.0
8587,65.0,56,90,0.0,0.0
8588,50.0,160,15,3.0,0.0
8589,46.0,0,15,3.0,0.0
8590,41.0,64,360,3.0,0.0
8591,67.0,104,150,0.0,0.0
8592,65.0,96,90,0.0,0.0
8593,58.0,56,90,0.0,0.0
8594,50.0,0,15,3.0,0.0
8595,41.0,264,120,3.0,0.0
8596,46.0,0,120,3.0,0.0
8597,41.0,0,1440,3.0,0.0
8598,48.0,160,1440,3.0,0.0
8599,57.0,160,90,0.0,0.0
8600,58.0,160,90,0.0,0.0
8601,59.0,160,90,0.0,0.0
8602,60.0,160,90,0.0,0.0
8603,61.0,160,90,0.0,0.0
8604,62.0,160,90,0.0,0.0
8605,63.0,160,90,0.0,0.0
8606,64.0,56,90,0.0,0.0
8607,51.0,0,15,3.0,0.0
8608,65.0,104,150,0.0,0.0
8609,41.0,0,360,3.0,0.0
8610,63.0,96,90,0.0,0.0
8611,57.0,56,90,0.0,0.0
8612,41.0,0,120,3.0,0.0
8613,51.0,264,120,3.0,0.0
8614,48.0,64,15,3.0,0.0
8615,50.0,104,1440,3.0,0.0
8616,58.0,160,90,0.0,0.0
8617,59.0,160,90,0.0,0.0
8618,60.0,160,90,0.0,0.0
8619,61.0,160,90,0.0,0.0
8620,62.0,160,90,0.0,0.0
8621,63.0,160,90,0.0,0.0
8622,64.0,160,90,0.0,0.0
8623,65.0,56,90,0.0,0.0
8624,41.0,0,15,3.0,0.0
8625,46.0,0,15,3.0,0.0
8626,66.0,160,90,0.0,0.0
8627,50.0,0,360,3.0,0.0
8628,67.0,96,90,0.0,0.0
8629,68.0,56,90,0.0,0.0
8630,50.0,0,120,3.0,0.0
8631,46.0,64,15,3.0,0.0
8632,41.0,320,15,3.0,0.0
8633,69.0,160,150,0.0,0.0
8634,71.0,104,150,0.0,0.0
8635,72.0,216,90,0.0,0.0
8636,69.0,160,150,0.0,0.0
8637,71.0,104,150,0.0,0.0
8638,72.0,216,90,0.0,0.0
8639,69.0,160,150,0.0,0.0
8640,71.0,0,150,0.0,0.0
8641,48.0,0,15,3.0,0.0
8642,72.0,216,90,0.0,0.0
8643,51.0,104,15,3.0,0.0
8644,71.0,40,150,0.0,0.0
8645,69.0,0,150,0.0,0.0
8646,41.0,0,15,3.0,0.0
8647,51.0,120,15,3.0,0.0
8648,48.0,0,15,3.0,0.0
8649,68.0,136,90,0.0,0.0
8650,52.0,0,240,3.0,0.0
8651,47.0,0,240,3.0,0.0
8652,44.0,0,240,3.0,0.0
8653,39.0,24,240,3.0,0.0
8654,64.0,160,90,0.0,0.0
8655,65.0,160,90,0.0,0.0
8656,66.0,136,90,0.0,0.0
8657,52.0,0,240,3.0,0.0
8658,56.0,24,240,3.0,0.0
8659,59.0,0,240,3.0,0.0
8660,67.0,160,90,0.0,0.0
8661,68.0,160,90,0.0,0.0
8662,69.0,160,90,0.0,0.0
8663,70.0,160,90,0.0,0.0
8664,71.0,216,90,0.0,0.0
8665,72.0,104,150,0.0,0.0
8666,52.0,64,360,3.0,0.0
8667,56.0,0,360,3.0,0.0
8668,59.0,0,360,3.0,0.0
8669,71.0,96,90,0.0,0.0
8670,64.0,56,90,0.0,0.0
8671,56.0,0,120,3.0,0.0
8672,59.0,240,120,3.0,0.0
8673,52.0,0,120,3.0,0.0
8674,60.0,24,240,3.0,0.0
8675,57.0,0,240,3.0,0.0
8676,52.0,0,240,3.0,0.0
8677,66.0,160,90,0.0,0.0
8678,68.0,160,90,0.0,0.0
8679,69.0,136,90,0.0,0.0
8680,57.0,0,240,3.0,0.0
8681,60.0,24,240,3.0,0.0
8682,52.0,0,240,3.0,0.0
8683,71.0,160,90,0.0,0.0
8684,72.0,160,90,0.0,0.0
8685,73.0,160,90,0.0,0.0
8686,74.0,160,90,0.0,0.0
8687,75.0,160,90,0.0,0.0
8688,76.0,160,90,0.0,0.0
8689,77.0,96,90,0.0,0.0
8690,78.0,56,90,0.0,0.0
8691,60.0,0,15,3.0,0.0
8692,57.0,0,15,3.0,0.0
8693,52.0,64,15,3.0,0.0
8694,62.0,0,240,3.0,0.0
8695,52.0,24,240,3.0,0.0
8696,59.0,0,240,3.0,0.0
8697,68.0,160,90,0.0,0.0
8698,69.0,160,90,0.0,0.0
8699,59.0,0,240,3.0,0.0
8700,62.0,24,240,3.0,0.0
8701,52.0,0,240,3.0,0.0
8702,70.0,136,90,0.0,0.0
8703,71.0,160,90,0.0,0.0
8704,72.0,160,90,0.0,0.0
8705,73.0,160,90,0.0,0.0
8706,74.0,160,90,0.0,0.0
8707,75.0,216,90,0.0,0.0
8708,76.0,104,150,0.0,0.0
8709,59.0,0,360,3.0,0.0
8710,52.0,0,360,3.0,0.0
8711,74.0,96,90,0.0,0.0
8712,68.0,56,90,0.0,0.0
8713,59.0,0,120,3.0,0.0
8714,62.0,64,15,3.0,0.0
8715,61.0,0,240,3.0,0.0
8716,64.0,0,240,3.0,0.0
8717,52.0,240,15,3.0,0.0
8718,69.0,160,90,0.0,0.0
8719,71.0,160,90,0.0,0.0
8720,61.0,24,240,3.0,0.0
8721,52.0,0,240,3.0,0.0
8722,64.0,0,240,3.0,0.0
8723,73.0,136,90,0.0,0.0
8724,74.0,160,90,0.0,0.0
8725,75.0,160,90,0.0,0.0
8726,76.0,160,90,0.0,0.0
8727,77.0,160,90,0.0,0.0
8728,78.0,160,90,0.0,0.0
8729,79.0,160,90,0.0,0.0
8730,52.0,0,360,3.0,0.0
8731,64.0,0,360,3.0,0.0
8732,80.0,96,90,0.0,0.0
8733,81.0,56,90,0.0,0.0
8734,61.0,64,15,3.0,0.0
8735,52.0,0,120,3.0,0.0
8736,64.0,0,120,3.0,0.0
8737,59.0,24,240,3.0,0.0
8738,62.0,0,240,3.0,0.0
8739,56.0,0,240,3.0,0.0
8740,52.0,0,240,3.0,0.0
8741,71.0,160,90,0.0,0.0
8742,73.0,160,90,0.0,0.0
8743,74.0,160,90,0.0,0.0
8744,75.0,160,90,0.0,0.0
8745,76.0,160,90,0.0,0.0
8746,77.0,160,90,0.0,0.0
8747,78.0,160,90,0.0,0.0
8748,79.0,160,90,0.0,0.0
8749,80.0,160,90,0.0,0.0
8750,81.0,160,90,0.0,0.0
8751,82.0,160,90,0.0,0.0
8752,83.0,160,90,0.0,0.0
8753,84.0,160,90,0.0,0.0
8754,85.0,160,90,0.0,0.0
8755,86.0,160,90,0.0,0.0
8756,85.0,160,90,0.0,0.0
8757,83.0,160,90,0.0,0.0
8758,81.0,160,90,0.0,0.0
8759,80.0,160,90,0.0,0.0
8760,78.0,160,90,0.0,0.0
8761,76.0,160,90,0.0,0.0
8762,74.0,160,90,0.0,0.0
8763,73.0,160,90,0.0,0.0
8764,71.0,160,90,0.0,0.0
8765,69.0,160,90,0.0,0.0
8766,68.0,160,90,0.0,0.0
8767,66.0,160,90,0.0,0.0
8768,64.0,160,90,0.0,0.0
8769,62.0,160,90,0.0,0.0
8770,61.0,160,90,0.0,0.0
8771,59.0,160,90,0.0,0.0
8772,57.0,160,90,0.0,0.0
8773,56.0,160,90,0.0,0.0
8774,54.0,160,90,0.0,0.0
8775,52.0,160,90,0.0,0.0
8776,50.0,160,90,0.0,0.0
8777,49.0,160,90,0.0,0.0
8778,47.0,160,90,0.0,0.0
8779,45.0,160,90,0.0,0.0
8780,44.0,160,90,0.0,0.0
8781,42.0,160,90,0.0,0.0
8782,40.0,160,90,0.0,0.0
8783,42.0,160,90,0.0,0.0
8784,40.0,160,90,0.0,0.0
8785,38.0,160,90,0.0,0.0
8786,37.0,160,90,0.0,0.0
8787,35.0,136,90,0.0,0.0
8788,33.0,80,90,0.0,0.0
8789,37.0,80,90,0.0,0.0
8790,40.0,80,90,0.0,0.0
8791,45.0,80,90,0.0,0.0
8792,49.0,80,90,0.0,0.0
8793,52.0,60,90,0.0,0.0
8794,57.0,60,60,0.0,0.0
8795,61.0,60,60,0.0,0.0
8796,64.0,60,60,0.0,0.0
8797,69.0,60,60,0.0,0.0
8798,73.0,60,60,0.0,0.0
8799,76.0,60,60,0.0,0.0
8800,81.0,60,60,0.0,0.0
8801,85.0,240,60,0.0,0.0
8802,88.0,240,240,0.0,0.0
8803,57.0,224,510,3.0,0.0
8804,64.0,16,240,2.0,0.0
8805,88.0,240,240,0.0,0.0
8806,61.0,224,510,3.0,0.0
8807,64.0,16,240,2.0,0.0
8808,88.0,120,240,0.0,0.0
8809,59.0,464,510,3.0,0.0
8810,64.0,16,240,2.0,0.0
8811,68.0,120,120,0.0,0.0
8812,68.0,0,960,0.0,0.0
8813,62.0,464,510,3.0,0.0
8814,64.0,16,240,2.0,0.0
8815,59.0,464,510,3.0,0.0
8816,64.0,16,240,2.0,0.0
8817,62.0,64,510,3.0,0.0
8818,68.0,0,480,0.0,0.0
8819,64.0,16,240,2.0,0.0
8820,61.0,64,510,3.0,0.0
8821,69.0,80,90,0.0,0.0
8822,71.0,80,90,0.0,0.0
8823,69.0,80,90,0.0,0.0
8824,64.0,0,240,2.0,0.0
8825,68.0,80,90,0.0,0.0
8826,69.0,80,90,0.0,0.0
8827,70.0,16,90,0.0,0.0
8828,71.0,80,90,0.0,0.0
8829,56.0,64,510,3.0,0.0
8830,73.0,80,90,0.0,0.0
8831,71.0,80,90,0.0,0.0
8832,64.0,0,240,2.0,0.0
8833,70.0,80,90,0.0,0.0
8834,71.0,80,90,0.0,0.0
8835,72.0,16,90,0.0,0.0
8836,73.0,80,90,0.0,0.0
8837,57.0,64,510,3.0,0.0
8838,74.0,80,90,0.0,0.0
8839,73.0,80,90,0.0,0.0
8840,72.0,80,90,0.0,0.0
8841,64.0,0,240,2.0,0.0
8842,73.0,80,90,0.0,0.0
8843,69.0,16,90,0.0,0.0
8844,74.0,80,90,0.0,0.0
8845,54.0,64,510,3.0,0.0
8846,76.0,80,90,0.0,0.0
8847,74.0,80,90,0.0,0.0
8848,57.0,0,240,2.0,0.0
8849,73.0,80,90,0.0,0.0
8850,74.0,80,90,0.0,0.0
8851,75.0,16,90,0.0,0.0
8852,76.0,80,90,0.0,0.0
8853,52.0,48,510,3.0,0.0
8854,78.0,80,90,0.0,0.0
8855,76.0,80,90,0.0,0.0
8856,75.0,80,90,0.0,0.0
8857,61.0,32,240,2.0,0.0
8858,76.0,80,90,0.0,0.0
8859,77.0,0,90,0.0,0.0
8860,57.0,32,450,3.0,0.0
8861,78.0,118,90,0.0,0.0
8862,76.0,120,90,0.0,0.0
8863,61.0,448,240,2.0,0.0
8864,74.0,120,90,0.0,0.0
8865,73.0,10,90,0.0,0.0
8866,52.0,32,450,3.0,0.0
8867,71.0,480,480,0.0,0.0
8868,56.0,0,240,2.0,0.0
8869,50.0,344,510,3.0,0.0
8870,56.0,16,240,2.0,0.0
8871,49.0,64,510,3.0,0.0
8872,57.0,120,120,0.0,0.0
8873,57.0,0,240,2.0,0.0
8874,61.0,16,120,0.0,0.0
8875,52.0,104,510,3.0,0.0
8876,64.0,80,90,0.0,0.0
8877,69.0,80,90,0.0,0.0
8878,73.0,80,90,0.0,0.0
8879,57.0,16,240,2.0,0.0
8880,76.0,80,90,0.0,0.0
8881,81.0,80,90,0.0,0.0
8882,85.0,0,90,0.0,0.0
8883,88.0,78,15,0.0,0.0
8884,57.0,0,240,2.0,0.0
8885,87.0,78,120,0.0,0.0
8886,88.0,42,90,0.0,0.0
8887,49.0,120,15,3.0,0.0
8888,87.0,78,120,0.0,0.0
8889,88.0,162,90,0.0,0.0
8890,58.0,240,240,2.0,0.0
8891,87.0,78,120,0.0,0.0
8892,88.0,42,90,0.0,0.0
8893,88.0,120,240,0.0,0.0
8894,50.0,464,510,3.0,0.0
8895,66.0,120,120,0.0,0.0
8896,58.0,16,240,2.0,0.0
8897,66.0,120,720,0.0,0.0
8898,54.0,224,510,3.0,0.0
8899,58.0,16,240,2.0,0.0
8900,50.0,32,450,3.0,0.0
8901,74.0,88,120,0.0,0.0
8902,59.0,120,240,2.0,0.0
8903,73.0,0,120,0.0,0.0
8904,76.0,120,120,0.0,0.0
8905,54.0,48,420,3.0,0.0
8906,74.0,120,120,0.0,0.0
8907,59.0,0,240,2.0,0.0
8908,73.0,72,120,0.0,0.0
8909,71.0,432,120,0.0,0.0
8910,52.0,48,420,3.0,0.0
8911,69.0,60,720,0.0,0.0
8912,61.0,240,240,2.0,0.0
8913,57.0,48,420,3.0,0.0
8914,61.0,240,240,2.0,0.0
8915,71.0,60,60,0.0,0.0
8916,69.0,60,60,0.0,0.0
8917,68.0,12,60,0.0,0.0
8918,69.0,0,60,0.0,0.0
8919,52.0,48,420,3.0,0.0
8920,73.0,192,240,0.0,0.0
8921,62.0,0,240,2.0,0.0
8922,71.0,240,240,0.0,0.0
8923,59.0,16,450,3.0,0.0
8924,74.0,224,240,0.0,0.0
8925,68.0,96,240,0.0,0.0
8926,62.0,0,240,2.0,0.0
8927,69.0,120,90,0.0,0.0
8928,57.0,8,450,3.0,0.0
8929,68.0,120,90,0.0,0.0
8930,71.0,112,90,0.0,0.0
8931,64.0,96,240,2.0,0.0
8932,69.0,24,90,0.0,0.0
8933,61.0,0,480,3.0,0.0
8934,73.0,120,90,0.0,0.0
8935,71.0,120,90,0.0,0.0
8936,64.0,96,240,2.0,0.0
8937,74.0,120,90,0.0,0.0
8938,73.0,24,90,0.0,0.0
8939,57.0,8,450,3.0,0.0
8940,76.0,120,90,0.0,0.0
8941,75.0,120,90,0.0,0.0
8942,64.0,96,240,2.0,0.0
8943,78.0,112,90,0.0,0.0
8944,76.0,24,90,0.0,0.0
8945,61.0,0,480,3.0,0.0
8946,74.0,120,90,0.0,0.0
8947,73.0,120,90,0.0,0.0
8948,71.0,120,90,0.0,0.0
8949,64.0,415,240,2.0,0.0
8950,69.0,24,90,0.0,0.0
8951,68.0,33,420,0.0,0.0
8952,59.0,32,450,3.0,0.0
8953,64.0,0,240,2.0,0.0
8954,68.0,480,60,0.0,0.0
8955,62.0,0,480,3.0,0.0
8956,74.0,0,960,0.0,0.0
8957,64.0,480,240,2.0,0.0
8958,52.0,141,480,3.0,0.0
8959,64.0,15,240,2.0,0.0
8960,71.0,240,150,0.0,0.0
8961,62.0,0,480,3.0,0.0
8962,64.0,78,240,2.0,0.0
8963,68.0,84,150,0.0,0.0
8964,57.0,63,480,3.0,0.0
8965,69.0,162,90,0.0,0.0
8966,68.0,78,120,0.0,0.0
8967,71.0,162,90,0.0,0.0
8968,64.0,15,240,2.0,0.0
8969,69.0,0,120,0.0,0.0
8970,73.0,162,90,0.0,0.0
8971,61.0,15,480,3.0,0.0
8972,71.0,78,120,0.0,0.0
8973,74.0,147,90,0.0,0.0
8974,64.0,0,240,2.0,0.0
8975,73.0,78,120,0.0,0.0
8976,57.0,0,480,3.0,0.0
8977,76.0,162,90,0.0,0.0
8978,75.0,78,120,0.0,0.0
8979,64.0,78,240,2.0,0.0
8980,78.0,162,90,0.0,0.0
8981,76.0,0,120,0.0,0.0
8982,74.0,162,90,0.0,0.0
8983,61.0,65,480,3.0,0.0
8984,73.0,78,120,0.0,0.0
8985,64.0,15,240,2.0,0.0
8986,71.0,120,90,0.0,0.0
8987,69.0,42,90,0.0,0.0
8988,68.0,80,90,0.0,0.0
8989,59.0,465,480,3.0,0.0
8990,69.0,80,90,0.0,0.0
8991,68.0,60,90,0.0,0.0
8992,69.0,60,60,0.0,0.0
8993,64.0,15,240,2.0,0.0
8994,68.0,60,60,0.0,0.0
8995,66.0,60,60,0.0,0.0
8996,68.0,0,60,0.0,0.0
8997,74.0,0,960,0.0,0.0
8998,62.0,465,480,3.0,0.0
8999,64.0,0,240,2.0,0.0
9000,52.0,15,480,3.0,0.0
9001,64.0,240,240,2.0,0.0
9002,62.0,0,480,3.0,0.0
9003,71.0,240,240,0.0,0.0
9004,68.0,0,240,0.0,0.0
9005,64.0,120,240,2.0,0.0
9006,57.0,0,480,3.0,0.0
9007,69.0,120,120,0.0,0.0
9008,61.0,0,480,3.0,0.0
9009,61.0,0,480,2.0,0.0
9010,68.0,120,120,0.0,0.0
9011,71.0,120,120,0.0,0.0
9012,69.0,120,120,0.0,0.0
9013,73.0,120,120,0.0,0.0
9014,71.0,120,120,0.0,0.0
9015,74.0,120,120,0.0,0.0
9016,73.0,120,120,0.0,0.0
9017,76.0,120,120,0.0,0.0
9018,75.0,120,120,0.0,0.0
9019,78.0,120,120,0.0,0.0
9020,76.0,120,120,0.0,0.0
9021,81.0,120,120,0.0,0.0
9022,80.0,78,120,0.0,0.0
9023,83.0,120,90,0.0,0.0
9024,81.0,113,90,0.0,0.0
9025,80.0,120,60,0.0,0.0
9026,78.0,120,60,0.0,0.0
9027,76.0,120,60,0.0,0.0
9028,74.0,120,60,0.0,0.0
9029,73.0,120,60,0.0,0.0
9030,71.0,120,60,0.0,0.0
9031,69.0,120,60,0.0,0.0
9032,68.0,120,60,0.0,0.0
9033,66.0,120,60,0.0,0.0
9034,64.0,120,60,0.0,0.0
9035,62.0,120,60,0.0,0.0
9036,61.0,120,60,0.0,0.0
9037,59.0,120,60,0.0,0.0
9038,57.0,120,60,0.0,0.0
9039,56.0,120,60,0.0,0.0
9040,54.0,529,60,0.0,0.0
9041,47.0,0,1920,3.0,0.0
9042,40.0,0,1920,3.0,0.0
9043,50.0,0,1920,3.0,0.0
9044,52.0,480,480,0.0,0.0
9045,62.0,480,480,0.0,0.0
9046,59.0,480,480,0.0,0.0
9047,56.0,720,480,0.0,0.0
9048,56.0,0,960,1.0,0.0
9049,50.0,0,960,1.0,0.0
9050,59.0,480,960,0.0,0.0
9051,33.0,120,720,3.0,0.0
9052,37.0,120,120,3.0,0.0
9053,40.0,0,120,3.0,0.0
9054,45.0,0,480,3.0,0.0
9055,57.0,0,480,0.0,0.0
9056,49.0,0,480,1.0,0.0
9057,52.0,0,15,1.0,0.0
