,note,step,duration,channel,velocity
0,37.0,139,120,0.0,0.0
1,44.0,100,20,0.0,0.0
2,49.0,120,150,0.0,0.0
3,52.0,100,150,0.0,0.0
4,37.0,20,120,0.0,0.0
5,56.0,120,150,0.0,0.0
6,49.0,100,150,0.0,0.0
7,52.0,120,150,0.0,0.0
8,44.0,20,120,0.0,0.0
9,56.0,100,150,0.0,0.0
10,61.0,120,150,0.0,0.0
11,37.0,20,120,0.0,0.0
12,52.0,100,150,0.0,0.0
13,56.0,120,150,0.0,0.0
14,44.0,20,120,0.0,0.0
15,61.0,100,150,0.0,0.0
16,64.0,120,150,0.0,0.0
17,37.0,20,120,0.0,0.0
18,56.0,100,150,0.0,0.0
19,61.0,120,150,0.0,0.0
20,44.0,20,120,0.0,0.0
21,64.0,100,150,0.0,0.0
22,68.0,120,150,0.0,0.0
23,37.0,20,120,0.0,0.0
24,61.0,100,150,0.0,0.0
25,44.0,20,120,0.0,0.0
26,64.0,120,150,0.0,0.0
27,68.0,100,150,0.0,0.0
28,73.0,120,150,0.0,0.0
29,37.0,20,120,0.0,0.0
30,64.0,100,150,0.0,0.0
31,68.0,120,150,0.0,0.0
32,44.0,20,120,0.0,0.0
33,73.0,100,150,0.0,0.0
34,37.0,20,120,0.0,0.0
35,76.0,120,150,0.0,0.0
36,68.0,100,150,0.0,0.0
37,44.0,20,120,0.0,0.0
38,73.0,100,150,0.0,0.0
39,76.0,120,15,0.0,0.0
40,68.0,0,120,0.0,0.0
41,49.0,240,120,0.0,0.0
42,37.0,0,120,0.0,0.0
43,80.0,0,120,0.0,0.0
44,73.0,0,120,0.0,0.0
45,44.0,0,120,0.0,0.0
46,68.0,0,120,0.0,0.0
47,73.0,0,120,0.0,0.0
48,80.0,0,120,0.0,0.0
49,76.0,240,120,0.0,0.0
50,36.0,140,120,0.0,0.0
51,44.0,100,20,0.0,0.0
52,48.0,120,150,0.0,0.0
53,51.0,100,150,0.0,0.0
54,56.0,120,150,0.0,0.0
55,36.0,20,120,0.0,0.0
56,48.0,100,150,0.0,0.0
57,51.0,120,150,0.0,0.0
58,44.0,20,120,0.0,0.0
59,56.0,100,150,0.0,0.0
60,36.0,20,120,0.0,0.0
61,60.0,120,150,0.0,0.0
62,51.0,100,150,0.0,0.0
63,56.0,120,150,0.0,0.0
64,44.0,20,120,0.0,0.0
65,60.0,100,150,0.0,0.0
66,36.0,20,120,0.0,0.0
67,63.0,120,150,0.0,0.0
68,56.0,100,150,0.0,0.0
69,60.0,120,150,0.0,0.0
70,44.0,20,120,0.0,0.0
71,63.0,100,150,0.0,0.0
72,36.0,20,120,0.0,0.0
73,68.0,120,150,0.0,0.0
74,60.0,100,150,0.0,0.0
75,63.0,120,150,0.0,0.0
76,44.0,20,120,0.0,0.0
77,68.0,100,150,0.0,0.0
78,36.0,20,120,0.0,0.0
79,72.0,120,150,0.0,0.0
80,63.0,100,150,0.0,0.0
81,68.0,120,150,0.0,0.0
82,44.0,20,120,0.0,0.0
83,72.0,100,150,0.0,0.0
84,75.0,120,150,0.0,0.0
85,36.0,20,120,0.0,0.0
86,68.0,100,150,0.0,0.0
87,44.0,20,120,0.0,0.0
88,72.0,100,150,0.0,0.0
89,75.0,120,120,0.0,0.0
90,68.0,0,120,0.0,0.0
91,72.0,240,120,0.0,0.0
92,36.0,0,120,0.0,0.0
93,48.0,0,120,0.0,0.0
94,80.0,0,120,0.0,0.0
95,75.0,0,120,0.0,0.0
96,44.0,240,120,0.0,0.0
97,80.0,0,120,0.0,0.0
98,72.0,0,120,0.0,0.0
99,68.0,0,120,0.0,0.0
100,75.0,0,120,0.0,0.0
101,35.0,140,120,0.0,0.0
102,49.0,100,150,0.0,0.0
103,44.0,20,120,0.0,0.0
104,53.0,120,150,0.0,0.0
105,56.0,100,150,0.0,0.0
106,35.0,20,120,0.0,0.0
107,61.0,120,150,0.0,0.0
108,52.0,100,150,0.0,0.0
109,44.0,20,120,0.0,0.0
110,56.0,120,150,0.0,0.0
111,61.0,100,150,0.0,0.0
112,35.0,20,120,0.0,0.0
113,65.0,120,150,0.0,0.0
114,56.0,100,150,0.0,0.0
115,44.0,20,120,0.0,0.0
116,61.0,120,150,0.0,0.0
117,65.0,100,150,0.0,0.0
118,35.0,20,120,0.0,0.0
119,68.0,120,150,0.0,0.0
120,61.0,100,150,0.0,0.0
121,44.0,20,120,0.0,0.0
122,65.0,120,150,0.0,0.0
123,68.0,100,150,0.0,0.0
124,73.0,120,150,0.0,0.0
125,35.0,20,120,0.0,0.0
126,65.0,100,150,0.0,0.0
127,68.0,120,150,0.0,0.0
128,44.0,20,120,0.0,0.0
129,73.0,100,150,0.0,0.0
130,35.0,20,120,0.0,0.0
131,77.0,120,150,0.0,0.0
132,68.0,100,150,0.0,0.0
133,73.0,120,150,0.0,0.0
134,44.0,20,120,0.0,0.0
135,77.0,100,150,0.0,0.0
136,35.0,20,120,0.0,0.0
137,80.0,120,150,0.0,0.0
138,73.0,100,150,0.0,0.0
139,77.0,100,150,0.0,0.0
140,44.0,20,120,0.0,0.0
141,80.0,120,120,0.0,0.0
142,73.0,0,120,0.0,0.0
143,80.0,0,120,0.0,0.0
144,77.0,0,120,0.0,0.0
145,47.0,240,120,0.0,0.0
146,85.0,0,120,0.0,0.0
147,35.0,0,120,0.0,0.0
148,44.0,240,120,0.0,0.0
149,85.0,0,120,0.0,0.0
150,73.0,0,120,0.0,0.0
151,77.0,0,120,0.0,0.0
152,80.0,0,120,0.0,0.0
153,33.0,140,120,0.0,0.0
154,49.0,100,150,0.0,0.0
155,45.0,20,120,0.0,0.0
156,54.0,120,150,0.0,0.0
157,57.0,40,150,0.0,0.0
158,61.0,60,60,0.0,0.0
159,33.0,140,120,0.0,0.0
160,61.0,100,150,0.0,0.0
161,66.0,120,150,0.0,0.0
162,45.0,20,120,0.0,0.0
163,69.0,40,150,0.0,0.0
164,73.0,60,60,0.0,0.0
165,33.0,140,120,0.0,0.0
166,73.0,100,150,0.0,0.0
167,78.0,100,150,0.0,0.0
168,45.0,20,120,0.0,0.0
169,81.0,120,120,0.0,0.0
170,73.0,240,120,0.0,0.0
171,33.0,0,120,0.0,0.0
172,78.0,0,120,0.0,0.0
173,85.0,0,120,0.0,0.0
174,85.0,0,120,0.0,0.0
175,73.0,0,120,0.0,0.0
176,45.0,240,120,0.0,0.0
177,78.0,0,120,0.0,0.0
178,33.0,140,120,0.0,0.0
179,49.0,100,150,0.0,0.0
180,45.0,20,120,0.0,0.0
181,52.0,120,150,0.0,0.0
182,55.0,40,150,0.0,0.0
183,33.0,140,120,0.0,0.0
184,61.0,60,60,0.0,0.0
185,61.0,100,150,0.0,0.0
186,45.0,20,120,0.0,0.0
187,64.0,120,150,0.0,0.0
188,67.0,40,150,0.0,0.0
189,73.0,60,60,0.0,0.0
190,33.0,140,120,0.0,0.0
191,73.0,100,150,0.0,0.0
192,76.0,100,150,0.0,0.0
193,45.0,20,120,0.0,0.0
194,79.0,120,120,0.0,0.0
195,33.0,240,120,0.0,0.0
196,79.0,0,120,0.0,0.0
197,85.0,0,120,0.0,0.0
198,73.0,0,120,0.0,0.0
199,73.0,0,120,0.0,0.0
200,79.0,0,120,0.0,0.0
201,85.0,360,120,0.0,0.0
202,45.0,0,120,0.0,0.0
203,84.0,120,240,0.0,0.0
204,80.0,0,240,0.0,0.0
205,72.0,0,240,0.0,0.0
206,44.0,0,240,0.0,0.0
207,32.0,0,240,0.0,0.0
208,60.0,0,240,0.0,0.0
209,68.0,120,120,0.0,0.0
210,80.0,120,120,0.0,0.0
211,60.0,0,240,0.0,0.0
212,68.0,120,120,0.0,0.0
213,80.0,120,120,0.0,0.0
214,61.0,0,240,0.0,0.0
215,70.0,120,120,0.0,0.0
216,80.0,120,120,0.0,0.0
217,63.0,0,240,0.0,0.0
218,72.0,120,120,0.0,0.0
219,80.0,120,120,0.0,0.0
220,64.0,0,240,0.0,0.0
221,73.0,120,120,0.0,0.0
222,80.0,120,120,0.0,0.0
223,75.0,120,120,0.0,0.0
224,66.0,0,240,0.0,0.0
225,80.0,120,120,0.0,0.0
226,72.0,120,120,0.0,0.0
227,63.0,120,240,0.0,0.0
228,80.0,0,120,0.0,0.0
229,75.0,120,120,0.0,0.0
230,66.0,0,240,0.0,0.0
231,80.0,120,120,0.0,0.0
232,64.0,120,240,0.0,0.0
233,73.0,120,120,0.0,0.0
234,80.0,0,120,0.0,0.0
235,69.0,0,240,0.0,0.0
236,78.0,120,120,0.0,0.0
237,80.0,120,120,0.0,0.0
238,68.0,0,240,0.0,0.0
239,76.0,120,120,0.0,0.0
240,80.0,120,120,0.0,0.0
241,66.0,0,240,0.0,0.0
242,75.0,120,120,0.0,0.0
243,80.0,120,120,0.0,0.0
244,73.0,120,120,0.0,0.0
245,64.0,120,240,0.0,0.0
246,80.0,0,120,0.0,0.0
247,63.0,0,240,0.0,0.0
248,72.0,120,120,0.0,0.0
249,80.0,120,120,0.0,0.0
250,69.0,120,120,0.0,0.0
251,61.0,0,240,0.0,0.0
252,79.0,0,120,0.0,0.0
253,56.0,120,15,0.0,0.0
254,68.0,120,120,0.0,0.0
255,80.0,0,120,0.0,0.0
256,60.0,120,15,0.0,0.0
257,68.0,120,120,0.0,0.0
258,80.0,120,120,0.0,0.0
259,68.0,120,120,0.0,0.0
260,60.0,0,240,0.0,0.0
261,80.0,120,120,0.0,0.0
262,61.0,120,240,0.0,0.0
263,70.0,120,120,0.0,0.0
264,80.0,0,120,0.0,0.0
265,63.0,0,240,0.0,0.0
266,72.0,120,120,0.0,0.0
267,80.0,120,120,0.0,0.0
268,73.0,120,120,0.0,0.0
269,64.0,0,240,0.0,0.0
270,80.0,120,120,0.0,0.0
271,75.0,120,120,0.0,0.0
272,66.0,0,240,0.0,0.0
273,80.0,120,120,0.0,0.0
274,63.0,0,240,0.0,0.0
275,72.0,120,120,0.0,0.0
276,80.0,120,120,0.0,0.0
277,75.0,120,120,0.0,0.0
278,66.0,120,240,0.0,0.0
279,80.0,0,120,0.0,0.0
280,73.0,120,120,0.0,0.0
281,64.0,0,240,0.0,0.0
282,80.0,120,120,0.0,0.0
283,69.0,0,240,0.0,0.0
284,78.0,120,120,0.0,0.0
285,80.0,120,120,0.0,0.0
286,68.0,120,240,0.0,0.0
287,76.0,120,120,0.0,0.0
288,80.0,0,120,0.0,0.0
289,75.0,120,120,0.0,0.0
290,66.0,0,240,0.0,0.0
291,80.0,120,120,0.0,0.0
292,64.0,120,240,0.0,0.0
293,73.0,120,120,0.0,0.0
294,80.0,0,120,0.0,0.0
295,72.0,120,120,0.0,0.0
296,63.0,0,240,0.0,0.0
297,80.0,120,120,0.0,0.0
298,69.0,120,120,0.0,0.0
299,61.0,0,240,0.0,0.0
300,79.0,120,120,0.0,0.0
301,68.0,0,120,0.0,0.0
302,60.0,120,120,0.0,0.0
303,56.0,0,15,0.0,0.0
304,80.0,120,120,0.0,0.0
305,61.0,120,120,0.0,0.0
306,56.0,0,120,0.0,0.0
307,69.0,0,120,0.0,0.0
308,79.0,120,120,0.0,0.0
309,56.0,120,120,0.0,0.0
310,60.0,0,120,0.0,0.0
311,68.0,0,120,0.0,0.0
312,80.0,120,120,0.0,0.0
313,69.0,0,120,0.0,0.0
314,56.0,120,120,0.0,0.0
315,61.0,0,120,0.0,0.0
316,79.0,120,120,0.0,0.0
317,56.0,0,120,0.0,0.0
318,60.0,0,120,0.0,0.0
319,68.0,120,120,0.0,0.0
320,80.0,120,120,0.0,0.0
321,56.0,0,120,0.0,0.0
322,61.0,120,120,0.0,0.0
323,69.0,0,120,0.0,0.0
324,79.0,120,120,0.0,0.0
325,56.0,0,120,0.0,0.0
326,68.0,0,120,0.0,0.0
327,60.0,120,120,0.0,0.0
328,80.0,120,120,0.0,0.0
329,56.0,120,120,0.0,0.0
330,61.0,0,120,0.0,0.0
331,69.0,0,120,0.0,0.0
332,79.0,240,120,0.0,0.0
333,68.0,0,240,0.0,0.0
334,80.0,1680,240,0.0,0.0
335,60.0,0,240,0.0,0.0
336,56.0,0,240,0.0,0.0
337,56.0,120,1440,0.0,0.0
338,44.0,0,1440,0.0,0.0
339,32.0,0,1440,0.0,0.0
340,37.0,140,120,0.0,0.0
341,44.0,100,20,0.0,0.0
342,49.0,120,150,0.0,0.0
343,52.0,100,150,0.0,0.0
344,56.0,120,150,0.0,0.0
345,37.0,20,120,0.0,0.0
346,49.0,100,150,0.0,0.0
347,44.0,20,120,0.0,0.0
348,52.0,120,150,0.0,0.0
349,56.0,100,150,0.0,0.0
350,61.0,120,150,0.0,0.0
351,37.0,20,120,0.0,0.0
352,52.0,100,150,0.0,0.0
353,56.0,120,150,0.0,0.0
354,44.0,20,120,0.0,0.0
355,61.0,100,150,0.0,0.0
356,64.0,120,150,0.0,0.0
357,37.0,20,120,0.0,0.0
358,56.0,100,150,0.0,0.0
359,44.0,20,120,0.0,0.0
360,61.0,120,150,0.0,0.0
361,64.0,120,150,0.0,0.0
362,68.0,100,150,0.0,0.0
363,37.0,20,240,0.0,0.0
364,61.0,120,150,0.0,0.0
365,44.0,20,240,0.0,0.0
366,64.0,100,150,0.0,0.0
367,68.0,120,150,0.0,0.0
368,73.0,100,150,0.0,0.0
369,37.0,20,240,0.0,0.0
370,64.0,120,150,0.0,0.0
371,68.0,100,150,0.0,0.0
372,44.0,20,240,0.0,0.0
373,73.0,120,150,0.0,0.0
374,37.0,20,240,0.0,0.0
375,76.0,100,20,0.0,0.0
376,44.0,20,240,0.0,0.0
377,80.0,100,150,0.0,0.0
378,85.0,100,150,0.0,0.0
379,88.0,0,120,0.0,0.0
380,76.0,120,120,0.0,0.0
381,49.0,120,240,0.0,0.0
382,37.0,0,240,0.0,0.0
383,88.0,0,120,0.0,0.0
384,44.0,0,120,0.0,0.0
385,76.0,240,120,0.0,0.0
386,34.0,140,120,0.0,0.0
387,52.0,100,150,0.0,0.0
388,49.0,20,120,0.0,0.0
389,55.0,120,150,0.0,0.0
390,61.0,100,150,0.0,0.0
391,64.0,120,150,0.0,0.0
392,46.0,20,120,0.0,0.0
393,54.0,100,150,0.0,0.0
394,61.0,120,150,0.0,0.0
395,49.0,20,120,0.0,0.0
396,64.0,100,150,0.0,0.0
397,67.0,120,150,0.0,0.0
398,46.0,20,120,0.0,0.0
399,61.0,100,150,0.0,0.0
400,49.0,20,120,0.0,0.0
401,64.0,120,150,0.0,0.0
402,66.0,100,150,0.0,0.0
403,73.0,120,150,0.0,0.0
404,46.0,20,120,0.0,0.0
405,64.0,100,150,0.0,0.0
406,66.0,120,150,0.0,0.0
407,49.0,20,120,0.0,0.0
408,73.0,100,150,0.0,0.0
409,76.0,120,150,0.0,0.0
410,46.0,20,120,0.0,0.0
411,67.0,100,150,0.0,0.0
412,73.0,120,150,0.0,0.0
413,49.0,20,120,0.0,0.0
414,76.0,100,150,0.0,0.0
415,46.0,20,120,0.0,0.0
416,79.0,120,150,0.0,0.0
417,73.0,100,150,0.0,0.0
418,49.0,20,120,0.0,0.0
419,76.0,120,150,0.0,0.0
420,78.0,100,150,0.0,0.0
421,85.0,120,150,0.0,0.0
422,46.0,20,120,0.0,0.0
423,76.0,100,150,0.0,0.0
424,49.0,20,120,0.0,0.0
425,78.0,120,150,0.0,0.0
426,85.0,100,150,0.0,0.0
427,46.0,0,120,0.0,0.0
428,76.0,0,120,0.0,0.0
429,88.0,0,120,0.0,0.0
430,34.0,240,120,0.0,0.0
431,88.0,0,120,0.0,0.0
432,49.0,360,120,0.0,0.0
433,76.0,0,120,0.0,0.0
434,31.0,20,240,0.0,0.0
435,58.0,100,150,0.0,0.0
436,51.0,120,20,0.0,0.0
437,61.0,120,150,0.0,0.0
438,43.0,20,240,0.0,0.0
439,63.0,100,150,0.0,0.0
440,58.0,120,150,0.0,0.0
441,51.0,20,240,0.0,0.0
442,61.0,100,150,0.0,0.0
443,63.0,120,150,0.0,0.0
444,70.0,100,150,0.0,0.0
445,43.0,20,240,0.0,0.0
446,61.0,120,150,0.0,0.0
447,63.0,100,150,0.0,0.0
448,51.0,20,240,0.0,0.0
449,70.0,120,150,0.0,0.0
450,43.0,20,240,0.0,0.0
451,73.0,100,150,0.0,0.0
452,63.0,120,150,0.0,0.0
453,51.0,20,240,0.0,0.0
454,70.0,100,150,0.0,0.0
455,73.0,100,150,0.0,0.0
456,75.0,120,150,0.0,0.0
457,43.0,20,120,0.0,0.0
458,70.0,100,150,0.0,0.0
459,73.0,120,150,0.0,0.0
460,51.0,20,120,0.0,0.0
461,75.0,100,150,0.0,0.0
462,43.0,20,120,0.0,0.0
463,82.0,120,150,0.0,0.0
464,73.0,100,150,0.0,0.0
465,51.0,20,120,0.0,0.0
466,75.0,120,150,0.0,0.0
467,82.0,100,150,0.0,0.0
468,85.0,120,150,0.0,0.0
469,43.0,20,120,0.0,0.0
470,82.0,100,150,0.0,0.0
471,51.0,20,120,0.0,0.0
472,75.0,120,150,0.0,0.0
473,73.0,100,150,0.0,0.0
474,82.0,120,150,0.0,0.0
475,43.0,20,120,0.0,0.0
476,75.0,100,150,0.0,0.0
477,51.0,20,120,0.0,0.0
478,73.0,120,150,0.0,0.0
479,70.0,120,150,0.0,0.0
480,44.0,100,150,0.0,0.0
481,71.0,20,240,0.0,0.0
482,51.0,120,150,0.0,0.0
483,47.0,120,150,0.0,0.0
484,51.0,120,150,0.0,0.0
485,44.0,120,150,0.0,0.0
486,75.0,0,990,0.0,0.0
487,51.0,120,150,0.0,0.0
488,47.0,120,150,0.0,0.0
489,51.0,120,150,0.0,0.0
490,44.0,120,150,0.0,0.0
491,51.0,120,150,0.0,0.0
492,47.0,120,150,0.0,0.0
493,51.0,120,150,0.0,0.0
494,44.0,120,150,0.0,0.0
495,71.0,40,390,0.0,0.0
496,51.0,120,150,0.0,0.0
497,47.0,0,150,0.0,0.0
498,51.0,120,150,0.0,0.0
499,68.0,20,60,0.0,0.0
500,67.0,20,20,0.0,0.0
501,68.0,20,20,0.0,0.0
502,70.0,20,20,0.0,0.0
503,68.0,120,510,0.0,0.0
504,46.0,120,150,0.0,0.0
505,51.0,120,150,0.0,0.0
506,49.0,120,150,0.0,0.0
507,51.0,0,150,0.0,0.0
508,46.0,120,150,0.0,0.0
509,67.0,20,720,0.0,0.0
510,51.0,120,150,0.0,0.0
511,49.0,120,150,0.0,0.0
512,51.0,120,150,0.0,0.0
513,46.0,100,150,0.0,0.0
514,51.0,120,150,0.0,0.0
515,49.0,120,150,0.0,0.0
516,67.0,0,270,0.0,0.0
517,51.0,120,150,0.0,0.0
518,75.0,20,360,0.0,0.0
519,46.0,120,150,0.0,0.0
520,51.0,100,150,0.0,0.0
521,49.0,40,150,0.0,0.0
522,67.0,80,60,0.0,0.0
523,51.0,120,150,0.0,0.0
524,47.0,120,150,0.0,0.0
525,70.0,0,510,0.0,0.0
526,51.0,120,150,0.0,0.0
527,47.0,120,150,0.0,0.0
528,51.0,120,150,0.0,0.0
529,47.0,120,150,0.0,0.0
530,51.0,120,150,0.0,0.0
531,47.0,120,150,0.0,0.0
532,51.0,120,150,0.0,0.0
533,47.0,100,150,0.0,0.0
534,51.0,120,150,0.0,0.0
535,47.0,120,150,0.0,0.0
536,68.0,20,15,0.0,0.0
537,51.0,120,150,0.0,0.0
538,75.0,100,390,0.0,0.0
539,47.0,120,150,0.0,0.0
540,51.0,120,150,0.0,0.0
541,47.0,20,150,0.0,0.0
542,68.0,0,150,0.0,0.0
543,51.0,120,150,0.0,0.0
544,71.0,0,510,0.0,0.0
545,43.0,120,150,0.0,0.0
546,51.0,120,150,0.0,0.0
547,43.0,120,150,0.0,0.0
548,51.0,120,150,0.0,0.0
549,43.0,120,150,0.0,0.0
550,51.0,120,150,0.0,0.0
551,43.0,120,150,0.0,0.0
552,51.0,120,150,0.0,0.0
553,43.0,100,150,0.0,0.0
554,51.0,120,150,0.0,0.0
555,70.0,20,15,0.0,0.0
556,43.0,120,150,0.0,0.0
557,51.0,120,150,0.0,0.0
558,43.0,120,150,0.0,0.0
559,75.0,20,360,0.0,0.0
560,51.0,100,150,0.0,0.0
561,43.0,120,150,0.0,0.0
562,70.0,100,150,0.0,0.0
563,51.0,0,150,0.0,0.0
564,44.0,120,150,0.0,0.0
565,71.0,20,120,0.0,0.0
566,51.0,120,150,0.0,0.0
567,75.0,0,480,0.0,0.0
568,47.0,120,150,0.0,0.0
569,51.0,120,150,0.0,0.0
570,44.0,100,150,0.0,0.0
571,51.0,120,150,0.0,0.0
572,87.0,20,15,0.0,0.0
573,47.0,120,150,0.0,0.0
574,51.0,120,150,0.0,0.0
575,44.0,100,150,0.0,0.0
576,51.0,100,150,0.0,0.0
577,47.0,120,150,0.0,0.0
578,75.0,0,15,0.0,0.0
579,87.0,20,15,0.0,0.0
580,51.0,100,150,0.0,0.0
581,71.0,20,120,0.0,0.0
582,83.0,0,120,0.0,0.0
583,44.0,120,150,0.0,0.0
584,51.0,100,150,0.0,0.0
585,80.0,0,120,0.0,0.0
586,68.0,20,120,0.0,0.0
587,47.0,120,150,0.0,0.0
588,51.0,100,150,0.0,0.0
589,80.0,0,120,0.0,0.0
590,68.0,20,120,0.0,0.0
591,46.0,120,150,0.0,0.0
592,51.0,120,150,0.0,0.0
593,49.0,120,150,0.0,0.0
594,79.0,0,480,0.0,0.0
595,67.0,20,480,0.0,0.0
596,51.0,120,150,0.0,0.0
597,46.0,100,150,0.0,0.0
598,51.0,120,150,0.0,0.0
599,49.0,120,150,0.0,0.0
600,51.0,120,150,0.0,0.0
601,46.0,100,150,0.0,0.0
602,51.0,100,150,0.0,0.0
603,79.0,0,15,0.0,0.0
604,67.0,20,15,0.0,0.0
605,49.0,120,150,0.0,0.0
606,51.0,100,150,0.0,0.0
607,87.0,20,120,0.0,0.0
608,75.0,0,120,0.0,0.0
609,46.0,120,150,0.0,0.0
610,51.0,100,150,0.0,0.0
611,79.0,0,120,0.0,0.0
612,67.0,20,120,0.0,0.0
613,49.0,120,150,0.0,0.0
614,51.0,100,150,0.0,0.0
615,70.0,20,120,0.0,0.0
616,82.0,0,120,0.0,0.0
617,47.0,120,150,0.0,0.0
618,51.0,120,150,0.0,0.0
619,68.0,20,480,0.0,0.0
620,80.0,0,480,0.0,0.0
621,47.0,120,150,0.0,0.0
622,51.0,120,150,0.0,0.0
623,47.0,100,150,0.0,0.0
624,51.0,120,150,0.0,0.0
625,68.0,20,480,0.0,0.0
626,80.0,0,480,0.0,0.0
627,47.0,120,150,0.0,0.0
628,51.0,120,150,0.0,0.0
629,47.0,100,150,0.0,0.0
630,51.0,100,150,0.0,0.0
631,47.0,120,150,0.0,0.0
632,68.0,20,120,0.0,0.0
633,80.0,0,120,0.0,0.0
634,51.0,100,150,0.0,0.0
635,47.0,120,150,0.0,0.0
636,87.0,20,120,0.0,0.0
637,75.0,0,120,0.0,0.0
638,51.0,100,150,0.0,0.0
639,68.0,20,120,0.0,0.0
640,80.0,0,120,0.0,0.0
641,47.0,120,150,0.0,0.0
642,51.0,100,150,0.0,0.0
643,83.0,0,120,0.0,0.0
644,71.0,20,120,0.0,0.0
645,43.0,120,150,0.0,0.0
646,51.0,120,150,0.0,0.0
647,43.0,120,150,0.0,0.0
648,70.0,0,480,0.0,0.0
649,82.0,20,480,0.0,0.0
650,51.0,120,150,0.0,0.0
651,43.0,100,150,0.0,0.0
652,51.0,120,150,0.0,0.0
653,43.0,120,150,0.0,0.0
654,51.0,120,150,0.0,0.0
655,43.0,100,150,0.0,0.0
656,51.0,100,150,0.0,0.0
657,43.0,120,150,0.0,0.0
658,70.0,0,15,0.0,0.0
659,82.0,20,15,0.0,0.0
660,51.0,100,150,0.0,0.0
661,43.0,120,150,0.0,0.0
662,87.0,0,120,0.0,0.0
663,75.0,20,120,0.0,0.0
664,51.0,100,150,0.0,0.0
665,43.0,120,150,0.0,0.0
666,70.0,20,120,0.0,0.0
667,82.0,0,120,0.0,0.0
668,51.0,120,150,0.0,0.0
669,72.0,0,960,0.0,0.0
670,84.0,20,960,0.0,0.0
671,42.0,120,150,0.0,0.0
672,51.0,120,150,0.0,0.0
673,44.0,120,150,0.0,0.0
674,51.0,120,150,0.0,0.0
675,42.0,120,150,0.0,0.0
676,51.0,120,150,0.0,0.0
677,44.0,100,150,0.0,0.0
678,51.0,120,150,0.0,0.0
679,85.0,0,960,0.0,0.0
680,40.0,120,150,0.0,0.0
681,73.0,20,960,0.0,0.0
682,49.0,120,150,0.0,0.0
683,44.0,120,150,0.0,0.0
684,49.0,120,150,0.0,0.0
685,40.0,120,150,0.0,0.0
686,49.0,120,150,0.0,0.0
687,44.0,100,150,0.0,0.0
688,49.0,55,150,0.0,0.0
689,82.0,65,60,0.0,0.0
690,40.0,10,150,0.0,0.0
691,70.0,0,480,0.0,0.0
692,83.0,75,60,0.0,0.0
693,49.0,40,150,0.0,0.0
694,82.0,35,60,0.0,0.0
695,83.0,80,60,0.0,0.0
696,42.0,10,150,0.0,0.0
697,80.0,90,90,0.0,0.0
698,49.0,120,150,0.0,0.0
699,82.0,20,90,0.0,0.0
700,83.0,0,1440,0.0,0.0
701,39.0,120,150,0.0,0.0
702,71.0,20,1440,0.0,0.0
703,47.0,120,150,0.0,0.0
704,42.0,120,150,0.0,0.0
705,47.0,120,150,0.0,0.0
706,39.0,120,150,0.0,0.0
707,47.0,120,150,0.0,0.0
708,42.0,120,150,0.0,0.0
709,47.0,120,150,0.0,0.0
710,39.0,120,150,0.0,0.0
711,47.0,120,150,0.0,0.0
712,42.0,100,150,0.0,0.0
713,47.0,120,150,0.0,0.0
714,68.0,0,960,0.0,0.0
715,38.0,120,150,0.0,0.0
716,80.0,20,960,0.0,0.0
717,47.0,120,150,0.0,0.0
718,40.0,120,150,0.0,0.0
719,47.0,120,150,0.0,0.0
720,38.0,120,150,0.0,0.0
721,47.0,120,150,0.0,0.0
722,40.0,100,150,0.0,0.0
723,47.0,120,150,0.0,0.0
724,69.0,0,960,0.0,0.0
725,81.0,20,960,0.0,0.0
726,37.0,120,150,0.0,0.0
727,45.0,120,150,0.0,0.0
728,40.0,120,150,0.0,0.0
729,45.0,120,150,0.0,0.0
730,37.0,120,150,0.0,0.0
731,45.0,120,150,0.0,0.0
732,40.0,100,150,0.0,0.0
733,45.0,55,150,0.0,0.0
734,67.0,0,480,0.0,0.0
735,79.0,65,60,0.0,0.0
736,37.0,10,150,0.0,0.0
737,80.0,45,60,0.0,0.0
738,46.0,40,150,0.0,0.0
739,79.0,65,60,0.0,0.0
740,80.0,80,60,0.0,0.0
741,39.0,10,150,0.0,0.0
742,77.0,90,90,0.0,0.0
743,46.0,120,150,0.0,0.0
744,78.0,20,90,0.0,0.0
745,80.0,20,1440,0.0,0.0
746,68.0,0,1440,0.0,0.0
747,35.0,120,150,0.0,0.0
748,44.0,120,150,0.0,0.0
749,39.0,120,150,0.0,0.0
750,44.0,120,150,0.0,0.0
751,35.0,120,150,0.0,0.0
752,44.0,120,150,0.0,0.0
753,39.0,120,150,0.0,0.0
754,44.0,120,150,0.0,0.0
755,35.0,120,150,0.0,0.0
756,44.0,120,150,0.0,0.0
757,37.0,100,150,0.0,0.0
758,44.0,1060,150,0.0,0.0
759,45.0,0,1440,0.0,0.0
760,81.0,0,1080,0.0,0.0
761,73.0,0,1080,0.0,0.0
762,69.0,0,1080,0.0,0.0
763,76.0,120,1080,0.0,0.0
764,40.0,0,1440,0.0,0.0
765,37.0,0,1440,0.0,0.0
766,49.0,120,1440,0.0,0.0
767,76.0,120,120,0.0,0.0
768,78.0,120,120,0.0,0.0
769,80.0,0,120,0.0,0.0
770,81.0,120,120,0.0,0.0
771,83.0,120,120,0.0,0.0
772,85.0,120,120,0.0,0.0
773,83.0,120,120,0.0,0.0
774,81.0,120,120,0.0,0.0
775,69.0,4,480,0.0,0.0
776,61.0,120,480,0.0,0.0
777,64.0,0,480,0.0,0.0
778,76.0,120,120,0.0,0.0
779,78.0,116,120,0.0,0.0
780,80.0,0,120,0.0,0.0
781,81.0,120,120,0.0,0.0
782,83.0,120,120,0.0,0.0
783,85.0,120,120,0.0,0.0
784,83.0,120,120,0.0,0.0
785,64.0,0,480,0.0,0.0
786,61.0,0,480,0.0,0.0
787,69.0,0,480,0.0,0.0
788,81.0,120,120,0.0,0.0
789,76.0,120,120,0.0,0.0
790,78.0,120,120,0.0,0.0
791,80.0,120,120,0.0,0.0
792,81.0,120,120,0.0,0.0
793,83.0,120,120,0.0,0.0
794,85.0,120,120,0.0,0.0
795,83.0,120,120,0.0,0.0
796,81.0,120,120,0.0,0.0
797,61.0,0,480,0.0,0.0
798,64.0,0,480,0.0,0.0
799,76.0,120,120,0.0,0.0
800,78.0,120,120,0.0,0.0
801,80.0,120,120,0.0,0.0
802,64.0,0,480,0.0,0.0
803,61.0,0,480,0.0,0.0
804,69.0,0,15,0.0,0.0
805,81.0,120,120,0.0,0.0
806,83.0,120,120,0.0,0.0
807,85.0,120,120,0.0,0.0
808,86.0,120,120,0.0,0.0
809,69.0,0,15,0.0,0.0
810,64.0,0,480,0.0,0.0
811,88.0,120,120,0.0,0.0
812,61.0,0,480,0.0,0.0
813,87.0,120,120,0.0,0.0
814,88.0,120,120,0.0,0.0
815,87.0,0,120,0.0,0.0
816,88.0,120,120,0.0,0.0
817,69.0,0,480,0.0,0.0
818,64.0,0,480,0.0,0.0
819,61.0,140,480,0.0,0.0
820,85.0,120,120,0.0,0.0
821,83.0,120,120,0.0,0.0
822,81.0,0,120,0.0,0.0
823,63.0,120,150,0.0,0.0
824,80.0,20,960,0.0,0.0
825,71.0,120,150,0.0,0.0
826,68.0,120,150,0.0,0.0
827,71.0,120,150,0.0,0.0
828,63.0,120,150,0.0,0.0
829,71.0,120,150,0.0,0.0
830,68.0,100,150,0.0,0.0
831,71.0,60,150,0.0,0.0
832,63.0,20,150,0.0,0.0
833,82.0,60,90,0.0,0.0
834,83.0,75,90,0.0,0.0
835,73.0,50,150,0.0,0.0
836,82.0,25,60,0.0,0.0
837,83.0,70,60,0.0,0.0
838,67.0,5,150,0.0,0.0
839,82.0,75,60,0.0,0.0
840,73.0,30,150,0.0,0.0
841,83.0,40,60,0.0,0.0
842,82.0,70,60,0.0,0.0
843,63.0,40,150,0.0,0.0
844,83.0,20,60,0.0,0.0
845,82.0,60,60,0.0,0.0
846,73.0,40,150,0.0,0.0
847,83.0,20,60,0.0,0.0
848,67.0,40,150,0.0,0.0
849,82.0,60,60,0.0,0.0
850,83.0,20,60,0.0,0.0
851,82.0,60,60,0.0,0.0
852,73.0,220,150,0.0,0.0
853,83.0,20,60,0.0,0.0
854,80.0,0,240,0.0,0.0
855,68.0,0,240,0.0,0.0
856,64.0,0,240,0.0,0.0
857,71.0,840,240,0.0,0.0
858,69.0,0,600,0.0,0.0
859,64.0,0,600,0.0,0.0
860,57.0,0,600,0.0,0.0
861,61.0,120,600,0.0,0.0
862,37.0,0,960,0.0,0.0
863,49.0,0,960,0.0,0.0
864,40.0,120,960,0.0,0.0
865,45.0,0,960,0.0,0.0
866,64.0,120,120,0.0,0.0
867,66.0,120,120,0.0,0.0
868,68.0,0,120,0.0,0.0
869,69.0,120,120,0.0,0.0
870,71.0,120,120,0.0,0.0
871,73.0,120,120,0.0,0.0
872,71.0,120,120,0.0,0.0
873,69.0,120,120,0.0,0.0
874,64.0,120,120,0.0,0.0
875,66.0,120,120,0.0,0.0
876,68.0,120,120,0.0,0.0
877,69.0,120,120,0.0,0.0
878,57.0,0,480,0.0,0.0
879,49.0,120,480,0.0,0.0
880,52.0,0,480,0.0,0.0
881,71.0,120,120,0.0,0.0
882,73.0,120,120,0.0,0.0
883,71.0,0,120,0.0,0.0
884,69.0,120,120,0.0,0.0
885,64.0,120,120,0.0,0.0
886,66.0,120,120,0.0,0.0
887,68.0,120,120,0.0,0.0
888,49.0,0,480,0.0,0.0
889,57.0,120,480,0.0,0.0
890,69.0,120,120,0.0,0.0
891,52.0,0,480,0.0,0.0
892,71.0,120,120,0.0,0.0
893,73.0,120,120,0.0,0.0
894,71.0,0,120,0.0,0.0
895,69.0,120,120,0.0,0.0
896,64.0,120,120,0.0,0.0
897,49.0,0,240,0.0,0.0
898,66.0,120,120,0.0,0.0
899,52.0,120,240,0.0,0.0
900,57.0,0,240,0.0,0.0
901,68.0,0,120,0.0,0.0
902,69.0,120,120,0.0,0.0
903,71.0,120,120,0.0,0.0
904,73.0,120,120,0.0,0.0
905,52.0,0,240,0.0,0.0
906,49.0,0,240,0.0,0.0
907,57.0,0,240,0.0,0.0
908,71.0,120,120,0.0,0.0
909,69.0,120,120,0.0,0.0
910,64.0,120,120,0.0,0.0
911,49.0,120,240,0.0,0.0
912,57.0,0,240,0.0,0.0
913,66.0,120,120,0.0,0.0
914,52.0,0,240,0.0,0.0
915,68.0,0,120,0.0,0.0
916,69.0,120,120,0.0,0.0
917,71.0,120,120,0.0,0.0
918,73.0,120,120,0.0,0.0
919,57.0,120,240,0.0,0.0
920,52.0,0,240,0.0,0.0
921,71.0,0,120,0.0,0.0
922,49.0,0,15,0.0,0.0
923,52.0,0,480,0.0,0.0
924,57.0,120,480,0.0,0.0
925,69.0,120,120,0.0,0.0
926,64.0,120,120,0.0,0.0
927,66.0,120,120,0.0,0.0
928,68.0,0,120,0.0,0.0
929,69.0,120,120,0.0,0.0
930,71.0,120,120,0.0,0.0
931,73.0,120,120,0.0,0.0
932,74.0,120,120,0.0,0.0
933,76.0,120,120,0.0,0.0
934,78.0,120,120,0.0,0.0
935,80.0,120,120,0.0,0.0
936,81.0,120,120,0.0,0.0
937,83.0,120,120,0.0,0.0
938,85.0,120,120,0.0,0.0
939,86.0,120,120,0.0,0.0
940,87.0,140,120,0.0,0.0
941,88.0,20,960,0.0,0.0
942,76.0,0,960,0.0,0.0
943,49.0,120,150,0.0,0.0
944,57.0,120,150,0.0,0.0
945,52.0,120,150,0.0,0.0
946,57.0,120,150,0.0,0.0
947,49.0,120,150,0.0,0.0
948,57.0,120,150,0.0,0.0
949,52.0,100,150,0.0,0.0
950,57.0,120,150,0.0,0.0
951,50.0,120,150,0.0,0.0
952,80.0,20,960,0.0,0.0
953,68.0,0,960,0.0,0.0
954,59.0,120,150,0.0,0.0
955,53.0,120,150,0.0,0.0
956,59.0,120,150,0.0,0.0
957,50.0,120,150,0.0,0.0
958,59.0,120,150,0.0,0.0
959,53.0,100,150,0.0,0.0
960,59.0,120,150,0.0,0.0
961,71.0,20,960,0.0,0.0
962,51.0,120,150,0.0,0.0
963,83.0,0,960,0.0,0.0
964,59.0,120,150,0.0,0.0
965,56.0,120,150,0.0,0.0
966,59.0,120,150,0.0,0.0
967,51.0,120,150,0.0,0.0
968,59.0,120,150,0.0,0.0
969,56.0,100,150,0.0,0.0
970,59.0,120,150,0.0,0.0
971,39.0,120,150,0.0,0.0
972,61.0,240,960,0.0,0.0
973,55.0,0,960,0.0,0.0
974,67.0,0,960,0.0,0.0
975,51.0,120,150,0.0,0.0
976,50.0,120,150,0.0,0.0
977,51.0,120,150,0.0,0.0
978,39.0,120,150,0.0,0.0
979,51.0,120,150,0.0,0.0
980,50.0,100,150,0.0,0.0
981,51.0,0,120,0.0,0.0
982,68.0,0,240,0.0,0.0
983,63.0,120,240,0.0,0.0
984,59.0,0,240,0.0,0.0
985,44.0,0,240,0.0,0.0
986,63.0,240,120,0.0,0.0
987,71.0,0,120,0.0,0.0
988,56.0,240,120,0.0,0.0
989,63.0,0,120,0.0,0.0
990,71.0,0,120,0.0,0.0
991,71.0,0,120,0.0,0.0
992,63.0,0,120,0.0,0.0
993,56.0,240,120,0.0,0.0
994,56.0,0,120,0.0,0.0
995,71.0,240,120,0.0,0.0
996,63.0,0,120,0.0,0.0
997,71.0,0,120,0.0,0.0
998,63.0,240,120,0.0,0.0
999,56.0,0,120,0.0,0.0
1000,58.0,0,120,0.0,0.0
1001,63.0,0,120,0.0,0.0
1002,70.0,240,120,0.0,0.0
1003,59.0,360,120,0.0,0.0
1004,68.0,0,120,0.0,0.0
1005,63.0,0,120,0.0,0.0
1006,49.0,240,240,0.0,0.0
1007,61.0,0,240,0.0,0.0
1008,63.0,0,240,0.0,0.0
1009,67.0,0,240,0.0,0.0
1010,61.0,0,240,0.0,0.0
1011,75.0,0,240,0.0,0.0
1012,61.0,0,240,0.0,0.0
1013,67.0,0,15,0.0,0.0
1014,63.0,240,15,0.0,0.0
1015,75.0,0,240,0.0,0.0
1016,61.0,240,240,0.0,0.0
1017,63.0,0,240,0.0,0.0
1018,67.0,0,240,0.0,0.0
1019,75.0,0,240,0.0,0.0
1020,63.0,0,240,0.0,0.0
1021,61.0,0,240,0.0,0.0
1022,75.0,240,15,0.0,0.0
1023,67.0,0,15,0.0,0.0
1024,61.0,0,240,0.0,0.0
1025,63.0,240,15,0.0,0.0
1026,59.0,0,240,0.0,0.0
1027,68.0,0,240,0.0,0.0
1028,75.0,0,15,0.0,0.0
1029,70.0,0,240,0.0,0.0
1030,75.0,240,15,0.0,0.0
1031,63.0,0,15,0.0,0.0
1032,58.0,0,240,0.0,0.0
1033,71.0,0,240,0.0,0.0
1034,44.0,0,240,0.0,0.0
1035,56.0,0,240,0.0,0.0
1036,75.0,240,240,0.0,0.0
1037,63.0,0,240,0.0,0.0
1038,71.0,0,240,0.0,0.0
1039,56.0,240,240,0.0,0.0
1040,63.0,0,240,0.0,0.0
1041,56.0,0,240,0.0,0.0
1042,71.0,240,15,0.0,0.0
1043,56.0,0,240,0.0,0.0
1044,56.0,0,240,0.0,0.0
1045,71.0,240,15,0.0,0.0
1046,63.0,0,15,0.0,0.0
1047,56.0,240,240,0.0,0.0
1048,71.0,240,15,0.0,0.0
1049,70.0,0,240,0.0,0.0
1050,63.0,0,15,0.0,0.0
1051,58.0,240,240,0.0,0.0
1052,68.0,0,240,0.0,0.0
1053,63.0,0,15,0.0,0.0
1054,59.0,0,240,0.0,0.0
1055,51.0,240,240,0.0,0.0
1056,61.0,0,15,0.0,0.0
1057,63.0,0,15,0.0,0.0
1058,67.0,0,15,0.0,0.0
1059,75.0,0,15,0.0,0.0
1060,61.0,0,240,0.0,0.0
1061,63.0,0,240,0.0,0.0
1062,67.0,240,240,0.0,0.0
1063,75.0,0,240,0.0,0.0
1064,67.0,0,240,0.0,0.0
1065,61.0,0,15,0.0,0.0
1066,63.0,240,15,0.0,0.0
1067,67.0,240,240,0.0,0.0
1068,75.0,0,240,0.0,0.0
1069,61.0,0,15,0.0,0.0
1070,63.0,0,240,0.0,0.0
1071,75.0,240,240,0.0,0.0
1072,67.0,0,240,0.0,0.0
1073,59.0,240,240,0.0,0.0
1074,68.0,0,240,0.0,0.0
1075,63.0,0,15,0.0,0.0
1076,58.0,0,240,0.0,0.0
1077,70.0,0,240,0.0,0.0
1078,75.0,0,15,0.0,0.0
1079,75.0,120,15,0.0,0.0
1080,71.0,0,120,0.0,0.0
1081,44.0,240,120,0.0,0.0
1082,56.0,360,120,0.0,0.0
1083,75.0,0,120,0.0,0.0
1084,59.0,0,120,0.0,0.0
1085,71.0,0,120,0.0,0.0
1086,56.0,240,240,0.0,0.0
1087,75.0,0,240,0.0,0.0
1088,59.0,0,15,0.0,0.0
1089,71.0,0,15,0.0,0.0
1090,68.0,120,240,0.0,0.0
1091,63.0,0,240,0.0,0.0
1092,49.0,240,120,0.0,0.0
1093,56.0,360,120,0.0,0.0
1094,61.0,0,120,0.0,0.0
1095,73.0,0,120,0.0,0.0
1096,76.0,0,120,0.0,0.0
1097,76.0,240,240,0.0,0.0
1098,61.0,0,240,0.0,0.0
1099,56.0,0,240,0.0,0.0
1100,61.0,0,240,0.0,0.0
1101,73.0,0,15,0.0,0.0
1102,68.0,0,240,0.0,0.0
1103,64.0,0,240,0.0,0.0
1104,51.0,240,120,0.0,0.0
1105,71.0,0,120,0.0,0.0
1106,75.0,0,120,0.0,0.0
1107,59.0,360,120,0.0,0.0
1108,56.0,0,120,0.0,0.0
1109,59.0,0,240,0.0,0.0
1110,56.0,240,240,0.0,0.0
1111,75.0,0,240,0.0,0.0
1112,71.0,0,240,0.0,0.0
1113,71.0,0,240,0.0,0.0
1114,68.0,0,240,0.0,0.0
1115,59.0,0,240,0.0,0.0
1116,63.0,120,240,0.0,0.0
1117,51.0,240,120,0.0,0.0
1118,55.0,0,120,0.0,0.0
1119,75.0,0,120,0.0,0.0
1120,70.0,0,120,0.0,0.0
1121,58.0,360,120,0.0,0.0
1122,55.0,0,240,0.0,0.0
1123,75.0,0,240,0.0,0.0
1124,70.0,240,240,0.0,0.0
1125,58.0,0,15,0.0,0.0
1126,63.0,0,240,0.0,0.0
1127,70.0,0,240,0.0,0.0
1128,67.0,0,240,0.0,0.0
1129,32.0,0,240,0.0,0.0
1130,71.0,0,240,0.0,0.0
1131,68.0,0,240,0.0,0.0
1132,44.0,240,15,0.0,0.0
1133,83.0,0,15,0.0,0.0
1134,71.0,0,15,0.0,0.0
1135,75.0,0,15,0.0,0.0
1136,51.0,240,15,0.0,0.0
1137,44.0,0,240,0.0,0.0
1138,83.0,240,15,0.0,0.0
1139,71.0,0,15,0.0,0.0
1140,75.0,0,15,0.0,0.0
1141,44.0,0,15,0.0,0.0
1142,75.0,0,15,0.0,0.0
1143,71.0,0,15,0.0,0.0
1144,83.0,240,15,0.0,0.0
1145,51.0,0,15,0.0,0.0
1146,51.0,240,240,0.0,0.0
1147,44.0,0,240,0.0,0.0
1148,75.0,240,15,0.0,0.0
1149,71.0,0,15,0.0,0.0
1150,83.0,0,15,0.0,0.0
1151,82.0,0,240,0.0,0.0
1152,73.0,240,240,0.0,0.0
1153,70.0,0,240,0.0,0.0
1154,46.0,0,240,0.0,0.0
1155,47.0,0,240,0.0,0.0
1156,51.0,0,15,0.0,0.0
1157,68.0,240,240,0.0,0.0
1158,71.0,0,240,0.0,0.0
1159,80.0,0,240,0.0,0.0
1160,70.0,0,240,0.0,0.0
1161,49.0,0,240,0.0,0.0
1162,39.0,0,240,0.0,0.0
1163,67.0,0,240,0.0,0.0
1164,51.0,0,15,0.0,0.0
1165,61.0,240,240,0.0,0.0
1166,79.0,240,15,0.0,0.0
1167,76.0,0,240,0.0,0.0
1168,88.0,0,240,0.0,0.0
1169,79.0,0,15,0.0,0.0
1170,61.0,0,240,0.0,0.0
1171,51.0,0,15,0.0,0.0
1172,76.0,240,15,0.0,0.0
1173,88.0,0,15,0.0,0.0
1174,88.0,0,240,0.0,0.0
1175,79.0,240,15,0.0,0.0
1176,61.0,0,15,0.0,0.0
1177,51.0,0,15,0.0,0.0
1178,88.0,240,240,0.0,0.0
1179,79.0,0,15,0.0,0.0
1180,76.0,0,15,0.0,0.0
1181,51.0,0,15,0.0,0.0
1182,61.0,240,15,0.0,0.0
1183,51.0,0,15,0.0,0.0
1184,59.0,0,240,0.0,0.0
1185,87.0,0,240,0.0,0.0
1186,79.0,0,240,0.0,0.0
1187,75.0,240,240,0.0,0.0
1188,58.0,240,240,0.0,0.0
1189,51.0,0,240,0.0,0.0
1190,85.0,0,240,0.0,0.0
1191,79.0,0,240,0.0,0.0
1192,73.0,0,240,0.0,0.0
1193,80.0,0,240,0.0,0.0
1194,32.0,240,240,0.0,0.0
1195,44.0,0,15,0.0,0.0
1196,75.0,0,240,0.0,0.0
1197,71.0,0,15,0.0,0.0
1198,51.0,0,15,0.0,0.0
1199,44.0,0,15,0.0,0.0
1200,75.0,0,240,0.0,0.0
1201,71.0,0,15,0.0,0.0
1202,83.0,0,15,0.0,0.0
1203,83.0,240,15,0.0,0.0
1204,51.0,0,240,0.0,0.0
1205,71.0,0,15,0.0,0.0
1206,44.0,240,15,0.0,0.0
1207,71.0,0,15,0.0,0.0
1208,83.0,0,15,0.0,0.0
1209,51.0,0,240,0.0,0.0
1210,75.0,0,15,0.0,0.0
1211,71.0,0,15,0.0,0.0
1212,75.0,240,15,0.0,0.0
1213,44.0,0,15,0.0,0.0
1214,51.0,0,240,0.0,0.0
1215,83.0,0,240,0.0,0.0
1216,70.0,0,240,0.0,0.0
1217,46.0,0,240,0.0,0.0
1218,82.0,240,240,0.0,0.0
1219,73.0,0,240,0.0,0.0
1220,68.0,0,240,0.0,0.0
1221,71.0,0,240,0.0,0.0
1222,47.0,0,240,0.0,0.0
1223,51.0,0,15,0.0,0.0
1224,80.0,0,240,0.0,0.0
1225,49.0,0,240,0.0,0.0
1226,51.0,240,15,0.0,0.0
1227,79.0,0,240,0.0,0.0
1228,70.0,0,240,0.0,0.0
1229,67.0,0,240,0.0,0.0
1230,39.0,240,240,0.0,0.0
1231,79.0,240,240,0.0,0.0
1232,88.0,0,240,0.0,0.0
1233,76.0,0,240,0.0,0.0
1234,61.0,0,240,0.0,0.0
1235,51.0,0,240,0.0,0.0
1236,88.0,0,15,0.0,0.0
1237,76.0,240,15,0.0,0.0
1238,79.0,0,15,0.0,0.0
1239,51.0,0,15,0.0,0.0
1240,61.0,0,15,0.0,0.0
1241,76.0,0,15,0.0,0.0
1242,88.0,0,240,0.0,0.0
1243,79.0,240,15,0.0,0.0
1244,61.0,240,240,0.0,0.0
1245,76.0,0,240,0.0,0.0
1246,88.0,240,240,0.0,0.0
1247,51.0,0,15,0.0,0.0
1248,61.0,0,240,0.0,0.0
1249,75.0,0,240,0.0,0.0
1250,79.0,0,15,0.0,0.0
1251,87.0,0,240,0.0,0.0
1252,59.0,0,240,0.0,0.0
1253,51.0,240,15,0.0,0.0
1254,85.0,0,240,0.0,0.0
1255,79.0,0,240,0.0,0.0
1256,73.0,0,240,0.0,0.0
1257,58.0,240,240,0.0,0.0
1258,83.0,0,240,0.0,0.0
1259,71.0,0,240,0.0,0.0
1260,56.0,0,240,0.0,0.0
1261,44.0,0,240,0.0,0.0
1262,80.0,120,15,0.0,0.0
1263,59.0,0,120,0.0,0.0
1264,63.0,360,120,0.0,0.0
1265,83.0,0,120,0.0,0.0
1266,63.0,0,240,0.0,0.0
1267,80.0,0,240,0.0,0.0
1268,59.0,0,15,0.0,0.0
1269,83.0,240,15,0.0,0.0
1270,87.0,0,240,0.0,0.0
1271,56.0,0,240,0.0,0.0
1272,49.0,240,120,0.0,0.0
1273,80.0,0,120,0.0,0.0
1274,61.0,360,120,0.0,0.0
1275,64.0,0,120,0.0,0.0
1276,85.0,0,120,0.0,0.0
1277,80.0,0,240,0.0,0.0
1278,85.0,0,240,0.0,0.0
1279,64.0,0,240,0.0,0.0
1280,61.0,240,15,0.0,0.0
1281,56.0,0,240,0.0,0.0
1282,88.0,120,240,0.0,0.0
1283,85.0,0,240,0.0,0.0
1284,51.0,240,120,0.0,0.0
1285,83.0,360,120,0.0,0.0
1286,80.0,0,120,0.0,0.0
1287,59.0,0,120,0.0,0.0
1288,63.0,0,120,0.0,0.0
1289,83.0,0,240,0.0,0.0
1290,80.0,0,240,0.0,0.0
1291,59.0,240,240,0.0,0.0
1292,63.0,0,240,0.0,0.0
1293,83.0,0,240,0.0,0.0
1294,56.0,0,240,0.0,0.0
1295,59.0,0,240,0.0,0.0
1296,87.0,120,240,0.0,0.0
1297,49.0,240,120,0.0,0.0
1298,79.0,360,120,0.0,0.0
1299,63.0,0,120,0.0,0.0
1300,82.0,0,120,0.0,0.0
1301,58.0,0,120,0.0,0.0
1302,63.0,0,240,0.0,0.0
1303,79.0,0,240,0.0,0.0
1304,58.0,240,15,0.0,0.0
1305,87.0,0,240,0.0,0.0
1306,82.0,0,15,0.0,0.0
1307,55.0,0,240,0.0,0.0
1308,47.0,120,240,0.0,0.0
1309,75.0,360,120,0.0,0.0
1310,83.0,0,120,0.0,0.0
1311,63.0,0,120,0.0,0.0
1312,68.0,0,120,0.0,0.0
1313,68.0,0,240,0.0,0.0
1314,83.0,240,240,0.0,0.0
1315,75.0,0,240,0.0,0.0
1316,63.0,0,15,0.0,0.0
1317,59.0,0,240,0.0,0.0
1318,80.0,0,240,0.0,0.0
1319,87.0,0,240,0.0,0.0
1320,51.0,120,240,0.0,0.0
1321,69.0,0,120,0.0,0.0
1322,64.0,0,120,0.0,0.0
1323,81.0,0,120,0.0,0.0
1324,73.0,360,120,0.0,0.0
1325,73.0,0,240,0.0,0.0
1326,81.0,240,240,0.0,0.0
1327,69.0,0,240,0.0,0.0
1328,64.0,0,15,0.0,0.0
1329,61.0,0,240,0.0,0.0
1330,76.0,240,240,0.0,0.0
1331,85.0,0,240,0.0,0.0
1332,47.0,120,240,0.0,0.0
1333,68.0,360,120,0.0,0.0
1334,63.0,0,120,0.0,0.0
1335,80.0,0,120,0.0,0.0
1336,71.0,0,120,0.0,0.0
1337,80.0,0,240,0.0,0.0
1338,71.0,0,240,0.0,0.0
1339,63.0,240,240,0.0,0.0
1340,68.0,0,240,0.0,0.0
1341,75.0,0,240,0.0,0.0
1342,63.0,240,240,0.0,0.0
1343,59.0,0,240,0.0,0.0
1344,83.0,0,240,0.0,0.0
1345,51.0,120,240,0.0,0.0
1346,61.0,0,120,0.0,0.0
1347,67.0,0,120,0.0,0.0
1348,79.0,0,120,0.0,0.0
1349,70.0,360,120,0.0,0.0
1350,67.0,0,240,0.0,0.0
1351,79.0,0,240,0.0,0.0
1352,70.0,0,240,0.0,0.0
1353,82.0,140,240,0.0,0.0
1354,73.0,0,240,0.0,0.0
1355,58.0,0,240,0.0,0.0
1356,61.0,240,15,0.0,0.0
1357,80.0,0,480,0.0,0.0
1358,71.0,20,480,0.0,0.0
1359,44.0,120,150,0.0,0.0
1360,56.0,120,150,0.0,0.0
1361,51.0,100,150,0.0,0.0
1362,56.0,120,150,0.0,0.0
1363,44.0,120,150,0.0,0.0
1364,56.0,120,150,0.0,0.0
1365,51.0,120,150,0.0,0.0
1366,56.0,120,150,0.0,0.0
1367,44.0,120,150,0.0,0.0
1368,56.0,120,150,0.0,0.0
1369,51.0,120,150,0.0,0.0
1370,56.0,120,150,0.0,0.0
1371,44.0,120,150,0.0,0.0
1372,71.0,20,360,0.0,0.0
1373,56.0,100,150,0.0,0.0
1374,51.0,40,150,0.0,0.0
1375,56.0,120,150,0.0,0.0
1376,68.0,80,60,0.0,0.0
1377,44.0,120,150,0.0,0.0
1378,58.0,120,150,0.0,0.0
1379,51.0,100,150,0.0,0.0
1380,58.0,120,150,0.0,0.0
1381,75.0,20,360,0.0,0.0
1382,61.0,0,360,0.0,0.0
1383,67.0,20,15,0.0,0.0
1384,44.0,120,150,0.0,0.0
1385,58.0,100,150,0.0,0.0
1386,51.0,120,150,0.0,0.0
1387,58.0,120,150,0.0,0.0
1388,61.0,20,360,0.0,0.0
1389,44.0,120,150,0.0,0.0
1390,75.0,0,360,0.0,0.0
1391,67.0,0,360,0.0,0.0
1392,58.0,100,150,0.0,0.0
1393,51.0,120,150,0.0,0.0
1394,58.0,120,150,0.0,0.0
1395,44.0,120,150,0.0,0.0
1396,67.0,20,360,0.0,0.0
1397,75.0,0,360,0.0,0.0
1398,61.0,0,360,0.0,0.0
1399,58.0,100,150,0.0,0.0
1400,51.0,60,150,0.0,0.0
1401,59.0,60,90,0.0,0.0
1402,58.0,0,150,0.0,0.0
1403,68.0,120,90,0.0,0.0
1404,44.0,120,150,0.0,0.0
1405,75.0,20,1440,0.0,0.0
1406,56.0,120,150,0.0,0.0
1407,51.0,120,150,0.0,0.0
1408,56.0,120,150,0.0,0.0
1409,44.0,120,150,0.0,0.0
1410,56.0,120,150,0.0,0.0
1411,51.0,120,150,0.0,0.0
1412,56.0,120,150,0.0,0.0
1413,44.0,120,150,0.0,0.0
1414,56.0,120,150,0.0,0.0
1415,51.0,100,150,0.0,0.0
1416,56.0,120,150,0.0,0.0
1417,44.0,120,150,0.0,0.0
1418,83.0,20,360,0.0,0.0
1419,56.0,100,150,0.0,0.0
1420,51.0,100,150,0.0,0.0
1421,56.0,120,150,0.0,0.0
1422,80.0,20,120,0.0,0.0
1423,79.0,20,480,0.0,0.0
1424,44.0,120,150,0.0,0.0
1425,58.0,120,150,0.0,0.0
1426,51.0,100,150,0.0,0.0
1427,58.0,120,150,0.0,0.0
1428,44.0,120,150,0.0,0.0
1429,73.0,0,360,0.0,0.0
1430,79.0,0,360,0.0,0.0
1431,87.0,20,360,0.0,0.0
1432,58.0,100,150,0.0,0.0
1433,51.0,120,150,0.0,0.0
1434,58.0,120,150,0.0,0.0
1435,87.0,20,360,0.0,0.0
1436,44.0,120,150,0.0,0.0
1437,73.0,0,360,0.0,0.0
1438,79.0,0,360,0.0,0.0
1439,58.0,100,150,0.0,0.0
1440,51.0,120,150,0.0,0.0
1441,58.0,120,150,0.0,0.0
1442,79.0,0,360,0.0,0.0
1443,73.0,20,360,0.0,0.0
1444,87.0,0,360,0.0,0.0
1445,44.0,120,150,0.0,0.0
1446,58.0,100,150,0.0,0.0
1447,51.0,60,150,0.0,0.0
1448,58.0,120,150,0.0,0.0
1449,68.0,60,90,0.0,0.0
1450,80.0,0,90,0.0,0.0
1451,44.0,120,150,0.0,0.0
1452,87.0,20,840,0.0,0.0
1453,56.0,120,150,0.0,0.0
1454,51.0,120,150,0.0,0.0
1455,56.0,120,150,0.0,0.0
1456,44.0,120,150,0.0,0.0
1457,56.0,100,150,0.0,0.0
1458,51.0,60,150,0.0,0.0
1459,56.0,120,150,0.0,0.0
1460,69.0,60,90,0.0,0.0
1461,79.0,0,90,0.0,0.0
1462,87.0,20,840,0.0,0.0
1463,44.0,120,150,0.0,0.0
1464,58.0,120,150,0.0,0.0
1465,51.0,120,150,0.0,0.0
1466,58.0,120,150,0.0,0.0
1467,44.0,120,150,0.0,0.0
1468,58.0,100,150,0.0,0.0
1469,51.0,60,150,0.0,0.0
1470,58.0,120,150,0.0,0.0
1471,71.0,60,90,0.0,0.0
1472,80.0,0,90,0.0,0.0
1473,44.0,120,150,0.0,0.0
1474,87.0,20,840,0.0,0.0
1475,56.0,120,150,0.0,0.0
1476,51.0,120,150,0.0,0.0
1477,56.0,120,150,0.0,0.0
1478,44.0,120,150,0.0,0.0
1479,56.0,100,150,0.0,0.0
1480,51.0,60,150,0.0,0.0
1481,56.0,0,150,0.0,0.0
1482,69.0,60,90,0.0,0.0
1483,79.0,120,90,0.0,0.0
1484,44.0,120,150,0.0,0.0
1485,87.0,20,960,0.0,0.0
1486,58.0,120,150,0.0,0.0
1487,51.0,120,150,0.0,0.0
1488,58.0,120,150,0.0,0.0
1489,44.0,120,150,0.0,0.0
1490,58.0,120,150,0.0,0.0
1491,51.0,100,150,0.0,0.0
1492,58.0,120,150,0.0,0.0
1493,44.0,120,150,0.0,0.0
1494,59.0,0,150,0.0,0.0
1495,56.0,0,150,0.0,0.0
1496,68.0,120,150,0.0,0.0
1497,63.0,0,150,0.0,0.0
1498,51.0,120,150,0.0,0.0
1499,56.0,120,150,0.0,0.0
1500,68.0,0,150,0.0,0.0
1501,59.0,120,150,0.0,0.0
1502,44.0,0,150,0.0,0.0
1503,56.0,0,150,0.0,0.0
1504,68.0,120,150,0.0,0.0
1505,51.0,0,150,0.0,0.0
1506,63.0,120,150,0.0,0.0
1507,68.0,0,150,0.0,0.0
1508,56.0,120,150,0.0,0.0
1509,59.0,0,150,0.0,0.0
1510,44.0,120,150,0.0,0.0
1511,68.0,120,150,0.0,0.0
1512,56.0,0,150,0.0,0.0
1513,63.0,0,150,0.0,0.0
1514,51.0,120,150,0.0,0.0
1515,56.0,120,150,0.0,0.0
1516,68.0,0,150,0.0,0.0
1517,44.0,0,150,0.0,0.0
1518,59.0,120,150,0.0,0.0
1519,68.0,0,150,0.0,0.0
1520,56.0,120,150,0.0,0.0
1521,63.0,0,150,0.0,0.0
1522,51.0,120,150,0.0,0.0
1523,68.0,120,150,0.0,0.0
1524,56.0,0,150,0.0,0.0
1525,60.0,0,150,0.0,0.0
1526,44.0,120,150,0.0,0.0
1527,66.0,120,150,0.0,0.0
1528,54.0,0,150,0.0,0.0
1529,63.0,120,150,0.0,0.0
1530,51.0,0,150,0.0,0.0
1531,54.0,0,150,0.0,0.0
1532,66.0,120,150,0.0,0.0
1533,44.0,0,150,0.0,0.0
1534,60.0,120,150,0.0,0.0
1535,66.0,0,150,0.0,0.0
1536,54.0,120,150,0.0,0.0
1537,51.0,0,150,0.0,0.0
1538,63.0,120,150,0.0,0.0
1539,54.0,120,150,0.0,0.0
1540,66.0,0,150,0.0,0.0
1541,44.0,0,150,0.0,0.0
1542,60.0,120,150,0.0,0.0
1543,54.0,0,150,0.0,0.0
1544,66.0,120,150,0.0,0.0
1545,51.0,0,150,0.0,0.0
1546,63.0,120,150,0.0,0.0
1547,66.0,0,150,0.0,0.0
1548,54.0,120,150,0.0,0.0
1549,60.0,0,150,0.0,0.0
1550,44.0,120,150,0.0,0.0
1551,54.0,0,150,0.0,0.0
1552,66.0,120,150,0.0,0.0
1553,51.0,120,150,0.0,0.0
1554,63.0,0,150,0.0,0.0
1555,66.0,100,150,0.0,0.0
1556,54.0,0,150,0.0,0.0
1557,37.0,140,120,0.0,0.0
1558,56.0,0,120,0.0,0.0
1559,64.0,0,120,0.0,0.0
1560,61.0,0,120,0.0,0.0
1561,52.0,0,120,0.0,0.0
1562,49.0,120,150,0.0,0.0
1563,44.0,100,20,0.0,0.0
1564,52.0,100,150,0.0,0.0
1565,56.0,120,150,0.0,0.0
1566,37.0,20,120,0.0,0.0
1567,49.0,100,150,0.0,0.0
1568,44.0,20,120,0.0,0.0
1569,52.0,120,150,0.0,0.0
1570,56.0,100,150,0.0,0.0
1571,37.0,20,120,0.0,0.0
1572,61.0,120,150,0.0,0.0
1573,52.0,100,150,0.0,0.0
1574,56.0,120,150,0.0,0.0
1575,44.0,20,120,0.0,0.0
1576,61.0,100,150,0.0,0.0
1577,64.0,120,150,0.0,0.0
1578,37.0,20,120,0.0,0.0
1579,56.0,100,150,0.0,0.0
1580,44.0,20,120,0.0,0.0
1581,61.0,120,150,0.0,0.0
1582,64.0,100,150,0.0,0.0
1583,37.0,20,120,0.0,0.0
1584,68.0,120,150,0.0,0.0
1585,61.0,100,150,0.0,0.0
1586,64.0,120,150,0.0,0.0
1587,44.0,20,120,0.0,0.0
1588,68.0,100,150,0.0,0.0
1589,73.0,120,150,0.0,0.0
1590,37.0,20,120,0.0,0.0
1591,64.0,100,150,0.0,0.0
1592,68.0,120,150,0.0,0.0
1593,44.0,20,120,0.0,0.0
1594,73.0,100,150,0.0,0.0
1595,76.0,120,150,0.0,0.0
1596,37.0,20,120,0.0,0.0
1597,68.0,100,150,0.0,0.0
1598,73.0,100,150,0.0,0.0
1599,44.0,20,120,0.0,0.0
1600,76.0,120,120,0.0,0.0
1601,37.0,240,120,0.0,0.0
1602,49.0,0,120,0.0,0.0
1603,68.0,0,120,0.0,0.0
1604,76.0,0,120,0.0,0.0
1605,80.0,0,120,0.0,0.0
1606,73.0,0,120,0.0,0.0
1607,44.0,0,120,0.0,0.0
1608,68.0,0,120,0.0,0.0
1609,80.0,0,120,0.0,0.0
1610,73.0,240,120,0.0,0.0
1611,76.0,0,120,0.0,0.0
1612,36.0,140,120,0.0,0.0
1613,44.0,100,20,0.0,0.0
1614,48.0,120,150,0.0,0.0
1615,51.0,100,150,0.0,0.0
1616,36.0,20,120,0.0,0.0
1617,56.0,120,150,0.0,0.0
1618,48.0,100,150,0.0,0.0
1619,44.0,20,120,0.0,0.0
1620,51.0,120,150,0.0,0.0
1621,56.0,100,150,0.0,0.0
1622,36.0,20,120,0.0,0.0
1623,60.0,120,150,0.0,0.0
1624,51.0,100,150,0.0,0.0
1625,44.0,20,120,0.0,0.0
1626,56.0,120,150,0.0,0.0
1627,60.0,100,150,0.0,0.0
1628,63.0,120,150,0.0,0.0
1629,36.0,20,120,0.0,0.0
1630,56.0,100,150,0.0,0.0
1631,60.0,120,150,0.0,0.0
1632,44.0,20,120,0.0,0.0
1633,63.0,100,150,0.0,0.0
1634,36.0,20,120,0.0,0.0
1635,68.0,120,150,0.0,0.0
1636,60.0,100,150,0.0,0.0
1637,63.0,120,150,0.0,0.0
1638,44.0,20,120,0.0,0.0
1639,68.0,100,150,0.0,0.0
1640,72.0,120,150,0.0,0.0
1641,36.0,20,120,0.0,0.0
1642,63.0,100,150,0.0,0.0
1643,68.0,120,150,0.0,0.0
1644,44.0,20,120,0.0,0.0
1645,72.0,100,150,0.0,0.0
1646,75.0,120,150,0.0,0.0
1647,36.0,20,120,0.0,0.0
1648,68.0,100,150,0.0,0.0
1649,72.0,100,150,0.0,0.0
1650,44.0,20,120,0.0,0.0
1651,80.0,0,120,0.0,0.0
1652,75.0,120,15,0.0,0.0
1653,36.0,0,120,0.0,0.0
1654,72.0,0,120,0.0,0.0
1655,48.0,0,120,0.0,0.0
1656,68.0,0,120,0.0,0.0
1657,80.0,240,120,0.0,0.0
1658,44.0,0,120,0.0,0.0
1659,68.0,0,120,0.0,0.0
1660,72.0,0,120,0.0,0.0
1661,75.0,0,120,0.0,0.0
1662,35.0,140,120,0.0,0.0
1663,49.0,100,150,0.0,0.0
1664,53.0,120,150,0.0,0.0
1665,44.0,20,120,0.0,0.0
1666,56.0,100,150,0.0,0.0
1667,61.0,120,150,0.0,0.0
1668,35.0,20,120,0.0,0.0
1669,52.0,100,150,0.0,0.0
1670,56.0,120,150,0.0,0.0
1671,44.0,20,120,0.0,0.0
1672,61.0,100,150,0.0,0.0
1673,65.0,120,150,0.0,0.0
1674,35.0,20,120,0.0,0.0
1675,56.0,100,150,0.0,0.0
1676,61.0,120,150,0.0,0.0
1677,44.0,20,120,0.0,0.0
1678,65.0,100,150,0.0,0.0
1679,68.0,120,150,0.0,0.0
1680,35.0,20,120,0.0,0.0
1681,61.0,100,150,0.0,0.0
1682,65.0,120,150,0.0,0.0
1683,44.0,20,120,0.0,0.0
1684,68.0,100,150,0.0,0.0
1685,73.0,120,150,0.0,0.0
1686,35.0,20,120,0.0,0.0
1687,65.0,100,150,0.0,0.0
1688,44.0,20,120,0.0,0.0
1689,68.0,120,150,0.0,0.0
1690,73.0,100,150,0.0,0.0
1691,77.0,120,150,0.0,0.0
1692,35.0,20,120,0.0,0.0
1693,68.0,100,150,0.0,0.0
1694,73.0,120,150,0.0,0.0
1695,44.0,20,120,0.0,0.0
1696,77.0,100,150,0.0,0.0
1697,80.0,120,150,0.0,0.0
1698,35.0,20,120,0.0,0.0
1699,73.0,100,150,0.0,0.0
1700,77.0,100,150,0.0,0.0
1701,44.0,20,120,0.0,0.0
1702,85.0,0,120,0.0,0.0
1703,47.0,0,120,0.0,0.0
1704,35.0,0,120,0.0,0.0
1705,77.0,0,120,0.0,0.0
1706,80.0,120,15,0.0,0.0
1707,73.0,240,120,0.0,0.0
1708,80.0,240,120,0.0,0.0
1709,85.0,0,120,0.0,0.0
1710,44.0,0,120,0.0,0.0
1711,73.0,0,120,0.0,0.0
1712,77.0,0,120,0.0,0.0
1713,33.0,140,120,0.0,0.0
1714,49.0,100,150,0.0,0.0
1715,54.0,120,150,0.0,0.0
1716,45.0,20,120,0.0,0.0
1717,57.0,40,150,0.0,0.0
1718,61.0,60,60,0.0,0.0
1719,33.0,140,120,0.0,0.0
1720,61.0,100,150,0.0,0.0
1721,45.0,20,120,0.0,0.0
1722,66.0,120,150,0.0,0.0
1723,69.0,40,150,0.0,0.0
1724,33.0,140,120,0.0,0.0
1725,73.0,60,60,0.0,0.0
1726,73.0,100,150,0.0,0.0
1727,78.0,120,150,0.0,0.0
1728,45.0,20,120,0.0,0.0
1729,81.0,100,150,0.0,0.0
1730,33.0,240,120,0.0,0.0
1731,85.0,0,120,0.0,0.0
1732,73.0,0,120,0.0,0.0
1733,78.0,0,120,0.0,0.0
1734,45.0,240,120,0.0,0.0
1735,73.0,0,120,0.0,0.0
1736,78.0,0,120,0.0,0.0
1737,85.0,0,120,0.0,0.0
1738,33.0,140,120,0.0,0.0
1739,49.0,100,150,0.0,0.0
1740,52.0,120,150,0.0,0.0
1741,45.0,20,120,0.0,0.0
1742,55.0,40,150,0.0,0.0
1743,33.0,140,120,0.0,0.0
1744,61.0,60,60,0.0,0.0
1745,61.0,100,150,0.0,0.0
1746,45.0,20,120,0.0,0.0
1747,64.0,120,150,0.0,0.0
1748,67.0,40,150,0.0,0.0
1749,33.0,140,120,0.0,0.0
1750,73.0,60,60,0.0,0.0
1751,73.0,100,150,0.0,0.0
1752,76.0,100,150,0.0,0.0
1753,45.0,20,120,0.0,0.0
1754,79.0,120,120,0.0,0.0
1755,79.0,0,120,0.0,0.0
1756,73.0,240,120,0.0,0.0
1757,85.0,0,120,0.0,0.0
1758,33.0,0,120,0.0,0.0
1759,45.0,0,120,0.0,0.0
1760,73.0,360,120,0.0,0.0
1761,79.0,0,120,0.0,0.0
1762,85.0,0,120,0.0,0.0
1763,44.0,0,240,0.0,0.0
1764,72.0,120,240,0.0,0.0
1765,80.0,0,240,0.0,0.0
1766,84.0,0,240,0.0,0.0
1767,32.0,0,240,0.0,0.0
1768,60.0,120,240,0.0,0.0
1769,68.0,120,120,0.0,0.0
1770,80.0,0,120,0.0,0.0
1771,68.0,120,120,0.0,0.0
1772,60.0,120,240,0.0,0.0
1773,80.0,0,120,0.0,0.0
1774,70.0,120,120,0.0,0.0
1775,61.0,0,240,0.0,0.0
1776,80.0,120,120,0.0,0.0
1777,63.0,120,240,0.0,0.0
1778,72.0,120,120,0.0,0.0
1779,80.0,0,120,0.0,0.0
1780,73.0,120,120,0.0,0.0
1781,64.0,120,240,0.0,0.0
1782,80.0,0,120,0.0,0.0
1783,66.0,120,240,0.0,0.0
1784,75.0,120,120,0.0,0.0
1785,80.0,0,120,0.0,0.0
1786,72.0,120,120,0.0,0.0
1787,63.0,0,240,0.0,0.0
1788,80.0,120,120,0.0,0.0
1789,75.0,120,120,0.0,0.0
1790,66.0,0,240,0.0,0.0
1791,80.0,120,120,0.0,0.0
1792,73.0,120,120,0.0,0.0
1793,64.0,120,240,0.0,0.0
1794,80.0,0,120,0.0,0.0
1795,69.0,0,240,0.0,0.0
1796,78.0,120,120,0.0,0.0
1797,80.0,120,120,0.0,0.0
1798,68.0,0,240,0.0,0.0
1799,76.0,120,120,0.0,0.0
1800,80.0,120,120,0.0,0.0
1801,75.0,120,120,0.0,0.0
1802,66.0,0,240,0.0,0.0
1803,80.0,120,120,0.0,0.0
1804,64.0,120,240,0.0,0.0
1805,73.0,120,120,0.0,0.0
1806,80.0,0,120,0.0,0.0
1807,72.0,120,120,0.0,0.0
1808,63.0,120,240,0.0,0.0
1809,80.0,0,120,0.0,0.0
1810,61.0,120,240,0.0,0.0
1811,69.0,120,120,0.0,0.0
1812,79.0,0,120,0.0,0.0
1813,68.0,120,120,0.0,0.0
1814,56.0,0,15,0.0,0.0
1815,60.0,0,240,0.0,0.0
1816,80.0,120,120,0.0,0.0
1817,60.0,120,240,0.0,0.0
1818,68.0,120,120,0.0,0.0
1819,80.0,0,120,0.0,0.0
1820,68.0,120,120,0.0,0.0
1821,60.0,120,240,0.0,0.0
1822,80.0,0,120,0.0,0.0
1823,61.0,0,240,0.0,0.0
1824,70.0,120,120,0.0,0.0
1825,80.0,120,120,0.0,0.0
1826,63.0,120,240,0.0,0.0
1827,72.0,120,120,0.0,0.0
1828,80.0,0,120,0.0,0.0
1829,73.0,120,120,0.0,0.0
1830,64.0,120,240,0.0,0.0
1831,80.0,0,120,0.0,0.0
1832,75.0,120,120,0.0,0.0
1833,66.0,0,240,0.0,0.0
1834,80.0,120,120,0.0,0.0
1835,63.0,120,240,0.0,0.0
1836,72.0,120,120,0.0,0.0
1837,80.0,0,120,0.0,0.0
1838,75.0,120,120,0.0,0.0
1839,66.0,120,240,0.0,0.0
1840,80.0,0,120,0.0,0.0
1841,73.0,120,120,0.0,0.0
1842,64.0,0,240,0.0,0.0
1843,80.0,120,120,0.0,0.0
1844,78.0,120,120,0.0,0.0
1845,69.0,120,240,0.0,0.0
1846,80.0,0,120,0.0,0.0
1847,68.0,0,240,0.0,0.0
1848,76.0,120,120,0.0,0.0
1849,80.0,120,120,0.0,0.0
1850,66.0,0,240,0.0,0.0
1851,75.0,120,120,0.0,0.0
1852,80.0,120,120,0.0,0.0
1853,73.0,120,120,0.0,0.0
1854,64.0,120,240,0.0,0.0
1855,80.0,0,120,0.0,0.0
1856,72.0,120,120,0.0,0.0
1857,63.0,120,240,0.0,0.0
1858,80.0,0,120,0.0,0.0
1859,69.0,120,120,0.0,0.0
1860,61.0,0,240,0.0,0.0
1861,79.0,0,120,0.0,0.0
1862,68.0,0,120,0.0,0.0
1863,56.0,120,120,0.0,0.0
1864,60.0,0,120,0.0,0.0
1865,80.0,120,120,0.0,0.0
1866,69.0,0,120,0.0,0.0
1867,61.0,0,120,0.0,0.0
1868,56.0,120,120,0.0,0.0
1869,79.0,120,120,0.0,0.0
1870,56.0,0,120,0.0,0.0
1871,68.0,0,120,0.0,0.0
1872,60.0,120,120,0.0,0.0
1873,80.0,120,120,0.0,0.0
1874,61.0,0,120,0.0,0.0
1875,69.0,120,120,0.0,0.0
1876,56.0,0,120,0.0,0.0
1877,79.0,120,120,0.0,0.0
1878,56.0,120,120,0.0,0.0
1879,68.0,0,120,0.0,0.0
1880,60.0,0,120,0.0,0.0
1881,80.0,120,120,0.0,0.0
1882,61.0,0,120,0.0,0.0
1883,56.0,120,120,0.0,0.0
1884,69.0,0,120,0.0,0.0
1885,79.0,120,120,0.0,0.0
1886,68.0,120,120,0.0,0.0
1887,60.0,0,120,0.0,0.0
1888,56.0,0,120,0.0,0.0
1889,80.0,120,120,0.0,0.0
1890,61.0,120,120,0.0,0.0
1891,56.0,0,120,0.0,0.0
1892,69.0,0,120,0.0,0.0
1893,79.0,240,120,0.0,0.0
1894,56.0,1680,240,0.0,0.0
1895,80.0,0,240,0.0,0.0
1896,60.0,0,240,0.0,0.0
1897,68.0,0,240,0.0,0.0
1898,44.0,120,1440,0.0,0.0
1899,32.0,0,1440,0.0,0.0
1900,56.0,0,1440,0.0,0.0
1901,37.0,140,120,0.0,0.0
1902,49.0,120,150,0.0,0.0
1903,44.0,100,20,0.0,0.0
1904,52.0,100,150,0.0,0.0
1905,56.0,120,150,0.0,0.0
1906,37.0,20,120,0.0,0.0
1907,49.0,100,150,0.0,0.0
1908,44.0,20,120,0.0,0.0
1909,52.0,120,150,0.0,0.0
1910,56.0,100,150,0.0,0.0
1911,37.0,20,120,0.0,0.0
1912,61.0,120,150,0.0,0.0
1913,52.0,100,150,0.0,0.0
1914,44.0,20,120,0.0,0.0
1915,56.0,120,150,0.0,0.0
1916,61.0,100,150,0.0,0.0
1917,37.0,20,120,0.0,0.0
1918,64.0,120,150,0.0,0.0
1919,56.0,100,150,0.0,0.0
1920,61.0,120,150,0.0,0.0
1921,44.0,20,120,0.0,0.0
1922,64.0,120,150,0.0,0.0
1923,37.0,20,240,0.0,0.0
1924,68.0,100,150,0.0,0.0
1925,61.0,120,150,0.0,0.0
1926,44.0,20,240,0.0,0.0
1927,64.0,100,150,0.0,0.0
1928,68.0,120,150,0.0,0.0
1929,73.0,100,150,0.0,0.0
1930,37.0,20,240,0.0,0.0
1931,64.0,120,150,0.0,0.0
1932,68.0,100,150,0.0,0.0
1933,44.0,20,240,0.0,0.0
1934,73.0,120,150,0.0,0.0
1935,37.0,20,240,0.0,0.0
1936,76.0,100,20,0.0,0.0
1937,80.0,100,150,0.0,0.0
1938,44.0,0,240,0.0,0.0
1939,85.0,120,120,0.0,0.0
1940,76.0,0,120,0.0,0.0
1941,37.0,0,240,0.0,0.0
1942,49.0,120,240,0.0,0.0
1943,88.0,120,120,0.0,0.0
1944,76.0,0,120,0.0,0.0
1945,88.0,240,120,0.0,0.0
1946,44.0,0,120,0.0,0.0
1947,34.0,140,120,0.0,0.0
1948,52.0,100,150,0.0,0.0
1949,49.0,20,120,0.0,0.0
1950,55.0,120,150,0.0,0.0
1951,61.0,100,150,0.0,0.0
1952,64.0,120,150,0.0,0.0
1953,46.0,20,120,0.0,0.0
1954,54.0,100,150,0.0,0.0
1955,49.0,20,120,0.0,0.0
1956,61.0,120,150,0.0,0.0
1957,64.0,100,150,0.0,0.0
1958,67.0,120,150,0.0,0.0
1959,46.0,20,120,0.0,0.0
1960,61.0,100,150,0.0,0.0
1961,64.0,120,150,0.0,0.0
1962,49.0,20,120,0.0,0.0
1963,66.0,100,150,0.0,0.0
1964,46.0,20,120,0.0,0.0
1965,73.0,120,150,0.0,0.0
1966,64.0,100,150,0.0,0.0
1967,66.0,120,150,0.0,0.0
1968,49.0,20,120,0.0,0.0
1969,73.0,100,150,0.0,0.0
1970,76.0,120,150,0.0,0.0
1971,46.0,20,120,0.0,0.0
1972,67.0,100,150,0.0,0.0
1973,49.0,20,120,0.0,0.0
1974,73.0,120,150,0.0,0.0
1975,76.0,100,150,0.0,0.0
1976,46.0,20,120,0.0,0.0
1977,79.0,120,150,0.0,0.0
1978,73.0,100,150,0.0,0.0
1979,76.0,120,150,0.0,0.0
1980,49.0,20,120,0.0,0.0
1981,78.0,100,150,0.0,0.0
1982,46.0,20,120,0.0,0.0
1983,85.0,120,150,0.0,0.0
1984,76.0,100,150,0.0,0.0
1985,78.0,100,150,0.0,0.0
1986,49.0,20,120,0.0,0.0
1987,85.0,120,120,0.0,0.0
1988,46.0,0,120,0.0,0.0
1989,34.0,0,120,0.0,0.0
1990,76.0,240,120,0.0,0.0
1991,88.0,0,120,0.0,0.0
1992,49.0,0,120,0.0,0.0
1993,76.0,360,120,0.0,0.0
1994,88.0,0,120,0.0,0.0
1995,31.0,20,240,0.0,0.0
1996,58.0,100,150,0.0,0.0
1997,51.0,120,20,0.0,0.0
1998,61.0,120,150,0.0,0.0
1999,43.0,20,240,0.0,0.0
2000,63.0,100,150,0.0,0.0
2001,58.0,120,150,0.0,0.0
2002,61.0,100,150,0.0,0.0
2003,51.0,20,240,0.0,0.0
2004,63.0,120,150,0.0,0.0
2005,70.0,100,150,0.0,0.0
2006,43.0,20,240,0.0,0.0
2007,61.0,120,150,0.0,0.0
2008,63.0,100,150,0.0,0.0
2009,51.0,20,240,0.0,0.0
2010,70.0,120,150,0.0,0.0
2011,73.0,100,150,0.0,0.0
2012,43.0,20,240,0.0,0.0
2013,63.0,120,150,0.0,0.0
2014,51.0,20,240,0.0,0.0
2015,70.0,100,150,0.0,0.0
2016,73.0,100,150,0.0,0.0
2017,43.0,20,120,0.0,0.0
2018,75.0,120,150,0.0,0.0
2019,70.0,100,150,0.0,0.0
2020,51.0,20,120,0.0,0.0
2021,73.0,120,150,0.0,0.0
2022,75.0,100,150,0.0,0.0
2023,82.0,120,150,0.0,0.0
2024,43.0,20,120,0.0,0.0
2025,73.0,100,150,0.0,0.0
2026,51.0,20,120,0.0,0.0
2027,75.0,120,150,0.0,0.0
2028,82.0,100,150,0.0,0.0
2029,85.0,120,150,0.0,0.0
2030,43.0,20,120,0.0,0.0
2031,82.0,100,150,0.0,0.0
2032,51.0,20,120,0.0,0.0
2033,75.0,120,150,0.0,0.0
2034,73.0,100,150,0.0,0.0
2035,82.0,120,150,0.0,0.0
2036,43.0,20,120,0.0,0.0
2037,75.0,100,150,0.0,0.0
2038,73.0,120,150,0.0,0.0
2039,51.0,20,120,0.0,0.0
2040,70.0,120,150,0.0,0.0
2041,71.0,20,240,0.0,0.0
2042,44.0,100,150,0.0,0.0
2043,51.0,120,150,0.0,0.0
2044,47.0,120,150,0.0,0.0
2045,51.0,120,150,0.0,0.0
2046,44.0,120,150,0.0,0.0
2047,75.0,120,990,0.0,0.0
2048,51.0,120,150,0.0,0.0
2049,47.0,120,150,0.0,0.0
2050,51.0,120,150,0.0,0.0
2051,44.0,120,150,0.0,0.0
2052,51.0,120,150,0.0,0.0
2053,47.0,120,150,0.0,0.0
2054,51.0,0,150,0.0,0.0
2055,71.0,20,360,0.0,0.0
2056,44.0,120,150,0.0,0.0
2057,51.0,100,150,0.0,0.0
2058,47.0,40,150,0.0,0.0
2059,51.0,120,150,0.0,0.0
2060,68.0,20,60,0.0,0.0
2061,67.0,20,20,0.0,0.0
2062,68.0,20,20,0.0,0.0
2063,70.0,20,20,0.0,0.0
2064,46.0,120,150,0.0,0.0
2065,68.0,0,510,0.0,0.0
2066,51.0,120,150,0.0,0.0
2067,49.0,120,150,0.0,0.0
2068,51.0,120,150,0.0,0.0
2069,46.0,120,150,0.0,0.0
2070,67.0,20,720,0.0,0.0
2071,51.0,120,150,0.0,0.0
2072,49.0,120,150,0.0,0.0
2073,51.0,120,150,0.0,0.0
2074,46.0,100,150,0.0,0.0
2075,51.0,120,150,0.0,0.0
2076,67.0,0,270,0.0,0.0
2077,49.0,120,150,0.0,0.0
2078,51.0,120,150,0.0,0.0
2079,46.0,120,150,0.0,0.0
2080,75.0,20,360,0.0,0.0
2081,51.0,100,150,0.0,0.0
2082,49.0,40,150,0.0,0.0
2083,67.0,80,60,0.0,0.0
2084,51.0,120,150,0.0,0.0
2085,70.0,0,510,0.0,0.0
2086,47.0,120,150,0.0,0.0
2087,51.0,120,150,0.0,0.0
2088,47.0,120,150,0.0,0.0
2089,51.0,120,150,0.0,0.0
2090,68.0,20,720,0.0,0.0
2091,47.0,120,150,0.0,0.0
2092,51.0,120,150,0.0,0.0
2093,47.0,120,150,0.0,0.0
2094,51.0,120,150,0.0,0.0
2095,47.0,100,150,0.0,0.0
2096,51.0,120,150,0.0,0.0
2097,68.0,120,270,0.0,0.0
2098,47.0,120,150,0.0,0.0
2099,51.0,0,150,0.0,0.0
2100,75.0,120,390,0.0,0.0
2101,47.0,120,150,0.0,0.0
2102,51.0,120,150,0.0,0.0
2103,47.0,0,150,0.0,0.0
2104,68.0,120,150,0.0,0.0
2105,51.0,0,150,0.0,0.0
2106,43.0,120,150,0.0,0.0
2107,71.0,120,510,0.0,0.0
2108,51.0,120,150,0.0,0.0
2109,43.0,120,150,0.0,0.0
2110,51.0,0,150,0.0,0.0
2111,43.0,120,150,0.0,0.0
2112,70.0,20,720,0.0,0.0
2113,51.0,120,150,0.0,0.0
2114,43.0,120,150,0.0,0.0
2115,51.0,120,150,0.0,0.0
2116,43.0,100,150,0.0,0.0
2117,51.0,120,150,0.0,0.0
2118,70.0,120,270,0.0,0.0
2119,43.0,120,150,0.0,0.0
2120,51.0,0,150,0.0,0.0
2121,75.0,20,360,0.0,0.0
2122,43.0,120,150,0.0,0.0
2123,51.0,100,150,0.0,0.0
2124,43.0,120,150,0.0,0.0
2125,70.0,120,150,0.0,0.0
2126,51.0,0,150,0.0,0.0
2127,44.0,100,150,0.0,0.0
2128,71.0,20,240,0.0,0.0
2129,51.0,120,150,0.0,0.0
2130,47.0,120,150,0.0,0.0
2131,75.0,0,480,0.0,0.0
2132,87.0,20,480,0.0,0.0
2133,51.0,120,150,0.0,0.0
2134,44.0,100,150,0.0,0.0
2135,51.0,120,150,0.0,0.0
2136,47.0,120,150,0.0,0.0
2137,75.0,0,480,0.0,0.0
2138,87.0,20,480,0.0,0.0
2139,51.0,120,150,0.0,0.0
2140,44.0,100,150,0.0,0.0
2141,51.0,100,150,0.0,0.0
2142,87.0,20,120,0.0,0.0
2143,75.0,0,120,0.0,0.0
2144,47.0,120,150,0.0,0.0
2145,51.0,100,150,0.0,0.0
2146,71.0,20,120,0.0,0.0
2147,83.0,0,120,0.0,0.0
2148,44.0,120,150,0.0,0.0
2149,51.0,100,150,0.0,0.0
2150,47.0,120,150,0.0,0.0
2151,80.0,20,120,0.0,0.0
2152,68.0,0,120,0.0,0.0
2153,51.0,100,150,0.0,0.0
2154,80.0,0,120,0.0,0.0
2155,68.0,20,120,0.0,0.0
2156,46.0,120,150,0.0,0.0
2157,51.0,120,150,0.0,0.0
2158,49.0,120,150,0.0,0.0
2159,67.0,20,480,0.0,0.0
2160,51.0,120,150,0.0,0.0
2161,46.0,100,150,0.0,0.0
2162,51.0,120,150,0.0,0.0
2163,79.0,0,15,0.0,0.0
2164,49.0,120,150,0.0,0.0
2165,51.0,120,150,0.0,0.0
2166,46.0,100,150,0.0,0.0
2167,51.0,100,150,0.0,0.0
2168,49.0,120,150,0.0,0.0
2169,67.0,0,15,0.0,0.0
2170,79.0,0,120,0.0,0.0
2171,51.0,100,150,0.0,0.0
2172,46.0,120,150,0.0,0.0
2173,75.0,20,120,0.0,0.0
2174,87.0,0,120,0.0,0.0
2175,51.0,100,150,0.0,0.0
2176,79.0,20,120,0.0,0.0
2177,67.0,0,120,0.0,0.0
2178,49.0,120,150,0.0,0.0
2179,51.0,100,150,0.0,0.0
2180,82.0,0,120,0.0,0.0
2181,70.0,20,120,0.0,0.0
2182,47.0,120,150,0.0,0.0
2183,51.0,120,150,0.0,0.0
2184,47.0,120,150,0.0,0.0
2185,51.0,120,150,0.0,0.0
2186,47.0,100,150,0.0,0.0
2187,51.0,120,150,0.0,0.0
2188,47.0,120,150,0.0,0.0
2189,80.0,20,15,0.0,0.0
2190,68.0,0,15,0.0,0.0
2191,51.0,120,150,0.0,0.0
2192,47.0,100,150,0.0,0.0
2193,51.0,100,150,0.0,0.0
2194,47.0,120,150,0.0,0.0
2195,68.0,0,15,0.0,0.0
2196,80.0,0,120,0.0,0.0
2197,51.0,100,150,0.0,0.0
2198,75.0,20,120,0.0,0.0
2199,87.0,0,120,0.0,0.0
2200,47.0,120,150,0.0,0.0
2201,51.0,100,150,0.0,0.0
2202,68.0,0,120,0.0,0.0
2203,80.0,20,120,0.0,0.0
2204,47.0,120,150,0.0,0.0
2205,51.0,100,150,0.0,0.0
2206,71.0,20,120,0.0,0.0
2207,83.0,0,120,0.0,0.0
2208,43.0,120,150,0.0,0.0
2209,51.0,120,150,0.0,0.0
2210,43.0,120,150,0.0,0.0
2211,70.0,20,480,0.0,0.0
2212,82.0,0,480,0.0,0.0
2213,51.0,120,150,0.0,0.0
2214,43.0,100,150,0.0,0.0
2215,51.0,120,150,0.0,0.0
2216,43.0,120,150,0.0,0.0
2217,70.0,0,480,0.0,0.0
2218,51.0,120,150,0.0,0.0
2219,43.0,100,150,0.0,0.0
2220,51.0,100,150,0.0,0.0
2221,43.0,120,150,0.0,0.0
2222,82.0,20,15,0.0,0.0
2223,70.0,0,120,0.0,0.0
2224,51.0,100,150,0.0,0.0
2225,87.0,20,120,0.0,0.0
2226,43.0,120,150,0.0,0.0
2227,75.0,0,120,0.0,0.0
2228,51.0,100,150,0.0,0.0
2229,43.0,120,150,0.0,0.0
2230,70.0,20,120,0.0,0.0
2231,82.0,0,120,0.0,0.0
2232,51.0,120,150,0.0,0.0
2233,42.0,120,150,0.0,0.0
2234,84.0,0,960,0.0,0.0
2235,72.0,20,960,0.0,0.0
2236,51.0,120,150,0.0,0.0
2237,44.0,120,150,0.0,0.0
2238,51.0,120,150,0.0,0.0
2239,42.0,120,150,0.0,0.0
2240,51.0,120,150,0.0,0.0
2241,44.0,100,150,0.0,0.0
2242,51.0,120,150,0.0,0.0
2243,40.0,120,150,0.0,0.0
2244,85.0,20,960,0.0,0.0
2245,73.0,0,960,0.0,0.0
2246,49.0,120,150,0.0,0.0
2247,44.0,120,150,0.0,0.0
2248,49.0,120,150,0.0,0.0
2249,40.0,120,150,0.0,0.0
2250,49.0,120,150,0.0,0.0
2251,44.0,100,150,0.0,0.0
2252,49.0,55,150,0.0,0.0
2253,40.0,10,150,0.0,0.0
2254,82.0,65,60,0.0,0.0
2255,70.0,0,480,0.0,0.0
2256,83.0,75,60,0.0,0.0
2257,49.0,40,150,0.0,0.0
2258,82.0,35,60,0.0,0.0
2259,83.0,80,60,0.0,0.0
2260,42.0,10,150,0.0,0.0
2261,80.0,90,90,0.0,0.0
2262,49.0,120,150,0.0,0.0
2263,82.0,20,90,0.0,0.0
2264,39.0,120,150,0.0,0.0
2265,83.0,0,1440,0.0,0.0
2266,71.0,20,1440,0.0,0.0
2267,47.0,120,150,0.0,0.0
2268,42.0,120,150,0.0,0.0
2269,47.0,120,150,0.0,0.0
2270,39.0,120,150,0.0,0.0
2271,47.0,120,150,0.0,0.0
2272,42.0,120,150,0.0,0.0
2273,47.0,120,150,0.0,0.0
2274,39.0,120,150,0.0,0.0
2275,47.0,120,150,0.0,0.0
2276,42.0,100,150,0.0,0.0
2277,47.0,120,150,0.0,0.0
2278,68.0,0,960,0.0,0.0
2279,38.0,120,150,0.0,0.0
2280,80.0,20,960,0.0,0.0
2281,47.0,120,150,0.0,0.0
2282,40.0,120,150,0.0,0.0
2283,47.0,120,150,0.0,0.0
2284,38.0,120,150,0.0,0.0
2285,47.0,120,150,0.0,0.0
2286,40.0,100,150,0.0,0.0
2287,47.0,120,150,0.0,0.0
2288,81.0,20,960,0.0,0.0
2289,69.0,0,960,0.0,0.0
2290,37.0,120,150,0.0,0.0
2291,45.0,120,150,0.0,0.0
2292,40.0,120,150,0.0,0.0
2293,45.0,120,150,0.0,0.0
2294,37.0,120,150,0.0,0.0
2295,45.0,120,150,0.0,0.0
2296,40.0,100,150,0.0,0.0
2297,45.0,55,150,0.0,0.0
2298,67.0,20,480,0.0,0.0
2299,79.0,65,60,0.0,0.0
2300,37.0,10,150,0.0,0.0
2301,80.0,75,60,0.0,0.0
2302,46.0,40,150,0.0,0.0
2303,79.0,35,60,0.0,0.0
2304,80.0,80,60,0.0,0.0
2305,39.0,10,150,0.0,0.0
2306,77.0,90,90,0.0,0.0
2307,46.0,120,150,0.0,0.0
2308,78.0,0,90,0.0,0.0
2309,35.0,120,150,0.0,0.0
2310,80.0,0,1440,0.0,0.0
2311,68.0,1080,1440,0.0,0.0
2312,44.0,120,150,0.0,0.0
2313,39.0,120,150,0.0,0.0
2314,44.0,120,150,0.0,0.0
2315,35.0,120,150,0.0,0.0
2316,44.0,120,150,0.0,0.0
2317,39.0,120,150,0.0,0.0
2318,44.0,120,150,0.0,0.0
2319,35.0,120,150,0.0,0.0
2320,44.0,120,150,0.0,0.0
2321,37.0,100,150,0.0,0.0
2322,44.0,0,120,0.0,0.0
2323,45.0,0,1440,0.0,0.0
2324,49.0,0,1440,0.0,0.0
2325,40.0,120,1440,0.0,0.0
2326,69.0,120,1080,0.0,0.0
2327,73.0,0,1080,0.0,0.0
2328,81.0,0,1080,0.0,0.0
2329,76.0,0,1080,0.0,0.0
2330,37.0,0,1440,0.0,0.0
2331,76.0,120,120,0.0,0.0
2332,78.0,120,120,0.0,0.0
2333,80.0,0,120,0.0,0.0
2334,81.0,120,120,0.0,0.0
2335,83.0,120,120,0.0,0.0
2336,85.0,120,120,0.0,0.0
2337,83.0,120,120,0.0,0.0
2338,64.0,0,480,0.0,0.0
2339,81.0,120,120,0.0,0.0
2340,69.0,4,480,0.0,0.0
2341,61.0,120,480,0.0,0.0
2342,76.0,120,120,0.0,0.0
2343,78.0,116,120,0.0,0.0
2344,80.0,0,120,0.0,0.0
2345,81.0,120,120,0.0,0.0
2346,83.0,120,120,0.0,0.0
2347,85.0,120,120,0.0,0.0
2348,83.0,120,120,0.0,0.0
2349,61.0,120,480,0.0,0.0
2350,69.0,0,480,0.0,0.0
2351,64.0,0,480,0.0,0.0
2352,81.0,120,120,0.0,0.0
2353,76.0,120,120,0.0,0.0
2354,78.0,120,120,0.0,0.0
2355,80.0,0,120,0.0,0.0
2356,81.0,120,120,0.0,0.0
2357,83.0,120,120,0.0,0.0
2358,85.0,120,120,0.0,0.0
2359,83.0,120,120,0.0,0.0
2360,61.0,0,480,0.0,0.0
2361,81.0,120,120,0.0,0.0
2362,69.0,0,480,0.0,0.0
2363,76.0,120,120,0.0,0.0
2364,78.0,120,120,0.0,0.0
2365,80.0,120,120,0.0,0.0
2366,81.0,120,120,0.0,0.0
2367,64.0,0,15,0.0,0.0
2368,83.0,120,120,0.0,0.0
2369,85.0,120,120,0.0,0.0
2370,86.0,120,120,0.0,0.0
2371,61.0,0,15,0.0,0.0
2372,64.0,0,15,0.0,0.0
2373,69.0,0,15,0.0,0.0
2374,88.0,120,120,0.0,0.0
2375,87.0,120,120,0.0,0.0
2376,88.0,120,120,0.0,0.0
2377,87.0,120,120,0.0,0.0
2378,88.0,120,120,0.0,0.0
2379,69.0,0,480,0.0,0.0
2380,61.0,0,480,0.0,0.0
2381,64.0,120,480,0.0,0.0
2382,85.0,120,120,0.0,0.0
2383,83.0,120,120,0.0,0.0
2384,81.0,0,120,0.0,0.0
2385,80.0,0,960,0.0,0.0
2386,63.0,120,120,0.0,0.0
2387,71.0,120,120,0.0,0.0
2388,68.0,120,120,0.0,0.0
2389,71.0,120,120,0.0,0.0
2390,63.0,120,120,0.0,0.0
2391,71.0,120,120,0.0,0.0
2392,68.0,120,120,0.0,0.0
2393,71.0,80,120,0.0,0.0
2394,63.0,40,120,0.0,0.0
2395,82.0,40,90,0.0,0.0
2396,83.0,75,90,0.0,0.0
2397,73.0,70,120,0.0,0.0
2398,82.0,5,60,0.0,0.0
2399,83.0,50,60,0.0,0.0
2400,67.0,25,120,0.0,0.0
2401,82.0,75,60,0.0,0.0
2402,73.0,50,120,0.0,0.0
2403,83.0,20,60,0.0,0.0
2404,82.0,70,60,0.0,0.0
2405,63.0,0,120,0.0,0.0
2406,83.0,60,60,0.0,0.0
2407,73.0,60,120,0.0,0.0
2408,82.0,60,60,0.0,0.0
2409,83.0,0,60,0.0,0.0
2410,82.0,60,60,0.0,0.0
2411,67.0,60,120,0.0,0.0
2412,83.0,0,60,0.0,0.0
2413,82.0,60,60,0.0,0.0
2414,73.0,240,120,0.0,0.0
2415,83.0,0,60,0.0,0.0
2416,80.0,0,240,0.0,0.0
2417,71.0,840,240,0.0,0.0
2418,64.0,0,240,0.0,0.0
2419,68.0,0,240,0.0,0.0
2420,37.0,0,960,0.0,0.0
2421,61.0,120,600,0.0,0.0
2422,57.0,0,600,0.0,0.0
2423,69.0,0,600,0.0,0.0
2424,49.0,0,960,0.0,0.0
2425,45.0,0,960,0.0,0.0
2426,40.0,0,960,0.0,0.0
2427,64.0,0,15,0.0,0.0
2428,66.0,120,120,0.0,0.0
2429,68.0,120,120,0.0,0.0
2430,69.0,120,120,0.0,0.0
2431,71.0,120,120,0.0,0.0
2432,73.0,120,120,0.0,0.0
2433,71.0,120,120,0.0,0.0
2434,69.0,120,120,0.0,0.0
2435,64.0,120,120,0.0,0.0
2436,66.0,120,120,0.0,0.0
2437,68.0,120,120,0.0,0.0
2438,69.0,120,120,0.0,0.0
2439,57.0,120,480,0.0,0.0
2440,49.0,0,480,0.0,0.0
2441,52.0,0,480,0.0,0.0
2442,71.0,120,120,0.0,0.0
2443,73.0,120,120,0.0,0.0
2444,71.0,0,120,0.0,0.0
2445,69.0,120,120,0.0,0.0
2446,64.0,120,120,0.0,0.0
2447,66.0,120,120,0.0,0.0
2448,68.0,120,120,0.0,0.0
2449,52.0,0,480,0.0,0.0
2450,49.0,0,480,0.0,0.0
2451,69.0,120,120,0.0,0.0
2452,57.0,120,480,0.0,0.0
2453,71.0,120,120,0.0,0.0
2454,73.0,120,120,0.0,0.0
2455,71.0,0,120,0.0,0.0
2456,69.0,120,120,0.0,0.0
2457,64.0,120,120,0.0,0.0
2458,66.0,120,120,0.0,0.0
2459,52.0,0,240,0.0,0.0
2460,57.0,0,240,0.0,0.0
2461,49.0,120,240,0.0,0.0
2462,68.0,0,120,0.0,0.0
2463,69.0,120,120,0.0,0.0
2464,71.0,120,120,0.0,0.0
2465,52.0,0,240,0.0,0.0
2466,57.0,0,240,0.0,0.0
2467,73.0,120,120,0.0,0.0
2468,49.0,120,240,0.0,0.0
2469,71.0,0,120,0.0,0.0
2470,69.0,120,120,0.0,0.0
2471,64.0,120,120,0.0,0.0
2472,57.0,0,240,0.0,0.0
2473,49.0,0,240,0.0,0.0
2474,66.0,120,120,0.0,0.0
2475,52.0,0,240,0.0,0.0
2476,68.0,120,120,0.0,0.0
2477,69.0,120,120,0.0,0.0
2478,71.0,120,120,0.0,0.0
2479,73.0,120,120,0.0,0.0
2480,71.0,0,120,0.0,0.0
2481,69.0,120,120,0.0,0.0
2482,57.0,0,15,0.0,0.0
2483,52.0,0,15,0.0,0.0
2484,49.0,120,15,0.0,0.0
2485,64.0,120,120,0.0,0.0
2486,66.0,120,120,0.0,0.0
2487,68.0,0,120,0.0,0.0
2488,69.0,120,120,0.0,0.0
2489,71.0,120,120,0.0,0.0
2490,73.0,120,120,0.0,0.0
2491,74.0,120,120,0.0,0.0
2492,76.0,120,120,0.0,0.0
2493,78.0,120,120,0.0,0.0
2494,80.0,120,120,0.0,0.0
2495,81.0,120,120,0.0,0.0
2496,83.0,120,120,0.0,0.0
2497,85.0,120,120,0.0,0.0
2498,86.0,120,120,0.0,0.0
2499,87.0,140,120,0.0,0.0
2500,76.0,0,960,0.0,0.0
2501,49.0,120,150,0.0,0.0
2502,88.0,20,960,0.0,0.0
2503,57.0,120,150,0.0,0.0
2504,52.0,120,150,0.0,0.0
2505,57.0,120,150,0.0,0.0
2506,49.0,120,150,0.0,0.0
2507,57.0,120,150,0.0,0.0
2508,52.0,100,150,0.0,0.0
2509,57.0,120,150,0.0,0.0
2510,50.0,120,150,0.0,0.0
2511,68.0,0,960,0.0,0.0
2512,80.0,20,960,0.0,0.0
2513,59.0,120,150,0.0,0.0
2514,53.0,120,150,0.0,0.0
2515,59.0,120,150,0.0,0.0
2516,50.0,120,150,0.0,0.0
2517,59.0,120,150,0.0,0.0
2518,53.0,100,150,0.0,0.0
2519,59.0,120,150,0.0,0.0
2520,71.0,0,960,0.0,0.0
2521,83.0,20,960,0.0,0.0
2522,51.0,120,150,0.0,0.0
2523,59.0,120,150,0.0,0.0
2524,56.0,120,150,0.0,0.0
2525,59.0,120,150,0.0,0.0
2526,51.0,120,150,0.0,0.0
2527,59.0,120,150,0.0,0.0
2528,56.0,100,150,0.0,0.0
2529,59.0,120,150,0.0,0.0
2530,55.0,0,960,0.0,0.0
2531,61.0,240,960,0.0,0.0
2532,39.0,120,150,0.0,0.0
2533,67.0,0,960,0.0,0.0
2534,51.0,120,150,0.0,0.0
2535,50.0,120,150,0.0,0.0
2536,51.0,120,150,0.0,0.0
2537,39.0,120,150,0.0,0.0
2538,51.0,120,150,0.0,0.0
2539,50.0,100,150,0.0,0.0
2540,51.0,0,120,0.0,0.0
2541,44.0,0,240,0.0,0.0
2542,68.0,0,240,0.0,0.0
2543,59.0,0,240,0.0,0.0
2544,63.0,120,240,0.0,0.0
2545,71.0,240,120,0.0,0.0
2546,63.0,0,120,0.0,0.0
2547,71.0,240,120,0.0,0.0
2548,56.0,0,120,0.0,0.0
2549,63.0,0,120,0.0,0.0
2550,63.0,0,120,0.0,0.0
2551,56.0,240,120,0.0,0.0
2552,71.0,0,120,0.0,0.0
2553,56.0,0,120,0.0,0.0
2554,71.0,240,120,0.0,0.0
2555,63.0,0,120,0.0,0.0
2556,63.0,0,120,0.0,0.0
2557,56.0,240,120,0.0,0.0
2558,71.0,0,120,0.0,0.0
2559,63.0,240,120,0.0,0.0
2560,70.0,0,120,0.0,0.0
2561,58.0,0,120,0.0,0.0
2562,59.0,0,120,0.0,0.0
2563,68.0,360,120,0.0,0.0
2564,63.0,0,120,0.0,0.0
2565,67.0,0,240,0.0,0.0
2566,49.0,0,240,0.0,0.0
2567,61.0,0,240,0.0,0.0
2568,61.0,240,240,0.0,0.0
2569,63.0,240,15,0.0,0.0
2570,67.0,0,240,0.0,0.0
2571,75.0,0,240,0.0,0.0
2572,75.0,0,240,0.0,0.0
2573,61.0,0,240,0.0,0.0
2574,63.0,0,240,0.0,0.0
2575,67.0,240,15,0.0,0.0
2576,61.0,240,240,0.0,0.0
2577,63.0,0,240,0.0,0.0
2578,67.0,0,240,0.0,0.0
2579,75.0,0,15,0.0,0.0
2580,63.0,0,240,0.0,0.0
2581,67.0,0,240,0.0,0.0
2582,75.0,0,15,0.0,0.0
2583,63.0,240,240,0.0,0.0
2584,61.0,240,15,0.0,0.0
2585,68.0,0,240,0.0,0.0
2586,75.0,0,15,0.0,0.0
2587,63.0,0,240,0.0,0.0
2588,59.0,240,240,0.0,0.0
2589,75.0,0,15,0.0,0.0
2590,70.0,0,240,0.0,0.0
2591,63.0,0,240,0.0,0.0
2592,58.0,0,240,0.0,0.0
2593,56.0,0,240,0.0,0.0
2594,75.0,240,15,0.0,0.0
2595,44.0,240,240,0.0,0.0
2596,71.0,0,240,0.0,0.0
2597,63.0,0,240,0.0,0.0
2598,56.0,240,15,0.0,0.0
2599,71.0,0,15,0.0,0.0
2600,63.0,0,15,0.0,0.0
2601,71.0,240,15,0.0,0.0
2602,56.0,240,15,0.0,0.0
2603,71.0,0,15,0.0,0.0
2604,71.0,0,15,0.0,0.0
2605,63.0,240,15,0.0,0.0
2606,56.0,0,240,0.0,0.0
2607,58.0,240,240,0.0,0.0
2608,70.0,0,240,0.0,0.0
2609,63.0,240,15,0.0,0.0
2610,63.0,0,15,0.0,0.0
2611,68.0,240,240,0.0,0.0
2612,59.0,0,240,0.0,0.0
2613,61.0,0,240,0.0,0.0
2614,51.0,240,240,0.0,0.0
2615,63.0,0,240,0.0,0.0
2616,67.0,0,240,0.0,0.0
2617,75.0,0,240,0.0,0.0
2618,61.0,0,240,0.0,0.0
2619,67.0,0,240,0.0,0.0
2620,63.0,240,15,0.0,0.0
2621,75.0,0,15,0.0,0.0
2622,67.0,240,15,0.0,0.0
2623,63.0,0,15,0.0,0.0
2624,61.0,0,15,0.0,0.0
2625,75.0,0,15,0.0,0.0
2626,67.0,0,240,0.0,0.0
2627,63.0,240,15,0.0,0.0
2628,61.0,240,15,0.0,0.0
2629,67.0,0,240,0.0,0.0
2630,68.0,0,240,0.0,0.0
2631,75.0,240,15,0.0,0.0
2632,63.0,0,15,0.0,0.0
2633,59.0,0,240,0.0,0.0
2634,75.0,0,240,0.0,0.0
2635,70.0,120,240,0.0,0.0
2636,58.0,0,240,0.0,0.0
2637,63.0,240,15,0.0,0.0
2638,75.0,0,120,0.0,0.0
2639,71.0,0,120,0.0,0.0
2640,44.0,240,120,0.0,0.0
2641,59.0,0,120,0.0,0.0
2642,56.0,0,120,0.0,0.0
2643,71.0,0,120,0.0,0.0
2644,75.0,360,120,0.0,0.0
2645,75.0,0,240,0.0,0.0
2646,71.0,0,240,0.0,0.0
2647,56.0,0,240,0.0,0.0
2648,59.0,240,240,0.0,0.0
2649,68.0,120,240,0.0,0.0
2650,63.0,0,240,0.0,0.0
2651,59.0,0,240,0.0,0.0
2652,71.0,0,240,0.0,0.0
2653,49.0,240,120,0.0,0.0
2654,61.0,360,120,0.0,0.0
2655,76.0,0,120,0.0,0.0
2656,73.0,0,120,0.0,0.0
2657,56.0,0,120,0.0,0.0
2658,73.0,240,240,0.0,0.0
2659,56.0,0,240,0.0,0.0
2660,76.0,0,240,0.0,0.0
2661,61.0,0,240,0.0,0.0
2662,68.0,120,240,0.0,0.0
2663,61.0,0,240,0.0,0.0
2664,73.0,0,240,0.0,0.0
2665,64.0,0,240,0.0,0.0
2666,51.0,240,120,0.0,0.0
2667,75.0,0,120,0.0,0.0
2668,59.0,0,120,0.0,0.0
2669,56.0,360,120,0.0,0.0
2670,71.0,0,120,0.0,0.0
2671,75.0,0,240,0.0,0.0
2672,56.0,0,240,0.0,0.0
2673,59.0,0,240,0.0,0.0
2674,71.0,240,240,0.0,0.0
2675,68.0,120,240,0.0,0.0
2676,63.0,0,240,0.0,0.0
2677,59.0,0,240,0.0,0.0
2678,71.0,0,240,0.0,0.0
2679,51.0,240,120,0.0,0.0
2680,75.0,0,120,0.0,0.0
2681,55.0,0,120,0.0,0.0
2682,70.0,0,120,0.0,0.0
2683,58.0,360,120,0.0,0.0
2684,75.0,0,240,0.0,0.0
2685,55.0,240,240,0.0,0.0
2686,58.0,0,240,0.0,0.0
2687,63.0,240,240,0.0,0.0
2688,58.0,0,240,0.0,0.0
2689,70.0,0,15,0.0,0.0
2690,67.0,0,240,0.0,0.0
2691,32.0,0,240,0.0,0.0
2692,68.0,0,240,0.0,0.0
2693,83.0,0,240,0.0,0.0
2694,44.0,0,15,0.0,0.0
2695,71.0,240,15,0.0,0.0
2696,75.0,0,240,0.0,0.0
2697,75.0,0,240,0.0,0.0
2698,51.0,240,15,0.0,0.0
2699,71.0,0,15,0.0,0.0
2700,83.0,0,15,0.0,0.0
2701,51.0,0,15,0.0,0.0
2702,44.0,240,15,0.0,0.0
2703,75.0,0,15,0.0,0.0
2704,83.0,0,240,0.0,0.0
2705,71.0,0,240,0.0,0.0
2706,75.0,0,240,0.0,0.0
2707,71.0,0,240,0.0,0.0
2708,83.0,240,240,0.0,0.0
2709,44.0,240,15,0.0,0.0
2710,51.0,0,15,0.0,0.0
2711,46.0,0,240,0.0,0.0
2712,51.0,0,15,0.0,0.0
2713,82.0,0,240,0.0,0.0
2714,70.0,0,240,0.0,0.0
2715,73.0,0,240,0.0,0.0
2716,71.0,0,240,0.0,0.0
2717,80.0,0,240,0.0,0.0
2718,68.0,240,240,0.0,0.0
2719,47.0,0,240,0.0,0.0
2720,51.0,0,240,0.0,0.0
2721,70.0,0,240,0.0,0.0
2722,67.0,0,240,0.0,0.0
2723,49.0,0,240,0.0,0.0
2724,39.0,0,240,0.0,0.0
2725,79.0,0,15,0.0,0.0
2726,76.0,0,240,0.0,0.0
2727,51.0,240,15,0.0,0.0
2728,61.0,0,240,0.0,0.0
2729,51.0,0,15,0.0,0.0
2730,88.0,240,15,0.0,0.0
2731,76.0,240,240,0.0,0.0
2732,79.0,0,15,0.0,0.0
2733,61.0,0,240,0.0,0.0
2734,88.0,0,15,0.0,0.0
2735,51.0,0,15,0.0,0.0
2736,61.0,0,240,0.0,0.0
2737,79.0,0,240,0.0,0.0
2738,88.0,240,15,0.0,0.0
2739,76.0,0,15,0.0,0.0
2740,51.0,0,240,0.0,0.0
2741,61.0,240,240,0.0,0.0
2742,79.0,0,240,0.0,0.0
2743,76.0,0,240,0.0,0.0
2744,88.0,0,15,0.0,0.0
2745,61.0,0,240,0.0,0.0
2746,51.0,0,15,0.0,0.0
2747,59.0,0,240,0.0,0.0
2748,79.0,0,15,0.0,0.0
2749,75.0,0,240,0.0,0.0
2750,87.0,240,240,0.0,0.0
2751,51.0,0,240,0.0,0.0
2752,85.0,0,240,0.0,0.0
2753,58.0,240,240,0.0,0.0
2754,73.0,0,240,0.0,0.0
2755,79.0,0,240,0.0,0.0
2756,80.0,240,240,0.0,0.0
2757,71.0,0,240,0.0,0.0
2758,32.0,0,240,0.0,0.0
2759,75.0,0,240,0.0,0.0
2760,44.0,0,15,0.0,0.0
2761,51.0,240,240,0.0,0.0
2762,83.0,0,240,0.0,0.0
2763,83.0,0,15,0.0,0.0
2764,75.0,0,240,0.0,0.0
2765,71.0,0,15,0.0,0.0
2766,44.0,0,15,0.0,0.0
2767,51.0,240,240,0.0,0.0
2768,83.0,0,15,0.0,0.0
2769,83.0,0,15,0.0,0.0
2770,51.0,0,15,0.0,0.0
2771,75.0,0,15,0.0,0.0
2772,71.0,0,15,0.0,0.0
2773,44.0,240,15,0.0,0.0
2774,71.0,0,15,0.0,0.0
2775,83.0,0,15,0.0,0.0
2776,75.0,0,15,0.0,0.0
2777,51.0,0,240,0.0,0.0
2778,44.0,240,15,0.0,0.0
2779,82.0,0,240,0.0,0.0
2780,70.0,0,240,0.0,0.0
2781,73.0,0,240,0.0,0.0
2782,46.0,0,240,0.0,0.0
2783,51.0,240,15,0.0,0.0
2784,68.0,0,240,0.0,0.0
2785,80.0,0,240,0.0,0.0
2786,71.0,240,240,0.0,0.0
2787,47.0,0,240,0.0,0.0
2788,49.0,0,240,0.0,0.0
2789,39.0,0,240,0.0,0.0
2790,67.0,240,240,0.0,0.0
2791,70.0,0,240,0.0,0.0
2792,79.0,0,240,0.0,0.0
2793,51.0,0,15,0.0,0.0
2794,79.0,0,240,0.0,0.0
2795,76.0,0,240,0.0,0.0
2796,88.0,0,15,0.0,0.0
2797,76.0,0,240,0.0,0.0
2798,79.0,0,240,0.0,0.0
2799,61.0,240,15,0.0,0.0
2800,51.0,0,240,0.0,0.0
2801,79.0,0,240,0.0,0.0
2802,76.0,0,240,0.0,0.0
2803,51.0,0,15,0.0,0.0
2804,61.0,240,15,0.0,0.0
2805,88.0,0,15,0.0,0.0
2806,76.0,240,15,0.0,0.0
2807,51.0,0,15,0.0,0.0
2808,61.0,0,240,0.0,0.0
2809,79.0,0,15,0.0,0.0
2810,88.0,0,240,0.0,0.0
2811,75.0,240,240,0.0,0.0
2812,79.0,0,240,0.0,0.0
2813,59.0,0,240,0.0,0.0
2814,87.0,0,240,0.0,0.0
2815,85.0,0,240,0.0,0.0
2816,58.0,0,240,0.0,0.0
2817,51.0,0,15,0.0,0.0
2818,79.0,240,240,0.0,0.0
2819,73.0,0,240,0.0,0.0
2820,44.0,0,240,0.0,0.0
2821,56.0,0,240,0.0,0.0
2822,71.0,120,240,0.0,0.0
2823,63.0,360,120,0.0,0.0
2824,83.0,0,15,0.0,0.0
2825,80.0,0,15,0.0,0.0
2826,59.0,0,120,0.0,0.0
2827,63.0,0,240,0.0,0.0
2828,80.0,240,240,0.0,0.0
2829,59.0,0,240,0.0,0.0
2830,59.0,120,240,0.0,0.0
2831,83.0,0,15,0.0,0.0
2832,87.0,0,240,0.0,0.0
2833,56.0,0,240,0.0,0.0
2834,49.0,240,120,0.0,0.0
2835,80.0,0,120,0.0,0.0
2836,85.0,0,120,0.0,0.0
2837,64.0,0,120,0.0,0.0
2838,61.0,360,120,0.0,0.0
2839,80.0,0,240,0.0,0.0
2840,64.0,0,240,0.0,0.0
2841,61.0,0,15,0.0,0.0
2842,56.0,0,240,0.0,0.0
2843,85.0,240,15,0.0,0.0
2844,88.0,120,240,0.0,0.0
2845,51.0,240,120,0.0,0.0
2846,83.0,0,120,0.0,0.0
2847,80.0,0,120,0.0,0.0
2848,63.0,360,120,0.0,0.0
2849,59.0,0,120,0.0,0.0
2850,80.0,0,240,0.0,0.0
2851,63.0,0,240,0.0,0.0
2852,56.0,0,240,0.0,0.0
2853,83.0,0,15,0.0,0.0
2854,87.0,0,240,0.0,0.0
2855,59.0,240,15,0.0,0.0
2856,49.0,240,120,0.0,0.0
2857,63.0,0,120,0.0,0.0
2858,58.0,360,120,0.0,0.0
2859,82.0,0,120,0.0,0.0
2860,79.0,0,120,0.0,0.0
2861,63.0,0,240,0.0,0.0
2862,79.0,0,240,0.0,0.0
2863,87.0,240,240,0.0,0.0
2864,58.0,0,15,0.0,0.0
2865,82.0,240,15,0.0,0.0
2866,55.0,0,240,0.0,0.0
2867,47.0,120,240,0.0,0.0
2868,75.0,0,120,0.0,0.0
2869,68.0,0,120,0.0,0.0
2870,63.0,360,120,0.0,0.0
2871,83.0,0,120,0.0,0.0
2872,68.0,0,240,0.0,0.0
2873,75.0,240,240,0.0,0.0
2874,83.0,0,240,0.0,0.0
2875,87.0,240,240,0.0,0.0
2876,80.0,0,240,0.0,0.0
2877,59.0,0,240,0.0,0.0
2878,63.0,0,15,0.0,0.0
2879,51.0,120,240,0.0,0.0
2880,64.0,0,120,0.0,0.0
2881,69.0,360,120,0.0,0.0
2882,81.0,0,120,0.0,0.0
2883,73.0,0,120,0.0,0.0
2884,81.0,240,240,0.0,0.0
2885,73.0,0,240,0.0,0.0
2886,64.0,0,240,0.0,0.0
2887,69.0,0,240,0.0,0.0
2888,64.0,0,240,0.0,0.0
2889,61.0,240,240,0.0,0.0
2890,76.0,0,240,0.0,0.0
2891,85.0,0,240,0.0,0.0
2892,47.0,120,240,0.0,0.0
2893,63.0,0,120,0.0,0.0
2894,68.0,0,120,0.0,0.0
2895,80.0,360,120,0.0,0.0
2896,71.0,0,120,0.0,0.0
2897,71.0,0,240,0.0,0.0
2898,80.0,0,240,0.0,0.0
2899,68.0,0,240,0.0,0.0
2900,83.0,0,240,0.0,0.0
2901,75.0,240,240,0.0,0.0
2902,63.0,240,15,0.0,0.0
2903,59.0,0,240,0.0,0.0
2904,51.0,120,240,0.0,0.0
2905,61.0,0,120,0.0,0.0
2906,67.0,0,120,0.0,0.0
2907,79.0,0,120,0.0,0.0
2908,70.0,360,120,0.0,0.0
2909,67.0,0,240,0.0,0.0
2910,79.0,0,240,0.0,0.0
2911,70.0,240,240,0.0,0.0
2912,73.0,0,240,0.0,0.0
2913,82.0,0,240,0.0,0.0
2914,61.0,0,15,0.0,0.0
2915,58.0,0,240,0.0,0.0
2916,71.0,20,480,0.0,0.0
2917,80.0,0,480,0.0,0.0
2918,44.0,120,150,0.0,0.0
2919,56.0,120,150,0.0,0.0
2920,51.0,100,150,0.0,0.0
2921,56.0,120,150,0.0,0.0
2922,44.0,120,150,0.0,0.0
2923,56.0,120,150,0.0,0.0
2924,51.0,120,150,0.0,0.0
2925,56.0,120,150,0.0,0.0
2926,44.0,120,150,0.0,0.0
2927,56.0,120,150,0.0,0.0
2928,51.0,120,150,0.0,0.0
2929,56.0,120,150,0.0,0.0
2930,71.0,20,360,0.0,0.0
2931,44.0,120,150,0.0,0.0
2932,56.0,100,150,0.0,0.0
2933,51.0,40,150,0.0,0.0
2934,56.0,120,150,0.0,0.0
2935,68.0,80,60,0.0,0.0
2936,44.0,120,150,0.0,0.0
2937,58.0,120,150,0.0,0.0
2938,51.0,100,150,0.0,0.0
2939,58.0,120,150,0.0,0.0
2940,44.0,120,150,0.0,0.0
2941,75.0,20,360,0.0,0.0
2942,67.0,20,15,0.0,0.0
2943,61.0,0,360,0.0,0.0
2944,58.0,100,150,0.0,0.0
2945,51.0,120,150,0.0,0.0
2946,58.0,120,150,0.0,0.0
2947,61.0,0,360,0.0,0.0
2948,75.0,20,360,0.0,0.0
2949,44.0,120,150,0.0,0.0
2950,67.0,0,360,0.0,0.0
2951,58.0,100,150,0.0,0.0
2952,51.0,120,150,0.0,0.0
2953,58.0,120,150,0.0,0.0
2954,75.0,0,360,0.0,0.0
2955,44.0,120,150,0.0,0.0
2956,61.0,0,360,0.0,0.0
2957,67.0,20,360,0.0,0.0
2958,58.0,100,150,0.0,0.0
2959,51.0,60,150,0.0,0.0
2960,59.0,60,90,0.0,0.0
2961,58.0,0,150,0.0,0.0
2962,68.0,120,90,0.0,0.0
2963,75.0,20,1440,0.0,0.0
2964,44.0,120,150,0.0,0.0
2965,56.0,120,150,0.0,0.0
2966,51.0,120,150,0.0,0.0
2967,56.0,120,150,0.0,0.0
2968,44.0,120,150,0.0,0.0
2969,56.0,120,150,0.0,0.0
2970,51.0,120,150,0.0,0.0
2971,56.0,120,150,0.0,0.0
2972,44.0,120,150,0.0,0.0
2973,56.0,120,150,0.0,0.0
2974,51.0,100,150,0.0,0.0
2975,56.0,120,150,0.0,0.0
2976,44.0,120,150,0.0,0.0
2977,83.0,20,360,0.0,0.0
2978,56.0,100,150,0.0,0.0
2979,51.0,100,150,0.0,0.0
2980,80.0,20,120,0.0,0.0
2981,56.0,120,150,0.0,0.0
2982,44.0,120,150,0.0,0.0
2983,58.0,120,150,0.0,0.0
2984,51.0,100,150,0.0,0.0
2985,58.0,120,150,0.0,0.0
2986,87.0,0,360,0.0,0.0
2987,79.0,20,15,0.0,0.0
2988,73.0,20,360,0.0,0.0
2989,44.0,120,150,0.0,0.0
2990,58.0,100,150,0.0,0.0
2991,51.0,120,150,0.0,0.0
2992,58.0,120,150,0.0,0.0
2993,73.0,0,360,0.0,0.0
2994,87.0,0,360,0.0,0.0
2995,44.0,120,150,0.0,0.0
2996,79.0,20,360,0.0,0.0
2997,58.0,100,150,0.0,0.0
2998,51.0,120,150,0.0,0.0
2999,58.0,120,150,0.0,0.0
3000,44.0,120,150,0.0,0.0
3001,79.0,0,360,0.0,0.0
3002,73.0,20,360,0.0,0.0
3003,87.0,0,360,0.0,0.0
3004,58.0,100,150,0.0,0.0
3005,51.0,60,150,0.0,0.0
3006,58.0,0,150,0.0,0.0
3007,68.0,60,90,0.0,0.0
3008,80.0,120,90,0.0,0.0
3009,87.0,20,840,0.0,0.0
3010,44.0,120,150,0.0,0.0
3011,56.0,120,150,0.0,0.0
3012,51.0,120,150,0.0,0.0
3013,56.0,120,150,0.0,0.0
3014,44.0,120,150,0.0,0.0
3015,56.0,100,150,0.0,0.0
3016,51.0,60,150,0.0,0.0
3017,56.0,120,150,0.0,0.0
3018,69.0,60,90,0.0,0.0
3019,79.0,0,90,0.0,0.0
3020,44.0,120,150,0.0,0.0
3021,87.0,20,840,0.0,0.0
3022,58.0,120,150,0.0,0.0
3023,51.0,120,150,0.0,0.0
3024,58.0,120,150,0.0,0.0
3025,44.0,120,150,0.0,0.0
3026,58.0,100,150,0.0,0.0
3027,51.0,60,150,0.0,0.0
3028,58.0,0,150,0.0,0.0
3029,71.0,60,90,0.0,0.0
3030,80.0,120,90,0.0,0.0
3031,87.0,20,840,0.0,0.0
3032,44.0,120,150,0.0,0.0
3033,56.0,120,150,0.0,0.0
3034,51.0,120,150,0.0,0.0
3035,56.0,120,150,0.0,0.0
3036,44.0,120,150,0.0,0.0
3037,56.0,100,150,0.0,0.0
3038,51.0,60,150,0.0,0.0
3039,69.0,60,90,0.0,0.0
3040,56.0,120,150,0.0,0.0
3041,79.0,0,90,0.0,0.0
3042,87.0,20,960,0.0,0.0
3043,44.0,120,150,0.0,0.0
3044,58.0,120,150,0.0,0.0
3045,51.0,120,150,0.0,0.0
3046,58.0,120,150,0.0,0.0
3047,44.0,120,150,0.0,0.0
3048,58.0,120,150,0.0,0.0
3049,51.0,100,150,0.0,0.0
3050,58.0,120,150,0.0,0.0
3051,44.0,0,150,0.0,0.0
3052,59.0,120,150,0.0,0.0
3053,56.0,0,150,0.0,0.0
3054,68.0,120,150,0.0,0.0
3055,51.0,120,150,0.0,0.0
3056,63.0,0,150,0.0,0.0
3057,56.0,0,150,0.0,0.0
3058,68.0,120,150,0.0,0.0
3059,44.0,0,150,0.0,0.0
3060,59.0,120,150,0.0,0.0
3061,56.0,0,150,0.0,0.0
3062,68.0,120,150,0.0,0.0
3063,51.0,0,150,0.0,0.0
3064,63.0,120,150,0.0,0.0
3065,68.0,120,150,0.0,0.0
3066,56.0,0,150,0.0,0.0
3067,44.0,120,150,0.0,0.0
3068,59.0,0,150,0.0,0.0
3069,56.0,0,150,0.0,0.0
3070,68.0,120,150,0.0,0.0
3071,51.0,120,150,0.0,0.0
3072,63.0,0,150,0.0,0.0
3073,68.0,120,150,0.0,0.0
3074,56.0,0,150,0.0,0.0
3075,59.0,0,150,0.0,0.0
3076,44.0,120,150,0.0,0.0
3077,68.0,0,150,0.0,0.0
3078,56.0,120,150,0.0,0.0
3079,51.0,120,150,0.0,0.0
3080,63.0,0,150,0.0,0.0
3081,56.0,0,150,0.0,0.0
3082,68.0,120,150,0.0,0.0
3083,60.0,0,150,0.0,0.0
3084,44.0,120,150,0.0,0.0
3085,54.0,0,150,0.0,0.0
3086,66.0,120,150,0.0,0.0
3087,51.0,120,150,0.0,0.0
3088,63.0,0,150,0.0,0.0
3089,66.0,0,150,0.0,0.0
3090,54.0,120,150,0.0,0.0
3091,44.0,0,150,0.0,0.0
3092,60.0,120,150,0.0,0.0
3093,54.0,120,150,0.0,0.0
3094,66.0,0,150,0.0,0.0
3095,63.0,0,150,0.0,0.0
3096,51.0,120,150,0.0,0.0
3097,66.0,120,150,0.0,0.0
3098,54.0,0,150,0.0,0.0
3099,60.0,120,150,0.0,0.0
3100,44.0,0,150,0.0,0.0
3101,54.0,0,150,0.0,0.0
3102,66.0,120,150,0.0,0.0
3103,51.0,120,150,0.0,0.0
3104,63.0,0,150,0.0,0.0
3105,54.0,120,150,0.0,0.0
3106,66.0,0,150,0.0,0.0
3107,44.0,120,150,0.0,0.0
3108,60.0,0,150,0.0,0.0
3109,66.0,120,150,0.0,0.0
3110,54.0,0,150,0.0,0.0
3111,63.0,120,150,0.0,0.0
3112,51.0,0,150,0.0,0.0
3113,66.0,100,150,0.0,0.0
3114,54.0,0,150,0.0,0.0
3115,37.0,0,120,0.0,0.0
3116,56.0,0,120,0.0,0.0
3117,61.0,0,120,0.0,0.0
3118,65.0,0,120,0.0,0.0
3119,53.0,140,120,0.0,0.0
3120,49.0,100,150,0.0,0.0
3121,44.0,20,120,0.0,0.0
3122,53.0,120,150,0.0,0.0
3123,56.0,100,150,0.0,0.0
3124,37.0,20,120,0.0,0.0
3125,61.0,120,150,0.0,0.0
3126,53.0,100,150,0.0,0.0
3127,44.0,20,120,0.0,0.0
3128,56.0,120,150,0.0,0.0
3129,61.0,100,150,0.0,0.0
3130,37.0,20,120,0.0,0.0
3131,65.0,120,150,0.0,0.0
3132,56.0,100,150,0.0,0.0
3133,61.0,120,150,0.0,0.0
3134,44.0,20,120,0.0,0.0
3135,65.0,100,150,0.0,0.0
3136,68.0,120,150,0.0,0.0
3137,37.0,20,120,0.0,0.0
3138,61.0,100,150,0.0,0.0
3139,65.0,120,150,0.0,0.0
3140,44.0,20,120,0.0,0.0
3141,68.0,120,150,0.0,0.0
3142,37.0,20,240,0.0,0.0
3143,73.0,100,150,0.0,0.0
3144,65.0,120,150,0.0,0.0
3145,68.0,100,150,0.0,0.0
3146,44.0,20,240,0.0,0.0
3147,73.0,120,150,0.0,0.0
3148,77.0,100,150,0.0,0.0
3149,37.0,20,240,0.0,0.0
3150,68.0,120,150,0.0,0.0
3151,44.0,20,240,0.0,0.0
3152,73.0,100,150,0.0,0.0
3153,77.0,120,150,0.0,0.0
3154,37.0,20,240,0.0,0.0
3155,80.0,100,150,0.0,0.0
3156,73.0,120,150,0.0,0.0
3157,44.0,0,240,0.0,0.0
3158,77.0,100,150,0.0,0.0
3159,85.0,0,120,0.0,0.0
3160,80.0,120,15,0.0,0.0
3161,77.0,0,120,0.0,0.0
3162,73.0,0,120,0.0,0.0
3163,37.0,120,240,0.0,0.0
3164,49.0,0,240,0.0,0.0
3165,77.0,0,120,0.0,0.0
3166,80.0,120,120,0.0,0.0
3167,85.0,0,120,0.0,0.0
3168,73.0,0,120,0.0,0.0
3169,44.0,240,240,0.0,0.0
3170,35.0,20,240,0.0,0.0
3171,49.0,120,150,0.0,0.0
3172,44.0,20,240,0.0,0.0
3173,53.0,100,150,0.0,0.0
3174,56.0,120,150,0.0,0.0
3175,61.0,100,150,0.0,0.0
3176,35.0,20,240,0.0,0.0
3177,53.0,120,150,0.0,0.0
3178,56.0,100,150,0.0,0.0
3179,44.0,20,240,0.0,0.0
3180,61.0,120,150,0.0,0.0
3181,65.0,100,150,0.0,0.0
3182,35.0,20,240,0.0,0.0
3183,56.0,120,150,0.0,0.0
3184,44.0,20,240,0.0,0.0
3185,61.0,100,150,0.0,0.0
3186,65.0,120,150,0.0,0.0
3187,68.0,100,150,0.0,0.0
3188,35.0,20,240,0.0,0.0
3189,61.0,120,150,0.0,0.0
3190,65.0,100,150,0.0,0.0
3191,44.0,20,240,0.0,0.0
3192,68.0,120,150,0.0,0.0
3193,73.0,100,150,0.0,0.0
3194,35.0,20,240,0.0,0.0
3195,65.0,120,150,0.0,0.0
3196,68.0,100,150,0.0,0.0
3197,44.0,20,240,0.0,0.0
3198,73.0,120,150,0.0,0.0
3199,77.0,100,150,0.0,0.0
3200,35.0,20,240,0.0,0.0
3201,68.0,120,150,0.0,0.0
3202,44.0,20,240,0.0,0.0
3203,73.0,100,150,0.0,0.0
3204,77.0,120,150,0.0,0.0
3205,35.0,20,240,0.0,0.0
3206,80.0,100,150,0.0,0.0
3207,73.0,120,150,0.0,0.0
3208,44.0,0,240,0.0,0.0
3209,77.0,100,150,0.0,0.0
3210,80.0,120,120,0.0,0.0
3211,35.0,120,240,0.0,0.0
3212,47.0,0,240,0.0,0.0
3213,73.0,0,120,0.0,0.0
3214,77.0,120,120,0.0,0.0
3215,85.0,0,120,0.0,0.0
3216,80.0,0,120,0.0,0.0
3217,73.0,0,120,0.0,0.0
3218,85.0,120,120,0.0,0.0
3219,80.0,0,120,0.0,0.0
3220,77.0,0,120,0.0,0.0
3221,44.0,120,240,0.0,0.0
3222,33.0,140,120,0.0,0.0
3223,49.0,100,150,0.0,0.0
3224,54.0,120,150,0.0,0.0
3225,45.0,20,120,0.0,0.0
3226,57.0,40,150,0.0,0.0
3227,61.0,60,60,0.0,0.0
3228,33.0,140,120,0.0,0.0
3229,61.0,100,150,0.0,0.0
3230,66.0,120,150,0.0,0.0
3231,45.0,20,120,0.0,0.0
3232,69.0,40,150,0.0,0.0
3233,33.0,140,120,0.0,0.0
3234,73.0,60,60,0.0,0.0
3235,73.0,100,150,0.0,0.0
3236,45.0,20,120,0.0,0.0
3237,78.0,100,150,0.0,0.0
3238,81.0,120,120,0.0,0.0
3239,78.0,0,120,0.0,0.0
3240,73.0,0,120,0.0,0.0
3241,81.0,0,120,0.0,0.0
3242,85.0,0,120,0.0,0.0
3243,33.0,240,120,0.0,0.0
3244,85.0,0,120,0.0,0.0
3245,73.0,0,120,0.0,0.0
3246,81.0,0,120,0.0,0.0
3247,78.0,240,120,0.0,0.0
3248,45.0,0,120,0.0,0.0
3249,29.0,140,120,0.0,0.0
3250,49.0,100,150,0.0,0.0
3251,41.0,20,120,0.0,0.0
3252,56.0,120,150,0.0,0.0
3253,59.0,40,150,0.0,0.0
3254,29.0,140,120,0.0,0.0
3255,61.0,60,60,0.0,0.0
3256,61.0,100,150,0.0,0.0
3257,41.0,20,120,0.0,0.0
3258,68.0,120,150,0.0,0.0
3259,71.0,40,150,0.0,0.0
3260,29.0,140,120,0.0,0.0
3261,73.0,60,60,0.0,0.0
3262,73.0,100,150,0.0,0.0
3263,41.0,20,120,0.0,0.0
3264,80.0,100,150,0.0,0.0
3265,83.0,120,120,0.0,0.0
3266,80.0,0,120,0.0,0.0
3267,73.0,0,120,0.0,0.0
3268,85.0,240,120,0.0,0.0
3269,29.0,0,120,0.0,0.0
3270,83.0,0,120,0.0,0.0
3271,85.0,0,120,0.0,0.0
3272,83.0,0,120,0.0,0.0
3273,80.0,0,120,0.0,0.0
3274,73.0,240,120,0.0,0.0
3275,41.0,0,120,0.0,0.0
3276,73.0,0,240,0.0,0.0
3277,85.0,0,240,0.0,0.0
3278,81.0,0,240,0.0,0.0
3279,78.0,20,240,0.0,0.0
3280,30.0,120,120,0.0,0.0
3281,42.0,0,120,0.0,0.0
3282,61.0,120,150,0.0,0.0
3283,57.0,120,150,0.0,0.0
3284,61.0,120,150,0.0,0.0
3285,73.0,120,990,0.0,0.0
3286,54.0,120,150,0.0,0.0
3287,61.0,120,150,0.0,0.0
3288,57.0,120,150,0.0,0.0
3289,61.0,120,150,0.0,0.0
3290,54.0,120,150,0.0,0.0
3291,61.0,120,150,0.0,0.0
3292,57.0,120,150,0.0,0.0
3293,61.0,0,150,0.0,0.0
3294,69.0,0,390,0.0,0.0
3295,54.0,120,150,0.0,0.0
3296,61.0,120,150,0.0,0.0
3297,57.0,40,150,0.0,0.0
3298,66.0,20,60,0.0,0.0
3299,61.0,120,150,0.0,0.0
3300,65.0,20,20,0.0,0.0
3301,66.0,20,20,0.0,0.0
3302,68.0,20,20,0.0,0.0
3303,66.0,0,510,0.0,0.0
3304,56.0,120,150,0.0,0.0
3305,61.0,120,150,0.0,0.0
3306,59.0,120,150,0.0,0.0
3307,61.0,120,150,0.0,0.0
3308,56.0,120,150,0.0,0.0
3309,61.0,120,150,0.0,0.0
3310,59.0,120,150,0.0,0.0
3311,61.0,120,150,0.0,0.0
3312,56.0,100,150,0.0,0.0
3313,61.0,120,150,0.0,0.0
3314,59.0,120,150,0.0,0.0
3315,65.0,20,15,0.0,0.0
3316,61.0,0,150,0.0,0.0
3317,56.0,120,150,0.0,0.0
3318,73.0,20,360,0.0,0.0
3319,61.0,100,150,0.0,0.0
3320,59.0,100,150,0.0,0.0
3321,61.0,120,150,0.0,0.0
3322,65.0,20,120,0.0,0.0
3323,57.0,120,150,0.0,0.0
3324,68.0,120,510,0.0,0.0
3325,61.0,120,150,0.0,0.0
3326,57.0,120,150,0.0,0.0
3327,61.0,0,150,0.0,0.0
3328,57.0,120,150,0.0,0.0
3329,66.0,20,720,0.0,0.0
3330,61.0,120,150,0.0,0.0
3331,57.0,120,150,0.0,0.0
3332,61.0,120,150,0.0,0.0
3333,57.0,100,150,0.0,0.0
3334,61.0,120,150,0.0,0.0
3335,57.0,120,150,0.0,0.0
3336,66.0,0,270,0.0,0.0
3337,61.0,120,150,0.0,0.0
3338,57.0,120,150,0.0,0.0
3339,73.0,0,390,0.0,0.0
3340,61.0,120,150,0.0,0.0
3341,57.0,120,150,0.0,0.0
3342,61.0,120,150,0.0,0.0
3343,66.0,0,150,0.0,0.0
3344,69.0,0,510,0.0,0.0
3345,53.0,120,150,0.0,0.0
3346,61.0,120,150,0.0,0.0
3347,53.0,120,150,0.0,0.0
3348,61.0,120,150,0.0,0.0
3349,53.0,120,150,0.0,0.0
3350,61.0,120,150,0.0,0.0
3351,53.0,120,150,0.0,0.0
3352,61.0,120,150,0.0,0.0
3353,53.0,100,150,0.0,0.0
3354,61.0,120,150,0.0,0.0
3355,68.0,20,15,0.0,0.0
3356,53.0,120,150,0.0,0.0
3357,61.0,120,150,0.0,0.0
3358,53.0,120,150,0.0,0.0
3359,73.0,20,360,0.0,0.0
3360,61.0,100,150,0.0,0.0
3361,53.0,100,150,0.0,0.0
3362,61.0,120,150,0.0,0.0
3363,68.0,20,120,0.0,0.0
3364,54.0,20,240,0.0,0.0
3365,69.0,100,150,0.0,0.0
3366,73.0,120,150,0.0,0.0
3367,69.0,120,150,0.0,0.0
3368,73.0,120,150,0.0,0.0
3369,61.0,20,960,0.0,0.0
3370,66.0,120,150,0.0,0.0
3371,73.0,120,150,0.0,0.0
3372,69.0,120,150,0.0,0.0
3373,73.0,120,150,0.0,0.0
3374,66.0,120,150,0.0,0.0
3375,73.0,120,150,0.0,0.0
3376,69.0,100,150,0.0,0.0
3377,73.0,120,150,0.0,0.0
3378,66.0,120,150,0.0,0.0
3379,57.0,20,360,0.0,0.0
3380,73.0,100,150,0.0,0.0
3381,69.0,100,150,0.0,0.0
3382,73.0,120,150,0.0,0.0
3383,68.0,120,150,0.0,0.0
3384,54.0,20,15,0.0,0.0
3385,73.0,120,150,0.0,0.0
3386,71.0,100,150,0.0,0.0
3387,73.0,120,150,0.0,0.0
3388,68.0,120,150,0.0,0.0
3389,73.0,120,150,0.0,0.0
3390,71.0,120,150,0.0,0.0
3391,73.0,120,150,0.0,0.0
3392,68.0,100,150,0.0,0.0
3393,73.0,120,150,0.0,0.0
3394,53.0,20,15,0.0,0.0
3395,71.0,100,150,0.0,0.0
3396,73.0,120,150,0.0,0.0
3397,68.0,120,150,0.0,0.0
3398,61.0,20,360,0.0,0.0
3399,73.0,100,150,0.0,0.0
3400,71.0,100,150,0.0,0.0
3401,73.0,120,150,0.0,0.0
3402,53.0,20,120,0.0,0.0
3403,66.0,120,150,0.0,0.0
3404,56.0,20,480,0.0,0.0
3405,73.0,120,150,0.0,0.0
3406,69.0,100,150,0.0,0.0
3407,73.0,120,150,0.0,0.0
3408,54.0,20,720,0.0,0.0
3409,66.0,120,150,0.0,0.0
3410,73.0,120,150,0.0,0.0
3411,69.0,120,150,0.0,0.0
3412,73.0,120,150,0.0,0.0
3413,66.0,100,150,0.0,0.0
3414,73.0,120,150,0.0,0.0
3415,69.0,100,150,0.0,0.0
3416,54.0,20,240,0.0,0.0
3417,73.0,120,150,0.0,0.0
3418,66.0,120,150,0.0,0.0
3419,61.0,20,360,0.0,0.0
3420,73.0,100,150,0.0,0.0
3421,69.0,100,150,0.0,0.0
3422,54.0,20,120,0.0,0.0
3423,73.0,100,150,0.0,0.0
3424,66.0,120,150,0.0,0.0
3425,54.0,20,120,0.0,0.0
3426,74.0,120,150,0.0,0.0
3427,69.0,100,150,0.0,0.0
3428,54.0,20,240,0.0,0.0
3429,74.0,120,150,0.0,0.0
3430,62.0,20,360,0.0,0.0
3431,66.0,120,150,0.0,0.0
3432,74.0,100,150,0.0,0.0
3433,69.0,100,150,0.0,0.0
3434,54.0,20,120,0.0,0.0
3435,74.0,100,150,0.0,0.0
3436,69.0,120,150,0.0,0.0
3437,54.0,20,120,0.0,0.0
3438,74.0,120,150,0.0,0.0
3439,72.0,100,150,0.0,0.0
3440,54.0,20,240,0.0,0.0
3441,74.0,120,150,0.0,0.0
3442,62.0,20,360,0.0,0.0
3443,69.0,120,150,0.0,0.0
3444,74.0,100,150,0.0,0.0
3445,72.0,100,150,0.0,0.0
3446,54.0,20,120,0.0,0.0
3447,74.0,120,150,0.0,0.0
3448,55.0,20,240,0.0,0.0
3449,67.0,100,150,0.0,0.0
3450,74.0,120,150,0.0,0.0
3451,71.0,120,150,0.0,0.0
3452,74.0,120,150,0.0,0.0
3453,67.0,120,150,0.0,0.0
3454,50.0,20,960,0.0,0.0
3455,74.0,120,150,0.0,0.0
3456,71.0,120,150,0.0,0.0
3457,74.0,120,150,0.0,0.0
3458,67.0,120,150,0.0,0.0
3459,74.0,120,150,0.0,0.0
3460,71.0,100,150,0.0,0.0
3461,74.0,120,150,0.0,0.0
3462,67.0,120,150,0.0,0.0
3463,47.0,20,360,0.0,0.0
3464,74.0,100,150,0.0,0.0
3465,71.0,100,150,0.0,0.0
3466,74.0,120,150,0.0,0.0
3467,69.0,120,150,0.0,0.0
3468,43.0,20,15,0.0,0.0
3469,74.0,120,150,0.0,0.0
3470,72.0,100,150,0.0,0.0
3471,74.0,120,150,0.0,0.0
3472,69.0,120,150,0.0,0.0
3473,74.0,120,150,0.0,0.0
3474,72.0,120,150,0.0,0.0
3475,74.0,120,150,0.0,0.0
3476,69.0,100,150,0.0,0.0
3477,74.0,120,150,0.0,0.0
3478,42.0,20,15,0.0,0.0
3479,72.0,100,150,0.0,0.0
3480,74.0,120,150,0.0,0.0
3481,69.0,120,150,0.0,0.0
3482,50.0,20,360,0.0,0.0
3483,74.0,100,150,0.0,0.0
3484,72.0,100,150,0.0,0.0
3485,42.0,20,120,0.0,0.0
3486,74.0,120,150,0.0,0.0
3487,45.0,20,480,0.0,0.0
3488,67.0,120,150,0.0,0.0
3489,74.0,120,150,0.0,0.0
3490,71.0,100,150,0.0,0.0
3491,74.0,120,150,0.0,0.0
3492,67.0,120,150,0.0,0.0
3493,74.0,120,150,0.0,0.0
3494,71.0,120,150,0.0,0.0
3495,74.0,120,150,0.0,0.0
3496,67.0,100,150,0.0,0.0
3497,74.0,120,150,0.0,0.0
3498,43.0,20,15,0.0,0.0
3499,71.0,100,150,0.0,0.0
3500,74.0,120,150,0.0,0.0
3501,50.0,20,360,0.0,0.0
3502,67.0,120,150,0.0,0.0
3503,74.0,100,150,0.0,0.0
3504,71.0,100,150,0.0,0.0
3505,74.0,120,150,0.0,0.0
3506,42.0,20,120,0.0,0.0
3507,68.0,120,150,0.0,0.0
3508,42.0,20,480,0.0,0.0
3509,74.0,120,150,0.0,0.0
3510,71.0,100,150,0.0,0.0
3511,74.0,120,150,0.0,0.0
3512,41.0,20,720,0.0,0.0
3513,68.0,120,150,0.0,0.0
3514,73.0,120,150,0.0,0.0
3515,71.0,120,150,0.0,0.0
3516,73.0,120,150,0.0,0.0
3517,68.0,100,150,0.0,0.0
3518,73.0,120,150,0.0,0.0
3519,41.0,20,240,0.0,0.0
3520,71.0,100,150,0.0,0.0
3521,73.0,120,150,0.0,0.0
3522,68.0,120,150,0.0,0.0
3523,49.0,20,360,0.0,0.0
3524,73.0,100,150,0.0,0.0
3525,71.0,100,150,0.0,0.0
3526,73.0,100,150,0.0,0.0
3527,41.0,20,120,0.0,0.0
3528,66.0,120,150,0.0,0.0
3529,42.0,20,120,0.0,0.0
3530,73.0,120,150,0.0,0.0
3531,42.0,20,240,0.0,0.0
3532,69.0,100,150,0.0,0.0
3533,73.0,120,150,0.0,0.0
3534,66.0,100,150,0.0,0.0
3535,45.0,20,240,0.0,0.0
3536,73.0,120,150,0.0,0.0
3537,69.0,100,150,0.0,0.0
3538,42.0,20,240,0.0,0.0
3539,73.0,100,150,0.0,0.0
3540,66.0,120,150,0.0,0.0
3541,38.0,20,120,0.0,0.0
3542,78.0,120,150,0.0,0.0
3543,38.0,20,240,0.0,0.0
3544,69.0,100,150,0.0,0.0
3545,78.0,120,150,0.0,0.0
3546,42.0,20,240,0.0,0.0
3547,66.0,100,150,0.0,0.0
3548,78.0,120,150,0.0,0.0
3549,38.0,20,240,0.0,0.0
3550,69.0,100,150,0.0,0.0
3551,78.0,120,150,0.0,0.0
3552,66.0,120,150,0.0,0.0
3553,36.0,20,1080,0.0,0.0
3554,78.0,120,150,0.0,0.0
3555,75.0,120,150,0.0,0.0
3556,68.0,0,150,0.0,0.0
3557,78.0,120,150,0.0,0.0
3558,66.0,120,150,0.0,0.0
3559,78.0,120,150,0.0,0.0
3560,75.0,120,150,0.0,0.0
3561,68.0,0,150,0.0,0.0
3562,78.0,100,150,0.0,0.0
3563,66.0,120,150,0.0,0.0
3564,78.0,120,150,0.0,0.0
3565,68.0,0,150,0.0,0.0
3566,75.0,100,150,0.0,0.0
3567,36.0,20,240,0.0,0.0
3568,78.0,120,150,0.0,0.0
3569,66.0,100,150,0.0,0.0
3570,39.0,20,240,0.0,0.0
3571,78.0,120,150,0.0,0.0
3572,36.0,20,240,0.0,0.0
3573,68.0,100,150,0.0,0.0
3574,75.0,0,150,0.0,0.0
3575,78.0,100,150,0.0,0.0
3576,37.0,20,120,0.0,0.0
3577,64.0,120,150,0.0,0.0
3578,76.0,120,150,0.0,0.0
3579,37.0,20,240,0.0,0.0
3580,73.0,100,150,0.0,0.0
3581,76.0,120,150,0.0,0.0
3582,64.0,100,150,0.0,0.0
3583,40.0,20,240,0.0,0.0
3584,76.0,120,150,0.0,0.0
3585,37.0,20,240,0.0,0.0
3586,73.0,100,150,0.0,0.0
3587,76.0,100,150,0.0,0.0
3588,33.0,20,120,0.0,0.0
3589,64.0,120,150,0.0,0.0
3590,76.0,120,150,0.0,0.0
3591,73.0,100,150,0.0,0.0
3592,33.0,20,240,0.0,0.0
3593,76.0,120,150,0.0,0.0
3594,37.0,20,240,0.0,0.0
3595,64.0,100,150,0.0,0.0
3596,76.0,120,150,0.0,0.0
3597,73.0,100,150,0.0,0.0
3598,33.0,20,240,0.0,0.0
3599,76.0,100,150,0.0,0.0
3600,63.0,120,150,0.0,0.0
3601,30.0,20,120,0.0,0.0
3602,75.0,120,150,0.0,0.0
3603,73.0,100,150,0.0,0.0
3604,30.0,20,240,0.0,0.0
3605,75.0,120,150,0.0,0.0
3606,33.0,20,240,0.0,0.0
3607,63.0,100,150,0.0,0.0
3608,75.0,120,150,0.0,0.0
3609,30.0,20,240,0.0,0.0
3610,73.0,100,150,0.0,0.0
3611,75.0,100,150,0.0,0.0
3612,31.0,20,120,0.0,0.0
3613,63.0,120,150,0.0,0.0
3614,75.0,120,150,0.0,0.0
3615,73.0,100,150,0.0,0.0
3616,31.0,20,240,0.0,0.0
3617,75.0,120,150,0.0,0.0
3618,63.0,100,150,0.0,0.0
3619,34.0,20,240,0.0,0.0
3620,75.0,120,150,0.0,0.0
3621,31.0,140,240,0.0,0.0
3622,73.0,100,150,0.0,0.0
3623,75.0,0,120,0.0,0.0
3624,32.0,100,150,0.0,0.0
3625,63.0,20,240,0.0,0.0
3626,72.0,0,240,0.0,0.0
3627,75.0,0,240,0.0,0.0
3628,44.0,120,150,0.0,0.0
3629,32.0,120,150,0.0,0.0
3630,44.0,120,150,0.0,0.0
3631,32.0,120,150,0.0,0.0
3632,68.0,20,960,0.0,0.0
3633,44.0,120,150,0.0,0.0
3634,32.0,120,150,0.0,0.0
3635,44.0,120,150,0.0,0.0
3636,32.0,120,150,0.0,0.0
3637,44.0,120,150,0.0,0.0
3638,32.0,100,150,0.0,0.0
3639,44.0,120,150,0.0,0.0
3640,69.0,20,240,0.0,0.0
3641,32.0,100,150,0.0,0.0
3642,44.0,120,150,0.0,0.0
3643,32.0,100,150,0.0,0.0
3644,68.0,20,240,0.0,0.0
3645,44.0,120,150,0.0,0.0
3646,57.0,0,960,0.0,0.0
3647,61.0,0,960,0.0,0.0
3648,66.0,20,480,0.0,0.0
3649,32.0,120,150,0.0,0.0
3650,44.0,120,150,0.0,0.0
3651,32.0,100,150,0.0,0.0
3652,44.0,120,150,0.0,0.0
3653,32.0,100,150,0.0,0.0
3654,68.0,20,240,0.0,0.0
3655,44.0,120,150,0.0,0.0
3656,32.0,100,150,0.0,0.0
3657,66.0,20,240,0.0,0.0
3658,44.0,120,150,0.0,0.0
3659,64.0,20,480,0.0,0.0
3660,56.0,0,960,0.0,0.0
3661,59.0,20,960,0.0,0.0
3662,32.0,120,150,0.0,0.0
3663,44.0,120,150,0.0,0.0
3664,32.0,100,150,0.0,0.0
3665,44.0,120,150,0.0,0.0
3666,32.0,100,150,0.0,0.0
3667,66.0,20,240,0.0,0.0
3668,44.0,120,150,0.0,0.0
3669,64.0,0,240,0.0,0.0
3670,32.0,100,150,0.0,0.0
3671,44.0,120,150,0.0,0.0
3672,54.0,0,960,0.0,0.0
3673,63.0,20,480,0.0,0.0
3674,57.0,0,960,0.0,0.0
3675,32.0,120,150,0.0,0.0
3676,44.0,120,150,0.0,0.0
3677,32.0,100,150,0.0,0.0
3678,44.0,120,150,0.0,0.0
3679,32.0,100,150,0.0,0.0
3680,64.0,20,240,0.0,0.0
3681,44.0,120,150,0.0,0.0
3682,32.0,100,150,0.0,0.0
3683,63.0,20,240,0.0,0.0
3684,44.0,120,150,0.0,0.0
3685,56.0,0,960,0.0,0.0
3686,32.0,120,150,0.0,0.0
3687,61.0,20,480,0.0,0.0
3688,52.0,0,960,0.0,0.0
3689,44.0,120,150,0.0,0.0
3690,32.0,100,150,0.0,0.0
3691,44.0,120,150,0.0,0.0
3692,32.0,100,150,0.0,0.0
3693,63.0,20,240,0.0,0.0
3694,44.0,120,150,0.0,0.0
3695,32.0,100,150,0.0,0.0
3696,61.0,20,240,0.0,0.0
3697,44.0,120,150,0.0,0.0
3698,32.0,120,150,0.0,0.0
3699,51.0,20,960,0.0,0.0
3700,54.0,0,960,0.0,0.0
3701,60.0,0,960,0.0,0.0
3702,44.0,120,150,0.0,0.0
3703,32.0,120,150,0.0,0.0
3704,44.0,120,150,0.0,0.0
3705,32.0,120,150,0.0,0.0
3706,44.0,120,150,0.0,0.0
3707,32.0,100,150,0.0,0.0
3708,44.0,120,150,0.0,0.0
3709,52.0,0,960,0.0,0.0
3710,61.0,0,960,0.0,0.0
3711,49.0,20,960,0.0,0.0
3712,32.0,120,150,0.0,0.0
3713,44.0,120,150,0.0,0.0
3714,32.0,120,150,0.0,0.0
3715,44.0,120,150,0.0,0.0
3716,32.0,120,150,0.0,0.0
3717,44.0,120,150,0.0,0.0
3718,32.0,100,150,0.0,0.0
3719,44.0,40,150,0.0,0.0
3720,32.0,120,150,0.0,0.0
3721,48.0,60,60,0.0,0.0
3722,56.0,20,60,0.0,0.0
3723,63.0,60,330,0.0,0.0
3724,44.0,120,150,0.0,0.0
3725,32.0,60,150,0.0,0.0
3726,44.0,120,150,0.0,0.0
3727,32.0,120,150,0.0,0.0
3728,44.0,120,150,0.0,0.0
3729,32.0,120,150,0.0,0.0
3730,44.0,120,150,0.0,0.0
3731,32.0,100,150,0.0,0.0
3732,44.0,100,150,0.0,0.0
3733,32.0,120,150,0.0,0.0
3734,80.0,20,15,0.0,0.0
3735,44.0,100,150,0.0,0.0
3736,81.0,20,120,0.0,0.0
3737,32.0,120,150,0.0,0.0
3738,44.0,100,150,0.0,0.0
3739,80.0,20,120,0.0,0.0
3740,32.0,120,150,0.0,0.0
3741,44.0,100,150,0.0,0.0
3742,32.0,120,150,0.0,0.0
3743,78.0,20,120,0.0,0.0
3744,44.0,100,150,0.0,0.0
3745,73.0,0,120,0.0,0.0
3746,69.0,20,120,0.0,0.0
3747,78.0,0,120,0.0,0.0
3748,32.0,120,150,0.0,0.0
3749,44.0,100,150,0.0,0.0
3750,32.0,120,150,0.0,0.0
3751,75.0,20,120,0.0,0.0
3752,80.0,0,120,0.0,0.0
3753,71.0,0,120,0.0,0.0
3754,44.0,100,150,0.0,0.0
3755,32.0,120,150,0.0,0.0
3756,78.0,0,120,0.0,0.0
3757,73.0,0,120,0.0,0.0
3758,69.0,20,120,0.0,0.0
3759,44.0,100,150,0.0,0.0
3760,68.0,20,120,0.0,0.0
3761,32.0,120,150,0.0,0.0
3762,71.0,0,120,0.0,0.0
3763,76.0,0,120,0.0,0.0
3764,44.0,100,150,0.0,0.0
3765,68.0,20,120,0.0,0.0
3766,76.0,0,120,0.0,0.0
3767,32.0,120,150,0.0,0.0
3768,71.0,0,120,0.0,0.0
3769,44.0,100,150,0.0,0.0
3770,32.0,120,150,0.0,0.0
3771,73.0,0,120,0.0,0.0
3772,78.0,0,120,0.0,0.0
3773,69.0,20,120,0.0,0.0
3774,44.0,100,150,0.0,0.0
3775,76.0,20,120,0.0,0.0
3776,68.0,0,120,0.0,0.0
3777,71.0,0,120,0.0,0.0
3778,32.0,120,150,0.0,0.0
3779,44.0,100,150,0.0,0.0
3780,32.0,120,150,0.0,0.0
3781,66.0,20,120,0.0,0.0
3782,75.0,0,120,0.0,0.0
3783,69.0,0,120,0.0,0.0
3784,44.0,100,150,0.0,0.0
3785,32.0,120,150,0.0,0.0
3786,66.0,20,120,0.0,0.0
3787,75.0,0,120,0.0,0.0
3788,69.0,0,120,0.0,0.0
3789,44.0,100,150,0.0,0.0
3790,32.0,120,150,0.0,0.0
3791,76.0,0,120,0.0,0.0
3792,71.0,0,120,0.0,0.0
3793,68.0,20,120,0.0,0.0
3794,44.0,100,150,0.0,0.0
3795,69.0,0,120,0.0,0.0
3796,66.0,0,120,0.0,0.0
3797,32.0,120,150,0.0,0.0
3798,75.0,20,120,0.0,0.0
3799,44.0,100,150,0.0,0.0
3800,32.0,120,150,0.0,0.0
3801,64.0,20,120,0.0,0.0
3802,68.0,0,120,0.0,0.0
3803,73.0,0,120,0.0,0.0
3804,44.0,100,150,0.0,0.0
3805,64.0,0,120,0.0,0.0
3806,68.0,20,120,0.0,0.0
3807,32.0,120,150,0.0,0.0
3808,73.0,0,120,0.0,0.0
3809,44.0,100,150,0.0,0.0
3810,75.0,0,120,0.0,0.0
3811,69.0,20,120,0.0,0.0
3812,32.0,120,150,0.0,0.0
3813,66.0,0,120,0.0,0.0
3814,44.0,100,150,0.0,0.0
3815,32.0,120,150,0.0,0.0
3816,68.0,0,120,0.0,0.0
3817,64.0,0,120,0.0,0.0
3818,73.0,20,120,0.0,0.0
3819,44.0,120,150,0.0,0.0
3820,32.0,120,150,0.0,0.0
3821,66.0,0,960,0.0,0.0
3822,63.0,20,960,0.0,0.0
3823,72.0,0,960,0.0,0.0
3824,44.0,120,150,0.0,0.0
3825,32.0,120,150,0.0,0.0
3826,44.0,120,150,0.0,0.0
3827,32.0,120,150,0.0,0.0
3828,44.0,120,150,0.0,0.0
3829,32.0,100,150,0.0,0.0
3830,44.0,120,150,0.0,0.0
3831,61.0,20,840,0.0,0.0
3832,64.0,0,840,0.0,0.0
3833,73.0,0,840,0.0,0.0
3834,32.0,120,150,0.0,0.0
3835,44.0,120,150,0.0,0.0
3836,32.0,120,150,0.0,0.0
3837,44.0,120,150,0.0,0.0
3838,32.0,120,150,0.0,0.0
3839,44.0,100,150,0.0,0.0
3840,32.0,40,150,0.0,0.0
3841,44.0,120,150,0.0,0.0
3842,60.0,60,60,0.0,0.0
3843,66.0,20,60,0.0,0.0
3844,75.0,20,1440,0.0,0.0
3845,32.0,120,150,0.0,0.0
3846,66.0,0,1440,0.0,0.0
3847,44.0,120,150,0.0,0.0
3848,32.0,120,150,0.0,0.0
3849,44.0,120,150,0.0,0.0
3850,32.0,120,150,0.0,0.0
3851,44.0,120,150,0.0,0.0
3852,32.0,120,150,0.0,0.0
3853,44.0,120,150,0.0,0.0
3854,32.0,120,150,0.0,0.0
3855,44.0,120,150,0.0,0.0
3856,32.0,100,150,0.0,0.0
3857,44.0,120,150,0.0,0.0
3858,32.0,120,150,0.0,0.0
3859,73.0,20,480,0.0,0.0
3860,64.0,0,480,0.0,0.0
3861,68.0,0,480,0.0,0.0
3862,44.0,120,150,0.0,0.0
3863,32.0,100,150,0.0,0.0
3864,44.0,120,150,0.0,0.0
3865,32.0,100,150,0.0,0.0
3866,66.0,0,240,0.0,0.0
3867,72.0,20,240,0.0,0.0
3868,63.0,0,240,0.0,0.0
3869,44.0,120,150,0.0,0.0
3870,32.0,120,150,0.0,0.0
3871,44.0,120,150,0.0,0.0
3872,66.0,0,240,0.0,0.0
3873,72.0,0,240,0.0,0.0
3874,63.0,20,240,0.0,0.0
3875,32.0,100,150,0.0,0.0
3876,44.0,120,150,0.0,0.0
3877,32.0,120,150,0.0,0.0
3878,44.0,120,150,0.0,0.0
3879,32.0,100,150,0.0,0.0
3880,61.0,20,240,0.0,0.0
3881,64.0,0,240,0.0,0.0
3882,73.0,0,240,0.0,0.0
3883,44.0,120,150,0.0,0.0
3884,32.0,120,150,0.0,0.0
3885,44.0,120,150,0.0,0.0
3886,61.0,0,240,0.0,0.0
3887,73.0,0,240,0.0,0.0
3888,64.0,20,240,0.0,0.0
3889,32.0,100,150,0.0,0.0
3890,44.0,120,150,0.0,0.0
3891,32.0,40,150,0.0,0.0
3892,44.0,120,150,0.0,0.0
3893,60.0,60,60,0.0,0.0
3894,66.0,20,15,0.0,0.0
3895,75.0,20,1440,0.0,0.0
3896,32.0,120,150,0.0,0.0
3897,44.0,120,150,0.0,0.0
3898,32.0,120,150,0.0,0.0
3899,44.0,120,150,0.0,0.0
3900,32.0,120,150,0.0,0.0
3901,44.0,120,150,0.0,0.0
3902,32.0,120,150,0.0,0.0
3903,44.0,120,150,0.0,0.0
3904,32.0,120,150,0.0,0.0
3905,44.0,120,150,0.0,0.0
3906,32.0,100,150,0.0,0.0
3907,44.0,120,150,0.0,0.0
3908,32.0,100,150,0.0,0.0
3909,61.0,20,240,0.0,0.0
3910,64.0,0,240,0.0,0.0
3911,44.0,120,150,0.0,0.0
3912,32.0,100,150,0.0,0.0
3913,73.0,20,240,0.0,0.0
3914,44.0,120,150,0.0,0.0
3915,63.0,0,240,0.0,0.0
3916,32.0,100,150,0.0,0.0
3917,66.0,20,240,0.0,0.0
3918,44.0,120,150,0.0,0.0
3919,72.0,20,240,0.0,0.0
3920,32.0,100,150,0.0,0.0
3921,44.0,120,150,0.0,0.0
3922,32.0,100,150,0.0,0.0
3923,66.0,20,240,0.0,0.0
3924,63.0,0,240,0.0,0.0
3925,44.0,120,150,0.0,0.0
3926,32.0,100,150,0.0,0.0
3927,72.0,20,240,0.0,0.0
3928,44.0,120,150,0.0,0.0
3929,64.0,0,240,0.0,0.0
3930,61.0,20,240,0.0,0.0
3931,32.0,100,150,0.0,0.0
3932,44.0,120,150,0.0,0.0
3933,32.0,100,150,0.0,0.0
3934,73.0,20,240,0.0,0.0
3935,44.0,120,150,0.0,0.0
3936,61.0,20,240,0.0,0.0
3937,64.0,0,240,0.0,0.0
3938,32.0,100,150,0.0,0.0
3939,44.0,120,150,0.0,0.0
3940,73.0,20,240,0.0,0.0
3941,32.0,100,150,0.0,0.0
3942,44.0,120,150,0.0,0.0
3943,66.0,20,240,0.0,0.0
3944,60.0,0,240,0.0,0.0
3945,32.0,100,150,0.0,0.0
3946,44.0,120,150,0.0,0.0
3947,75.0,20,240,0.0,0.0
3948,32.0,100,150,0.0,0.0
3949,44.0,120,150,0.0,0.0
3950,32.0,100,150,0.0,0.0
3951,66.0,20,240,0.0,0.0
3952,60.0,0,240,0.0,0.0
3953,44.0,120,150,0.0,0.0
3954,32.0,100,150,0.0,0.0
3955,75.0,20,240,0.0,0.0
3956,44.0,120,150,0.0,0.0
3957,64.0,0,240,0.0,0.0
3958,61.0,20,240,0.0,0.0
3959,33.0,100,150,0.0,0.0
3960,45.0,120,150,0.0,0.0
3961,33.0,100,150,0.0,0.0
3962,73.0,20,240,0.0,0.0
3963,45.0,120,150,0.0,0.0
3964,64.0,0,240,0.0,0.0
3965,33.0,100,150,0.0,0.0
3966,61.0,20,240,0.0,0.0
3967,45.0,120,150,0.0,0.0
3968,73.0,20,240,0.0,0.0
3969,33.0,100,150,0.0,0.0
3970,45.0,1900,150,0.0,0.0
3971,42.0,0,1920,0.0,0.0
3972,30.0,1920,1920,0.0,0.0
3973,61.0,0,1920,0.0,0.0
3974,57.0,0,1920,0.0,0.0
3975,69.0,0,1920,0.0,0.0
3976,63.0,0,15,0.0,0.0
3977,68.0,0,1920,0.0,0.0
3978,56.0,0,1920,0.0,0.0
3979,60.0,0,1920,0.0,0.0
3980,32.0,0,1920,0.0,0.0
3981,44.0,120,1920,0.0,0.0
3982,37.0,140,120,0.0,0.0
3983,44.0,100,20,0.0,0.0
3984,49.0,120,150,0.0,0.0
3985,52.0,100,150,0.0,0.0
3986,56.0,120,150,0.0,0.0
3987,37.0,20,120,0.0,0.0
3988,49.0,100,150,0.0,0.0
3989,52.0,120,150,0.0,0.0
3990,44.0,20,120,0.0,0.0
3991,56.0,100,150,0.0,0.0
3992,61.0,120,150,0.0,0.0
3993,37.0,20,120,0.0,0.0
3994,52.0,100,150,0.0,0.0
3995,44.0,20,120,0.0,0.0
3996,56.0,120,150,0.0,0.0
3997,61.0,100,150,0.0,0.0
3998,37.0,20,120,0.0,0.0
3999,64.0,120,150,0.0,0.0
4000,56.0,100,150,0.0,0.0
4001,61.0,120,150,0.0,0.0
4002,44.0,20,120,0.0,0.0
4003,64.0,100,150,0.0,0.0
4004,68.0,120,150,0.0,0.0
4005,37.0,20,120,0.0,0.0
4006,61.0,100,150,0.0,0.0
4007,44.0,20,120,0.0,0.0
4008,64.0,120,150,0.0,0.0
4009,68.0,100,150,0.0,0.0
4010,73.0,120,150,0.0,0.0
4011,37.0,20,120,0.0,0.0
4012,64.0,100,150,0.0,0.0
4013,44.0,20,120,0.0,0.0
4014,68.0,120,150,0.0,0.0
4015,73.0,100,150,0.0,0.0
4016,76.0,120,150,0.0,0.0
4017,37.0,20,120,0.0,0.0
4018,68.0,100,150,0.0,0.0
4019,73.0,100,150,0.0,0.0
4020,44.0,20,120,0.0,0.0
4021,76.0,120,120,0.0,0.0
4022,73.0,0,120,0.0,0.0
4023,80.0,0,120,0.0,0.0
4024,68.0,0,120,0.0,0.0
4025,76.0,0,120,0.0,0.0
4026,37.0,240,120,0.0,0.0
4027,49.0,0,120,0.0,0.0
4028,44.0,0,120,0.0,0.0
4029,68.0,0,120,0.0,0.0
4030,73.0,0,120,0.0,0.0
4031,76.0,240,120,0.0,0.0
4032,80.0,0,120,0.0,0.0
4033,36.0,140,120,0.0,0.0
4034,44.0,100,20,0.0,0.0
4035,48.0,120,150,0.0,0.0
4036,51.0,100,150,0.0,0.0
4037,36.0,20,120,0.0,0.0
4038,56.0,120,150,0.0,0.0
4039,48.0,100,150,0.0,0.0
4040,44.0,20,120,0.0,0.0
4041,51.0,120,150,0.0,0.0
4042,56.0,100,150,0.0,0.0
4043,60.0,120,150,0.0,0.0
4044,36.0,20,120,0.0,0.0
4045,51.0,100,150,0.0,0.0
4046,56.0,120,150,0.0,0.0
4047,44.0,20,120,0.0,0.0
4048,60.0,100,150,0.0,0.0
4049,63.0,120,150,0.0,0.0
4050,36.0,20,120,0.0,0.0
4051,56.0,100,150,0.0,0.0
4052,44.0,20,120,0.0,0.0
4053,60.0,120,150,0.0,0.0
4054,63.0,100,150,0.0,0.0
4055,68.0,120,150,0.0,0.0
4056,36.0,20,120,0.0,0.0
4057,60.0,100,150,0.0,0.0
4058,44.0,20,120,0.0,0.0
4059,63.0,120,150,0.0,0.0
4060,68.0,100,150,0.0,0.0
4061,36.0,20,120,0.0,0.0
4062,72.0,120,150,0.0,0.0
4063,63.0,100,150,0.0,0.0
4064,44.0,20,120,0.0,0.0
4065,68.0,120,150,0.0,0.0
4066,72.0,100,150,0.0,0.0
4067,75.0,120,150,0.0,0.0
4068,36.0,20,120,0.0,0.0
4069,68.0,100,150,0.0,0.0
4070,72.0,100,150,0.0,0.0
4071,44.0,20,120,0.0,0.0
4072,36.0,0,120,0.0,0.0
4073,48.0,0,120,0.0,0.0
4074,72.0,0,120,0.0,0.0
4075,75.0,120,15,0.0,0.0
4076,80.0,0,120,0.0,0.0
4077,68.0,0,120,0.0,0.0
4078,75.0,0,120,0.0,0.0
4079,68.0,0,120,0.0,0.0
4080,80.0,0,120,0.0,0.0
4081,72.0,0,120,0.0,0.0
4082,44.0,240,120,0.0,0.0
4083,35.0,140,120,0.0,0.0
4084,49.0,100,150,0.0,0.0
4085,44.0,20,120,0.0,0.0
4086,53.0,120,150,0.0,0.0
4087,56.0,100,150,0.0,0.0
4088,35.0,20,120,0.0,0.0
4089,61.0,120,150,0.0,0.0
4090,52.0,100,150,0.0,0.0
4091,56.0,120,150,0.0,0.0
4092,44.0,20,120,0.0,0.0
4093,61.0,100,150,0.0,0.0
4094,65.0,120,150,0.0,0.0
4095,35.0,20,120,0.0,0.0
4096,56.0,100,150,0.0,0.0
4097,61.0,120,150,0.0,0.0
4098,44.0,20,120,0.0,0.0
4099,65.0,100,150,0.0,0.0
4100,68.0,120,150,0.0,0.0
4101,35.0,20,120,0.0,0.0
4102,61.0,100,150,0.0,0.0
4103,65.0,120,150,0.0,0.0
4104,44.0,20,120,0.0,0.0
4105,68.0,100,150,0.0,0.0
4106,73.0,120,150,0.0,0.0
4107,35.0,20,120,0.0,0.0
4108,65.0,100,150,0.0,0.0
4109,44.0,20,120,0.0,0.0
4110,68.0,120,150,0.0,0.0
4111,73.0,100,150,0.0,0.0
4112,77.0,120,150,0.0,0.0
4113,35.0,20,120,0.0,0.0
4114,68.0,100,150,0.0,0.0
4115,73.0,120,150,0.0,0.0
4116,44.0,20,120,0.0,0.0
4117,77.0,100,150,0.0,0.0
4118,35.0,20,120,0.0,0.0
4119,80.0,120,150,0.0,0.0
4120,73.0,100,150,0.0,0.0
4121,77.0,100,150,0.0,0.0
4122,44.0,20,120,0.0,0.0
4123,80.0,120,120,0.0,0.0
4124,47.0,0,120,0.0,0.0
4125,73.0,240,120,0.0,0.0
4126,77.0,0,120,0.0,0.0
4127,80.0,0,120,0.0,0.0
4128,85.0,0,120,0.0,0.0
4129,35.0,0,120,0.0,0.0
4130,73.0,0,120,0.0,0.0
4131,85.0,240,120,0.0,0.0
4132,77.0,0,120,0.0,0.0
4133,80.0,0,120,0.0,0.0
4134,44.0,0,120,0.0,0.0
4135,33.0,140,120,0.0,0.0
4136,49.0,100,150,0.0,0.0
4137,54.0,120,150,0.0,0.0
4138,45.0,20,120,0.0,0.0
4139,57.0,40,150,0.0,0.0
4140,61.0,60,60,0.0,0.0
4141,33.0,140,120,0.0,0.0
4142,61.0,100,150,0.0,0.0
4143,66.0,120,150,0.0,0.0
4144,45.0,20,120,0.0,0.0
4145,69.0,40,150,0.0,0.0
4146,33.0,140,120,0.0,0.0
4147,73.0,60,60,0.0,0.0
4148,73.0,100,150,0.0,0.0
4149,78.0,120,150,0.0,0.0
4150,45.0,20,120,0.0,0.0
4151,81.0,100,150,0.0,0.0
4152,33.0,0,120,0.0,0.0
4153,73.0,240,120,0.0,0.0
4154,78.0,0,120,0.0,0.0
4155,85.0,0,120,0.0,0.0
4156,45.0,0,120,0.0,0.0
4157,73.0,0,120,0.0,0.0
4158,78.0,240,120,0.0,0.0
4159,85.0,0,120,0.0,0.0
4160,33.0,140,120,0.0,0.0
4161,49.0,100,150,0.0,0.0
4162,45.0,20,120,0.0,0.0
4163,52.0,120,150,0.0,0.0
4164,55.0,40,150,0.0,0.0
4165,61.0,60,60,0.0,0.0
4166,33.0,140,120,0.0,0.0
4167,61.0,100,150,0.0,0.0
4168,64.0,120,150,0.0,0.0
4169,45.0,20,120,0.0,0.0
4170,67.0,40,150,0.0,0.0
4171,33.0,140,120,0.0,0.0
4172,73.0,60,60,0.0,0.0
4173,73.0,100,150,0.0,0.0
4174,76.0,100,150,0.0,0.0
4175,45.0,20,120,0.0,0.0
4176,33.0,0,120,0.0,0.0
4177,79.0,120,15,0.0,0.0
4178,85.0,0,120,0.0,0.0
4179,73.0,0,120,0.0,0.0
4180,73.0,0,120,0.0,0.0
4181,79.0,0,120,0.0,0.0
4182,85.0,360,120,0.0,0.0
4183,45.0,0,120,0.0,0.0
4184,84.0,0,240,0.0,0.0
4185,32.0,0,240,0.0,0.0
4186,44.0,120,240,0.0,0.0
4187,80.0,0,240,0.0,0.0
4188,72.0,0,240,0.0,0.0
4189,68.0,120,120,0.0,0.0
4190,56.0,0,3600,0.0,0.0
4191,80.0,0,120,0.0,0.0
4192,68.0,120,120,0.0,0.0
4193,60.0,120,15,0.0,0.0
4194,80.0,120,120,0.0,0.0
4195,61.0,120,240,0.0,0.0
4196,70.0,120,120,0.0,0.0
4197,80.0,0,120,0.0,0.0
4198,72.0,120,120,0.0,0.0
4199,63.0,0,240,0.0,0.0
4200,80.0,120,120,0.0,0.0
4201,64.0,0,240,0.0,0.0
4202,73.0,120,120,0.0,0.0
4203,80.0,120,120,0.0,0.0
4204,66.0,0,240,0.0,0.0
4205,75.0,120,120,0.0,0.0
4206,80.0,120,120,0.0,0.0
4207,63.0,120,240,0.0,0.0
4208,72.0,120,120,0.0,0.0
4209,80.0,0,120,0.0,0.0
4210,75.0,120,120,0.0,0.0
4211,66.0,120,240,0.0,0.0
4212,80.0,0,120,0.0,0.0
4213,73.0,120,120,0.0,0.0
4214,64.0,120,240,0.0,0.0
4215,80.0,0,120,0.0,0.0
4216,69.0,0,240,0.0,0.0
4217,78.0,120,120,0.0,0.0
4218,80.0,120,120,0.0,0.0
4219,68.0,0,240,0.0,0.0
4220,76.0,120,120,0.0,0.0
4221,80.0,120,120,0.0,0.0
4222,66.0,0,240,0.0,0.0
4223,75.0,120,120,0.0,0.0
4224,80.0,120,120,0.0,0.0
4225,64.0,0,240,0.0,0.0
4226,73.0,120,120,0.0,0.0
4227,80.0,120,120,0.0,0.0
4228,72.0,120,120,0.0,0.0
4229,63.0,120,240,0.0,0.0
4230,80.0,0,120,0.0,0.0
4231,69.0,120,120,0.0,0.0
4232,61.0,0,240,0.0,0.0
4233,79.0,120,120,0.0,0.0
4234,60.0,120,240,0.0,0.0
4235,68.0,120,120,0.0,0.0
4236,56.0,120,3840,0.0,0.0
4237,80.0,0,120,0.0,0.0
4238,68.0,120,120,0.0,0.0
4239,80.0,0,120,0.0,0.0
4240,60.0,120,15,0.0,0.0
4241,68.0,120,120,0.0,0.0
4242,80.0,120,120,0.0,0.0
4243,61.0,0,240,0.0,0.0
4244,70.0,120,120,0.0,0.0
4245,80.0,120,120,0.0,0.0
4246,63.0,0,240,0.0,0.0
4247,72.0,120,120,0.0,0.0
4248,80.0,120,120,0.0,0.0
4249,73.0,120,120,0.0,0.0
4250,64.0,0,240,0.0,0.0
4251,80.0,120,120,0.0,0.0
4252,66.0,120,240,0.0,0.0
4253,75.0,120,120,0.0,0.0
4254,80.0,0,120,0.0,0.0
4255,72.0,120,120,0.0,0.0
4256,63.0,120,240,0.0,0.0
4257,80.0,0,120,0.0,0.0
4258,75.0,120,120,0.0,0.0
4259,66.0,0,240,0.0,0.0
4260,80.0,120,120,0.0,0.0
4261,64.0,0,240,0.0,0.0
4262,73.0,120,120,0.0,0.0
4263,80.0,120,120,0.0,0.0
4264,69.0,0,240,0.0,0.0
4265,78.0,120,120,0.0,0.0
4266,80.0,120,120,0.0,0.0
4267,68.0,120,240,0.0,0.0
4268,76.0,120,120,0.0,0.0
4269,80.0,0,120,0.0,0.0
4270,66.0,120,240,0.0,0.0
4271,75.0,120,120,0.0,0.0
4272,80.0,0,120,0.0,0.0
4273,73.0,120,120,0.0,0.0
4274,64.0,0,240,0.0,0.0
4275,80.0,120,120,0.0,0.0
4276,63.0,0,240,0.0,0.0
4277,72.0,120,120,0.0,0.0
4278,80.0,120,120,0.0,0.0
4279,69.0,120,120,0.0,0.0
4280,61.0,0,240,0.0,0.0
4281,79.0,0,120,0.0,0.0
4282,68.0,0,120,0.0,0.0
4283,60.0,120,120,0.0,0.0
4284,56.0,0,120,0.0,0.0
4285,80.0,120,120,0.0,0.0
4286,56.0,0,120,0.0,0.0
4287,61.0,0,120,0.0,0.0
4288,69.0,120,120,0.0,0.0
4289,79.0,120,120,0.0,0.0
4290,56.0,0,120,0.0,0.0
4291,60.0,0,120,0.0,0.0
4292,68.0,120,120,0.0,0.0
4293,80.0,120,120,0.0,0.0
4294,56.0,0,120,0.0,0.0
4295,61.0,0,120,0.0,0.0
4296,69.0,120,120,0.0,0.0
4297,79.0,120,120,0.0,0.0
4298,56.0,0,120,0.0,0.0
4299,60.0,120,120,0.0,0.0
4300,68.0,0,120,0.0,0.0
4301,80.0,120,120,0.0,0.0
4302,69.0,120,120,0.0,0.0
4303,61.0,0,120,0.0,0.0
4304,56.0,0,120,0.0,0.0
4305,79.0,120,120,0.0,0.0
4306,60.0,0,120,0.0,0.0
4307,68.0,0,120,0.0,0.0
4308,56.0,120,120,0.0,0.0
4309,80.0,120,120,0.0,0.0
4310,56.0,0,120,0.0,0.0
4311,61.0,120,120,0.0,0.0
4312,69.0,0,120,0.0,0.0
4313,79.0,240,120,0.0,0.0
4314,56.0,1680,240,0.0,0.0
4315,60.0,0,240,0.0,0.0
4316,80.0,0,240,0.0,0.0
4317,68.0,0,240,0.0,0.0
4318,44.0,0,1440,0.0,0.0
4319,32.0,0,1440,0.0,0.0
4320,56.0,140,1440,0.0,0.0
4321,49.0,120,150,0.0,0.0
4322,56.0,120,150,0.0,0.0
4323,52.0,120,150,0.0,0.0
4324,56.0,120,150,0.0,0.0
4325,68.0,0,990,0.0,0.0
4326,49.0,120,150,0.0,0.0
4327,56.0,120,150,0.0,0.0
4328,52.0,120,150,0.0,0.0
4329,56.0,120,150,0.0,0.0
4330,49.0,120,150,0.0,0.0
4331,56.0,120,150,0.0,0.0
4332,52.0,120,150,0.0,0.0
4333,56.0,120,150,0.0,0.0
4334,64.0,40,390,0.0,0.0
4335,49.0,120,150,0.0,0.0
4336,56.0,120,150,0.0,0.0
4337,52.0,0,150,0.0,0.0
4338,56.0,120,150,0.0,0.0
4339,61.0,20,60,0.0,0.0
4340,60.0,20,20,0.0,0.0
4341,61.0,20,20,0.0,0.0
4342,63.0,20,20,0.0,0.0
4343,61.0,120,510,0.0,0.0
4344,51.0,120,150,0.0,0.0
4345,56.0,120,150,0.0,0.0
4346,54.0,120,150,0.0,0.0
4347,56.0,0,150,0.0,0.0
4348,51.0,120,150,0.0,0.0
4349,60.0,20,720,0.0,0.0
4350,56.0,120,150,0.0,0.0
4351,54.0,120,150,0.0,0.0
4352,56.0,120,150,0.0,0.0
4353,51.0,100,150,0.0,0.0
4354,56.0,120,150,0.0,0.0
4355,54.0,120,150,0.0,0.0
4356,60.0,120,270,0.0,0.0
4357,56.0,0,150,0.0,0.0
4358,68.0,20,360,0.0,0.0
4359,51.0,120,150,0.0,0.0
4360,56.0,100,150,0.0,0.0
4361,54.0,40,150,0.0,0.0
4362,56.0,120,150,0.0,0.0
4363,60.0,80,60,0.0,0.0
4364,63.0,0,510,0.0,0.0
4365,52.0,120,150,0.0,0.0
4366,56.0,120,150,0.0,0.0
4367,52.0,120,150,0.0,0.0
4368,56.0,120,150,0.0,0.0
4369,52.0,120,150,0.0,0.0
4370,56.0,120,150,0.0,0.0
4371,52.0,120,150,0.0,0.0
4372,56.0,120,150,0.0,0.0
4373,52.0,100,150,0.0,0.0
4374,56.0,120,150,0.0,0.0
4375,61.0,20,15,0.0,0.0
4376,52.0,120,150,0.0,0.0
4377,56.0,120,150,0.0,0.0
4378,68.0,20,360,0.0,0.0
4379,52.0,120,150,0.0,0.0
4380,56.0,100,150,0.0,0.0
4381,52.0,120,150,0.0,0.0
4382,61.0,0,150,0.0,0.0
4383,56.0,120,150,0.0,0.0
4384,48.0,120,150,0.0,0.0
4385,64.0,120,510,0.0,0.0
4386,56.0,120,150,0.0,0.0
4387,48.0,120,150,0.0,0.0
4388,56.0,0,150,0.0,0.0
4389,48.0,120,150,0.0,0.0
4390,56.0,120,150,0.0,0.0
4391,48.0,120,150,0.0,0.0
4392,56.0,120,150,0.0,0.0
4393,48.0,100,150,0.0,0.0
4394,56.0,120,150,0.0,0.0
4395,48.0,120,150,0.0,0.0
4396,63.0,20,15,0.0,0.0
4397,56.0,120,150,0.0,0.0
4398,48.0,120,150,0.0,0.0
4399,68.0,0,390,0.0,0.0
4400,56.0,120,150,0.0,0.0
4401,48.0,100,150,0.0,0.0
4402,56.0,100,150,0.0,0.0
4403,63.0,20,120,0.0,0.0
4404,64.0,20,120,0.0,0.0
4405,49.0,120,150,0.0,0.0
4406,56.0,120,150,0.0,0.0
4407,52.0,120,150,0.0,0.0
4408,80.0,0,480,0.0,0.0
4409,56.0,120,150,0.0,0.0
4410,49.0,100,150,0.0,0.0
4411,56.0,120,150,0.0,0.0
4412,52.0,120,150,0.0,0.0
4413,68.0,20,15,0.0,0.0
4414,56.0,120,150,0.0,0.0
4415,49.0,100,150,0.0,0.0
4416,56.0,100,150,0.0,0.0
4417,52.0,120,150,0.0,0.0
4418,68.0,0,15,0.0,0.0
4419,80.0,20,15,0.0,0.0
4420,56.0,100,150,0.0,0.0
4421,49.0,120,150,0.0,0.0
4422,76.0,0,120,0.0,0.0
4423,64.0,20,120,0.0,0.0
4424,56.0,100,150,0.0,0.0
4425,73.0,20,120,0.0,0.0
4426,52.0,120,150,0.0,0.0
4427,61.0,0,120,0.0,0.0
4428,56.0,100,150,0.0,0.0
4429,61.0,20,120,0.0,0.0
4430,73.0,0,120,0.0,0.0
4431,51.0,120,150,0.0,0.0
4432,56.0,120,150,0.0,0.0
4433,54.0,120,150,0.0,0.0
4434,60.0,20,480,0.0,0.0
4435,72.0,0,480,0.0,0.0
4436,56.0,120,150,0.0,0.0
4437,51.0,100,150,0.0,0.0
4438,56.0,120,150,0.0,0.0
4439,54.0,120,150,0.0,0.0
4440,72.0,0,480,0.0,0.0
4441,56.0,120,150,0.0,0.0
4442,51.0,100,150,0.0,0.0
4443,56.0,100,150,0.0,0.0
4444,72.0,0,120,0.0,0.0
4445,54.0,120,150,0.0,0.0
4446,60.0,20,15,0.0,0.0
4447,56.0,100,150,0.0,0.0
4448,80.0,0,120,0.0,0.0
4449,68.0,20,120,0.0,0.0
4450,51.0,120,150,0.0,0.0
4451,56.0,100,150,0.0,0.0
4452,60.0,0,120,0.0,0.0
4453,72.0,20,120,0.0,0.0
4454,54.0,120,150,0.0,0.0
4455,56.0,100,150,0.0,0.0
4456,52.0,120,150,0.0,0.0
4457,63.0,0,120,0.0,0.0
4458,75.0,20,120,0.0,0.0
4459,56.0,120,150,0.0,0.0
4460,73.0,0,480,0.0,0.0
4461,52.0,120,150,0.0,0.0
4462,56.0,120,150,0.0,0.0
4463,52.0,100,150,0.0,0.0
4464,56.0,120,150,0.0,0.0
4465,61.0,20,15,0.0,0.0
4466,73.0,0,480,0.0,0.0
4467,52.0,120,150,0.0,0.0
4468,56.0,120,150,0.0,0.0
4469,52.0,100,150,0.0,0.0
4470,56.0,100,150,0.0,0.0
4471,52.0,120,150,0.0,0.0
4472,73.0,20,120,0.0,0.0
4473,61.0,0,120,0.0,0.0
4474,56.0,100,150,0.0,0.0
4475,52.0,120,150,0.0,0.0
4476,80.0,20,120,0.0,0.0
4477,68.0,0,120,0.0,0.0
4478,56.0,100,150,0.0,0.0
4479,61.0,0,120,0.0,0.0
4480,73.0,20,120,0.0,0.0
4481,52.0,120,150,0.0,0.0
4482,56.0,100,150,0.0,0.0
4483,48.0,120,150,0.0,0.0
4484,64.0,20,120,0.0,0.0
4485,76.0,0,120,0.0,0.0
4486,56.0,120,150,0.0,0.0
4487,48.0,120,150,0.0,0.0
4488,56.0,120,150,0.0,0.0
4489,48.0,100,150,0.0,0.0
4490,56.0,120,150,0.0,0.0
4491,63.0,0,15,0.0,0.0
4492,75.0,20,15,0.0,0.0
4493,48.0,120,150,0.0,0.0
4494,56.0,120,150,0.0,0.0
4495,48.0,100,150,0.0,0.0
4496,56.0,100,150,0.0,0.0
4497,75.0,0,15,0.0,0.0
4498,63.0,20,15,0.0,0.0
4499,48.0,120,150,0.0,0.0
4500,56.0,100,150,0.0,0.0
4501,80.0,0,120,0.0,0.0
4502,48.0,120,150,0.0,0.0
4503,68.0,20,120,0.0,0.0
4504,56.0,100,150,0.0,0.0
4505,75.0,20,120,0.0,0.0
4506,48.0,120,150,0.0,0.0
4507,63.0,0,120,0.0,0.0
4508,56.0,120,150,0.0,0.0
4509,77.0,0,960,0.0,0.0
4510,47.0,120,150,0.0,0.0
4511,65.0,20,960,0.0,0.0
4512,56.0,120,150,0.0,0.0
4513,49.0,120,150,0.0,0.0
4514,56.0,120,150,0.0,0.0
4515,47.0,120,150,0.0,0.0
4516,56.0,120,150,0.0,0.0
4517,49.0,100,150,0.0,0.0
4518,56.0,120,150,0.0,0.0
4519,66.0,20,960,0.0,0.0
4520,78.0,0,960,0.0,0.0
4521,45.0,120,150,0.0,0.0
4522,54.0,120,150,0.0,0.0
4523,49.0,120,150,0.0,0.0
4524,54.0,120,150,0.0,0.0
4525,45.0,120,150,0.0,0.0
4526,54.0,120,150,0.0,0.0
4527,49.0,100,150,0.0,0.0
4528,54.0,55,150,0.0,0.0
4529,75.0,65,60,0.0,0.0
4530,63.0,0,480,0.0,0.0
4531,45.0,10,150,0.0,0.0
4532,76.0,75,60,0.0,0.0
4533,54.0,40,150,0.0,0.0
4534,75.0,35,60,0.0,0.0
4535,76.0,80,60,0.0,0.0
4536,47.0,10,150,0.0,0.0
4537,73.0,90,90,0.0,0.0
4538,54.0,120,150,0.0,0.0
4539,75.0,20,90,0.0,0.0
4540,44.0,120,150,0.0,0.0
4541,64.0,20,1440,0.0,0.0
4542,76.0,0,1440,0.0,0.0
4543,52.0,120,150,0.0,0.0
4544,47.0,120,150,0.0,0.0
4545,52.0,120,150,0.0,0.0
4546,44.0,120,150,0.0,0.0
4547,52.0,120,150,0.0,0.0
4548,47.0,120,150,0.0,0.0
4549,52.0,120,150,0.0,0.0
4550,44.0,120,150,0.0,0.0
4551,52.0,120,150,0.0,0.0
4552,47.0,100,150,0.0,0.0
4553,52.0,120,150,0.0,0.0
4554,43.0,120,150,0.0,0.0
4555,61.0,0,960,0.0,0.0
4556,73.0,20,960,0.0,0.0
4557,52.0,120,150,0.0,0.0
4558,45.0,120,150,0.0,0.0
4559,52.0,120,150,0.0,0.0
4560,43.0,120,150,0.0,0.0
4561,52.0,120,150,0.0,0.0
4562,45.0,100,150,0.0,0.0
4563,52.0,120,150,0.0,0.0
4564,42.0,120,150,0.0,0.0
4565,74.0,20,960,0.0,0.0
4566,62.0,0,960,0.0,0.0
4567,50.0,120,150,0.0,0.0
4568,45.0,120,150,0.0,0.0
4569,50.0,120,150,0.0,0.0
4570,42.0,120,150,0.0,0.0
4571,50.0,120,150,0.0,0.0
4572,45.0,100,150,0.0,0.0
4573,50.0,55,150,0.0,0.0
4574,60.0,0,480,0.0,0.0
4575,72.0,65,60,0.0,0.0
4576,42.0,10,150,0.0,0.0
4577,73.0,75,60,0.0,0.0
4578,51.0,40,150,0.0,0.0
4579,72.0,35,60,0.0,0.0
4580,73.0,80,60,0.0,0.0
4581,44.0,10,150,0.0,0.0
4582,70.0,90,90,0.0,0.0
4583,51.0,120,150,0.0,0.0
4584,71.0,20,90,0.0,0.0
4585,40.0,120,150,0.0,0.0
4586,61.0,0,1440,0.0,0.0
4587,73.0,20,1440,0.0,0.0
4588,49.0,120,150,0.0,0.0
4589,44.0,120,150,0.0,0.0
4590,49.0,120,150,0.0,0.0
4591,40.0,120,150,0.0,0.0
4592,49.0,120,150,0.0,0.0
4593,44.0,120,150,0.0,0.0
4594,49.0,120,150,0.0,0.0
4595,40.0,120,150,0.0,0.0
4596,49.0,120,150,0.0,0.0
4597,42.0,100,150,0.0,0.0
4598,49.0,1060,150,0.0,0.0
4599,45.0,0,1440,0.0,0.0
4600,54.0,120,1440,0.0,0.0
4601,50.0,0,1440,0.0,0.0
4602,42.0,0,1440,0.0,0.0
4603,66.0,0,1080,0.0,0.0
4604,74.0,120,1080,0.0,0.0
4605,62.0,0,1080,0.0,0.0
4606,69.0,0,1080,0.0,0.0
4607,69.0,120,120,0.0,0.0
4608,71.0,120,120,0.0,0.0
4609,73.0,0,120,0.0,0.0
4610,74.0,120,120,0.0,0.0
4611,76.0,120,120,0.0,0.0
4612,78.0,120,120,0.0,0.0
4613,76.0,120,120,0.0,0.0
4614,54.0,0,480,0.0,0.0
4615,62.0,4,480,0.0,0.0
4616,74.0,120,120,0.0,0.0
4617,57.0,120,480,0.0,0.0
4618,69.0,120,120,0.0,0.0
4619,71.0,116,120,0.0,0.0
4620,73.0,0,120,0.0,0.0
4621,74.0,120,120,0.0,0.0
4622,76.0,120,120,0.0,0.0
4623,78.0,120,120,0.0,0.0
4624,76.0,120,120,0.0,0.0
4625,74.0,120,120,0.0,0.0
4626,57.0,0,480,0.0,0.0
4627,62.0,120,480,0.0,0.0
4628,54.0,0,480,0.0,0.0
4629,69.0,120,120,0.0,0.0
4630,71.0,120,120,0.0,0.0
4631,73.0,0,120,0.0,0.0
4632,74.0,120,120,0.0,0.0
4633,76.0,120,120,0.0,0.0
4634,78.0,120,120,0.0,0.0
4635,76.0,120,120,0.0,0.0
4636,54.0,0,480,0.0,0.0
4637,74.0,120,120,0.0,0.0
4638,62.0,0,480,0.0,0.0
4639,69.0,120,120,0.0,0.0
4640,71.0,120,120,0.0,0.0
4641,73.0,0,120,0.0,0.0
4642,62.0,0,480,0.0,0.0
4643,57.0,120,15,0.0,0.0
4644,74.0,120,120,0.0,0.0
4645,76.0,120,120,0.0,0.0
4646,78.0,120,120,0.0,0.0
4647,79.0,0,120,0.0,0.0
4648,54.0,0,15,0.0,0.0
4649,57.0,120,15,0.0,0.0
4650,81.0,120,120,0.0,0.0
4651,80.0,120,120,0.0,0.0
4652,81.0,120,120,0.0,0.0
4653,80.0,0,120,0.0,0.0
4654,81.0,120,120,0.0,0.0
4655,57.0,0,480,0.0,0.0
4656,62.0,120,15,0.0,0.0
4657,54.0,140,480,0.0,0.0
4658,78.0,120,120,0.0,0.0
4659,76.0,120,120,0.0,0.0
4660,74.0,0,120,0.0,0.0
4661,73.0,20,960,0.0,0.0
4662,56.0,120,150,0.0,0.0
4663,64.0,120,150,0.0,0.0
4664,61.0,120,150,0.0,0.0
4665,64.0,120,150,0.0,0.0
4666,56.0,120,150,0.0,0.0
4667,64.0,120,150,0.0,0.0
4668,61.0,100,150,0.0,0.0
4669,64.0,60,150,0.0,0.0
4670,75.0,60,90,0.0,0.0
4671,56.0,20,150,0.0,0.0
4672,76.0,75,90,0.0,0.0
4673,66.0,50,150,0.0,0.0
4674,75.0,25,60,0.0,0.0
4675,76.0,70,60,0.0,0.0
4676,60.0,5,150,0.0,0.0
4677,75.0,75,60,0.0,0.0
4678,66.0,30,150,0.0,0.0
4679,76.0,40,60,0.0,0.0
4680,75.0,70,60,0.0,0.0
4681,56.0,40,150,0.0,0.0
4682,76.0,20,60,0.0,0.0
4683,75.0,60,60,0.0,0.0
4684,66.0,40,150,0.0,0.0
4685,76.0,20,60,0.0,0.0
4686,60.0,40,150,0.0,0.0
4687,75.0,60,60,0.0,0.0
4688,76.0,20,60,0.0,0.0
4689,66.0,220,150,0.0,0.0
4690,75.0,80,60,0.0,0.0
4691,61.0,0,240,0.0,0.0
4692,57.0,840,240,0.0,0.0
4693,73.0,0,240,0.0,0.0
4694,64.0,0,240,0.0,0.0
4695,62.0,120,600,0.0,0.0
4696,50.0,0,600,0.0,0.0
4697,54.0,0,600,0.0,0.0
4698,57.0,0,600,0.0,0.0
4699,33.0,0,960,0.0,0.0
4700,38.0,0,960,0.0,0.0
4701,42.0,0,960,0.0,0.0
4702,30.0,0,960,0.0,0.0
4703,57.0,120,120,0.0,0.0
4704,59.0,120,120,0.0,0.0
4705,61.0,120,120,0.0,0.0
4706,62.0,120,120,0.0,0.0
4707,64.0,120,120,0.0,0.0
4708,66.0,120,120,0.0,0.0
4709,64.0,120,120,0.0,0.0
4710,62.0,120,120,0.0,0.0
4711,57.0,120,120,0.0,0.0
4712,59.0,120,120,0.0,0.0
4713,61.0,120,120,0.0,0.0
4714,50.0,0,480,0.0,0.0
4715,45.0,120,480,0.0,0.0
4716,42.0,0,480,0.0,0.0
4717,62.0,120,120,0.0,0.0
4718,64.0,120,120,0.0,0.0
4719,66.0,120,120,0.0,0.0
4720,64.0,0,120,0.0,0.0
4721,62.0,120,120,0.0,0.0
4722,57.0,120,120,0.0,0.0
4723,59.0,120,120,0.0,0.0
4724,61.0,120,120,0.0,0.0
4725,50.0,120,480,0.0,0.0
4726,62.0,120,120,0.0,0.0
4727,45.0,0,480,0.0,0.0
4728,42.0,0,480,0.0,0.0
4729,64.0,120,120,0.0,0.0
4730,66.0,120,120,0.0,0.0
4731,64.0,0,120,0.0,0.0
4732,62.0,120,120,0.0,0.0
4733,57.0,120,120,0.0,0.0
4734,59.0,120,120,0.0,0.0
4735,50.0,0,240,0.0,0.0
4736,42.0,0,240,0.0,0.0
4737,45.0,120,240,0.0,0.0
4738,61.0,0,120,0.0,0.0
4739,62.0,120,120,0.0,0.0
4740,64.0,120,120,0.0,0.0
4741,50.0,0,240,0.0,0.0
4742,45.0,0,240,0.0,0.0
4743,42.0,0,240,0.0,0.0
4744,66.0,120,120,0.0,0.0
4745,67.0,120,120,0.0,0.0
4746,69.0,120,120,0.0,0.0
4747,71.0,120,120,0.0,0.0
4748,42.0,120,240,0.0,0.0
4749,50.0,0,240,0.0,0.0
4750,73.0,120,120,0.0,0.0
4751,45.0,0,240,0.0,0.0
4752,74.0,0,120,0.0,0.0
4753,76.0,120,120,0.0,0.0
4754,78.0,120,120,0.0,0.0
4755,79.0,120,120,0.0,0.0
4756,45.0,0,240,0.0,0.0
4757,50.0,140,240,0.0,0.0
4758,80.0,0,120,0.0,0.0
4759,42.0,0,15,0.0,0.0
4760,81.0,20,960,0.0,0.0
4761,69.0,0,960,0.0,0.0
4762,50.0,120,150,0.0,0.0
4763,45.0,120,150,0.0,0.0
4764,50.0,120,150,0.0,0.0
4765,42.0,120,150,0.0,0.0
4766,50.0,120,150,0.0,0.0
4767,45.0,100,150,0.0,0.0
4768,50.0,120,150,0.0,0.0
4769,61.0,0,960,0.0,0.0
4770,43.0,120,150,0.0,0.0
4771,73.0,20,960,0.0,0.0
4772,52.0,120,150,0.0,0.0
4773,46.0,120,150,0.0,0.0
4774,52.0,120,150,0.0,0.0
4775,43.0,120,150,0.0,0.0
4776,52.0,120,150,0.0,0.0
4777,46.0,100,150,0.0,0.0
4778,52.0,120,150,0.0,0.0
4779,44.0,120,150,0.0,0.0
4780,76.0,0,960,0.0,0.0
4781,64.0,20,960,0.0,0.0
4782,52.0,120,150,0.0,0.0
4783,49.0,120,150,0.0,0.0
4784,52.0,120,150,0.0,0.0
4785,44.0,120,150,0.0,0.0
4786,52.0,120,150,0.0,0.0
4787,49.0,100,150,0.0,0.0
4788,52.0,120,150,0.0,0.0
4789,54.0,0,960,0.0,0.0
4790,48.0,0,960,0.0,0.0
4791,60.0,20,960,0.0,0.0
4792,32.0,120,150,0.0,0.0
4793,44.0,120,150,0.0,0.0
4794,43.0,120,150,0.0,0.0
4795,44.0,120,150,0.0,0.0
4796,32.0,120,150,0.0,0.0
4797,44.0,120,150,0.0,0.0
4798,43.0,100,150,0.0,0.0
4799,44.0,220,150,0.0,0.0
4800,49.0,0,240,0.0,0.0
4801,52.0,0,240,0.0,0.0
4802,61.0,120,240,0.0,0.0
4803,37.0,0,240,0.0,0.0
4804,64.0,240,120,0.0,0.0
4805,56.0,0,120,0.0,0.0
4806,49.0,0,120,0.0,0.0
4807,56.0,240,120,0.0,0.0
4808,49.0,0,120,0.0,0.0
4809,64.0,0,120,0.0,0.0
4810,49.0,0,120,0.0,0.0
4811,56.0,240,120,0.0,0.0
4812,64.0,0,120,0.0,0.0
4813,56.0,240,120,0.0,0.0
4814,64.0,0,120,0.0,0.0
4815,49.0,0,120,0.0,0.0
4816,56.0,240,120,0.0,0.0
4817,49.0,0,120,0.0,0.0
4818,64.0,0,120,0.0,0.0
4819,51.0,0,120,0.0,0.0
4820,63.0,240,120,0.0,0.0
4821,56.0,0,120,0.0,0.0
4822,61.0,360,120,0.0,0.0
4823,52.0,0,120,0.0,0.0
4824,56.0,0,120,0.0,0.0
4825,42.0,0,240,0.0,0.0
4826,54.0,0,240,0.0,0.0
4827,56.0,0,240,0.0,0.0
4828,68.0,0,240,0.0,0.0
4829,56.0,0,240,0.0,0.0
4830,60.0,240,15,0.0,0.0
4831,54.0,0,240,0.0,0.0
4832,56.0,0,240,0.0,0.0
4833,54.0,0,240,0.0,0.0
4834,60.0,240,15,0.0,0.0
4835,68.0,0,15,0.0,0.0
4836,68.0,0,15,0.0,0.0
4837,60.0,0,240,0.0,0.0
4838,56.0,0,15,0.0,0.0
4839,54.0,240,15,0.0,0.0
4840,68.0,0,15,0.0,0.0
4841,60.0,0,240,0.0,0.0
4842,54.0,0,240,0.0,0.0
4843,68.0,240,15,0.0,0.0
4844,61.0,0,240,0.0,0.0
4845,52.0,240,240,0.0,0.0
4846,56.0,0,15,0.0,0.0
4847,51.0,240,240,0.0,0.0
4848,68.0,0,240,0.0,0.0
4849,63.0,0,240,0.0,0.0
4850,56.0,0,15,0.0,0.0
4851,68.0,0,240,0.0,0.0
4852,49.0,0,240,0.0,0.0
4853,37.0,0,240,0.0,0.0
4854,49.0,240,240,0.0,0.0
4855,64.0,240,15,0.0,0.0
4856,56.0,0,240,0.0,0.0
4857,56.0,0,240,0.0,0.0
4858,64.0,240,15,0.0,0.0
4859,49.0,0,15,0.0,0.0
4860,56.0,0,240,0.0,0.0
4861,64.0,0,240,0.0,0.0
4862,56.0,0,15,0.0,0.0
4863,64.0,240,240,0.0,0.0
4864,49.0,240,15,0.0,0.0
4865,56.0,0,15,0.0,0.0
4866,51.0,0,240,0.0,0.0
4867,63.0,0,240,0.0,0.0
4868,52.0,0,240,0.0,0.0
4869,56.0,240,15,0.0,0.0
4870,61.0,240,240,0.0,0.0
4871,56.0,0,240,0.0,0.0
4872,60.0,0,240,0.0,0.0
4873,44.0,240,240,0.0,0.0
4874,68.0,0,240,0.0,0.0
4875,54.0,0,15,0.0,0.0
4876,56.0,240,240,0.0,0.0
4877,60.0,0,15,0.0,0.0
4878,54.0,240,240,0.0,0.0
4879,68.0,0,240,0.0,0.0
4880,60.0,0,240,0.0,0.0
4881,56.0,0,15,0.0,0.0
4882,56.0,0,15,0.0,0.0
4883,54.0,0,15,0.0,0.0
4884,68.0,240,15,0.0,0.0
4885,54.0,0,240,0.0,0.0
4886,68.0,0,15,0.0,0.0
4887,60.0,0,15,0.0,0.0
4888,56.0,240,15,0.0,0.0
4889,68.0,240,15,0.0,0.0
4890,56.0,0,240,0.0,0.0
4891,61.0,240,240,0.0,0.0
4892,52.0,0,240,0.0,0.0
4893,56.0,120,240,0.0,0.0
4894,63.0,0,240,0.0,0.0
4895,68.0,0,15,0.0,0.0
4896,51.0,0,240,0.0,0.0
4897,68.0,0,15,0.0,0.0
4898,64.0,240,120,0.0,0.0
4899,37.0,0,120,0.0,0.0
4900,52.0,360,120,0.0,0.0
4901,68.0,0,120,0.0,0.0
4902,64.0,0,120,0.0,0.0
4903,49.0,0,120,0.0,0.0
4904,49.0,0,240,0.0,0.0
4905,68.0,0,240,0.0,0.0
4906,52.0,0,15,0.0,0.0
4907,64.0,240,15,0.0,0.0
4908,61.0,120,240,0.0,0.0
4909,56.0,0,240,0.0,0.0
4910,42.0,240,120,0.0,0.0
4911,69.0,0,120,0.0,0.0
4912,66.0,0,120,0.0,0.0
4913,49.0,0,120,0.0,0.0
4914,54.0,360,120,0.0,0.0
4915,49.0,240,240,0.0,0.0
4916,66.0,0,240,0.0,0.0
4917,69.0,0,240,0.0,0.0
4918,66.0,0,240,0.0,0.0
4919,61.0,120,240,0.0,0.0
4920,57.0,0,240,0.0,0.0
4921,54.0,0,15,0.0,0.0
4922,44.0,240,120,0.0,0.0
4923,64.0,0,120,0.0,0.0
4924,68.0,360,120,0.0,0.0
4925,52.0,0,120,0.0,0.0
4926,49.0,0,120,0.0,0.0
4927,49.0,240,240,0.0,0.0
4928,52.0,0,240,0.0,0.0
4929,68.0,0,240,0.0,0.0
4930,64.0,0,240,0.0,0.0
4931,61.0,0,240,0.0,0.0
4932,64.0,120,240,0.0,0.0
4933,52.0,0,240,0.0,0.0
4934,56.0,0,240,0.0,0.0
4935,44.0,240,120,0.0,0.0
4936,68.0,0,120,0.0,0.0
4937,63.0,0,120,0.0,0.0
4938,48.0,360,120,0.0,0.0
4939,51.0,0,120,0.0,0.0
4940,63.0,240,240,0.0,0.0
4941,68.0,0,240,0.0,0.0
4942,48.0,0,240,0.0,0.0
4943,51.0,0,240,0.0,0.0
4944,56.0,240,240,0.0,0.0
4945,51.0,0,240,0.0,0.0
4946,60.0,0,240,0.0,0.0
4947,63.0,0,240,0.0,0.0
4948,61.0,0,240,0.0,0.0
4949,64.0,0,240,0.0,0.0
4950,37.0,0,240,0.0,0.0
4951,49.0,240,240,0.0,0.0
4952,76.0,0,240,0.0,0.0
4953,64.0,0,240,0.0,0.0
4954,56.0,0,240,0.0,0.0
4955,68.0,0,15,0.0,0.0
4956,49.0,240,15,0.0,0.0
4957,76.0,0,240,0.0,0.0
4958,64.0,240,240,0.0,0.0
4959,56.0,0,240,0.0,0.0
4960,76.0,0,240,0.0,0.0
4961,68.0,0,240,0.0,0.0
4962,64.0,0,240,0.0,0.0
4963,49.0,240,15,0.0,0.0
4964,64.0,0,240,0.0,0.0
4965,56.0,0,15,0.0,0.0
4966,56.0,0,15,0.0,0.0
4967,49.0,0,15,0.0,0.0
4968,68.0,0,15,0.0,0.0
4969,76.0,240,15,0.0,0.0
4970,64.0,0,240,0.0,0.0
4971,51.0,240,240,0.0,0.0
4972,63.0,0,240,0.0,0.0
4973,66.0,0,240,0.0,0.0
4974,75.0,0,240,0.0,0.0
4975,61.0,0,240,0.0,0.0
4976,52.0,0,240,0.0,0.0
4977,56.0,0,15,0.0,0.0
4978,73.0,0,240,0.0,0.0
4979,64.0,0,240,0.0,0.0
4980,60.0,0,240,0.0,0.0
4981,63.0,240,240,0.0,0.0
4982,72.0,0,240,0.0,0.0
4983,44.0,0,240,0.0,0.0
4984,56.0,0,240,0.0,0.0
4985,54.0,0,240,0.0,0.0
4986,56.0,0,240,0.0,0.0
4987,75.0,0,240,0.0,0.0
4988,72.0,0,240,0.0,0.0
4989,66.0,0,15,0.0,0.0
4990,56.0,0,240,0.0,0.0
4991,84.0,240,15,0.0,0.0
4992,75.0,0,15,0.0,0.0
4993,72.0,0,15,0.0,0.0
4994,66.0,0,240,0.0,0.0
4995,56.0,0,15,0.0,0.0
4996,72.0,240,15,0.0,0.0
4997,75.0,0,15,0.0,0.0
4998,84.0,0,15,0.0,0.0
4999,72.0,0,15,0.0,0.0
5000,75.0,0,15,0.0,0.0
5001,84.0,0,240,0.0,0.0
5002,66.0,0,15,0.0,0.0
5003,85.0,0,240,0.0,0.0
5004,76.0,0,240,0.0,0.0
5005,73.0,0,240,0.0,0.0
5006,56.0,240,15,0.0,0.0
5007,64.0,0,240,0.0,0.0
5008,78.0,0,240,0.0,0.0
5009,75.0,0,240,0.0,0.0
5010,87.0,0,240,0.0,0.0
5011,56.0,240,15,0.0,0.0
5012,63.0,240,240,0.0,0.0
5013,76.0,0,240,0.0,0.0
5014,88.0,0,480,0.0,0.0
5015,80.0,240,240,0.0,0.0
5016,49.0,0,240,0.0,0.0
5017,37.0,0,240,0.0,0.0
5018,68.0,0,240,0.0,0.0
5019,76.0,0,240,0.0,0.0
5020,49.0,240,15,0.0,0.0
5021,56.0,0,15,0.0,0.0
5022,64.0,0,15,0.0,0.0
5023,76.0,0,240,0.0,0.0
5024,68.0,0,240,0.0,0.0
5025,49.0,0,15,0.0,0.0
5026,56.0,0,15,0.0,0.0
5027,64.0,240,15,0.0,0.0
5028,68.0,0,240,0.0,0.0
5029,76.0,0,240,0.0,0.0
5030,76.0,0,240,0.0,0.0
5031,56.0,240,15,0.0,0.0
5032,68.0,0,240,0.0,0.0
5033,49.0,0,240,0.0,0.0
5034,49.0,0,240,0.0,0.0
5035,64.0,240,15,0.0,0.0
5036,76.0,0,240,0.0,0.0
5037,68.0,240,240,0.0,0.0
5038,56.0,0,15,0.0,0.0
5039,51.0,240,240,0.0,0.0
5040,75.0,0,240,0.0,0.0
5041,66.0,0,240,0.0,0.0
5042,63.0,0,240,0.0,0.0
5043,52.0,0,240,0.0,0.0
5044,73.0,240,240,0.0,0.0
5045,61.0,0,240,0.0,0.0
5046,56.0,0,240,0.0,0.0
5047,64.0,0,240,0.0,0.0
5048,54.0,0,240,0.0,0.0
5049,56.0,0,240,0.0,0.0
5050,44.0,0,240,0.0,0.0
5051,72.0,240,240,0.0,0.0
5052,60.0,0,240,0.0,0.0
5053,63.0,0,240,0.0,0.0
5054,84.0,0,240,0.0,0.0
5055,66.0,0,240,0.0,0.0
5056,72.0,0,240,0.0,0.0
5057,75.0,0,240,0.0,0.0
5058,56.0,240,15,0.0,0.0
5059,72.0,0,15,0.0,0.0
5060,66.0,0,15,0.0,0.0
5061,56.0,240,15,0.0,0.0
5062,84.0,0,15,0.0,0.0
5063,75.0,0,15,0.0,0.0
5064,56.0,240,15,0.0,0.0
5065,72.0,0,15,0.0,0.0
5066,84.0,0,15,0.0,0.0
5067,72.0,0,15,0.0,0.0
5068,75.0,0,15,0.0,0.0
5069,84.0,0,240,0.0,0.0
5070,56.0,0,15,0.0,0.0
5071,66.0,240,15,0.0,0.0
5072,73.0,0,240,0.0,0.0
5073,76.0,240,240,0.0,0.0
5074,85.0,0,240,0.0,0.0
5075,56.0,240,15,0.0,0.0
5076,64.0,0,240,0.0,0.0
5077,78.0,0,240,0.0,0.0
5078,87.0,240,240,0.0,0.0
5079,75.0,0,240,0.0,0.0
5080,56.0,0,15,0.0,0.0
5081,63.0,0,240,0.0,0.0
5082,49.0,0,240,0.0,0.0
5083,88.0,120,240,0.0,0.0
5084,80.0,0,240,0.0,0.0
5085,76.0,0,240,0.0,0.0
5086,64.0,360,120,0.0,0.0
5087,61.0,0,15,0.0,0.0
5088,80.0,0,120,0.0,0.0
5089,85.0,0,120,0.0,0.0
5090,61.0,0,240,0.0,0.0
5091,85.0,0,240,0.0,0.0
5092,64.0,0,15,0.0,0.0
5093,68.0,0,240,0.0,0.0
5094,80.0,240,15,0.0,0.0
5095,76.0,0,240,0.0,0.0
5096,54.0,240,120,0.0,0.0
5097,61.0,0,120,0.0,0.0
5098,66.0,0,120,0.0,0.0
5099,85.0,360,120,0.0,0.0
5100,81.0,0,120,0.0,0.0
5101,85.0,0,240,0.0,0.0
5102,61.0,0,240,0.0,0.0
5103,66.0,0,15,0.0,0.0
5104,69.0,0,240,0.0,0.0
5105,81.0,240,15,0.0,0.0
5106,78.0,0,240,0.0,0.0
5107,56.0,240,120,0.0,0.0
5108,61.0,0,120,0.0,0.0
5109,64.0,0,120,0.0,0.0
5110,80.0,360,120,0.0,0.0
5111,76.0,0,120,0.0,0.0
5112,61.0,240,240,0.0,0.0
5113,64.0,0,240,0.0,0.0
5114,76.0,0,240,0.0,0.0
5115,80.0,0,240,0.0,0.0
5116,76.0,0,240,0.0,0.0
5117,73.0,0,240,0.0,0.0
5118,68.0,120,240,0.0,0.0
5119,64.0,0,240,0.0,0.0
5120,54.0,240,120,0.0,0.0
5121,75.0,0,120,0.0,0.0
5122,63.0,360,120,0.0,0.0
5123,60.0,0,120,0.0,0.0
5124,80.0,0,120,0.0,0.0
5125,60.0,0,240,0.0,0.0
5126,80.0,240,240,0.0,0.0
5127,63.0,0,240,0.0,0.0
5128,75.0,0,15,0.0,0.0
5129,63.0,0,240,0.0,0.0
5130,68.0,240,240,0.0,0.0
5131,72.0,0,240,0.0,0.0
5132,52.0,120,240,0.0,0.0
5133,61.0,360,120,0.0,0.0
5134,56.0,0,120,0.0,0.0
5135,80.0,0,120,0.0,0.0
5136,76.0,0,120,0.0,0.0
5137,80.0,0,240,0.0,0.0
5138,56.0,0,240,0.0,0.0
5139,61.0,240,240,0.0,0.0
5140,76.0,0,15,0.0,0.0
5141,68.0,240,240,0.0,0.0
5142,64.0,0,240,0.0,0.0
5143,61.0,0,240,0.0,0.0
5144,42.0,120,240,0.0,0.0
5145,57.0,0,120,0.0,0.0
5146,78.0,360,120,0.0,0.0
5147,69.0,0,120,0.0,0.0
5148,54.0,0,120,0.0,0.0
5149,54.0,240,240,0.0,0.0
5150,57.0,0,240,0.0,0.0
5151,69.0,0,240,0.0,0.0
5152,78.0,0,240,0.0,0.0
5153,66.0,0,240,0.0,0.0
5154,74.0,240,240,0.0,0.0
5155,57.0,0,240,0.0,0.0
5156,62.0,0,240,0.0,0.0
5157,44.0,120,240,0.0,0.0
5158,76.0,0,120,0.0,0.0
5159,68.0,0,120,0.0,0.0
5160,56.0,360,120,0.0,0.0
5161,52.0,0,120,0.0,0.0
5162,68.0,0,240,0.0,0.0
5163,76.0,0,240,0.0,0.0
5164,52.0,0,240,0.0,0.0
5165,61.0,0,240,0.0,0.0
5166,56.0,240,15,0.0,0.0
5167,64.0,0,240,0.0,0.0
5168,73.0,0,240,0.0,0.0
5169,44.0,120,240,0.0,0.0
5170,75.0,0,120,0.0,0.0
5171,66.0,0,120,0.0,0.0
5172,51.0,360,120,0.0,0.0
5173,54.0,0,120,0.0,0.0
5174,75.0,0,240,0.0,0.0
5175,66.0,240,240,0.0,0.0
5176,51.0,0,240,0.0,0.0
5177,60.0,0,240,0.0,0.0
5178,54.0,0,15,0.0,0.0
5179,72.0,140,240,0.0,0.0
5180,63.0,0,240,0.0,0.0
5181,64.0,0,480,0.0,0.0
5182,73.0,20,480,0.0,0.0
5183,37.0,120,150,0.0,0.0
5184,49.0,120,150,0.0,0.0
5185,44.0,100,150,0.0,0.0
5186,49.0,120,150,0.0,0.0
5187,37.0,120,150,0.0,0.0
5188,49.0,120,150,0.0,0.0
5189,44.0,120,150,0.0,0.0
5190,49.0,120,150,0.0,0.0
5191,37.0,120,150,0.0,0.0
5192,49.0,120,150,0.0,0.0
5193,44.0,120,150,0.0,0.0
5194,49.0,120,150,0.0,0.0
5195,64.0,20,360,0.0,0.0
5196,37.0,120,150,0.0,0.0
5197,49.0,100,150,0.0,0.0
5198,44.0,40,150,0.0,0.0
5199,49.0,120,150,0.0,0.0
5200,61.0,80,60,0.0,0.0
5201,60.0,20,480,0.0,0.0
5202,37.0,120,150,0.0,0.0
5203,51.0,120,150,0.0,0.0
5204,44.0,100,150,0.0,0.0
5205,51.0,120,150,0.0,0.0
5206,60.0,0,360,0.0,0.0
5207,54.0,20,360,0.0,0.0
5208,37.0,120,150,0.0,0.0
5209,68.0,0,360,0.0,0.0
5210,51.0,100,150,0.0,0.0
5211,44.0,120,150,0.0,0.0
5212,51.0,120,150,0.0,0.0
5213,60.0,20,360,0.0,0.0
5214,68.0,0,360,0.0,0.0
5215,54.0,0,360,0.0,0.0
5216,37.0,120,150,0.0,0.0
5217,51.0,100,150,0.0,0.0
5218,44.0,120,150,0.0,0.0
5219,51.0,120,150,0.0,0.0
5220,37.0,120,150,0.0,0.0
5221,54.0,0,360,0.0,0.0
5222,68.0,20,360,0.0,0.0
5223,60.0,0,360,0.0,0.0
5224,51.0,100,150,0.0,0.0
5225,44.0,40,150,0.0,0.0
5226,51.0,120,150,0.0,0.0
5227,52.0,60,60,0.0,0.0
5228,61.0,20,60,0.0,0.0
5229,37.0,120,150,0.0,0.0
5230,68.0,20,1440,0.0,0.0
5231,49.0,120,150,0.0,0.0
5232,44.0,120,150,0.0,0.0
5233,49.0,120,150,0.0,0.0
5234,37.0,120,150,0.0,0.0
5235,49.0,120,150,0.0,0.0
5236,44.0,120,150,0.0,0.0
5237,49.0,120,150,0.0,0.0
5238,37.0,120,150,0.0,0.0
5239,49.0,120,150,0.0,0.0
5240,44.0,100,150,0.0,0.0
5241,49.0,120,150,0.0,0.0
5242,37.0,120,150,0.0,0.0
5243,76.0,20,360,0.0,0.0
5244,49.0,100,150,0.0,0.0
5245,44.0,100,150,0.0,0.0
5246,49.0,120,150,0.0,0.0
5247,73.0,20,120,0.0,0.0
5248,72.0,20,480,0.0,0.0
5249,37.0,120,150,0.0,0.0
5250,51.0,120,150,0.0,0.0
5251,44.0,100,150,0.0,0.0
5252,51.0,120,150,0.0,0.0
5253,37.0,120,150,0.0,0.0
5254,66.0,20,360,0.0,0.0
5255,80.0,0,360,0.0,0.0
5256,72.0,0,360,0.0,0.0
5257,51.0,100,150,0.0,0.0
5258,44.0,120,150,0.0,0.0
5259,51.0,120,150,0.0,0.0
5260,66.0,20,360,0.0,0.0
5261,80.0,0,360,0.0,0.0
5262,72.0,0,360,0.0,0.0
5263,37.0,120,150,0.0,0.0
5264,51.0,100,150,0.0,0.0
5265,44.0,120,150,0.0,0.0
5266,51.0,120,150,0.0,0.0
5267,72.0,20,360,0.0,0.0
5268,66.0,0,360,0.0,0.0
5269,80.0,0,360,0.0,0.0
5270,37.0,120,150,0.0,0.0
5271,51.0,100,150,0.0,0.0
5272,44.0,40,150,0.0,0.0
5273,51.0,120,150,0.0,0.0
5274,61.0,60,60,0.0,0.0
5275,73.0,20,60,0.0,0.0
5276,80.0,20,840,0.0,0.0
5277,37.0,120,150,0.0,0.0
5278,49.0,120,150,0.0,0.0
5279,44.0,120,150,0.0,0.0
5280,49.0,120,150,0.0,0.0
5281,37.0,120,150,0.0,0.0
5282,49.0,100,150,0.0,0.0
5283,44.0,40,150,0.0,0.0
5284,49.0,120,150,0.0,0.0
5285,62.0,60,60,0.0,0.0
5286,72.0,20,60,0.0,0.0
5287,80.0,20,840,0.0,0.0
5288,37.0,120,150,0.0,0.0
5289,51.0,120,150,0.0,0.0
5290,44.0,120,150,0.0,0.0
5291,51.0,120,150,0.0,0.0
5292,37.0,120,150,0.0,0.0
5293,51.0,100,150,0.0,0.0
5294,44.0,40,150,0.0,0.0
5295,51.0,120,150,0.0,0.0
5296,64.0,60,60,0.0,0.0
5297,73.0,20,60,0.0,0.0
5298,37.0,120,150,0.0,0.0
5299,80.0,20,840,0.0,0.0
5300,49.0,120,150,0.0,0.0
5301,44.0,120,150,0.0,0.0
5302,49.0,120,150,0.0,0.0
5303,37.0,120,150,0.0,0.0
5304,49.0,100,150,0.0,0.0
5305,44.0,40,150,0.0,0.0
5306,62.0,60,60,0.0,0.0
5307,49.0,120,150,0.0,0.0
5308,72.0,20,60,0.0,0.0
5309,37.0,120,150,0.0,0.0
5310,80.0,20,960,0.0,0.0
5311,51.0,120,150,0.0,0.0
5312,44.0,120,150,0.0,0.0
5313,51.0,120,150,0.0,0.0
5314,37.0,120,150,0.0,0.0
5315,51.0,120,150,0.0,0.0
5316,44.0,100,150,0.0,0.0
5317,51.0,120,150,0.0,0.0
5318,37.0,120,150,0.0,0.0
5319,52.0,0,150,0.0,0.0
5320,61.0,0,150,0.0,0.0
5321,49.0,120,150,0.0,0.0
5322,44.0,120,150,0.0,0.0
5323,56.0,0,150,0.0,0.0
5324,61.0,120,150,0.0,0.0
5325,49.0,0,150,0.0,0.0
5326,37.0,120,150,0.0,0.0
5327,52.0,0,150,0.0,0.0
5328,61.0,120,150,0.0,0.0
5329,49.0,0,150,0.0,0.0
5330,56.0,0,150,0.0,0.0
5331,44.0,120,150,0.0,0.0
5332,61.0,120,150,0.0,0.0
5333,49.0,0,150,0.0,0.0
5334,37.0,0,150,0.0,0.0
5335,52.0,120,150,0.0,0.0
5336,61.0,0,150,0.0,0.0
5337,49.0,120,150,0.0,0.0
5338,44.0,0,150,0.0,0.0
5339,56.0,120,150,0.0,0.0
5340,61.0,0,150,0.0,0.0
5341,49.0,120,150,0.0,0.0
5342,52.0,0,150,0.0,0.0
5343,37.0,120,150,0.0,0.0
5344,61.0,120,150,0.0,0.0
5345,49.0,0,150,0.0,0.0
5346,56.0,120,150,0.0,0.0
5347,44.0,0,150,0.0,0.0
5348,61.0,0,150,0.0,0.0
5349,35.0,0,150,0.0,0.0
5350,53.0,120,150,0.0,0.0
5351,49.0,40,20,0.0,0.0
5352,61.0,0,150,0.0,0.0
5353,47.0,120,150,0.0,0.0
5354,37.0,0,150,0.0,0.0
5355,56.0,120,150,0.0,0.0
5356,47.0,40,150,0.0,0.0
5357,61.0,0,150,0.0,0.0
5358,35.0,0,150,0.0,0.0
5359,53.0,120,150,0.0,0.0
5360,49.0,80,60,0.0,0.0
5361,47.0,120,150,0.0,0.0
5362,61.0,0,150,0.0,0.0
5363,37.0,0,150,0.0,0.0
5364,56.0,120,150,0.0,0.0
5365,61.0,0,150,0.0,0.0
5366,47.0,40,150,0.0,0.0
5367,35.0,120,150,0.0,0.0
5368,53.0,0,150,0.0,0.0
5369,49.0,80,60,0.0,0.0
5370,61.0,120,150,0.0,0.0
5371,47.0,0,150,0.0,0.0
5372,56.0,120,150,0.0,0.0
5373,37.0,0,150,0.0,0.0
5374,47.0,40,150,0.0,0.0
5375,61.0,0,150,0.0,0.0
5376,49.0,80,60,0.0,0.0
5377,53.0,0,150,0.0,0.0
5378,35.0,120,150,0.0,0.0
5379,47.0,0,150,0.0,0.0
5380,61.0,120,150,0.0,0.0
5381,56.0,0,150,0.0,0.0
5382,37.0,100,150,0.0,0.0
5383,47.0,120,120,0.0,0.0
5384,61.0,0,120,0.0,0.0
5385,54.0,0,120,0.0,0.0
5386,57.0,0,120,0.0,0.0
5387,61.0,0,120,0.0,0.0
5388,33.0,0,120,0.0,0.0
5389,45.0,0,120,0.0,0.0
5390,49.0,140,15,0.0,0.0
5391,42.0,20,120,0.0,0.0
5392,54.0,120,150,0.0,0.0
5393,57.0,100,150,0.0,0.0
5394,33.0,20,120,0.0,0.0
5395,61.0,120,150,0.0,0.0
5396,54.0,100,150,0.0,0.0
5397,42.0,20,120,0.0,0.0
5398,57.0,120,150,0.0,0.0
5399,61.0,100,150,0.0,0.0
5400,33.0,20,120,0.0,0.0
5401,66.0,120,150,0.0,0.0
5402,57.0,100,150,0.0,0.0
5403,61.0,120,150,0.0,0.0
5404,42.0,20,120,0.0,0.0
5405,66.0,100,150,0.0,0.0
5406,69.0,120,150,0.0,0.0
5407,33.0,20,120,0.0,0.0
5408,61.0,100,150,0.0,0.0
5409,42.0,20,120,0.0,0.0
5410,66.0,120,150,0.0,0.0
5411,69.0,120,150,0.0,0.0
5412,33.0,20,240,0.0,0.0
5413,73.0,100,150,0.0,0.0
5414,66.0,120,150,0.0,0.0
5415,69.0,100,150,0.0,0.0
5416,42.0,20,240,0.0,0.0
5417,73.0,120,150,0.0,0.0
5418,78.0,100,150,0.0,0.0
5419,33.0,20,240,0.0,0.0
5420,69.0,120,150,0.0,0.0
5421,73.0,100,150,0.0,0.0
5422,42.0,20,240,0.0,0.0
5423,78.0,120,150,0.0,0.0
5424,33.0,20,240,0.0,0.0
5425,81.0,100,150,0.0,0.0
5426,73.0,120,150,0.0,0.0
5427,42.0,120,240,0.0,0.0
5428,78.0,100,150,0.0,0.0
5429,81.0,0,15,0.0,0.0
5430,78.0,120,120,0.0,0.0
5431,85.0,0,120,0.0,0.0
5432,73.0,0,120,0.0,0.0
5433,45.0,120,240,0.0,0.0
5434,33.0,0,240,0.0,0.0
5435,81.0,0,120,0.0,0.0
5436,78.0,0,120,0.0,0.0
5437,85.0,120,120,0.0,0.0
5438,73.0,0,120,0.0,0.0
5439,42.0,240,240,0.0,0.0
5440,32.0,20,240,0.0,0.0
5441,49.0,120,150,0.0,0.0
5442,52.0,100,150,0.0,0.0
5443,40.0,20,240,0.0,0.0
5444,56.0,120,150,0.0,0.0
5445,32.0,20,240,0.0,0.0
5446,61.0,100,150,0.0,0.0
5447,52.0,120,150,0.0,0.0
5448,56.0,100,150,0.0,0.0
5449,40.0,20,240,0.0,0.0
5450,61.0,120,150,0.0,0.0
5451,64.0,100,150,0.0,0.0
5452,32.0,20,240,0.0,0.0
5453,56.0,120,150,0.0,0.0
5454,61.0,100,150,0.0,0.0
5455,40.0,20,240,0.0,0.0
5456,64.0,120,150,0.0,0.0
5457,32.0,20,240,0.0,0.0
5458,68.0,100,150,0.0,0.0
5459,61.0,120,150,0.0,0.0
5460,40.0,20,240,0.0,0.0
5461,64.0,100,150,0.0,0.0
5462,68.0,120,150,0.0,0.0
5463,32.0,20,240,0.0,0.0
5464,73.0,100,150,0.0,0.0
5465,64.0,120,150,0.0,0.0
5466,40.0,20,240,0.0,0.0
5467,68.0,100,150,0.0,0.0
5468,73.0,120,150,0.0,0.0
5469,32.0,20,240,0.0,0.0
5470,76.0,100,150,0.0,0.0
5471,68.0,120,150,0.0,0.0
5472,40.0,20,240,0.0,0.0
5473,73.0,100,150,0.0,0.0
5474,76.0,120,150,0.0,0.0
5475,80.0,100,150,0.0,0.0
5476,32.0,20,240,0.0,0.0
5477,73.0,120,150,0.0,0.0
5478,40.0,0,240,0.0,0.0
5479,76.0,100,150,0.0,0.0
5480,73.0,0,120,0.0,0.0
5481,80.0,120,15,0.0,0.0
5482,76.0,0,120,0.0,0.0
5483,32.0,120,240,0.0,0.0
5484,44.0,0,240,0.0,0.0
5485,85.0,120,120,0.0,0.0
5486,40.0,720,240,0.0,0.0
5487,80.0,0,120,0.0,0.0
5488,73.0,0,120,0.0,0.0
5489,76.0,120,120,0.0,0.0
5490,85.0,0,120,0.0,0.0
5491,31.0,480,720,0.0,0.0
5492,49.0,0,960,0.0,0.0
5493,52.0,0,900,0.0,0.0
5494,55.0,480,840,0.0,0.0
5495,58.0,0,780,0.0,0.0
5496,61.0,0,720,0.0,0.0
5497,31.0,0,960,0.0,0.0
5498,34.0,0,900,0.0,0.0
5499,37.0,0,840,0.0,0.0
5500,40.0,0,780,0.0,0.0
5501,61.0,0,960,0.0,0.0
5502,64.0,0,900,0.0,0.0
5503,67.0,0,840,0.0,0.0
5504,70.0,0,780,0.0,0.0
5505,73.0,240,480,0.0,0.0
5506,43.0,240,15,0.0,0.0
5507,46.0,0,660,0.0,0.0
5508,49.0,0,600,0.0,0.0
5509,52.0,1440,540,0.0,0.0
5510,55.0,240,240,0.0,0.0
5511,73.0,0,1680,0.0,0.0
5512,76.0,0,1620,0.0,0.0
5513,79.0,0,1560,0.0,0.0
5514,82.0,0,1500,0.0,0.0
5515,61.0,0,1440,0.0,0.0
5516,55.0,0,1440,0.0,0.0
5517,85.0,0,1440,0.0,0.0
5518,64.0,0,1440,0.0,0.0
5519,58.0,720,1440,0.0,0.0
5520,30.0,480,720,0.0,0.0
5521,45.0,0,960,0.0,0.0
5522,48.0,0,900,0.0,0.0
5523,51.0,0,840,0.0,0.0
5524,54.0,480,780,0.0,0.0
5525,57.0,0,720,0.0,0.0
5526,30.0,0,960,0.0,0.0
5527,33.0,0,900,0.0,0.0
5528,36.0,0,840,0.0,0.0
5529,39.0,0,780,0.0,0.0
5530,57.0,0,960,0.0,0.0
5531,60.0,0,900,0.0,0.0
5532,63.0,0,840,0.0,0.0
5533,66.0,240,780,0.0,0.0
5534,69.0,240,480,0.0,0.0
5535,42.0,240,15,0.0,0.0
5536,45.0,0,660,0.0,0.0
5537,48.0,0,600,0.0,0.0
5538,51.0,1440,540,0.0,0.0
5539,54.0,0,240,0.0,0.0
5540,69.0,0,1800,0.0,0.0
5541,72.0,240,1680,0.0,0.0
5542,75.0,0,1560,0.0,0.0
5543,81.0,0,1440,0.0,0.0
5544,57.0,0,1440,0.0,0.0
5545,54.0,0,1440,0.0,0.0
5546,60.0,0,1440,0.0,0.0
5547,63.0,0,1440,0.0,0.0
5548,49.0,20,240,0.0,0.0
5549,68.0,120,150,0.0,0.0
5550,64.0,120,150,0.0,0.0
5551,68.0,120,150,0.0,0.0
5552,61.0,120,150,0.0,0.0
5553,56.0,20,960,0.0,0.0
5554,68.0,120,150,0.0,0.0
5555,64.0,120,150,0.0,0.0
5556,68.0,120,150,0.0,0.0
5557,61.0,120,150,0.0,0.0
5558,68.0,120,150,0.0,0.0
5559,64.0,100,150,0.0,0.0
5560,68.0,120,150,0.0,0.0
5561,52.0,20,360,0.0,0.0
5562,61.0,120,150,0.0,0.0
5563,68.0,100,150,0.0,0.0
5564,64.0,100,150,0.0,0.0
5565,49.0,20,120,0.0,0.0
5566,68.0,120,150,0.0,0.0
5567,63.0,120,150,0.0,0.0
5568,49.0,20,480,0.0,0.0
5569,68.0,120,150,0.0,0.0
5570,66.0,100,150,0.0,0.0
5571,68.0,120,150,0.0,0.0
5572,63.0,120,150,0.0,0.0
5573,68.0,120,150,0.0,0.0
5574,66.0,120,150,0.0,0.0
5575,68.0,120,150,0.0,0.0
5576,63.0,100,150,0.0,0.0
5577,68.0,120,150,0.0,0.0
5578,48.0,20,15,0.0,0.0
5579,66.0,100,150,0.0,0.0
5580,68.0,120,150,0.0,0.0
5581,63.0,120,150,0.0,0.0
5582,56.0,20,360,0.0,0.0
5583,68.0,100,150,0.0,0.0
5584,66.0,100,150,0.0,0.0
5585,48.0,20,120,0.0,0.0
5586,68.0,120,150,0.0,0.0
5587,51.0,20,480,0.0,0.0
5588,61.0,120,150,0.0,0.0
5589,68.0,120,150,0.0,0.0
5590,64.0,100,150,0.0,0.0
5591,68.0,120,150,0.0,0.0
5592,49.0,20,720,0.0,0.0
5593,61.0,120,150,0.0,0.0
5594,68.0,120,150,0.0,0.0
5595,64.0,120,150,0.0,0.0
5596,68.0,120,150,0.0,0.0
5597,61.0,100,150,0.0,0.0
5598,68.0,120,150,0.0,0.0
5599,64.0,100,150,0.0,0.0
5600,49.0,20,240,0.0,0.0
5601,68.0,120,150,0.0,0.0
5602,61.0,120,150,0.0,0.0
5603,56.0,20,360,0.0,0.0
5604,68.0,100,150,0.0,0.0
5605,64.0,100,150,0.0,0.0
5606,68.0,120,150,0.0,0.0
5607,49.0,20,120,0.0,0.0
5608,52.0,20,480,0.0,0.0
5609,60.0,120,150,0.0,0.0
5610,68.0,120,150,0.0,0.0
5611,66.0,100,150,0.0,0.0
5612,68.0,120,150,0.0,0.0
5613,60.0,120,150,0.0,0.0
5614,51.0,20,720,0.0,0.0
5615,68.0,120,150,0.0,0.0
5616,66.0,120,150,0.0,0.0
5617,68.0,120,150,0.0,0.0
5618,60.0,100,150,0.0,0.0
5619,68.0,120,150,0.0,0.0
5620,66.0,100,150,0.0,0.0
5621,51.0,20,240,0.0,0.0
5622,68.0,120,150,0.0,0.0
5623,60.0,120,150,0.0,0.0
5624,56.0,20,360,0.0,0.0
5625,68.0,100,150,0.0,0.0
5626,66.0,100,150,0.0,0.0
5627,51.0,0,120,0.0,0.0
5628,52.0,100,150,0.0,0.0
5629,64.0,20,240,0.0,0.0
5630,61.0,0,240,0.0,0.0
5631,68.0,140,15,0.0,0.0
5632,56.0,120,150,0.0,0.0
5633,52.0,120,150,0.0,0.0
5634,56.0,120,150,0.0,0.0
5635,80.0,20,960,0.0,0.0
5636,68.0,0,960,0.0,0.0
5637,52.0,120,150,0.0,0.0
5638,56.0,120,150,0.0,0.0
5639,52.0,120,150,0.0,0.0
5640,56.0,120,150,0.0,0.0
5641,52.0,120,150,0.0,0.0
5642,56.0,120,150,0.0,0.0
5643,52.0,100,150,0.0,0.0
5644,56.0,120,150,0.0,0.0
5645,52.0,120,150,0.0,0.0
5646,76.0,20,360,0.0,0.0
5647,64.0,0,360,0.0,0.0
5648,56.0,100,150,0.0,0.0
5649,52.0,100,150,0.0,0.0
5650,73.0,20,120,0.0,0.0
5651,61.0,0,120,0.0,0.0
5652,56.0,120,150,0.0,0.0
5653,61.0,20,480,0.0,0.0
5654,73.0,0,480,0.0,0.0
5655,54.0,120,150,0.0,0.0
5656,56.0,120,150,0.0,0.0
5657,54.0,100,150,0.0,0.0
5658,56.0,120,150,0.0,0.0
5659,54.0,120,150,0.0,0.0
5660,60.0,20,720,0.0,0.0
5661,72.0,0,720,0.0,0.0
5662,56.0,120,150,0.0,0.0
5663,54.0,120,150,0.0,0.0
5664,56.0,120,150,0.0,0.0
5665,54.0,100,150,0.0,0.0
5666,56.0,120,150,0.0,0.0
5667,54.0,100,150,0.0,0.0
5668,72.0,20,240,0.0,0.0
5669,60.0,0,240,0.0,0.0
5670,56.0,120,150,0.0,0.0
5671,54.0,120,150,0.0,0.0
5672,80.0,20,360,0.0,0.0
5673,68.0,0,360,0.0,0.0
5674,56.0,100,150,0.0,0.0
5675,54.0,100,150,0.0,0.0
5676,56.0,120,150,0.0,0.0
5677,60.0,20,120,0.0,0.0
5678,72.0,0,120,0.0,0.0
5679,52.0,120,150,0.0,0.0
5680,75.0,0,480,0.0,0.0
5681,63.0,20,480,0.0,0.0
5682,56.0,120,150,0.0,0.0
5683,52.0,100,150,0.0,0.0
5684,56.0,120,150,0.0,0.0
5685,61.0,20,720,0.0,0.0
5686,73.0,0,720,0.0,0.0
5687,52.0,120,150,0.0,0.0
5688,56.0,120,150,0.0,0.0
5689,52.0,120,150,0.0,0.0
5690,56.0,120,150,0.0,0.0
5691,52.0,100,150,0.0,0.0
5692,56.0,120,150,0.0,0.0
5693,52.0,100,150,0.0,0.0
5694,73.0,0,240,0.0,0.0
5695,61.0,20,240,0.0,0.0
5696,56.0,120,150,0.0,0.0
5697,52.0,120,150,0.0,0.0
5698,68.0,20,360,0.0,0.0
5699,80.0,0,360,0.0,0.0
5700,56.0,100,150,0.0,0.0
5701,52.0,100,150,0.0,0.0
5702,56.0,120,150,0.0,0.0
5703,61.0,0,120,0.0,0.0
5704,73.0,20,120,0.0,0.0
5705,76.0,0,480,0.0,0.0
5706,48.0,120,150,0.0,0.0
5707,64.0,20,480,0.0,0.0
5708,56.0,120,150,0.0,0.0
5709,48.0,100,150,0.0,0.0
5710,56.0,120,150,0.0,0.0
5711,48.0,120,150,0.0,0.0
5712,63.0,0,720,0.0,0.0
5713,75.0,20,720,0.0,0.0
5714,56.0,120,150,0.0,0.0
5715,48.0,120,150,0.0,0.0
5716,56.0,120,150,0.0,0.0
5717,48.0,100,150,0.0,0.0
5718,56.0,120,150,0.0,0.0
5719,75.0,0,240,0.0,0.0
5720,48.0,100,150,0.0,0.0
5721,63.0,20,240,0.0,0.0
5722,56.0,120,150,0.0,0.0
5723,48.0,120,150,0.0,0.0
5724,68.0,20,360,0.0,0.0
5725,80.0,0,360,0.0,0.0
5726,56.0,100,150,0.0,0.0
5727,48.0,100,150,0.0,0.0
5728,56.0,120,150,0.0,0.0
5729,63.0,20,120,0.0,0.0
5730,75.0,0,120,0.0,0.0
5731,49.0,100,150,0.0,0.0
5732,78.0,20,240,0.0,0.0
5733,66.0,0,240,0.0,0.0
5734,56.0,120,150,0.0,0.0
5735,76.0,20,240,0.0,0.0
5736,64.0,0,240,0.0,0.0
5737,49.0,100,150,0.0,0.0
5738,56.0,100,150,0.0,0.0
5739,49.0,120,150,0.0,0.0
5740,73.0,20,120,0.0,0.0
5741,85.0,0,120,0.0,0.0
5742,56.0,100,150,0.0,0.0
5743,76.0,20,120,0.0,0.0
5744,49.0,120,150,0.0,0.0
5745,64.0,0,120,0.0,0.0
5746,56.0,120,150,0.0,0.0
5747,47.0,100,150,0.0,0.0
5748,66.0,20,240,0.0,0.0
5749,78.0,0,240,0.0,0.0
5750,49.0,120,150,0.0,0.0
5751,47.0,100,150,0.0,0.0
5752,77.0,0,240,0.0,0.0
5753,65.0,20,240,0.0,0.0
5754,49.0,100,150,0.0,0.0
5755,73.0,0,120,0.0,0.0
5756,85.0,20,120,0.0,0.0
5757,47.0,120,150,0.0,0.0
5758,49.0,100,150,0.0,0.0
5759,65.0,0,120,0.0,0.0
5760,77.0,20,120,0.0,0.0
5761,47.0,120,150,0.0,0.0
5762,49.0,120,150,0.0,0.0
5763,45.0,100,150,0.0,0.0
5764,68.0,0,240,0.0,0.0
5765,80.0,20,240,0.0,0.0
5766,49.0,120,150,0.0,0.0
5767,45.0,100,150,0.0,0.0
5768,66.0,0,240,0.0,0.0
5769,78.0,20,240,0.0,0.0
5770,49.0,100,150,0.0,0.0
5771,45.0,120,150,0.0,0.0
5772,85.0,20,120,0.0,0.0
5773,73.0,0,120,0.0,0.0
5774,49.0,100,150,0.0,0.0
5775,45.0,120,150,0.0,0.0
5776,78.0,0,120,0.0,0.0
5777,66.0,20,120,0.0,0.0
5778,49.0,120,150,0.0,0.0
5779,81.0,0,240,0.0,0.0
5780,41.0,100,150,0.0,0.0
5781,69.0,20,240,0.0,0.0
5782,49.0,120,150,0.0,0.0
5783,68.0,0,240,0.0,0.0
5784,80.0,20,240,0.0,0.0
5785,41.0,100,150,0.0,0.0
5786,49.0,100,150,0.0,0.0
5787,73.0,20,120,0.0,0.0
5788,41.0,120,150,0.0,0.0
5789,85.0,0,120,0.0,0.0
5790,49.0,100,150,0.0,0.0
5791,68.0,20,120,0.0,0.0
5792,80.0,0,120,0.0,0.0
5793,41.0,120,150,0.0,0.0
5794,49.0,140,150,0.0,0.0
5795,42.0,0,3840,0.0,0.0
5796,39.0,0,3840,0.0,0.0
5797,81.0,160,150,0.0,0.0
5798,78.0,160,150,0.0,0.0
5799,73.0,160,150,0.0,0.0
5800,69.0,160,150,0.0,0.0
5801,66.0,160,150,0.0,0.0
5802,61.0,160,150,0.0,0.0
5803,69.0,160,150,0.0,0.0
5804,66.0,160,150,0.0,0.0
5805,61.0,160,150,0.0,0.0
5806,57.0,160,150,0.0,0.0
5807,54.0,160,150,0.0,0.0
5808,49.0,120,150,0.0,0.0
5809,57.0,120,120,0.0,0.0
5810,54.0,120,120,0.0,0.0
5811,49.0,120,120,0.0,0.0
5812,45.0,120,120,0.0,0.0
5813,49.0,120,120,0.0,0.0
5814,52.0,120,120,0.0,0.0
5815,56.0,120,120,0.0,0.0
5816,61.0,120,120,0.0,0.0
5817,66.0,120,120,0.0,0.0
5818,69.0,120,120,0.0,0.0
5819,73.0,120,120,0.0,0.0
5820,78.0,120,120,0.0,0.0
5821,81.0,120,120,0.0,0.0
5822,78.0,120,120,0.0,0.0
5823,73.0,120,120,0.0,0.0
5824,69.0,0,120,0.0,0.0
5825,42.0,160,3840,0.0,0.0
5826,30.0,160,15,0.0,0.0
5827,81.0,160,150,0.0,0.0
5828,38.0,0,3840,0.0,0.0
5829,78.0,160,150,0.0,0.0
5830,74.0,160,150,0.0,0.0
5831,69.0,160,150,0.0,0.0
5832,66.0,160,150,0.0,0.0
5833,62.0,160,150,0.0,0.0
5834,69.0,160,150,0.0,0.0
5835,66.0,160,150,0.0,0.0
5836,62.0,160,150,0.0,0.0
5837,57.0,160,150,0.0,0.0
5838,54.0,160,150,0.0,0.0
5839,50.0,120,150,0.0,0.0
5840,57.0,120,120,0.0,0.0
5841,54.0,120,120,0.0,0.0
5842,50.0,120,120,0.0,0.0
5843,45.0,120,120,0.0,0.0
5844,50.0,120,120,0.0,0.0
5845,54.0,120,120,0.0,0.0
5846,57.0,120,120,0.0,0.0
5847,62.0,120,120,0.0,0.0
5848,66.0,120,120,0.0,0.0
5849,69.0,120,120,0.0,0.0
5850,74.0,120,120,0.0,0.0
5851,78.0,120,120,0.0,0.0
5852,81.0,120,120,0.0,0.0
5853,78.0,120,120,0.0,0.0
5854,74.0,120,120,0.0,0.0
5855,69.0,0,120,0.0,0.0
5856,85.0,160,150,0.0,0.0
5857,37.0,0,3840,0.0,0.0
5858,31.0,0,3840,0.0,0.0
5859,43.0,0,3840,0.0,0.0
5860,82.0,160,150,0.0,0.0
5861,79.0,160,150,0.0,0.0
5862,76.0,160,150,0.0,0.0
5863,73.0,160,150,0.0,0.0
5864,70.0,160,150,0.0,0.0
5865,76.0,160,150,0.0,0.0
5866,73.0,160,150,0.0,0.0
5867,70.0,120,150,0.0,0.0
5868,67.0,120,120,0.0,0.0
5869,64.0,120,120,0.0,0.0
5870,61.0,120,120,0.0,0.0
5871,58.0,120,120,0.0,0.0
5872,64.0,120,120,0.0,0.0
5873,61.0,120,120,0.0,0.0
5874,58.0,120,120,0.0,0.0
5875,55.0,120,120,0.0,0.0
5876,52.0,120,120,0.0,0.0
5877,49.0,120,120,0.0,0.0
5878,52.0,120,120,0.0,0.0
5879,55.0,80,120,0.0,0.0
5880,57.0,80,90,0.0,0.0
5881,61.0,80,90,0.0,0.0
5882,64.0,80,90,0.0,0.0
5883,67.0,80,90,0.0,0.0
5884,70.0,80,90,0.0,0.0
5885,73.0,80,90,0.0,0.0
5886,76.0,80,90,0.0,0.0
5887,79.0,80,90,0.0,0.0
5888,82.0,80,90,0.0,0.0
5889,85.0,80,90,0.0,0.0
5890,82.0,80,90,0.0,0.0
5891,76.0,160,90,0.0,0.0
5892,32.0,120,3840,0.0,0.0
5893,37.0,0,3840,0.0,0.0
5894,88.0,160,150,0.0,0.0
5895,85.0,160,150,0.0,0.0
5896,80.0,160,150,0.0,0.0
5897,76.0,160,150,0.0,0.0
5898,73.0,160,150,0.0,0.0
5899,68.0,160,150,0.0,0.0
5900,76.0,160,150,0.0,0.0
5901,73.0,160,150,0.0,0.0
5902,68.0,120,150,0.0,0.0
5903,64.0,120,120,0.0,0.0
5904,73.0,120,120,0.0,0.0
5905,68.0,120,120,0.0,0.0
5906,64.0,120,120,0.0,0.0
5907,61.0,120,120,0.0,0.0
5908,68.0,120,120,0.0,0.0
5909,64.0,120,120,0.0,0.0
5910,61.0,120,120,0.0,0.0
5911,56.0,120,120,0.0,0.0
5912,64.0,120,120,0.0,0.0
5913,61.0,120,120,0.0,0.0
5914,56.0,120,120,0.0,0.0
5915,52.0,120,120,0.0,0.0
5916,61.0,120,120,0.0,0.0
5917,56.0,120,120,0.0,0.0
5918,52.0,120,120,0.0,0.0
5919,49.0,120,120,0.0,0.0
5920,56.0,120,120,0.0,0.0
5921,52.0,120,120,0.0,0.0
5922,49.0,0,120,0.0,0.0
5923,44.0,0,15,0.0,0.0
5924,45.0,120,120,0.0,0.0
5925,46.0,120,120,0.0,0.0
5926,47.0,120,120,0.0,0.0
5927,48.0,120,120,0.0,0.0
5928,49.0,120,120,0.0,0.0
5929,50.0,120,120,0.0,0.0
5930,51.0,120,120,0.0,0.0
5931,52.0,120,120,0.0,0.0
5932,53.0,120,120,0.0,0.0
5933,54.0,120,120,0.0,0.0
5934,55.0,120,120,0.0,0.0
5935,56.0,120,120,0.0,0.0
5936,57.0,120,120,0.0,0.0
5937,58.0,120,120,0.0,0.0
5938,59.0,120,120,0.0,0.0
5939,60.0,120,120,0.0,0.0
5940,61.0,120,120,0.0,0.0
5941,62.0,120,120,0.0,0.0
5942,63.0,96,120,0.0,0.0
5943,64.0,96,90,0.0,0.0
5944,65.0,96,90,0.0,0.0
5945,66.0,96,90,0.0,0.0
5946,67.0,96,90,0.0,0.0
5947,68.0,96,90,0.0,0.0
5948,69.0,96,90,0.0,0.0
5949,70.0,96,90,0.0,0.0
5950,71.0,96,90,0.0,0.0
5951,72.0,96,90,0.0,0.0
5952,73.0,80,90,0.0,0.0
5953,74.0,80,90,0.0,0.0
5954,75.0,80,90,0.0,0.0
5955,76.0,60,90,0.0,0.0
5956,77.0,60,60,0.0,0.0
5957,78.0,60,60,0.0,0.0
5958,79.0,150,60,0.0,0.0
5959,56.0,0,1920,0.0,0.0
5960,60.0,0,1920,0.0,0.0
5961,66.0,0,1920,0.0,0.0
5962,81.0,90,90,0.0,0.0
5963,83.0,80,90,0.0,0.0
5964,81.0,80,90,0.0,0.0
5965,83.0,80,90,0.0,0.0
5966,81.0,80,90,0.0,0.0
5967,83.0,80,90,0.0,0.0
5968,81.0,80,90,0.0,0.0
5969,83.0,80,90,0.0,0.0
5970,81.0,80,90,0.0,0.0
5971,83.0,80,90,0.0,0.0
5972,81.0,80,90,0.0,0.0
5973,83.0,75,90,0.0,0.0
5974,81.0,75,60,0.0,0.0
5975,83.0,75,60,0.0,0.0
5976,81.0,75,60,0.0,0.0
5977,83.0,70,60,0.0,0.0
5978,81.0,75,60,0.0,0.0
5979,83.0,75,60,0.0,0.0
5980,81.0,80,60,0.0,0.0
5981,83.0,80,90,0.0,0.0
5982,81.0,80,90,0.0,0.0
5983,83.0,90,90,0.0,0.0
5984,81.0,90,90,0.0,0.0
5985,83.0,160,90,0.0,0.0
5986,80.0,160,150,0.0,0.0
5987,78.0,160,150,0.0,0.0
5988,76.0,160,150,0.0,0.0
5989,75.0,160,150,0.0,0.0
5990,78.0,160,150,0.0,0.0
5991,73.0,160,150,0.0,0.0
5992,72.0,160,150,0.0,0.0
5993,75.0,160,150,0.0,0.0
5994,69.0,160,150,0.0,0.0
5995,68.0,160,150,0.0,0.0
5996,66.0,160,150,0.0,0.0
5997,69.0,160,150,0.0,0.0
5998,64.0,160,150,0.0,0.0
5999,63.0,160,150,0.0,0.0
6000,66.0,160,150,0.0,0.0
6001,61.0,160,150,0.0,0.0
6002,60.0,160,150,0.0,0.0
6003,63.0,160,150,0.0,0.0
6004,57.0,160,150,0.0,0.0
6005,56.0,160,150,0.0,0.0
6006,54.0,160,150,0.0,0.0
6007,57.0,160,150,0.0,0.0
6008,52.0,160,150,0.0,0.0
6009,51.0,160,150,0.0,0.0
6010,54.0,160,150,0.0,0.0
6011,49.0,160,150,0.0,0.0
6012,48.0,120,150,0.0,0.0
6013,51.0,160,120,0.0,0.0
6014,45.0,160,120,0.0,0.0
6015,44.0,1960,120,0.0,0.0
6016,31.0,0,1920,0.0,0.0
6017,43.0,1920,1920,0.0,0.0
6018,32.0,0,1920,0.0,0.0
6019,44.0,120,1920,0.0,0.0
6020,37.0,120,120,0.0,0.0
6021,49.0,120,120,0.0,0.0
6022,44.0,120,120,0.0,0.0
6023,49.0,0,120,0.0,0.0
6024,37.0,140,120,0.0,0.0
6025,49.0,120,150,0.0,0.0
6026,44.0,120,150,0.0,0.0
6027,49.0,120,150,0.0,0.0
6028,37.0,120,150,0.0,0.0
6029,49.0,120,150,0.0,0.0
6030,44.0,120,150,0.0,0.0
6031,49.0,120,150,0.0,0.0
6032,37.0,120,150,0.0,0.0
6033,64.0,20,360,0.0,0.0
6034,49.0,100,150,0.0,0.0
6035,44.0,100,150,0.0,0.0
6036,49.0,120,150,0.0,0.0
6037,61.0,20,120,0.0,0.0
6038,60.0,20,480,0.0,0.0
6039,37.0,120,150,0.0,0.0
6040,51.0,120,150,0.0,0.0
6041,44.0,100,150,0.0,0.0
6042,51.0,120,150,0.0,0.0
6043,68.0,0,480,0.0,0.0
6044,54.0,20,480,0.0,0.0
6045,37.0,120,150,0.0,0.0
6046,60.0,0,480,0.0,0.0
6047,51.0,120,150,0.0,0.0
6048,44.0,100,150,0.0,0.0
6049,51.0,120,150,0.0,0.0
6050,60.0,20,480,0.0,0.0
6051,54.0,0,480,0.0,0.0
6052,68.0,0,480,0.0,0.0
6053,37.0,120,150,0.0,0.0
6054,51.0,120,150,0.0,0.0
6055,44.0,100,150,0.0,0.0
6056,51.0,120,150,0.0,0.0
6057,37.0,120,150,0.0,0.0
6058,68.0,20,360,0.0,0.0
6059,60.0,0,360,0.0,0.0
6060,54.0,0,360,0.0,0.0
6061,51.0,100,150,0.0,0.0
6062,44.0,40,150,0.0,0.0
6063,51.0,120,150,0.0,0.0
6064,52.0,60,60,0.0,0.0
6065,61.0,20,60,0.0,0.0
6066,37.0,120,150,0.0,0.0
6067,68.0,20,1440,0.0,0.0
6068,49.0,120,150,0.0,0.0
6069,44.0,120,150,0.0,0.0
6070,49.0,120,150,0.0,0.0
6071,37.0,120,150,0.0,0.0
6072,49.0,120,150,0.0,0.0
6073,44.0,120,150,0.0,0.0
6074,49.0,120,150,0.0,0.0
6075,37.0,120,150,0.0,0.0
6076,49.0,120,150,0.0,0.0
6077,44.0,100,150,0.0,0.0
6078,49.0,120,150,0.0,0.0
6079,37.0,120,150,0.0,0.0
6080,76.0,20,360,0.0,0.0
6081,49.0,100,150,0.0,0.0
6082,44.0,100,150,0.0,0.0
6083,73.0,20,120,0.0,0.0
6084,49.0,120,150,0.0,0.0
6085,37.0,120,150,0.0,0.0
6086,72.0,20,480,0.0,0.0
6087,51.0,120,150,0.0,0.0
6088,44.0,100,150,0.0,0.0
6089,51.0,120,150,0.0,0.0
6090,37.0,120,150,0.0,0.0
6091,66.0,20,480,0.0,0.0
6092,72.0,0,480,0.0,0.0
6093,80.0,0,480,0.0,0.0
6094,51.0,120,150,0.0,0.0
6095,44.0,100,150,0.0,0.0
6096,51.0,120,150,0.0,0.0
6097,37.0,120,150,0.0,0.0
6098,66.0,0,480,0.0,0.0
6099,80.0,0,480,0.0,0.0
6100,51.0,120,150,0.0,0.0
6101,44.0,100,150,0.0,0.0
6102,51.0,120,150,0.0,0.0
6103,66.0,0,360,0.0,0.0
6104,80.0,0,360,0.0,0.0
6105,72.0,20,15,0.0,0.0
6106,37.0,120,150,0.0,0.0
6107,51.0,100,150,0.0,0.0
6108,44.0,40,150,0.0,0.0
6109,51.0,120,150,0.0,0.0
6110,64.0,60,60,0.0,0.0
6111,73.0,20,60,0.0,0.0
6112,37.0,120,150,0.0,0.0
6113,80.0,20,840,0.0,0.0
6114,49.0,120,150,0.0,0.0
6115,44.0,120,150,0.0,0.0
6116,49.0,120,150,0.0,0.0
6117,37.0,120,150,0.0,0.0
6118,49.0,100,150,0.0,0.0
6119,44.0,40,150,0.0,0.0
6120,49.0,120,150,0.0,0.0
6121,66.0,60,60,0.0,0.0
6122,72.0,20,60,0.0,0.0
6123,37.0,120,150,0.0,0.0
6124,80.0,20,840,0.0,0.0
6125,51.0,120,150,0.0,0.0
6126,44.0,120,150,0.0,0.0
6127,51.0,120,150,0.0,0.0
6128,37.0,120,150,0.0,0.0
6129,51.0,100,150,0.0,0.0
6130,44.0,40,150,0.0,0.0
6131,51.0,120,150,0.0,0.0
6132,64.0,60,60,0.0,0.0
6133,73.0,20,60,0.0,0.0
6134,37.0,120,150,0.0,0.0
6135,80.0,20,840,0.0,0.0
6136,49.0,120,150,0.0,0.0
6137,44.0,120,150,0.0,0.0
6138,49.0,120,150,0.0,0.0
6139,37.0,120,150,0.0,0.0
6140,49.0,100,150,0.0,0.0
6141,44.0,40,150,0.0,0.0
6142,49.0,120,150,0.0,0.0
6143,66.0,60,60,0.0,0.0
6144,72.0,20,60,0.0,0.0
6145,80.0,20,840,0.0,0.0
6146,37.0,120,150,0.0,0.0
6147,51.0,120,150,0.0,0.0
6148,44.0,120,150,0.0,0.0
6149,51.0,120,150,0.0,0.0
6150,37.0,120,150,0.0,0.0
6151,51.0,100,150,0.0,0.0
6152,44.0,40,150,0.0,0.0
6153,51.0,120,150,0.0,0.0
6154,64.0,60,60,0.0,0.0
6155,73.0,20,60,0.0,0.0
6156,44.0,0,150,0.0,0.0
6157,49.0,120,150,0.0,0.0
6158,37.0,0,150,0.0,0.0
6159,80.0,0,150,0.0,0.0
6160,64.0,0,150,0.0,0.0
6161,52.0,120,150,0.0,0.0
6162,68.0,120,150,0.0,0.0
6163,56.0,0,150,0.0,0.0
6164,73.0,0,150,0.0,0.0
6165,61.0,120,150,0.0,0.0
6166,64.0,0,150,0.0,0.0
6167,76.0,120,150,0.0,0.0
6168,56.0,120,150,0.0,0.0
6169,68.0,0,150,0.0,0.0
6170,61.0,0,150,0.0,0.0
6171,73.0,120,150,0.0,0.0
6172,76.0,120,150,0.0,0.0
6173,64.0,0,150,0.0,0.0
6174,80.0,120,150,0.0,0.0
6175,68.0,0,150,0.0,0.0
6176,61.0,120,150,0.0,0.0
6177,73.0,0,150,0.0,0.0
6178,76.0,0,150,0.0,0.0
6179,64.0,120,150,0.0,0.0
6180,80.0,0,150,0.0,0.0
6181,68.0,120,150,0.0,0.0
6182,85.0,0,150,0.0,0.0
6183,73.0,120,150,0.0,0.0
6184,76.0,120,150,0.0,0.0
6185,64.0,0,150,0.0,0.0
6186,80.0,120,150,0.0,0.0
6187,68.0,0,150,0.0,0.0
6188,73.0,0,150,0.0,0.0
6189,85.0,120,150,0.0,0.0
6190,76.0,120,150,0.0,0.0
6191,88.0,0,150,0.0,0.0
6192,85.0,120,150,0.0,0.0
6193,73.0,0,150,0.0,0.0
6194,68.0,0,150,0.0,0.0
6195,80.0,120,150,0.0,0.0
6196,76.0,0,150,0.0,0.0
6197,64.0,120,150,0.0,0.0
6198,73.0,0,150,0.0,0.0
6199,85.0,120,150,0.0,0.0
6200,80.0,0,150,0.0,0.0
6201,68.0,120,150,0.0,0.0
6202,76.0,120,150,0.0,0.0
6203,64.0,0,150,0.0,0.0
6204,61.0,0,150,0.0,0.0
6205,73.0,120,150,0.0,0.0
6206,80.0,120,150,0.0,0.0
6207,68.0,0,150,0.0,0.0
6208,64.0,0,150,0.0,0.0
6209,76.0,120,150,0.0,0.0
6210,61.0,0,150,0.0,0.0
6211,73.0,120,150,0.0,0.0
6212,56.0,120,150,0.0,0.0
6213,68.0,0,150,0.0,0.0
6214,76.0,0,150,0.0,0.0
6215,64.0,120,150,0.0,0.0
6216,61.0,120,150,0.0,0.0
6217,73.0,0,150,0.0,0.0
6218,68.0,0,150,0.0,0.0
6219,56.0,120,150,0.0,0.0
6220,64.0,0,150,0.0,0.0
6221,52.0,120,150,0.0,0.0
6222,61.0,120,150,0.0,0.0
6223,73.0,0,150,0.0,0.0
6224,68.0,120,150,0.0,0.0
6225,56.0,0,150,0.0,0.0
6226,52.0,120,150,0.0,0.0
6227,64.0,0,150,0.0,0.0
6228,61.0,120,150,0.0,0.0
6229,49.0,0,150,0.0,0.0
6230,68.0,120,150,0.0,0.0
6231,56.0,0,150,0.0,0.0
6232,64.0,120,150,0.0,0.0
6233,52.0,0,150,0.0,0.0
6234,61.0,120,150,0.0,0.0
6235,49.0,0,150,0.0,0.0
6236,56.0,120,150,0.0,0.0
6237,44.0,0,150,0.0,0.0
6238,64.0,120,150,0.0,0.0
6239,52.0,0,150,0.0,0.0
6240,49.0,0,150,0.0,0.0
6241,61.0,120,150,0.0,0.0
6242,44.0,120,150,0.0,0.0
6243,56.0,0,150,0.0,0.0
6244,40.0,0,150,0.0,0.0
6245,52.0,120,150,0.0,0.0
6246,61.0,0,150,0.0,0.0
6247,49.0,120,150,0.0,0.0
6248,44.0,120,150,0.0,0.0
6249,56.0,0,150,0.0,0.0
6250,52.0,120,150,0.0,0.0
6251,40.0,0,150,0.0,0.0
6252,56.0,460,150,0.0,0.0
6253,44.0,0,150,0.0,0.0
6254,37.0,840,480,0.0,0.0
6255,49.0,0,480,0.0,0.0
6256,44.0,0,360,0.0,0.0
6257,49.0,0,360,0.0,0.0
6258,80.0,0,360,0.0,0.0
6259,40.0,0,360,0.0,0.0
6260,85.0,960,360,0.0,0.0
6261,76.0,0,360,0.0,0.0
6262,37.0,0,360,0.0,0.0
6263,73.0,0,360,0.0,0.0
6264,61.0,0,360,0.0,0.0
6265,64.0,0,360,0.0,0.0
6266,37.0,0,360,0.0,0.0
6267,40.0,0,360,0.0,0.0
6268,73.0,0,360,0.0,0.0
6269,44.0,0,360,0.0,0.0
6270,49.0,0,360,0.0,0.0
6271,68.0,0,360,0.0,0.0
