,note,step,duration,channel,velocity
0,69.0,0,240,0.0,40.0
1,72.0,20,240,0.0,35.0
2,41.0,0,250,1.0,45.0
3,53.0,0,250,1.0,30.0
4,77.0,15,370,0.0,50.0
5,79.0,120,45,0.0,52.0
6,77.0,35,35,0.0,45.0
7,76.0,25,40,0.0,48.0
8,65.0,240,240,1.0,38.0
9,57.0,0,240,1.0,30.0
10,60.0,0,240,1.0,25.0
11,77.0,30,40,0.0,43.0
12,81.0,30,190,0.0,45.0
13,46.0,0,250,1.0,48.0
14,79.0,180,70,0.0,48.0
15,82.0,0,190,0.0,42.0
16,67.0,0,240,1.0,35.0
17,62.0,60,240,1.0,20.0
18,58.0,0,240,1.0,28.0
19,79.0,180,70,0.0,45.0
20,48.0,0,250,1.0,40.0
21,77.0,60,310,0.0,48.0
22,76.0,60,70,0.0,52.0
23,79.0,60,70,0.0,45.0
24,64.0,0,0,1.0,33.0
25,60.0,60,0,1.0,30.0
26,55.0,0,0,1.0,18.0
27,76.0,60,70,0.0,47.0
28,72.0,0,240,0.0,42.0
29,64.0,0,0,1.0,30.0
30,72.0,120,120,0.0,55.0
31,58.0,240,240,1.0,35.0
32,60.0,0,0,1.0,22.0
33,65.0,0,240,1.0,35.0
34,72.0,0,240,0.0,40.0
35,77.0,0,240,0.0,60.0
36,81.0,225,20,0.0,50.0
37,57.0,120,250,1.0,38.0
38,79.0,0,70,0.0,55.0
39,78.0,60,70,0.0,58.0
40,79.0,60,70,0.0,53.0
41,60.0,15,240,1.0,25.0
42,72.0,0,240,0.0,35.0
43,52.0,0,250,1.0,40.0
44,80.0,60,70,0.0,48.0
45,72.0,0,240,0.0,30.0
46,81.0,0,240,0.0,50.0
47,60.0,0,240,1.0,20.0
48,84.0,5,20,0.0,45.0
49,53.0,60,250,1.0,42.0
50,82.0,0,70,0.0,52.0
51,81.0,60,70,0.0,55.0
52,82.0,60,70,0.0,50.0
53,55.0,40,260,1.0,30.0
54,62.0,0,240,1.0,38.0
55,74.0,15,240,0.0,32.0
56,46.0,180,300,1.0,45.0
57,86.0,60,70,0.0,45.0
58,48.0,10,250,1.0,40.0
59,81.0,0,310,0.0,48.0
60,82.0,60,70,0.0,50.0
61,83.0,60,70,0.0,52.0
62,72.0,35,480,0.0,30.0
63,77.0,15,480,0.0,25.0
64,60.0,240,240,1.0,20.0
65,65.0,0,250,1.0,28.0
66,84.0,60,70,0.0,54.0
67,69.0,0,250,1.0,35.0
68,67.0,0,120,1.0,30.0
69,64.0,0,120,1.0,25.0
70,60.0,0,120,1.0,15.0
71,79.0,60,240,0.0,48.0
72,76.0,0,240,0.0,35.0
73,72.0,0,240,0.0,20.0
74,72.0,360,120,0.0,60.0
75,76.0,0,370,0.0,62.0
76,82.0,0,370,0.0,70.0
77,79.0,360,35,0.0,65.0
78,81.0,30,25,0.0,58.0
79,79.0,20,25,0.0,61.0
80,78.0,20,30,0.0,63.0
81,79.0,25,30,0.0,60.0
82,76.0,25,50,0.0,65.0
83,48.0,60,590,1.0,70.0
84,55.0,30,560,1.0,54.0
85,64.0,15,530,1.0,60.0
86,58.0,15,545,1.0,57.0
87,72.0,0,530,0.0,45.0
88,72.0,0,0,0.0,40.0
89,77.0,0,130,0.0,52.0
90,69.0,120,130,1.0,50.0
91,76.0,0,130,0.0,55.0
92,70.0,0,130,1.0,45.0
93,67.0,120,130,1.0,52.0
94,72.0,120,120,0.0,45.0
95,65.0,0,130,1.0,55.0
96,77.0,0,130,0.0,57.0
97,69.0,0,130,1.0,42.0
98,76.0,0,370,0.0,52.0
99,82.0,10,370,0.0,60.0
100,79.0,360,35,0.0,55.0
101,81.0,30,25,0.0,48.0
102,79.0,20,25,0.0,51.0
103,78.0,20,30,0.0,53.0
104,79.0,25,30,0.0,50.0
105,58.0,10,550,1.0,47.0
106,55.0,20,560,1.0,44.0
107,48.0,80,580,1.0,60.0
108,64.0,0,540,1.0,50.0
109,76.0,25,60,0.0,55.0
110,72.0,0,540,0.0,35.0
111,57.0,0,110,1.0,40.0
112,65.0,120,110,1.0,30.0
113,72.0,0,130,0.0,28.0
114,84.0,0,130,0.0,42.0
115,56.0,0,110,1.0,42.0
116,65.0,120,110,1.0,32.0
117,83.0,0,130,0.0,40.0
118,71.0,0,130,0.0,25.0
119,65.0,0,110,1.0,27.0
120,57.0,0,110,1.0,40.0
121,84.0,0,130,0.0,46.0
122,72.0,120,130,0.0,31.0
123,58.0,0,240,1.0,45.0
124,65.0,120,240,1.0,30.0
125,86.0,0,310,0.0,50.0
126,74.0,0,310,0.0,35.0
127,88.0,60,25,0.0,45.0
128,86.0,20,20,0.0,40.0
129,85.0,15,20,0.0,42.0
130,86.0,10,20,0.0,45.0
131,88.0,15,50,0.0,50.0
132,89.0,60,40,0.0,55.0
133,53.0,0,240,1.0,25.0
134,50.0,240,240,1.0,28.0
135,46.0,0,240,1.0,40.0
136,53.0,0,240,1.0,22.0
137,57.0,60,240,1.0,30.0
138,48.0,240,0,1.0,52.0
139,77.0,0,370,0.0,60.0
140,81.0,120,70,0.0,53.0
141,79.0,60,60,0.0,57.0
142,52.0,0,240,1.0,32.0
143,58.0,0,240,1.0,40.0
144,53.0,0,250,1.0,50.0
145,79.0,60,370,0.0,55.0
146,84.0,120,70,0.0,48.0
147,58.0,0,490,1.0,33.0
148,76.0,60,70,0.0,52.0
149,41.0,240,250,1.0,40.0
150,64.0,0,490,1.0,45.0
151,57.0,0,50,1.0,28.0
152,53.0,0,50,1.0,45.0
153,65.0,60,50,1.0,40.0
154,60.0,0,530,1.0,25.0
155,77.0,0,120,0.0,45.0
156,60.0,60,70,1.0,50.0
157,59.0,60,70,1.0,52.0
158,60.0,60,70,1.0,48.0
159,62.0,60,70,1.0,45.0
160,60.0,60,70,1.0,52.0
161,58.0,60,70,1.0,56.0
162,55.0,60,70,1.0,60.0
163,53.0,0,70,1.0,40.0
164,41.0,0,70,1.0,55.0
165,60.0,0,30,1.0,28.0
166,57.0,60,30,1.0,35.0
167,57.0,0,40,1.0,37.0
168,60.0,60,40,1.0,30.0
169,57.0,0,30,1.0,32.0
170,60.0,60,30,1.0,27.0
171,53.0,60,70,1.0,48.0
172,57.0,0,30,1.0,32.0
173,60.0,60,30,1.0,25.0
174,60.0,0,40,1.0,27.0
175,57.0,60,40,1.0,34.0
176,60.0,0,30,1.0,24.0
177,57.0,60,30,1.0,29.0
178,69.0,60,0,0.0,65.0
179,77.0,0,480,0.0,68.0
180,65.0,0,480,0.0,52.0
181,34.0,0,70,1.0,50.0
182,46.0,0,70,1.0,30.0
183,58.0,0,30,1.0,35.0
184,62.0,60,30,1.0,28.0
185,58.0,0,40,1.0,37.0
186,62.0,60,40,1.0,30.0
187,74.0,0,190,0.0,45.0
188,81.0,0,190,0.0,72.0
189,58.0,0,30,1.0,32.0
190,62.0,60,30,1.0,27.0
191,79.0,0,70,0.0,75.0
192,67.0,0,70,0.0,68.0
193,46.0,0,70,1.0,45.0
194,62.0,0,30,1.0,25.0
195,58.0,60,30,1.0,32.0
196,62.0,60,40,1.0,27.0
197,58.0,0,40,1.0,34.0
198,82.0,60,190,0.0,62.0
199,74.0,0,190,0.0,40.0
200,70.0,0,190,0.0,55.0
201,62.0,0,30,1.0,32.0
202,58.0,0,30,1.0,37.0
203,79.0,60,70,0.0,65.0
204,67.0,0,70,0.0,57.0
205,36.0,60,70,1.0,55.0
206,48.0,0,70,1.0,40.0
207,55.0,60,30,1.0,35.0
208,60.0,0,30,1.0,28.0
209,60.0,60,40,1.0,30.0
210,55.0,0,40,1.0,37.0
211,60.0,0,30,1.0,27.0
212,55.0,60,30,1.0,32.0
213,77.0,0,310,0.0,68.0
214,72.0,0,310,0.0,45.0
215,65.0,0,310,0.0,53.0
216,60.0,60,30,1.0,25.0
217,55.0,0,30,1.0,32.0
218,64.0,0,70,0.0,60.0
219,76.0,0,70,0.0,72.0
220,60.0,0,40,1.0,27.0
221,55.0,0,40,1.0,34.0
222,79.0,60,70,0.0,65.0
223,67.0,0,70,0.0,53.0
224,55.0,0,30,1.0,29.0
225,60.0,0,30,1.0,24.0
226,48.0,0,0,1.0,45.0
227,64.0,60,70,0.0,55.0
228,76.0,0,70,0.0,67.0
229,52.0,0,30,1.0,35.0
230,55.0,0,30,1.0,20.0
231,60.0,60,30,1.0,28.0
232,52.0,60,40,1.0,37.0
233,55.0,0,40,1.0,18.0
234,60.0,0,40,1.0,30.0
235,60.0,60,30,1.0,27.0
236,55.0,0,30,1.0,20.0
237,52.0,0,30,1.0,32.0
238,60.0,50,240,0.0,45.0
239,72.0,10,240,0.0,62.0
240,55.0,0,30,1.0,15.0
241,60.0,0,30,1.0,25.0
242,52.0,60,30,1.0,32.0
243,52.0,0,40,1.0,34.0
244,60.0,0,40,1.0,27.0
245,55.0,0,40,1.0,18.0
246,52.0,0,30,1.0,37.0
247,55.0,0,30,1.0,20.0
248,60.0,60,30,1.0,32.0
249,46.0,60,240,1.0,50.0
250,72.0,60,130,0.0,75.0
251,60.0,0,30,1.0,28.0
252,53.0,50,30,1.0,35.0
253,60.0,0,40,1.0,30.0
254,53.0,60,40,1.0,37.0
255,53.0,0,30,1.0,32.0
256,60.0,60,30,1.0,27.0
257,45.0,0,240,1.0,55.0
258,65.0,60,240,0.0,50.0
259,81.0,45,20,0.0,60.0
260,77.0,10,240,0.0,80.0
261,67.0,0,70,0.0,60.0
262,79.0,15,70,0.0,75.0
263,58.0,0,30,1.0,32.0
264,60.0,60,30,1.0,25.0
265,66.0,0,70,0.0,63.0
266,78.0,0,70,0.0,78.0
267,58.0,0,40,1.0,34.0
268,60.0,0,40,1.0,27.0
269,79.0,60,70,0.0,73.0
270,67.0,0,70,0.0,58.0
271,58.0,0,30,1.0,29.0
272,60.0,0,30,1.0,24.0
273,52.0,0,240,1.0,48.0
274,68.0,60,70,0.0,53.0
275,80.0,0,70,0.0,68.0
276,60.0,0,30,1.0,28.0
277,57.0,60,30,1.0,35.0
278,57.0,0,40,1.0,37.0
279,60.0,60,40,1.0,30.0
280,60.0,60,30,1.0,27.0
281,57.0,0,30,1.0,32.0
282,81.0,0,240,0.0,70.0
283,53.0,0,240,1.0,50.0
284,69.0,60,240,0.0,50.0
285,84.0,45,20,0.0,60.0
286,70.0,15,70,0.0,52.0
287,82.0,0,70,0.0,72.0
288,62.0,0,30,1.0,30.0
289,58.0,0,30,1.0,37.0
290,69.0,0,70,0.0,55.0
291,81.0,60,70,0.0,75.0
292,58.0,0,40,1.0,39.0
293,62.0,0,40,1.0,32.0
294,82.0,0,70,0.0,70.0
295,70.0,60,70,0.0,57.0
296,58.0,0,30,1.0,42.0
297,62.0,60,30,1.0,37.0
298,46.0,0,240,1.0,55.0
299,86.0,0,70,0.0,65.0
300,74.0,0,70,0.0,52.0
301,57.0,60,30,1.0,35.0
302,60.0,0,30,1.0,28.0
303,57.0,0,40,1.0,37.0
304,60.0,60,40,1.0,30.0
305,60.0,0,30,1.0,27.0
306,57.0,60,30,1.0,32.0
307,48.0,60,0,1.0,48.0
308,69.0,60,310,0.0,55.0
309,77.0,0,310,0.0,40.0
310,81.0,0,310,0.0,68.0
311,60.0,60,30,1.0,25.0
312,57.0,0,30,1.0,32.0
313,53.0,0,30,1.0,28.0
314,82.0,0,70,0.0,70.0
315,70.0,0,70,0.0,57.0
316,53.0,0,40,1.0,23.0
317,57.0,60,40,1.0,34.0
318,60.0,0,40,1.0,25.0
319,83.0,0,70,0.0,65.0
320,71.0,0,70,0.0,52.0
321,57.0,0,30,1.0,29.0
322,53.0,0,30,1.0,25.0
323,60.0,0,30,1.0,20.0
324,72.0,60,70,0.0,51.0
325,84.0,0,70,0.0,63.0
326,60.0,60,30,1.0,28.0
327,55.0,0,30,1.0,20.0
328,52.0,0,30,1.0,35.0
329,60.0,0,40,1.0,30.0
330,52.0,60,40,1.0,37.0
331,55.0,0,40,1.0,18.0
332,55.0,0,30,1.0,20.0
333,60.0,0,30,1.0,27.0
334,52.0,60,30,1.0,32.0
335,79.0,0,240,0.0,60.0
336,76.0,0,240,0.0,32.0
337,67.0,0,240,0.0,50.0
338,48.0,60,240,1.0,45.0
339,55.0,60,30,1.0,15.0
340,52.0,0,30,1.0,32.0
341,60.0,0,30,1.0,25.0
342,60.0,0,40,1.0,27.0
343,55.0,0,40,1.0,18.0
344,52.0,60,40,1.0,34.0
345,52.0,0,30,1.0,37.0
346,60.0,0,30,1.0,32.0
347,55.0,60,30,1.0,20.0
348,48.0,60,240,1.0,50.0
349,72.0,60,0,0.0,65.0
350,36.0,0,50,1.0,80.0
351,48.0,60,50,1.0,65.0
352,40.0,0,50,1.0,75.0
353,52.0,60,50,1.0,62.0
354,36.0,0,50,1.0,78.0
355,48.0,60,50,1.0,64.0
356,40.0,0,50,1.0,72.0
357,52.0,60,50,1.0,60.0
358,36.0,0,50,1.0,75.0
359,48.0,60,50,1.0,62.0
360,79.0,0,0,0.0,85.0
361,76.0,0,370,0.0,82.0
362,82.0,0,370,0.0,90.0
363,81.0,25,20,0.0,70.0
364,40.0,60,50,1.0,68.0
365,52.0,0,50,1.0,58.0
366,79.0,15,20,0.0,60.0
367,81.0,15,20,0.0,63.0
368,79.0,10,20,0.0,66.0
369,78.0,15,20,0.0,68.0
370,43.0,0,50,1.0,64.0
371,55.0,5,50,1.0,55.0
372,79.0,15,20,0.0,70.0
373,72.0,20,50,0.0,70.0
374,76.0,0,50,0.0,85.0
375,46.0,0,50,1.0,60.0
376,58.0,0,50,1.0,50.0
377,57.0,0,130,1.0,70.0
378,77.0,0,130,0.0,82.0
379,65.0,0,130,0.0,68.0
380,60.0,120,240,1.0,40.0
381,76.0,0,130,0.0,85.0
382,64.0,0,130,0.0,70.0
383,58.0,0,130,1.0,60.0
384,55.0,120,130,1.0,72.0
385,65.0,0,130,0.0,65.0
386,77.0,0,130,0.0,80.0
387,53.0,120,130,1.0,75.0
388,57.0,0,130,1.0,55.0
389,60.0,0,130,1.0,45.0
390,36.0,60,50,1.0,75.0
391,48.0,0,50,1.0,60.0
392,52.0,0,50,1.0,57.0
393,40.0,60,50,1.0,70.0
394,36.0,60,50,1.0,73.0
395,48.0,0,50,1.0,59.0
396,40.0,0,50,1.0,67.0
397,52.0,60,50,1.0,55.0
398,48.0,60,50,1.0,57.0
399,36.0,0,50,1.0,70.0
400,79.0,120,360,0.0,60.0
401,72.0,0,370,0.0,65.0
402,76.0,0,370,0.0,77.0
403,82.0,0,370,0.0,85.0
404,79.0,0,35,0.0,80.0
405,81.0,25,20,0.0,68.0
406,52.0,60,50,1.0,53.0
407,40.0,0,50,1.0,63.0
408,79.0,15,20,0.0,60.0
409,81.0,15,20,0.0,62.0
410,79.0,10,20,0.0,64.0
411,78.0,15,20,0.0,66.0
412,43.0,0,50,1.0,59.0
413,55.0,5,50,1.0,50.0
414,79.0,15,25,0.0,68.0
415,46.0,0,50,1.0,55.0
416,58.0,20,50,1.0,45.0
417,76.0,0,60,0.0,80.0
418,72.0,0,60,0.0,60.0
419,77.0,0,0,0.0,40.0
420,84.0,0,130,0.0,67.0
421,72.0,0,130,0.0,53.0
422,57.0,0,130,1.0,65.0
423,60.0,120,130,1.0,45.0
424,83.0,0,130,0.0,75.0
425,71.0,0,130,0.0,60.0
426,56.0,0,130,1.0,70.0
427,59.0,120,130,1.0,63.0
428,77.0,0,120,0.0,43.0
429,84.0,0,130,0.0,71.0
430,72.0,0,130,0.0,56.0
431,60.0,120,130,1.0,51.0
432,57.0,0,130,1.0,64.0
433,46.0,0,250,1.0,62.0
434,77.0,0,290,0.0,40.0
435,74.0,0,290,0.0,50.0
436,86.0,0,290,0.0,65.0
437,74.0,0,30,0.0,55.0
438,86.0,60,30,0.0,70.0
439,53.0,0,360,1.0,42.0
440,55.0,60,0,1.0,30.0
441,76.0,0,25,0.0,52.0
442,88.0,0,25,0.0,63.0
443,77.0,60,30,0.0,50.0
444,89.0,0,30,0.0,60.0
445,50.0,0,120,1.0,22.0
446,53.0,0,0,1.0,29.0
447,47.0,240,250,1.0,57.0
448,48.0,60,240,1.0,55.0
449,57.0,0,240,1.0,37.0
450,65.0,0,250,0.0,60.0
451,77.0,0,250,0.0,65.0
452,69.0,240,190,0.0,55.0
453,81.0,0,190,0.0,68.0
454,58.0,0,240,1.0,40.0
455,52.0,0,240,1.0,34.0
456,48.0,0,240,1.0,49.0
457,67.0,180,60,0.0,47.0
458,79.0,0,60,0.0,62.0
459,77.0,0,200,0.0,60.0
460,65.0,0,200,0.0,43.0
461,53.0,0,200,1.0,45.0
462,57.0,60,200,1.0,38.0
463,69.0,240,210,0.0,100.0
464,57.0,0,210,1.0,80.0
465,45.0,0,210,1.0,100.0
466,69.0,210,40,0.0,95.0
467,45.0,0,40,1.0,95.0
468,57.0,0,40,1.0,78.0
469,50.0,0,200,1.0,75.0
470,62.0,30,200,0.0,105.0
471,38.0,0,200,1.0,105.0
472,50.0,240,210,1.0,100.0
473,62.0,0,210,1.0,80.0
474,74.0,210,0,0.0,78.0
475,86.0,0,210,0.0,100.0
476,62.0,0,40,1.0,78.0
477,50.0,0,40,1.0,95.0
478,86.0,0,40,0.0,95.0
479,79.0,0,200,0.0,105.0
480,67.0,0,200,0.0,75.0
481,43.0,0,200,1.0,105.0
482,55.0,30,200,1.0,75.0
483,46.0,0,210,1.0,100.0
484,70.0,240,210,0.0,80.0
485,82.0,0,0,0.0,95.0
486,58.0,0,210,1.0,80.0
487,58.0,0,40,1.0,78.0
488,70.0,0,40,0.0,75.0
489,46.0,210,40,1.0,95.0
490,37.0,30,200,1.0,115.0
491,49.0,0,200,1.0,85.0
492,79.0,0,200,0.0,78.0
493,76.0,0,200,0.0,85.0
494,88.0,0,200,0.0,110.0
495,82.0,0,200,0.0,65.0
496,38.0,0,180,1.0,105.0
497,50.0,0,180,1.0,78.0
498,77.0,0,180,0.0,90.0
499,81.0,0,180,0.0,78.0
500,89.0,240,180,0.0,115.0
501,46.0,0,240,1.0,45.0
502,34.0,0,250,1.0,60.0
503,74.0,0,310,0.0,35.0
504,79.0,0,310,0.0,70.0
505,77.0,0,310,0.0,55.0
506,67.0,240,310,0.0,60.0
507,81.0,60,70,0.0,72.0
508,69.0,0,70,0.0,58.0
509,82.0,0,70,0.0,66.0
510,70.0,60,70,0.0,56.0
511,86.0,0,50,0.0,63.0
512,74.0,60,50,0.0,54.0
513,46.0,0,240,1.0,28.0
514,50.0,0,240,1.0,15.0
515,53.0,240,240,1.0,32.0
516,55.0,0,240,1.0,40.0
517,74.0,60,70,0.0,50.0
518,86.0,0,70,0.0,58.0
519,84.0,0,70,0.0,62.0
520,72.0,60,70,0.0,52.0
521,57.0,0,130,1.0,48.0
522,82.0,0,70,0.0,65.0
523,70.0,60,70,0.0,54.0
524,81.0,60,50,0.0,67.0
525,69.0,0,50,0.0,56.0
526,48.0,0,240,1.0,50.0
527,60.0,0,130,1.0,43.0
528,53.0,0,250,1.0,25.0
529,81.0,0,70,0.0,64.0
530,69.0,0,70,0.0,53.0
531,67.0,60,70,0.0,55.0
532,79.0,0,70,0.0,66.0
533,52.0,0,130,1.0,33.0
534,82.0,0,70,0.0,62.0
535,70.0,60,70,0.0,48.0
536,48.0,0,240,1.0,42.0
537,76.0,0,70,0.0,65.0
538,64.0,60,70,0.0,50.0
539,58.0,60,250,1.0,45.0
540,55.0,0,130,1.0,36.0
541,65.0,0,200,0.0,40.0
542,53.0,0,200,1.0,40.0
543,57.0,60,200,1.0,30.0
544,77.0,0,200,0.0,60.0
545,69.0,0,210,0.0,45.0
546,72.0,0,0,0.0,22.0
547,77.0,210,0,0.0,45.0
548,53.0,240,210,1.0,28.0
549,41.0,0,210,1.0,45.0
550,41.0,0,25,1.0,38.0
551,53.0,0,25,1.0,25.0
552,69.0,0,25,0.0,38.0
553,53.0,0,240,1.0,20.0
554,65.0,0,240,0.0,35.0
555,69.0,0,240,0.0,25.0
556,41.0,30,240,1.0,40.0
557,77.0,0,240,0.0,50.0
558,72.0,430,60,0.0,35.0
559,53.0,0,240,1.0,45.0
560,60.0,120,130,1.0,38.0
561,81.0,50,370,0.0,50.0
562,65.0,120,130,1.0,32.0
563,82.0,120,45,0.0,45.0
564,81.0,35,40,0.0,47.0
565,79.0,30,35,0.0,43.0
566,81.0,25,40,0.0,45.0
567,69.0,0,130,1.0,28.0
568,67.0,30,130,1.0,30.0
569,58.0,0,240,1.0,40.0
570,72.0,120,130,1.0,37.0
571,84.0,0,370,0.0,40.0
572,64.0,120,130,1.0,43.0
573,76.0,0,130,0.0,48.0
574,67.0,120,130,1.0,40.0
575,57.0,120,240,1.0,45.0
576,60.0,120,130,1.0,35.0
577,77.0,0,370,0.0,45.0
578,65.0,120,130,1.0,33.0
579,81.0,120,70,0.0,43.0
580,79.0,60,50,0.0,48.0
581,69.0,0,130,1.0,28.0
582,60.0,0,130,1.0,30.0
583,52.0,60,240,1.0,40.0
584,58.0,120,130,1.0,34.0
585,55.0,120,130,1.0,38.0
586,79.0,0,370,0.0,52.0
587,82.0,0,70,0.0,48.0
588,81.0,60,50,0.0,53.0
589,60.0,120,130,1.0,35.0
590,53.0,120,0,1.0,35.0
591,57.0,120,130,1.0,32.0
592,81.0,60,370,0.0,55.0
593,82.0,120,70,0.0,52.0
594,60.0,0,130,1.0,38.0
595,84.0,60,70,0.0,58.0
596,86.0,0,70,0.0,60.0
597,58.0,0,130,1.0,40.0
598,88.0,60,70,0.0,62.0
599,89.0,60,70,0.0,58.0
600,46.0,60,240,1.0,48.0
601,60.0,0,130,1.0,36.0
602,88.0,60,70,0.0,60.0
603,89.0,60,70,0.0,62.0
604,86.0,60,70,0.0,64.0
605,62.0,0,130,1.0,33.0
606,84.0,0,70,0.0,58.0
607,55.0,0,130,1.0,38.0
608,58.0,60,130,1.0,35.0
609,82.0,60,70,0.0,53.0
610,57.0,0,120,1.0,40.0
611,48.0,0,240,1.0,50.0
612,53.0,120,130,1.0,30.0
613,81.0,60,310,0.0,55.0
614,57.0,0,120,1.0,28.0
615,84.0,60,70,0.0,50.0
616,60.0,120,130,1.0,42.0
617,83.0,0,70,0.0,52.0
618,57.0,0,120,1.0,38.0
619,53.0,60,120,1.0,25.0
620,84.0,60,70,0.0,48.0
621,55.0,0,80,1.0,33.0
622,52.0,0,80,1.0,20.0
623,48.0,0,80,1.0,40.0
624,79.0,60,240,0.0,45.0
625,43.0,0,130,1.0,70.0
626,55.0,120,130,1.0,50.0
627,52.0,120,130,1.0,55.0
628,40.0,0,130,1.0,72.0
629,38.0,0,130,1.0,77.0
630,57.0,90,40,0.0,75.0
631,50.0,120,130,1.0,58.0
632,49.0,0,130,1.0,65.0
633,37.0,0,130,1.0,80.0
634,57.0,0,70,1.0,35.0
635,61.0,0,70,1.0,45.0
636,64.0,120,70,1.0,50.0
637,61.0,0,90,1.0,38.0
638,57.0,0,90,1.0,28.0
639,64.0,120,90,1.0,43.0
640,57.0,120,80,1.0,23.0
641,61.0,0,80,1.0,33.0
642,64.0,0,80,1.0,38.0
643,69.0,30,480,0.0,90.0
644,79.0,100,30,0.0,40.0
645,33.0,0,130,1.0,45.0
646,45.0,20,130,1.0,30.0
647,67.0,0,70,1.0,30.0
648,64.0,0,70,1.0,18.0
649,61.0,120,70,1.0,25.0
650,57.0,0,70,1.0,15.0
651,57.0,0,90,1.0,20.0
652,61.0,120,90,1.0,30.0
653,64.0,0,90,1.0,22.0
654,67.0,0,90,1.0,35.0
655,67.0,0,80,1.0,32.0
656,61.0,0,80,1.0,27.0
657,64.0,120,80,1.0,20.0
658,57.0,0,80,1.0,17.0
659,91.0,0,550,0.0,55.0
660,38.0,120,130,1.0,50.0
661,50.0,0,130,1.0,35.0
662,89.0,60,70,0.0,42.0
663,88.0,0,70,0.0,44.0
664,57.0,60,70,1.0,15.0
665,62.0,0,70,1.0,25.0
666,65.0,0,70,1.0,30.0
667,86.0,60,70,0.0,46.0
668,85.0,0,70,0.0,48.0
669,57.0,0,90,1.0,20.0
670,65.0,0,90,1.0,35.0
671,62.0,60,90,1.0,26.0
672,86.0,60,70,0.0,45.0
673,89.0,0,70,0.0,42.0
674,57.0,60,80,1.0,17.0
675,65.0,0,80,1.0,32.0
676,62.0,0,80,1.0,27.0
677,86.0,60,70,0.0,44.0
678,84.0,0,70,0.0,46.0
679,55.0,0,0,1.0,15.0
680,43.0,60,130,1.0,45.0
681,82.0,60,70,0.0,48.0
682,86.0,0,70,0.0,45.0
683,64.0,60,70,1.0,30.0
684,62.0,0,70,1.0,18.0
685,58.0,0,70,1.0,25.0
686,82.0,60,70,0.0,47.0
687,81.0,0,70,0.0,49.0
688,64.0,0,90,1.0,35.0
689,58.0,60,90,1.0,30.0
690,62.0,0,90,1.0,22.0
691,55.0,0,90,1.0,20.0
692,79.0,60,70,0.0,51.0
693,77.0,60,70,0.0,53.0
694,55.0,0,80,1.0,24.0
695,58.0,0,80,1.0,34.0
696,62.0,0,80,1.0,27.0
697,64.0,0,80,1.0,39.0
698,76.0,60,70,0.0,55.0
699,57.0,60,120,1.0,40.0
700,45.0,0,130,1.0,55.0
701,57.0,0,70,1.0,15.0
702,62.0,120,70,1.0,25.0
703,65.0,0,70,1.0,30.0
704,81.0,0,220,0.0,50.0
705,82.0,90,40,0.0,55.0
706,57.0,30,120,1.0,32.0
707,45.0,0,130,1.0,45.0
708,57.0,0,80,1.0,15.0
709,62.0,0,80,1.0,25.0
710,65.0,120,80,1.0,30.0
711,74.0,0,370,0.0,58.0
712,45.0,0,130,1.0,35.0
713,33.0,120,130,1.0,50.0
714,76.0,120,45,0.0,52.0
715,57.0,0,70,1.0,15.0
716,62.0,0,70,1.0,18.0
717,65.0,0,70,1.0,30.0
718,74.0,35,40,0.0,50.0
719,73.0,30,35,0.0,53.0
720,74.0,25,40,0.0,51.0
721,77.0,0,130,0.0,48.0
722,33.0,0,130,1.0,45.0
723,45.0,0,130,1.0,33.0
724,61.0,0,80,1.0,30.0
725,55.0,0,80,1.0,27.0
726,57.0,0,80,1.0,16.0
727,69.0,0,0,0.0,20.0
728,76.0,120,130,0.0,50.0
729,73.0,0,250,0.0,30.0
730,67.0,30,250,0.0,22.0
731,50.0,0,100,1.0,28.0
732,38.0,0,100,1.0,40.0
733,65.0,0,100,0.0,28.0
734,74.0,120,100,0.0,45.0
735,53.0,120,130,1.0,88.0
736,65.0,0,130,0.0,88.0
737,69.0,120,130,0.0,90.0
738,57.0,0,130,1.0,90.0
739,67.0,120,130,0.0,86.0
740,55.0,0,130,1.0,86.0
741,65.0,120,130,0.0,83.0
742,53.0,0,130,1.0,83.0
743,64.0,120,130,0.0,80.0
744,52.0,0,130,1.0,80.0
745,50.0,120,130,1.0,76.0
746,62.0,0,130,0.0,75.0
747,48.0,120,130,1.0,73.0
748,60.0,0,130,0.0,70.0
749,55.0,120,70,1.0,60.0
750,62.0,0,70,1.0,48.0
751,65.0,0,70,1.0,68.0
752,55.0,120,90,1.0,48.0
753,62.0,0,90,1.0,36.0
754,65.0,0,90,1.0,56.0
755,65.0,120,80,1.0,48.0
756,55.0,0,80,1.0,40.0
757,62.0,0,80,1.0,28.0
758,55.0,0,480,0.0,100.0
759,35.0,120,480,1.0,70.0
760,47.0,0,480,1.0,50.0
761,77.0,105,20,0.0,40.0
762,59.0,120,70,1.0,32.0
763,55.0,0,70,1.0,16.0
764,53.0,0,70,1.0,19.0
765,50.0,0,70,1.0,24.0
766,89.0,15,280,0.0,55.0
767,86.0,30,40,0.0,48.0
768,59.0,120,90,1.0,35.0
769,55.0,0,90,1.0,10.0
770,53.0,0,90,1.0,16.0
771,50.0,0,90,1.0,28.0
772,83.0,30,40,0.0,50.0
773,79.0,30,40,0.0,52.0
774,77.0,30,40,0.0,54.0
775,74.0,30,40,0.0,56.0
776,50.0,0,80,1.0,22.0
777,53.0,0,80,1.0,18.0
778,55.0,0,80,1.0,12.0
779,59.0,0,80,1.0,30.0
780,71.0,30,40,0.0,58.0
781,43.0,0,480,1.0,30.0
782,31.0,0,480,1.0,45.0
783,65.0,30,40,0.0,62.0
784,64.0,30,40,0.0,60.0
785,66.0,30,40,0.0,58.0
786,67.0,30,40,0.0,56.0
787,48.0,0,130,1.0,35.0
788,36.0,0,130,1.0,50.0
789,66.0,30,40,0.0,59.0
790,67.0,30,40,0.0,57.0
791,52.0,0,70,1.0,15.0
792,55.0,0,70,1.0,25.0
793,60.0,0,70,1.0,30.0
794,71.0,30,40,0.0,55.0
795,72.0,30,40,0.0,53.0
796,71.0,30,40,0.0,56.0
797,72.0,0,40,0.0,54.0
798,75.0,30,40,0.0,52.0
799,60.0,30,90,1.0,35.0
800,52.0,0,90,1.0,20.0
801,55.0,0,90,1.0,26.0
802,76.0,30,40,0.0,50.0
803,75.0,30,40,0.0,53.0
804,76.0,30,40,0.0,51.0
805,78.0,30,40,0.0,49.0
806,52.0,0,80,1.0,17.0
807,55.0,0,80,1.0,27.0
808,60.0,0,80,1.0,32.0
809,79.0,30,40,0.0,47.0
810,78.0,30,40,0.0,50.0
811,79.0,0,40,0.0,48.0
812,83.0,30,40,0.0,46.0
813,84.0,30,40,0.0,44.0
814,52.0,30,120,1.0,30.0
815,83.0,30,40,0.0,47.0
816,40.0,0,130,1.0,45.0
817,84.0,30,40,0.0,45.0
818,87.0,30,40,0.0,43.0
819,52.0,0,70,1.0,25.0
820,55.0,0,70,1.0,18.0
821,60.0,0,70,1.0,30.0
822,88.0,30,40,0.0,41.0
823,87.0,30,40,0.0,44.0
824,88.0,30,40,0.0,42.0
825,86.0,30,40,0.0,45.0
826,55.0,0,90,1.0,22.0
827,60.0,0,90,1.0,35.0
828,52.0,0,90,1.0,30.0
829,84.0,30,40,0.0,48.0
830,83.0,30,40,0.0,51.0
831,81.0,0,40,0.0,54.0
832,79.0,30,40,0.0,57.0
833,60.0,0,80,1.0,39.0
834,55.0,0,80,1.0,27.0
835,52.0,30,80,1.0,34.0
836,77.0,30,40,0.0,52.0
837,76.0,30,40,0.0,48.0
838,74.0,0,20,0.0,50.0
839,69.0,30,15,0.0,52.0
840,71.0,30,15,0.0,49.0
841,73.0,30,15,0.0,46.0
842,53.0,0,120,1.0,40.0
843,41.0,30,130,1.0,55.0
844,74.0,30,15,0.0,48.0
845,76.0,30,15,0.0,45.0
846,62.0,0,70,1.0,30.0
847,60.0,0,70,1.0,25.0
848,57.0,0,70,1.0,15.0
849,77.0,30,15,0.0,43.0
850,76.0,30,15,0.0,46.0
851,74.0,0,20,0.0,50.0
852,69.0,30,15,0.0,52.0
853,71.0,30,15,0.0,49.0
854,53.0,30,90,1.0,45.0
855,73.0,30,15,0.0,46.0
856,74.0,0,15,0.0,48.0
857,76.0,30,15,0.0,45.0
858,77.0,30,15,0.0,43.0
859,57.0,0,80,1.0,15.0
860,60.0,0,80,1.0,25.0
861,62.0,30,80,1.0,30.0
862,76.0,30,15,0.0,46.0
863,74.0,30,20,0.0,50.0
864,69.0,30,15,0.0,52.0
865,71.0,30,15,0.0,49.0
866,53.0,0,100,1.0,35.0
867,41.0,0,100,1.0,50.0
868,73.0,30,15,0.0,46.0
869,74.0,30,15,0.0,48.0
870,76.0,30,15,0.0,45.0
871,62.0,0,70,1.0,30.0
872,60.0,0,70,1.0,18.0
873,57.0,0,70,1.0,15.0
874,77.0,30,15,0.0,43.0
875,79.0,30,15,0.0,40.0
876,81.0,0,40,0.0,55.0
877,79.0,30,15,0.0,42.0
878,77.0,30,15,0.0,45.0
879,53.0,30,80,1.0,40.0
880,76.0,30,15,0.0,48.0
881,74.0,0,15,0.0,51.0
882,72.0,30,15,0.0,54.0
883,62.0,0,60,1.0,30.0
884,60.0,0,60,1.0,16.0
885,57.0,30,60,1.0,27.0
886,71.0,30,15,0.0,56.0
887,69.0,30,15,0.0,58.0
888,67.0,0,70,0.0,60.0
889,69.0,60,40,0.0,62.0
890,31.0,30,130,1.0,50.0
891,71.0,30,40,0.0,59.0
892,43.0,0,130,1.0,35.0
893,72.0,30,40,0.0,57.0
894,55.0,0,70,1.0,15.0
895,60.0,0,70,1.0,25.0
896,64.0,0,70,1.0,30.0
897,74.0,30,40,0.0,55.0
898,76.0,30,40,0.0,53.0
899,77.0,30,40,0.0,56.0
900,79.0,30,70,0.0,59.0
901,64.0,0,90,1.0,35.0
902,55.0,0,90,1.0,20.0
903,60.0,0,90,1.0,26.0
904,81.0,60,40,0.0,61.0
905,83.0,30,40,0.0,63.0
906,84.0,30,40,0.0,60.0
907,86.0,30,40,0.0,58.0
908,55.0,0,80,1.0,17.0
909,60.0,0,80,1.0,27.0
910,64.0,0,80,1.0,32.0
911,88.0,30,40,0.0,56.0
912,89.0,30,40,0.0,54.0
913,91.0,0,50,0.0,57.0
914,64.0,0,120,1.0,35.0
915,60.0,0,120,1.0,25.0
916,55.0,30,120,1.0,20.0
917,93.0,120,40,0.0,62.0
918,95.0,120,30,0.0,66.0
919,96.0,120,40,0.0,70.0
920,74.0,0,40,0.0,55.0
921,76.0,30,25,0.0,40.0
922,74.0,20,20,0.0,43.0
923,76.0,15,20,0.0,41.0
924,74.0,10,20,0.0,44.0
925,76.0,15,20,0.0,47.0
926,74.0,15,20,0.0,43.0
927,31.0,120,130,1.0,50.0
928,43.0,0,130,1.0,35.0
929,76.0,0,20,0.0,48.0
930,74.0,10,20,0.0,46.0
931,76.0,15,20,0.0,50.0
932,74.0,10,20,0.0,52.0
933,76.0,10,20,0.0,48.0
934,55.0,15,70,1.0,25.0
935,60.0,0,70,1.0,35.0
936,62.0,0,70,1.0,28.0
937,65.0,0,70,1.0,40.0
938,74.0,15,20,0.0,50.0
939,76.0,10,20,0.0,55.0
940,74.0,15,20,0.0,52.0
941,76.0,10,20,0.0,49.0
942,74.0,15,20,0.0,58.0
943,76.0,5,20,0.0,52.0
944,74.0,10,20,0.0,55.0
945,76.0,10,0,0.0,58.0
946,74.0,10,20,0.0,62.0
947,74.0,15,20,0.0,65.0
948,55.0,0,90,1.0,35.0
949,62.0,0,90,1.0,50.0
950,65.0,0,90,1.0,50.0
951,60.0,10,90,1.0,41.0
952,76.0,15,20,0.0,68.0
953,74.0,10,20,0.0,64.0
954,76.0,10,20,0.0,66.0
955,74.0,15,20,0.0,70.0
956,76.0,5,20,0.0,72.0
957,74.0,15,20,0.0,69.0
958,76.0,10,25,0.0,73.0
959,60.0,0,80,1.0,57.0
960,55.0,0,80,1.0,47.0
961,62.0,5,80,1.0,62.0
962,65.0,0,80,1.0,62.0
963,73.0,20,35,0.0,76.0
964,74.0,30,45,0.0,80.0
965,79.0,0,40,0.0,85.0
966,81.0,30,25,0.0,70.0
967,79.0,20,20,0.0,73.0
968,81.0,15,20,0.0,71.0
969,79.0,10,20,0.0,74.0
970,81.0,5,20,0.0,77.0
971,55.0,10,25,1.0,80.0
972,31.0,0,120,1.0,90.0
973,59.0,10,20,1.0,77.0
974,43.0,40,120,1.0,70.0
975,79.0,5,20,0.0,73.0
976,62.0,5,20,1.0,81.0
977,81.0,0,20,0.0,70.0
978,79.0,10,20,0.0,75.0
979,65.0,10,40,1.0,85.0
980,81.0,10,0,0.0,76.0
981,79.0,5,20,0.0,77.0
982,64.0,5,40,1.0,83.0
983,79.0,0,20,0.0,74.0
984,81.0,10,20,0.0,70.0
985,62.0,15,40,1.0,81.0
986,79.0,15,20,0.0,68.0
987,81.0,5,20,0.0,75.0
988,60.0,5,40,1.0,79.0
989,79.0,15,20,0.0,72.0
990,81.0,5,20,0.0,74.0
991,79.0,10,20,0.0,69.0
992,59.0,10,40,1.0,82.0
993,81.0,10,0,0.0,75.0
994,79.0,10,20,0.0,67.0
995,57.0,15,40,1.0,80.0
996,79.0,5,20,0.0,72.0
997,55.0,10,40,1.0,78.0
998,81.0,10,0,0.0,78.0
999,79.0,0,20,0.0,72.0
1000,53.0,10,40,1.0,76.0
1001,79.0,15,20,0.0,70.0
1002,81.0,5,20,0.0,72.0
1003,79.0,15,20,0.0,75.0
1004,52.0,5,40,1.0,79.0
1005,81.0,0,25,0.0,80.0
1006,50.0,10,40,1.0,77.0
1007,78.0,20,35,0.0,84.0
1008,48.0,10,40,1.0,80.0
1009,79.0,20,45,0.0,88.0
1010,47.0,10,40,1.0,85.0
1011,72.0,0,360,0.0,95.0
1012,48.0,0,360,1.0,70.0
1013,36.0,30,360,1.0,90.0
1014,64.0,0,360,0.0,82.0
1015,67.0,0,360,0.0,70.0
1016,79.0,0,30,0.0,95.0
1017,48.0,0,30,1.0,75.0
1018,36.0,450,30,1.0,95.0
1019,76.0,0,30,0.0,75.0
1020,72.0,0,0,0.0,60.0
1021,67.0,0,30,0.0,80.0
1022,69.0,30,200,0.0,85.0
1023,81.0,0,200,0.0,100.0
1024,77.0,0,200,0.0,78.0
1025,41.0,0,200,1.0,102.0
1026,53.0,0,200,1.0,80.0
1027,48.0,0,200,1.0,60.0
1028,77.0,0,0,0.0,68.0
1029,72.0,0,0,0.0,90.0
1030,69.0,0,30,0.0,80.0
1031,48.0,30,0,1.0,63.0
1032,53.0,0,0,1.0,83.0
1033,41.0,0,30,1.0,98.0
1034,45.0,0,200,1.0,105.0
1035,84.0,0,200,0.0,105.0
1036,53.0,0,30,1.0,78.0
1037,48.0,30,0,1.0,95.0
1038,72.0,0,0,0.0,75.0
1039,77.0,0,30,0.0,72.0
1040,81.0,0,30,0.0,101.0
1041,45.0,0,30,1.0,101.0
1042,55.0,0,70,1.0,60.0
1043,52.0,0,70,1.0,90.0
1044,79.0,0,70,0.0,95.0
1045,76.0,0,70,0.0,88.0
1046,72.0,120,50,0.0,60.0
1047,74.0,60,40,0.0,55.0
1048,76.0,60,45,0.0,50.0
1049,77.0,60,40,0.0,47.0
1050,78.0,60,40,0.0,49.0
1051,79.0,60,40,0.0,43.0
1052,60.0,30,30,1.0,42.0
1053,64.0,0,30,1.0,45.0
1054,81.0,30,70,0.0,45.0
1055,80.0,60,70,0.0,47.0
1056,81.0,60,70,0.0,43.0
1057,65.0,0,200,1.0,40.0
1058,60.0,0,200,1.0,30.0
1059,53.0,0,200,1.0,47.0
1060,60.0,30,30,1.0,28.0
1061,65.0,30,0,1.0,42.0
1062,53.0,0,30,1.0,43.0
1063,77.0,60,60,0.0,45.0
1064,84.0,0,70,0.0,43.0
1065,83.0,60,70,0.0,45.0
1066,84.0,60,70,0.0,41.0
1067,57.0,0,200,1.0,50.0
1068,60.0,0,200,1.0,32.0
1069,65.0,0,30,1.0,40.0
1070,57.0,30,30,1.0,46.0
1071,81.0,60,60,0.0,45.0
1072,60.0,0,0,1.0,40.0
1073,79.0,30,240,0.0,40.0
1074,64.0,0,240,1.0,35.0
1075,67.0,0,30,0.0,80.0
1076,79.0,0,30,0.0,95.0
1077,36.0,450,30,1.0,95.0
1078,48.0,0,0,1.0,60.0
1079,72.0,0,30,0.0,60.0
1080,76.0,0,30,0.0,75.0
1081,80.0,30,200,0.0,100.0
1082,68.0,0,200,0.0,85.0
1083,72.0,0,200,0.0,60.0
1084,77.0,0,200,0.0,78.0
1085,53.0,0,200,1.0,80.0
1086,41.0,0,200,1.0,102.0
1087,77.0,0,30,0.0,98.0
1088,48.0,0,30,1.0,50.0
1089,41.0,0,30,1.0,98.0
1090,68.0,210,30,0.0,80.0
1091,53.0,0,30,1.0,75.0
1092,72.0,0,0,0.0,90.0
1093,48.0,0,200,1.0,63.0
1094,44.0,0,200,1.0,105.0
1095,84.0,0,200,0.0,105.0
1096,77.0,0,200,0.0,68.0
1097,53.0,30,200,1.0,83.0
1098,72.0,0,30,0.0,85.0
1099,44.0,210,30,1.0,101.0
1100,77.0,0,30,0.0,72.0
1101,80.0,0,30,0.0,101.0
1102,53.0,0,30,1.0,78.0
1103,48.0,0,0,1.0,95.0
1104,72.0,0,70,0.0,75.0
1105,76.0,0,70,0.0,88.0
1106,79.0,30,70,0.0,95.0
1107,52.0,0,70,1.0,90.0
1108,55.0,0,70,1.0,60.0
1109,72.0,120,50,0.0,60.0
1110,74.0,60,40,0.0,55.0
1111,76.0,60,45,0.0,50.0
1112,77.0,60,40,0.0,47.0
1113,78.0,60,40,0.0,49.0
1114,79.0,60,40,0.0,43.0
1115,64.0,30,30,1.0,45.0
1116,60.0,0,0,1.0,30.0
1117,80.0,0,100,0.0,45.0
1118,77.0,90,40,0.0,47.0
1119,53.0,30,200,1.0,47.0
1120,65.0,0,200,1.0,40.0
1121,84.0,30,100,0.0,50.0
1122,60.0,90,30,1.0,28.0
1123,65.0,0,30,1.0,38.0
1124,53.0,0,30,1.0,43.0
1125,80.0,0,40,0.0,42.0
1126,65.0,30,200,1.0,42.0
1127,60.0,0,200,1.0,32.0
1128,56.0,0,200,1.0,50.0
1129,89.0,0,220,0.0,48.0
1130,56.0,0,30,1.0,46.0
1131,65.0,0,30,1.0,40.0
1132,60.0,0,0,1.0,50.0
1133,80.0,210,40,0.0,45.0
1134,79.0,0,30,0.0,50.0
1135,84.0,45,20,0.0,42.0
1136,83.0,35,20,0.0,44.0
1137,64.0,0,0,1.0,35.0
1138,60.0,0,0,1.0,20.0
1139,84.0,40,20,0.0,46.0
1140,83.0,40,20,0.0,40.0
1141,67.0,0,80,1.0,40.0
1142,84.0,40,20,0.0,43.0
1143,80.0,0,30,0.0,46.0
1144,84.0,45,20,0.0,42.0
1145,83.0,35,20,0.0,44.0
1146,53.0,40,120,1.0,45.0
1147,84.0,0,20,0.0,46.0
1148,83.0,40,20,0.0,40.0
1149,56.0,0,80,1.0,32.0
1150,60.0,0,80,1.0,20.0
1151,65.0,40,80,1.0,38.0
1152,84.0,40,20,0.0,43.0
1153,79.0,30,30,0.0,48.0
1154,84.0,25,20,0.0,42.0
1155,48.0,10,120,1.0,48.0
1156,83.0,40,20,0.0,44.0
1157,64.0,15,105,1.0,38.0
1158,55.0,0,120,1.0,30.0
1159,84.0,0,20,0.0,46.0
1160,83.0,40,20,0.0,40.0
1161,67.0,0,80,1.0,40.0
1162,64.0,40,80,1.0,35.0
1163,60.0,0,80,1.0,20.0
1164,84.0,40,20,0.0,43.0
1165,80.0,0,30,0.0,45.0
1166,84.0,40,20,0.0,42.0
1167,83.0,40,20,0.0,44.0
1168,53.0,40,120,1.0,52.0
1169,84.0,0,20,0.0,46.0
1170,83.0,40,20,0.0,40.0
1171,65.0,40,80,1.0,45.0
1172,60.0,0,80,1.0,27.0
1173,56.0,0,80,1.0,39.0
1174,84.0,40,20,0.0,43.0
1175,83.0,20,20,0.0,46.0
1176,84.0,30,20,0.0,42.0
1177,83.0,40,20,0.0,44.0
1178,64.0,10,90,1.0,42.0
1179,55.0,0,100,1.0,35.0
1180,48.0,20,120,1.0,55.0
1181,84.0,0,20,0.0,42.0
1182,83.0,40,20,0.0,45.0
1183,64.0,40,80,1.0,42.0
1184,60.0,0,80,1.0,27.0
1185,67.0,0,80,1.0,47.0
1186,84.0,40,20,0.0,43.0
1187,83.0,40,20,0.0,46.0
1188,84.0,40,20,0.0,44.0
1189,83.0,40,20,0.0,47.0
1190,48.0,0,120,1.0,53.0
1191,84.0,0,20,0.0,45.0
1192,83.0,40,20,0.0,48.0
1193,60.0,0,80,1.0,35.0
1194,66.0,40,80,1.0,23.0
1195,69.0,0,80,1.0,41.0
1196,84.0,40,20,0.0,46.0
1197,83.0,40,20,0.0,49.0
1198,84.0,40,20,0.0,47.0
1199,86.0,40,20,0.0,45.0
1200,48.0,0,120,1.0,50.0
1201,84.0,0,20,0.0,48.0
1202,82.0,40,20,0.0,51.0
1203,60.0,0,80,1.0,30.0
1204,67.0,0,80,1.0,18.0
1205,70.0,40,80,1.0,36.0
1206,81.0,40,20,0.0,54.0
1207,79.0,0,20,0.0,57.0
1208,81.0,40,20,0.0,55.0
1209,82.0,40,20,0.0,53.0
1210,48.0,40,120,1.0,54.0
1211,81.0,0,20,0.0,56.0
1212,79.0,40,20,0.0,59.0
1213,64.0,40,80,1.0,20.0
1214,67.0,0,80,1.0,38.0
1215,58.0,0,80,1.0,32.0
1216,77.0,40,20,0.0,62.0
1217,76.0,0,20,0.0,65.0
1218,77.0,40,20,0.0,63.0
1219,79.0,40,20,0.0,61.0
1220,48.0,0,120,1.0,44.0
1221,36.0,40,120,1.0,57.0
1222,77.0,0,20,0.0,64.0
1223,76.0,40,20,0.0,67.0
1224,58.0,0,80,1.0,22.0
1225,64.0,40,80,1.0,40.0
1226,55.0,0,80,1.0,34.0
1227,74.0,40,20,0.0,70.0
1228,72.0,0,20,0.0,73.0
1229,73.0,40,20,0.0,71.0
1230,74.0,40,20,0.0,69.0
1231,48.0,40,120,1.0,37.0
1232,36.0,0,120,1.0,50.0
1233,75.0,0,20,0.0,67.0
1234,76.0,40,20,0.0,65.0
1235,64.0,0,80,1.0,35.0
1236,58.0,0,80,1.0,17.0
1237,55.0,40,80,1.0,29.0
1238,77.0,40,20,0.0,63.0
1239,78.0,40,20,0.0,61.0
1240,79.0,40,20,0.0,59.0
1241,80.0,40,20,0.0,57.0
1242,81.0,40,20,0.0,55.0
1243,82.0,40,20,0.0,53.0
1244,83.0,40,20,0.0,51.0
1245,84.0,40,20,0.0,49.0
1246,83.0,40,20,0.0,52.0
1247,86.0,40,20,0.0,50.0
1248,84.0,40,20,0.0,53.0
1249,82.0,40,20,0.0,58.0
1250,79.0,40,20,0.0,55.0
1251,69.0,20,20,0.0,40.0
1252,72.0,10,20,0.0,44.0
1253,53.0,10,120,1.0,30.0
1254,41.0,0,120,1.0,45.0
1255,57.0,0,100,1.0,30.0
1256,65.0,120,100,1.0,38.0
1257,60.0,0,100,1.0,25.0
1258,53.0,120,120,1.0,40.0
1259,77.0,0,370,0.0,50.0
1260,79.0,0,45,0.0,52.0
1261,77.0,35,35,0.0,45.0
1262,76.0,25,40,0.0,48.0
1263,57.0,0,100,1.0,25.0
1264,65.0,0,100,1.0,33.0
1265,60.0,120,100,1.0,20.0
1266,77.0,30,40,0.0,43.0
1267,46.0,0,120,1.0,44.0
1268,81.0,30,190,0.0,45.0
1269,58.0,0,100,1.0,24.0
1270,62.0,0,100,1.0,16.0
1271,67.0,120,100,1.0,31.0
1272,79.0,60,70,0.0,48.0
1273,46.0,0,120,1.0,48.0
1274,82.0,60,190,0.0,42.0
1275,58.0,0,100,1.0,28.0
1276,67.0,120,100,1.0,35.0
1277,62.0,0,100,1.0,20.0
1278,79.0,60,70,0.0,45.0
1279,48.0,0,120,1.0,50.0
1280,57.0,120,100,1.0,28.0
1281,60.0,0,100,1.0,20.0
1282,65.0,0,100,1.0,35.0
1283,77.0,60,310,0.0,48.0
1284,48.0,120,120,1.0,47.0
1285,76.0,60,70,0.0,52.0
1286,79.0,60,70,0.0,45.0
1287,60.0,0,100,1.0,25.0
1288,55.0,0,100,1.0,17.0
1289,64.0,0,100,1.0,32.0
1290,76.0,60,70,0.0,47.0
1291,48.0,60,120,1.0,43.0
1292,55.0,0,100,1.0,13.0
1293,60.0,0,100,1.0,25.0
1294,64.0,120,100,1.0,28.0
1295,72.0,0,240,0.0,42.0
1296,46.0,120,120,1.0,45.0
1297,60.0,0,100,1.0,20.0
1298,64.0,0,100,1.0,30.0
1299,55.0,120,100,1.0,15.0
1300,72.0,0,120,0.0,55.0
1301,45.0,120,120,1.0,50.0
1302,60.0,0,100,1.0,20.0
1303,65.0,0,100,1.0,35.0
1304,57.0,110,100,1.0,28.0
1305,72.0,15,0,0.0,35.0
1306,81.0,105,20,0.0,50.0
1307,77.0,10,240,0.0,60.0
1308,79.0,0,70,0.0,55.0
1309,52.0,0,120,1.0,48.0
1310,78.0,60,70,0.0,58.0
1311,79.0,0,70,0.0,53.0
1312,67.0,60,100,1.0,33.0
1313,60.0,0,100,1.0,22.0
1314,72.0,0,0,0.0,30.0
1315,80.0,60,70,0.0,48.0
1316,53.0,60,120,1.0,52.0
1317,65.0,0,100,1.0,30.0
1318,69.0,0,100,1.0,37.0
1319,60.0,110,100,1.0,22.0
1320,84.0,105,20,0.0,45.0
1321,81.0,10,240,0.0,50.0
1322,82.0,0,70,0.0,52.0
1323,46.0,15,120,1.0,55.0
1324,81.0,60,70,0.0,55.0
1325,82.0,0,70,0.0,50.0
1326,70.0,60,100,1.0,35.0
1327,67.0,0,100,1.0,30.0
1328,62.0,0,100,1.0,20.0
1329,74.0,0,240,0.0,32.0
1330,86.0,60,70,0.0,45.0
1331,48.0,10,120,1.0,48.0
1332,60.0,0,100,1.0,20.0
1333,65.0,0,100,1.0,28.0
1334,69.0,120,100,1.0,35.0
1335,81.0,0,310,0.0,48.0
1336,48.0,120,120,1.0,43.0
1337,82.0,60,70,0.0,50.0
1338,83.0,0,70,0.0,52.0
1339,72.0,35,480,0.0,30.0
1340,69.0,60,100,1.0,30.0
1341,65.0,0,100,1.0,23.0
1342,60.0,0,100,1.0,15.0
1343,77.0,15,480,0.0,25.0
1344,84.0,60,70,0.0,54.0
1345,48.0,0,120,1.0,45.0
1346,67.0,0,100,1.0,32.0
1347,64.0,120,100,1.0,25.0
1348,60.0,0,100,1.0,17.0
1349,79.0,0,240,0.0,48.0
1350,76.0,60,240,0.0,35.0
1351,72.0,0,240,0.0,20.0
1352,48.0,120,120,1.0,40.0
1353,60.0,0,100,1.0,15.0
1354,64.0,0,100,1.0,23.0
1355,67.0,0,100,1.0,30.0
1356,72.0,120,120,0.0,60.0
1357,76.0,0,370,0.0,62.0
1358,82.0,15,370,0.0,70.0
1359,79.0,360,35,0.0,65.0
1360,81.0,30,25,0.0,58.0
1361,79.0,20,25,0.0,61.0
1362,78.0,20,30,0.0,63.0
1363,79.0,25,30,0.0,60.0
1364,55.0,30,560,1.0,54.0
1365,48.0,60,590,1.0,70.0
1366,76.0,25,50,0.0,65.0
1367,72.0,0,530,0.0,45.0
1368,64.0,0,530,1.0,60.0
1369,58.0,15,545,1.0,57.0
1370,72.0,0,120,0.0,38.0
1371,77.0,0,130,0.0,52.0
1372,69.0,120,130,1.0,50.0
1373,72.0,0,120,0.0,40.0
1374,76.0,0,130,0.0,55.0
1375,67.0,0,130,1.0,52.0
1376,70.0,120,130,1.0,45.0
1377,72.0,0,0,0.0,35.0
1378,65.0,0,130,1.0,55.0
1379,69.0,0,130,1.0,42.0
1380,77.0,0,130,0.0,57.0
1381,76.0,0,370,0.0,52.0
1382,82.0,0,370,0.0,60.0
1383,79.0,360,35,0.0,55.0
1384,81.0,30,25,0.0,48.0
1385,79.0,20,25,0.0,51.0
1386,78.0,20,30,0.0,53.0
1387,79.0,25,30,0.0,50.0
1388,76.0,25,60,0.0,55.0
1389,58.0,10,550,1.0,47.0
1390,55.0,20,560,1.0,44.0
1391,64.0,10,540,1.0,50.0
1392,48.0,80,580,1.0,60.0
1393,57.0,120,110,1.0,40.0
1394,65.0,0,110,1.0,30.0
1395,84.0,0,130,0.0,42.0
1396,72.0,0,130,0.0,28.0
1397,65.0,0,110,1.0,32.0
1398,56.0,0,110,1.0,42.0
1399,71.0,0,130,0.0,25.0
1400,83.0,120,130,0.0,40.0
1401,57.0,0,110,1.0,40.0
1402,65.0,0,110,1.0,27.0
1403,84.0,120,130,0.0,46.0
1404,72.0,0,130,0.0,31.0
1405,46.0,120,120,1.0,45.0
1406,58.0,0,100,1.0,25.0
1407,62.0,120,100,1.0,30.0
1408,65.0,0,100,1.0,38.0
1409,74.0,0,310,0.0,35.0
1410,86.0,0,310,0.0,50.0
1411,88.0,60,25,0.0,45.0
1412,86.0,20,20,0.0,40.0
1413,85.0,15,20,0.0,42.0
1414,46.0,120,120,1.0,48.0
1415,86.0,10,20,0.0,45.0
1416,88.0,0,50,0.0,50.0
1417,89.0,60,40,0.0,55.0
1418,65.0,15,100,1.0,40.0
1419,58.0,0,100,1.0,22.0
1420,62.0,0,100,1.0,35.0
1421,48.0,60,120,1.0,50.0
1422,65.0,120,100,1.0,42.0
1423,60.0,0,100,1.0,28.0
1424,57.0,0,100,1.0,38.0
1425,36.0,0,120,1.0,55.0
1426,48.0,120,120,1.0,38.0
1427,77.0,0,370,0.0,60.0
1428,72.0,0,370,0.0,35.0
1429,69.0,0,370,0.0,42.0
1430,81.0,0,70,0.0,53.0
1431,58.0,0,100,1.0,28.0
1432,60.0,0,100,1.0,22.0
1433,64.0,120,100,1.0,42.0
1434,70.0,0,0,0.0,45.0
1435,76.0,0,0,0.0,42.0
1436,79.0,0,0,0.0,55.0
1437,53.0,0,100,1.0,50.0
1438,41.0,240,80,1.0,40.0
1439,84.0,120,70,0.0,48.0
1440,64.0,0,490,1.0,45.0
1441,58.0,60,490,1.0,33.0
1442,76.0,60,70,0.0,52.0
1443,57.0,60,50,1.0,28.0
1444,65.0,0,50,1.0,40.0
1445,60.0,0,530,1.0,25.0
1446,53.0,0,50,1.0,45.0
1447,77.0,0,120,0.0,45.0
1448,69.0,0,120,0.0,32.0
1449,72.0,0,120,0.0,25.0
1450,60.0,60,70,1.0,50.0
1451,59.0,60,70,1.0,52.0
1452,60.0,60,70,1.0,48.0
1453,62.0,60,70,1.0,45.0
1454,60.0,60,70,1.0,52.0
1455,58.0,60,70,1.0,56.0
1456,55.0,60,70,1.0,60.0
1457,41.0,60,70,1.0,55.0
1458,53.0,0,70,1.0,40.0
1459,57.0,0,30,1.0,35.0
1460,60.0,60,30,1.0,28.0
1461,57.0,0,40,1.0,37.0
1462,60.0,60,40,1.0,30.0
1463,60.0,0,30,1.0,27.0
1464,57.0,60,30,1.0,32.0
1465,53.0,60,70,1.0,48.0
1466,57.0,0,30,1.0,32.0
1467,60.0,60,30,1.0,25.0
1468,60.0,0,40,1.0,27.0
1469,57.0,60,40,1.0,34.0
1470,57.0,60,30,1.0,29.0
1471,60.0,0,30,1.0,24.0
1472,77.0,0,480,0.0,68.0
1473,69.0,0,480,0.0,40.0
1474,65.0,0,480,0.0,52.0
1475,46.0,0,70,1.0,30.0
1476,34.0,0,70,1.0,50.0
1477,62.0,0,30,1.0,28.0
1478,58.0,60,30,1.0,35.0
1479,58.0,0,40,1.0,37.0
1480,62.0,60,40,1.0,30.0
1481,69.0,0,190,0.0,65.0
1482,74.0,60,190,0.0,45.0
1483,81.0,0,190,0.0,72.0
1484,62.0,0,30,1.0,27.0
1485,58.0,60,30,1.0,32.0
1486,67.0,0,70,0.0,68.0
1487,79.0,0,70,0.0,75.0
1488,46.0,0,70,1.0,45.0
1489,58.0,0,30,1.0,32.0
1490,62.0,60,30,1.0,25.0
1491,58.0,0,40,1.0,34.0
1492,62.0,60,40,1.0,27.0
1493,82.0,0,190,0.0,62.0
1494,74.0,0,190,0.0,40.0
1495,70.0,60,190,0.0,55.0
1496,58.0,0,30,1.0,37.0
1497,62.0,0,30,1.0,32.0
1498,79.0,0,70,0.0,65.0
1499,67.0,60,70,0.0,57.0
1500,36.0,60,70,1.0,55.0
1501,48.0,0,70,1.0,40.0
1502,55.0,60,30,1.0,35.0
1503,60.0,0,30,1.0,28.0
1504,55.0,0,40,1.0,37.0
1505,60.0,60,40,1.0,30.0
1506,55.0,0,30,1.0,32.0
1507,60.0,60,30,1.0,27.0
1508,77.0,0,310,0.0,68.0
1509,72.0,0,310,0.0,45.0
1510,65.0,0,310,0.0,53.0
1511,55.0,0,30,1.0,32.0
1512,60.0,60,30,1.0,25.0
1513,64.0,0,70,0.0,60.0
1514,76.0,0,70,0.0,72.0
1515,55.0,0,40,1.0,34.0
1516,60.0,60,40,1.0,27.0
1517,79.0,0,70,0.0,65.0
1518,67.0,0,70,0.0,53.0
1519,60.0,0,30,1.0,24.0
1520,55.0,0,30,1.0,29.0
1521,48.0,10,0,1.0,45.0
1522,64.0,0,70,0.0,55.0
1523,76.0,60,70,0.0,67.0
1524,55.0,0,30,1.0,20.0
1525,52.0,0,30,1.0,35.0
1526,60.0,60,30,1.0,28.0
1527,52.0,0,40,1.0,37.0
1528,55.0,60,40,1.0,18.0
1529,60.0,0,40,1.0,30.0
1530,55.0,0,30,1.0,20.0
1531,60.0,60,30,1.0,27.0
1532,52.0,0,30,1.0,32.0
1533,60.0,50,240,0.0,45.0
1534,72.0,0,240,0.0,62.0
1535,52.0,0,30,1.0,32.0
1536,55.0,60,30,1.0,15.0
1537,60.0,0,30,1.0,25.0
1538,52.0,0,40,1.0,34.0
1539,60.0,0,40,1.0,27.0
1540,55.0,0,40,1.0,18.0
1541,52.0,0,30,1.0,37.0
1542,55.0,0,30,1.0,20.0
1543,60.0,60,30,1.0,32.0
1544,46.0,60,240,1.0,50.0
1545,72.0,60,130,0.0,75.0
1546,60.0,0,30,1.0,28.0
1547,53.0,50,30,1.0,35.0
1548,60.0,60,40,1.0,30.0
1549,53.0,0,40,1.0,37.0
1550,53.0,60,30,1.0,32.0
1551,60.0,0,30,1.0,27.0
1552,65.0,0,240,0.0,50.0
1553,45.0,60,240,1.0,55.0
1554,81.0,45,20,0.0,60.0
1555,77.0,10,240,0.0,80.0
1556,79.0,15,70,0.0,75.0
1557,67.0,0,70,0.0,60.0
1558,58.0,0,30,1.0,32.0
1559,60.0,0,30,1.0,25.0
1560,78.0,60,70,0.0,78.0
1561,66.0,0,70,0.0,63.0
1562,58.0,0,40,1.0,34.0
1563,60.0,0,40,1.0,27.0
1564,79.0,0,70,0.0,73.0
1565,67.0,60,70,0.0,58.0
1566,58.0,0,30,1.0,29.0
1567,60.0,60,30,1.0,24.0
1568,52.0,0,240,1.0,48.0
1569,80.0,0,70,0.0,68.0
1570,68.0,0,70,0.0,53.0
1571,60.0,0,30,1.0,28.0
1572,57.0,60,30,1.0,35.0
1573,57.0,60,40,1.0,37.0
1574,60.0,0,40,1.0,30.0
1575,57.0,0,30,1.0,32.0
1576,60.0,60,30,1.0,27.0
1577,81.0,0,240,0.0,70.0
1578,69.0,60,240,0.0,50.0
1579,53.0,0,240,1.0,50.0
1580,84.0,45,20,0.0,60.0
1581,82.0,15,70,0.0,72.0
1582,70.0,0,70,0.0,52.0
1583,58.0,60,30,1.0,37.0
1584,62.0,0,30,1.0,30.0
1585,69.0,0,70,0.0,55.0
1586,81.0,0,70,0.0,75.0
1587,62.0,0,40,1.0,32.0
1588,58.0,0,40,1.0,39.0
1589,82.0,0,70,0.0,70.0
1590,70.0,60,70,0.0,57.0
1591,58.0,0,30,1.0,42.0
1592,62.0,0,30,1.0,37.0
1593,46.0,0,240,1.0,55.0
1594,74.0,0,70,0.0,52.0
1595,86.0,60,70,0.0,65.0
1596,57.0,0,30,1.0,35.0
1597,60.0,60,30,1.0,28.0
1598,60.0,60,40,1.0,30.0
1599,57.0,0,40,1.0,37.0
1600,57.0,0,30,1.0,32.0
1601,60.0,60,30,1.0,27.0
1602,48.0,0,240,1.0,50.0
1603,69.0,0,310,0.0,55.0
1604,81.0,60,310,0.0,68.0
1605,77.0,0,310,0.0,40.0
1606,53.0,0,30,1.0,28.0
1607,57.0,0,30,1.0,32.0
1608,60.0,60,30,1.0,25.0
1609,70.0,0,70,0.0,57.0
1610,82.0,0,70,0.0,70.0
1611,60.0,0,40,1.0,25.0
1612,57.0,0,40,1.0,34.0
1613,53.0,0,40,1.0,23.0
1614,71.0,0,70,0.0,52.0
1615,83.0,60,70,0.0,65.0
1616,53.0,0,30,1.0,25.0
1617,57.0,0,30,1.0,29.0
1618,60.0,60,30,1.0,20.0
1619,48.0,60,240,1.0,48.0
1620,84.0,0,70,0.0,63.0
1621,72.0,0,70,0.0,51.0
1622,60.0,0,30,1.0,28.0
1623,55.0,0,30,1.0,20.0
1624,52.0,60,30,1.0,35.0
1625,60.0,60,40,1.0,30.0
1626,55.0,0,40,1.0,18.0
1627,52.0,0,40,1.0,37.0
1628,55.0,0,30,1.0,20.0
1629,60.0,0,30,1.0,27.0
1630,52.0,60,30,1.0,32.0
1631,79.0,0,240,0.0,60.0
1632,76.0,0,240,0.0,32.0
1633,67.0,60,240,0.0,50.0
1634,48.0,60,0,1.0,50.0
1635,55.0,0,30,1.0,15.0
1636,52.0,0,30,1.0,32.0
1637,60.0,60,30,1.0,25.0
1638,60.0,60,40,1.0,27.0
1639,52.0,0,40,1.0,34.0
1640,55.0,0,40,1.0,18.0
1641,55.0,0,30,1.0,20.0
1642,52.0,60,30,1.0,37.0
1643,60.0,0,30,1.0,32.0
1644,72.0,60,0,0.0,65.0
1645,36.0,60,50,1.0,80.0
1646,48.0,0,50,1.0,65.0
1647,52.0,0,50,1.0,62.0
1648,40.0,60,50,1.0,75.0
1649,48.0,0,50,1.0,64.0
1650,36.0,60,50,1.0,78.0
1651,52.0,0,50,1.0,60.0
1652,40.0,60,50,1.0,72.0
1653,48.0,0,50,1.0,62.0
1654,36.0,60,50,1.0,75.0
1655,79.0,0,360,0.0,75.0
1656,76.0,0,370,0.0,82.0
1657,82.0,0,370,0.0,90.0
1658,79.0,0,35,0.0,85.0
1659,81.0,25,20,0.0,70.0
1660,40.0,60,50,1.0,68.0
1661,52.0,0,50,1.0,58.0
1662,79.0,15,20,0.0,60.0
1663,81.0,15,20,0.0,63.0
1664,79.0,10,20,0.0,66.0
1665,78.0,15,20,0.0,68.0
1666,43.0,0,50,1.0,64.0
1667,55.0,5,50,1.0,55.0
1668,79.0,15,20,0.0,70.0
1669,76.0,20,50,0.0,85.0
1670,72.0,0,50,0.0,70.0
1671,46.0,0,50,1.0,60.0
1672,58.0,0,50,1.0,50.0
1673,77.0,120,130,0.0,82.0
1674,65.0,0,130,0.0,68.0
1675,57.0,0,130,1.0,70.0
1676,60.0,0,240,1.0,40.0
1677,76.0,120,130,0.0,85.0
1678,58.0,0,130,1.0,60.0
1679,55.0,0,130,1.0,72.0
1680,64.0,0,130,0.0,70.0
1681,77.0,0,130,0.0,80.0
1682,65.0,120,130,0.0,65.0
1683,60.0,0,130,1.0,45.0
1684,57.0,0,130,1.0,55.0
1685,53.0,0,130,1.0,75.0
1686,36.0,0,50,1.0,75.0
1687,48.0,60,50,1.0,60.0
1688,52.0,60,50,1.0,57.0
1689,40.0,0,50,1.0,70.0
1690,36.0,0,50,1.0,73.0
1691,48.0,60,50,1.0,59.0
1692,40.0,0,50,1.0,67.0
1693,52.0,60,50,1.0,55.0
1694,48.0,0,50,1.0,57.0
1695,36.0,60,50,1.0,70.0
1696,79.0,0,360,0.0,60.0
1697,72.0,0,370,0.0,65.0
1698,82.0,120,370,0.0,85.0
1699,76.0,0,370,0.0,77.0
1700,79.0,60,35,0.0,80.0
1701,81.0,25,20,0.0,68.0
1702,40.0,0,50,1.0,63.0
1703,52.0,0,50,1.0,53.0
1704,79.0,15,20,0.0,60.0
1705,81.0,15,20,0.0,62.0
1706,79.0,10,20,0.0,64.0
1707,78.0,15,20,0.0,66.0
1708,43.0,5,50,1.0,59.0
1709,55.0,0,50,1.0,50.0
1710,79.0,15,25,0.0,68.0
1711,58.0,0,50,1.0,45.0
1712,46.0,0,50,1.0,55.0
1713,76.0,0,60,0.0,80.0
1714,72.0,20,60,0.0,60.0
1715,77.0,0,120,0.0,45.0
1716,60.0,0,130,1.0,45.0
1717,72.0,120,130,0.0,53.0
1718,84.0,0,130,0.0,67.0
1719,57.0,0,130,1.0,65.0
1720,77.0,0,0,0.0,43.0
1721,71.0,0,130,0.0,60.0
1722,83.0,0,130,0.0,75.0
1723,56.0,120,130,1.0,70.0
1724,59.0,0,130,1.0,63.0
1725,84.0,120,130,0.0,71.0
1726,60.0,0,130,1.0,51.0
1727,72.0,0,130,0.0,56.0
1728,57.0,0,130,1.0,64.0
1729,46.0,0,250,1.0,62.0
1730,74.0,0,290,0.0,50.0
1731,77.0,0,290,0.0,40.0
1732,86.0,0,290,0.0,65.0
1733,74.0,0,30,0.0,55.0
1734,86.0,60,30,0.0,70.0
1735,53.0,120,360,1.0,42.0
1736,55.0,0,0,1.0,30.0
1737,88.0,0,25,0.0,63.0
1738,76.0,0,25,0.0,52.0
1739,89.0,60,30,0.0,60.0
1740,77.0,0,30,0.0,50.0
1741,50.0,60,120,1.0,22.0
1742,53.0,0,120,1.0,42.0
1743,47.0,240,250,1.0,57.0
1744,53.0,0,240,1.0,29.0
1745,57.0,0,240,1.0,37.0
1746,48.0,0,0,1.0,49.0
1747,77.0,0,250,0.0,65.0
1748,65.0,60,250,0.0,60.0
1749,69.0,240,190,0.0,55.0
1750,81.0,0,190,0.0,68.0
1751,67.0,0,60,0.0,47.0
1752,79.0,180,60,0.0,62.0
1753,52.0,0,240,1.0,34.0
1754,58.0,0,240,1.0,40.0
1755,57.0,0,200,1.0,38.0
1756,65.0,0,200,0.0,43.0
1757,77.0,60,200,0.0,60.0
1758,53.0,0,200,1.0,45.0
1759,69.0,210,0,0.0,95.0
1760,57.0,0,0,1.0,78.0
1761,45.0,0,0,1.0,95.0
1762,38.0,0,200,1.0,105.0
1763,62.0,0,200,0.0,105.0
1764,50.0,30,200,1.0,75.0
1765,74.0,0,210,0.0,80.0
1766,86.0,0,210,0.0,100.0
1767,62.0,240,210,1.0,80.0
1768,50.0,0,0,1.0,95.0
1769,62.0,0,40,1.0,78.0
1770,86.0,210,40,0.0,95.0
1771,74.0,0,40,0.0,78.0
1772,67.0,30,200,0.0,75.0
1773,55.0,0,200,1.0,75.0
1774,43.0,0,200,1.0,105.0
1775,79.0,0,200,0.0,105.0
1776,70.0,0,210,0.0,80.0
1777,82.0,0,210,0.0,100.0
1778,46.0,210,0,1.0,95.0
1779,58.0,0,0,1.0,78.0
1780,82.0,0,0,0.0,60.0
1781,70.0,0,40,0.0,75.0
1782,76.0,0,200,0.0,80.0
1783,88.0,0,200,0.0,105.0
1784,48.0,30,200,1.0,75.0
1785,36.0,0,200,1.0,105.0
1786,77.0,0,180,0.0,70.0
1787,37.0,0,180,1.0,95.0
1788,49.0,240,180,1.0,68.0
1789,80.0,0,180,0.0,58.0
1790,89.0,0,180,0.0,95.0
1791,46.0,0,240,1.0,55.0
1792,73.0,0,250,0.0,45.0
1793,34.0,0,250,1.0,70.0
1794,74.0,240,70,0.0,45.0
1795,67.0,0,310,0.0,70.0
1796,77.0,240,310,0.0,65.0
1797,79.0,0,310,0.0,80.0
1798,80.0,0,70,0.0,82.0
1799,68.0,60,70,0.0,68.0
1800,82.0,60,70,0.0,76.0
1801,70.0,0,70,0.0,66.0
1802,85.0,0,50,0.0,73.0
1803,73.0,60,50,0.0,64.0
1804,46.0,0,240,1.0,38.0
1805,50.0,0,240,1.0,25.0
1806,53.0,0,240,1.0,42.0
1807,55.0,0,240,1.0,50.0
1808,85.0,0,70,0.0,68.0
1809,73.0,0,70,0.0,60.0
1810,56.0,60,130,1.0,58.0
1811,84.0,0,70,0.0,72.0
1812,72.0,60,70,0.0,62.0
1813,82.0,60,70,0.0,75.0
1814,70.0,0,70,0.0,64.0
1815,80.0,60,50,0.0,77.0
1816,68.0,0,50,0.0,66.0
1817,48.0,0,240,1.0,60.0
1818,53.0,0,250,1.0,35.0
1819,60.0,0,130,1.0,53.0
1820,80.0,0,70,0.0,74.0
1821,68.0,0,70,0.0,63.0
1822,52.0,0,130,1.0,43.0
1823,67.0,0,70,0.0,65.0
1824,79.0,60,70,0.0,76.0
1825,82.0,0,70,0.0,72.0
1826,70.0,60,70,0.0,58.0
1827,48.0,60,240,1.0,52.0
1828,55.0,0,130,1.0,46.0
1829,76.0,60,70,0.0,75.0
1830,64.0,0,70,0.0,60.0
1831,58.0,0,250,1.0,55.0
1832,53.0,0,60,1.0,65.0
1833,41.0,15,60,1.0,90.0
1834,56.0,0,30,1.0,50.0
1835,60.0,60,30,1.0,35.0
1836,65.0,0,60,1.0,43.0
1837,56.0,60,40,1.0,44.0
1838,60.0,0,40,1.0,28.0
1839,65.0,0,40,1.0,37.0
1840,65.0,60,30,1.0,32.0
1841,56.0,0,30,1.0,37.0
1842,60.0,0,30,1.0,25.0
1843,65.0,60,30,1.0,25.0
1844,60.0,0,30,1.0,32.0
1845,56.0,0,30,1.0,28.0
1846,53.0,60,120,1.0,48.0
1847,65.0,0,40,1.0,25.0
1848,60.0,60,40,1.0,34.0
1849,56.0,0,40,1.0,23.0
1850,56.0,0,30,1.0,25.0
1851,60.0,60,30,1.0,29.0
1852,65.0,0,30,1.0,20.0
1853,77.0,45,480,0.0,90.0
1854,89.0,0,490,0.0,115.0
1855,65.0,60,30,1.0,28.0
1856,60.0,0,30,1.0,20.0
1857,56.0,0,30,1.0,35.0
1858,53.0,0,120,1.0,45.0
1859,65.0,60,40,1.0,30.0
1860,56.0,0,40,1.0,37.0
1861,60.0,0,40,1.0,18.0
1862,65.0,0,30,1.0,27.0
1863,60.0,0,30,1.0,20.0
1864,56.0,60,30,1.0,32.0
1865,56.0,0,30,1.0,32.0
1866,60.0,0,30,1.0,15.0
1867,65.0,60,30,1.0,25.0
1868,53.0,60,120,1.0,50.0
1869,72.0,60,370,0.0,55.0
1870,84.0,0,370,0.0,70.0
1871,56.0,0,40,1.0,34.0
1872,60.0,0,40,1.0,18.0
1873,65.0,0,40,1.0,27.0
1874,80.0,0,70,0.0,60.0
1875,68.0,60,70,0.0,45.0
1876,60.0,0,30,1.0,32.0
1877,56.0,0,30,1.0,37.0
1878,65.0,60,70,0.0,48.0
1879,77.0,0,70,0.0,62.0
1880,61.0,60,30,1.0,28.0
1881,55.0,0,30,1.0,35.0
1882,58.0,0,30,1.0,20.0
1883,41.0,60,120,1.0,55.0
1884,61.0,60,40,1.0,32.0
1885,55.0,0,40,1.0,39.0
1886,58.0,0,40,1.0,23.0
1887,76.0,0,190,0.0,65.0
1888,64.0,0,190,0.0,50.0
1889,55.0,60,30,1.0,35.0
1890,58.0,0,30,1.0,23.0
1891,61.0,0,30,1.0,30.0
1892,77.0,0,50,0.0,62.0
1893,65.0,0,50,0.0,48.0
1894,64.0,60,30,1.0,25.0
1895,61.0,0,30,1.0,18.0
1896,58.0,0,30,1.0,22.0
1897,55.0,0,30,1.0,32.0
1898,53.0,0,120,1.0,48.0
1899,55.0,0,40,1.0,34.0
1900,58.0,60,40,1.0,20.0
1901,64.0,0,40,1.0,30.0
1902,61.0,0,40,1.0,25.0
1903,79.0,60,190,0.0,67.0
1904,67.0,0,190,0.0,52.0
1905,64.0,0,30,1.0,25.0
1906,61.0,0,30,1.0,20.0
1907,58.0,60,30,1.0,15.0
1908,55.0,0,30,1.0,29.0
1909,80.0,0,50,0.0,72.0
1910,68.0,0,50,0.0,58.0
1911,55.0,60,30,1.0,45.0
1912,58.0,0,30,1.0,25.0
1913,61.0,0,30,1.0,30.0
1914,64.0,0,30,1.0,38.0
1915,53.0,0,120,1.0,55.0
1916,55.0,0,40,1.0,47.0
1917,61.0,0,40,1.0,32.0
1918,64.0,60,40,1.0,40.0
1919,58.0,0,40,1.0,28.0
1920,70.0,0,190,0.0,62.0
1921,82.0,60,190,0.0,77.0
1922,64.0,0,30,1.0,37.0
1923,61.0,0,30,1.0,32.0
1924,58.0,0,30,1.0,30.0
1925,55.0,0,30,1.0,42.0
1926,72.0,0,50,0.0,73.0
1927,84.0,60,50,0.0,87.0
1928,61.0,0,30,1.0,28.0
1929,64.0,60,30,1.0,35.0
1930,58.0,0,30,1.0,25.0
1931,55.0,0,30,1.0,42.0
1932,53.0,60,120,1.0,60.0
1933,64.0,0,40,1.0,37.0
1934,55.0,0,40,1.0,44.0
1935,61.0,60,40,1.0,30.0
1936,58.0,0,40,1.0,28.0
1937,85.0,0,190,0.0,84.0
1938,73.0,0,190,0.0,69.0
1939,55.0,0,30,1.0,47.0
1940,58.0,0,30,1.0,32.0
1941,61.0,0,30,1.0,42.0
1942,64.0,0,50,0.0,65.0
1943,76.0,60,50,0.0,79.0
1944,65.0,45,25,0.0,70.0
1945,41.0,15,60,1.0,60.0
1946,53.0,0,60,1.0,35.0
1947,60.0,0,30,1.0,25.0
1948,65.0,0,30,1.0,33.0
1949,56.0,60,30,1.0,40.0
1950,56.0,60,40,1.0,44.0
1951,65.0,0,40,1.0,37.0
1952,60.0,0,40,1.0,28.0
1953,65.0,0,30,1.0,32.0
1954,60.0,0,30,1.0,25.0
1955,56.0,60,30,1.0,37.0
1956,77.0,0,250,0.0,85.0
1957,56.0,60,30,1.0,38.0
1958,60.0,0,30,1.0,35.0
1959,53.0,60,120,1.0,58.0
1960,56.0,60,40,1.0,33.0
1961,60.0,0,40,1.0,35.0
1962,56.0,0,30,1.0,35.0
1963,60.0,60,30,1.0,30.0
1964,65.0,0,250,0.0,78.0
1965,65.0,0,30,1.0,48.0
1966,60.0,55,30,1.0,40.0
1967,56.0,0,30,1.0,55.0
1968,53.0,0,120,1.0,65.0
1969,60.0,60,40,1.0,38.0
1970,56.0,0,40,1.0,57.0
1971,65.0,0,40,1.0,50.0
1972,56.0,0,30,1.0,52.0
1973,60.0,60,30,1.0,40.0
1974,65.0,0,30,1.0,47.0
1975,68.0,50,300,0.0,60.0
1976,72.0,10,290,0.0,66.0
1977,80.0,5,285,0.0,82.0
1978,60.0,0,30,1.0,35.0
1979,65.0,0,30,1.0,45.0
1980,56.0,0,30,1.0,52.0
1981,79.0,60,40,0.0,90.0
1982,53.0,60,120,1.0,70.0
1983,80.0,30,40,0.0,87.0
1984,82.0,0,30,0.0,82.0
1985,56.0,0,40,1.0,54.0
1986,65.0,30,40,1.0,47.0
1987,60.0,0,40,1.0,38.0
1988,60.0,0,30,1.0,40.0
1989,56.0,0,30,1.0,57.0
1990,80.0,60,30,0.0,85.0
1991,65.0,0,30,1.0,52.0
1992,68.0,50,20,0.0,60.0
1993,72.0,0,20,0.0,68.0
1994,78.0,10,20,0.0,85.0
1995,77.0,35,15,0.0,88.0
1996,39.0,0,70,1.0,70.0
1997,51.0,10,70,1.0,45.0
1998,78.0,20,15,0.0,84.0
1999,56.0,15,70,1.0,50.0
2000,82.0,40,15,0.0,80.0
2001,80.0,40,15,0.0,76.0
2002,60.0,0,70,1.0,52.0
2003,78.0,20,15,0.0,73.0
2004,66.0,20,60,1.0,40.0
2005,77.0,40,15,0.0,76.0
2006,75.0,40,15,0.0,78.0
2007,51.0,0,70,1.0,60.0
2008,73.0,20,15,0.0,80.0
2009,56.0,20,70,1.0,48.0
2010,72.0,0,15,0.0,77.0
2011,70.0,40,15,0.0,74.0
2012,60.0,40,70,1.0,50.0
2013,68.0,20,15,0.0,68.0
2014,66.0,20,60,1.0,45.0
2015,67.0,40,15,0.0,70.0
2016,68.0,40,15,0.0,72.0
2017,32.0,0,70,1.0,65.0
2018,44.0,0,70,1.0,40.0
2019,70.0,20,15,0.0,74.0
2020,51.0,20,70,1.0,50.0
2021,72.0,40,15,0.0,76.0
2022,73.0,40,15,0.0,76.0
2023,54.0,0,70,1.0,52.0
2024,75.0,20,15,0.0,73.0
2025,60.0,20,60,1.0,48.0
2026,77.0,40,15,0.0,70.0
2027,78.0,40,15,0.0,67.0
2028,44.0,0,70,1.0,60.0
2029,75.0,20,15,0.0,69.0
2030,51.0,20,70,1.0,48.0
2031,72.0,0,15,0.0,71.0
2032,68.0,40,15,0.0,73.0
2033,54.0,40,70,1.0,50.0
2034,66.0,20,15,0.0,75.0
2035,60.0,20,60,1.0,45.0
2036,65.0,0,15,0.0,78.0
2037,61.0,45,15,0.0,76.0
2038,49.0,40,70,1.0,42.0
2039,37.0,0,70,1.0,60.0
2040,63.0,20,15,0.0,74.0
2041,56.0,15,70,1.0,50.0
2042,65.0,40,15,0.0,72.0
2043,66.0,40,15,0.0,70.0
2044,61.0,0,70,1.0,52.0
2045,68.0,20,15,0.0,68.0
2046,65.0,20,60,1.0,40.0
2047,70.0,0,15,0.0,71.0
2048,72.0,40,15,0.0,74.0
2049,49.0,40,70,1.0,60.0
2050,73.0,20,15,0.0,76.0
2051,56.0,20,70,1.0,48.0
2052,75.0,0,15,0.0,77.0
2053,77.0,40,15,0.0,78.0
2054,61.0,40,70,1.0,50.0
2055,78.0,20,15,0.0,79.0
2056,65.0,20,60,1.0,45.0
2057,80.0,0,15,0.0,80.0
2058,82.0,40,15,0.0,77.0
2059,41.0,0,70,1.0,65.0
2060,53.0,40,70,1.0,40.0
2061,84.0,20,15,0.0,74.0
2062,56.0,20,70,1.0,50.0
2063,85.0,40,15,0.0,71.0
2064,87.0,40,15,0.0,68.0
2065,61.0,0,70,1.0,52.0
2066,88.0,20,15,0.0,65.0
2067,65.0,20,60,1.0,48.0
2068,89.0,0,60,0.0,60.0
2069,61.0,40,70,1.0,45.0
2070,56.0,60,70,1.0,48.0
2071,57.0,0,50,0.0,80.0
2072,53.0,60,70,1.0,50.0
2073,49.0,60,60,1.0,45.0
2074,42.0,60,70,1.0,70.0
2075,58.0,0,70,0.0,72.0
2076,49.0,60,70,1.0,50.0
2077,82.0,60,15,0.0,70.0
2078,81.0,45,15,0.0,66.0
2079,51.0,0,70,1.0,52.0
2080,82.0,20,15,0.0,60.0
2081,58.0,15,60,1.0,40.0
2082,75.0,40,15,0.0,72.0
2083,74.0,40,15,0.0,68.0
2084,42.0,0,70,1.0,60.0
2085,75.0,20,15,0.0,62.0
2086,49.0,20,70,1.0,48.0
2087,78.0,40,15,0.0,67.0
2088,77.0,40,15,0.0,63.0
2089,51.0,0,70,1.0,50.0
2090,78.0,20,15,0.0,57.0
2091,58.0,20,60,1.0,45.0
2092,72.0,40,15,0.0,69.0
2093,71.0,40,15,0.0,65.0
2094,44.0,0,70,1.0,65.0
2095,72.0,20,15,0.0,59.0
2096,51.0,20,70,1.0,48.0
2097,75.0,0,15,0.0,63.0
2098,74.0,40,15,0.0,69.0
2099,54.0,40,70,1.0,50.0
2100,75.0,20,15,0.0,63.0
2101,60.0,20,60,1.0,40.0
2102,66.0,40,15,0.0,60.0
2103,70.0,40,15,0.0,55.0
2104,44.0,0,70,1.0,55.0
2105,68.0,20,15,0.0,57.0
2106,51.0,20,70,1.0,43.0
2107,66.0,0,15,0.0,59.0
2108,65.0,40,15,0.0,53.0
2109,54.0,40,70,1.0,38.0
2110,63.0,15,15,0.0,50.0
2111,60.0,20,60,1.0,30.0
2112,53.0,25,20,0.0,50.0
2113,56.0,10,20,0.0,54.0
2114,37.0,0,120,1.0,50.0
2115,49.0,10,120,1.0,35.0
2116,53.0,120,100,1.0,35.0
2117,56.0,0,100,1.0,43.0
2118,49.0,120,120,1.0,45.0
2119,53.0,0,100,1.0,30.0
2120,56.0,120,100,1.0,38.0
2121,61.0,0,490,0.0,60.0
2122,42.0,0,120,1.0,49.0
2123,54.0,0,100,1.0,29.0
2124,65.0,120,220,0.0,55.0
2125,58.0,120,100,1.0,36.0
2126,63.0,90,40,0.0,58.0
2127,42.0,30,120,1.0,53.0
2128,58.0,0,100,1.0,40.0
2129,54.0,120,100,1.0,33.0
2130,66.0,0,220,0.0,52.0
2131,63.0,90,40,0.0,55.0
2132,44.0,0,120,1.0,55.0
2133,53.0,0,100,1.0,33.0
2134,56.0,120,100,1.0,40.0
2135,61.0,30,310,0.0,58.0
2136,44.0,120,120,1.0,52.0
2137,60.0,60,70,0.0,62.0
2138,63.0,60,70,0.0,55.0
2139,51.0,0,100,1.0,22.0
2140,56.0,0,100,1.0,37.0
2141,60.0,60,70,0.0,57.0
2142,56.0,60,100,0.0,52.0
2143,44.0,0,120,1.0,48.0
2144,48.0,120,100,1.0,25.0
2145,56.0,0,100,1.0,40.0
2146,51.0,0,100,1.0,18.0
2147,51.0,0,100,1.0,28.0
2148,57.0,120,100,1.0,40.0
2149,47.0,120,240,1.0,60.0
2150,57.0,120,100,1.0,38.0
2151,54.0,0,100,1.0,20.0
2152,51.0,0,100,1.0,26.0
2153,46.0,120,0,1.0,50.0
2154,63.0,0,490,0.0,55.0
2155,75.0,0,550,0.0,70.0
2156,74.0,60,70,0.0,72.0
2157,77.0,0,70,0.0,65.0
2158,53.0,0,100,1.0,17.0
2159,58.0,0,100,1.0,35.0
2160,50.0,60,100,1.0,23.0
2161,74.0,60,70,0.0,68.0
2162,63.0,60,70,0.0,60.0
2163,62.0,60,70,0.0,65.0
2164,65.0,60,70,0.0,55.0
2165,70.0,0,210,0.0,70.0
2166,46.0,0,240,1.0,55.0
2167,62.0,60,70,0.0,58.0
2168,58.0,0,130,1.0,58.0
2169,49.0,0,240,1.0,70.0
2170,53.0,120,130,1.0,30.0
2171,59.0,0,130,1.0,52.0
2172,53.0,0,100,1.0,36.0
2173,56.0,0,100,1.0,30.0
2174,59.0,120,100,1.0,48.0
2175,48.0,120,240,1.0,63.0
2176,65.0,0,490,0.0,65.0
2177,77.0,60,550,0.0,80.0
2178,76.0,60,70,0.0,82.0
2179,79.0,0,70,0.0,75.0
2180,55.0,0,100,1.0,27.0
2181,52.0,0,100,1.0,33.0
2182,60.0,60,100,1.0,45.0
2183,48.0,120,240,1.0,60.0
2184,76.0,60,70,0.0,78.0
2185,65.0,0,70,0.0,70.0
2186,64.0,60,70,0.0,75.0
2187,67.0,60,70,0.0,65.0
2188,72.0,60,210,0.0,80.0
2189,48.0,0,240,1.0,65.0
2190,64.0,0,0,0.0,60.0
2191,72.0,60,100,0.0,70.0
2192,60.0,0,100,0.0,55.0
2193,72.0,120,0,0.0,95.0
2194,60.0,0,130,0.0,75.0
2195,58.0,0,310,1.0,68.0
2196,46.0,0,310,1.0,80.0
2197,44.0,0,70,1.0,78.0
2198,56.0,60,70,1.0,66.0
2199,48.0,0,70,1.0,75.0
2200,60.0,60,70,1.0,63.0
2201,56.0,0,70,1.0,68.0
2202,44.0,60,70,1.0,80.0
2203,84.0,0,310,0.0,105.0
2204,77.0,0,310,0.0,70.0
2205,55.0,60,70,1.0,72.0
2206,43.0,0,70,1.0,84.0
2207,80.0,0,70,0.0,97.0
2208,53.0,0,70,1.0,76.0
2209,68.0,0,70,0.0,77.0
2210,41.0,60,70,1.0,88.0
2211,84.0,0,70,0.0,90.0
2212,44.0,0,70,1.0,92.0
2213,56.0,60,70,1.0,80.0
2214,72.0,0,70,0.0,70.0
2215,80.0,0,70,0.0,86.0
2216,68.0,0,70,0.0,66.0
2217,53.0,60,70,1.0,84.0
2218,41.0,0,70,1.0,96.0
2219,67.0,0,70,0.0,70.0
2220,79.0,0,70,0.0,90.0
2221,77.0,0,70,0.0,93.0
2222,65.0,60,70,0.0,73.0
2223,80.0,0,70,0.0,96.0
2224,68.0,60,70,0.0,76.0
2225,37.0,60,190,1.0,100.0
2226,49.0,0,190,1.0,88.0
2227,49.0,0,20,1.0,95.0
2228,53.0,30,20,1.0,80.0
2229,65.0,60,70,0.0,79.0
2230,77.0,0,70,0.0,99.0
2231,63.0,0,70,0.0,82.0
2232,75.0,0,70,0.0,102.0
2233,61.0,0,70,0.0,85.0
2234,73.0,60,70,0.0,105.0
2235,53.0,30,190,1.0,95.0
2236,49.0,0,190,1.0,105.0
2237,60.0,0,70,0.0,88.0
2238,72.0,60,70,0.0,108.0
2239,53.0,0,20,1.0,88.0
2240,49.0,30,20,1.0,102.0
2241,71.0,0,70,0.0,111.0
2242,59.0,60,70,0.0,91.0
2243,52.0,0,30,1.0,95.0
2244,72.0,0,30,0.0,115.0
2245,48.0,0,30,1.0,110.0
2246,60.0,30,30,0.0,95.0
2247,55.0,60,20,0.0,120.0
2248,31.0,0,20,1.0,120.0
2249,43.0,0,20,1.0,100.0
2250,48.0,0,20,1.0,95.0
2251,60.0,0,20,0.0,115.0
2252,36.0,60,20,1.0,115.0
2253,52.0,60,20,1.0,91.0
2254,64.0,0,20,0.0,111.0
2255,40.0,0,20,1.0,111.0
2256,67.0,60,20,0.0,118.0
2257,43.0,0,20,1.0,118.0
2258,55.0,0,20,1.0,98.0
2259,64.0,60,20,0.0,107.0
2260,40.0,0,20,1.0,107.0
2261,52.0,0,20,1.0,87.0
2262,67.0,60,20,0.0,110.0
2263,55.0,0,20,1.0,90.0
2264,43.0,0,20,1.0,110.0
2265,40.0,0,20,1.0,98.0
2266,52.0,0,20,1.0,78.0
2267,64.0,60,20,0.0,98.0
2268,60.0,0,30,0.0,90.0
2269,72.0,60,30,0.0,100.0
2270,67.0,60,20,0.0,110.0
2271,36.0,0,120,1.0,100.0
2272,48.0,0,120,1.0,80.0
2273,72.0,60,20,0.0,105.0
2274,76.0,60,20,0.0,101.0
2275,79.0,60,20,0.0,108.0
2276,76.0,60,20,0.0,97.0
2277,79.0,60,20,0.0,100.0
2278,76.0,60,20,0.0,88.0
2279,43.0,0,30,1.0,112.0
2280,72.0,60,30,0.0,90.0
2281,55.0,0,30,1.0,97.0
2282,48.0,0,20,1.0,95.0
2283,36.0,0,20,1.0,115.0
2284,60.0,60,20,0.0,115.0
2285,40.0,0,20,1.0,110.0
2286,52.0,60,20,1.0,90.0
2287,64.0,0,20,0.0,110.0
2288,43.0,0,20,1.0,106.0
2289,67.0,60,20,0.0,106.0
2290,55.0,0,20,1.0,86.0
2291,72.0,0,20,0.0,113.0
2292,48.0,60,20,1.0,113.0
2293,60.0,0,20,1.0,93.0
2294,43.0,60,20,1.0,102.0
2295,55.0,0,20,1.0,82.0
2296,67.0,0,20,0.0,102.0
2297,72.0,60,20,0.0,105.0
2298,60.0,0,20,1.0,85.0
2299,48.0,0,20,1.0,105.0
2300,67.0,60,20,0.0,93.0
2301,43.0,0,20,1.0,93.0
2302,55.0,0,20,1.0,73.0
2303,79.0,60,30,0.0,95.0
2304,72.0,60,20,0.0,105.0
2305,40.0,0,120,1.0,95.0
2306,52.0,0,120,1.0,75.0
2307,76.0,60,20,0.0,100.0
2308,79.0,60,20,0.0,96.0
2309,84.0,60,20,0.0,103.0
2310,79.0,60,20,0.0,92.0
2311,84.0,60,20,0.0,95.0
2312,79.0,60,20,0.0,83.0
2313,60.0,0,30,1.0,97.0
2314,48.0,0,30,1.0,112.0
2315,76.0,60,30,0.0,85.0
2316,64.0,0,20,0.0,105.0
2317,52.0,60,20,1.0,115.0
2318,43.0,0,20,1.0,110.0
2319,55.0,60,20,1.0,90.0
2320,67.0,0,20,0.0,100.0
2321,60.0,60,20,1.0,86.0
2322,48.0,0,20,1.0,106.0
2323,72.0,0,20,0.0,96.0
2324,76.0,0,20,0.0,103.0
2325,64.0,60,20,1.0,93.0
2326,52.0,0,20,1.0,113.0
2327,60.0,0,20,1.0,82.0
2328,72.0,0,20,0.0,92.0
2329,48.0,60,20,1.0,102.0
2330,76.0,60,20,0.0,95.0
2331,52.0,0,20,1.0,105.0
2332,64.0,0,20,1.0,85.0
2333,72.0,0,20,0.0,83.0
2334,48.0,60,20,1.0,98.0
2335,60.0,0,20,1.0,78.0
2336,64.0,60,30,1.0,87.0
2337,52.0,0,30,1.0,102.0
2338,76.0,0,30,0.0,85.0
2339,55.0,60,20,1.0,105.0
2340,67.0,0,20,0.0,95.0
2341,72.0,0,20,0.0,90.0
2342,48.0,0,20,1.0,100.0
2343,60.0,60,20,1.0,80.0
2344,76.0,60,20,0.0,86.0
2345,52.0,0,20,1.0,96.0
2346,64.0,0,20,1.0,76.0
2347,67.0,0,20,1.0,83.0
2348,79.0,60,20,0.0,93.0
2349,55.0,0,20,1.0,103.0
2350,64.0,0,20,1.0,72.0
2351,52.0,60,20,1.0,92.0
2352,76.0,0,20,0.0,82.0
2353,67.0,0,20,1.0,75.0
2354,55.0,60,20,1.0,95.0
2355,79.0,0,20,0.0,85.0
2356,52.0,60,20,1.0,83.0
2357,64.0,0,20,1.0,63.0
2358,76.0,0,20,0.0,73.0
2359,72.0,0,30,0.0,65.0
2360,84.0,0,30,0.0,75.0
2361,76.0,60,20,0.0,90.0
2362,48.0,0,120,1.0,85.0
2363,60.0,60,120,1.0,60.0
2364,79.0,60,20,0.0,85.0
2365,84.0,60,20,0.0,81.0
2366,88.0,60,20,0.0,88.0
2367,84.0,60,20,0.0,77.0
2368,88.0,60,20,0.0,80.0
2369,84.0,60,20,0.0,68.0
2370,88.0,60,30,0.0,70.0
2371,79.0,60,20,0.0,80.0
2372,84.0,60,20,0.0,75.0
2373,88.0,60,20,0.0,71.0
2374,91.0,60,20,0.0,78.0
2375,88.0,60,20,0.0,67.0
2376,91.0,60,20,0.0,70.0
2377,88.0,60,20,0.0,58.0
2378,79.0,60,30,1.0,68.0
2379,76.0,60,20,1.0,57.0
2380,84.0,0,120,0.0,60.0
2381,79.0,60,20,1.0,60.0
2382,76.0,60,20,1.0,48.0
2383,67.0,60,30,0.0,58.0
2384,64.0,60,20,0.0,47.0
2385,67.0,60,20,0.0,50.0
2386,72.0,0,200,1.0,50.0
2387,64.0,60,20,0.0,38.0
2388,55.0,0,30,1.0,48.0
2389,52.0,60,20,1.0,37.0
2390,55.0,60,20,1.0,40.0
2391,52.0,60,20,1.0,30.0
2392,60.0,60,240,0.0,40.0
2393,55.0,60,20,1.0,43.0
2394,52.0,60,20,1.0,32.0
2395,55.0,60,20,1.0,46.0
2396,52.0,60,20,1.0,34.0
2397,79.0,0,30,0.0,38.0
2398,76.0,60,20,0.0,27.0
2399,48.0,60,120,1.0,40.0
2400,79.0,0,20,0.0,30.0
2401,67.0,60,60,1.0,32.0
2402,64.0,0,60,1.0,25.0
2403,76.0,60,20,0.0,20.0
2404,79.0,60,20,0.0,33.0
2405,67.0,0,70,1.0,35.0
2406,64.0,0,70,1.0,22.0
2407,76.0,60,20,0.0,22.0
2408,79.0,0,20,0.0,36.0
2409,64.0,60,50,1.0,24.0
2410,67.0,0,50,1.0,30.0
2411,76.0,60,20,0.0,24.0
2412,80.0,60,30,0.0,38.0
2413,77.0,60,20,0.0,27.0
2414,48.0,0,120,1.0,44.0
2415,80.0,60,20,0.0,40.0
2416,68.0,0,60,1.0,36.0
2417,65.0,0,60,1.0,29.0
2418,77.0,60,20,0.0,30.0
2419,81.0,0,30,0.0,43.0
2420,78.0,60,20,0.0,32.0
2421,48.0,60,120,1.0,47.0
2422,81.0,0,20,0.0,46.0
2423,66.0,60,60,1.0,32.0
2424,69.0,0,60,1.0,39.0
2425,78.0,60,20,0.0,34.0
2426,82.0,60,30,0.0,48.0
2427,79.0,60,20,0.0,37.0
2428,48.0,0,120,1.0,50.0
2429,82.0,60,20,0.0,40.0
2430,70.0,0,60,1.0,42.0
2431,67.0,0,60,1.0,35.0
2432,79.0,60,20,0.0,30.0
2433,82.0,0,20,0.0,43.0
2434,67.0,60,70,1.0,32.0
2435,70.0,0,70,1.0,45.0
2436,79.0,60,20,0.0,32.0
2437,82.0,60,20,0.0,46.0
2438,70.0,0,50,1.0,40.0
2439,67.0,0,50,1.0,34.0
2440,79.0,60,20,0.0,34.0
2441,84.0,0,30,0.0,48.0
2442,81.0,60,20,0.0,37.0
2443,48.0,60,120,1.0,54.0
2444,84.0,0,20,0.0,50.0
2445,72.0,0,60,1.0,46.0
2446,69.0,60,60,1.0,39.0
2447,81.0,60,20,0.0,40.0
2448,85.0,60,30,0.0,53.0
2449,81.0,60,20,0.0,42.0
2450,48.0,0,120,1.0,57.0
2451,85.0,60,20,0.0,56.0
2452,73.0,0,60,1.0,49.0
2453,69.0,0,60,1.0,42.0
2454,81.0,60,20,0.0,44.0
2455,86.0,0,70,0.0,60.0
2456,48.0,60,120,1.0,60.0
2457,85.0,60,70,0.0,55.0
2458,70.0,0,60,1.0,45.0
2459,74.0,0,60,1.0,52.0
2460,86.0,60,70,0.0,57.0
2461,82.0,60,60,0.0,52.0
2462,84.0,60,70,0.0,55.0
2463,48.0,0,120,1.0,63.0
2464,83.0,60,70,0.0,50.0
2465,69.0,60,50,1.0,47.0
2466,72.0,0,50,1.0,53.0
2467,84.0,0,70,0.0,52.0
2468,81.0,60,60,0.0,47.0
2469,82.0,0,70,0.0,50.0
2470,48.0,60,120,1.0,58.0
2471,81.0,60,70,0.0,45.0
2472,67.0,60,60,1.0,43.0
2473,70.0,0,60,1.0,50.0
2474,82.0,0,70,0.0,47.0
2475,79.0,60,60,0.0,42.0
2476,81.0,60,70,0.0,45.0
2477,48.0,0,120,1.0,50.0
2478,80.0,60,70,0.0,40.0
2479,69.0,60,60,1.0,42.0
2480,66.0,0,60,1.0,35.0
2481,81.0,0,70,0.0,42.0
2482,78.0,60,60,0.0,37.0
2483,79.0,0,40,0.0,45.0
2484,81.0,30,40,0.0,43.0
2485,82.0,30,40,0.0,47.0
2486,48.0,60,120,1.0,55.0
2487,81.0,30,40,0.0,50.0
2488,84.0,30,40,0.0,53.0
2489,67.0,0,60,1.0,42.0
2490,70.0,0,60,1.0,49.0
2491,82.0,30,40,0.0,48.0
2492,86.0,30,40,0.0,55.0
2493,84.0,30,40,0.0,52.0
2494,82.0,0,40,0.0,49.0
2495,84.0,30,40,0.0,45.0
2496,81.0,30,40,0.0,47.0
2497,48.0,30,120,1.0,52.0
2498,82.0,30,40,0.0,43.0
2499,79.0,0,40,0.0,45.0
2500,67.0,30,50,1.0,42.0
2501,64.0,0,50,1.0,36.0
2502,81.0,30,40,0.0,41.0
2503,78.0,30,40,0.0,43.0
2504,81.0,30,30,0.0,38.0
2505,79.0,30,40,0.0,35.0
2506,81.0,30,40,0.0,33.0
2507,82.0,30,40,0.0,37.0
2508,48.0,0,120,1.0,37.0
2509,81.0,30,40,0.0,40.0
2510,84.0,30,40,0.0,43.0
2511,70.0,0,60,1.0,29.0
2512,67.0,0,60,1.0,22.0
2513,82.0,30,40,0.0,38.0
2514,86.0,30,40,0.0,45.0
2515,84.0,30,40,0.0,42.0
2516,82.0,0,40,0.0,39.0
2517,84.0,30,40,0.0,35.0
2518,81.0,30,40,0.0,37.0
2519,48.0,30,120,1.0,34.0
2520,82.0,30,40,0.0,33.0
2521,79.0,30,40,0.0,35.0
2522,67.0,0,60,1.0,26.0
2523,64.0,0,60,1.0,19.0
2524,81.0,30,40,0.0,37.0
2525,78.0,30,40,0.0,39.0
2526,81.0,30,30,0.0,36.0
2527,79.0,0,40,0.0,40.0
2528,81.0,30,40,0.0,38.0
2529,82.0,30,40,0.0,42.0
2530,48.0,30,120,1.0,47.0
2531,81.0,30,40,0.0,40.0
2532,84.0,30,40,0.0,44.0
2533,70.0,0,60,1.0,39.0
2534,67.0,0,60,1.0,25.0
2535,64.0,0,60,1.0,32.0
2536,82.0,30,40,0.0,42.0
2537,81.0,30,40,0.0,46.0
2538,82.0,30,40,0.0,44.0
2539,79.0,30,40,0.0,48.0
2540,81.0,30,40,0.0,46.0
2541,77.0,30,40,0.0,50.0
2542,48.0,0,120,1.0,42.0
2543,79.0,30,40,0.0,48.0
2544,76.0,30,40,0.0,52.0
2545,58.0,0,50,1.0,26.0
2546,64.0,0,50,1.0,20.0
2547,67.0,0,50,1.0,32.0
2548,77.0,30,40,0.0,50.0
2549,74.0,30,40,0.0,54.0
2550,76.0,30,30,0.0,52.0
2551,72.0,0,40,0.0,55.0
2552,76.0,30,40,0.0,51.0
2553,74.0,30,40,0.0,53.0
2554,36.0,30,120,1.0,45.0
2555,77.0,30,40,0.0,49.0
2556,76.0,0,40,0.0,51.0
2557,79.0,30,40,0.0,47.0
2558,64.0,0,100,1.0,37.0
2559,55.0,30,100,1.0,30.0
2560,58.0,0,100,1.0,22.0
2561,77.0,30,40,0.0,49.0
2562,81.0,30,40,0.0,45.0
2563,79.0,30,40,0.0,47.0
2564,82.0,30,40,0.0,43.0
2565,81.0,30,40,0.0,45.0
2566,84.0,30,40,0.0,41.0
2567,82.0,30,40,0.0,43.0
2568,81.0,30,40,0.0,45.0
2569,82.0,30,40,0.0,41.0
2570,79.0,30,30,0.0,35.0
2571,41.0,0,70,1.0,50.0
2572,60.0,40,70,1.0,38.0
2573,57.0,60,70,1.0,40.0
2574,60.0,60,70,1.0,35.0
2575,65.0,60,70,1.0,33.0
2576,69.0,30,360,0.0,35.0
2577,72.0,10,350,0.0,38.0
2578,77.0,10,350,0.0,50.0
2579,60.0,60,70,1.0,37.0
2580,79.0,60,45,0.0,52.0
2581,77.0,35,35,0.0,45.0
2582,57.0,0,70,1.0,40.0
2583,76.0,0,40,0.0,48.0
2584,77.0,30,40,0.0,43.0
2585,60.0,25,70,1.0,35.0
2586,70.0,20,40,0.0,30.0
2587,74.0,0,40,0.0,33.0
2588,46.0,10,70,1.0,45.0
2589,62.0,50,70,1.0,33.0
2590,58.0,60,70,1.0,35.0
2591,81.0,10,180,0.0,45.0
2592,79.0,0,70,0.0,48.0
2593,62.0,60,70,1.0,30.0
2594,67.0,60,70,1.0,28.0
2595,62.0,60,70,1.0,32.0
2596,82.0,0,190,0.0,42.0
2597,58.0,60,70,1.0,35.0
2598,62.0,0,70,1.0,38.0
2599,79.0,60,70,0.0,45.0
2600,48.0,10,70,1.0,50.0
2601,57.0,60,70,1.0,38.0
2602,60.0,60,70,1.0,40.0
2603,65.0,60,60,1.0,35.0
2604,69.0,40,270,0.0,35.0
2605,77.0,0,310,0.0,48.0
2606,48.0,0,70,1.0,45.0
2607,76.0,60,70,0.0,52.0
2608,55.0,0,70,1.0,33.0
2609,60.0,0,70,1.0,35.0
2610,79.0,60,70,0.0,45.0
2611,67.0,10,0,0.0,32.0
2612,64.0,60,60,1.0,30.0
2613,72.0,10,0,0.0,42.0
2614,76.0,0,70,0.0,47.0
2615,64.0,40,70,0.0,28.0
2616,48.0,0,70,1.0,48.0
2617,55.0,60,70,1.0,35.0
2618,52.0,60,70,1.0,37.0
2619,55.0,60,70,1.0,32.0
2620,60.0,0,70,1.0,28.0
2621,55.0,60,70,1.0,31.0
2622,52.0,0,70,1.0,33.0
2623,46.0,60,240,1.0,52.0
2624,72.0,60,120,0.0,55.0
2625,55.0,60,60,1.0,30.0
2626,79.0,45,20,0.0,50.0
2627,77.0,0,70,0.0,57.0
2628,45.0,15,70,1.0,55.0
2629,65.0,0,70,0.0,42.0
2630,53.0,0,70,1.0,35.0
2631,76.0,0,70,0.0,60.0
2632,64.0,60,70,0.0,45.0
2633,77.0,60,70,0.0,62.0
2634,65.0,0,70,0.0,47.0
2635,48.0,0,70,1.0,37.0
2636,57.0,60,60,1.0,32.0
2637,81.0,45,20,0.0,50.0
2638,66.0,0,70,0.0,42.0
2639,78.0,0,70,0.0,57.0
2640,79.0,15,70,0.0,65.0
2641,67.0,0,70,0.0,50.0
2642,40.0,0,70,1.0,58.0
2643,66.0,0,70,0.0,53.0
2644,78.0,0,70,0.0,68.0
2645,55.0,60,70,1.0,37.0
2646,52.0,0,70,1.0,40.0
2647,79.0,0,70,0.0,70.0
2648,67.0,60,70,0.0,55.0
2649,60.0,60,60,1.0,35.0
2650,82.0,45,20,0.0,59.0
2651,80.0,0,70,0.0,65.0
2652,68.0,0,70,0.0,50.0
2653,69.0,0,70,0.0,59.0
2654,81.0,15,70,0.0,74.0
2655,41.0,0,70,1.0,53.0
2656,68.0,60,70,0.0,62.0
2657,60.0,0,70,1.0,32.0
2658,80.0,0,70,0.0,77.0
2659,81.0,60,70,0.0,72.0
2660,69.0,0,70,0.0,57.0
2661,57.0,0,70,1.0,35.0
2662,65.0,60,60,1.0,30.0
2663,72.0,0,70,0.0,55.0
2664,84.0,0,70,0.0,70.0
2665,70.0,60,70,0.0,62.0
2666,82.0,0,70,0.0,77.0
2667,46.0,0,70,1.0,55.0
2668,84.0,60,70,0.0,80.0
2669,72.0,0,70,0.0,65.0
2670,62.0,0,70,1.0,30.0
2671,74.0,0,70,0.0,60.0
2672,86.0,0,70,0.0,75.0
2673,58.0,60,70,1.0,32.0
2674,67.0,0,60,1.0,28.0
2675,70.0,0,70,0.0,55.0
2676,82.0,60,70,0.0,70.0
2677,48.0,10,70,1.0,60.0
2678,57.0,50,70,1.0,43.0
2679,53.0,60,70,1.0,45.0
2680,60.0,60,70,1.0,40.0
2681,81.0,10,270,0.0,68.0
2682,77.0,0,280,0.0,55.0
2683,69.0,30,310,0.0,58.0
2684,72.0,20,290,0.0,50.0
2685,84.0,30,40,0.0,50.0
2686,57.0,60,70,1.0,42.0
2687,89.0,0,15,0.0,52.0
2688,88.0,30,15,0.0,54.0
2689,65.0,30,70,1.0,37.0
2690,86.0,0,15,0.0,56.0
2691,84.0,30,15,0.0,58.0
2692,60.0,30,70,1.0,39.0
2693,82.0,30,15,0.0,60.0
2694,81.0,30,15,0.0,62.0
2695,69.0,0,70,1.0,33.0
2696,48.0,0,70,1.0,50.0
2697,55.0,60,70,1.0,35.0
2698,52.0,60,70,1.0,37.0
2699,79.0,30,240,0.0,58.0
2700,76.0,0,240,0.0,32.0
2701,72.0,0,240,0.0,50.0
2702,60.0,60,70,1.0,32.0
2703,55.0,60,70,1.0,34.0
2704,64.0,60,70,1.0,37.0
2705,60.0,60,70,1.0,40.0
2706,72.0,0,100,0.0,80.0
2707,67.0,60,70,1.0,35.0
2708,48.0,10,60,1.0,72.0
2709,48.0,60,40,1.0,70.0
2710,52.0,60,35,1.0,65.0
2711,48.0,60,30,1.0,68.0
2712,52.0,60,35,1.0,62.0
2713,76.0,10,380,0.0,82.0
2714,82.0,0,370,0.0,100.0
2715,52.0,60,35,1.0,58.0
2716,79.0,0,35,0.0,85.0
2717,81.0,25,20,0.0,70.0
2718,79.0,15,20,0.0,60.0
2719,81.0,15,20,0.0,63.0
2720,79.0,10,20,0.0,66.0
2721,55.0,5,30,1.0,54.0
2722,78.0,15,20,0.0,68.0
2723,79.0,15,20,0.0,70.0
2724,58.0,0,50,1.0,50.0
2725,48.0,60,230,1.0,65.0
2726,36.0,0,530,1.0,90.0
2727,76.0,20,50,0.0,85.0
2728,72.0,40,550,0.0,75.0
2729,65.0,120,130,0.0,68.0
2730,57.0,0,130,1.0,60.0
2731,77.0,0,130,0.0,82.0
2732,60.0,0,240,1.0,30.0
2733,72.0,120,0,0.0,52.0
2734,76.0,120,130,0.0,85.0
2735,64.0,0,130,0.0,70.0
2736,55.0,0,130,1.0,62.0
2737,58.0,0,130,1.0,50.0
2738,72.0,100,0,0.0,65.0
2739,77.0,0,130,0.0,80.0
2740,53.0,0,130,1.0,65.0
2741,57.0,0,130,1.0,45.0
2742,60.0,0,130,1.0,35.0
2743,65.0,0,130,0.0,65.0
2744,48.0,0,60,1.0,62.0
2745,48.0,60,40,1.0,60.0
2746,52.0,60,35,1.0,55.0
2747,48.0,60,30,1.0,58.0
2748,52.0,60,35,1.0,52.0
2749,82.0,10,370,0.0,95.0
2750,76.0,10,380,0.0,72.0
2751,52.0,0,35,1.0,48.0
2752,79.0,60,35,0.0,80.0
2753,81.0,25,20,0.0,68.0
2754,79.0,15,20,0.0,60.0
2755,81.0,15,20,0.0,62.0
2756,79.0,10,20,0.0,64.0
2757,55.0,5,30,1.0,44.0
2758,78.0,15,20,0.0,66.0
2759,79.0,15,25,0.0,68.0
2760,58.0,20,50,1.0,40.0
2761,48.0,60,230,1.0,55.0
2762,36.0,0,530,1.0,80.0
2763,76.0,0,60,0.0,80.0
2764,57.0,0,130,1.0,60.0
2765,72.0,0,130,0.0,53.0
2766,84.0,120,130,0.0,67.0
2767,65.0,0,240,1.0,50.0
2768,77.0,0,240,0.0,45.0
2769,60.0,0,0,1.0,45.0
2770,71.0,120,130,0.0,60.0
2771,59.0,0,130,1.0,55.0
2772,56.0,0,130,1.0,62.0
2773,83.0,0,130,0.0,75.0
2774,77.0,0,120,0.0,43.0
2775,84.0,120,130,0.0,71.0
2776,72.0,0,130,0.0,56.0
2777,57.0,0,130,1.0,58.0
2778,65.0,0,130,1.0,35.0
2779,58.0,0,70,1.0,45.0
2780,46.0,0,70,1.0,60.0
2781,67.0,0,30,1.0,33.0
2782,65.0,0,30,1.0,25.0
2783,62.0,60,30,1.0,40.0
2784,65.0,0,40,1.0,28.0
2785,62.0,60,40,1.0,42.0
2786,67.0,0,40,1.0,35.0
2787,67.0,60,30,1.0,32.0
2788,62.0,0,30,1.0,37.0
2789,65.0,0,30,1.0,25.0
2790,59.0,0,30,1.0,43.0
2791,77.0,0,290,0.0,40.0
2792,74.0,0,290,0.0,50.0
2793,86.0,120,290,0.0,65.0
2794,47.0,60,70,1.0,53.0
2795,88.0,0,30,0.0,70.0
2796,67.0,0,30,1.0,30.0
2797,65.0,0,30,1.0,22.0
2798,62.0,60,30,1.0,37.0
2799,86.0,20,25,0.0,63.0
2800,85.0,15,20,0.0,65.0
2801,86.0,10,25,0.0,60.0
2802,88.0,0,25,0.0,63.0
2803,62.0,0,40,1.0,39.0
2804,65.0,0,40,1.0,25.0
2805,67.0,15,40,1.0,32.0
2806,62.0,60,30,1.0,34.0
2807,89.0,0,30,0.0,60.0
2808,67.0,0,30,1.0,30.0
2809,65.0,0,30,1.0,20.0
2810,69.0,40,20,0.0,50.0
2811,72.0,10,20,0.0,55.0
2812,48.0,0,70,1.0,55.0
2813,65.0,0,30,1.0,25.0
2814,60.0,0,30,1.0,40.0
2815,69.0,60,30,1.0,33.0
2816,60.0,0,40,1.0,42.0
2817,65.0,0,40,1.0,28.0
2818,69.0,60,40,1.0,35.0
2819,69.0,0,30,1.0,32.0
2820,65.0,60,30,1.0,20.0
2821,60.0,0,30,1.0,37.0
2822,36.0,0,70,1.0,58.0
2823,48.0,60,70,1.0,40.0
2824,58.0,0,30,1.0,37.0
2825,60.0,0,30,1.0,25.0
2826,64.0,60,30,1.0,30.0
2827,77.0,10,370,0.0,65.0
2828,58.0,0,40,1.0,39.0
2829,60.0,0,40,1.0,27.0
2830,64.0,0,40,1.0,32.0
2831,81.0,10,70,0.0,68.0
2832,58.0,0,30,1.0,42.0
2833,60.0,0,30,1.0,22.0
2834,64.0,60,30,1.0,37.0
2835,70.0,40,120,0.0,50.0
2836,76.0,10,120,0.0,55.0
2837,79.0,0,60,0.0,62.0
2838,69.0,0,200,0.0,62.0
2839,72.0,0,200,0.0,40.0
2840,77.0,0,200,0.0,60.0
2841,41.0,20,240,1.0,50.0
2842,57.0,10,200,1.0,40.0
2843,60.0,30,240,1.0,35.0
2844,57.0,240,200,1.0,80.0
2845,45.0,0,210,1.0,100.0
2846,69.0,0,0,0.0,95.0
2847,57.0,210,40,1.0,78.0
2848,45.0,0,40,1.0,95.0
2849,38.0,0,200,1.0,105.0
2850,50.0,30,200,1.0,75.0
2851,62.0,0,200,0.0,105.0
2852,62.0,210,0,1.0,78.0
2853,74.0,0,210,0.0,80.0
2854,50.0,0,0,1.0,95.0
2855,86.0,0,210,0.0,100.0
2856,86.0,0,40,0.0,95.0
2857,74.0,0,40,0.0,78.0
2858,67.0,0,200,0.0,75.0
2859,79.0,30,200,0.0,105.0
2860,43.0,0,200,1.0,105.0
2861,55.0,0,200,1.0,75.0
2862,46.0,0,210,1.0,100.0
2863,58.0,0,210,1.0,80.0
2864,70.0,240,210,0.0,80.0
2865,82.0,0,210,0.0,100.0
2866,82.0,0,0,0.0,65.0
2867,46.0,0,40,1.0,95.0
2868,58.0,210,40,1.0,78.0
2869,70.0,0,40,0.0,75.0
2870,88.0,30,200,0.0,110.0
2871,76.0,0,200,0.0,85.0
2872,79.0,0,200,0.0,78.0
2873,49.0,0,200,1.0,85.0
2874,37.0,0,200,1.0,115.0
2875,38.0,240,180,1.0,105.0
2876,77.0,0,180,0.0,90.0
2877,81.0,0,180,0.0,78.0
2878,89.0,0,180,0.0,115.0
2879,50.0,0,180,1.0,78.0
2880,46.0,0,240,1.0,60.0
2881,34.0,240,250,1.0,75.0
2882,67.0,0,310,0.0,70.0
2883,74.0,0,310,0.0,45.0
2884,77.0,0,310,0.0,65.0
2885,79.0,0,310,0.0,80.0
2886,69.0,60,70,0.0,68.0
2887,81.0,0,70,0.0,82.0
2888,70.0,0,70,0.0,66.0
2889,82.0,0,70,0.0,76.0
2890,74.0,60,50,0.0,64.0
2891,86.0,0,50,0.0,73.0
2892,50.0,0,120,1.0,30.0
2893,53.0,0,120,1.0,40.0
2894,55.0,60,120,1.0,47.0
2895,46.0,240,240,1.0,55.0
2896,74.0,0,70,0.0,60.0
2897,86.0,0,70,0.0,68.0
2898,57.0,60,130,1.0,63.0
2899,72.0,60,70,0.0,62.0
2900,84.0,0,70,0.0,72.0
2901,82.0,0,70,0.0,75.0
2902,70.0,0,70,0.0,64.0
2903,81.0,0,50,0.0,77.0
2904,69.0,60,50,0.0,66.0
2905,48.0,60,0,1.0,57.0
2906,53.0,0,250,1.0,40.0
2907,60.0,60,130,1.0,58.0
2908,69.0,0,70,0.0,63.0
2909,81.0,0,70,0.0,74.0
2910,79.0,60,70,0.0,76.0
2911,52.0,0,130,1.0,48.0
2912,67.0,0,70,0.0,65.0
2913,70.0,0,70,0.0,58.0
2914,82.0,0,70,0.0,72.0
2915,58.0,0,250,1.0,60.0
2916,55.0,60,130,1.0,51.0
2917,76.0,0,70,0.0,75.0
2918,64.0,60,70,0.0,60.0
2919,65.0,0,50,0.0,55.0
2920,77.0,0,50,0.0,70.0
2921,69.0,60,20,0.0,40.0
2922,68.0,60,20,0.0,48.0
2923,57.0,60,200,1.0,30.0
2924,69.0,60,20,0.0,45.0
2925,53.0,0,200,1.0,55.0
2926,70.0,60,20,0.0,47.0
2927,71.0,60,20,0.0,44.0
2928,72.0,60,20,0.0,46.0
2929,73.0,60,20,0.0,48.0
2930,57.0,30,0,1.0,35.0
2931,74.0,0,20,0.0,50.0
2932,75.0,60,20,0.0,46.0
2933,76.0,60,20,0.0,48.0
2934,77.0,60,20,0.0,44.0
2935,50.0,30,200,1.0,45.0
2936,78.0,0,20,0.0,46.0
2937,79.0,60,20,0.0,43.0
2938,80.0,60,20,0.0,40.0
2939,81.0,60,20,0.0,42.0
2940,50.0,60,210,1.0,40.0
2941,62.0,0,210,1.0,45.0
2942,62.0,0,40,1.0,40.0
2943,50.0,30,40,1.0,35.0
2944,82.0,0,30,0.0,45.0
2945,84.0,60,20,0.0,43.0
2946,85.0,60,20,0.0,41.0
2947,43.0,30,200,1.0,42.0
2948,86.0,60,20,0.0,46.0
2949,55.0,0,200,1.0,47.0
2950,74.0,0,20,0.0,50.0
2951,76.0,60,20,0.0,46.0
2952,77.0,60,20,0.0,48.0
2953,78.0,60,20,0.0,44.0
2954,58.0,30,0,1.0,45.0
2955,79.0,0,20,0.0,46.0
2956,81.0,60,20,0.0,42.0
2957,82.0,60,20,0.0,44.0
2958,52.0,30,200,1.0,55.0
2959,81.0,60,20,0.0,48.0
2960,82.0,60,20,0.0,46.0
2961,81.0,60,20,0.0,50.0
2962,82.0,60,20,0.0,52.0
2963,81.0,60,20,0.0,47.0
2964,67.0,30,0,1.0,43.0
2965,55.0,0,0,1.0,38.0
2966,82.0,0,40,0.0,50.0
2967,81.0,30,40,0.0,47.0
2968,86.0,30,40,0.0,43.0
2969,48.0,30,120,1.0,50.0
2970,84.0,30,40,0.0,45.0
2971,82.0,30,40,0.0,48.0
2972,81.0,30,40,0.0,45.0
2973,64.0,0,100,1.0,40.0
2974,86.0,30,40,0.0,41.0
2975,60.0,0,100,1.0,25.0
2976,58.0,0,100,1.0,36.0
2977,84.0,30,40,0.0,43.0
2978,82.0,30,40,0.0,46.0
2979,81.0,30,40,0.0,43.0
2980,86.0,30,40,0.0,39.0
2981,50.0,0,120,1.0,47.0
2982,84.0,30,40,0.0,41.0
2983,82.0,30,40,0.0,44.0
2984,81.0,30,40,0.0,41.0
2985,65.0,0,100,1.0,37.0
2986,86.0,30,40,0.0,37.0
2987,60.0,0,100,1.0,22.0
2988,58.0,0,100,1.0,33.0
2989,84.0,30,40,0.0,39.0
2990,82.0,30,40,0.0,42.0
2991,81.0,30,40,0.0,39.0
2992,86.0,30,40,0.0,35.0
2993,52.0,0,120,1.0,43.0
2994,84.0,30,40,0.0,37.0
2995,82.0,30,40,0.0,40.0
2996,81.0,30,40,0.0,37.0
2997,58.0,0,100,1.0,29.0
2998,60.0,0,100,1.0,18.0
2999,67.0,0,100,1.0,33.0
3000,86.0,30,40,0.0,33.0
3001,84.0,30,40,0.0,35.0
3002,82.0,30,40,0.0,37.0
3003,81.0,30,40,0.0,39.0
3004,79.0,30,40,0.0,41.0
3005,48.0,0,120,1.0,45.0
3006,77.0,30,40,0.0,43.0
3007,76.0,0,40,0.0,45.0
3008,74.0,30,40,0.0,47.0
3009,58.0,30,100,1.0,31.0
3010,60.0,0,100,1.0,20.0
3011,64.0,0,100,1.0,35.0
3012,72.0,30,40,0.0,49.0
3013,70.0,30,40,0.0,46.0
3014,69.0,0,40,0.0,50.0
3015,70.0,60,20,0.0,46.0
3016,53.0,30,120,1.0,35.0
3017,41.0,0,120,1.0,50.0
3018,72.0,0,20,0.0,48.0
3019,57.0,0,50,1.0,31.0
3020,65.0,60,50,1.0,35.0
3021,60.0,0,50,1.0,20.0
3022,74.0,60,20,0.0,44.0
3023,76.0,0,20,0.0,46.0
3024,53.0,60,60,1.0,29.0
3025,60.0,0,60,1.0,33.0
3026,57.0,0,60,1.0,18.0
3027,77.0,60,20,0.0,42.0
3028,79.0,60,20,0.0,44.0
3029,48.0,0,40,1.0,26.0
3030,53.0,0,40,1.0,15.0
3031,57.0,0,40,1.0,30.0
3032,81.0,60,20,0.0,40.0
3033,82.0,0,20,0.0,42.0
3034,83.0,60,20,0.0,38.0
3035,33.0,60,120,1.0,45.0
3036,45.0,0,120,1.0,35.0
3037,84.0,0,20,0.0,40.0
3038,69.0,60,50,1.0,30.0
3039,65.0,0,50,1.0,22.0
3040,60.0,0,50,1.0,33.0
3041,85.0,60,20,0.0,42.0
3042,86.0,0,20,0.0,44.0
3043,65.0,0,60,1.0,35.0
3044,57.0,60,60,1.0,31.0
3045,60.0,0,60,1.0,20.0
3046,88.0,60,20,0.0,38.0
3047,89.0,60,20,0.0,40.0
3048,53.0,0,40,1.0,28.0
3049,57.0,0,40,1.0,17.0
3050,60.0,0,40,1.0,32.0
3051,81.0,60,20,0.0,35.0
3052,46.0,0,120,1.0,35.0
3053,34.0,60,120,1.0,50.0
3054,78.0,60,70,0.0,45.0
3055,81.0,0,70,0.0,37.0
3056,65.0,60,100,1.0,20.0
3057,67.0,0,100,1.0,35.0
3058,62.0,0,100,1.0,31.0
3059,79.0,60,60,0.0,40.0
3060,65.0,60,100,1.0,18.0
3061,67.0,0,100,1.0,33.0
3062,62.0,0,100,1.0,29.0
3063,81.0,60,70,0.0,50.0
3064,84.0,60,70,0.0,42.0
3065,62.0,0,100,1.0,26.0
3066,65.0,0,100,1.0,15.0
3067,67.0,0,100,1.0,30.0
3068,82.0,60,60,0.0,45.0
3069,35.0,0,120,1.0,55.0
3070,47.0,60,120,1.0,45.0
3071,85.0,60,70,0.0,52.0
3072,88.0,60,70,0.0,44.0
3073,62.0,0,100,1.0,43.0
3074,67.0,0,100,1.0,40.0
3075,65.0,0,100,1.0,32.0
3076,86.0,60,60,0.0,47.0
3077,67.0,0,100,1.0,45.0
3078,65.0,0,100,1.0,30.0
3079,62.0,60,100,1.0,41.0
3080,88.0,60,70,0.0,47.0
3081,89.0,0,70,0.0,39.0
3082,67.0,0,100,1.0,42.0
3083,65.0,0,100,1.0,27.0
3084,62.0,60,100,1.0,38.0
3085,86.0,60,60,0.0,42.0
3086,84.0,60,30,0.0,45.0
3087,89.0,45,15,0.0,35.0
3088,88.0,35,15,0.0,37.0
3089,36.0,0,120,1.0,50.0
3090,48.0,0,120,1.0,35.0
3091,86.0,0,15,0.0,39.0
3092,84.0,40,15,0.0,36.0
3093,83.0,40,15,0.0,38.0
3094,48.0,0,100,1.0,36.0
3095,53.0,0,100,1.0,25.0
3096,57.0,40,100,1.0,40.0
3097,84.0,40,15,0.0,40.0
3098,89.0,40,15,0.0,32.0
3099,88.0,40,15,0.0,34.0
3100,86.0,40,15,0.0,36.0
3101,84.0,40,15,0.0,33.0
3102,83.0,40,15,0.0,35.0
3103,60.0,0,240,1.0,27.0
3104,69.0,0,240,1.0,35.0
3105,65.0,0,240,1.0,20.0
3106,84.0,40,15,0.0,37.0
3107,89.0,40,15,0.0,34.0
3108,88.0,40,15,0.0,36.0
3109,86.0,40,15,0.0,38.0
3110,84.0,40,15,0.0,40.0
3111,83.0,40,15,0.0,42.0
3112,86.0,40,50,0.0,39.0
3113,84.0,40,50,0.0,41.0
3114,83.0,40,50,0.0,43.0
3115,86.0,40,45,0.0,45.0
3116,84.0,35,40,0.0,42.0
3117,82.0,30,35,0.0,48.0
3118,81.0,25,40,0.0,52.0
3119,79.0,0,40,0.0,55.0
3120,81.0,30,25,0.0,40.0
3121,79.0,20,20,0.0,43.0
3122,81.0,15,20,0.0,41.0
3123,79.0,10,20,0.0,44.0
3124,81.0,15,20,0.0,47.0
3125,79.0,15,20,0.0,43.0
3126,48.0,0,130,1.0,35.0
3127,36.0,30,130,1.0,50.0
3128,81.0,0,20,0.0,48.0
3129,79.0,10,20,0.0,46.0
3130,81.0,15,20,0.0,50.0
3131,79.0,10,20,0.0,52.0
3132,81.0,10,20,0.0,48.0
3133,70.0,15,70,1.0,40.0
3134,67.0,0,70,1.0,28.0
3135,60.0,0,70,1.0,25.0
3136,65.0,0,70,1.0,35.0
3137,79.0,15,20,0.0,50.0
3138,81.0,10,20,0.0,55.0
3139,79.0,15,20,0.0,52.0
3140,81.0,10,20,0.0,49.0
3141,79.0,15,20,0.0,58.0
3142,81.0,5,20,0.0,52.0
3143,79.0,10,20,0.0,55.0
3144,81.0,10,0,0.0,58.0
3145,79.0,10,20,0.0,62.0
3146,79.0,15,20,0.0,65.0
3147,70.0,0,90,1.0,50.0
3148,67.0,0,90,1.0,50.0
3149,65.0,0,90,1.0,41.0
3150,60.0,10,90,1.0,35.0
3151,81.0,10,0,0.0,66.0
3152,79.0,10,20,0.0,64.0
3153,79.0,15,20,0.0,70.0
3154,81.0,5,20,0.0,72.0
3155,79.0,15,20,0.0,69.0
3156,81.0,10,25,0.0,73.0
3157,70.0,0,80,1.0,62.0
3158,60.0,0,80,1.0,47.0
3159,65.0,0,80,1.0,57.0
3160,67.0,5,80,1.0,62.0
3161,78.0,20,35,0.0,76.0
3162,79.0,30,45,0.0,80.0
3163,84.0,40,40,0.0,85.0
3164,86.0,30,25,0.0,70.0
3165,84.0,20,20,0.0,73.0
3166,86.0,15,20,0.0,71.0
3167,84.0,10,20,0.0,74.0
3168,86.0,5,20,0.0,77.0
3169,60.0,10,25,1.0,80.0
3170,36.0,0,120,1.0,90.0
3171,64.0,10,20,1.0,77.0
3172,48.0,0,120,1.0,70.0
3173,84.0,5,20,0.0,73.0
3174,67.0,5,20,1.0,81.0
3175,86.0,10,20,0.0,70.0
3176,84.0,10,20,0.0,75.0
3177,70.0,0,40,1.0,85.0
3178,86.0,10,0,0.0,76.0
3179,84.0,5,20,0.0,77.0
3180,69.0,5,40,1.0,83.0
3181,84.0,15,20,0.0,74.0
3182,86.0,10,20,0.0,70.0
3183,67.0,0,40,1.0,81.0
3184,84.0,15,20,0.0,68.0
3185,86.0,5,20,0.0,75.0
3186,65.0,5,40,1.0,79.0
3187,84.0,15,20,0.0,72.0
3188,86.0,5,20,0.0,74.0
3189,84.0,10,20,0.0,69.0
3190,64.0,10,40,1.0,82.0
3191,86.0,15,20,0.0,72.0
3192,84.0,10,20,0.0,67.0
3193,86.0,10,20,0.0,75.0
3194,62.0,0,40,1.0,80.0
3195,84.0,5,20,0.0,72.0
3196,60.0,10,40,1.0,78.0
3197,86.0,15,20,0.0,69.0
3198,84.0,0,20,0.0,72.0
3199,86.0,10,20,0.0,78.0
3200,58.0,10,40,1.0,76.0
3201,84.0,15,20,0.0,70.0
3202,86.0,5,20,0.0,72.0
3203,84.0,15,20,0.0,75.0
3204,57.0,5,40,1.0,79.0
3205,86.0,10,25,0.0,80.0
3206,55.0,0,40,1.0,77.0
3207,83.0,20,35,0.0,84.0
3208,53.0,10,40,1.0,80.0
3209,84.0,20,45,0.0,88.0
3210,52.0,10,40,1.0,85.0
3211,53.0,0,0,1.0,55.0
3212,41.0,0,70,1.0,85.0
3213,57.0,60,30,1.0,48.0
3214,57.0,0,40,1.0,50.0
3215,53.0,60,40,1.0,57.0
3216,57.0,0,30,1.0,47.0
3217,53.0,60,30,1.0,52.0
3218,53.0,0,60,1.0,60.0
3219,41.0,60,70,1.0,78.0
3220,57.0,60,30,1.0,45.0
3221,53.0,0,30,1.0,52.0
3222,53.0,0,40,1.0,47.0
3223,57.0,60,40,1.0,54.0
3224,57.0,0,30,1.0,44.0
3225,53.0,60,30,1.0,49.0
3226,65.0,0,480,0.0,88.0
3227,69.0,0,480,0.0,75.0
3228,77.0,0,480,0.0,95.0
3229,53.0,0,0,1.0,55.0
3230,41.0,0,70,1.0,80.0
3231,63.0,0,30,1.0,48.0
3232,60.0,60,30,1.0,40.0
3233,53.0,0,40,1.0,57.0
3234,60.0,0,40,1.0,42.0
3235,63.0,60,40,1.0,50.0
3236,63.0,60,30,1.0,47.0
3237,53.0,0,30,1.0,52.0
3238,60.0,0,30,1.0,38.0
3239,53.0,0,60,1.0,75.0
3240,41.0,60,70,1.0,75.0
3241,53.0,0,30,1.0,52.0
3242,63.0,60,30,1.0,45.0
3243,60.0,0,30,1.0,38.0
3244,75.0,0,0,0.0,70.0
3245,81.0,60,370,0.0,87.0
3246,69.0,0,370,0.0,80.0
3247,60.0,0,40,1.0,30.0
3248,53.0,60,40,1.0,44.0
3249,63.0,0,40,1.0,37.0
3250,70.0,0,70,0.0,83.0
3251,82.0,0,70,0.0,90.0
3252,53.0,0,30,1.0,37.0
3253,63.0,0,30,1.0,32.0
3254,60.0,60,30,1.0,15.0
3255,74.0,30,20,0.0,40.0
3256,77.0,10,20,0.0,43.0
3257,84.0,0,70,0.0,77.0
3258,72.0,0,70,0.0,70.0
3259,82.0,10,20,0.0,46.0
3260,41.0,10,70,1.0,55.0
3261,46.0,60,70,1.0,40.0
3262,50.0,60,70,1.0,42.0
3263,53.0,60,70,1.0,35.0
3264,50.0,60,70,1.0,38.0
3265,86.0,45,0,0.0,35.0
3266,53.0,60,70,1.0,40.0
3267,58.0,0,70,1.0,36.0
3268,84.0,15,70,0.0,50.0
3269,82.0,0,50,0.0,45.0
3270,62.0,60,60,1.0,30.0
3271,84.0,45,25,0.0,38.0
3272,82.0,15,70,0.0,53.0
3273,41.0,0,70,1.0,45.0
3274,81.0,60,50,0.0,48.0
3275,82.0,45,25,0.0,41.0
3276,43.0,0,70,1.0,40.0
3277,46.0,0,70,1.0,42.0
3278,81.0,15,70,0.0,56.0
3279,79.0,60,50,0.0,51.0
3280,48.0,0,70,1.0,39.0
3281,81.0,45,25,0.0,44.0
3282,79.0,15,70,0.0,59.0
3283,52.0,0,70,1.0,36.0
3284,77.0,60,50,0.0,48.0
3285,79.0,45,25,0.0,48.0
3286,55.0,0,70,1.0,38.0
3287,77.0,15,70,0.0,63.0
3288,58.0,0,70,1.0,42.0
3289,76.0,0,50,0.0,58.0
3290,60.0,60,60,1.0,45.0
3291,53.0,60,0,1.0,45.0
3292,41.0,0,70,1.0,75.0
3293,57.0,0,30,1.0,38.0
3294,57.0,60,40,1.0,40.0
3295,53.0,0,40,1.0,47.0
3296,53.0,60,30,1.0,42.0
3297,57.0,0,30,1.0,37.0
3298,53.0,60,60,1.0,50.0
3299,41.0,0,70,1.0,68.0
3300,53.0,0,30,1.0,42.0
3301,57.0,60,30,1.0,35.0
3302,69.0,0,360,0.0,65.0
3303,65.0,60,0,0.0,83.0
3304,77.0,60,360,0.0,85.0
3305,57.0,0,40,1.0,44.0
3306,53.0,0,40,1.0,37.0
3307,53.0,60,30,1.0,39.0
3308,57.0,0,30,1.0,34.0
3309,69.0,0,120,0.0,70.0
3310,77.0,0,120,0.0,90.0
3311,53.0,60,60,1.0,50.0
3312,41.0,0,70,1.0,70.0
3313,60.0,60,30,1.0,30.0
3314,53.0,0,30,1.0,45.0
3315,63.0,0,30,1.0,38.0
3316,72.0,60,0,0.0,91.0
3317,81.0,0,130,0.0,83.0
3318,69.0,0,130,0.0,76.0
3319,75.0,0,130,0.0,68.0
3320,53.0,0,40,1.0,47.0
3321,60.0,0,40,1.0,32.0
3322,63.0,0,40,1.0,40.0
3323,60.0,0,30,1.0,28.0
3324,53.0,0,30,1.0,42.0
3325,63.0,60,30,1.0,37.0
3326,84.0,0,130,0.0,85.0
3327,53.0,60,40,1.0,45.0
3328,57.0,0,40,1.0,25.0
3329,63.0,0,40,1.0,35.0
3330,57.0,0,30,1.0,28.0
3331,63.0,60,30,1.0,35.0
3332,53.0,0,30,1.0,42.0
3333,87.0,0,130,0.0,81.0
3334,75.0,0,130,0.0,88.0
3335,53.0,0,40,1.0,39.0
3336,60.0,0,40,1.0,25.0
3337,63.0,0,40,1.0,32.0
3338,60.0,0,30,1.0,15.0
3339,53.0,0,30,1.0,32.0
3340,63.0,60,30,1.0,27.0
3341,74.0,30,20,0.0,30.0
3342,77.0,10,20,0.0,33.0
3343,69.0,0,130,0.0,93.0
3344,82.0,10,20,0.0,36.0
3345,81.0,60,130,0.0,83.0
3346,41.0,10,70,1.0,40.0
3347,46.0,60,70,1.0,30.0
3348,50.0,60,70,1.0,32.0
3349,53.0,60,70,1.0,25.0
3350,86.0,0,300,0.0,45.0
3351,50.0,60,70,1.0,28.0
3352,85.0,60,40,0.0,48.0
3353,86.0,30,40,0.0,44.0
3354,53.0,0,70,1.0,30.0
3355,88.0,0,40,0.0,40.0
3356,86.0,30,40,0.0,42.0
3357,58.0,30,70,1.0,26.0
3358,84.0,30,40,0.0,44.0
3359,62.0,0,60,1.0,20.0
3360,82.0,30,40,0.0,46.0
3361,84.0,0,40,0.0,43.0
3362,41.0,30,70,1.0,35.0
3363,82.0,30,40,0.0,45.0
3364,81.0,30,40,0.0,47.0
3365,43.0,0,70,1.0,30.0
3366,79.0,30,40,0.0,49.0
3367,81.0,30,40,0.0,46.0
3368,79.0,30,40,0.0,48.0
3369,46.0,0,70,1.0,32.0
3370,77.0,0,40,0.0,50.0
3371,76.0,30,40,0.0,52.0
3372,48.0,30,70,1.0,29.0
3373,77.0,30,40,0.0,49.0
3374,76.0,30,40,0.0,51.0
3375,52.0,0,70,1.0,26.0
3376,74.0,30,40,0.0,53.0
3377,72.0,30,40,0.0,55.0
3378,55.0,0,70,1.0,28.0
3379,71.0,30,40,0.0,57.0
3380,72.0,30,40,0.0,54.0
3381,58.0,0,70,1.0,25.0
3382,74.0,30,40,0.0,51.0
3383,60.0,0,60,1.0,20.0
3384,76.0,30,40,0.0,48.0
3385,77.0,10,80,0.0,50.0
3386,69.0,0,90,0.0,35.0
3387,65.0,30,100,0.0,30.0
3388,41.0,0,150,1.0,40.0
3389,57.0,10,110,1.0,30.0
3390,48.0,0,120,1.0,25.0
3391,79.0,100,50,0.0,55.0
3392,81.0,60,50,0.0,53.0
3393,82.0,60,50,0.0,56.0
3394,84.0,60,50,0.0,54.0
3395,86.0,60,50,0.0,52.0
3396,88.0,60,50,0.0,50.0
3397,89.0,60,50,0.0,53.0
3398,81.0,60,50,0.0,56.0
3399,60.0,0,120,1.0,30.0
3400,57.0,0,120,1.0,18.0
3401,53.0,0,120,1.0,25.0
3402,82.0,60,50,0.0,54.0
3403,84.0,60,50,0.0,52.0
3404,86.0,60,50,0.0,55.0
3405,88.0,60,50,0.0,53.0
3406,89.0,60,50,0.0,51.0
3407,91.0,60,50,0.0,48.0
3408,93.0,0,50,0.0,50.0
3409,84.0,60,50,0.0,53.0
3410,53.0,60,120,1.0,30.0
3411,57.0,0,120,1.0,22.0
3412,60.0,0,120,1.0,15.0
3413,65.0,0,120,1.0,25.0
3414,86.0,60,50,0.0,51.0
3415,88.0,60,50,0.0,49.0
3416,89.0,60,50,0.0,47.0
3417,91.0,60,50,0.0,45.0
3418,93.0,60,50,0.0,43.0
3419,94.0,60,50,0.0,47.0
3420,96.0,60,370,0.0,55.0
3421,93.0,360,130,0.0,48.0
3422,89.0,120,240,0.0,50.0
3423,84.0,0,370,1.0,60.0
3424,81.0,360,130,1.0,45.0
3425,77.0,120,120,1.0,50.0
3426,72.0,0,370,0.0,40.0
3427,69.0,360,130,0.0,33.0
3428,65.0,120,120,0.0,35.0
3429,48.0,0,110,1.0,15.0
3430,41.0,0,120,1.0,30.0
3431,77.0,0,100,0.0,30.0
3432,72.0,10,110,0.0,20.0
3433,69.0,240,120,0.0,15.0
3434,57.0,10,100,1.0,20.0
3435,48.0,0,120,1.0,12.0
3436,41.0,0,150,1.0,25.0
3437,65.0,190,150,0.0,12.0
3438,69.0,30,120,0.0,18.0
3439,77.0,20,100,0.0,25.0
3440,57.0,0,100,1.0,18.0
