,note,step,duration,channel,velocity
0,72.0,72,120,0.0,0.0
1,64.0,24,90,1.0,0.0
2,60.0,0,90,1.0,0.0
3,67.0,48,90,1.0,0.0
4,60.0,96,90,1.0,0.0
5,64.0,0,90,1.0,0.0
6,72.0,48,40,0.0,0.0
7,67.0,96,90,1.0,0.0
8,65.0,0,90,1.0,0.0
9,62.0,0,90,1.0,0.0
10,72.0,96,90,0.0,0.0
11,67.0,0,90,1.0,0.0
12,71.0,96,90,0.0,0.0
13,65.0,96,90,1.0,0.0
14,62.0,0,90,1.0,0.0
15,69.0,0,90,0.0,0.0
16,67.0,96,90,1.0,0.0
17,71.0,0,90,0.0,0.0
18,60.0,0,90,1.0,0.0
19,64.0,0,90,1.0,0.0
20,72.0,48,40,0.0,0.0
21,67.0,0,90,1.0,0.0
22,72.0,16,40,0.0,0.0
23,72.0,32,15,0.0,0.0
24,72.0,96,15,0.0,0.0
25,60.0,0,90,1.0,0.0
26,64.0,48,90,1.0,0.0
27,67.0,96,90,1.0,0.0
28,76.0,0,40,0.0,0.0
29,79.0,48,330,0.0,0.0
30,62.0,0,90,1.0,0.0
31,59.0,96,90,1.0,0.0
32,67.0,96,90,1.0,0.0
33,59.0,0,90,1.0,0.0
34,62.0,48,90,1.0,0.0
35,67.0,96,90,1.0,0.0
36,60.0,0,90,1.0,0.0
37,57.0,0,90,1.0,0.0
38,77.0,96,90,0.0,0.0
39,65.0,96,90,1.0,0.0
40,81.0,0,180,0.0,0.0
41,59.0,48,90,1.0,0.0
42,62.0,0,90,1.0,0.0
43,79.0,48,40,0.0,0.0
44,67.0,0,90,1.0,0.0
45,77.0,96,40,0.0,0.0
46,60.0,32,90,1.0,0.0
47,76.0,0,90,0.0,0.0
48,79.0,48,180,0.0,0.0
49,64.0,158,30,1.0,0.0
50,52.0,2,90,1.0,0.0
51,55.0,0,90,1.0,0.0
52,77.0,46,40,0.0,0.0
53,60.0,2,90,1.0,0.0
54,76.0,48,40,0.0,0.0
55,53.0,2,90,1.0,0.0
56,74.0,46,40,0.0,0.0
57,76.0,48,40,0.0,0.0
58,77.0,46,40,0.0,0.0
59,57.0,2,90,1.0,0.0
60,76.0,48,40,0.0,0.0
61,79.0,46,40,0.0,0.0
62,62.0,2,90,1.0,0.0
63,77.0,48,40,0.0,0.0
64,76.0,0,40,0.0,0.0
65,65.0,2,90,1.0,0.0
66,74.0,192,40,0.0,0.0
67,72.0,0,180,0.0,0.0
68,55.0,64,270,1.0,0.0
69,64.0,32,90,1.0,0.0
70,71.0,32,30,0.0,0.0
71,62.0,0,30,1.0,0.0
72,67.0,88,30,0.0,0.0
73,67.0,56,20,0.0,0.0
74,64.0,0,90,1.0,0.0
75,60.0,96,90,1.0,0.0
76,72.0,14,60,0.0,0.0
77,67.0,50,90,1.0,0.0
78,72.0,46,40,0.0,0.0
79,64.0,96,90,1.0,0.0
80,60.0,0,90,1.0,0.0
81,67.0,98,90,1.0,0.0
82,65.0,0,90,1.0,0.0
83,62.0,96,90,1.0,0.0
84,72.0,0,90,0.0,0.0
85,71.0,0,90,0.0,0.0
86,67.0,96,90,1.0,0.0
87,69.0,96,90,0.0,0.0
88,65.0,0,90,1.0,0.0
89,62.0,0,90,1.0,0.0
90,67.0,96,90,1.0,0.0
91,71.0,0,90,0.0,0.0
92,60.0,0,90,1.0,0.0
93,64.0,48,90,1.0,0.0
94,72.0,0,40,0.0,0.0
95,67.0,0,90,1.0,0.0
96,72.0,16,15,0.0,0.0
97,60.0,0,90,1.0,0.0
98,64.0,48,90,1.0,0.0
99,72.0,48,150,0.0,0.0
100,67.0,96,90,1.0,0.0
101,76.0,0,40,0.0,0.0
102,59.0,0,90,1.0,0.0
103,62.0,96,90,1.0,0.0
104,79.0,48,330,0.0,0.0
105,67.0,96,90,1.0,0.0
106,62.0,48,90,1.0,0.0
107,59.0,0,90,1.0,0.0
108,67.0,96,90,1.0,0.0
109,57.0,96,90,1.0,0.0
110,60.0,0,90,1.0,0.0
111,65.0,48,90,1.0,0.0
112,77.0,0,15,0.0,0.0
113,62.0,0,90,1.0,0.0
114,59.0,0,90,1.0,0.0
115,81.0,48,40,0.0,0.0
116,67.0,48,90,1.0,0.0
117,79.0,48,40,0.0,0.0
118,77.0,0,40,0.0,0.0
119,60.0,0,90,1.0,0.0
120,64.0,2,90,1.0,0.0
121,76.0,46,40,0.0,0.0
122,79.0,32,40,0.0,0.0
123,77.0,48,40,0.0,0.0
124,67.0,16,30,1.0,0.0
125,76.0,48,40,0.0,0.0
126,53.0,48,90,1.0,0.0
127,74.0,48,40,0.0,0.0
128,77.0,0,40,0.0,0.0
129,65.0,2,90,1.0,0.0
130,76.0,46,40,0.0,0.0
131,74.0,96,40,0.0,0.0
132,55.0,48,90,1.0,0.0
133,72.0,0,40,0.0,0.0
134,64.0,0,90,1.0,0.0
135,72.0,16,40,0.0,0.0
136,72.0,32,15,0.0,0.0
137,55.0,0,90,1.0,0.0
138,76.0,94,90,0.0,0.0
139,65.0,2,90,1.0,0.0
140,74.0,96,90,0.0,0.0
141,72.0,0,150,0.0,0.0
142,64.0,64,150,0.0,0.0
143,48.0,32,90,1.0,0.0
144,55.0,32,30,1.0,0.0
145,55.0,96,30,1.0,0.0
146,55.0,160,30,1.0,0.0
147,52.0,32,90,1.0,0.0
148,60.0,144,330,1.0,0.0
149,67.0,0,30,0.0,0.0
150,55.0,96,30,1.0,0.0
151,72.0,96,30,0.0,0.0
152,55.0,0,30,1.0,0.0
153,55.0,0,30,1.0,0.0
154,76.0,16,30,0.0,0.0
155,59.0,16,330,1.0,0.0
156,50.0,32,90,1.0,0.0
157,77.0,48,150,0.0,0.0
158,55.0,14,30,1.0,0.0
159,74.0,34,40,0.0,0.0
160,71.0,128,150,0.0,0.0
161,55.0,96,30,1.0,0.0
162,55.0,16,30,1.0,0.0
163,53.0,32,90,1.0,0.0
164,62.0,144,330,1.0,0.0
165,67.0,0,30,0.0,0.0
166,55.0,96,30,1.0,0.0
167,71.0,96,30,0.0,0.0
168,55.0,0,30,1.0,0.0
169,55.0,16,30,1.0,0.0
170,74.0,0,30,0.0,0.0
171,52.0,32,90,1.0,0.0
172,76.0,48,150,0.0,0.0
173,60.0,16,330,1.0,0.0
174,55.0,14,30,1.0,0.0
175,72.0,34,40,0.0,0.0
176,55.0,96,30,1.0,0.0
177,67.0,126,150,0.0,0.0
178,55.0,16,30,1.0,0.0
179,48.0,0,330,1.0,0.0
180,52.0,34,90,1.0,0.0
181,67.0,48,40,0.0,0.0
182,55.0,16,30,1.0,0.0
183,69.0,32,40,0.0,0.0
184,71.0,48,40,0.0,0.0
185,55.0,16,30,1.0,0.0
186,72.0,48,40,0.0,0.0
187,74.0,46,40,0.0,0.0
188,55.0,0,90,1.0,0.0
189,76.0,50,40,0.0,0.0
190,50.0,144,330,1.0,0.0
191,53.0,32,90,1.0,0.0
192,79.0,46,40,0.0,0.0
193,77.0,2,40,0.0,0.0
194,55.0,16,30,1.0,0.0
195,76.0,46,40,0.0,0.0
196,74.0,34,40,0.0,0.0
197,72.0,34,90,0.0,0.0
198,55.0,62,30,1.0,0.0
199,71.0,0,30,0.0,0.0
200,55.0,16,30,1.0,0.0
201,47.0,46,330,1.0,0.0
202,53.0,32,90,1.0,0.0
203,79.0,48,40,0.0,0.0
204,55.0,14,30,1.0,0.0
205,81.0,34,40,0.0,0.0
206,55.0,14,30,1.0,0.0
207,83.0,48,40,0.0,0.0
208,84.0,48,40,0.0,0.0
209,55.0,0,90,1.0,0.0
210,86.0,2,40,0.0,0.0
211,87.0,48,40,0.0,0.0
212,48.0,30,150,1.0,0.0
213,52.0,0,150,1.0,0.0
214,88.0,48,40,0.0,0.0
215,87.0,48,40,0.0,0.0
216,89.0,18,40,0.0,0.0
217,88.0,48,40,0.0,0.0
218,86.0,48,40,0.0,0.0
219,84.0,48,40,0.0,0.0
220,83.0,48,40,0.0,0.0
221,81.0,34,40,0.0,0.0
222,79.0,48,30,0.0,0.0
223,88.0,48,30,0.0,0.0
224,86.0,48,30,0.0,0.0
225,84.0,48,30,0.0,0.0
226,83.0,48,30,0.0,0.0
227,81.0,48,30,0.0,0.0
228,79.0,48,30,0.0,0.0
229,77.0,48,30,0.0,0.0
230,76.0,48,30,0.0,0.0
231,84.0,48,30,0.0,0.0
232,83.0,48,30,0.0,0.0
233,81.0,48,30,0.0,0.0
234,79.0,48,30,0.0,0.0
235,77.0,48,30,0.0,0.0
236,76.0,48,30,0.0,0.0
237,74.0,112,30,0.0,0.0
238,72.0,72,120,0.0,0.0
239,64.0,24,90,1.0,0.0
240,60.0,0,90,1.0,0.0
241,67.0,48,90,1.0,0.0
242,60.0,96,90,1.0,0.0
243,64.0,0,90,1.0,0.0
244,72.0,48,40,0.0,0.0
245,67.0,96,90,1.0,0.0
246,65.0,0,90,1.0,0.0
247,72.0,96,90,0.0,0.0
248,62.0,0,90,1.0,0.0
249,71.0,96,90,0.0,0.0
250,67.0,0,90,1.0,0.0
251,62.0,96,90,1.0,0.0
252,65.0,0,90,1.0,0.0
253,69.0,0,90,0.0,0.0
254,71.0,96,90,0.0,0.0
255,67.0,0,90,1.0,0.0
256,60.0,0,90,1.0,0.0
257,64.0,0,90,1.0,0.0
258,72.0,48,40,0.0,0.0
259,67.0,0,90,1.0,0.0
260,72.0,16,15,0.0,0.0
261,64.0,48,90,1.0,0.0
262,60.0,0,90,1.0,0.0
263,72.0,48,150,0.0,0.0
264,67.0,96,90,1.0,0.0
265,76.0,0,40,0.0,0.0
266,59.0,0,90,1.0,0.0
267,62.0,96,90,1.0,0.0
268,79.0,48,330,0.0,0.0
269,67.0,96,90,1.0,0.0
270,59.0,0,90,1.0,0.0
271,62.0,48,90,1.0,0.0
272,67.0,96,90,1.0,0.0
273,60.0,0,90,1.0,0.0
274,57.0,96,90,1.0,0.0
275,77.0,0,180,0.0,0.0
276,65.0,48,90,1.0,0.0
277,59.0,0,90,1.0,0.0
278,62.0,0,90,1.0,0.0
279,77.0,48,40,0.0,0.0
280,81.0,48,40,0.0,0.0
281,67.0,48,90,1.0,0.0
282,79.0,48,40,0.0,0.0
283,77.0,0,40,0.0,0.0
284,64.0,0,90,1.0,0.0
285,76.0,48,40,0.0,0.0
286,60.0,0,90,1.0,0.0
287,79.0,32,40,0.0,0.0
288,67.0,16,30,1.0,0.0
289,77.0,48,40,0.0,0.0
290,76.0,48,40,0.0,0.0
291,53.0,48,90,1.0,0.0
292,74.0,48,40,0.0,0.0
293,77.0,0,40,0.0,0.0
294,76.0,48,40,0.0,0.0
295,65.0,96,90,1.0,0.0
296,74.0,0,40,0.0,0.0
297,55.0,0,90,1.0,0.0
298,64.0,96,90,1.0,0.0
299,72.0,48,15,0.0,0.0
300,72.0,16,15,0.0,0.0
301,76.0,0,90,0.0,0.0
302,55.0,94,90,1.0,0.0
303,74.0,94,90,0.0,0.0
304,65.0,2,90,1.0,0.0
305,64.0,0,150,0.0,0.0
306,72.0,30,150,0.0,0.0
307,48.0,48,40,1.0,0.0
308,52.0,18,40,1.0,0.0
309,55.0,48,40,1.0,0.0
310,60.0,48,40,1.0,0.0
311,55.0,48,40,1.0,0.0
312,52.0,48,40,1.0,0.0
313,55.0,96,40,1.0,0.0
314,48.0,32,150,1.0,0.0
315,72.0,50,40,0.0,0.0
316,74.0,16,40,0.0,0.0
317,76.0,48,40,0.0,0.0
318,77.0,48,40,0.0,0.0
319,79.0,48,40,0.0,0.0
320,81.0,48,40,0.0,0.0
321,83.0,96,40,0.0,0.0
322,84.0,48,300,0.0,0.0
323,45.0,48,40,1.0,0.0
324,48.0,48,40,1.0,0.0
325,54.0,48,40,1.0,0.0
326,57.0,48,40,1.0,0.0
327,54.0,0,40,1.0,0.0
328,48.0,48,40,1.0,0.0
329,81.0,0,90,0.0,0.0
330,54.0,96,40,1.0,0.0
331,45.0,32,150,1.0,0.0
332,78.0,48,90,0.0,0.0
333,72.0,16,40,0.0,0.0
334,72.0,68,40,0.0,0.0
335,74.0,60,60,0.0,0.0
336,69.0,160,30,0.0,0.0
337,72.0,0,180,0.0,0.0
338,43.0,48,40,1.0,0.0
339,47.0,48,40,1.0,0.0
340,50.0,48,40,1.0,0.0
341,55.0,48,40,1.0,0.0
342,71.0,32,150,0.0,0.0
343,50.0,48,40,1.0,0.0
344,47.0,16,40,1.0,0.0
345,50.0,94,40,1.0,0.0
346,43.0,30,150,1.0,0.0
347,67.0,48,40,0.0,0.0
348,69.0,18,40,0.0,0.0
349,71.0,48,40,0.0,0.0
350,72.0,48,40,0.0,0.0
351,74.0,48,40,0.0,0.0
352,76.0,48,40,0.0,0.0
353,78.0,96,40,0.0,0.0
354,79.0,30,270,0.0,0.0
355,52.0,48,40,1.0,0.0
356,55.0,48,40,1.0,0.0
357,61.0,48,40,1.0,0.0
358,64.0,18,40,1.0,0.0
359,61.0,48,40,1.0,0.0
360,55.0,48,40,1.0,0.0
361,76.0,96,90,0.0,0.0
362,61.0,0,40,1.0,0.0
363,52.0,30,150,1.0,0.0
364,73.0,48,90,0.0,0.0
365,67.0,18,40,0.0,0.0
366,67.0,34,40,0.0,0.0
367,69.0,96,30,0.0,0.0
368,64.0,158,30,0.0,0.0
369,50.0,48,90,1.0,0.0
370,67.0,48,150,0.0,0.0
371,57.0,96,90,1.0,0.0
372,66.0,0,40,0.0,0.0
373,74.0,30,150,0.0,0.0
374,54.0,66,90,1.0,0.0
375,57.0,48,90,1.0,0.0
376,74.0,48,40,0.0,0.0
377,52.0,0,90,1.0,0.0
378,73.0,48,40,0.0,0.0
379,57.0,48,90,1.0,0.0
380,76.0,48,40,0.0,0.0
381,74.0,0,40,0.0,0.0
382,45.0,0,90,1.0,0.0
383,73.0,48,40,0.0,0.0
384,71.0,48,40,0.0,0.0
385,57.0,0,90,1.0,0.0
386,69.0,48,40,0.0,0.0
387,67.0,48,40,0.0,0.0
388,50.0,0,90,1.0,0.0
389,66.0,48,40,0.0,0.0
390,67.0,48,40,0.0,0.0
391,57.0,0,90,1.0,0.0
392,69.0,48,40,0.0,0.0
393,71.0,48,40,0.0,0.0
394,69.0,48,40,0.0,0.0
395,54.0,48,90,1.0,0.0
396,71.0,0,40,0.0,0.0
397,73.0,48,40,0.0,0.0
398,57.0,48,90,1.0,0.0
399,74.0,0,40,0.0,0.0
400,52.0,48,90,1.0,0.0
401,73.0,48,40,0.0,0.0
402,74.0,0,40,0.0,0.0
403,57.0,0,90,1.0,0.0
404,76.0,48,40,0.0,0.0
405,74.0,48,40,0.0,0.0
406,73.0,48,40,0.0,0.0
407,45.0,0,90,1.0,0.0
408,71.0,48,40,0.0,0.0
409,69.0,48,40,0.0,0.0
410,57.0,0,90,1.0,0.0
411,67.0,48,40,0.0,0.0
412,66.0,48,40,0.0,0.0
413,50.0,2,90,1.0,0.0
414,67.0,48,40,0.0,0.0
415,69.0,46,40,0.0,0.0
416,57.0,2,90,1.0,0.0
417,71.0,48,40,0.0,0.0
418,73.0,46,40,0.0,0.0
419,54.0,2,90,1.0,0.0
420,74.0,48,40,0.0,0.0
421,76.0,46,40,0.0,0.0
422,57.0,2,90,1.0,0.0
423,78.0,48,40,0.0,0.0
424,52.0,2,90,1.0,0.0
425,79.0,16,40,0.0,0.0
426,78.0,16,15,0.0,0.0
427,78.0,14,15,0.0,0.0
428,78.0,48,15,0.0,0.0
429,79.0,46,40,0.0,0.0
430,57.0,2,90,1.0,0.0
431,81.0,48,40,0.0,0.0
432,83.0,16,40,0.0,0.0
433,45.0,0,90,1.0,0.0
434,55.0,2,90,1.0,0.0
435,82.0,16,15,0.0,0.0
436,82.0,48,15,0.0,0.0
437,57.0,2,90,1.0,0.0
438,83.0,46,40,0.0,0.0
439,85.0,48,40,0.0,0.0
440,50.0,0,150,1.0,0.0
441,54.0,32,150,1.0,0.0
442,86.0,48,40,0.0,0.0
443,85.0,48,40,0.0,0.0
444,88.0,16,40,0.0,0.0
445,86.0,48,40,0.0,0.0
446,81.0,48,40,0.0,0.0
447,80.0,48,40,0.0,0.0
448,83.0,48,40,0.0,0.0
449,81.0,48,40,0.0,0.0
450,78.0,48,40,0.0,0.0
451,77.0,48,40,0.0,0.0
452,79.0,48,40,0.0,0.0
453,78.0,48,40,0.0,0.0
454,74.0,48,40,0.0,0.0
455,73.0,48,40,0.0,0.0
456,76.0,46,40,0.0,0.0
457,74.0,34,40,0.0,0.0
458,66.0,0,30,1.0,0.0
459,62.0,48,30,1.0,0.0
460,72.0,48,30,0.0,0.0
461,74.0,0,30,0.0,0.0
462,67.0,0,30,1.0,0.0
463,64.0,48,30,1.0,0.0
464,74.0,48,30,0.0,0.0
465,72.0,0,30,0.0,0.0
466,69.0,0,30,1.0,0.0
467,66.0,48,30,1.0,0.0
468,72.0,0,30,0.0,0.0
469,74.0,48,30,0.0,0.0
470,67.0,0,30,1.0,0.0
471,64.0,48,30,1.0,0.0
472,72.0,48,30,0.0,0.0
473,74.0,0,30,0.0,0.0
474,69.0,0,30,1.0,0.0
475,66.0,48,30,1.0,0.0
476,74.0,48,30,0.0,0.0
477,72.0,0,30,0.0,0.0
478,67.0,0,30,1.0,0.0
479,64.0,48,30,1.0,0.0
480,72.0,0,30,0.0,0.0
481,74.0,48,30,0.0,0.0
482,66.0,0,30,1.0,0.0
483,69.0,48,30,1.0,0.0
484,74.0,0,30,0.0,0.0
485,72.0,48,30,0.0,0.0
486,64.0,0,30,1.0,0.0
487,67.0,48,30,1.0,0.0
488,72.0,0,30,0.0,0.0
489,74.0,112,30,0.0,0.0
490,71.0,0,120,1.0,0.0
491,67.0,24,120,1.0,0.0
492,74.0,24,40,0.0,0.0
493,73.0,48,40,0.0,0.0
494,74.0,48,40,0.0,0.0
495,79.0,48,40,0.0,0.0
496,67.0,0,40,1.0,0.0
497,71.0,0,40,1.0,0.0
498,74.0,48,40,0.0,0.0
499,83.0,48,40,0.0,0.0
500,74.0,48,40,0.0,0.0
501,86.0,48,40,0.0,0.0
502,74.0,48,40,0.0,0.0
503,83.0,48,40,0.0,0.0
504,74.0,48,40,0.0,0.0
505,81.0,48,40,0.0,0.0
506,74.0,48,40,0.0,0.0
507,79.0,46,40,0.0,0.0
508,74.0,34,40,0.0,0.0
509,69.0,0,30,1.0,0.0
510,66.0,48,30,1.0,0.0
511,74.0,0,30,0.0,0.0
512,72.0,48,30,0.0,0.0
513,67.0,0,30,1.0,0.0
514,64.0,48,30,1.0,0.0
515,72.0,0,30,0.0,0.0
516,74.0,48,30,0.0,0.0
517,62.0,0,30,1.0,0.0
518,66.0,48,30,1.0,0.0
519,72.0,48,30,0.0,0.0
520,74.0,0,30,0.0,0.0
521,67.0,0,30,1.0,0.0
522,64.0,48,30,1.0,0.0
523,72.0,0,30,0.0,0.0
524,74.0,48,30,0.0,0.0
525,69.0,0,30,1.0,0.0
526,66.0,48,30,1.0,0.0
527,74.0,0,30,0.0,0.0
528,72.0,48,30,0.0,0.0
529,64.0,48,30,1.0,0.0
530,67.0,0,30,1.0,0.0
531,74.0,0,30,0.0,0.0
532,72.0,48,30,0.0,0.0
533,66.0,0,30,1.0,0.0
534,69.0,48,30,1.0,0.0
535,74.0,0,30,0.0,0.0
536,72.0,48,30,0.0,0.0
537,62.0,0,30,1.0,0.0
538,66.0,48,30,1.0,0.0
539,72.0,0,30,0.0,0.0
540,74.0,112,30,0.0,0.0
541,67.0,0,120,1.0,0.0
542,71.0,24,120,1.0,0.0
543,74.0,24,40,0.0,0.0
544,73.0,48,40,0.0,0.0
545,74.0,48,40,0.0,0.0
546,67.0,0,40,1.0,0.0
547,79.0,0,40,0.0,0.0
548,71.0,48,40,1.0,0.0
549,74.0,48,40,0.0,0.0
550,83.0,48,40,0.0,0.0
551,74.0,48,40,0.0,0.0
552,86.0,48,40,0.0,0.0
553,74.0,48,40,0.0,0.0
554,83.0,48,40,0.0,0.0
555,74.0,48,40,0.0,0.0
556,81.0,48,40,0.0,0.0
557,74.0,48,40,0.0,0.0
558,79.0,46,40,0.0,0.0
559,74.0,34,40,0.0,0.0
560,68.0,0,30,1.0,0.0
561,71.0,48,30,1.0,0.0
562,76.0,0,30,0.0,0.0
563,74.0,48,30,0.0,0.0
564,66.0,48,30,1.0,0.0
565,69.0,0,30,1.0,0.0
566,74.0,0,30,0.0,0.0
567,76.0,48,30,0.0,0.0
568,64.0,0,30,1.0,0.0
569,68.0,48,30,1.0,0.0
570,74.0,48,30,0.0,0.0
571,76.0,0,30,0.0,0.0
572,69.0,48,30,1.0,0.0
573,66.0,0,30,1.0,0.0
574,76.0,48,30,0.0,0.0
575,74.0,0,30,0.0,0.0
576,71.0,0,30,1.0,0.0
577,68.0,48,30,1.0,0.0
578,74.0,48,30,0.0,0.0
579,76.0,0,30,0.0,0.0
580,69.0,0,30,1.0,0.0
581,66.0,48,30,1.0,0.0
582,76.0,0,30,0.0,0.0
583,74.0,48,30,0.0,0.0
584,68.0,48,30,1.0,0.0
585,71.0,0,30,1.0,0.0
586,74.0,0,30,0.0,0.0
587,76.0,48,30,0.0,0.0
588,69.0,0,30,1.0,0.0
589,66.0,48,30,1.0,0.0
590,74.0,64,30,0.0,0.0
591,76.0,0,30,0.0,0.0
592,72.0,48,40,1.0,0.0
593,69.0,0,40,1.0,0.0
594,76.0,48,40,0.0,0.0
595,78.0,48,40,0.0,0.0
596,80.0,48,40,0.0,0.0
597,81.0,0,40,0.0,0.0
598,69.0,0,40,1.0,0.0
599,72.0,48,40,1.0,0.0
600,83.0,48,40,0.0,0.0
601,84.0,48,40,0.0,0.0
602,86.0,48,40,0.0,0.0
603,88.0,48,40,0.0,0.0
604,87.0,48,40,0.0,0.0
605,89.0,48,40,0.0,0.0
606,88.0,48,40,0.0,0.0
607,66.0,48,180,1.0,0.0
608,86.0,48,40,0.0,0.0
609,84.0,48,40,0.0,0.0
610,83.0,48,40,0.0,0.0
611,82.0,0,40,0.0,0.0
612,84.0,48,40,0.0,0.0
613,67.0,32,150,1.0,0.0
614,83.0,48,40,0.0,0.0
615,88.0,16,40,0.0,0.0
616,86.0,48,40,0.0,0.0
617,84.0,48,40,0.0,0.0
618,64.0,32,150,1.0,0.0
619,83.0,48,40,0.0,0.0
620,81.0,16,40,0.0,0.0
621,79.0,48,40,0.0,0.0
622,60.0,32,150,1.0,0.0
623,83.0,48,40,0.0,0.0
624,81.0,48,40,0.0,0.0
625,86.0,16,40,0.0,0.0
626,84.0,48,40,0.0,0.0
627,83.0,48,40,0.0,0.0
628,62.0,32,150,1.0,0.0
629,81.0,48,40,0.0,0.0
630,79.0,16,40,0.0,0.0
631,78.0,46,40,0.0,0.0
632,59.0,30,150,1.0,0.0
633,79.0,48,40,0.0,0.0
634,80.0,48,40,0.0,0.0
635,81.0,18,40,0.0,0.0
636,82.0,48,40,0.0,0.0
637,83.0,48,40,0.0,0.0
638,56.0,30,150,1.0,0.0
639,77.0,48,40,0.0,0.0
640,76.0,18,40,0.0,0.0
641,74.0,48,40,0.0,0.0
642,57.0,30,150,1.0,0.0
643,73.0,48,40,0.0,0.0
644,76.0,48,40,0.0,0.0
645,78.0,18,40,0.0,0.0
646,80.0,48,40,0.0,0.0
647,81.0,48,40,0.0,0.0
648,54.0,30,150,1.0,0.0
649,76.0,48,40,0.0,0.0
650,74.0,18,40,0.0,0.0
651,72.0,48,40,0.0,0.0
652,70.0,48,40,0.0,0.0
653,55.0,30,150,1.0,0.0
654,71.0,48,40,0.0,0.0
655,76.0,18,40,0.0,0.0
656,74.0,48,40,0.0,0.0
657,52.0,30,150,1.0,0.0
658,72.0,48,40,0.0,0.0
659,71.0,48,40,0.0,0.0
660,69.0,18,40,0.0,0.0
661,67.0,48,40,0.0,0.0
662,48.0,30,150,1.0,0.0
663,71.0,48,40,0.0,0.0
664,69.0,48,40,0.0,0.0
665,74.0,18,40,0.0,0.0
666,72.0,48,40,0.0,0.0
667,50.0,30,150,1.0,0.0
668,71.0,48,40,0.0,0.0
669,69.0,48,40,0.0,0.0
670,67.0,18,40,0.0,0.0
671,66.0,96,40,0.0,0.0
672,43.0,66,90,1.0,0.0
673,67.0,30,150,0.0,0.0
674,47.0,96,90,1.0,0.0
675,50.0,96,90,1.0,0.0
676,48.0,50,90,1.0,0.0
677,62.0,0,40,0.0,0.0
678,67.0,0,40,0.0,0.0
679,47.0,96,90,1.0,0.0
680,59.0,46,40,0.0,0.0
681,45.0,50,90,1.0,0.0
682,47.0,96,90,1.0,0.0
683,67.0,0,40,0.0,0.0
684,59.0,46,40,0.0,0.0
685,62.0,0,40,0.0,0.0
686,43.0,96,90,1.0,0.0
687,57.0,0,330,0.0,0.0
688,66.0,30,270,0.0,0.0
689,48.0,96,90,1.0,0.0
690,63.0,46,330,0.0,0.0
691,43.0,66,90,1.0,0.0
692,48.0,50,90,1.0,0.0
693,67.0,0,90,0.0,0.0
694,43.0,96,90,1.0,0.0
695,69.0,0,150,0.0,0.0
696,48.0,66,90,1.0,0.0
697,66.0,0,150,0.0,0.0
698,63.0,30,150,0.0,0.0
699,43.0,96,90,1.0,0.0
700,48.0,48,90,1.0,0.0
701,69.0,18,150,0.0,0.0
702,66.0,30,150,0.0,0.0
703,63.0,0,150,0.0,0.0
704,43.0,96,90,1.0,0.0
705,71.0,0,40,0.0,0.0
706,62.0,30,150,0.0,0.0
707,47.0,66,90,1.0,0.0
708,67.0,0,150,0.0,0.0
709,43.0,96,90,1.0,0.0
710,50.0,96,90,1.0,0.0
711,48.0,96,90,1.0,0.0
712,67.0,70,120,0.0,0.0
713,59.0,0,120,0.0,0.0
714,47.0,26,90,1.0,0.0
715,62.0,0,120,0.0,0.0
716,45.0,50,90,1.0,0.0
717,47.0,96,90,1.0,0.0
718,62.0,0,40,0.0,0.0
719,67.0,0,40,0.0,0.0
720,59.0,46,40,0.0,0.0
721,43.0,96,90,1.0,0.0
722,57.0,0,330,0.0,0.0
723,63.0,46,330,0.0,0.0
724,48.0,96,90,1.0,0.0
725,66.0,30,270,0.0,0.0
726,43.0,66,90,1.0,0.0
727,48.0,50,90,1.0,0.0
728,43.0,96,90,1.0,0.0
729,67.0,0,90,0.0,0.0
730,63.0,30,150,0.0,0.0
731,66.0,0,150,0.0,0.0
732,48.0,66,90,1.0,0.0
733,69.0,0,150,0.0,0.0
734,43.0,96,90,1.0,0.0
735,48.0,48,90,1.0,0.0
736,63.0,30,150,0.0,0.0
737,66.0,0,150,0.0,0.0
738,69.0,18,150,0.0,0.0
739,43.0,96,90,1.0,0.0
740,71.0,0,40,0.0,0.0
741,62.0,30,150,0.0,0.0
742,47.0,66,90,1.0,0.0
743,67.0,0,150,0.0,0.0
744,43.0,96,90,1.0,0.0
745,47.0,96,90,1.0,0.0
746,43.0,96,90,1.0,0.0
747,48.0,66,90,1.0,0.0
748,69.0,0,150,0.0,0.0
749,66.0,0,150,0.0,0.0
750,63.0,30,150,0.0,0.0
751,43.0,96,90,1.0,0.0
752,48.0,96,90,1.0,0.0
753,43.0,96,90,1.0,0.0
754,50.0,66,90,1.0,0.0
755,71.0,0,150,0.0,0.0
756,68.0,30,150,0.0,0.0
757,65.0,0,150,0.0,0.0
758,43.0,96,90,1.0,0.0
759,50.0,96,90,1.0,0.0
760,43.0,96,90,1.0,0.0
761,52.0,66,90,1.0,0.0
762,67.0,0,150,0.0,0.0
763,72.0,30,150,0.0,0.0
764,43.0,96,90,1.0,0.0
765,52.0,96,90,1.0,0.0
766,43.0,96,90,1.0,0.0
767,74.0,30,150,0.0,0.0
768,53.0,66,90,1.0,0.0
769,71.0,0,150,0.0,0.0
770,43.0,96,90,1.0,0.0
771,54.0,96,90,1.0,0.0
772,43.0,96,90,1.0,0.0
773,55.0,96,90,1.0,0.0
774,43.0,96,90,1.0,0.0
775,74.0,0,120,0.0,0.0
776,83.0,0,120,0.0,0.0
777,71.0,70,120,0.0,0.0
778,56.0,26,90,1.0,0.0
779,43.0,50,90,1.0,0.0
780,55.0,96,90,1.0,0.0
781,83.0,0,40,0.0,0.0
782,74.0,0,40,0.0,0.0
783,71.0,46,40,0.0,0.0
784,43.0,96,90,1.0,0.0
785,54.0,96,90,1.0,0.0
786,43.0,96,90,1.0,0.0
787,55.0,96,90,1.0,0.0
788,43.0,96,90,1.0,0.0
789,56.0,26,90,1.0,0.0
790,83.0,0,120,0.0,0.0
791,86.0,70,120,0.0,0.0
792,43.0,50,90,1.0,0.0
793,55.0,96,90,1.0,0.0
794,86.0,46,40,0.0,0.0
795,83.0,0,40,0.0,0.0
796,43.0,96,90,1.0,0.0
797,54.0,96,90,1.0,0.0
798,43.0,96,90,1.0,0.0
799,55.0,96,90,1.0,0.0
800,43.0,96,90,1.0,0.0
801,57.0,96,90,1.0,0.0
802,43.0,96,90,1.0,0.0
803,55.0,96,90,1.0,0.0
804,43.0,96,90,1.0,0.0
805,53.0,96,90,1.0,0.0
806,43.0,50,90,1.0,0.0
807,48.0,0,90,1.0,0.0
808,52.0,96,90,1.0,0.0
809,72.0,46,40,0.0,0.0
810,53.0,96,90,1.0,0.0
811,64.0,66,90,0.0,0.0
812,72.0,30,150,0.0,0.0
813,67.0,96,90,0.0,0.0
814,62.0,2,90,1.0,0.0
815,65.0,0,90,1.0,0.0
816,72.0,94,90,0.0,0.0
817,67.0,2,90,1.0,0.0
818,71.0,94,90,0.0,0.0
819,65.0,0,90,1.0,0.0
820,62.0,2,90,1.0,0.0
821,69.0,94,90,0.0,0.0
822,71.0,94,90,0.0,0.0
823,67.0,2,90,1.0,0.0
824,60.0,0,90,1.0,0.0
825,64.0,2,90,1.0,0.0
826,72.0,48,40,0.0,0.0
827,72.0,16,40,0.0,0.0
828,67.0,2,90,1.0,0.0
829,72.0,30,15,0.0,0.0
830,72.0,94,15,0.0,0.0
831,60.0,0,90,1.0,0.0
832,64.0,50,90,1.0,0.0
833,67.0,2,90,1.0,0.0
834,76.0,94,40,0.0,0.0
835,62.0,96,90,1.0,0.0
836,59.0,0,90,1.0,0.0
837,79.0,46,330,0.0,0.0
838,67.0,96,90,1.0,0.0
839,59.0,0,90,1.0,0.0
840,62.0,50,90,1.0,0.0
841,67.0,96,90,1.0,0.0
842,57.0,0,90,1.0,0.0
843,77.0,96,90,0.0,0.0
844,60.0,0,90,1.0,0.0
845,65.0,66,90,1.0,0.0
846,81.0,30,150,0.0,0.0
847,59.0,0,90,1.0,0.0
848,62.0,48,90,1.0,0.0
849,79.0,48,40,0.0,0.0
850,67.0,96,90,1.0,0.0
851,77.0,0,40,0.0,0.0
852,60.0,96,90,1.0,0.0
853,76.0,0,90,0.0,0.0
854,64.0,66,90,1.0,0.0
855,79.0,30,150,0.0,0.0
856,55.0,48,90,1.0,0.0
857,52.0,0,90,1.0,0.0
858,60.0,0,90,1.0,0.0
859,77.0,48,40,0.0,0.0
860,76.0,48,40,0.0,0.0
861,53.0,0,90,1.0,0.0
862,74.0,48,40,0.0,0.0
863,76.0,48,40,0.0,0.0
864,57.0,48,90,1.0,0.0
865,77.0,48,40,0.0,0.0
866,76.0,0,40,0.0,0.0
867,62.0,48,90,1.0,0.0
868,79.0,48,40,0.0,0.0
869,77.0,0,40,0.0,0.0
870,65.0,0,90,1.0,0.0
871,76.0,2,40,0.0,0.0
872,74.0,162,40,0.0,0.0
873,55.0,64,270,1.0,0.0
874,72.0,30,150,0.0,0.0
875,64.0,34,90,1.0,0.0
876,60.0,0,30,1.0,0.0
877,71.0,32,30,0.0,0.0
878,67.0,88,30,0.0,0.0
879,67.0,56,20,0.0,0.0
880,60.0,0,90,1.0,0.0
881,64.0,96,90,1.0,0.0
882,72.0,14,60,0.0,0.0
883,67.0,50,90,1.0,0.0
884,64.0,0,90,1.0,0.0
885,60.0,96,90,1.0,0.0
886,72.0,46,40,0.0,0.0
887,67.0,98,90,1.0,0.0
888,72.0,96,90,0.0,0.0
889,62.0,0,90,1.0,0.0
890,65.0,0,90,1.0,0.0
891,67.0,0,90,1.0,0.0
892,71.0,96,90,0.0,0.0
893,65.0,94,90,1.0,0.0
894,62.0,0,90,1.0,0.0
895,69.0,0,90,0.0,0.0
896,71.0,2,90,0.0,0.0
897,67.0,94,90,1.0,0.0
898,60.0,0,90,1.0,0.0
899,64.0,46,90,1.0,0.0
900,72.0,2,40,0.0,0.0
901,72.0,18,40,0.0,0.0
902,67.0,32,90,1.0,0.0
903,72.0,30,15,0.0,0.0
904,72.0,48,30,0.0,0.0
905,60.0,0,90,1.0,0.0
906,64.0,32,90,1.0,0.0
907,74.0,16,30,0.0,0.0
908,76.0,48,30,0.0,0.0
909,67.0,96,90,1.0,0.0
910,77.0,16,30,0.0,0.0
911,62.0,0,90,1.0,0.0
912,59.0,0,90,1.0,0.0
913,78.0,96,90,0.0,0.0
914,67.0,64,90,1.0,0.0
915,79.0,32,150,0.0,0.0
916,59.0,96,90,1.0,0.0
917,62.0,0,90,1.0,0.0
918,79.0,0,90,0.0,0.0
919,67.0,48,90,1.0,0.0
920,77.0,2,90,0.0,0.0
921,57.0,0,90,1.0,0.0
922,60.0,24,90,1.0,0.0
923,79.0,24,20,0.0,0.0
924,81.0,22,20,0.0,0.0
925,79.0,0,20,0.0,0.0
926,65.0,96,90,1.0,0.0
927,76.0,24,20,0.0,0.0
928,77.0,48,20,0.0,0.0
929,81.0,0,150,0.0,0.0
930,59.0,0,90,1.0,0.0
931,62.0,48,90,1.0,0.0
932,79.0,48,40,0.0,0.0
933,67.0,32,90,1.0,0.0
934,77.0,0,40,0.0,0.0
935,60.0,0,90,1.0,0.0
936,64.0,0,90,1.0,0.0
937,76.0,32,30,0.0,0.0
938,75.0,32,30,0.0,0.0
939,76.0,32,30,0.0,0.0
940,67.0,0,30,1.0,0.0
941,79.0,32,30,0.0,0.0
942,77.0,32,30,0.0,0.0
943,76.0,32,30,0.0,0.0
944,74.0,32,30,0.0,0.0
945,53.0,2,90,1.0,0.0
946,73.0,30,30,0.0,0.0
947,74.0,32,30,0.0,0.0
948,65.0,2,90,1.0,0.0
949,77.0,32,30,0.0,0.0
950,76.0,30,30,0.0,0.0
951,74.0,94,30,0.0,0.0
952,55.0,2,90,1.0,0.0
953,72.0,48,40,0.0,0.0
954,72.0,16,40,0.0,0.0
955,64.0,2,90,1.0,0.0
956,72.0,30,15,0.0,0.0
957,55.0,2,90,1.0,0.0
958,76.0,94,90,0.0,0.0
959,65.0,2,90,1.0,0.0
960,74.0,94,90,0.0,0.0
961,72.0,30,150,0.0,0.0
962,64.0,0,150,0.0,0.0
963,48.0,66,90,1.0,0.0
964,60.0,34,90,1.0,0.0
965,48.0,96,30,1.0,0.0
966,67.0,96,30,0.0,0.0
967,75.0,0,30,0.0,0.0
968,48.0,0,30,1.0,0.0
969,63.0,0,30,0.0,0.0
970,55.0,224,30,1.0,0.0
971,63.0,16,270,0.0,0.0
972,55.0,0,270,1.0,0.0
973,48.0,78,150,1.0,0.0
974,75.0,0,150,0.0,0.0
975,50.0,18,40,1.0,0.0
976,74.0,0,40,0.0,0.0
977,72.0,0,30,0.0,0.0
978,51.0,46,30,1.0,0.0
979,50.0,32,30,1.0,0.0
980,53.0,32,30,1.0,0.0
981,56.0,32,30,1.0,0.0
982,62.0,32,30,0.0,0.0
983,65.0,32,30,0.0,0.0
984,71.0,32,30,0.0,0.0
985,62.0,32,30,1.0,0.0
986,65.0,32,30,1.0,0.0
987,68.0,32,30,1.0,0.0
988,71.0,32,30,0.0,0.0
989,74.0,23,30,0.0,0.0
990,77.0,43,20,0.0,0.0
991,50.0,0,30,1.0,0.0
992,59.0,0,30,1.0,0.0
993,77.0,224,30,0.0,0.0
994,65.0,0,30,0.0,0.0
995,59.0,16,270,1.0,0.0
996,50.0,0,150,1.0,0.0
997,77.0,78,150,0.0,0.0
998,65.0,0,270,0.0,0.0
999,75.0,0,40,0.0,0.0
1000,51.0,18,40,1.0,0.0
1001,74.0,0,30,0.0,0.0
1002,53.0,46,30,1.0,0.0
1003,51.0,32,30,1.0,0.0
1004,55.0,32,30,1.0,0.0
1005,60.0,32,30,1.0,0.0
1006,63.0,32,30,0.0,0.0
1007,67.0,32,30,0.0,0.0
1008,72.0,32,30,0.0,0.0
1009,63.0,32,30,1.0,0.0
1010,67.0,32,30,1.0,0.0
1011,72.0,32,30,1.0,0.0
1012,75.0,32,30,0.0,0.0
1013,79.0,23,30,0.0,0.0
1014,84.0,43,20,0.0,0.0
1015,73.0,0,30,0.0,0.0
1016,85.0,0,30,0.0,0.0
1017,67.0,0,30,1.0,0.0
1018,64.0,224,30,1.0,0.0
1019,67.0,0,150,1.0,0.0
1020,64.0,78,150,1.0,0.0
1021,85.0,0,150,0.0,0.0
1022,73.0,0,150,0.0,0.0
1023,68.0,48,40,1.0,0.0
1024,84.0,0,40,0.0,0.0
1025,65.0,0,40,1.0,0.0
1026,82.0,48,40,0.0,0.0
1027,70.0,0,40,1.0,0.0
1028,67.0,0,40,1.0,0.0
1029,82.0,48,40,0.0,0.0
1030,68.0,30,150,1.0,0.0
1031,65.0,0,150,1.0,0.0
1032,80.0,48,40,0.0,0.0
1033,80.0,18,40,0.0,0.0
1034,79.0,48,40,0.0,0.0
1035,79.0,48,40,0.0,0.0
1036,77.0,48,40,0.0,0.0
1037,77.0,48,40,0.0,0.0
1038,75.0,34,40,0.0,0.0
1039,75.0,48,40,0.0,0.0
1040,53.0,14,30,1.0,0.0
1041,56.0,0,30,1.0,0.0
1042,74.0,48,40,0.0,0.0
1043,74.0,48,40,0.0,0.0
1044,75.0,34,40,0.0,0.0
1045,75.0,48,40,0.0,0.0
1046,54.0,0,30,1.0,0.0
1047,57.0,14,30,1.0,0.0
1048,74.0,48,40,0.0,0.0
1049,74.0,48,40,0.0,0.0
1050,72.0,34,40,0.0,0.0
1051,55.0,0,30,1.0,0.0
1052,62.0,14,30,1.0,0.0
1053,72.0,48,40,0.0,0.0
1054,71.0,48,40,0.0,0.0
1055,69.0,48,40,0.0,0.0
1056,67.0,48,40,0.0,0.0
1057,66.0,48,40,0.0,0.0
1058,67.0,48,40,0.0,0.0
1059,68.0,34,40,0.0,0.0
1060,67.0,48,30,0.0,0.0
1061,75.0,162,90,0.0,0.0
1062,63.0,0,90,0.0,0.0
1063,55.0,62,30,1.0,0.0
1064,48.0,0,30,1.0,0.0
1065,55.0,0,270,1.0,0.0
1066,48.0,78,150,1.0,0.0
1067,63.0,16,270,0.0,0.0
1068,75.0,0,150,0.0,0.0
1069,50.0,18,40,1.0,0.0
1070,74.0,0,40,0.0,0.0
1071,72.0,0,30,0.0,0.0
1072,51.0,46,30,1.0,0.0
1073,50.0,32,30,1.0,0.0
1074,53.0,32,30,1.0,0.0
1075,58.0,32,30,1.0,0.0
1076,62.0,32,30,0.0,0.0
1077,65.0,32,30,0.0,0.0
1078,70.0,32,30,0.0,0.0
1079,62.0,32,30,1.0,0.0
1080,65.0,32,30,1.0,0.0
1081,70.0,32,30,1.0,0.0
1082,74.0,32,30,0.0,0.0
1083,77.0,32,30,0.0,0.0
1084,80.0,34,30,0.0,0.0
1085,58.0,0,30,1.0,0.0
1086,84.0,0,30,0.0,0.0
1087,46.0,224,30,1.0,0.0
1088,80.0,0,30,0.0,0.0
1089,58.0,30,270,1.0,0.0
1090,46.0,32,150,1.0,0.0
1091,84.0,0,180,0.0,0.0
1092,80.0,46,180,0.0,0.0
1093,48.0,2,40,1.0,0.0
1094,82.0,0,40,0.0,0.0
1095,79.0,16,40,0.0,0.0
1096,50.0,0,40,1.0,0.0
1097,80.0,0,40,0.0,0.0
1098,77.0,32,40,0.0,0.0
1099,51.0,32,30,1.0,0.0
1100,55.0,32,30,1.0,0.0
1101,58.0,32,30,1.0,0.0
1102,67.0,32,30,0.0,0.0
1103,70.0,32,30,0.0,0.0
1104,75.0,32,30,0.0,0.0
1105,63.0,32,30,1.0,0.0
1106,67.0,32,30,1.0,0.0
1107,70.0,32,30,1.0,0.0
1108,79.0,32,30,0.0,0.0
1109,82.0,23,30,0.0,0.0
1110,87.0,137,20,0.0,0.0
1111,55.0,0,150,1.0,0.0
1112,58.0,0,150,1.0,0.0
1113,63.0,30,150,1.0,0.0
1114,87.0,32,30,0.0,0.0
1115,86.0,2,30,0.0,0.0
1116,84.0,32,30,0.0,0.0
1117,82.0,32,30,0.0,0.0
1118,80.0,32,30,0.0,0.0
1119,79.0,32,30,0.0,0.0
1120,77.0,32,30,0.0,0.0
1121,75.0,32,30,0.0,0.0
1122,74.0,34,30,0.0,0.0
1123,72.0,94,30,0.0,0.0
1124,56.0,0,150,1.0,0.0
1125,60.0,0,150,1.0,0.0
1126,63.0,0,150,1.0,0.0
1127,65.0,30,150,1.0,0.0
1128,84.0,32,30,0.0,0.0
1129,82.0,2,30,0.0,0.0
1130,80.0,32,30,0.0,0.0
1131,79.0,32,30,0.0,0.0
1132,77.0,32,30,0.0,0.0
1133,75.0,32,30,0.0,0.0
1134,74.0,32,30,0.0,0.0
1135,75.0,32,30,0.0,0.0
1136,72.0,34,30,0.0,0.0
1137,63.0,96,30,1.0,0.0
1138,70.0,0,30,0.0,0.0
1139,58.0,0,30,1.0,0.0
1140,67.0,0,30,1.0,0.0
1141,75.0,0,30,0.0,0.0
1142,82.0,0,30,0.0,0.0
1143,79.0,0,30,0.0,0.0
1144,70.0,96,30,0.0,0.0
1145,46.0,0,30,1.0,0.0
1146,58.0,96,30,1.0,0.0
1147,74.0,112,30,0.0,0.0
1148,68.0,0,30,0.0,0.0
1149,65.0,0,30,0.0,0.0
1150,70.0,0,30,0.0,0.0
1151,67.0,0,150,0.0,0.0
1152,70.0,32,150,0.0,0.0
1153,75.0,0,150,0.0,0.0
1154,51.0,48,40,1.0,0.0
1155,58.0,48,40,1.0,0.0
1156,55.0,16,40,1.0,0.0
1157,58.0,48,40,1.0,0.0
1158,46.0,48,40,1.0,0.0
1159,58.0,48,40,1.0,0.0
1160,55.0,48,40,1.0,0.0
1161,58.0,48,40,1.0,0.0
1162,51.0,48,40,1.0,0.0
1163,58.0,32,40,1.0,0.0
1164,55.0,48,40,1.0,0.0
1165,79.0,16,30,0.0,0.0
1166,58.0,32,40,1.0,0.0
1167,79.0,16,30,0.0,0.0
1168,46.0,48,40,1.0,0.0
1169,58.0,32,40,1.0,0.0
1170,79.0,16,30,0.0,0.0
1171,55.0,48,40,1.0,0.0
1172,58.0,48,40,1.0,0.0
1173,82.0,2,150,0.0,0.0
1174,53.0,48,40,1.0,0.0
1175,58.0,46,40,1.0,0.0
1176,56.0,46,40,1.0,0.0
1177,58.0,48,40,1.0,0.0
1178,80.0,2,40,0.0,0.0
1179,77.0,48,40,0.0,0.0
1180,46.0,0,40,1.0,0.0
1181,58.0,48,40,1.0,0.0
1182,56.0,48,40,1.0,0.0
1183,58.0,48,40,1.0,0.0
1184,50.0,48,40,1.0,0.0
1185,58.0,32,40,1.0,0.0
1186,56.0,48,40,1.0,0.0
1187,70.0,16,30,0.0,0.0
1188,58.0,32,40,1.0,0.0
1189,46.0,48,40,1.0,0.0
1190,70.0,16,30,0.0,0.0
1191,58.0,32,40,1.0,0.0
1192,56.0,46,40,1.0,0.0
1193,70.0,16,30,0.0,0.0
1194,58.0,26,40,1.0,0.0
1195,70.0,24,20,0.0,0.0
1196,51.0,48,40,1.0,0.0
1197,77.0,2,180,0.0,0.0
1198,58.0,48,40,1.0,0.0
1199,55.0,46,40,1.0,0.0
1200,58.0,32,40,1.0,0.0
1201,46.0,48,40,1.0,0.0
1202,75.0,16,30,0.0,0.0
1203,58.0,48,40,1.0,0.0
1204,55.0,48,40,1.0,0.0
1205,58.0,48,40,1.0,0.0
1206,51.0,46,40,1.0,0.0
1207,58.0,46,40,1.0,0.0
1208,79.0,2,40,0.0,0.0
1209,78.0,2,40,0.0,0.0
1210,55.0,46,40,1.0,0.0
1211,58.0,46,40,1.0,0.0
1212,79.0,2,40,0.0,0.0
1213,78.0,2,40,0.0,0.0
1214,46.0,46,40,1.0,0.0
1215,58.0,46,40,1.0,0.0
1216,79.0,2,40,0.0,0.0
1217,80.0,2,40,0.0,0.0
1218,55.0,46,40,1.0,0.0
1219,58.0,48,40,1.0,0.0
1220,79.0,2,40,0.0,0.0
1221,53.0,48,40,1.0,0.0
1222,82.0,2,150,0.0,0.0
1223,58.0,46,40,1.0,0.0
1224,56.0,46,40,1.0,0.0
1225,80.0,2,40,0.0,0.0
1226,58.0,48,40,1.0,0.0
1227,46.0,48,40,1.0,0.0
1228,77.0,0,40,0.0,0.0
1229,58.0,48,40,1.0,0.0
1230,56.0,48,40,1.0,0.0
1231,58.0,48,40,1.0,0.0
1232,50.0,46,40,1.0,0.0
1233,70.0,2,40,0.0,0.0
1234,58.0,46,40,1.0,0.0
1235,56.0,46,40,1.0,0.0
1236,69.0,2,40,0.0,0.0
1237,58.0,46,40,1.0,0.0
1238,70.0,2,40,0.0,0.0
1239,46.0,46,40,1.0,0.0
1240,69.0,2,40,0.0,0.0
1241,58.0,46,40,1.0,0.0
1242,70.0,2,40,0.0,0.0
1243,69.0,2,40,0.0,0.0
1244,56.0,46,40,1.0,0.0
1245,70.0,26,40,0.0,0.0
1246,58.0,0,40,1.0,0.0
1247,49.0,48,40,1.0,0.0
1248,70.0,24,20,0.0,0.0
1249,77.0,2,180,0.0,0.0
1250,58.0,48,40,1.0,0.0
1251,55.0,46,40,1.0,0.0
1252,58.0,32,40,1.0,0.0
1253,76.0,16,30,0.0,0.0
1254,48.0,48,40,1.0,0.0
1255,58.0,48,40,1.0,0.0
1256,55.0,48,40,1.0,0.0
1257,58.0,48,40,1.0,0.0
1258,52.0,46,40,1.0,0.0
1259,58.0,46,40,1.0,0.0
1260,72.0,2,40,0.0,0.0
1261,71.0,2,40,0.0,0.0
1262,55.0,46,40,1.0,0.0
1263,72.0,2,40,0.0,0.0
1264,58.0,46,40,1.0,0.0
1265,71.0,2,40,0.0,0.0
1266,48.0,46,40,1.0,0.0
1267,72.0,2,40,0.0,0.0
1268,58.0,46,40,1.0,0.0
1269,71.0,2,40,0.0,0.0
1270,55.0,46,40,1.0,0.0
1271,58.0,0,40,1.0,0.0
1272,72.0,26,40,0.0,0.0
1273,51.0,50,40,1.0,0.0
1274,72.0,22,20,0.0,0.0
1275,79.0,2,180,0.0,0.0
1276,60.0,48,40,1.0,0.0
1277,57.0,46,40,1.0,0.0
1278,60.0,32,40,1.0,0.0
1279,50.0,48,40,1.0,0.0
1280,78.0,16,30,0.0,0.0
1281,60.0,48,40,1.0,0.0
1282,57.0,48,40,1.0,0.0
1283,60.0,48,40,1.0,0.0
1284,54.0,46,40,1.0,0.0
1285,74.0,2,40,0.0,0.0
1286,60.0,46,40,1.0,0.0
1287,73.0,2,40,0.0,0.0
1288,57.0,46,40,1.0,0.0
1289,60.0,46,40,1.0,0.0
1290,74.0,2,40,0.0,0.0
1291,50.0,46,40,1.0,0.0
1292,73.0,2,40,0.0,0.0
1293,74.0,2,40,0.0,0.0
1294,60.0,46,40,1.0,0.0
1295,73.0,2,40,0.0,0.0
1296,57.0,46,40,1.0,0.0
1297,74.0,0,40,0.0,0.0
1298,60.0,50,40,1.0,0.0
1299,81.0,2,90,0.0,0.0
1300,55.0,46,40,1.0,0.0
1301,62.0,48,40,1.0,0.0
1302,59.0,48,40,1.0,0.0
1303,79.0,32,150,0.0,0.0
1304,62.0,48,40,1.0,0.0
1305,53.0,16,40,1.0,0.0
1306,62.0,46,40,1.0,0.0
1307,59.0,46,40,1.0,0.0
1308,81.0,2,40,0.0,0.0
1309,83.0,2,40,0.0,0.0
1310,62.0,46,40,1.0,0.0
1311,51.0,46,40,1.0,0.0
1312,84.0,2,40,0.0,0.0
1313,86.0,2,40,0.0,0.0
1314,60.0,46,40,1.0,0.0
1315,55.0,46,40,1.0,0.0
1316,87.0,2,40,0.0,0.0
1317,60.0,46,40,1.0,0.0
1318,86.0,2,40,0.0,0.0
1319,48.0,46,40,1.0,0.0
1320,89.0,2,40,0.0,0.0
1321,60.0,46,40,1.0,0.0
1322,87.0,2,40,0.0,0.0
1323,86.0,2,40,0.0,0.0
1324,55.0,46,40,1.0,0.0
1325,84.0,0,40,0.0,0.0
1326,60.0,32,40,1.0,0.0
1327,83.0,2,30,0.0,0.0
1328,43.0,0,30,1.0,0.0
1329,47.0,0,30,1.0,0.0
1330,55.0,30,30,1.0,0.0
1331,50.0,0,30,1.0,0.0
1332,86.0,32,30,0.0,0.0
1333,84.0,32,30,0.0,0.0
1334,83.0,32,30,0.0,0.0
1335,81.0,32,30,0.0,0.0
1336,79.0,32,30,0.0,0.0
1337,77.0,32,30,0.0,0.0
1338,80.0,32,30,0.0,0.0
1339,79.0,32,30,0.0,0.0
1340,77.0,32,30,0.0,0.0
1341,75.0,32,30,0.0,0.0
1342,74.0,34,30,0.0,0.0
1343,75.0,0,30,0.0,0.0
1344,48.0,0,30,1.0,0.0
1345,55.0,224,30,1.0,0.0
1346,63.0,0,30,0.0,0.0
1347,63.0,16,270,0.0,0.0
1348,75.0,78,150,0.0,0.0
1349,48.0,0,150,1.0,0.0
1350,55.0,0,270,1.0,0.0
1351,74.0,18,40,0.0,0.0
1352,50.0,0,40,1.0,0.0
1353,72.0,14,30,0.0,0.0
1354,51.0,32,40,1.0,0.0
1355,50.0,32,30,1.0,0.0
1356,53.0,32,30,1.0,0.0
1357,56.0,32,30,1.0,0.0
1358,62.0,32,30,0.0,0.0
1359,65.0,32,30,0.0,0.0
1360,71.0,32,30,0.0,0.0
1361,62.0,32,30,1.0,0.0
1362,65.0,32,30,1.0,0.0
1363,68.0,32,30,1.0,0.0
1364,71.0,32,30,0.0,0.0
1365,74.0,23,30,0.0,0.0
1366,77.0,43,20,0.0,0.0
1367,50.0,224,30,1.0,0.0
1368,77.0,0,30,0.0,0.0
1369,65.0,0,30,0.0,0.0
1370,59.0,0,30,1.0,0.0
1371,65.0,16,270,0.0,0.0
1372,77.0,78,150,0.0,0.0
1373,59.0,0,270,1.0,0.0
1374,50.0,0,150,1.0,0.0
1375,75.0,0,40,0.0,0.0
1376,51.0,18,40,1.0,0.0
1377,53.0,46,30,1.0,0.0
1378,74.0,0,30,0.0,0.0
1379,51.0,32,30,1.0,0.0
1380,55.0,32,30,1.0,0.0
1381,60.0,32,30,1.0,0.0
1382,63.0,32,30,0.0,0.0
1383,67.0,32,30,0.0,0.0
1384,72.0,32,30,0.0,0.0
1385,63.0,32,30,1.0,0.0
1386,67.0,32,30,1.0,0.0
1387,72.0,32,30,1.0,0.0
1388,75.0,32,30,0.0,0.0
1389,79.0,23,30,0.0,0.0
1390,84.0,43,20,0.0,0.0
1391,64.0,0,30,1.0,0.0
1392,67.0,224,30,1.0,0.0
1393,73.0,0,30,0.0,0.0
1394,85.0,0,30,0.0,0.0
1395,85.0,46,180,0.0,0.0
1396,73.0,0,180,0.0,0.0
1397,64.0,0,150,1.0,0.0
1398,67.0,32,150,1.0,0.0
1399,65.0,0,40,1.0,0.0
1400,68.0,0,40,1.0,0.0
1401,84.0,48,40,0.0,0.0
1402,67.0,0,40,1.0,0.0
1403,82.0,50,40,0.0,0.0
1404,70.0,0,40,1.0,0.0
1405,68.0,96,40,1.0,0.0
1406,65.0,0,40,1.0,0.0
1407,80.0,32,40,0.0,0.0
1408,84.0,64,30,0.0,0.0
1409,65.0,96,40,1.0,0.0
1410,74.0,32,40,0.0,0.0
1411,77.0,64,30,0.0,0.0
1412,67.0,96,40,1.0,0.0
1413,75.0,32,40,0.0,0.0
1414,79.0,64,30,0.0,0.0
1415,65.0,96,40,1.0,0.0
1416,55.0,0,40,1.0,0.0
1417,71.0,32,40,0.0,0.0
1418,74.0,110,30,0.0,0.0
1419,56.0,30,150,1.0,0.0
1420,63.0,0,150,1.0,0.0
1421,72.0,48,40,0.0,0.0
1422,71.0,18,40,0.0,0.0
1423,72.0,48,40,0.0,0.0
1424,71.0,48,40,0.0,0.0
1425,72.0,48,40,0.0,0.0
1426,71.0,34,40,0.0,0.0
1427,72.0,48,30,0.0,0.0
1428,61.0,0,30,0.0,0.0
1429,55.0,0,30,1.0,0.0
1430,52.0,0,30,1.0,0.0
1431,73.0,224,30,0.0,0.0
1432,55.0,0,150,1.0,0.0
1433,52.0,0,150,1.0,0.0
1434,73.0,0,150,0.0,0.0
1435,61.0,78,150,0.0,0.0
1436,72.0,0,40,0.0,0.0
1437,56.0,0,40,1.0,0.0
1438,53.0,34,40,1.0,0.0
1439,70.0,14,30,0.0,0.0
1440,55.0,50,40,1.0,0.0
1441,58.0,0,40,1.0,0.0
1442,56.0,0,40,1.0,0.0
1443,53.0,46,40,1.0,0.0
1444,68.0,48,40,0.0,0.0
1445,70.0,48,40,0.0,0.0
1446,71.0,48,40,0.0,0.0
1447,72.0,2,40,0.0,0.0
1448,53.0,46,40,1.0,0.0
1449,62.0,48,40,0.0,0.0
1450,65.0,48,40,0.0,0.0
1451,68.0,50,40,0.0,0.0
1452,55.0,46,40,1.0,0.0
1453,63.0,48,40,0.0,0.0
1454,67.0,48,40,0.0,0.0
1455,60.0,50,40,0.0,0.0
1456,43.0,46,40,1.0,0.0
1457,62.0,48,40,0.0,0.0
1458,65.0,48,40,0.0,0.0
1459,59.0,108,40,0.0,0.0
1460,48.0,42,180,1.0,0.0
1461,60.0,64,40,0.0,0.0
1462,61.0,22,40,0.0,0.0
1463,62.0,64,40,0.0,0.0
1464,63.0,64,40,0.0,0.0
1465,64.0,64,40,0.0,0.0
1466,65.0,64,40,0.0,0.0
1467,66.0,64,40,0.0,0.0
1468,67.0,64,40,0.0,0.0
1469,68.0,64,40,0.0,0.0
1470,69.0,64,40,0.0,0.0
1471,70.0,84,40,0.0,0.0
1472,71.0,44,60,0.0,0.0
1473,72.0,64,40,0.0,0.0
1474,72.0,64,40,0.0,0.0
1475,72.0,64,40,0.0,0.0
1476,72.0,64,40,0.0,0.0
1477,72.0,64,40,0.0,0.0
1478,72.0,64,40,0.0,0.0
1479,72.0,64,40,0.0,0.0
1480,72.0,86,40,0.0,0.0
1481,71.0,42,60,0.0,0.0
1482,72.0,64,40,0.0,0.0
1483,72.0,86,40,0.0,0.0
1484,72.0,42,60,0.0,0.0
1485,73.0,64,40,0.0,0.0
1486,73.0,64,40,0.0,0.0
1487,73.0,64,40,0.0,0.0
1488,73.0,64,40,0.0,0.0
1489,73.0,64,40,0.0,0.0
1490,73.0,64,40,0.0,0.0
1491,74.0,64,40,0.0,0.0
1492,74.0,64,40,0.0,0.0
1493,74.0,64,40,0.0,0.0
1494,74.0,64,40,0.0,0.0
1495,74.0,68,40,0.0,0.0
1496,74.0,48,40,0.0,0.0
1497,75.0,48,40,0.0,0.0
1498,77.0,48,40,0.0,0.0
1499,75.0,48,40,0.0,0.0
1500,73.0,48,40,0.0,0.0
1501,72.0,32,40,0.0,0.0
1502,75.0,32,30,0.0,0.0
1503,73.0,32,30,0.0,0.0
1504,70.0,50,30,0.0,0.0
1505,68.0,48,40,0.0,0.0
1506,60.0,0,90,1.0,0.0
1507,56.0,96,90,1.0,0.0
1508,63.0,48,90,1.0,0.0
1509,68.0,48,40,0.0,0.0
1510,56.0,0,90,1.0,0.0
1511,60.0,96,90,1.0,0.0
1512,63.0,96,90,1.0,0.0
1513,68.0,96,90,0.0,0.0
1514,61.0,0,90,1.0,0.0
1515,58.0,0,90,1.0,0.0
1516,67.0,96,90,0.0,0.0
1517,63.0,0,90,1.0,0.0
1518,65.0,96,90,0.0,0.0
1519,58.0,0,90,1.0,0.0
1520,61.0,0,90,1.0,0.0
1521,63.0,0,90,1.0,0.0
1522,67.0,96,90,0.0,0.0
1523,56.0,0,90,1.0,0.0
1524,60.0,48,90,1.0,0.0
1525,68.0,0,40,0.0,0.0
1526,63.0,0,90,1.0,0.0
1527,68.0,16,40,0.0,0.0
1528,68.0,32,15,0.0,0.0
1529,68.0,96,15,0.0,0.0
1530,56.0,0,90,1.0,0.0
1531,60.0,48,90,1.0,0.0
1532,63.0,96,90,1.0,0.0
1533,72.0,2,40,0.0,0.0
1534,55.0,0,90,1.0,0.0
1535,75.0,0,390,0.0,0.0
1536,58.0,96,90,1.0,0.0
1537,63.0,96,90,1.0,0.0
1538,58.0,0,90,1.0,0.0
1539,55.0,96,90,1.0,0.0
1540,63.0,68,90,1.0,0.0
1541,56.0,0,90,1.0,0.0
1542,53.0,96,90,1.0,0.0
1543,73.0,28,60,0.0,0.0
1544,61.0,96,90,1.0,0.0
1545,89.0,48,180,0.0,0.0
1546,55.0,0,90,1.0,0.0
1547,58.0,0,90,1.0,0.0
1548,63.0,32,90,1.0,0.0
1549,87.0,48,40,0.0,0.0
1550,85.0,0,40,0.0,0.0
1551,56.0,96,90,1.0,0.0
1552,84.0,64,30,0.0,0.0
1553,60.0,64,90,1.0,0.0
1554,87.0,32,150,0.0,0.0
1555,63.0,46,90,1.0,0.0
1556,68.0,48,90,1.0,0.0
1557,85.0,48,40,0.0,0.0
1558,84.0,0,40,0.0,0.0
1559,61.0,0,90,1.0,0.0
1560,82.0,48,40,0.0,0.0
1561,84.0,48,40,0.0,0.0
1562,85.0,48,40,0.0,0.0
1563,65.0,0,90,1.0,0.0
1564,84.0,48,40,0.0,0.0
1565,70.0,0,90,1.0,0.0
1566,87.0,48,40,0.0,0.0
1567,85.0,48,40,0.0,0.0
1568,84.0,2,40,0.0,0.0
1569,73.0,162,90,1.0,0.0
1570,82.0,0,40,0.0,0.0
1571,63.0,30,270,1.0,0.0
1572,80.0,30,150,0.0,0.0
1573,72.0,66,90,1.0,0.0
1574,70.0,34,90,1.0,0.0
1575,79.0,0,90,0.0,0.0
1576,63.0,128,30,0.0,0.0
1577,63.0,32,60,0.0,0.0
1578,60.0,10,90,1.0,0.0
1579,56.0,0,90,1.0,0.0
1580,68.0,64,40,0.0,0.0
1581,63.0,42,90,1.0,0.0
1582,68.0,22,40,0.0,0.0
1583,68.0,54,40,0.0,0.0
1584,56.0,0,90,1.0,0.0
1585,60.0,10,90,1.0,0.0
1586,68.0,64,40,0.0,0.0
1587,63.0,64,90,1.0,0.0
1588,68.0,22,40,0.0,0.0
1589,68.0,32,60,0.0,0.0
1590,58.0,30,90,1.0,0.0
1591,61.0,0,90,1.0,0.0
1592,67.0,44,60,0.0,0.0
1593,63.0,42,90,1.0,0.0
1594,65.0,22,40,0.0,0.0
1595,58.0,0,90,1.0,0.0
1596,61.0,10,90,1.0,0.0
1597,63.0,54,40,0.0,0.0
1598,65.0,64,40,0.0,0.0
1599,63.0,62,90,1.0,0.0
1600,67.0,22,40,0.0,0.0
1601,68.0,34,60,0.0,0.0
1602,56.0,30,90,1.0,0.0
1603,60.0,0,90,1.0,0.0
1604,70.0,64,60,0.0,0.0
1605,63.0,42,90,1.0,0.0
1606,71.0,2,60,0.0,0.0
1607,56.0,0,90,1.0,0.0
1608,72.0,54,40,0.0,0.0
1609,60.0,10,90,1.0,0.0
1610,73.0,64,40,0.0,0.0
1611,63.0,32,90,1.0,0.0
1612,74.0,22,40,0.0,0.0
1613,55.0,96,90,1.0,0.0
1614,58.0,0,90,1.0,0.0
1615,77.0,64,30,0.0,0.0
1616,75.0,32,150,0.0,0.0
1617,63.0,64,90,1.0,0.0
1618,55.0,96,90,1.0,0.0
1619,58.0,0,90,1.0,0.0
1620,75.0,0,90,0.0,0.0
1621,63.0,32,90,1.0,0.0
1622,53.0,0,90,1.0,0.0
1623,73.0,64,30,0.0,0.0
1624,56.0,96,90,1.0,0.0
1625,89.0,32,150,0.0,0.0
1626,61.0,64,90,1.0,0.0
1627,58.0,0,90,1.0,0.0
1628,55.0,46,90,1.0,0.0
1629,87.0,48,40,0.0,0.0
1630,63.0,0,90,1.0,0.0
1631,85.0,96,40,0.0,0.0
1632,84.0,46,330,0.0,0.0
1633,56.0,46,90,1.0,0.0
1634,86.0,2,40,0.0,0.0
1635,87.0,48,40,0.0,0.0
1636,63.0,46,90,1.0,0.0
1637,86.0,2,40,0.0,0.0
1638,55.0,46,90,1.0,0.0
1639,87.0,48,40,0.0,0.0
1640,86.0,2,40,0.0,0.0
1641,63.0,94,90,1.0,0.0
1642,87.0,2,40,0.0,0.0
1643,86.0,2,40,0.0,0.0
1644,89.0,96,90,0.0,0.0
1645,54.0,2,90,1.0,0.0
1646,87.0,96,90,0.0,0.0
1647,57.0,0,90,1.0,0.0
1648,86.0,0,90,0.0,0.0
1649,42.0,94,90,1.0,0.0
1650,54.0,2,90,1.0,0.0
1651,84.0,48,90,0.0,0.0
1652,83.0,32,150,0.0,0.0
1653,43.0,48,40,1.0,0.0
1654,55.0,48,40,1.0,0.0
1655,47.0,16,40,1.0,0.0
1656,55.0,48,40,1.0,0.0
1657,50.0,48,40,1.0,0.0
1658,55.0,48,40,1.0,0.0
1659,47.0,48,40,1.0,0.0
1660,55.0,48,40,1.0,0.0
1661,43.0,48,40,1.0,0.0
1662,55.0,32,40,1.0,0.0
1663,47.0,48,40,1.0,0.0
1664,79.0,16,30,0.0,0.0
1665,55.0,32,40,1.0,0.0
1666,79.0,16,30,0.0,0.0
1667,50.0,48,40,1.0,0.0
1668,55.0,32,40,1.0,0.0
1669,47.0,46,40,1.0,0.0
1670,79.0,16,30,0.0,0.0
1671,55.0,50,40,1.0,0.0
1672,43.0,48,40,1.0,0.0
1673,79.0,2,150,0.0,0.0
1674,55.0,46,40,1.0,0.0
1675,48.0,46,40,1.0,0.0
1676,75.0,2,40,0.0,0.0
1677,55.0,48,40,1.0,0.0
1678,72.0,32,150,0.0,0.0
1679,51.0,48,40,1.0,0.0
1680,55.0,48,40,1.0,0.0
1681,48.0,16,40,1.0,0.0
1682,55.0,48,40,1.0,0.0
1683,43.0,48,40,1.0,0.0
1684,55.0,48,40,1.0,0.0
1685,48.0,46,40,1.0,0.0
1686,87.0,2,90,0.0,0.0
1687,55.0,48,40,1.0,0.0
1688,86.0,2,90,0.0,0.0
1689,51.0,46,40,1.0,0.0
1690,55.0,48,40,1.0,0.0
1691,84.0,50,90,0.0,0.0
1692,48.0,46,40,1.0,0.0
1693,55.0,0,40,1.0,0.0
1694,43.0,48,40,1.0,0.0
1695,83.0,2,150,0.0,0.0
1696,55.0,46,40,1.0,0.0
1697,47.0,46,40,1.0,0.0
1698,84.0,2,40,0.0,0.0
1699,55.0,48,40,1.0,0.0
1700,86.0,32,150,0.0,0.0
1701,50.0,48,40,1.0,0.0
1702,55.0,48,40,1.0,0.0
1703,47.0,16,40,1.0,0.0
1704,55.0,48,40,1.0,0.0
1705,43.0,48,40,1.0,0.0
1706,55.0,48,40,1.0,0.0
1707,79.0,0,40,0.0,0.0
1708,78.0,0,40,0.0,0.0
1709,47.0,48,40,1.0,0.0
1710,79.0,48,40,0.0,0.0
1711,55.0,0,40,1.0,0.0
1712,50.0,48,40,1.0,0.0
1713,80.0,0,40,0.0,0.0
1714,55.0,0,40,1.0,0.0
1715,79.0,48,40,0.0,0.0
1716,47.0,0,40,1.0,0.0
1717,77.0,46,40,0.0,0.0
1718,55.0,2,40,1.0,0.0
1719,74.0,48,40,0.0,0.0
1720,75.0,48,40,0.0,0.0
1721,43.0,0,40,1.0,0.0
1722,55.0,48,40,1.0,0.0
1723,77.0,0,40,0.0,0.0
1724,48.0,0,40,1.0,0.0
1725,78.0,48,40,0.0,0.0
1726,55.0,0,40,1.0,0.0
1727,79.0,48,40,0.0,0.0
1728,51.0,48,40,1.0,0.0
1729,72.0,0,40,0.0,0.0
1730,55.0,48,40,1.0,0.0
1731,48.0,48,40,1.0,0.0
1732,55.0,48,40,1.0,0.0
1733,43.0,48,40,1.0,0.0
1734,55.0,48,40,1.0,0.0
1735,48.0,48,40,1.0,0.0
1736,75.0,0,40,0.0,0.0
1737,55.0,48,40,1.0,0.0
1738,74.0,0,40,0.0,0.0
1739,77.0,48,40,0.0,0.0
1740,51.0,0,40,1.0,0.0
1741,75.0,0,40,0.0,0.0
1742,55.0,48,40,1.0,0.0
1743,74.0,0,40,0.0,0.0
1744,48.0,46,40,1.0,0.0
1745,72.0,48,40,0.0,0.0
1746,55.0,2,40,1.0,0.0
1747,43.0,48,40,1.0,0.0
1748,71.0,0,150,0.0,0.0
1749,55.0,48,40,1.0,0.0
1750,50.0,48,40,1.0,0.0
1751,72.0,48,40,0.0,0.0
1752,55.0,0,40,1.0,0.0
1753,43.0,48,40,1.0,0.0
1754,74.0,0,40,0.0,0.0
1755,55.0,48,40,1.0,0.0
1756,47.0,48,40,1.0,0.0
1757,55.0,48,40,1.0,0.0
1758,43.0,48,40,1.0,0.0
1759,55.0,48,40,1.0,0.0
1760,63.0,0,40,0.0,0.0
1761,48.0,48,40,1.0,0.0
1762,62.0,0,40,0.0,0.0
1763,55.0,48,40,1.0,0.0
1764,43.0,48,40,1.0,0.0
1765,65.0,0,40,0.0,0.0
1766,55.0,0,40,1.0,0.0
1767,63.0,48,40,0.0,0.0
1768,51.0,0,40,1.0,0.0
1769,62.0,46,40,0.0,0.0
1770,55.0,0,40,1.0,0.0
1771,60.0,64,40,0.0,0.0
1772,43.0,30,150,1.0,0.0
1773,54.0,32,30,1.0,0.0
1774,55.0,32,30,1.0,0.0
1775,56.0,32,30,1.0,0.0
1776,57.0,2,30,1.0,0.0
1777,58.0,32,30,1.0,0.0
1778,58.0,32,30,1.0,0.0
1779,60.0,32,30,1.0,0.0
1780,61.0,32,30,1.0,0.0
1781,62.0,32,30,0.0,0.0
1782,63.0,32,30,0.0,0.0
1783,64.0,32,30,0.0,0.0
1784,65.0,32,30,0.0,0.0
1785,66.0,32,30,0.0,0.0
1786,67.0,32,30,0.0,0.0
1787,68.0,32,30,0.0,0.0
1788,69.0,32,30,0.0,0.0
1789,70.0,32,30,0.0,0.0
1790,71.0,32,30,0.0,0.0
1791,72.0,32,30,0.0,0.0
1792,73.0,32,30,0.0,0.0
1793,74.0,32,30,0.0,0.0
1794,75.0,32,30,0.0,0.0
1795,76.0,32,30,0.0,0.0
1796,77.0,32,30,0.0,0.0
1797,78.0,32,30,0.0,0.0
1798,79.0,32,30,0.0,0.0
1799,80.0,32,30,0.0,0.0
1800,81.0,32,30,0.0,0.0
1801,82.0,32,30,0.0,0.0
1802,83.0,32,30,0.0,0.0
1803,84.0,32,30,0.0,0.0
1804,85.0,32,30,0.0,0.0
1805,86.0,32,30,0.0,0.0
1806,87.0,32,30,0.0,0.0
1807,88.0,44,30,0.0,0.0
1808,90.0,64,40,0.0,0.0
1809,88.0,64,40,0.0,0.0
1810,87.0,64,40,0.0,0.0
1811,86.0,64,40,0.0,0.0
1812,85.0,64,40,0.0,0.0
1813,84.0,64,40,0.0,0.0
1814,83.0,64,40,0.0,0.0
1815,82.0,64,40,0.0,0.0
1816,81.0,64,40,0.0,0.0
1817,80.0,64,40,0.0,0.0
1818,79.0,64,40,0.0,0.0
1819,78.0,64,40,0.0,0.0
1820,77.0,64,40,0.0,0.0
1821,76.0,64,40,0.0,0.0
1822,75.0,64,40,0.0,0.0
1823,74.0,64,40,0.0,0.0
1824,73.0,64,40,0.0,0.0
1825,72.0,64,40,0.0,0.0
1826,71.0,64,40,0.0,0.0
1827,70.0,64,40,0.0,0.0
1828,69.0,64,40,0.0,0.0
1829,67.0,64,40,0.0,0.0
1830,69.0,64,40,0.0,0.0
1831,71.0,116,40,0.0,0.0
1832,63.0,96,90,1.0,0.0
1833,60.0,0,90,1.0,0.0
1834,67.0,2,90,1.0,0.0
1835,60.0,0,90,1.0,0.0
1836,63.0,66,90,1.0,0.0
1837,72.0,94,15,0.0,0.0
1838,67.0,98,90,1.0,0.0
1839,65.0,0,90,1.0,0.0
1840,62.0,0,90,1.0,0.0
1841,72.0,96,90,0.0,0.0
1842,67.0,0,90,1.0,0.0
1843,71.0,96,90,0.0,0.0
1844,69.0,0,90,0.0,0.0
1845,65.0,96,90,1.0,0.0
1846,62.0,0,90,1.0,0.0
1847,71.0,0,90,0.0,0.0
1848,67.0,96,90,1.0,0.0
1849,64.0,0,90,1.0,0.0
1850,60.0,48,90,1.0,0.0
1851,72.0,0,40,0.0,0.0
1852,72.0,16,40,0.0,0.0
1853,67.0,96,90,1.0,0.0
1854,72.0,32,15,0.0,0.0
1855,72.0,48,150,0.0,0.0
1856,60.0,48,90,1.0,0.0
1857,64.0,0,90,1.0,0.0
1858,67.0,0,90,1.0,0.0
1859,76.0,96,40,0.0,0.0
1860,62.0,0,90,1.0,0.0
1861,59.0,96,90,1.0,0.0
1862,79.0,48,330,0.0,0.0
1863,67.0,96,90,1.0,0.0
1864,62.0,0,90,1.0,0.0
1865,59.0,48,90,1.0,0.0
1866,67.0,96,90,1.0,0.0
1867,77.0,0,90,0.0,0.0
1868,60.0,0,90,1.0,0.0
1869,57.0,96,90,1.0,0.0
1870,81.0,48,180,0.0,0.0
1871,65.0,96,90,1.0,0.0
1872,57.0,0,90,1.0,0.0
1873,60.0,0,90,1.0,0.0
1874,67.0,0,90,1.0,0.0
1875,79.0,48,40,0.0,0.0
1876,77.0,96,40,0.0,0.0
1877,60.0,32,90,1.0,0.0
1878,76.0,0,90,0.0,0.0
1879,79.0,48,180,0.0,0.0
1880,64.0,160,30,1.0,0.0
1881,55.0,0,90,1.0,0.0
1882,52.0,0,90,1.0,0.0
1883,60.0,48,90,1.0,0.0
1884,77.0,48,40,0.0,0.0
1885,76.0,0,40,0.0,0.0
1886,74.0,48,40,0.0,0.0
1887,53.0,0,90,1.0,0.0
1888,76.0,48,40,0.0,0.0
1889,77.0,48,40,0.0,0.0
1890,57.0,0,90,1.0,0.0
1891,76.0,48,40,0.0,0.0
1892,79.0,48,40,0.0,0.0
1893,62.0,0,90,1.0,0.0
1894,77.0,48,40,0.0,0.0
1895,65.0,2,90,1.0,0.0
1896,76.0,46,40,0.0,0.0
1897,74.0,190,40,0.0,0.0
1898,72.0,32,180,0.0,0.0
1899,55.0,64,270,1.0,0.0
1900,64.0,2,90,1.0,0.0
1901,71.0,0,30,0.0,0.0
1902,62.0,32,30,1.0,0.0
1903,67.0,128,30,0.0,0.0
1904,64.0,0,90,1.0,0.0
1905,60.0,32,90,1.0,0.0
1906,67.0,30,60,0.0,0.0
1907,72.0,44,60,0.0,0.0
1908,67.0,44,90,1.0,0.0
1909,72.0,20,40,0.0,0.0
1910,60.0,12,90,1.0,0.0
1911,64.0,0,90,1.0,0.0
1912,72.0,52,40,0.0,0.0
1913,72.0,64,40,0.0,0.0
1914,67.0,66,90,1.0,0.0
1915,72.0,20,40,0.0,0.0
1916,72.0,32,60,0.0,0.0
1917,65.0,0,90,1.0,0.0
1918,62.0,30,90,1.0,0.0
1919,71.0,64,60,0.0,0.0
1920,67.0,42,90,1.0,0.0
1921,69.0,2,60,0.0,0.0
1922,67.0,54,40,0.0,0.0
1923,65.0,0,90,1.0,0.0
1924,62.0,10,90,1.0,0.0
1925,69.0,64,40,0.0,0.0
1926,67.0,80,90,1.0,0.0
1927,71.0,22,40,0.0,0.0
1928,64.0,0,90,1.0,0.0
1929,60.0,32,90,1.0,0.0
1930,72.0,16,30,0.0,0.0
1931,67.0,32,90,1.0,0.0
1932,73.0,48,30,0.0,0.0
1933,74.0,16,30,0.0,0.0
1934,75.0,48,30,0.0,0.0
1935,64.0,0,90,1.0,0.0
1936,60.0,32,90,1.0,0.0
1937,76.0,16,30,0.0,0.0
1938,67.0,68,90,1.0,0.0
1939,77.0,48,30,0.0,0.0
1940,78.0,16,30,0.0,0.0
1941,59.0,0,90,1.0,0.0
1942,62.0,96,90,1.0,0.0
1943,81.0,28,60,0.0,0.0
1944,79.0,32,150,0.0,0.0
1945,67.0,64,90,1.0,0.0
1946,59.0,94,90,1.0,0.0
1947,62.0,0,90,1.0,0.0
1948,79.0,2,90,0.0,0.0
1949,67.0,46,90,1.0,0.0
1950,77.0,2,90,0.0,0.0
1951,60.0,0,90,1.0,0.0
1952,57.0,22,90,1.0,0.0
1953,79.0,24,20,0.0,0.0
1954,81.0,24,20,0.0,0.0
1955,79.0,0,20,0.0,0.0
1956,76.0,24,20,0.0,0.0
1957,65.0,94,90,1.0,0.0
1958,77.0,50,20,0.0,0.0
1959,81.0,2,150,0.0,0.0
1960,62.0,0,90,1.0,0.0
1961,59.0,46,90,1.0,0.0
1962,79.0,48,40,0.0,0.0
1963,65.0,30,90,1.0,0.0
1964,77.0,2,40,0.0,0.0
1965,60.0,30,90,1.0,0.0
1966,64.0,0,90,1.0,0.0
1967,76.0,32,30,0.0,0.0
1968,79.0,32,30,0.0,0.0
1969,83.0,2,30,0.0,0.0
1970,84.0,32,30,0.0,0.0
1971,67.0,0,90,1.0,0.0
1972,79.0,32,30,0.0,0.0
1973,76.0,32,30,0.0,0.0
1974,74.0,32,30,0.0,0.0
1975,53.0,32,90,1.0,0.0
1976,77.0,32,30,0.0,0.0
1977,80.0,0,30,0.0,0.0
1978,65.0,0,90,1.0,0.0
1979,81.0,32,30,0.0,0.0
1980,77.0,32,30,0.0,0.0
1981,74.0,96,30,0.0,0.0
1982,55.0,0,90,1.0,0.0
1983,72.0,48,40,0.0,0.0
1984,64.0,96,90,1.0,0.0
1985,72.0,18,40,0.0,0.0
1986,72.0,30,15,0.0,0.0
1987,76.0,96,90,0.0,0.0
1988,55.0,0,90,1.0,0.0
1989,65.0,0,90,1.0,0.0
1990,74.0,98,90,0.0,0.0
1991,72.0,0,150,0.0,0.0
1992,64.0,64,150,0.0,0.0
1993,48.0,32,90,1.0,0.0
1994,55.0,32,30,1.0,0.0
1995,55.0,96,30,1.0,0.0
1996,55.0,160,30,1.0,0.0
1997,60.0,144,330,1.0,0.0
1998,52.0,32,90,1.0,0.0
1999,55.0,0,30,1.0,0.0
2000,67.0,96,30,0.0,0.0
2001,72.0,96,30,0.0,0.0
2002,55.0,0,30,1.0,0.0
2003,76.0,16,30,0.0,0.0
2004,55.0,0,30,1.0,0.0
2005,50.0,32,90,1.0,0.0
2006,59.0,16,330,1.0,0.0
2007,77.0,48,150,0.0,0.0
2008,55.0,16,30,1.0,0.0
2009,74.0,32,40,0.0,0.0
2010,55.0,96,30,1.0,0.0
2011,71.0,128,150,0.0,0.0
2012,55.0,16,30,1.0,0.0
2013,53.0,32,90,1.0,0.0
2014,62.0,144,330,1.0,0.0
2015,67.0,0,30,0.0,0.0
2016,55.0,96,30,1.0,0.0
2017,71.0,96,30,0.0,0.0
2018,55.0,0,30,1.0,0.0
2019,55.0,16,30,1.0,0.0
2020,74.0,0,30,0.0,0.0
2021,52.0,32,90,1.0,0.0
2022,60.0,16,330,1.0,0.0
2023,76.0,48,150,0.0,0.0
2024,55.0,16,30,1.0,0.0
2025,72.0,32,40,0.0,0.0
2026,67.0,128,150,0.0,0.0
2027,55.0,96,30,1.0,0.0
2028,55.0,16,30,1.0,0.0
2029,48.0,0,330,1.0,0.0
2030,52.0,32,90,1.0,0.0
2031,55.0,16,30,1.0,0.0
2032,67.0,48,40,0.0,0.0
2033,69.0,32,40,0.0,0.0
2034,55.0,16,30,1.0,0.0
2035,71.0,48,40,0.0,0.0
2036,72.0,32,40,0.0,0.0
2037,55.0,16,30,1.0,0.0
2038,74.0,46,40,0.0,0.0
2039,76.0,50,40,0.0,0.0
2040,79.0,46,40,0.0,0.0
2041,50.0,46,330,1.0,0.0
2042,53.0,32,90,1.0,0.0
2043,77.0,2,40,0.0,0.0
2044,76.0,46,40,0.0,0.0
2045,55.0,16,30,1.0,0.0
2046,74.0,34,40,0.0,0.0
2047,72.0,32,90,0.0,0.0
2048,55.0,64,30,1.0,0.0
2049,55.0,16,30,1.0,0.0
2050,71.0,98,90,0.0,0.0
2051,47.0,0,330,1.0,0.0
2052,53.0,32,90,1.0,0.0
2053,55.0,16,30,1.0,0.0
2054,79.0,48,40,0.0,0.0
2055,81.0,32,40,0.0,0.0
2056,83.0,48,40,0.0,0.0
2057,55.0,16,30,1.0,0.0
2058,84.0,32,40,0.0,0.0
2059,55.0,16,30,1.0,0.0
2060,86.0,48,40,0.0,0.0
2061,87.0,48,40,0.0,0.0
2062,48.0,0,150,1.0,0.0
2063,52.0,32,150,1.0,0.0
2064,88.0,48,40,0.0,0.0
2065,87.0,48,40,0.0,0.0
2066,89.0,16,40,0.0,0.0
2067,88.0,48,40,0.0,0.0
2068,86.0,48,40,0.0,0.0
2069,84.0,48,40,0.0,0.0
2070,83.0,48,40,0.0,0.0
2071,81.0,32,40,0.0,0.0
2072,79.0,48,30,0.0,0.0
2073,84.0,48,30,0.0,0.0
2074,83.0,48,30,0.0,0.0
2075,81.0,48,30,0.0,0.0
2076,80.0,48,30,0.0,0.0
2077,79.0,48,30,0.0,0.0
2078,78.0,48,30,0.0,0.0
2079,77.0,48,30,0.0,0.0
2080,76.0,48,30,0.0,0.0
2081,81.0,48,30,0.0,0.0
2082,79.0,48,30,0.0,0.0
2083,78.0,48,30,0.0,0.0
2084,77.0,48,30,0.0,0.0
2085,76.0,48,30,0.0,0.0
2086,75.0,48,30,0.0,0.0
2087,74.0,64,30,0.0,0.0
2088,72.0,46,40,0.0,0.0
2089,64.0,0,90,1.0,0.0
2090,60.0,96,90,1.0,0.0
2091,67.0,50,90,1.0,0.0
2092,72.0,46,40,0.0,0.0
2093,60.0,0,90,1.0,0.0
2094,64.0,96,90,1.0,0.0
2095,67.0,96,90,1.0,0.0
2096,65.0,0,330,1.0,0.0
2097,67.0,142,330,1.0,0.0
2098,62.0,0,330,1.0,0.0
2099,72.0,96,90,0.0,0.0
2100,71.0,96,90,0.0,0.0
2101,70.0,34,90,0.0,0.0
2102,71.0,16,30,0.0,0.0
2103,62.0,26,90,1.0,0.0
2104,65.0,0,90,1.0,0.0
2105,71.0,70,120,0.0,0.0
2106,68.0,50,90,1.0,0.0
2107,71.0,46,40,0.0,0.0
2108,62.0,96,90,1.0,0.0
2109,65.0,0,90,1.0,0.0
2110,68.0,26,90,1.0,0.0
2111,71.0,70,20,0.0,0.0
2112,67.0,0,330,1.0,0.0
2113,63.0,46,330,1.0,0.0
2114,74.0,96,60,0.0,0.0
2115,72.0,96,90,0.0,0.0
2116,71.0,50,90,0.0,0.0
2117,72.0,96,90,0.0,0.0
2118,66.0,26,90,1.0,0.0
2119,72.0,70,120,0.0,0.0
2120,68.0,50,90,1.0,0.0
2121,72.0,46,40,0.0,0.0
2122,66.0,96,90,1.0,0.0
2123,68.0,96,90,1.0,0.0
2124,65.0,96,90,1.0,0.0
2125,75.0,0,90,0.0,0.0
2126,73.0,96,90,0.0,0.0
2127,68.0,0,90,1.0,0.0
2128,65.0,0,90,1.0,0.0
2129,72.0,96,90,0.0,0.0
2130,68.0,96,90,1.0,0.0
2131,73.0,0,90,0.0,0.0
2132,60.0,26,90,1.0,0.0
2133,78.0,70,120,0.0,0.0
2134,68.0,50,90,1.0,0.0
2135,78.0,46,40,0.0,0.0
2136,60.0,96,90,1.0,0.0
2137,68.0,96,90,1.0,0.0
2138,78.0,0,90,0.0,0.0
2139,61.0,96,90,1.0,0.0
2140,77.0,96,90,0.0,0.0
2141,68.0,0,90,1.0,0.0
2142,75.0,96,90,0.0,0.0
2143,61.0,0,90,1.0,0.0
2144,73.0,0,90,0.0,0.0
2145,68.0,96,90,1.0,0.0
2146,63.0,30,150,1.0,0.0
2147,54.0,26,90,1.0,0.0
2148,72.0,0,120,0.0,0.0
2149,68.0,40,120,0.0,0.0
2150,56.0,50,90,1.0,0.0
2151,63.0,30,150,1.0,0.0
2152,72.0,0,40,0.0,0.0
2153,68.0,46,40,0.0,0.0
2154,54.0,66,90,1.0,0.0
2155,56.0,96,90,1.0,0.0
2156,75.0,0,90,0.0,0.0
2157,68.0,0,330,0.0,0.0
2158,53.0,96,90,1.0,0.0
2159,61.0,46,330,1.0,0.0
2160,56.0,96,90,1.0,0.0
2161,73.0,0,90,0.0,0.0
2162,72.0,50,90,0.0,0.0
2163,53.0,0,90,1.0,0.0
2164,56.0,0,90,1.0,0.0
2165,73.0,96,90,0.0,0.0
2166,75.0,0,120,0.0,0.0
2167,60.0,30,150,1.0,0.0
2168,48.0,26,90,1.0,0.0
2169,66.0,40,120,0.0,0.0
2170,68.0,0,120,0.0,0.0
2171,78.0,0,120,0.0,0.0
2172,56.0,96,90,1.0,0.0
2173,60.0,0,150,1.0,0.0
2174,66.0,0,150,0.0,0.0
2175,68.0,30,150,0.0,0.0
2176,75.0,0,150,0.0,0.0
2177,78.0,0,150,0.0,0.0
2178,48.0,66,90,1.0,0.0
2179,56.0,50,90,1.0,0.0
2180,49.0,48,40,1.0,0.0
2181,53.0,48,40,1.0,0.0
2182,56.0,48,40,1.0,0.0
2183,59.0,48,40,1.0,0.0
2184,65.0,48,40,0.0,0.0
2185,68.0,48,40,0.0,0.0
2186,73.0,48,40,0.0,0.0
2187,77.0,48,40,0.0,0.0
2188,54.0,48,40,1.0,0.0
2189,56.0,48,40,1.0,0.0
2190,59.0,48,40,1.0,0.0
2191,63.0,48,40,1.0,0.0
2192,63.0,48,40,0.0,0.0
2193,68.0,48,40,0.0,0.0
2194,72.0,48,40,0.0,0.0
2195,75.0,48,40,0.0,0.0
2196,53.0,48,40,1.0,0.0
2197,56.0,48,40,1.0,0.0
2198,61.0,48,40,1.0,0.0
2199,65.0,48,40,1.0,0.0
2200,68.0,48,40,0.0,0.0
2201,73.0,48,40,0.0,0.0
2202,77.0,48,40,0.0,0.0
2203,80.0,48,40,0.0,0.0
2204,51.0,48,40,1.0,0.0
2205,56.0,48,40,1.0,0.0
2206,60.0,48,40,1.0,0.0
2207,63.0,48,40,1.0,0.0
2208,66.0,48,40,0.0,0.0
2209,68.0,48,40,0.0,0.0
2210,72.0,48,40,0.0,0.0
2211,78.0,48,40,0.0,0.0
2212,49.0,48,40,1.0,0.0
2213,53.0,48,40,1.0,0.0
2214,56.0,48,40,1.0,0.0
2215,61.0,48,40,1.0,0.0
2216,65.0,48,40,0.0,0.0
2217,68.0,48,40,0.0,0.0
2218,73.0,48,40,0.0,0.0
2219,77.0,48,40,0.0,0.0
2220,48.0,48,40,1.0,0.0
2221,53.0,48,40,1.0,0.0
2222,56.0,48,40,1.0,0.0
2223,60.0,48,40,1.0,0.0
2224,65.0,48,40,0.0,0.0
2225,68.0,48,40,0.0,0.0
2226,72.0,48,40,0.0,0.0
2227,77.0,48,40,0.0,0.0
2228,47.0,48,40,1.0,0.0
2229,53.0,48,40,1.0,0.0
2230,56.0,48,40,1.0,0.0
2231,59.0,48,40,1.0,0.0
2232,65.0,48,40,0.0,0.0
2233,68.0,48,40,0.0,0.0
2234,74.0,48,40,0.0,0.0
2235,77.0,48,40,0.0,0.0
2236,48.0,48,40,1.0,0.0
2237,51.0,48,40,1.0,0.0
2238,55.0,48,40,1.0,0.0
2239,60.0,48,40,1.0,0.0
2240,63.0,48,40,0.0,0.0
2241,67.0,48,40,0.0,0.0
2242,72.0,48,40,0.0,0.0
2243,75.0,48,40,0.0,0.0
2244,41.0,48,40,1.0,0.0
2245,44.0,48,40,1.0,0.0
2246,48.0,48,40,1.0,0.0
2247,53.0,48,40,1.0,0.0
2248,62.0,48,40,0.0,0.0
2249,68.0,48,40,0.0,0.0
2250,72.0,48,40,0.0,0.0
2251,74.0,48,40,0.0,0.0
2252,43.0,48,40,1.0,0.0
2253,46.0,48,40,1.0,0.0
2254,48.0,48,40,1.0,0.0
2255,55.0,48,40,1.0,0.0
2256,64.0,48,40,0.0,0.0
2257,70.0,48,40,0.0,0.0
2258,72.0,48,40,0.0,0.0
2259,76.0,48,40,0.0,0.0
2260,44.0,48,40,1.0,0.0
2261,48.0,48,40,1.0,0.0
2262,53.0,48,40,1.0,0.0
2263,56.0,48,40,1.0,0.0
2264,65.0,48,40,0.0,0.0
2265,68.0,48,40,0.0,0.0
2266,72.0,48,40,0.0,0.0
2267,77.0,48,40,0.0,0.0
2268,45.0,48,40,1.0,0.0
2269,48.0,48,40,1.0,0.0
2270,51.0,48,40,1.0,0.0
2271,57.0,48,40,1.0,0.0
2272,66.0,48,40,0.0,0.0
2273,72.0,48,40,0.0,0.0
2274,75.0,48,40,0.0,0.0
2275,78.0,96,40,0.0,0.0
2276,79.0,0,300,0.0,0.0
2277,67.0,0,300,0.0,0.0
2278,72.0,0,300,0.0,0.0
2279,76.0,32,300,0.0,0.0
2280,43.0,32,90,1.0,0.0
2281,55.0,96,30,1.0,0.0
2282,55.0,64,30,1.0,0.0
2283,74.0,32,90,0.0,0.0
2284,55.0,64,30,1.0,0.0
2285,77.0,0,90,0.0,0.0
2286,76.0,0,30,0.0,0.0
2287,72.0,0,30,0.0,0.0
2288,55.0,96,30,1.0,0.0
2289,76.0,0,30,0.0,0.0
2290,67.0,96,30,0.0,0.0
2291,55.0,0,30,1.0,0.0
2292,65.0,96,30,0.0,0.0
2293,69.0,0,30,0.0,0.0
2294,55.0,0,30,1.0,0.0
2295,74.0,0,30,0.0,0.0
2296,55.0,0,30,1.0,0.0
2297,72.0,0,30,0.0,0.0
2298,69.0,0,30,0.0,0.0
2299,66.0,0,30,0.0,0.0
2300,63.0,160,30,0.0,0.0
2301,43.0,96,90,1.0,0.0
2302,55.0,96,90,1.0,0.0
2303,43.0,96,90,1.0,0.0
2304,72.0,0,15,0.0,0.0
2305,67.0,0,15,0.0,0.0
2306,64.0,0,15,0.0,0.0
2307,55.0,0,90,1.0,0.0
2308,43.0,96,90,1.0,0.0
2309,62.0,0,180,0.0,0.0
2310,72.0,0,90,0.0,0.0
2311,71.0,0,90,0.0,0.0
2312,55.0,96,90,1.0,0.0
2313,62.0,0,180,0.0,0.0
2314,65.0,0,15,0.0,0.0
2315,69.0,96,90,0.0,0.0
2316,43.0,0,90,1.0,0.0
2317,55.0,0,90,1.0,0.0
2318,67.0,0,90,0.0,0.0
2319,76.0,0,300,0.0,0.0
2320,79.0,32,300,0.0,0.0
2321,43.0,64,60,1.0,0.0
2322,47.0,64,60,1.0,0.0
2323,52.0,64,60,1.0,0.0
2324,55.0,32,60,1.0,0.0
2325,60.0,64,60,1.0,0.0
2326,77.0,0,90,0.0,0.0
2327,74.0,0,90,0.0,0.0
2328,64.0,32,60,1.0,0.0
2329,76.0,0,30,0.0,0.0
2330,72.0,96,30,0.0,0.0
2331,67.0,0,30,1.0,0.0
2332,55.0,0,30,1.0,0.0
2333,76.0,96,30,0.0,0.0
2334,67.0,0,30,0.0,0.0
2335,65.0,0,30,0.0,0.0
2336,69.0,96,30,0.0,0.0
2337,74.0,0,30,0.0,0.0
2338,55.0,0,30,1.0,0.0
2339,63.0,0,30,0.0,0.0
2340,66.0,0,30,0.0,0.0
2341,69.0,0,30,0.0,0.0
2342,72.0,64,30,0.0,0.0
2343,55.0,96,90,1.0,0.0
2344,43.0,96,90,1.0,0.0
2345,67.0,0,300,0.0,0.0
2346,64.0,0,300,0.0,0.0
2347,55.0,96,90,1.0,0.0
2348,43.0,0,90,1.0,0.0
2349,67.0,0,90,0.0,0.0
2350,72.0,96,15,0.0,0.0
2351,55.0,0,90,1.0,0.0
2352,64.0,0,90,0.0,0.0
2353,43.0,0,90,1.0,0.0
2354,72.0,96,15,0.0,0.0
2355,62.0,0,180,0.0,0.0
2356,65.0,0,180,0.0,0.0
2357,55.0,96,90,1.0,0.0
2358,71.0,0,90,0.0,0.0
2359,69.0,96,90,0.0,0.0
2360,43.0,0,90,1.0,0.0
2361,62.0,48,180,0.0,0.0
2362,65.0,0,180,0.0,0.0
2363,55.0,0,90,1.0,0.0
2364,67.0,0,90,0.0,0.0
2365,48.0,48,40,1.0,0.0
2366,64.0,0,180,0.0,0.0
2367,72.0,48,180,0.0,0.0
2368,60.0,48,40,1.0,0.0
2369,55.0,48,40,1.0,0.0
2370,60.0,0,40,1.0,0.0
2371,52.0,48,40,1.0,0.0
2372,60.0,48,40,1.0,0.0
2373,48.0,28,60,0.0,0.0
2374,55.0,20,40,1.0,0.0
2375,60.0,48,40,1.0,0.0
2376,53.0,48,40,1.0,0.0
2377,48.0,48,90,0.0,0.0
2378,62.0,0,40,1.0,0.0
2379,47.0,0,90,0.0,0.0
2380,55.0,48,40,1.0,0.0
2381,62.0,48,40,1.0,0.0
2382,45.0,48,90,0.0,0.0
2383,53.0,48,40,1.0,0.0
2384,62.0,0,40,1.0,0.0
2385,55.0,48,40,1.0,0.0
2386,47.0,0,90,0.0,0.0
2387,62.0,48,40,1.0,0.0
2388,52.0,48,40,1.0,0.0
2389,48.0,48,180,0.0,0.0
2390,60.0,48,40,1.0,0.0
2391,55.0,48,40,1.0,0.0
2392,60.0,0,40,1.0,0.0
2393,52.0,48,40,1.0,0.0
2394,43.0,0,90,0.0,0.0
2395,60.0,48,40,1.0,0.0
2396,55.0,48,40,1.0,0.0
2397,60.0,0,40,1.0,0.0
2398,53.0,48,40,1.0,0.0
2399,72.0,48,15,0.0,0.0
2400,62.0,48,40,1.0,0.0
2401,71.0,48,90,0.0,0.0
2402,55.0,48,40,1.0,0.0
2403,62.0,0,40,1.0,0.0
2404,53.0,48,40,1.0,0.0
2405,69.0,0,90,0.0,0.0
2406,62.0,48,40,1.0,0.0
2407,71.0,0,90,0.0,0.0
2408,55.0,48,40,1.0,0.0
2409,62.0,48,40,1.0,0.0
2410,72.0,48,180,0.0,0.0
2411,52.0,48,40,1.0,0.0
2412,60.0,48,40,1.0,0.0
2413,55.0,48,40,1.0,0.0
2414,60.0,0,40,1.0,0.0
2415,67.0,48,90,0.0,0.0
2416,52.0,48,40,1.0,0.0
2417,60.0,0,40,1.0,0.0
2418,55.0,34,40,1.0,0.0
2419,60.0,48,40,1.0,0.0
2420,48.0,14,30,0.0,0.0
2421,48.0,0,40,0.0,0.0
2422,53.0,48,40,1.0,0.0
2423,62.0,0,40,1.0,0.0
2424,47.0,48,40,0.0,0.0
2425,55.0,48,40,1.0,0.0
2426,52.0,0,40,0.0,0.0
2427,50.0,48,40,0.0,0.0
2428,62.0,0,40,1.0,0.0
2429,53.0,0,40,1.0,0.0
2430,48.0,48,40,0.0,0.0
2431,62.0,48,40,1.0,0.0
2432,47.0,0,40,0.0,0.0
2433,45.0,0,40,0.0,0.0
2434,55.0,48,40,1.0,0.0
2435,62.0,0,40,1.0,0.0
2436,52.0,48,40,1.0,0.0
2437,43.0,24,15,0.0,0.0
2438,48.0,48,180,0.0,0.0
2439,60.0,48,40,1.0,0.0
2440,55.0,48,40,1.0,0.0
2441,60.0,0,40,1.0,0.0
2442,43.0,0,90,0.0,0.0
2443,52.0,48,40,1.0,0.0
2444,60.0,48,40,1.0,0.0
2445,55.0,32,40,1.0,0.0
2446,72.0,16,30,0.0,0.0
2447,60.0,48,40,1.0,0.0
2448,72.0,0,40,0.0,0.0
2449,53.0,48,40,1.0,0.0
2450,71.0,0,40,0.0,0.0
2451,62.0,48,40,1.0,0.0
2452,76.0,48,40,0.0,0.0
2453,55.0,0,40,1.0,0.0
2454,62.0,0,40,1.0,0.0
2455,74.0,48,40,0.0,0.0
2456,72.0,48,40,0.0,0.0
2457,53.0,0,40,1.0,0.0
2458,71.0,0,40,0.0,0.0
2459,62.0,48,40,1.0,0.0
2460,55.0,48,40,1.0,0.0
2461,69.0,0,40,0.0,0.0
2462,67.0,0,40,0.0,0.0
2463,62.0,24,40,1.0,0.0
2464,67.0,24,20,0.0,0.0
2465,52.0,48,40,1.0,0.0
2466,72.0,0,180,0.0,0.0
2467,60.0,48,40,1.0,0.0
2468,55.0,48,40,1.0,0.0
2469,60.0,48,40,1.0,0.0
2470,52.0,48,40,1.0,0.0
2471,67.0,48,90,0.0,0.0
2472,60.0,0,40,1.0,0.0
2473,55.0,34,40,1.0,0.0
2474,48.0,14,30,0.0,0.0
2475,60.0,48,40,1.0,0.0
2476,53.0,48,40,1.0,0.0
2477,48.0,0,40,0.0,0.0
2478,47.0,0,40,0.0,0.0
2479,62.0,48,40,1.0,0.0
2480,52.0,48,40,0.0,0.0
2481,55.0,0,40,1.0,0.0
2482,62.0,0,40,1.0,0.0
2483,50.0,48,40,0.0,0.0
2484,53.0,0,40,1.0,0.0
2485,48.0,48,40,0.0,0.0
2486,62.0,48,40,1.0,0.0
2487,47.0,0,40,0.0,0.0
2488,55.0,48,40,1.0,0.0
2489,45.0,0,40,0.0,0.0
2490,43.0,0,40,0.0,0.0
2491,62.0,48,40,1.0,0.0
2492,48.0,48,180,0.0,0.0
2493,52.0,48,40,1.0,0.0
2494,60.0,48,40,1.0,0.0
2495,55.0,48,40,1.0,0.0
2496,60.0,0,40,1.0,0.0
2497,52.0,48,40,1.0,0.0
2498,49.0,48,180,0.0,0.0
2499,58.0,48,40,1.0,0.0
2500,55.0,48,40,1.0,0.0
2501,58.0,0,40,1.0,0.0
2502,53.0,48,40,1.0,0.0
2503,50.0,0,180,0.0,0.0
2504,57.0,48,40,1.0,0.0
2505,56.0,48,40,1.0,0.0
2506,57.0,48,40,1.0,0.0
2507,51.0,0,180,0.0,0.0
2508,54.0,48,40,1.0,0.0
2509,57.0,48,40,1.0,0.0
2510,59.0,48,40,1.0,0.0
2511,57.0,48,40,1.0,0.0
2512,52.0,0,180,0.0,0.0
2513,55.0,48,40,1.0,0.0
2514,59.0,48,40,1.0,0.0
2515,57.0,48,40,1.0,0.0
2516,59.0,48,40,1.0,0.0
2517,55.0,48,40,1.0,0.0
2518,52.0,48,180,0.0,0.0
2519,58.0,48,40,1.0,0.0
2520,60.0,48,40,1.0,0.0
2521,58.0,0,40,1.0,0.0
2522,57.0,48,40,1.0,0.0
2523,53.0,48,180,0.0,0.0
2524,60.0,48,40,1.0,0.0
2525,59.0,48,40,1.0,0.0
2526,60.0,0,40,1.0,0.0
2527,57.0,48,40,1.0,0.0
2528,54.0,32,180,0.0,0.0
2529,60.0,48,40,1.0,0.0
2530,62.0,48,40,1.0,0.0
2531,60.0,0,15,1.0,0.0
2532,55.0,32,30,0.0,0.0
2533,64.0,0,180,1.0,0.0
2534,56.0,32,30,0.0,0.0
2535,57.0,32,30,0.0,0.0
2536,58.0,32,30,0.0,0.0
2537,59.0,32,30,0.0,0.0
2538,60.0,32,30,0.0,0.0
2539,61.0,32,30,0.0,0.0
2540,62.0,32,30,0.0,0.0
2541,63.0,32,30,0.0,0.0
2542,64.0,32,30,0.0,0.0
2543,65.0,32,30,0.0,0.0
2544,66.0,32,30,0.0,0.0
2545,67.0,32,30,0.0,0.0
2546,68.0,32,30,0.0,0.0
2547,69.0,32,30,0.0,0.0
2548,70.0,32,30,0.0,0.0
2549,71.0,32,30,0.0,0.0
2550,72.0,32,30,0.0,0.0
2551,73.0,32,30,0.0,0.0
2552,74.0,32,30,0.0,0.0
2553,75.0,32,30,0.0,0.0
2554,76.0,32,30,0.0,0.0
2555,77.0,32,30,0.0,0.0
2556,78.0,16,30,0.0,0.0
2557,79.0,16,15,0.0,0.0
2558,80.0,16,15,0.0,0.0
2559,81.0,16,15,0.0,0.0
2560,82.0,16,15,0.0,0.0
2561,83.0,16,15,0.0,0.0
2562,84.0,16,15,0.0,0.0
2563,85.0,16,15,0.0,0.0
2564,86.0,16,15,0.0,0.0
2565,87.0,32,15,0.0,0.0
2566,88.0,96,30,0.0,0.0
2567,86.0,96,30,0.0,0.0
2568,84.0,96,30,0.0,0.0
2569,83.0,96,30,0.0,0.0
2570,81.0,96,30,0.0,0.0
2571,79.0,132,30,0.0,0.0
2572,77.0,96,60,0.0,0.0
2573,76.0,96,60,0.0,0.0
2574,74.0,96,60,0.0,0.0
2575,72.0,96,60,0.0,0.0
2576,71.0,96,60,0.0,0.0
2577,69.0,96,60,0.0,0.0
2578,67.0,60,60,0.0,0.0
2579,66.0,160,30,0.0,0.0
2580,43.0,0,390,1.0,0.0
2581,67.0,96,90,0.0,0.0
2582,52.0,0,390,1.0,0.0
2583,48.0,0,390,1.0,0.0
2584,72.0,96,90,0.0,0.0
2585,76.0,96,90,0.0,0.0
2586,79.0,96,15,0.0,0.0
2587,50.0,0,390,1.0,0.0
2588,43.0,0,390,1.0,0.0
2589,53.0,0,390,1.0,0.0
2590,77.0,96,90,0.0,0.0
2591,74.0,96,90,0.0,0.0
2592,71.0,192,90,0.0,0.0
2593,48.0,0,180,1.0,0.0
2594,52.0,0,180,1.0,0.0
2595,72.0,192,180,0.0,0.0
2596,55.0,48,40,1.0,0.0
2597,64.0,0,40,1.0,0.0
2598,60.0,192,40,1.0,0.0
2599,64.0,0,40,1.0,0.0
2600,60.0,144,40,1.0,0.0
2601,67.0,96,40,0.0,0.0
2602,64.0,0,90,1.0,0.0
2603,60.0,96,90,1.0,0.0
2604,79.0,0,390,0.0,0.0
2605,59.0,96,90,1.0,0.0
2606,62.0,0,90,1.0,0.0
2607,61.0,0,90,1.0,0.0
2608,58.0,96,90,1.0,0.0
2609,62.0,0,90,1.0,0.0
2610,59.0,24,90,1.0,0.0
2611,55.0,56,20,1.0,0.0
2612,62.0,160,60,1.0,0.0
2613,65.0,0,60,1.0,0.0
2614,62.0,0,40,1.0,0.0
2615,65.0,144,40,1.0,0.0
2616,67.0,96,40,0.0,0.0
2617,65.0,96,90,1.0,0.0
2618,62.0,0,90,1.0,0.0
2619,64.0,0,90,1.0,0.0
2620,60.0,96,90,1.0,0.0
2621,63.0,96,90,1.0,0.0
2622,59.0,0,90,1.0,0.0
2623,64.0,0,90,1.0,0.0
2624,60.0,0,90,1.0,0.0
2625,61.0,0,120,1.0,0.0
2626,52.0,120,120,1.0,0.0
2627,79.0,48,15,0.0,0.0
2628,70.0,72,40,0.0,0.0
2629,52.0,0,40,1.0,0.0
2630,79.0,0,40,0.0,0.0
2631,70.0,240,40,0.0,0.0
2632,61.0,0,40,1.0,0.0
2633,69.0,0,390,0.0,0.0
2634,53.0,0,390,1.0,0.0
2635,61.0,96,90,1.0,0.0
2636,79.0,0,90,0.0,0.0
2637,77.0,0,90,0.0,0.0
2638,62.0,96,90,1.0,0.0
2639,76.0,0,90,0.0,0.0
2640,64.0,96,90,1.0,0.0
2641,65.0,0,90,1.0,0.0
2642,74.0,32,90,0.0,0.0
2643,64.0,0,30,1.0,0.0
2644,55.0,64,30,1.0,0.0
2645,67.0,0,90,0.0,0.0
2646,72.0,128,90,0.0,0.0
2647,71.0,0,30,0.0,0.0
2648,67.0,0,30,0.0,0.0
2649,43.0,352,30,1.0,0.0
2650,65.0,0,30,0.0,0.0
2651,55.0,0,30,1.0,0.0
2652,62.0,0,30,0.0,0.0
2653,48.0,0,180,1.0,0.0
2654,72.0,0,180,0.0,0.0
2655,67.0,0,180,0.0,0.0
2656,64.0,0,180,0.0,0.0
2657,36.0,0,180,1.0,0.0
