,note,step,duration,channel,velocity
0,65.0,0,215,0.0,64.0
1,65.0,0,215,0.0,79.0
2,58.0,0,431,1.0,79.0
3,46.0,240,431,1.0,79.0
4,62.0,240,215,0.0,79.0
5,70.0,240,107,0.0,79.0
6,70.0,240,215,0.0,79.0
7,65.0,240,215,0.0,79.0
8,74.0,240,107,0.0,79.0
9,74.0,240,215,0.0,79.0
10,70.0,240,215,0.0,79.0
11,77.0,240,107,0.0,79.0
12,77.0,240,431,0.0,79.0
13,72.0,0,215,0.0,79.0
14,75.0,480,215,0.0,79.0
15,57.0,0,215,1.0,79.0
16,74.0,0,215,0.0,79.0
17,70.0,0,215,0.0,79.0
18,72.0,240,107,0.0,79.0
19,75.0,0,107,0.0,79.0
20,65.0,0,671,1.0,79.0
21,58.0,240,431,1.0,79.0
22,74.0,0,107,0.0,79.0
23,77.0,240,107,0.0,79.0
24,75.0,0,215,0.0,79.0
25,79.0,240,215,0.0,79.0
26,63.0,0,431,1.0,79.0
27,75.0,240,215,0.0,79.0
28,72.0,0,215,0.0,79.0
29,74.0,0,215,0.0,79.0
30,64.0,240,215,1.0,79.0
31,70.0,0,215,0.0,79.0
32,69.0,240,107,0.0,79.0
33,72.0,0,107,0.0,79.0
34,65.0,0,215,1.0,79.0
35,69.0,240,107,0.0,79.0
36,72.0,0,107,0.0,79.0
37,65.0,0,215,1.0,79.0
38,75.0,240,107,0.0,79.0
39,72.0,0,107,0.0,79.0
40,64.0,0,215,1.0,79.0
41,74.0,0,107,0.0,79.0
42,70.0,120,107,0.0,79.0
43,65.0,0,431,1.0,79.0
44,72.0,120,431,0.0,79.0
45,69.0,0,431,0.0,79.0
46,65.0,480,215,0.0,79.0
47,65.0,0,215,0.0,79.0
48,58.0,240,431,1.0,79.0
49,46.0,0,431,1.0,79.0
50,62.0,240,215,0.0,79.0
51,70.0,240,107,0.0,79.0
52,70.0,240,215,0.0,79.0
53,65.0,240,215,0.0,79.0
54,74.0,240,107,0.0,79.0
55,74.0,240,215,0.0,79.0
56,70.0,240,215,0.0,79.0
57,77.0,240,107,0.0,79.0
58,77.0,240,431,0.0,79.0
59,76.0,0,215,0.0,79.0
60,58.0,0,215,1.0,79.0
61,79.0,0,215,0.0,79.0
62,60.0,480,455,1.0,79.0
63,57.0,0,215,1.0,79.0
64,77.0,0,215,0.0,79.0
65,81.0,240,215,0.0,79.0
66,82.0,0,107,0.0,79.0
67,79.0,0,107,0.0,79.0
68,55.0,240,107,1.0,79.0
69,84.0,0,107,0.0,79.0
70,81.0,240,107,0.0,79.0
71,53.0,0,107,1.0,79.0
72,82.0,0,215,0.0,79.0
73,79.0,240,215,0.0,79.0
74,58.0,0,431,1.0,79.0
75,81.0,0,215,0.0,79.0
76,77.0,240,215,0.0,79.0
77,76.0,0,215,0.0,79.0
78,60.0,240,215,1.0,79.0
79,79.0,0,215,0.0,79.0
80,53.0,240,107,1.0,79.0
81,69.0,0,107,0.0,79.0
82,77.0,0,107,0.0,79.0
83,69.0,240,107,0.0,79.0
84,77.0,0,107,0.0,79.0
85,48.0,0,107,1.0,79.0
86,69.0,240,107,0.0,79.0
87,77.0,0,107,0.0,79.0
88,45.0,0,107,1.0,79.0
89,41.0,240,215,1.0,79.0
90,77.0,0,215,0.0,79.0
91,69.0,0,215,0.0,79.0
92,72.0,300,53,0.0,79.0
93,74.0,60,53,0.0,79.0
94,75.0,60,53,0.0,79.0
95,77.0,60,53,0.0,79.0
96,79.0,60,53,0.0,79.0
97,81.0,60,53,0.0,79.0
98,82.0,60,53,0.0,79.0
99,63.0,0,107,1.0,56.0
100,65.0,120,107,1.0,56.0
101,63.0,120,107,1.0,56.0
102,84.0,0,431,0.0,64.0
103,65.0,120,107,1.0,56.0
104,63.0,0,107,1.0,56.0
105,53.0,60,646,1.0,64.0
106,82.0,120,215,0.0,64.0
107,65.0,120,107,1.0,56.0
108,82.0,120,53,0.0,64.0
109,63.0,0,107,1.0,56.0
110,81.0,60,80,0.0,64.0
111,65.0,60,107,1.0,56.0
112,63.0,120,107,1.0,56.0
113,79.0,0,215,0.0,64.0
114,65.0,120,107,1.0,56.0
115,63.0,120,107,1.0,56.0
116,81.0,0,107,0.0,64.0
117,53.0,0,646,1.0,64.0
118,65.0,120,107,1.0,56.0
119,62.0,0,107,1.0,56.0
120,65.0,120,107,1.0,56.0
121,62.0,120,107,1.0,56.0
122,82.0,120,431,0.0,64.0
123,65.0,120,107,1.0,56.0
124,62.0,120,107,1.0,56.0
125,53.0,0,646,1.0,64.0
126,77.0,0,215,0.0,64.0
127,65.0,120,107,1.0,56.0
128,62.0,0,107,1.0,56.0
129,65.0,120,107,1.0,56.0
130,62.0,120,107,1.0,56.0
131,74.0,0,431,0.0,64.0
132,65.0,120,107,1.0,56.0
133,62.0,0,107,1.0,56.0
134,53.0,120,646,1.0,64.0
135,82.0,120,215,0.0,64.0
136,65.0,120,107,1.0,56.0
137,86.0,120,53,0.0,64.0
138,63.0,0,107,1.0,56.0
139,65.0,60,107,1.0,56.0
140,63.0,120,107,1.0,56.0
141,84.0,60,395,0.0,64.0
142,65.0,120,107,1.0,56.0
143,82.0,120,107,0.0,64.0
144,63.0,0,107,1.0,56.0
145,53.0,0,646,1.0,64.0
146,65.0,120,107,1.0,56.0
147,82.0,0,53,0.0,64.0
148,63.0,0,107,1.0,56.0
149,81.0,60,161,0.0,64.0
150,65.0,60,107,1.0,56.0
151,63.0,120,107,1.0,56.0
152,79.0,0,107,0.0,64.0
153,65.0,120,107,1.0,56.0
154,63.0,120,107,1.0,56.0
155,81.0,0,107,0.0,64.0
156,53.0,120,646,1.0,64.0
157,65.0,120,107,1.0,56.0
158,62.0,0,107,1.0,56.0
159,65.0,120,107,1.0,56.0
160,62.0,120,107,1.0,56.0
161,82.0,120,431,0.0,64.0
162,65.0,120,107,1.0,56.0
163,62.0,120,107,1.0,56.0
164,53.0,0,646,1.0,64.0
165,77.0,0,215,0.0,64.0
166,65.0,120,107,1.0,56.0
167,62.0,120,107,1.0,56.0
168,65.0,120,107,1.0,56.0
169,62.0,120,107,1.0,56.0
170,82.0,0,431,0.0,64.0
171,65.0,120,107,1.0,56.0
172,62.0,0,107,1.0,56.0
173,53.0,0,646,1.0,64.0
174,86.0,120,215,0.0,64.0
175,65.0,120,107,1.0,56.0
176,86.0,0,53,0.0,64.0
177,63.0,120,107,1.0,56.0
178,65.0,60,107,1.0,56.0
179,63.0,120,107,1.0,56.0
180,84.0,60,395,0.0,64.0
181,65.0,120,107,1.0,56.0
182,63.0,120,107,1.0,56.0
183,82.0,0,107,0.0,64.0
184,65.0,120,107,1.0,56.0
185,82.0,120,53,0.0,64.0
186,60.0,0,107,1.0,56.0
187,81.0,60,161,0.0,64.0
188,63.0,60,107,1.0,56.0
189,79.0,0,107,0.0,64.0
190,60.0,120,107,1.0,56.0
191,63.0,120,107,1.0,56.0
192,60.0,0,107,1.0,56.0
193,81.0,120,107,0.0,64.0
194,63.0,120,107,1.0,56.0
195,62.0,120,107,1.0,56.0
196,65.0,120,107,1.0,56.0
197,62.0,120,107,1.0,56.0
198,65.0,120,107,1.0,56.0
199,62.0,120,107,1.0,56.0
200,82.0,0,646,0.0,64.0
201,65.0,120,107,1.0,56.0
202,57.0,120,107,1.0,64.0
203,60.0,0,107,1.0,56.0
204,62.0,120,107,1.0,56.0
205,60.0,120,107,1.0,56.0
206,57.0,0,107,1.0,64.0
207,77.0,0,431,0.0,64.0
208,62.0,120,107,1.0,56.0
209,57.0,120,107,1.0,64.0
210,60.0,0,107,1.0,56.0
211,78.0,0,215,0.0,64.0
212,62.0,120,107,1.0,56.0
213,58.0,120,107,1.0,56.0
214,62.0,120,107,1.0,56.0
215,58.0,120,107,1.0,56.0
216,79.0,0,431,0.0,64.0
217,62.0,120,107,1.0,56.0
218,58.0,120,107,1.0,56.0
219,55.0,0,646,1.0,64.0
220,79.0,0,215,0.0,64.0
221,62.0,120,107,1.0,56.0
222,81.0,120,53,0.0,64.0
223,58.0,0,107,1.0,56.0
224,79.0,60,80,0.0,64.0
225,62.0,60,107,1.0,56.0
226,58.0,120,107,1.0,56.0
227,78.0,0,107,0.0,64.0
228,62.0,120,107,1.0,56.0
229,58.0,120,107,1.0,56.0
230,79.0,0,107,0.0,64.0
231,55.0,0,646,1.0,64.0
232,62.0,120,107,1.0,56.0
233,60.0,0,107,1.0,56.0
234,62.0,120,107,1.0,56.0
235,60.0,120,107,1.0,56.0
236,81.0,120,431,0.0,64.0
237,62.0,120,107,1.0,56.0
238,60.0,120,107,1.0,56.0
239,50.0,0,646,1.0,64.0
240,78.0,0,215,0.0,64.0
241,62.0,120,107,1.0,56.0
242,60.0,120,107,1.0,56.0
243,62.0,120,107,1.0,56.0
244,60.0,120,107,1.0,56.0
245,74.0,0,431,0.0,64.0
246,62.0,120,107,1.0,56.0
247,60.0,120,107,1.0,56.0
248,50.0,0,646,1.0,64.0
249,78.0,0,215,0.0,64.0
250,62.0,120,107,1.0,56.0
251,79.0,0,85,0.0,64.0
252,58.0,0,107,1.0,56.0
253,81.0,95,86,0.0,64.0
254,62.0,25,107,1.0,56.0
255,79.0,71,86,0.0,64.0
256,58.0,49,107,1.0,56.0
257,78.0,46,86,0.0,64.0
258,62.0,74,107,1.0,56.0
259,79.0,22,86,0.0,64.0
260,58.0,2,107,1.0,56.0
261,55.0,120,646,1.0,64.0
262,82.0,96,215,0.0,64.0
263,62.0,120,107,1.0,56.0
264,79.0,118,85,0.0,64.0
265,58.0,0,107,1.0,56.0
266,81.0,93,86,0.0,64.0
267,62.0,27,107,1.0,56.0
268,79.0,69,86,0.0,64.0
269,58.0,51,107,1.0,56.0
270,78.0,45,85,0.0,64.0
271,79.0,20,86,0.0,64.0
272,62.0,75,107,1.0,56.0
273,58.0,4,107,1.0,56.0
274,55.0,2,646,1.0,64.0
275,82.0,96,215,0.0,64.0
276,62.0,120,107,1.0,56.0
277,79.0,0,85,0.0,64.0
278,58.0,120,107,1.0,56.0
279,81.0,95,86,0.0,64.0
280,60.0,25,107,1.0,56.0
281,79.0,71,86,0.0,64.0
282,58.0,49,107,1.0,56.0
283,78.0,46,86,0.0,64.0
284,60.0,74,107,1.0,56.0
285,79.0,22,86,0.0,64.0
286,58.0,2,107,1.0,56.0
287,55.0,0,646,1.0,64.0
288,82.0,96,215,0.0,64.0
289,62.0,120,107,1.0,56.0
290,72.0,118,107,0.0,64.0
291,58.0,0,107,1.0,56.0
292,60.0,120,107,1.0,56.0
293,74.0,118,107,0.0,64.0
294,58.0,2,107,1.0,56.0
295,60.0,120,107,1.0,56.0
296,76.0,118,107,0.0,64.0
297,58.0,2,107,1.0,56.0
298,55.0,2,646,1.0,64.0
299,60.0,120,107,1.0,56.0
300,77.0,0,85,0.0,64.0
301,57.0,0,107,1.0,56.0
302,79.0,95,86,0.0,64.0
303,60.0,25,107,1.0,56.0
304,77.0,71,86,0.0,64.0
305,57.0,49,107,1.0,56.0
306,76.0,46,86,0.0,64.0
307,60.0,74,107,1.0,56.0
308,77.0,22,86,0.0,64.0
309,57.0,2,107,1.0,56.0
310,53.0,120,646,1.0,64.0
311,81.0,96,215,0.0,64.0
312,60.0,120,107,1.0,56.0
313,72.0,118,107,0.0,64.0
314,58.0,0,107,1.0,56.0
315,60.0,120,107,1.0,56.0
316,74.0,118,107,0.0,64.0
317,58.0,2,107,1.0,56.0
318,60.0,120,107,1.0,56.0
319,76.0,118,107,0.0,64.0
320,58.0,2,107,1.0,56.0
321,48.0,2,646,1.0,64.0
322,60.0,120,107,1.0,56.0
323,77.0,0,85,0.0,64.0
324,57.0,0,107,1.0,56.0
325,79.0,95,86,0.0,64.0
326,60.0,25,107,1.0,56.0
327,77.0,71,86,0.0,64.0
328,57.0,49,107,1.0,56.0
329,76.0,46,86,0.0,64.0
330,60.0,74,107,1.0,56.0
331,77.0,22,86,0.0,64.0
332,57.0,2,107,1.0,56.0
333,53.0,120,646,1.0,64.0
334,81.0,96,215,0.0,64.0
335,60.0,120,107,1.0,56.0
336,72.0,118,107,0.0,64.0
337,58.0,2,107,1.0,56.0
338,60.0,120,107,1.0,56.0
339,74.0,118,107,0.0,64.0
340,58.0,2,107,1.0,56.0
341,60.0,120,107,1.0,56.0
342,76.0,118,107,0.0,64.0
343,58.0,2,107,1.0,56.0
344,48.0,0,646,1.0,64.0
345,60.0,120,107,1.0,56.0
346,77.0,0,85,0.0,64.0
347,79.0,95,86,0.0,64.0
348,77.0,96,86,0.0,64.0
349,76.0,95,86,0.0,64.0
350,53.0,120,431,1.0,64.0
351,57.0,0,431,1.0,64.0
352,77.0,96,86,0.0,64.0
353,81.0,96,215,0.0,64.0
354,77.0,240,85,0.0,64.0
355,79.0,95,86,0.0,64.0
356,77.0,96,86,0.0,64.0
357,76.0,96,85,0.0,64.0
358,77.0,95,86,0.0,64.0
359,84.0,96,215,0.0,64.0
360,77.0,244,85,0.0,64.0
361,79.0,95,86,0.0,64.0
362,77.0,96,86,0.0,64.0
363,76.0,95,86,0.0,64.0
364,77.0,96,86,0.0,64.0
365,81.0,96,215,0.0,64.0
366,77.0,240,85,0.0,64.0
367,79.0,95,86,0.0,64.0
368,77.0,96,86,0.0,64.0
369,76.0,96,85,0.0,64.0
370,77.0,95,86,0.0,64.0
371,84.0,96,215,0.0,64.0
372,81.0,244,107,0.0,79.0
373,87.0,240,215,0.0,79.0
374,60.0,0,646,1.0,79.0
375,63.0,0,646,1.0,79.0
376,57.0,0,646,1.0,79.0
377,53.0,0,646,1.0,79.0
378,84.0,240,215,0.0,79.0
379,81.0,240,215,0.0,79.0
380,77.0,240,107,0.0,79.0
381,76.0,240,107,0.0,79.0
382,75.0,0,215,0.0,79.0
383,72.0,240,215,0.0,79.0
384,69.0,240,107,0.0,79.0
385,51.0,240,646,1.0,79.0
386,48.0,0,646,1.0,79.0
387,45.0,0,646,1.0,79.0
388,41.0,0,646,1.0,79.0
389,65.0,240,215,0.0,79.0
390,64.0,240,107,0.0,79.0
391,63.0,240,107,0.0,79.0
392,62.0,0,215,0.0,64.0
393,46.0,240,431,1.0,64.0
394,58.0,240,215,0.0,64.0
395,65.0,240,107,0.0,64.0
396,65.0,240,215,0.0,64.0
397,62.0,240,215,0.0,64.0
398,70.0,240,107,0.0,64.0
399,70.0,240,215,0.0,64.0
400,65.0,240,215,0.0,64.0
401,74.0,240,107,0.0,64.0
402,77.0,240,431,0.0,64.0
403,57.0,480,215,1.0,64.0
404,72.0,0,215,0.0,64.0
405,75.0,0,215,0.0,64.0
406,74.0,0,215,0.0,64.0
407,70.0,240,215,0.0,64.0
408,72.0,0,107,0.0,64.0
409,75.0,240,107,0.0,64.0
410,58.0,0,431,1.0,64.0
411,65.0,0,671,1.0,64.0
412,74.0,0,107,0.0,64.0
413,77.0,240,107,0.0,64.0
414,75.0,0,215,0.0,64.0
415,79.0,0,215,0.0,64.0
416,63.0,240,431,1.0,64.0
417,72.0,0,215,0.0,64.0
418,75.0,240,215,0.0,64.0
419,74.0,0,107,0.0,64.0
420,70.0,0,107,0.0,64.0
421,64.0,240,215,1.0,64.0
422,69.0,0,107,0.0,64.0
423,72.0,240,107,0.0,64.0
424,65.0,0,107,1.0,64.0
425,72.0,0,107,0.0,64.0
426,65.0,0,107,1.0,64.0
427,69.0,240,107,0.0,64.0
428,64.0,0,107,1.0,64.0
429,75.0,0,107,0.0,64.0
430,72.0,240,107,0.0,64.0
431,74.0,120,107,0.0,64.0
432,70.0,0,107,0.0,64.0
433,65.0,120,431,1.0,64.0
434,69.0,0,431,0.0,64.0
435,72.0,0,431,0.0,64.0
436,65.0,480,215,0.0,64.0
437,67.0,0,53,0.0,64.0
438,65.0,60,161,0.0,64.0
439,58.0,240,431,1.0,64.0
440,46.0,0,431,1.0,64.0
441,62.0,180,215,0.0,64.0
442,70.0,240,107,0.0,64.0
443,72.0,240,53,0.0,64.0
444,70.0,60,161,0.0,64.0
445,65.0,180,215,0.0,64.0
446,74.0,240,107,0.0,64.0
447,75.0,240,53,0.0,64.0
448,74.0,60,161,0.0,64.0
449,70.0,180,215,0.0,64.0
450,77.0,240,107,0.0,64.0
451,77.0,240,431,0.0,64.0
452,75.0,0,215,0.0,64.0
453,79.0,480,215,0.0,64.0
454,74.0,240,215,0.0,64.0
455,77.0,0,215,0.0,64.0
456,72.0,0,107,0.0,64.0
457,75.0,240,107,0.0,64.0
458,53.0,0,431,1.0,64.0
459,74.0,0,107,0.0,64.0
460,70.0,240,107,0.0,64.0
461,72.0,0,107,0.0,64.0
462,63.0,0,107,0.0,64.0
463,70.0,0,107,0.0,64.0
464,62.0,240,107,0.0,64.0
465,41.0,240,431,1.0,64.0
466,69.0,0,107,0.0,64.0
467,60.0,240,107,0.0,64.0
468,58.0,0,107,1.0,64.0
469,53.0,240,107,1.0,64.0
470,62.0,0,431,0.0,64.0
471,70.0,240,431,0.0,64.0
472,50.0,240,107,1.0,64.0
473,46.0,240,431,1.0,64.0
474,77.0,480,215,0.0,64.0
475,77.0,240,215,0.0,49.0
476,60.0,0,215,1.0,44.0
477,69.0,240,215,0.0,49.0
478,63.0,0,215,1.0,44.0
479,69.0,0,107,0.0,49.0
480,65.0,240,215,1.0,44.0
481,72.0,0,53,0.0,49.0
482,70.0,60,80,0.0,49.0
483,58.0,240,215,1.0,44.0
484,69.0,180,107,0.0,49.0
485,62.0,0,215,1.0,44.0
486,70.0,240,107,0.0,49.0
487,65.0,0,215,1.0,44.0
488,57.0,0,215,1.0,44.0
489,60.0,240,215,1.0,44.0
490,71.0,240,646,0.0,49.0
491,65.0,240,215,1.0,44.0
492,51.0,240,215,1.0,44.0
493,72.0,0,431,0.0,49.0
494,57.0,240,215,1.0,44.0
495,77.0,240,107,0.0,49.0
496,60.0,0,215,1.0,44.0
497,50.0,240,215,1.0,44.0
498,77.0,0,215,0.0,49.0
499,70.0,0,215,0.0,49.0
500,53.0,240,215,1.0,44.0
501,70.0,0,107,0.0,49.0
502,58.0,240,215,1.0,44.0
503,74.0,240,53,0.0,49.0
504,72.0,60,80,0.0,49.0
505,48.0,0,215,1.0,44.0
506,70.0,180,107,0.0,49.0
507,53.0,0,215,1.0,44.0
508,72.0,240,107,0.0,49.0
509,57.0,0,215,1.0,44.0
510,46.0,0,215,1.0,44.0
511,53.0,240,215,1.0,44.0
512,73.0,240,646,0.0,49.0
513,58.0,240,215,1.0,44.0
514,46.0,0,215,1.0,44.0
515,74.0,240,431,0.0,49.0
516,53.0,240,215,1.0,44.0
517,58.0,240,215,1.0,44.0
518,77.0,0,215,0.0,49.0
519,50.0,240,215,1.0,44.0
520,82.0,0,215,0.0,49.0
521,53.0,240,215,1.0,44.0
522,81.0,0,215,0.0,49.0
523,79.0,240,107,0.0,49.0
524,58.0,0,215,1.0,44.0
525,50.0,0,215,1.0,44.0
526,77.0,240,215,0.0,49.0
527,53.0,0,215,1.0,44.0
528,75.0,240,215,0.0,49.0
529,74.0,240,107,0.0,49.0
530,58.0,0,215,1.0,44.0
531,51.0,240,215,1.0,44.0
532,74.0,0,215,0.0,49.0
533,55.0,240,215,1.0,44.0
534,72.0,0,215,0.0,49.0
535,71.0,240,215,0.0,49.0
536,59.0,0,215,1.0,44.0
537,51.0,0,215,1.0,44.0
538,72.0,240,215,0.0,49.0
539,75.0,240,215,0.0,49.0
540,55.0,0,215,1.0,44.0
541,79.0,0,215,0.0,49.0
542,60.0,240,215,1.0,44.0
543,53.0,0,215,1.0,44.0
544,77.0,240,215,0.0,49.0
545,74.0,240,107,0.0,49.0
546,58.0,0,215,1.0,44.0
547,70.0,0,107,0.0,49.0
548,62.0,240,215,1.0,44.0
549,65.0,0,107,0.0,49.0
550,53.0,240,215,1.0,44.0
551,67.0,0,107,0.0,49.0
552,60.0,240,215,1.0,44.0
553,69.0,0,107,0.0,49.0
554,63.0,240,215,1.0,44.0
555,46.0,0,215,1.0,44.0
556,70.0,240,431,0.0,49.0
557,50.0,240,215,1.0,44.0
558,53.0,240,215,1.0,44.0
559,70.0,0,107,0.0,49.0
560,72.0,120,107,0.0,49.0
561,74.0,120,107,0.0,49.0
562,58.0,240,431,1.0,44.0
563,75.0,120,107,0.0,49.0
564,77.0,120,53,0.0,49.0
565,79.0,60,53,0.0,49.0
566,81.0,60,53,0.0,49.0
567,82.0,60,53,0.0,49.0
568,51.0,60,215,1.0,64.0
569,84.0,0,431,0.0,64.0
570,57.0,240,215,1.0,64.0
571,60.0,240,215,1.0,64.0
572,82.0,0,215,0.0,64.0
573,82.0,0,53,0.0,64.0
574,81.0,60,80,0.0,64.0
575,51.0,240,215,1.0,64.0
576,79.0,180,107,0.0,64.0
577,57.0,0,215,1.0,64.0
578,81.0,0,107,0.0,64.0
579,60.0,240,215,1.0,64.0
580,50.0,240,215,1.0,64.0
581,53.0,240,215,1.0,64.0
582,82.0,0,646,0.0,64.0
583,58.0,240,215,1.0,64.0
584,50.0,0,215,1.0,64.0
585,77.0,240,431,0.0,64.0
586,53.0,240,215,1.0,64.0
587,86.0,0,107,0.0,64.0
588,58.0,240,215,1.0,64.0
589,51.0,0,215,1.0,64.0
590,86.0,240,215,0.0,64.0
591,55.0,240,215,1.0,64.0
592,84.0,0,215,0.0,64.0
593,83.0,0,107,0.0,64.0
594,59.0,240,215,1.0,64.0
595,52.0,0,215,1.0,64.0
596,84.0,240,215,0.0,64.0
597,86.0,0,215,0.0,64.0
598,55.0,240,215,1.0,64.0
599,82.0,240,107,0.0,64.0
600,60.0,0,215,1.0,64.0
601,53.0,240,215,1.0,64.0
602,81.0,0,431,0.0,64.0
603,57.0,240,215,1.0,64.0
604,60.0,240,215,1.0,64.0
605,81.0,0,107,0.0,64.0
606,53.0,240,215,1.0,64.0
607,79.0,120,107,0.0,64.0
608,77.0,0,107,0.0,64.0
609,57.0,120,215,1.0,64.0
610,79.0,120,107,0.0,64.0
611,81.0,0,53,0.0,64.0
612,82.0,60,53,0.0,64.0
613,82.0,60,53,0.0,64.0
614,60.0,120,215,1.0,64.0
615,84.0,60,53,0.0,64.0
616,51.0,60,215,1.0,64.0
617,87.0,0,431,0.0,64.0
618,57.0,240,215,1.0,64.0
619,84.0,240,215,0.0,64.0
620,60.0,0,215,1.0,64.0
621,82.0,240,53,0.0,64.0
622,81.0,60,80,0.0,64.0
623,51.0,0,215,1.0,64.0
624,79.0,180,107,0.0,64.0
625,57.0,0,215,1.0,64.0
626,81.0,0,107,0.0,64.0
627,60.0,240,215,1.0,64.0
628,50.0,0,215,1.0,64.0
629,82.0,240,431,0.0,64.0
630,53.0,240,215,1.0,64.0
631,58.0,240,215,1.0,64.0
632,82.0,0,107,0.0,64.0
633,50.0,240,215,1.0,64.0
634,81.0,120,107,0.0,64.0
635,79.0,0,107,0.0,64.0
636,53.0,120,215,1.0,64.0
637,77.0,120,107,0.0,64.0
638,75.0,120,107,0.0,64.0
639,53.0,0,215,1.0,64.0
640,74.0,120,107,0.0,64.0
641,79.0,0,107,0.0,64.0
642,39.0,120,215,1.0,64.0
643,77.0,120,107,0.0,64.0
644,75.0,120,107,0.0,64.0
645,51.0,0,215,1.0,64.0
646,74.0,120,107,0.0,64.0
647,72.0,120,107,0.0,64.0
648,51.0,0,215,1.0,64.0
649,70.0,120,107,0.0,64.0
650,69.0,120,107,0.0,64.0
651,41.0,0,215,1.0,64.0
652,67.0,120,107,0.0,64.0
653,65.0,0,107,0.0,64.0
654,53.0,120,215,1.0,64.0
655,63.0,120,107,0.0,64.0
656,62.0,0,107,0.0,64.0
657,53.0,120,215,1.0,64.0
658,60.0,120,107,0.0,64.0
659,34.0,0,107,1.0,54.0
660,46.0,120,107,1.0,54.0
661,34.0,120,107,1.0,54.0
662,58.0,120,431,0.0,56.0
663,46.0,120,107,1.0,54.0
664,34.0,0,107,1.0,54.0
665,53.0,120,215,0.0,56.0
666,46.0,120,107,1.0,54.0
667,34.0,0,107,1.0,54.0
668,46.0,120,107,1.0,54.0
669,34.0,120,107,1.0,54.0
670,50.0,120,431,0.0,56.0
671,46.0,120,107,1.0,54.0
672,34.0,120,107,1.0,54.0
673,58.0,0,215,0.0,56.0
674,46.0,120,107,1.0,54.0
675,34.0,120,107,1.0,54.0
676,46.0,120,107,1.0,54.0
677,34.0,120,107,1.0,54.0
678,60.0,0,431,0.0,56.0
679,51.0,0,431,0.0,56.0
680,46.0,120,107,1.0,54.0
681,34.0,120,107,1.0,54.0
682,58.0,0,215,0.0,56.0
683,46.0,120,107,1.0,54.0
684,58.0,120,53,0.0,56.0
685,51.0,0,53,0.0,56.0
686,34.0,0,107,1.0,54.0
687,57.0,60,80,0.0,56.0
688,46.0,60,107,1.0,54.0
689,55.0,120,107,0.0,56.0
690,34.0,0,107,1.0,54.0
691,46.0,120,107,1.0,54.0
692,57.0,0,107,0.0,56.0
693,34.0,120,107,1.0,54.0
694,46.0,120,107,1.0,54.0
695,34.0,0,107,1.0,54.0
696,46.0,120,107,1.0,54.0
697,34.0,120,107,1.0,54.0
698,50.0,0,431,0.0,56.0
699,58.0,120,431,0.0,56.0
700,46.0,120,107,1.0,54.0
701,34.0,120,107,1.0,54.0
702,53.0,0,215,0.0,56.0
703,46.0,120,107,1.0,54.0
704,34.0,120,107,1.0,54.0
705,46.0,120,107,1.0,54.0
706,34.0,120,107,1.0,54.0
707,58.0,0,431,0.0,56.0
708,46.0,120,107,1.0,54.0
709,34.0,120,107,1.0,54.0
710,62.0,0,215,0.0,56.0
711,46.0,120,107,1.0,54.0
712,34.0,120,107,1.0,54.0
713,46.0,120,107,1.0,54.0
714,34.0,120,107,1.0,54.0
715,63.0,0,431,0.0,56.0
716,53.0,0,431,0.0,56.0
717,46.0,120,107,1.0,54.0
718,34.0,120,107,1.0,54.0
719,54.0,0,107,0.0,56.0
720,63.0,0,107,0.0,56.0
721,46.0,120,107,1.0,54.0
722,55.0,0,53,0.0,56.0
723,65.0,0,53,0.0,56.0
724,34.0,120,107,1.0,54.0
725,63.0,60,161,0.0,56.0
726,46.0,60,107,1.0,54.0
727,34.0,0,107,1.0,54.0
728,62.0,120,215,0.0,56.0
729,46.0,120,107,1.0,54.0
730,57.0,0,107,0.0,56.0
731,63.0,120,107,0.0,56.0
732,34.0,0,107,1.0,54.0
733,46.0,120,107,1.0,54.0
734,34.0,120,107,1.0,54.0
735,46.0,120,107,1.0,54.0
736,34.0,120,107,1.0,54.0
737,62.0,0,431,0.0,56.0
738,58.0,0,431,0.0,56.0
739,46.0,120,107,1.0,54.0
740,34.0,0,107,1.0,54.0
741,62.0,0,215,0.0,56.0
742,65.0,120,215,0.0,56.0
743,46.0,120,107,1.0,54.0
744,34.0,0,107,1.0,54.0
745,46.0,120,107,1.0,54.0
746,34.0,120,107,1.0,54.0
747,70.0,120,431,0.0,56.0
748,65.0,0,431,0.0,56.0
749,46.0,120,107,1.0,54.0
750,34.0,120,107,1.0,54.0
751,74.0,0,215,0.0,56.0
752,70.0,0,215,0.0,56.0
753,46.0,120,107,1.0,54.0
754,34.0,0,107,1.0,54.0
755,46.0,120,107,1.0,54.0
756,34.0,120,107,1.0,54.0
757,75.0,120,431,0.0,56.0
758,65.0,0,431,0.0,56.0
759,46.0,120,107,1.0,54.0
760,34.0,120,107,1.0,54.0
761,66.0,0,107,0.0,56.0
762,75.0,0,107,0.0,56.0
763,46.0,120,107,1.0,54.0
764,77.0,0,53,0.0,56.0
765,67.0,120,53,0.0,56.0
766,34.0,0,107,1.0,54.0
767,75.0,60,161,0.0,56.0
768,46.0,60,107,1.0,54.0
769,34.0,120,107,1.0,54.0
770,74.0,0,215,0.0,56.0
771,46.0,120,107,1.0,54.0
772,69.0,120,107,0.0,56.0
773,34.0,0,107,1.0,54.0
774,75.0,0,107,0.0,56.0
775,46.0,120,107,1.0,54.0
776,34.0,0,107,1.0,64.0
777,46.0,120,107,1.0,64.0
778,34.0,120,107,1.0,64.0
779,70.0,0,431,0.0,64.0
780,74.0,120,431,0.0,64.0
781,46.0,120,107,1.0,64.0
782,34.0,120,107,1.0,64.0
783,74.0,0,215,0.0,64.0
784,77.0,0,215,0.0,64.0
785,46.0,120,107,1.0,64.0
786,34.0,120,107,1.0,64.0
787,46.0,120,107,1.0,64.0
788,34.0,120,107,1.0,64.0
789,74.0,0,431,0.0,64.0
790,82.0,0,431,0.0,64.0
791,46.0,120,107,1.0,64.0
792,34.0,120,107,1.0,64.0
793,81.0,0,215,0.0,64.0
794,77.0,0,215,0.0,64.0
795,46.0,120,107,1.0,74.0
796,34.0,0,107,1.0,74.0
797,46.0,120,107,1.0,74.0
798,34.0,120,107,1.0,74.0
799,79.0,0,431,0.0,84.0
800,75.0,120,431,0.0,84.0
801,46.0,120,107,1.0,74.0
802,34.0,0,107,1.0,74.0
803,72.0,0,215,0.0,84.0
804,84.0,120,215,0.0,84.0
805,46.0,120,107,1.0,74.0
806,82.0,120,53,0.0,84.0
807,75.0,0,53,0.0,84.0
808,34.0,0,107,1.0,74.0
809,81.0,60,80,0.0,84.0
810,46.0,60,107,1.0,74.0
811,34.0,120,107,1.0,74.0
812,79.0,0,107,0.0,84.0
813,46.0,120,107,1.0,74.0
814,81.0,0,107,0.0,84.0
815,34.0,120,107,1.0,74.0
816,46.0,120,107,1.0,74.0
817,34.0,0,107,1.0,74.0
818,46.0,120,107,1.0,74.0
819,34.0,120,107,1.0,74.0
820,82.0,0,431,0.0,84.0
821,74.0,120,431,0.0,84.0
822,46.0,120,107,1.0,74.0
823,34.0,0,107,1.0,74.0
824,77.0,120,215,0.0,84.0
825,46.0,120,107,1.0,74.0
826,34.0,120,107,1.0,74.0
827,46.0,120,107,1.0,74.0
828,34.0,120,107,1.0,74.0
829,82.0,0,431,0.0,84.0
830,46.0,120,107,1.0,74.0
831,34.0,120,107,1.0,74.0
832,86.0,0,215,0.0,84.0
833,46.0,120,107,1.0,74.0
834,34.0,0,107,1.0,74.0
835,46.0,120,107,1.0,74.0
836,34.0,120,107,1.0,74.0
837,75.0,0,431,0.0,84.0
838,79.0,120,431,0.0,84.0
839,46.0,120,107,1.0,74.0
840,34.0,120,107,1.0,74.0
841,72.0,0,215,0.0,84.0
842,84.0,0,215,0.0,84.0
843,46.0,120,107,1.0,74.0
844,75.0,120,53,0.0,84.0
845,82.0,0,53,0.0,84.0
846,34.0,0,107,1.0,74.0
847,81.0,60,80,0.0,84.0
848,46.0,60,107,1.0,74.0
849,34.0,120,107,1.0,74.0
850,79.0,0,107,0.0,84.0
851,46.0,120,107,1.0,74.0
852,81.0,120,107,0.0,84.0
853,34.0,0,107,1.0,74.0
854,46.0,120,107,1.0,74.0
855,34.0,0,107,1.0,64.0
856,70.0,120,107,0.0,49.0
857,82.0,120,107,0.0,49.0
858,70.0,120,107,0.0,49.0
859,82.0,120,107,0.0,49.0
860,70.0,120,107,0.0,49.0
861,82.0,120,107,0.0,49.0
862,70.0,120,107,0.0,49.0
863,82.0,120,107,0.0,49.0
864,70.0,120,107,0.0,49.0
865,82.0,120,107,0.0,49.0
866,70.0,120,107,0.0,49.0
867,82.0,120,107,0.0,49.0
868,70.0,120,107,0.0,49.0
869,65.0,0,215,1.0,54.0
870,68.0,0,215,1.0,54.0
871,82.0,120,107,0.0,49.0
872,70.0,0,107,0.0,49.0
873,63.0,0,215,1.0,54.0
874,67.0,120,215,1.0,54.0
875,82.0,120,107,0.0,49.0
876,70.0,120,107,0.0,49.0
877,65.0,0,107,1.0,54.0
878,58.0,0,107,1.0,54.0
879,82.0,120,107,0.0,49.0
880,70.0,120,107,0.0,49.0
881,82.0,120,107,0.0,49.0
882,70.0,120,107,0.0,49.0
883,65.0,0,431,1.0,54.0
884,58.0,0,431,1.0,54.0
885,82.0,120,107,0.0,49.0
886,70.0,120,107,0.0,49.0
887,82.0,120,107,0.0,49.0
888,70.0,0,107,0.0,49.0
889,63.0,120,215,1.0,54.0
890,67.0,0,215,1.0,54.0
891,82.0,120,107,0.0,49.0
892,70.0,0,107,0.0,49.0
893,62.0,0,215,1.0,54.0
894,65.0,120,215,1.0,54.0
895,82.0,120,107,0.0,49.0
896,55.0,120,107,1.0,54.0
897,70.0,0,107,0.0,49.0
898,63.0,0,107,1.0,54.0
899,82.0,120,107,0.0,49.0
900,70.0,120,107,0.0,49.0
901,82.0,120,107,0.0,49.0
902,70.0,120,107,0.0,49.0
903,55.0,0,431,1.0,54.0
904,63.0,0,431,1.0,54.0
905,82.0,120,107,0.0,49.0
906,70.0,120,107,0.0,49.0
907,65.0,0,215,1.0,54.0
908,58.0,0,215,1.0,54.0
909,82.0,120,107,0.0,49.0
910,70.0,120,107,0.0,49.0
911,82.0,120,107,0.0,49.0
912,70.0,120,107,0.0,49.0
913,63.0,0,431,1.0,54.0
914,67.0,0,431,1.0,54.0
915,82.0,120,107,0.0,49.0
916,70.0,120,107,0.0,49.0
917,65.0,0,215,1.0,54.0
918,58.0,0,215,1.0,54.0
919,82.0,120,107,0.0,49.0
920,70.0,0,107,0.0,49.0
921,82.0,120,107,0.0,49.0
922,70.0,120,107,0.0,49.0
923,67.0,120,431,1.0,54.0
924,63.0,0,431,1.0,54.0
925,82.0,120,107,0.0,49.0
926,70.0,120,107,0.0,49.0
927,68.0,0,215,1.0,54.0
928,65.0,0,215,1.0,54.0
929,82.0,120,107,0.0,49.0
930,70.0,120,107,0.0,49.0
931,82.0,120,107,0.0,49.0
932,70.0,120,107,0.0,49.0
933,58.0,0,431,1.0,54.0
934,65.0,0,431,1.0,54.0
935,82.0,120,107,0.0,49.0
936,70.0,120,107,0.0,49.0
937,82.0,120,107,0.0,49.0
938,70.0,120,107,0.0,49.0
939,82.0,120,107,0.0,49.0
940,70.0,120,107,0.0,49.0
941,82.0,120,107,0.0,49.0
942,70.0,120,107,0.0,49.0
943,82.0,120,107,0.0,49.0
944,70.0,0,107,0.0,39.0
945,68.0,120,215,1.0,46.0
946,65.0,0,215,1.0,46.0
947,82.0,120,107,0.0,39.0
948,70.0,0,107,0.0,39.0
949,67.0,0,215,1.0,46.0
950,63.0,120,215,1.0,46.0
951,82.0,120,107,0.0,39.0
952,58.0,120,107,1.0,46.0
953,70.0,0,107,0.0,39.0
954,65.0,0,107,1.0,46.0
955,82.0,120,107,0.0,39.0
956,70.0,120,107,0.0,39.0
957,82.0,120,107,0.0,39.0
958,70.0,120,107,0.0,39.0
959,65.0,0,431,1.0,46.0
960,58.0,0,431,1.0,46.0
961,82.0,120,107,0.0,39.0
962,70.0,120,107,0.0,39.0
963,82.0,120,107,0.0,39.0
964,70.0,0,107,0.0,39.0
965,67.0,120,215,1.0,46.0
966,63.0,0,215,1.0,46.0
967,82.0,120,107,0.0,39.0
968,70.0,0,107,0.0,39.0
969,62.0,0,215,1.0,46.0
970,65.0,120,215,1.0,46.0
971,82.0,120,107,0.0,39.0
972,55.0,0,107,1.0,46.0
973,70.0,120,107,0.0,39.0
974,63.0,0,107,1.0,46.0
975,82.0,120,107,0.0,39.0
976,70.0,120,107,0.0,39.0
977,82.0,120,107,0.0,39.0
978,70.0,120,107,0.0,39.0
979,55.0,0,431,1.0,46.0
980,63.0,0,431,1.0,46.0
981,82.0,120,107,0.0,39.0
982,70.0,0,107,0.0,39.0
983,58.0,0,215,1.0,46.0
984,65.0,120,215,1.0,46.0
985,82.0,120,107,0.0,39.0
986,70.0,0,107,0.0,39.0
987,82.0,120,107,0.0,39.0
988,70.0,120,107,0.0,39.0
989,67.0,0,431,1.0,46.0
990,63.0,120,431,1.0,46.0
991,82.0,120,107,0.0,39.0
992,70.0,120,107,0.0,39.0
993,63.0,0,215,1.0,46.0
994,67.0,0,215,1.0,46.0
995,82.0,120,107,0.0,39.0
996,82.0,0,215,0.0,39.0
997,79.0,0,215,0.0,39.0
998,65.0,120,431,1.0,46.0
999,62.0,0,431,1.0,46.0
1000,80.0,0,215,0.0,39.0
1001,77.0,240,215,0.0,39.0
1002,67.0,0,215,1.0,46.0
1003,63.0,0,215,1.0,46.0
1004,79.0,0,215,0.0,39.0
1005,75.0,240,215,0.0,39.0
1006,70.0,240,107,1.0,46.0
1007,74.0,0,107,0.0,39.0
1008,77.0,0,107,0.0,39.0
1009,74.0,0,107,0.0,39.0
1010,70.0,240,107,1.0,46.0
1011,77.0,0,107,0.0,39.0
1012,77.0,0,107,0.0,39.0
1013,80.0,0,107,0.0,39.0
1014,69.0,240,215,1.0,46.0
1015,79.0,120,107,0.0,39.0
1016,75.0,0,107,0.0,39.0
1017,70.0,120,215,1.0,46.0
1018,77.0,0,215,0.0,39.0
1019,74.0,0,215,0.0,39.0
1020,70.0,0,107,1.0,46.0
1021,77.0,0,107,0.0,39.0
1022,74.0,240,107,0.0,39.0
1023,80.0,0,107,0.0,39.0
1024,77.0,0,107,0.0,39.0
1025,69.0,240,215,1.0,46.0
1026,75.0,120,107,0.0,39.0
1027,79.0,0,107,0.0,39.0
1028,70.0,0,215,1.0,46.0
1029,74.0,0,215,0.0,39.0
1030,77.0,120,215,0.0,39.0
1031,74.0,0,107,0.0,39.0
1032,77.0,0,107,0.0,39.0
1033,70.0,240,107,1.0,46.0
1034,80.0,240,107,0.0,39.0
1035,69.0,0,107,1.0,46.0
1036,77.0,0,107,0.0,39.0
1037,79.0,0,107,0.0,39.0
1038,75.0,120,107,0.0,39.0
1039,74.0,0,431,0.0,39.0
1040,77.0,120,431,0.0,39.0
1041,70.0,0,431,1.0,46.0
1042,70.0,480,107,0.0,64.0
1043,70.0,0,107,0.0,64.0
1044,63.0,240,431,1.0,64.0
1045,67.0,0,431,1.0,64.0
1046,67.0,240,215,0.0,64.0
1047,75.0,240,215,0.0,64.0
1048,75.0,0,107,0.0,64.0
1049,67.0,0,431,1.0,64.0
1050,63.0,240,431,1.0,64.0
1051,70.0,240,215,0.0,64.0
1052,79.0,240,215,0.0,64.0
1053,79.0,0,107,0.0,64.0
1054,67.0,0,431,1.0,64.0
1055,63.0,240,431,1.0,64.0
1056,75.0,240,215,0.0,64.0
1057,82.0,240,215,0.0,64.0
1058,82.0,240,431,0.0,64.0
1059,80.0,0,215,0.0,64.0
1060,77.0,480,215,0.0,64.0
1061,62.0,0,215,1.0,64.0
1062,75.0,240,215,0.0,64.0
1063,79.0,0,215,0.0,64.0
1064,77.0,240,107,0.0,64.0
1065,80.0,0,107,0.0,64.0
1066,63.0,0,431,1.0,64.0
1067,70.0,0,671,1.0,64.0
1068,79.0,0,107,0.0,64.0
1069,82.0,240,107,0.0,64.0
1070,80.0,0,215,0.0,64.0
1071,84.0,0,215,0.0,64.0
1072,56.0,240,431,1.0,64.0
1073,68.0,0,431,1.0,64.0
1074,77.0,0,215,0.0,64.0
1075,80.0,240,215,0.0,64.0
1076,69.0,0,215,1.0,64.0
1077,75.0,0,215,0.0,64.0
1078,79.0,240,215,0.0,64.0
1079,57.0,0,215,1.0,64.0
1080,74.0,240,107,0.0,64.0
1081,77.0,0,107,0.0,64.0
1082,70.0,0,215,1.0,64.0
1083,58.0,0,215,1.0,64.0
1084,74.0,240,107,0.0,64.0
1085,77.0,0,107,0.0,64.0
1086,58.0,0,215,1.0,64.0
1087,70.0,0,215,1.0,64.0
1088,80.0,0,107,0.0,64.0
1089,77.0,0,107,0.0,64.0
1090,69.0,240,215,1.0,64.0
1091,57.0,0,215,1.0,64.0
1092,79.0,0,107,0.0,64.0
1093,75.0,120,107,0.0,64.0
1094,74.0,120,431,0.0,64.0
1095,77.0,0,431,0.0,64.0
1096,58.0,0,431,1.0,64.0
1097,70.0,0,431,1.0,64.0
1098,70.0,0,107,0.0,64.0
1099,67.0,480,215,1.0,64.0
1100,70.0,0,215,0.0,64.0
1101,67.0,240,215,1.0,64.0
1102,63.0,0,215,1.0,64.0
1103,67.0,240,215,0.0,64.0
1104,75.0,0,107,0.0,64.0
1105,63.0,240,215,1.0,64.0
1106,75.0,0,215,0.0,64.0
1107,63.0,240,215,1.0,64.0
1108,58.0,240,215,1.0,64.0
1109,70.0,0,215,0.0,64.0
1110,79.0,240,107,0.0,64.0
1111,58.0,0,215,1.0,64.0
1112,79.0,240,215,0.0,64.0
1113,58.0,0,215,1.0,64.0
1114,55.0,0,215,1.0,64.0
1115,75.0,240,215,0.0,64.0
1116,82.0,0,107,0.0,64.0
1117,55.0,240,215,1.0,64.0
1118,82.0,0,215,0.0,64.0
1119,55.0,240,215,1.0,64.0
1120,79.0,240,215,0.0,64.0
1121,51.0,0,215,1.0,64.0
1122,87.0,0,107,0.0,64.0
1123,51.0,240,215,1.0,64.0
1124,72.0,0,107,0.0,89.0
1125,75.0,0,107,0.0,89.0
1126,80.0,240,107,0.0,89.0
1127,44.0,0,215,1.0,89.0
1128,56.0,0,215,1.0,89.0
1129,84.0,120,107,0.0,89.0
1130,72.0,0,107,0.0,89.0
1131,75.0,0,107,0.0,89.0
1132,80.0,120,107,0.0,89.0
1133,44.0,0,215,1.0,89.0
1134,56.0,0,215,1.0,89.0
1135,84.0,120,107,0.0,89.0
1136,80.0,0,107,0.0,89.0
1137,75.0,0,107,0.0,89.0
1138,72.0,0,107,0.0,89.0
1139,44.0,0,215,1.0,89.0
1140,56.0,120,215,1.0,89.0
1141,84.0,120,107,0.0,89.0
1142,75.0,0,107,0.0,89.0
1143,80.0,120,107,0.0,89.0
1144,72.0,0,107,0.0,89.0
1145,56.0,0,215,1.0,89.0
1146,44.0,0,215,1.0,89.0
1147,84.0,120,107,0.0,89.0
1148,80.0,120,107,0.0,89.0
1149,72.0,0,107,0.0,89.0
1150,75.0,0,107,0.0,89.0
1151,56.0,0,215,1.0,89.0
1152,44.0,0,215,1.0,89.0
1153,84.0,120,107,0.0,89.0
1154,75.0,0,107,0.0,89.0
1155,80.0,0,107,0.0,89.0
1156,72.0,0,107,0.0,89.0
1157,56.0,120,215,1.0,89.0
1158,44.0,0,215,1.0,89.0
1159,84.0,120,107,0.0,89.0
1160,65.0,0,107,0.0,89.0
1161,70.0,0,107,0.0,89.0
1162,68.0,0,107,0.0,89.0
1163,58.0,0,215,1.0,89.0
1164,46.0,120,215,1.0,89.0
1165,74.0,120,107,0.0,89.0
1166,70.0,0,107,0.0,89.0
1167,68.0,0,107,0.0,89.0
1168,65.0,0,107,0.0,89.0
1169,58.0,0,215,1.0,89.0
1170,46.0,120,215,1.0,89.0
1171,74.0,120,107,0.0,89.0
1172,65.0,0,107,0.0,89.0
1173,68.0,0,107,0.0,89.0
1174,70.0,0,107,0.0,89.0
1175,46.0,120,215,1.0,89.0
1176,58.0,0,215,1.0,89.0
1177,74.0,120,107,0.0,89.0
1178,70.0,0,107,0.0,89.0
1179,65.0,0,107,0.0,89.0
1180,68.0,0,107,0.0,89.0
1181,58.0,120,215,1.0,89.0
1182,46.0,0,215,1.0,89.0
1183,74.0,120,107,0.0,89.0
1184,70.0,0,107,0.0,89.0
1185,68.0,120,107,0.0,89.0
1186,65.0,0,107,0.0,89.0
1187,58.0,0,215,1.0,89.0
1188,46.0,0,215,1.0,89.0
1189,74.0,120,107,0.0,89.0
1190,70.0,0,107,0.0,89.0
1191,68.0,120,107,0.0,89.0
1192,65.0,0,107,0.0,89.0
1193,46.0,0,215,1.0,89.0
1194,58.0,0,215,1.0,89.0
1195,74.0,120,107,0.0,89.0
1196,39.0,120,107,1.0,89.0
1197,51.0,120,107,1.0,64.0
1198,39.0,120,107,1.0,52.0
1199,75.0,0,431,0.0,89.0
1200,67.0,0,431,0.0,89.0
1201,51.0,120,107,1.0,52.0
1202,39.0,0,107,1.0,52.0
1203,70.0,120,215,0.0,52.0
1204,51.0,120,107,1.0,52.0
1205,39.0,120,107,1.0,52.0
1206,51.0,120,107,1.0,52.0
1207,39.0,120,107,1.0,52.0
1208,75.0,0,431,0.0,52.0
1209,51.0,120,107,1.0,52.0
1210,39.0,0,107,1.0,52.0
1211,79.0,120,215,0.0,52.0
1212,51.0,120,107,1.0,52.0
1213,39.0,120,107,1.0,52.0
1214,51.0,120,107,1.0,52.0
1215,39.0,120,107,1.0,52.0
1216,68.0,0,431,0.0,52.0
1217,77.0,0,431,0.0,52.0
1218,51.0,120,107,1.0,52.0
1219,39.0,120,107,1.0,52.0
1220,75.0,0,215,0.0,52.0
1221,51.0,120,107,1.0,52.0
1222,65.0,0,53,0.0,52.0
1223,75.0,0,53,0.0,52.0
1224,39.0,120,107,1.0,52.0
1225,74.0,60,80,0.0,52.0
1226,51.0,60,107,1.0,52.0
1227,39.0,120,107,1.0,52.0
1228,72.0,0,215,0.0,52.0
1229,51.0,120,107,1.0,52.0
1230,39.0,120,107,1.0,52.0
1231,74.0,0,107,0.0,52.0
1232,51.0,120,107,1.0,52.0
1233,39.0,120,107,1.0,52.0
1234,51.0,120,107,1.0,52.0
1235,39.0,120,107,1.0,52.0
1236,67.0,0,431,0.0,52.0
1237,75.0,0,431,0.0,52.0
1238,51.0,120,107,1.0,52.0
1239,39.0,0,107,1.0,52.0
1240,70.0,120,215,0.0,52.0
1241,51.0,120,107,1.0,52.0
1242,39.0,0,107,1.0,52.0
1243,51.0,120,107,1.0,52.0
1244,39.0,120,107,1.0,52.0
1245,75.0,120,431,0.0,52.0
1246,51.0,120,107,1.0,52.0
1247,39.0,0,107,1.0,52.0
1248,79.0,120,215,0.0,52.0
1249,51.0,120,107,1.0,52.0
1250,39.0,0,107,1.0,52.0
1251,80.0,120,215,0.0,52.0
1252,72.0,0,215,0.0,52.0
1253,51.0,120,107,1.0,52.0
1254,74.0,120,107,0.0,52.0
1255,39.0,0,107,1.0,52.0
1256,80.0,0,107,0.0,52.0
1257,51.0,120,107,1.0,52.0
1258,39.0,120,107,1.0,52.0
1259,80.0,0,107,0.0,52.0
1260,75.0,0,107,0.0,52.0
1261,51.0,120,107,1.0,52.0
1262,82.0,0,53,0.0,52.0
1263,39.0,120,107,1.0,52.0
1264,80.0,60,161,0.0,52.0
1265,51.0,60,107,1.0,52.0
1266,39.0,120,107,1.0,52.0
1267,76.0,0,431,0.0,52.0
1268,79.0,0,215,0.0,52.0
1269,51.0,120,107,1.0,52.0
1270,39.0,0,107,1.0,52.0
1271,80.0,0,215,0.0,52.0
1272,77.0,120,215,0.0,52.0
1273,51.0,120,107,1.0,52.0
1274,39.0,0,107,1.0,52.0
1275,51.0,120,107,1.0,52.0
1276,39.0,120,107,1.0,52.0
1277,79.0,120,431,0.0,52.0
1278,75.0,0,431,0.0,52.0
1279,51.0,120,107,1.0,52.0
1280,39.0,120,107,1.0,52.0
1281,70.0,0,215,0.0,52.0
1282,51.0,120,107,1.0,52.0
1283,39.0,120,107,1.0,52.0
1284,51.0,120,107,1.0,52.0
1285,39.0,120,107,1.0,52.0
1286,67.0,0,431,0.0,52.0
1287,51.0,120,107,1.0,52.0
1288,39.0,120,107,1.0,52.0
1289,79.0,0,215,0.0,52.0
1290,51.0,120,107,1.0,52.0
1291,39.0,120,107,1.0,52.0
1292,78.0,0,215,0.0,52.0
1293,51.0,120,107,1.0,52.0
1294,39.0,120,107,1.0,52.0
1295,77.0,0,215,0.0,52.0
1296,51.0,120,107,1.0,52.0
1297,39.0,120,107,1.0,52.0
1298,68.0,0,646,0.0,52.0
1299,76.0,0,215,0.0,52.0
1300,51.0,120,107,1.0,52.0
1301,75.0,0,53,0.0,52.0
1302,39.0,0,107,1.0,52.0
1303,74.0,60,161,0.0,52.0
1304,51.0,60,107,1.0,52.0
1305,39.0,0,107,1.0,52.0
1306,72.0,120,215,0.0,52.0
1307,51.0,120,107,1.0,52.0
1308,39.0,0,107,1.0,52.0
1309,65.0,120,646,0.0,52.0
1310,68.0,0,646,0.0,52.0
1311,74.0,120,215,0.0,52.0
1312,51.0,120,107,1.0,52.0
1313,39.0,0,107,1.0,64.0
1314,51.0,120,107,1.0,64.0
1315,39.0,120,107,1.0,64.0
1316,75.0,120,431,0.0,64.0
1317,67.0,0,431,0.0,64.0
1318,51.0,120,107,1.0,64.0
1319,39.0,120,107,1.0,64.0
1320,70.0,0,215,0.0,64.0
1321,51.0,120,107,1.0,64.0
1322,39.0,120,107,1.0,64.0
1323,51.0,120,107,1.0,64.0
1324,39.0,120,107,1.0,64.0
1325,75.0,0,431,0.0,64.0
1326,51.0,120,107,1.0,64.0
1327,39.0,0,107,1.0,64.0
1328,79.0,120,215,0.0,64.0
1329,51.0,120,107,1.0,64.0
1330,39.0,0,107,1.0,64.0
1331,78.0,120,215,0.0,64.0
1332,51.0,120,107,1.0,64.0
1333,39.0,0,107,1.0,64.0
1334,77.0,120,215,0.0,64.0
1335,51.0,120,107,1.0,64.0
1336,39.0,0,107,1.0,64.0
1337,68.0,0,646,0.0,64.0
1338,76.0,120,215,0.0,64.0
1339,51.0,120,107,1.0,64.0
1340,75.0,0,53,0.0,64.0
1341,39.0,0,107,1.0,64.0
1342,74.0,60,161,0.0,64.0
1343,51.0,60,107,1.0,64.0
1344,39.0,0,107,1.0,64.0
1345,72.0,120,215,0.0,64.0
1346,51.0,120,107,1.0,64.0
1347,39.0,0,107,1.0,64.0
1348,68.0,120,646,0.0,64.0
1349,65.0,0,646,0.0,64.0
1350,74.0,120,215,0.0,64.0
1351,51.0,120,107,1.0,64.0
1352,67.0,0,215,0.0,79.0
1353,70.0,0,215,0.0,79.0
1354,75.0,120,215,0.0,79.0
1355,39.0,0,215,1.0,79.0
1356,51.0,0,215,1.0,79.0
1357,82.0,240,215,0.0,79.0
1358,79.0,240,215,0.0,79.0
1359,75.0,240,215,0.0,79.0
1360,70.0,240,215,0.0,79.0
1361,67.0,240,215,0.0,79.0
1362,65.0,240,215,0.0,79.0
1363,84.0,240,215,0.0,79.0
1364,80.0,240,215,0.0,79.0
1365,77.0,240,215,0.0,79.0
1366,72.0,240,215,0.0,79.0
1367,53.0,0,1293,1.0,79.0
1368,48.0,0,1293,1.0,79.0
1369,44.0,0,1293,1.0,79.0
1370,56.0,0,1293,1.0,79.0
1371,68.0,240,215,0.0,79.0
1372,67.0,0,215,0.0,79.0
1373,82.0,240,215,0.0,79.0
1374,79.0,240,215,0.0,79.0
1375,75.0,240,215,0.0,79.0
1376,70.0,240,215,0.0,79.0
1377,51.0,0,1293,1.0,79.0
1378,46.0,0,1293,1.0,79.0
1379,55.0,240,1293,1.0,79.0
1380,67.0,240,215,0.0,79.0
1381,65.0,240,215,0.0,79.0
1382,80.0,240,215,0.0,79.0
1383,77.0,240,215,0.0,79.0
1384,53.0,0,862,1.0,79.0
1385,56.0,0,862,1.0,79.0
1386,47.0,0,862,1.0,79.0
1387,74.0,240,215,0.0,79.0
1388,68.0,240,215,0.0,79.0
1389,65.0,240,215,0.0,79.0
1390,63.0,0,215,0.0,79.0
1391,79.0,240,215,0.0,79.0
1392,75.0,240,215,0.0,79.0
1393,48.0,240,862,1.0,79.0
1394,51.0,0,862,1.0,79.0
1395,55.0,0,862,1.0,79.0
1396,72.0,240,215,0.0,79.0
1397,67.0,240,215,0.0,79.0
1398,63.0,240,215,0.0,79.0
1399,60.0,0,215,0.0,79.0
1400,72.0,240,215,0.0,79.0
1401,70.0,240,215,0.0,79.0
1402,53.0,0,862,1.0,79.0
1403,44.0,0,862,1.0,79.0
1404,56.0,240,862,1.0,79.0
1405,68.0,240,215,0.0,79.0
1406,67.0,240,215,0.0,79.0
1407,65.0,240,215,0.0,79.0
1408,63.0,0,215,0.0,79.0
1409,70.0,240,215,0.0,79.0
1410,68.0,240,215,0.0,79.0
1411,46.0,0,862,1.0,79.0
1412,51.0,240,862,1.0,79.0
1413,55.0,0,862,1.0,79.0
1414,67.0,240,215,0.0,79.0
1415,65.0,240,215,0.0,79.0
1416,63.0,240,215,0.0,79.0
1417,62.0,0,215,0.0,79.0
1418,68.0,240,215,0.0,79.0
1419,46.0,0,646,1.0,79.0
1420,67.0,240,215,0.0,79.0
1421,65.0,0,215,0.0,79.0
1422,63.0,240,215,0.0,79.0
1423,56.0,240,1293,1.0,79.0
1424,53.0,0,1293,1.0,79.0
1425,47.0,240,646,1.0,79.0
1426,62.0,240,215,0.0,79.0
1427,63.0,240,215,0.0,79.0
1428,67.0,240,215,0.0,79.0
1429,72.0,240,215,0.0,79.0
1430,55.0,0,935,1.0,79.0
1431,51.0,0,935,1.0,79.0
1432,75.0,240,215,0.0,79.0
1433,48.0,0,935,1.0,79.0
1434,79.0,240,215,0.0,79.0
1435,84.0,240,215,0.0,79.0
1436,81.0,0,215,0.0,79.0
1437,87.0,240,215,0.0,79.0
1438,86.0,240,215,0.0,79.0
1439,84.0,240,215,0.0,79.0
1440,82.0,240,215,0.0,79.0
1441,81.0,240,215,0.0,79.0
1442,79.0,240,215,0.0,79.0
1443,77.0,240,215,0.0,79.0
1444,75.0,240,215,0.0,79.0
1445,74.0,240,215,0.0,79.0
1446,72.0,240,215,0.0,79.0
1447,53.0,0,2733,1.0,79.0
1448,51.0,0,2733,1.0,79.0
1449,48.0,0,2733,1.0,79.0
1450,45.0,0,2733,1.0,79.0
1451,57.0,240,2733,1.0,79.0
1452,70.0,240,215,0.0,79.0
1453,69.0,0,215,0.0,75.0
1454,67.0,240,215,0.0,75.0
1455,65.0,240,215,0.0,75.0
1456,63.0,240,215,0.0,75.0
1457,62.0,240,215,0.0,75.0
1458,60.0,240,215,0.0,75.0
1459,58.0,240,215,0.0,75.0
1460,57.0,240,215,0.0,75.0
1461,55.0,240,215,0.0,75.0
1462,53.0,240,215,0.0,75.0
1463,41.0,240,2483,1.0,75.0
1464,48.0,0,2483,1.0,75.0
1465,45.0,0,2483,1.0,75.0
1466,51.0,0,2483,1.0,75.0
1467,55.0,240,215,0.0,75.0
1468,57.0,240,215,0.0,75.0
1469,58.0,0,215,0.0,46.0
1470,46.0,240,215,1.0,46.0
1471,41.0,240,215,1.0,46.0
1472,53.0,0,215,0.0,46.0
1473,50.0,0,107,1.0,46.0
1474,62.0,240,107,0.0,46.0
1475,50.0,0,215,1.0,46.0
1476,62.0,240,215,0.0,46.0
1477,46.0,240,215,1.0,46.0
1478,58.0,0,215,0.0,46.0
1479,65.0,0,107,0.0,64.0
1480,53.0,240,107,1.0,64.0
1481,65.0,240,215,0.0,64.0
1482,53.0,0,215,1.0,64.0
1483,62.0,240,215,0.0,64.0
1484,50.0,0,215,1.0,64.0
1485,70.0,240,107,0.0,64.0
1486,58.0,0,107,1.0,64.0
1487,58.0,0,215,1.0,64.0
1488,70.0,240,215,0.0,64.0
1489,65.0,0,215,0.0,64.0
1490,53.0,240,215,1.0,64.0
1491,62.0,240,107,1.0,64.0
1492,74.0,0,107,0.0,64.0
1493,74.0,240,215,0.0,64.0
1494,62.0,0,215,1.0,64.0
1495,58.0,0,215,1.0,64.0
1496,70.0,240,215,0.0,64.0
1497,77.0,240,107,0.0,64.0
1498,65.0,0,107,1.0,64.0
1499,77.0,240,431,0.0,64.0
1500,75.0,0,215,0.0,64.0
1501,57.0,480,215,1.0,64.0
1502,70.0,0,215,0.0,64.0
1503,74.0,0,215,0.0,64.0
1504,72.0,0,107,0.0,64.0
1505,75.0,240,107,0.0,64.0
1506,58.0,240,431,1.0,64.0
1507,65.0,0,671,1.0,64.0
1508,77.0,0,107,0.0,64.0
1509,74.0,240,107,0.0,64.0
1510,75.0,0,215,0.0,64.0
1511,79.0,0,215,0.0,64.0
1512,75.0,240,107,0.0,64.0
1513,72.0,0,107,0.0,64.0
1514,63.0,240,431,1.0,64.0
1515,51.0,0,431,1.0,64.0
1516,74.0,0,107,0.0,64.0
1517,70.0,240,107,0.0,64.0
1518,52.0,0,215,1.0,64.0
1519,64.0,0,215,1.0,64.0
1520,69.0,0,107,0.0,64.0
1521,72.0,0,107,0.0,64.0
1522,53.0,240,215,1.0,64.0
1523,65.0,0,215,1.0,64.0
1524,53.0,0,107,1.0,64.0
1525,65.0,0,107,1.0,64.0
1526,69.0,0,107,0.0,64.0
1527,72.0,240,107,0.0,64.0
1528,72.0,0,107,0.0,64.0
1529,75.0,240,107,0.0,64.0
1530,64.0,0,107,1.0,64.0
1531,52.0,0,107,1.0,64.0
1532,70.0,0,107,0.0,64.0
1533,74.0,120,107,0.0,64.0
1534,53.0,0,431,1.0,64.0
1535,65.0,120,431,1.0,64.0
1536,69.0,0,431,0.0,64.0
1537,72.0,0,431,0.0,64.0
1538,65.0,480,215,0.0,64.0
1539,67.0,240,53,0.0,64.0
1540,65.0,60,161,0.0,64.0
1541,58.0,0,431,1.0,64.0
1542,62.0,180,215,0.0,64.0
1543,70.0,240,107,0.0,64.0
1544,72.0,240,53,0.0,64.0
1545,70.0,60,161,0.0,64.0
1546,65.0,180,215,0.0,64.0
1547,74.0,240,107,0.0,64.0
1548,75.0,240,53,0.0,64.0
1549,74.0,60,161,0.0,64.0
1550,70.0,180,215,0.0,64.0
1551,77.0,240,107,0.0,64.0
1552,77.0,240,431,0.0,64.0
1553,76.0,0,215,0.0,64.0
1554,58.0,480,215,1.0,64.0
1555,79.0,0,215,0.0,64.0
1556,57.0,0,215,1.0,64.0
1557,60.0,0,455,1.0,64.0
1558,77.0,240,215,0.0,64.0
1559,81.0,0,215,0.0,64.0
1560,79.0,240,107,0.0,64.0
1561,82.0,0,107,0.0,64.0
1562,55.0,0,107,1.0,64.0
1563,81.0,0,107,0.0,64.0
1564,53.0,240,107,1.0,64.0
1565,84.0,0,107,0.0,64.0
1566,79.0,0,215,0.0,64.0
1567,82.0,240,215,0.0,64.0
1568,58.0,0,431,1.0,64.0
1569,77.0,240,215,0.0,64.0
1570,81.0,0,215,0.0,64.0
1571,76.0,0,107,0.0,64.0
1572,79.0,0,107,0.0,64.0
1573,60.0,240,215,1.0,64.0
1574,53.0,240,107,1.0,64.0
1575,69.0,0,107,0.0,64.0
1576,77.0,0,107,0.0,64.0
1577,77.0,240,107,0.0,64.0
1578,69.0,0,107,0.0,64.0
1579,48.0,0,107,1.0,64.0
1580,45.0,240,107,1.0,64.0
1581,77.0,0,107,0.0,64.0
1582,69.0,0,107,0.0,64.0
1583,41.0,0,215,1.0,64.0
1584,77.0,0,215,0.0,64.0
1585,69.0,240,215,0.0,64.0
1586,72.0,300,53,0.0,64.0
1587,74.0,60,53,0.0,64.0
1588,75.0,60,53,0.0,64.0
1589,77.0,60,53,0.0,64.0
1590,79.0,60,53,0.0,64.0
1591,81.0,60,53,0.0,64.0
1592,82.0,60,53,0.0,64.0
1593,63.0,0,107,1.0,54.0
1594,65.0,120,107,1.0,54.0
1595,63.0,120,107,1.0,54.0
1596,84.0,60,431,0.0,54.0
1597,65.0,120,107,1.0,54.0
1598,63.0,120,107,1.0,54.0
1599,53.0,0,646,1.0,54.0
1600,82.0,0,215,0.0,54.0
1601,65.0,120,107,1.0,54.0
1602,82.0,0,53,0.0,54.0
1603,63.0,120,107,1.0,54.0
1604,81.0,60,161,0.0,54.0
1605,65.0,60,107,1.0,54.0
1606,63.0,0,107,1.0,54.0
1607,79.0,120,107,0.0,54.0
1608,65.0,120,107,1.0,54.0
1609,81.0,120,107,0.0,54.0
1610,63.0,0,107,1.0,54.0
1611,53.0,0,646,1.0,54.0
1612,65.0,120,107,1.0,54.0
1613,62.0,0,107,1.0,54.0
1614,65.0,120,107,1.0,54.0
1615,62.0,120,107,1.0,54.0
1616,82.0,120,431,0.0,54.0
1617,65.0,120,107,1.0,54.0
1618,62.0,0,107,1.0,54.0
1619,53.0,0,646,1.0,54.0
1620,77.0,120,215,0.0,54.0
1621,65.0,120,107,1.0,54.0
1622,62.0,120,107,1.0,54.0
1623,65.0,120,107,1.0,54.0
1624,62.0,120,107,1.0,54.0
1625,74.0,0,431,0.0,54.0
1626,65.0,120,107,1.0,54.0
1627,62.0,0,107,1.0,54.0
1628,53.0,0,646,1.0,54.0
1629,82.0,120,215,0.0,54.0
1630,65.0,120,107,1.0,54.0
1631,86.0,120,53,0.0,54.0
1632,63.0,0,107,1.0,54.0
1633,65.0,60,107,1.0,54.0
1634,63.0,120,107,1.0,54.0
1635,84.0,60,395,0.0,54.0
1636,65.0,120,107,1.0,54.0
1637,63.0,0,107,1.0,54.0
1638,53.0,0,646,1.0,54.0
1639,82.0,120,215,0.0,54.0
1640,65.0,120,107,1.0,54.0
1641,82.0,0,53,0.0,54.0
1642,63.0,0,107,1.0,54.0
1643,81.0,60,80,0.0,54.0
1644,65.0,60,107,1.0,54.0
1645,79.0,120,107,0.0,54.0
1646,63.0,0,107,1.0,54.0
1647,65.0,120,107,1.0,54.0
1648,81.0,120,107,0.0,54.0
1649,63.0,0,107,1.0,54.0
1650,53.0,120,646,1.0,54.0
1651,65.0,120,107,1.0,54.0
1652,62.0,0,107,1.0,54.0
1653,65.0,120,107,1.0,54.0
1654,62.0,120,107,1.0,54.0
1655,82.0,0,431,0.0,54.0
1656,65.0,120,107,1.0,54.0
1657,62.0,0,107,1.0,54.0
1658,53.0,120,646,1.0,54.0
1659,77.0,120,215,0.0,54.0
1660,65.0,120,107,1.0,54.0
1661,62.0,0,107,1.0,54.0
1662,65.0,120,107,1.0,54.0
1663,62.0,120,107,1.0,54.0
1664,82.0,0,431,0.0,54.0
1665,65.0,120,107,1.0,54.0
1666,62.0,0,107,1.0,54.0
1667,53.0,120,646,1.0,54.0
1668,86.0,120,215,0.0,54.0
1669,65.0,120,107,1.0,54.0
1670,86.0,0,53,0.0,54.0
1671,63.0,120,107,1.0,54.0
1672,65.0,60,107,1.0,54.0
1673,63.0,120,107,1.0,54.0
1674,84.0,60,395,0.0,54.0
1675,65.0,120,107,1.0,54.0
1676,63.0,0,107,1.0,54.0
1677,82.0,120,215,0.0,54.0
1678,65.0,120,107,1.0,54.0
1679,82.0,0,53,0.0,54.0
1680,60.0,120,107,1.0,54.0
1681,81.0,60,80,0.0,54.0
1682,63.0,60,107,1.0,54.0
1683,60.0,120,107,1.0,54.0
1684,79.0,0,107,0.0,54.0
1685,63.0,120,107,1.0,54.0
1686,81.0,0,107,0.0,54.0
1687,60.0,120,107,1.0,54.0
1688,63.0,120,107,1.0,54.0
1689,62.0,0,107,1.0,54.0
1690,65.0,120,107,1.0,54.0
1691,62.0,120,107,1.0,54.0
1692,65.0,120,107,1.0,54.0
1693,62.0,120,107,1.0,54.0
1694,82.0,120,646,0.0,54.0
1695,65.0,120,107,1.0,54.0
1696,60.0,120,107,1.0,54.0
1697,57.0,0,107,1.0,54.0
1698,62.0,120,107,1.0,54.0
1699,60.0,120,107,1.0,54.0
1700,57.0,0,107,1.0,54.0
1701,77.0,0,431,0.0,54.0
1702,62.0,120,107,1.0,54.0
1703,57.0,0,107,1.0,54.0
1704,60.0,0,107,1.0,54.0
1705,78.0,120,215,0.0,54.0
1706,62.0,120,107,1.0,54.0
1707,58.0,0,107,1.0,54.0
1708,62.0,120,107,1.0,54.0
1709,58.0,120,107,1.0,54.0
1710,79.0,120,431,0.0,54.0
1711,62.0,120,107,1.0,54.0
1712,58.0,0,107,1.0,54.0
1713,55.0,0,646,1.0,54.0
1714,79.0,120,215,0.0,54.0
1715,62.0,120,107,1.0,54.0
1716,81.0,0,53,0.0,54.0
1717,58.0,120,107,1.0,54.0
1718,79.0,60,161,0.0,54.0
1719,62.0,60,107,1.0,54.0
1720,58.0,120,107,1.0,54.0
1721,78.0,0,107,0.0,54.0
1722,62.0,120,107,1.0,54.0
1723,58.0,120,107,1.0,54.0
1724,79.0,0,107,0.0,54.0
1725,55.0,0,646,1.0,54.0
1726,62.0,120,107,1.0,54.0
1727,60.0,0,107,1.0,54.0
1728,62.0,120,107,1.0,54.0
1729,60.0,120,107,1.0,54.0
1730,81.0,0,431,0.0,54.0
1731,62.0,120,107,1.0,54.0
1732,60.0,0,107,1.0,54.0
1733,50.0,120,646,1.0,54.0
1734,78.0,120,215,0.0,54.0
1735,62.0,120,107,1.0,54.0
1736,60.0,0,107,1.0,54.0
1737,62.0,120,107,1.0,54.0
1738,60.0,120,107,1.0,54.0
1739,74.0,120,431,0.0,54.0
1740,62.0,120,107,1.0,54.0
1741,60.0,120,107,1.0,54.0
1742,50.0,0,646,1.0,54.0
1743,78.0,0,215,0.0,54.0
1744,62.0,120,107,1.0,54.0
1745,79.0,120,85,0.0,54.0
1746,58.0,0,107,1.0,54.0
1747,81.0,95,86,0.0,54.0
1748,62.0,25,107,1.0,54.0
1749,79.0,71,86,0.0,54.0
1750,58.0,49,107,1.0,54.0
1751,78.0,46,86,0.0,54.0
1752,62.0,74,107,1.0,54.0
1753,79.0,22,86,0.0,54.0
1754,58.0,2,107,1.0,54.0
1755,55.0,0,646,1.0,54.0
1756,82.0,96,215,0.0,54.0
1757,62.0,120,107,1.0,54.0
1758,79.0,118,85,0.0,54.0
1759,58.0,2,107,1.0,54.0
1760,81.0,93,86,0.0,54.0
1761,62.0,27,107,1.0,54.0
1762,79.0,69,86,0.0,54.0
1763,58.0,51,107,1.0,54.0
1764,78.0,45,85,0.0,54.0
1765,79.0,20,86,0.0,54.0
1766,62.0,75,107,1.0,54.0
1767,58.0,4,107,1.0,54.0
1768,55.0,0,646,1.0,54.0
1769,82.0,96,215,0.0,54.0
1770,62.0,120,107,1.0,54.0
1771,79.0,0,85,0.0,54.0
1772,58.0,0,107,1.0,54.0
1773,81.0,95,86,0.0,54.0
1774,60.0,25,107,1.0,54.0
1775,79.0,71,86,0.0,54.0
1776,58.0,49,107,1.0,54.0
1777,78.0,46,86,0.0,54.0
1778,60.0,74,107,1.0,54.0
1779,79.0,22,86,0.0,54.0
1780,58.0,2,107,1.0,54.0
1781,55.0,120,646,1.0,54.0
1782,82.0,96,215,0.0,54.0
1783,62.0,120,107,1.0,54.0
1784,72.0,118,107,0.0,54.0
1785,58.0,2,107,1.0,54.0
1786,60.0,120,107,1.0,54.0
1787,74.0,118,107,0.0,54.0
1788,58.0,2,107,1.0,54.0
1789,60.0,120,107,1.0,54.0
1790,76.0,118,107,0.0,54.0
1791,58.0,2,107,1.0,54.0
1792,55.0,0,646,1.0,54.0
1793,60.0,120,107,1.0,54.0
1794,77.0,120,85,0.0,54.0
1795,57.0,0,107,1.0,54.0
1796,79.0,95,86,0.0,54.0
1797,60.0,25,107,1.0,54.0
1798,77.0,71,86,0.0,54.0
1799,57.0,49,107,1.0,54.0
1800,76.0,46,86,0.0,54.0
1801,60.0,74,107,1.0,54.0
1802,77.0,22,86,0.0,54.0
1803,57.0,2,107,1.0,54.0
1804,53.0,0,646,1.0,54.0
1805,81.0,96,215,0.0,54.0
1806,60.0,120,107,1.0,54.0
1807,72.0,118,107,0.0,54.0
1808,58.0,2,107,1.0,54.0
1809,60.0,120,107,1.0,54.0
1810,74.0,118,107,0.0,54.0
1811,58.0,2,107,1.0,54.0
1812,60.0,120,107,1.0,54.0
1813,76.0,118,107,0.0,54.0
1814,58.0,2,107,1.0,54.0
1815,48.0,0,646,1.0,54.0
1816,60.0,120,107,1.0,54.0
1817,77.0,120,85,0.0,54.0
1818,57.0,0,107,1.0,54.0
1819,79.0,95,86,0.0,54.0
1820,60.0,25,107,1.0,54.0
1821,77.0,71,86,0.0,54.0
1822,57.0,49,107,1.0,54.0
1823,76.0,46,86,0.0,54.0
1824,60.0,74,107,1.0,54.0
1825,77.0,22,86,0.0,54.0
1826,57.0,2,107,1.0,54.0
1827,53.0,0,646,1.0,54.0
1828,81.0,96,215,0.0,54.0
1829,60.0,120,107,1.0,54.0
1830,72.0,118,107,0.0,54.0
1831,58.0,0,107,1.0,54.0
1832,60.0,120,107,1.0,54.0
1833,74.0,118,107,0.0,54.0
1834,58.0,2,107,1.0,54.0
1835,60.0,120,107,1.0,54.0
1836,76.0,118,107,0.0,54.0
1837,58.0,2,107,1.0,54.0
1838,48.0,2,646,1.0,54.0
1839,60.0,120,107,1.0,54.0
1840,77.0,0,85,0.0,54.0
1841,79.0,95,86,0.0,54.0
1842,77.0,96,86,0.0,54.0
1843,76.0,95,86,0.0,54.0
1844,53.0,120,431,1.0,54.0
1845,57.0,0,431,1.0,54.0
1846,77.0,96,86,0.0,54.0
1847,81.0,96,215,0.0,54.0
1848,77.0,240,85,0.0,54.0
1849,79.0,95,86,0.0,54.0
1850,77.0,96,86,0.0,54.0
1851,76.0,96,85,0.0,54.0
1852,77.0,95,86,0.0,54.0
1853,84.0,96,215,0.0,54.0
1854,77.0,244,85,0.0,54.0
1855,79.0,95,86,0.0,54.0
1856,77.0,96,86,0.0,54.0
1857,76.0,95,86,0.0,54.0
1858,77.0,96,86,0.0,54.0
1859,81.0,96,215,0.0,54.0
1860,77.0,240,85,0.0,54.0
1861,79.0,95,86,0.0,54.0
1862,77.0,96,86,0.0,54.0
1863,76.0,96,85,0.0,54.0
1864,77.0,95,86,0.0,54.0
1865,84.0,96,215,0.0,54.0
1866,81.0,0,107,0.0,79.0
1867,87.0,240,215,0.0,79.0
1868,63.0,244,646,1.0,79.0
1869,60.0,0,646,1.0,79.0
1870,57.0,0,646,1.0,79.0
1871,53.0,0,646,1.0,79.0
1872,84.0,240,215,0.0,79.0
1873,81.0,240,215,0.0,79.0
1874,77.0,240,107,0.0,79.0
1875,76.0,240,107,0.0,79.0
1876,75.0,240,215,0.0,79.0
1877,72.0,240,215,0.0,79.0
1878,69.0,240,107,0.0,79.0
1879,51.0,0,646,1.0,79.0
1880,41.0,0,646,1.0,79.0
1881,45.0,0,646,1.0,79.0
1882,48.0,0,646,1.0,79.0
1883,65.0,240,215,0.0,79.0
1884,64.0,240,107,0.0,79.0
1885,63.0,240,107,0.0,79.0
1886,62.0,240,107,0.0,64.0
1887,50.0,0,215,1.0,64.0
1888,58.0,240,215,0.0,64.0
1889,46.0,0,215,1.0,64.0
1890,53.0,0,215,1.0,64.0
1891,65.0,240,215,0.0,64.0
1892,65.0,0,107,0.0,64.0
1893,53.0,240,215,1.0,64.0
1894,62.0,0,215,0.0,64.0
1895,50.0,240,215,1.0,64.0
1896,70.0,240,215,0.0,64.0
1897,58.0,0,215,1.0,64.0
1898,70.0,0,107,0.0,64.0
1899,58.0,240,215,1.0,64.0
1900,65.0,240,215,0.0,64.0
1901,53.0,0,215,1.0,64.0
1902,74.0,240,215,0.0,64.0
1903,62.0,0,215,1.0,64.0
1904,77.0,240,431,0.0,64.0
1905,72.0,480,215,0.0,64.0
1906,57.0,0,215,1.0,64.0
1907,45.0,0,215,1.0,64.0
1908,75.0,0,215,0.0,64.0
1909,46.0,240,107,1.0,84.0
1910,74.0,0,215,0.0,84.0
1911,70.0,0,215,0.0,84.0
1912,58.0,120,107,1.0,84.0
1913,72.0,120,107,0.0,84.0
1914,75.0,0,107,0.0,84.0
1915,46.0,0,107,1.0,84.0
1916,58.0,120,107,1.0,84.0
1917,77.0,0,107,0.0,84.0
1918,46.0,0,107,1.0,84.0
1919,74.0,120,107,0.0,84.0
1920,58.0,120,107,1.0,84.0
1921,39.0,0,107,1.0,84.0
1922,79.0,120,215,0.0,84.0
1923,75.0,0,215,0.0,84.0
1924,51.0,120,107,1.0,84.0
1925,39.0,0,107,1.0,84.0
1926,75.0,0,215,0.0,84.0
1927,72.0,120,215,0.0,84.0
1928,51.0,120,107,1.0,84.0
1929,70.0,0,107,0.0,84.0
1930,40.0,0,107,1.0,84.0
1931,74.0,120,107,0.0,84.0
1932,52.0,120,107,1.0,84.0
1933,41.0,0,107,1.0,84.0
1934,69.0,120,107,0.0,84.0
1935,72.0,0,107,0.0,84.0
1936,53.0,120,107,1.0,84.0
1937,72.0,0,107,0.0,84.0
1938,41.0,120,107,1.0,84.0
1939,69.0,0,107,0.0,84.0
1940,53.0,120,107,1.0,84.0
1941,75.0,0,107,0.0,84.0
1942,72.0,120,107,0.0,84.0
1943,41.0,0,107,1.0,84.0
1944,70.0,0,107,0.0,84.0
1945,74.0,0,107,0.0,84.0
1946,53.0,120,107,1.0,84.0
1947,69.0,120,431,0.0,84.0
1948,72.0,0,431,0.0,84.0
1949,41.0,0,431,1.0,84.0
1950,53.0,0,431,1.0,84.0
1951,65.0,480,107,0.0,64.0
1952,67.0,0,53,0.0,84.0
1953,65.0,60,80,0.0,84.0
1954,46.0,0,431,1.0,84.0
1955,53.0,240,431,1.0,84.0
1956,58.0,0,431,1.0,84.0
1957,62.0,180,215,0.0,64.0
1958,70.0,240,215,0.0,84.0
1959,72.0,0,53,0.0,84.0
1960,70.0,60,80,0.0,84.0
1961,46.0,0,431,1.0,84.0
1962,53.0,0,431,1.0,84.0
1963,58.0,240,431,1.0,84.0
1964,65.0,180,215,0.0,64.0
1965,74.0,240,215,0.0,64.0
1966,75.0,240,53,0.0,84.0
1967,74.0,60,80,0.0,84.0
1968,53.0,0,431,1.0,84.0
1969,46.0,0,431,1.0,84.0
1970,58.0,0,431,1.0,84.0
1971,70.0,180,215,0.0,64.0
1972,77.0,240,215,0.0,84.0
1973,77.0,0,107,0.0,84.0
1974,74.0,240,107,0.0,84.0
1975,70.0,0,107,0.0,84.0
1976,46.0,0,215,1.0,84.0
1977,53.0,0,215,1.0,84.0
1978,58.0,0,215,1.0,84.0
1979,39.0,480,107,1.0,64.0
1980,75.0,0,215,0.0,64.0
1981,79.0,0,215,0.0,64.0
1982,51.0,120,107,1.0,64.0
1983,41.0,120,107,1.0,89.0
1984,74.0,0,215,0.0,89.0
1985,77.0,0,215,0.0,89.0
1986,53.0,120,107,1.0,89.0
1987,41.0,0,107,1.0,89.0
1988,75.0,0,107,0.0,89.0
1989,72.0,120,107,0.0,89.0
1990,53.0,120,107,1.0,89.0
1991,74.0,0,107,0.0,89.0
1992,70.0,120,107,0.0,89.0
1993,41.0,0,107,1.0,89.0
1994,53.0,120,107,1.0,89.0
1995,41.0,0,107,1.0,89.0
1996,63.0,0,107,0.0,89.0
1997,72.0,120,107,0.0,89.0
1998,53.0,120,107,1.0,89.0
1999,70.0,0,107,0.0,89.0
2000,62.0,0,107,0.0,89.0
2001,41.0,120,107,1.0,89.0
2002,53.0,120,107,1.0,89.0
2003,69.0,120,107,0.0,89.0
2004,60.0,0,107,0.0,89.0
2005,41.0,0,107,1.0,89.0
2006,53.0,120,107,1.0,89.0
2007,58.0,0,107,1.0,89.0
2008,53.0,240,107,1.0,89.0
2009,62.0,120,431,0.0,89.0
2010,70.0,0,431,0.0,89.0
2011,50.0,240,107,1.0,89.0
2012,46.0,240,431,1.0,89.0
2013,82.0,480,215,0.0,64.0
2014,82.0,0,26,0.0,64.0
2015,84.0,30,26,0.0,64.0
2016,55.0,240,215,1.0,64.0
2017,86.0,30,161,0.0,64.0
2018,84.0,180,215,0.0,64.0
2019,58.0,0,215,1.0,64.0
2020,62.0,240,215,1.0,64.0
2021,82.0,0,215,0.0,64.0
2022,84.0,240,53,0.0,64.0
2023,55.0,0,215,1.0,64.0
2024,82.0,60,161,0.0,64.0
2025,58.0,180,215,1.0,64.0
2026,81.0,0,215,0.0,64.0
2027,62.0,0,215,1.0,64.0
2028,79.0,240,215,0.0,64.0
2029,77.0,240,107,0.0,64.0
2030,57.0,0,215,1.0,64.0
2031,75.0,120,107,0.0,64.0
2032,74.0,0,107,0.0,64.0
2033,60.0,120,215,1.0,64.0
2034,75.0,120,107,0.0,64.0
2035,77.0,120,53,0.0,64.0
2036,79.0,60,53,0.0,64.0
2037,81.0,60,53,0.0,64.0
2038,62.0,0,215,1.0,64.0
2039,82.0,60,53,0.0,64.0
2040,84.0,60,107,0.0,64.0
2041,57.0,0,215,1.0,64.0
2042,82.0,120,107,0.0,64.0
2043,81.0,120,107,0.0,64.0
2044,60.0,0,215,1.0,64.0
2045,82.0,120,107,0.0,64.0
2046,84.0,120,107,0.0,64.0
2047,62.0,0,215,1.0,64.0
2048,86.0,120,107,0.0,64.0
2049,87.0,120,26,0.0,64.0
2050,89.0,30,26,0.0,64.0
2051,54.0,0,215,1.0,64.0
2052,91.0,30,161,0.0,64.0
2053,89.0,180,215,0.0,64.0
2054,57.0,0,215,1.0,64.0
2055,87.0,240,107,0.0,64.0
2056,62.0,0,215,1.0,64.0
2057,86.0,240,53,0.0,64.0
2058,84.0,60,80,0.0,64.0
2059,54.0,0,215,1.0,64.0
2060,82.0,0,107,0.0,64.0
2061,57.0,180,215,1.0,64.0
2062,81.0,240,107,0.0,64.0
2063,62.0,0,215,1.0,64.0
2064,55.0,240,215,1.0,64.0
2065,58.0,240,215,1.0,64.0
2066,82.0,0,646,0.0,64.0
2067,62.0,240,215,1.0,64.0
2068,55.0,0,215,1.0,64.0
2069,86.0,240,431,0.0,64.0
2070,58.0,240,215,1.0,64.0
2071,79.0,0,107,0.0,64.0
2072,62.0,240,215,1.0,64.0
2073,82.0,240,26,0.0,64.0
2074,84.0,30,26,0.0,64.0
2075,46.0,0,215,1.0,64.0
2076,86.0,30,161,0.0,64.0
2077,84.0,0,215,0.0,64.0
2078,50.0,180,215,1.0,64.0
2079,82.0,240,107,0.0,64.0
2080,55.0,0,215,1.0,64.0
2081,84.0,240,53,0.0,64.0
2082,46.0,0,215,1.0,64.0
2083,82.0,60,161,0.0,64.0
2084,50.0,180,215,1.0,64.0
2085,81.0,0,215,0.0,64.0
2086,79.0,0,107,0.0,64.0
2087,55.0,240,215,1.0,64.0
2088,77.0,240,215,0.0,64.0
2089,48.0,0,215,1.0,64.0
2090,51.0,0,215,1.0,64.0
2091,75.0,240,215,0.0,64.0
2092,74.0,0,215,0.0,64.0
2093,57.0,240,215,1.0,64.0
2094,72.0,0,215,0.0,64.0
2095,48.0,240,215,1.0,64.0
2096,51.0,0,215,1.0,64.0
2097,70.0,240,215,0.0,64.0
2098,57.0,240,215,1.0,64.0
2099,69.0,0,215,0.0,64.0
2100,67.0,0,215,0.0,64.0
2101,50.0,240,215,1.0,64.0
2102,55.0,240,215,1.0,64.0
2103,69.0,0,215,0.0,64.0
2104,58.0,240,215,1.0,64.0
2105,70.0,0,215,0.0,64.0
2106,70.0,0,53,0.0,64.0
2107,50.0,240,215,1.0,64.0
2108,69.0,60,161,0.0,64.0
2109,67.0,0,215,0.0,64.0
2110,57.0,180,215,1.0,64.0
2111,66.0,240,215,0.0,64.0
2112,60.0,0,215,1.0,64.0
2113,55.0,0,215,1.0,64.0
2114,58.0,240,215,1.0,64.0
2115,67.0,240,646,0.0,64.0
2116,62.0,240,215,1.0,64.0
2117,67.0,240,431,1.0,64.0
2118,86.0,480,215,0.0,64.0
2119,86.0,0,215,0.0,64.0
2120,57.0,240,215,1.0,64.0
2121,78.0,0,215,0.0,64.0
2122,60.0,240,215,1.0,64.0
2123,78.0,240,107,0.0,64.0
2124,62.0,0,215,1.0,64.0
2125,81.0,240,53,0.0,64.0
2126,79.0,60,80,0.0,64.0
2127,55.0,0,215,1.0,64.0
2128,78.0,180,107,0.0,64.0
2129,58.0,0,215,1.0,64.0
2130,79.0,0,107,0.0,64.0
2131,62.0,240,215,1.0,64.0
2132,54.0,240,215,1.0,64.0
2133,57.0,240,215,1.0,64.0
2134,80.0,0,646,0.0,64.0
2135,62.0,240,215,1.0,64.0
2136,50.0,240,215,1.0,64.0
2137,81.0,0,431,0.0,64.0
2138,54.0,240,215,1.0,64.0
2139,62.0,240,215,1.0,64.0
2140,86.0,0,215,0.0,64.0
2141,86.0,0,215,0.0,64.0
2142,46.0,240,215,1.0,64.0
2143,50.0,0,215,1.0,64.0
2144,79.0,240,215,0.0,64.0
2145,79.0,240,107,0.0,64.0
2146,55.0,0,215,1.0,64.0
2147,82.0,240,53,0.0,64.0
2148,81.0,60,80,0.0,64.0
2149,45.0,0,215,1.0,64.0
2150,79.0,0,107,0.0,64.0
2151,48.0,180,215,1.0,64.0
2152,81.0,0,107,0.0,64.0
2153,54.0,240,215,1.0,64.0
2154,43.0,240,215,1.0,64.0
2155,46.0,240,215,1.0,64.0
2156,81.0,0,646,0.0,64.0
2157,50.0,240,215,1.0,64.0
2158,43.0,240,215,1.0,64.0
2159,82.0,0,431,0.0,64.0
2160,46.0,240,215,1.0,64.0
2161,86.0,240,215,0.0,64.0
2162,50.0,0,215,1.0,64.0
2163,87.0,240,215,0.0,64.0
2164,48.0,0,215,1.0,64.0
2165,57.0,0,215,1.0,64.0
2166,78.0,240,215,0.0,64.0
2167,78.0,0,107,0.0,64.0
2168,60.0,240,215,1.0,64.0
2169,48.0,0,215,1.0,64.0
2170,78.0,240,431,0.0,64.0
2171,51.0,240,215,1.0,64.0
2172,57.0,240,215,1.0,64.0
2173,87.0,0,215,0.0,64.0
2174,46.0,240,215,1.0,64.0
2175,86.0,0,215,0.0,64.0
2176,55.0,0,215,1.0,64.0
2177,79.0,240,215,0.0,64.0
2178,79.0,240,107,0.0,64.0
2179,58.0,0,215,1.0,64.0
2180,46.0,0,215,1.0,64.0
2181,79.0,240,431,0.0,64.0
2182,50.0,240,215,1.0,64.0
2183,86.0,240,107,0.0,64.0
2184,55.0,0,215,1.0,64.0
2185,48.0,0,215,1.0,64.0
2186,89.0,240,215,0.0,64.0
2187,87.0,0,215,0.0,64.0
2188,51.0,240,215,1.0,64.0
2189,57.0,0,215,1.0,64.0
2190,86.0,240,215,0.0,64.0
2191,82.0,240,53,0.0,64.0
2192,50.0,0,215,1.0,64.0
2193,81.0,60,161,0.0,64.0
2194,79.0,0,107,0.0,64.0
2195,57.0,180,215,1.0,64.0
2196,78.0,0,107,0.0,64.0
2197,60.0,240,215,1.0,64.0
2198,51.0,240,215,1.0,64.0
2199,79.0,0,215,0.0,64.0
2200,73.0,240,107,0.0,64.0
2201,55.0,0,215,1.0,64.0
2202,73.0,0,107,0.0,64.0
2203,58.0,240,215,1.0,64.0
2204,51.0,240,215,1.0,64.0
2205,55.0,240,215,1.0,64.0
2206,58.0,240,215,1.0,64.0
2207,51.0,240,215,1.0,64.0
2208,55.0,240,215,1.0,64.0
2209,58.0,240,215,1.0,64.0
2210,73.0,240,215,0.0,64.0
2211,51.0,0,215,1.0,64.0
2212,73.0,240,107,0.0,64.0
2213,55.0,0,215,1.0,64.0
2214,73.0,240,107,0.0,64.0
2215,58.0,0,215,1.0,64.0
2216,50.0,0,215,1.0,64.0
2217,55.0,240,215,1.0,49.0
2218,74.0,240,646,0.0,64.0
2219,59.0,240,215,1.0,49.0
2220,50.0,240,215,1.0,49.0
2221,79.0,0,215,0.0,49.0
2222,83.0,0,107,0.0,49.0
2223,55.0,240,215,1.0,49.0
2224,85.0,0,107,0.0,49.0
2225,59.0,240,215,1.0,49.0
2226,50.0,240,215,1.0,49.0
2227,86.0,0,215,0.0,49.0
2228,88.0,240,215,0.0,49.0
2229,54.0,0,215,1.0,49.0
2230,86.0,0,107,0.0,49.0
2231,60.0,240,215,1.0,49.0
2232,84.0,240,107,0.0,49.0
2233,50.0,0,215,1.0,49.0
2234,83.0,240,107,0.0,49.0
2235,54.0,0,215,1.0,49.0
2236,81.0,240,107,0.0,49.0
2237,60.0,0,215,1.0,49.0
2238,83.0,0,107,0.0,82.0
2239,86.0,120,107,0.0,82.0
2240,84.0,120,107,0.0,82.0
2241,55.0,240,431,1.0,82.0
2242,47.0,0,431,1.0,82.0
2243,50.0,0,431,1.0,82.0
2244,43.0,0,431,1.0,82.0
2245,83.0,120,107,0.0,82.0
2246,81.0,120,107,0.0,82.0
2247,79.0,120,107,0.0,82.0
2248,78.0,0,107,0.0,82.0
2249,76.0,120,107,0.0,82.0
2250,74.0,120,107,0.0,82.0
2251,54.0,0,431,1.0,82.0
2252,45.0,120,431,1.0,82.0
2253,50.0,0,431,1.0,82.0
2254,48.0,0,431,1.0,82.0
2255,72.0,120,107,0.0,82.0
2256,71.0,120,107,0.0,82.0
2257,69.0,120,107,0.0,82.0
2258,67.0,120,107,0.0,82.0
2259,66.0,120,107,0.0,82.0
2260,67.0,120,107,0.0,82.0
2261,55.0,0,431,1.0,82.0
2262,50.0,0,431,1.0,82.0
2263,47.0,0,431,1.0,82.0
2264,69.0,120,107,0.0,82.0
2265,71.0,120,107,0.0,82.0
2266,72.0,120,107,0.0,82.0
2267,74.0,120,107,0.0,82.0
2268,76.0,120,107,0.0,82.0
2269,78.0,120,107,0.0,82.0
2270,79.0,120,107,0.0,82.0
2271,81.0,120,107,0.0,82.0
2272,83.0,120,107,0.0,82.0
2273,84.0,120,107,0.0,82.0
2274,86.0,120,107,0.0,82.0
2275,84.0,120,107,0.0,82.0
2276,57.0,0,431,1.0,82.0
2277,54.0,0,431,1.0,82.0
2278,62.0,0,431,1.0,82.0
2279,83.0,120,107,0.0,82.0
2280,84.0,120,107,0.0,82.0
2281,81.0,120,107,0.0,82.0
2282,83.0,0,107,0.0,82.0
2283,84.0,120,107,0.0,82.0
2284,83.0,120,107,0.0,82.0
2285,62.0,0,431,1.0,82.0
2286,59.0,0,431,1.0,82.0
2287,55.0,120,431,1.0,82.0
2288,81.0,120,107,0.0,82.0
2289,83.0,120,107,0.0,82.0
2290,79.0,120,107,0.0,82.0
2291,86.0,0,107,0.0,82.0
2292,81.0,120,107,0.0,82.0
2293,78.0,120,107,0.0,82.0
2294,57.0,120,431,1.0,82.0
2295,54.0,0,431,1.0,82.0
2296,50.0,0,431,1.0,82.0
2297,62.0,0,431,1.0,82.0
2298,74.0,120,107,0.0,82.0
2299,69.0,120,107,0.0,82.0
2300,66.0,120,107,0.0,82.0
2301,62.0,120,431,0.0,82.0
2302,86.0,480,107,0.0,82.0
2303,84.0,120,107,0.0,82.0
2304,83.0,120,107,0.0,82.0
2305,86.0,120,107,0.0,82.0
2306,84.0,120,107,0.0,82.0
2307,47.0,0,431,1.0,82.0
2308,50.0,0,431,1.0,82.0
2309,55.0,0,431,1.0,82.0
2310,43.0,0,431,1.0,82.0
2311,83.0,120,107,0.0,82.0
2312,81.0,120,107,0.0,82.0
2313,79.0,120,107,0.0,82.0
2314,78.0,0,107,0.0,82.0
2315,76.0,120,107,0.0,82.0
2316,74.0,120,107,0.0,82.0
2317,48.0,0,431,1.0,82.0
2318,54.0,0,431,1.0,82.0
2319,50.0,0,431,1.0,82.0
2320,45.0,120,431,1.0,82.0
2321,72.0,120,107,0.0,82.0
2322,71.0,120,107,0.0,82.0
2323,69.0,120,107,0.0,82.0
2324,71.0,0,107,0.0,82.0
2325,74.0,120,107,0.0,82.0
2326,72.0,120,107,0.0,82.0
2327,47.0,0,431,1.0,82.0
2328,50.0,120,431,1.0,82.0
2329,55.0,0,431,1.0,82.0
2330,71.0,120,107,0.0,82.0
2331,69.0,120,107,0.0,82.0
2332,67.0,120,107,0.0,82.0
2333,66.0,0,107,0.0,82.0
2334,64.0,120,107,0.0,82.0
2335,62.0,120,107,0.0,82.0
2336,52.0,120,431,1.0,82.0
2337,48.0,0,431,1.0,82.0
2338,60.0,120,107,0.0,82.0
2339,59.0,120,107,0.0,82.0
2340,57.0,120,107,0.0,82.0
2341,55.0,120,107,0.0,82.0
2342,59.0,240,107,0.0,82.0
2343,50.0,0,431,1.0,82.0
2344,62.0,240,107,0.0,82.0
2345,59.0,0,107,0.0,82.0
2346,67.0,240,107,0.0,82.0
2347,60.0,0,107,0.0,82.0
2348,69.0,240,107,0.0,82.0
2349,38.0,0,431,1.0,82.0
2350,57.0,0,107,0.0,82.0
2351,66.0,240,107,0.0,82.0
2352,43.0,0,215,1.0,82.0
2353,55.0,240,215,1.0,82.0
2354,67.0,240,646,0.0,82.0
2355,59.0,0,646,0.0,82.0
2356,55.0,240,215,1.0,82.0
2357,55.0,240,431,1.0,82.0
2358,75.0,480,215,0.0,64.0
2359,75.0,240,215,0.0,64.0
2360,60.0,0,215,1.0,64.0
2361,62.0,0,215,1.0,64.0
2362,74.0,240,215,0.0,64.0
2363,72.0,240,107,0.0,64.0
2364,66.0,0,646,0.0,64.0
2365,69.0,0,646,0.0,64.0
2366,63.0,0,215,1.0,64.0
2367,72.0,0,215,0.0,64.0
2368,63.0,0,215,1.0,64.0
2369,74.0,240,215,0.0,64.0
2370,62.0,0,215,1.0,64.0
2371,75.0,0,107,0.0,64.0
2372,66.0,240,646,0.0,64.0
2373,69.0,0,646,0.0,64.0
2374,60.0,240,215,1.0,64.0
2375,60.0,240,215,1.0,64.0
2376,75.0,0,215,0.0,64.0
2377,74.0,0,215,0.0,64.0
2378,62.0,240,215,1.0,64.0
2379,72.0,0,107,0.0,64.0
2380,66.0,0,646,0.0,64.0
2381,69.0,0,646,0.0,64.0
2382,63.0,240,215,1.0,64.0
2383,69.0,240,646,0.0,64.0
2384,66.0,0,646,0.0,64.0
2385,63.0,0,646,1.0,64.0
2386,72.0,0,646,0.0,64.0
2387,61.0,0,107,1.0,64.0
2388,67.0,0,107,1.0,64.0
2389,70.0,720,107,0.0,64.0
2390,64.0,0,107,1.0,64.0
2391,69.0,120,107,0.0,64.0
2392,70.0,0,107,0.0,64.0
2393,64.0,120,107,1.0,64.0
2394,67.0,0,107,1.0,64.0
2395,61.0,0,107,1.0,64.0
2396,69.0,120,107,0.0,64.0
2397,67.0,0,107,1.0,64.0
2398,61.0,0,107,1.0,64.0
2399,64.0,0,107,1.0,64.0
2400,70.0,120,107,0.0,64.0
2401,69.0,120,107,0.0,64.0
2402,67.0,0,431,1.0,64.0
2403,64.0,120,431,1.0,64.0
2404,61.0,0,431,1.0,64.0
2405,70.0,0,431,0.0,64.0
2406,62.0,0,107,1.0,64.0
2407,67.0,0,107,1.0,64.0
2408,70.0,720,107,1.0,64.0
2409,74.0,0,107,0.0,64.0
2410,73.0,120,107,0.0,64.0
2411,74.0,0,107,0.0,64.0
2412,62.0,0,107,1.0,64.0
2413,67.0,0,107,1.0,64.0
2414,70.0,120,107,1.0,64.0
2415,73.0,120,107,0.0,64.0
2416,67.0,0,107,1.0,64.0
2417,62.0,0,107,1.0,64.0
2418,74.0,0,107,0.0,64.0
2419,70.0,120,107,1.0,64.0
2420,73.0,120,107,0.0,64.0
2421,67.0,120,431,1.0,64.0
2422,74.0,0,431,0.0,64.0
2423,70.0,0,431,1.0,64.0
2424,62.0,0,431,1.0,64.0
2425,86.0,0,107,0.0,82.0
2426,38.0,0,107,1.0,82.0
2427,50.0,720,107,1.0,82.0
2428,85.0,120,107,0.0,82.0
2429,38.0,120,107,1.0,82.0
2430,86.0,0,107,0.0,82.0
2431,50.0,0,107,1.0,82.0
2432,85.0,120,107,0.0,82.0
2433,86.0,0,107,0.0,82.0
2434,38.0,0,107,1.0,82.0
2435,50.0,120,107,1.0,82.0
2436,85.0,120,107,0.0,82.0
2437,50.0,0,107,1.0,82.0
2438,86.0,0,107,0.0,82.0
2439,38.0,120,107,1.0,82.0
2440,85.0,120,107,0.0,82.0
2441,50.0,0,107,1.0,82.0
2442,38.0,120,107,1.0,82.0
2443,86.0,0,107,0.0,82.0
2444,85.0,120,107,0.0,82.0
2445,86.0,0,107,0.0,82.0
2446,50.0,0,107,1.0,82.0
2447,38.0,120,107,1.0,82.0
2448,84.0,120,107,0.0,82.0
2449,83.0,120,107,0.0,82.0
2450,43.0,0,107,1.0,82.0
2451,31.0,0,107,1.0,82.0
2452,86.0,120,107,0.0,82.0
2453,43.0,0,107,1.0,82.0
2454,31.0,0,107,1.0,82.0
2455,84.0,120,107,0.0,82.0
2456,83.0,120,107,0.0,82.0
2457,43.0,0,107,1.0,82.0
2458,31.0,120,107,1.0,82.0
2459,81.0,0,107,0.0,82.0
2460,79.0,120,107,0.0,82.0
2461,45.0,0,107,1.0,82.0
2462,33.0,120,107,1.0,82.0
2463,78.0,0,107,0.0,82.0
2464,76.0,120,107,0.0,82.0
2465,33.0,120,107,1.0,82.0
2466,74.0,0,107,0.0,82.0
2467,45.0,0,107,1.0,82.0
2468,72.0,120,107,0.0,82.0
2469,45.0,0,107,1.0,82.0
2470,33.0,120,107,1.0,82.0
2471,71.0,0,107,0.0,82.0
2472,69.0,120,107,0.0,82.0
2473,67.0,120,107,0.0,82.0
2474,47.0,0,107,1.0,82.0
2475,35.0,0,107,1.0,82.0
2476,66.0,120,107,0.0,82.0
2477,35.0,120,107,1.0,82.0
2478,64.0,0,107,0.0,82.0
2479,47.0,0,107,1.0,82.0
2480,62.0,120,107,0.0,82.0
2481,60.0,0,107,0.0,82.0
2482,35.0,0,107,1.0,82.0
2483,47.0,120,107,1.0,82.0
2484,59.0,120,107,0.0,82.0
2485,36.0,120,107,1.0,82.0
2486,57.0,0,107,0.0,82.0
2487,48.0,0,107,1.0,82.0
2488,55.0,120,107,0.0,82.0
2489,54.0,120,107,0.0,82.0
2490,36.0,0,107,1.0,82.0
2491,52.0,120,107,0.0,82.0
2492,50.0,120,107,0.0,82.0
2493,36.0,0,107,1.0,82.0
2494,48.0,120,107,0.0,82.0
2495,47.0,120,107,1.0,82.0
2496,38.0,0,107,1.0,82.0
2497,50.0,120,107,1.0,82.0
2498,55.0,120,107,1.0,82.0
2499,38.0,0,107,1.0,82.0
2500,50.0,120,107,1.0,82.0
2501,47.0,120,107,1.0,82.0
2502,38.0,0,107,1.0,82.0
2503,50.0,120,107,1.0,82.0
2504,38.0,120,107,1.0,82.0
2505,45.0,0,107,1.0,82.0
2506,50.0,120,107,1.0,82.0
2507,54.0,0,107,1.0,82.0
2508,38.0,120,107,1.0,82.0
2509,50.0,120,107,1.0,82.0
2510,45.0,0,107,1.0,82.0
2511,38.0,120,107,1.0,82.0
2512,50.0,120,107,1.0,82.0
2513,43.0,240,107,1.0,82.0
2514,43.0,240,107,1.0,82.0
2515,55.0,0,646,1.0,82.0
2516,43.0,240,107,1.0,82.0
2517,43.0,240,107,1.0,64.0
2518,31.0,120,1293,1.0,82.0
2519,43.0,240,107,1.0,64.0
2520,71.0,0,107,0.0,76.0
2521,74.0,0,107,0.0,76.0
2522,77.0,0,107,0.0,76.0
2523,80.0,0,107,0.0,76.0
2524,55.0,240,107,1.0,76.0
2525,43.0,240,431,1.0,76.0
2526,79.0,120,107,0.0,76.0
2527,55.0,120,107,1.0,76.0
2528,77.0,0,107,0.0,76.0
2529,75.0,120,107,0.0,76.0
2530,55.0,120,107,1.0,76.0
2531,55.0,240,107,1.0,76.0
2532,74.0,0,431,0.0,76.0
2533,55.0,240,107,1.0,76.0
2534,71.0,0,107,0.0,76.0
2535,74.0,0,107,0.0,76.0
2536,65.0,240,107,0.0,76.0
2537,77.0,0,107,0.0,76.0
2538,55.0,240,107,1.0,76.0
2539,43.0,0,431,1.0,76.0
2540,75.0,120,107,0.0,76.0
2541,55.0,120,107,1.0,76.0
2542,74.0,0,107,0.0,76.0
2543,72.0,120,107,0.0,76.0
2544,55.0,0,107,1.0,76.0
2545,55.0,240,107,1.0,76.0
2546,71.0,120,431,0.0,76.0
2547,55.0,240,107,1.0,76.0
2548,72.0,0,107,0.0,76.0
2549,75.0,0,107,0.0,76.0
2550,67.0,240,107,0.0,76.0
2551,79.0,0,107,0.0,76.0
2552,55.0,240,107,1.0,76.0
2553,43.0,0,431,1.0,76.0
2554,77.0,120,107,0.0,76.0
2555,75.0,120,107,0.0,76.0
2556,55.0,0,107,1.0,76.0
2557,74.0,120,107,0.0,76.0
2558,55.0,0,107,1.0,76.0
2559,55.0,240,107,1.0,76.0
2560,72.0,120,431,0.0,76.0
2561,55.0,240,107,1.0,76.0
2562,84.0,0,107,0.0,76.0
2563,75.0,0,107,0.0,76.0
2564,84.0,0,107,0.0,76.0
2565,55.0,240,107,1.0,76.0
2566,43.0,240,431,1.0,76.0
2567,83.0,120,107,0.0,76.0
2568,84.0,0,107,0.0,76.0
2569,55.0,120,107,1.0,76.0
2570,86.0,120,107,0.0,76.0
2571,55.0,0,107,1.0,76.0
2572,55.0,240,107,1.0,76.0
2573,78.0,0,431,0.0,76.0
2574,87.0,120,431,0.0,76.0
2575,55.0,0,107,1.0,76.0
2576,84.0,240,215,0.0,76.0
2577,83.0,0,107,0.0,72.0
2578,79.0,240,107,0.0,72.0
2579,67.0,240,107,1.0,72.0
2580,86.0,0,107,0.0,72.0
2581,55.0,0,431,1.0,72.0
2582,84.0,120,107,0.0,72.0
2583,67.0,120,107,1.0,72.0
2584,83.0,0,107,0.0,72.0
2585,81.0,120,107,0.0,72.0
2586,67.0,0,107,1.0,72.0
2587,67.0,240,107,1.0,72.0
2588,79.0,120,431,0.0,72.0
2589,67.0,240,107,1.0,72.0
2590,77.0,0,107,0.0,72.0
2591,83.0,0,107,0.0,72.0
2592,86.0,240,107,0.0,72.0
2593,67.0,240,107,1.0,72.0
2594,89.0,0,107,0.0,72.0
2595,55.0,0,431,1.0,72.0
2596,87.0,120,107,0.0,72.0
2597,86.0,120,107,0.0,72.0
2598,67.0,0,107,1.0,72.0
2599,84.0,120,107,0.0,72.0
2600,67.0,0,107,1.0,72.0
2601,67.0,240,107,1.0,72.0
2602,83.0,120,431,0.0,72.0
2603,67.0,240,107,1.0,72.0
2604,75.0,240,107,0.0,72.0
2605,79.0,0,107,0.0,72.0
2606,84.0,0,107,0.0,72.0
2607,79.0,0,107,0.0,72.0
2608,67.0,240,107,1.0,72.0
2609,55.0,0,431,1.0,72.0
2610,77.0,120,107,0.0,72.0
2611,67.0,120,107,1.0,72.0
2612,75.0,0,107,0.0,72.0
2613,74.0,120,107,0.0,72.0
2614,67.0,120,107,1.0,72.0
2615,67.0,240,107,1.0,72.0
2616,72.0,0,431,0.0,72.0
2617,67.0,240,107,1.0,72.0
2618,84.0,0,107,0.0,72.0
2619,78.0,0,107,0.0,72.0
2620,75.0,0,107,0.0,72.0
2621,87.0,240,107,0.0,72.0
2622,67.0,0,107,1.0,72.0
2623,55.0,240,431,1.0,72.0
2624,84.0,120,107,0.0,72.0
2625,82.0,120,107,0.0,72.0
2626,67.0,0,107,1.0,72.0
2627,80.0,120,107,0.0,72.0
2628,67.0,120,107,1.0,72.0
2629,79.0,0,107,0.0,72.0
2630,78.0,120,107,0.0,72.0
2631,75.0,0,107,0.0,72.0
2632,67.0,120,107,1.0,72.0
2633,78.0,120,107,0.0,72.0
2634,84.0,0,107,0.0,72.0
2635,67.0,120,107,1.0,72.0
2636,78.0,120,107,0.0,72.0
2637,67.0,240,107,1.0,72.0
2638,79.0,120,431,0.0,72.0
2639,55.0,0,431,1.0,72.0
2640,67.0,240,107,1.0,72.0
2641,67.0,240,107,1.0,72.0
2642,67.0,240,107,1.0,72.0
2643,67.0,240,107,1.0,72.0
2644,62.0,0,107,1.0,79.0
2645,77.0,0,107,0.0,64.0
2646,79.0,240,107,0.0,64.0
2647,65.0,240,107,1.0,79.0
2648,79.0,0,107,0.0,64.0
2649,77.0,0,107,0.0,64.0
2650,63.0,120,107,1.0,79.0
2651,77.0,0,107,0.0,64.0
2652,79.0,120,107,0.0,64.0
2653,62.0,0,107,1.0,79.0
2654,60.0,120,107,1.0,79.0
2655,77.0,0,107,0.0,64.0
2656,74.0,120,107,0.0,64.0
2657,79.0,0,107,0.0,64.0
2658,77.0,0,107,0.0,64.0
2659,79.0,240,107,0.0,64.0
2660,74.0,0,107,0.0,64.0
2661,59.0,0,431,1.0,79.0
2662,74.0,0,107,0.0,64.0
2663,77.0,0,107,0.0,64.0
2664,79.0,240,107,0.0,64.0
2665,60.0,0,107,1.0,79.0
2666,79.0,240,107,0.0,64.0
2667,75.0,0,107,0.0,64.0
2668,72.0,0,107,0.0,64.0
2669,67.0,0,107,1.0,79.0
2670,72.0,240,107,0.0,64.0
2671,75.0,0,107,0.0,64.0
2672,79.0,0,107,0.0,64.0
2673,65.0,120,107,1.0,79.0
2674,75.0,0,107,0.0,64.0
2675,72.0,0,107,0.0,64.0
2676,63.0,120,107,1.0,79.0
2677,79.0,0,107,0.0,64.0
2678,62.0,120,107,1.0,79.0
2679,72.0,0,107,0.0,64.0
2680,75.0,0,107,0.0,64.0
2681,79.0,0,107,0.0,64.0
2682,79.0,0,107,0.0,64.0
2683,75.0,240,107,0.0,64.0
2684,72.0,0,107,0.0,64.0
2685,60.0,120,431,1.0,79.0
2686,75.0,0,107,0.0,64.0
2687,72.0,240,107,0.0,64.0
2688,79.0,0,107,0.0,64.0
2689,72.0,0,107,0.0,64.0
2690,78.0,0,107,0.0,64.0
2691,84.0,0,107,0.0,64.0
2692,56.0,240,107,1.0,79.0
2693,84.0,0,107,0.0,64.0
2694,81.0,0,107,0.0,64.0
2695,78.0,0,107,0.0,64.0
2696,72.0,0,107,0.0,64.0
2697,60.0,240,107,1.0,79.0
2698,58.0,120,107,1.0,79.0
2699,72.0,0,107,0.0,64.0
2700,78.0,0,107,0.0,64.0
2701,81.0,0,107,0.0,64.0
2702,84.0,0,107,0.0,64.0
2703,56.0,120,107,1.0,79.0
2704,55.0,120,107,1.0,79.0
2705,84.0,0,107,0.0,64.0
2706,81.0,0,107,0.0,64.0
2707,78.0,120,107,0.0,64.0
2708,75.0,0,107,0.0,64.0
2709,72.0,0,107,0.0,64.0
2710,81.0,0,107,0.0,64.0
2711,84.0,0,107,0.0,64.0
2712,78.0,0,107,0.0,64.0
2713,75.0,240,107,0.0,64.0
2714,72.0,0,107,0.0,64.0
2715,54.0,0,431,1.0,79.0
2716,72.0,0,107,0.0,64.0
2717,75.0,0,107,0.0,64.0
2718,78.0,0,107,0.0,64.0
2719,81.0,0,107,0.0,64.0
2720,84.0,240,107,0.0,64.0
2721,83.0,0,107,0.0,64.0
2722,55.0,0,107,1.0,79.0
2723,74.0,0,107,0.0,64.0
2724,79.0,240,107,0.0,64.0
2725,50.0,240,107,1.0,79.0
2726,83.0,0,107,0.0,64.0
2727,79.0,0,107,0.0,64.0
2728,74.0,0,107,0.0,64.0
2729,48.0,120,107,1.0,79.0
2730,47.0,0,107,1.0,79.0
2731,74.0,120,107,0.0,64.0
2732,79.0,0,107,0.0,64.0
2733,83.0,0,107,0.0,64.0
2734,45.0,120,107,1.0,79.0
2735,74.0,120,107,0.0,64.0
2736,79.0,0,107,0.0,64.0
2737,83.0,0,107,0.0,64.0
2738,74.0,0,107,0.0,64.0
2739,79.0,0,107,0.0,64.0
2740,83.0,240,107,0.0,64.0
2741,43.0,0,431,1.0,79.0
2742,74.0,240,107,0.0,64.0
2743,79.0,0,107,0.0,64.0
2744,83.0,0,107,0.0,64.0
2745,48.0,0,107,1.0,79.0
2746,84.0,240,107,0.0,64.0
2747,75.0,0,107,0.0,64.0
2748,79.0,0,107,0.0,64.0
2749,55.0,240,107,1.0,79.0
2750,67.0,0,107,0.0,64.0
2751,72.0,0,107,0.0,64.0
2752,75.0,0,107,0.0,64.0
2753,79.0,0,107,0.0,64.0
2754,53.0,120,107,1.0,79.0
2755,75.0,0,107,0.0,64.0
2756,51.0,0,107,1.0,79.0
2757,72.0,0,107,0.0,64.0
2758,79.0,120,107,0.0,64.0
2759,50.0,120,107,1.0,79.0
2760,67.0,0,107,0.0,64.0
2761,72.0,0,107,0.0,64.0
2762,79.0,0,107,0.0,64.0
2763,75.0,120,107,0.0,64.0
2764,72.0,0,107,0.0,64.0
2765,79.0,240,107,0.0,64.0
2766,75.0,0,107,0.0,64.0
2767,67.0,0,107,0.0,64.0
2768,48.0,0,431,1.0,79.0
2769,67.0,0,107,0.0,64.0
2770,72.0,0,107,0.0,64.0
2771,75.0,0,107,0.0,64.0
2772,79.0,240,107,0.0,64.0
2773,84.0,0,107,0.0,64.0
2774,44.0,240,107,1.0,89.0
2775,80.0,0,107,0.0,64.0
2776,72.0,0,107,0.0,64.0
2777,75.0,0,107,0.0,64.0
2778,72.0,0,107,0.0,64.0
2779,75.0,0,107,0.0,64.0
2780,84.0,240,107,0.0,64.0
2781,48.0,0,107,1.0,89.0
2782,80.0,0,107,0.0,64.0
2783,46.0,120,107,1.0,89.0
2784,72.0,0,107,0.0,64.0
2785,44.0,120,107,1.0,89.0
2786,80.0,0,107,0.0,64.0
2787,75.0,0,107,0.0,64.0
2788,84.0,0,107,0.0,64.0
2789,43.0,120,107,1.0,89.0
2790,75.0,0,107,0.0,64.0
2791,72.0,0,107,0.0,64.0
2792,81.0,0,107,0.0,64.0
2793,84.0,0,107,0.0,64.0
2794,84.0,240,107,0.0,64.0
2795,72.0,0,107,0.0,64.0
2796,75.0,0,107,0.0,64.0
2797,81.0,0,107,0.0,64.0
2798,42.0,120,431,1.0,89.0
2799,84.0,0,107,0.0,64.0
2800,72.0,240,107,0.0,64.0
2801,75.0,0,107,0.0,64.0
2802,81.0,0,107,0.0,64.0
2803,79.0,0,107,0.0,64.0
2804,74.0,240,107,0.0,64.0
2805,83.0,0,107,0.0,64.0
2806,43.0,0,107,1.0,89.0
2807,47.0,120,107,1.0,89.0
2808,83.0,0,107,0.0,64.0
2809,48.0,0,107,1.0,89.0
2810,74.0,120,107,0.0,64.0
2811,79.0,0,107,0.0,64.0
2812,50.0,120,107,1.0,89.0
2813,79.0,120,107,0.0,64.0
2814,83.0,0,107,0.0,64.0
2815,52.0,0,107,1.0,89.0
2816,74.0,0,107,0.0,64.0
2817,54.0,120,107,1.0,89.0
2818,79.0,0,107,0.0,64.0
2819,77.0,120,107,0.0,64.0
2820,79.0,120,107,0.0,64.0
2821,55.0,120,431,1.0,89.0
2822,74.0,120,107,0.0,64.0
2823,71.0,120,107,0.0,64.0
2824,67.0,120,107,0.0,64.0
2825,75.0,120,107,0.0,64.0
2826,79.0,0,107,0.0,64.0
2827,84.0,0,107,0.0,64.0
2828,55.0,0,107,1.0,89.0
2829,59.0,120,107,1.0,89.0
2830,79.0,0,107,0.0,64.0
2831,60.0,120,107,1.0,89.0
2832,75.0,0,107,0.0,64.0
2833,84.0,0,107,0.0,64.0
2834,62.0,120,107,1.0,89.0
2835,75.0,0,107,0.0,64.0
2836,79.0,0,107,0.0,64.0
2837,84.0,120,107,0.0,64.0
2838,63.0,0,107,1.0,89.0
2839,66.0,120,107,1.0,89.0
2840,79.0,120,107,0.0,64.0
2841,77.0,120,107,0.0,64.0
2842,79.0,120,107,0.0,64.0
2843,67.0,0,431,1.0,89.0
2844,75.0,120,107,0.0,64.0
2845,72.0,120,107,0.0,64.0
2846,67.0,120,107,0.0,64.0
2847,43.0,0,107,1.0,89.0
2848,74.0,0,107,0.0,64.0
2849,71.0,120,107,0.0,64.0
2850,79.0,0,107,0.0,64.0
2851,47.0,120,107,1.0,89.0
2852,71.0,0,107,0.0,64.0
2853,74.0,0,107,0.0,64.0
2854,79.0,0,107,0.0,64.0
2855,48.0,120,107,1.0,89.0
2856,50.0,120,107,1.0,89.0
2857,52.0,0,107,1.0,89.0
2858,79.0,0,107,0.0,64.0
2859,71.0,120,107,0.0,64.0
2860,74.0,0,107,0.0,64.0
2861,54.0,120,107,1.0,89.0
2862,79.0,120,107,0.0,64.0
2863,77.0,120,107,0.0,64.0
2864,79.0,120,107,0.0,64.0
2865,55.0,0,431,1.0,89.0
2866,74.0,120,107,0.0,64.0
2867,71.0,120,107,0.0,64.0
2868,67.0,120,107,0.0,64.0
2869,75.0,0,107,0.0,64.0
2870,79.0,0,107,0.0,64.0
2871,84.0,0,107,0.0,64.0
2872,55.0,120,107,1.0,89.0
2873,59.0,120,107,1.0,89.0
2874,60.0,120,107,1.0,89.0
2875,84.0,0,107,0.0,64.0
2876,79.0,0,107,0.0,64.0
2877,75.0,0,107,0.0,64.0
2878,62.0,120,107,1.0,89.0
2879,84.0,0,107,0.0,64.0
2880,79.0,0,107,0.0,64.0
2881,75.0,120,107,0.0,64.0
2882,63.0,0,107,1.0,89.0
2883,66.0,120,107,1.0,89.0
2884,79.0,0,107,0.0,64.0
2885,77.0,120,107,0.0,64.0
2886,79.0,120,107,0.0,64.0
2887,67.0,120,431,1.0,89.0
2888,75.0,120,107,0.0,64.0
2889,72.0,120,107,0.0,64.0
2890,67.0,120,107,0.0,64.0
2891,67.0,120,107,0.0,89.0
2892,43.0,0,107,1.0,89.0
2893,79.0,120,107,0.0,89.0
2894,55.0,0,107,1.0,89.0
2895,67.0,0,107,0.0,89.0
2896,43.0,120,107,1.0,89.0
2897,79.0,120,107,0.0,89.0
2898,55.0,0,107,1.0,89.0
2899,44.0,120,107,1.0,89.0
2900,66.0,0,107,0.0,89.0
2901,56.0,120,107,1.0,89.0
2902,78.0,0,107,0.0,89.0
2903,43.0,0,107,1.0,89.0
2904,67.0,120,107,0.0,89.0
2905,79.0,120,107,0.0,89.0
2906,55.0,0,107,1.0,89.0
2907,43.0,0,107,1.0,89.0
2908,67.0,120,107,0.0,89.0
2909,79.0,0,107,0.0,89.0
2910,55.0,120,107,1.0,89.0
2911,66.0,0,107,0.0,89.0
2912,44.0,120,107,1.0,89.0
2913,78.0,0,107,0.0,89.0
2914,56.0,120,107,1.0,89.0
2915,67.0,0,107,0.0,89.0
2916,43.0,120,107,1.0,89.0
2917,55.0,120,107,1.0,89.0
2918,79.0,0,107,0.0,89.0
2919,67.0,120,107,0.0,89.0
2920,43.0,0,107,1.0,89.0
2921,55.0,120,107,1.0,89.0
2922,79.0,0,107,0.0,89.0
2923,44.0,0,107,1.0,89.0
2924,66.0,120,107,0.0,89.0
2925,78.0,120,107,0.0,89.0
2926,56.0,0,107,1.0,89.0
2927,67.0,0,107,0.0,89.0
2928,43.0,120,107,1.0,89.0
2929,55.0,0,107,1.0,89.0
2930,79.0,120,107,0.0,89.0
2931,67.0,0,107,0.0,89.0
2932,43.0,120,107,1.0,89.0
2933,79.0,0,107,0.0,89.0
2934,55.0,120,107,1.0,89.0
2935,66.0,120,107,0.0,89.0
2936,44.0,0,107,1.0,89.0
2937,78.0,0,107,0.0,89.0
2938,56.0,120,107,1.0,89.0
2939,67.0,0,107,0.0,89.0
2940,79.0,120,107,0.0,89.0
2941,67.0,120,107,0.0,89.0
2942,43.0,0,431,1.0,89.0
2943,55.0,120,431,1.0,89.0
2944,79.0,120,107,0.0,89.0
2945,67.0,120,107,0.0,89.0
2946,79.0,120,107,0.0,89.0
2947,67.0,120,107,0.0,89.0
2948,79.0,120,107,0.0,89.0
2949,67.0,120,107,0.0,89.0
2950,79.0,120,107,0.0,89.0
2951,67.0,120,107,0.0,89.0
2952,79.0,120,107,0.0,89.0
2953,67.0,0,107,0.0,64.0
2954,82.0,240,215,0.0,64.0
2955,79.0,240,215,0.0,64.0
2956,76.0,240,215,0.0,64.0
2957,72.0,240,215,0.0,64.0
2958,70.0,240,215,0.0,64.0
2959,67.0,240,107,0.0,64.0
2960,79.0,240,215,0.0,64.0
2961,76.0,240,215,0.0,64.0
2962,72.0,240,215,0.0,64.0
2963,70.0,240,215,0.0,64.0
2964,48.0,0,2733,1.0,64.0
2965,58.0,120,2733,1.0,64.0
2966,55.0,0,2733,1.0,64.0
2967,52.0,0,2733,1.0,64.0
2968,67.0,240,215,0.0,64.0
2969,64.0,0,107,0.0,64.0
2970,76.0,240,215,0.0,64.0
2971,72.0,240,215,0.0,64.0
2972,70.0,240,215,0.0,64.0
2973,67.0,240,215,0.0,64.0
2974,64.0,240,215,0.0,64.0
2975,60.0,240,107,0.0,64.0
2976,70.0,240,215,0.0,64.0
2977,67.0,240,215,0.0,64.0
2978,64.0,240,215,0.0,64.0
2979,60.0,240,215,0.0,64.0
2980,46.0,240,2733,1.0,64.0
2981,58.0,240,215,0.0,64.0
2982,55.0,0,107,0.0,64.0
2983,67.0,240,215,0.0,64.0
2984,64.0,240,215,0.0,64.0
2985,60.0,240,215,0.0,64.0
2986,46.0,0,935,1.0,64.0
2987,43.0,0,935,1.0,64.0
2988,48.0,0,935,1.0,64.0
2989,36.0,0,935,1.0,64.0
2990,40.0,240,935,1.0,64.0
2991,58.0,240,215,0.0,64.0
2992,55.0,240,215,0.0,64.0
2993,52.0,240,215,1.0,69.0
2994,36.0,0,431,1.0,69.0
2995,48.0,0,431,1.0,69.0
2996,58.0,240,215,1.0,69.0
2997,52.0,240,215,1.0,69.0
2998,52.0,0,215,1.0,69.0
2999,36.0,0,431,1.0,69.0
3000,48.0,240,431,1.0,69.0
3001,58.0,240,215,1.0,69.0
3002,52.0,240,215,1.0,69.0
3003,52.0,240,215,1.0,59.0
3004,36.0,0,431,1.0,59.0
3005,48.0,0,431,1.0,59.0
3006,58.0,240,215,1.0,59.0
3007,52.0,240,215,1.0,59.0
3008,52.0,240,215,1.0,59.0
3009,36.0,0,431,1.0,59.0
3010,48.0,0,431,1.0,59.0
3011,58.0,240,215,1.0,59.0
3012,52.0,240,215,1.0,59.0
3013,36.0,0,646,1.0,54.0
3014,52.0,240,646,1.0,54.0
3015,48.0,0,646,1.0,54.0
3016,53.0,1200,107,1.0,64.0
3017,53.0,0,215,1.0,64.0
3018,41.0,240,215,1.0,64.0
3019,36.0,240,215,1.0,64.0
3020,48.0,0,215,1.0,64.0
3021,45.0,0,107,1.0,64.0
3022,57.0,240,107,1.0,64.0
3023,57.0,0,215,1.0,64.0
3024,45.0,240,215,1.0,64.0
3025,41.0,240,215,1.0,64.0
3026,53.0,0,215,1.0,64.0
3027,60.0,240,107,1.0,64.0
3028,48.0,0,107,1.0,64.0
3029,60.0,0,215,1.0,64.0
3030,48.0,240,215,1.0,64.0
3031,45.0,240,215,1.0,64.0
3032,57.0,0,215,1.0,64.0
3033,65.0,0,107,1.0,64.0
3034,53.0,240,107,1.0,64.0
3035,65.0,0,215,1.0,64.0
3036,53.0,240,215,1.0,64.0
3037,60.0,0,215,1.0,64.0
3038,48.0,240,215,1.0,64.0
3039,69.0,0,107,1.0,64.0
3040,57.0,240,107,1.0,64.0
3041,69.0,240,215,0.0,64.0
3042,57.0,0,215,1.0,64.0
3043,65.0,240,215,0.0,64.0
3044,53.0,0,215,1.0,64.0
3045,60.0,0,107,1.0,64.0
3046,72.0,240,107,0.0,64.0
3047,72.0,240,431,0.0,64.0
3048,67.0,0,215,0.0,64.0
3049,60.0,0,215,1.0,64.0
3050,70.0,0,215,0.0,64.0
3051,52.0,480,215,1.0,64.0
3052,65.0,0,431,0.0,64.0
3053,69.0,240,431,0.0,64.0
3054,60.0,0,431,1.0,64.0
3055,53.0,0,431,1.0,64.0
3056,72.0,480,107,0.0,64.0
3057,72.0,240,431,0.0,64.0
3058,52.0,480,215,1.0,64.0
3059,70.0,0,215,0.0,64.0
3060,67.0,0,215,0.0,64.0
3061,60.0,0,215,1.0,64.0
3062,65.0,240,431,0.0,64.0
3063,69.0,0,431,0.0,64.0
3064,53.0,0,431,1.0,64.0
3065,74.0,480,107,0.0,64.0
3066,72.0,240,431,0.0,64.0
3067,70.0,0,215,0.0,64.0
3068,67.0,0,215,0.0,64.0
3069,60.0,480,215,1.0,64.0
3070,52.0,0,215,1.0,64.0
3071,69.0,0,431,0.0,64.0
3072,65.0,240,431,0.0,64.0
3073,53.0,0,431,1.0,64.0
3074,75.0,480,107,0.0,64.0
3075,74.0,240,431,0.0,64.0
3076,69.0,0,215,0.0,64.0
3077,54.0,0,215,1.0,64.0
3078,62.0,480,215,1.0,64.0
3079,72.0,0,215,0.0,64.0
3080,67.0,240,431,0.0,64.0
3081,70.0,0,431,0.0,64.0
3082,55.0,0,431,1.0,64.0
3083,75.0,480,107,0.0,64.0
3084,74.0,240,431,0.0,64.0
3085,72.0,0,215,0.0,64.0
3086,69.0,0,215,0.0,64.0
3087,54.0,0,215,1.0,64.0
3088,62.0,480,215,1.0,64.0
3089,55.0,0,431,1.0,64.0
3090,70.0,0,431,0.0,64.0
3091,67.0,0,431,0.0,64.0
3092,62.0,240,431,1.0,64.0
3093,79.0,480,107,0.0,64.0
3094,77.0,240,431,0.0,64.0
3095,65.0,0,215,1.0,64.0
3096,57.0,480,215,1.0,64.0
3097,75.0,0,215,0.0,64.0
3098,72.0,0,215,0.0,64.0
3099,65.0,0,431,1.0,64.0
3100,58.0,0,431,1.0,64.0
3101,70.0,240,431,0.0,64.0
3102,74.0,0,431,0.0,64.0
3103,79.0,480,107,0.0,64.0
3104,79.0,240,215,0.0,64.0
3105,77.0,240,215,0.0,64.0
3106,75.0,0,215,0.0,64.0
3107,65.0,0,215,1.0,64.0
3108,57.0,0,215,1.0,64.0
3109,72.0,240,215,0.0,64.0
3110,74.0,0,215,0.0,54.0
3111,70.0,240,215,0.0,54.0
3112,65.0,0,431,1.0,54.0
3113,58.0,0,431,1.0,54.0
3114,72.0,0,215,0.0,54.0
3115,75.0,240,215,0.0,54.0
3116,74.0,0,215,0.0,54.0
3117,77.0,240,215,0.0,54.0
3118,79.0,0,215,0.0,54.0
3119,75.0,0,215,0.0,54.0
3120,63.0,240,431,1.0,54.0
3121,72.0,240,215,0.0,54.0
3122,75.0,0,215,0.0,54.0
3123,74.0,0,215,0.0,54.0
3124,70.0,0,215,0.0,54.0
3125,64.0,240,215,1.0,54.0
3126,69.0,0,107,0.0,54.0
3127,72.0,240,107,0.0,54.0
3128,65.0,0,107,1.0,54.0
3129,64.0,0,107,1.0,54.0
3130,74.0,120,107,0.0,54.0
3131,70.0,0,107,0.0,54.0
3132,65.0,120,107,1.0,54.0
3133,72.0,0,107,0.0,54.0
3134,69.0,0,107,0.0,54.0
3135,74.0,0,107,0.0,54.0
3136,64.0,0,107,1.0,54.0
3137,70.0,120,107,0.0,54.0
3138,65.0,0,107,1.0,54.0
3139,72.0,120,107,0.0,54.0
3140,69.0,0,107,0.0,54.0
3141,74.0,0,107,0.0,54.0
3142,70.0,120,107,0.0,54.0
3143,64.0,0,107,1.0,54.0
3144,72.0,0,431,0.0,54.0
3145,69.0,120,431,0.0,54.0
3146,65.0,0,431,1.0,54.0
3147,65.0,480,107,0.0,54.0
3148,65.0,0,107,0.0,64.0
3149,46.0,240,215,1.0,79.0
3150,62.0,120,107,0.0,64.0
3151,63.0,0,107,0.0,64.0
3152,41.0,120,215,1.0,79.0
3153,65.0,120,107,0.0,64.0
3154,41.0,0,107,1.0,79.0
3155,67.0,120,107,0.0,64.0
3156,69.0,120,107,0.0,64.0
3157,70.0,120,107,0.0,64.0
3158,50.0,0,215,1.0,79.0
3159,65.0,120,107,0.0,64.0
3160,67.0,0,107,0.0,64.0
3161,46.0,120,215,1.0,79.0
3162,69.0,120,107,0.0,64.0
3163,46.0,0,107,1.0,79.0
3164,70.0,120,107,0.0,64.0
3165,72.0,120,107,0.0,64.0
3166,74.0,120,107,0.0,64.0
3167,53.0,0,215,1.0,79.0
3168,69.0,120,107,0.0,64.0
3169,70.0,120,107,0.0,64.0
3170,50.0,0,215,1.0,79.0
3171,72.0,120,107,0.0,64.0
3172,74.0,120,107,0.0,64.0
3173,50.0,0,107,1.0,79.0
3174,75.0,120,107,0.0,64.0
3175,77.0,120,107,0.0,64.0
3176,58.0,0,215,1.0,79.0
3177,74.0,120,107,0.0,64.0
3178,75.0,0,107,0.0,64.0
3179,53.0,120,215,1.0,79.0
3180,77.0,120,107,0.0,64.0
3181,53.0,0,107,1.0,79.0
3182,79.0,120,107,0.0,64.0
3183,81.0,120,107,0.0,64.0
3184,58.0,120,107,1.0,64.0
3185,53.0,0,107,1.0,64.0
3186,82.0,0,107,0.0,64.0
3187,50.0,0,107,1.0,64.0
3188,81.0,120,107,0.0,64.0
3189,53.0,0,107,1.0,64.0
3190,58.0,0,107,1.0,64.0
3191,50.0,120,107,1.0,64.0
3192,79.0,0,107,0.0,64.0
3193,77.0,120,107,0.0,64.0
3194,75.0,0,107,0.0,64.0
3195,50.0,0,107,1.0,64.0
3196,58.0,0,107,1.0,64.0
3197,53.0,120,107,1.0,64.0
3198,74.0,120,107,0.0,64.0
3199,72.0,120,107,0.0,64.0
3200,58.0,0,107,1.0,64.0
3201,53.0,0,107,1.0,64.0
3202,50.0,0,107,1.0,64.0
3203,70.0,120,107,0.0,64.0
3204,58.0,0,107,1.0,64.0
3205,50.0,0,107,1.0,64.0
3206,53.0,0,107,1.0,64.0
3207,69.0,120,107,0.0,64.0
3208,70.0,120,107,0.0,64.0
3209,58.0,0,107,1.0,64.0
3210,53.0,0,107,1.0,64.0
3211,50.0,120,107,1.0,64.0
3212,74.0,0,107,0.0,64.0
3213,70.0,120,107,0.0,64.0
3214,79.0,120,107,0.0,64.0
3215,55.0,0,107,1.0,64.0
3216,51.0,0,107,1.0,64.0
3217,77.0,120,107,0.0,64.0
3218,55.0,0,107,1.0,64.0
3219,51.0,120,107,1.0,64.0
3220,75.0,0,107,0.0,64.0
3221,74.0,120,107,0.0,64.0
3222,55.0,120,107,1.0,64.0
3223,72.0,0,107,0.0,64.0
3224,51.0,0,107,1.0,64.0
3225,70.0,120,107,0.0,64.0
3226,69.0,0,107,0.0,64.0
3227,53.0,120,107,1.0,64.0
3228,67.0,120,107,0.0,64.0
3229,65.0,120,107,0.0,64.0
3230,53.0,0,107,1.0,64.0
3231,63.0,120,107,0.0,64.0
3232,53.0,120,107,1.0,64.0
3233,62.0,0,107,0.0,64.0
3234,60.0,120,107,0.0,64.0
3235,58.0,0,107,0.0,64.0
3236,46.0,120,215,1.0,64.0
3237,62.0,120,107,0.0,64.0
3238,63.0,0,107,0.0,64.0
3239,41.0,120,215,1.0,64.0
3240,65.0,120,107,0.0,64.0
3241,41.0,0,107,1.0,64.0
3242,67.0,120,107,0.0,64.0
3243,69.0,120,107,0.0,64.0
3244,70.0,0,107,0.0,64.0
3245,50.0,120,215,1.0,64.0
3246,65.0,120,107,0.0,64.0
3247,67.0,0,107,0.0,64.0
3248,46.0,120,215,1.0,64.0
3249,69.0,120,107,0.0,64.0
3250,46.0,120,107,1.0,64.0
3251,70.0,0,107,0.0,64.0
3252,72.0,120,107,0.0,64.0
3253,74.0,0,107,0.0,64.0
3254,53.0,120,215,1.0,64.0
3255,69.0,120,107,0.0,64.0
3256,70.0,0,107,0.0,64.0
3257,50.0,120,215,1.0,64.0
3258,72.0,120,107,0.0,64.0
3259,74.0,0,107,0.0,64.0
3260,50.0,120,107,1.0,64.0
3261,75.0,120,107,0.0,64.0
3262,77.0,120,107,0.0,64.0
3263,58.0,0,215,1.0,64.0
3264,74.0,120,107,0.0,64.0
3265,75.0,0,107,0.0,64.0
3266,53.0,120,215,1.0,64.0
3267,77.0,120,107,0.0,64.0
3268,79.0,0,107,0.0,64.0
3269,53.0,120,107,1.0,64.0
3270,81.0,120,107,0.0,64.0
3271,58.0,0,107,1.0,89.0
3272,53.0,0,107,1.0,89.0
3273,50.0,120,107,1.0,89.0
3274,82.0,0,107,0.0,89.0
3275,81.0,120,107,0.0,89.0
3276,79.0,0,107,0.0,89.0
3277,58.0,0,107,1.0,89.0
3278,53.0,120,107,1.0,89.0
3279,50.0,0,107,1.0,89.0
3280,77.0,120,107,0.0,89.0
3281,50.0,0,107,1.0,89.0
3282,58.0,0,107,1.0,89.0
3283,75.0,120,107,0.0,89.0
3284,53.0,0,107,1.0,89.0
3285,74.0,120,107,0.0,89.0
3286,72.0,0,107,0.0,89.0
3287,50.0,120,107,1.0,89.0
3288,53.0,0,107,1.0,89.0
3289,58.0,0,107,1.0,89.0
3290,70.0,120,107,0.0,89.0
3291,69.0,0,107,0.0,89.0
3292,58.0,120,107,1.0,89.0
3293,53.0,0,107,1.0,89.0
3294,50.0,0,107,1.0,89.0
3295,67.0,120,107,0.0,89.0
3296,53.0,0,107,1.0,89.0
3297,65.0,120,107,0.0,89.0
3298,50.0,0,107,1.0,89.0
3299,58.0,0,107,1.0,89.0
3300,63.0,120,107,0.0,89.0
3301,39.0,0,107,1.0,89.0
3302,51.0,0,107,1.0,89.0
3303,62.0,120,107,0.0,89.0
3304,60.0,120,107,0.0,89.0
3305,51.0,120,107,1.0,89.0
3306,39.0,0,107,1.0,89.0
3307,58.0,0,107,0.0,89.0
3308,57.0,120,107,0.0,89.0
3309,51.0,0,107,1.0,89.0
3310,55.0,120,107,0.0,89.0
3311,39.0,0,107,1.0,89.0
3312,53.0,120,107,0.0,89.0
3313,41.0,0,107,1.0,89.0
3314,51.0,120,107,0.0,89.0
3315,50.0,120,107,0.0,89.0
3316,48.0,0,107,0.0,89.0
3317,41.0,120,107,1.0,89.0
3318,46.0,120,107,0.0,89.0
3319,45.0,120,107,0.0,89.0
3320,41.0,0,107,1.0,89.0
3321,48.0,120,107,0.0,89.0
3322,46.0,0,215,0.0,89.0
3323,34.0,120,431,1.0,89.0
3324,50.0,240,215,0.0,89.0
3325,53.0,240,215,0.0,89.0
3326,58.0,240,215,0.0,89.0
3327,62.0,240,215,0.0,89.0
3328,65.0,240,215,0.0,89.0
3329,53.0,240,107,1.0,64.0
3330,55.0,120,107,1.0,64.0
3331,53.0,120,107,1.0,64.0
3332,60.0,0,431,0.0,82.0
3333,69.0,0,431,0.0,82.0
3334,65.0,0,431,0.0,82.0
3335,51.0,120,107,1.0,64.0
3336,50.0,0,107,1.0,64.0
3337,69.0,120,215,0.0,82.0
3338,65.0,0,215,0.0,82.0
3339,60.0,0,215,0.0,82.0
3340,48.0,120,107,1.0,64.0
3341,46.0,120,107,1.0,64.0
3342,45.0,120,107,1.0,64.0
3343,46.0,120,107,1.0,64.0
3344,65.0,0,431,0.0,82.0
3345,62.0,0,431,0.0,82.0
3346,70.0,0,431,0.0,82.0
3347,48.0,120,107,1.0,64.0
3348,50.0,0,107,1.0,64.0
3349,70.0,0,215,0.0,82.0
3350,65.0,0,215,0.0,82.0
3351,62.0,120,215,0.0,82.0
3352,51.0,120,107,1.0,64.0
3353,53.0,0,107,1.0,64.0
3354,55.0,120,107,1.0,64.0
3355,53.0,120,107,1.0,64.0
3356,60.0,120,431,0.0,82.0
3357,65.0,0,431,0.0,82.0
3358,69.0,0,431,0.0,82.0
3359,51.0,120,107,1.0,64.0
3360,50.0,120,107,1.0,64.0
3361,69.0,0,215,0.0,82.0
3362,65.0,0,215,0.0,82.0
3363,60.0,0,215,0.0,82.0
3364,48.0,120,107,1.0,64.0
3365,46.0,0,107,1.0,64.0
3366,45.0,120,107,1.0,64.0
3367,46.0,120,107,1.0,64.0
3368,62.0,0,431,0.0,82.0
3369,65.0,0,431,0.0,82.0
3370,70.0,120,431,0.0,82.0
3371,48.0,120,107,1.0,64.0
3372,50.0,0,107,1.0,64.0
3373,70.0,120,215,0.0,82.0
3374,62.0,0,215,0.0,82.0
3375,65.0,0,215,0.0,82.0
3376,51.0,120,107,1.0,64.0
3377,53.0,0,107,1.0,64.0
3378,55.0,120,107,1.0,64.0
3379,53.0,120,107,1.0,64.0
3380,65.0,120,431,0.0,82.0
3381,69.0,0,431,0.0,82.0
3382,60.0,0,431,0.0,82.0
3383,51.0,120,107,1.0,64.0
3384,50.0,0,107,1.0,64.0
3385,60.0,0,215,0.0,82.0
3386,65.0,120,215,0.0,82.0
3387,69.0,0,215,0.0,82.0
3388,48.0,120,107,1.0,64.0
3389,46.0,0,107,1.0,64.0
3390,45.0,120,107,1.0,64.0
3391,46.0,120,107,1.0,64.0
3392,70.0,120,431,0.0,82.0
3393,62.0,0,431,0.0,82.0
3394,65.0,0,431,0.0,82.0
3395,48.0,120,107,1.0,64.0
3396,70.0,0,107,0.0,82.0
3397,50.0,120,107,1.0,64.0
3398,65.0,0,107,0.0,82.0
3399,62.0,0,107,0.0,82.0
3400,51.0,120,107,1.0,64.0
3401,53.0,0,107,1.0,64.0
3402,55.0,120,107,1.0,64.0
3403,56.0,120,107,1.0,64.0
3404,55.0,120,107,1.0,64.0
3405,53.0,120,107,1.0,64.0
3406,70.0,0,646,0.0,82.0
3407,65.0,120,646,0.0,82.0
3408,62.0,0,646,0.0,82.0
3409,51.0,120,107,1.0,64.0
3410,50.0,120,107,1.0,64.0
3411,48.0,120,107,1.0,64.0
3412,46.0,120,107,1.0,64.0
3413,44.0,120,107,1.0,64.0
3414,43.0,120,107,1.0,64.0
3415,41.0,120,107,1.0,64.0
3416,39.0,120,107,1.0,86.0
3417,67.0,0,215,0.0,86.0
3418,63.0,0,215,0.0,86.0
3419,58.0,0,215,0.0,86.0
3420,55.0,0,215,0.0,86.0
3421,51.0,0,107,1.0,86.0
3422,55.0,240,107,1.0,86.0
3423,67.0,0,215,0.0,86.0
3424,51.0,0,107,1.0,86.0
3425,55.0,240,107,1.0,86.0
3426,63.0,0,215,0.0,86.0
3427,58.0,0,107,0.0,86.0
3428,70.0,240,107,0.0,86.0
3429,39.0,0,107,1.0,86.0
3430,51.0,240,107,1.0,86.0
3431,55.0,0,107,1.0,86.0
3432,70.0,0,215,0.0,86.0
3433,51.0,0,107,1.0,86.0
3434,55.0,240,107,1.0,86.0
3435,67.0,0,215,0.0,86.0
3436,39.0,240,107,1.0,86.0
3437,75.0,0,107,0.0,86.0
3438,67.0,0,107,0.0,86.0
3439,51.0,240,107,1.0,86.0
3440,55.0,0,107,1.0,86.0
3441,75.0,0,215,0.0,86.0
3442,51.0,0,107,1.0,86.0
3443,55.0,0,107,1.0,86.0
3444,70.0,240,215,0.0,86.0
3445,70.0,0,107,0.0,86.0
3446,39.0,0,107,1.0,86.0
3447,79.0,240,107,0.0,86.0
3448,51.0,240,107,1.0,86.0
3449,55.0,0,107,1.0,86.0
3450,79.0,0,215,0.0,86.0
3451,55.0,0,107,1.0,86.0
3452,51.0,0,107,1.0,86.0
3453,75.0,240,215,0.0,86.0
3454,41.0,0,107,1.0,86.0
3455,77.0,240,215,0.0,86.0
3456,58.0,0,107,1.0,86.0
3457,53.0,240,107,1.0,86.0
3458,62.0,0,107,1.0,86.0
3459,74.0,0,215,0.0,86.0
3460,65.0,0,215,0.0,86.0
3461,70.0,0,215,0.0,86.0
3462,65.0,0,107,0.0,86.0
3463,70.0,0,107,0.0,86.0
3464,74.0,240,107,0.0,86.0
3465,58.0,0,107,1.0,86.0
3466,53.0,0,107,1.0,86.0
3467,62.0,0,107,1.0,86.0
3468,42.0,240,107,1.0,86.0
3469,76.0,0,215,0.0,86.0
3470,62.0,0,107,1.0,86.0
3471,58.0,0,107,1.0,86.0
3472,54.0,240,107,1.0,86.0
3473,64.0,0,215,0.0,86.0
3474,70.0,0,215,0.0,86.0
3475,73.0,240,107,0.0,86.0
3476,58.0,0,107,1.0,86.0
3477,64.0,0,107,0.0,86.0
3478,70.0,0,107,0.0,86.0
3479,62.0,0,107,1.0,86.0
3480,54.0,0,107,1.0,86.0
3481,41.0,240,107,1.0,86.0
3482,77.0,0,215,0.0,86.0
3483,62.0,0,107,1.0,86.0
3484,58.0,0,107,1.0,86.0
3485,53.0,0,107,1.0,86.0
3486,74.0,240,215,0.0,86.0
3487,65.0,0,215,0.0,86.0
3488,70.0,0,215,0.0,86.0
3489,74.0,0,107,0.0,86.0
3490,70.0,0,107,0.0,86.0
3491,65.0,240,107,0.0,86.0
3492,62.0,0,107,1.0,86.0
3493,53.0,0,107,1.0,86.0
3494,58.0,0,107,1.0,86.0
3495,42.0,0,107,1.0,86.0
3496,76.0,240,215,0.0,86.0
3497,62.0,0,107,1.0,86.0
3498,54.0,240,107,1.0,86.0
3499,58.0,0,107,1.0,86.0
3500,70.0,0,215,0.0,86.0
3501,73.0,0,215,0.0,86.0
3502,64.0,0,215,0.0,86.0
3503,54.0,0,107,1.0,86.0
3504,73.0,0,107,0.0,86.0
3505,70.0,0,107,0.0,86.0
3506,64.0,0,107,0.0,86.0
3507,58.0,240,107,1.0,86.0
3508,62.0,0,107,1.0,86.0
3509,41.0,240,107,1.0,86.0
3510,77.0,0,215,0.0,86.0
3511,62.0,0,107,1.0,86.0
3512,58.0,0,107,1.0,86.0
3513,53.0,0,107,1.0,86.0
3514,74.0,240,215,0.0,86.0
3515,70.0,0,215,0.0,86.0
3516,65.0,0,215,0.0,86.0
3517,53.0,0,107,1.0,86.0
3518,58.0,240,107,1.0,86.0
3519,74.0,0,107,0.0,86.0
3520,70.0,0,107,0.0,86.0
3521,65.0,0,107,0.0,86.0
3522,62.0,0,107,1.0,86.0
3523,41.0,0,107,1.0,86.0
3524,82.0,240,215,0.0,86.0
3525,53.0,0,107,1.0,86.0
3526,58.0,0,107,1.0,86.0
3527,62.0,0,107,1.0,86.0
3528,70.0,0,215,0.0,86.0
3529,74.0,0,215,0.0,86.0
3530,77.0,240,215,0.0,86.0
3531,77.0,0,107,0.0,86.0
3532,74.0,0,107,0.0,86.0
3533,70.0,0,107,0.0,86.0
3534,53.0,240,107,1.0,86.0
3535,58.0,0,107,1.0,86.0
3536,62.0,0,107,1.0,86.0
3537,53.0,240,107,1.0,86.0
3538,86.0,0,215,0.0,86.0
3539,65.0,0,107,1.0,86.0
3540,58.0,0,107,1.0,86.0
3541,62.0,0,107,1.0,86.0
3542,74.0,240,215,0.0,86.0
3543,77.0,0,215,0.0,86.0
3544,82.0,0,215,0.0,86.0
3545,77.0,0,107,0.0,86.0
3546,74.0,0,107,0.0,86.0
3547,65.0,0,107,1.0,86.0
3548,62.0,0,107,1.0,86.0
3549,82.0,240,107,0.0,86.0
3550,58.0,0,107,1.0,86.0
3551,53.0,0,107,1.0,86.0
3552,89.0,240,215,0.0,86.0
3553,65.0,0,107,1.0,86.0
3554,62.0,0,107,1.0,86.0
3555,58.0,0,107,1.0,86.0
3556,77.0,0,215,0.0,86.0
3557,82.0,0,215,0.0,86.0
3558,86.0,240,215,0.0,86.0
3559,77.0,240,107,0.0,86.0
3560,82.0,0,107,0.0,86.0
3561,65.0,0,107,1.0,86.0
3562,62.0,0,107,1.0,86.0
3563,58.0,0,107,1.0,86.0
3564,86.0,0,107,0.0,86.0
3565,74.0,240,107,0.0,86.0
3566,89.0,240,215,0.0,86.0
3567,86.0,240,215,0.0,86.0
3568,82.0,240,215,0.0,86.0
3569,77.0,240,215,0.0,86.0
3570,53.0,0,1293,1.0,86.0
3571,58.0,0,1293,1.0,86.0
3572,62.0,0,1293,1.0,86.0
3573,65.0,0,1293,1.0,86.0
3574,74.0,240,215,0.0,86.0
3575,72.0,0,107,0.0,86.0
3576,87.0,240,215,0.0,86.0
3577,84.0,240,215,0.0,86.0
3578,81.0,240,215,0.0,86.0
3579,77.0,240,215,0.0,86.0
3580,53.0,0,1293,1.0,86.0
3581,60.0,0,1293,1.0,86.0
3582,63.0,0,1293,1.0,86.0
3583,65.0,0,1293,1.0,86.0
3584,57.0,240,1293,1.0,86.0
3585,75.0,240,215,0.0,86.0
3586,74.0,0,107,0.0,84.0
3587,89.0,240,107,0.0,84.0
3588,50.0,0,431,1.0,84.0
3589,53.0,0,431,1.0,84.0
3590,58.0,240,431,1.0,84.0
3591,62.0,0,431,1.0,84.0
3592,87.0,120,107,0.0,84.0
3593,86.0,120,107,0.0,84.0
3594,84.0,120,107,0.0,84.0
3595,82.0,120,107,0.0,84.0
3596,81.0,120,107,0.0,84.0
3597,79.0,120,107,0.0,84.0
3598,77.0,120,107,0.0,84.0
3599,75.0,120,107,0.0,84.0
3600,74.0,120,107,0.0,84.0
3601,72.0,120,107,0.0,84.0
3602,79.0,240,107,0.0,84.0
3603,51.0,0,431,1.0,84.0
3604,55.0,0,431,1.0,84.0
3605,60.0,0,431,1.0,84.0
3606,77.0,120,107,0.0,84.0
3607,75.0,120,107,0.0,84.0
3608,74.0,120,107,0.0,84.0
3609,72.0,120,107,0.0,84.0
3610,70.0,120,107,0.0,84.0
3611,69.0,120,107,0.0,84.0
3612,67.0,120,107,0.0,84.0
3613,65.0,120,107,0.0,84.0
3614,63.0,120,107,0.0,84.0
3615,62.0,120,107,0.0,84.0
3616,65.0,240,107,0.0,84.0
3617,58.0,0,431,1.0,84.0
3618,53.0,0,431,1.0,84.0
3619,70.0,240,107,0.0,84.0
3620,74.0,240,107,0.0,84.0
3621,77.0,240,107,0.0,84.0
3622,82.0,240,107,0.0,84.0
3623,77.0,0,107,0.0,86.0
3624,74.0,0,107,0.0,86.0
3625,70.0,240,107,0.0,86.0
3626,53.0,0,107,1.0,86.0
3627,65.0,0,107,1.0,86.0
3628,82.0,120,107,0.0,86.0
3629,74.0,0,107,0.0,86.0
3630,77.0,0,107,0.0,86.0
3631,70.0,120,107,0.0,86.0
3632,53.0,0,107,1.0,86.0
3633,65.0,0,107,1.0,86.0
3634,82.0,120,107,0.0,86.0
3635,53.0,0,107,1.0,86.0
3636,70.0,0,107,0.0,86.0
3637,77.0,120,107,0.0,86.0
3638,65.0,0,107,1.0,86.0
3639,74.0,0,107,0.0,86.0
3640,82.0,120,107,0.0,86.0
3641,70.0,0,107,0.0,86.0
3642,74.0,0,107,0.0,86.0
3643,77.0,120,107,0.0,86.0
3644,53.0,0,107,1.0,86.0
3645,65.0,0,107,1.0,86.0
3646,82.0,120,107,0.0,86.0
3647,53.0,0,107,1.0,86.0
3648,65.0,0,107,1.0,86.0
3649,77.0,0,107,0.0,86.0
3650,74.0,0,107,0.0,86.0
3651,70.0,120,107,0.0,86.0
3652,82.0,120,107,0.0,86.0
3653,70.0,0,107,0.0,86.0
3654,74.0,0,107,0.0,86.0
3655,77.0,0,107,0.0,86.0
3656,65.0,0,107,1.0,86.0
3657,53.0,120,107,1.0,86.0
3658,82.0,120,107,0.0,86.0
3659,65.0,0,107,1.0,86.0
3660,53.0,120,107,1.0,86.0
3661,77.0,0,107,0.0,86.0
3662,75.0,0,107,0.0,86.0
3663,72.0,0,107,0.0,86.0
3664,81.0,120,107,0.0,86.0
3665,65.0,0,107,1.0,86.0
3666,53.0,0,107,1.0,86.0
3667,72.0,0,107,0.0,86.0
3668,75.0,120,107,0.0,86.0
3669,77.0,0,107,0.0,86.0
3670,81.0,120,107,0.0,86.0
3671,75.0,0,107,0.0,86.0
3672,65.0,0,107,1.0,86.0
3673,53.0,120,107,1.0,86.0
3674,72.0,0,107,0.0,86.0
3675,77.0,0,107,0.0,86.0
3676,81.0,120,107,0.0,86.0
3677,75.0,0,107,0.0,86.0
3678,77.0,0,107,0.0,86.0
3679,72.0,120,107,0.0,86.0
3680,65.0,0,107,1.0,86.0
3681,53.0,0,107,1.0,86.0
3682,81.0,120,107,0.0,86.0
3683,72.0,0,107,0.0,86.0
3684,77.0,0,107,0.0,86.0
3685,75.0,0,107,0.0,86.0
3686,65.0,0,107,1.0,86.0
3687,53.0,120,107,1.0,86.0
3688,81.0,120,107,0.0,86.0
3689,75.0,120,107,0.0,86.0
3690,65.0,0,107,1.0,86.0
3691,53.0,0,107,1.0,86.0
3692,77.0,0,107,0.0,86.0
3693,72.0,0,107,0.0,86.0
3694,81.0,120,107,0.0,86.0
3695,58.0,0,107,1.0,64.0
3696,57.0,120,107,1.0,64.0
3697,58.0,120,107,1.0,64.0
3698,77.0,0,431,0.0,79.0
3699,82.0,0,431,0.0,79.0
3700,74.0,120,431,0.0,79.0
3701,60.0,120,107,1.0,64.0
3702,62.0,0,107,1.0,64.0
3703,74.0,0,215,0.0,79.0
3704,77.0,120,215,0.0,79.0
3705,82.0,0,215,0.0,79.0
3706,63.0,120,107,1.0,64.0
3707,65.0,120,107,1.0,64.0
3708,67.0,120,107,1.0,64.0
3709,65.0,120,107,1.0,64.0
3710,77.0,0,431,0.0,79.0
3711,81.0,0,431,0.0,79.0
3712,72.0,0,431,0.0,79.0
3713,63.0,120,107,1.0,64.0
3714,62.0,0,107,1.0,64.0
3715,72.0,120,215,0.0,79.0
3716,77.0,0,215,0.0,79.0
3717,81.0,0,215,0.0,79.0
3718,60.0,120,107,1.0,64.0
3719,58.0,0,107,1.0,64.0
3720,57.0,120,107,1.0,64.0
3721,58.0,120,107,1.0,64.0
3722,77.0,0,431,0.0,79.0
3723,82.0,120,431,0.0,79.0
3724,74.0,0,431,0.0,79.0
3725,60.0,120,107,1.0,64.0
3726,62.0,0,107,1.0,64.0
3727,77.0,120,215,0.0,79.0
3728,82.0,0,215,0.0,79.0
3729,74.0,0,215,0.0,79.0
3730,63.0,120,107,1.0,64.0
3731,65.0,0,107,1.0,64.0
3732,67.0,120,107,1.0,64.0
3733,65.0,120,107,1.0,64.0
3734,72.0,120,431,0.0,79.0
3735,77.0,0,431,0.0,79.0
3736,81.0,0,431,0.0,79.0
3737,63.0,120,107,1.0,64.0
3738,62.0,120,107,1.0,64.0
3739,72.0,0,107,0.0,79.0
3740,77.0,0,107,0.0,79.0
3741,81.0,0,107,0.0,79.0
3742,60.0,120,107,1.0,64.0
3743,70.0,120,107,0.0,52.0
3744,82.0,120,107,0.0,52.0
3745,70.0,120,107,0.0,52.0
3746,58.0,0,431,1.0,64.0
3747,82.0,120,107,0.0,52.0
3748,70.0,120,107,0.0,52.0
3749,82.0,120,107,0.0,52.0
3750,70.0,120,107,0.0,52.0
3751,82.0,120,107,0.0,52.0
3752,70.0,120,107,0.0,52.0
3753,82.0,120,107,0.0,52.0
3754,70.0,120,107,0.0,52.0
3755,82.0,120,107,0.0,52.0
3756,70.0,120,107,0.0,52.0
3757,65.0,0,215,1.0,64.0
3758,68.0,0,215,1.0,64.0
3759,82.0,120,107,0.0,52.0
3760,70.0,0,107,0.0,52.0
3761,67.0,120,215,1.0,64.0
3762,63.0,0,215,1.0,64.0
3763,82.0,120,107,0.0,52.0
3764,65.0,120,107,1.0,64.0
3765,58.0,0,107,1.0,64.0
3766,70.0,0,107,0.0,52.0
3767,82.0,120,107,0.0,52.0
3768,70.0,120,107,0.0,52.0
3769,82.0,120,107,0.0,52.0
3770,70.0,120,107,0.0,52.0
3771,65.0,0,431,1.0,64.0
3772,58.0,0,431,1.0,64.0
3773,82.0,120,107,0.0,52.0
3774,70.0,120,107,0.0,52.0
3775,82.0,120,107,0.0,52.0
3776,70.0,0,107,0.0,52.0
3777,63.0,0,215,1.0,64.0
3778,67.0,120,215,1.0,64.0
3779,82.0,120,107,0.0,52.0
3780,70.0,120,107,0.0,52.0
3781,62.0,0,215,1.0,64.0
3782,65.0,0,215,1.0,64.0
3783,82.0,120,107,0.0,52.0
3784,70.0,0,107,0.0,52.0
3785,63.0,120,107,1.0,64.0
3786,55.0,0,107,1.0,64.0
3787,82.0,120,107,0.0,52.0
3788,70.0,0,107,0.0,52.0
3789,82.0,120,107,0.0,52.0
3790,70.0,120,107,0.0,52.0
3791,55.0,0,431,1.0,64.0
3792,63.0,120,431,1.0,64.0
3793,82.0,120,107,0.0,52.0
3794,70.0,0,107,0.0,52.0
3795,58.0,0,215,1.0,64.0
3796,65.0,120,215,1.0,64.0
3797,82.0,120,107,0.0,52.0
3798,70.0,120,107,0.0,52.0
3799,82.0,120,107,0.0,52.0
3800,70.0,120,107,0.0,52.0
3801,63.0,0,431,1.0,64.0
3802,67.0,0,431,1.0,64.0
3803,82.0,120,107,0.0,52.0
3804,70.0,120,107,0.0,52.0
3805,58.0,0,215,1.0,64.0
3806,65.0,0,215,1.0,64.0
3807,82.0,120,107,0.0,52.0
3808,70.0,120,107,0.0,52.0
3809,82.0,120,107,0.0,52.0
3810,70.0,120,107,0.0,52.0
3811,67.0,0,431,1.0,64.0
3812,63.0,0,431,1.0,64.0
3813,82.0,120,107,0.0,52.0
3814,70.0,0,107,0.0,52.0
3815,68.0,0,215,1.0,64.0
3816,65.0,120,215,1.0,64.0
3817,82.0,120,107,0.0,52.0
3818,70.0,0,107,0.0,52.0
3819,82.0,120,107,0.0,52.0
3820,70.0,120,107,0.0,52.0
3821,82.0,120,107,0.0,52.0
3822,70.0,120,107,0.0,52.0
3823,58.0,0,646,1.0,64.0
3824,65.0,120,646,1.0,64.0
3825,82.0,120,107,0.0,52.0
3826,70.0,120,107,0.0,52.0
3827,82.0,120,107,0.0,52.0
3828,70.0,120,107,0.0,52.0
3829,82.0,120,107,0.0,52.0
3830,70.0,120,107,0.0,52.0
3831,82.0,120,107,0.0,52.0
3832,70.0,0,107,0.0,52.0
3833,65.0,120,215,1.0,64.0
3834,68.0,0,215,1.0,64.0
3835,82.0,120,107,0.0,52.0
3836,70.0,0,107,0.0,52.0
3837,67.0,0,215,1.0,64.0
3838,63.0,120,215,1.0,64.0
3839,82.0,120,107,0.0,52.0
3840,70.0,0,107,0.0,52.0
3841,65.0,0,107,1.0,64.0
3842,58.0,120,107,1.0,64.0
3843,82.0,120,107,0.0,52.0
3844,70.0,120,107,0.0,52.0
3845,82.0,120,107,0.0,52.0
3846,70.0,120,107,0.0,52.0
3847,58.0,0,431,1.0,64.0
3848,65.0,0,431,1.0,64.0
3849,82.0,120,107,0.0,52.0
3850,70.0,120,107,0.0,52.0
3851,82.0,120,107,0.0,52.0
3852,70.0,0,107,0.0,52.0
3853,67.0,120,215,1.0,64.0
3854,63.0,0,215,1.0,64.0
3855,82.0,120,107,0.0,52.0
3856,70.0,0,107,0.0,52.0
3857,62.0,0,215,1.0,64.0
3858,65.0,120,215,1.0,64.0
3859,82.0,120,107,0.0,52.0
3860,55.0,0,107,1.0,64.0
3861,70.0,120,107,0.0,52.0
3862,63.0,0,107,1.0,64.0
3863,82.0,120,107,0.0,52.0
3864,70.0,0,107,0.0,52.0
3865,82.0,120,107,0.0,52.0
3866,70.0,120,107,0.0,52.0
3867,63.0,0,431,1.0,64.0
3868,55.0,120,431,1.0,64.0
3869,82.0,120,107,0.0,52.0
3870,70.0,0,107,0.0,52.0
3871,58.0,120,215,1.0,64.0
3872,65.0,0,215,1.0,64.0
3873,82.0,120,107,0.0,52.0
3874,70.0,0,107,0.0,52.0
3875,82.0,120,107,0.0,52.0
3876,70.0,120,107,0.0,52.0
3877,67.0,0,431,1.0,64.0
3878,63.0,120,431,1.0,64.0
3879,82.0,120,107,0.0,52.0
3880,70.0,0,107,0.0,52.0
3881,63.0,0,215,1.0,64.0
3882,67.0,120,215,1.0,64.0
3883,82.0,120,107,0.0,52.0
3884,70.0,120,107,0.0,52.0
3885,82.0,120,107,0.0,52.0
3886,70.0,120,107,0.0,52.0
3887,68.0,0,431,1.0,64.0
3888,65.0,0,431,1.0,64.0
3889,82.0,120,107,0.0,52.0
3890,70.0,0,107,0.0,52.0
3891,67.0,0,215,1.0,64.0
3892,63.0,120,215,1.0,64.0
3893,82.0,120,107,0.0,52.0
3894,70.0,0,107,0.0,52.0
3895,82.0,120,107,0.0,52.0
3896,70.0,120,107,0.0,52.0
3897,82.0,120,107,0.0,52.0
3898,70.0,120,107,0.0,52.0
3899,65.0,0,646,1.0,64.0
3900,58.0,120,646,1.0,64.0
3901,82.0,120,107,0.0,52.0
3902,70.0,120,107,0.0,52.0
3903,82.0,120,107,0.0,52.0
3904,70.0,120,107,0.0,52.0
3905,82.0,120,107,0.0,52.0
3906,68.0,120,107,0.0,52.0
3907,80.0,120,107,0.0,52.0
3908,68.0,0,107,0.0,52.0
3909,80.0,120,107,0.0,52.0
3910,67.0,120,107,0.0,52.0
3911,79.0,120,107,0.0,52.0
3912,67.0,120,107,0.0,52.0
3913,79.0,120,107,0.0,52.0
3914,67.0,120,107,0.0,52.0
3915,79.0,120,107,0.0,52.0
3916,67.0,120,107,0.0,52.0
3917,65.0,0,1151,1.0,64.0
3918,59.0,0,1151,1.0,64.0
3919,62.0,120,1151,1.0,64.0
3920,79.0,120,107,0.0,52.0
3921,65.0,0,107,1.0,64.0
3922,62.0,120,107,1.0,64.0
3923,67.0,0,107,0.0,52.0
3924,79.0,120,107,0.0,52.0
3925,67.0,0,107,0.0,52.0
3926,62.0,120,215,1.0,64.0
3927,65.0,0,215,1.0,64.0
3928,79.0,120,107,0.0,52.0
3929,67.0,0,107,0.0,52.0
3930,63.0,120,215,1.0,64.0
3931,60.0,0,215,1.0,64.0
3932,79.0,120,107,0.0,52.0
3933,67.0,120,107,0.0,52.0
3934,55.0,0,215,1.0,64.0
3935,62.0,0,215,1.0,64.0
3936,79.0,120,107,0.0,52.0
3937,67.0,120,107,0.0,52.0
3938,79.0,120,107,0.0,52.0
3939,67.0,120,107,0.0,52.0
3940,62.0,0,431,1.0,64.0
3941,55.0,0,431,1.0,64.0
3942,79.0,120,107,0.0,52.0
3943,67.0,120,107,0.0,52.0
3944,79.0,120,107,0.0,52.0
3945,67.0,120,107,0.0,52.0
3946,60.0,0,215,1.0,64.0
3947,63.0,0,215,1.0,64.0
3948,79.0,120,107,0.0,52.0
3949,67.0,120,107,0.0,52.0
3950,62.0,0,215,1.0,64.0
3951,55.0,0,215,1.0,64.0
3952,79.0,120,107,0.0,52.0
3953,67.0,0,107,0.0,52.0
3954,51.0,120,107,1.0,64.0
3955,60.0,0,107,1.0,64.0
3956,79.0,120,107,0.0,52.0
3957,67.0,120,107,0.0,52.0
3958,79.0,120,107,0.0,52.0
3959,67.0,120,107,0.0,52.0
3960,51.0,0,431,1.0,64.0
3961,60.0,0,431,1.0,64.0
3962,79.0,120,107,0.0,52.0
3963,67.0,0,107,0.0,52.0
3964,55.0,0,215,1.0,64.0
3965,62.0,120,215,1.0,64.0
3966,79.0,120,107,0.0,52.0
3967,67.0,120,107,0.0,52.0
3968,79.0,120,107,0.0,52.0
3969,67.0,120,107,0.0,52.0
3970,60.0,0,431,1.0,64.0
3971,63.0,0,431,1.0,64.0
3972,79.0,120,107,0.0,52.0
3973,67.0,120,107,0.0,52.0
3974,62.0,0,215,1.0,64.0
3975,55.0,0,215,1.0,64.0
3976,79.0,120,107,0.0,52.0
3977,67.0,0,107,0.0,52.0
3978,79.0,120,107,0.0,52.0
3979,67.0,120,107,0.0,52.0
3980,60.0,0,431,1.0,64.0
3981,63.0,120,431,1.0,64.0
3982,79.0,120,107,0.0,52.0
3983,67.0,120,107,0.0,52.0
3984,65.0,0,215,1.0,64.0
3985,62.0,0,215,1.0,64.0
3986,79.0,120,107,0.0,52.0
3987,67.0,0,107,0.0,52.0
3988,79.0,120,107,0.0,52.0
3989,67.0,120,107,0.0,52.0
3990,55.0,0,431,1.0,64.0
3991,62.0,120,431,1.0,64.0
3992,79.0,120,107,0.0,52.0
3993,67.0,120,107,0.0,52.0
3994,79.0,120,107,0.0,52.0
3995,67.0,120,107,0.0,52.0
3996,79.0,120,107,0.0,52.0
3997,67.0,120,107,0.0,52.0
3998,79.0,120,107,0.0,52.0
3999,66.0,120,107,0.0,52.0
4000,78.0,120,107,0.0,52.0
4001,65.0,120,107,0.0,46.0
4002,63.0,0,215,1.0,64.0
4003,60.0,0,215,1.0,64.0
4004,77.0,120,107,0.0,46.0
4005,65.0,120,107,0.0,46.0
4006,58.0,0,215,1.0,64.0
4007,62.0,0,215,1.0,64.0
4008,77.0,120,107,0.0,46.0
4009,60.0,0,107,1.0,64.0
4010,53.0,120,107,1.0,64.0
4011,65.0,0,107,0.0,46.0
4012,77.0,120,107,0.0,46.0
4013,65.0,0,107,0.0,46.0
4014,77.0,120,107,0.0,46.0
4015,65.0,120,107,0.0,46.0
4016,53.0,0,431,1.0,64.0
4017,60.0,120,431,1.0,64.0
4018,77.0,120,107,0.0,46.0
4019,65.0,120,107,0.0,46.0
4020,77.0,120,107,0.0,46.0
4021,65.0,0,107,0.0,46.0
4022,62.0,120,215,1.0,64.0
4023,58.0,0,215,1.0,64.0
4024,77.0,120,107,0.0,46.0
4025,65.0,120,107,0.0,46.0
4026,53.0,0,215,1.0,64.0
4027,60.0,0,215,1.0,64.0
4028,77.0,120,107,0.0,46.0
4029,58.0,0,107,1.0,64.0
4030,50.0,120,107,1.0,64.0
4031,65.0,0,107,0.0,46.0
4032,77.0,120,107,0.0,46.0
4033,65.0,0,107,0.0,46.0
4034,77.0,120,107,0.0,46.0
4035,65.0,120,107,0.0,46.0
4036,50.0,120,431,1.0,64.0
4037,58.0,0,431,1.0,64.0
4038,77.0,120,107,0.0,46.0
4039,65.0,120,107,0.0,46.0
4040,60.0,0,215,1.0,64.0
4041,53.0,0,215,1.0,64.0
4042,77.0,120,107,0.0,46.0
4043,65.0,120,107,0.0,46.0
4044,77.0,120,107,0.0,46.0
4045,65.0,120,107,0.0,46.0
4046,58.0,0,431,1.0,64.0
4047,62.0,0,431,1.0,64.0
4048,77.0,120,107,0.0,46.0
4049,65.0,120,107,0.0,46.0
4050,60.0,0,215,1.0,64.0
4051,53.0,0,215,1.0,64.0
4052,77.0,120,107,0.0,46.0
4053,65.0,120,107,0.0,46.0
4054,77.0,120,107,0.0,46.0
4055,65.0,120,107,0.0,46.0
4056,58.0,0,431,1.0,64.0
4057,62.0,0,431,1.0,64.0
4058,77.0,120,107,0.0,46.0
4059,65.0,0,107,0.0,46.0
4060,60.0,0,215,1.0,64.0
4061,63.0,120,215,1.0,64.0
4062,77.0,120,107,0.0,46.0
4063,65.0,120,107,0.0,46.0
4064,77.0,120,107,0.0,46.0
4065,65.0,120,107,0.0,46.0
4066,77.0,120,107,0.0,46.0
4067,65.0,120,107,0.0,46.0
4068,53.0,0,646,1.0,64.0
4069,60.0,0,646,1.0,64.0
4070,77.0,120,107,0.0,46.0
4071,69.0,0,107,0.0,82.0
4072,72.0,120,107,0.0,82.0
4073,75.0,120,107,0.0,82.0
4074,77.0,120,107,0.0,82.0
4075,79.0,120,107,0.0,82.0
4076,53.0,0,646,1.0,82.0
4077,51.0,120,646,1.0,64.0
4078,60.0,0,646,1.0,82.0
4079,57.0,0,646,1.0,82.0
4080,81.0,120,107,0.0,82.0
4081,82.0,0,107,0.0,82.0
4082,84.0,120,107,0.0,82.0
4083,86.0,120,107,0.0,82.0
4084,87.0,120,107,0.0,82.0
4085,89.0,120,107,0.0,82.0
4086,87.0,120,107,0.0,82.0
4087,86.0,120,107,0.0,82.0
4088,84.0,120,107,0.0,82.0
4089,82.0,120,107,0.0,82.0
4090,81.0,120,107,0.0,82.0
4091,62.0,0,1293,1.0,82.0
4092,58.0,120,1293,1.0,82.0
4093,53.0,0,1293,1.0,82.0
4094,50.0,0,1293,1.0,82.0
4095,79.0,120,107,0.0,82.0
4096,77.0,120,107,0.0,82.0
4097,75.0,0,107,0.0,82.0
4098,39.0,120,215,1.0,82.0
4099,74.0,120,107,0.0,82.0
4100,72.0,120,107,0.0,82.0
4101,51.0,0,215,1.0,82.0
4102,70.0,120,107,0.0,82.0
4103,69.0,120,107,0.0,82.0
4104,51.0,0,107,1.0,82.0
4105,67.0,120,107,0.0,82.0
4106,65.0,120,107,0.0,82.0
4107,41.0,0,215,1.0,82.0
4108,63.0,120,107,0.0,82.0
4109,62.0,120,107,0.0,82.0
4110,53.0,0,215,1.0,82.0
4111,60.0,120,107,0.0,82.0
4112,58.0,120,107,0.0,82.0
4113,53.0,0,107,1.0,82.0
4114,57.0,120,107,0.0,82.0
4115,58.0,0,107,1.0,46.0
4116,34.0,120,107,1.0,46.0
4117,53.0,0,107,1.0,46.0
4118,46.0,120,107,1.0,46.0
4119,58.0,0,107,1.0,46.0
4120,34.0,120,107,1.0,46.0
4121,53.0,0,107,1.0,46.0
4122,46.0,120,107,1.0,46.0
4123,34.0,0,107,1.0,46.0
4124,50.0,120,107,1.0,46.0
4125,53.0,0,107,1.0,46.0
4126,46.0,120,107,1.0,46.0
4127,58.0,0,107,1.0,46.0
4128,34.0,120,107,1.0,46.0
4129,46.0,120,107,1.0,46.0
4130,53.0,0,107,1.0,46.0
4131,58.0,120,107,1.0,46.0
4132,34.0,0,107,1.0,46.0
4133,50.0,0,107,1.0,46.0
4134,46.0,120,107,1.0,46.0
4135,58.0,0,107,1.0,46.0
4136,34.0,120,107,1.0,46.0
4137,62.0,0,107,1.0,46.0
4138,46.0,120,107,1.0,46.0
4139,34.0,0,107,1.0,46.0
4140,46.0,120,107,1.0,46.0
4141,34.0,120,107,1.0,46.0
4142,60.0,120,431,0.0,46.0
4143,46.0,120,107,1.0,46.0
4144,34.0,120,107,1.0,46.0
4145,58.0,0,215,0.0,46.0
4146,46.0,120,107,1.0,46.0
4147,58.0,0,107,0.0,46.0
4148,34.0,120,107,1.0,46.0
4149,46.0,0,107,1.0,46.0
4150,57.0,120,107,0.0,46.0
4151,58.0,0,26,0.0,46.0
4152,34.0,120,107,1.0,46.0
4153,57.0,30,80,0.0,46.0
4154,46.0,90,107,1.0,46.0
4155,56.0,0,107,0.0,46.0
4156,57.0,0,107,0.0,46.0
4157,34.0,120,107,1.0,46.0
4158,51.0,0,646,1.0,46.0
4159,60.0,120,107,0.0,46.0
4160,46.0,0,107,1.0,46.0
4161,34.0,120,107,1.0,46.0
4162,58.0,0,107,0.0,46.0
4163,46.0,120,107,1.0,46.0
4164,53.0,0,107,0.0,46.0
4165,50.0,120,107,0.0,46.0
4166,34.0,0,107,1.0,46.0
4167,46.0,120,107,1.0,46.0
4168,53.0,0,107,0.0,46.0
4169,58.0,0,107,0.0,46.0
4170,34.0,120,107,1.0,46.0
4171,62.0,0,107,0.0,46.0
4172,46.0,120,107,1.0,46.0
4173,34.0,120,107,1.0,46.0
4174,62.0,0,107,0.0,46.0
4175,58.0,0,107,0.0,46.0
4176,46.0,120,107,1.0,46.0
4177,34.0,0,107,1.0,46.0
4178,53.0,120,107,0.0,46.0
4179,46.0,0,107,1.0,46.0
4180,58.0,120,107,0.0,46.0
4181,34.0,0,107,1.0,46.0
4182,62.0,120,107,0.0,46.0
4183,65.0,120,107,0.0,46.0
4184,46.0,0,107,1.0,46.0
4185,65.0,120,26,0.0,46.0
4186,34.0,0,107,1.0,46.0
4187,63.0,30,80,0.0,46.0
4188,62.0,90,107,0.0,46.0
4189,46.0,0,107,1.0,46.0
4190,65.0,120,26,0.0,46.0
4191,34.0,0,107,1.0,46.0
4192,63.0,30,80,0.0,46.0
4193,62.0,90,107,0.0,46.0
4194,46.0,0,107,1.0,46.0
4195,65.0,0,26,0.0,46.0
4196,34.0,120,107,1.0,46.0
4197,63.0,30,80,0.0,46.0
4198,55.0,0,646,1.0,46.0
4199,62.0,0,107,0.0,46.0
4200,46.0,90,107,1.0,46.0
4201,65.0,120,26,0.0,46.0
4202,34.0,0,107,1.0,46.0
4203,63.0,30,80,0.0,46.0
4204,62.0,0,107,0.0,46.0
4205,46.0,90,107,1.0,46.0
4206,34.0,120,107,1.0,46.0
4207,63.0,0,107,0.0,46.0
4208,46.0,0,107,1.0,46.0
4209,67.0,120,107,0.0,46.0
4210,65.0,120,107,0.0,46.0
4211,34.0,0,107,1.0,46.0
4212,57.0,0,646,1.0,46.0
4213,63.0,120,107,0.0,46.0
4214,46.0,0,107,1.0,46.0
4215,62.0,0,107,0.0,46.0
4216,34.0,0,107,1.0,46.0
4217,65.0,120,107,0.0,46.0
4218,46.0,0,107,1.0,46.0
4219,67.0,120,107,0.0,46.0
4220,34.0,0,107,1.0,46.0
4221,58.0,120,431,1.0,46.0
4222,69.0,0,107,0.0,46.0
4223,46.0,120,107,1.0,46.0
4224,34.0,120,107,1.0,46.0
4225,70.0,0,107,0.0,46.0
4226,72.0,0,107,0.0,46.0
4227,46.0,120,107,1.0,46.0
4228,34.0,0,107,1.0,46.0
4229,46.0,120,107,1.0,46.0
4230,34.0,120,107,1.0,46.0
4231,74.0,120,431,0.0,46.0
4232,46.0,120,107,1.0,46.0
4233,34.0,120,107,1.0,64.0
4234,77.0,0,215,0.0,64.0
4235,46.0,120,107,1.0,64.0
4236,77.0,120,26,0.0,52.0
4237,46.0,0,107,1.0,52.0
4238,75.0,30,80,0.0,52.0
4239,58.0,0,107,1.0,52.0
4240,74.0,90,107,0.0,52.0
4241,77.0,0,26,0.0,52.0
4242,46.0,120,107,1.0,52.0
4243,75.0,30,80,0.0,52.0
4244,74.0,90,107,0.0,52.0
4245,58.0,0,107,1.0,52.0
4246,77.0,120,26,0.0,52.0
4247,46.0,0,107,1.0,52.0
4248,75.0,30,80,0.0,52.0
4249,67.0,0,646,1.0,52.0
4250,58.0,0,107,1.0,52.0
4251,74.0,90,107,0.0,52.0
4252,77.0,0,26,0.0,52.0
4253,46.0,0,107,1.0,52.0
4254,75.0,30,80,0.0,52.0
4255,58.0,90,107,1.0,52.0
4256,74.0,0,107,0.0,52.0
4257,75.0,120,107,0.0,52.0
4258,46.0,0,107,1.0,52.0
4259,79.0,120,107,0.0,52.0
4260,58.0,0,107,1.0,52.0
4261,46.0,0,107,1.0,52.0
4262,77.0,120,107,0.0,52.0
4263,69.0,120,646,1.0,52.0
4264,58.0,120,107,1.0,52.0
4265,75.0,0,107,0.0,52.0
4266,74.0,0,107,0.0,52.0
4267,46.0,0,107,1.0,52.0
4268,58.0,120,107,1.0,52.0
4269,77.0,0,107,0.0,52.0
4270,79.0,120,107,0.0,52.0
4271,46.0,0,107,1.0,52.0
4272,70.0,120,431,1.0,52.0
4273,81.0,120,107,0.0,52.0
4274,58.0,0,107,1.0,52.0
4275,82.0,120,107,0.0,52.0
4276,46.0,0,107,1.0,52.0
4277,58.0,120,107,1.0,52.0
4278,84.0,0,107,0.0,52.0
4279,46.0,120,107,1.0,52.0
4280,58.0,120,107,1.0,52.0
4281,46.0,120,107,1.0,52.0
4282,86.0,0,431,0.0,52.0
4283,58.0,120,107,1.0,52.0
4284,46.0,0,107,1.0,52.0
4285,89.0,120,215,0.0,52.0
4286,58.0,120,107,1.0,52.0
4287,89.0,120,107,0.0,64.0
4288,46.0,0,107,1.0,64.0
4289,58.0,0,107,1.0,64.0
4290,87.0,120,107,0.0,64.0
4291,89.0,120,107,0.0,64.0
4292,46.0,0,107,1.0,64.0
4293,87.0,120,107,0.0,64.0
4294,58.0,0,107,1.0,64.0
4295,86.0,120,107,0.0,64.0
4296,46.0,0,107,1.0,64.0
4297,79.0,0,646,0.0,64.0
4298,58.0,120,107,1.0,64.0
4299,87.0,0,107,0.0,64.0
4300,46.0,120,107,1.0,64.0
4301,89.0,0,107,0.0,64.0
4302,58.0,120,107,1.0,64.0
4303,87.0,0,107,0.0,64.0
4304,89.0,0,107,0.0,64.0
4305,46.0,120,107,1.0,64.0
4306,58.0,0,107,1.0,64.0
4307,87.0,120,107,0.0,64.0
4308,46.0,0,107,1.0,64.0
4309,86.0,120,107,0.0,64.0
4310,81.0,0,646,0.0,64.0
4311,87.0,0,107,0.0,64.0
4312,58.0,120,107,1.0,64.0
4313,86.0,120,107,0.0,89.0
4314,82.0,0,107,0.0,89.0
4315,89.0,120,107,0.0,89.0
4316,87.0,120,107,0.0,89.0
4317,46.0,0,431,1.0,89.0
4318,34.0,0,431,1.0,89.0
4319,86.0,120,107,0.0,89.0
4320,84.0,120,107,0.0,89.0
4321,82.0,120,107,0.0,89.0
4322,81.0,120,107,0.0,89.0
4323,79.0,120,107,0.0,89.0
4324,77.0,120,107,0.0,89.0
4325,75.0,120,107,0.0,89.0
4326,74.0,120,107,0.0,89.0
4327,63.0,0,215,1.0,89.0
4328,55.0,0,215,1.0,89.0
4329,72.0,120,107,0.0,89.0
4330,70.0,120,107,0.0,89.0
4331,77.0,120,107,0.0,89.0
4332,75.0,120,107,0.0,89.0
4333,58.0,0,431,1.0,89.0
4334,62.0,0,431,1.0,89.0
4335,74.0,120,107,0.0,89.0
4336,72.0,120,107,0.0,89.0
4337,70.0,120,107,0.0,89.0
4338,69.0,120,107,0.0,89.0
4339,67.0,120,107,0.0,89.0
4340,65.0,120,107,0.0,89.0
4341,63.0,120,107,0.0,89.0
4342,62.0,120,107,0.0,89.0
4343,41.0,0,215,1.0,89.0
4344,51.0,0,215,1.0,89.0
4345,60.0,120,107,0.0,89.0
4346,58.0,120,107,0.0,89.0
4347,65.0,120,107,0.0,89.0
4348,63.0,120,107,0.0,89.0
4349,46.0,0,431,1.0,89.0
4350,50.0,0,431,1.0,89.0
4351,62.0,120,107,0.0,89.0
4352,60.0,120,107,0.0,89.0
4353,58.0,120,107,0.0,89.0
4354,57.0,120,107,1.0,89.0
4355,55.0,120,107,1.0,89.0
4356,53.0,120,107,1.0,89.0
4357,51.0,120,107,1.0,89.0
4358,50.0,0,107,1.0,89.0
4359,41.0,120,227,1.0,89.0
4360,46.0,120,107,1.0,89.0
4361,50.0,240,107,1.0,89.0
4362,53.0,240,107,1.0,89.0
4363,46.0,0,107,1.0,89.0
4364,58.0,240,107,1.0,89.0
4365,41.0,0,107,1.0,89.0
4366,58.0,0,107,1.0,89.0
4367,62.0,240,107,1.0,89.0
4368,65.0,240,107,1.0,89.0
4369,38.0,0,107,1.0,89.0
4370,62.0,0,107,1.0,89.0
4371,70.0,0,431,0.0,114.0
4372,62.0,240,431,0.0,114.0
4373,65.0,0,431,0.0,114.0
4374,34.0,0,431,1.0,114.0
4375,34.0,0,431,1.0,114.0
4376,46.0,0,431,1.0,64.0
4377,65.0,0,431,0.0,114.0
4378,70.0,720,431,0.0,114.0
4379,74.0,0,431,0.0,114.0
4380,34.0,0,646,1.0,124.0
4381,46.0,0,646,1.0,124.0
4382,70.0,720,646,0.0,124.0
4383,62.0,0,646,0.0,124.0
4384,65.0,0,646,0.0,124.0
4385,48.0,120,3697,1.0,89.0
