,note,step,duration,channel,velocity
0,60.0,0,96,1.0,45.0
1,64.0,0,96,1.0,45.0
2,72.0,0,120,0.0,60.0
3,67.0,96,96,1.0,45.0
4,72.0,0,48,0.0,60.0
5,64.0,0,96,1.0,45.0
6,60.0,96,96,1.0,45.0
7,67.0,96,96,1.0,45.0
8,65.0,96,96,1.0,45.0
9,62.0,0,96,1.0,45.0
10,72.0,0,96,0.0,60.0
11,67.0,96,96,1.0,45.0
12,71.0,0,96,0.0,60.0
13,62.0,0,96,1.0,45.0
14,69.0,0,96,0.0,60.0
15,65.0,96,96,1.0,45.0
16,71.0,0,96,0.0,60.0
17,67.0,96,96,1.0,45.0
18,60.0,0,96,1.0,45.0
19,64.0,0,96,1.0,45.0
20,72.0,48,48,0.0,60.0
21,72.0,0,48,0.0,60.0
22,72.0,48,16,0.0,60.0
23,67.0,48,96,1.0,45.0
24,72.0,48,0,0.0,60.0
25,60.0,0,96,1.0,45.0
26,64.0,0,96,1.0,45.0
27,76.0,48,48,0.0,60.0
28,67.0,96,96,1.0,45.0
29,62.0,0,96,1.0,45.0
30,59.0,0,96,1.0,45.0
31,67.0,96,96,1.0,45.0
32,59.0,96,96,1.0,45.0
33,62.0,0,96,1.0,45.0
34,79.0,48,336,0.0,60.0
35,67.0,96,96,1.0,45.0
36,57.0,0,96,1.0,45.0
37,60.0,96,96,1.0,45.0
38,77.0,0,96,0.0,60.0
39,65.0,96,96,1.0,45.0
40,62.0,0,96,1.0,45.0
41,81.0,0,192,0.0,60.0
42,59.0,96,96,1.0,45.0
43,79.0,96,48,0.0,60.0
44,67.0,0,96,1.0,45.0
45,77.0,48,48,0.0,60.0
46,76.0,0,96,0.0,60.0
47,60.0,48,96,1.0,45.0
48,64.0,0,32,1.0,45.0
49,55.0,0,94,1.0,45.0
50,52.0,96,94,1.0,45.0
51,79.0,96,192,0.0,60.0
52,77.0,96,48,0.0,60.0
53,60.0,0,94,1.0,45.0
54,76.0,48,48,0.0,60.0
55,74.0,0,48,0.0,60.0
56,53.0,0,94,1.0,45.0
57,76.0,48,48,0.0,60.0
58,77.0,48,48,0.0,60.0
59,57.0,0,94,1.0,45.0
60,76.0,48,48,0.0,60.0
61,79.0,48,48,0.0,60.0
62,62.0,0,94,1.0,45.0
63,77.0,48,48,0.0,60.0
64,76.0,48,48,0.0,60.0
65,65.0,0,94,1.0,45.0
66,74.0,48,48,0.0,60.0
67,72.0,48,192,0.0,60.0
68,64.0,96,96,1.0,45.0
69,62.0,0,32,1.0,45.0
70,71.0,96,32,0.0,60.0
71,55.0,0,256,1.0,45.0
72,67.0,96,32,0.0,60.0
73,67.0,96,24,0.0,60.0
74,72.0,24,56,0.0,60.0
75,64.0,0,94,1.0,45.0
76,60.0,0,94,1.0,45.0
77,67.0,72,94,1.0,45.0
78,72.0,96,48,0.0,60.0
79,60.0,0,94,1.0,45.0
80,64.0,0,94,1.0,45.0
81,67.0,96,94,1.0,45.0
82,72.0,0,96,0.0,60.0
83,65.0,96,96,1.0,45.0
84,62.0,0,96,1.0,45.0
85,71.0,96,96,0.0,60.0
86,67.0,0,96,1.0,45.0
87,65.0,0,96,1.0,45.0
88,62.0,0,96,1.0,45.0
89,69.0,96,96,0.0,60.0
90,71.0,0,96,0.0,60.0
91,67.0,96,96,1.0,45.0
92,72.0,48,48,0.0,60.0
93,60.0,96,96,1.0,45.0
94,64.0,0,96,1.0,45.0
95,72.0,48,0,0.0,60.0
96,67.0,0,96,1.0,45.0
97,60.0,48,96,1.0,45.0
98,64.0,0,96,1.0,45.0
99,72.0,0,144,0.0,60.0
100,76.0,48,48,0.0,60.0
101,67.0,96,96,1.0,45.0
102,59.0,48,96,1.0,45.0
103,62.0,0,96,1.0,45.0
104,67.0,96,96,1.0,45.0
105,59.0,0,96,1.0,45.0
106,62.0,96,96,1.0,45.0
107,79.0,0,336,0.0,60.0
108,67.0,96,96,1.0,45.0
109,60.0,0,96,1.0,45.0
110,57.0,96,96,1.0,45.0
111,77.0,96,0,0.0,60.0
112,65.0,96,96,1.0,45.0
113,59.0,0,96,1.0,45.0
114,62.0,0,96,1.0,45.0
115,81.0,48,48,0.0,60.0
116,79.0,0,48,0.0,60.0
117,77.0,48,48,0.0,60.0
118,67.0,48,96,1.0,45.0
119,76.0,0,48,0.0,60.0
120,60.0,48,94,1.0,45.0
121,64.0,0,94,1.0,45.0
122,79.0,48,48,0.0,60.0
123,67.0,0,32,1.0,45.0
124,77.0,48,48,0.0,60.0
125,76.0,48,48,0.0,60.0
126,74.0,0,48,0.0,60.0
127,77.0,48,48,0.0,60.0
128,53.0,48,96,1.0,45.0
129,76.0,0,48,0.0,60.0
130,65.0,48,94,1.0,45.0
131,74.0,48,48,0.0,60.0
132,72.0,48,48,0.0,60.0
133,55.0,48,96,1.0,45.0
134,72.0,0,48,0.0,60.0
135,72.0,48,16,0.0,60.0
136,64.0,48,96,1.0,45.0
137,55.0,48,96,1.0,45.0
138,76.0,0,96,0.0,60.0
139,65.0,96,94,1.0,45.0
140,74.0,0,96,0.0,60.0
141,48.0,0,96,1.0,60.0
142,55.0,96,32,1.0,60.0
143,72.0,96,160,0.0,60.0
144,64.0,0,160,0.0,60.0
145,55.0,96,32,1.0,60.0
146,55.0,96,32,1.0,60.0
147,52.0,96,96,1.0,60.0
148,67.0,96,32,0.0,75.0
149,55.0,0,32,1.0,60.0
150,55.0,0,32,1.0,60.0
151,72.0,96,32,0.0,75.0
152,55.0,96,32,1.0,60.0
153,76.0,0,32,0.0,75.0
154,60.0,0,336,1.0,60.0
155,50.0,0,96,1.0,60.0
156,55.0,96,32,1.0,60.0
157,77.0,0,142,0.0,75.0
158,74.0,48,46,0.0,75.0
159,55.0,0,32,1.0,60.0
160,55.0,96,32,1.0,60.0
161,59.0,96,336,1.0,60.0
162,71.0,48,160,0.0,75.0
163,53.0,96,96,1.0,60.0
164,67.0,96,32,0.0,75.0
165,55.0,0,32,1.0,60.0
166,55.0,0,32,1.0,60.0
167,71.0,96,32,0.0,75.0
168,74.0,0,32,0.0,75.0
169,55.0,96,32,1.0,60.0
170,62.0,0,336,1.0,60.0
171,52.0,96,96,1.0,60.0
172,55.0,96,32,1.0,60.0
173,76.0,0,142,0.0,75.0
174,72.0,48,46,0.0,75.0
175,55.0,48,32,1.0,60.0
176,55.0,96,32,1.0,60.0
177,60.0,0,336,1.0,60.0
178,67.0,0,160,0.0,75.0
179,52.0,0,94,1.0,60.0
180,55.0,0,32,1.0,60.0
181,67.0,96,48,0.0,75.0
182,69.0,48,48,0.0,75.0
183,55.0,0,32,1.0,60.0
184,71.0,48,48,0.0,75.0
185,72.0,48,48,0.0,75.0
186,48.0,96,336,1.0,60.0
187,74.0,48,48,0.0,75.0
188,55.0,0,94,1.0,60.0
189,76.0,48,46,0.0,75.0
190,79.0,0,48,0.0,75.0
191,77.0,48,46,0.0,75.0
192,53.0,0,96,1.0,60.0
193,55.0,48,32,1.0,60.0
194,76.0,0,48,0.0,75.0
195,74.0,48,46,0.0,75.0
196,55.0,0,32,1.0,60.0
197,72.0,48,94,0.0,75.0
198,71.0,96,32,0.0,75.0
199,55.0,0,32,1.0,60.0
200,50.0,48,336,1.0,60.0
201,53.0,0,96,1.0,60.0
202,55.0,0,32,1.0,60.0
203,79.0,96,46,0.0,75.0
204,81.0,48,46,0.0,75.0
205,55.0,48,32,1.0,60.0
206,83.0,0,46,0.0,75.0
207,84.0,48,46,0.0,75.0
208,86.0,0,46,0.0,75.0
209,47.0,96,336,1.0,60.0
210,55.0,48,94,1.0,60.0
211,87.0,48,46,0.0,75.0
212,88.0,0,46,0.0,75.0
213,87.0,48,46,0.0,74.0
214,89.0,48,46,0.0,73.0
215,52.0,0,160,1.0,60.0
216,48.0,48,160,1.0,60.0
217,88.0,48,46,0.0,72.0
218,86.0,48,46,0.0,71.0
219,84.0,48,46,0.0,70.0
220,83.0,48,46,0.0,69.0
221,81.0,48,46,0.0,68.0
222,79.0,48,32,0.0,67.0
223,88.0,48,32,0.0,66.0
224,86.0,48,32,0.0,65.0
225,84.0,48,32,0.0,64.0
226,83.0,48,32,0.0,63.0
227,81.0,48,32,0.0,62.0
228,79.0,48,32,0.0,61.0
229,77.0,48,32,0.0,60.0
230,76.0,48,32,0.0,59.0
231,84.0,48,32,0.0,58.0
232,83.0,48,32,0.0,57.0
233,81.0,48,32,0.0,55.0
234,79.0,48,32,0.0,53.0
235,77.0,48,32,0.0,51.0
236,76.0,48,32,0.0,49.0
237,74.0,48,32,0.0,47.0
238,60.0,0,96,1.0,30.0
239,64.0,0,96,1.0,30.0
240,72.0,48,120,0.0,45.0
241,67.0,96,96,1.0,30.0
242,72.0,0,48,0.0,45.0
243,64.0,0,96,1.0,30.0
244,60.0,96,96,1.0,30.0
245,67.0,96,96,1.0,30.0
246,65.0,96,96,1.0,30.0
247,62.0,0,96,1.0,30.0
248,72.0,0,96,0.0,45.0
249,67.0,0,96,1.0,30.0
250,71.0,96,96,0.0,45.0
251,69.0,0,96,0.0,45.0
252,65.0,0,96,1.0,30.0
253,62.0,96,96,1.0,30.0
254,67.0,0,96,1.0,30.0
255,71.0,96,96,0.0,45.0
256,64.0,0,96,1.0,30.0
257,60.0,96,96,1.0,30.0
258,72.0,48,48,0.0,45.0
259,72.0,48,0,0.0,45.0
260,67.0,48,96,1.0,30.0
261,60.0,0,96,1.0,30.0
262,64.0,48,96,1.0,30.0
263,72.0,0,144,0.0,45.0
264,76.0,48,48,0.0,45.0
265,67.0,96,96,1.0,30.0
266,59.0,48,96,1.0,30.0
267,62.0,0,96,1.0,30.0
268,67.0,96,96,1.0,30.0
269,59.0,96,96,1.0,30.0
270,62.0,0,96,1.0,30.0
271,79.0,0,336,0.0,45.0
272,67.0,96,96,1.0,30.0
273,60.0,96,96,1.0,30.0
274,57.0,0,96,1.0,30.0
275,77.0,0,192,0.0,45.0
276,65.0,96,96,1.0,30.0
277,77.0,0,48,0.0,45.0
278,62.0,0,96,1.0,30.0
279,59.0,96,96,1.0,30.0
280,81.0,48,48,0.0,45.0
281,79.0,0,48,0.0,45.0
282,77.0,48,48,0.0,45.0
283,67.0,48,96,1.0,30.0
284,76.0,0,48,0.0,45.0
285,60.0,0,96,1.0,30.0
286,64.0,48,96,1.0,30.0
287,79.0,48,48,0.0,45.0
288,67.0,48,32,1.0,30.0
289,77.0,0,48,0.0,45.0
290,76.0,48,48,0.0,45.0
291,74.0,0,48,0.0,45.0
292,77.0,48,48,0.0,45.0
293,53.0,48,96,1.0,30.0
294,76.0,48,48,0.0,45.0
295,74.0,48,48,0.0,45.0
296,65.0,0,96,1.0,30.0
297,55.0,0,96,1.0,30.0
298,72.0,0,0,0.0,45.0
299,72.0,48,0,0.0,45.0
300,64.0,48,96,1.0,30.0
301,76.0,48,96,0.0,45.0
302,55.0,0,96,1.0,30.0
303,65.0,0,94,1.0,30.0
304,74.0,96,96,0.0,45.0
305,48.0,48,46,1.0,30.0
306,52.0,48,46,1.0,30.0
307,64.0,96,160,0.0,45.0
308,72.0,0,160,0.0,45.0
309,55.0,48,46,1.0,30.0
310,60.0,48,46,1.0,30.0
311,55.0,48,46,1.0,30.0
312,52.0,48,46,1.0,30.0
313,55.0,48,46,1.0,30.0
314,72.0,48,46,0.0,45.0
315,74.0,48,48,0.0,45.0
316,48.0,48,160,1.0,30.0
317,76.0,48,48,0.0,45.0
318,77.0,48,48,0.0,45.0
319,79.0,48,48,0.0,45.0
320,81.0,48,48,0.0,45.0
321,83.0,48,48,0.0,45.0
322,45.0,48,48,1.0,30.0
323,48.0,48,48,1.0,30.0
324,54.0,48,48,1.0,30.0
325,57.0,48,48,1.0,30.0
326,54.0,48,48,1.0,30.0
327,84.0,48,288,0.0,45.0
328,48.0,48,48,1.0,30.0
329,81.0,0,96,0.0,45.0
330,54.0,48,48,1.0,30.0
331,78.0,0,96,0.0,45.0
332,72.0,96,48,0.0,45.0
333,45.0,48,160,1.0,30.0
334,72.0,48,48,0.0,45.0
335,74.0,48,68,0.0,45.0
336,69.0,96,32,0.0,45.0
337,43.0,48,48,1.0,30.0
338,47.0,48,48,1.0,30.0
339,72.0,96,192,0.0,45.0
340,50.0,48,48,1.0,30.0
341,55.0,48,48,1.0,30.0
342,50.0,48,48,1.0,30.0
343,47.0,48,48,1.0,30.0
344,71.0,0,160,0.0,45.0
345,50.0,48,48,1.0,30.0
346,67.0,48,46,0.0,45.0
347,69.0,48,46,0.0,45.0
348,43.0,48,160,1.0,30.0
349,71.0,48,46,0.0,45.0
350,72.0,48,46,0.0,45.0
351,74.0,48,46,0.0,45.0
352,76.0,48,46,0.0,45.0
353,78.0,48,46,0.0,45.0
354,52.0,48,46,1.0,30.0
355,55.0,48,46,1.0,30.0
356,61.0,48,46,1.0,30.0
357,64.0,48,46,1.0,30.0
358,79.0,48,256,0.0,45.0
359,61.0,48,46,1.0,30.0
360,55.0,48,46,1.0,30.0
361,61.0,48,46,1.0,30.0
362,76.0,0,94,0.0,45.0
363,73.0,0,94,0.0,45.0
364,67.0,96,46,0.0,45.0
365,52.0,48,160,1.0,30.0
366,67.0,48,46,0.0,45.0
367,69.0,48,32,0.0,45.0
368,64.0,96,32,0.0,45.0
369,50.0,96,94,1.0,30.0
370,67.0,0,142,0.0,45.0
371,66.0,48,46,0.0,45.0
372,57.0,96,94,1.0,30.0
373,54.0,0,94,1.0,75.0
374,74.0,48,160,0.0,92.0
375,57.0,96,94,1.0,75.0
376,74.0,96,46,0.0,45.0
377,52.0,0,94,1.0,30.0
378,73.0,48,46,0.0,45.0
379,76.0,0,46,0.0,45.0
380,74.0,48,46,0.0,45.0
381,57.0,48,94,1.0,30.0
382,73.0,0,46,0.0,45.0
383,45.0,48,94,1.0,30.0
384,71.0,48,46,0.0,45.0
385,69.0,0,46,0.0,45.0
386,57.0,48,94,1.0,30.0
387,67.0,48,46,0.0,45.0
388,66.0,0,46,0.0,45.0
389,50.0,48,94,1.0,30.0
390,67.0,48,46,0.0,45.0
391,69.0,0,46,0.0,45.0
392,57.0,48,94,1.0,30.0
393,71.0,48,46,0.0,45.0
394,69.0,48,46,0.0,45.0
395,71.0,48,46,0.0,45.0
396,54.0,0,94,1.0,30.0
397,73.0,48,46,0.0,45.0
398,74.0,48,46,0.0,45.0
399,57.0,0,94,1.0,30.0
400,73.0,0,46,0.0,45.0
401,74.0,48,46,0.0,45.0
402,52.0,48,94,1.0,30.0
403,76.0,0,46,0.0,45.0
404,57.0,48,94,1.0,30.0
405,74.0,48,46,0.0,45.0
406,73.0,48,46,0.0,45.0
407,45.0,0,94,1.0,30.0
408,71.0,48,46,0.0,45.0
409,69.0,48,46,0.0,45.0
410,57.0,0,94,1.0,30.0
411,67.0,48,46,0.0,45.0
412,66.0,48,46,0.0,45.0
413,50.0,0,94,1.0,30.0
414,67.0,48,48,0.0,45.0
415,69.0,48,48,0.0,45.0
416,57.0,0,94,1.0,30.0
417,71.0,48,48,0.0,45.0
418,73.0,48,48,0.0,45.0
419,54.0,0,94,1.0,30.0
420,74.0,48,48,0.0,45.0
421,76.0,48,48,0.0,45.0
422,57.0,0,94,1.0,30.0
423,78.0,48,48,0.0,45.0
424,79.0,0,48,0.0,45.0
425,78.0,48,16,0.0,45.0
426,78.0,16,16,0.0,45.0
427,52.0,48,94,1.0,30.0
428,78.0,16,16,0.0,45.0
429,79.0,16,48,0.0,45.0
430,57.0,0,94,1.0,30.0
431,81.0,48,48,0.0,45.0
432,83.0,48,48,0.0,45.0
433,82.0,16,0,0.0,45.0
434,45.0,0,94,1.0,30.0
435,55.0,0,94,1.0,30.0
436,82.0,16,16,0.0,45.0
437,83.0,0,48,0.0,45.0
438,57.0,16,94,1.0,30.0
439,85.0,48,48,0.0,45.0
440,86.0,0,48,0.0,45.0
441,85.0,48,48,0.0,45.0
442,88.0,48,48,0.0,46.0
443,50.0,48,160,1.0,30.0
444,54.0,0,160,1.0,30.0
445,86.0,48,48,0.0,47.0
446,81.0,48,48,0.0,48.0
447,80.0,48,48,0.0,49.0
448,83.0,48,48,0.0,50.0
449,81.0,48,48,0.0,51.0
450,78.0,48,48,0.0,52.0
451,77.0,48,48,0.0,53.0
452,79.0,48,48,0.0,54.0
453,78.0,48,48,0.0,55.0
454,74.0,48,48,0.0,56.0
455,73.0,48,48,0.0,57.0
456,76.0,48,48,0.0,58.0
457,74.0,48,46,0.0,59.0
458,66.0,48,32,1.0,45.0
459,62.0,0,32,1.0,45.0
460,74.0,0,32,0.0,60.0
461,72.0,48,32,0.0,60.0
462,67.0,48,32,1.0,45.0
463,64.0,0,32,1.0,45.0
464,72.0,0,32,0.0,60.0
465,74.0,48,32,0.0,60.0
466,69.0,48,32,1.0,45.0
467,66.0,0,32,1.0,45.0
468,72.0,48,32,0.0,60.0
469,74.0,0,32,0.0,60.0
470,67.0,48,32,1.0,45.0
471,64.0,0,32,1.0,45.0
472,74.0,0,32,0.0,60.0
473,72.0,48,32,0.0,60.0
474,69.0,48,32,1.0,45.0
475,66.0,0,32,1.0,45.0
476,72.0,0,32,0.0,60.0
477,74.0,48,32,0.0,60.0
478,67.0,48,32,1.0,45.0
479,64.0,0,32,1.0,45.0
480,72.0,48,32,0.0,60.0
481,74.0,0,32,0.0,60.0
482,66.0,48,32,1.0,45.0
483,69.0,0,32,1.0,45.0
484,74.0,48,32,0.0,60.0
485,72.0,0,32,0.0,60.0
486,64.0,48,32,1.0,45.0
487,67.0,0,32,1.0,45.0
488,72.0,48,32,0.0,60.0
489,74.0,0,32,0.0,60.0
490,74.0,48,48,0.0,60.0
491,71.0,48,120,1.0,45.0
492,67.0,0,120,1.0,45.0
493,73.0,48,48,0.0,60.0
494,74.0,48,48,0.0,60.0
495,67.0,0,48,1.0,45.0
496,71.0,0,48,1.0,45.0
497,79.0,48,48,0.0,60.0
498,74.0,48,48,0.0,60.0
499,83.0,48,48,0.0,60.0
500,74.0,48,48,0.0,60.0
501,86.0,48,48,0.0,92.0
502,74.0,48,48,0.0,92.0
503,83.0,48,48,0.0,60.0
504,74.0,48,48,0.0,60.0
505,81.0,48,48,0.0,60.0
506,74.0,48,48,0.0,60.0
507,79.0,48,48,0.0,60.0
508,74.0,48,46,0.0,60.0
509,69.0,48,32,1.0,45.0
510,66.0,0,32,1.0,45.0
511,74.0,48,32,0.0,60.0
512,72.0,0,32,0.0,60.0
513,67.0,48,32,1.0,45.0
514,64.0,0,32,1.0,45.0
515,72.0,48,32,0.0,60.0
516,74.0,0,32,0.0,60.0
517,62.0,48,32,1.0,45.0
518,66.0,0,32,1.0,45.0
519,74.0,0,32,0.0,60.0
520,72.0,48,32,0.0,60.0
521,67.0,48,32,1.0,45.0
522,64.0,0,32,1.0,45.0
523,72.0,48,32,0.0,60.0
524,74.0,0,32,0.0,60.0
525,69.0,48,32,1.0,45.0
526,66.0,0,32,1.0,45.0
527,74.0,48,32,0.0,60.0
528,72.0,0,32,0.0,60.0
529,67.0,0,32,1.0,45.0
530,64.0,48,32,1.0,45.0
531,74.0,48,32,0.0,60.0
532,72.0,0,32,0.0,60.0
533,66.0,48,32,1.0,45.0
534,69.0,0,32,1.0,45.0
535,74.0,48,32,0.0,60.0
536,72.0,0,32,0.0,60.0
537,62.0,48,32,1.0,45.0
538,66.0,0,32,1.0,45.0
539,72.0,48,32,0.0,60.0
540,74.0,0,32,0.0,60.0
541,74.0,48,48,0.0,60.0
542,67.0,48,120,1.0,45.0
543,71.0,0,120,1.0,45.0
544,73.0,48,48,0.0,60.0
545,74.0,48,48,0.0,60.0
546,67.0,48,48,1.0,45.0
547,79.0,0,48,0.0,60.0
548,71.0,0,48,1.0,45.0
549,74.0,48,48,0.0,60.0
550,83.0,48,48,0.0,60.0
551,74.0,48,48,0.0,60.0
552,86.0,48,48,0.0,92.0
553,74.0,48,48,0.0,92.0
554,83.0,48,48,0.0,60.0
555,74.0,48,48,0.0,60.0
556,81.0,48,48,0.0,60.0
557,74.0,48,48,0.0,60.0
558,79.0,48,48,0.0,60.0
559,74.0,48,46,0.0,60.0
560,68.0,48,32,1.0,45.0
561,71.0,0,32,1.0,45.0
562,76.0,48,32,0.0,61.0
563,74.0,0,32,0.0,61.0
564,69.0,0,32,1.0,50.0
565,66.0,48,32,1.0,50.0
566,74.0,48,32,0.0,64.0
567,76.0,0,32,0.0,64.0
568,64.0,48,32,1.0,56.0
569,68.0,0,32,1.0,56.0
570,76.0,0,32,0.0,68.0
571,74.0,48,32,0.0,68.0
572,66.0,0,32,1.0,62.0
573,69.0,48,32,1.0,62.0
574,74.0,0,32,0.0,72.0
575,76.0,48,32,0.0,72.0
576,71.0,48,32,1.0,68.0
577,68.0,0,32,1.0,68.0
578,76.0,0,32,0.0,76.0
579,74.0,48,32,0.0,76.0
580,69.0,48,32,1.0,74.0
581,66.0,0,32,1.0,74.0
582,76.0,48,32,0.0,80.0
583,74.0,0,32,0.0,80.0
584,71.0,0,32,1.0,80.0
585,68.0,48,32,1.0,80.0
586,74.0,48,32,0.0,84.0
587,76.0,0,32,0.0,84.0
588,69.0,48,32,1.0,86.0
589,66.0,0,32,1.0,86.0
590,76.0,0,32,0.0,88.0
591,74.0,48,32,0.0,88.0
592,69.0,0,48,1.0,92.0
593,72.0,48,48,1.0,92.0
594,76.0,48,48,0.0,92.0
595,78.0,48,48,0.0,92.0
596,80.0,48,48,0.0,92.0
597,81.0,48,48,0.0,92.0
598,69.0,0,48,1.0,92.0
599,72.0,0,48,1.0,92.0
600,83.0,48,48,0.0,92.0
601,84.0,48,48,0.0,92.0
602,86.0,48,48,0.0,92.0
603,88.0,48,48,0.0,92.0
604,87.0,48,48,0.0,92.0
605,89.0,48,48,0.0,92.0
606,88.0,48,48,0.0,92.0
607,86.0,0,48,0.0,92.0
608,84.0,48,48,0.0,92.0
609,83.0,48,48,0.0,92.0
610,82.0,48,48,0.0,92.0
611,66.0,48,192,1.0,92.0
612,84.0,48,48,0.0,45.0
613,83.0,48,48,0.0,45.0
614,88.0,48,48,0.0,45.0
615,67.0,0,160,1.0,45.0
616,86.0,48,48,0.0,45.0
617,84.0,48,48,0.0,45.0
618,83.0,48,48,0.0,45.0
619,81.0,48,48,0.0,45.0
620,64.0,0,160,1.0,45.0
621,79.0,48,48,0.0,45.0
622,83.0,0,48,0.0,45.0
623,81.0,48,48,0.0,45.0
624,86.0,48,48,0.0,45.0
625,60.0,48,160,1.0,45.0
626,84.0,48,48,0.0,45.0
627,83.0,48,48,0.0,45.0
628,81.0,48,48,0.0,45.0
629,79.0,48,48,0.0,45.0
630,62.0,0,160,1.0,45.0
631,78.0,48,48,0.0,45.0
632,79.0,0,46,0.0,45.0
633,80.0,48,46,0.0,45.0
634,81.0,48,46,0.0,45.0
635,59.0,48,160,1.0,45.0
636,82.0,48,46,0.0,45.0
637,83.0,48,46,0.0,45.0
638,77.0,48,46,0.0,45.0
639,76.0,48,46,0.0,45.0
640,56.0,0,160,1.0,45.0
641,74.0,48,46,0.0,45.0
642,73.0,0,46,0.0,45.0
643,76.0,48,46,0.0,45.0
644,78.0,48,46,0.0,45.0
645,57.0,48,160,1.0,45.0
646,80.0,48,46,0.0,45.0
647,81.0,48,46,0.0,45.0
648,76.0,48,46,0.0,45.0
649,74.0,48,46,0.0,45.0
650,54.0,0,160,1.0,45.0
651,72.0,48,46,0.0,45.0
652,70.0,48,46,0.0,45.0
653,71.0,48,46,0.0,45.0
654,76.0,48,46,0.0,45.0
655,55.0,0,160,1.0,45.0
656,74.0,48,46,0.0,45.0
657,72.0,0,46,0.0,45.0
658,71.0,48,46,0.0,45.0
659,69.0,48,46,0.0,45.0
660,52.0,48,160,1.0,42.0
661,67.0,48,46,0.0,45.0
662,71.0,0,46,0.0,45.0
663,69.0,48,46,0.0,45.0
664,74.0,48,46,0.0,46.0
665,48.0,48,160,1.0,38.0
666,72.0,48,46,0.0,47.0
667,71.0,0,46,0.0,48.0
668,69.0,48,46,0.0,49.0
669,67.0,48,46,0.0,50.0
670,50.0,48,160,1.0,34.0
671,66.0,48,46,0.0,51.0
672,43.0,48,94,1.0,30.0
673,67.0,0,160,0.0,52.0
674,47.0,96,94,1.0,30.0
675,50.0,96,94,1.0,30.0
676,48.0,96,94,1.0,30.0
677,67.0,0,48,0.0,60.0
678,62.0,96,48,0.0,60.0
679,59.0,0,48,0.0,60.0
680,47.0,0,94,1.0,30.0
681,45.0,96,94,1.0,30.0
682,67.0,0,48,0.0,60.0
683,62.0,0,48,0.0,60.0
684,59.0,0,48,0.0,60.0
685,47.0,96,94,1.0,30.0
686,43.0,96,94,1.0,30.0
687,48.0,0,94,1.0,30.0
688,43.0,96,94,1.0,30.0
689,66.0,0,256,0.0,60.0
690,48.0,96,94,1.0,30.0
691,57.0,96,336,0.0,60.0
692,63.0,0,336,0.0,60.0
693,67.0,96,94,0.0,60.0
694,43.0,0,94,1.0,30.0
695,48.0,0,94,1.0,30.0
696,69.0,96,160,0.0,60.0
697,66.0,0,160,0.0,60.0
698,63.0,0,160,0.0,60.0
699,43.0,96,94,1.0,30.0
700,48.0,96,94,1.0,30.0
701,69.0,0,142,0.0,60.0
702,63.0,0,160,0.0,60.0
703,66.0,0,160,0.0,60.0
704,71.0,48,46,0.0,60.0
705,43.0,96,94,1.0,30.0
706,47.0,0,94,1.0,30.0
707,67.0,0,160,0.0,60.0
708,62.0,48,160,0.0,60.0
709,43.0,96,94,1.0,30.0
710,50.0,96,94,1.0,30.0
711,48.0,96,94,1.0,30.0
712,47.0,0,94,1.0,30.0
713,59.0,0,120,0.0,60.0
714,62.0,0,120,0.0,60.0
715,67.0,96,120,0.0,60.0
716,45.0,96,94,1.0,30.0
717,62.0,0,48,0.0,60.0
718,67.0,0,48,0.0,60.0
719,59.0,0,48,0.0,60.0
720,47.0,96,94,1.0,30.0
721,43.0,96,94,1.0,30.0
722,48.0,0,94,1.0,30.0
723,43.0,96,94,1.0,30.0
724,66.0,0,256,0.0,60.0
725,48.0,96,94,1.0,30.0
726,57.0,96,336,0.0,60.0
727,63.0,0,336,0.0,60.0
728,67.0,0,94,0.0,60.0
729,43.0,96,94,1.0,30.0
730,48.0,0,94,1.0,30.0
731,66.0,0,160,0.0,60.0
732,69.0,0,160,0.0,60.0
733,63.0,96,160,0.0,60.0
734,43.0,96,94,1.0,30.0
735,48.0,96,94,1.0,30.0
736,69.0,0,142,0.0,60.0
737,66.0,0,160,0.0,60.0
738,63.0,0,160,0.0,60.0
739,71.0,48,46,0.0,60.0
740,43.0,96,94,1.0,30.0
741,47.0,0,94,1.0,30.0
742,67.0,0,160,0.0,60.0
743,62.0,48,160,0.0,60.0
744,43.0,96,94,1.0,32.0
745,47.0,96,94,1.0,34.0
746,43.0,96,94,1.0,36.0
747,48.0,96,94,1.0,38.0
748,69.0,0,160,0.0,65.0
749,66.0,0,160,0.0,65.0
750,63.0,0,160,0.0,65.0
751,43.0,96,94,1.0,40.0
752,48.0,96,94,1.0,42.0
753,43.0,96,94,1.0,44.0
754,50.0,96,94,1.0,46.0
755,65.0,0,160,0.0,71.0
756,71.0,0,160,0.0,71.0
757,68.0,0,160,0.0,71.0
758,43.0,96,94,1.0,48.0
759,50.0,96,94,1.0,50.0
760,43.0,96,94,1.0,52.0
761,52.0,96,94,1.0,54.0
762,67.0,0,160,0.0,77.0
763,72.0,0,160,0.0,77.0
764,43.0,96,94,1.0,56.0
765,52.0,96,94,1.0,58.0
766,43.0,96,94,1.0,60.0
767,53.0,0,94,1.0,62.0
768,71.0,0,160,0.0,83.0
769,74.0,96,160,0.0,83.0
770,43.0,96,94,1.0,64.0
771,54.0,96,94,1.0,66.0
772,43.0,96,94,1.0,68.0
773,55.0,96,94,1.0,70.0
774,43.0,96,94,1.0,72.0
775,56.0,0,94,1.0,75.0
776,74.0,96,120,0.0,92.0
777,83.0,0,120,0.0,92.0
778,71.0,0,120,0.0,92.0
779,43.0,96,94,1.0,75.0
780,83.0,0,48,0.0,45.0
781,74.0,0,48,0.0,45.0
782,71.0,0,48,0.0,45.0
783,55.0,96,94,1.0,30.0
784,43.0,96,94,1.0,30.0
785,54.0,96,94,1.0,30.0
786,43.0,96,94,1.0,30.0
787,55.0,96,94,1.0,30.0
788,43.0,96,94,1.0,30.0
789,56.0,96,94,1.0,30.0
790,83.0,0,120,0.0,92.0
791,86.0,0,120,0.0,92.0
792,43.0,96,94,1.0,30.0
793,83.0,0,48,0.0,92.0
794,86.0,0,48,0.0,92.0
795,55.0,96,94,1.0,30.0
796,43.0,96,94,1.0,30.0
797,54.0,96,94,1.0,30.0
798,43.0,96,94,1.0,30.0
799,55.0,96,94,1.0,30.0
800,43.0,96,94,1.0,30.0
801,57.0,96,94,1.0,30.0
802,43.0,96,94,1.0,30.0
803,55.0,96,94,1.0,30.0
804,43.0,96,94,1.0,30.0
805,53.0,96,94,1.0,30.0
806,43.0,96,94,1.0,30.0
807,72.0,0,48,0.0,45.0
808,48.0,96,94,1.0,30.0
809,52.0,0,94,1.0,30.0
810,53.0,96,94,1.0,30.0
811,64.0,96,94,0.0,45.0
812,72.0,0,160,0.0,45.0
813,67.0,96,94,0.0,45.0
814,65.0,0,94,1.0,30.0
815,62.0,96,94,1.0,30.0
816,72.0,0,96,0.0,45.0
817,67.0,96,94,1.0,30.0
818,71.0,0,96,0.0,45.0
819,65.0,96,94,1.0,30.0
820,62.0,0,94,1.0,30.0
821,69.0,0,96,0.0,45.0
822,67.0,0,94,1.0,30.0
823,71.0,96,96,0.0,45.0
824,60.0,0,94,1.0,30.0
825,64.0,0,94,1.0,30.0
826,72.0,48,48,0.0,45.0
827,72.0,48,48,0.0,45.0
828,72.0,48,16,0.0,45.0
829,67.0,0,94,1.0,30.0
830,72.0,48,0,0.0,45.0
831,60.0,0,94,1.0,30.0
832,64.0,0,94,1.0,30.0
833,67.0,96,94,1.0,30.0
834,76.0,48,48,0.0,45.0
835,59.0,0,94,1.0,30.0
836,62.0,48,94,1.0,30.0
837,67.0,96,94,1.0,30.0
838,59.0,96,94,1.0,30.0
839,62.0,0,94,1.0,30.0
840,79.0,0,336,0.0,45.0
841,67.0,96,94,1.0,30.0
842,57.0,96,94,1.0,30.0
843,60.0,0,94,1.0,30.0
844,77.0,0,94,0.0,45.0
845,65.0,96,94,1.0,30.0
846,81.0,0,160,0.0,45.0
847,59.0,96,94,1.0,30.0
848,62.0,0,94,1.0,30.0
849,79.0,96,46,0.0,45.0
850,77.0,48,46,0.0,45.0
851,67.0,0,94,1.0,30.0
852,76.0,0,94,0.0,45.0
853,60.0,48,94,1.0,30.0
854,64.0,96,94,1.0,30.0
855,79.0,0,160,0.0,45.0
856,52.0,0,94,1.0,30.0
857,55.0,96,94,1.0,30.0
858,77.0,0,46,0.0,45.0
859,60.0,96,94,1.0,30.0
860,76.0,48,46,0.0,45.0
861,74.0,0,46,0.0,45.0
862,53.0,0,94,1.0,30.0
863,76.0,48,46,0.0,45.0
864,77.0,0,46,0.0,45.0
865,76.0,48,46,0.0,45.0
866,57.0,48,94,1.0,30.0
867,79.0,0,46,0.0,45.0
868,77.0,48,46,0.0,45.0
869,62.0,48,94,1.0,30.0
870,76.0,0,46,0.0,45.0
871,65.0,48,94,1.0,30.0
872,74.0,48,46,0.0,45.0
873,72.0,0,160,0.0,45.0
874,64.0,96,94,1.0,30.0
875,60.0,96,32,1.0,30.0
876,71.0,0,32,0.0,45.0
877,55.0,48,256,1.0,30.0
878,67.0,96,32,0.0,45.0
879,67.0,96,24,0.0,45.0
880,72.0,24,56,0.0,45.0
881,60.0,0,94,1.0,30.0
882,64.0,0,94,1.0,30.0
883,67.0,72,94,1.0,30.0
884,72.0,0,48,0.0,45.0
885,64.0,96,94,1.0,30.0
886,60.0,0,94,1.0,30.0
887,67.0,96,94,1.0,30.0
888,62.0,0,96,1.0,30.0
889,65.0,0,96,1.0,30.0
890,72.0,96,96,0.0,45.0
891,67.0,96,96,1.0,30.0
892,71.0,0,96,0.0,45.0
893,69.0,0,96,0.0,45.0
894,62.0,0,96,1.0,30.0
895,65.0,96,96,1.0,30.0
896,71.0,96,94,0.0,45.0
897,67.0,0,96,1.0,30.0
898,72.0,48,46,0.0,45.0
899,60.0,0,96,1.0,30.0
900,64.0,0,96,1.0,30.0
901,72.0,48,46,0.0,45.0
902,72.0,48,16,0.0,45.0
903,67.0,0,96,1.0,30.0
904,72.0,48,32,0.0,45.0
905,74.0,48,32,0.0,45.0
906,60.0,0,96,1.0,30.0
907,64.0,0,96,1.0,30.0
908,76.0,48,32,0.0,45.0
909,77.0,48,32,0.0,45.0
910,67.0,0,96,1.0,30.0
911,62.0,48,96,1.0,30.0
912,59.0,0,96,1.0,30.0
913,78.0,0,96,0.0,45.0
914,67.0,96,96,1.0,30.0
915,79.0,0,160,0.0,45.0
916,62.0,0,96,1.0,30.0
917,59.0,96,96,1.0,30.0
918,79.0,96,96,0.0,45.0
919,67.0,0,96,1.0,30.0
920,79.0,24,24,0.0,45.0
921,81.0,24,24,0.0,45.0
922,77.0,96,94,0.0,45.0
923,79.0,24,24,0.0,45.0
924,57.0,0,96,1.0,30.0
925,60.0,0,96,1.0,30.0
926,76.0,0,24,0.0,45.0
927,77.0,24,24,0.0,45.0
928,65.0,24,96,1.0,30.0
929,81.0,24,144,0.0,45.0
930,59.0,48,96,1.0,30.0
931,62.0,0,96,1.0,30.0
932,79.0,96,48,0.0,45.0
933,77.0,48,48,0.0,45.0
934,67.0,0,96,1.0,30.0
935,76.0,0,32,0.0,45.0
936,75.0,32,32,0.0,45.0
937,64.0,0,96,1.0,30.0
938,60.0,48,96,1.0,30.0
939,76.0,32,32,0.0,45.0
940,67.0,32,32,1.0,30.0
941,79.0,0,32,0.0,45.0
942,77.0,32,32,0.0,45.0
943,76.0,32,32,0.0,45.0
944,74.0,32,32,0.0,45.0
945,73.0,32,32,0.0,45.0
946,53.0,0,94,1.0,30.0
947,74.0,32,32,0.0,45.0
948,77.0,0,32,0.0,45.0
949,76.0,32,32,0.0,45.0
950,65.0,32,94,1.0,30.0
951,74.0,32,32,0.0,45.0
952,55.0,0,94,1.0,30.0
953,72.0,48,48,0.0,45.0
954,72.0,48,48,0.0,45.0
955,72.0,48,16,0.0,45.0
956,64.0,0,94,1.0,30.0
957,55.0,48,94,1.0,30.0
958,76.0,0,96,0.0,45.0
959,65.0,96,94,1.0,30.0
960,74.0,0,96,0.0,45.0
961,48.0,0,94,1.0,30.0
962,64.0,0,160,0.0,45.0
963,72.0,96,160,0.0,45.0
964,60.0,96,94,1.0,30.0
965,48.0,96,32,1.0,30.0
966,67.0,96,32,0.0,92.0
967,63.0,0,32,0.0,92.0
968,75.0,96,32,0.0,92.0
969,48.0,0,32,1.0,92.0
970,55.0,0,32,1.0,92.0
971,75.0,0,160,0.0,127.0
972,48.0,0,160,1.0,127.0
973,74.0,0,46,0.0,92.0
974,50.0,192,46,1.0,92.0
975,55.0,0,256,1.0,92.0
976,63.0,96,256,0.0,92.0
977,72.0,48,32,0.0,92.0
978,51.0,0,32,1.0,92.0
979,50.0,48,30,1.0,92.0
980,53.0,32,30,1.0,92.0
981,56.0,32,30,1.0,92.0
982,62.0,32,30,0.0,92.0
983,65.0,32,30,0.0,92.0
984,71.0,32,30,0.0,92.0
985,62.0,32,30,1.0,92.0
986,65.0,32,30,1.0,92.0
987,68.0,32,30,1.0,92.0
988,71.0,32,30,0.0,92.0
989,74.0,32,30,0.0,92.0
990,77.0,32,21,0.0,92.0
991,59.0,0,32,1.0,92.0
992,50.0,32,32,1.0,92.0
993,65.0,0,32,0.0,92.0
994,77.0,0,32,0.0,92.0
995,50.0,0,160,1.0,127.0
996,77.0,0,160,0.0,127.0
997,75.0,192,46,0.0,92.0
998,51.0,0,46,1.0,92.0
999,65.0,0,256,0.0,92.0
1000,59.0,96,256,1.0,92.0
1001,74.0,48,32,0.0,92.0
1002,53.0,0,32,1.0,92.0
1003,51.0,48,30,1.0,92.0
1004,55.0,32,30,1.0,92.0
1005,60.0,32,30,1.0,92.0
1006,63.0,32,30,0.0,92.0
1007,67.0,32,30,0.0,92.0
1008,72.0,32,30,0.0,92.0
1009,63.0,32,30,1.0,92.0
1010,67.0,32,30,1.0,92.0
1011,72.0,32,30,1.0,92.0
1012,75.0,32,30,0.0,92.0
1013,79.0,32,30,0.0,92.0
1014,84.0,32,21,0.0,92.0
1015,85.0,0,32,0.0,92.0
1016,73.0,32,32,0.0,92.0
1017,67.0,0,32,1.0,92.0
1018,64.0,0,32,1.0,92.0
1019,73.0,0,160,0.0,127.0
1020,67.0,96,160,1.0,127.0
1021,85.0,0,160,0.0,127.0
1022,64.0,0,160,1.0,127.0
1023,65.0,0,46,1.0,92.0
1024,84.0,0,46,0.0,92.0
1025,68.0,192,46,1.0,92.0
1026,70.0,0,46,1.0,92.0
1027,67.0,0,46,1.0,92.0
1028,82.0,48,46,0.0,92.0
1029,82.0,48,46,0.0,92.0
1030,80.0,48,46,0.0,92.0
1031,80.0,48,46,0.0,92.0
1032,65.0,0,160,1.0,92.0
1033,68.0,0,160,1.0,92.0
1034,79.0,48,46,0.0,92.0
1035,79.0,48,46,0.0,92.0
1036,77.0,48,46,0.0,92.0
1037,77.0,48,46,0.0,92.0
1038,75.0,48,46,0.0,92.0
1039,56.0,0,32,1.0,92.0
1040,53.0,0,32,1.0,92.0
1041,75.0,48,46,0.0,92.0
1042,74.0,48,46,0.0,92.0
1043,74.0,48,46,0.0,92.0
1044,75.0,48,46,0.0,92.0
1045,54.0,0,32,1.0,92.0
1046,57.0,0,32,1.0,92.0
1047,75.0,48,46,0.0,92.0
1048,74.0,48,46,0.0,92.0
1049,74.0,48,46,0.0,92.0
1050,72.0,48,46,0.0,92.0
1051,55.0,48,32,1.0,92.0
1052,62.0,0,32,1.0,92.0
1053,72.0,0,46,0.0,92.0
1054,71.0,48,46,0.0,92.0
1055,69.0,48,46,0.0,92.0
1056,67.0,48,46,0.0,92.0
1057,66.0,48,46,0.0,92.0
1058,67.0,48,46,0.0,92.0
1059,68.0,48,46,0.0,92.0
1060,67.0,48,32,0.0,92.0
1061,48.0,0,32,1.0,92.0
1062,55.0,0,32,1.0,92.0
1063,63.0,0,94,0.0,92.0
1064,75.0,48,94,0.0,92.0
1065,75.0,0,160,0.0,127.0
1066,48.0,0,160,1.0,127.0
1067,74.0,0,46,0.0,92.0
1068,50.0,192,46,1.0,92.0
1069,55.0,96,256,1.0,92.0
1070,63.0,0,256,0.0,92.0
1071,72.0,48,32,0.0,92.0
1072,51.0,0,32,1.0,92.0
1073,50.0,48,30,1.0,92.0
1074,53.0,32,30,1.0,92.0
1075,58.0,32,30,1.0,92.0
1076,62.0,32,30,0.0,92.0
1077,65.0,32,30,0.0,92.0
1078,70.0,32,30,0.0,92.0
1079,62.0,32,30,1.0,92.0
1080,65.0,32,30,1.0,92.0
1081,70.0,32,30,1.0,92.0
1082,74.0,32,30,0.0,92.0
1083,77.0,32,30,0.0,92.0
1084,80.0,32,30,0.0,92.0
1085,58.0,32,32,1.0,92.0
1086,80.0,0,32,0.0,92.0
1087,84.0,0,32,0.0,92.0
1088,46.0,0,32,1.0,92.0
1089,46.0,0,160,1.0,127.0
1090,84.0,0,192,0.0,127.0
1091,80.0,0,192,0.0,127.0
1092,48.0,192,46,1.0,92.0
1093,82.0,0,48,0.0,92.0
1094,79.0,0,48,0.0,92.0
1095,58.0,96,256,1.0,92.0
1096,50.0,48,46,1.0,92.0
1097,80.0,0,46,0.0,92.0
1098,77.0,0,46,0.0,92.0
1099,51.0,48,30,1.0,92.0
1100,55.0,32,30,1.0,92.0
1101,58.0,32,30,1.0,92.0
1102,67.0,32,30,0.0,92.0
1103,70.0,32,30,0.0,92.0
1104,75.0,32,30,0.0,92.0
1105,63.0,32,30,1.0,92.0
1106,67.0,32,30,1.0,92.0
1107,70.0,32,30,1.0,92.0
1108,79.0,32,30,0.0,92.0
1109,82.0,32,30,0.0,92.0
1110,87.0,32,21,0.0,92.0
1111,87.0,96,30,0.0,108.0
1112,86.0,32,30,0.0,108.0
1113,55.0,32,160,1.0,108.0
1114,58.0,0,160,1.0,108.0
1115,63.0,0,160,1.0,108.0
1116,84.0,32,30,0.0,108.0
1117,82.0,32,30,0.0,108.0
1118,80.0,32,30,0.0,108.0
1119,79.0,32,30,0.0,108.0
1120,77.0,32,30,0.0,108.0
1121,75.0,32,30,0.0,108.0
1122,74.0,32,30,0.0,108.0
1123,72.0,32,32,0.0,108.0
1124,84.0,96,30,0.0,108.0
1125,82.0,32,30,0.0,108.0
1126,63.0,0,160,1.0,108.0
1127,56.0,0,160,1.0,108.0
1128,60.0,0,160,1.0,108.0
1129,65.0,0,160,1.0,108.0
1130,80.0,32,30,0.0,108.0
1131,79.0,32,30,0.0,108.0
1132,77.0,32,30,0.0,108.0
1133,75.0,32,30,0.0,108.0
1134,74.0,32,30,0.0,108.0
1135,75.0,32,30,0.0,108.0
1136,72.0,32,30,0.0,108.0
1137,67.0,0,32,1.0,108.0
1138,70.0,0,32,0.0,108.0
1139,58.0,0,32,1.0,108.0
1140,63.0,32,32,1.0,108.0
1141,82.0,0,32,0.0,108.0
1142,79.0,0,32,0.0,108.0
1143,75.0,96,32,0.0,108.0
1144,70.0,0,32,0.0,108.0
1145,46.0,96,32,1.0,108.0
1146,58.0,0,32,1.0,108.0
1147,65.0,0,32,0.0,108.0
1148,68.0,0,32,0.0,108.0
1149,70.0,0,32,0.0,108.0
1150,74.0,96,32,0.0,108.0
1151,51.0,0,48,1.0,45.0
1152,58.0,48,48,1.0,45.0
1153,55.0,48,48,1.0,45.0
1154,75.0,0,160,0.0,60.0
1155,67.0,96,160,0.0,60.0
1156,70.0,0,160,0.0,60.0
1157,58.0,48,48,1.0,45.0
1158,46.0,48,48,1.0,45.0
1159,58.0,48,48,1.0,45.0
1160,55.0,48,48,1.0,45.0
1161,58.0,48,48,1.0,45.0
1162,51.0,48,48,1.0,45.0
1163,58.0,48,48,1.0,45.0
1164,79.0,0,32,0.0,60.0
1165,55.0,48,48,1.0,45.0
1166,58.0,48,48,1.0,45.0
1167,79.0,48,32,0.0,60.0
1168,46.0,0,48,1.0,45.0
1169,58.0,48,48,1.0,45.0
1170,79.0,48,32,0.0,60.0
1171,55.0,0,48,1.0,45.0
1172,58.0,48,48,1.0,45.0
1173,53.0,0,48,1.0,45.0
1174,58.0,48,48,1.0,45.0
1175,82.0,48,142,0.0,60.0
1176,56.0,48,48,1.0,45.0
1177,80.0,0,46,0.0,60.0
1178,58.0,48,48,1.0,45.0
1179,46.0,0,48,1.0,45.0
1180,77.0,48,48,0.0,60.0
1181,58.0,48,48,1.0,45.0
1182,56.0,48,48,1.0,45.0
1183,58.0,48,48,1.0,45.0
1184,50.0,48,48,1.0,45.0
1185,58.0,48,48,1.0,45.0
1186,70.0,0,32,0.0,60.0
1187,56.0,48,48,1.0,45.0
1188,58.0,48,48,1.0,45.0
1189,70.0,0,32,0.0,60.0
1190,46.0,48,48,1.0,45.0
1191,58.0,48,48,1.0,45.0
1192,70.0,0,32,0.0,60.0
1193,56.0,48,48,1.0,45.0
1194,58.0,48,46,1.0,45.0
1195,70.0,48,24,0.0,60.0
1196,51.0,0,48,1.0,45.0
1197,58.0,24,48,1.0,45.0
1198,55.0,48,48,1.0,45.0
1199,77.0,24,166,0.0,60.0
1200,58.0,48,48,1.0,45.0
1201,75.0,0,32,0.0,60.0
1202,46.0,48,48,1.0,45.0
1203,58.0,48,48,1.0,45.0
1204,55.0,48,48,1.0,45.0
1205,58.0,48,48,1.0,45.0
1206,51.0,48,48,1.0,45.0
1207,79.0,0,46,0.0,60.0
1208,58.0,48,48,1.0,45.0
1209,78.0,48,46,0.0,60.0
1210,55.0,0,48,1.0,45.0
1211,79.0,0,46,0.0,60.0
1212,58.0,48,48,1.0,45.0
1213,78.0,48,46,0.0,60.0
1214,46.0,0,48,1.0,45.0
1215,79.0,0,46,0.0,60.0
1216,58.0,48,48,1.0,45.0
1217,80.0,48,46,0.0,60.0
1218,55.0,0,48,1.0,45.0
1219,79.0,0,46,0.0,60.0
1220,58.0,48,48,1.0,45.0
1221,53.0,48,48,1.0,45.0
1222,58.0,48,48,1.0,45.0
1223,82.0,0,142,0.0,60.0
1224,56.0,48,48,1.0,45.0
1225,80.0,48,46,0.0,60.0
1226,58.0,0,48,1.0,45.0
1227,77.0,0,48,0.0,60.0
1228,46.0,48,48,1.0,45.0
1229,58.0,48,48,1.0,45.0
1230,56.0,48,48,1.0,45.0
1231,58.0,48,48,1.0,45.0
1232,50.0,48,48,1.0,45.0
1233,70.0,48,46,0.0,60.0
1234,58.0,0,48,1.0,45.0
1235,69.0,0,46,0.0,60.0
1236,56.0,48,48,1.0,45.0
1237,70.0,0,46,0.0,60.0
1238,58.0,48,48,1.0,45.0
1239,69.0,0,46,0.0,60.0
1240,46.0,48,48,1.0,45.0
1241,70.0,0,46,0.0,60.0
1242,58.0,48,48,1.0,45.0
1243,69.0,48,46,0.0,60.0
1244,56.0,0,48,1.0,45.0
1245,58.0,0,46,1.0,45.0
1246,70.0,48,46,0.0,60.0
1247,70.0,0,24,0.0,60.0
1248,49.0,48,48,1.0,45.0
1249,58.0,24,48,1.0,45.0
1250,55.0,48,48,1.0,45.0
1251,77.0,24,166,0.0,60.0
1252,58.0,48,48,1.0,45.0
1253,76.0,48,32,0.0,60.0
1254,48.0,0,48,1.0,45.0
1255,58.0,48,48,1.0,45.0
1256,55.0,48,48,1.0,45.0
1257,58.0,48,48,1.0,45.0
1258,52.0,48,48,1.0,45.0
1259,72.0,0,46,0.0,60.0
1260,58.0,48,48,1.0,45.0
1261,71.0,48,46,0.0,60.0
1262,55.0,0,48,1.0,45.0
1263,72.0,48,46,0.0,60.0
1264,58.0,0,48,1.0,45.0
1265,71.0,48,46,0.0,60.0
1266,48.0,0,48,1.0,45.0
1267,72.0,48,46,0.0,60.0
1268,58.0,0,48,1.0,45.0
1269,71.0,48,46,0.0,60.0
1270,55.0,0,48,1.0,45.0
1271,58.0,48,46,1.0,45.0
1272,72.0,0,46,0.0,60.0
1273,72.0,0,24,0.0,60.0
1274,51.0,48,46,1.0,45.0
1275,60.0,24,48,1.0,45.0
1276,57.0,48,48,1.0,45.0
1277,79.0,24,166,0.0,60.0
1278,60.0,48,48,1.0,45.0
1279,78.0,0,32,0.0,60.0
1280,50.0,48,48,1.0,45.0
1281,60.0,48,48,1.0,45.0
1282,57.0,48,48,1.0,45.0
1283,60.0,48,48,1.0,45.0
1284,54.0,48,48,1.0,45.0
1285,74.0,48,46,0.0,60.0
1286,60.0,0,48,1.0,45.0
1287,73.0,48,46,0.0,60.0
1288,57.0,0,48,1.0,45.0
1289,74.0,0,46,0.0,60.0
1290,60.0,48,48,1.0,45.0
1291,73.0,0,46,0.0,60.0
1292,50.0,48,48,1.0,45.0
1293,74.0,48,46,0.0,60.0
1294,60.0,0,48,1.0,45.0
1295,73.0,48,46,0.0,60.0
1296,57.0,0,48,1.0,45.0
1297,74.0,48,46,0.0,60.0
1298,60.0,0,46,1.0,45.0
1299,55.0,0,48,1.0,45.0
1300,81.0,48,94,0.0,60.0
1301,62.0,48,48,1.0,47.0
1302,59.0,48,48,1.0,50.0
1303,62.0,48,48,1.0,53.0
1304,53.0,48,48,1.0,56.0
1305,79.0,0,160,0.0,64.0
1306,62.0,48,48,1.0,59.0
1307,81.0,0,46,0.0,72.0
1308,59.0,48,48,1.0,62.0
1309,83.0,48,46,0.0,74.0
1310,62.0,0,48,1.0,65.0
1311,84.0,0,46,0.0,76.0
1312,51.0,48,48,1.0,68.0
1313,86.0,48,46,0.0,78.0
1314,60.0,0,48,1.0,71.0
1315,87.0,0,46,0.0,80.0
1316,55.0,48,48,1.0,74.0
1317,86.0,0,46,0.0,82.0
1318,60.0,48,48,1.0,77.0
1319,89.0,0,46,0.0,84.0
1320,48.0,48,48,1.0,80.0
1321,87.0,0,46,0.0,86.0
1322,60.0,48,48,1.0,83.0
1323,86.0,48,46,0.0,88.0
1324,55.0,0,48,1.0,86.0
1325,84.0,48,46,0.0,90.0
1326,60.0,0,46,1.0,89.0
1327,83.0,48,30,0.0,92.0
1328,43.0,0,32,1.0,92.0
1329,47.0,0,32,1.0,92.0
1330,50.0,0,32,1.0,92.0
1331,55.0,0,32,1.0,92.0
1332,86.0,32,30,0.0,92.0
1333,84.0,32,30,0.0,92.0
1334,83.0,32,30,0.0,92.0
1335,81.0,32,30,0.0,92.0
1336,79.0,32,30,0.0,92.0
1337,77.0,32,30,0.0,92.0
1338,80.0,32,30,0.0,92.0
1339,79.0,32,30,0.0,92.0
1340,77.0,32,30,0.0,92.0
1341,75.0,32,30,0.0,92.0
1342,74.0,32,30,0.0,92.0
1343,63.0,0,32,0.0,92.0
1344,75.0,32,32,0.0,92.0
1345,48.0,0,32,1.0,92.0
1346,55.0,0,32,1.0,92.0
1347,48.0,0,160,1.0,127.0
1348,75.0,0,160,0.0,92.0
1349,50.0,0,46,1.0,92.0
1350,74.0,192,46,0.0,92.0
1351,55.0,0,256,1.0,92.0
1352,63.0,96,256,0.0,92.0
1353,72.0,48,32,0.0,92.0
1354,51.0,0,46,1.0,92.0
1355,50.0,48,30,1.0,92.0
1356,53.0,32,30,1.0,92.0
1357,56.0,32,30,1.0,92.0
1358,62.0,32,30,0.0,92.0
1359,65.0,32,30,0.0,92.0
1360,71.0,32,30,0.0,92.0
1361,62.0,32,30,1.0,92.0
1362,65.0,32,30,1.0,92.0
1363,68.0,32,30,1.0,92.0
1364,71.0,32,30,0.0,92.0
1365,74.0,32,30,0.0,92.0
1366,77.0,32,21,0.0,92.0
1367,65.0,0,32,0.0,92.0
1368,77.0,0,32,0.0,92.0
1369,59.0,0,32,1.0,92.0
1370,50.0,32,32,1.0,92.0
1371,50.0,0,160,1.0,92.0
1372,77.0,0,160,0.0,92.0
1373,75.0,192,46,0.0,92.0
1374,51.0,0,46,1.0,92.0
1375,59.0,0,256,1.0,92.0
1376,65.0,96,256,0.0,92.0
1377,74.0,0,32,0.0,92.0
1378,53.0,48,32,1.0,92.0
1379,51.0,48,30,1.0,92.0
1380,55.0,32,30,1.0,92.0
1381,60.0,32,30,1.0,92.0
1382,63.0,32,30,0.0,92.0
1383,67.0,32,30,0.0,92.0
1384,72.0,32,30,0.0,92.0
1385,63.0,32,30,1.0,92.0
1386,67.0,32,30,1.0,92.0
1387,72.0,32,30,1.0,92.0
1388,75.0,32,30,0.0,92.0
1389,79.0,32,30,0.0,92.0
1390,84.0,32,21,0.0,92.0
1391,85.0,0,32,0.0,92.0
1392,73.0,0,32,0.0,92.0
1393,64.0,32,32,1.0,92.0
1394,67.0,0,32,1.0,92.0
1395,64.0,0,160,1.0,127.0
1396,67.0,0,160,1.0,127.0
1397,73.0,0,192,0.0,127.0
1398,85.0,96,192,0.0,127.0
1399,65.0,192,46,1.0,92.0
1400,68.0,0,46,1.0,92.0
1401,84.0,0,46,0.0,92.0
1402,70.0,0,46,1.0,92.0
1403,67.0,48,46,1.0,92.0
1404,82.0,0,46,0.0,92.0
1405,65.0,0,48,1.0,92.0
1406,68.0,48,48,1.0,92.0
1407,80.0,96,48,0.0,92.0
1408,84.0,48,32,0.0,92.0
1409,65.0,48,48,1.0,92.0
1410,74.0,96,48,0.0,92.0
1411,77.0,48,32,0.0,92.0
1412,67.0,48,48,1.0,92.0
1413,75.0,96,48,0.0,92.0
1414,79.0,48,32,0.0,92.0
1415,55.0,0,48,1.0,92.0
1416,65.0,48,48,1.0,92.0
1417,71.0,96,48,0.0,92.0
1418,74.0,48,32,0.0,92.0
1419,72.0,48,46,0.0,92.0
1420,71.0,48,46,0.0,92.0
1421,63.0,0,160,1.0,92.0
1422,56.0,48,160,1.0,92.0
1423,72.0,48,46,0.0,92.0
1424,71.0,48,46,0.0,92.0
1425,72.0,48,46,0.0,92.0
1426,71.0,48,46,0.0,92.0
1427,72.0,48,32,0.0,92.0
1428,55.0,0,32,1.0,92.0
1429,52.0,0,32,1.0,92.0
1430,61.0,48,32,0.0,92.0
1431,73.0,0,32,0.0,92.0
1432,73.0,0,160,0.0,127.0
1433,55.0,96,160,1.0,127.0
1434,52.0,0,160,1.0,127.0
1435,61.0,0,160,0.0,127.0
1436,56.0,0,46,1.0,92.0
1437,72.0,192,46,0.0,92.0
1438,53.0,0,46,1.0,92.0
1439,70.0,48,32,0.0,92.0
1440,58.0,0,46,1.0,92.0
1441,55.0,0,46,1.0,92.0
1442,56.0,48,48,1.0,92.0
1443,53.0,0,48,1.0,92.0
1444,68.0,48,46,0.0,92.0
1445,70.0,48,46,0.0,92.0
1446,71.0,48,46,0.0,92.0
1447,72.0,48,46,0.0,92.0
1448,53.0,0,48,1.0,92.0
1449,62.0,48,46,0.0,92.0
1450,65.0,48,46,0.0,92.0
1451,68.0,48,46,0.0,92.0
1452,55.0,48,48,1.0,92.0
1453,63.0,48,46,0.0,90.0
1454,67.0,48,46,0.0,88.0
1455,60.0,48,46,0.0,86.0
1456,43.0,48,48,1.0,84.0
1457,62.0,48,46,0.0,82.0
1458,65.0,48,46,0.0,80.0
1459,59.0,48,46,0.0,78.0
1460,60.0,64,42,0.0,75.0
1461,61.0,64,42,0.0,75.0
1462,48.0,48,192,1.0,75.0
1463,62.0,64,42,0.0,75.0
1464,63.0,64,42,0.0,75.0
1465,64.0,64,42,0.0,75.0
1466,65.0,64,42,0.0,75.0
1467,66.0,64,42,0.0,75.0
1468,67.0,64,42,0.0,75.0
1469,68.0,64,42,0.0,75.0
1470,69.0,64,42,0.0,75.0
1471,70.0,64,42,0.0,75.0
1472,71.0,64,62,0.0,75.0
1473,72.0,64,42,0.0,75.0
1474,72.0,64,42,0.0,75.0
1475,72.0,64,42,0.0,75.0
1476,72.0,64,42,0.0,75.0
1477,72.0,64,42,0.0,75.0
1478,72.0,64,42,0.0,75.0
1479,72.0,64,42,0.0,75.0
1480,72.0,64,42,0.0,75.0
1481,71.0,64,64,0.0,75.0
1482,72.0,64,42,0.0,75.0
1483,72.0,64,42,0.0,75.0
1484,72.0,64,64,0.0,75.0
1485,73.0,64,42,0.0,75.0
1486,73.0,64,42,0.0,75.0
1487,73.0,64,42,0.0,75.0
1488,73.0,64,42,0.0,75.0
1489,73.0,64,42,0.0,75.0
1490,73.0,64,42,0.0,75.0
1491,74.0,64,42,0.0,75.0
1492,74.0,64,42,0.0,75.0
1493,74.0,64,42,0.0,75.0
1494,74.0,64,42,0.0,75.0
1495,74.0,64,42,0.0,75.0
1496,74.0,64,46,0.0,75.0
1497,75.0,48,46,0.0,75.0
1498,77.0,48,46,0.0,75.0
1499,75.0,48,46,0.0,75.0
1500,73.0,48,46,0.0,75.0
1501,72.0,48,46,0.0,75.0
1502,75.0,48,30,0.0,75.0
1503,73.0,32,30,0.0,75.0
1504,70.0,32,30,0.0,75.0
1505,68.0,32,48,0.0,60.0
1506,60.0,0,96,1.0,45.0
1507,56.0,0,96,1.0,45.0
1508,63.0,96,96,1.0,45.0
1509,68.0,96,48,0.0,60.0
1510,56.0,0,96,1.0,45.0
1511,60.0,0,96,1.0,45.0
1512,63.0,96,96,1.0,45.0
1513,58.0,0,96,1.0,45.0
1514,61.0,0,96,1.0,45.0
1515,68.0,96,96,0.0,60.0
1516,63.0,0,96,1.0,45.0
1517,67.0,96,96,0.0,60.0
1518,58.0,0,96,1.0,45.0
1519,61.0,0,96,1.0,45.0
1520,65.0,96,96,0.0,60.0
1521,63.0,96,96,1.0,45.0
1522,67.0,0,96,0.0,60.0
1523,56.0,96,96,1.0,45.0
1524,68.0,48,48,0.0,60.0
1525,60.0,0,96,1.0,45.0
1526,68.0,0,48,0.0,60.0
1527,68.0,48,16,0.0,60.0
1528,63.0,48,96,1.0,45.0
1529,68.0,48,0,0.0,60.0
1530,56.0,0,96,1.0,45.0
1531,60.0,0,96,1.0,45.0
1532,72.0,48,46,0.0,60.0
1533,63.0,96,96,1.0,45.0
1534,55.0,48,96,1.0,45.0
1535,58.0,0,96,1.0,45.0
1536,63.0,96,96,1.0,45.0
1537,58.0,96,96,1.0,45.0
1538,55.0,0,96,1.0,45.0
1539,75.0,0,384,0.0,60.0
1540,63.0,96,96,1.0,45.0
1541,73.0,0,68,0.0,60.0
1542,56.0,96,96,1.0,45.0
1543,53.0,0,96,1.0,45.0
1544,61.0,96,96,1.0,45.0
1545,58.0,0,96,1.0,45.0
1546,55.0,96,96,1.0,45.0
1547,89.0,0,192,0.0,60.0
1548,87.0,0,48,0.0,60.0
1549,85.0,48,48,0.0,60.0
1550,63.0,96,96,1.0,45.0
1551,84.0,0,32,0.0,60.0
1552,56.0,48,96,1.0,45.0
1553,60.0,96,96,1.0,45.0
1554,87.0,0,160,0.0,60.0
1555,63.0,96,96,1.0,45.0
1556,85.0,0,46,0.0,60.0
1557,84.0,48,46,0.0,60.0
1558,68.0,96,94,1.0,45.0
1559,82.0,0,46,0.0,60.0
1560,61.0,0,94,1.0,45.0
1561,84.0,48,46,0.0,60.0
1562,85.0,48,46,0.0,60.0
1563,65.0,0,94,1.0,45.0
1564,84.0,48,46,0.0,60.0
1565,87.0,0,46,0.0,60.0
1566,70.0,48,94,1.0,45.0
1567,85.0,48,46,0.0,60.0
1568,84.0,48,46,0.0,60.0
1569,82.0,48,46,0.0,60.0
1570,73.0,0,94,1.0,45.0
1571,80.0,0,160,0.0,60.0
1572,72.0,96,94,1.0,45.0
1573,63.0,48,256,1.0,45.0
1574,79.0,0,94,0.0,60.0
1575,70.0,96,94,1.0,45.0
1576,63.0,96,32,0.0,60.0
1577,63.0,96,64,0.0,60.0
1578,56.0,0,96,1.0,45.0
1579,60.0,0,96,1.0,45.0
1580,68.0,64,42,0.0,60.0
1581,68.0,32,42,0.0,60.0
1582,63.0,32,96,1.0,45.0
1583,68.0,64,42,0.0,60.0
1584,56.0,0,96,1.0,45.0
1585,60.0,0,96,1.0,45.0
1586,68.0,64,42,0.0,60.0
1587,68.0,32,42,0.0,60.0
1588,63.0,32,96,1.0,45.0
1589,68.0,64,64,0.0,60.0
1590,61.0,0,96,1.0,45.0
1591,58.0,0,96,1.0,45.0
1592,67.0,64,62,0.0,60.0
1593,65.0,32,42,0.0,60.0
1594,63.0,32,96,1.0,45.0
1595,63.0,0,42,0.0,60.0
1596,58.0,64,96,1.0,45.0
1597,61.0,0,96,1.0,45.0
1598,65.0,64,42,0.0,60.0
1599,67.0,32,42,0.0,60.0
1600,63.0,32,96,1.0,45.0
1601,68.0,64,62,0.0,60.0
1602,60.0,0,96,1.0,45.0
1603,56.0,0,96,1.0,45.0
1604,70.0,64,62,0.0,60.0
1605,71.0,32,62,0.0,60.0
1606,63.0,32,96,1.0,45.0
1607,72.0,0,42,0.0,60.0
1608,56.0,64,96,1.0,45.0
1609,60.0,0,96,1.0,45.0
1610,73.0,64,42,0.0,60.0
1611,74.0,32,42,0.0,60.0
1612,63.0,32,96,1.0,45.0
1613,77.0,0,32,0.0,60.0
1614,58.0,0,96,1.0,45.0
1615,55.0,64,96,1.0,45.0
1616,63.0,0,96,1.0,75.0
1617,75.0,96,160,0.0,92.0
1618,58.0,0,96,1.0,75.0
1619,55.0,96,96,1.0,75.0
1620,75.0,96,96,0.0,60.0
1621,63.0,0,96,1.0,75.0
1622,73.0,0,32,0.0,60.0
1623,53.0,96,96,1.0,45.0
1624,56.0,0,96,1.0,45.0
1625,61.0,0,96,1.0,45.0
1626,89.0,96,160,0.0,60.0
1627,58.0,96,96,1.0,45.0
1628,55.0,0,96,1.0,45.0
1629,87.0,96,46,0.0,60.0
1630,63.0,0,94,1.0,45.0
1631,85.0,48,46,0.0,60.0
1632,86.0,48,46,0.0,60.0
1633,56.0,0,96,1.0,45.0
1634,87.0,48,46,0.0,60.0
1635,86.0,48,46,0.0,60.0
1636,63.0,0,96,1.0,45.0
1637,87.0,0,46,0.0,60.0
1638,86.0,48,46,0.0,60.0
1639,55.0,48,96,1.0,45.0
1640,87.0,0,46,0.0,60.0
1641,84.0,48,336,0.0,60.0
1642,86.0,48,46,0.0,60.0
1643,63.0,48,96,1.0,45.0
1644,54.0,0,94,1.0,45.0
1645,89.0,48,96,0.0,60.0
1646,57.0,0,96,1.0,45.0
1647,87.0,96,96,0.0,60.0
1648,86.0,96,96,0.0,60.0
1649,42.0,0,96,1.0,45.0
1650,54.0,96,94,1.0,45.0
1651,84.0,0,96,0.0,60.0
1652,43.0,0,48,1.0,45.0
1653,55.0,48,48,1.0,45.0
1654,47.0,48,48,1.0,45.0
1655,83.0,96,160,0.0,60.0
1656,55.0,48,48,1.0,45.0
1657,50.0,48,48,1.0,45.0
1658,55.0,48,48,1.0,45.0
1659,47.0,48,48,1.0,45.0
1660,55.0,48,48,1.0,45.0
1661,43.0,48,48,1.0,45.0
1662,55.0,48,48,1.0,45.0
1663,79.0,0,32,0.0,60.0
1664,47.0,48,48,1.0,45.0
1665,55.0,48,48,1.0,45.0
1666,79.0,48,32,0.0,60.0
1667,50.0,0,48,1.0,45.0
1668,55.0,48,48,1.0,45.0
1669,79.0,0,32,0.0,60.0
1670,47.0,48,48,1.0,45.0
1671,55.0,48,46,1.0,45.0
1672,43.0,48,48,1.0,45.0
1673,55.0,48,48,1.0,45.0
1674,79.0,0,142,0.0,60.0
1675,48.0,48,48,1.0,45.0
1676,75.0,48,46,0.0,60.0
1677,55.0,0,48,1.0,45.0
1678,51.0,0,48,1.0,45.0
1679,55.0,48,48,1.0,45.0
1680,48.0,48,48,1.0,45.0
1681,72.0,48,160,0.0,60.0
1682,55.0,48,48,1.0,45.0
1683,43.0,48,48,1.0,45.0
1684,55.0,48,48,1.0,45.0
1685,48.0,48,48,1.0,45.0
1686,87.0,0,94,0.0,60.0
1687,55.0,48,48,1.0,45.0
1688,51.0,0,48,1.0,45.0
1689,86.0,48,94,0.0,60.0
1690,55.0,48,48,1.0,45.0
1691,48.0,0,48,1.0,45.0
1692,55.0,48,46,1.0,45.0
1693,84.0,48,94,0.0,60.0
1694,43.0,48,48,1.0,45.0
1695,55.0,48,48,1.0,45.0
1696,83.0,0,142,0.0,60.0
1697,47.0,48,48,1.0,45.0
1698,84.0,48,46,0.0,60.0
1699,55.0,0,48,1.0,45.0
1700,50.0,0,48,1.0,45.0
1701,55.0,48,48,1.0,45.0
1702,47.0,48,48,1.0,45.0
1703,86.0,48,160,0.0,60.0
1704,55.0,48,48,1.0,45.0
1705,43.0,48,48,1.0,45.0
1706,79.0,0,48,0.0,60.0
1707,55.0,48,48,1.0,45.0
1708,78.0,48,48,0.0,60.0
1709,47.0,0,48,1.0,45.0
1710,55.0,0,48,1.0,45.0
1711,79.0,48,48,0.0,60.0
1712,80.0,0,48,0.0,60.0
1713,50.0,48,48,1.0,45.0
1714,55.0,48,48,1.0,45.0
1715,79.0,0,48,0.0,60.0
1716,47.0,48,48,1.0,45.0
1717,77.0,0,48,0.0,60.0
1718,55.0,48,46,1.0,45.0
1719,74.0,0,48,0.0,60.0
1720,43.0,0,48,1.0,45.0
1721,75.0,48,48,0.0,60.0
1722,77.0,0,48,0.0,60.0
1723,55.0,48,48,1.0,45.0
1724,48.0,48,48,1.0,45.0
1725,78.0,0,48,0.0,60.0
1726,55.0,48,48,1.0,45.0
1727,79.0,0,48,0.0,60.0
1728,72.0,0,48,0.0,60.0
1729,51.0,48,48,1.0,45.0
1730,55.0,48,48,1.0,45.0
1731,48.0,48,48,1.0,45.0
1732,55.0,48,48,1.0,45.0
1733,43.0,48,48,1.0,45.0
1734,55.0,48,48,1.0,45.0
1735,75.0,0,48,0.0,60.0
1736,48.0,48,48,1.0,45.0
1737,74.0,0,48,0.0,60.0
1738,55.0,48,48,1.0,45.0
1739,51.0,0,48,1.0,45.0
1740,77.0,48,48,0.0,60.0
1741,75.0,48,48,0.0,60.0
1742,55.0,0,48,1.0,45.0
1743,74.0,48,48,0.0,60.0
1744,48.0,0,48,1.0,45.0
1745,55.0,0,46,1.0,45.0
1746,72.0,48,48,0.0,60.0
1747,43.0,48,48,1.0,45.0
1748,55.0,48,48,1.0,45.0
1749,71.0,0,144,0.0,60.0
1750,50.0,48,48,1.0,45.0
1751,55.0,0,48,1.0,45.0
1752,72.0,48,48,0.0,60.0
1753,74.0,0,48,0.0,60.0
1754,43.0,48,48,1.0,45.0
1755,55.0,48,48,1.0,45.0
1756,47.0,48,48,1.0,45.0
1757,55.0,48,48,1.0,45.0
1758,43.0,48,48,1.0,45.0
1759,55.0,48,48,1.0,45.0
1760,63.0,48,48,0.0,60.0
1761,48.0,0,48,1.0,45.0
1762,62.0,48,48,0.0,60.0
1763,55.0,0,48,1.0,45.0
1764,65.0,0,48,0.0,60.0
1765,43.0,48,48,1.0,45.0
1766,55.0,48,48,1.0,45.0
1767,63.0,0,48,0.0,60.0
1768,51.0,48,48,1.0,45.0
1769,62.0,0,48,0.0,60.0
1770,55.0,48,46,1.0,45.0
1771,60.0,0,46,0.0,60.0
1772,54.0,32,30,1.0,45.0
1773,55.0,32,30,1.0,45.0
1774,56.0,32,30,1.0,45.0
1775,57.0,32,30,1.0,45.0
1776,43.0,48,160,1.0,45.0
1777,58.0,32,30,1.0,45.0
1778,58.0,32,30,1.0,45.0
1779,60.0,32,30,1.0,45.0
1780,61.0,32,30,1.0,45.0
1781,62.0,32,30,0.0,72.0
1782,63.0,32,30,0.0,73.0
1783,64.0,32,30,0.0,74.0
1784,65.0,32,30,0.0,75.0
1785,66.0,32,30,0.0,76.0
1786,67.0,32,30,0.0,77.0
1787,68.0,32,30,0.0,78.0
1788,69.0,32,30,0.0,79.0
1789,70.0,32,30,0.0,80.0
1790,71.0,32,30,0.0,81.0
1791,72.0,32,30,0.0,82.0
1792,73.0,32,30,0.0,83.0
1793,74.0,32,30,0.0,84.0
1794,75.0,32,30,0.0,85.0
1795,76.0,32,30,0.0,86.0
1796,77.0,32,30,0.0,87.0
1797,78.0,32,30,0.0,88.0
1798,79.0,32,30,0.0,89.0
1799,80.0,32,30,0.0,90.0
1800,81.0,32,30,0.0,92.0
1801,82.0,32,30,0.0,94.0
1802,83.0,32,30,0.0,96.0
1803,84.0,32,30,0.0,98.0
1804,85.0,32,30,0.0,100.0
1805,86.0,32,30,0.0,102.0
1806,87.0,32,30,0.0,104.0
1807,88.0,32,30,0.0,106.0
1808,90.0,32,42,0.0,108.0
1809,88.0,64,42,0.0,108.0
1810,87.0,64,42,0.0,108.0
1811,86.0,64,42,0.0,108.0
1812,85.0,64,42,0.0,108.0
1813,84.0,64,42,0.0,108.0
1814,83.0,64,42,0.0,108.0
1815,82.0,64,42,0.0,108.0
1816,81.0,64,42,0.0,108.0
1817,80.0,64,42,0.0,108.0
1818,79.0,64,42,0.0,108.0
1819,78.0,64,42,0.0,108.0
1820,77.0,64,42,0.0,108.0
1821,76.0,64,42,0.0,108.0
1822,75.0,64,42,0.0,108.0
1823,74.0,64,42,0.0,108.0
1824,73.0,64,42,0.0,108.0
1825,72.0,64,42,0.0,108.0
1826,71.0,64,42,0.0,108.0
1827,70.0,64,42,0.0,108.0
1828,69.0,64,42,0.0,108.0
1829,67.0,64,42,0.0,108.0
1830,69.0,64,42,0.0,108.0
1831,71.0,64,42,0.0,108.0
1832,60.0,0,94,1.0,45.0
1833,63.0,0,94,1.0,45.0
1834,67.0,96,94,1.0,45.0
1835,72.0,0,0,0.0,60.0
1836,60.0,96,94,1.0,45.0
1837,63.0,0,94,1.0,45.0
1838,67.0,96,94,1.0,45.0
1839,65.0,96,96,1.0,45.0
1840,62.0,0,96,1.0,45.0
1841,72.0,0,96,0.0,60.0
1842,67.0,96,96,1.0,45.0
1843,71.0,0,96,0.0,60.0
1844,69.0,96,96,0.0,60.0
1845,62.0,0,96,1.0,45.0
1846,65.0,0,96,1.0,45.0
1847,71.0,96,96,0.0,60.0
1848,67.0,0,96,1.0,45.0
1849,72.0,48,48,0.0,60.0
1850,64.0,96,96,1.0,45.0
1851,60.0,0,96,1.0,45.0
1852,72.0,48,48,0.0,60.0
1853,72.0,48,16,0.0,60.0
1854,67.0,0,96,1.0,45.0
1855,64.0,0,96,1.0,45.0
1856,60.0,0,96,1.0,45.0
1857,72.0,48,144,0.0,60.0
1858,67.0,96,96,1.0,45.0
1859,76.0,48,48,0.0,60.0
1860,62.0,48,96,1.0,45.0
1861,59.0,0,96,1.0,45.0
1862,67.0,96,96,1.0,45.0
1863,62.0,96,96,1.0,45.0
1864,59.0,0,96,1.0,45.0
1865,79.0,0,336,0.0,60.0
1866,67.0,96,96,1.0,45.0
1867,60.0,0,96,1.0,45.0
1868,77.0,96,96,0.0,60.0
1869,57.0,0,96,1.0,45.0
1870,65.0,0,96,1.0,45.0
1871,57.0,96,96,1.0,45.0
1872,60.0,0,96,1.0,45.0
1873,81.0,96,192,0.0,60.0
1874,79.0,0,48,0.0,60.0
1875,67.0,96,96,1.0,45.0
1876,77.0,48,48,0.0,60.0
1877,76.0,0,96,0.0,60.0
1878,60.0,48,96,1.0,45.0
1879,64.0,0,32,1.0,45.0
1880,55.0,96,96,1.0,45.0
1881,52.0,0,96,1.0,45.0
1882,79.0,96,192,0.0,60.0
1883,77.0,0,48,0.0,60.0
1884,76.0,48,48,0.0,60.0
1885,60.0,96,96,1.0,45.0
1886,74.0,48,48,0.0,60.0
1887,53.0,0,96,1.0,45.0
1888,76.0,48,48,0.0,60.0
1889,77.0,48,48,0.0,60.0
1890,57.0,0,96,1.0,45.0
1891,76.0,48,48,0.0,60.0
1892,79.0,48,48,0.0,60.0
1893,62.0,0,96,1.0,45.0
1894,77.0,48,48,0.0,60.0
1895,76.0,0,48,0.0,60.0
1896,65.0,48,94,1.0,45.0
1897,74.0,48,48,0.0,60.0
1898,64.0,96,94,1.0,45.0
1899,72.0,48,192,0.0,60.0
1900,71.0,96,32,0.0,60.0
1901,62.0,0,32,1.0,45.0
1902,55.0,0,256,1.0,45.0
1903,67.0,96,32,0.0,60.0
1904,67.0,0,64,0.0,60.0
1905,64.0,96,94,1.0,45.0
1906,60.0,0,94,1.0,45.0
1907,72.0,64,62,0.0,60.0
1908,72.0,32,42,0.0,60.0
1909,67.0,32,94,1.0,45.0
1910,72.0,0,42,0.0,60.0
1911,64.0,0,94,1.0,45.0
1912,60.0,64,94,1.0,45.0
1913,72.0,64,42,0.0,60.0
1914,72.0,32,42,0.0,60.0
1915,67.0,32,94,1.0,45.0
1916,72.0,64,64,0.0,60.0
1917,65.0,0,96,1.0,45.0
1918,62.0,0,96,1.0,45.0
1919,71.0,64,62,0.0,60.0
1920,69.0,32,62,0.0,60.0
1921,67.0,32,96,1.0,45.0
1922,67.0,64,42,0.0,60.0
1923,65.0,0,96,1.0,45.0
1924,62.0,0,96,1.0,45.0
1925,69.0,64,42,0.0,60.0
1926,71.0,32,42,0.0,60.0
1927,67.0,32,96,1.0,45.0
1928,72.0,48,32,0.0,60.0
1929,64.0,64,96,1.0,45.0
1930,60.0,0,96,1.0,45.0
1931,73.0,0,32,0.0,60.0
1932,74.0,48,32,0.0,60.0
1933,67.0,48,96,1.0,45.0
1934,75.0,48,32,0.0,60.0
1935,76.0,48,32,0.0,60.0
1936,64.0,0,96,1.0,45.0
1937,60.0,0,96,1.0,45.0
1938,77.0,0,32,0.0,60.0
1939,78.0,48,32,0.0,60.0
1940,67.0,48,96,1.0,45.0
1941,81.0,0,68,0.0,60.0
1942,59.0,48,96,1.0,45.0
1943,62.0,0,96,1.0,45.0
1944,67.0,0,96,1.0,75.0
1945,79.0,96,160,0.0,92.0
1946,62.0,0,96,1.0,75.0
1947,59.0,96,96,1.0,75.0
1948,79.0,96,94,0.0,45.0
1949,67.0,0,96,1.0,30.0
1950,79.0,24,22,0.0,45.0
1951,81.0,24,22,0.0,45.0
1952,79.0,24,22,0.0,45.0
1953,77.0,96,94,0.0,45.0
1954,60.0,0,96,1.0,30.0
1955,57.0,0,96,1.0,30.0
1956,76.0,24,22,0.0,45.0
1957,77.0,24,22,0.0,45.0
1958,65.0,0,96,1.0,30.0
1959,81.0,24,142,0.0,45.0
1960,62.0,48,96,1.0,30.0
1961,59.0,0,96,1.0,30.0
1962,79.0,96,46,0.0,45.0
1963,77.0,48,46,0.0,45.0
1964,65.0,0,96,1.0,30.0
1965,76.0,0,30,0.0,45.0
1966,79.0,32,30,0.0,45.0
1967,83.0,32,30,0.0,45.0
1968,64.0,0,96,1.0,30.0
1969,60.0,48,96,1.0,30.0
1970,84.0,32,30,0.0,45.0
1971,79.0,32,30,0.0,45.0
1972,67.0,0,94,1.0,30.0
1973,76.0,32,30,0.0,45.0
1974,74.0,32,30,0.0,45.0
1975,77.0,32,30,0.0,45.0
1976,80.0,32,30,0.0,45.0
1977,53.0,0,94,1.0,30.0
1978,81.0,0,30,0.0,45.0
1979,77.0,32,30,0.0,45.0
1980,65.0,32,94,1.0,30.0
1981,74.0,32,30,0.0,45.0
1982,55.0,0,94,1.0,30.0
1983,72.0,48,46,0.0,45.0
1984,72.0,0,46,0.0,45.0
1985,72.0,48,16,0.0,45.0
1986,64.0,48,94,1.0,30.0
1987,55.0,0,94,1.0,30.0
1988,76.0,48,94,0.0,45.0
1989,65.0,96,94,1.0,30.0
1990,74.0,0,94,0.0,45.0
1991,48.0,0,96,1.0,60.0
1992,55.0,96,32,1.0,60.0
1993,72.0,96,160,0.0,75.0
1994,64.0,0,160,0.0,75.0
1995,55.0,96,32,1.0,60.0
1996,55.0,96,32,1.0,60.0
1997,52.0,0,96,1.0,60.0
1998,55.0,96,32,1.0,60.0
1999,67.0,0,32,0.0,75.0
2000,55.0,0,32,1.0,60.0
2001,72.0,96,32,0.0,75.0
2002,55.0,0,32,1.0,60.0
2003,76.0,96,32,0.0,75.0
2004,60.0,96,336,1.0,60.0
2005,50.0,96,96,1.0,60.0
2006,55.0,96,32,1.0,60.0
2007,77.0,0,144,0.0,75.0
2008,74.0,48,48,0.0,75.0
2009,55.0,48,32,1.0,60.0
2010,55.0,96,32,1.0,60.0
2011,59.0,0,336,1.0,60.0
2012,71.0,0,160,0.0,75.0
2013,53.0,96,96,1.0,60.0
2014,67.0,96,32,0.0,75.0
2015,55.0,0,32,1.0,60.0
2016,55.0,0,32,1.0,60.0
2017,71.0,96,32,0.0,75.0
2018,74.0,0,32,0.0,75.0
2019,55.0,96,32,1.0,60.0
2020,62.0,0,336,1.0,60.0
2021,52.0,96,96,1.0,60.0
2022,55.0,96,32,1.0,60.0
2023,76.0,0,144,0.0,75.0
2024,72.0,48,48,0.0,75.0
2025,55.0,0,32,1.0,60.0
2026,55.0,96,32,1.0,60.0
2027,60.0,0,336,1.0,60.0
2028,67.0,48,160,0.0,75.0
2029,52.0,0,96,1.0,60.0
2030,55.0,96,32,1.0,60.0
2031,67.0,0,48,0.0,75.0
2032,69.0,48,48,0.0,75.0
2033,55.0,48,32,1.0,60.0
2034,71.0,0,48,0.0,75.0
2035,72.0,48,48,0.0,75.0
2036,55.0,48,32,1.0,60.0
2037,48.0,96,336,1.0,60.0
2038,74.0,0,48,0.0,75.0
2039,76.0,48,46,0.0,75.0
2040,79.0,48,48,0.0,75.0
2041,77.0,48,46,0.0,75.0
2042,53.0,0,96,1.0,60.0
2043,55.0,0,32,1.0,60.0
2044,76.0,48,48,0.0,75.0
2045,74.0,48,46,0.0,75.0
2046,55.0,0,32,1.0,60.0
2047,72.0,48,96,0.0,75.0
2048,55.0,96,32,1.0,60.0
2049,50.0,0,336,1.0,60.0
2050,71.0,0,94,0.0,75.0
2051,53.0,0,96,1.0,60.0
2052,55.0,96,32,1.0,60.0
2053,79.0,0,48,0.0,75.0
2054,81.0,48,48,0.0,75.0
2055,55.0,0,32,1.0,60.0
2056,83.0,48,48,0.0,75.0
2057,84.0,48,48,0.0,75.0
2058,55.0,48,32,1.0,60.0
2059,47.0,96,336,1.0,60.0
2060,86.0,0,48,0.0,75.0
2061,87.0,48,48,0.0,75.0
2062,88.0,0,48,0.0,75.0
2063,87.0,48,48,0.0,75.0
2064,89.0,48,48,0.0,75.0
2065,48.0,48,160,1.0,60.0
2066,52.0,0,160,1.0,60.0
2067,88.0,48,48,0.0,75.0
2068,86.0,48,48,0.0,75.0
2069,84.0,48,48,0.0,75.0
2070,83.0,48,48,0.0,75.0
2071,81.0,48,48,0.0,75.0
2072,79.0,48,32,0.0,75.0
2073,84.0,48,32,0.0,75.0
2074,83.0,48,32,0.0,74.0
2075,81.0,48,32,0.0,73.0
2076,80.0,48,32,0.0,72.0
2077,79.0,48,32,0.0,71.0
2078,78.0,48,32,0.0,70.0
2079,77.0,48,32,0.0,69.0
2080,76.0,48,32,0.0,68.0
2081,81.0,48,32,0.0,67.0
2082,79.0,48,32,0.0,66.0
2083,78.0,48,32,0.0,65.0
2084,77.0,48,32,0.0,64.0
2085,76.0,48,32,0.0,63.0
2086,75.0,48,32,0.0,62.0
2087,74.0,48,32,0.0,61.0
2088,72.0,48,48,0.0,60.0
2089,64.0,0,94,1.0,45.0
2090,60.0,0,94,1.0,45.0
2091,67.0,96,94,1.0,45.0
2092,72.0,96,48,0.0,60.0
2093,60.0,0,94,1.0,45.0
2094,64.0,0,94,1.0,45.0
2095,67.0,96,94,1.0,45.0
2096,72.0,0,94,0.0,60.0
2097,71.0,96,94,0.0,60.0
2098,70.0,96,94,0.0,60.0
2099,71.0,96,32,0.0,60.0
2100,65.0,96,336,1.0,45.0
2101,62.0,0,336,1.0,45.0
2102,67.0,0,336,1.0,45.0
2103,65.0,0,94,1.0,45.0
2104,62.0,96,94,1.0,45.0
2105,71.0,0,120,0.0,60.0
2106,68.0,96,94,1.0,45.0
2107,71.0,96,48,0.0,60.0
2108,65.0,0,94,1.0,45.0
2109,62.0,0,94,1.0,45.0
2110,68.0,96,94,1.0,45.0
2111,71.0,96,24,0.0,60.0
2112,74.0,24,70,0.0,60.0
2113,72.0,72,94,0.0,60.0
2114,71.0,96,94,0.0,60.0
2115,67.0,0,336,1.0,45.0
2116,63.0,0,336,1.0,45.0
2117,72.0,96,94,0.0,60.0
2118,66.0,96,94,1.0,30.0
2119,72.0,0,120,0.0,45.0
2120,68.0,96,94,1.0,30.0
2121,72.0,96,48,0.0,45.0
2122,66.0,0,94,1.0,30.0
2123,68.0,96,94,1.0,30.0
2124,75.0,0,94,0.0,45.0
2125,65.0,96,94,1.0,30.0
2126,68.0,0,94,1.0,30.0
2127,73.0,96,94,0.0,45.0
2128,65.0,96,94,1.0,30.0
2129,72.0,0,94,0.0,45.0
2130,73.0,0,94,0.0,45.0
2131,68.0,96,94,1.0,30.0
2132,60.0,96,94,1.0,30.0
2133,78.0,0,120,0.0,45.0
2134,68.0,96,94,1.0,30.0
2135,78.0,96,48,0.0,45.0
2136,60.0,0,94,1.0,30.0
2137,68.0,96,94,1.0,30.0
2138,78.0,96,94,0.0,45.0
2139,61.0,0,94,1.0,30.0
2140,68.0,0,94,1.0,30.0
2141,77.0,96,94,0.0,45.0
2142,61.0,0,94,1.0,30.0
2143,75.0,96,94,0.0,45.0
2144,73.0,96,94,0.0,45.0
2145,68.0,0,94,1.0,30.0
2146,54.0,0,94,1.0,30.0
2147,72.0,0,120,0.0,45.0
2148,68.0,0,120,0.0,45.0
2149,63.0,96,160,1.0,30.0
2150,56.0,96,94,1.0,30.0
2151,72.0,0,48,0.0,45.0
2152,68.0,0,48,0.0,45.0
2153,54.0,0,94,1.0,30.0
2154,63.0,96,160,1.0,30.0
2155,56.0,96,94,1.0,30.0
2156,75.0,96,94,0.0,45.0
2157,53.0,0,94,1.0,30.0
2158,73.0,0,94,0.0,45.0
2159,56.0,96,94,1.0,30.0
2160,53.0,0,94,1.0,30.0
2161,72.0,96,94,0.0,45.0
2162,68.0,0,336,0.0,45.0
2163,61.0,0,336,1.0,30.0
2164,56.0,96,94,1.0,30.0
2165,73.0,0,94,0.0,45.0
2166,48.0,0,94,1.0,30.0
2167,68.0,0,120,0.0,45.0
2168,75.0,96,120,0.0,45.0
2169,78.0,0,120,0.0,45.0
2170,66.0,0,120,0.0,45.0
2171,60.0,0,160,1.0,30.0
2172,56.0,96,94,1.0,30.0
2173,48.0,0,94,1.0,30.0
2174,78.0,0,160,0.0,45.0
2175,60.0,96,160,1.0,30.0
2176,66.0,0,160,0.0,45.0
2177,75.0,0,160,0.0,45.0
2178,68.0,0,160,0.0,45.0
2179,56.0,96,94,1.0,30.0
2180,49.0,96,48,1.0,30.0
2181,53.0,48,48,1.0,30.0
2182,56.0,48,48,1.0,30.0
2183,59.0,48,48,1.0,30.0
2184,65.0,48,48,0.0,45.0
2185,68.0,48,48,0.0,45.0
2186,73.0,48,48,0.0,45.0
2187,77.0,48,48,0.0,45.0
2188,54.0,48,48,1.0,30.0
2189,56.0,48,48,1.0,30.0
2190,59.0,48,48,1.0,30.0
2191,63.0,48,48,1.0,30.0
2192,63.0,48,48,0.0,45.0
2193,68.0,48,48,0.0,45.0
2194,72.0,48,48,0.0,45.0
2195,75.0,48,48,0.0,45.0
2196,53.0,48,48,1.0,30.0
2197,56.0,48,48,1.0,30.0
2198,61.0,48,48,1.0,30.0
2199,65.0,48,48,1.0,30.0
2200,68.0,48,48,0.0,45.0
2201,73.0,48,48,0.0,45.0
2202,77.0,48,48,0.0,45.0
2203,80.0,48,48,0.0,45.0
2204,51.0,48,48,1.0,30.0
2205,56.0,48,48,1.0,30.0
2206,60.0,48,48,1.0,30.0
2207,63.0,48,48,1.0,30.0
2208,66.0,48,48,0.0,45.0
2209,68.0,48,48,0.0,45.0
2210,72.0,48,48,0.0,45.0
2211,78.0,48,48,0.0,45.0
2212,49.0,48,48,1.0,30.0
2213,53.0,48,48,1.0,30.0
2214,56.0,48,48,1.0,30.0
2215,61.0,48,48,1.0,30.0
2216,65.0,48,48,0.0,45.0
2217,68.0,48,48,0.0,45.0
2218,73.0,48,48,0.0,45.0
2219,77.0,48,48,0.0,45.0
2220,48.0,48,48,1.0,30.0
2221,53.0,48,48,1.0,30.0
2222,56.0,48,48,1.0,30.0
2223,60.0,48,48,1.0,30.0
2224,65.0,48,48,0.0,45.0
2225,68.0,48,48,0.0,45.0
2226,72.0,48,48,0.0,45.0
2227,77.0,48,48,0.0,45.0
2228,47.0,48,48,1.0,30.0
2229,53.0,48,48,1.0,30.0
2230,56.0,48,48,1.0,30.0
2231,59.0,48,48,1.0,30.0
2232,65.0,48,48,0.0,45.0
2233,68.0,48,48,0.0,45.0
2234,74.0,48,48,0.0,45.0
2235,77.0,48,48,0.0,45.0
2236,48.0,48,48,1.0,30.0
2237,51.0,48,48,1.0,30.0
2238,55.0,48,48,1.0,30.0
2239,60.0,48,48,1.0,30.0
2240,63.0,48,48,0.0,45.0
2241,67.0,48,48,0.0,45.0
2242,72.0,48,48,0.0,45.0
2243,75.0,48,48,0.0,45.0
2244,41.0,48,48,1.0,30.0
2245,44.0,48,48,1.0,33.0
2246,48.0,48,48,1.0,36.0
2247,53.0,48,48,1.0,40.0
2248,62.0,48,48,0.0,56.0
2249,68.0,48,48,0.0,59.0
2250,72.0,48,48,0.0,62.0
2251,74.0,48,48,0.0,65.0
2252,43.0,48,48,1.0,60.0
2253,46.0,48,48,1.0,64.0
2254,48.0,48,48,1.0,68.0
2255,55.0,48,48,1.0,72.0
2256,64.0,48,48,0.0,80.0
2257,70.0,48,48,0.0,83.0
2258,72.0,48,48,0.0,86.0
2259,76.0,48,48,0.0,89.0
2260,44.0,48,48,1.0,92.0
2261,48.0,48,48,1.0,92.0
2262,53.0,48,48,1.0,92.0
2263,56.0,48,48,1.0,92.0
2264,65.0,48,48,0.0,92.0
2265,68.0,48,48,0.0,92.0
2266,72.0,48,48,0.0,92.0
2267,77.0,48,48,0.0,92.0
2268,45.0,48,48,1.0,92.0
2269,48.0,48,48,1.0,92.0
2270,51.0,48,48,1.0,92.0
2271,57.0,48,48,1.0,92.0
2272,66.0,48,48,0.0,92.0
2273,72.0,48,48,0.0,92.0
2274,75.0,48,48,0.0,92.0
2275,78.0,48,48,0.0,92.0
2276,43.0,0,96,1.0,127.0
2277,55.0,96,32,1.0,45.0
2278,55.0,96,32,1.0,45.0
2279,67.0,0,288,0.0,127.0
2280,72.0,0,288,0.0,127.0
2281,79.0,48,288,0.0,127.0
2282,76.0,0,288,0.0,127.0
2283,55.0,0,32,1.0,45.0
2284,77.0,0,96,0.0,60.0
2285,74.0,96,96,0.0,60.0
2286,76.0,96,32,0.0,60.0
2287,72.0,0,32,0.0,60.0
2288,55.0,0,32,1.0,45.0
2289,76.0,96,32,0.0,60.0
2290,55.0,0,32,1.0,45.0
2291,67.0,0,32,0.0,60.0
2292,55.0,0,32,1.0,45.0
2293,74.0,0,32,0.0,60.0
2294,69.0,0,32,0.0,60.0
2295,65.0,96,32,0.0,60.0
2296,55.0,96,32,1.0,45.0
2297,72.0,0,32,0.0,60.0
2298,69.0,0,32,0.0,60.0
2299,66.0,0,32,0.0,60.0
2300,63.0,0,32,0.0,60.0
2301,43.0,96,96,1.0,45.0
2302,55.0,96,96,1.0,45.0
2303,72.0,96,0,0.0,60.0
2304,67.0,0,0,0.0,60.0
2305,64.0,0,0,0.0,60.0
2306,43.0,96,96,1.0,45.0
2307,55.0,0,96,1.0,45.0
2308,72.0,0,96,0.0,60.0
2309,43.0,96,96,1.0,45.0
2310,62.0,0,192,0.0,60.0
2311,71.0,96,96,0.0,60.0
2312,65.0,0,0,0.0,60.0
2313,55.0,0,96,1.0,45.0
2314,43.0,0,96,1.0,45.0
2315,69.0,0,96,0.0,60.0
2316,55.0,96,96,1.0,45.0
2317,62.0,96,192,0.0,60.0
2318,67.0,0,96,0.0,60.0
2319,43.0,0,64,1.0,75.0
2320,47.0,64,64,1.0,75.0
2321,52.0,64,64,1.0,75.0
2322,55.0,64,64,1.0,75.0
2323,76.0,96,288,0.0,92.0
2324,79.0,0,288,0.0,92.0
2325,60.0,64,64,1.0,75.0
2326,77.0,32,96,0.0,92.0
2327,74.0,0,96,0.0,92.0
2328,64.0,32,64,1.0,75.0
2329,67.0,0,32,1.0,75.0
2330,76.0,64,32,0.0,92.0
2331,72.0,0,32,0.0,92.0
2332,55.0,96,32,1.0,75.0
2333,67.0,0,32,0.0,92.0
2334,76.0,0,32,0.0,92.0
2335,74.0,0,32,0.0,92.0
2336,55.0,0,32,1.0,75.0
2337,65.0,96,32,0.0,92.0
2338,69.0,0,32,0.0,92.0
2339,63.0,96,32,0.0,92.0
2340,66.0,0,32,0.0,92.0
2341,69.0,0,32,0.0,92.0
2342,72.0,0,32,0.0,92.0
2343,55.0,0,96,1.0,75.0
2344,43.0,96,96,1.0,105.0
2345,55.0,96,96,1.0,75.0
2346,67.0,0,288,0.0,127.0
2347,43.0,96,96,1.0,45.0
2348,64.0,0,288,0.0,127.0
2349,72.0,0,0,0.0,60.0
2350,55.0,0,96,1.0,45.0
2351,64.0,0,96,0.0,60.0
2352,67.0,96,96,0.0,60.0
2353,72.0,0,0,0.0,60.0
2354,43.0,96,96,1.0,45.0
2355,62.0,0,192,0.0,60.0
2356,65.0,0,192,0.0,60.0
2357,71.0,0,96,0.0,60.0
2358,55.0,96,96,1.0,45.0
2359,43.0,0,96,1.0,45.0
2360,69.0,96,96,0.0,60.0
2361,55.0,96,96,1.0,45.0
2362,67.0,0,96,0.0,60.0
2363,65.0,0,192,0.0,60.0
2364,62.0,0,192,0.0,60.0
2365,48.0,96,48,1.0,45.0
2366,60.0,48,48,1.0,45.0
2367,55.0,48,48,1.0,45.0
2368,64.0,0,192,0.0,60.0
2369,60.0,48,48,1.0,45.0
2370,72.0,0,192,0.0,60.0
2371,52.0,48,48,1.0,45.0
2372,60.0,48,48,1.0,45.0
2373,55.0,0,48,1.0,30.0
2374,48.0,48,68,0.0,45.0
2375,60.0,48,48,1.0,30.0
2376,53.0,48,48,1.0,30.0
2377,62.0,48,48,1.0,30.0
2378,48.0,0,96,0.0,45.0
2379,55.0,0,48,1.0,30.0
2380,47.0,48,96,0.0,45.0
2381,62.0,48,48,1.0,30.0
2382,53.0,0,48,1.0,30.0
2383,62.0,48,48,1.0,30.0
2384,45.0,48,96,0.0,45.0
2385,55.0,48,48,1.0,30.0
2386,47.0,0,96,0.0,45.0
2387,62.0,48,48,1.0,30.0
2388,52.0,48,48,1.0,30.0
2389,60.0,48,48,1.0,30.0
2390,55.0,48,48,1.0,30.0
2391,60.0,48,48,1.0,30.0
2392,48.0,0,192,0.0,45.0
2393,52.0,48,48,1.0,30.0
2394,43.0,0,96,0.0,45.0
2395,60.0,48,48,1.0,30.0
2396,55.0,0,48,1.0,30.0
2397,60.0,48,48,1.0,30.0
2398,72.0,0,0,0.0,45.0
2399,53.0,48,48,1.0,30.0
2400,62.0,48,48,1.0,30.0
2401,55.0,0,48,1.0,30.0
2402,62.0,48,48,1.0,30.0
2403,71.0,48,96,0.0,45.0
2404,53.0,48,48,1.0,30.0
2405,69.0,0,96,0.0,45.0
2406,62.0,48,48,1.0,30.0
2407,55.0,0,48,1.0,30.0
2408,71.0,48,96,0.0,45.0
2409,62.0,48,48,1.0,30.0
2410,52.0,0,48,1.0,30.0
2411,60.0,48,48,1.0,30.0
2412,55.0,48,48,1.0,30.0
2413,60.0,48,48,1.0,30.0
2414,72.0,48,192,0.0,45.0
2415,52.0,0,48,1.0,30.0
2416,60.0,48,48,1.0,30.0
2417,67.0,48,96,0.0,45.0
2418,55.0,48,48,1.0,30.0
2419,48.0,0,34,0.0,45.0
2420,60.0,48,48,1.0,30.0
2421,48.0,48,48,0.0,45.0
2422,53.0,0,48,1.0,30.0
2423,62.0,48,48,1.0,30.0
2424,47.0,0,48,0.0,45.0
2425,52.0,0,48,0.0,45.0
2426,55.0,48,48,1.0,30.0
2427,62.0,0,48,1.0,30.0
2428,50.0,48,48,0.0,45.0
2429,53.0,48,48,1.0,30.0
2430,48.0,0,48,0.0,45.0
2431,47.0,0,48,0.0,45.0
2432,62.0,48,48,1.0,30.0
2433,45.0,48,48,0.0,45.0
2434,55.0,0,48,1.0,30.0
2435,62.0,0,48,1.0,30.0
2436,43.0,0,0,0.0,45.0
2437,52.0,48,48,1.0,30.0
2438,60.0,24,48,1.0,30.0
2439,55.0,48,48,1.0,30.0
2440,60.0,48,48,1.0,30.0
2441,48.0,24,168,0.0,45.0
2442,52.0,0,48,1.0,30.0
2443,43.0,48,96,0.0,45.0
2444,60.0,48,48,1.0,30.0
2445,55.0,48,48,1.0,30.0
2446,72.0,48,32,0.0,45.0
2447,60.0,0,48,1.0,30.0
2448,72.0,48,48,0.0,45.0
2449,53.0,0,48,1.0,30.0
2450,71.0,48,48,0.0,45.0
2451,62.0,0,48,1.0,30.0
2452,55.0,0,48,1.0,30.0
2453,76.0,48,48,0.0,45.0
2454,62.0,48,48,1.0,30.0
2455,74.0,0,48,0.0,45.0
2456,53.0,0,48,1.0,30.0
2457,72.0,48,48,0.0,45.0
2458,71.0,48,48,0.0,45.0
2459,62.0,0,48,1.0,30.0
2460,69.0,0,48,0.0,45.0
2461,55.0,48,48,1.0,30.0
2462,67.0,48,48,0.0,45.0
2463,62.0,0,48,1.0,30.0
2464,67.0,48,24,0.0,45.0
2465,52.0,0,48,1.0,30.0
2466,60.0,24,48,1.0,30.0
2467,55.0,48,48,1.0,30.0
2468,72.0,24,168,0.0,45.0
2469,60.0,48,48,1.0,30.0
2470,52.0,48,48,1.0,30.0
2471,60.0,48,48,1.0,30.0
2472,67.0,0,96,0.0,45.0
2473,55.0,48,48,1.0,30.0
2474,48.0,48,34,0.0,45.0
2475,60.0,0,48,1.0,30.0
2476,48.0,0,48,0.0,45.0
2477,53.0,48,48,1.0,30.0
2478,47.0,48,48,0.0,45.0
2479,62.0,0,48,1.0,30.0
2480,55.0,0,48,1.0,30.0
2481,52.0,48,48,0.0,45.0
2482,62.0,48,48,1.0,30.0
2483,50.0,0,48,0.0,45.0
2484,53.0,48,48,1.0,30.0
2485,48.0,0,48,0.0,45.0
2486,47.0,0,48,0.0,45.0
2487,62.0,48,48,1.0,30.0
2488,45.0,0,48,0.0,45.0
2489,55.0,48,48,1.0,30.0
2490,43.0,48,48,0.0,45.0
2491,62.0,0,48,1.0,30.0
2492,52.0,0,48,1.0,30.0
2493,60.0,48,48,1.0,30.0
2494,55.0,48,48,1.0,30.0
2495,60.0,48,48,1.0,30.0
2496,48.0,48,192,0.0,45.0
2497,52.0,48,48,1.0,75.0
2498,58.0,48,48,1.0,75.0
2499,55.0,48,48,1.0,45.0
2500,58.0,48,48,1.0,45.0
2501,49.0,0,192,0.0,92.0
2502,53.0,48,48,1.0,45.0
2503,57.0,48,48,1.0,45.0
2504,56.0,48,48,1.0,45.0
2505,50.0,0,192,0.0,60.0
2506,57.0,48,48,1.0,45.0
2507,54.0,0,48,1.0,75.0
2508,57.0,48,48,1.0,75.0
2509,59.0,48,48,1.0,45.0
2510,51.0,48,192,0.0,92.0
2511,57.0,48,48,1.0,45.0
2512,55.0,0,48,1.0,45.0
2513,59.0,48,48,1.0,45.0
2514,57.0,48,48,1.0,45.0
2515,52.0,48,192,0.0,60.0
2516,59.0,48,48,1.0,45.0
2517,55.0,48,48,1.0,75.0
2518,58.0,48,48,1.0,75.0
2519,60.0,48,48,1.0,45.0
2520,58.0,48,48,1.0,45.0
2521,52.0,0,192,0.0,92.0
2522,57.0,48,48,1.0,45.0
2523,60.0,48,48,1.0,45.0
2524,59.0,48,48,1.0,45.0
2525,60.0,48,48,1.0,45.0
2526,53.0,0,192,0.0,60.0
2527,57.0,48,48,1.0,75.0
2528,60.0,48,48,1.0,75.0
2529,62.0,48,48,1.0,45.0
2530,60.0,48,0,1.0,92.0
2531,54.0,0,192,0.0,92.0
2532,55.0,0,32,0.0,92.0
2533,56.0,32,32,0.0,92.0
2534,57.0,32,32,0.0,92.0
2535,58.0,32,32,0.0,92.0
2536,59.0,32,32,0.0,92.0
2537,64.0,0,192,1.0,92.0
2538,60.0,32,32,0.0,92.0
2539,61.0,32,32,0.0,92.0
2540,62.0,32,32,0.0,92.0
2541,63.0,32,32,0.0,92.0
2542,64.0,32,32,0.0,92.0
2543,65.0,32,32,0.0,92.0
2544,66.0,32,32,0.0,92.0
2545,67.0,32,32,0.0,92.0
2546,68.0,32,32,0.0,92.0
2547,69.0,32,32,0.0,92.0
2548,70.0,32,32,0.0,92.0
2549,71.0,32,32,0.0,92.0
2550,72.0,32,32,0.0,92.0
2551,73.0,32,32,0.0,92.0
2552,74.0,32,32,0.0,92.0
2553,75.0,32,32,0.0,92.0
2554,76.0,32,32,0.0,92.0
2555,77.0,32,32,0.0,92.0
2556,78.0,32,32,0.0,92.0
2557,79.0,32,16,0.0,92.0
2558,80.0,16,16,0.0,89.0
2559,81.0,16,16,0.0,86.0
2560,82.0,16,16,0.0,83.0
2561,83.0,16,16,0.0,80.0
2562,84.0,16,16,0.0,76.0
2563,85.0,16,16,0.0,72.0
2564,86.0,16,16,0.0,68.0
2565,87.0,16,16,0.0,64.0
2566,88.0,16,32,0.0,60.0
2567,86.0,96,32,0.0,60.0
2568,84.0,96,32,0.0,60.0
2569,83.0,96,32,0.0,60.0
2570,81.0,96,32,0.0,60.0
2571,79.0,96,32,0.0,60.0
2572,77.0,96,68,0.0,60.0
2573,76.0,96,68,0.0,60.0
2574,74.0,96,68,0.0,60.0
2575,72.0,96,68,0.0,60.0
2576,71.0,96,68,0.0,60.0
2577,69.0,96,68,0.0,60.0
2578,67.0,96,68,0.0,60.0
2579,66.0,96,32,0.0,60.0
2580,67.0,0,96,0.0,60.0
2581,72.0,96,96,0.0,60.0
2582,76.0,96,96,0.0,60.0
2583,43.0,96,384,1.0,60.0
2584,52.0,0,384,1.0,60.0
2585,48.0,0,384,1.0,60.0
2586,79.0,96,0,0.0,92.0
2587,77.0,96,96,0.0,92.0
2588,74.0,96,96,0.0,60.0
2589,43.0,0,384,1.0,75.0
2590,50.0,0,384,1.0,75.0
2591,53.0,0,384,1.0,75.0
2592,71.0,96,96,0.0,60.0
2593,48.0,96,192,1.0,60.0
2594,52.0,0,192,1.0,60.0
2595,72.0,0,192,0.0,60.0
2596,55.0,336,48,1.0,60.0
2597,64.0,48,48,1.0,60.0
2598,60.0,0,48,1.0,60.0
2599,64.0,192,48,1.0,60.0
2600,60.0,0,48,1.0,60.0
2601,67.0,144,48,0.0,60.0
2602,64.0,48,96,1.0,45.0
2603,60.0,0,96,1.0,45.0
2604,62.0,0,96,1.0,45.0
2605,59.0,96,96,1.0,45.0
2606,61.0,96,96,1.0,45.0
2607,58.0,0,96,1.0,45.0
2608,62.0,96,96,1.0,45.0
2609,79.0,0,384,0.0,60.0
2610,59.0,0,96,1.0,45.0
2611,55.0,96,24,1.0,45.0
2612,65.0,0,56,1.0,45.0
2613,62.0,24,56,1.0,45.0
2614,62.0,168,48,1.0,45.0
2615,65.0,0,48,1.0,45.0
2616,67.0,144,48,0.0,60.0
2617,62.0,0,96,1.0,45.0
2618,65.0,0,96,1.0,45.0
2619,64.0,96,96,1.0,49.0
2620,60.0,0,96,1.0,49.0
2621,59.0,0,96,1.0,53.0
2622,63.0,96,96,1.0,53.0
2623,64.0,96,96,1.0,57.0
2624,60.0,0,96,1.0,57.0
2625,79.0,0,0,0.0,60.0
2626,70.0,0,48,0.0,60.0
2627,61.0,96,120,1.0,61.0
2628,52.0,0,120,1.0,61.0
2629,61.0,0,48,1.0,70.0
2630,52.0,192,48,1.0,70.0
2631,79.0,0,48,0.0,69.0
2632,70.0,0,48,0.0,69.0
2633,79.0,0,96,0.0,78.0
2634,61.0,0,96,1.0,79.0
2635,77.0,96,96,0.0,83.0
2636,62.0,0,96,1.0,83.0
2637,76.0,96,96,0.0,88.0
2638,64.0,0,96,1.0,88.0
2639,65.0,96,96,1.0,93.0
2640,53.0,0,384,1.0,79.0
2641,69.0,192,384,0.0,78.0
2642,74.0,0,96,0.0,93.0
2643,64.0,96,32,1.0,98.0
2644,55.0,0,32,1.0,98.0
2645,67.0,0,96,0.0,98.0
2646,72.0,0,96,0.0,98.0
2647,65.0,0,32,0.0,108.0
2648,71.0,192,32,0.0,108.0
2649,67.0,0,32,0.0,108.0
2650,62.0,0,32,0.0,108.0
2651,55.0,0,32,1.0,108.0
2652,43.0,0,32,1.0,108.0
2653,36.0,0,192,1.0,108.0
2654,72.0,0,192,0.0,108.0
2655,64.0,0,192,0.0,108.0
2656,67.0,0,192,0.0,108.0
2657,48.0,192,192,1.0,108.0
