,note,step,duration,channel,velocity
0,60.0,0,214,0.0,64.0
1,65.0,0,40,0.0,64.0
2,68.0,0,34,0.0,64.0
3,72.0,0,36,0.0,64.0
4,77.0,0,32,0.0,64.0
5,80.0,0,282,0.0,64.0
6,53.0,0,186,0.0,64.0
7,56.0,0,186,0.0,64.0
8,60.0,0,192,0.0,64.0
9,79.0,0,58,0.0,64.0
10,77.0,0,52,0.0,64.0
11,76.0,0,36,0.0,64.0
12,56.0,0,102,0.0,64.0
13,77.0,0,40,0.0,64.0
14,60.0,0,106,0.0,64.0
15,53.0,0,98,0.0,64.0
16,53.0,0,78,0.0,64.0
17,56.0,0,72,0.0,64.0
18,60.0,0,72,0.0,64.0
19,52.0,0,190,0.0,64.0
20,60.0,0,186,0.0,64.0
21,58.0,0,184,0.0,64.0
22,67.0,0,38,0.0,64.0
23,55.0,0,182,0.0,64.0
24,72.0,0,42,0.0,64.0
25,76.0,0,36,0.0,64.0
26,79.0,0,36,0.0,64.0
27,82.0,0,302,0.0,64.0
28,60.0,0,98,0.0,64.0
29,58.0,0,94,0.0,64.0
30,55.0,0,94,0.0,64.0
31,52.0,0,92,0.0,64.0
32,80.0,0,48,0.0,64.0
33,79.0,0,50,0.0,64.0
34,77.0,0,40,0.0,64.0
35,60.0,0,86,0.0,64.0
36,58.0,0,72,0.0,64.0
37,55.0,0,72,0.0,64.0
38,52.0,0,70,0.0,64.0
39,79.0,0,32,0.0,64.0
40,58.0,0,38,0.0,64.0
41,60.0,0,38,0.0,64.0
42,52.0,0,38,0.0,64.0
43,55.0,0,36,0.0,64.0
44,72.0,0,44,0.0,64.0
45,80.0,0,274,0.0,64.0
46,60.0,0,92,0.0,64.0
47,56.0,0,92,0.0,64.0
48,53.0,0,94,0.0,64.0
49,79.0,0,48,0.0,64.0
50,77.0,0,52,0.0,64.0
51,76.0,0,36,0.0,64.0
52,77.0,0,28,0.0,64.0
53,53.0,0,62,0.0,64.0
54,60.0,0,62,0.0,64.0
55,56.0,0,56,0.0,64.0
56,60.0,0,36,0.0,64.0
57,53.0,0,38,0.0,64.0
58,56.0,0,36,0.0,64.0
59,72.0,0,42,0.0,64.0
60,82.0,0,310,0.0,64.0
61,58.0,0,118,0.0,64.0
62,55.0,0,110,0.0,64.0
63,64.0,0,124,0.0,64.0
64,80.0,0,50,0.0,64.0
65,79.0,0,58,0.0,64.0
66,77.0,0,40,0.0,64.0
67,58.0,0,78,0.0,64.0
68,64.0,0,88,0.0,64.0
69,55.0,0,76,0.0,64.0
70,79.0,0,38,0.0,64.0
71,55.0,0,46,0.0,64.0
72,58.0,0,44,0.0,64.0
73,64.0,0,42,0.0,64.0
74,72.0,0,646,0.0,64.0
75,77.0,0,612,0.0,64.0
76,80.0,0,594,0.0,64.0
77,84.0,0,588,0.0,64.0
78,56.0,0,384,0.0,64.0
79,60.0,0,376,0.0,64.0
80,65.0,0,372,0.0,64.0
81,82.0,0,168,0.0,64.0
82,80.0,0,166,0.0,64.0
83,79.0,0,168,0.0,64.0
84,58.0,0,308,0.0,64.0
85,62.0,0,310,0.0,64.0
86,67.0,0,314,0.0,64.0
87,77.0,0,162,0.0,64.0
88,76.0,0,60,0.0,64.0
89,77.0,0,46,0.0,64.0
90,79.0,0,52,0.0,64.0
91,77.0,0,382,0.0,64.0
92,76.0,0,348,0.0,64.0
93,60.0,0,342,0.0,64.0
94,67.0,0,332,0.0,64.0
95,43.0,0,44,0.0,64.0
96,48.0,0,34,0.0,64.0
97,51.0,0,34,0.0,64.0
98,55.0,0,56,0.0,64.0
99,60.0,0,40,0.0,64.0
100,63.0,0,290,0.0,64.0
101,62.0,0,54,0.0,64.0
102,60.0,0,42,0.0,64.0
103,59.0,0,38,0.0,64.0
104,60.0,0,44,0.0,64.0
105,60.0,0,34,0.0,64.0
106,68.0,0,1114,0.0,64.0
107,60.0,0,704,0.0,64.0
108,65.0,0,696,0.0,64.0
109,75.0,0,50,0.0,64.0
110,73.0,0,40,0.0,64.0
111,72.0,0,42,0.0,64.0
112,73.0,0,24,0.0,64.0
113,73.0,0,22,0.0,64.0
114,73.0,0,976,0.0,64.0
115,65.0,0,684,0.0,64.0
116,58.0,0,680,0.0,64.0
117,70.0,0,42,0.0,64.0
118,68.0,0,40,0.0,64.0
119,67.0,0,50,0.0,64.0
120,68.0,0,16,0.0,64.0
121,68.0,0,18,0.0,64.0
122,67.0,0,856,0.0,64.0
123,58.0,0,734,0.0,64.0
124,63.0,0,734,0.0,64.0
125,75.0,0,30,0.0,64.0
126,73.0,0,30,0.0,64.0
127,72.0,0,30,0.0,64.0
128,73.0,0,26,0.0,64.0
129,73.0,0,22,0.0,64.0
130,68.0,0,666,0.0,64.0
131,56.0,0,682,0.0,64.0
132,63.0,0,678,0.0,64.0
133,73.0,0,42,0.0,64.0
134,72.0,0,38,0.0,64.0
135,71.0,0,46,0.0,64.0
136,72.0,0,32,0.0,64.0
137,72.0,0,32,0.0,64.0
138,65.0,0,830,0.0,64.0
139,72.0,0,220,0.0,64.0
140,61.0,0,426,0.0,64.0
141,70.0,0,428,0.0,64.0
142,62.0,0,416,0.0,64.0
143,68.0,0,136,0.0,64.0
144,67.0,0,170,0.0,64.0
145,63.0,0,182,0.0,64.0
146,75.0,0,222,0.0,64.0
147,73.0,0,206,0.0,64.0
148,72.0,0,456,0.0,64.0
149,60.0,0,176,0.0,64.0
150,63.0,0,198,0.0,64.0
151,61.0,0,366,0.0,64.0
152,65.0,0,374,0.0,64.0
153,70.0,0,432,0.0,64.0
154,65.0,0,316,0.0,64.0
155,62.0,0,314,0.0,64.0
156,68.0,0,98,0.0,64.0
157,63.0,0,108,0.0,64.0
158,67.0,0,96,0.0,64.0
159,75.0,0,84,0.0,64.0
160,63.0,0,96,0.0,64.0
161,61.0,0,74,0.0,64.0
162,73.0,0,62,0.0,64.0
163,51.0,0,122,0.0,64.0
164,60.0,0,310,0.0,64.0
165,72.0,0,296,0.0,64.0
166,48.0,0,106,0.0,64.0
167,53.0,0,388,0.0,64.0
168,49.0,0,382,0.0,64.0
169,58.0,0,348,0.0,64.0
170,70.0,0,326,0.0,64.0
171,53.0,0,328,0.0,64.0
172,50.0,0,310,0.0,64.0
173,68.0,0,64,0.0,64.0
174,56.0,0,72,0.0,64.0
175,55.0,0,78,0.0,64.0
176,67.0,0,88,0.0,64.0
177,51.0,0,88,0.0,64.0
178,63.0,0,102,0.0,64.0
179,51.0,0,102,0.0,64.0
180,63.0,0,102,0.0,64.0
181,51.0,0,78,0.0,64.0
182,63.0,0,86,0.0,64.0
183,51.0,0,92,0.0,64.0
184,76.0,0,214,0.0,64.0
185,63.0,0,88,0.0,64.0
186,75.0,0,204,0.0,64.0
187,51.0,0,90,0.0,64.0
188,63.0,0,90,0.0,64.0
189,51.0,0,90,0.0,64.0
190,73.0,0,116,0.0,64.0
191,63.0,0,72,0.0,64.0
192,70.0,0,148,0.0,64.0
193,51.0,0,72,0.0,64.0
194,63.0,0,62,0.0,64.0
195,51.0,0,86,0.0,64.0
196,67.0,0,86,0.0,64.0
197,63.0,0,30,0.0,64.0
198,51.0,0,154,0.0,64.0
199,64.0,0,324,0.0,64.0
200,61.0,0,338,0.0,64.0
201,51.0,0,72,0.0,64.0
202,63.0,0,50,0.0,64.0
203,68.0,0,72,0.0,64.0
204,51.0,0,106,0.0,64.0
205,60.0,0,90,0.0,64.0
206,63.0,0,66,0.0,64.0
207,51.0,0,96,0.0,64.0
208,76.0,0,152,0.0,64.0
209,63.0,0,74,0.0,64.0
210,51.0,0,96,0.0,64.0
211,75.0,0,190,0.0,64.0
212,63.0,0,84,0.0,64.0
213,51.0,0,96,0.0,64.0
214,73.0,0,98,0.0,64.0
215,63.0,0,80,0.0,64.0
216,70.0,0,162,0.0,64.0
217,51.0,0,96,0.0,64.0
218,63.0,0,66,0.0,64.0
219,51.0,0,96,0.0,64.0
220,67.0,0,78,0.0,64.0
221,63.0,0,28,0.0,64.0
222,51.0,0,134,0.0,64.0
223,64.0,0,318,0.0,64.0
224,61.0,0,338,0.0,64.0
225,51.0,0,84,0.0,64.0
226,63.0,0,64,0.0,64.0
227,68.0,0,68,0.0,64.0
228,51.0,0,102,0.0,64.0
229,60.0,0,92,0.0,64.0
230,63.0,0,86,0.0,64.0
231,76.0,0,162,0.0,64.0
232,51.0,0,98,0.0,64.0
233,63.0,0,86,0.0,64.0
234,51.0,0,106,0.0,64.0
235,75.0,0,200,0.0,64.0
236,63.0,0,86,0.0,64.0
237,51.0,0,96,0.0,64.0
238,73.0,0,182,0.0,64.0
239,63.0,0,100,0.0,64.0
240,70.0,0,204,0.0,64.0
241,61.0,0,94,0.0,64.0
242,63.0,0,98,0.0,64.0
243,67.0,0,132,0.0,64.0
244,61.0,0,94,0.0,64.0
245,63.0,0,88,0.0,64.0
246,60.0,0,88,0.0,64.0
247,63.0,0,100,0.0,64.0
248,67.0,0,92,0.0,64.0
249,70.0,0,90,0.0,64.0
250,60.0,0,96,0.0,64.0
251,68.0,0,42,0.0,64.0
252,63.0,0,84,0.0,64.0
253,55.0,0,94,0.0,64.0
254,63.0,0,88,0.0,64.0
255,69.0,0,90,0.0,64.0
256,72.0,0,98,0.0,64.0
257,55.0,0,104,0.0,64.0
258,70.0,0,44,0.0,64.0
259,63.0,0,82,0.0,64.0
260,56.0,0,98,0.0,64.0
261,63.0,0,102,0.0,64.0
262,71.0,0,80,0.0,64.0
263,56.0,0,98,0.0,64.0
264,73.0,0,92,0.0,64.0
265,63.0,0,62,0.0,64.0
266,72.0,0,46,0.0,64.0
267,53.0,0,106,0.0,64.0
268,62.0,0,88,0.0,64.0
269,74.0,0,88,0.0,64.0
270,56.0,0,98,0.0,64.0
271,80.0,0,100,0.0,64.0
272,62.0,0,54,0.0,64.0
273,74.0,0,84,0.0,64.0
274,51.0,0,118,0.0,64.0
275,75.0,0,130,0.0,64.0
276,63.0,0,100,0.0,64.0
277,55.0,0,96,0.0,64.0
278,63.0,0,54,0.0,64.0
279,53.0,0,122,0.0,64.0
280,62.0,0,88,0.0,64.0
281,74.0,0,78,0.0,64.0
282,56.0,0,98,0.0,64.0
283,80.0,0,100,0.0,64.0
284,74.0,0,72,0.0,64.0
285,62.0,0,58,0.0,64.0
286,51.0,0,106,0.0,64.0
287,75.0,0,112,0.0,64.0
288,63.0,0,94,0.0,64.0
289,55.0,0,96,0.0,64.0
290,63.0,0,42,0.0,64.0
291,49.0,0,104,0.0,64.0
292,79.0,0,78,0.0,64.0
293,58.0,0,82,0.0,64.0
294,49.0,0,92,0.0,64.0
295,88.0,0,100,0.0,64.0
296,79.0,0,74,0.0,64.0
297,58.0,0,62,0.0,64.0
298,48.0,0,136,0.0,64.0
299,80.0,0,58,0.0,64.0
300,56.0,0,72,0.0,64.0
301,51.0,0,70,0.0,64.0
302,56.0,0,64,0.0,64.0
303,49.0,0,126,0.0,64.0
304,58.0,0,74,0.0,64.0
305,79.0,0,54,0.0,64.0
306,52.0,0,100,0.0,64.0
307,88.0,0,120,0.0,64.0
308,58.0,0,70,0.0,64.0
309,79.0,0,60,0.0,64.0
310,48.0,0,104,0.0,64.0
311,79.0,0,102,0.0,64.0
312,56.0,0,106,0.0,64.0
313,82.0,0,94,0.0,64.0
314,51.0,0,102,0.0,64.0
315,80.0,0,48,0.0,64.0
316,56.0,0,56,0.0,64.0
317,43.0,0,92,0.0,64.0
318,81.0,0,88,0.0,64.0
319,55.0,0,94,0.0,64.0
320,51.0,0,104,0.0,64.0
321,84.0,0,94,0.0,64.0
322,82.0,0,42,0.0,64.0
323,55.0,0,62,0.0,64.0
324,44.0,0,92,0.0,64.0
325,56.0,0,86,0.0,64.0
326,83.0,0,84,0.0,64.0
327,51.0,0,102,0.0,64.0
328,85.0,0,80,0.0,64.0
329,84.0,0,74,0.0,64.0
330,56.0,0,84,0.0,64.0
331,46.0,0,106,0.0,64.0
332,58.0,0,94,0.0,64.0
333,84.0,0,98,0.0,64.0
334,51.0,0,96,0.0,64.0
335,89.0,0,98,0.0,64.0
336,87.0,0,60,0.0,64.0
337,58.0,0,74,0.0,64.0
338,48.0,0,196,0.0,64.0
339,86.0,0,90,0.0,64.0
340,89.0,0,94,0.0,64.0
341,51.0,0,396,0.0,64.0
342,87.0,0,100,0.0,64.0
343,85.0,0,90,0.0,64.0
344,84.0,0,98,0.0,64.0
345,82.0,0,76,0.0,64.0
346,56.0,0,186,0.0,64.0
347,80.0,0,24,0.0,64.0
348,49.0,0,190,0.0,64.0
349,79.0,0,88,0.0,64.0
350,77.0,0,86,0.0,64.0
351,75.0,0,100,0.0,64.0
352,53.0,0,402,0.0,64.0
353,73.0,0,16,0.0,64.0
354,72.0,0,96,0.0,64.0
355,70.0,0,92,0.0,64.0
356,68.0,0,90,0.0,64.0
357,58.0,0,156,0.0,64.0
358,67.0,0,36,0.0,64.0
359,65.0,0,102,0.0,64.0
360,51.0,0,194,0.0,64.0
361,63.0,0,98,0.0,64.0
362,62.0,0,100,0.0,64.0
363,56.0,0,350,0.0,64.0
364,63.0,0,100,0.0,64.0
365,62.0,0,98,0.0,64.0
366,63.0,0,92,0.0,64.0
367,62.0,0,100,0.0,64.0
368,60.0,0,190,0.0,64.0
369,63.0,0,94,0.0,64.0
370,62.0,0,100,0.0,64.0
371,61.0,0,212,0.0,64.0
372,63.0,0,98,0.0,64.0
373,65.0,0,104,0.0,64.0
374,58.0,0,202,0.0,64.0
375,63.0,0,98,0.0,64.0
376,62.0,0,98,0.0,64.0
377,55.0,0,190,0.0,64.0
378,63.0,0,80,0.0,64.0
379,65.0,0,100,0.0,64.0
380,49.0,0,36,0.0,64.0
381,63.0,0,24,0.0,64.0
382,36.0,0,190,0.0,64.0
383,84.0,0,66,0.0,64.0
384,39.0,0,394,0.0,64.0
385,89.0,0,92,0.0,64.0
386,87.0,0,98,0.0,64.0
387,85.0,0,92,0.0,64.0
388,84.0,0,34,0.0,64.0
389,82.0,0,96,0.0,64.0
390,44.0,0,182,0.0,64.0
391,80.0,0,80,0.0,64.0
392,37.0,0,202,0.0,64.0
393,79.0,0,86,0.0,64.0
394,77.0,0,34,0.0,64.0
395,75.0,0,104,0.0,64.0
396,41.0,0,396,0.0,64.0
397,73.0,0,78,0.0,64.0
398,72.0,0,22,0.0,64.0
399,70.0,0,54,0.0,64.0
400,68.0,0,100,0.0,64.0
401,46.0,0,182,0.0,64.0
402,67.0,0,22,0.0,64.0
403,39.0,0,192,0.0,64.0
404,65.0,0,100,0.0,64.0
405,63.0,0,92,0.0,64.0
406,61.0,0,94,0.0,64.0
407,44.0,0,382,0.0,64.0
408,60.0,0,36,0.0,64.0
409,58.0,0,96,0.0,64.0
410,56.0,0,94,0.0,64.0
411,55.0,0,98,0.0,64.0
412,48.0,0,190,0.0,64.0
413,53.0,0,50,0.0,64.0
414,49.0,0,200,0.0,64.0
415,51.0,0,78,0.0,64.0
416,53.0,0,84,0.0,64.0
417,55.0,0,96,0.0,64.0
418,46.0,0,190,0.0,64.0
419,56.0,0,82,0.0,64.0
420,58.0,0,86,0.0,64.0
421,43.0,0,174,0.0,64.0
422,60.0,0,34,0.0,64.0
423,39.0,0,166,0.0,64.0
424,61.0,0,92,0.0,64.0
425,58.0,0,58,0.0,64.0
426,56.0,0,64,0.0,64.0
427,44.0,0,102,0.0,64.0
428,56.0,0,150,0.0,64.0
429,62.0,0,28,0.0,64.0
430,71.0,0,270,0.0,64.0
431,59.0,0,32,0.0,64.0
432,50.0,0,30,0.0,64.0
433,53.0,0,34,0.0,64.0
434,56.0,0,32,0.0,64.0
435,70.0,0,36,0.0,64.0
436,68.0,0,384,0.0,64.0
437,56.0,0,28,0.0,64.0
438,60.0,0,24,0.0,64.0
439,51.0,0,28,0.0,64.0
440,67.0,0,296,0.0,64.0
441,61.0,0,90,0.0,64.0
442,58.0,0,92,0.0,64.0
443,51.0,0,84,0.0,64.0
444,75.0,0,46,0.0,64.0
445,75.0,0,178,0.0,64.0
446,68.0,0,92,0.0,64.0
447,60.0,0,102,0.0,64.0
448,56.0,0,104,0.0,64.0
449,62.0,0,26,0.0,64.0
450,71.0,0,294,0.0,64.0
451,59.0,0,30,0.0,64.0
452,53.0,0,36,0.0,64.0
453,56.0,0,36,0.0,64.0
454,50.0,0,36,0.0,64.0
455,70.0,0,58,0.0,64.0
456,68.0,0,374,0.0,64.0
457,56.0,0,48,0.0,64.0
458,51.0,0,42,0.0,64.0
459,60.0,0,42,0.0,64.0
460,67.0,0,288,0.0,64.0
461,61.0,0,36,0.0,64.0
462,58.0,0,38,0.0,64.0
463,51.0,0,36,0.0,64.0
464,75.0,0,40,0.0,64.0
465,75.0,0,186,0.0,64.0
466,60.0,0,48,0.0,64.0
467,56.0,0,48,0.0,64.0
468,68.0,0,34,0.0,64.0
469,74.0,0,26,0.0,64.0
470,83.0,0,270,0.0,64.0
471,62.0,0,38,0.0,64.0
472,68.0,0,34,0.0,64.0
473,65.0,0,32,0.0,64.0
474,82.0,0,42,0.0,64.0
475,80.0,0,342,0.0,64.0
476,63.0,0,32,0.0,64.0
477,72.0,0,26,0.0,64.0
478,68.0,0,36,0.0,64.0
479,79.0,0,262,0.0,64.0
480,73.0,0,28,0.0,64.0
481,70.0,0,32,0.0,64.0
482,63.0,0,36,0.0,64.0
483,87.0,0,36,0.0,64.0
484,87.0,0,750,0.0,64.0
485,73.0,0,768,0.0,64.0
486,79.0,0,754,0.0,64.0
487,56.0,0,802,0.0,64.0
488,61.0,0,790,0.0,64.0
489,63.0,0,794,0.0,64.0
490,67.0,0,796,0.0,64.0
491,68.0,0,210,0.0,64.0
492,75.0,0,212,0.0,64.0
493,56.0,0,206,0.0,64.0
494,80.0,0,214,0.0,64.0
495,60.0,0,186,0.0,64.0
496,72.0,0,210,0.0,64.0
497,63.0,0,200,0.0,64.0
498,63.0,0,254,0.0,64.0
499,68.0,0,52,0.0,64.0
500,72.0,0,40,0.0,64.0
501,75.0,0,36,0.0,64.0
502,80.0,0,34,0.0,64.0
503,84.0,0,368,0.0,64.0
504,56.0,0,184,0.0,64.0
505,63.0,0,182,0.0,64.0
506,60.0,0,172,0.0,64.0
507,82.0,0,72,0.0,64.0
508,80.0,0,64,0.0,64.0
509,63.0,0,134,0.0,64.0
510,79.0,0,52,0.0,64.0
511,56.0,0,130,0.0,64.0
512,60.0,0,118,0.0,64.0
513,80.0,0,68,0.0,64.0
514,56.0,0,102,0.0,64.0
515,63.0,0,88,0.0,64.0
516,60.0,0,82,0.0,64.0
517,73.0,0,48,0.0,64.0
518,85.0,0,338,0.0,64.0
519,55.0,0,104,0.0,64.0
520,61.0,0,76,0.0,64.0
521,63.0,0,90,0.0,64.0
522,58.0,0,70,0.0,64.0
523,84.0,0,70,0.0,64.0
524,82.0,0,64,0.0,64.0
525,81.0,0,62,0.0,64.0
526,63.0,0,78,0.0,64.0
527,55.0,0,96,0.0,64.0
528,61.0,0,62,0.0,64.0
529,58.0,0,50,0.0,64.0
530,82.0,0,56,0.0,64.0
531,55.0,0,70,0.0,64.0
532,63.0,0,78,0.0,64.0
533,58.0,0,24,0.0,64.0
534,61.0,0,48,0.0,64.0
535,70.0,0,54,0.0,64.0
536,73.0,0,32,0.0,64.0
537,79.0,0,44,0.0,64.0
538,82.0,0,40,0.0,64.0
539,73.0,0,46,0.0,64.0
540,85.0,0,328,0.0,64.0
541,58.0,0,74,0.0,64.0
542,61.0,0,74,0.0,64.0
543,64.0,0,90,0.0,64.0
544,55.0,0,98,0.0,64.0
545,84.0,0,30,0.0,64.0
546,82.0,0,62,0.0,64.0
547,81.0,0,56,0.0,64.0
548,55.0,0,80,0.0,64.0
549,64.0,0,68,0.0,64.0
550,61.0,0,52,0.0,64.0
551,58.0,0,52,0.0,64.0
552,82.0,0,46,0.0,64.0
553,55.0,0,74,0.0,64.0
554,58.0,0,48,0.0,64.0
555,64.0,0,68,0.0,64.0
556,61.0,0,56,0.0,64.0
557,73.0,0,42,0.0,64.0
558,85.0,0,338,0.0,64.0
559,54.0,0,88,0.0,64.0
560,64.0,0,84,0.0,64.0
561,58.0,0,68,0.0,64.0
562,61.0,0,72,0.0,64.0
563,84.0,0,64,0.0,64.0
564,82.0,0,56,0.0,64.0
565,81.0,0,58,0.0,64.0
566,54.0,0,62,0.0,64.0
567,64.0,0,66,0.0,64.0
568,61.0,0,44,0.0,64.0
569,58.0,0,38,0.0,64.0
570,82.0,0,40,0.0,64.0
571,54.0,0,60,0.0,64.0
572,64.0,0,60,0.0,64.0
573,61.0,0,60,0.0,64.0
574,58.0,0,60,0.0,64.0
575,53.0,0,60,0.0,64.0
576,81.0,0,180,0.0,64.0
577,65.0,0,110,0.0,64.0
578,53.0,0,104,0.0,64.0
579,65.0,0,96,0.0,64.0
580,53.0,0,116,0.0,64.0
581,65.0,0,90,0.0,64.0
582,53.0,0,104,0.0,64.0
583,78.0,0,270,0.0,64.0
584,65.0,0,100,0.0,64.0
585,53.0,0,110,0.0,64.0
586,77.0,0,224,0.0,64.0
587,65.0,0,100,0.0,64.0
588,53.0,0,88,0.0,64.0
589,75.0,0,232,0.0,64.0
590,65.0,0,80,0.0,64.0
591,53.0,0,108,0.0,64.0
592,72.0,0,236,0.0,64.0
593,65.0,0,66,0.0,64.0
594,69.0,0,244,0.0,64.0
595,53.0,0,90,0.0,64.0
596,65.0,0,48,0.0,64.0
597,66.0,0,346,0.0,64.0
598,63.0,0,378,0.0,64.0
599,53.0,0,174,0.0,64.0
600,53.0,0,64,0.0,64.0
601,65.0,0,134,0.0,64.0
602,53.0,0,120,0.0,64.0
603,61.0,0,82,0.0,64.0
604,70.0,0,160,0.0,64.0
605,65.0,0,64,0.0,64.0
606,53.0,0,120,0.0,64.0
607,78.0,0,248,0.0,64.0
608,65.0,0,92,0.0,64.0
609,53.0,0,116,0.0,64.0
610,77.0,0,240,0.0,64.0
611,65.0,0,86,0.0,64.0
612,53.0,0,118,0.0,64.0
613,75.0,0,238,0.0,64.0
614,65.0,0,72,0.0,64.0
615,53.0,0,116,0.0,64.0
616,72.0,0,238,0.0,64.0
617,65.0,0,76,0.0,64.0
618,53.0,0,94,0.0,64.0
619,69.0,0,248,0.0,64.0
620,65.0,0,54,0.0,64.0
621,53.0,0,174,0.0,64.0
622,66.0,0,354,0.0,64.0
623,63.0,0,270,0.0,64.0
624,53.0,0,64,0.0,64.0
625,65.0,0,130,0.0,64.0
626,53.0,0,114,0.0,64.0
627,61.0,0,64,0.0,64.0
628,70.0,0,132,0.0,64.0
629,65.0,0,98,0.0,64.0
630,53.0,0,108,0.0,64.0
631,78.0,0,236,0.0,64.0
632,65.0,0,102,0.0,64.0
633,53.0,0,112,0.0,64.0
634,77.0,0,244,0.0,64.0
635,65.0,0,108,0.0,64.0
636,53.0,0,106,0.0,64.0
637,75.0,0,238,0.0,64.0
638,65.0,0,120,0.0,64.0
639,63.0,0,114,0.0,64.0
640,72.0,0,238,0.0,64.0
641,65.0,0,120,0.0,64.0
642,63.0,0,112,0.0,64.0
643,69.0,0,200,0.0,64.0
644,65.0,0,118,0.0,64.0
645,61.0,0,112,0.0,64.0
646,65.0,0,122,0.0,64.0
647,69.0,0,140,0.0,64.0
648,61.0,0,104,0.0,64.0
649,72.0,0,132,0.0,64.0
650,65.0,0,122,0.0,64.0
651,70.0,0,76,0.0,64.0
652,60.0,0,108,0.0,64.0
653,65.0,0,128,0.0,64.0
654,70.0,0,132,0.0,64.0
655,60.0,0,114,0.0,64.0
656,73.0,0,120,0.0,64.0
657,65.0,0,114,0.0,64.0
658,72.0,0,76,0.0,64.0
659,58.0,0,108,0.0,64.0
660,65.0,0,112,0.0,64.0
661,72.0,0,132,0.0,64.0
662,58.0,0,112,0.0,64.0
663,75.0,0,122,0.0,64.0
664,65.0,0,80,0.0,64.0
665,73.0,0,70,0.0,64.0
666,56.0,0,102,0.0,64.0
667,71.0,0,124,0.0,64.0
668,66.0,0,110,0.0,64.0
669,73.0,0,112,0.0,64.0
670,56.0,0,114,0.0,64.0
671,66.0,0,86,0.0,64.0
672,72.0,0,116,0.0,64.0
673,55.0,0,126,0.0,64.0
674,71.0,0,228,0.0,64.0
675,67.0,0,114,0.0,64.0
676,55.0,0,108,0.0,64.0
677,67.0,0,112,0.0,64.0
678,55.0,0,104,0.0,64.0
679,67.0,0,108,0.0,64.0
680,55.0,0,110,0.0,64.0
681,80.0,0,276,0.0,64.0
682,67.0,0,108,0.0,64.0
683,79.0,0,238,0.0,64.0
684,55.0,0,110,0.0,64.0
685,67.0,0,60,0.0,64.0
686,55.0,0,120,0.0,64.0
687,77.0,0,234,0.0,64.0
688,67.0,0,114,0.0,64.0
689,55.0,0,116,0.0,64.0
690,74.0,0,222,0.0,64.0
691,67.0,0,90,0.0,64.0
692,55.0,0,110,0.0,64.0
693,71.0,0,230,0.0,64.0
694,67.0,0,74,0.0,64.0
695,65.0,0,292,0.0,64.0
696,55.0,0,184,0.0,64.0
697,68.0,0,338,0.0,64.0
698,55.0,0,60,0.0,64.0
699,67.0,0,140,0.0,64.0
700,72.0,0,126,0.0,64.0
701,55.0,0,122,0.0,64.0
702,63.0,0,84,0.0,64.0
703,67.0,0,106,0.0,64.0
704,80.0,0,260,0.0,64.0
705,55.0,0,116,0.0,64.0
706,67.0,0,100,0.0,64.0
707,55.0,0,112,0.0,64.0
708,79.0,0,236,0.0,64.0
709,67.0,0,116,0.0,64.0
710,55.0,0,112,0.0,64.0
711,77.0,0,238,0.0,64.0
712,67.0,0,100,0.0,64.0
713,55.0,0,116,0.0,64.0
714,74.0,0,234,0.0,64.0
715,67.0,0,76,0.0,64.0
716,55.0,0,102,0.0,64.0
717,71.0,0,246,0.0,64.0
718,67.0,0,54,0.0,64.0
719,65.0,0,308,0.0,64.0
720,55.0,0,164,0.0,64.0
721,68.0,0,352,0.0,64.0
722,55.0,0,64,0.0,64.0
723,67.0,0,126,0.0,64.0
724,63.0,0,78,0.0,64.0
725,55.0,0,78,0.0,64.0
726,72.0,0,100,0.0,64.0
727,65.0,0,110,0.0,64.0
728,56.0,0,226,0.0,64.0
729,62.0,0,120,0.0,64.0
730,65.0,0,122,0.0,64.0
731,55.0,0,224,0.0,64.0
732,62.0,0,118,0.0,64.0
733,65.0,0,120,0.0,64.0
734,53.0,0,232,0.0,64.0
735,62.0,0,112,0.0,64.0
736,65.0,0,122,0.0,64.0
737,50.0,0,246,0.0,64.0
738,62.0,0,110,0.0,64.0
739,65.0,0,122,0.0,64.0
740,47.0,0,230,0.0,64.0
741,62.0,0,104,0.0,64.0
742,65.0,0,116,0.0,64.0
743,44.0,0,318,0.0,64.0
744,62.0,0,102,0.0,64.0
745,71.0,0,240,0.0,64.0
746,65.0,0,114,0.0,64.0
747,43.0,0,124,0.0,64.0
748,62.0,0,102,0.0,64.0
749,63.0,0,140,0.0,64.0
750,72.0,0,200,0.0,64.0
751,48.0,0,184,0.0,64.0
752,60.0,0,128,0.0,64.0
753,63.0,0,112,0.0,64.0
754,54.0,0,238,0.0,64.0
755,60.0,0,108,0.0,64.0
756,63.0,0,108,0.0,64.0
757,53.0,0,244,0.0,64.0
758,60.0,0,112,0.0,64.0
759,63.0,0,112,0.0,64.0
760,51.0,0,244,0.0,64.0
761,60.0,0,110,0.0,64.0
762,63.0,0,116,0.0,64.0
763,48.0,0,248,0.0,64.0
764,60.0,0,110,0.0,64.0
765,63.0,0,122,0.0,64.0
766,45.0,0,224,0.0,64.0
767,60.0,0,106,0.0,64.0
768,63.0,0,116,0.0,64.0
769,42.0,0,320,0.0,64.0
770,60.0,0,94,0.0,64.0
771,63.0,0,136,0.0,64.0
772,69.0,0,240,0.0,64.0
773,41.0,0,120,0.0,64.0
774,60.0,0,96,0.0,64.0
775,46.0,0,180,0.0,64.0
776,61.0,0,116,0.0,64.0
777,70.0,0,230,0.0,64.0
778,58.0,0,106,0.0,64.0
779,52.0,0,256,0.0,64.0
780,61.0,0,118,0.0,64.0
781,58.0,0,110,0.0,64.0
782,61.0,0,106,0.0,64.0
783,51.0,0,216,0.0,64.0
784,58.0,0,122,0.0,64.0
785,49.0,0,240,0.0,64.0
786,61.0,0,114,0.0,64.0
787,58.0,0,108,0.0,64.0
788,61.0,0,120,0.0,64.0
789,46.0,0,226,0.0,64.0
790,58.0,0,110,0.0,64.0
791,61.0,0,110,0.0,64.0
792,43.0,0,226,0.0,64.0
793,58.0,0,112,0.0,64.0
794,61.0,0,104,0.0,64.0
795,40.0,0,220,0.0,64.0
796,58.0,0,102,0.0,64.0
797,61.0,0,106,0.0,64.0
798,39.0,0,460,0.0,64.0
799,58.0,0,76,0.0,64.0
800,67.0,0,480,0.0,64.0
801,61.0,0,128,0.0,64.0
802,58.0,0,100,0.0,64.0
803,61.0,0,120,0.0,64.0
804,51.0,0,470,0.0,64.0
805,58.0,0,96,0.0,64.0
806,60.0,0,116,0.0,64.0
807,56.0,0,114,0.0,64.0
808,63.0,0,112,0.0,64.0
809,48.0,0,436,0.0,64.0
810,56.0,0,90,0.0,64.0
811,68.0,0,480,0.0,64.0
812,63.0,0,98,0.0,64.0
813,56.0,0,116,0.0,64.0
814,36.0,0,456,0.0,64.0
815,63.0,0,108,0.0,64.0
816,56.0,0,98,0.0,64.0
817,61.0,0,106,0.0,64.0
818,56.0,0,110,0.0,64.0
819,37.0,0,456,0.0,64.0
820,61.0,0,104,0.0,64.0
821,56.0,0,100,0.0,64.0
822,61.0,0,100,0.0,64.0
823,65.0,0,480,0.0,64.0
824,56.0,0,108,0.0,64.0
825,61.0,0,100,0.0,64.0
826,49.0,0,450,0.0,64.0
827,56.0,0,94,0.0,64.0
828,61.0,0,108,0.0,64.0
829,55.0,0,112,0.0,64.0
830,61.0,0,112,0.0,64.0
831,46.0,0,452,0.0,64.0
832,55.0,0,88,0.0,64.0
833,67.0,0,480,0.0,64.0
834,61.0,0,110,0.0,64.0
835,55.0,0,100,0.0,64.0
836,34.0,0,458,0.0,64.0
837,61.0,0,112,0.0,64.0
838,55.0,0,92,0.0,64.0
839,60.0,0,116,0.0,64.0
840,55.0,0,116,0.0,64.0
841,36.0,0,456,0.0,64.0
842,60.0,0,106,0.0,64.0
843,55.0,0,96,0.0,64.0
844,60.0,0,106,0.0,64.0
845,64.0,0,480,0.0,64.0
846,55.0,0,96,0.0,64.0
847,60.0,0,116,0.0,64.0
848,48.0,0,454,0.0,64.0
849,55.0,0,98,0.0,64.0
850,56.0,0,126,0.0,64.0
851,53.0,0,114,0.0,64.0
852,60.0,0,106,0.0,64.0
853,44.0,0,432,0.0,64.0
854,53.0,0,94,0.0,64.0
855,65.0,0,436,0.0,64.0
856,60.0,0,104,0.0,64.0
857,53.0,0,94,0.0,64.0
858,32.0,0,212,0.0,64.0
859,60.0,0,112,0.0,64.0
860,53.0,0,106,0.0,64.0
861,61.0,0,118,0.0,64.0
862,53.0,0,114,0.0,64.0
863,34.0,0,452,0.0,64.0
864,61.0,0,112,0.0,64.0
865,53.0,0,94,0.0,64.0
866,61.0,0,112,0.0,64.0
867,65.0,0,480,0.0,64.0
868,53.0,0,102,0.0,64.0
869,46.0,0,218,0.0,64.0
870,61.0,0,118,0.0,64.0
871,53.0,0,90,0.0,64.0
872,62.0,0,114,0.0,64.0
873,53.0,0,76,0.0,64.0
874,35.0,0,452,0.0,64.0
875,56.0,0,108,0.0,64.0
876,62.0,0,108,0.0,64.0
877,65.0,0,122,0.0,64.0
878,53.0,0,110,0.0,64.0
879,56.0,0,122,0.0,64.0
880,62.0,0,122,0.0,64.0
881,65.0,0,118,0.0,64.0
882,53.0,0,82,0.0,64.0
883,56.0,0,192,0.0,64.0
884,65.0,0,140,0.0,64.0
885,62.0,0,128,0.0,64.0
886,47.0,0,174,0.0,64.0
887,53.0,0,68,0.0,64.0
888,36.0,0,122,0.0,64.0
889,60.0,0,156,0.0,64.0
890,55.0,0,148,0.0,64.0
891,64.0,0,156,0.0,64.0
892,48.0,0,86,0.0,64.0
893,52.0,0,124,0.0,64.0
894,48.0,0,126,0.0,64.0
895,52.0,0,124,0.0,64.0
896,48.0,0,124,0.0,64.0
897,52.0,0,118,0.0,64.0
898,72.0,0,240,0.0,64.0
899,48.0,0,124,0.0,64.0
900,53.0,0,140,0.0,64.0
901,68.0,0,162,0.0,64.0
902,48.0,0,136,0.0,64.0
903,53.0,0,124,0.0,64.0
904,48.0,0,126,0.0,64.0
905,53.0,0,118,0.0,64.0
906,48.0,0,116,0.0,64.0
907,77.0,0,238,0.0,64.0
908,56.0,0,122,0.0,64.0
909,48.0,0,126,0.0,64.0
910,76.0,0,164,0.0,64.0
911,55.0,0,114,0.0,64.0
912,48.0,0,140,0.0,64.0
913,55.0,0,120,0.0,64.0
914,48.0,0,122,0.0,64.0
915,55.0,0,136,0.0,64.0
916,48.0,0,116,0.0,64.0
917,84.0,0,234,0.0,64.0
918,58.0,0,164,0.0,64.0
919,48.0,0,116,0.0,64.0
920,56.0,0,116,0.0,64.0
921,77.0,0,60,0.0,64.0
922,48.0,0,114,0.0,64.0
923,60.0,0,126,0.0,64.0
924,48.0,0,120,0.0,64.0
925,59.0,0,122,0.0,64.0
926,77.0,0,438,0.0,64.0
927,89.0,0,436,0.0,64.0
928,48.0,0,108,0.0,64.0
929,62.0,0,120,0.0,64.0
930,48.0,0,106,0.0,64.0
931,60.0,0,130,0.0,64.0
932,76.0,0,152,0.0,64.0
933,88.0,0,158,0.0,64.0
934,48.0,0,134,0.0,64.0
935,52.0,0,112,0.0,64.0
936,48.0,0,126,0.0,64.0
937,52.0,0,118,0.0,64.0
938,48.0,0,120,0.0,64.0
939,55.0,0,130,0.0,64.0
940,74.0,0,66,0.0,64.0
941,72.0,0,60,0.0,64.0
942,48.0,0,134,0.0,64.0
943,71.0,0,52,0.0,64.0
944,72.0,0,58,0.0,64.0
945,53.0,0,134,0.0,64.0
946,68.0,0,30,0.0,64.0
947,48.0,0,116,0.0,64.0
948,53.0,0,118,0.0,64.0
949,68.0,0,50,0.0,64.0
950,48.0,0,126,0.0,64.0
951,53.0,0,114,0.0,64.0
952,48.0,0,116,0.0,64.0
953,56.0,0,160,0.0,64.0
954,79.0,0,56,0.0,64.0
955,77.0,0,56,0.0,64.0
956,48.0,0,122,0.0,64.0
957,76.0,0,54,0.0,64.0
958,77.0,0,46,0.0,64.0
959,55.0,0,120,0.0,64.0
960,76.0,0,38,0.0,64.0
961,48.0,0,112,0.0,64.0
962,55.0,0,122,0.0,64.0
963,76.0,0,46,0.0,64.0
964,48.0,0,116,0.0,64.0
965,55.0,0,120,0.0,64.0
966,48.0,0,114,0.0,64.0
967,86.0,0,62,0.0,64.0
968,58.0,0,120,0.0,64.0
969,84.0,0,56,0.0,64.0
970,48.0,0,122,0.0,64.0
971,83.0,0,54,0.0,64.0
972,84.0,0,48,0.0,64.0
973,56.0,0,118,0.0,64.0
974,77.0,0,44,0.0,64.0
975,48.0,0,114,0.0,64.0
976,60.0,0,108,0.0,64.0
977,77.0,0,48,0.0,64.0
978,48.0,0,112,0.0,64.0
979,59.0,0,120,0.0,64.0
980,48.0,0,142,0.0,64.0
981,89.0,0,204,0.0,64.0
982,77.0,0,198,0.0,64.0
983,62.0,0,114,0.0,64.0
984,48.0,0,114,0.0,64.0
985,76.0,0,36,0.0,64.0
986,88.0,0,36,0.0,64.0
987,60.0,0,112,0.0,64.0
988,48.0,0,120,0.0,64.0
989,88.0,0,34,0.0,64.0
990,76.0,0,34,0.0,64.0
991,60.0,0,114,0.0,64.0
992,48.0,0,124,0.0,64.0
993,58.0,0,106,0.0,64.0
994,48.0,0,120,0.0,64.0
995,58.0,0,120,0.0,64.0
996,73.0,0,224,0.0,64.0
997,85.0,0,224,0.0,64.0
998,48.0,0,124,0.0,64.0
999,56.0,0,130,0.0,64.0
1000,72.0,0,44,0.0,64.0
1001,84.0,0,48,0.0,64.0
1002,48.0,0,102,0.0,64.0
1003,60.0,0,112,0.0,64.0
1004,84.0,0,36,0.0,64.0
1005,72.0,0,30,0.0,64.0
1006,48.0,0,102,0.0,64.0
1007,59.0,0,122,0.0,64.0
1008,48.0,0,158,0.0,64.0
1009,62.0,0,98,0.0,64.0
1010,77.0,0,188,0.0,64.0
1011,89.0,0,184,0.0,64.0
1012,48.0,0,126,0.0,64.0
1013,60.0,0,108,0.0,64.0
1014,88.0,0,54,0.0,64.0
1015,76.0,0,52,0.0,64.0
1016,48.0,0,120,0.0,64.0
1017,76.0,0,44,0.0,64.0
1018,60.0,0,128,0.0,64.0
1019,88.0,0,38,0.0,64.0
1020,48.0,0,132,0.0,64.0
1021,58.0,0,110,0.0,64.0
1022,48.0,0,116,0.0,64.0
1023,58.0,0,118,0.0,64.0
1024,73.0,0,204,0.0,64.0
1025,85.0,0,214,0.0,64.0
1026,48.0,0,124,0.0,64.0
1027,56.0,0,90,0.0,64.0
1028,84.0,0,56,0.0,64.0
1029,72.0,0,46,0.0,64.0
1030,48.0,0,114,0.0,64.0
1031,60.0,0,122,0.0,64.0
1032,72.0,0,42,0.0,64.0
1033,84.0,0,46,0.0,64.0
1034,48.0,0,142,0.0,64.0
1035,59.0,0,128,0.0,64.0
1036,48.0,0,142,0.0,64.0
1037,89.0,0,254,0.0,64.0
1038,77.0,0,230,0.0,64.0
1039,62.0,0,158,0.0,64.0
1040,48.0,0,158,0.0,64.0
1041,76.0,0,318,0.0,64.0
1042,88.0,0,324,0.0,64.0
1043,60.0,0,94,0.0,64.0
1044,60.0,0,92,0.0,64.0
1045,60.0,0,86,0.0,64.0
1046,60.0,0,84,0.0,64.0
1047,60.0,0,84,0.0,64.0
1048,60.0,0,86,0.0,64.0
1049,60.0,0,74,0.0,64.0
1050,60.0,0,82,0.0,64.0
1051,61.0,0,78,0.0,64.0
1052,60.0,0,72,0.0,64.0
1053,61.0,0,70,0.0,64.0
1054,60.0,0,66,0.0,64.0
1055,68.0,0,50,0.0,64.0
1056,66.0,0,44,0.0,64.0
1057,65.0,0,56,0.0,64.0
1058,66.0,0,96,0.0,64.0
1059,60.0,0,76,0.0,64.0
1060,61.0,0,74,0.0,64.0
1061,61.0,0,78,0.0,64.0
1062,60.0,0,70,0.0,64.0
1063,58.0,0,72,0.0,64.0
1064,61.0,0,94,0.0,64.0
1065,61.0,0,88,0.0,64.0
1066,58.0,0,70,0.0,64.0
1067,87.0,0,50,0.0,64.0
1068,85.0,0,48,0.0,64.0
1069,84.0,0,48,0.0,64.0
1070,85.0,0,48,0.0,64.0
1071,58.0,0,66,0.0,64.0
1072,61.0,0,78,0.0,64.0
1073,61.0,0,90,0.0,64.0
1074,58.0,0,64,0.0,64.0
1075,58.0,0,70,0.0,64.0
1076,60.0,0,78,0.0,64.0
1077,58.0,0,66,0.0,64.0
1078,60.0,0,64,0.0,64.0
1079,65.0,0,48,0.0,64.0
1080,64.0,0,46,0.0,64.0
1081,62.0,0,38,0.0,64.0
1082,60.0,0,70,0.0,64.0
1083,64.0,0,44,0.0,64.0
1084,58.0,0,68,0.0,64.0
1085,60.0,0,68,0.0,64.0
1086,58.0,0,74,0.0,64.0
1087,56.0,0,70,0.0,64.0
1088,60.0,0,82,0.0,64.0
1089,60.0,0,80,0.0,64.0
1090,56.0,0,62,0.0,64.0
1091,85.0,0,44,0.0,64.0
1092,84.0,0,48,0.0,64.0
1093,83.0,0,34,0.0,64.0
1094,84.0,0,44,0.0,64.0
1095,60.0,0,74,0.0,64.0
1096,56.0,0,70,0.0,64.0
1097,60.0,0,86,0.0,64.0
1098,56.0,0,66,0.0,64.0
1099,56.0,0,80,0.0,64.0
1100,58.0,0,88,0.0,64.0
1101,58.0,0,104,0.0,64.0
1102,56.0,0,90,0.0,64.0
1103,63.0,0,48,0.0,64.0
1104,62.0,0,46,0.0,64.0
1105,60.0,0,40,0.0,64.0
1106,62.0,0,50,0.0,64.0
1107,58.0,0,86,0.0,64.0
1108,56.0,0,74,0.0,64.0
1109,58.0,0,68,0.0,64.0
1110,56.0,0,56,0.0,64.0
1111,64.0,0,102,0.0,64.0
1112,55.0,0,86,0.0,64.0
1113,58.0,0,102,0.0,64.0
1114,58.0,0,84,0.0,64.0
1115,55.0,0,74,0.0,64.0
1116,64.0,0,84,0.0,64.0
1117,84.0,0,54,0.0,64.0
1118,82.0,0,44,0.0,64.0
1119,81.0,0,40,0.0,64.0
1120,82.0,0,44,0.0,64.0
1121,58.0,0,78,0.0,64.0
1122,55.0,0,72,0.0,64.0
1123,64.0,0,82,0.0,64.0
1124,58.0,0,70,0.0,64.0
1125,55.0,0,74,0.0,64.0
1126,64.0,0,70,0.0,64.0
1127,56.0,0,94,0.0,64.0
1128,53.0,0,94,0.0,64.0
1129,65.0,0,68,0.0,64.0
1130,60.0,0,94,0.0,64.0
1131,68.0,0,60,0.0,64.0
1132,72.0,0,80,0.0,64.0
1133,77.0,0,70,0.0,64.0
1134,80.0,0,370,0.0,64.0
1135,56.0,0,80,0.0,64.0
1136,60.0,0,82,0.0,64.0
1137,53.0,0,90,0.0,64.0
1138,79.0,0,60,0.0,64.0
1139,77.0,0,60,0.0,64.0
1140,60.0,0,82,0.0,64.0
1141,76.0,0,50,0.0,64.0
1142,53.0,0,86,0.0,64.0
1143,56.0,0,82,0.0,64.0
1144,77.0,0,58,0.0,64.0
1145,56.0,0,74,0.0,64.0
1146,53.0,0,80,0.0,64.0
1147,60.0,0,62,0.0,64.0
1148,67.0,0,64,0.0,64.0
1149,58.0,0,116,0.0,64.0
1150,52.0,0,102,0.0,64.0
1151,55.0,0,100,0.0,64.0
1152,59.0,0,56,0.0,64.0
1153,72.0,0,64,0.0,64.0
1154,76.0,0,58,0.0,64.0
1155,79.0,0,74,0.0,64.0
1156,82.0,0,384,0.0,64.0
1157,58.0,0,92,0.0,64.0
1158,55.0,0,74,0.0,64.0
1159,52.0,0,74,0.0,64.0
1160,60.0,0,70,0.0,64.0
1161,80.0,0,68,0.0,64.0
1162,79.0,0,66,0.0,64.0
1163,77.0,0,60,0.0,64.0
1164,55.0,0,80,0.0,64.0
1165,58.0,0,86,0.0,64.0
1166,52.0,0,68,0.0,64.0
1167,60.0,0,64,0.0,64.0
1168,79.0,0,56,0.0,64.0
1169,55.0,0,72,0.0,64.0
1170,58.0,0,68,0.0,64.0
1171,52.0,0,64,0.0,64.0
1172,60.0,0,60,0.0,64.0
1173,72.0,0,50,0.0,64.0
1174,80.0,0,376,0.0,64.0
1175,53.0,0,400,0.0,64.0
1176,56.0,0,386,0.0,64.0
1177,60.0,0,404,0.0,64.0
1178,79.0,0,64,0.0,64.0
1179,77.0,0,52,0.0,64.0
1180,76.0,0,58,0.0,64.0
1181,77.0,0,56,0.0,64.0
1182,72.0,0,84,0.0,64.0
1183,55.0,0,464,0.0,64.0
1184,58.0,0,462,0.0,64.0
1185,64.0,0,474,0.0,64.0
1186,82.0,0,410,0.0,64.0
1187,80.0,0,70,0.0,64.0
1188,79.0,0,60,0.0,64.0
1189,77.0,0,46,0.0,64.0
1190,79.0,0,86,0.0,64.0
1191,72.0,0,742,0.0,64.0
1192,77.0,0,686,0.0,64.0
1193,80.0,0,636,0.0,64.0
1194,65.0,0,126,0.0,64.0
1195,84.0,0,630,0.0,64.0
1196,56.0,0,130,0.0,64.0
1197,60.0,0,116,0.0,64.0
1198,61.0,0,96,0.0,64.0
1199,82.0,0,200,0.0,64.0
1200,58.0,0,108,0.0,64.0
1201,67.0,0,104,0.0,64.0
1202,80.0,0,164,0.0,64.0
1203,79.0,0,160,0.0,64.0
1204,77.0,0,156,0.0,64.0
1205,76.0,0,78,0.0,64.0
1206,77.0,0,62,0.0,64.0
1207,79.0,0,30,0.0,64.0
1208,67.0,0,524,0.0,64.0
1209,60.0,0,516,0.0,64.0
1210,77.0,0,850,0.0,64.0
1211,76.0,0,626,0.0,64.0
1212,48.0,0,72,0.0,64.0
1213,53.0,0,58,0.0,64.0
1214,56.0,0,42,0.0,64.0
1215,60.0,0,70,0.0,64.0
1216,65.0,0,60,0.0,64.0
1217,68.0,0,312,0.0,64.0
1218,67.0,0,64,0.0,64.0
1219,65.0,0,48,0.0,64.0
1220,64.0,0,52,0.0,64.0
1221,65.0,0,64,0.0,64.0
1222,65.0,0,56,0.0,64.0
1223,66.0,0,920,0.0,64.0
1224,65.0,0,914,0.0,64.0
1225,82.0,0,344,0.0,64.0
1226,80.0,0,64,0.0,64.0
1227,78.0,0,50,0.0,64.0
1228,77.0,0,62,0.0,64.0
1229,78.0,0,52,0.0,64.0
1230,78.0,0,52,0.0,64.0
1231,66.0,0,880,0.0,64.0
1232,63.0,0,838,0.0,64.0
1233,78.0,0,924,0.0,64.0
1234,73.0,0,74,0.0,64.0
1235,72.0,0,56,0.0,64.0
1236,71.0,0,62,0.0,64.0
1237,72.0,0,42,0.0,64.0
1238,72.0,0,46,0.0,64.0
1239,63.0,0,936,0.0,64.0
1240,69.0,0,930,0.0,64.0
1241,72.0,0,906,0.0,64.0
1242,78.0,0,62,0.0,64.0
1243,77.0,0,36,0.0,64.0
1244,76.0,0,54,0.0,64.0
1245,77.0,0,54,0.0,64.0
1246,77.0,0,42,0.0,64.0
1247,77.0,0,862,0.0,64.0
1248,61.0,0,846,0.0,64.0
1249,65.0,0,830,0.0,64.0
1250,72.0,0,72,0.0,64.0
1251,70.0,0,72,0.0,64.0
1252,69.0,0,64,0.0,64.0
1253,70.0,0,40,0.0,64.0
1254,70.0,0,56,0.0,64.0
1255,65.0,0,712,0.0,64.0
1256,71.0,0,1036,0.0,64.0
1257,62.0,0,1834,0.0,64.0
1258,79.0,0,54,0.0,64.0
1259,77.0,0,42,0.0,64.0
1260,76.0,0,48,0.0,64.0
1261,77.0,0,228,0.0,64.0
1262,64.0,0,248,0.0,64.0
1263,79.0,0,226,0.0,64.0
1264,80.0,0,228,0.0,64.0
1265,65.0,0,222,0.0,64.0
1266,67.0,0,242,0.0,64.0
1267,76.0,0,256,0.0,64.0
1268,68.0,0,228,0.0,64.0
1269,77.0,0,220,0.0,64.0
1270,65.0,0,180,0.0,64.0
1271,71.0,0,226,0.0,64.0
1272,64.0,0,230,0.0,64.0
1273,60.0,0,1410,0.0,64.0
1274,72.0,0,238,0.0,64.0
1275,76.0,0,258,0.0,64.0
1276,67.0,0,232,0.0,64.0
1277,65.0,0,246,0.0,64.0
1278,77.0,0,236,0.0,64.0
1279,64.0,0,230,0.0,64.0
1280,79.0,0,228,0.0,64.0
1281,80.0,0,252,0.0,64.0
1282,65.0,0,202,0.0,64.0
1283,76.0,0,256,0.0,64.0
1284,70.0,0,214,0.0,64.0
1285,61.0,0,446,0.0,64.0
1286,68.0,0,226,0.0,64.0
1287,77.0,0,214,0.0,64.0
1288,65.0,0,222,0.0,64.0
1289,71.0,0,220,0.0,64.0
1290,48.0,0,110,0.0,64.0
1291,72.0,0,250,0.0,64.0
1292,64.0,0,246,0.0,64.0
1293,60.0,0,102,0.0,64.0
1294,48.0,0,92,0.0,64.0
1295,60.0,0,88,0.0,64.0
1296,48.0,0,88,0.0,64.0
1297,60.0,0,94,0.0,64.0
1298,73.0,0,238,0.0,64.0
1299,48.0,0,80,0.0,64.0
1300,60.0,0,96,0.0,64.0
1301,48.0,0,92,0.0,64.0
1302,72.0,0,244,0.0,64.0
1303,60.0,0,100,0.0,64.0
1304,48.0,0,106,0.0,64.0
1305,70.0,0,220,0.0,64.0
1306,60.0,0,94,0.0,64.0
1307,67.0,0,220,0.0,64.0
1308,48.0,0,118,0.0,64.0
1309,60.0,0,74,0.0,64.0
1310,48.0,0,120,0.0,64.0
1311,64.0,0,230,0.0,64.0
1312,60.0,0,74,0.0,64.0
1313,58.0,0,450,0.0,64.0
1314,61.0,0,356,0.0,64.0
1315,48.0,0,186,0.0,64.0
1316,48.0,0,170,0.0,64.0
1317,60.0,0,130,0.0,64.0
1318,48.0,0,122,0.0,64.0
1319,56.0,0,104,0.0,64.0
1320,65.0,0,114,0.0,64.0
1321,60.0,0,94,0.0,64.0
1322,48.0,0,100,0.0,64.0
1323,85.0,0,202,0.0,64.0
1324,60.0,0,84,0.0,64.0
1325,48.0,0,80,0.0,64.0
1326,84.0,0,232,0.0,64.0
1327,60.0,0,108,0.0,64.0
1328,82.0,0,234,0.0,64.0
1329,48.0,0,92,0.0,64.0
1330,60.0,0,88,0.0,64.0
1331,48.0,0,98,0.0,64.0
1332,79.0,0,232,0.0,64.0
1333,60.0,0,74,0.0,64.0
1334,48.0,0,102,0.0,64.0
1335,76.0,0,192,0.0,64.0
1336,60.0,0,78,0.0,64.0
1337,58.0,0,472,0.0,64.0
1338,48.0,0,186,0.0,64.0
1339,73.0,0,310,0.0,64.0
1340,48.0,0,128,0.0,64.0
1341,72.0,0,126,0.0,64.0
1342,48.0,0,110,0.0,64.0
1343,77.0,0,78,0.0,64.0
1344,56.0,0,266,0.0,64.0
1345,60.0,0,72,0.0,64.0
1346,48.0,0,94,0.0,64.0
1347,85.0,0,208,0.0,64.0
1348,60.0,0,80,0.0,64.0
1349,48.0,0,90,0.0,64.0
1350,84.0,0,234,0.0,64.0
1351,60.0,0,80,0.0,64.0
1352,48.0,0,104,0.0,64.0
1353,82.0,0,214,0.0,64.0
1354,60.0,0,102,0.0,64.0
1355,58.0,0,104,0.0,64.0
1356,79.0,0,214,0.0,64.0
1357,60.0,0,102,0.0,64.0
1358,76.0,0,196,0.0,64.0
1359,58.0,0,102,0.0,64.0
1360,60.0,0,78,0.0,64.0
1361,56.0,0,126,0.0,64.0
1362,65.0,0,106,0.0,64.0
1363,76.0,0,136,0.0,64.0
1364,60.0,0,110,0.0,64.0
1365,79.0,0,118,0.0,64.0
1366,65.0,0,80,0.0,64.0
1367,77.0,0,60,0.0,64.0
1368,55.0,0,132,0.0,64.0
1369,77.0,0,110,0.0,64.0
1370,64.0,0,88,0.0,64.0
1371,58.0,0,100,0.0,64.0
1372,80.0,0,128,0.0,64.0
1373,64.0,0,82,0.0,64.0
1374,79.0,0,46,0.0,64.0
1375,53.0,0,138,0.0,64.0
1376,60.0,0,98,0.0,64.0
1377,79.0,0,118,0.0,64.0
1378,56.0,0,98,0.0,64.0
1379,82.0,0,126,0.0,64.0
1380,60.0,0,82,0.0,64.0
1381,80.0,0,46,0.0,64.0
1382,50.0,0,122,0.0,64.0
1383,83.0,0,92,0.0,64.0
1384,59.0,0,94,0.0,64.0
1385,89.0,0,114,0.0,64.0
1386,53.0,0,118,0.0,64.0
1387,83.0,0,100,0.0,64.0
1388,59.0,0,70,0.0,64.0
1389,48.0,0,136,0.0,64.0
1390,84.0,0,250,0.0,64.0
1391,60.0,0,86,0.0,64.0
1392,52.0,0,108,0.0,64.0
1393,60.0,0,88,0.0,64.0
1394,49.0,0,144,0.0,64.0
1395,83.0,0,122,0.0,64.0
1396,59.0,0,76,0.0,64.0
1397,53.0,0,112,0.0,64.0
1398,89.0,0,120,0.0,64.0
1399,83.0,0,96,0.0,64.0
1400,59.0,0,62,0.0,64.0
1401,48.0,0,120,0.0,64.0
1402,84.0,0,196,0.0,64.0
1403,60.0,0,92,0.0,64.0
1404,52.0,0,112,0.0,64.0
1405,60.0,0,56,0.0,64.0
1406,46.0,0,140,0.0,64.0
1407,76.0,0,102,0.0,64.0
1408,49.0,0,110,0.0,64.0
1409,85.0,0,130,0.0,64.0
1410,55.0,0,74,0.0,64.0
1411,76.0,0,96,0.0,64.0
1412,44.0,0,124,0.0,64.0
1413,77.0,0,272,0.0,64.0
1414,53.0,0,90,0.0,64.0
1415,48.0,0,102,0.0,64.0
1416,53.0,0,76,0.0,64.0
1417,46.0,0,138,0.0,64.0
1418,55.0,0,104,0.0,64.0
1419,76.0,0,108,0.0,64.0
1420,49.0,0,110,0.0,64.0
1421,85.0,0,108,0.0,64.0
1422,55.0,0,76,0.0,64.0
1423,76.0,0,54,0.0,64.0
1424,44.0,0,132,0.0,64.0
1425,53.0,0,98,0.0,64.0
1426,76.0,0,88,0.0,64.0
1427,48.0,0,104,0.0,64.0
1428,79.0,0,110,0.0,64.0
1429,53.0,0,72,0.0,64.0
1430,77.0,0,46,0.0,64.0
1431,40.0,0,146,0.0,64.0
1432,77.0,0,118,0.0,64.0
1433,52.0,0,90,0.0,64.0
1434,80.0,0,92,0.0,64.0
1435,48.0,0,116,0.0,64.0
1436,79.0,0,48,0.0,64.0
1437,52.0,0,70,0.0,64.0
1438,41.0,0,146,0.0,64.0
1439,53.0,0,90,0.0,64.0
1440,79.0,0,102,0.0,64.0
1441,48.0,0,114,0.0,64.0
1442,82.0,0,94,0.0,64.0
1443,53.0,0,84,0.0,64.0
1444,80.0,0,48,0.0,64.0
1445,43.0,0,138,0.0,64.0
1446,55.0,0,86,0.0,64.0
1447,81.0,0,84,0.0,64.0
1448,48.0,0,122,0.0,64.0
1449,84.0,0,82,0.0,64.0
1450,55.0,0,82,0.0,64.0
1451,82.0,0,48,0.0,64.0
1452,44.0,0,216,0.0,64.0
1453,84.0,0,88,0.0,64.0
1454,89.0,0,86,0.0,64.0
1455,48.0,0,450,0.0,64.0
1456,87.0,0,98,0.0,64.0
1457,85.0,0,84,0.0,64.0
1458,84.0,0,108,0.0,64.0
1459,82.0,0,60,0.0,64.0
1460,53.0,0,228,0.0,64.0
1461,80.0,0,56,0.0,64.0
1462,79.0,0,102,0.0,64.0
1463,46.0,0,218,0.0,64.0
1464,77.0,0,74,0.0,64.0
1465,75.0,0,102,0.0,64.0
1466,49.0,0,442,0.0,64.0
1467,73.0,0,106,0.0,64.0
1468,72.0,0,100,0.0,64.0
1469,70.0,0,116,0.0,64.0
1470,68.0,0,108,0.0,64.0
1471,55.0,0,226,0.0,64.0
1472,67.0,0,112,0.0,64.0
1473,65.0,0,138,0.0,64.0
1474,48.0,0,234,0.0,64.0
1475,64.0,0,124,0.0,64.0
1476,61.0,0,112,0.0,64.0
1477,53.0,0,454,0.0,64.0
1478,60.0,0,100,0.0,64.0
1479,59.0,0,124,0.0,64.0
1480,60.0,0,106,0.0,64.0
1481,59.0,0,120,0.0,64.0
1482,56.0,0,238,0.0,64.0
1483,60.0,0,114,0.0,64.0
1484,59.0,0,120,0.0,64.0
1485,58.0,0,236,0.0,64.0
1486,60.0,0,126,0.0,64.0
1487,61.0,0,122,0.0,64.0
1488,55.0,0,252,0.0,64.0
1489,60.0,0,124,0.0,64.0
1490,59.0,0,118,0.0,64.0
1491,52.0,0,232,0.0,64.0
1492,60.0,0,114,0.0,64.0
1493,61.0,0,114,0.0,64.0
1494,46.0,0,222,0.0,64.0
1495,60.0,0,52,0.0,64.0
1496,44.0,0,218,0.0,64.0
1497,84.0,0,102,0.0,64.0
1498,48.0,0,482,0.0,64.0
1499,89.0,0,136,0.0,64.0
1500,87.0,0,132,0.0,64.0
1501,85.0,0,96,0.0,64.0
1502,84.0,0,104,0.0,64.0
1503,82.0,0,62,0.0,64.0
1504,53.0,0,238,0.0,64.0
1505,80.0,0,52,0.0,64.0
1506,79.0,0,60,0.0,64.0
1507,46.0,0,222,0.0,64.0
1508,77.0,0,102,0.0,64.0
1509,75.0,0,128,0.0,64.0
1510,49.0,0,478,0.0,64.0
1511,73.0,0,112,0.0,64.0
1512,72.0,0,134,0.0,64.0
1513,70.0,0,126,0.0,64.0
1514,68.0,0,122,0.0,64.0
1515,55.0,0,236,0.0,64.0
1516,67.0,0,136,0.0,64.0
1517,65.0,0,122,0.0,64.0
1518,48.0,0,240,0.0,64.0
1519,64.0,0,148,0.0,64.0
1520,61.0,0,124,0.0,64.0
1521,53.0,0,466,0.0,64.0
1522,60.0,0,96,0.0,64.0
1523,59.0,0,116,0.0,64.0
1524,60.0,0,108,0.0,64.0
1525,56.0,0,168,0.0,64.0
1526,59.0,0,112,0.0,64.0
1527,60.0,0,122,0.0,64.0
1528,59.0,0,128,0.0,64.0
1529,60.0,0,106,0.0,64.0
1530,61.0,0,138,0.0,64.0
1531,36.0,0,172,0.0,64.0
1532,60.0,0,88,0.0,64.0
1533,60.0,0,138,0.0,64.0
1534,36.0,0,178,0.0,64.0
1535,58.0,0,126,0.0,64.0
1536,56.0,0,122,0.0,64.0
1537,36.0,0,196,0.0,64.0
1538,55.0,0,110,0.0,64.0
1539,41.0,0,244,0.0,64.0
1540,53.0,0,154,0.0,64.0
1541,53.0,0,126,0.0,64.0
1542,68.0,0,348,0.0,64.0
1543,53.0,0,66,0.0,64.0
1544,50.0,0,62,0.0,64.0
1545,59.0,0,58,0.0,64.0
1546,67.0,0,134,0.0,64.0
1547,65.0,0,504,0.0,64.0
1548,56.0,0,62,0.0,64.0
1549,48.0,0,48,0.0,64.0
1550,60.0,0,62,0.0,64.0
1551,53.0,0,56,0.0,64.0
1552,64.0,0,362,0.0,64.0
1553,58.0,0,58,0.0,64.0
1554,55.0,0,46,0.0,64.0
1555,48.0,0,54,0.0,64.0
1556,72.0,0,62,0.0,64.0
1557,72.0,0,252,0.0,64.0
1558,65.0,0,272,0.0,64.0
1559,53.0,0,62,0.0,64.0
1560,56.0,0,66,0.0,64.0
1561,68.0,0,350,0.0,64.0
1562,50.0,0,52,0.0,64.0
1563,56.0,0,56,0.0,64.0
1564,59.0,0,64,0.0,64.0
1565,53.0,0,54,0.0,64.0
1566,67.0,0,130,0.0,64.0
1567,65.0,0,480,0.0,64.0
1568,56.0,0,64,0.0,64.0
1569,53.0,0,66,0.0,64.0
1570,60.0,0,60,0.0,64.0
1571,48.0,0,50,0.0,64.0
1572,64.0,0,374,0.0,64.0
1573,48.0,0,54,0.0,64.0
1574,55.0,0,68,0.0,64.0
1575,58.0,0,60,0.0,64.0
1576,72.0,0,70,0.0,64.0
1577,72.0,0,230,0.0,64.0
1578,56.0,0,60,0.0,64.0
1579,53.0,0,50,0.0,64.0
1580,65.0,0,46,0.0,64.0
1581,72.0,0,46,0.0,64.0
1582,80.0,0,412,0.0,64.0
1583,68.0,0,62,0.0,64.0
1584,61.0,0,46,0.0,64.0
1585,65.0,0,50,0.0,64.0
1586,71.0,0,68,0.0,64.0
1587,78.0,0,14,0.0,64.0
1588,79.0,0,104,0.0,64.0
1589,77.0,0,472,0.0,64.0
1590,68.0,0,58,0.0,64.0
1591,60.0,0,52,0.0,64.0
1592,72.0,0,44,0.0,64.0
1593,65.0,0,54,0.0,64.0
1594,76.0,0,354,0.0,64.0
1595,67.0,0,50,0.0,64.0
1596,58.0,0,66,0.0,64.0
1597,60.0,0,58,0.0,64.0
1598,84.0,0,66,0.0,64.0
1599,65.0,0,864,0.0,64.0
1600,60.0,0,864,0.0,64.0
1601,57.0,0,856,0.0,64.0
1602,84.0,0,732,0.0,64.0
1603,75.0,0,746,0.0,64.0
1604,72.0,0,772,0.0,64.0
1605,61.0,0,94,0.0,64.0
1606,70.0,0,118,0.0,64.0
1607,77.0,0,130,0.0,64.0
1608,73.0,0,122,0.0,64.0
1609,65.0,0,102,0.0,64.0
1610,58.0,0,96,0.0,64.0
1611,58.0,0,54,0.0,64.0
1612,61.0,0,58,0.0,64.0
1613,65.0,0,54,0.0,64.0
1614,70.0,0,32,0.0,64.0
1615,73.0,0,34,0.0,64.0
1616,82.0,0,44,0.0,64.0
1617,82.0,0,800,0.0,64.0
1618,55.0,0,934,0.0,64.0
1619,58.0,0,988,0.0,64.0
1620,63.0,0,800,0.0,64.0
1621,73.0,0,800,0.0,64.0
1622,70.0,0,818,0.0,64.0
1623,56.0,0,100,0.0,64.0
1624,60.0,0,106,0.0,64.0
1625,63.0,0,94,0.0,64.0
1626,75.0,0,80,0.0,64.0
1627,68.0,0,72,0.0,64.0
1628,72.0,0,70,0.0,64.0
1629,53.0,0,60,0.0,64.0
1630,61.0,0,60,0.0,64.0
1631,80.0,0,60,0.0,64.0
1632,72.0,0,60,0.0,64.0
1633,68.0,0,60,0.0,64.0
1634,61.0,0,60,0.0,64.0
1635,70.0,0,28,0.0,64.0
1636,55.0,0,60,0.0,64.0
1637,74.0,0,28,0.0,64.0
1638,67.0,0,28,0.0,64.0
1639,70.0,0,28,0.0,64.0
1640,52.0,0,28,0.0,64.0
1641,60.0,0,60,0.0,64.0
1642,79.0,0,28,0.0,64.0
1643,67.0,0,60,0.0,64.0
1644,72.0,0,60,0.0,64.0
1645,60.0,0,60,0.0,64.0
1646,65.0,0,60,0.0,64.0
1647,68.0,0,60,0.0,64.0
1648,53.0,0,28,0.0,64.0
1649,65.0,0,28,0.0,64.0
1650,77.0,0,90,0.0,64.0
1651,61.0,0,60,0.0,64.0
1652,49.0,0,90,0.0,64.0
1653,68.0,0,60,0.0,64.0
1654,67.0,0,60,0.0,64.0
1655,55.0,0,60,0.0,64.0
1656,65.0,0,60,0.0,64.0
1657,58.0,0,90,0.0,64.0
1658,46.0,0,90,0.0,64.0
1659,49.0,0,60,0.0,64.0
1660,74.0,0,28,0.0,64.0
1661,77.0,0,60,0.0,64.0
1662,76.0,0,60,0.0,64.0
1663,67.0,0,60,0.0,64.0
1664,55.0,0,60,0.0,64.0
1665,60.0,0,60,0.0,64.0
1666,71.0,0,28,0.0,64.0
1667,70.0,0,60,0.0,64.0
1668,52.0,0,60,0.0,64.0
1669,48.0,0,60,0.0,64.0
1670,64.0,0,60,0.0,64.0
1671,53.0,0,120,0.0,64.0
1672,77.0,0,60,0.0,64.0
1673,41.0,0,150,0.0,64.0
1674,48.0,0,90,0.0,64.0
1675,76.0,0,28,0.0,64.0
1676,65.0,0,60,0.0,64.0
1677,44.0,0,150,0.0,64.0
1678,72.0,0,60,0.0,64.0
1679,68.0,0,60,0.0,64.0
