,note,step,duration,channel,velocity
0,56.0,128,128,0.0,0.0
1,37.0,4,1532,0.0,0.0
2,49.0,0,1532,0.0,0.0
3,61.0,128,128,0.0,0.0
4,64.0,128,128,0.0,0.0
5,56.0,128,128,0.0,0.0
6,61.0,128,128,0.0,0.0
7,64.0,128,128,0.0,0.0
8,56.0,128,128,0.0,0.0
9,61.0,128,128,0.0,0.0
10,64.0,128,128,0.0,0.0
11,56.0,128,128,0.0,0.0
12,61.0,124,128,0.0,0.0
13,64.0,128,128,0.0,0.0
14,47.0,4,1532,0.0,0.0
15,35.0,0,1532,0.0,0.0
16,56.0,132,128,0.0,0.0
17,61.0,120,132,0.0,0.0
18,64.0,132,128,0.0,0.0
19,56.0,128,128,0.0,0.0
20,61.0,128,128,0.0,0.0
21,64.0,128,128,0.0,0.0
22,56.0,128,128,0.0,0.0
23,61.0,128,128,0.0,0.0
24,64.0,128,128,0.0,0.0
25,56.0,128,128,0.0,0.0
26,61.0,124,128,0.0,0.0
27,64.0,128,128,0.0,0.0
28,57.0,128,128,0.0,0.0
29,33.0,4,764,0.0,0.0
30,45.0,0,764,0.0,0.0
31,61.0,128,128,0.0,0.0
32,64.0,128,128,0.0,0.0
33,57.0,128,128,0.0,0.0
34,61.0,124,128,0.0,0.0
35,64.0,248,128,0.0,0.0
36,42.0,4,764,0.0,0.0
37,30.0,0,764,0.0,0.0
38,57.0,8,248,0.0,0.0
39,62.0,128,128,0.0,0.0
40,66.0,128,128,0.0,0.0
41,57.0,128,128,0.0,0.0
42,62.0,124,128,0.0,0.0
43,66.0,128,128,0.0,0.0
44,44.0,4,764,0.0,0.0
45,56.0,128,128,0.0,0.0
46,32.0,0,764,0.0,0.0
47,60.0,128,128,0.0,0.0
48,66.0,128,128,0.0,0.0
49,56.0,128,128,0.0,0.0
50,61.0,124,128,0.0,0.0
51,64.0,128,128,0.0,0.0
52,32.0,0,380,0.0,0.0
53,56.0,128,128,0.0,0.0
54,44.0,4,380,0.0,0.0
55,61.0,124,128,0.0,0.0
56,63.0,128,128,0.0,0.0
57,54.0,128,128,0.0,0.0
58,60.0,128,128,0.0,0.0
59,63.0,128,128,0.0,0.0
60,49.0,0,1532,0.0,0.0
61,44.0,0,1532,0.0,0.0
62,37.0,4,1532,0.0,0.0
63,52.0,128,128,0.0,0.0
64,56.0,128,128,0.0,0.0
65,61.0,128,128,0.0,0.0
66,56.0,128,128,0.0,0.0
67,61.0,128,128,0.0,0.0
68,64.0,128,128,0.0,0.0
69,56.0,128,128,0.0,0.0
70,61.0,128,128,0.0,0.0
71,64.0,128,128,0.0,0.0
72,68.0,92,288,0.0,0.0
73,56.0,128,128,0.0,0.0
74,61.0,32,128,0.0,0.0
75,64.0,0,128,0.0,0.0
76,68.0,128,96,0.0,0.0
77,56.0,128,128,0.0,0.0
78,36.0,0,1532,0.0,0.0
79,44.0,4,1532,0.0,0.0
80,48.0,0,1532,0.0,0.0
81,68.0,4,1148,0.0,0.0
82,63.0,128,128,0.0,0.0
83,66.0,128,128,0.0,0.0
84,56.0,128,128,0.0,0.0
85,63.0,128,128,0.0,0.0
86,66.0,128,128,0.0,0.0
87,56.0,128,128,0.0,0.0
88,63.0,124,128,0.0,0.0
89,66.0,128,128,0.0,0.0
90,56.0,128,128,0.0,0.0
91,63.0,32,128,0.0,0.0
92,66.0,0,128,0.0,0.0
93,68.0,92,0,0.0,0.0
94,68.0,128,0,0.0,0.0
95,56.0,128,128,0.0,0.0
96,49.0,4,764,0.0,0.0
97,37.0,0,764,0.0,0.0
98,61.0,128,128,0.0,0.0
99,64.0,128,128,0.0,0.0
100,56.0,128,128,0.0,0.0
101,61.0,124,128,0.0,0.0
102,64.0,132,128,0.0,0.0
103,57.0,124,132,0.0,0.0
104,69.0,4,764,0.0,0.0
105,42.0,0,764,0.0,0.0
106,30.0,0,764,0.0,0.0
107,61.0,128,128,0.0,0.0
108,66.0,128,128,0.0,0.0
109,57.0,128,128,0.0,0.0
110,61.0,124,128,0.0,0.0
111,66.0,128,128,0.0,0.0
112,35.0,0,764,0.0,0.0
113,47.0,0,764,0.0,0.0
114,68.0,4,764,0.0,0.0
115,56.0,128,128,0.0,0.0
116,59.0,128,128,0.0,0.0
117,64.0,128,128,0.0,0.0
118,56.0,128,128,0.0,0.0
119,59.0,124,128,0.0,0.0
120,64.0,128,128,0.0,0.0
121,66.0,96,164,0.0,0.0
122,57.0,32,128,0.0,0.0
123,35.0,0,764,0.0,0.0
124,47.0,0,764,0.0,0.0
125,59.0,124,128,0.0,0.0
126,63.0,256,128,0.0,0.0
127,57.0,4,28,0.0,0.0
128,71.0,4,380,0.0,0.0
129,59.0,124,128,0.0,0.0
130,63.0,128,128,0.0,0.0
131,56.0,128,128,0.0,0.0
132,52.0,4,1532,0.0,0.0
133,40.0,0,1532,0.0,0.0
134,59.0,124,128,0.0,0.0
135,64.0,4,124,0.0,0.0
136,56.0,128,128,0.0,0.0
137,59.0,128,128,0.0,0.0
138,64.0,128,128,0.0,0.0
139,56.0,128,128,0.0,0.0
140,59.0,128,128,0.0,0.0
141,64.0,128,128,0.0,0.0
142,56.0,128,128,0.0,0.0
143,59.0,124,128,0.0,0.0
144,64.0,128,128,0.0,0.0
145,55.0,128,128,0.0,0.0
146,52.0,0,1532,0.0,0.0
147,40.0,4,1532,0.0,0.0
148,59.0,128,128,0.0,0.0
149,64.0,128,128,0.0,0.0
150,55.0,128,128,0.0,0.0
151,59.0,128,128,0.0,0.0
152,64.0,128,128,0.0,0.0
153,55.0,128,128,0.0,0.0
154,59.0,128,128,0.0,0.0
155,64.0,128,128,0.0,0.0
156,67.0,92,288,0.0,0.0
157,55.0,128,128,0.0,0.0
158,59.0,32,128,0.0,0.0
159,64.0,128,128,0.0,0.0
160,67.0,0,0,0.0,0.0
161,38.0,0,1532,0.0,0.0
162,55.0,128,128,0.0,0.0
163,50.0,4,1532,0.0,0.0
164,59.0,128,128,0.0,0.0
165,65.0,128,128,0.0,0.0
166,55.0,128,128,0.0,0.0
167,59.0,128,128,0.0,0.0
168,65.0,128,128,0.0,0.0
169,55.0,128,128,0.0,0.0
170,59.0,124,128,0.0,0.0
171,65.0,128,128,0.0,0.0
172,67.0,92,288,0.0,0.0
173,55.0,128,128,0.0,0.0
174,59.0,32,128,0.0,0.0
175,65.0,0,128,0.0,0.0
176,67.0,128,96,0.0,0.0
177,67.0,4,1148,0.0,0.0
178,36.0,0,380,0.0,0.0
179,48.0,4,380,0.0,0.0
180,55.0,128,128,0.0,0.0
181,60.0,124,128,0.0,0.0
182,64.0,128,128,0.0,0.0
183,35.0,0,380,0.0,0.0
184,55.0,128,128,0.0,0.0
185,47.0,4,380,0.0,0.0
186,59.0,124,128,0.0,0.0
187,64.0,128,128,0.0,0.0
188,55.0,128,128,0.0,0.0
189,34.0,4,764,0.0,0.0
190,46.0,0,764,0.0,0.0
191,61.0,124,128,0.0,0.0
192,64.0,128,128,0.0,0.0
193,66.0,0,380,0.0,0.0
194,54.0,128,128,0.0,0.0
195,61.0,124,128,0.0,0.0
196,64.0,128,128,0.0,0.0
197,66.0,4,764,0.0,0.0
198,47.0,0,764,0.0,0.0
199,54.0,128,128,0.0,0.0
200,35.0,0,764,0.0,0.0
201,59.0,128,128,0.0,0.0
202,62.0,128,128,0.0,0.0
203,54.0,128,128,0.0,0.0
204,59.0,124,128,0.0,0.0
205,62.0,128,128,0.0,0.0
206,67.0,4,380,0.0,0.0
207,55.0,128,128,0.0,0.0
208,40.0,0,380,0.0,0.0
209,59.0,124,128,0.0,0.0
210,61.0,128,128,0.0,0.0
211,64.0,4,380,0.0,0.0
212,43.0,128,128,0.0,0.0
213,52.0,0,380,0.0,0.0
214,59.0,124,128,0.0,0.0
215,61.0,128,128,0.0,0.0
216,42.0,0,764,0.0,0.0
217,66.0,4,764,0.0,0.0
218,54.0,128,128,0.0,0.0
219,59.0,128,128,0.0,0.0
220,62.0,256,128,0.0,0.0
221,54.0,0,380,0.0,0.0
222,59.0,124,128,0.0,0.0
223,62.0,128,128,0.0,0.0
224,30.0,0,764,0.0,0.0
225,54.0,128,128,0.0,0.0
226,42.0,8,764,0.0,0.0
227,66.0,0,772,0.0,64.0
228,58.0,128,128,0.0,0.0
229,61.0,128,128,0.0,0.0
230,54.0,128,128,0.0,0.0
231,58.0,124,128,0.0,0.0
232,61.0,124,132,0.0,64.0
233,35.0,4,1916,0.0,64.0
234,47.0,0,1916,0.0,64.0
235,59.0,128,128,0.0,0.0
236,62.0,128,128,0.0,0.0
237,66.0,128,128,0.0,0.0
238,59.0,128,128,0.0,0.0
239,62.0,128,128,0.0,0.0
240,66.0,128,128,0.0,0.0
241,59.0,128,128,0.0,0.0
242,63.0,128,128,0.0,0.0
243,66.0,128,128,0.0,0.0
244,59.0,128,128,0.0,0.0
245,71.0,4,380,0.0,0.0
246,63.0,124,128,0.0,0.0
247,66.0,124,128,0.0,0.0
248,59.0,132,156,0.0,64.0
249,72.0,0,1148,0.0,64.0
250,64.0,124,128,0.0,0.0
251,67.0,252,128,0.0,0.0
252,59.0,80,300,0.0,0.0
253,52.0,0,380,0.0,0.0
254,40.0,4,380,0.0,0.0
255,64.0,48,128,0.0,0.0
256,67.0,128,128,0.0,0.0
257,59.0,128,128,0.0,0.0
258,55.0,0,380,0.0,0.0
259,43.0,4,380,0.0,0.0
260,64.0,124,128,0.0,0.0
261,67.0,128,128,0.0,0.0
262,40.0,0,380,0.0,0.0
263,70.0,4,380,0.0,0.0
264,59.0,128,128,0.0,0.0
265,52.0,0,380,0.0,0.0
266,64.0,124,128,0.0,0.0
267,67.0,128,128,0.0,0.0
268,47.0,0,1664,0.0,64.0
269,35.0,0,1664,0.0,64.0
270,71.0,4,1148,0.0,0.0
271,59.0,128,128,0.0,0.0
272,63.0,128,128,0.0,0.0
273,66.0,128,128,0.0,0.0
274,59.0,128,128,0.0,0.0
275,63.0,128,128,0.0,0.0
276,66.0,128,128,0.0,0.0
277,59.0,128,128,0.0,0.0
278,63.0,124,128,0.0,0.0
279,66.0,128,128,0.0,0.0
280,59.0,152,128,0.0,0.0
281,71.0,132,380,0.0,0.0
282,63.0,48,152,0.0,0.0
283,66.0,52,72,0.0,0.0
284,59.0,128,160,0.0,64.0
285,72.0,0,1148,0.0,0.0
286,64.0,128,128,0.0,0.0
287,67.0,128,128,0.0,0.0
288,59.0,128,128,0.0,0.0
289,40.0,4,380,0.0,0.0
290,52.0,0,380,0.0,0.0
291,64.0,124,128,0.0,0.0
292,67.0,128,128,0.0,0.0
293,55.0,4,380,0.0,0.0
294,59.0,128,128,0.0,0.0
295,43.0,0,380,0.0,0.0
296,64.0,124,128,0.0,0.0
297,67.0,128,128,0.0,0.0
298,59.0,128,128,0.0,0.0
299,40.0,0,380,0.0,0.0
300,52.0,4,380,0.0,0.0
301,70.0,0,380,0.0,0.0
302,64.0,124,128,0.0,0.0
303,67.0,128,128,0.0,0.0
304,59.0,128,128,0.0,0.0
305,71.0,0,764,0.0,0.0
306,47.0,0,764,0.0,0.0
307,35.0,4,764,0.0,0.0
308,63.0,128,128,0.0,0.0
309,66.0,128,128,0.0,0.0
310,59.0,128,128,0.0,0.0
311,63.0,124,128,0.0,0.0
312,66.0,128,128,0.0,0.0
313,44.0,0,764,0.0,0.0
314,32.0,0,764,0.0,0.0
315,59.0,128,128,0.0,0.0
316,71.0,4,764,0.0,0.0
317,62.0,128,128,0.0,0.0
318,65.0,128,128,0.0,0.0
319,59.0,128,128,0.0,0.0
320,62.0,124,128,0.0,0.0
321,65.0,128,128,0.0,0.0
322,59.0,128,128,0.0,0.0
323,29.0,4,764,0.0,0.0
324,41.0,0,764,0.0,0.0
325,71.0,0,764,0.0,0.0
326,61.0,128,128,0.0,0.0
327,68.0,128,128,0.0,0.0
328,59.0,128,128,0.0,0.0
329,61.0,124,128,0.0,0.0
330,68.0,128,128,0.0,0.0
331,42.0,0,764,0.0,0.0
332,57.0,128,128,0.0,0.0
333,30.0,0,764,0.0,0.0
334,69.0,4,764,0.0,0.0
335,61.0,128,128,0.0,0.0
336,66.0,128,128,0.0,0.0
337,57.0,128,128,0.0,0.0
338,61.0,124,128,0.0,0.0
339,66.0,128,128,0.0,0.0
340,47.0,4,764,0.0,0.0
341,55.0,128,128,0.0,0.0
342,35.0,0,764,0.0,0.0
343,67.0,0,764,0.0,0.0
344,59.0,128,128,0.0,0.0
345,62.0,128,128,0.0,0.0
346,55.0,128,128,0.0,0.0
347,59.0,124,128,0.0,0.0
348,62.0,128,128,0.0,0.0
349,66.0,4,764,0.0,0.0
350,36.0,0,764,0.0,0.0
351,54.0,128,128,0.0,0.0
352,48.0,0,764,0.0,0.0
353,57.0,128,128,0.0,0.0
354,63.0,128,128,0.0,0.0
355,54.0,128,128,0.0,0.0
356,57.0,124,128,0.0,0.0
357,63.0,128,128,0.0,0.0
358,49.0,128,128,0.0,0.0
359,37.0,4,764,0.0,0.0
360,61.0,0,764,0.0,0.0
361,54.0,128,128,0.0,0.0
362,57.0,128,128,0.0,0.0
363,49.0,128,128,0.0,0.0
364,54.0,124,128,0.0,0.0
365,57.0,128,128,0.0,0.0
366,49.0,128,128,0.0,0.0
367,37.0,0,380,0.0,0.0
368,61.0,4,380,0.0,0.0
369,54.0,124,128,0.0,0.0
370,56.0,128,128,0.0,0.0
371,37.0,0,128,0.0,0.0
372,49.0,128,128,0.0,0.0
373,61.0,4,380,0.0,0.0
374,53.0,124,128,0.0,0.0
375,56.0,128,128,0.0,0.0
376,30.0,0,1532,0.0,0.0
377,37.0,4,1532,0.0,0.0
378,42.0,0,1532,0.0,0.0
379,54.0,128,128,0.0,0.0
380,57.0,128,128,0.0,0.0
381,61.0,128,128,0.0,0.0
382,57.0,128,128,0.0,0.0
383,61.0,128,128,0.0,0.0
384,66.0,128,128,0.0,0.0
385,61.0,128,128,0.0,0.0
386,66.0,128,128,0.0,0.0
387,69.0,128,128,0.0,0.0
388,61.0,128,128,0.0,0.0
389,73.0,92,288,0.0,0.0
390,66.0,32,128,0.0,0.0
391,69.0,0,128,0.0,0.0
392,49.0,0,1532,0.0,0.0
393,61.0,124,132,0.0,0.0
394,73.0,132,0,0.0,0.0
395,41.0,4,1532,0.0,0.0
396,53.0,0,1532,0.0,0.0
397,68.0,128,128,0.0,0.0
398,71.0,128,128,0.0,0.0
399,61.0,128,128,0.0,0.0
400,68.0,124,128,0.0,0.0
401,71.0,128,128,0.0,0.0
402,61.0,128,128,0.0,0.0
403,68.0,128,128,0.0,0.0
404,71.0,128,128,0.0,0.0
405,61.0,128,128,0.0,0.0
406,73.0,92,288,0.0,0.0
407,68.0,32,128,0.0,0.0
408,71.0,0,128,0.0,0.0
409,61.0,128,128,0.0,0.0
410,73.0,128,0,0.0,0.0
411,54.0,0,764,0.0,0.0
412,42.0,0,764,0.0,0.0
413,66.0,128,128,0.0,0.0
414,69.0,256,128,0.0,0.0
415,61.0,4,380,0.0,0.0
416,66.0,124,128,0.0,0.0
417,69.0,128,128,0.0,0.0
418,39.0,0,380,0.0,0.0
419,51.0,0,380,0.0,0.0
420,60.0,128,128,0.0,0.0
421,72.0,4,380,0.0,0.0
422,66.0,124,128,0.0,0.0
423,69.0,128,128,0.0,0.0
424,49.0,4,380,0.0,0.0
425,37.0,0,380,0.0,0.0
426,61.0,128,128,0.0,0.0
427,73.0,0,380,0.0,0.0
428,66.0,124,128,0.0,0.0
429,69.0,128,128,0.0,0.0
430,75.0,0,1148,0.0,64.0
431,63.0,128,128,0.0,64.0
432,48.0,0,1148,0.0,0.0
433,36.0,0,1148,0.0,0.0
434,44.0,4,1148,0.0,0.0
435,66.0,128,128,0.0,0.0
436,68.0,128,128,0.0,0.0
437,63.0,128,128,0.0,0.0
438,66.0,128,128,0.0,0.0
439,68.0,128,128,0.0,0.0
440,63.0,128,128,0.0,0.0
441,66.0,124,128,0.0,0.0
442,68.0,128,128,0.0,0.0
443,63.0,128,128,0.0,0.0
444,75.0,4,380,0.0,0.0
445,36.0,0,380,0.0,0.0
446,48.0,0,380,0.0,0.0
447,44.0,0,380,0.0,0.0
448,66.0,124,128,0.0,0.0
449,68.0,128,128,0.0,0.0
450,37.0,0,764,0.0,0.0
451,44.0,0,764,0.0,0.0
452,49.0,4,764,0.0,0.0
453,64.0,128,128,0.0,0.0
454,76.0,0,1148,0.0,0.0
455,68.0,128,128,0.0,0.0
456,73.0,128,128,0.0,0.0
457,64.0,128,128,0.0,0.0
458,68.0,124,128,0.0,0.0
459,73.0,128,128,0.0,0.0
460,42.0,4,380,0.0,0.0
461,63.0,128,128,0.0,0.0
462,75.0,0,380,0.0,0.0
463,30.0,0,380,0.0,0.0
464,66.0,124,128,0.0,0.0
465,69.0,128,128,0.0,0.0
466,61.0,128,128,0.0,0.0
467,43.0,0,380,0.0,0.0
468,31.0,0,380,0.0,0.0
469,73.0,4,380,0.0,0.0
470,64.0,124,128,0.0,0.0
471,70.0,256,128,0.0,0.0
472,32.0,0,1532,0.0,64.0
473,72.0,4,380,0.0,64.0
474,44.0,0,1532,0.0,0.0
475,60.0,124,128,0.0,0.0
476,63.0,256,128,0.0,0.0
477,68.0,4,380,0.0,0.0
478,60.0,124,128,0.0,0.0
479,63.0,252,128,0.0,0.0
480,69.0,4,380,0.0,0.0
481,60.0,128,128,0.0,0.0
482,63.0,252,128,0.0,0.0
483,66.0,4,380,0.0,0.0
484,60.0,128,128,0.0,0.0
485,63.0,256,128,0.0,0.0
486,32.0,0,1532,0.0,0.0
487,44.0,0,1532,0.0,0.0
488,48.0,128,128,0.0,0.0
489,51.0,256,128,0.0,0.0
490,56.0,4,380,0.0,0.0
491,48.0,124,128,0.0,0.0
492,51.0,252,128,0.0,0.0
493,57.0,4,380,0.0,0.0
494,48.0,128,128,0.0,0.0
495,51.0,256,128,0.0,0.0
496,54.0,4,380,0.0,0.0
497,48.0,124,128,0.0,0.0
498,51.0,128,128,0.0,0.0
499,32.0,4,1532,0.0,64.0
500,44.0,0,1532,0.0,64.0
501,52.0,128,128,0.0,64.0
502,64.0,124,128,0.0,0.0
503,68.0,260,128,0.0,0.0
504,73.0,4,380,0.0,0.0
505,64.0,124,128,0.0,0.0
506,68.0,256,128,0.0,0.0
507,76.0,4,380,0.0,0.0
508,64.0,124,128,0.0,0.0
509,68.0,252,128,0.0,0.0
510,73.0,0,380,0.0,0.0
511,64.0,128,128,0.0,0.0
512,68.0,256,128,0.0,0.0
513,32.0,4,1532,0.0,0.0
514,44.0,0,1532,0.0,0.0
515,52.0,128,128,0.0,0.0
516,56.0,256,128,0.0,0.0
517,61.0,4,380,0.0,0.0
518,52.0,124,128,0.0,0.0
519,56.0,256,128,0.0,0.0
520,64.0,4,380,0.0,0.0
521,52.0,124,128,0.0,0.0
522,56.0,256,128,0.0,0.0
523,61.0,0,380,0.0,0.0
524,52.0,124,128,0.0,0.0
525,56.0,128,128,0.0,0.0
526,44.0,4,1532,0.0,64.0
527,32.0,0,1532,0.0,0.0
528,51.0,128,128,0.0,0.0
529,57.0,128,128,0.0,0.0
530,54.0,128,128,0.0,0.0
531,60.0,128,128,0.0,0.0
532,57.0,128,128,0.0,0.0
533,63.0,128,128,0.0,0.0
534,60.0,128,128,0.0,0.0
535,66.0,128,128,0.0,0.0
536,63.0,128,128,0.0,0.0
537,69.0,128,128,0.0,0.0
538,66.0,124,128,0.0,0.0
539,72.0,128,128,0.0,0.0
540,32.0,4,1532,0.0,0.0
541,44.0,0,1532,0.0,0.0
542,52.0,128,128,0.0,0.0
543,61.0,128,128,0.0,0.0
544,56.0,128,128,0.0,0.0
545,64.0,128,128,0.0,0.0
546,61.0,128,128,0.0,0.0
547,68.0,128,128,0.0,0.0
548,64.0,128,128,0.0,0.0
549,73.0,128,128,0.0,0.0
550,68.0,128,128,0.0,0.0
551,76.0,128,128,0.0,0.0
552,73.0,124,128,0.0,0.0
553,68.0,128,128,0.0,0.0
554,44.0,4,1532,0.0,64.0
555,61.0,128,128,0.0,0.0
556,32.0,0,1532,0.0,64.0
557,67.0,128,128,0.0,0.0
558,64.0,128,128,0.0,0.0
559,70.0,128,128,0.0,0.0
560,67.0,128,128,0.0,0.0
561,73.0,128,128,0.0,0.0
562,70.0,128,128,0.0,0.0
563,76.0,128,128,0.0,0.0
564,73.0,128,128,0.0,0.0
565,79.0,128,128,0.0,0.0
566,76.0,124,128,0.0,0.0
567,82.0,128,128,0.0,0.0
568,66.0,128,128,0.0,0.0
569,32.0,0,4604,0.0,64.0
570,44.0,4,4604,0.0,64.0
571,72.0,128,128,0.0,0.0
572,69.0,128,128,0.0,0.0
573,75.0,128,128,0.0,0.0
574,72.0,128,128,0.0,0.0
575,78.0,128,128,0.0,0.0
576,75.0,128,128,0.0,0.0
577,81.0,128,128,0.0,0.0
578,78.0,128,128,0.0,0.0
579,84.0,128,128,0.0,0.0
580,81.0,128,128,0.0,0.0
581,87.0,128,128,0.0,64.0
582,84.0,128,128,0.0,0.0
583,78.0,128,128,0.0,0.0
584,81.0,128,128,0.0,0.0
585,75.0,128,128,0.0,0.0
586,78.0,128,128,0.0,0.0
587,72.0,128,128,0.0,0.0
588,75.0,128,128,0.0,0.0
589,69.0,128,128,0.0,0.0
590,72.0,128,128,0.0,0.0
591,66.0,128,128,0.0,0.0
592,69.0,128,128,0.0,0.0
593,63.0,128,128,0.0,64.0
594,66.0,128,128,0.0,0.0
595,60.0,128,128,0.0,0.0
596,63.0,128,128,0.0,0.0
597,57.0,128,128,0.0,0.0
598,60.0,128,128,0.0,0.0
599,54.0,128,128,0.0,0.0
600,57.0,256,128,0.0,0.0
601,51.0,256,256,0.0,0.0
602,54.0,0,128,0.0,0.0
603,49.0,124,256,0.0,0.0
604,54.0,0,128,0.0,0.0
605,57.0,256,128,0.0,0.0
606,48.0,4,764,0.0,0.0
607,32.0,0,1532,0.0,0.0
608,44.0,0,1532,0.0,0.0
609,54.0,128,128,0.0,0.0
610,56.0,128,128,0.0,0.0
611,57.0,128,128,0.0,0.0
612,56.0,124,128,0.0,0.0
613,54.0,256,128,0.0,0.0
614,51.0,4,380,0.0,0.0
615,54.0,124,128,0.0,0.0
616,57.0,256,128,0.0,0.0
617,49.0,4,380,0.0,0.0
618,54.0,124,128,0.0,0.0
619,57.0,256,128,0.0,0.0
620,44.0,0,1532,0.0,0.0
621,32.0,4,1532,0.0,0.0
622,48.0,4,764,0.0,0.0
623,54.0,128,128,0.0,0.0
624,56.0,128,128,0.0,0.0
625,57.0,128,128,0.0,0.0
626,56.0,124,128,0.0,0.0
627,54.0,256,128,0.0,0.0
628,50.0,4,380,0.0,0.0
629,54.0,124,128,0.0,0.0
630,57.0,256,128,0.0,0.0
631,49.0,0,380,0.0,0.0
632,54.0,124,128,0.0,0.0
633,57.0,256,128,0.0,0.0
634,44.0,4,764,0.0,64.0
635,32.0,0,764,0.0,64.0
636,48.0,0,764,0.0,64.0
637,54.0,128,128,0.0,0.0
638,56.0,128,128,0.0,0.0
639,57.0,128,128,0.0,0.0
640,56.0,124,128,0.0,0.0
641,54.0,256,128,0.0,0.0
642,49.0,4,380,0.0,0.0
643,33.0,4,764,0.0,0.0
644,45.0,0,764,0.0,0.0
645,52.0,124,128,0.0,0.0
646,61.0,128,128,0.0,0.0
647,49.0,128,128,0.0,0.0
648,52.0,124,128,0.0,0.0
649,61.0,128,128,0.0,0.0
650,42.0,4,764,0.0,64.0
651,30.0,0,764,0.0,0.0
652,51.0,128,128,0.0,64.0
653,57.0,128,128,0.0,0.0
654,61.0,128,128,0.0,0.0
655,51.0,124,128,0.0,0.0
656,57.0,128,128,0.0,0.0
657,61.0,128,128,0.0,0.0
658,32.0,0,764,0.0,0.0
659,44.0,4,764,0.0,0.0
660,51.0,128,128,0.0,0.0
661,56.0,128,128,0.0,0.0
662,60.0,128,128,0.0,0.0
663,51.0,128,128,0.0,0.0
664,54.0,124,128,0.0,0.0
665,60.0,128,128,0.0,0.0
666,37.0,0,1532,0.0,0.0
667,44.0,4,1532,0.0,0.0
668,52.0,128,128,0.0,0.0
669,49.0,0,1532,0.0,0.0
670,56.0,128,128,0.0,0.0
671,61.0,128,128,0.0,0.0
672,56.0,128,128,0.0,0.0
673,61.0,128,128,0.0,0.0
674,64.0,128,128,0.0,0.0
675,56.0,128,128,0.0,0.0
676,61.0,128,128,0.0,0.0
677,64.0,128,128,0.0,0.0
678,56.0,128,128,0.0,0.0
679,61.0,32,128,0.0,0.0
680,64.0,128,128,0.0,0.0
681,68.0,92,4,0.0,0.0
682,68.0,4,1148,0.0,0.0
683,44.0,4,1532,0.0,0.0
684,56.0,128,128,0.0,0.0
685,48.0,0,1532,0.0,0.0
686,36.0,0,1532,0.0,0.0
687,63.0,128,128,0.0,0.0
688,66.0,128,128,0.0,0.0
689,56.0,128,128,0.0,0.0
690,63.0,128,128,0.0,0.0
691,66.0,128,128,0.0,0.0
692,56.0,128,128,0.0,0.0
693,63.0,124,128,0.0,0.0
694,66.0,128,128,0.0,0.0
695,56.0,128,128,0.0,0.0
696,63.0,32,128,0.0,0.0
697,66.0,128,128,0.0,0.0
698,68.0,92,0,0.0,0.0
699,68.0,4,764,0.0,0.0
700,56.0,128,128,0.0,0.0
701,49.0,0,764,0.0,0.0
702,37.0,0,764,0.0,0.0
703,61.0,128,128,0.0,0.0
704,64.0,128,128,0.0,0.0
705,56.0,128,128,0.0,0.0
706,61.0,124,128,0.0,0.0
707,64.0,128,128,0.0,0.0
708,42.0,0,764,0.0,0.0
709,69.0,4,764,0.0,0.0
710,57.0,128,128,0.0,0.0
711,30.0,0,764,0.0,0.0
712,61.0,128,128,0.0,0.0
713,66.0,128,128,0.0,0.0
714,57.0,128,128,0.0,0.0
715,61.0,124,128,0.0,0.0
716,66.0,128,128,0.0,0.0
717,56.0,128,128,0.0,0.0
718,68.0,0,764,0.0,64.0
719,47.0,0,764,0.0,0.0
720,35.0,4,764,0.0,0.0
721,59.0,128,128,0.0,0.0
722,64.0,128,128,0.0,0.0
723,56.0,128,128,0.0,0.0
724,59.0,124,128,0.0,0.0
725,64.0,128,128,0.0,0.0
726,57.0,128,128,0.0,0.0
727,66.0,4,380,0.0,0.0
728,47.0,4,764,0.0,0.0
729,35.0,0,764,0.0,0.0
730,59.0,124,128,0.0,0.0
731,63.0,128,128,0.0,0.0
732,57.0,128,156,0.0,0.0
733,71.0,0,380,0.0,0.0
734,59.0,124,128,0.0,0.0
735,63.0,128,128,0.0,0.0
736,40.0,4,1532,0.0,0.0
737,52.0,0,1532,0.0,0.0
738,56.0,128,128,0.0,0.0
739,59.0,0,128,0.0,0.0
740,64.0,128,0,0.0,0.0
741,59.0,128,128,0.0,0.0
742,64.0,128,128,0.0,0.0
743,68.0,128,128,0.0,0.0
744,59.0,128,128,0.0,0.0
745,64.0,128,128,0.0,0.0
746,68.0,128,128,0.0,0.0
747,59.0,128,128,0.0,0.0
748,71.0,92,288,0.0,0.0
749,64.0,32,128,0.0,0.0
750,68.0,128,128,0.0,0.0
751,71.0,0,96,0.0,0.0
752,51.0,0,1532,0.0,0.0
753,39.0,4,1532,0.0,0.0
754,59.0,128,128,0.0,0.0
755,71.0,4,1148,0.0,0.0
756,66.0,128,128,0.0,0.0
757,69.0,128,128,0.0,0.0
758,59.0,128,128,0.0,0.0
759,66.0,128,128,0.0,0.0
760,69.0,128,128,0.0,0.0
761,59.0,128,128,0.0,0.0
762,66.0,124,128,0.0,0.0
763,69.0,128,128,0.0,0.0
764,71.0,92,288,0.0,0.0
765,59.0,128,128,0.0,0.0
766,66.0,32,128,0.0,0.0
767,69.0,128,128,0.0,0.0
768,71.0,0,96,0.0,0.0
769,40.0,0,764,0.0,0.0
770,52.0,0,764,0.0,0.0
771,59.0,124,128,0.0,0.0
772,71.0,4,764,0.0,0.0
773,64.0,132,128,0.0,0.0
774,68.0,128,128,0.0,0.0
775,59.0,124,128,0.0,0.0
776,64.0,128,128,0.0,0.0
777,68.0,128,128,0.0,0.0
778,51.0,0,380,0.0,0.0
779,39.0,4,380,0.0,0.0
780,60.0,128,128,0.0,0.0
781,72.0,0,380,0.0,0.0
782,66.0,124,128,0.0,0.0
783,68.0,132,128,0.0,0.0
784,37.0,0,380,0.0,0.0
785,49.0,4,380,0.0,0.0
786,73.0,0,380,0.0,0.0
787,61.0,124,132,0.0,0.0
788,64.0,124,128,0.0,0.0
789,68.0,128,128,0.0,0.0
790,75.0,0,764,0.0,64.0
791,63.0,128,128,0.0,0.0
792,44.0,0,764,0.0,0.0
793,48.0,4,764,0.0,0.0
794,36.0,0,764,0.0,0.0
795,66.0,128,128,0.0,0.0
796,68.0,128,128,0.0,0.0
797,63.0,128,128,0.0,0.0
798,66.0,124,128,0.0,0.0
799,68.0,128,128,0.0,0.0
800,37.0,4,380,0.0,0.0
801,49.0,0,380,0.0,0.0
802,44.0,0,380,0.0,0.0
803,76.0,4,764,0.0,0.0
804,64.0,128,128,0.0,0.0
805,68.0,124,128,0.0,0.0
806,73.0,128,128,0.0,0.0
807,64.0,128,128,0.0,0.0
808,68.0,124,128,0.0,0.0
809,73.0,128,128,0.0,0.0
810,74.0,4,764,0.0,0.0
811,62.0,128,128,0.0,0.0
812,42.0,0,764,0.0,0.0
813,30.0,0,764,0.0,0.0
814,66.0,128,128,0.0,0.0
815,69.0,128,128,0.0,0.0
816,62.0,128,128,0.0,0.0
817,66.0,124,128,0.0,0.0
818,69.0,128,128,0.0,0.0
819,32.0,4,764,0.0,0.0
820,44.0,0,764,0.0,0.0
821,60.0,128,128,0.0,0.0
822,72.0,0,764,0.0,0.0
823,66.0,128,128,0.0,0.0
824,68.0,128,128,0.0,0.0
825,60.0,128,128,0.0,0.0
826,66.0,124,128,0.0,0.0
827,68.0,128,128,0.0,0.0
828,73.0,4,1148,0.0,64.0
829,61.0,128,128,0.0,0.0
830,37.0,0,1916,0.0,64.0
831,49.0,4,1916,0.0,64.0
832,64.0,128,128,0.0,0.0
833,68.0,128,128,0.0,0.0
834,61.0,128,128,0.0,0.0
835,64.0,128,128,0.0,0.0
836,68.0,128,128,0.0,0.0
837,61.0,128,128,0.0,0.0
838,65.0,124,128,0.0,0.0
839,68.0,128,128,0.0,0.0
840,73.0,4,380,0.0,0.0
841,61.0,128,128,0.0,0.0
842,65.0,124,128,0.0,0.0
843,68.0,124,128,0.0,0.0
844,61.0,132,156,0.0,64.0
845,74.0,0,1148,0.0,0.0
846,66.0,124,128,0.0,0.0
847,69.0,128,128,0.0,0.0
848,61.0,128,128,0.0,0.0
849,42.0,4,380,0.0,0.0
850,54.0,0,380,0.0,0.0
851,66.0,124,128,0.0,0.0
852,69.0,128,128,0.0,0.0
853,57.0,0,380,0.0,0.0
854,45.0,4,380,0.0,0.0
855,61.0,128,128,0.0,0.0
856,66.0,124,128,0.0,0.0
857,69.0,128,128,0.0,0.0
858,61.0,128,128,0.0,0.0
859,54.0,0,380,0.0,0.0
860,42.0,0,380,0.0,0.0
861,72.0,4,380,0.0,0.0
862,66.0,124,128,0.0,0.0
863,69.0,128,128,0.0,0.0
864,73.0,4,1148,0.0,0.0
865,61.0,128,128,0.0,0.0
866,49.0,0,1916,0.0,64.0
867,37.0,4,1916,0.0,64.0
868,65.0,128,128,0.0,0.0
869,68.0,128,128,0.0,0.0
870,61.0,128,128,0.0,0.0
871,65.0,128,128,0.0,0.0
872,68.0,128,128,0.0,0.0
873,61.0,128,128,0.0,0.0
874,65.0,124,128,0.0,0.0
875,68.0,128,128,0.0,0.0
876,61.0,128,128,0.0,0.0
877,73.0,4,380,0.0,0.0
878,65.0,124,128,0.0,0.0
879,68.0,124,128,0.0,0.0
880,61.0,132,156,0.0,64.0
881,74.0,4,1148,0.0,64.0
882,66.0,124,128,0.0,0.0
883,69.0,128,128,0.0,0.0
884,61.0,128,128,0.0,0.0
885,54.0,4,380,0.0,0.0
886,42.0,0,380,0.0,0.0
887,66.0,124,128,0.0,0.0
888,69.0,128,128,0.0,0.0
889,57.0,0,380,0.0,0.0
890,61.0,128,128,0.0,0.0
891,45.0,0,380,0.0,0.0
892,66.0,124,128,0.0,0.0
893,69.0,128,128,0.0,0.0
894,42.0,0,380,0.0,0.0
895,54.0,4,380,0.0,0.0
896,61.0,128,128,0.0,0.0
897,72.0,0,380,0.0,0.0
898,66.0,124,128,0.0,0.0
899,69.0,128,128,0.0,0.0
900,49.0,0,764,0.0,0.0
901,37.0,0,764,0.0,0.0
902,73.0,4,764,0.0,0.0
903,61.0,128,128,0.0,0.0
904,65.0,128,128,0.0,0.0
905,68.0,128,128,0.0,0.0
906,61.0,128,128,0.0,0.0
907,65.0,124,128,0.0,0.0
908,68.0,128,128,0.0,0.0
909,30.0,4,764,0.0,0.0
910,61.0,128,128,0.0,0.0
911,73.0,0,764,0.0,0.0
912,42.0,0,764,0.0,0.0
913,66.0,128,128,0.0,0.0
914,69.0,128,128,0.0,0.0
915,61.0,128,128,0.0,0.0
916,66.0,124,128,0.0,0.0
917,69.0,128,128,0.0,0.0
918,71.0,0,1148,0.0,0.0
919,59.0,128,128,0.0,0.0
920,39.0,4,1148,0.0,0.0
921,51.0,0,1148,0.0,0.0
922,66.0,128,128,0.0,0.0
923,69.0,128,128,0.0,0.0
924,59.0,128,128,0.0,0.0
925,66.0,128,128,0.0,0.0
926,69.0,128,128,0.0,0.0
927,59.0,128,128,0.0,0.0
928,66.0,124,128,0.0,0.0
929,69.0,128,128,0.0,0.0
930,40.0,0,380,0.0,0.0
931,71.0,4,380,0.0,0.0
932,52.0,0,380,0.0,0.0
933,59.0,128,128,0.0,0.0
934,64.0,124,128,0.0,0.0
935,68.0,128,128,0.0,0.0
936,57.0,128,128,0.0,64.0
937,37.0,0,380,0.0,64.0
938,49.0,4,380,0.0,64.0
939,69.0,0,380,0.0,64.0
940,64.0,124,128,0.0,0.0
941,68.0,128,128,0.0,0.0
942,57.0,128,128,0.0,0.0
943,69.0,0,380,0.0,0.0
944,39.0,4,380,0.0,0.0
945,51.0,0,380,0.0,0.0
946,63.0,124,128,0.0,0.0
947,66.0,128,128,0.0,0.0
948,36.0,0,380,0.0,0.0
949,68.0,0,380,0.0,0.0
950,56.0,128,128,0.0,0.0
951,48.0,4,380,0.0,0.0
952,63.0,124,128,0.0,0.0
953,66.0,128,128,0.0,0.0
954,56.0,128,128,0.0,0.0
955,49.0,0,380,0.0,0.0
956,37.0,0,380,0.0,0.0
957,68.0,4,380,0.0,0.0
958,61.0,124,128,0.0,0.0
959,64.0,128,128,0.0,0.0
960,54.0,128,128,0.0,64.0
961,45.0,0,764,0.0,0.0
962,33.0,4,764,0.0,0.0
963,66.0,0,764,0.0,64.0
964,61.0,128,128,0.0,0.0
965,63.0,128,128,0.0,0.0
966,54.0,128,128,0.0,0.0
967,61.0,124,128,0.0,0.0
968,63.0,128,128,0.0,0.0
969,32.0,0,380,0.0,0.0
970,44.0,0,380,0.0,0.0
971,56.0,128,128,0.0,0.0
972,68.0,4,380,0.0,0.0
973,61.0,124,128,0.0,0.0
974,63.0,128,128,0.0,0.0
975,42.0,4,380,0.0,0.0
976,30.0,0,380,0.0,0.0
977,69.0,0,380,0.0,0.0
978,57.0,128,128,0.0,0.0
979,61.0,124,128,0.0,0.0
980,63.0,128,128,0.0,0.0
981,68.0,0,764,0.0,0.0
982,44.0,0,764,0.0,0.0
983,56.0,128,128,0.0,0.0
984,32.0,4,764,0.0,0.0
985,61.0,128,128,0.0,0.0
986,64.0,128,128,0.0,0.0
987,56.0,128,128,0.0,0.0
988,61.0,124,128,0.0,0.0
989,64.0,128,128,0.0,0.0
990,44.0,0,764,0.0,0.0
991,32.0,4,764,0.0,0.0
992,54.0,128,128,0.0,0.0
993,68.0,4,380,0.0,0.0
994,60.0,124,128,0.0,0.0
995,63.0,128,128,0.0,0.0
996,54.0,128,128,0.0,0.0
997,60.0,124,128,0.0,0.0
998,63.0,128,128,0.0,0.0
999,37.0,4,1532,0.0,0.0
1000,52.0,128,128,0.0,0.0
1001,44.0,4,1148,0.0,0.0
1002,56.0,124,128,0.0,0.0
1003,61.0,4,124,0.0,0.0
1004,56.0,128,128,0.0,0.0
1005,61.0,128,128,0.0,0.0
1006,64.0,128,128,0.0,0.0
1007,56.0,128,128,0.0,0.0
1008,61.0,124,128,0.0,0.0
1009,64.0,128,128,0.0,0.0
1010,56.0,128,128,0.0,0.0
1011,61.0,32,128,0.0,0.0
1012,64.0,128,128,0.0,0.0
1013,44.0,92,0,0.0,0.0
1014,44.0,0,0,0.0,0.0
1015,36.0,4,1532,0.0,0.0
1016,56.0,128,128,0.0,0.0
1017,63.0,128,128,0.0,0.0
1018,66.0,128,128,0.0,0.0
1019,56.0,128,128,0.0,0.0
1020,63.0,128,128,0.0,0.0
1021,66.0,128,128,0.0,0.0
1022,56.0,128,128,0.0,0.0
1023,63.0,124,128,0.0,0.0
1024,66.0,128,128,0.0,0.0
1025,56.0,128,128,0.0,0.0
1026,63.0,32,128,0.0,0.0
1027,66.0,0,128,0.0,0.0
1028,44.0,92,0,0.0,0.0
1029,37.0,4,1532,0.0,0.0
1030,56.0,128,128,0.0,0.0
1031,44.0,128,0,0.0,0.0
1032,64.0,128,128,0.0,0.0
1033,61.0,128,128,0.0,0.0
1034,68.0,128,128,0.0,0.0
1035,64.0,128,128,0.0,0.0
1036,73.0,128,128,0.0,0.0
1037,68.0,128,128,0.0,0.0
1038,76.0,124,128,0.0,0.0
1039,73.0,128,128,0.0,0.0
1040,80.0,128,128,0.0,0.0
1041,76.0,32,128,0.0,0.0
1042,73.0,128,128,0.0,0.0
1043,44.0,92,0,0.0,0.0
1044,44.0,0,0,0.0,0.0
1045,32.0,4,1148,0.0,0.0
1046,72.0,128,128,0.0,0.0
1047,75.0,128,128,0.0,0.0
1048,69.0,128,128,0.0,0.0
1049,72.0,128,128,0.0,0.0
1050,66.0,128,128,0.0,0.0
1051,69.0,128,128,0.0,0.0
1052,63.0,128,128,0.0,0.0
1053,66.0,124,128,0.0,0.0
1054,57.0,128,128,0.0,0.0
1055,60.0,128,128,0.0,0.0
1056,44.0,96,288,0.0,0.0
1057,56.0,32,128,0.0,0.0
1058,54.0,0,128,0.0,0.0
1059,44.0,128,96,0.0,0.0
1060,52.0,128,128,0.0,0.0
1061,44.0,0,1148,0.0,0.0
1062,61.0,0,128,0.0,0.0
1063,37.0,4,1148,0.0,0.0
1064,64.0,128,128,0.0,0.0
1065,61.0,128,128,0.0,0.0
1066,68.0,128,128,0.0,0.0
1067,64.0,128,128,0.0,0.0
1068,73.0,128,128,0.0,0.0
1069,68.0,128,128,0.0,0.0
1070,76.0,124,128,0.0,0.0
1071,73.0,128,128,0.0,0.0
1072,80.0,128,128,0.0,0.0
1073,76.0,32,128,0.0,0.0
1074,73.0,128,128,0.0,0.0
1075,44.0,96,0,0.0,0.0
1076,72.0,128,128,0.0,0.0
1077,32.0,4,1148,0.0,0.0
1078,44.0,0,1148,0.0,0.0
1079,75.0,128,128,0.0,0.0
1080,69.0,128,128,0.0,0.0
1081,72.0,128,128,0.0,0.0
1082,66.0,128,128,0.0,0.0
1083,69.0,128,128,0.0,0.0
1084,63.0,128,128,0.0,0.0
1085,66.0,124,128,0.0,0.0
1086,57.0,128,128,0.0,0.0
1087,60.0,128,128,0.0,0.0
1088,44.0,96,288,0.0,0.0
1089,56.0,32,128,0.0,0.0
1090,54.0,0,128,0.0,0.0
1091,44.0,128,96,0.0,0.0
1092,44.0,4,764,0.0,0.0
1093,52.0,128,128,0.0,0.0
1094,37.0,4,3068,0.0,64.0
1095,56.0,124,128,0.0,0.0
1096,61.0,4,124,0.0,0.0
1097,64.0,128,128,0.0,64.0
1098,61.0,124,128,0.0,0.0
1099,56.0,256,128,0.0,0.0
1100,49.0,4,764,0.0,0.0
1101,52.0,128,128,0.0,0.0
1102,56.0,128,128,0.0,0.0
1103,61.0,128,128,0.0,64.0
1104,56.0,124,128,0.0,64.0
1105,52.0,256,128,0.0,64.0
1106,44.0,4,380,0.0,64.0
1107,49.0,124,128,0.0,0.0
1108,52.0,128,128,0.0,0.0
1109,56.0,128,128,0.0,64.0
1110,52.0,128,128,0.0,64.0
1111,49.0,128,128,0.0,0.0
1112,44.0,128,128,0.0,0.0
1113,49.0,128,128,0.0,0.0
1114,44.0,128,128,0.0,0.0
1115,40.0,128,128,0.0,0.0
1116,44.0,124,128,0.0,0.0
1117,40.0,764,128,0.0,0.0
1118,37.0,768,764,0.0,64.0
1119,37.0,0,764,0.0,64.0
1120,44.0,0,764,0.0,64.0
1121,52.0,0,764,0.0,64.0
1122,56.0,0,764,0.0,64.0
1123,61.0,0,764,0.0,64.0
1124,49.0,1536,764,0.0,64.0
1125,56.0,0,1532,0.0,0.0
1126,52.0,0,1532,0.0,0.0
1127,44.0,0,1532,0.0,0.0
1128,49.0,0,1532,0.0,0.0
1129,37.0,0,1532,0.0,0.0
1130,61.0,0,1532,0.0,0.0
