,note,step,duration,channel,velocity
0,53.0,0,288,3.0,0.0
1,65.0,48,288,1.0,0.0
2,55.0,46,48,3.0,0.0
3,67.0,0,48,1.0,0.0
4,53.0,0,46,3.0,0.0
5,65.0,34,46,1.0,0.0
6,52.0,0,32,3.0,0.0
7,64.0,96,32,1.0,0.0
8,65.0,0,32,1.0,0.0
9,53.0,224,32,3.0,0.0
10,60.0,704,160,1.0,0.0
11,48.0,0,160,3.0,0.0
12,53.0,48,288,3.0,0.0
13,65.0,0,288,1.0,0.0
14,67.0,46,48,1.0,0.0
15,55.0,0,48,3.0,0.0
16,53.0,0,46,3.0,0.0
17,65.0,34,46,1.0,0.0
18,64.0,0,32,1.0,0.0
19,52.0,96,32,3.0,0.0
20,65.0,0,32,1.0,0.0
21,53.0,224,32,3.0,0.0
22,50.0,704,160,3.0,0.0
23,62.0,0,160,1.0,0.0
24,77.0,48,288,1.0,0.0
25,62.0,0,576,3.0,0.0
26,50.0,384,576,4.0,0.0
27,79.0,46,48,1.0,0.0
28,77.0,34,46,1.0,0.0
29,76.0,96,32,1.0,0.0
30,77.0,64,32,1.0,0.0
31,70.0,0,0,2.0,0.0
32,52.0,192,576,4.0,0.0
33,79.0,0,384,1.0,0.0
34,70.0,32,160,1.0,0.0
35,67.0,0,160,2.0,0.0
36,69.0,0,384,1.0,0.0
37,60.0,0,0,3.0,0.0
38,53.0,192,192,4.0,0.0
39,65.0,0,384,2.0,0.0
40,62.0,0,192,3.0,0.0
41,50.0,142,192,4.0,0.0
42,46.0,0,160,4.0,0.0
43,70.0,2,142,2.0,0.0
44,55.0,30,160,3.0,0.0
45,74.0,16,144,1.0,0.0
46,70.0,98,46,1.0,0.0
47,67.0,0,46,2.0,0.0
48,60.0,96,96,3.0,0.0
49,69.0,0,384,1.0,0.0
50,48.0,16,528,4.0,0.0
51,65.0,144,384,2.0,0.0
52,59.0,96,96,3.0,0.0
53,60.0,96,96,3.0,0.0
54,59.0,0,96,3.0,0.0
55,60.0,0,160,3.0,0.0
56,64.0,320,160,2.0,0.0
57,67.0,0,160,1.0,0.0
58,53.0,0,288,3.0,0.0
59,65.0,48,288,1.0,0.0
60,55.0,0,48,3.0,0.0
61,67.0,46,48,1.0,0.0
62,65.0,34,46,1.0,0.0
63,53.0,0,46,3.0,0.0
64,52.0,96,32,3.0,0.0
65,64.0,0,32,1.0,0.0
66,53.0,224,32,3.0,0.0
67,65.0,0,32,1.0,0.0
68,60.0,0,160,1.0,0.0
69,48.0,704,160,3.0,0.0
70,53.0,48,288,3.0,0.0
71,65.0,0,288,1.0,0.0
72,55.0,46,48,3.0,0.0
73,67.0,0,48,1.0,0.0
74,65.0,34,46,1.0,0.0
75,53.0,0,46,3.0,0.0
76,64.0,96,32,1.0,0.0
77,52.0,0,32,3.0,0.0
78,53.0,0,32,3.0,0.0
79,65.0,224,32,1.0,0.0
80,50.0,704,160,3.0,0.0
81,62.0,0,160,1.0,0.0
82,77.0,48,288,1.0,0.0
83,79.0,46,48,1.0,0.0
84,77.0,34,46,1.0,0.0
85,76.0,96,32,1.0,0.0
86,77.0,448,32,1.0,0.0
87,70.0,160,384,3.0,0.0
88,61.0,0,384,4.0,0.0
89,81.0,0,384,1.0,0.0
90,76.0,0,384,2.0,0.0
91,79.0,0,160,1.0,0.0
92,76.0,320,160,2.0,0.0
93,61.0,0,160,4.0,0.0
94,70.0,0,160,3.0,0.0
95,79.0,48,288,1.0,0.0
96,81.0,46,48,1.0,0.0
97,79.0,34,46,1.0,0.0
98,78.0,96,32,1.0,0.0
99,79.0,448,32,1.0,0.0
100,75.0,0,384,3.0,0.0
101,72.0,160,384,2.0,0.0
102,66.0,0,384,4.0,0.0
103,82.0,0,384,1.0,0.0
104,66.0,0,160,4.0,0.0
105,81.0,0,160,1.0,0.0
106,75.0,0,160,3.0,0.0
107,72.0,320,160,2.0,0.0
108,81.0,48,288,1.0,0.0
109,82.0,46,48,1.0,0.0
110,81.0,34,46,1.0,0.0
111,79.0,96,32,1.0,0.0
112,81.0,320,32,1.0,0.0
113,58.0,32,256,4.0,0.0
114,75.0,0,288,2.0,0.0
115,66.0,94,288,3.0,0.0
116,84.0,0,288,1.0,0.0
117,74.0,0,96,2.0,0.0
118,58.0,2,94,4.0,0.0
119,82.0,0,96,1.0,0.0
120,67.0,94,96,3.0,0.0
121,81.0,0,96,1.0,0.0
122,72.0,94,96,2.0,0.0
123,58.0,0,94,4.0,0.0
124,69.0,2,94,3.0,0.0
125,58.0,0,94,4.0,0.0
126,79.0,290,94,1.0,0.0
127,70.0,0,94,2.0,0.0
128,72.0,0,384,3.0,0.0
129,77.0,24,288,1.0,0.0
130,69.0,0,288,2.0,0.0
131,60.0,0,384,4.0,0.0
132,70.0,24,24,2.0,0.0
133,79.0,0,24,1.0,0.0
134,77.0,0,24,1.0,0.0
135,69.0,24,24,2.0,0.0
136,76.0,0,24,1.0,0.0
137,67.0,24,24,2.0,0.0
138,77.0,96,24,1.0,0.0
139,69.0,0,24,2.0,0.0
140,81.0,64,96,1.0,0.0
141,64.0,30,160,3.0,0.0
142,48.0,0,160,4.0,0.0
143,72.0,0,96,2.0,0.0
144,79.0,0,94,1.0,0.0
145,70.0,162,94,2.0,0.0
146,53.0,0,160,4.0,0.0
147,65.0,704,160,3.0,0.0
148,77.0,0,160,1.0,0.0
149,69.0,0,160,2.0,0.0
150,60.0,48,288,2.0,0.0
151,62.0,46,48,2.0,0.0
152,60.0,34,46,2.0,0.0
153,59.0,96,32,2.0,0.0
154,60.0,352,32,2.0,0.0
155,68.0,0,528,3.0,0.0
156,77.0,48,288,1.0,0.0
157,63.0,32,384,2.0,0.0
158,59.0,16,528,4.0,0.0
159,79.0,46,48,1.0,0.0
160,77.0,2,46,1.0,0.0
161,76.0,96,32,1.0,0.0
162,62.0,320,160,2.0,0.0
163,77.0,16,32,1.0,0.0
164,62.0,48,288,2.0,0.0
165,63.0,46,48,2.0,0.0
166,62.0,34,46,2.0,0.0
167,61.0,96,32,2.0,0.0
168,62.0,352,32,2.0,0.0
169,65.0,32,384,2.0,0.0
170,49.0,16,528,4.0,0.0
171,79.0,48,288,1.0,0.0
172,58.0,0,528,3.0,0.0
173,81.0,46,48,1.0,0.0
174,79.0,2,46,1.0,0.0
175,64.0,320,160,2.0,0.0
176,78.0,96,32,1.0,0.0
177,79.0,16,32,1.0,0.0
178,67.0,48,288,2.0,0.0
179,69.0,46,48,2.0,0.0
180,67.0,34,46,2.0,0.0
181,66.0,96,32,2.0,0.0
182,67.0,352,32,2.0,0.0
183,84.0,48,288,1.0,0.0
184,70.0,32,384,2.0,0.0
185,63.0,0,336,3.0,0.0
186,53.0,46,336,4.0,0.0
187,86.0,0,48,1.0,0.0
188,84.0,2,46,1.0,0.0
189,69.0,320,160,2.0,0.0
190,63.0,0,160,3.0,0.0
191,83.0,96,32,1.0,0.0
192,46.0,0,160,4.0,0.0
193,84.0,32,32,1.0,0.0
194,58.0,46,336,4.0,0.0
195,66.0,32,384,3.0,0.0
196,72.0,0,384,2.0,0.0
197,86.0,48,288,1.0,0.0
198,87.0,0,48,1.0,0.0
199,86.0,2,46,1.0,0.0
200,70.0,112,48,2.0,0.0
201,85.0,16,32,1.0,0.0
202,46.0,30,160,4.0,0.0
203,67.0,0,48,3.0,0.0
204,86.0,50,94,1.0,0.0
205,58.0,0,48,3.0,0.0
206,88.0,48,48,1.0,0.0
207,48.0,0,48,4.0,0.0
208,69.0,94,96,2.0,0.0
209,67.0,50,94,2.0,0.0
210,69.0,94,96,2.0,0.0
211,88.0,0,48,1.0,0.0
212,58.0,48,48,3.0,0.0
213,48.0,0,48,4.0,0.0
214,67.0,50,94,2.0,0.0
215,69.0,94,96,2.0,0.0
216,88.0,48,48,1.0,0.0
217,58.0,0,48,3.0,0.0
218,48.0,0,48,4.0,0.0
219,67.0,96,94,2.0,0.0
220,57.0,0,94,3.0,0.0
221,41.0,0,160,4.0,0.0
222,65.0,66,94,2.0,0.0
223,89.0,30,160,1.0,0.0
224,65.0,0,94,2.0,0.0
225,57.0,96,94,2.0,0.0
226,60.0,0,94,3.0,0.0
227,65.0,0,94,2.0,0.0
228,57.0,0,94,2.0,0.0
229,60.0,96,94,3.0,0.0
230,60.0,0,94,3.0,0.0
231,57.0,96,94,2.0,0.0
232,65.0,0,94,2.0,0.0
233,65.0,96,94,2.0,0.0
234,60.0,0,94,3.0,0.0
235,57.0,0,94,2.0,0.0
236,60.0,0,94,3.0,0.0
237,57.0,0,94,2.0,0.0
238,65.0,96,94,2.0,0.0
239,65.0,0,94,2.0,0.0
240,48.0,48,288,4.0,0.0
241,60.0,96,94,3.0,0.0
242,57.0,0,94,2.0,0.0
243,57.0,96,94,2.0,0.0
244,65.0,0,94,2.0,0.0
245,60.0,0,94,3.0,0.0
246,65.0,0,94,2.0,0.0
247,60.0,0,94,3.0,0.0
248,57.0,2,94,2.0,0.0
249,60.0,0,94,3.0,0.0
250,69.0,32,94,1.0,0.0
251,65.0,0,94,2.0,0.0
252,57.0,0,94,2.0,0.0
253,50.0,46,48,4.0,0.0
254,48.0,0,46,4.0,0.0
255,57.0,0,94,2.0,0.0
256,65.0,0,94,2.0,0.0
257,70.0,2,30,1.0,0.0
258,47.0,32,32,4.0,0.0
259,60.0,2,94,3.0,0.0
260,69.0,30,32,1.0,0.0
261,70.0,32,32,1.0,0.0
262,69.0,32,32,1.0,0.0
263,48.0,0,32,4.0,0.0
264,60.0,2,94,3.0,0.0
265,65.0,0,94,2.0,0.0
266,57.0,0,94,2.0,0.0
267,67.0,30,32,1.0,0.0
268,69.0,94,32,1.0,0.0
269,36.0,30,160,4.0,0.0
270,55.0,0,94,2.0,0.0
271,64.0,0,94,2.0,0.0
272,72.0,94,288,1.0,0.0
273,60.0,66,94,3.0,0.0
274,60.0,0,94,3.0,0.0
275,64.0,96,94,2.0,0.0
276,55.0,0,94,2.0,0.0
277,55.0,2,94,2.0,0.0
278,64.0,0,94,2.0,0.0
279,60.0,0,94,3.0,0.0
280,64.0,0,94,2.0,0.0
281,70.0,0,94,1.0,0.0
282,60.0,34,94,3.0,0.0
283,55.0,0,94,2.0,0.0
284,67.0,62,32,1.0,0.0
285,60.0,34,94,3.0,0.0
286,64.0,0,94,2.0,0.0
287,55.0,0,94,2.0,0.0
288,60.0,0,94,3.0,0.0
289,55.0,0,94,2.0,0.0
290,65.0,62,32,1.0,0.0
291,64.0,96,94,2.0,0.0
292,60.0,66,94,3.0,0.0
293,64.0,30,160,1.0,0.0
294,55.0,0,94,2.0,0.0
295,48.0,48,288,4.0,0.0
296,60.0,0,94,3.0,0.0
297,55.0,0,94,2.0,0.0
298,64.0,96,94,2.0,0.0
299,64.0,0,94,2.0,0.0
300,60.0,2,94,3.0,0.0
301,55.0,0,94,2.0,0.0
302,70.0,0,94,1.0,0.0
303,60.0,0,94,3.0,0.0
304,50.0,46,48,4.0,0.0
305,55.0,0,94,2.0,0.0
306,64.0,0,94,2.0,0.0
307,48.0,34,46,4.0,0.0
308,72.0,32,32,1.0,0.0
309,64.0,0,94,2.0,0.0
310,55.0,2,94,2.0,0.0
311,60.0,0,94,3.0,0.0
312,47.0,0,32,4.0,0.0
313,70.0,30,32,1.0,0.0
314,72.0,32,32,1.0,0.0
315,55.0,0,94,2.0,0.0
316,64.0,0,94,2.0,0.0
317,48.0,32,32,4.0,0.0
318,70.0,0,32,1.0,0.0
319,60.0,96,94,3.0,0.0
320,69.0,30,32,1.0,0.0
321,70.0,0,30,1.0,0.0
322,36.0,30,160,4.0,0.0
323,57.0,0,94,2.0,0.0
324,65.0,0,94,2.0,0.0
325,60.0,66,94,3.0,0.0
326,74.0,94,288,1.0,0.0
327,57.0,0,94,2.0,0.0
328,65.0,0,94,2.0,0.0
329,60.0,96,94,3.0,0.0
330,60.0,2,94,3.0,0.0
331,57.0,0,94,2.0,0.0
332,65.0,0,94,2.0,0.0
333,60.0,34,94,3.0,0.0
334,72.0,0,94,1.0,0.0
335,57.0,0,94,2.0,0.0
336,65.0,0,94,2.0,0.0
337,57.0,0,94,2.0,0.0
338,65.0,0,94,2.0,0.0
339,69.0,62,32,1.0,0.0
340,60.0,34,94,3.0,0.0
341,60.0,96,94,3.0,0.0
342,65.0,0,94,2.0,0.0
343,57.0,0,94,2.0,0.0
344,67.0,62,32,1.0,0.0
345,57.0,66,94,2.0,0.0
346,60.0,0,94,3.0,0.0
347,65.0,30,160,1.0,0.0
348,48.0,48,288,4.0,0.0
349,65.0,0,94,2.0,0.0
350,57.0,0,94,2.0,0.0
351,60.0,96,94,3.0,0.0
352,60.0,0,94,3.0,0.0
353,65.0,0,94,2.0,0.0
354,57.0,2,94,2.0,0.0
355,57.0,0,94,2.0,0.0
356,65.0,0,94,2.0,0.0
357,77.0,0,94,1.0,0.0
358,50.0,46,48,4.0,0.0
359,60.0,0,94,3.0,0.0
360,48.0,34,46,4.0,0.0
361,47.0,32,32,4.0,0.0
362,65.0,2,94,2.0,0.0
363,57.0,0,94,2.0,0.0
364,60.0,0,94,3.0,0.0
365,79.0,0,32,1.0,0.0
366,77.0,30,32,1.0,0.0
367,79.0,32,32,1.0,0.0
368,77.0,32,32,1.0,0.0
369,65.0,0,94,2.0,0.0
370,57.0,0,94,2.0,0.0
371,48.0,96,94,4.0,0.0
372,60.0,0,94,3.0,0.0
373,76.0,30,32,1.0,0.0
374,77.0,0,30,1.0,0.0
375,36.0,30,160,4.0,0.0
376,58.0,0,94,2.0,0.0
377,67.0,0,94,2.0,0.0
378,81.0,94,288,1.0,0.0
379,64.0,66,94,3.0,0.0
380,67.0,0,94,2.0,0.0
381,64.0,0,94,3.0,0.0
382,58.0,96,94,2.0,0.0
383,58.0,0,94,2.0,0.0
384,64.0,0,94,3.0,0.0
385,67.0,2,94,2.0,0.0
386,58.0,0,94,2.0,0.0
387,67.0,0,94,2.0,0.0
388,79.0,34,94,1.0,0.0
389,64.0,0,94,3.0,0.0
390,67.0,0,94,2.0,0.0
391,79.0,62,32,1.0,0.0
392,64.0,34,94,3.0,0.0
393,58.0,0,94,2.0,0.0
394,77.0,62,32,1.0,0.0
395,64.0,96,94,3.0,0.0
396,67.0,0,94,2.0,0.0
397,58.0,0,94,2.0,0.0
398,48.0,32,288,4.0,0.0
399,64.0,0,94,3.0,0.0
400,58.0,0,94,2.0,0.0
401,77.0,94,96,1.0,0.0
402,67.0,2,94,2.0,0.0
403,58.0,34,94,2.0,0.0
404,64.0,0,94,3.0,0.0
405,76.0,0,94,1.0,0.0
406,67.0,0,94,2.0,0.0
407,58.0,0,94,2.0,0.0
408,64.0,0,94,3.0,0.0
409,76.0,62,32,1.0,0.0
410,67.0,2,94,2.0,0.0
411,67.0,0,94,2.0,0.0
412,58.0,34,94,2.0,0.0
413,74.0,16,32,1.0,0.0
414,64.0,0,94,3.0,0.0
415,50.0,46,48,4.0,0.0
416,48.0,0,46,4.0,0.0
417,67.0,0,94,2.0,0.0
418,47.0,0,32,4.0,0.0
419,72.0,62,32,1.0,0.0
420,64.0,0,94,3.0,0.0
421,58.0,34,94,2.0,0.0
422,67.0,50,94,2.0,0.0
423,58.0,0,94,2.0,0.0
424,70.0,62,32,1.0,0.0
425,64.0,0,94,3.0,0.0
426,48.0,0,32,4.0,0.0
427,67.0,0,94,2.0,0.0
428,69.0,50,670,1.0,0.0
429,49.0,46,48,4.0,0.0
430,57.0,96,94,2.0,0.0
431,64.0,0,94,3.0,0.0
432,57.0,0,94,2.0,0.0
433,67.0,0,94,2.0,0.0
434,64.0,50,94,3.0,0.0
435,61.0,0,94,3.0,0.0
436,45.0,46,48,4.0,0.0
437,57.0,0,94,2.0,0.0
438,67.0,96,94,2.0,0.0
439,67.0,50,94,2.0,0.0
440,57.0,0,94,2.0,0.0
441,61.0,0,94,3.0,0.0
442,57.0,0,94,2.0,0.0
443,67.0,0,94,2.0,0.0
444,64.0,96,94,3.0,0.0
445,49.0,46,48,4.0,0.0
446,57.0,0,94,2.0,0.0
447,67.0,0,94,2.0,0.0
448,64.0,96,94,3.0,0.0
449,57.0,0,94,2.0,0.0
450,50.0,30,160,4.0,0.0
451,65.0,0,94,2.0,0.0
452,62.0,0,94,3.0,0.0
453,71.0,16,48,1.0,0.0
454,57.0,0,94,2.0,0.0
455,62.0,2,94,3.0,0.0
456,65.0,0,94,2.0,0.0
457,73.0,48,48,1.0,0.0
458,57.0,2,94,2.0,0.0
459,65.0,0,94,2.0,0.0
460,74.0,46,48,1.0,0.0
461,62.0,0,94,3.0,0.0
462,76.0,48,48,1.0,0.0
463,62.0,2,94,3.0,0.0
464,57.0,0,94,2.0,0.0
465,65.0,0,94,2.0,0.0
466,77.0,46,48,1.0,0.0
467,76.0,48,48,1.0,0.0
468,65.0,0,94,2.0,0.0
469,74.0,46,48,1.0,0.0
470,62.0,2,94,3.0,0.0
471,57.0,0,94,2.0,0.0
472,72.0,48,48,1.0,0.0
473,71.0,46,48,1.0,0.0
474,57.0,0,94,2.0,0.0
475,62.0,0,94,3.0,0.0
476,65.0,50,94,2.0,0.0
477,69.0,0,46,1.0,0.0
478,67.0,0,670,1.0,0.0
479,62.0,0,94,3.0,0.0
480,47.0,46,48,4.0,0.0
481,55.0,0,94,2.0,0.0
482,65.0,96,94,2.0,0.0
483,55.0,50,94,2.0,0.0
484,65.0,0,94,2.0,0.0
485,62.0,0,94,3.0,0.0
486,55.0,96,94,2.0,0.0
487,43.0,46,48,4.0,0.0
488,65.0,0,94,2.0,0.0
489,59.0,0,94,3.0,0.0
490,59.0,0,94,3.0,0.0
491,55.0,0,94,2.0,0.0
492,65.0,50,94,2.0,0.0
493,65.0,96,94,2.0,0.0
494,55.0,0,94,2.0,0.0
495,47.0,46,48,4.0,0.0
496,62.0,0,94,3.0,0.0
497,65.0,0,94,2.0,0.0
498,62.0,96,94,3.0,0.0
499,55.0,0,94,2.0,0.0
500,60.0,50,94,3.0,0.0
501,48.0,30,160,4.0,0.0
502,55.0,0,94,2.0,0.0
503,63.0,0,94,2.0,0.0
504,55.0,0,94,2.0,0.0
505,60.0,0,94,3.0,0.0
506,69.0,16,48,1.0,0.0
507,63.0,2,94,2.0,0.0
508,71.0,48,48,1.0,0.0
509,63.0,0,94,2.0,0.0
510,72.0,46,48,1.0,0.0
511,60.0,0,94,3.0,0.0
512,55.0,2,94,2.0,0.0
513,71.0,48,48,1.0,0.0
514,55.0,2,94,2.0,0.0
515,63.0,0,94,2.0,0.0
516,60.0,0,94,3.0,0.0
517,72.0,46,48,1.0,0.0
518,71.0,48,48,1.0,0.0
519,60.0,2,94,3.0,0.0
520,55.0,0,94,2.0,0.0
521,63.0,0,94,2.0,0.0
522,72.0,46,48,1.0,0.0
523,71.0,48,48,1.0,0.0
524,63.0,0,94,2.0,0.0
525,72.0,46,48,1.0,0.0
526,55.0,290,94,2.0,0.0
527,60.0,0,94,3.0,0.0
528,71.0,0,46,1.0,0.0
529,60.0,0,736,2.0,0.0
530,72.0,48,864,1.0,0.0
531,51.0,48,288,3.0,0.0
532,63.0,128,736,2.0,0.0
533,44.0,0,1104,4.0,0.0
534,53.0,46,48,3.0,0.0
535,51.0,34,46,3.0,0.0
536,50.0,96,32,3.0,0.0
537,51.0,224,32,3.0,0.0
538,51.0,16,528,3.0,0.0
539,60.0,30,160,2.0,0.0
540,73.0,16,48,1.0,0.0
541,72.0,34,46,1.0,0.0
542,70.0,96,32,1.0,0.0
543,60.0,320,160,2.0,0.0
544,72.0,16,32,1.0,0.0
545,51.0,46,288,3.0,0.0
546,61.0,0,736,2.0,0.0
547,46.0,16,1104,4.0,0.0
548,75.0,0,288,1.0,0.0
549,73.0,34,94,1.0,0.0
550,53.0,48,46,3.0,0.0
551,51.0,0,46,3.0,0.0
552,50.0,96,32,3.0,0.0
553,70.0,0,32,1.0,0.0
554,68.0,224,32,1.0,0.0
555,51.0,0,32,3.0,0.0
556,51.0,0,528,3.0,0.0
557,67.0,176,160,1.0,0.0
558,61.0,30,160,2.0,0.0
559,75.0,16,48,1.0,0.0
560,73.0,34,46,1.0,0.0
561,61.0,320,160,2.0,0.0
562,72.0,96,32,1.0,0.0
563,73.0,16,32,1.0,0.0
564,48.0,0,736,4.0,0.0
565,51.0,48,288,3.0,0.0
566,77.0,0,288,1.0,0.0
567,63.0,0,736,2.0,0.0
568,75.0,34,94,1.0,0.0
569,52.0,46,48,3.0,0.0
570,51.0,0,46,3.0,0.0
571,72.0,0,32,1.0,0.0
572,50.0,96,32,3.0,0.0
573,51.0,0,32,3.0,0.0
574,70.0,224,32,1.0,0.0
575,51.0,0,160,3.0,0.0
576,69.0,80,160,1.0,0.0
577,69.0,96,48,3.0,0.0
578,66.0,0,48,2.0,0.0
579,48.0,0,48,4.0,0.0
580,77.0,46,48,1.0,0.0
581,75.0,34,46,1.0,0.0
582,74.0,16,32,1.0,0.0
583,48.0,0,48,4.0,0.0
584,69.0,0,48,3.0,0.0
585,66.0,80,48,2.0,0.0
586,75.0,592,32,1.0,0.0
587,68.0,96,528,2.0,0.0
588,50.0,0,528,4.0,0.0
589,77.0,0,528,1.0,0.0
590,59.0,0,528,3.0,0.0
591,60.0,0,48,3.0,0.0
592,75.0,192,48,1.0,0.0
593,51.0,0,48,4.0,0.0
594,67.0,0,48,2.0,0.0
595,68.0,0,48,2.0,0.0
596,53.0,0,48,4.0,0.0
597,74.0,192,48,1.0,0.0
598,65.0,0,48,3.0,0.0
599,69.0,0,48,2.0,0.0
600,63.0,0,48,3.0,0.0
601,54.0,0,48,4.0,0.0
602,72.0,176,48,1.0,0.0
603,55.0,0,160,4.0,0.0
604,62.0,16,160,3.0,0.0
605,67.0,0,160,2.0,0.0
606,71.0,48,32,1.0,0.0
607,67.0,48,32,1.0,0.0
608,69.0,32,32,1.0,0.0
609,71.0,48,32,1.0,0.0
610,72.0,48,32,1.0,0.0
611,74.0,48,32,1.0,0.0
612,59.0,0,32,3.0,0.0
613,76.0,0,32,1.0,0.0
614,62.0,48,32,2.0,0.0
615,78.0,48,32,1.0,0.0
616,62.0,0,32,2.0,0.0
617,59.0,48,32,3.0,0.0
618,79.0,0,32,1.0,0.0
619,78.0,48,32,1.0,0.0
620,79.0,0,32,1.0,0.0
621,63.0,0,32,2.0,0.0
622,60.0,48,32,3.0,0.0
623,78.0,48,32,1.0,0.0
624,55.0,48,32,4.0,0.0
625,62.0,16,160,2.0,0.0
626,79.0,0,160,1.0,0.0
627,59.0,0,160,3.0,0.0
628,43.0,48,32,4.0,0.0
629,45.0,32,32,4.0,0.0
630,47.0,48,32,4.0,0.0
631,48.0,48,32,4.0,0.0
632,50.0,48,32,4.0,0.0
633,67.0,0,32,3.0,0.0
634,52.0,0,32,4.0,0.0
635,74.0,48,32,2.0,0.0
636,83.0,0,32,1.0,0.0
637,54.0,48,32,4.0,0.0
638,83.0,48,32,1.0,0.0
639,55.0,0,32,4.0,0.0
640,74.0,0,32,2.0,0.0
641,67.0,0,32,3.0,0.0
642,54.0,48,32,4.0,0.0
643,84.0,0,32,1.0,0.0
644,75.0,0,32,2.0,0.0
645,67.0,48,32,3.0,0.0
646,55.0,0,32,4.0,0.0
647,54.0,62,32,4.0,0.0
648,74.0,0,160,2.0,0.0
649,55.0,0,160,4.0,0.0
650,83.0,48,46,1.0,0.0
651,67.0,30,160,3.0,0.0
652,67.0,48,46,1.0,0.0
653,69.0,18,46,1.0,0.0
654,71.0,48,46,1.0,0.0
655,72.0,48,46,1.0,0.0
656,74.0,34,46,1.0,0.0
657,62.0,0,32,2.0,0.0
658,76.0,48,46,1.0,0.0
659,59.0,14,32,3.0,0.0
660,78.0,34,46,1.0,0.0
661,62.0,14,32,2.0,0.0
662,59.0,0,32,3.0,0.0
663,79.0,48,46,1.0,0.0
664,78.0,34,46,1.0,0.0
665,63.0,0,32,2.0,0.0
666,60.0,14,32,3.0,0.0
667,79.0,48,46,1.0,0.0
668,78.0,48,46,1.0,0.0
669,62.0,0,160,2.0,0.0
670,55.0,48,46,4.0,0.0
671,79.0,30,160,1.0,0.0
672,59.0,0,160,3.0,0.0
673,43.0,48,46,4.0,0.0
674,45.0,18,46,4.0,0.0
675,47.0,48,46,4.0,0.0
676,48.0,48,46,4.0,0.0
677,50.0,34,46,4.0,0.0
678,74.0,0,32,2.0,0.0
679,83.0,0,32,1.0,0.0
680,52.0,48,46,4.0,0.0
681,67.0,14,32,3.0,0.0
682,54.0,34,46,4.0,0.0
683,83.0,0,32,1.0,0.0
684,74.0,14,32,2.0,0.0
685,67.0,0,32,3.0,0.0
686,55.0,48,46,4.0,0.0
687,54.0,34,46,4.0,0.0
688,75.0,0,32,2.0,0.0
689,67.0,14,32,3.0,0.0
690,84.0,0,32,1.0,0.0
691,55.0,48,46,4.0,0.0
692,54.0,48,46,4.0,0.0
693,74.0,0,160,2.0,0.0
694,67.0,0,160,3.0,0.0
695,83.0,48,46,1.0,0.0
696,55.0,30,160,4.0,0.0
697,55.0,48,46,1.0,0.0
698,57.0,18,46,1.0,0.0
699,59.0,48,46,1.0,0.0
700,60.0,48,46,1.0,0.0
701,62.0,34,46,1.0,0.0
702,55.0,0,32,4.0,0.0
703,74.0,0,32,2.0,0.0
704,59.0,14,32,3.0,0.0
705,64.0,48,46,1.0,0.0
706,66.0,34,46,1.0,0.0
707,67.0,48,46,1.0,0.0
708,59.0,0,32,3.0,0.0
709,55.0,0,32,4.0,0.0
710,74.0,14,32,2.0,0.0
711,66.0,34,46,1.0,0.0
712,75.0,0,32,2.0,0.0
713,60.0,0,32,3.0,0.0
714,48.0,14,32,4.0,0.0
715,67.0,48,46,1.0,0.0
716,66.0,48,46,1.0,0.0
717,67.0,0,46,1.0,0.0
718,74.0,0,46,2.0,0.0
719,59.0,0,46,3.0,0.0
720,55.0,48,46,4.0,0.0
721,67.0,0,46,1.0,0.0
722,55.0,0,46,2.0,0.0
723,43.0,48,46,4.0,0.0
724,57.0,0,46,2.0,0.0
725,69.0,0,46,1.0,0.0
726,45.0,48,46,4.0,0.0
727,59.0,48,46,2.0,0.0
728,47.0,0,46,4.0,0.0
729,71.0,0,46,1.0,0.0
730,72.0,0,46,1.0,0.0
731,60.0,48,46,2.0,0.0
732,48.0,0,46,4.0,0.0
733,50.0,0,46,4.0,0.0
734,74.0,48,46,1.0,0.0
735,62.0,0,46,2.0,0.0
736,52.0,0,46,4.0,0.0
737,64.0,48,46,2.0,0.0
738,76.0,0,46,1.0,0.0
739,54.0,48,46,4.0,0.0
740,66.0,0,46,2.0,0.0
741,78.0,0,46,1.0,0.0
742,67.0,0,46,2.0,0.0
743,79.0,48,46,1.0,0.0
744,55.0,0,46,4.0,0.0
745,54.0,0,46,4.0,0.0
746,66.0,48,46,2.0,0.0
747,78.0,0,46,1.0,0.0
748,55.0,0,46,4.0,0.0
749,79.0,0,46,1.0,0.0
750,67.0,48,46,2.0,0.0
751,78.0,96,46,1.0,0.0
752,66.0,0,46,2.0,0.0
753,54.0,0,46,4.0,0.0
754,67.0,0,160,2.0,0.0
755,79.0,66,94,1.0,0.0
756,55.0,96,160,4.0,0.0
757,79.0,192,160,1.0,0.0
758,79.0,128,160,1.0,0.0
759,79.0,94,96,1.0,0.0
760,80.0,162,94,1.0,0.0
761,80.0,192,160,1.0,0.0
762,80.0,128,160,1.0,0.0
763,80.0,94,96,1.0,0.0
764,81.0,98,94,1.0,0.0
765,81.0,94,96,1.0,0.0
766,77.0,98,94,1.0,0.0
767,77.0,94,96,1.0,0.0
768,74.0,98,94,1.0,0.0
769,74.0,94,96,1.0,0.0
770,71.0,98,94,1.0,0.0
771,71.0,94,96,1.0,0.0
772,67.0,98,94,1.0,0.0
773,67.0,32,96,1.0,0.0
774,67.0,62,32,2.0,0.0
775,65.0,0,32,3.0,0.0
776,71.0,98,94,1.0,0.0
777,65.0,0,96,3.0,0.0
778,67.0,0,190,2.0,0.0
779,71.0,94,96,1.0,0.0
780,64.0,98,94,3.0,0.0
781,72.0,0,94,1.0,0.0
782,67.0,0,96,2.0,0.0
783,72.0,0,96,1.0,0.0
784,64.0,94,96,3.0,0.0
785,62.0,0,94,3.0,0.0
786,71.0,98,94,2.0,0.0
787,74.0,0,94,1.0,0.0
788,71.0,0,96,2.0,0.0
789,62.0,0,96,3.0,0.0
790,74.0,94,96,1.0,0.0
791,72.0,0,94,2.0,0.0
792,60.0,96,94,3.0,0.0
793,76.0,0,94,1.0,0.0
794,76.0,192,96,1.0,0.0
795,60.0,2,94,3.0,0.0
796,72.0,0,96,2.0,0.0
797,79.0,144,192,1.0,0.0
798,76.0,0,192,2.0,0.0
799,59.0,16,336,3.0,0.0
800,74.0,0,160,2.0,0.0
801,77.0,64,160,1.0,0.0
802,64.0,160,32,3.0,0.0
803,64.0,94,96,3.0,0.0
804,65.0,98,94,3.0,0.0
805,65.0,94,96,3.0,0.0
806,62.0,98,94,3.0,0.0
807,62.0,94,96,3.0,0.0
808,59.0,98,94,3.0,0.0
809,59.0,94,96,3.0,0.0
810,56.0,98,94,3.0,0.0
811,56.0,94,96,3.0,0.0
812,64.0,98,94,3.0,0.0
813,64.0,94,96,3.0,0.0
814,62.0,98,94,3.0,0.0
815,71.0,94,192,2.0,0.0
816,80.0,0,192,1.0,0.0
817,62.0,0,96,3.0,0.0
818,81.0,94,192,1.0,0.0
819,60.0,98,94,3.0,0.0
820,76.0,0,192,2.0,0.0
821,60.0,0,96,3.0,0.0
822,57.0,98,94,3.0,0.0
823,84.0,94,192,1.0,0.0
824,64.0,0,192,2.0,0.0
825,57.0,0,96,3.0,0.0
826,78.0,32,160,1.0,0.0
827,62.0,66,94,3.0,0.0
828,72.0,0,384,2.0,0.0
829,62.0,94,96,3.0,0.0
830,81.0,0,192,1.0,0.0
831,55.0,98,94,3.0,0.0
832,55.0,94,96,3.0,0.0
833,67.0,98,94,3.0,0.0
834,79.0,0,94,1.0,0.0
835,71.0,0,94,2.0,0.0
836,54.0,96,96,4.0,0.0
837,55.0,96,96,4.0,0.0
838,56.0,32,96,4.0,0.0
839,57.0,160,32,4.0,0.0
840,57.0,94,96,4.0,0.0
841,53.0,98,94,4.0,0.0
842,53.0,94,96,4.0,0.0
843,50.0,98,94,4.0,0.0
844,50.0,94,96,4.0,0.0
845,47.0,98,94,4.0,0.0
846,47.0,94,96,4.0,0.0
847,43.0,98,94,4.0,0.0
848,43.0,32,96,4.0,0.0
849,47.0,98,94,4.0,0.0
850,62.0,0,32,2.0,0.0
851,55.0,62,32,3.0,0.0
852,77.0,0,32,1.0,0.0
853,77.0,0,96,1.0,0.0
854,62.0,94,96,2.0,0.0
855,47.0,0,96,4.0,0.0
856,55.0,0,190,3.0,0.0
857,76.0,98,94,1.0,0.0
858,48.0,0,94,4.0,0.0
859,64.0,0,94,2.0,0.0
860,72.0,94,96,2.0,0.0
861,76.0,0,96,1.0,0.0
862,67.0,0,96,3.0,0.0
863,48.0,0,96,4.0,0.0
864,74.0,0,94,1.0,0.0
865,71.0,0,94,2.0,0.0
866,65.0,0,94,3.0,0.0
867,50.0,98,94,4.0,0.0
868,71.0,94,96,2.0,0.0
869,50.0,0,96,4.0,0.0
870,74.0,0,96,1.0,0.0
871,65.0,0,96,3.0,0.0
872,72.0,96,94,1.0,0.0
873,67.0,0,94,2.0,0.0
874,64.0,0,94,3.0,0.0
875,52.0,0,94,4.0,0.0
876,67.0,0,94,2.0,0.0
877,72.0,0,94,1.0,0.0
878,64.0,0,94,3.0,0.0
879,52.0,194,94,4.0,0.0
880,68.0,0,256,2.0,0.0
881,72.0,64,192,1.0,0.0
882,62.0,0,256,3.0,0.0
883,53.0,30,256,4.0,0.0
884,71.0,130,94,1.0,0.0
885,67.0,160,32,2.0,0.0
886,67.0,94,96,2.0,0.0
887,68.0,98,94,2.0,0.0
888,68.0,32,96,2.0,0.0
889,65.0,98,94,2.0,0.0
890,68.0,62,32,3.0,0.0
891,65.0,94,96,2.0,0.0
892,68.0,0,96,3.0,0.0
893,65.0,0,94,3.0,0.0
894,80.0,94,384,1.0,0.0
895,62.0,98,94,2.0,0.0
896,65.0,0,96,3.0,0.0
897,62.0,94,96,2.0,0.0
898,62.0,0,94,3.0,0.0
899,59.0,98,94,2.0,0.0
900,59.0,0,96,2.0,0.0
901,62.0,0,96,3.0,0.0
902,63.0,0,94,3.0,0.0
903,79.0,64,192,1.0,0.0
904,60.0,98,94,2.0,0.0
905,60.0,0,96,3.0,0.0
906,75.0,30,160,2.0,0.0
907,54.0,66,94,3.0,0.0
908,84.0,30,160,1.0,0.0
909,54.0,94,96,3.0,0.0
910,75.0,2,94,2.0,0.0
911,75.0,0,384,2.0,0.0
912,84.0,0,384,1.0,0.0
913,55.0,98,94,3.0,0.0
914,55.0,94,96,3.0,0.0
915,67.0,98,94,3.0,0.0
916,67.0,94,96,3.0,0.0
917,77.0,0,144,2.0,0.0
918,55.0,50,94,3.0,0.0
919,86.0,46,144,1.0,0.0
920,55.0,96,94,3.0,0.0
921,83.0,0,46,1.0,0.0
922,74.0,0,46,2.0,0.0
923,84.0,30,160,1.0,0.0
924,67.0,48,288,4.0,0.0
925,60.0,66,94,3.0,0.0
926,72.0,0,94,2.0,0.0
927,55.0,0,94,2.0,0.0
928,48.0,0,94,3.0,0.0
929,64.0,96,94,2.0,0.0
930,55.0,0,94,2.0,0.0
931,64.0,0,94,2.0,0.0
932,48.0,2,94,3.0,0.0
933,64.0,0,94,2.0,0.0
934,55.0,0,94,2.0,0.0
935,48.0,34,94,3.0,0.0
936,69.0,46,48,4.0,0.0
937,67.0,0,46,4.0,0.0
938,48.0,0,94,3.0,0.0
939,55.0,0,94,2.0,0.0
940,64.0,96,94,2.0,0.0
941,66.0,62,32,4.0,0.0
942,48.0,0,94,3.0,0.0
943,67.0,0,94,4.0,0.0
944,64.0,0,94,2.0,0.0
945,55.0,96,94,2.0,0.0
946,55.0,0,94,2.0,0.0
947,64.0,96,94,2.0,0.0
948,67.0,46,528,4.0,0.0
949,76.0,48,288,1.0,0.0
950,48.0,0,94,3.0,0.0
951,64.0,0,94,2.0,0.0
952,55.0,96,94,2.0,0.0
953,48.0,0,94,3.0,0.0
954,48.0,2,94,3.0,0.0
955,55.0,0,94,2.0,0.0
956,64.0,0,94,2.0,0.0
957,48.0,0,94,3.0,0.0
958,55.0,0,94,2.0,0.0
959,64.0,0,94,2.0,0.0
960,77.0,46,48,1.0,0.0
961,76.0,34,46,1.0,0.0
962,48.0,0,94,3.0,0.0
963,74.0,62,32,1.0,0.0
964,64.0,0,94,2.0,0.0
965,55.0,34,94,2.0,0.0
966,64.0,0,94,2.0,0.0
967,55.0,96,94,2.0,0.0
968,48.0,0,94,3.0,0.0
969,72.0,16,32,1.0,0.0
970,67.0,48,288,4.0,0.0
971,50.0,0,94,3.0,0.0
972,55.0,66,94,2.0,0.0
973,71.0,30,160,1.0,0.0
974,65.0,0,94,2.0,0.0
975,55.0,96,94,2.0,0.0
976,65.0,0,94,2.0,0.0
977,50.0,0,94,3.0,0.0
978,50.0,0,94,3.0,0.0
979,65.0,2,94,2.0,0.0
980,55.0,0,94,2.0,0.0
981,69.0,46,48,4.0,0.0
982,55.0,0,94,2.0,0.0
983,65.0,0,94,2.0,0.0
984,50.0,0,94,3.0,0.0
985,67.0,34,46,4.0,0.0
986,50.0,0,94,3.0,0.0
987,65.0,96,94,2.0,0.0
988,55.0,0,94,2.0,0.0
989,66.0,62,32,4.0,0.0
990,50.0,0,94,3.0,0.0
991,65.0,0,94,2.0,0.0
992,55.0,0,94,2.0,0.0
993,67.0,96,94,4.0,0.0
994,50.0,0,94,3.0,0.0
995,55.0,0,94,3.0,0.0
996,67.0,46,528,4.0,0.0
997,77.0,48,288,1.0,0.0
998,59.0,96,94,2.0,0.0
999,59.0,96,94,2.0,0.0
1000,50.0,0,94,3.0,0.0
1001,55.0,0,94,3.0,0.0
1002,55.0,0,94,3.0,0.0
1003,50.0,0,94,3.0,0.0
1004,59.0,2,94,2.0,0.0
1005,59.0,0,94,2.0,0.0
1006,79.0,46,48,1.0,0.0
1007,50.0,34,94,3.0,0.0
1008,55.0,0,94,3.0,0.0
1009,77.0,0,46,1.0,0.0
1010,76.0,62,32,1.0,0.0
1011,50.0,0,94,3.0,0.0
1012,55.0,0,94,3.0,0.0
1013,59.0,34,94,2.0,0.0
1014,50.0,0,94,3.0,0.0
1015,59.0,96,94,2.0,0.0
1016,74.0,16,32,1.0,0.0
1017,55.0,0,94,3.0,0.0
1018,58.0,0,94,2.0,0.0
1019,73.0,30,160,1.0,0.0
1020,67.0,48,288,4.0,0.0
1021,55.0,66,94,3.0,0.0
1022,52.0,0,94,3.0,0.0
1023,55.0,0,94,3.0,0.0
1024,52.0,96,94,3.0,0.0
1025,58.0,0,94,2.0,0.0
1026,52.0,2,94,3.0,0.0
1027,55.0,0,94,3.0,0.0
1028,58.0,0,94,2.0,0.0
1029,69.0,46,48,4.0,0.0
1030,58.0,0,94,2.0,0.0
1031,52.0,0,94,3.0,0.0
1032,55.0,34,94,3.0,0.0
1033,67.0,0,46,4.0,0.0
1034,52.0,0,94,3.0,0.0
1035,66.0,62,32,4.0,0.0
1036,58.0,0,94,2.0,0.0
1037,55.0,96,94,3.0,0.0
1038,55.0,96,94,3.0,0.0
1039,67.0,0,94,4.0,0.0
1040,58.0,0,94,2.0,0.0
1041,52.0,0,94,3.0,0.0
1042,55.0,96,94,2.0,0.0
1043,52.0,0,94,3.0,0.0
1044,70.0,46,528,4.0,0.0
1045,82.0,50,286,1.0,0.0
1046,67.0,0,94,2.0,0.0
1047,55.0,96,94,2.0,0.0
1048,52.0,0,94,3.0,0.0
1049,67.0,0,94,2.0,0.0
1050,55.0,0,94,2.0,0.0
1051,67.0,0,94,2.0,0.0
1052,52.0,0,94,3.0,0.0
1053,81.0,46,48,1.0,0.0
1054,67.0,0,94,2.0,0.0
1055,55.0,0,94,2.0,0.0
1056,52.0,2,94,3.0,0.0
1057,79.0,48,48,1.0,0.0
1058,67.0,0,94,2.0,0.0
1059,77.0,46,48,1.0,0.0
1060,55.0,0,94,2.0,0.0
1061,52.0,2,94,3.0,0.0
1062,76.0,48,48,1.0,0.0
1063,52.0,0,94,3.0,0.0
1064,74.0,0,48,1.0,0.0
1065,55.0,0,94,2.0,0.0
1066,67.0,34,94,2.0,0.0
1067,73.0,0,46,1.0,0.0
1068,57.0,0,48,2.0,0.0
1069,53.0,0,48,3.0,0.0
1070,69.0,32,48,4.0,0.0
1071,74.0,16,32,1.0,0.0
1072,69.0,48,32,1.0,0.0
1073,71.0,48,32,1.0,0.0
1074,73.0,48,32,1.0,0.0
1075,65.0,0,48,2.0,0.0
1076,62.0,0,48,3.0,0.0
1077,53.0,0,48,4.0,0.0
1078,74.0,16,32,1.0,0.0
1079,69.0,32,48,2.0,0.0
1080,76.0,48,32,1.0,0.0
1081,77.0,48,32,1.0,0.0
1082,76.0,48,32,1.0,0.0
1083,74.0,48,32,1.0,0.0
1084,69.0,48,32,1.0,0.0
1085,71.0,48,32,1.0,0.0
1086,73.0,62,32,1.0,0.0
1087,74.0,48,46,1.0,0.0
1088,76.0,48,46,1.0,0.0
1089,77.0,48,46,1.0,0.0
1090,76.0,48,46,1.0,0.0
1091,74.0,48,46,1.0,0.0
1092,69.0,48,46,1.0,0.0
1093,71.0,48,46,1.0,0.0
1094,73.0,48,46,1.0,0.0
1095,74.0,48,46,1.0,0.0
1096,76.0,48,46,1.0,0.0
1097,77.0,48,46,1.0,0.0
1098,76.0,48,46,1.0,0.0
1099,74.0,48,46,1.0,0.0
1100,69.0,48,46,1.0,0.0
1101,71.0,48,46,1.0,0.0
1102,73.0,48,46,1.0,0.0
1103,74.0,48,46,1.0,0.0
1104,76.0,48,46,1.0,0.0
1105,77.0,48,46,1.0,0.0
1106,76.0,48,46,1.0,0.0
1107,74.0,48,46,1.0,0.0
1108,69.0,48,46,1.0,0.0
1109,57.0,0,46,2.0,0.0
1110,45.0,0,46,4.0,0.0
1111,47.0,0,46,4.0,0.0
1112,71.0,48,46,1.0,0.0
1113,59.0,0,46,2.0,0.0
1114,73.0,48,46,1.0,0.0
1115,61.0,0,46,2.0,0.0
1116,49.0,0,46,4.0,0.0
1117,74.0,0,46,1.0,0.0
1118,62.0,48,46,2.0,0.0
1119,50.0,0,46,4.0,0.0
1120,76.0,0,46,1.0,0.0
1121,64.0,48,46,2.0,0.0
1122,52.0,0,46,4.0,0.0
1123,65.0,0,46,2.0,0.0
1124,77.0,0,46,1.0,0.0
1125,53.0,48,46,4.0,0.0
1126,55.0,0,46,4.0,0.0
1127,79.0,0,46,1.0,0.0
1128,67.0,48,46,2.0,0.0
1129,69.0,0,46,2.0,0.0
1130,81.0,0,46,1.0,0.0
1131,57.0,48,46,4.0,0.0
1132,79.0,48,46,1.0,0.0
1133,67.0,0,46,2.0,0.0
1134,55.0,0,46,4.0,0.0
1135,53.0,0,46,4.0,0.0
1136,65.0,0,46,2.0,0.0
1137,77.0,48,46,1.0,0.0
1138,76.0,0,46,1.0,0.0
1139,64.0,48,46,2.0,0.0
1140,52.0,0,46,4.0,0.0
1141,74.0,48,46,1.0,0.0
1142,62.0,0,46,2.0,0.0
1143,50.0,0,46,4.0,0.0
1144,48.0,0,46,4.0,0.0
1145,72.0,0,46,1.0,0.0
1146,60.0,48,46,2.0,0.0
1147,71.0,48,46,1.0,0.0
1148,47.0,0,46,4.0,0.0
1149,59.0,0,46,2.0,0.0
1150,45.0,0,46,4.0,0.0
1151,69.0,258,46,1.0,0.0
1152,57.0,0,46,2.0,0.0
1153,55.0,0,256,2.0,0.0
1154,43.0,80,256,4.0,0.0
1155,67.0,46,528,1.0,0.0
1156,57.0,48,48,2.0,0.0
1157,45.0,0,48,4.0,0.0
1158,47.0,0,48,4.0,0.0
1159,59.0,48,48,2.0,0.0
1160,60.0,0,48,2.0,0.0
1161,48.0,48,48,4.0,0.0
1162,50.0,0,48,4.0,0.0
1163,62.0,48,48,2.0,0.0
1164,64.0,0,48,2.0,0.0
1165,52.0,0,48,4.0,0.0
1166,54.0,0,46,4.0,0.0
1167,66.0,32,46,2.0,0.0
1168,55.0,2,94,4.0,0.0
1169,76.0,34,30,1.0,0.0
1170,67.0,0,94,2.0,0.0
1171,74.0,30,32,1.0,0.0
1172,76.0,32,32,1.0,0.0
1173,65.0,0,94,3.0,0.0
1174,74.0,32,32,1.0,0.0
1175,55.0,0,94,4.0,0.0
1176,71.0,2,94,2.0,0.0
1177,76.0,30,32,1.0,0.0
1178,74.0,32,32,1.0,0.0
1179,71.0,0,94,2.0,0.0
1180,55.0,0,94,4.0,0.0
1181,76.0,32,32,1.0,0.0
1182,65.0,2,94,3.0,0.0
1183,74.0,30,32,1.0,0.0
1184,76.0,32,32,1.0,0.0
1185,74.0,32,32,1.0,0.0
1186,71.0,0,94,2.0,0.0
1187,65.0,2,94,3.0,0.0
1188,55.0,0,94,4.0,0.0
1189,76.0,30,32,1.0,0.0
1190,74.0,32,32,1.0,0.0
1191,76.0,32,32,1.0,0.0
1192,65.0,2,94,3.0,0.0
1193,71.0,0,94,2.0,0.0
1194,55.0,0,94,4.0,0.0
1195,74.0,30,32,1.0,0.0
1196,76.0,32,32,1.0,0.0
1197,55.0,2,94,4.0,0.0
1198,71.0,0,94,2.0,0.0
1199,65.0,0,94,3.0,0.0
1200,74.0,32,32,1.0,0.0
1201,76.0,30,32,1.0,0.0
1202,74.0,160,32,1.0,0.0
1203,64.0,288,160,3.0,0.0
1204,48.0,0,160,4.0,0.0
1205,72.0,0,160,1.0,0.0
1206,52.0,94,288,3.0,0.0
1207,60.0,0,288,1.0,0.0
1208,55.0,32,256,2.0,0.0
1209,55.0,98,94,2.0,0.0
1210,59.0,0,94,1.0,0.0
1211,50.0,0,94,3.0,0.0
1212,55.0,0,96,2.0,0.0
1213,59.0,0,96,1.0,0.0
1214,50.0,94,96,3.0,0.0
1215,65.0,0,94,1.0,0.0
1216,59.0,0,94,3.0,0.0
1217,62.0,96,94,2.0,0.0
1218,65.0,94,96,1.0,0.0
1219,59.0,2,94,3.0,0.0
1220,62.0,0,96,2.0,0.0
1221,60.0,96,94,2.0,0.0
1222,64.0,0,94,1.0,0.0
1223,60.0,2,94,2.0,0.0
1224,64.0,94,96,1.0,0.0
1225,53.0,96,94,3.0,0.0
1226,69.0,0,94,1.0,0.0
1227,60.0,0,94,2.0,0.0
1228,60.0,2,94,2.0,0.0
1229,53.0,0,96,3.0,0.0
1230,69.0,94,96,1.0,0.0
1231,52.0,98,94,3.0,0.0
1232,67.0,0,94,1.0,0.0
1233,60.0,0,94,2.0,0.0
1234,60.0,0,96,2.0,0.0
1235,67.0,94,96,1.0,0.0
1236,52.0,0,96,3.0,0.0
1237,67.0,0,94,2.0,0.0
1238,64.0,0,94,3.0,0.0
1239,72.0,98,94,1.0,0.0
1240,67.0,94,96,2.0,0.0
1241,64.0,0,96,3.0,0.0
1242,72.0,0,96,1.0,0.0
1243,65.0,98,94,2.0,0.0
1244,71.0,0,94,1.0,0.0
1245,62.0,0,94,3.0,0.0
1246,62.0,0,96,3.0,0.0
1247,71.0,94,96,1.0,0.0
1248,65.0,0,96,2.0,0.0
1249,62.0,162,94,2.0,0.0
1250,59.0,0,94,3.0,0.0
1251,77.0,0,94,1.0,0.0
1252,59.0,0,160,3.0,0.0
1253,77.0,0,160,1.0,0.0
1254,62.0,1088,160,2.0,0.0
1255,60.0,624,528,4.0,0.0
1256,76.0,48,288,1.0,0.0
1257,72.0,0,528,2.0,0.0
1258,67.0,0,528,3.0,0.0
1259,77.0,46,48,1.0,0.0
1260,76.0,34,46,1.0,0.0
1261,74.0,96,32,1.0,0.0
1262,76.0,16,32,1.0,0.0
1263,72.0,0,576,2.0,0.0
1264,54.0,0,576,4.0,0.0
1265,81.0,0,576,1.0,0.0
1266,62.0,192,0,3.0,0.0
1267,53.0,0,192,4.0,0.0
1268,72.0,0,192,2.0,0.0
1269,81.0,0,192,1.0,0.0
1270,79.0,0,48,1.0,0.0
1271,64.0,192,48,3.0,0.0
1272,55.0,0,48,4.0,0.0
1273,72.0,0,48,2.0,0.0
1274,71.0,0,48,1.0,0.0
1275,65.0,0,48,2.0,0.0
1276,62.0,0,48,3.0,0.0
1277,43.0,192,48,4.0,0.0
1278,64.0,0,48,2.0,0.0
1279,48.0,0,48,4.0,0.0
1280,72.0,0,48,1.0,0.0
1281,60.0,432,48,3.0,0.0
1282,64.0,0,288,3.0,0.0
1283,67.0,94,288,2.0,0.0
1284,72.0,0,288,1.0,0.0
1285,71.0,0,94,1.0,0.0
1286,62.0,0,94,3.0,0.0
1287,65.0,98,94,2.0,0.0
1288,62.0,0,96,3.0,0.0
1289,65.0,94,96,2.0,0.0
1290,71.0,0,96,1.0,0.0
1291,59.0,0,94,3.0,0.0
1292,77.0,98,94,1.0,0.0
1293,62.0,0,94,2.0,0.0
1294,77.0,0,96,1.0,0.0
1295,62.0,0,96,2.0,0.0
1296,59.0,94,96,3.0,0.0
1297,76.0,0,94,1.0,0.0
1298,60.0,0,94,3.0,0.0
1299,64.0,98,94,2.0,0.0
1300,60.0,0,96,3.0,0.0
1301,64.0,94,96,2.0,0.0
1302,76.0,0,96,1.0,0.0
1303,65.0,96,94,3.0,0.0
1304,81.0,0,94,1.0,0.0
1305,72.0,0,94,2.0,0.0
1306,65.0,0,96,3.0,0.0
1307,72.0,2,94,2.0,0.0
1308,81.0,94,96,1.0,0.0
1309,64.0,0,94,3.0,0.0
1310,72.0,0,94,2.0,0.0
1311,79.0,98,94,1.0,0.0
1312,72.0,0,96,2.0,0.0
1313,79.0,94,96,1.0,0.0
1314,64.0,0,96,3.0,0.0
1315,79.0,0,94,2.0,0.0
1316,76.0,98,94,3.0,0.0
1317,84.0,0,94,1.0,0.0
1318,79.0,0,96,2.0,0.0
1319,76.0,94,96,3.0,0.0
1320,84.0,0,96,1.0,0.0
1321,77.0,0,94,2.0,0.0
1322,74.0,0,94,3.0,0.0
1323,83.0,98,94,1.0,0.0
1324,74.0,94,96,3.0,0.0
1325,77.0,0,96,2.0,0.0
1326,83.0,0,96,1.0,0.0
1327,89.0,0,94,1.0,0.0
1328,71.0,162,94,3.0,0.0
1329,74.0,0,94,2.0,0.0
1330,74.0,0,160,2.0,0.0
1331,89.0,0,160,1.0,0.0
1332,71.0,1328,160,3.0,0.0
1333,55.0,0,528,2.0,0.0
1334,60.0,0,528,3.0,0.0
1335,63.0,576,528,1.0,0.0
1336,48.0,0,528,4.0,0.0
1337,60.0,0,528,1.0,0.0
1338,56.0,0,528,3.0,0.0
1339,44.0,384,528,4.0,0.0
1340,63.0,0,528,1.0,0.0
1341,57.0,0,336,2.0,0.0
1342,42.0,0,336,4.0,0.0
1343,54.0,0,336,3.0,0.0
1344,60.0,208,336,1.0,0.0
1345,63.0,0,336,1.0,0.0
1346,57.0,0,160,2.0,0.0
1347,53.0,0,160,3.0,0.0
1348,60.0,80,160,1.0,0.0
1349,63.0,0,160,1.0,0.0
1350,41.0,0,160,4.0,0.0
1351,57.0,192,48,2.0,0.0
1352,64.0,0,48,1.0,0.0
1353,52.0,0,48,3.0,0.0
1354,60.0,0,48,1.0,0.0
1355,40.0,0,48,4.0,0.0
1356,38.0,0,48,4.0,0.0
1357,57.0,192,48,3.0,0.0
1358,62.0,0,48,2.0,0.0
1359,65.0,0,48,1.0,0.0
1360,62.0,0,48,1.0,0.0
1361,59.0,0,48,2.0,0.0
1362,53.0,238,48,3.0,0.0
1363,43.0,0,48,4.0,0.0
1364,52.0,66,94,3.0,0.0
1365,60.0,30,160,1.0,0.0
1366,48.0,48,288,4.0,0.0
1367,64.0,0,94,2.0,0.0
1368,60.0,96,94,3.0,0.0
1369,55.0,0,94,2.0,0.0
1370,64.0,2,94,2.0,0.0
1371,55.0,0,94,2.0,0.0
1372,60.0,0,94,3.0,0.0
1373,60.0,0,94,3.0,0.0
1374,64.0,0,94,2.0,0.0
1375,55.0,34,94,2.0,0.0
1376,50.0,46,48,4.0,0.0
1377,48.0,0,46,4.0,0.0
1378,60.0,34,94,3.0,0.0
1379,55.0,0,94,2.0,0.0
1380,47.0,62,32,4.0,0.0
1381,64.0,0,94,2.0,0.0
1382,48.0,62,32,4.0,0.0
1383,60.0,0,94,3.0,0.0
1384,55.0,96,94,2.0,0.0
1385,64.0,0,94,2.0,0.0
1386,60.0,0,94,3.0,0.0
1387,36.0,30,160,4.0,0.0
1388,64.0,66,94,2.0,0.0
1389,55.0,0,94,2.0,0.0
1390,55.0,0,94,2.0,0.0
1391,64.0,96,94,2.0,0.0
1392,60.0,0,94,3.0,0.0
1393,64.0,0,94,2.0,0.0
1394,60.0,66,94,3.0,0.0
1395,55.0,0,94,2.0,0.0
1396,76.0,30,160,1.0,0.0
1397,55.0,0,94,2.0,0.0
1398,60.0,0,94,3.0,0.0
1399,64.0,34,94,2.0,0.0
1400,64.0,0,94,2.0,0.0
1401,55.0,2,94,2.0,0.0
1402,60.0,0,94,3.0,0.0
1403,77.0,32,32,1.0,0.0
1404,76.0,30,32,1.0,0.0
1405,77.0,32,32,1.0,0.0
1406,55.0,96,94,2.0,0.0
1407,64.0,0,94,2.0,0.0
1408,60.0,0,94,3.0,0.0
1409,76.0,32,32,1.0,0.0
1410,74.0,30,32,1.0,0.0
1411,76.0,0,30,1.0,0.0
1412,62.0,0,94,3.0,0.0
1413,48.0,48,288,4.0,0.0
1414,65.0,0,94,2.0,0.0
1415,55.0,96,94,2.0,0.0
1416,79.0,94,192,1.0,0.0
1417,65.0,0,94,2.0,0.0
1418,62.0,2,94,3.0,0.0
1419,55.0,0,94,2.0,0.0
1420,77.0,30,160,1.0,0.0
1421,65.0,0,94,2.0,0.0
1422,55.0,2,94,2.0,0.0
1423,62.0,0,94,3.0,0.0
1424,62.0,0,94,3.0,0.0
1425,50.0,16,48,4.0,0.0
1426,55.0,0,94,2.0,0.0
1427,65.0,34,94,2.0,0.0
1428,48.0,0,46,4.0,0.0
1429,65.0,0,94,2.0,0.0
1430,47.0,62,32,4.0,0.0
1431,62.0,34,94,3.0,0.0
1432,55.0,0,94,2.0,0.0
1433,55.0,0,94,2.0,0.0
1434,65.0,0,94,2.0,0.0
1435,62.0,96,94,3.0,0.0
1436,48.0,62,32,4.0,0.0
1437,65.0,0,94,2.0,0.0
1438,36.0,30,160,4.0,0.0
1439,62.0,0,94,3.0,0.0
1440,55.0,66,94,2.0,0.0
1441,62.0,96,94,3.0,0.0
1442,65.0,0,94,2.0,0.0
1443,55.0,0,94,2.0,0.0
1444,55.0,66,94,2.0,0.0
1445,65.0,0,94,2.0,0.0
1446,62.0,0,94,3.0,0.0
1447,83.0,30,160,1.0,0.0
1448,62.0,34,94,3.0,0.0
1449,55.0,0,94,2.0,0.0
1450,65.0,0,94,2.0,0.0
1451,62.0,0,94,3.0,0.0
1452,65.0,0,94,2.0,0.0
1453,84.0,32,32,1.0,0.0
1454,55.0,2,94,2.0,0.0
1455,83.0,30,32,1.0,0.0
1456,84.0,32,32,1.0,0.0
1457,62.0,0,94,3.0,0.0
1458,83.0,32,32,1.0,0.0
1459,55.0,0,94,2.0,0.0
1460,65.0,0,94,2.0,0.0
1461,81.0,30,32,1.0,0.0
1462,83.0,50,30,1.0,0.0
1463,64.0,2,94,2.0,0.0
1464,55.0,0,94,2.0,0.0
1465,60.0,0,94,3.0,0.0
1466,50.0,46,48,4.0,0.0
1467,84.0,48,96,1.0,0.0
1468,48.0,0,48,4.0,0.0
1469,47.0,46,48,4.0,0.0
1470,55.0,0,94,2.0,0.0
1471,88.0,0,94,1.0,0.0
1472,60.0,0,94,3.0,0.0
1473,64.0,50,94,2.0,0.0
1474,48.0,0,46,4.0,0.0
1475,60.0,0,94,3.0,0.0
1476,79.0,30,160,1.0,0.0
1477,55.0,0,94,2.0,0.0
1478,64.0,2,94,2.0,0.0
1479,50.0,46,48,4.0,0.0
1480,48.0,48,48,4.0,0.0
1481,47.0,16,48,4.0,0.0
1482,60.0,0,94,3.0,0.0
1483,55.0,0,94,2.0,0.0
1484,64.0,50,94,2.0,0.0
1485,48.0,0,46,4.0,0.0
1486,60.0,0,94,3.0,0.0
1487,64.0,0,94,2.0,0.0
1488,50.0,46,48,4.0,0.0
1489,55.0,2,94,2.0,0.0
1490,48.0,48,48,4.0,0.0
1491,55.0,0,94,2.0,0.0
1492,60.0,50,94,3.0,0.0
1493,47.0,46,48,4.0,0.0
1494,64.0,0,94,2.0,0.0
1495,48.0,0,46,4.0,0.0
1496,64.0,2,94,2.0,0.0
1497,55.0,0,94,2.0,0.0
1498,77.0,46,48,1.0,0.0
1499,36.0,30,160,4.0,0.0
1500,60.0,0,94,3.0,0.0
1501,76.0,48,48,1.0,0.0
1502,74.0,16,48,1.0,0.0
1503,60.0,0,94,3.0,0.0
1504,64.0,0,94,2.0,0.0
1505,55.0,50,94,2.0,0.0
1506,76.0,0,46,1.0,0.0
1507,77.0,46,48,1.0,0.0
1508,60.0,0,94,3.0,0.0
1509,55.0,0,94,2.0,0.0
1510,64.0,2,94,2.0,0.0
1511,76.0,48,48,1.0,0.0
1512,55.0,0,94,2.0,0.0
1513,64.0,0,94,2.0,0.0
1514,60.0,50,94,3.0,0.0
1515,74.0,46,48,1.0,0.0
1516,76.0,0,46,1.0,0.0
1517,60.0,2,94,3.0,0.0
1518,77.0,46,48,1.0,0.0
1519,64.0,0,94,2.0,0.0
1520,55.0,0,94,2.0,0.0
1521,76.0,48,48,1.0,0.0
1522,74.0,46,48,1.0,0.0
1523,55.0,0,94,2.0,0.0
1524,64.0,0,94,2.0,0.0
1525,60.0,50,94,3.0,0.0
1526,76.0,0,46,1.0,0.0
1527,62.0,2,94,3.0,0.0
1528,50.0,46,48,4.0,0.0
1529,65.0,0,94,2.0,0.0
1530,55.0,0,94,2.0,0.0
1531,79.0,48,192,1.0,0.0
1532,48.0,48,48,4.0,0.0
1533,55.0,2,94,2.0,0.0
1534,62.0,0,94,3.0,0.0
1535,47.0,46,48,4.0,0.0
1536,65.0,0,94,2.0,0.0
1537,48.0,0,46,4.0,0.0
1538,50.0,46,48,4.0,0.0
1539,77.0,30,160,1.0,0.0
1540,65.0,0,94,2.0,0.0
1541,55.0,0,94,2.0,0.0
1542,62.0,2,94,3.0,0.0
1543,48.0,48,48,4.0,0.0
1544,47.0,16,48,4.0,0.0
1545,55.0,50,94,2.0,0.0
1546,62.0,0,94,3.0,0.0
1547,65.0,0,94,2.0,0.0
1548,48.0,0,46,4.0,0.0
1549,55.0,0,94,2.0,0.0
1550,50.0,46,48,4.0,0.0
1551,62.0,0,94,3.0,0.0
1552,65.0,2,94,2.0,0.0
1553,48.0,48,48,4.0,0.0
1554,55.0,0,94,2.0,0.0
1555,47.0,46,48,4.0,0.0
1556,65.0,0,94,2.0,0.0
1557,62.0,50,94,3.0,0.0
1558,48.0,0,46,4.0,0.0
1559,36.0,30,160,4.0,0.0
1560,65.0,0,94,2.0,0.0
1561,62.0,2,94,3.0,0.0
1562,84.0,46,48,1.0,0.0
1563,55.0,0,94,2.0,0.0
1564,83.0,48,48,1.0,0.0
1565,81.0,16,48,1.0,0.0
1566,65.0,0,94,2.0,0.0
1567,62.0,0,94,3.0,0.0
1568,55.0,0,94,2.0,0.0
1569,83.0,50,46,1.0,0.0
1570,62.0,0,94,3.0,0.0
1571,55.0,0,94,2.0,0.0
1572,65.0,2,94,2.0,0.0
1573,84.0,46,48,1.0,0.0
1574,83.0,48,48,1.0,0.0
1575,62.0,0,94,3.0,0.0
1576,81.0,46,48,1.0,0.0
1577,55.0,0,94,2.0,0.0
1578,65.0,0,94,2.0,0.0
1579,83.0,50,46,1.0,0.0
1580,84.0,46,48,1.0,0.0
1581,55.0,0,94,2.0,0.0
1582,65.0,0,94,2.0,0.0
1583,62.0,2,94,3.0,0.0
1584,83.0,48,48,1.0,0.0
1585,55.0,34,94,2.0,0.0
1586,65.0,0,94,2.0,0.0
1587,62.0,0,94,3.0,0.0
1588,81.0,46,48,1.0,0.0
1589,83.0,0,46,1.0,0.0
1590,84.0,16,32,1.0,0.0
1591,55.0,0,48,2.0,0.0
1592,48.0,32,48,4.0,0.0
1593,60.0,0,48,3.0,0.0
1594,64.0,0,48,2.0,0.0
1595,88.0,48,32,1.0,0.0
1596,86.0,48,32,1.0,0.0
1597,84.0,48,32,1.0,0.0
1598,72.0,0,48,2.0,0.0
1599,64.0,0,48,3.0,0.0
1600,55.0,0,48,3.0,0.0
1601,83.0,16,32,1.0,0.0
1602,48.0,32,48,4.0,0.0
1603,81.0,48,32,1.0,0.0
1604,79.0,48,32,1.0,0.0
1605,77.0,48,32,1.0,0.0
1606,76.0,48,32,1.0,0.0
1607,84.0,48,32,1.0,0.0
1608,83.0,48,32,1.0,0.0
1609,81.0,62,32,1.0,0.0
1610,79.0,48,46,1.0,0.0
1611,77.0,48,46,1.0,0.0
1612,76.0,48,46,1.0,0.0
1613,74.0,48,46,1.0,0.0
1614,72.0,48,46,1.0,0.0
1615,79.0,48,46,1.0,0.0
1616,77.0,48,46,1.0,0.0
1617,76.0,48,46,1.0,0.0
1618,74.0,48,46,1.0,0.0
1619,72.0,48,46,1.0,0.0
1620,71.0,48,46,1.0,0.0
1621,69.0,48,46,1.0,0.0
1622,67.0,48,46,1.0,0.0
1623,76.0,48,46,1.0,0.0
1624,74.0,48,46,1.0,0.0
1625,72.0,48,46,1.0,0.0
1626,71.0,48,46,1.0,0.0
1627,69.0,48,46,1.0,0.0
1628,67.0,48,46,1.0,0.0
1629,65.0,48,46,1.0,0.0
1630,64.0,0,46,1.0,0.0
1631,52.0,48,46,4.0,0.0
1632,72.0,48,46,1.0,0.0
1633,60.0,0,46,4.0,0.0
1634,59.0,0,46,4.0,0.0
1635,71.0,48,46,1.0,0.0
1636,57.0,0,46,4.0,0.0
1637,69.0,48,46,1.0,0.0
1638,67.0,0,46,1.0,0.0
1639,55.0,48,46,4.0,0.0
1640,53.0,0,46,4.0,0.0
1641,65.0,48,46,1.0,0.0
1642,52.0,0,46,4.0,0.0
1643,64.0,48,46,1.0,0.0
1644,50.0,0,46,4.0,0.0
1645,62.0,50,46,1.0,0.0
1646,60.0,0,48,1.0,0.0
1647,48.0,48,48,4.0,0.0
1648,47.0,0,48,4.0,0.0
1649,59.0,48,48,1.0,0.0
1650,48.0,48,48,4.0,0.0
1651,60.0,0,48,1.0,0.0
1652,47.0,48,48,4.0,0.0
1653,59.0,0,48,1.0,0.0
1654,60.0,0,48,1.0,0.0
1655,48.0,48,48,4.0,0.0
1656,59.0,0,48,1.0,0.0
1657,47.0,48,48,4.0,0.0
1658,60.0,46,48,1.0,0.0
1659,48.0,0,48,4.0,0.0
1660,59.0,50,46,1.0,0.0
1661,47.0,0,46,4.0,0.0
1662,48.0,192,48,4.0,0.0
1663,60.0,0,48,1.0,0.0
1664,55.0,0,48,2.0,0.0
1665,60.0,192,48,1.0,0.0
1666,52.0,0,48,3.0,0.0
1667,36.0,0,48,4.0,0.0
1668,36.0,0,48,4.0,0.0
1669,52.0,0,48,3.0,0.0
1670,55.0,0,48,2.0,0.0
1671,60.0,192,48,1.0,0.0
1672,55.0,0,48,2.0,0.0
1673,60.0,816,48,1.0,0.0
1674,36.0,0,48,4.0,0.0
1675,52.0,0,48,3.0,0.0
1676,53.0,48,288,3.0,0.0
1677,65.0,0,288,1.0,0.0
1678,55.0,46,48,3.0,0.0
1679,67.0,0,48,1.0,0.0
1680,53.0,0,46,3.0,0.0
1681,65.0,34,46,1.0,0.0
1682,52.0,0,32,3.0,0.0
1683,64.0,96,32,1.0,0.0
1684,65.0,224,32,1.0,0.0
1685,53.0,0,32,3.0,0.0
1686,60.0,0,160,1.0,0.0
1687,48.0,704,160,3.0,0.0
1688,53.0,0,288,3.0,0.0
1689,65.0,48,288,1.0,0.0
1690,55.0,46,48,3.0,0.0
1691,67.0,0,48,1.0,0.0
1692,65.0,0,46,1.0,0.0
1693,53.0,34,46,3.0,0.0
1694,64.0,96,32,1.0,0.0
1695,52.0,0,32,3.0,0.0
1696,65.0,224,32,1.0,0.0
1697,53.0,0,32,3.0,0.0
1698,62.0,704,160,1.0,0.0
1699,50.0,0,160,3.0,0.0
1700,77.0,48,288,1.0,0.0
1701,70.0,0,576,2.0,0.0
1702,50.0,384,576,4.0,0.0
1703,62.0,0,576,3.0,0.0
1704,79.0,46,48,1.0,0.0
1705,77.0,34,46,1.0,0.0
1706,76.0,96,32,1.0,0.0
1707,77.0,64,32,1.0,0.0
1708,79.0,0,384,1.0,0.0
1709,60.0,0,576,3.0,0.0
1710,70.0,160,384,2.0,0.0
1711,52.0,192,576,4.0,0.0
1712,67.0,32,160,2.0,0.0
1713,70.0,0,160,1.0,0.0
1714,60.0,0,192,3.0,0.0
1715,69.0,0,384,1.0,0.0
1716,53.0,192,192,4.0,0.0
1717,65.0,0,384,2.0,0.0
1718,62.0,142,192,3.0,0.0
1719,50.0,0,192,4.0,0.0
1720,74.0,16,144,1.0,0.0
1721,55.0,0,160,3.0,0.0
1722,70.0,2,142,2.0,0.0
1723,46.0,30,160,4.0,0.0
1724,67.0,0,46,2.0,0.0
1725,70.0,98,46,1.0,0.0
1726,48.0,16,528,4.0,0.0
1727,65.0,0,384,2.0,0.0
1728,69.0,144,384,1.0,0.0
1729,60.0,96,96,3.0,0.0
1730,59.0,96,96,3.0,0.0
1731,60.0,96,96,3.0,0.0
1732,59.0,0,96,3.0,0.0
1733,67.0,0,160,1.0,0.0
1734,60.0,0,160,3.0,0.0
1735,64.0,320,160,2.0,0.0
1736,65.0,48,288,1.0,0.0
1737,53.0,0,288,3.0,0.0
1738,55.0,0,48,3.0,0.0
1739,67.0,46,48,1.0,0.0
1740,53.0,34,46,3.0,0.0
1741,65.0,0,46,1.0,0.0
1742,64.0,96,32,1.0,0.0
1743,52.0,0,32,3.0,0.0
1744,65.0,0,32,1.0,0.0
1745,53.0,224,32,3.0,0.0
1746,60.0,704,160,1.0,0.0
1747,48.0,0,160,3.0,0.0
1748,53.0,0,288,3.0,0.0
1749,65.0,48,288,1.0,0.0
1750,55.0,0,48,3.0,0.0
1751,67.0,46,48,1.0,0.0
1752,65.0,0,46,1.0,0.0
1753,53.0,34,46,3.0,0.0
1754,64.0,96,32,1.0,0.0
1755,52.0,0,32,3.0,0.0
1756,53.0,224,32,3.0,0.0
1757,65.0,0,32,1.0,0.0
1758,50.0,704,160,3.0,0.0
1759,62.0,0,160,1.0,0.0
1760,77.0,48,288,1.0,0.0
1761,79.0,46,48,1.0,0.0
1762,77.0,34,46,1.0,0.0
1763,76.0,96,32,1.0,0.0
1764,77.0,448,32,1.0,0.0
1765,81.0,0,384,1.0,0.0
1766,70.0,0,384,3.0,0.0
1767,79.0,320,160,1.0,0.0
1768,61.0,160,0,4.0,0.0
1769,76.0,0,0,2.0,0.0
1770,70.0,0,160,3.0,0.0
1771,79.0,48,288,1.0,0.0
1772,81.0,46,48,1.0,0.0
1773,79.0,34,46,1.0,0.0
1774,78.0,96,32,1.0,0.0
1775,79.0,448,32,1.0,0.0
1776,82.0,0,384,1.0,0.0
1777,72.0,0,384,2.0,0.0
1778,66.0,0,384,4.0,0.0
1779,75.0,160,0,3.0,0.0
1780,81.0,0,160,1.0,0.0
1781,66.0,320,160,4.0,0.0
1782,72.0,0,160,2.0,0.0
1783,81.0,48,288,1.0,0.0
1784,82.0,46,48,1.0,0.0
1785,81.0,34,46,1.0,0.0
1786,79.0,96,32,1.0,0.0
1787,81.0,320,32,1.0,0.0
1788,75.0,0,288,2.0,0.0
1789,84.0,0,288,1.0,0.0
1790,66.0,94,288,3.0,0.0
1791,58.0,32,256,4.0,0.0
1792,82.0,0,96,1.0,0.0
1793,67.0,94,96,3.0,0.0
1794,58.0,2,94,4.0,0.0
1795,74.0,0,96,2.0,0.0
1796,69.0,0,94,3.0,0.0
1797,58.0,2,94,4.0,0.0
1798,72.0,0,96,2.0,0.0
1799,81.0,94,96,1.0,0.0
1800,70.0,0,94,2.0,0.0
1801,79.0,0,94,1.0,0.0
1802,58.0,290,94,4.0,0.0
1803,72.0,0,384,3.0,0.0
1804,69.0,0,288,2.0,0.0
1805,60.0,0,384,4.0,0.0
1806,77.0,24,288,1.0,0.0
1807,70.0,24,24,2.0,0.0
1808,79.0,0,24,1.0,0.0
1809,69.0,0,24,2.0,0.0
1810,77.0,24,24,1.0,0.0
1811,76.0,24,24,1.0,0.0
1812,67.0,0,24,2.0,0.0
1813,69.0,96,24,2.0,0.0
1814,77.0,0,24,1.0,0.0
1815,81.0,64,96,1.0,0.0
1816,48.0,0,160,4.0,0.0
1817,64.0,30,160,3.0,0.0
1818,72.0,0,96,2.0,0.0
1819,70.0,0,94,2.0,0.0
1820,79.0,162,94,1.0,0.0
1821,69.0,704,160,2.0,0.0
1822,53.0,0,160,4.0,0.0
1823,77.0,0,160,1.0,0.0
1824,65.0,0,160,3.0,0.0
1825,60.0,48,288,2.0,0.0
1826,62.0,46,48,2.0,0.0
1827,60.0,34,46,2.0,0.0
1828,59.0,96,32,2.0,0.0
1829,60.0,352,32,2.0,0.0
1830,63.0,32,384,2.0,0.0
1831,59.0,16,528,4.0,0.0
1832,68.0,0,528,3.0,0.0
1833,77.0,48,288,1.0,0.0
1834,79.0,46,48,1.0,0.0
1835,77.0,2,46,1.0,0.0
1836,76.0,96,32,1.0,0.0
1837,62.0,320,160,2.0,0.0
1838,77.0,16,32,1.0,0.0
1839,62.0,48,288,2.0,0.0
1840,63.0,46,48,2.0,0.0
1841,62.0,34,46,2.0,0.0
1842,61.0,96,32,2.0,0.0
1843,62.0,352,32,2.0,0.0
1844,65.0,32,384,2.0,0.0
1845,79.0,48,288,1.0,0.0
1846,58.0,16,528,3.0,0.0
1847,49.0,0,528,4.0,0.0
1848,81.0,46,48,1.0,0.0
1849,79.0,2,46,1.0,0.0
1850,78.0,96,32,1.0,0.0
1851,64.0,320,160,2.0,0.0
1852,79.0,16,32,1.0,0.0
1853,67.0,48,288,2.0,0.0
1854,69.0,46,48,2.0,0.0
1855,67.0,34,46,2.0,0.0
1856,66.0,96,32,2.0,0.0
1857,67.0,352,32,2.0,0.0
1858,63.0,0,336,3.0,0.0
1859,84.0,48,288,1.0,0.0
1860,53.0,46,336,4.0,0.0
1861,70.0,32,384,2.0,0.0
1862,86.0,0,48,1.0,0.0
1863,84.0,2,46,1.0,0.0
1864,83.0,96,32,1.0,0.0
1865,69.0,320,160,2.0,0.0
1866,63.0,0,160,3.0,0.0
1867,46.0,0,160,4.0,0.0
1868,84.0,32,32,1.0,0.0
1869,58.0,46,336,4.0,0.0
1870,72.0,0,384,2.0,0.0
1871,66.0,32,384,3.0,0.0
1872,86.0,48,288,1.0,0.0
1873,87.0,0,48,1.0,0.0
1874,86.0,2,46,1.0,0.0
1875,70.0,0,48,2.0,0.0
1876,67.0,112,48,3.0,0.0
1877,85.0,16,32,1.0,0.0
1878,46.0,30,160,4.0,0.0
1879,86.0,50,94,1.0,0.0
1880,88.0,48,48,1.0,0.0
1881,58.0,0,48,3.0,0.0
1882,48.0,0,48,4.0,0.0
1883,69.0,94,96,2.0,0.0
1884,67.0,50,94,2.0,0.0
1885,69.0,94,96,2.0,0.0
1886,88.0,0,48,1.0,0.0
1887,58.0,0,48,3.0,0.0
1888,48.0,48,48,4.0,0.0
1889,67.0,50,94,2.0,0.0
1890,69.0,94,96,2.0,0.0
1891,48.0,48,48,4.0,0.0
1892,58.0,0,48,3.0,0.0
1893,88.0,0,48,1.0,0.0
1894,67.0,96,94,2.0,0.0
1895,41.0,30,160,4.0,0.0
1896,57.0,0,94,3.0,0.0
1897,89.0,0,160,1.0,0.0
1898,65.0,66,94,2.0,0.0
1899,60.0,96,94,3.0,0.0
1900,57.0,0,94,2.0,0.0
1901,65.0,0,94,2.0,0.0
1902,57.0,96,94,2.0,0.0
1903,65.0,0,94,2.0,0.0
1904,60.0,0,94,3.0,0.0
1905,60.0,0,94,3.0,0.0
1906,65.0,96,94,2.0,0.0
1907,57.0,0,94,2.0,0.0
1908,60.0,96,94,3.0,0.0
1909,65.0,0,94,2.0,0.0
1910,57.0,0,94,2.0,0.0
1911,57.0,0,94,2.0,0.0
1912,60.0,96,94,3.0,0.0
1913,65.0,0,94,2.0,0.0
1914,57.0,96,94,2.0,0.0
1915,48.0,48,288,4.0,0.0
1916,60.0,0,94,3.0,0.0
1917,65.0,0,94,2.0,0.0
1918,65.0,0,94,2.0,0.0
1919,57.0,0,94,2.0,0.0
1920,60.0,96,94,3.0,0.0
1921,60.0,0,94,3.0,0.0
1922,57.0,0,94,2.0,0.0
1923,65.0,2,94,2.0,0.0
1924,69.0,0,94,1.0,0.0
1925,65.0,0,94,2.0,0.0
1926,57.0,0,94,2.0,0.0
1927,50.0,46,48,4.0,0.0
1928,60.0,0,94,3.0,0.0
1929,48.0,32,46,4.0,0.0
1930,47.0,32,32,4.0,0.0
1931,60.0,2,94,3.0,0.0
1932,70.0,2,30,1.0,0.0
1933,65.0,0,94,2.0,0.0
1934,57.0,0,94,2.0,0.0
1935,69.0,30,32,1.0,0.0
1936,70.0,32,32,1.0,0.0
1937,65.0,0,94,2.0,0.0
1938,57.0,0,94,2.0,0.0
1939,48.0,32,32,4.0,0.0
1940,69.0,0,32,1.0,0.0
1941,60.0,2,94,3.0,0.0
1942,67.0,30,32,1.0,0.0
1943,69.0,94,32,1.0,0.0
1944,60.0,0,94,3.0,0.0
1945,72.0,94,288,1.0,0.0
1946,64.0,66,94,2.0,0.0
1947,55.0,0,94,2.0,0.0
1948,36.0,30,160,4.0,0.0
1949,60.0,0,94,3.0,0.0
1950,64.0,0,94,2.0,0.0
1951,55.0,96,94,2.0,0.0
1952,60.0,0,94,3.0,0.0
1953,55.0,2,94,2.0,0.0
1954,64.0,0,94,2.0,0.0
1955,55.0,0,94,2.0,0.0
1956,64.0,0,94,2.0,0.0
1957,70.0,34,94,1.0,0.0
1958,60.0,0,94,3.0,0.0
1959,55.0,0,94,2.0,0.0
1960,60.0,0,94,3.0,0.0
1961,67.0,62,32,1.0,0.0
1962,64.0,34,94,2.0,0.0
1963,65.0,62,32,1.0,0.0
1964,64.0,0,94,2.0,0.0
1965,60.0,96,94,3.0,0.0
1966,55.0,0,94,2.0,0.0
1967,48.0,48,288,4.0,0.0
1968,60.0,66,94,3.0,0.0
1969,55.0,0,94,2.0,0.0
1970,64.0,30,160,1.0,0.0
1971,55.0,0,94,2.0,0.0
1972,64.0,0,94,2.0,0.0
1973,60.0,96,94,3.0,0.0
1974,64.0,0,94,2.0,0.0
1975,55.0,0,94,2.0,0.0
1976,60.0,2,94,3.0,0.0
1977,55.0,0,94,2.0,0.0
1978,70.0,34,94,1.0,0.0
1979,60.0,0,94,3.0,0.0
1980,64.0,0,94,2.0,0.0
1981,50.0,46,48,4.0,0.0
1982,48.0,0,46,4.0,0.0
1983,64.0,0,94,2.0,0.0
1984,72.0,32,32,1.0,0.0
1985,55.0,0,94,2.0,0.0
1986,47.0,0,32,4.0,0.0
1987,60.0,2,94,3.0,0.0
1988,70.0,30,32,1.0,0.0
1989,72.0,32,32,1.0,0.0
1990,55.0,0,94,2.0,0.0
1991,60.0,0,94,3.0,0.0
1992,70.0,32,32,1.0,0.0
1993,48.0,0,32,4.0,0.0
1994,64.0,96,94,2.0,0.0
1995,69.0,30,32,1.0,0.0
1996,70.0,0,30,1.0,0.0
1997,60.0,0,94,3.0,0.0
1998,36.0,30,160,4.0,0.0
1999,74.0,94,288,1.0,0.0
2000,65.0,66,94,2.0,0.0
2001,57.0,0,94,2.0,0.0
2002,60.0,0,94,3.0,0.0
2003,65.0,96,94,2.0,0.0
2004,57.0,0,94,2.0,0.0
2005,57.0,2,94,2.0,0.0
2006,60.0,0,94,3.0,0.0
2007,65.0,0,94,2.0,0.0
2008,60.0,34,94,3.0,0.0
2009,65.0,0,94,2.0,0.0
2010,72.0,0,94,1.0,0.0
2011,57.0,0,94,2.0,0.0
2012,60.0,0,94,3.0,0.0
2013,69.0,62,32,1.0,0.0
2014,65.0,0,94,2.0,0.0
2015,57.0,34,94,2.0,0.0
2016,60.0,0,94,3.0,0.0
2017,67.0,62,32,1.0,0.0
2018,57.0,96,94,2.0,0.0
2019,65.0,0,94,2.0,0.0
2020,60.0,66,94,3.0,0.0
2021,65.0,30,160,1.0,0.0
2022,57.0,0,94,2.0,0.0
2023,48.0,48,288,4.0,0.0
2024,65.0,0,94,2.0,0.0
2025,60.0,96,94,3.0,0.0
2026,57.0,0,94,2.0,0.0
2027,60.0,0,94,3.0,0.0
2028,57.0,2,94,2.0,0.0
2029,65.0,0,94,2.0,0.0
2030,57.0,0,94,2.0,0.0
2031,65.0,0,94,2.0,0.0
2032,77.0,0,94,1.0,0.0
2033,50.0,46,48,4.0,0.0
2034,60.0,34,94,3.0,0.0
2035,48.0,0,46,4.0,0.0
2036,47.0,32,32,4.0,0.0
2037,65.0,2,94,2.0,0.0
2038,57.0,0,94,2.0,0.0
2039,60.0,0,94,3.0,0.0
2040,79.0,0,32,1.0,0.0
2041,77.0,30,32,1.0,0.0
2042,79.0,32,32,1.0,0.0
2043,60.0,0,94,3.0,0.0
2044,48.0,0,94,4.0,0.0
2045,77.0,32,32,1.0,0.0
2046,57.0,96,94,2.0,0.0
2047,65.0,0,94,2.0,0.0
2048,76.0,30,32,1.0,0.0
2049,77.0,0,30,1.0,0.0
2050,64.0,0,94,3.0,0.0
2051,36.0,30,160,4.0,0.0
2052,67.0,66,94,2.0,0.0
2053,81.0,94,288,1.0,0.0
2054,58.0,0,94,2.0,0.0
2055,64.0,0,94,3.0,0.0
2056,58.0,96,94,2.0,0.0
2057,67.0,0,94,2.0,0.0
2058,58.0,0,94,2.0,0.0
2059,67.0,0,94,2.0,0.0
2060,64.0,2,94,3.0,0.0
2061,58.0,34,94,2.0,0.0
2062,67.0,0,94,2.0,0.0
2063,64.0,0,94,3.0,0.0
2064,79.0,0,94,1.0,0.0
2065,79.0,62,32,1.0,0.0
2066,64.0,0,94,3.0,0.0
2067,58.0,34,94,2.0,0.0
2068,67.0,0,94,2.0,0.0
2069,67.0,0,94,2.0,0.0
2070,58.0,0,94,2.0,0.0
2071,64.0,96,94,3.0,0.0
2072,77.0,62,32,1.0,0.0
2073,64.0,2,94,3.0,0.0
2074,58.0,0,94,2.0,0.0
2075,67.0,0,94,2.0,0.0
2076,48.0,32,288,4.0,0.0
2077,77.0,94,96,1.0,0.0
2078,67.0,0,94,2.0,0.0
2079,58.0,0,94,2.0,0.0
2080,76.0,0,94,1.0,0.0
2081,64.0,34,94,3.0,0.0
2082,76.0,62,32,1.0,0.0
2083,64.0,2,94,3.0,0.0
2084,67.0,0,94,2.0,0.0
2085,58.0,0,94,2.0,0.0
2086,74.0,16,32,1.0,0.0
2087,67.0,0,94,2.0,0.0
2088,58.0,34,94,2.0,0.0
2089,50.0,46,48,4.0,0.0
2090,64.0,0,94,3.0,0.0
2091,48.0,0,46,4.0,0.0
2092,58.0,0,94,2.0,0.0
2093,72.0,0,32,1.0,0.0
2094,64.0,34,94,3.0,0.0
2095,67.0,0,94,2.0,0.0
2096,47.0,62,32,4.0,0.0
2097,70.0,62,32,1.0,0.0
2098,58.0,0,94,2.0,0.0
2099,67.0,0,94,2.0,0.0
2100,48.0,0,32,4.0,0.0
2101,64.0,50,94,3.0,0.0
2102,57.0,0,94,2.0,0.0
2103,67.0,0,94,2.0,0.0
2104,64.0,96,94,3.0,0.0
2105,69.0,0,670,1.0,0.0
2106,49.0,46,48,4.0,0.0
2107,67.0,0,94,2.0,0.0
2108,57.0,50,94,2.0,0.0
2109,64.0,0,94,3.0,0.0
2110,57.0,96,94,2.0,0.0
2111,67.0,0,94,2.0,0.0
2112,45.0,46,48,4.0,0.0
2113,61.0,0,94,3.0,0.0
2114,61.0,50,94,3.0,0.0
2115,57.0,0,94,2.0,0.0
2116,67.0,0,94,2.0,0.0
2117,57.0,96,94,2.0,0.0
2118,64.0,0,94,3.0,0.0
2119,49.0,46,48,4.0,0.0
2120,67.0,0,94,2.0,0.0
2121,57.0,96,94,2.0,0.0
2122,64.0,0,94,3.0,0.0
2123,67.0,0,94,2.0,0.0
2124,57.0,0,94,2.0,0.0
2125,62.0,50,94,3.0,0.0
2126,50.0,30,160,4.0,0.0
2127,65.0,0,94,2.0,0.0
2128,71.0,16,48,1.0,0.0
2129,57.0,0,94,2.0,0.0
2130,65.0,0,94,2.0,0.0
2131,62.0,2,94,3.0,0.0
2132,73.0,48,48,1.0,0.0
2133,65.0,2,94,2.0,0.0
2134,57.0,0,94,2.0,0.0
2135,62.0,0,94,3.0,0.0
2136,74.0,46,48,1.0,0.0
2137,76.0,48,48,1.0,0.0
2138,77.0,46,48,1.0,0.0
2139,62.0,0,94,3.0,0.0
2140,65.0,2,94,2.0,0.0
2141,57.0,0,94,2.0,0.0
2142,76.0,48,48,1.0,0.0
2143,57.0,0,94,2.0,0.0
2144,62.0,2,94,3.0,0.0
2145,65.0,0,94,2.0,0.0
2146,74.0,46,48,1.0,0.0
2147,72.0,48,48,1.0,0.0
2148,71.0,46,48,1.0,0.0
2149,65.0,50,94,2.0,0.0
2150,57.0,0,94,2.0,0.0
2151,62.0,0,94,3.0,0.0
2152,69.0,0,46,1.0,0.0
2153,62.0,96,94,3.0,0.0
2154,47.0,46,48,4.0,0.0
2155,67.0,0,670,1.0,0.0
2156,65.0,0,94,2.0,0.0
2157,55.0,0,94,2.0,0.0
2158,62.0,50,94,3.0,0.0
2159,65.0,0,94,2.0,0.0
2160,55.0,0,94,2.0,0.0
2161,43.0,46,48,4.0,0.0
2162,59.0,0,94,3.0,0.0
2163,55.0,0,94,2.0,0.0
2164,65.0,96,94,2.0,0.0
2165,65.0,50,94,2.0,0.0
2166,59.0,0,94,3.0,0.0
2167,55.0,0,94,2.0,0.0
2168,65.0,0,94,2.0,0.0
2169,47.0,46,48,4.0,0.0
2170,62.0,96,94,3.0,0.0
2171,55.0,0,94,2.0,0.0
2172,55.0,0,94,2.0,0.0
2173,65.0,0,94,2.0,0.0
2174,62.0,96,94,3.0,0.0
2175,60.0,50,94,3.0,0.0
2176,55.0,0,94,2.0,0.0
2177,63.0,0,94,2.0,0.0
2178,48.0,30,160,4.0,0.0
2179,55.0,0,94,2.0,0.0
2180,63.0,2,94,2.0,0.0
2181,60.0,0,94,3.0,0.0
2182,69.0,16,48,1.0,0.0
2183,71.0,48,48,1.0,0.0
2184,60.0,2,94,3.0,0.0
2185,55.0,0,94,2.0,0.0
2186,63.0,0,94,2.0,0.0
2187,72.0,46,48,1.0,0.0
2188,71.0,48,48,1.0,0.0
2189,60.0,2,94,3.0,0.0
2190,72.0,46,48,1.0,0.0
2191,63.0,0,94,2.0,0.0
2192,55.0,0,94,2.0,0.0
2193,71.0,48,48,1.0,0.0
2194,63.0,0,94,2.0,0.0
2195,60.0,0,94,3.0,0.0
2196,72.0,46,48,1.0,0.0
2197,55.0,2,94,2.0,0.0
2198,71.0,48,48,1.0,0.0
2199,60.0,0,94,3.0,0.0
2200,63.0,0,94,2.0,0.0
2201,55.0,0,94,2.0,0.0
2202,72.0,46,48,1.0,0.0
2203,71.0,290,46,1.0,0.0
2204,63.0,128,736,2.0,0.0
2205,51.0,48,288,3.0,0.0
2206,44.0,0,1104,4.0,0.0
2207,60.0,0,736,2.0,0.0
2208,72.0,48,864,1.0,0.0
2209,53.0,46,48,3.0,0.0
2210,51.0,34,46,3.0,0.0
2211,50.0,96,32,3.0,0.0
2212,51.0,224,32,3.0,0.0
2213,51.0,16,528,3.0,0.0
2214,60.0,30,160,2.0,0.0
2215,73.0,16,48,1.0,0.0
2216,72.0,34,46,1.0,0.0
2217,70.0,96,32,1.0,0.0
2218,60.0,320,160,2.0,0.0
2219,72.0,16,32,1.0,0.0
2220,51.0,46,288,3.0,0.0
2221,46.0,0,1104,4.0,0.0
2222,61.0,176,736,2.0,0.0
2223,75.0,0,288,1.0,0.0
2224,73.0,0,94,1.0,0.0
2225,53.0,48,46,3.0,0.0
2226,51.0,34,46,3.0,0.0
2227,70.0,0,32,1.0,0.0
2228,50.0,96,32,3.0,0.0
2229,51.0,0,32,3.0,0.0
2230,68.0,224,32,1.0,0.0
2231,67.0,0,160,1.0,0.0
2232,51.0,16,528,3.0,0.0
2233,61.0,30,160,2.0,0.0
2234,75.0,16,48,1.0,0.0
2235,73.0,34,46,1.0,0.0
2236,61.0,320,160,2.0,0.0
2237,72.0,96,32,1.0,0.0
2238,73.0,16,32,1.0,0.0
2239,63.0,0,736,2.0,0.0
2240,48.0,0,736,4.0,0.0
2241,51.0,0,288,3.0,0.0
2242,77.0,48,288,1.0,0.0
2243,52.0,46,48,3.0,0.0
2244,75.0,34,94,1.0,0.0
2245,51.0,0,46,3.0,0.0
2246,50.0,0,32,3.0,0.0
2247,72.0,96,32,1.0,0.0
2248,70.0,0,32,1.0,0.0
2249,51.0,224,32,3.0,0.0
2250,51.0,0,160,3.0,0.0
2251,69.0,80,160,1.0,0.0
2252,66.0,96,48,2.0,0.0
2253,48.0,0,48,4.0,0.0
2254,69.0,0,48,3.0,0.0
2255,77.0,46,48,1.0,0.0
2256,75.0,34,46,1.0,0.0
2257,74.0,16,32,1.0,0.0
2258,48.0,80,48,4.0,0.0
2259,69.0,0,48,3.0,0.0
2260,66.0,0,48,2.0,0.0
2261,75.0,592,32,1.0,0.0
2262,68.0,0,528,2.0,0.0
2263,59.0,96,528,3.0,0.0
2264,77.0,0,528,1.0,0.0
2265,50.0,0,528,4.0,0.0
2266,67.0,192,48,2.0,0.0
2267,75.0,0,48,1.0,0.0
2268,51.0,0,48,4.0,0.0
2269,60.0,0,48,3.0,0.0
2270,74.0,192,48,1.0,0.0
2271,68.0,0,48,2.0,0.0
2272,65.0,0,48,3.0,0.0
2273,53.0,0,48,4.0,0.0
2274,54.0,0,48,4.0,0.0
2275,63.0,176,48,3.0,0.0
2276,69.0,0,48,2.0,0.0
2277,72.0,0,48,1.0,0.0
2278,71.0,48,32,1.0,0.0
2279,62.0,0,160,3.0,0.0
2280,67.0,16,160,2.0,0.0
2281,55.0,0,160,4.0,0.0
2282,67.0,48,32,1.0,0.0
2283,69.0,32,32,1.0,0.0
2284,71.0,48,32,1.0,0.0
2285,72.0,48,32,1.0,0.0
2286,74.0,48,32,1.0,0.0
2287,62.0,48,32,2.0,0.0
2288,59.0,0,32,3.0,0.0
2289,76.0,0,32,1.0,0.0
2290,78.0,48,32,1.0,0.0
2291,62.0,0,32,2.0,0.0
2292,59.0,48,32,3.0,0.0
2293,79.0,0,32,1.0,0.0
2294,78.0,48,32,1.0,0.0
2295,63.0,48,32,2.0,0.0
2296,79.0,0,32,1.0,0.0
2297,60.0,0,32,3.0,0.0
2298,78.0,48,32,1.0,0.0
2299,55.0,48,32,4.0,0.0
2300,79.0,0,160,1.0,0.0
2301,59.0,0,160,3.0,0.0
2302,62.0,16,160,2.0,0.0
2303,43.0,48,32,4.0,0.0
2304,45.0,32,32,4.0,0.0
2305,47.0,48,32,4.0,0.0
2306,48.0,48,32,4.0,0.0
2307,50.0,48,32,4.0,0.0
2308,67.0,0,32,3.0,0.0
2309,52.0,0,32,4.0,0.0
2310,83.0,48,32,1.0,0.0
2311,74.0,0,32,2.0,0.0
2312,54.0,48,32,4.0,0.0
2313,74.0,48,32,2.0,0.0
2314,67.0,0,32,3.0,0.0
2315,55.0,0,32,4.0,0.0
2316,83.0,0,32,1.0,0.0
2317,54.0,48,32,4.0,0.0
2318,67.0,0,32,3.0,0.0
2319,75.0,0,32,2.0,0.0
2320,84.0,48,32,1.0,0.0
2321,55.0,0,32,4.0,0.0
2322,54.0,62,32,4.0,0.0
2323,74.0,30,160,2.0,0.0
2324,55.0,0,160,4.0,0.0
2325,83.0,48,46,1.0,0.0
2326,67.0,0,160,3.0,0.0
2327,67.0,48,46,1.0,0.0
2328,69.0,18,46,1.0,0.0
2329,71.0,48,46,1.0,0.0
2330,72.0,48,46,1.0,0.0
2331,74.0,34,46,1.0,0.0
2332,76.0,48,46,1.0,0.0
2333,62.0,0,32,2.0,0.0
2334,59.0,14,32,3.0,0.0
2335,78.0,34,46,1.0,0.0
2336,79.0,48,46,1.0,0.0
2337,59.0,0,32,3.0,0.0
2338,62.0,14,32,2.0,0.0
2339,78.0,34,46,1.0,0.0
2340,79.0,48,46,1.0,0.0
2341,63.0,14,32,2.0,0.0
2342,60.0,0,32,3.0,0.0
2343,78.0,48,46,1.0,0.0
2344,55.0,48,46,4.0,0.0
2345,59.0,0,160,3.0,0.0
2346,79.0,30,160,1.0,0.0
2347,62.0,0,160,2.0,0.0
2348,43.0,48,46,4.0,0.0
2349,45.0,18,46,4.0,0.0
2350,47.0,48,46,4.0,0.0
2351,48.0,48,46,4.0,0.0
2352,50.0,34,46,4.0,0.0
2353,74.0,14,32,2.0,0.0
2354,83.0,0,32,1.0,0.0
2355,52.0,48,46,4.0,0.0
2356,67.0,0,32,3.0,0.0
2357,54.0,34,46,4.0,0.0
2358,67.0,0,32,3.0,0.0
2359,83.0,0,32,1.0,0.0
2360,74.0,14,32,2.0,0.0
2361,55.0,48,46,4.0,0.0
2362,54.0,34,46,4.0,0.0
2363,75.0,0,32,2.0,0.0
2364,84.0,14,32,1.0,0.0
2365,67.0,0,32,3.0,0.0
2366,55.0,48,46,4.0,0.0
2367,54.0,48,46,4.0,0.0
2368,83.0,48,46,1.0,0.0
2369,74.0,30,160,2.0,0.0
2370,55.0,0,160,4.0,0.0
2371,67.0,0,160,3.0,0.0
2372,55.0,48,46,1.0,0.0
2373,57.0,18,46,1.0,0.0
2374,59.0,48,46,1.0,0.0
2375,60.0,48,46,1.0,0.0
2376,62.0,34,46,1.0,0.0
2377,55.0,14,32,4.0,0.0
2378,59.0,0,32,3.0,0.0
2379,74.0,0,32,2.0,0.0
2380,64.0,48,46,1.0,0.0
2381,66.0,34,46,1.0,0.0
2382,55.0,0,32,4.0,0.0
2383,74.0,14,32,2.0,0.0
2384,59.0,0,32,3.0,0.0
2385,67.0,48,46,1.0,0.0
2386,66.0,34,46,1.0,0.0
2387,75.0,0,32,2.0,0.0
2388,60.0,0,32,3.0,0.0
2389,48.0,14,32,4.0,0.0
2390,67.0,48,46,1.0,0.0
2391,66.0,48,46,1.0,0.0
2392,55.0,0,46,4.0,0.0
2393,67.0,0,46,1.0,0.0
2394,74.0,48,46,2.0,0.0
2395,59.0,0,46,3.0,0.0
2396,67.0,0,46,1.0,0.0
2397,55.0,48,46,2.0,0.0
2398,43.0,0,46,4.0,0.0
2399,69.0,0,46,1.0,0.0
2400,57.0,48,46,2.0,0.0
2401,45.0,0,46,4.0,0.0
2402,71.0,0,46,1.0,0.0
2403,59.0,0,46,2.0,0.0
2404,47.0,48,46,4.0,0.0
2405,48.0,0,46,4.0,0.0
2406,60.0,0,46,2.0,0.0
2407,72.0,48,46,1.0,0.0
2408,62.0,0,46,2.0,0.0
2409,74.0,48,46,1.0,0.0
2410,50.0,0,46,4.0,0.0
2411,52.0,0,46,4.0,0.0
2412,64.0,0,46,2.0,0.0
2413,76.0,48,46,1.0,0.0
2414,78.0,48,46,1.0,0.0
2415,66.0,0,46,2.0,0.0
2416,54.0,0,46,4.0,0.0
2417,55.0,0,46,4.0,0.0
2418,67.0,0,46,2.0,0.0
2419,79.0,48,46,1.0,0.0
2420,78.0,48,46,1.0,0.0
2421,54.0,0,46,4.0,0.0
2422,66.0,0,46,2.0,0.0
2423,67.0,0,46,2.0,0.0
2424,55.0,0,46,4.0,0.0
2425,79.0,48,46,1.0,0.0
2426,66.0,0,46,2.0,0.0
2427,54.0,96,46,4.0,0.0
2428,78.0,0,46,1.0,0.0
2429,79.0,66,94,1.0,0.0
2430,67.0,96,160,2.0,0.0
2431,55.0,0,160,4.0,0.0
2432,79.0,192,160,1.0,0.0
2433,79.0,128,160,1.0,0.0
2434,79.0,94,96,1.0,0.0
2435,80.0,162,94,1.0,0.0
2436,80.0,192,160,1.0,0.0
2437,80.0,128,160,1.0,0.0
2438,80.0,94,96,1.0,0.0
2439,81.0,98,94,1.0,0.0
2440,81.0,94,96,1.0,0.0
2441,77.0,98,94,1.0,0.0
2442,77.0,94,96,1.0,0.0
2443,74.0,98,94,1.0,0.0
2444,74.0,94,96,1.0,0.0
2445,71.0,98,94,1.0,0.0
2446,71.0,94,96,1.0,0.0
2447,67.0,98,94,1.0,0.0
2448,67.0,32,96,1.0,0.0
2449,65.0,0,32,3.0,0.0
2450,71.0,98,94,1.0,0.0
2451,67.0,62,32,2.0,0.0
2452,71.0,94,96,1.0,0.0
2453,65.0,0,96,3.0,0.0
2454,67.0,0,190,2.0,0.0
2455,72.0,98,94,1.0,0.0
2456,64.0,0,94,3.0,0.0
2457,72.0,0,96,1.0,0.0
2458,67.0,0,96,2.0,0.0
2459,64.0,94,96,3.0,0.0
2460,71.0,0,94,2.0,0.0
2461,74.0,98,94,1.0,0.0
2462,62.0,0,94,3.0,0.0
2463,74.0,94,96,1.0,0.0
2464,62.0,0,96,3.0,0.0
2465,71.0,0,96,2.0,0.0
2466,72.0,0,94,2.0,0.0
2467,76.0,96,94,1.0,0.0
2468,60.0,0,94,3.0,0.0
2469,72.0,192,96,2.0,0.0
2470,76.0,0,96,1.0,0.0
2471,60.0,2,94,3.0,0.0
2472,59.0,16,336,3.0,0.0
2473,76.0,0,192,2.0,0.0
2474,79.0,144,192,1.0,0.0
2475,74.0,0,160,2.0,0.0
2476,77.0,64,160,1.0,0.0
2477,64.0,160,32,3.0,0.0
2478,64.0,94,96,3.0,0.0
2479,65.0,98,94,3.0,0.0
2480,65.0,94,96,3.0,0.0
2481,62.0,98,94,3.0,0.0
2482,62.0,94,96,3.0,0.0
2483,59.0,98,94,3.0,0.0
2484,59.0,94,96,3.0,0.0
2485,56.0,98,94,3.0,0.0
2486,56.0,94,96,3.0,0.0
2487,64.0,98,94,3.0,0.0
2488,64.0,94,96,3.0,0.0
2489,71.0,94,192,2.0,0.0
2490,80.0,0,192,1.0,0.0
2491,62.0,98,94,3.0,0.0
2492,62.0,0,96,3.0,0.0
2493,81.0,0,192,1.0,0.0
2494,60.0,98,94,3.0,0.0
2495,76.0,94,192,2.0,0.0
2496,60.0,0,96,3.0,0.0
2497,84.0,94,192,1.0,0.0
2498,57.0,98,94,3.0,0.0
2499,64.0,0,192,2.0,0.0
2500,57.0,0,96,3.0,0.0
2501,72.0,94,384,2.0,0.0
2502,62.0,66,94,3.0,0.0
2503,78.0,32,160,1.0,0.0
2504,62.0,94,96,3.0,0.0
2505,81.0,0,192,1.0,0.0
2506,55.0,98,94,3.0,0.0
2507,55.0,0,96,3.0,0.0
2508,79.0,0,94,1.0,0.0
2509,71.0,98,94,2.0,0.0
2510,67.0,0,94,3.0,0.0
2511,54.0,96,96,4.0,0.0
2512,55.0,96,96,4.0,0.0
2513,56.0,32,96,4.0,0.0
2514,57.0,160,32,4.0,0.0
2515,57.0,94,96,4.0,0.0
2516,53.0,98,94,4.0,0.0
2517,53.0,94,96,4.0,0.0
2518,50.0,98,94,4.0,0.0
2519,50.0,94,96,4.0,0.0
2520,47.0,98,94,4.0,0.0
2521,47.0,94,96,4.0,0.0
2522,43.0,98,94,4.0,0.0
2523,43.0,32,96,4.0,0.0
2524,77.0,0,32,1.0,0.0
2525,47.0,98,94,4.0,0.0
2526,55.0,62,32,3.0,0.0
2527,62.0,0,32,2.0,0.0
2528,62.0,0,96,2.0,0.0
2529,47.0,0,96,4.0,0.0
2530,77.0,94,96,1.0,0.0
2531,55.0,0,190,3.0,0.0
2532,48.0,98,94,4.0,0.0
2533,64.0,0,94,2.0,0.0
2534,76.0,0,94,1.0,0.0
2535,72.0,0,96,2.0,0.0
2536,48.0,0,96,4.0,0.0
2537,76.0,94,96,1.0,0.0
2538,67.0,0,96,3.0,0.0
2539,71.0,0,94,2.0,0.0
2540,65.0,98,94,3.0,0.0
2541,74.0,0,94,1.0,0.0
2542,50.0,0,94,4.0,0.0
2543,74.0,0,96,1.0,0.0
2544,65.0,94,96,3.0,0.0
2545,50.0,0,96,4.0,0.0
2546,71.0,0,96,2.0,0.0
2547,72.0,0,94,1.0,0.0
2548,52.0,0,94,4.0,0.0
2549,64.0,96,94,3.0,0.0
2550,67.0,0,94,2.0,0.0
2551,52.0,0,94,4.0,0.0
2552,67.0,194,94,2.0,0.0
2553,72.0,0,94,1.0,0.0
2554,64.0,0,94,3.0,0.0
2555,72.0,64,192,1.0,0.0
2556,53.0,0,256,4.0,0.0
2557,62.0,0,256,3.0,0.0
2558,68.0,30,256,2.0,0.0
2559,71.0,130,94,1.0,0.0
2560,67.0,160,32,2.0,0.0
2561,67.0,94,96,2.0,0.0
2562,68.0,98,94,2.0,0.0
2563,68.0,32,96,2.0,0.0
2564,68.0,62,32,3.0,0.0
2565,65.0,98,94,2.0,0.0
2566,65.0,94,96,2.0,0.0
2567,68.0,0,96,3.0,0.0
2568,80.0,0,384,1.0,0.0
2569,65.0,0,94,3.0,0.0
2570,62.0,98,94,2.0,0.0
2571,62.0,0,96,2.0,0.0
2572,65.0,94,96,3.0,0.0
2573,62.0,98,94,3.0,0.0
2574,59.0,0,94,2.0,0.0
2575,59.0,94,96,2.0,0.0
2576,62.0,0,96,3.0,0.0
2577,60.0,98,94,2.0,0.0
2578,79.0,0,192,1.0,0.0
2579,63.0,0,94,3.0,0.0
2580,60.0,64,96,3.0,0.0
2581,75.0,30,160,2.0,0.0
2582,84.0,30,160,1.0,0.0
2583,54.0,66,94,3.0,0.0
2584,54.0,94,96,3.0,0.0
2585,75.0,2,94,2.0,0.0
2586,75.0,0,384,2.0,0.0
2587,84.0,94,384,1.0,0.0
2588,55.0,98,94,3.0,0.0
2589,55.0,94,96,3.0,0.0
2590,67.0,98,94,3.0,0.0
2591,67.0,0,96,3.0,0.0
2592,86.0,0,144,1.0,0.0
2593,55.0,50,94,3.0,0.0
2594,77.0,46,144,2.0,0.0
2595,55.0,96,94,3.0,0.0
2596,83.0,0,46,1.0,0.0
2597,74.0,0,46,2.0,0.0
2598,72.0,66,94,2.0,0.0
2599,60.0,0,94,3.0,0.0
2600,67.0,48,288,4.0,0.0
2601,84.0,30,160,1.0,0.0
2602,64.0,0,94,2.0,0.0
2603,48.0,96,94,3.0,0.0
2604,55.0,0,94,2.0,0.0
2605,55.0,0,94,2.0,0.0
2606,64.0,0,94,2.0,0.0
2607,48.0,2,94,3.0,0.0
2608,64.0,0,94,2.0,0.0
2609,55.0,34,94,2.0,0.0
2610,48.0,0,94,3.0,0.0
2611,69.0,46,48,4.0,0.0
2612,67.0,0,46,4.0,0.0
2613,48.0,96,94,3.0,0.0
2614,66.0,62,32,4.0,0.0
2615,64.0,0,94,2.0,0.0
2616,55.0,0,94,2.0,0.0
2617,64.0,96,94,2.0,0.0
2618,55.0,0,94,2.0,0.0
2619,67.0,0,94,4.0,0.0
2620,48.0,0,94,3.0,0.0
2621,48.0,0,94,3.0,0.0
2622,76.0,48,288,1.0,0.0
2623,67.0,46,528,4.0,0.0
2624,64.0,96,94,2.0,0.0
2625,55.0,0,94,2.0,0.0
2626,48.0,0,94,3.0,0.0
2627,55.0,96,94,2.0,0.0
2628,64.0,0,94,2.0,0.0
2629,48.0,0,94,3.0,0.0
2630,64.0,2,94,2.0,0.0
2631,55.0,0,94,2.0,0.0
2632,77.0,46,48,1.0,0.0
2633,55.0,0,94,2.0,0.0
2634,64.0,0,94,2.0,0.0
2635,48.0,0,94,3.0,0.0
2636,76.0,34,46,1.0,0.0
2637,55.0,0,94,2.0,0.0
2638,48.0,34,94,3.0,0.0
2639,64.0,0,94,2.0,0.0
2640,74.0,62,32,1.0,0.0
2641,64.0,0,94,2.0,0.0
2642,72.0,16,32,1.0,0.0
2643,55.0,96,94,2.0,0.0
2644,48.0,0,94,3.0,0.0
2645,55.0,66,94,2.0,0.0
2646,67.0,48,288,4.0,0.0
2647,65.0,0,94,2.0,0.0
2648,71.0,30,160,1.0,0.0
2649,50.0,0,94,3.0,0.0
2650,65.0,0,94,2.0,0.0
2651,55.0,96,94,2.0,0.0
2652,50.0,0,94,3.0,0.0
2653,50.0,2,94,3.0,0.0
2654,55.0,0,94,2.0,0.0
2655,65.0,0,94,2.0,0.0
2656,69.0,46,48,4.0,0.0
2657,55.0,0,94,2.0,0.0
2658,65.0,0,94,2.0,0.0
2659,50.0,0,94,3.0,0.0
2660,67.0,34,46,4.0,0.0
2661,65.0,0,94,2.0,0.0
2662,55.0,0,94,2.0,0.0
2663,66.0,62,32,4.0,0.0
2664,50.0,96,94,3.0,0.0
2665,67.0,0,94,4.0,0.0
2666,65.0,0,94,2.0,0.0
2667,55.0,0,94,2.0,0.0
2668,50.0,96,94,3.0,0.0
2669,50.0,0,94,3.0,0.0
2670,55.0,96,94,3.0,0.0
2671,67.0,46,528,4.0,0.0
2672,59.0,0,94,2.0,0.0
2673,77.0,48,288,1.0,0.0
2674,55.0,0,94,3.0,0.0
2675,59.0,0,94,2.0,0.0
2676,50.0,96,94,3.0,0.0
2677,59.0,2,94,2.0,0.0
2678,50.0,0,94,3.0,0.0
2679,55.0,0,94,3.0,0.0
2680,50.0,0,94,3.0,0.0
2681,55.0,0,94,3.0,0.0
2682,79.0,46,48,1.0,0.0
2683,59.0,0,94,2.0,0.0
2684,77.0,34,46,1.0,0.0
2685,59.0,0,94,2.0,0.0
2686,55.0,0,94,3.0,0.0
2687,76.0,62,32,1.0,0.0
2688,50.0,34,94,3.0,0.0
2689,50.0,0,94,3.0,0.0
2690,55.0,0,94,3.0,0.0
2691,74.0,16,32,1.0,0.0
2692,59.0,96,94,2.0,0.0
2693,67.0,48,288,4.0,0.0
2694,52.0,66,94,3.0,0.0
2695,58.0,0,94,2.0,0.0
2696,73.0,30,160,1.0,0.0
2697,55.0,0,94,3.0,0.0
2698,55.0,0,94,3.0,0.0
2699,52.0,0,94,3.0,0.0
2700,58.0,96,94,2.0,0.0
2701,55.0,0,94,3.0,0.0
2702,58.0,0,94,2.0,0.0
2703,52.0,2,94,3.0,0.0
2704,58.0,34,94,2.0,0.0
2705,55.0,0,94,3.0,0.0
2706,52.0,0,94,3.0,0.0
2707,69.0,46,48,4.0,0.0
2708,67.0,0,46,4.0,0.0
2709,66.0,62,32,4.0,0.0
2710,58.0,96,94,2.0,0.0
2711,52.0,0,94,3.0,0.0
2712,55.0,0,94,3.0,0.0
2713,67.0,0,94,4.0,0.0
2714,55.0,96,94,3.0,0.0
2715,52.0,0,94,3.0,0.0
2716,58.0,0,94,2.0,0.0
2717,82.0,0,286,1.0,0.0
2718,70.0,46,528,4.0,0.0
2719,67.0,0,94,2.0,0.0
2720,52.0,96,94,3.0,0.0
2721,55.0,0,94,2.0,0.0
2722,55.0,0,94,2.0,0.0
2723,67.0,0,94,2.0,0.0
2724,52.0,96,94,3.0,0.0
2725,52.0,50,94,3.0,0.0
2726,67.0,0,94,2.0,0.0
2727,55.0,0,94,2.0,0.0
2728,81.0,46,48,1.0,0.0
2729,52.0,0,94,3.0,0.0
2730,55.0,0,94,2.0,0.0
2731,67.0,2,94,2.0,0.0
2732,79.0,48,48,1.0,0.0
2733,55.0,0,94,2.0,0.0
2734,52.0,2,94,3.0,0.0
2735,67.0,0,94,2.0,0.0
2736,77.0,46,48,1.0,0.0
2737,76.0,48,48,1.0,0.0
2738,67.0,0,94,2.0,0.0
2739,55.0,0,94,2.0,0.0
2740,74.0,0,48,1.0,0.0
2741,52.0,0,94,3.0,0.0
2742,73.0,34,46,1.0,0.0
2743,53.0,32,48,3.0,0.0
2744,69.0,0,48,4.0,0.0
2745,57.0,0,48,2.0,0.0
2746,74.0,16,32,1.0,0.0
2747,69.0,48,32,1.0,0.0
2748,71.0,48,32,1.0,0.0
2749,73.0,48,32,1.0,0.0
2750,53.0,0,48,4.0,0.0
2751,65.0,0,48,2.0,0.0
2752,69.0,32,48,2.0,0.0
2753,62.0,0,48,3.0,0.0
2754,74.0,16,32,1.0,0.0
2755,76.0,48,32,1.0,0.0
2756,77.0,48,32,1.0,0.0
2757,76.0,48,32,1.0,0.0
2758,74.0,48,32,1.0,0.0
2759,69.0,48,32,1.0,0.0
2760,71.0,48,32,1.0,0.0
2761,73.0,62,32,1.0,0.0
2762,74.0,48,46,1.0,0.0
2763,76.0,48,46,1.0,0.0
2764,77.0,48,46,1.0,0.0
2765,76.0,48,46,1.0,0.0
2766,74.0,48,46,1.0,0.0
2767,69.0,48,46,1.0,0.0
2768,71.0,48,46,1.0,0.0
2769,73.0,48,46,1.0,0.0
2770,74.0,48,46,1.0,0.0
2771,76.0,48,46,1.0,0.0
2772,77.0,48,46,1.0,0.0
2773,76.0,48,46,1.0,0.0
2774,74.0,48,46,1.0,0.0
2775,69.0,48,46,1.0,0.0
2776,71.0,48,46,1.0,0.0
2777,73.0,48,46,1.0,0.0
2778,74.0,48,46,1.0,0.0
2779,76.0,48,46,1.0,0.0
2780,77.0,48,46,1.0,0.0
2781,76.0,48,46,1.0,0.0
2782,74.0,48,46,1.0,0.0
2783,57.0,48,46,2.0,0.0
2784,45.0,0,46,4.0,0.0
2785,69.0,0,46,1.0,0.0
2786,59.0,0,46,2.0,0.0
2787,47.0,0,46,4.0,0.0
2788,71.0,48,46,1.0,0.0
2789,61.0,0,46,2.0,0.0
2790,49.0,48,46,4.0,0.0
2791,73.0,0,46,1.0,0.0
2792,62.0,0,46,2.0,0.0
2793,74.0,0,46,1.0,0.0
2794,50.0,48,46,4.0,0.0
2795,52.0,0,46,4.0,0.0
2796,76.0,0,46,1.0,0.0
2797,64.0,48,46,2.0,0.0
2798,53.0,0,46,4.0,0.0
2799,77.0,0,46,1.0,0.0
2800,65.0,48,46,2.0,0.0
2801,79.0,0,46,1.0,0.0
2802,67.0,48,46,2.0,0.0
2803,55.0,0,46,4.0,0.0
2804,69.0,48,46,2.0,0.0
2805,81.0,0,46,1.0,0.0
2806,57.0,0,46,4.0,0.0
2807,67.0,0,46,2.0,0.0
2808,55.0,0,46,4.0,0.0
2809,79.0,48,46,1.0,0.0
2810,65.0,0,46,2.0,0.0
2811,53.0,0,46,4.0,0.0
2812,77.0,48,46,1.0,0.0
2813,64.0,48,46,2.0,0.0
2814,52.0,0,46,4.0,0.0
2815,76.0,0,46,1.0,0.0
2816,62.0,0,46,2.0,0.0
2817,74.0,48,46,1.0,0.0
2818,50.0,0,46,4.0,0.0
2819,72.0,0,46,1.0,0.0
2820,48.0,0,46,4.0,0.0
2821,60.0,48,46,2.0,0.0
2822,59.0,48,46,2.0,0.0
2823,47.0,0,46,4.0,0.0
2824,71.0,0,46,1.0,0.0
2825,45.0,258,46,4.0,0.0
2826,57.0,0,46,2.0,0.0
2827,69.0,0,46,1.0,0.0
2828,67.0,0,528,1.0,0.0
2829,55.0,80,256,2.0,0.0
2830,43.0,0,256,4.0,0.0
2831,45.0,48,48,4.0,0.0
2832,57.0,0,48,2.0,0.0
2833,47.0,48,48,4.0,0.0
2834,59.0,0,48,2.0,0.0
2835,60.0,48,48,2.0,0.0
2836,48.0,0,48,4.0,0.0
2837,62.0,0,48,2.0,0.0
2838,50.0,48,48,4.0,0.0
2839,64.0,0,48,2.0,0.0
2840,52.0,46,48,4.0,0.0
2841,54.0,0,46,4.0,0.0
2842,66.0,32,46,2.0,0.0
2843,55.0,0,94,4.0,0.0
2844,67.0,2,94,2.0,0.0
2845,76.0,34,30,1.0,0.0
2846,74.0,30,32,1.0,0.0
2847,76.0,32,32,1.0,0.0
2848,65.0,0,94,3.0,0.0
2849,71.0,2,94,2.0,0.0
2850,55.0,0,94,4.0,0.0
2851,74.0,32,32,1.0,0.0
2852,76.0,30,32,1.0,0.0
2853,74.0,32,32,1.0,0.0
2854,55.0,0,94,4.0,0.0
2855,65.0,0,94,3.0,0.0
2856,71.0,2,94,2.0,0.0
2857,76.0,32,32,1.0,0.0
2858,74.0,30,32,1.0,0.0
2859,76.0,32,32,1.0,0.0
2860,55.0,0,94,4.0,0.0
2861,65.0,2,94,3.0,0.0
2862,74.0,32,32,1.0,0.0
2863,71.0,0,94,2.0,0.0
2864,76.0,30,32,1.0,0.0
2865,74.0,32,32,1.0,0.0
2866,55.0,0,94,4.0,0.0
2867,71.0,0,94,2.0,0.0
2868,65.0,2,94,3.0,0.0
2869,76.0,32,32,1.0,0.0
2870,74.0,30,32,1.0,0.0
2871,76.0,32,32,1.0,0.0
2872,65.0,0,94,3.0,0.0
2873,55.0,0,94,4.0,0.0
2874,74.0,32,32,1.0,0.0
2875,71.0,2,94,2.0,0.0
2876,76.0,30,32,1.0,0.0
2877,74.0,160,32,1.0,0.0
2878,48.0,288,160,4.0,0.0
2879,64.0,0,160,3.0,0.0
2880,72.0,0,160,1.0,0.0
2881,55.0,32,256,2.0,0.0
2882,60.0,0,288,1.0,0.0
2883,52.0,94,288,3.0,0.0
2884,59.0,0,94,1.0,0.0
2885,50.0,98,94,3.0,0.0
2886,55.0,0,94,2.0,0.0
2887,55.0,94,96,2.0,0.0
2888,50.0,0,96,3.0,0.0
2889,59.0,0,96,1.0,0.0
2890,65.0,96,94,1.0,0.0
2891,59.0,0,94,3.0,0.0
2892,62.0,0,94,2.0,0.0
2893,62.0,0,96,2.0,0.0
2894,59.0,2,94,3.0,0.0
2895,65.0,94,96,1.0,0.0
2896,60.0,0,94,2.0,0.0
2897,64.0,96,94,1.0,0.0
2898,64.0,94,96,1.0,0.0
2899,60.0,2,94,2.0,0.0
2900,60.0,96,94,2.0,0.0
2901,53.0,0,94,3.0,0.0
2902,69.0,0,94,1.0,0.0
2903,69.0,94,96,1.0,0.0
2904,53.0,0,96,3.0,0.0
2905,60.0,2,94,2.0,0.0
2906,60.0,0,94,2.0,0.0
2907,67.0,0,94,1.0,0.0
2908,52.0,98,94,3.0,0.0
2909,52.0,94,96,3.0,0.0
2910,60.0,0,96,2.0,0.0
2911,67.0,0,96,1.0,0.0
2912,67.0,98,94,2.0,0.0
2913,72.0,0,94,1.0,0.0
2914,64.0,0,94,3.0,0.0
2915,64.0,94,96,3.0,0.0
2916,67.0,0,96,2.0,0.0
2917,72.0,0,96,1.0,0.0
2918,71.0,98,94,1.0,0.0
2919,65.0,0,94,2.0,0.0
2920,62.0,0,94,3.0,0.0
2921,62.0,0,96,3.0,0.0
2922,65.0,0,96,2.0,0.0
2923,71.0,94,96,1.0,0.0
2924,62.0,0,94,2.0,0.0
2925,59.0,162,94,3.0,0.0
2926,77.0,0,94,1.0,0.0
2927,59.0,0,160,3.0,0.0
2928,62.0,1088,160,2.0,0.0
2929,77.0,0,160,1.0,0.0
2930,67.0,0,528,3.0,0.0
2931,60.0,624,528,4.0,0.0
2932,72.0,0,528,2.0,0.0
2933,76.0,48,288,1.0,0.0
2934,77.0,46,48,1.0,0.0
2935,76.0,34,46,1.0,0.0
2936,74.0,96,32,1.0,0.0
2937,76.0,16,32,1.0,0.0
2938,62.0,0,576,3.0,0.0
2939,81.0,0,576,1.0,0.0
2940,54.0,192,576,4.0,0.0
2941,81.0,0,192,1.0,0.0
2942,72.0,0,0,2.0,0.0
2943,62.0,0,192,3.0,0.0
2944,53.0,0,192,4.0,0.0
2945,55.0,0,48,4.0,0.0
2946,64.0,0,48,3.0,0.0
2947,79.0,192,48,1.0,0.0
2948,72.0,0,48,2.0,0.0
2949,71.0,0,48,1.0,0.0
2950,65.0,192,48,2.0,0.0
2951,43.0,0,48,4.0,0.0
2952,62.0,0,48,3.0,0.0
2953,60.0,432,48,3.0,0.0
2954,64.0,0,48,2.0,0.0
2955,72.0,0,48,1.0,0.0
2956,48.0,0,48,4.0,0.0
2957,67.0,0,288,2.0,0.0
2958,64.0,0,288,3.0,0.0
2959,72.0,94,288,1.0,0.0
2960,65.0,98,94,2.0,0.0
2961,71.0,0,94,1.0,0.0
2962,62.0,0,94,3.0,0.0
2963,71.0,0,96,1.0,0.0
2964,62.0,0,96,3.0,0.0
2965,65.0,94,96,2.0,0.0
2966,59.0,0,94,3.0,0.0
2967,77.0,98,94,1.0,0.0
2968,62.0,0,94,2.0,0.0
2969,62.0,0,96,2.0,0.0
2970,59.0,0,96,3.0,0.0
2971,77.0,94,96,1.0,0.0
2972,64.0,0,94,2.0,0.0
2973,60.0,0,94,3.0,0.0
2974,76.0,98,94,1.0,0.0
2975,76.0,0,96,1.0,0.0
2976,64.0,0,96,2.0,0.0
2977,60.0,94,96,3.0,0.0
2978,72.0,0,94,2.0,0.0
2979,81.0,0,94,1.0,0.0
2980,65.0,96,94,3.0,0.0
2981,65.0,0,96,3.0,0.0
2982,81.0,94,96,1.0,0.0
2983,72.0,2,94,2.0,0.0
2984,64.0,0,94,3.0,0.0
2985,79.0,0,94,1.0,0.0
2986,72.0,98,94,2.0,0.0
2987,64.0,94,96,3.0,0.0
2988,72.0,0,96,2.0,0.0
2989,79.0,0,96,1.0,0.0
2990,84.0,0,94,1.0,0.0
2991,76.0,0,94,3.0,0.0
2992,79.0,98,94,2.0,0.0
2993,79.0,94,96,2.0,0.0
2994,84.0,0,96,1.0,0.0
2995,76.0,0,96,3.0,0.0
2996,83.0,0,94,1.0,0.0
2997,77.0,98,94,2.0,0.0
2998,74.0,0,94,3.0,0.0
2999,77.0,94,96,2.0,0.0
3000,83.0,0,96,1.0,0.0
3001,74.0,0,96,3.0,0.0
3002,74.0,0,94,2.0,0.0
3003,71.0,162,94,3.0,0.0
3004,89.0,0,94,1.0,0.0
3005,89.0,0,160,1.0,0.0
3006,71.0,1328,160,3.0,0.0
3007,74.0,0,160,2.0,0.0
3008,48.0,576,528,4.0,0.0
3009,63.0,0,528,1.0,0.0
3010,55.0,0,528,2.0,0.0
3011,60.0,0,528,3.0,0.0
3012,56.0,0,528,3.0,0.0
3013,44.0,384,528,4.0,0.0
3014,63.0,0,528,1.0,0.0
3015,60.0,0,528,1.0,0.0
3016,60.0,208,336,1.0,0.0
3017,63.0,0,336,1.0,0.0
3018,54.0,0,336,3.0,0.0
3019,57.0,0,336,2.0,0.0
3020,42.0,0,336,4.0,0.0
3021,57.0,80,160,2.0,0.0
3022,53.0,0,160,3.0,0.0
3023,63.0,0,160,1.0,0.0
3024,60.0,0,160,1.0,0.0
3025,41.0,0,160,4.0,0.0
3026,60.0,0,48,1.0,0.0
3027,64.0,192,48,1.0,0.0
3028,40.0,0,48,4.0,0.0
3029,52.0,0,48,3.0,0.0
3030,57.0,0,48,2.0,0.0
3031,57.0,192,48,3.0,0.0
3032,65.0,0,48,1.0,0.0
3033,62.0,0,48,2.0,0.0
3034,38.0,0,48,4.0,0.0
3035,59.0,0,48,2.0,0.0
3036,62.0,0,48,1.0,0.0
3037,43.0,0,48,4.0,0.0
3038,53.0,238,48,3.0,0.0
3039,52.0,66,94,3.0,0.0
3040,60.0,30,160,1.0,0.0
3041,48.0,48,288,4.0,0.0
3042,60.0,0,94,3.0,0.0
3043,55.0,96,94,2.0,0.0
3044,64.0,0,94,2.0,0.0
3045,55.0,0,94,2.0,0.0
3046,64.0,0,94,2.0,0.0
3047,60.0,2,94,3.0,0.0
3048,55.0,34,94,2.0,0.0
3049,50.0,46,48,4.0,0.0
3050,64.0,0,94,2.0,0.0
3051,60.0,0,94,3.0,0.0
3052,48.0,0,46,4.0,0.0
3053,60.0,0,94,3.0,0.0
3054,64.0,34,94,2.0,0.0
3055,55.0,0,94,2.0,0.0
3056,47.0,62,32,4.0,0.0
3057,60.0,96,94,3.0,0.0
3058,64.0,0,94,2.0,0.0
3059,48.0,62,32,4.0,0.0
3060,55.0,0,94,2.0,0.0
3061,55.0,0,94,2.0,0.0
3062,64.0,66,94,2.0,0.0
3063,36.0,30,160,4.0,0.0
3064,60.0,0,94,3.0,0.0
3065,60.0,96,94,3.0,0.0
3066,55.0,0,94,2.0,0.0
3067,64.0,0,94,2.0,0.0
3068,76.0,30,160,1.0,0.0
3069,60.0,66,94,3.0,0.0
3070,64.0,0,94,2.0,0.0
3071,55.0,0,94,2.0,0.0
3072,60.0,0,94,3.0,0.0
3073,55.0,0,94,2.0,0.0
3074,64.0,34,94,2.0,0.0
3075,64.0,0,94,2.0,0.0
3076,55.0,0,94,2.0,0.0
3077,77.0,32,32,1.0,0.0
3078,60.0,2,94,3.0,0.0
3079,76.0,30,32,1.0,0.0
3080,77.0,32,32,1.0,0.0
3081,55.0,0,94,2.0,0.0
3082,64.0,96,94,2.0,0.0
3083,76.0,32,32,1.0,0.0
3084,60.0,0,94,3.0,0.0
3085,74.0,30,32,1.0,0.0
3086,76.0,0,30,1.0,0.0
3087,65.0,0,94,2.0,0.0
3088,79.0,94,192,1.0,0.0
3089,48.0,48,288,4.0,0.0
3090,55.0,96,94,2.0,0.0
3091,62.0,0,94,3.0,0.0
3092,62.0,0,94,3.0,0.0
3093,65.0,2,94,2.0,0.0
3094,55.0,0,94,2.0,0.0
3095,62.0,2,94,3.0,0.0
3096,77.0,30,160,1.0,0.0
3097,55.0,0,94,2.0,0.0
3098,65.0,0,94,2.0,0.0
3099,62.0,0,94,3.0,0.0
3100,50.0,16,48,4.0,0.0
3101,55.0,0,94,2.0,0.0
3102,65.0,0,94,2.0,0.0
3103,48.0,34,46,4.0,0.0
3104,55.0,34,94,2.0,0.0
3105,47.0,62,32,4.0,0.0
3106,62.0,0,94,3.0,0.0
3107,65.0,0,94,2.0,0.0
3108,48.0,62,32,4.0,0.0
3109,62.0,0,94,3.0,0.0
3110,55.0,0,94,2.0,0.0
3111,65.0,96,94,2.0,0.0
3112,65.0,0,94,2.0,0.0
3113,55.0,0,94,2.0,0.0
3114,62.0,66,94,3.0,0.0
3115,36.0,30,160,4.0,0.0
3116,62.0,96,94,3.0,0.0
3117,55.0,0,94,2.0,0.0
3118,65.0,0,94,2.0,0.0
3119,65.0,66,94,2.0,0.0
3120,55.0,0,94,2.0,0.0
3121,83.0,30,160,1.0,0.0
3122,62.0,0,94,3.0,0.0
3123,55.0,0,94,2.0,0.0
3124,65.0,34,94,2.0,0.0
3125,62.0,0,94,3.0,0.0
3126,84.0,32,32,1.0,0.0
3127,65.0,0,94,2.0,0.0
3128,55.0,0,94,2.0,0.0
3129,62.0,2,94,3.0,0.0
3130,83.0,30,32,1.0,0.0
3131,84.0,32,32,1.0,0.0
3132,55.0,0,94,2.0,0.0
3133,65.0,50,94,2.0,0.0
3134,62.0,0,94,3.0,0.0
3135,83.0,32,32,1.0,0.0
3136,81.0,30,32,1.0,0.0
3137,83.0,0,30,1.0,0.0
3138,84.0,48,96,1.0,0.0
3139,60.0,2,94,3.0,0.0
3140,50.0,46,48,4.0,0.0
3141,64.0,0,94,2.0,0.0
3142,55.0,0,94,2.0,0.0
3143,48.0,0,48,4.0,0.0
3144,47.0,46,48,4.0,0.0
3145,88.0,0,94,1.0,0.0
3146,55.0,0,94,2.0,0.0
3147,60.0,50,94,3.0,0.0
3148,64.0,0,94,2.0,0.0
3149,48.0,0,46,4.0,0.0
3150,64.0,0,94,2.0,0.0
3151,60.0,2,94,3.0,0.0
3152,50.0,46,48,4.0,0.0
3153,55.0,0,94,2.0,0.0
3154,79.0,30,160,1.0,0.0
3155,48.0,48,48,4.0,0.0
3156,47.0,16,48,4.0,0.0
3157,55.0,50,94,2.0,0.0
3158,60.0,0,94,3.0,0.0
3159,64.0,0,94,2.0,0.0
3160,48.0,0,46,4.0,0.0
3161,50.0,46,48,4.0,0.0
3162,60.0,0,94,3.0,0.0
3163,55.0,0,94,2.0,0.0
3164,64.0,2,94,2.0,0.0
3165,48.0,48,48,4.0,0.0
3166,47.0,46,48,4.0,0.0
3167,64.0,0,94,2.0,0.0
3168,55.0,50,94,2.0,0.0
3169,60.0,0,94,3.0,0.0
3170,48.0,0,46,4.0,0.0
3171,55.0,2,94,2.0,0.0
3172,64.0,0,94,2.0,0.0
3173,77.0,46,48,1.0,0.0
3174,60.0,0,94,3.0,0.0
3175,36.0,30,160,4.0,0.0
3176,76.0,48,48,1.0,0.0
3177,55.0,0,94,2.0,0.0
3178,60.0,0,94,3.0,0.0
3179,74.0,16,48,1.0,0.0
3180,64.0,0,94,2.0,0.0
3181,76.0,50,46,1.0,0.0
3182,77.0,46,48,1.0,0.0
3183,64.0,2,94,2.0,0.0
3184,60.0,0,94,3.0,0.0
3185,55.0,0,94,2.0,0.0
3186,76.0,48,48,1.0,0.0
3187,64.0,0,94,2.0,0.0
3188,55.0,0,94,2.0,0.0
3189,74.0,46,48,1.0,0.0
3190,60.0,0,94,3.0,0.0
3191,76.0,50,46,1.0,0.0
3192,64.0,2,94,2.0,0.0
3193,55.0,0,94,2.0,0.0
3194,77.0,46,48,1.0,0.0
3195,60.0,0,94,3.0,0.0
3196,76.0,48,48,1.0,0.0
3197,74.0,46,48,1.0,0.0
3198,55.0,0,94,2.0,0.0
3199,64.0,0,94,2.0,0.0
3200,60.0,0,94,3.0,0.0
3201,76.0,50,46,1.0,0.0
3202,62.0,0,94,3.0,0.0
3203,50.0,46,48,4.0,0.0
3204,79.0,48,192,1.0,0.0
3205,55.0,2,94,2.0,0.0
3206,65.0,0,94,2.0,0.0
3207,48.0,48,48,4.0,0.0
3208,47.0,46,48,4.0,0.0
3209,55.0,0,94,2.0,0.0
3210,65.0,0,94,2.0,0.0
3211,62.0,0,94,3.0,0.0
3212,48.0,2,46,4.0,0.0
3213,65.0,2,94,2.0,0.0
3214,62.0,0,94,3.0,0.0
3215,55.0,0,94,2.0,0.0
3216,77.0,30,160,1.0,0.0
3217,50.0,46,48,4.0,0.0
3218,48.0,48,48,4.0,0.0
3219,65.0,50,94,2.0,0.0
3220,55.0,0,94,2.0,0.0
3221,47.0,16,48,4.0,0.0
3222,62.0,0,94,3.0,0.0
3223,48.0,0,46,4.0,0.0
3224,65.0,0,94,2.0,0.0
3225,55.0,0,94,2.0,0.0
3226,50.0,46,48,4.0,0.0
3227,62.0,2,94,3.0,0.0
3228,48.0,48,48,4.0,0.0
3229,55.0,50,94,2.0,0.0
3230,65.0,0,94,2.0,0.0
3231,47.0,46,48,4.0,0.0
3232,62.0,0,94,3.0,0.0
3233,48.0,0,46,4.0,0.0
3234,36.0,30,160,4.0,0.0
3235,55.0,0,94,2.0,0.0
3236,84.0,46,48,1.0,0.0
3237,65.0,2,94,2.0,0.0
3238,62.0,0,94,3.0,0.0
3239,83.0,48,48,1.0,0.0
3240,65.0,0,94,2.0,0.0
3241,55.0,0,94,2.0,0.0
3242,62.0,0,94,3.0,0.0
3243,81.0,16,48,1.0,0.0
3244,83.0,50,46,1.0,0.0
3245,84.0,46,48,1.0,0.0
3246,62.0,0,94,3.0,0.0
3247,55.0,2,94,2.0,0.0
3248,65.0,0,94,2.0,0.0
3249,83.0,48,48,1.0,0.0
3250,55.0,50,94,2.0,0.0
3251,65.0,0,94,2.0,0.0
3252,81.0,46,48,1.0,0.0
3253,62.0,0,94,3.0,0.0
3254,83.0,0,46,1.0,0.0
3255,84.0,46,48,1.0,0.0
3256,65.0,2,94,2.0,0.0
3257,55.0,0,94,2.0,0.0
3258,62.0,0,94,3.0,0.0
3259,83.0,48,48,1.0,0.0
3260,62.0,34,94,3.0,0.0
3261,81.0,46,48,1.0,0.0
3262,65.0,0,94,2.0,0.0
3263,55.0,0,94,2.0,0.0
3264,83.0,0,46,1.0,0.0
3265,55.0,0,48,2.0,0.0
3266,84.0,16,32,1.0,0.0
3267,48.0,0,48,4.0,0.0
3268,64.0,0,48,2.0,0.0
3269,60.0,32,48,3.0,0.0
3270,88.0,48,32,1.0,0.0
3271,86.0,48,32,1.0,0.0
3272,84.0,48,32,1.0,0.0
3273,83.0,16,32,1.0,0.0
3274,55.0,0,48,3.0,0.0
3275,48.0,32,48,4.0,0.0
3276,72.0,0,48,2.0,0.0
3277,64.0,0,48,3.0,0.0
3278,81.0,48,32,1.0,0.0
3279,79.0,48,32,1.0,0.0
3280,77.0,48,32,1.0,0.0
3281,76.0,48,32,1.0,0.0
3282,84.0,48,32,1.0,0.0
3283,83.0,48,32,1.0,0.0
3284,81.0,62,32,1.0,0.0
3285,79.0,48,46,1.0,0.0
3286,77.0,48,46,1.0,0.0
3287,76.0,48,46,1.0,0.0
3288,74.0,48,46,1.0,0.0
3289,72.0,48,46,1.0,0.0
3290,79.0,48,46,1.0,0.0
3291,77.0,48,46,1.0,0.0
3292,76.0,48,46,1.0,0.0
3293,74.0,48,46,1.0,0.0
3294,72.0,48,46,1.0,0.0
3295,71.0,48,46,1.0,0.0
3296,69.0,48,46,1.0,0.0
3297,67.0,48,46,1.0,0.0
3298,76.0,48,46,1.0,0.0
3299,74.0,48,46,1.0,0.0
3300,72.0,48,46,1.0,0.0
3301,71.0,48,46,1.0,0.0
3302,69.0,48,46,1.0,0.0
3303,67.0,48,46,1.0,0.0
3304,65.0,48,46,1.0,0.0
3305,52.0,0,46,4.0,0.0
3306,64.0,48,46,1.0,0.0
3307,72.0,48,46,1.0,0.0
3308,60.0,0,46,4.0,0.0
3309,59.0,0,46,4.0,0.0
3310,71.0,48,46,1.0,0.0
3311,57.0,0,46,4.0,0.0
3312,69.0,48,46,1.0,0.0
3313,55.0,48,46,4.0,0.0
3314,67.0,0,46,1.0,0.0
3315,53.0,0,46,4.0,0.0
3316,65.0,48,46,1.0,0.0
3317,64.0,0,46,1.0,0.0
3318,52.0,48,46,4.0,0.0
3319,62.0,0,46,1.0,0.0
3320,50.0,50,46,4.0,0.0
3321,60.0,48,48,1.0,0.0
3322,48.0,0,48,4.0,0.0
3323,47.0,0,48,4.0,0.0
3324,59.0,48,48,1.0,0.0
3325,48.0,48,48,4.0,0.0
3326,60.0,0,48,1.0,0.0
3327,59.0,0,48,1.0,0.0
3328,47.0,48,48,4.0,0.0
3329,48.0,48,48,4.0,0.0
3330,60.0,0,48,1.0,0.0
3331,59.0,48,48,1.0,0.0
3332,47.0,0,48,4.0,0.0
3333,48.0,0,48,4.0,0.0
3334,60.0,46,48,1.0,0.0
3335,47.0,0,46,4.0,0.0
3336,59.0,50,46,1.0,0.0
3337,60.0,0,48,1.0,0.0
3338,48.0,192,48,4.0,0.0
3339,36.0,0,48,4.0,0.0
3340,52.0,192,48,3.0,0.0
3341,55.0,0,48,2.0,0.0
3342,60.0,0,48,1.0,0.0
3343,55.0,0,48,2.0,0.0
3344,36.0,0,48,4.0,0.0
3345,60.0,192,48,1.0,0.0
3346,52.0,0,48,3.0,0.0
3347,60.0,0,48,1.0,0.0
3348,52.0,0,48,3.0,0.0
3349,36.0,0,48,4.0,0.0
3350,55.0,560,48,2.0,0.0
3351,81.0,48,32,1.0,0.0
3352,69.0,16,160,2.0,0.0
3353,45.0,0,160,4.0,0.0
3354,57.0,0,160,3.0,0.0
3355,88.0,48,32,1.0,0.0
3356,86.0,32,32,1.0,0.0
3357,85.0,48,32,1.0,0.0
3358,83.0,48,32,1.0,0.0
3359,81.0,48,32,1.0,0.0
3360,80.0,48,32,1.0,0.0
3361,78.0,48,32,1.0,0.0
3362,76.0,48,32,1.0,0.0
3363,81.0,48,32,1.0,0.0
3364,80.0,48,32,1.0,0.0
3365,78.0,48,32,1.0,0.0
3366,76.0,48,32,1.0,0.0
3367,74.0,48,32,1.0,0.0
3368,73.0,48,32,1.0,0.0
3369,71.0,62,32,1.0,0.0
3370,69.0,48,46,1.0,0.0
3371,76.0,48,46,1.0,0.0
3372,74.0,48,46,1.0,0.0
3373,73.0,48,46,1.0,0.0
3374,71.0,48,46,1.0,0.0
3375,69.0,48,46,1.0,0.0
3376,68.0,48,46,1.0,0.0
3377,66.0,48,46,1.0,0.0
3378,52.0,0,46,4.0,0.0
3379,64.0,48,46,1.0,0.0
3380,57.0,0,46,4.0,0.0
3381,69.0,48,46,1.0,0.0
3382,68.0,0,46,1.0,0.0
3383,56.0,48,46,4.0,0.0
3384,66.0,0,46,1.0,0.0
3385,54.0,48,46,4.0,0.0
3386,64.0,0,46,1.0,0.0
3387,52.0,48,46,4.0,0.0
3388,62.0,48,46,1.0,0.0
3389,50.0,0,46,4.0,0.0
3390,49.0,0,46,4.0,0.0
3391,61.0,48,46,1.0,0.0
3392,47.0,0,46,4.0,0.0
3393,59.0,50,46,1.0,0.0
3394,45.0,0,48,4.0,0.0
3395,57.0,48,48,1.0,0.0
3396,44.0,0,48,4.0,0.0
3397,56.0,48,48,1.0,0.0
3398,57.0,46,48,1.0,0.0
3399,45.0,0,48,4.0,0.0
3400,56.0,0,46,1.0,0.0
3401,44.0,50,46,4.0,0.0
3402,45.0,0,48,4.0,0.0
3403,57.0,192,48,1.0,0.0
3404,57.0,0,48,1.0,0.0
3405,45.0,192,48,4.0,0.0
3406,57.0,288,192,1.0,0.0
3407,45.0,144,48,4.0,0.0
3408,46.0,48,288,4.0,0.0
3409,58.0,48,622,1.0,0.0
3410,60.0,0,48,3.0,0.0
3411,48.0,46,48,4.0,0.0
3412,58.0,34,46,3.0,0.0
3413,46.0,0,46,4.0,0.0
3414,57.0,96,32,3.0,0.0
3415,45.0,0,32,4.0,0.0
3416,58.0,110,32,3.0,0.0
3417,46.0,0,32,4.0,0.0
3418,58.0,30,160,2.0,0.0
3419,53.0,46,528,3.0,0.0
3420,41.0,0,528,4.0,0.0
3421,74.0,48,46,1.0,0.0
3422,77.0,18,46,1.0,0.0
3423,82.0,48,46,1.0,0.0
3424,58.0,46,48,2.0,0.0
3425,86.0,2,46,1.0,0.0
3426,82.0,48,46,1.0,0.0
3427,86.0,48,46,1.0,0.0
3428,82.0,48,46,1.0,0.0
3429,58.0,46,48,2.0,0.0
3430,86.0,2,46,1.0,0.0
3431,82.0,48,46,1.0,0.0
3432,86.0,2,46,1.0,0.0
3433,82.0,162,46,1.0,0.0
3434,46.0,0,288,4.0,0.0
3435,58.0,48,288,3.0,0.0
3436,87.0,128,160,1.0,0.0
3437,60.0,0,48,3.0,0.0
3438,48.0,46,48,4.0,0.0
3439,58.0,0,46,3.0,0.0
3440,46.0,34,46,4.0,0.0
3441,57.0,0,32,3.0,0.0
3442,45.0,96,32,4.0,0.0
3443,46.0,0,32,4.0,0.0
3444,58.0,64,32,3.0,0.0
3445,55.0,46,528,3.0,0.0
3446,58.0,48,0,2.0,0.0
3447,43.0,0,528,4.0,0.0
3448,75.0,48,46,1.0,0.0
3449,79.0,48,46,1.0,0.0
3450,82.0,48,46,1.0,0.0
3451,58.0,46,48,2.0,0.0
3452,87.0,2,46,1.0,0.0
3453,82.0,48,46,1.0,0.0
3454,87.0,48,46,1.0,0.0
3455,82.0,48,46,1.0,0.0
3456,58.0,46,48,2.0,0.0
3457,87.0,2,46,1.0,0.0
3458,82.0,48,46,1.0,0.0
3459,87.0,2,46,1.0,0.0
3460,82.0,162,46,1.0,0.0
3461,87.0,128,160,1.0,0.0
3462,70.0,48,288,2.0,0.0
3463,63.0,144,960,3.0,0.0
3464,55.0,384,576,4.0,0.0
3465,72.0,46,48,2.0,0.0
3466,70.0,34,46,2.0,0.0
3467,69.0,96,32,2.0,0.0
3468,70.0,64,32,2.0,0.0
3469,57.0,16,528,4.0,0.0
3470,72.0,0,384,2.0,0.0
3471,63.0,0,160,2.0,0.0
3472,60.0,416,160,3.0,0.0
3473,84.0,160,384,1.0,0.0
3474,75.0,320,160,1.0,0.0
3475,74.0,48,288,2.0,0.0
3476,58.0,384,576,4.0,0.0
3477,67.0,144,960,3.0,0.0
3478,76.0,46,48,2.0,0.0
3479,74.0,34,46,2.0,0.0
3480,73.0,96,32,2.0,0.0
3481,74.0,64,32,2.0,0.0
3482,61.0,16,528,4.0,0.0
3483,76.0,0,384,2.0,0.0
3484,64.0,416,160,3.0,0.0
3485,67.0,0,160,2.0,0.0
3486,88.0,160,384,1.0,0.0
3487,79.0,320,160,1.0,0.0
3488,58.0,48,288,4.0,0.0
3489,60.0,46,48,4.0,0.0
3490,58.0,34,46,4.0,0.0
3491,57.0,96,32,4.0,0.0
3492,58.0,112,32,4.0,0.0
3493,70.0,48,288,3.0,0.0
3494,49.0,192,48,4.0,0.0
3495,50.0,48,48,4.0,0.0
3496,72.0,46,48,3.0,0.0
3497,70.0,34,46,3.0,0.0
3498,69.0,16,32,3.0,0.0
3499,51.0,80,48,4.0,0.0
3500,70.0,112,32,3.0,0.0
3501,82.0,48,288,1.0,0.0
3502,61.0,0,48,3.0,0.0
3503,52.0,192,48,4.0,0.0
3504,70.0,32,288,2.0,0.0
3505,61.0,48,48,4.0,0.0
3506,64.0,0,48,3.0,0.0
3507,84.0,46,48,1.0,0.0
3508,82.0,34,46,1.0,0.0
3509,62.0,48,48,4.0,0.0
3510,65.0,0,48,3.0,0.0
3511,81.0,16,32,1.0,0.0
3512,72.0,46,48,2.0,0.0
3513,82.0,16,32,1.0,0.0
3514,70.0,34,46,2.0,0.0
3515,67.0,0,48,3.0,0.0
3516,73.0,0,48,1.0,0.0
3517,69.0,16,32,2.0,0.0
3518,64.0,80,48,4.0,0.0
3519,70.0,112,32,2.0,0.0
3520,67.0,0,48,3.0,0.0
3521,79.0,0,48,2.0,0.0
3522,64.0,0,48,4.0,0.0
3523,88.0,192,48,1.0,0.0
3524,69.0,0,48,3.0,0.0
3525,86.0,0,48,1.0,0.0
3526,65.0,192,48,4.0,0.0
3527,77.0,0,48,2.0,0.0
3528,67.0,0,48,4.0,0.0
3529,70.0,48,48,3.0,0.0
3530,85.0,48,96,1.0,0.0
3531,76.0,48,288,2.0,0.0
3532,88.0,46,48,1.0,0.0
3533,86.0,98,46,1.0,0.0
3534,70.0,0,288,3.0,0.0
3535,67.0,94,288,4.0,0.0
3536,85.0,0,288,1.0,0.0
3537,79.0,46,48,2.0,0.0
3538,77.0,98,46,2.0,0.0
3539,76.0,0,96,2.0,0.0
3540,69.0,0,94,3.0,0.0
3541,86.0,0,94,1.0,0.0
3542,74.0,50,94,2.0,0.0
3543,65.0,0,94,4.0,0.0
3544,70.0,48,48,3.0,0.0
3545,67.0,0,48,4.0,0.0
3546,85.0,48,96,1.0,0.0
3547,76.0,48,288,2.0,0.0
3548,88.0,46,48,1.0,0.0
3549,86.0,98,46,1.0,0.0
3550,70.0,0,288,3.0,0.0
3551,85.0,0,288,1.0,0.0
3552,67.0,94,288,4.0,0.0
3553,79.0,46,48,2.0,0.0
3554,77.0,98,46,2.0,0.0
3555,76.0,0,96,2.0,0.0
3556,74.0,0,94,2.0,0.0
3557,86.0,0,94,1.0,0.0
3558,69.0,0,94,3.0,0.0
3559,65.0,290,94,4.0,0.0
3560,75.0,48,288,2.0,0.0
3561,77.0,46,48,2.0,0.0
3562,75.0,34,46,2.0,0.0
3563,74.0,96,32,2.0,0.0
3564,75.0,112,32,2.0,0.0
3565,63.0,48,288,4.0,0.0
3566,66.0,192,48,2.0,0.0
3567,67.0,48,48,2.0,0.0
3568,65.0,46,48,4.0,0.0
3569,63.0,34,46,4.0,0.0
3570,68.0,80,48,2.0,0.0
3571,62.0,16,32,4.0,0.0
3572,63.0,112,32,4.0,0.0
3573,69.0,0,48,2.0,0.0
3574,87.0,48,288,1.0,0.0
3575,54.0,192,48,4.0,0.0
3576,55.0,0,48,4.0,0.0
3577,70.0,48,48,2.0,0.0
3578,63.0,32,288,3.0,0.0
3579,89.0,46,48,1.0,0.0
3580,87.0,34,46,1.0,0.0
3581,56.0,0,48,4.0,0.0
3582,71.0,48,48,2.0,0.0
3583,86.0,16,32,1.0,0.0
3584,87.0,16,32,1.0,0.0
3585,65.0,46,48,3.0,0.0
3586,63.0,34,46,3.0,0.0
3587,62.0,16,32,3.0,0.0
3588,78.0,0,48,1.0,0.0
3589,72.0,80,48,2.0,0.0
3590,57.0,0,48,4.0,0.0
3591,63.0,112,32,3.0,0.0
3592,81.0,0,48,2.0,0.0
3593,60.0,0,48,3.0,0.0
3594,57.0,0,48,4.0,0.0
3595,84.0,192,48,1.0,0.0
3596,82.0,0,48,1.0,0.0
3597,58.0,240,48,4.0,0.0
3598,62.0,0,48,3.0,0.0
3599,79.0,0,48,2.0,0.0
3600,78.0,0,96,2.0,0.0
3601,60.0,48,288,4.0,0.0
3602,63.0,0,288,3.0,0.0
3603,81.0,48,96,1.0,0.0
3604,84.0,46,48,1.0,0.0
3605,81.0,0,48,2.0,0.0
3606,82.0,98,46,1.0,0.0
3607,79.0,0,46,2.0,0.0
3608,81.0,0,288,1.0,0.0
3609,78.0,0,288,2.0,0.0
3610,60.0,46,48,3.0,0.0
3611,57.0,0,48,4.0,0.0
3612,58.0,0,46,4.0,0.0
3613,62.0,98,46,3.0,0.0
3614,63.0,0,96,3.0,0.0
3615,60.0,94,96,4.0,0.0
3616,58.0,0,94,4.0,0.0
3617,79.0,0,94,2.0,0.0
3618,82.0,0,94,1.0,0.0
3619,62.0,98,94,3.0,0.0
3620,60.0,48,288,4.0,0.0
3621,81.0,0,96,1.0,0.0
3622,63.0,0,288,3.0,0.0
3623,78.0,48,96,2.0,0.0
3624,84.0,46,48,1.0,0.0
3625,81.0,0,48,2.0,0.0
3626,82.0,98,46,1.0,0.0
3627,79.0,0,46,2.0,0.0
3628,81.0,0,288,1.0,0.0
3629,78.0,94,288,2.0,0.0
3630,57.0,0,48,4.0,0.0
3631,60.0,46,48,3.0,0.0
3632,62.0,0,46,3.0,0.0
3633,58.0,98,46,4.0,0.0
3634,60.0,0,96,4.0,0.0
3635,63.0,0,96,3.0,0.0
3636,82.0,0,94,1.0,0.0
3637,58.0,290,94,4.0,0.0
3638,62.0,0,94,3.0,0.0
3639,79.0,0,94,2.0,0.0
3640,68.0,48,288,3.0,0.0
3641,70.0,46,48,3.0,0.0
3642,68.0,34,46,3.0,0.0
3643,67.0,96,32,3.0,0.0
3644,68.0,112,32,3.0,0.0
3645,59.0,192,48,3.0,0.0
3646,56.0,48,288,4.0,0.0
3647,60.0,48,48,3.0,0.0
3648,58.0,46,48,4.0,0.0
3649,56.0,34,46,4.0,0.0
3650,55.0,16,32,4.0,0.0
3651,61.0,80,48,3.0,0.0
3652,56.0,112,32,4.0,0.0
3653,47.0,0,48,4.0,0.0
3654,80.0,48,288,1.0,0.0
3655,62.0,192,48,3.0,0.0
3656,48.0,0,48,4.0,0.0
3657,63.0,48,48,3.0,0.0
3658,68.0,32,288,2.0,0.0
3659,82.0,46,48,1.0,0.0
3660,80.0,34,46,1.0,0.0
3661,79.0,16,32,1.0,0.0
3662,64.0,0,48,3.0,0.0
3663,49.0,48,48,4.0,0.0
3664,80.0,16,32,1.0,0.0
3665,70.0,46,48,2.0,0.0
3666,68.0,34,46,2.0,0.0
3667,71.0,0,48,1.0,0.0
3668,50.0,0,48,4.0,0.0
3669,65.0,80,48,3.0,0.0
3670,67.0,16,32,2.0,0.0
3671,68.0,112,32,2.0,0.0
3672,65.0,192,48,4.0,0.0
3673,68.0,0,48,3.0,0.0
3674,80.0,0,48,1.0,0.0
3675,74.0,0,48,2.0,0.0
3676,80.0,0,48,1.0,0.0
3677,72.0,240,48,2.0,0.0
3678,63.0,0,48,4.0,0.0
3679,67.0,0,48,3.0,0.0
3680,62.0,48,96,4.0,0.0
3681,65.0,0,96,3.0,0.0
3682,71.0,0,96,2.0,0.0
3683,80.0,48,288,1.0,0.0
3684,65.0,0,48,4.0,0.0
3685,68.0,46,48,3.0,0.0
3686,74.0,0,48,2.0,0.0
3687,67.0,98,46,3.0,0.0
3688,63.0,0,46,4.0,0.0
3689,72.0,0,46,2.0,0.0
3690,62.0,94,288,4.0,0.0
3691,65.0,0,288,3.0,0.0
3692,71.0,0,288,2.0,0.0
3693,77.0,46,48,1.0,0.0
3694,79.0,98,46,1.0,0.0
3695,80.0,0,96,1.0,0.0
3696,79.0,0,94,1.0,0.0
3697,72.0,98,94,2.0,0.0
3698,63.0,0,94,4.0,0.0
3699,67.0,0,94,3.0,0.0
3700,71.0,0,96,2.0,0.0
3701,65.0,48,96,3.0,0.0
3702,62.0,0,96,4.0,0.0
3703,80.0,48,288,1.0,0.0
3704,65.0,0,48,4.0,0.0
3705,74.0,0,48,2.0,0.0
3706,68.0,46,48,3.0,0.0
3707,63.0,98,46,4.0,0.0
3708,72.0,0,46,2.0,0.0
3709,67.0,0,46,3.0,0.0
3710,65.0,0,288,3.0,0.0
3711,62.0,0,288,4.0,0.0
3712,71.0,94,288,2.0,0.0
3713,77.0,46,48,1.0,0.0
3714,79.0,98,46,1.0,0.0
3715,80.0,0,96,1.0,0.0
3716,72.0,0,94,2.0,0.0
3717,63.0,0,94,4.0,0.0
3718,67.0,0,94,3.0,0.0
3719,79.0,98,94,1.0,0.0
3720,70.0,48,96,3.0,0.0
3721,73.0,0,96,2.0,0.0
3722,70.0,0,48,2.0,0.0
3723,67.0,46,48,3.0,0.0
3724,72.0,98,46,2.0,0.0
3725,68.0,0,46,3.0,0.0
3726,70.0,0,288,3.0,0.0
3727,88.0,48,96,1.0,0.0
3728,73.0,94,288,2.0,0.0
3729,91.0,46,48,1.0,0.0
3730,89.0,98,46,1.0,0.0
3731,88.0,0,96,1.0,0.0
3732,68.0,98,94,3.0,0.0
3733,72.0,0,94,2.0,0.0
3734,89.0,0,94,1.0,0.0
3735,70.0,48,96,3.0,0.0
3736,73.0,0,96,2.0,0.0
3737,67.0,0,48,3.0,0.0
3738,70.0,46,48,2.0,0.0
3739,72.0,0,46,2.0,0.0
3740,68.0,98,46,3.0,0.0
3741,88.0,48,96,1.0,0.0
3742,70.0,94,288,3.0,0.0
3743,73.0,0,288,2.0,0.0
3744,91.0,46,48,1.0,0.0
3745,89.0,98,46,1.0,0.0
3746,88.0,0,96,1.0,0.0
3747,89.0,98,94,1.0,0.0
3748,68.0,0,94,3.0,0.0
3749,72.0,0,94,2.0,0.0
3750,72.0,0,96,2.0,0.0
3751,81.0,48,288,1.0,0.0
3752,66.0,0,96,3.0,0.0
3753,63.0,48,96,4.0,0.0
3754,75.0,0,48,2.0,0.0
3755,63.0,0,48,3.0,0.0
3756,60.0,46,48,4.0,0.0
3757,73.0,98,46,2.0,0.0
3758,61.0,0,46,4.0,0.0
3759,65.0,0,46,3.0,0.0
3760,72.0,0,288,2.0,0.0
3761,63.0,0,288,4.0,0.0
3762,66.0,0,288,3.0,0.0
3763,84.0,46,48,1.0,0.0
3764,82.0,98,46,1.0,0.0
3765,81.0,94,96,1.0,0.0
3766,61.0,0,94,4.0,0.0
3767,70.0,0,94,2.0,0.0
3768,65.0,0,94,3.0,0.0
3769,82.0,98,94,1.0,0.0
3770,66.0,0,96,3.0,0.0
3771,81.0,48,288,1.0,0.0
3772,63.0,48,96,4.0,0.0
3773,72.0,0,96,2.0,0.0
3774,75.0,46,48,2.0,0.0
3775,63.0,0,48,3.0,0.0
3776,60.0,0,48,4.0,0.0
3777,73.0,0,46,2.0,0.0
3778,61.0,0,46,4.0,0.0
3779,65.0,98,46,3.0,0.0
3780,63.0,0,288,4.0,0.0
3781,66.0,0,288,3.0,0.0
3782,72.0,0,288,2.0,0.0
3783,84.0,46,48,1.0,0.0
3784,82.0,98,46,1.0,0.0
3785,81.0,94,96,1.0,0.0
3786,65.0,0,94,3.0,0.0
3787,61.0,0,94,4.0,0.0
3788,70.0,0,94,2.0,0.0
3789,82.0,96,94,1.0,0.0
3790,58.0,66,94,3.0,0.0
3791,61.0,0,94,2.0,0.0
3792,46.0,30,160,4.0,0.0
3793,85.0,48,288,1.0,0.0
3794,58.0,96,94,3.0,0.0
3795,61.0,0,94,2.0,0.0
3796,61.0,0,94,2.0,0.0
3797,58.0,2,94,3.0,0.0
3798,87.0,46,48,1.0,0.0
3799,58.0,34,94,3.0,0.0
3800,61.0,0,94,2.0,0.0
3801,85.0,0,46,1.0,0.0
3802,84.0,62,32,1.0,0.0
3803,58.0,0,94,3.0,0.0
3804,61.0,34,94,2.0,0.0
3805,61.0,0,94,2.0,0.0
3806,85.0,62,32,1.0,0.0
3807,58.0,96,94,3.0,0.0
3808,61.0,96,94,2.0,0.0
3809,82.0,48,288,1.0,0.0
3810,58.0,0,94,3.0,0.0
3811,58.0,0,94,3.0,0.0
3812,61.0,96,94,2.0,0.0
3813,58.0,0,94,3.0,0.0
3814,61.0,2,94,2.0,0.0
3815,58.0,34,94,3.0,0.0
3816,84.0,46,48,1.0,0.0
3817,61.0,0,94,2.0,0.0
3818,82.0,0,46,1.0,0.0
3819,58.0,0,94,3.0,0.0
3820,81.0,62,32,1.0,0.0
3821,61.0,34,94,2.0,0.0
3822,61.0,96,94,2.0,0.0
3823,58.0,0,94,3.0,0.0
3824,82.0,62,32,1.0,0.0
3825,61.0,0,94,2.0,0.0
3826,58.0,96,94,3.0,0.0
3827,77.0,48,288,1.0,0.0
3828,61.0,0,94,2.0,0.0
3829,58.0,96,94,3.0,0.0
3830,61.0,0,94,2.0,0.0
3831,58.0,2,94,3.0,0.0
3832,58.0,34,94,3.0,0.0
3833,78.0,46,48,1.0,0.0
3834,61.0,0,94,2.0,0.0
3835,77.0,0,46,1.0,0.0
3836,61.0,34,94,2.0,0.0
3837,58.0,0,94,3.0,0.0
3838,76.0,62,32,1.0,0.0
3839,58.0,96,94,3.0,0.0
3840,77.0,62,32,1.0,0.0
3841,61.0,0,94,2.0,0.0
3842,61.0,0,94,2.0,0.0
3843,58.0,96,94,3.0,0.0
3844,73.0,48,288,1.0,0.0
3845,58.0,0,94,3.0,0.0
3846,61.0,96,94,2.0,0.0
3847,61.0,2,94,2.0,0.0
3848,58.0,0,94,3.0,0.0
3849,61.0,0,94,2.0,0.0
3850,75.0,46,48,1.0,0.0
3851,58.0,0,94,3.0,0.0
3852,73.0,34,46,1.0,0.0
3853,72.0,62,32,1.0,0.0
3854,61.0,0,94,2.0,0.0
3855,58.0,34,94,3.0,0.0
3856,58.0,96,94,3.0,0.0
3857,73.0,62,32,1.0,0.0
3858,61.0,0,94,2.0,0.0
3859,54.0,46,528,4.0,0.0
3860,58.0,0,94,3.0,0.0
3861,78.0,48,288,2.0,0.0
3862,61.0,96,94,1.0,0.0
3863,61.0,96,94,1.0,0.0
3864,58.0,0,94,3.0,0.0
3865,58.0,2,94,3.0,0.0
3866,61.0,0,94,1.0,0.0
3867,80.0,46,48,2.0,0.0
3868,58.0,0,94,3.0,0.0
3869,61.0,0,94,1.0,0.0
3870,78.0,34,46,2.0,0.0
3871,58.0,0,94,3.0,0.0
3872,77.0,62,32,2.0,0.0
3873,61.0,34,94,1.0,0.0
3874,61.0,0,94,1.0,0.0
3875,58.0,96,94,3.0,0.0
3876,78.0,16,32,2.0,0.0
3877,73.0,48,288,2.0,0.0
3878,58.0,0,94,3.0,0.0
3879,49.0,46,528,4.0,0.0
3880,61.0,96,94,1.0,0.0
3881,61.0,96,94,1.0,0.0
3882,58.0,0,94,3.0,0.0
3883,58.0,0,94,3.0,0.0
3884,61.0,2,94,1.0,0.0
3885,75.0,46,48,2.0,0.0
3886,61.0,0,94,1.0,0.0
3887,58.0,0,94,3.0,0.0
3888,73.0,34,46,2.0,0.0
3889,61.0,34,94,1.0,0.0
3890,72.0,62,32,2.0,0.0
3891,58.0,0,94,3.0,0.0
3892,58.0,0,94,3.0,0.0
3893,73.0,16,32,2.0,0.0
3894,61.0,96,94,1.0,0.0
3895,61.0,0,94,1.0,0.0
3896,46.0,46,528,4.0,0.0
3897,58.0,96,94,3.0,0.0
3898,70.0,48,288,2.0,0.0
3899,61.0,96,94,1.0,0.0
3900,58.0,0,94,3.0,0.0
3901,58.0,2,94,3.0,0.0
3902,61.0,0,94,1.0,0.0
3903,58.0,0,94,3.0,0.0
3904,71.0,46,48,2.0,0.0
3905,61.0,0,94,1.0,0.0
3906,70.0,34,46,2.0,0.0
3907,61.0,0,94,1.0,0.0
3908,69.0,62,32,2.0,0.0
3909,58.0,34,94,3.0,0.0
3910,70.0,16,32,2.0,0.0
3911,58.0,50,94,3.0,0.0
3912,61.0,0,94,1.0,0.0
3913,61.0,96,94,1.0,0.0
3914,66.0,46,48,2.0,0.0
3915,58.0,0,94,3.0,0.0
3916,42.0,0,48,4.0,0.0
3917,58.0,0,94,3.0,0.0
3918,61.0,50,94,1.0,0.0
3919,61.0,96,94,1.0,0.0
3920,58.0,0,94,3.0,0.0
3921,41.0,0,48,4.0,0.0
3922,65.0,46,48,2.0,0.0
3923,58.0,0,94,3.0,0.0
3924,61.0,50,94,1.0,0.0
3925,60.0,96,94,1.0,0.0
3926,58.0,0,94,3.0,0.0
3927,64.0,0,48,2.0,0.0
3928,40.0,46,48,4.0,0.0
3929,58.0,0,94,3.0,0.0
3930,60.0,96,94,1.0,0.0
3931,77.0,48,288,1.0,0.0
3932,60.0,66,94,2.0,0.0
3933,41.0,30,160,4.0,0.0
3934,56.0,0,94,3.0,0.0
3935,56.0,96,94,3.0,0.0
3936,60.0,0,94,2.0,0.0
3937,56.0,2,94,3.0,0.0
3938,60.0,0,94,2.0,0.0
3939,60.0,0,94,2.0,0.0
3940,56.0,0,94,3.0,0.0
3941,79.0,46,48,1.0,0.0
3942,77.0,34,46,1.0,0.0
3943,60.0,0,94,2.0,0.0
3944,56.0,34,94,3.0,0.0
3945,76.0,62,32,1.0,0.0
3946,60.0,0,94,2.0,0.0
3947,56.0,96,94,3.0,0.0
3948,77.0,62,32,1.0,0.0
3949,72.0,48,288,1.0,0.0
3950,56.0,96,94,3.0,0.0
3951,60.0,0,94,2.0,0.0
3952,56.0,0,94,3.0,0.0
3953,60.0,96,94,2.0,0.0
3954,56.0,0,94,3.0,0.0
3955,60.0,2,94,2.0,0.0
3956,73.0,46,48,1.0,0.0
3957,56.0,0,94,3.0,0.0
3958,60.0,0,94,2.0,0.0
3959,72.0,34,46,1.0,0.0
3960,56.0,0,94,3.0,0.0
3961,71.0,62,32,1.0,0.0
3962,60.0,34,94,2.0,0.0
3963,56.0,0,94,3.0,0.0
3964,60.0,96,94,2.0,0.0
3965,72.0,62,32,1.0,0.0
3966,56.0,96,94,3.0,0.0
3967,60.0,0,94,2.0,0.0
3968,68.0,48,288,1.0,0.0
3969,56.0,96,94,3.0,0.0
3970,60.0,0,94,2.0,0.0
3971,56.0,0,94,3.0,0.0
3972,60.0,2,94,2.0,0.0
3973,60.0,0,94,2.0,0.0
3974,70.0,46,48,1.0,0.0
3975,56.0,34,94,3.0,0.0
3976,68.0,0,46,1.0,0.0
3977,67.0,62,32,1.0,0.0
3978,56.0,0,94,3.0,0.0
3979,60.0,34,94,2.0,0.0
3980,56.0,0,94,3.0,0.0
3981,60.0,96,94,2.0,0.0
3982,68.0,62,32,1.0,0.0
3983,65.0,48,288,1.0,0.0
3984,60.0,0,94,2.0,0.0
3985,56.0,96,94,3.0,0.0
3986,56.0,0,94,3.0,0.0
3987,60.0,96,94,2.0,0.0
3988,56.0,0,94,3.0,0.0
3989,60.0,2,94,2.0,0.0
3990,56.0,34,94,3.0,0.0
3991,67.0,46,48,1.0,0.0
3992,60.0,0,94,2.0,0.0
3993,65.0,0,46,1.0,0.0
3994,60.0,34,94,2.0,0.0
3995,64.0,62,32,1.0,0.0
3996,56.0,0,94,3.0,0.0
3997,56.0,96,94,3.0,0.0
3998,60.0,0,94,2.0,0.0
3999,65.0,62,32,1.0,0.0
4000,49.0,46,528,4.0,0.0
4001,73.0,48,288,2.0,0.0
4002,65.0,0,94,1.0,0.0
4003,56.0,96,94,3.0,0.0
4004,56.0,96,94,3.0,0.0
4005,65.0,0,94,1.0,0.0
4006,65.0,0,94,1.0,0.0
4007,56.0,2,94,3.0,0.0
4008,75.0,46,48,2.0,0.0
4009,56.0,0,94,3.0,0.0
4010,65.0,0,94,1.0,0.0
4011,73.0,34,46,2.0,0.0
4012,65.0,34,94,1.0,0.0
4013,56.0,0,94,3.0,0.0
4014,72.0,62,32,2.0,0.0
4015,56.0,96,94,3.0,0.0
4016,73.0,16,32,2.0,0.0
4017,65.0,0,94,1.0,0.0
4018,68.0,48,288,2.0,0.0
4019,44.0,46,528,4.0,0.0
4020,56.0,96,94,3.0,0.0
4021,65.0,0,94,1.0,0.0
4022,65.0,0,94,1.0,0.0
4023,56.0,96,94,3.0,0.0
4024,56.0,0,94,3.0,0.0
4025,65.0,2,94,1.0,0.0
4026,56.0,0,94,3.0,0.0
4027,70.0,46,48,2.0,0.0
4028,65.0,34,94,1.0,0.0
4029,68.0,0,46,2.0,0.0
4030,56.0,34,94,3.0,0.0
4031,67.0,62,32,2.0,0.0
4032,65.0,0,94,1.0,0.0
4033,68.0,16,32,2.0,0.0
4034,65.0,0,94,1.0,0.0
4035,56.0,96,94,3.0,0.0
4036,41.0,46,336,4.0,0.0
4037,56.0,96,94,3.0,0.0
4038,65.0,48,288,2.0,0.0
4039,56.0,0,94,3.0,0.0
4040,65.0,96,94,1.0,0.0
4041,56.0,2,94,3.0,0.0
4042,65.0,0,94,1.0,0.0
4043,65.0,0,94,1.0,0.0
4044,66.0,0,48,2.0,0.0
4045,56.0,34,94,3.0,0.0
4046,65.0,0,46,2.0,0.0
4047,63.0,16,32,2.0,0.0
4048,65.0,34,94,1.0,0.0
4049,37.0,46,48,4.0,0.0
4050,56.0,0,94,3.0,0.0
4051,65.0,62,32,2.0,0.0
4052,56.0,50,94,3.0,0.0
4053,61.0,46,48,2.0,0.0
4054,65.0,96,94,1.0,0.0
4055,49.0,0,48,4.0,0.0
4056,56.0,0,94,3.0,0.0
4057,56.0,50,94,3.0,0.0
4058,65.0,0,94,1.0,0.0
4059,48.0,0,48,4.0,0.0
4060,60.0,46,48,2.0,0.0
4061,65.0,0,94,1.0,0.0
4062,56.0,96,94,3.0,0.0
4063,56.0,50,94,3.0,0.0
4064,65.0,0,94,1.0,0.0
4065,59.0,0,48,2.0,0.0
4066,65.0,96,94,1.0,0.0
4067,56.0,0,94,3.0,0.0
4068,47.0,46,48,4.0,0.0
4069,65.0,0,94,1.0,0.0
4070,56.0,34,94,3.0,0.0
4071,60.0,0,160,2.0,0.0
4072,55.0,16,160,3.0,0.0
4073,64.0,48,32,1.0,0.0
4074,48.0,0,160,4.0,0.0
4075,36.0,0,160,4.0,0.0
4076,84.0,48,32,1.0,0.0
4077,83.0,32,32,1.0,0.0
4078,81.0,48,32,1.0,0.0
4079,60.0,0,544,3.0,0.0
4080,55.0,16,544,2.0,0.0
4081,79.0,48,32,1.0,0.0
4082,64.0,0,544,2.0,0.0
4083,77.0,48,32,1.0,0.0
4084,48.0,0,32,4.0,0.0
4085,76.0,48,32,1.0,0.0
4086,74.0,48,32,1.0,0.0
4087,72.0,34,238,1.0,0.0
4088,48.0,96,32,4.0,0.0
4089,48.0,110,32,4.0,0.0
4090,40.0,0,160,4.0,0.0
4091,84.0,48,32,1.0,0.0
4092,83.0,32,32,1.0,0.0
4093,81.0,62,32,1.0,0.0
4094,60.0,0,544,3.0,0.0
4095,79.0,48,46,1.0,0.0
4096,55.0,0,544,2.0,0.0
4097,64.0,0,544,2.0,0.0
4098,77.0,34,46,1.0,0.0
4099,52.0,14,32,4.0,0.0
4100,76.0,48,46,1.0,0.0
4101,74.0,34,46,1.0,0.0
4102,72.0,48,238,1.0,0.0
4103,52.0,96,32,4.0,0.0
4104,52.0,110,32,4.0,0.0
4105,43.0,30,160,4.0,0.0
4106,84.0,48,46,1.0,0.0
4107,83.0,18,46,1.0,0.0
4108,81.0,48,46,1.0,0.0
4109,60.0,0,544,3.0,0.0
4110,55.0,0,544,2.0,0.0
4111,64.0,0,544,2.0,0.0
4112,79.0,48,46,1.0,0.0
4113,77.0,34,46,1.0,0.0
4114,55.0,14,32,4.0,0.0
4115,76.0,48,46,1.0,0.0
4116,74.0,34,46,1.0,0.0
4117,72.0,48,46,1.0,0.0
4118,55.0,14,32,4.0,0.0
4119,84.0,34,46,1.0,0.0
4120,83.0,48,46,1.0,0.0
4121,55.0,14,32,4.0,0.0
4122,81.0,48,46,1.0,0.0
4123,48.0,30,160,4.0,0.0
4124,79.0,48,46,1.0,0.0
4125,77.0,48,46,1.0,0.0
4126,76.0,18,46,1.0,0.0
4127,74.0,48,46,1.0,0.0
4128,72.0,48,46,1.0,0.0
4129,60.0,30,160,3.0,0.0
4130,64.0,0,160,2.0,0.0
4131,55.0,0,160,2.0,0.0
4132,71.0,34,46,1.0,0.0
4133,74.0,18,46,1.0,0.0
4134,60.0,14,32,4.0,0.0
4135,72.0,48,46,1.0,0.0
4136,71.0,48,46,1.0,0.0
4137,55.0,0,160,2.0,0.0
4138,64.0,30,160,2.0,0.0
4139,60.0,0,160,3.0,0.0
4140,72.0,34,46,1.0,0.0
4141,60.0,14,32,4.0,0.0
4142,74.0,18,46,1.0,0.0
4143,72.0,34,46,1.0,0.0
4144,70.0,32,48,1.0,0.0
4145,36.0,16,32,4.0,0.0
4146,55.0,0,160,2.0,0.0
4147,64.0,0,160,2.0,0.0
4148,60.0,16,160,3.0,0.0
4149,48.0,48,32,4.0,0.0
4150,47.0,32,32,4.0,0.0
4151,45.0,48,32,4.0,0.0
4152,60.0,0,544,3.0,0.0
4153,43.0,48,32,4.0,0.0
4154,48.0,0,544,3.0,0.0
4155,76.0,16,544,1.0,0.0
4156,41.0,48,32,4.0,0.0
4157,40.0,48,32,4.0,0.0
4158,38.0,96,32,4.0,0.0
4159,36.0,34,238,4.0,0.0
4160,60.0,48,32,2.0,0.0
4161,62.0,48,32,2.0,0.0
4162,64.0,48,32,2.0,0.0
4163,65.0,14,32,2.0,0.0
4164,67.0,0,32,2.0,0.0
4165,48.0,48,32,4.0,0.0
4166,69.0,0,32,2.0,0.0
4167,47.0,32,32,4.0,0.0
4168,71.0,0,32,2.0,0.0
4169,45.0,48,32,4.0,0.0
4170,72.0,34,238,2.0,0.0
4171,60.0,0,544,3.0,0.0
4172,64.0,16,544,3.0,0.0
4173,79.0,32,432,1.0,0.0
4174,43.0,48,32,4.0,0.0
4175,41.0,48,32,4.0,0.0
4176,40.0,48,32,4.0,0.0
4177,38.0,62,32,4.0,0.0
4178,36.0,2,238,4.0,0.0
4179,60.0,48,32,2.0,0.0
4180,62.0,48,32,2.0,0.0
4181,64.0,48,32,2.0,0.0
4182,65.0,14,32,2.0,0.0
4183,67.0,0,32,2.0,0.0
4184,48.0,48,32,4.0,0.0
4185,69.0,32,32,2.0,0.0
4186,47.0,0,32,4.0,0.0
4187,45.0,48,32,4.0,0.0
4188,71.0,0,32,2.0,0.0
4189,67.0,16,544,3.0,0.0
4190,60.0,0,544,3.0,0.0
4191,72.0,34,238,2.0,0.0
4192,43.0,48,32,4.0,0.0
4193,82.0,32,432,1.0,0.0
4194,41.0,48,32,4.0,0.0
4195,40.0,48,32,4.0,0.0
4196,38.0,48,32,4.0,0.0
4197,36.0,14,32,4.0,0.0
4198,48.0,0,32,4.0,0.0
4199,60.0,48,32,2.0,0.0
4200,47.0,0,32,4.0,0.0
4201,62.0,48,32,2.0,0.0
4202,45.0,0,32,4.0,0.0
4203,64.0,48,32,2.0,0.0
4204,65.0,2,46,2.0,0.0
4205,43.0,14,32,4.0,0.0
4206,67.0,34,46,2.0,0.0
4207,41.0,14,32,4.0,0.0
4208,40.0,14,32,4.0,0.0
4209,69.0,18,46,2.0,0.0
4210,38.0,14,32,4.0,0.0
4211,71.0,34,46,2.0,0.0
4212,72.0,16,32,2.0,0.0
4213,88.0,32,48,1.0,0.0
4214,36.0,0,32,4.0,0.0
4215,60.0,0,160,3.0,0.0
4216,67.0,16,160,3.0,0.0
4217,48.0,0,32,4.0,0.0
4218,60.0,48,32,2.0,0.0
4219,47.0,32,32,4.0,0.0
4220,62.0,0,32,2.0,0.0
4221,45.0,48,32,4.0,0.0
4222,64.0,0,32,2.0,0.0
4223,43.0,16,32,4.0,0.0
4224,65.0,0,32,2.0,0.0
4225,60.0,0,160,3.0,0.0
4226,91.0,32,48,1.0,0.0
4227,67.0,16,160,3.0,0.0
4228,41.0,48,32,4.0,0.0
4229,67.0,0,32,2.0,0.0
4230,69.0,32,32,2.0,0.0
4231,40.0,0,32,4.0,0.0
4232,38.0,0,32,4.0,0.0
4233,71.0,110,32,2.0,0.0
4234,94.0,0,528,1.0,0.0
4235,72.0,34,478,2.0,0.0
4236,36.0,34,94,4.0,0.0
4237,60.0,32,528,3.0,0.0
4238,67.0,0,528,3.0,0.0
4239,38.0,48,32,4.0,0.0
4240,40.0,48,32,4.0,0.0
4241,41.0,48,32,4.0,0.0
4242,43.0,48,32,4.0,0.0
4243,45.0,48,32,4.0,0.0
4244,47.0,110,32,4.0,0.0
4245,48.0,34,286,4.0,0.0
4246,71.0,16,32,2.0,0.0
4247,69.0,48,32,2.0,0.0
4248,67.0,48,32,2.0,0.0
4249,48.0,32,528,3.0,0.0
4250,76.0,0,528,1.0,0.0
4251,60.0,0,528,3.0,0.0
4252,65.0,14,32,2.0,0.0
4253,48.0,48,32,4.0,0.0
4254,64.0,0,32,2.0,0.0
4255,62.0,64,32,2.0,0.0
4256,50.0,0,32,4.0,0.0
4257,52.0,48,48,4.0,0.0
4258,60.0,34,286,2.0,0.0
4259,53.0,48,48,4.0,0.0
4260,55.0,46,48,4.0,0.0
4261,57.0,96,46,4.0,0.0
4262,58.0,0,286,4.0,0.0
4263,60.0,16,32,2.0,0.0
4264,62.0,64,32,2.0,0.0
4265,64.0,46,48,2.0,0.0
4266,60.0,2,94,3.0,0.0
4267,48.0,0,94,3.0,0.0
4268,79.0,46,528,1.0,0.0
4269,65.0,32,48,2.0,0.0
4270,48.0,34,94,3.0,0.0
4271,67.0,46,48,2.0,0.0
4272,60.0,0,94,3.0,0.0
4273,57.0,16,32,4.0,0.0
4274,69.0,0,46,2.0,0.0
4275,60.0,0,94,3.0,0.0
4276,70.0,0,32,2.0,0.0
4277,48.0,34,94,3.0,0.0
4278,55.0,62,32,4.0,0.0
4279,69.0,62,32,2.0,0.0
4280,53.0,0,32,4.0,0.0
4281,48.0,34,94,3.0,0.0
4282,60.0,0,94,3.0,0.0
4283,48.0,34,94,3.0,0.0
4284,52.0,62,32,4.0,0.0
4285,67.0,0,32,2.0,0.0
4286,60.0,0,94,3.0,0.0
4287,50.0,0,32,4.0,0.0
4288,60.0,34,94,3.0,0.0
4289,65.0,16,32,2.0,0.0
4290,48.0,0,94,3.0,0.0
4291,48.0,62,32,4.0,0.0
4292,60.0,0,94,3.0,0.0
4293,64.0,0,32,2.0,0.0
4294,59.0,34,46,1.0,0.0
4295,60.0,0,94,3.0,0.0
4296,48.0,34,94,3.0,0.0
4297,50.0,62,32,4.0,0.0
4298,65.0,0,32,2.0,0.0
4299,62.0,0,46,1.0,0.0
4300,48.0,62,32,4.0,0.0
4301,60.0,2,94,3.0,0.0
4302,64.0,0,32,2.0,0.0
4303,65.0,32,48,1.0,0.0
4304,67.0,46,48,1.0,0.0
4305,62.0,16,32,2.0,0.0
4306,46.0,0,32,4.0,0.0
4307,48.0,2,94,3.0,0.0
4308,60.0,0,94,3.0,0.0
4309,69.0,32,48,1.0,0.0
4310,70.0,46,48,1.0,0.0
4311,60.0,16,32,2.0,0.0
4312,48.0,2,94,3.0,0.0
4313,45.0,0,32,4.0,0.0
4314,72.0,32,48,1.0,0.0
4315,58.0,16,32,2.0,0.0
4316,43.0,0,32,4.0,0.0
4317,48.0,0,94,3.0,0.0
4318,60.0,0,94,3.0,0.0
4319,74.0,46,48,1.0,0.0
4320,76.0,290,46,1.0,0.0
4321,57.0,0,288,2.0,0.0
4322,65.0,0,288,2.0,0.0
4323,53.0,0,288,3.0,0.0
4324,41.0,0,288,4.0,0.0
4325,77.0,48,288,1.0,0.0
4326,67.0,46,48,2.0,0.0
4327,43.0,0,48,4.0,0.0
4328,55.0,0,48,3.0,0.0
4329,79.0,0,48,1.0,0.0
4330,53.0,0,46,3.0,0.0
4331,41.0,34,46,4.0,0.0
4332,65.0,0,46,2.0,0.0
4333,77.0,0,46,1.0,0.0
4334,76.0,0,32,1.0,0.0
4335,52.0,0,32,3.0,0.0
4336,64.0,96,32,2.0,0.0
4337,40.0,0,32,4.0,0.0
4338,41.0,0,32,4.0,0.0
4339,77.0,0,32,1.0,0.0
4340,53.0,0,32,3.0,0.0
4341,65.0,224,32,2.0,0.0
4342,36.0,0,160,4.0,0.0
4343,72.0,0,160,1.0,0.0
4344,48.0,0,160,3.0,0.0
4345,60.0,704,160,2.0,0.0
4346,65.0,0,288,2.0,0.0
4347,77.0,0,288,1.0,0.0
4348,53.0,0,288,3.0,0.0
4349,41.0,48,288,4.0,0.0
4350,67.0,0,48,2.0,0.0
4351,55.0,0,48,3.0,0.0
4352,79.0,0,48,1.0,0.0
4353,43.0,46,48,4.0,0.0
4354,77.0,0,46,1.0,0.0
4355,53.0,34,46,3.0,0.0
4356,65.0,0,46,2.0,0.0
4357,41.0,0,46,4.0,0.0
4358,52.0,0,32,3.0,0.0
4359,40.0,0,32,4.0,0.0
4360,64.0,0,32,2.0,0.0
4361,76.0,96,32,1.0,0.0
4362,77.0,0,32,1.0,0.0
4363,41.0,0,32,4.0,0.0
4364,53.0,224,32,3.0,0.0
4365,65.0,0,32,2.0,0.0
4366,50.0,0,160,3.0,0.0
4367,38.0,0,160,4.0,0.0
4368,62.0,0,160,2.0,0.0
4369,74.0,704,160,1.0,0.0
4370,62.0,0,576,3.0,0.0
4371,70.0,144,960,2.0,0.0
4372,50.0,384,576,4.0,0.0
4373,77.0,48,288,1.0,0.0
4374,79.0,46,48,1.0,0.0
4375,77.0,34,46,1.0,0.0
4376,76.0,96,32,1.0,0.0
4377,77.0,64,32,1.0,0.0
4378,52.0,16,528,4.0,0.0
4379,60.0,0,768,3.0,0.0
4380,79.0,0,384,1.0,0.0
4381,67.0,224,160,2.0,0.0
4382,70.0,0,160,1.0,0.0
4383,53.0,192,192,4.0,0.0
4384,69.0,144,384,1.0,0.0
4385,65.0,0,384,2.0,0.0
4386,62.0,0,192,3.0,0.0
4387,50.0,0,192,4.0,0.0
4388,55.0,30,160,3.0,0.0
4389,70.0,0,144,2.0,0.0
4390,46.0,0,160,4.0,0.0
4391,74.0,16,144,1.0,0.0
4392,67.0,98,46,2.0,0.0
4393,70.0,0,46,1.0,0.0
4394,69.0,144,384,1.0,0.0
4395,48.0,16,528,4.0,0.0
4396,65.0,0,384,2.0,0.0
4397,60.0,96,96,3.0,0.0
4398,59.0,96,96,3.0,0.0
4399,60.0,96,96,3.0,0.0
4400,59.0,0,96,3.0,0.0
4401,67.0,0,160,1.0,0.0
4402,64.0,0,160,2.0,0.0
4403,60.0,320,160,3.0,0.0
4404,70.0,48,288,2.0,0.0
4405,72.0,46,48,2.0,0.0
4406,70.0,34,46,2.0,0.0
4407,69.0,96,32,2.0,0.0
4408,70.0,352,32,2.0,0.0
4409,69.0,48,288,3.0,0.0
4410,72.0,0,288,2.0,0.0
4411,77.0,144,768,1.0,0.0
4412,73.0,46,48,2.0,0.0
4413,70.0,0,48,3.0,0.0
4414,69.0,0,46,3.0,0.0
4415,72.0,34,46,2.0,0.0
4416,70.0,96,32,2.0,0.0
4417,67.0,0,32,3.0,0.0
4418,72.0,0,32,2.0,0.0
4419,69.0,256,32,3.0,0.0
4420,73.0,48,336,2.0,0.0
4421,70.0,0,192,3.0,0.0
4422,82.0,0,336,1.0,0.0
4423,66.0,144,192,3.0,0.0
4424,78.0,16,144,2.0,0.0
4425,63.0,30,160,3.0,0.0
4426,78.0,50,46,1.0,0.0
4427,75.0,0,46,2.0,0.0
4428,73.0,160,384,2.0,0.0
4429,68.0,192,48,3.0,0.0
4430,77.0,0,384,1.0,0.0
4431,56.0,144,48,3.0,0.0
4432,72.0,224,160,2.0,0.0
4433,75.0,0,160,1.0,0.0
4434,49.0,192,192,4.0,0.0
4435,65.0,0,384,2.0,0.0
4436,61.0,144,384,3.0,0.0
4437,46.0,0,192,4.0,0.0
4438,66.0,0,144,3.0,0.0
4439,70.0,16,144,2.0,0.0
4440,42.0,30,160,4.0,0.0
4441,63.0,0,46,3.0,0.0
4442,66.0,50,46,2.0,0.0
4443,61.0,0,384,3.0,0.0
4444,65.0,160,384,2.0,0.0
4445,44.0,192,48,4.0,0.0
4446,56.0,144,48,4.0,0.0
4447,60.0,368,160,3.0,0.0
4448,63.0,0,160,2.0,0.0
4449,70.0,48,336,2.0,0.0
4450,73.0,144,384,1.0,0.0
4451,66.0,0,192,3.0,0.0
4452,78.0,16,144,1.0,0.0
4453,63.0,30,160,3.0,0.0
4454,70.0,0,160,2.0,0.0
4455,75.0,50,46,1.0,0.0
4456,73.0,0,384,1.0,0.0
4457,70.0,160,384,2.0,0.0
4458,65.0,192,48,3.0,0.0
4459,53.0,144,48,3.0,0.0
4460,72.0,0,160,1.0,0.0
4461,69.0,368,160,2.0,0.0
4462,58.0,48,336,3.0,0.0
4463,61.0,0,384,2.0,0.0
4464,54.0,144,192,4.0,0.0
4465,66.0,16,144,2.0,0.0
4466,58.0,30,160,3.0,0.0
4467,51.0,0,160,4.0,0.0
4468,63.0,354,46,2.0,0.0
4469,53.0,0,576,4.0,0.0
4470,61.0,0,576,2.0,0.0
4471,56.0,96,576,3.0,0.0
4472,73.0,192,160,1.0,0.0
4473,73.0,32,160,1.0,0.0
4474,53.0,16,528,3.0,0.0
4475,49.0,32,160,4.0,0.0
4476,68.0,0,528,2.0,0.0
4477,73.0,64,96,1.0,0.0
4478,71.0,96,96,1.0,0.0
4479,70.0,64,96,1.0,0.0
4480,37.0,32,160,4.0,0.0
4481,71.0,96,96,1.0,0.0
4482,73.0,48,96,1.0,0.0
4483,37.0,30,160,4.0,0.0
4484,71.0,162,94,1.0,0.0
4485,49.0,48,288,3.0,0.0
4486,70.0,128,160,1.0,0.0
4487,42.0,16,1104,4.0,0.0
4488,66.0,0,160,2.0,0.0
4489,51.0,46,48,3.0,0.0
4490,49.0,34,46,3.0,0.0
4491,48.0,96,32,3.0,0.0
4492,49.0,416,32,3.0,0.0
4493,49.0,0,864,3.0,0.0
4494,58.0,30,160,2.0,0.0
4495,70.0,34,94,1.0,0.0
4496,71.0,32,32,1.0,0.0
4497,58.0,0,160,2.0,0.0
4498,70.0,32,32,1.0,0.0
4499,71.0,32,32,1.0,0.0
4500,70.0,16,32,1.0,0.0
4501,69.0,30,32,1.0,0.0
4502,70.0,290,30,1.0,0.0
4503,44.0,16,1104,4.0,0.0
4504,59.0,192,736,2.0,0.0
4505,73.0,48,288,1.0,0.0
4506,51.0,46,48,3.0,0.0
4507,71.0,0,94,1.0,0.0
4508,49.0,34,46,3.0,0.0
4509,48.0,0,32,3.0,0.0
4510,68.0,96,32,1.0,0.0
4511,66.0,224,32,1.0,0.0
4512,49.0,0,32,3.0,0.0
4513,49.0,0,864,3.0,0.0
4514,65.0,0,160,1.0,0.0
4515,59.0,30,160,2.0,0.0
4516,71.0,34,94,1.0,0.0
4517,59.0,30,160,2.0,0.0
4518,73.0,32,32,1.0,0.0
4519,71.0,32,32,1.0,0.0
4520,73.0,32,32,1.0,0.0
4521,71.0,16,32,1.0,0.0
4522,70.0,0,32,1.0,0.0
4523,71.0,290,30,1.0,0.0
4524,75.0,48,288,1.0,0.0
4525,61.0,192,736,2.0,0.0
4526,46.0,16,1104,4.0,0.0
4527,73.0,34,94,1.0,0.0
4528,51.0,46,48,3.0,0.0
4529,49.0,0,46,3.0,0.0
4530,48.0,0,32,3.0,0.0
4531,70.0,96,32,1.0,0.0
4532,49.0,0,32,3.0,0.0
4533,68.0,224,32,1.0,0.0
4534,66.0,0,160,1.0,0.0
4535,49.0,0,528,3.0,0.0
4536,61.0,30,160,2.0,0.0
4537,78.0,34,94,1.0,0.0
4538,61.0,0,160,2.0,0.0
4539,80.0,32,32,1.0,0.0
4540,78.0,32,32,1.0,0.0
4541,80.0,32,32,1.0,0.0
4542,78.0,16,32,1.0,0.0
4543,77.0,30,32,1.0,0.0
4544,78.0,290,30,1.0,0.0
4545,41.0,32,768,4.0,0.0
4546,68.0,0,336,2.0,0.0
4547,49.0,48,288,3.0,0.0
4548,82.0,0,288,1.0,0.0
4549,80.0,0,94,1.0,0.0
4550,51.0,46,48,3.0,0.0
4551,49.0,34,46,3.0,0.0
4552,68.0,0,32,2.0,0.0
4553,48.0,0,32,3.0,0.0
4554,80.0,96,32,1.0,0.0
4555,49.0,160,32,3.0,0.0
4556,66.0,0,32,2.0,0.0
4557,78.0,0,32,1.0,0.0
4558,49.0,16,528,3.0,0.0
4559,66.0,0,96,2.0,0.0
4560,78.0,94,96,1.0,0.0
4561,77.0,0,94,1.0,0.0
4562,65.0,2,94,2.0,0.0
4563,77.0,96,32,1.0,0.0
4564,44.0,32,192,4.0,0.0
4565,65.0,0,32,2.0,0.0
4566,63.0,0,32,2.0,0.0
4567,75.0,64,32,1.0,0.0
4568,61.0,96,32,2.0,0.0
4569,37.0,224,160,4.0,0.0
4570,73.0,0,32,1.0,0.0
4571,71.0,0,32,1.0,0.0
4572,59.0,16,32,2.0,0.0
4573,69.0,0,192,1.0,0.0
4574,42.0,288,576,4.0,0.0
4575,57.0,96,192,2.0,0.0
4576,49.0,48,288,3.0,0.0
4577,58.0,0,160,2.0,0.0
4578,70.0,30,160,1.0,0.0
4579,51.0,16,48,3.0,0.0
4580,49.0,34,46,3.0,0.0
4581,70.0,0,48,1.0,0.0
4582,58.0,80,48,2.0,0.0
4583,48.0,16,32,3.0,0.0
4584,49.0,64,32,3.0,0.0
4585,41.0,0,528,4.0,0.0
4586,58.0,0,288,2.0,0.0
4587,70.0,48,288,1.0,0.0
4588,49.0,336,528,3.0,0.0
4589,60.0,0,48,2.0,0.0
4590,72.0,46,48,1.0,0.0
4591,58.0,34,46,2.0,0.0
4592,70.0,0,46,1.0,0.0
4593,69.0,0,32,1.0,0.0
4594,57.0,96,32,2.0,0.0
4595,70.0,16,32,1.0,0.0
4596,58.0,0,32,2.0,0.0
4597,67.0,0,336,2.0,0.0
4598,40.0,0,336,4.0,0.0
4599,79.0,46,336,1.0,0.0
4600,48.0,48,288,3.0,0.0
4601,61.0,0,48,3.0,0.0
4602,60.0,34,46,3.0,0.0
4603,52.0,0,48,4.0,0.0
4604,67.0,0,48,2.0,0.0
4605,59.0,16,32,3.0,0.0
4606,70.0,80,48,1.0,0.0
4607,60.0,112,32,3.0,0.0
4608,68.0,0,48,1.0,0.0
4609,60.0,0,48,2.0,0.0
4610,53.0,192,48,4.0,0.0
4611,67.0,0,48,1.0,0.0
4612,60.0,176,48,2.0,0.0
4613,51.0,0,48,4.0,0.0
4614,55.0,0,48,3.0,0.0
4615,65.0,0,48,1.0,0.0
4616,56.0,16,32,3.0,0.0
4617,49.0,80,48,4.0,0.0
4618,59.0,0,48,2.0,0.0
4619,53.0,96,32,3.0,0.0
4620,52.0,0,160,3.0,0.0
4621,72.0,48,32,1.0,0.0
4622,55.0,16,160,2.0,0.0
4623,48.0,0,160,4.0,0.0
4624,60.0,48,32,1.0,0.0
4625,62.0,32,32,1.0,0.0
4626,64.0,48,32,1.0,0.0
4627,65.0,48,32,1.0,0.0
4628,67.0,48,32,1.0,0.0
4629,64.0,0,32,3.0,0.0
4630,69.0,48,32,1.0,0.0
4631,67.0,0,32,2.0,0.0
4632,71.0,48,32,1.0,0.0
4633,67.0,48,32,2.0,0.0
4634,72.0,0,32,1.0,0.0
4635,64.0,0,32,3.0,0.0
4636,71.0,48,32,1.0,0.0
4637,65.0,0,32,3.0,0.0
4638,72.0,48,32,1.0,0.0
4639,68.0,0,32,2.0,0.0
4640,71.0,96,32,1.0,0.0
4641,72.0,16,160,1.0,0.0
4642,67.0,0,160,2.0,0.0
4643,64.0,0,160,3.0,0.0
4644,48.0,48,32,4.0,0.0
4645,50.0,32,32,4.0,0.0
4646,52.0,48,32,4.0,0.0
4647,53.0,48,32,4.0,0.0
4648,55.0,48,32,4.0,0.0
4649,57.0,0,32,4.0,0.0
4650,60.0,0,32,3.0,0.0
4651,67.0,48,32,2.0,0.0
4652,76.0,0,32,1.0,0.0
4653,59.0,48,32,4.0,0.0
4654,67.0,48,32,2.0,0.0
4655,60.0,0,32,3.0,0.0
4656,76.0,0,32,1.0,0.0
4657,59.0,48,32,4.0,0.0
4658,68.0,0,32,2.0,0.0
4659,60.0,48,32,3.0,0.0
4660,77.0,0,32,1.0,0.0
4661,59.0,62,32,4.0,0.0
4662,76.0,48,46,1.0,0.0
4663,67.0,0,160,2.0,0.0
4664,60.0,30,160,3.0,0.0
4665,60.0,48,46,1.0,0.0
4666,62.0,18,46,1.0,0.0
4667,64.0,48,46,1.0,0.0
4668,65.0,48,46,1.0,0.0
4669,67.0,34,46,1.0,0.0
4670,69.0,48,46,1.0,0.0
4671,52.0,14,32,3.0,0.0
4672,55.0,0,32,2.0,0.0
4673,71.0,34,46,1.0,0.0
4674,72.0,48,46,1.0,0.0
4675,52.0,14,32,3.0,0.0
4676,55.0,0,32,2.0,0.0
4677,71.0,34,46,1.0,0.0
4678,72.0,48,46,1.0,0.0
4679,53.0,0,32,3.0,0.0
4680,56.0,14,32,2.0,0.0
4681,71.0,96,46,1.0,0.0
4682,55.0,30,160,2.0,0.0
4683,52.0,0,160,3.0,0.0
4684,72.0,0,160,1.0,0.0
4685,48.0,48,46,4.0,0.0
4686,50.0,18,46,4.0,0.0
4687,52.0,48,46,4.0,0.0
4688,53.0,48,46,4.0,0.0
4689,55.0,34,46,4.0,0.0
4690,57.0,48,46,4.0,0.0
4691,60.0,0,32,3.0,0.0
4692,67.0,0,32,2.0,0.0
4693,76.0,14,32,1.0,0.0
4694,59.0,34,46,4.0,0.0
4695,60.0,0,32,3.0,0.0
4696,67.0,0,32,2.0,0.0
4697,76.0,62,32,1.0,0.0
4698,59.0,34,46,4.0,0.0
4699,68.0,62,32,2.0,0.0
4700,77.0,0,32,1.0,0.0
4701,60.0,0,32,3.0,0.0
4702,59.0,48,46,4.0,0.0
4703,67.0,0,160,2.0,0.0
4704,76.0,48,46,1.0,0.0
4705,60.0,30,160,3.0,0.0
4706,60.0,48,46,1.0,0.0
4707,62.0,18,46,1.0,0.0
4708,64.0,48,46,1.0,0.0
4709,65.0,48,46,1.0,0.0
4710,67.0,34,46,1.0,0.0
4711,60.0,0,32,4.0,0.0
4712,69.0,48,46,1.0,0.0
4713,76.0,0,32,2.0,0.0
4714,67.0,14,32,3.0,0.0
4715,71.0,34,46,1.0,0.0
4716,60.0,0,32,4.0,0.0
4717,67.0,14,32,3.0,0.0
4718,72.0,48,46,1.0,0.0
4719,76.0,0,32,2.0,0.0
4720,71.0,34,46,1.0,0.0
4721,77.0,0,32,2.0,0.0
4722,72.0,48,46,1.0,0.0
4723,53.0,0,32,4.0,0.0
4724,68.0,14,32,3.0,0.0
4725,71.0,48,46,1.0,0.0
4726,72.0,0,46,1.0,0.0
4727,76.0,0,46,2.0,0.0
4728,60.0,48,46,4.0,0.0
4729,67.0,0,46,3.0,0.0
4730,72.0,0,46,1.0,0.0
4731,60.0,0,46,2.0,0.0
4732,36.0,0,46,4.0,0.0
4733,48.0,48,46,3.0,0.0
4734,74.0,0,46,1.0,0.0
4735,50.0,0,46,3.0,0.0
4736,62.0,48,46,2.0,0.0
4737,38.0,0,46,4.0,0.0
4738,52.0,0,46,3.0,0.0
4739,76.0,48,46,1.0,0.0
4740,40.0,0,46,4.0,0.0
4741,64.0,0,46,2.0,0.0
4742,53.0,0,46,3.0,0.0
4743,41.0,48,46,4.0,0.0
4744,65.0,0,46,2.0,0.0
4745,77.0,0,46,1.0,0.0
4746,67.0,0,46,2.0,0.0
4747,43.0,0,46,4.0,0.0
4748,55.0,0,46,3.0,0.0
4749,79.0,48,46,1.0,0.0
4750,81.0,0,46,1.0,0.0
4751,57.0,0,46,3.0,0.0
4752,69.0,48,46,2.0,0.0
4753,45.0,0,46,4.0,0.0
4754,59.0,0,46,3.0,0.0
4755,83.0,0,46,1.0,0.0
4756,47.0,0,46,4.0,0.0
4757,71.0,48,46,2.0,0.0
4758,48.0,0,46,4.0,0.0
4759,84.0,48,46,1.0,0.0
4760,60.0,0,46,3.0,0.0
4761,72.0,0,46,2.0,0.0
4762,59.0,0,46,3.0,0.0
4763,71.0,0,46,2.0,0.0
4764,47.0,0,46,4.0,0.0
4765,83.0,48,46,1.0,0.0
4766,48.0,0,46,4.0,0.0
4767,60.0,0,46,3.0,0.0
4768,84.0,0,46,1.0,0.0
4769,72.0,48,46,2.0,0.0
4770,47.0,0,46,4.0,0.0
4771,59.0,0,46,3.0,0.0
4772,71.0,96,46,2.0,0.0
4773,83.0,0,46,1.0,0.0
4774,60.0,0,160,3.0,0.0
4775,48.0,0,160,4.0,0.0
4776,72.0,96,160,2.0,0.0
4777,84.0,66,94,1.0,0.0
4778,84.0,192,160,1.0,0.0
4779,84.0,128,160,1.0,0.0
4780,84.0,94,96,1.0,0.0
4781,85.0,162,94,1.0,0.0
4782,85.0,192,160,1.0,0.0
4783,85.0,128,160,1.0,0.0
4784,85.0,94,96,1.0,0.0
4785,86.0,98,94,1.0,0.0
4786,86.0,94,96,1.0,0.0
4787,82.0,98,94,1.0,0.0
4788,82.0,94,96,1.0,0.0
4789,79.0,98,94,1.0,0.0
4790,79.0,94,96,1.0,0.0
4791,76.0,98,94,1.0,0.0
4792,76.0,94,96,1.0,0.0
4793,72.0,98,94,1.0,0.0
4794,72.0,32,96,1.0,0.0
4795,76.0,98,94,1.0,0.0
4796,72.0,62,32,2.0,0.0
4797,70.0,0,32,3.0,0.0
4798,76.0,0,96,1.0,0.0
4799,72.0,0,190,2.0,0.0
4800,70.0,94,96,3.0,0.0
4801,77.0,0,94,1.0,0.0
4802,69.0,98,94,3.0,0.0
4803,72.0,94,96,2.0,0.0
4804,69.0,0,96,3.0,0.0
4805,77.0,0,96,1.0,0.0
4806,76.0,0,94,2.0,0.0
4807,67.0,0,94,3.0,0.0
4808,79.0,98,94,1.0,0.0
4809,67.0,0,96,3.0,0.0
4810,79.0,0,96,1.0,0.0
4811,76.0,94,96,2.0,0.0
4812,81.0,98,94,1.0,0.0
4813,77.0,0,94,2.0,0.0
4814,65.0,0,94,3.0,0.0
4815,81.0,0,96,1.0,0.0
4816,65.0,192,96,3.0,0.0
4817,77.0,0,96,2.0,0.0
4818,84.0,0,192,1.0,0.0
4819,64.0,30,256,3.0,0.0
4820,81.0,64,192,2.0,0.0
4821,79.0,0,94,2.0,0.0
4822,82.0,130,94,1.0,0.0
4823,69.0,160,32,3.0,0.0
4824,69.0,94,96,3.0,0.0
4825,70.0,98,94,3.0,0.0
4826,70.0,94,96,3.0,0.0
4827,67.0,98,94,3.0,0.0
4828,67.0,94,96,3.0,0.0
4829,64.0,98,94,3.0,0.0
4830,64.0,94,96,3.0,0.0
4831,61.0,98,94,3.0,0.0
4832,61.0,94,96,3.0,0.0
4833,69.0,98,94,3.0,0.0
4834,69.0,94,96,3.0,0.0
4835,67.0,98,94,3.0,0.0
4836,76.0,0,192,2.0,0.0
4837,85.0,0,192,1.0,0.0
4838,67.0,94,96,3.0,0.0
4839,77.0,0,192,2.0,0.0
4840,86.0,0,192,1.0,0.0
4841,65.0,98,94,3.0,0.0
4842,65.0,94,96,3.0,0.0
4843,89.0,94,192,1.0,0.0
4844,81.0,0,192,2.0,0.0
4845,62.0,98,94,3.0,0.0
4846,62.0,0,96,3.0,0.0
4847,74.0,0,160,2.0,0.0
4848,67.0,66,94,3.0,0.0
4849,83.0,32,160,1.0,0.0
4850,67.0,192,96,3.0,0.0
4851,60.0,30,256,3.0,0.0
4852,77.0,64,192,2.0,0.0
4853,86.0,0,192,1.0,0.0
4854,84.0,0,94,1.0,0.0
4855,76.0,98,94,2.0,0.0
4856,59.0,96,96,4.0,0.0
4857,60.0,96,96,4.0,0.0
4858,61.0,32,96,4.0,0.0
4859,62.0,160,32,4.0,0.0
4860,62.0,94,96,4.0,0.0
4861,58.0,98,94,4.0,0.0
4862,58.0,94,96,4.0,0.0
4863,55.0,98,94,4.0,0.0
4864,55.0,94,96,4.0,0.0
4865,52.0,98,94,4.0,0.0
4866,52.0,94,96,4.0,0.0
4867,48.0,98,94,4.0,0.0
4868,48.0,32,96,4.0,0.0
4869,82.0,0,32,1.0,0.0
4870,67.0,0,32,3.0,0.0
4871,72.0,62,32,2.0,0.0
4872,52.0,98,94,4.0,0.0
4873,72.0,0,190,2.0,0.0
4874,52.0,0,96,4.0,0.0
4875,67.0,94,96,3.0,0.0
4876,82.0,0,96,1.0,0.0
4877,81.0,0,94,1.0,0.0
4878,65.0,0,94,3.0,0.0
4879,53.0,98,94,4.0,0.0
4880,72.0,0,96,2.0,0.0
4881,81.0,0,96,1.0,0.0
4882,65.0,94,96,3.0,0.0
4883,53.0,0,96,4.0,0.0
4884,70.0,98,94,2.0,0.0
4885,55.0,0,94,4.0,0.0
4886,79.0,0,94,1.0,0.0
4887,64.0,0,94,3.0,0.0
4888,64.0,94,96,3.0,0.0
4889,79.0,0,96,1.0,0.0
4890,70.0,0,96,2.0,0.0
4891,55.0,0,96,4.0,0.0
4892,77.0,96,94,1.0,0.0
4893,60.0,0,94,3.0,0.0
4894,69.0,0,94,2.0,0.0
4895,57.0,0,94,4.0,0.0
4896,60.0,0,94,3.0,0.0
4897,77.0,0,94,1.0,0.0
4898,57.0,2,94,4.0,0.0
4899,69.0,192,96,2.0,0.0
4900,67.0,0,256,2.0,0.0
4901,61.0,96,256,3.0,0.0
4902,77.0,64,192,1.0,0.0
4903,58.0,0,256,4.0,0.0
4904,76.0,64,160,1.0,0.0
4905,72.0,160,32,2.0,0.0
4906,72.0,94,96,2.0,0.0
4907,73.0,98,94,2.0,0.0
4908,73.0,32,96,2.0,0.0
4909,73.0,62,32,3.0,0.0
4910,70.0,98,94,2.0,0.0
4911,73.0,94,96,3.0,0.0
4912,70.0,0,96,2.0,0.0
4913,85.0,0,49872,1.0,0.0
4914,70.0,0,94,3.0,0.0
4915,67.0,98,94,2.0,0.0
4916,67.0,94,96,2.0,0.0
4917,70.0,0,96,3.0,0.0
4918,67.0,98,94,3.0,0.0
4919,64.0,0,94,2.0,0.0
4920,64.0,0,96,2.0,0.0
4921,67.0,0,96,3.0,0.0
4922,65.0,0,94,2.0,0.0
4923,84.0,64,192,1.0,0.0
4924,68.0,98,94,3.0,0.0
4925,80.0,30,160,2.0,0.0
4926,65.0,0,96,3.0,0.0
4927,89.0,30,160,1.0,0.0
4928,59.0,66,94,3.0,0.0
4929,59.0,94,96,3.0,0.0
4930,80.0,2,94,2.0,0.0
4931,89.0,0,384,1.0,0.0
4932,60.0,98,94,3.0,0.0
4933,80.0,94,384,2.0,0.0
4934,60.0,94,96,3.0,0.0
4935,72.0,98,94,3.0,0.0
4936,72.0,0,96,3.0,0.0
4937,91.0,0,144,1.0,0.0
4938,60.0,50,94,3.0,0.0
4939,82.0,46,144,2.0,0.0
4940,60.0,0,94,3.0,0.0
4941,79.0,96,46,2.0,0.0
4942,88.0,0,46,1.0,0.0
4943,89.0,64,160,1.0,0.0
4944,65.0,34,94,3.0,0.0
4945,77.0,0,94,2.0,0.0
4946,60.0,32,288,4.0,0.0
4947,57.0,0,32,2.0,0.0
4948,53.0,32,32,3.0,0.0
4949,53.0,64,32,3.0,0.0
4950,57.0,0,32,2.0,0.0
4951,62.0,46,48,4.0,0.0
4952,57.0,0,32,2.0,0.0
4953,53.0,16,32,3.0,0.0
4954,60.0,34,46,4.0,0.0
4955,59.0,0,32,4.0,0.0
4956,57.0,0,32,2.0,0.0
4957,53.0,96,32,3.0,0.0
4958,53.0,0,32,3.0,0.0
4959,57.0,158,32,2.0,0.0
4960,60.0,0,32,4.0,0.0
4961,53.0,0,94,3.0,0.0
4962,57.0,96,94,2.0,0.0
4963,81.0,48,288,1.0,0.0
4964,60.0,46,528,4.0,0.0
4965,53.0,0,94,3.0,0.0
4966,57.0,96,94,2.0,0.0
4967,53.0,0,94,3.0,0.0
4968,57.0,2,94,2.0,0.0
4969,53.0,34,94,3.0,0.0
4970,57.0,0,94,2.0,0.0
4971,82.0,46,48,1.0,0.0
4972,81.0,0,46,1.0,0.0
4973,57.0,34,94,2.0,0.0
4974,79.0,62,32,1.0,0.0
4975,53.0,0,94,3.0,0.0
4976,57.0,96,94,2.0,0.0
4977,53.0,0,94,3.0,0.0
4978,77.0,16,32,1.0,0.0
4979,76.0,30,160,1.0,0.0
4980,60.0,48,288,4.0,0.0
4981,55.0,66,94,3.0,0.0
4982,58.0,0,94,2.0,0.0
4983,55.0,0,94,3.0,0.0
4984,58.0,96,94,2.0,0.0
4985,58.0,2,94,2.0,0.0
4986,55.0,0,94,3.0,0.0
4987,62.0,46,48,4.0,0.0
4988,58.0,34,94,2.0,0.0
4989,55.0,0,94,3.0,0.0
4990,60.0,0,46,4.0,0.0
4991,55.0,0,94,3.0,0.0
4992,59.0,62,32,4.0,0.0
4993,58.0,34,94,2.0,0.0
4994,58.0,96,94,2.0,0.0
4995,55.0,0,94,3.0,0.0
4996,60.0,62,32,4.0,0.0
4997,64.0,0,94,2.0,0.0
4998,58.0,0,94,2.0,0.0
4999,60.0,46,528,4.0,0.0
5000,55.0,96,94,3.0,0.0
5001,82.0,48,288,1.0,0.0
5002,64.0,0,94,2.0,0.0
5003,58.0,96,94,2.0,0.0
5004,55.0,0,94,3.0,0.0
5005,55.0,0,94,3.0,0.0
5006,64.0,2,94,2.0,0.0
5007,58.0,0,94,2.0,0.0
5008,64.0,0,94,2.0,0.0
5009,55.0,0,94,3.0,0.0
5010,84.0,46,48,1.0,0.0
5011,58.0,0,94,2.0,0.0
5012,82.0,34,46,1.0,0.0
5013,55.0,0,94,3.0,0.0
5014,81.0,62,32,1.0,0.0
5015,58.0,34,94,2.0,0.0
5016,64.0,0,94,2.0,0.0
5017,58.0,0,94,2.0,0.0
5018,64.0,0,94,2.0,0.0
5019,55.0,96,94,3.0,0.0
5020,79.0,16,32,1.0,0.0
5021,57.0,66,94,3.0,0.0
5022,60.0,0,94,2.0,0.0
5023,60.0,48,288,4.0,0.0
5024,78.0,30,160,1.0,0.0
5025,66.0,0,94,2.0,0.0
5026,57.0,0,94,3.0,0.0
5027,60.0,96,94,2.0,0.0
5028,57.0,0,94,3.0,0.0
5029,66.0,0,94,2.0,0.0
5030,60.0,2,94,2.0,0.0
5031,57.0,0,94,3.0,0.0
5032,66.0,0,94,2.0,0.0
5033,60.0,34,94,2.0,0.0
5034,62.0,46,48,4.0,0.0
5035,60.0,0,46,4.0,0.0
5036,59.0,62,32,4.0,0.0
5037,57.0,0,94,3.0,0.0
5038,60.0,0,94,2.0,0.0
5039,66.0,34,94,2.0,0.0
5040,66.0,0,94,2.0,0.0
5041,60.0,96,94,2.0,0.0
5042,57.0,0,94,3.0,0.0
5043,60.0,62,32,4.0,0.0
5044,87.0,0,286,1.0,0.0
5045,57.0,0,94,3.0,0.0
5046,60.0,96,94,2.0,0.0
5047,66.0,0,94,2.0,0.0
5048,63.0,0,336,4.0,0.0
5049,66.0,0,94,2.0,0.0
5050,60.0,0,94,2.0,0.0
5051,57.0,96,94,3.0,0.0
5052,66.0,50,94,2.0,0.0
5053,60.0,0,94,2.0,0.0
5054,57.0,0,94,3.0,0.0
5055,60.0,0,94,2.0,0.0
5056,66.0,2,94,2.0,0.0
5057,57.0,0,94,3.0,0.0
5058,86.0,46,48,1.0,0.0
5059,84.0,48,48,1.0,0.0
5060,60.0,30,160,4.0,0.0
5061,57.0,2,94,3.0,0.0
5062,60.0,0,94,2.0,0.0
5063,66.0,0,94,2.0,0.0
5064,82.0,46,48,1.0,0.0
5065,81.0,48,48,1.0,0.0
5066,79.0,16,48,1.0,0.0
5067,66.0,0,94,2.0,0.0
5068,60.0,34,94,2.0,0.0
5069,57.0,0,94,3.0,0.0
5070,78.0,0,46,1.0,0.0
5071,79.0,48,32,1.0,0.0
5072,67.0,16,160,2.0,0.0
5073,58.0,0,160,3.0,0.0
5074,62.0,0,160,4.0,0.0
5075,74.0,48,32,1.0,0.0
5076,76.0,32,32,1.0,0.0
5077,78.0,48,32,1.0,0.0
5078,58.0,0,160,2.0,0.0
5079,46.0,16,160,4.0,0.0
5080,62.0,0,160,3.0,0.0
5081,67.0,0,160,2.0,0.0
5082,79.0,48,32,1.0,0.0
5083,81.0,48,32,1.0,0.0
5084,82.0,32,32,1.0,0.0
5085,81.0,48,32,1.0,0.0
5086,79.0,48,32,1.0,0.0
5087,74.0,48,32,1.0,0.0
5088,76.0,48,32,1.0,0.0
5089,78.0,62,32,1.0,0.0
5090,79.0,48,46,1.0,0.0
5091,81.0,48,46,1.0,0.0
5092,82.0,48,46,1.0,0.0
5093,81.0,48,46,1.0,0.0
5094,79.0,48,46,1.0,0.0
5095,74.0,48,46,1.0,0.0
5096,76.0,48,46,1.0,0.0
5097,78.0,48,46,1.0,0.0
5098,79.0,48,46,1.0,0.0
5099,81.0,48,46,1.0,0.0
5100,82.0,48,46,1.0,0.0
5101,81.0,48,46,1.0,0.0
5102,79.0,48,46,1.0,0.0
5103,74.0,48,46,1.0,0.0
5104,76.0,48,46,1.0,0.0
5105,78.0,48,46,1.0,0.0
5106,79.0,48,46,1.0,0.0
5107,81.0,48,46,1.0,0.0
5108,82.0,48,46,1.0,0.0
5109,81.0,48,46,1.0,0.0
5110,79.0,48,46,1.0,0.0
5111,62.0,0,46,2.0,0.0
5112,74.0,48,46,1.0,0.0
5113,50.0,0,46,3.0,0.0
5114,76.0,48,46,1.0,0.0
5115,64.0,0,46,2.0,0.0
5116,52.0,0,46,3.0,0.0
5117,54.0,0,46,3.0,0.0
5118,78.0,0,46,1.0,0.0
5119,66.0,48,46,2.0,0.0
5120,55.0,48,46,3.0,0.0
5121,79.0,0,46,1.0,0.0
5122,67.0,0,46,2.0,0.0
5123,69.0,48,46,2.0,0.0
5124,81.0,0,46,1.0,0.0
5125,57.0,0,46,3.0,0.0
5126,82.0,48,46,1.0,0.0
5127,70.0,0,46,2.0,0.0
5128,58.0,0,46,3.0,0.0
5129,60.0,0,46,3.0,0.0
5130,72.0,0,46,2.0,0.0
5131,84.0,48,46,1.0,0.0
5132,74.0,0,46,2.0,0.0
5133,62.0,48,46,3.0,0.0
5134,86.0,0,46,1.0,0.0
5135,72.0,0,46,2.0,0.0
5136,60.0,48,46,3.0,0.0
5137,84.0,0,46,1.0,0.0
5138,58.0,48,46,3.0,0.0
5139,70.0,0,46,2.0,0.0
5140,82.0,0,46,1.0,0.0
5141,81.0,0,46,1.0,0.0
5142,57.0,48,46,3.0,0.0
5143,69.0,0,46,2.0,0.0
5144,55.0,0,46,3.0,0.0
5145,67.0,48,46,2.0,0.0
5146,79.0,0,46,1.0,0.0
5147,77.0,0,46,1.0,0.0
5148,53.0,0,46,3.0,0.0
5149,65.0,48,46,2.0,0.0
5150,76.0,0,46,1.0,0.0
5151,64.0,48,46,2.0,0.0
5152,52.0,0,46,3.0,0.0
5153,62.0,0,46,2.0,0.0
5154,50.0,0,46,3.0,0.0
5155,74.0,258,46,1.0,0.0
5156,60.0,0,256,2.0,0.0
5157,48.0,80,256,3.0,0.0
5158,72.0,0,528,1.0,0.0
5159,50.0,48,48,3.0,0.0
5160,62.0,0,48,2.0,0.0
5161,64.0,0,48,2.0,0.0
5162,52.0,48,48,3.0,0.0
5163,65.0,48,48,2.0,0.0
5164,53.0,0,48,3.0,0.0
5165,55.0,48,48,3.0,0.0
5166,67.0,0,48,2.0,0.0
5167,69.0,0,48,2.0,0.0
5168,57.0,46,48,3.0,0.0
5169,59.0,0,46,3.0,0.0
5170,71.0,34,46,2.0,0.0
5171,60.0,0,94,3.0,0.0
5172,72.0,2,94,2.0,0.0
5173,81.0,32,32,1.0,0.0
5174,79.0,30,32,1.0,0.0
5175,81.0,32,32,1.0,0.0
5176,64.0,0,94,2.0,0.0
5177,79.0,32,32,1.0,0.0
5178,48.0,2,94,4.0,0.0
5179,58.0,0,94,3.0,0.0
5180,81.0,30,32,1.0,0.0
5181,79.0,32,32,1.0,0.0
5182,64.0,0,94,2.0,0.0
5183,58.0,2,94,3.0,0.0
5184,48.0,0,94,4.0,0.0
5185,81.0,32,32,1.0,0.0
5186,79.0,30,32,1.0,0.0
5187,81.0,32,32,1.0,0.0
5188,48.0,0,94,4.0,0.0
5189,64.0,2,94,2.0,0.0
5190,58.0,0,94,3.0,0.0
5191,79.0,32,32,1.0,0.0
5192,81.0,30,32,1.0,0.0
5193,79.0,32,32,1.0,0.0
5194,58.0,0,94,3.0,0.0
5195,64.0,2,94,2.0,0.0
5196,48.0,0,94,4.0,0.0
5197,81.0,32,32,1.0,0.0
5198,79.0,30,32,1.0,0.0
5199,81.0,32,32,1.0,0.0
5200,58.0,50,94,3.0,0.0
5201,64.0,0,94,2.0,0.0
5202,79.0,32,32,1.0,0.0
5203,48.0,0,94,4.0,0.0
5204,81.0,30,32,1.0,0.0
5205,79.0,0,30,1.0,0.0
5206,77.0,0,48,1.0,0.0
5207,57.0,0,48,3.0,0.0
5208,53.0,0,48,4.0,0.0
5209,65.0,400,48,2.0,0.0
5210,65.0,0,288,1.0,0.0
5211,57.0,94,288,3.0,0.0
5212,60.0,32,256,2.0,0.0
5213,64.0,0,94,1.0,0.0
5214,60.0,0,94,2.0,0.0
5215,55.0,98,94,3.0,0.0
5216,60.0,0,96,2.0,0.0
5217,64.0,94,96,1.0,0.0
5218,55.0,0,96,3.0,0.0
5219,52.0,98,94,3.0,0.0
5220,70.0,0,94,1.0,0.0
5221,67.0,0,94,2.0,0.0
5222,52.0,94,96,3.0,0.0
5223,70.0,0,96,1.0,0.0
5224,67.0,0,96,2.0,0.0
5225,65.0,96,94,2.0,0.0
5226,69.0,0,94,1.0,0.0
5227,53.0,0,94,3.0,0.0
5228,65.0,2,94,2.0,0.0
5229,53.0,0,96,3.0,0.0
5230,69.0,94,96,1.0,0.0
5231,58.0,0,94,3.0,0.0
5232,74.0,96,94,1.0,0.0
5233,65.0,0,94,2.0,0.0
5234,65.0,2,94,2.0,0.0
5235,74.0,94,96,1.0,0.0
5236,58.0,0,96,3.0,0.0
5237,65.0,0,94,2.0,0.0
5238,57.0,98,94,3.0,0.0
5239,72.0,0,94,1.0,0.0
5240,72.0,0,96,1.0,0.0
5241,65.0,94,96,2.0,0.0
5242,57.0,0,96,3.0,0.0
5243,77.0,98,94,1.0,0.0
5244,69.0,0,94,3.0,0.0
5245,72.0,0,94,2.0,0.0
5246,72.0,0,96,2.0,0.0
5247,69.0,0,96,3.0,0.0
5248,77.0,94,96,1.0,0.0
5249,67.0,98,94,3.0,0.0
5250,70.0,0,94,2.0,0.0
5251,76.0,0,94,1.0,0.0
5252,76.0,0,96,1.0,0.0
5253,70.0,0,96,2.0,0.0
5254,67.0,94,96,3.0,0.0
5255,82.0,0,94,1.0,0.0
5256,67.0,162,94,2.0,0.0
5257,64.0,0,94,3.0,0.0
5258,82.0,0,160,1.0,0.0
5259,67.0,0,160,2.0,0.0
5260,64.0,1088,160,3.0,0.0
5261,65.0,0,528,2.0,0.0
5262,69.0,48,288,1.0,0.0
5263,53.0,0,528,4.0,0.0
5264,60.0,784,528,3.0,0.0
5265,70.0,46,48,1.0,0.0
5266,69.0,34,46,1.0,0.0
5267,67.0,96,32,1.0,0.0
5268,69.0,16,32,1.0,0.0
5269,65.0,32,736,2.0,0.0
5270,55.0,0,768,3.0,0.0
5271,47.0,0,768,4.0,0.0
5272,74.0,48,768,1.0,0.0
5273,72.0,112,48,1.0,0.0
5274,65.0,0,48,2.0,0.0
5275,57.0,0,48,3.0,0.0
5276,48.0,80,160,4.0,0.0
5277,55.0,0,48,3.0,0.0
5278,58.0,0,48,2.0,0.0
5279,64.0,192,48,1.0,0.0
5280,36.0,0,48,4.0,0.0
5281,65.0,0,48,1.0,0.0
5282,53.0,0,48,3.0,0.0
5283,57.0,0,48,2.0,0.0
5284,41.0,432,48,4.0,0.0
5285,72.0,94,288,2.0,0.0
5286,69.0,0,288,3.0,0.0
5287,77.0,0,288,1.0,0.0
5288,70.0,0,94,2.0,0.0
5289,76.0,98,94,1.0,0.0
5290,67.0,0,94,3.0,0.0
5291,67.0,0,96,3.0,0.0
5292,76.0,0,96,1.0,0.0
5293,70.0,94,96,2.0,0.0
5294,82.0,98,94,1.0,0.0
5295,67.0,0,94,2.0,0.0
5296,64.0,0,94,3.0,0.0
5297,67.0,0,96,2.0,0.0
5298,82.0,94,96,1.0,0.0
5299,64.0,0,96,3.0,0.0
5300,65.0,0,94,3.0,0.0
5301,69.0,0,94,2.0,0.0
5302,81.0,98,94,1.0,0.0
5303,81.0,94,96,1.0,0.0
5304,65.0,0,96,3.0,0.0
5305,69.0,0,96,2.0,0.0
5306,70.0,0,94,3.0,0.0
5307,86.0,0,94,1.0,0.0
5308,77.0,96,94,2.0,0.0
5309,70.0,0,96,3.0,0.0
5310,77.0,2,94,2.0,0.0
5311,86.0,94,96,1.0,0.0
5312,84.0,0,94,1.0,0.0
5313,69.0,98,94,3.0,0.0
5314,77.0,0,94,2.0,0.0
5315,57.0,94,96,3.0,0.0
5316,84.0,0,96,1.0,0.0
5317,77.0,0,96,2.0,0.0
5318,89.0,0,94,1.0,0.0
5319,72.0,98,94,2.0,0.0
5320,69.0,0,94,3.0,0.0
5321,69.0,94,96,3.0,0.0
5322,89.0,0,96,1.0,0.0
5323,72.0,0,96,2.0,0.0
5324,70.0,0,94,2.0,0.0
5325,88.0,0,94,1.0,0.0
5326,67.0,98,94,3.0,0.0
5327,67.0,0,96,3.0,0.0
5328,88.0,0,96,1.0,0.0
5329,70.0,94,96,2.0,0.0
5330,94.0,0,94,1.0,0.0
5331,65.0,0,94,3.0,0.0
5332,79.0,162,94,2.0,0.0
5333,64.0,0,160,3.0,0.0
5334,94.0,1328,160,1.0,0.0
5335,79.0,0,160,2.0,0.0
5336,56.0,576,528,1.0,0.0
5337,68.0,0,528,1.0,0.0
5338,65.0,0,528,3.0,0.0
5339,60.0,0,528,2.0,0.0
5340,53.0,0,528,4.0,0.0
5341,65.0,0,528,2.0,0.0
5342,61.0,384,528,3.0,0.0
5343,49.0,0,528,4.0,0.0
5344,56.0,0,528,1.0,0.0
5345,68.0,0,528,1.0,0.0
5346,56.0,0,336,1.0,0.0
5347,47.0,0,336,4.0,0.0
5348,65.0,0,336,2.0,0.0
5349,62.0,0,336,2.0,0.0
5350,68.0,208,336,1.0,0.0
5351,59.0,0,336,3.0,0.0
5352,65.0,0,160,2.0,0.0
5353,58.0,80,160,3.0,0.0
5354,46.0,0,160,4.0,0.0
5355,56.0,0,160,1.0,0.0
5356,68.0,0,160,1.0,0.0
5357,62.0,0,160,2.0,0.0
5358,62.0,192,48,2.0,0.0
5359,65.0,0,48,2.0,0.0
5360,45.0,0,48,4.0,0.0
5361,57.0,0,48,3.0,0.0
5362,57.0,0,48,1.0,0.0
5363,69.0,0,48,1.0,0.0
5364,70.0,0,48,1.0,0.0
5365,43.0,0,48,4.0,0.0
5366,62.0,0,48,3.0,0.0
5367,67.0,192,48,2.0,0.0
5368,48.0,192,48,4.0,0.0
5369,67.0,0,48,1.0,0.0
5370,64.0,0,48,2.0,0.0
5371,58.0,0,48,3.0,0.0
5372,65.0,46,48,1.0,0.0
5373,53.0,48,288,4.0,0.0
5374,57.0,96,94,3.0,0.0
5375,60.0,96,94,3.0,0.0
5376,65.0,0,94,2.0,0.0
5377,57.0,0,94,2.0,0.0
5378,60.0,0,94,3.0,0.0
5379,57.0,2,94,2.0,0.0
5380,65.0,0,94,2.0,0.0
5381,55.0,46,48,4.0,0.0
5382,60.0,34,94,3.0,0.0
5383,57.0,0,94,2.0,0.0
5384,65.0,0,94,2.0,0.0
5385,53.0,0,46,4.0,0.0
5386,52.0,62,32,4.0,0.0
5387,65.0,0,94,2.0,0.0
5388,57.0,34,94,2.0,0.0
5389,60.0,0,94,3.0,0.0
5390,65.0,96,94,2.0,0.0
5391,53.0,62,32,4.0,0.0
5392,57.0,0,94,2.0,0.0
5393,60.0,0,94,3.0,0.0
5394,60.0,0,94,3.0,0.0
5395,41.0,30,160,4.0,0.0
5396,65.0,66,94,2.0,0.0
5397,57.0,0,94,2.0,0.0
5398,65.0,0,94,2.0,0.0
5399,57.0,0,94,2.0,0.0
5400,60.0,96,94,3.0,0.0
5401,57.0,66,94,2.0,0.0
5402,69.0,30,160,1.0,0.0
5403,60.0,0,94,3.0,0.0
5404,65.0,0,94,2.0,0.0
5405,60.0,0,94,3.0,0.0
5406,65.0,34,94,2.0,0.0
5407,57.0,0,94,2.0,0.0
5408,65.0,0,94,2.0,0.0
5409,60.0,2,94,3.0,0.0
5410,57.0,0,94,2.0,0.0
5411,70.0,32,32,1.0,0.0
5412,69.0,30,32,1.0,0.0
5413,70.0,32,32,1.0,0.0
5414,65.0,0,94,2.0,0.0
5415,57.0,96,94,2.0,0.0
5416,69.0,32,32,1.0,0.0
5417,60.0,0,94,3.0,0.0
5418,67.0,30,32,1.0,0.0
5419,69.0,0,30,1.0,0.0
5420,60.0,96,94,3.0,0.0
5421,53.0,48,288,4.0,0.0
5422,58.0,0,94,2.0,0.0
5423,67.0,0,94,2.0,0.0
5424,72.0,94,192,1.0,0.0
5425,67.0,0,94,2.0,0.0
5426,60.0,2,94,3.0,0.0
5427,58.0,0,94,2.0,0.0
5428,58.0,0,94,2.0,0.0
5429,67.0,0,94,2.0,0.0
5430,70.0,30,160,1.0,0.0
5431,60.0,2,94,3.0,0.0
5432,55.0,16,48,4.0,0.0
5433,67.0,0,94,2.0,0.0
5434,58.0,0,94,2.0,0.0
5435,60.0,0,94,3.0,0.0
5436,53.0,34,46,4.0,0.0
5437,52.0,62,32,4.0,0.0
5438,67.0,0,94,2.0,0.0
5439,58.0,0,94,2.0,0.0
5440,60.0,34,94,3.0,0.0
5441,58.0,96,94,2.0,0.0
5442,60.0,0,94,3.0,0.0
5443,53.0,62,32,4.0,0.0
5444,67.0,0,94,2.0,0.0
5445,41.0,30,160,4.0,0.0
5446,60.0,66,94,3.0,0.0
5447,67.0,0,94,2.0,0.0
5448,58.0,0,94,2.0,0.0
5449,67.0,96,94,2.0,0.0
5450,58.0,0,94,2.0,0.0
5451,60.0,0,94,3.0,0.0
5452,76.0,30,160,1.0,0.0
5453,58.0,66,94,2.0,0.0
5454,60.0,0,94,3.0,0.0
5455,67.0,0,94,2.0,0.0
5456,60.0,0,94,3.0,0.0
5457,58.0,34,94,2.0,0.0
5458,67.0,0,94,2.0,0.0
5459,60.0,0,94,3.0,0.0
5460,77.0,32,32,1.0,0.0
5461,58.0,2,94,2.0,0.0
5462,67.0,0,94,2.0,0.0
5463,76.0,30,32,1.0,0.0
5464,77.0,32,32,1.0,0.0
5465,67.0,50,94,2.0,0.0
5466,60.0,0,94,3.0,0.0
5467,76.0,32,32,1.0,0.0
5468,58.0,0,94,2.0,0.0
5469,74.0,30,32,1.0,0.0
5470,76.0,0,30,1.0,0.0
5471,77.0,0,96,1.0,0.0
5472,60.0,0,94,3.0,0.0
5473,55.0,46,48,4.0,0.0
5474,65.0,0,94,2.0,0.0
5475,57.0,2,94,2.0,0.0
5476,53.0,48,48,4.0,0.0
5477,81.0,0,94,1.0,0.0
5478,69.0,0,94,2.0,0.0
5479,65.0,0,94,2.0,0.0
5480,52.0,46,48,4.0,0.0
5481,60.0,0,94,3.0,0.0
5482,53.0,50,46,4.0,0.0
5483,60.0,2,94,3.0,0.0
5484,55.0,46,48,4.0,0.0
5485,65.0,0,94,2.0,0.0
5486,72.0,30,160,1.0,0.0
5487,69.0,0,94,2.0,0.0
5488,53.0,48,48,4.0,0.0
5489,52.0,16,48,4.0,0.0
5490,69.0,50,94,2.0,0.0
5491,60.0,0,94,3.0,0.0
5492,65.0,0,94,2.0,0.0
5493,53.0,0,46,4.0,0.0
5494,65.0,0,94,2.0,0.0
5495,69.0,2,94,2.0,0.0
5496,60.0,0,94,3.0,0.0
5497,55.0,46,48,4.0,0.0
5498,53.0,48,48,4.0,0.0
5499,69.0,0,94,2.0,0.0
5500,52.0,46,48,4.0,0.0
5501,65.0,0,94,2.0,0.0
5502,60.0,0,94,3.0,0.0
5503,53.0,50,46,4.0,0.0
5504,82.0,46,48,1.0,0.0
5505,69.0,0,94,2.0,0.0
5506,41.0,30,160,4.0,0.0
5507,65.0,2,94,2.0,0.0
5508,60.0,0,94,3.0,0.0
5509,81.0,48,48,1.0,0.0
5510,69.0,50,94,2.0,0.0
5511,79.0,16,48,1.0,0.0
5512,65.0,0,94,2.0,0.0
5513,60.0,0,94,3.0,0.0
5514,81.0,0,46,1.0,0.0
5515,69.0,0,94,2.0,0.0
5516,82.0,46,48,1.0,0.0
5517,65.0,2,94,2.0,0.0
5518,60.0,0,94,3.0,0.0
5519,81.0,48,48,1.0,0.0
5520,79.0,46,48,1.0,0.0
5521,69.0,0,94,2.0,0.0
5522,65.0,0,94,2.0,0.0
5523,60.0,0,94,3.0,0.0
5524,81.0,50,46,1.0,0.0
5525,65.0,0,94,2.0,0.0
5526,60.0,0,94,3.0,0.0
5527,82.0,46,48,1.0,0.0
5528,69.0,2,94,2.0,0.0
5529,81.0,48,48,1.0,0.0
5530,79.0,46,48,1.0,0.0
5531,60.0,0,94,3.0,0.0
5532,69.0,50,94,2.0,0.0
5533,65.0,0,94,2.0,0.0
5534,81.0,0,46,1.0,0.0
5535,70.0,0,94,2.0,0.0
5536,60.0,0,94,3.0,0.0
5537,55.0,46,48,4.0,0.0
5538,67.0,2,94,2.0,0.0
5539,84.0,48,192,1.0,0.0
5540,53.0,48,48,4.0,0.0
5541,52.0,46,48,4.0,0.0
5542,60.0,0,94,3.0,0.0
5543,70.0,2,94,2.0,0.0
5544,67.0,0,94,2.0,0.0
5545,53.0,0,46,4.0,0.0
5546,55.0,46,48,4.0,0.0
5547,82.0,30,160,1.0,0.0
5548,60.0,0,94,3.0,0.0
5549,70.0,0,94,2.0,0.0
5550,67.0,2,94,2.0,0.0
5551,53.0,48,48,4.0,0.0
5552,60.0,0,94,3.0,0.0
5553,70.0,50,94,2.0,0.0
5554,67.0,0,94,2.0,0.0
5555,52.0,16,48,4.0,0.0
5556,53.0,0,46,4.0,0.0
5557,70.0,0,94,2.0,0.0
5558,60.0,2,94,3.0,0.0
5559,55.0,46,48,4.0,0.0
5560,67.0,0,94,2.0,0.0
5561,53.0,48,48,4.0,0.0
5562,60.0,0,94,3.0,0.0
5563,70.0,0,94,2.0,0.0
5564,67.0,0,94,2.0,0.0
5565,52.0,46,48,4.0,0.0
5566,53.0,50,46,4.0,0.0
5567,41.0,30,160,4.0,0.0
5568,67.0,0,94,2.0,0.0
5569,60.0,0,94,3.0,0.0
5570,89.0,46,48,1.0,0.0
5571,70.0,2,94,2.0,0.0
5572,88.0,48,48,1.0,0.0
5573,86.0,16,48,1.0,0.0
5574,67.0,0,94,2.0,0.0
5575,70.0,0,94,2.0,0.0
5576,60.0,0,94,3.0,0.0
5577,88.0,50,46,1.0,0.0
5578,60.0,0,94,3.0,0.0
5579,89.0,46,48,1.0,0.0
5580,67.0,0,94,2.0,0.0
5581,70.0,2,94,2.0,0.0
5582,88.0,48,48,1.0,0.0
5583,86.0,46,48,1.0,0.0
5584,70.0,50,94,2.0,0.0
5585,60.0,0,94,3.0,0.0
5586,67.0,0,94,2.0,0.0
5587,88.0,0,46,1.0,0.0
5588,67.0,0,94,2.0,0.0
5589,89.0,46,48,1.0,0.0
5590,60.0,0,94,3.0,0.0
5591,70.0,2,94,2.0,0.0
5592,88.0,48,48,1.0,0.0
5593,60.0,0,94,3.0,0.0
5594,86.0,46,48,1.0,0.0
5595,67.0,34,94,2.0,0.0
5596,70.0,0,94,2.0,0.0
5597,88.0,0,46,1.0,0.0
5598,65.0,0,48,2.0,0.0
5599,41.0,0,48,4.0,0.0
5600,89.0,16,32,1.0,0.0
5601,60.0,0,48,3.0,0.0
5602,69.0,80,48,2.0,0.0
5603,88.0,48,32,1.0,0.0
5604,86.0,48,32,1.0,0.0
5605,84.0,16,32,1.0,0.0
5606,65.0,32,48,2.0,0.0
5607,69.0,0,48,2.0,0.0
5608,60.0,0,48,3.0,0.0
5609,53.0,0,48,4.0,0.0
5610,82.0,48,32,1.0,0.0
5611,81.0,48,32,1.0,0.0
5612,79.0,48,32,1.0,0.0
5613,77.0,48,32,1.0,0.0
5614,84.0,48,32,1.0,0.0
5615,82.0,48,32,1.0,0.0
5616,81.0,62,32,1.0,0.0
5617,79.0,48,46,1.0,0.0
5618,77.0,48,46,1.0,0.0
5619,76.0,48,46,1.0,0.0
5620,74.0,48,46,1.0,0.0
5621,72.0,48,46,1.0,0.0
5622,81.0,48,46,1.0,0.0
5623,79.0,48,46,1.0,0.0
5624,77.0,48,46,1.0,0.0
5625,76.0,48,46,1.0,0.0
5626,74.0,48,46,1.0,0.0
5627,72.0,48,46,1.0,0.0
5628,70.0,48,46,1.0,0.0
5629,69.0,48,46,1.0,0.0
5630,65.0,0,46,3.0,0.0
5631,53.0,48,46,4.0,0.0
5632,77.0,0,46,1.0,0.0
5633,52.0,0,46,4.0,0.0
5634,64.0,0,46,3.0,0.0
5635,76.0,48,46,1.0,0.0
5636,50.0,0,46,4.0,0.0
5637,62.0,0,46,3.0,0.0
5638,74.0,48,46,1.0,0.0
5639,72.0,0,46,1.0,0.0
5640,48.0,0,46,4.0,0.0
5641,60.0,48,46,3.0,0.0
5642,70.0,0,46,1.0,0.0
5643,46.0,48,46,4.0,0.0
5644,58.0,0,46,3.0,0.0
5645,45.0,48,46,4.0,0.0
5646,69.0,0,46,1.0,0.0
5647,57.0,0,46,3.0,0.0
5648,55.0,48,46,3.0,0.0
5649,43.0,0,46,4.0,0.0
5650,67.0,0,46,1.0,0.0
5651,41.0,0,46,4.0,0.0
5652,65.0,0,46,1.0,0.0
5653,53.0,48,46,3.0,0.0
5654,53.0,48,46,4.0,0.0
5655,65.0,0,46,3.0,0.0
5656,77.0,0,46,1.0,0.0
5657,76.0,0,46,1.0,0.0
5658,52.0,0,46,4.0,0.0
5659,64.0,48,46,3.0,0.0
5660,74.0,0,46,1.0,0.0
5661,62.0,48,46,3.0,0.0
5662,50.0,0,46,4.0,0.0
5663,48.0,0,46,4.0,0.0
5664,60.0,0,46,3.0,0.0
5665,72.0,48,46,1.0,0.0
5666,58.0,0,46,3.0,0.0
5667,46.0,48,46,4.0,0.0
5668,70.0,0,46,1.0,0.0
5669,45.0,48,46,4.0,0.0
5670,69.0,0,46,1.0,0.0
5671,57.0,0,46,3.0,0.0
5672,43.0,0,46,4.0,0.0
5673,67.0,0,46,1.0,0.0
5674,55.0,50,46,3.0,0.0
5675,65.0,0,48,1.0,0.0
5676,41.0,0,48,4.0,0.0
5677,53.0,48,48,3.0,0.0
5678,40.0,48,48,4.0,0.0
5679,64.0,0,48,1.0,0.0
5680,52.0,0,48,3.0,0.0
5681,65.0,0,48,1.0,0.0
5682,53.0,48,48,3.0,0.0
5683,41.0,0,48,4.0,0.0
5684,40.0,0,48,4.0,0.0
5685,52.0,0,48,3.0,0.0
5686,64.0,48,48,1.0,0.0
5687,41.0,0,48,4.0,0.0
5688,53.0,0,48,3.0,0.0
5689,65.0,48,48,1.0,0.0
5690,64.0,0,48,1.0,0.0
5691,52.0,48,48,3.0,0.0
5692,40.0,0,48,4.0,0.0
5693,65.0,46,48,1.0,0.0
5694,53.0,0,48,3.0,0.0
5695,41.0,0,48,4.0,0.0
5696,52.0,50,46,3.0,0.0
5697,40.0,0,46,4.0,0.0
5698,64.0,0,46,1.0,0.0
5699,41.0,192,48,4.0,0.0
5700,65.0,0,48,1.0,0.0
5701,53.0,0,48,3.0,0.0
5702,55.0,0,48,3.0,0.0
5703,67.0,192,48,1.0,0.0
5704,43.0,0,48,4.0,0.0
5705,45.0,192,48,4.0,0.0
5706,69.0,0,48,1.0,0.0
5707,57.0,0,48,3.0,0.0
5708,58.0,0,48,2.0,0.0
5709,46.0,192,48,4.0,0.0
5710,70.0,0,48,1.0,0.0
5711,60.0,0,48,2.0,0.0
5712,72.0,192,48,1.0,0.0
5713,48.0,0,48,4.0,0.0
5714,62.0,1824,48,2.0,0.0
5715,74.0,0,48,1.0,0.0
5716,50.0,0,48,4.0,0.0
5717,51.0,96,1680,4.0,0.0
5718,75.0,0,1680,1.0,0.0
5719,63.0,0,1680,2.0,0.0
5720,38.0,192,48,4.0,0.0
5721,62.0,0,48,1.0,0.0
5722,50.0,0,48,3.0,0.0
5723,40.0,0,48,4.0,0.0
5724,52.0,0,48,3.0,0.0
5725,64.0,192,48,1.0,0.0
5726,54.0,0,48,3.0,0.0
5727,66.0,0,48,1.0,0.0
5728,42.0,192,48,4.0,0.0
5729,43.0,0,48,4.0,0.0
5730,55.0,0,48,2.0,0.0
5731,67.0,192,48,1.0,0.0
5732,57.0,192,48,2.0,0.0
5733,45.0,0,48,4.0,0.0
5734,69.0,0,48,1.0,0.0
5735,46.0,0,48,4.0,0.0
5736,58.0,1824,48,2.0,0.0
5737,70.0,0,48,1.0,0.0
5738,60.0,0,1680,2.0,0.0
5739,72.0,0,1680,1.0,0.0
5740,48.0,80,1680,4.0,0.0
5741,55.0,96,48,2.0,0.0
5742,77.0,16,32,1.0,0.0
5743,79.0,46,48,1.0,0.0
5744,77.0,34,46,1.0,0.0
5745,57.0,96,48,2.0,0.0
5746,76.0,16,32,1.0,0.0
5747,77.0,46,48,1.0,0.0
5748,76.0,34,46,1.0,0.0
5749,74.0,16,32,1.0,0.0
5750,59.0,96,48,2.0,0.0
5751,76.0,46,48,1.0,0.0
5752,74.0,34,46,1.0,0.0
5753,72.0,16,32,1.0,0.0
5754,60.0,96,48,2.0,0.0
5755,74.0,46,48,1.0,0.0
5756,72.0,34,46,1.0,0.0
5757,62.0,96,48,2.0,0.0
5758,71.0,16,32,1.0,0.0
5759,72.0,46,48,1.0,0.0
5760,71.0,34,46,1.0,0.0
5761,69.0,16,32,1.0,0.0
5762,64.0,96,48,2.0,0.0
5763,71.0,46,48,1.0,0.0
5764,69.0,194,46,1.0,0.0
5765,65.0,96,192,2.0,0.0
5766,67.0,48,288,1.0,0.0
5767,62.0,32,192,2.0,0.0
5768,69.0,46,48,1.0,0.0
5769,67.0,2,46,1.0,0.0
5770,59.0,224,160,2.0,0.0
5771,66.0,96,32,1.0,0.0
5772,67.0,32,32,1.0,0.0
5773,55.0,48,288,3.0,0.0
5774,86.0,0,192,1.0,0.0
5775,47.0,96,192,4.0,0.0
5776,83.0,32,192,1.0,0.0
5777,50.0,0,192,4.0,0.0
5778,57.0,46,48,3.0,0.0
5779,55.0,2,46,3.0,0.0
5780,54.0,96,32,3.0,0.0
5781,43.0,64,160,4.0,0.0
5782,77.0,0,160,1.0,0.0
5783,55.0,32,32,3.0,0.0
5784,48.0,0,160,4.0,0.0
5785,76.0,30,160,1.0,0.0
5786,70.0,112,32,2.0,0.0
5787,72.0,16,48,2.0,0.0
5788,70.0,34,46,2.0,0.0
5789,69.0,16,32,2.0,0.0
5790,50.0,96,48,3.0,0.0
5791,70.0,46,48,2.0,0.0
5792,69.0,34,46,2.0,0.0
5793,67.0,16,32,2.0,0.0
5794,52.0,96,48,3.0,0.0
5795,69.0,46,48,2.0,0.0
5796,67.0,34,46,2.0,0.0
5797,53.0,96,48,3.0,0.0
5798,65.0,16,32,2.0,0.0
5799,67.0,46,48,2.0,0.0
5800,65.0,34,46,2.0,0.0
5801,64.0,16,32,2.0,0.0
5802,55.0,96,48,3.0,0.0
5803,65.0,46,48,2.0,0.0
5804,64.0,34,46,2.0,0.0
5805,57.0,96,48,3.0,0.0
5806,62.0,16,32,2.0,0.0
5807,64.0,46,48,2.0,0.0
5808,62.0,194,46,2.0,0.0
5809,60.0,48,288,2.0,0.0
5810,58.0,96,192,3.0,0.0
5811,55.0,32,192,3.0,0.0
5812,62.0,46,48,2.0,0.0
5813,60.0,2,46,2.0,0.0
5814,52.0,192,160,3.0,0.0
5815,59.0,96,32,2.0,0.0
5816,60.0,32,32,2.0,0.0
5817,79.0,0,192,1.0,0.0
5818,70.0,32,160,2.0,0.0
5819,36.0,96,192,4.0,0.0
5820,48.0,48,288,3.0,0.0
5821,76.0,32,192,1.0,0.0
5822,40.0,0,192,4.0,0.0
5823,62.0,46,48,3.0,0.0
5824,60.0,2,46,3.0,0.0
5825,59.0,96,32,3.0,0.0
5826,70.0,192,160,1.0,0.0
5827,43.0,0,160,4.0,0.0
5828,60.0,32,32,3.0,0.0
5829,65.0,0,160,1.0,0.0
5830,48.0,128,160,4.0,0.0
5831,60.0,48,288,2.0,0.0
5832,69.0,0,160,1.0,0.0
5833,57.0,32,192,3.0,0.0
5834,62.0,46,48,2.0,0.0
5835,60.0,2,46,2.0,0.0
5836,59.0,96,32,2.0,0.0
5837,53.0,192,160,3.0,0.0
5838,60.0,32,32,2.0,0.0
5839,48.0,48,288,3.0,0.0
5840,36.0,96,192,4.0,0.0
5841,81.0,0,192,1.0,0.0
5842,69.0,32,160,2.0,0.0
5843,77.0,32,192,1.0,0.0
5844,41.0,0,192,4.0,0.0
5845,62.0,46,48,3.0,0.0
5846,60.0,2,46,3.0,0.0
5847,45.0,0,160,4.0,0.0
5848,59.0,96,32,3.0,0.0
5849,72.0,192,160,1.0,0.0
5850,60.0,32,32,3.0,0.0
5851,48.0,32,160,4.0,0.0
5852,67.0,96,192,3.0,0.0
5853,70.0,48,288,1.0,0.0
5854,64.0,32,192,3.0,0.0
5855,72.0,46,48,1.0,0.0
5856,70.0,2,46,1.0,0.0
5857,60.0,224,160,3.0,0.0
5858,69.0,96,32,1.0,0.0
5859,70.0,32,32,1.0,0.0
5860,76.0,0,192,3.0,0.0
5861,82.0,0,192,1.0,0.0
5862,79.0,0,192,2.0,0.0
5863,36.0,192,192,4.0,0.0
5864,48.0,0,192,4.0,0.0
5865,76.0,0,192,2.0,0.0
5866,70.0,160,192,3.0,0.0
5867,79.0,0,192,1.0,0.0
5868,70.0,0,160,2.0,0.0
5869,49.0,320,160,4.0,0.0
5870,76.0,0,160,1.0,0.0
5871,67.0,0,160,3.0,0.0
5872,77.0,48,288,1.0,0.0
5873,69.0,0,528,2.0,0.0
5874,65.0,0,528,3.0,0.0
5875,50.0,576,528,4.0,0.0
5876,79.0,46,48,1.0,0.0
5877,77.0,34,46,1.0,0.0
5878,76.0,96,32,1.0,0.0
5879,77.0,16,32,1.0,0.0
5880,73.0,0,528,2.0,0.0
5881,58.0,0,528,3.0,0.0
5882,52.0,0,528,4.0,0.0
5883,79.0,336,528,1.0,0.0
5884,63.0,576,528,3.0,0.0
5885,54.0,0,528,4.0,0.0
5886,81.0,48,288,1.0,0.0
5887,72.0,0,528,2.0,0.0
5888,82.0,46,48,1.0,0.0
5889,81.0,34,46,1.0,0.0
5890,79.0,96,32,1.0,0.0
5891,81.0,16,32,1.0,0.0
5892,62.0,0,528,3.0,0.0
5893,55.0,0,528,4.0,0.0
5894,70.0,0,528,2.0,0.0
5895,82.0,336,528,1.0,0.0
5896,66.0,0,528,3.0,0.0
5897,75.0,0,528,2.0,0.0
5898,57.0,576,528,4.0,0.0
5899,84.0,48,288,1.0,0.0
5900,86.0,46,48,1.0,0.0
5901,84.0,34,46,1.0,0.0
5902,82.0,96,32,1.0,0.0
5903,84.0,16,32,1.0,0.0
5904,86.0,288,528,1.0,0.0
5905,59.0,0,528,4.0,0.0
5906,65.0,0,528,3.0,0.0
5907,68.0,0,528,2.0,0.0
5908,69.0,48,288,2.0,0.0
5909,60.0,336,528,4.0,0.0
5910,65.0,0,288,3.0,0.0
5911,72.0,48,48,1.0,0.0
5912,67.0,0,48,3.0,0.0
5913,70.0,46,48,2.0,0.0
5914,69.0,34,46,2.0,0.0
5915,65.0,0,46,3.0,0.0
5916,72.0,80,48,1.0,0.0
5917,67.0,0,32,2.0,0.0
5918,64.0,16,32,3.0,0.0
5919,69.0,16,32,2.0,0.0
5920,65.0,0,32,3.0,0.0
5921,48.0,32,384,4.0,0.0
5922,72.0,48,288,1.0,0.0
5923,70.0,0,384,2.0,0.0
5924,67.0,0,384,3.0,0.0
5925,74.0,46,48,1.0,0.0
5926,72.0,2,46,1.0,0.0
5927,36.0,0,160,4.0,0.0
5928,71.0,96,32,1.0,0.0
5929,55.0,0,160,2.0,0.0
5930,52.0,192,160,3.0,0.0
5931,72.0,32,32,1.0,0.0
5932,53.0,0,160,3.0,0.0
5933,41.0,48,288,4.0,0.0
5934,57.0,0,160,2.0,0.0
5935,65.0,128,160,1.0,0.0
5936,57.0,30,160,2.0,0.0
5937,48.0,0,160,3.0,0.0
5938,43.0,16,48,4.0,0.0
5939,41.0,34,46,4.0,0.0
5940,40.0,96,32,4.0,0.0
5941,48.0,80,160,3.0,0.0
5942,57.0,0,160,2.0,0.0
5943,41.0,32,32,4.0,0.0
5944,58.0,0,528,2.0,0.0
5945,49.0,48,576,3.0,0.0
5946,41.0,46,528,4.0,0.0
5947,65.0,48,48,1.0,0.0
5948,64.0,48,48,1.0,0.0
5949,62.0,48,48,1.0,0.0
5950,64.0,48,48,1.0,0.0
5951,65.0,48,48,1.0,0.0
5952,64.0,48,48,1.0,0.0
5953,62.0,48,48,1.0,0.0
5954,64.0,48,48,1.0,0.0
5955,65.0,48,48,1.0,0.0
5956,64.0,48,48,1.0,0.0
5957,62.0,0,48,1.0,0.0
5958,64.0,2,46,1.0,0.0
5959,48.0,48,576,3.0,0.0
5960,57.0,0,48,2.0,0.0
5961,41.0,48,288,4.0,0.0
5962,65.0,192,48,1.0,0.0
5963,69.0,0,48,1.0,0.0
5964,65.0,48,48,2.0,0.0
5965,43.0,46,48,4.0,0.0
5966,41.0,34,46,4.0,0.0
5967,65.0,0,48,2.0,0.0
5968,69.0,80,48,1.0,0.0
5969,40.0,16,32,4.0,0.0
5970,41.0,64,32,4.0,0.0
5971,65.0,48,48,2.0,0.0
5972,70.0,160,576,1.0,0.0
5973,49.0,0,576,3.0,0.0
5974,41.0,0,736,4.0,0.0
5975,64.0,48,48,2.0,0.0
5976,62.0,48,48,2.0,0.0
5977,64.0,48,48,2.0,0.0
5978,65.0,48,48,2.0,0.0
5979,64.0,48,48,2.0,0.0
5980,62.0,48,48,2.0,0.0
5981,64.0,48,48,2.0,0.0
5982,65.0,48,48,2.0,0.0
5983,64.0,48,48,2.0,0.0
5984,62.0,46,48,2.0,0.0
5985,64.0,2,46,2.0,0.0
5986,69.0,80,160,1.0,0.0
5987,48.0,0,160,3.0,0.0
5988,65.0,0,160,2.0,0.0
5989,65.0,96,48,3.0,0.0
5990,70.0,0,48,2.0,0.0
5991,73.0,46,48,1.0,0.0
5992,69.0,0,46,2.0,0.0
5993,72.0,34,46,1.0,0.0
5994,70.0,0,32,1.0,0.0
5995,65.0,80,48,3.0,0.0
5996,67.0,16,32,2.0,0.0
5997,72.0,0,32,1.0,0.0
5998,69.0,112,32,2.0,0.0
5999,70.0,160,576,2.0,0.0
6000,65.0,48,48,3.0,0.0
6001,73.0,0,576,1.0,0.0
6002,64.0,48,48,3.0,0.0
6003,62.0,48,48,3.0,0.0
6004,64.0,48,48,3.0,0.0
6005,65.0,48,48,3.0,0.0
6006,64.0,48,48,3.0,0.0
6007,62.0,48,48,3.0,0.0
6008,64.0,48,48,3.0,0.0
6009,65.0,48,48,3.0,0.0
6010,64.0,48,48,3.0,0.0
6011,62.0,46,48,3.0,0.0
6012,64.0,2,46,3.0,0.0
6013,72.0,0,160,1.0,0.0
6014,69.0,32,160,2.0,0.0
6015,65.0,144,192,3.0,0.0
6016,72.0,30,160,3.0,0.0
6017,41.0,0,160,4.0,0.0
6018,82.0,16,48,1.0,0.0
6019,79.0,0,48,2.0,0.0
6020,81.0,34,46,1.0,0.0
6021,77.0,0,46,2.0,0.0
6022,41.0,80,160,4.0,0.0
6023,79.0,0,32,1.0,0.0
6024,72.0,80,48,3.0,0.0
6025,76.0,16,32,2.0,0.0
6026,81.0,0,32,1.0,0.0
6027,77.0,32,32,2.0,0.0
6028,82.0,0,528,1.0,0.0
6029,41.0,48,48,4.0,0.0
6030,73.0,0,528,3.0,0.0
6031,79.0,0,528,2.0,0.0
6032,40.0,48,48,4.0,0.0
6033,38.0,48,48,4.0,0.0
6034,40.0,48,48,4.0,0.0
6035,41.0,48,48,4.0,0.0
6036,40.0,48,48,4.0,0.0
6037,38.0,48,48,4.0,0.0
6038,40.0,48,48,4.0,0.0
6039,41.0,48,48,4.0,0.0
6040,40.0,48,48,4.0,0.0
6041,38.0,46,48,4.0,0.0
6042,40.0,98,46,4.0,0.0
6043,41.0,0,160,4.0,0.0
6044,72.0,0,160,3.0,0.0
6045,81.0,48,96,1.0,0.0
6046,77.0,30,160,2.0,0.0
6047,82.0,16,48,1.0,0.0
6048,81.0,34,46,1.0,0.0
6049,80.0,96,32,1.0,0.0
6050,81.0,96,32,1.0,0.0
6051,52.0,0,32,4.0,0.0
6052,64.0,0,32,3.0,0.0
6053,76.0,96,32,1.0,0.0
6054,77.0,160,32,1.0,0.0
6055,65.0,0,32,3.0,0.0
6056,53.0,0,32,4.0,0.0
6057,72.0,48,96,1.0,0.0
6058,60.0,30,160,3.0,0.0
6059,48.0,0,160,4.0,0.0
6060,74.0,16,48,1.0,0.0
6061,72.0,34,46,1.0,0.0
6062,71.0,96,32,1.0,0.0
6063,72.0,96,32,1.0,0.0
6064,44.0,0,32,4.0,0.0
6065,56.0,0,32,3.0,0.0
6066,68.0,96,32,1.0,0.0
6067,45.0,0,32,4.0,0.0
6068,57.0,0,32,3.0,0.0
6069,69.0,160,32,1.0,0.0
6070,53.0,0,160,3.0,0.0
6071,41.0,30,160,4.0,0.0
6072,65.0,48,96,1.0,0.0
6073,67.0,16,48,1.0,0.0
6074,65.0,34,46,1.0,0.0
6075,64.0,96,32,1.0,0.0
6076,65.0,96,32,1.0,0.0
6077,48.0,0,32,3.0,0.0
6078,60.0,0,32,1.0,0.0
6079,36.0,96,32,4.0,0.0
6080,40.0,0,32,4.0,0.0
6081,52.0,112,32,3.0,0.0
6082,64.0,0,32,1.0,0.0
6083,41.0,0,48,4.0,0.0
6084,53.0,0,48,3.0,0.0
6085,65.0,192,48,1.0,0.0
6086,41.0,0,48,4.0,0.0
6087,65.0,0,48,2.0,0.0
6088,53.0,0,48,3.0,0.0
6089,57.0,0,48,2.0,0.0
6090,69.0,1056,48,1.0,0.0
6091,77.0,0,48,1.0,0.0
6092,70.0,0,720,1.0,0.0
