tick,type,time,meta,track,tempo,key,numerator,denominator,clocks_per_click,notated_32nd_notes_per_beat,port,program,channel,control,value,note,velocity
0,track_name,0,1,0,,,,,,,,,,,,,
0,program_change,0,0,2,,,,,,,,0,2,,,,
0,control_change,0,0,2,,,,,,,,,2,7,127,,
0,control_change,0,0,2,,,,,,,,,2,10,64,,
0,note_on,0,0,2,,,,,,,,,2,,,60,45
0,midi_port,0,1,3,,,,,,,0,,,,,,
0,track_name,0,1,3,,,,,,,,,,,,,
0,program_change,0,0,3,,,,,,,,0,3,,,,
0,control_change,0,0,3,,,,,,,,,3,7,127,,
0,control_change,0,0,3,,,,,,,,,3,10,64,,
0,midi_port,0,1,4,,,,,,,0,,,,,,
0,track_name,0,1,2,,,,,,,,,,,,,
0,program_change,0,0,4,,,,,,,,0,4,,,,
0,control_change,0,0,4,,,,,,,,,4,7,127,,
0,control_change,0,0,4,,,,,,,,,4,10,64,,
0,control_change,0,0,1,,,,,,,,,1,10,64,,
0,track_name,0,1,4,,,,,,,,,,,,,
0,midi_port,0,1,2,,,,,,,0,,,,,,
0,text,0,1,0,,,,,,,,,,,,,
0,text,0,1,0,,,,,,,,,,,,,
0,copyright,0,1,0,,,,,,,,,,,,,
0,copyright,0,1,0,,,,,,,,,,,,,
0,set_tempo,0,1,0,230769,,,,,,,,,,,,
0,key_signature,0,1,0,,F,,,,,,,,,,,
0,time_signature,0,1,0,,,3,4,24,8,,,,,,,
0,control_change,0,0,1,,,,,,,,,1,7,127,,
0,midi_port,0,1,1,,,,,,,0,,,,,,
0,track_name,0,1,1,,,,,,,,,,,,,
0,program_change,0,0,1,,,,,,,,0,1,,,,
192,note_on,192,0,3,,,,,,,,,3,,,53,45
192,note_on,192,0,4,,,,,,,,,4,,,41,45
240,note_on,48,0,4,,,,,,,,,4,,,41,0
384,note_on,384,0,1,,,,,,,,,1,,,69,45
528,note_on,528,0,2,,,,,,,,,2,,,60,0
576,note_on,48,0,2,,,,,,,,,2,,,60,45
576,note_on,336,0,4,,,,,,,,,4,,,45,45
624,note_on,48,0,4,,,,,,,,,4,,,45,0
720,note_on,528,0,3,,,,,,,,,3,,,53,0
768,note_on,144,0,4,,,,,,,,,4,,,46,45
768,note_on,48,0,3,,,,,,,,,3,,,52,45
816,note_on,48,0,4,,,,,,,,,4,,,46,0
928,note_on,544,0,1,,,,,,,,,1,,,69,0
960,note_on,32,0,1,,,,,,,,,1,,,67,45
1104,note_on,528,0,2,,,,,,,,,2,,,60,0
1152,note_on,336,0,4,,,,,,,,,4,,,48,45
1152,note_on,48,0,2,,,,,,,,,2,,,60,45
1200,note_on,48,0,4,,,,,,,,,4,,,48,0
1296,note_on,528,0,3,,,,,,,,,3,,,52,0
1344,note_on,48,0,3,,,,,,,,,3,,,53,45
1344,note_on,144,0,4,,,,,,,,,4,,,50,45
1504,note_on,160,0,4,,,,,,,,,4,,,50,0
1504,note_on,544,0,1,,,,,,,,,1,,,67,0
1536,note_on,32,0,1,,,,,,,,,1,,,65,45
1680,note_on,528,0,2,,,,,,,,,2,,,60,0
1728,note_on,48,0,2,,,,,,,,,2,,,60,45
1728,note_on,224,0,4,,,,,,,,,4,,,48,45
1872,note_on,528,0,3,,,,,,,,,3,,,53,0
1888,note_on,160,0,4,,,,,,,,,4,,,48,0
1920,note_on,32,0,4,,,,,,,,,4,,,46,45
1920,note_on,48,0,3,,,,,,,,,3,,,52,45
2080,note_on,544,0,1,,,,,,,,,1,,,65,0
2080,note_on,160,0,4,,,,,,,,,4,,,46,0
2112,note_on,32,0,1,,,,,,,,,1,,,67,45
2256,note_on,528,0,2,,,,,,,,,2,,,60,0
2304,note_on,224,0,4,,,,,,,,,4,,,43,45
2304,note_on,48,0,2,,,,,,,,,2,,,60,45
2448,note_on,528,0,3,,,,,,,,,3,,,52,0
2464,note_on,160,0,4,,,,,,,,,4,,,43,0
2496,note_on,32,0,4,,,,,,,,,4,,,41,45
2496,note_on,48,0,3,,,,,,,,,3,,,53,45
2656,note_on,160,0,4,,,,,,,,,4,,,41,0
2656,note_on,544,0,1,,,,,,,,,1,,,67,0
2688,note_on,32,0,1,,,,,,,,,1,,,69,45
2832,note_on,528,0,2,,,,,,,,,2,,,60,0
2880,note_on,48,0,2,,,,,,,,,2,,,60,45
2880,note_on,224,0,4,,,,,,,,,4,,,45,45
3024,note_on,528,0,3,,,,,,,,,3,,,53,0
3040,note_on,160,0,4,,,,,,,,,4,,,45,0
3072,note_on,32,0,4,,,,,,,,,4,,,46,45
3072,note_on,48,0,3,,,,,,,,,3,,,52,45
3232,note_on,544,0,1,,,,,,,,,1,,,69,0
3232,note_on,160,0,4,,,,,,,,,4,,,46,0
3264,note_on,32,0,1,,,,,,,,,1,,,67,45
3408,note_on,528,0,2,,,,,,,,,2,,,60,0
3456,note_on,224,0,4,,,,,,,,,4,,,48,45
3456,note_on,48,0,2,,,,,,,,,2,,,60,45
3600,note_on,528,0,3,,,,,,,,,3,,,52,0
3616,note_on,160,0,4,,,,,,,,,4,,,48,0
3616,note_on,160,0,2,,,,,,,,,2,,,60,0
3648,note_on,32,0,4,,,,,,,,,4,,,50,45
3648,note_on,32,0,2,,,,,,,,,2,,,57,45
3648,note_on,48,0,3,,,,,,,,,3,,,53,45
3696,note_on,432,0,1,,,,,,,,,1,,,67,0
3696,note_on,48,0,3,,,,,,,,,3,,,53,0
3696,note_on,48,0,2,,,,,,,,,2,,,57,0
3696,note_on,48,0,4,,,,,,,,,4,,,50,0
3840,note_on,144,0,4,,,,,,,,,4,,,38,45
3840,note_on,144,0,1,,,,,,,,,1,,,65,45
3840,note_on,144,0,2,,,,,,,,,2,,,57,45
3840,note_on,144,0,3,,,,,,,,,3,,,53,45
3888,note_on,48,0,1,,,,,,,,,1,,,65,0
3888,note_on,48,0,2,,,,,,,,,2,,,57,0
3888,note_on,48,0,3,,,,,,,,,3,,,53,0
3888,note_on,48,0,4,,,,,,,,,4,,,38,0
4032,note_on,144,0,2,,,,,,,,,2,,,64,45
4032,note_on,144,0,4,,,,,,,,,4,,,36,45
4032,note_on,144,0,1,,,,,,,,,1,,,67,45
4032,note_on,144,0,3,,,,,,,,,3,,,52,45
4080,note_on,48,0,4,,,,,,,,,4,,,36,0
4080,note_on,48,0,2,,,,,,,,,2,,,64,0
4080,note_on,48,0,1,,,,,,,,,1,,,67,0
4080,note_on,48,0,3,,,,,,,,,3,,,52,0
4224,note_on,144,0,3,,,,,,,,,3,,,53,45
4224,note_on,144,0,2,,,,,,,,,2,,,57,45
4224,note_on,144,0,4,,,,,,,,,4,,,41,45
4224,note_on,144,0,1,,,,,,,,,1,,,65,45
4272,note_on,48,0,4,,,,,,,,,4,,,41,0
4272,note_on,48,0,3,,,,,,,,,3,,,53,0
4272,note_on,48,0,1,,,,,,,,,1,,,65,0
4272,note_on,48,0,2,,,,,,,,,2,,,57,0
4416,note_on,144,0,2,,,,,,,,,2,,,77,30
4416,note_on,144,0,3,,,,,,,,,3,,,69,30
4416,note_on,144,0,4,,,,,,,,,4,,,62,30
4464,note_on,48,0,2,,,,,,,,,2,,,77,0
4464,note_on,48,0,3,,,,,,,,,3,,,69,0
4464,note_on,48,0,4,,,,,,,,,4,,,62,0
4608,note_on,144,0,3,,,,,,,,,3,,,76,30
4608,note_on,144,0,4,,,,,,,,,4,,,60,30
4608,note_on,144,0,2,,,,,,,,,2,,,79,30
4608,note_on,336,0,1,,,,,,,,,1,,,84,30
4656,note_on,48,0,2,,,,,,,,,2,,,79,0
4656,note_on,48,0,4,,,,,,,,,4,,,60,0
4656,note_on,48,0,3,,,,,,,,,3,,,76,0
4800,note_on,144,0,2,,,,,,,,,2,,,77,30
4800,note_on,144,0,4,,,,,,,,,4,,,65,30
4800,note_on,144,0,3,,,,,,,,,3,,,69,30
4848,note_on,48,0,2,,,,,,,,,2,,,77,0
4848,note_on,48,0,3,,,,,,,,,3,,,69,0
4960,note_on,160,0,4,,,,,,,,,4,,,65,0
4992,note_on,144,0,2,,,,,,,,,2,,,81,30
4992,note_on,144,0,3,,,,,,,,,3,,,53,30
5040,note_on,48,0,3,,,,,,,,,3,,,53,0
5136,note_on,528,0,1,,,,,,,,,1,,,84,0
5184,note_on,144,0,3,,,,,,,,,3,,,65,30
5184,note_on,48,0,1,,,,,,,,,1,,,84,30
5184,note_on,224,0,4,,,,,,,,,4,,,57,30
5344,note_on,160,0,4,,,,,,,,,4,,,57,0
5376,note_on,32,0,4,,,,,,,,,4,,,58,30
5536,note_on,160,0,4,,,,,,,,,4,,,58,0
5536,note_on,544,0,2,,,,,,,,,2,,,81,0
5536,note_on,352,0,3,,,,,,,,,3,,,65,0
5568,note_on,32,0,2,,,,,,,,,2,,,79,30
5568,note_on,32,0,3,,,,,,,,,3,,,64,30
5712,note_on,528,0,1,,,,,,,,,1,,,84,0
5728,note_on,160,0,3,,,,,,,,,3,,,64,0
5760,note_on,224,0,4,,,,,,,,,4,,,60,30
5760,note_on,48,0,1,,,,,,,,,1,,,84,30
5760,note_on,32,0,3,,,,,,,,,3,,,70,30
5920,note_on,160,0,4,,,,,,,,,4,,,60,0
5952,note_on,32,0,4,,,,,,,,,4,,,62,30
5952,note_on,192,0,3,,,,,,,,,3,,,70,0
5952,note_on,0,0,3,,,,,,,,,3,,,69,30
6112,note_on,160,0,4,,,,,,,,,4,,,62,0
6112,note_on,544,0,2,,,,,,,,,2,,,79,0
6112,note_on,160,0,3,,,,,,,,,3,,,69,0
6144,note_on,32,0,3,,,,,,,,,3,,,57,30
6144,note_on,32,0,2,,,,,,,,,2,,,77,30
6288,note_on,528,0,1,,,,,,,,,1,,,84,0
6304,note_on,160,0,3,,,,,,,,,3,,,57,0
6336,note_on,32,0,3,,,,,,,,,3,,,69,30
6336,note_on,48,0,1,,,,,,,,,1,,,84,30
6336,note_on,224,0,4,,,,,,,,,4,,,60,30
6496,note_on,160,0,3,,,,,,,,,3,,,69,0
6496,note_on,160,0,4,,,,,,,,,4,,,60,0
6528,note_on,32,0,4,,,,,,,,,4,,,58,30
6528,note_on,32,0,3,,,,,,,,,3,,,62,30
6688,note_on,160,0,4,,,,,,,,,4,,,58,0
6688,note_on,160,0,3,,,,,,,,,3,,,62,0
6688,note_on,544,0,2,,,,,,,,,2,,,77,0
6720,note_on,32,0,3,,,,,,,,,3,,,70,30
6720,note_on,32,0,2,,,,,,,,,2,,,79,30
6864,note_on,528,0,1,,,,,,,,,1,,,84,0
6880,note_on,160,0,3,,,,,,,,,3,,,70,0
6912,note_on,48,0,1,,,,,,,,,1,,,84,30
6912,note_on,224,0,4,,,,,,,,,4,,,55,30
6912,note_on,32,0,3,,,,,,,,,3,,,64,30
7072,note_on,160,0,4,,,,,,,,,4,,,55,0
7072,note_on,160,0,3,,,,,,,,,3,,,64,0
7104,note_on,32,0,4,,,,,,,,,4,,,53,30
7104,note_on,32,0,3,,,,,,,,,3,,,69,30
7264,note_on,544,0,2,,,,,,,,,2,,,79,0
7264,note_on,160,0,4,,,,,,,,,4,,,53,0
7264,note_on,160,0,3,,,,,,,,,3,,,69,0
7296,note_on,32,0,2,,,,,,,,,2,,,81,30
7296,note_on,32,0,3,,,,,,,,,3,,,60,30
7440,note_on,528,0,1,,,,,,,,,1,,,84,0
7456,note_on,160,0,3,,,,,,,,,3,,,60,0
7488,note_on,48,0,1,,,,,,,,,1,,,84,30
7488,note_on,32,0,3,,,,,,,,,3,,,65,30
7488,note_on,224,0,4,,,,,,,,,4,,,57,30
7648,note_on,160,0,4,,,,,,,,,4,,,57,0
7680,note_on,32,0,4,,,,,,,,,4,,,58,30
7840,note_on,160,0,4,,,,,,,,,4,,,58,0
7840,note_on,544,0,2,,,,,,,,,2,,,81,0
7840,note_on,352,0,3,,,,,,,,,3,,,65,0
7872,note_on,32,0,2,,,,,,,,,2,,,79,30
7872,note_on,32,0,3,,,,,,,,,3,,,52,30
8016,note_on,528,0,1,,,,,,,,,1,,,84,0
8032,note_on,160,0,3,,,,,,,,,3,,,52,0
8064,note_on,224,0,4,,,,,,,,,4,,,60,30
8064,note_on,48,0,1,,,,,,,,,1,,,84,30
8064,note_on,32,0,3,,,,,,,,,3,,,64,30
8224,note_on,160,0,3,,,,,,,,,3,,,64,0
8224,note_on,160,0,4,,,,,,,,,4,,,60,0
8256,note_on,32,0,4,,,,,,,,,4,,,62,30
8256,note_on,32,0,3,,,,,,,,,3,,,57,30
8304,note_on,240,0,1,,,,,,,,,1,,,84,0
8304,note_on,432,0,2,,,,,,,,,2,,,79,0
8416,note_on,160,0,4,,,,,,,,,4,,,62,0
8416,note_on,160,0,3,,,,,,,,,3,,,57,0
8448,note_on,144,0,2,,,,,,,,,2,,,77,30
8448,note_on,32,0,4,,,,,,,,,4,,,50,30
8448,note_on,144,0,1,,,,,,,,,1,,,86,30
8448,note_on,32,0,3,,,,,,,,,3,,,69,30
8496,note_on,48,0,2,,,,,,,,,2,,,77,0
8496,note_on,48,0,1,,,,,,,,,1,,,86,0
8608,note_on,160,0,3,,,,,,,,,3,,,69,0
8608,note_on,160,0,4,,,,,,,,,4,,,50,0
8640,note_on,144,0,1,,,,,,,,,1,,,88,30
8640,note_on,32,0,4,,,,,,,,,4,,,48,30
8640,note_on,32,0,3,,,,,,,,,3,,,60,30
8640,note_on,144,0,2,,,,,,,,,2,,,79,30
8688,note_on,48,0,1,,,,,,,,,1,,,88,0
8688,note_on,48,0,2,,,,,,,,,2,,,79,0
8800,note_on,160,0,4,,,,,,,,,4,,,48,0
8800,note_on,160,0,3,,,,,,,,,3,,,60,0
8832,note_on,32,0,4,,,,,,,,,4,,,53,30
8832,note_on,144,0,2,,,,,,,,,2,,,77,30
8832,note_on,144,0,1,,,,,,,,,1,,,89,30
8880,note_on,48,0,2,,,,,,,,,2,,,77,0
8880,note_on,48,0,1,,,,,,,,,1,,,89,0
8992,note_on,160,0,4,,,,,,,,,4,,,53,0
9024,note_on,144,0,1,,,,,,,,,1,,,63,127
9024,note_on,32,0,4,,,,,,,,,4,,,39,127
9024,note_on,224,0,3,,,,,,,,,3,,,51,127
9360,note_on,336,0,1,,,,,,,,,1,,,63,0
9360,note_on,336,0,4,,,,,,,,,4,,,39,0
9360,note_on,336,0,3,,,,,,,,,3,,,51,0
9600,note_on,240,0,4,,,,,,,,,4,,,39,89
9600,note_on,240,0,3,,,,,,,,,3,,,51,89
9936,note_on,336,0,4,,,,,,,,,4,,,39,0
9936,note_on,336,0,3,,,,,,,,,3,,,51,0
9984,note_on,48,0,4,,,,,,,,,4,,,39,82
9984,note_on,48,0,3,,,,,,,,,3,,,51,82
10320,note_on,336,0,4,,,,,,,,,4,,,39,0
10320,note_on,336,0,3,,,,,,,,,3,,,51,0
10368,note_on,48,0,4,,,,,,,,,4,,,39,75
10368,note_on,48,0,3,,,,,,,,,3,,,51,75
10528,note_on,160,0,4,,,,,,,,,4,,,39,0
10528,note_on,160,0,3,,,,,,,,,3,,,51,0
10752,note_on,224,0,3,,,,,,,,,3,,,51,69
10752,note_on,1392,0,1,,,,,,,,,1,,,63,68
10752,note_on,224,0,4,,,,,,,,,4,,,39,69
11088,note_on,336,0,4,,,,,,,,,4,,,39,0
11088,note_on,336,0,1,,,,,,,,,1,,,63,0
11088,note_on,336,0,3,,,,,,,,,3,,,51,0
11136,note_on,48,0,1,,,,,,,,,1,,,63,61
11136,note_on,48,0,4,,,,,,,,,4,,,39,61
11136,note_on,48,0,3,,,,,,,,,3,,,51,61
11472,note_on,336,0,1,,,,,,,,,1,,,63,0
11472,note_on,336,0,4,,,,,,,,,4,,,39,0
11472,note_on,336,0,3,,,,,,,,,3,,,51,0
11520,note_on,48,0,4,,,,,,,,,4,,,39,53
11520,note_on,48,0,3,,,,,,,,,3,,,51,53
11520,note_on,48,0,1,,,,,,,,,1,,,63,53
11680,note_on,160,0,1,,,,,,,,,1,,,63,0
11680,note_on,160,0,3,,,,,,,,,3,,,51,0
11680,note_on,160,0,4,,,,,,,,,4,,,39,0
11904,note_on,224,0,1,,,,,,,,,1,,,63,45
11904,note_on,224,0,3,,,,,,,,,3,,,51,45
11904,note_on,224,0,4,,,,,,,,,4,,,39,45
12240,note_on,336,0,1,,,,,,,,,1,,,63,0
12240,note_on,336,0,3,,,,,,,,,3,,,51,0
12240,note_on,336,0,4,,,,,,,,,4,,,39,0
12480,note_on,240,0,3,,,,,,,,,3,,,51,45
12480,note_on,240,0,4,,,,,,,,,4,,,39,45
12480,note_on,240,0,1,,,,,,,,,1,,,63,45
12816,note_on,336,0,1,,,,,,,,,1,,,63,0
12816,note_on,336,0,3,,,,,,,,,3,,,51,0
12816,note_on,336,0,4,,,,,,,,,4,,,39,0
13056,note_on,240,0,1,,,,,,,,,1,,,64,30
13056,note_on,240,0,4,,,,,,,,,4,,,40,30
13056,note_on,240,0,3,,,,,,,,,3,,,52,30
13392,note_on,336,0,1,,,,,,,,,1,,,64,0
13392,note_on,336,0,4,,,,,,,,,4,,,40,0
13392,note_on,336,0,3,,,,,,,,,3,,,52,0
13632,note_on,240,0,3,,,,,,,,,3,,,52,30
13632,note_on,240,0,1,,,,,,,,,1,,,64,30
13632,note_on,240,0,4,,,,,,,,,4,,,36,30
13968,note_on,336,0,3,,,,,,,,,3,,,52,0
13968,note_on,336,0,1,,,,,,,,,1,,,64,0
14016,note_on,48,0,3,,,,,,,,,3,,,53,35
14176,note_on,160,0,3,,,,,,,,,3,,,53,0
14208,note_on,240,0,1,,,,,,,,,1,,,69,36
14208,note_on,32,0,3,,,,,,,,,3,,,48,37
14352,note_on,720,0,4,,,,,,,,,4,,,36,0
14400,note_on,5520,0,2,,,,,,,,,2,,,65,38
14400,note_on,48,0,4,,,,,,,,,4,,,36,40
14400,note_on,192,0,3,,,,,,,,,3,,,57,39
14592,note_on,0,0,3,,,,,,,,,3,,,59,41
14592,note_on,192,0,3,,,,,,,,,3,,,57,0
14752,note_on,0,0,3,,,,,,,,,3,,,59,0
14752,note_on,544,0,1,,,,,,,,,1,,,69,0
14752,note_on,160,0,3,,,,,,,,,3,,,48,0
14784,note_on,32,0,3,,,,,,,,,3,,,48,43
14784,note_on,32,0,1,,,,,,,,,1,,,67,42
14928,note_on,528,0,4,,,,,,,,,4,,,36,0
14976,note_on,192,0,3,,,,,,,,,3,,,60,45
14976,note_on,576,0,2,,,,,,,,,2,,,65,0
14976,note_on,0,0,2,,,,,,,,,2,,,64,44
14976,note_on,48,0,4,,,,,,,,,4,,,36,47
15168,note_on,0,0,3,,,,,,,,,3,,,62,47
15168,note_on,0,0,2,,,,,,,,,2,,,57,46
15168,note_on,192,0,2,,,,,,,,,2,,,64,0
15168,note_on,192,0,3,,,,,,,,,3,,,60,0
15328,note_on,0,0,3,,,,,,,,,3,,,62,0
15328,note_on,544,0,1,,,,,,,,,1,,,67,0
15328,note_on,160,0,3,,,,,,,,,3,,,48,0
15360,note_on,32,0,1,,,,,,,,,1,,,65,49
15360,note_on,32,0,3,,,,,,,,,3,,,48,49
15504,note_on,528,0,4,,,,,,,,,4,,,36,0
15552,note_on,384,0,2,,,,,,,,,2,,,57,0
15552,note_on,0,0,2,,,,,,,,,2,,,56,51
15552,note_on,48,0,4,,,,,,,,,4,,,36,54
15552,note_on,192,0,3,,,,,,,,,3,,,60,51
15744,note_on,0,0,2,,,,,,,,,2,,,62,53
15744,note_on,192,0,2,,,,,,,,,2,,,56,0
15744,note_on,0,0,3,,,,,,,,,3,,,59,53
15744,note_on,192,0,3,,,,,,,,,3,,,60,0
15904,note_on,160,0,3,,,,,,,,,3,,,48,0
15904,note_on,544,0,1,,,,,,,,,1,,,65,0
15904,note_on,0,0,3,,,,,,,,,3,,,59,0
15936,note_on,32,0,3,,,,,,,,,3,,,48,56
15936,note_on,32,0,1,,,,,,,,,1,,,67,56
16080,note_on,528,0,4,,,,,,,,,4,,,36,0
16128,note_on,0,0,3,,,,,,,,,3,,,49,59
16128,note_on,0,0,3,,,,,,,,,3,,,58,59
16128,note_on,0,0,2,,,,,,,,,2,,,64,58
16128,note_on,384,0,2,,,,,,,,,2,,,62,0
16128,note_on,48,0,4,,,,,,,,,4,,,36,61
16128,note_on,192,0,3,,,,,,,,,3,,,48,0
16320,note_on,0,0,3,,,,,,,,,3,,,57,62
16320,note_on,0,0,3,,,,,,,,,3,,,58,0
16320,note_on,192,0,3,,,,,,,,,3,,,49,0
16320,note_on,0,0,3,,,,,,,,,3,,,48,62
16480,note_on,352,0,2,,,,,,,,,2,,,64,0
16480,note_on,160,0,3,,,,,,,,,3,,,48,0
16480,note_on,0,0,3,,,,,,,,,3,,,57,0
16480,note_on,544,0,1,,,,,,,,,1,,,67,0
16512,note_on,32,0,2,,,,,,,,,2,,,57,62
16512,note_on,32,0,1,,,,,,,,,1,,,69,63
16512,note_on,32,0,3,,,,,,,,,3,,,48,65
16656,note_on,528,0,4,,,,,,,,,4,,,36,0
16704,note_on,48,0,4,,,,,,,,,4,,,36,68
16704,note_on,0,0,2,,,,,,,,,2,,,65,64
16704,note_on,192,0,2,,,,,,,,,2,,,57,0
16704,note_on,192,0,3,,,,,,,,,3,,,57,68
16896,note_on,0,0,3,,,,,,,,,3,,,59,71
16896,note_on,192,0,3,,,,,,,,,3,,,57,0
17056,note_on,544,0,1,,,,,,,,,1,,,69,0
17056,note_on,160,0,3,,,,,,,,,3,,,48,0
17056,note_on,0,0,3,,,,,,,,,3,,,59,0
17056,note_on,352,0,2,,,,,,,,,2,,,65,0
17088,note_on,32,0,1,,,,,,,,,1,,,67,70
17088,note_on,32,0,3,,,,,,,,,3,,,48,74
17088,note_on,32,0,2,,,,,,,,,2,,,65,68
17232,note_on,528,0,4,,,,,,,,,4,,,36,0
17280,note_on,192,0,3,,,,,,,,,3,,,60,77
17280,note_on,0,0,2,,,,,,,,,2,,,64,71
17280,note_on,192,0,2,,,,,,,,,2,,,65,0
17280,note_on,48,0,4,,,,,,,,,4,,,36,77
17440,note_on,160,0,2,,,,,,,,,2,,,64,0
17472,note_on,0,0,3,,,,,,,,,3,,,59,80
17472,note_on,32,0,2,,,,,,,,,2,,,56,74
17472,note_on,192,0,3,,,,,,,,,3,,,60,0
17520,note_on,432,0,1,,,,,,,,,1,,,67,0
17632,note_on,0,0,3,,,,,,,,,3,,,59,0
17632,note_on,160,0,3,,,,,,,,,3,,,48,0
17664,note_on,144,0,1,,,,,,,,,1,,,65,77
17664,note_on,192,0,2,,,,,,,,,2,,,62,77
17664,note_on,32,0,3,,,,,,,,,3,,,48,83
17712,note_on,48,0,1,,,,,,,,,1,,,65,0
17808,note_on,144,0,2,,,,,,,,,2,,,56,0
17808,note_on,528,0,4,,,,,,,,,4,,,36,0
17824,note_on,16,0,2,,,,,,,,,2,,,62,0
17856,note_on,0,0,2,,,,,,,,,2,,,64,80
17856,note_on,32,0,2,,,,,,,,,2,,,55,80
17856,note_on,48,0,4,,,,,,,,,4,,,36,86
17856,note_on,144,0,1,,,,,,,,,1,,,67,80
17856,note_on,192,0,3,,,,,,,,,3,,,58,86
17904,note_on,48,0,1,,,,,,,,,1,,,67,0
18016,note_on,0,0,2,,,,,,,,,2,,,64,0
18016,note_on,160,0,2,,,,,,,,,2,,,55,0
18048,note_on,192,0,3,,,,,,,,,3,,,58,0
18048,note_on,32,0,2,,,,,,,,,2,,,57,83
18048,note_on,144,0,1,,,,,,,,,1,,,65,83
18208,note_on,160,0,1,,,,,,,,,1,,,65,0
18208,note_on,352,0,4,,,,,,,,,4,,,36,0
18208,note_on,160,0,3,,,,,,,,,3,,,48,0
18208,note_on,160,0,2,,,,,,,,,2,,,57,0
18240,note_on,32,0,4,,,,,,,,,4,,,41,92
18240,note_on,32,0,3,,,,,,,,,3,,,53,92
18288,note_on,48,0,4,,,,,,,,,4,,,41,0
18288,note_on,48,0,3,,,,,,,,,3,,,53,0
18432,note_on,144,0,4,,,,,,,,,4,,,43,92
18432,note_on,144,0,3,,,,,,,,,3,,,55,92
18624,note_on,416,0,1,,,,,,,,,1,,,77,92
18624,note_on,416,0,2,,,,,,,,,2,,,65,92
18672,note_on,48,0,1,,,,,,,,,1,,,77,0
18672,note_on,48,0,2,,,,,,,,,2,,,65,0
18784,note_on,352,0,4,,,,,,,,,4,,,43,0
18784,note_on,352,0,3,,,,,,,,,3,,,55,0
18816,note_on,32,0,3,,,,,,,,,3,,,57,92
18816,note_on,32,0,4,,,,,,,,,4,,,45,92
19008,note_on,336,0,2,,,,,,,,,2,,,69,92
19008,note_on,336,0,1,,,,,,,,,1,,,81,92
19056,note_on,48,0,2,,,,,,,,,2,,,69,0
19056,note_on,48,0,1,,,,,,,,,1,,,81,0
19200,note_on,144,0,2,,,,,,,,,2,,,70,92
19200,note_on,144,0,1,,,,,,,,,1,,,82,92
19248,note_on,48,0,1,,,,,,,,,1,,,82,0
19248,note_on,48,0,2,,,,,,,,,2,,,70,0
19360,note_on,544,0,4,,,,,,,,,4,,,45,0
19360,note_on,544,0,3,,,,,,,,,3,,,57,0
19392,note_on,32,0,4,,,,,,,,,4,,,43,92
19392,note_on,32,0,3,,,,,,,,,3,,,55,92
19584,note_on,336,0,2,,,,,,,,,2,,,72,92
19584,note_on,336,0,1,,,,,,,,,1,,,84,92
19744,note_on,160,0,2,,,,,,,,,2,,,72,0
19744,note_on,160,0,1,,,,,,,,,1,,,84,0
19776,note_on,32,0,1,,,,,,,,,1,,,86,92
19776,note_on,32,0,2,,,,,,,,,2,,,74,92
19936,note_on,160,0,1,,,,,,,,,1,,,86,0
19936,note_on,544,0,4,,,,,,,,,4,,,43,0
19936,note_on,544,0,3,,,,,,,,,3,,,55,0
19936,note_on,160,0,2,,,,,,,,,2,,,74,0
19968,note_on,32,0,4,,,,,,,,,4,,,41,92
19968,note_on,32,0,3,,,,,,,,,3,,,53,92
20160,note_on,224,0,1,,,,,,,,,1,,,84,92
20160,note_on,224,0,2,,,,,,,,,2,,,72,92
20320,note_on,160,0,2,,,,,,,,,2,,,72,0
20320,note_on,160,0,1,,,,,,,,,1,,,84,0
20352,note_on,32,0,2,,,,,,,,,2,,,70,92
20352,note_on,32,0,1,,,,,,,,,1,,,82,92
20512,note_on,160,0,2,,,,,,,,,2,,,70,0
20512,note_on,160,0,1,,,,,,,,,1,,,82,0
20512,note_on,544,0,3,,,,,,,,,3,,,53,0
20512,note_on,544,0,4,,,,,,,,,4,,,41,0
20544,note_on,32,0,3,,,,,,,,,3,,,55,92
20544,note_on,32,0,4,,,,,,,,,4,,,43,92
20736,note_on,224,0,1,,,,,,,,,1,,,79,92
20736,note_on,224,0,2,,,,,,,,,2,,,67,92
20896,note_on,160,0,2,,,,,,,,,2,,,67,0
20896,note_on,160,0,1,,,,,,,,,1,,,79,0
20928,note_on,32,0,2,,,,,,,,,2,,,65,92
20928,note_on,32,0,1,,,,,,,,,1,,,77,92
21088,note_on,160,0,2,,,,,,,,,2,,,65,0
21088,note_on,160,0,1,,,,,,,,,1,,,77,0
21088,note_on,544,0,3,,,,,,,,,3,,,55,0
21088,note_on,544,0,4,,,,,,,,,4,,,43,0
21120,note_on,32,0,3,,,,,,,,,3,,,57,92
21120,note_on,32,0,4,,,,,,,,,4,,,45,92
21312,note_on,224,0,2,,,,,,,,,2,,,69,92
21312,note_on,224,0,1,,,,,,,,,1,,,81,92
21472,note_on,160,0,2,,,,,,,,,2,,,69,0
21472,note_on,160,0,1,,,,,,,,,1,,,81,0
21504,note_on,32,0,1,,,,,,,,,1,,,82,82
21504,note_on,32,0,2,,,,,,,,,2,,,70,82
21664,note_on,160,0,1,,,,,,,,,1,,,82,0
21664,note_on,544,0,3,,,,,,,,,3,,,57,0
21664,note_on,160,0,2,,,,,,,,,2,,,70,0
21664,note_on,544,0,4,,,,,,,,,4,,,45,0
21696,note_on,32,0,4,,,,,,,,,4,,,43,62
21696,note_on,32,0,3,,,,,,,,,3,,,55,62
21888,note_on,224,0,1,,,,,,,,,1,,,84,62
21888,note_on,224,0,2,,,,,,,,,2,,,72,62
22048,note_on,160,0,2,,,,,,,,,2,,,72,0
22048,note_on,160,0,1,,,,,,,,,1,,,84,0
22080,note_on,32,0,1,,,,,,,,,1,,,86,52
22080,note_on,32,0,2,,,,,,,,,2,,,74,52
22240,note_on,160,0,2,,,,,,,,,2,,,74,0
22240,note_on,160,0,1,,,,,,,,,1,,,86,0
22240,note_on,544,0,4,,,,,,,,,4,,,43,0
22240,note_on,544,0,3,,,,,,,,,3,,,55,0
22272,note_on,32,0,3,,,,,,,,,3,,,53,30
22272,note_on,32,0,4,,,,,,,,,4,,,41,30
22320,note_on,48,0,4,,,,,,,,,4,,,41,0
22320,note_on,48,0,3,,,,,,,,,3,,,53,0
22464,note_on,144,0,4,,,,,,,,,4,,,43,30
22464,note_on,224,0,1,,,,,,,,,1,,,84,30
22464,note_on,144,0,3,,,,,,,,,3,,,55,30
22464,note_on,224,0,2,,,,,,,,,2,,,64,30
22464,note_on,0,0,2,,,,,,,,,2,,,72,30
22512,note_on,48,0,3,,,,,,,,,3,,,55,0
22512,note_on,48,0,4,,,,,,,,,4,,,43,0
22624,note_on,160,0,2,,,,,,,,,2,,,64,0
22624,note_on,160,0,1,,,,,,,,,1,,,84,0
22624,note_on,0,0,2,,,,,,,,,2,,,72,0
22656,note_on,32,0,1,,,,,,,,,1,,,84,30
22656,note_on,144,0,4,,,,,,,,,4,,,41,30
22656,note_on,144,0,3,,,,,,,,,3,,,53,30
22656,note_on,32,0,2,,,,,,,,,2,,,69,30
22656,note_on,0,0,2,,,,,,,,,2,,,72,30
22704,note_on,48,0,2,,,,,,,,,2,,,69,0
22704,note_on,48,0,4,,,,,,,,,4,,,41,0
22704,note_on,0,0,2,,,,,,,,,2,,,72,0
22704,note_on,48,0,1,,,,,,,,,1,,,84,0
22704,note_on,48,0,3,,,,,,,,,3,,,53,0
22848,note_on,144,0,1,,,,,,,,,1,,,84,30
22848,note_on,144,0,3,,,,,,,,,3,,,57,30
22848,note_on,144,0,2,,,,,,,,,2,,,72,30
22896,note_on,48,0,2,,,,,,,,,2,,,72,0
22896,note_on,48,0,1,,,,,,,,,1,,,84,0
22896,note_on,48,0,3,,,,,,,,,3,,,57,0
23040,note_on,144,0,2,,,,,,,,,2,,,69,30
23040,note_on,144,0,1,,,,,,,,,1,,,87,30
23040,note_on,144,0,3,,,,,,,,,3,,,53,30
23088,note_on,48,0,1,,,,,,,,,1,,,87,0
23088,note_on,48,0,2,,,,,,,,,2,,,69,0
23088,note_on,48,0,3,,,,,,,,,3,,,53,0
23232,note_on,144,0,2,,,,,,,,,2,,,65,30
23232,note_on,144,0,1,,,,,,,,,1,,,86,30
23232,note_on,144,0,3,,,,,,,,,3,,,58,30
23280,note_on,48,0,1,,,,,,,,,1,,,86,0
23280,note_on,48,0,3,,,,,,,,,3,,,58,0
23280,note_on,48,0,2,,,,,,,,,2,,,65,0
23424,note_on,720,0,4,,,,,,,,,4,,,41,30
23472,note_on,48,0,4,,,,,,,,,4,,,41,0
23616,note_on,144,0,4,,,,,,,,,4,,,43,30
23664,note_on,48,0,4,,,,,,,,,4,,,43,0
23808,note_on,144,0,4,,,,,,,,,4,,,41,30
23856,note_on,48,0,4,,,,,,,,,4,,,41,0
24000,note_on,0,0,2,,,,,,,,,2,,,74,30
24000,note_on,720,0,2,,,,,,,,,2,,,65,30
24000,note_on,720,0,1,,,,,,,,,1,,,88,30
24000,note_on,720,0,3,,,,,,,,,3,,,58,30
24048,note_on,0,0,2,,,,,,,,,2,,,74,0
24048,note_on,48,0,3,,,,,,,,,3,,,58,0
24048,note_on,48,0,1,,,,,,,,,1,,,88,0
24048,note_on,48,0,2,,,,,,,,,2,,,65,0
24192,note_on,144,0,1,,,,,,,,,1,,,89,30
24192,note_on,144,0,2,,,,,,,,,2,,,65,30
24192,note_on,144,0,3,,,,,,,,,3,,,58,30
24192,note_on,0,0,2,,,,,,,,,2,,,74,30
24240,note_on,0,0,2,,,,,,,,,2,,,74,0
24240,note_on,48,0,1,,,,,,,,,1,,,89,0
24240,note_on,48,0,2,,,,,,,,,2,,,65,0
24240,note_on,48,0,3,,,,,,,,,3,,,58,0
24384,note_on,144,0,3,,,,,,,,,3,,,65,30
24384,note_on,144,0,2,,,,,,,,,2,,,69,30
24384,note_on,144,0,1,,,,,,,,,1,,,84,30
24432,note_on,48,0,1,,,,,,,,,1,,,84,0
24544,note_on,160,0,2,,,,,,,,,2,,,69,0
24544,note_on,160,0,3,,,,,,,,,3,,,65,0
24576,note_on,32,0,2,,,,,,,,,2,,,77,30
24576,note_on,32,0,3,,,,,,,,,3,,,65,30
24576,note_on,720,0,4,,,,,,,,,4,,,41,30
24624,note_on,48,0,4,,,,,,,,,4,,,41,0
24736,note_on,160,0,3,,,,,,,,,3,,,65,0
24736,note_on,160,0,2,,,,,,,,,2,,,77,0
24768,note_on,32,0,3,,,,,,,,,3,,,67,30
24768,note_on,32,0,2,,,,,,,,,2,,,79,30
24768,note_on,144,0,4,,,,,,,,,4,,,39,30
24816,note_on,48,0,4,,,,,,,,,4,,,39,0
24928,note_on,160,0,3,,,,,,,,,3,,,67,0
24928,note_on,160,0,2,,,,,,,,,2,,,79,0
24960,note_on,32,0,3,,,,,,,,,3,,,66,30
24960,note_on,144,0,4,,,,,,,,,4,,,38,30
24960,note_on,32,0,2,,,,,,,,,2,,,78,30
25008,note_on,48,0,4,,,,,,,,,4,,,38,0
25120,note_on,160,0,3,,,,,,,,,3,,,66,0
25120,note_on,160,0,2,,,,,,,,,2,,,78,0
25152,note_on,32,0,3,,,,,,,,,3,,,67,30
25152,note_on,144,0,4,,,,,,,,,4,,,40,30
25152,note_on,32,0,2,,,,,,,,,2,,,82,30
25152,note_on,720,0,1,,,,,,,,,1,,,86,30
25200,note_on,48,0,4,,,,,,,,,4,,,40,0
25312,note_on,160,0,2,,,,,,,,,2,,,82,0
25312,note_on,160,0,3,,,,,,,,,3,,,67,0
25312,note_on,160,0,1,,,,,,,,,1,,,86,0
25344,note_on,32,0,3,,,,,,,,,3,,,69,30
25344,note_on,144,0,4,,,,,,,,,4,,,42,30
25344,note_on,32,0,1,,,,,,,,,1,,,84,30
25344,note_on,32,0,2,,,,,,,,,2,,,81,30
25392,note_on,48,0,4,,,,,,,,,4,,,42,0
25504,note_on,160,0,1,,,,,,,,,1,,,84,0
25504,note_on,160,0,3,,,,,,,,,3,,,69,0
25504,note_on,160,0,2,,,,,,,,,2,,,81,0
25536,note_on,32,0,1,,,,,,,,,1,,,84,30
25536,note_on,32,0,3,,,,,,,,,3,,,62,30
25536,note_on,144,0,4,,,,,,,,,4,,,43,30
25536,note_on,32,0,2,,,,,,,,,2,,,81,30
25584,note_on,48,0,2,,,,,,,,,2,,,81,0
25584,note_on,48,0,1,,,,,,,,,1,,,84,0
25696,note_on,160,0,3,,,,,,,,,3,,,62,0
25696,note_on,160,0,4,,,,,,,,,4,,,43,0
25728,note_on,32,0,3,,,,,,,,,3,,,64,30
25728,note_on,144,0,2,,,,,,,,,2,,,79,30
25728,note_on,32,0,4,,,,,,,,,4,,,43,30
25728,note_on,144,0,1,,,,,,,,,1,,,82,30
25776,note_on,48,0,2,,,,,,,,,2,,,79,0
25776,note_on,48,0,1,,,,,,,,,1,,,82,0
25888,note_on,160,0,3,,,,,,,,,3,,,64,0
25888,note_on,160,0,4,,,,,,,,,4,,,43,0
25920,note_on,32,0,4,,,,,,,,,4,,,45,30
25920,note_on,32,0,3,,,,,,,,,3,,,60,30
25920,note_on,144,0,2,,,,,,,,,2,,,77,30
25920,note_on,144,0,1,,,,,,,,,1,,,81,30
25968,note_on,48,0,1,,,,,,,,,1,,,81,0
25968,note_on,48,0,2,,,,,,,,,2,,,77,0
26080,note_on,160,0,3,,,,,,,,,3,,,60,0
26080,note_on,160,0,4,,,,,,,,,4,,,45,0
26112,note_on,32,0,3,,,,,,,,,3,,,62,30
26112,note_on,144,0,1,,,,,,,,,1,,,81,30
26112,note_on,144,0,2,,,,,,,,,2,,,77,30
26112,note_on,32,0,4,,,,,,,,,4,,,46,30
26272,note_on,160,0,4,,,,,,,,,4,,,46,0
26304,note_on,32,0,4,,,,,,,,,4,,,46,30
26304,note_on,192,0,2,,,,,,,,,2,,,77,0
26304,note_on,0,0,3,,,,,,,,,3,,,55,30
26304,note_on,0,0,1,,,,,,,,,1,,,82,30
26304,note_on,192,0,3,,,,,,,,,3,,,62,0
26304,note_on,0,0,2,,,,,,,,,2,,,74,30
26304,note_on,192,0,1,,,,,,,,,1,,,81,0
26464,note_on,160,0,4,,,,,,,,,4,,,46,0
26464,note_on,160,0,3,,,,,,,,,3,,,55,0
26464,note_on,160,0,1,,,,,,,,,1,,,82,0
26464,note_on,160,0,2,,,,,,,,,2,,,74,0
26496,note_on,32,0,1,,,,,,,,,1,,,79,30
26496,note_on,32,0,4,,,,,,,,,4,,,48,30
26496,note_on,0,0,2,,,,,,,,,2,,,76,30
26496,note_on,32,0,2,,,,,,,,,2,,,70,30
26496,note_on,32,0,3,,,,,,,,,3,,,60,30
26544,note_on,0,0,2,,,,,,,,,2,,,76,0
26544,note_on,48,0,3,,,,,,,,,3,,,60,0
26544,note_on,48,0,2,,,,,,,,,2,,,70,0
26544,note_on,48,0,1,,,,,,,,,1,,,79,0
26656,note_on,160,0,4,,,,,,,,,4,,,48,0
26688,note_on,144,0,3,,,,,,,,,3,,,60,30
26688,note_on,32,0,4,,,,,,,,,4,,,41,30
26688,note_on,144,0,2,,,,,,,,,2,,,69,30
26688,note_on,144,0,1,,,,,,,,,1,,,81,30
26736,note_on,48,0,1,,,,,,,,,1,,,81,0
26736,note_on,48,0,2,,,,,,,,,2,,,69,0
26848,note_on,160,0,4,,,,,,,,,4,,,41,0
26848,note_on,160,0,3,,,,,,,,,3,,,60,0
26880,note_on,144,0,1,,,,,,,,,1,,,77,30
26880,note_on,144,0,2,,,,,,,,,2,,,65,30
26928,note_on,48,0,1,,,,,,,,,1,,,77,0
26928,note_on,48,0,2,,,,,,,,,2,,,65,0
27072,note_on,144,0,2,,,,,,,,,2,,,67,30
27072,note_on,144,0,1,,,,,,,,,1,,,79,30
27120,note_on,48,0,1,,,,,,,,,1,,,79,0
27120,note_on,48,0,2,,,,,,,,,2,,,67,0
27264,note_on,144,0,1,,,,,,,,,1,,,77,30
27264,note_on,144,0,2,,,,,,,,,2,,,65,30
27424,note_on,160,0,2,,,,,,,,,2,,,65,0
27424,note_on,160,0,1,,,,,,,,,1,,,77,0
27456,note_on,608,0,3,,,,,,,,,3,,,57,30
27456,note_on,608,0,4,,,,,,,,,4,,,60,30
27504,note_on,48,0,3,,,,,,,,,3,,,57,0
27504,note_on,48,0,4,,,,,,,,,4,,,60,0
27648,note_on,144,0,4,,,,,,,,,4,,,63,30
27648,note_on,144,0,3,,,,,,,,,3,,,60,30
27696,note_on,48,0,4,,,,,,,,,4,,,63,0
27696,note_on,48,0,3,,,,,,,,,3,,,60,0
27840,note_on,144,0,3,,,,,,,,,3,,,58,30
27840,note_on,144,0,4,,,,,,,,,4,,,62,30
28000,note_on,160,0,4,,,,,,,,,4,,,62,0
28000,note_on,160,0,3,,,,,,,,,3,,,58,0
28032,note_on,608,0,1,,,,,,,,,1,,,77,30
28032,note_on,608,0,2,,,,,,,,,2,,,65,30
28192,note_on,160,0,2,,,,,,,,,2,,,65,0
28192,note_on,160,0,1,,,,,,,,,1,,,77,0
28224,note_on,32,0,2,,,,,,,,,2,,,67,30
28224,note_on,32,0,1,,,,,,,,,1,,,79,30
28384,note_on,160,0,2,,,,,,,,,2,,,67,0
28384,note_on,160,0,1,,,,,,,,,1,,,79,0
28416,note_on,32,0,2,,,,,,,,,2,,,65,30
28416,note_on,32,0,1,,,,,,,,,1,,,77,30
28576,note_on,160,0,1,,,,,,,,,1,,,77,0
28576,note_on,160,0,2,,,,,,,,,2,,,65,0
28608,note_on,608,0,3,,,,,,,,,3,,,58,30
28608,note_on,608,0,4,,,,,,,,,4,,,64,30
28768,note_on,160,0,3,,,,,,,,,3,,,58,0
28768,note_on,160,0,4,,,,,,,,,4,,,64,0
28800,note_on,32,0,3,,,,,,,,,3,,,58,30
28800,note_on,32,0,4,,,,,,,,,4,,,65,30
28960,note_on,160,0,4,,,,,,,,,4,,,65,0
28960,note_on,160,0,3,,,,,,,,,3,,,58,0
28992,note_on,32,0,4,,,,,,,,,4,,,60,30
28992,note_on,32,0,3,,,,,,,,,3,,,57,30
29152,note_on,160,0,3,,,,,,,,,3,,,57,0
29152,note_on,160,0,4,,,,,,,,,4,,,60,0
29184,note_on,608,0,2,,,,,,,,,2,,,65,30
29184,note_on,608,0,1,,,,,,,,,1,,,77,30
29344,note_on,160,0,1,,,,,,,,,1,,,77,0
29344,note_on,160,0,2,,,,,,,,,2,,,65,0
29376,note_on,32,0,2,,,,,,,,,2,,,67,30
29376,note_on,32,0,1,,,,,,,,,1,,,79,30
29536,note_on,160,0,1,,,,,,,,,1,,,79,0
29536,note_on,160,0,2,,,,,,,,,2,,,67,0
29568,note_on,32,0,1,,,,,,,,,1,,,77,30
29568,note_on,32,0,2,,,,,,,,,2,,,65,30
29728,note_on,160,0,1,,,,,,,,,1,,,77,0
29728,note_on,160,0,2,,,,,,,,,2,,,65,0
29760,note_on,32,0,2,,,,,,,,,2,,,66,30
29760,note_on,32,0,1,,,,,,,,,1,,,78,30
29760,note_on,608,0,3,,,,,,,,,3,,,60,30
29760,note_on,608,0,4,,,,,,,,,4,,,63,30
29920,note_on,160,0,3,,,,,,,,,3,,,60,0
29920,note_on,160,0,4,,,,,,,,,4,,,63,0
29920,note_on,160,0,2,,,,,,,,,2,,,66,0
29920,note_on,160,0,1,,,,,,,,,1,,,78,0
29952,note_on,32,0,3,,,,,,,,,3,,,58,30
29952,note_on,32,0,4,,,,,,,,,4,,,62,30
29952,note_on,32,0,2,,,,,,,,,2,,,67,30
29952,note_on,32,0,1,,,,,,,,,1,,,79,30
30112,note_on,160,0,4,,,,,,,,,4,,,62,0
30112,note_on,160,0,2,,,,,,,,,2,,,67,0
30112,note_on,160,0,1,,,,,,,,,1,,,79,0
30112,note_on,160,0,3,,,,,,,,,3,,,58,0
30144,note_on,32,0,3,,,,,,,,,3,,,58,30
30144,note_on,32,0,1,,,,,,,,,1,,,79,30
30144,note_on,32,0,4,,,,,,,,,4,,,62,30
30144,note_on,32,0,2,,,,,,,,,2,,,67,30
30192,note_on,48,0,3,,,,,,,,,3,,,58,0
30192,note_on,48,0,4,,,,,,,,,4,,,62,0
30304,note_on,160,0,1,,,,,,,,,1,,,79,0
30304,note_on,160,0,2,,,,,,,,,2,,,67,0
30336,note_on,144,0,3,,,,,,,,,3,,,57,30
30336,note_on,32,0,1,,,,,,,,,1,,,79,30
30336,note_on,144,0,4,,,,,,,,,4,,,60,30
30336,note_on,32,0,2,,,,,,,,,2,,,67,30
30384,note_on,48,0,3,,,,,,,,,3,,,57,0
30384,note_on,48,0,4,,,,,,,,,4,,,60,0
30496,note_on,160,0,1,,,,,,,,,1,,,79,0
30496,note_on,160,0,2,,,,,,,,,2,,,67,0
30528,note_on,144,0,4,,,,,,,,,4,,,58,30
30528,note_on,32,0,1,,,,,,,,,1,,,84,30
30528,note_on,144,0,3,,,,,,,,,3,,,55,30
30528,note_on,32,0,2,,,,,,,,,2,,,72,30
30576,note_on,48,0,4,,,,,,,,,4,,,58,0
30576,note_on,48,0,3,,,,,,,,,3,,,55,0
30688,note_on,160,0,1,,,,,,,,,1,,,84,0
30688,note_on,160,0,2,,,,,,,,,2,,,72,0
30720,note_on,32,0,2,,,,,,,,,2,,,72,30
30720,note_on,144,0,4,,,,,,,,,4,,,57,30
30720,note_on,32,0,1,,,,,,,,,1,,,84,30
30720,note_on,144,0,3,,,,,,,,,3,,,53,30
30880,note_on,160,0,2,,,,,,,,,2,,,72,0
30880,note_on,160,0,1,,,,,,,,,1,,,84,0
30912,note_on,32,0,1,,,,,,,,,1,,,84,30
30912,note_on,192,0,3,,,,,,,,,3,,,53,0
30912,note_on,0,0,3,,,,,,,,,3,,,55,30
30912,note_on,32,0,2,,,,,,,,,2,,,72,30
30912,note_on,192,0,4,,,,,,,,,4,,,57,0
30912,note_on,0,0,4,,,,,,,,,4,,,58,30
31072,note_on,160,0,2,,,,,,,,,2,,,72,0
31072,note_on,160,0,4,,,,,,,,,4,,,58,0
31072,note_on,160,0,1,,,,,,,,,1,,,84,0
31072,note_on,160,0,3,,,,,,,,,3,,,55,0
31104,note_on,32,0,2,,,,,,,,,2,,,72,30
31104,note_on,32,0,4,,,,,,,,,4,,,55,30
31104,note_on,32,0,3,,,,,,,,,3,,,52,30
31104,note_on,32,0,1,,,,,,,,,1,,,84,30
31152,note_on,48,0,4,,,,,,,,,4,,,55,0
31152,note_on,48,0,3,,,,,,,,,3,,,52,0
31264,note_on,160,0,2,,,,,,,,,2,,,72,0
31264,note_on,160,0,1,,,,,,,,,1,,,84,0
31296,note_on,144,0,3,,,,,,,,,3,,,53,30
31296,note_on,32,0,1,,,,,,,,,1,,,84,30
31296,note_on,32,0,2,,,,,,,,,2,,,72,30
31296,note_on,144,0,4,,,,,,,,,4,,,57,30
31344,note_on,48,0,2,,,,,,,,,2,,,72,0
31344,note_on,48,0,1,,,,,,,,,1,,,84,0
31344,note_on,48,0,3,,,,,,,,,3,,,53,0
31344,note_on,48,0,4,,,,,,,,,4,,,57,0
31488,note_on,144,0,3,,,,,,,,,3,,,64,30
31488,note_on,144,0,4,,,,,,,,,4,,,55,30
31488,note_on,144,0,1,,,,,,,,,1,,,82,30
31488,note_on,144,0,2,,,,,,,,,2,,,60,30
31536,note_on,48,0,4,,,,,,,,,4,,,55,0
31536,note_on,48,0,3,,,,,,,,,3,,,64,0
31536,note_on,48,0,2,,,,,,,,,2,,,60,0
31536,note_on,48,0,1,,,,,,,,,1,,,82,0
31680,note_on,144,0,2,,,,,,,,,2,,,72,30
31680,note_on,144,0,1,,,,,,,,,1,,,81,30
31680,note_on,144,0,3,,,,,,,,,3,,,65,30
31680,note_on,144,0,4,,,,,,,,,4,,,57,30
31728,note_on,48,0,2,,,,,,,,,2,,,72,0
31728,note_on,48,0,1,,,,,,,,,1,,,81,0
31728,note_on,48,0,4,,,,,,,,,4,,,57,0
31728,note_on,48,0,3,,,,,,,,,3,,,65,0
31872,note_on,144,0,2,,,,,,,,,2,,,72,30
31872,note_on,144,0,1,,,,,,,,,1,,,81,30
31872,note_on,144,0,4,,,,,,,,,4,,,58,30
31872,note_on,144,0,3,,,,,,,,,3,,,62,30
32064,note_on,0,0,3,,,,,,,,,3,,,50,35
32064,note_on,192,0,3,,,,,,,,,3,,,62,0
32064,note_on,0,0,2,,,,,,,,,2,,,74,35
32064,note_on,0,0,2,,,,,,,,,2,,,67,35
32064,note_on,192,0,2,,,,,,,,,2,,,72,0
32064,note_on,192,0,4,,,,,,,,,4,,,58,0
32064,note_on,0,0,4,,,,,,,,,4,,,46,35
32064,note_on,192,0,1,,,,,,,,,1,,,81,0
32064,note_on,0,0,1,,,,,,,,,1,,,82,35
32224,note_on,160,0,3,,,,,,,,,3,,,50,0
32224,note_on,160,0,4,,,,,,,,,4,,,46,0
32224,note_on,160,0,1,,,,,,,,,1,,,82,0
32224,note_on,0,0,2,,,,,,,,,2,,,74,0
32224,note_on,160,0,2,,,,,,,,,2,,,67,0
32256,note_on,32,0,4,,,,,,,,,4,,,48,40
32256,note_on,32,0,1,,,,,,,,,1,,,79,40
32256,note_on,32,0,3,,,,,,,,,3,,,52,40
32256,note_on,32,0,2,,,,,,,,,2,,,64,40
32304,note_on,48,0,3,,,,,,,,,3,,,52,0
32304,note_on,48,0,4,,,,,,,,,4,,,48,0
32304,note_on,48,0,1,,,,,,,,,1,,,79,0
32304,note_on,48,0,2,,,,,,,,,2,,,64,0
32448,note_on,144,0,2,,,,,,,,,2,,,70,45
32448,note_on,144,0,3,,,,,,,,,3,,,52,45
32448,note_on,144,0,4,,,,,,,,,4,,,48,45
32448,note_on,144,0,1,,,,,,,,,1,,,79,45
32496,note_on,48,0,4,,,,,,,,,4,,,48,0
32640,note_on,192,0,2,,,,,,,,,2,,,70,0
32640,note_on,0,0,2,,,,,,,,,2,,,69,50
32640,note_on,192,0,1,,,,,,,,,1,,,79,0
32640,note_on,192,0,3,,,,,,,,,3,,,52,0
32640,note_on,0,0,3,,,,,,,,,3,,,53,50
32640,note_on,0,0,1,,,,,,,,,1,,,81,50
32640,note_on,144,0,4,,,,,,,,,4,,,36,50
32688,note_on,48,0,4,,,,,,,,,4,,,36,0
32800,note_on,160,0,2,,,,,,,,,2,,,69,0
32800,note_on,160,0,3,,,,,,,,,3,,,53,0
32800,note_on,160,0,1,,,,,,,,,1,,,81,0
32832,note_on,32,0,3,,,,,,,,,3,,,57,55
32832,note_on,0,0,2,,,,,,,,,2,,,69,55
32832,note_on,32,0,2,,,,,,,,,2,,,65,55
32832,note_on,144,0,4,,,,,,,,,4,,,36,55
32832,note_on,32,0,1,,,,,,,,,1,,,77,55
32880,note_on,48,0,4,,,,,,,,,4,,,36,0
32880,note_on,48,0,2,,,,,,,,,2,,,65,0
32880,note_on,0,0,2,,,,,,,,,2,,,69,0
32880,note_on,48,0,3,,,,,,,,,3,,,57,0
32880,note_on,48,0,1,,,,,,,,,1,,,77,0
33024,note_on,144,0,4,,,,,,,,,4,,,36,60
33024,note_on,144,0,3,,,,,,,,,3,,,58,60
33024,note_on,144,0,2,,,,,,,,,2,,,67,60
33024,note_on,144,0,1,,,,,,,,,1,,,76,60
33184,note_on,160,0,4,,,,,,,,,4,,,36,0
33216,note_on,192,0,2,,,,,,,,,2,,,67,0
33216,note_on,0,0,2,,,,,,,,,2,,,65,65
33216,note_on,192,0,1,,,,,,,,,1,,,76,0
33216,note_on,0,0,1,,,,,,,,,1,,,77,65
33216,note_on,32,0,4,,,,,,,,,4,,,36,65
33216,note_on,192,0,3,,,,,,,,,3,,,58,0
33216,note_on,0,0,3,,,,,,,,,3,,,57,65
33376,note_on,160,0,4,,,,,,,,,4,,,36,0
33376,note_on,160,0,3,,,,,,,,,3,,,57,0
33376,note_on,160,0,1,,,,,,,,,1,,,77,0
33376,note_on,160,0,2,,,,,,,,,2,,,65,0
33408,note_on,32,0,3,,,,,,,,,3,,,55,70
33408,note_on,32,0,1,,,,,,,,,1,,,79,70
33408,note_on,32,0,2,,,,,,,,,2,,,64,70
33408,note_on,32,0,4,,,,,,,,,4,,,36,70
33456,note_on,48,0,2,,,,,,,,,2,,,64,0
33456,note_on,48,0,3,,,,,,,,,3,,,55,0
33456,note_on,48,0,1,,,,,,,,,1,,,79,0
33568,note_on,160,0,4,,,,,,,,,4,,,36,0
33600,note_on,144,0,3,,,,,,,,,3,,,55,75
33600,note_on,144,0,2,,,,,,,,,2,,,70,75
33600,note_on,32,0,4,,,,,,,,,4,,,36,75
33600,note_on,144,0,1,,,,,,,,,1,,,76,75
33648,note_on,48,0,2,,,,,,,,,2,,,70,0
33792,note_on,192,0,1,,,,,,,,,1,,,76,0
33792,note_on,0,0,1,,,,,,,,,1,,,77,72
33792,note_on,192,0,3,,,,,,,,,3,,,55,0
33792,note_on,0,0,3,,,,,,,,,3,,,53,72
33792,note_on,0,0,4,,,,,,,,,4,,,38,72
33792,note_on,192,0,4,,,,,,,,,4,,,36,0
33792,note_on,144,0,2,,,,,,,,,2,,,58,72
33840,note_on,48,0,2,,,,,,,,,2,,,58,0
33952,note_on,160,0,4,,,,,,,,,4,,,38,0
33952,note_on,160,0,1,,,,,,,,,1,,,77,0
33952,note_on,160,0,3,,,,,,,,,3,,,53,0
33984,note_on,32,0,4,,,,,,,,,4,,,40,69
33984,note_on,144,0,2,,,,,,,,,2,,,70,69
33984,note_on,32,0,1,,,,,,,,,1,,,79,69
33984,note_on,32,0,3,,,,,,,,,3,,,52,69
34032,note_on,48,0,2,,,,,,,,,2,,,70,0
34032,note_on,48,0,4,,,,,,,,,4,,,40,0
34032,note_on,48,0,1,,,,,,,,,1,,,79,0
34032,note_on,48,0,3,,,,,,,,,3,,,52,0
34176,note_on,144,0,2,,,,,,,,,2,,,69,66
34176,note_on,144,0,3,,,,,,,,,3,,,57,66
34176,note_on,144,0,4,,,,,,,,,4,,,41,66
34176,note_on,144,0,1,,,,,,,,,1,,,72,66
34224,note_on,48,0,3,,,,,,,,,3,,,57,0
34224,note_on,48,0,2,,,,,,,,,2,,,69,0
34224,note_on,48,0,4,,,,,,,,,4,,,41,0
34336,note_on,160,0,1,,,,,,,,,1,,,72,0
34368,note_on,32,0,1,,,,,,,,,1,,,72,63
34368,note_on,144,0,2,,,,,,,,,2,,,67,63
34368,note_on,144,0,3,,,,,,,,,3,,,58,63
34368,note_on,144,0,4,,,,,,,,,4,,,43,63
34416,note_on,48,0,3,,,,,,,,,3,,,58,0
34416,note_on,48,0,2,,,,,,,,,2,,,67,0
34416,note_on,48,0,4,,,,,,,,,4,,,43,0
34528,note_on,160,0,1,,,,,,,,,1,,,72,0
34560,note_on,32,0,1,,,,,,,,,1,,,72,60
34560,note_on,144,0,4,,,,,,,,,4,,,45,60
34560,note_on,144,0,2,,,,,,,,,2,,,65,60
34560,note_on,144,0,3,,,,,,,,,3,,,60,60
34608,note_on,48,0,2,,,,,,,,,2,,,65,0
34608,note_on,48,0,4,,,,,,,,,4,,,45,0
34608,note_on,48,0,3,,,,,,,,,3,,,60,0
34720,note_on,160,0,1,,,,,,,,,1,,,72,0
34752,note_on,144,0,3,,,,,,,,,3,,,55,57
34752,note_on,144,0,4,,,,,,,,,4,,,36,57
34752,note_on,144,0,2,,,,,,,,,2,,,58,57
34752,note_on,32,0,1,,,,,,,,,1,,,76,57
34912,note_on,160,0,2,,,,,,,,,2,,,58,0
34944,note_on,192,0,4,,,,,,,,,4,,,36,0
34944,note_on,0,0,4,,,,,,,,,4,,,38,53
34944,note_on,32,0,2,,,,,,,,,2,,,70,53
34944,note_on,192,0,1,,,,,,,,,1,,,76,0
34944,note_on,192,0,3,,,,,,,,,3,,,55,0
34944,note_on,0,0,3,,,,,,,,,3,,,53,53
34944,note_on,0,0,1,,,,,,,,,1,,,77,53
35104,note_on,160,0,1,,,,,,,,,1,,,77,0
35104,note_on,160,0,2,,,,,,,,,2,,,70,0
35104,note_on,160,0,4,,,,,,,,,4,,,38,0
35104,note_on,160,0,3,,,,,,,,,3,,,53,0
35136,note_on,32,0,2,,,,,,,,,2,,,70,49
35136,note_on,32,0,4,,,,,,,,,4,,,40,49
35136,note_on,32,0,1,,,,,,,,,1,,,79,49
35136,note_on,32,0,3,,,,,,,,,3,,,52,49
35184,note_on,48,0,3,,,,,,,,,3,,,52,0
35184,note_on,48,0,1,,,,,,,,,1,,,79,0
35184,note_on,48,0,4,,,,,,,,,4,,,40,0
35296,note_on,160,0,2,,,,,,,,,2,,,70,0
35328,note_on,144,0,1,,,,,,,,,1,,,72,45
35328,note_on,32,0,2,,,,,,,,,2,,,69,45
35328,note_on,144,0,3,,,,,,,,,3,,,57,45
35328,note_on,144,0,4,,,,,,,,,4,,,41,45
35376,note_on,48,0,4,,,,,,,,,4,,,41,0
35376,note_on,48,0,2,,,,,,,,,2,,,69,0
35376,note_on,48,0,3,,,,,,,,,3,,,57,0
35488,note_on,160,0,1,,,,,,,,,1,,,72,0
35520,note_on,32,0,1,,,,,,,,,1,,,72,45
35520,note_on,144,0,2,,,,,,,,,2,,,67,45
35520,note_on,144,0,4,,,,,,,,,4,,,43,45
35520,note_on,144,0,3,,,,,,,,,3,,,58,45
35568,note_on,48,0,4,,,,,,,,,4,,,43,0
35568,note_on,48,0,3,,,,,,,,,3,,,58,0
35568,note_on,48,0,2,,,,,,,,,2,,,67,0
35680,note_on,160,0,1,,,,,,,,,1,,,72,0
35712,note_on,144,0,3,,,,,,,,,3,,,60,45
35712,note_on,32,0,1,,,,,,,,,1,,,72,45
35712,note_on,144,0,4,,,,,,,,,4,,,45,45
35712,note_on,144,0,2,,,,,,,,,2,,,65,45
35760,note_on,48,0,2,,,,,,,,,2,,,65,0
35760,note_on,48,0,4,,,,,,,,,4,,,45,0
35760,note_on,48,0,3,,,,,,,,,3,,,60,0
35872,note_on,160,0,1,,,,,,,,,1,,,72,0
35904,note_on,144,0,3,,,,,,,,,3,,,55,45
35904,note_on,144,0,4,,,,,,,,,4,,,36,45
35904,note_on,144,0,2,,,,,,,,,2,,,58,45
35904,note_on,32,0,1,,,,,,,,,1,,,76,45
36064,note_on,160,0,2,,,,,,,,,2,,,58,0
36096,note_on,192,0,1,,,,,,,,,1,,,76,0
36096,note_on,32,0,2,,,,,,,,,2,,,70,43
36096,note_on,0,0,4,,,,,,,,,4,,,38,43
36096,note_on,192,0,4,,,,,,,,,4,,,36,0
36096,note_on,0,0,1,,,,,,,,,1,,,77,43
36096,note_on,0,0,3,,,,,,,,,3,,,53,43
36096,note_on,192,0,3,,,,,,,,,3,,,55,0
36256,note_on,160,0,4,,,,,,,,,4,,,38,0
36256,note_on,160,0,1,,,,,,,,,1,,,77,0
36256,note_on,160,0,3,,,,,,,,,3,,,53,0
36256,note_on,160,0,2,,,,,,,,,2,,,70,0
36288,note_on,32,0,1,,,,,,,,,1,,,79,41
36288,note_on,32,0,3,,,,,,,,,3,,,52,41
36288,note_on,32,0,2,,,,,,,,,2,,,70,41
36288,note_on,32,0,4,,,,,,,,,4,,,40,41
36336,note_on,48,0,3,,,,,,,,,3,,,52,0
36336,note_on,48,0,4,,,,,,,,,4,,,40,0
36336,note_on,48,0,1,,,,,,,,,1,,,79,0
36448,note_on,160,0,2,,,,,,,,,2,,,70,0
36480,note_on,144,0,1,,,,,,,,,1,,,72,39
36480,note_on,144,0,4,,,,,,,,,4,,,41,39
36480,note_on,32,0,2,,,,,,,,,2,,,69,39
36480,note_on,144,0,3,,,,,,,,,3,,,57,39
36528,note_on,48,0,3,,,,,,,,,3,,,57,0
36528,note_on,48,0,4,,,,,,,,,4,,,41,0
36528,note_on,48,0,2,,,,,,,,,2,,,69,0
36640,note_on,160,0,1,,,,,,,,,1,,,72,0
36672,note_on,144,0,4,,,,,,,,,4,,,43,36
36672,note_on,144,0,3,,,,,,,,,3,,,58,36
36672,note_on,144,0,2,,,,,,,,,2,,,67,36
36672,note_on,32,0,1,,,,,,,,,1,,,72,36
36720,note_on,48,0,3,,,,,,,,,3,,,58,0
36720,note_on,48,0,4,,,,,,,,,4,,,43,0
36720,note_on,48,0,2,,,,,,,,,2,,,67,0
36832,note_on,160,0,1,,,,,,,,,1,,,72,0
36864,note_on,144,0,2,,,,,,,,,2,,,65,33
36864,note_on,144,0,4,,,,,,,,,4,,,45,33
36864,note_on,32,0,1,,,,,,,,,1,,,72,33
36864,note_on,144,0,3,,,,,,,,,3,,,60,33
36912,note_on,48,0,4,,,,,,,,,4,,,45,0
36912,note_on,48,0,2,,,,,,,,,2,,,65,0
36912,note_on,48,0,3,,,,,,,,,3,,,60,0
37024,note_on,160,0,1,,,,,,,,,1,,,72,0
37056,note_on,144,0,3,,,,,,,,,3,,,55,30
37056,note_on,144,0,4,,,,,,,,,4,,,36,30
37056,note_on,144,0,2,,,,,,,,,2,,,58,30
37056,note_on,32,0,1,,,,,,,,,1,,,76,30
37216,note_on,160,0,2,,,,,,,,,2,,,58,0
37248,note_on,0,0,1,,,,,,,,,1,,,77,30
37248,note_on,192,0,3,,,,,,,,,3,,,55,0
37248,note_on,32,0,2,,,,,,,,,2,,,70,30
37248,note_on,0,0,3,,,,,,,,,3,,,53,30
37248,note_on,192,0,4,,,,,,,,,4,,,36,0
37248,note_on,0,0,4,,,,,,,,,4,,,38,30
37248,note_on,192,0,1,,,,,,,,,1,,,76,0
37408,note_on,160,0,3,,,,,,,,,3,,,53,0
37408,note_on,160,0,4,,,,,,,,,4,,,38,0
37408,note_on,160,0,2,,,,,,,,,2,,,70,0
37408,note_on,160,0,1,,,,,,,,,1,,,77,0
37440,note_on,32,0,2,,,,,,,,,2,,,70,30
37440,note_on,32,0,1,,,,,,,,,1,,,79,30
37440,note_on,32,0,3,,,,,,,,,3,,,52,30
37440,note_on,32,0,4,,,,,,,,,4,,,40,30
37488,note_on,48,0,3,,,,,,,,,3,,,52,0
37488,note_on,48,0,4,,,,,,,,,4,,,40,0
37488,note_on,48,0,1,,,,,,,,,1,,,79,0
37600,note_on,160,0,2,,,,,,,,,2,,,70,0
37632,note_on,144,0,4,,,,,,,,,4,,,41,92
37632,note_on,144,0,1,,,,,,,,,1,,,72,92
37632,note_on,144,0,3,,,,,,,,,3,,,53,92
37632,note_on,32,0,2,,,,,,,,,2,,,69,92
37792,note_on,160,0,1,,,,,,,,,1,,,72,0
37792,note_on,160,0,2,,,,,,,,,2,,,69,0
37792,note_on,160,0,4,,,,,,,,,4,,,41,0
37792,note_on,160,0,3,,,,,,,,,3,,,53,0
37824,note_on,32,0,1,,,,,,,,,1,,,63,127
37824,note_on,32,0,4,,,,,,,,,4,,,39,127
37824,note_on,32,0,3,,,,,,,,,3,,,51,127
38160,note_on,336,0,1,,,,,,,,,1,,,63,0
38160,note_on,336,0,3,,,,,,,,,3,,,51,0
38160,note_on,336,0,4,,,,,,,,,4,,,39,0
38400,note_on,240,0,4,,,,,,,,,4,,,39,89
38400,note_on,240,0,3,,,,,,,,,3,,,51,89
38736,note_on,336,0,4,,,,,,,,,4,,,39,0
38736,note_on,336,0,3,,,,,,,,,3,,,51,0
38784,note_on,48,0,4,,,,,,,,,4,,,39,82
38784,note_on,48,0,3,,,,,,,,,3,,,51,82
39120,note_on,336,0,3,,,,,,,,,3,,,51,0
39120,note_on,336,0,4,,,,,,,,,4,,,39,0
39168,note_on,48,0,3,,,,,,,,,3,,,51,75
39168,note_on,48,0,4,,,,,,,,,4,,,39,75
39328,note_on,160,0,3,,,,,,,,,3,,,51,0
39328,note_on,160,0,4,,,,,,,,,4,,,39,0
39552,note_on,224,0,3,,,,,,,,,3,,,51,69
39552,note_on,1392,0,1,,,,,,,,,1,,,63,68
39552,note_on,224,0,4,,,,,,,,,4,,,39,69
39888,note_on,336,0,1,,,,,,,,,1,,,63,0
39888,note_on,336,0,4,,,,,,,,,4,,,39,0
39888,note_on,336,0,3,,,,,,,,,3,,,51,0
39936,note_on,48,0,1,,,,,,,,,1,,,63,61
39936,note_on,48,0,4,,,,,,,,,4,,,39,61
39936,note_on,48,0,3,,,,,,,,,3,,,51,61
40272,note_on,336,0,4,,,,,,,,,4,,,39,0
40272,note_on,336,0,1,,,,,,,,,1,,,63,0
40272,note_on,336,0,3,,,,,,,,,3,,,51,0
40320,note_on,48,0,1,,,,,,,,,1,,,63,53
40320,note_on,48,0,3,,,,,,,,,3,,,51,53
40320,note_on,48,0,4,,,,,,,,,4,,,39,53
40480,note_on,160,0,4,,,,,,,,,4,,,39,0
40480,note_on,160,0,1,,,,,,,,,1,,,63,0
40480,note_on,160,0,3,,,,,,,,,3,,,51,0
40704,note_on,224,0,1,,,,,,,,,1,,,63,45
40704,note_on,224,0,3,,,,,,,,,3,,,51,45
40704,note_on,224,0,4,,,,,,,,,4,,,39,45
41040,note_on,336,0,3,,,,,,,,,3,,,51,0
41040,note_on,336,0,4,,,,,,,,,4,,,39,0
41040,note_on,336,0,1,,,,,,,,,1,,,63,0
41280,note_on,240,0,1,,,,,,,,,1,,,63,45
41280,note_on,240,0,3,,,,,,,,,3,,,51,45
41280,note_on,240,0,4,,,,,,,,,4,,,39,45
41616,note_on,336,0,3,,,,,,,,,3,,,51,0
41616,note_on,336,0,4,,,,,,,,,4,,,39,0
41616,note_on,336,0,1,,,,,,,,,1,,,63,0
41856,note_on,240,0,3,,,,,,,,,3,,,52,30
41856,note_on,240,0,1,,,,,,,,,1,,,64,30
41856,note_on,240,0,4,,,,,,,,,4,,,40,30
42192,note_on,336,0,3,,,,,,,,,3,,,52,0
42192,note_on,336,0,1,,,,,,,,,1,,,64,0
42192,note_on,336,0,4,,,,,,,,,4,,,40,0
42432,note_on,240,0,4,,,,,,,,,4,,,36,30
42432,note_on,240,0,3,,,,,,,,,3,,,52,30
42432,note_on,240,0,1,,,,,,,,,1,,,64,30
42768,note_on,336,0,3,,,,,,,,,3,,,52,0
42768,note_on,336,0,1,,,,,,,,,1,,,64,0
42816,note_on,48,0,3,,,,,,,,,3,,,53,35
42976,note_on,160,0,3,,,,,,,,,3,,,53,0
43008,note_on,32,0,3,,,,,,,,,3,,,48,37
43008,note_on,240,0,1,,,,,,,,,1,,,69,36
43152,note_on,720,0,4,,,,,,,,,4,,,36,0
43200,note_on,192,0,3,,,,,,,,,3,,,57,39
43200,note_on,5408,0,2,,,,,,,,,2,,,65,38
43200,note_on,48,0,4,,,,,,,,,4,,,36,40
43392,note_on,0,0,3,,,,,,,,,3,,,59,41
43392,note_on,192,0,3,,,,,,,,,3,,,57,0
43552,note_on,0,0,3,,,,,,,,,3,,,59,0
43552,note_on,160,0,3,,,,,,,,,3,,,48,0
43552,note_on,544,0,1,,,,,,,,,1,,,69,0
43584,note_on,32,0,3,,,,,,,,,3,,,48,43
43584,note_on,32,0,1,,,,,,,,,1,,,67,42
43728,note_on,528,0,4,,,,,,,,,4,,,36,0
43776,note_on,576,0,2,,,,,,,,,2,,,65,0
43776,note_on,0,0,2,,,,,,,,,2,,,64,44
43776,note_on,192,0,3,,,,,,,,,3,,,60,45
43776,note_on,48,0,4,,,,,,,,,4,,,36,47
43968,note_on,192,0,3,,,,,,,,,3,,,60,0
43968,note_on,192,0,2,,,,,,,,,2,,,64,0
43968,note_on,0,0,3,,,,,,,,,3,,,62,47
43968,note_on,0,0,2,,,,,,,,,2,,,57,46
44128,note_on,544,0,1,,,,,,,,,1,,,67,0
44128,note_on,160,0,3,,,,,,,,,3,,,48,0
44128,note_on,0,0,3,,,,,,,,,3,,,62,0
44160,note_on,32,0,1,,,,,,,,,1,,,65,49
44160,note_on,32,0,3,,,,,,,,,3,,,48,49
44304,note_on,528,0,4,,,,,,,,,4,,,36,0
44352,note_on,0,0,2,,,,,,,,,2,,,56,51
44352,note_on,192,0,3,,,,,,,,,3,,,60,51
44352,note_on,384,0,2,,,,,,,,,2,,,57,0
44352,note_on,48,0,4,,,,,,,,,4,,,36,54
44544,note_on,0,0,3,,,,,,,,,3,,,59,53
44544,note_on,0,0,2,,,,,,,,,2,,,62,53
44544,note_on,192,0,2,,,,,,,,,2,,,56,0
44544,note_on,192,0,3,,,,,,,,,3,,,60,0
44704,note_on,544,0,1,,,,,,,,,1,,,65,0
44704,note_on,0,0,3,,,,,,,,,3,,,59,0
44704,note_on,160,0,3,,,,,,,,,3,,,48,0
44736,note_on,32,0,3,,,,,,,,,3,,,48,56
44736,note_on,32,0,1,,,,,,,,,1,,,67,56
44880,note_on,528,0,4,,,,,,,,,4,,,36,0
44928,note_on,192,0,3,,,,,,,,,3,,,48,0
44928,note_on,0,0,3,,,,,,,,,3,,,49,59
44928,note_on,0,0,3,,,,,,,,,3,,,58,59
44928,note_on,384,0,2,,,,,,,,,2,,,62,0
44928,note_on,0,0,2,,,,,,,,,2,,,64,58
44928,note_on,48,0,4,,,,,,,,,4,,,36,61
45120,note_on,0,0,3,,,,,,,,,3,,,57,62
45120,note_on,0,0,3,,,,,,,,,3,,,48,62
45120,note_on,0,0,3,,,,,,,,,3,,,58,0
45120,note_on,192,0,3,,,,,,,,,3,,,49,0
45280,note_on,0,0,3,,,,,,,,,3,,,57,0
45280,note_on,544,0,1,,,,,,,,,1,,,67,0
45280,note_on,160,0,3,,,,,,,,,3,,,48,0
45280,note_on,352,0,2,,,,,,,,,2,,,64,0
45312,note_on,32,0,2,,,,,,,,,2,,,57,62
45312,note_on,32,0,3,,,,,,,,,3,,,48,65
45312,note_on,32,0,1,,,,,,,,,1,,,69,63
45456,note_on,528,0,4,,,,,,,,,4,,,36,0
45504,note_on,0,0,2,,,,,,,,,2,,,65,64
45504,note_on,192,0,2,,,,,,,,,2,,,57,0
45504,note_on,192,0,3,,,,,,,,,3,,,57,68
45504,note_on,48,0,4,,,,,,,,,4,,,36,68
45696,note_on,0,0,3,,,,,,,,,3,,,59,71
45696,note_on,192,0,3,,,,,,,,,3,,,57,0
45856,note_on,352,0,2,,,,,,,,,2,,,65,0
45856,note_on,0,0,3,,,,,,,,,3,,,59,0
45856,note_on,544,0,1,,,,,,,,,1,,,69,0
45856,note_on,160,0,3,,,,,,,,,3,,,48,0
45888,note_on,32,0,3,,,,,,,,,3,,,48,74
45888,note_on,32,0,2,,,,,,,,,2,,,65,68
45888,note_on,32,0,1,,,,,,,,,1,,,67,70
46032,note_on,528,0,4,,,,,,,,,4,,,36,0
46080,note_on,192,0,2,,,,,,,,,2,,,65,0
46080,note_on,48,0,4,,,,,,,,,4,,,36,77
46080,note_on,192,0,3,,,,,,,,,3,,,60,77
46080,note_on,0,0,2,,,,,,,,,2,,,64,71
46240,note_on,160,0,2,,,,,,,,,2,,,64,0
46272,note_on,32,0,2,,,,,,,,,2,,,56,74
46272,note_on,0,0,3,,,,,,,,,3,,,59,80
46272,note_on,192,0,3,,,,,,,,,3,,,60,0
46320,note_on,432,0,1,,,,,,,,,1,,,67,0
46432,note_on,0,0,3,,,,,,,,,3,,,59,0
46432,note_on,160,0,3,,,,,,,,,3,,,48,0
46464,note_on,32,0,3,,,,,,,,,3,,,48,83
46464,note_on,144,0,1,,,,,,,,,1,,,65,77
46464,note_on,192,0,2,,,,,,,,,2,,,62,77
46512,note_on,48,0,1,,,,,,,,,1,,,65,0
46608,note_on,528,0,4,,,,,,,,,4,,,36,0
46608,note_on,144,0,2,,,,,,,,,2,,,56,0
46624,note_on,16,0,2,,,,,,,,,2,,,62,0
46656,note_on,48,0,4,,,,,,,,,4,,,36,86
46656,note_on,192,0,3,,,,,,,,,3,,,58,86
46656,note_on,0,0,2,,,,,,,,,2,,,64,80
46656,note_on,32,0,2,,,,,,,,,2,,,55,80
46656,note_on,144,0,1,,,,,,,,,1,,,67,80
46704,note_on,48,0,1,,,,,,,,,1,,,67,0
46816,note_on,160,0,2,,,,,,,,,2,,,55,0
46816,note_on,0,0,2,,,,,,,,,2,,,64,0
46848,note_on,144,0,1,,,,,,,,,1,,,65,83
46848,note_on,192,0,3,,,,,,,,,3,,,58,0
46848,note_on,32,0,2,,,,,,,,,2,,,57,83
47008,note_on,352,0,4,,,,,,,,,4,,,36,0
47008,note_on,160,0,1,,,,,,,,,1,,,65,0
47008,note_on,160,0,2,,,,,,,,,2,,,57,0
47008,note_on,160,0,3,,,,,,,,,3,,,48,0
47040,note_on,32,0,3,,,,,,,,,3,,,53,92
47040,note_on,32,0,4,,,,,,,,,4,,,41,92
47088,note_on,48,0,4,,,,,,,,,4,,,41,0
47088,note_on,48,0,3,,,,,,,,,3,,,53,0
47232,note_on,144,0,3,,,,,,,,,3,,,55,92
47232,note_on,144,0,4,,,,,,,,,4,,,43,92
47424,note_on,416,0,1,,,,,,,,,1,,,77,92
47424,note_on,416,0,2,,,,,,,,,2,,,65,92
47472,note_on,48,0,1,,,,,,,,,1,,,77,0
47472,note_on,48,0,2,,,,,,,,,2,,,65,0
47584,note_on,352,0,4,,,,,,,,,4,,,43,0
47584,note_on,352,0,3,,,,,,,,,3,,,55,0
47616,note_on,32,0,3,,,,,,,,,3,,,57,92
47616,note_on,32,0,4,,,,,,,,,4,,,45,92
47808,note_on,336,0,1,,,,,,,,,1,,,81,92
47808,note_on,336,0,2,,,,,,,,,2,,,69,92
47856,note_on,48,0,1,,,,,,,,,1,,,81,0
47856,note_on,48,0,2,,,,,,,,,2,,,69,0
48000,note_on,144,0,2,,,,,,,,,2,,,70,92
48000,note_on,144,0,1,,,,,,,,,1,,,82,92
48048,note_on,48,0,2,,,,,,,,,2,,,70,0
48048,note_on,48,0,1,,,,,,,,,1,,,82,0
48160,note_on,544,0,3,,,,,,,,,3,,,57,0
48160,note_on,544,0,4,,,,,,,,,4,,,45,0
48192,note_on,32,0,3,,,,,,,,,3,,,55,92
48192,note_on,32,0,4,,,,,,,,,4,,,43,92
48384,note_on,336,0,1,,,,,,,,,1,,,84,92
48384,note_on,336,0,2,,,,,,,,,2,,,72,92
48544,note_on,160,0,1,,,,,,,,,1,,,84,0
48544,note_on,160,0,2,,,,,,,,,2,,,72,0
48576,note_on,32,0,1,,,,,,,,,1,,,86,92
48576,note_on,32,0,2,,,,,,,,,2,,,74,92
48736,note_on,160,0,2,,,,,,,,,2,,,74,0
48736,note_on,544,0,4,,,,,,,,,4,,,43,0
48736,note_on,160,0,1,,,,,,,,,1,,,86,0
48736,note_on,544,0,3,,,,,,,,,3,,,55,0
48768,note_on,32,0,3,,,,,,,,,3,,,53,92
48768,note_on,32,0,4,,,,,,,,,4,,,41,92
48960,note_on,224,0,1,,,,,,,,,1,,,84,92
48960,note_on,224,0,2,,,,,,,,,2,,,72,92
49120,note_on,160,0,1,,,,,,,,,1,,,84,0
49120,note_on,160,0,2,,,,,,,,,2,,,72,0
49152,note_on,32,0,2,,,,,,,,,2,,,70,92
49152,note_on,32,0,1,,,,,,,,,1,,,82,92
49312,note_on,544,0,3,,,,,,,,,3,,,53,0
49312,note_on,544,0,4,,,,,,,,,4,,,41,0
49312,note_on,160,0,1,,,,,,,,,1,,,82,0
49312,note_on,160,0,2,,,,,,,,,2,,,70,0
49344,note_on,32,0,4,,,,,,,,,4,,,43,92
49344,note_on,32,0,3,,,,,,,,,3,,,55,92
49536,note_on,224,0,2,,,,,,,,,2,,,67,92
49536,note_on,224,0,1,,,,,,,,,1,,,79,92
49696,note_on,160,0,1,,,,,,,,,1,,,79,0
49696,note_on,160,0,2,,,,,,,,,2,,,67,0
49728,note_on,32,0,2,,,,,,,,,2,,,65,92
49728,note_on,32,0,1,,,,,,,,,1,,,77,92
49888,note_on,544,0,3,,,,,,,,,3,,,55,0
49888,note_on,544,0,4,,,,,,,,,4,,,43,0
49888,note_on,160,0,1,,,,,,,,,1,,,77,0
49888,note_on,160,0,2,,,,,,,,,2,,,65,0
49920,note_on,32,0,3,,,,,,,,,3,,,57,92
49920,note_on,32,0,4,,,,,,,,,4,,,45,92
50112,note_on,224,0,2,,,,,,,,,2,,,69,92
50112,note_on,224,0,1,,,,,,,,,1,,,81,92
50272,note_on,160,0,2,,,,,,,,,2,,,69,0
50272,note_on,160,0,1,,,,,,,,,1,,,81,0
50304,note_on,32,0,1,,,,,,,,,1,,,82,82
50304,note_on,32,0,2,,,,,,,,,2,,,70,82
50464,note_on,160,0,1,,,,,,,,,1,,,82,0
50464,note_on,544,0,4,,,,,,,,,4,,,45,0
50464,note_on,544,0,3,,,,,,,,,3,,,57,0
50464,note_on,160,0,2,,,,,,,,,2,,,70,0
50496,note_on,32,0,3,,,,,,,,,3,,,55,62
50496,note_on,32,0,4,,,,,,,,,4,,,43,62
50688,note_on,224,0,1,,,,,,,,,1,,,84,62
50688,note_on,224,0,2,,,,,,,,,2,,,72,62
50848,note_on,160,0,1,,,,,,,,,1,,,84,0
50848,note_on,160,0,2,,,,,,,,,2,,,72,0
50880,note_on,32,0,2,,,,,,,,,2,,,74,52
50880,note_on,32,0,1,,,,,,,,,1,,,86,52
51040,note_on,544,0,4,,,,,,,,,4,,,43,0
51040,note_on,160,0,2,,,,,,,,,2,,,74,0
51040,note_on,160,0,1,,,,,,,,,1,,,86,0
51040,note_on,544,0,3,,,,,,,,,3,,,55,0
51072,note_on,32,0,3,,,,,,,,,3,,,53,30
51072,note_on,32,0,4,,,,,,,,,4,,,41,30
51120,note_on,48,0,3,,,,,,,,,3,,,53,0
51120,note_on,48,0,4,,,,,,,,,4,,,41,0
51264,note_on,224,0,1,,,,,,,,,1,,,84,30
51264,note_on,224,0,2,,,,,,,,,2,,,64,30
51264,note_on,144,0,3,,,,,,,,,3,,,55,30
51264,note_on,144,0,4,,,,,,,,,4,,,43,30
51264,note_on,0,0,2,,,,,,,,,2,,,72,30
51312,note_on,48,0,3,,,,,,,,,3,,,55,0
51312,note_on,48,0,4,,,,,,,,,4,,,43,0
51424,note_on,0,0,2,,,,,,,,,2,,,72,0
51424,note_on,160,0,2,,,,,,,,,2,,,64,0
51424,note_on,160,0,1,,,,,,,,,1,,,84,0
51456,note_on,144,0,3,,,,,,,,,3,,,53,30
51456,note_on,32,0,1,,,,,,,,,1,,,84,30
51456,note_on,0,0,2,,,,,,,,,2,,,72,30
51456,note_on,32,0,2,,,,,,,,,2,,,69,30
51456,note_on,144,0,4,,,,,,,,,4,,,41,30
51504,note_on,48,0,1,,,,,,,,,1,,,84,0
51504,note_on,48,0,4,,,,,,,,,4,,,41,0
51504,note_on,48,0,2,,,,,,,,,2,,,69,0
51504,note_on,0,0,2,,,,,,,,,2,,,72,0
51504,note_on,48,0,3,,,,,,,,,3,,,53,0
51648,note_on,144,0,1,,,,,,,,,1,,,84,30
51648,note_on,144,0,3,,,,,,,,,3,,,57,30
51648,note_on,144,0,2,,,,,,,,,2,,,72,30
51696,note_on,48,0,1,,,,,,,,,1,,,84,0
51696,note_on,48,0,3,,,,,,,,,3,,,57,0
51696,note_on,48,0,2,,,,,,,,,2,,,72,0
51840,note_on,144,0,1,,,,,,,,,1,,,87,30
51840,note_on,144,0,3,,,,,,,,,3,,,53,30
51840,note_on,144,0,2,,,,,,,,,2,,,69,30
51888,note_on,48,0,2,,,,,,,,,2,,,69,0
51888,note_on,48,0,3,,,,,,,,,3,,,53,0
51888,note_on,48,0,1,,,,,,,,,1,,,87,0
52032,note_on,144,0,2,,,,,,,,,2,,,65,30
52032,note_on,144,0,3,,,,,,,,,3,,,58,30
52032,note_on,144,0,1,,,,,,,,,1,,,86,30
52080,note_on,48,0,3,,,,,,,,,3,,,58,0
52080,note_on,48,0,2,,,,,,,,,2,,,65,0
52080,note_on,48,0,1,,,,,,,,,1,,,86,0
52224,note_on,720,0,4,,,,,,,,,4,,,41,30
52272,note_on,48,0,4,,,,,,,,,4,,,41,0
52416,note_on,144,0,4,,,,,,,,,4,,,43,30
52464,note_on,48,0,4,,,,,,,,,4,,,43,0
52608,note_on,144,0,4,,,,,,,,,4,,,41,30
52656,note_on,48,0,4,,,,,,,,,4,,,41,0
52800,note_on,720,0,1,,,,,,,,,1,,,88,30
52800,note_on,0,0,2,,,,,,,,,2,,,74,30
52800,note_on,720,0,2,,,,,,,,,2,,,65,30
52800,note_on,720,0,3,,,,,,,,,3,,,58,30
52848,note_on,0,0,2,,,,,,,,,2,,,74,0
52848,note_on,48,0,2,,,,,,,,,2,,,65,0
52848,note_on,48,0,3,,,,,,,,,3,,,58,0
52848,note_on,48,0,1,,,,,,,,,1,,,88,0
52992,note_on,144,0,2,,,,,,,,,2,,,65,30
52992,note_on,144,0,3,,,,,,,,,3,,,58,30
52992,note_on,144,0,1,,,,,,,,,1,,,89,30
52992,note_on,0,0,2,,,,,,,,,2,,,74,30
53040,note_on,0,0,2,,,,,,,,,2,,,74,0
53040,note_on,48,0,2,,,,,,,,,2,,,65,0
53040,note_on,48,0,3,,,,,,,,,3,,,58,0
53040,note_on,48,0,1,,,,,,,,,1,,,89,0
53184,note_on,144,0,3,,,,,,,,,3,,,65,30
53184,note_on,144,0,1,,,,,,,,,1,,,84,30
53184,note_on,144,0,2,,,,,,,,,2,,,69,30
53232,note_on,48,0,1,,,,,,,,,1,,,84,0
53344,note_on,160,0,2,,,,,,,,,2,,,69,0
53344,note_on,160,0,3,,,,,,,,,3,,,65,0
53376,note_on,720,0,4,,,,,,,,,4,,,41,30
53376,note_on,32,0,3,,,,,,,,,3,,,65,30
53376,note_on,32,0,2,,,,,,,,,2,,,77,30
53424,note_on,48,0,4,,,,,,,,,4,,,41,0
53536,note_on,160,0,2,,,,,,,,,2,,,77,0
53536,note_on,160,0,3,,,,,,,,,3,,,65,0
53568,note_on,32,0,3,,,,,,,,,3,,,67,30
53568,note_on,32,0,2,,,,,,,,,2,,,79,30
53568,note_on,144,0,4,,,,,,,,,4,,,39,30
53616,note_on,48,0,4,,,,,,,,,4,,,39,0
53728,note_on,160,0,3,,,,,,,,,3,,,67,0
53728,note_on,160,0,2,,,,,,,,,2,,,79,0
53760,note_on,32,0,3,,,,,,,,,3,,,66,30
53760,note_on,32,0,2,,,,,,,,,2,,,78,30
53760,note_on,144,0,4,,,,,,,,,4,,,38,30
53808,note_on,48,0,4,,,,,,,,,4,,,38,0
53920,note_on,160,0,2,,,,,,,,,2,,,78,0
53920,note_on,160,0,3,,,,,,,,,3,,,66,0
53952,note_on,144,0,4,,,,,,,,,4,,,40,30
53952,note_on,32,0,3,,,,,,,,,3,,,67,30
53952,note_on,32,0,2,,,,,,,,,2,,,82,30
53952,note_on,720,0,1,,,,,,,,,1,,,86,30
54000,note_on,48,0,4,,,,,,,,,4,,,40,0
54112,note_on,160,0,2,,,,,,,,,2,,,82,0
54112,note_on,160,0,1,,,,,,,,,1,,,86,0
54112,note_on,160,0,3,,,,,,,,,3,,,67,0
54144,note_on,32,0,2,,,,,,,,,2,,,81,30
54144,note_on,32,0,3,,,,,,,,,3,,,69,30
54144,note_on,144,0,4,,,,,,,,,4,,,42,30
54144,note_on,32,0,1,,,,,,,,,1,,,84,30
54192,note_on,48,0,4,,,,,,,,,4,,,42,0
54304,note_on,160,0,2,,,,,,,,,2,,,81,0
54304,note_on,160,0,3,,,,,,,,,3,,,69,0
54304,note_on,160,0,1,,,,,,,,,1,,,84,0
54336,note_on,144,0,4,,,,,,,,,4,,,43,30
54336,note_on,32,0,2,,,,,,,,,2,,,81,30
54336,note_on,32,0,1,,,,,,,,,1,,,84,30
54336,note_on,32,0,3,,,,,,,,,3,,,62,30
54384,note_on,48,0,1,,,,,,,,,1,,,84,0
54384,note_on,48,0,2,,,,,,,,,2,,,81,0
54496,note_on,160,0,3,,,,,,,,,3,,,62,0
54496,note_on,160,0,4,,,,,,,,,4,,,43,0
54528,note_on,32,0,4,,,,,,,,,4,,,43,30
54528,note_on,32,0,3,,,,,,,,,3,,,64,30
54528,note_on,144,0,1,,,,,,,,,1,,,82,30
54528,note_on,144,0,2,,,,,,,,,2,,,79,30
54576,note_on,48,0,1,,,,,,,,,1,,,82,0
54576,note_on,48,0,2,,,,,,,,,2,,,79,0
54688,note_on,160,0,4,,,,,,,,,4,,,43,0
54688,note_on,160,0,3,,,,,,,,,3,,,64,0
54720,note_on,32,0,4,,,,,,,,,4,,,45,30
54720,note_on,32,0,3,,,,,,,,,3,,,60,30
54720,note_on,144,0,2,,,,,,,,,2,,,77,30
54720,note_on,144,0,1,,,,,,,,,1,,,81,30
54768,note_on,48,0,1,,,,,,,,,1,,,81,0
54768,note_on,48,0,2,,,,,,,,,2,,,77,0
54880,note_on,160,0,3,,,,,,,,,3,,,60,0
54880,note_on,160,0,4,,,,,,,,,4,,,45,0
54912,note_on,144,0,2,,,,,,,,,2,,,77,30
54912,note_on,144,0,1,,,,,,,,,1,,,81,30
54912,note_on,32,0,3,,,,,,,,,3,,,62,30
54912,note_on,32,0,4,,,,,,,,,4,,,46,30
55072,note_on,160,0,4,,,,,,,,,4,,,46,0
55104,note_on,192,0,1,,,,,,,,,1,,,81,0
55104,note_on,32,0,4,,,,,,,,,4,,,46,30
55104,note_on,0,0,1,,,,,,,,,1,,,82,30
55104,note_on,0,0,2,,,,,,,,,2,,,74,30
55104,note_on,192,0,2,,,,,,,,,2,,,77,0
55104,note_on,0,0,3,,,,,,,,,3,,,55,30
55104,note_on,192,0,3,,,,,,,,,3,,,62,0
55264,note_on,160,0,1,,,,,,,,,1,,,82,0
55264,note_on,160,0,3,,,,,,,,,3,,,55,0
55264,note_on,160,0,2,,,,,,,,,2,,,74,0
55264,note_on,160,0,4,,,,,,,,,4,,,46,0
55296,note_on,32,0,4,,,,,,,,,4,,,48,30
55296,note_on,32,0,3,,,,,,,,,3,,,60,30
55296,note_on,32,0,2,,,,,,,,,2,,,70,30
55296,note_on,0,0,2,,,,,,,,,2,,,76,30
55296,note_on,32,0,1,,,,,,,,,1,,,79,30
55344,note_on,48,0,3,,,,,,,,,3,,,60,0
55344,note_on,0,0,2,,,,,,,,,2,,,76,0
55344,note_on,48,0,2,,,,,,,,,2,,,70,0
55344,note_on,48,0,1,,,,,,,,,1,,,79,0
55456,note_on,160,0,4,,,,,,,,,4,,,48,0
55488,note_on,144,0,2,,,,,,,,,2,,,69,30
55488,note_on,144,0,3,,,,,,,,,3,,,60,30
55488,note_on,32,0,4,,,,,,,,,4,,,41,30
55488,note_on,144,0,1,,,,,,,,,1,,,81,30
55536,note_on,48,0,2,,,,,,,,,2,,,69,0
55536,note_on,48,0,1,,,,,,,,,1,,,81,0
55648,note_on,160,0,4,,,,,,,,,4,,,41,0
55648,note_on,160,0,3,,,,,,,,,3,,,60,0
55680,note_on,144,0,1,,,,,,,,,1,,,77,30
55680,note_on,144,0,2,,,,,,,,,2,,,65,30
55728,note_on,48,0,2,,,,,,,,,2,,,65,0
55728,note_on,48,0,1,,,,,,,,,1,,,77,0
55872,note_on,144,0,2,,,,,,,,,2,,,67,30
55872,note_on,144,0,1,,,,,,,,,1,,,79,30
55920,note_on,48,0,2,,,,,,,,,2,,,67,0
55920,note_on,48,0,1,,,,,,,,,1,,,79,0
56064,note_on,144,0,1,,,,,,,,,1,,,77,30
56064,note_on,144,0,2,,,,,,,,,2,,,65,30
56224,note_on,160,0,2,,,,,,,,,2,,,65,0
56224,note_on,160,0,1,,,,,,,,,1,,,77,0
56256,note_on,608,0,4,,,,,,,,,4,,,60,30
56256,note_on,608,0,3,,,,,,,,,3,,,57,30
56304,note_on,48,0,4,,,,,,,,,4,,,60,0
56304,note_on,48,0,3,,,,,,,,,3,,,57,0
56448,note_on,144,0,4,,,,,,,,,4,,,63,30
56448,note_on,144,0,3,,,,,,,,,3,,,60,30
56496,note_on,48,0,4,,,,,,,,,4,,,63,0
56496,note_on,48,0,3,,,,,,,,,3,,,60,0
56640,note_on,144,0,4,,,,,,,,,4,,,62,30
56640,note_on,144,0,3,,,,,,,,,3,,,58,30
56800,note_on,160,0,3,,,,,,,,,3,,,58,0
56800,note_on,160,0,4,,,,,,,,,4,,,62,0
56832,note_on,608,0,2,,,,,,,,,2,,,65,30
56832,note_on,608,0,1,,,,,,,,,1,,,77,30
56992,note_on,160,0,1,,,,,,,,,1,,,77,0
56992,note_on,160,0,2,,,,,,,,,2,,,65,0
57024,note_on,32,0,2,,,,,,,,,2,,,67,30
57024,note_on,32,0,1,,,,,,,,,1,,,79,30
57184,note_on,160,0,1,,,,,,,,,1,,,79,0
57184,note_on,160,0,2,,,,,,,,,2,,,67,0
57216,note_on,32,0,1,,,,,,,,,1,,,77,30
57216,note_on,32,0,2,,,,,,,,,2,,,65,30
57376,note_on,160,0,1,,,,,,,,,1,,,77,0
57376,note_on,160,0,2,,,,,,,,,2,,,65,0
57408,note_on,608,0,4,,,,,,,,,4,,,64,30
57408,note_on,608,0,3,,,,,,,,,3,,,58,30
57568,note_on,160,0,3,,,,,,,,,3,,,58,0
57568,note_on,160,0,4,,,,,,,,,4,,,64,0
57600,note_on,32,0,4,,,,,,,,,4,,,65,30
57600,note_on,32,0,3,,,,,,,,,3,,,58,30
57760,note_on,160,0,4,,,,,,,,,4,,,65,0
57760,note_on,160,0,3,,,,,,,,,3,,,58,0
57792,note_on,32,0,4,,,,,,,,,4,,,60,30
57792,note_on,32,0,3,,,,,,,,,3,,,57,30
57952,note_on,160,0,4,,,,,,,,,4,,,60,0
57952,note_on,160,0,3,,,,,,,,,3,,,57,0
57984,note_on,608,0,2,,,,,,,,,2,,,65,30
57984,note_on,608,0,1,,,,,,,,,1,,,77,30
58144,note_on,160,0,1,,,,,,,,,1,,,77,0
58144,note_on,160,0,2,,,,,,,,,2,,,65,0
58176,note_on,32,0,1,,,,,,,,,1,,,79,30
58176,note_on,32,0,2,,,,,,,,,2,,,67,30
58336,note_on,160,0,1,,,,,,,,,1,,,79,0
58336,note_on,160,0,2,,,,,,,,,2,,,67,0
58368,note_on,32,0,1,,,,,,,,,1,,,77,30
58368,note_on,32,0,2,,,,,,,,,2,,,65,30
58528,note_on,160,0,1,,,,,,,,,1,,,77,0
58528,note_on,160,0,2,,,,,,,,,2,,,65,0
58560,note_on,32,0,2,,,,,,,,,2,,,66,30
58560,note_on,608,0,4,,,,,,,,,4,,,63,30
58560,note_on,32,0,1,,,,,,,,,1,,,78,30
58560,note_on,608,0,3,,,,,,,,,3,,,60,30
58720,note_on,160,0,2,,,,,,,,,2,,,66,0
58720,note_on,160,0,1,,,,,,,,,1,,,78,0
58720,note_on,160,0,3,,,,,,,,,3,,,60,0
58720,note_on,160,0,4,,,,,,,,,4,,,63,0
58752,note_on,32,0,4,,,,,,,,,4,,,62,30
58752,note_on,32,0,2,,,,,,,,,2,,,67,30
58752,note_on,32,0,3,,,,,,,,,3,,,58,30
58752,note_on,32,0,1,,,,,,,,,1,,,79,30
58912,note_on,160,0,2,,,,,,,,,2,,,67,0
58912,note_on,160,0,4,,,,,,,,,4,,,62,0
58912,note_on,160,0,3,,,,,,,,,3,,,58,0
58912,note_on,160,0,1,,,,,,,,,1,,,79,0
58944,note_on,32,0,3,,,,,,,,,3,,,58,30
58944,note_on,32,0,4,,,,,,,,,4,,,62,30
58944,note_on,32,0,1,,,,,,,,,1,,,79,30
58944,note_on,32,0,2,,,,,,,,,2,,,67,30
58992,note_on,48,0,4,,,,,,,,,4,,,62,0
58992,note_on,48,0,3,,,,,,,,,3,,,58,0
59104,note_on,160,0,2,,,,,,,,,2,,,67,0
59104,note_on,160,0,1,,,,,,,,,1,,,79,0
59136,note_on,144,0,3,,,,,,,,,3,,,57,30
59136,note_on,32,0,1,,,,,,,,,1,,,79,30
59136,note_on,144,0,4,,,,,,,,,4,,,60,30
59136,note_on,32,0,2,,,,,,,,,2,,,67,30
59184,note_on,48,0,4,,,,,,,,,4,,,60,0
59184,note_on,48,0,3,,,,,,,,,3,,,57,0
59296,note_on,160,0,1,,,,,,,,,1,,,79,0
59296,note_on,160,0,2,,,,,,,,,2,,,67,0
59328,note_on,144,0,3,,,,,,,,,3,,,55,30
59328,note_on,32,0,2,,,,,,,,,2,,,72,30
59328,note_on,32,0,1,,,,,,,,,1,,,84,30
59328,note_on,144,0,4,,,,,,,,,4,,,58,30
59376,note_on,48,0,3,,,,,,,,,3,,,55,0
59376,note_on,48,0,4,,,,,,,,,4,,,58,0
59488,note_on,160,0,1,,,,,,,,,1,,,84,0
59488,note_on,160,0,2,,,,,,,,,2,,,72,0
59520,note_on,144,0,4,,,,,,,,,4,,,57,30
59520,note_on,32,0,1,,,,,,,,,1,,,84,30
59520,note_on,144,0,3,,,,,,,,,3,,,53,30
59520,note_on,32,0,2,,,,,,,,,2,,,72,30
59680,note_on,160,0,1,,,,,,,,,1,,,84,0
59680,note_on,160,0,2,,,,,,,,,2,,,72,0
59712,note_on,0,0,4,,,,,,,,,4,,,58,30
59712,note_on,32,0,2,,,,,,,,,2,,,72,30
59712,note_on,192,0,4,,,,,,,,,4,,,57,0
59712,note_on,32,0,1,,,,,,,,,1,,,84,30
59712,note_on,192,0,3,,,,,,,,,3,,,53,0
59712,note_on,0,0,3,,,,,,,,,3,,,55,30
59872,note_on,160,0,2,,,,,,,,,2,,,72,0
59872,note_on,160,0,4,,,,,,,,,4,,,58,0
59872,note_on,160,0,3,,,,,,,,,3,,,55,0
59872,note_on,160,0,1,,,,,,,,,1,,,84,0
59904,note_on,32,0,4,,,,,,,,,4,,,55,30
59904,note_on,32,0,3,,,,,,,,,3,,,52,30
59904,note_on,32,0,2,,,,,,,,,2,,,72,30
59904,note_on,32,0,1,,,,,,,,,1,,,84,30
59952,note_on,48,0,3,,,,,,,,,3,,,52,0
59952,note_on,48,0,4,,,,,,,,,4,,,55,0
60064,note_on,160,0,1,,,,,,,,,1,,,84,0
60064,note_on,160,0,2,,,,,,,,,2,,,72,0
60096,note_on,32,0,1,,,,,,,,,1,,,84,30
60096,note_on,32,0,2,,,,,,,,,2,,,72,30
60096,note_on,144,0,3,,,,,,,,,3,,,53,30
60096,note_on,144,0,4,,,,,,,,,4,,,57,30
60144,note_on,48,0,4,,,,,,,,,4,,,57,0
60144,note_on,48,0,3,,,,,,,,,3,,,53,0
60144,note_on,48,0,2,,,,,,,,,2,,,72,0
60144,note_on,48,0,1,,,,,,,,,1,,,84,0
60288,note_on,144,0,4,,,,,,,,,4,,,55,30
60288,note_on,144,0,3,,,,,,,,,3,,,64,30
60288,note_on,144,0,2,,,,,,,,,2,,,60,30
60288,note_on,144,0,1,,,,,,,,,1,,,82,30
60336,note_on,48,0,4,,,,,,,,,4,,,55,0
60336,note_on,48,0,3,,,,,,,,,3,,,64,0
60336,note_on,48,0,2,,,,,,,,,2,,,60,0
60336,note_on,48,0,1,,,,,,,,,1,,,82,0
60480,note_on,144,0,3,,,,,,,,,3,,,65,30
60480,note_on,144,0,4,,,,,,,,,4,,,57,30
60480,note_on,144,0,2,,,,,,,,,2,,,72,30
60480,note_on,144,0,1,,,,,,,,,1,,,81,30
60528,note_on,48,0,1,,,,,,,,,1,,,81,0
60528,note_on,48,0,4,,,,,,,,,4,,,57,0
60528,note_on,48,0,3,,,,,,,,,3,,,65,0
60528,note_on,48,0,2,,,,,,,,,2,,,72,0
60672,note_on,144,0,1,,,,,,,,,1,,,81,30
60672,note_on,144,0,2,,,,,,,,,2,,,72,30
60672,note_on,144,0,3,,,,,,,,,3,,,62,30
60672,note_on,144,0,4,,,,,,,,,4,,,58,30
60864,note_on,192,0,4,,,,,,,,,4,,,58,0
60864,note_on,0,0,2,,,,,,,,,2,,,74,35
60864,note_on,0,0,2,,,,,,,,,2,,,67,35
60864,note_on,192,0,3,,,,,,,,,3,,,62,0
60864,note_on,0,0,3,,,,,,,,,3,,,50,35
60864,note_on,0,0,4,,,,,,,,,4,,,46,35
60864,note_on,192,0,2,,,,,,,,,2,,,72,0
60864,note_on,192,0,1,,,,,,,,,1,,,81,0
60864,note_on,0,0,1,,,,,,,,,1,,,82,35
61024,note_on,160,0,4,,,,,,,,,4,,,46,0
61024,note_on,0,0,2,,,,,,,,,2,,,74,0
61024,note_on,160,0,2,,,,,,,,,2,,,67,0
61024,note_on,160,0,3,,,,,,,,,3,,,50,0
61024,note_on,160,0,1,,,,,,,,,1,,,82,0
61056,note_on,32,0,3,,,,,,,,,3,,,52,40
61056,note_on,32,0,4,,,,,,,,,4,,,48,40
61056,note_on,32,0,2,,,,,,,,,2,,,64,40
61056,note_on,32,0,1,,,,,,,,,1,,,79,40
61104,note_on,48,0,1,,,,,,,,,1,,,79,0
61104,note_on,48,0,4,,,,,,,,,4,,,48,0
61104,note_on,48,0,2,,,,,,,,,2,,,64,0
61104,note_on,48,0,3,,,,,,,,,3,,,52,0
61248,note_on,144,0,4,,,,,,,,,4,,,48,45
61248,note_on,144,0,1,,,,,,,,,1,,,79,45
61248,note_on,144,0,2,,,,,,,,,2,,,70,45
61248,note_on,144,0,3,,,,,,,,,3,,,52,45
61296,note_on,48,0,4,,,,,,,,,4,,,48,0
61440,note_on,0,0,3,,,,,,,,,3,,,53,50
61440,note_on,192,0,3,,,,,,,,,3,,,52,0
61440,note_on,192,0,2,,,,,,,,,2,,,70,0
61440,note_on,0,0,2,,,,,,,,,2,,,69,50
61440,note_on,192,0,1,,,,,,,,,1,,,79,0
61440,note_on,144,0,4,,,,,,,,,4,,,36,50
61440,note_on,0,0,1,,,,,,,,,1,,,81,50
61488,note_on,48,0,4,,,,,,,,,4,,,36,0
61600,note_on,160,0,3,,,,,,,,,3,,,53,0
61600,note_on,160,0,2,,,,,,,,,2,,,69,0
61600,note_on,160,0,1,,,,,,,,,1,,,81,0
61632,note_on,32,0,1,,,,,,,,,1,,,77,55
61632,note_on,32,0,2,,,,,,,,,2,,,65,55
61632,note_on,0,0,2,,,,,,,,,2,,,69,55
61632,note_on,144,0,4,,,,,,,,,4,,,36,55
61632,note_on,32,0,3,,,,,,,,,3,,,57,55
61680,note_on,0,0,2,,,,,,,,,2,,,69,0
61680,note_on,48,0,2,,,,,,,,,2,,,65,0
61680,note_on,48,0,3,,,,,,,,,3,,,57,0
61680,note_on,48,0,1,,,,,,,,,1,,,77,0
61680,note_on,48,0,4,,,,,,,,,4,,,36,0
61824,note_on,144,0,1,,,,,,,,,1,,,76,60
61824,note_on,144,0,2,,,,,,,,,2,,,67,60
61824,note_on,144,0,4,,,,,,,,,4,,,36,60
61824,note_on,144,0,3,,,,,,,,,3,,,58,60
61984,note_on,160,0,4,,,,,,,,,4,,,36,0
62016,note_on,0,0,2,,,,,,,,,2,,,65,65
62016,note_on,192,0,1,,,,,,,,,1,,,76,0
62016,note_on,192,0,2,,,,,,,,,2,,,67,0
62016,note_on,0,0,1,,,,,,,,,1,,,77,65
62016,note_on,192,0,3,,,,,,,,,3,,,58,0
62016,note_on,0,0,3,,,,,,,,,3,,,57,65
62016,note_on,32,0,4,,,,,,,,,4,,,36,65
62176,note_on,160,0,4,,,,,,,,,4,,,36,0
62176,note_on,160,0,3,,,,,,,,,3,,,57,0
62176,note_on,160,0,2,,,,,,,,,2,,,65,0
62176,note_on,160,0,1,,,,,,,,,1,,,77,0
62208,note_on,32,0,3,,,,,,,,,3,,,55,70
62208,note_on,32,0,4,,,,,,,,,4,,,36,70
62208,note_on,32,0,1,,,,,,,,,1,,,79,70
62208,note_on,32,0,2,,,,,,,,,2,,,64,70
62256,note_on,48,0,3,,,,,,,,,3,,,55,0
62256,note_on,48,0,1,,,,,,,,,1,,,79,0
62256,note_on,48,0,2,,,,,,,,,2,,,64,0
62368,note_on,160,0,4,,,,,,,,,4,,,36,0
62400,note_on,32,0,4,,,,,,,,,4,,,36,75
62400,note_on,144,0,2,,,,,,,,,2,,,70,75
62400,note_on,144,0,3,,,,,,,,,3,,,55,75
62400,note_on,144,0,1,,,,,,,,,1,,,76,75
62448,note_on,48,0,2,,,,,,,,,2,,,70,0
62592,note_on,192,0,3,,,,,,,,,3,,,55,0
62592,note_on,0,0,3,,,,,,,,,3,,,53,72
62592,note_on,0,0,4,,,,,,,,,4,,,38,72
62592,note_on,0,0,1,,,,,,,,,1,,,77,72
62592,note_on,144,0,2,,,,,,,,,2,,,58,72
62592,note_on,192,0,4,,,,,,,,,4,,,36,0
62592,note_on,192,0,1,,,,,,,,,1,,,76,0
62640,note_on,48,0,2,,,,,,,,,2,,,58,0
62752,note_on,160,0,4,,,,,,,,,4,,,38,0
62752,note_on,160,0,1,,,,,,,,,1,,,77,0
62752,note_on,160,0,3,,,,,,,,,3,,,53,0
62784,note_on,32,0,4,,,,,,,,,4,,,40,69
62784,note_on,32,0,3,,,,,,,,,3,,,52,69
62784,note_on,32,0,1,,,,,,,,,1,,,79,69
62784,note_on,144,0,2,,,,,,,,,2,,,70,69
62832,note_on,48,0,4,,,,,,,,,4,,,40,0
62832,note_on,48,0,3,,,,,,,,,3,,,52,0
62832,note_on,48,0,2,,,,,,,,,2,,,70,0
62832,note_on,48,0,1,,,,,,,,,1,,,79,0
62976,note_on,144,0,4,,,,,,,,,4,,,41,66
62976,note_on,144,0,1,,,,,,,,,1,,,72,66
62976,note_on,144,0,2,,,,,,,,,2,,,69,66
62976,note_on,144,0,3,,,,,,,,,3,,,57,66
63024,note_on,48,0,4,,,,,,,,,4,,,41,0
63024,note_on,48,0,3,,,,,,,,,3,,,57,0
63024,note_on,48,0,2,,,,,,,,,2,,,69,0
63136,note_on,160,0,1,,,,,,,,,1,,,72,0
63168,note_on,144,0,2,,,,,,,,,2,,,67,63
63168,note_on,144,0,4,,,,,,,,,4,,,43,63
63168,note_on,144,0,3,,,,,,,,,3,,,58,63
63168,note_on,32,0,1,,,,,,,,,1,,,72,63
63216,note_on,48,0,4,,,,,,,,,4,,,43,0
63216,note_on,48,0,3,,,,,,,,,3,,,58,0
63216,note_on,48,0,2,,,,,,,,,2,,,67,0
63328,note_on,160,0,1,,,,,,,,,1,,,72,0
63360,note_on,32,0,1,,,,,,,,,1,,,72,60
63360,note_on,144,0,3,,,,,,,,,3,,,60,60
63360,note_on,144,0,2,,,,,,,,,2,,,65,60
63360,note_on,144,0,4,,,,,,,,,4,,,45,60
63408,note_on,48,0,4,,,,,,,,,4,,,45,0
63408,note_on,48,0,3,,,,,,,,,3,,,60,0
63408,note_on,48,0,2,,,,,,,,,2,,,65,0
63520,note_on,160,0,1,,,,,,,,,1,,,72,0
63552,note_on,32,0,1,,,,,,,,,1,,,76,57
63552,note_on,144,0,4,,,,,,,,,4,,,36,57
63552,note_on,144,0,3,,,,,,,,,3,,,55,57
63552,note_on,144,0,2,,,,,,,,,2,,,58,57
63712,note_on,160,0,2,,,,,,,,,2,,,58,0
63744,note_on,32,0,2,,,,,,,,,2,,,70,53
63744,note_on,0,0,1,,,,,,,,,1,,,77,53
63744,note_on,192,0,1,,,,,,,,,1,,,76,0
63744,note_on,0,0,4,,,,,,,,,4,,,38,53
63744,note_on,192,0,3,,,,,,,,,3,,,55,0
63744,note_on,0,0,3,,,,,,,,,3,,,53,53
63744,note_on,192,0,4,,,,,,,,,4,,,36,0
63904,note_on,160,0,3,,,,,,,,,3,,,53,0
63904,note_on,160,0,2,,,,,,,,,2,,,70,0
63904,note_on,160,0,4,,,,,,,,,4,,,38,0
63904,note_on,160,0,1,,,,,,,,,1,,,77,0
63936,note_on,32,0,2,,,,,,,,,2,,,70,49
63936,note_on,32,0,4,,,,,,,,,4,,,40,49
63936,note_on,32,0,3,,,,,,,,,3,,,52,49
63936,note_on,32,0,1,,,,,,,,,1,,,79,49
63984,note_on,48,0,3,,,,,,,,,3,,,52,0
63984,note_on,48,0,4,,,,,,,,,4,,,40,0
63984,note_on,48,0,1,,,,,,,,,1,,,79,0
64096,note_on,160,0,2,,,,,,,,,2,,,70,0
64128,note_on,144,0,1,,,,,,,,,1,,,72,45
64128,note_on,144,0,4,,,,,,,,,4,,,41,45
64128,note_on,144,0,3,,,,,,,,,3,,,57,45
64128,note_on,32,0,2,,,,,,,,,2,,,69,45
64176,note_on,48,0,3,,,,,,,,,3,,,57,0
64176,note_on,48,0,4,,,,,,,,,4,,,41,0
64176,note_on,48,0,2,,,,,,,,,2,,,69,0
64288,note_on,160,0,1,,,,,,,,,1,,,72,0
64320,note_on,144,0,3,,,,,,,,,3,,,58,45
64320,note_on,144,0,4,,,,,,,,,4,,,43,45
64320,note_on,32,0,1,,,,,,,,,1,,,72,45
64320,note_on,144,0,2,,,,,,,,,2,,,67,45
64368,note_on,48,0,4,,,,,,,,,4,,,43,0
64368,note_on,48,0,3,,,,,,,,,3,,,58,0
64368,note_on,48,0,2,,,,,,,,,2,,,67,0
64480,note_on,160,0,1,,,,,,,,,1,,,72,0
64512,note_on,144,0,3,,,,,,,,,3,,,60,45
64512,note_on,144,0,2,,,,,,,,,2,,,65,45
64512,note_on,144,0,4,,,,,,,,,4,,,45,45
64512,note_on,32,0,1,,,,,,,,,1,,,72,45
64560,note_on,48,0,3,,,,,,,,,3,,,60,0
64560,note_on,48,0,2,,,,,,,,,2,,,65,0
64560,note_on,48,0,4,,,,,,,,,4,,,45,0
64672,note_on,160,0,1,,,,,,,,,1,,,72,0
64704,note_on,144,0,2,,,,,,,,,2,,,58,45
64704,note_on,144,0,4,,,,,,,,,4,,,36,45
64704,note_on,32,0,1,,,,,,,,,1,,,76,45
64704,note_on,144,0,3,,,,,,,,,3,,,55,45
64864,note_on,160,0,2,,,,,,,,,2,,,58,0
64896,note_on,192,0,1,,,,,,,,,1,,,76,0
64896,note_on,0,0,1,,,,,,,,,1,,,77,43
64896,note_on,0,0,3,,,,,,,,,3,,,53,43
64896,note_on,192,0,3,,,,,,,,,3,,,55,0
64896,note_on,0,0,4,,,,,,,,,4,,,38,43
64896,note_on,32,0,2,,,,,,,,,2,,,70,43
64896,note_on,192,0,4,,,,,,,,,4,,,36,0
65056,note_on,160,0,2,,,,,,,,,2,,,70,0
65056,note_on,160,0,4,,,,,,,,,4,,,38,0
65056,note_on,160,0,1,,,,,,,,,1,,,77,0
65056,note_on,160,0,3,,,,,,,,,3,,,53,0
65088,note_on,32,0,1,,,,,,,,,1,,,79,41
65088,note_on,32,0,3,,,,,,,,,3,,,52,41
65088,note_on,32,0,4,,,,,,,,,4,,,40,41
65088,note_on,32,0,2,,,,,,,,,2,,,70,41
65136,note_on,48,0,4,,,,,,,,,4,,,40,0
65136,note_on,48,0,3,,,,,,,,,3,,,52,0
65136,note_on,48,0,1,,,,,,,,,1,,,79,0
65248,note_on,160,0,2,,,,,,,,,2,,,70,0
65280,note_on,144,0,4,,,,,,,,,4,,,41,39
65280,note_on,32,0,2,,,,,,,,,2,,,69,39
65280,note_on,144,0,3,,,,,,,,,3,,,57,39
65280,note_on,144,0,1,,,,,,,,,1,,,72,39
65328,note_on,48,0,2,,,,,,,,,2,,,69,0
65328,note_on,48,0,3,,,,,,,,,3,,,57,0
65328,note_on,48,0,4,,,,,,,,,4,,,41,0
65440,note_on,160,0,1,,,,,,,,,1,,,72,0
65472,note_on,144,0,4,,,,,,,,,4,,,43,36
65472,note_on,144,0,3,,,,,,,,,3,,,58,36
65472,note_on,32,0,1,,,,,,,,,1,,,72,36
65472,note_on,144,0,2,,,,,,,,,2,,,67,36
65520,note_on,48,0,3,,,,,,,,,3,,,58,0
65520,note_on,48,0,4,,,,,,,,,4,,,43,0
65520,note_on,48,0,2,,,,,,,,,2,,,67,0
65632,note_on,160,0,1,,,,,,,,,1,,,72,0
65664,note_on,144,0,2,,,,,,,,,2,,,65,33
65664,note_on,144,0,4,,,,,,,,,4,,,45,33
65664,note_on,144,0,3,,,,,,,,,3,,,60,33
65664,note_on,32,0,1,,,,,,,,,1,,,72,33
65712,note_on,48,0,3,,,,,,,,,3,,,60,0
65712,note_on,48,0,4,,,,,,,,,4,,,45,0
65712,note_on,48,0,2,,,,,,,,,2,,,65,0
65824,note_on,160,0,1,,,,,,,,,1,,,72,0
65856,note_on,144,0,3,,,,,,,,,3,,,55,30
65856,note_on,32,0,1,,,,,,,,,1,,,76,30
65856,note_on,144,0,4,,,,,,,,,4,,,36,30
65856,note_on,144,0,2,,,,,,,,,2,,,58,30
66016,note_on,160,0,2,,,,,,,,,2,,,58,0
66048,note_on,0,0,3,,,,,,,,,3,,,53,30
66048,note_on,32,0,2,,,,,,,,,2,,,70,30
66048,note_on,192,0,1,,,,,,,,,1,,,76,0
66048,note_on,0,0,1,,,,,,,,,1,,,77,30
66048,note_on,192,0,4,,,,,,,,,4,,,36,0
66048,note_on,0,0,4,,,,,,,,,4,,,38,30
66048,note_on,192,0,3,,,,,,,,,3,,,55,0
66208,note_on,160,0,2,,,,,,,,,2,,,70,0
66208,note_on,160,0,1,,,,,,,,,1,,,77,0
66208,note_on,160,0,3,,,,,,,,,3,,,53,0
66208,note_on,160,0,4,,,,,,,,,4,,,38,0
66240,note_on,32,0,1,,,,,,,,,1,,,79,30
66240,note_on,32,0,3,,,,,,,,,3,,,52,30
66240,note_on,32,0,4,,,,,,,,,4,,,40,30
66240,note_on,32,0,2,,,,,,,,,2,,,70,30
66288,note_on,48,0,4,,,,,,,,,4,,,40,0
66288,note_on,48,0,3,,,,,,,,,3,,,52,0
66288,note_on,48,0,1,,,,,,,,,1,,,79,0
66400,note_on,160,0,2,,,,,,,,,2,,,70,0
66432,note_on,144,0,4,,,,,,,,,4,,,41,92
66432,note_on,144,0,3,,,,,,,,,3,,,53,92
66432,note_on,32,0,2,,,,,,,,,2,,,69,92
66432,note_on,144,0,1,,,,,,,,,1,,,72,92
66592,note_on,160,0,2,,,,,,,,,2,,,69,0
66592,note_on,160,0,4,,,,,,,,,4,,,41,0
66592,note_on,160,0,3,,,,,,,,,3,,,53,0
66592,note_on,160,0,1,,,,,,,,,1,,,72,0
66624,note_on,32,0,1,,,,,,,,,1,,,65,92
66720,note_on,0,0,1,,,,,,,,,1,,,64,92
66720,note_on,96,0,1,,,,,,,,,1,,,65,0
66816,note_on,0,0,1,,,,,,,,,1,,,65,92
66816,note_on,96,0,1,,,,,,,,,1,,,64,0
66912,note_on,96,0,1,,,,,,,,,1,,,65,0
66912,note_on,0,0,1,,,,,,,,,1,,,67,92
67006,note_on,94,0,1,,,,,,,,,1,,,67,0
67008,note_on,416,0,4,,,,,,,,,4,,,41,92
67008,note_on,416,0,3,,,,,,,,,3,,,53,92
67008,note_on,2,0,1,,,,,,,,,1,,,69,92
67008,note_on,416,0,2,,,,,,,,,2,,,60,92
67168,note_on,160,0,2,,,,,,,,,2,,,60,0
67168,note_on,160,0,3,,,,,,,,,3,,,53,0
67168,note_on,160,0,1,,,,,,,,,1,,,69,0
67168,note_on,160,0,4,,,,,,,,,4,,,41,0
67200,note_on,32,0,2,,,,,,,,,2,,,65,45
67200,note_on,32,0,1,,,,,,,,,1,,,72,45
67200,note_on,32,0,4,,,,,,,,,4,,,41,45
67200,note_on,32,0,3,,,,,,,,,3,,,53,45
67200,note_on,0,0,2,,,,,,,,,2,,,69,45
67296,note_on,96,0,4,,,,,,,,,4,,,41,0
67296,note_on,0,0,3,,,,,,,,,3,,,52,45
67296,note_on,96,0,3,,,,,,,,,3,,,53,0
67296,note_on,0,0,4,,,,,,,,,4,,,40,45
67360,note_on,160,0,2,,,,,,,,,2,,,65,0
67360,note_on,0,0,2,,,,,,,,,2,,,69,0
67360,note_on,160,0,1,,,,,,,,,1,,,72,0
67392,note_on,32,0,1,,,,,,,,,1,,,72,45
67392,note_on,96,0,3,,,,,,,,,3,,,52,0
67392,note_on,0,0,3,,,,,,,,,3,,,53,45
67392,note_on,96,0,4,,,,,,,,,4,,,40,0
67392,note_on,0,0,4,,,,,,,,,4,,,41,45
67392,note_on,0,0,2,,,,,,,,,2,,,69,45
67392,note_on,32,0,2,,,,,,,,,2,,,65,45
67488,note_on,96,0,4,,,,,,,,,4,,,41,0
67488,note_on,0,0,4,,,,,,,,,4,,,43,45
67488,note_on,96,0,3,,,,,,,,,3,,,53,0
67488,note_on,0,0,3,,,,,,,,,3,,,55,45
67552,note_on,0,0,2,,,,,,,,,2,,,69,0
67552,note_on,160,0,1,,,,,,,,,1,,,72,0
67552,note_on,160,0,2,,,,,,,,,2,,,65,0
67582,note_on,94,0,4,,,,,,,,,4,,,43,0
67582,note_on,94,0,3,,,,,,,,,3,,,55,0
67584,note_on,32,0,1,,,,,,,,,1,,,72,45
67584,note_on,2,0,4,,,,,,,,,4,,,45,45
67584,note_on,0,0,2,,,,,,,,,2,,,69,45
67584,note_on,32,0,2,,,,,,,,,2,,,65,45
67584,note_on,2,0,3,,,,,,,,,3,,,57,45
67632,note_on,48,0,4,,,,,,,,,4,,,45,0
67632,note_on,48,0,3,,,,,,,,,3,,,57,0
67744,note_on,0,0,2,,,,,,,,,2,,,69,0
67744,note_on,160,0,2,,,,,,,,,2,,,65,0
67744,note_on,160,0,1,,,,,,,,,1,,,72,0
67776,note_on,32,0,1,,,,,,,,,1,,,72,45
67776,note_on,144,0,3,,,,,,,,,3,,,58,45
67776,note_on,0,0,2,,,,,,,,,2,,,69,45
67776,note_on,32,0,2,,,,,,,,,2,,,65,45
67776,note_on,144,0,4,,,,,,,,,4,,,46,45
67824,note_on,48,0,3,,,,,,,,,3,,,58,0
67824,note_on,48,0,4,,,,,,,,,4,,,46,0
67936,note_on,0,0,2,,,,,,,,,2,,,69,0
67936,note_on,160,0,2,,,,,,,,,2,,,65,0
67936,note_on,160,0,1,,,,,,,,,1,,,72,0
67968,note_on,0,0,2,,,,,,,,,2,,,69,45
67968,note_on,32,0,2,,,,,,,,,2,,,65,45
67968,note_on,144,0,3,,,,,,,,,3,,,60,45
67968,note_on,32,0,1,,,,,,,,,1,,,72,45
67968,note_on,144,0,4,,,,,,,,,4,,,48,45
68016,note_on,48,0,3,,,,,,,,,3,,,60,0
68016,note_on,48,0,4,,,,,,,,,4,,,48,0
68128,note_on,160,0,2,,,,,,,,,2,,,65,0
68128,note_on,0,0,2,,,,,,,,,2,,,69,0
68128,note_on,160,0,1,,,,,,,,,1,,,72,0
68160,note_on,144,0,3,,,,,,,,,3,,,62,45
68160,note_on,144,0,4,,,,,,,,,4,,,50,45
68160,note_on,32,0,2,,,,,,,,,2,,,65,45
68160,note_on,0,0,2,,,,,,,,,2,,,69,45
68160,note_on,32,0,1,,,,,,,,,1,,,72,45
68208,note_on,48,0,3,,,,,,,,,3,,,62,0
68208,note_on,48,0,4,,,,,,,,,4,,,50,0
68320,note_on,160,0,2,,,,,,,,,2,,,65,0
68320,note_on,160,0,1,,,,,,,,,1,,,72,0
68320,note_on,0,0,2,,,,,,,,,2,,,69,0
68352,note_on,32,0,1,,,,,,,,,1,,,72,45
68352,note_on,144,0,4,,,,,,,,,4,,,52,45
68352,note_on,0,0,2,,,,,,,,,2,,,69,45
68352,note_on,144,0,3,,,,,,,,,3,,,64,45
68352,note_on,32,0,2,,,,,,,,,2,,,65,45
68400,note_on,48,0,3,,,,,,,,,3,,,64,0
68400,note_on,48,0,4,,,,,,,,,4,,,52,0
68512,note_on,160,0,2,,,,,,,,,2,,,65,0
68512,note_on,0,0,2,,,,,,,,,2,,,69,0
68512,note_on,160,0,1,,,,,,,,,1,,,72,0
68544,note_on,32,0,1,,,,,,,,,1,,,72,45
68544,note_on,144,0,4,,,,,,,,,4,,,53,45
68544,note_on,0,0,2,,,,,,,,,2,,,69,45
68544,note_on,32,0,2,,,,,,,,,2,,,65,45
68592,note_on,48,0,4,,,,,,,,,4,,,53,0
68704,note_on,160,0,1,,,,,,,,,1,,,72,0
68704,note_on,0,0,2,,,,,,,,,2,,,69,0
68704,note_on,160,0,2,,,,,,,,,2,,,65,0
68736,note_on,336,0,3,,,,,,,,,3,,,67,45
68736,note_on,144,0,4,,,,,,,,,4,,,55,45
68736,note_on,0,0,2,,,,,,,,,2,,,69,45
68736,note_on,32,0,2,,,,,,,,,2,,,65,45
68736,note_on,32,0,1,,,,,,,,,1,,,72,45
68784,note_on,48,0,3,,,,,,,,,3,,,67,0
68784,note_on,48,0,4,,,,,,,,,4,,,55,0
68896,note_on,160,0,2,,,,,,,,,2,,,65,0
68896,note_on,0,0,2,,,,,,,,,2,,,69,0
68896,note_on,160,0,1,,,,,,,,,1,,,72,0
68928,note_on,144,0,4,,,,,,,,,4,,,57,45
68928,note_on,32,0,1,,,,,,,,,1,,,72,45
68928,note_on,32,0,2,,,,,,,,,2,,,65,45
68928,note_on,0,0,2,,,,,,,,,2,,,69,45
68976,note_on,48,0,4,,,,,,,,,4,,,57,0
69088,note_on,160,0,1,,,,,,,,,1,,,72,0
69088,note_on,0,0,2,,,,,,,,,2,,,69,0
69088,note_on,160,0,2,,,,,,,,,2,,,65,0
69120,note_on,32,0,1,,,,,,,,,1,,,72,45
69120,note_on,144,0,4,,,,,,,,,4,,,58,45
69120,note_on,336,0,3,,,,,,,,,3,,,70,45
69120,note_on,0,0,2,,,,,,,,,2,,,69,45
69120,note_on,32,0,2,,,,,,,,,2,,,65,45
69168,note_on,48,0,4,,,,,,,,,4,,,58,0
69168,note_on,48,0,3,,,,,,,,,3,,,70,0
69280,note_on,160,0,1,,,,,,,,,1,,,72,0
69280,note_on,0,0,2,,,,,,,,,2,,,69,0
69280,note_on,160,0,2,,,,,,,,,2,,,65,0
69312,note_on,0,0,2,,,,,,,,,2,,,69,45
69312,note_on,144,0,3,,,,,,,,,3,,,72,45
69312,note_on,32,0,2,,,,,,,,,2,,,65,45
69312,note_on,144,0,4,,,,,,,,,4,,,60,45
69472,note_on,160,0,4,,,,,,,,,4,,,60,0
69472,note_on,160,0,2,,,,,,,,,2,,,65,0
69472,note_on,0,0,2,,,,,,,,,2,,,69,0
69472,note_on,160,0,3,,,,,,,,,3,,,72,0
69504,note_on,32,0,3,,,,,,,,,3,,,69,45
69504,note_on,224,0,1,,,,,,,,,1,,,74,45
69504,note_on,32,0,4,,,,,,,,,4,,,60,45
69504,note_on,32,0,2,,,,,,,,,2,,,65,45
69552,note_on,48,0,1,,,,,,,,,1,,,74,0
69664,note_on,160,0,3,,,,,,,,,3,,,69,0
69664,note_on,160,0,4,,,,,,,,,4,,,60,0
69664,note_on,160,0,2,,,,,,,,,2,,,65,0
69696,note_on,32,0,3,,,,,,,,,3,,,69,45
69696,note_on,32,0,4,,,,,,,,,4,,,60,45
69696,note_on,144,0,1,,,,,,,,,1,,,76,45
69696,note_on,32,0,2,,,,,,,,,2,,,65,45
69744,note_on,48,0,1,,,,,,,,,1,,,76,0
69856,note_on,160,0,2,,,,,,,,,2,,,65,0
69856,note_on,160,0,3,,,,,,,,,3,,,69,0
69856,note_on,160,0,4,,,,,,,,,4,,,60,0
69888,note_on,144,0,1,,,,,,,,,1,,,77,45
69888,note_on,32,0,4,,,,,,,,,4,,,60,45
69888,note_on,32,0,2,,,,,,,,,2,,,65,45
69888,note_on,32,0,3,,,,,,,,,3,,,69,45
69936,note_on,48,0,1,,,,,,,,,1,,,77,0
70048,note_on,160,0,4,,,,,,,,,4,,,60,0
70048,note_on,160,0,3,,,,,,,,,3,,,69,0
70048,note_on,160,0,2,,,,,,,,,2,,,65,0
70080,note_on,32,0,4,,,,,,,,,4,,,60,45
70080,note_on,32,0,2,,,,,,,,,2,,,65,45
70080,note_on,32,0,3,,,,,,,,,3,,,69,45
70080,note_on,144,0,1,,,,,,,,,1,,,79,45
70128,note_on,48,0,1,,,,,,,,,1,,,79,0
70240,note_on,160,0,4,,,,,,,,,4,,,60,0
70240,note_on,160,0,2,,,,,,,,,2,,,65,0
70240,note_on,160,0,3,,,,,,,,,3,,,69,0
70272,note_on,144,0,1,,,,,,,,,1,,,81,45
70272,note_on,32,0,2,,,,,,,,,2,,,65,45
70272,note_on,32,0,3,,,,,,,,,3,,,69,45
70272,note_on,32,0,4,,,,,,,,,4,,,60,45
70320,note_on,48,0,1,,,,,,,,,1,,,81,0
70432,note_on,160,0,2,,,,,,,,,2,,,65,0
70432,note_on,160,0,4,,,,,,,,,4,,,60,0
70432,note_on,160,0,3,,,,,,,,,3,,,69,0
70464,note_on,144,0,1,,,,,,,,,1,,,82,45
70464,note_on,32,0,3,,,,,,,,,3,,,67,45
70464,note_on,32,0,2,,,,,,,,,2,,,64,45
70464,note_on,32,0,4,,,,,,,,,4,,,60,45
70512,note_on,48,0,1,,,,,,,,,1,,,82,0
70624,note_on,160,0,3,,,,,,,,,3,,,67,0
70624,note_on,160,0,4,,,,,,,,,4,,,60,0
70624,note_on,160,0,2,,,,,,,,,2,,,64,0
70656,note_on,32,0,4,,,,,,,,,4,,,60,45
70656,note_on,32,0,3,,,,,,,,,3,,,67,45
70656,note_on,32,0,2,,,,,,,,,2,,,64,45
70656,note_on,144,0,1,,,,,,,,,1,,,55,45
70704,note_on,48,0,1,,,,,,,,,1,,,55,0
70816,note_on,160,0,3,,,,,,,,,3,,,67,0
70816,note_on,160,0,4,,,,,,,,,4,,,60,0
70816,note_on,160,0,2,,,,,,,,,2,,,64,0
70848,note_on,32,0,4,,,,,,,,,4,,,60,45
70848,note_on,32,0,2,,,,,,,,,2,,,64,45
70848,note_on,32,0,3,,,,,,,,,3,,,67,45
70848,note_on,144,0,1,,,,,,,,,1,,,81,45
70896,note_on,48,0,1,,,,,,,,,1,,,81,0
71008,note_on,160,0,4,,,,,,,,,4,,,60,0
71008,note_on,160,0,3,,,,,,,,,3,,,67,0
71008,note_on,160,0,2,,,,,,,,,2,,,64,0
71040,note_on,32,0,3,,,,,,,,,3,,,67,45
71040,note_on,144,0,1,,,,,,,,,1,,,82,45
71040,note_on,32,0,2,,,,,,,,,2,,,64,45
71040,note_on,32,0,4,,,,,,,,,4,,,60,45
71088,note_on,48,0,1,,,,,,,,,1,,,82,0
71200,note_on,160,0,3,,,,,,,,,3,,,67,0
71200,note_on,160,0,4,,,,,,,,,4,,,60,0
71200,note_on,160,0,2,,,,,,,,,2,,,64,0
71232,note_on,32,0,2,,,,,,,,,2,,,64,45
71232,note_on,32,0,3,,,,,,,,,3,,,67,45
71232,note_on,144,0,1,,,,,,,,,1,,,70,45
71232,note_on,32,0,4,,,,,,,,,4,,,60,45
71280,note_on,48,0,1,,,,,,,,,1,,,70,0
71392,note_on,160,0,3,,,,,,,,,3,,,67,0
71392,note_on,160,0,2,,,,,,,,,2,,,64,0
71392,note_on,160,0,4,,,,,,,,,4,,,60,0
71424,note_on,144,0,1,,,,,,,,,1,,,84,45
71424,note_on,32,0,3,,,,,,,,,3,,,67,45
71424,note_on,32,0,2,,,,,,,,,2,,,64,45
71424,note_on,32,0,4,,,,,,,,,4,,,60,45
71472,note_on,48,0,1,,,,,,,,,1,,,84,0
71584,note_on,160,0,3,,,,,,,,,3,,,67,0
71584,note_on,160,0,2,,,,,,,,,2,,,64,0
71584,note_on,160,0,4,,,,,,,,,4,,,60,0
71616,note_on,32,0,2,,,,,,,,,2,,,65,92
71616,note_on,144,0,1,,,,,,,,,1,,,81,92
71616,note_on,32,0,3,,,,,,,,,3,,,72,92
71616,note_on,0,0,2,,,,,,,,,2,,,69,92
71616,note_on,32,0,4,,,,,,,,,4,,,53,92
71664,note_on,48,0,1,,,,,,,,,1,,,81,0
71776,note_on,160,0,3,,,,,,,,,3,,,72,0
71776,note_on,160,0,4,,,,,,,,,4,,,53,0
71776,note_on,0,0,2,,,,,,,,,2,,,69,0
71776,note_on,160,0,2,,,,,,,,,2,,,65,0
71808,note_on,144,0,1,,,,,,,,,1,,,65,45
71808,note_on,0,0,2,,,,,,,,,2,,,77,45
71808,note_on,32,0,3,,,,,,,,,3,,,72,45
71808,note_on,32,0,2,,,,,,,,,2,,,69,45
71808,note_on,32,0,4,,,,,,,,,4,,,60,45
71904,note_on,96,0,1,,,,,,,,,1,,,65,0
71904,note_on,0,0,1,,,,,,,,,1,,,64,45
71968,note_on,160,0,3,,,,,,,,,3,,,72,0
71968,note_on,0,0,2,,,,,,,,,2,,,77,0
71968,note_on,160,0,4,,,,,,,,,4,,,60,0
71968,note_on,160,0,2,,,,,,,,,2,,,69,0
72000,note_on,32,0,2,,,,,,,,,2,,,69,45
72000,note_on,0,0,2,,,,,,,,,2,,,77,45
72000,note_on,32,0,3,,,,,,,,,3,,,72,45
72000,note_on,32,0,4,,,,,,,,,4,,,60,45
72000,note_on,0,0,1,,,,,,,,,1,,,65,45
72000,note_on,96,0,1,,,,,,,,,1,,,64,0
72096,note_on,0,0,1,,,,,,,,,1,,,67,45
72096,note_on,96,0,1,,,,,,,,,1,,,65,0
72160,note_on,160,0,3,,,,,,,,,3,,,72,0
72160,note_on,160,0,2,,,,,,,,,2,,,69,0
72160,note_on,0,0,2,,,,,,,,,2,,,77,0
72160,note_on,160,0,4,,,,,,,,,4,,,60,0
72190,note_on,94,0,1,,,,,,,,,1,,,67,0
72192,note_on,0,0,2,,,,,,,,,2,,,77,45
72192,note_on,32,0,2,,,,,,,,,2,,,69,45
72192,note_on,32,0,3,,,,,,,,,3,,,72,45
72192,note_on,32,0,4,,,,,,,,,4,,,60,45
72352,note_on,160,0,3,,,,,,,,,3,,,72,0
72352,note_on,0,0,2,,,,,,,,,2,,,77,0
72352,note_on,160,0,2,,,,,,,,,2,,,69,0
72352,note_on,160,0,4,,,,,,,,,4,,,60,0
72384,note_on,0,0,2,,,,,,,,,2,,,77,45
72384,note_on,32,0,2,,,,,,,,,2,,,69,45
72384,note_on,32,0,3,,,,,,,,,3,,,72,45
72384,note_on,194,0,1,,,,,,,,,1,,,70,45
72384,note_on,32,0,4,,,,,,,,,4,,,60,45
72432,note_on,48,0,1,,,,,,,,,1,,,70,0
72544,note_on,160,0,3,,,,,,,,,3,,,72,0
72544,note_on,160,0,4,,,,,,,,,4,,,60,0
72544,note_on,0,0,2,,,,,,,,,2,,,77,0
72544,note_on,160,0,2,,,,,,,,,2,,,69,0
72576,note_on,32,0,3,,,,,,,,,3,,,72,45
72576,note_on,0,0,2,,,,,,,,,2,,,77,45
72576,note_on,32,0,4,,,,,,,,,4,,,60,45
72576,note_on,32,0,2,,,,,,,,,2,,,69,45
72736,note_on,160,0,2,,,,,,,,,2,,,69,0
72736,note_on,0,0,2,,,,,,,,,2,,,77,0
72736,note_on,160,0,3,,,,,,,,,3,,,72,0
72736,note_on,160,0,4,,,,,,,,,4,,,60,0
72768,note_on,32,0,4,,,,,,,,,4,,,60,45
72768,note_on,32,0,2,,,,,,,,,2,,,69,45
72768,note_on,32,0,3,,,,,,,,,3,,,72,45
72768,note_on,0,0,2,,,,,,,,,2,,,77,45
72768,note_on,336,0,1,,,,,,,,,1,,,74,45
72816,note_on,48,0,1,,,,,,,,,1,,,74,0
72928,note_on,160,0,4,,,,,,,,,4,,,60,0
72928,note_on,0,0,2,,,,,,,,,2,,,77,0
72928,note_on,160,0,3,,,,,,,,,3,,,72,0
72928,note_on,160,0,2,,,,,,,,,2,,,69,0
72960,note_on,32,0,2,,,,,,,,,2,,,69,45
72960,note_on,0,0,2,,,,,,,,,2,,,77,45
72960,note_on,32,0,4,,,,,,,,,4,,,60,45
72960,note_on,144,0,1,,,,,,,,,1,,,76,45
72960,note_on,32,0,3,,,,,,,,,3,,,72,45
73008,note_on,48,0,1,,,,,,,,,1,,,76,0
73120,note_on,160,0,2,,,,,,,,,2,,,69,0
73120,note_on,0,0,2,,,,,,,,,2,,,77,0
73120,note_on,160,0,4,,,,,,,,,4,,,60,0
73120,note_on,160,0,3,,,,,,,,,3,,,72,0
73152,note_on,32,0,3,,,,,,,,,3,,,72,45
73152,note_on,32,0,4,,,,,,,,,4,,,60,45
73152,note_on,0,0,2,,,,,,,,,2,,,77,45
73152,note_on,32,0,2,,,,,,,,,2,,,69,45
73312,note_on,160,0,3,,,,,,,,,3,,,72,0
73312,note_on,0,0,2,,,,,,,,,2,,,77,0
73312,note_on,160,0,2,,,,,,,,,2,,,69,0
73312,note_on,160,0,4,,,,,,,,,4,,,60,0
73344,note_on,336,0,1,,,,,,,,,1,,,79,45
73344,note_on,32,0,2,,,,,,,,,2,,,69,45
73344,note_on,32,0,3,,,,,,,,,3,,,72,45
73344,note_on,32,0,4,,,,,,,,,4,,,60,45
73344,note_on,0,0,2,,,,,,,,,2,,,77,45
73392,note_on,48,0,1,,,,,,,,,1,,,79,0
73504,note_on,160,0,4,,,,,,,,,4,,,60,0
73504,note_on,0,0,2,,,,,,,,,2,,,77,0
73504,note_on,160,0,2,,,,,,,,,2,,,69,0
73504,note_on,160,0,3,,,,,,,,,3,,,72,0
73536,note_on,0,0,2,,,,,,,,,2,,,77,45
73536,note_on,32,0,2,,,,,,,,,2,,,69,45
73536,note_on,144,0,1,,,,,,,,,1,,,81,45
73536,note_on,32,0,3,,,,,,,,,3,,,72,45
73536,note_on,32,0,4,,,,,,,,,4,,,60,45
73584,note_on,48,0,1,,,,,,,,,1,,,81,0
73696,note_on,160,0,4,,,,,,,,,4,,,60,0
73696,note_on,160,0,3,,,,,,,,,3,,,72,0
73696,note_on,160,0,2,,,,,,,,,2,,,69,0
73696,note_on,0,0,2,,,,,,,,,2,,,77,0
73728,note_on,32,0,3,,,,,,,,,3,,,72,45
73728,note_on,144,0,1,,,,,,,,,1,,,82,45
73728,note_on,32,0,2,,,,,,,,,2,,,69,45
73728,note_on,0,0,2,,,,,,,,,2,,,77,45
73728,note_on,32,0,4,,,,,,,,,4,,,60,45
73776,note_on,48,0,1,,,,,,,,,1,,,82,0
73888,note_on,160,0,3,,,,,,,,,3,,,72,0
73888,note_on,160,0,2,,,,,,,,,2,,,69,0
73888,note_on,160,0,4,,,,,,,,,4,,,60,0
73888,note_on,0,0,2,,,,,,,,,2,,,77,0
73920,note_on,32,0,4,,,,,,,,,4,,,60,45
73920,note_on,144,0,1,,,,,,,,,1,,,84,45
73920,note_on,0,0,2,,,,,,,,,2,,,76,45
73920,note_on,32,0,3,,,,,,,,,3,,,72,45
73920,note_on,32,0,2,,,,,,,,,2,,,67,45
74080,note_on,160,0,1,,,,,,,,,1,,,84,0
74080,note_on,0,0,2,,,,,,,,,2,,,76,0
74080,note_on,160,0,3,,,,,,,,,3,,,72,0
74080,note_on,160,0,2,,,,,,,,,2,,,67,0
74080,note_on,160,0,4,,,,,,,,,4,,,60,0
74112,note_on,32,0,2,,,,,,,,,2,,,67,45
74112,note_on,0,0,2,,,,,,,,,2,,,76,45
74112,note_on,32,0,1,,,,,,,,,1,,,86,45
74112,note_on,32,0,3,,,,,,,,,3,,,72,45
74112,note_on,32,0,4,,,,,,,,,4,,,60,45
74272,note_on,160,0,4,,,,,,,,,4,,,60,0
74272,note_on,0,0,2,,,,,,,,,2,,,76,0
74272,note_on,160,0,1,,,,,,,,,1,,,86,0
74272,note_on,160,0,2,,,,,,,,,2,,,67,0
74272,note_on,160,0,3,,,,,,,,,3,,,72,0
74304,note_on,0,0,2,,,,,,,,,2,,,76,45
74304,note_on,32,0,1,,,,,,,,,1,,,88,45
74304,note_on,32,0,4,,,,,,,,,4,,,60,45
74304,note_on,32,0,2,,,,,,,,,2,,,67,45
74304,note_on,32,0,3,,,,,,,,,3,,,72,45
74464,note_on,160,0,1,,,,,,,,,1,,,88,0
74464,note_on,0,0,2,,,,,,,,,2,,,76,0
74464,note_on,160,0,2,,,,,,,,,2,,,67,0
74464,note_on,160,0,3,,,,,,,,,3,,,72,0
74464,note_on,160,0,4,,,,,,,,,4,,,60,0
74496,note_on,32,0,1,,,,,,,,,1,,,89,45
74496,note_on,32,0,3,,,,,,,,,3,,,72,45
74496,note_on,32,0,4,,,,,,,,,4,,,60,45
74496,note_on,0,0,2,,,,,,,,,2,,,76,45
74496,note_on,32,0,2,,,,,,,,,2,,,67,45
74656,note_on,160,0,1,,,,,,,,,1,,,89,0
74656,note_on,0,0,2,,,,,,,,,2,,,76,0
74656,note_on,160,0,3,,,,,,,,,3,,,72,0
74656,note_on,160,0,2,,,,,,,,,2,,,67,0
74656,note_on,160,0,4,,,,,,,,,4,,,60,0
74688,note_on,32,0,4,,,,,,,,,4,,,60,45
74688,note_on,32,0,1,,,,,,,,,1,,,91,45
74688,note_on,32,0,3,,,,,,,,,3,,,72,45
74688,note_on,32,0,2,,,,,,,,,2,,,67,45
74688,note_on,0,0,2,,,,,,,,,2,,,76,45
74848,note_on,160,0,1,,,,,,,,,1,,,91,0
74848,note_on,160,0,3,,,,,,,,,3,,,72,0
74848,note_on,160,0,4,,,,,,,,,4,,,60,0
74848,note_on,0,0,2,,,,,,,,,2,,,76,0
74848,note_on,160,0,2,,,,,,,,,2,,,67,0
74880,note_on,32,0,3,,,,,,,,,3,,,72,45
74880,note_on,32,0,2,,,,,,,,,2,,,67,45
74880,note_on,0,0,2,,,,,,,,,2,,,76,45
74880,note_on,32,0,4,,,,,,,,,4,,,60,45
74880,note_on,32,0,1,,,,,,,,,1,,,93,45
75040,note_on,160,0,2,,,,,,,,,2,,,67,0
75040,note_on,0,0,2,,,,,,,,,2,,,76,0
75040,note_on,160,0,4,,,,,,,,,4,,,60,0
75040,note_on,160,0,3,,,,,,,,,3,,,72,0
75040,note_on,160,0,1,,,,,,,,,1,,,93,0
75072,note_on,32,0,3,,,,,,,,,3,,,72,45
75072,note_on,0,0,2,,,,,,,,,2,,,76,45
75072,note_on,32,0,2,,,,,,,,,2,,,67,45
75072,note_on,32,0,4,,,,,,,,,4,,,60,45
75072,note_on,32,0,1,,,,,,,,,1,,,94,45
75232,note_on,160,0,1,,,,,,,,,1,,,94,0
75232,note_on,0,0,2,,,,,,,,,2,,,76,0
75232,note_on,160,0,2,,,,,,,,,2,,,67,0
75232,note_on,160,0,4,,,,,,,,,4,,,60,0
75232,note_on,160,0,3,,,,,,,,,3,,,72,0
75264,note_on,32,0,4,,,,,,,,,4,,,60,45
75264,note_on,32,0,2,,,,,,,,,2,,,67,45
75264,note_on,0,0,2,,,,,,,,,2,,,76,45
75264,note_on,32,0,3,,,,,,,,,3,,,72,45
75424,note_on,160,0,3,,,,,,,,,3,,,72,0
75424,note_on,160,0,2,,,,,,,,,2,,,67,0
75424,note_on,0,0,2,,,,,,,,,2,,,76,0
75424,note_on,160,0,4,,,,,,,,,4,,,60,0
75456,note_on,32,0,4,,,,,,,,,4,,,60,45
75456,note_on,0,0,2,,,,,,,,,2,,,76,45
75456,note_on,32,0,2,,,,,,,,,2,,,67,45
75456,note_on,32,0,3,,,,,,,,,3,,,72,45
75456,note_on,224,0,1,,,,,,,,,1,,,81,45
75616,note_on,160,0,4,,,,,,,,,4,,,60,0
75616,note_on,160,0,3,,,,,,,,,3,,,72,0
75616,note_on,0,0,2,,,,,,,,,2,,,76,0
75616,note_on,160,0,2,,,,,,,,,2,,,67,0
75616,note_on,160,0,1,,,,,,,,,1,,,81,0
75648,note_on,32,0,1,,,,,,,,,1,,,82,45
75648,note_on,32,0,3,,,,,,,,,3,,,72,45
75648,note_on,32,0,4,,,,,,,,,4,,,60,45
75648,note_on,32,0,2,,,,,,,,,2,,,67,45
75648,note_on,0,0,2,,,,,,,,,2,,,76,45
75808,note_on,0,0,2,,,,,,,,,2,,,76,0
75808,note_on,160,0,4,,,,,,,,,4,,,60,0
75808,note_on,160,0,1,,,,,,,,,1,,,82,0
75808,note_on,160,0,3,,,,,,,,,3,,,72,0
75808,note_on,160,0,2,,,,,,,,,2,,,67,0
75840,note_on,32,0,4,,,,,,,,,4,,,60,45
75840,note_on,32,0,3,,,,,,,,,3,,,72,45
75840,note_on,32,0,2,,,,,,,,,2,,,67,45
75840,note_on,0,0,2,,,,,,,,,2,,,76,45
76000,note_on,160,0,4,,,,,,,,,4,,,60,0
76000,note_on,0,0,2,,,,,,,,,2,,,76,0
76000,note_on,160,0,3,,,,,,,,,3,,,72,0
76000,note_on,160,0,2,,,,,,,,,2,,,67,0
76032,note_on,32,0,2,,,,,,,,,2,,,67,45
76032,note_on,0,0,2,,,,,,,,,2,,,76,45
76032,note_on,32,0,3,,,,,,,,,3,,,72,45
76032,note_on,224,0,1,,,,,,,,,1,,,84,45
76032,note_on,32,0,4,,,,,,,,,4,,,60,45
76192,note_on,160,0,4,,,,,,,,,4,,,60,0
76192,note_on,160,0,2,,,,,,,,,2,,,67,0
76192,note_on,0,0,2,,,,,,,,,2,,,76,0
76192,note_on,160,0,1,,,,,,,,,1,,,84,0
76192,note_on,160,0,3,,,,,,,,,3,,,72,0
76224,note_on,32,0,2,,,,,,,,,2,,,69,45
76224,note_on,0,0,2,,,,,,,,,2,,,77,45
76224,note_on,32,0,3,,,,,,,,,3,,,72,45
76224,note_on,32,0,1,,,,,,,,,1,,,81,45
76224,note_on,32,0,4,,,,,,,,,4,,,60,45
76384,note_on,160,0,1,,,,,,,,,1,,,81,0
76384,note_on,160,0,3,,,,,,,,,3,,,72,0
76384,note_on,160,0,4,,,,,,,,,4,,,60,0
76384,note_on,160,0,2,,,,,,,,,2,,,69,0
76384,note_on,0,0,2,,,,,,,,,2,,,77,0
76416,note_on,32,0,4,,,,,,,,,4,,,38,45
76416,note_on,32,0,3,,,,,,,,,3,,,50,45
76512,note_on,0,0,4,,,,,,,,,4,,,36,45
76512,note_on,96,0,4,,,,,,,,,4,,,38,0
76512,note_on,96,0,3,,,,,,,,,3,,,50,0
76512,note_on,0,0,3,,,,,,,,,3,,,48,45
76608,note_on,0,0,3,,,,,,,,,3,,,50,45
76608,note_on,96,0,3,,,,,,,,,3,,,48,0
76608,note_on,0,0,4,,,,,,,,,4,,,38,45
76608,note_on,96,0,4,,,,,,,,,4,,,36,0
76704,note_on,96,0,3,,,,,,,,,3,,,50,0
76704,note_on,96,0,4,,,,,,,,,4,,,38,0
76704,note_on,0,0,4,,,,,,,,,4,,,40,45
76704,note_on,0,0,3,,,,,,,,,3,,,52,45
76798,note_on,94,0,3,,,,,,,,,3,,,52,0
76798,note_on,94,0,4,,,,,,,,,4,,,40,0
76800,note_on,2,0,3,,,,,,,,,3,,,53,45
76800,note_on,2,0,4,,,,,,,,,4,,,41,45
76960,note_on,160,0,4,,,,,,,,,4,,,41,0
76960,note_on,160,0,3,,,,,,,,,3,,,53,0
76992,note_on,608,0,2,,,,,,,,,2,,,64,45
76992,note_on,608,0,1,,,,,,,,,1,,,76,45
77088,note_on,96,0,2,,,,,,,,,2,,,64,0
77088,note_on,0,0,1,,,,,,,,,1,,,74,46
77088,note_on,96,0,1,,,,,,,,,1,,,76,0
77088,note_on,0,0,2,,,,,,,,,2,,,62,46
77184,note_on,96,0,1,,,,,,,,,1,,,74,0
77184,note_on,0,0,1,,,,,,,,,1,,,76,47
77184,note_on,0,0,2,,,,,,,,,2,,,64,47
77184,note_on,96,0,2,,,,,,,,,2,,,62,0
77280,note_on,0,0,1,,,,,,,,,1,,,77,48
77280,note_on,96,0,1,,,,,,,,,1,,,76,0
77280,note_on,96,0,2,,,,,,,,,2,,,64,0
77280,note_on,0,0,2,,,,,,,,,2,,,65,48
77374,note_on,94,0,1,,,,,,,,,1,,,77,0
77374,note_on,94,0,2,,,,,,,,,2,,,65,0
77376,note_on,2,0,1,,,,,,,,,1,,,79,49
77376,note_on,2,0,2,,,,,,,,,2,,,67,49
77536,note_on,160,0,1,,,,,,,,,1,,,79,0
77536,note_on,160,0,2,,,,,,,,,2,,,67,0
77568,note_on,608,0,3,,,,,,,,,3,,,53,53
77568,note_on,608,0,4,,,,,,,,,4,,,41,53
77664,note_on,96,0,3,,,,,,,,,3,,,53,0
77664,note_on,0,0,4,,,,,,,,,4,,,40,54
77664,note_on,96,0,4,,,,,,,,,4,,,41,0
77664,note_on,0,0,3,,,,,,,,,3,,,52,54
77760,note_on,96,0,3,,,,,,,,,3,,,52,0
77760,note_on,96,0,4,,,,,,,,,4,,,40,0
77760,note_on,0,0,4,,,,,,,,,4,,,41,55
77760,note_on,0,0,3,,,,,,,,,3,,,53,55
77856,note_on,0,0,3,,,,,,,,,3,,,55,56
77856,note_on,96,0,4,,,,,,,,,4,,,41,0
77856,note_on,0,0,4,,,,,,,,,4,,,43,56
77856,note_on,96,0,3,,,,,,,,,3,,,53,0
77950,note_on,94,0,3,,,,,,,,,3,,,55,0
77950,note_on,94,0,4,,,,,,,,,4,,,43,0
77952,note_on,2,0,3,,,,,,,,,3,,,57,57
77952,note_on,2,0,4,,,,,,,,,4,,,45,57
78112,note_on,160,0,4,,,,,,,,,4,,,45,0
78112,note_on,160,0,3,,,,,,,,,3,,,57,0
78144,note_on,608,0,2,,,,,,,,,2,,,67,57
78144,note_on,608,0,1,,,,,,,,,1,,,79,57
78240,note_on,96,0,1,,,,,,,,,1,,,79,0
78240,note_on,0,0,1,,,,,,,,,1,,,77,58
78240,note_on,0,0,2,,,,,,,,,2,,,65,58
78240,note_on,96,0,2,,,,,,,,,2,,,67,0
78336,note_on,96,0,1,,,,,,,,,1,,,77,0
78336,note_on,0,0,1,,,,,,,,,1,,,79,59
78336,note_on,0,0,2,,,,,,,,,2,,,67,59
78336,note_on,96,0,2,,,,,,,,,2,,,65,0
78432,note_on,0,0,1,,,,,,,,,1,,,81,60
78432,note_on,96,0,1,,,,,,,,,1,,,79,0
78432,note_on,0,0,2,,,,,,,,,2,,,69,60
78432,note_on,96,0,2,,,,,,,,,2,,,67,0
78526,note_on,94,0,2,,,,,,,,,2,,,69,0
78526,note_on,94,0,1,,,,,,,,,1,,,81,0
78528,note_on,2,0,2,,,,,,,,,2,,,70,61
78528,note_on,2,0,1,,,,,,,,,1,,,82,61
78688,note_on,160,0,2,,,,,,,,,2,,,70,0
78688,note_on,160,0,1,,,,,,,,,1,,,82,0
78720,note_on,608,0,4,,,,,,,,,4,,,45,65
78720,note_on,608,0,3,,,,,,,,,3,,,57,65
78816,note_on,0,0,4,,,,,,,,,4,,,43,66
78816,note_on,0,0,3,,,,,,,,,3,,,55,66
78816,note_on,96,0,3,,,,,,,,,3,,,57,0
78816,note_on,96,0,4,,,,,,,,,4,,,45,0
78912,note_on,96,0,4,,,,,,,,,4,,,43,0
78912,note_on,0,0,4,,,,,,,,,4,,,45,67
78912,note_on,0,0,3,,,,,,,,,3,,,57,67
78912,note_on,96,0,3,,,,,,,,,3,,,55,0
79008,note_on,0,0,3,,,,,,,,,3,,,58,68
79008,note_on,96,0,4,,,,,,,,,4,,,45,0
79008,note_on,0,0,4,,,,,,,,,4,,,46,68
79008,note_on,96,0,3,,,,,,,,,3,,,57,0
79102,note_on,94,0,3,,,,,,,,,3,,,58,0
79102,note_on,94,0,4,,,,,,,,,4,,,46,0
79104,note_on,2,0,3,,,,,,,,,3,,,60,69
79104,note_on,2,0,4,,,,,,,,,4,,,48,69
79264,note_on,160,0,3,,,,,,,,,3,,,60,0
79264,note_on,160,0,4,,,,,,,,,4,,,48,0
79296,note_on,608,0,1,,,,,,,,,1,,,79,75
79296,note_on,608,0,2,,,,,,,,,2,,,67,75
79392,note_on,0,0,1,,,,,,,,,1,,,77,68
79392,note_on,96,0,1,,,,,,,,,1,,,79,0
79392,note_on,96,0,2,,,,,,,,,2,,,67,0
79392,note_on,0,0,2,,,,,,,,,2,,,65,68
79488,note_on,0,0,2,,,,,,,,,2,,,67,61
79488,note_on,96,0,2,,,,,,,,,2,,,65,0
79488,note_on,96,0,1,,,,,,,,,1,,,77,0
79488,note_on,0,0,1,,,,,,,,,1,,,79,61
79584,note_on,0,0,2,,,,,,,,,2,,,69,53
79584,note_on,96,0,2,,,,,,,,,2,,,67,0
79584,note_on,96,0,1,,,,,,,,,1,,,79,0
79584,note_on,0,0,1,,,,,,,,,1,,,81,53
79678,note_on,94,0,1,,,,,,,,,1,,,81,0
79678,note_on,94,0,2,,,,,,,,,2,,,69,0
79680,note_on,416,0,3,,,,,,,,,3,,,65,45
79680,note_on,416,0,4,,,,,,,,,4,,,62,45
79680,note_on,2,0,1,,,,,,,,,1,,,82,45
79680,note_on,2,0,2,,,,,,,,,2,,,70,45
79840,note_on,160,0,2,,,,,,,,,2,,,70,0
79840,note_on,160,0,3,,,,,,,,,3,,,65,0
79840,note_on,160,0,1,,,,,,,,,1,,,82,0
79840,note_on,160,0,4,,,,,,,,,4,,,62,0
80064,note_on,224,0,2,,,,,,,,,2,,,77,45
80064,note_on,224,0,3,,,,,,,,,3,,,72,45
80064,note_on,224,0,4,,,,,,,,,4,,,62,45
80064,note_on,224,0,1,,,,,,,,,1,,,81,45
80224,note_on,160,0,2,,,,,,,,,2,,,77,0
80224,note_on,160,0,4,,,,,,,,,4,,,62,0
80224,note_on,160,0,1,,,,,,,,,1,,,81,0
80224,note_on,160,0,3,,,,,,,,,3,,,72,0
80256,note_on,32,0,2,,,,,,,,,2,,,76,45
80256,note_on,32,0,4,,,,,,,,,4,,,64,45
80256,note_on,32,0,3,,,,,,,,,3,,,72,45
80256,note_on,32,0,1,,,,,,,,,1,,,81,45
80640,note_on,384,0,3,,,,,,,,,3,,,72,0
80640,note_on,0,0,1,,,,,,,,,1,,,80,45
80640,note_on,0,0,3,,,,,,,,,3,,,71,45
80640,note_on,384,0,1,,,,,,,,,1,,,81,0
80784,note_on,528,0,4,,,,,,,,,4,,,64,0
80784,note_on,528,0,2,,,,,,,,,2,,,76,0
80800,note_on,160,0,3,,,,,,,,,3,,,71,0
80800,note_on,160,0,1,,,,,,,,,1,,,80,0
80832,note_on,32,0,3,,,,,,,,,3,,,69,45
80832,note_on,48,0,4,,,,,,,,,4,,,41,45
80832,note_on,32,0,1,,,,,,,,,1,,,81,45
80832,note_on,48,0,2,,,,,,,,,2,,,65,45
80880,note_on,48,0,3,,,,,,,,,3,,,69,0
80880,note_on,48,0,2,,,,,,,,,2,,,65,0
80992,note_on,160,0,1,,,,,,,,,1,,,81,0
81024,note_on,144,0,2,,,,,,,,,2,,,81,45
81024,note_on,144,0,3,,,,,,,,,3,,,69,45
81120,note_on,96,0,2,,,,,,,,,2,,,81,0
81120,note_on,0,0,2,,,,,,,,,2,,,80,48
81120,note_on,0,0,3,,,,,,,,,3,,,68,48
81120,note_on,96,0,3,,,,,,,,,3,,,69,0
81216,note_on,0,0,2,,,,,,,,,2,,,81,51
81216,note_on,96,0,3,,,,,,,,,3,,,68,0
81216,note_on,96,0,2,,,,,,,,,2,,,80,0
81216,note_on,0,0,3,,,,,,,,,3,,,69,51
81312,note_on,96,0,3,,,,,,,,,3,,,69,0
81312,note_on,0,0,3,,,,,,,,,3,,,71,54
81312,note_on,96,0,2,,,,,,,,,2,,,81,0
81312,note_on,0,0,2,,,,,,,,,2,,,83,54
81406,note_on,94,0,3,,,,,,,,,3,,,71,0
81406,note_on,94,0,2,,,,,,,,,2,,,83,0
81408,note_on,2,0,3,,,,,,,,,3,,,72,57
81408,note_on,2,0,2,,,,,,,,,2,,,84,57
81568,note_on,160,0,3,,,,,,,,,3,,,72,0
81568,note_on,160,0,2,,,,,,,,,2,,,84,0
81600,note_on,608,0,1,,,,,,,,,1,,,79,45
81600,note_on,32,0,2,,,,,,,,,2,,,67,63
81696,note_on,96,0,1,,,,,,,,,1,,,79,0
81696,note_on,0,0,2,,,,,,,,,2,,,65,66
81696,note_on,0,0,1,,,,,,,,,1,,,77,52
81696,note_on,96,0,2,,,,,,,,,2,,,67,0
81792,note_on,96,0,1,,,,,,,,,1,,,77,0
81792,note_on,0,0,1,,,,,,,,,1,,,79,59
81792,note_on,96,0,2,,,,,,,,,2,,,65,0
81792,note_on,0,0,2,,,,,,,,,2,,,67,69
81888,note_on,96,0,1,,,,,,,,,1,,,79,0
81888,note_on,0,0,1,,,,,,,,,1,,,81,67
81888,note_on,96,0,2,,,,,,,,,2,,,67,0
81888,note_on,0,0,2,,,,,,,,,2,,,69,72
81936,note_on,1104,0,4,,,,,,,,,4,,,41,0
81982,note_on,94,0,1,,,,,,,,,1,,,81,0
81982,note_on,94,0,2,,,,,,,,,2,,,69,0
81984,note_on,2,0,1,,,,,,,,,1,,,82,45
81984,note_on,2,0,2,,,,,,,,,2,,,70,45
81984,note_on,416,0,3,,,,,,,,,3,,,65,45
81984,note_on,48,0,4,,,,,,,,,4,,,38,45
82144,note_on,160,0,1,,,,,,,,,1,,,82,0
82144,note_on,160,0,2,,,,,,,,,2,,,70,0
82144,note_on,160,0,3,,,,,,,,,3,,,65,0
82144,note_on,160,0,4,,,,,,,,,4,,,38,0
82368,note_on,224,0,3,,,,,,,,,3,,,65,45
82368,note_on,224,0,4,,,,,,,,,4,,,62,45
82368,note_on,224,0,1,,,,,,,,,1,,,81,45
82368,note_on,224,0,2,,,,,,,,,2,,,77,45
82528,note_on,160,0,4,,,,,,,,,4,,,62,0
82528,note_on,160,0,2,,,,,,,,,2,,,77,0
82528,note_on,160,0,3,,,,,,,,,3,,,65,0
82528,note_on,160,0,1,,,,,,,,,1,,,81,0
82560,note_on,32,0,1,,,,,,,,,1,,,81,45
82560,note_on,32,0,3,,,,,,,,,3,,,72,45
82560,note_on,32,0,2,,,,,,,,,2,,,76,45
82560,note_on,32,0,4,,,,,,,,,4,,,64,45
82944,note_on,0,0,1,,,,,,,,,1,,,80,45
82944,note_on,0,0,3,,,,,,,,,3,,,71,45
82944,note_on,384,0,1,,,,,,,,,1,,,81,0
82944,note_on,384,0,3,,,,,,,,,3,,,72,0
83088,note_on,528,0,4,,,,,,,,,4,,,64,0
83088,note_on,528,0,2,,,,,,,,,2,,,76,0
83104,note_on,160,0,3,,,,,,,,,3,,,71,0
83104,note_on,160,0,1,,,,,,,,,1,,,80,0
83136,note_on,32,0,1,,,,,,,,,1,,,81,45
83136,note_on,32,0,3,,,,,,,,,3,,,72,45
83136,note_on,48,0,2,,,,,,,,,2,,,76,45
83136,note_on,48,0,4,,,,,,,,,4,,,60,45
83296,note_on,160,0,1,,,,,,,,,1,,,81,0
83296,note_on,160,0,3,,,,,,,,,3,,,72,0
83296,note_on,160,0,2,,,,,,,,,2,,,76,0
83296,note_on,160,0,4,,,,,,,,,4,,,60,0
83520,note_on,224,0,2,,,,,,,,,2,,,76,45
83520,note_on,224,0,4,,,,,,,,,4,,,60,45
83520,note_on,224,0,3,,,,,,,,,3,,,72,45
83520,note_on,224,0,1,,,,,,,,,1,,,79,45
83680,note_on,160,0,4,,,,,,,,,4,,,60,0
83680,note_on,160,0,1,,,,,,,,,1,,,79,0
83680,note_on,160,0,3,,,,,,,,,3,,,72,0
83680,note_on,160,0,2,,,,,,,,,2,,,76,0
83712,note_on,32,0,1,,,,,,,,,1,,,79,45
83712,note_on,32,0,2,,,,,,,,,2,,,74,45
83712,note_on,32,0,3,,,,,,,,,3,,,71,45
83712,note_on,32,0,4,,,,,,,,,4,,,62,45
84096,note_on,0,0,3,,,,,,,,,3,,,69,45
84096,note_on,384,0,1,,,,,,,,,1,,,79,0
84096,note_on,0,0,1,,,,,,,,,1,,,78,45
84096,note_on,384,0,3,,,,,,,,,3,,,71,0
84240,note_on,528,0,4,,,,,,,,,4,,,62,0
84240,note_on,528,0,2,,,,,,,,,2,,,74,0
84256,note_on,160,0,1,,,,,,,,,1,,,78,0
84256,note_on,160,0,3,,,,,,,,,3,,,69,0
84288,note_on,48,0,2,,,,,,,,,2,,,74,92
84288,note_on,48,0,4,,,,,,,,,4,,,55,92
84288,key_signature,84288,1,0,,G,,,,,,,,,,,
84288,note_on,0,0,1,,,,,,,,,1,,,79,92
84288,note_on,32,0,3,,,,,,,,,3,,,67,92
84288,note_on,32,0,1,,,,,,,,,1,,,71,92
84448,note_on,160,0,1,,,,,,,,,1,,,71,0
84448,note_on,160,0,3,,,,,,,,,3,,,67,0
84448,note_on,160,0,4,,,,,,,,,4,,,55,0
84448,note_on,160,0,2,,,,,,,,,2,,,74,0
84448,note_on,0,0,1,,,,,,,,,1,,,79,0
84480,note_on,32,0,4,,,,,,,,,4,,,62,45
84480,note_on,0,0,2,,,,,,,,,2,,,83,45
84480,note_on,0,0,3,,,,,,,,,3,,,71,45
84480,note_on,32,0,3,,,,,,,,,3,,,67,45
84480,note_on,32,0,2,,,,,,,,,2,,,74,45
84576,note_on,128,0,1,,,,,,,,,1,,,66,45
84640,note_on,160,0,4,,,,,,,,,4,,,62,0
84640,note_on,0,0,2,,,,,,,,,2,,,83,0
84640,note_on,0,0,3,,,,,,,,,3,,,71,0
84640,note_on,160,0,3,,,,,,,,,3,,,67,0
84640,note_on,160,0,2,,,,,,,,,2,,,74,0
84672,note_on,32,0,3,,,,,,,,,3,,,67,45
84672,note_on,96,0,1,,,,,,,,,1,,,66,0
84672,note_on,32,0,2,,,,,,,,,2,,,74,45
84672,note_on,0,0,2,,,,,,,,,2,,,83,45
84672,note_on,32,0,4,,,,,,,,,4,,,62,45
84672,note_on,0,0,3,,,,,,,,,3,,,71,45
84768,note_on,96,0,1,,,,,,,,,1,,,69,45
84832,note_on,160,0,2,,,,,,,,,2,,,74,0
84832,note_on,160,0,4,,,,,,,,,4,,,62,0
84832,note_on,160,0,3,,,,,,,,,3,,,67,0
84832,note_on,0,0,3,,,,,,,,,3,,,71,0
84832,note_on,0,0,2,,,,,,,,,2,,,83,0
84862,note_on,94,0,1,,,,,,,,,1,,,69,0
84864,note_on,0,0,2,,,,,,,,,2,,,83,45
84864,note_on,32,0,2,,,,,,,,,2,,,74,45
84864,note_on,32,0,4,,,,,,,,,4,,,62,45
84864,note_on,32,0,3,,,,,,,,,3,,,67,45
84864,note_on,0,0,3,,,,,,,,,3,,,71,45
85024,note_on,0,0,2,,,,,,,,,2,,,83,0
85024,note_on,160,0,2,,,,,,,,,2,,,74,0
85024,note_on,0,0,3,,,,,,,,,3,,,71,0
85024,note_on,160,0,3,,,,,,,,,3,,,67,0
85024,note_on,160,0,4,,,,,,,,,4,,,62,0
85056,note_on,32,0,4,,,,,,,,,4,,,62,45
85056,note_on,0,0,2,,,,,,,,,2,,,83,45
85056,note_on,32,0,2,,,,,,,,,2,,,74,45
85056,note_on,32,0,3,,,,,,,,,3,,,67,45
85056,note_on,0,0,3,,,,,,,,,3,,,71,45
85056,note_on,194,0,1,,,,,,,,,1,,,72,45
85104,note_on,48,0,1,,,,,,,,,1,,,72,0
85216,note_on,0,0,3,,,,,,,,,3,,,71,0
85216,note_on,160,0,2,,,,,,,,,2,,,74,0
85216,note_on,0,0,2,,,,,,,,,2,,,83,0
85216,note_on,160,0,3,,,,,,,,,3,,,67,0
85216,note_on,160,0,4,,,,,,,,,4,,,62,0
85248,note_on,32,0,4,,,,,,,,,4,,,62,45
85248,note_on,0,0,3,,,,,,,,,3,,,71,45
85248,note_on,32,0,3,,,,,,,,,3,,,67,45
85248,note_on,32,0,2,,,,,,,,,2,,,74,45
85248,note_on,0,0,2,,,,,,,,,2,,,83,45
85408,note_on,0,0,2,,,,,,,,,2,,,83,0
85408,note_on,160,0,4,,,,,,,,,4,,,62,0
85408,note_on,160,0,3,,,,,,,,,3,,,67,0
85408,note_on,0,0,3,,,,,,,,,3,,,71,0
85408,note_on,160,0,2,,,,,,,,,2,,,74,0
85440,note_on,336,0,1,,,,,,,,,1,,,76,45
85440,note_on,32,0,3,,,,,,,,,3,,,67,45
85440,note_on,0,0,3,,,,,,,,,3,,,71,45
85440,note_on,0,0,2,,,,,,,,,2,,,83,45
85440,note_on,32,0,2,,,,,,,,,2,,,74,45
85440,note_on,32,0,4,,,,,,,,,4,,,62,45
85488,note_on,48,0,1,,,,,,,,,1,,,76,0
85600,note_on,0,0,2,,,,,,,,,2,,,83,0
85600,note_on,160,0,4,,,,,,,,,4,,,62,0
85600,note_on,160,0,3,,,,,,,,,3,,,67,0
85600,note_on,0,0,3,,,,,,,,,3,,,71,0
85600,note_on,160,0,2,,,,,,,,,2,,,74,0
85632,note_on,32,0,2,,,,,,,,,2,,,74,45
85632,note_on,32,0,3,,,,,,,,,3,,,67,45
85632,note_on,0,0,3,,,,,,,,,3,,,71,45
85632,note_on,144,0,1,,,,,,,,,1,,,78,45
85632,note_on,0,0,2,,,,,,,,,2,,,83,45
85632,note_on,32,0,4,,,,,,,,,4,,,62,45
85680,note_on,48,0,1,,,,,,,,,1,,,78,0
85792,note_on,160,0,4,,,,,,,,,4,,,62,0
85792,note_on,0,0,3,,,,,,,,,3,,,71,0
85792,note_on,160,0,3,,,,,,,,,3,,,67,0
85792,note_on,160,0,2,,,,,,,,,2,,,74,0
85792,note_on,0,0,2,,,,,,,,,2,,,83,0
85824,note_on,144,0,1,,,,,,,,,1,,,79,45
85824,note_on,32,0,3,,,,,,,,,3,,,67,45
85824,note_on,0,0,3,,,,,,,,,3,,,71,45
85824,note_on,32,0,4,,,,,,,,,4,,,62,45
85824,note_on,32,0,2,,,,,,,,,2,,,74,45
85824,note_on,0,0,2,,,,,,,,,2,,,83,45
85872,note_on,48,0,1,,,,,,,,,1,,,79,0
85984,note_on,160,0,2,,,,,,,,,2,,,74,0
85984,note_on,0,0,2,,,,,,,,,2,,,83,0
85984,note_on,160,0,3,,,,,,,,,3,,,67,0
85984,note_on,0,0,3,,,,,,,,,3,,,71,0
85984,note_on,160,0,4,,,,,,,,,4,,,62,0
86016,note_on,32,0,3,,,,,,,,,3,,,66,45
86016,note_on,0,0,3,,,,,,,,,3,,,69,45
86016,note_on,32,0,4,,,,,,,,,4,,,62,45
86016,note_on,0,0,2,,,,,,,,,2,,,84,45
86016,note_on,32,0,2,,,,,,,,,2,,,74,45
86016,note_on,144,0,1,,,,,,,,,1,,,81,45
86064,note_on,48,0,1,,,,,,,,,1,,,81,0
86176,note_on,160,0,3,,,,,,,,,3,,,66,0
86176,note_on,0,0,2,,,,,,,,,2,,,84,0
86176,note_on,160,0,2,,,,,,,,,2,,,74,0
86176,note_on,160,0,4,,,,,,,,,4,,,62,0
86176,note_on,0,0,3,,,,,,,,,3,,,69,0
86208,note_on,32,0,4,,,,,,,,,4,,,62,45
86208,note_on,0,0,3,,,,,,,,,3,,,69,45
86208,note_on,32,0,2,,,,,,,,,2,,,74,45
86208,note_on,144,0,1,,,,,,,,,1,,,83,45
86208,note_on,32,0,3,,,,,,,,,3,,,66,45
86208,note_on,0,0,2,,,,,,,,,2,,,84,45
86256,note_on,48,0,1,,,,,,,,,1,,,83,0
86368,note_on,160,0,2,,,,,,,,,2,,,74,0
86368,note_on,0,0,2,,,,,,,,,2,,,84,0
86368,note_on,0,0,3,,,,,,,,,3,,,69,0
86368,note_on,160,0,3,,,,,,,,,3,,,66,0
86368,note_on,160,0,4,,,,,,,,,4,,,62,0
86400,note_on,0,0,2,,,,,,,,,2,,,84,45
86400,note_on,32,0,4,,,,,,,,,4,,,62,45
86400,note_on,32,0,2,,,,,,,,,2,,,74,45
86400,note_on,0,0,3,,,,,,,,,3,,,69,45
86400,note_on,32,0,3,,,,,,,,,3,,,66,45
86560,note_on,0,0,2,,,,,,,,,2,,,84,0
86560,note_on,160,0,4,,,,,,,,,4,,,62,0
86560,note_on,160,0,3,,,,,,,,,3,,,66,0
86560,note_on,160,0,2,,,,,,,,,2,,,74,0
86560,note_on,0,0,3,,,,,,,,,3,,,69,0
86592,note_on,336,0,1,,,,,,,,,1,,,86,45
86592,note_on,32,0,3,,,,,,,,,3,,,66,45
86592,note_on,0,0,3,,,,,,,,,3,,,69,45
86592,note_on,32,0,4,,,,,,,,,4,,,62,45
86592,note_on,32,0,2,,,,,,,,,2,,,74,45
86592,note_on,0,0,2,,,,,,,,,2,,,84,45
86752,note_on,160,0,3,,,,,,,,,3,,,66,0
86752,note_on,0,0,3,,,,,,,,,3,,,69,0
86752,note_on,160,0,4,,,,,,,,,4,,,62,0
86752,note_on,160,0,1,,,,,,,,,1,,,86,0
86752,note_on,0,0,2,,,,,,,,,2,,,84,0
86752,note_on,160,0,2,,,,,,,,,2,,,74,0
86784,note_on,32,0,3,,,,,,,,,3,,,66,45
86784,note_on,0,0,3,,,,,,,,,3,,,69,45
86784,note_on,32,0,2,,,,,,,,,2,,,74,45
86784,note_on,0,0,2,,,,,,,,,2,,,84,45
86784,note_on,32,0,1,,,,,,,,,1,,,88,45
86784,note_on,32,0,4,,,,,,,,,4,,,62,45
86944,note_on,160,0,2,,,,,,,,,2,,,74,0
86944,note_on,0,0,2,,,,,,,,,2,,,84,0
86944,note_on,0,0,3,,,,,,,,,3,,,69,0
86944,note_on,160,0,3,,,,,,,,,3,,,66,0
86944,note_on,160,0,4,,,,,,,,,4,,,62,0
86944,note_on,160,0,1,,,,,,,,,1,,,88,0
86976,note_on,32,0,2,,,,,,,,,2,,,74,45
86976,note_on,0,0,2,,,,,,,,,2,,,84,45
86976,note_on,32,0,3,,,,,,,,,3,,,66,45
86976,note_on,32,0,4,,,,,,,,,4,,,62,45
86976,note_on,0,0,3,,,,,,,,,3,,,69,45
86976,note_on,32,0,1,,,,,,,,,1,,,90,45
87136,note_on,0,0,3,,,,,,,,,3,,,69,0
87136,note_on,160,0,4,,,,,,,,,4,,,62,0
87136,note_on,160,0,3,,,,,,,,,3,,,66,0
87136,note_on,160,0,2,,,,,,,,,2,,,74,0
87136,note_on,0,0,2,,,,,,,,,2,,,84,0
87136,note_on,160,0,1,,,,,,,,,1,,,90,0
87168,note_on,32,0,2,,,,,,,,,2,,,74,45
87168,note_on,0,0,2,,,,,,,,,2,,,84,45
87168,note_on,32,0,3,,,,,,,,,3,,,66,45
87168,note_on,0,0,3,,,,,,,,,3,,,69,45
87168,note_on,32,0,1,,,,,,,,,1,,,91,45
87168,note_on,32,0,4,,,,,,,,,4,,,62,45
87328,note_on,160,0,4,,,,,,,,,4,,,62,0
87328,note_on,160,0,2,,,,,,,,,2,,,74,0
87328,note_on,0,0,2,,,,,,,,,2,,,84,0
87328,note_on,160,0,1,,,,,,,,,1,,,91,0
87328,note_on,0,0,3,,,,,,,,,3,,,69,0
87328,note_on,160,0,3,,,,,,,,,3,,,66,0
87360,note_on,32,0,3,,,,,,,,,3,,,66,45
87360,note_on,32,0,1,,,,,,,,,1,,,93,45
87360,note_on,0,0,2,,,,,,,,,2,,,84,45
87360,note_on,32,0,2,,,,,,,,,2,,,74,45
87360,note_on,32,0,4,,,,,,,,,4,,,62,45
87360,note_on,0,0,3,,,,,,,,,3,,,69,45
87520,note_on,160,0,2,,,,,,,,,2,,,74,0
87520,note_on,0,0,2,,,,,,,,,2,,,84,0
87520,note_on,0,0,3,,,,,,,,,3,,,69,0
87520,note_on,160,0,3,,,,,,,,,3,,,66,0
87520,note_on,160,0,1,,,,,,,,,1,,,93,0
87520,note_on,160,0,4,,,,,,,,,4,,,62,0
87552,note_on,32,0,1,,,,,,,,,1,,,95,45
87552,note_on,0,0,3,,,,,,,,,3,,,69,45
87552,note_on,32,0,3,,,,,,,,,3,,,66,45
87552,note_on,0,0,2,,,,,,,,,2,,,84,45
87552,note_on,32,0,2,,,,,,,,,2,,,74,45
87552,note_on,32,0,4,,,,,,,,,4,,,62,45
87712,note_on,0,0,3,,,,,,,,,3,,,69,0
87712,note_on,160,0,3,,,,,,,,,3,,,66,0
87712,note_on,0,0,2,,,,,,,,,2,,,84,0
87712,note_on,160,0,2,,,,,,,,,2,,,74,0
87712,note_on,160,0,1,,,,,,,,,1,,,95,0
87712,note_on,160,0,4,,,,,,,,,4,,,62,0
87744,note_on,32,0,1,,,,,,,,,1,,,96,45
87744,note_on,32,0,3,,,,,,,,,3,,,66,45
87744,note_on,0,0,3,,,,,,,,,3,,,69,45
87744,note_on,32,0,4,,,,,,,,,4,,,62,45
87744,note_on,32,0,2,,,,,,,,,2,,,74,45
87744,note_on,0,0,2,,,,,,,,,2,,,84,45
87904,note_on,160,0,1,,,,,,,,,1,,,96,0
87904,note_on,160,0,2,,,,,,,,,2,,,74,0
87904,note_on,0,0,2,,,,,,,,,2,,,84,0
87904,note_on,0,0,3,,,,,,,,,3,,,69,0
87904,note_on,160,0,3,,,,,,,,,3,,,66,0
87904,note_on,160,0,4,,,,,,,,,4,,,62,0
87936,note_on,32,0,4,,,,,,,,,4,,,62,45
87936,note_on,0,0,2,,,,,,,,,2,,,84,45
87936,note_on,32,0,2,,,,,,,,,2,,,74,45
87936,note_on,0,0,3,,,,,,,,,3,,,69,45
87936,note_on,32,0,3,,,,,,,,,3,,,66,45
88096,note_on,160,0,3,,,,,,,,,3,,,66,0
88096,note_on,0,0,3,,,,,,,,,3,,,69,0
88096,note_on,160,0,2,,,,,,,,,2,,,74,0
88096,note_on,0,0,2,,,,,,,,,2,,,84,0
88096,note_on,160,0,4,,,,,,,,,4,,,62,0
88128,note_on,32,0,2,,,,,,,,,2,,,74,45
88128,note_on,0,0,2,,,,,,,,,2,,,84,45
88128,note_on,224,0,1,,,,,,,,,1,,,71,45
88128,note_on,32,0,4,,,,,,,,,4,,,62,45
88128,note_on,32,0,3,,,,,,,,,3,,,66,45
88128,note_on,0,0,3,,,,,,,,,3,,,69,45
88288,note_on,160,0,1,,,,,,,,,1,,,71,0
88288,note_on,160,0,4,,,,,,,,,4,,,62,0
88288,note_on,0,0,2,,,,,,,,,2,,,84,0
88288,note_on,160,0,3,,,,,,,,,3,,,66,0
88288,note_on,0,0,3,,,,,,,,,3,,,69,0
88288,note_on,160,0,2,,,,,,,,,2,,,74,0
88320,note_on,0,0,2,,,,,,,,,2,,,84,45
88320,note_on,32,0,2,,,,,,,,,2,,,74,45
88320,note_on,32,0,1,,,,,,,,,1,,,72,45
88320,note_on,32,0,4,,,,,,,,,4,,,62,45
88320,note_on,0,0,3,,,,,,,,,3,,,69,45
88320,note_on,32,0,3,,,,,,,,,3,,,66,45
88480,note_on,0,0,3,,,,,,,,,3,,,69,0
88480,note_on,160,0,3,,,,,,,,,3,,,66,0
88480,note_on,160,0,1,,,,,,,,,1,,,72,0
88480,note_on,160,0,2,,,,,,,,,2,,,74,0
88480,note_on,0,0,2,,,,,,,,,2,,,84,0
88480,note_on,160,0,4,,,,,,,,,4,,,62,0
88512,note_on,0,0,3,,,,,,,,,3,,,69,45
88512,note_on,32,0,4,,,,,,,,,4,,,62,45
88512,note_on,32,0,2,,,,,,,,,2,,,74,45
88512,note_on,0,0,2,,,,,,,,,2,,,84,45
88512,note_on,32,0,3,,,,,,,,,3,,,66,45
88672,note_on,160,0,2,,,,,,,,,2,,,74,0
88672,note_on,0,0,2,,,,,,,,,2,,,84,0
88672,note_on,0,0,3,,,,,,,,,3,,,69,0
88672,note_on,160,0,4,,,,,,,,,4,,,62,0
88672,note_on,160,0,3,,,,,,,,,3,,,66,0
88704,note_on,32,0,2,,,,,,,,,2,,,74,45
88704,note_on,32,0,4,,,,,,,,,4,,,62,45
88704,note_on,32,0,3,,,,,,,,,3,,,66,45
88704,note_on,0,0,2,,,,,,,,,2,,,84,45
88704,note_on,0,0,3,,,,,,,,,3,,,69,45
88864,note_on,160,0,3,,,,,,,,,3,,,66,0
88864,note_on,160,0,4,,,,,,,,,4,,,62,0
88864,note_on,0,0,2,,,,,,,,,2,,,84,0
88864,note_on,160,0,2,,,,,,,,,2,,,74,0
88864,note_on,0,0,3,,,,,,,,,3,,,69,0
88896,note_on,32,0,3,,,,,,,,,3,,,67,92
88896,note_on,0,0,2,,,,,,,,,2,,,83,92
88896,note_on,32,0,2,,,,,,,,,2,,,74,92
88896,note_on,32,0,4,,,,,,,,,4,,,55,92
88896,note_on,0,0,3,,,,,,,,,3,,,71,92
89056,note_on,0,0,3,,,,,,,,,3,,,71,0
89056,note_on,0,0,2,,,,,,,,,2,,,83,0
89056,note_on,160,0,3,,,,,,,,,3,,,67,0
89056,note_on,160,0,2,,,,,,,,,2,,,74,0
89056,note_on,160,0,4,,,,,,,,,4,,,55,0
89088,note_on,32,0,2,,,,,,,,,2,,,74,45
89088,note_on,0,0,2,,,,,,,,,2,,,83,45
89088,note_on,32,0,3,,,,,,,,,3,,,67,45
89088,note_on,32,0,4,,,,,,,,,4,,,62,45
89088,note_on,0,0,3,,,,,,,,,3,,,71,45
89184,note_on,704,0,1,,,,,,,,,1,,,66,45
89248,note_on,160,0,2,,,,,,,,,2,,,74,0
89248,note_on,0,0,2,,,,,,,,,2,,,83,0
89248,note_on,160,0,4,,,,,,,,,4,,,62,0
89248,note_on,0,0,3,,,,,,,,,3,,,71,0
89248,note_on,160,0,3,,,,,,,,,3,,,67,0
89280,note_on,96,0,1,,,,,,,,,1,,,66,0
89280,note_on,0,0,2,,,,,,,,,2,,,83,45
89280,note_on,32,0,4,,,,,,,,,4,,,62,45
89280,note_on,0,0,3,,,,,,,,,3,,,71,45
89280,note_on,32,0,3,,,,,,,,,3,,,67,45
89280,note_on,32,0,2,,,,,,,,,2,,,74,45
89376,note_on,96,0,1,,,,,,,,,1,,,69,45
89440,note_on,160,0,4,,,,,,,,,4,,,62,0
89440,note_on,0,0,3,,,,,,,,,3,,,71,0
89440,note_on,160,0,3,,,,,,,,,3,,,67,0
89440,note_on,160,0,2,,,,,,,,,2,,,74,0
89440,note_on,0,0,2,,,,,,,,,2,,,83,0
89470,note_on,94,0,1,,,,,,,,,1,,,69,0
89472,note_on,32,0,4,,,,,,,,,4,,,62,45
89472,note_on,32,0,2,,,,,,,,,2,,,74,45
89472,note_on,0,0,2,,,,,,,,,2,,,83,45
89472,note_on,32,0,3,,,,,,,,,3,,,67,45
89472,note_on,0,0,3,,,,,,,,,3,,,71,45
89632,note_on,0,0,2,,,,,,,,,2,,,83,0
89632,note_on,160,0,4,,,,,,,,,4,,,62,0
89632,note_on,160,0,3,,,,,,,,,3,,,67,0
89632,note_on,0,0,3,,,,,,,,,3,,,71,0
89632,note_on,160,0,2,,,,,,,,,2,,,74,0
89664,note_on,32,0,3,,,,,,,,,3,,,67,45
89664,note_on,32,0,2,,,,,,,,,2,,,74,45
89664,note_on,32,0,4,,,,,,,,,4,,,62,45
89664,note_on,0,0,2,,,,,,,,,2,,,83,45
89664,note_on,194,0,1,,,,,,,,,1,,,72,45
89664,note_on,0,0,3,,,,,,,,,3,,,71,45
89712,note_on,48,0,1,,,,,,,,,1,,,72,0
89824,note_on,0,0,3,,,,,,,,,3,,,71,0
89824,note_on,160,0,4,,,,,,,,,4,,,62,0
89824,note_on,0,0,2,,,,,,,,,2,,,83,0
89824,note_on,160,0,3,,,,,,,,,3,,,67,0
89824,note_on,160,0,2,,,,,,,,,2,,,74,0
89856,note_on,32,0,3,,,,,,,,,3,,,67,45
89856,note_on,32,0,4,,,,,,,,,4,,,62,45
89856,note_on,0,0,2,,,,,,,,,2,,,83,45
89856,note_on,32,0,2,,,,,,,,,2,,,74,45
89856,note_on,0,0,3,,,,,,,,,3,,,71,45
90016,note_on,160,0,4,,,,,,,,,4,,,62,0
90016,note_on,0,0,2,,,,,,,,,2,,,83,0
90016,note_on,160,0,2,,,,,,,,,2,,,74,0
90016,note_on,160,0,3,,,,,,,,,3,,,67,0
90016,note_on,0,0,3,,,,,,,,,3,,,71,0
90048,note_on,32,0,4,,,,,,,,,4,,,62,45
90048,note_on,0,0,2,,,,,,,,,2,,,83,45
90048,note_on,32,0,2,,,,,,,,,2,,,74,45
90048,note_on,336,0,1,,,,,,,,,1,,,76,45
90048,note_on,32,0,3,,,,,,,,,3,,,67,45
90048,note_on,0,0,3,,,,,,,,,3,,,71,45
90208,note_on,160,0,1,,,,,,,,,1,,,76,0
90208,note_on,0,0,3,,,,,,,,,3,,,71,0
90208,note_on,160,0,4,,,,,,,,,4,,,62,0
90208,note_on,160,0,2,,,,,,,,,2,,,74,0
90208,note_on,0,0,2,,,,,,,,,2,,,83,0
90208,note_on,160,0,3,,,,,,,,,3,,,67,0
90240,note_on,32,0,1,,,,,,,,,1,,,78,45
90240,note_on,0,0,3,,,,,,,,,3,,,71,45
90240,note_on,0,0,2,,,,,,,,,2,,,83,45
90240,note_on,32,0,3,,,,,,,,,3,,,67,45
90240,note_on,32,0,2,,,,,,,,,2,,,74,45
90240,note_on,32,0,4,,,,,,,,,4,,,62,45
90400,note_on,160,0,4,,,,,,,,,4,,,62,0
90400,note_on,0,0,2,,,,,,,,,2,,,83,0
90400,note_on,160,0,3,,,,,,,,,3,,,67,0
90400,note_on,160,0,2,,,,,,,,,2,,,74,0
90400,note_on,160,0,1,,,,,,,,,1,,,78,0
90400,note_on,0,0,3,,,,,,,,,3,,,71,0
90432,note_on,32,0,1,,,,,,,,,1,,,79,45
90432,note_on,0,0,2,,,,,,,,,2,,,83,45
90432,note_on,32,0,2,,,,,,,,,2,,,74,45
90432,note_on,0,0,3,,,,,,,,,3,,,71,45
90432,note_on,32,0,3,,,,,,,,,3,,,67,45
90432,note_on,32,0,4,,,,,,,,,4,,,62,45
90592,note_on,160,0,3,,,,,,,,,3,,,67,0
90592,note_on,0,0,3,,,,,,,,,3,,,71,0
90592,note_on,160,0,2,,,,,,,,,2,,,74,0
90592,note_on,160,0,4,,,,,,,,,4,,,62,0
90592,note_on,160,0,1,,,,,,,,,1,,,79,0
90592,note_on,0,0,2,,,,,,,,,2,,,83,0
90624,note_on,32,0,1,,,,,,,,,1,,,81,45
90624,note_on,0,0,2,,,,,,,,,2,,,83,45
90624,note_on,32,0,2,,,,,,,,,2,,,74,45
90624,note_on,32,0,4,,,,,,,,,4,,,62,45
90624,note_on,0,0,3,,,,,,,,,3,,,71,45
90624,note_on,32,0,3,,,,,,,,,3,,,67,45
90784,note_on,0,0,3,,,,,,,,,3,,,71,0
90784,note_on,160,0,3,,,,,,,,,3,,,67,0
90784,note_on,160,0,1,,,,,,,,,1,,,81,0
90784,note_on,0,0,2,,,,,,,,,2,,,83,0
90784,note_on,160,0,2,,,,,,,,,2,,,74,0
90784,note_on,160,0,4,,,,,,,,,4,,,62,0
90816,note_on,32,0,2,,,,,,,,,2,,,74,45
90816,note_on,0,0,2,,,,,,,,,2,,,83,45
90816,note_on,32,0,4,,,,,,,,,4,,,67,45
90816,note_on,32,0,3,,,,,,,,,3,,,71,45
90976,note_on,160,0,2,,,,,,,,,2,,,74,0
90976,note_on,0,0,2,,,,,,,,,2,,,83,0
90976,note_on,160,0,4,,,,,,,,,4,,,67,0
90976,note_on,160,0,3,,,,,,,,,3,,,71,0
91008,note_on,224,0,1,,,,,,,,,1,,,84,45
91008,note_on,32,0,2,,,,,,,,,2,,,74,45
91008,note_on,0,0,2,,,,,,,,,2,,,83,45
91008,note_on,32,0,4,,,,,,,,,4,,,67,45
91008,note_on,32,0,3,,,,,,,,,3,,,71,45
91168,note_on,0,0,2,,,,,,,,,2,,,83,0
91168,note_on,160,0,1,,,,,,,,,1,,,84,0
91168,note_on,160,0,3,,,,,,,,,3,,,71,0
91168,note_on,160,0,2,,,,,,,,,2,,,74,0
91168,note_on,160,0,4,,,,,,,,,4,,,67,0
91200,note_on,32,0,2,,,,,,,,,2,,,74,45
91200,note_on,0,0,2,,,,,,,,,2,,,83,45
91200,note_on,32,0,1,,,,,,,,,1,,,86,45
91200,note_on,32,0,3,,,,,,,,,3,,,71,45
91200,note_on,32,0,4,,,,,,,,,4,,,67,45
91360,note_on,160,0,3,,,,,,,,,3,,,71,0
91360,note_on,160,0,4,,,,,,,,,4,,,67,0
91360,note_on,0,0,2,,,,,,,,,2,,,83,0
91360,note_on,160,0,1,,,,,,,,,1,,,86,0
91360,note_on,160,0,2,,,,,,,,,2,,,74,0
91392,note_on,0,0,2,,,,,,,,,2,,,83,45
91392,note_on,32,0,2,,,,,,,,,2,,,74,45
91392,note_on,32,0,4,,,,,,,,,4,,,67,45
91392,note_on,32,0,3,,,,,,,,,3,,,71,45
91392,note_on,32,0,1,,,,,,,,,1,,,88,45
91552,note_on,160,0,2,,,,,,,,,2,,,74,0
91552,note_on,0,0,2,,,,,,,,,2,,,83,0
91552,note_on,160,0,3,,,,,,,,,3,,,71,0
91552,note_on,160,0,4,,,,,,,,,4,,,67,0
91552,note_on,160,0,1,,,,,,,,,1,,,88,0
91584,note_on,32,0,3,,,,,,,,,3,,,71,45
91584,note_on,32,0,1,,,,,,,,,1,,,90,45
91584,note_on,32,0,4,,,,,,,,,4,,,67,45
91584,note_on,32,0,2,,,,,,,,,2,,,74,45
91584,note_on,0,0,2,,,,,,,,,2,,,83,45
91744,note_on,160,0,1,,,,,,,,,1,,,90,0
91744,note_on,160,0,4,,,,,,,,,4,,,67,0
91744,note_on,160,0,2,,,,,,,,,2,,,74,0
91744,note_on,0,0,2,,,,,,,,,2,,,83,0
91744,note_on,160,0,3,,,,,,,,,3,,,71,0
91776,note_on,32,0,1,,,,,,,,,1,,,91,45
91776,note_on,32,0,4,,,,,,,,,4,,,65,45
91776,note_on,0,0,2,,,,,,,,,2,,,83,45
91776,note_on,32,0,2,,,,,,,,,2,,,74,45
91776,note_on,32,0,3,,,,,,,,,3,,,67,45
91776,note_on,0,0,3,,,,,,,,,3,,,71,45
91936,note_on,0,0,2,,,,,,,,,2,,,83,0
91936,note_on,160,0,2,,,,,,,,,2,,,74,0
91936,note_on,160,0,4,,,,,,,,,4,,,65,0
91936,note_on,160,0,1,,,,,,,,,1,,,91,0
91936,note_on,160,0,3,,,,,,,,,3,,,67,0
91936,note_on,0,0,3,,,,,,,,,3,,,71,0
91968,note_on,32,0,1,,,,,,,,,1,,,93,45
91968,note_on,32,0,4,,,,,,,,,4,,,65,45
91968,note_on,0,0,2,,,,,,,,,2,,,83,45
91968,note_on,32,0,2,,,,,,,,,2,,,74,45
91968,note_on,0,0,3,,,,,,,,,3,,,71,45
91968,note_on,32,0,3,,,,,,,,,3,,,67,45
92128,note_on,160,0,3,,,,,,,,,3,,,67,0
92128,note_on,160,0,4,,,,,,,,,4,,,65,0
92128,note_on,160,0,2,,,,,,,,,2,,,74,0
92128,note_on,0,0,2,,,,,,,,,2,,,83,0
92128,note_on,160,0,1,,,,,,,,,1,,,93,0
92128,note_on,0,0,3,,,,,,,,,3,,,71,0
92160,note_on,32,0,2,,,,,,,,,2,,,74,45
92160,note_on,32,0,4,,,,,,,,,4,,,65,45
92160,note_on,32,0,3,,,,,,,,,3,,,67,45
92160,note_on,0,0,3,,,,,,,,,3,,,71,45
92160,note_on,0,0,2,,,,,,,,,2,,,83,45
92160,note_on,32,0,1,,,,,,,,,1,,,95,45
92320,note_on,160,0,4,,,,,,,,,4,,,65,0
92320,note_on,160,0,3,,,,,,,,,3,,,67,0
92320,note_on,0,0,3,,,,,,,,,3,,,71,0
92320,note_on,0,0,2,,,,,,,,,2,,,83,0
92320,note_on,160,0,2,,,,,,,,,2,,,74,0
92320,note_on,160,0,1,,,,,,,,,1,,,95,0
92352,note_on,32,0,4,,,,,,,,,4,,,64,45
92352,note_on,0,0,2,,,,,,,,,2,,,83,45
92352,note_on,0,0,3,,,,,,,,,3,,,71,45
92352,note_on,32,0,1,,,,,,,,,1,,,96,45
92352,note_on,32,0,3,,,,,,,,,3,,,68,45
92352,note_on,32,0,2,,,,,,,,,2,,,74,45
92512,note_on,0,0,3,,,,,,,,,3,,,71,0
92512,note_on,160,0,1,,,,,,,,,1,,,96,0
92512,note_on,0,0,2,,,,,,,,,2,,,83,0
92512,note_on,160,0,3,,,,,,,,,3,,,68,0
92512,note_on,160,0,4,,,,,,,,,4,,,64,0
92512,note_on,160,0,2,,,,,,,,,2,,,74,0
92544,note_on,0,0,3,,,,,,,,,3,,,71,45
92544,note_on,32,0,4,,,,,,,,,4,,,64,45
92544,note_on,32,0,3,,,,,,,,,3,,,68,45
92544,note_on,32,0,2,,,,,,,,,2,,,76,45
92544,note_on,0,0,2,,,,,,,,,2,,,83,45
92704,note_on,160,0,3,,,,,,,,,3,,,68,0
92704,note_on,0,0,3,,,,,,,,,3,,,71,0
92704,note_on,0,0,2,,,,,,,,,2,,,83,0
92704,note_on,160,0,2,,,,,,,,,2,,,76,0
92704,note_on,160,0,4,,,,,,,,,4,,,64,0
92736,note_on,32,0,2,,,,,,,,,2,,,76,44
92736,note_on,32,0,4,,,,,,,,,4,,,64,44
92736,note_on,224,0,1,,,,,,,,,1,,,75,44
92736,note_on,32,0,3,,,,,,,,,3,,,68,44
92736,note_on,0,0,3,,,,,,,,,3,,,71,44
92736,note_on,0,0,2,,,,,,,,,2,,,83,44
92896,note_on,160,0,2,,,,,,,,,2,,,76,0
92896,note_on,0,0,2,,,,,,,,,2,,,83,0
92896,note_on,160,0,1,,,,,,,,,1,,,75,0
92896,note_on,160,0,4,,,,,,,,,4,,,64,0
92896,note_on,160,0,3,,,,,,,,,3,,,68,0
92896,note_on,0,0,3,,,,,,,,,3,,,71,0
92928,note_on,0,0,3,,,,,,,,,3,,,71,43
92928,note_on,32,0,3,,,,,,,,,3,,,68,43
92928,note_on,32,0,4,,,,,,,,,4,,,64,43
92928,note_on,0,0,2,,,,,,,,,2,,,83,43
92928,note_on,32,0,2,,,,,,,,,2,,,76,43
93088,note_on,0,0,3,,,,,,,,,3,,,71,0
93088,note_on,160,0,3,,,,,,,,,3,,,68,0
93088,note_on,0,0,2,,,,,,,,,2,,,83,0
93088,note_on,160,0,4,,,,,,,,,4,,,64,0
93088,note_on,160,0,2,,,,,,,,,2,,,76,0
93120,note_on,32,0,4,,,,,,,,,4,,,64,42
93120,note_on,0,0,3,,,,,,,,,3,,,71,42
93120,note_on,32,0,3,,,,,,,,,3,,,68,42
93120,note_on,0,0,2,,,,,,,,,2,,,83,42
93120,note_on,32,0,2,,,,,,,,,2,,,76,42
93280,note_on,160,0,2,,,,,,,,,2,,,76,0
93280,note_on,0,0,3,,,,,,,,,3,,,71,0
93280,note_on,160,0,4,,,,,,,,,4,,,64,0
93280,note_on,160,0,3,,,,,,,,,3,,,68,0
93280,note_on,0,0,2,,,,,,,,,2,,,83,0
93312,note_on,32,0,4,,,,,,,,,4,,,64,41
93312,note_on,32,0,2,,,,,,,,,2,,,76,41
93312,note_on,0,0,2,,,,,,,,,2,,,83,41
93312,note_on,416,0,1,,,,,,,,,1,,,74,41
93312,note_on,0,0,3,,,,,,,,,3,,,71,41
93312,note_on,32,0,3,,,,,,,,,3,,,68,41
93472,note_on,160,0,2,,,,,,,,,2,,,76,0
93472,note_on,0,0,2,,,,,,,,,2,,,83,0
93472,note_on,160,0,1,,,,,,,,,1,,,74,0
93472,note_on,0,0,3,,,,,,,,,3,,,71,0
93472,note_on,160,0,3,,,,,,,,,3,,,68,0
93472,note_on,160,0,4,,,,,,,,,4,,,64,0
93504,note_on,32,0,2,,,,,,,,,2,,,76,40
93504,note_on,0,0,2,,,,,,,,,2,,,84,40
93504,note_on,0,0,3,,,,,,,,,3,,,72,40
93504,note_on,32,0,3,,,,,,,,,3,,,69,40
93504,note_on,32,0,4,,,,,,,,,4,,,64,40
93664,note_on,160,0,3,,,,,,,,,3,,,69,0
93664,note_on,160,0,4,,,,,,,,,4,,,64,0
93664,note_on,0,0,3,,,,,,,,,3,,,72,0
93664,note_on,0,0,2,,,,,,,,,2,,,84,0
93664,note_on,160,0,2,,,,,,,,,2,,,76,0
93696,note_on,32,0,4,,,,,,,,,4,,,64,39
93696,note_on,0,0,2,,,,,,,,,2,,,84,39
93696,note_on,32,0,2,,,,,,,,,2,,,76,39
93696,note_on,32,0,3,,,,,,,,,3,,,69,39
93696,note_on,0,0,3,,,,,,,,,3,,,72,39
93856,note_on,160,0,3,,,,,,,,,3,,,69,0
93856,note_on,160,0,4,,,,,,,,,4,,,64,0
93856,note_on,0,0,2,,,,,,,,,2,,,84,0
93856,note_on,160,0,2,,,,,,,,,2,,,76,0
93856,note_on,0,0,3,,,,,,,,,3,,,72,0
93888,note_on,416,0,1,,,,,,,,,1,,,71,37
93888,note_on,0,0,3,,,,,,,,,3,,,72,38
93888,note_on,0,0,2,,,,,,,,,2,,,84,38
93888,note_on,32,0,4,,,,,,,,,4,,,64,38
93888,note_on,32,0,2,,,,,,,,,2,,,76,38
93888,note_on,32,0,3,,,,,,,,,3,,,69,38
94048,note_on,0,0,3,,,,,,,,,3,,,72,0
94048,note_on,160,0,1,,,,,,,,,1,,,71,0
94048,note_on,160,0,2,,,,,,,,,2,,,76,0
94048,note_on,0,0,2,,,,,,,,,2,,,84,0
94048,note_on,160,0,3,,,,,,,,,3,,,69,0
94048,note_on,160,0,4,,,,,,,,,4,,,64,0
94080,note_on,0,0,3,,,,,,,,,3,,,72,36
94080,note_on,32,0,3,,,,,,,,,3,,,69,36
94080,note_on,32,0,4,,,,,,,,,4,,,64,36
94080,note_on,32,0,2,,,,,,,,,2,,,76,36
94080,note_on,0,0,2,,,,,,,,,2,,,84,36
94240,note_on,160,0,4,,,,,,,,,4,,,64,0
94240,note_on,0,0,2,,,,,,,,,2,,,84,0
94240,note_on,160,0,3,,,,,,,,,3,,,69,0
94240,note_on,0,0,3,,,,,,,,,3,,,72,0
94240,note_on,160,0,2,,,,,,,,,2,,,76,0
94272,note_on,0,0,2,,,,,,,,,2,,,84,34
94272,note_on,32,0,4,,,,,,,,,4,,,64,34
94272,note_on,32,0,3,,,,,,,,,3,,,69,34
94272,note_on,32,0,2,,,,,,,,,2,,,76,34
94432,note_on,160,0,4,,,,,,,,,4,,,64,0
94432,note_on,160,0,3,,,,,,,,,3,,,69,0
94432,note_on,160,0,2,,,,,,,,,2,,,76,0
94432,note_on,0,0,2,,,,,,,,,2,,,84,0
94464,note_on,32,0,4,,,,,,,,,4,,,64,32
94464,note_on,0,0,2,,,,,,,,,2,,,83,32
94464,note_on,32,0,2,,,,,,,,,2,,,76,32
94464,note_on,416,0,1,,,,,,,,,1,,,71,32
94464,note_on,32,0,3,,,,,,,,,3,,,68,32
94624,note_on,160,0,1,,,,,,,,,1,,,71,0
94624,note_on,0,0,2,,,,,,,,,2,,,83,0
94624,note_on,160,0,2,,,,,,,,,2,,,76,0
94624,note_on,160,0,4,,,,,,,,,4,,,64,0
94624,note_on,160,0,3,,,,,,,,,3,,,68,0
94656,note_on,0,0,2,,,,,,,,,2,,,83,30
94656,note_on,32,0,2,,,,,,,,,2,,,76,30
94656,note_on,32,0,4,,,,,,,,,4,,,64,30
94656,note_on,32,0,1,,,,,,,,,1,,,71,30
94656,note_on,32,0,3,,,,,,,,,3,,,68,30
94816,note_on,160,0,1,,,,,,,,,1,,,71,0
94816,note_on,160,0,3,,,,,,,,,3,,,68,0
94816,note_on,160,0,2,,,,,,,,,2,,,76,0
94816,note_on,0,0,2,,,,,,,,,2,,,83,0
94816,note_on,160,0,4,,,,,,,,,4,,,64,0
94848,note_on,0,0,2,,,,,,,,,2,,,83,30
94848,note_on,32,0,4,,,,,,,,,4,,,64,30
94848,note_on,0,0,3,,,,,,,,,3,,,71,30
94848,note_on,32,0,2,,,,,,,,,2,,,76,30
94848,note_on,32,0,3,,,,,,,,,3,,,68,30
95008,note_on,160,0,4,,,,,,,,,4,,,64,0
95008,note_on,160,0,2,,,,,,,,,2,,,76,0
95008,note_on,0,0,2,,,,,,,,,2,,,83,0
95008,note_on,160,0,3,,,,,,,,,3,,,68,0
95008,note_on,0,0,3,,,,,,,,,3,,,71,0
95040,note_on,0,0,3,,,,,,,,,3,,,71,30
95040,note_on,0,0,2,,,,,,,,,2,,,83,30
95040,note_on,224,0,1,,,,,,,,,1,,,72,30
95040,note_on,32,0,2,,,,,,,,,2,,,76,30
95040,note_on,32,0,4,,,,,,,,,4,,,64,30
95040,note_on,32,0,3,,,,,,,,,3,,,68,30
95200,note_on,160,0,1,,,,,,,,,1,,,72,0
95200,note_on,0,0,3,,,,,,,,,3,,,71,0
95200,note_on,160,0,2,,,,,,,,,2,,,76,0
95200,note_on,160,0,4,,,,,,,,,4,,,64,0
95200,note_on,160,0,3,,,,,,,,,3,,,68,0
95200,note_on,0,0,2,,,,,,,,,2,,,83,0
95232,note_on,32,0,2,,,,,,,,,2,,,76,30
95232,note_on,0,0,2,,,,,,,,,2,,,83,30
95232,note_on,0,0,3,,,,,,,,,3,,,71,30
95232,note_on,32,0,1,,,,,,,,,1,,,72,30
95232,note_on,32,0,4,,,,,,,,,4,,,64,30
95232,note_on,32,0,3,,,,,,,,,3,,,68,30
95392,note_on,160,0,3,,,,,,,,,3,,,68,0
95392,note_on,0,0,3,,,,,,,,,3,,,71,0
95392,note_on,160,0,1,,,,,,,,,1,,,72,0
95392,note_on,160,0,2,,,,,,,,,2,,,76,0
95392,note_on,0,0,2,,,,,,,,,2,,,83,0
95392,note_on,160,0,4,,,,,,,,,4,,,64,0
95424,note_on,0,0,3,,,,,,,,,3,,,71,30
95424,note_on,32,0,3,,,,,,,,,3,,,68,30
95424,note_on,32,0,2,,,,,,,,,2,,,76,30
95424,note_on,0,0,2,,,,,,,,,2,,,83,30
95424,note_on,32,0,4,,,,,,,,,4,,,64,30
95584,note_on,0,0,2,,,,,,,,,2,,,83,0
95584,note_on,0,0,3,,,,,,,,,3,,,71,0
95584,note_on,160,0,2,,,,,,,,,2,,,76,0
95584,note_on,160,0,4,,,,,,,,,4,,,64,0
95584,note_on,160,0,3,,,,,,,,,3,,,68,0
95616,note_on,32,0,3,,,,,,,,,3,,,68,30
95616,note_on,32,0,4,,,,,,,,,4,,,64,30
95616,note_on,32,0,2,,,,,,,,,2,,,76,30
95616,note_on,0,0,2,,,,,,,,,2,,,83,30
95616,note_on,0,0,3,,,,,,,,,3,,,71,30
95776,note_on,160,0,2,,,,,,,,,2,,,76,0
95776,note_on,160,0,4,,,,,,,,,4,,,64,0
95776,note_on,0,0,3,,,,,,,,,3,,,71,0
95776,note_on,0,0,2,,,,,,,,,2,,,83,0
95776,note_on,160,0,3,,,,,,,,,3,,,68,0
95808,note_on,32,0,2,,,,,,,,,2,,,76,30
95808,note_on,32,0,3,,,,,,,,,3,,,68,30
95808,note_on,0,0,3,,,,,,,,,3,,,71,30
95808,note_on,32,0,4,,,,,,,,,4,,,64,30
95808,note_on,0,0,2,,,,,,,,,2,,,83,30
95968,note_on,160,0,2,,,,,,,,,2,,,76,0
95968,note_on,0,0,2,,,,,,,,,2,,,83,0
95968,note_on,160,0,4,,,,,,,,,4,,,64,0
95968,note_on,0,0,3,,,,,,,,,3,,,71,0
95968,note_on,160,0,3,,,,,,,,,3,,,68,0
96000,note_on,32,0,4,,,,,,,,,4,,,64,30
96000,note_on,32,0,3,,,,,,,,,3,,,68,30
96000,note_on,0,0,3,,,,,,,,,3,,,71,30
96000,note_on,32,0,2,,,,,,,,,2,,,76,30
96000,note_on,0,0,2,,,,,,,,,2,,,83,30
96160,note_on,160,0,3,,,,,,,,,3,,,68,0
96160,note_on,0,0,2,,,,,,,,,2,,,83,0
96160,note_on,160,0,4,,,,,,,,,4,,,64,0
96160,note_on,0,0,3,,,,,,,,,3,,,71,0
96160,note_on,160,0,2,,,,,,,,,2,,,76,0
96192,note_on,32,0,2,,,,,,,,,2,,,76,30
96192,note_on,0,0,2,,,,,,,,,2,,,83,30
96192,note_on,32,0,4,,,,,,,,,4,,,64,30
96192,note_on,32,0,3,,,,,,,,,3,,,68,30
96192,note_on,0,0,3,,,,,,,,,3,,,71,30
96192,note_on,800,0,1,,,,,,,,,1,,,72,30
96352,note_on,160,0,2,,,,,,,,,2,,,76,0
96352,note_on,0,0,2,,,,,,,,,2,,,83,0
96352,note_on,160,0,4,,,,,,,,,4,,,64,0
96352,note_on,160,0,3,,,,,,,,,3,,,68,0
96352,note_on,0,0,3,,,,,,,,,3,,,71,0
96352,note_on,160,0,1,,,,,,,,,1,,,72,0
96384,note_on,32,0,4,,,,,,,,,4,,,64,30
96384,note_on,32,0,1,,,,,,,,,1,,,72,30
96384,note_on,32,0,3,,,,,,,,,3,,,68,30
96384,note_on,0,0,3,,,,,,,,,3,,,71,30
96384,note_on,0,0,2,,,,,,,,,2,,,83,30
96384,note_on,32,0,2,,,,,,,,,2,,,76,30
96544,note_on,0,0,3,,,,,,,,,3,,,71,0
96544,note_on,0,0,2,,,,,,,,,2,,,83,0
96544,note_on,160,0,1,,,,,,,,,1,,,72,0
96544,note_on,160,0,2,,,,,,,,,2,,,76,0
96544,note_on,160,0,3,,,,,,,,,3,,,68,0
96544,note_on,160,0,4,,,,,,,,,4,,,64,0
96576,note_on,32,0,4,,,,,,,,,4,,,64,30
96576,note_on,32,0,2,,,,,,,,,2,,,76,30
96576,note_on,0,0,2,,,,,,,,,2,,,83,30
96576,note_on,0,0,3,,,,,,,,,3,,,71,30
96576,note_on,32,0,3,,,,,,,,,3,,,68,30
96736,note_on,160,0,2,,,,,,,,,2,,,76,0
96736,note_on,0,0,2,,,,,,,,,2,,,83,0
96736,note_on,0,0,3,,,,,,,,,3,,,71,0
96736,note_on,160,0,3,,,,,,,,,3,,,68,0
96736,note_on,160,0,4,,,,,,,,,4,,,64,0
96768,note_on,32,0,2,,,,,,,,,2,,,76,30
96768,note_on,0,0,2,,,,,,,,,2,,,83,30
96768,note_on,0,0,3,,,,,,,,,3,,,71,30
96768,note_on,32,0,3,,,,,,,,,3,,,68,30
96768,note_on,32,0,4,,,,,,,,,4,,,64,30
96928,note_on,160,0,3,,,,,,,,,3,,,68,0
96928,note_on,160,0,4,,,,,,,,,4,,,64,0
96928,note_on,0,0,2,,,,,,,,,2,,,83,0
96928,note_on,160,0,2,,,,,,,,,2,,,76,0
96928,note_on,0,0,3,,,,,,,,,3,,,71,0
96960,note_on,32,0,4,,,,,,,,,4,,,64,30
96960,note_on,0,0,2,,,,,,,,,2,,,83,30
96960,note_on,32,0,2,,,,,,,,,2,,,76,30
96960,note_on,0,0,3,,,,,,,,,3,,,71,30
96960,note_on,32,0,3,,,,,,,,,3,,,68,30
97120,note_on,160,0,4,,,,,,,,,4,,,64,0
97120,note_on,0,0,3,,,,,,,,,3,,,71,0
97120,note_on,0,0,2,,,,,,,,,2,,,83,0
97120,note_on,160,0,2,,,,,,,,,2,,,76,0
97120,note_on,160,0,3,,,,,,,,,3,,,68,0
97152,note_on,32,0,3,,,,,,,,,3,,,56,30
97152,note_on,608,0,1,,,,,,,,,1,,,83,30
97152,note_on,0,0,2,,,,,,,,,2,,,80,30
97152,note_on,32,0,2,,,,,,,,,2,,,76,30
97152,note_on,32,0,4,,,,,,,,,4,,,52,30
97248,note_on,96,0,4,,,,,,,,,4,,,52,0
97248,note_on,96,0,3,,,,,,,,,3,,,56,0
97248,note_on,0,0,3,,,,,,,,,3,,,54,32
97248,note_on,0,0,4,,,,,,,,,4,,,51,32
97312,note_on,0,0,2,,,,,,,,,2,,,80,0
97312,note_on,160,0,2,,,,,,,,,2,,,76,0
97312,note_on,160,0,1,,,,,,,,,1,,,83,0
97344,note_on,32,0,1,,,,,,,,,1,,,83,35
97344,note_on,0,0,3,,,,,,,,,3,,,56,34
97344,note_on,96,0,3,,,,,,,,,3,,,54,0
97344,note_on,0,0,4,,,,,,,,,4,,,52,34
97344,note_on,96,0,4,,,,,,,,,4,,,51,0
97344,note_on,32,0,2,,,,,,,,,2,,,76,35
97344,note_on,0,0,2,,,,,,,,,2,,,80,35
97440,note_on,0,0,3,,,,,,,,,3,,,57,36
97440,note_on,96,0,3,,,,,,,,,3,,,56,0
97440,note_on,0,0,4,,,,,,,,,4,,,54,36
97440,note_on,96,0,4,,,,,,,,,4,,,52,0
97504,note_on,160,0,1,,,,,,,,,1,,,83,0
97504,note_on,160,0,2,,,,,,,,,2,,,76,0
97504,note_on,0,0,2,,,,,,,,,2,,,80,0
97534,note_on,94,0,3,,,,,,,,,3,,,57,0
97534,note_on,94,0,4,,,,,,,,,4,,,54,0
97536,note_on,0,0,2,,,,,,,,,2,,,80,40
97536,note_on,2,0,3,,,,,,,,,3,,,59,38
97536,note_on,32,0,1,,,,,,,,,1,,,83,40
97536,note_on,2,0,4,,,,,,,,,4,,,56,38
97536,note_on,32,0,2,,,,,,,,,2,,,76,40
97584,note_on,48,0,4,,,,,,,,,4,,,56,0
97584,note_on,48,0,3,,,,,,,,,3,,,59,0
97696,note_on,160,0,2,,,,,,,,,2,,,76,0
97696,note_on,160,0,1,,,,,,,,,1,,,83,0
97696,note_on,0,0,2,,,,,,,,,2,,,80,0
97728,note_on,0,0,2,,,,,,,,,2,,,80,45
97728,note_on,32,0,1,,,,,,,,,1,,,83,45
97728,note_on,32,0,2,,,,,,,,,2,,,76,45
97728,note_on,144,0,3,,,,,,,,,3,,,61,44
97824,note_on,0,0,3,,,,,,,,,3,,,59,47
97824,note_on,96,0,3,,,,,,,,,3,,,61,0
97888,note_on,0,0,2,,,,,,,,,2,,,80,0
97888,note_on,160,0,2,,,,,,,,,2,,,76,0
97888,note_on,160,0,1,,,,,,,,,1,,,83,0
97920,note_on,0,0,2,,,,,,,,,2,,,80,50
97920,note_on,32,0,2,,,,,,,,,2,,,76,50
97920,note_on,32,0,1,,,,,,,,,1,,,83,50
97920,note_on,96,0,3,,,,,,,,,3,,,59,0
97920,note_on,0,0,3,,,,,,,,,3,,,61,50
98016,note_on,96,0,3,,,,,,,,,3,,,61,0
98016,note_on,0,0,3,,,,,,,,,3,,,62,53
98080,note_on,160,0,1,,,,,,,,,1,,,83,0
98080,note_on,160,0,2,,,,,,,,,2,,,76,0
98080,note_on,0,0,2,,,,,,,,,2,,,80,0
98110,note_on,94,0,3,,,,,,,,,3,,,62,0
98112,note_on,2,0,3,,,,,,,,,3,,,64,56
98112,note_on,32,0,2,,,,,,,,,2,,,76,56
98112,note_on,32,0,1,,,,,,,,,1,,,83,56
98112,note_on,0,0,2,,,,,,,,,2,,,80,56
98160,note_on,48,0,3,,,,,,,,,3,,,64,0
98272,note_on,0,0,2,,,,,,,,,2,,,80,0
98272,note_on,160,0,2,,,,,,,,,2,,,76,0
98272,note_on,160,0,1,,,,,,,,,1,,,83,0
98304,note_on,0,0,2,,,,,,,,,2,,,80,62
98304,note_on,144,0,3,,,,,,,,,3,,,68,62
98304,note_on,32,0,1,,,,,,,,,1,,,83,62
98304,note_on,720,0,4,,,,,,,,,4,,,64,62
98304,note_on,32,0,2,,,,,,,,,2,,,76,62
98400,note_on,96,0,3,,,,,,,,,3,,,68,0
98400,note_on,0,0,3,,,,,,,,,3,,,66,65
98464,note_on,160,0,4,,,,,,,,,4,,,64,0
98464,note_on,0,0,2,,,,,,,,,2,,,80,0
98464,note_on,160,0,1,,,,,,,,,1,,,83,0
98464,note_on,160,0,2,,,,,,,,,2,,,76,0
98496,note_on,32,0,2,,,,,,,,,2,,,76,68
98496,note_on,96,0,3,,,,,,,,,3,,,66,0
98496,note_on,0,0,3,,,,,,,,,3,,,68,68
98496,note_on,0,0,2,,,,,,,,,2,,,80,68
98496,note_on,32,0,4,,,,,,,,,4,,,64,68
98496,note_on,32,0,1,,,,,,,,,1,,,83,68
98592,note_on,0,0,3,,,,,,,,,3,,,69,71
98592,note_on,96,0,3,,,,,,,,,3,,,68,0
98656,note_on,160,0,4,,,,,,,,,4,,,64,0
98656,note_on,160,0,2,,,,,,,,,2,,,76,0
98656,note_on,160,0,1,,,,,,,,,1,,,83,0
98656,note_on,0,0,2,,,,,,,,,2,,,80,0
98686,note_on,94,0,3,,,,,,,,,3,,,69,0
98688,note_on,32,0,4,,,,,,,,,4,,,64,74
98688,note_on,2,0,3,,,,,,,,,3,,,71,74
98688,note_on,32,0,2,,,,,,,,,2,,,76,74
98688,note_on,32,0,1,,,,,,,,,1,,,83,74
98688,note_on,0,0,2,,,,,,,,,2,,,80,74
98736,note_on,48,0,3,,,,,,,,,3,,,71,0
98848,note_on,160,0,1,,,,,,,,,1,,,83,0
98848,note_on,160,0,4,,,,,,,,,4,,,64,0
98848,note_on,0,0,2,,,,,,,,,2,,,80,0
98848,note_on,160,0,2,,,,,,,,,2,,,76,0
98880,note_on,32,0,1,,,,,,,,,1,,,88,80
98880,note_on,32,0,4,,,,,,,,,4,,,64,80
98880,note_on,32,0,2,,,,,,,,,2,,,66,80
98880,note_on,144,0,3,,,,,,,,,3,,,69,80
98976,note_on,0,0,2,,,,,,,,,2,,,64,83
98976,note_on,96,0,2,,,,,,,,,2,,,66,0
98976,note_on,96,0,3,,,,,,,,,3,,,69,0
98976,note_on,0,0,3,,,,,,,,,3,,,68,83
99040,note_on,160,0,4,,,,,,,,,4,,,64,0
99040,note_on,160,0,1,,,,,,,,,1,,,88,0
99072,note_on,32,0,4,,,,,,,,,4,,,64,86
99072,note_on,32,0,1,,,,,,,,,1,,,86,86
99072,note_on,0,0,2,,,,,,,,,2,,,66,86
99072,note_on,0,0,3,,,,,,,,,3,,,69,86
99072,note_on,96,0,2,,,,,,,,,2,,,64,0
99072,note_on,96,0,3,,,,,,,,,3,,,68,0
99168,note_on,96,0,3,,,,,,,,,3,,,69,0
99168,note_on,0,0,3,,,,,,,,,3,,,71,89
99168,note_on,96,0,2,,,,,,,,,2,,,66,0
99168,note_on,0,0,2,,,,,,,,,2,,,68,89
99232,note_on,160,0,1,,,,,,,,,1,,,86,0
99232,note_on,160,0,4,,,,,,,,,4,,,64,0
99262,note_on,94,0,3,,,,,,,,,3,,,71,0
99262,note_on,94,0,2,,,,,,,,,2,,,68,0
99264,note_on,32,0,4,,,,,,,,,4,,,57,92
99264,note_on,2,0,2,,,,,,,,,2,,,69,92
99264,key_signature,14976,1,0,,A,,,,,,,,,,,
99264,note_on,2,0,3,,,,,,,,,3,,,64,92
99264,note_on,0,0,3,,,,,,,,,3,,,73,92
99264,note_on,32,0,1,,,,,,,,,1,,,85,92
99312,note_on,48,0,1,,,,,,,,,1,,,85,0
99424,note_on,160,0,3,,,,,,,,,3,,,64,0
99424,note_on,0,0,3,,,,,,,,,3,,,73,0
99424,note_on,160,0,4,,,,,,,,,4,,,57,0
99424,note_on,160,0,2,,,,,,,,,2,,,69,0
99456,note_on,32,0,4,,,,,,,,,4,,,64,45
99456,note_on,32,0,3,,,,,,,,,3,,,69,45
99456,note_on,0,0,3,,,,,,,,,3,,,73,45
99456,note_on,32,0,2,,,,,,,,,2,,,85,45
99456,note_on,144,0,1,,,,,,,,,1,,,57,45
99552,note_on,0,0,1,,,,,,,,,1,,,56,45
99552,note_on,96,0,1,,,,,,,,,1,,,57,0
99616,note_on,160,0,4,,,,,,,,,4,,,64,0
99616,note_on,160,0,3,,,,,,,,,3,,,69,0
99616,note_on,160,0,2,,,,,,,,,2,,,85,0
99616,note_on,0,0,3,,,,,,,,,3,,,73,0
99648,note_on,0,0,3,,,,,,,,,3,,,73,45
99648,note_on,32,0,2,,,,,,,,,2,,,85,45
99648,note_on,0,0,1,,,,,,,,,1,,,57,45
99648,note_on,32,0,4,,,,,,,,,4,,,64,45
99648,note_on,32,0,3,,,,,,,,,3,,,69,45
99648,note_on,96,0,1,,,,,,,,,1,,,56,0
99744,note_on,96,0,1,,,,,,,,,1,,,57,0
99744,note_on,0,0,1,,,,,,,,,1,,,59,45
99808,note_on,160,0,3,,,,,,,,,3,,,69,0
99808,note_on,0,0,3,,,,,,,,,3,,,73,0
99808,note_on,160,0,4,,,,,,,,,4,,,64,0
99808,note_on,160,0,2,,,,,,,,,2,,,85,0
99838,note_on,94,0,1,,,,,,,,,1,,,59,0
99840,note_on,32,0,4,,,,,,,,,4,,,64,45
99840,note_on,2,0,1,,,,,,,,,1,,,61,45
99840,note_on,32,0,2,,,,,,,,,2,,,76,45
99840,note_on,0,0,3,,,,,,,,,3,,,73,45
99840,note_on,32,0,3,,,,,,,,,3,,,69,45
99840,note_on,0,0,2,,,,,,,,,2,,,85,45
99888,note_on,48,0,1,,,,,,,,,1,,,61,0
100000,note_on,160,0,2,,,,,,,,,2,,,76,0
100000,note_on,160,0,3,,,,,,,,,3,,,69,0
100000,note_on,0,0,3,,,,,,,,,3,,,73,0
100000,note_on,160,0,4,,,,,,,,,4,,,64,0
100000,note_on,0,0,2,,,,,,,,,2,,,85,0
100032,note_on,32,0,3,,,,,,,,,3,,,69,45
100032,note_on,0,0,3,,,,,,,,,3,,,73,45
100032,note_on,32,0,4,,,,,,,,,4,,,64,45
100032,note_on,144,0,1,,,,,,,,,1,,,62,45
100032,note_on,0,0,2,,,,,,,,,2,,,85,45
100032,note_on,32,0,2,,,,,,,,,2,,,76,45
100080,note_on,48,0,1,,,,,,,,,1,,,62,0
100192,note_on,160,0,2,,,,,,,,,2,,,76,0
100192,note_on,0,0,2,,,,,,,,,2,,,85,0
100192,note_on,160,0,3,,,,,,,,,3,,,69,0
100192,note_on,0,0,3,,,,,,,,,3,,,73,0
100192,note_on,160,0,4,,,,,,,,,4,,,64,0
100224,note_on,32,0,2,,,,,,,,,2,,,76,45
100224,note_on,0,0,2,,,,,,,,,2,,,85,45
100224,note_on,32,0,3,,,,,,,,,3,,,69,45
100224,note_on,32,0,4,,,,,,,,,4,,,64,45
100224,note_on,0,0,3,,,,,,,,,3,,,73,45
100384,note_on,0,0,2,,,,,,,,,2,,,85,0
100384,note_on,160,0,3,,,,,,,,,3,,,69,0
100384,note_on,160,0,4,,,,,,,,,4,,,64,0
100384,note_on,0,0,3,,,,,,,,,3,,,73,0
100384,note_on,160,0,2,,,,,,,,,2,,,76,0
100416,note_on,32,0,3,,,,,,,,,3,,,69,45
100416,note_on,336,0,1,,,,,,,,,1,,,66,45
100416,note_on,0,0,3,,,,,,,,,3,,,73,45
100416,note_on,32,0,4,,,,,,,,,4,,,64,45
100416,note_on,32,0,2,,,,,,,,,2,,,76,45
100416,note_on,0,0,2,,,,,,,,,2,,,85,45
100464,note_on,48,0,1,,,,,,,,,1,,,66,0
100576,note_on,0,0,2,,,,,,,,,2,,,85,0
100576,note_on,160,0,2,,,,,,,,,2,,,76,0
100576,note_on,0,0,3,,,,,,,,,3,,,73,0
100576,note_on,160,0,4,,,,,,,,,4,,,64,0
100576,note_on,160,0,3,,,,,,,,,3,,,69,0
100608,note_on,32,0,2,,,,,,,,,2,,,76,45
100608,note_on,144,0,1,,,,,,,,,1,,,68,45
100608,note_on,0,0,3,,,,,,,,,3,,,73,45
100608,note_on,32,0,3,,,,,,,,,3,,,69,45
100608,note_on,0,0,2,,,,,,,,,2,,,85,45
100608,note_on,32,0,4,,,,,,,,,4,,,64,45
100656,note_on,48,0,1,,,,,,,,,1,,,68,0
100768,note_on,0,0,2,,,,,,,,,2,,,85,0
100768,note_on,160,0,4,,,,,,,,,4,,,64,0
100768,note_on,160,0,3,,,,,,,,,3,,,69,0
100768,note_on,160,0,2,,,,,,,,,2,,,76,0
100768,note_on,0,0,3,,,,,,,,,3,,,73,0
100800,note_on,0,0,2,,,,,,,,,2,,,85,45
100800,note_on,32,0,3,,,,,,,,,3,,,69,45
100800,note_on,32,0,2,,,,,,,,,2,,,76,45
100800,note_on,0,0,3,,,,,,,,,3,,,73,45
100800,note_on,32,0,4,,,,,,,,,4,,,64,45
100960,note_on,0,0,2,,,,,,,,,2,,,85,0
100960,note_on,160,0,3,,,,,,,,,3,,,69,0
100960,note_on,0,0,3,,,,,,,,,3,,,73,0
100960,note_on,160,0,2,,,,,,,,,2,,,76,0
100960,note_on,160,0,4,,,,,,,,,4,,,64,0
100992,note_on,32,0,3,,,,,,,,,3,,,68,45
100992,note_on,0,0,3,,,,,,,,,3,,,71,45
100992,note_on,0,0,2,,,,,,,,,2,,,86,45
100992,note_on,32,0,4,,,,,,,,,4,,,64,45
100992,note_on,32,0,2,,,,,,,,,2,,,76,45
101152,note_on,0,0,3,,,,,,,,,3,,,71,0
101152,note_on,160,0,3,,,,,,,,,3,,,68,0
101152,note_on,160,0,2,,,,,,,,,2,,,76,0
101152,note_on,160,0,4,,,,,,,,,4,,,64,0
101152,note_on,0,0,2,,,,,,,,,2,,,86,0
101184,note_on,32,0,2,,,,,,,,,2,,,76,45
101184,note_on,0,0,2,,,,,,,,,2,,,86,45
101184,note_on,32,0,4,,,,,,,,,4,,,64,45
101184,note_on,0,0,3,,,,,,,,,3,,,71,45
101184,note_on,32,0,3,,,,,,,,,3,,,68,45
101184,note_on,528,0,1,,,,,,,,,1,,,73,45
101344,note_on,0,0,2,,,,,,,,,2,,,86,0
101344,note_on,160,0,2,,,,,,,,,2,,,76,0
101344,note_on,160,0,1,,,,,,,,,1,,,73,0
101344,note_on,160,0,3,,,,,,,,,3,,,68,0
101344,note_on,0,0,3,,,,,,,,,3,,,71,0
101344,note_on,160,0,4,,,,,,,,,4,,,64,0
101376,note_on,32,0,3,,,,,,,,,3,,,68,45
101376,note_on,0,0,3,,,,,,,,,3,,,71,45
101376,note_on,0,0,2,,,,,,,,,2,,,86,45
101376,note_on,32,0,2,,,,,,,,,2,,,76,45
101376,note_on,32,0,1,,,,,,,,,1,,,74,45
101376,note_on,32,0,4,,,,,,,,,4,,,64,45
101536,note_on,0,0,2,,,,,,,,,2,,,86,0
101536,note_on,160,0,2,,,,,,,,,2,,,76,0
101536,note_on,160,0,1,,,,,,,,,1,,,74,0
101536,note_on,160,0,4,,,,,,,,,4,,,64,0
101536,note_on,0,0,3,,,,,,,,,3,,,71,0
101536,note_on,160,0,3,,,,,,,,,3,,,68,0
101568,note_on,32,0,2,,,,,,,,,2,,,76,45
101568,note_on,0,0,3,,,,,,,,,3,,,71,45
101568,note_on,32,0,3,,,,,,,,,3,,,68,45
101568,note_on,32,0,4,,,,,,,,,4,,,64,45
101568,note_on,0,0,2,,,,,,,,,2,,,86,45
101728,note_on,0,0,2,,,,,,,,,2,,,86,0
101728,note_on,160,0,2,,,,,,,,,2,,,76,0
101728,note_on,0,0,3,,,,,,,,,3,,,71,0
101728,note_on,160,0,4,,,,,,,,,4,,,64,0
101728,note_on,160,0,3,,,,,,,,,3,,,68,0
101760,note_on,224,0,1,,,,,,,,,1,,,78,45
101760,note_on,32,0,2,,,,,,,,,2,,,76,45
101760,note_on,0,0,2,,,,,,,,,2,,,86,45
101760,note_on,32,0,3,,,,,,,,,3,,,68,45
101760,note_on,0,0,3,,,,,,,,,3,,,71,45
101760,note_on,32,0,4,,,,,,,,,4,,,64,45
101920,note_on,160,0,2,,,,,,,,,2,,,76,0
101920,note_on,0,0,2,,,,,,,,,2,,,86,0
101920,note_on,160,0,1,,,,,,,,,1,,,78,0
101920,note_on,0,0,3,,,,,,,,,3,,,71,0
101920,note_on,160,0,3,,,,,,,,,3,,,68,0
101920,note_on,160,0,4,,,,,,,,,4,,,64,0
101952,note_on,32,0,2,,,,,,,,,2,,,76,45
101952,note_on,32,0,3,,,,,,,,,3,,,68,45
101952,note_on,32,0,1,,,,,,,,,1,,,80,45
101952,note_on,0,0,2,,,,,,,,,2,,,86,45
101952,note_on,32,0,4,,,,,,,,,4,,,64,45
101952,note_on,0,0,3,,,,,,,,,3,,,71,45
102112,note_on,160,0,3,,,,,,,,,3,,,68,0
102112,note_on,0,0,3,,,,,,,,,3,,,71,0
102112,note_on,160,0,2,,,,,,,,,2,,,76,0
102112,note_on,160,0,1,,,,,,,,,1,,,80,0
102112,note_on,160,0,4,,,,,,,,,4,,,64,0
102112,note_on,0,0,2,,,,,,,,,2,,,86,0
102144,note_on,32,0,3,,,,,,,,,3,,,68,45
102144,note_on,32,0,4,,,,,,,,,4,,,64,45
102144,note_on,32,0,1,,,,,,,,,1,,,81,45
102144,note_on,0,0,2,,,,,,,,,2,,,86,45
102144,note_on,32,0,2,,,,,,,,,2,,,76,45
102144,note_on,0,0,3,,,,,,,,,3,,,71,45
102304,note_on,160,0,4,,,,,,,,,4,,,64,0
102304,note_on,160,0,2,,,,,,,,,2,,,76,0
102304,note_on,0,0,3,,,,,,,,,3,,,71,0
102304,note_on,160,0,3,,,,,,,,,3,,,68,0
102304,note_on,160,0,1,,,,,,,,,1,,,81,0
102304,note_on,0,0,2,,,,,,,,,2,,,86,0
102336,note_on,32,0,4,,,,,,,,,4,,,64,45
102336,note_on,32,0,2,,,,,,,,,2,,,76,45
102336,note_on,0,0,3,,,,,,,,,3,,,71,45
102336,note_on,32,0,3,,,,,,,,,3,,,68,45
102336,note_on,32,0,1,,,,,,,,,1,,,83,45
102336,note_on,0,0,2,,,,,,,,,2,,,86,45
102496,note_on,160,0,1,,,,,,,,,1,,,83,0
102496,note_on,0,0,3,,,,,,,,,3,,,71,0
102496,note_on,160,0,3,,,,,,,,,3,,,68,0
102496,note_on,160,0,4,,,,,,,,,4,,,64,0
102496,note_on,0,0,2,,,,,,,,,2,,,86,0
102496,note_on,160,0,2,,,,,,,,,2,,,76,0
102528,note_on,32,0,2,,,,,,,,,2,,,76,45
102528,note_on,0,0,2,,,,,,,,,2,,,86,45
102528,note_on,32,0,4,,,,,,,,,4,,,64,45
102528,note_on,32,0,3,,,,,,,,,3,,,68,45
102528,note_on,0,0,3,,,,,,,,,3,,,71,45
102528,note_on,32,0,1,,,,,,,,,1,,,85,45
102688,note_on,160,0,2,,,,,,,,,2,,,76,0
102688,note_on,0,0,2,,,,,,,,,2,,,86,0
102688,note_on,160,0,3,,,,,,,,,3,,,68,0
102688,note_on,0,0,3,,,,,,,,,3,,,71,0
102688,note_on,160,0,4,,,,,,,,,4,,,64,0
102688,note_on,160,0,1,,,,,,,,,1,,,85,0
102720,note_on,32,0,1,,,,,,,,,1,,,86,45
102720,note_on,32,0,3,,,,,,,,,3,,,68,45
102720,note_on,32,0,4,,,,,,,,,4,,,64,45
102720,note_on,0,0,2,,,,,,,,,2,,,83,45
102720,note_on,32,0,2,,,,,,,,,2,,,76,45
102720,note_on,0,0,3,,,,,,,,,3,,,71,45
102880,note_on,160,0,3,,,,,,,,,3,,,68,0
102880,note_on,160,0,4,,,,,,,,,4,,,64,0
102880,note_on,160,0,1,,,,,,,,,1,,,86,0
102880,note_on,0,0,2,,,,,,,,,2,,,83,0
102880,note_on,160,0,2,,,,,,,,,2,,,76,0
102880,note_on,0,0,3,,,,,,,,,3,,,71,0
102912,note_on,32,0,3,,,,,,,,,3,,,68,45
102912,note_on,32,0,4,,,,,,,,,4,,,64,45
102912,note_on,32,0,2,,,,,,,,,2,,,71,45
102912,note_on,32,0,1,,,,,,,,,1,,,76,45
103008,note_on,0,0,3,,,,,,,,,3,,,66,45
103008,note_on,96,0,3,,,,,,,,,3,,,68,0
103008,note_on,96,0,2,,,,,,,,,2,,,71,0
103008,note_on,0,0,2,,,,,,,,,2,,,69,45
103072,note_on,160,0,1,,,,,,,,,1,,,76,0
103072,note_on,160,0,4,,,,,,,,,4,,,64,0
103104,note_on,96,0,2,,,,,,,,,2,,,69,0
103104,note_on,0,0,3,,,,,,,,,3,,,68,45
103104,note_on,32,0,1,,,,,,,,,1,,,85,45
103104,note_on,0,0,2,,,,,,,,,2,,,71,45
103104,note_on,96,0,3,,,,,,,,,3,,,66,0
103104,note_on,32,0,4,,,,,,,,,4,,,64,45
103200,note_on,96,0,3,,,,,,,,,3,,,68,0
103200,note_on,0,0,3,,,,,,,,,3,,,69,45
103200,note_on,0,0,2,,,,,,,,,2,,,73,45
103200,note_on,96,0,2,,,,,,,,,2,,,71,0
103264,note_on,160,0,1,,,,,,,,,1,,,85,0
103264,note_on,160,0,4,,,,,,,,,4,,,64,0
103294,note_on,94,0,3,,,,,,,,,3,,,69,0
103294,note_on,94,0,2,,,,,,,,,2,,,73,0
103296,note_on,2,0,3,,,,,,,,,3,,,71,45
103296,note_on,32,0,1,,,,,,,,,1,,,86,45
103296,note_on,2,0,2,,,,,,,,,2,,,74,45
103296,note_on,32,0,4,,,,,,,,,4,,,64,45
103344,note_on,48,0,3,,,,,,,,,3,,,71,0
103344,note_on,48,0,2,,,,,,,,,2,,,74,0
103456,note_on,160,0,1,,,,,,,,,1,,,86,0
103456,note_on,160,0,4,,,,,,,,,4,,,64,0
103488,note_on,144,0,2,,,,,,,,,2,,,71,45
103488,note_on,32,0,4,,,,,,,,,4,,,64,45
103488,note_on,144,0,3,,,,,,,,,3,,,68,45
103488,note_on,32,0,1,,,,,,,,,1,,,76,45
103584,note_on,96,0,3,,,,,,,,,3,,,68,0
103584,note_on,96,0,2,,,,,,,,,2,,,71,0
103584,note_on,0,0,2,,,,,,,,,2,,,69,45
103584,note_on,0,0,3,,,,,,,,,3,,,66,45
103648,note_on,160,0,1,,,,,,,,,1,,,76,0
103648,note_on,160,0,4,,,,,,,,,4,,,64,0
103680,note_on,32,0,1,,,,,,,,,1,,,88,45
103680,note_on,96,0,3,,,,,,,,,3,,,66,0
103680,note_on,0,0,3,,,,,,,,,3,,,68,45
103680,note_on,96,0,2,,,,,,,,,2,,,69,0
103680,note_on,0,0,2,,,,,,,,,2,,,71,45
103680,note_on,32,0,4,,,,,,,,,4,,,64,45
103776,note_on,96,0,2,,,,,,,,,2,,,71,0
103776,note_on,96,0,3,,,,,,,,,3,,,68,0
103776,note_on,0,0,2,,,,,,,,,2,,,73,45
103776,note_on,0,0,3,,,,,,,,,3,,,69,45
103840,note_on,160,0,1,,,,,,,,,1,,,88,0
103840,note_on,160,0,4,,,,,,,,,4,,,64,0
103870,note_on,94,0,2,,,,,,,,,2,,,73,0
103870,note_on,94,0,3,,,,,,,,,3,,,69,0
103872,note_on,2,0,2,,,,,,,,,2,,,73,92
103872,note_on,32,0,4,,,,,,,,,4,,,57,92
103872,note_on,32,0,1,,,,,,,,,1,,,85,92
103872,note_on,2,0,3,,,,,,,,,3,,,69,92
103920,note_on,48,0,2,,,,,,,,,2,,,73,0
103920,note_on,48,0,3,,,,,,,,,3,,,69,0
104032,note_on,160,0,1,,,,,,,,,1,,,85,0
104032,note_on,160,0,4,,,,,,,,,4,,,57,0
104064,note_on,32,0,4,,,,,,,,,4,,,45,45
104064,note_on,0,0,1,,,,,,,,,1,,,88,45
104064,note_on,144,0,2,,,,,,,,,2,,,73,45
104064,note_on,0,0,2,,,,,,,,,2,,,81,45
104064,note_on,32,0,1,,,,,,,,,1,,,76,45
104160,note_on,0,0,4,,,,,,,,,4,,,44,45
104160,note_on,96,0,4,,,,,,,,,4,,,45,0
104224,note_on,0,0,1,,,,,,,,,1,,,88,0
104224,note_on,160,0,1,,,,,,,,,1,,,76,0
104224,note_on,160,0,2,,,,,,,,,2,,,73,0
104224,note_on,0,0,2,,,,,,,,,2,,,81,0
104256,note_on,0,0,4,,,,,,,,,4,,,45,45
104256,note_on,96,0,4,,,,,,,,,4,,,44,0
104256,note_on,0,0,2,,,,,,,,,2,,,81,45
104256,note_on,32,0,2,,,,,,,,,2,,,73,45
104256,note_on,32,0,1,,,,,,,,,1,,,76,45
104256,note_on,0,0,1,,,,,,,,,1,,,88,45
104352,note_on,0,0,4,,,,,,,,,4,,,47,45
104352,note_on,96,0,4,,,,,,,,,4,,,45,0
104416,note_on,0,0,1,,,,,,,,,1,,,88,0
104416,note_on,0,0,2,,,,,,,,,2,,,81,0
104416,note_on,160,0,2,,,,,,,,,2,,,73,0
104416,note_on,160,0,1,,,,,,,,,1,,,76,0
104446,note_on,94,0,4,,,,,,,,,4,,,47,0
104448,note_on,0,0,1,,,,,,,,,1,,,88,45
104448,note_on,32,0,1,,,,,,,,,1,,,76,45
104448,note_on,2,0,4,,,,,,,,,4,,,49,45
104448,note_on,0,0,2,,,,,,,,,2,,,81,45
104448,note_on,32,0,2,,,,,,,,,2,,,73,45
104496,note_on,48,0,4,,,,,,,,,4,,,49,0
104608,note_on,160,0,2,,,,,,,,,2,,,73,0
104608,note_on,160,0,1,,,,,,,,,1,,,76,0
104608,note_on,0,0,2,,,,,,,,,2,,,81,0
104608,note_on,0,0,1,,,,,,,,,1,,,88,0
104640,note_on,0,0,2,,,,,,,,,2,,,81,45
104640,note_on,32,0,2,,,,,,,,,2,,,73,45
104640,note_on,0,0,1,,,,,,,,,1,,,88,45
104640,note_on,720,0,3,,,,,,,,,3,,,50,45
104640,note_on,32,0,1,,,,,,,,,1,,,76,45
104736,note_on,0,0,3,,,,,,,,,3,,,49,45
104736,note_on,96,0,3,,,,,,,,,3,,,50,0
104800,note_on,160,0,1,,,,,,,,,1,,,76,0
104800,note_on,0,0,1,,,,,,,,,1,,,88,0
104800,note_on,160,0,2,,,,,,,,,2,,,73,0
104800,note_on,0,0,2,,,,,,,,,2,,,81,0
104832,note_on,0,0,1,,,,,,,,,1,,,88,45
104832,note_on,32,0,1,,,,,,,,,1,,,76,45
104832,note_on,0,0,2,,,,,,,,,2,,,81,45
104832,note_on,32,0,2,,,,,,,,,2,,,73,45
104832,note_on,0,0,3,,,,,,,,,3,,,50,45
104832,note_on,96,0,3,,,,,,,,,3,,,49,0
104928,note_on,0,0,3,,,,,,,,,3,,,52,45
104928,note_on,96,0,3,,,,,,,,,3,,,50,0
104992,note_on,0,0,1,,,,,,,,,1,,,88,0
104992,note_on,160,0,1,,,,,,,,,1,,,76,0
104992,note_on,0,0,2,,,,,,,,,2,,,81,0
104992,note_on,160,0,2,,,,,,,,,2,,,73,0
105022,note_on,94,0,3,,,,,,,,,3,,,52,0
105024,note_on,0,0,1,,,,,,,,,1,,,88,45
105024,note_on,32,0,1,,,,,,,,,1,,,76,45
105024,note_on,2,0,3,,,,,,,,,3,,,54,45
105024,note_on,0,0,2,,,,,,,,,2,,,81,45
105024,note_on,32,0,2,,,,,,,,,2,,,73,45
105072,note_on,48,0,3,,,,,,,,,3,,,54,0
105184,note_on,160,0,2,,,,,,,,,2,,,73,0
105184,note_on,0,0,1,,,,,,,,,1,,,88,0
105184,note_on,160,0,1,,,,,,,,,1,,,76,0
105184,note_on,0,0,2,,,,,,,,,2,,,81,0
105216,note_on,144,0,3,,,,,,,,,3,,,56,45
105216,note_on,32,0,1,,,,,,,,,1,,,76,45
105216,note_on,0,0,1,,,,,,,,,1,,,88,45
105216,note_on,32,0,2,,,,,,,,,2,,,68,45
105312,note_on,96,0,3,,,,,,,,,3,,,56,0
105312,note_on,96,0,2,,,,,,,,,2,,,68,0
105312,note_on,0,0,2,,,,,,,,,2,,,66,45
105312,note_on,0,0,3,,,,,,,,,3,,,54,45
105376,note_on,0,0,1,,,,,,,,,1,,,88,0
105376,note_on,160,0,1,,,,,,,,,1,,,76,0
105408,note_on,0,0,2,,,,,,,,,2,,,68,45
105408,note_on,0,0,3,,,,,,,,,3,,,56,45
105408,note_on,96,0,3,,,,,,,,,3,,,54,0
105408,note_on,96,0,2,,,,,,,,,2,,,66,0
105408,note_on,32,0,1,,,,,,,,,1,,,76,45
105408,note_on,0,0,1,,,,,,,,,1,,,88,45
105504,note_on,0,0,3,,,,,,,,,3,,,57,45
105504,note_on,0,0,2,,,,,,,,,2,,,69,45
105504,note_on,96,0,2,,,,,,,,,2,,,68,0
105504,note_on,96,0,3,,,,,,,,,3,,,56,0
105568,note_on,160,0,1,,,,,,,,,1,,,76,0
105568,note_on,0,0,1,,,,,,,,,1,,,88,0
105598,note_on,94,0,2,,,,,,,,,2,,,69,0
105598,note_on,94,0,3,,,,,,,,,3,,,57,0
105600,note_on,32,0,1,,,,,,,,,1,,,76,45
105600,note_on,0,0,3,,,,,,,,,3,,,59,45
105600,note_on,2,0,3,,,,,,,,,3,,,56,45
105600,note_on,2,0,2,,,,,,,,,2,,,71,45
105600,note_on,1104,0,4,,,,,,,,,4,,,64,45
105600,note_on,0,0,1,,,,,,,,,1,,,88,45
105648,note_on,0,0,3,,,,,,,,,3,,,59,0
105648,note_on,48,0,3,,,,,,,,,3,,,56,0
105648,note_on,48,0,2,,,,,,,,,2,,,71,0
105760,note_on,0,0,1,,,,,,,,,1,,,88,0
105760,note_on,160,0,4,,,,,,,,,4,,,64,0
105760,note_on,160,0,1,,,,,,,,,1,,,76,0
105792,note_on,32,0,1,,,,,,,,,1,,,76,45
105792,note_on,0,0,1,,,,,,,,,1,,,88,45
105792,note_on,32,0,4,,,,,,,,,4,,,64,45
105792,note_on,144,0,2,,,,,,,,,2,,,73,45
105792,note_on,144,0,3,,,,,,,,,3,,,57,45
105840,note_on,48,0,2,,,,,,,,,2,,,73,0
105840,note_on,48,0,3,,,,,,,,,3,,,57,0
105952,note_on,160,0,4,,,,,,,,,4,,,64,0
105952,note_on,0,0,1,,,,,,,,,1,,,88,0
105952,note_on,160,0,1,,,,,,,,,1,,,76,0
105984,note_on,144,0,3,,,,,,,,,3,,,59,45
105984,note_on,32,0,1,,,,,,,,,1,,,76,45
105984,note_on,32,0,4,,,,,,,,,4,,,64,45
105984,note_on,0,0,1,,,,,,,,,1,,,88,45
105984,note_on,144,0,2,,,,,,,,,2,,,74,45
106032,note_on,48,0,3,,,,,,,,,3,,,59,0
106032,note_on,48,0,2,,,,,,,,,2,,,74,0
106144,note_on,0,0,1,,,,,,,,,1,,,88,0
106144,note_on,160,0,4,,,,,,,,,4,,,64,0
106144,note_on,160,0,1,,,,,,,,,1,,,76,0
106176,note_on,32,0,1,,,,,,,,,1,,,76,45
106176,note_on,0,0,1,,,,,,,,,1,,,88,45
106176,note_on,144,0,2,,,,,,,,,2,,,71,45
106176,note_on,144,0,3,,,,,,,,,3,,,68,45
106176,note_on,32,0,4,,,,,,,,,4,,,64,45
106224,note_on,48,0,2,,,,,,,,,2,,,71,0
106224,note_on,48,0,3,,,,,,,,,3,,,68,0
106336,note_on,160,0,4,,,,,,,,,4,,,64,0
106336,note_on,160,0,1,,,,,,,,,1,,,76,0
106336,note_on,0,0,1,,,,,,,,,1,,,88,0
106368,note_on,144,0,2,,,,,,,,,2,,,69,45
106368,note_on,32,0,4,,,,,,,,,4,,,64,45
106368,note_on,144,0,3,,,,,,,,,3,,,73,45
106368,note_on,32,0,1,,,,,,,,,1,,,78,45
106416,note_on,48,0,3,,,,,,,,,3,,,73,0
106416,note_on,48,0,2,,,,,,,,,2,,,69,0
106528,note_on,160,0,1,,,,,,,,,1,,,78,0
106528,note_on,160,0,4,,,,,,,,,4,,,64,0
106560,note_on,32,0,1,,,,,,,,,1,,,80,45
106560,note_on,144,0,3,,,,,,,,,3,,,71,45
106560,note_on,144,0,2,,,,,,,,,2,,,74,45
106560,note_on,32,0,4,,,,,,,,,4,,,64,45
106608,note_on,48,0,3,,,,,,,,,3,,,71,0
106608,note_on,48,0,2,,,,,,,,,2,,,74,0
106720,note_on,160,0,1,,,,,,,,,1,,,80,0
106720,note_on,160,0,4,,,,,,,,,4,,,64,0
106752,note_on,144,0,3,,,,,,,,,3,,,66,45
106752,note_on,32,0,4,,,,,,,,,4,,,64,45
106752,note_on,32,0,1,,,,,,,,,1,,,81,45
106752,note_on,144,0,2,,,,,,,,,2,,,74,45
106912,note_on,160,0,3,,,,,,,,,3,,,66,0
106912,note_on,160,0,2,,,,,,,,,2,,,74,0
106912,note_on,160,0,4,,,,,,,,,4,,,64,0
106912,note_on,160,0,1,,,,,,,,,1,,,81,0
106944,note_on,32,0,2,,,,,,,,,2,,,74,45
106944,note_on,32,0,1,,,,,,,,,1,,,83,45
106944,note_on,32,0,3,,,,,,,,,3,,,68,45
106944,note_on,32,0,4,,,,,,,,,4,,,64,45
107104,note_on,160,0,1,,,,,,,,,1,,,83,0
107104,note_on,160,0,2,,,,,,,,,2,,,74,0
107104,note_on,160,0,4,,,,,,,,,4,,,64,0
107104,note_on,160,0,3,,,,,,,,,3,,,68,0
107136,note_on,32,0,4,,,,,,,,,4,,,64,45
107136,note_on,32,0,1,,,,,,,,,1,,,85,45
107136,note_on,32,0,3,,,,,,,,,3,,,69,45
107136,note_on,32,0,2,,,,,,,,,2,,,74,45
107296,note_on,160,0,1,,,,,,,,,1,,,85,0
107296,note_on,160,0,4,,,,,,,,,4,,,64,0
107296,note_on,160,0,3,,,,,,,,,3,,,69,0
107296,note_on,160,0,2,,,,,,,,,2,,,74,0
107328,note_on,32,0,2,,,,,,,,,2,,,74,45
107328,note_on,32,0,1,,,,,,,,,1,,,86,45
107328,note_on,32,0,4,,,,,,,,,4,,,64,45
107328,note_on,0,0,3,,,,,,,,,3,,,71,45
107328,note_on,32,0,3,,,,,,,,,3,,,68,45
107488,note_on,160,0,1,,,,,,,,,1,,,86,0
107488,note_on,160,0,2,,,,,,,,,2,,,74,0
107488,note_on,0,0,3,,,,,,,,,3,,,71,0
107488,note_on,160,0,3,,,,,,,,,3,,,68,0
107488,note_on,160,0,4,,,,,,,,,4,,,64,0
107520,note_on,0,0,3,,,,,,,,,3,,,71,45
107520,note_on,32,0,3,,,,,,,,,3,,,68,45
107520,note_on,32,0,2,,,,,,,,,2,,,74,45
107520,note_on,32,0,1,,,,,,,,,1,,,76,45
107520,note_on,0,0,2,,,,,,,,,2,,,83,45
107520,note_on,32,0,4,,,,,,,,,4,,,64,45
107680,note_on,160,0,1,,,,,,,,,1,,,76,0
107680,note_on,0,0,3,,,,,,,,,3,,,71,0
107680,note_on,160,0,2,,,,,,,,,2,,,74,0
107680,note_on,0,0,2,,,,,,,,,2,,,83,0
107680,note_on,160,0,3,,,,,,,,,3,,,68,0
107680,note_on,160,0,4,,,,,,,,,4,,,64,0
107712,note_on,32,0,2,,,,,,,,,2,,,74,45
107712,note_on,32,0,4,,,,,,,,,4,,,64,45
107712,note_on,0,0,3,,,,,,,,,3,,,71,45
107712,note_on,0,0,2,,,,,,,,,2,,,83,45
107712,note_on,32,0,1,,,,,,,,,1,,,85,45
107712,note_on,32,0,3,,,,,,,,,3,,,68,45
107872,note_on,0,0,3,,,,,,,,,3,,,71,0
107872,note_on,160,0,3,,,,,,,,,3,,,68,0
107872,note_on,160,0,4,,,,,,,,,4,,,64,0
107872,note_on,0,0,2,,,,,,,,,2,,,83,0
107872,note_on,160,0,2,,,,,,,,,2,,,74,0
107872,note_on,160,0,1,,,,,,,,,1,,,85,0
107904,note_on,32,0,1,,,,,,,,,1,,,86,45
107904,note_on,32,0,4,,,,,,,,,4,,,64,45
107904,note_on,32,0,3,,,,,,,,,3,,,68,45
107904,note_on,0,0,3,,,,,,,,,3,,,71,45
107904,note_on,32,0,2,,,,,,,,,2,,,74,45
107904,note_on,0,0,2,,,,,,,,,2,,,83,45
108064,note_on,160,0,3,,,,,,,,,3,,,68,0
108064,note_on,160,0,1,,,,,,,,,1,,,86,0
108064,note_on,160,0,4,,,,,,,,,4,,,64,0
108064,note_on,0,0,2,,,,,,,,,2,,,83,0
108064,note_on,160,0,2,,,,,,,,,2,,,74,0
108064,note_on,0,0,3,,,,,,,,,3,,,71,0
108096,note_on,32,0,2,,,,,,,,,2,,,74,45
108096,note_on,32,0,4,,,,,,,,,4,,,64,45
108096,note_on,0,0,3,,,,,,,,,3,,,71,45
108096,note_on,32,0,3,,,,,,,,,3,,,68,45
108096,note_on,32,0,1,,,,,,,,,1,,,76,45
108096,note_on,0,0,2,,,,,,,,,2,,,83,45
108256,note_on,0,0,3,,,,,,,,,3,,,71,0
108256,note_on,0,0,2,,,,,,,,,2,,,83,0
108256,note_on,160,0,2,,,,,,,,,2,,,74,0
108256,note_on,160,0,3,,,,,,,,,3,,,68,0
108256,note_on,160,0,4,,,,,,,,,4,,,64,0
108256,note_on,160,0,1,,,,,,,,,1,,,76,0
108288,note_on,32,0,2,,,,,,,,,2,,,74,45
108288,note_on,32,0,4,,,,,,,,,4,,,64,45
108288,note_on,0,0,2,,,,,,,,,2,,,83,45
108288,note_on,32,0,1,,,,,,,,,1,,,88,45
108288,note_on,32,0,3,,,,,,,,,3,,,68,45
108288,note_on,0,0,3,,,,,,,,,3,,,71,45
108448,note_on,160,0,1,,,,,,,,,1,,,88,0
108448,note_on,160,0,4,,,,,,,,,4,,,64,0
108448,note_on,0,0,3,,,,,,,,,3,,,71,0
108448,note_on,160,0,3,,,,,,,,,3,,,68,0
108448,note_on,160,0,2,,,,,,,,,2,,,74,0
108448,note_on,0,0,2,,,,,,,,,2,,,83,0
108480,note_on,32,0,2,,,,,,,,,2,,,74,45
108480,note_on,32,0,3,,,,,,,,,3,,,68,45
108480,note_on,0,0,3,,,,,,,,,3,,,71,45
108480,note_on,32,0,4,,,,,,,,,4,,,64,45
108480,note_on,0,0,2,,,,,,,,,2,,,83,45
108480,note_on,32,0,1,,,,,,,,,1,,,86,45
108528,note_on,48,0,1,,,,,,,,,1,,,86,0
108640,note_on,160,0,4,,,,,,,,,4,,,64,0
108640,note_on,160,0,2,,,,,,,,,2,,,74,0
108640,note_on,0,0,3,,,,,,,,,3,,,71,0
108640,note_on,160,0,3,,,,,,,,,3,,,68,0
108640,note_on,0,0,2,,,,,,,,,2,,,83,0
108672,note_on,0,0,3,,,,,,,,,3,,,76,48
108672,note_on,32,0,3,,,,,,,,,3,,,68,48
108672,note_on,0,0,2,,,,,,,,,2,,,83,48
108672,note_on,32,0,2,,,,,,,,,2,,,74,48
108672,note_on,32,0,4,,,,,,,,,4,,,44,48
108672,note_on,144,0,1,,,,,,,,,1,,,86,50
108768,note_on,0,0,1,,,,,,,,,1,,,88,52
108768,note_on,0,0,4,,,,,,,,,4,,,42,50
108768,note_on,96,0,1,,,,,,,,,1,,,86,0
108768,note_on,96,0,4,,,,,,,,,4,,,44,0
108832,note_on,160,0,3,,,,,,,,,3,,,68,0
108832,note_on,0,0,3,,,,,,,,,3,,,76,0
108832,note_on,160,0,2,,,,,,,,,2,,,74,0
108832,note_on,0,0,2,,,,,,,,,2,,,83,0
108864,note_on,0,0,1,,,,,,,,,1,,,86,54
108864,note_on,96,0,1,,,,,,,,,1,,,88,0
108864,note_on,96,0,4,,,,,,,,,4,,,42,0
108864,note_on,32,0,2,,,,,,,,,2,,,74,52
108864,note_on,32,0,3,,,,,,,,,3,,,68,52
108864,note_on,0,0,2,,,,,,,,,2,,,83,52
108864,note_on,0,0,3,,,,,,,,,3,,,76,52
108864,note_on,0,0,4,,,,,,,,,4,,,44,52
108960,note_on,0,0,1,,,,,,,,,1,,,85,56
108960,note_on,96,0,1,,,,,,,,,1,,,86,0
108960,note_on,0,0,4,,,,,,,,,4,,,45,54
108960,note_on,96,0,4,,,,,,,,,4,,,44,0
109024,note_on,0,0,3,,,,,,,,,3,,,76,0
109024,note_on,160,0,3,,,,,,,,,3,,,68,0
109024,note_on,160,0,2,,,,,,,,,2,,,74,0
109024,note_on,0,0,2,,,,,,,,,2,,,83,0
109054,note_on,94,0,4,,,,,,,,,4,,,45,0
109054,note_on,94,0,1,,,,,,,,,1,,,85,0
109056,note_on,2,0,4,,,,,,,,,4,,,47,56
109056,note_on,32,0,3,,,,,,,,,3,,,68,56
109056,note_on,32,0,2,,,,,,,,,2,,,74,56
109056,note_on,0,0,3,,,,,,,,,3,,,76,56
109056,note_on,2,0,1,,,,,,,,,1,,,83,58
109104,note_on,48,0,4,,,,,,,,,4,,,47,0
109104,note_on,48,0,2,,,,,,,,,2,,,74,0
109104,note_on,48,0,1,,,,,,,,,1,,,83,0
109216,note_on,0,0,3,,,,,,,,,3,,,76,0
109216,note_on,160,0,3,,,,,,,,,3,,,68,0
109248,note_on,144,0,2,,,,,,,,,2,,,59,60
109248,note_on,32,0,3,,,,,,,,,3,,,56,60
109248,note_on,144,0,4,,,,,,,,,4,,,64,60
109248,note_on,144,0,1,,,,,,,,,1,,,71,63
109344,note_on,0,0,2,,,,,,,,,2,,,57,62
109344,note_on,96,0,2,,,,,,,,,2,,,59,0
109344,note_on,0,0,3,,,,,,,,,3,,,54,62
109344,note_on,0,0,1,,,,,,,,,1,,,73,65
109344,note_on,96,0,1,,,,,,,,,1,,,71,0
109344,note_on,96,0,3,,,,,,,,,3,,,56,0
109408,note_on,160,0,4,,,,,,,,,4,,,64,0
109440,note_on,0,0,2,,,,,,,,,2,,,59,64
109440,note_on,0,0,3,,,,,,,,,3,,,56,64
109440,note_on,96,0,3,,,,,,,,,3,,,54,0
109440,note_on,96,0,1,,,,,,,,,1,,,73,0
109440,note_on,0,0,1,,,,,,,,,1,,,71,67
109440,note_on,96,0,2,,,,,,,,,2,,,57,0
109440,note_on,32,0,4,,,,,,,,,4,,,64,64
109536,note_on,0,0,1,,,,,,,,,1,,,69,69
109536,note_on,96,0,1,,,,,,,,,1,,,71,0
109536,note_on,0,0,2,,,,,,,,,2,,,61,66
109536,note_on,96,0,2,,,,,,,,,2,,,59,0
109536,note_on,96,0,3,,,,,,,,,3,,,56,0
109536,note_on,0,0,3,,,,,,,,,3,,,57,66
109600,note_on,160,0,4,,,,,,,,,4,,,64,0
109630,note_on,94,0,2,,,,,,,,,2,,,61,0
109630,note_on,94,0,3,,,,,,,,,3,,,57,0
109630,note_on,94,0,1,,,,,,,,,1,,,69,0
109632,note_on,2,0,2,,,,,,,,,2,,,62,68
109632,note_on,32,0,4,,,,,,,,,4,,,64,68
109632,note_on,2,0,1,,,,,,,,,1,,,68,72
109632,note_on,2,0,3,,,,,,,,,3,,,59,68
109680,note_on,48,0,1,,,,,,,,,1,,,68,0
109680,note_on,48,0,2,,,,,,,,,2,,,62,0
109680,note_on,48,0,3,,,,,,,,,3,,,59,0
109792,note_on,160,0,4,,,,,,,,,4,,,64,0
109824,note_on,144,0,2,,,,,,,,,2,,,68,72
109824,note_on,144,0,3,,,,,,,,,3,,,62,72
109824,note_on,32,0,4,,,,,,,,,4,,,64,72
109824,note_on,144,0,1,,,,,,,,,1,,,71,78
109920,note_on,0,0,2,,,,,,,,,2,,,66,74
109920,note_on,96,0,1,,,,,,,,,1,,,71,0
109920,note_on,96,0,2,,,,,,,,,2,,,68,0
109920,note_on,0,0,1,,,,,,,,,1,,,69,81
109920,note_on,96,0,3,,,,,,,,,3,,,62,0
109920,note_on,0,0,3,,,,,,,,,3,,,64,74
109984,note_on,160,0,4,,,,,,,,,4,,,64,0
110016,note_on,0,0,1,,,,,,,,,1,,,71,84
110016,note_on,96,0,1,,,,,,,,,1,,,69,0
110016,note_on,0,0,2,,,,,,,,,2,,,68,76
110016,note_on,96,0,3,,,,,,,,,3,,,64,0
110016,note_on,96,0,2,,,,,,,,,2,,,66,0
110016,note_on,0,0,3,,,,,,,,,3,,,62,76
110016,note_on,32,0,4,,,,,,,,,4,,,64,76
110112,note_on,96,0,1,,,,,,,,,1,,,71,0
110112,note_on,0,0,1,,,,,,,,,1,,,73,87
110112,note_on,96,0,2,,,,,,,,,2,,,68,0
110112,note_on,96,0,3,,,,,,,,,3,,,62,0
110112,note_on,0,0,3,,,,,,,,,3,,,61,78
110112,note_on,0,0,2,,,,,,,,,2,,,69,78
110176,note_on,160,0,4,,,,,,,,,4,,,64,0
110206,note_on,94,0,1,,,,,,,,,1,,,73,0
110206,note_on,94,0,3,,,,,,,,,3,,,61,0
110206,note_on,94,0,2,,,,,,,,,2,,,69,0
110208,note_on,2,0,2,,,,,,,,,2,,,68,80
110208,note_on,2,0,1,,,,,,,,,1,,,74,90
110208,note_on,2,0,3,,,,,,,,,3,,,59,80
110208,note_on,32,0,4,,,,,,,,,4,,,64,80
110256,note_on,48,0,3,,,,,,,,,3,,,59,0
110256,note_on,48,0,2,,,,,,,,,2,,,68,0
110256,note_on,48,0,1,,,,,,,,,1,,,74,0
110368,note_on,160,0,4,,,,,,,,,4,,,64,0
110400,note_on,144,0,2,,,,,,,,,2,,,66,84
110400,note_on,32,0,4,,,,,,,,,4,,,42,84
110400,note_on,144,0,3,,,,,,,,,3,,,54,84
110400,note_on,144,0,1,,,,,,,,,1,,,86,96
110496,note_on,96,0,2,,,,,,,,,2,,,66,0
110496,note_on,0,0,1,,,,,,,,,1,,,85,99
110496,note_on,0,0,4,,,,,,,,,4,,,40,86
110496,note_on,0,0,2,,,,,,,,,2,,,64,86
110496,note_on,96,0,1,,,,,,,,,1,,,86,0
110496,note_on,96,0,3,,,,,,,,,3,,,54,0
110496,note_on,96,0,4,,,,,,,,,4,,,42,0
110496,note_on,0,0,3,,,,,,,,,3,,,52,86
110592,note_on,0,0,3,,,,,,,,,3,,,54,88
110592,note_on,0,0,1,,,,,,,,,1,,,86,102
110592,note_on,0,0,4,,,,,,,,,4,,,42,88
110592,note_on,96,0,1,,,,,,,,,1,,,85,0
110592,note_on,96,0,3,,,,,,,,,3,,,52,0
110592,note_on,96,0,4,,,,,,,,,4,,,40,0
110592,note_on,0,0,2,,,,,,,,,2,,,66,88
110592,note_on,96,0,2,,,,,,,,,2,,,64,0
110688,note_on,0,0,1,,,,,,,,,1,,,83,105
110688,note_on,0,0,4,,,,,,,,,4,,,44,90
110688,note_on,0,0,3,,,,,,,,,3,,,56,90
110688,note_on,96,0,3,,,,,,,,,3,,,54,0
110688,note_on,0,0,2,,,,,,,,,2,,,68,90
110688,note_on,96,0,2,,,,,,,,,2,,,66,0
110688,note_on,96,0,4,,,,,,,,,4,,,42,0
110688,note_on,96,0,1,,,,,,,,,1,,,86,0
110782,note_on,94,0,3,,,,,,,,,3,,,56,0
110782,note_on,94,0,2,,,,,,,,,2,,,68,0
110782,note_on,94,0,4,,,,,,,,,4,,,44,0
110782,note_on,94,0,1,,,,,,,,,1,,,83,0
110784,note_on,2,0,3,,,,,,,,,3,,,57,92
110784,note_on,2,0,2,,,,,,,,,2,,,69,92
110784,note_on,2,0,4,,,,,,,,,4,,,45,92
110784,note_on,2,0,1,,,,,,,,,1,,,81,108
110832,note_on,48,0,4,,,,,,,,,4,,,45,0
110832,note_on,48,0,3,,,,,,,,,3,,,57,0
110832,note_on,48,0,2,,,,,,,,,2,,,69,0
110832,note_on,48,0,1,,,,,,,,,1,,,81,0
110976,note_on,144,0,2,,,,,,,,,2,,,66,92
110976,note_on,144,0,4,,,,,,,,,4,,,42,92
110976,note_on,144,0,1,,,,,,,,,1,,,69,108
110976,note_on,144,0,3,,,,,,,,,3,,,54,92
111024,note_on,48,0,1,,,,,,,,,1,,,69,0
111072,note_on,96,0,2,,,,,,,,,2,,,66,0
111072,note_on,0,0,2,,,,,,,,,2,,,64,92
111072,note_on,0,0,3,,,,,,,,,3,,,52,92
111072,note_on,96,0,3,,,,,,,,,3,,,54,0
111072,note_on,96,0,4,,,,,,,,,4,,,42,0
111072,note_on,0,0,4,,,,,,,,,4,,,40,92
111168,note_on,0,0,2,,,,,,,,,2,,,66,92
111168,note_on,0,0,3,,,,,,,,,3,,,54,92
111168,note_on,96,0,3,,,,,,,,,3,,,52,0
111168,note_on,96,0,4,,,,,,,,,4,,,40,0
111168,note_on,0,0,4,,,,,,,,,4,,,42,92
111168,note_on,144,0,1,,,,,,,,,1,,,85,108
111168,note_on,96,0,2,,,,,,,,,2,,,64,0
111216,note_on,48,0,1,,,,,,,,,1,,,85,0
111264,note_on,96,0,4,,,,,,,,,4,,,42,0
111264,note_on,0,0,3,,,,,,,,,3,,,56,92
111264,note_on,96,0,3,,,,,,,,,3,,,54,0
111264,note_on,96,0,2,,,,,,,,,2,,,66,0
111264,note_on,0,0,2,,,,,,,,,2,,,68,92
111264,note_on,0,0,4,,,,,,,,,4,,,44,92
111358,note_on,94,0,2,,,,,,,,,2,,,68,0
111358,note_on,94,0,3,,,,,,,,,3,,,56,0
111358,note_on,94,0,4,,,,,,,,,4,,,44,0
111360,note_on,144,0,1,,,,,,,,,1,,,69,127
111360,note_on,2,0,4,,,,,,,,,4,,,45,92
111360,note_on,2,0,3,,,,,,,,,3,,,57,92
111408,note_on,48,0,3,,,,,,,,,3,,,57,0
111408,note_on,48,0,4,,,,,,,,,4,,,45,0
111520,note_on,160,0,1,,,,,,,,,1,,,69,0
111552,note_on,144,0,4,,,,,,,,,4,,,42,92
111552,note_on,32,0,1,,,,,,,,,1,,,88,108
111552,note_on,144,0,3,,,,,,,,,3,,,54,92
111552,note_on,194,0,2,,,,,,,,,2,,,66,92
111648,note_on,0,0,4,,,,,,,,,4,,,40,92
111648,note_on,0,0,2,,,,,,,,,2,,,64,92
111648,note_on,96,0,2,,,,,,,,,2,,,66,0
111648,note_on,0,0,3,,,,,,,,,3,,,52,92
111648,note_on,96,0,4,,,,,,,,,4,,,42,0
111648,note_on,96,0,3,,,,,,,,,3,,,54,0
111712,note_on,160,0,1,,,,,,,,,1,,,88,0
111744,note_on,0,0,3,,,,,,,,,3,,,54,92
111744,note_on,96,0,4,,,,,,,,,4,,,40,0
111744,note_on,0,0,4,,,,,,,,,4,,,42,92
111744,note_on,0,0,2,,,,,,,,,2,,,66,92
111744,note_on,96,0,2,,,,,,,,,2,,,64,0
111744,note_on,32,0,1,,,,,,,,,1,,,69,108
111744,note_on,96,0,3,,,,,,,,,3,,,52,0
111840,note_on,96,0,4,,,,,,,,,4,,,42,0
111840,note_on,0,0,4,,,,,,,,,4,,,44,92
111840,note_on,0,0,3,,,,,,,,,3,,,56,92
111840,note_on,96,0,2,,,,,,,,,2,,,66,0
111840,note_on,0,0,2,,,,,,,,,2,,,68,92
111840,note_on,96,0,3,,,,,,,,,3,,,54,0
111904,note_on,160,0,1,,,,,,,,,1,,,69,0
111934,note_on,94,0,3,,,,,,,,,3,,,56,0
111934,note_on,94,0,2,,,,,,,,,2,,,68,0
111934,note_on,94,0,4,,,,,,,,,4,,,44,0
111936,note_on,32,0,1,,,,,,,,,1,,,88,127
111936,note_on,2,0,2,,,,,,,,,2,,,69,92
111936,note_on,2,0,4,,,,,,,,,4,,,45,92
111936,note_on,2,0,3,,,,,,,,,3,,,57,92
112096,note_on,160,0,4,,,,,,,,,4,,,45,0
112096,note_on,160,0,3,,,,,,,,,3,,,57,0
112096,note_on,160,0,1,,,,,,,,,1,,,88,0
112096,note_on,160,0,2,,,,,,,,,2,,,69,0
112128,note_on,32,0,4,,,,,,,,,4,,,42,92
112128,note_on,32,0,2,,,,,,,,,2,,,66,92
112128,note_on,32,0,3,,,,,,,,,3,,,54,92
112128,note_on,32,0,1,,,,,,,,,1,,,69,108
112224,note_on,96,0,3,,,,,,,,,3,,,54,0
112224,note_on,0,0,3,,,,,,,,,3,,,52,92
112224,note_on,0,0,4,,,,,,,,,4,,,40,92
112224,note_on,96,0,4,,,,,,,,,4,,,42,0
112224,note_on,96,0,2,,,,,,,,,2,,,66,0
112224,note_on,0,0,2,,,,,,,,,2,,,64,92
112288,note_on,160,0,1,,,,,,,,,1,,,69,0
112320,note_on,96,0,3,,,,,,,,,3,,,52,0
112320,note_on,0,0,4,,,,,,,,,4,,,42,92
112320,note_on,0,0,3,,,,,,,,,3,,,54,92
112320,note_on,96,0,4,,,,,,,,,4,,,40,0
112320,note_on,0,0,2,,,,,,,,,2,,,66,92
112320,note_on,96,0,2,,,,,,,,,2,,,64,0
112320,note_on,32,0,1,,,,,,,,,1,,,93,108
112416,note_on,96,0,2,,,,,,,,,2,,,66,0
112416,note_on,0,0,3,,,,,,,,,3,,,56,92
112416,note_on,0,0,4,,,,,,,,,4,,,44,92
112416,note_on,96,0,4,,,,,,,,,4,,,42,0
112416,note_on,0,0,2,,,,,,,,,2,,,68,92
112416,note_on,96,0,3,,,,,,,,,3,,,54,0
112480,note_on,160,0,1,,,,,,,,,1,,,93,0
112510,note_on,94,0,3,,,,,,,,,3,,,56,0
112510,note_on,94,0,2,,,,,,,,,2,,,68,0
112510,note_on,94,0,4,,,,,,,,,4,,,44,0
112512,note_on,2,0,2,,,,,,,,,2,,,69,92
112512,note_on,2,0,3,,,,,,,,,3,,,57,92
112512,note_on,32,0,1,,,,,,,,,1,,,88,127
112512,note_on,2,0,4,,,,,,,,,4,,,45,92
112672,note_on,160,0,3,,,,,,,,,3,,,57,0
112672,note_on,160,0,2,,,,,,,,,2,,,69,0
112672,note_on,160,0,4,,,,,,,,,4,,,45,0
112704,note_on,32,0,4,,,,,,,,,4,,,42,92
112704,note_on,32,0,2,,,,,,,,,2,,,66,92
112704,note_on,32,0,3,,,,,,,,,3,,,54,92
112800,note_on,0,0,2,,,,,,,,,2,,,64,92
112800,note_on,96,0,2,,,,,,,,,2,,,66,0
112800,note_on,96,0,4,,,,,,,,,4,,,42,0
112800,note_on,0,0,4,,,,,,,,,4,,,40,92
112800,note_on,0,0,3,,,,,,,,,3,,,52,92
112800,note_on,96,0,3,,,,,,,,,3,,,54,0
112896,note_on,0,0,4,,,,,,,,,4,,,42,92
112896,note_on,0,0,2,,,,,,,,,2,,,66,92
112896,note_on,0,0,3,,,,,,,,,3,,,54,92
112896,note_on,96,0,3,,,,,,,,,3,,,52,0
112896,note_on,96,0,4,,,,,,,,,4,,,40,0
112896,note_on,96,0,2,,,,,,,,,2,,,64,0
112992,note_on,96,0,4,,,,,,,,,4,,,42,0
112992,note_on,0,0,4,,,,,,,,,4,,,44,92
112992,note_on,0,0,2,,,,,,,,,2,,,68,92
112992,note_on,96,0,2,,,,,,,,,2,,,66,0
112992,note_on,0,0,3,,,,,,,,,3,,,56,92
112992,note_on,96,0,3,,,,,,,,,3,,,54,0
113086,note_on,94,0,2,,,,,,,,,2,,,68,0
113086,note_on,94,0,4,,,,,,,,,4,,,44,0
113086,note_on,94,0,3,,,,,,,,,3,,,56,0
113088,note_on,2,0,4,,,,,,,,,4,,,45,92
113088,note_on,2,0,2,,,,,,,,,2,,,69,92
113088,note_on,2,0,3,,,,,,,,,3,,,57,92
113248,note_on,736,0,1,,,,,,,,,1,,,88,0
113248,note_on,160,0,4,,,,,,,,,4,,,45,0
113248,note_on,160,0,2,,,,,,,,,2,,,69,0
113248,note_on,160,0,3,,,,,,,,,3,,,57,0
113280,note_on,32,0,4,,,,,,,,,4,,,42,92
113280,note_on,32,0,3,,,,,,,,,3,,,54,92
113280,note_on,32,0,1,,,,,,,,,1,,,69,108
113280,note_on,32,0,2,,,,,,,,,2,,,66,92
113328,note_on,48,0,1,,,,,,,,,1,,,69,0
113376,note_on,96,0,3,,,,,,,,,3,,,54,0
113376,note_on,0,0,2,,,,,,,,,2,,,64,92
113376,note_on,96,0,2,,,,,,,,,2,,,66,0
113376,note_on,0,0,4,,,,,,,,,4,,,40,92
113376,note_on,96,0,4,,,,,,,,,4,,,42,0
113376,note_on,0,0,3,,,,,,,,,3,,,52,92
113472,note_on,96,0,2,,,,,,,,,2,,,64,0
113472,note_on,0,0,2,,,,,,,,,2,,,66,92
113472,note_on,0,0,4,,,,,,,,,4,,,42,92
113472,note_on,96,0,4,,,,,,,,,4,,,40,0
113472,note_on,0,0,3,,,,,,,,,3,,,54,92
113472,note_on,96,0,3,,,,,,,,,3,,,52,0
113472,note_on,144,0,1,,,,,,,,,1,,,86,108
113520,note_on,48,0,1,,,,,,,,,1,,,86,0
113568,note_on,96,0,4,,,,,,,,,4,,,42,0
113568,note_on,0,0,3,,,,,,,,,3,,,56,92
113568,note_on,96,0,2,,,,,,,,,2,,,66,0
113568,note_on,0,0,2,,,,,,,,,2,,,68,92
113568,note_on,96,0,3,,,,,,,,,3,,,54,0
113568,note_on,0,0,4,,,,,,,,,4,,,44,92
113662,note_on,94,0,4,,,,,,,,,4,,,44,0
113662,note_on,94,0,3,,,,,,,,,3,,,56,0
113662,note_on,94,0,2,,,,,,,,,2,,,68,0
113664,note_on,2,0,2,,,,,,,,,2,,,69,92
113664,note_on,144,0,1,,,,,,,,,1,,,85,127
113664,note_on,2,0,4,,,,,,,,,4,,,45,92
113664,note_on,2,0,3,,,,,,,,,3,,,57,92
113712,note_on,48,0,1,,,,,,,,,1,,,85,0
113824,note_on,160,0,2,,,,,,,,,2,,,69,0
113824,note_on,160,0,4,,,,,,,,,4,,,45,0
113824,note_on,160,0,3,,,,,,,,,3,,,57,0
113856,note_on,32,0,2,,,,,,,,,2,,,66,92
113856,note_on,32,0,3,,,,,,,,,3,,,54,92
113856,note_on,144,0,1,,,,,,,,,1,,,69,108
113856,note_on,32,0,4,,,,,,,,,4,,,42,92
113904,note_on,48,0,1,,,,,,,,,1,,,69,0
113952,note_on,0,0,3,,,,,,,,,3,,,52,92
113952,note_on,0,0,4,,,,,,,,,4,,,40,92
113952,note_on,96,0,4,,,,,,,,,4,,,42,0
113952,note_on,96,0,2,,,,,,,,,2,,,66,0
113952,note_on,0,0,2,,,,,,,,,2,,,64,92
113952,note_on,96,0,3,,,,,,,,,3,,,54,0
114048,note_on,96,0,2,,,,,,,,,2,,,64,0
114048,note_on,0,0,2,,,,,,,,,2,,,66,92
114048,note_on,0,0,3,,,,,,,,,3,,,54,92
114048,note_on,96,0,3,,,,,,,,,3,,,52,0
114048,note_on,144,0,1,,,,,,,,,1,,,86,108
114048,note_on,96,0,4,,,,,,,,,4,,,40,0
114048,note_on,0,0,4,,,,,,,,,4,,,42,92
114096,note_on,48,0,1,,,,,,,,,1,,,86,0
114144,note_on,0,0,3,,,,,,,,,3,,,56,92
114144,note_on,96,0,3,,,,,,,,,3,,,54,0
114144,note_on,96,0,2,,,,,,,,,2,,,66,0
114144,note_on,0,0,2,,,,,,,,,2,,,68,92
114144,note_on,96,0,4,,,,,,,,,4,,,42,0
114144,note_on,0,0,4,,,,,,,,,4,,,44,92
114238,note_on,94,0,2,,,,,,,,,2,,,68,0
114238,note_on,94,0,4,,,,,,,,,4,,,44,0
114238,note_on,94,0,3,,,,,,,,,3,,,56,0
114240,note_on,2,0,3,,,,,,,,,3,,,57,92
114240,note_on,2,0,4,,,,,,,,,4,,,45,92
114240,note_on,2,0,2,,,,,,,,,2,,,69,92
114240,note_on,144,0,1,,,,,,,,,1,,,85,108
114400,note_on,160,0,4,,,,,,,,,4,,,45,0
114400,note_on,160,0,2,,,,,,,,,2,,,69,0
114400,note_on,160,0,1,,,,,,,,,1,,,85,0
114400,note_on,160,0,3,,,,,,,,,3,,,57,0
114432,note_on,32,0,4,,,,,,,,,4,,,42,92
114432,note_on,32,0,3,,,,,,,,,3,,,54,92
114432,note_on,32,0,2,,,,,,,,,2,,,66,92
114432,note_on,32,0,1,,,,,,,,,1,,,69,108
114528,note_on,96,0,3,,,,,,,,,3,,,54,0
114528,note_on,0,0,3,,,,,,,,,3,,,52,92
114528,note_on,0,0,4,,,,,,,,,4,,,40,92
114528,note_on,96,0,2,,,,,,,,,2,,,66,0
114528,note_on,96,0,4,,,,,,,,,4,,,42,0
114528,note_on,0,0,2,,,,,,,,,2,,,64,92
114592,note_on,160,0,1,,,,,,,,,1,,,69,0
114624,note_on,0,0,3,,,,,,,,,3,,,54,92
114624,note_on,96,0,3,,,,,,,,,3,,,52,0
114624,note_on,0,0,2,,,,,,,,,2,,,66,92
114624,note_on,96,0,2,,,,,,,,,2,,,64,0
114624,note_on,32,0,1,,,,,,,,,1,,,86,108
114624,note_on,96,0,4,,,,,,,,,4,,,40,0
114624,note_on,0,0,4,,,,,,,,,4,,,42,92
114720,note_on,0,0,2,,,,,,,,,2,,,68,92
114720,note_on,0,0,3,,,,,,,,,3,,,56,92
114720,note_on,96,0,2,,,,,,,,,2,,,66,0
114720,note_on,96,0,3,,,,,,,,,3,,,54,0
114720,note_on,0,0,4,,,,,,,,,4,,,44,92
114720,note_on,96,0,4,,,,,,,,,4,,,42,0
114784,note_on,160,0,1,,,,,,,,,1,,,86,0
114814,note_on,94,0,2,,,,,,,,,2,,,68,0
114814,note_on,94,0,3,,,,,,,,,3,,,56,0
114814,note_on,94,0,4,,,,,,,,,4,,,44,0
114816,note_on,2,0,2,,,,,,,,,2,,,69,92
114816,note_on,2,0,3,,,,,,,,,3,,,57,92
114816,note_on,32,0,1,,,,,,,,,1,,,85,108
114816,note_on,2,0,4,,,,,,,,,4,,,45,92
114976,note_on,160,0,2,,,,,,,,,2,,,69,0
114976,note_on,160,0,4,,,,,,,,,4,,,45,0
114976,note_on,160,0,3,,,,,,,,,3,,,57,0
114976,note_on,160,0,1,,,,,,,,,1,,,85,0
115008,note_on,32,0,3,,,,,,,,,3,,,54,92
115008,note_on,32,0,1,,,,,,,,,1,,,69,108
115008,note_on,32,0,2,,,,,,,,,2,,,66,92
115008,note_on,32,0,4,,,,,,,,,4,,,42,92
115104,note_on,96,0,2,,,,,,,,,2,,,66,0
115104,note_on,0,0,4,,,,,,,,,4,,,40,92
115104,note_on,0,0,2,,,,,,,,,2,,,64,92
115104,note_on,96,0,3,,,,,,,,,3,,,54,0
115104,note_on,0,0,3,,,,,,,,,3,,,52,92
115104,note_on,96,0,4,,,,,,,,,4,,,42,0
115168,note_on,160,0,1,,,,,,,,,1,,,69,0
115200,note_on,96,0,4,,,,,,,,,4,,,40,0
115200,note_on,0,0,4,,,,,,,,,4,,,42,92
115200,note_on,32,0,1,,,,,,,,,1,,,83,108
115200,note_on,0,0,3,,,,,,,,,3,,,54,92
115200,note_on,96,0,3,,,,,,,,,3,,,52,0
115200,note_on,96,0,2,,,,,,,,,2,,,64,0
115200,note_on,0,0,2,,,,,,,,,2,,,66,92
115296,note_on,0,0,3,,,,,,,,,3,,,56,92
115296,note_on,96,0,2,,,,,,,,,2,,,66,0
115296,note_on,0,0,2,,,,,,,,,2,,,68,92
115296,note_on,96,0,3,,,,,,,,,3,,,54,0
115296,note_on,0,0,4,,,,,,,,,4,,,44,92
115296,note_on,96,0,4,,,,,,,,,4,,,42,0
115360,note_on,160,0,1,,,,,,,,,1,,,83,0
115390,note_on,94,0,4,,,,,,,,,4,,,44,0
115390,note_on,94,0,2,,,,,,,,,2,,,68,0
115390,note_on,94,0,3,,,,,,,,,3,,,56,0
115392,note_on,2,0,4,,,,,,,,,4,,,45,92
115392,note_on,32,0,1,,,,,,,,,1,,,81,108
115392,note_on,2,0,2,,,,,,,,,2,,,69,92
115392,note_on,2,0,3,,,,,,,,,3,,,57,92
115552,note_on,160,0,4,,,,,,,,,4,,,45,0
115552,note_on,160,0,1,,,,,,,,,1,,,81,0
115552,note_on,160,0,2,,,,,,,,,2,,,69,0
115552,note_on,160,0,3,,,,,,,,,3,,,57,0
115584,note_on,32,0,2,,,,,,,,,2,,,66,92
115584,note_on,32,0,1,,,,,,,,,1,,,69,108
115584,note_on,32,0,4,,,,,,,,,4,,,42,92
115584,note_on,32,0,3,,,,,,,,,3,,,54,92
115680,note_on,0,0,3,,,,,,,,,3,,,52,92
115680,note_on,96,0,4,,,,,,,,,4,,,42,0
115680,note_on,0,0,4,,,,,,,,,4,,,40,92
115680,note_on,96,0,3,,,,,,,,,3,,,54,0
115680,note_on,96,0,2,,,,,,,,,2,,,66,0
115680,note_on,0,0,2,,,,,,,,,2,,,64,92
115744,note_on,160,0,1,,,,,,,,,1,,,69,0
115776,note_on,0,0,2,,,,,,,,,2,,,66,92
115776,note_on,96,0,3,,,,,,,,,3,,,52,0
115776,note_on,0,0,3,,,,,,,,,3,,,54,92
115776,note_on,96,0,4,,,,,,,,,4,,,40,0
115776,note_on,96,0,2,,,,,,,,,2,,,64,0
115776,note_on,0,0,4,,,,,,,,,4,,,42,92
115776,note_on,32,0,1,,,,,,,,,1,,,85,108
115872,note_on,0,0,4,,,,,,,,,4,,,44,92
115872,note_on,96,0,4,,,,,,,,,4,,,42,0
115872,note_on,0,0,2,,,,,,,,,2,,,68,92
115872,note_on,96,0,3,,,,,,,,,3,,,54,0
115872,note_on,0,0,3,,,,,,,,,3,,,56,92
115872,note_on,96,0,2,,,,,,,,,2,,,66,0
115936,note_on,160,0,1,,,,,,,,,1,,,85,0
115966,note_on,94,0,2,,,,,,,,,2,,,68,0
115966,note_on,94,0,3,,,,,,,,,3,,,56,0
115966,note_on,94,0,4,,,,,,,,,4,,,44,0
115968,note_on,32,0,1,,,,,,,,,1,,,69,108
115968,note_on,2,0,4,,,,,,,,,4,,,45,92
115968,note_on,2,0,3,,,,,,,,,3,,,57,92
116128,note_on,160,0,1,,,,,,,,,1,,,69,0
116128,note_on,160,0,4,,,,,,,,,4,,,45,0
116128,note_on,160,0,3,,,,,,,,,3,,,57,0
116160,note_on,32,0,1,,,,,,,,,1,,,88,108
116160,note_on,32,0,4,,,,,,,,,4,,,42,92
116160,note_on,194,0,2,,,,,,,,,2,,,66,92
116160,note_on,32,0,3,,,,,,,,,3,,,54,92
116256,note_on,96,0,3,,,,,,,,,3,,,54,0
116256,note_on,0,0,3,,,,,,,,,3,,,52,92
116256,note_on,96,0,4,,,,,,,,,4,,,42,0
116256,note_on,0,0,2,,,,,,,,,2,,,64,92
116256,note_on,0,0,4,,,,,,,,,4,,,40,92
116256,note_on,96,0,2,,,,,,,,,2,,,66,0
116320,note_on,160,0,1,,,,,,,,,1,,,88,0
116352,note_on,96,0,4,,,,,,,,,4,,,40,0
116352,note_on,96,0,3,,,,,,,,,3,,,52,0
116352,note_on,0,0,3,,,,,,,,,3,,,54,92
116352,note_on,0,0,4,,,,,,,,,4,,,42,92
116352,note_on,32,0,1,,,,,,,,,1,,,69,108
116352,note_on,96,0,2,,,,,,,,,2,,,64,0
116352,note_on,0,0,2,,,,,,,,,2,,,66,92
116448,note_on,0,0,4,,,,,,,,,4,,,44,92
116448,note_on,0,0,3,,,,,,,,,3,,,56,92
116448,note_on,96,0,3,,,,,,,,,3,,,54,0
116448,note_on,96,0,2,,,,,,,,,2,,,66,0
116448,note_on,96,0,4,,,,,,,,,4,,,42,0
116448,note_on,0,0,2,,,,,,,,,2,,,68,92
116512,note_on,160,0,1,,,,,,,,,1,,,69,0
116542,note_on,94,0,4,,,,,,,,,4,,,44,0
116542,note_on,94,0,3,,,,,,,,,3,,,56,0
116542,note_on,94,0,2,,,,,,,,,2,,,68,0
116544,note_on,2,0,2,,,,,,,,,2,,,69,92
116544,note_on,2,0,4,,,,,,,,,4,,,45,92
116544,note_on,32,0,1,,,,,,,,,1,,,88,108
116544,note_on,2,0,3,,,,,,,,,3,,,57,92
116704,note_on,160,0,1,,,,,,,,,1,,,88,0
116704,note_on,160,0,4,,,,,,,,,4,,,45,0
116704,note_on,160,0,3,,,,,,,,,3,,,57,0
116704,note_on,160,0,2,,,,,,,,,2,,,69,0
116736,note_on,32,0,4,,,,,,,,,4,,,42,92
116736,note_on,32,0,1,,,,,,,,,1,,,69,108
116736,note_on,32,0,3,,,,,,,,,3,,,54,92
116736,note_on,32,0,2,,,,,,,,,2,,,66,92
116832,note_on,96,0,4,,,,,,,,,4,,,42,0
116832,note_on,0,0,4,,,,,,,,,4,,,40,92
116832,note_on,0,0,3,,,,,,,,,3,,,52,92
116832,note_on,96,0,3,,,,,,,,,3,,,54,0
116832,note_on,0,0,2,,,,,,,,,2,,,64,92
116832,note_on,96,0,2,,,,,,,,,2,,,66,0
116896,note_on,160,0,1,,,,,,,,,1,,,69,0
116928,note_on,0,0,2,,,,,,,,,2,,,66,92
116928,note_on,96,0,4,,,,,,,,,4,,,40,0
116928,note_on,96,0,3,,,,,,,,,3,,,52,0
116928,note_on,0,0,4,,,,,,,,,4,,,42,92
116928,note_on,32,0,1,,,,,,,,,1,,,93,108
116928,note_on,96,0,2,,,,,,,,,2,,,64,0
116928,note_on,0,0,3,,,,,,,,,3,,,54,92
117024,note_on,96,0,4,,,,,,,,,4,,,42,0
117024,note_on,0,0,4,,,,,,,,,4,,,44,92
117024,note_on,0,0,3,,,,,,,,,3,,,56,92
117024,note_on,0,0,2,,,,,,,,,2,,,68,92
117024,note_on,96,0,2,,,,,,,,,2,,,66,0
117024,note_on,96,0,3,,,,,,,,,3,,,54,0
117088,note_on,160,0,1,,,,,,,,,1,,,93,0
117118,note_on,94,0,2,,,,,,,,,2,,,68,0
117118,note_on,94,0,3,,,,,,,,,3,,,56,0
117118,note_on,94,0,4,,,,,,,,,4,,,44,0
117120,note_on,2,0,2,,,,,,,,,2,,,69,92
117120,note_on,2,0,4,,,,,,,,,4,,,45,92
117120,note_on,2,0,3,,,,,,,,,3,,,57,92
117120,note_on,32,0,1,,,,,,,,,1,,,88,127
117280,note_on,160,0,3,,,,,,,,,3,,,57,0
117280,note_on,160,0,2,,,,,,,,,2,,,69,0
117280,note_on,160,0,4,,,,,,,,,4,,,45,0
117312,note_on,32,0,3,,,,,,,,,3,,,54,92
117312,note_on,32,0,2,,,,,,,,,2,,,66,92
117312,note_on,32,0,4,,,,,,,,,4,,,42,92
117408,note_on,96,0,4,,,,,,,,,4,,,42,0
117408,note_on,96,0,3,,,,,,,,,3,,,54,0
117408,note_on,0,0,3,,,,,,,,,3,,,52,92
117408,note_on,0,0,2,,,,,,,,,2,,,64,92
117408,note_on,96,0,2,,,,,,,,,2,,,66,0
117408,note_on,0,0,4,,,,,,,,,4,,,40,92
117504,note_on,0,0,2,,,,,,,,,2,,,66,92
117504,note_on,0,0,4,,,,,,,,,4,,,42,92
117504,note_on,96,0,3,,,,,,,,,3,,,52,0
117504,note_on,0,0,3,,,,,,,,,3,,,54,92
117504,note_on,96,0,4,,,,,,,,,4,,,40,0
117504,note_on,96,0,2,,,,,,,,,2,,,64,0
117600,note_on,0,0,3,,,,,,,,,3,,,56,92
117600,note_on,96,0,3,,,,,,,,,3,,,54,0
117600,note_on,96,0,2,,,,,,,,,2,,,66,0
117600,note_on,0,0,4,,,,,,,,,4,,,44,92
117600,note_on,96,0,4,,,,,,,,,4,,,42,0
117600,note_on,0,0,2,,,,,,,,,2,,,68,92
117694,note_on,94,0,2,,,,,,,,,2,,,68,0
117694,note_on,94,0,4,,,,,,,,,4,,,44,0
117694,note_on,94,0,3,,,,,,,,,3,,,56,0
117696,note_on,2,0,3,,,,,,,,,3,,,57,92
117696,note_on,2,0,4,,,,,,,,,4,,,45,92
117696,note_on,2,0,2,,,,,,,,,2,,,69,92
117856,note_on,160,0,4,,,,,,,,,4,,,45,0
117856,note_on,160,0,2,,,,,,,,,2,,,69,0
117856,note_on,736,0,1,,,,,,,,,1,,,88,0
117856,note_on,160,0,3,,,,,,,,,3,,,57,0
117888,note_on,32,0,4,,,,,,,,,4,,,42,92
117888,note_on,32,0,3,,,,,,,,,3,,,54,92
117888,note_on,32,0,1,,,,,,,,,1,,,69,108
117888,note_on,32,0,2,,,,,,,,,2,,,66,92
117936,note_on,48,0,1,,,,,,,,,1,,,69,0
117984,note_on,0,0,3,,,,,,,,,3,,,52,92
117984,note_on,0,0,2,,,,,,,,,2,,,64,92
117984,note_on,96,0,2,,,,,,,,,2,,,66,0
117984,note_on,0,0,4,,,,,,,,,4,,,40,92
117984,note_on,96,0,4,,,,,,,,,4,,,42,0
117984,note_on,96,0,3,,,,,,,,,3,,,54,0
118080,note_on,96,0,2,,,,,,,,,2,,,64,0
118080,note_on,96,0,4,,,,,,,,,4,,,40,0
118080,note_on,0,0,2,,,,,,,,,2,,,66,92
118080,note_on,96,0,3,,,,,,,,,3,,,52,0
118080,note_on,0,0,3,,,,,,,,,3,,,54,92
118080,note_on,0,0,4,,,,,,,,,4,,,42,92
118080,note_on,144,0,1,,,,,,,,,1,,,86,108
118128,note_on,48,0,1,,,,,,,,,1,,,86,0
118176,note_on,0,0,2,,,,,,,,,2,,,68,92
118176,note_on,0,0,4,,,,,,,,,4,,,44,92
118176,note_on,0,0,3,,,,,,,,,3,,,56,92
118176,note_on,96,0,3,,,,,,,,,3,,,54,0
118176,note_on,96,0,4,,,,,,,,,4,,,42,0
118176,note_on,96,0,2,,,,,,,,,2,,,66,0
118270,note_on,94,0,3,,,,,,,,,3,,,56,0
118270,note_on,94,0,2,,,,,,,,,2,,,68,0
118270,note_on,94,0,4,,,,,,,,,4,,,44,0
118272,note_on,2,0,4,,,,,,,,,4,,,45,92
118272,note_on,144,0,1,,,,,,,,,1,,,85,108
118272,note_on,2,0,3,,,,,,,,,3,,,57,92
118272,note_on,2,0,2,,,,,,,,,2,,,69,92
118320,note_on,48,0,1,,,,,,,,,1,,,85,0
118432,note_on,160,0,2,,,,,,,,,2,,,69,0
118432,note_on,160,0,3,,,,,,,,,3,,,57,0
118432,note_on,160,0,4,,,,,,,,,4,,,45,0
118464,note_on,32,0,4,,,,,,,,,4,,,42,92
118464,note_on,32,0,3,,,,,,,,,3,,,54,92
118464,note_on,32,0,2,,,,,,,,,2,,,66,92
118464,note_on,144,0,1,,,,,,,,,1,,,69,108
118512,note_on,48,0,1,,,,,,,,,1,,,69,0
118560,note_on,96,0,2,,,,,,,,,2,,,66,0
118560,note_on,0,0,2,,,,,,,,,2,,,64,92
118560,note_on,96,0,3,,,,,,,,,3,,,54,0
118560,note_on,0,0,3,,,,,,,,,3,,,52,92
118560,note_on,96,0,4,,,,,,,,,4,,,42,0
118560,note_on,0,0,4,,,,,,,,,4,,,40,92
118656,note_on,96,0,2,,,,,,,,,2,,,64,0
118656,note_on,0,0,2,,,,,,,,,2,,,66,92
118656,note_on,0,0,3,,,,,,,,,3,,,54,92
118656,note_on,96,0,3,,,,,,,,,3,,,52,0
118656,note_on,0,0,4,,,,,,,,,4,,,42,92
118656,note_on,96,0,4,,,,,,,,,4,,,40,0
118656,note_on,144,0,1,,,,,,,,,1,,,86,108
118704,note_on,48,0,1,,,,,,,,,1,,,86,0
118752,note_on,0,0,4,,,,,,,,,4,,,44,92
118752,note_on,96,0,4,,,,,,,,,4,,,42,0
118752,note_on,0,0,2,,,,,,,,,2,,,68,92
118752,note_on,96,0,2,,,,,,,,,2,,,66,0
118752,note_on,96,0,3,,,,,,,,,3,,,54,0
118752,note_on,0,0,3,,,,,,,,,3,,,56,92
118846,note_on,94,0,4,,,,,,,,,4,,,44,0
118846,note_on,94,0,2,,,,,,,,,2,,,68,0
118846,note_on,94,0,3,,,,,,,,,3,,,56,0
118848,note_on,2,0,4,,,,,,,,,4,,,45,92
118848,note_on,2,0,2,,,,,,,,,2,,,69,92
118848,note_on,144,0,1,,,,,,,,,1,,,85,108
118848,note_on,2,0,3,,,,,,,,,3,,,57,92
119008,note_on,160,0,3,,,,,,,,,3,,,57,0
119008,note_on,160,0,2,,,,,,,,,2,,,69,0
119008,note_on,160,0,1,,,,,,,,,1,,,85,0
119008,note_on,160,0,4,,,,,,,,,4,,,45,0
119040,note_on,32,0,2,,,,,,,,,2,,,66,92
119040,note_on,32,0,1,,,,,,,,,1,,,69,108
119040,note_on,32,0,4,,,,,,,,,4,,,42,92
119040,note_on,32,0,3,,,,,,,,,3,,,54,92
119136,note_on,0,0,3,,,,,,,,,3,,,52,92
119136,note_on,96,0,3,,,,,,,,,3,,,54,0
119136,note_on,0,0,4,,,,,,,,,4,,,40,92
119136,note_on,96,0,4,,,,,,,,,4,,,42,0
119136,note_on,96,0,2,,,,,,,,,2,,,66,0
119136,note_on,0,0,2,,,,,,,,,2,,,64,92
119200,note_on,160,0,1,,,,,,,,,1,,,69,0
119232,note_on,0,0,3,,,,,,,,,3,,,54,92
119232,note_on,0,0,2,,,,,,,,,2,,,66,92
119232,note_on,96,0,3,,,,,,,,,3,,,52,0
119232,note_on,96,0,4,,,,,,,,,4,,,40,0
119232,note_on,32,0,1,,,,,,,,,1,,,86,108
119232,note_on,96,0,2,,,,,,,,,2,,,64,0
119232,note_on,0,0,4,,,,,,,,,4,,,42,92
119328,note_on,96,0,2,,,,,,,,,2,,,66,0
119328,note_on,0,0,2,,,,,,,,,2,,,68,92
119328,note_on,0,0,4,,,,,,,,,4,,,44,92
119328,note_on,96,0,4,,,,,,,,,4,,,42,0
119328,note_on,0,0,3,,,,,,,,,3,,,56,92
119328,note_on,96,0,3,,,,,,,,,3,,,54,0
119392,note_on,160,0,1,,,,,,,,,1,,,86,0
119422,note_on,94,0,2,,,,,,,,,2,,,68,0
119422,note_on,94,0,4,,,,,,,,,4,,,44,0
119422,note_on,94,0,3,,,,,,,,,3,,,56,0
119424,note_on,2,0,2,,,,,,,,,2,,,69,92
119424,note_on,2,0,3,,,,,,,,,3,,,57,92
119424,note_on,2,0,4,,,,,,,,,4,,,45,92
119424,note_on,32,0,1,,,,,,,,,1,,,85,108
119584,note_on,160,0,2,,,,,,,,,2,,,69,0
119584,note_on,160,0,3,,,,,,,,,3,,,57,0
119584,note_on,160,0,4,,,,,,,,,4,,,45,0
119584,note_on,160,0,1,,,,,,,,,1,,,85,0
119616,note_on,32,0,4,,,,,,,,,4,,,42,92
119616,note_on,32,0,2,,,,,,,,,2,,,66,92
119616,note_on,32,0,3,,,,,,,,,3,,,54,92
119616,note_on,32,0,1,,,,,,,,,1,,,69,108
119712,note_on,96,0,2,,,,,,,,,2,,,66,0
119712,note_on,96,0,4,,,,,,,,,4,,,42,0
119712,note_on,0,0,3,,,,,,,,,3,,,52,92
119712,note_on,96,0,3,,,,,,,,,3,,,54,0
119712,note_on,0,0,2,,,,,,,,,2,,,64,92
119712,note_on,0,0,4,,,,,,,,,4,,,40,92
119776,note_on,160,0,1,,,,,,,,,1,,,69,0
119808,note_on,96,0,3,,,,,,,,,3,,,52,0
119808,note_on,0,0,3,,,,,,,,,3,,,54,92
119808,note_on,0,0,2,,,,,,,,,2,,,66,92
119808,note_on,32,0,1,,,,,,,,,1,,,86,108
119808,note_on,0,0,4,,,,,,,,,4,,,42,92
119808,note_on,96,0,2,,,,,,,,,2,,,64,0
119808,note_on,96,0,4,,,,,,,,,4,,,40,0
119904,note_on,0,0,3,,,,,,,,,3,,,56,92
119904,note_on,0,0,4,,,,,,,,,4,,,44,92
119904,note_on,96,0,3,,,,,,,,,3,,,54,0
119904,note_on,96,0,4,,,,,,,,,4,,,42,0
119904,note_on,96,0,2,,,,,,,,,2,,,66,0
119904,note_on,0,0,2,,,,,,,,,2,,,68,92
119968,note_on,160,0,1,,,,,,,,,1,,,86,0
119998,note_on,94,0,3,,,,,,,,,3,,,56,0
119998,note_on,94,0,2,,,,,,,,,2,,,68,0
119998,note_on,94,0,4,,,,,,,,,4,,,44,0
120000,note_on,2,0,4,,,,,,,,,4,,,45,92
120000,note_on,32,0,1,,,,,,,,,1,,,86,108
120000,note_on,2,0,2,,,,,,,,,2,,,69,92
120000,note_on,2,0,3,,,,,,,,,3,,,57,92
120160,note_on,160,0,4,,,,,,,,,4,,,45,0
120160,note_on,160,0,1,,,,,,,,,1,,,86,0
120160,note_on,160,0,2,,,,,,,,,2,,,69,0
120160,note_on,160,0,3,,,,,,,,,3,,,57,0
120192,note_on,32,0,3,,,,,,,,,3,,,54,92
120192,note_on,32,0,1,,,,,,,,,1,,,71,108
120192,note_on,32,0,4,,,,,,,,,4,,,42,92
120192,note_on,32,0,2,,,,,,,,,2,,,66,92
120288,note_on,0,0,2,,,,,,,,,2,,,64,92
120288,note_on,0,0,4,,,,,,,,,4,,,40,92
120288,note_on,0,0,3,,,,,,,,,3,,,52,92
120288,note_on,96,0,3,,,,,,,,,3,,,54,0
120288,note_on,96,0,2,,,,,,,,,2,,,66,0
120288,note_on,96,0,4,,,,,,,,,4,,,42,0
120384,note_on,96,0,3,,,,,,,,,3,,,52,0
120384,note_on,0,0,1,,,,,,,,,1,,,85,108
120384,note_on,192,0,1,,,,,,,,,1,,,71,0
120384,note_on,96,0,2,,,,,,,,,2,,,64,0
120384,note_on,0,0,2,,,,,,,,,2,,,66,92
120384,note_on,0,0,3,,,,,,,,,3,,,54,92
120384,note_on,0,0,4,,,,,,,,,4,,,42,92
120384,note_on,96,0,4,,,,,,,,,4,,,40,0
120480,note_on,96,0,2,,,,,,,,,2,,,66,0
120480,note_on,96,0,4,,,,,,,,,4,,,42,0
120480,note_on,0,0,4,,,,,,,,,4,,,44,92
120480,note_on,0,0,3,,,,,,,,,3,,,56,92
120480,note_on,0,0,2,,,,,,,,,2,,,68,92
120480,note_on,96,0,3,,,,,,,,,3,,,54,0
120544,note_on,160,0,1,,,,,,,,,1,,,85,0
120574,note_on,94,0,2,,,,,,,,,2,,,68,0
120574,note_on,94,0,3,,,,,,,,,3,,,56,0
120574,note_on,94,0,4,,,,,,,,,4,,,44,0
120576,note_on,2,0,4,,,,,,,,,4,,,45,92
120576,note_on,2,0,3,,,,,,,,,3,,,57,92
120576,note_on,32,0,1,,,,,,,,,1,,,85,108
120576,note_on,2,0,2,,,,,,,,,2,,,69,92
120600,note_on,0,0,1,,,,,,,,,1,,,86,108
120600,note_on,24,0,1,,,,,,,,,1,,,85,0
120656,note_on,56,0,1,,,,,,,,,1,,,86,0
120736,note_on,160,0,4,,,,,,,,,4,,,45,0
120736,note_on,160,0,3,,,,,,,,,3,,,57,0
120736,note_on,160,0,2,,,,,,,,,2,,,69,0
120768,note_on,112,0,1,,,,,,,,,1,,,71,108
120768,note_on,32,0,3,,,,,,,,,3,,,54,92
120768,note_on,32,0,4,,,,,,,,,4,,,42,92
120768,note_on,32,0,2,,,,,,,,,2,,,66,92
120816,note_on,48,0,1,,,,,,,,,1,,,71,0
120864,note_on,96,0,3,,,,,,,,,3,,,54,0
120864,note_on,0,0,2,,,,,,,,,2,,,64,92
120864,note_on,0,0,3,,,,,,,,,3,,,52,92
120864,note_on,96,0,4,,,,,,,,,4,,,42,0
120864,note_on,0,0,4,,,,,,,,,4,,,40,92
120864,note_on,96,0,2,,,,,,,,,2,,,66,0
120960,note_on,0,0,3,,,,,,,,,3,,,54,92
120960,note_on,144,0,1,,,,,,,,,1,,,88,108
120960,note_on,96,0,2,,,,,,,,,2,,,64,0
120960,note_on,0,0,2,,,,,,,,,2,,,66,92
120960,note_on,96,0,4,,,,,,,,,4,,,40,0
120960,note_on,0,0,4,,,,,,,,,4,,,42,92
120960,note_on,96,0,3,,,,,,,,,3,,,52,0
121008,note_on,48,0,1,,,,,,,,,1,,,88,0
121056,note_on,0,0,3,,,,,,,,,3,,,56,92
121056,note_on,0,0,4,,,,,,,,,4,,,44,92
121056,note_on,96,0,4,,,,,,,,,4,,,42,0
121056,note_on,96,0,3,,,,,,,,,3,,,54,0
121056,note_on,0,0,2,,,,,,,,,2,,,68,92
121056,note_on,96,0,2,,,,,,,,,2,,,66,0
121150,note_on,94,0,2,,,,,,,,,2,,,68,0
121150,note_on,94,0,4,,,,,,,,,4,,,44,0
121150,note_on,94,0,3,,,,,,,,,3,,,56,0
121152,note_on,2,0,3,,,,,,,,,3,,,57,92
121152,note_on,2,0,4,,,,,,,,,4,,,45,92
121152,note_on,144,0,1,,,,,,,,,1,,,85,108
121152,note_on,2,0,2,,,,,,,,,2,,,69,92
121312,note_on,160,0,1,,,,,,,,,1,,,85,0
121312,note_on,160,0,2,,,,,,,,,2,,,69,0
121312,note_on,160,0,3,,,,,,,,,3,,,57,0
121312,note_on,160,0,4,,,,,,,,,4,,,45,0
121344,note_on,32,0,1,,,,,,,,,1,,,69,108
121344,note_on,32,0,4,,,,,,,,,4,,,42,92
121344,note_on,32,0,3,,,,,,,,,3,,,54,92
121344,note_on,32,0,2,,,,,,,,,2,,,66,92
121440,note_on,0,0,2,,,,,,,,,2,,,64,92
121440,note_on,96,0,2,,,,,,,,,2,,,66,0
121440,note_on,96,0,4,,,,,,,,,4,,,42,0
121440,note_on,96,0,3,,,,,,,,,3,,,54,0
121440,note_on,0,0,4,,,,,,,,,4,,,40,92
121440,note_on,0,0,3,,,,,,,,,3,,,52,92
121504,note_on,160,0,1,,,,,,,,,1,,,69,0
121536,note_on,96,0,4,,,,,,,,,4,,,40,0
121536,note_on,0,0,3,,,,,,,,,3,,,54,92
121536,note_on,96,0,3,,,,,,,,,3,,,52,0
121536,note_on,96,0,2,,,,,,,,,2,,,64,0
121536,note_on,0,0,2,,,,,,,,,2,,,66,92
121536,note_on,32,0,1,,,,,,,,,1,,,86,108
121536,note_on,0,0,4,,,,,,,,,4,,,42,92
121632,note_on,96,0,3,,,,,,,,,3,,,54,0
121632,note_on,96,0,2,,,,,,,,,2,,,66,0
121632,note_on,0,0,3,,,,,,,,,3,,,56,92
121632,note_on,0,0,4,,,,,,,,,4,,,44,92
121632,note_on,0,0,2,,,,,,,,,2,,,68,92
121632,note_on,96,0,4,,,,,,,,,4,,,42,0
121696,note_on,160,0,1,,,,,,,,,1,,,86,0
121726,note_on,94,0,2,,,,,,,,,2,,,68,0
121726,note_on,94,0,4,,,,,,,,,4,,,44,0
121726,note_on,94,0,3,,,,,,,,,3,,,56,0
121728,note_on,2,0,4,,,,,,,,,4,,,45,92
121728,note_on,32,0,1,,,,,,,,,1,,,85,108
121728,note_on,2,0,2,,,,,,,,,2,,,69,92
121728,note_on,2,0,3,,,,,,,,,3,,,57,92
121888,note_on,160,0,4,,,,,,,,,4,,,45,0
121888,note_on,160,0,1,,,,,,,,,1,,,85,0
121888,note_on,160,0,2,,,,,,,,,2,,,69,0
121888,note_on,160,0,3,,,,,,,,,3,,,57,0
121920,note_on,32,0,1,,,,,,,,,1,,,88,108
121920,note_on,32,0,4,,,,,,,,,4,,,42,92
121920,note_on,32,0,2,,,,,,,,,2,,,66,92
121920,note_on,32,0,3,,,,,,,,,3,,,54,92
122016,note_on,0,0,2,,,,,,,,,2,,,64,92
122016,note_on,0,0,4,,,,,,,,,4,,,40,92
122016,note_on,96,0,2,,,,,,,,,2,,,66,0
122016,note_on,96,0,3,,,,,,,,,3,,,54,0
122016,note_on,0,0,3,,,,,,,,,3,,,52,92
122016,note_on,96,0,4,,,,,,,,,4,,,42,0
122080,note_on,160,0,1,,,,,,,,,1,,,88,0
122112,note_on,96,0,4,,,,,,,,,4,,,40,0
122112,note_on,96,0,3,,,,,,,,,3,,,52,0
122112,note_on,0,0,3,,,,,,,,,3,,,54,92
122112,note_on,32,0,1,,,,,,,,,1,,,93,108
122112,note_on,96,0,2,,,,,,,,,2,,,64,0
122112,note_on,0,0,2,,,,,,,,,2,,,66,92
122112,note_on,0,0,4,,,,,,,,,4,,,42,92
122208,note_on,0,0,4,,,,,,,,,4,,,44,92
122208,note_on,96,0,4,,,,,,,,,4,,,42,0
122208,note_on,0,0,3,,,,,,,,,3,,,56,92
122208,note_on,0,0,2,,,,,,,,,2,,,68,92
122208,note_on,96,0,2,,,,,,,,,2,,,66,0
122208,note_on,96,0,3,,,,,,,,,3,,,54,0
122272,note_on,160,0,1,,,,,,,,,1,,,93,0
122302,note_on,94,0,2,,,,,,,,,2,,,68,0
122302,note_on,94,0,4,,,,,,,,,4,,,44,0
122302,note_on,94,0,3,,,,,,,,,3,,,56,0
122304,note_on,2,0,2,,,,,,,,,2,,,69,92
122304,note_on,2,0,4,,,,,,,,,4,,,45,92
122304,note_on,2,0,3,,,,,,,,,3,,,57,92
122304,note_on,32,0,1,,,,,,,,,1,,,86,108
122464,note_on,160,0,4,,,,,,,,,4,,,45,0
122464,note_on,160,0,2,,,,,,,,,2,,,69,0
122464,note_on,160,0,1,,,,,,,,,1,,,86,0
122464,note_on,160,0,3,,,,,,,,,3,,,57,0
122496,note_on,32,0,4,,,,,,,,,4,,,42,92
122496,note_on,32,0,1,,,,,,,,,1,,,71,108
122496,note_on,32,0,2,,,,,,,,,2,,,66,92
122496,note_on,32,0,3,,,,,,,,,3,,,54,92
122592,note_on,0,0,3,,,,,,,,,3,,,52,92
122592,note_on,96,0,3,,,,,,,,,3,,,54,0
122592,note_on,0,0,2,,,,,,,,,2,,,64,92
122592,note_on,96,0,2,,,,,,,,,2,,,66,0
122592,note_on,0,0,4,,,,,,,,,4,,,40,92
122592,note_on,96,0,4,,,,,,,,,4,,,42,0
122688,note_on,96,0,3,,,,,,,,,3,,,52,0
122688,note_on,0,0,1,,,,,,,,,1,,,85,108
122688,note_on,96,0,4,,,,,,,,,4,,,40,0
122688,note_on,0,0,4,,,,,,,,,4,,,42,92
122688,note_on,96,0,2,,,,,,,,,2,,,64,0
122688,note_on,0,0,2,,,,,,,,,2,,,66,92
122688,note_on,192,0,1,,,,,,,,,1,,,71,0
122688,note_on,0,0,3,,,,,,,,,3,,,54,92
122784,note_on,96,0,4,,,,,,,,,4,,,42,0
122784,note_on,96,0,3,,,,,,,,,3,,,54,0
122784,note_on,0,0,4,,,,,,,,,4,,,44,92
122784,note_on,96,0,2,,,,,,,,,2,,,66,0
122784,note_on,0,0,2,,,,,,,,,2,,,68,92
122784,note_on,0,0,3,,,,,,,,,3,,,56,92
122848,note_on,160,0,1,,,,,,,,,1,,,85,0
122878,note_on,94,0,3,,,,,,,,,3,,,56,0
122878,note_on,94,0,4,,,,,,,,,4,,,44,0
122878,note_on,94,0,2,,,,,,,,,2,,,68,0
122880,note_on,32,0,1,,,,,,,,,1,,,85,108
122880,note_on,2,0,4,,,,,,,,,4,,,45,92
122880,note_on,2,0,2,,,,,,,,,2,,,69,92
122880,note_on,2,0,3,,,,,,,,,3,,,57,92
122904,note_on,0,0,1,,,,,,,,,1,,,86,108
122904,note_on,24,0,1,,,,,,,,,1,,,85,0
122960,note_on,56,0,1,,,,,,,,,1,,,86,0
123040,note_on,160,0,4,,,,,,,,,4,,,45,0
123040,note_on,160,0,2,,,,,,,,,2,,,69,0
123040,note_on,160,0,3,,,,,,,,,3,,,57,0
123072,note_on,112,0,1,,,,,,,,,1,,,71,108
123072,note_on,32,0,4,,,,,,,,,4,,,42,92
123072,note_on,32,0,3,,,,,,,,,3,,,54,92
123072,note_on,32,0,2,,,,,,,,,2,,,66,92
123120,note_on,48,0,1,,,,,,,,,1,,,71,0
123168,note_on,96,0,2,,,,,,,,,2,,,66,0
123168,note_on,0,0,3,,,,,,,,,3,,,52,92
123168,note_on,96,0,4,,,,,,,,,4,,,42,0
123168,note_on,0,0,4,,,,,,,,,4,,,40,92
123168,note_on,0,0,2,,,,,,,,,2,,,64,92
123168,note_on,96,0,3,,,,,,,,,3,,,54,0
123264,note_on,96,0,3,,,,,,,,,3,,,52,0
123264,note_on,0,0,3,,,,,,,,,3,,,54,92
123264,note_on,0,0,2,,,,,,,,,2,,,66,92
123264,note_on,144,0,1,,,,,,,,,1,,,88,108
123264,note_on,0,0,4,,,,,,,,,4,,,42,92
123264,note_on,96,0,4,,,,,,,,,4,,,40,0
123264,note_on,96,0,2,,,,,,,,,2,,,64,0
123312,note_on,48,0,1,,,,,,,,,1,,,88,0
123360,note_on,96,0,2,,,,,,,,,2,,,66,0
123360,note_on,0,0,2,,,,,,,,,2,,,68,92
123360,note_on,0,0,3,,,,,,,,,3,,,56,92
123360,note_on,0,0,4,,,,,,,,,4,,,44,92
123360,note_on,96,0,3,,,,,,,,,3,,,54,0
123360,note_on,96,0,4,,,,,,,,,4,,,42,0
123454,note_on,94,0,4,,,,,,,,,4,,,44,0
123454,note_on,94,0,3,,,,,,,,,3,,,56,0
123454,note_on,94,0,2,,,,,,,,,2,,,68,0
123456,note_on,144,0,1,,,,,,,,,1,,,85,108
123456,note_on,2,0,2,,,,,,,,,2,,,69,92
123456,note_on,2,0,3,,,,,,,,,3,,,57,92
123456,note_on,2,0,4,,,,,,,,,4,,,45,92
123616,note_on,160,0,4,,,,,,,,,4,,,45,0
123616,note_on,160,0,1,,,,,,,,,1,,,85,0
123616,note_on,160,0,2,,,,,,,,,2,,,69,0
123616,note_on,160,0,3,,,,,,,,,3,,,57,0
123648,note_on,32,0,1,,,,,,,,,1,,,69,108
123648,note_on,32,0,4,,,,,,,,,4,,,42,92
123648,note_on,32,0,3,,,,,,,,,3,,,54,92
123648,note_on,32,0,2,,,,,,,,,2,,,66,92
123744,note_on,0,0,2,,,,,,,,,2,,,64,92
123744,note_on,96,0,3,,,,,,,,,3,,,54,0
123744,note_on,96,0,2,,,,,,,,,2,,,66,0
123744,note_on,0,0,4,,,,,,,,,4,,,40,92
123744,note_on,96,0,4,,,,,,,,,4,,,42,0
123744,note_on,0,0,3,,,,,,,,,3,,,52,92
123808,note_on,160,0,1,,,,,,,,,1,,,69,0
123840,note_on,32,0,1,,,,,,,,,1,,,88,108
123840,note_on,0,0,3,,,,,,,,,3,,,54,92
123840,note_on,96,0,2,,,,,,,,,2,,,64,0
123840,note_on,0,0,2,,,,,,,,,2,,,66,92
123840,note_on,0,0,4,,,,,,,,,4,,,42,92
123840,note_on,96,0,4,,,,,,,,,4,,,40,0
123840,note_on,96,0,3,,,,,,,,,3,,,52,0
123936,note_on,96,0,2,,,,,,,,,2,,,66,0
123936,note_on,0,0,2,,,,,,,,,2,,,68,92
123936,note_on,96,0,4,,,,,,,,,4,,,42,0
123936,note_on,0,0,3,,,,,,,,,3,,,56,92
123936,note_on,96,0,3,,,,,,,,,3,,,54,0
123936,note_on,0,0,4,,,,,,,,,4,,,44,92
124000,note_on,160,0,1,,,,,,,,,1,,,88,0
124030,note_on,94,0,3,,,,,,,,,3,,,56,0
124030,note_on,94,0,4,,,,,,,,,4,,,44,0
124030,note_on,94,0,2,,,,,,,,,2,,,68,0
124032,note_on,32,0,1,,,,,,,,,1,,,88,108
124032,note_on,2,0,4,,,,,,,,,4,,,45,92
124032,note_on,2,0,3,,,,,,,,,3,,,57,92
124032,note_on,2,0,2,,,,,,,,,2,,,69,92
124056,note_on,0,0,1,,,,,,,,,1,,,93,108
124056,note_on,24,0,1,,,,,,,,,1,,,88,0
124192,note_on,160,0,3,,,,,,,,,3,,,57,0
124192,note_on,160,0,2,,,,,,,,,2,,,69,0
124192,note_on,160,0,4,,,,,,,,,4,,,45,0
124224,note_on,32,0,2,,,,,,,,,2,,,66,92
124224,note_on,0,0,1,,,,,,,,,1,,,69,108
124224,note_on,168,0,1,,,,,,,,,1,,,93,0
124224,note_on,32,0,3,,,,,,,,,3,,,54,92
124224,note_on,32,0,4,,,,,,,,,4,,,42,92
124320,note_on,0,0,4,,,,,,,,,4,,,40,92
124320,note_on,96,0,4,,,,,,,,,4,,,42,0
124320,note_on,96,0,2,,,,,,,,,2,,,66,0
124320,note_on,96,0,3,,,,,,,,,3,,,54,0
124320,note_on,0,0,3,,,,,,,,,3,,,52,92
124320,note_on,0,0,2,,,,,,,,,2,,,64,92
124416,note_on,96,0,4,,,,,,,,,4,,,40,0
124416,note_on,96,0,2,,,,,,,,,2,,,64,0
124416,note_on,0,0,4,,,,,,,,,4,,,42,92
124416,note_on,0,0,3,,,,,,,,,3,,,54,92
124416,note_on,96,0,3,,,,,,,,,3,,,52,0
124416,note_on,0,0,2,,,,,,,,,2,,,66,92
124512,note_on,96,0,3,,,,,,,,,3,,,54,0
124512,note_on,0,0,1,,,,,,,,,1,,,88,108
124512,note_on,0,0,4,,,,,,,,,4,,,44,92
124512,note_on,288,0,1,,,,,,,,,1,,,69,0
124512,note_on,96,0,4,,,,,,,,,4,,,42,0
124512,note_on,0,0,3,,,,,,,,,3,,,56,92
124512,note_on,96,0,2,,,,,,,,,2,,,66,0
124512,note_on,0,0,2,,,,,,,,,2,,,68,92
124606,note_on,94,0,1,,,,,,,,,1,,,88,0
124606,note_on,94,0,4,,,,,,,,,4,,,44,0
124606,note_on,94,0,3,,,,,,,,,3,,,56,0
124606,note_on,94,0,2,,,,,,,,,2,,,68,0
124608,note_on,2,0,2,,,,,,,,,2,,,69,92
124608,note_on,2,0,1,,,,,,,,,1,,,86,108
124608,note_on,2,0,4,,,,,,,,,4,,,45,92
124608,note_on,2,0,3,,,,,,,,,3,,,57,92
124656,note_on,48,0,1,,,,,,,,,1,,,86,0
124768,note_on,160,0,2,,,,,,,,,2,,,69,0
124768,note_on,160,0,4,,,,,,,,,4,,,45,0
124768,note_on,160,0,3,,,,,,,,,3,,,57,0
124800,note_on,32,0,2,,,,,,,,,2,,,66,92
124800,note_on,144,0,1,,,,,,,,,1,,,71,108
124800,note_on,32,0,3,,,,,,,,,3,,,54,92
124800,note_on,32,0,4,,,,,,,,,4,,,42,92
124896,note_on,96,0,4,,,,,,,,,4,,,42,0
124896,note_on,0,0,4,,,,,,,,,4,,,40,92
124896,note_on,96,0,3,,,,,,,,,3,,,54,0
124896,note_on,0,0,2,,,,,,,,,2,,,64,92
124896,note_on,96,0,2,,,,,,,,,2,,,66,0
124896,note_on,0,0,3,,,,,,,,,3,,,52,92
124992,note_on,96,0,4,,,,,,,,,4,,,40,0
124992,note_on,0,0,4,,,,,,,,,4,,,42,92
124992,note_on,96,0,2,,,,,,,,,2,,,64,0
124992,note_on,96,0,3,,,,,,,,,3,,,52,0
124992,note_on,0,0,3,,,,,,,,,3,,,54,92
124992,note_on,0,0,2,,,,,,,,,2,,,66,92
124992,note_on,0,0,1,,,,,,,,,1,,,85,108
124992,note_on,192,0,1,,,,,,,,,1,,,71,0
125088,note_on,96,0,2,,,,,,,,,2,,,66,0
125088,note_on,0,0,4,,,,,,,,,4,,,44,92
125088,note_on,96,0,4,,,,,,,,,4,,,42,0
125088,note_on,0,0,3,,,,,,,,,3,,,56,92
125088,note_on,96,0,3,,,,,,,,,3,,,54,0
125088,note_on,0,0,2,,,,,,,,,2,,,68,92
125152,note_on,160,0,1,,,,,,,,,1,,,85,0
125182,note_on,94,0,4,,,,,,,,,4,,,44,0
125182,note_on,94,0,2,,,,,,,,,2,,,68,0
125182,note_on,94,0,3,,,,,,,,,3,,,56,0
125184,note_on,32,0,1,,,,,,,,,1,,,85,108
125184,note_on,2,0,4,,,,,,,,,4,,,45,92
125184,note_on,2,0,2,,,,,,,,,2,,,69,92
125184,note_on,2,0,3,,,,,,,,,3,,,57,92
125208,note_on,0,0,1,,,,,,,,,1,,,86,108
125208,note_on,24,0,1,,,,,,,,,1,,,85,0
125264,note_on,56,0,1,,,,,,,,,1,,,86,0
125344,note_on,160,0,4,,,,,,,,,4,,,45,0
125344,note_on,160,0,2,,,,,,,,,2,,,69,0
125344,note_on,160,0,3,,,,,,,,,3,,,57,0
125376,note_on,32,0,4,,,,,,,,,4,,,42,92
125376,note_on,32,0,2,,,,,,,,,2,,,66,92
125376,note_on,32,0,3,,,,,,,,,3,,,54,92
125376,note_on,112,0,1,,,,,,,,,1,,,71,108
125424,note_on,48,0,1,,,,,,,,,1,,,71,0
125472,note_on,0,0,2,,,,,,,,,2,,,64,92
125472,note_on,96,0,2,,,,,,,,,2,,,66,0
125472,note_on,96,0,4,,,,,,,,,4,,,42,0
125472,note_on,0,0,3,,,,,,,,,3,,,52,92
125472,note_on,96,0,3,,,,,,,,,3,,,54,0
125472,note_on,0,0,4,,,,,,,,,4,,,40,92
125568,note_on,0,0,3,,,,,,,,,3,,,54,92
125568,note_on,0,0,2,,,,,,,,,2,,,66,92
125568,note_on,144,0,1,,,,,,,,,1,,,88,108
125568,note_on,96,0,4,,,,,,,,,4,,,40,0
125568,note_on,0,0,4,,,,,,,,,4,,,42,92
125568,note_on,96,0,2,,,,,,,,,2,,,64,0
125568,note_on,96,0,3,,,,,,,,,3,,,52,0
125616,note_on,48,0,1,,,,,,,,,1,,,88,0
125664,note_on,96,0,3,,,,,,,,,3,,,54,0
125664,note_on,0,0,3,,,,,,,,,3,,,56,92
125664,note_on,96,0,4,,,,,,,,,4,,,42,0
125664,note_on,0,0,4,,,,,,,,,4,,,44,92
125664,note_on,0,0,2,,,,,,,,,2,,,68,92
125664,note_on,96,0,2,,,,,,,,,2,,,66,0
125758,note_on,94,0,3,,,,,,,,,3,,,56,0
125758,note_on,94,0,4,,,,,,,,,4,,,44,0
125758,note_on,94,0,2,,,,,,,,,2,,,68,0
125760,note_on,2,0,3,,,,,,,,,3,,,57,92
125760,note_on,2,0,2,,,,,,,,,2,,,69,92
125760,note_on,144,0,1,,,,,,,,,1,,,85,108
125760,note_on,2,0,4,,,,,,,,,4,,,45,92
125920,note_on,160,0,4,,,,,,,,,4,,,45,0
125920,note_on,160,0,3,,,,,,,,,3,,,57,0
125920,note_on,160,0,2,,,,,,,,,2,,,69,0
125920,note_on,160,0,1,,,,,,,,,1,,,85,0
125952,note_on,32,0,2,,,,,,,,,2,,,66,92
125952,note_on,32,0,4,,,,,,,,,4,,,42,92
125952,note_on,32,0,1,,,,,,,,,1,,,69,108
125952,note_on,32,0,3,,,,,,,,,3,,,54,92
126048,note_on,96,0,3,,,,,,,,,3,,,54,0
126048,note_on,0,0,3,,,,,,,,,3,,,52,92
126048,note_on,96,0,4,,,,,,,,,4,,,42,0
126048,note_on,0,0,2,,,,,,,,,2,,,64,92
126048,note_on,96,0,2,,,,,,,,,2,,,66,0
126048,note_on,0,0,4,,,,,,,,,4,,,40,92
126112,note_on,160,0,1,,,,,,,,,1,,,69,0
126144,note_on,96,0,4,,,,,,,,,4,,,40,0
126144,note_on,0,0,4,,,,,,,,,4,,,42,92
126144,note_on,0,0,2,,,,,,,,,2,,,66,92
126144,note_on,0,0,3,,,,,,,,,3,,,54,92
126144,note_on,96,0,3,,,,,,,,,3,,,52,0
126144,note_on,32,0,1,,,,,,,,,1,,,86,108
126144,note_on,96,0,2,,,,,,,,,2,,,64,0
126240,note_on,96,0,4,,,,,,,,,4,,,42,0
126240,note_on,96,0,2,,,,,,,,,2,,,66,0
126240,note_on,0,0,3,,,,,,,,,3,,,56,92
126240,note_on,96,0,3,,,,,,,,,3,,,54,0
126240,note_on,0,0,4,,,,,,,,,4,,,44,92
126240,note_on,0,0,2,,,,,,,,,2,,,68,92
126304,note_on,160,0,1,,,,,,,,,1,,,86,0
126334,note_on,94,0,4,,,,,,,,,4,,,44,0
126334,note_on,94,0,3,,,,,,,,,3,,,56,0
126334,note_on,94,0,2,,,,,,,,,2,,,68,0
126336,note_on,2,0,4,,,,,,,,,4,,,45,92
126336,note_on,32,0,1,,,,,,,,,1,,,85,108
126336,note_on,2,0,2,,,,,,,,,2,,,69,92
126336,note_on,2,0,3,,,,,,,,,3,,,57,92
126496,note_on,160,0,4,,,,,,,,,4,,,45,0
126496,note_on,160,0,3,,,,,,,,,3,,,57,0
126496,note_on,160,0,2,,,,,,,,,2,,,69,0
126496,note_on,160,0,1,,,,,,,,,1,,,85,0
126528,note_on,32,0,4,,,,,,,,,4,,,42,92
126528,note_on,32,0,3,,,,,,,,,3,,,54,92
126528,note_on,32,0,1,,,,,,,,,1,,,88,108
126528,note_on,32,0,2,,,,,,,,,2,,,66,92
126624,note_on,96,0,2,,,,,,,,,2,,,66,0
126624,note_on,0,0,2,,,,,,,,,2,,,64,92
126624,note_on,0,0,4,,,,,,,,,4,,,40,92
126624,note_on,96,0,4,,,,,,,,,4,,,42,0
126624,note_on,0,0,3,,,,,,,,,3,,,52,92
126624,note_on,96,0,3,,,,,,,,,3,,,54,0
126688,note_on,160,0,1,,,,,,,,,1,,,88,0
126720,note_on,0,0,4,,,,,,,,,4,,,42,92
126720,note_on,0,0,2,,,,,,,,,2,,,66,92
126720,note_on,96,0,4,,,,,,,,,4,,,40,0
126720,note_on,96,0,3,,,,,,,,,3,,,52,0
126720,note_on,0,0,3,,,,,,,,,3,,,54,92
126720,note_on,32,0,1,,,,,,,,,1,,,93,108
126720,note_on,96,0,2,,,,,,,,,2,,,64,0
126816,note_on,0,0,4,,,,,,,,,4,,,44,92
126816,note_on,0,0,2,,,,,,,,,2,,,68,92
126816,note_on,96,0,2,,,,,,,,,2,,,66,0
126816,note_on,96,0,3,,,,,,,,,3,,,54,0
126816,note_on,0,0,3,,,,,,,,,3,,,56,92
126816,note_on,96,0,4,,,,,,,,,4,,,42,0
126880,note_on,160,0,1,,,,,,,,,1,,,93,0
126910,note_on,94,0,2,,,,,,,,,2,,,68,0
126910,note_on,94,0,3,,,,,,,,,3,,,56,0
126910,note_on,94,0,4,,,,,,,,,4,,,44,0
126912,note_on,32,0,1,,,,,,,,,1,,,86,108
126912,note_on,2,0,3,,,,,,,,,3,,,57,92
126912,note_on,2,0,4,,,,,,,,,4,,,45,92
126912,note_on,2,0,2,,,,,,,,,2,,,69,92
127072,note_on,160,0,2,,,,,,,,,2,,,69,0
127072,note_on,160,0,1,,,,,,,,,1,,,86,0
127072,note_on,160,0,3,,,,,,,,,3,,,57,0
127072,note_on,160,0,4,,,,,,,,,4,,,45,0
127104,note_on,32,0,2,,,,,,,,,2,,,66,92
127104,note_on,32,0,4,,,,,,,,,4,,,42,92
127104,note_on,32,0,3,,,,,,,,,3,,,54,92
127104,note_on,32,0,1,,,,,,,,,1,,,71,108
127200,note_on,96,0,2,,,,,,,,,2,,,66,0
127200,note_on,96,0,3,,,,,,,,,3,,,54,0
127200,note_on,0,0,3,,,,,,,,,3,,,52,92
127200,note_on,0,0,2,,,,,,,,,2,,,64,92
127200,note_on,96,0,4,,,,,,,,,4,,,42,0
127200,note_on,0,0,4,,,,,,,,,4,,,40,92
127296,note_on,96,0,3,,,,,,,,,3,,,52,0
127296,note_on,0,0,1,,,,,,,,,1,,,85,108
127296,note_on,192,0,1,,,,,,,,,1,,,71,0
127296,note_on,0,0,2,,,,,,,,,2,,,66,92
127296,note_on,96,0,2,,,,,,,,,2,,,64,0
127296,note_on,0,0,3,,,,,,,,,3,,,54,92
127296,note_on,0,0,4,,,,,,,,,4,,,42,92
127296,note_on,96,0,4,,,,,,,,,4,,,40,0
127392,note_on,96,0,3,,,,,,,,,3,,,54,0
127392,note_on,0,0,3,,,,,,,,,3,,,56,92
127392,note_on,0,0,2,,,,,,,,,2,,,68,92
127392,note_on,96,0,2,,,,,,,,,2,,,66,0
127392,note_on,0,0,4,,,,,,,,,4,,,44,92
127392,note_on,96,0,4,,,,,,,,,4,,,42,0
127456,note_on,160,0,1,,,,,,,,,1,,,85,0
127486,note_on,94,0,4,,,,,,,,,4,,,44,0
127486,note_on,94,0,3,,,,,,,,,3,,,56,0
127486,note_on,94,0,2,,,,,,,,,2,,,68,0
127488,note_on,2,0,3,,,,,,,,,3,,,57,92
127488,note_on,2,0,4,,,,,,,,,4,,,45,92
127488,note_on,32,0,1,,,,,,,,,1,,,85,108
127488,note_on,2,0,2,,,,,,,,,2,,,69,92
127512,note_on,24,0,1,,,,,,,,,1,,,85,0
127512,note_on,0,0,1,,,,,,,,,1,,,86,108
127568,note_on,56,0,1,,,,,,,,,1,,,86,0
127648,note_on,160,0,2,,,,,,,,,2,,,69,0
127648,note_on,160,0,4,,,,,,,,,4,,,45,0
127648,note_on,160,0,3,,,,,,,,,3,,,57,0
127680,note_on,32,0,4,,,,,,,,,4,,,42,92
127680,note_on,32,0,3,,,,,,,,,3,,,54,92
127680,note_on,32,0,2,,,,,,,,,2,,,66,92
127680,note_on,112,0,1,,,,,,,,,1,,,71,108
127728,note_on,48,0,1,,,,,,,,,1,,,71,0
127776,note_on,0,0,2,,,,,,,,,2,,,64,92
127776,note_on,96,0,3,,,,,,,,,3,,,54,0
127776,note_on,96,0,4,,,,,,,,,4,,,42,0
127776,note_on,0,0,3,,,,,,,,,3,,,52,92
127776,note_on,96,0,2,,,,,,,,,2,,,66,0
127776,note_on,0,0,4,,,,,,,,,4,,,40,92
127872,note_on,96,0,4,,,,,,,,,4,,,40,0
127872,note_on,0,0,4,,,,,,,,,4,,,42,92
127872,note_on,0,0,3,,,,,,,,,3,,,54,92
127872,note_on,96,0,3,,,,,,,,,3,,,52,0
127872,note_on,0,0,2,,,,,,,,,2,,,66,92
127872,note_on,96,0,2,,,,,,,,,2,,,64,0
127872,note_on,144,0,1,,,,,,,,,1,,,88,108
127920,note_on,48,0,1,,,,,,,,,1,,,88,0
127968,note_on,0,0,2,,,,,,,,,2,,,68,92
127968,note_on,96,0,4,,,,,,,,,4,,,42,0
127968,note_on,0,0,4,,,,,,,,,4,,,44,92
127968,note_on,96,0,3,,,,,,,,,3,,,54,0
127968,note_on,0,0,3,,,,,,,,,3,,,56,92
127968,note_on,96,0,2,,,,,,,,,2,,,66,0
128062,note_on,94,0,2,,,,,,,,,2,,,68,0
128062,note_on,94,0,3,,,,,,,,,3,,,56,0
128062,note_on,94,0,4,,,,,,,,,4,,,44,0
128064,note_on,2,0,3,,,,,,,,,3,,,57,92
128064,note_on,2,0,2,,,,,,,,,2,,,69,92
128064,note_on,144,0,1,,,,,,,,,1,,,85,108
128064,note_on,2,0,4,,,,,,,,,4,,,45,92
128224,note_on,160,0,3,,,,,,,,,3,,,57,0
128224,note_on,160,0,2,,,,,,,,,2,,,69,0
128224,note_on,160,0,4,,,,,,,,,4,,,45,0
128224,note_on,160,0,1,,,,,,,,,1,,,85,0
128256,note_on,32,0,3,,,,,,,,,3,,,54,92
128256,note_on,32,0,2,,,,,,,,,2,,,66,92
128256,note_on,32,0,4,,,,,,,,,4,,,42,92
128256,note_on,32,0,1,,,,,,,,,1,,,69,108
128352,note_on,96,0,4,,,,,,,,,4,,,42,0
128352,note_on,0,0,4,,,,,,,,,4,,,40,92
128352,note_on,0,0,2,,,,,,,,,2,,,64,92
128352,note_on,96,0,2,,,,,,,,,2,,,66,0
128352,note_on,0,0,3,,,,,,,,,3,,,52,92
128352,note_on,96,0,3,,,,,,,,,3,,,54,0
128416,note_on,160,0,1,,,,,,,,,1,,,69,0
128448,note_on,32,0,1,,,,,,,,,1,,,88,108
128448,note_on,0,0,3,,,,,,,,,3,,,54,92
128448,note_on,0,0,4,,,,,,,,,4,,,42,92
128448,note_on,96,0,4,,,,,,,,,4,,,40,0
128448,note_on,96,0,2,,,,,,,,,2,,,64,0
128448,note_on,96,0,3,,,,,,,,,3,,,52,0
128448,note_on,0,0,2,,,,,,,,,2,,,66,92
128544,note_on,96,0,3,,,,,,,,,3,,,54,0
128544,note_on,0,0,2,,,,,,,,,2,,,68,92
128544,note_on,96,0,2,,,,,,,,,2,,,66,0
128544,note_on,0,0,3,,,,,,,,,3,,,56,92
128544,note_on,96,0,4,,,,,,,,,4,,,42,0
128544,note_on,0,0,4,,,,,,,,,4,,,44,92
128608,note_on,160,0,1,,,,,,,,,1,,,88,0
128638,note_on,94,0,4,,,,,,,,,4,,,44,0
128638,note_on,94,0,2,,,,,,,,,2,,,68,0
128638,note_on,94,0,3,,,,,,,,,3,,,56,0
128640,note_on,32,0,1,,,,,,,,,1,,,88,108
128640,note_on,2,0,4,,,,,,,,,4,,,45,92
128640,note_on,2,0,3,,,,,,,,,3,,,57,92
128640,note_on,2,0,2,,,,,,,,,2,,,69,92
128664,note_on,24,0,1,,,,,,,,,1,,,88,0
128664,note_on,0,0,1,,,,,,,,,1,,,93,108
128800,note_on,160,0,3,,,,,,,,,3,,,57,0
128800,note_on,160,0,2,,,,,,,,,2,,,69,0
128800,note_on,160,0,4,,,,,,,,,4,,,45,0
128832,note_on,32,0,2,,,,,,,,,2,,,66,92
128832,note_on,168,0,1,,,,,,,,,1,,,93,0
128832,note_on,0,0,1,,,,,,,,,1,,,69,108
128832,note_on,32,0,3,,,,,,,,,3,,,54,92
128832,note_on,32,0,4,,,,,,,,,4,,,42,92
128928,note_on,0,0,2,,,,,,,,,2,,,64,92
128928,note_on,96,0,3,,,,,,,,,3,,,54,0
128928,note_on,96,0,4,,,,,,,,,4,,,42,0
128928,note_on,0,0,4,,,,,,,,,4,,,40,92
128928,note_on,0,0,3,,,,,,,,,3,,,52,92
128928,note_on,96,0,2,,,,,,,,,2,,,66,0
129024,note_on,96,0,4,,,,,,,,,4,,,40,0
129024,note_on,0,0,4,,,,,,,,,4,,,42,92
129024,note_on,96,0,3,,,,,,,,,3,,,52,0
129024,note_on,0,0,2,,,,,,,,,2,,,66,92
129024,note_on,96,0,2,,,,,,,,,2,,,64,0
129024,note_on,0,0,3,,,,,,,,,3,,,54,92
129120,note_on,96,0,3,,,,,,,,,3,,,54,0
129120,note_on,96,0,2,,,,,,,,,2,,,66,0
129120,note_on,0,0,2,,,,,,,,,2,,,68,92
129120,note_on,0,0,1,,,,,,,,,1,,,88,108
129120,note_on,288,0,1,,,,,,,,,1,,,69,0
129120,note_on,96,0,4,,,,,,,,,4,,,42,0
129120,note_on,0,0,4,,,,,,,,,4,,,44,92
129120,note_on,0,0,3,,,,,,,,,3,,,56,92
129214,note_on,94,0,4,,,,,,,,,4,,,44,0
129214,note_on,94,0,1,,,,,,,,,1,,,88,0
129214,note_on,94,0,3,,,,,,,,,3,,,56,0
129214,note_on,94,0,2,,,,,,,,,2,,,68,0
129216,note_on,2,0,3,,,,,,,,,3,,,57,92
129216,note_on,2,0,4,,,,,,,,,4,,,45,92
129216,note_on,2,0,1,,,,,,,,,1,,,86,108
129216,note_on,2,0,2,,,,,,,,,2,,,69,92
129264,note_on,48,0,1,,,,,,,,,1,,,86,0
129376,note_on,160,0,2,,,,,,,,,2,,,69,0
129376,note_on,160,0,3,,,,,,,,,3,,,57,0
129376,note_on,160,0,4,,,,,,,,,4,,,45,0
129408,note_on,144,0,1,,,,,,,,,1,,,71,103
129408,note_on,32,0,3,,,,,,,,,3,,,54,89
129408,note_on,32,0,4,,,,,,,,,4,,,42,89
129408,note_on,32,0,2,,,,,,,,,2,,,66,89
129456,note_on,48,0,1,,,,,,,,,1,,,71,0
129504,note_on,96,0,2,,,,,,,,,2,,,66,0
129504,note_on,0,0,2,,,,,,,,,2,,,64,87
129504,note_on,96,0,4,,,,,,,,,4,,,42,0
129504,note_on,0,0,3,,,,,,,,,3,,,52,87
129504,note_on,96,0,3,,,,,,,,,3,,,54,0
129504,note_on,0,0,4,,,,,,,,,4,,,40,87
129600,note_on,144,0,1,,,,,,,,,1,,,88,98
129600,note_on,96,0,3,,,,,,,,,3,,,52,0
129600,note_on,0,0,3,,,,,,,,,3,,,54,85
129600,note_on,96,0,2,,,,,,,,,2,,,64,0
129600,note_on,0,0,2,,,,,,,,,2,,,66,85
129600,note_on,96,0,4,,,,,,,,,4,,,40,0
129600,note_on,0,0,4,,,,,,,,,4,,,42,85
129648,note_on,48,0,1,,,,,,,,,1,,,88,0
129696,note_on,0,0,4,,,,,,,,,4,,,44,83
129696,note_on,96,0,3,,,,,,,,,3,,,54,0
129696,note_on,96,0,4,,,,,,,,,4,,,42,0
129696,note_on,0,0,3,,,,,,,,,3,,,56,83
129696,note_on,0,0,2,,,,,,,,,2,,,68,83
129696,note_on,96,0,2,,,,,,,,,2,,,66,0
129790,note_on,94,0,3,,,,,,,,,3,,,56,0
129790,note_on,94,0,4,,,,,,,,,4,,,44,0
129790,note_on,94,0,2,,,,,,,,,2,,,68,0
129792,note_on,2,0,2,,,,,,,,,2,,,69,81
129792,note_on,2,0,3,,,,,,,,,3,,,57,81
129792,note_on,144,0,1,,,,,,,,,1,,,85,93
129792,note_on,2,0,4,,,,,,,,,4,,,45,81
129952,note_on,160,0,2,,,,,,,,,2,,,69,0
129952,note_on,160,0,4,,,,,,,,,4,,,45,0
129952,note_on,160,0,1,,,,,,,,,1,,,85,0
129952,note_on,160,0,3,,,,,,,,,3,,,57,0
129984,note_on,32,0,3,,,,,,,,,3,,,54,77
129984,note_on,32,0,1,,,,,,,,,1,,,69,88
129984,note_on,32,0,4,,,,,,,,,4,,,42,77
129984,note_on,32,0,2,,,,,,,,,2,,,66,77
130080,note_on,0,0,3,,,,,,,,,3,,,52,75
130080,note_on,0,0,2,,,,,,,,,2,,,64,75
130080,note_on,96,0,3,,,,,,,,,3,,,54,0
130080,note_on,96,0,2,,,,,,,,,2,,,66,0
130080,note_on,96,0,4,,,,,,,,,4,,,42,0
130080,note_on,0,0,4,,,,,,,,,4,,,40,75
130144,note_on,160,0,1,,,,,,,,,1,,,69,0
130176,note_on,0,0,2,,,,,,,,,2,,,66,73
130176,note_on,96,0,2,,,,,,,,,2,,,64,0
130176,note_on,32,0,1,,,,,,,,,1,,,88,83
130176,note_on,0,0,4,,,,,,,,,4,,,42,73
130176,note_on,96,0,4,,,,,,,,,4,,,40,0
130176,note_on,96,0,3,,,,,,,,,3,,,52,0
130176,note_on,0,0,3,,,,,,,,,3,,,54,73
130272,note_on,96,0,4,,,,,,,,,4,,,42,0
130272,note_on,0,0,4,,,,,,,,,4,,,44,71
130272,note_on,96,0,3,,,,,,,,,3,,,54,0
130272,note_on,0,0,3,,,,,,,,,3,,,56,71
130272,note_on,0,0,2,,,,,,,,,2,,,68,71
130272,note_on,96,0,2,,,,,,,,,2,,,66,0
130336,note_on,160,0,1,,,,,,,,,1,,,88,0
130366,note_on,94,0,4,,,,,,,,,4,,,44,0
130366,note_on,94,0,3,,,,,,,,,3,,,56,0
130366,note_on,94,0,2,,,,,,,,,2,,,68,0
130368,note_on,32,0,1,,,,,,,,,1,,,86,78
130368,note_on,2,0,2,,,,,,,,,2,,,69,69
130368,note_on,2,0,4,,,,,,,,,4,,,45,69
130368,note_on,2,0,3,,,,,,,,,3,,,57,69
130528,note_on,160,0,1,,,,,,,,,1,,,86,0
130528,note_on,160,0,3,,,,,,,,,3,,,57,0
130528,note_on,160,0,2,,,,,,,,,2,,,69,0
130528,note_on,160,0,4,,,,,,,,,4,,,45,0
130560,note_on,32,0,2,,,,,,,,,2,,,66,65
130560,note_on,32,0,4,,,,,,,,,4,,,42,65
130560,note_on,32,0,3,,,,,,,,,3,,,54,65
130560,note_on,32,0,1,,,,,,,,,1,,,71,73
130656,note_on,96,0,4,,,,,,,,,4,,,42,0
130656,note_on,0,0,3,,,,,,,,,3,,,52,63
130656,note_on,96,0,3,,,,,,,,,3,,,54,0
130656,note_on,0,0,4,,,,,,,,,4,,,40,63
130656,note_on,96,0,2,,,,,,,,,2,,,66,0
130656,note_on,0,0,2,,,,,,,,,2,,,64,63
130720,note_on,160,0,1,,,,,,,,,1,,,71,0
130752,note_on,0,0,2,,,,,,,,,2,,,66,61
130752,note_on,96,0,4,,,,,,,,,4,,,40,0
130752,note_on,0,0,4,,,,,,,,,4,,,42,61
130752,note_on,32,0,1,,,,,,,,,1,,,88,68
130752,note_on,96,0,2,,,,,,,,,2,,,64,0
130752,note_on,0,0,3,,,,,,,,,3,,,54,61
130752,note_on,96,0,3,,,,,,,,,3,,,52,0
130848,note_on,96,0,4,,,,,,,,,4,,,42,0
130848,note_on,0,0,3,,,,,,,,,3,,,56,59
130848,note_on,96,0,3,,,,,,,,,3,,,54,0
130848,note_on,96,0,2,,,,,,,,,2,,,66,0
130848,note_on,0,0,2,,,,,,,,,2,,,68,59
130848,note_on,0,0,4,,,,,,,,,4,,,44,59
130912,note_on,160,0,1,,,,,,,,,1,,,88,0
130942,note_on,94,0,3,,,,,,,,,3,,,56,0
130942,note_on,94,0,4,,,,,,,,,4,,,44,0
130942,note_on,94,0,2,,,,,,,,,2,,,68,0
130944,note_on,2,0,2,,,,,,,,,2,,,69,57
130944,note_on,2,0,3,,,,,,,,,3,,,57,57
130944,note_on,2,0,4,,,,,,,,,4,,,45,57
130944,note_on,32,0,1,,,,,,,,,1,,,88,63
130968,note_on,24,0,1,,,,,,,,,1,,,88,0
130968,note_on,0,0,1,,,,,,,,,1,,,93,63
131104,note_on,160,0,2,,,,,,,,,2,,,69,0
131104,note_on,160,0,4,,,,,,,,,4,,,45,0
131104,note_on,160,0,3,,,,,,,,,3,,,57,0
131136,note_on,32,0,2,,,,,,,,,2,,,66,53
131136,note_on,32,0,3,,,,,,,,,3,,,54,53
131136,note_on,32,0,4,,,,,,,,,4,,,42,53
131136,note_on,168,0,1,,,,,,,,,1,,,93,0
131136,note_on,0,0,1,,,,,,,,,1,,,69,57
131232,note_on,96,0,2,,,,,,,,,2,,,66,0
131232,note_on,0,0,2,,,,,,,,,2,,,64,51
131232,note_on,0,0,4,,,,,,,,,4,,,40,51
131232,note_on,96,0,4,,,,,,,,,4,,,42,0
131232,note_on,0,0,3,,,,,,,,,3,,,52,51
131232,note_on,96,0,3,,,,,,,,,3,,,54,0
131328,note_on,0,0,3,,,,,,,,,3,,,54,49
131328,note_on,96,0,3,,,,,,,,,3,,,52,0
131328,note_on,0,0,4,,,,,,,,,4,,,42,49
131328,note_on,96,0,4,,,,,,,,,4,,,40,0
131328,note_on,0,0,2,,,,,,,,,2,,,66,49
131328,note_on,96,0,2,,,,,,,,,2,,,64,0
131424,note_on,288,0,1,,,,,,,,,1,,,69,0
131424,note_on,0,0,4,,,,,,,,,4,,,44,47
131424,note_on,96,0,4,,,,,,,,,4,,,42,0
131424,note_on,96,0,2,,,,,,,,,2,,,66,0
131424,note_on,0,0,1,,,,,,,,,1,,,88,48
131424,note_on,0,0,2,,,,,,,,,2,,,68,47
131424,note_on,0,0,3,,,,,,,,,3,,,56,47
131424,note_on,96,0,3,,,,,,,,,3,,,54,0
131518,note_on,94,0,3,,,,,,,,,3,,,56,0
131518,note_on,94,0,4,,,,,,,,,4,,,44,0
131518,note_on,94,0,1,,,,,,,,,1,,,88,0
131518,note_on,94,0,2,,,,,,,,,2,,,68,0
131520,note_on,2,0,2,,,,,,,,,2,,,69,45
131520,note_on,2,0,4,,,,,,,,,4,,,45,45
131520,note_on,2,0,1,,,,,,,,,1,,,86,45
131520,note_on,2,0,3,,,,,,,,,3,,,57,45
131568,note_on,48,0,1,,,,,,,,,1,,,86,0
131680,note_on,160,0,3,,,,,,,,,3,,,57,0
131680,note_on,160,0,4,,,,,,,,,4,,,45,0
131680,note_on,160,0,2,,,,,,,,,2,,,69,0
131712,note_on,32,0,4,,,,,,,,,4,,,42,45
131712,note_on,32,0,2,,,,,,,,,2,,,66,45
131712,note_on,144,0,1,,,,,,,,,1,,,71,45
131712,note_on,32,0,3,,,,,,,,,3,,,54,45
131760,note_on,48,0,1,,,,,,,,,1,,,71,0
131808,note_on,0,0,2,,,,,,,,,2,,,64,45
131808,note_on,0,0,4,,,,,,,,,4,,,40,45
131808,note_on,96,0,4,,,,,,,,,4,,,42,0
131808,note_on,96,0,3,,,,,,,,,3,,,54,0
131808,note_on,0,0,3,,,,,,,,,3,,,52,45
131808,note_on,96,0,2,,,,,,,,,2,,,66,0
131904,note_on,0,0,2,,,,,,,,,2,,,66,45
131904,note_on,96,0,2,,,,,,,,,2,,,64,0
131904,note_on,0,0,4,,,,,,,,,4,,,42,45
131904,note_on,96,0,3,,,,,,,,,3,,,52,0
131904,note_on,96,0,4,,,,,,,,,4,,,40,0
131904,note_on,144,0,1,,,,,,,,,1,,,88,45
131904,note_on,0,0,3,,,,,,,,,3,,,54,45
131952,note_on,48,0,1,,,,,,,,,1,,,88,0
132000,note_on,96,0,3,,,,,,,,,3,,,54,0
132000,note_on,0,0,4,,,,,,,,,4,,,44,45
132000,note_on,0,0,2,,,,,,,,,2,,,68,45
132000,note_on,96,0,2,,,,,,,,,2,,,66,0
132000,note_on,96,0,4,,,,,,,,,4,,,42,0
132000,note_on,0,0,3,,,,,,,,,3,,,56,45
132094,note_on,94,0,2,,,,,,,,,2,,,68,0
132094,note_on,94,0,3,,,,,,,,,3,,,56,0
132094,note_on,94,0,4,,,,,,,,,4,,,44,0
132096,note_on,2,0,2,,,,,,,,,2,,,69,45
132096,note_on,144,0,1,,,,,,,,,1,,,85,45
132096,note_on,2,0,3,,,,,,,,,3,,,57,45
132096,note_on,2,0,4,,,,,,,,,4,,,45,45
132256,note_on,160,0,1,,,,,,,,,1,,,85,0
132256,note_on,160,0,4,,,,,,,,,4,,,45,0
132256,note_on,160,0,3,,,,,,,,,3,,,57,0
132256,note_on,160,0,2,,,,,,,,,2,,,69,0
132288,note_on,32,0,1,,,,,,,,,1,,,69,45
132288,note_on,32,0,4,,,,,,,,,4,,,42,45
132288,note_on,32,0,3,,,,,,,,,3,,,54,45
132288,note_on,32,0,2,,,,,,,,,2,,,66,45
132384,note_on,96,0,4,,,,,,,,,4,,,42,0
132384,note_on,0,0,4,,,,,,,,,4,,,40,45
132384,note_on,0,0,3,,,,,,,,,3,,,52,45
132384,note_on,0,0,2,,,,,,,,,2,,,64,45
132384,note_on,96,0,2,,,,,,,,,2,,,66,0
132384,note_on,96,0,3,,,,,,,,,3,,,54,0
132448,note_on,160,0,1,,,,,,,,,1,,,69,0
132480,note_on,96,0,2,,,,,,,,,2,,,64,0
132480,note_on,0,0,3,,,,,,,,,3,,,54,45
132480,note_on,96,0,3,,,,,,,,,3,,,52,0
132480,note_on,96,0,4,,,,,,,,,4,,,40,0
132480,note_on,0,0,2,,,,,,,,,2,,,66,45
132480,note_on,32,0,1,,,,,,,,,1,,,88,45
132480,note_on,0,0,4,,,,,,,,,4,,,42,45
132576,note_on,0,0,2,,,,,,,,,2,,,68,45
132576,note_on,96,0,3,,,,,,,,,3,,,54,0
132576,note_on,0,0,4,,,,,,,,,4,,,44,45
132576,note_on,96,0,4,,,,,,,,,4,,,42,0
132576,note_on,0,0,3,,,,,,,,,3,,,56,45
132576,note_on,96,0,2,,,,,,,,,2,,,66,0
132640,note_on,160,0,1,,,,,,,,,1,,,88,0
132670,note_on,94,0,2,,,,,,,,,2,,,68,0
132670,note_on,94,0,4,,,,,,,,,4,,,44,0
132670,note_on,94,0,3,,,,,,,,,3,,,56,0
132672,note_on,2,0,3,,,,,,,,,3,,,57,45
132672,note_on,2,0,4,,,,,,,,,4,,,45,45
132672,note_on,2,0,2,,,,,,,,,2,,,69,45
132672,note_on,32,0,1,,,,,,,,,1,,,85,45
132832,note_on,160,0,3,,,,,,,,,3,,,57,0
132832,note_on,160,0,4,,,,,,,,,4,,,45,0
132832,note_on,160,0,2,,,,,,,,,2,,,69,0
132832,note_on,160,0,1,,,,,,,,,1,,,85,0
132864,note_on,32,0,2,,,,,,,,,2,,,66,44
132864,note_on,32,0,1,,,,,,,,,1,,,69,44
132864,note_on,32,0,3,,,,,,,,,3,,,54,44
132864,note_on,32,0,4,,,,,,,,,4,,,42,44
132960,note_on,0,0,3,,,,,,,,,3,,,52,44
132960,note_on,0,0,4,,,,,,,,,4,,,40,44
132960,note_on,96,0,4,,,,,,,,,4,,,42,0
132960,note_on,96,0,2,,,,,,,,,2,,,66,0
132960,note_on,0,0,2,,,,,,,,,2,,,64,44
132960,note_on,96,0,3,,,,,,,,,3,,,54,0
133024,note_on,160,0,1,,,,,,,,,1,,,69,0
133056,note_on,32,0,1,,,,,,,,,1,,,88,43
133056,note_on,96,0,2,,,,,,,,,2,,,64,0
133056,note_on,0,0,2,,,,,,,,,2,,,66,44
133056,note_on,0,0,4,,,,,,,,,4,,,42,44
133056,note_on,96,0,4,,,,,,,,,4,,,40,0
133056,note_on,96,0,3,,,,,,,,,3,,,52,0
133056,note_on,0,0,3,,,,,,,,,3,,,54,44
133152,note_on,0,0,4,,,,,,,,,4,,,44,44
133152,note_on,96,0,2,,,,,,,,,2,,,66,0
133152,note_on,0,0,2,,,,,,,,,2,,,68,44
133152,note_on,96,0,4,,,,,,,,,4,,,42,0
133152,note_on,96,0,3,,,,,,,,,3,,,54,0
133152,note_on,0,0,3,,,,,,,,,3,,,56,44
133216,note_on,160,0,1,,,,,,,,,1,,,88,0
133246,note_on,94,0,2,,,,,,,,,2,,,68,0
133246,note_on,94,0,3,,,,,,,,,3,,,56,0
133246,note_on,94,0,4,,,,,,,,,4,,,44,0
133248,note_on,2,0,4,,,,,,,,,4,,,45,44
133248,note_on,2,0,2,,,,,,,,,2,,,69,44
133248,note_on,2,0,3,,,,,,,,,3,,,57,44
133248,note_on,32,0,1,,,,,,,,,1,,,88,42
133272,note_on,0,0,1,,,,,,,,,1,,,93,42
133272,note_on,24,0,1,,,,,,,,,1,,,88,0
133408,note_on,160,0,2,,,,,,,,,2,,,69,0
133408,note_on,160,0,3,,,,,,,,,3,,,57,0
133408,note_on,160,0,4,,,,,,,,,4,,,45,0
133440,note_on,0,0,1,,,,,,,,,1,,,69,41
133440,note_on,32,0,2,,,,,,,,,2,,,66,43
133440,note_on,32,0,3,,,,,,,,,3,,,54,43
133440,note_on,32,0,4,,,,,,,,,4,,,42,43
133440,note_on,168,0,1,,,,,,,,,1,,,93,0
133536,note_on,96,0,2,,,,,,,,,2,,,66,0
133536,note_on,0,0,4,,,,,,,,,4,,,40,43
133536,note_on,0,0,2,,,,,,,,,2,,,64,43
133536,note_on,96,0,3,,,,,,,,,3,,,54,0
133536,note_on,0,0,3,,,,,,,,,3,,,52,43
133536,note_on,96,0,4,,,,,,,,,4,,,42,0
133632,note_on,96,0,4,,,,,,,,,4,,,40,0
133632,note_on,0,0,2,,,,,,,,,2,,,66,43
133632,note_on,96,0,2,,,,,,,,,2,,,64,0
133632,note_on,0,0,4,,,,,,,,,4,,,42,43
133632,note_on,96,0,3,,,,,,,,,3,,,52,0
133632,note_on,0,0,3,,,,,,,,,3,,,54,43
133728,note_on,96,0,4,,,,,,,,,4,,,42,0
133728,note_on,0,0,4,,,,,,,,,4,,,44,43
133728,note_on,0,0,3,,,,,,,,,3,,,56,43
133728,note_on,96,0,2,,,,,,,,,2,,,66,0
133728,note_on,0,0,2,,,,,,,,,2,,,68,43
133728,note_on,96,0,3,,,,,,,,,3,,,54,0
133776,note_on,336,0,1,,,,,,,,,1,,,69,0
133822,note_on,94,0,4,,,,,,,,,4,,,44,0
133822,note_on,94,0,3,,,,,,,,,3,,,56,0
133822,note_on,94,0,2,,,,,,,,,2,,,68,0
133824,note_on,2,0,4,,,,,,,,,4,,,45,43
133824,note_on,48,0,1,,,,,,,,,1,,,73,39
133824,note_on,2,0,3,,,,,,,,,3,,,57,43
133824,note_on,2,0,2,,,,,,,,,2,,,69,43
133984,note_on,160,0,3,,,,,,,,,3,,,57,0
133984,note_on,160,0,1,,,,,,,,,1,,,73,0
133984,note_on,160,0,4,,,,,,,,,4,,,45,0
133984,note_on,160,0,2,,,,,,,,,2,,,69,0
134016,note_on,32,0,4,,,,,,,,,4,,,42,42
134016,note_on,32,0,3,,,,,,,,,3,,,54,42
134016,note_on,32,0,1,,,,,,,,,1,,,57,38
134016,note_on,32,0,2,,,,,,,,,2,,,66,42
134112,note_on,96,0,4,,,,,,,,,4,,,42,0
134112,note_on,96,0,3,,,,,,,,,3,,,54,0
134112,note_on,0,0,3,,,,,,,,,3,,,52,42
134112,note_on,0,0,2,,,,,,,,,2,,,64,42
134112,note_on,0,0,4,,,,,,,,,4,,,40,42
134112,note_on,96,0,2,,,,,,,,,2,,,66,0
134176,note_on,160,0,1,,,,,,,,,1,,,57,0
134208,note_on,0,0,4,,,,,,,,,4,,,42,42
134208,note_on,32,0,1,,,,,,,,,1,,,76,37
134208,note_on,96,0,3,,,,,,,,,3,,,52,0
134208,note_on,96,0,4,,,,,,,,,4,,,40,0
134208,note_on,96,0,2,,,,,,,,,2,,,64,0
134208,note_on,0,0,2,,,,,,,,,2,,,66,42
134208,note_on,0,0,3,,,,,,,,,3,,,54,42
134304,note_on,96,0,3,,,,,,,,,3,,,54,0
134304,note_on,0,0,2,,,,,,,,,2,,,68,42
134304,note_on,96,0,2,,,,,,,,,2,,,66,0
134304,note_on,0,0,3,,,,,,,,,3,,,56,42
134304,note_on,0,0,4,,,,,,,,,4,,,44,42
134304,note_on,96,0,4,,,,,,,,,4,,,42,0
134368,note_on,160,0,1,,,,,,,,,1,,,76,0
134398,note_on,94,0,2,,,,,,,,,2,,,68,0
134398,note_on,94,0,3,,,,,,,,,3,,,56,0
134398,note_on,94,0,4,,,,,,,,,4,,,44,0
134400,note_on,2,0,3,,,,,,,,,3,,,57,42
134400,note_on,32,0,1,,,,,,,,,1,,,76,36
134400,note_on,2,0,4,,,,,,,,,4,,,45,42
134400,note_on,2,0,2,,,,,,,,,2,,,69,42
134424,note_on,24,0,1,,,,,,,,,1,,,76,0
134424,note_on,0,0,1,,,,,,,,,1,,,81,36
134496,note_on,0,0,1,,,,,,,,,1,,,69,36
134496,note_on,72,0,1,,,,,,,,,1,,,81,0
134560,note_on,160,0,3,,,,,,,,,3,,,57,0
134560,note_on,160,0,2,,,,,,,,,2,,,69,0
134560,note_on,160,0,4,,,,,,,,,4,,,45,0
134592,note_on,96,0,1,,,,,,,,,1,,,57,36
134592,note_on,32,0,3,,,,,,,,,3,,,54,40
134592,note_on,32,0,2,,,,,,,,,2,,,66,40
134592,note_on,32,0,4,,,,,,,,,4,,,42,40
134688,note_on,96,0,2,,,,,,,,,2,,,66,0
134688,note_on,0,0,2,,,,,,,,,2,,,64,39
134688,note_on,0,0,4,,,,,,,,,4,,,40,39
134688,note_on,96,0,4,,,,,,,,,4,,,42,0
134688,note_on,96,0,3,,,,,,,,,3,,,54,0
134688,note_on,0,0,3,,,,,,,,,3,,,52,39
134784,note_on,0,0,3,,,,,,,,,3,,,54,38
134784,note_on,96,0,3,,,,,,,,,3,,,52,0
134784,note_on,0,0,2,,,,,,,,,2,,,66,38
134784,note_on,96,0,4,,,,,,,,,4,,,40,0
134784,note_on,0,0,4,,,,,,,,,4,,,42,38
134784,note_on,96,0,2,,,,,,,,,2,,,64,0
134880,note_on,96,0,2,,,,,,,,,2,,,66,0
134880,note_on,0,0,2,,,,,,,,,2,,,68,37
134880,note_on,0,0,4,,,,,,,,,4,,,44,37
134880,note_on,96,0,3,,,,,,,,,3,,,54,0
134880,note_on,0,0,3,,,,,,,,,3,,,56,37
134880,note_on,96,0,4,,,,,,,,,4,,,42,0
134928,note_on,0,0,1,,,,,,,,,1,,,69,0
134928,note_on,336,0,1,,,,,,,,,1,,,57,0
134974,note_on,94,0,3,,,,,,,,,3,,,56,0
134974,note_on,94,0,4,,,,,,,,,4,,,44,0
134974,note_on,94,0,2,,,,,,,,,2,,,68,0
134976,note_on,2,0,3,,,,,,,,,3,,,57,36
134976,note_on,48,0,1,,,,,,,,,1,,,85,34
134976,note_on,2,0,2,,,,,,,,,2,,,69,36
134976,note_on,2,0,4,,,,,,,,,4,,,45,36
135136,note_on,160,0,3,,,,,,,,,3,,,57,0
135136,note_on,160,0,2,,,,,,,,,2,,,69,0
135136,note_on,160,0,4,,,,,,,,,4,,,45,0
135136,note_on,160,0,1,,,,,,,,,1,,,85,0
135168,note_on,32,0,2,,,,,,,,,2,,,66,34
135168,note_on,32,0,1,,,,,,,,,1,,,69,33
135168,note_on,32,0,3,,,,,,,,,3,,,54,34
135168,note_on,32,0,4,,,,,,,,,4,,,42,34
135264,note_on,96,0,2,,,,,,,,,2,,,66,0
135264,note_on,0,0,3,,,,,,,,,3,,,52,33
135264,note_on,0,0,2,,,,,,,,,2,,,64,33
135264,note_on,96,0,4,,,,,,,,,4,,,42,0
135264,note_on,0,0,4,,,,,,,,,4,,,40,33
135264,note_on,96,0,3,,,,,,,,,3,,,54,0
135328,note_on,160,0,1,,,,,,,,,1,,,69,0
135360,note_on,0,0,3,,,,,,,,,3,,,54,32
135360,note_on,96,0,4,,,,,,,,,4,,,40,0
135360,note_on,0,0,4,,,,,,,,,4,,,42,32
135360,note_on,32,0,1,,,,,,,,,1,,,88,32
135360,note_on,0,0,2,,,,,,,,,2,,,66,32
135360,note_on,96,0,2,,,,,,,,,2,,,64,0
135360,note_on,96,0,3,,,,,,,,,3,,,52,0
135456,note_on,0,0,4,,,,,,,,,4,,,44,31
135456,note_on,96,0,4,,,,,,,,,4,,,42,0
135456,note_on,0,0,3,,,,,,,,,3,,,56,31
135456,note_on,96,0,2,,,,,,,,,2,,,66,0
135456,note_on,0,0,2,,,,,,,,,2,,,68,31
135456,note_on,96,0,3,,,,,,,,,3,,,54,0
135520,note_on,160,0,1,,,,,,,,,1,,,88,0
135550,note_on,94,0,2,,,,,,,,,2,,,68,0
135550,note_on,94,0,4,,,,,,,,,4,,,44,0
135550,note_on,94,0,3,,,,,,,,,3,,,56,0
135552,note_on,32,0,1,,,,,,,,,1,,,88,30
135552,note_on,2,0,3,,,,,,,,,3,,,57,30
135552,note_on,2,0,4,,,,,,,,,4,,,45,30
135552,note_on,2,0,2,,,,,,,,,2,,,69,30
135576,note_on,24,0,1,,,,,,,,,1,,,88,0
135576,note_on,0,0,1,,,,,,,,,1,,,93,30
135712,note_on,160,0,3,,,,,,,,,3,,,57,0
135712,note_on,160,0,2,,,,,,,,,2,,,69,0
135712,note_on,160,0,4,,,,,,,,,4,,,45,0
135744,note_on,168,0,1,,,,,,,,,1,,,93,0
135744,note_on,0,0,1,,,,,,,,,1,,,69,30
135744,note_on,32,0,4,,,,,,,,,4,,,42,30
135744,note_on,32,0,2,,,,,,,,,2,,,66,30
135744,note_on,32,0,3,,,,,,,,,3,,,54,30
135840,note_on,0,0,4,,,,,,,,,4,,,40,30
135840,note_on,96,0,3,,,,,,,,,3,,,54,0
135840,note_on,96,0,4,,,,,,,,,4,,,42,0
135840,note_on,0,0,3,,,,,,,,,3,,,52,30
135840,note_on,96,0,2,,,,,,,,,2,,,66,0
135840,note_on,0,0,2,,,,,,,,,2,,,64,30
135936,note_on,96,0,3,,,,,,,,,3,,,52,0
135936,note_on,0,0,3,,,,,,,,,3,,,54,30
135936,note_on,96,0,2,,,,,,,,,2,,,64,0
135936,note_on,0,0,2,,,,,,,,,2,,,66,30
135936,note_on,0,0,4,,,,,,,,,4,,,42,30
135936,note_on,96,0,4,,,,,,,,,4,,,40,0
136032,note_on,0,0,4,,,,,,,,,4,,,44,30
136032,note_on,96,0,2,,,,,,,,,2,,,66,0
136032,note_on,96,0,4,,,,,,,,,4,,,42,0
136032,note_on,96,0,3,,,,,,,,,3,,,54,0
136032,note_on,0,0,3,,,,,,,,,3,,,56,30
136032,note_on,0,0,2,,,,,,,,,2,,,68,30
136080,note_on,336,0,1,,,,,,,,,1,,,69,0
136126,note_on,94,0,2,,,,,,,,,2,,,68,0
136126,note_on,94,0,4,,,,,,,,,4,,,44,0
136126,note_on,94,0,3,,,,,,,,,3,,,56,0
136128,note_on,2,0,3,,,,,,,,,3,,,57,30
136128,note_on,48,0,1,,,,,,,,,1,,,64,30
136128,note_on,2,0,4,,,,,,,,,4,,,45,30
136152,note_on,24,0,1,,,,,,,,,1,,,64,0
136152,note_on,0,0,1,,,,,,,,,1,,,69,30
136288,note_on,160,0,4,,,,,,,,,4,,,45,0
136288,note_on,160,0,3,,,,,,,,,3,,,57,0
136320,note_on,32,0,4,,,,,,,,,4,,,42,30
136320,note_on,32,0,3,,,,,,,,,3,,,54,30
136320,note_on,194,0,2,,,,,,,,,2,,,66,30
136320,note_on,168,0,1,,,,,,,,,1,,,69,0
136320,note_on,0,0,1,,,,,,,,,1,,,57,30
136416,note_on,0,0,4,,,,,,,,,4,,,40,30
136416,note_on,96,0,2,,,,,,,,,2,,,66,0
136416,note_on,96,0,3,,,,,,,,,3,,,54,0
136416,note_on,0,0,3,,,,,,,,,3,,,52,30
136416,note_on,0,0,2,,,,,,,,,2,,,64,30
136416,note_on,96,0,4,,,,,,,,,4,,,42,0
136512,note_on,0,0,2,,,,,,,,,2,,,66,30
136512,note_on,0,0,3,,,,,,,,,3,,,54,30
136512,note_on,96,0,3,,,,,,,,,3,,,52,0
136512,note_on,96,0,2,,,,,,,,,2,,,64,0
136512,note_on,96,0,4,,,,,,,,,4,,,40,0
136512,note_on,0,0,4,,,,,,,,,4,,,42,30
136608,note_on,0,0,4,,,,,,,,,4,,,44,30
136608,note_on,96,0,2,,,,,,,,,2,,,66,0
136608,note_on,96,0,3,,,,,,,,,3,,,54,0
136608,note_on,0,0,3,,,,,,,,,3,,,56,30
136608,note_on,96,0,4,,,,,,,,,4,,,42,0
136608,note_on,0,0,2,,,,,,,,,2,,,68,30
136656,note_on,336,0,1,,,,,,,,,1,,,57,0
136702,note_on,94,0,2,,,,,,,,,2,,,68,0
136702,note_on,94,0,3,,,,,,,,,3,,,56,0
136702,note_on,94,0,4,,,,,,,,,4,,,44,0
136704,note_on,48,0,1,,,,,,,,,1,,,64,30
136704,note_on,2,0,3,,,,,,,,,3,,,57,30
136704,note_on,2,0,4,,,,,,,,,4,,,45,30
136728,note_on,0,0,1,,,,,,,,,1,,,69,30
136728,note_on,24,0,1,,,,,,,,,1,,,64,0
136864,note_on,160,0,4,,,,,,,,,4,,,45,0
136864,note_on,160,0,3,,,,,,,,,3,,,57,0
136896,note_on,32,0,4,,,,,,,,,4,,,42,30
136896,note_on,194,0,2,,,,,,,,,2,,,66,30
136896,note_on,168,0,1,,,,,,,,,1,,,69,0
136896,note_on,0,0,1,,,,,,,,,1,,,57,30
136896,note_on,32,0,3,,,,,,,,,3,,,54,30
136992,note_on,96,0,3,,,,,,,,,3,,,54,0
136992,note_on,0,0,2,,,,,,,,,2,,,64,30
136992,note_on,96,0,2,,,,,,,,,2,,,66,0
136992,note_on,0,0,4,,,,,,,,,4,,,40,30
136992,note_on,0,0,3,,,,,,,,,3,,,52,30
136992,note_on,96,0,4,,,,,,,,,4,,,42,0
137088,note_on,0,0,3,,,,,,,,,3,,,54,30
137088,note_on,96,0,3,,,,,,,,,3,,,52,0
137088,note_on,0,0,2,,,,,,,,,2,,,66,30
137088,note_on,96,0,2,,,,,,,,,2,,,64,0
137088,note_on,96,0,4,,,,,,,,,4,,,40,0
137088,note_on,0,0,4,,,,,,,,,4,,,42,30
137184,note_on,0,0,3,,,,,,,,,3,,,56,30
137184,note_on,0,0,2,,,,,,,,,2,,,68,30
137184,note_on,96,0,2,,,,,,,,,2,,,66,0
137184,note_on,96,0,4,,,,,,,,,4,,,42,0
137184,note_on,0,0,4,,,,,,,,,4,,,44,30
137184,note_on,96,0,3,,,,,,,,,3,,,54,0
137278,note_on,94,0,3,,,,,,,,,3,,,56,0
137278,note_on,94,0,2,,,,,,,,,2,,,68,0
137278,note_on,94,0,4,,,,,,,,,4,,,44,0
137280,note_on,2,0,4,,,,,,,,,4,,,45,30
137280,note_on,2,0,2,,,,,,,,,2,,,69,30
137280,note_on,2,0,3,,,,,,,,,3,,,57,30
137440,note_on,160,0,2,,,,,,,,,2,,,69,0
137440,note_on,160,0,3,,,,,,,,,3,,,57,0
137440,note_on,544,0,1,,,,,,,,,1,,,57,0
137440,note_on,160,0,4,,,,,,,,,4,,,45,0
137472,note_on,32,0,1,,,,,,,,,1,,,66,30
137472,note_on,32,0,3,,,,,,,,,3,,,54,30
137472,note_on,32,0,4,,,,,,,,,4,,,42,30
137568,note_on,0,0,1,,,,,,,,,1,,,64,30
137568,note_on,96,0,1,,,,,,,,,1,,,66,0
137568,note_on,96,0,4,,,,,,,,,4,,,42,0
137568,note_on,0,0,3,,,,,,,,,3,,,52,30
137568,note_on,0,0,4,,,,,,,,,4,,,40,30
137568,note_on,96,0,3,,,,,,,,,3,,,54,0
137664,note_on,0,0,1,,,,,,,,,1,,,66,30
137664,note_on,96,0,1,,,,,,,,,1,,,64,0
137664,note_on,96,0,3,,,,,,,,,3,,,52,0
137664,note_on,0,0,4,,,,,,,,,4,,,42,30
137664,note_on,96,0,4,,,,,,,,,4,,,40,0
137664,note_on,0,0,3,,,,,,,,,3,,,54,30
137760,note_on,96,0,1,,,,,,,,,1,,,66,0
137760,note_on,96,0,4,,,,,,,,,4,,,42,0
137760,note_on,0,0,4,,,,,,,,,4,,,44,30
137760,note_on,0,0,1,,,,,,,,,1,,,68,30
137760,note_on,0,0,3,,,,,,,,,3,,,56,30
137760,note_on,96,0,3,,,,,,,,,3,,,54,0
137856,note_on,0,0,3,,,,,,,,,3,,,57,30
137856,note_on,0,0,4,,,,,,,,,4,,,45,30
137856,note_on,96,0,4,,,,,,,,,4,,,44,0
137856,note_on,96,0,1,,,,,,,,,1,,,68,0
137856,note_on,0,0,1,,,,,,,,,1,,,69,30
137856,note_on,96,0,3,,,,,,,,,3,,,56,0
137904,note_on,48,0,4,,,,,,,,,4,,,45,0
137904,note_on,48,0,3,,,,,,,,,3,,,57,0
137904,note_on,48,0,1,,,,,,,,,1,,,69,0
138048,note_on,144,0,4,,,,,,,,,4,,,42,30
138048,note_on,144,0,1,,,,,,,,,1,,,66,30
138048,note_on,144,0,3,,,,,,,,,3,,,54,30
138144,note_on,0,0,4,,,,,,,,,4,,,40,30
138144,note_on,96,0,3,,,,,,,,,3,,,54,0
138144,note_on,0,0,3,,,,,,,,,3,,,52,30
138144,note_on,0,0,1,,,,,,,,,1,,,64,30
138144,note_on,96,0,4,,,,,,,,,4,,,42,0
138144,note_on,96,0,1,,,,,,,,,1,,,66,0
138240,note_on,0,0,3,,,,,,,,,3,,,54,30
138240,note_on,96,0,3,,,,,,,,,3,,,52,0
138240,note_on,0,0,1,,,,,,,,,1,,,66,30
138240,note_on,96,0,1,,,,,,,,,1,,,64,0
138240,note_on,96,0,4,,,,,,,,,4,,,40,0
138240,note_on,0,0,4,,,,,,,,,4,,,42,30
138336,note_on,96,0,3,,,,,,,,,3,,,54,0
138336,note_on,0,0,3,,,,,,,,,3,,,55,30
138336,note_on,0,0,4,,,,,,,,,4,,,43,30
138336,note_on,96,0,4,,,,,,,,,4,,,42,0
138336,note_on,96,0,1,,,,,,,,,1,,,66,0
138336,note_on,0,0,1,,,,,,,,,1,,,67,30
138432,note_on,0,0,3,,,,,,,,,3,,,57,30
138432,note_on,96,0,3,,,,,,,,,3,,,55,0
138432,note_on,96,0,1,,,,,,,,,1,,,67,0
138432,note_on,0,0,1,,,,,,,,,1,,,69,30
138432,note_on,0,0,4,,,,,,,,,4,,,45,30
138432,note_on,96,0,4,,,,,,,,,4,,,43,0
138480,note_on,48,0,1,,,,,,,,,1,,,69,0
138480,note_on,48,0,3,,,,,,,,,3,,,57,0
138480,note_on,48,0,4,,,,,,,,,4,,,45,0
138624,note_on,144,0,3,,,,,,,,,3,,,54,30
138624,note_on,144,0,1,,,,,,,,,1,,,66,30
138624,note_on,144,0,4,,,,,,,,,4,,,42,30
138720,note_on,0,0,3,,,,,,,,,3,,,52,30
138720,note_on,96,0,3,,,,,,,,,3,,,54,0
138720,note_on,96,0,1,,,,,,,,,1,,,66,0
138720,note_on,0,0,4,,,,,,,,,4,,,40,30
138720,note_on,0,0,1,,,,,,,,,1,,,64,30
138720,note_on,96,0,4,,,,,,,,,4,,,42,0
138816,note_on,96,0,4,,,,,,,,,4,,,40,0
138816,note_on,0,0,4,,,,,,,,,4,,,41,30
138816,note_on,96,0,1,,,,,,,,,1,,,64,0
138816,note_on,0,0,1,,,,,,,,,1,,,65,30
138816,note_on,96,0,3,,,,,,,,,3,,,52,0
138816,note_on,0,0,3,,,,,,,,,3,,,53,30
138912,note_on,0,0,1,,,,,,,,,1,,,67,30
138912,note_on,96,0,4,,,,,,,,,4,,,41,0
138912,note_on,0,0,4,,,,,,,,,4,,,43,30
138912,note_on,96,0,3,,,,,,,,,3,,,53,0
138912,note_on,0,0,3,,,,,,,,,3,,,55,30
138912,note_on,96,0,1,,,,,,,,,1,,,65,0
139008,note_on,96,0,3,,,,,,,,,3,,,55,0
139008,note_on,0,0,3,,,,,,,,,3,,,57,30
139008,key_signature,39744,1,0,,F,,,,,,,,,,,
139008,end_of_track,0,1,0,,,,,,,,,,,,,
139008,note_on,0,0,1,,,,,,,,,1,,,69,30
139008,note_on,96,0,1,,,,,,,,,1,,,67,0
139008,note_on,96,0,4,,,,,,,,,4,,,43,0
139008,note_on,0,0,4,,,,,,,,,4,,,45,30
139056,note_on,48,0,1,,,,,,,,,1,,,69,0
139056,note_on,48,0,3,,,,,,,,,3,,,57,0
139056,note_on,48,0,4,,,,,,,,,4,,,45,0
139200,note_on,144,0,4,,,,,,,,,4,,,41,30
139200,note_on,144,0,1,,,,,,,,,1,,,65,30
139200,note_on,144,0,3,,,,,,,,,3,,,53,30
139296,note_on,0,0,4,,,,,,,,,4,,,40,30
139296,note_on,96,0,4,,,,,,,,,4,,,41,0
139296,note_on,96,0,1,,,,,,,,,1,,,65,0
139296,note_on,96,0,3,,,,,,,,,3,,,53,0
139296,note_on,0,0,3,,,,,,,,,3,,,52,30
139296,note_on,0,0,1,,,,,,,,,1,,,64,30
139392,note_on,0,0,4,,,,,,,,,4,,,41,30
139392,note_on,0,0,3,,,,,,,,,3,,,53,30
139392,note_on,96,0,3,,,,,,,,,3,,,52,0
139392,note_on,0,0,1,,,,,,,,,1,,,65,30
139392,note_on,96,0,1,,,,,,,,,1,,,64,0
139392,note_on,96,0,4,,,,,,,,,4,,,40,0
139488,note_on,0,0,4,,,,,,,,,4,,,43,30
139488,note_on,0,0,3,,,,,,,,,3,,,55,30
139488,note_on,96,0,4,,,,,,,,,4,,,41,0
139488,note_on,96,0,3,,,,,,,,,3,,,53,0
139488,note_on,0,0,1,,,,,,,,,1,,,67,30
139488,note_on,96,0,1,,,,,,,,,1,,,65,0
139776,note_on,288,0,1,,,,,,,,,1,,,67,0
139776,note_on,288,0,3,,,,,,,,,3,,,55,0
139776,note_on,0,0,3,,,,,,,,,3,,,57,30
139776,note_on,0,0,4,,,,,,,,,4,,,45,30
139776,note_on,0,0,1,,,,,,,,,1,,,69,30
139776,note_on,288,0,4,,,,,,,,,4,,,43,0
140352,note_on,576,0,3,,,,,,,,,3,,,57,0
140352,note_on,0,0,3,,,,,,,,,3,,,55,30
140352,note_on,0,0,4,,,,,,,,,4,,,43,30
140352,note_on,576,0,4,,,,,,,,,4,,,45,0
140352,note_on,576,0,1,,,,,,,,,1,,,69,0
140352,note_on,0,0,1,,,,,,,,,1,,,67,30
140928,note_on,576,0,1,,,,,,,,,1,,,67,0
140928,note_on,0,0,1,,,,,,,,,1,,,65,30
140928,note_on,576,0,3,,,,,,,,,3,,,55,0
140928,note_on,0,0,3,,,,,,,,,3,,,53,30
140928,note_on,576,0,4,,,,,,,,,4,,,43,0
140928,note_on,0,0,4,,,,,,,,,4,,,41,30
141504,note_on,576,0,1,,,,,,,,,1,,,65,0
141504,note_on,0,0,1,,,,,,,,,1,,,67,30
141504,note_on,0,0,3,,,,,,,,,3,,,55,30
141504,note_on,576,0,3,,,,,,,,,3,,,53,0
141504,note_on,576,0,4,,,,,,,,,4,,,41,0
141504,note_on,0,0,4,,,,,,,,,4,,,43,30
142048,note_on,544,0,3,,,,,,,,,3,,,55,0
142080,note_on,0,0,4,,,,,,,,,4,,,55,30
142080,note_on,576,0,4,,,,,,,,,4,,,43,0
142080,note_on,4640,0,2,,,,,,,,,2,,,67,30
142080,note_on,576,0,1,,,,,,,,,1,,,67,0
142080,note_on,0,0,1,,,,,,,,,1,,,79,30
142656,note_on,0,0,1,,,,,,,,,1,,,91,30
142656,note_on,576,0,2,,,,,,,,,2,,,67,0
142656,note_on,0,0,2,,,,,,,,,2,,,79,30
142656,note_on,0,0,4,,,,,,,,,4,,,67,30
142656,note_on,576,0,4,,,,,,,,,4,,,55,0
142656,note_on,576,0,1,,,,,,,,,1,,,79,0
143232,note_on,0,0,4,,,,,,,,,4,,,55,30
143232,note_on,576,0,2,,,,,,,,,2,,,79,0
143232,note_on,576,0,4,,,,,,,,,4,,,67,0
143232,note_on,576,0,1,,,,,,,,,1,,,91,0
143232,note_on,0,0,1,,,,,,,,,1,,,79,30
143232,note_on,0,0,2,,,,,,,,,2,,,67,30
143776,note_on,544,0,2,,,,,,,,,2,,,67,0
143808,note_on,1760,0,3,,,,,,,,,3,,,55,30
143808,note_on,576,0,1,,,,,,,,,1,,,79,0
143808,note_on,0,0,4,,,,,,,,,4,,,43,30
143808,note_on,576,0,4,,,,,,,,,4,,,55,0
143808,note_on,0,0,1,,,,,,,,,1,,,67,30
144000,note_on,224,0,2,,,,,,,,,2,,,60,30
144144,note_on,336,0,4,,,,,,,,,4,,,43,0
144144,note_on,336,0,3,,,,,,,,,3,,,55,0
144192,note_on,48,0,4,,,,,,,,,4,,,41,30
144192,note_on,48,0,3,,,,,,,,,3,,,53,30
144240,note_on,48,0,4,,,,,,,,,4,,,41,0
144352,note_on,544,0,1,,,,,,,,,1,,,67,0
144384,note_on,32,0,1,,,,,,,,,1,,,69,45
144528,note_on,528,0,2,,,,,,,,,2,,,60,0
144576,note_on,336,0,4,,,,,,,,,4,,,45,45
144576,note_on,48,0,2,,,,,,,,,2,,,60,45
144624,note_on,48,0,4,,,,,,,,,4,,,45,0
144720,note_on,528,0,3,,,,,,,,,3,,,53,0
144768,note_on,48,0,3,,,,,,,,,3,,,52,45
144768,note_on,144,0,4,,,,,,,,,4,,,46,45
144816,note_on,48,0,4,,,,,,,,,4,,,46,0
144928,note_on,544,0,1,,,,,,,,,1,,,69,0
144960,note_on,32,0,1,,,,,,,,,1,,,67,45
145104,note_on,528,0,2,,,,,,,,,2,,,60,0
145152,note_on,48,0,2,,,,,,,,,2,,,60,45
145152,note_on,336,0,4,,,,,,,,,4,,,48,45
145200,note_on,48,0,4,,,,,,,,,4,,,48,0
145296,note_on,528,0,3,,,,,,,,,3,,,52,0
145344,note_on,48,0,3,,,,,,,,,3,,,53,45
145344,note_on,144,0,4,,,,,,,,,4,,,50,45
145504,note_on,544,0,1,,,,,,,,,1,,,67,0
145504,note_on,160,0,4,,,,,,,,,4,,,50,0
145536,note_on,32,0,1,,,,,,,,,1,,,65,45
145680,note_on,528,0,2,,,,,,,,,2,,,60,0
145728,note_on,48,0,2,,,,,,,,,2,,,60,45
145728,note_on,224,0,4,,,,,,,,,4,,,48,45
145872,note_on,528,0,3,,,,,,,,,3,,,53,0
145888,note_on,160,0,4,,,,,,,,,4,,,48,0
145920,note_on,48,0,3,,,,,,,,,3,,,52,45
145920,note_on,32,0,4,,,,,,,,,4,,,46,45
146080,note_on,160,0,4,,,,,,,,,4,,,46,0
146080,note_on,544,0,1,,,,,,,,,1,,,65,0
146112,note_on,32,0,1,,,,,,,,,1,,,67,45
146256,note_on,528,0,2,,,,,,,,,2,,,60,0
146304,note_on,48,0,2,,,,,,,,,2,,,60,45
146304,note_on,224,0,4,,,,,,,,,4,,,43,45
146448,note_on,528,0,3,,,,,,,,,3,,,52,0
146464,note_on,160,0,4,,,,,,,,,4,,,43,0
146496,note_on,32,0,4,,,,,,,,,4,,,41,45
146496,note_on,48,0,3,,,,,,,,,3,,,53,45
146656,note_on,544,0,1,,,,,,,,,1,,,67,0
146656,note_on,160,0,4,,,,,,,,,4,,,41,0
146688,note_on,32,0,1,,,,,,,,,1,,,69,45
146832,note_on,528,0,2,,,,,,,,,2,,,60,0
146880,note_on,224,0,4,,,,,,,,,4,,,45,45
146880,note_on,48,0,2,,,,,,,,,2,,,60,45
147024,note_on,528,0,3,,,,,,,,,3,,,53,0
147040,note_on,160,0,4,,,,,,,,,4,,,45,0
147072,note_on,48,0,3,,,,,,,,,3,,,52,45
147072,note_on,32,0,4,,,,,,,,,4,,,46,45
147232,note_on,544,0,1,,,,,,,,,1,,,69,0
147232,note_on,160,0,4,,,,,,,,,4,,,46,0
147264,note_on,32,0,1,,,,,,,,,1,,,67,45
147408,note_on,528,0,2,,,,,,,,,2,,,60,0
147456,note_on,48,0,2,,,,,,,,,2,,,60,45
147456,note_on,224,0,4,,,,,,,,,4,,,48,45
147600,note_on,528,0,3,,,,,,,,,3,,,52,0
147616,note_on,160,0,2,,,,,,,,,2,,,60,0
147616,note_on,160,0,4,,,,,,,,,4,,,48,0
147648,note_on,32,0,2,,,,,,,,,2,,,57,45
147648,note_on,32,0,4,,,,,,,,,4,,,50,45
147648,note_on,48,0,3,,,,,,,,,3,,,53,45
147696,note_on,432,0,1,,,,,,,,,1,,,67,0
147696,note_on,48,0,3,,,,,,,,,3,,,53,0
147696,note_on,48,0,4,,,,,,,,,4,,,50,0
147696,note_on,48,0,2,,,,,,,,,2,,,57,0
147840,note_on,144,0,4,,,,,,,,,4,,,38,45
147840,note_on,144,0,1,,,,,,,,,1,,,65,45
147840,note_on,144,0,2,,,,,,,,,2,,,57,45
147840,note_on,144,0,3,,,,,,,,,3,,,53,45
147888,note_on,48,0,4,,,,,,,,,4,,,38,0
147888,note_on,48,0,2,,,,,,,,,2,,,57,0
147888,note_on,48,0,1,,,,,,,,,1,,,65,0
147888,note_on,48,0,3,,,,,,,,,3,,,53,0
148032,note_on,144,0,3,,,,,,,,,3,,,52,45
148032,note_on,144,0,4,,,,,,,,,4,,,36,45
148032,note_on,144,0,2,,,,,,,,,2,,,64,45
148032,note_on,144,0,1,,,,,,,,,1,,,67,45
148080,note_on,48,0,3,,,,,,,,,3,,,52,0
148080,note_on,48,0,1,,,,,,,,,1,,,67,0
148080,note_on,48,0,2,,,,,,,,,2,,,64,0
148080,note_on,48,0,4,,,,,,,,,4,,,36,0
148224,note_on,144,0,4,,,,,,,,,4,,,41,45
148224,note_on,144,0,1,,,,,,,,,1,,,65,45
148224,note_on,144,0,2,,,,,,,,,2,,,57,45
148224,note_on,144,0,3,,,,,,,,,3,,,53,45
148272,note_on,48,0,4,,,,,,,,,4,,,41,0
148272,note_on,48,0,3,,,,,,,,,3,,,53,0
148272,note_on,48,0,1,,,,,,,,,1,,,65,0
148272,note_on,48,0,2,,,,,,,,,2,,,57,0
148416,note_on,144,0,2,,,,,,,,,2,,,77,30
148416,note_on,144,0,3,,,,,,,,,3,,,69,30
148416,note_on,144,0,4,,,,,,,,,4,,,62,30
148464,note_on,48,0,3,,,,,,,,,3,,,69,0
148464,note_on,48,0,2,,,,,,,,,2,,,77,0
148464,note_on,48,0,4,,,,,,,,,4,,,62,0
148608,note_on,144,0,3,,,,,,,,,3,,,76,30
148608,note_on,336,0,1,,,,,,,,,1,,,84,30
148608,note_on,144,0,4,,,,,,,,,4,,,60,30
148608,note_on,144,0,2,,,,,,,,,2,,,79,30
148656,note_on,48,0,4,,,,,,,,,4,,,60,0
148656,note_on,48,0,3,,,,,,,,,3,,,76,0
148656,note_on,48,0,2,,,,,,,,,2,,,79,0
148800,note_on,144,0,4,,,,,,,,,4,,,65,30
148800,note_on,144,0,3,,,,,,,,,3,,,69,30
148800,note_on,144,0,2,,,,,,,,,2,,,77,30
148848,note_on,48,0,3,,,,,,,,,3,,,69,0
148848,note_on,48,0,2,,,,,,,,,2,,,77,0
148960,note_on,160,0,4,,,,,,,,,4,,,65,0
148992,note_on,144,0,3,,,,,,,,,3,,,53,30
148992,note_on,144,0,2,,,,,,,,,2,,,81,30
149040,note_on,48,0,3,,,,,,,,,3,,,53,0
149136,note_on,528,0,1,,,,,,,,,1,,,84,0
149184,note_on,48,0,1,,,,,,,,,1,,,84,30
149184,note_on,224,0,4,,,,,,,,,4,,,57,30
149184,note_on,144,0,3,,,,,,,,,3,,,65,30
149344,note_on,160,0,4,,,,,,,,,4,,,57,0
149376,note_on,32,0,4,,,,,,,,,4,,,58,30
149536,note_on,352,0,3,,,,,,,,,3,,,65,0
149536,note_on,160,0,4,,,,,,,,,4,,,58,0
149536,note_on,544,0,2,,,,,,,,,2,,,81,0
149568,note_on,32,0,2,,,,,,,,,2,,,79,30
149568,note_on,32,0,3,,,,,,,,,3,,,64,30
149712,note_on,528,0,1,,,,,,,,,1,,,84,0
149728,note_on,160,0,3,,,,,,,,,3,,,64,0
149760,note_on,48,0,1,,,,,,,,,1,,,84,30
149760,note_on,224,0,4,,,,,,,,,4,,,60,30
149760,note_on,32,0,3,,,,,,,,,3,,,70,30
149920,note_on,160,0,4,,,,,,,,,4,,,60,0
149952,note_on,0,0,3,,,,,,,,,3,,,69,30
149952,note_on,32,0,4,,,,,,,,,4,,,62,30
149952,note_on,192,0,3,,,,,,,,,3,,,70,0
150112,note_on,544,0,2,,,,,,,,,2,,,79,0
150112,note_on,160,0,4,,,,,,,,,4,,,62,0
150112,note_on,160,0,3,,,,,,,,,3,,,69,0
150144,note_on,32,0,3,,,,,,,,,3,,,57,30
150144,note_on,32,0,2,,,,,,,,,2,,,77,30
150288,note_on,528,0,1,,,,,,,,,1,,,84,0
150304,note_on,160,0,3,,,,,,,,,3,,,57,0
150336,note_on,48,0,1,,,,,,,,,1,,,84,30
150336,note_on,224,0,4,,,,,,,,,4,,,60,30
150336,note_on,32,0,3,,,,,,,,,3,,,69,30
150496,note_on,160,0,4,,,,,,,,,4,,,60,0
150496,note_on,160,0,3,,,,,,,,,3,,,69,0
150528,note_on,32,0,4,,,,,,,,,4,,,58,30
150528,note_on,32,0,3,,,,,,,,,3,,,62,30
150688,note_on,160,0,4,,,,,,,,,4,,,58,0
150688,note_on,160,0,3,,,,,,,,,3,,,62,0
150688,note_on,544,0,2,,,,,,,,,2,,,77,0
150720,note_on,32,0,2,,,,,,,,,2,,,79,30
150720,note_on,32,0,3,,,,,,,,,3,,,70,30
150864,note_on,528,0,1,,,,,,,,,1,,,84,0
150880,note_on,160,0,3,,,,,,,,,3,,,70,0
150912,note_on,48,0,1,,,,,,,,,1,,,84,30
150912,note_on,224,0,4,,,,,,,,,4,,,55,30
150912,note_on,32,0,3,,,,,,,,,3,,,64,30
151072,note_on,160,0,4,,,,,,,,,4,,,55,0
151072,note_on,160,0,3,,,,,,,,,3,,,64,0
151104,note_on,32,0,4,,,,,,,,,4,,,53,30
151104,note_on,32,0,3,,,,,,,,,3,,,69,30
151264,note_on,544,0,2,,,,,,,,,2,,,79,0
151264,note_on,160,0,3,,,,,,,,,3,,,69,0
151264,note_on,160,0,4,,,,,,,,,4,,,53,0
151296,note_on,32,0,3,,,,,,,,,3,,,60,30
151296,note_on,32,0,2,,,,,,,,,2,,,81,30
151440,note_on,528,0,1,,,,,,,,,1,,,84,0
151456,note_on,160,0,3,,,,,,,,,3,,,60,0
151488,note_on,224,0,4,,,,,,,,,4,,,57,30
151488,note_on,32,0,3,,,,,,,,,3,,,65,30
151488,note_on,48,0,1,,,,,,,,,1,,,84,30
151648,note_on,160,0,4,,,,,,,,,4,,,57,0
151680,note_on,32,0,4,,,,,,,,,4,,,58,30
151840,note_on,160,0,4,,,,,,,,,4,,,58,0
151840,note_on,544,0,2,,,,,,,,,2,,,81,0
151840,note_on,352,0,3,,,,,,,,,3,,,65,0
151872,note_on,32,0,2,,,,,,,,,2,,,79,30
151872,note_on,32,0,3,,,,,,,,,3,,,52,30
152016,note_on,528,0,1,,,,,,,,,1,,,84,0
152032,note_on,160,0,3,,,,,,,,,3,,,52,0
152064,note_on,224,0,4,,,,,,,,,4,,,60,30
152064,note_on,48,0,1,,,,,,,,,1,,,84,30
152064,note_on,32,0,3,,,,,,,,,3,,,64,30
152224,note_on,160,0,4,,,,,,,,,4,,,60,0
152224,note_on,160,0,3,,,,,,,,,3,,,64,0
152256,note_on,32,0,3,,,,,,,,,3,,,57,30
152256,note_on,32,0,4,,,,,,,,,4,,,62,30
152304,note_on,432,0,2,,,,,,,,,2,,,79,0
152304,note_on,240,0,1,,,,,,,,,1,,,84,0
152416,note_on,160,0,3,,,,,,,,,3,,,57,0
152416,note_on,160,0,4,,,,,,,,,4,,,62,0
152448,note_on,144,0,2,,,,,,,,,2,,,77,30
152448,note_on,32,0,4,,,,,,,,,4,,,50,30
152448,note_on,32,0,3,,,,,,,,,3,,,69,30
152448,note_on,144,0,1,,,,,,,,,1,,,86,30
152496,note_on,48,0,2,,,,,,,,,2,,,77,0
152496,note_on,48,0,1,,,,,,,,,1,,,86,0
152608,note_on,160,0,4,,,,,,,,,4,,,50,0
152608,note_on,160,0,3,,,,,,,,,3,,,69,0
152640,note_on,144,0,1,,,,,,,,,1,,,88,30
152640,note_on,144,0,2,,,,,,,,,2,,,79,30
152640,note_on,32,0,3,,,,,,,,,3,,,60,30
152640,note_on,32,0,4,,,,,,,,,4,,,48,30
152688,note_on,48,0,1,,,,,,,,,1,,,88,0
152688,note_on,48,0,2,,,,,,,,,2,,,79,0
152800,note_on,160,0,3,,,,,,,,,3,,,60,0
152800,note_on,160,0,4,,,,,,,,,4,,,48,0
152832,note_on,144,0,1,,,,,,,,,1,,,89,30
152832,note_on,32,0,4,,,,,,,,,4,,,53,30
152832,note_on,144,0,2,,,,,,,,,2,,,77,30
152880,note_on,48,0,1,,,,,,,,,1,,,89,0
152880,note_on,48,0,2,,,,,,,,,2,,,77,0
152992,note_on,160,0,4,,,,,,,,,4,,,53,0
153024,note_on,32,0,4,,,,,,,,,4,,,39,127
153024,note_on,224,0,3,,,,,,,,,3,,,51,127
153024,note_on,144,0,1,,,,,,,,,1,,,63,127
153360,note_on,336,0,4,,,,,,,,,4,,,39,0
153360,note_on,336,0,3,,,,,,,,,3,,,51,0
153360,note_on,336,0,1,,,,,,,,,1,,,63,0
153600,note_on,240,0,4,,,,,,,,,4,,,39,89
153600,note_on,240,0,3,,,,,,,,,3,,,51,89
153936,note_on,336,0,4,,,,,,,,,4,,,39,0
153936,note_on,336,0,3,,,,,,,,,3,,,51,0
153984,note_on,48,0,4,,,,,,,,,4,,,39,82
153984,note_on,48,0,3,,,,,,,,,3,,,51,82
154320,note_on,336,0,3,,,,,,,,,3,,,51,0
154320,note_on,336,0,4,,,,,,,,,4,,,39,0
154368,note_on,48,0,4,,,,,,,,,4,,,39,75
154368,note_on,48,0,3,,,,,,,,,3,,,51,75
154528,note_on,160,0,3,,,,,,,,,3,,,51,0
154528,note_on,160,0,4,,,,,,,,,4,,,39,0
154752,note_on,224,0,3,,,,,,,,,3,,,51,69
154752,note_on,1392,0,1,,,,,,,,,1,,,63,68
154752,note_on,224,0,4,,,,,,,,,4,,,39,69
155088,note_on,336,0,1,,,,,,,,,1,,,63,0
155088,note_on,336,0,3,,,,,,,,,3,,,51,0
155088,note_on,336,0,4,,,,,,,,,4,,,39,0
155136,note_on,48,0,1,,,,,,,,,1,,,63,61
155136,note_on,48,0,3,,,,,,,,,3,,,51,61
155136,note_on,48,0,4,,,,,,,,,4,,,39,61
155472,note_on,336,0,1,,,,,,,,,1,,,63,0
155472,note_on,336,0,4,,,,,,,,,4,,,39,0
155472,note_on,336,0,3,,,,,,,,,3,,,51,0
155520,note_on,48,0,1,,,,,,,,,1,,,63,53
155520,note_on,48,0,4,,,,,,,,,4,,,39,53
155520,note_on,48,0,3,,,,,,,,,3,,,51,53
155680,note_on,160,0,4,,,,,,,,,4,,,39,0
155680,note_on,160,0,1,,,,,,,,,1,,,63,0
155680,note_on,160,0,3,,,,,,,,,3,,,51,0
155904,note_on,224,0,3,,,,,,,,,3,,,51,45
155904,note_on,224,0,4,,,,,,,,,4,,,39,45
155904,note_on,224,0,1,,,,,,,,,1,,,63,45
156240,note_on,336,0,4,,,,,,,,,4,,,39,0
156240,note_on,336,0,1,,,,,,,,,1,,,63,0
156240,note_on,336,0,3,,,,,,,,,3,,,51,0
156480,note_on,240,0,3,,,,,,,,,3,,,51,45
156480,note_on,240,0,1,,,,,,,,,1,,,63,45
156480,note_on,240,0,4,,,,,,,,,4,,,39,45
156816,note_on,336,0,3,,,,,,,,,3,,,51,0
156816,note_on,336,0,4,,,,,,,,,4,,,39,0
156816,note_on,336,0,1,,,,,,,,,1,,,63,0
157056,note_on,240,0,3,,,,,,,,,3,,,52,30
157056,note_on,240,0,4,,,,,,,,,4,,,40,30
157056,note_on,240,0,1,,,,,,,,,1,,,64,30
157392,note_on,336,0,1,,,,,,,,,1,,,64,0
157392,note_on,336,0,3,,,,,,,,,3,,,52,0
157392,note_on,336,0,4,,,,,,,,,4,,,40,0
157632,note_on,240,0,3,,,,,,,,,3,,,52,30
157632,note_on,240,0,1,,,,,,,,,1,,,64,30
157632,note_on,240,0,4,,,,,,,,,4,,,36,30
157968,note_on,336,0,1,,,,,,,,,1,,,64,0
157968,note_on,336,0,3,,,,,,,,,3,,,52,0
158016,note_on,48,0,3,,,,,,,,,3,,,53,35
158176,note_on,160,0,3,,,,,,,,,3,,,53,0
158208,note_on,32,0,3,,,,,,,,,3,,,48,37
158208,note_on,240,0,1,,,,,,,,,1,,,69,36
158352,note_on,720,0,4,,,,,,,,,4,,,36,0
158400,note_on,48,0,4,,,,,,,,,4,,,36,40
158400,note_on,5520,0,2,,,,,,,,,2,,,65,38
158400,note_on,192,0,3,,,,,,,,,3,,,57,39
158592,note_on,192,0,3,,,,,,,,,3,,,57,0
158592,note_on,0,0,3,,,,,,,,,3,,,59,41
158752,note_on,0,0,3,,,,,,,,,3,,,59,0
158752,note_on,160,0,3,,,,,,,,,3,,,48,0
158752,note_on,544,0,1,,,,,,,,,1,,,69,0
158784,note_on,32,0,1,,,,,,,,,1,,,67,42
158784,note_on,32,0,3,,,,,,,,,3,,,48,43
158928,note_on,528,0,4,,,,,,,,,4,,,36,0
158976,note_on,48,0,4,,,,,,,,,4,,,36,47
158976,note_on,576,0,2,,,,,,,,,2,,,65,0
158976,note_on,192,0,3,,,,,,,,,3,,,60,45
158976,note_on,0,0,2,,,,,,,,,2,,,64,44
159168,note_on,192,0,2,,,,,,,,,2,,,64,0
159168,note_on,0,0,3,,,,,,,,,3,,,62,47
159168,note_on,192,0,3,,,,,,,,,3,,,60,0
159168,note_on,0,0,2,,,,,,,,,2,,,57,46
159328,note_on,160,0,3,,,,,,,,,3,,,48,0
159328,note_on,0,0,3,,,,,,,,,3,,,62,0
159328,note_on,544,0,1,,,,,,,,,1,,,67,0
159360,note_on,32,0,1,,,,,,,,,1,,,65,49
159360,note_on,32,0,3,,,,,,,,,3,,,48,49
159504,note_on,528,0,4,,,,,,,,,4,,,36,0
159552,note_on,192,0,3,,,,,,,,,3,,,60,51
159552,note_on,0,0,2,,,,,,,,,2,,,56,51
159552,note_on,48,0,4,,,,,,,,,4,,,36,54
159552,note_on,384,0,2,,,,,,,,,2,,,57,0
159744,note_on,0,0,2,,,,,,,,,2,,,62,53
159744,note_on,192,0,2,,,,,,,,,2,,,56,0
159744,note_on,0,0,3,,,,,,,,,3,,,59,53
159744,note_on,192,0,3,,,,,,,,,3,,,60,0
159904,note_on,544,0,1,,,,,,,,,1,,,65,0
159904,note_on,0,0,3,,,,,,,,,3,,,59,0
159904,note_on,160,0,3,,,,,,,,,3,,,48,0
159936,note_on,32,0,1,,,,,,,,,1,,,67,56
159936,note_on,32,0,3,,,,,,,,,3,,,48,56
160080,note_on,528,0,4,,,,,,,,,4,,,36,0
160128,note_on,0,0,2,,,,,,,,,2,,,64,58
160128,note_on,384,0,2,,,,,,,,,2,,,62,0
160128,note_on,192,0,3,,,,,,,,,3,,,48,0
160128,note_on,0,0,3,,,,,,,,,3,,,49,59
160128,note_on,0,0,3,,,,,,,,,3,,,58,59
160128,note_on,48,0,4,,,,,,,,,4,,,36,61
160320,note_on,0,0,3,,,,,,,,,3,,,57,62
160320,note_on,0,0,3,,,,,,,,,3,,,48,62
160320,note_on,0,0,3,,,,,,,,,3,,,58,0
160320,note_on,192,0,3,,,,,,,,,3,,,49,0
160480,note_on,544,0,1,,,,,,,,,1,,,67,0
160480,note_on,352,0,2,,,,,,,,,2,,,64,0
160480,note_on,0,0,3,,,,,,,,,3,,,57,0
160480,note_on,160,0,3,,,,,,,,,3,,,48,0
160512,note_on,32,0,2,,,,,,,,,2,,,57,62
160512,note_on,32,0,1,,,,,,,,,1,,,69,63
160512,note_on,32,0,3,,,,,,,,,3,,,48,65
160656,note_on,528,0,4,,,,,,,,,4,,,36,0
160704,note_on,48,0,4,,,,,,,,,4,,,36,68
160704,note_on,192,0,3,,,,,,,,,3,,,57,68
160704,note_on,192,0,2,,,,,,,,,2,,,57,0
160704,note_on,0,0,2,,,,,,,,,2,,,65,64
160896,note_on,0,0,3,,,,,,,,,3,,,59,71
160896,note_on,192,0,3,,,,,,,,,3,,,57,0
161056,note_on,0,0,3,,,,,,,,,3,,,59,0
161056,note_on,160,0,3,,,,,,,,,3,,,48,0
161056,note_on,352,0,2,,,,,,,,,2,,,65,0
161056,note_on,544,0,1,,,,,,,,,1,,,69,0
161088,note_on,32,0,2,,,,,,,,,2,,,65,68
161088,note_on,32,0,1,,,,,,,,,1,,,67,70
161088,note_on,32,0,3,,,,,,,,,3,,,48,74
161232,note_on,528,0,4,,,,,,,,,4,,,36,0
161280,note_on,0,0,2,,,,,,,,,2,,,64,71
161280,note_on,192,0,2,,,,,,,,,2,,,65,0
161280,note_on,192,0,3,,,,,,,,,3,,,60,77
161280,note_on,48,0,4,,,,,,,,,4,,,36,77
161440,note_on,160,0,2,,,,,,,,,2,,,64,0
161472,note_on,32,0,2,,,,,,,,,2,,,56,74
161472,note_on,192,0,3,,,,,,,,,3,,,60,0
161472,note_on,0,0,3,,,,,,,,,3,,,59,80
161520,note_on,432,0,1,,,,,,,,,1,,,67,0
161632,note_on,0,0,3,,,,,,,,,3,,,59,0
161632,note_on,160,0,3,,,,,,,,,3,,,48,0
161664,note_on,192,0,2,,,,,,,,,2,,,62,77
161664,note_on,144,0,1,,,,,,,,,1,,,65,77
161664,note_on,32,0,3,,,,,,,,,3,,,48,83
161712,note_on,48,0,1,,,,,,,,,1,,,65,0
161808,note_on,528,0,4,,,,,,,,,4,,,36,0
161808,note_on,144,0,2,,,,,,,,,2,,,56,0
161824,note_on,16,0,2,,,,,,,,,2,,,62,0
161856,note_on,48,0,4,,,,,,,,,4,,,36,86
161856,note_on,144,0,1,,,,,,,,,1,,,67,80
161856,note_on,32,0,2,,,,,,,,,2,,,55,80
161856,note_on,0,0,2,,,,,,,,,2,,,64,80
161856,note_on,192,0,3,,,,,,,,,3,,,58,86
161904,note_on,48,0,1,,,,,,,,,1,,,67,0
162016,note_on,0,0,2,,,,,,,,,2,,,64,0
162016,note_on,160,0,2,,,,,,,,,2,,,55,0
162048,note_on,32,0,2,,,,,,,,,2,,,57,83
162048,note_on,192,0,3,,,,,,,,,3,,,58,0
162048,note_on,144,0,1,,,,,,,,,1,,,65,83
162208,note_on,160,0,3,,,,,,,,,3,,,48,0
162208,note_on,160,0,1,,,,,,,,,1,,,65,0
162208,note_on,352,0,4,,,,,,,,,4,,,36,0
162208,note_on,160,0,2,,,,,,,,,2,,,57,0
162240,note_on,32,0,4,,,,,,,,,4,,,41,92
162240,note_on,32,0,3,,,,,,,,,3,,,53,92
162288,note_on,48,0,3,,,,,,,,,3,,,53,0
162288,note_on,48,0,4,,,,,,,,,4,,,41,0
162432,note_on,144,0,4,,,,,,,,,4,,,43,92
162432,note_on,144,0,3,,,,,,,,,3,,,55,92
162624,note_on,416,0,2,,,,,,,,,2,,,65,92
162624,note_on,416,0,1,,,,,,,,,1,,,77,92
162672,note_on,48,0,1,,,,,,,,,1,,,77,0
162672,note_on,48,0,2,,,,,,,,,2,,,65,0
162784,note_on,352,0,3,,,,,,,,,3,,,55,0
162784,note_on,352,0,4,,,,,,,,,4,,,43,0
162816,note_on,32,0,3,,,,,,,,,3,,,57,92
162816,note_on,32,0,4,,,,,,,,,4,,,45,92
163008,note_on,336,0,1,,,,,,,,,1,,,81,92
163008,note_on,336,0,2,,,,,,,,,2,,,69,92
163056,note_on,48,0,1,,,,,,,,,1,,,81,0
163056,note_on,48,0,2,,,,,,,,,2,,,69,0
163200,note_on,144,0,1,,,,,,,,,1,,,82,92
163200,note_on,144,0,2,,,,,,,,,2,,,70,92
163248,note_on,48,0,1,,,,,,,,,1,,,82,0
163248,note_on,48,0,2,,,,,,,,,2,,,70,0
163360,note_on,544,0,3,,,,,,,,,3,,,57,0
163360,note_on,544,0,4,,,,,,,,,4,,,45,0
163392,note_on,32,0,3,,,,,,,,,3,,,55,92
163392,note_on,32,0,4,,,,,,,,,4,,,43,92
163584,note_on,336,0,2,,,,,,,,,2,,,72,92
163584,note_on,336,0,1,,,,,,,,,1,,,84,92
163744,note_on,160,0,1,,,,,,,,,1,,,84,0
163744,note_on,160,0,2,,,,,,,,,2,,,72,0
163776,note_on,32,0,1,,,,,,,,,1,,,86,92
163776,note_on,32,0,2,,,,,,,,,2,,,74,92
163936,note_on,544,0,4,,,,,,,,,4,,,43,0
163936,note_on,544,0,3,,,,,,,,,3,,,55,0
163936,note_on,160,0,1,,,,,,,,,1,,,86,0
163936,note_on,160,0,2,,,,,,,,,2,,,74,0
163968,note_on,32,0,4,,,,,,,,,4,,,41,92
163968,note_on,32,0,3,,,,,,,,,3,,,53,92
164160,note_on,224,0,1,,,,,,,,,1,,,84,92
164160,note_on,224,0,2,,,,,,,,,2,,,72,92
164320,note_on,160,0,1,,,,,,,,,1,,,84,0
164320,note_on,160,0,2,,,,,,,,,2,,,72,0
164352,note_on,32,0,2,,,,,,,,,2,,,70,92
164352,note_on,32,0,1,,,,,,,,,1,,,82,92
164512,note_on,544,0,4,,,,,,,,,4,,,41,0
164512,note_on,160,0,2,,,,,,,,,2,,,70,0
164512,note_on,160,0,1,,,,,,,,,1,,,82,0
164512,note_on,544,0,3,,,,,,,,,3,,,53,0
164544,note_on,32,0,4,,,,,,,,,4,,,43,92
164544,note_on,32,0,3,,,,,,,,,3,,,55,92
164736,note_on,224,0,2,,,,,,,,,2,,,67,92
164736,note_on,224,0,1,,,,,,,,,1,,,79,92
164896,note_on,160,0,1,,,,,,,,,1,,,79,0
164896,note_on,160,0,2,,,,,,,,,2,,,67,0
164928,note_on,32,0,1,,,,,,,,,1,,,77,92
164928,note_on,32,0,2,,,,,,,,,2,,,65,92
165088,note_on,160,0,1,,,,,,,,,1,,,77,0
165088,note_on,544,0,4,,,,,,,,,4,,,43,0
165088,note_on,544,0,3,,,,,,,,,3,,,55,0
165088,note_on,160,0,2,,,,,,,,,2,,,65,0
165120,note_on,32,0,4,,,,,,,,,4,,,45,92
165120,note_on,32,0,3,,,,,,,,,3,,,57,92
165312,note_on,224,0,1,,,,,,,,,1,,,81,92
165312,note_on,224,0,2,,,,,,,,,2,,,69,92
165472,note_on,160,0,2,,,,,,,,,2,,,69,0
165472,note_on,160,0,1,,,,,,,,,1,,,81,0
165504,note_on,32,0,1,,,,,,,,,1,,,82,82
165504,note_on,32,0,2,,,,,,,,,2,,,70,82
165664,note_on,544,0,3,,,,,,,,,3,,,57,0
165664,note_on,544,0,4,,,,,,,,,4,,,45,0
165664,note_on,160,0,1,,,,,,,,,1,,,82,0
165664,note_on,160,0,2,,,,,,,,,2,,,70,0
165696,note_on,32,0,4,,,,,,,,,4,,,43,62
165696,note_on,32,0,3,,,,,,,,,3,,,55,62
165888,note_on,224,0,1,,,,,,,,,1,,,84,62
165888,note_on,224,0,2,,,,,,,,,2,,,72,62
166048,note_on,160,0,1,,,,,,,,,1,,,84,0
166048,note_on,160,0,2,,,,,,,,,2,,,72,0
166080,note_on,32,0,1,,,,,,,,,1,,,86,52
166080,note_on,32,0,2,,,,,,,,,2,,,74,52
166240,note_on,544,0,3,,,,,,,,,3,,,55,0
166240,note_on,160,0,2,,,,,,,,,2,,,74,0
166240,note_on,160,0,1,,,,,,,,,1,,,86,0
166240,note_on,544,0,4,,,,,,,,,4,,,43,0
166272,note_on,32,0,3,,,,,,,,,3,,,53,30
166272,note_on,32,0,4,,,,,,,,,4,,,41,30
166320,note_on,48,0,4,,,,,,,,,4,,,41,0
166320,note_on,48,0,3,,,,,,,,,3,,,53,0
166464,note_on,144,0,4,,,,,,,,,4,,,43,30
166464,note_on,224,0,1,,,,,,,,,1,,,84,30
166464,note_on,0,0,2,,,,,,,,,2,,,72,30
166464,note_on,144,0,3,,,,,,,,,3,,,55,30
166464,note_on,224,0,2,,,,,,,,,2,,,64,30
166512,note_on,48,0,3,,,,,,,,,3,,,55,0
166512,note_on,48,0,4,,,,,,,,,4,,,43,0
166624,note_on,160,0,2,,,,,,,,,2,,,64,0
166624,note_on,160,0,1,,,,,,,,,1,,,84,0
166624,note_on,0,0,2,,,,,,,,,2,,,72,0
166656,note_on,32,0,1,,,,,,,,,1,,,84,30
166656,note_on,0,0,2,,,,,,,,,2,,,72,30
166656,note_on,32,0,2,,,,,,,,,2,,,69,30
166656,note_on,144,0,3,,,,,,,,,3,,,53,30
166656,note_on,144,0,4,,,,,,,,,4,,,41,30
166704,note_on,0,0,2,,,,,,,,,2,,,72,0
166704,note_on,48,0,2,,,,,,,,,2,,,69,0
166704,note_on,48,0,4,,,,,,,,,4,,,41,0
166704,note_on,48,0,3,,,,,,,,,3,,,53,0
166704,note_on,48,0,1,,,,,,,,,1,,,84,0
166848,note_on,144,0,2,,,,,,,,,2,,,72,30
166848,note_on,144,0,3,,,,,,,,,3,,,57,30
166848,note_on,144,0,1,,,,,,,,,1,,,84,30
166896,note_on,48,0,1,,,,,,,,,1,,,84,0
166896,note_on,48,0,2,,,,,,,,,2,,,72,0
166896,note_on,48,0,3,,,,,,,,,3,,,57,0
167040,note_on,144,0,2,,,,,,,,,2,,,69,30
167040,note_on,144,0,3,,,,,,,,,3,,,53,30
167040,note_on,144,0,1,,,,,,,,,1,,,87,30
167088,note_on,48,0,2,,,,,,,,,2,,,69,0
167088,note_on,48,0,3,,,,,,,,,3,,,53,0
167088,note_on,48,0,1,,,,,,,,,1,,,87,0
167232,note_on,144,0,2,,,,,,,,,2,,,65,30
167232,note_on,144,0,3,,,,,,,,,3,,,58,30
167232,note_on,144,0,1,,,,,,,,,1,,,86,30
167280,note_on,48,0,2,,,,,,,,,2,,,65,0
167280,note_on,48,0,3,,,,,,,,,3,,,58,0
167280,note_on,48,0,1,,,,,,,,,1,,,86,0
167424,note_on,720,0,4,,,,,,,,,4,,,41,30
167472,note_on,48,0,4,,,,,,,,,4,,,41,0
167616,note_on,144,0,4,,,,,,,,,4,,,43,30
167664,note_on,48,0,4,,,,,,,,,4,,,43,0
167808,note_on,144,0,4,,,,,,,,,4,,,41,30
167856,note_on,48,0,4,,,,,,,,,4,,,41,0
168000,note_on,0,0,2,,,,,,,,,2,,,74,30
168000,note_on,720,0,2,,,,,,,,,2,,,65,30
168000,note_on,720,0,1,,,,,,,,,1,,,88,30
168000,note_on,720,0,3,,,,,,,,,3,,,58,30
168048,note_on,48,0,1,,,,,,,,,1,,,88,0
168048,note_on,48,0,3,,,,,,,,,3,,,58,0
168048,note_on,0,0,2,,,,,,,,,2,,,74,0
168048,note_on,48,0,2,,,,,,,,,2,,,65,0
168192,note_on,144,0,1,,,,,,,,,1,,,89,30
168192,note_on,0,0,2,,,,,,,,,2,,,74,30
168192,note_on,144,0,2,,,,,,,,,2,,,65,30
168192,note_on,144,0,3,,,,,,,,,3,,,58,30
168240,note_on,0,0,2,,,,,,,,,2,,,74,0
168240,note_on,48,0,3,,,,,,,,,3,,,58,0
168240,note_on,48,0,2,,,,,,,,,2,,,65,0
168240,note_on,48,0,1,,,,,,,,,1,,,89,0
168384,note_on,144,0,1,,,,,,,,,1,,,84,30
168384,note_on,144,0,2,,,,,,,,,2,,,69,30
168384,note_on,144,0,3,,,,,,,,,3,,,65,30
168432,note_on,48,0,1,,,,,,,,,1,,,84,0
168544,note_on,160,0,3,,,,,,,,,3,,,65,0
168544,note_on,160,0,2,,,,,,,,,2,,,69,0
168576,note_on,32,0,2,,,,,,,,,2,,,77,30
168576,note_on,32,0,3,,,,,,,,,3,,,65,30
168576,note_on,720,0,4,,,,,,,,,4,,,41,30
168624,note_on,48,0,4,,,,,,,,,4,,,41,0
168736,note_on,160,0,3,,,,,,,,,3,,,65,0
168736,note_on,160,0,2,,,,,,,,,2,,,77,0
168768,note_on,32,0,3,,,,,,,,,3,,,67,30
168768,note_on,144,0,4,,,,,,,,,4,,,39,30
168768,note_on,32,0,2,,,,,,,,,2,,,79,30
168816,note_on,48,0,4,,,,,,,,,4,,,39,0
168928,note_on,160,0,2,,,,,,,,,2,,,79,0
168928,note_on,160,0,3,,,,,,,,,3,,,67,0
168960,note_on,32,0,2,,,,,,,,,2,,,78,30
168960,note_on,32,0,3,,,,,,,,,3,,,66,30
168960,note_on,144,0,4,,,,,,,,,4,,,38,30
169008,note_on,48,0,4,,,,,,,,,4,,,38,0
169120,note_on,160,0,3,,,,,,,,,3,,,66,0
169120,note_on,160,0,2,,,,,,,,,2,,,78,0
169152,note_on,32,0,3,,,,,,,,,3,,,67,30
169152,note_on,144,0,4,,,,,,,,,4,,,40,30
169152,note_on,32,0,2,,,,,,,,,2,,,82,30
169152,note_on,720,0,1,,,,,,,,,1,,,86,30
169200,note_on,48,0,4,,,,,,,,,4,,,40,0
169312,note_on,160,0,3,,,,,,,,,3,,,67,0
169312,note_on,160,0,2,,,,,,,,,2,,,82,0
169312,note_on,160,0,1,,,,,,,,,1,,,86,0
169344,note_on,144,0,4,,,,,,,,,4,,,42,30
169344,note_on,32,0,2,,,,,,,,,2,,,81,30
169344,note_on,32,0,3,,,,,,,,,3,,,69,30
169344,note_on,32,0,1,,,,,,,,,1,,,84,30
169392,note_on,48,0,4,,,,,,,,,4,,,42,0
169504,note_on,160,0,3,,,,,,,,,3,,,69,0
169504,note_on,160,0,1,,,,,,,,,1,,,84,0
169504,note_on,160,0,2,,,,,,,,,2,,,81,0
169536,note_on,32,0,1,,,,,,,,,1,,,84,30
169536,note_on,32,0,2,,,,,,,,,2,,,81,30
169536,note_on,32,0,3,,,,,,,,,3,,,62,30
169536,note_on,144,0,4,,,,,,,,,4,,,43,30
169584,note_on,48,0,1,,,,,,,,,1,,,84,0
169584,note_on,48,0,2,,,,,,,,,2,,,81,0
169696,note_on,160,0,4,,,,,,,,,4,,,43,0
169696,note_on,160,0,3,,,,,,,,,3,,,62,0
169728,note_on,32,0,4,,,,,,,,,4,,,43,30
169728,note_on,144,0,1,,,,,,,,,1,,,82,30
169728,note_on,32,0,3,,,,,,,,,3,,,64,30
169728,note_on,144,0,2,,,,,,,,,2,,,79,30
169776,note_on,48,0,1,,,,,,,,,1,,,82,0
169776,note_on,48,0,2,,,,,,,,,2,,,79,0
169888,note_on,160,0,4,,,,,,,,,4,,,43,0
169888,note_on,160,0,3,,,,,,,,,3,,,64,0
169920,note_on,144,0,2,,,,,,,,,2,,,77,30
169920,note_on,32,0,4,,,,,,,,,4,,,45,30
169920,note_on,32,0,3,,,,,,,,,3,,,60,30
169920,note_on,144,0,1,,,,,,,,,1,,,81,30
169968,note_on,48,0,2,,,,,,,,,2,,,77,0
169968,note_on,48,0,1,,,,,,,,,1,,,81,0
170080,note_on,160,0,4,,,,,,,,,4,,,45,0
170080,note_on,160,0,3,,,,,,,,,3,,,60,0
170112,note_on,32,0,3,,,,,,,,,3,,,62,30
170112,note_on,144,0,2,,,,,,,,,2,,,77,30
170112,note_on,144,0,1,,,,,,,,,1,,,81,30
170112,note_on,32,0,4,,,,,,,,,4,,,46,30
170272,note_on,160,0,4,,,,,,,,,4,,,46,0
170304,note_on,192,0,3,,,,,,,,,3,,,62,0
170304,note_on,0,0,3,,,,,,,,,3,,,55,30
170304,note_on,0,0,2,,,,,,,,,2,,,74,30
170304,note_on,192,0,2,,,,,,,,,2,,,77,0
170304,note_on,32,0,4,,,,,,,,,4,,,46,30
170304,note_on,192,0,1,,,,,,,,,1,,,81,0
170304,note_on,0,0,1,,,,,,,,,1,,,82,30
170464,note_on,160,0,4,,,,,,,,,4,,,46,0
170464,note_on,160,0,1,,,,,,,,,1,,,82,0
170464,note_on,160,0,2,,,,,,,,,2,,,74,0
170464,note_on,160,0,3,,,,,,,,,3,,,55,0
170496,note_on,32,0,2,,,,,,,,,2,,,70,30
170496,note_on,32,0,4,,,,,,,,,4,,,48,30
170496,note_on,0,0,2,,,,,,,,,2,,,76,30
170496,note_on,32,0,3,,,,,,,,,3,,,60,30
170496,note_on,32,0,1,,,,,,,,,1,,,79,30
170544,note_on,48,0,2,,,,,,,,,2,,,70,0
170544,note_on,48,0,1,,,,,,,,,1,,,79,0
170544,note_on,48,0,3,,,,,,,,,3,,,60,0
170544,note_on,0,0,2,,,,,,,,,2,,,76,0
170656,note_on,160,0,4,,,,,,,,,4,,,48,0
170688,note_on,144,0,3,,,,,,,,,3,,,60,30
170688,note_on,144,0,1,,,,,,,,,1,,,81,30
170688,note_on,144,0,2,,,,,,,,,2,,,69,30
170688,note_on,32,0,4,,,,,,,,,4,,,41,30
170736,note_on,48,0,1,,,,,,,,,1,,,81,0
170736,note_on,48,0,2,,,,,,,,,2,,,69,0
170848,note_on,160,0,3,,,,,,,,,3,,,60,0
170848,note_on,160,0,4,,,,,,,,,4,,,41,0
170880,note_on,144,0,1,,,,,,,,,1,,,77,30
170880,note_on,144,0,2,,,,,,,,,2,,,65,30
170928,note_on,48,0,2,,,,,,,,,2,,,65,0
170928,note_on,48,0,1,,,,,,,,,1,,,77,0
171072,note_on,144,0,2,,,,,,,,,2,,,67,30
171072,note_on,144,0,1,,,,,,,,,1,,,79,30
171120,note_on,48,0,2,,,,,,,,,2,,,67,0
171120,note_on,48,0,1,,,,,,,,,1,,,79,0
171264,note_on,144,0,2,,,,,,,,,2,,,65,30
171264,note_on,144,0,1,,,,,,,,,1,,,77,30
171424,note_on,160,0,2,,,,,,,,,2,,,65,0
171424,note_on,160,0,1,,,,,,,,,1,,,77,0
171456,note_on,608,0,4,,,,,,,,,4,,,60,30
171456,note_on,608,0,3,,,,,,,,,3,,,57,30
171504,note_on,48,0,3,,,,,,,,,3,,,57,0
171504,note_on,48,0,4,,,,,,,,,4,,,60,0
171648,note_on,144,0,4,,,,,,,,,4,,,63,30
171648,note_on,144,0,3,,,,,,,,,3,,,60,30
171696,note_on,48,0,3,,,,,,,,,3,,,60,0
171696,note_on,48,0,4,,,,,,,,,4,,,63,0
171840,note_on,144,0,3,,,,,,,,,3,,,58,30
171840,note_on,144,0,4,,,,,,,,,4,,,62,30
172000,note_on,160,0,3,,,,,,,,,3,,,58,0
172000,note_on,160,0,4,,,,,,,,,4,,,62,0
172032,note_on,608,0,1,,,,,,,,,1,,,77,30
172032,note_on,608,0,2,,,,,,,,,2,,,65,30
172192,note_on,160,0,2,,,,,,,,,2,,,65,0
172192,note_on,160,0,1,,,,,,,,,1,,,77,0
172224,note_on,32,0,2,,,,,,,,,2,,,67,30
172224,note_on,32,0,1,,,,,,,,,1,,,79,30
172384,note_on,160,0,1,,,,,,,,,1,,,79,0
172384,note_on,160,0,2,,,,,,,,,2,,,67,0
172416,note_on,32,0,2,,,,,,,,,2,,,65,30
172416,note_on,32,0,1,,,,,,,,,1,,,77,30
172576,note_on,160,0,1,,,,,,,,,1,,,77,0
172576,note_on,160,0,2,,,,,,,,,2,,,65,0
172608,note_on,608,0,3,,,,,,,,,3,,,58,30
172608,note_on,608,0,4,,,,,,,,,4,,,64,30
172768,note_on,160,0,4,,,,,,,,,4,,,64,0
172768,note_on,160,0,3,,,,,,,,,3,,,58,0
172800,note_on,32,0,3,,,,,,,,,3,,,58,30
172800,note_on,32,0,4,,,,,,,,,4,,,65,30
172960,note_on,160,0,4,,,,,,,,,4,,,65,0
172960,note_on,160,0,3,,,,,,,,,3,,,58,0
172992,note_on,32,0,3,,,,,,,,,3,,,57,30
172992,note_on,32,0,4,,,,,,,,,4,,,60,30
173152,note_on,160,0,4,,,,,,,,,4,,,60,0
173152,note_on,160,0,3,,,,,,,,,3,,,57,0
173184,note_on,608,0,1,,,,,,,,,1,,,77,30
173184,note_on,608,0,2,,,,,,,,,2,,,65,30
173344,note_on,160,0,1,,,,,,,,,1,,,77,0
173344,note_on,160,0,2,,,,,,,,,2,,,65,0
173376,note_on,32,0,2,,,,,,,,,2,,,67,30
173376,note_on,32,0,1,,,,,,,,,1,,,79,30
173536,note_on,160,0,2,,,,,,,,,2,,,67,0
173536,note_on,160,0,1,,,,,,,,,1,,,79,0
173568,note_on,32,0,2,,,,,,,,,2,,,65,30
173568,note_on,32,0,1,,,,,,,,,1,,,77,30
173728,note_on,160,0,2,,,,,,,,,2,,,65,0
173728,note_on,160,0,1,,,,,,,,,1,,,77,0
173760,note_on,608,0,4,,,,,,,,,4,,,63,30
173760,note_on,608,0,3,,,,,,,,,3,,,60,30
173760,note_on,32,0,1,,,,,,,,,1,,,78,30
173760,note_on,32,0,2,,,,,,,,,2,,,66,30
173920,note_on,160,0,1,,,,,,,,,1,,,78,0
173920,note_on,160,0,3,,,,,,,,,3,,,60,0
173920,note_on,160,0,4,,,,,,,,,4,,,63,0
173920,note_on,160,0,2,,,,,,,,,2,,,66,0
173952,note_on,32,0,4,,,,,,,,,4,,,62,30
173952,note_on,32,0,3,,,,,,,,,3,,,58,30
173952,note_on,32,0,1,,,,,,,,,1,,,79,30
173952,note_on,32,0,2,,,,,,,,,2,,,67,30
174112,note_on,160,0,3,,,,,,,,,3,,,58,0
174112,note_on,160,0,1,,,,,,,,,1,,,79,0
174112,note_on,160,0,2,,,,,,,,,2,,,67,0
174112,note_on,160,0,4,,,,,,,,,4,,,62,0
174144,note_on,32,0,1,,,,,,,,,1,,,79,30
174144,note_on,32,0,4,,,,,,,,,4,,,62,30
174144,note_on,32,0,2,,,,,,,,,2,,,67,30
174144,note_on,32,0,3,,,,,,,,,3,,,58,30
174192,note_on,48,0,4,,,,,,,,,4,,,62,0
174192,note_on,48,0,3,,,,,,,,,3,,,58,0
174304,note_on,160,0,2,,,,,,,,,2,,,67,0
174304,note_on,160,0,1,,,,,,,,,1,,,79,0
174336,note_on,144,0,4,,,,,,,,,4,,,60,30
174336,note_on,32,0,2,,,,,,,,,2,,,67,30
174336,note_on,32,0,1,,,,,,,,,1,,,79,30
174336,note_on,144,0,3,,,,,,,,,3,,,57,30
174384,note_on,48,0,4,,,,,,,,,4,,,60,0
174384,note_on,48,0,3,,,,,,,,,3,,,57,0
174496,note_on,160,0,2,,,,,,,,,2,,,67,0
174496,note_on,160,0,1,,,,,,,,,1,,,79,0
174528,note_on,144,0,4,,,,,,,,,4,,,58,30
174528,note_on,32,0,1,,,,,,,,,1,,,84,30
174528,note_on,32,0,2,,,,,,,,,2,,,72,30
174528,note_on,144,0,3,,,,,,,,,3,,,55,30
174576,note_on,48,0,3,,,,,,,,,3,,,55,0
174576,note_on,48,0,4,,,,,,,,,4,,,58,0
174688,note_on,160,0,2,,,,,,,,,2,,,72,0
174688,note_on,160,0,1,,,,,,,,,1,,,84,0
174720,note_on,144,0,4,,,,,,,,,4,,,57,30
174720,note_on,144,0,3,,,,,,,,,3,,,53,30
174720,note_on,32,0,1,,,,,,,,,1,,,84,30
174720,note_on,32,0,2,,,,,,,,,2,,,72,30
174880,note_on,160,0,1,,,,,,,,,1,,,84,0
174880,note_on,160,0,2,,,,,,,,,2,,,72,0
174912,note_on,192,0,4,,,,,,,,,4,,,57,0
174912,note_on,192,0,3,,,,,,,,,3,,,53,0
174912,note_on,0,0,3,,,,,,,,,3,,,55,30
174912,note_on,0,0,4,,,,,,,,,4,,,58,30
174912,note_on,32,0,1,,,,,,,,,1,,,84,30
174912,note_on,32,0,2,,,,,,,,,2,,,72,30
175072,note_on,160,0,2,,,,,,,,,2,,,72,0
175072,note_on,160,0,1,,,,,,,,,1,,,84,0
175072,note_on,160,0,3,,,,,,,,,3,,,55,0
175072,note_on,160,0,4,,,,,,,,,4,,,58,0
175104,note_on,32,0,4,,,,,,,,,4,,,55,30
175104,note_on,32,0,1,,,,,,,,,1,,,84,30
175104,note_on,32,0,3,,,,,,,,,3,,,52,30
175104,note_on,32,0,2,,,,,,,,,2,,,72,30
175152,note_on,48,0,4,,,,,,,,,4,,,55,0
175152,note_on,48,0,3,,,,,,,,,3,,,52,0
175264,note_on,160,0,1,,,,,,,,,1,,,84,0
175264,note_on,160,0,2,,,,,,,,,2,,,72,0
175296,note_on,32,0,2,,,,,,,,,2,,,72,30
175296,note_on,144,0,4,,,,,,,,,4,,,57,30
175296,note_on,144,0,3,,,,,,,,,3,,,53,30
175296,note_on,32,0,1,,,,,,,,,1,,,84,30
175344,note_on,48,0,3,,,,,,,,,3,,,53,0
175344,note_on,48,0,2,,,,,,,,,2,,,72,0
175344,note_on,48,0,1,,,,,,,,,1,,,84,0
175344,note_on,48,0,4,,,,,,,,,4,,,57,0
175488,note_on,144,0,2,,,,,,,,,2,,,60,30
175488,note_on,144,0,1,,,,,,,,,1,,,82,30
175488,note_on,144,0,3,,,,,,,,,3,,,64,30
175488,note_on,144,0,4,,,,,,,,,4,,,55,30
175536,note_on,48,0,2,,,,,,,,,2,,,60,0
175536,note_on,48,0,3,,,,,,,,,3,,,64,0
175536,note_on,48,0,4,,,,,,,,,4,,,55,0
175536,note_on,48,0,1,,,,,,,,,1,,,82,0
175680,note_on,144,0,1,,,,,,,,,1,,,81,30
175680,note_on,144,0,2,,,,,,,,,2,,,72,30
175680,note_on,144,0,4,,,,,,,,,4,,,57,30
175680,note_on,144,0,3,,,,,,,,,3,,,65,30
175728,note_on,48,0,1,,,,,,,,,1,,,81,0
175728,note_on,48,0,2,,,,,,,,,2,,,72,0
175728,note_on,48,0,3,,,,,,,,,3,,,65,0
175728,note_on,48,0,4,,,,,,,,,4,,,57,0
175872,note_on,144,0,4,,,,,,,,,4,,,58,30
175872,note_on,144,0,1,,,,,,,,,1,,,81,30
175872,note_on,144,0,2,,,,,,,,,2,,,72,30
175872,note_on,144,0,3,,,,,,,,,3,,,62,30
176064,note_on,0,0,4,,,,,,,,,4,,,46,35
176064,note_on,192,0,4,,,,,,,,,4,,,58,0
176064,note_on,192,0,2,,,,,,,,,2,,,72,0
176064,note_on,0,0,2,,,,,,,,,2,,,67,35
176064,note_on,0,0,2,,,,,,,,,2,,,74,35
176064,note_on,192,0,3,,,,,,,,,3,,,62,0
176064,note_on,192,0,1,,,,,,,,,1,,,81,0
176064,note_on,0,0,3,,,,,,,,,3,,,50,35
176064,note_on,0,0,1,,,,,,,,,1,,,82,35
176224,note_on,160,0,1,,,,,,,,,1,,,82,0
176224,note_on,0,0,2,,,,,,,,,2,,,74,0
176224,note_on,160,0,4,,,,,,,,,4,,,46,0
176224,note_on,160,0,2,,,,,,,,,2,,,67,0
176224,note_on,160,0,3,,,,,,,,,3,,,50,0
176256,note_on,32,0,4,,,,,,,,,4,,,48,40
176256,note_on,32,0,2,,,,,,,,,2,,,64,40
176256,note_on,32,0,3,,,,,,,,,3,,,52,40
176256,note_on,32,0,1,,,,,,,,,1,,,79,40
176304,note_on,48,0,2,,,,,,,,,2,,,64,0
176304,note_on,48,0,1,,,,,,,,,1,,,79,0
176304,note_on,48,0,3,,,,,,,,,3,,,52,0
176304,note_on,48,0,4,,,,,,,,,4,,,48,0
176448,note_on,144,0,3,,,,,,,,,3,,,52,45
176448,note_on,144,0,4,,,,,,,,,4,,,48,45
176448,note_on,144,0,1,,,,,,,,,1,,,79,45
176448,note_on,144,0,2,,,,,,,,,2,,,70,45
176496,note_on,48,0,4,,,,,,,,,4,,,48,0
176640,note_on,144,0,4,,,,,,,,,4,,,36,50
176640,note_on,192,0,2,,,,,,,,,2,,,70,0
176640,note_on,0,0,3,,,,,,,,,3,,,53,50
176640,note_on,192,0,3,,,,,,,,,3,,,52,0
176640,note_on,192,0,1,,,,,,,,,1,,,79,0
176640,note_on,0,0,2,,,,,,,,,2,,,69,50
176640,note_on,0,0,1,,,,,,,,,1,,,81,50
176688,note_on,48,0,4,,,,,,,,,4,,,36,0
176800,note_on,160,0,2,,,,,,,,,2,,,69,0
176800,note_on,160,0,3,,,,,,,,,3,,,53,0
176800,note_on,160,0,1,,,,,,,,,1,,,81,0
176832,note_on,144,0,4,,,,,,,,,4,,,36,55
176832,note_on,32,0,3,,,,,,,,,3,,,57,55
176832,note_on,32,0,2,,,,,,,,,2,,,65,55
176832,note_on,0,0,2,,,,,,,,,2,,,69,55
176832,note_on,32,0,1,,,,,,,,,1,,,77,55
176880,note_on,48,0,1,,,,,,,,,1,,,77,0
176880,note_on,0,0,2,,,,,,,,,2,,,69,0
176880,note_on,48,0,3,,,,,,,,,3,,,57,0
176880,note_on,48,0,2,,,,,,,,,2,,,65,0
176880,note_on,48,0,4,,,,,,,,,4,,,36,0
177024,note_on,144,0,1,,,,,,,,,1,,,76,60
177024,note_on,144,0,2,,,,,,,,,2,,,67,60
177024,note_on,144,0,3,,,,,,,,,3,,,58,60
177024,note_on,144,0,4,,,,,,,,,4,,,36,60
177184,note_on,160,0,4,,,,,,,,,4,,,36,0
177216,note_on,192,0,1,,,,,,,,,1,,,76,0
177216,note_on,192,0,3,,,,,,,,,3,,,58,0
177216,note_on,0,0,1,,,,,,,,,1,,,77,65
177216,note_on,32,0,4,,,,,,,,,4,,,36,65
177216,note_on,192,0,2,,,,,,,,,2,,,67,0
177216,note_on,0,0,2,,,,,,,,,2,,,65,65
177216,note_on,0,0,3,,,,,,,,,3,,,57,65
177376,note_on,160,0,4,,,,,,,,,4,,,36,0
177376,note_on,160,0,2,,,,,,,,,2,,,65,0
177376,note_on,160,0,1,,,,,,,,,1,,,77,0
177376,note_on,160,0,3,,,,,,,,,3,,,57,0
177408,note_on,32,0,4,,,,,,,,,4,,,36,70
177408,note_on,32,0,1,,,,,,,,,1,,,79,70
177408,note_on,32,0,3,,,,,,,,,3,,,55,70
177408,note_on,32,0,2,,,,,,,,,2,,,64,70
177456,note_on,48,0,1,,,,,,,,,1,,,79,0
177456,note_on,48,0,3,,,,,,,,,3,,,55,0
177456,note_on,48,0,2,,,,,,,,,2,,,64,0
177568,note_on,160,0,4,,,,,,,,,4,,,36,0
177600,note_on,144,0,1,,,,,,,,,1,,,76,75
177600,note_on,144,0,3,,,,,,,,,3,,,55,75
177600,note_on,32,0,4,,,,,,,,,4,,,36,75
177600,note_on,144,0,2,,,,,,,,,2,,,70,75
177648,note_on,48,0,2,,,,,,,,,2,,,70,0
177792,note_on,192,0,4,,,,,,,,,4,,,36,0
177792,note_on,192,0,1,,,,,,,,,1,,,76,0
177792,note_on,0,0,3,,,,,,,,,3,,,53,72
177792,note_on,192,0,3,,,,,,,,,3,,,55,0
177792,note_on,144,0,2,,,,,,,,,2,,,58,72
177792,note_on,0,0,1,,,,,,,,,1,,,77,72
177792,note_on,0,0,4,,,,,,,,,4,,,38,72
177840,note_on,48,0,2,,,,,,,,,2,,,58,0
177952,note_on,160,0,3,,,,,,,,,3,,,53,0
177952,note_on,160,0,4,,,,,,,,,4,,,38,0
177952,note_on,160,0,1,,,,,,,,,1,,,77,0
177984,note_on,32,0,3,,,,,,,,,3,,,52,69
177984,note_on,32,0,4,,,,,,,,,4,,,40,69
177984,note_on,32,0,1,,,,,,,,,1,,,79,69
177984,note_on,144,0,2,,,,,,,,,2,,,70,69
178032,note_on,48,0,2,,,,,,,,,2,,,70,0
178032,note_on,48,0,3,,,,,,,,,3,,,52,0
178032,note_on,48,0,1,,,,,,,,,1,,,79,0
178032,note_on,48,0,4,,,,,,,,,4,,,40,0
178176,note_on,144,0,1,,,,,,,,,1,,,72,66
178176,note_on,144,0,2,,,,,,,,,2,,,69,66
178176,note_on,144,0,3,,,,,,,,,3,,,57,66
178176,note_on,144,0,4,,,,,,,,,4,,,41,66
178224,note_on,48,0,2,,,,,,,,,2,,,69,0
178224,note_on,48,0,3,,,,,,,,,3,,,57,0
178224,note_on,48,0,4,,,,,,,,,4,,,41,0
178336,note_on,160,0,1,,,,,,,,,1,,,72,0
178368,note_on,144,0,3,,,,,,,,,3,,,58,63
178368,note_on,144,0,4,,,,,,,,,4,,,43,63
178368,note_on,32,0,1,,,,,,,,,1,,,72,63
178368,note_on,144,0,2,,,,,,,,,2,,,67,63
178416,note_on,48,0,4,,,,,,,,,4,,,43,0
178416,note_on,48,0,2,,,,,,,,,2,,,67,0
178416,note_on,48,0,3,,,,,,,,,3,,,58,0
178528,note_on,160,0,1,,,,,,,,,1,,,72,0
178560,note_on,144,0,2,,,,,,,,,2,,,65,60
178560,note_on,144,0,3,,,,,,,,,3,,,60,60
178560,note_on,144,0,4,,,,,,,,,4,,,45,60
178560,note_on,32,0,1,,,,,,,,,1,,,72,60
178608,note_on,48,0,2,,,,,,,,,2,,,65,0
178608,note_on,48,0,3,,,,,,,,,3,,,60,0
178608,note_on,48,0,4,,,,,,,,,4,,,45,0
178720,note_on,160,0,1,,,,,,,,,1,,,72,0
178752,note_on,144,0,3,,,,,,,,,3,,,55,57
178752,note_on,144,0,2,,,,,,,,,2,,,58,57
178752,note_on,32,0,1,,,,,,,,,1,,,76,57
178752,note_on,144,0,4,,,,,,,,,4,,,36,57
178912,note_on,160,0,2,,,,,,,,,2,,,58,0
178944,note_on,192,0,4,,,,,,,,,4,,,36,0
178944,note_on,192,0,1,,,,,,,,,1,,,76,0
178944,note_on,0,0,1,,,,,,,,,1,,,77,53
178944,note_on,32,0,2,,,,,,,,,2,,,70,53
178944,note_on,192,0,3,,,,,,,,,3,,,55,0
178944,note_on,0,0,3,,,,,,,,,3,,,53,53
178944,note_on,0,0,4,,,,,,,,,4,,,38,53
179104,note_on,160,0,2,,,,,,,,,2,,,70,0
179104,note_on,160,0,3,,,,,,,,,3,,,53,0
179104,note_on,160,0,1,,,,,,,,,1,,,77,0
179104,note_on,160,0,4,,,,,,,,,4,,,38,0
179136,note_on,32,0,3,,,,,,,,,3,,,52,49
179136,note_on,32,0,1,,,,,,,,,1,,,79,49
179136,note_on,32,0,2,,,,,,,,,2,,,70,49
179136,note_on,32,0,4,,,,,,,,,4,,,40,49
179184,note_on,48,0,1,,,,,,,,,1,,,79,0
179184,note_on,48,0,4,,,,,,,,,4,,,40,0
179184,note_on,48,0,3,,,,,,,,,3,,,52,0
179296,note_on,160,0,2,,,,,,,,,2,,,70,0
179328,note_on,144,0,1,,,,,,,,,1,,,72,45
179328,note_on,144,0,3,,,,,,,,,3,,,57,45
179328,note_on,32,0,2,,,,,,,,,2,,,69,45
179328,note_on,144,0,4,,,,,,,,,4,,,41,45
179376,note_on,48,0,2,,,,,,,,,2,,,69,0
179376,note_on,48,0,4,,,,,,,,,4,,,41,0
179376,note_on,48,0,3,,,,,,,,,3,,,57,0
179488,note_on,160,0,1,,,,,,,,,1,,,72,0
179520,note_on,144,0,2,,,,,,,,,2,,,67,45
179520,note_on,144,0,4,,,,,,,,,4,,,43,45
179520,note_on,32,0,1,,,,,,,,,1,,,72,45
179520,note_on,144,0,3,,,,,,,,,3,,,58,45
179568,note_on,48,0,3,,,,,,,,,3,,,58,0
179568,note_on,48,0,2,,,,,,,,,2,,,67,0
179568,note_on,48,0,4,,,,,,,,,4,,,43,0
179680,note_on,160,0,1,,,,,,,,,1,,,72,0
179712,note_on,32,0,1,,,,,,,,,1,,,72,45
179712,note_on,144,0,4,,,,,,,,,4,,,45,45
179712,note_on,144,0,3,,,,,,,,,3,,,60,45
179712,note_on,144,0,2,,,,,,,,,2,,,65,45
179760,note_on,48,0,2,,,,,,,,,2,,,65,0
179760,note_on,48,0,3,,,,,,,,,3,,,60,0
179760,note_on,48,0,4,,,,,,,,,4,,,45,0
179872,note_on,160,0,1,,,,,,,,,1,,,72,0
179904,note_on,32,0,1,,,,,,,,,1,,,76,45
179904,note_on,144,0,3,,,,,,,,,3,,,55,45
179904,note_on,144,0,2,,,,,,,,,2,,,58,45
179904,note_on,144,0,4,,,,,,,,,4,,,36,45
180064,note_on,160,0,2,,,,,,,,,2,,,58,0
180096,note_on,0,0,3,,,,,,,,,3,,,53,43
180096,note_on,192,0,4,,,,,,,,,4,,,36,0
180096,note_on,0,0,1,,,,,,,,,1,,,77,43
180096,note_on,192,0,1,,,,,,,,,1,,,76,0
180096,note_on,192,0,3,,,,,,,,,3,,,55,0
180096,note_on,0,0,4,,,,,,,,,4,,,38,43
180096,note_on,32,0,2,,,,,,,,,2,,,70,43
180256,note_on,160,0,2,,,,,,,,,2,,,70,0
180256,note_on,160,0,3,,,,,,,,,3,,,53,0
180256,note_on,160,0,4,,,,,,,,,4,,,38,0
180256,note_on,160,0,1,,,,,,,,,1,,,77,0
180288,note_on,32,0,3,,,,,,,,,3,,,52,41
180288,note_on,32,0,2,,,,,,,,,2,,,70,41
180288,note_on,32,0,1,,,,,,,,,1,,,79,41
180288,note_on,32,0,4,,,,,,,,,4,,,40,41
180336,note_on,48,0,1,,,,,,,,,1,,,79,0
180336,note_on,48,0,3,,,,,,,,,3,,,52,0
180336,note_on,48,0,4,,,,,,,,,4,,,40,0
180448,note_on,160,0,2,,,,,,,,,2,,,70,0
180480,note_on,32,0,2,,,,,,,,,2,,,69,39
180480,note_on,144,0,3,,,,,,,,,3,,,57,39
180480,note_on,144,0,1,,,,,,,,,1,,,72,39
180480,note_on,144,0,4,,,,,,,,,4,,,41,39
180528,note_on,48,0,2,,,,,,,,,2,,,69,0
180528,note_on,48,0,3,,,,,,,,,3,,,57,0
180528,note_on,48,0,4,,,,,,,,,4,,,41,0
180640,note_on,160,0,1,,,,,,,,,1,,,72,0
180672,note_on,32,0,1,,,,,,,,,1,,,72,36
180672,note_on,144,0,2,,,,,,,,,2,,,67,36
180672,note_on,144,0,3,,,,,,,,,3,,,58,36
180672,note_on,144,0,4,,,,,,,,,4,,,43,36
180720,note_on,48,0,2,,,,,,,,,2,,,67,0
180720,note_on,48,0,4,,,,,,,,,4,,,43,0
180720,note_on,48,0,3,,,,,,,,,3,,,58,0
180832,note_on,160,0,1,,,,,,,,,1,,,72,0
180864,note_on,32,0,1,,,,,,,,,1,,,72,33
180864,note_on,144,0,3,,,,,,,,,3,,,60,33
180864,note_on,144,0,4,,,,,,,,,4,,,45,33
180864,note_on,144,0,2,,,,,,,,,2,,,65,33
180912,note_on,48,0,3,,,,,,,,,3,,,60,0
180912,note_on,48,0,4,,,,,,,,,4,,,45,0
180912,note_on,48,0,2,,,,,,,,,2,,,65,0
181024,note_on,160,0,1,,,,,,,,,1,,,72,0
181056,note_on,144,0,3,,,,,,,,,3,,,55,30
181056,note_on,32,0,1,,,,,,,,,1,,,76,30
181056,note_on,144,0,2,,,,,,,,,2,,,58,30
181056,note_on,144,0,4,,,,,,,,,4,,,36,30
181216,note_on,160,0,2,,,,,,,,,2,,,58,0
181248,note_on,32,0,2,,,,,,,,,2,,,70,30
181248,note_on,0,0,3,,,,,,,,,3,,,53,30
181248,note_on,192,0,3,,,,,,,,,3,,,55,0
181248,note_on,192,0,4,,,,,,,,,4,,,36,0
181248,note_on,0,0,4,,,,,,,,,4,,,38,30
181248,note_on,192,0,1,,,,,,,,,1,,,76,0
181248,note_on,0,0,1,,,,,,,,,1,,,77,30
181408,note_on,160,0,3,,,,,,,,,3,,,53,0
181408,note_on,160,0,2,,,,,,,,,2,,,70,0
181408,note_on,160,0,4,,,,,,,,,4,,,38,0
181408,note_on,160,0,1,,,,,,,,,1,,,77,0
181440,note_on,32,0,4,,,,,,,,,4,,,40,30
181440,note_on,32,0,3,,,,,,,,,3,,,52,30
181440,note_on,32,0,1,,,,,,,,,1,,,79,30
181440,note_on,32,0,2,,,,,,,,,2,,,70,30
181488,note_on,48,0,4,,,,,,,,,4,,,40,0
181488,note_on,48,0,3,,,,,,,,,3,,,52,0
181488,note_on,48,0,1,,,,,,,,,1,,,79,0
181600,note_on,160,0,2,,,,,,,,,2,,,70,0
181632,note_on,144,0,1,,,,,,,,,1,,,72,92
181632,note_on,144,0,3,,,,,,,,,3,,,53,92
181632,note_on,32,0,2,,,,,,,,,2,,,69,92
181632,note_on,144,0,4,,,,,,,,,4,,,41,92
181792,note_on,160,0,2,,,,,,,,,2,,,69,0
181792,note_on,160,0,1,,,,,,,,,1,,,72,0
181792,note_on,160,0,3,,,,,,,,,3,,,53,0
181792,note_on,160,0,4,,,,,,,,,4,,,41,0
181824,note_on,32,0,1,,,,,,,,,1,,,63,127
181824,note_on,32,0,4,,,,,,,,,4,,,39,127
181824,note_on,32,0,3,,,,,,,,,3,,,51,127
182160,note_on,336,0,4,,,,,,,,,4,,,39,0
182160,note_on,336,0,1,,,,,,,,,1,,,63,0
182160,note_on,336,0,3,,,,,,,,,3,,,51,0
182400,note_on,240,0,3,,,,,,,,,3,,,51,89
182400,note_on,240,0,4,,,,,,,,,4,,,39,89
182736,note_on,336,0,3,,,,,,,,,3,,,51,0
182736,note_on,336,0,4,,,,,,,,,4,,,39,0
182784,note_on,48,0,3,,,,,,,,,3,,,51,82
182784,note_on,48,0,4,,,,,,,,,4,,,39,82
183120,note_on,336,0,3,,,,,,,,,3,,,51,0
183120,note_on,336,0,4,,,,,,,,,4,,,39,0
183168,note_on,48,0,4,,,,,,,,,4,,,39,75
183168,note_on,48,0,3,,,,,,,,,3,,,51,75
183328,note_on,160,0,4,,,,,,,,,4,,,39,0
183328,note_on,160,0,3,,,,,,,,,3,,,51,0
183552,note_on,224,0,3,,,,,,,,,3,,,51,69
183552,note_on,224,0,4,,,,,,,,,4,,,39,69
183552,note_on,1392,0,1,,,,,,,,,1,,,63,68
183888,note_on,336,0,1,,,,,,,,,1,,,63,0
183888,note_on,336,0,4,,,,,,,,,4,,,39,0
183888,note_on,336,0,3,,,,,,,,,3,,,51,0
183936,note_on,48,0,1,,,,,,,,,1,,,63,61
183936,note_on,48,0,3,,,,,,,,,3,,,51,61
183936,note_on,48,0,4,,,,,,,,,4,,,39,61
184272,note_on,336,0,4,,,,,,,,,4,,,39,0
184272,note_on,336,0,3,,,,,,,,,3,,,51,0
184272,note_on,336,0,1,,,,,,,,,1,,,63,0
184320,note_on,48,0,1,,,,,,,,,1,,,63,53
184320,note_on,48,0,4,,,,,,,,,4,,,39,53
184320,note_on,48,0,3,,,,,,,,,3,,,51,53
184480,note_on,160,0,4,,,,,,,,,4,,,39,0
184480,note_on,160,0,1,,,,,,,,,1,,,63,0
184480,note_on,160,0,3,,,,,,,,,3,,,51,0
184704,note_on,224,0,1,,,,,,,,,1,,,63,45
184704,note_on,224,0,3,,,,,,,,,3,,,51,45
184704,note_on,224,0,4,,,,,,,,,4,,,39,45
185040,note_on,336,0,3,,,,,,,,,3,,,51,0
185040,note_on,336,0,1,,,,,,,,,1,,,63,0
185040,note_on,336,0,4,,,,,,,,,4,,,39,0
185280,note_on,240,0,1,,,,,,,,,1,,,63,45
185280,note_on,240,0,3,,,,,,,,,3,,,51,45
185280,note_on,240,0,4,,,,,,,,,4,,,39,45
185616,note_on,336,0,1,,,,,,,,,1,,,63,0
185616,note_on,336,0,3,,,,,,,,,3,,,51,0
185616,note_on,336,0,4,,,,,,,,,4,,,39,0
185856,note_on,240,0,3,,,,,,,,,3,,,52,30
185856,note_on,240,0,4,,,,,,,,,4,,,40,30
185856,note_on,240,0,1,,,,,,,,,1,,,64,30
186192,note_on,336,0,1,,,,,,,,,1,,,64,0
186192,note_on,336,0,3,,,,,,,,,3,,,52,0
186192,note_on,336,0,4,,,,,,,,,4,,,40,0
186432,note_on,240,0,3,,,,,,,,,3,,,52,30
186432,note_on,240,0,4,,,,,,,,,4,,,36,30
186432,note_on,240,0,1,,,,,,,,,1,,,64,30
186768,note_on,336,0,3,,,,,,,,,3,,,52,0
186768,note_on,336,0,1,,,,,,,,,1,,,64,0
186816,note_on,48,0,3,,,,,,,,,3,,,53,35
186976,note_on,160,0,3,,,,,,,,,3,,,53,0
187008,note_on,240,0,1,,,,,,,,,1,,,69,36
187008,note_on,32,0,3,,,,,,,,,3,,,48,37
187152,note_on,720,0,4,,,,,,,,,4,,,36,0
187200,note_on,48,0,4,,,,,,,,,4,,,36,40
187200,note_on,5408,0,2,,,,,,,,,2,,,65,38
187200,note_on,192,0,3,,,,,,,,,3,,,57,39
187392,note_on,0,0,3,,,,,,,,,3,,,59,41
187392,note_on,192,0,3,,,,,,,,,3,,,57,0
187552,note_on,0,0,3,,,,,,,,,3,,,59,0
187552,note_on,160,0,3,,,,,,,,,3,,,48,0
187552,note_on,544,0,1,,,,,,,,,1,,,69,0
187584,note_on,32,0,3,,,,,,,,,3,,,48,43
187584,note_on,32,0,1,,,,,,,,,1,,,67,42
187728,note_on,528,0,4,,,,,,,,,4,,,36,0
187776,note_on,192,0,3,,,,,,,,,3,,,60,45
187776,note_on,0,0,2,,,,,,,,,2,,,64,44
187776,note_on,48,0,4,,,,,,,,,4,,,36,47
187776,note_on,576,0,2,,,,,,,,,2,,,65,0
187968,note_on,0,0,3,,,,,,,,,3,,,62,47
187968,note_on,192,0,2,,,,,,,,,2,,,64,0
187968,note_on,0,0,2,,,,,,,,,2,,,57,46
187968,note_on,192,0,3,,,,,,,,,3,,,60,0
188128,note_on,160,0,3,,,,,,,,,3,,,48,0
188128,note_on,544,0,1,,,,,,,,,1,,,67,0
188128,note_on,0,0,3,,,,,,,,,3,,,62,0
188160,note_on,32,0,1,,,,,,,,,1,,,65,49
188160,note_on,32,0,3,,,,,,,,,3,,,48,49
188304,note_on,528,0,4,,,,,,,,,4,,,36,0
188352,note_on,192,0,3,,,,,,,,,3,,,60,51
188352,note_on,0,0,2,,,,,,,,,2,,,56,51
188352,note_on,384,0,2,,,,,,,,,2,,,57,0
188352,note_on,48,0,4,,,,,,,,,4,,,36,54
188544,note_on,192,0,3,,,,,,,,,3,,,60,0
188544,note_on,192,0,2,,,,,,,,,2,,,56,0
188544,note_on,0,0,2,,,,,,,,,2,,,62,53
188544,note_on,0,0,3,,,,,,,,,3,,,59,53
188704,note_on,0,0,3,,,,,,,,,3,,,59,0
188704,note_on,160,0,3,,,,,,,,,3,,,48,0
188704,note_on,544,0,1,,,,,,,,,1,,,65,0
188736,note_on,32,0,3,,,,,,,,,3,,,48,56
188736,note_on,32,0,1,,,,,,,,,1,,,67,56
188880,note_on,528,0,4,,,,,,,,,4,,,36,0
188928,note_on,0,0,3,,,,,,,,,3,,,58,59
188928,note_on,0,0,3,,,,,,,,,3,,,49,59
188928,note_on,192,0,3,,,,,,,,,3,,,48,0
188928,note_on,384,0,2,,,,,,,,,2,,,62,0
188928,note_on,48,0,4,,,,,,,,,4,,,36,61
188928,note_on,0,0,2,,,,,,,,,2,,,64,58
189120,note_on,192,0,3,,,,,,,,,3,,,49,0
189120,note_on,0,0,3,,,,,,,,,3,,,57,62
189120,note_on,0,0,3,,,,,,,,,3,,,58,0
189120,note_on,0,0,3,,,,,,,,,3,,,48,62
189280,note_on,544,0,1,,,,,,,,,1,,,67,0
189280,note_on,0,0,3,,,,,,,,,3,,,57,0
189280,note_on,352,0,2,,,,,,,,,2,,,64,0
189280,note_on,160,0,3,,,,,,,,,3,,,48,0
189312,note_on,32,0,3,,,,,,,,,3,,,48,65
189312,note_on,32,0,2,,,,,,,,,2,,,57,62
189312,note_on,32,0,1,,,,,,,,,1,,,69,63
189456,note_on,528,0,4,,,,,,,,,4,,,36,0
189504,note_on,0,0,2,,,,,,,,,2,,,65,64
189504,note_on,192,0,3,,,,,,,,,3,,,57,68
189504,note_on,48,0,4,,,,,,,,,4,,,36,68
189504,note_on,192,0,2,,,,,,,,,2,,,57,0
189696,note_on,192,0,3,,,,,,,,,3,,,57,0
189696,note_on,0,0,3,,,,,,,,,3,,,59,71
189856,note_on,0,0,3,,,,,,,,,3,,,59,0
189856,note_on,160,0,3,,,,,,,,,3,,,48,0
189856,note_on,352,0,2,,,,,,,,,2,,,65,0
189856,note_on,544,0,1,,,,,,,,,1,,,69,0
189888,note_on,32,0,3,,,,,,,,,3,,,48,74
189888,note_on,32,0,2,,,,,,,,,2,,,65,68
189888,note_on,32,0,1,,,,,,,,,1,,,67,70
190032,note_on,528,0,4,,,,,,,,,4,,,36,0
190080,note_on,192,0,3,,,,,,,,,3,,,60,77
190080,note_on,48,0,4,,,,,,,,,4,,,36,77
190080,note_on,0,0,2,,,,,,,,,2,,,64,71
190080,note_on,192,0,2,,,,,,,,,2,,,65,0
190240,note_on,160,0,2,,,,,,,,,2,,,64,0
190272,note_on,0,0,3,,,,,,,,,3,,,59,80
190272,note_on,192,0,3,,,,,,,,,3,,,60,0
190272,note_on,32,0,2,,,,,,,,,2,,,56,74
190320,note_on,432,0,1,,,,,,,,,1,,,67,0
190432,note_on,0,0,3,,,,,,,,,3,,,59,0
190432,note_on,160,0,3,,,,,,,,,3,,,48,0
190464,note_on,144,0,1,,,,,,,,,1,,,65,77
190464,note_on,192,0,2,,,,,,,,,2,,,62,77
190464,note_on,32,0,3,,,,,,,,,3,,,48,83
190512,note_on,48,0,1,,,,,,,,,1,,,65,0
190608,note_on,528,0,4,,,,,,,,,4,,,36,0
190608,note_on,144,0,2,,,,,,,,,2,,,56,0
190624,note_on,16,0,2,,,,,,,,,2,,,62,0
190656,note_on,48,0,4,,,,,,,,,4,,,36,86
190656,note_on,144,0,1,,,,,,,,,1,,,67,80
190656,note_on,32,0,2,,,,,,,,,2,,,55,80
190656,note_on,192,0,3,,,,,,,,,3,,,58,86
190656,note_on,0,0,2,,,,,,,,,2,,,64,80
190704,note_on,48,0,1,,,,,,,,,1,,,67,0
190816,note_on,0,0,2,,,,,,,,,2,,,64,0
190816,note_on,160,0,2,,,,,,,,,2,,,55,0
190848,note_on,32,0,2,,,,,,,,,2,,,57,83
190848,note_on,192,0,3,,,,,,,,,3,,,58,0
190848,note_on,144,0,1,,,,,,,,,1,,,65,83
191008,note_on,160,0,1,,,,,,,,,1,,,65,0
191008,note_on,160,0,2,,,,,,,,,2,,,57,0
191008,note_on,160,0,3,,,,,,,,,3,,,48,0
191008,note_on,352,0,4,,,,,,,,,4,,,36,0
191040,note_on,32,0,3,,,,,,,,,3,,,53,92
191040,note_on,32,0,4,,,,,,,,,4,,,41,92
191088,note_on,48,0,4,,,,,,,,,4,,,41,0
191088,note_on,48,0,3,,,,,,,,,3,,,53,0
191232,note_on,144,0,3,,,,,,,,,3,,,55,92
191232,note_on,144,0,4,,,,,,,,,4,,,43,92
191424,note_on,416,0,1,,,,,,,,,1,,,77,92
191424,note_on,416,0,2,,,,,,,,,2,,,65,92
191472,note_on,48,0,1,,,,,,,,,1,,,77,0
191472,note_on,48,0,2,,,,,,,,,2,,,65,0
191584,note_on,352,0,4,,,,,,,,,4,,,43,0
191584,note_on,352,0,3,,,,,,,,,3,,,55,0
191616,note_on,32,0,3,,,,,,,,,3,,,57,92
191616,note_on,32,0,4,,,,,,,,,4,,,45,92
191808,note_on,336,0,1,,,,,,,,,1,,,81,92
191808,note_on,336,0,2,,,,,,,,,2,,,69,92
191856,note_on,48,0,2,,,,,,,,,2,,,69,0
191856,note_on,48,0,1,,,,,,,,,1,,,81,0
192000,note_on,144,0,1,,,,,,,,,1,,,82,92
192000,note_on,144,0,2,,,,,,,,,2,,,70,92
192048,note_on,48,0,1,,,,,,,,,1,,,82,0
192048,note_on,48,0,2,,,,,,,,,2,,,70,0
192160,note_on,544,0,4,,,,,,,,,4,,,45,0
192160,note_on,544,0,3,,,,,,,,,3,,,57,0
192192,note_on,32,0,3,,,,,,,,,3,,,55,92
192192,note_on,32,0,4,,,,,,,,,4,,,43,92
192384,note_on,336,0,1,,,,,,,,,1,,,84,92
192384,note_on,336,0,2,,,,,,,,,2,,,72,92
192544,note_on,160,0,1,,,,,,,,,1,,,84,0
192544,note_on,160,0,2,,,,,,,,,2,,,72,0
192576,note_on,32,0,2,,,,,,,,,2,,,74,92
192576,note_on,32,0,1,,,,,,,,,1,,,86,92
192736,note_on,544,0,4,,,,,,,,,4,,,43,0
192736,note_on,160,0,2,,,,,,,,,2,,,74,0
192736,note_on,160,0,1,,,,,,,,,1,,,86,0
192736,note_on,544,0,3,,,,,,,,,3,,,55,0
192768,note_on,32,0,4,,,,,,,,,4,,,41,92
192768,note_on,32,0,3,,,,,,,,,3,,,53,92
192960,note_on,224,0,2,,,,,,,,,2,,,72,92
192960,note_on,224,0,1,,,,,,,,,1,,,84,92
193120,note_on,160,0,2,,,,,,,,,2,,,72,0
193120,note_on,160,0,1,,,,,,,,,1,,,84,0
193152,note_on,32,0,2,,,,,,,,,2,,,70,92
193152,note_on,32,0,1,,,,,,,,,1,,,82,92
193312,note_on,160,0,1,,,,,,,,,1,,,82,0
193312,note_on,544,0,3,,,,,,,,,3,,,53,0
193312,note_on,160,0,2,,,,,,,,,2,,,70,0
193312,note_on,544,0,4,,,,,,,,,4,,,41,0
193344,note_on,32,0,4,,,,,,,,,4,,,43,92
193344,note_on,32,0,3,,,,,,,,,3,,,55,92
193536,note_on,224,0,1,,,,,,,,,1,,,79,92
193536,note_on,224,0,2,,,,,,,,,2,,,67,92
193696,note_on,160,0,2,,,,,,,,,2,,,67,0
193696,note_on,160,0,1,,,,,,,,,1,,,79,0
193728,note_on,32,0,2,,,,,,,,,2,,,65,92
193728,note_on,32,0,1,,,,,,,,,1,,,77,92
193888,note_on,544,0,4,,,,,,,,,4,,,43,0
193888,note_on,160,0,2,,,,,,,,,2,,,65,0
193888,note_on,544,0,3,,,,,,,,,3,,,55,0
193888,note_on,160,0,1,,,,,,,,,1,,,77,0
193920,note_on,32,0,3,,,,,,,,,3,,,57,92
193920,note_on,32,0,4,,,,,,,,,4,,,45,92
194112,note_on,224,0,1,,,,,,,,,1,,,81,92
194112,note_on,224,0,2,,,,,,,,,2,,,69,92
194272,note_on,160,0,1,,,,,,,,,1,,,81,0
194272,note_on,160,0,2,,,,,,,,,2,,,69,0
194304,note_on,32,0,2,,,,,,,,,2,,,70,82
194304,note_on,32,0,1,,,,,,,,,1,,,82,82
194464,note_on,160,0,1,,,,,,,,,1,,,82,0
194464,note_on,544,0,3,,,,,,,,,3,,,57,0
194464,note_on,544,0,4,,,,,,,,,4,,,45,0
194464,note_on,160,0,2,,,,,,,,,2,,,70,0
194496,note_on,32,0,3,,,,,,,,,3,,,55,62
194496,note_on,32,0,4,,,,,,,,,4,,,43,62
194688,note_on,224,0,2,,,,,,,,,2,,,72,62
194688,note_on,224,0,1,,,,,,,,,1,,,84,62
194848,note_on,160,0,1,,,,,,,,,1,,,84,0
194848,note_on,160,0,2,,,,,,,,,2,,,72,0
194880,note_on,32,0,1,,,,,,,,,1,,,86,52
194880,note_on,32,0,2,,,,,,,,,2,,,74,52
195040,note_on,544,0,3,,,,,,,,,3,,,55,0
195040,note_on,160,0,1,,,,,,,,,1,,,86,0
195040,note_on,544,0,4,,,,,,,,,4,,,43,0
195040,note_on,160,0,2,,,,,,,,,2,,,74,0
195072,note_on,32,0,3,,,,,,,,,3,,,53,30
195072,note_on,32,0,4,,,,,,,,,4,,,41,30
195120,note_on,48,0,3,,,,,,,,,3,,,53,0
195120,note_on,48,0,4,,,,,,,,,4,,,41,0
195264,note_on,144,0,3,,,,,,,,,3,,,55,30
195264,note_on,224,0,1,,,,,,,,,1,,,84,30
195264,note_on,224,0,2,,,,,,,,,2,,,64,30
195264,note_on,0,0,2,,,,,,,,,2,,,72,30
195264,note_on,144,0,4,,,,,,,,,4,,,43,30
195312,note_on,48,0,4,,,,,,,,,4,,,43,0
195312,note_on,48,0,3,,,,,,,,,3,,,55,0
195424,note_on,160,0,2,,,,,,,,,2,,,64,0
195424,note_on,0,0,2,,,,,,,,,2,,,72,0
195424,note_on,160,0,1,,,,,,,,,1,,,84,0
195456,note_on,0,0,2,,,,,,,,,2,,,72,30
195456,note_on,144,0,3,,,,,,,,,3,,,53,30
195456,note_on,32,0,1,,,,,,,,,1,,,84,30
195456,note_on,32,0,2,,,,,,,,,2,,,69,30
195456,note_on,144,0,4,,,,,,,,,4,,,41,30
195504,note_on,48,0,3,,,,,,,,,3,,,53,0
195504,note_on,0,0,2,,,,,,,,,2,,,72,0
195504,note_on,48,0,2,,,,,,,,,2,,,69,0
195504,note_on,48,0,4,,,,,,,,,4,,,41,0
195504,note_on,48,0,1,,,,,,,,,1,,,84,0
195648,note_on,144,0,1,,,,,,,,,1,,,84,30
195648,note_on,144,0,3,,,,,,,,,3,,,57,30
195648,note_on,144,0,2,,,,,,,,,2,,,72,30
195696,note_on,48,0,1,,,,,,,,,1,,,84,0
195696,note_on,48,0,3,,,,,,,,,3,,,57,0
195696,note_on,48,0,2,,,,,,,,,2,,,72,0
195840,note_on,144,0,3,,,,,,,,,3,,,53,30
195840,note_on,144,0,1,,,,,,,,,1,,,87,30
195840,note_on,144,0,2,,,,,,,,,2,,,69,30
195888,note_on,48,0,2,,,,,,,,,2,,,69,0
195888,note_on,48,0,3,,,,,,,,,3,,,53,0
195888,note_on,48,0,1,,,,,,,,,1,,,87,0
196032,note_on,144,0,3,,,,,,,,,3,,,58,30
196032,note_on,144,0,2,,,,,,,,,2,,,65,30
196032,note_on,144,0,1,,,,,,,,,1,,,86,30
196080,note_on,48,0,2,,,,,,,,,2,,,65,0
196080,note_on,48,0,3,,,,,,,,,3,,,58,0
196080,note_on,48,0,1,,,,,,,,,1,,,86,0
196224,note_on,720,0,4,,,,,,,,,4,,,41,30
196272,note_on,48,0,4,,,,,,,,,4,,,41,0
196416,note_on,144,0,4,,,,,,,,,4,,,43,30
196464,note_on,48,0,4,,,,,,,,,4,,,43,0
196608,note_on,144,0,4,,,,,,,,,4,,,41,30
196656,note_on,48,0,4,,,,,,,,,4,,,41,0
196800,note_on,720,0,2,,,,,,,,,2,,,65,30
196800,note_on,0,0,2,,,,,,,,,2,,,74,30
196800,note_on,720,0,1,,,,,,,,,1,,,88,30
196800,note_on,720,0,3,,,,,,,,,3,,,58,30
196848,note_on,48,0,2,,,,,,,,,2,,,65,0
196848,note_on,0,0,2,,,,,,,,,2,,,74,0
196848,note_on,48,0,1,,,,,,,,,1,,,88,0
196848,note_on,48,0,3,,,,,,,,,3,,,58,0
196992,note_on,144,0,3,,,,,,,,,3,,,58,30
196992,note_on,144,0,2,,,,,,,,,2,,,65,30
196992,note_on,0,0,2,,,,,,,,,2,,,74,30
196992,note_on,144,0,1,,,,,,,,,1,,,89,30
197040,note_on,0,0,2,,,,,,,,,2,,,74,0
197040,note_on,48,0,2,,,,,,,,,2,,,65,0
197040,note_on,48,0,1,,,,,,,,,1,,,89,0
197040,note_on,48,0,3,,,,,,,,,3,,,58,0
197184,note_on,144,0,2,,,,,,,,,2,,,69,30
197184,note_on,144,0,1,,,,,,,,,1,,,84,30
197184,note_on,144,0,3,,,,,,,,,3,,,65,30
197232,note_on,48,0,1,,,,,,,,,1,,,84,0
197344,note_on,160,0,3,,,,,,,,,3,,,65,0
197344,note_on,160,0,2,,,,,,,,,2,,,69,0
197376,note_on,720,0,4,,,,,,,,,4,,,41,30
197376,note_on,32,0,3,,,,,,,,,3,,,65,30
197376,note_on,32,0,2,,,,,,,,,2,,,77,30
197424,note_on,48,0,4,,,,,,,,,4,,,41,0
197536,note_on,160,0,2,,,,,,,,,2,,,77,0
197536,note_on,160,0,3,,,,,,,,,3,,,65,0
197568,note_on,144,0,4,,,,,,,,,4,,,39,30
197568,note_on,32,0,2,,,,,,,,,2,,,79,30
197568,note_on,32,0,3,,,,,,,,,3,,,67,30
197616,note_on,48,0,4,,,,,,,,,4,,,39,0
197728,note_on,160,0,3,,,,,,,,,3,,,67,0
197728,note_on,160,0,2,,,,,,,,,2,,,79,0
197760,note_on,32,0,2,,,,,,,,,2,,,78,30
197760,note_on,144,0,4,,,,,,,,,4,,,38,30
197760,note_on,32,0,3,,,,,,,,,3,,,66,30
197808,note_on,48,0,4,,,,,,,,,4,,,38,0
197920,note_on,160,0,2,,,,,,,,,2,,,78,0
197920,note_on,160,0,3,,,,,,,,,3,,,66,0
197952,note_on,32,0,3,,,,,,,,,3,,,67,30
197952,note_on,144,0,4,,,,,,,,,4,,,40,30
197952,note_on,720,0,1,,,,,,,,,1,,,86,30
197952,note_on,32,0,2,,,,,,,,,2,,,82,30
198000,note_on,48,0,4,,,,,,,,,4,,,40,0
198112,note_on,160,0,3,,,,,,,,,3,,,67,0
198112,note_on,160,0,1,,,,,,,,,1,,,86,0
198112,note_on,160,0,2,,,,,,,,,2,,,82,0
198144,note_on,32,0,1,,,,,,,,,1,,,84,30
198144,note_on,32,0,3,,,,,,,,,3,,,69,30
198144,note_on,144,0,4,,,,,,,,,4,,,42,30
198144,note_on,32,0,2,,,,,,,,,2,,,81,30
198192,note_on,48,0,4,,,,,,,,,4,,,42,0
198304,note_on,160,0,3,,,,,,,,,3,,,69,0
198304,note_on,160,0,1,,,,,,,,,1,,,84,0
198304,note_on,160,0,2,,,,,,,,,2,,,81,0
198336,note_on,144,0,4,,,,,,,,,4,,,43,30
198336,note_on,32,0,2,,,,,,,,,2,,,81,30
198336,note_on,32,0,1,,,,,,,,,1,,,84,30
198336,note_on,32,0,3,,,,,,,,,3,,,62,30
198384,note_on,48,0,2,,,,,,,,,2,,,81,0
198384,note_on,48,0,1,,,,,,,,,1,,,84,0
198496,note_on,160,0,3,,,,,,,,,3,,,62,0
198496,note_on,160,0,4,,,,,,,,,4,,,43,0
198528,note_on,144,0,1,,,,,,,,,1,,,82,30
198528,note_on,32,0,4,,,,,,,,,4,,,43,30
198528,note_on,144,0,2,,,,,,,,,2,,,79,30
198528,note_on,32,0,3,,,,,,,,,3,,,64,30
198576,note_on,48,0,1,,,,,,,,,1,,,82,0
198576,note_on,48,0,2,,,,,,,,,2,,,79,0
198688,note_on,160,0,3,,,,,,,,,3,,,64,0
198688,note_on,160,0,4,,,,,,,,,4,,,43,0
198720,note_on,32,0,3,,,,,,,,,3,,,60,30
198720,note_on,144,0,2,,,,,,,,,2,,,77,30
198720,note_on,32,0,4,,,,,,,,,4,,,45,30
198720,note_on,144,0,1,,,,,,,,,1,,,81,30
198768,note_on,48,0,1,,,,,,,,,1,,,81,0
198768,note_on,48,0,2,,,,,,,,,2,,,77,0
198880,note_on,160,0,3,,,,,,,,,3,,,60,0
198880,note_on,160,0,4,,,,,,,,,4,,,45,0
198912,note_on,32,0,3,,,,,,,,,3,,,62,30
198912,note_on,144,0,1,,,,,,,,,1,,,81,30
198912,note_on,32,0,4,,,,,,,,,4,,,46,30
198912,note_on,144,0,2,,,,,,,,,2,,,77,30
199072,note_on,160,0,4,,,,,,,,,4,,,46,0
199104,note_on,192,0,1,,,,,,,,,1,,,81,0
199104,note_on,0,0,1,,,,,,,,,1,,,82,30
199104,note_on,32,0,4,,,,,,,,,4,,,46,30
199104,note_on,0,0,2,,,,,,,,,2,,,74,30
199104,note_on,0,0,3,,,,,,,,,3,,,55,30
199104,note_on,192,0,3,,,,,,,,,3,,,62,0
199104,note_on,192,0,2,,,,,,,,,2,,,77,0
199264,note_on,160,0,1,,,,,,,,,1,,,82,0
199264,note_on,160,0,2,,,,,,,,,2,,,74,0
199264,note_on,160,0,4,,,,,,,,,4,,,46,0
199264,note_on,160,0,3,,,,,,,,,3,,,55,0
199296,note_on,32,0,2,,,,,,,,,2,,,70,30
199296,note_on,0,0,2,,,,,,,,,2,,,76,30
199296,note_on,32,0,1,,,,,,,,,1,,,79,30
199296,note_on,32,0,4,,,,,,,,,4,,,48,30
199296,note_on,32,0,3,,,,,,,,,3,,,60,30
199344,note_on,48,0,2,,,,,,,,,2,,,70,0
199344,note_on,0,0,2,,,,,,,,,2,,,76,0
199344,note_on,48,0,1,,,,,,,,,1,,,79,0
199344,note_on,48,0,3,,,,,,,,,3,,,60,0
199456,note_on,160,0,4,,,,,,,,,4,,,48,0
199488,note_on,144,0,1,,,,,,,,,1,,,81,30
199488,note_on,144,0,3,,,,,,,,,3,,,60,30
199488,note_on,32,0,4,,,,,,,,,4,,,41,30
199488,note_on,144,0,2,,,,,,,,,2,,,69,30
199536,note_on,48,0,1,,,,,,,,,1,,,81,0
199536,note_on,48,0,2,,,,,,,,,2,,,69,0
199648,note_on,160,0,3,,,,,,,,,3,,,60,0
199648,note_on,160,0,4,,,,,,,,,4,,,41,0
199680,note_on,144,0,2,,,,,,,,,2,,,65,30
199680,note_on,144,0,1,,,,,,,,,1,,,77,30
199728,note_on,48,0,1,,,,,,,,,1,,,77,0
199728,note_on,48,0,2,,,,,,,,,2,,,65,0
199872,note_on,144,0,2,,,,,,,,,2,,,67,30
199872,note_on,144,0,1,,,,,,,,,1,,,79,30
199920,note_on,48,0,1,,,,,,,,,1,,,79,0
199920,note_on,48,0,2,,,,,,,,,2,,,67,0
200064,note_on,144,0,2,,,,,,,,,2,,,65,30
200064,note_on,144,0,1,,,,,,,,,1,,,77,30
200224,note_on,160,0,2,,,,,,,,,2,,,65,0
200224,note_on,160,0,1,,,,,,,,,1,,,77,0
200256,note_on,608,0,3,,,,,,,,,3,,,57,30
200256,note_on,608,0,4,,,,,,,,,4,,,60,30
200304,note_on,48,0,4,,,,,,,,,4,,,60,0
200304,note_on,48,0,3,,,,,,,,,3,,,57,0
200448,note_on,144,0,3,,,,,,,,,3,,,60,30
200448,note_on,144,0,4,,,,,,,,,4,,,63,30
200496,note_on,48,0,3,,,,,,,,,3,,,60,0
200496,note_on,48,0,4,,,,,,,,,4,,,63,0
200640,note_on,144,0,3,,,,,,,,,3,,,58,30
200640,note_on,144,0,4,,,,,,,,,4,,,62,30
200800,note_on,160,0,4,,,,,,,,,4,,,62,0
200800,note_on,160,0,3,,,,,,,,,3,,,58,0
200832,note_on,608,0,1,,,,,,,,,1,,,77,30
200832,note_on,608,0,2,,,,,,,,,2,,,65,30
200992,note_on,160,0,2,,,,,,,,,2,,,65,0
200992,note_on,160,0,1,,,,,,,,,1,,,77,0
201024,note_on,32,0,1,,,,,,,,,1,,,79,30
201024,note_on,32,0,2,,,,,,,,,2,,,67,30
201184,note_on,160,0,1,,,,,,,,,1,,,79,0
201184,note_on,160,0,2,,,,,,,,,2,,,67,0
201216,note_on,32,0,1,,,,,,,,,1,,,77,30
201216,note_on,32,0,2,,,,,,,,,2,,,65,30
201376,note_on,160,0,2,,,,,,,,,2,,,65,0
201376,note_on,160,0,1,,,,,,,,,1,,,77,0
201408,note_on,608,0,3,,,,,,,,,3,,,58,30
201408,note_on,608,0,4,,,,,,,,,4,,,64,30
201568,note_on,160,0,3,,,,,,,,,3,,,58,0
201568,note_on,160,0,4,,,,,,,,,4,,,64,0
201600,note_on,32,0,4,,,,,,,,,4,,,65,30
201600,note_on,32,0,3,,,,,,,,,3,,,58,30
201760,note_on,160,0,4,,,,,,,,,4,,,65,0
201760,note_on,160,0,3,,,,,,,,,3,,,58,0
201792,note_on,32,0,4,,,,,,,,,4,,,60,30
201792,note_on,32,0,3,,,,,,,,,3,,,57,30
201952,note_on,160,0,4,,,,,,,,,4,,,60,0
201952,note_on,160,0,3,,,,,,,,,3,,,57,0
201984,note_on,608,0,1,,,,,,,,,1,,,77,30
201984,note_on,608,0,2,,,,,,,,,2,,,65,30
202144,note_on,160,0,1,,,,,,,,,1,,,77,0
202144,note_on,160,0,2,,,,,,,,,2,,,65,0
202176,note_on,32,0,1,,,,,,,,,1,,,79,30
202176,note_on,32,0,2,,,,,,,,,2,,,67,30
202336,note_on,160,0,1,,,,,,,,,1,,,79,0
202336,note_on,160,0,2,,,,,,,,,2,,,67,0
202368,note_on,32,0,1,,,,,,,,,1,,,77,30
202368,note_on,32,0,2,,,,,,,,,2,,,65,30
202528,note_on,160,0,1,,,,,,,,,1,,,77,0
202528,note_on,160,0,2,,,,,,,,,2,,,65,0
202560,note_on,32,0,2,,,,,,,,,2,,,66,30
202560,note_on,608,0,3,,,,,,,,,3,,,60,30
202560,note_on,608,0,4,,,,,,,,,4,,,63,30
202560,note_on,32,0,1,,,,,,,,,1,,,78,30
202720,note_on,160,0,1,,,,,,,,,1,,,78,0
202720,note_on,160,0,4,,,,,,,,,4,,,63,0
202720,note_on,160,0,2,,,,,,,,,2,,,66,0
202720,note_on,160,0,3,,,,,,,,,3,,,60,0
202752,note_on,32,0,2,,,,,,,,,2,,,67,30
202752,note_on,32,0,1,,,,,,,,,1,,,79,30
202752,note_on,32,0,3,,,,,,,,,3,,,58,30
202752,note_on,32,0,4,,,,,,,,,4,,,62,30
202912,note_on,160,0,2,,,,,,,,,2,,,67,0
202912,note_on,160,0,3,,,,,,,,,3,,,58,0
202912,note_on,160,0,4,,,,,,,,,4,,,62,0
202912,note_on,160,0,1,,,,,,,,,1,,,79,0
202944,note_on,32,0,2,,,,,,,,,2,,,67,30
202944,note_on,32,0,4,,,,,,,,,4,,,62,30
202944,note_on,32,0,3,,,,,,,,,3,,,58,30
202944,note_on,32,0,1,,,,,,,,,1,,,79,30
202992,note_on,48,0,4,,,,,,,,,4,,,62,0
202992,note_on,48,0,3,,,,,,,,,3,,,58,0
203104,note_on,160,0,1,,,,,,,,,1,,,79,0
203104,note_on,160,0,2,,,,,,,,,2,,,67,0
203136,note_on,32,0,1,,,,,,,,,1,,,79,30
203136,note_on,32,0,2,,,,,,,,,2,,,67,30
203136,note_on,144,0,4,,,,,,,,,4,,,60,30
203136,note_on,144,0,3,,,,,,,,,3,,,57,30
203184,note_on,48,0,3,,,,,,,,,3,,,57,0
203184,note_on,48,0,4,,,,,,,,,4,,,60,0
203296,note_on,160,0,2,,,,,,,,,2,,,67,0
203296,note_on,160,0,1,,,,,,,,,1,,,79,0
203328,note_on,144,0,3,,,,,,,,,3,,,55,30
203328,note_on,32,0,1,,,,,,,,,1,,,84,30
203328,note_on,32,0,2,,,,,,,,,2,,,72,30
203328,note_on,144,0,4,,,,,,,,,4,,,58,30
203376,note_on,48,0,4,,,,,,,,,4,,,58,0
203376,note_on,48,0,3,,,,,,,,,3,,,55,0
203488,note_on,160,0,2,,,,,,,,,2,,,72,0
203488,note_on,160,0,1,,,,,,,,,1,,,84,0
203520,note_on,144,0,3,,,,,,,,,3,,,53,30
203520,note_on,32,0,1,,,,,,,,,1,,,84,30
203520,note_on,32,0,2,,,,,,,,,2,,,72,30
203520,note_on,144,0,4,,,,,,,,,4,,,57,30
203680,note_on,160,0,1,,,,,,,,,1,,,84,0
203680,note_on,160,0,2,,,,,,,,,2,,,72,0
203712,note_on,0,0,4,,,,,,,,,4,,,58,30
203712,note_on,32,0,1,,,,,,,,,1,,,84,30
203712,note_on,192,0,4,,,,,,,,,4,,,57,0
203712,note_on,192,0,3,,,,,,,,,3,,,53,0
203712,note_on,0,0,3,,,,,,,,,3,,,55,30
203712,note_on,32,0,2,,,,,,,,,2,,,72,30
203872,note_on,160,0,4,,,,,,,,,4,,,58,0
203872,note_on,160,0,1,,,,,,,,,1,,,84,0
203872,note_on,160,0,3,,,,,,,,,3,,,55,0
203872,note_on,160,0,2,,,,,,,,,2,,,72,0
203904,note_on,32,0,4,,,,,,,,,4,,,55,30
203904,note_on,32,0,3,,,,,,,,,3,,,52,30
203904,note_on,32,0,1,,,,,,,,,1,,,84,30
203904,note_on,32,0,2,,,,,,,,,2,,,72,30
203952,note_on,48,0,4,,,,,,,,,4,,,55,0
203952,note_on,48,0,3,,,,,,,,,3,,,52,0
204064,note_on,160,0,1,,,,,,,,,1,,,84,0
204064,note_on,160,0,2,,,,,,,,,2,,,72,0
204096,note_on,32,0,2,,,,,,,,,2,,,72,30
204096,note_on,144,0,3,,,,,,,,,3,,,53,30
204096,note_on,144,0,4,,,,,,,,,4,,,57,30
204096,note_on,32,0,1,,,,,,,,,1,,,84,30
204144,note_on,48,0,4,,,,,,,,,4,,,57,0
204144,note_on,48,0,3,,,,,,,,,3,,,53,0
204144,note_on,48,0,1,,,,,,,,,1,,,84,0
204144,note_on,48,0,2,,,,,,,,,2,,,72,0
204288,note_on,144,0,1,,,,,,,,,1,,,82,30
204288,note_on,144,0,3,,,,,,,,,3,,,64,30
204288,note_on,144,0,2,,,,,,,,,2,,,60,30
204288,note_on,144,0,4,,,,,,,,,4,,,55,30
204336,note_on,48,0,1,,,,,,,,,1,,,82,0
204336,note_on,48,0,3,,,,,,,,,3,,,64,0
204336,note_on,48,0,2,,,,,,,,,2,,,60,0
204336,note_on,48,0,4,,,,,,,,,4,,,55,0
204480,note_on,144,0,3,,,,,,,,,3,,,65,30
204480,note_on,144,0,2,,,,,,,,,2,,,72,30
204480,note_on,144,0,4,,,,,,,,,4,,,57,30
204480,note_on,144,0,1,,,,,,,,,1,,,81,30
204528,note_on,48,0,3,,,,,,,,,3,,,65,0
204528,note_on,48,0,2,,,,,,,,,2,,,72,0
204528,note_on,48,0,4,,,,,,,,,4,,,57,0
204528,note_on,48,0,1,,,,,,,,,1,,,81,0
204672,note_on,144,0,2,,,,,,,,,2,,,72,30
204672,note_on,144,0,3,,,,,,,,,3,,,62,30
204672,note_on,144,0,4,,,,,,,,,4,,,58,30
204672,note_on,144,0,1,,,,,,,,,1,,,81,30
204864,note_on,192,0,1,,,,,,,,,1,,,81,0
204864,note_on,0,0,4,,,,,,,,,4,,,46,35
204864,note_on,0,0,3,,,,,,,,,3,,,50,35
204864,note_on,0,0,1,,,,,,,,,1,,,82,35
204864,note_on,192,0,2,,,,,,,,,2,,,72,0
204864,note_on,0,0,2,,,,,,,,,2,,,67,35
204864,note_on,0,0,2,,,,,,,,,2,,,74,35
204864,note_on,192,0,3,,,,,,,,,3,,,62,0
204864,note_on,192,0,4,,,,,,,,,4,,,58,0
205024,note_on,160,0,3,,,,,,,,,3,,,50,0
205024,note_on,160,0,4,,,,,,,,,4,,,46,0
205024,note_on,0,0,2,,,,,,,,,2,,,74,0
205024,note_on,160,0,2,,,,,,,,,2,,,67,0
205024,note_on,160,0,1,,,,,,,,,1,,,82,0
205056,note_on,32,0,4,,,,,,,,,4,,,48,40
205056,note_on,32,0,2,,,,,,,,,2,,,64,40
205056,note_on,32,0,1,,,,,,,,,1,,,79,40
205056,note_on,32,0,3,,,,,,,,,3,,,52,40
205104,note_on,48,0,2,,,,,,,,,2,,,64,0
205104,note_on,48,0,4,,,,,,,,,4,,,48,0
205104,note_on,48,0,3,,,,,,,,,3,,,52,0
205104,note_on,48,0,1,,,,,,,,,1,,,79,0
205248,note_on,144,0,2,,,,,,,,,2,,,70,45
205248,note_on,144,0,1,,,,,,,,,1,,,79,45
205248,note_on,144,0,3,,,,,,,,,3,,,52,45
205248,note_on,144,0,4,,,,,,,,,4,,,48,45
205296,note_on,48,0,4,,,,,,,,,4,,,48,0
205440,note_on,192,0,1,,,,,,,,,1,,,79,0
205440,note_on,0,0,1,,,,,,,,,1,,,81,50
205440,note_on,144,0,4,,,,,,,,,4,,,36,50
205440,note_on,0,0,3,,,,,,,,,3,,,53,50
205440,note_on,192,0,3,,,,,,,,,3,,,52,0
205440,note_on,0,0,2,,,,,,,,,2,,,69,50
205440,note_on,192,0,2,,,,,,,,,2,,,70,0
205488,note_on,48,0,4,,,,,,,,,4,,,36,0
205600,note_on,160,0,1,,,,,,,,,1,,,81,0
205600,note_on,160,0,2,,,,,,,,,2,,,69,0
205600,note_on,160,0,3,,,,,,,,,3,,,53,0
205632,note_on,32,0,2,,,,,,,,,2,,,65,55
205632,note_on,0,0,2,,,,,,,,,2,,,69,55
205632,note_on,32,0,3,,,,,,,,,3,,,57,55
205632,note_on,144,0,4,,,,,,,,,4,,,36,55
205632,note_on,32,0,1,,,,,,,,,1,,,77,55
205680,note_on,0,0,2,,,,,,,,,2,,,69,0
205680,note_on,48,0,2,,,,,,,,,2,,,65,0
205680,note_on,48,0,1,,,,,,,,,1,,,77,0
205680,note_on,48,0,4,,,,,,,,,4,,,36,0
205680,note_on,48,0,3,,,,,,,,,3,,,57,0
205824,note_on,144,0,3,,,,,,,,,3,,,58,60
205824,note_on,144,0,1,,,,,,,,,1,,,76,60
205824,note_on,144,0,2,,,,,,,,,2,,,67,60
205824,note_on,144,0,4,,,,,,,,,4,,,36,60
205984,note_on,160,0,4,,,,,,,,,4,,,36,0
206016,note_on,0,0,3,,,,,,,,,3,,,57,65
206016,note_on,192,0,1,,,,,,,,,1,,,76,0
206016,note_on,192,0,3,,,,,,,,,3,,,58,0
206016,note_on,192,0,2,,,,,,,,,2,,,67,0
206016,note_on,32,0,4,,,,,,,,,4,,,36,65
206016,note_on,0,0,1,,,,,,,,,1,,,77,65
206016,note_on,0,0,2,,,,,,,,,2,,,65,65
206176,note_on,160,0,4,,,,,,,,,4,,,36,0
206176,note_on,160,0,1,,,,,,,,,1,,,77,0
206176,note_on,160,0,3,,,,,,,,,3,,,57,0
206176,note_on,160,0,2,,,,,,,,,2,,,65,0
206208,note_on,32,0,3,,,,,,,,,3,,,55,70
206208,note_on,32,0,1,,,,,,,,,1,,,79,70
206208,note_on,32,0,2,,,,,,,,,2,,,64,70
206208,note_on,32,0,4,,,,,,,,,4,,,36,70
206256,note_on,48,0,3,,,,,,,,,3,,,55,0
206256,note_on,48,0,1,,,,,,,,,1,,,79,0
206256,note_on,48,0,2,,,,,,,,,2,,,64,0
206368,note_on,160,0,4,,,,,,,,,4,,,36,0
206400,note_on,144,0,3,,,,,,,,,3,,,55,75
206400,note_on,144,0,1,,,,,,,,,1,,,76,75
206400,note_on,32,0,4,,,,,,,,,4,,,36,75
206400,note_on,144,0,2,,,,,,,,,2,,,70,75
206448,note_on,48,0,2,,,,,,,,,2,,,70,0
206592,note_on,0,0,3,,,,,,,,,3,,,53,72
206592,note_on,192,0,3,,,,,,,,,3,,,55,0
206592,note_on,192,0,1,,,,,,,,,1,,,76,0
206592,note_on,0,0,1,,,,,,,,,1,,,77,72
206592,note_on,0,0,4,,,,,,,,,4,,,38,72
206592,note_on,192,0,4,,,,,,,,,4,,,36,0
206592,note_on,144,0,2,,,,,,,,,2,,,58,72
206640,note_on,48,0,2,,,,,,,,,2,,,58,0
206752,note_on,160,0,1,,,,,,,,,1,,,77,0
206752,note_on,160,0,4,,,,,,,,,4,,,38,0
206752,note_on,160,0,3,,,,,,,,,3,,,53,0
206784,note_on,32,0,4,,,,,,,,,4,,,40,69
206784,note_on,32,0,3,,,,,,,,,3,,,52,69
206784,note_on,32,0,1,,,,,,,,,1,,,79,69
206784,note_on,144,0,2,,,,,,,,,2,,,70,69
206832,note_on,48,0,3,,,,,,,,,3,,,52,0
206832,note_on,48,0,2,,,,,,,,,2,,,70,0
206832,note_on,48,0,1,,,,,,,,,1,,,79,0
206832,note_on,48,0,4,,,,,,,,,4,,,40,0
206976,note_on,144,0,1,,,,,,,,,1,,,72,66
206976,note_on,144,0,3,,,,,,,,,3,,,57,66
206976,note_on,144,0,4,,,,,,,,,4,,,41,66
206976,note_on,144,0,2,,,,,,,,,2,,,69,66
207024,note_on,48,0,3,,,,,,,,,3,,,57,0
207024,note_on,48,0,4,,,,,,,,,4,,,41,0
207024,note_on,48,0,2,,,,,,,,,2,,,69,0
207136,note_on,160,0,1,,,,,,,,,1,,,72,0
207168,note_on,144,0,4,,,,,,,,,4,,,43,63
207168,note_on,32,0,1,,,,,,,,,1,,,72,63
207168,note_on,144,0,2,,,,,,,,,2,,,67,63
207168,note_on,144,0,3,,,,,,,,,3,,,58,63
207216,note_on,48,0,4,,,,,,,,,4,,,43,0
207216,note_on,48,0,2,,,,,,,,,2,,,67,0
207216,note_on,48,0,3,,,,,,,,,3,,,58,0
207328,note_on,160,0,1,,,,,,,,,1,,,72,0
207360,note_on,144,0,2,,,,,,,,,2,,,65,60
207360,note_on,144,0,4,,,,,,,,,4,,,45,60
207360,note_on,32,0,1,,,,,,,,,1,,,72,60
207360,note_on,144,0,3,,,,,,,,,3,,,60,60
207408,note_on,48,0,4,,,,,,,,,4,,,45,0
207408,note_on,48,0,2,,,,,,,,,2,,,65,0
207408,note_on,48,0,3,,,,,,,,,3,,,60,0
207520,note_on,160,0,1,,,,,,,,,1,,,72,0
207552,note_on,144,0,4,,,,,,,,,4,,,36,57
207552,note_on,144,0,3,,,,,,,,,3,,,55,57
207552,note_on,32,0,1,,,,,,,,,1,,,76,57
207552,note_on,144,0,2,,,,,,,,,2,,,58,57
207712,note_on,160,0,2,,,,,,,,,2,,,58,0
207744,note_on,0,0,3,,,,,,,,,3,,,53,53
207744,note_on,192,0,4,,,,,,,,,4,,,36,0
207744,note_on,192,0,3,,,,,,,,,3,,,55,0
207744,note_on,32,0,2,,,,,,,,,2,,,70,53
207744,note_on,0,0,4,,,,,,,,,4,,,38,53
207744,note_on,192,0,1,,,,,,,,,1,,,76,0
207744,note_on,0,0,1,,,,,,,,,1,,,77,53
207904,note_on,160,0,3,,,,,,,,,3,,,53,0
207904,note_on,160,0,1,,,,,,,,,1,,,77,0
207904,note_on,160,0,4,,,,,,,,,4,,,38,0
207904,note_on,160,0,2,,,,,,,,,2,,,70,0
207936,note_on,32,0,4,,,,,,,,,4,,,40,49
207936,note_on,32,0,3,,,,,,,,,3,,,52,49
207936,note_on,32,0,1,,,,,,,,,1,,,79,49
207936,note_on,32,0,2,,,,,,,,,2,,,70,49
207984,note_on,48,0,4,,,,,,,,,4,,,40,0
207984,note_on,48,0,3,,,,,,,,,3,,,52,0
207984,note_on,48,0,1,,,,,,,,,1,,,79,0
208096,note_on,160,0,2,,,,,,,,,2,,,70,0
208128,note_on,32,0,2,,,,,,,,,2,,,69,45
208128,note_on,144,0,4,,,,,,,,,4,,,41,45
208128,note_on,144,0,1,,,,,,,,,1,,,72,45
208128,note_on,144,0,3,,,,,,,,,3,,,57,45
208176,note_on,48,0,4,,,,,,,,,4,,,41,0
208176,note_on,48,0,2,,,,,,,,,2,,,69,0
208176,note_on,48,0,3,,,,,,,,,3,,,57,0
208288,note_on,160,0,1,,,,,,,,,1,,,72,0
208320,note_on,144,0,4,,,,,,,,,4,,,43,45
208320,note_on,32,0,1,,,,,,,,,1,,,72,45
208320,note_on,144,0,3,,,,,,,,,3,,,58,45
208320,note_on,144,0,2,,,,,,,,,2,,,67,45
208368,note_on,48,0,4,,,,,,,,,4,,,43,0
208368,note_on,48,0,3,,,,,,,,,3,,,58,0
208368,note_on,48,0,2,,,,,,,,,2,,,67,0
208480,note_on,160,0,1,,,,,,,,,1,,,72,0
208512,note_on,144,0,3,,,,,,,,,3,,,60,45
208512,note_on,32,0,1,,,,,,,,,1,,,72,45
208512,note_on,144,0,2,,,,,,,,,2,,,65,45
208512,note_on,144,0,4,,,,,,,,,4,,,45,45
208560,note_on,48,0,3,,,,,,,,,3,,,60,0
208560,note_on,48,0,4,,,,,,,,,4,,,45,0
208560,note_on,48,0,2,,,,,,,,,2,,,65,0
208672,note_on,160,0,1,,,,,,,,,1,,,72,0
208704,note_on,144,0,2,,,,,,,,,2,,,58,45
208704,note_on,32,0,1,,,,,,,,,1,,,76,45
208704,note_on,144,0,3,,,,,,,,,3,,,55,45
208704,note_on,144,0,4,,,,,,,,,4,,,36,45
208864,note_on,160,0,2,,,,,,,,,2,,,58,0
208896,note_on,192,0,3,,,,,,,,,3,,,55,0
208896,note_on,0,0,1,,,,,,,,,1,,,77,43
208896,note_on,32,0,2,,,,,,,,,2,,,70,43
208896,note_on,0,0,3,,,,,,,,,3,,,53,43
208896,note_on,192,0,4,,,,,,,,,4,,,36,0
208896,note_on,0,0,4,,,,,,,,,4,,,38,43
208896,note_on,192,0,1,,,,,,,,,1,,,76,0
209056,note_on,160,0,1,,,,,,,,,1,,,77,0
209056,note_on,160,0,4,,,,,,,,,4,,,38,0
209056,note_on,160,0,3,,,,,,,,,3,,,53,0
209056,note_on,160,0,2,,,,,,,,,2,,,70,0
209088,note_on,32,0,4,,,,,,,,,4,,,40,41
209088,note_on,32,0,2,,,,,,,,,2,,,70,41
209088,note_on,32,0,1,,,,,,,,,1,,,79,41
209088,note_on,32,0,3,,,,,,,,,3,,,52,41
209136,note_on,48,0,4,,,,,,,,,4,,,40,0
209136,note_on,48,0,1,,,,,,,,,1,,,79,0
209136,note_on,48,0,3,,,,,,,,,3,,,52,0
209248,note_on,160,0,2,,,,,,,,,2,,,70,0
209280,note_on,144,0,4,,,,,,,,,4,,,41,39
209280,note_on,32,0,2,,,,,,,,,2,,,69,39
209280,note_on,144,0,1,,,,,,,,,1,,,72,39
209280,note_on,144,0,3,,,,,,,,,3,,,57,39
209328,note_on,48,0,2,,,,,,,,,2,,,69,0
209328,note_on,48,0,4,,,,,,,,,4,,,41,0
209328,note_on,48,0,3,,,,,,,,,3,,,57,0
209440,note_on,160,0,1,,,,,,,,,1,,,72,0
209472,note_on,32,0,1,,,,,,,,,1,,,72,36
209472,note_on,144,0,2,,,,,,,,,2,,,67,36
209472,note_on,144,0,3,,,,,,,,,3,,,58,36
209472,note_on,144,0,4,,,,,,,,,4,,,43,36
209520,note_on,48,0,4,,,,,,,,,4,,,43,0
209520,note_on,48,0,2,,,,,,,,,2,,,67,0
209520,note_on,48,0,3,,,,,,,,,3,,,58,0
209632,note_on,160,0,1,,,,,,,,,1,,,72,0
209664,note_on,32,0,1,,,,,,,,,1,,,72,33
209664,note_on,144,0,4,,,,,,,,,4,,,45,33
209664,note_on,144,0,3,,,,,,,,,3,,,60,33
209664,note_on,144,0,2,,,,,,,,,2,,,65,33
209712,note_on,48,0,2,,,,,,,,,2,,,65,0
209712,note_on,48,0,4,,,,,,,,,4,,,45,0
209712,note_on,48,0,3,,,,,,,,,3,,,60,0
209824,note_on,160,0,1,,,,,,,,,1,,,72,0
209856,note_on,32,0,1,,,,,,,,,1,,,76,30
209856,note_on,144,0,3,,,,,,,,,3,,,55,30
209856,note_on,144,0,4,,,,,,,,,4,,,36,30
209856,note_on,144,0,2,,,,,,,,,2,,,58,30
210016,note_on,160,0,2,,,,,,,,,2,,,58,0
210048,note_on,192,0,4,,,,,,,,,4,,,36,0
210048,note_on,0,0,4,,,,,,,,,4,,,38,30
210048,note_on,0,0,3,,,,,,,,,3,,,53,30
210048,note_on,192,0,3,,,,,,,,,3,,,55,0
210048,note_on,0,0,1,,,,,,,,,1,,,77,30
210048,note_on,192,0,1,,,,,,,,,1,,,76,0
210048,note_on,32,0,2,,,,,,,,,2,,,70,30
210208,note_on,160,0,4,,,,,,,,,4,,,38,0
210208,note_on,160,0,2,,,,,,,,,2,,,70,0
210208,note_on,160,0,1,,,,,,,,,1,,,77,0
210208,note_on,160,0,3,,,,,,,,,3,,,53,0
210240,note_on,32,0,4,,,,,,,,,4,,,40,30
210240,note_on,32,0,2,,,,,,,,,2,,,70,30
210240,note_on,32,0,1,,,,,,,,,1,,,79,30
210240,note_on,32,0,3,,,,,,,,,3,,,52,30
210288,note_on,48,0,1,,,,,,,,,1,,,79,0
210288,note_on,48,0,4,,,,,,,,,4,,,40,0
210288,note_on,48,0,3,,,,,,,,,3,,,52,0
210400,note_on,160,0,2,,,,,,,,,2,,,70,0
210432,note_on,144,0,3,,,,,,,,,3,,,53,45
210432,note_on,144,0,1,,,,,,,,,1,,,72,45
210432,note_on,32,0,2,,,,,,,,,2,,,69,45
210432,note_on,144,0,4,,,,,,,,,4,,,41,45
210592,note_on,160,0,3,,,,,,,,,3,,,53,0
210592,note_on,160,0,2,,,,,,,,,2,,,69,0
210592,note_on,160,0,1,,,,,,,,,1,,,72,0
210592,note_on,160,0,4,,,,,,,,,4,,,41,0
210624,note_on,32,0,3,,,,,,,,,3,,,48,127
210624,note_on,0,0,3,,,,,,,,,3,,,60,127
210624,note_on,32,0,2,,,,,,,,,2,,,57,127
210624,note_on,0,0,4,,,,,,,,,4,,,45,127
210624,note_on,32,0,4,,,,,,,,,4,,,41,127
210960,note_on,336,0,3,,,,,,,,,3,,,48,0
210960,note_on,336,0,2,,,,,,,,,2,,,57,0
210960,note_on,0,0,4,,,,,,,,,4,,,45,0
210960,note_on,336,0,4,,,,,,,,,4,,,41,0
210960,note_on,0,0,3,,,,,,,,,3,,,60,0
211200,note_on,240,0,4,,,,,,,,,4,,,41,77
211200,note_on,0,0,4,,,,,,,,,4,,,45,77
211200,note_on,240,0,3,,,,,,,,,3,,,48,77
211200,note_on,0,0,3,,,,,,,,,3,,,60,77
211200,note_on,240,0,2,,,,,,,,,2,,,57,77
211536,note_on,0,0,4,,,,,,,,,4,,,45,0
211536,note_on,336,0,2,,,,,,,,,2,,,57,0
211536,note_on,336,0,4,,,,,,,,,4,,,41,0
211536,note_on,0,0,3,,,,,,,,,3,,,60,0
211536,note_on,336,0,3,,,,,,,,,3,,,48,0
211584,note_on,48,0,2,,,,,,,,,2,,,57,67
211584,note_on,48,0,4,,,,,,,,,4,,,41,67
211584,note_on,0,0,4,,,,,,,,,4,,,45,67
211584,note_on,48,0,3,,,,,,,,,3,,,48,67
211584,note_on,0,0,3,,,,,,,,,3,,,60,67
211920,note_on,336,0,2,,,,,,,,,2,,,57,0
211920,note_on,336,0,4,,,,,,,,,4,,,41,0
211920,note_on,0,0,4,,,,,,,,,4,,,45,0
211920,note_on,336,0,3,,,,,,,,,3,,,48,0
211920,note_on,0,0,3,,,,,,,,,3,,,60,0
211968,note_on,0,0,4,,,,,,,,,4,,,45,56
211968,note_on,48,0,2,,,,,,,,,2,,,57,56
211968,note_on,48,0,4,,,,,,,,,4,,,41,56
211968,note_on,48,0,3,,,,,,,,,3,,,48,56
211968,note_on,0,0,3,,,,,,,,,3,,,60,56
212128,note_on,160,0,4,,,,,,,,,4,,,41,0
212128,note_on,160,0,2,,,,,,,,,2,,,57,0
212128,note_on,0,0,3,,,,,,,,,3,,,60,0
212128,note_on,160,0,3,,,,,,,,,3,,,48,0
212128,note_on,0,0,4,,,,,,,,,4,,,45,0
212352,note_on,0,0,2,,,,,,,,,2,,,81,45
212352,note_on,224,0,2,,,,,,,,,2,,,72,45
212352,note_on,224,0,4,,,,,,,,,4,,,65,45
212352,note_on,224,0,3,,,,,,,,,3,,,69,45
212352,note_on,1760,0,1,,,,,,,,,1,,,84,45
212688,note_on,0,0,2,,,,,,,,,2,,,81,0
212688,note_on,336,0,2,,,,,,,,,2,,,72,0
212688,note_on,336,0,4,,,,,,,,,4,,,65,0
212688,note_on,336,0,1,,,,,,,,,1,,,84,0
212688,note_on,336,0,3,,,,,,,,,3,,,69,0
212736,note_on,0,0,2,,,,,,,,,2,,,81,45
212736,note_on,48,0,1,,,,,,,,,1,,,84,45
212736,note_on,48,0,3,,,,,,,,,3,,,69,45
212736,note_on,48,0,4,,,,,,,,,4,,,65,45
212736,note_on,48,0,2,,,,,,,,,2,,,72,45
213072,note_on,0,0,2,,,,,,,,,2,,,81,0
213072,note_on,336,0,2,,,,,,,,,2,,,72,0
213072,note_on,336,0,4,,,,,,,,,4,,,65,0
213072,note_on,336,0,1,,,,,,,,,1,,,84,0
213072,note_on,336,0,3,,,,,,,,,3,,,69,0
213120,note_on,0,0,2,,,,,,,,,2,,,81,38
213120,note_on,48,0,2,,,,,,,,,2,,,72,38
213120,note_on,48,0,1,,,,,,,,,1,,,84,38
213120,note_on,48,0,4,,,,,,,,,4,,,65,38
213120,note_on,48,0,3,,,,,,,,,3,,,69,38
213280,note_on,160,0,3,,,,,,,,,3,,,69,0
213280,note_on,160,0,4,,,,,,,,,4,,,65,0
213280,note_on,0,0,2,,,,,,,,,2,,,81,0
213280,note_on,160,0,1,,,,,,,,,1,,,84,0
213280,note_on,160,0,2,,,,,,,,,2,,,72,0
213504,note_on,224,0,4,,,,,,,,,4,,,65,30
213504,note_on,0,0,2,,,,,,,,,2,,,81,30
213504,note_on,224,0,2,,,,,,,,,2,,,72,30
213504,note_on,224,0,3,,,,,,,,,3,,,69,30
213504,note_on,224,0,1,,,,,,,,,1,,,84,30
213840,note_on,336,0,1,,,,,,,,,1,,,84,0
213840,note_on,336,0,2,,,,,,,,,2,,,72,0
213840,note_on,0,0,2,,,,,,,,,2,,,81,0
213840,note_on,336,0,4,,,,,,,,,4,,,65,0
213840,note_on,336,0,3,,,,,,,,,3,,,69,0
213888,note_on,48,0,1,,,,,,,,,1,,,84,92
213888,note_on,48,0,2,,,,,,,,,2,,,72,92
213888,note_on,0,0,2,,,,,,,,,2,,,81,92
213888,note_on,48,0,3,,,,,,,,,3,,,69,92
213888,note_on,48,0,4,,,,,,,,,4,,,65,92
214048,note_on,160,0,3,,,,,,,,,3,,,69,0
214048,end_of_track,0,1,3,,,,,,,,,,,,,
214048,note_on,160,0,2,,,,,,,,,2,,,72,0
214048,note_on,0,0,2,,,,,,,,,2,,,81,0
214048,end_of_track,0,1,2,,,,,,,,,,,,,
214048,note_on,160,0,4,,,,,,,,,4,,,65,0
214048,note_on,160,0,1,,,,,,,,,1,,,84,0
214048,end_of_track,0,1,4,,,,,,,,,,,,,
214272,control_change,224,0,1,,,,,,,,,1,7,0,,
214272,note_on,0,0,1,,,,,,,,,1,,,70,60
214992,note_on,720,0,1,,,,,,,,,1,,,70,0
214992,end_of_track,0,1,1,,,,,,,,,,,,,
