,note,step,duration,channel,velocity
0,60.0,1,60,10.0,0.0
1,60.0,38,60,11.0,0.0
2,65.0,1,40,10.0,0.0
3,65.0,59,40,11.0,0.0
4,65.0,1,40,10.0,0.0
5,65.0,80,40,11.0,0.0
6,65.0,1,60,10.0,0.0
7,65.0,38,60,11.0,0.0
8,69.0,1,40,10.0,0.0
9,69.0,59,40,11.0,0.0
10,69.0,1,40,10.0,0.0
11,69.0,80,40,11.0,0.0
12,69.0,1,60,10.0,0.0
13,69.0,38,60,11.0,0.0
14,70.0,1,40,10.0,0.0
15,70.0,50,40,11.0,0.0
16,70.0,1,30,10.0,0.0
17,70.0,24,30,11.0,0.0
18,69.0,1,15,10.0,0.0
19,69.0,34,15,11.0,0.0
20,67.0,1,30,10.0,0.0
21,67.0,24,30,11.0,0.0
22,65.0,1,15,10.0,0.0
23,65.0,43,15,11.0,0.0
24,64.0,1,40,10.0,0.0
25,64.0,59,40,11.0,0.0
26,64.0,1,40,10.0,0.0
27,64.0,80,40,11.0,0.0
28,64.0,1,60,10.0,0.0
29,64.0,59,60,11.0,0.0
30,65.0,1,60,10.0,0.0
31,65.0,59,60,11.0,0.0
32,67.0,1,60,10.0,0.0
33,67.0,54,60,11.0,0.0
34,69.0,1,60,10.0,0.0
35,69.0,94,60,11.0,0.0
36,70.0,1,90,10.0,0.0
37,70.0,24,90,11.0,0.0
38,72.0,1,30,10.0,0.0
39,72.0,34,30,11.0,0.0
40,69.0,1,30,10.0,0.0
41,69.0,31,30,11.0,0.0
42,53.0,2,60,12.0,0.0
43,53.0,37,60,13.0,0.0
44,67.0,1,60,10.0,0.0
45,67.0,40,60,11.0,0.0
46,60.0,2,40,12.0,0.0
47,60.0,17,40,13.0,0.0
48,60.0,2,40,12.0,0.0
49,60.0,78,40,13.0,0.0
50,67.0,1,60,11.0,0.0
51,60.0,2,60,12.0,0.0
52,60.0,36,60,13.0,0.0
53,72.0,1,40,11.0,0.0
54,64.0,2,40,12.0,0.0
55,64.0,57,40,13.0,0.0
56,72.0,1,40,11.0,0.0
57,64.0,2,40,12.0,0.0
58,64.0,79,40,13.0,0.0
59,72.0,1,120,11.0,0.0
60,64.0,2,60,12.0,0.0
61,64.0,52,60,13.0,0.0
62,65.0,2,60,12.0,0.0
63,65.0,32,60,13.0,0.0
64,71.0,1,30,11.0,0.0
65,65.0,2,30,12.0,0.0
66,65.0,22,30,13.0,0.0
67,72.0,1,15,11.0,0.0
68,64.0,2,15,12.0,0.0
69,64.0,32,15,13.0,0.0
70,74.0,1,30,11.0,0.0
71,62.0,2,30,12.0,0.0
72,62.0,22,30,13.0,0.0
73,76.0,1,15,11.0,0.0
74,60.0,2,15,12.0,0.0
75,60.0,41,15,13.0,0.0
76,77.0,1,40,11.0,0.0
77,59.0,2,40,12.0,0.0
78,59.0,58,40,13.0,0.0
79,59.0,2,40,12.0,0.0
80,59.0,78,40,13.0,0.0
81,65.0,1,60,11.0,0.0
82,59.0,2,60,12.0,0.0
83,59.0,1,60,13.0,0.0
84,43.0,1,60,3.0,0.0
85,31.0,34,60,14.0,0.0
86,64.0,1,40,11.0,0.0
87,60.0,1,240,4.0,0.0
88,60.0,2,40,12.0,0.0
89,48.0,34,240,5.0,0.0
90,60.0,1,40,13.0,0.0
91,48.0,1,40,3.0,0.0
92,36.0,47,40,14.0,0.0
93,64.0,4,40,11.0,0.0
94,60.0,2,30,12.0,0.0
95,60.0,6,30,13.0,0.0
96,48.0,1,40,3.0,0.0
97,36.0,12,40,14.0,0.0
98,59.0,2,15,12.0,0.0
99,59.0,33,15,13.0,0.0
100,64.0,5,60,11.0,0.0
101,60.0,2,30,12.0,0.0
102,60.0,23,30,13.0,0.0
103,48.0,17,90,3.0,0.0
104,36.0,17,60,14.0,0.0
105,62.0,2,15,12.0,0.0
106,62.0,2,15,13.0,0.0
107,72.0,1,40,11.0,0.0
108,58.0,2,40,12.0,0.0
109,58.0,1,40,13.0,0.0
110,52.0,1,40,3.0,0.0
111,40.0,11,40,14.0,0.0
112,60.0,1,30,4.0,0.0
113,72.0,4,40,11.0,0.0
114,58.0,2,30,12.0,0.0
115,48.0,0,30,5.0,0.0
116,58.0,6,30,13.0,0.0
117,52.0,1,40,3.0,0.0
118,40.0,12,40,14.0,0.0
119,57.0,2,15,12.0,0.0
120,57.0,33,15,13.0,0.0
121,72.0,1,60,10.0,0.0
122,72.0,0,60,0.0,0.0
123,64.0,0,60,11.0,0.0
124,60.0,0,60,4.0,0.0
125,72.0,1,60,1.0,0.0
126,58.0,2,30,12.0,0.0
127,48.0,3,60,5.0,0.0
128,58.0,23,30,13.0,0.0
129,55.0,1,60,3.0,0.0
130,43.0,33,60,14.0,0.0
131,60.0,2,15,12.0,0.0
132,60.0,1,15,13.0,0.0
133,77.0,1,40,10.0,0.0
134,69.0,1,40,1.0,0.0
135,77.0,0,40,0.0,0.0
136,77.0,0,40,1.0,0.0
137,65.0,0,40,4.0,0.0
138,65.0,0,40,11.0,0.0
139,53.0,0,40,5.0,0.0
140,57.0,2,40,12.0,0.0
141,57.0,1,40,13.0,0.0
142,53.0,1,40,3.0,0.0
143,41.0,54,40,14.0,0.0
144,77.0,1,40,10.0,0.0
145,65.0,0,40,4.0,0.0
146,65.0,1,60,11.0,0.0
147,77.0,0,40,1.0,0.0
148,69.0,1,40,1.0,0.0
149,77.0,0,40,0.0,0.0
150,57.0,2,40,5.0,0.0
151,57.0,3,60,2.0,0.0
152,57.0,0,60,12.0,0.0
153,65.0,0,60,2.0,0.0
154,41.0,2,40,13.0,0.0
155,53.0,0,60,3.0,0.0
156,29.0,16,40,14.0,0.0
157,77.0,1,60,10.0,0.0
158,69.0,0,60,11.0,0.0
159,77.0,0,60,1.0,0.0
160,69.0,0,60,1.0,0.0
161,65.0,1,60,4.0,0.0
162,77.0,0,60,0.0,0.0
163,69.0,0,60,2.0,0.0
164,60.0,3,60,2.0,0.0
165,57.0,0,60,5.0,0.0
166,60.0,0,60,12.0,0.0
167,57.0,55,15,3.0,0.0
168,60.0,34,60,3.0,0.0
169,81.0,1,40,10.0,0.0
170,81.0,0,40,1.0,0.0
171,69.0,0,40,4.0,0.0
172,77.0,0,40,1.0,0.0
173,81.0,1,40,0.0,0.0
174,65.0,2,40,5.0,0.0
175,53.0,2,40,13.0,0.0
176,41.0,54,40,14.0,0.0
177,81.0,1,40,10.0,0.0
178,69.0,1,60,11.0,0.0
179,81.0,0,40,0.0,0.0
180,69.0,1,40,4.0,0.0
181,81.0,0,40,1.0,0.0
182,77.0,0,40,1.0,0.0
183,65.0,0,60,12.0,0.0
184,69.0,0,60,2.0,0.0
185,65.0,3,60,2.0,0.0
186,65.0,2,40,5.0,0.0
187,41.0,2,40,13.0,0.0
188,60.0,55,60,3.0,0.0
189,57.0,1,60,3.0,0.0
190,29.0,15,40,14.0,0.0
191,81.0,0,60,10.0,0.0
192,72.0,1,60,11.0,0.0
193,81.0,0,60,0.0,0.0
194,65.0,0,60,4.0,0.0
195,81.0,0,60,1.0,0.0
196,77.0,0,60,1.0,0.0
197,53.0,0,60,5.0,0.0
198,72.0,36,60,2.0,0.0
199,69.0,0,60,12.0,0.0
200,69.0,0,60,2.0,0.0
201,57.0,0,60,3.0,0.0
202,65.0,1,60,3.0,0.0
203,82.0,1,40,10.0,0.0
204,60.0,0,40,4.0,0.0
205,76.0,0,40,1.0,0.0
206,82.0,0,40,1.0,0.0
207,82.0,0,40,0.0,0.0
208,70.0,0,40,11.0,0.0
209,60.0,2,40,12.0,0.0
210,70.0,0,60,2.0,0.0
211,48.0,16,40,5.0,0.0
212,67.0,3,60,2.0,0.0
213,48.0,2,60,13.0,0.0
214,64.0,0,60,3.0,0.0
215,58.0,4,60,3.0,0.0
216,36.0,24,60,14.0,0.0
217,82.0,1,30,10.0,0.0
218,82.0,7,30,0.0,0.0
219,82.0,0,30,1.0,0.0
220,60.0,1,40,4.0,0.0
221,70.0,0,60,1.0,0.0
222,70.0,0,30,11.0,0.0
223,60.0,2,40,12.0,0.0
224,70.0,3,60,2.0,0.0
225,67.0,0,60,2.0,0.0
226,48.0,2,40,5.0,0.0
227,52.0,2,40,13.0,0.0
228,64.0,30,60,3.0,0.0
229,58.0,0,60,3.0,0.0
230,40.0,10,40,14.0,0.0
231,81.0,1,15,10.0,0.0
232,81.0,0,15,0.0,0.0
233,69.0,1,15,11.0,0.0
234,81.0,0,15,1.0,0.0
235,79.0,1,30,10.0,0.0
236,67.0,7,30,11.0,0.0
237,60.0,1,40,4.0,0.0
238,79.0,0,30,1.0,0.0
239,70.0,31,60,1.0,0.0
240,79.0,0,30,0.0,0.0
241,48.0,2,40,5.0,0.0
242,60.0,2,40,12.0,0.0
243,67.0,0,60,2.0,0.0
244,70.0,3,60,2.0,0.0
245,55.0,2,40,13.0,0.0
246,58.0,0,60,3.0,0.0
247,64.0,0,60,3.0,0.0
248,43.0,10,40,14.0,0.0
249,77.0,1,15,10.0,0.0
250,65.0,0,15,11.0,0.0
251,77.0,0,15,1.0,0.0
252,77.0,1,15,0.0,0.0
253,76.0,22,40,10.0,0.0
254,60.0,1,120,4.0,0.0
255,64.0,1,60,11.0,0.0
256,76.0,8,30,1.0,0.0
257,72.0,0,60,1.0,0.0
258,76.0,0,60,0.0,0.0
259,67.0,29,60,12.0,0.0
260,70.0,0,120,2.0,0.0
261,67.0,0,120,2.0,0.0
262,48.0,2,120,5.0,0.0
263,60.0,1,120,13.0,0.0
264,58.0,1,120,3.0,0.0
265,64.0,0,120,3.0,0.0
266,48.0,0,120,14.0,0.0
267,76.0,7,40,10.0,0.0
268,76.0,8,30,1.0,0.0
269,67.0,1,60,1.0,0.0
270,84.0,10,40,0.0,0.0
271,67.0,0,60,11.0,0.0
272,64.0,44,60,12.0,0.0
273,76.0,1,60,10.0,0.0
274,72.0,1,60,11.0,0.0
275,60.0,0,60,4.0,0.0
276,72.0,1,120,1.0,0.0
277,84.0,10,40,0.0,0.0
278,67.0,2,60,2.0,0.0
279,64.0,0,60,2.0,0.0
280,48.0,0,60,5.0,0.0
281,67.0,3,60,12.0,0.0
282,58.0,1,60,13.0,0.0
283,60.0,0,120,3.0,0.0
284,58.0,1,60,3.0,0.0
285,46.0,20,60,14.0,0.0
286,77.0,1,60,10.0,0.0
287,77.0,1,15,1.0,0.0
288,84.0,1,40,0.0,0.0
289,72.0,1,30,11.0,0.0
290,60.0,0,40,4.0,0.0
291,60.0,0,60,2.0,0.0
292,48.0,9,40,5.0,0.0
293,65.0,2,60,2.0,0.0
294,60.0,19,30,12.0,0.0
295,57.0,1,60,13.0,0.0
296,57.0,1,60,3.0,0.0
297,45.0,20,60,14.0,0.0
298,72.0,1,30,11.0,0.0
299,60.0,3,30,12.0,0.0
300,79.0,1,60,10.0,0.0
301,72.0,1,30,11.0,0.0
302,76.0,1,60,1.0,0.0
303,84.0,1,40,0.0,0.0
304,60.0,0,40,4.0,0.0
305,79.0,0,60,1.0,0.0
306,60.0,19,30,12.0,0.0
307,67.0,2,60,2.0,0.0
308,64.0,0,60,2.0,0.0
309,48.0,9,40,5.0,0.0
310,55.0,1,60,13.0,0.0
311,64.0,1,60,3.0,0.0
312,55.0,0,60,3.0,0.0
313,43.0,20,60,14.0,0.0
314,72.0,1,30,11.0,0.0
315,60.0,3,30,12.0,0.0
316,81.0,1,60,10.0,0.0
317,72.0,1,30,11.0,0.0
318,60.0,1,40,4.0,0.0
319,81.0,4,60,1.0,0.0
320,77.0,0,60,1.0,0.0
321,84.0,0,40,0.0,0.0
322,60.0,19,30,12.0,0.0
323,69.0,0,60,2.0,0.0
324,65.0,2,60,2.0,0.0
325,48.0,8,40,5.0,0.0
326,53.0,2,60,13.0,0.0
327,65.0,21,60,3.0,0.0
328,53.0,0,60,3.0,0.0
329,41.0,0,60,14.0,0.0
330,72.0,1,30,11.0,0.0
331,60.0,0,30,12.0,0.0
332,82.0,1,90,10.0,0.0
333,60.0,1,120,4.0,0.0
334,84.0,0,120,0.0,0.0
335,72.0,1,30,11.0,0.0
336,82.0,1,90,1.0,0.0
337,79.0,0,60,1.0,0.0
338,70.0,24,90,2.0,0.0
339,67.0,24,60,2.0,0.0
340,60.0,29,30,12.0,0.0
341,48.0,0,120,5.0,0.0
342,52.0,2,60,13.0,0.0
343,55.0,21,120,3.0,0.0
344,58.0,0,120,3.0,0.0
345,40.0,1,60,14.0,0.0
346,72.0,1,30,11.0,0.0
347,60.0,2,30,12.0,0.0
348,72.0,1,30,11.0,0.0
349,76.0,0,60,1.0,0.0
350,64.0,3,30,12.0,0.0
351,64.0,0,60,2.0,0.0
352,48.0,1,60,13.0,0.0
353,36.0,1,60,14.0,0.0
354,84.0,1,30,10.0,0.0
355,72.0,0,30,11.0,0.0
356,84.0,0,30,1.0,0.0
357,72.0,3,30,2.0,0.0
358,60.0,2,30,12.0,0.0
359,81.0,1,60,10.0,0.0
360,81.0,1,30,1.0,0.0
361,77.0,0,60,1.0,0.0
362,60.0,0,60,4.0,0.0
363,72.0,1,30,11.0,0.0
364,84.0,1,60,0.0,0.0
365,65.0,0,60,2.0,0.0
366,69.0,23,30,2.0,0.0
367,65.0,4,30,12.0,0.0
368,48.0,2,60,5.0,0.0
369,53.0,1,60,13.0,0.0
370,53.0,1,60,3.0,0.0
371,57.0,0,60,3.0,0.0
372,41.0,26,60,14.0,0.0
373,72.0,0,30,11.0,0.0
374,60.0,0,30,12.0,0.0
375,79.0,1,60,10.0,0.0
376,79.0,0,60,1.0,0.0
377,72.0,1,60,11.0,0.0
378,84.0,0,60,0.0,0.0
379,76.0,0,60,1.0,0.0
380,60.0,1,30,4.0,0.0
381,48.0,26,30,5.0,0.0
382,64.0,0,60,2.0,0.0
383,67.0,2,60,2.0,0.0
384,60.0,3,30,12.0,0.0
385,48.0,1,60,13.0,0.0
386,55.0,1,60,3.0,0.0
387,52.0,0,60,3.0,0.0
388,36.0,21,60,14.0,0.0
389,60.0,0,30,4.0,0.0
390,48.0,0,30,5.0,0.0
391,60.0,3,30,12.0,0.0
392,60.0,1,30,4.0,0.0
393,60.0,3,30,12.0,0.0
394,48.0,26,30,5.0,0.0
395,60.0,1,30,4.0,0.0
396,60.0,3,30,12.0,0.0
397,48.0,26,30,5.0,0.0
398,79.0,1,60,10.0,0.0
399,67.0,0,60,11.0,0.0
400,76.0,0,60,1.0,0.0
401,79.0,1,60,1.0,0.0
402,79.0,1,60,0.0,0.0
403,60.0,1,30,4.0,0.0
404,48.0,24,30,5.0,0.0
405,64.0,3,30,12.0,0.0
406,64.0,2,60,2.0,0.0
407,67.0,0,60,2.0,0.0
408,58.0,1,60,13.0,0.0
409,52.0,1,60,3.0,0.0
410,55.0,0,60,3.0,0.0
411,46.0,21,60,14.0,0.0
412,60.0,1,30,4.0,0.0
413,60.0,3,30,12.0,0.0
414,48.0,0,30,5.0,0.0
415,81.0,1,120,10.0,0.0
416,60.0,1,30,4.0,0.0
417,69.0,0,120,11.0,0.0
418,81.0,0,60,1.0,0.0
419,77.0,0,60,1.0,0.0
420,81.0,9,120,0.0,0.0
421,48.0,26,30,5.0,0.0
422,69.0,2,60,2.0,0.0
423,65.0,0,60,2.0,0.0
424,65.0,3,30,12.0,0.0
425,57.0,1,60,13.0,0.0
426,53.0,1,60,3.0,0.0
427,57.0,0,60,3.0,0.0
428,45.0,21,60,14.0,0.0
429,60.0,1,30,4.0,0.0
430,48.0,1,30,5.0,0.0
431,60.0,3,30,12.0,0.0
432,60.0,1,30,4.0,0.0
433,65.0,3,30,12.0,0.0
434,48.0,14,30,5.0,0.0
435,60.0,1,30,4.0,0.0
436,60.0,3,30,12.0,0.0
437,48.0,26,30,5.0,0.0
438,77.0,1,15,10.0,0.0
439,77.0,0,15,0.0,0.0
440,65.0,1,15,11.0,0.0
441,84.0,1,40,10.0,0.0
442,81.0,1,60,1.0,0.0
443,72.0,0,40,11.0,0.0
444,84.0,9,40,0.0,0.0
445,60.0,1,30,4.0,0.0
446,77.0,0,60,1.0,0.0
447,65.0,0,60,2.0,0.0
448,69.0,2,60,2.0,0.0
449,65.0,3,30,12.0,0.0
450,48.0,14,30,5.0,0.0
451,53.0,1,60,13.0,0.0
452,53.0,1,60,3.0,0.0
453,57.0,0,60,3.0,0.0
454,41.0,21,60,14.0,0.0
455,60.0,1,30,4.0,0.0
456,60.0,3,30,12.0,0.0
457,48.0,0,30,5.0,0.0
458,81.0,1,15,10.0,0.0
459,81.0,1,15,0.0,0.0
460,69.0,0,15,11.0,0.0
461,79.0,0,60,10.0,0.0
462,79.0,0,60,1.0,0.0
463,67.0,0,60,11.0,0.0
464,79.0,0,60,0.0,0.0
465,76.0,1,60,1.0,0.0
466,60.0,1,30,4.0,0.0
467,67.0,0,60,2.0,0.0
468,64.0,3,30,12.0,0.0
469,64.0,2,60,2.0,0.0
470,48.0,26,30,5.0,0.0
471,48.0,1,60,13.0,0.0
472,55.0,1,60,3.0,0.0
473,52.0,0,60,3.0,0.0
474,36.0,21,60,14.0,0.0
475,60.0,1,30,4.0,0.0
476,48.0,0,30,5.0,0.0
477,60.0,3,30,12.0,0.0
478,60.0,1,30,4.0,0.0
479,60.0,3,30,12.0,0.0
480,48.0,26,30,5.0,0.0
481,60.0,1,30,4.0,0.0
482,60.0,3,30,12.0,0.0
483,48.0,26,30,5.0,0.0
484,79.0,1,60,10.0,0.0
485,76.0,0,60,1.0,0.0
486,79.0,0,60,1.0,0.0
487,67.0,1,60,11.0,0.0
488,60.0,1,30,4.0,0.0
489,79.0,0,60,0.0,0.0
490,64.0,3,30,12.0,0.0
491,67.0,2,60,2.0,0.0
492,64.0,0,60,2.0,0.0
493,48.0,24,30,5.0,0.0
494,58.0,1,60,13.0,0.0
495,52.0,0,60,3.0,0.0
496,55.0,1,60,3.0,0.0
497,46.0,21,60,14.0,0.0
498,60.0,1,30,4.0,0.0
499,48.0,1,30,5.0,0.0
500,60.0,3,30,12.0,0.0
501,81.0,1,120,10.0,0.0
502,60.0,1,30,4.0,0.0
503,77.0,1,60,1.0,0.0
504,81.0,0,60,1.0,0.0
505,81.0,9,120,0.0,0.0
506,69.0,0,120,11.0,0.0
507,69.0,2,60,2.0,0.0
508,48.0,26,30,5.0,0.0
509,65.0,3,30,12.0,0.0
510,65.0,0,60,2.0,0.0
511,57.0,1,60,13.0,0.0
512,53.0,0,60,3.0,0.0
513,57.0,1,60,3.0,0.0
514,45.0,21,60,14.0,0.0
515,60.0,1,30,4.0,0.0
516,60.0,3,30,12.0,0.0
517,48.0,0,30,5.0,0.0
518,60.0,1,30,4.0,0.0
519,65.0,3,30,12.0,0.0
520,48.0,14,30,5.0,0.0
521,60.0,1,30,4.0,0.0
522,48.0,26,30,5.0,0.0
523,60.0,3,30,12.0,0.0
524,77.0,1,15,10.0,0.0
525,77.0,0,15,0.0,0.0
526,65.0,1,15,11.0,0.0
527,84.0,1,40,10.0,0.0
528,77.0,1,60,1.0,0.0
529,72.0,0,40,11.0,0.0
530,84.0,9,40,0.0,0.0
531,60.0,1,30,4.0,0.0
532,81.0,0,60,1.0,0.0
533,65.0,2,60,2.0,0.0
534,69.0,0,60,2.0,0.0
535,48.0,14,30,5.0,0.0
536,65.0,3,30,12.0,0.0
537,53.0,1,60,13.0,0.0
538,53.0,1,60,3.0,0.0
539,57.0,0,60,3.0,0.0
540,41.0,21,60,14.0,0.0
541,60.0,1,30,4.0,0.0
542,48.0,0,30,5.0,0.0
543,60.0,3,30,12.0,0.0
544,81.0,1,15,10.0,0.0
545,69.0,0,15,11.0,0.0
546,81.0,1,15,0.0,0.0
547,79.0,0,30,10.0,0.0
548,76.0,3,60,1.0,0.0
549,79.0,0,60,1.0,0.0
550,60.0,1,30,4.0,0.0
551,79.0,0,30,0.0,0.0
552,67.0,26,30,11.0,0.0
553,64.0,0,60,2.0,0.0
554,64.0,3,30,12.0,0.0
555,48.0,0,30,5.0,0.0
556,67.0,0,60,2.0,0.0
557,48.0,2,60,13.0,0.0
558,52.0,0,60,3.0,0.0
559,55.0,1,60,3.0,0.0
560,36.0,21,60,14.0,0.0
561,72.0,0,30,4.0,0.0
562,60.0,0,30,5.0,0.0
563,60.0,3,30,12.0,0.0
564,84.0,1,90,10.0,0.0
565,84.0,15,90,0.0,0.0
566,72.0,1,30,4.0,0.0
567,72.0,0,90,11.0,0.0
568,60.0,26,30,5.0,0.0
569,64.0,3,60,2.0,0.0
570,67.0,0,60,2.0,0.0
571,64.0,3,30,12.0,0.0
572,55.0,0,60,3.0,0.0
573,52.0,22,60,3.0,0.0
574,72.0,1,30,4.0,0.0
575,60.0,1,30,5.0,0.0
576,60.0,3,30,12.0,0.0
577,69.0,0,30,4.0,0.0
578,84.0,8,40,1.0,0.0
579,69.0,2,60,2.0,0.0
580,57.0,0,30,5.0,0.0
581,65.0,0,60,2.0,0.0
582,65.0,3,30,12.0,0.0
583,53.0,1,60,13.0,0.0
584,57.0,1,60,3.0,0.0
585,53.0,0,60,3.0,0.0
586,41.0,21,60,14.0,0.0
587,81.0,1,30,10.0,0.0
588,81.0,0,30,0.0,0.0
589,65.0,1,30,4.0,0.0
590,69.0,1,30,11.0,0.0
591,60.0,3,30,12.0,0.0
592,53.0,1,30,5.0,0.0
593,77.0,1,15,1.0,0.0
594,81.0,0,15,1.0,0.0
595,79.0,1,30,10.0,0.0
596,60.0,0,30,4.0,0.0
597,79.0,0,30,0.0,0.0
598,76.0,0,30,1.0,0.0
599,79.0,1,30,1.0,0.0
600,67.0,0,30,11.0,0.0
601,67.0,3,30,2.0,0.0
602,64.0,3,30,12.0,0.0
603,64.0,0,30,2.0,0.0
604,48.0,0,30,5.0,0.0
605,48.0,2,60,13.0,0.0
606,52.0,0,30,3.0,0.0
607,55.0,22,30,3.0,0.0
608,36.0,21,60,14.0,0.0
609,72.0,1,30,4.0,0.0
610,60.0,3,30,5.0,0.0
611,60.0,3,30,12.0,0.0
612,84.0,1,30,10.0,0.0
613,72.0,0,30,4.0,0.0
614,84.0,26,30,0.0,0.0
615,72.0,0,30,11.0,0.0
616,64.0,0,60,2.0,0.0
617,67.0,3,60,2.0,0.0
618,60.0,0,30,5.0,0.0
619,64.0,3,30,12.0,0.0
620,55.0,22,60,3.0,0.0
621,52.0,0,60,3.0,0.0
622,83.0,0,30,10.0,0.0
623,72.0,1,30,4.0,0.0
624,71.0,0,30,11.0,0.0
625,83.0,1,30,0.0,0.0
626,60.0,3,30,12.0,0.0
627,60.0,0,30,5.0,0.0
628,84.0,0,30,10.0,0.0
629,84.0,0,30,0.0,0.0
630,72.0,0,30,11.0,0.0
631,69.0,1,30,4.0,0.0
632,84.0,0,40,1.0,0.0
633,81.0,8,40,1.0,0.0
634,69.0,0,60,2.0,0.0
635,65.0,2,60,2.0,0.0
636,57.0,15,30,5.0,0.0
637,65.0,3,30,12.0,0.0
638,53.0,1,60,13.0,0.0
639,57.0,1,60,3.0,0.0
640,53.0,0,60,3.0,0.0
641,41.0,33,60,14.0,0.0
642,81.0,1,30,10.0,0.0
643,69.0,0,30,11.0,0.0
644,81.0,1,30,0.0,0.0
645,65.0,1,30,4.0,0.0
646,60.0,3,30,12.0,0.0
647,53.0,1,30,5.0,0.0
648,77.0,1,15,1.0,0.0
649,81.0,0,15,1.0,0.0
650,79.0,1,40,10.0,0.0
651,60.0,0,40,4.0,0.0
652,79.0,1,40,1.0,0.0
653,76.0,0,40,1.0,0.0
654,67.0,0,40,11.0,0.0
655,79.0,0,40,0.0,0.0
656,48.0,2,40,5.0,0.0
657,67.0,0,40,2.0,0.0
658,60.0,0,40,12.0,0.0
659,64.0,0,40,2.0,0.0
660,48.0,1,40,13.0,0.0
661,55.0,0,40,3.0,0.0
662,52.0,1,40,3.0,0.0
663,36.0,54,40,14.0,0.0
664,67.0,1,40,10.0,0.0
665,67.0,0,40,4.0,0.0
666,64.0,0,40,11.0,0.0
667,79.0,0,40,1.0,0.0
668,76.0,0,40,1.0,0.0
669,79.0,0,40,0.0,0.0
670,55.0,1,40,11.0,0.0
671,67.0,2,40,2.0,0.0
672,64.0,0,40,2.0,0.0
673,48.0,0,40,12.0,0.0
674,60.0,0,40,5.0,0.0
675,48.0,1,40,13.0,0.0
676,60.0,1,40,3.0,0.0
677,48.0,0,40,3.0,0.0
678,36.0,54,40,14.0,0.0
679,67.0,1,40,10.0,0.0
680,79.0,0,40,1.0,0.0
681,79.0,0,40,0.0,0.0
682,67.0,0,40,4.0,0.0
683,76.0,0,40,1.0,0.0
684,55.0,0,40,11.0,0.0
685,64.0,1,40,11.0,0.0
686,64.0,0,40,2.0,0.0
687,60.0,0,40,5.0,0.0
688,67.0,0,40,2.0,0.0
689,48.0,2,40,12.0,0.0
690,48.0,1,40,13.0,0.0
691,60.0,0,40,3.0,0.0
692,48.0,1,40,3.0,0.0
693,36.0,75,40,14.0,0.0
694,67.0,1,60,10.0,0.0
695,64.0,0,60,11.0,0.0
696,79.0,0,60,1.0,0.0
697,76.0,0,60,1.0,0.0
698,79.0,0,60,0.0,0.0
699,55.0,0,60,11.0,0.0
700,67.0,1,60,4.0,0.0
701,60.0,0,60,5.0,0.0
702,48.0,2,60,12.0,0.0
703,67.0,0,60,2.0,0.0
704,64.0,0,60,2.0,0.0
705,48.0,1,60,13.0,0.0
706,48.0,1,60,3.0,0.0
707,36.0,114,60,14.0,0.0
708,67.0,39,60,10.0,0.0
709,76.0,64,40,10.0,0.0
710,61.0,60,40,13.0,0.0
711,76.0,1,60,10.0,0.0
712,73.0,1,60,11.0,0.0
713,67.0,37,60,12.0,0.0
714,57.0,17,40,13.0,0.0
715,77.0,1,40,10.0,0.0
716,74.0,1,40,11.0,0.0
717,65.0,2,40,12.0,0.0
718,62.0,60,40,13.0,0.0
719,50.0,62,40,13.0,0.0
720,81.0,1,40,10.0,0.0
721,69.0,9,40,11.0,0.0
722,77.0,1,15,10.0,0.0
723,65.0,43,15,11.0,0.0
724,74.0,1,40,10.0,0.0
725,62.0,63,40,11.0,0.0
726,59.0,60,40,13.0,0.0
727,74.0,1,60,10.0,0.0
728,71.0,1,60,11.0,0.0
729,65.0,37,60,12.0,0.0
730,55.0,17,40,13.0,0.0
731,76.0,1,40,10.0,0.0
732,72.0,1,40,11.0,0.0
733,64.0,2,40,12.0,0.0
734,60.0,60,40,13.0,0.0
735,48.0,62,40,13.0,0.0
736,79.0,1,40,10.0,0.0
737,67.0,9,40,11.0,0.0
738,76.0,1,15,10.0,0.0
739,64.0,43,15,11.0,0.0
740,72.0,1,40,10.0,0.0
741,60.0,1,40,11.0,0.0
742,55.0,2,40,12.0,0.0
743,52.0,1,40,13.0,0.0
744,52.0,68,40,3.0,0.0
745,72.0,1,60,10.0,0.0
746,67.0,1,60,11.0,0.0
747,67.0,1,60,12.0,0.0
748,64.0,56,60,13.0,0.0
749,64.0,1,60,3.0,0.0
750,72.0,1,60,10.0,0.0
751,67.0,1,60,11.0,0.0
752,67.0,1,60,12.0,0.0
753,64.0,64,60,13.0,0.0
754,64.0,1,60,3.0,0.0
755,72.0,2,60,10.0,0.0
756,67.0,4,120,11.0,0.0
757,67.0,2,60,12.0,0.0
758,64.0,1,60,13.0,0.0
759,64.0,51,60,3.0,0.0
760,71.0,2,60,10.0,0.0
761,65.0,2,60,12.0,0.0
762,62.0,1,60,13.0,0.0
763,62.0,50,60,3.0,0.0
764,72.0,1,60,10.0,0.0
765,67.0,1,60,11.0,0.0
766,64.0,2,60,12.0,0.0
767,60.0,1,60,13.0,0.0
768,60.0,60,60,3.0,0.0
769,74.0,1,60,10.0,0.0
770,67.0,1,120,4.0,0.0
771,67.0,1,60,11.0,0.0
772,67.0,5,120,5.0,0.0
773,62.0,2,60,12.0,0.0
774,59.0,1,60,13.0,0.0
775,59.0,51,60,3.0,0.0
776,77.0,1,60,10.0,0.0
777,74.0,14,60,11.0,0.0
778,59.0,2,60,12.0,0.0
779,55.0,1,60,13.0,0.0
780,55.0,10,60,3.0,0.0
781,67.0,0,60,4.0,0.0
782,60.0,0,60,12.0,0.0
783,67.0,2,60,5.0,0.0
784,60.0,1,60,13.0,0.0
785,60.0,43,60,3.0,0.0
786,76.0,1,15,10.0,0.0
787,72.0,14,15,11.0,0.0
788,74.0,1,15,10.0,0.0
789,71.0,9,15,11.0,0.0
790,76.0,1,15,10.0,0.0
791,72.0,1,15,11.0,0.0
792,74.0,0,60,10.0,0.0
793,71.0,1,60,11.0,0.0
794,67.0,0,60,4.0,0.0
795,67.0,0,60,5.0,0.0
796,67.0,41,60,12.0,0.0
797,55.0,17,40,13.0,0.0
798,55.0,1,60,3.0,0.0
799,67.0,17,40,13.0,0.0
800,67.0,61,60,3.0,0.0
801,79.0,0,60,0.0,0.0
802,67.0,14,60,11.0,0.0
803,67.0,0,60,1.0,0.0
804,79.0,25,15,10.0,0.0
805,76.0,5,40,11.0,0.0
806,88.0,0,40,0.0,0.0
807,76.0,0,40,1.0,0.0
808,76.0,30,15,10.0,0.0
809,73.0,28,15,10.0,0.0
810,61.0,2,40,13.0,0.0
811,49.0,30,40,14.0,0.0
812,69.0,0,15,10.0,0.0
813,67.0,28,15,10.0,0.0
814,88.0,0,60,0.0,0.0
815,73.0,4,60,1.0,0.0
816,76.0,0,60,11.0,0.0
817,76.0,0,60,1.0,0.0
818,57.0,2,40,13.0,0.0
819,64.0,10,60,3.0,0.0
820,67.0,0,60,3.0,0.0
821,45.0,0,40,14.0,0.0
822,64.0,16,15,10.0,0.0
823,65.0,25,15,10.0,0.0
824,77.0,0,40,11.0,0.0
825,77.0,0,40,1.0,0.0
826,74.0,3,40,1.0,0.0
827,89.0,0,40,0.0,0.0
828,62.0,2,40,13.0,0.0
829,62.0,0,60,3.0,0.0
830,65.0,25,60,3.0,0.0
831,50.0,0,40,14.0,0.0
832,62.0,20,15,10.0,0.0
833,69.0,1,30,10.0,0.0
834,81.0,10,30,1.0,0.0
835,81.0,0,30,11.0,0.0
836,65.0,2,40,12.0,0.0
837,50.0,2,40,13.0,0.0
838,38.0,15,40,14.0,0.0
839,68.0,1,30,10.0,0.0
840,80.0,0,30,11.0,0.0
841,80.0,29,30,1.0,0.0
842,69.0,1,30,10.0,0.0
843,81.0,0,30,11.0,0.0
844,81.0,10,30,1.0,0.0
845,62.0,14,40,12.0,0.0
846,65.0,1,30,10.0,0.0
847,77.0,19,30,11.0,0.0
848,77.0,0,30,1.0,0.0
849,77.0,26,15,10.0,0.0
850,74.0,0,60,11.0,0.0
851,86.0,0,60,0.0,0.0
852,74.0,0,60,1.0,0.0
853,71.0,14,60,1.0,0.0
854,67.0,4,40,12.0,0.0
855,74.0,16,15,10.0,0.0
856,71.0,26,15,10.0,0.0
857,55.0,2,40,12.0,0.0
858,59.0,2,40,13.0,0.0
859,47.0,30,40,14.0,0.0
860,67.0,0,15,10.0,0.0
861,65.0,28,15,10.0,0.0
862,74.0,4,60,11.0,0.0
863,74.0,0,60,1.0,0.0
864,71.0,0,60,1.0,0.0
865,86.0,0,60,0.0,0.0
866,55.0,2,40,13.0,0.0
867,62.0,0,60,3.0,0.0
868,65.0,10,60,3.0,0.0
869,43.0,16,40,14.0,0.0
870,62.0,0,15,10.0,0.0
871,64.0,25,15,10.0,0.0
872,72.0,3,40,1.0,0.0
873,76.0,0,40,1.0,0.0
874,76.0,0,40,11.0,0.0
875,88.0,0,40,0.0,0.0
876,60.0,1,40,13.0,0.0
877,60.0,1,40,3.0,0.0
878,64.0,0,40,3.0,0.0
879,48.0,45,40,14.0,0.0
880,60.0,0,15,10.0,0.0
881,67.0,1,30,10.0,0.0
882,91.0,1,30,0.0,0.0
883,64.0,2,40,12.0,0.0
884,79.0,3,30,2.0,0.0
885,48.0,2,40,13.0,0.0
886,67.0,6,30,3.0,0.0
887,36.0,15,40,14.0,0.0
888,66.0,1,30,10.0,0.0
889,90.0,1,30,0.0,0.0
890,78.0,3,30,2.0,0.0
891,66.0,25,30,3.0,0.0
892,67.0,1,30,10.0,0.0
893,91.0,1,30,0.0,0.0
894,79.0,3,30,2.0,0.0
895,60.0,14,40,12.0,0.0
896,67.0,6,30,3.0,0.0
897,64.0,1,30,10.0,0.0
898,88.0,1,30,0.0,0.0
899,76.0,3,30,2.0,0.0
900,64.0,16,30,3.0,0.0
901,60.0,1,60,10.0,0.0
902,67.0,25,15,11.0,0.0
903,84.0,1,60,0.0,0.0
904,67.0,8,60,2.0,0.0
905,72.0,0,60,2.0,0.0
906,55.0,2,40,12.0,0.0
907,52.0,2,40,13.0,0.0
908,40.0,1,40,14.0,0.0
909,70.0,9,15,11.0,0.0
910,72.0,1,60,10.0,0.0
911,67.0,25,15,11.0,0.0
912,84.0,1,60,0.0,0.0
913,64.0,2,40,12.0,0.0
914,72.0,3,60,2.0,0.0
915,67.0,0,60,2.0,0.0
916,52.0,2,40,13.0,0.0
917,55.0,0,15,3.0,0.0
918,60.0,11,15,3.0,0.0
919,40.0,1,40,14.0,0.0
920,70.0,14,15,11.0,0.0
921,73.0,1,60,10.0,0.0
922,67.0,25,15,11.0,0.0
923,85.0,1,60,0.0,0.0
924,64.0,2,40,12.0,0.0
925,70.0,3,60,2.0,0.0
926,73.0,0,60,2.0,0.0
927,52.0,2,40,13.0,0.0
928,61.0,30,60,3.0,0.0
929,58.0,0,60,3.0,0.0
930,40.0,1,40,14.0,0.0
931,70.0,9,15,11.0,0.0
932,74.0,1,30,10.0,0.0
933,86.0,0,60,0.0,0.0
934,62.0,29,30,11.0,0.0
935,69.0,2,60,2.0,0.0
936,65.0,0,60,12.0,0.0
937,74.0,0,60,2.0,0.0
938,53.0,1,60,13.0,0.0
939,57.0,1,60,3.0,0.0
940,62.0,0,60,3.0,0.0
941,41.0,24,60,14.0,0.0
942,76.0,1,30,10.0,0.0
943,64.0,1,30,11.0,0.0
944,77.0,1,30,10.0,0.0
945,65.0,29,30,11.0,0.0
946,79.0,1,30,10.0,0.0
947,67.0,29,30,11.0,0.0
948,80.0,1,30,10.0,0.0
949,68.0,24,30,11.0,0.0
950,81.0,1,30,10.0,0.0
951,69.0,35,30,11.0,0.0
952,72.0,1,90,10.0,0.0
953,84.0,0,120,0.0,0.0
954,64.0,30,30,11.0,0.0
955,64.0,3,120,2.0,0.0
956,72.0,0,120,2.0,0.0
957,67.0,29,30,11.0,0.0
958,67.0,1,60,4.0,0.0
959,64.0,1,30,11.0,0.0
960,67.0,2,30,12.0,0.0
961,67.0,3,60,5.0,0.0
962,55.0,2,30,13.0,0.0
963,55.0,26,60,3.0,0.0
964,60.0,0,60,3.0,0.0
965,43.0,2,30,14.0,0.0
966,74.0,7,15,10.0,0.0
967,67.0,1,30,11.0,0.0
968,72.0,8,15,10.0,0.0
969,71.0,3,15,10.0,0.0
970,72.0,1,15,10.0,0.0
971,74.0,1,40,10.0,0.0
972,86.0,9,40,0.0,0.0
973,65.0,1,30,11.0,0.0
974,67.0,1,60,4.0,0.0
975,71.0,3,60,2.0,0.0
976,55.0,2,30,12.0,0.0
977,67.0,0,60,5.0,0.0
978,65.0,0,60,2.0,0.0
979,43.0,2,30,13.0,0.0
980,62.0,45,60,3.0,0.0
981,55.0,0,60,3.0,0.0
982,31.0,9,30,14.0,0.0
983,67.0,0,30,11.0,0.0
984,71.0,1,15,10.0,0.0
985,83.0,0,15,0.0,0.0
986,72.0,8,40,10.0,0.0
987,67.0,1,60,4.0,0.0
988,84.0,0,60,0.0,0.0
989,64.0,0,60,11.0,0.0
990,60.0,0,60,5.0,0.0
991,64.0,0,60,2.0,0.0
992,60.0,2,60,12.0,0.0
993,72.0,0,60,2.0,0.0
994,48.0,1,60,13.0,0.0
995,48.0,1,60,3.0,0.0
996,60.0,0,60,3.0,0.0
997,36.0,48,60,14.0,0.0
998,79.0,8,15,10.0,0.0
999,79.0,13,150,10.0,0.0
1000,74.0,1,15,11.0,0.0
1001,71.0,2,15,12.0,0.0
1002,65.0,27,15,13.0,0.0
1003,76.0,1,20,11.0,0.0
1004,72.0,2,20,12.0,0.0
1005,64.0,27,20,13.0,0.0
1006,77.0,1,15,11.0,0.0
1007,74.0,2,15,12.0,0.0
1008,59.0,34,15,13.0,0.0
1009,76.0,1,30,11.0,0.0
1010,72.0,2,30,12.0,0.0
1011,60.0,6,30,13.0,0.0
1012,76.0,61,15,10.0,0.0
1013,76.0,13,150,10.0,0.0
1014,71.0,1,15,11.0,0.0
1015,68.0,2,15,12.0,0.0
1016,62.0,27,15,13.0,0.0
1017,72.0,1,20,11.0,0.0
1018,69.0,2,20,12.0,0.0
1019,60.0,27,20,13.0,0.0
1020,74.0,1,15,11.0,0.0
1021,71.0,2,15,12.0,0.0
1022,56.0,34,15,13.0,0.0
1023,72.0,1,30,11.0,0.0
1024,69.0,2,30,12.0,0.0
1025,57.0,6,30,13.0,0.0
1026,72.0,61,15,10.0,0.0
1027,72.0,24,90,10.0,0.0
1028,67.0,1,15,11.0,0.0
1029,64.0,2,15,12.0,0.0
1030,58.0,27,15,13.0,0.0
1031,69.0,1,20,11.0,0.0
1032,65.0,2,20,12.0,0.0
1033,57.0,3,20,13.0,0.0
1034,73.0,2,30,10.0,0.0
1035,70.0,1,15,11.0,0.0
1036,67.0,0,15,12.0,0.0
1037,52.0,23,15,13.0,0.0
1038,74.0,4,20,10.0,0.0
1039,69.0,1,20,11.0,0.0
1040,65.0,2,20,12.0,0.0
1041,53.0,8,20,13.0,0.0
1042,77.0,19,15,10.0,0.0
1043,81.0,2,15,10.0,0.0
1044,65.0,1,15,11.0,0.0
1045,62.0,0,15,12.0,0.0
1046,50.0,42,15,13.0,0.0
1047,72.0,1,40,10.0,0.0
1048,64.0,1,40,11.0,0.0
1049,67.0,2,40,12.0,0.0
1050,55.0,23,40,13.0,0.0
1051,71.0,6,15,10.0,0.0
1052,65.0,1,30,11.0,0.0
1053,55.0,2,30,12.0,0.0
1054,43.0,2,30,13.0,0.0
1055,72.0,6,15,10.0,0.0
1056,71.0,6,15,10.0,0.0
1057,72.0,6,15,10.0,0.0
1058,71.0,1,15,10.0,0.0
1059,72.0,6,15,10.0,0.0
1060,71.0,6,15,10.0,0.0
1061,72.0,6,15,10.0,0.0
1062,71.0,37,15,10.0,0.0
1063,72.0,1,60,10.0,0.0
1064,64.0,1,60,11.0,0.0
1065,60.0,0,30,1.0,0.0
1066,72.0,4,30,1.0,0.0
1067,60.0,2,60,12.0,0.0
1068,48.0,49,60,13.0,0.0
1069,48.0,0,30,3.0,0.0
1070,60.0,19,30,3.0,0.0
1071,79.0,4,15,1.0,0.0
1072,67.0,0,15,1.0,0.0
1073,55.0,2,15,3.0,0.0
1074,67.0,0,15,3.0,0.0
1075,67.0,0,150,1.0,0.0
1076,79.0,4,150,1.0,0.0
1077,55.0,9,150,3.0,0.0
1078,67.0,0,150,3.0,0.0
1079,74.0,1,15,10.0,0.0
1080,71.0,1,15,11.0,0.0
1081,67.0,2,15,12.0,0.0
1082,53.0,2,15,13.0,0.0
1083,41.0,24,15,14.0,0.0
1084,76.0,1,20,10.0,0.0
1085,72.0,1,20,11.0,0.0
1086,67.0,2,20,12.0,0.0
1087,52.0,2,20,13.0,0.0
1088,40.0,24,20,14.0,0.0
1089,77.0,1,15,10.0,0.0
1090,74.0,1,15,11.0,0.0
1091,67.0,2,15,12.0,0.0
1092,47.0,2,15,13.0,0.0
1093,35.0,31,15,14.0,0.0
1094,76.0,1,30,10.0,0.0
1095,72.0,1,30,11.0,0.0
1096,67.0,2,30,12.0,0.0
1097,48.0,2,30,13.0,0.0
1098,36.0,5,30,14.0,0.0
1099,64.0,0,15,1.0,0.0
1100,76.0,4,15,1.0,0.0
1101,52.0,55,15,3.0,0.0
1102,64.0,0,15,3.0,0.0
1103,76.0,4,150,1.0,0.0
1104,64.0,0,150,1.0,0.0
1105,64.0,9,150,3.0,0.0
1106,52.0,0,150,3.0,0.0
1107,71.0,1,15,10.0,0.0
1108,68.0,1,15,11.0,0.0
1109,64.0,2,15,12.0,0.0
1110,62.0,2,15,13.0,0.0
1111,50.0,24,15,14.0,0.0
1112,72.0,1,20,10.0,0.0
1113,69.0,1,20,11.0,0.0
1114,64.0,2,20,12.0,0.0
1115,60.0,2,20,13.0,0.0
1116,48.0,24,20,14.0,0.0
1117,74.0,1,15,10.0,0.0
1118,71.0,1,15,11.0,0.0
1119,64.0,2,15,12.0,0.0
1120,56.0,2,15,13.0,0.0
1121,44.0,31,15,14.0,0.0
1122,72.0,1,30,10.0,0.0
1123,69.0,1,30,11.0,0.0
1124,64.0,2,30,12.0,0.0
1125,57.0,2,30,13.0,0.0
1126,45.0,5,30,14.0,0.0
1127,88.0,0,15,0.0,0.0
1128,76.0,0,15,1.0,0.0
1129,64.0,1,15,1.0,0.0
1130,64.0,3,15,2.0,0.0
1131,76.0,0,15,2.0,0.0
1132,64.0,55,15,3.0,0.0
1133,52.0,0,15,3.0,0.0
1134,88.0,1,180,0.0,0.0
1135,76.0,0,180,1.0,0.0
1136,64.0,0,180,1.0,0.0
1137,76.0,3,180,2.0,0.0
1138,64.0,0,180,2.0,0.0
1139,52.0,0,180,3.0,0.0
1140,64.0,120,180,3.0,0.0
1141,80.0,1,15,10.0,0.0
1142,71.0,1,15,11.0,0.0
1143,64.0,2,15,12.0,0.0
1144,62.0,2,15,13.0,0.0
1145,50.0,24,15,14.0,0.0
1146,81.0,1,20,10.0,0.0
1147,72.0,1,20,11.0,0.0
1148,64.0,2,20,12.0,0.0
1149,60.0,2,20,13.0,0.0
1150,48.0,24,20,14.0,0.0
1151,83.0,1,15,10.0,0.0
1152,74.0,1,15,11.0,0.0
1153,64.0,2,15,12.0,0.0
1154,56.0,2,15,13.0,0.0
1155,44.0,31,15,14.0,0.0
1156,81.0,1,30,10.0,0.0
1157,72.0,1,30,11.0,0.0
1158,64.0,2,30,12.0,0.0
1159,57.0,2,30,13.0,0.0
1160,45.0,20,30,14.0,0.0
1161,76.0,1,120,10.0,0.0
1162,70.0,1,120,11.0,0.0
1163,76.0,0,120,1.0,0.0
1164,88.0,0,120,0.0,0.0
1165,64.0,0,120,1.0,0.0
1166,60.0,0,150,12.0,0.0
1167,60.0,2,150,2.0,0.0
1168,70.0,2,120,2.0,0.0
1169,55.0,1,120,13.0,0.0
1170,60.0,1,150,3.0,0.0
1171,58.0,1,120,3.0,0.0
1172,43.0,24,120,14.0,0.0
1173,77.0,1,30,10.0,0.0
1174,69.0,1,30,11.0,0.0
1175,65.0,0,30,1.0,0.0
1176,77.0,0,30,1.0,0.0
1177,89.0,0,30,0.0,0.0
1178,69.0,0,30,2.0,0.0
1179,53.0,1,30,13.0,0.0
1180,57.0,0,30,3.0,0.0
1181,41.0,144,30,14.0,0.0
1182,78.0,1,120,10.0,0.0
1183,72.0,1,120,11.0,0.0
1184,90.0,0,120,0.0,0.0
1185,78.0,0,120,1.0,0.0
1186,66.0,0,120,1.0,0.0
1187,72.0,2,120,2.0,0.0
1188,69.0,0,120,2.0,0.0
1189,69.0,0,120,12.0,0.0
1190,50.0,1,120,13.0,0.0
1191,62.0,1,150,3.0,0.0
1192,60.0,1,120,3.0,0.0
1193,38.0,24,120,14.0,0.0
1194,79.0,1,30,10.0,0.0
1195,71.0,0,30,11.0,0.0
1196,79.0,0,30,1.0,0.0
1197,91.0,1,30,0.0,0.0
1198,67.0,0,30,1.0,0.0
1199,62.0,2,30,12.0,0.0
1200,67.0,0,30,2.0,0.0
1201,71.0,0,30,2.0,0.0
1202,55.0,1,30,13.0,0.0
1203,59.0,0,30,3.0,0.0
1204,43.0,144,30,14.0,0.0
1205,80.0,1,120,10.0,0.0
1206,74.0,1,150,11.0,0.0
1207,80.0,0,150,0.0,0.0
1208,68.0,1,120,1.0,0.0
1209,80.0,0,120,1.0,0.0
1210,71.0,0,120,2.0,0.0
1211,74.0,0,180,2.0,0.0
1212,71.0,2,120,12.0,0.0
1213,52.0,1,120,13.0,0.0
1214,59.0,1,120,3.0,0.0
1215,62.0,0,180,3.0,0.0
1216,40.0,14,120,14.0,0.0
1217,81.0,1,20,10.0,0.0
1218,69.0,0,60,1.0,0.0
1219,81.0,1,60,1.0,0.0
1220,69.0,12,20,12.0,0.0
1221,69.0,3,60,2.0,0.0
1222,53.0,1,30,13.0,0.0
1223,57.0,16,60,3.0,0.0
1224,41.0,0,30,14.0,0.0
1225,77.0,1,15,10.0,0.0
1226,89.0,0,15,0.0,0.0
1227,69.0,1,15,11.0,0.0
1228,65.0,13,15,12.0,0.0
1229,74.0,1,15,10.0,0.0
1230,65.0,0,15,11.0,0.0
1231,86.0,1,15,0.0,0.0
1232,69.0,4,15,12.0,0.0
1233,72.0,1,30,10.0,0.0
1234,84.0,14,15,0.0,0.0
1235,67.0,1,60,4.0,0.0
1236,72.0,0,60,1.0,0.0
1237,64.0,1,30,11.0,0.0
1238,64.0,3,60,2.0,0.0
1239,67.0,4,60,5.0,0.0
1240,67.0,0,60,2.0,0.0
1241,67.0,2,30,12.0,0.0
1242,55.0,2,30,13.0,0.0
1243,60.0,0,60,3.0,0.0
1244,43.0,20,30,14.0,0.0
1245,72.0,1,15,10.0,0.0
1246,65.0,1,30,11.0,0.0
1247,67.0,1,60,4.0,0.0
1248,71.0,0,60,1.0,0.0
1249,67.0,1,15,1.0,0.0
1250,84.0,5,15,0.0,0.0
1251,65.0,3,60,2.0,0.0
1252,67.0,0,60,5.0,0.0
1253,67.0,0,60,2.0,0.0
1254,62.0,2,30,12.0,0.0
1255,43.0,2,30,13.0,0.0
1256,62.0,0,60,3.0,0.0
1257,55.0,1,15,3.0,0.0
1258,31.0,1,30,14.0,0.0
1259,71.0,1,15,10.0,0.0
1260,83.0,5,15,0.0,0.0
1261,72.0,1,15,10.0,0.0
1262,84.0,5,15,0.0,0.0
1263,71.0,1,15,10.0,0.0
1264,83.0,5,15,0.0,0.0
1265,72.0,1,15,10.0,0.0
1266,84.0,0,15,0.0,0.0
1267,71.0,0,15,10.0,0.0
1268,83.0,7,15,0.0,0.0
1269,71.0,1,15,10.0,0.0
1270,83.0,7,15,0.0,0.0
1271,69.0,1,15,10.0,0.0
1272,81.0,3,15,0.0,0.0
1273,71.0,0,15,10.0,0.0
1274,83.0,48,15,0.0,0.0
1275,72.0,1,60,10.0,0.0
1276,67.0,0,60,1.0,0.0
1277,72.0,1,60,1.0,0.0
1278,84.0,0,60,0.0,0.0
1279,64.0,0,60,11.0,0.0
1280,67.0,1,60,4.0,0.0
1281,64.0,2,60,2.0,0.0
1282,67.0,0,60,2.0,0.0
1283,60.0,3,60,5.0,0.0
1284,60.0,0,60,12.0,0.0
1285,48.0,7,40,15.0,0.0
1286,48.0,0,60,13.0,0.0
1287,48.0,1,60,3.0,0.0
1288,60.0,0,60,3.0,0.0
1289,36.0,40,60,14.0,0.0
1290,43.0,1,15,15.0,0.0
1291,55.0,3,40,6.0,0.0
1292,67.0,0,40,6.0,0.0
1293,43.0,15,40,15.0,0.0
1294,67.0,3,40,6.0,0.0
1295,55.0,0,40,6.0,0.0
1296,43.0,42,15,15.0,0.0
1297,43.0,15,15,15.0,0.0
1298,77.0,20,15,10.0,0.0
1299,55.0,1,60,11.0,0.0
1300,65.0,0,60,11.0,0.0
1301,55.0,3,420,6.0,0.0
1302,67.0,0,420,6.0,0.0
1303,62.0,2,60,12.0,0.0
1304,55.0,0,60,13.0,0.0
1305,43.0,1,40,15.0,0.0
1306,43.0,4,60,14.0,0.0
1307,81.0,19,15,10.0,0.0
1308,79.0,11,15,10.0,0.0
1309,77.0,20,15,10.0,0.0
1310,74.0,1,60,1.0,0.0
1311,77.0,0,60,1.0,0.0
1312,67.0,0,60,4.0,0.0
1313,62.0,0,60,2.0,0.0
1314,65.0,0,60,2.0,0.0
1315,67.0,2,60,5.0,0.0
1316,43.0,2,15,15.0,0.0
1317,55.0,0,60,3.0,0.0
1318,59.0,5,60,3.0,0.0
1319,76.0,19,15,10.0,0.0
1320,74.0,11,15,10.0,0.0
1321,72.0,20,15,10.0,0.0
1322,55.0,1,60,11.0,0.0
1323,65.0,0,60,11.0,0.0
1324,62.0,2,60,12.0,0.0
1325,55.0,0,60,13.0,0.0
1326,43.0,1,15,15.0,0.0
1327,43.0,4,60,14.0,0.0
1328,71.0,19,15,10.0,0.0
1329,74.0,11,15,10.0,0.0
1330,43.0,1,15,15.0,0.0
1331,72.0,1,15,10.0,0.0
1332,72.0,1,60,1.0,0.0
1333,67.0,0,60,4.0,0.0
1334,76.0,0,60,1.0,0.0
1335,84.0,19,15,0.0,0.0
1336,67.0,0,60,5.0,0.0
1337,60.0,0,60,2.0,0.0
1338,64.0,2,60,2.0,0.0
1339,43.0,1,40,15.0,0.0
1340,55.0,5,60,3.0,0.0
1341,60.0,0,60,3.0,0.0
1342,76.0,1,15,10.0,0.0
1343,88.0,18,15,0.0,0.0
1344,74.0,1,15,10.0,0.0
1345,86.0,10,15,0.0,0.0
1346,72.0,1,15,10.0,0.0
1347,64.0,0,60,11.0,0.0
1348,84.0,19,15,0.0,0.0
1349,55.0,1,60,11.0,0.0
1350,60.0,2,60,12.0,0.0
1351,43.0,1,15,15.0,0.0
1352,55.0,0,60,13.0,0.0
1353,43.0,4,60,14.0,0.0
1354,71.0,1,15,10.0,0.0
1355,83.0,18,15,0.0,0.0
1356,69.0,1,15,10.0,0.0
1357,81.0,10,15,0.0,0.0
1358,43.0,1,15,15.0,0.0
1359,67.0,1,15,10.0,0.0
1360,67.0,1,60,4.0,0.0
1361,72.0,0,60,1.0,0.0
1362,76.0,0,60,1.0,0.0
1363,79.0,19,15,0.0,0.0
1364,60.0,0,60,2.0,0.0
1365,64.0,2,60,2.0,0.0
1366,67.0,0,60,5.0,0.0
1367,43.0,2,15,15.0,0.0
1368,55.0,5,60,3.0,0.0
1369,60.0,0,60,3.0,0.0
1370,66.0,1,15,10.0,0.0
1371,78.0,18,15,0.0,0.0
1372,69.0,1,15,10.0,0.0
1373,81.0,10,15,0.0,0.0
1374,67.0,1,15,10.0,0.0
1375,79.0,19,15,0.0,0.0
1376,62.0,0,60,11.0,0.0
1377,55.0,1,60,11.0,0.0
1378,59.0,2,60,12.0,0.0
1379,43.0,1,15,15.0,0.0
1380,55.0,0,60,13.0,0.0
1381,43.0,4,60,14.0,0.0
1382,66.0,1,15,10.0,0.0
1383,78.0,15,15,0.0,0.0
1384,69.0,1,15,10.0,0.0
1385,81.0,10,15,0.0,0.0
1386,43.0,1,15,15.0,0.0
1387,67.0,1,15,10.0,0.0
1388,79.0,19,15,0.0,0.0
1389,67.0,1,60,4.0,0.0
1390,77.0,0,60,1.0,0.0
1391,67.0,0,40,6.0,0.0
1392,83.0,0,60,1.0,0.0
1393,55.0,3,40,6.0,0.0
1394,67.0,0,60,5.0,0.0
1395,71.0,0,60,2.0,0.0
1396,65.0,2,60,2.0,0.0
1397,43.0,2,15,15.0,0.0
1398,62.0,5,60,3.0,0.0
1399,55.0,0,60,3.0,0.0
1400,69.0,1,15,10.0,0.0
1401,81.0,15,15,0.0,0.0
1402,67.0,1,15,10.0,0.0
1403,79.0,10,15,0.0,0.0
1404,43.0,1,15,15.0,0.0
1405,65.0,1,15,10.0,0.0
1406,77.0,19,15,0.0,0.0
1407,55.0,0,60,11.0,0.0
1408,55.0,0,40,6.0,0.0
1409,62.0,1,60,11.0,0.0
1410,67.0,3,40,6.0,0.0
1411,59.0,2,60,12.0,0.0
1412,55.0,2,60,13.0,0.0
1413,43.0,1,15,15.0,0.0
1414,43.0,4,60,14.0,0.0
1415,64.0,1,15,10.0,0.0
1416,76.0,15,15,0.0,0.0
1417,62.0,1,15,10.0,0.0
1418,74.0,10,15,0.0,0.0
1419,43.0,0,15,15.0,0.0
1420,60.0,1,15,10.0,0.0
1421,72.0,19,15,0.0,0.0
1422,67.0,1,60,4.0,0.0
1423,76.0,0,60,1.0,0.0
1424,84.0,0,60,1.0,0.0
1425,55.0,0,40,6.0,0.0
1426,67.0,3,40,6.0,0.0
1427,67.0,2,60,5.0,0.0
1428,64.0,0,60,2.0,0.0
1429,72.0,0,60,2.0,0.0
1430,43.0,1,40,15.0,0.0
1431,55.0,0,60,3.0,0.0
1432,60.0,5,60,3.0,0.0
1433,64.0,1,15,10.0,0.0
1434,76.0,15,15,0.0,0.0
1435,65.0,1,15,10.0,0.0
1436,77.0,10,15,0.0,0.0
1437,67.0,1,15,10.0,0.0
1438,79.0,19,15,0.0,0.0
1439,55.0,0,40,6.0,0.0
1440,67.0,3,40,6.0,0.0
1441,55.0,1,60,11.0,0.0
1442,64.0,0,60,11.0,0.0
1443,60.0,2,60,12.0,0.0
1444,55.0,0,60,13.0,0.0
1445,43.0,1,15,15.0,0.0
1446,43.0,4,60,14.0,0.0
1447,69.0,1,15,10.0,0.0
1448,81.0,15,15,0.0,0.0
1449,71.0,1,15,10.0,0.0
1450,83.0,10,15,0.0,0.0
1451,72.0,1,15,10.0,0.0
1452,84.0,19,15,0.0,0.0
1453,55.0,3,40,6.0,0.0
1454,72.0,0,60,1.0,0.0
1455,67.0,0,40,6.0,0.0
1456,67.0,0,60,4.0,0.0
1457,76.0,1,60,1.0,0.0
1458,72.0,2,60,2.0,0.0
1459,64.0,0,60,2.0,0.0
1460,67.0,0,60,5.0,0.0
1461,43.0,2,15,15.0,0.0
1462,60.0,0,60,3.0,0.0
1463,55.0,5,60,3.0,0.0
1464,74.0,1,15,10.0,0.0
1465,86.0,15,15,0.0,0.0
1466,76.0,1,15,10.0,0.0
1467,88.0,10,15,0.0,0.0
1468,77.0,1,15,10.0,0.0
1469,67.0,0,420,6.0,0.0
1470,89.0,19,15,0.0,0.0
1471,55.0,0,420,6.0,0.0
1472,65.0,0,60,11.0,0.0
1473,55.0,1,60,11.0,0.0
1474,62.0,2,60,12.0,0.0
1475,43.0,1,15,15.0,0.0
1476,55.0,0,60,13.0,0.0
1477,43.0,4,60,14.0,0.0
1478,77.0,1,15,10.0,0.0
1479,89.0,18,15,0.0,0.0
1480,77.0,1,15,10.0,0.0
1481,89.0,10,15,0.0,0.0
1482,43.0,1,15,15.0,0.0
1483,77.0,1,15,10.0,0.0
1484,89.0,19,15,0.0,0.0
1485,67.0,1,60,4.0,0.0
1486,71.0,0,60,1.0,0.0
1487,77.0,0,60,1.0,0.0
1488,67.0,2,60,5.0,0.0
1489,62.0,0,60,2.0,0.0
1490,65.0,0,60,2.0,0.0
1491,43.0,2,15,15.0,0.0
1492,55.0,5,60,3.0,0.0
1493,59.0,0,60,3.0,0.0
1494,76.0,1,15,10.0,0.0
1495,88.0,18,15,0.0,0.0
1496,74.0,1,15,10.0,0.0
1497,86.0,10,15,0.0,0.0
1498,43.0,1,15,15.0,0.0
1499,72.0,1,15,10.0,0.0
1500,65.0,1,60,11.0,0.0
1501,55.0,0,60,11.0,0.0
1502,84.0,19,15,0.0,0.0
1503,62.0,2,60,12.0,0.0
1504,43.0,1,15,15.0,0.0
1505,55.0,0,60,13.0,0.0
1506,43.0,4,60,14.0,0.0
1507,71.0,1,15,10.0,0.0
1508,83.0,18,15,0.0,0.0
1509,74.0,1,15,10.0,0.0
1510,86.0,10,15,0.0,0.0
1511,72.0,1,15,10.0,0.0
1512,67.0,1,60,4.0,0.0
1513,84.0,19,15,0.0,0.0
1514,72.0,0,60,1.0,0.0
1515,76.0,0,60,1.0,0.0
1516,67.0,2,60,5.0,0.0
1517,60.0,0,60,2.0,0.0
1518,64.0,0,60,2.0,0.0
1519,43.0,2,15,15.0,0.0
1520,60.0,5,60,3.0,0.0
1521,55.0,0,60,3.0,0.0
1522,72.0,1,15,10.0,0.0
1523,84.0,18,15,0.0,0.0
1524,72.0,1,15,10.0,0.0
1525,84.0,10,15,0.0,0.0
1526,72.0,1,15,10.0,0.0
1527,64.0,0,60,11.0,0.0
1528,84.0,19,15,0.0,0.0
1529,55.0,1,60,11.0,0.0
1530,60.0,2,60,12.0,0.0
1531,43.0,1,15,15.0,0.0
1532,55.0,2,60,13.0,0.0
1533,43.0,4,60,14.0,0.0
1534,71.0,1,15,10.0,0.0
1535,83.0,18,15,0.0,0.0
1536,69.0,1,15,10.0,0.0
1537,81.0,10,15,0.0,0.0
1538,43.0,1,15,15.0,0.0
1539,67.0,1,15,10.0,0.0
1540,79.0,19,15,0.0,0.0
1541,72.0,0,60,1.0,0.0
1542,67.0,0,60,4.0,0.0
1543,76.0,1,60,1.0,0.0
1544,60.0,0,60,2.0,0.0
1545,67.0,0,60,5.0,0.0
1546,64.0,2,60,2.0,0.0
1547,60.0,5,60,3.0,0.0
1548,55.0,0,60,3.0,0.0
1549,66.0,1,15,10.0,0.0
1550,78.0,18,15,0.0,0.0
1551,69.0,1,15,10.0,0.0
1552,81.0,10,15,0.0,0.0
1553,43.0,1,15,15.0,0.0
1554,67.0,1,15,10.0,0.0
1555,79.0,19,15,0.0,0.0
1556,65.0,1,40,11.0,0.0
1557,55.0,0,40,11.0,0.0
1558,62.0,2,40,12.0,0.0
1559,55.0,1,40,13.0,0.0
1560,43.0,13,40,14.0,0.0
1561,66.0,1,15,10.0,0.0
1562,78.0,15,15,0.0,0.0
1563,69.0,1,15,10.0,0.0
1564,81.0,0,15,0.0,0.0
1565,43.0,0,15,15.0,0.0
1566,67.0,1,15,10.0,0.0
1567,65.0,1,40,11.0,0.0
1568,55.0,0,40,11.0,0.0
1569,79.0,19,15,0.0,0.0
1570,67.0,0,40,6.0,0.0
1571,55.0,0,40,6.0,0.0
1572,62.0,2,40,12.0,0.0
1573,71.0,0,60,2.0,0.0
1574,65.0,0,60,2.0,0.0
1575,55.0,1,40,13.0,0.0
1576,43.0,6,15,15.0,0.0
1577,62.0,0,60,3.0,0.0
1578,43.0,10,40,14.0,0.0
1579,69.0,1,15,10.0,0.0
1580,81.0,15,15,0.0,0.0
1581,67.0,1,15,10.0,0.0
1582,79.0,0,15,0.0,0.0
1583,43.0,0,15,15.0,0.0
1584,65.0,1,15,10.0,0.0
1585,67.0,0,15,4.0,0.0
1586,67.0,0,40,6.0,0.0
1587,55.0,0,40,6.0,0.0
1588,77.0,1,15,1.0,0.0
1589,83.0,0,15,1.0,0.0
1590,55.0,1,40,11.0,0.0
1591,65.0,0,40,11.0,0.0
1592,77.0,19,15,0.0,0.0
1593,62.0,2,40,12.0,0.0
1594,71.0,0,60,2.0,0.0
1595,65.0,2,60,2.0,0.0
1596,67.0,2,15,5.0,0.0
1597,55.0,1,40,13.0,0.0
1598,43.0,1,15,15.0,0.0
1599,62.0,0,60,3.0,0.0
1600,55.0,5,15,3.0,0.0
1601,43.0,0,40,14.0,0.0
1602,64.0,1,15,10.0,0.0
1603,76.0,15,15,0.0,0.0
1604,62.0,1,15,10.0,0.0
1605,74.0,10,15,0.0,0.0
1606,43.0,1,15,15.0,0.0
1607,60.0,1,60,10.0,0.0
1608,67.0,0,15,4.0,0.0
1609,55.0,0,60,11.0,0.0
1610,64.0,0,60,11.0,0.0
1611,72.0,0,60,0.0,0.0
1612,55.0,1,60,6.0,0.0
1613,67.0,0,60,6.0,0.0
1614,84.0,0,60,1.0,0.0
1615,76.0,0,60,1.0,0.0
1616,72.0,0,60,2.0,0.0
1617,60.0,0,60,12.0,0.0
1618,64.0,2,60,2.0,0.0
1619,67.0,0,15,5.0,0.0
1620,48.0,1,60,15.0,0.0
1621,48.0,0,60,13.0,0.0
1622,60.0,0,60,3.0,0.0
1623,48.0,1,60,3.0,0.0
1624,36.0,114,60,14.0,0.0
1625,67.0,1,60,10.0,0.0
1626,79.0,38,60,0.0,0.0
1627,72.0,1,40,10.0,0.0
1628,84.0,140,40,0.0,0.0
1629,55.0,1,60,10.0,0.0
1630,55.0,0,60,11.0,0.0
1631,79.0,1,60,0.0,0.0
1632,67.0,0,60,1.0,0.0
1633,67.0,0,60,2.0,0.0
1634,55.0,2,60,12.0,0.0
1635,55.0,1,60,13.0,0.0
1636,55.0,0,60,3.0,0.0
1637,43.0,1,60,3.0,0.0
1638,43.0,24,60,14.0,0.0
1639,60.0,1,30,10.0,0.0
1640,84.0,0,30,0.0,0.0
1641,72.0,0,30,1.0,0.0
1642,60.0,1,30,11.0,0.0
1643,60.0,2,30,12.0,0.0
1644,72.0,0,30,2.0,0.0
1645,60.0,1,30,13.0,0.0
1646,60.0,0,30,3.0,0.0
1647,48.0,1,30,3.0,0.0
1648,48.0,54,30,14.0,0.0
1649,60.0,1,30,10.0,0.0
1650,55.0,0,30,11.0,0.0
1651,60.0,0,30,4.0,0.0
1652,55.0,0,30,6.0,0.0
1653,67.0,0,30,1.0,0.0
1654,67.0,0,30,6.0,0.0
1655,64.0,0,30,1.0,0.0
1656,72.0,1,30,0.0,0.0
1657,48.0,0,30,5.0,0.0
1658,67.0,0,30,2.0,0.0
1659,64.0,2,30,2.0,0.0
1660,52.0,0,30,12.0,0.0
1661,48.0,26,60,15.0,0.0
1662,48.0,1,30,13.0,0.0
1663,55.0,0,30,3.0,0.0
1664,52.0,1,30,3.0,0.0
1665,36.0,28,30,14.0,0.0
1666,60.0,1,30,10.0,0.0
1667,55.0,1,30,11.0,0.0
1668,67.0,0,30,6.0,0.0
1669,60.0,0,30,4.0,0.0
1670,64.0,0,30,1.0,0.0
1671,67.0,0,30,1.0,0.0
1672,72.0,0,30,0.0,0.0
1673,55.0,0,30,6.0,0.0
1674,67.0,0,30,2.0,0.0
1675,64.0,0,30,2.0,0.0
1676,48.0,0,30,5.0,0.0
1677,52.0,2,30,12.0,0.0
1678,48.0,1,30,13.0,0.0
1679,55.0,1,30,3.0,0.0
1680,52.0,0,30,3.0,0.0
1681,36.0,28,30,14.0,0.0
1682,60.0,1,60,10.0,0.0
1683,64.0,0,60,1.0,0.0
1684,67.0,0,60,1.0,0.0
1685,72.0,0,60,0.0,0.0
1686,60.0,1,60,4.0,0.0
1687,67.0,0,60,6.0,0.0
1688,55.0,0,60,6.0,0.0
1689,55.0,0,60,11.0,0.0
1690,52.0,0,60,12.0,0.0
1691,64.0,0,60,2.0,0.0
1692,48.0,0,60,5.0,0.0
1693,67.0,2,60,2.0,0.0
1694,48.0,56,15,15.0,0.0
1695,48.0,0,60,13.0,0.0
1696,52.0,1,60,3.0,0.0
1697,48.0,0,60,3.0,0.0
1698,36.0,114,60,14.0,0.0
1699,60.0,1,60,10.0,0.0
1700,60.0,38,60,11.0,0.0
1701,65.0,1,40,10.0,0.0
1702,65.0,59,40,11.0,0.0
1703,65.0,1,40,10.0,0.0
1704,65.0,80,40,11.0,0.0
1705,65.0,1,60,10.0,0.0
1706,65.0,38,60,11.0,0.0
1707,69.0,1,40,10.0,0.0
1708,69.0,59,40,11.0,0.0
1709,69.0,1,40,10.0,0.0
1710,69.0,80,40,11.0,0.0
1711,69.0,1,60,10.0,0.0
1712,69.0,38,60,11.0,0.0
1713,70.0,1,40,10.0,0.0
1714,70.0,50,40,11.0,0.0
1715,70.0,1,30,10.0,0.0
1716,70.0,24,30,11.0,0.0
1717,69.0,1,15,10.0,0.0
1718,69.0,34,15,11.0,0.0
1719,67.0,1,30,10.0,0.0
1720,67.0,24,30,11.0,0.0
1721,65.0,1,15,10.0,0.0
1722,65.0,43,15,11.0,0.0
1723,64.0,1,40,10.0,0.0
1724,64.0,59,40,11.0,0.0
1725,64.0,1,40,10.0,0.0
1726,64.0,80,40,11.0,0.0
1727,64.0,1,60,10.0,0.0
1728,64.0,59,60,11.0,0.0
1729,65.0,1,60,10.0,0.0
1730,65.0,59,60,11.0,0.0
1731,67.0,1,60,10.0,0.0
1732,67.0,54,60,11.0,0.0
1733,69.0,1,60,10.0,0.0
1734,69.0,94,60,11.0,0.0
1735,70.0,1,90,10.0,0.0
1736,70.0,24,90,11.0,0.0
1737,72.0,1,30,10.0,0.0
1738,72.0,34,30,11.0,0.0
1739,69.0,1,30,10.0,0.0
1740,69.0,31,30,11.0,0.0
1741,53.0,2,60,12.0,0.0
1742,53.0,37,60,13.0,0.0
1743,67.0,1,60,10.0,0.0
1744,67.0,40,60,11.0,0.0
1745,60.0,2,40,12.0,0.0
1746,60.0,17,40,13.0,0.0
1747,60.0,2,40,12.0,0.0
1748,60.0,78,40,13.0,0.0
1749,67.0,1,60,11.0,0.0
1750,60.0,2,60,12.0,0.0
1751,60.0,36,60,13.0,0.0
1752,72.0,1,40,11.0,0.0
1753,64.0,2,40,12.0,0.0
1754,64.0,57,40,13.0,0.0
1755,72.0,1,40,11.0,0.0
1756,64.0,2,40,12.0,0.0
1757,64.0,79,40,13.0,0.0
1758,72.0,1,120,11.0,0.0
1759,64.0,2,60,12.0,0.0
1760,64.0,52,60,13.0,0.0
1761,65.0,2,60,12.0,0.0
1762,65.0,32,60,13.0,0.0
1763,71.0,1,30,11.0,0.0
1764,65.0,2,30,12.0,0.0
1765,65.0,22,30,13.0,0.0
1766,72.0,1,15,11.0,0.0
1767,64.0,2,15,12.0,0.0
1768,64.0,32,15,13.0,0.0
1769,74.0,1,30,11.0,0.0
1770,62.0,2,30,12.0,0.0
1771,62.0,22,30,13.0,0.0
1772,76.0,1,15,11.0,0.0
1773,60.0,2,15,12.0,0.0
1774,60.0,41,15,13.0,0.0
1775,77.0,1,40,11.0,0.0
1776,59.0,2,40,12.0,0.0
1777,59.0,58,40,13.0,0.0
1778,59.0,2,40,12.0,0.0
1779,59.0,78,40,13.0,0.0
1780,65.0,1,60,11.0,0.0
1781,59.0,2,60,12.0,0.0
1782,59.0,1,60,13.0,0.0
1783,43.0,1,60,3.0,0.0
1784,31.0,34,60,14.0,0.0
1785,64.0,1,40,11.0,0.0
1786,60.0,1,240,4.0,0.0
1787,48.0,34,240,5.0,0.0
1788,60.0,2,40,12.0,0.0
1789,60.0,1,40,13.0,0.0
1790,48.0,1,40,3.0,0.0
1791,36.0,47,40,14.0,0.0
1792,64.0,4,40,11.0,0.0
1793,60.0,2,30,12.0,0.0
1794,60.0,6,30,13.0,0.0
1795,48.0,1,40,3.0,0.0
1796,36.0,12,40,14.0,0.0
1797,59.0,2,15,12.0,0.0
1798,59.0,33,15,13.0,0.0
1799,64.0,5,60,11.0,0.0
1800,60.0,2,30,12.0,0.0
1801,60.0,23,30,13.0,0.0
1802,48.0,17,90,3.0,0.0
1803,36.0,17,60,14.0,0.0
1804,62.0,2,15,12.0,0.0
1805,62.0,2,15,13.0,0.0
1806,72.0,1,40,11.0,0.0
1807,58.0,2,40,12.0,0.0
1808,58.0,1,40,13.0,0.0
1809,52.0,1,40,3.0,0.0
1810,40.0,11,40,14.0,0.0
1811,60.0,1,30,4.0,0.0
1812,72.0,4,40,11.0,0.0
1813,48.0,0,30,5.0,0.0
1814,58.0,2,30,12.0,0.0
1815,58.0,6,30,13.0,0.0
1816,52.0,1,40,3.0,0.0
1817,40.0,12,40,14.0,0.0
1818,57.0,2,15,12.0,0.0
1819,57.0,33,15,13.0,0.0
1820,72.0,1,60,10.0,0.0
1821,64.0,0,60,11.0,0.0
1822,72.0,0,60,0.0,0.0
1823,60.0,1,60,4.0,0.0
1824,72.0,0,60,1.0,0.0
1825,58.0,2,30,12.0,0.0
1826,48.0,3,60,5.0,0.0
1827,58.0,23,30,13.0,0.0
1828,55.0,1,60,3.0,0.0
1829,43.0,33,60,14.0,0.0
1830,60.0,2,15,12.0,0.0
1831,60.0,1,15,13.0,0.0
1832,77.0,1,40,10.0,0.0
1833,69.0,0,40,1.0,0.0
1834,77.0,0,40,1.0,0.0
1835,77.0,0,40,0.0,0.0
1836,65.0,1,40,4.0,0.0
1837,65.0,0,40,11.0,0.0
1838,53.0,0,40,5.0,0.0
1839,57.0,2,40,12.0,0.0
1840,57.0,1,40,13.0,0.0
1841,53.0,1,40,3.0,0.0
1842,41.0,54,40,14.0,0.0
1843,77.0,1,40,10.0,0.0
1844,65.0,0,40,4.0,0.0
1845,65.0,1,60,11.0,0.0
1846,77.0,1,40,1.0,0.0
1847,69.0,0,40,1.0,0.0
1848,77.0,0,40,0.0,0.0
1849,57.0,0,60,12.0,0.0
1850,57.0,0,60,2.0,0.0
1851,57.0,2,40,5.0,0.0
1852,65.0,3,60,2.0,0.0
1853,41.0,2,40,13.0,0.0
1854,53.0,0,60,3.0,0.0
1855,29.0,16,40,14.0,0.0
1856,77.0,1,60,10.0,0.0
1857,69.0,0,60,1.0,0.0
1858,69.0,0,60,11.0,0.0
1859,65.0,0,60,4.0,0.0
1860,77.0,1,60,0.0,0.0
1861,60.0,3,60,12.0,0.0
1862,69.0,0,60,2.0,0.0
1863,60.0,0,60,2.0,0.0
1864,57.0,0,60,5.0,0.0
1865,60.0,34,60,3.0,0.0
1866,57.0,55,15,3.0,0.0
1867,81.0,1,40,10.0,0.0
1868,77.0,0,15,1.0,0.0
1869,81.0,0,40,1.0,0.0
1870,69.0,1,40,4.0,0.0
1871,81.0,0,40,0.0,0.0
1872,65.0,2,40,5.0,0.0
1873,53.0,2,40,13.0,0.0
1874,41.0,54,40,14.0,0.0
1875,81.0,1,40,10.0,0.0
1876,69.0,1,60,11.0,0.0
1877,77.0,0,40,1.0,0.0
1878,81.0,0,40,1.0,0.0
1879,69.0,1,40,4.0,0.0
1880,81.0,0,40,0.0,0.0
1881,65.0,2,40,5.0,0.0
1882,65.0,3,60,2.0,0.0
1883,69.0,0,60,2.0,0.0
1884,65.0,0,60,12.0,0.0
1885,41.0,2,40,13.0,0.0
1886,60.0,55,60,3.0,0.0
1887,57.0,1,60,3.0,0.0
1888,29.0,15,40,14.0,0.0
1889,81.0,1,60,10.0,0.0
1890,77.0,0,60,1.0,0.0
1891,65.0,0,60,4.0,0.0
1892,81.0,0,60,0.0,0.0
1893,72.0,0,60,11.0,0.0
1894,81.0,1,60,1.0,0.0
1895,53.0,0,60,5.0,0.0
1896,69.0,0,60,12.0,0.0
1897,72.0,0,60,2.0,0.0
1898,69.0,36,60,2.0,0.0
1899,65.0,0,60,3.0,0.0
1900,57.0,0,60,3.0,0.0
1901,82.0,0,40,10.0,0.0
1902,60.0,0,40,4.0,0.0
1903,82.0,0,40,0.0,0.0
1904,76.0,0,40,1.0,0.0
1905,70.0,0,40,11.0,0.0
1906,82.0,1,40,1.0,0.0
1907,60.0,2,40,12.0,0.0
1908,48.0,16,40,5.0,0.0
1909,67.0,3,60,2.0,0.0
1910,70.0,0,60,2.0,0.0
1911,48.0,2,60,13.0,0.0
1912,64.0,0,60,3.0,0.0
1913,58.0,4,60,3.0,0.0
1914,36.0,24,60,14.0,0.0
1915,82.0,1,30,10.0,0.0
1916,60.0,1,40,4.0,0.0
1917,70.0,0,30,11.0,0.0
1918,70.0,30,60,1.0,0.0
1919,82.0,7,30,0.0,0.0
1920,82.0,0,30,1.0,0.0
1921,67.0,0,60,2.0,0.0
1922,48.0,2,40,5.0,0.0
1923,60.0,2,40,12.0,0.0
1924,70.0,3,60,2.0,0.0
1925,52.0,2,40,13.0,0.0
1926,64.0,0,60,3.0,0.0
1927,58.0,0,60,3.0,0.0
1928,40.0,10,40,14.0,0.0
1929,81.0,1,15,10.0,0.0
1930,69.0,0,15,11.0,0.0
1931,81.0,0,15,1.0,0.0
1932,81.0,1,15,0.0,0.0
1933,79.0,1,30,10.0,0.0
1934,79.0,0,30,1.0,0.0
1935,70.0,0,60,1.0,0.0
1936,79.0,0,30,0.0,0.0
1937,60.0,1,40,4.0,0.0
1938,67.0,7,30,11.0,0.0
1939,48.0,2,40,5.0,0.0
1940,60.0,2,40,12.0,0.0
1941,70.0,3,60,2.0,0.0
1942,67.0,0,60,2.0,0.0
1943,55.0,2,40,13.0,0.0
1944,58.0,31,60,3.0,0.0
1945,64.0,0,60,3.0,0.0
1946,43.0,10,40,14.0,0.0
1947,77.0,1,15,10.0,0.0
1948,77.0,0,15,1.0,0.0
1949,65.0,0,15,11.0,0.0
1950,77.0,1,15,0.0,0.0
1951,76.0,22,40,10.0,0.0
1952,76.0,1,60,0.0,0.0
1953,72.0,0,60,1.0,0.0
1954,76.0,8,30,1.0,0.0
1955,64.0,0,60,11.0,0.0
1956,60.0,1,120,4.0,0.0
1957,67.0,29,60,12.0,0.0
1958,70.0,0,120,2.0,0.0
1959,67.0,2,120,2.0,0.0
1960,48.0,0,120,5.0,0.0
1961,60.0,1,120,13.0,0.0
1962,64.0,0,120,3.0,0.0
1963,58.0,1,120,3.0,0.0
1964,48.0,0,120,14.0,0.0
1965,76.0,7,40,10.0,0.0
1966,67.0,1,60,11.0,0.0
1967,76.0,8,30,1.0,0.0
1968,67.0,0,60,1.0,0.0
1969,84.0,10,40,0.0,0.0
1970,64.0,44,60,12.0,0.0
1971,76.0,1,60,10.0,0.0
1972,84.0,10,40,0.0,0.0
1973,72.0,1,120,1.0,0.0
1974,60.0,0,60,4.0,0.0
1975,72.0,1,60,11.0,0.0
1976,64.0,0,60,2.0,0.0
1977,67.0,0,60,12.0,0.0
1978,48.0,3,60,5.0,0.0
1979,67.0,2,60,2.0,0.0
1980,58.0,1,60,13.0,0.0
1981,58.0,1,60,3.0,0.0
1982,60.0,0,120,3.0,0.0
1983,46.0,20,60,14.0,0.0
1984,77.0,1,60,10.0,0.0
1985,72.0,1,30,11.0,0.0
1986,84.0,1,40,0.0,0.0
1987,77.0,1,15,1.0,0.0
1988,60.0,0,40,4.0,0.0
1989,60.0,2,60,2.0,0.0
1990,65.0,0,60,2.0,0.0
1991,48.0,9,40,5.0,0.0
1992,60.0,19,30,12.0,0.0
1993,57.0,1,60,13.0,0.0
1994,57.0,1,60,3.0,0.0
1995,45.0,20,60,14.0,0.0
1996,72.0,1,30,11.0,0.0
1997,60.0,3,30,12.0,0.0
1998,79.0,1,60,10.0,0.0
1999,79.0,1,60,1.0,0.0
2000,76.0,0,60,1.0,0.0
2001,84.0,1,40,0.0,0.0
2002,60.0,0,40,4.0,0.0
2003,72.0,1,30,11.0,0.0
2004,60.0,19,30,12.0,0.0
2005,64.0,2,60,2.0,0.0
2006,67.0,0,60,2.0,0.0
2007,48.0,9,40,5.0,0.0
2008,55.0,1,60,13.0,0.0
2009,55.0,0,60,3.0,0.0
2010,64.0,1,60,3.0,0.0
2011,43.0,20,60,14.0,0.0
2012,72.0,1,30,11.0,0.0
2013,60.0,3,30,12.0,0.0
2014,81.0,1,60,10.0,0.0
2015,84.0,0,40,0.0,0.0
2016,72.0,1,30,11.0,0.0
2017,81.0,0,60,1.0,0.0
2018,77.0,4,60,1.0,0.0
2019,60.0,1,40,4.0,0.0
2020,48.0,8,40,5.0,0.0
2021,69.0,0,60,2.0,0.0
2022,60.0,19,30,12.0,0.0
2023,65.0,2,60,2.0,0.0
2024,53.0,2,60,13.0,0.0
2025,53.0,0,60,3.0,0.0
2026,65.0,21,60,3.0,0.0
2027,41.0,0,60,14.0,0.0
2028,72.0,1,30,11.0,0.0
2029,60.0,0,30,12.0,0.0
2030,82.0,1,90,10.0,0.0
2031,84.0,1,120,0.0,0.0
2032,60.0,0,120,4.0,0.0
2033,72.0,1,30,11.0,0.0
2034,79.0,0,60,1.0,0.0
2035,82.0,1,90,1.0,0.0
2036,60.0,29,30,12.0,0.0
2037,67.0,24,60,2.0,0.0
2038,48.0,0,120,5.0,0.0
2039,70.0,24,90,2.0,0.0
2040,52.0,2,60,13.0,0.0
2041,58.0,21,120,3.0,0.0
2042,55.0,0,120,3.0,0.0
2043,40.0,1,60,14.0,0.0
2044,72.0,1,30,11.0,0.0
2045,60.0,2,30,12.0,0.0
2046,76.0,0,60,1.0,0.0
2047,72.0,1,30,11.0,0.0
2048,64.0,3,60,2.0,0.0
2049,64.0,3,30,12.0,0.0
2050,48.0,1,60,13.0,0.0
2051,36.0,1,60,14.0,0.0
2052,84.0,1,30,10.0,0.0
2053,84.0,0,30,1.0,0.0
2054,72.0,0,30,11.0,0.0
2055,60.0,2,30,12.0,0.0
2056,72.0,0,30,2.0,0.0
2057,81.0,1,60,10.0,0.0
2058,72.0,1,30,11.0,0.0
2059,81.0,1,30,1.0,0.0
2060,84.0,1,60,0.0,0.0
2061,60.0,0,60,4.0,0.0
2062,77.0,0,60,1.0,0.0
2063,65.0,2,60,2.0,0.0
2064,69.0,23,30,2.0,0.0
2065,65.0,4,30,12.0,0.0
2066,48.0,0,60,5.0,0.0
2067,53.0,1,60,13.0,0.0
2068,57.0,0,60,3.0,0.0
2069,53.0,1,60,3.0,0.0
2070,41.0,26,60,14.0,0.0
2071,72.0,0,30,11.0,0.0
2072,60.0,0,30,12.0,0.0
2073,79.0,1,60,10.0,0.0
2074,60.0,1,30,4.0,0.0
2075,76.0,1,60,1.0,0.0
2076,72.0,0,60,11.0,0.0
2077,79.0,0,60,1.0,0.0
2078,84.0,0,60,0.0,0.0
2079,64.0,0,60,2.0,0.0
2080,60.0,3,30,12.0,0.0
2081,67.0,2,60,2.0,0.0
2082,48.0,26,30,5.0,0.0
2083,48.0,1,60,13.0,0.0
2084,55.0,0,60,3.0,0.0
2085,52.0,1,60,3.0,0.0
2086,36.0,21,60,14.0,0.0
2087,60.0,0,30,4.0,0.0
2088,60.0,3,30,12.0,0.0
2089,48.0,0,30,5.0,0.0
2090,60.0,1,30,4.0,0.0
2091,48.0,26,30,5.0,0.0
2092,60.0,3,30,12.0,0.0
2093,60.0,1,30,4.0,0.0
2094,60.0,3,30,12.0,0.0
2095,48.0,26,30,5.0,0.0
2096,79.0,1,60,10.0,0.0
2097,79.0,0,60,1.0,0.0
2098,79.0,0,60,0.0,0.0
2099,76.0,0,60,1.0,0.0
2100,60.0,1,30,4.0,0.0
2101,67.0,1,60,11.0,0.0
2102,64.0,3,30,12.0,0.0
2103,67.0,2,60,2.0,0.0
2104,48.0,24,30,5.0,0.0
2105,64.0,0,60,2.0,0.0
2106,58.0,1,60,13.0,0.0
2107,55.0,0,60,3.0,0.0
2108,52.0,1,60,3.0,0.0
2109,46.0,21,60,14.0,0.0
2110,60.0,1,30,4.0,0.0
2111,48.0,1,30,5.0,0.0
2112,60.0,3,30,12.0,0.0
2113,81.0,1,120,10.0,0.0
2114,69.0,0,120,11.0,0.0
2115,81.0,0,60,1.0,0.0
2116,60.0,1,30,4.0,0.0
2117,81.0,9,120,0.0,0.0
2118,77.0,0,60,1.0,0.0
2119,65.0,0,60,2.0,0.0
2120,65.0,3,30,12.0,0.0
2121,69.0,2,60,2.0,0.0
2122,48.0,26,30,5.0,0.0
2123,57.0,1,60,13.0,0.0
2124,53.0,0,60,3.0,0.0
2125,57.0,1,60,3.0,0.0
2126,45.0,21,60,14.0,0.0
2127,60.0,1,30,4.0,0.0
2128,48.0,1,30,5.0,0.0
2129,60.0,3,30,12.0,0.0
2130,60.0,1,30,4.0,0.0
2131,48.0,14,30,5.0,0.0
2132,65.0,3,30,12.0,0.0
2133,60.0,1,30,4.0,0.0
2134,48.0,26,30,5.0,0.0
2135,60.0,3,30,12.0,0.0
2136,77.0,1,15,10.0,0.0
2137,77.0,0,15,0.0,0.0
2138,65.0,1,15,11.0,0.0
2139,84.0,1,40,10.0,0.0
2140,81.0,1,60,1.0,0.0
2141,60.0,1,30,4.0,0.0
2142,84.0,9,40,0.0,0.0
2143,72.0,0,40,11.0,0.0
2144,77.0,0,60,1.0,0.0
2145,69.0,2,60,2.0,0.0
2146,48.0,14,30,5.0,0.0
2147,65.0,3,30,12.0,0.0
2148,65.0,0,60,2.0,0.0
2149,53.0,1,60,13.0,0.0
2150,53.0,1,60,3.0,0.0
2151,57.0,0,60,3.0,0.0
2152,41.0,21,60,14.0,0.0
2153,60.0,1,30,4.0,0.0
2154,60.0,3,30,12.0,0.0
2155,48.0,0,30,5.0,0.0
2156,81.0,1,15,10.0,0.0
2157,81.0,1,15,0.0,0.0
2158,69.0,0,15,11.0,0.0
2159,79.0,1,60,10.0,0.0
2160,60.0,1,30,4.0,0.0
2161,79.0,0,60,1.0,0.0
2162,79.0,0,60,0.0,0.0
2163,76.0,0,60,1.0,0.0
2164,67.0,0,60,11.0,0.0
2165,64.0,3,30,12.0,0.0
2166,64.0,2,60,2.0,0.0
2167,48.0,26,30,5.0,0.0
2168,67.0,0,60,2.0,0.0
2169,48.0,1,60,13.0,0.0
2170,55.0,0,60,3.0,0.0
2171,52.0,1,60,3.0,0.0
2172,36.0,21,60,14.0,0.0
2173,60.0,0,30,4.0,0.0
2174,48.0,1,30,5.0,0.0
2175,60.0,3,30,12.0,0.0
2176,60.0,1,30,4.0,0.0
2177,48.0,26,30,5.0,0.0
2178,60.0,3,30,12.0,0.0
2179,60.0,1,30,4.0,0.0
2180,48.0,26,30,5.0,0.0
2181,60.0,3,30,12.0,0.0
2182,79.0,1,60,10.0,0.0
2183,60.0,1,30,4.0,0.0
2184,79.0,1,60,0.0,0.0
2185,67.0,0,60,11.0,0.0
2186,76.0,1,60,1.0,0.0
2187,79.0,0,60,1.0,0.0
2188,48.0,24,30,5.0,0.0
2189,64.0,2,60,2.0,0.0
2190,67.0,0,60,2.0,0.0
2191,64.0,3,30,12.0,0.0
2192,58.0,1,60,13.0,0.0
2193,52.0,1,60,3.0,0.0
2194,55.0,0,60,3.0,0.0
2195,46.0,21,60,14.0,0.0
2196,60.0,1,30,4.0,0.0
2197,48.0,0,30,5.0,0.0
2198,60.0,3,30,12.0,0.0
2199,81.0,1,120,10.0,0.0
2200,60.0,1,30,4.0,0.0
2201,81.0,0,120,0.0,0.0
2202,81.0,0,60,1.0,0.0
2203,77.0,1,60,1.0,0.0
2204,69.0,9,120,11.0,0.0
2205,65.0,2,60,2.0,0.0
2206,48.0,26,30,5.0,0.0
2207,65.0,3,30,12.0,0.0
2208,69.0,0,60,2.0,0.0
2209,57.0,1,60,13.0,0.0
2210,53.0,0,60,3.0,0.0
2211,57.0,1,60,3.0,0.0
2212,45.0,21,60,14.0,0.0
2213,60.0,1,30,4.0,0.0
2214,60.0,3,30,12.0,0.0
2215,48.0,0,30,5.0,0.0
2216,60.0,1,30,4.0,0.0
2217,65.0,3,30,12.0,0.0
2218,48.0,14,30,5.0,0.0
2219,60.0,1,30,4.0,0.0
2220,60.0,3,30,12.0,0.0
2221,48.0,26,30,5.0,0.0
2222,77.0,1,15,10.0,0.0
2223,65.0,1,15,11.0,0.0
2224,77.0,0,15,0.0,0.0
2225,84.0,1,40,10.0,0.0
2226,77.0,1,60,1.0,0.0
2227,81.0,0,60,1.0,0.0
2228,84.0,0,40,0.0,0.0
2229,60.0,1,30,4.0,0.0
2230,72.0,9,40,11.0,0.0
2231,65.0,2,60,2.0,0.0
2232,48.0,14,30,5.0,0.0
2233,69.0,0,60,2.0,0.0
2234,65.0,3,30,12.0,0.0
2235,53.0,1,60,13.0,0.0
2236,57.0,1,60,3.0,0.0
2237,53.0,0,60,3.0,0.0
2238,41.0,21,60,14.0,0.0
2239,60.0,1,30,4.0,0.0
2240,48.0,0,30,5.0,0.0
2241,60.0,3,30,12.0,0.0
2242,81.0,1,15,10.0,0.0
2243,81.0,0,15,0.0,0.0
2244,69.0,1,15,11.0,0.0
2245,79.0,0,30,10.0,0.0
2246,67.0,0,30,11.0,0.0
2247,79.0,26,30,0.0,0.0
2248,76.0,0,60,1.0,0.0
2249,79.0,0,60,1.0,0.0
2250,60.0,1,30,4.0,0.0
2251,64.0,3,30,12.0,0.0
2252,64.0,3,60,2.0,0.0
2253,48.0,0,30,5.0,0.0
2254,67.0,0,60,2.0,0.0
2255,48.0,2,60,13.0,0.0
2256,52.0,1,60,3.0,0.0
2257,55.0,0,60,3.0,0.0
2258,36.0,21,60,14.0,0.0
2259,72.0,0,30,4.0,0.0
2260,60.0,0,30,12.0,0.0
2261,60.0,3,30,5.0,0.0
2262,84.0,0,90,10.0,0.0
2263,72.0,15,90,11.0,0.0
2264,84.0,0,90,0.0,0.0
2265,72.0,1,30,4.0,0.0
2266,67.0,0,60,2.0,0.0
2267,64.0,3,30,12.0,0.0
2268,60.0,26,30,5.0,0.0
2269,64.0,3,60,2.0,0.0
2270,55.0,0,60,3.0,0.0
2271,52.0,22,60,3.0,0.0
2272,72.0,1,30,4.0,0.0
2273,60.0,3,30,12.0,0.0
2274,60.0,1,30,5.0,0.0
2275,69.0,1,30,4.0,0.0
2276,81.0,8,40,1.0,0.0
2277,84.0,0,40,1.0,0.0
2278,65.0,3,30,12.0,0.0
2279,57.0,0,30,5.0,0.0
2280,65.0,0,60,2.0,0.0
2281,69.0,2,60,2.0,0.0
2282,53.0,1,60,13.0,0.0
2283,57.0,0,60,3.0,0.0
2284,53.0,1,60,3.0,0.0
2285,41.0,21,60,14.0,0.0
2286,81.0,1,30,10.0,0.0
2287,65.0,1,30,4.0,0.0
2288,81.0,1,30,0.0,0.0
2289,69.0,0,30,11.0,0.0
2290,60.0,3,30,12.0,0.0
2291,53.0,1,30,5.0,0.0
2292,77.0,1,15,1.0,0.0
2293,81.0,0,15,1.0,0.0
2294,79.0,0,30,10.0,0.0
2295,67.0,1,30,11.0,0.0
2296,60.0,1,30,4.0,0.0
2297,79.0,0,30,0.0,0.0
2298,76.0,0,30,1.0,0.0
2299,79.0,0,30,1.0,0.0
2300,64.0,3,30,12.0,0.0
2301,48.0,0,30,5.0,0.0
2302,64.0,0,30,2.0,0.0
2303,67.0,3,30,2.0,0.0
2304,48.0,2,60,13.0,0.0
2305,52.0,22,30,3.0,0.0
2306,55.0,0,30,3.0,0.0
2307,36.0,21,60,14.0,0.0
2308,72.0,1,30,4.0,0.0
2309,60.0,3,30,5.0,0.0
2310,60.0,3,30,12.0,0.0
2311,84.0,1,30,10.0,0.0
2312,72.0,0,30,11.0,0.0
2313,84.0,0,30,0.0,0.0
2314,72.0,0,30,4.0,0.0
2315,64.0,3,30,12.0,0.0
2316,60.0,26,30,5.0,0.0
2317,64.0,0,60,2.0,0.0
2318,67.0,3,60,2.0,0.0
2319,55.0,0,60,3.0,0.0
2320,52.0,22,60,3.0,0.0
2321,83.0,1,30,10.0,0.0
2322,83.0,0,30,0.0,0.0
2323,71.0,0,30,11.0,0.0
2324,72.0,0,30,4.0,0.0
2325,60.0,3,30,12.0,0.0
2326,60.0,1,30,5.0,0.0
2327,84.0,1,30,10.0,0.0
2328,84.0,8,40,1.0,0.0
2329,69.0,0,30,4.0,0.0
2330,84.0,0,30,0.0,0.0
2331,72.0,15,30,11.0,0.0
2332,69.0,0,60,2.0,0.0
2333,65.0,2,60,2.0,0.0
2334,65.0,3,30,12.0,0.0
2335,57.0,0,30,5.0,0.0
2336,53.0,1,60,13.0,0.0
2337,53.0,1,60,3.0,0.0
2338,57.0,0,60,3.0,0.0
2339,41.0,33,60,14.0,0.0
2340,81.0,1,30,10.0,0.0
2341,65.0,1,30,4.0,0.0
2342,69.0,1,30,11.0,0.0
2343,81.0,0,30,0.0,0.0
2344,53.0,1,30,5.0,0.0
2345,60.0,3,30,12.0,0.0
2346,81.0,0,15,1.0,0.0
2347,77.0,0,15,1.0,0.0
2348,79.0,1,40,10.0,0.0
2349,76.0,0,40,1.0,0.0
2350,79.0,0,40,1.0,0.0
2351,60.0,0,40,4.0,0.0
2352,67.0,1,40,11.0,0.0
2353,79.0,0,40,0.0,0.0
2354,60.0,0,40,12.0,0.0
2355,67.0,0,40,2.0,0.0
2356,48.0,2,40,5.0,0.0
2357,64.0,0,40,2.0,0.0
2358,48.0,1,40,13.0,0.0
2359,52.0,1,40,3.0,0.0
2360,55.0,0,40,3.0,0.0
2361,36.0,54,40,14.0,0.0
2362,67.0,1,40,10.0,0.0
2363,55.0,1,40,11.0,0.0
2364,79.0,0,40,0.0,0.0
2365,64.0,0,40,11.0,0.0
2366,67.0,0,40,4.0,0.0
2367,79.0,0,40,1.0,0.0
2368,76.0,0,40,1.0,0.0
2369,48.0,0,40,12.0,0.0
2370,64.0,0,40,2.0,0.0
2371,67.0,0,40,2.0,0.0
2372,60.0,2,40,5.0,0.0
2373,48.0,1,40,13.0,0.0
2374,60.0,1,40,3.0,0.0
2375,48.0,0,40,3.0,0.0
2376,36.0,54,40,14.0,0.0
2377,67.0,1,40,10.0,0.0
2378,79.0,0,40,1.0,0.0
2379,76.0,0,40,1.0,0.0
2380,55.0,1,40,11.0,0.0
2381,64.0,0,40,11.0,0.0
2382,67.0,0,40,4.0,0.0
2383,79.0,0,40,0.0,0.0
2384,64.0,0,40,2.0,0.0
2385,67.0,0,40,2.0,0.0
2386,60.0,0,40,5.0,0.0
2387,48.0,2,40,12.0,0.0
2388,48.0,1,40,13.0,0.0
2389,60.0,0,40,3.0,0.0
2390,48.0,1,40,3.0,0.0
2391,36.0,75,40,14.0,0.0
2392,67.0,1,60,10.0,0.0
2393,67.0,0,60,4.0,0.0
2394,76.0,1,60,1.0,0.0
2395,79.0,0,60,0.0,0.0
2396,79.0,0,60,1.0,0.0
2397,64.0,0,60,11.0,0.0
2398,55.0,0,60,11.0,0.0
2399,48.0,0,60,12.0,0.0
2400,64.0,0,60,2.0,0.0
2401,67.0,0,60,2.0,0.0
2402,60.0,2,60,5.0,0.0
2403,48.0,1,60,13.0,0.0
2404,48.0,1,60,3.0,0.0
2405,36.0,114,60,14.0,0.0
2406,67.0,39,60,10.0,0.0
2407,76.0,64,40,10.0,0.0
2408,61.0,60,40,13.0,0.0
2409,76.0,1,60,10.0,0.0
2410,73.0,1,60,11.0,0.0
2411,67.0,37,60,12.0,0.0
2412,57.0,17,40,13.0,0.0
2413,77.0,1,40,10.0,0.0
2414,74.0,1,40,11.0,0.0
2415,65.0,2,40,12.0,0.0
2416,62.0,60,40,13.0,0.0
2417,50.0,62,40,13.0,0.0
2418,81.0,1,40,10.0,0.0
2419,69.0,9,40,11.0,0.0
2420,77.0,1,15,10.0,0.0
2421,65.0,43,15,11.0,0.0
2422,74.0,1,40,10.0,0.0
2423,62.0,63,40,11.0,0.0
2424,59.0,60,40,13.0,0.0
2425,74.0,1,60,10.0,0.0
2426,71.0,1,60,11.0,0.0
2427,65.0,37,60,12.0,0.0
2428,55.0,17,40,13.0,0.0
2429,76.0,1,40,10.0,0.0
2430,72.0,1,40,11.0,0.0
2431,64.0,2,40,12.0,0.0
2432,60.0,60,40,13.0,0.0
2433,48.0,62,40,13.0,0.0
2434,79.0,1,40,10.0,0.0
2435,67.0,9,40,11.0,0.0
2436,76.0,1,15,10.0,0.0
2437,64.0,43,15,11.0,0.0
2438,72.0,1,40,10.0,0.0
2439,60.0,1,40,11.0,0.0
2440,55.0,2,40,12.0,0.0
2441,52.0,1,40,13.0,0.0
2442,52.0,68,40,3.0,0.0
2443,72.0,1,60,10.0,0.0
2444,67.0,1,60,11.0,0.0
2445,67.0,1,60,12.0,0.0
2446,64.0,56,60,13.0,0.0
2447,64.0,1,60,3.0,0.0
2448,72.0,1,60,10.0,0.0
2449,67.0,1,60,11.0,0.0
2450,67.0,1,60,12.0,0.0
2451,64.0,64,60,13.0,0.0
2452,64.0,1,60,3.0,0.0
2453,72.0,2,60,10.0,0.0
2454,67.0,4,120,11.0,0.0
2455,67.0,2,60,12.0,0.0
2456,64.0,1,60,13.0,0.0
2457,64.0,51,60,3.0,0.0
2458,71.0,2,60,10.0,0.0
2459,65.0,2,60,12.0,0.0
2460,62.0,1,60,13.0,0.0
2461,62.0,50,60,3.0,0.0
2462,72.0,1,60,10.0,0.0
2463,67.0,1,60,11.0,0.0
2464,64.0,2,60,12.0,0.0
2465,60.0,1,60,13.0,0.0
2466,60.0,60,60,3.0,0.0
2467,74.0,1,60,10.0,0.0
2468,67.0,1,60,11.0,0.0
2469,67.0,1,120,4.0,0.0
2470,62.0,2,60,12.0,0.0
2471,67.0,5,120,5.0,0.0
2472,59.0,1,60,13.0,0.0
2473,59.0,51,60,3.0,0.0
2474,77.0,1,60,10.0,0.0
2475,74.0,14,60,11.0,0.0
2476,59.0,2,60,12.0,0.0
2477,55.0,1,60,13.0,0.0
2478,55.0,10,60,3.0,0.0
2479,67.0,0,60,4.0,0.0
2480,60.0,2,60,12.0,0.0
2481,67.0,0,60,5.0,0.0
2482,60.0,1,60,13.0,0.0
2483,60.0,43,60,3.0,0.0
2484,76.0,1,15,10.0,0.0
2485,72.0,14,15,11.0,0.0
2486,74.0,1,15,10.0,0.0
2487,71.0,9,15,11.0,0.0
2488,76.0,1,15,10.0,0.0
2489,72.0,1,15,11.0,0.0
2490,74.0,0,60,10.0,0.0
2491,71.0,0,60,11.0,0.0
2492,67.0,1,60,4.0,0.0
2493,67.0,41,60,5.0,0.0
2494,67.0,0,60,12.0,0.0
2495,55.0,17,40,13.0,0.0
2496,55.0,1,60,3.0,0.0
2497,67.0,17,40,13.0,0.0
2498,67.0,61,60,3.0,0.0
2499,67.0,0,60,11.0,0.0
2500,79.0,0,60,0.0,0.0
2501,67.0,14,60,1.0,0.0
2502,79.0,25,15,10.0,0.0
2503,76.0,0,40,11.0,0.0
2504,76.0,0,40,1.0,0.0
2505,88.0,5,40,0.0,0.0
2506,76.0,30,15,10.0,0.0
2507,73.0,28,15,10.0,0.0
2508,61.0,2,40,13.0,0.0
2509,49.0,0,40,14.0,0.0
2510,69.0,30,15,10.0,0.0
2511,67.0,28,15,10.0,0.0
2512,73.0,4,60,1.0,0.0
2513,76.0,0,60,1.0,0.0
2514,88.0,0,60,0.0,0.0
2515,76.0,0,60,11.0,0.0
2516,57.0,2,40,13.0,0.0
2517,67.0,10,60,3.0,0.0
2518,64.0,0,60,3.0,0.0
2519,45.0,16,40,14.0,0.0
2520,64.0,0,15,10.0,0.0
2521,65.0,25,15,10.0,0.0
2522,74.0,0,40,1.0,0.0
2523,77.0,0,40,11.0,0.0
2524,77.0,3,40,1.0,0.0
2525,89.0,0,40,0.0,0.0
2526,62.0,2,40,13.0,0.0
2527,65.0,25,60,3.0,0.0
2528,62.0,0,60,3.0,0.0
2529,50.0,0,40,14.0,0.0
2530,62.0,20,15,10.0,0.0
2531,69.0,1,30,10.0,0.0
2532,81.0,0,30,1.0,0.0
2533,81.0,10,30,11.0,0.0
2534,65.0,2,40,12.0,0.0
2535,50.0,2,40,13.0,0.0
2536,38.0,15,40,14.0,0.0
2537,68.0,1,30,10.0,0.0
2538,80.0,29,30,1.0,0.0
2539,80.0,0,30,11.0,0.0
2540,69.0,1,30,10.0,0.0
2541,81.0,10,30,1.0,0.0
2542,81.0,0,30,11.0,0.0
2543,62.0,14,40,12.0,0.0
2544,65.0,1,30,10.0,0.0
2545,77.0,0,30,11.0,0.0
2546,77.0,19,30,1.0,0.0
2547,77.0,26,15,10.0,0.0
2548,74.0,0,60,1.0,0.0
2549,71.0,14,60,1.0,0.0
2550,86.0,0,60,0.0,0.0
2551,74.0,0,60,11.0,0.0
2552,67.0,4,40,12.0,0.0
2553,74.0,16,15,10.0,0.0
2554,71.0,26,15,10.0,0.0
2555,55.0,2,40,12.0,0.0
2556,59.0,2,40,13.0,0.0
2557,47.0,0,40,14.0,0.0
2558,67.0,30,15,10.0,0.0
2559,65.0,28,15,10.0,0.0
2560,74.0,0,60,11.0,0.0
2561,86.0,0,60,0.0,0.0
2562,71.0,0,60,1.0,0.0
2563,74.0,4,60,1.0,0.0
2564,55.0,2,40,13.0,0.0
2565,62.0,0,60,3.0,0.0
2566,65.0,10,60,3.0,0.0
2567,43.0,0,40,14.0,0.0
2568,62.0,16,15,10.0,0.0
2569,64.0,25,15,10.0,0.0
2570,72.0,3,40,1.0,0.0
2571,76.0,0,40,11.0,0.0
2572,76.0,0,40,1.0,0.0
2573,88.0,0,40,0.0,0.0
2574,60.0,1,40,13.0,0.0
2575,60.0,0,40,3.0,0.0
2576,64.0,1,40,3.0,0.0
2577,48.0,0,40,14.0,0.0
2578,60.0,45,15,10.0,0.0
2579,67.0,1,30,10.0,0.0
2580,91.0,1,30,0.0,0.0
2581,64.0,2,40,12.0,0.0
2582,79.0,3,30,2.0,0.0
2583,48.0,2,40,13.0,0.0
2584,67.0,6,30,3.0,0.0
2585,36.0,15,40,14.0,0.0
2586,66.0,1,30,10.0,0.0
2587,90.0,1,30,0.0,0.0
2588,78.0,3,30,2.0,0.0
2589,66.0,25,30,3.0,0.0
2590,67.0,1,30,10.0,0.0
2591,91.0,1,30,0.0,0.0
2592,79.0,3,30,2.0,0.0
2593,60.0,14,40,12.0,0.0
2594,67.0,6,30,3.0,0.0
2595,64.0,1,30,10.0,0.0
2596,88.0,1,30,0.0,0.0
2597,76.0,3,30,2.0,0.0
2598,64.0,16,30,3.0,0.0
2599,60.0,1,60,10.0,0.0
2600,84.0,1,60,0.0,0.0
2601,67.0,25,15,11.0,0.0
2602,55.0,2,40,12.0,0.0
2603,72.0,0,60,2.0,0.0
2604,67.0,8,60,2.0,0.0
2605,52.0,2,40,13.0,0.0
2606,60.0,11,60,3.0,0.0
2607,55.0,0,60,3.0,0.0
2608,40.0,1,40,14.0,0.0
2609,70.0,9,15,11.0,0.0
2610,72.0,1,60,10.0,0.0
2611,67.0,25,15,11.0,0.0
2612,84.0,1,60,0.0,0.0
2613,67.0,3,60,2.0,0.0
2614,72.0,0,60,2.0,0.0
2615,64.0,2,40,12.0,0.0
2616,52.0,2,40,13.0,0.0
2617,55.0,0,60,3.0,0.0
2618,60.0,11,60,3.0,0.0
2619,40.0,1,40,14.0,0.0
2620,70.0,14,15,11.0,0.0
2621,73.0,1,60,10.0,0.0
2622,67.0,25,15,11.0,0.0
2623,85.0,1,60,0.0,0.0
2624,64.0,2,40,12.0,0.0
2625,73.0,3,60,2.0,0.0
2626,70.0,0,60,2.0,0.0
2627,52.0,2,40,13.0,0.0
2628,58.0,0,60,3.0,0.0
2629,61.0,30,60,3.0,0.0
2630,40.0,1,40,14.0,0.0
2631,70.0,9,15,11.0,0.0
2632,74.0,1,30,10.0,0.0
2633,86.0,1,60,0.0,0.0
2634,62.0,29,30,11.0,0.0
2635,74.0,0,60,2.0,0.0
2636,69.0,0,60,2.0,0.0
2637,65.0,2,60,12.0,0.0
2638,53.0,1,60,13.0,0.0
2639,57.0,0,60,3.0,0.0
2640,62.0,1,60,3.0,0.0
2641,41.0,24,60,14.0,0.0
2642,76.0,1,30,10.0,0.0
2643,64.0,0,30,11.0,0.0
2644,77.0,1,30,10.0,0.0
2645,65.0,29,30,11.0,0.0
2646,79.0,1,30,10.0,0.0
2647,67.0,29,30,11.0,0.0
2648,80.0,1,30,10.0,0.0
2649,68.0,24,30,11.0,0.0
2650,81.0,1,30,10.0,0.0
2651,69.0,35,30,11.0,0.0
2652,72.0,1,90,10.0,0.0
2653,64.0,30,30,11.0,0.0
2654,84.0,0,120,0.0,0.0
2655,64.0,3,120,2.0,0.0
2656,72.0,0,120,2.0,0.0
2657,67.0,29,30,11.0,0.0
2658,64.0,1,30,11.0,0.0
2659,67.0,1,60,4.0,0.0
2660,67.0,3,60,5.0,0.0
2661,67.0,2,30,12.0,0.0
2662,55.0,2,30,13.0,0.0
2663,60.0,0,60,3.0,0.0
2664,43.0,2,30,14.0,0.0
2665,74.0,7,15,10.0,0.0
2666,67.0,1,30,11.0,0.0
2667,72.0,8,15,10.0,0.0
2668,71.0,3,15,10.0,0.0
2669,72.0,1,15,10.0,0.0
2670,74.0,1,40,10.0,0.0
2671,67.0,0,60,4.0,0.0
2672,86.0,9,40,0.0,0.0
2673,65.0,1,30,11.0,0.0
2674,55.0,2,30,12.0,0.0
2675,71.0,3,60,2.0,0.0
2676,67.0,0,60,5.0,0.0
2677,65.0,0,60,2.0,0.0
2678,43.0,2,30,13.0,0.0
2679,62.0,45,60,3.0,0.0
2680,55.0,26,15,3.0,0.0
2681,31.0,9,30,14.0,0.0
2682,67.0,1,30,11.0,0.0
2683,71.0,1,15,10.0,0.0
2684,83.0,0,15,0.0,0.0
2685,72.0,8,40,10.0,0.0
2686,84.0,0,60,0.0,0.0
2687,67.0,0,60,4.0,0.0
2688,64.0,1,60,11.0,0.0
2689,60.0,0,60,5.0,0.0
2690,60.0,0,60,12.0,0.0
2691,64.0,2,60,2.0,0.0
2692,72.0,0,60,2.0,0.0
2693,48.0,1,60,13.0,0.0
2694,48.0,0,60,3.0,0.0
2695,60.0,1,60,3.0,0.0
2696,36.0,48,60,14.0,0.0
2697,79.0,8,15,10.0,0.0
2698,79.0,13,150,10.0,0.0
2699,74.0,1,15,11.0,0.0
2700,71.0,2,15,12.0,0.0
2701,65.0,27,15,13.0,0.0
2702,76.0,1,20,11.0,0.0
2703,72.0,2,20,12.0,0.0
2704,64.0,27,20,13.0,0.0
2705,77.0,1,15,11.0,0.0
2706,74.0,2,15,12.0,0.0
2707,59.0,34,15,13.0,0.0
2708,76.0,1,30,11.0,0.0
2709,72.0,2,30,12.0,0.0
2710,60.0,6,30,13.0,0.0
2711,76.0,61,15,10.0,0.0
2712,76.0,13,150,10.0,0.0
2713,71.0,1,15,11.0,0.0
2714,68.0,2,15,12.0,0.0
2715,62.0,27,15,13.0,0.0
2716,72.0,1,20,11.0,0.0
2717,69.0,2,20,12.0,0.0
2718,60.0,27,20,13.0,0.0
2719,74.0,1,15,11.0,0.0
2720,71.0,2,15,12.0,0.0
2721,56.0,34,15,13.0,0.0
2722,72.0,1,30,11.0,0.0
2723,69.0,2,30,12.0,0.0
2724,57.0,6,30,13.0,0.0
2725,72.0,61,15,10.0,0.0
2726,72.0,24,90,10.0,0.0
2727,67.0,1,15,11.0,0.0
2728,64.0,2,15,12.0,0.0
2729,58.0,27,15,13.0,0.0
2730,69.0,1,20,11.0,0.0
2731,65.0,2,20,12.0,0.0
2732,57.0,3,20,13.0,0.0
2733,73.0,2,30,10.0,0.0
2734,70.0,1,15,11.0,0.0
2735,67.0,0,15,12.0,0.0
2736,52.0,23,15,13.0,0.0
2737,74.0,4,20,10.0,0.0
2738,69.0,1,20,11.0,0.0
2739,65.0,2,20,12.0,0.0
2740,53.0,8,20,13.0,0.0
2741,77.0,19,15,10.0,0.0
2742,81.0,0,15,10.0,0.0
2743,65.0,1,15,11.0,0.0
2744,62.0,2,15,12.0,0.0
2745,50.0,42,15,13.0,0.0
2746,72.0,1,40,10.0,0.0
2747,64.0,1,40,11.0,0.0
2748,67.0,2,40,12.0,0.0
2749,55.0,23,40,13.0,0.0
2750,71.0,6,15,10.0,0.0
2751,65.0,1,30,11.0,0.0
2752,55.0,2,30,12.0,0.0
2753,43.0,2,30,13.0,0.0
2754,72.0,6,15,10.0,0.0
2755,71.0,6,15,10.0,0.0
2756,72.0,6,15,10.0,0.0
2757,71.0,1,15,10.0,0.0
2758,72.0,6,15,10.0,0.0
2759,71.0,6,15,10.0,0.0
2760,72.0,6,15,10.0,0.0
2761,71.0,37,15,10.0,0.0
2762,72.0,1,60,10.0,0.0
2763,60.0,0,30,1.0,0.0
2764,64.0,1,60,11.0,0.0
2765,72.0,4,30,1.0,0.0
2766,60.0,2,60,12.0,0.0
2767,48.0,49,60,13.0,0.0
2768,60.0,0,30,3.0,0.0
2769,48.0,19,30,3.0,0.0
2770,67.0,0,15,1.0,0.0
2771,79.0,4,15,1.0,0.0
2772,55.0,0,15,3.0,0.0
2773,67.0,2,15,3.0,0.0
2774,79.0,0,150,1.0,0.0
2775,67.0,4,150,1.0,0.0
2776,55.0,0,150,3.0,0.0
2777,67.0,9,150,3.0,0.0
2778,74.0,1,15,10.0,0.0
2779,71.0,1,15,11.0,0.0
2780,67.0,2,15,12.0,0.0
2781,53.0,2,15,13.0,0.0
2782,41.0,24,15,14.0,0.0
2783,76.0,1,20,10.0,0.0
2784,72.0,1,20,11.0,0.0
2785,67.0,2,20,12.0,0.0
2786,52.0,2,20,13.0,0.0
2787,40.0,24,20,14.0,0.0
2788,77.0,1,15,10.0,0.0
2789,74.0,1,15,11.0,0.0
2790,67.0,2,15,12.0,0.0
2791,47.0,2,15,13.0,0.0
2792,35.0,31,15,14.0,0.0
2793,76.0,1,30,10.0,0.0
2794,72.0,1,30,11.0,0.0
2795,67.0,2,30,12.0,0.0
2796,48.0,2,30,13.0,0.0
2797,36.0,5,30,14.0,0.0
2798,76.0,4,15,1.0,0.0
2799,64.0,0,15,1.0,0.0
2800,64.0,0,15,3.0,0.0
2801,52.0,55,15,3.0,0.0
2802,76.0,4,150,1.0,0.0
2803,64.0,0,150,1.0,0.0
2804,52.0,0,150,3.0,0.0
2805,64.0,9,150,3.0,0.0
2806,71.0,1,15,10.0,0.0
2807,68.0,1,15,11.0,0.0
2808,64.0,2,15,12.0,0.0
2809,62.0,2,15,13.0,0.0
2810,50.0,24,15,14.0,0.0
2811,72.0,1,20,10.0,0.0
2812,69.0,1,20,11.0,0.0
2813,64.0,2,20,12.0,0.0
2814,60.0,2,20,13.0,0.0
2815,48.0,24,20,14.0,0.0
2816,74.0,1,15,10.0,0.0
2817,71.0,1,15,11.0,0.0
2818,64.0,2,15,12.0,0.0
2819,56.0,2,15,13.0,0.0
2820,44.0,31,15,14.0,0.0
2821,72.0,1,30,10.0,0.0
2822,69.0,1,30,11.0,0.0
2823,64.0,2,30,12.0,0.0
2824,57.0,2,30,13.0,0.0
2825,45.0,5,30,14.0,0.0
2826,76.0,0,15,1.0,0.0
2827,64.0,1,15,1.0,0.0
2828,88.0,0,15,0.0,0.0
2829,64.0,0,15,2.0,0.0
2830,76.0,3,15,2.0,0.0
2831,64.0,55,15,3.0,0.0
2832,52.0,0,15,3.0,0.0
2833,64.0,1,180,1.0,0.0
2834,76.0,0,180,1.0,0.0
2835,88.0,0,180,0.0,0.0
2836,76.0,0,180,2.0,0.0
2837,64.0,3,180,2.0,0.0
2838,64.0,0,180,3.0,0.0
2839,52.0,120,180,3.0,0.0
2840,80.0,1,15,10.0,0.0
2841,71.0,1,15,11.0,0.0
2842,64.0,2,15,12.0,0.0
2843,62.0,2,15,13.0,0.0
2844,50.0,24,15,14.0,0.0
2845,81.0,1,20,10.0,0.0
2846,72.0,1,20,11.0,0.0
2847,64.0,2,20,12.0,0.0
2848,60.0,2,20,13.0,0.0
2849,48.0,24,20,14.0,0.0
2850,83.0,1,15,10.0,0.0
2851,74.0,1,15,11.0,0.0
2852,64.0,2,15,12.0,0.0
2853,56.0,2,15,13.0,0.0
2854,44.0,31,15,14.0,0.0
2855,81.0,1,30,10.0,0.0
2856,72.0,1,30,11.0,0.0
2857,64.0,2,30,12.0,0.0
2858,57.0,2,30,13.0,0.0
2859,45.0,20,30,14.0,0.0
2860,76.0,1,120,10.0,0.0
2861,76.0,0,120,1.0,0.0
2862,88.0,0,120,0.0,0.0
2863,64.0,0,120,1.0,0.0
2864,70.0,1,120,11.0,0.0
2865,60.0,2,150,12.0,0.0
2866,70.0,2,120,2.0,0.0
2867,60.0,0,150,2.0,0.0
2868,55.0,1,120,13.0,0.0
2869,60.0,0,150,3.0,0.0
2870,58.0,1,120,3.0,0.0
2871,43.0,24,120,14.0,0.0
2872,77.0,1,30,10.0,0.0
2873,69.0,0,30,11.0,0.0
2874,77.0,0,30,1.0,0.0
2875,65.0,0,30,1.0,0.0
2876,89.0,1,30,0.0,0.0
2877,69.0,0,30,2.0,0.0
2878,53.0,1,30,13.0,0.0
2879,57.0,1,30,3.0,0.0
2880,41.0,144,30,14.0,0.0
2881,78.0,1,120,10.0,0.0
2882,78.0,0,120,1.0,0.0
2883,66.0,0,120,1.0,0.0
2884,72.0,1,120,11.0,0.0
2885,90.0,0,120,0.0,0.0
2886,72.0,0,120,2.0,0.0
2887,69.0,0,120,2.0,0.0
2888,69.0,2,120,12.0,0.0
2889,50.0,1,120,13.0,0.0
2890,62.0,0,150,3.0,0.0
2891,60.0,1,120,3.0,0.0
2892,38.0,24,120,14.0,0.0
2893,79.0,1,30,10.0,0.0
2894,91.0,0,30,0.0,0.0
2895,71.0,1,30,11.0,0.0
2896,79.0,0,30,1.0,0.0
2897,67.0,0,30,1.0,0.0
2898,67.0,0,30,2.0,0.0
2899,71.0,0,30,2.0,0.0
2900,62.0,2,30,12.0,0.0
2901,55.0,1,30,13.0,0.0
2902,59.0,1,30,3.0,0.0
2903,43.0,144,30,14.0,0.0
2904,80.0,1,120,10.0,0.0
2905,80.0,0,120,1.0,0.0
2906,68.0,1,120,1.0,0.0
2907,80.0,0,150,0.0,0.0
2908,74.0,1,150,11.0,0.0
2909,71.0,0,120,2.0,0.0
2910,71.0,2,120,12.0,0.0
2911,74.0,3,180,2.0,0.0
2912,52.0,1,120,13.0,0.0
2913,62.0,16,180,3.0,0.0
2914,59.0,1,120,3.0,0.0
2915,40.0,14,120,14.0,0.0
2916,81.0,1,20,10.0,0.0
2917,69.0,0,60,1.0,0.0
2918,81.0,1,60,1.0,0.0
2919,69.0,0,60,2.0,0.0
2920,69.0,12,20,12.0,0.0
2921,53.0,1,30,13.0,0.0
2922,57.0,0,60,3.0,0.0
2923,41.0,0,30,14.0,0.0
2924,77.0,1,15,10.0,0.0
2925,69.0,0,15,11.0,0.0
2926,89.0,1,15,0.0,0.0
2927,65.0,13,15,12.0,0.0
2928,74.0,1,15,10.0,0.0
2929,65.0,0,15,11.0,0.0
2930,86.0,1,15,0.0,0.0
2931,69.0,4,15,12.0,0.0
2932,72.0,1,30,10.0,0.0
2933,72.0,0,60,1.0,0.0
2934,67.0,1,60,1.0,0.0
2935,67.0,1,60,4.0,0.0
2936,64.0,1,30,11.0,0.0
2937,84.0,14,15,0.0,0.0
2938,67.0,0,60,2.0,0.0
2939,64.0,3,60,2.0,0.0
2940,67.0,4,60,5.0,0.0
2941,67.0,2,30,12.0,0.0
2942,55.0,2,30,13.0,0.0
2943,60.0,1,60,3.0,0.0
2944,43.0,20,30,14.0,0.0
2945,72.0,1,15,10.0,0.0
2946,67.0,0,60,4.0,0.0
2947,71.0,0,60,1.0,0.0
2948,84.0,5,15,0.0,0.0
2949,65.0,0,30,11.0,0.0
2950,67.0,1,60,1.0,0.0
2951,67.0,0,60,5.0,0.0
2952,62.0,2,30,12.0,0.0
2953,65.0,0,60,2.0,0.0
2954,67.0,3,60,2.0,0.0
2955,43.0,2,30,13.0,0.0
2956,55.0,0,15,3.0,0.0
2957,62.0,0,60,3.0,0.0
2958,31.0,1,30,14.0,0.0
2959,71.0,1,15,10.0,0.0
2960,83.0,5,15,0.0,0.0
2961,72.0,1,15,10.0,0.0
2962,84.0,5,15,0.0,0.0
2963,71.0,1,15,10.0,0.0
2964,83.0,5,15,0.0,0.0
2965,72.0,1,15,10.0,0.0
2966,84.0,1,15,0.0,0.0
2967,71.0,0,15,10.0,0.0
2968,83.0,7,15,0.0,0.0
2969,71.0,1,15,10.0,0.0
2970,83.0,7,15,0.0,0.0
2971,69.0,1,15,10.0,0.0
2972,81.0,3,15,0.0,0.0
2973,71.0,0,15,10.0,0.0
2974,83.0,48,15,0.0,0.0
2975,72.0,1,60,10.0,0.0
2976,72.0,0,60,1.0,0.0
2977,67.0,0,60,1.0,0.0
2978,84.0,0,60,0.0,0.0
2979,64.0,1,60,11.0,0.0
2980,67.0,1,60,4.0,0.0
2981,60.0,3,60,5.0,0.0
2982,67.0,0,60,2.0,0.0
2983,64.0,2,60,2.0,0.0
2984,60.0,0,60,12.0,0.0
2985,48.0,7,40,15.0,0.0
2986,48.0,1,60,13.0,0.0
2987,60.0,1,60,3.0,0.0
2988,48.0,0,60,3.0,0.0
2989,36.0,40,60,14.0,0.0
2990,55.0,0,40,6.0,0.0
2991,67.0,3,40,6.0,0.0
2992,43.0,0,15,15.0,0.0
2993,43.0,15,15,15.0,0.0
2994,67.0,3,40,6.0,0.0
2995,55.0,0,40,6.0,0.0
2996,43.0,42,15,15.0,0.0
2997,43.0,6,15,15.0,0.0
2998,77.0,20,15,10.0,0.0
2999,55.0,3,420,6.0,0.0
3000,55.0,1,60,11.0,0.0
3001,67.0,0,420,6.0,0.0
3002,65.0,0,60,11.0,0.0
3003,62.0,2,60,12.0,0.0
3004,55.0,0,60,13.0,0.0
3005,43.0,4,60,14.0,0.0
3006,81.0,19,15,10.0,0.0
3007,79.0,11,15,10.0,0.0
3008,43.0,1,15,15.0,0.0
3009,77.0,20,15,10.0,0.0
3010,67.0,0,60,4.0,0.0
3011,74.0,1,60,1.0,0.0
3012,77.0,0,60,1.0,0.0
3013,67.0,0,60,5.0,0.0
3014,62.0,2,60,2.0,0.0
3015,65.0,0,60,2.0,0.0
3016,59.0,5,60,3.0,0.0
3017,55.0,0,60,3.0,0.0
3018,76.0,19,15,10.0,0.0
3019,74.0,11,15,10.0,0.0
3020,43.0,1,15,15.0,0.0
3021,72.0,20,15,10.0,0.0
3022,65.0,1,60,11.0,0.0
3023,55.0,0,60,11.0,0.0
3024,62.0,2,60,12.0,0.0
3025,43.0,1,15,15.0,0.0
3026,55.0,0,60,13.0,0.0
3027,43.0,4,60,14.0,0.0
3028,71.0,19,15,10.0,0.0
3029,74.0,11,15,10.0,0.0
3030,43.0,1,15,15.0,0.0
3031,72.0,1,15,10.0,0.0
3032,76.0,0,60,1.0,0.0
3033,84.0,19,15,0.0,0.0
3034,67.0,1,60,4.0,0.0
3035,72.0,0,60,1.0,0.0
3036,60.0,2,60,2.0,0.0
3037,64.0,0,60,2.0,0.0
3038,67.0,0,60,5.0,0.0
3039,43.0,1,40,15.0,0.0
3040,55.0,0,60,3.0,0.0
3041,60.0,5,60,3.0,0.0
3042,76.0,1,15,10.0,0.0
3043,88.0,18,15,0.0,0.0
3044,74.0,1,15,10.0,0.0
3045,86.0,10,15,0.0,0.0
3046,43.0,1,15,15.0,0.0
3047,72.0,1,15,10.0,0.0
3048,55.0,0,60,11.0,0.0
3049,84.0,19,15,0.0,0.0
3050,64.0,1,60,11.0,0.0
3051,60.0,2,60,12.0,0.0
3052,55.0,0,60,13.0,0.0
3053,43.0,1,40,15.0,0.0
3054,43.0,4,60,14.0,0.0
3055,71.0,1,15,10.0,0.0
3056,83.0,18,15,0.0,0.0
3057,69.0,1,15,10.0,0.0
3058,81.0,10,15,0.0,0.0
3059,67.0,1,15,10.0,0.0
3060,72.0,1,60,1.0,0.0
3061,79.0,19,15,0.0,0.0
3062,67.0,0,60,4.0,0.0
3063,76.0,0,60,1.0,0.0
3064,60.0,0,60,2.0,0.0
3065,64.0,0,60,2.0,0.0
3066,67.0,2,60,5.0,0.0
3067,43.0,2,15,15.0,0.0
3068,60.0,0,60,3.0,0.0
3069,55.0,5,60,3.0,0.0
3070,66.0,1,15,10.0,0.0
3071,78.0,18,15,0.0,0.0
3072,69.0,1,15,10.0,0.0
3073,81.0,10,15,0.0,0.0
3074,43.0,1,15,15.0,0.0
3075,67.0,1,15,10.0,0.0
3076,62.0,0,60,11.0,0.0
3077,79.0,19,15,0.0,0.0
3078,55.0,1,60,11.0,0.0
3079,59.0,2,60,12.0,0.0
3080,43.0,1,40,15.0,0.0
3081,55.0,2,60,13.0,0.0
3082,43.0,4,60,14.0,0.0
3083,66.0,1,15,10.0,0.0
3084,78.0,15,15,0.0,0.0
3085,69.0,1,15,10.0,0.0
3086,81.0,10,15,0.0,0.0
3087,43.0,0,15,15.0,0.0
3088,67.0,1,15,10.0,0.0
3089,67.0,1,60,4.0,0.0
3090,83.0,0,60,1.0,0.0
3091,55.0,3,40,6.0,0.0
3092,67.0,0,40,6.0,0.0
3093,79.0,19,15,0.0,0.0
3094,77.0,0,60,1.0,0.0
3095,67.0,0,60,5.0,0.0
3096,71.0,2,60,2.0,0.0
3097,65.0,0,60,2.0,0.0
3098,43.0,1,40,15.0,0.0
3099,55.0,5,60,3.0,0.0
3100,62.0,0,60,3.0,0.0
3101,69.0,1,15,10.0,0.0
3102,81.0,15,15,0.0,0.0
3103,67.0,1,15,10.0,0.0
3104,79.0,10,15,0.0,0.0
3105,65.0,1,15,10.0,0.0
3106,62.0,1,60,11.0,0.0
3107,55.0,0,40,6.0,0.0
3108,67.0,3,40,6.0,0.0
3109,77.0,19,15,0.0,0.0
3110,55.0,0,60,11.0,0.0
3111,59.0,2,60,12.0,0.0
3112,43.0,1,15,15.0,0.0
3113,55.0,2,60,13.0,0.0
3114,43.0,4,60,14.0,0.0
3115,64.0,1,15,10.0,0.0
3116,76.0,15,15,0.0,0.0
3117,62.0,1,15,10.0,0.0
3118,74.0,10,15,0.0,0.0
3119,43.0,1,15,15.0,0.0
3120,60.0,1,15,10.0,0.0
3121,55.0,0,40,6.0,0.0
3122,72.0,19,15,0.0,0.0
3123,67.0,0,60,4.0,0.0
3124,84.0,0,60,1.0,0.0
3125,76.0,1,60,1.0,0.0
3126,67.0,3,40,6.0,0.0
3127,64.0,2,60,2.0,0.0
3128,72.0,0,60,2.0,0.0
3129,67.0,0,60,5.0,0.0
3130,60.0,5,60,3.0,0.0
3131,55.0,0,60,3.0,0.0
3132,64.0,1,15,10.0,0.0
3133,76.0,15,15,0.0,0.0
3134,65.0,1,15,10.0,0.0
3135,77.0,10,15,0.0,0.0
3136,43.0,1,15,15.0,0.0
3137,67.0,1,15,10.0,0.0
3138,64.0,0,60,11.0,0.0
3139,55.0,1,60,11.0,0.0
3140,79.0,19,15,0.0,0.0
3141,55.0,0,40,6.0,0.0
3142,67.0,3,40,6.0,0.0
3143,60.0,2,60,12.0,0.0
3144,43.0,1,15,15.0,0.0
3145,55.0,0,60,13.0,0.0
3146,43.0,4,60,14.0,0.0
3147,69.0,1,15,10.0,0.0
3148,81.0,15,15,0.0,0.0
3149,71.0,1,15,10.0,0.0
3150,83.0,10,15,0.0,0.0
3151,43.0,2,15,15.0,0.0
3152,72.0,1,15,10.0,0.0
3153,55.0,0,40,6.0,0.0
3154,67.0,3,40,6.0,0.0
3155,67.0,1,60,4.0,0.0
3156,72.0,0,60,1.0,0.0
3157,84.0,19,15,0.0,0.0
3158,76.0,0,60,1.0,0.0
3159,64.0,0,60,2.0,0.0
3160,67.0,2,60,5.0,0.0
3161,72.0,0,60,2.0,0.0
3162,60.0,0,60,3.0,0.0
3163,55.0,5,60,3.0,0.0
3164,74.0,1,15,10.0,0.0
3165,86.0,15,15,0.0,0.0
3166,76.0,1,15,10.0,0.0
3167,88.0,10,15,0.0,0.0
3168,43.0,1,15,15.0,0.0
3169,77.0,1,15,10.0,0.0
3170,89.0,19,15,0.0,0.0
3171,55.0,0,420,6.0,0.0
3172,67.0,0,420,6.0,0.0
3173,55.0,1,60,11.0,0.0
3174,65.0,0,60,11.0,0.0
3175,62.0,2,60,12.0,0.0
3176,43.0,1,40,15.0,0.0
3177,55.0,2,60,13.0,0.0
3178,43.0,4,60,14.0,0.0
3179,77.0,1,15,10.0,0.0
3180,89.0,18,15,0.0,0.0
3181,77.0,1,15,10.0,0.0
3182,89.0,10,15,0.0,0.0
3183,43.0,0,15,15.0,0.0
3184,77.0,1,15,10.0,0.0
3185,71.0,0,60,1.0,0.0
3186,77.0,0,60,1.0,0.0
3187,67.0,1,60,4.0,0.0
3188,89.0,19,15,0.0,0.0
3189,62.0,2,60,2.0,0.0
3190,65.0,0,60,2.0,0.0
3191,67.0,0,60,5.0,0.0
3192,59.0,5,60,3.0,0.0
3193,55.0,0,60,3.0,0.0
3194,76.0,1,15,10.0,0.0
3195,88.0,18,15,0.0,0.0
3196,74.0,1,15,10.0,0.0
3197,86.0,10,15,0.0,0.0
3198,43.0,1,15,15.0,0.0
3199,72.0,1,15,10.0,0.0
3200,65.0,1,60,11.0,0.0
3201,55.0,0,60,11.0,0.0
3202,84.0,19,15,0.0,0.0
3203,62.0,2,60,12.0,0.0
3204,55.0,0,60,13.0,0.0
3205,43.0,1,40,15.0,0.0
3206,43.0,4,60,14.0,0.0
3207,71.0,1,15,10.0,0.0
3208,83.0,18,15,0.0,0.0
3209,74.0,1,15,10.0,0.0
3210,86.0,10,15,0.0,0.0
3211,72.0,1,15,10.0,0.0
3212,76.0,0,60,1.0,0.0
3213,72.0,1,60,1.0,0.0
3214,84.0,19,15,0.0,0.0
3215,67.0,0,60,4.0,0.0
3216,60.0,0,60,2.0,0.0
3217,67.0,2,60,5.0,0.0
3218,64.0,0,60,2.0,0.0
3219,43.0,2,15,15.0,0.0
3220,55.0,0,60,3.0,0.0
3221,60.0,5,60,3.0,0.0
3222,72.0,1,15,10.0,0.0
3223,84.0,18,15,0.0,0.0
3224,72.0,1,15,10.0,0.0
3225,84.0,10,15,0.0,0.0
3226,43.0,1,15,15.0,0.0
3227,72.0,1,15,10.0,0.0
3228,84.0,19,15,0.0,0.0
3229,64.0,1,60,11.0,0.0
3230,55.0,0,60,11.0,0.0
3231,60.0,2,60,12.0,0.0
3232,55.0,0,60,13.0,0.0
3233,43.0,4,60,14.0,0.0
3234,71.0,1,15,10.0,0.0
3235,83.0,18,15,0.0,0.0
3236,69.0,1,15,10.0,0.0
3237,81.0,10,15,0.0,0.0
3238,43.0,1,15,15.0,0.0
3239,67.0,1,15,10.0,0.0
3240,79.0,19,15,0.0,0.0
3241,67.0,0,60,4.0,0.0
3242,76.0,0,60,1.0,0.0
3243,72.0,1,60,1.0,0.0
3244,67.0,0,60,5.0,0.0
3245,60.0,2,60,2.0,0.0
3246,64.0,0,60,2.0,0.0
3247,43.0,2,15,15.0,0.0
3248,55.0,5,60,3.0,0.0
3249,60.0,0,60,3.0,0.0
3250,66.0,1,15,10.0,0.0
3251,78.0,18,15,0.0,0.0
3252,69.0,1,15,10.0,0.0
3253,81.0,10,15,0.0,0.0
3254,43.0,1,15,15.0,0.0
3255,67.0,1,15,10.0,0.0
3256,65.0,1,40,11.0,0.0
3257,79.0,19,15,0.0,0.0
3258,55.0,0,40,11.0,0.0
3259,62.0,2,40,12.0,0.0
3260,43.0,1,40,15.0,0.0
3261,55.0,0,40,13.0,0.0
3262,43.0,0,40,14.0,0.0
3263,66.0,1,15,10.0,0.0
3264,78.0,15,15,0.0,0.0
3265,69.0,1,15,10.0,0.0
3266,81.0,13,15,0.0,0.0
3267,43.0,6,15,15.0,0.0
3268,67.0,1,15,10.0,0.0
3269,83.0,0,60,1.0,0.0
3270,65.0,1,40,11.0,0.0
3271,55.0,0,40,11.0,0.0
3272,79.0,19,15,0.0,0.0
3273,77.0,1,60,1.0,0.0
3274,67.0,0,60,4.0,0.0
3275,55.0,0,40,6.0,0.0
3276,67.0,0,40,6.0,0.0
3277,62.0,2,40,12.0,0.0
3278,55.0,0,40,13.0,0.0
3279,43.0,1,40,15.0,0.0
3280,55.0,0,60,3.0,0.0
3281,43.0,0,40,14.0,0.0
3282,69.0,1,15,10.0,0.0
3283,81.0,15,15,0.0,0.0
3284,67.0,1,15,10.0,0.0
3285,79.0,10,15,0.0,0.0
3286,43.0,1,15,15.0,0.0
3287,65.0,1,15,10.0,0.0
3288,55.0,0,40,6.0,0.0
3289,77.0,19,15,0.0,0.0
3290,65.0,0,40,11.0,0.0
3291,55.0,0,40,11.0,0.0
3292,67.0,1,40,6.0,0.0
3293,77.0,0,60,1.0,0.0
3294,83.0,0,60,1.0,0.0
3295,62.0,2,40,12.0,0.0
3296,67.0,0,15,5.0,0.0
3297,65.0,2,15,2.0,0.0
3298,71.0,0,15,2.0,0.0
3299,55.0,0,40,13.0,0.0
3300,62.0,5,15,3.0,0.0
3301,55.0,0,60,3.0,0.0
3302,43.0,0,40,14.0,0.0
3303,64.0,1,15,10.0,0.0
3304,76.0,15,15,0.0,0.0
3305,62.0,1,15,10.0,0.0
3306,74.0,10,15,0.0,0.0
3307,43.0,1,15,15.0,0.0
3308,60.0,1,60,10.0,0.0
3309,84.0,0,60,1.0,0.0
3310,76.0,1,60,1.0,0.0
3311,67.0,1,15,4.0,0.0
3312,55.0,0,60,11.0,0.0
3313,72.0,0,60,0.0,0.0
3314,55.0,0,60,6.0,0.0
3315,67.0,0,60,6.0,0.0
3316,64.0,0,60,11.0,0.0
3317,60.0,0,60,12.0,0.0
3318,72.0,2,60,2.0,0.0
3319,67.0,0,60,5.0,0.0
3320,64.0,0,60,2.0,0.0
3321,48.0,1,60,15.0,0.0
3322,48.0,0,60,13.0,0.0
3323,60.0,0,60,3.0,0.0
3324,48.0,1,60,3.0,0.0
3325,36.0,114,60,14.0,0.0
3326,67.0,1,60,10.0,0.0
3327,79.0,38,60,0.0,0.0
3328,72.0,1,40,10.0,0.0
3329,84.0,140,40,0.0,0.0
3330,55.0,1,60,10.0,0.0
3331,79.0,1,60,0.0,0.0
3332,55.0,0,60,11.0,0.0
3333,67.0,0,60,1.0,0.0
3334,67.0,2,60,2.0,0.0
3335,55.0,0,60,12.0,0.0
3336,55.0,1,60,13.0,0.0
3337,43.0,1,60,3.0,0.0
3338,55.0,0,60,3.0,0.0
3339,43.0,24,60,14.0,0.0
3340,60.0,1,30,10.0,0.0
3341,84.0,0,30,0.0,0.0
3342,72.0,1,30,1.0,0.0
3343,60.0,0,30,11.0,0.0
3344,72.0,2,30,2.0,0.0
3345,60.0,0,30,12.0,0.0
3346,60.0,1,30,13.0,0.0
3347,48.0,1,30,3.0,0.0
3348,60.0,0,30,3.0,0.0
3349,48.0,54,30,14.0,0.0
3350,60.0,1,30,10.0,0.0
3351,72.0,0,30,0.0,0.0
3352,60.0,0,30,4.0,0.0
3353,55.0,0,30,6.0,0.0
3354,55.0,0,30,11.0,0.0
3355,67.0,0,30,6.0,0.0
3356,67.0,0,30,1.0,0.0
3357,64.0,1,30,1.0,0.0
3358,48.0,0,30,5.0,0.0
3359,52.0,2,30,12.0,0.0
3360,64.0,0,30,2.0,0.0
3361,67.0,0,30,2.0,0.0
3362,48.0,1,30,13.0,0.0
3363,48.0,26,60,15.0,0.0
3364,52.0,1,30,3.0,0.0
3365,55.0,0,30,3.0,0.0
3366,36.0,28,30,14.0,0.0
3367,60.0,1,30,10.0,0.0
3368,67.0,0,30,1.0,0.0
3369,64.0,0,30,1.0,0.0
3370,55.0,0,30,6.0,0.0
3371,72.0,0,30,0.0,0.0
3372,67.0,0,30,6.0,0.0
3373,60.0,0,30,4.0,0.0
3374,55.0,1,30,11.0,0.0
3375,64.0,0,30,2.0,0.0
3376,67.0,0,30,2.0,0.0
3377,52.0,2,30,12.0,0.0
3378,48.0,0,30,5.0,0.0
3379,48.0,1,30,13.0,0.0
3380,52.0,0,30,3.0,0.0
3381,55.0,1,30,3.0,0.0
3382,36.0,28,30,14.0,0.0
3383,60.0,1,60,10.0,0.0
3384,60.0,0,60,4.0,0.0
3385,64.0,1,60,1.0,0.0
3386,67.0,0,60,6.0,0.0
3387,55.0,0,60,6.0,0.0
3388,72.0,0,60,0.0,0.0
3389,67.0,0,60,1.0,0.0
3390,55.0,0,60,11.0,0.0
3391,52.0,0,60,12.0,0.0
3392,67.0,2,60,2.0,0.0
3393,64.0,0,60,2.0,0.0
3394,48.0,0,60,5.0,0.0
3395,48.0,56,15,15.0,0.0
3396,48.0,1,60,13.0,0.0
3397,48.0,0,60,3.0,0.0
3398,52.0,1,60,3.0,0.0
3399,36.0,114,60,14.0,0.0
3400,60.0,60,60,10.0,0.0
3401,63.0,120,60,10.0,0.0
3402,72.0,2,360,1.0,0.0
3403,67.0,60,60,10.0,0.0
3404,72.0,118,60,10.0,0.0
3405,63.0,1,60,10.0,0.0
3406,60.0,59,60,11.0,0.0
3407,67.0,1,60,10.0,0.0
3408,63.0,119,60,11.0,0.0
3409,72.0,59,660,1.0,0.0
3410,75.0,1,360,1.0,0.0
3411,72.0,1,60,10.0,0.0
3412,67.0,59,60,11.0,0.0
3413,75.0,1,60,10.0,0.0
3414,72.0,119,60,11.0,0.0
3415,66.0,1,60,10.0,0.0
3416,63.0,0,60,11.0,0.0
3417,60.0,2,60,12.0,0.0
3418,56.0,2,60,13.0,0.0
3419,44.0,54,60,14.0,0.0
3420,72.0,1,60,10.0,0.0
3421,66.0,1,60,11.0,0.0
3422,78.0,4,300,1.0,0.0
3423,63.0,2,60,12.0,0.0
3424,51.0,2,60,13.0,0.0
3425,63.0,0,300,3.0,0.0
3426,60.0,1,300,3.0,0.0
3427,39.0,114,60,14.0,0.0
3428,75.0,1,60,10.0,0.0
3429,72.0,1,60,11.0,0.0
3430,66.0,2,60,12.0,0.0
3431,48.0,2,60,13.0,0.0
3432,36.0,54,60,14.0,0.0
3433,78.0,1,60,10.0,0.0
3434,75.0,1,60,11.0,0.0
3435,72.0,2,60,12.0,0.0
3436,44.0,2,60,13.0,0.0
3437,32.0,50,60,14.0,0.0
3438,60.0,1,60,10.0,0.0
3439,78.0,1,60,1.0,0.0
3440,72.0,0,60,1.0,0.0
3441,84.0,0,60,0.0,0.0
3442,60.0,0,60,11.0,0.0
3443,54.0,2,60,12.0,0.0
3444,44.0,1,60,13.0,0.0
3445,51.0,1,60,3.0,0.0
3446,54.0,0,60,3.0,0.0
3447,32.0,21,60,14.0,0.0
3448,61.0,1,30,10.0,0.0
3449,85.0,2,30,0.0,0.0
3450,77.0,0,30,1.0,0.0
3451,73.0,0,30,1.0,0.0
3452,61.0,1,30,11.0,0.0
3453,53.0,2,30,12.0,0.0
3454,49.0,0,30,13.0,0.0
3455,53.0,0,30,3.0,0.0
3456,49.0,19,30,3.0,0.0
3457,37.0,2,30,14.0,0.0
3458,65.0,1,15,10.0,0.0
3459,56.0,0,15,10.0,0.0
3460,61.0,1,15,11.0,0.0
3461,61.0,2,15,12.0,0.0
3462,49.0,2,15,13.0,0.0
3463,37.0,27,15,14.0,0.0
3464,65.0,1,30,10.0,0.0
3465,56.0,0,30,10.0,0.0
3466,61.0,1,30,11.0,0.0
3467,61.0,2,30,12.0,0.0
3468,49.0,2,30,13.0,0.0
3469,37.0,21,30,14.0,0.0
3470,65.0,0,15,10.0,0.0
3471,56.0,1,15,10.0,0.0
3472,61.0,1,15,11.0,0.0
3473,61.0,2,15,12.0,0.0
3474,49.0,2,15,13.0,0.0
3475,37.0,27,15,14.0,0.0
3476,65.0,0,30,10.0,0.0
3477,56.0,1,30,10.0,0.0
3478,61.0,1,30,11.0,0.0
3479,61.0,2,30,12.0,0.0
3480,49.0,2,30,13.0,0.0
3481,37.0,21,30,14.0,0.0
3482,56.0,0,15,10.0,0.0
3483,65.0,1,15,10.0,0.0
3484,61.0,1,15,11.0,0.0
3485,61.0,2,15,12.0,0.0
3486,49.0,2,15,13.0,0.0
3487,37.0,27,15,14.0,0.0
3488,56.0,1,30,10.0,0.0
3489,65.0,0,30,10.0,0.0
3490,61.0,1,30,11.0,0.0
3491,61.0,2,30,12.0,0.0
3492,49.0,1,30,13.0,0.0
3493,49.0,1,30,3.0,0.0
3494,37.0,21,30,14.0,0.0
3495,65.0,1,15,10.0,0.0
3496,56.0,0,15,10.0,0.0
3497,61.0,1,15,11.0,0.0
3498,61.0,2,15,12.0,0.0
3499,49.0,1,15,13.0,0.0
3500,49.0,1,15,3.0,0.0
3501,37.0,27,15,14.0,0.0
3502,65.0,1,30,10.0,0.0
3503,56.0,0,30,10.0,0.0
3504,61.0,1,30,11.0,0.0
3505,61.0,2,30,12.0,0.0
3506,49.0,1,30,13.0,0.0
3507,49.0,1,30,3.0,0.0
3508,37.0,21,30,14.0,0.0
3509,56.0,0,15,10.0,0.0
3510,65.0,1,15,10.0,0.0
3511,61.0,1,15,11.0,0.0
3512,61.0,2,15,12.0,0.0
3513,49.0,1,15,13.0,0.0
3514,49.0,1,15,3.0,0.0
3515,37.0,27,15,14.0,0.0
3516,56.0,1,30,10.0,0.0
3517,65.0,0,30,10.0,0.0
3518,68.0,4,60,1.0,0.0
3519,61.0,1,30,11.0,0.0
3520,61.0,2,30,12.0,0.0
3521,49.0,1,30,13.0,0.0
3522,56.0,22,60,3.0,0.0
3523,49.0,1,30,3.0,0.0
3524,37.0,21,30,14.0,0.0
3525,65.0,1,15,10.0,0.0
3526,56.0,0,15,10.0,0.0
3527,61.0,1,15,11.0,0.0
3528,61.0,2,15,12.0,0.0
3529,49.0,1,15,13.0,0.0
3530,49.0,1,15,3.0,0.0
3531,37.0,1,15,14.0,0.0
3532,66.0,1,30,10.0,0.0
3533,63.0,1,30,11.0,0.0
3534,78.0,4,180,1.0,0.0
3535,60.0,2,30,12.0,0.0
3536,48.0,1,30,13.0,0.0
3537,66.0,22,180,3.0,0.0
3538,48.0,1,30,3.0,0.0
3539,36.0,21,30,14.0,0.0
3540,66.0,1,15,10.0,0.0
3541,63.0,1,15,11.0,0.0
3542,60.0,2,15,12.0,0.0
3543,48.0,1,15,13.0,0.0
3544,48.0,1,15,3.0,0.0
3545,36.0,27,15,14.0,0.0
3546,66.0,1,30,10.0,0.0
3547,63.0,1,30,11.0,0.0
3548,60.0,2,30,12.0,0.0
3549,48.0,1,30,13.0,0.0
3550,48.0,1,30,3.0,0.0
3551,36.0,21,30,14.0,0.0
3552,66.0,1,15,10.0,0.0
3553,63.0,1,15,11.0,0.0
3554,60.0,2,15,12.0,0.0
3555,48.0,1,15,13.0,0.0
3556,48.0,1,15,3.0,0.0
3557,36.0,27,15,14.0,0.0
3558,66.0,1,30,10.0,0.0
3559,63.0,1,30,11.0,0.0
3560,80.0,0,60,0.0,0.0
3561,60.0,2,30,12.0,0.0
3562,48.0,1,30,13.0,0.0
3563,48.0,1,30,3.0,0.0
3564,36.0,21,30,14.0,0.0
3565,66.0,1,15,10.0,0.0
3566,63.0,1,15,11.0,0.0
3567,60.0,2,15,12.0,0.0
3568,48.0,1,15,13.0,0.0
3569,48.0,1,15,3.0,0.0
3570,36.0,1,15,14.0,0.0
3571,66.0,1,30,10.0,0.0
3572,90.0,0,180,0.0,0.0
3573,63.0,1,30,11.0,0.0
3574,60.0,2,30,12.0,0.0
3575,48.0,1,30,13.0,0.0
3576,48.0,1,30,3.0,0.0
3577,36.0,21,30,14.0,0.0
3578,66.0,1,15,10.0,0.0
3579,63.0,1,15,11.0,0.0
3580,60.0,2,15,12.0,0.0
3581,48.0,1,15,13.0,0.0
3582,48.0,1,15,3.0,0.0
3583,36.0,27,15,14.0,0.0
3584,66.0,1,30,10.0,0.0
3585,63.0,1,30,11.0,0.0
3586,60.0,2,30,12.0,0.0
3587,48.0,1,30,13.0,0.0
3588,48.0,1,30,3.0,0.0
3589,36.0,21,30,14.0,0.0
3590,66.0,1,15,10.0,0.0
3591,63.0,1,15,11.0,0.0
3592,60.0,2,15,12.0,0.0
3593,48.0,1,15,13.0,0.0
3594,48.0,1,15,3.0,0.0
3595,36.0,27,15,14.0,0.0
3596,66.0,1,30,10.0,0.0
3597,63.0,1,30,11.0,0.0
3598,68.0,4,60,1.0,0.0
3599,60.0,2,30,12.0,0.0
3600,48.0,1,30,13.0,0.0
3601,56.0,22,60,3.0,0.0
3602,48.0,1,30,3.0,0.0
3603,36.0,21,30,14.0,0.0
3604,66.0,1,15,10.0,0.0
3605,63.0,1,15,11.0,0.0
3606,60.0,2,15,12.0,0.0
3607,48.0,1,15,13.0,0.0
3608,48.0,1,15,3.0,0.0
3609,36.0,1,15,14.0,0.0
3610,56.0,1,30,10.0,0.0
3611,65.0,0,30,10.0,0.0
3612,77.0,1,180,1.0,0.0
3613,61.0,1,30,11.0,0.0
3614,65.0,0,180,4.0,0.0
3615,61.0,2,30,12.0,0.0
3616,53.0,3,180,5.0,0.0
3617,49.0,1,30,13.0,0.0
3618,49.0,1,30,3.0,0.0
3619,65.0,22,180,3.0,0.0
3620,37.0,21,30,14.0,0.0
3621,56.0,0,15,10.0,0.0
3622,65.0,1,15,10.0,0.0
3623,61.0,1,15,11.0,0.0
3624,61.0,2,15,12.0,0.0
3625,49.0,1,15,13.0,0.0
3626,49.0,1,15,3.0,0.0
3627,37.0,27,15,14.0,0.0
3628,56.0,0,30,10.0,0.0
3629,65.0,1,30,10.0,0.0
3630,61.0,1,30,11.0,0.0
3631,61.0,2,30,12.0,0.0
3632,49.0,1,30,13.0,0.0
3633,49.0,1,30,3.0,0.0
3634,37.0,21,30,14.0,0.0
3635,65.0,0,15,10.0,0.0
3636,56.0,1,15,10.0,0.0
3637,61.0,1,15,11.0,0.0
3638,61.0,2,15,12.0,0.0
3639,49.0,1,15,13.0,0.0
3640,49.0,1,15,3.0,0.0
3641,37.0,27,15,14.0,0.0
3642,56.0,0,30,10.0,0.0
3643,65.0,1,30,10.0,0.0
3644,61.0,1,30,11.0,0.0
3645,80.0,0,60,0.0,0.0
3646,61.0,2,30,12.0,0.0
3647,49.0,1,30,13.0,0.0
3648,49.0,1,30,3.0,0.0
3649,37.0,21,30,14.0,0.0
3650,56.0,0,15,10.0,0.0
3651,65.0,1,15,10.0,0.0
3652,61.0,1,15,11.0,0.0
3653,61.0,2,15,12.0,0.0
3654,49.0,1,15,13.0,0.0
3655,49.0,1,15,3.0,0.0
3656,37.0,1,15,14.0,0.0
3657,56.0,1,30,10.0,0.0
3658,65.0,0,30,10.0,0.0
3659,89.0,26,120,0.0,0.0
3660,61.0,1,30,11.0,0.0
3661,61.0,2,30,12.0,0.0
3662,49.0,1,30,13.0,0.0
3663,49.0,1,30,3.0,0.0
3664,37.0,21,30,14.0,0.0
3665,56.0,0,15,10.0,0.0
3666,65.0,1,15,10.0,0.0
3667,61.0,1,15,11.0,0.0
3668,61.0,2,15,12.0,0.0
3669,49.0,1,15,13.0,0.0
3670,49.0,1,15,3.0,0.0
3671,37.0,27,15,14.0,0.0
3672,65.0,1,30,10.0,0.0
3673,56.0,0,30,10.0,0.0
3674,61.0,1,30,11.0,0.0
3675,61.0,2,30,12.0,0.0
3676,49.0,1,30,13.0,0.0
3677,49.0,1,30,3.0,0.0
3678,37.0,21,30,14.0,0.0
3679,65.0,1,15,10.0,0.0
3680,56.0,0,15,10.0,0.0
3681,61.0,1,15,11.0,0.0
3682,61.0,2,15,12.0,0.0
3683,49.0,1,15,13.0,0.0
3684,49.0,1,15,3.0,0.0
3685,37.0,1,15,14.0,0.0
3686,56.0,0,30,10.0,0.0
3687,65.0,1,30,10.0,0.0
3688,65.0,4,60,1.0,0.0
3689,61.0,1,30,11.0,0.0
3690,61.0,2,30,12.0,0.0
3691,49.0,1,30,13.0,0.0
3692,49.0,1,30,3.0,0.0
3693,53.0,22,60,3.0,0.0
3694,37.0,21,30,14.0,0.0
3695,56.0,0,15,10.0,0.0
3696,65.0,1,15,10.0,0.0
3697,61.0,1,15,11.0,0.0
3698,61.0,2,15,12.0,0.0
3699,49.0,1,15,13.0,0.0
3700,49.0,1,15,3.0,0.0
3701,37.0,1,15,14.0,0.0
3702,57.0,0,30,10.0,0.0
3703,65.0,1,30,10.0,0.0
3704,63.0,1,30,11.0,0.0
3705,65.0,1,180,4.0,0.0
3706,75.0,0,180,1.0,0.0
3707,60.0,2,30,12.0,0.0
3708,53.0,3,180,5.0,0.0
3709,48.0,1,30,13.0,0.0
3710,48.0,1,30,3.0,0.0
3711,63.0,22,180,3.0,0.0
3712,36.0,21,30,14.0,0.0
3713,65.0,1,15,10.0,0.0
3714,57.0,0,15,10.0,0.0
3715,63.0,1,15,11.0,0.0
3716,60.0,2,15,12.0,0.0
3717,48.0,1,15,13.0,0.0
3718,48.0,1,15,3.0,0.0
3719,36.0,27,15,14.0,0.0
3720,57.0,0,30,10.0,0.0
3721,65.0,1,30,10.0,0.0
3722,63.0,1,30,11.0,0.0
3723,60.0,2,30,12.0,0.0
3724,48.0,1,30,13.0,0.0
3725,48.0,1,30,3.0,0.0
3726,36.0,21,30,14.0,0.0
3727,57.0,1,15,10.0,0.0
3728,65.0,0,15,10.0,0.0
3729,63.0,1,15,11.0,0.0
3730,60.0,2,15,12.0,0.0
3731,48.0,1,15,13.0,0.0
3732,48.0,1,15,3.0,0.0
3733,36.0,27,15,14.0,0.0
3734,65.0,1,30,10.0,0.0
3735,57.0,0,30,10.0,0.0
3736,63.0,1,30,11.0,0.0
3737,77.0,0,60,0.0,0.0
3738,60.0,2,30,12.0,0.0
3739,48.0,1,30,13.0,0.0
3740,48.0,1,30,3.0,0.0
3741,36.0,21,30,14.0,0.0
3742,57.0,1,15,10.0,0.0
3743,65.0,0,15,10.0,0.0
3744,63.0,1,15,11.0,0.0
3745,60.0,2,15,12.0,0.0
3746,48.0,1,15,13.0,0.0
3747,48.0,1,15,3.0,0.0
3748,36.0,1,15,14.0,0.0
3749,65.0,0,30,10.0,0.0
3750,57.0,1,30,10.0,0.0
3751,87.0,26,120,0.0,0.0
3752,63.0,1,30,11.0,0.0
3753,60.0,2,30,12.0,0.0
3754,48.0,2,30,13.0,0.0
3755,36.0,21,30,14.0,0.0
3756,65.0,1,15,10.0,0.0
3757,57.0,0,15,10.0,0.0
3758,63.0,1,15,11.0,0.0
3759,60.0,2,15,12.0,0.0
3760,48.0,2,15,13.0,0.0
3761,36.0,27,15,14.0,0.0
3762,57.0,0,30,10.0,0.0
3763,65.0,1,30,10.0,0.0
3764,63.0,1,30,11.0,0.0
3765,60.0,2,30,12.0,0.0
3766,48.0,2,30,13.0,0.0
3767,36.0,21,30,14.0,0.0
3768,65.0,1,15,10.0,0.0
3769,57.0,0,15,10.0,0.0
3770,63.0,1,15,11.0,0.0
3771,60.0,2,15,12.0,0.0
3772,48.0,2,15,13.0,0.0
3773,36.0,1,15,14.0,0.0
3774,65.0,1,30,10.0,0.0
3775,57.0,0,30,10.0,0.0
3776,77.0,4,60,0.0,0.0
3777,63.0,1,30,11.0,0.0
3778,65.0,0,60,1.0,0.0
3779,60.0,2,30,12.0,0.0
3780,48.0,2,30,13.0,0.0
3781,53.0,22,60,3.0,0.0
3782,36.0,21,30,14.0,0.0
3783,57.0,0,15,10.0,0.0
3784,65.0,1,15,10.0,0.0
3785,63.0,1,15,11.0,0.0
3786,60.0,2,15,12.0,0.0
3787,48.0,2,15,13.0,0.0
3788,36.0,1,15,14.0,0.0
3789,58.0,1,30,10.0,0.0
3790,65.0,0,30,10.0,0.0
3791,65.0,0,30,4.0,0.0
3792,85.0,1,30,0.0,0.0
3793,73.0,0,30,1.0,0.0
3794,61.0,1,30,11.0,0.0
3795,58.0,2,30,12.0,0.0
3796,53.0,1,30,5.0,0.0
3797,46.0,0,30,13.0,0.0
3798,58.0,19,30,3.0,0.0
3799,61.0,0,30,3.0,0.0
3800,34.0,2,30,14.0,0.0
3801,58.0,1,15,10.0,0.0
3802,65.0,0,15,10.0,0.0
3803,61.0,1,15,11.0,0.0
3804,58.0,2,15,12.0,0.0
3805,46.0,2,15,13.0,0.0
3806,34.0,27,15,14.0,0.0
3807,58.0,0,30,10.0,0.0
3808,65.0,1,30,10.0,0.0
3809,61.0,1,30,11.0,0.0
3810,65.0,1,180,4.0,0.0
3811,58.0,2,30,12.0,0.0
3812,77.0,0,180,2.0,0.0
3813,65.0,0,180,2.0,0.0
3814,46.0,2,30,13.0,0.0
3815,34.0,21,30,14.0,0.0
3816,65.0,0,15,10.0,0.0
3817,58.0,1,15,10.0,0.0
3818,61.0,1,15,11.0,0.0
3819,58.0,2,15,12.0,0.0
3820,46.0,2,15,13.0,0.0
3821,34.0,27,15,14.0,0.0
3822,65.0,0,30,10.0,0.0
3823,58.0,1,30,10.0,0.0
3824,61.0,1,30,11.0,0.0
3825,73.0,4,60,1.0,0.0
3826,58.0,2,30,12.0,0.0
3827,46.0,2,30,13.0,0.0
3828,61.0,22,60,3.0,0.0
3829,34.0,21,30,14.0,0.0
3830,58.0,0,15,10.0,0.0
3831,65.0,1,15,10.0,0.0
3832,61.0,1,15,11.0,0.0
3833,58.0,2,15,12.0,0.0
3834,46.0,2,15,13.0,0.0
3835,34.0,1,15,14.0,0.0
3836,65.0,1,30,10.0,0.0
3837,71.0,0,60,1.0,0.0
3838,59.0,1,30,11.0,0.0
3839,53.0,2,30,12.0,0.0
3840,49.0,2,30,13.0,0.0
3841,59.0,0,60,3.0,0.0
3842,37.0,21,30,14.0,0.0
3843,65.0,1,15,10.0,0.0
3844,59.0,1,15,11.0,0.0
3845,53.0,2,15,12.0,0.0
3846,49.0,2,15,13.0,0.0
3847,37.0,1,15,14.0,0.0
3848,65.0,1,30,10.0,0.0
3849,77.0,0,15,1.0,0.0
3850,89.0,0,15,0.0,0.0
3851,59.0,1,30,11.0,0.0
3852,65.0,1,120,4.0,0.0
3853,53.0,2,30,12.0,0.0
3854,77.0,0,120,2.0,0.0
3855,65.0,0,120,2.0,0.0
3856,53.0,3,15,5.0,0.0
3857,49.0,2,30,13.0,0.0
3858,65.0,22,15,3.0,0.0
3859,37.0,21,30,14.0,0.0
3860,65.0,1,15,10.0,0.0
3861,59.0,1,15,11.0,0.0
3862,53.0,2,15,12.0,0.0
3863,49.0,2,15,13.0,0.0
3864,37.0,27,15,14.0,0.0
3865,65.0,1,30,10.0,0.0
3866,83.0,0,60,1.0,0.0
3867,59.0,1,30,11.0,0.0
3868,53.0,2,30,12.0,0.0
3869,49.0,2,30,13.0,0.0
3870,59.0,0,60,3.0,0.0
3871,37.0,21,30,14.0,0.0
3872,65.0,1,15,10.0,0.0
3873,59.0,1,15,11.0,0.0
3874,53.0,2,15,12.0,0.0
3875,49.0,2,15,13.0,0.0
3876,37.0,1,15,14.0,0.0
3877,64.0,1,60,10.0,0.0
3878,84.0,0,30,1.0,0.0
3879,88.0,0,30,0.0,0.0
3880,76.0,0,30,1.0,0.0
3881,60.0,0,30,4.0,0.0
3882,60.0,1,60,11.0,0.0
3883,48.0,0,30,5.0,0.0
3884,64.0,26,30,2.0,0.0
3885,76.0,0,30,2.0,0.0
3886,55.0,2,60,12.0,0.0
3887,48.0,1,60,13.0,0.0
3888,48.0,1,30,15.0,0.0
3889,60.0,1,60,3.0,0.0
3890,64.0,0,60,3.0,0.0
3891,36.0,25,60,14.0,0.0
3892,48.0,2,15,15.0,0.0
3893,60.0,1,30,4.0,0.0
3894,48.0,26,30,5.0,0.0
3895,48.0,0,30,15.0,0.0
3896,48.0,33,15,15.0,0.0
3897,60.0,1,30,4.0,0.0
3898,67.0,0,60,2.0,0.0
3899,48.0,26,30,5.0,0.0
3900,64.0,3,60,2.0,0.0
3901,48.0,0,30,15.0,0.0
3902,52.0,26,60,3.0,0.0
3903,55.0,0,60,3.0,0.0
3904,48.0,4,15,15.0,0.0
3905,60.0,0,30,4.0,0.0
3906,48.0,3,30,5.0,0.0
3907,68.0,0,30,2.0,0.0
3908,65.0,0,30,2.0,0.0
3909,48.0,1,30,15.0,0.0
3910,53.0,0,30,3.0,0.0
3911,56.0,23,30,3.0,0.0
3912,48.0,33,15,15.0,0.0
3913,60.0,0,30,4.0,0.0
3914,68.0,0,30,2.0,0.0
3915,65.0,0,30,2.0,0.0
3916,48.0,3,30,5.0,0.0
3917,48.0,1,30,15.0,0.0
3918,56.0,0,30,3.0,0.0
3919,53.0,23,30,3.0,0.0
3920,48.0,33,15,15.0,0.0
3921,83.0,1,60,10.0,0.0
3922,74.0,0,60,1.0,0.0
3923,83.0,1,60,0.0,0.0
3924,80.0,0,60,1.0,0.0
3925,65.0,0,60,4.0,0.0
3926,72.0,0,90,6.0,0.0
3927,60.0,0,90,6.0,0.0
3928,71.0,0,60,11.0,0.0
3929,80.0,0,60,11.0,0.0
3930,65.0,0,60,12.0,0.0
3931,71.0,2,60,2.0,0.0
3932,53.0,0,60,5.0,0.0
3933,62.0,0,60,2.0,0.0
3934,48.0,27,30,15.0,0.0
3935,53.0,1,60,13.0,0.0
3936,53.0,0,60,3.0,0.0
3937,65.0,1,60,3.0,0.0
3938,41.0,24,60,14.0,0.0
3939,48.0,2,15,15.0,0.0
3940,84.0,1,30,10.0,0.0
3941,79.0,0,30,11.0,0.0
3942,72.0,0,30,11.0,0.0
3943,76.0,0,30,1.0,0.0
3944,79.0,0,30,1.0,0.0
3945,60.0,0,30,4.0,0.0
3946,84.0,0,30,0.0,0.0
3947,64.0,0,30,12.0,0.0
3948,72.0,0,30,2.0,0.0
3949,64.0,0,30,2.0,0.0
3950,48.0,2,30,5.0,0.0
3951,48.0,1,30,13.0,0.0
3952,48.0,1,30,15.0,0.0
3953,48.0,1,30,3.0,0.0
3954,60.0,0,30,3.0,0.0
3955,36.0,22,30,14.0,0.0
3956,48.0,32,15,15.0,0.0
3957,84.0,1,30,10.0,0.0
3958,60.0,0,30,6.0,0.0
3959,72.0,0,30,6.0,0.0
3960,84.0,0,30,0.0,0.0
3961,76.0,0,30,1.0,0.0
3962,72.0,1,30,11.0,0.0
3963,79.0,0,30,1.0,0.0
3964,79.0,0,30,11.0,0.0
3965,60.0,0,30,4.0,0.0
3966,64.0,0,30,2.0,0.0
3967,72.0,0,30,2.0,0.0
3968,64.0,0,30,12.0,0.0
3969,48.0,2,30,5.0,0.0
3970,48.0,1,30,13.0,0.0
3971,48.0,0,30,15.0,0.0
3972,60.0,0,30,3.0,0.0
3973,48.0,1,30,3.0,0.0
3974,36.0,22,30,14.0,0.0
3975,48.0,33,15,15.0,0.0
3976,60.0,0,30,4.0,0.0
3977,64.0,3,60,2.0,0.0
3978,67.0,0,60,2.0,0.0
3979,48.0,26,30,5.0,0.0
3980,48.0,1,30,15.0,0.0
3981,55.0,0,60,3.0,0.0
3982,52.0,26,60,3.0,0.0
3983,48.0,4,15,15.0,0.0
3984,60.0,1,30,4.0,0.0
3985,68.0,0,30,2.0,0.0
3986,48.0,3,30,5.0,0.0
3987,65.0,0,30,2.0,0.0
3988,48.0,0,30,15.0,0.0
3989,53.0,23,30,3.0,0.0
3990,56.0,0,30,3.0,0.0
3991,48.0,33,15,15.0,0.0
3992,60.0,0,30,4.0,0.0
3993,48.0,3,30,5.0,0.0
3994,65.0,0,30,2.0,0.0
3995,68.0,0,30,2.0,0.0
3996,48.0,1,30,15.0,0.0
3997,56.0,0,30,3.0,0.0
3998,53.0,23,30,3.0,0.0
3999,48.0,33,15,15.0,0.0
4000,83.0,1,60,10.0,0.0
4001,65.0,0,60,4.0,0.0
4002,80.0,0,60,1.0,0.0
4003,60.0,0,90,6.0,0.0
4004,72.0,1,90,6.0,0.0
4005,83.0,0,60,0.0,0.0
4006,74.0,0,60,1.0,0.0
4007,80.0,1,60,11.0,0.0
4008,71.0,0,60,11.0,0.0
4009,65.0,0,60,12.0,0.0
4010,71.0,0,60,2.0,0.0
4011,62.0,0,60,2.0,0.0
4012,53.0,2,60,5.0,0.0
4013,48.0,27,30,15.0,0.0
4014,53.0,1,60,13.0,0.0
4015,53.0,1,60,3.0,0.0
4016,65.0,0,60,3.0,0.0
4017,41.0,24,60,14.0,0.0
4018,48.0,2,15,15.0,0.0
4019,84.0,1,30,10.0,0.0
4020,79.0,0,30,1.0,0.0
4021,76.0,0,30,1.0,0.0
4022,79.0,0,30,11.0,0.0
4023,84.0,0,30,0.0,0.0
4024,72.0,0,30,11.0,0.0
4025,60.0,0,30,4.0,0.0
4026,48.0,2,30,5.0,0.0
4027,64.0,0,30,2.0,0.0
4028,72.0,0,30,2.0,0.0
4029,64.0,0,30,12.0,0.0
4030,48.0,0,30,15.0,0.0
4031,48.0,1,30,13.0,0.0
4032,48.0,0,30,3.0,0.0
4033,60.0,1,30,3.0,0.0
4034,36.0,22,30,14.0,0.0
4035,48.0,33,15,15.0,0.0
4036,81.0,1,60,10.0,0.0
4037,76.0,1,60,11.0,0.0
4038,72.0,29,60,12.0,0.0
4039,48.0,27,30,15.0,0.0
4040,48.0,2,15,15.0,0.0
4041,82.0,1,40,10.0,0.0
4042,77.0,1,40,11.0,0.0
4043,74.0,18,40,12.0,0.0
4044,48.0,7,30,15.0,0.0
4045,48.0,33,15,15.0,0.0
4046,89.0,0,60,0.0,0.0
4047,80.0,1,60,1.0,0.0
4048,48.0,0,60,5.0,0.0
4049,74.0,3,60,2.0,0.0
4050,71.0,0,60,2.0,0.0
4051,48.0,27,30,15.0,0.0
4052,62.0,0,60,3.0,0.0
4053,59.0,26,60,3.0,0.0
4054,48.0,3,15,15.0,0.0
4055,60.0,0,15,4.0,0.0
4056,81.0,0,40,1.0,0.0
4057,88.0,0,40,0.0,0.0
4058,72.0,3,40,2.0,0.0
4059,48.0,0,40,5.0,0.0
4060,76.0,0,40,2.0,0.0
4061,48.0,13,30,15.0,0.0
4062,60.0,2,60,13.0,0.0
4063,64.0,10,40,3.0,0.0
4064,60.0,0,40,3.0,0.0
4065,48.0,30,60,14.0,0.0
4066,48.0,1,15,15.0,0.0
4067,78.0,1,60,10.0,0.0
4068,72.0,0,60,11.0,0.0
4069,69.0,28,60,12.0,0.0
4070,48.0,27,30,15.0,0.0
4071,60.0,1,60,13.0,0.0
4072,48.0,1,60,14.0,0.0
4073,48.0,1,15,15.0,0.0
4074,79.0,1,30,10.0,0.0
4075,74.0,0,30,11.0,0.0
4076,70.0,26,30,12.0,0.0
4077,48.0,1,30,15.0,0.0
4078,48.0,2,60,13.0,0.0
4079,36.0,30,60,14.0,0.0
4080,48.0,1,15,15.0,0.0
4081,60.0,0,60,4.0,0.0
4082,76.0,1,60,1.0,0.0
4083,85.0,0,60,0.0,0.0
4084,67.0,0,60,2.0,0.0
4085,70.0,3,60,2.0,0.0
4086,48.0,0,60,5.0,0.0
4087,48.0,27,30,15.0,0.0
4088,58.0,26,60,3.0,0.0
4089,55.0,0,60,3.0,0.0
4090,48.0,3,15,15.0,0.0
4091,84.0,0,40,0.0,0.0
4092,60.0,0,40,4.0,0.0
4093,77.0,1,40,1.0,0.0
4094,69.0,0,40,2.0,0.0
4095,48.0,0,40,5.0,0.0
4096,72.0,3,40,2.0,0.0
4097,48.0,13,30,15.0,0.0
4098,57.0,10,40,3.0,0.0
4099,60.0,0,40,3.0,0.0
4100,48.0,33,15,15.0,0.0
4101,75.0,1,60,10.0,0.0
4102,69.0,1,60,11.0,0.0
4103,66.0,29,60,12.0,0.0
4104,48.0,27,30,15.0,0.0
4105,48.0,2,15,15.0,0.0
4106,76.0,1,40,10.0,0.0
4107,70.0,1,40,11.0,0.0
4108,67.0,18,40,12.0,0.0
4109,60.0,2,60,13.0,0.0
4110,48.0,7,30,15.0,0.0
4111,48.0,30,60,14.0,0.0
4112,48.0,1,15,15.0,0.0
4113,82.0,0,60,0.0,0.0
4114,73.0,1,60,1.0,0.0
4115,60.0,1,60,4.0,0.0
4116,48.0,6,60,5.0,0.0
4117,67.0,0,60,2.0,0.0
4118,64.0,3,60,2.0,0.0
4119,60.0,2,60,13.0,0.0
4120,48.0,20,30,15.0,0.0
4121,52.0,4,60,3.0,0.0
4122,55.0,0,60,3.0,0.0
4123,48.0,0,60,14.0,0.0
4124,48.0,1,15,15.0,0.0
4125,74.0,0,40,1.0,0.0
4126,81.0,1,40,0.0,0.0
4127,60.0,1,40,4.0,0.0
4128,69.0,0,40,2.0,0.0
4129,48.0,2,40,5.0,0.0
4130,65.0,2,40,2.0,0.0
4131,48.0,7,15,15.0,0.0
4132,48.0,2,60,13.0,0.0
4133,53.0,0,40,3.0,0.0
4134,57.0,8,40,3.0,0.0
4135,36.0,4,60,14.0,0.0
4136,48.0,9,15,15.0,0.0
4137,48.0,7,15,15.0,0.0
4138,48.0,7,15,15.0,0.0
4139,48.0,2,15,15.0,0.0
4140,48.0,5,15,15.0,0.0
4141,71.0,1,60,10.0,0.0
4142,74.0,0,60,1.0,0.0
4143,60.0,1,40,4.0,0.0
4144,65.0,0,60,11.0,0.0
4145,77.0,0,60,1.0,0.0
4146,83.0,1,60,0.0,0.0
4147,74.0,3,60,2.0,0.0
4148,71.0,0,60,2.0,0.0
4149,48.0,1,40,5.0,0.0
4150,62.0,0,60,12.0,0.0
4151,65.0,0,60,3.0,0.0
4152,68.0,5,60,3.0,0.0
4153,48.0,6,15,15.0,0.0
4154,48.0,4,15,15.0,0.0
4155,48.0,6,15,15.0,0.0
4156,48.0,7,15,15.0,0.0
4157,48.0,5,15,15.0,0.0
4158,48.0,0,15,15.0,0.0
4159,72.0,1,40,10.0,0.0
4160,84.0,1,40,0.0,0.0
4161,67.0,1,40,11.0,0.0
4162,72.0,0,40,1.0,0.0
4163,76.0,0,40,1.0,0.0
4164,60.0,0,40,4.0,0.0
4165,72.0,3,40,2.0,0.0
4166,64.0,1,40,12.0,0.0
4167,76.0,0,40,2.0,0.0
4168,48.0,2,40,5.0,0.0
4169,48.0,7,15,15.0,0.0
4170,64.0,0,40,3.0,0.0
4171,67.0,0,40,3.0,0.0
4172,48.0,10,15,15.0,0.0
4173,48.0,6,15,15.0,0.0
4174,48.0,4,15,15.0,0.0
4175,48.0,2,15,15.0,0.0
4176,48.0,7,15,15.0,0.0
4177,48.0,9,15,15.0,0.0
4178,69.0,1,60,10.0,0.0
4179,81.0,1,60,0.0,0.0
4180,63.0,0,60,11.0,0.0
4181,60.0,1,40,4.0,0.0
4182,75.0,0,60,1.0,0.0
4183,69.0,0,60,1.0,0.0
4184,48.0,1,40,5.0,0.0
4185,72.0,0,60,2.0,0.0
4186,69.0,0,60,2.0,0.0
4187,60.0,1,60,12.0,0.0
4188,48.0,7,15,15.0,0.0
4189,66.0,5,60,3.0,0.0
4190,63.0,0,60,3.0,0.0
4191,48.0,9,15,15.0,0.0
4192,48.0,6,15,15.0,0.0
4193,48.0,6,15,15.0,0.0
4194,48.0,8,15,15.0,0.0
4195,48.0,4,15,15.0,0.0
4196,48.0,2,15,15.0,0.0
4197,70.0,1,40,10.0,0.0
4198,74.0,1,40,1.0,0.0
4199,70.0,0,40,1.0,0.0
4200,65.0,0,40,11.0,0.0
4201,60.0,1,40,4.0,0.0
4202,82.0,0,40,0.0,0.0
4203,70.0,0,40,2.0,0.0
4204,62.0,0,40,12.0,0.0
4205,48.0,3,40,5.0,0.0
4206,74.0,3,40,2.0,0.0
4207,60.0,2,30,13.0,0.0
4208,48.0,7,15,15.0,0.0
4209,62.0,0,40,3.0,0.0
4210,65.0,1,40,3.0,0.0
4211,48.0,3,30,14.0,0.0
4212,48.0,9,15,15.0,0.0
4213,48.0,8,15,15.0,0.0
4214,48.0,0,15,15.0,0.0
4215,48.0,0,15,15.0,0.0
4216,48.0,6,15,15.0,0.0
4217,48.0,9,15,15.0,0.0
4218,48.0,7,15,15.0,0.0
4219,68.0,1,60,10.0,0.0
4220,60.0,1,40,4.0,0.0
4221,65.0,5,120,11.0,0.0
4222,80.0,1,60,0.0,0.0
4223,77.0,0,60,1.0,0.0
4224,80.0,0,60,1.0,0.0
4225,74.0,0,60,2.0,0.0
4226,71.0,0,60,2.0,0.0
4227,48.0,1,40,5.0,0.0
4228,59.0,0,60,12.0,0.0
4229,60.0,2,30,13.0,0.0
4230,65.0,1,90,3.0,0.0
4231,48.0,7,15,15.0,0.0
4232,62.0,6,60,3.0,0.0
4233,48.0,5,30,14.0,0.0
4234,48.0,8,15,15.0,0.0
4235,48.0,6,15,15.0,0.0
4236,48.0,2,15,15.0,0.0
4237,48.0,5,15,15.0,0.0
4238,48.0,9,15,15.0,0.0
4239,48.0,3,15,15.0,0.0
4240,69.0,1,30,10.0,0.0
4241,81.0,0,30,0.0,0.0
4242,81.0,0,30,1.0,0.0
4243,77.0,0,30,1.0,0.0
4244,60.0,1,30,4.0,0.0
4245,48.0,3,30,5.0,0.0
4246,72.0,0,30,2.0,0.0
4247,69.0,2,30,2.0,0.0
4248,60.0,0,30,12.0,0.0
4249,60.0,1,30,13.0,0.0
4250,48.0,7,15,15.0,0.0
4251,60.0,7,60,3.0,0.0
4252,48.0,6,30,14.0,0.0
4253,48.0,6,15,15.0,0.0
4254,48.0,1,15,15.0,0.0
4255,60.0,1,30,4.0,0.0
4256,48.0,5,30,5.0,0.0
4257,48.0,0,30,12.0,0.0
4258,60.0,0,30,12.0,0.0
4259,48.0,5,15,15.0,0.0
4260,48.0,0,15,15.0,0.0
4261,78.0,1,30,10.0,0.0
4262,66.0,0,30,1.0,0.0
4263,84.0,0,30,0.0,0.0
4264,66.0,0,30,11.0,0.0
4265,78.0,1,30,1.0,0.0
4266,72.0,0,40,6.0,0.0
4267,60.0,4,40,6.0,0.0
4268,60.0,1,30,4.0,0.0
4269,48.0,0,30,12.0,0.0
4270,60.0,0,30,12.0,0.0
4271,48.0,3,30,5.0,0.0
4272,66.0,0,30,2.0,0.0
4273,78.0,2,30,2.0,0.0
4274,57.0,1,30,13.0,0.0
4275,57.0,1,30,3.0,0.0
4276,45.0,6,30,14.0,0.0
4277,48.0,4,15,15.0,0.0
4278,48.0,0,15,15.0,0.0
4279,60.0,1,30,4.0,0.0
4280,48.0,0,30,5.0,0.0
4281,48.0,0,30,12.0,0.0
4282,60.0,0,30,12.0,0.0
4283,48.0,1,15,15.0,0.0
4284,60.0,5,15,6.0,0.0
4285,72.0,0,15,6.0,0.0
4286,48.0,1,15,15.0,0.0
4287,79.0,1,30,10.0,0.0
4288,67.0,0,30,11.0,0.0
4289,60.0,4,40,6.0,0.0
4290,72.0,0,40,6.0,0.0
4291,60.0,1,30,4.0,0.0
4292,84.0,0,30,0.0,0.0
4293,79.0,1,30,1.0,0.0
4294,67.0,0,30,1.0,0.0
4295,60.0,0,30,12.0,0.0
4296,48.0,3,30,5.0,0.0
4297,48.0,0,30,12.0,0.0
4298,79.0,0,30,2.0,0.0
4299,67.0,0,30,2.0,0.0
4300,48.0,10,15,15.0,0.0
4301,58.0,1,30,13.0,0.0
4302,58.0,1,30,3.0,0.0
4303,46.0,6,30,14.0,0.0
4304,48.0,7,15,15.0,0.0
4305,48.0,0,15,15.0,0.0
4306,48.0,2,15,15.0,0.0
4307,60.0,1,30,4.0,0.0
4308,48.0,0,30,5.0,0.0
4309,48.0,1,30,12.0,0.0
4310,60.0,0,30,12.0,0.0
4311,48.0,1,15,15.0,0.0
4312,60.0,6,15,6.0,0.0
4313,72.0,0,15,6.0,0.0
4314,48.0,1,15,15.0,0.0
4315,48.0,7,15,15.0,0.0
4316,76.0,1,30,10.0,0.0
4317,76.0,0,30,1.0,0.0
4318,60.0,1,30,4.0,0.0
4319,64.0,1,30,11.0,0.0
4320,84.0,0,30,0.0,0.0
4321,60.0,0,40,6.0,0.0
4322,72.0,5,40,6.0,0.0
4323,64.0,0,30,1.0,0.0
4324,76.0,2,30,2.0,0.0
4325,48.0,0,30,5.0,0.0
4326,64.0,0,30,2.0,0.0
4327,48.0,0,30,12.0,0.0
4328,60.0,3,30,12.0,0.0
4329,55.0,1,30,13.0,0.0
4330,55.0,1,30,3.0,0.0
4331,48.0,7,15,15.0,0.0
4332,43.0,6,30,14.0,0.0
4333,48.0,8,15,15.0,0.0
4334,48.0,0,15,15.0,0.0
4335,48.0,0,15,15.0,0.0
4336,60.0,1,30,4.0,0.0
4337,48.0,0,30,12.0,0.0
4338,60.0,1,30,12.0,0.0
4339,48.0,0,30,5.0,0.0
4340,48.0,1,15,15.0,0.0
4341,72.0,4,15,6.0,0.0
4342,60.0,0,15,6.0,0.0
4343,48.0,6,15,15.0,0.0
4344,48.0,9,15,15.0,0.0
4345,77.0,1,30,10.0,0.0
4346,65.0,1,30,11.0,0.0
4347,77.0,0,30,1.0,0.0
4348,65.0,0,30,1.0,0.0
4349,84.0,0,30,0.0,0.0
4350,60.0,0,40,6.0,0.0
4351,60.0,1,30,4.0,0.0
4352,72.0,3,40,6.0,0.0
4353,60.0,0,30,12.0,0.0
4354,48.0,3,30,5.0,0.0
4355,48.0,0,30,12.0,0.0
4356,65.0,2,30,2.0,0.0
4357,77.0,0,30,2.0,0.0
4358,56.0,1,30,13.0,0.0
4359,56.0,1,30,3.0,0.0
4360,48.0,8,15,15.0,0.0
4361,44.0,4,30,14.0,0.0
4362,48.0,6,15,15.0,0.0
4363,48.0,0,15,15.0,0.0
4364,60.0,1,30,4.0,0.0
4365,60.0,1,30,12.0,0.0
4366,48.0,0,30,5.0,0.0
4367,48.0,0,30,12.0,0.0
4368,48.0,3,15,15.0,0.0
4369,72.0,0,15,6.0,0.0
4370,60.0,4,15,6.0,0.0
4371,48.0,2,15,15.0,0.0
4372,48.0,9,15,15.0,0.0
4373,78.0,1,30,10.0,0.0
4374,60.0,1,30,4.0,0.0
4375,84.0,0,30,0.0,0.0
4376,66.0,1,30,11.0,0.0
4377,72.0,3,40,6.0,0.0
4378,60.0,0,40,6.0,0.0
4379,78.0,0,30,1.0,0.0
4380,66.0,0,30,1.0,0.0
4381,66.0,0,30,2.0,0.0
4382,78.0,2,30,2.0,0.0
4383,60.0,3,30,12.0,0.0
4384,48.0,0,30,12.0,0.0
4385,48.0,0,30,5.0,0.0
4386,57.0,1,30,13.0,0.0
4387,48.0,6,15,15.0,0.0
4388,57.0,1,30,3.0,0.0
4389,45.0,6,30,14.0,0.0
4390,48.0,7,15,15.0,0.0
4391,48.0,2,15,15.0,0.0
4392,48.0,0,15,15.0,0.0
4393,60.0,1,30,4.0,0.0
4394,60.0,1,30,12.0,0.0
4395,48.0,0,30,12.0,0.0
4396,48.0,0,30,5.0,0.0
4397,48.0,1,15,15.0,0.0
4398,72.0,0,15,6.0,0.0
4399,60.0,122,15,6.0,0.0
4400,48.0,0,15,15.0,0.0
4401,72.0,61,120,10.0,0.0
4402,64.0,0,120,10.0,0.0
4403,79.0,21,210,10.0,0.0
4404,72.0,0,180,11.0,0.0
4405,79.0,1,180,11.0,0.0
4406,64.0,0,180,11.0,0.0
4407,72.0,0,180,6.0,0.0
4408,84.0,0,180,0.0,0.0
4409,60.0,0,180,6.0,0.0
4410,79.0,0,180,1.0,0.0
4411,67.0,0,180,1.0,0.0
4412,60.0,0,180,4.0,0.0
4413,48.0,0,180,5.0,0.0
4414,60.0,0,180,12.0,0.0
4415,48.0,2,180,12.0,0.0
4416,79.0,0,180,2.0,0.0
4417,67.0,0,180,2.0,0.0
4418,58.0,0,180,13.0,0.0
4419,48.0,1,180,15.0,0.0
4420,58.0,1,180,3.0,0.0
4421,46.0,26,180,14.0,0.0
4422,78.0,30,15,10.0,0.0
4423,79.0,30,20,10.0,0.0
4424,78.0,30,15,10.0,0.0
4425,79.0,30,20,10.0,0.0
4426,81.0,127,15,10.0,0.0
4427,82.0,21,210,10.0,0.0
4428,72.0,0,120,10.0,0.0
4429,64.0,61,120,10.0,0.0
4430,82.0,0,180,1.0,0.0
4431,72.0,0,180,11.0,0.0
4432,60.0,0,180,6.0,0.0
4433,72.0,0,180,6.0,0.0
4434,64.0,0,180,11.0,0.0
4435,79.0,0,180,1.0,0.0
4436,82.0,0,180,0.0,0.0
4437,67.0,1,180,4.0,0.0
4438,82.0,0,180,11.0,0.0
4439,70.0,0,180,2.0,0.0
4440,79.0,0,180,2.0,0.0
4441,60.0,0,180,5.0,0.0
4442,64.0,0,180,12.0,0.0
4443,55.0,0,180,12.0,0.0
4444,48.0,2,180,12.0,0.0
4445,48.0,0,180,15.0,0.0
4446,48.0,1,180,13.0,0.0
4447,48.0,1,180,3.0,0.0
4448,36.0,26,180,14.0,0.0
4449,81.0,30,15,10.0,0.0
4450,79.0,30,20,10.0,0.0
4451,77.0,30,15,10.0,0.0
4452,76.0,30,20,10.0,0.0
4453,74.0,188,15,10.0,0.0
4454,72.0,20,210,10.0,0.0
4455,79.0,4,60,1.0,0.0
4456,64.0,26,60,3.0,0.0
4457,82.0,4,30,1.0,0.0
4458,67.0,5,30,3.0,0.0
4459,71.0,45,15,10.0,0.0
4460,72.0,15,40,10.0,0.0
4461,71.0,45,15,10.0,0.0
4462,72.0,10,40,10.0,0.0
4463,79.0,4,60,1.0,0.0
4464,64.0,26,60,3.0,0.0
4465,71.0,6,15,10.0,0.0
4466,72.0,55,120,10.0,0.0
4467,82.0,4,30,1.0,0.0
4468,67.0,85,30,3.0,0.0
4469,73.0,35,60,10.0,0.0
4470,76.0,25,30,10.0,0.0
4471,74.0,35,30,10.0,0.0
4472,72.0,25,30,10.0,0.0
4473,70.0,35,30,10.0,0.0
4474,69.0,25,30,10.0,0.0
4475,60.0,41,60,11.0,0.0
4476,67.0,6,30,10.0,0.0
4477,65.0,19,60,10.0,0.0
4478,65.0,13,40,11.0,0.0
4479,57.0,2,15,13.0,0.0
4480,58.0,3,15,13.0,0.0
4481,65.0,5,40,11.0,0.0
4482,60.0,25,15,13.0,0.0
4483,58.0,30,15,13.0,0.0
4484,65.0,18,60,11.0,0.0
4485,57.0,30,15,13.0,0.0
4486,55.0,12,15,13.0,0.0
4487,69.0,5,40,11.0,0.0
4488,53.0,25,15,13.0,0.0
4489,52.0,30,15,13.0,0.0
4490,69.0,5,40,11.0,0.0
4491,50.0,25,15,13.0,0.0
4492,48.0,30,15,13.0,0.0
4493,69.0,18,60,11.0,0.0
4494,46.0,30,15,13.0,0.0
4495,45.0,12,15,13.0,0.0
4496,70.0,5,40,11.0,0.0
4497,43.0,25,15,13.0,0.0
4498,42.0,30,15,13.0,0.0
4499,70.0,16,30,11.0,0.0
4500,43.0,14,15,13.0,0.0
4501,45.0,6,15,13.0,0.0
4502,69.0,24,15,11.0,0.0
4503,67.0,21,30,11.0,0.0
4504,46.0,9,15,13.0,0.0
4505,47.0,6,15,13.0,0.0
4506,65.0,24,15,11.0,0.0
4507,64.0,5,40,11.0,0.0
4508,48.0,25,15,13.0,0.0
4509,55.0,30,15,13.0,0.0
4510,64.0,5,40,11.0,0.0
4511,57.0,25,15,13.0,0.0
4512,59.0,30,15,13.0,0.0
4513,64.0,28,60,11.0,0.0
4514,60.0,30,15,13.0,0.0
4515,58.0,12,15,13.0,0.0
4516,65.0,28,60,11.0,0.0
4517,57.0,30,30,13.0,0.0
4518,60.0,24,300,3.0,0.0
4519,48.0,2,30,13.0,0.0
4520,67.0,28,60,11.0,0.0
4521,55.0,30,30,13.0,0.0
4522,48.0,2,30,13.0,0.0
4523,69.0,3,60,11.0,0.0
4524,53.0,27,30,13.0,0.0
4525,48.0,30,30,13.0,0.0
4526,70.0,25,90,11.0,0.0
4527,52.0,30,30,13.0,0.0
4528,48.0,30,30,13.0,0.0
4529,52.0,2,30,13.0,0.0
4530,72.0,3,30,11.0,0.0
4531,48.0,6,30,13.0,0.0
4532,69.0,22,40,11.0,0.0
4533,53.0,3,60,12.0,0.0
4534,53.0,8,30,13.0,0.0
4535,59.0,14,60,3.0,0.0
4536,48.0,3,30,13.0,0.0
4537,67.0,10,20,11.0,0.0
4538,60.0,1,40,12.0,0.0
4539,52.0,15,30,13.0,0.0
4540,60.0,1,40,3.0,0.0
4541,76.0,0,15,10.0,0.0
4542,72.0,9,15,11.0,0.0
4543,48.0,16,30,13.0,0.0
4544,77.0,1,15,10.0,0.0
4545,74.0,3,15,11.0,0.0
4546,79.0,1,15,10.0,0.0
4547,76.0,13,15,11.0,0.0
4548,60.0,1,40,12.0,0.0
4549,52.0,15,30,13.0,0.0
4550,60.0,1,40,3.0,0.0
4551,36.0,9,60,14.0,0.0
4552,77.0,0,15,10.0,0.0
4553,74.0,13,15,11.0,0.0
4554,55.0,7,30,13.0,0.0
4555,76.0,1,15,10.0,0.0
4556,72.0,29,15,11.0,0.0
4557,60.0,2,60,12.0,0.0
4558,60.0,1,60,13.0,0.0
4559,60.0,10,60,3.0,0.0
4560,74.0,1,15,10.0,0.0
4561,71.0,16,15,11.0,0.0
4562,72.0,1,15,10.0,0.0
4563,69.0,28,15,11.0,0.0
4564,64.0,0,40,12.0,0.0
4565,64.0,1,40,3.0,0.0
4566,71.0,1,15,10.0,0.0
4567,67.0,29,15,11.0,0.0
4568,69.0,1,15,10.0,0.0
4569,65.0,28,15,11.0,0.0
4570,64.0,0,40,12.0,0.0
4571,60.0,2,60,13.0,0.0
4572,64.0,1,40,3.0,0.0
4573,48.0,9,60,14.0,0.0
4574,67.0,1,15,10.0,0.0
4575,64.0,18,15,11.0,0.0
4576,65.0,1,15,10.0,0.0
4577,62.0,29,15,11.0,0.0
4578,64.0,3,60,12.0,0.0
4579,64.0,10,60,3.0,0.0
4580,64.0,1,15,10.0,0.0
4581,60.0,16,15,11.0,0.0
4582,62.0,1,15,10.0,0.0
4583,59.0,29,15,11.0,0.0
4584,65.0,0,40,12.0,0.0
4585,65.0,15,60,3.0,0.0
4586,71.0,1,15,10.0,0.0
4587,67.0,14,15,11.0,0.0
4588,71.0,1,15,10.0,0.0
4589,67.0,12,15,11.0,0.0
4590,65.0,16,30,12.0,0.0
4591,43.0,2,60,13.0,0.0
4592,65.0,1,20,3.0,0.0
4593,31.0,9,60,14.0,0.0
4594,72.0,1,15,10.0,0.0
4595,69.0,10,15,11.0,0.0
4596,64.0,2,15,12.0,0.0
4597,64.0,6,15,3.0,0.0
4598,74.0,1,15,10.0,0.0
4599,71.0,12,15,11.0,0.0
4600,62.0,16,30,12.0,0.0
4601,62.0,1,20,3.0,0.0
4602,76.0,1,15,10.0,0.0
4603,72.0,10,15,11.0,0.0
4604,60.0,2,15,12.0,0.0
4605,60.0,17,15,3.0,0.0
4606,77.0,1,15,10.0,0.0
4607,74.0,28,15,11.0,0.0
4608,59.0,0,40,12.0,0.0
4609,43.0,2,60,13.0,0.0
4610,59.0,1,40,3.0,0.0
4611,31.0,9,60,14.0,0.0
4612,76.0,1,15,10.0,0.0
4613,73.0,18,15,11.0,0.0
4614,77.0,1,15,10.0,0.0
4615,74.0,28,15,11.0,0.0
4616,59.0,0,40,12.0,0.0
4617,59.0,1,40,3.0,0.0
4618,76.0,1,15,10.0,0.0
4619,73.0,29,15,11.0,0.0
4620,77.0,1,15,10.0,0.0
4621,74.0,29,15,11.0,0.0
4622,59.0,2,60,12.0,0.0
4623,43.0,1,60,13.0,0.0
4624,59.0,0,60,3.0,0.0
4625,43.0,1,60,3.0,0.0
4626,31.0,9,60,14.0,0.0
4627,79.0,1,15,10.0,0.0
4628,76.0,16,15,11.0,0.0
4629,76.0,10,15,10.0,0.0
4630,79.0,14,240,1.0,0.0
4631,72.0,14,60,11.0,0.0
4632,60.0,0,40,12.0,0.0
4633,48.0,2,40,13.0,0.0
4634,48.0,1,40,3.0,0.0
4635,60.0,19,20,3.0,0.0
4636,36.0,6,40,14.0,0.0
4637,76.0,2,15,10.0,0.0
4638,77.0,6,15,10.0,0.0
4639,79.0,13,15,10.0,0.0
4640,60.0,10,30,12.0,0.0
4641,48.0,2,40,13.0,0.0
4642,48.0,1,40,3.0,0.0
4643,60.0,6,20,3.0,0.0
4644,36.0,7,40,14.0,0.0
4645,76.0,1,15,10.0,0.0
4646,64.0,1,15,11.0,0.0
4647,65.0,2,15,11.0,0.0
4648,59.0,0,15,12.0,0.0
4649,59.0,18,15,3.0,0.0
4650,72.0,4,60,10.0,0.0
4651,67.0,12,15,11.0,0.0
4652,60.0,17,30,12.0,0.0
4653,48.0,1,60,13.0,0.0
4654,48.0,1,60,3.0,0.0
4655,60.0,1,20,3.0,0.0
4656,36.0,29,60,14.0,0.0
4657,64.0,10,15,11.0,0.0
4658,62.0,2,15,12.0,0.0
4659,62.0,2,15,3.0,0.0
4660,60.0,0,60,11.0,0.0
4661,58.0,0,40,12.0,0.0
4662,52.0,2,40,13.0,0.0
4663,52.0,1,40,3.0,0.0
4664,58.0,9,30,3.0,0.0
4665,40.0,6,40,14.0,0.0
4666,79.0,2,15,10.0,0.0
4667,81.0,6,15,10.0,0.0
4668,82.0,13,15,10.0,0.0
4669,76.0,15,60,1.0,0.0
4670,58.0,7,30,12.0,0.0
4671,52.0,2,40,13.0,0.0
4672,52.0,1,40,3.0,0.0
4673,58.0,6,20,3.0,0.0
4674,40.0,7,40,14.0,0.0
4675,79.0,2,15,10.0,0.0
4676,60.0,3,15,11.0,0.0
4677,60.0,2,15,11.0,0.0
4678,57.0,0,15,12.0,0.0
4679,57.0,3,15,3.0,0.0
4680,76.0,1,60,10.0,0.0
4681,60.0,1,60,4.0,0.0
4682,72.0,0,60,1.0,0.0
4683,72.0,12,15,11.0,0.0
4684,58.0,17,30,12.0,0.0
4685,60.0,2,60,5.0,0.0
4686,55.0,1,60,13.0,0.0
4687,58.0,1,20,3.0,0.0
4688,52.0,1,60,3.0,0.0
4689,43.0,11,60,14.0,0.0
4690,60.0,10,15,11.0,0.0
4691,60.0,2,15,12.0,0.0
4692,60.0,2,15,3.0,0.0
4693,65.0,1,60,10.0,0.0
4694,77.0,0,40,1.0,0.0
4695,69.0,1,40,1.0,0.0
4696,65.0,0,40,4.0,0.0
4697,65.0,4,60,11.0,0.0
4698,57.0,6,40,5.0,0.0
4699,57.0,2,15,12.0,0.0
4700,53.0,2,15,13.0,0.0
4701,53.0,3,30,3.0,0.0
4702,41.0,11,15,14.0,0.0
4703,69.0,2,15,12.0,0.0
4704,57.0,1,15,13.0,0.0
4705,57.0,5,15,3.0,0.0
4706,45.0,1,15,14.0,0.0
4707,70.0,2,15,12.0,0.0
4708,58.0,2,15,13.0,0.0
4709,58.0,15,15,3.0,0.0
4710,46.0,1,15,14.0,0.0
4711,77.0,1,40,10.0,0.0
4712,69.0,0,40,1.0,0.0
4713,77.0,1,40,1.0,0.0
4714,69.0,0,40,11.0,0.0
4715,65.0,1,40,11.0,0.0
4716,65.0,0,40,4.0,0.0
4717,72.0,2,15,12.0,0.0
4718,57.0,4,40,5.0,0.0
4719,60.0,1,15,13.0,0.0
4720,60.0,1,15,3.0,0.0
4721,48.0,19,15,14.0,0.0
4722,70.0,2,15,12.0,0.0
4723,58.0,1,15,13.0,0.0
4724,58.0,1,15,3.0,0.0
4725,46.0,26,15,14.0,0.0
4726,84.0,1,60,0.0,0.0
4727,77.0,0,60,1.0,0.0
4728,69.0,0,60,1.0,0.0
4729,65.0,0,60,4.0,0.0
4730,57.0,0,60,5.0,0.0
4731,69.0,2,15,12.0,0.0
4732,65.0,15,60,2.0,0.0
4733,60.0,0,60,2.0,0.0
4734,57.0,1,15,13.0,0.0
4735,57.0,1,15,3.0,0.0
4736,45.0,26,15,14.0,0.0
4737,67.0,2,15,12.0,0.0
4738,55.0,1,15,13.0,0.0
4739,55.0,1,15,3.0,0.0
4740,43.0,10,15,14.0,0.0
4741,77.0,0,40,1.0,0.0
4742,69.0,0,40,4.0,0.0
4743,81.0,0,40,1.0,0.0
4744,89.0,1,40,0.0,0.0
4745,65.0,0,40,5.0,0.0
4746,69.0,0,40,2.0,0.0
4747,65.0,3,40,2.0,0.0
4748,65.0,2,15,12.0,0.0
4749,53.0,1,15,13.0,0.0
4750,53.0,1,15,3.0,0.0
4751,60.0,3,40,3.0,0.0
4752,41.0,19,15,14.0,0.0
4753,64.0,2,15,12.0,0.0
4754,52.0,1,15,13.0,0.0
4755,52.0,1,15,3.0,0.0
4756,40.0,26,15,14.0,0.0
4757,81.0,1,40,10.0,0.0
4758,89.0,0,40,0.0,0.0
4759,69.0,0,40,11.0,0.0
4760,77.0,1,40,11.0,0.0
4761,77.0,0,40,1.0,0.0
4762,81.0,0,40,1.0,0.0
4763,69.0,1,40,4.0,0.0
4764,62.0,2,15,12.0,0.0
4765,65.0,0,40,2.0,0.0
4766,65.0,0,40,5.0,0.0
4767,69.0,3,40,2.0,0.0
4768,50.0,1,15,13.0,0.0
4769,50.0,1,15,3.0,0.0
4770,60.0,1,40,3.0,0.0
4771,38.0,19,15,14.0,0.0
4772,60.0,2,15,12.0,0.0
4773,48.0,1,15,13.0,0.0
4774,48.0,1,15,3.0,0.0
4775,36.0,26,15,14.0,0.0
4776,89.0,1,60,0.0,0.0
4777,77.0,0,60,1.0,0.0
4778,81.0,0,60,1.0,0.0
4779,60.0,0,60,4.0,0.0
4780,69.0,0,60,2.0,0.0
4781,65.0,3,60,2.0,0.0
4782,58.0,2,15,12.0,0.0
4783,48.0,0,60,5.0,0.0
4784,46.0,1,15,13.0,0.0
4785,60.0,12,60,3.0,0.0
4786,46.0,1,15,3.0,0.0
4787,34.0,26,15,14.0,0.0
4788,57.0,2,15,12.0,0.0
4789,45.0,1,15,13.0,0.0
4790,45.0,1,15,3.0,0.0
4791,33.0,10,15,14.0,0.0
4792,88.0,9,30,0.0,0.0
4793,76.0,1,40,1.0,0.0
4794,82.0,0,30,1.0,0.0
4795,55.0,2,15,12.0,0.0
4796,64.0,3,40,2.0,0.0
4797,70.0,0,40,2.0,0.0
4798,48.0,15,180,5.0,0.0
4799,43.0,1,15,13.0,0.0
4800,58.0,3,40,3.0,0.0
4801,43.0,1,15,3.0,0.0
4802,31.0,10,15,14.0,0.0
4803,54.0,2,15,12.0,0.0
4804,42.0,1,15,13.0,0.0
4805,42.0,1,15,3.0,0.0
4806,30.0,26,15,14.0,0.0
4807,82.0,1,40,10.0,0.0
4808,82.0,0,20,0.0,0.0
4809,82.0,21,20,1.0,0.0
4810,70.0,1,40,11.0,0.0
4811,76.0,0,40,11.0,0.0
4812,70.0,0,40,1.0,0.0
4813,55.0,2,15,12.0,0.0
4814,64.0,0,40,2.0,0.0
4815,58.0,1,40,2.0,0.0
4816,43.0,1,15,13.0,0.0
4817,55.0,1,40,3.0,0.0
4818,43.0,1,15,3.0,0.0
4819,31.0,3,15,14.0,0.0
4820,57.0,2,15,12.0,0.0
4821,45.0,1,15,13.0,0.0
4822,45.0,0,15,3.0,0.0
4823,33.0,2,15,14.0,0.0
4824,81.0,0,15,1.0,0.0
4825,81.0,23,15,0.0,0.0
4826,79.0,0,20,0.0,0.0
4827,70.0,0,40,1.0,0.0
4828,79.0,23,20,1.0,0.0
4829,58.0,0,40,2.0,0.0
4830,64.0,0,40,2.0,0.0
4831,58.0,2,15,12.0,0.0
4832,46.0,1,15,13.0,0.0
4833,46.0,1,15,3.0,0.0
4834,55.0,1,40,3.0,0.0
4835,34.0,3,15,14.0,0.0
4836,59.0,2,15,12.0,0.0
4837,47.0,1,15,13.0,0.0
4838,47.0,1,15,3.0,0.0
4839,35.0,2,15,14.0,0.0
4840,77.0,0,15,1.0,0.0
4841,77.0,7,15,0.0,0.0
4842,76.0,0,40,0.0,0.0
4843,60.0,1,15,4.0,0.0
4844,76.0,7,40,1.0,0.0
4845,70.0,4,60,1.0,0.0
4846,58.0,2,60,2.0,0.0
4847,48.0,15,120,5.0,0.0
4848,60.0,2,15,12.0,0.0
4849,64.0,0,120,2.0,0.0
4850,48.0,1,15,13.0,0.0
4851,48.0,1,15,3.0,0.0
4852,36.0,19,15,14.0,0.0
4853,67.0,2,15,12.0,0.0
4854,55.0,1,15,13.0,0.0
4855,55.0,1,15,3.0,0.0
4856,43.0,8,15,14.0,0.0
4857,76.0,1,40,10.0,0.0
4858,67.0,0,40,10.0,0.0
4859,67.0,1,60,1.0,0.0
4860,64.0,0,40,11.0,0.0
4861,76.0,5,40,1.0,0.0
4862,72.0,1,40,11.0,0.0
4863,76.0,0,40,0.0,0.0
4864,55.0,2,60,2.0,0.0
4865,69.0,2,15,12.0,0.0
4866,57.0,1,15,13.0,0.0
4867,57.0,1,15,3.0,0.0
4868,45.0,19,15,14.0,0.0
4869,71.0,2,15,12.0,0.0
4870,59.0,1,15,13.0,0.0
4871,59.0,1,15,3.0,0.0
4872,47.0,7,15,14.0,0.0
4873,76.0,0,60,0.0,0.0
4874,76.0,1,60,1.0,0.0
4875,67.0,0,60,1.0,0.0
4876,60.0,0,60,4.0,0.0
4877,60.0,2,60,2.0,0.0
4878,64.0,0,60,2.0,0.0
4879,72.0,2,15,12.0,0.0
4880,60.0,2,15,13.0,0.0
4881,48.0,26,15,14.0,0.0
4882,70.0,2,15,12.0,0.0
4883,58.0,1,15,13.0,0.0
4884,58.0,1,15,3.0,0.0
4885,46.0,8,15,14.0,0.0
4886,72.0,0,60,1.0,0.0
4887,77.0,1,60,0.0,0.0
4888,77.0,0,60,1.0,0.0
4889,60.0,0,60,4.0,0.0
4890,65.0,0,60,2.0,0.0
4891,60.0,0,60,2.0,0.0
4892,48.0,3,15,5.0,0.0
4893,69.0,2,20,12.0,0.0
4894,57.0,2,20,13.0,0.0
4895,60.0,15,15,3.0,0.0
4896,57.0,4,15,3.0,0.0
4897,45.0,22,20,14.0,0.0
4898,84.0,1,20,10.0,0.0
4899,72.0,3,20,11.0,0.0
4900,60.0,2,20,12.0,0.0
4901,48.0,2,20,13.0,0.0
4902,48.0,0,15,3.0,0.0
4903,36.0,3,20,14.0,0.0
4904,84.0,0,20,10.0,0.0
4905,72.0,3,20,11.0,0.0
4906,76.0,1,60,1.0,0.0
4907,79.0,0,60,1.0,0.0
4908,60.0,0,60,4.0,0.0
4909,79.0,0,60,0.0,0.0
4910,67.0,0,60,2.0,0.0
4911,48.0,3,15,5.0,0.0
4912,67.0,2,20,12.0,0.0
4913,64.0,3,60,2.0,0.0
4914,55.0,2,20,13.0,0.0
4915,58.0,15,60,3.0,0.0
4916,55.0,1,15,3.0,0.0
4917,43.0,22,20,14.0,0.0
4918,84.0,0,20,10.0,0.0
4919,72.0,3,20,11.0,0.0
4920,60.0,2,20,12.0,0.0
4921,48.0,2,20,13.0,0.0
4922,48.0,1,15,3.0,0.0
4923,36.0,3,20,14.0,0.0
4924,84.0,1,20,10.0,0.0
4925,60.0,1,60,4.0,0.0
4926,81.0,1,60,1.0,0.0
4927,77.0,0,60,1.0,0.0
4928,72.0,3,20,11.0,0.0
4929,81.0,0,60,0.0,0.0
4930,48.0,0,15,5.0,0.0
4931,65.0,2,60,2.0,0.0
4932,69.0,0,60,2.0,0.0
4933,65.0,2,20,12.0,0.0
4934,53.0,2,20,13.0,0.0
4935,57.0,18,60,3.0,0.0
4936,53.0,0,15,3.0,0.0
4937,41.0,22,20,14.0,0.0
4938,84.0,1,20,10.0,0.0
4939,72.0,3,20,11.0,0.0
4940,60.0,2,20,12.0,0.0
4941,48.0,2,20,13.0,0.0
4942,48.0,0,15,3.0,0.0
4943,36.0,0,20,14.0,0.0
4944,84.0,1,20,10.0,0.0
4945,72.0,3,20,11.0,0.0
4946,82.0,1,90,0.0,0.0
4947,79.0,0,120,1.0,0.0
4948,82.0,0,90,1.0,0.0
4949,60.0,0,120,4.0,0.0
4950,48.0,0,120,5.0,0.0
4951,64.0,2,20,12.0,0.0
4952,70.0,18,90,2.0,0.0
4953,67.0,0,120,2.0,0.0
4954,52.0,2,20,13.0,0.0
4955,55.0,0,60,3.0,0.0
4956,40.0,22,20,14.0,0.0
4957,84.0,1,20,10.0,0.0
4958,72.0,3,20,11.0,0.0
4959,67.0,2,20,12.0,0.0
4960,55.0,2,20,13.0,0.0
4961,43.0,7,20,14.0,0.0
4962,84.0,1,20,10.0,0.0
4963,72.0,3,20,11.0,0.0
4964,64.0,2,20,12.0,0.0
4965,52.0,2,20,13.0,0.0
4966,58.0,15,15,3.0,0.0
4967,67.0,0,60,3.0,0.0
4968,40.0,3,20,14.0,0.0
4969,84.0,1,20,10.0,0.0
4970,72.0,3,20,11.0,0.0
4971,84.0,1,30,1.0,0.0
4972,84.0,0,30,0.0,0.0
4973,72.0,3,30,2.0,0.0
4974,60.0,2,20,12.0,0.0
4975,48.0,2,20,13.0,0.0
4976,36.0,3,20,14.0,0.0
4977,84.0,1,20,10.0,0.0
4978,81.0,0,30,0.0,0.0
4979,81.0,0,30,1.0,0.0
4980,77.0,1,30,1.0,0.0
4981,72.0,3,20,11.0,0.0
4982,69.0,0,30,2.0,0.0
4983,65.0,18,30,2.0,0.0
4984,65.0,2,20,12.0,0.0
4985,53.0,2,20,13.0,0.0
4986,65.0,0,60,3.0,0.0
4987,57.0,0,60,3.0,0.0
4988,41.0,3,20,14.0,0.0
4989,84.0,1,20,10.0,0.0
4990,72.0,3,20,11.0,0.0
4991,69.0,2,20,12.0,0.0
4992,57.0,2,20,13.0,0.0
4993,45.0,3,20,14.0,0.0
4994,84.0,1,60,10.0,0.0
4995,76.0,0,60,1.0,0.0
4996,79.0,0,60,1.0,0.0
4997,72.0,0,60,11.0,0.0
4998,60.0,1,15,4.0,0.0
4999,79.0,0,60,0.0,0.0
5000,60.0,2,20,12.0,0.0
5001,67.0,0,60,2.0,0.0
5002,48.0,22,15,5.0,0.0
5003,64.0,0,60,2.0,0.0
5004,48.0,2,20,13.0,0.0
5005,55.0,0,60,3.0,0.0
5006,64.0,22,60,3.0,0.0
5007,36.0,26,20,14.0,0.0
5008,60.0,2,20,12.0,0.0
5009,60.0,2,20,13.0,0.0
5010,48.0,2,20,14.0,0.0
5011,64.0,2,20,12.0,0.0
5012,60.0,3,60,2.0,0.0
5013,72.0,0,60,2.0,0.0
5014,60.0,2,20,13.0,0.0
5015,48.0,22,60,3.0,0.0
5016,60.0,0,60,3.0,0.0
5017,48.0,26,20,14.0,0.0
5018,60.0,2,20,12.0,0.0
5019,60.0,2,20,13.0,0.0
5020,48.0,1,20,14.0,0.0
5021,79.0,1,60,10.0,0.0
5022,67.0,0,60,11.0,0.0
5023,67.0,1,60,4.0,0.0
5024,79.0,0,60,0.0,0.0
5025,79.0,0,60,1.0,0.0
5026,76.0,0,60,1.0,0.0
5027,60.0,2,120,2.0,0.0
5028,60.0,22,60,5.0,0.0
5029,72.0,0,120,2.0,0.0
5030,64.0,2,20,12.0,0.0
5031,58.0,2,20,13.0,0.0
5032,60.0,22,120,3.0,0.0
5033,48.0,0,120,3.0,0.0
5034,46.0,26,20,14.0,0.0
5035,60.0,1,20,12.0,0.0
5036,60.0,2,20,13.0,0.0
5037,48.0,3,20,14.0,0.0
5038,81.0,1,120,10.0,0.0
5039,77.0,0,60,1.0,0.0
5040,81.0,0,60,1.0,0.0
5041,69.0,0,120,11.0,0.0
5042,81.0,8,120,0.0,0.0
5043,69.0,1,60,4.0,0.0
5044,65.0,0,60,5.0,0.0
5045,65.0,2,20,12.0,0.0
5046,57.0,2,20,13.0,0.0
5047,45.0,26,20,14.0,0.0
5048,60.0,2,20,12.0,0.0
5049,60.0,2,20,13.0,0.0
5050,48.0,1,20,14.0,0.0
5051,72.0,0,60,2.0,0.0
5052,60.0,3,60,2.0,0.0
5053,65.0,2,20,12.0,0.0
5054,60.0,2,20,13.0,0.0
5055,48.0,0,60,3.0,0.0
5056,60.0,22,60,3.0,0.0
5057,48.0,17,20,14.0,0.0
5058,60.0,1,20,12.0,0.0
5059,60.0,2,20,13.0,0.0
5060,48.0,1,20,14.0,0.0
5061,77.0,1,15,10.0,0.0
5062,65.0,0,15,11.0,0.0
5063,77.0,0,15,0.0,0.0
5064,84.0,1,40,10.0,0.0
5065,77.0,0,60,1.0,0.0
5066,81.0,1,60,1.0,0.0
5067,72.0,0,40,11.0,0.0
5068,69.0,0,60,4.0,0.0
5069,84.0,8,40,0.0,0.0
5070,65.0,22,60,5.0,0.0
5071,65.0,2,20,12.0,0.0
5072,72.0,0,120,2.0,0.0
5073,60.0,1,120,2.0,0.0
5074,57.0,2,20,13.0,0.0
5075,60.0,22,120,3.0,0.0
5076,48.0,0,120,3.0,0.0
5077,45.0,17,20,14.0,0.0
5078,60.0,1,20,12.0,0.0
5079,53.0,0,20,13.0,0.0
5080,41.0,3,20,14.0,0.0
5081,81.0,1,15,10.0,0.0
5082,69.0,0,15,11.0,0.0
5083,81.0,2,15,0.0,0.0
5084,79.0,1,60,10.0,0.0
5085,67.0,0,60,4.0,0.0
5086,79.0,0,60,0.0,0.0
5087,76.0,0,60,1.0,0.0
5088,67.0,0,60,11.0,0.0
5089,79.0,1,60,1.0,0.0
5090,60.0,0,60,5.0,0.0
5091,64.0,2,20,12.0,0.0
5092,48.0,2,20,13.0,0.0
5093,36.0,26,20,14.0,0.0
5094,60.0,2,20,12.0,0.0
5095,60.0,2,20,13.0,0.0
5096,48.0,1,20,14.0,0.0
5097,60.0,2,20,12.0,0.0
5098,60.0,0,60,2.0,0.0
5099,72.0,3,60,2.0,0.0
5100,60.0,2,20,13.0,0.0
5101,48.0,22,60,3.0,0.0
5102,60.0,0,60,3.0,0.0
5103,48.0,26,20,14.0,0.0
5104,60.0,2,20,12.0,0.0
5105,60.0,2,20,13.0,0.0
5106,48.0,1,20,14.0,0.0
5107,79.0,1,60,10.0,0.0
5108,79.0,0,60,0.0,0.0
5109,67.0,1,60,4.0,0.0
5110,76.0,0,60,1.0,0.0
5111,79.0,0,60,1.0,0.0
5112,67.0,2,60,11.0,0.0
5113,60.0,22,60,5.0,0.0
5114,64.0,2,20,12.0,0.0
5115,72.0,2,120,2.0,0.0
5116,60.0,0,120,2.0,0.0
5117,58.0,2,20,13.0,0.0
5118,48.0,0,120,3.0,0.0
5119,60.0,22,120,3.0,0.0
5120,46.0,26,20,14.0,0.0
5121,60.0,1,20,12.0,0.0
5122,60.0,0,20,13.0,0.0
5123,48.0,3,20,14.0,0.0
5124,81.0,1,120,10.0,0.0
5125,69.0,0,120,11.0,0.0
5126,69.0,1,60,4.0,0.0
5127,77.0,0,60,1.0,0.0
5128,81.0,0,60,1.0,0.0
5129,81.0,8,120,0.0,0.0
5130,65.0,0,60,5.0,0.0
5131,65.0,2,20,12.0,0.0
5132,57.0,2,20,13.0,0.0
5133,45.0,26,20,14.0,0.0
5134,60.0,2,20,12.0,0.0
5135,60.0,2,20,13.0,0.0
5136,48.0,1,20,14.0,0.0
5137,72.0,3,60,2.0,0.0
5138,60.0,0,60,2.0,0.0
5139,65.0,2,20,12.0,0.0
5140,60.0,2,20,13.0,0.0
5141,60.0,22,60,3.0,0.0
5142,48.0,0,60,3.0,0.0
5143,48.0,17,20,14.0,0.0
5144,60.0,1,20,12.0,0.0
5145,60.0,2,20,13.0,0.0
5146,48.0,1,20,14.0,0.0
5147,77.0,1,15,10.0,0.0
5148,77.0,0,15,0.0,0.0
5149,65.0,0,15,11.0,0.0
5150,84.0,1,40,10.0,0.0
5151,72.0,0,40,11.0,0.0
5152,84.0,8,40,0.0,0.0
5153,69.0,0,60,4.0,0.0
5154,81.0,1,60,1.0,0.0
5155,77.0,0,60,1.0,0.0
5156,72.0,0,120,2.0,0.0
5157,60.0,2,120,2.0,0.0
5158,65.0,22,60,5.0,0.0
5159,65.0,2,20,12.0,0.0
5160,57.0,2,20,13.0,0.0
5161,60.0,0,120,3.0,0.0
5162,48.0,0,120,3.0,0.0
5163,45.0,17,20,14.0,0.0
5164,60.0,1,20,12.0,0.0
5165,53.0,0,20,13.0,0.0
5166,41.0,3,20,14.0,0.0
5167,81.0,1,15,10.0,0.0
5168,69.0,0,15,11.0,0.0
5169,81.0,2,15,0.0,0.0
5170,79.0,1,30,10.0,0.0
5171,79.0,1,60,1.0,0.0
5172,76.0,0,60,1.0,0.0
5173,67.0,0,30,11.0,0.0
5174,79.0,23,30,0.0,0.0
5175,67.0,0,60,4.0,0.0
5176,64.0,2,20,12.0,0.0
5177,60.0,22,60,5.0,0.0
5178,48.0,2,20,13.0,0.0
5179,36.0,2,20,14.0,0.0
5180,60.0,2,20,12.0,0.0
5181,48.0,2,20,13.0,0.0
5182,36.0,1,20,14.0,0.0
5183,84.0,1,90,10.0,0.0
5184,72.0,0,90,11.0,0.0
5185,84.0,23,90,0.0,0.0
5186,64.0,2,20,12.0,0.0
5187,72.0,0,180,2.0,0.0
5188,60.0,2,180,2.0,0.0
5189,52.0,2,20,13.0,0.0
5190,60.0,0,180,3.0,0.0
5191,48.0,0,180,3.0,0.0
5192,40.0,26,20,14.0,0.0
5193,60.0,2,20,12.0,0.0
5194,48.0,2,20,13.0,0.0
5195,36.0,26,20,14.0,0.0
5196,69.0,0,60,4.0,0.0
5197,77.0,0,60,1.0,0.0
5198,81.0,1,60,1.0,0.0
5199,65.0,2,20,12.0,0.0
5200,65.0,22,60,5.0,0.0
5201,53.0,2,20,13.0,0.0
5202,41.0,2,20,14.0,0.0
5203,81.0,1,30,10.0,0.0
5204,69.0,0,30,11.0,0.0
5205,81.0,0,30,0.0,0.0
5206,69.0,1,20,12.0,0.0
5207,57.0,2,20,13.0,0.0
5208,45.0,3,20,14.0,0.0
5209,79.0,1,30,10.0,0.0
5210,79.0,0,60,1.0,0.0
5211,76.0,1,60,1.0,0.0
5212,67.0,0,60,4.0,0.0
5213,67.0,23,30,11.0,0.0
5214,79.0,0,30,0.0,0.0
5215,60.0,22,60,5.0,0.0
5216,72.0,2,20,12.0,0.0
5217,60.0,2,20,13.0,0.0
5218,48.0,2,20,14.0,0.0
5219,60.0,2,20,12.0,0.0
5220,48.0,2,20,13.0,0.0
5221,36.0,1,20,14.0,0.0
5222,74.0,1,30,10.0,0.0
5223,86.0,0,30,1.0,0.0
5224,82.0,0,30,1.0,0.0
5225,70.0,0,30,11.0,0.0
5226,86.0,1,30,0.0,0.0
5227,70.0,3,30,2.0,0.0
5228,74.0,0,30,2.0,0.0
5229,60.0,2,20,12.0,0.0
5230,48.0,2,20,13.0,0.0
5231,62.0,19,30,3.0,0.0
5232,58.0,0,30,3.0,0.0
5233,36.0,2,20,14.0,0.0
5234,72.0,1,30,10.0,0.0
5235,69.0,0,30,11.0,0.0
5236,84.0,0,30,0.0,0.0
5237,84.0,1,30,1.0,0.0
5238,81.0,0,30,1.0,0.0
5239,69.0,3,30,2.0,0.0
5240,72.0,0,30,2.0,0.0
5241,60.0,2,20,12.0,0.0
5242,48.0,2,20,13.0,0.0
5243,57.0,0,30,3.0,0.0
5244,60.0,19,30,3.0,0.0
5245,36.0,2,20,14.0,0.0
5246,70.0,1,30,10.0,0.0
5247,82.0,0,30,1.0,0.0
5248,82.0,0,30,0.0,0.0
5249,67.0,0,30,11.0,0.0
5250,69.0,1,60,4.0,0.0
5251,79.0,1,30,1.0,0.0
5252,67.0,3,30,2.0,0.0
5253,65.0,0,60,5.0,0.0
5254,65.0,2,20,12.0,0.0
5255,70.0,0,30,2.0,0.0
5256,53.0,2,20,13.0,0.0
5257,55.0,19,30,3.0,0.0
5258,58.0,0,30,3.0,0.0
5259,41.0,2,20,14.0,0.0
5260,69.0,1,30,10.0,0.0
5261,81.0,0,30,1.0,0.0
5262,65.0,2,30,11.0,0.0
5263,77.0,1,30,1.0,0.0
5264,81.0,0,30,0.0,0.0
5265,69.0,1,20,12.0,0.0
5266,65.0,0,30,2.0,0.0
5267,69.0,2,30,2.0,0.0
5268,57.0,0,20,13.0,0.0
5269,57.0,0,30,3.0,0.0
5270,53.0,28,30,3.0,0.0
5271,45.0,0,20,14.0,0.0
5272,67.0,1,30,10.0,0.0
5273,64.0,0,30,11.0,0.0
5274,76.0,0,30,1.0,0.0
5275,79.0,0,30,1.0,0.0
5276,79.0,1,30,0.0,0.0
5277,67.0,0,30,4.0,0.0
5278,60.0,0,30,5.0,0.0
5279,72.0,2,30,12.0,0.0
5280,67.0,0,30,2.0,0.0
5281,64.0,0,30,2.0,0.0
5282,60.0,1,30,13.0,0.0
5283,52.0,1,30,3.0,0.0
5284,55.0,0,30,3.0,0.0
5285,48.0,54,30,14.0,0.0
5286,67.0,1,30,10.0,0.0
5287,76.0,0,30,1.0,0.0
5288,79.0,1,30,1.0,0.0
5289,64.0,0,30,11.0,0.0
5290,79.0,0,30,0.0,0.0
5291,67.0,0,30,4.0,0.0
5292,64.0,2,30,2.0,0.0
5293,60.0,0,30,5.0,0.0
5294,67.0,0,30,2.0,0.0
5295,60.0,0,30,12.0,0.0
5296,48.0,1,30,13.0,0.0
5297,52.0,0,30,3.0,0.0
5298,55.0,1,30,3.0,0.0
5299,36.0,54,30,14.0,0.0
5300,67.0,1,30,10.0,0.0
5301,76.0,0,30,1.0,0.0
5302,67.0,0,30,4.0,0.0
5303,64.0,0,30,11.0,0.0
5304,79.0,0,30,1.0,0.0
5305,79.0,1,30,0.0,0.0
5306,60.0,0,30,12.0,0.0
5307,64.0,0,30,2.0,0.0
5308,67.0,0,30,2.0,0.0
5309,60.0,2,30,5.0,0.0
5310,48.0,1,30,13.0,0.0
5311,55.0,1,30,3.0,0.0
5312,52.0,0,30,3.0,0.0
5313,36.0,84,30,14.0,0.0
5314,67.0,1,60,10.0,0.0
5315,76.0,0,60,1.0,0.0
5316,79.0,0,60,1.0,0.0
5317,67.0,0,60,4.0,0.0
5318,79.0,1,60,0.0,0.0
5319,64.0,0,60,11.0,0.0
5320,60.0,0,60,5.0,0.0
5321,60.0,0,60,12.0,0.0
5322,64.0,2,60,2.0,0.0
5323,67.0,0,60,2.0,0.0
5324,48.0,1,60,13.0,0.0
5325,52.0,0,60,3.0,0.0
5326,55.0,1,60,3.0,0.0
5327,36.0,114,60,14.0,0.0
5328,72.0,30,60,10.0,0.0
5329,81.0,64,30,10.0,0.0
5330,66.0,60,30,13.0,0.0
5331,81.0,1,60,10.0,0.0
5332,78.0,1,60,11.0,0.0
5333,72.0,28,60,12.0,0.0
5334,62.0,26,30,13.0,0.0
5335,82.0,1,30,10.0,0.0
5336,79.0,1,30,11.0,0.0
5337,70.0,2,30,12.0,0.0
5338,67.0,60,30,13.0,0.0
5339,55.0,71,30,13.0,0.0
5340,74.0,1,40,10.0,0.0
5341,86.0,11,40,0.0,0.0
5342,70.0,1,15,10.0,0.0
5343,82.0,32,15,0.0,0.0
5344,67.0,1,30,10.0,0.0
5345,79.0,63,30,0.0,0.0
5346,64.0,60,30,13.0,0.0
5347,79.0,1,60,10.0,0.0
5348,76.0,1,60,11.0,0.0
5349,70.0,28,60,12.0,0.0
5350,60.0,26,30,13.0,0.0
5351,81.0,1,30,10.0,0.0
5352,77.0,1,30,11.0,0.0
5353,69.0,2,30,12.0,0.0
5354,65.0,60,30,13.0,0.0
5355,53.0,71,30,13.0,0.0
5356,72.0,1,40,10.0,0.0
5357,84.0,11,40,0.0,0.0
5358,69.0,1,15,10.0,0.0
5359,81.0,32,15,0.0,0.0
5360,65.0,1,30,10.0,0.0
5361,60.0,0,30,11.0,0.0
5362,77.0,1,30,0.0,0.0
5363,57.0,2,30,12.0,0.0
5364,57.0,71,30,13.0,0.0
5365,77.0,1,40,10.0,0.0
5366,72.0,1,40,11.0,0.0
5367,69.0,2,40,12.0,0.0
5368,69.0,56,40,13.0,0.0
5369,77.0,1,40,10.0,0.0
5370,72.0,1,40,11.0,0.0
5371,69.0,2,40,12.0,0.0
5372,69.0,71,40,13.0,0.0
5373,77.0,1,60,10.0,0.0
5374,72.0,1,60,11.0,0.0
5375,69.0,2,60,12.0,0.0
5376,69.0,56,60,13.0,0.0
5377,76.0,1,60,10.0,0.0
5378,70.0,1,60,11.0,0.0
5379,67.0,2,60,12.0,0.0
5380,67.0,53,60,13.0,0.0
5381,77.0,1,60,10.0,0.0
5382,69.0,1,60,11.0,0.0
5383,65.0,2,60,12.0,0.0
5384,65.0,59,60,13.0,0.0
5385,79.0,1,60,10.0,0.0
5386,72.0,1,60,11.0,0.0
5387,64.0,2,60,12.0,0.0
5388,64.0,58,60,13.0,0.0
5389,82.0,1,60,10.0,0.0
5390,79.0,14,60,11.0,0.0
5391,60.0,2,60,12.0,0.0
5392,60.0,11,60,13.0,0.0
5393,65.0,2,60,12.0,0.0
5394,65.0,31,60,13.0,0.0
5395,81.0,1,15,10.0,0.0
5396,77.0,14,15,11.0,0.0
5397,79.0,1,15,10.0,0.0
5398,76.0,11,15,11.0,0.0
5399,81.0,1,15,10.0,0.0
5400,77.0,1,15,11.0,0.0
5401,79.0,1,60,10.0,0.0
5402,76.0,31,60,11.0,0.0
5403,60.0,2,30,12.0,0.0
5404,60.0,26,30,13.0,0.0
5405,48.0,2,30,12.0,0.0
5406,48.0,87,30,13.0,0.0
5407,60.0,0,60,11.0,0.0
5408,72.0,14,60,0.0,0.0
5409,84.0,16,15,10.0,0.0
5410,69.0,0,30,11.0,0.0
5411,81.0,14,30,0.0,0.0
5412,81.0,30,15,10.0,0.0
5413,78.0,19,15,10.0,0.0
5414,54.0,2,30,13.0,0.0
5415,42.0,9,30,14.0,0.0
5416,74.0,30,15,10.0,0.0
5417,72.0,19,15,10.0,0.0
5418,81.0,0,60,0.0,0.0
5419,78.0,0,60,1.0,0.0
5420,69.0,4,60,11.0,0.0
5421,50.0,2,30,13.0,0.0
5422,60.0,10,60,3.0,0.0
5423,62.0,1,90,3.0,0.0
5424,38.0,9,30,14.0,0.0
5425,69.0,16,15,10.0,0.0
5426,70.0,16,15,10.0,0.0
5427,82.0,0,30,0.0,0.0
5428,79.0,0,30,1.0,0.0
5429,70.0,3,30,11.0,0.0
5430,55.0,1,30,13.0,0.0
5431,58.0,0,30,3.0,0.0
5432,43.0,9,30,14.0,0.0
5433,67.0,45,15,10.0,0.0
5434,74.0,1,30,10.0,0.0
5435,74.0,1,30,1.0,0.0
5436,86.0,0,30,0.0,0.0
5437,58.0,2,30,12.0,0.0
5438,43.0,2,30,13.0,0.0
5439,31.0,24,30,14.0,0.0
5440,73.0,1,30,10.0,0.0
5441,73.0,29,30,1.0,0.0
5442,85.0,0,30,0.0,0.0
5443,74.0,1,30,10.0,0.0
5444,86.0,0,30,0.0,0.0
5445,74.0,1,30,1.0,0.0
5446,55.0,25,30,12.0,0.0
5447,70.0,1,30,10.0,0.0
5448,82.0,17,30,0.0,0.0
5449,70.0,0,30,1.0,0.0
5450,82.0,16,15,10.0,0.0
5451,64.0,0,60,1.0,0.0
5452,67.0,1,60,4.0,0.0
5453,67.0,1,30,11.0,0.0
5454,67.0,0,60,1.0,0.0
5455,79.0,0,60,0.0,0.0
5456,64.0,13,60,2.0,0.0
5457,60.0,13,30,12.0,0.0
5458,67.0,0,60,2.0,0.0
5459,60.0,0,60,5.0,0.0
5460,79.0,16,15,10.0,0.0
5461,76.0,17,15,10.0,0.0
5462,48.0,2,30,12.0,0.0
5463,52.0,2,30,13.0,0.0
5464,40.0,9,30,14.0,0.0
5465,72.0,30,15,10.0,0.0
5466,70.0,19,15,10.0,0.0
5467,76.0,0,60,1.0,0.0
5468,67.0,0,60,11.0,0.0
5469,67.0,0,60,1.0,0.0
5470,79.0,1,60,0.0,0.0
5471,67.0,0,60,4.0,0.0
5472,64.0,0,60,2.0,0.0
5473,67.0,0,60,2.0,0.0
5474,60.0,3,60,5.0,0.0
5475,48.0,2,30,13.0,0.0
5476,60.0,0,90,3.0,0.0
5477,58.0,10,60,3.0,0.0
5478,36.0,9,30,14.0,0.0
5479,67.0,16,15,10.0,0.0
5480,69.0,16,15,10.0,0.0
5481,69.0,0,30,4.0,0.0
5482,77.0,0,30,1.0,0.0
5483,69.0,0,30,1.0,0.0
5484,69.0,1,30,11.0,0.0
5485,81.0,0,30,0.0,0.0
5486,65.0,2,30,2.0,0.0
5487,69.0,0,30,2.0,0.0
5488,65.0,0,30,5.0,0.0
5489,53.0,1,30,13.0,0.0
5490,57.0,1,30,3.0,0.0
5491,41.0,9,30,14.0,0.0
5492,65.0,45,15,10.0,0.0
5493,72.0,1,30,10.0,0.0
5494,84.0,1,30,0.0,0.0
5495,72.0,2,30,2.0,0.0
5496,65.0,0,30,12.0,0.0
5497,41.0,1,30,13.0,0.0
5498,60.0,1,30,3.0,0.0
5499,29.0,24,30,14.0,0.0
5500,71.0,1,30,10.0,0.0
5501,83.0,1,30,0.0,0.0
5502,71.0,3,30,2.0,0.0
5503,59.0,25,30,3.0,0.0
5504,72.0,1,30,10.0,0.0
5505,84.0,1,30,0.0,0.0
5506,72.0,3,30,2.0,0.0
5507,60.0,0,30,12.0,0.0
5508,60.0,22,30,3.0,0.0
5509,69.0,4,30,10.0,0.0
5510,81.0,1,30,0.0,0.0
5511,69.0,3,30,2.0,0.0
5512,57.0,11,30,3.0,0.0
5513,65.0,4,60,10.0,0.0
5514,60.0,16,15,11.0,0.0
5515,65.0,3,60,2.0,0.0
5516,57.0,2,30,12.0,0.0
5517,45.0,2,30,13.0,0.0
5518,53.0,11,60,3.0,0.0
5519,33.0,10,30,14.0,0.0
5520,63.0,11,15,11.0,0.0
5521,77.0,1,60,10.0,0.0
5522,60.0,16,15,11.0,0.0
5523,77.0,1,15,0.0,0.0
5524,72.0,3,60,2.0,0.0
5525,57.0,2,30,12.0,0.0
5526,57.0,2,30,13.0,0.0
5527,65.0,11,60,3.0,0.0
5528,45.0,10,30,14.0,0.0
5529,63.0,14,15,11.0,0.0
5530,78.0,4,60,10.0,0.0
5531,60.0,16,15,11.0,0.0
5532,78.0,1,60,0.0,0.0
5533,57.0,2,30,12.0,0.0
5534,75.0,3,60,2.0,0.0
5535,72.0,0,60,2.0,0.0
5536,57.0,2,30,13.0,0.0
5537,66.0,11,60,3.0,0.0
5538,60.0,0,60,3.0,0.0
5539,45.0,10,30,14.0,0.0
5540,63.0,11,15,11.0,0.0
5541,79.0,1,30,10.0,0.0
5542,62.0,14,15,11.0,0.0
5543,79.0,29,30,0.0,0.0
5544,70.0,0,60,2.0,0.0
5545,58.0,2,120,12.0,0.0
5546,74.0,3,60,2.0,0.0
5547,58.0,2,120,13.0,0.0
5548,67.0,0,60,3.0,0.0
5549,62.0,25,60,3.0,0.0
5550,46.0,24,120,14.0,0.0
5551,81.0,1,30,10.0,0.0
5552,81.0,1,30,0.0,0.0
5553,69.0,0,30,11.0,0.0
5554,82.0,1,30,10.0,0.0
5555,82.0,29,30,0.0,0.0
5556,70.0,0,30,11.0,0.0
5557,84.0,1,30,10.0,0.0
5558,72.0,1,30,11.0,0.0
5559,84.0,0,30,0.0,0.0
5560,85.0,1,30,10.0,0.0
5561,85.0,0,30,0.0,0.0
5562,73.0,26,30,11.0,0.0
5563,86.0,1,30,10.0,0.0
5564,86.0,30,30,0.0,0.0
5565,74.0,3,30,11.0,0.0
5566,77.0,1,90,10.0,0.0
5567,69.0,30,30,11.0,0.0
5568,77.0,0,90,0.0,0.0
5569,65.0,1,120,4.0,0.0
5570,57.0,0,120,5.0,0.0
5571,65.0,29,30,11.0,0.0
5572,60.0,1,30,11.0,0.0
5573,60.0,2,30,12.0,0.0
5574,69.0,3,60,2.0,0.0
5575,65.0,0,60,2.0,0.0
5576,60.0,2,30,13.0,0.0
5577,57.0,0,60,3.0,0.0
5578,48.0,2,30,14.0,0.0
5579,79.0,1,15,10.0,0.0
5580,79.0,6,15,0.0,0.0
5581,57.0,0,30,11.0,0.0
5582,77.0,1,15,10.0,0.0
5583,77.0,7,15,0.0,0.0
5584,76.0,1,15,10.0,0.0
5585,76.0,6,15,0.0,0.0
5586,77.0,1,15,10.0,0.0
5587,77.0,0,15,0.0,0.0
5588,79.0,1,40,10.0,0.0
5589,58.0,1,30,11.0,0.0
5590,79.0,6,40,0.0,0.0
5591,67.0,1,60,4.0,0.0
5592,64.0,0,60,2.0,0.0
5593,48.0,2,30,12.0,0.0
5594,60.0,3,60,5.0,0.0
5595,70.0,0,60,2.0,0.0
5596,48.0,2,30,13.0,0.0
5597,60.0,26,15,3.0,0.0
5598,58.0,0,60,3.0,0.0
5599,36.0,9,30,14.0,0.0
5600,60.0,3,30,11.0,0.0
5601,76.0,1,15,10.0,0.0
5602,76.0,5,15,0.0,0.0
5603,77.0,33,20,10.0,0.0
5604,65.0,1,60,4.0,0.0
5605,77.0,0,60,0.0,0.0
5606,57.0,0,60,11.0,0.0
5607,69.0,0,60,2.0,0.0
5608,57.0,2,60,5.0,0.0
5609,65.0,0,60,2.0,0.0
5610,53.0,0,60,12.0,0.0
5611,53.0,1,60,13.0,0.0
5612,57.0,0,60,3.0,0.0
5613,60.0,18,15,3.0,0.0
5614,41.0,48,60,14.0,0.0
5615,84.0,5,15,10.0,0.0
5616,84.0,6,150,10.0,0.0
5617,76.0,1,15,11.0,0.0
5618,67.0,2,15,12.0,0.0
5619,58.0,2,15,13.0,0.0
5620,46.0,25,15,14.0,0.0
5621,77.0,1,20,11.0,0.0
5622,69.0,2,20,12.0,0.0
5623,57.0,2,20,13.0,0.0
5624,45.0,25,20,14.0,0.0
5625,79.0,1,15,11.0,0.0
5626,70.0,2,15,12.0,0.0
5627,55.0,2,15,13.0,0.0
5628,43.0,26,15,14.0,0.0
5629,77.0,1,30,11.0,0.0
5630,69.0,2,30,12.0,0.0
5631,53.0,2,30,13.0,0.0
5632,41.0,20,30,14.0,0.0
5633,81.0,58,15,10.0,0.0
5634,81.0,6,150,10.0,0.0
5635,76.0,1,15,11.0,0.0
5636,73.0,2,15,12.0,0.0
5637,67.0,2,15,13.0,0.0
5638,55.0,25,15,14.0,0.0
5639,77.0,1,20,11.0,0.0
5640,74.0,2,20,12.0,0.0
5641,65.0,2,20,13.0,0.0
5642,53.0,25,20,14.0,0.0
5643,79.0,1,15,11.0,0.0
5644,76.0,2,15,12.0,0.0
5645,61.0,2,15,13.0,0.0
5646,49.0,26,15,14.0,0.0
5647,77.0,1,30,11.0,0.0
5648,74.0,2,30,12.0,0.0
5649,62.0,2,30,13.0,0.0
5650,50.0,20,30,14.0,0.0
5651,77.0,58,15,10.0,0.0
5652,77.0,24,90,10.0,0.0
5653,72.0,1,15,11.0,0.0
5654,69.0,2,15,12.0,0.0
5655,63.0,2,15,13.0,0.0
5656,51.0,25,15,14.0,0.0
5657,74.0,1,20,11.0,0.0
5658,70.0,2,20,12.0,0.0
5659,62.0,2,20,13.0,0.0
5660,50.0,1,20,14.0,0.0
5661,78.0,2,30,10.0,0.0
5662,75.0,1,15,11.0,0.0
5663,72.0,2,15,12.0,0.0
5664,57.0,0,15,13.0,0.0
5665,45.0,21,15,14.0,0.0
5666,79.0,4,20,10.0,0.0
5667,74.0,1,20,11.0,0.0
5668,70.0,2,20,12.0,0.0
5669,58.0,2,20,13.0,0.0
5670,46.0,8,20,14.0,0.0
5671,82.0,13,15,10.0,0.0
5672,86.0,4,15,10.0,0.0
5673,70.0,1,15,11.0,0.0
5674,67.0,2,15,12.0,0.0
5675,55.0,2,15,13.0,0.0
5676,43.0,31,15,14.0,0.0
5677,77.0,1,30,10.0,0.0
5678,69.0,1,30,11.0,0.0
5679,65.0,2,30,12.0,0.0
5680,60.0,2,30,13.0,0.0
5681,48.0,30,30,14.0,0.0
5682,76.0,6,15,10.0,0.0
5683,70.0,1,30,11.0,0.0
5684,67.0,2,30,12.0,0.0
5685,48.0,2,30,13.0,0.0
5686,36.0,6,30,14.0,0.0
5687,77.0,6,15,10.0,0.0
5688,76.0,6,15,10.0,0.0
5689,77.0,6,15,10.0,0.0
5690,76.0,1,15,10.0,0.0
5691,77.0,0,15,10.0,0.0
5692,76.0,6,15,10.0,0.0
5693,77.0,6,15,10.0,0.0
5694,76.0,52,15,10.0,0.0
5695,77.0,1,60,10.0,0.0
5696,77.0,0,40,1.0,0.0
5697,77.0,0,40,0.0,0.0
5698,65.0,0,40,1.0,0.0
5699,65.0,1,40,4.0,0.0
5700,69.0,0,60,11.0,0.0
5701,65.0,2,60,12.0,0.0
5702,65.0,3,40,2.0,0.0
5703,53.0,0,40,5.0,0.0
5704,53.0,2,60,13.0,0.0
5705,53.0,7,40,3.0,0.0
5706,41.0,47,60,14.0,0.0
5707,72.0,0,15,1.0,0.0
5708,84.0,0,15,1.0,0.0
5709,72.0,0,15,4.0,0.0
5710,84.0,1,15,0.0,0.0
5711,60.0,0,15,5.0,0.0
5712,72.0,0,15,2.0,0.0
5713,60.0,2,15,2.0,0.0
5714,60.0,0,15,3.0,0.0
5715,48.0,1,15,3.0,0.0
5716,72.0,0,180,1.0,0.0
5717,84.0,0,180,1.0,0.0
5718,72.0,1,180,4.0,0.0
5719,84.0,0,180,0.0,0.0
5720,60.0,3,180,2.0,0.0
5721,60.0,0,180,5.0,0.0
5722,72.0,0,180,2.0,0.0
5723,60.0,0,180,3.0,0.0
5724,48.0,7,180,3.0,0.0
5725,79.0,1,15,10.0,0.0
5726,64.0,1,15,11.0,0.0
5727,60.0,2,15,12.0,0.0
5728,48.0,0,15,12.0,0.0
5729,58.0,2,15,13.0,0.0
5730,46.0,24,15,14.0,0.0
5731,81.0,1,20,10.0,0.0
5732,65.0,1,20,11.0,0.0
5733,48.0,0,20,12.0,0.0
5734,60.0,2,20,12.0,0.0
5735,57.0,2,20,13.0,0.0
5736,45.0,24,20,14.0,0.0
5737,82.0,1,15,10.0,0.0
5738,67.0,1,15,11.0,0.0
5739,60.0,2,15,12.0,0.0
5740,48.0,0,15,12.0,0.0
5741,55.0,2,15,13.0,0.0
5742,43.0,31,15,14.0,0.0
5743,81.0,1,30,10.0,0.0
5744,65.0,1,30,11.0,0.0
5745,60.0,2,30,12.0,0.0
5746,48.0,0,30,12.0,0.0
5747,53.0,2,30,13.0,0.0
5748,41.0,10,30,14.0,0.0
5749,69.0,0,15,1.0,0.0
5750,81.0,0,15,1.0,0.0
5751,69.0,1,15,4.0,0.0
5752,81.0,0,15,0.0,0.0
5753,57.0,0,15,5.0,0.0
5754,57.0,3,15,2.0,0.0
5755,69.0,0,15,2.0,0.0
5756,45.0,0,15,3.0,0.0
5757,57.0,52,15,3.0,0.0
5758,81.0,1,180,0.0,0.0
5759,69.0,0,180,4.0,0.0
5760,69.0,3,180,2.0,0.0
5761,57.0,7,180,3.0,0.0
5762,45.0,0,180,3.0,0.0
5763,76.0,1,15,10.0,0.0
5764,61.0,1,15,11.0,0.0
5765,57.0,2,15,12.0,0.0
5766,55.0,2,15,13.0,0.0
5767,43.0,24,15,14.0,0.0
5768,77.0,1,20,10.0,0.0
5769,62.0,1,20,11.0,0.0
5770,57.0,2,20,12.0,0.0
5771,69.0,0,20,12.0,0.0
5772,53.0,2,20,13.0,0.0
5773,41.0,24,20,14.0,0.0
5774,79.0,1,15,10.0,0.0
5775,64.0,1,15,11.0,0.0
5776,57.0,0,15,12.0,0.0
5777,69.0,2,15,12.0,0.0
5778,49.0,2,15,13.0,0.0
5779,37.0,31,15,14.0,0.0
5780,77.0,1,30,10.0,0.0
5781,62.0,1,30,11.0,0.0
5782,57.0,2,30,12.0,0.0
5783,69.0,0,30,12.0,0.0
5784,50.0,2,30,13.0,0.0
5785,38.0,10,30,14.0,0.0
5786,81.0,0,15,1.0,0.0
5787,69.0,0,15,1.0,0.0
5788,69.0,1,15,4.0,0.0
5789,81.0,0,15,0.0,0.0
5790,57.0,0,15,5.0,0.0
5791,57.0,0,15,2.0,0.0
5792,69.0,0,15,2.0,0.0
5793,45.0,52,15,3.0,0.0
5794,57.0,0,15,3.0,0.0
5795,81.0,0,150,0.0,0.0
5796,69.0,1,150,4.0,0.0
5797,81.0,0,150,1.0,0.0
5798,69.0,0,150,1.0,0.0
5799,57.0,0,150,5.0,0.0
5800,57.0,2,150,2.0,0.0
5801,69.0,0,150,2.0,0.0
5802,45.0,1,150,3.0,0.0
5803,57.0,0,150,3.0,0.0
5804,76.0,1,15,10.0,0.0
5805,69.0,0,15,10.0,0.0
5806,73.0,1,15,11.0,0.0
5807,69.0,0,15,12.0,0.0
5808,57.0,2,15,12.0,0.0
5809,55.0,2,15,13.0,0.0
5810,43.0,24,15,14.0,0.0
5811,69.0,0,20,10.0,0.0
5812,77.0,1,20,10.0,0.0
5813,74.0,1,20,11.0,0.0
5814,57.0,2,20,12.0,0.0
5815,69.0,0,20,12.0,0.0
5816,53.0,2,20,13.0,0.0
5817,41.0,24,20,14.0,0.0
5818,79.0,0,15,10.0,0.0
5819,69.0,1,15,10.0,0.0
5820,76.0,1,15,11.0,0.0
5821,69.0,0,15,12.0,0.0
5822,57.0,2,15,12.0,0.0
5823,49.0,2,15,13.0,0.0
5824,37.0,31,15,14.0,0.0
5825,77.0,0,30,10.0,0.0
5826,69.0,1,30,10.0,0.0
5827,74.0,0,30,11.0,0.0
5828,57.0,0,30,12.0,0.0
5829,69.0,0,30,12.0,0.0
5830,50.0,1,30,13.0,0.0
5831,38.0,144,30,14.0,0.0
5832,81.0,1,120,10.0,0.0
5833,81.0,0,120,0.0,0.0
5834,69.0,1,120,1.0,0.0
5835,75.0,0,120,1.0,0.0
5836,65.0,1,150,4.0,0.0
5837,75.0,0,120,11.0,0.0
5838,65.0,0,150,12.0,0.0
5839,53.0,0,150,5.0,0.0
5840,69.0,0,120,2.0,0.0
5841,72.0,2,120,2.0,0.0
5842,60.0,1,120,13.0,0.0
5843,65.0,1,150,3.0,0.0
5844,63.0,1,120,3.0,0.0
5845,48.0,24,120,14.0,0.0
5846,82.0,1,30,10.0,0.0
5847,82.0,0,30,0.0,0.0
5848,74.0,0,30,1.0,0.0
5849,70.0,0,30,1.0,0.0
5850,74.0,0,30,11.0,0.0
5851,74.0,0,30,2.0,0.0
5852,70.0,2,30,2.0,0.0
5853,58.0,1,30,13.0,0.0
5854,46.0,144,30,14.0,0.0
5855,83.0,1,120,10.0,0.0
5856,77.0,0,120,1.0,0.0
5857,71.0,1,120,1.0,0.0
5858,77.0,0,120,11.0,0.0
5859,83.0,0,120,0.0,0.0
5860,71.0,2,120,2.0,0.0
5861,62.0,0,120,12.0,0.0
5862,74.0,0,120,12.0,0.0
5863,74.0,0,120,2.0,0.0
5864,55.0,1,120,13.0,0.0
5865,65.0,0,120,3.0,0.0
5866,55.0,1,120,3.0,0.0
5867,43.0,24,120,14.0,0.0
5868,84.0,1,30,10.0,0.0
5869,84.0,0,30,0.0,0.0
5870,76.0,0,30,1.0,0.0
5871,72.0,0,30,1.0,0.0
5872,76.0,1,30,11.0,0.0
5873,67.0,0,30,12.0,0.0
5874,72.0,0,30,2.0,0.0
5875,76.0,2,30,2.0,0.0
5876,60.0,1,30,13.0,0.0
5877,60.0,1,30,3.0,0.0
5878,64.0,0,30,3.0,0.0
5879,48.0,144,30,14.0,0.0
5880,85.0,1,120,10.0,0.0
5881,79.0,0,150,11.0,0.0
5882,73.0,0,120,1.0,0.0
5883,79.0,1,150,1.0,0.0
5884,85.0,1,120,0.0,0.0
5885,64.0,2,120,12.0,0.0
5886,76.0,0,120,2.0,0.0
5887,73.0,0,120,2.0,0.0
5888,57.0,1,120,13.0,0.0
5889,57.0,1,120,3.0,0.0
5890,67.0,1,150,3.0,0.0
5891,45.0,14,120,14.0,0.0
5892,86.0,1,20,10.0,0.0
5893,74.0,0,30,1.0,0.0
5894,86.0,1,20,0.0,0.0
5895,74.0,2,30,2.0,0.0
5896,62.0,9,20,12.0,0.0
5897,58.0,1,30,13.0,0.0
5898,58.0,0,30,3.0,0.0
5899,46.0,1,30,14.0,0.0
5900,82.0,1,15,10.0,0.0
5901,74.0,0,15,11.0,0.0
5902,82.0,1,15,0.0,0.0
5903,67.0,11,15,12.0,0.0
5904,79.0,1,15,10.0,0.0
5905,74.0,0,15,11.0,0.0
5906,79.0,1,15,0.0,0.0
5907,70.0,38,15,12.0,0.0
5908,77.0,1,30,10.0,0.0
5909,69.0,1,60,1.0,0.0
5910,72.0,1,120,1.0,0.0
5911,77.0,0,30,0.0,0.0
5912,65.0,0,60,4.0,0.0
5913,69.0,1,30,11.0,0.0
5914,65.0,0,60,2.0,0.0
5915,72.0,2,30,12.0,0.0
5916,69.0,0,60,2.0,0.0
5917,57.0,4,60,5.0,0.0
5918,60.0,2,30,13.0,0.0
5919,60.0,0,60,3.0,0.0
5920,48.0,25,30,14.0,0.0
5921,76.0,1,15,10.0,0.0
5922,76.0,5,15,0.0,0.0
5923,67.0,1,60,4.0,0.0
5924,70.0,0,60,1.0,0.0
5925,70.0,1,30,11.0,0.0
5926,70.0,2,60,2.0,0.0
5927,67.0,0,60,2.0,0.0
5928,60.0,2,30,12.0,0.0
5929,60.0,47,60,5.0,0.0
5930,48.0,2,30,13.0,0.0
5931,48.0,0,60,3.0,0.0
5932,77.0,1,15,10.0,0.0
5933,36.0,1,30,14.0,0.0
5934,77.0,5,15,0.0,0.0
5935,76.0,1,15,10.0,0.0
5936,76.0,5,15,0.0,0.0
5937,77.0,1,15,10.0,0.0
5938,77.0,5,15,0.0,0.0
5939,76.0,1,15,10.0,0.0
5940,76.0,0,15,0.0,0.0
5941,77.0,0,15,10.0,0.0
5942,77.0,5,15,0.0,0.0
5943,76.0,1,15,10.0,0.0
5944,76.0,5,15,0.0,0.0
5945,77.0,1,15,10.0,0.0
5946,77.0,5,15,0.0,0.0
5947,76.0,1,15,10.0,0.0
5948,76.0,3,15,0.0,0.0
5949,77.0,1,60,10.0,0.0
5950,77.0,0,60,0.0,0.0
5951,69.0,0,60,11.0,0.0
5952,72.0,1,60,1.0,0.0
5953,69.0,0,60,1.0,0.0
5954,65.0,0,60,4.0,0.0
5955,69.0,2,60,2.0,0.0
5956,60.0,0,60,12.0,0.0
5957,57.0,0,60,5.0,0.0
5958,65.0,0,60,2.0,0.0
5959,48.0,11,40,15.0,0.0
5960,53.0,0,60,13.0,0.0
5961,53.0,1,60,3.0,0.0
5962,41.0,40,60,14.0,0.0
5963,72.0,0,40,6.0,0.0
5964,60.0,0,40,4.0,0.0
5965,60.0,1,40,6.0,0.0
5966,48.0,2,40,5.0,0.0
5967,48.0,1,15,15.0,0.0
5968,48.0,15,15,15.0,0.0
5969,60.0,1,40,4.0,0.0
5970,60.0,0,40,6.0,0.0
5971,72.0,0,40,6.0,0.0
5972,48.0,2,40,5.0,0.0
5973,48.0,15,15,15.0,0.0
5974,82.0,20,15,10.0,0.0
5975,60.0,1,40,4.0,0.0
5976,55.0,1,60,11.0,0.0
5977,64.0,0,60,11.0,0.0
5978,58.0,2,60,12.0,0.0
5979,48.0,2,40,5.0,0.0
5980,48.0,0,60,13.0,0.0
5981,48.0,6,15,15.0,0.0
5982,36.0,4,60,14.0,0.0
5983,81.0,16,15,10.0,0.0
5984,84.0,11,15,10.0,0.0
5985,48.0,2,15,15.0,0.0
5986,82.0,20,15,10.0,0.0
5987,60.0,1,40,4.0,0.0
5988,82.0,0,60,1.0,0.0
5989,76.0,1,60,1.0,0.0
5990,76.0,0,60,2.0,0.0
5991,70.0,2,60,2.0,0.0
5992,48.0,2,40,5.0,0.0
5993,48.0,1,40,15.0,0.0
5994,67.0,0,60,3.0,0.0
5995,60.0,5,60,3.0,0.0
5996,81.0,16,15,10.0,0.0
5997,79.0,11,15,10.0,0.0
5998,48.0,1,15,15.0,0.0
5999,77.0,20,15,10.0,0.0
6000,55.0,1,60,11.0,0.0
6001,64.0,0,60,11.0,0.0
6002,58.0,2,60,12.0,0.0
6003,48.0,0,60,13.0,0.0
6004,36.0,4,60,14.0,0.0
6005,76.0,19,15,10.0,0.0
6006,79.0,11,15,10.0,0.0
6007,48.0,1,15,15.0,0.0
6008,77.0,20,15,10.0,0.0
6009,81.0,1,60,1.0,0.0
6010,77.0,0,60,1.0,0.0
6011,60.0,0,60,4.0,0.0
6012,69.0,2,60,2.0,0.0
6013,77.0,0,60,2.0,0.0
6014,48.0,0,60,5.0,0.0
6015,48.0,2,15,15.0,0.0
6016,65.0,0,60,3.0,0.0
6017,60.0,5,60,3.0,0.0
6018,81.0,19,15,10.0,0.0
6019,79.0,11,15,10.0,0.0
6020,77.0,1,15,10.0,0.0
6021,89.0,19,15,0.0,0.0
6022,57.0,0,60,11.0,0.0
6023,65.0,1,60,11.0,0.0
6024,60.0,2,60,12.0,0.0
6025,48.0,0,60,13.0,0.0
6026,48.0,1,15,15.0,0.0
6027,36.0,4,60,14.0,0.0
6028,76.0,1,15,10.0,0.0
6029,88.0,18,15,0.0,0.0
6030,74.0,1,15,10.0,0.0
6031,86.0,10,15,0.0,0.0
6032,72.0,1,15,10.0,0.0
6033,84.0,19,15,0.0,0.0
6034,77.0,0,60,1.0,0.0
6035,60.0,1,60,4.0,0.0
6036,81.0,0,60,1.0,0.0
6037,48.0,0,60,5.0,0.0
6038,69.0,0,60,2.0,0.0
6039,77.0,2,60,2.0,0.0
6040,48.0,2,15,15.0,0.0
6041,65.0,0,60,3.0,0.0
6042,60.0,5,60,3.0,0.0
6043,71.0,1,15,10.0,0.0
6044,83.0,18,15,0.0,0.0
6045,74.0,1,15,10.0,0.0
6046,86.0,10,15,0.0,0.0
6047,48.0,1,15,15.0,0.0
6048,72.0,1,15,10.0,0.0
6049,60.0,0,60,11.0,0.0
6050,84.0,19,15,0.0,0.0
6051,67.0,1,60,11.0,0.0
6052,64.0,2,60,12.0,0.0
6053,48.0,1,15,15.0,0.0
6054,48.0,2,60,13.0,0.0
6055,36.0,4,60,14.0,0.0
6056,71.0,1,15,10.0,0.0
6057,83.0,18,15,0.0,0.0
6058,74.0,1,15,10.0,0.0
6059,86.0,10,15,0.0,0.0
6060,48.0,0,15,15.0,0.0
6061,72.0,1,15,10.0,0.0
6062,60.0,0,60,4.0,0.0
6063,84.0,19,15,0.0,0.0
6064,70.0,0,60,1.0,0.0
6065,76.0,1,60,1.0,0.0
6066,72.0,2,60,2.0,0.0
6067,67.0,0,60,2.0,0.0
6068,48.0,0,60,5.0,0.0
6069,48.0,1,40,15.0,0.0
6070,64.0,5,60,3.0,0.0
6071,58.0,0,60,3.0,0.0
6072,74.0,1,15,10.0,0.0
6073,86.0,18,15,0.0,0.0
6074,72.0,1,15,10.0,0.0
6075,84.0,10,15,0.0,0.0
6076,70.0,1,15,10.0,0.0
6077,82.0,19,15,0.0,0.0
6078,60.0,1,60,11.0,0.0
6079,67.0,0,60,11.0,0.0
6080,64.0,2,60,12.0,0.0
6081,48.0,1,15,15.0,0.0
6082,48.0,2,60,13.0,0.0
6083,36.0,4,60,14.0,0.0
6084,69.0,1,15,10.0,0.0
6085,81.0,18,15,0.0,0.0
6086,67.0,1,15,10.0,0.0
6087,79.0,10,15,0.0,0.0
6088,48.0,1,15,15.0,0.0
6089,65.0,1,15,10.0,0.0
6090,77.0,19,15,0.0,0.0
6091,60.0,0,60,4.0,0.0
6092,69.0,0,60,1.0,0.0
6093,77.0,0,60,1.0,0.0
6094,48.0,2,60,5.0,0.0
6095,72.0,0,60,2.0,0.0
6096,65.0,0,60,2.0,0.0
6097,48.0,1,40,15.0,0.0
6098,57.0,0,60,3.0,0.0
6099,65.0,5,60,3.0,0.0
6100,69.0,1,15,10.0,0.0
6101,81.0,18,15,0.0,0.0
6102,70.0,1,15,10.0,0.0
6103,82.0,10,15,0.0,0.0
6104,48.0,1,15,15.0,0.0
6105,72.0,1,15,10.0,0.0
6106,84.0,19,15,0.0,0.0
6107,60.0,0,60,11.0,0.0
6108,69.0,1,60,11.0,0.0
6109,72.0,1,15,6.0,0.0
6110,60.0,0,15,6.0,0.0
6111,65.0,2,60,12.0,0.0
6112,48.0,2,60,13.0,0.0
6113,48.0,1,40,15.0,0.0
6114,36.0,4,60,14.0,0.0
6115,74.0,1,15,10.0,0.0
6116,86.0,18,15,0.0,0.0
6117,76.0,1,15,10.0,0.0
6118,88.0,10,15,0.0,0.0
6119,48.0,0,15,15.0,0.0
6120,77.0,20,15,10.0,0.0
6121,72.0,0,60,6.0,0.0
6122,60.0,0,60,4.0,0.0
6123,89.0,0,60,0.0,0.0
6124,77.0,1,60,1.0,0.0
6125,69.0,0,60,1.0,0.0
6126,72.0,0,60,2.0,0.0
6127,65.0,2,60,2.0,0.0
6128,48.0,0,60,5.0,0.0
6129,65.0,0,60,3.0,0.0
6130,57.0,5,60,3.0,0.0
6131,79.0,19,15,10.0,0.0
6132,81.0,11,15,10.0,0.0
6133,48.0,1,15,15.0,0.0
6134,82.0,20,15,10.0,0.0
6135,60.0,0,15,6.0,0.0
6136,55.0,0,60,11.0,0.0
6137,72.0,0,420,6.0,0.0
6138,64.0,1,60,11.0,0.0
6139,58.0,2,60,12.0,0.0
6140,48.0,1,15,15.0,0.0
6141,48.0,2,60,13.0,0.0
6142,36.0,4,60,14.0,0.0
6143,82.0,19,15,10.0,0.0
6144,82.0,11,15,10.0,0.0
6145,82.0,20,15,10.0,0.0
6146,82.0,0,60,1.0,0.0
6147,76.0,1,60,1.0,0.0
6148,60.0,0,60,4.0,0.0
6149,70.0,0,60,2.0,0.0
6150,76.0,2,60,2.0,0.0
6151,48.0,0,60,5.0,0.0
6152,48.0,0,15,15.0,0.0
6153,67.0,5,60,3.0,0.0
6154,60.0,0,60,3.0,0.0
6155,81.0,19,15,10.0,0.0
6156,79.0,11,15,10.0,0.0
6157,48.0,1,15,15.0,0.0
6158,77.0,20,15,10.0,0.0
6159,64.0,0,60,11.0,0.0
6160,55.0,1,60,11.0,0.0
6161,58.0,2,60,12.0,0.0
6162,48.0,1,15,15.0,0.0
6163,48.0,0,60,13.0,0.0
6164,36.0,4,60,14.0,0.0
6165,76.0,19,15,10.0,0.0
6166,79.0,11,15,10.0,0.0
6167,48.0,1,15,15.0,0.0
6168,77.0,1,15,10.0,0.0
6169,89.0,19,15,0.0,0.0
6170,60.0,0,60,4.0,0.0
6171,77.0,1,60,1.0,0.0
6172,81.0,0,60,1.0,0.0
6173,69.0,0,60,2.0,0.0
6174,77.0,2,60,2.0,0.0
6175,48.0,0,60,5.0,0.0
6176,48.0,2,15,15.0,0.0
6177,65.0,0,60,3.0,0.0
6178,60.0,5,60,3.0,0.0
6179,77.0,1,15,10.0,0.0
6180,89.0,18,15,0.0,0.0
6181,77.0,1,15,10.0,0.0
6182,89.0,10,15,0.0,0.0
6183,48.0,1,15,15.0,0.0
6184,77.0,1,15,10.0,0.0
6185,65.0,0,60,11.0,0.0
6186,89.0,19,15,0.0,0.0
6187,57.0,1,60,11.0,0.0
6188,60.0,2,60,12.0,0.0
6189,48.0,2,60,13.0,0.0
6190,48.0,1,40,15.0,0.0
6191,36.0,4,60,14.0,0.0
6192,76.0,1,15,10.0,0.0
6193,88.0,18,15,0.0,0.0
6194,74.0,1,15,10.0,0.0
6195,86.0,10,15,0.0,0.0
6196,72.0,1,15,10.0,0.0
6197,60.0,0,60,4.0,0.0
6198,77.0,0,60,1.0,0.0
6199,81.0,1,60,1.0,0.0
6200,84.0,19,15,0.0,0.0
6201,77.0,0,60,2.0,0.0
6202,48.0,2,60,5.0,0.0
6203,69.0,0,60,2.0,0.0
6204,48.0,0,15,15.0,0.0
6205,60.0,0,60,3.0,0.0
6206,65.0,5,60,3.0,0.0
6207,71.0,1,15,10.0,0.0
6208,83.0,18,15,0.0,0.0
6209,74.0,1,15,10.0,0.0
6210,86.0,10,15,0.0,0.0
6211,48.0,1,15,15.0,0.0
6212,72.0,1,15,10.0,0.0
6213,84.0,19,15,0.0,0.0
6214,67.0,0,60,11.0,0.0
6215,58.0,1,60,11.0,0.0
6216,64.0,2,60,12.0,0.0
6217,48.0,2,60,13.0,0.0
6218,48.0,1,40,15.0,0.0
6219,36.0,3,60,14.0,0.0
6220,71.0,1,15,10.0,0.0
6221,83.0,18,15,0.0,0.0
6222,74.0,1,15,10.0,0.0
6223,86.0,5,15,0.0,0.0
6224,48.0,6,15,15.0,0.0
6225,72.0,1,15,10.0,0.0
6226,64.0,0,60,11.0,0.0
6227,84.0,19,15,0.0,0.0
6228,60.0,0,60,6.0,0.0
6229,70.0,1,60,1.0,0.0
6230,76.0,0,60,1.0,0.0
6231,72.0,0,60,6.0,0.0
6232,67.0,2,60,2.0,0.0
6233,70.0,0,60,2.0,0.0
6234,58.0,0,60,12.0,0.0
6235,48.0,2,60,5.0,0.0
6236,48.0,1,60,13.0,0.0
6237,64.0,0,60,3.0,0.0
6238,58.0,1,60,3.0,0.0
6239,36.0,0,60,14.0,0.0
6240,74.0,1,15,10.0,0.0
6241,86.0,18,15,0.0,0.0
6242,72.0,1,15,10.0,0.0
6243,84.0,5,15,0.0,0.0
6244,48.0,1,15,15.0,0.0
6245,70.0,1,15,10.0,0.0
6246,60.0,1,15,4.0,0.0
6247,72.0,0,60,6.0,0.0
6248,82.0,19,15,0.0,0.0
6249,64.0,0,60,11.0,0.0
6250,70.0,1,60,1.0,0.0
6251,76.0,0,60,1.0,0.0
6252,58.0,0,60,12.0,0.0
6253,48.0,2,60,5.0,0.0
6254,70.0,0,60,2.0,0.0
6255,67.0,2,60,2.0,0.0
6256,48.0,1,60,13.0,0.0
6257,64.0,0,60,3.0,0.0
6258,58.0,1,60,3.0,0.0
6259,36.0,0,60,14.0,0.0
6260,69.0,1,15,10.0,0.0
6261,81.0,18,15,0.0,0.0
6262,67.0,1,15,10.0,0.0
6263,79.0,5,15,0.0,0.0
6264,48.0,1,15,15.0,0.0
6265,65.0,1,60,10.0,0.0
6266,60.0,0,15,4.0,0.0
6267,77.0,0,60,1.0,0.0
6268,69.0,0,60,1.0,0.0
6269,60.0,1,15,6.0,0.0
6270,77.0,0,60,0.0,0.0
6271,57.0,0,60,11.0,0.0
6272,72.0,0,60,6.0,0.0
6273,65.0,0,60,2.0,0.0
6274,53.0,0,60,5.0,0.0
6275,69.0,0,60,2.0,0.0
6276,57.0,2,60,12.0,0.0
6277,48.0,56,15,15.0,0.0
6278,53.0,0,60,13.0,0.0
6279,57.0,0,60,3.0,0.0
6280,65.0,1,60,3.0,0.0
6281,41.0,114,60,14.0,0.0
6282,72.0,1,60,10.0,0.0
6283,60.0,29,60,11.0,0.0
6284,77.0,1,30,10.0,0.0
6285,65.0,149,30,11.0,0.0
6286,60.0,5,60,10.0,0.0
6287,48.0,34,60,3.0,0.0
6288,65.0,5,40,10.0,0.0
6289,53.0,55,40,3.0,0.0
6290,65.0,5,40,10.0,0.0
6291,53.0,76,40,3.0,0.0
6292,65.0,1,60,10.0,0.0
6293,84.0,48,180,1.0,0.0
6294,60.0,1,60,4.0,0.0
6295,48.0,2,60,5.0,0.0
6296,60.0,0,60,12.0,0.0
6297,57.0,1,60,13.0,0.0
6298,53.0,1,60,3.0,0.0
6299,45.0,25,60,14.0,0.0
6300,69.0,5,40,10.0,0.0
6301,65.0,1,30,4.0,0.0
6302,57.0,2,30,12.0,0.0
6303,53.0,0,30,5.0,0.0
6304,53.0,2,30,13.0,0.0
6305,57.0,47,40,3.0,0.0
6306,41.0,3,30,14.0,0.0
6307,69.0,5,40,10.0,0.0
6308,65.0,1,30,4.0,0.0
6309,53.0,7,30,5.0,0.0
6310,57.0,14,40,3.0,0.0
6311,69.0,1,60,10.0,0.0
6312,69.0,1,60,4.0,0.0
6313,81.0,12,40,1.0,0.0
6314,65.0,0,60,11.0,0.0
6315,57.0,2,60,5.0,0.0
6316,60.0,2,90,12.0,0.0
6317,53.0,1,60,13.0,0.0
6318,53.0,1,60,3.0,0.0
6319,57.0,0,60,3.0,0.0
6320,41.0,24,60,14.0,0.0
6321,77.0,2,15,1.0,0.0
6322,70.0,1,30,10.0,0.0
6323,67.0,0,30,11.0,0.0
6324,72.0,1,30,4.0,0.0
6325,72.0,1,60,1.0,0.0
6326,76.0,0,60,1.0,0.0
6327,60.0,0,30,5.0,0.0
6328,48.0,2,30,13.0,0.0
6329,58.0,21,60,3.0,0.0
6330,55.0,0,60,3.0,0.0
6331,36.0,25,30,14.0,0.0
6332,70.0,1,20,10.0,0.0
6333,76.0,4,40,1.0,0.0
6334,60.0,1,30,4.0,0.0
6335,67.0,7,20,11.0,0.0
6336,72.0,0,40,1.0,0.0
6337,48.0,14,30,5.0,0.0
6338,58.0,3,40,3.0,0.0
6339,55.0,0,40,3.0,0.0
6340,69.0,1,15,10.0,0.0
6341,74.0,0,15,1.0,0.0
6342,65.0,7,15,11.0,0.0
6343,77.0,4,15,1.0,0.0
6344,53.0,18,15,3.0,0.0
6345,57.0,0,15,3.0,0.0
6346,67.0,1,20,10.0,0.0
6347,60.0,1,30,4.0,0.0
6348,76.0,4,40,1.0,0.0
6349,64.0,7,20,11.0,0.0
6350,79.0,0,40,1.0,0.0
6351,48.0,14,30,5.0,0.0
6352,60.0,2,90,12.0,0.0
6353,48.0,2,60,13.0,0.0
6354,55.0,3,40,3.0,0.0
6355,52.0,0,40,3.0,0.0
6356,36.0,9,60,14.0,0.0
6357,65.0,1,15,10.0,0.0
6358,81.0,4,15,1.0,0.0
6359,62.0,4,15,11.0,0.0
6360,77.0,0,15,1.0,0.0
6361,53.0,2,15,3.0,0.0
6362,50.0,0,15,3.0,0.0
6363,64.0,1,15,10.0,0.0
6364,79.0,0,120,1.0,0.0
6365,82.0,4,120,1.0,0.0
6366,60.0,16,15,11.0,0.0
6367,60.0,1,120,4.0,0.0
6368,48.0,13,120,5.0,0.0
6369,60.0,2,30,13.0,0.0
6370,48.0,1,120,3.0,0.0
6371,52.0,0,120,3.0,0.0
6372,48.0,9,30,14.0,0.0
6373,72.0,1,15,10.0,0.0
6374,60.0,29,15,11.0,0.0
6375,72.0,1,15,10.0,0.0
6376,60.0,29,15,11.0,0.0
6377,72.0,1,15,10.0,0.0
6378,60.0,10,15,11.0,0.0
6379,72.0,1,15,10.0,0.0
6380,67.0,0,60,4.0,0.0
6381,60.0,29,15,11.0,0.0
6382,72.0,1,120,1.0,0.0
6383,76.0,1,60,1.0,0.0
6384,70.0,0,60,12.0,0.0
6385,60.0,2,60,5.0,0.0
6386,58.0,2,60,13.0,0.0
6387,46.0,9,60,14.0,0.0
6388,72.0,1,15,10.0,0.0
6389,60.0,15,15,11.0,0.0
6390,72.0,1,15,10.0,0.0
6391,60.0,16,15,11.0,0.0
6392,77.0,0,60,1.0,0.0
6393,65.0,0,60,4.0,0.0
6394,69.0,2,30,12.0,0.0
6395,57.0,13,60,5.0,0.0
6396,57.0,2,30,13.0,0.0
6397,45.0,9,30,14.0,0.0
6398,72.0,1,15,10.0,0.0
6399,60.0,15,15,11.0,0.0
6400,72.0,1,15,10.0,0.0
6401,76.0,0,60,1.0,0.0
6402,79.0,0,60,1.0,0.0
6403,67.0,1,60,4.0,0.0
6404,60.0,16,15,11.0,0.0
6405,67.0,2,30,12.0,0.0
6406,60.0,13,60,5.0,0.0
6407,55.0,2,30,13.0,0.0
6408,43.0,9,30,14.0,0.0
6409,72.0,1,15,10.0,0.0
6410,60.0,15,15,11.0,0.0
6411,72.0,1,15,10.0,0.0
6412,81.0,3,60,1.0,0.0
6413,77.0,0,60,1.0,0.0
6414,69.0,1,60,4.0,0.0
6415,60.0,16,15,11.0,0.0
6416,65.0,13,60,5.0,0.0
6417,65.0,2,30,12.0,0.0
6418,53.0,2,30,13.0,0.0
6419,41.0,9,30,14.0,0.0
6420,72.0,1,15,10.0,0.0
6421,60.0,12,15,11.0,0.0
6422,72.0,1,15,10.0,0.0
6423,60.0,16,15,11.0,0.0
6424,70.0,1,120,4.0,0.0
6425,79.0,0,120,1.0,0.0
6426,82.0,1,90,1.0,0.0
6427,67.0,13,120,5.0,0.0
6428,64.0,2,30,12.0,0.0
6429,52.0,2,30,13.0,0.0
6430,40.0,9,30,14.0,0.0
6431,72.0,1,15,10.0,0.0
6432,60.0,29,15,11.0,0.0
6433,72.0,1,15,10.0,0.0
6434,60.0,15,15,11.0,0.0
6435,60.0,2,30,12.0,0.0
6436,48.0,2,30,13.0,0.0
6437,36.0,9,30,14.0,0.0
6438,72.0,1,15,10.0,0.0
6439,60.0,15,15,11.0,0.0
6440,84.0,0,30,1.0,0.0
6441,72.0,1,15,10.0,0.0
6442,60.0,15,15,11.0,0.0
6443,69.0,1,60,4.0,0.0
6444,77.0,0,30,1.0,0.0
6445,81.0,1,30,1.0,0.0
6446,65.0,2,30,12.0,0.0
6447,65.0,13,60,5.0,0.0
6448,53.0,2,30,13.0,0.0
6449,41.0,9,30,14.0,0.0
6450,72.0,1,15,10.0,0.0
6451,60.0,15,15,11.0,0.0
6452,72.0,1,15,10.0,0.0
6453,60.0,16,15,11.0,0.0
6454,76.0,15,40,1.0,0.0
6455,79.0,0,40,1.0,0.0
6456,60.0,2,30,12.0,0.0
6457,60.0,13,60,5.0,0.0
6458,48.0,2,30,13.0,0.0
6459,36.0,9,30,14.0,0.0
6460,72.0,1,15,10.0,0.0
6461,60.0,0,15,11.0,0.0
6462,72.0,1,15,10.0,0.0
6463,67.0,1,15,4.0,0.0
6464,60.0,16,15,11.0,0.0
6465,76.0,0,40,1.0,0.0
6466,79.0,0,40,1.0,0.0
6467,72.0,3,40,2.0,0.0
6468,64.0,0,30,12.0,0.0
6469,55.0,2,30,12.0,0.0
6470,48.0,2,30,13.0,0.0
6471,60.0,11,40,3.0,0.0
6472,36.0,9,30,14.0,0.0
6473,72.0,1,15,10.0,0.0
6474,60.0,1,15,11.0,0.0
6475,72.0,1,15,10.0,0.0
6476,60.0,16,15,11.0,0.0
6477,79.0,0,40,1.0,0.0
6478,76.0,1,40,1.0,0.0
6479,67.0,1,15,4.0,0.0
6480,55.0,2,30,12.0,0.0
6481,64.0,0,30,12.0,0.0
6482,72.0,3,40,2.0,0.0
6483,60.0,13,15,5.0,0.0
6484,48.0,2,30,13.0,0.0
6485,60.0,11,40,3.0,0.0
6486,36.0,9,30,14.0,0.0
6487,72.0,1,15,10.0,0.0
6488,60.0,0,15,11.0,0.0
6489,72.0,1,15,10.0,0.0
6490,60.0,29,15,11.0,0.0
6491,76.0,1,120,1.0,0.0
6492,79.0,0,120,1.0,0.0
6493,67.0,1,60,4.0,0.0
6494,55.0,2,120,12.0,0.0
6495,64.0,0,120,12.0,0.0
6496,60.0,13,60,5.0,0.0
6497,72.0,0,120,2.0,0.0
6498,48.0,1,120,13.0,0.0
6499,60.0,1,120,3.0,0.0
6500,36.0,9,120,14.0,0.0
6501,72.0,1,15,10.0,0.0
6502,60.0,15,15,11.0,0.0
6503,72.0,1,15,10.0,0.0
6504,60.0,29,15,11.0,0.0
6505,72.0,1,15,10.0,0.0
6506,60.0,15,15,11.0,0.0
6507,73.0,1,15,10.0,0.0
6508,61.0,29,15,11.0,0.0
6509,73.0,8,60,2.0,0.0
6510,61.0,10,60,3.0,0.0
6511,73.0,1,15,10.0,0.0
6512,61.0,11,15,11.0,0.0
6513,74.0,1,15,10.0,0.0
6514,74.0,1,60,1.0,0.0
6515,79.0,0,60,1.0,0.0
6516,62.0,16,15,11.0,0.0
6517,74.0,0,60,2.0,0.0
6518,70.0,2,30,12.0,0.0
6519,67.0,3,60,2.0,0.0
6520,58.0,2,30,13.0,0.0
6521,62.0,10,60,3.0,0.0
6522,46.0,9,30,14.0,0.0
6523,74.0,1,15,10.0,0.0
6524,62.0,15,15,11.0,0.0
6525,74.0,1,15,10.0,0.0
6526,62.0,16,15,11.0,0.0
6527,78.0,1,60,1.0,0.0
6528,81.0,0,60,1.0,0.0
6529,66.0,0,60,2.0,0.0
6530,69.0,13,60,2.0,0.0
6531,69.0,2,30,12.0,0.0
6532,57.0,2,30,13.0,0.0
6533,45.0,9,30,14.0,0.0
6534,74.0,1,15,10.0,0.0
6535,62.0,15,15,11.0,0.0
6536,74.0,1,15,10.0,0.0
6537,62.0,16,15,11.0,0.0
6538,82.0,0,60,1.0,0.0
6539,79.0,1,60,1.0,0.0
6540,67.0,2,30,12.0,0.0
6541,67.0,0,60,2.0,0.0
6542,70.0,18,60,2.0,0.0
6543,55.0,2,30,13.0,0.0
6544,43.0,9,30,14.0,0.0
6545,74.0,1,15,10.0,0.0
6546,62.0,10,15,11.0,0.0
6547,74.0,1,15,10.0,0.0
6548,62.0,16,15,11.0,0.0
6549,84.0,1,90,1.0,0.0
6550,81.0,0,120,1.0,0.0
6551,72.0,2,90,2.0,0.0
6552,69.0,13,120,2.0,0.0
6553,66.0,2,30,12.0,0.0
6554,54.0,2,30,13.0,0.0
6555,42.0,9,30,14.0,0.0
6556,74.0,1,15,10.0,0.0
6557,62.0,29,15,11.0,0.0
6558,74.0,1,15,10.0,0.0
6559,62.0,15,15,11.0,0.0
6560,62.0,0,30,12.0,0.0
6561,50.0,2,30,13.0,0.0
6562,38.0,9,30,14.0,0.0
6563,74.0,1,15,10.0,0.0
6564,86.0,1,30,1.0,0.0
6565,62.0,15,15,11.0,0.0
6566,74.0,0,30,2.0,0.0
6567,74.0,1,15,10.0,0.0
6568,62.0,15,15,11.0,0.0
6569,82.0,0,30,1.0,0.0
6570,79.0,1,30,1.0,0.0
6571,70.0,0,30,2.0,0.0
6572,67.0,0,30,12.0,0.0
6573,67.0,2,30,2.0,0.0
6574,55.0,2,30,13.0,0.0
6575,43.0,9,30,14.0,0.0
6576,74.0,1,15,10.0,0.0
6577,62.0,29,15,11.0,0.0
6578,74.0,1,15,10.0,0.0
6579,81.0,1,40,1.0,0.0
6580,78.0,0,40,1.0,0.0
6581,62.0,16,15,11.0,0.0
6582,62.0,2,30,12.0,0.0
6583,66.0,28,40,2.0,0.0
6584,69.0,0,40,2.0,0.0
6585,50.0,2,30,13.0,0.0
6586,38.0,9,30,14.0,0.0
6587,74.0,1,15,10.0,0.0
6588,62.0,0,15,11.0,0.0
6589,74.0,1,15,10.0,0.0
6590,81.0,1,40,1.0,0.0
6591,78.0,0,40,1.0,0.0
6592,62.0,16,15,11.0,0.0
6593,66.0,2,30,12.0,0.0
6594,74.0,3,40,2.0,0.0
6595,57.0,0,30,12.0,0.0
6596,50.0,2,30,13.0,0.0
6597,62.0,25,40,3.0,0.0
6598,38.0,9,30,14.0,0.0
6599,74.0,1,15,10.0,0.0
6600,62.0,0,15,11.0,0.0
6601,74.0,1,15,10.0,0.0
6602,78.0,0,40,1.0,0.0
6603,81.0,1,40,1.0,0.0
6604,62.0,16,15,11.0,0.0
6605,66.0,2,30,12.0,0.0
6606,57.0,0,30,12.0,0.0
6607,74.0,3,40,2.0,0.0
6608,50.0,2,30,13.0,0.0
6609,62.0,25,40,3.0,0.0
6610,38.0,9,30,14.0,0.0
6611,74.0,1,15,10.0,0.0
6612,62.0,0,15,11.0,0.0
6613,74.0,1,15,10.0,0.0
6614,81.0,0,60,1.0,0.0
6615,62.0,29,15,11.0,0.0
6616,78.0,1,60,1.0,0.0
6617,66.0,0,60,12.0,0.0
6618,57.0,2,60,12.0,0.0
6619,74.0,0,60,2.0,0.0
6620,50.0,1,60,13.0,0.0
6621,62.0,1,60,3.0,0.0
6622,38.0,9,60,14.0,0.0
6623,74.0,1,15,10.0,0.0
6624,62.0,15,15,11.0,0.0
6625,75.0,1,15,10.0,0.0
6626,63.0,29,15,11.0,0.0
6627,75.0,3,60,2.0,0.0
6628,63.0,10,60,3.0,0.0
6629,75.0,1,15,10.0,0.0
6630,63.0,16,15,11.0,0.0
6631,76.0,1,15,10.0,0.0
6632,64.0,29,15,11.0,0.0
6633,76.0,3,60,2.0,0.0
6634,64.0,15,60,3.0,0.0
6635,76.0,1,15,10.0,0.0
6636,64.0,11,15,11.0,0.0
6637,77.0,1,15,10.0,0.0
6638,65.0,1,60,1.0,0.0
6639,82.0,0,60,0.0,0.0
6640,65.0,29,15,11.0,0.0
6641,70.0,0,60,1.0,0.0
6642,53.0,0,60,5.0,0.0
6643,58.0,2,60,12.0,0.0
6644,70.0,0,60,2.0,0.0
6645,77.0,0,60,2.0,0.0
6646,62.0,1,60,13.0,0.0
6647,58.0,0,60,3.0,0.0
6648,50.0,9,60,14.0,0.0
6649,77.0,1,15,10.0,0.0
6650,65.0,15,15,11.0,0.0
6651,77.0,1,15,10.0,0.0
6652,84.0,0,60,0.0,0.0
6653,72.0,1,60,1.0,0.0
6654,69.0,0,60,1.0,0.0
6655,65.0,0,15,4.0,0.0
6656,65.0,29,15,11.0,0.0
6657,72.0,0,60,2.0,0.0
6658,60.0,2,60,12.0,0.0
6659,60.0,1,60,13.0,0.0
6660,60.0,0,60,3.0,0.0
6661,65.0,1,15,3.0,0.0
6662,48.0,9,60,14.0,0.0
6663,77.0,1,15,10.0,0.0
6664,65.0,15,15,11.0,0.0
6665,77.0,1,15,10.0,0.0
6666,65.0,29,15,11.0,0.0
6667,86.0,0,60,0.0,0.0
6668,74.0,0,60,1.0,0.0
6669,70.0,1,60,1.0,0.0
6670,77.0,0,15,2.0,0.0
6671,53.0,0,15,5.0,0.0
6672,62.0,2,60,12.0,0.0
6673,74.0,0,60,2.0,0.0
6674,58.0,1,60,13.0,0.0
6675,62.0,0,60,3.0,0.0
6676,65.0,1,60,3.0,0.0
6677,46.0,0,60,14.0,0.0
6678,77.0,1,15,10.0,0.0
6679,65.0,10,15,11.0,0.0
6680,77.0,1,15,10.0,0.0
6681,65.0,1,15,4.0,0.0
6682,75.0,0,90,1.0,0.0
6683,72.0,0,120,1.0,0.0
6684,65.0,29,15,11.0,0.0
6685,87.0,1,90,0.0,0.0
6686,72.0,2,120,2.0,0.0
6687,75.0,3,90,2.0,0.0
6688,60.0,2,60,12.0,0.0
6689,53.0,13,15,5.0,0.0
6690,57.0,2,60,13.0,0.0
6691,63.0,10,90,3.0,0.0
6692,60.0,1,120,3.0,0.0
6693,45.0,9,60,14.0,0.0
6694,77.0,1,15,10.0,0.0
6695,65.0,16,15,11.0,0.0
6696,77.0,1,15,10.0,0.0
6697,65.0,15,15,11.0,0.0
6698,57.0,0,60,12.0,0.0
6699,53.0,1,60,13.0,0.0
6700,41.0,9,60,14.0,0.0
6701,77.0,1,15,10.0,0.0
6702,65.0,15,15,11.0,0.0
6703,77.0,1,30,1.0,0.0
6704,89.0,0,30,0.0,0.0
6705,77.0,0,30,2.0,0.0
6706,65.0,0,30,3.0,0.0
6707,74.0,1,15,10.0,0.0
6708,86.0,1,30,0.0,0.0
6709,74.0,0,30,1.0,0.0
6710,62.0,15,15,11.0,0.0
6711,65.0,0,15,4.0,0.0
6712,53.0,0,15,5.0,0.0
6713,53.0,2,60,12.0,0.0
6714,74.0,3,30,2.0,0.0
6715,58.0,2,60,13.0,0.0
6716,62.0,10,30,3.0,0.0
6717,46.0,0,60,14.0,0.0
6718,74.0,1,15,10.0,0.0
6719,62.0,11,15,11.0,0.0
6720,74.0,1,15,10.0,0.0
6721,72.0,0,90,1.0,0.0
6722,84.0,1,90,0.0,0.0
6723,62.0,29,15,11.0,0.0
6724,69.0,1,120,1.0,0.0
6725,69.0,2,60,12.0,0.0
6726,69.0,0,120,2.0,0.0
6727,72.0,3,90,2.0,0.0
6728,54.0,2,60,13.0,0.0
6729,60.0,10,90,3.0,0.0
6730,57.0,1,120,3.0,0.0
6731,42.0,9,60,14.0,0.0
6732,74.0,1,15,10.0,0.0
6733,62.0,16,15,11.0,0.0
6734,74.0,1,15,10.0,0.0
6735,62.0,15,15,11.0,0.0
6736,66.0,0,60,12.0,0.0
6737,50.0,1,60,13.0,0.0
6738,38.0,9,60,14.0,0.0
6739,74.0,1,15,10.0,0.0
6740,62.0,15,15,11.0,0.0
6741,86.0,0,30,0.0,0.0
6742,74.0,0,30,1.0,0.0
6743,74.0,2,30,2.0,0.0
6744,62.0,0,30,3.0,0.0
6745,74.0,1,15,10.0,0.0
6746,83.0,0,30,0.0,0.0
6747,71.0,1,30,1.0,0.0
6748,67.0,0,30,1.0,0.0
6749,62.0,15,15,11.0,0.0
6750,67.0,3,30,2.0,0.0
6751,62.0,2,60,12.0,0.0
6752,71.0,0,30,2.0,0.0
6753,55.0,2,60,13.0,0.0
6754,59.0,0,30,3.0,0.0
6755,55.0,10,30,3.0,0.0
6756,43.0,14,60,14.0,0.0
6757,74.0,1,15,10.0,0.0
6758,62.0,11,15,11.0,0.0
6759,72.0,1,15,10.0,0.0
6760,60.0,0,120,4.0,0.0
6761,70.0,1,90,1.0,0.0
6762,67.0,0,120,1.0,0.0
6763,60.0,29,15,11.0,0.0
6764,82.0,0,90,0.0,0.0
6765,67.0,0,120,2.0,0.0
6766,67.0,2,60,12.0,0.0
6767,48.0,2,120,5.0,0.0
6768,70.0,3,90,2.0,0.0
6769,52.0,2,60,13.0,0.0
6770,58.0,10,90,3.0,0.0
6771,55.0,1,120,3.0,0.0
6772,40.0,9,60,14.0,0.0
6773,72.0,1,15,10.0,0.0
6774,60.0,16,15,11.0,0.0
6775,72.0,1,15,10.0,0.0
6776,60.0,15,15,11.0,0.0
6777,64.0,0,60,12.0,0.0
6778,48.0,1,60,13.0,0.0
6779,36.0,9,60,14.0,0.0
6780,72.0,1,15,10.0,0.0
6781,84.0,1,30,0.0,0.0
6782,72.0,0,30,1.0,0.0
6783,60.0,15,15,11.0,0.0
6784,72.0,0,30,2.0,0.0
6785,60.0,0,30,3.0,0.0
6786,72.0,1,15,10.0,0.0
6787,60.0,0,60,4.0,0.0
6788,69.0,0,30,1.0,0.0
6789,65.0,1,30,1.0,0.0
6790,60.0,15,15,11.0,0.0
6791,81.0,0,30,0.0,0.0
6792,65.0,0,30,2.0,0.0
6793,60.0,2,60,12.0,0.0
6794,69.0,3,30,2.0,0.0
6795,48.0,13,60,5.0,0.0
6796,53.0,2,60,13.0,0.0
6797,53.0,10,30,3.0,0.0
6798,57.0,0,30,3.0,0.0
6799,41.0,1,60,14.0,0.0
6800,72.0,1,15,10.0,0.0
6801,60.0,11,15,11.0,0.0
6802,74.0,1,15,10.0,0.0
6803,74.0,0,60,1.0,0.0
6804,60.0,1,15,11.0,0.0
6805,79.0,1,60,0.0,0.0
6806,79.0,0,60,1.0,0.0
6807,58.0,28,15,12.0,0.0
6808,67.0,2,60,2.0,0.0
6809,62.0,0,60,2.0,0.0
6810,58.0,1,60,13.0,0.0
6811,62.0,1,60,3.0,0.0
6812,58.0,0,60,3.0,0.0
6813,46.0,39,60,14.0,0.0
6814,79.0,1,15,10.0,0.0
6815,60.0,1,15,11.0,0.0
6816,58.0,14,15,12.0,0.0
6817,72.0,1,60,1.0,0.0
6818,81.0,0,60,0.0,0.0
6819,81.0,0,60,1.0,0.0
6820,69.0,0,60,2.0,0.0
6821,66.0,2,60,2.0,0.0
6822,57.0,1,60,13.0,0.0
6823,57.0,0,60,3.0,0.0
6824,60.0,1,60,3.0,0.0
6825,45.0,39,60,14.0,0.0
6826,81.0,1,15,10.0,0.0
6827,66.0,1,15,11.0,0.0
6828,60.0,14,15,12.0,0.0
6829,82.0,0,60,1.0,0.0
6830,70.0,0,60,1.0,0.0
6831,82.0,1,60,0.0,0.0
6832,67.0,2,60,2.0,0.0
6833,70.0,0,60,2.0,0.0
6834,55.0,1,60,13.0,0.0
6835,58.0,1,60,3.0,0.0
6836,55.0,0,60,3.0,0.0
6837,43.0,44,60,14.0,0.0
6838,82.0,1,15,10.0,0.0
6839,67.0,1,15,11.0,0.0
6840,62.0,9,15,12.0,0.0
6841,69.0,0,240,1.0,0.0
6842,69.0,0,240,4.0,0.0
6843,77.0,0,240,1.0,0.0
6844,77.0,1,240,0.0,0.0
6845,69.0,0,240,2.0,0.0
6846,65.0,2,240,5.0,0.0
6847,65.0,0,240,2.0,0.0
6848,60.0,0,60,13.0,0.0
6849,48.0,2,60,15.0,0.0
6850,57.0,52,240,3.0,0.0
6851,53.0,0,240,3.0,0.0
6852,48.0,9,60,14.0,0.0
6853,84.0,1,15,10.0,0.0
6854,72.0,1,15,11.0,0.0
6855,57.0,17,15,12.0,0.0
6856,81.0,1,15,10.0,0.0
6857,69.0,1,15,11.0,0.0
6858,60.0,28,15,12.0,0.0
6859,48.0,0,60,13.0,0.0
6860,77.0,1,15,10.0,0.0
6861,65.0,1,15,11.0,0.0
6862,57.0,17,15,12.0,0.0
6863,72.0,1,15,10.0,0.0
6864,60.0,1,15,11.0,0.0
6865,60.0,28,15,12.0,0.0
6866,48.0,2,15,15.0,0.0
6867,36.0,9,15,14.0,0.0
6868,69.0,1,15,10.0,0.0
6869,57.0,1,15,11.0,0.0
6870,57.0,17,15,12.0,0.0
6871,65.0,1,60,10.0,0.0
6872,57.0,0,60,11.0,0.0
6873,60.0,27,30,12.0,0.0
6874,48.0,0,15,13.0,0.0
6875,48.0,2,15,15.0,0.0
6876,36.0,0,60,14.0,0.0
6877,67.0,1,60,10.0,0.0
6878,79.0,0,60,1.0,0.0
6879,70.0,0,60,1.0,0.0
6880,70.0,1,60,4.0,0.0
6881,58.0,0,60,11.0,0.0
6882,79.0,0,60,0.0,0.0
6883,48.0,2,60,12.0,0.0
6884,67.0,0,60,5.0,0.0
6885,70.0,2,60,2.0,0.0
6886,48.0,1,60,15.0,0.0
6887,48.0,1,60,13.0,0.0
6888,55.0,0,60,3.0,0.0
6889,58.0,50,60,3.0,0.0
6890,36.0,0,60,14.0,0.0
6891,64.0,1,60,10.0,0.0
6892,67.0,0,60,1.0,0.0
6893,76.0,0,60,1.0,0.0
6894,55.0,1,60,11.0,0.0
6895,67.0,0,60,4.0,0.0
6896,76.0,0,60,0.0,0.0
6897,67.0,0,15,2.0,0.0
6898,64.0,2,60,2.0,0.0
6899,60.0,2,60,5.0,0.0
6900,48.0,0,60,12.0,0.0
6901,48.0,1,60,13.0,0.0
6902,48.0,27,60,15.0,0.0
6903,52.0,0,60,3.0,0.0
6904,55.0,1,60,3.0,0.0
6905,36.0,1,60,14.0,0.0
6906,65.0,1,60,10.0,0.0
6907,77.0,1,60,0.0,0.0
6908,57.0,1,30,11.0,0.0
6909,69.0,0,60,1.0,0.0
6910,77.0,0,60,1.0,0.0
6911,60.0,1,30,4.0,0.0
6912,65.0,2,60,2.0,0.0
6913,53.0,19,30,12.0,0.0
6914,69.0,0,60,2.0,0.0
6915,57.0,3,30,5.0,0.0
6916,48.0,2,60,15.0,0.0
6917,41.0,0,60,13.0,0.0
6918,57.0,0,120,3.0,0.0
6919,53.0,30,120,3.0,0.0
6920,29.0,25,60,14.0,0.0
6921,65.0,1,15,11.0,0.0
6922,57.0,0,15,11.0,0.0
6923,60.0,4,15,12.0,0.0
6924,57.0,0,30,11.0,0.0
6925,60.0,1,30,4.0,0.0
6926,65.0,1,30,11.0,0.0
6927,57.0,3,30,5.0,0.0
6928,60.0,19,30,12.0,0.0
6929,57.0,1,15,11.0,0.0
6930,65.0,0,15,11.0,0.0
6931,60.0,9,15,12.0,0.0
6932,69.0,0,60,1.0,0.0
6933,65.0,1,30,11.0,0.0
6934,57.0,0,30,11.0,0.0
6935,60.0,19,30,12.0,0.0
6936,60.0,2,60,13.0,0.0
6937,48.0,25,60,14.0,0.0
6938,65.0,0,15,11.0,0.0
6939,57.0,1,15,11.0,0.0
6940,60.0,5,15,12.0,0.0
6941,57.0,1,30,11.0,0.0
6942,65.0,0,30,11.0,0.0
6943,69.0,1,30,4.0,0.0
6944,77.0,3,15,1.0,0.0
6945,81.0,3,60,1.0,0.0
6946,65.0,3,30,5.0,0.0
6947,60.0,19,30,12.0,0.0
6948,57.0,2,60,13.0,0.0
6949,45.0,25,60,14.0,0.0
6950,57.0,0,15,11.0,0.0
6951,65.0,1,15,11.0,0.0
6952,60.0,5,15,12.0,0.0
6953,69.0,1,30,4.0,0.0
6954,57.0,0,30,11.0,0.0
6955,65.0,1,30,11.0,0.0
6956,65.0,3,30,5.0,0.0
6957,60.0,19,30,12.0,0.0
6958,57.0,1,15,11.0,0.0
6959,65.0,0,15,11.0,0.0
6960,60.0,39,15,12.0,0.0
6961,72.0,1,60,10.0,0.0
6962,65.0,1,30,11.0,0.0
6963,81.0,0,60,1.0,0.0
6964,77.0,3,60,1.0,0.0
6965,57.0,0,30,11.0,0.0
6966,60.0,19,30,12.0,0.0
6967,53.0,2,60,13.0,0.0
6968,41.0,25,60,14.0,0.0
6969,57.0,1,15,11.0,0.0
6970,65.0,0,15,11.0,0.0
6971,60.0,4,15,12.0,0.0
6972,82.0,1,90,10.0,0.0
6973,76.0,3,60,1.0,0.0
6974,82.0,0,60,1.0,0.0
6975,55.0,0,30,11.0,0.0
6976,64.0,1,30,11.0,0.0
6977,70.0,1,30,4.0,0.0
6978,67.0,3,30,5.0,0.0
6979,60.0,0,30,12.0,0.0
6980,58.0,19,30,12.0,0.0
6981,48.0,2,60,13.0,0.0
6982,48.0,1,240,3.0,0.0
6983,60.0,0,240,3.0,0.0
6984,36.0,24,60,14.0,0.0
6985,64.0,1,15,11.0,0.0
6986,55.0,0,15,11.0,0.0
6987,60.0,5,15,12.0,0.0
6988,58.0,0,15,12.0,0.0
6989,70.0,1,30,4.0,0.0
6990,55.0,0,30,11.0,0.0
6991,64.0,1,30,11.0,0.0
6992,67.0,3,30,5.0,0.0
6993,60.0,0,30,12.0,0.0
6994,58.0,19,30,12.0,0.0
6995,81.0,1,15,10.0,0.0
6996,64.0,0,15,11.0,0.0
6997,55.0,0,15,11.0,0.0
6998,60.0,34,15,12.0,0.0
6999,58.0,0,15,12.0,0.0
7000,79.0,5,30,10.0,0.0
7001,55.0,1,30,11.0,0.0
7002,64.0,0,30,11.0,0.0
7003,76.0,3,60,1.0,0.0
7004,82.0,0,60,1.0,0.0
7005,60.0,0,30,12.0,0.0
7006,58.0,19,30,12.0,0.0
7007,52.0,2,60,13.0,0.0
7008,40.0,24,60,14.0,0.0
7009,77.0,0,15,10.0,0.0
7010,55.0,1,15,11.0,0.0
7011,64.0,0,15,11.0,0.0
7012,60.0,0,15,12.0,0.0
7013,58.0,5,15,12.0,0.0
7014,76.0,1,30,10.0,0.0
7015,64.0,1,30,11.0,0.0
7016,76.0,0,60,1.0,0.0
7017,70.0,3,60,1.0,0.0
7018,67.0,1,30,4.0,0.0
7019,55.0,0,30,11.0,0.0
7020,60.0,19,30,12.0,0.0
7021,60.0,3,30,5.0,0.0
7022,58.0,0,30,12.0,0.0
7023,55.0,2,60,13.0,0.0
7024,43.0,24,60,14.0,0.0
7025,74.0,1,15,10.0,0.0
7026,55.0,0,15,11.0,0.0
7027,64.0,0,15,11.0,0.0
7028,58.0,4,15,12.0,0.0
7029,60.0,0,15,12.0,0.0
7030,72.0,1,30,10.0,0.0
7031,67.0,1,30,4.0,0.0
7032,64.0,0,30,11.0,0.0
7033,55.0,1,30,11.0,0.0
7034,70.0,9,40,2.0,0.0
7035,58.0,0,30,12.0,0.0
7036,60.0,5,30,12.0,0.0
7037,60.0,3,30,5.0,0.0
7038,67.0,0,40,2.0,0.0
7039,60.0,5,40,3.0,0.0
7040,48.0,0,40,3.0,0.0
7041,70.0,0,15,10.0,0.0
7042,55.0,0,15,11.0,0.0
7043,64.0,1,15,11.0,0.0
7044,58.0,0,15,12.0,0.0
7045,60.0,34,15,12.0,0.0
7046,69.0,5,30,10.0,0.0
7047,55.0,0,30,11.0,0.0
7048,64.0,1,30,11.0,0.0
7049,76.0,0,60,1.0,0.0
7050,70.0,1,60,1.0,0.0
7051,70.0,0,60,2.0,0.0
7052,60.0,14,30,12.0,0.0
7053,58.0,0,30,12.0,0.0
7054,67.0,2,60,2.0,0.0
7055,60.0,2,60,13.0,0.0
7056,60.0,0,40,3.0,0.0
7057,48.0,5,40,3.0,0.0
7058,48.0,25,60,14.0,0.0
7059,67.0,0,15,10.0,0.0
7060,55.0,1,15,11.0,0.0
7061,64.0,0,15,11.0,0.0
7062,60.0,0,15,12.0,0.0
7063,58.0,5,15,12.0,0.0
7064,65.0,1,60,10.0,0.0
7065,77.0,0,60,1.0,0.0
7066,69.0,1,60,1.0,0.0
7067,57.0,1,30,11.0,0.0
7068,65.0,0,30,11.0,0.0
7069,65.0,1,30,4.0,0.0
7070,57.0,0,30,12.0,0.0
7071,57.0,3,30,5.0,0.0
7072,65.0,2,60,2.0,0.0
7073,60.0,19,30,12.0,0.0
7074,69.0,0,60,2.0,0.0
7075,53.0,1,60,13.0,0.0
7076,60.0,1,60,3.0,0.0
7077,48.0,0,60,3.0,0.0
7078,41.0,25,60,14.0,0.0
7079,57.0,1,15,11.0,0.0
7080,65.0,0,15,11.0,0.0
7081,60.0,4,15,12.0,0.0
7082,65.0,0,30,11.0,0.0
7083,57.0,1,30,11.0,0.0
7084,65.0,1,30,4.0,0.0
7085,60.0,19,30,12.0,0.0
7086,57.0,3,30,5.0,0.0
7087,57.0,1,15,11.0,0.0
7088,65.0,0,15,11.0,0.0
7089,60.0,39,15,12.0,0.0
7090,69.0,3,60,1.0,0.0
7091,65.0,1,30,11.0,0.0
7092,57.0,0,30,11.0,0.0
7093,60.0,19,30,12.0,0.0
7094,60.0,2,60,13.0,0.0
7095,48.0,25,60,14.0,0.0
7096,57.0,1,15,11.0,0.0
7097,65.0,0,15,11.0,0.0
7098,60.0,5,15,12.0,0.0
7099,77.0,0,15,1.0,0.0
7100,81.0,3,60,1.0,0.0
7101,69.0,1,30,4.0,0.0
7102,65.0,0,30,11.0,0.0
7103,57.0,1,30,11.0,0.0
7104,60.0,19,30,12.0,0.0
7105,65.0,3,30,5.0,0.0
7106,57.0,2,60,13.0,0.0
7107,45.0,25,60,14.0,0.0
7108,57.0,0,15,11.0,0.0
7109,65.0,1,15,11.0,0.0
7110,60.0,5,15,12.0,0.0
7111,65.0,0,30,11.0,0.0
7112,69.0,1,30,4.0,0.0
7113,57.0,1,30,11.0,0.0
7114,65.0,3,30,5.0,0.0
7115,60.0,19,30,12.0,0.0
7116,65.0,1,15,11.0,0.0
7117,57.0,0,15,11.0,0.0
7118,60.0,39,15,12.0,0.0
7119,72.0,1,60,10.0,0.0
7120,77.0,3,60,1.0,0.0
7121,81.0,0,60,1.0,0.0
7122,65.0,1,30,11.0,0.0
7123,57.0,0,30,11.0,0.0
7124,60.0,19,30,12.0,0.0
7125,53.0,2,60,13.0,0.0
7126,41.0,25,60,14.0,0.0
7127,65.0,1,15,11.0,0.0
7128,57.0,0,15,11.0,0.0
7129,60.0,4,15,12.0,0.0
7130,82.0,8,120,10.0,0.0
7131,64.0,0,30,11.0,0.0
7132,55.0,1,30,11.0,0.0
7133,70.0,1,30,4.0,0.0
7134,76.0,0,60,1.0,0.0
7135,82.0,3,60,1.0,0.0
7136,72.0,0,240,2.0,0.0
7137,60.0,3,240,2.0,0.0
7138,60.0,19,30,12.0,0.0
7139,67.0,3,30,5.0,0.0
7140,58.0,0,30,12.0,0.0
7141,48.0,2,60,13.0,0.0
7142,60.0,1,240,3.0,0.0
7143,48.0,0,240,3.0,0.0
7144,36.0,18,60,14.0,0.0
7145,55.0,0,15,11.0,0.0
7146,64.0,1,15,11.0,0.0
7147,58.0,0,15,12.0,0.0
7148,60.0,5,15,12.0,0.0
7149,72.0,7,20,0.0,0.0
7150,64.0,1,30,11.0,0.0
7151,55.0,0,30,11.0,0.0
7152,70.0,1,30,4.0,0.0
7153,60.0,0,30,12.0,0.0
7154,67.0,3,30,5.0,0.0
7155,58.0,9,30,12.0,0.0
7156,81.0,1,15,10.0,0.0
7157,55.0,0,15,11.0,0.0
7158,64.0,1,15,11.0,0.0
7159,74.0,1,15,0.0,0.0
7160,58.0,0,15,12.0,0.0
7161,60.0,27,15,12.0,0.0
7162,79.0,1,20,10.0,0.0
7163,76.0,11,20,0.0,0.0
7164,64.0,0,30,11.0,0.0
7165,82.0,0,60,1.0,0.0
7166,55.0,1,30,11.0,0.0
7167,60.0,17,30,12.0,0.0
7168,58.0,0,30,12.0,0.0
7169,52.0,2,60,13.0,0.0
7170,40.0,17,60,14.0,0.0
7171,77.0,1,15,10.0,0.0
7172,64.0,0,15,11.0,0.0
7173,77.0,1,15,0.0,0.0
7174,55.0,1,15,11.0,0.0
7175,58.0,5,15,12.0,0.0
7176,60.0,0,15,12.0,0.0
7177,76.0,1,20,10.0,0.0
7178,67.0,1,30,4.0,0.0
7179,79.0,7,20,0.0,0.0
7180,55.0,1,30,11.0,0.0
7181,76.0,3,15,1.0,0.0
7182,70.0,0,60,1.0,0.0
7183,64.0,0,30,11.0,0.0
7184,60.0,3,30,5.0,0.0
7185,60.0,17,30,12.0,0.0
7186,58.0,0,30,12.0,0.0
7187,55.0,2,60,13.0,0.0
7188,43.0,17,60,14.0,0.0
7189,74.0,1,15,10.0,0.0
7190,64.0,1,15,11.0,0.0
7191,55.0,0,15,11.0,0.0
7192,81.0,1,15,0.0,0.0
7193,58.0,0,15,12.0,0.0
7194,60.0,1,15,12.0,0.0
7195,72.0,1,20,10.0,0.0
7196,64.0,1,30,11.0,0.0
7197,82.0,7,20,0.0,0.0
7198,67.0,1,30,4.0,0.0
7199,55.0,0,30,11.0,0.0
7200,60.0,5,30,12.0,0.0
7201,58.0,0,30,12.0,0.0
7202,67.0,9,40,2.0,0.0
7203,60.0,3,30,5.0,0.0
7204,70.0,0,40,2.0,0.0
7205,60.0,3,40,3.0,0.0
7206,48.0,0,40,3.0,0.0
7207,70.0,1,15,10.0,0.0
7208,64.0,0,15,11.0,0.0
7209,84.0,1,15,0.0,0.0
7210,55.0,1,15,11.0,0.0
7211,58.0,0,15,12.0,0.0
7212,60.0,27,15,12.0,0.0
7213,69.0,1,20,10.0,0.0
7214,64.0,1,30,11.0,0.0
7215,86.0,11,20,0.0,0.0
7216,55.0,0,30,11.0,0.0
7217,70.0,1,60,1.0,0.0
7218,76.0,0,60,1.0,0.0
7219,67.0,0,60,2.0,0.0
7220,70.0,2,60,2.0,0.0
7221,58.0,14,30,12.0,0.0
7222,60.0,0,30,12.0,0.0
7223,60.0,2,60,13.0,0.0
7224,60.0,3,40,3.0,0.0
7225,48.0,0,40,3.0,0.0
7226,48.0,29,60,14.0,0.0
7227,67.0,1,15,10.0,0.0
7228,88.0,1,15,0.0,0.0
7229,55.0,1,15,11.0,0.0
7230,64.0,0,15,11.0,0.0
7231,60.0,5,15,12.0,0.0
7232,58.0,0,15,12.0,0.0
7233,65.0,25,40,10.0,0.0
7234,65.0,0,60,4.0,0.0
7235,77.0,0,60,1.0,0.0
7236,69.0,0,60,1.0,0.0
7237,57.0,0,60,11.0,0.0
7238,65.0,0,60,11.0,0.0
7239,89.0,1,60,0.0,0.0
7240,69.0,0,60,2.0,0.0
7241,65.0,0,60,2.0,0.0
7242,57.0,2,60,5.0,0.0
7243,60.0,0,60,12.0,0.0
7244,57.0,0,60,12.0,0.0
7245,53.0,1,60,13.0,0.0
7246,60.0,1,60,3.0,0.0
7247,48.0,0,60,3.0,0.0
7248,41.0,24,60,14.0,0.0
7249,71.0,1,15,10.0,0.0
7250,72.0,91,30,10.0,0.0
7251,67.0,1,60,4.0,0.0
7252,60.0,29,60,5.0,0.0
7253,69.0,1,30,4.0,0.0
7254,65.0,28,30,5.0,0.0
7255,71.0,30,15,10.0,0.0
7256,72.0,91,30,10.0,0.0
7257,67.0,1,60,4.0,0.0
7258,60.0,29,60,5.0,0.0
7259,65.0,1,30,4.0,0.0
7260,57.0,29,30,5.0,0.0
7261,83.0,0,15,0.0,0.0
7262,71.0,30,15,11.0,0.0
7263,72.0,0,30,11.0,0.0
7264,84.0,90,30,0.0,0.0
7265,67.0,1,60,4.0,0.0
7266,76.0,0,60,1.0,0.0
7267,79.0,0,60,1.0,0.0
7268,60.0,29,60,5.0,0.0
7269,77.0,0,30,1.0,0.0
7270,81.0,0,30,1.0,0.0
7271,69.0,1,30,4.0,0.0
7272,65.0,29,30,5.0,0.0
7273,83.0,30,15,0.0,0.0
7274,71.0,0,15,11.0,0.0
7275,72.0,89,30,11.0,0.0
7276,84.0,0,30,0.0,0.0
7277,72.0,0,60,10.0,0.0
7278,82.0,1,60,10.0,0.0
7279,67.0,0,60,4.0,0.0
7280,82.0,0,60,1.0,0.0
7281,76.0,0,60,11.0,0.0
7282,88.0,0,60,0.0,0.0
7283,76.0,1,60,1.0,0.0
7284,60.0,2,60,5.0,0.0
7285,60.0,0,60,12.0,0.0
7286,76.0,0,60,2.0,0.0
7287,70.0,0,60,2.0,0.0
7288,48.0,1,60,13.0,0.0
7289,55.0,0,60,3.0,0.0
7290,58.0,1,60,3.0,0.0
7291,36.0,24,60,14.0,0.0
7292,81.0,1,30,10.0,0.0
7293,72.0,0,30,10.0,0.0
7294,77.0,0,30,11.0,0.0
7295,89.0,1,30,0.0,0.0
7296,65.0,0,30,4.0,0.0
7297,81.0,0,30,1.0,0.0
7298,77.0,0,30,1.0,0.0
7299,77.0,0,30,2.0,0.0
7300,65.0,0,30,12.0,0.0
7301,69.0,2,30,2.0,0.0
7302,57.0,0,30,5.0,0.0
7303,53.0,1,30,13.0,0.0
7304,57.0,0,30,3.0,0.0
7305,53.0,1,30,3.0,0.0
7306,41.0,54,30,14.0,0.0
7307,57.0,0,30,10.0,0.0
7308,65.0,1,30,10.0,0.0
7309,57.0,0,30,11.0,0.0
7310,69.0,0,30,1.0,0.0
7311,77.0,0,30,1.0,0.0
7312,65.0,0,30,11.0,0.0
7313,60.0,0,30,4.0,0.0
7314,77.0,1,30,0.0,0.0
7315,69.0,0,30,2.0,0.0
7316,60.0,0,30,2.0,0.0
7317,53.0,2,30,5.0,0.0
7318,53.0,0,30,12.0,0.0
7319,41.0,1,30,13.0,0.0
7320,57.0,0,30,3.0,0.0
7321,53.0,1,30,3.0,0.0
7322,29.0,54,30,14.0,0.0
7323,57.0,1,30,10.0,0.0
7324,65.0,0,30,10.0,0.0
7325,69.0,0,30,1.0,0.0
7326,77.0,0,30,1.0,0.0
7327,65.0,0,30,11.0,0.0
7328,60.0,1,30,4.0,0.0
7329,57.0,0,30,11.0,0.0
7330,77.0,0,30,0.0,0.0
7331,69.0,0,30,2.0,0.0
7332,60.0,2,30,2.0,0.0
7333,53.0,0,30,12.0,0.0
7334,53.0,0,30,5.0,0.0
7335,41.0,1,30,13.0,0.0
7336,57.0,1,30,3.0,0.0
7337,53.0,0,30,3.0,0.0
7338,29.0,144,30,14.0,0.0
7339,65.0,0,120,10.0,0.0
7340,57.0,1,120,10.0,0.0
7341,77.0,0,120,0.0,0.0
7342,57.0,0,120,11.0,0.0
7343,60.0,1,120,4.0,0.0
7344,69.0,0,120,1.0,0.0
7345,77.0,0,120,1.0,0.0
7346,65.0,0,120,11.0,0.0
7347,57.0,0,120,2.0,0.0
7348,53.0,2,120,12.0,0.0
7349,65.0,0,120,2.0,0.0
7350,53.0,0,120,5.0,0.0
7351,41.0,1,120,13.0,0.0
7352,53.0,0,120,3.0,0.0
7353,57.0,1,120,3.0,0.0
7354,29.0,240,120,14.0,0.0
