,note,step,duration,channel,velocity
0,41.0,30,899,4.0,0.0
1,53.0,0,899,4.0,0.0
2,62.0,0,959,4.0,0.0
3,69.0,0,299,5.0,0.0
4,57.0,0,299,5.0,0.0
5,45.0,30,29,7.0,0.0
6,70.0,0,299,1.0,0.0
7,82.0,0,299,1.0,0.0
8,70.0,0,299,0.0,0.0
9,82.0,0,299,0.0,0.0
10,29.0,0,899,3.0,0.0
11,41.0,0,899,3.0,0.0
12,70.0,0,299,2.0,0.0
13,45.0,30,29,7.0,0.0
14,45.0,30,29,7.0,0.0
15,45.0,30,29,7.0,0.0
16,45.0,30,29,7.0,0.0
17,45.0,30,29,7.0,0.0
18,45.0,30,29,7.0,0.0
19,45.0,30,29,7.0,0.0
20,45.0,30,29,7.0,0.0
21,45.0,30,29,7.0,0.0
22,45.0,0,29,7.0,0.0
23,69.0,0,29,1.0,0.0
24,81.0,30,29,0.0,0.0
25,69.0,0,29,5.0,0.0
26,57.0,0,29,5.0,0.0
27,69.0,0,29,2.0,0.0
28,81.0,0,29,1.0,0.0
29,69.0,0,29,0.0,0.0
30,57.0,0,29,2.0,0.0
31,45.0,30,29,7.0,0.0
32,57.0,30,29,5.0,0.0
33,57.0,0,29,2.0,0.0
34,69.0,0,29,2.0,0.0
35,45.0,0,29,7.0,0.0
36,69.0,0,29,5.0,0.0
37,69.0,0,29,0.0,0.0
38,69.0,0,29,1.0,0.0
39,81.0,0,29,1.0,0.0
40,81.0,0,29,0.0,0.0
41,45.0,30,29,7.0,0.0
42,74.0,0,29,2.0,0.0
43,62.0,0,29,2.0,0.0
44,45.0,0,29,7.0,0.0
45,74.0,0,29,5.0,0.0
46,86.0,0,29,1.0,0.0
47,74.0,30,29,1.0,0.0
48,86.0,0,29,0.0,0.0
49,74.0,0,29,0.0,0.0
50,62.0,0,29,5.0,0.0
51,45.0,30,29,7.0,0.0
52,86.0,0,59,0.0,0.0
53,74.0,0,59,0.0,0.0
54,45.0,30,29,7.0,0.0
55,62.0,0,59,2.0,0.0
56,74.0,30,59,1.0,0.0
57,86.0,0,59,1.0,0.0
58,74.0,0,59,2.0,0.0
59,62.0,30,119,5.0,0.0
60,74.0,0,119,5.0,0.0
61,45.0,0,29,7.0,0.0
62,65.0,0,59,2.0,0.0
63,45.0,30,29,7.0,0.0
64,77.0,0,59,2.0,0.0
65,77.0,0,59,0.0,0.0
66,65.0,0,59,1.0,0.0
67,77.0,0,59,1.0,0.0
68,89.0,0,59,0.0,0.0
69,45.0,0,29,7.0,0.0
70,77.0,30,59,1.0,0.0
71,65.0,0,59,1.0,0.0
72,89.0,0,59,0.0,0.0
73,77.0,0,59,0.0,0.0
74,77.0,0,59,2.0,0.0
75,65.0,0,59,2.0,0.0
76,45.0,30,29,7.0,0.0
77,45.0,0,29,7.0,0.0
78,69.0,0,59,2.0,0.0
79,81.0,0,59,2.0,0.0
80,93.0,0,59,0.0,0.0
81,69.0,0,59,1.0,0.0
82,81.0,30,59,1.0,0.0
83,81.0,0,59,0.0,0.0
84,69.0,0,59,5.0,0.0
85,45.0,30,29,7.0,0.0
86,45.0,0,29,7.0,0.0
87,93.0,0,59,0.0,0.0
88,69.0,0,59,5.0,0.0
89,81.0,0,59,1.0,0.0
90,69.0,0,59,1.0,0.0
91,69.0,0,59,2.0,0.0
92,81.0,0,59,2.0,0.0
93,81.0,0,59,0.0,0.0
94,45.0,30,29,7.0,0.0
95,45.0,30,29,7.0,0.0
96,45.0,30,29,7.0,0.0
97,62.0,30,59,5.0,0.0
98,74.0,0,59,1.0,0.0
99,62.0,0,59,1.0,0.0
100,74.0,0,59,2.0,0.0
101,74.0,0,59,0.0,0.0
102,62.0,0,59,2.0,0.0
103,86.0,0,59,0.0,0.0
104,45.0,0,29,7.0,0.0
105,62.0,0,119,5.0,0.0
106,74.0,0,59,1.0,0.0
107,62.0,0,59,2.0,0.0
108,74.0,0,59,2.0,0.0
109,45.0,30,29,7.0,0.0
110,86.0,0,59,0.0,0.0
111,74.0,0,59,0.0,0.0
112,62.0,0,59,1.0,0.0
113,50.0,0,29,7.0,0.0
114,89.0,30,59,0.0,0.0
115,53.0,0,59,4.0,0.0
116,50.0,30,29,7.0,0.0
117,77.0,0,59,1.0,0.0
118,41.0,0,59,3.0,0.0
119,53.0,0,59,3.0,0.0
120,65.0,0,59,3.0,0.0
121,77.0,0,59,0.0,0.0
122,65.0,0,59,4.0,0.0
123,77.0,0,59,2.0,0.0
124,65.0,0,59,2.0,0.0
125,50.0,0,29,7.0,0.0
126,50.0,30,29,7.0,0.0
127,62.0,0,119,4.0,0.0
128,65.0,0,59,3.0,0.0
129,53.0,0,59,3.0,0.0
130,77.0,0,59,1.0,0.0
131,77.0,0,59,0.0,0.0
132,89.0,0,59,0.0,0.0
133,65.0,0,59,4.0,0.0
134,53.0,0,59,4.0,0.0
135,77.0,0,59,2.0,0.0
136,41.0,30,59,3.0,0.0
137,65.0,0,59,2.0,0.0
138,50.0,0,29,7.0,0.0
139,33.0,0,59,3.0,0.0
140,57.0,0,59,5.0,0.0
141,45.0,0,59,3.0,0.0
142,57.0,0,59,3.0,0.0
143,81.0,0,59,0.0,0.0
144,69.0,0,59,1.0,0.0
145,69.0,0,59,2.0,0.0
146,57.0,0,59,2.0,0.0
147,50.0,30,29,7.0,0.0
148,69.0,0,59,5.0,0.0
149,50.0,30,29,7.0,0.0
150,69.0,0,59,1.0,0.0
151,57.0,0,59,5.0,0.0
152,69.0,0,59,2.0,0.0
153,45.0,0,59,3.0,0.0
154,57.0,0,59,2.0,0.0
155,33.0,30,59,3.0,0.0
156,57.0,0,59,3.0,0.0
157,50.0,30,29,7.0,0.0
158,65.0,0,119,4.0,0.0
159,69.0,0,59,5.0,0.0
160,81.0,0,59,0.0,0.0
161,50.0,0,29,7.0,0.0
162,86.0,0,59,0.0,0.0
163,62.0,0,59,2.0,0.0
164,74.0,0,59,2.0,0.0
165,38.0,0,59,3.0,0.0
166,50.0,0,59,4.0,0.0
167,62.0,0,59,4.0,0.0
168,62.0,30,59,5.0,0.0
169,62.0,0,59,3.0,0.0
170,50.0,0,59,3.0,0.0
171,86.0,0,59,1.0,0.0
172,74.0,0,59,1.0,0.0
173,74.0,0,59,5.0,0.0
174,50.0,30,29,7.0,0.0
175,50.0,0,29,7.0,0.0
176,62.0,0,59,2.0,0.0
177,74.0,0,59,2.0,0.0
178,62.0,0,59,3.0,0.0
179,50.0,0,59,3.0,0.0
180,74.0,0,59,1.0,0.0
181,86.0,30,59,0.0,0.0
182,50.0,30,29,7.0,0.0
183,86.0,0,59,1.0,0.0
184,62.0,0,119,5.0,0.0
185,74.0,0,119,5.0,0.0
186,65.0,0,119,4.0,0.0
187,38.0,0,59,3.0,0.0
188,62.0,0,119,4.0,0.0
189,50.0,0,119,4.0,0.0
190,50.0,0,29,7.0,0.0
191,53.0,0,59,2.0,0.0
192,65.0,0,59,2.0,0.0
193,53.0,0,59,3.0,0.0
194,41.0,0,59,3.0,0.0
195,65.0,0,59,1.0,0.0
196,77.0,0,59,1.0,0.0
197,29.0,30,59,3.0,0.0
198,50.0,30,29,7.0,0.0
199,77.0,0,59,0.0,0.0
200,50.0,0,29,7.0,0.0
201,62.0,0,119,4.0,0.0
202,53.0,0,59,3.0,0.0
203,41.0,0,59,3.0,0.0
204,50.0,30,29,7.0,0.0
205,77.0,0,59,1.0,0.0
206,53.0,0,59,2.0,0.0
207,65.0,0,59,2.0,0.0
208,77.0,30,59,0.0,0.0
209,29.0,0,59,3.0,0.0
210,65.0,0,59,1.0,0.0
211,65.0,0,119,4.0,0.0
212,50.0,0,29,7.0,0.0
213,45.0,0,59,3.0,0.0
214,50.0,30,29,7.0,0.0
215,81.0,0,59,1.0,0.0
216,69.0,0,59,1.0,0.0
217,57.0,30,59,3.0,0.0
218,81.0,0,59,0.0,0.0
219,81.0,0,59,5.0,0.0
220,69.0,0,59,5.0,0.0
221,33.0,0,59,3.0,0.0
222,69.0,0,59,2.0,0.0
223,81.0,0,59,2.0,0.0
224,50.0,0,29,7.0,0.0
225,45.0,0,59,3.0,0.0
226,57.0,0,59,3.0,0.0
227,33.0,0,59,3.0,0.0
228,50.0,30,29,7.0,0.0
229,69.0,0,59,1.0,0.0
230,81.0,0,59,0.0,0.0
231,69.0,0,59,5.0,0.0
232,81.0,30,59,2.0,0.0
233,81.0,0,59,5.0,0.0
234,65.0,0,119,4.0,0.0
235,69.0,0,59,2.0,0.0
236,81.0,0,59,1.0,0.0
237,50.0,0,29,7.0,0.0
238,26.0,0,59,3.0,0.0
239,41.0,0,59,3.0,0.0
240,50.0,0,59,3.0,0.0
241,50.0,30,59,4.0,0.0
242,62.0,0,59,4.0,0.0
243,50.0,30,29,7.0,0.0
244,62.0,0,59,1.0,0.0
245,74.0,0,59,2.0,0.0
246,62.0,0,59,2.0,0.0
247,74.0,0,59,1.0,0.0
248,74.0,0,59,5.0,0.0
249,62.0,0,59,5.0,0.0
250,74.0,0,59,0.0,0.0
251,50.0,0,29,7.0,0.0
252,50.0,0,59,3.0,0.0
253,62.0,0,59,5.0,0.0
254,74.0,0,59,0.0,0.0
255,74.0,0,59,5.0,0.0
256,50.0,0,59,4.0,0.0
257,50.0,30,29,7.0,0.0
258,62.0,30,59,2.0,0.0
259,74.0,0,59,2.0,0.0
260,26.0,0,59,3.0,0.0
261,65.0,0,59,4.0,0.0
262,41.0,0,59,3.0,0.0
263,74.0,0,59,1.0,0.0
264,62.0,0,59,4.0,0.0
265,50.0,0,29,7.0,0.0
266,50.0,30,29,7.0,0.0
267,86.0,0,59,0.0,0.0
268,77.0,0,59,0.0,0.0
269,62.0,0,59,5.0,0.0
270,38.0,0,59,3.0,0.0
271,74.0,0,59,5.0,0.0
272,77.0,0,59,1.0,0.0
273,50.0,0,59,4.0,0.0
274,62.0,0,59,4.0,0.0
275,77.0,0,59,2.0,0.0
276,41.0,0,59,3.0,0.0
277,50.0,0,59,3.0,0.0
278,65.0,0,59,2.0,0.0
279,50.0,30,29,7.0,0.0
280,50.0,30,29,7.0,0.0
281,62.0,0,59,5.0,0.0
282,74.0,0,59,5.0,0.0
283,38.0,0,59,3.0,0.0
284,77.0,0,59,1.0,0.0
285,77.0,0,59,0.0,0.0
286,62.0,0,59,4.0,0.0
287,50.0,0,59,4.0,0.0
288,41.0,0,59,3.0,0.0
289,77.0,0,59,2.0,0.0
290,65.0,0,59,2.0,0.0
291,86.0,30,59,0.0,0.0
292,50.0,0,59,3.0,0.0
293,50.0,0,29,7.0,0.0
294,78.0,0,59,1.0,0.0
295,48.0,0,59,3.0,0.0
296,66.0,0,59,2.0,0.0
297,62.0,0,59,5.0,0.0
298,78.0,0,59,2.0,0.0
299,74.0,0,59,5.0,0.0
300,50.0,0,59,4.0,0.0
301,78.0,0,59,0.0,0.0
302,86.0,0,59,0.0,0.0
303,50.0,30,29,7.0,0.0
304,62.0,0,59,4.0,0.0
305,36.0,0,59,3.0,0.0
306,50.0,0,29,7.0,0.0
307,48.0,0,59,3.0,0.0
308,74.0,0,59,5.0,0.0
309,62.0,0,59,5.0,0.0
310,78.0,0,59,1.0,0.0
311,36.0,0,59,3.0,0.0
312,86.0,0,59,0.0,0.0
313,78.0,0,59,0.0,0.0
314,50.0,30,29,7.0,0.0
315,62.0,0,59,4.0,0.0
316,50.0,0,59,4.0,0.0
317,78.0,0,59,2.0,0.0
318,66.0,0,59,2.0,0.0
319,50.0,30,29,7.0,0.0
320,74.0,0,59,5.0,0.0
321,79.0,0,59,1.0,0.0
322,47.0,0,59,3.0,0.0
323,62.0,0,59,5.0,0.0
324,35.0,0,59,3.0,0.0
325,79.0,0,59,0.0,0.0
326,86.0,0,59,0.0,0.0
327,79.0,0,59,2.0,0.0
328,67.0,0,59,2.0,0.0
329,50.0,30,29,7.0,0.0
330,62.0,0,59,4.0,0.0
331,50.0,0,59,4.0,0.0
332,50.0,0,29,7.0,0.0
333,86.0,0,59,0.0,0.0
334,79.0,0,59,0.0,0.0
335,35.0,0,59,3.0,0.0
336,50.0,30,29,7.0,0.0
337,74.0,0,59,5.0,0.0
338,62.0,0,59,5.0,0.0
339,67.0,0,59,2.0,0.0
340,47.0,30,59,3.0,0.0
341,79.0,0,59,2.0,0.0
342,62.0,0,59,4.0,0.0
343,79.0,0,59,1.0,0.0
344,50.0,0,59,4.0,0.0
345,50.0,0,29,7.0,0.0
346,34.0,0,59,3.0,0.0
347,80.0,0,59,2.0,0.0
348,50.0,30,29,7.0,0.0
349,74.0,0,59,5.0,0.0
350,62.0,0,59,5.0,0.0
351,80.0,0,59,1.0,0.0
352,46.0,0,59,3.0,0.0
353,62.0,0,59,4.0,0.0
354,86.0,0,59,0.0,0.0
355,80.0,0,59,0.0,0.0
356,50.0,0,59,4.0,0.0
357,68.0,0,59,2.0,0.0
358,50.0,0,29,7.0,0.0
359,80.0,0,59,0.0,0.0
360,86.0,0,59,0.0,0.0
361,62.0,0,59,4.0,0.0
362,46.0,0,59,3.0,0.0
363,50.0,0,59,4.0,0.0
364,80.0,0,59,2.0,0.0
365,34.0,0,59,3.0,0.0
366,62.0,0,59,5.0,0.0
367,74.0,0,59,5.0,0.0
368,80.0,0,59,1.0,0.0
369,68.0,0,59,2.0,0.0
370,50.0,30,29,7.0,0.0
371,50.0,0,29,7.0,0.0
372,62.0,0,59,2.0,0.0
373,74.0,0,59,2.0,0.0
374,46.0,0,59,3.0,0.0
375,80.0,0,59,1.0,0.0
376,74.0,0,59,5.0,0.0
377,50.0,0,59,4.0,0.0
378,62.0,0,59,4.0,0.0
379,86.0,0,59,0.0,0.0
380,34.0,0,59,3.0,0.0
381,62.0,0,59,5.0,0.0
382,50.0,30,29,7.0,0.0
383,50.0,0,29,7.0,0.0
384,62.0,0,59,5.0,0.0
385,74.0,0,59,2.0,0.0
386,62.0,0,59,2.0,0.0
387,50.0,30,29,7.0,0.0
388,46.0,0,59,3.0,0.0
389,86.0,0,59,0.0,0.0
390,74.0,0,59,1.0,0.0
391,80.0,0,59,1.0,0.0
392,34.0,0,59,3.0,0.0
393,50.0,0,59,4.0,0.0
394,62.0,0,59,4.0,0.0
395,74.0,0,59,5.0,0.0
396,50.0,30,29,7.0,0.0
397,77.0,0,59,1.0,0.0
398,50.0,30,29,7.0,0.0
399,46.0,0,59,3.0,0.0
400,58.0,0,59,3.0,0.0
401,50.0,0,59,4.0,0.0
402,74.0,0,59,1.0,0.0
403,62.0,0,59,4.0,0.0
404,77.0,0,59,2.0,0.0
405,62.0,0,59,5.0,0.0
406,74.0,0,59,5.0,0.0
407,65.0,0,59,2.0,0.0
408,89.0,0,59,0.0,0.0
409,86.0,60,59,0.0,0.0
410,50.0,0,29,7.0,0.0
411,46.0,0,59,3.0,0.0
412,58.0,0,59,3.0,0.0
413,50.0,120,59,7.0,0.0
414,86.0,0,59,0.0,0.0
415,77.0,0,59,1.0,0.0
416,74.0,0,59,1.0,0.0
417,65.0,0,59,2.0,0.0
418,74.0,0,59,5.0,0.0
419,77.0,0,59,2.0,0.0
420,50.0,0,59,4.0,0.0
421,62.0,0,59,4.0,0.0
422,89.0,0,59,0.0,0.0
423,62.0,0,59,5.0,0.0
424,45.0,0,59,7.0,0.0
425,69.0,0,59,2.0,0.0
426,81.0,0,59,2.0,0.0
427,93.0,0,59,0.0,0.0
428,57.0,0,59,5.0,0.0
429,69.0,0,59,1.0,0.0
430,81.0,0,59,1.0,0.0
431,69.0,0,59,5.0,0.0
432,57.0,540,59,3.0,0.0
433,57.0,0,59,4.0,0.0
434,81.0,0,59,0.0,0.0
435,45.0,0,59,3.0,0.0
436,69.0,0,59,4.0,0.0
437,57.0,0,119,15.0,0.0
438,45.0,480,119,15.0,0.0
439,64.0,0,479,15.0,0.0
440,52.0,60,479,15.0,0.0
441,62.0,0,59,15.0,0.0
442,50.0,60,59,15.0,0.0
443,61.0,0,59,15.0,0.0
444,49.0,60,59,15.0,0.0
445,50.0,0,59,15.0,0.0
446,62.0,60,59,15.0,0.0
447,52.0,180,59,15.0,0.0
448,64.0,0,59,15.0,0.0
449,64.0,30,179,15.0,0.0
450,52.0,0,179,15.0,0.0
451,55.0,60,29,15.0,0.0
452,43.0,0,29,15.0,0.0
453,57.0,60,29,15.0,0.0
454,45.0,0,29,15.0,0.0
455,46.0,0,29,15.0,0.0
456,58.0,90,29,15.0,0.0
457,58.0,60,59,15.0,0.0
458,46.0,0,59,15.0,0.0
459,40.0,0,59,15.0,0.0
460,52.0,60,59,15.0,0.0
461,41.0,0,59,15.0,0.0
462,53.0,60,59,15.0,0.0
463,55.0,0,59,15.0,0.0
464,43.0,30,59,15.0,0.0
465,37.0,60,29,15.0,0.0
466,49.0,0,29,15.0,0.0
467,50.0,0,29,15.0,0.0
468,38.0,90,29,15.0,0.0
469,52.0,0,59,15.0,0.0
470,40.0,60,59,15.0,0.0
471,43.0,180,59,15.0,0.0
472,31.0,0,59,15.0,0.0
473,43.0,0,179,15.0,0.0
474,31.0,60,179,15.0,0.0
475,33.0,0,59,15.0,0.0
476,45.0,120,59,15.0,0.0
477,46.0,360,119,15.0,0.0
478,34.0,0,119,15.0,0.0
479,58.0,180,359,15.0,0.0
480,46.0,0,359,15.0,0.0
481,57.0,0,179,15.0,0.0
482,45.0,60,179,15.0,0.0
483,40.0,0,59,15.0,0.0
484,52.0,120,59,15.0,0.0
485,43.0,0,119,15.0,0.0
486,55.0,120,119,15.0,0.0
487,41.0,0,119,15.0,0.0
488,53.0,30,119,15.0,0.0
489,74.0,0,479,5.0,0.0
490,50.0,30,29,7.0,0.0
491,62.0,0,479,5.0,0.0
492,50.0,30,29,7.0,0.0
493,50.0,30,29,7.0,0.0
494,50.0,30,29,7.0,0.0
495,50.0,30,29,7.0,0.0
496,50.0,30,29,7.0,0.0
497,50.0,30,29,7.0,0.0
498,50.0,30,29,7.0,0.0
499,50.0,30,29,7.0,0.0
500,50.0,30,29,7.0,0.0
501,50.0,30,29,7.0,0.0
502,50.0,30,29,7.0,0.0
503,63.0,0,959,4.0,0.0
504,60.0,0,959,4.0,0.0
505,63.0,0,299,2.0,0.0
506,75.0,0,299,2.0,0.0
507,66.0,30,959,4.0,0.0
508,42.0,0,299,3.0,0.0
509,75.0,0,299,1.0,0.0
510,69.0,0,959,4.0,0.0
511,87.0,0,299,0.0,0.0
512,30.0,0,299,3.0,0.0
513,50.0,30,29,7.0,0.0
514,50.0,30,29,7.0,0.0
515,50.0,30,29,7.0,0.0
516,50.0,30,29,7.0,0.0
517,50.0,30,29,7.0,0.0
518,72.0,30,179,5.0,0.0
519,50.0,30,29,7.0,0.0
520,50.0,30,29,7.0,0.0
521,50.0,30,29,7.0,0.0
522,50.0,30,29,7.0,0.0
523,50.0,0,29,7.0,0.0
524,50.0,0,29,7.0,0.0
525,45.0,0,29,3.0,0.0
526,81.0,0,29,2.0,0.0
527,69.0,0,29,2.0,0.0
528,57.0,0,29,3.0,0.0
529,81.0,30,29,0.0,0.0
530,69.0,0,29,1.0,0.0
531,72.0,0,29,5.0,0.0
532,50.0,30,29,7.0,0.0
533,69.0,30,29,1.0,0.0
534,69.0,0,29,2.0,0.0
535,45.0,0,29,3.0,0.0
536,81.0,0,29,2.0,0.0
537,50.0,0,29,7.0,0.0
538,72.0,0,29,5.0,0.0
539,81.0,0,29,0.0,0.0
540,57.0,0,29,3.0,0.0
541,50.0,30,29,7.0,0.0
542,72.0,0,29,2.0,0.0
543,84.0,30,29,0.0,0.0
544,50.0,0,29,7.0,0.0
545,60.0,0,29,3.0,0.0
546,72.0,0,29,5.0,0.0
547,48.0,0,29,3.0,0.0
548,72.0,0,29,1.0,0.0
549,84.0,0,29,2.0,0.0
550,50.0,30,29,7.0,0.0
551,84.0,0,59,2.0,0.0
552,72.0,30,59,2.0,0.0
553,72.0,0,59,5.0,0.0
554,48.0,0,59,3.0,0.0
555,84.0,0,59,0.0,0.0
556,60.0,0,59,3.0,0.0
557,72.0,0,59,1.0,0.0
558,50.0,30,29,7.0,0.0
559,50.0,0,29,7.0,0.0
560,42.0,0,59,3.0,0.0
561,78.0,0,59,2.0,0.0
562,90.0,0,59,0.0,0.0
563,54.0,0,59,3.0,0.0
564,78.0,30,59,1.0,0.0
565,50.0,30,29,7.0,0.0
566,66.0,0,59,5.0,0.0
567,66.0,0,59,2.0,0.0
568,78.0,0,59,0.0,0.0
569,50.0,0,29,7.0,0.0
570,42.0,0,59,3.0,0.0
571,54.0,0,59,3.0,0.0
572,78.0,0,59,1.0,0.0
573,66.0,0,59,2.0,0.0
574,78.0,0,59,0.0,0.0
575,90.0,0,59,0.0,0.0
576,50.0,30,29,7.0,0.0
577,78.0,0,59,2.0,0.0
578,66.0,0,59,5.0,0.0
579,50.0,30,29,7.0,0.0
580,45.0,0,59,3.0,0.0
581,93.0,0,59,0.0,0.0
582,81.0,0,59,0.0,0.0
583,81.0,0,59,1.0,0.0
584,81.0,0,59,2.0,0.0
585,69.0,0,59,2.0,0.0
586,69.0,30,59,5.0,0.0
587,50.0,30,29,7.0,0.0
588,57.0,0,59,3.0,0.0
589,50.0,0,29,7.0,0.0
590,81.0,0,59,1.0,0.0
591,81.0,0,59,2.0,0.0
592,69.0,0,59,2.0,0.0
593,45.0,30,59,3.0,0.0
594,93.0,0,59,0.0,0.0
595,81.0,0,59,0.0,0.0
596,57.0,0,59,3.0,0.0
597,50.0,30,29,7.0,0.0
598,69.0,0,59,5.0,0.0
599,50.0,0,29,7.0,0.0
600,72.0,0,59,2.0,0.0
601,60.0,0,59,2.0,0.0
602,36.0,0,59,3.0,0.0
603,84.0,0,59,0.0,0.0
604,72.0,0,59,0.0,0.0
605,72.0,0,59,5.0,0.0
606,50.0,30,29,7.0,0.0
607,84.0,0,59,1.0,0.0
608,48.0,0,59,3.0,0.0
609,50.0,30,29,7.0,0.0
610,60.0,30,59,2.0,0.0
611,84.0,0,59,1.0,0.0
612,72.0,0,119,5.0,0.0
613,50.0,30,29,7.0,0.0
614,72.0,0,59,2.0,0.0
615,72.0,0,59,0.0,0.0
616,48.0,0,59,3.0,0.0
617,36.0,0,59,3.0,0.0
618,84.0,0,59,0.0,0.0
619,50.0,0,29,7.0,0.0
620,39.0,0,59,3.0,0.0
621,75.0,0,59,2.0,0.0
622,63.0,0,59,3.0,0.0
623,50.0,30,29,7.0,0.0
624,51.0,0,59,3.0,0.0
625,75.0,0,59,1.0,0.0
626,87.0,0,59,0.0,0.0
627,63.0,0,59,2.0,0.0
628,50.0,0,29,7.0,0.0
629,63.0,30,59,2.0,0.0
630,63.0,0,59,3.0,0.0
631,51.0,0,59,3.0,0.0
632,75.0,0,59,1.0,0.0
633,69.0,0,119,4.0,0.0
634,66.0,0,119,4.0,0.0
635,60.0,0,119,4.0,0.0
636,63.0,0,119,4.0,0.0
637,75.0,0,59,2.0,0.0
638,50.0,30,29,7.0,0.0
639,87.0,0,59,0.0,0.0
640,39.0,0,59,3.0,0.0
641,50.0,0,29,7.0,0.0
642,69.0,0,59,2.0,0.0
643,57.0,0,59,2.0,0.0
644,69.0,0,59,1.0,0.0
645,50.0,30,29,7.0,0.0
646,81.0,0,59,0.0,0.0
647,45.0,30,59,3.0,0.0
648,72.0,0,59,5.0,0.0
649,57.0,0,59,3.0,0.0
650,33.0,0,59,3.0,0.0
651,50.0,0,29,7.0,0.0
652,33.0,0,59,3.0,0.0
653,69.0,0,59,1.0,0.0
654,81.0,0,59,0.0,0.0
655,60.0,0,119,4.0,0.0
656,66.0,0,119,4.0,0.0
657,69.0,0,119,4.0,0.0
658,72.0,0,59,5.0,0.0
659,45.0,0,59,3.0,0.0
660,57.0,0,59,3.0,0.0
661,50.0,30,29,7.0,0.0
662,57.0,0,59,2.0,0.0
663,63.0,0,119,4.0,0.0
664,69.0,0,59,2.0,0.0
665,50.0,30,29,7.0,0.0
666,50.0,30,29,7.0,0.0
667,72.0,0,59,1.0,0.0
668,72.0,0,59,5.0,0.0
669,72.0,0,59,2.0,0.0
670,60.0,30,59,2.0,0.0
671,84.0,0,59,0.0,0.0
672,48.0,0,59,3.0,0.0
673,60.0,0,59,3.0,0.0
674,36.0,0,59,3.0,0.0
675,50.0,0,29,7.0,0.0
676,60.0,0,59,4.0,0.0
677,36.0,0,59,3.0,0.0
678,63.0,0,59,4.0,0.0
679,84.0,30,59,0.0,0.0
680,72.0,0,59,1.0,0.0
681,84.0,0,59,1.0,0.0
682,60.0,0,59,3.0,0.0
683,69.0,0,59,4.0,0.0
684,66.0,0,59,4.0,0.0
685,72.0,0,59,2.0,0.0
686,48.0,0,59,3.0,0.0
687,50.0,30,29,7.0,0.0
688,72.0,0,59,5.0,0.0
689,60.0,0,59,2.0,0.0
690,50.0,0,29,7.0,0.0
691,42.0,0,59,3.0,0.0
692,78.0,0,59,1.0,0.0
693,54.0,0,59,2.0,0.0
694,66.0,0,59,5.0,0.0
695,30.0,0,59,3.0,0.0
696,66.0,30,59,2.0,0.0
697,54.0,0,59,3.0,0.0
698,54.0,0,59,4.0,0.0
699,66.0,0,59,4.0,0.0
700,78.0,0,59,0.0,0.0
701,50.0,30,29,7.0,0.0
702,50.0,0,29,7.0,0.0
703,66.0,0,59,4.0,0.0
704,54.0,0,59,4.0,0.0
705,78.0,0,59,1.0,0.0
706,66.0,30,59,5.0,0.0
707,54.0,0,59,2.0,0.0
708,78.0,0,59,0.0,0.0
709,66.0,0,59,2.0,0.0
710,54.0,0,59,3.0,0.0
711,42.0,0,59,3.0,0.0
712,50.0,30,29,7.0,0.0
713,30.0,0,59,3.0,0.0
714,50.0,0,29,7.0,0.0
715,69.0,0,59,5.0,0.0
716,33.0,0,59,3.0,0.0
717,81.0,0,59,0.0,0.0
718,69.0,0,59,4.0,0.0
719,57.0,0,59,3.0,0.0
720,50.0,30,29,7.0,0.0
721,69.0,30,59,2.0,0.0
722,57.0,0,59,2.0,0.0
723,57.0,0,59,4.0,0.0
724,81.0,0,59,1.0,0.0
725,45.0,0,59,3.0,0.0
726,50.0,0,29,7.0,0.0
727,81.0,0,59,0.0,0.0
728,33.0,0,59,3.0,0.0
729,81.0,0,59,1.0,0.0
730,69.0,0,59,2.0,0.0
731,69.0,0,59,5.0,0.0
732,57.0,0,59,3.0,0.0
733,57.0,0,59,2.0,0.0
734,45.0,30,59,3.0,0.0
735,57.0,0,59,4.0,0.0
736,50.0,30,29,7.0,0.0
737,69.0,0,59,4.0,0.0
738,50.0,0,29,7.0,0.0
739,54.0,0,59,2.0,0.0
740,66.0,0,59,1.0,0.0
741,50.0,30,29,7.0,0.0
742,42.0,0,59,3.0,0.0
743,66.0,0,59,0.0,0.0
744,30.0,0,59,3.0,0.0
745,72.0,0,59,5.0,0.0
746,54.0,30,59,4.0,0.0
747,50.0,0,29,7.0,0.0
748,42.0,0,59,3.0,0.0
749,72.0,0,119,5.0,0.0
750,30.0,30,59,3.0,0.0
751,66.0,0,59,1.0,0.0
752,50.0,30,29,7.0,0.0
753,54.0,0,59,4.0,0.0
754,54.0,0,59,2.0,0.0
755,66.0,0,59,0.0,0.0
756,50.0,0,29,7.0,0.0
757,60.0,0,59,3.0,0.0
758,48.0,0,59,3.0,0.0
759,50.0,30,29,7.0,0.0
760,63.0,0,59,2.0,0.0
761,75.0,0,59,2.0,0.0
762,60.0,0,59,4.0,0.0
763,78.0,0,59,1.0,0.0
764,69.0,0,59,1.0,0.0
765,81.0,0,59,0.0,0.0
766,36.0,0,59,3.0,0.0
767,50.0,30,29,7.0,0.0
768,50.0,30,29,7.0,0.0
769,60.0,0,59,3.0,0.0
770,48.0,0,59,3.0,0.0
771,75.0,0,59,2.0,0.0
772,69.0,0,59,1.0,0.0
773,60.0,0,59,4.0,0.0
774,36.0,0,59,3.0,0.0
775,63.0,0,59,2.0,0.0
776,78.0,0,59,1.0,0.0
777,81.0,30,59,0.0,0.0
778,50.0,0,29,7.0,0.0
779,82.0,0,59,0.0,0.0
780,74.0,0,59,5.0,0.0
781,50.0,30,29,7.0,0.0
782,70.0,0,59,1.0,0.0
783,74.0,0,59,2.0,0.0
784,62.0,0,59,2.0,0.0
785,34.0,30,59,3.0,0.0
786,46.0,0,59,3.0,0.0
787,79.0,0,59,1.0,0.0
788,58.0,0,59,3.0,0.0
789,50.0,0,29,7.0,0.0
790,74.0,0,59,5.0,0.0
791,58.0,0,59,3.0,0.0
792,46.0,0,59,3.0,0.0
793,79.0,0,59,1.0,0.0
794,70.0,0,59,1.0,0.0
795,34.0,0,59,3.0,0.0
796,62.0,0,59,2.0,0.0
797,50.0,30,29,7.0,0.0
798,74.0,30,59,2.0,0.0
799,82.0,0,59,0.0,0.0
800,50.0,0,29,7.0,0.0
801,81.0,0,59,1.0,0.0
802,57.0,0,59,3.0,0.0
803,45.0,0,59,3.0,0.0
804,72.0,0,59,1.0,0.0
805,72.0,0,59,5.0,0.0
806,60.0,0,59,2.0,0.0
807,72.0,0,59,2.0,0.0
808,84.0,0,59,0.0,0.0
809,33.0,30,59,3.0,0.0
810,50.0,30,29,7.0,0.0
811,50.0,0,29,7.0,0.0
812,60.0,0,59,2.0,0.0
813,72.0,30,119,5.0,0.0
814,50.0,30,29,7.0,0.0
815,84.0,0,59,0.0,0.0
816,72.0,0,59,2.0,0.0
817,33.0,0,59,3.0,0.0
818,57.0,0,59,3.0,0.0
819,45.0,0,59,3.0,0.0
820,81.0,0,59,1.0,0.0
821,72.0,30,59,1.0,0.0
822,50.0,0,29,7.0,0.0
823,58.0,0,59,2.0,0.0
824,86.0,0,59,0.0,0.0
825,31.0,0,59,3.0,0.0
826,70.0,0,59,2.0,0.0
827,55.0,0,59,3.0,0.0
828,74.0,0,59,1.0,0.0
829,50.0,30,29,7.0,0.0
830,82.0,0,59,1.0,0.0
831,43.0,0,59,3.0,0.0
832,50.0,0,29,7.0,0.0
833,86.0,30,59,0.0,0.0
834,50.0,30,29,7.0,0.0
835,43.0,0,59,3.0,0.0
836,74.0,0,59,1.0,0.0
837,82.0,0,59,1.0,0.0
838,58.0,0,59,2.0,0.0
839,70.0,0,59,2.0,0.0
840,55.0,0,59,3.0,0.0
841,31.0,0,59,3.0,0.0
842,50.0,0,29,7.0,0.0
843,69.0,0,59,2.0,0.0
844,57.0,0,59,2.0,0.0
845,42.0,0,59,3.0,0.0
846,54.0,0,59,3.0,0.0
847,30.0,0,59,3.0,0.0
848,84.0,0,59,1.0,0.0
849,87.0,30,59,0.0,0.0
850,72.0,0,59,5.0,0.0
851,45.0,30,29,7.0,0.0
852,69.0,0,59,5.0,0.0
853,75.0,0,59,1.0,0.0
854,45.0,0,29,7.0,0.0
855,84.0,0,59,1.0,0.0
856,69.0,0,59,5.0,0.0
857,72.0,0,59,5.0,0.0
858,87.0,0,59,0.0,0.0
859,45.0,30,29,7.0,0.0
860,84.0,0,59,0.0,0.0
861,30.0,0,59,3.0,0.0
862,69.0,30,59,4.0,0.0
863,75.0,0,59,2.0,0.0
864,72.0,0,59,2.0,0.0
865,75.0,0,59,1.0,0.0
866,57.0,0,59,4.0,0.0
867,42.0,0,59,3.0,0.0
868,54.0,0,59,3.0,0.0
869,45.0,0,29,7.0,0.0
870,72.0,0,59,5.0,0.0
871,69.0,0,59,5.0,0.0
872,84.0,0,59,1.0,0.0
873,75.0,0,59,1.0,0.0
874,75.0,0,59,2.0,0.0
875,30.0,0,59,3.0,0.0
876,42.0,0,59,3.0,0.0
877,87.0,120,59,0.0,0.0
878,54.0,0,59,3.0,0.0
879,72.0,0,59,2.0,0.0
880,69.0,0,59,4.0,0.0
881,57.0,0,59,4.0,0.0
882,45.0,30,29,7.0,0.0
883,84.0,0,59,0.0,0.0
884,45.0,0,29,7.0,0.0
885,72.0,0,119,5.0,0.0
886,75.0,0,119,1.0,0.0
887,84.0,0,119,1.0,0.0
888,87.0,0,119,0.0,0.0
889,84.0,0,119,0.0,0.0
890,69.0,120,119,4.0,0.0
891,57.0,0,119,4.0,0.0
892,75.0,0,119,2.0,0.0
893,30.0,0,119,3.0,0.0
894,69.0,0,119,5.0,0.0
895,42.0,0,119,3.0,0.0
896,54.0,0,119,3.0,0.0
897,72.0,0,119,2.0,0.0
898,45.0,0,119,7.0,0.0
899,42.0,0,59,15.0,0.0
900,54.0,0,59,15.0,0.0
901,57.0,0,119,15.0,0.0
902,45.0,120,119,15.0,0.0
903,81.0,0,59,2.0,0.0
904,72.0,0,59,5.0,0.0
905,87.0,0,59,0.0,0.0
906,84.0,0,59,0.0,0.0
907,69.0,0,59,5.0,0.0
908,29.0,0,59,3.0,0.0
909,72.0,0,59,2.0,0.0
910,84.0,0,59,1.0,0.0
911,75.0,0,59,1.0,0.0
912,60.0,0,59,4.0,0.0
913,57.0,0,59,4.0,0.0
914,69.0,0,59,4.0,0.0
915,41.0,0,59,3.0,0.0
916,53.0,0,59,3.0,0.0
917,45.0,120,59,7.0,0.0
918,53.0,0,59,4.0,0.0
919,84.0,0,119,0.0,0.0
920,87.0,0,119,0.0,0.0
921,84.0,0,119,1.0,0.0
922,75.0,0,119,1.0,0.0
923,72.0,120,119,5.0,0.0
924,69.0,0,119,5.0,0.0
925,41.0,0,119,3.0,0.0
926,81.0,0,119,2.0,0.0
927,72.0,0,119,2.0,0.0
928,53.0,0,119,3.0,0.0
929,57.0,0,119,4.0,0.0
930,69.0,0,119,4.0,0.0
931,53.0,0,119,4.0,0.0
932,60.0,0,119,4.0,0.0
933,29.0,0,119,3.0,0.0
934,45.0,0,119,7.0,0.0
935,41.0,0,59,15.0,0.0
936,53.0,60,59,15.0,0.0
937,60.0,0,59,15.0,0.0
938,48.0,60,59,15.0,0.0
939,48.0,180,59,15.0,0.0
940,60.0,0,59,15.0,0.0
941,51.0,0,179,15.0,0.0
942,63.0,60,179,15.0,0.0
943,51.0,60,59,15.0,0.0
944,63.0,0,59,15.0,0.0
945,48.0,60,59,15.0,0.0
946,60.0,0,59,15.0,0.0
947,46.0,60,59,15.0,0.0
948,58.0,0,59,15.0,0.0
949,46.0,0,59,15.0,0.0
950,58.0,60,59,15.0,0.0
951,57.0,60,59,15.0,0.0
952,45.0,0,59,15.0,0.0
953,45.0,60,59,15.0,0.0
954,57.0,0,59,15.0,0.0
955,45.0,60,59,15.0,0.0
956,57.0,0,59,15.0,0.0
957,58.0,60,59,15.0,0.0
958,46.0,0,59,15.0,0.0
959,60.0,60,59,15.0,0.0
960,48.0,0,59,15.0,0.0
961,60.0,60,59,15.0,0.0
962,48.0,0,59,15.0,0.0
963,41.0,120,59,15.0,0.0
964,53.0,0,59,15.0,0.0
965,39.0,0,59,15.0,0.0
966,51.0,60,59,15.0,0.0
967,39.0,0,59,15.0,0.0
968,51.0,60,59,15.0,0.0
969,50.0,60,59,15.0,0.0
970,38.0,0,59,15.0,0.0
971,36.0,60,59,15.0,0.0
972,48.0,0,59,15.0,0.0
973,34.0,0,59,15.0,0.0
974,46.0,60,59,15.0,0.0
975,62.0,0,59,4.0,0.0
976,50.0,0,59,4.0,0.0
977,46.0,0,59,3.0,0.0
978,58.0,0,59,3.0,0.0
979,74.0,0,59,5.0,0.0
980,74.0,0,59,1.0,0.0
981,65.0,0,59,2.0,0.0
982,62.0,120,59,2.0,0.0
983,77.0,0,59,1.0,0.0
984,50.0,0,59,7.0,0.0
985,86.0,0,59,0.0,0.0
986,89.0,0,59,0.0,0.0
987,62.0,0,59,5.0,0.0
988,34.0,0,59,3.0,0.0
989,62.0,0,59,2.0,0.0
990,46.0,0,59,3.0,0.0
991,58.0,0,59,3.0,0.0
992,62.0,0,59,5.0,0.0
993,79.0,0,59,1.0,0.0
994,74.0,0,59,1.0,0.0
995,67.0,0,59,2.0,0.0
996,91.0,0,59,0.0,0.0
997,34.0,0,59,3.0,0.0
998,50.0,0,59,7.0,0.0
999,74.0,0,59,5.0,0.0
1000,62.0,0,59,4.0,0.0
1001,50.0,80,59,4.0,0.0
1002,86.0,0,59,0.0,0.0
1003,37.0,15,1904,3.0,0.0
1004,57.0,0,119,5.0,0.0
1005,45.0,20,19,15.0,0.0
1006,69.0,0,119,5.0,0.0
1007,52.0,0,19,15.0,0.0
1008,57.0,0,1919,4.0,0.0
1009,64.0,0,2039,4.0,0.0
1010,81.0,0,2039,0.0,0.0
1011,49.0,0,1904,3.0,0.0
1012,57.0,0,19,13.0,0.0
1013,64.0,0,19,13.0,0.0
1014,93.0,0,2039,0.0,0.0
1015,45.0,0,119,7.0,0.0
1016,37.0,0,1919,15.0,0.0
1017,57.0,0,119,2.0,0.0
1018,69.0,0,2039,1.0,0.0
1019,76.0,0,1919,1.0,0.0
1020,69.0,0,2039,2.0,0.0
1021,45.0,0,19,15.0,0.0
1022,52.0,0,19,15.0,0.0
1023,64.0,20,19,13.0,0.0
1024,57.0,0,19,13.0,0.0
1025,52.0,0,19,15.0,0.0
1026,45.0,0,19,15.0,0.0
1027,57.0,0,19,13.0,0.0
1028,64.0,20,19,13.0,0.0
1029,64.0,0,19,13.0,0.0
1030,57.0,0,19,13.0,0.0
1031,52.0,0,19,15.0,0.0
1032,45.0,20,19,15.0,0.0
1033,64.0,0,19,13.0,0.0
1034,57.0,0,19,13.0,0.0
1035,52.0,0,19,15.0,0.0
1036,45.0,20,19,15.0,0.0
1037,45.0,0,19,15.0,0.0
1038,57.0,0,19,13.0,0.0
1039,52.0,0,19,15.0,0.0
1040,64.0,20,19,13.0,0.0
1041,64.0,60,1799,2.0,0.0
1042,57.0,0,19,13.0,0.0
1043,52.0,20,19,15.0,0.0
1044,45.0,0,19,15.0,0.0
1045,64.0,0,19,13.0,0.0
1046,45.0,0,19,15.0,0.0
1047,52.0,0,19,15.0,0.0
1048,57.0,0,19,13.0,0.0
1049,64.0,20,19,13.0,0.0
1050,52.0,0,19,15.0,0.0
1051,57.0,0,19,13.0,0.0
1052,64.0,0,19,13.0,0.0
1053,45.0,20,19,15.0,0.0
1054,52.0,20,19,15.0,0.0
1055,45.0,0,19,15.0,0.0
1056,64.0,0,19,13.0,0.0
1057,57.0,0,19,13.0,0.0
1058,64.0,0,19,13.0,0.0
1059,57.0,0,19,13.0,0.0
1060,45.0,0,19,15.0,0.0
1061,52.0,20,19,15.0,0.0
1062,52.0,0,19,15.0,0.0
1063,45.0,0,19,15.0,0.0
1064,64.0,0,19,13.0,0.0
1065,57.0,20,19,13.0,0.0
1066,57.0,0,19,13.0,0.0
1067,64.0,0,19,13.0,0.0
1068,52.0,0,19,15.0,0.0
1069,45.0,20,19,15.0,0.0
1070,64.0,20,19,13.0,0.0
1071,45.0,0,19,15.0,0.0
1072,52.0,0,19,15.0,0.0
1073,57.0,0,19,13.0,0.0
1074,45.0,0,19,15.0,0.0
1075,52.0,20,19,15.0,0.0
1076,64.0,0,19,13.0,0.0
1077,57.0,0,19,13.0,0.0
1078,45.0,0,19,15.0,0.0
1079,57.0,0,19,13.0,0.0
1080,52.0,20,19,15.0,0.0
1081,64.0,0,19,13.0,0.0
1082,64.0,0,19,13.0,0.0
1083,57.0,20,19,13.0,0.0
1084,45.0,0,19,15.0,0.0
1085,52.0,0,19,15.0,0.0
1086,52.0,0,19,15.0,0.0
1087,57.0,0,19,13.0,0.0
1088,64.0,20,19,13.0,0.0
1089,45.0,0,19,15.0,0.0
1090,64.0,20,19,13.0,0.0
1091,57.0,0,19,13.0,0.0
1092,52.0,0,19,15.0,0.0
1093,45.0,0,19,15.0,0.0
1094,52.0,0,19,15.0,0.0
1095,57.0,0,19,13.0,0.0
1096,64.0,0,19,13.0,0.0
1097,45.0,20,19,15.0,0.0
1098,57.0,0,19,13.0,0.0
1099,45.0,0,19,15.0,0.0
1100,52.0,20,19,15.0,0.0
1101,64.0,0,19,13.0,0.0
1102,52.0,0,19,15.0,0.0
1103,57.0,0,19,13.0,0.0
1104,45.0,20,19,15.0,0.0
1105,64.0,0,19,13.0,0.0
1106,52.0,0,19,15.0,0.0
1107,45.0,0,19,15.0,0.0
1108,57.0,20,19,13.0,0.0
1109,64.0,0,19,13.0,0.0
1110,52.0,0,19,15.0,0.0
1111,45.0,0,19,15.0,0.0
1112,57.0,0,19,13.0,0.0
1113,64.0,0,19,13.0,0.0
1114,76.0,20,14,12.0,0.0
1115,52.0,0,19,15.0,0.0
1116,45.0,0,19,15.0,0.0
1117,57.0,20,19,13.0,0.0
1118,64.0,0,19,13.0,0.0
1119,69.0,0,119,12.0,0.0
1120,64.0,0,19,13.0,0.0
1121,57.0,20,19,13.0,0.0
1122,52.0,0,19,15.0,0.0
1123,45.0,0,19,15.0,0.0
1124,45.0,20,19,15.0,0.0
1125,64.0,0,19,13.0,0.0
1126,57.0,0,19,13.0,0.0
1127,52.0,0,19,15.0,0.0
1128,64.0,0,19,13.0,0.0
1129,57.0,0,19,13.0,0.0
1130,45.0,20,19,15.0,0.0
1131,52.0,0,19,15.0,0.0
1132,45.0,20,19,15.0,0.0
1133,57.0,0,19,13.0,0.0
1134,64.0,0,19,13.0,0.0
1135,52.0,0,19,15.0,0.0
1136,57.0,0,19,13.0,0.0
1137,64.0,0,19,13.0,0.0
1138,52.0,0,19,15.0,0.0
1139,45.0,20,19,15.0,0.0
1140,45.0,0,19,15.0,0.0
1141,52.0,0,19,15.0,0.0
1142,57.0,20,19,13.0,0.0
1143,64.0,0,19,13.0,0.0
1144,64.0,0,19,13.0,0.0
1145,57.0,20,19,13.0,0.0
1146,52.0,0,19,15.0,0.0
1147,45.0,0,19,15.0,0.0
1148,64.0,0,19,13.0,0.0
1149,57.0,0,19,13.0,0.0
1150,45.0,20,19,15.0,0.0
1151,52.0,0,19,15.0,0.0
1152,45.0,20,19,15.0,0.0
1153,57.0,0,19,13.0,0.0
1154,64.0,0,19,13.0,0.0
1155,52.0,0,19,15.0,0.0
1156,57.0,0,19,13.0,0.0
1157,45.0,20,19,15.0,0.0
1158,52.0,0,19,15.0,0.0
1159,64.0,0,19,13.0,0.0
1160,64.0,0,19,13.0,0.0
1161,57.0,0,19,13.0,0.0
1162,52.0,0,19,15.0,0.0
1163,45.0,0,19,15.0,0.0
1164,69.0,20,14,12.0,0.0
1165,64.0,20,119,12.0,0.0
1166,57.0,20,19,13.0,0.0
1167,45.0,0,19,15.0,0.0
1168,52.0,0,19,15.0,0.0
1169,64.0,0,19,13.0,0.0
1170,57.0,0,19,13.0,0.0
1171,64.0,20,19,13.0,0.0
1172,45.0,0,19,15.0,0.0
1173,52.0,0,19,15.0,0.0
1174,45.0,0,19,15.0,0.0
1175,52.0,20,19,15.0,0.0
1176,64.0,0,19,13.0,0.0
1177,57.0,0,19,13.0,0.0
1178,64.0,0,19,13.0,0.0
1179,57.0,20,19,13.0,0.0
1180,45.0,0,19,15.0,0.0
1181,52.0,0,19,15.0,0.0
1182,57.0,20,19,13.0,0.0
1183,64.0,0,19,13.0,0.0
1184,45.0,0,19,15.0,0.0
1185,52.0,0,19,15.0,0.0
1186,45.0,0,19,15.0,0.0
1187,57.0,0,19,13.0,0.0
1188,64.0,0,19,13.0,0.0
1189,52.0,0,19,15.0,0.0
1190,45.0,0,19,15.0,0.0
1191,52.0,20,19,15.0,0.0
1192,64.0,0,19,13.0,0.0
1193,57.0,0,19,13.0,0.0
1194,52.0,0,19,15.0,0.0
1195,57.0,0,19,13.0,0.0
1196,64.0,0,19,13.0,0.0
1197,45.0,20,19,15.0,0.0
1198,57.0,0,19,13.0,0.0
1199,52.0,0,19,15.0,0.0
1200,45.0,0,19,15.0,0.0
1201,64.0,20,19,13.0,0.0
1202,45.0,0,19,15.0,0.0
1203,64.0,0,19,13.0,0.0
1204,57.0,0,19,13.0,0.0
1205,52.0,20,19,15.0,0.0
1206,45.0,0,19,15.0,0.0
1207,52.0,0,19,15.0,0.0
1208,57.0,20,19,13.0,0.0
1209,64.0,0,19,13.0,0.0
1210,64.0,0,19,13.0,0.0
1211,52.0,0,19,15.0,0.0
1212,45.0,0,19,15.0,0.0
1213,57.0,0,19,13.0,0.0
1214,64.0,0,14,12.0,0.0
1215,52.0,0,14,3.0,0.0
1216,45.0,0,14,7.0,0.0
1217,69.0,0,14,5.0,0.0
1218,57.0,20,14,5.0,0.0
1219,69.0,0,119,5.0,0.0
1220,57.0,0,119,5.0,0.0
1221,57.0,20,19,13.0,0.0
1222,45.0,0,119,7.0,0.0
1223,64.0,0,19,13.0,0.0
1224,57.0,0,119,12.0,0.0
1225,52.0,0,19,15.0,0.0
1226,45.0,0,19,15.0,0.0
1227,45.0,0,59,3.0,0.0
1228,45.0,0,19,15.0,0.0
1229,64.0,20,19,13.0,0.0
1230,57.0,0,19,13.0,0.0
1231,52.0,0,19,15.0,0.0
1232,64.0,0,19,13.0,0.0
1233,52.0,0,19,15.0,0.0
1234,57.0,0,19,13.0,0.0
1235,45.0,20,19,15.0,0.0
1236,45.0,20,19,15.0,0.0
1237,57.0,0,19,13.0,0.0
1238,52.0,0,19,15.0,0.0
1239,64.0,0,19,13.0,0.0
1240,52.0,0,19,15.0,0.0
1241,45.0,0,19,15.0,0.0
1242,64.0,20,19,13.0,0.0
1243,57.0,0,19,13.0,0.0
1244,57.0,0,19,13.0,0.0
1245,45.0,20,19,15.0,0.0
1246,64.0,0,19,13.0,0.0
1247,52.0,0,19,15.0,0.0
1248,57.0,20,19,13.0,0.0
1249,45.0,0,19,15.0,0.0
1250,52.0,0,19,15.0,0.0
1251,64.0,0,19,13.0,0.0
1252,52.0,0,19,15.0,0.0
1253,45.0,0,19,15.0,0.0
1254,64.0,0,19,13.0,0.0
1255,57.0,20,19,13.0,0.0
1256,64.0,20,19,13.0,0.0
1257,57.0,0,19,13.0,0.0
1258,52.0,0,19,15.0,0.0
1259,45.0,0,19,15.0,0.0
1260,45.0,20,19,15.0,0.0
1261,64.0,0,19,13.0,0.0
1262,57.0,0,19,13.0,0.0
1263,52.0,0,19,15.0,0.0
1264,57.0,0,19,13.0,0.0
1265,52.0,20,19,15.0,0.0
1266,64.0,0,19,13.0,0.0
1267,45.0,0,19,15.0,0.0
1268,57.0,0,19,13.0,0.0
1269,52.0,0,19,15.0,0.0
1270,45.0,0,19,15.0,0.0
1271,64.0,20,19,13.0,0.0
1272,64.0,20,19,13.0,0.0
1273,57.0,0,19,13.0,0.0
1274,45.0,0,19,15.0,0.0
1275,52.0,0,19,15.0,0.0
1276,57.0,0,19,13.0,0.0
1277,64.0,0,19,13.0,0.0
1278,45.0,20,19,15.0,0.0
1279,52.0,0,19,15.0,0.0
1280,57.0,0,19,13.0,0.0
1281,52.0,20,19,15.0,0.0
1282,64.0,0,19,13.0,0.0
1283,45.0,0,19,15.0,0.0
1284,64.0,0,19,13.0,0.0
1285,52.0,0,19,15.0,0.0
1286,57.0,0,19,13.0,0.0
1287,45.0,20,19,15.0,0.0
1288,52.0,0,19,15.0,0.0
1289,45.0,0,19,15.0,0.0
1290,64.0,20,19,13.0,0.0
1291,57.0,0,19,13.0,0.0
1292,52.0,0,19,15.0,0.0
1293,64.0,20,19,13.0,0.0
1294,57.0,0,19,13.0,0.0
1295,45.0,0,19,15.0,0.0
1296,57.0,0,19,13.0,0.0
1297,64.0,0,19,13.0,0.0
1298,45.0,0,19,15.0,0.0
1299,52.0,20,19,15.0,0.0
1300,52.0,20,19,15.0,0.0
1301,45.0,0,19,15.0,0.0
1302,57.0,0,19,13.0,0.0
1303,64.0,0,19,13.0,0.0
1304,52.0,0,19,15.0,0.0
1305,45.0,0,19,15.0,0.0
1306,57.0,0,19,13.0,0.0
1307,64.0,20,19,13.0,0.0
1308,57.0,20,19,13.0,0.0
1309,64.0,0,19,13.0,0.0
1310,52.0,0,19,15.0,0.0
1311,45.0,0,19,15.0,0.0
1312,52.0,20,19,15.0,0.0
1313,45.0,0,19,15.0,0.0
1314,57.0,0,19,13.0,0.0
1315,64.0,0,19,13.0,0.0
1316,52.0,0,19,15.0,0.0
1317,57.0,20,19,13.0,0.0
1318,64.0,0,19,13.0,0.0
1319,45.0,0,19,15.0,0.0
1320,81.0,0,14,12.0,0.0
1321,76.0,20,119,12.0,0.0
1322,45.0,0,19,15.0,0.0
1323,52.0,0,19,15.0,0.0
1324,64.0,0,19,13.0,0.0
1325,57.0,20,19,13.0,0.0
1326,45.0,0,19,15.0,0.0
1327,52.0,0,19,15.0,0.0
1328,57.0,0,19,13.0,0.0
1329,64.0,20,19,13.0,0.0
1330,57.0,0,19,13.0,0.0
1331,64.0,0,19,13.0,0.0
1332,52.0,20,19,15.0,0.0
1333,45.0,0,19,15.0,0.0
1334,57.0,0,19,13.0,0.0
1335,64.0,0,19,13.0,0.0
1336,45.0,0,19,15.0,0.0
1337,52.0,20,19,15.0,0.0
1338,52.0,0,19,15.0,0.0
1339,45.0,20,19,15.0,0.0
1340,64.0,0,19,13.0,0.0
1341,57.0,0,19,13.0,0.0
1342,52.0,0,19,15.0,0.0
1343,57.0,0,19,13.0,0.0
1344,64.0,0,19,13.0,0.0
1345,45.0,0,19,15.0,0.0
1346,52.0,20,19,15.0,0.0
1347,57.0,0,19,13.0,0.0
1348,64.0,0,19,13.0,0.0
1349,45.0,0,19,15.0,0.0
1350,57.0,20,19,13.0,0.0
1351,64.0,0,19,13.0,0.0
1352,52.0,0,19,15.0,0.0
1353,45.0,0,19,15.0,0.0
1354,45.0,0,19,15.0,0.0
1355,52.0,20,19,15.0,0.0
1356,64.0,0,19,13.0,0.0
1357,57.0,0,19,13.0,0.0
1358,57.0,0,19,13.0,0.0
1359,64.0,0,19,13.0,0.0
1360,45.0,20,19,15.0,0.0
1361,52.0,0,19,15.0,0.0
1362,57.0,0,19,13.0,0.0
1363,64.0,0,19,13.0,0.0
1364,52.0,0,19,15.0,0.0
1365,45.0,20,19,15.0,0.0
1366,57.0,0,19,13.0,0.0
1367,64.0,0,19,13.0,0.0
1368,45.0,20,19,15.0,0.0
1369,52.0,0,19,15.0,0.0
1370,76.0,0,14,12.0,0.0
1371,52.0,20,19,15.0,0.0
1372,45.0,0,19,15.0,0.0
1373,57.0,0,19,13.0,0.0
1374,64.0,0,19,13.0,0.0
1375,69.0,0,119,12.0,0.0
1376,57.0,0,19,13.0,0.0
1377,64.0,0,19,13.0,0.0
1378,45.0,20,19,15.0,0.0
1379,52.0,0,19,15.0,0.0
1380,52.0,0,19,15.0,0.0
1381,57.0,0,19,13.0,0.0
1382,45.0,20,19,15.0,0.0
1383,64.0,0,19,13.0,0.0
1384,57.0,0,19,13.0,0.0
1385,64.0,20,19,13.0,0.0
1386,52.0,0,19,15.0,0.0
1387,45.0,0,19,15.0,0.0
1388,52.0,0,19,15.0,0.0
1389,45.0,0,19,15.0,0.0
1390,57.0,20,19,13.0,0.0
1391,64.0,0,19,13.0,0.0
1392,52.0,0,19,15.0,0.0
1393,45.0,0,19,15.0,0.0
1394,64.0,20,19,13.0,0.0
1395,57.0,0,19,13.0,0.0
1396,45.0,0,19,15.0,0.0
1397,52.0,0,19,15.0,0.0
1398,57.0,0,19,13.0,0.0
1399,64.0,20,19,13.0,0.0
1400,57.0,0,19,13.0,0.0
1401,64.0,0,19,13.0,0.0
1402,52.0,0,19,15.0,0.0
1403,45.0,20,19,15.0,0.0
1404,52.0,0,19,15.0,0.0
1405,57.0,0,19,13.0,0.0
1406,64.0,0,19,13.0,0.0
1407,45.0,20,19,15.0,0.0
1408,52.0,0,19,15.0,0.0
1409,45.0,0,19,15.0,0.0
1410,64.0,0,19,13.0,0.0
1411,57.0,20,19,13.0,0.0
1412,45.0,0,19,15.0,0.0
1413,52.0,5,19,15.0,0.0
1414,64.0,0,19,13.0,0.0
1415,57.0,0,19,13.0,0.0
1416,57.0,0,19,13.0,0.0
1417,64.0,0,19,13.0,0.0
1418,52.0,0,19,15.0,0.0
1419,45.0,0,19,15.0,0.0
1420,45.0,0,14,7.0,0.0
1421,33.0,0,14,3.0,0.0
1422,69.0,0,14,5.0,0.0
1423,45.0,0,14,3.0,0.0
1424,57.0,0,14,3.0,0.0
1425,57.0,0,14,5.0,0.0
1426,54.0,0,119,14.0,0.0
1427,63.0,0,119,2.0,0.0
1428,45.0,0,119,7.0,0.0
1429,30.0,0,119,3.0,0.0
1430,69.0,0,119,5.0,0.0
1431,42.0,60,59,15.0,0.0
1432,57.0,0,119,5.0,0.0
1433,63.0,0,119,13.0,0.0
1434,60.0,0,119,13.0,0.0
1435,75.0,420,119,1.0,0.0
1436,54.0,0,119,4.0,0.0
1437,57.0,0,119,14.0,0.0
1438,54.0,0,59,15.0,0.0
1439,42.0,0,119,3.0,0.0
1440,54.0,0,119,3.0,0.0
1441,54.0,0,59,15.0,0.0
1442,42.0,0,59,15.0,0.0
1443,63.0,60,419,15.0,0.0
1444,51.0,0,419,15.0,0.0
1445,51.0,0,59,15.0,0.0
1446,63.0,60,59,15.0,0.0
1447,51.0,0,59,15.0,0.0
1448,63.0,60,59,15.0,0.0
1449,48.0,0,59,15.0,0.0
1450,60.0,60,59,15.0,0.0
1451,46.0,60,59,15.0,0.0
1452,58.0,0,59,15.0,0.0
1453,57.0,60,59,15.0,0.0
1454,45.0,0,59,15.0,0.0
1455,48.0,0,59,15.0,0.0
1456,60.0,60,59,15.0,0.0
1457,54.0,60,59,15.0,0.0
1458,42.0,0,59,15.0,0.0
1459,43.0,60,59,15.0,0.0
1460,55.0,0,59,15.0,0.0
1461,45.0,0,59,15.0,0.0
1462,57.0,60,59,15.0,0.0
1463,45.0,0,59,15.0,0.0
1464,57.0,60,59,15.0,0.0
1465,48.0,0,59,15.0,0.0
1466,36.0,60,59,15.0,0.0
1467,38.0,120,59,15.0,0.0
1468,50.0,0,59,15.0,0.0
1469,51.0,0,119,15.0,0.0
1470,39.0,60,119,15.0,0.0
1471,50.0,180,59,15.0,0.0
1472,38.0,0,59,15.0,0.0
1473,38.0,0,179,15.0,0.0
1474,50.0,60,179,15.0,0.0
1475,36.0,0,59,15.0,0.0
1476,48.0,60,59,15.0,0.0
1477,36.0,0,59,15.0,0.0
1478,48.0,60,59,15.0,0.0
1479,35.0,60,59,15.0,0.0
1480,47.0,0,59,15.0,0.0
1481,47.0,0,59,15.0,0.0
1482,35.0,60,59,15.0,0.0
1483,53.0,0,59,15.0,0.0
1484,41.0,60,59,15.0,0.0
1485,41.0,0,59,15.0,0.0
1486,53.0,120,59,15.0,0.0
1487,52.0,0,119,15.0,0.0
1488,40.0,60,119,15.0,0.0
1489,38.0,0,59,15.0,0.0
1490,50.0,60,59,15.0,0.0
1491,38.0,60,59,15.0,0.0
1492,50.0,0,59,15.0,0.0
1493,59.0,60,59,15.0,0.0
1494,47.0,0,59,15.0,0.0
1495,59.0,0,59,15.0,0.0
1496,47.0,60,59,15.0,0.0
1497,59.0,0,59,15.0,0.0
1498,47.0,60,59,15.0,0.0
1499,47.0,0,59,15.0,0.0
1500,59.0,60,59,15.0,0.0
1501,60.0,360,59,15.0,0.0
1502,48.0,0,59,15.0,0.0
1503,50.0,0,359,15.0,0.0
1504,62.0,240,359,15.0,0.0
1505,60.0,0,239,15.0,0.0
1506,48.0,120,239,15.0,0.0
1507,47.0,0,119,15.0,0.0
1508,59.0,120,119,15.0,0.0
1509,50.0,120,119,15.0,0.0
1510,62.0,0,119,15.0,0.0
1511,48.0,0,119,15.0,0.0
1512,60.0,240,119,15.0,0.0
1513,59.0,0,119,3.0,0.0
1514,56.0,0,119,3.0,0.0
1515,76.0,0,119,13.0,0.0
1516,88.0,60,179,0.0,0.0
1517,76.0,0,179,1.0,0.0
1518,64.0,60,119,15.0,0.0
1519,64.0,0,119,14.0,0.0
1520,57.0,0,59,3.0,0.0
1521,60.0,0,59,3.0,0.0
1522,64.0,60,59,1.0,0.0
1523,76.0,0,59,0.0,0.0
1524,64.0,0,119,1.0,0.0
1525,59.0,60,59,3.0,0.0
1526,62.0,0,59,3.0,0.0
1527,76.0,60,119,0.0,0.0
1528,69.0,60,59,1.0,0.0
1529,57.0,0,119,14.0,0.0
1530,57.0,60,119,15.0,0.0
1531,81.0,0,59,0.0,0.0
1532,69.0,0,119,13.0,0.0
1533,60.0,0,59,3.0,0.0
1534,64.0,0,59,3.0,0.0
1535,59.0,0,59,3.0,0.0
1536,83.0,120,59,0.0,0.0
1537,71.0,0,59,1.0,0.0
1538,62.0,0,59,3.0,0.0
1539,57.0,120,59,3.0,0.0
1540,60.0,0,59,3.0,0.0
1541,84.0,0,59,0.0,0.0
1542,72.0,0,59,1.0,0.0
1543,76.0,0,179,2.0,0.0
1544,62.0,0,59,3.0,0.0
1545,83.0,0,59,0.0,0.0
1546,52.0,0,119,15.0,0.0
1547,52.0,0,119,14.0,0.0
1548,64.0,60,119,13.0,0.0
1549,80.0,0,59,1.0,0.0
1550,59.0,60,59,3.0,0.0
1551,76.0,0,119,12.0,0.0
1552,60.0,0,59,3.0,0.0
1553,57.0,0,59,3.0,0.0
1554,84.0,0,59,0.0,0.0
1555,81.0,60,59,1.0,0.0
1556,64.0,60,59,2.0,0.0
1557,86.0,0,59,0.0,0.0
1558,56.0,0,59,3.0,0.0
1559,59.0,0,59,3.0,0.0
1560,83.0,60,59,1.0,0.0
1561,64.0,60,119,2.0,0.0
1562,69.0,60,59,2.0,0.0
1563,84.0,0,59,0.0,0.0
1564,81.0,0,59,1.0,0.0
1565,60.0,0,119,3.0,0.0
1566,57.0,60,119,13.0,0.0
1567,69.0,0,119,12.0,0.0
1568,57.0,0,119,3.0,0.0
1569,45.0,0,119,15.0,0.0
1570,57.0,0,119,14.0,0.0
1571,80.0,0,59,1.0,0.0
1572,71.0,120,59,2.0,0.0
1573,83.0,0,59,0.0,0.0
1574,81.0,0,59,0.0,0.0
1575,72.0,0,59,2.0,0.0
1576,81.0,120,59,1.0,0.0
1577,60.0,0,179,3.0,0.0
1578,79.0,0,59,1.0,0.0
1579,60.0,60,119,15.0,0.0
1580,70.0,0,59,2.0,0.0
1581,67.0,60,59,2.0,0.0
1582,72.0,0,119,13.0,0.0
1583,48.0,0,179,3.0,0.0
1584,82.0,0,59,0.0,0.0
1585,60.0,0,119,14.0,0.0
1586,65.0,0,59,2.0,0.0
1587,69.0,0,59,2.0,0.0
1588,81.0,0,59,0.0,0.0
1589,77.0,60,59,1.0,0.0
1590,48.0,0,59,3.0,0.0
1591,36.0,60,59,3.0,0.0
1592,67.0,0,59,2.0,0.0
1593,76.0,60,59,1.0,0.0
1594,64.0,0,59,2.0,0.0
1595,79.0,0,59,0.0,0.0
1596,36.0,60,119,3.0,0.0
1597,48.0,0,119,3.0,0.0
1598,65.0,0,59,2.0,0.0
1599,65.0,0,119,13.0,0.0
1600,69.0,60,59,2.0,0.0
1601,53.0,0,119,14.0,0.0
1602,41.0,0,59,3.0,0.0
1603,53.0,60,119,15.0,0.0
1604,53.0,0,59,3.0,0.0
1605,77.0,0,59,1.0,0.0
1606,81.0,0,59,0.0,0.0
1607,77.0,0,59,1.0,0.0
1608,70.0,0,59,2.0,0.0
1609,43.0,0,59,3.0,0.0
1610,55.0,120,59,3.0,0.0
1611,65.0,0,59,2.0,0.0
1612,82.0,0,59,0.0,0.0
1613,84.0,0,59,0.0,0.0
1614,57.0,180,59,3.0,0.0
1615,45.0,0,59,3.0,0.0
1616,65.0,0,59,2.0,0.0
1617,77.0,0,59,1.0,0.0
1618,72.0,0,59,2.0,0.0
1619,64.0,60,119,2.0,0.0
1620,76.0,0,119,2.0,0.0
1621,60.0,0,119,14.0,0.0
1622,72.0,0,119,12.0,0.0
1623,60.0,0,119,13.0,0.0
1624,88.0,0,119,0.0,0.0
1625,84.0,60,179,1.0,0.0
1626,48.0,0,119,14.0,0.0
1627,48.0,0,119,15.0,0.0
1628,43.0,0,119,3.0,0.0
1629,55.0,0,119,3.0,0.0
1630,89.0,0,119,0.0,0.0
1631,65.0,0,119,2.0,0.0
1632,45.0,0,119,3.0,0.0
1633,57.0,120,119,3.0,0.0
1634,77.0,0,119,2.0,0.0
1635,72.0,0,59,1.0,0.0
1636,79.0,0,119,2.0,0.0
1637,67.0,0,119,2.0,0.0
1638,91.0,120,119,0.0,0.0
1639,72.0,0,119,1.0,0.0
1640,58.0,0,119,3.0,0.0
1641,46.0,0,119,3.0,0.0
1642,60.0,0,119,13.0,0.0
1643,72.0,0,119,2.0,0.0
1644,65.0,0,119,12.0,0.0
1645,77.0,0,119,1.0,0.0
1646,41.0,0,119,15.0,0.0
1647,53.0,120,119,14.0,0.0
1648,57.0,0,119,3.0,0.0
1649,45.0,0,119,3.0,0.0
1650,89.0,0,119,0.0,0.0
1651,65.0,0,119,2.0,0.0
1652,91.0,120,119,0.0,0.0
1653,55.0,0,119,3.0,0.0
1654,79.0,0,119,1.0,0.0
1655,43.0,0,119,3.0,0.0
1656,70.0,0,119,2.0,0.0
1657,64.0,0,119,2.0,0.0
1658,41.0,0,119,3.0,0.0
1659,93.0,0,119,0.0,0.0
1660,81.0,0,119,1.0,0.0
1661,69.0,0,119,2.0,0.0
1662,65.0,0,119,2.0,0.0
1663,53.0,240,119,3.0,0.0
1664,53.0,120,119,15.0,0.0
1665,65.0,0,119,15.0,0.0
1666,60.0,0,119,15.0,0.0
1667,48.0,360,119,15.0,0.0
1668,60.0,60,119,15.0,0.0
1669,48.0,0,119,15.0,0.0
1670,46.0,60,59,15.0,0.0
1671,58.0,0,59,15.0,0.0
1672,48.0,0,59,15.0,0.0
1673,60.0,60,59,15.0,0.0
1674,46.0,60,59,15.0,0.0
1675,58.0,0,59,15.0,0.0
1676,45.0,120,59,15.0,0.0
1677,57.0,0,59,15.0,0.0
1678,57.0,0,119,15.0,0.0
1679,45.0,300,119,15.0,0.0
1680,41.0,60,299,15.0,0.0
1681,53.0,0,299,15.0,0.0
1682,41.0,60,59,15.0,0.0
1683,53.0,0,59,15.0,0.0
1684,41.0,60,59,15.0,0.0
1685,53.0,0,59,15.0,0.0
1686,55.0,0,59,15.0,0.0
1687,43.0,60,59,15.0,0.0
1688,46.0,0,59,15.0,0.0
1689,58.0,60,59,15.0,0.0
1690,45.0,120,59,15.0,0.0
1691,57.0,0,59,15.0,0.0
1692,45.0,60,59,15.0,0.0
1693,57.0,0,59,15.0,0.0
1694,57.0,0,59,15.0,0.0
1695,45.0,60,59,15.0,0.0
1696,58.0,0,59,15.0,0.0
1697,46.0,60,59,15.0,0.0
1698,50.0,60,59,15.0,0.0
1699,62.0,0,59,15.0,0.0
1700,48.0,60,59,15.0,0.0
1701,60.0,0,59,15.0,0.0
1702,48.0,60,59,15.0,0.0
1703,60.0,0,59,15.0,0.0
1704,60.0,60,59,15.0,0.0
1705,48.0,0,59,15.0,0.0
1706,48.0,60,59,15.0,0.0
1707,60.0,0,59,15.0,0.0
1708,62.0,0,59,15.0,0.0
1709,50.0,120,59,15.0,0.0
1710,51.0,0,119,15.0,0.0
1711,63.0,360,119,15.0,0.0
1712,86.0,0,239,0.0,0.0
1713,65.0,120,119,4.0,0.0
1714,53.0,0,119,4.0,0.0
1715,62.0,0,239,3.0,0.0
1716,74.0,0,239,2.0,0.0
1717,46.0,120,239,3.0,0.0
1718,65.0,60,659,2.0,0.0
1719,65.0,0,239,4.0,0.0
1720,53.0,120,239,4.0,0.0
1721,51.0,0,239,3.0,0.0
1722,81.0,120,239,0.0,0.0
1723,60.0,0,239,3.0,0.0
1724,69.0,0,239,2.0,0.0
1725,65.0,60,239,4.0,0.0
1726,53.0,0,239,4.0,0.0
1727,82.0,0,119,0.0,0.0
1728,82.0,0,239,1.0,0.0
1729,70.0,120,239,2.0,0.0
1730,58.0,0,239,3.0,0.0
1731,50.0,0,239,3.0,0.0
1732,65.0,60,239,4.0,0.0
1733,53.0,0,239,4.0,0.0
1734,58.0,0,59,2.0,0.0
1735,65.0,60,179,2.0,0.0
1736,77.0,0,179,1.0,0.0
1737,72.0,0,239,1.0,0.0
1738,53.0,0,179,3.0,0.0
1739,60.0,0,119,4.0,0.0
1740,53.0,0,119,4.0,0.0
1741,75.0,0,59,1.0,0.0
1742,63.0,120,59,2.0,0.0
1743,51.0,0,59,3.0,0.0
1744,53.0,0,119,4.0,0.0
1745,58.0,0,119,4.0,0.0
1746,50.0,0,119,3.0,0.0
1747,46.0,0,599,15.0,0.0
1748,58.0,120,599,15.0,0.0
1749,58.0,0,119,2.0,0.0
1750,74.0,0,119,1.0,0.0
1751,70.0,480,119,1.0,0.0
1752,62.0,0,119,2.0,0.0
1753,46.0,0,119,3.0,0.0
1754,47.0,240,119,15.0,0.0
1755,59.0,0,119,15.0,0.0
1756,47.0,0,239,15.0,0.0
1757,59.0,120,239,15.0,0.0
1758,44.0,240,119,15.0,0.0
1759,56.0,0,119,15.0,0.0
1760,54.0,0,239,15.0,0.0
1761,42.0,120,239,15.0,0.0
1762,41.0,0,119,15.0,0.0
1763,53.0,360,119,15.0,0.0
1764,71.0,0,719,1.0,0.0
1765,73.0,0,959,0.0,0.0
1766,68.0,0,719,2.0,0.0
1767,53.0,0,119,15.0,0.0
1768,41.0,240,119,15.0,0.0
1769,56.0,120,239,15.0,0.0
1770,44.0,0,239,15.0,0.0
1771,49.0,0,119,15.0,0.0
1772,61.0,120,119,15.0,0.0
1773,61.0,0,119,15.0,0.0
1774,69.0,0,239,1.0,0.0
1775,49.0,120,119,15.0,0.0
1776,66.0,60,239,2.0,0.0
1777,42.0,60,179,15.0,0.0
1778,54.0,0,179,15.0,0.0
1779,78.0,0,359,0.0,0.0
1780,69.0,30,239,2.0,0.0
1781,73.0,0,239,1.0,0.0
1782,45.0,0,59,15.0,0.0
1783,57.0,120,59,15.0,0.0
1784,45.0,0,119,15.0,0.0
1785,57.0,0,119,15.0,0.0
1786,48.0,0,29,15.0,0.0
1787,75.0,30,119,1.0,0.0
1788,36.0,60,29,15.0,0.0
1789,68.0,0,119,2.0,0.0
1790,63.0,30,29,15.0,0.0
1791,51.0,0,29,15.0,0.0
1792,63.0,0,29,15.0,0.0
1793,51.0,60,29,15.0,0.0
1794,49.0,0,29,15.0,0.0
1795,61.0,90,29,15.0,0.0
1796,61.0,0,59,15.0,0.0
1797,49.0,60,59,15.0,0.0
1798,60.0,0,59,15.0,0.0
1799,48.0,60,59,15.0,0.0
1800,60.0,0,59,15.0,0.0
1801,48.0,60,59,15.0,0.0
1802,51.0,60,59,15.0,0.0
1803,63.0,0,59,15.0,0.0
1804,63.0,0,59,15.0,0.0
1805,51.0,60,59,15.0,0.0
1806,64.0,180,59,15.0,0.0
1807,52.0,0,59,15.0,0.0
1808,66.0,60,179,15.0,0.0
1809,54.0,0,179,15.0,0.0
1810,51.0,0,59,15.0,0.0
1811,63.0,60,59,15.0,0.0
1812,60.0,60,59,15.0,0.0
1813,48.0,0,59,15.0,0.0
1814,61.0,120,59,15.0,0.0
1815,49.0,0,59,15.0,0.0
1816,61.0,120,119,15.0,0.0
1817,49.0,0,119,15.0,0.0
1818,56.0,0,119,15.0,0.0
1819,44.0,120,119,15.0,0.0
1820,56.0,0,479,3.0,0.0
1821,73.0,240,119,1.0,0.0
1822,76.0,0,359,1.0,0.0
1823,59.0,0,359,3.0,0.0
1824,71.0,120,239,1.0,0.0
1825,64.0,0,239,4.0,0.0
1826,74.0,120,119,1.0,0.0
1827,61.0,120,119,3.0,0.0
1828,57.0,0,119,3.0,0.0
1829,64.0,0,119,2.0,0.0
1830,73.0,0,119,1.0,0.0
1831,69.0,0,119,1.0,0.0
1832,45.0,0,2039,4.0,0.0
1833,57.0,0,2039,4.0,0.0
1834,52.0,0,119,3.0,0.0
1835,73.0,0,119,1.0,0.0
1836,61.0,0,119,3.0,0.0
1837,64.0,120,119,2.0,0.0
1838,62.0,0,119,3.0,0.0
1839,54.0,120,119,3.0,0.0
1840,66.0,0,119,2.0,0.0
1841,74.0,0,119,1.0,0.0
1842,76.0,0,119,1.0,0.0
1843,67.0,120,119,2.0,0.0
1844,64.0,0,119,3.0,0.0
1845,55.0,0,119,3.0,0.0
1846,76.0,120,119,1.0,0.0
1847,64.0,0,119,3.0,0.0
1848,67.0,0,119,2.0,0.0
1849,55.0,0,119,3.0,0.0
1850,54.0,0,119,3.0,0.0
1851,62.0,0,119,3.0,0.0
1852,74.0,120,119,1.0,0.0
1853,66.0,0,119,2.0,0.0
1854,61.0,120,119,3.0,0.0
1855,52.0,0,119,3.0,0.0
1856,64.0,0,119,2.0,0.0
1857,73.0,0,119,1.0,0.0
1858,50.0,0,119,3.0,0.0
1859,59.0,0,119,3.0,0.0
1860,62.0,0,119,2.0,0.0
1861,71.0,120,119,1.0,0.0
1862,76.0,0,119,1.0,0.0
1863,61.0,0,119,2.0,0.0
1864,73.0,0,119,1.0,0.0
1865,64.0,0,119,2.0,0.0
1866,52.0,120,119,3.0,0.0
1867,49.0,0,119,3.0,0.0
1868,61.0,0,119,2.0,0.0
1869,64.0,0,119,2.0,0.0
1870,49.0,0,119,3.0,0.0
1871,73.0,120,119,1.0,0.0
1872,76.0,0,119,1.0,0.0
1873,52.0,0,119,3.0,0.0
1874,62.0,120,119,2.0,0.0
1875,54.0,0,119,3.0,0.0
1876,50.0,0,119,3.0,0.0
1877,66.0,0,119,2.0,0.0
1878,74.0,0,119,1.0,0.0
1879,78.0,0,119,1.0,0.0
1880,79.0,0,119,1.0,0.0
1881,55.0,0,119,3.0,0.0
1882,76.0,120,119,1.0,0.0
1883,52.0,0,119,3.0,0.0
1884,67.0,0,119,2.0,0.0
1885,64.0,0,119,2.0,0.0
1886,64.0,120,119,2.0,0.0
1887,76.0,0,119,1.0,0.0
1888,79.0,0,119,1.0,0.0
1889,55.0,0,119,3.0,0.0
1890,52.0,0,119,3.0,0.0
1891,67.0,0,119,2.0,0.0
1892,78.0,0,119,1.0,0.0
1893,66.0,0,119,2.0,0.0
1894,62.0,0,119,2.0,0.0
1895,74.0,120,119,1.0,0.0
1896,50.0,0,119,3.0,0.0
1897,54.0,0,119,3.0,0.0
1898,73.0,120,119,2.0,0.0
1899,76.0,0,119,1.0,0.0
1900,45.0,0,119,15.0,0.0
1901,57.0,0,119,15.0,0.0
1902,55.0,0,119,3.0,0.0
1903,64.0,0,119,3.0,0.0
1904,64.0,0,119,2.0,0.0
1905,67.0,0,119,1.0,0.0
1906,69.0,0,119,1.0,0.0
1907,74.0,0,119,1.0,0.0
1908,62.0,0,119,3.0,0.0
1909,54.0,0,119,3.0,0.0
1910,66.0,0,119,2.0,0.0
1911,74.0,120,119,2.0,0.0
1912,52.0,0,119,15.0,0.0
1913,73.0,0,119,1.0,0.0
1914,69.0,0,119,1.0,0.0
1915,64.0,0,119,15.0,0.0
1916,61.0,0,119,3.0,0.0
1917,52.0,60,119,3.0,0.0
1918,67.0,0,119,2.0,0.0
1919,79.0,0,119,2.0,0.0
1920,52.0,0,59,3.0,0.0
1921,40.0,0,59,3.0,0.0
1922,85.0,0,59,0.0,0.0
1923,79.0,0,59,1.0,0.0
1924,73.0,0,59,1.0,0.0
1925,64.0,0,59,3.0,0.0
1926,57.0,0,59,4.0,0.0
1927,64.0,120,59,4.0,0.0
1928,73.0,0,59,2.0,0.0
1929,67.0,0,59,2.0,0.0
1930,62.0,60,59,15.0,0.0
1931,50.0,0,59,15.0,0.0
1932,64.0,0,59,15.0,0.0
1933,52.0,60,59,15.0,0.0
1934,62.0,0,59,15.0,0.0
1935,50.0,60,59,15.0,0.0
1936,61.0,60,59,15.0,0.0
1937,49.0,0,59,15.0,0.0
1938,37.0,0,59,3.0,0.0
1939,67.0,0,59,2.0,0.0
1940,76.0,0,59,2.0,0.0
1941,61.0,0,59,3.0,0.0
1942,49.0,0,59,3.0,0.0
1943,57.0,0,59,4.0,0.0
1944,79.0,0,59,1.0,0.0
1945,76.0,0,59,1.0,0.0
1946,88.0,0,59,0.0,0.0
1947,79.0,0,59,0.0,0.0
1948,64.0,180,59,4.0,0.0
1949,52.0,0,59,15.0,0.0
1950,64.0,120,59,15.0,0.0
1951,52.0,60,119,15.0,0.0
1952,64.0,0,119,15.0,0.0
1953,73.0,0,59,2.0,0.0
1954,55.0,60,179,15.0,0.0
1955,45.0,60,119,7.0,0.0
1956,55.0,0,59,3.0,0.0
1957,43.0,0,59,3.0,0.0
1958,57.0,0,119,5.0,0.0
1959,69.0,0,119,5.0,0.0
1960,76.0,60,59,2.0,0.0
1961,64.0,0,59,4.0,0.0
1962,57.0,0,59,4.0,0.0
1963,85.0,0,59,0.0,0.0
1964,88.0,0,59,0.0,0.0
1965,43.0,0,179,15.0,0.0
1966,31.0,0,59,3.0,0.0
1967,81.0,0,59,1.0,0.0
1968,85.0,0,59,1.0,0.0
1969,57.0,0,59,15.0,0.0
1970,45.0,120,59,15.0,0.0
1971,55.0,0,119,15.0,0.0
1972,43.0,60,119,15.0,0.0
1973,74.0,0,59,2.0,0.0
1974,62.0,0,59,5.0,0.0
1975,74.0,0,59,5.0,0.0
1976,54.0,60,119,15.0,0.0
1977,54.0,0,59,3.0,0.0
1978,78.0,0,59,2.0,0.0
1979,42.0,0,59,3.0,0.0
1980,50.0,60,59,7.0,0.0
1981,86.0,0,59,1.0,0.0
1982,86.0,0,59,0.0,0.0
1983,62.0,0,59,4.0,0.0
1984,66.0,0,59,4.0,0.0
1985,81.0,0,59,0.0,0.0
1986,81.0,0,59,1.0,0.0
1987,30.0,0,59,3.0,0.0
1988,42.0,0,119,15.0,0.0
1989,74.0,0,59,5.0,0.0
1990,62.0,0,59,5.0,0.0
1991,50.0,0,59,7.0,0.0
1992,45.0,0,89,15.0,0.0
1993,62.0,0,59,5.0,0.0
1994,50.0,30,59,7.0,0.0
1995,57.0,30,89,15.0,0.0
1996,74.0,0,59,5.0,0.0
1997,50.0,120,59,7.0,0.0
1998,74.0,0,59,5.0,0.0
1999,62.0,0,59,5.0,0.0
2000,50.0,0,29,15.0,0.0
2001,62.0,0,29,15.0,0.0
2002,62.0,0,119,5.0,0.0
2003,62.0,60,179,15.0,0.0
2004,50.0,0,179,15.0,0.0
2005,74.0,60,119,5.0,0.0
2006,50.0,0,119,7.0,0.0
2007,52.0,60,59,15.0,0.0
2008,64.0,0,59,15.0,0.0
2009,66.0,60,59,15.0,0.0
2010,54.0,0,59,15.0,0.0
2011,52.0,60,59,15.0,0.0
2012,64.0,0,59,15.0,0.0
2013,52.0,60,59,15.0,0.0
2014,64.0,0,59,15.0,0.0
2015,62.0,0,59,15.0,0.0
2016,50.0,60,59,15.0,0.0
2017,62.0,60,59,15.0,0.0
2018,50.0,0,59,15.0,0.0
2019,61.0,0,59,15.0,0.0
2020,49.0,60,59,15.0,0.0
2021,50.0,60,59,15.0,0.0
2022,62.0,0,59,15.0,0.0
2023,45.0,0,59,15.0,0.0
2024,57.0,60,59,15.0,0.0
2025,43.0,60,59,15.0,0.0
2026,55.0,0,59,15.0,0.0
2027,42.0,0,59,15.0,0.0
2028,54.0,60,59,15.0,0.0
2029,42.0,0,59,15.0,0.0
2030,54.0,60,59,15.0,0.0
2031,40.0,60,59,15.0,0.0
2032,52.0,0,59,15.0,0.0
2033,50.0,0,59,15.0,0.0
2034,38.0,60,59,15.0,0.0
2035,36.0,60,59,15.0,0.0
2036,48.0,0,59,15.0,0.0
2037,48.0,60,59,15.0,0.0
2038,36.0,0,59,15.0,0.0
2039,35.0,120,59,15.0,0.0
2040,47.0,0,59,15.0,0.0
2041,62.0,60,119,4.0,0.0
2042,43.0,0,119,3.0,0.0
2043,55.0,0,119,3.0,0.0
2044,67.0,0,119,2.0,0.0
2045,71.0,0,119,2.0,0.0
2046,31.0,0,119,3.0,0.0
2047,43.0,60,419,15.0,0.0
2048,71.0,0,119,1.0,0.0
2049,74.0,0,119,1.0,0.0
2050,67.0,0,119,4.0,0.0
2051,74.0,0,119,5.0,0.0
2052,50.0,0,119,7.0,0.0
2053,62.0,0,119,5.0,0.0
2054,55.0,0,419,15.0,0.0
2055,83.0,0,119,0.0,0.0
2056,50.0,0,59,7.0,0.0
2057,91.0,0,59,0.0,0.0
2058,79.0,0,59,1.0,0.0
2059,83.0,0,59,1.0,0.0
2060,83.0,0,59,0.0,0.0
2061,71.0,0,59,2.0,0.0
2062,67.0,0,59,4.0,0.0
2063,62.0,0,59,4.0,0.0
2064,74.0,0,59,5.0,0.0
2065,62.0,0,59,5.0,0.0
2066,79.0,0,59,2.0,0.0
2067,67.0,0,59,3.0,0.0
2068,55.0,240,59,3.0,0.0
2069,43.0,0,59,3.0,0.0
2070,52.0,0,59,15.0,0.0
2071,40.0,60,59,15.0,0.0
2072,49.0,0,59,15.0,0.0
2073,37.0,60,59,15.0,0.0
2074,50.0,120,59,15.0,0.0
2075,38.0,0,59,15.0,0.0
2076,38.0,0,119,15.0,0.0
2077,50.0,120,119,15.0,0.0
2078,33.0,240,119,15.0,0.0
2079,45.0,0,119,15.0,0.0
2080,64.0,0,119,4.0,0.0
2081,57.0,0,119,4.0,0.0
2082,88.0,0,119,0.0,0.0
2083,85.0,0,119,1.0,0.0
2084,76.0,0,119,1.0,0.0
2085,45.0,240,119,7.0,0.0
2086,85.0,0,119,0.0,0.0
2087,76.0,0,119,5.0,0.0
2088,73.0,0,119,2.0,0.0
2089,76.0,0,119,2.0,0.0
2090,69.0,0,119,5.0,0.0
2091,45.0,0,119,3.0,0.0
2092,33.0,0,119,3.0,0.0
2093,57.0,0,119,3.0,0.0
2094,78.0,0,119,2.0,0.0
2095,26.0,0,119,3.0,0.0
2096,78.0,0,119,1.0,0.0
2097,86.0,0,119,1.0,0.0
2098,74.0,0,119,2.0,0.0
2099,62.0,0,119,4.0,0.0
2100,66.0,0,119,5.0,0.0
2101,74.0,0,119,5.0,0.0
2102,86.0,0,119,0.0,0.0
2103,50.0,240,119,3.0,0.0
2104,50.0,0,119,7.0,0.0
2105,90.0,0,119,0.0,0.0
2106,66.0,0,119,4.0,0.0
2107,38.0,0,119,3.0,0.0
2108,42.0,0,239,15.0,0.0
2109,54.0,120,239,15.0,0.0
2110,43.0,0,119,15.0,0.0
2111,55.0,120,119,15.0,0.0
2112,45.0,120,119,15.0,0.0
2113,57.0,0,119,15.0,0.0
2114,45.0,120,119,15.0,0.0
2115,57.0,0,119,15.0,0.0
2116,55.0,120,119,15.0,0.0
2117,43.0,0,119,15.0,0.0
2118,42.0,0,119,15.0,0.0
2119,54.0,120,119,15.0,0.0
2120,40.0,0,119,15.0,0.0
2121,52.0,240,119,15.0,0.0
2122,50.0,120,239,15.0,0.0
2123,38.0,0,239,15.0,0.0
2124,40.0,120,119,15.0,0.0
2125,52.0,0,119,15.0,0.0
2126,54.0,180,119,15.0,0.0
2127,42.0,0,119,15.0,0.0
2128,54.0,0,179,15.0,0.0
2129,42.0,60,179,15.0,0.0
2130,40.0,240,59,15.0,0.0
2131,52.0,0,59,15.0,0.0
2132,52.0,240,239,15.0,0.0
2133,40.0,0,239,15.0,0.0
2134,42.0,120,239,15.0,0.0
2135,54.0,0,239,15.0,0.0
2136,55.0,0,119,15.0,0.0
2137,43.0,120,119,15.0,0.0
2138,45.0,0,119,15.0,0.0
2139,57.0,120,119,15.0,0.0
2140,45.0,0,119,15.0,0.0
2141,57.0,120,119,15.0,0.0
2142,55.0,120,119,15.0,0.0
2143,43.0,0,119,15.0,0.0
2144,42.0,120,119,15.0,0.0
2145,54.0,0,119,15.0,0.0
2146,52.0,240,119,15.0,0.0
2147,40.0,0,119,15.0,0.0
2148,50.0,0,239,15.0,0.0
2149,38.0,120,239,15.0,0.0
2150,52.0,0,119,15.0,0.0
2151,40.0,120,119,15.0,0.0
2152,42.0,0,119,15.0,0.0
2153,54.0,180,119,15.0,0.0
2154,40.0,0,179,15.0,0.0
2155,52.0,60,179,15.0,0.0
2156,38.0,240,59,15.0,0.0
2157,50.0,0,59,15.0,0.0
2158,38.0,0,239,15.0,0.0
2159,50.0,240,239,15.0,0.0
2160,52.0,120,239,15.0,0.0
2161,40.0,0,239,15.0,0.0
2162,42.0,0,119,15.0,0.0
2163,54.0,120,119,15.0,0.0
2164,50.0,0,119,15.0,0.0
2165,38.0,120,119,15.0,0.0
2166,52.0,60,119,15.0,0.0
2167,40.0,0,119,15.0,0.0
2168,54.0,60,59,15.0,0.0
2169,42.0,0,59,15.0,0.0
2170,55.0,120,59,15.0,0.0
2171,43.0,0,59,15.0,0.0
2172,42.0,0,119,15.0,0.0
2173,54.0,120,119,15.0,0.0
2174,50.0,0,119,15.0,0.0
2175,38.0,120,119,15.0,0.0
2176,52.0,0,119,15.0,0.0
2177,40.0,60,119,15.0,0.0
2178,54.0,60,59,15.0,0.0
2179,42.0,0,59,15.0,0.0
2180,43.0,120,59,15.0,0.0
2181,55.0,0,59,15.0,0.0
2182,42.0,120,119,15.0,0.0
2183,54.0,0,119,15.0,0.0
2184,52.0,0,119,15.0,0.0
2185,40.0,120,119,15.0,0.0
2186,38.0,120,119,15.0,0.0
2187,50.0,0,119,15.0,0.0
2188,40.0,120,119,15.0,0.0
2189,52.0,0,119,15.0,0.0
2190,45.0,240,119,15.0,0.0
2191,33.0,0,119,15.0,0.0
2192,54.0,0,239,15.0,0.0
2193,42.0,120,239,15.0,0.0
2194,42.0,120,119,15.0,0.0
2195,54.0,0,119,15.0,0.0
2196,43.0,120,119,15.0,0.0
2197,55.0,0,119,15.0,0.0
2198,45.0,120,119,15.0,0.0
2199,57.0,0,119,15.0,0.0
2200,57.0,0,119,15.0,0.0
2201,45.0,120,119,15.0,0.0
2202,55.0,120,119,15.0,0.0
2203,43.0,0,119,15.0,0.0
2204,42.0,0,119,15.0,0.0
2205,54.0,120,119,15.0,0.0
2206,52.0,0,119,15.0,0.0
2207,40.0,240,119,15.0,0.0
2208,50.0,120,239,15.0,0.0
2209,38.0,0,239,15.0,0.0
2210,40.0,120,119,15.0,0.0
2211,52.0,0,119,15.0,0.0
2212,42.0,180,119,15.0,0.0
2213,54.0,0,119,15.0,0.0
2214,40.0,60,179,15.0,0.0
2215,52.0,0,179,15.0,0.0
2216,50.0,0,59,15.0,0.0
2217,38.0,240,59,15.0,0.0
2218,38.0,240,239,15.0,0.0
2219,50.0,0,239,15.0,0.0
2220,52.0,120,239,15.0,0.0
2221,40.0,0,239,15.0,0.0
2222,42.0,120,119,15.0,0.0
2223,54.0,0,119,15.0,0.0
2224,50.0,0,119,15.0,0.0
2225,38.0,120,119,15.0,0.0
2226,40.0,60,119,15.0,0.0
2227,52.0,0,119,15.0,0.0
2228,42.0,60,59,15.0,0.0
2229,54.0,0,59,15.0,0.0
2230,55.0,120,59,15.0,0.0
2231,43.0,0,59,15.0,0.0
2232,54.0,120,119,15.0,0.0
2233,42.0,0,119,15.0,0.0
2234,38.0,120,119,15.0,0.0
2235,50.0,0,119,15.0,0.0
2236,52.0,0,119,15.0,0.0
2237,40.0,60,119,15.0,0.0
2238,42.0,60,59,15.0,0.0
2239,54.0,0,59,15.0,0.0
2240,55.0,0,59,15.0,0.0
2241,43.0,120,59,15.0,0.0
2242,54.0,120,119,15.0,0.0
2243,42.0,0,119,15.0,0.0
2244,40.0,0,119,15.0,0.0
2245,52.0,120,119,15.0,0.0
2246,38.0,120,119,15.0,0.0
2247,50.0,0,119,15.0,0.0
2248,40.0,0,119,15.0,0.0
2249,52.0,120,119,15.0,0.0
2250,45.0,0,119,15.0,0.0
2251,33.0,240,119,15.0,0.0
2252,54.0,0,239,15.0,0.0
2253,42.0,120,239,15.0,0.0
2254,42.0,120,119,15.0,0.0
2255,54.0,0,119,15.0,0.0
2256,43.0,120,119,15.0,0.0
2257,55.0,0,119,15.0,0.0
2258,57.0,0,119,15.0,0.0
2259,45.0,120,119,15.0,0.0
2260,45.0,0,119,15.0,0.0
2261,57.0,120,119,15.0,0.0
2262,55.0,120,119,15.0,0.0
2263,43.0,0,119,15.0,0.0
2264,54.0,120,119,15.0,0.0
2265,42.0,0,119,15.0,0.0
2266,40.0,0,119,15.0,0.0
2267,52.0,240,119,15.0,0.0
2268,38.0,0,239,15.0,0.0
2269,50.0,120,239,15.0,0.0
2270,40.0,0,119,15.0,0.0
2271,52.0,120,119,15.0,0.0
2272,42.0,0,119,15.0,0.0
2273,54.0,180,119,15.0,0.0
2274,40.0,0,179,15.0,0.0
2275,52.0,60,179,15.0,0.0
2276,38.0,0,59,15.0,0.0
2277,50.0,120,59,15.0,0.0
2278,38.0,0,119,15.0,0.0
2279,50.0,120,119,15.0,0.0
2280,57.0,240,119,15.0,0.0
2281,45.0,120,359,15.0,0.0
2282,66.0,0,239,15.0,0.0
2283,66.0,0,239,14.0,0.0
2284,67.0,0,119,14.0,0.0
2285,67.0,120,119,15.0,0.0
2286,38.0,120,239,15.0,0.0
2287,69.0,0,119,14.0,0.0
2288,69.0,0,119,15.0,0.0
2289,66.0,0,119,3.0,0.0
2290,35.0,60,179,15.0,0.0
2291,69.0,60,119,15.0,0.0
2292,69.0,0,119,14.0,0.0
2293,62.0,0,179,3.0,0.0
2294,67.0,0,119,14.0,0.0
2295,67.0,120,119,15.0,0.0
2296,37.0,0,59,15.0,0.0
2297,64.0,0,59,3.0,0.0
2298,38.0,120,119,15.0,0.0
2299,66.0,0,119,15.0,0.0
2300,66.0,0,119,14.0,0.0
2301,66.0,0,119,3.0,0.0
2302,64.0,120,119,15.0,0.0
2303,59.0,120,239,3.0,0.0
2304,64.0,0,119,14.0,0.0
2305,43.0,0,239,15.0,0.0
2306,62.0,0,239,14.0,0.0
2307,62.0,120,239,15.0,0.0
2308,57.0,0,119,3.0,0.0
2309,42.0,0,119,15.0,0.0
2310,55.0,0,119,3.0,0.0
2311,64.0,120,119,14.0,0.0
2312,40.0,0,119,15.0,0.0
2313,64.0,0,119,15.0,0.0
2314,54.0,0,239,3.0,0.0
2315,66.0,120,119,14.0,0.0
2316,38.0,0,239,15.0,0.0
2317,66.0,0,119,15.0,0.0
2318,66.0,120,119,15.0,0.0
2319,66.0,0,119,14.0,0.0
2320,37.0,0,119,15.0,0.0
2321,57.0,0,119,3.0,0.0
2322,64.0,120,119,14.0,0.0
2323,64.0,0,119,15.0,0.0
2324,35.0,120,119,15.0,0.0
2325,64.0,240,239,15.0,0.0
2326,64.0,0,239,14.0,0.0
2327,62.0,0,119,3.0,0.0
2328,33.0,0,119,15.0,0.0
2329,61.0,0,119,3.0,0.0
2330,66.0,120,239,14.0,0.0
2331,66.0,0,239,15.0,0.0
2332,45.0,0,239,15.0,0.0
2333,62.0,0,239,3.0,0.0
2334,38.0,0,239,15.0,0.0
2335,67.0,0,119,14.0,0.0
2336,67.0,60,119,15.0,0.0
2337,64.0,60,59,3.0,0.0
2338,69.0,0,119,15.0,0.0
2339,69.0,120,119,14.0,0.0
2340,66.0,0,59,3.0,0.0
2341,69.0,0,119,14.0,0.0
2342,69.0,60,119,15.0,0.0
2343,35.0,60,179,15.0,0.0
2344,62.0,0,179,3.0,0.0
2345,67.0,120,119,15.0,0.0
2346,67.0,0,119,14.0,0.0
2347,37.0,0,59,15.0,0.0
2348,64.0,0,59,3.0,0.0
2349,38.0,0,119,15.0,0.0
2350,66.0,120,119,15.0,0.0
2351,66.0,0,119,14.0,0.0
2352,66.0,0,119,3.0,0.0
2353,64.0,120,119,14.0,0.0
2354,64.0,0,119,15.0,0.0
2355,43.0,60,239,15.0,0.0
2356,59.0,0,239,3.0,0.0
2357,62.0,0,239,15.0,0.0
2358,62.0,0,239,14.0,0.0
2359,57.0,0,59,3.0,0.0
2360,42.0,60,59,15.0,0.0
2361,55.0,0,59,3.0,0.0
2362,40.0,60,59,15.0,0.0
2363,64.0,60,119,15.0,0.0
2364,38.0,60,59,15.0,0.0
2365,64.0,0,119,14.0,0.0
2366,54.0,0,59,3.0,0.0
2367,64.0,0,59,3.0,0.0
2368,37.0,0,59,15.0,0.0
2369,66.0,0,119,14.0,0.0
2370,62.0,0,59,3.0,0.0
2371,35.0,60,59,15.0,0.0
2372,66.0,120,119,15.0,0.0
2373,61.0,0,59,3.0,0.0
2374,33.0,0,59,15.0,0.0
2375,59.0,60,119,3.0,0.0
2376,31.0,0,119,15.0,0.0
2377,64.0,60,179,14.0,0.0
2378,64.0,0,179,15.0,0.0
2379,33.0,120,119,15.0,0.0
2380,61.0,0,119,3.0,0.0
2381,62.0,0,59,15.0,0.0
2382,62.0,0,59,14.0,0.0
2383,30.0,0,119,15.0,0.0
2384,62.0,120,119,3.0,0.0
2385,62.0,0,239,15.0,0.0
2386,62.0,0,239,14.0,0.0
2387,42.0,240,119,15.0,0.0
2388,64.0,120,239,14.0,0.0
2389,43.0,0,239,15.0,0.0
2390,64.0,0,239,15.0,0.0
2391,45.0,120,119,15.0,0.0
2392,66.0,0,119,14.0,0.0
2393,66.0,0,119,15.0,0.0
2394,62.0,0,119,14.0,0.0
2395,62.0,0,119,15.0,0.0
2396,47.0,120,119,15.0,0.0
2397,64.0,60,119,15.0,0.0
2398,57.0,0,359,3.0,0.0
2399,64.0,0,119,14.0,0.0
2400,37.0,120,239,15.0,0.0
2401,66.0,0,59,14.0,0.0
2402,66.0,60,59,15.0,0.0
2403,67.0,0,59,15.0,0.0
2404,67.0,0,59,14.0,0.0
2405,38.0,0,119,15.0,0.0
2406,66.0,0,119,15.0,0.0
2407,66.0,60,119,14.0,0.0
2408,40.0,0,59,15.0,0.0
2409,62.0,0,119,14.0,0.0
2410,62.0,0,119,15.0,0.0
2411,55.0,60,59,3.0,0.0
2412,42.0,0,59,15.0,0.0
2413,57.0,120,59,3.0,0.0
2414,43.0,120,239,15.0,0.0
2415,64.0,0,119,15.0,0.0
2416,64.0,60,119,14.0,0.0
2417,59.0,0,239,3.0,0.0
2418,66.0,60,59,14.0,0.0
2419,66.0,0,59,15.0,0.0
2420,67.0,0,59,14.0,0.0
2421,67.0,0,59,15.0,0.0
2422,45.0,0,119,15.0,0.0
2423,66.0,120,119,15.0,0.0
2424,61.0,0,239,3.0,0.0
2425,66.0,0,119,14.0,0.0
2426,64.0,120,119,15.0,0.0
2427,46.0,0,119,15.0,0.0
2428,64.0,0,119,14.0,0.0
2429,62.0,0,119,14.0,0.0
2430,62.0,0,119,15.0,0.0
2431,47.0,120,119,15.0,0.0
2432,62.0,0,119,3.0,0.0
2433,64.0,120,119,15.0,0.0
2434,64.0,120,239,3.0,0.0
2435,64.0,0,119,14.0,0.0
2436,49.0,0,239,15.0,0.0
2437,57.0,0,119,15.0,0.0
2438,57.0,0,119,14.0,0.0
2439,50.0,60,119,15.0,0.0
2440,66.0,0,239,15.0,0.0
2441,66.0,0,239,14.0,0.0
2442,62.0,60,179,3.0,0.0
2443,45.0,60,239,15.0,0.0
2444,57.0,120,59,3.0,0.0
2445,66.0,0,119,15.0,0.0
2446,66.0,0,119,14.0,0.0
2447,62.0,60,179,3.0,0.0
2448,67.0,120,119,15.0,0.0
2449,67.0,0,119,14.0,0.0
2450,36.0,60,239,15.0,0.0
2451,64.0,0,59,3.0,0.0
2452,69.0,0,119,14.0,0.0
2453,69.0,0,119,15.0,0.0
2454,66.0,60,179,3.0,0.0
2455,69.0,60,119,14.0,0.0
2456,69.0,0,119,15.0,0.0
2457,35.0,60,179,15.0,0.0
2458,62.0,0,59,3.0,0.0
2459,67.0,0,119,15.0,0.0
2460,64.0,120,119,3.0,0.0
2461,67.0,0,119,14.0,0.0
2462,37.0,0,59,15.0,0.0
2463,66.0,0,119,3.0,0.0
2464,66.0,0,119,14.0,0.0
2465,66.0,120,119,15.0,0.0
2466,38.0,0,119,15.0,0.0
2467,64.0,0,119,15.0,0.0
2468,43.0,0,239,15.0,0.0
2469,59.0,60,239,3.0,0.0
2470,64.0,120,119,14.0,0.0
2471,62.0,60,239,15.0,0.0
2472,62.0,0,239,14.0,0.0
2473,57.0,60,59,3.0,0.0
2474,42.0,0,59,15.0,0.0
2475,40.0,0,59,15.0,0.0
2476,55.0,0,59,3.0,0.0
2477,54.0,0,59,3.0,0.0
2478,38.0,60,59,15.0,0.0
2479,64.0,0,119,15.0,0.0
2480,64.0,0,119,14.0,0.0
2481,64.0,0,59,3.0,0.0
2482,37.0,60,59,15.0,0.0
2483,62.0,0,59,3.0,0.0
2484,35.0,60,59,15.0,0.0
2485,66.0,0,119,14.0,0.0
2486,66.0,0,119,15.0,0.0
2487,33.0,0,59,15.0,0.0
2488,61.0,120,59,3.0,0.0
2489,64.0,0,179,14.0,0.0
2490,31.0,0,119,15.0,0.0
2491,64.0,60,179,15.0,0.0
2492,59.0,60,119,3.0,0.0
2493,61.0,0,119,3.0,0.0
2494,33.0,0,119,15.0,0.0
2495,62.0,120,59,15.0,0.0
2496,62.0,0,59,14.0,0.0
2497,62.0,0,239,14.0,0.0
2498,30.0,120,119,15.0,0.0
2499,62.0,0,239,15.0,0.0
2500,62.0,0,119,3.0,0.0
2501,42.0,240,119,15.0,0.0
2502,64.0,120,239,14.0,0.0
2503,43.0,0,239,15.0,0.0
2504,64.0,0,239,15.0,0.0
2505,45.0,120,119,15.0,0.0
2506,66.0,0,119,15.0,0.0
2507,66.0,0,119,14.0,0.0
2508,62.0,0,119,14.0,0.0
2509,62.0,120,119,15.0,0.0
2510,47.0,0,119,15.0,0.0
2511,57.0,60,299,3.0,0.0
2512,37.0,0,239,15.0,0.0
2513,64.0,60,119,15.0,0.0
2514,64.0,0,119,14.0,0.0
2515,66.0,0,59,14.0,0.0
2516,66.0,60,59,15.0,0.0
2517,67.0,60,59,14.0,0.0
2518,67.0,0,59,15.0,0.0
2519,66.0,0,119,14.0,0.0
2520,38.0,0,119,15.0,0.0
2521,66.0,0,119,15.0,0.0
2522,54.0,60,59,3.0,0.0
2523,62.0,0,119,15.0,0.0
2524,62.0,120,119,14.0,0.0
2525,40.0,0,59,15.0,0.0
2526,55.0,60,59,3.0,0.0
2527,42.0,0,59,15.0,0.0
2528,57.0,0,59,3.0,0.0
2529,43.0,0,239,15.0,0.0
2530,64.0,60,119,15.0,0.0
2531,64.0,0,119,14.0,0.0
2532,59.0,0,239,3.0,0.0
2533,66.0,60,59,14.0,0.0
2534,66.0,0,59,15.0,0.0
2535,67.0,0,59,15.0,0.0
2536,67.0,120,59,14.0,0.0
2537,66.0,120,119,14.0,0.0
2538,45.0,0,119,15.0,0.0
2539,66.0,0,119,15.0,0.0
2540,61.0,0,239,3.0,0.0
2541,64.0,0,119,14.0,0.0
2542,64.0,120,119,15.0,0.0
2543,46.0,0,119,15.0,0.0
2544,62.0,120,119,3.0,0.0
2545,47.0,0,239,15.0,0.0
2546,62.0,0,119,15.0,0.0
2547,62.0,0,119,14.0,0.0
2548,64.0,0,119,14.0,0.0
2549,64.0,120,119,15.0,0.0
2550,64.0,0,239,3.0,0.0
2551,49.0,0,119,15.0,0.0
2552,57.0,120,119,14.0,0.0
2553,57.0,0,119,15.0,0.0
2554,50.0,60,119,15.0,0.0
2555,66.0,0,239,14.0,0.0
2556,66.0,0,239,15.0,0.0
2557,62.0,60,179,3.0,0.0
2558,45.0,0,239,15.0,0.0
2559,57.0,120,59,3.0,0.0
2560,66.0,0,119,15.0,0.0
2561,66.0,60,119,14.0,0.0
2562,62.0,60,179,3.0,0.0
2563,67.0,120,119,15.0,0.0
2564,36.0,0,239,15.0,0.0
2565,67.0,0,119,14.0,0.0
2566,64.0,0,59,3.0,0.0
2567,69.0,0,119,14.0,0.0
2568,66.0,60,179,3.0,0.0
2569,69.0,60,119,15.0,0.0
2570,69.0,0,119,14.0,0.0
2571,35.0,60,179,15.0,0.0
2572,69.0,60,119,15.0,0.0
2573,62.0,0,59,3.0,0.0
2574,67.0,0,119,15.0,0.0
2575,64.0,0,119,3.0,0.0
2576,67.0,0,119,14.0,0.0
2577,37.0,60,59,15.0,0.0
2578,66.0,0,119,15.0,0.0
2579,66.0,60,59,3.0,0.0
2580,66.0,60,119,14.0,0.0
2581,38.0,0,119,15.0,0.0
2582,57.0,0,59,3.0,0.0
2583,43.0,60,239,15.0,0.0
2584,64.0,0,119,15.0,0.0
2585,59.0,60,59,3.0,0.0
2586,64.0,60,119,14.0,0.0
2587,61.0,0,59,3.0,0.0
2588,62.0,60,59,3.0,0.0
2589,62.0,0,239,15.0,0.0
2590,62.0,0,239,14.0,0.0
2591,59.0,0,59,3.0,0.0
2592,42.0,60,59,15.0,0.0
2593,57.0,0,59,3.0,0.0
2594,40.0,60,59,15.0,0.0
2595,55.0,0,59,3.0,0.0
2596,64.0,60,119,14.0,0.0
2597,54.0,0,59,3.0,0.0
2598,64.0,0,119,15.0,0.0
2599,38.0,60,59,15.0,0.0
2600,37.0,0,59,15.0,0.0
2601,52.0,0,59,3.0,0.0
2602,50.0,0,59,3.0,0.0
2603,66.0,0,119,15.0,0.0
2604,66.0,120,119,14.0,0.0
2605,35.0,60,59,15.0,0.0
2606,33.0,0,59,15.0,0.0
2607,49.0,0,59,3.0,0.0
2608,47.0,60,119,3.0,0.0
2609,31.0,0,119,15.0,0.0
2610,64.0,60,179,15.0,0.0
2611,64.0,0,179,14.0,0.0
2612,59.0,0,59,3.0,0.0
2613,33.0,0,119,15.0,0.0
2614,61.0,0,59,3.0,0.0
2615,62.0,0,59,14.0,0.0
2616,62.0,30,59,15.0,0.0
2617,31.0,60,59,15.0,0.0
2618,62.0,0,239,15.0,0.0
2619,62.0,30,29,3.0,0.0
2620,62.0,120,239,14.0,0.0
2621,43.0,0,59,15.0,0.0
2622,57.0,60,59,3.0,0.0
2623,71.0,0,59,13.0,0.0
2624,59.0,60,59,3.0,0.0
2625,69.0,0,59,13.0,0.0
2626,42.0,0,59,15.0,0.0
2627,67.0,0,59,13.0,0.0
2628,40.0,0,59,15.0,0.0
2629,61.0,0,59,3.0,0.0
2630,66.0,0,119,13.0,0.0
2631,69.0,120,239,14.0,0.0
2632,62.0,120,119,3.0,0.0
2633,38.0,120,1079,15.0,0.0
2634,78.0,0,239,12.0,0.0
2635,69.0,0,239,15.0,0.0
2636,62.0,0,119,13.0,0.0
2637,79.0,120,119,12.0,0.0
2638,64.0,0,119,13.0,0.0
2639,62.0,120,239,15.0,0.0
2640,62.0,0,239,14.0,0.0
2641,66.0,0,119,13.0,0.0
2642,81.0,0,119,12.0,0.0
2643,81.0,60,119,12.0,0.0
2644,62.0,0,179,13.0,0.0
2645,59.0,60,179,14.0,0.0
2646,59.0,0,179,15.0,0.0
2647,79.0,0,119,12.0,0.0
2648,64.0,60,59,13.0,0.0
2649,61.0,0,59,15.0,0.0
2650,61.0,0,59,14.0,0.0
2651,62.0,60,119,14.0,0.0
2652,62.0,0,119,15.0,0.0
2653,66.0,60,59,13.0,0.0
2654,78.0,0,119,12.0,0.0
2655,62.0,0,59,13.0,0.0
2656,67.0,0,239,15.0,0.0
2657,67.0,0,239,14.0,0.0
2658,76.0,0,119,12.0,0.0
2659,59.0,60,59,13.0,0.0
2660,61.0,120,59,13.0,0.0
2661,74.0,0,239,12.0,0.0
2662,57.0,0,119,13.0,0.0
2663,62.0,0,239,3.0,0.0
2664,66.0,120,119,15.0,0.0
2665,69.0,0,239,13.0,0.0
2666,38.0,0,119,15.0,0.0
2667,66.0,0,119,14.0,0.0
2668,76.0,0,119,12.0,0.0
2669,64.0,0,119,3.0,0.0
2670,64.0,0,119,15.0,0.0
2671,37.0,0,119,15.0,0.0
2672,64.0,120,119,14.0,0.0
2673,62.0,0,239,15.0,0.0
2674,35.0,120,119,15.0,0.0
2675,78.0,0,119,12.0,0.0
2676,62.0,0,239,14.0,0.0
2677,69.0,60,239,13.0,0.0
2678,66.0,0,119,3.0,0.0
2679,66.0,0,179,3.0,0.0
2680,78.0,60,179,12.0,0.0
2681,33.0,0,299,15.0,0.0
2682,64.0,0,119,13.0,0.0
2683,61.0,60,119,15.0,0.0
2684,61.0,0,119,14.0,0.0
2685,76.0,0,59,12.0,0.0
2686,64.0,0,59,3.0,0.0
2687,61.0,60,59,13.0,0.0
2688,64.0,0,239,3.0,0.0
2689,59.0,0,119,14.0,0.0
2690,76.0,0,239,12.0,0.0
2691,59.0,0,119,15.0,0.0
2692,64.0,0,59,13.0,0.0
2693,43.0,60,59,15.0,0.0
2694,42.0,60,59,15.0,0.0
2695,57.0,120,119,15.0,0.0
2696,57.0,0,119,14.0,0.0
2697,66.0,0,59,13.0,0.0
2698,67.0,0,59,13.0,0.0
2699,40.0,0,59,15.0,0.0
2700,66.0,120,119,13.0,0.0
2701,78.0,0,239,12.0,0.0
2702,38.0,60,1019,15.0,0.0
2703,69.0,0,239,14.0,0.0
2704,69.0,0,239,15.0,0.0
2705,62.0,120,119,13.0,0.0
2706,62.0,0,239,15.0,0.0
2707,62.0,120,239,14.0,0.0
2708,64.0,0,119,13.0,0.0
2709,79.0,120,119,12.0,0.0
2710,66.0,0,119,13.0,0.0
2711,81.0,0,119,12.0,0.0
2712,81.0,60,119,12.0,0.0
2713,59.0,0,179,14.0,0.0
2714,59.0,0,179,15.0,0.0
2715,62.0,60,179,13.0,0.0
2716,79.0,0,119,12.0,0.0
2717,61.0,0,59,14.0,0.0
2718,64.0,60,59,13.0,0.0
2719,61.0,0,59,15.0,0.0
2720,62.0,60,119,14.0,0.0
2721,66.0,60,59,13.0,0.0
2722,78.0,0,119,12.0,0.0
2723,62.0,0,119,15.0,0.0
2724,69.0,0,59,13.0,0.0
2725,76.0,0,119,12.0,0.0
2726,71.0,60,59,13.0,0.0
2727,67.0,0,239,15.0,0.0
2728,67.0,0,239,14.0,0.0
2729,73.0,60,59,13.0,0.0
2730,74.0,0,59,13.0,0.0
2731,74.0,60,239,12.0,0.0
2732,62.0,0,239,3.0,0.0
2733,52.0,0,59,15.0,0.0
2734,73.0,60,59,13.0,0.0
2735,66.0,0,59,15.0,0.0
2736,71.0,0,59,13.0,0.0
2737,50.0,0,59,15.0,0.0
2738,66.0,60,59,14.0,0.0
2739,64.0,0,59,15.0,0.0
2740,69.0,0,59,13.0,0.0
2741,49.0,0,59,15.0,0.0
2742,64.0,0,59,14.0,0.0
2743,64.0,0,119,3.0,0.0
2744,67.0,0,59,13.0,0.0
2745,76.0,0,119,12.0,0.0
2746,47.0,0,59,15.0,0.0
2747,62.0,60,59,14.0,0.0
2748,62.0,0,59,15.0,0.0
2749,45.0,0,59,15.0,0.0
2750,61.0,0,59,15.0,0.0
2751,66.0,0,59,13.0,0.0
2752,61.0,60,59,14.0,0.0
2753,66.0,0,119,3.0,0.0
2754,64.0,0,59,13.0,0.0
2755,78.0,0,119,12.0,0.0
2756,59.0,0,59,14.0,0.0
2757,59.0,60,59,15.0,0.0
2758,43.0,0,59,15.0,0.0
2759,57.0,0,59,14.0,0.0
2760,62.0,60,119,13.0,0.0
2761,42.0,0,59,15.0,0.0
2762,57.0,60,59,15.0,0.0
2763,76.0,0,179,12.0,0.0
2764,55.0,0,119,14.0,0.0
2765,45.0,0,119,15.0,0.0
2766,64.0,60,179,3.0,0.0
2767,55.0,60,119,15.0,0.0
2768,61.0,0,59,13.0,0.0
2769,57.0,0,119,14.0,0.0
2770,33.0,0,119,15.0,0.0
2771,67.0,0,59,13.0,0.0
2772,57.0,0,119,15.0,0.0
2773,74.0,0,59,12.0,0.0
2774,62.0,30,59,3.0,0.0
2775,66.0,0,59,13.0,0.0
2776,38.0,0,119,15.0,0.0
2777,54.0,0,119,14.0,0.0
2778,74.0,0,239,12.0,0.0
2779,54.0,60,119,15.0,0.0
2780,62.0,120,239,3.0,0.0
2781,66.0,90,29,13.0,0.0
2782,66.0,0,59,13.0,0.0
2783,66.0,0,119,14.0,0.0
2784,45.0,0,1439,15.0,0.0
2785,66.0,0,119,15.0,0.0
2786,64.0,60,59,13.0,0.0
2787,62.0,0,59,13.0,0.0
2788,67.0,120,239,15.0,0.0
2789,61.0,120,119,13.0,0.0
2790,67.0,0,239,14.0,0.0
2791,76.0,0,239,12.0,0.0
2792,64.0,0,119,13.0,0.0
2793,69.0,0,119,14.0,0.0
2794,78.0,120,119,12.0,0.0
2795,62.0,0,119,13.0,0.0
2796,69.0,0,119,15.0,0.0
2797,74.0,0,119,12.0,0.0
2798,59.0,0,119,14.0,0.0
2799,74.0,0,119,13.0,0.0
2800,59.0,120,119,15.0,0.0
2801,76.0,60,119,12.0,0.0
2802,61.0,0,239,14.0,0.0
2803,67.0,0,119,13.0,0.0
2804,61.0,0,239,15.0,0.0
2805,66.0,0,59,13.0,0.0
2806,78.0,60,59,12.0,0.0
2807,64.0,120,59,13.0,0.0
2808,79.0,0,59,12.0,0.0
2809,78.0,0,119,12.0,0.0
2810,62.0,0,119,15.0,0.0
2811,62.0,0,119,14.0,0.0
2812,66.0,60,119,13.0,0.0
2813,74.0,0,119,12.0,0.0
2814,67.0,60,59,13.0,0.0
2815,64.0,0,59,15.0,0.0
2816,64.0,0,59,14.0,0.0
2817,69.0,0,59,13.0,0.0
2818,66.0,60,59,14.0,0.0
2819,66.0,0,59,15.0,0.0
2820,76.0,60,119,12.0,0.0
2821,67.0,0,239,14.0,0.0
2822,64.0,0,119,3.0,0.0
2823,71.0,60,59,13.0,0.0
2824,67.0,0,239,15.0,0.0
2825,73.0,0,59,13.0,0.0
2826,66.0,0,59,3.0,0.0
2827,74.0,0,59,13.0,0.0
2828,78.0,60,59,12.0,0.0
2829,79.0,0,59,12.0,0.0
2830,76.0,0,59,13.0,0.0
2831,67.0,60,59,3.0,0.0
2832,69.0,0,59,14.0,0.0
2833,66.0,0,119,3.0,0.0
2834,74.0,0,119,13.0,0.0
2835,69.0,60,59,15.0,0.0
2836,78.0,60,119,12.0,0.0
2837,57.0,0,59,15.0,0.0
2838,57.0,0,59,14.0,0.0
2839,42.0,0,119,15.0,0.0
2840,76.0,0,119,12.0,0.0
2841,58.0,0,119,14.0,0.0
2842,58.0,0,119,15.0,0.0
2843,64.0,60,119,3.0,0.0
2844,73.0,60,59,13.0,0.0
2845,61.0,0,59,13.0,0.0
2846,74.0,0,119,12.0,0.0
2847,59.0,0,119,15.0,0.0
2848,47.0,0,119,15.0,0.0
2849,71.0,60,59,13.0,0.0
2850,62.0,60,119,3.0,0.0
2851,59.0,0,119,14.0,0.0
2852,59.0,0,59,13.0,0.0
2853,58.0,60,59,13.0,0.0
2854,64.0,60,119,3.0,0.0
2855,43.0,0,239,15.0,0.0
2856,61.0,60,239,14.0,0.0
2857,76.0,0,119,12.0,0.0
2858,61.0,0,239,15.0,0.0
2859,70.0,0,59,13.0,0.0
2860,57.0,0,119,3.0,0.0
2861,69.0,60,59,13.0,0.0
2862,69.0,0,119,12.0,0.0
2863,64.0,0,59,13.0,0.0
2864,66.0,0,119,3.0,0.0
2865,62.0,0,119,14.0,0.0
2866,78.0,120,239,12.0,0.0
2867,62.0,0,119,15.0,0.0
2868,42.0,60,59,15.0,0.0
2869,69.0,0,59,13.0,0.0
2870,67.0,0,59,13.0,0.0
2871,40.0,120,59,15.0,0.0
2872,66.0,0,119,13.0,0.0
2873,69.0,120,239,15.0,0.0
2874,38.0,0,1079,15.0,0.0
2875,69.0,0,239,14.0,0.0
2876,74.0,0,119,13.0,0.0
2877,78.0,0,119,12.0,0.0
2878,60.0,0,239,14.0,0.0
2879,76.0,120,119,13.0,0.0
2880,60.0,0,239,15.0,0.0
2881,79.0,0,119,12.0,0.0
2882,81.0,120,119,12.0,0.0
2883,78.0,0,119,13.0,0.0
2884,81.0,0,119,12.0,0.0
2885,59.0,0,179,15.0,0.0
2886,74.0,60,119,13.0,0.0
2887,59.0,60,179,14.0,0.0
2888,76.0,0,119,13.0,0.0
2889,79.0,0,119,12.0,0.0
2890,61.0,120,59,15.0,0.0
2891,61.0,0,59,14.0,0.0
2892,62.0,60,119,14.0,0.0
2893,69.0,0,119,13.0,0.0
2894,78.0,0,119,12.0,0.0
2895,62.0,0,119,15.0,0.0
2896,67.0,60,239,15.0,0.0
2897,67.0,0,239,14.0,0.0
2898,71.0,60,59,13.0,0.0
2899,76.0,0,119,12.0,0.0
2900,73.0,60,59,13.0,0.0
2901,74.0,60,59,13.0,0.0
2902,62.0,0,239,3.0,0.0
2903,74.0,0,239,12.0,0.0
2904,69.0,0,59,13.0,0.0
2905,66.0,60,59,14.0,0.0
2906,71.0,0,59,13.0,0.0
2907,50.0,0,59,15.0,0.0
2908,66.0,0,59,15.0,0.0
2909,64.0,0,59,15.0,0.0
2910,49.0,60,59,15.0,0.0
2911,64.0,0,59,14.0,0.0
2912,69.0,0,59,13.0,0.0
2913,67.0,0,59,13.0,0.0
2914,62.0,60,59,15.0,0.0
2915,76.0,0,119,12.0,0.0
2916,62.0,0,59,14.0,0.0
2917,47.0,0,59,15.0,0.0
2918,64.0,0,119,3.0,0.0
2919,61.0,0,59,15.0,0.0
2920,45.0,0,59,15.0,0.0
2921,66.0,60,59,13.0,0.0
2922,61.0,0,59,14.0,0.0
2923,78.0,0,119,12.0,0.0
2924,66.0,60,119,3.0,0.0
2925,59.0,0,59,14.0,0.0
2926,43.0,0,59,15.0,0.0
2927,64.0,60,59,13.0,0.0
2928,59.0,0,59,15.0,0.0
2929,62.0,60,119,13.0,0.0
2930,57.0,0,59,15.0,0.0
2931,42.0,0,59,15.0,0.0
2932,57.0,0,59,14.0,0.0
2933,45.0,0,119,15.0,0.0
2934,55.0,0,119,14.0,0.0
2935,76.0,60,179,12.0,0.0
2936,55.0,0,119,15.0,0.0
2937,64.0,0,179,3.0,0.0
2938,61.0,60,59,13.0,0.0
2939,57.0,0,119,14.0,0.0
2940,57.0,30,119,15.0,0.0
2941,33.0,0,119,15.0,0.0
2942,67.0,0,59,13.0,0.0
2943,62.0,0,59,3.0,0.0
2944,66.0,0,59,13.0,0.0
2945,74.0,0,59,12.0,0.0
2946,38.0,60,119,15.0,0.0
2947,54.0,0,119,15.0,0.0
2948,74.0,0,239,12.0,0.0
2949,66.0,90,29,13.0,0.0
2950,54.0,0,119,14.0,0.0
2951,62.0,0,239,3.0,0.0
2952,66.0,0,59,13.0,0.0
2953,66.0,120,119,14.0,0.0
2954,45.0,60,1439,15.0,0.0
2955,66.0,0,119,15.0,0.0
2956,64.0,60,59,13.0,0.0
2957,62.0,0,59,13.0,0.0
2958,76.0,0,239,12.0,0.0
2959,61.0,120,119,13.0,0.0
2960,67.0,0,239,14.0,0.0
2961,67.0,0,239,15.0,0.0
2962,64.0,120,119,13.0,0.0
2963,62.0,0,119,13.0,0.0
2964,69.0,0,119,15.0,0.0
2965,69.0,0,119,14.0,0.0
2966,78.0,120,119,12.0,0.0
2967,74.0,0,119,12.0,0.0
2968,59.0,0,119,14.0,0.0
2969,74.0,0,119,13.0,0.0
2970,59.0,120,119,15.0,0.0
2971,67.0,60,119,13.0,0.0
2972,61.0,0,239,15.0,0.0
2973,76.0,0,119,12.0,0.0
2974,61.0,0,239,14.0,0.0
2975,78.0,0,59,12.0,0.0
2976,66.0,60,59,13.0,0.0
2977,79.0,120,59,12.0,0.0
2978,64.0,0,59,13.0,0.0
2979,66.0,60,119,13.0,0.0
2980,62.0,0,119,15.0,0.0
2981,62.0,0,119,14.0,0.0
2982,78.0,0,119,12.0,0.0
2983,64.0,60,59,15.0,0.0
2984,67.0,0,59,13.0,0.0
2985,74.0,0,119,12.0,0.0
2986,64.0,0,59,14.0,0.0
2987,69.0,60,59,13.0,0.0
2988,66.0,0,59,14.0,0.0
2989,66.0,0,59,15.0,0.0
2990,67.0,0,239,15.0,0.0
2991,64.0,0,119,3.0,0.0
2992,71.0,60,59,13.0,0.0
2993,67.0,60,239,14.0,0.0
2994,76.0,60,119,12.0,0.0
2995,73.0,0,59,13.0,0.0
2996,78.0,0,59,12.0,0.0
2997,66.0,60,59,3.0,0.0
2998,74.0,0,59,13.0,0.0
2999,76.0,0,59,13.0,0.0
3000,79.0,0,59,12.0,0.0
3001,67.0,0,59,3.0,0.0
3002,66.0,0,119,3.0,0.0
3003,78.0,0,119,12.0,0.0
3004,69.0,0,59,14.0,0.0
3005,69.0,60,59,15.0,0.0
3006,74.0,0,119,13.0,0.0
3007,57.0,0,59,15.0,0.0
3008,57.0,0,59,14.0,0.0
3009,73.0,60,59,13.0,0.0
3010,42.0,0,119,15.0,0.0
3011,76.0,60,119,12.0,0.0
3012,64.0,0,119,3.0,0.0
3013,58.0,0,119,15.0,0.0
3014,58.0,0,119,14.0,0.0
3015,61.0,0,59,13.0,0.0
3016,62.0,0,119,3.0,0.0
3017,71.0,60,59,13.0,0.0
3018,74.0,0,119,12.0,0.0
3019,59.0,0,119,15.0,0.0
3020,47.0,60,119,15.0,0.0
3021,59.0,0,119,14.0,0.0
3022,59.0,0,59,13.0,0.0
3023,43.0,0,239,15.0,0.0
3024,61.0,60,239,14.0,0.0
3025,58.0,60,59,13.0,0.0
3026,61.0,0,239,15.0,0.0
3027,64.0,0,119,3.0,0.0
3028,76.0,60,119,12.0,0.0
3029,70.0,0,59,13.0,0.0
3030,57.0,0,119,3.0,0.0
3031,69.0,0,119,12.0,0.0
3032,69.0,60,59,13.0,0.0
3033,64.0,0,59,13.0,0.0
3034,78.0,120,239,12.0,0.0
3035,62.0,0,119,15.0,0.0
3036,62.0,0,119,14.0,0.0
3037,66.0,0,119,3.0,0.0
3038,42.0,0,59,15.0,0.0
3039,69.0,60,59,13.0,0.0
3040,40.0,120,59,15.0,0.0
3041,67.0,0,59,13.0,0.0
3042,66.0,0,119,13.0,0.0
3043,69.0,0,239,15.0,0.0
3044,69.0,120,239,14.0,0.0
3045,38.0,60,1079,15.0,0.0
3046,78.0,0,119,12.0,0.0
3047,74.0,0,119,13.0,0.0
3048,79.0,120,119,12.0,0.0
3049,60.0,0,239,15.0,0.0
3050,60.0,0,239,14.0,0.0
3051,76.0,0,119,13.0,0.0
3052,78.0,0,119,13.0,0.0
3053,81.0,120,119,12.0,0.0
3054,59.0,60,179,14.0,0.0
3055,81.0,0,119,12.0,0.0
3056,59.0,0,179,15.0,0.0
3057,74.0,60,119,13.0,0.0
3058,76.0,120,119,13.0,0.0
3059,79.0,0,119,12.0,0.0
3060,61.0,0,59,14.0,0.0
3061,61.0,0,59,15.0,0.0
3062,69.0,0,119,13.0,0.0
3063,62.0,0,119,14.0,0.0
3064,78.0,60,119,12.0,0.0
3065,62.0,0,119,15.0,0.0
3066,71.0,60,59,13.0,0.0
3067,67.0,0,239,15.0,0.0
3068,76.0,60,119,12.0,0.0
3069,67.0,0,239,14.0,0.0
3070,73.0,0,59,13.0,0.0
3071,62.0,0,239,3.0,0.0
3072,74.0,60,59,13.0,0.0
3073,74.0,0,239,12.0,0.0
3074,69.0,0,59,13.0,0.0
3075,50.0,0,59,15.0,0.0
3076,66.0,0,59,14.0,0.0
3077,71.0,60,59,13.0,0.0
3078,66.0,0,59,15.0,0.0
3079,69.0,0,59,13.0,0.0
3080,64.0,0,59,14.0,0.0
3081,64.0,60,59,15.0,0.0
3082,49.0,0,59,15.0,0.0
3083,67.0,0,59,13.0,0.0
3084,76.0,60,119,12.0,0.0
3085,62.0,0,59,14.0,0.0
3086,64.0,0,119,3.0,0.0
3087,47.0,60,59,15.0,0.0
3088,62.0,0,59,15.0,0.0
3089,61.0,0,59,14.0,0.0
3090,61.0,0,59,15.0,0.0
3091,66.0,0,59,13.0,0.0
3092,45.0,0,59,15.0,0.0
3093,66.0,0,119,3.0,0.0
3094,59.0,0,59,14.0,0.0
3095,78.0,0,119,12.0,0.0
3096,64.0,0,59,13.0,0.0
3097,43.0,60,59,15.0,0.0
3098,59.0,0,59,15.0,0.0
3099,62.0,60,119,13.0,0.0
3100,57.0,0,59,14.0,0.0
3101,42.0,0,59,15.0,0.0
3102,57.0,60,59,15.0,0.0
3103,64.0,60,179,3.0,0.0
3104,76.0,0,179,12.0,0.0
3105,55.0,0,119,14.0,0.0
3106,55.0,0,119,15.0,0.0
3107,45.0,0,119,15.0,0.0
3108,61.0,60,59,13.0,0.0
3109,57.0,0,119,14.0,0.0
3110,57.0,60,119,15.0,0.0
3111,67.0,0,59,13.0,0.0
3112,33.0,0,119,15.0,0.0
3113,66.0,0,59,13.0,0.0
3114,74.0,0,59,12.0,0.0
3115,62.0,0,59,3.0,0.0
3116,62.0,0,239,3.0,0.0
3117,54.0,0,59,14.0,0.0
3118,74.0,120,239,12.0,0.0
3119,38.0,0,59,15.0,0.0
3120,66.0,60,59,13.0,0.0
3121,54.0,0,59,15.0,0.0
3122,59.0,0,59,15.0,0.0
3123,59.0,60,59,14.0,0.0
3124,71.0,0,59,13.0,0.0
3125,43.0,0,59,15.0,0.0
3126,57.0,0,59,14.0,0.0
3127,69.0,60,59,13.0,0.0
3128,57.0,0,59,15.0,0.0
3129,42.0,0,59,15.0,0.0
3130,40.0,0,59,15.0,0.0
3131,55.0,0,59,15.0,0.0
3132,55.0,0,59,14.0,0.0
3133,67.0,0,59,13.0,0.0
3134,62.0,0,119,12.0,0.0
3135,78.0,0,119,12.0,0.0
3136,90.0,0,239,0.0,0.0
3137,86.0,0,239,0.0,0.0
3138,54.0,0,119,14.0,0.0
3139,62.0,0,119,14.0,0.0
3140,69.0,120,119,13.0,0.0
3141,78.0,0,119,13.0,0.0
3142,62.0,0,119,13.0,0.0
3143,74.0,0,239,1.0,0.0
3144,78.0,0,239,1.0,0.0
3145,69.0,0,119,12.0,0.0
3146,50.0,0,119,15.0,0.0
3147,50.0,0,119,7.0,0.0
3148,62.0,0,119,15.0,0.0
3149,78.0,0,239,5.0,0.0
3150,74.0,0,239,5.0,0.0
3151,66.0,0,239,4.0,0.0
3152,54.0,0,239,3.0,0.0
3153,50.0,0,119,3.0,0.0
3154,62.0,0,239,4.0,0.0
3155,78.0,0,239,2.0,0.0
3156,74.0,0,239,2.0,0.0
3157,38.0,0,59,15.0,0.0
3158,50.0,0,59,14.0,0.0
3159,62.0,0,59,12.0,0.0
3160,50.0,120,59,7.0,0.0
3161,62.0,0,59,13.0,0.0
3162,38.0,0,59,3.0,0.0
3163,50.0,0,59,15.0,0.0
3164,62.0,0,119,14.0,0.0
3165,50.0,0,119,3.0,0.0
3166,88.0,0,119,0.0,0.0
3167,91.0,0,119,0.0,0.0
3168,79.0,0,119,2.0,0.0
3169,76.0,0,119,2.0,0.0
3170,79.0,120,119,1.0,0.0
3171,50.0,0,119,15.0,0.0
3172,67.0,0,119,4.0,0.0
3173,79.0,0,119,5.0,0.0
3174,52.0,0,119,3.0,0.0
3175,55.0,0,119,3.0,0.0
3176,74.0,0,119,12.0,0.0
3177,64.0,0,119,4.0,0.0
3178,76.0,0,119,1.0,0.0
3179,50.0,0,119,7.0,0.0
3180,74.0,0,119,13.0,0.0
3181,76.0,0,119,5.0,0.0
3182,62.0,0,119,15.0,0.0
3183,57.0,0,119,3.0,0.0
3184,69.0,0,119,4.0,0.0
3185,66.0,0,119,4.0,0.0
3186,90.0,0,119,0.0,0.0
3187,54.0,0,119,3.0,0.0
3188,81.0,0,119,1.0,0.0
3189,78.0,0,119,1.0,0.0
3190,93.0,0,119,0.0,0.0
3191,78.0,120,119,2.0,0.0
3192,81.0,0,119,2.0,0.0
3193,78.0,0,119,5.0,0.0
3194,81.0,0,119,5.0,0.0
3195,38.0,0,59,3.0,0.0
3196,62.0,0,59,12.0,0.0
3197,62.0,0,59,13.0,0.0
3198,50.0,0,59,15.0,0.0
3199,50.0,0,59,14.0,0.0
3200,50.0,0,59,7.0,0.0
3201,38.0,0,59,15.0,0.0
3202,69.0,0,119,4.0,0.0
3203,45.0,0,119,15.0,0.0
3204,69.0,0,119,14.0,0.0
3205,54.0,0,119,3.0,0.0
3206,57.0,0,119,3.0,0.0
3207,45.0,0,119,3.0,0.0
3208,66.0,0,119,4.0,0.0
3209,81.0,0,119,13.0,0.0
3210,57.0,0,119,15.0,0.0
3211,93.0,0,119,0.0,0.0
3212,90.0,0,119,0.0,0.0
3213,45.0,0,119,7.0,0.0
3214,78.0,0,119,1.0,0.0
3215,81.0,0,119,1.0,0.0
3216,81.0,120,119,5.0,0.0
3217,78.0,0,119,5.0,0.0
3218,78.0,0,119,2.0,0.0
3219,69.0,0,119,12.0,0.0
3220,81.0,0,119,12.0,0.0
3221,69.0,0,119,13.0,0.0
3222,81.0,0,119,2.0,0.0
3223,64.0,60,119,4.0,0.0
3224,79.0,0,119,1.0,0.0
3225,67.0,0,119,4.0,0.0
3226,76.0,0,119,1.0,0.0
3227,52.0,0,119,3.0,0.0
3228,55.0,0,119,3.0,0.0
3229,76.0,0,119,5.0,0.0
3230,79.0,0,119,5.0,0.0
3231,76.0,0,119,2.0,0.0
3232,88.0,0,119,0.0,0.0
3233,91.0,0,119,0.0,0.0
3234,79.0,0,119,2.0,0.0
3235,45.0,0,59,7.0,0.0
3236,45.0,0,59,15.0,0.0
3237,57.0,0,59,14.0,0.0
3238,57.0,0,59,12.0,0.0
3239,33.0,0,59,3.0,0.0
3240,33.0,0,59,15.0,0.0
3241,57.0,0,59,13.0,0.0
3242,45.0,0,119,7.0,0.0
3243,69.0,0,119,12.0,0.0
3244,66.0,0,59,4.0,0.0
3245,62.0,60,59,4.0,0.0
3246,74.0,0,59,1.0,0.0
3247,78.0,0,59,5.0,0.0
3248,74.0,0,59,5.0,0.0
3249,57.0,0,119,15.0,0.0
3250,78.0,0,59,1.0,0.0
3251,90.0,0,59,0.0,0.0
3252,69.0,0,119,14.0,0.0
3253,69.0,60,119,13.0,0.0
3254,86.0,0,59,0.0,0.0
3255,45.0,0,119,15.0,0.0
3256,78.0,0,59,2.0,0.0
3257,74.0,0,59,2.0,0.0
3258,45.0,0,119,3.0,0.0
3259,54.0,0,59,3.0,0.0
3260,50.0,0,59,3.0,0.0
3261,76.0,0,59,5.0,0.0
3262,69.0,0,59,2.0,0.0
3263,69.0,0,59,1.0,0.0
3264,76.0,0,59,1.0,0.0
3265,45.0,0,59,3.0,0.0
3266,76.0,60,59,2.0,0.0
3267,81.0,0,59,0.0,0.0
3268,57.0,0,59,4.0,0.0
3269,64.0,0,59,4.0,0.0
3270,69.0,0,59,5.0,0.0
3271,88.0,0,59,0.0,0.0
3272,52.0,0,59,3.0,0.0
3273,45.0,0,59,15.0,0.0
3274,57.0,120,59,13.0,0.0
3275,57.0,0,59,12.0,0.0
3276,45.0,0,59,7.0,0.0
3277,57.0,0,59,14.0,0.0
3278,33.0,0,59,15.0,0.0
3279,33.0,0,59,3.0,0.0
3280,38.0,0,119,3.0,0.0
3281,66.0,0,119,1.0,0.0
3282,69.0,0,119,12.0,0.0
3283,86.0,0,119,0.0,0.0
3284,78.0,0,119,0.0,0.0
3285,74.0,0,119,2.0,0.0
3286,62.0,0,119,13.0,0.0
3287,50.0,0,119,3.0,0.0
3288,66.0,0,119,2.0,0.0
3289,62.0,0,119,4.0,0.0
3290,54.0,0,119,4.0,0.0
3291,50.0,0,119,7.0,0.0
3292,74.0,0,119,14.0,0.0
3293,66.0,0,119,14.0,0.0
3294,57.0,0,119,14.0,0.0
3295,78.0,120,119,13.0,0.0
3296,78.0,0,119,12.0,0.0
3297,69.0,0,119,13.0,0.0
3298,74.0,0,119,5.0,0.0
3299,66.0,0,119,5.0,0.0
3300,54.0,0,119,3.0,0.0
3301,62.0,0,119,12.0,0.0
3302,50.0,0,119,15.0,0.0
3303,38.0,0,119,15.0,0.0
3304,74.0,0,119,1.0,0.0
3305,66.0,0,119,5.0,0.0
3306,54.0,0,119,4.0,0.0
3307,62.0,120,119,4.0,0.0
3308,74.0,0,119,5.0,0.0
3309,50.0,0,119,3.0,0.0
3310,54.0,0,119,3.0,0.0
3311,78.0,0,119,0.0,0.0
3312,66.0,0,119,2.0,0.0
3313,86.0,0,119,0.0,0.0
3314,66.0,0,119,1.0,0.0
3315,74.0,0,119,1.0,0.0
3316,74.0,0,119,2.0,0.0
3317,69.0,0,119,1.0,0.0
3318,76.0,0,119,1.0,0.0
3319,57.0,0,119,4.0,0.0
3320,64.0,0,119,4.0,0.0
3321,76.0,0,119,2.0,0.0
3322,69.0,0,119,2.0,0.0
3323,81.0,120,119,0.0,0.0
3324,88.0,0,119,0.0,0.0
3325,49.0,0,119,3.0,0.0
3326,76.0,0,119,5.0,0.0
3327,69.0,0,119,5.0,0.0
3328,52.0,0,119,3.0,0.0
3329,57.0,0,119,14.0,0.0
3330,66.0,0,119,4.0,0.0
3331,38.0,0,119,3.0,0.0
3332,62.0,0,119,12.0,0.0
3333,78.0,0,119,12.0,0.0
3334,78.0,0,119,1.0,0.0
3335,74.0,0,119,1.0,0.0
3336,74.0,0,119,5.0,0.0
3337,78.0,0,119,5.0,0.0
3338,62.0,0,119,4.0,0.0
3339,69.0,0,119,12.0,0.0
3340,74.0,0,119,14.0,0.0
3341,54.0,0,119,3.0,0.0
3342,66.0,0,119,14.0,0.0
3343,38.0,0,119,15.0,0.0
3344,86.0,0,119,0.0,0.0
3345,90.0,0,119,0.0,0.0
3346,50.0,0,119,7.0,0.0
3347,50.0,0,119,15.0,0.0
3348,74.0,0,119,2.0,0.0
3349,78.0,0,119,2.0,0.0
3350,78.0,0,119,13.0,0.0
3351,69.0,120,119,13.0,0.0
3352,50.0,0,119,3.0,0.0
3353,62.0,0,119,13.0,0.0
3354,74.0,0,179,5.0,0.0
3355,78.0,60,179,5.0,0.0
3356,74.0,0,179,2.0,0.0
3357,78.0,0,179,2.0,0.0
3358,45.0,0,119,3.0,0.0
3359,45.0,0,119,7.0,0.0
3360,78.0,0,119,13.0,0.0
3361,78.0,0,179,1.0,0.0
3362,74.0,0,179,1.0,0.0
3363,66.0,0,179,4.0,0.0
3364,62.0,0,119,12.0,0.0
3365,69.0,0,119,12.0,0.0
3366,57.0,0,119,14.0,0.0
3367,74.0,60,119,14.0,0.0
3368,66.0,0,119,14.0,0.0
3369,54.0,0,179,3.0,0.0
3370,50.0,0,179,3.0,0.0
3371,86.0,0,179,0.0,0.0
3372,90.0,0,179,0.0,0.0
3373,78.0,0,119,12.0,0.0
3374,45.0,0,119,15.0,0.0
3375,62.0,0,179,4.0,0.0
3376,69.0,0,119,13.0,0.0
3377,62.0,0,119,13.0,0.0
3378,57.0,0,119,15.0,0.0
3379,76.0,120,59,2.0,0.0
3380,73.0,0,59,1.0,0.0
3381,73.0,0,59,2.0,0.0
3382,76.0,0,59,1.0,0.0
3383,45.0,0,59,3.0,0.0
3384,76.0,0,59,5.0,0.0
3385,69.0,0,59,5.0,0.0
3386,64.0,0,59,4.0,0.0
3387,57.0,0,59,4.0,0.0
3388,85.0,0,59,0.0,0.0
3389,88.0,0,59,0.0,0.0
3390,52.0,0,59,3.0,0.0
3391,69.0,0,119,13.0,0.0
3392,76.0,0,119,12.0,0.0
3393,76.0,120,119,13.0,0.0
3394,45.0,0,119,7.0,0.0
3395,45.0,0,239,3.0,0.0
3396,52.0,0,239,3.0,0.0
3397,69.0,120,239,5.0,0.0
3398,76.0,0,239,5.0,0.0
3399,64.0,0,119,14.0,0.0
3400,57.0,0,119,14.0,0.0
3401,57.0,0,239,4.0,0.0
3402,64.0,0,239,4.0,0.0
3403,73.0,0,119,14.0,0.0
3404,73.0,0,239,1.0,0.0
3405,69.0,0,119,12.0,0.0
3406,33.0,0,119,15.0,0.0
3407,76.0,0,239,2.0,0.0
3408,73.0,0,239,2.0,0.0
3409,33.0,0,119,3.0,0.0
3410,45.0,0,119,15.0,0.0
3411,73.0,0,119,12.0,0.0
3412,85.0,0,239,0.0,0.0
3413,88.0,0,239,0.0,0.0
3414,76.0,0,239,1.0,0.0
3415,73.0,0,119,13.0,0.0
3416,54.0,0,239,3.0,0.0
3417,86.0,0,119,12.0,0.0
3418,74.0,0,119,12.0,0.0
3419,62.0,0,119,12.0,0.0
3420,86.0,0,119,13.0,0.0
3421,74.0,0,119,13.0,0.0
3422,74.0,0,119,14.0,0.0
3423,74.0,0,239,1.0,0.0
3424,78.0,0,239,1.0,0.0
3425,50.0,0,119,3.0,0.0
3426,50.0,0,119,7.0,0.0
3427,62.0,0,119,13.0,0.0
3428,90.0,0,239,0.0,0.0
3429,62.0,120,119,14.0,0.0
3430,78.0,0,239,5.0,0.0
3431,66.0,0,239,4.0,0.0
3432,62.0,120,239,4.0,0.0
3433,86.0,0,239,0.0,0.0
3434,74.0,0,239,2.0,0.0
3435,62.0,0,119,15.0,0.0
3436,78.0,0,239,2.0,0.0
3437,74.0,0,239,5.0,0.0
3438,50.0,0,119,15.0,0.0
3439,38.0,0,59,15.0,0.0
3440,50.0,0,59,7.0,0.0
3441,50.0,0,59,15.0,0.0
3442,62.0,0,59,13.0,0.0
3443,62.0,0,59,12.0,0.0
3444,38.0,0,59,3.0,0.0
3445,50.0,0,59,14.0,0.0
3446,74.0,0,119,13.0,0.0
3447,79.0,0,119,5.0,0.0
3448,50.0,0,119,15.0,0.0
3449,76.0,0,119,1.0,0.0
3450,79.0,0,119,1.0,0.0
3451,64.0,0,119,4.0,0.0
3452,76.0,0,119,5.0,0.0
3453,50.0,0,119,7.0,0.0
3454,50.0,0,119,3.0,0.0
3455,62.0,0,119,15.0,0.0
3456,62.0,0,119,14.0,0.0
3457,88.0,0,119,0.0,0.0
3458,91.0,0,119,0.0,0.0
3459,79.0,0,119,2.0,0.0
3460,67.0,0,119,4.0,0.0
3461,55.0,0,119,3.0,0.0
3462,52.0,0,119,3.0,0.0
3463,74.0,0,119,12.0,0.0
3464,76.0,120,119,2.0,0.0
3465,93.0,0,119,0.0,0.0
3466,90.0,0,119,0.0,0.0
3467,69.0,0,119,4.0,0.0
3468,66.0,0,119,4.0,0.0
3469,78.0,0,119,1.0,0.0
3470,78.0,0,119,2.0,0.0
3471,81.0,0,119,1.0,0.0
3472,81.0,0,119,5.0,0.0
3473,57.0,0,119,3.0,0.0
3474,54.0,0,119,3.0,0.0
3475,78.0,0,119,5.0,0.0
3476,81.0,0,119,2.0,0.0
3477,50.0,0,59,15.0,0.0
3478,50.0,0,59,14.0,0.0
3479,38.0,0,59,15.0,0.0
3480,50.0,0,59,7.0,0.0
3481,62.0,0,59,13.0,0.0
3482,62.0,120,59,12.0,0.0
3483,38.0,0,59,3.0,0.0
3484,69.0,0,119,14.0,0.0
3485,57.0,0,119,3.0,0.0
3486,54.0,0,119,3.0,0.0
3487,78.0,0,119,5.0,0.0
3488,57.0,120,119,15.0,0.0
3489,69.0,0,119,12.0,0.0
3490,69.0,0,119,4.0,0.0
3491,66.0,0,119,4.0,0.0
3492,78.0,0,119,1.0,0.0
3493,45.0,0,119,7.0,0.0
3494,81.0,0,119,13.0,0.0
3495,81.0,0,119,12.0,0.0
3496,69.0,0,119,13.0,0.0
3497,81.0,0,119,1.0,0.0
3498,78.0,0,119,2.0,0.0
3499,45.0,0,119,15.0,0.0
3500,81.0,0,119,5.0,0.0
3501,93.0,0,119,0.0,0.0
3502,90.0,0,119,0.0,0.0
3503,45.0,0,119,3.0,0.0
3504,81.0,0,119,2.0,0.0
3505,76.0,0,119,5.0,0.0
3506,67.0,0,119,4.0,0.0
3507,64.0,0,119,4.0,0.0
3508,79.0,0,119,5.0,0.0
3509,79.0,0,119,2.0,0.0
3510,76.0,0,119,2.0,0.0
3511,88.0,0,119,0.0,0.0
3512,76.0,0,119,1.0,0.0
3513,79.0,0,119,1.0,0.0
3514,55.0,0,119,3.0,0.0
3515,91.0,60,119,0.0,0.0
3516,52.0,0,119,3.0,0.0
3517,45.0,0,59,7.0,0.0
3518,57.0,0,59,14.0,0.0
3519,33.0,0,59,15.0,0.0
3520,45.0,0,59,15.0,0.0
3521,33.0,0,59,3.0,0.0
3522,57.0,0,59,12.0,0.0
3523,57.0,0,59,13.0,0.0
3524,69.0,0,119,14.0,0.0
3525,45.0,0,119,7.0,0.0
3526,78.0,0,59,5.0,0.0
3527,74.0,0,59,5.0,0.0
3528,78.0,0,59,1.0,0.0
3529,74.0,0,59,1.0,0.0
3530,45.0,0,119,15.0,0.0
3531,45.0,0,119,3.0,0.0
3532,54.0,0,59,3.0,0.0
3533,90.0,0,59,0.0,0.0
3534,50.0,0,59,3.0,0.0
3535,69.0,60,119,12.0,0.0
3536,78.0,0,59,2.0,0.0
3537,74.0,0,59,2.0,0.0
3538,86.0,60,59,0.0,0.0
3539,66.0,0,59,4.0,0.0
3540,62.0,0,59,4.0,0.0
3541,57.0,0,119,15.0,0.0
3542,69.0,0,119,13.0,0.0
3543,76.0,0,59,1.0,0.0
3544,76.0,0,59,2.0,0.0
3545,57.0,0,59,4.0,0.0
3546,64.0,0,59,4.0,0.0
3547,69.0,0,59,5.0,0.0
3548,76.0,0,59,5.0,0.0
3549,69.0,60,59,2.0,0.0
3550,88.0,0,59,0.0,0.0
3551,81.0,0,59,0.0,0.0
3552,52.0,0,59,3.0,0.0
3553,45.0,0,59,3.0,0.0
3554,69.0,0,59,1.0,0.0
3555,57.0,0,59,13.0,0.0
3556,45.0,60,59,7.0,0.0
3557,33.0,0,59,3.0,0.0
3558,45.0,0,59,15.0,0.0
3559,57.0,0,59,12.0,0.0
3560,57.0,0,59,14.0,0.0
3561,33.0,0,59,15.0,0.0
3562,62.0,0,119,12.0,0.0
3563,74.0,0,59,5.0,0.0
3564,78.0,0,59,0.0,0.0
3565,86.0,0,59,0.0,0.0
3566,50.0,0,59,3.0,0.0
3567,54.0,60,59,3.0,0.0
3568,66.0,0,59,2.0,0.0
3569,74.0,0,59,2.0,0.0
3570,62.0,0,119,14.0,0.0
3571,69.0,0,119,12.0,0.0
3572,66.0,0,59,5.0,0.0
3573,74.0,0,59,1.0,0.0
3574,66.0,0,59,1.0,0.0
3575,78.0,0,119,12.0,0.0
3576,78.0,0,119,13.0,0.0
3577,62.0,0,119,13.0,0.0
3578,69.0,0,119,13.0,0.0
3579,62.0,0,59,4.0,0.0
3580,38.0,0,119,3.0,0.0
3581,50.0,60,119,15.0,0.0
3582,50.0,0,119,7.0,0.0
3583,38.0,0,119,15.0,0.0
3584,54.0,0,59,4.0,0.0
3585,74.0,0,59,2.0,0.0
3586,62.0,0,59,4.0,0.0
3587,66.0,0,59,1.0,0.0
3588,74.0,0,59,1.0,0.0
3589,86.0,0,59,0.0,0.0
3590,78.0,0,59,0.0,0.0
3591,66.0,0,59,5.0,0.0
3592,74.0,0,59,5.0,0.0
3593,66.0,0,59,2.0,0.0
3594,54.0,0,59,4.0,0.0
3595,50.0,0,59,3.0,0.0
3596,54.0,120,59,3.0,0.0
3597,76.0,0,59,1.0,0.0
3598,76.0,0,59,2.0,0.0
3599,69.0,0,59,2.0,0.0
3600,64.0,0,59,4.0,0.0
3601,57.0,0,59,4.0,0.0
3602,69.0,0,59,1.0,0.0
3603,76.0,120,59,5.0,0.0
3604,69.0,0,59,5.0,0.0
3605,81.0,0,59,0.0,0.0
3606,52.0,0,59,3.0,0.0
3607,49.0,0,59,3.0,0.0
3608,88.0,0,59,0.0,0.0
3609,66.0,0,59,4.0,0.0
3610,66.0,0,119,14.0,0.0
3611,50.0,0,119,15.0,0.0
3612,74.0,0,59,5.0,0.0
3613,78.0,0,59,5.0,0.0
3614,54.0,60,59,3.0,0.0
3615,78.0,0,59,1.0,0.0
3616,50.0,0,59,3.0,0.0
3617,38.0,0,119,3.0,0.0
3618,69.0,0,119,13.0,0.0
3619,78.0,0,119,13.0,0.0
3620,50.0,0,119,7.0,0.0
3621,74.0,0,59,1.0,0.0
3622,74.0,120,119,14.0,0.0
3623,62.0,0,119,13.0,0.0
3624,74.0,0,59,2.0,0.0
3625,57.0,0,119,14.0,0.0
3626,78.0,0,59,2.0,0.0
3627,69.0,0,119,12.0,0.0
3628,62.0,0,119,12.0,0.0
3629,78.0,0,119,12.0,0.0
3630,38.0,0,119,15.0,0.0
3631,62.0,0,59,4.0,0.0
3632,90.0,0,59,0.0,0.0
3633,86.0,0,59,0.0,0.0
3634,57.0,60,119,14.0,0.0
3635,73.0,0,119,14.0,0.0
3636,33.0,0,119,15.0,0.0
3637,64.0,0,119,14.0,0.0
3638,76.0,0,119,13.0,0.0
3639,64.0,60,179,4.0,0.0
3640,57.0,0,179,4.0,0.0
3641,33.0,0,119,3.0,0.0
3642,73.0,0,119,12.0,0.0
3643,76.0,0,119,12.0,0.0
3644,81.0,0,179,0.0,0.0
3645,69.0,0,119,13.0,0.0
3646,45.0,0,119,15.0,0.0
3647,88.0,0,179,0.0,0.0
3648,45.0,0,119,7.0,0.0
3649,69.0,0,179,5.0,0.0
3650,76.0,0,179,5.0,0.0
3651,73.0,0,119,13.0,0.0
3652,69.0,0,179,2.0,0.0
3653,76.0,0,179,2.0,0.0
3654,76.0,0,179,1.0,0.0
3655,69.0,0,179,1.0,0.0
3656,49.0,0,179,3.0,0.0
3657,52.0,0,179,3.0,0.0
3658,69.0,0,119,12.0,0.0
3659,66.0,0,59,5.0,0.0
3660,74.0,0,59,5.0,0.0
3661,74.0,0,59,2.0,0.0
3662,66.0,0,59,1.0,0.0
3663,78.0,0,59,0.0,0.0
3664,86.0,0,59,0.0,0.0
3665,50.0,0,59,3.0,0.0
3666,66.0,0,59,2.0,0.0
3667,54.0,0,59,3.0,0.0
3668,74.0,120,59,1.0,0.0
3669,62.0,0,59,4.0,0.0
3670,54.0,0,59,4.0,0.0
3671,54.0,0,239,4.0,0.0
3672,74.0,0,119,14.0,0.0
3673,78.0,0,239,0.0,0.0
3674,62.0,0,239,4.0,0.0
3675,86.0,0,239,0.0,0.0
3676,66.0,0,119,12.0,0.0
3677,38.0,0,119,15.0,0.0
3678,66.0,0,239,2.0,0.0
3679,74.0,0,119,12.0,0.0
3680,57.0,0,119,13.0,0.0
3681,66.0,0,119,13.0,0.0
3682,74.0,0,119,13.0,0.0
3683,74.0,0,239,2.0,0.0
3684,57.0,0,119,12.0,0.0
3685,50.0,0,239,3.0,0.0
3686,54.0,0,239,3.0,0.0
3687,74.0,0,239,1.0,0.0
3688,57.0,0,119,14.0,0.0
3689,66.0,120,119,14.0,0.0
3690,74.0,120,239,5.0,0.0
3691,50.0,0,119,15.0,0.0
3692,66.0,0,239,5.0,0.0
3693,50.0,0,119,7.0,0.0
3694,66.0,0,239,1.0,0.0
3695,38.0,0,119,3.0,0.0
3696,69.0,0,119,12.0,0.0
3697,33.0,0,119,3.0,0.0
3698,64.0,0,119,14.0,0.0
3699,69.0,0,119,13.0,0.0
3700,57.0,0,119,14.0,0.0
3701,45.0,0,119,15.0,0.0
3702,76.0,0,239,2.0,0.0
3703,73.0,0,239,2.0,0.0
3704,73.0,0,239,1.0,0.0
3705,76.0,0,239,1.0,0.0
3706,52.0,0,239,3.0,0.0
3707,49.0,0,239,3.0,0.0
3708,33.0,0,119,15.0,0.0
3709,69.0,0,239,5.0,0.0
3710,64.0,0,119,13.0,0.0
3711,64.0,0,239,4.0,0.0
3712,57.0,120,119,12.0,0.0
3713,57.0,0,239,4.0,0.0
3714,76.0,0,119,12.0,0.0
3715,76.0,0,119,13.0,0.0
3716,57.0,0,119,13.0,0.0
3717,73.0,0,119,14.0,0.0
3718,85.0,0,239,0.0,0.0
3719,88.0,0,239,0.0,0.0
3720,76.0,0,239,5.0,0.0
3721,45.0,0,119,7.0,0.0
3722,64.0,0,119,12.0,0.0
3723,33.0,0,59,15.0,0.0
3724,45.0,0,59,15.0,0.0
3725,57.0,0,59,13.0,0.0
3726,57.0,120,59,14.0,0.0
3727,45.0,0,59,7.0,0.0
3728,33.0,0,59,3.0,0.0
3729,57.0,0,59,12.0,0.0
3730,78.0,0,119,1.0,0.0
3731,90.0,0,119,0.0,0.0
3732,86.0,0,119,0.0,0.0
3733,45.0,0,119,7.0,0.0
3734,57.0,0,119,15.0,0.0
3735,69.0,0,119,14.0,0.0
3736,66.0,0,119,4.0,0.0
3737,62.0,0,119,4.0,0.0
3738,74.0,0,119,1.0,0.0
3739,45.0,0,119,15.0,0.0
3740,74.0,0,119,2.0,0.0
3741,78.0,0,119,2.0,0.0
3742,50.0,0,119,3.0,0.0
3743,74.0,0,119,5.0,0.0
3744,54.0,0,119,3.0,0.0
3745,69.0,0,119,13.0,0.0
3746,45.0,120,119,3.0,0.0
3747,78.0,0,119,5.0,0.0
3748,69.0,0,119,12.0,0.0
3749,66.0,0,119,5.0,0.0
3750,38.0,0,119,15.0,0.0
3751,62.0,0,119,4.0,0.0
3752,38.0,120,119,3.0,0.0
3753,74.0,0,119,1.0,0.0
3754,74.0,0,119,12.0,0.0
3755,54.0,0,119,4.0,0.0
3756,57.0,0,119,14.0,0.0
3757,50.0,0,119,3.0,0.0
3758,66.0,0,119,13.0,0.0
3759,74.0,0,119,13.0,0.0
3760,86.0,0,119,0.0,0.0
3761,50.0,0,119,7.0,0.0
3762,74.0,0,119,2.0,0.0
3763,50.0,0,119,15.0,0.0
3764,57.0,0,119,13.0,0.0
3765,66.0,0,119,12.0,0.0
3766,74.0,0,119,5.0,0.0
3767,74.0,0,119,14.0,0.0
3768,57.0,0,119,12.0,0.0
3769,66.0,0,119,14.0,0.0
3770,66.0,0,119,2.0,0.0
3771,52.0,0,119,3.0,0.0
3772,49.0,0,119,3.0,0.0
3773,76.0,0,119,13.0,0.0
3774,57.0,0,119,4.0,0.0
3775,69.0,0,119,13.0,0.0
3776,57.0,0,119,13.0,0.0
3777,64.0,0,119,4.0,0.0
3778,76.0,0,119,2.0,0.0
3779,69.0,0,119,5.0,0.0
3780,76.0,60,119,5.0,0.0
3781,33.0,0,119,15.0,0.0
3782,64.0,0,119,13.0,0.0
3783,45.0,0,119,7.0,0.0
3784,73.0,0,119,2.0,0.0
3785,33.0,0,119,3.0,0.0
3786,73.0,0,119,14.0,0.0
3787,88.0,0,119,0.0,0.0
3788,85.0,0,119,0.0,0.0
3789,64.0,0,119,14.0,0.0
3790,73.0,0,119,1.0,0.0
3791,76.0,0,119,1.0,0.0
3792,45.0,0,119,15.0,0.0
3793,57.0,0,119,14.0,0.0
3794,57.0,0,119,12.0,0.0
3795,76.0,0,119,12.0,0.0
3796,64.0,0,119,12.0,0.0
3797,69.0,0,119,12.0,0.0
3798,74.0,0,59,5.0,0.0
3799,90.0,0,59,0.0,0.0
3800,78.0,0,59,2.0,0.0
3801,62.0,0,59,4.0,0.0
3802,66.0,0,59,4.0,0.0
3803,78.0,0,59,5.0,0.0
3804,74.0,0,59,2.0,0.0
3805,86.0,0,59,0.0,0.0
3806,50.0,0,59,3.0,0.0
3807,54.0,0,59,3.0,0.0
3808,74.0,0,59,1.0,0.0
3809,78.0,60,59,1.0,0.0
3810,57.0,0,59,12.0,0.0
3811,76.0,0,59,2.0,0.0
3812,33.0,0,59,15.0,0.0
3813,79.0,0,59,2.0,0.0
3814,52.0,0,59,3.0,0.0
3815,45.0,0,59,15.0,0.0
3816,67.0,0,59,4.0,0.0
3817,55.0,0,59,3.0,0.0
3818,45.0,0,59,7.0,0.0
3819,79.0,0,59,1.0,0.0
3820,57.0,0,59,13.0,0.0
3821,76.0,0,59,1.0,0.0
3822,57.0,0,59,14.0,0.0
3823,64.0,0,59,4.0,0.0
3824,33.0,0,59,3.0,0.0
3825,88.0,0,59,0.0,0.0
3826,79.0,120,59,5.0,0.0
3827,76.0,0,59,5.0,0.0
3828,91.0,0,59,0.0,0.0
3829,74.0,0,119,1.0,0.0
3830,78.0,0,119,1.0,0.0
3831,54.0,0,119,3.0,0.0
3832,66.0,0,119,4.0,0.0
3833,62.0,0,119,4.0,0.0
3834,78.0,0,119,2.0,0.0
3835,74.0,0,119,2.0,0.0
3836,50.0,0,119,3.0,0.0
3837,57.0,0,119,15.0,0.0
3838,45.0,0,119,3.0,0.0
3839,45.0,0,119,7.0,0.0
3840,69.0,0,119,12.0,0.0
3841,78.0,60,119,5.0,0.0
3842,74.0,0,119,5.0,0.0
3843,45.0,0,119,15.0,0.0
3844,86.0,0,119,0.0,0.0
3845,90.0,0,119,0.0,0.0
3846,69.0,0,119,13.0,0.0
3847,69.0,0,119,14.0,0.0
3848,57.0,0,119,14.0,0.0
3849,50.0,0,119,7.0,0.0
3850,66.0,120,119,14.0,0.0
3851,74.0,0,59,1.0,0.0
3852,57.0,0,119,13.0,0.0
3853,66.0,0,59,5.0,0.0
3854,74.0,0,59,5.0,0.0
3855,50.0,0,119,15.0,0.0
3856,74.0,0,119,13.0,0.0
3857,66.0,0,119,12.0,0.0
3858,57.0,0,119,12.0,0.0
3859,74.0,0,119,12.0,0.0
3860,62.0,0,59,4.0,0.0
3861,54.0,0,59,4.0,0.0
3862,50.0,0,59,3.0,0.0
3863,38.0,0,119,3.0,0.0
3864,66.0,0,119,13.0,0.0
3865,74.0,0,119,14.0,0.0
3866,86.0,0,59,0.0,0.0
3867,74.0,0,59,2.0,0.0
3868,66.0,60,59,2.0,0.0
3869,38.0,0,119,15.0,0.0
3870,45.0,60,119,7.0,0.0
3871,64.0,0,119,14.0,0.0
3872,73.0,0,119,2.0,0.0
3873,76.0,0,119,2.0,0.0
3874,73.0,0,119,13.0,0.0
3875,33.0,0,119,15.0,0.0
3876,76.0,0,119,5.0,0.0
3877,57.0,0,119,14.0,0.0
3878,76.0,0,119,13.0,0.0
3879,57.0,0,119,4.0,0.0
3880,69.0,0,119,5.0,0.0
3881,73.0,0,119,12.0,0.0
3882,85.0,0,119,0.0,0.0
3883,88.0,0,119,0.0,0.0
3884,73.0,0,119,1.0,0.0
3885,76.0,0,119,12.0,0.0
3886,76.0,0,119,1.0,0.0
3887,52.0,0,119,3.0,0.0
3888,49.0,0,119,3.0,0.0
3889,73.0,0,119,14.0,0.0
3890,45.0,0,119,15.0,0.0
3891,64.0,0,119,4.0,0.0
3892,33.0,0,119,3.0,0.0
3893,74.0,60,59,2.0,0.0
3894,78.0,0,59,5.0,0.0
3895,78.0,0,59,2.0,0.0
3896,54.0,0,59,3.0,0.0
3897,78.0,0,59,1.0,0.0
3898,74.0,0,59,1.0,0.0
3899,62.0,0,59,4.0,0.0
3900,86.0,0,59,0.0,0.0
3901,66.0,0,59,4.0,0.0
3902,74.0,0,59,5.0,0.0
3903,90.0,0,59,0.0,0.0
3904,50.0,0,59,3.0,0.0
3905,52.0,0,59,3.0,0.0
3906,79.0,0,59,5.0,0.0
3907,76.0,0,59,1.0,0.0
3908,45.0,0,59,15.0,0.0
3909,64.0,0,59,4.0,0.0
3910,57.0,0,59,14.0,0.0
3911,88.0,0,59,0.0,0.0
3912,76.0,0,59,5.0,0.0
3913,45.0,0,59,3.0,0.0
3914,76.0,0,59,2.0,0.0
3915,91.0,0,59,0.0,0.0
3916,67.0,0,59,4.0,0.0
3917,79.0,0,59,1.0,0.0
3918,57.0,0,59,12.0,0.0
3919,57.0,0,59,13.0,0.0
3920,55.0,0,59,3.0,0.0
3921,79.0,60,59,2.0,0.0
3922,57.0,0,59,15.0,0.0
3923,78.0,0,59,13.0,0.0
3924,46.0,0,59,3.0,0.0
3925,73.0,0,59,12.0,0.0
3926,85.0,0,119,0.0,0.0
3927,46.0,0,59,15.0,0.0
3928,66.0,0,119,3.0,0.0
3929,61.0,0,119,3.0,0.0
3930,78.0,60,59,12.0,0.0
3931,54.0,0,119,4.0,0.0
3932,78.0,60,119,1.0,0.0
3933,73.0,0,119,1.0,0.0
3934,90.0,0,119,0.0,0.0
3935,66.0,0,119,5.0,0.0
3936,78.0,0,119,5.0,0.0
3937,61.0,0,59,14.0,0.0
3938,66.0,0,119,4.0,0.0
3939,73.0,0,119,2.0,0.0
3940,66.0,0,59,14.0,0.0
3941,78.0,0,119,2.0,0.0
3942,73.0,0,59,13.0,0.0
3943,58.0,0,59,15.0,0.0
3944,42.0,0,59,3.0,0.0
3945,54.0,0,119,4.0,0.0
3946,66.0,0,119,5.0,0.0
3947,54.0,0,59,15.0,0.0
3948,66.0,60,119,4.0,0.0
3949,42.0,60,59,15.0,0.0
3950,73.0,0,119,2.0,0.0
3951,64.0,0,119,3.0,0.0
3952,61.0,0,119,3.0,0.0
3953,64.0,0,59,14.0,0.0
3954,61.0,0,59,14.0,0.0
3955,73.0,0,59,13.0,0.0
3956,85.0,0,119,0.0,0.0
3957,88.0,0,119,0.0,0.0
3958,76.0,0,119,2.0,0.0
3959,73.0,0,59,12.0,0.0
3960,76.0,0,59,12.0,0.0
3961,76.0,0,59,13.0,0.0
3962,76.0,0,119,1.0,0.0
3963,73.0,0,119,1.0,0.0
3964,74.0,0,59,5.0,0.0
3965,86.0,0,59,0.0,0.0
3966,83.0,120,59,0.0,0.0
3967,62.0,0,59,12.0,0.0
3968,74.0,0,59,12.0,0.0
3969,54.0,0,59,4.0,0.0
3970,66.0,0,59,4.0,0.0
3971,50.0,0,59,7.0,0.0
3972,47.0,0,59,3.0,0.0
3973,74.0,0,59,2.0,0.0
3974,71.0,0,59,2.0,0.0
3975,47.0,0,59,15.0,0.0
3976,62.0,0,59,3.0,0.0
3977,59.0,0,59,3.0,0.0
3978,62.0,0,59,13.0,0.0
3979,74.0,0,59,13.0,0.0
3980,74.0,0,59,1.0,0.0
3981,71.0,0,59,1.0,0.0
3982,59.0,0,59,14.0,0.0
3983,59.0,0,59,15.0,0.0
3984,62.0,0,59,14.0,0.0
3985,40.0,120,59,15.0,0.0
3986,52.0,0,59,14.0,0.0
3987,59.0,0,59,14.0,0.0
3988,64.0,0,59,12.0,0.0
3989,76.0,0,59,12.0,0.0
3990,40.0,0,59,3.0,0.0
3991,76.0,0,59,2.0,0.0
3992,68.0,0,59,2.0,0.0
3993,52.0,0,59,15.0,0.0
3994,88.0,0,59,0.0,0.0
3995,76.0,0,59,5.0,0.0
3996,50.0,0,59,7.0,0.0
3997,80.0,0,59,0.0,0.0
3998,56.0,0,59,3.0,0.0
3999,64.0,0,59,13.0,0.0
4000,76.0,0,59,13.0,0.0
4001,64.0,0,59,3.0,0.0
4002,68.0,0,59,1.0,0.0
4003,64.0,0,59,4.0,0.0
4004,76.0,0,59,1.0,0.0
4005,81.0,0,59,0.0,0.0
4006,57.0,0,59,4.0,0.0
4007,69.0,0,59,13.0,0.0
4008,69.0,0,59,1.0,0.0
4009,69.0,120,59,5.0,0.0
4010,45.0,0,59,7.0,0.0
4011,69.0,0,59,2.0,0.0
4012,45.0,0,59,3.0,0.0
4013,57.0,0,59,3.0,0.0
4014,45.0,0,59,15.0,0.0
4015,57.0,0,59,15.0,0.0
4016,57.0,0,59,14.0,0.0
4017,69.0,0,59,12.0,0.0
4018,62.0,0,239,3.0,0.0
4019,86.0,0,239,0.0,0.0
4020,66.0,0,239,4.0,0.0
4021,69.0,0,59,13.0,0.0
4022,78.0,0,239,5.0,0.0
4023,74.0,0,239,5.0,0.0
4024,62.0,0,59,13.0,0.0
4025,78.0,0,59,13.0,0.0
4026,45.0,0,59,7.0,0.0
4027,66.0,0,239,3.0,0.0
4028,90.0,0,239,0.0,0.0
4029,62.0,0,239,4.0,0.0
4030,50.0,0,59,14.0,0.0
4031,66.0,0,59,14.0,0.0
4032,57.0,0,59,14.0,0.0
4033,33.0,0,59,3.0,0.0
4034,78.0,0,59,12.0,0.0
4035,33.0,0,59,15.0,0.0
4036,45.0,0,59,15.0,0.0
4037,74.0,0,239,1.0,0.0
4038,78.0,0,239,1.0,0.0
4039,69.0,180,59,12.0,0.0
4040,62.0,0,59,12.0,0.0
4041,74.0,0,239,2.0,0.0
4042,78.0,0,239,2.0,0.0
4043,66.0,0,119,14.0,0.0
4044,50.0,0,119,14.0,0.0
4045,62.0,0,119,13.0,0.0
4046,78.0,0,119,13.0,0.0
4047,69.0,0,119,13.0,0.0
4048,62.0,0,119,15.0,0.0
4049,50.0,0,119,3.0,0.0
4050,57.0,0,119,14.0,0.0
4051,69.0,0,119,12.0,0.0
4052,50.0,60,119,15.0,0.0
4053,62.0,0,119,12.0,0.0
4054,78.0,0,119,12.0,0.0
4055,50.0,0,119,7.0,0.0
4056,62.0,0,59,4.0,0.0
4057,66.0,0,59,4.0,0.0
4058,86.0,0,59,0.0,0.0
4059,74.0,0,59,5.0,0.0
4060,78.0,0,59,5.0,0.0
4061,74.0,0,59,2.0,0.0
4062,90.0,0,59,0.0,0.0
4063,78.0,0,59,1.0,0.0
4064,74.0,0,59,1.0,0.0
4065,78.0,60,59,2.0,0.0
4066,54.0,0,59,3.0,0.0
4067,50.0,0,59,3.0,0.0
4068,50.0,0,59,15.0,0.0
4069,38.0,0,59,3.0,0.0
4070,62.0,60,59,13.0,0.0
4071,50.0,0,59,7.0,0.0
4072,38.0,0,59,15.0,0.0
4073,50.0,0,59,14.0,0.0
4074,62.0,0,59,12.0,0.0
4075,91.0,0,59,0.0,0.0
4076,88.0,0,59,0.0,0.0
4077,74.0,60,119,12.0,0.0
4078,64.0,0,59,4.0,0.0
4079,67.0,0,59,4.0,0.0
4080,62.0,0,119,15.0,0.0
4081,79.0,60,59,1.0,0.0
4082,76.0,0,59,5.0,0.0
4083,50.0,0,119,15.0,0.0
4084,79.0,0,59,2.0,0.0
4085,50.0,0,119,3.0,0.0
4086,74.0,0,119,13.0,0.0
4087,76.0,0,59,1.0,0.0
4088,62.0,0,119,14.0,0.0
4089,76.0,0,59,2.0,0.0
4090,52.0,0,59,3.0,0.0
4091,79.0,0,59,5.0,0.0
4092,50.0,0,119,7.0,0.0
4093,55.0,0,59,3.0,0.0
4094,78.0,0,59,1.0,0.0
4095,81.0,0,59,1.0,0.0
4096,81.0,0,59,2.0,0.0
4097,78.0,0,59,2.0,0.0
4098,78.0,0,59,5.0,0.0
4099,66.0,0,59,4.0,0.0
4100,57.0,0,59,3.0,0.0
4101,90.0,60,59,0.0,0.0
4102,93.0,0,59,0.0,0.0
4103,54.0,0,59,3.0,0.0
4104,69.0,0,59,4.0,0.0
4105,81.0,0,59,5.0,0.0
4106,50.0,0,59,7.0,0.0
4107,62.0,0,59,12.0,0.0
4108,38.0,120,59,3.0,0.0
4109,38.0,0,59,15.0,0.0
4110,50.0,0,59,14.0,0.0
4111,50.0,0,59,15.0,0.0
4112,62.0,0,59,13.0,0.0
4113,81.0,0,119,5.0,0.0
4114,45.0,0,119,3.0,0.0
4115,54.0,0,119,3.0,0.0
4116,93.0,0,119,0.0,0.0
4117,78.0,0,119,5.0,0.0
4118,57.0,0,119,14.0,0.0
4119,57.0,0,119,15.0,0.0
4120,66.0,0,119,4.0,0.0
4121,57.0,0,119,3.0,0.0
4122,45.0,0,119,7.0,0.0
4123,81.0,0,119,1.0,0.0
4124,69.0,0,119,4.0,0.0
4125,78.0,0,119,1.0,0.0
4126,45.0,0,119,15.0,0.0
4127,81.0,0,119,2.0,0.0
4128,81.0,0,119,13.0,0.0
4129,78.0,0,119,2.0,0.0
4130,90.0,0,119,0.0,0.0
4131,69.0,120,119,14.0,0.0
4132,81.0,0,119,12.0,0.0
4133,69.0,0,119,13.0,0.0
4134,69.0,0,119,12.0,0.0
4135,79.0,0,119,2.0,0.0
4136,76.0,0,119,2.0,0.0
4137,79.0,0,119,1.0,0.0
4138,76.0,60,119,1.0,0.0
4139,76.0,0,119,5.0,0.0
4140,79.0,0,119,5.0,0.0
4141,64.0,0,119,4.0,0.0
4142,52.0,0,119,3.0,0.0
4143,88.0,0,119,0.0,0.0
4144,91.0,0,119,0.0,0.0
4145,67.0,0,119,4.0,0.0
4146,55.0,0,119,3.0,0.0
4147,57.0,0,59,12.0,0.0
4148,45.0,0,59,15.0,0.0
4149,33.0,0,59,3.0,0.0
4150,57.0,0,59,13.0,0.0
4151,33.0,0,59,15.0,0.0
4152,57.0,0,59,14.0,0.0
4153,45.0,0,59,7.0,0.0
4154,54.0,0,59,3.0,0.0
4155,66.0,0,59,4.0,0.0
4156,45.0,0,119,3.0,0.0
4157,69.0,0,119,12.0,0.0
4158,62.0,0,59,4.0,0.0
4159,45.0,60,119,15.0,0.0
4160,69.0,0,119,13.0,0.0
4161,69.0,0,119,14.0,0.0
4162,45.0,0,119,7.0,0.0
4163,78.0,0,59,1.0,0.0
4164,78.0,0,59,5.0,0.0
4165,74.0,0,59,5.0,0.0
4166,74.0,0,59,1.0,0.0
4167,86.0,0,59,0.0,0.0
4168,78.0,0,59,2.0,0.0
4169,90.0,60,59,0.0,0.0
4170,57.0,0,119,15.0,0.0
4171,50.0,0,59,3.0,0.0
4172,74.0,0,59,2.0,0.0
4173,88.0,0,59,0.0,0.0
4174,76.0,0,59,1.0,0.0
4175,76.0,0,59,5.0,0.0
4176,69.0,0,59,5.0,0.0
4177,69.0,0,59,1.0,0.0
4178,76.0,0,59,2.0,0.0
4179,57.0,0,59,4.0,0.0
4180,64.0,0,59,4.0,0.0
4181,52.0,30,59,3.0,0.0
4182,69.0,0,59,2.0,0.0
4183,49.0,0,59,3.0,0.0
4184,81.0,0,59,0.0,0.0
4185,57.0,0,59,13.0,0.0
4186,45.0,0,59,7.0,0.0
4187,57.0,60,59,12.0,0.0
4188,33.0,0,59,15.0,0.0
4189,33.0,30,29,3.0,0.0
4190,57.0,0,59,14.0,0.0
4191,45.0,0,59,15.0,0.0
4192,74.0,0,59,1.0,0.0
4193,66.0,0,59,1.0,0.0
4194,50.0,0,119,14.0,0.0
4195,38.0,60,119,3.0,0.0
4196,38.0,0,119,15.0,0.0
4197,66.0,0,59,5.0,0.0
4198,74.0,0,59,5.0,0.0
4199,54.0,60,59,3.0,0.0
4200,62.0,0,119,14.0,0.0
4201,57.0,0,119,12.0,0.0
4202,66.0,0,119,12.0,0.0
4203,50.0,0,59,3.0,0.0
4204,66.0,0,59,2.0,0.0
4205,74.0,0,59,2.0,0.0
4206,50.0,0,119,15.0,0.0
4207,62.0,0,59,4.0,0.0
4208,54.0,0,59,4.0,0.0
4209,74.0,0,119,12.0,0.0
4210,78.0,0,59,0.0,0.0
4211,86.0,0,59,0.0,0.0
4212,66.0,0,119,13.0,0.0
4213,57.0,0,119,13.0,0.0
4214,74.0,0,119,13.0,0.0
4215,50.0,0,119,7.0,0.0
4216,66.0,0,59,1.0,0.0
4217,86.0,0,59,0.0,0.0
4218,50.0,0,59,3.0,0.0
4219,74.0,120,59,2.0,0.0
4220,54.0,0,59,4.0,0.0
4221,62.0,0,59,4.0,0.0
4222,66.0,0,59,2.0,0.0
4223,66.0,0,59,5.0,0.0
4224,74.0,0,59,5.0,0.0
4225,54.0,0,59,3.0,0.0
4226,74.0,0,59,1.0,0.0
4227,78.0,0,59,0.0,0.0
4228,69.0,0,59,2.0,0.0
4229,69.0,120,59,5.0,0.0
4230,76.0,0,59,5.0,0.0
4231,76.0,0,59,2.0,0.0
4232,88.0,0,59,0.0,0.0
4233,64.0,0,59,4.0,0.0
4234,81.0,0,59,0.0,0.0
4235,52.0,0,59,3.0,0.0
4236,49.0,0,59,3.0,0.0
4237,57.0,0,59,4.0,0.0
4238,69.0,0,59,1.0,0.0
4239,76.0,0,59,1.0,0.0
4240,50.0,0,119,15.0,0.0
4241,62.0,0,59,4.0,0.0
4242,78.0,0,119,12.0,0.0
4243,69.0,0,119,12.0,0.0
4244,78.0,0,59,2.0,0.0
4245,66.0,0,59,4.0,0.0
4246,74.0,0,59,2.0,0.0
4247,38.0,0,119,3.0,0.0
4248,90.0,0,59,0.0,0.0
4249,62.0,0,119,12.0,0.0
4250,86.0,0,59,0.0,0.0
4251,50.0,0,119,7.0,0.0
4252,78.0,0,119,13.0,0.0
4253,69.0,0,119,13.0,0.0
4254,38.0,0,119,15.0,0.0
4255,62.0,0,119,13.0,0.0
4256,50.0,0,59,3.0,0.0
4257,74.0,0,119,14.0,0.0
4258,57.0,120,119,14.0,0.0
4259,66.0,0,119,14.0,0.0
4260,74.0,0,59,1.0,0.0
4261,78.0,0,59,1.0,0.0
4262,54.0,0,59,3.0,0.0
4263,78.0,60,59,5.0,0.0
4264,74.0,0,59,5.0,0.0
4265,64.0,0,179,4.0,0.0
4266,57.0,0,179,4.0,0.0
4267,45.0,0,119,7.0,0.0
4268,64.0,0,119,12.0,0.0
4269,45.0,0,119,15.0,0.0
4270,57.0,0,119,12.0,0.0
4271,76.0,0,179,2.0,0.0
4272,69.0,0,179,2.0,0.0
4273,88.0,0,179,0.0,0.0
4274,69.0,0,119,12.0,0.0
4275,81.0,0,179,0.0,0.0
4276,64.0,0,119,13.0,0.0
4277,76.0,0,179,5.0,0.0
4278,33.0,0,119,15.0,0.0
4279,69.0,0,179,5.0,0.0
4280,57.0,0,119,13.0,0.0
4281,76.0,0,119,12.0,0.0
4282,73.0,0,119,14.0,0.0
4283,76.0,60,179,1.0,0.0
4284,69.0,0,119,13.0,0.0
4285,76.0,0,119,13.0,0.0
4286,49.0,0,179,3.0,0.0
4287,69.0,0,179,1.0,0.0
4288,33.0,60,119,3.0,0.0
4289,52.0,0,179,3.0,0.0
4290,57.0,0,119,14.0,0.0
4291,64.0,0,119,14.0,0.0
4292,50.0,0,59,3.0,0.0
4293,54.0,0,59,3.0,0.0
4294,54.0,0,59,4.0,0.0
4295,66.0,0,59,1.0,0.0
4296,74.0,0,59,5.0,0.0
4297,74.0,0,59,2.0,0.0
4298,66.0,0,59,2.0,0.0
4299,86.0,0,59,0.0,0.0
4300,78.0,30,59,0.0,0.0
4301,62.0,0,59,4.0,0.0
4302,74.0,0,59,1.0,0.0
4303,66.0,0,59,5.0,0.0
4304,50.0,0,29,3.0,0.0
4305,66.0,0,29,5.0,0.0
4306,74.0,0,29,5.0,0.0
4307,66.0,0,29,1.0,0.0
4308,74.0,90,29,1.0,0.0
4309,66.0,0,119,12.0,0.0
4310,57.0,0,119,12.0,0.0
4311,50.0,0,119,7.0,0.0
4312,66.0,0,119,14.0,0.0
4313,50.0,0,119,14.0,0.0
4314,74.0,0,119,14.0,0.0
4315,57.0,0,119,14.0,0.0
4316,74.0,0,119,12.0,0.0
4317,54.0,0,29,3.0,0.0
4318,38.0,0,119,15.0,0.0
4319,66.0,0,29,2.0,0.0
4320,66.0,0,119,13.0,0.0
4321,74.0,0,119,13.0,0.0
4322,57.0,0,119,13.0,0.0
4323,54.0,0,29,4.0,0.0
4324,50.0,60,119,15.0,0.0
4325,86.0,0,29,0.0,0.0
4326,78.0,0,29,0.0,0.0
4327,62.0,0,29,4.0,0.0
4328,74.0,0,29,2.0,0.0
4329,37.0,0,119,3.0,0.0
4330,78.0,0,59,2.0,0.0
4331,81.0,0,59,5.0,0.0
4332,54.0,0,59,3.0,0.0
4333,57.0,0,59,3.0,0.0
4334,78.0,0,59,5.0,0.0
4335,90.0,0,59,0.0,0.0
4336,69.0,0,59,4.0,0.0
4337,66.0,0,59,4.0,0.0
4338,81.0,0,59,2.0,0.0
4339,93.0,0,59,0.0,0.0
4340,81.0,0,59,1.0,0.0
4341,78.0,0,59,1.0,0.0
4342,76.0,0,59,5.0,0.0
4343,79.0,0,59,5.0,0.0
4344,52.0,0,59,3.0,0.0
4345,55.0,0,59,3.0,0.0
4346,79.0,0,59,2.0,0.0
4347,76.0,0,59,2.0,0.0
4348,88.0,0,59,0.0,0.0
4349,67.0,0,59,4.0,0.0
4350,76.0,0,59,1.0,0.0
4351,79.0,60,59,1.0,0.0
4352,64.0,0,59,4.0,0.0
4353,91.0,0,59,0.0,0.0
4354,62.0,0,59,4.0,0.0
4355,66.0,0,59,4.0,0.0
4356,74.0,120,59,2.0,0.0
4357,90.0,0,59,0.0,0.0
4358,50.0,0,59,3.0,0.0
4359,78.0,0,59,1.0,0.0
4360,74.0,0,59,1.0,0.0
4361,78.0,0,59,2.0,0.0
4362,74.0,0,59,5.0,0.0
4363,78.0,0,59,5.0,0.0
4364,86.0,0,59,0.0,0.0
4365,54.0,0,59,3.0,0.0
4366,33.0,0,119,3.0,0.0
4367,64.0,0,239,4.0,0.0
4368,57.0,0,239,4.0,0.0
4369,76.0,0,119,12.0,0.0
4370,57.0,0,119,12.0,0.0
4371,69.0,0,119,12.0,0.0
4372,64.0,0,119,12.0,0.0
4373,85.0,0,239,0.0,0.0
4374,64.0,0,119,14.0,0.0
4375,73.0,0,119,14.0,0.0
4376,45.0,120,119,7.0,0.0
4377,76.0,0,239,5.0,0.0
4378,69.0,120,239,5.0,0.0
4379,88.0,0,239,0.0,0.0
4380,57.0,0,119,14.0,0.0
4381,45.0,0,119,15.0,0.0
4382,33.0,0,119,15.0,0.0
4383,76.0,0,119,13.0,0.0
4384,76.0,0,239,2.0,0.0
4385,49.0,0,239,3.0,0.0
4386,73.0,0,239,1.0,0.0
4387,76.0,0,239,1.0,0.0
4388,73.0,0,239,2.0,0.0
4389,64.0,0,119,13.0,0.0
4390,57.0,0,119,13.0,0.0
4391,52.0,0,239,3.0,0.0
4392,69.0,0,119,13.0,0.0
4393,33.0,0,59,3.0,0.0
4394,57.0,0,59,14.0,0.0
4395,45.0,0,59,7.0,0.0
4396,57.0,0,59,12.0,0.0
4397,33.0,0,59,15.0,0.0
4398,57.0,0,59,13.0,0.0
4399,45.0,0,59,15.0,0.0
4400,45.0,0,119,7.0,0.0
4401,66.0,120,119,4.0,0.0
4402,62.0,0,119,4.0,0.0
4403,74.0,0,119,5.0,0.0
4404,78.0,0,119,5.0,0.0
4405,78.0,0,119,2.0,0.0
4406,45.0,0,119,15.0,0.0
4407,69.0,0,119,13.0,0.0
4408,57.0,0,119,15.0,0.0
4409,45.0,0,119,3.0,0.0
4410,90.0,0,119,0.0,0.0
4411,86.0,0,119,0.0,0.0
4412,54.0,0,119,3.0,0.0
4413,78.0,0,119,1.0,0.0
4414,74.0,0,119,1.0,0.0
4415,69.0,0,119,12.0,0.0
4416,50.0,0,119,3.0,0.0
4417,69.0,0,119,14.0,0.0
4418,74.0,0,119,2.0,0.0
4419,38.0,0,119,15.0,0.0
4420,50.0,0,119,15.0,0.0
4421,74.0,0,119,1.0,0.0
4422,66.0,0,119,1.0,0.0
4423,57.0,0,119,13.0,0.0
4424,74.0,0,119,13.0,0.0
4425,78.0,120,119,0.0,0.0
4426,66.0,0,119,13.0,0.0
4427,86.0,0,119,0.0,0.0
4428,38.0,0,119,3.0,0.0
4429,66.0,0,119,14.0,0.0
4430,57.0,0,119,14.0,0.0
4431,74.0,0,119,14.0,0.0
4432,54.0,0,119,3.0,0.0
4433,50.0,0,119,3.0,0.0
4434,54.0,0,119,4.0,0.0
4435,62.0,0,119,4.0,0.0
4436,74.0,0,119,2.0,0.0
4437,66.0,0,119,2.0,0.0
4438,50.0,0,119,7.0,0.0
4439,66.0,0,119,12.0,0.0
4440,74.0,0,119,5.0,0.0
4441,74.0,0,119,12.0,0.0
4442,57.0,0,119,12.0,0.0
4443,66.0,0,119,5.0,0.0
4444,73.0,0,119,14.0,0.0
4445,64.0,0,119,14.0,0.0
4446,57.0,0,119,14.0,0.0
4447,76.0,0,119,13.0,0.0
4448,49.0,0,119,3.0,0.0
4449,33.0,0,119,3.0,0.0
4450,52.0,0,119,3.0,0.0
4451,33.0,0,119,15.0,0.0
4452,73.0,0,119,1.0,0.0
4453,45.0,0,119,15.0,0.0
4454,88.0,0,119,0.0,0.0
4455,85.0,60,119,0.0,0.0
4456,73.0,0,119,2.0,0.0
4457,64.0,0,119,4.0,0.0
4458,57.0,0,119,4.0,0.0
4459,76.0,0,119,2.0,0.0
4460,45.0,0,119,7.0,0.0
4461,69.0,0,119,12.0,0.0
4462,64.0,0,119,12.0,0.0
4463,76.0,0,119,12.0,0.0
4464,57.0,0,119,12.0,0.0
4465,64.0,0,119,13.0,0.0
4466,69.0,0,119,13.0,0.0
4467,57.0,0,119,13.0,0.0
4468,76.0,0,119,5.0,0.0
4469,69.0,0,119,5.0,0.0
4470,76.0,0,119,1.0,0.0
4471,86.0,0,59,0.0,0.0
4472,78.0,0,59,1.0,0.0
4473,74.0,0,59,1.0,0.0
4474,74.0,0,59,2.0,0.0
4475,50.0,0,59,3.0,0.0
4476,90.0,0,59,0.0,0.0
4477,78.0,0,59,2.0,0.0
4478,78.0,0,59,5.0,0.0
4479,74.0,60,59,5.0,0.0
4480,66.0,0,59,4.0,0.0
4481,54.0,0,59,3.0,0.0
4482,62.0,0,59,4.0,0.0
4483,91.0,0,59,0.0,0.0
4484,76.0,0,59,2.0,0.0
4485,79.0,0,59,2.0,0.0
4486,55.0,0,59,3.0,0.0
4487,33.0,0,59,3.0,0.0
4488,33.0,0,59,15.0,0.0
4489,52.0,120,59,3.0,0.0
4490,45.0,0,59,15.0,0.0
4491,45.0,0,59,7.0,0.0
4492,64.0,0,59,4.0,0.0
4493,76.0,0,59,1.0,0.0
4494,79.0,0,59,1.0,0.0
4495,67.0,0,59,4.0,0.0
4496,76.0,0,59,5.0,0.0
4497,57.0,0,59,13.0,0.0
4498,88.0,0,59,0.0,0.0
4499,57.0,0,59,12.0,0.0
4500,57.0,0,59,14.0,0.0
4501,79.0,0,59,5.0,0.0
4502,57.0,0,119,15.0,0.0
4503,45.0,0,119,15.0,0.0
4504,54.0,0,119,3.0,0.0
4505,78.0,60,119,5.0,0.0
4506,66.0,0,119,4.0,0.0
4507,69.0,0,119,12.0,0.0
4508,50.0,0,119,3.0,0.0
4509,45.0,0,119,3.0,0.0
4510,78.0,0,119,1.0,0.0
4511,74.0,0,119,1.0,0.0
4512,69.0,0,119,14.0,0.0
4513,78.0,0,119,2.0,0.0
4514,45.0,0,119,7.0,0.0
4515,62.0,0,119,4.0,0.0
4516,69.0,0,119,13.0,0.0
4517,90.0,0,119,0.0,0.0
4518,86.0,0,119,0.0,0.0
4519,74.0,0,119,2.0,0.0
4520,74.0,0,119,5.0,0.0
4521,57.0,0,119,12.0,0.0
4522,62.0,0,59,4.0,0.0
4523,74.0,0,59,2.0,0.0
4524,66.0,0,59,5.0,0.0
4525,66.0,0,119,12.0,0.0
4526,74.0,0,119,12.0,0.0
4527,74.0,0,59,1.0,0.0
4528,66.0,0,119,14.0,0.0
4529,74.0,0,119,14.0,0.0
4530,57.0,0,119,14.0,0.0
4531,86.0,60,59,0.0,0.0
4532,38.0,120,119,15.0,0.0
4533,74.0,0,59,5.0,0.0
4534,54.0,0,59,4.0,0.0
4535,50.0,0,119,15.0,0.0
4536,54.0,0,59,3.0,0.0
4537,50.0,0,119,7.0,0.0
4538,57.0,0,119,13.0,0.0
4539,66.0,0,119,13.0,0.0
4540,66.0,0,59,2.0,0.0
4541,50.0,0,59,3.0,0.0
4542,38.0,0,119,3.0,0.0
4543,74.0,0,119,13.0,0.0
4544,73.0,0,119,14.0,0.0
4545,76.0,0,119,13.0,0.0
4546,73.0,0,119,13.0,0.0
4547,69.0,0,119,5.0,0.0
4548,76.0,0,119,5.0,0.0
4549,76.0,0,119,1.0,0.0
4550,73.0,0,119,1.0,0.0
4551,33.0,0,119,3.0,0.0
4552,45.0,0,119,7.0,0.0
4553,45.0,0,119,15.0,0.0
4554,73.0,0,119,2.0,0.0
4555,33.0,0,119,15.0,0.0
4556,49.0,0,119,3.0,0.0
4557,64.0,0,119,14.0,0.0
4558,85.0,0,119,0.0,0.0
4559,52.0,0,119,3.0,0.0
4560,64.0,0,119,4.0,0.0
4561,76.0,0,119,12.0,0.0
4562,73.0,0,119,12.0,0.0
4563,57.0,0,119,14.0,0.0
4564,88.0,0,119,0.0,0.0
4565,76.0,0,119,2.0,0.0
4566,57.0,60,119,4.0,0.0
4567,78.0,60,59,5.0,0.0
4568,74.0,0,59,5.0,0.0
4569,62.0,0,59,4.0,0.0
4570,78.0,0,59,2.0,0.0
4571,86.0,0,59,0.0,0.0
4572,90.0,0,59,0.0,0.0
4573,74.0,0,59,2.0,0.0
4574,54.0,0,59,3.0,0.0
4575,50.0,0,59,3.0,0.0
4576,74.0,0,59,1.0,0.0
4577,78.0,0,59,1.0,0.0
4578,66.0,0,59,4.0,0.0
4579,45.0,0,59,3.0,0.0
4580,57.0,60,59,13.0,0.0
4581,55.0,0,59,3.0,0.0
4582,79.0,0,59,5.0,0.0
4583,76.0,0,59,2.0,0.0
4584,79.0,0,59,2.0,0.0
4585,64.0,0,59,4.0,0.0
4586,67.0,0,59,4.0,0.0
4587,57.0,0,59,12.0,0.0
4588,57.0,0,59,14.0,0.0
4589,76.0,0,59,5.0,0.0
4590,57.0,0,59,15.0,0.0
4591,52.0,0,59,3.0,0.0
4592,76.0,0,59,1.0,0.0
4593,45.0,0,59,15.0,0.0
4594,79.0,0,59,1.0,0.0
4595,91.0,0,59,0.0,0.0
4596,88.0,0,59,0.0,0.0
4597,46.0,0,59,3.0,0.0
4598,54.0,0,119,4.0,0.0
4599,78.0,0,119,1.0,0.0
4600,73.0,0,119,1.0,0.0
4601,58.0,0,59,15.0,0.0
4602,66.0,0,119,3.0,0.0
4603,46.0,0,59,15.0,0.0
4604,66.0,0,119,4.0,0.0
4605,61.0,60,119,3.0,0.0
4606,78.0,0,59,13.0,0.0
4607,73.0,0,119,2.0,0.0
4608,78.0,0,119,2.0,0.0
4609,85.0,0,119,0.0,0.0
4610,90.0,0,119,0.0,0.0
4611,66.0,0,59,14.0,0.0
4612,78.0,60,59,12.0,0.0
4613,73.0,0,59,12.0,0.0
4614,61.0,0,59,14.0,0.0
4615,73.0,0,59,13.0,0.0
4616,66.0,0,119,5.0,0.0
4617,78.0,0,119,5.0,0.0
4618,76.0,0,59,12.0,0.0
4619,42.0,0,59,3.0,0.0
4620,73.0,0,59,13.0,0.0
4621,76.0,0,59,13.0,0.0
4622,42.0,0,59,15.0,0.0
4623,66.0,60,119,4.0,0.0
4624,66.0,0,119,5.0,0.0
4625,54.0,0,59,15.0,0.0
4626,54.0,0,119,4.0,0.0
4627,73.0,0,59,12.0,0.0
4628,73.0,0,119,1.0,0.0
4629,88.0,0,119,0.0,0.0
4630,85.0,0,119,0.0,0.0
4631,64.0,0,119,3.0,0.0
4632,61.0,0,119,3.0,0.0
4633,76.0,0,119,2.0,0.0
4634,73.0,0,119,2.0,0.0
4635,61.0,60,59,14.0,0.0
4636,64.0,0,59,14.0,0.0
4637,76.0,0,119,1.0,0.0
4638,74.0,0,59,5.0,0.0
4639,66.0,0,59,4.0,0.0
4640,54.0,0,59,4.0,0.0
4641,86.0,0,59,0.0,0.0
4642,62.0,0,59,5.0,0.0
4643,83.0,0,59,0.0,0.0
4644,74.0,0,59,12.0,0.0
4645,62.0,0,59,12.0,0.0
4646,50.0,0,59,7.0,0.0
4647,74.0,0,59,1.0,0.0
4648,47.0,0,59,3.0,0.0
4649,62.0,0,59,13.0,0.0
4650,71.0,0,59,1.0,0.0
4651,59.0,120,59,14.0,0.0
4652,59.0,0,59,15.0,0.0
4653,71.0,0,59,2.0,0.0
4654,74.0,0,59,2.0,0.0
4655,59.0,0,59,3.0,0.0
4656,62.0,0,59,3.0,0.0
4657,62.0,0,59,14.0,0.0
4658,74.0,0,59,13.0,0.0
4659,47.0,0,59,15.0,0.0
4660,68.0,0,59,13.0,0.0
4661,71.0,0,59,13.0,0.0
4662,50.0,0,59,7.0,0.0
4663,64.0,0,59,12.0,0.0
4664,68.0,0,59,2.0,0.0
4665,76.0,0,59,12.0,0.0
4666,76.0,120,59,5.0,0.0
4667,40.0,0,59,3.0,0.0
4668,59.0,0,59,14.0,0.0
4669,76.0,0,59,2.0,0.0
4670,68.0,0,59,1.0,0.0
4671,80.0,0,59,0.0,0.0
4672,88.0,0,59,0.0,0.0
4673,52.0,0,59,14.0,0.0
4674,52.0,0,59,15.0,0.0
4675,56.0,0,59,3.0,0.0
4676,40.0,0,59,15.0,0.0
4677,64.0,0,59,3.0,0.0
4678,76.0,0,59,1.0,0.0
4679,64.0,0,59,4.0,0.0
4680,61.0,0,59,13.0,0.0
4681,69.0,0,59,13.0,0.0
4682,57.0,0,59,15.0,0.0
4683,69.0,0,59,12.0,0.0
4684,69.0,0,59,5.0,0.0
4685,69.0,0,59,2.0,0.0
4686,69.0,0,59,1.0,0.0
4687,57.0,0,59,3.0,0.0
4688,45.0,0,59,15.0,0.0
4689,45.0,0,59,3.0,0.0
4690,57.0,120,59,14.0,0.0
4691,57.0,0,59,4.0,0.0
4692,45.0,0,59,7.0,0.0
4693,81.0,0,59,0.0,0.0
4694,74.0,0,239,5.0,0.0
4695,78.0,0,239,5.0,0.0
4696,45.0,180,59,7.0,0.0
4697,86.0,0,239,0.0,0.0
4698,90.0,0,239,0.0,0.0
4699,69.0,0,59,12.0,0.0
4700,78.0,0,59,12.0,0.0
4701,62.0,0,59,12.0,0.0
4702,62.0,0,59,13.0,0.0
4703,57.0,0,59,14.0,0.0
4704,66.0,0,59,14.0,0.0
4705,74.0,0,239,1.0,0.0
4706,78.0,0,239,1.0,0.0
4707,74.0,0,239,2.0,0.0
4708,78.0,0,239,2.0,0.0
4709,62.0,0,239,3.0,0.0
4710,33.0,0,59,15.0,0.0
4711,66.0,0,239,4.0,0.0
4712,62.0,0,239,4.0,0.0
4713,66.0,0,239,3.0,0.0
4714,33.0,0,59,3.0,0.0
4715,69.0,0,59,13.0,0.0
4716,78.0,0,59,13.0,0.0
4717,45.0,0,59,15.0,0.0
4718,50.0,0,59,14.0,0.0
4719,50.0,60,119,7.0,0.0
4720,50.0,0,119,14.0,0.0
4721,62.0,0,119,15.0,0.0
4722,57.0,0,119,14.0,0.0
4723,50.0,0,119,3.0,0.0
4724,66.0,0,119,14.0,0.0
4725,69.0,0,119,13.0,0.0
4726,78.0,0,119,13.0,0.0
4727,78.0,0,119,12.0,0.0
4728,62.0,0,119,13.0,0.0
4729,50.0,0,119,15.0,0.0
4730,62.0,0,119,12.0,0.0
4731,69.0,0,119,12.0,0.0
4732,74.0,60,59,5.0,0.0
4733,78.0,0,59,5.0,0.0
4734,62.0,0,59,4.0,0.0
4735,78.0,0,59,1.0,0.0
4736,66.0,0,59,4.0,0.0
4737,74.0,0,59,1.0,0.0
4738,50.0,0,59,3.0,0.0
4739,54.0,0,59,3.0,0.0
4740,86.0,0,59,0.0,0.0
4741,90.0,0,59,0.0,0.0
4742,74.0,0,59,2.0,0.0
4743,78.0,0,59,2.0,0.0
4744,62.0,0,59,12.0,0.0
4745,50.0,0,59,7.0,0.0
4746,38.0,0,59,3.0,0.0
4747,38.0,0,59,15.0,0.0
4748,50.0,0,59,15.0,0.0
4749,50.0,60,59,14.0,0.0
4750,62.0,0,59,13.0,0.0
4751,50.0,60,119,3.0,0.0
4752,91.0,0,59,0.0,0.0
4753,74.0,0,119,12.0,0.0
4754,74.0,0,119,13.0,0.0
4755,76.0,0,59,2.0,0.0
4756,76.0,0,59,1.0,0.0
4757,64.0,0,59,4.0,0.0
4758,67.0,60,59,4.0,0.0
4759,62.0,0,119,15.0,0.0
4760,62.0,0,119,14.0,0.0
4761,50.0,0,119,15.0,0.0
4762,52.0,0,59,3.0,0.0
4763,55.0,0,59,3.0,0.0
4764,88.0,0,59,0.0,0.0
4765,79.0,0,59,2.0,0.0
4766,79.0,0,59,1.0,0.0
4767,76.0,0,59,5.0,0.0
4768,79.0,0,59,5.0,0.0
4769,50.0,0,119,7.0,0.0
4770,66.0,60,59,4.0,0.0
4771,78.0,0,59,1.0,0.0
4772,81.0,0,59,1.0,0.0
4773,69.0,0,59,4.0,0.0
4774,78.0,0,59,2.0,0.0
4775,81.0,0,59,5.0,0.0
4776,78.0,0,59,5.0,0.0
4777,93.0,0,59,0.0,0.0
4778,90.0,0,59,0.0,0.0
4779,54.0,0,59,3.0,0.0
4780,57.0,0,59,3.0,0.0
4781,81.0,0,59,2.0,0.0
4782,50.0,0,59,15.0,0.0
4783,38.0,0,59,15.0,0.0
4784,38.0,0,59,3.0,0.0
4785,62.0,0,59,13.0,0.0
4786,50.0,0,59,14.0,0.0
4787,62.0,120,59,12.0,0.0
4788,50.0,0,59,7.0,0.0
4789,81.0,0,119,1.0,0.0
4790,81.0,0,119,5.0,0.0
4791,78.0,0,119,5.0,0.0
4792,69.0,0,119,12.0,0.0
4793,81.0,0,119,12.0,0.0
4794,93.0,0,119,0.0,0.0
4795,90.0,0,119,0.0,0.0
4796,57.0,120,119,14.0,0.0
4797,66.0,0,119,4.0,0.0
4798,69.0,0,119,4.0,0.0
4799,45.0,0,119,15.0,0.0
4800,78.0,0,119,2.0,0.0
4801,81.0,0,119,2.0,0.0
4802,69.0,0,119,14.0,0.0
4803,57.0,0,119,15.0,0.0
4804,78.0,0,119,1.0,0.0
4805,54.0,0,119,3.0,0.0
4806,57.0,0,119,3.0,0.0
4807,45.0,0,119,3.0,0.0
4808,81.0,0,119,13.0,0.0
4809,69.0,0,119,13.0,0.0
4810,45.0,0,119,7.0,0.0
4811,55.0,0,119,3.0,0.0
4812,76.0,0,119,5.0,0.0
4813,76.0,0,119,1.0,0.0
4814,52.0,0,119,3.0,0.0
4815,67.0,0,119,4.0,0.0
4816,64.0,60,119,4.0,0.0
4817,79.0,0,119,5.0,0.0
4818,91.0,0,119,0.0,0.0
4819,79.0,0,119,1.0,0.0
4820,88.0,0,119,0.0,0.0
4821,79.0,0,119,2.0,0.0
4822,76.0,0,119,2.0,0.0
4823,57.0,0,59,13.0,0.0
4824,57.0,0,59,14.0,0.0
4825,33.0,0,59,3.0,0.0
4826,45.0,0,59,15.0,0.0
4827,57.0,0,59,12.0,0.0
4828,45.0,0,59,7.0,0.0
4829,33.0,0,59,15.0,0.0
4830,45.0,0,119,7.0,0.0
4831,69.0,0,119,14.0,0.0
4832,45.0,60,119,15.0,0.0
4833,90.0,0,59,0.0,0.0
4834,69.0,0,119,13.0,0.0
4835,45.0,0,119,3.0,0.0
4836,66.0,0,59,4.0,0.0
4837,62.0,60,59,4.0,0.0
4838,74.0,0,59,5.0,0.0
4839,78.0,0,59,5.0,0.0
4840,54.0,0,59,3.0,0.0
4841,50.0,0,59,3.0,0.0
4842,86.0,0,59,0.0,0.0
4843,78.0,0,59,2.0,0.0
4844,69.0,0,119,12.0,0.0
4845,74.0,0,59,2.0,0.0
4846,78.0,0,59,1.0,0.0
4847,74.0,0,59,1.0,0.0
4848,57.0,0,119,15.0,0.0
4849,52.0,0,59,3.0,0.0
4850,69.0,60,59,5.0,0.0
4851,76.0,0,59,2.0,0.0
4852,81.0,0,59,0.0,0.0
4853,69.0,0,59,1.0,0.0
4854,76.0,0,59,1.0,0.0
4855,57.0,0,59,4.0,0.0
4856,88.0,0,59,0.0,0.0
4857,64.0,0,59,4.0,0.0
4858,69.0,0,59,2.0,0.0
4859,49.0,0,59,3.0,0.0
4860,76.0,0,59,5.0,0.0
4861,57.0,0,59,12.0,0.0
4862,57.0,0,59,14.0,0.0
4863,57.0,0,59,13.0,0.0
4864,33.0,0,59,15.0,0.0
4865,33.0,0,59,3.0,0.0
4866,45.0,120,59,7.0,0.0
4867,45.0,0,59,15.0,0.0
4868,50.0,0,119,7.0,0.0
4869,74.0,0,119,12.0,0.0
4870,66.0,0,119,1.0,0.0
4871,74.0,0,119,1.0,0.0
4872,74.0,0,119,2.0,0.0
4873,66.0,0,119,13.0,0.0
4874,57.0,0,119,12.0,0.0
4875,66.0,0,119,2.0,0.0
4876,74.0,0,119,5.0,0.0
4877,57.0,0,119,13.0,0.0
4878,74.0,0,119,13.0,0.0
4879,38.0,60,119,3.0,0.0
4880,62.0,0,119,4.0,0.0
4881,50.0,0,119,14.0,0.0
4882,66.0,0,119,5.0,0.0
4883,62.0,0,119,14.0,0.0
4884,86.0,0,119,0.0,0.0
4885,78.0,0,119,0.0,0.0
4886,66.0,0,119,12.0,0.0
4887,38.0,0,119,15.0,0.0
4888,54.0,0,119,4.0,0.0
4889,50.0,0,119,3.0,0.0
4890,54.0,0,119,3.0,0.0
4891,50.0,0,119,15.0,0.0
4892,54.0,0,59,3.0,0.0
4893,66.0,0,59,5.0,0.0
4894,74.0,0,59,5.0,0.0
4895,86.0,0,59,0.0,0.0
4896,74.0,0,59,2.0,0.0
4897,50.0,0,59,3.0,0.0
4898,78.0,0,59,0.0,0.0
4899,62.0,0,59,4.0,0.0
4900,66.0,0,59,1.0,0.0
4901,54.0,0,59,4.0,0.0
4902,74.0,120,59,1.0,0.0
4903,66.0,0,59,2.0,0.0
4904,69.0,0,59,1.0,0.0
4905,76.0,0,59,5.0,0.0
4906,52.0,0,59,3.0,0.0
4907,49.0,0,59,3.0,0.0
4908,76.0,0,59,1.0,0.0
4909,69.0,120,59,5.0,0.0
4910,69.0,0,59,2.0,0.0
4911,57.0,0,59,4.0,0.0
4912,64.0,0,59,4.0,0.0
4913,88.0,0,59,0.0,0.0
4914,76.0,0,59,2.0,0.0
4915,81.0,0,59,0.0,0.0
4916,50.0,0,119,7.0,0.0
4917,86.0,0,59,0.0,0.0
4918,66.0,0,59,4.0,0.0
4919,90.0,60,59,0.0,0.0
4920,54.0,0,59,3.0,0.0
4921,74.0,0,119,14.0,0.0
4922,66.0,0,119,14.0,0.0
4923,57.0,0,119,14.0,0.0
4924,62.0,0,59,4.0,0.0
4925,78.0,0,119,12.0,0.0
4926,50.0,0,59,3.0,0.0
4927,69.0,0,119,12.0,0.0
4928,38.0,0,119,3.0,0.0
4929,78.0,0,59,2.0,0.0
4930,74.0,0,59,1.0,0.0
4931,78.0,0,59,1.0,0.0
4932,74.0,0,59,2.0,0.0
4933,69.0,0,119,13.0,0.0
4934,78.0,0,119,13.0,0.0
4935,62.0,0,119,13.0,0.0
4936,38.0,120,119,15.0,0.0
4937,78.0,0,59,5.0,0.0
4938,62.0,0,119,12.0,0.0
4939,74.0,0,59,5.0,0.0
4940,50.0,0,119,15.0,0.0
4941,64.0,0,179,4.0,0.0
4942,57.0,0,179,4.0,0.0
4943,64.0,60,119,14.0,0.0
4944,45.0,0,119,7.0,0.0
4945,33.0,0,119,15.0,0.0
4946,57.0,0,119,13.0,0.0
4947,76.0,0,119,13.0,0.0
4948,64.0,0,119,13.0,0.0
4949,52.0,0,179,3.0,0.0
4950,49.0,0,179,3.0,0.0
4951,57.0,0,119,14.0,0.0
4952,69.0,0,119,13.0,0.0
4953,73.0,0,119,14.0,0.0
4954,69.0,0,179,2.0,0.0
4955,45.0,0,119,15.0,0.0
4956,76.0,0,119,12.0,0.0
4957,76.0,60,179,2.0,0.0
4958,64.0,0,119,12.0,0.0
4959,69.0,0,119,12.0,0.0
4960,69.0,0,179,5.0,0.0
4961,57.0,0,119,12.0,0.0
4962,69.0,0,179,1.0,0.0
4963,76.0,0,179,1.0,0.0
4964,81.0,0,179,0.0,0.0
4965,88.0,0,179,0.0,0.0
4966,33.0,0,119,3.0,0.0
4967,76.0,0,179,5.0,0.0
4968,54.0,0,59,3.0,0.0
4969,74.0,0,59,2.0,0.0
4970,74.0,0,59,5.0,0.0
4971,78.0,0,59,0.0,0.0
4972,66.0,0,59,5.0,0.0
4973,62.0,26,59,4.0,0.0
4974,54.0,0,59,4.0,0.0
4975,74.0,0,59,1.0,0.0
4976,66.0,0,59,2.0,0.0
4977,50.0,0,59,3.0,0.0
4978,86.0,0,59,0.0,0.0
4979,66.0,0,59,1.0,0.0
4980,74.0,0,119,12.0,0.0
4981,62.0,0,119,4.0,0.0
4982,38.0,26,119,15.0,0.0
4983,66.0,0,119,12.0,0.0
4984,74.0,0,119,2.0,0.0
4985,38.0,0,119,3.0,0.0
4986,66.0,0,119,1.0,0.0
4987,74.0,0,119,1.0,0.0
4988,66.0,0,119,2.0,0.0
4989,86.0,0,119,0.0,0.0
4990,54.0,0,119,4.0,0.0
4991,50.0,0,119,7.0,0.0
4992,78.0,0,119,0.0,0.0
4993,54.0,0,25,14.0,0.0
4994,50.0,0,119,3.0,0.0
4995,50.0,0,119,15.0,0.0
4996,57.0,0,119,12.0,0.0
4997,62.0,30,25,13.0,0.0
4998,54.0,0,119,3.0,0.0
4999,74.0,0,119,5.0,0.0
5000,66.0,0,119,5.0,0.0
5001,57.0,30,25,14.0,0.0
5002,66.0,0,25,13.0,0.0
5003,55.0,30,25,14.0,0.0
5004,64.0,0,25,13.0,0.0
5005,62.0,4,25,13.0,0.0
5006,54.0,0,25,14.0,0.0
5007,78.0,0,119,1.0,0.0
5008,69.0,0,119,2.0,0.0
5009,78.0,0,119,2.0,0.0
5010,54.0,0,119,3.0,0.0
5011,57.0,0,119,3.0,0.0
5012,66.0,26,119,4.0,0.0
5013,93.0,0,119,0.0,0.0
5014,69.0,0,119,4.0,0.0
5015,61.0,30,25,13.0,0.0
5016,52.0,0,25,14.0,0.0
5017,90.0,0,119,0.0,0.0
5018,81.0,0,119,12.0,0.0
5019,50.0,0,119,7.0,0.0
5020,66.0,0,119,5.0,0.0
5021,69.0,0,119,5.0,0.0
5022,81.0,0,119,1.0,0.0
5023,54.0,0,25,14.0,0.0
5024,62.0,30,25,13.0,0.0
5025,38.0,0,59,3.0,0.0
5026,50.0,0,59,15.0,0.0
5027,55.0,0,25,14.0,0.0
5028,64.0,30,25,13.0,0.0
5029,38.0,0,59,15.0,0.0
5030,62.0,4,25,13.0,0.0
5031,54.0,0,25,14.0,0.0
5032,74.0,0,179,5.0,0.0
5033,62.0,0,179,5.0,0.0
5034,50.0,26,119,15.0,0.0
5035,76.0,0,179,1.0,0.0
5036,62.0,30,25,13.0,0.0
5037,79.0,26,179,12.0,0.0
5038,50.0,0,119,3.0,0.0
5039,79.0,0,179,1.0,0.0
5040,67.0,0,179,4.0,0.0
5041,50.0,0,119,7.0,0.0
5042,62.0,0,119,15.0,0.0
5043,54.0,0,25,14.0,0.0
5044,88.0,0,179,0.0,0.0
5045,91.0,0,179,0.0,0.0
5046,67.0,0,179,2.0,0.0
5047,64.0,0,179,4.0,0.0
5048,76.0,0,179,2.0,0.0
5049,52.0,0,179,3.0,0.0
5050,55.0,0,179,3.0,0.0
5051,49.0,30,25,14.0,0.0
5052,57.0,0,25,13.0,0.0
5053,50.0,30,25,14.0,0.0
5054,59.0,0,25,13.0,0.0
5055,61.0,4,25,13.0,0.0
5056,52.0,0,25,14.0,0.0
5057,62.0,30,25,13.0,0.0
5058,54.0,0,25,14.0,0.0
5059,61.0,0,25,13.0,0.0
5060,52.0,4,25,14.0,0.0
5061,66.0,0,59,2.0,0.0
5062,38.0,0,59,15.0,0.0
5063,50.0,0,59,15.0,0.0
5064,78.0,0,59,12.0,0.0
5065,50.0,0,59,3.0,0.0
5066,74.0,0,59,5.0,0.0
5067,86.0,0,59,0.0,0.0
5068,38.0,0,59,3.0,0.0
5069,78.0,0,59,1.0,0.0
5070,74.0,0,59,1.0,0.0
5071,90.0,0,59,0.0,0.0
5072,74.0,0,59,2.0,0.0
5073,50.0,26,59,7.0,0.0
5074,54.0,0,59,3.0,0.0
5075,62.0,0,25,13.0,0.0
5076,62.0,0,59,4.0,0.0
5077,66.0,0,59,4.0,0.0
5078,62.0,0,59,5.0,0.0
5079,54.0,30,25,14.0,0.0
5080,55.0,4,25,14.0,0.0
5081,64.0,0,25,13.0,0.0
5082,66.0,0,25,13.0,0.0
5083,78.0,0,119,12.0,0.0
5084,50.0,0,119,7.0,0.0
5085,57.0,30,25,14.0,0.0
5086,62.0,0,119,4.0,0.0
5087,54.0,0,119,3.0,0.0
5088,50.0,0,119,3.0,0.0
5089,62.0,0,119,5.0,0.0
5090,74.0,0,119,1.0,0.0
5091,74.0,0,119,2.0,0.0
5092,74.0,0,119,5.0,0.0
5093,66.0,0,119,2.0,0.0
5094,66.0,0,119,4.0,0.0
5095,78.0,0,119,1.0,0.0
5096,86.0,0,119,0.0,0.0
5097,90.0,0,119,0.0,0.0
5098,50.0,0,119,15.0,0.0
5099,62.0,0,119,15.0,0.0
5100,69.0,30,25,13.0,0.0
5101,66.0,0,25,14.0,0.0
5102,64.0,0,25,14.0,0.0
5103,67.0,30,25,13.0,0.0
5104,66.0,4,25,13.0,0.0
5105,62.0,0,25,14.0,0.0
5106,86.0,0,119,12.0,0.0
5107,74.0,0,119,5.0,0.0
5108,62.0,0,119,5.0,0.0
5109,59.0,0,119,3.0,0.0
5110,86.0,0,119,0.0,0.0
5111,50.0,26,119,4.0,0.0
5112,62.0,0,119,3.0,0.0
5113,74.0,0,119,2.0,0.0
5114,71.0,0,119,2.0,0.0
5115,64.0,0,25,13.0,0.0
5116,62.0,0,119,4.0,0.0
5117,50.0,0,119,7.0,0.0
5118,86.0,0,119,1.0,0.0
5119,83.0,0,119,1.0,0.0
5120,61.0,30,25,14.0,0.0
5121,66.0,30,25,13.0,0.0
5122,62.0,0,25,14.0,0.0
5123,64.0,0,25,14.0,0.0
5124,67.0,30,25,13.0,0.0
5125,38.0,0,59,15.0,0.0
5126,50.0,0,59,15.0,0.0
5127,38.0,0,59,3.0,0.0
5128,66.0,0,25,14.0,0.0
5129,69.0,4,25,13.0,0.0
5130,86.0,0,179,0.0,0.0
5131,90.0,0,179,0.0,0.0
5132,55.0,0,119,15.0,0.0
5133,43.0,0,119,3.0,0.0
5134,55.0,30,25,14.0,0.0
5135,72.0,0,179,2.0,0.0
5136,69.0,0,179,2.0,0.0
5137,84.0,0,179,12.0,0.0
5138,74.0,0,179,5.0,0.0
5139,62.0,26,179,5.0,0.0
5140,60.0,0,179,3.0,0.0
5141,50.0,0,119,7.0,0.0
5142,71.0,0,25,13.0,0.0
5143,84.0,0,179,1.0,0.0
5144,81.0,0,179,1.0,0.0
5145,66.0,0,179,4.0,0.0
5146,62.0,0,179,4.0,0.0
5147,43.0,26,119,15.0,0.0
5148,57.0,0,179,3.0,0.0
5149,72.0,0,25,13.0,0.0
5150,57.0,30,25,14.0,0.0
5151,74.0,30,25,13.0,0.0
5152,59.0,0,25,14.0,0.0
5153,76.0,4,25,13.0,0.0
5154,60.0,0,25,14.0,0.0
5155,62.0,0,25,14.0,0.0
5156,78.0,30,25,13.0,0.0
5157,64.0,4,25,14.0,0.0
5158,79.0,0,25,13.0,0.0
5159,67.0,0,59,4.0,0.0
5160,62.0,0,59,4.0,0.0
5161,31.0,0,59,3.0,0.0
5162,83.0,0,59,12.0,0.0
5163,74.0,0,59,5.0,0.0
5164,67.0,0,59,2.0,0.0
5165,50.0,0,59,7.0,0.0
5166,43.0,0,59,15.0,0.0
5167,81.0,0,25,13.0,0.0
5168,66.0,30,25,14.0,0.0
5169,62.0,0,59,5.0,0.0
5170,83.0,0,59,1.0,0.0
5171,55.0,26,59,3.0,0.0
5172,59.0,0,59,3.0,0.0
5173,79.0,0,59,1.0,0.0
5174,86.0,0,59,0.0,0.0
5175,91.0,0,59,0.0,0.0
5176,31.0,0,59,15.0,0.0
5177,71.0,0,59,2.0,0.0
5178,83.0,0,25,13.0,0.0
5179,67.0,4,25,14.0,0.0
5180,79.0,0,119,1.0,0.0
5181,83.0,0,119,1.0,0.0
5182,62.0,0,119,4.0,0.0
5183,67.0,0,119,2.0,0.0
5184,43.0,0,119,15.0,0.0
5185,55.0,0,119,15.0,0.0
5186,55.0,0,25,14.0,0.0
5187,74.0,0,119,5.0,0.0
5188,62.0,0,119,5.0,0.0
5189,71.0,30,25,13.0,0.0
5190,71.0,0,119,2.0,0.0
5191,67.0,0,119,4.0,0.0
5192,91.0,0,119,0.0,0.0
5193,83.0,0,119,12.0,0.0
5194,59.0,0,119,3.0,0.0
5195,55.0,0,119,3.0,0.0
5196,50.0,0,119,7.0,0.0
5197,43.0,26,119,3.0,0.0
5198,86.0,0,119,0.0,0.0
5199,72.0,0,25,13.0,0.0
5200,57.0,30,25,14.0,0.0
5201,74.0,0,25,13.0,0.0
5202,59.0,30,25,14.0,0.0
5203,76.0,0,25,13.0,0.0
5204,60.0,4,25,14.0,0.0
5205,59.0,0,119,3.0,0.0
5206,71.0,0,119,1.0,0.0
5207,79.0,0,119,1.0,0.0
5208,50.0,0,119,7.0,0.0
5209,78.0,0,25,13.0,0.0
5210,62.0,0,119,4.0,0.0
5211,50.0,0,119,4.0,0.0
5212,67.0,0,119,2.0,0.0
5213,83.0,0,119,0.0,0.0
5214,86.0,26,29,12.0,0.0
5215,67.0,0,119,3.0,0.0
5216,62.0,4,25,14.0,0.0
5217,91.0,0,119,0.0,0.0
5218,74.0,0,119,5.0,0.0
5219,62.0,0,119,5.0,0.0
5220,76.0,0,119,2.0,0.0
5221,83.0,26,29,12.0,0.0
5222,64.0,0,25,14.0,0.0
5223,79.0,4,25,13.0,0.0
5224,31.0,26,59,3.0,0.0
5225,81.0,30,25,13.0,0.0
5226,55.0,0,59,15.0,0.0
5227,66.0,0,25,14.0,0.0
5228,43.0,0,59,15.0,0.0
5229,83.0,4,25,13.0,0.0
5230,67.0,0,25,14.0,0.0
5231,55.0,0,119,15.0,0.0
5232,59.0,0,25,14.0,0.0
5233,62.0,0,179,5.0,0.0
5234,62.0,0,179,4.0,0.0
5235,50.0,0,179,4.0,0.0
5236,78.0,0,179,1.0,0.0
5237,67.0,26,119,15.0,0.0
5238,50.0,0,119,7.0,0.0
5239,71.0,26,239,1.0,0.0
5240,74.0,26,179,5.0,0.0
5241,90.0,0,179,0.0,0.0
5242,59.0,0,239,3.0,0.0
5243,66.0,0,179,2.0,0.0
5244,78.0,0,179,2.0,0.0
5245,43.0,0,119,3.0,0.0
5246,71.0,4,25,13.0,0.0
5247,83.0,0,239,0.0,0.0
5248,81.0,26,29,12.0,0.0
5249,66.0,0,179,3.0,0.0
5250,61.0,0,25,14.0,0.0
5251,79.0,26,29,12.0,0.0
5252,73.0,4,25,13.0,0.0
5253,74.0,30,25,13.0,0.0
5254,62.0,0,25,14.0,0.0
5255,64.0,4,25,14.0,0.0
5256,76.0,0,25,13.0,0.0
5257,83.0,26,29,12.0,0.0
5258,59.0,0,25,14.0,0.0
5259,71.0,4,25,13.0,0.0
5260,76.0,0,29,12.0,0.0
5261,61.0,0,25,14.0,0.0
5262,73.0,4,25,13.0,0.0
5263,55.0,0,59,15.0,0.0
5264,64.0,0,59,2.0,0.0
5265,76.0,0,59,2.0,0.0
5266,64.0,0,59,3.0,0.0
5267,43.0,0,59,15.0,0.0
5268,62.0,0,59,4.0,0.0
5269,76.0,0,59,5.0,0.0
5270,74.0,0,59,5.0,0.0
5271,64.0,0,59,4.0,0.0
5272,74.0,0,25,13.0,0.0
5273,31.0,0,59,3.0,0.0
5274,50.0,0,59,7.0,0.0
5275,62.0,30,25,14.0,0.0
5276,88.0,0,59,0.0,0.0
5277,76.0,0,59,1.0,0.0
5278,64.0,4,25,14.0,0.0
5279,76.0,0,25,13.0,0.0
5280,73.0,0,119,1.0,0.0
5281,52.0,0,25,14.0,0.0
5282,57.0,0,119,4.0,0.0
5283,64.0,0,119,4.0,0.0
5284,64.0,0,119,3.0,0.0
5285,61.0,0,119,3.0,0.0
5286,45.0,0,119,7.0,0.0
5287,45.0,0,119,3.0,0.0
5288,76.0,26,119,2.0,0.0
5289,76.0,0,119,5.0,0.0
5290,69.0,0,119,5.0,0.0
5291,64.0,0,119,2.0,0.0
5292,64.0,4,25,13.0,0.0
5293,85.0,0,119,0.0,0.0
5294,88.0,0,119,0.0,0.0
5295,76.0,0,119,1.0,0.0
5296,57.0,0,119,15.0,0.0
5297,79.0,26,29,12.0,0.0
5298,69.0,0,119,15.0,0.0
5299,54.0,0,25,14.0,0.0
5300,73.0,26,29,12.0,0.0
5301,66.0,4,25,13.0,0.0
5302,55.0,30,25,14.0,0.0
5303,67.0,0,25,13.0,0.0
5304,57.0,0,25,14.0,0.0
5305,69.0,4,25,13.0,0.0
5306,88.0,0,59,0.0,0.0
5307,55.0,0,59,3.0,0.0
5308,69.0,0,119,5.0,0.0
5309,76.0,0,59,1.0,0.0
5310,67.0,0,59,1.0,0.0
5311,76.0,26,29,12.0,0.0
5312,64.0,26,59,2.0,0.0
5313,76.0,0,59,2.0,0.0
5314,64.0,0,59,4.0,0.0
5315,71.0,4,25,13.0,0.0
5316,79.0,0,59,0.0,0.0
5317,45.0,0,119,7.0,0.0
5318,59.0,0,25,14.0,0.0
5319,57.0,0,119,4.0,0.0
5320,76.0,0,59,5.0,0.0
5321,64.0,0,59,3.0,0.0
5322,67.0,0,29,12.0,0.0
5323,61.0,0,25,14.0,0.0
5324,73.0,4,25,13.0,0.0
5325,66.0,0,59,3.0,0.0
5326,57.0,0,59,3.0,0.0
5327,57.0,0,59,15.0,0.0
5328,33.0,0,59,3.0,0.0
5329,45.0,0,59,15.0,0.0
5330,81.0,0,59,0.0,0.0
5331,66.0,0,59,4.0,0.0
5332,90.0,0,59,0.0,0.0
5333,78.0,0,59,5.0,0.0
5334,69.0,0,59,1.0,0.0
5335,78.0,0,59,1.0,0.0
5336,66.0,0,59,2.0,0.0
5337,78.0,26,59,2.0,0.0
5338,73.0,30,25,13.0,0.0
5339,61.0,0,25,14.0,0.0
5340,61.0,4,25,14.0,0.0
5341,73.0,0,25,13.0,0.0
5342,54.0,4,25,14.0,0.0
5343,50.0,0,119,15.0,0.0
5344,55.0,0,179,3.0,0.0
5345,69.0,0,179,5.0,0.0
5346,76.0,0,179,5.0,0.0
5347,57.0,0,179,4.0,0.0
5348,64.0,0,179,4.0,0.0
5349,50.0,0,119,7.0,0.0
5350,64.0,0,179,3.0,0.0
5351,67.0,26,29,12.0,0.0
5352,88.0,0,179,0.0,0.0
5353,50.0,0,119,3.0,0.0
5354,67.0,0,179,1.0,0.0
5355,76.0,0,179,1.0,0.0
5356,62.0,26,119,15.0,0.0
5357,79.0,0,179,0.0,0.0
5358,76.0,0,179,2.0,0.0
5359,64.0,26,179,2.0,0.0
5360,66.0,0,25,13.0,0.0
5361,55.0,4,25,14.0,0.0
5362,67.0,0,25,13.0,0.0
5363,66.0,26,29,12.0,0.0
5364,69.0,0,25,13.0,0.0
5365,57.0,30,25,14.0,0.0
5366,71.0,4,25,13.0,0.0
5367,59.0,0,25,14.0,0.0
5368,61.0,0,25,14.0,0.0
5369,73.0,4,25,13.0,0.0
5370,74.0,26,29,12.0,0.0
5371,62.0,0,25,14.0,0.0
5372,69.0,0,29,12.0,0.0
5373,74.0,4,25,13.0,0.0
5374,74.0,0,59,1.0,0.0
5375,50.0,26,59,7.0,0.0
5376,54.0,0,59,4.0,0.0
5377,54.0,0,59,3.0,0.0
5378,62.0,0,59,3.0,0.0
5379,78.0,0,59,0.0,0.0
5380,38.0,0,59,15.0,0.0
5381,62.0,0,59,4.0,0.0
5382,38.0,0,59,3.0,0.0
5383,66.0,0,59,1.0,0.0
5384,86.0,0,59,0.0,0.0
5385,64.0,30,25,14.0,0.0
5386,76.0,0,25,13.0,0.0
5387,74.0,0,59,5.0,0.0
5388,66.0,0,59,5.0,0.0
5389,74.0,0,59,2.0,0.0
5390,50.0,0,59,15.0,0.0
5391,62.0,0,59,2.0,0.0
5392,78.0,4,25,13.0,0.0
5393,66.0,0,25,14.0,0.0
5394,66.0,0,119,1.0,0.0
5395,74.0,0,119,5.0,0.0
5396,62.0,0,59,3.0,0.0
5397,54.0,0,59,3.0,0.0
5398,54.0,0,119,15.0,0.0
5399,74.0,0,59,1.0,0.0
5400,66.0,0,119,15.0,0.0
5401,69.0,4,25,13.0,0.0
5402,42.0,0,119,3.0,0.0
5403,57.0,0,25,14.0,0.0
5404,74.0,0,119,2.0,0.0
5405,62.0,0,119,2.0,0.0
5406,50.0,0,59,7.0,0.0
5407,86.0,26,59,0.0,0.0
5408,66.0,0,119,5.0,0.0
5409,62.0,0,59,4.0,0.0
5410,81.0,26,29,12.0,0.0
5411,54.0,0,59,4.0,0.0
5412,78.0,0,29,12.0,0.0
5413,59.0,4,25,14.0,0.0
5414,71.0,0,25,13.0,0.0
5415,73.0,30,25,13.0,0.0
5416,57.0,26,59,4.0,0.0
5417,81.0,0,59,0.0,0.0
5418,45.0,0,59,4.0,0.0
5419,57.0,0,119,3.0,0.0
5420,69.0,0,59,1.0,0.0
5421,61.0,0,25,14.0,0.0
5422,62.0,4,25,14.0,0.0
5423,74.0,0,25,13.0,0.0
5424,74.0,0,299,5.0,0.0
5425,62.0,0,299,5.0,0.0
5426,76.0,4,25,13.0,0.0
5427,81.0,0,59,2.0,0.0
5428,64.0,0,25,14.0,0.0
5429,93.0,0,59,0.0,0.0
5430,86.0,0,119,0.0,0.0
5431,69.0,0,59,4.0,0.0
5432,57.0,26,59,4.0,0.0
5433,50.0,0,59,7.0,0.0
5434,69.0,0,59,2.0,0.0
5435,69.0,0,59,3.0,0.0
5436,81.0,0,59,1.0,0.0
5437,74.0,0,119,1.0,0.0
5438,86.0,26,29,12.0,0.0
5439,66.0,0,25,14.0,0.0
5440,78.0,4,25,13.0,0.0
5441,81.0,0,29,12.0,0.0
5442,42.0,0,59,15.0,0.0
5443,66.0,0,59,4.0,0.0
5444,54.0,0,59,15.0,0.0
5445,67.0,30,25,14.0,0.0
5446,90.0,0,59,0.0,0.0
5447,66.0,0,59,3.0,0.0
5448,79.0,0,25,13.0,0.0
5449,54.0,26,59,4.0,0.0
5450,30.0,0,59,3.0,0.0
5451,78.0,0,59,2.0,0.0
5452,78.0,0,59,1.0,0.0
5453,62.0,0,59,3.0,0.0
5454,66.0,0,59,2.0,0.0
5455,69.0,4,25,14.0,0.0
5456,81.0,0,25,13.0,0.0
5457,55.0,0,119,15.0,0.0
5458,67.0,0,119,15.0,0.0
5459,43.0,0,119,3.0,0.0
5460,71.0,0,239,2.0,0.0
5461,59.0,4,25,14.0,0.0
5462,81.0,26,29,12.0,0.0
5463,59.0,0,239,3.0,0.0
5464,78.0,0,179,1.0,0.0
5465,74.0,0,239,1.0,0.0
5466,78.0,0,179,2.0,0.0
5467,71.0,0,25,13.0,0.0
5468,66.0,0,179,3.0,0.0
5469,50.0,26,119,7.0,0.0
5470,86.0,0,239,0.0,0.0
5471,90.0,26,179,0.0,0.0
5472,62.0,0,239,4.0,0.0
5473,66.0,0,179,4.0,0.0
5474,73.0,0,25,13.0,0.0
5475,79.0,26,29,12.0,0.0
5476,61.0,4,25,14.0,0.0
5477,62.0,0,25,14.0,0.0
5478,74.0,30,25,13.0,0.0
5479,64.0,4,25,14.0,0.0
5480,76.0,0,25,13.0,0.0
5481,83.0,26,29,12.0,0.0
5482,78.0,4,25,13.0,0.0
5483,66.0,0,25,14.0,0.0
5484,79.0,4,25,13.0,0.0
5485,67.0,0,25,14.0,0.0
5486,76.0,0,29,12.0,0.0
5487,88.0,0,59,0.0,0.0
5488,50.0,0,59,7.0,0.0
5489,76.0,0,59,2.0,0.0
5490,74.0,0,59,5.0,0.0
5491,76.0,26,59,5.0,0.0
5492,76.0,0,59,1.0,0.0
5493,31.0,0,59,3.0,0.0
5494,64.0,0,59,4.0,0.0
5495,55.0,0,59,15.0,0.0
5496,64.0,0,59,3.0,0.0
5497,69.0,0,25,14.0,0.0
5498,81.0,30,25,13.0,0.0
5499,43.0,0,59,15.0,0.0
5500,71.0,4,25,14.0,0.0
5501,83.0,0,25,13.0,0.0
5502,76.0,0,119,5.0,0.0
5503,52.0,4,25,14.0,0.0
5504,76.0,26,119,1.0,0.0
5505,73.0,0,479,1.0,0.0
5506,64.0,0,25,13.0,0.0
5507,69.0,0,119,15.0,0.0
5508,64.0,0,119,3.0,0.0
5509,69.0,0,119,5.0,0.0
5510,73.0,0,479,2.0,0.0
5511,61.0,0,479,3.0,0.0
5512,79.0,26,29,12.0,0.0
5513,57.0,0,119,15.0,0.0
5514,64.0,0,119,4.0,0.0
5515,45.0,26,59,7.0,0.0
5516,57.0,0,119,4.0,0.0
5517,85.0,0,479,0.0,0.0
5518,45.0,0,119,3.0,0.0
5519,88.0,0,119,0.0,0.0
5520,76.0,0,119,2.0,0.0
5521,66.0,0,25,13.0,0.0
5522,54.0,4,25,14.0,0.0
5523,73.0,0,29,12.0,0.0
5524,67.0,0,25,13.0,0.0
5525,55.0,30,25,14.0,0.0
5526,69.0,0,25,13.0,0.0
5527,57.0,4,25,14.0,0.0
5528,64.0,0,299,4.0,0.0
5529,76.0,26,29,12.0,0.0
5530,45.0,26,59,7.0,0.0
5531,76.0,0,119,2.0,0.0
5532,71.0,4,25,13.0,0.0
5533,76.0,0,119,1.0,0.0
5534,64.0,0,119,3.0,0.0
5535,76.0,0,299,5.0,0.0
5536,59.0,0,25,14.0,0.0
5537,88.0,0,119,0.0,0.0
5538,73.0,0,25,13.0,0.0
5539,67.0,0,29,12.0,0.0
5540,61.0,4,25,14.0,0.0
5541,45.0,26,59,3.0,0.0
5542,57.0,0,59,15.0,0.0
5543,74.0,30,25,13.0,0.0
5544,45.0,0,59,15.0,0.0
5545,62.0,0,25,14.0,0.0
5546,76.0,4,25,13.0,0.0
5547,64.0,0,25,14.0,0.0
5548,46.0,26,119,15.0,0.0
5549,76.0,26,29,12.0,0.0
5550,67.0,0,179,3.0,0.0
5551,61.0,0,25,13.0,0.0
5552,58.0,0,119,15.0,0.0
5553,79.0,0,179,1.0,0.0
5554,49.0,4,25,14.0,0.0
5555,46.0,0,119,3.0,0.0
5556,91.0,26,179,0.0,0.0
5557,79.0,0,179,2.0,0.0
5558,50.0,4,25,14.0,0.0
5559,62.0,0,25,13.0,0.0
5560,73.0,26,29,12.0,0.0
5561,64.0,0,25,13.0,0.0
5562,52.0,30,25,14.0,0.0
5563,66.0,4,25,13.0,0.0
5564,54.0,0,25,14.0,0.0
5565,61.0,4,25,13.0,0.0
5566,49.0,0,25,14.0,0.0
5567,76.0,26,29,12.0,0.0
5568,66.0,0,29,12.0,0.0
5569,50.0,0,25,14.0,0.0
5570,62.0,4,25,13.0,0.0
5571,78.0,0,59,5.0,0.0
5572,78.0,0,59,1.0,0.0
5573,34.0,0,59,15.0,0.0
5574,66.0,0,59,3.0,0.0
5575,52.0,0,25,14.0,0.0
5576,34.0,0,59,3.0,0.0
5577,78.0,26,59,2.0,0.0
5578,64.0,30,25,13.0,0.0
5579,46.0,0,59,15.0,0.0
5580,66.0,0,59,5.0,0.0
5581,90.0,0,59,0.0,0.0
5582,54.0,0,59,4.0,0.0
5583,66.0,0,59,4.0,0.0
5584,54.0,0,25,14.0,0.0
5585,66.0,4,25,13.0,0.0
5586,47.0,0,119,3.0,0.0
5587,59.0,0,25,13.0,0.0
5588,59.0,0,119,15.0,0.0
5589,47.0,0,119,15.0,0.0
5590,50.0,4,25,14.0,0.0
5591,66.0,0,119,5.0,0.0
5592,78.0,0,119,2.0,0.0
5593,78.0,0,119,5.0,0.0
5594,78.0,0,119,1.0,0.0
5595,74.0,0,119,1.0,0.0
5596,62.0,0,239,3.0,0.0
5597,66.0,0,119,3.0,0.0
5598,90.0,26,119,0.0,0.0
5599,86.0,0,239,0.0,0.0
5600,66.0,0,119,4.0,0.0
5601,54.0,0,119,4.0,0.0
5602,74.0,26,29,12.0,0.0
5603,74.0,0,239,2.0,0.0
5604,71.0,26,29,12.0,0.0
5605,49.0,4,25,14.0,0.0
5606,61.0,0,25,13.0,0.0
5607,50.0,30,25,14.0,0.0
5608,62.0,0,25,13.0,0.0
5609,64.0,4,25,13.0,0.0
5610,52.0,0,25,14.0,0.0
5611,66.0,0,119,3.0,0.0
5612,66.0,0,239,5.0,0.0
5613,74.0,26,29,12.0,0.0
5614,78.0,0,119,2.0,0.0
5615,78.0,0,239,5.0,0.0
5616,66.0,26,239,4.0,0.0
5617,66.0,0,119,1.0,0.0
5618,78.0,0,119,1.0,0.0
5619,66.0,4,25,13.0,0.0
5620,54.0,0,239,4.0,0.0
5621,90.0,0,119,0.0,0.0
5622,54.0,0,25,14.0,0.0
5623,66.0,26,29,12.0,0.0
5624,55.0,4,25,14.0,0.0
5625,67.0,0,25,13.0,0.0
5626,35.0,0,59,3.0,0.0
5627,69.0,30,25,13.0,0.0
5628,57.0,0,25,14.0,0.0
5629,35.0,0,59,15.0,0.0
5630,47.0,26,59,15.0,0.0
5631,71.0,0,25,13.0,0.0
5632,59.0,4,25,14.0,0.0
5633,57.0,0,179,3.0,0.0
5634,81.0,0,179,1.0,0.0
5635,60.0,4,25,14.0,0.0
5636,78.0,0,119,2.0,0.0
5637,54.0,0,239,3.0,0.0
5638,69.0,0,179,1.0,0.0
5639,78.0,26,29,12.0,0.0
5640,93.0,0,179,0.0,0.0
5641,87.0,0,119,0.0,0.0
5642,75.0,0,119,2.0,0.0
5643,48.0,0,119,3.0,0.0
5644,48.0,0,119,15.0,0.0
5645,69.0,0,25,13.0,0.0
5646,60.0,0,119,15.0,0.0
5647,75.0,26,29,12.0,0.0
5648,57.0,4,25,14.0,0.0
5649,81.0,0,25,13.0,0.0
5650,78.0,30,25,13.0,0.0
5651,54.0,0,25,14.0,0.0
5652,75.0,4,25,13.0,0.0
5653,51.0,0,25,14.0,0.0
5654,69.0,26,59,2.0,0.0
5655,66.0,0,119,2.0,0.0
5656,48.0,4,25,14.0,0.0
5657,69.0,0,25,13.0,0.0
5658,78.0,26,29,12.0,0.0
5659,90.0,0,119,0.0,0.0
5660,51.0,0,25,14.0,0.0
5661,69.0,0,29,12.0,0.0
5662,78.0,4,25,13.0,0.0
5663,92.0,26,59,0.0,0.0
5664,68.0,0,59,2.0,0.0
5665,75.0,0,25,13.0,0.0
5666,48.0,0,59,15.0,0.0
5667,80.0,0,59,1.0,0.0
5668,68.0,0,59,1.0,0.0
5669,56.0,0,59,3.0,0.0
5670,36.0,0,59,15.0,0.0
5671,54.0,30,25,14.0,0.0
5672,36.0,0,59,3.0,0.0
5673,57.0,0,25,14.0,0.0
5674,69.0,4,25,13.0,0.0
5675,49.0,0,119,15.0,0.0
5676,89.0,0,119,0.0,0.0
5677,68.0,0,119,1.0,0.0
5678,77.0,26,29,12.0,0.0
5679,68.0,0,25,13.0,0.0
5680,49.0,4,25,14.0,0.0
5681,56.0,0,119,3.0,0.0
5682,53.0,0,239,3.0,0.0
5683,49.0,0,119,3.0,0.0
5684,80.0,26,119,1.0,0.0
5685,92.0,0,119,0.0,0.0
5686,65.0,0,239,2.0,0.0
5687,68.0,0,119,2.0,0.0
5688,61.0,0,119,15.0,0.0
5689,73.0,26,29,12.0,0.0
5690,49.0,4,25,14.0,0.0
5691,77.0,0,25,13.0,0.0
5692,61.0,30,25,14.0,0.0
5693,73.0,0,25,13.0,0.0
5694,61.0,4,25,14.0,0.0
5695,68.0,0,25,13.0,0.0
5696,56.0,0,119,3.0,0.0
5697,92.0,0,119,0.0,0.0
5698,89.0,0,119,0.0,0.0
5699,80.0,0,119,1.0,0.0
5700,68.0,0,119,1.0,0.0
5701,77.0,26,29,12.0,0.0
5702,68.0,0,119,2.0,0.0
5703,49.0,0,25,14.0,0.0
5704,68.0,4,25,13.0,0.0
5705,53.0,0,25,14.0,0.0
5706,77.0,4,25,13.0,0.0
5707,68.0,26,29,12.0,0.0
5708,73.0,0,25,13.0,0.0
5709,37.0,26,59,15.0,0.0
5710,49.0,0,59,15.0,0.0
5711,56.0,30,25,14.0,0.0
5712,37.0,0,59,3.0,0.0
5713,68.0,0,25,13.0,0.0
5714,61.0,4,25,14.0,0.0
5715,49.0,4,25,14.0,0.0
5716,61.0,0,119,15.0,0.0
5717,70.0,0,25,13.0,0.0
5718,83.0,0,179,1.0,0.0
5719,49.0,0,119,15.0,0.0
5720,71.0,0,179,2.0,0.0
5721,91.0,0,179,0.0,0.0
5722,88.0,0,119,0.0,0.0
5723,49.0,0,119,3.0,0.0
5724,79.0,26,29,12.0,0.0
5725,67.0,26,119,4.0,0.0
5726,64.0,0,119,4.0,0.0
5727,59.0,0,179,3.0,0.0
5728,76.0,0,119,5.0,0.0
5729,79.0,0,119,5.0,0.0
5730,67.0,0,239,2.0,0.0
5731,71.0,0,179,1.0,0.0
5732,55.0,0,239,3.0,0.0
5733,76.0,26,29,12.0,0.0
5734,52.0,0,25,14.0,0.0
5735,79.0,4,25,13.0,0.0
5736,55.0,0,25,14.0,0.0
5737,76.0,30,25,13.0,0.0
5738,58.0,4,25,14.0,0.0
5739,70.0,0,25,13.0,0.0
5740,79.0,26,29,12.0,0.0
5741,76.0,0,119,0.0,0.0
5742,70.0,4,25,13.0,0.0
5743,49.0,0,25,14.0,0.0
5744,70.0,26,29,12.0,0.0
5745,79.0,4,25,13.0,0.0
5746,52.0,0,25,14.0,0.0
5747,37.0,0,59,3.0,0.0
5748,82.0,26,59,1.0,0.0
5749,76.0,0,25,13.0,0.0
5750,55.0,30,25,14.0,0.0
5751,70.0,0,59,1.0,0.0
5752,49.0,0,59,15.0,0.0
5753,58.0,0,59,3.0,0.0
5754,82.0,0,59,0.0,0.0
5755,37.0,0,59,15.0,0.0
5756,70.0,0,59,2.0,0.0
5757,58.0,0,25,14.0,0.0
5758,70.0,4,25,13.0,0.0
5759,50.0,0,119,15.0,0.0
5760,54.0,0,239,3.0,0.0
5761,61.0,0,179,3.0,0.0
5762,78.0,0,119,5.0,0.0
5763,85.0,0,179,1.0,0.0
5764,85.0,0,179,0.0,0.0
5765,73.0,0,179,1.0,0.0
5766,54.0,0,119,4.0,0.0
5767,62.0,0,119,15.0,0.0
5768,50.0,0,119,3.0,0.0
5769,66.0,0,119,5.0,0.0
5770,78.0,26,29,12.0,0.0
5771,66.0,26,119,4.0,0.0
5772,73.0,0,179,2.0,0.0
5773,66.0,0,119,2.0,0.0
5774,71.0,4,25,13.0,0.0
5775,50.0,0,25,14.0,0.0
5776,54.0,4,25,14.0,0.0
5777,78.0,0,25,13.0,0.0
5778,71.0,26,29,12.0,0.0
5779,74.0,30,25,13.0,0.0
5780,59.0,0,25,14.0,0.0
5781,71.0,4,25,13.0,0.0
5782,62.0,0,25,14.0,0.0
5783,59.0,0,239,2.0,0.0
5784,71.0,0,25,13.0,0.0
5785,78.0,26,59,0.0,0.0
5786,83.0,26,29,12.0,0.0
5787,59.0,4,25,14.0,0.0
5788,57.0,0,25,14.0,0.0
5789,69.0,4,25,13.0,0.0
5790,78.0,0,29,12.0,0.0
5791,59.0,0,59,3.0,0.0
5792,51.0,0,59,15.0,0.0
5793,66.0,30,25,13.0,0.0
5794,83.0,26,59,1.0,0.0
5795,71.0,0,59,1.0,0.0
5796,71.0,0,59,2.0,0.0
5797,54.0,0,25,14.0,0.0
5798,83.0,0,59,0.0,0.0
5799,51.0,0,59,3.0,0.0
5800,63.0,0,59,15.0,0.0
5801,59.0,0,25,14.0,0.0
5802,71.0,4,25,13.0,0.0
5803,74.0,0,179,2.0,0.0
5804,83.0,26,29,12.0,0.0
5805,56.0,0,239,3.0,0.0
5806,83.0,26,119,0.0,0.0
5807,52.0,0,119,3.0,0.0
5808,86.0,26,179,1.0,0.0
5809,86.0,0,179,0.0,0.0
5810,52.0,0,119,15.0,0.0
5811,62.0,0,179,3.0,0.0
5812,74.0,0,179,1.0,0.0
5813,56.0,0,25,14.0,0.0
5814,64.0,0,119,15.0,0.0
5815,68.0,4,25,13.0,0.0
5816,61.0,4,25,14.0,0.0
5817,73.0,0,25,13.0,0.0
5818,80.0,26,29,12.0,0.0
5819,71.0,0,25,13.0,0.0
5820,59.0,30,25,14.0,0.0
5821,68.0,0,25,13.0,0.0
5822,56.0,4,25,14.0,0.0
5823,80.0,0,119,0.0,0.0
5824,68.0,0,59,2.0,0.0
5825,68.0,4,25,13.0,0.0
5826,56.0,0,25,14.0,0.0
5827,85.0,26,29,12.0,0.0
5828,62.0,4,25,14.0,0.0
5829,80.0,0,29,12.0,0.0
5830,74.0,0,25,13.0,0.0
5831,73.0,0,59,1.0,0.0
5832,61.0,0,59,2.0,0.0
5833,73.0,0,59,2.0,0.0
5834,73.0,30,25,13.0,0.0
5835,85.0,0,59,1.0,0.0
5836,65.0,0,59,15.0,0.0
5837,61.0,0,25,14.0,0.0
5838,53.0,26,59,3.0,0.0
5839,85.0,0,59,0.0,0.0
5840,61.0,0,59,3.0,0.0
5841,53.0,0,59,15.0,0.0
5842,68.0,4,25,13.0,0.0
5843,56.0,0,25,14.0,0.0
5844,66.0,0,119,4.0,0.0
5845,88.0,0,179,0.0,0.0
5846,85.0,26,119,0.0,0.0
5847,76.0,0,179,1.0,0.0
5848,57.0,0,25,14.0,0.0
5849,66.0,0,119,15.0,0.0
5850,64.0,0,179,3.0,0.0
5851,54.0,0,119,4.0,0.0
5852,85.0,26,29,12.0,0.0
5853,54.0,0,119,3.0,0.0
5854,54.0,0,119,15.0,0.0
5855,69.0,0,239,2.0,0.0
5856,76.0,26,179,2.0,0.0
5857,57.0,0,239,3.0,0.0
5858,69.0,4,25,13.0,0.0
5859,81.0,26,29,12.0,0.0
5860,62.0,0,25,14.0,0.0
5861,74.0,4,25,13.0,0.0
5862,61.0,0,25,14.0,0.0
5863,73.0,30,25,13.0,0.0
5864,69.0,0,25,13.0,0.0
5865,57.0,4,25,14.0,0.0
5866,69.0,4,25,13.0,0.0
5867,57.0,0,25,14.0,0.0
5868,62.0,0,119,5.0,0.0
5869,74.0,0,119,5.0,0.0
5870,81.0,0,119,0.0,0.0
5871,54.0,0,119,4.0,0.0
5872,66.0,0,119,4.0,0.0
5873,50.0,0,119,7.0,0.0
5874,86.0,26,29,12.0,0.0
5875,64.0,4,25,14.0,0.0
5876,81.0,0,29,12.0,0.0
5877,76.0,0,25,13.0,0.0
5878,62.0,0,59,3.0,0.0
5879,62.0,0,25,14.0,0.0
5880,74.0,0,59,2.0,0.0
5881,54.0,0,59,15.0,0.0
5882,86.0,0,59,0.0,0.0
5883,74.0,30,25,13.0,0.0
5884,66.0,0,59,15.0,0.0
5885,74.0,0,59,1.0,0.0
5886,54.0,26,59,3.0,0.0
5887,69.0,0,25,13.0,0.0
5888,57.0,4,25,14.0,0.0
5889,56.0,0,119,3.0,0.0
5890,68.0,0,119,15.0,0.0
5891,78.0,0,179,1.0,0.0
5892,74.0,26,119,1.0,0.0
5893,50.0,0,119,7.0,0.0
5894,74.0,0,179,5.0,0.0
5895,62.0,0,179,5.0,0.0
5896,56.0,0,119,15.0,0.0
5897,64.0,0,179,4.0,0.0
5898,71.0,26,359,2.0,0.0
5899,71.0,0,25,13.0,0.0
5900,86.0,0,119,0.0,0.0
5901,90.0,0,179,0.0,0.0
5902,78.0,26,179,2.0,0.0
5903,86.0,26,29,12.0,0.0
5904,59.0,0,239,3.0,0.0
5905,66.0,0,179,3.0,0.0
5906,59.0,4,25,14.0,0.0
5907,76.0,0,25,13.0,0.0
5908,64.0,4,25,14.0,0.0
5909,83.0,26,29,12.0,0.0
5910,62.0,0,25,14.0,0.0
5911,74.0,30,25,13.0,0.0
5912,71.0,0,25,13.0,0.0
5913,59.0,4,25,14.0,0.0
5914,83.0,0,239,0.0,0.0
5915,86.0,26,29,12.0,0.0
5916,59.0,4,25,14.0,0.0
5917,71.0,0,25,13.0,0.0
5918,71.0,0,239,1.0,0.0
5919,83.0,0,29,12.0,0.0
5920,66.0,4,25,14.0,0.0
5921,78.0,0,25,13.0,0.0
5922,76.0,26,59,2.0,0.0
5923,76.0,0,25,13.0,0.0
5924,76.0,0,59,5.0,0.0
5925,56.0,0,59,15.0,0.0
5926,64.0,0,59,3.0,0.0
5927,50.0,0,59,7.0,0.0
5928,44.0,0,59,3.0,0.0
5929,64.0,0,59,4.0,0.0
5930,88.0,0,59,0.0,0.0
5931,44.0,0,59,15.0,0.0
5932,64.0,30,25,14.0,0.0
5933,76.0,0,59,1.0,0.0
5934,71.0,0,25,13.0,0.0
5935,59.0,4,25,14.0,0.0
5936,88.0,0,179,0.0,0.0
5937,59.0,4,25,14.0,0.0
5938,64.0,0,179,4.0,0.0
5939,50.0,0,119,7.0,0.0
5940,71.0,0,25,13.0,0.0
5941,76.0,26,179,1.0,0.0
5942,56.0,0,119,15.0,0.0
5943,56.0,0,119,3.0,0.0
5944,86.0,26,29,12.0,0.0
5945,76.0,0,179,5.0,0.0
5946,59.0,26,239,3.0,0.0
5947,64.0,0,179,3.0,0.0
5948,68.0,0,119,15.0,0.0
5949,76.0,0,179,2.0,0.0
5950,83.0,26,29,12.0,0.0
5951,76.0,0,25,13.0,0.0
5952,64.0,4,25,14.0,0.0
5953,74.0,0,25,13.0,0.0
5954,62.0,30,25,14.0,0.0
5955,59.0,0,25,14.0,0.0
5956,71.0,4,25,13.0,0.0
5957,71.0,0,25,13.0,0.0
5958,86.0,26,29,12.0,0.0
5959,59.0,4,25,14.0,0.0
5960,71.0,0,239,1.0,0.0
5961,83.0,0,239,0.0,0.0
5962,71.0,26,239,2.0,0.0
5963,78.0,4,25,13.0,0.0
5964,83.0,0,29,12.0,0.0
5965,66.0,0,25,14.0,0.0
5966,64.0,30,25,14.0,0.0
5967,44.0,0,59,15.0,0.0
5968,56.0,0,59,15.0,0.0
5969,50.0,0,59,7.0,0.0
5970,74.0,0,59,1.0,0.0
5971,62.0,0,59,3.0,0.0
5972,86.0,0,59,0.0,0.0
5973,74.0,0,59,2.0,0.0
5974,64.0,0,59,4.0,0.0
5975,44.0,0,59,3.0,0.0
5976,74.0,26,239,5.0,0.0
5977,76.0,0,25,13.0,0.0
5978,71.0,0,25,13.0,0.0
5979,59.0,4,25,14.0,0.0
5980,64.0,0,179,4.0,0.0
5981,90.0,0,179,0.0,0.0
5982,59.0,0,25,14.0,0.0
5983,68.0,0,119,15.0,0.0
5984,71.0,4,25,13.0,0.0
5985,88.0,26,29,12.0,0.0
5986,66.0,0,179,3.0,0.0
5987,59.0,0,239,3.0,0.0
5988,56.0,0,119,15.0,0.0
5989,50.0,0,119,7.0,0.0
5990,78.0,0,179,1.0,0.0
5991,78.0,0,179,2.0,0.0
5992,56.0,0,119,3.0,0.0
5993,76.0,4,25,13.0,0.0
5994,83.0,26,29,12.0,0.0
5995,64.0,0,25,14.0,0.0
5996,62.0,30,25,14.0,0.0
5997,74.0,0,25,13.0,0.0
5998,71.0,0,25,13.0,0.0
5999,59.0,4,25,14.0,0.0
6000,59.0,0,25,14.0,0.0
6001,83.0,0,179,0.0,0.0
6002,71.0,0,59,2.0,0.0
6003,71.0,26,179,1.0,0.0
6004,88.0,26,29,12.0,0.0
6005,71.0,4,25,13.0,0.0
6006,78.0,4,25,13.0,0.0
6007,66.0,0,25,14.0,0.0
6008,83.0,0,29,12.0,0.0
6009,64.0,30,25,14.0,0.0
6010,88.0,0,119,0.0,0.0
6011,76.0,0,59,5.0,0.0
6012,50.0,0,59,7.0,0.0
6013,56.0,26,59,15.0,0.0
6014,44.0,0,59,15.0,0.0
6015,64.0,0,119,3.0,0.0
6016,76.0,0,119,1.0,0.0
6017,71.0,0,119,2.0,0.0
6018,76.0,0,119,2.0,0.0
6019,44.0,0,59,3.0,0.0
6020,64.0,0,59,4.0,0.0
6021,76.0,0,25,13.0,0.0
6022,59.0,4,25,14.0,0.0
6023,71.0,0,25,13.0,0.0
6024,64.0,0,59,4.0,0.0
6025,50.0,0,119,7.0,0.0
6026,56.0,0,119,15.0,0.0
6027,71.0,0,25,13.0,0.0
6028,59.0,0,59,3.0,0.0
6029,56.0,0,119,3.0,0.0
6030,76.0,0,59,5.0,0.0
6031,59.0,4,25,14.0,0.0
6032,88.0,26,29,12.0,0.0
6033,68.0,0,119,15.0,0.0
6034,64.0,0,25,14.0,0.0
6035,76.0,4,25,13.0,0.0
6036,83.0,0,29,12.0,0.0
6037,74.0,0,59,1.0,0.0
6038,64.0,0,59,2.0,0.0
6039,76.0,0,59,5.0,0.0
6040,86.0,0,59,0.0,0.0
6041,74.0,30,25,13.0,0.0
6042,64.0,0,59,4.0,0.0
6043,74.0,0,59,2.0,0.0
6044,62.0,26,59,3.0,0.0
6045,62.0,0,25,14.0,0.0
6046,59.0,4,25,14.0,0.0
6047,71.0,0,25,13.0,0.0
6048,71.0,0,59,2.0,0.0
6049,59.0,0,59,3.0,0.0
6050,71.0,0,25,13.0,0.0
6051,88.0,26,29,12.0,0.0
6052,76.0,0,59,5.0,0.0
6053,83.0,26,59,0.0,0.0
6054,59.0,4,25,14.0,0.0
6055,71.0,0,59,1.0,0.0
6056,64.0,0,59,4.0,0.0
6057,66.0,0,25,14.0,0.0
6058,83.0,0,29,12.0,0.0
6059,78.0,4,25,13.0,0.0
6060,44.0,26,59,15.0,0.0
6061,64.0,0,25,14.0,0.0
6062,56.0,0,59,15.0,0.0
6063,76.0,26,179,1.0,0.0
6064,88.0,0,179,0.0,0.0
6065,76.0,0,179,2.0,0.0
6066,76.0,30,25,13.0,0.0
6067,50.0,0,59,7.0,0.0
6068,64.0,0,179,3.0,0.0
6069,64.0,0,59,4.0,0.0
6070,44.0,0,59,3.0,0.0
6071,76.0,0,59,5.0,0.0
6072,64.0,0,179,2.0,0.0
6073,71.0,0,25,13.0,0.0
6074,59.0,4,25,14.0,0.0
6075,45.0,0,119,7.0,0.0
6076,64.0,0,119,4.0,0.0
6077,57.0,0,179,15.0,0.0
6078,61.0,30,25,14.0,0.0
6079,45.0,0,179,15.0,0.0
6080,76.0,0,119,5.0,0.0
6081,69.0,0,119,5.0,0.0
6082,73.0,0,25,13.0,0.0
6083,88.0,26,59,12.0,0.0
6084,45.0,0,179,3.0,0.0
6085,73.0,0,25,13.0,0.0
6086,61.0,4,25,14.0,0.0
6087,73.0,4,25,13.0,0.0
6088,86.0,26,29,12.0,0.0
6089,61.0,0,25,14.0,0.0
6090,85.0,0,29,12.0,0.0
6091,61.0,0,25,14.0,0.0
6092,73.0,4,25,13.0,0.0
6093,45.0,0,59,7.0,0.0
6094,73.0,0,25,13.0,0.0
6095,85.0,0,119,0.0,0.0
6096,73.0,0,119,1.0,0.0
6097,61.0,30,25,14.0,0.0
6098,76.0,26,59,5.0,0.0
6099,69.0,0,59,5.0,0.0
6100,69.0,0,59,4.0,0.0
6101,83.0,0,59,12.0,0.0
6102,61.0,0,119,2.0,0.0
6103,73.0,0,119,2.0,0.0
6104,61.0,0,119,3.0,0.0
6105,57.0,0,59,4.0,0.0
6106,73.0,0,25,13.0,0.0
6107,61.0,4,25,14.0,0.0
6108,47.0,0,29,3.0,0.0
6109,57.0,0,59,4.0,0.0
6110,69.0,0,59,4.0,0.0
6111,45.0,26,59,7.0,0.0
6112,62.0,4,25,14.0,0.0
6113,59.0,0,29,15.0,0.0
6114,81.0,0,29,12.0,0.0
6115,76.0,0,59,5.0,0.0
6116,69.0,0,59,5.0,0.0
6117,47.0,26,29,15.0,0.0
6118,74.0,0,25,13.0,0.0
6119,61.0,0,29,15.0,0.0
6120,79.0,0,29,12.0,0.0
6121,49.0,0,29,15.0,0.0
6122,76.0,0,25,13.0,0.0
6123,49.0,0,29,3.0,0.0
6124,64.0,4,25,14.0,0.0
6125,81.0,0,119,0.0,0.0
6126,69.0,0,119,1.0,0.0
6127,69.0,0,119,4.0,0.0
6128,57.0,0,119,4.0,0.0
6129,57.0,0,119,2.0,0.0
6130,78.0,26,59,12.0,0.0
6131,69.0,26,119,2.0,0.0
6132,62.0,0,179,15.0,0.0
6133,57.0,0,119,3.0,0.0
6134,50.0,0,179,15.0,0.0
6135,50.0,0,119,7.0,0.0
6136,78.0,30,25,13.0,0.0
6137,66.0,0,25,14.0,0.0
6138,62.0,0,119,5.0,0.0
6139,78.0,0,119,5.0,0.0
6140,50.0,0,179,3.0,0.0
6141,54.0,0,25,14.0,0.0
6142,66.0,4,25,13.0,0.0
6143,79.0,26,29,12.0,0.0
6144,66.0,0,25,14.0,0.0
6145,78.0,4,25,13.0,0.0
6146,66.0,4,25,14.0,0.0
6147,81.0,0,29,12.0,0.0
6148,78.0,0,25,13.0,0.0
6149,62.0,0,59,5.0,0.0
6150,83.0,0,59,12.0,0.0
6151,90.0,0,119,0.0,0.0
6152,78.0,0,59,5.0,0.0
6153,50.0,0,59,7.0,0.0
6154,78.0,0,25,13.0,0.0
6155,78.0,0,119,1.0,0.0
6156,66.0,0,119,2.0,0.0
6157,78.0,0,119,2.0,0.0
6158,66.0,0,119,3.0,0.0
6159,66.0,30,25,14.0,0.0
6160,57.0,0,59,4.0,0.0
6161,69.0,26,59,4.0,0.0
6162,78.0,0,25,13.0,0.0
6163,66.0,4,25,14.0,0.0
6164,85.0,0,29,12.0,0.0
6165,62.0,0,59,5.0,0.0
6166,78.0,0,59,5.0,0.0
6167,49.0,0,29,15.0,0.0
6168,57.0,0,59,4.0,0.0
6169,69.0,0,59,4.0,0.0
6170,61.0,26,29,15.0,0.0
6171,76.0,4,25,13.0,0.0
6172,50.0,0,59,7.0,0.0
6173,64.0,0,25,14.0,0.0
6174,49.0,0,29,3.0,0.0
6175,59.0,0,29,15.0,0.0
6176,62.0,4,25,14.0,0.0
6177,47.0,0,29,15.0,0.0
6178,74.0,0,25,13.0,0.0
6179,86.0,0,29,12.0,0.0
6180,47.0,26,29,3.0,0.0
6181,64.0,0,119,3.0,0.0
6182,57.0,0,59,4.0,0.0
6183,76.0,0,59,12.0,0.0
6184,88.0,26,119,0.0,0.0
6185,61.0,0,59,15.0,0.0
6186,49.0,0,59,15.0,0.0
6187,61.0,0,25,14.0,0.0
6188,76.0,0,119,5.0,0.0
6189,49.0,0,59,3.0,0.0
6190,45.0,0,119,7.0,0.0
6191,76.0,30,25,13.0,0.0
6192,69.0,26,59,4.0,0.0
6193,76.0,0,119,1.0,0.0
6194,64.0,0,119,2.0,0.0
6195,76.0,0,119,2.0,0.0
6196,61.0,0,25,14.0,0.0
6197,76.0,4,25,13.0,0.0
6198,76.0,4,25,13.0,0.0
6199,61.0,0,25,14.0,0.0
6200,57.0,0,59,4.0,0.0
6201,47.0,26,29,3.0,0.0
6202,78.0,0,29,12.0,0.0
6203,59.0,0,29,15.0,0.0
6204,69.0,0,59,4.0,0.0
6205,47.0,0,29,15.0,0.0
6206,57.0,0,29,15.0,0.0
6207,45.0,0,29,3.0,0.0
6208,61.0,0,25,14.0,0.0
6209,45.0,0,29,15.0,0.0
6210,76.0,4,25,13.0,0.0
6211,80.0,0,29,12.0,0.0
6212,69.0,0,239,2.0,0.0
6213,45.0,0,59,7.0,0.0
6214,76.0,4,25,13.0,0.0
6215,43.0,26,29,15.0,0.0
6216,81.0,0,239,2.0,0.0
6217,81.0,0,239,0.0,0.0
6218,81.0,0,59,12.0,0.0
6219,43.0,0,29,3.0,0.0
6220,61.0,0,25,14.0,0.0
6221,57.0,0,239,3.0,0.0
6222,69.0,0,239,1.0,0.0
6223,93.0,26,239,0.0,0.0
6224,57.0,26,59,4.0,0.0
6225,55.0,0,29,15.0,0.0
6226,81.0,0,239,1.0,0.0
6227,69.0,0,59,4.0,0.0
6228,61.0,0,25,14.0,0.0
6229,76.0,4,25,13.0,0.0
6230,42.0,26,29,15.0,0.0
6231,62.0,4,25,14.0,0.0
6232,57.0,0,59,5.0,0.0
6233,69.0,26,59,5.0,0.0
6234,57.0,0,59,4.0,0.0
6235,69.0,0,59,4.0,0.0
6236,42.0,0,29,3.0,0.0
6237,69.0,0,25,13.0,0.0
6238,83.0,0,29,12.0,0.0
6239,54.0,0,29,15.0,0.0
6240,45.0,0,59,7.0,0.0
6241,69.0,4,25,13.0,0.0
6242,62.0,0,25,14.0,0.0
6243,85.0,0,29,12.0,0.0
6244,45.0,0,119,7.0,0.0
6245,71.0,0,25,13.0,0.0
6246,57.0,0,59,4.0,0.0
6247,69.0,0,59,4.0,0.0
6248,69.0,4,25,14.0,0.0
6249,42.0,0,29,3.0,0.0
6250,42.0,0,29,15.0,0.0
6251,54.0,0,29,15.0,0.0
6252,69.0,0,59,5.0,0.0
6253,57.0,26,59,5.0,0.0
6254,86.0,26,29,12.0,0.0
6255,69.0,4,25,14.0,0.0
6256,71.0,0,25,13.0,0.0
6257,57.0,0,59,5.0,0.0
6258,57.0,0,59,4.0,0.0
6259,53.0,0,29,15.0,0.0
6260,41.0,26,29,3.0,0.0
6261,69.0,4,25,14.0,0.0
6262,71.0,0,25,13.0,0.0
6263,87.0,0,29,12.0,0.0
6264,69.0,0,59,4.0,0.0
6265,69.0,0,59,5.0,0.0
6266,41.0,0,29,15.0,0.0
6267,69.0,0,25,14.0,0.0
6268,71.0,4,25,13.0,0.0
6269,92.0,0,119,0.0,0.0
6270,69.0,4,25,14.0,0.0
6271,68.0,0,119,1.0,0.0
6272,80.0,0,119,1.0,0.0
6273,40.0,26,29,3.0,0.0
6274,52.0,0,29,15.0,0.0
6275,80.0,30,119,0.0,0.0
6276,64.0,26,59,4.0,0.0
6277,80.0,0,119,2.0,0.0
6278,40.0,0,29,15.0,0.0
6279,73.0,0,25,13.0,0.0
6280,76.0,0,59,5.0,0.0
6281,68.0,0,119,2.0,0.0
6282,88.0,0,29,12.0,0.0
6283,56.0,0,119,3.0,0.0
6284,69.0,0,25,14.0,0.0
6285,73.0,4,25,13.0,0.0
6286,80.0,0,29,12.0,0.0
6287,76.0,0,59,5.0,0.0
6288,74.0,4,25,13.0,0.0
6289,71.0,0,25,14.0,0.0
6290,40.0,26,29,3.0,0.0
6291,40.0,0,29,15.0,0.0
6292,64.0,0,59,4.0,0.0
6293,52.0,0,29,15.0,0.0
6294,74.0,0,25,13.0,0.0
6295,71.0,4,25,14.0,0.0
6296,57.0,0,239,15.0,0.0
6297,81.0,0,29,2.0,0.0
6298,81.0,0,29,1.0,0.0
6299,69.0,60,29,1.0,0.0
6300,81.0,0,239,5.0,0.0
6301,69.0,0,239,13.0,0.0
6302,81.0,0,239,13.0,0.0
6303,57.0,0,239,4.0,0.0
6304,69.0,0,239,4.0,0.0
6305,57.0,0,29,3.0,0.0
6306,45.0,0,119,7.0,0.0
6307,93.0,0,29,0.0,0.0
6308,69.0,0,29,2.0,0.0
6309,69.0,0,239,5.0,0.0
6310,81.0,0,239,12.0,0.0
6311,69.0,0,239,14.0,0.0
6312,45.0,0,239,15.0,0.0
6313,81.0,0,29,0.0,0.0
6314,45.0,0,239,3.0,0.0
6315,81.0,0,29,1.0,0.0
6316,69.0,0,29,1.0,0.0
6317,57.0,30,29,3.0,0.0
6318,81.0,0,29,0.0,0.0
6319,69.0,0,29,0.0,0.0
6320,57.0,0,29,2.0,0.0
6321,69.0,0,29,2.0,0.0
6322,59.0,0,29,2.0,0.0
6323,71.0,0,29,2.0,0.0
6324,71.0,30,29,1.0,0.0
6325,59.0,0,29,3.0,0.0
6326,83.0,0,29,1.0,0.0
6327,71.0,0,29,0.0,0.0
6328,83.0,0,29,0.0,0.0
6329,73.0,0,29,2.0,0.0
6330,61.0,0,29,2.0,0.0
6331,85.0,0,29,0.0,0.0
6332,73.0,60,29,1.0,0.0
6333,61.0,0,29,3.0,0.0
6334,73.0,0,29,0.0,0.0
6335,85.0,0,29,1.0,0.0
6336,73.0,0,29,1.0,0.0
6337,61.0,0,29,3.0,0.0
6338,61.0,0,29,2.0,0.0
6339,85.0,0,29,0.0,0.0
6340,85.0,30,29,1.0,0.0
6341,73.0,0,29,2.0,0.0
6342,73.0,0,29,0.0,0.0
6343,74.0,0,29,0.0,0.0
6344,74.0,30,29,1.0,0.0
6345,62.0,0,29,2.0,0.0
6346,62.0,0,29,3.0,0.0
6347,86.0,0,29,1.0,0.0
6348,86.0,0,29,0.0,0.0
6349,74.0,0,29,2.0,0.0
6350,76.0,0,29,1.0,0.0
6351,76.0,0,59,13.0,0.0
6352,64.0,0,29,3.0,0.0
6353,64.0,30,29,1.0,0.0
6354,76.0,0,59,12.0,0.0
6355,52.0,30,59,15.0,0.0
6356,76.0,0,59,5.0,0.0
6357,76.0,0,29,0.0,0.0
6358,64.0,0,59,14.0,0.0
6359,64.0,0,59,4.0,0.0
6360,40.0,0,59,15.0,0.0
6361,40.0,0,59,3.0,0.0
6362,76.0,0,29,2.0,0.0
6363,88.0,0,29,0.0,0.0
6364,64.0,0,29,2.0,0.0
6365,64.0,0,29,3.0,0.0
6366,76.0,0,29,1.0,0.0
6367,64.0,0,29,1.0,0.0
6368,76.0,0,29,2.0,0.0
6369,64.0,0,29,2.0,0.0
6370,88.0,0,29,0.0,0.0
6371,76.0,30,29,0.0,0.0
6372,66.0,0,29,3.0,0.0
6373,78.0,0,29,1.0,0.0
6374,66.0,0,29,2.0,0.0
6375,78.0,0,29,2.0,0.0
6376,78.0,0,29,0.0,0.0
6377,90.0,0,29,0.0,0.0
6378,66.0,30,29,1.0,0.0
6379,68.0,0,29,3.0,0.0
6380,40.0,0,59,3.0,0.0
6381,64.0,0,59,14.0,0.0
6382,68.0,0,29,2.0,0.0
6383,80.0,0,29,2.0,0.0
6384,80.0,0,29,0.0,0.0
6385,40.0,0,59,15.0,0.0
6386,52.0,0,59,15.0,0.0
6387,76.0,0,59,12.0,0.0
6388,64.0,0,59,4.0,0.0
6389,80.0,30,29,1.0,0.0
6390,92.0,0,29,0.0,0.0
6391,68.0,0,29,1.0,0.0
6392,76.0,20,59,5.0,0.0
6393,76.0,0,59,13.0,0.0
6394,64.0,0,19,1.0,0.0
6395,76.0,20,19,1.0,0.0
6396,52.0,0,19,3.0,0.0
6397,64.0,0,19,2.0,0.0
6398,76.0,0,19,0.0,0.0
6399,88.0,0,19,0.0,0.0
6400,76.0,0,19,2.0,0.0
6401,90.0,0,19,0.0,0.0
6402,54.0,0,19,3.0,0.0
6403,78.0,0,19,0.0,0.0
6404,66.0,0,19,1.0,0.0
6405,66.0,0,19,2.0,0.0
6406,77.0,20,19,2.0,0.0
6407,78.0,0,19,1.0,0.0
6408,92.0,0,19,0.0,0.0
6409,80.0,0,19,0.0,0.0
6410,68.0,0,19,1.0,0.0
6411,56.0,0,19,3.0,0.0
6412,80.0,30,19,2.0,0.0
6413,68.0,0,19,2.0,0.0
6414,80.0,0,19,1.0,0.0
6415,33.0,0,29,3.0,0.0
6416,81.0,0,239,5.0,0.0
6417,69.0,0,239,5.0,0.0
6418,57.0,0,239,4.0,0.0
6419,81.0,30,239,1.0,0.0
6420,69.0,0,239,1.0,0.0
6421,69.0,0,29,12.0,0.0
6422,57.0,0,239,3.0,0.0
6423,45.0,0,29,15.0,0.0
6424,69.0,0,239,4.0,0.0
6425,93.0,0,239,0.0,0.0
6426,57.0,0,29,14.0,0.0
6427,81.0,0,239,0.0,0.0
6428,69.0,0,239,2.0,0.0
6429,45.0,0,119,7.0,0.0
6430,69.0,0,29,13.0,0.0
6431,81.0,0,239,2.0,0.0
6432,33.0,60,29,15.0,0.0
6433,33.0,0,29,15.0,0.0
6434,57.0,0,29,14.0,0.0
6435,45.0,0,29,15.0,0.0
6436,69.0,30,29,13.0,0.0
6437,69.0,0,29,12.0,0.0
6438,33.0,0,29,3.0,0.0
6439,35.0,0,29,15.0,0.0
6440,47.0,0,29,15.0,0.0
6441,71.0,0,29,12.0,0.0
6442,35.0,0,29,3.0,0.0
6443,59.0,0,29,14.0,0.0
6444,71.0,30,29,13.0,0.0
6445,73.0,60,29,12.0,0.0
6446,73.0,0,29,13.0,0.0
6447,61.0,0,29,14.0,0.0
6448,37.0,0,29,15.0,0.0
6449,49.0,0,29,15.0,0.0
6450,37.0,0,29,3.0,0.0
6451,49.0,0,29,15.0,0.0
6452,37.0,0,29,15.0,0.0
6453,61.0,0,29,14.0,0.0
6454,37.0,0,29,3.0,0.0
6455,73.0,0,29,12.0,0.0
6456,73.0,30,29,13.0,0.0
6457,38.0,0,29,15.0,0.0
6458,38.0,0,29,3.0,0.0
6459,74.0,0,29,12.0,0.0
6460,62.0,0,29,14.0,0.0
6461,50.0,0,29,15.0,0.0
6462,74.0,0,29,13.0,0.0
6463,76.0,30,59,5.0,0.0
6464,76.0,30,29,12.0,0.0
6465,52.0,0,59,3.0,0.0
6466,76.0,0,59,0.0,0.0
6467,40.0,0,29,3.0,0.0
6468,64.0,0,59,2.0,0.0
6469,76.0,0,59,2.0,0.0
6470,64.0,0,59,1.0,0.0
6471,76.0,0,59,1.0,0.0
6472,88.0,0,59,0.0,0.0
6473,76.0,0,29,13.0,0.0
6474,64.0,0,29,14.0,0.0
6475,64.0,0,59,4.0,0.0
6476,52.0,0,29,15.0,0.0
6477,40.0,0,29,15.0,0.0
6478,40.0,0,29,3.0,0.0
6479,64.0,0,29,14.0,0.0
6480,52.0,30,29,15.0,0.0
6481,76.0,0,29,12.0,0.0
6482,40.0,0,29,15.0,0.0
6483,76.0,0,29,13.0,0.0
6484,66.0,0,29,14.0,0.0
6485,78.0,0,29,12.0,0.0
6486,42.0,30,29,3.0,0.0
6487,54.0,0,29,15.0,0.0
6488,42.0,0,29,15.0,0.0
6489,78.0,0,29,13.0,0.0
6490,56.0,0,29,15.0,0.0
6491,64.0,20,59,4.0,0.0
6492,64.0,0,59,1.0,0.0
6493,76.0,0,59,1.0,0.0
6494,76.0,0,59,5.0,0.0
6495,76.0,0,59,0.0,0.0
6496,88.0,0,59,0.0,0.0
6497,44.0,0,29,3.0,0.0
6498,80.0,0,29,13.0,0.0
6499,64.0,0,59,2.0,0.0
6500,76.0,0,59,2.0,0.0
6501,68.0,0,29,14.0,0.0
6502,80.0,0,29,12.0,0.0
6503,44.0,30,29,15.0,0.0
6504,52.0,0,59,3.0,0.0
6505,40.0,0,19,15.0,0.0
6506,76.0,0,19,12.0,0.0
6507,40.0,0,19,3.0,0.0
6508,76.0,0,19,13.0,0.0
6509,52.0,0,19,15.0,0.0
6510,64.0,20,19,14.0,0.0
6511,78.0,20,19,12.0,0.0
6512,41.0,0,19,3.0,0.0
6513,78.0,0,19,13.0,0.0
6514,53.0,0,19,15.0,0.0
6515,41.0,0,19,15.0,0.0
6516,66.0,0,19,14.0,0.0
6517,80.0,0,19,12.0,0.0
6518,68.0,0,19,14.0,0.0
6519,44.0,0,19,3.0,0.0
6520,80.0,60,19,13.0,0.0
6521,56.0,0,19,15.0,0.0
6522,44.0,0,19,15.0,0.0
6523,64.0,30,119,13.0,0.0
6524,61.0,30,179,14.0,0.0
6525,88.0,60,59,0.0,0.0
6526,76.0,0,59,12.0,0.0
6527,85.0,0,59,0.0,0.0
6528,73.0,0,59,12.0,0.0
6529,69.0,0,239,13.0,0.0
6530,81.0,0,29,0.0,0.0
6531,69.0,30,29,12.0,0.0
6532,83.0,30,29,0.0,0.0
6533,62.0,120,59,14.0,0.0
6534,71.0,0,29,12.0,0.0
6535,73.0,60,119,12.0,0.0
6536,85.0,0,119,0.0,0.0
6537,64.0,0,359,14.0,0.0
6538,68.0,60,59,13.0,0.0
6539,71.0,0,119,12.0,0.0
6540,83.0,0,119,0.0,0.0
6541,67.0,60,59,13.0,0.0
6542,90.0,0,59,0.0,0.0
6543,78.0,0,59,12.0,0.0
6544,70.0,60,59,13.0,0.0
6545,66.0,0,59,13.0,0.0
6546,74.0,0,59,12.0,0.0
6547,86.0,30,59,0.0,0.0
6548,71.0,0,29,12.0,0.0
6549,71.0,0,239,13.0,0.0
6550,83.0,30,29,0.0,0.0
6551,62.0,30,59,14.0,0.0
6552,64.0,120,59,14.0,0.0
6553,73.0,30,29,12.0,0.0
6554,85.0,0,29,0.0,0.0
6555,86.0,60,119,0.0,0.0
6556,74.0,0,119,12.0,0.0
6557,66.0,0,239,14.0,0.0
6558,54.0,30,299,15.0,0.0
6559,85.0,60,59,0.0,0.0
6560,70.0,60,119,13.0,0.0
6561,73.0,0,59,12.0,0.0
6562,70.0,60,119,12.0,0.0
6563,82.0,0,119,1.0,0.0
6564,63.0,0,359,13.0,0.0
6565,58.0,0,179,14.0,0.0
6566,66.0,0,59,12.0,0.0
6567,78.0,30,59,1.0,0.0
6568,75.0,0,29,1.0,0.0
6569,63.0,30,29,12.0,0.0
6570,59.0,0,59,14.0,0.0
6571,56.0,120,59,15.0,0.0
6572,77.0,0,29,1.0,0.0
6573,65.0,30,29,12.0,0.0
6574,58.0,60,119,14.0,0.0
6575,78.0,0,119,1.0,0.0
6576,66.0,0,119,12.0,0.0
6577,58.0,0,119,15.0,0.0
6578,44.0,0,59,15.0,0.0
6579,56.0,0,59,3.0,0.0
6580,62.0,0,59,13.0,0.0
6581,65.0,0,59,12.0,0.0
6582,77.0,0,59,1.0,0.0
6583,59.0,60,59,14.0,0.0
6584,56.0,0,59,15.0,0.0
6585,44.0,0,59,3.0,0.0
6586,76.0,0,59,12.0,0.0
6587,74.0,0,59,13.0,0.0
6588,56.0,0,59,15.0,0.0
6589,76.0,0,119,5.0,0.0
6590,44.0,0,59,3.0,0.0
6591,64.0,0,119,3.0,0.0
6592,56.0,0,59,3.0,0.0
6593,62.0,0,59,13.0,0.0
6594,76.0,0,119,1.0,0.0
6595,76.0,0,119,2.0,0.0
6596,64.0,30,59,12.0,0.0
6597,44.0,0,59,15.0,0.0
6598,88.0,0,119,0.0,0.0
6599,71.0,0,59,14.0,0.0
6600,64.0,0,119,2.0,0.0
6601,64.0,0,119,4.0,0.0
6602,61.0,30,29,13.0,0.0
6603,45.0,0,59,15.0,0.0
6604,57.0,0,59,15.0,0.0
6605,88.0,0,59,12.0,0.0
6606,45.0,0,119,7.0,0.0
6607,69.0,0,29,14.0,0.0
6608,45.0,0,59,3.0,0.0
6609,57.0,0,59,3.0,0.0
6610,64.0,0,29,14.0,0.0
6611,69.0,30,29,13.0,0.0
6612,85.0,0,59,12.0,0.0
6613,85.0,0,59,0.0,0.0
6614,49.0,0,59,3.0,0.0
6615,69.0,0,59,5.0,0.0
6616,61.0,0,59,2.0,0.0
6617,73.0,0,59,2.0,0.0
6618,64.0,0,29,14.0,0.0
6619,57.0,0,59,4.0,0.0
6620,61.0,0,59,15.0,0.0
6621,69.0,30,29,13.0,0.0
6622,69.0,0,59,4.0,0.0
6623,49.0,0,59,15.0,0.0
6624,61.0,30,59,3.0,0.0
6625,85.0,0,59,1.0,0.0
6626,73.0,0,59,1.0,0.0
6627,64.0,0,29,14.0,0.0
6628,69.0,0,29,13.0,0.0
6629,57.0,0,29,4.0,0.0
6630,54.0,0,29,3.0,0.0
6631,57.0,0,29,2.0,0.0
6632,69.0,0,29,2.0,0.0
6633,57.0,0,29,3.0,0.0
6634,69.0,30,29,4.0,0.0
6635,66.0,0,29,14.0,0.0
6636,81.0,0,29,12.0,0.0
6637,54.0,0,29,15.0,0.0
6638,69.0,0,29,1.0,0.0
6639,69.0,0,29,13.0,0.0
6640,81.0,0,29,5.0,0.0
6641,45.0,30,119,7.0,0.0
6642,69.0,0,29,5.0,0.0
6643,81.0,0,29,1.0,0.0
6644,81.0,0,29,0.0,0.0
6645,66.0,0,29,15.0,0.0
6646,66.0,0,29,14.0,0.0
6647,69.0,30,29,13.0,0.0
6648,83.0,0,29,12.0,0.0
6649,59.0,0,29,2.0,0.0
6650,71.0,0,29,2.0,0.0
6651,57.0,0,29,3.0,0.0
6652,59.0,0,29,3.0,0.0
6653,69.0,0,29,4.0,0.0
6654,66.0,0,29,4.0,0.0
6655,66.0,0,29,14.0,0.0
6656,51.0,0,29,15.0,0.0
6657,81.0,0,29,5.0,0.0
6658,51.0,0,29,3.0,0.0
6659,83.0,0,29,0.0,0.0
6660,71.0,0,29,1.0,0.0
6661,69.0,30,29,13.0,0.0
6662,63.0,0,29,15.0,0.0
6663,69.0,0,29,5.0,0.0
6664,83.0,0,29,1.0,0.0
6665,66.0,0,29,14.0,0.0
6666,69.0,0,29,13.0,0.0
6667,57.0,0,119,3.0,0.0
6668,76.0,0,119,5.0,0.0
6669,52.0,0,119,3.0,0.0
6670,61.0,0,119,3.0,0.0
6671,85.0,0,119,12.0,0.0
6672,85.0,0,119,1.0,0.0
6673,73.0,0,119,1.0,0.0
6674,81.0,0,119,0.0,0.0
6675,85.0,0,119,0.0,0.0
6676,69.0,0,119,4.0,0.0
6677,64.0,0,119,4.0,0.0
6678,64.0,30,29,14.0,0.0
6679,69.0,0,119,2.0,0.0
6680,73.0,0,119,2.0,0.0
6681,69.0,0,29,13.0,0.0
6682,64.0,0,119,15.0,0.0
6683,52.0,30,119,15.0,0.0
6684,69.0,0,29,14.0,0.0
6685,73.0,30,29,13.0,0.0
6686,73.0,0,29,13.0,0.0
6687,69.0,30,29,14.0,0.0
6688,73.0,0,29,13.0,0.0
6689,69.0,0,29,14.0,0.0
6690,80.0,0,119,0.0,0.0
6691,64.0,0,119,4.0,0.0
6692,68.0,30,29,14.0,0.0
6693,83.0,0,119,0.0,0.0
6694,71.0,0,119,1.0,0.0
6695,83.0,0,119,1.0,0.0
6696,56.0,0,119,3.0,0.0
6697,40.0,0,119,3.0,0.0
6698,59.0,0,119,3.0,0.0
6699,40.0,0,119,15.0,0.0
6700,68.0,0,119,2.0,0.0
6701,74.0,0,29,13.0,0.0
6702,52.0,0,119,15.0,0.0
6703,71.0,0,119,2.0,0.0
6704,76.0,0,119,5.0,0.0
6705,83.0,0,119,12.0,0.0
6706,74.0,30,29,13.0,0.0
6707,68.0,0,29,14.0,0.0
6708,68.0,0,29,14.0,0.0
6709,74.0,30,29,13.0,0.0
6710,68.0,30,29,14.0,0.0
6711,74.0,0,29,13.0,0.0
6712,68.0,0,29,14.0,0.0
6713,74.0,30,29,13.0,0.0
6714,68.0,0,29,14.0,0.0
6715,74.0,30,29,13.0,0.0
6716,59.0,0,29,14.0,0.0
6717,68.0,30,29,13.0,0.0
6718,59.0,0,29,14.0,0.0
6719,68.0,30,29,13.0,0.0
6720,40.0,0,59,3.0,0.0
6721,86.0,0,59,1.0,0.0
6722,59.0,0,59,3.0,0.0
6723,76.0,0,59,5.0,0.0
6724,92.0,0,59,0.0,0.0
6725,83.0,0,59,12.0,0.0
6726,80.0,0,59,2.0,0.0
6727,64.0,0,59,12.0,0.0
6728,74.0,0,59,12.0,0.0
6729,88.0,0,59,0.0,0.0
6730,52.0,0,59,15.0,0.0
6731,40.0,30,59,15.0,0.0
6732,68.0,0,29,14.0,0.0
6733,83.0,0,59,1.0,0.0
6734,62.0,0,59,3.0,0.0
6735,71.0,0,59,2.0,0.0
6736,64.0,0,59,4.0,0.0
6737,74.0,30,29,13.0,0.0
6738,68.0,0,29,14.0,0.0
6739,74.0,0,29,13.0,0.0
6740,59.0,30,29,14.0,0.0
6741,68.0,0,29,13.0,0.0
6742,59.0,0,29,14.0,0.0
6743,68.0,30,29,13.0,0.0
6744,69.0,30,29,14.0,0.0
6745,73.0,0,29,13.0,0.0
6746,69.0,0,29,14.0,0.0
6747,73.0,30,29,13.0,0.0
6748,61.0,30,29,14.0,0.0
6749,69.0,0,29,13.0,0.0
6750,61.0,30,29,14.0,0.0
6751,69.0,0,29,13.0,0.0
6752,45.0,30,29,7.0,0.0
6753,81.0,0,59,1.0,0.0
6754,85.0,0,59,1.0,0.0
6755,88.0,0,59,0.0,0.0
6756,73.0,0,59,2.0,0.0
6757,69.0,0,59,5.0,0.0
6758,61.0,0,59,3.0,0.0
6759,69.0,0,59,4.0,0.0
6760,57.0,0,59,4.0,0.0
6761,81.0,0,59,2.0,0.0
6762,73.0,0,59,12.0,0.0
6763,57.0,0,59,3.0,0.0
6764,64.0,0,59,14.0,0.0
6765,45.0,0,59,3.0,0.0
6766,57.0,0,59,14.0,0.0
6767,81.0,0,59,13.0,0.0
6768,93.0,0,59,0.0,0.0
6769,81.0,0,59,12.0,0.0
6770,64.0,0,59,12.0,0.0
6771,57.0,0,59,15.0,0.0
6772,69.0,0,59,14.0,0.0
6773,45.0,30,59,15.0,0.0
6774,64.0,0,59,13.0,0.0
6775,73.0,0,59,13.0,0.0
6776,45.0,0,29,7.0,0.0
6777,45.0,30,29,7.0,0.0
6778,45.0,30,29,7.0,0.0
6779,45.0,30,29,7.0,0.0
6780,45.0,30,29,7.0,0.0
6781,45.0,30,29,7.0,0.0
6782,45.0,30,29,7.0,0.0
6783,45.0,30,29,7.0,0.0
6784,45.0,30,29,7.0,0.0
6785,45.0,30,29,7.0,0.0
6786,45.0,30,29,7.0,0.0
6787,69.0,0,299,5.0,0.0
6788,57.0,0,299,5.0,0.0
6789,53.0,0,899,4.0,0.0
6790,62.0,0,959,4.0,0.0
6791,79.0,0,299,13.0,0.0
6792,76.0,0,299,13.0,0.0
6793,70.0,0,299,1.0,0.0
6794,41.0,0,299,15.0,0.0
6795,41.0,0,899,4.0,0.0
6796,45.0,30,29,7.0,0.0
6797,70.0,0,299,2.0,0.0
6798,64.0,0,299,14.0,0.0
6799,70.0,0,299,12.0,0.0
6800,61.0,0,299,14.0,0.0
6801,82.0,0,299,12.0,0.0
6802,82.0,30,299,0.0,0.0
6803,29.0,0,299,3.0,0.0
6804,58.0,0,299,3.0,0.0
6805,29.0,0,299,15.0,0.0
6806,41.0,0,299,3.0,0.0
6807,45.0,30,29,7.0,0.0
6808,45.0,30,29,7.0,0.0
6809,45.0,30,29,7.0,0.0
6810,45.0,30,29,7.0,0.0
6811,45.0,30,29,7.0,0.0
6812,45.0,30,29,7.0,0.0
6813,45.0,30,29,7.0,0.0
6814,45.0,30,29,7.0,0.0
6815,45.0,0,29,7.0,0.0
6816,45.0,0,29,7.0,0.0
6817,57.0,0,29,15.0,0.0
6818,57.0,0,29,5.0,0.0
6819,69.0,0,29,1.0,0.0
6820,69.0,0,29,2.0,0.0
6821,77.0,0,29,13.0,0.0
6822,69.0,0,29,5.0,0.0
6823,81.0,0,29,0.0,0.0
6824,81.0,0,29,12.0,0.0
6825,57.0,0,29,3.0,0.0
6826,74.0,0,29,13.0,0.0
6827,62.0,0,29,14.0,0.0
6828,65.0,0,29,14.0,0.0
6829,45.0,0,29,15.0,0.0
6830,45.0,0,29,3.0,0.0
6831,69.0,0,29,12.0,0.0
6832,45.0,30,29,7.0,0.0
6833,45.0,0,29,15.0,0.0
6834,81.0,0,29,12.0,0.0
6835,57.0,0,29,15.0,0.0
6836,69.0,0,29,12.0,0.0
6837,77.0,0,29,13.0,0.0
6838,74.0,0,29,13.0,0.0
6839,57.0,30,29,5.0,0.0
6840,69.0,0,29,5.0,0.0
6841,45.0,0,29,7.0,0.0
6842,81.0,0,29,0.0,0.0
6843,69.0,0,29,2.0,0.0
6844,69.0,0,29,1.0,0.0
6845,62.0,0,29,14.0,0.0
6846,65.0,0,29,14.0,0.0
6847,45.0,0,29,3.0,0.0
6848,57.0,0,29,3.0,0.0
6849,45.0,30,29,7.0,0.0
6850,62.0,0,29,3.0,0.0
6851,50.0,0,29,15.0,0.0
6852,50.0,0,29,3.0,0.0
6853,74.0,0,29,1.0,0.0
6854,45.0,0,29,7.0,0.0
6855,74.0,0,29,14.0,0.0
6856,86.0,30,29,0.0,0.0
6857,46.0,0,29,3.0,0.0
6858,62.0,0,29,5.0,0.0
6859,74.0,0,29,5.0,0.0
6860,74.0,0,29,2.0,0.0
6861,62.0,0,29,15.0,0.0
6862,86.0,0,29,12.0,0.0
6863,86.0,0,29,13.0,0.0
6864,45.0,30,29,7.0,0.0
6865,62.0,0,119,5.0,0.0
6866,50.0,0,59,3.0,0.0
6867,62.0,0,59,3.0,0.0
6868,50.0,0,59,15.0,0.0
6869,74.0,0,119,5.0,0.0
6870,46.0,0,59,3.0,0.0
6871,74.0,30,59,1.0,0.0
6872,74.0,0,59,2.0,0.0
6873,86.0,0,59,0.0,0.0
6874,45.0,30,29,7.0,0.0
6875,86.0,0,59,13.0,0.0
6876,74.0,0,59,14.0,0.0
6877,86.0,0,59,12.0,0.0
6878,62.0,0,59,15.0,0.0
6879,45.0,0,29,7.0,0.0
6880,45.0,30,29,7.0,0.0
6881,41.0,0,59,3.0,0.0
6882,65.0,0,59,3.0,0.0
6883,53.0,0,59,3.0,0.0
6884,77.0,0,59,12.0,0.0
6885,65.0,0,59,14.0,0.0
6886,89.0,0,59,0.0,0.0
6887,53.0,0,59,15.0,0.0
6888,65.0,0,59,2.0,0.0
6889,77.0,30,59,2.0,0.0
6890,77.0,0,59,1.0,0.0
6891,77.0,0,59,0.0,0.0
6892,77.0,0,59,13.0,0.0
6893,41.0,0,59,15.0,0.0
6894,45.0,0,29,7.0,0.0
6895,77.0,0,59,12.0,0.0
6896,41.0,0,59,15.0,0.0
6897,77.0,0,59,2.0,0.0
6898,65.0,0,59,2.0,0.0
6899,77.0,0,59,1.0,0.0
6900,77.0,0,59,13.0,0.0
6901,65.0,30,59,14.0,0.0
6902,89.0,0,59,0.0,0.0
6903,77.0,0,59,0.0,0.0
6904,41.0,0,59,3.0,0.0
6905,45.0,30,29,7.0,0.0
6906,65.0,0,59,3.0,0.0
6907,53.0,0,59,3.0,0.0
6908,53.0,0,59,15.0,0.0
6909,45.0,0,29,7.0,0.0
6910,57.0,0,59,3.0,0.0
6911,69.0,0,59,2.0,0.0
6912,81.0,0,59,12.0,0.0
6913,45.0,0,59,15.0,0.0
6914,45.0,0,59,3.0,0.0
6915,69.0,0,59,14.0,0.0
6916,81.0,0,59,2.0,0.0
6917,93.0,0,59,0.0,0.0
6918,57.0,0,59,15.0,0.0
6919,81.0,0,59,13.0,0.0
6920,69.0,0,59,5.0,0.0
6921,69.0,0,59,3.0,0.0
6922,81.0,0,59,0.0,0.0
6923,45.0,30,29,7.0,0.0
6924,81.0,0,59,1.0,0.0
6925,45.0,30,29,7.0,0.0
6926,69.0,0,59,14.0,0.0
6927,81.0,0,59,13.0,0.0
6928,69.0,0,59,5.0,0.0
6929,81.0,0,59,1.0,0.0
6930,57.0,0,59,15.0,0.0
6931,81.0,0,59,12.0,0.0
6932,45.0,30,59,15.0,0.0
6933,45.0,30,29,7.0,0.0
6934,69.0,0,59,3.0,0.0
6935,69.0,0,59,2.0,0.0
6936,81.0,0,59,2.0,0.0
6937,81.0,0,59,0.0,0.0
6938,45.0,0,59,3.0,0.0
6939,57.0,0,59,3.0,0.0
6940,93.0,0,59,0.0,0.0
6941,45.0,0,29,7.0,0.0
6942,62.0,0,59,3.0,0.0
6943,50.0,0,59,3.0,0.0
6944,74.0,0,59,1.0,0.0
6945,62.0,0,59,2.0,0.0
6946,74.0,0,59,13.0,0.0
6947,74.0,0,59,0.0,0.0
6948,86.0,0,59,0.0,0.0
6949,62.0,30,59,5.0,0.0
6950,74.0,0,59,12.0,0.0
6951,38.0,0,59,15.0,0.0
6952,45.0,30,29,7.0,0.0
6953,62.0,0,59,14.0,0.0
6954,74.0,0,59,2.0,0.0
6955,50.0,0,59,15.0,0.0
6956,38.0,0,59,3.0,0.0
6957,45.0,0,29,7.0,0.0
6958,38.0,0,59,15.0,0.0
6959,62.0,0,59,3.0,0.0
6960,50.0,0,59,3.0,0.0
6961,38.0,0,59,3.0,0.0
6962,62.0,0,59,14.0,0.0
6963,45.0,30,29,7.0,0.0
6964,74.0,0,59,1.0,0.0
6965,62.0,0,119,5.0,0.0
6966,74.0,0,59,12.0,0.0
6967,74.0,0,59,2.0,0.0
6968,74.0,0,59,0.0,0.0
6969,86.0,0,59,0.0,0.0
6970,62.0,0,59,2.0,0.0
6971,50.0,30,59,15.0,0.0
6972,74.0,0,59,13.0,0.0
6973,50.0,0,29,7.0,0.0
6974,65.0,0,59,15.0,0.0
6975,77.0,0,59,1.0,0.0
6976,89.0,0,59,0.0,0.0
6977,77.0,0,59,2.0,0.0
6978,65.0,0,59,4.0,0.0
6979,53.0,0,59,4.0,0.0
6980,41.0,0,59,3.0,0.0
6981,77.0,0,59,13.0,0.0
6982,53.0,0,59,15.0,0.0
6983,53.0,0,59,3.0,0.0
6984,50.0,30,29,7.0,0.0
6985,77.0,0,59,12.0,0.0
6986,65.0,0,59,14.0,0.0
6987,65.0,0,59,3.0,0.0
6988,50.0,30,29,7.0,0.0
6989,53.0,0,59,4.0,0.0
6990,89.0,0,59,0.0,0.0
6991,77.0,0,59,2.0,0.0
6992,53.0,0,59,15.0,0.0
6993,77.0,0,59,12.0,0.0
6994,65.0,0,59,14.0,0.0
6995,62.0,0,119,4.0,0.0
6996,65.0,0,59,4.0,0.0
6997,50.0,30,29,7.0,0.0
6998,77.0,0,59,13.0,0.0
6999,53.0,30,59,3.0,0.0
7000,65.0,0,59,3.0,0.0
7001,41.0,0,59,3.0,0.0
7002,65.0,0,59,15.0,0.0
7003,77.0,0,59,1.0,0.0
7004,50.0,0,29,7.0,0.0
7005,69.0,0,59,5.0,0.0
7006,57.0,0,59,14.0,0.0
7007,57.0,0,59,5.0,0.0
7008,33.0,0,59,3.0,0.0
7009,69.0,0,59,2.0,0.0
7010,57.0,0,59,15.0,0.0
7011,81.0,0,59,0.0,0.0
7012,69.0,0,59,13.0,0.0
7013,50.0,30,29,7.0,0.0
7014,45.0,0,59,3.0,0.0
7015,57.0,0,59,3.0,0.0
7016,45.0,0,59,15.0,0.0
7017,69.0,0,59,1.0,0.0
7018,69.0,0,59,12.0,0.0
7019,50.0,30,29,7.0,0.0
7020,69.0,0,59,5.0,0.0
7021,57.0,0,59,5.0,0.0
7022,69.0,0,59,13.0,0.0
7023,57.0,0,59,14.0,0.0
7024,65.0,0,119,4.0,0.0
7025,69.0,0,59,12.0,0.0
7026,45.0,0,59,15.0,0.0
7027,69.0,30,59,2.0,0.0
7028,57.0,0,59,3.0,0.0
7029,81.0,0,59,0.0,0.0
7030,45.0,0,59,3.0,0.0
7031,33.0,0,59,3.0,0.0
7032,69.0,0,59,1.0,0.0
7033,50.0,30,29,7.0,0.0
7034,57.0,0,59,15.0,0.0
7035,50.0,0,29,7.0,0.0
7036,62.0,0,59,4.0,0.0
7037,62.0,0,59,15.0,0.0
7038,74.0,0,59,13.0,0.0
7039,74.0,0,59,2.0,0.0
7040,62.0,0,59,3.0,0.0
7041,50.0,0,59,3.0,0.0
7042,62.0,0,59,14.0,0.0
7043,86.0,0,59,0.0,0.0
7044,50.0,30,29,7.0,0.0
7045,50.0,0,59,4.0,0.0
7046,50.0,0,59,15.0,0.0
7047,74.0,0,59,1.0,0.0
7048,38.0,0,59,3.0,0.0
7049,74.0,30,59,5.0,0.0
7050,62.0,0,59,5.0,0.0
7051,74.0,0,59,12.0,0.0
7052,50.0,0,29,7.0,0.0
7053,74.0,0,59,13.0,0.0
7054,86.0,0,59,0.0,0.0
7055,50.0,0,119,4.0,0.0
7056,62.0,30,119,5.0,0.0
7057,74.0,0,59,2.0,0.0
7058,62.0,0,59,3.0,0.0
7059,50.0,0,59,15.0,0.0
7060,50.0,30,29,7.0,0.0
7061,62.0,0,59,14.0,0.0
7062,62.0,0,119,4.0,0.0
7063,50.0,0,59,3.0,0.0
7064,65.0,0,119,4.0,0.0
7065,62.0,0,59,15.0,0.0
7066,74.0,0,119,5.0,0.0
7067,38.0,30,59,3.0,0.0
7068,74.0,0,59,1.0,0.0
7069,74.0,0,59,12.0,0.0
7070,50.0,0,29,7.0,0.0
7071,65.0,0,59,12.0,0.0
7072,41.0,0,59,3.0,0.0
7073,53.0,0,59,3.0,0.0
7074,65.0,0,59,1.0,0.0
7075,65.0,0,59,2.0,0.0
7076,53.0,0,59,14.0,0.0
7077,50.0,30,29,7.0,0.0
7078,53.0,0,59,15.0,0.0
7079,41.0,0,59,15.0,0.0
7080,29.0,0,59,3.0,0.0
7081,65.0,0,59,13.0,0.0
7082,77.0,0,59,0.0,0.0
7083,50.0,0,29,7.0,0.0
7084,53.0,0,59,3.0,0.0
7085,41.0,0,59,3.0,0.0
7086,65.0,0,59,12.0,0.0
7087,65.0,0,59,1.0,0.0
7088,65.0,0,119,4.0,0.0
7089,77.0,0,59,0.0,0.0
7090,29.0,0,59,3.0,0.0
7091,41.0,0,59,15.0,0.0
7092,50.0,30,29,7.0,0.0
7093,53.0,0,59,14.0,0.0
7094,53.0,0,59,15.0,0.0
7095,62.0,0,119,4.0,0.0
7096,65.0,0,59,13.0,0.0
7097,65.0,30,59,2.0,0.0
7098,50.0,0,29,7.0,0.0
7099,33.0,0,59,3.0,0.0
7100,57.0,0,59,15.0,0.0
7101,69.0,0,59,1.0,0.0
7102,45.0,0,59,3.0,0.0
7103,57.0,0,59,3.0,0.0
7104,57.0,0,59,14.0,0.0
7105,45.0,0,59,15.0,0.0
7106,69.0,0,59,5.0,0.0
7107,69.0,0,59,13.0,0.0
7108,69.0,0,59,12.0,0.0
7109,69.0,0,59,2.0,0.0
7110,81.0,0,59,5.0,0.0
7111,50.0,30,29,7.0,0.0
7112,81.0,30,59,0.0,0.0
7113,50.0,0,29,7.0,0.0
7114,45.0,0,59,3.0,0.0
7115,57.0,0,59,3.0,0.0
7116,57.0,0,59,15.0,0.0
7117,33.0,0,59,3.0,0.0
7118,69.0,0,59,1.0,0.0
7119,65.0,0,119,4.0,0.0
7120,69.0,0,59,2.0,0.0
7121,81.0,0,59,0.0,0.0
7122,57.0,30,59,14.0,0.0
7123,69.0,0,59,13.0,0.0
7124,45.0,0,59,15.0,0.0
7125,69.0,0,59,5.0,0.0
7126,81.0,0,59,5.0,0.0
7127,50.0,30,29,7.0,0.0
7128,69.0,0,59,12.0,0.0
7129,50.0,0,29,7.0,0.0
7130,50.0,0,59,3.0,0.0
7131,50.0,0,59,15.0,0.0
7132,62.0,0,59,5.0,0.0
7133,38.0,0,59,3.0,0.0
7134,74.0,0,59,0.0,0.0
7135,62.0,0,59,4.0,0.0
7136,50.0,0,59,4.0,0.0
7137,62.0,0,59,1.0,0.0
7138,50.0,0,59,14.0,0.0
7139,38.0,0,59,15.0,0.0
7140,62.0,0,59,13.0,0.0
7141,62.0,0,59,12.0,0.0
7142,62.0,30,59,2.0,0.0
7143,50.0,30,29,7.0,0.0
7144,74.0,0,59,5.0,0.0
7145,26.0,0,59,3.0,0.0
7146,50.0,0,29,7.0,0.0
7147,65.0,30,59,4.0,0.0
7148,50.0,0,59,15.0,0.0
7149,62.0,0,59,2.0,0.0
7150,50.0,0,59,14.0,0.0
7151,26.0,0,59,3.0,0.0
7152,74.0,0,59,5.0,0.0
7153,62.0,0,59,1.0,0.0
7154,38.0,0,59,15.0,0.0
7155,50.0,0,59,3.0,0.0
7156,74.0,0,59,0.0,0.0
7157,50.0,30,29,7.0,0.0
7158,38.0,0,59,3.0,0.0
7159,62.0,0,59,5.0,0.0
7160,62.0,0,59,12.0,0.0
7161,50.0,0,59,4.0,0.0
7162,62.0,0,59,4.0,0.0
7163,62.0,0,59,13.0,0.0
7164,50.0,0,29,7.0,0.0
7165,50.0,0,59,14.0,0.0
7166,50.0,0,59,3.0,0.0
7167,50.0,0,59,4.0,0.0
7168,62.0,0,59,14.0,0.0
7169,62.0,0,59,4.0,0.0
7170,77.0,0,59,2.0,0.0
7171,65.0,0,59,2.0,0.0
7172,53.0,0,59,3.0,0.0
7173,77.0,0,59,12.0,0.0
7174,62.0,0,59,15.0,0.0
7175,74.0,0,59,5.0,0.0
7176,69.0,0,59,13.0,0.0
7177,77.0,0,59,1.0,0.0
7178,50.0,30,29,7.0,0.0
7179,65.0,0,59,1.0,0.0
7180,89.0,0,59,0.0,0.0
7181,38.0,0,59,3.0,0.0
7182,86.0,0,59,0.0,0.0
7183,50.0,0,59,15.0,0.0
7184,62.0,0,59,5.0,0.0
7185,50.0,0,29,7.0,0.0
7186,65.0,0,59,1.0,0.0
7187,77.0,0,59,1.0,0.0
7188,65.0,0,59,2.0,0.0
7189,77.0,0,59,2.0,0.0
7190,89.0,0,59,0.0,0.0
7191,86.0,0,59,0.0,0.0
7192,77.0,0,59,12.0,0.0
7193,69.0,0,59,13.0,0.0
7194,50.0,0,59,15.0,0.0
7195,62.0,0,59,4.0,0.0
7196,38.0,0,59,3.0,0.0
7197,50.0,0,59,14.0,0.0
7198,62.0,0,59,14.0,0.0
7199,62.0,0,59,15.0,0.0
7200,62.0,0,59,5.0,0.0
7201,50.0,0,59,3.0,0.0
7202,53.0,0,59,3.0,0.0
7203,50.0,0,59,4.0,0.0
7204,50.0,30,29,7.0,0.0
7205,74.0,0,59,5.0,0.0
7206,50.0,0,29,7.0,0.0
7207,78.0,0,59,1.0,0.0
7208,78.0,0,59,2.0,0.0
7209,60.0,0,59,15.0,0.0
7210,36.0,0,59,3.0,0.0
7211,48.0,0,59,3.0,0.0
7212,66.0,0,59,2.0,0.0
7213,48.0,0,59,14.0,0.0
7214,54.0,0,59,3.0,0.0
7215,50.0,0,59,4.0,0.0
7216,48.0,0,59,15.0,0.0
7217,50.0,30,29,7.0,0.0
7218,90.0,0,59,0.0,0.0
7219,86.0,0,59,0.0,0.0
7220,81.0,0,59,13.0,0.0
7221,78.0,0,59,12.0,0.0
7222,62.0,30,59,5.0,0.0
7223,62.0,0,59,4.0,0.0
7224,66.0,0,59,1.0,0.0
7225,74.0,0,59,5.0,0.0
7226,50.0,0,29,7.0,0.0
7227,50.0,30,29,7.0,0.0
7228,74.0,0,59,5.0,0.0
7229,48.0,0,59,15.0,0.0
7230,48.0,0,59,3.0,0.0
7231,90.0,0,59,0.0,0.0
7232,78.0,0,59,2.0,0.0
7233,78.0,0,59,12.0,0.0
7234,86.0,0,59,0.0,0.0
7235,54.0,0,59,3.0,0.0
7236,66.0,0,59,2.0,0.0
7237,62.0,0,59,5.0,0.0
7238,66.0,0,59,1.0,0.0
7239,60.0,0,59,15.0,0.0
7240,78.0,0,59,1.0,0.0
7241,48.0,0,59,14.0,0.0
7242,62.0,0,59,4.0,0.0
7243,50.0,0,59,4.0,0.0
7244,36.0,0,59,3.0,0.0
7245,81.0,0,59,13.0,0.0
7246,50.0,0,29,7.0,0.0
7247,67.0,0,59,2.0,0.0
7248,62.0,0,59,5.0,0.0
7249,35.0,0,59,3.0,0.0
7250,47.0,0,59,15.0,0.0
7251,74.0,0,59,13.0,0.0
7252,59.0,0,59,15.0,0.0
7253,86.0,0,59,0.0,0.0
7254,67.0,30,59,1.0,0.0
7255,79.0,0,59,1.0,0.0
7256,91.0,0,59,0.0,0.0
7257,74.0,0,59,5.0,0.0
7258,79.0,0,59,2.0,0.0
7259,59.0,0,59,14.0,0.0
7260,79.0,0,59,12.0,0.0
7261,50.0,30,29,7.0,0.0
7262,62.0,0,59,4.0,0.0
7263,47.0,0,59,3.0,0.0
7264,55.0,0,59,3.0,0.0
7265,50.0,0,59,4.0,0.0
7266,50.0,0,29,7.0,0.0
7267,47.0,0,59,15.0,0.0
7268,86.0,0,59,0.0,0.0
7269,91.0,0,59,0.0,0.0
7270,62.0,0,59,4.0,0.0
7271,74.0,0,59,5.0,0.0
7272,62.0,0,59,5.0,0.0
7273,59.0,30,59,14.0,0.0
7274,50.0,0,59,4.0,0.0
7275,47.0,0,59,3.0,0.0
7276,79.0,0,59,1.0,0.0
7277,67.0,0,59,1.0,0.0
7278,79.0,0,59,12.0,0.0
7279,50.0,30,29,7.0,0.0
7280,67.0,0,59,2.0,0.0
7281,59.0,0,59,3.0,0.0
7282,59.0,0,59,15.0,0.0
7283,35.0,0,59,3.0,0.0
7284,74.0,0,59,13.0,0.0
7285,79.0,0,59,2.0,0.0
7286,50.0,0,29,7.0,0.0
7287,50.0,30,29,7.0,0.0
7288,68.0,0,59,1.0,0.0
7289,80.0,0,59,1.0,0.0
7290,80.0,0,59,12.0,0.0
7291,74.0,0,59,13.0,0.0
7292,92.0,0,59,0.0,0.0
7293,62.0,0,59,5.0,0.0
7294,74.0,0,59,5.0,0.0
7295,58.0,0,59,14.0,0.0
7296,58.0,0,59,15.0,0.0
7297,62.0,0,59,14.0,0.0
7298,34.0,0,59,3.0,0.0
7299,46.0,0,59,3.0,0.0
7300,58.0,0,59,3.0,0.0
7301,46.0,0,59,15.0,0.0
7302,62.0,0,59,4.0,0.0
7303,50.0,0,59,4.0,0.0
7304,80.0,0,59,2.0,0.0
7305,68.0,0,59,2.0,0.0
7306,86.0,0,59,0.0,0.0
7307,50.0,0,29,7.0,0.0
7308,92.0,0,59,0.0,0.0
7309,58.0,0,59,3.0,0.0
7310,58.0,0,59,15.0,0.0
7311,86.0,0,59,0.0,0.0
7312,46.0,0,59,3.0,0.0
7313,74.0,30,59,13.0,0.0
7314,50.0,30,29,7.0,0.0
7315,68.0,0,59,2.0,0.0
7316,80.0,0,59,2.0,0.0
7317,80.0,0,59,1.0,0.0
7318,74.0,0,59,5.0,0.0
7319,62.0,0,59,5.0,0.0
7320,62.0,0,59,4.0,0.0
7321,65.0,0,59,14.0,0.0
7322,50.0,0,59,4.0,0.0
7323,34.0,0,59,3.0,0.0
7324,46.0,0,59,15.0,0.0
7325,80.0,0,59,12.0,0.0
7326,68.0,0,59,1.0,0.0
7327,50.0,0,29,7.0,0.0
7328,62.0,0,59,3.0,0.0
7329,34.0,0,59,3.0,0.0
7330,62.0,0,59,5.0,0.0
7331,34.0,0,59,15.0,0.0
7332,74.0,0,59,5.0,0.0
7333,86.0,0,59,0.0,0.0
7334,74.0,0,59,2.0,0.0
7335,65.0,0,59,14.0,0.0
7336,46.0,0,59,15.0,0.0
7337,62.0,0,59,4.0,0.0
7338,80.0,0,59,1.0,0.0
7339,74.0,0,59,12.0,0.0
7340,56.0,0,59,13.0,0.0
7341,50.0,0,59,4.0,0.0
7342,62.0,30,59,2.0,0.0
7343,50.0,30,29,7.0,0.0
7344,50.0,0,29,7.0,0.0
7345,74.0,0,59,1.0,0.0
7346,56.0,0,59,13.0,0.0
7347,80.0,0,59,1.0,0.0
7348,74.0,0,59,12.0,0.0
7349,50.0,30,29,7.0,0.0
7350,50.0,0,59,4.0,0.0
7351,65.0,0,59,14.0,0.0
7352,62.0,0,59,3.0,0.0
7353,86.0,0,59,0.0,0.0
7354,46.0,0,59,15.0,0.0
7355,62.0,0,59,4.0,0.0
7356,74.0,0,59,2.0,0.0
7357,62.0,0,59,2.0,0.0
7358,34.0,0,59,15.0,0.0
7359,62.0,0,59,5.0,0.0
7360,74.0,0,59,5.0,0.0
7361,34.0,0,59,3.0,0.0
7362,50.0,0,29,7.0,0.0
7363,46.0,0,59,15.0,0.0
7364,89.0,0,59,0.0,0.0
7365,77.0,0,59,1.0,0.0
7366,74.0,0,59,1.0,0.0
7367,50.0,0,59,4.0,0.0
7368,65.0,0,59,3.0,0.0
7369,77.0,0,59,12.0,0.0
7370,74.0,0,59,13.0,0.0
7371,65.0,0,59,13.0,0.0
7372,74.0,0,59,5.0,0.0
7373,62.0,0,59,5.0,0.0
7374,62.0,0,59,14.0,0.0
7375,65.0,0,59,2.0,0.0
7376,77.0,0,59,2.0,0.0
7377,34.0,0,59,15.0,0.0
7378,34.0,0,59,3.0,0.0
7379,86.0,0,59,0.0,0.0
7380,50.0,30,29,7.0,0.0
7381,62.0,0,59,4.0,0.0
7382,50.0,0,29,7.0,0.0
7383,46.0,0,59,3.0,0.0
7384,62.0,0,59,5.0,0.0
7385,74.0,0,59,5.0,0.0
7386,74.0,0,59,1.0,0.0
7387,77.0,0,59,1.0,0.0
7388,65.0,0,59,13.0,0.0
7389,74.0,0,59,13.0,0.0
7390,58.0,120,59,14.0,0.0
7391,77.0,0,59,2.0,0.0
7392,74.0,0,59,2.0,0.0
7393,34.0,0,59,15.0,0.0
7394,34.0,0,59,3.0,0.0
7395,50.0,0,59,7.0,0.0
7396,89.0,0,59,0.0,0.0
7397,77.0,0,59,12.0,0.0
7398,86.0,0,59,0.0,0.0
7399,50.0,0,59,4.0,0.0
7400,62.0,0,59,4.0,0.0
7401,53.0,0,59,3.0,0.0
7402,46.0,0,59,15.0,0.0
7403,57.0,0,59,14.0,0.0
7404,57.0,0,59,5.0,0.0
7405,57.0,0,59,4.0,0.0
7406,69.0,0,59,4.0,0.0
7407,33.0,510,59,15.0,0.0
7408,69.0,0,59,5.0,0.0
7409,69.0,0,59,2.0,0.0
7410,69.0,0,59,13.0,0.0
7411,69.0,0,59,12.0,0.0
7412,69.0,0,59,1.0,0.0
7413,81.0,0,59,1.0,0.0
7414,81.0,0,59,0.0,0.0
7415,93.0,0,59,0.0,0.0
7416,45.0,0,59,15.0,0.0
7417,45.0,0,59,3.0,0.0
7418,57.0,0,59,3.0,0.0
7419,33.0,0,59,3.0,0.0
7420,45.0,0,59,7.0,0.0
7421,81.0,0,59,13.0,0.0
7422,81.0,0,59,12.0,0.0
7423,81.0,0,59,2.0,0.0
7424,57.0,30,89,6.0,0.0
7425,57.0,480,29,6.0,0.0
7426,64.0,60,479,6.0,0.0
7427,62.0,60,59,6.0,0.0
7428,61.0,60,59,6.0,0.0
7429,62.0,180,59,6.0,0.0
7430,64.0,120,179,6.0,0.0
7431,55.0,120,119,6.0,0.0
7432,55.0,240,59,6.0,0.0
7433,58.0,60,239,6.0,0.0
7434,57.0,60,59,6.0,0.0
7435,52.0,120,59,6.0,0.0
7436,53.0,120,119,6.0,0.0
7437,57.0,0,359,13.0,0.0
7438,50.0,0,119,15.0,0.0
7439,65.0,240,119,12.0,0.0
7440,62.0,0,119,15.0,0.0
7441,62.0,0,119,14.0,0.0
7442,53.0,0,119,6.0,0.0
7443,60.0,120,239,15.0,0.0
7444,48.0,0,239,15.0,0.0
7445,63.0,0,239,14.0,0.0
7446,66.0,0,239,12.0,0.0
7447,62.0,0,119,14.0,0.0
7448,47.0,0,119,15.0,0.0
7449,67.0,0,119,12.0,0.0
7450,59.0,0,119,13.0,0.0
7451,59.0,240,119,15.0,0.0
7452,59.0,0,2279,14.0,0.0
7453,62.0,0,2279,14.0,0.0
7454,41.0,0,239,15.0,0.0
7455,68.0,0,239,12.0,0.0
7456,53.0,480,239,15.0,0.0
7457,68.0,0,2279,13.0,0.0
7458,71.0,0,2159,13.0,0.0
7459,52.0,0,2039,15.0,0.0
7460,74.0,0,2039,12.0,0.0
7461,40.0,0,2039,15.0,0.0
7462,56.0,120,239,6.0,0.0
7463,56.0,300,119,6.0,0.0
7464,62.0,60,179,6.0,0.0
7465,59.0,120,59,6.0,0.0
7466,59.0,60,119,6.0,0.0
7467,56.0,60,59,6.0,0.0
7468,57.0,60,59,6.0,0.0
7469,59.0,60,59,6.0,0.0
7470,61.0,60,59,6.0,0.0
7471,64.0,60,59,6.0,0.0
7472,62.0,60,59,6.0,0.0
7473,61.0,60,59,6.0,0.0
7474,62.0,60,59,6.0,0.0
7475,59.0,60,59,6.0,0.0
7476,56.0,60,59,6.0,0.0
7477,52.0,60,59,6.0,0.0
7478,50.0,120,59,6.0,0.0
7479,50.0,60,119,6.0,0.0
7480,54.0,60,59,6.0,0.0
7481,52.0,120,59,6.0,0.0
7482,50.0,120,119,6.0,0.0
7483,49.0,60,119,6.0,0.0
7484,40.0,0,59,15.0,0.0
7485,76.0,0,59,1.0,0.0
7486,64.0,0,59,14.0,0.0
7487,52.0,0,59,15.0,0.0
7488,85.0,0,59,0.0,0.0
7489,88.0,0,59,0.0,0.0
7490,85.0,0,59,1.0,0.0
7491,69.0,0,59,14.0,0.0
7492,76.0,0,59,13.0,0.0
7493,69.0,0,59,2.0,0.0
7494,57.0,0,59,5.0,0.0
7495,45.0,0,59,7.0,0.0
7496,73.0,0,59,12.0,0.0
7497,76.0,120,59,12.0,0.0
7498,57.0,0,59,4.0,0.0
7499,64.0,0,59,4.0,0.0
7500,73.0,0,59,13.0,0.0
7501,31.0,0,59,3.0,0.0
7502,73.0,0,59,2.0,0.0
7503,64.0,0,59,3.0,0.0
7504,61.0,0,59,3.0,0.0
7505,69.0,0,59,5.0,0.0
7506,74.0,0,59,1.0,0.0
7507,50.0,0,59,7.0,0.0
7508,62.0,0,59,5.0,0.0
7509,42.0,0,59,15.0,0.0
7510,74.0,0,59,5.0,0.0
7511,81.0,0,59,12.0,0.0
7512,69.0,0,59,12.0,0.0
7513,30.0,0,59,3.0,0.0
7514,42.0,0,59,3.0,0.0
7515,54.0,0,59,3.0,0.0
7516,69.0,60,59,13.0,0.0
7517,81.0,0,59,13.0,0.0
7518,69.0,0,59,2.0,0.0
7519,57.0,0,59,4.0,0.0
7520,69.0,0,59,14.0,0.0
7521,74.0,0,59,2.0,0.0
7522,69.0,0,59,4.0,0.0
7523,81.0,0,59,1.0,0.0
7524,86.0,0,59,0.0,0.0
7525,93.0,0,59,0.0,0.0
7526,54.0,0,59,15.0,0.0
7527,66.0,0,59,14.0,0.0
7528,69.0,0,59,4.0,0.0
7529,74.0,0,59,2.0,0.0
7530,66.0,0,59,14.0,0.0
7531,57.0,0,59,4.0,0.0
7532,81.0,0,59,12.0,0.0
7533,74.0,0,59,1.0,0.0
7534,30.0,0,59,3.0,0.0
7535,93.0,0,59,0.0,0.0
7536,86.0,0,59,0.0,0.0
7537,69.0,0,59,12.0,0.0
7538,81.0,0,59,1.0,0.0
7539,69.0,0,59,14.0,0.0
7540,78.0,0,59,2.0,0.0
7541,50.0,120,59,7.0,0.0
7542,69.0,0,59,13.0,0.0
7543,81.0,0,59,13.0,0.0
7544,42.0,0,59,15.0,0.0
7545,62.0,0,59,5.0,0.0
7546,54.0,0,59,15.0,0.0
7547,74.0,0,59,5.0,0.0
7548,54.0,0,59,3.0,0.0
7549,42.0,0,59,3.0,0.0
7550,69.0,0,119,13.0,0.0
7551,66.0,0,119,14.0,0.0
7552,69.0,0,119,14.0,0.0
7553,81.0,0,119,0.0,0.0
7554,81.0,0,119,1.0,0.0
7555,69.0,0,119,4.0,0.0
7556,66.0,0,119,15.0,0.0
7557,66.0,0,119,4.0,0.0
7558,54.0,0,119,15.0,0.0
7559,86.0,0,119,13.0,0.0
7560,62.0,0,119,5.0,0.0
7561,86.0,0,119,1.0,0.0
7562,74.0,0,119,5.0,0.0
7563,86.0,0,119,0.0,0.0
7564,42.0,0,119,3.0,0.0
7565,50.0,0,119,7.0,0.0
7566,54.0,0,119,3.0,0.0
7567,69.0,0,119,12.0,0.0
7568,86.0,0,119,12.0,0.0
7569,66.0,0,119,3.0,0.0
7570,74.0,0,119,2.0,0.0
7571,81.0,120,119,2.0,0.0
7572,57.0,180,119,6.0,0.0
7573,62.0,60,179,6.0,0.0
7574,64.0,60,59,6.0,0.0
7575,66.0,60,59,6.0,0.0
7576,64.0,60,59,6.0,0.0
7577,64.0,60,59,6.0,0.0
7578,62.0,60,59,6.0,0.0
7579,62.0,60,59,6.0,0.0
7580,61.0,60,59,6.0,0.0
7581,62.0,60,59,6.0,0.0
7582,57.0,60,59,6.0,0.0
7583,55.0,60,59,6.0,0.0
7584,54.0,60,59,6.0,0.0
7585,54.0,60,59,6.0,0.0
7586,52.0,60,59,6.0,0.0
7587,50.0,60,59,6.0,0.0
7588,48.0,60,59,6.0,0.0
7589,48.0,60,59,6.0,0.0
7590,47.0,60,59,6.0,0.0
7591,71.0,0,59,12.0,0.0
7592,74.0,0,59,5.0,0.0
7593,67.0,0,59,4.0,0.0
7594,43.0,0,59,15.0,0.0
7595,62.0,0,59,5.0,0.0
7596,55.0,0,59,14.0,0.0
7597,62.0,0,59,12.0,0.0
7598,86.0,0,59,0.0,0.0
7599,55.0,0,59,15.0,0.0
7600,83.0,0,59,0.0,0.0
7601,71.0,120,59,13.0,0.0
7602,67.0,0,59,13.0,0.0
7603,71.0,0,59,1.0,0.0
7604,79.0,0,59,1.0,0.0
7605,71.0,0,59,2.0,0.0
7606,55.0,60,419,6.0,0.0
7607,31.0,0,59,3.0,0.0
7608,55.0,0,59,3.0,0.0
7609,50.0,0,59,7.0,0.0
7610,67.0,0,59,2.0,0.0
7611,67.0,0,59,4.0,0.0
7612,79.0,0,59,1.0,0.0
7613,83.0,240,59,1.0,0.0
7614,43.0,0,59,3.0,0.0
7615,74.0,0,59,2.0,0.0
7616,62.0,0,59,5.0,0.0
7617,74.0,0,59,5.0,0.0
7618,91.0,0,59,0.0,0.0
7619,83.0,0,59,0.0,0.0
7620,67.0,0,59,14.0,0.0
7621,71.0,0,59,2.0,0.0
7622,67.0,0,59,3.0,0.0
7623,71.0,0,59,12.0,0.0
7624,83.0,0,59,12.0,0.0
7625,55.0,0,59,15.0,0.0
7626,71.0,0,59,13.0,0.0
7627,50.0,0,59,7.0,0.0
7628,67.0,0,59,15.0,0.0
7629,83.0,0,59,13.0,0.0
7630,52.0,60,59,6.0,0.0
7631,49.0,60,59,6.0,0.0
7632,50.0,60,59,6.0,0.0
7633,50.0,60,59,6.0,0.0
7634,45.0,120,59,6.0,0.0
7635,45.0,60,119,6.0,0.0
7636,64.0,0,59,2.0,0.0
7637,73.0,0,59,2.0,0.0
7638,61.0,0,59,14.0,0.0
7639,64.0,0,59,14.0,0.0
7640,85.0,0,59,12.0,0.0
7641,69.0,180,59,14.0,0.0
7642,69.0,0,59,12.0,0.0
7643,45.0,0,59,7.0,0.0
7644,57.0,0,59,5.0,0.0
7645,73.0,0,59,13.0,0.0
7646,81.0,0,59,13.0,0.0
7647,57.0,0,59,15.0,0.0
7648,64.0,0,59,13.0,0.0
7649,85.0,0,59,0.0,0.0
7650,76.0,0,59,1.0,0.0
7651,85.0,0,59,1.0,0.0
7652,33.0,0,59,3.0,0.0
7653,52.0,0,59,3.0,0.0
7654,64.0,0,59,4.0,0.0
7655,57.0,0,59,4.0,0.0
7656,61.0,0,59,3.0,0.0
7657,45.0,0,59,15.0,0.0
7658,69.0,0,59,5.0,0.0
7659,61.0,0,119,3.0,0.0
7660,57.0,60,1919,4.0,0.0
7661,45.0,0,1919,4.0,0.0
7662,52.0,0,119,3.0,0.0
7663,73.0,0,119,1.0,0.0
7664,64.0,120,119,2.0,0.0
7665,61.0,0,119,3.0,0.0
7666,73.0,0,119,1.0,0.0
7667,52.0,0,119,3.0,0.0
7668,64.0,120,119,2.0,0.0
7669,62.0,0,119,3.0,0.0
7670,54.0,0,119,3.0,0.0
7671,66.0,120,119,2.0,0.0
7672,74.0,0,119,1.0,0.0
7673,55.0,0,119,3.0,0.0
7674,76.0,0,119,1.0,0.0
7675,67.0,0,119,2.0,0.0
7676,64.0,120,119,3.0,0.0
7677,64.0,0,119,6.0,0.0
7678,55.0,0,119,3.0,0.0
7679,67.0,0,119,2.0,0.0
7680,64.0,0,119,3.0,0.0
7681,76.0,120,119,1.0,0.0
7682,62.0,0,119,6.0,0.0
7683,66.0,0,119,2.0,0.0
7684,54.0,0,119,3.0,0.0
7685,62.0,0,119,3.0,0.0
7686,74.0,120,119,1.0,0.0
7687,52.0,0,119,3.0,0.0
7688,61.0,0,119,3.0,0.0
7689,57.0,0,119,12.0,0.0
7690,73.0,0,119,1.0,0.0
7691,57.0,0,119,11.0,0.0
7692,57.0,120,119,14.0,0.0
7693,64.0,0,119,2.0,0.0
7694,57.0,0,119,13.0,0.0
7695,33.0,0,119,15.0,0.0
7696,45.0,0,119,15.0,0.0
7697,62.0,0,119,2.0,0.0
7698,57.0,0,119,12.0,0.0
7699,59.0,120,119,3.0,0.0
7700,57.0,0,119,14.0,0.0
7701,71.0,0,119,1.0,0.0
7702,57.0,0,119,13.0,0.0
7703,45.0,0,119,15.0,0.0
7704,57.0,0,119,11.0,0.0
7705,33.0,0,119,15.0,0.0
7706,50.0,0,119,3.0,0.0
7707,76.0,0,119,1.0,0.0
7708,73.0,0,119,2.0,0.0
7709,64.0,120,119,3.0,0.0
7710,61.0,0,119,3.0,0.0
7711,73.0,0,119,2.0,0.0
7712,64.0,0,119,3.0,0.0
7713,61.0,0,119,3.0,0.0
7714,76.0,120,119,1.0,0.0
7715,62.0,0,119,3.0,0.0
7716,74.0,120,119,2.0,0.0
7717,78.0,0,119,1.0,0.0
7718,66.0,0,119,3.0,0.0
7719,67.0,120,119,3.0,0.0
7720,79.0,0,119,1.0,0.0
7721,64.0,0,119,3.0,0.0
7722,76.0,0,119,2.0,0.0
7723,64.0,0,119,6.0,0.0
7724,67.0,120,119,3.0,0.0
7725,64.0,0,119,3.0,0.0
7726,79.0,0,119,1.0,0.0
7727,76.0,0,119,2.0,0.0
7728,62.0,0,119,3.0,0.0
7729,66.0,0,119,3.0,0.0
7730,78.0,120,119,1.0,0.0
7731,74.0,0,119,2.0,0.0
7732,62.0,0,239,6.0,0.0
7733,57.0,0,119,11.0,0.0
7734,64.0,0,119,3.0,0.0
7735,55.0,0,119,3.0,0.0
7736,67.0,0,119,2.0,0.0
7737,57.0,0,119,12.0,0.0
7738,33.0,0,119,15.0,0.0
7739,57.0,60,119,13.0,0.0
7740,76.0,0,119,1.0,0.0
7741,57.0,0,119,14.0,0.0
7742,45.0,0,119,15.0,0.0
7743,57.0,0,119,13.0,0.0
7744,66.0,0,119,2.0,0.0
7745,74.0,0,119,1.0,0.0
7746,57.0,0,119,12.0,0.0
7747,33.0,0,119,15.0,0.0
7748,57.0,45,59,6.0,0.0
7749,62.0,0,119,3.0,0.0
7750,45.0,0,119,15.0,0.0
7751,57.0,0,119,11.0,0.0
7752,57.0,0,119,14.0,0.0
7753,54.0,0,119,3.0,0.0
7754,55.0,15,44,6.0,0.0
7755,74.0,60,59,1.0,0.0
7756,57.0,0,119,4.0,0.0
7757,69.0,0,119,12.0,0.0
7758,54.0,0,119,15.0,0.0
7759,54.0,0,119,14.0,0.0
7760,57.0,0,119,13.0,0.0
7761,42.0,90,119,15.0,0.0
7762,54.0,0,119,6.0,0.0
7763,50.0,0,119,4.0,0.0
7764,54.0,0,119,15.0,0.0
7765,57.0,60,119,13.0,0.0
7766,54.0,15,104,6.0,0.0
7767,69.0,0,119,12.0,0.0
7768,54.0,0,119,14.0,0.0
7769,42.0,0,119,15.0,0.0
7770,74.0,15,29,1.0,0.0
7771,69.0,0,119,12.0,0.0
7772,55.0,0,119,15.0,0.0
7773,55.0,0,119,14.0,0.0
7774,57.0,90,119,13.0,0.0
7775,69.0,0,599,2.0,0.0
7776,55.0,0,119,6.0,0.0
7777,69.0,60,59,1.0,0.0
7778,43.0,0,119,15.0,0.0
7779,57.0,0,119,13.0,0.0
7780,57.0,0,119,15.0,0.0
7781,69.0,0,119,12.0,0.0
7782,57.0,0,119,6.0,0.0
7783,45.0,0,119,15.0,0.0
7784,57.0,60,119,14.0,0.0
7785,69.0,30,29,1.0,0.0
7786,57.0,0,119,15.0,0.0
7787,57.0,0,119,6.0,0.0
7788,45.0,0,119,15.0,0.0
7789,57.0,0,119,13.0,0.0
7790,69.0,0,119,12.0,0.0
7791,57.0,90,119,14.0,0.0
7792,71.0,60,59,1.0,0.0
7793,57.0,0,119,13.0,0.0
7794,69.0,60,119,12.0,0.0
7795,55.0,0,119,6.0,0.0
7796,43.0,0,119,15.0,0.0
7797,55.0,0,119,14.0,0.0
7798,55.0,0,119,15.0,0.0
7799,71.0,30,29,1.0,0.0
7800,73.0,60,59,1.0,0.0
7801,69.0,0,119,12.0,0.0
7802,57.0,0,119,13.0,0.0
7803,54.0,0,119,6.0,0.0
7804,54.0,0,119,15.0,0.0
7805,54.0,90,119,14.0,0.0
7806,42.0,0,119,15.0,0.0
7807,52.0,120,119,15.0,0.0
7808,57.0,0,119,13.0,0.0
7809,67.0,0,119,2.0,0.0
7810,52.0,0,119,14.0,0.0
7811,69.0,0,119,12.0,0.0
7812,40.0,0,119,15.0,0.0
7813,52.0,15,104,6.0,0.0
7814,73.0,15,29,1.0,0.0
7815,50.0,0,119,15.0,0.0
7816,50.0,0,119,14.0,0.0
7817,69.0,0,119,12.0,0.0
7818,74.0,0,119,1.0,0.0
7819,50.0,0,119,6.0,0.0
7820,66.0,0,119,2.0,0.0
7821,38.0,120,119,15.0,0.0
7822,57.0,0,119,13.0,0.0
7823,69.0,0,119,12.0,0.0
7824,57.0,0,119,13.0,0.0
7825,38.0,0,119,15.0,0.0
7826,50.0,0,119,14.0,0.0
7827,50.0,0,119,15.0,0.0
7828,66.0,0,119,2.0,0.0
7829,50.0,0,119,6.0,0.0
7830,74.0,120,59,1.0,0.0
7831,52.0,0,119,14.0,0.0
7832,57.0,0,119,13.0,0.0
7833,52.0,0,119,15.0,0.0
7834,74.0,0,119,1.0,0.0
7835,67.0,0,119,2.0,0.0
7836,69.0,120,119,12.0,0.0
7837,52.0,0,119,6.0,0.0
7838,40.0,0,119,15.0,0.0
7839,69.0,0,119,2.0,0.0
7840,54.0,120,119,14.0,0.0
7841,69.0,0,119,12.0,0.0
7842,42.0,0,119,15.0,0.0
7843,54.0,0,119,6.0,0.0
7844,57.0,0,119,13.0,0.0
7845,54.0,0,119,15.0,0.0
7846,74.0,0,59,1.0,0.0
7847,42.0,0,119,15.0,0.0
7848,69.0,0,119,12.0,0.0
7849,54.0,60,119,15.0,0.0
7850,69.0,0,179,2.0,0.0
7851,57.0,0,119,13.0,0.0
7852,74.0,0,119,1.0,0.0
7853,54.0,60,179,6.0,0.0
7854,54.0,0,119,14.0,0.0
7855,52.0,0,59,6.0,0.0
7856,67.0,120,59,2.0,0.0
7857,74.0,0,59,1.0,0.0
7858,52.0,0,119,15.0,0.0
7859,73.0,0,119,1.0,0.0
7860,67.0,0,119,2.0,0.0
7861,40.0,60,119,15.0,0.0
7862,69.0,0,119,12.0,0.0
7863,57.0,0,119,13.0,0.0
7864,52.0,15,224,6.0,0.0
7865,52.0,0,119,14.0,0.0
7866,79.0,45,59,2.0,0.0
7867,73.0,120,59,2.0,0.0
7868,54.0,0,119,15.0,0.0
7869,54.0,0,119,14.0,0.0
7870,42.0,0,119,15.0,0.0
7871,69.0,0,119,12.0,0.0
7872,57.0,120,119,13.0,0.0
7873,54.0,0,119,6.0,0.0
7874,74.0,0,119,2.0,0.0
7875,62.0,0,119,13.0,0.0
7876,57.0,120,119,13.0,0.0
7877,69.0,0,119,12.0,0.0
7878,62.0,0,119,12.0,0.0
7879,54.0,0,119,6.0,0.0
7880,54.0,0,119,14.0,0.0
7881,54.0,0,119,15.0,0.0
7882,42.0,0,119,15.0,0.0
7883,74.0,0,59,2.0,0.0
7884,64.0,0,119,12.0,0.0
7885,55.0,120,119,14.0,0.0
7886,69.0,0,119,2.0,0.0
7887,43.0,0,119,15.0,0.0
7888,64.0,0,119,13.0,0.0
7889,69.0,0,119,12.0,0.0
7890,55.0,0,119,15.0,0.0
7891,57.0,0,119,13.0,0.0
7892,55.0,0,119,6.0,0.0
7893,81.0,0,599,1.0,0.0
7894,66.0,0,119,12.0,0.0
7895,69.0,0,119,12.0,0.0
7896,45.0,120,119,15.0,0.0
7897,57.0,0,119,15.0,0.0
7898,57.0,0,119,6.0,0.0
7899,57.0,0,119,13.0,0.0
7900,66.0,0,119,13.0,0.0
7901,57.0,0,119,14.0,0.0
7902,69.0,0,59,2.0,0.0
7903,66.0,0,119,13.0,0.0
7904,57.0,0,119,13.0,0.0
7905,71.0,120,119,2.0,0.0
7906,57.0,0,119,14.0,0.0
7907,57.0,0,119,6.0,0.0
7908,57.0,0,119,15.0,0.0
7909,69.0,0,119,12.0,0.0
7910,45.0,0,119,15.0,0.0
7911,66.0,0,119,12.0,0.0
7912,55.0,0,119,6.0,0.0
7913,43.0,0,119,15.0,0.0
7914,55.0,120,119,15.0,0.0
7915,57.0,0,119,13.0,0.0
7916,55.0,0,119,14.0,0.0
7917,64.0,0,119,12.0,0.0
7918,64.0,0,119,13.0,0.0
7919,69.0,0,119,12.0,0.0
7920,71.0,0,59,2.0,0.0
7921,54.0,0,119,6.0,0.0
7922,69.0,0,119,12.0,0.0
7923,62.0,0,119,12.0,0.0
7924,71.0,0,119,2.0,0.0
7925,42.0,0,119,15.0,0.0
7926,57.0,105,119,13.0,0.0
7927,62.0,0,119,13.0,0.0
7928,54.0,0,119,14.0,0.0
7929,54.0,0,119,15.0,0.0
7930,79.0,0,119,1.0,0.0
7931,52.0,0,119,15.0,0.0
7932,52.0,15,104,6.0,0.0
7933,40.0,0,119,15.0,0.0
7934,52.0,0,119,14.0,0.0
7935,67.0,0,119,12.0,0.0
7936,57.0,120,119,13.0,0.0
7937,69.0,0,119,12.0,0.0
7938,67.0,0,119,13.0,0.0
7939,73.0,0,59,2.0,0.0
7940,78.0,120,239,1.0,0.0
7941,50.0,0,119,14.0,0.0
7942,66.0,0,119,12.0,0.0
7943,69.0,120,119,12.0,0.0
7944,66.0,0,119,13.0,0.0
7945,57.0,0,119,13.0,0.0
7946,74.0,0,119,2.0,0.0
7947,50.0,0,119,15.0,0.0
7948,38.0,0,119,15.0,0.0
7949,50.0,0,119,6.0,0.0
7950,66.0,0,119,12.0,0.0
7951,50.0,0,119,14.0,0.0
7952,50.0,0,119,6.0,0.0
7953,38.0,0,119,15.0,0.0
7954,57.0,0,119,13.0,0.0
7955,69.0,0,119,12.0,0.0
7956,50.0,0,119,15.0,0.0
7957,66.0,0,59,2.0,0.0
7958,67.0,0,119,12.0,0.0
7959,69.0,0,119,12.0,0.0
7960,76.0,0,119,1.0,0.0
7961,52.0,0,119,15.0,0.0
7962,40.0,0,119,15.0,0.0
7963,52.0,120,119,14.0,0.0
7964,67.0,0,119,2.0,0.0
7965,57.0,0,119,13.0,0.0
7966,52.0,0,119,6.0,0.0
7967,54.0,0,119,15.0,0.0
7968,42.0,0,119,15.0,0.0
7969,57.0,0,119,13.0,0.0
7970,54.0,0,119,6.0,0.0
7971,69.0,0,119,12.0,0.0
7972,54.0,0,119,14.0,0.0
7973,74.0,0,119,1.0,0.0
7974,69.0,120,59,2.0,0.0
7975,52.0,0,119,14.0,0.0
7976,40.0,0,119,15.0,0.0
7977,69.0,0,119,12.0,0.0
7978,67.0,0,119,12.0,0.0
7979,73.0,0,179,1.0,0.0
7980,57.0,60,119,13.0,0.0
7981,52.0,60,179,6.0,0.0
7982,52.0,0,119,15.0,0.0
7983,67.0,0,119,2.0,0.0
7984,66.0,0,59,2.0,0.0
7985,74.0,0,59,1.0,0.0
7986,50.0,60,59,6.0,0.0
7987,74.0,60,59,1.0,0.0
7988,66.0,0,119,12.0,0.0
7989,38.0,0,119,15.0,0.0
7990,69.0,0,119,12.0,0.0
7991,66.0,0,59,2.0,0.0
7992,50.0,15,224,6.0,0.0
7993,57.0,0,119,13.0,0.0
7994,50.0,0,119,14.0,0.0
7995,50.0,60,119,15.0,0.0
7996,66.0,0,59,2.0,0.0
7997,74.0,0,59,1.0,0.0
7998,76.0,45,59,1.0,0.0
7999,64.0,0,59,2.0,0.0
8000,78.0,0,59,1.0,0.0
8001,62.0,120,59,2.0,0.0
8002,79.0,120,119,1.0,0.0
8003,52.0,0,119,15.0,0.0
8004,52.0,0,119,6.0,0.0
8005,52.0,0,119,14.0,0.0
8006,61.0,0,119,2.0,0.0
8007,40.0,0,119,15.0,0.0
8008,52.0,0,119,14.0,0.0
8009,69.0,0,119,12.0,0.0
8010,52.0,0,119,6.0,0.0
8011,52.0,0,119,15.0,0.0
8012,57.0,0,119,13.0,0.0
8013,40.0,0,119,15.0,0.0
8014,73.0,120,119,1.0,0.0
8015,69.0,0,59,2.0,0.0
8016,54.0,0,119,6.0,0.0
8017,69.0,0,119,2.0,0.0
8018,54.0,120,119,14.0,0.0
8019,42.0,0,119,15.0,0.0
8020,54.0,0,119,15.0,0.0
8021,74.0,0,119,1.0,0.0
8022,50.0,0,119,14.0,0.0
8023,57.0,60,119,13.0,0.0
8024,50.0,0,119,6.0,0.0
8025,78.0,0,119,1.0,0.0
8026,50.0,0,119,15.0,0.0
8027,38.0,0,119,15.0,0.0
8028,69.0,0,119,12.0,0.0
8029,69.0,0,59,2.0,0.0
8030,52.0,0,119,14.0,0.0
8031,69.0,0,119,2.0,0.0
8032,52.0,0,119,15.0,0.0
8033,40.0,0,119,15.0,0.0
8034,52.0,60,119,6.0,0.0
8035,79.0,60,59,1.0,0.0
8036,73.0,0,59,1.0,0.0
8037,54.0,0,59,14.0,0.0
8038,54.0,0,59,6.0,0.0
8039,69.0,0,119,12.0,0.0
8040,74.0,60,59,1.0,0.0
8041,42.0,0,59,15.0,0.0
8042,54.0,0,59,15.0,0.0
8043,57.0,0,119,13.0,0.0
8044,55.0,0,59,14.0,0.0
8045,69.0,0,59,2.0,0.0
8046,43.0,120,59,15.0,0.0
8047,76.0,0,59,1.0,0.0
8048,55.0,0,59,15.0,0.0
8049,55.0,0,59,6.0,0.0
8050,54.0,0,119,6.0,0.0
8051,42.0,0,119,15.0,0.0
8052,69.0,0,119,2.0,0.0
8053,54.0,60,119,14.0,0.0
8054,54.0,0,119,15.0,0.0
8055,74.0,0,119,1.0,0.0
8056,76.0,45,59,1.0,0.0
8057,50.0,0,119,15.0,0.0
8058,38.0,0,119,15.0,0.0
8059,50.0,0,119,14.0,0.0
8060,50.0,15,104,6.0,0.0
8061,57.0,0,119,13.0,0.0
8062,69.0,0,119,12.0,0.0
8063,78.0,60,59,1.0,0.0
8064,69.0,0,59,2.0,0.0
8065,52.0,60,119,6.0,0.0
8066,40.0,0,119,15.0,0.0
8067,69.0,0,119,2.0,0.0
8068,79.0,60,59,1.0,0.0
8069,52.0,0,119,15.0,0.0
8070,52.0,0,119,14.0,0.0
8071,73.0,0,59,1.0,0.0
8072,42.0,0,59,15.0,0.0
8073,57.0,0,119,13.0,0.0
8074,69.0,0,119,12.0,0.0
8075,54.0,60,59,15.0,0.0
8076,54.0,0,59,6.0,0.0
8077,54.0,0,59,14.0,0.0
8078,74.0,0,59,1.0,0.0
8079,55.0,0,59,14.0,0.0
8080,69.0,120,59,2.0,0.0
8081,55.0,0,59,15.0,0.0
8082,55.0,0,59,6.0,0.0
8083,76.0,0,59,1.0,0.0
8084,43.0,0,59,15.0,0.0
8085,54.0,0,119,15.0,0.0
8086,54.0,120,119,6.0,0.0
8087,54.0,0,119,14.0,0.0
8088,42.0,0,119,15.0,0.0
8089,74.0,0,119,1.0,0.0
8090,69.0,0,119,2.0,0.0
8091,79.0,0,179,1.0,0.0
8092,57.0,0,119,13.0,0.0
8093,69.0,60,119,12.0,0.0
8094,52.0,0,119,15.0,0.0
8095,40.0,0,119,15.0,0.0
8096,52.0,0,119,14.0,0.0
8097,52.0,0,119,6.0,0.0
8098,67.0,60,119,2.0,0.0
8099,50.0,0,119,6.0,0.0
8100,57.0,0,119,13.0,0.0
8101,50.0,0,119,14.0,0.0
8102,69.0,0,119,12.0,0.0
8103,38.0,0,119,15.0,0.0
8104,50.0,60,119,15.0,0.0
8105,78.0,0,59,1.0,0.0
8106,66.0,0,59,2.0,0.0
8107,52.0,60,119,15.0,0.0
8108,52.0,0,119,14.0,0.0
8109,69.0,0,119,12.0,0.0
8110,40.0,0,119,15.0,0.0
8111,57.0,0,119,13.0,0.0
8112,52.0,0,119,6.0,0.0
8113,79.0,60,59,1.0,0.0
8114,67.0,0,59,2.0,0.0
8115,76.0,0,59,1.0,0.0
8116,64.0,0,59,2.0,0.0
8117,45.0,15,104,6.0,0.0
8118,69.0,0,119,12.0,0.0
8119,74.0,45,59,1.0,0.0
8120,45.0,60,119,15.0,0.0
8121,33.0,0,119,15.0,0.0
8122,57.0,0,119,13.0,0.0
8123,57.0,0,119,14.0,0.0
8124,62.0,0,59,2.0,0.0
8125,61.0,0,59,2.0,0.0
8126,73.0,0,59,1.0,0.0
8127,54.0,0,239,6.0,0.0
8128,57.0,0,119,13.0,0.0
8129,64.0,0,59,2.0,0.0
8130,54.0,120,119,15.0,0.0
8131,42.0,0,119,15.0,0.0
8132,54.0,0,119,14.0,0.0
8133,69.0,0,119,12.0,0.0
8134,76.0,60,59,1.0,0.0
8135,74.0,0,59,1.0,0.0
8136,62.0,0,59,2.0,0.0
8137,57.0,0,119,13.0,0.0
8138,69.0,0,119,12.0,0.0
8139,54.0,0,119,15.0,0.0
8140,54.0,120,119,14.0,0.0
8141,42.0,0,119,15.0,0.0
8142,74.0,0,119,2.0,0.0
8143,81.0,0,119,1.0,0.0
8144,69.0,0,119,12.0,0.0
8145,57.0,0,119,13.0,0.0
8146,54.0,0,119,14.0,0.0
8147,42.0,120,119,15.0,0.0
8148,63.0,0,119,12.0,0.0
8149,54.0,0,119,6.0,0.0
8150,75.0,0,119,2.0,0.0
8151,54.0,0,119,15.0,0.0
8152,81.0,0,59,1.0,0.0
8153,55.0,0,119,15.0,0.0
8154,69.0,0,119,12.0,0.0
8155,43.0,0,119,15.0,0.0
8156,81.0,0,119,1.0,0.0
8157,55.0,0,119,14.0,0.0
8158,64.0,0,119,12.0,0.0
8159,57.0,0,119,13.0,0.0
8160,55.0,120,119,6.0,0.0
8161,76.0,0,119,2.0,0.0
8162,57.0,0,119,6.0,0.0
8163,57.0,0,119,13.0,0.0
8164,45.0,0,119,15.0,0.0
8165,66.0,0,119,12.0,0.0
8166,57.0,0,119,15.0,0.0
8167,78.0,0,119,2.0,0.0
8168,57.0,120,119,14.0,0.0
8169,69.0,0,119,12.0,0.0
8170,81.0,0,59,1.0,0.0
8171,78.0,120,119,2.0,0.0
8172,45.0,0,119,15.0,0.0
8173,66.0,0,119,12.0,0.0
8174,69.0,0,119,12.0,0.0
8175,57.0,0,119,15.0,0.0
8176,57.0,0,119,13.0,0.0
8177,57.0,0,119,14.0,0.0
8178,83.0,0,119,1.0,0.0
8179,57.0,0,119,6.0,0.0
8180,43.0,120,119,15.0,0.0
8181,76.0,0,119,2.0,0.0
8182,55.0,0,119,14.0,0.0
8183,55.0,0,119,15.0,0.0
8184,69.0,0,119,12.0,0.0
8185,64.0,0,119,12.0,0.0
8186,55.0,0,119,6.0,0.0
8187,57.0,0,119,13.0,0.0
8188,83.0,0,59,1.0,0.0
8189,57.0,0,119,13.0,0.0
8190,54.0,0,119,6.0,0.0
8191,42.0,0,119,15.0,0.0
8192,54.0,0,119,14.0,0.0
8193,69.0,0,119,12.0,0.0
8194,54.0,0,119,15.0,0.0
8195,69.0,60,119,2.0,0.0
8196,83.0,0,119,1.0,0.0
8197,52.0,0,119,15.0,0.0
8198,69.0,60,119,12.0,0.0
8199,40.0,0,119,15.0,0.0
8200,57.0,0,119,13.0,0.0
8201,71.0,0,59,2.0,0.0
8202,52.0,0,119,14.0,0.0
8203,55.0,45,59,6.0,0.0
8204,67.0,0,119,12.0,0.0
8205,52.0,15,44,6.0,0.0
8206,85.0,0,59,1.0,0.0
8207,69.0,0,59,2.0,0.0
8208,69.0,0,119,12.0,0.0
8209,50.0,0,119,6.0,0.0
8210,57.0,0,119,13.0,0.0
8211,86.0,60,59,1.0,0.0
8212,66.0,0,119,2.0,0.0
8213,66.0,0,119,12.0,0.0
8214,50.0,0,119,14.0,0.0
8215,50.0,0,119,15.0,0.0
8216,38.0,60,119,15.0,0.0
8217,81.0,0,59,1.0,0.0
8218,50.0,0,119,14.0,0.0
8219,69.0,0,119,12.0,0.0
8220,66.0,0,119,12.0,0.0
8221,50.0,0,119,15.0,0.0
8222,50.0,0,119,6.0,0.0
8223,57.0,0,119,13.0,0.0
8224,83.0,60,59,1.0,0.0
8225,38.0,0,119,15.0,0.0
8226,81.0,0,59,1.0,0.0
8227,66.0,60,59,2.0,0.0
8228,52.0,0,119,14.0,0.0
8229,79.0,0,59,1.0,0.0
8230,57.0,60,119,13.0,0.0
8231,52.0,0,119,6.0,0.0
8232,67.0,60,59,2.0,0.0
8233,67.0,0,119,12.0,0.0
8234,69.0,0,119,12.0,0.0
8235,40.0,0,119,15.0,0.0
8236,52.0,0,119,15.0,0.0
8237,78.0,0,59,1.0,0.0
8238,76.0,0,59,1.0,0.0
8239,54.0,0,119,15.0,0.0
8240,69.0,0,119,12.0,0.0
8241,57.0,0,119,13.0,0.0
8242,54.0,0,119,14.0,0.0
8243,54.0,0,119,6.0,0.0
8244,42.0,120,119,15.0,0.0
8245,69.0,60,59,2.0,0.0
8246,74.0,0,59,1.0,0.0
8247,62.0,0,59,2.0,0.0
8248,40.0,0,119,15.0,0.0
8249,69.0,0,119,12.0,0.0
8250,52.0,0,119,15.0,0.0
8251,79.0,0,179,1.0,0.0
8252,57.0,0,119,13.0,0.0
8253,52.0,60,119,14.0,0.0
8254,52.0,60,179,6.0,0.0
8255,61.0,0,119,2.0,0.0
8256,73.0,0,59,2.0,0.0
8257,74.0,0,59,2.0,0.0
8258,78.0,60,59,1.0,0.0
8259,50.0,0,59,6.0,0.0
8260,38.0,0,119,15.0,0.0
8261,50.0,0,239,6.0,0.0
8262,74.0,0,59,2.0,0.0
8263,50.0,0,119,15.0,0.0
8264,78.0,60,59,1.0,0.0
8265,50.0,0,119,14.0,0.0
8266,57.0,0,119,13.0,0.0
8267,69.0,0,119,12.0,0.0
8268,62.0,60,59,2.0,0.0
8269,74.0,0,59,2.0,0.0
8270,74.0,0,59,1.0,0.0
8271,50.0,0,59,3.0,0.0
8272,78.0,0,59,0.0,0.0
8273,86.0,0,59,0.0,0.0
8274,66.0,0,59,1.0,0.0
8275,76.0,0,59,1.0,0.0
8276,52.0,60,59,3.0,0.0
8277,64.0,0,59,2.0,0.0
8278,88.0,0,59,0.0,0.0
8279,79.0,0,59,0.0,0.0
8280,76.0,0,59,2.0,0.0
8281,67.0,0,59,1.0,0.0
8282,78.0,30,59,1.0,0.0
8283,66.0,0,59,2.0,0.0
8284,69.0,0,59,1.0,0.0
8285,54.0,0,59,3.0,0.0
8286,90.0,0,59,0.0,0.0
8287,81.0,0,59,0.0,0.0
8288,78.0,0,59,2.0,0.0
8289,40.0,0,119,15.0,0.0
8290,52.0,0,119,11.0,0.0
8291,81.0,0,119,0.0,0.0
8292,64.0,0,119,12.0,0.0
8293,69.0,0,119,1.0,0.0
8294,79.0,30,119,1.0,0.0
8295,91.0,0,119,0.0,0.0
8296,67.0,0,119,2.0,0.0
8297,52.0,0,119,14.0,0.0
8298,64.0,0,119,13.0,0.0
8299,45.0,0,119,7.0,0.0
8300,64.0,0,119,10.0,0.0
8301,64.0,0,119,11.0,0.0
8302,57.0,0,1559,4.0,0.0
8303,52.0,60,29,3.0,0.0
8304,57.0,0,119,5.0,0.0
8305,69.0,0,119,5.0,0.0
8306,52.0,0,119,15.0,0.0
8307,79.0,0,119,2.0,0.0
8308,69.0,0,1559,4.0,0.0
8309,57.0,30,29,3.0,0.0
8310,52.0,0,119,14.0,0.0
8311,52.0,0,119,15.0,0.0
8312,73.0,0,119,2.0,0.0
8313,73.0,0,119,1.0,0.0
8314,52.0,60,29,3.0,0.0
8315,64.0,0,119,13.0,0.0
8316,85.0,0,119,0.0,0.0
8317,64.0,0,119,10.0,0.0
8318,61.0,0,119,2.0,0.0
8319,40.0,0,119,15.0,0.0
8320,64.0,0,119,12.0,0.0
8321,52.0,0,119,11.0,0.0
8322,81.0,0,59,0.0,0.0
8323,57.0,30,29,3.0,0.0
8324,69.0,0,59,1.0,0.0
8325,74.0,0,119,2.0,0.0
8326,62.0,0,119,2.0,0.0
8327,66.0,30,119,10.0,0.0
8328,42.0,0,119,15.0,0.0
8329,81.0,0,119,0.0,0.0
8330,66.0,0,119,13.0,0.0
8331,54.0,0,119,15.0,0.0
8332,66.0,0,119,12.0,0.0
8333,69.0,0,119,1.0,0.0
8334,74.0,0,119,1.0,0.0
8335,54.0,0,119,11.0,0.0
8336,54.0,60,29,3.0,0.0
8337,54.0,0,119,14.0,0.0
8338,86.0,0,119,0.0,0.0
8339,57.0,30,29,3.0,0.0
8340,88.0,30,59,0.0,0.0
8341,38.0,0,119,15.0,0.0
8342,62.0,0,119,10.0,0.0
8343,64.0,0,59,2.0,0.0
8344,76.0,0,59,2.0,0.0
8345,50.0,30,29,3.0,0.0
8346,76.0,0,59,1.0,0.0
8347,50.0,0,119,14.0,0.0
8348,50.0,0,119,11.0,0.0
8349,50.0,0,119,15.0,0.0
8350,64.0,0,119,12.0,0.0
8351,62.0,0,119,13.0,0.0
8352,78.0,0,59,1.0,0.0
8353,69.0,0,59,1.0,0.0
8354,66.0,0,59,2.0,0.0
8355,78.0,0,59,2.0,0.0
8356,57.0,30,29,3.0,0.0
8357,81.0,30,59,0.0,0.0
8358,90.0,0,59,0.0,0.0
8359,64.0,30,119,10.0,0.0
8360,57.0,0,119,5.0,0.0
8361,52.0,0,119,15.0,0.0
8362,79.0,0,119,2.0,0.0
8363,91.0,0,59,0.0,0.0
8364,45.0,0,119,7.0,0.0
8365,64.0,0,119,12.0,0.0
8366,64.0,0,119,13.0,0.0
8367,52.0,0,119,14.0,0.0
8368,69.0,0,119,1.0,0.0
8369,81.0,0,119,0.0,0.0
8370,67.0,0,119,2.0,0.0
8371,52.0,0,119,11.0,0.0
8372,40.0,0,119,15.0,0.0
8373,69.0,0,119,5.0,0.0
8374,52.0,30,29,3.0,0.0
8375,79.0,30,59,1.0,0.0
8376,57.0,30,29,3.0,0.0
8377,73.0,0,59,1.0,0.0
8378,85.0,0,59,0.0,0.0
8379,73.0,0,119,2.0,0.0
8380,74.0,0,59,1.0,0.0
8381,66.0,0,59,10.0,0.0
8382,42.0,0,59,15.0,0.0
8383,61.0,0,119,2.0,0.0
8384,66.0,0,59,13.0,0.0
8385,86.0,0,59,0.0,0.0
8386,66.0,0,59,12.0,0.0
8387,54.0,0,59,15.0,0.0
8388,54.0,0,59,11.0,0.0
8389,54.0,0,59,14.0,0.0
8390,54.0,30,29,3.0,0.0
8391,81.0,0,59,0.0,0.0
8392,67.0,0,59,10.0,0.0
8393,55.0,30,29,3.0,0.0
8394,43.0,0,59,15.0,0.0
8395,88.0,0,59,0.0,0.0
8396,55.0,30,59,14.0,0.0
8397,55.0,0,59,11.0,0.0
8398,55.0,0,59,15.0,0.0
8399,76.0,0,59,1.0,0.0
8400,69.0,0,59,1.0,0.0
8401,67.0,0,59,13.0,0.0
8402,67.0,0,59,12.0,0.0
8403,69.0,0,119,1.0,0.0
8404,74.0,0,119,1.0,0.0
8405,54.0,60,29,3.0,0.0
8406,62.0,0,119,2.0,0.0
8407,54.0,30,119,14.0,0.0
8408,66.0,0,119,13.0,0.0
8409,42.0,0,119,15.0,0.0
8410,66.0,0,119,10.0,0.0
8411,54.0,0,119,11.0,0.0
8412,54.0,0,119,15.0,0.0
8413,86.0,0,119,0.0,0.0
8414,81.0,0,119,0.0,0.0
8415,74.0,0,119,2.0,0.0
8416,66.0,0,119,12.0,0.0
8417,57.0,30,29,3.0,0.0
8418,62.0,0,119,12.0,0.0
8419,76.0,30,59,1.0,0.0
8420,50.0,0,119,15.0,0.0
8421,88.0,0,59,0.0,0.0
8422,62.0,0,119,13.0,0.0
8423,62.0,0,104,10.0,0.0
8424,50.0,30,29,3.0,0.0
8425,50.0,0,119,14.0,0.0
8426,76.0,0,59,2.0,0.0
8427,64.0,0,59,2.0,0.0
8428,38.0,30,119,15.0,0.0
8429,50.0,0,104,11.0,0.0
8430,57.0,15,29,3.0,0.0
8431,69.0,0,59,1.0,0.0
8432,81.0,0,59,0.0,0.0
8433,78.0,0,59,2.0,0.0
8434,66.0,0,59,2.0,0.0
8435,78.0,0,59,1.0,0.0
8436,90.0,0,59,0.0,0.0
8437,81.0,0,119,0.0,0.0
8438,69.0,30,119,1.0,0.0
8439,57.0,0,119,5.0,0.0
8440,69.0,0,119,5.0,0.0
8441,64.0,0,119,13.0,0.0
8442,64.0,0,119,10.0,0.0
8443,52.0,0,119,14.0,0.0
8444,79.0,0,59,1.0,0.0
8445,40.0,0,119,15.0,0.0
8446,91.0,30,59,0.0,0.0
8447,64.0,0,119,12.0,0.0
8448,52.0,0,119,11.0,0.0
8449,45.0,0,119,7.0,0.0
8450,52.0,30,29,3.0,0.0
8451,67.0,0,59,2.0,0.0
8452,52.0,0,119,15.0,0.0
8453,79.0,0,59,2.0,0.0
8454,73.0,0,59,2.0,0.0
8455,61.0,0,59,2.0,0.0
8456,85.0,0,59,0.0,0.0
8457,57.0,30,29,3.0,0.0
8458,73.0,0,59,1.0,0.0
8459,66.0,0,59,10.0,0.0
8460,66.0,0,59,12.0,0.0
8461,74.0,0,59,1.0,0.0
8462,74.0,0,59,2.0,0.0
8463,54.0,0,59,14.0,0.0
8464,54.0,30,29,3.0,0.0
8465,54.0,0,59,15.0,0.0
8466,42.0,0,59,15.0,0.0
8467,54.0,0,59,11.0,0.0
8468,86.0,0,59,0.0,0.0
8469,66.0,30,59,13.0,0.0
8470,62.0,0,59,2.0,0.0
8471,55.0,30,29,3.0,0.0
8472,69.0,0,59,1.0,0.0
8473,64.0,0,59,2.0,0.0
8474,76.0,0,59,2.0,0.0
8475,76.0,0,59,1.0,0.0
8476,67.0,0,59,13.0,0.0
8477,55.0,0,59,15.0,0.0
8478,67.0,0,59,10.0,0.0
8479,43.0,30,59,15.0,0.0
8480,55.0,0,59,11.0,0.0
8481,55.0,0,59,14.0,0.0
8482,81.0,0,59,0.0,0.0
8483,88.0,0,59,0.0,0.0
8484,67.0,0,59,12.0,0.0
8485,42.0,0,119,15.0,0.0
8486,86.0,0,59,0.0,0.0
8487,81.0,0,119,0.0,0.0
8488,62.0,0,59,2.0,0.0
8489,66.0,0,119,12.0,0.0
8490,54.0,0,119,14.0,0.0
8491,74.0,30,59,2.0,0.0
8492,69.0,0,119,1.0,0.0
8493,74.0,0,59,1.0,0.0
8494,57.0,0,119,5.0,0.0
8495,66.0,0,119,13.0,0.0
8496,69.0,0,119,5.0,0.0
8497,66.0,0,119,10.0,0.0
8498,54.0,0,119,11.0,0.0
8499,54.0,0,119,15.0,0.0
8500,54.0,30,29,3.0,0.0
8501,45.0,0,119,7.0,0.0
8502,57.0,30,29,3.0,0.0
8503,88.0,0,59,0.0,0.0
8504,76.0,0,59,1.0,0.0
8505,64.0,0,59,2.0,0.0
8506,76.0,30,59,2.0,0.0
8507,78.0,0,59,2.0,0.0
8508,64.0,0,119,10.0,0.0
8509,40.0,0,119,15.0,0.0
8510,52.0,0,119,15.0,0.0
8511,66.0,0,59,2.0,0.0
8512,78.0,0,59,1.0,0.0
8513,45.0,0,119,7.0,0.0
8514,57.0,0,119,5.0,0.0
8515,64.0,0,119,12.0,0.0
8516,90.0,30,59,0.0,0.0
8517,52.0,0,119,11.0,0.0
8518,52.0,0,119,14.0,0.0
8519,64.0,0,119,13.0,0.0
8520,52.0,30,29,3.0,0.0
8521,69.0,0,119,5.0,0.0
8522,79.0,0,119,0.0,0.0
8523,91.0,0,119,0.0,0.0
8524,79.0,0,119,1.0,0.0
8525,57.0,30,29,3.0,0.0
8526,67.0,0,119,1.0,0.0
8527,79.0,30,119,2.0,0.0
8528,67.0,0,119,2.0,0.0
8529,69.0,30,119,5.0,0.0
8530,50.0,30,29,3.0,0.0
8531,62.0,0,119,12.0,0.0
8532,62.0,0,119,10.0,0.0
8533,50.0,0,119,15.0,0.0
8534,62.0,0,119,13.0,0.0
8535,57.0,0,119,5.0,0.0
8536,50.0,0,119,14.0,0.0
8537,45.0,0,119,7.0,0.0
8538,50.0,0,119,11.0,0.0
8539,38.0,0,119,15.0,0.0
8540,78.0,0,59,0.0,0.0
8541,78.0,0,59,1.0,0.0
8542,66.0,0,59,1.0,0.0
8543,78.0,0,59,2.0,0.0
8544,66.0,0,59,2.0,0.0
8545,57.0,30,29,3.0,0.0
8546,90.0,0,59,0.0,0.0
8547,79.0,0,59,1.0,0.0
8548,91.0,0,59,0.0,0.0
8549,79.0,30,59,0.0,0.0
8550,52.0,30,29,3.0,0.0
8551,67.0,0,59,1.0,0.0
8552,52.0,0,119,11.0,0.0
8553,64.0,0,119,13.0,0.0
8554,52.0,0,119,14.0,0.0
8555,45.0,0,119,7.0,0.0
8556,52.0,0,119,15.0,0.0
8557,64.0,0,119,11.0,0.0
8558,57.0,0,119,5.0,0.0
8559,79.0,0,59,2.0,0.0
8560,67.0,0,59,2.0,0.0
8561,67.0,0,179,4.0,0.0
8562,69.0,0,119,5.0,0.0
8563,64.0,0,119,10.0,0.0
8564,40.0,0,119,15.0,0.0
8565,64.0,0,119,12.0,0.0
8566,76.0,0,59,1.0,0.0
8567,64.0,0,59,2.0,0.0
8568,76.0,0,59,2.0,0.0
8569,57.0,30,29,3.0,0.0
8570,64.0,30,59,1.0,0.0
8571,76.0,0,59,0.0,0.0
8572,88.0,0,59,0.0,0.0
8573,45.0,15,104,11.0,0.0
8574,74.0,0,59,1.0,0.0
8575,45.0,30,29,3.0,0.0
8576,62.0,30,59,2.0,0.0
8577,45.0,0,119,15.0,0.0
8578,57.0,0,119,12.0,0.0
8579,57.0,0,119,14.0,0.0
8580,74.0,0,59,0.0,0.0
8581,57.0,0,104,10.0,0.0
8582,74.0,0,59,2.0,0.0
8583,57.0,0,104,11.0,0.0
8584,69.0,0,119,5.0,0.0
8585,64.0,0,59,4.0,0.0
8586,45.0,0,119,7.0,0.0
8587,57.0,0,119,13.0,0.0
8588,57.0,0,119,5.0,0.0
8589,62.0,0,59,1.0,0.0
8590,33.0,0,119,15.0,0.0
8591,86.0,0,59,0.0,0.0
8592,61.0,0,59,2.0,0.0
8593,73.0,30,59,0.0,0.0
8594,85.0,0,59,0.0,0.0
8595,64.0,0,59,4.0,0.0
8596,73.0,0,59,2.0,0.0
8597,57.0,0,59,4.0,0.0
8598,73.0,0,59,1.0,0.0
8599,57.0,15,29,3.0,0.0
8600,76.0,0,59,0.0,0.0
8601,88.0,30,59,0.0,0.0
8602,54.0,0,239,15.0,0.0
8603,76.0,0,59,2.0,0.0
8604,54.0,0,239,11.0,0.0
8605,66.0,0,239,10.0,0.0
8606,66.0,0,239,12.0,0.0
8607,54.0,0,239,14.0,0.0
8608,62.0,0,59,4.0,0.0
8609,66.0,0,239,11.0,0.0
8610,42.0,0,239,15.0,0.0
8611,54.0,30,29,3.0,0.0
8612,66.0,0,239,13.0,0.0
8613,76.0,0,59,1.0,0.0
8614,64.0,0,59,2.0,0.0
8615,57.0,0,59,4.0,0.0
8616,74.0,0,59,1.0,0.0
8617,74.0,0,59,2.0,0.0
8618,45.0,0,59,7.0,0.0
8619,86.0,0,59,0.0,0.0
8620,57.0,0,59,5.0,0.0
8621,57.0,30,29,3.0,0.0
8622,57.0,0,179,4.0,0.0
8623,62.0,0,59,2.0,0.0
8624,45.0,0,179,4.0,0.0
8625,74.0,0,59,0.0,0.0
8626,69.0,30,59,5.0,0.0
8627,62.0,0,119,2.0,0.0
8628,57.0,0,119,5.0,0.0
8629,69.0,30,119,5.0,0.0
8630,42.0,30,29,3.0,0.0
8631,93.0,0,59,0.0,0.0
8632,86.0,0,119,0.0,0.0
8633,81.0,30,59,1.0,0.0
8634,74.0,0,119,1.0,0.0
8635,45.0,0,119,7.0,0.0
8636,74.0,0,119,2.0,0.0
8637,54.0,30,29,3.0,0.0
8638,63.0,0,119,2.0,0.0
8639,54.0,0,119,14.0,0.0
8640,66.0,0,119,13.0,0.0
8641,66.0,0,119,12.0,0.0
8642,42.0,0,119,15.0,0.0
8643,69.0,30,239,4.0,0.0
8644,42.0,60,29,3.0,0.0
8645,75.0,0,119,2.0,0.0
8646,66.0,0,119,10.0,0.0
8647,87.0,0,119,0.0,0.0
8648,75.0,30,119,1.0,0.0
8649,54.0,0,119,15.0,0.0
8650,54.0,0,119,11.0,0.0
8651,57.0,0,239,4.0,0.0
8652,45.0,0,59,7.0,0.0
8653,57.0,0,59,5.0,0.0
8654,69.0,0,59,5.0,0.0
8655,93.0,0,29,0.0,0.0
8656,81.0,30,29,1.0,0.0
8657,54.0,0,29,3.0,0.0
8658,55.0,0,119,14.0,0.0
8659,81.0,30,59,1.0,0.0
8660,76.0,0,119,1.0,0.0
8661,93.0,0,59,0.0,0.0
8662,43.0,0,119,15.0,0.0
8663,69.0,0,119,5.0,0.0
8664,57.0,0,119,5.0,0.0
8665,67.0,0,119,10.0,0.0
8666,43.0,30,29,3.0,0.0
8667,55.0,0,119,11.0,0.0
8668,67.0,0,119,12.0,0.0
8669,45.0,0,119,7.0,0.0
8670,55.0,0,119,15.0,0.0
8671,67.0,0,119,13.0,0.0
8672,64.0,0,119,2.0,0.0
8673,76.0,0,119,2.0,0.0
8674,88.0,0,119,0.0,0.0
8675,55.0,30,29,3.0,0.0
8676,69.0,0,119,12.0,0.0
8677,90.0,30,119,0.0,0.0
8678,45.0,0,119,15.0,0.0
8679,78.0,0,119,2.0,0.0
8680,66.0,0,119,2.0,0.0
8681,78.0,0,119,1.0,0.0
8682,57.0,0,119,11.0,0.0
8683,69.0,0,239,4.0,0.0
8684,57.0,0,119,14.0,0.0
8685,45.0,60,29,3.0,0.0
8686,57.0,0,119,15.0,0.0
8687,69.0,0,119,13.0,0.0
8688,57.0,30,239,4.0,0.0
8689,69.0,0,119,10.0,0.0
8690,57.0,0,59,5.0,0.0
8691,93.0,0,29,0.0,0.0
8692,45.0,0,59,7.0,0.0
8693,81.0,0,29,1.0,0.0
8694,57.0,30,29,3.0,0.0
8695,69.0,0,59,5.0,0.0
8696,57.0,0,119,14.0,0.0
8697,57.0,0,119,15.0,0.0
8698,45.0,60,29,3.0,0.0
8699,69.0,0,119,13.0,0.0
8700,45.0,0,119,7.0,0.0
8701,45.0,0,119,15.0,0.0
8702,57.0,0,119,11.0,0.0
8703,69.0,0,119,5.0,0.0
8704,69.0,0,119,12.0,0.0
8705,57.0,0,119,5.0,0.0
8706,66.0,0,119,2.0,0.0
8707,78.0,0,119,2.0,0.0
8708,83.0,0,119,1.0,0.0
8709,83.0,0,119,0.0,0.0
8710,69.0,0,119,10.0,0.0
8711,78.0,0,119,1.0,0.0
8712,57.0,30,29,3.0,0.0
8713,43.0,0,119,15.0,0.0
8714,76.0,0,119,1.0,0.0
8715,69.0,0,239,4.0,0.0
8716,43.0,60,29,3.0,0.0
8717,57.0,0,119,4.0,0.0
8718,55.0,0,119,15.0,0.0
8719,55.0,0,119,14.0,0.0
8720,67.0,0,119,13.0,0.0
8721,76.0,0,119,2.0,0.0
8722,64.0,0,119,2.0,0.0
8723,67.0,30,119,12.0,0.0
8724,55.0,0,119,11.0,0.0
8725,67.0,0,119,10.0,0.0
8726,83.0,0,59,1.0,0.0
8727,57.0,0,59,5.0,0.0
8728,69.0,0,59,5.0,0.0
8729,45.0,0,59,7.0,0.0
8730,83.0,0,59,0.0,0.0
8731,55.0,30,29,3.0,0.0
8732,42.0,0,119,15.0,0.0
8733,83.0,0,119,0.0,0.0
8734,69.0,0,119,1.0,0.0
8735,66.0,0,119,12.0,0.0
8736,83.0,0,119,1.0,0.0
8737,69.0,0,119,5.0,0.0
8738,57.0,0,119,5.0,0.0
8739,54.0,0,119,15.0,0.0
8740,62.0,0,119,4.0,0.0
8741,69.0,30,59,2.0,0.0
8742,81.0,0,59,2.0,0.0
8743,54.0,0,119,11.0,0.0
8744,45.0,0,119,7.0,0.0
8745,66.0,0,119,13.0,0.0
8746,54.0,0,119,14.0,0.0
8747,66.0,0,119,10.0,0.0
8748,42.0,30,29,3.0,0.0
8749,69.0,0,59,2.0,0.0
8750,57.0,30,59,2.0,0.0
8751,54.0,30,29,3.0,0.0
8752,55.0,30,59,14.0,0.0
8753,55.0,30,29,3.0,0.0
8754,67.0,0,59,13.0,0.0
8755,59.0,0,59,2.0,0.0
8756,71.0,0,59,2.0,0.0
8757,67.0,0,59,4.0,0.0
8758,64.0,0,59,4.0,0.0
8759,43.0,0,59,15.0,0.0
8760,67.0,0,59,12.0,0.0
8761,67.0,0,59,10.0,0.0
8762,55.0,0,59,15.0,0.0
8763,55.0,0,59,11.0,0.0
8764,71.0,0,59,1.0,0.0
8765,85.0,30,59,0.0,0.0
8766,64.0,0,59,12.0,0.0
8767,45.0,0,59,7.0,0.0
8768,40.0,0,59,15.0,0.0
8769,85.0,0,59,1.0,0.0
8770,67.0,0,59,1.0,0.0
8771,64.0,0,59,13.0,0.0
8772,69.0,0,179,4.0,0.0
8773,69.0,0,59,5.0,0.0
8774,52.0,15,29,3.0,0.0
8775,67.0,0,59,2.0,0.0
8776,55.0,0,59,2.0,0.0
8777,52.0,0,59,15.0,0.0
8778,57.0,0,59,5.0,0.0
8779,57.0,0,179,4.0,0.0
8780,52.0,0,59,14.0,0.0
8781,64.0,0,44,10.0,0.0
8782,52.0,0,44,11.0,0.0
8783,62.0,0,119,12.0,0.0
8784,86.0,30,59,0.0,0.0
8785,50.0,0,119,15.0,0.0
8786,38.0,0,119,15.0,0.0
8787,57.0,0,119,5.0,0.0
8788,62.0,0,119,13.0,0.0
8789,86.0,0,59,1.0,0.0
8790,38.0,30,29,3.0,0.0
8791,66.0,0,59,2.0,0.0
8792,54.0,0,59,2.0,0.0
8793,50.0,0,119,14.0,0.0
8794,69.0,0,119,5.0,0.0
8795,50.0,0,119,11.0,0.0
8796,62.0,0,119,10.0,0.0
8797,45.0,0,119,7.0,0.0
8798,66.0,0,119,1.0,0.0
8799,81.0,0,59,0.0,0.0
8800,81.0,0,59,2.0,0.0
8801,69.0,30,59,2.0,0.0
8802,81.0,0,59,1.0,0.0
8803,50.0,30,29,3.0,0.0
8804,38.0,0,119,15.0,0.0
8805,38.0,30,29,3.0,0.0
8806,50.0,0,119,15.0,0.0
8807,62.0,30,119,12.0,0.0
8808,71.0,0,59,2.0,0.0
8809,83.0,0,59,0.0,0.0
8810,62.0,0,119,11.0,0.0
8811,50.0,0,119,14.0,0.0
8812,83.0,0,59,2.0,0.0
8813,62.0,0,119,10.0,0.0
8814,62.0,0,119,13.0,0.0
8815,50.0,0,119,11.0,0.0
8816,83.0,30,59,1.0,0.0
8817,69.0,0,239,4.0,0.0
8818,57.0,0,239,4.0,0.0
8819,93.0,0,59,0.0,0.0
8820,78.0,0,59,0.0,0.0
8821,50.0,0,59,7.0,0.0
8822,66.0,0,59,1.0,0.0
8823,50.0,30,29,3.0,0.0
8824,69.0,0,59,2.0,0.0
8825,81.0,0,59,1.0,0.0
8826,81.0,0,59,2.0,0.0
8827,74.0,0,59,5.0,0.0
8828,62.0,0,59,5.0,0.0
8829,79.0,0,59,0.0,0.0
8830,91.0,0,59,0.0,0.0
8831,67.0,30,59,2.0,0.0
8832,79.0,0,59,2.0,0.0
8833,62.0,0,119,5.0,0.0
8834,64.0,0,119,11.0,0.0
8835,52.0,0,119,11.0,0.0
8836,67.0,0,119,1.0,0.0
8837,79.0,0,59,1.0,0.0
8838,40.0,30,29,3.0,0.0
8839,64.0,0,119,10.0,0.0
8840,64.0,0,119,13.0,0.0
8841,52.0,0,119,14.0,0.0
8842,74.0,0,119,5.0,0.0
8843,64.0,30,119,12.0,0.0
8844,52.0,0,119,15.0,0.0
8845,40.0,0,119,15.0,0.0
8846,50.0,0,119,7.0,0.0
8847,78.0,0,59,1.0,0.0
8848,78.0,0,59,2.0,0.0
8849,66.0,0,59,2.0,0.0
8850,52.0,30,29,3.0,0.0
8851,90.0,0,59,0.0,0.0
8852,42.0,0,119,15.0,0.0
8853,66.0,0,119,13.0,0.0
8854,54.0,0,119,14.0,0.0
8855,57.0,0,299,4.0,0.0
8856,66.0,30,119,11.0,0.0
8857,66.0,0,119,10.0,0.0
8858,69.0,0,299,4.0,0.0
8859,54.0,0,119,11.0,0.0
8860,54.0,0,119,15.0,0.0
8861,76.0,0,59,2.0,0.0
8862,64.0,0,59,2.0,0.0
8863,81.0,0,59,0.0,0.0
8864,66.0,0,119,12.0,0.0
8865,69.0,30,59,1.0,0.0
8866,76.0,0,59,1.0,0.0
8867,42.0,30,29,3.0,0.0
8868,88.0,0,59,0.0,0.0
8869,54.0,30,29,3.0,0.0
8870,74.0,0,59,0.0,0.0
8871,86.0,0,59,0.0,0.0
8872,74.0,0,59,5.0,0.0
8873,62.0,0,59,5.0,0.0
8874,74.0,0,59,1.0,0.0
8875,62.0,0,59,1.0,0.0
8876,50.0,0,59,7.0,0.0
8877,74.0,0,59,2.0,0.0
8878,62.0,0,59,2.0,0.0
8879,67.0,0,119,2.0,0.0
8880,79.0,0,119,2.0,0.0
8881,52.0,30,179,14.0,0.0
8882,91.0,0,179,0.0,0.0
8883,73.0,0,119,0.0,0.0
8884,64.0,0,179,11.0,0.0
8885,45.0,30,119,7.0,0.0
8886,79.0,0,179,1.0,0.0
8887,67.0,0,119,1.0,0.0
8888,40.0,0,179,15.0,0.0
8889,40.0,60,29,3.0,0.0
8890,64.0,0,179,13.0,0.0
8891,52.0,0,179,15.0,0.0
8892,52.0,0,179,11.0,0.0
8893,69.0,0,119,5.0,0.0
8894,57.0,0,119,5.0,0.0
8895,64.0,0,179,12.0,0.0
8896,64.0,0,179,10.0,0.0
8897,52.0,30,29,3.0,0.0
8898,85.0,0,59,0.0,0.0
8899,67.0,0,59,2.0,0.0
8900,61.0,0,59,2.0,0.0
8901,73.0,0,59,1.0,0.0
8902,40.0,30,29,3.0,0.0
8903,50.0,0,59,4.0,0.0
8904,90.0,0,59,0.0,0.0
8905,86.0,0,59,0.0,0.0
8906,50.0,0,59,11.0,0.0
8907,50.0,0,59,15.0,0.0
8908,38.0,0,59,15.0,0.0
8909,78.0,0,59,1.0,0.0
8910,74.0,0,59,1.0,0.0
8911,50.0,0,59,7.0,0.0
8912,74.0,0,59,5.0,0.0
8913,62.0,0,59,5.0,0.0
8914,50.0,30,29,3.0,0.0
8915,62.0,0,59,2.0,0.0
8916,66.0,0,59,2.0,0.0
8917,62.0,30,59,4.0,0.0
8918,50.0,0,59,14.0,0.0
8919,62.0,0,59,11.0,0.0
8920,62.0,0,59,10.0,0.0
8921,62.0,0,59,12.0,0.0
8922,62.0,0,59,13.0,0.0
8923,62.0,30,119,5.0,0.0
8924,74.0,0,119,1.0,0.0
8925,62.0,0,239,11.0,0.0
8926,50.0,0,239,11.0,0.0
8927,50.0,0,119,14.0,0.0
8928,50.0,0,119,15.0,0.0
8929,62.0,0,239,10.0,0.0
8930,86.0,0,119,0.0,0.0
8931,90.0,0,119,0.0,0.0
8932,50.0,0,119,7.0,0.0
8933,74.0,0,119,5.0,0.0
8934,78.0,0,119,1.0,0.0
8935,38.0,60,29,3.0,0.0
8936,62.0,0,119,13.0,0.0
8937,38.0,0,119,15.0,0.0
8938,50.0,0,119,4.0,0.0
8939,62.0,0,119,12.0,0.0
8940,62.0,0,119,4.0,0.0
8941,66.0,0,119,2.0,0.0
8942,62.0,0,119,2.0,0.0
8943,50.0,30,29,3.0,0.0
8944,69.0,0,119,4.0,0.0
8945,45.0,0,119,15.0,0.0
8946,45.0,60,29,3.0,0.0
8947,57.0,0,119,14.0,0.0
8948,69.0,0,119,13.0,0.0
8949,57.0,0,119,15.0,0.0
8950,69.0,0,119,12.0,0.0
8951,45.0,0,59,7.0,0.0
8952,66.0,0,59,2.0,0.0
8953,57.0,30,29,3.0,0.0
8954,74.0,0,59,1.0,0.0
8955,69.0,0,59,5.0,0.0
8956,57.0,0,59,5.0,0.0
8957,62.0,30,59,2.0,0.0
8958,90.0,0,59,0.0,0.0
8959,86.0,0,59,0.0,0.0
8960,78.0,0,59,1.0,0.0
8961,64.0,0,119,2.0,0.0
8962,57.0,30,119,5.0,0.0
8963,73.0,0,119,2.0,0.0
8964,69.0,0,119,5.0,0.0
8965,67.0,0,179,13.0,0.0
8966,55.0,30,179,14.0,0.0
8967,55.0,0,179,15.0,0.0
8968,45.0,0,119,7.0,0.0
8969,43.0,60,29,3.0,0.0
8970,85.0,0,119,1.0,0.0
8971,76.0,0,119,1.0,0.0
8972,43.0,0,179,15.0,0.0
8973,67.0,0,179,12.0,0.0
8974,67.0,0,179,4.0,0.0
8975,93.0,0,119,0.0,0.0
8976,88.0,0,119,0.0,0.0
8977,55.0,30,29,3.0,0.0
8978,42.0,30,29,3.0,0.0
8979,54.0,0,59,14.0,0.0
8980,66.0,0,59,12.0,0.0
8981,50.0,0,59,7.0,0.0
8982,66.0,0,59,13.0,0.0
8983,54.0,0,59,15.0,0.0
8984,66.0,0,59,2.0,0.0
8985,74.0,0,59,5.0,0.0
8986,62.0,0,59,5.0,0.0
8987,78.0,0,59,1.0,0.0
8988,86.0,0,59,1.0,0.0
8989,42.0,0,59,15.0,0.0
8990,74.0,0,59,2.0,0.0
8991,86.0,0,59,0.0,0.0
8992,93.0,0,59,0.0,0.0
8993,54.0,30,29,3.0,0.0
8994,66.0,30,59,4.0,0.0
8995,54.0,0,119,15.0,0.0
8996,66.0,0,119,4.0,0.0
8997,78.0,0,119,1.0,0.0
8998,86.0,0,119,1.0,0.0
8999,62.0,0,119,5.0,0.0
9000,66.0,30,119,13.0,0.0
9001,74.0,0,119,5.0,0.0
9002,54.0,0,119,14.0,0.0
9003,50.0,0,119,7.0,0.0
9004,66.0,0,119,12.0,0.0
9005,42.0,60,29,3.0,0.0
9006,86.0,0,119,0.0,0.0
9007,93.0,0,119,0.0,0.0
9008,66.0,0,119,2.0,0.0
9009,74.0,0,119,2.0,0.0
9010,42.0,0,119,15.0,0.0
9011,54.0,30,29,3.0,0.0
9012,74.0,0,119,12.0,0.0
9013,66.0,0,119,4.0,0.0
9014,50.0,60,29,3.0,0.0
9015,62.0,0,119,14.0,0.0
9016,62.0,0,119,4.0,0.0
9017,74.0,0,119,13.0,0.0
9018,62.0,0,119,15.0,0.0
9019,50.0,0,119,15.0,0.0
9020,74.0,0,59,1.0,0.0
9021,66.0,0,59,2.0,0.0
9022,90.0,0,59,0.0,0.0
9023,86.0,0,59,0.0,0.0
9024,62.0,30,59,2.0,0.0
9025,78.0,0,59,1.0,0.0
9026,62.0,0,59,5.0,0.0
9027,50.0,0,59,7.0,0.0
9028,62.0,30,29,3.0,0.0
9029,74.0,0,59,5.0,0.0
9030,78.0,0,119,1.0,0.0
9031,74.0,0,119,1.0,0.0
9032,66.0,0,119,2.0,0.0
9033,62.0,0,119,2.0,0.0
9034,60.0,0,179,15.0,0.0
9035,72.0,0,179,12.0,0.0
9036,72.0,30,179,13.0,0.0
9037,86.0,0,119,0.0,0.0
9038,48.0,60,29,3.0,0.0
9039,90.0,0,119,0.0,0.0
9040,50.0,30,119,7.0,0.0
9041,60.0,0,179,14.0,0.0
9042,62.0,0,179,4.0,0.0
9043,66.0,0,179,4.0,0.0
9044,74.0,0,119,5.0,0.0
9045,62.0,0,119,5.0,0.0
9046,48.0,0,179,15.0,0.0
9047,60.0,30,29,3.0,0.0
9048,48.0,30,29,3.0,0.0
9049,74.0,0,59,1.0,0.0
9050,79.0,0,59,1.0,0.0
9051,47.0,0,59,15.0,0.0
9052,67.0,60,59,2.0,0.0
9053,62.0,0,59,4.0,0.0
9054,71.0,0,59,13.0,0.0
9055,59.0,0,59,15.0,0.0
9056,50.0,0,59,7.0,0.0
9057,71.0,0,59,12.0,0.0
9058,67.0,0,59,4.0,0.0
9059,62.0,0,59,2.0,0.0
9060,59.0,0,59,14.0,0.0
9061,47.0,30,29,3.0,0.0
9062,86.0,0,59,0.0,0.0
9063,91.0,0,59,0.0,0.0
9064,74.0,0,59,5.0,0.0
9065,62.0,0,59,5.0,0.0
9066,91.0,60,119,0.0,0.0
9067,67.0,0,119,4.0,0.0
9068,59.0,0,119,14.0,0.0
9069,71.0,0,119,13.0,0.0
9070,47.0,60,59,3.0,0.0
9071,50.0,0,119,7.0,0.0
9072,79.0,0,119,1.0,0.0
9073,62.0,0,119,5.0,0.0
9074,74.0,0,119,5.0,0.0
9075,86.0,0,119,0.0,0.0
9076,62.0,0,119,4.0,0.0
9077,47.0,0,119,15.0,0.0
9078,71.0,0,119,12.0,0.0
9079,67.0,0,119,2.0,0.0
9080,62.0,0,119,2.0,0.0
9081,74.0,0,119,1.0,0.0
9082,59.0,0,119,15.0,0.0
9083,59.0,0,59,3.0,0.0
9084,55.0,0,59,15.0,0.0
9085,67.0,0,119,4.0,0.0
9086,64.0,0,119,4.0,0.0
9087,55.0,0,59,3.0,0.0
9088,67.0,0,59,14.0,0.0
9089,79.0,60,59,13.0,0.0
9090,79.0,0,59,12.0,0.0
9091,67.0,0,59,15.0,0.0
9092,67.0,0,59,3.0,0.0
9093,76.0,60,59,13.0,0.0
9094,52.0,0,59,3.0,0.0
9095,88.0,0,59,0.0,0.0
9096,64.0,0,59,15.0,0.0
9097,52.0,0,59,15.0,0.0
9098,64.0,0,59,14.0,0.0
9099,64.0,0,59,3.0,0.0
9100,67.0,0,59,2.0,0.0
9101,64.0,0,59,2.0,0.0
9102,79.0,0,59,1.0,0.0
9103,76.0,0,59,1.0,0.0
9104,91.0,0,59,0.0,0.0
9105,76.0,0,59,12.0,0.0
9106,45.0,60,119,7.0,0.0
9107,50.0,0,59,3.0,0.0
9108,64.0,0,119,2.0,0.0
9109,67.0,0,119,2.0,0.0
9110,88.0,0,119,0.0,0.0
9111,64.0,0,479,4.0,0.0
9112,74.0,0,59,12.0,0.0
9113,76.0,0,119,1.0,0.0
9114,79.0,0,119,1.0,0.0
9115,74.0,0,59,13.0,0.0
9116,91.0,0,119,0.0,0.0
9117,62.0,60,59,14.0,0.0
9118,67.0,0,479,4.0,0.0
9119,57.0,0,119,5.0,0.0
9120,69.0,0,119,5.0,0.0
9121,62.0,0,59,15.0,0.0
9122,50.0,0,59,15.0,0.0
9123,62.0,0,59,3.0,0.0
9124,61.0,0,59,15.0,0.0
9125,73.0,0,59,13.0,0.0
9126,49.0,0,59,3.0,0.0
9127,61.0,0,59,3.0,0.0
9128,73.0,0,59,12.0,0.0
9129,61.0,0,59,14.0,0.0
9130,49.0,0,59,15.0,0.0
9131,64.0,0,59,14.0,0.0
9132,76.0,0,59,13.0,0.0
9133,52.0,0,59,15.0,0.0
9134,52.0,0,59,3.0,0.0
9135,64.0,0,59,3.0,0.0
9136,64.0,0,59,15.0,0.0
9137,76.0,60,59,12.0,0.0
9138,49.0,0,59,15.0,0.0
9139,61.0,0,59,14.0,0.0
9140,45.0,0,59,7.0,0.0
9141,69.0,0,59,5.0,0.0
9142,73.0,0,59,13.0,0.0
9143,91.0,0,59,0.0,0.0
9144,88.0,0,59,0.0,0.0
9145,61.0,0,59,15.0,0.0
9146,64.0,0,59,2.0,0.0
9147,67.0,0,59,2.0,0.0
9148,73.0,0,59,12.0,0.0
9149,76.0,0,59,1.0,0.0
9150,49.0,0,59,3.0,0.0
9151,61.0,60,59,3.0,0.0
9152,57.0,0,59,5.0,0.0
9153,79.0,0,59,1.0,0.0
9154,45.0,0,119,7.0,0.0
9155,88.0,0,119,0.0,0.0
9156,69.0,0,119,5.0,0.0
9157,91.0,0,119,0.0,0.0
9158,59.0,60,59,15.0,0.0
9159,67.0,0,119,2.0,0.0
9160,47.0,0,59,3.0,0.0
9161,79.0,0,119,1.0,0.0
9162,76.0,0,119,1.0,0.0
9163,59.0,0,59,3.0,0.0
9164,71.0,0,59,12.0,0.0
9165,59.0,0,59,14.0,0.0
9166,71.0,0,59,13.0,0.0
9167,47.0,0,59,15.0,0.0
9168,64.0,0,119,2.0,0.0
9169,57.0,0,119,5.0,0.0
9170,69.0,0,59,13.0,0.0
9171,45.0,0,59,15.0,0.0
9172,57.0,60,59,15.0,0.0
9173,69.0,0,59,12.0,0.0
9174,57.0,0,59,14.0,0.0
9175,57.0,0,59,3.0,0.0
9176,45.0,0,59,3.0,0.0
9177,71.0,0,59,12.0,0.0
9178,47.0,0,59,3.0,0.0
9179,59.0,0,59,3.0,0.0
9180,71.0,0,59,13.0,0.0
9181,47.0,0,59,15.0,0.0
9182,59.0,60,59,14.0,0.0
9183,59.0,0,59,15.0,0.0
9184,57.0,0,59,5.0,0.0
9185,69.0,0,59,5.0,0.0
9186,61.0,0,59,14.0,0.0
9187,49.0,0,59,15.0,0.0
9188,73.0,0,59,12.0,0.0
9189,49.0,0,59,3.0,0.0
9190,88.0,0,59,0.0,0.0
9191,61.0,0,59,3.0,0.0
9192,45.0,0,59,7.0,0.0
9193,73.0,0,59,13.0,0.0
9194,61.0,0,59,15.0,0.0
9195,76.0,0,59,1.0,0.0
9196,79.0,60,59,1.0,0.0
9197,67.0,0,59,2.0,0.0
9198,64.0,0,59,2.0,0.0
9199,91.0,0,59,0.0,0.0
9200,62.0,0,119,2.0,0.0
9201,50.0,0,59,3.0,0.0
9202,62.0,0,59,3.0,0.0
9203,74.0,0,59,13.0,0.0
9204,50.0,0,119,7.0,0.0
9205,74.0,0,119,1.0,0.0
9206,74.0,0,59,12.0,0.0
9207,62.0,0,59,14.0,0.0
9208,86.0,60,119,0.0,0.0
9209,90.0,0,119,0.0,0.0
9210,50.0,0,59,15.0,0.0
9211,78.0,0,119,1.0,0.0
9212,66.0,0,119,2.0,0.0
9213,62.0,0,59,15.0,0.0
9214,66.0,60,59,4.0,0.0
9215,62.0,0,119,5.0,0.0
9216,62.0,0,59,4.0,0.0
9217,54.0,0,59,15.0,0.0
9218,78.0,0,59,13.0,0.0
9219,78.0,0,59,12.0,0.0
9220,66.0,0,59,14.0,0.0
9221,54.0,0,59,3.0,0.0
9222,66.0,0,59,3.0,0.0
9223,66.0,0,59,15.0,0.0
9224,64.0,0,59,14.0,0.0
9225,76.0,60,59,13.0,0.0
9226,76.0,0,59,12.0,0.0
9227,52.0,0,59,15.0,0.0
9228,52.0,0,59,3.0,0.0
9229,64.0,0,59,3.0,0.0
9230,64.0,0,59,15.0,0.0
9231,93.0,0,59,0.0,0.0
9232,57.0,60,59,4.0,0.0
9233,81.0,0,59,2.0,0.0
9234,69.0,0,59,2.0,0.0
9235,69.0,0,59,5.0,0.0
9236,57.0,0,59,5.0,0.0
9237,73.0,0,59,12.0,0.0
9238,69.0,0,59,4.0,0.0
9239,81.0,0,59,0.0,0.0
9240,49.0,0,59,3.0,0.0
9241,61.0,0,59,14.0,0.0
9242,85.0,0,59,1.0,0.0
9243,61.0,0,59,3.0,0.0
9244,69.0,0,59,1.0,0.0
9245,45.0,0,59,7.0,0.0
9246,49.0,0,59,15.0,0.0
9247,61.0,0,59,15.0,0.0
9248,73.0,0,59,13.0,0.0
9249,74.0,0,119,1.0,0.0
9250,62.0,0,119,5.0,0.0
9251,62.0,0,59,14.0,0.0
9252,62.0,0,119,1.0,0.0
9253,50.0,0,119,15.0,0.0
9254,86.0,0,119,0.0,0.0
9255,62.0,0,119,15.0,0.0
9256,74.0,0,119,13.0,0.0
9257,74.0,0,119,2.0,0.0
9258,50.0,0,59,4.0,0.0
9259,62.0,60,59,4.0,0.0
9260,62.0,0,119,2.0,0.0
9261,50.0,0,119,3.0,0.0
9262,74.0,0,119,12.0,0.0
9263,50.0,0,119,7.0,0.0
9264,74.0,0,119,0.0,0.0
9265,62.0,0,119,3.0,0.0
9266,66.0,0,59,4.0,0.0
9267,69.0,60,59,4.0,0.0
9268,64.0,60,59,4.0,0.0
9269,67.0,0,59,4.0,0.0
9270,57.0,0,59,4.0,0.0
9271,64.0,120,59,4.0,0.0
9272,50.0,120,119,6.0,0.0
9273,62.0,0,119,11.0,0.0
9274,62.0,0,119,4.0,0.0
9275,54.0,0,119,4.0,0.0
9276,54.0,0,359,15.0,0.0
9277,66.0,0,119,10.0,0.0
9278,50.0,120,119,6.0,0.0
9279,66.0,0,119,4.0,0.0
9280,62.0,0,119,11.0,0.0
9281,66.0,0,119,10.0,0.0
9282,62.0,0,119,4.0,0.0
9283,64.0,0,119,11.0,0.0
9284,50.0,60,119,6.0,0.0
9285,67.0,0,119,10.0,0.0
9286,66.0,0,119,4.0,0.0
9287,69.0,0,119,4.0,0.0
9288,69.0,0,119,10.0,0.0
9289,66.0,0,119,11.0,0.0
9290,49.0,60,59,15.0,0.0
9291,49.0,0,59,6.0,0.0
9292,47.0,0,59,6.0,0.0
9293,47.0,60,59,15.0,0.0
9294,45.0,0,59,15.0,0.0
9295,45.0,60,59,6.0,0.0
9296,66.0,0,119,11.0,0.0
9297,69.0,60,119,10.0,0.0
9298,47.0,0,59,15.0,0.0
9299,47.0,0,59,6.0,0.0
9300,67.0,60,119,4.0,0.0
9301,64.0,0,119,4.0,0.0
9302,49.0,0,59,15.0,0.0
9303,64.0,0,119,11.0,0.0
9304,67.0,0,119,10.0,0.0
9305,49.0,60,59,6.0,0.0
9306,50.0,0,59,15.0,0.0
9307,50.0,0,59,6.0,0.0
9308,66.0,0,119,10.0,0.0
9309,52.0,0,59,15.0,0.0
9310,52.0,60,59,6.0,0.0
9311,62.0,0,119,11.0,0.0
9312,54.0,60,59,15.0,0.0
9313,54.0,0,59,6.0,0.0
9314,55.0,45,59,15.0,0.0
9315,61.0,0,104,11.0,0.0
9316,57.0,120,119,4.0,0.0
9317,64.0,0,119,4.0,0.0
9318,64.0,0,104,10.0,0.0
9319,55.0,0,59,6.0,0.0
9320,52.0,0,59,15.0,0.0
9321,52.0,15,44,6.0,0.0
9322,57.0,120,119,15.0,0.0
9323,62.0,60,359,3.0,0.0
9324,86.0,0,359,0.0,0.0
9325,62.0,0,119,10.0,0.0
9326,66.0,0,119,11.0,0.0
9327,57.0,0,119,6.0,0.0
9328,54.0,0,119,4.0,0.0
9329,62.0,0,119,10.0,0.0
9330,57.0,0,119,6.0,0.0
9331,66.0,60,119,11.0,0.0
9332,62.0,0,119,4.0,0.0
9333,57.0,0,119,6.0,0.0
9334,67.0,60,59,11.0,0.0
9335,64.0,0,119,10.0,0.0
9336,66.0,0,59,11.0,0.0
9337,64.0,0,59,11.0,0.0
9338,66.0,60,119,4.0,0.0
9339,62.0,0,119,4.0,0.0
9340,57.0,0,119,6.0,0.0
9341,85.0,0,59,0.0,0.0
9342,61.0,60,59,3.0,0.0
9343,66.0,0,119,10.0,0.0
9344,59.0,0,59,3.0,0.0
9345,83.0,0,59,0.0,0.0
9346,62.0,0,59,11.0,0.0
9347,57.0,0,179,6.0,0.0
9348,62.0,60,179,11.0,0.0
9349,57.0,60,59,3.0,0.0
9350,81.0,0,59,0.0,0.0
9351,66.0,0,179,10.0,0.0
9352,62.0,60,59,3.0,0.0
9353,86.0,0,59,0.0,0.0
9354,66.0,0,59,3.0,0.0
9355,90.0,0,59,0.0,0.0
9356,57.0,0,119,4.0,0.0
9357,64.0,0,119,4.0,0.0
9358,61.0,0,59,11.0,0.0
9359,64.0,0,59,3.0,0.0
9360,64.0,60,59,10.0,0.0
9361,88.0,0,59,0.0,0.0
9362,45.0,0,59,6.0,0.0
9363,61.0,15,104,11.0,0.0
9364,64.0,15,224,10.0,0.0
9365,88.0,0,59,0.0,0.0
9366,45.0,0,119,6.0,0.0
9367,64.0,45,59,3.0,0.0
9368,69.0,60,59,3.0,0.0
9369,93.0,0,59,0.0,0.0
9370,45.0,0,59,15.0,0.0
9371,67.0,0,59,3.0,0.0
9372,47.0,0,59,6.0,0.0
9373,91.0,45,59,0.0,0.0
9374,57.0,0,119,4.0,0.0
9375,57.0,0,59,11.0,0.0
9376,64.0,0,119,4.0,0.0
9377,47.0,0,59,15.0,0.0
9378,64.0,0,59,3.0,0.0
9379,49.0,120,59,15.0,0.0
9380,49.0,0,44,6.0,0.0
9381,55.0,0,44,11.0,0.0
9382,88.0,0,59,0.0,0.0
9383,50.0,0,359,15.0,0.0
9384,54.0,0,119,4.0,0.0
9385,66.0,0,119,10.0,0.0
9386,54.0,0,119,11.0,0.0
9387,50.0,0,119,6.0,0.0
9388,62.0,0,119,4.0,0.0
9389,62.0,0,119,3.0,0.0
9390,86.0,0,119,0.0,0.0
9391,74.0,120,119,8.0,0.0
9392,66.0,0,119,10.0,0.0
9393,57.0,0,119,11.0,0.0
9394,50.0,0,119,6.0,0.0
9395,74.0,0,119,8.0,0.0
9396,62.0,120,119,4.0,0.0
9397,66.0,0,119,4.0,0.0
9398,50.0,60,119,6.0,0.0
9399,57.0,0,119,11.0,0.0
9400,67.0,0,119,10.0,0.0
9401,76.0,0,119,8.0,0.0
9402,78.0,0,119,8.0,0.0
9403,69.0,0,119,10.0,0.0
9404,49.0,0,59,15.0,0.0
9405,66.0,0,119,4.0,0.0
9406,69.0,0,119,4.0,0.0
9407,57.0,60,59,11.0,0.0
9408,49.0,0,59,6.0,0.0
9409,62.0,0,59,11.0,0.0
9410,47.0,0,59,15.0,0.0
9411,47.0,60,59,6.0,0.0
9412,69.0,0,119,10.0,0.0
9413,61.0,0,59,11.0,0.0
9414,45.0,0,59,15.0,0.0
9415,45.0,60,59,6.0,0.0
9416,78.0,0,119,8.0,0.0
9417,47.0,60,59,15.0,0.0
9418,47.0,0,59,6.0,0.0
9419,62.0,0,59,11.0,0.0
9420,67.0,0,119,4.0,0.0
9421,67.0,0,119,10.0,0.0
9422,49.0,0,59,6.0,0.0
9423,49.0,0,59,15.0,0.0
9424,76.0,0,119,8.0,0.0
9425,64.0,60,119,4.0,0.0
9426,64.0,60,59,11.0,0.0
9427,66.0,0,59,11.0,0.0
9428,50.0,0,59,6.0,0.0
9429,50.0,0,59,15.0,0.0
9430,74.0,60,119,8.0,0.0
9431,52.0,0,59,15.0,0.0
9432,66.0,0,119,10.0,0.0
9433,52.0,60,59,6.0,0.0
9434,67.0,0,59,11.0,0.0
9435,57.0,0,59,11.0,0.0
9436,54.0,0,59,15.0,0.0
9437,54.0,0,59,6.0,0.0
9438,59.0,0,59,11.0,0.0
9439,64.0,0,104,10.0,0.0
9440,73.0,0,104,8.0,0.0
9441,55.0,45,59,15.0,0.0
9442,64.0,0,119,4.0,0.0
9443,57.0,0,119,4.0,0.0
9444,55.0,0,59,6.0,0.0
9445,52.0,15,44,6.0,0.0
9446,55.0,0,44,11.0,0.0
9447,52.0,120,59,15.0,0.0
9448,57.0,0,119,15.0,0.0
9449,54.0,0,119,11.0,0.0
9450,86.0,0,359,0.0,0.0
9451,57.0,0,119,6.0,0.0
9452,74.0,120,119,8.0,0.0
9453,62.0,0,359,3.0,0.0
9454,62.0,0,119,10.0,0.0
9455,62.0,0,119,4.0,0.0
9456,62.0,0,119,11.0,0.0
9457,66.0,120,119,10.0,0.0
9458,74.0,0,119,8.0,0.0
9459,54.0,0,119,4.0,0.0
9460,57.0,0,119,6.0,0.0
9461,62.0,0,119,11.0,0.0
9462,57.0,0,119,6.0,0.0
9463,67.0,60,119,10.0,0.0
9464,76.0,0,119,8.0,0.0
9465,78.0,0,119,8.0,0.0
9466,85.0,0,59,0.0,0.0
9467,57.0,0,119,6.0,0.0
9468,61.0,0,59,11.0,0.0
9469,69.0,0,119,10.0,0.0
9470,66.0,0,119,4.0,0.0
9471,61.0,60,59,3.0,0.0
9472,62.0,60,119,4.0,0.0
9473,59.0,0,59,3.0,0.0
9474,59.0,0,59,11.0,0.0
9475,83.0,0,59,0.0,0.0
9476,57.0,0,119,6.0,0.0
9477,85.0,0,59,0.0,0.0
9478,67.0,0,179,10.0,0.0
9479,61.0,60,179,11.0,0.0
9480,61.0,60,59,3.0,0.0
9481,76.0,0,179,8.0,0.0
9482,64.0,0,59,3.0,0.0
9483,88.0,60,59,0.0,0.0
9484,57.0,0,119,4.0,0.0
9485,67.0,0,59,3.0,0.0
9486,45.0,0,119,6.0,0.0
9487,64.0,0,119,4.0,0.0
9488,91.0,0,59,0.0,0.0
9489,74.0,0,59,8.0,0.0
9490,62.0,0,59,11.0,0.0
9491,66.0,0,59,10.0,0.0
9492,66.0,0,59,3.0,0.0
9493,90.0,60,59,0.0,0.0
9494,66.0,45,59,10.0,0.0
9495,74.0,15,224,8.0,0.0
9496,62.0,0,59,4.0,0.0
9497,90.0,0,59,0.0,0.0
9498,50.0,15,104,6.0,0.0
9499,62.0,0,59,11.0,0.0
9500,66.0,0,59,3.0,0.0
9501,54.0,0,59,4.0,0.0
9502,69.0,60,59,10.0,0.0
9503,62.0,0,59,3.0,0.0
9504,66.0,0,59,11.0,0.0
9505,86.0,0,59,0.0,0.0
9506,57.0,0,224,6.0,0.0
9507,64.0,0,59,11.0,0.0
9508,67.0,45,59,10.0,0.0
9509,61.0,0,59,3.0,0.0
9510,85.0,0,59,0.0,0.0
9511,62.0,0,44,11.0,0.0
9512,86.0,0,59,0.0,0.0
9513,66.0,0,44,10.0,0.0
9514,62.0,60,59,3.0,0.0
9515,57.0,0,119,4.0,0.0
9516,64.0,0,104,10.0,0.0
9517,61.0,0,104,11.0,0.0
9518,64.0,60,119,4.0,0.0
9519,88.0,0,119,0.0,0.0
9520,76.0,15,104,8.0,0.0
9521,64.0,0,119,3.0,0.0
9522,45.0,45,59,15.0,0.0
9523,45.0,0,59,15.0,0.0
9524,61.0,0,119,11.0,0.0
9525,76.0,0,119,8.0,0.0
9526,57.0,60,119,6.0,0.0
9527,69.0,0,119,10.0,0.0
9528,52.0,60,59,15.0,0.0
9529,49.0,0,59,15.0,0.0
9530,57.0,60,59,15.0,0.0
9531,62.0,60,119,11.0,0.0
9532,78.0,0,119,8.0,0.0
9533,69.0,0,119,10.0,0.0
9534,62.0,0,119,4.0,0.0
9535,66.0,0,119,4.0,0.0
9536,57.0,0,179,6.0,0.0
9537,57.0,0,59,3.0,0.0
9538,81.0,0,59,0.0,0.0
9539,62.0,0,59,11.0,0.0
9540,66.0,0,59,3.0,0.0
9541,66.0,60,59,10.0,0.0
9542,74.0,0,119,8.0,0.0
9543,90.0,0,59,0.0,0.0
9544,45.0,0,59,6.0,0.0
9545,66.0,60,59,11.0,0.0
9546,62.0,0,59,3.0,0.0
9547,86.0,0,59,0.0,0.0
9548,69.0,0,59,10.0,0.0
9549,57.0,0,59,6.0,0.0
9550,67.0,0,119,3.0,0.0
9551,91.0,0,119,0.0,0.0
9552,76.0,0,119,8.0,0.0
9553,45.0,60,59,15.0,0.0
9554,69.0,0,119,10.0,0.0
9555,61.0,60,119,11.0,0.0
9556,52.0,0,59,6.0,0.0
9557,45.0,0,59,15.0,0.0
9558,64.0,60,119,4.0,0.0
9559,57.0,0,59,15.0,0.0
9560,62.0,60,59,11.0,0.0
9561,78.0,0,59,8.0,0.0
9562,69.0,0,119,10.0,0.0
9563,57.0,0,119,4.0,0.0
9564,50.0,0,59,6.0,0.0
9565,49.0,0,59,6.0,0.0
9566,45.0,0,59,15.0,0.0
9567,79.0,0,59,8.0,0.0
9568,64.0,0,59,11.0,0.0
9569,50.0,0,179,6.0,0.0
9570,62.0,0,119,11.0,0.0
9571,57.0,60,59,15.0,0.0
9572,78.0,0,119,8.0,0.0
9573,69.0,0,119,10.0,0.0
9574,81.0,0,59,0.0,0.0
9575,57.0,60,59,3.0,0.0
9576,64.0,0,59,11.0,0.0
9577,66.0,0,59,3.0,0.0
9578,67.0,60,59,10.0,0.0
9579,62.0,0,119,4.0,0.0
9580,66.0,0,119,4.0,0.0
9581,90.0,0,59,0.0,0.0
9582,74.0,0,119,8.0,0.0
9583,62.0,0,59,11.0,0.0
9584,57.0,0,59,6.0,0.0
9585,86.0,0,59,0.0,0.0
9586,66.0,0,59,10.0,0.0
9587,62.0,60,59,3.0,0.0
9588,61.0,0,59,11.0,0.0
9589,45.0,60,59,15.0,0.0
9590,67.0,0,119,3.0,0.0
9591,57.0,0,119,6.0,0.0
9592,76.0,0,119,8.0,0.0
9593,91.0,0,119,0.0,0.0
9594,64.0,0,59,10.0,0.0
9595,73.0,0,59,10.0,0.0
9596,64.0,0,59,11.0,0.0
9597,45.0,60,59,15.0,0.0
9598,57.0,0,59,15.0,0.0
9599,74.0,60,59,10.0,0.0
9600,78.0,0,59,8.0,0.0
9601,57.0,0,119,4.0,0.0
9602,57.0,120,119,6.0,0.0
9603,62.0,0,59,11.0,0.0
9604,64.0,0,119,4.0,0.0
9605,79.0,0,59,8.0,0.0
9606,61.0,0,59,11.0,0.0
9607,61.0,0,59,3.0,0.0
9608,85.0,0,59,0.0,0.0
9609,76.0,0,59,10.0,0.0
9610,66.0,0,119,3.0,0.0
9611,73.0,120,119,10.0,0.0
9612,58.0,0,119,6.0,0.0
9613,90.0,0,119,0.0,0.0
9614,78.0,0,119,8.0,0.0
9615,61.0,0,119,11.0,0.0
9616,58.0,0,59,15.0,0.0
9617,54.0,0,119,15.0,0.0
9618,58.0,0,119,11.0,0.0
9619,54.0,0,119,6.0,0.0
9620,54.0,0,119,4.0,0.0
9621,66.0,0,119,4.0,0.0
9622,73.0,120,119,10.0,0.0
9623,76.0,0,119,8.0,0.0
9624,54.0,0,59,3.0,0.0
9625,78.0,0,59,0.0,0.0
9626,71.0,0,119,10.0,0.0
9627,59.0,0,119,11.0,0.0
9628,86.0,0,119,0.0,0.0
9629,74.0,0,119,8.0,0.0
9630,62.0,0,119,3.0,0.0
9631,59.0,120,119,6.0,0.0
9632,59.0,0,59,15.0,0.0
9633,52.0,0,119,15.0,0.0
9634,64.0,0,119,4.0,0.0
9635,68.0,105,119,10.0,0.0
9636,59.0,0,119,11.0,0.0
9637,76.0,0,119,8.0,0.0
9638,52.0,0,119,6.0,0.0
9639,88.0,0,59,0.0,0.0
9640,64.0,0,59,3.0,0.0
9641,57.0,0,119,3.0,0.0
9642,69.0,0,104,8.0,0.0
9643,57.0,0,104,6.0,0.0
9644,81.0,60,119,0.0,0.0
9645,69.0,0,104,10.0,0.0
9646,61.0,15,104,11.0,0.0
9647,57.0,0,59,15.0,0.0
9648,45.0,0,119,6.0,0.0
9649,78.0,0,239,8.0,0.0
9650,62.0,0,239,11.0,0.0
9651,45.0,60,59,15.0,0.0
9652,69.0,0,239,10.0,0.0
9653,62.0,0,119,4.0,0.0
9654,54.0,120,119,4.0,0.0
9655,45.0,0,59,15.0,0.0
9656,50.0,120,119,6.0,0.0
9657,50.0,0,359,15.0,0.0
9658,62.0,0,119,4.0,0.0
9659,66.0,0,119,4.0,0.0
9660,78.0,0,119,8.0,0.0
9661,50.0,0,119,6.0,0.0
9662,69.0,120,119,10.0,0.0
9663,62.0,0,119,11.0,0.0
9664,69.0,0,119,10.0,0.0
9665,64.0,0,119,11.0,0.0
9666,79.0,0,119,8.0,0.0
9667,62.0,60,119,6.0,0.0
9668,61.0,60,59,6.0,0.0
9669,49.0,0,59,15.0,0.0
9670,66.0,0,119,11.0,0.0
9671,81.0,0,119,8.0,0.0
9672,69.0,0,119,10.0,0.0
9673,66.0,60,119,4.0,0.0
9674,69.0,0,119,4.0,0.0
9675,59.0,0,59,6.0,0.0
9676,47.0,0,59,15.0,0.0
9677,66.0,0,119,11.0,0.0
9678,69.0,0,104,10.0,0.0
9679,81.0,15,104,8.0,0.0
9680,45.0,0,59,15.0,0.0
9681,57.0,45,59,6.0,0.0
9682,47.0,0,44,6.0,0.0
9683,47.0,60,59,15.0,0.0
9684,64.0,0,119,4.0,0.0
9685,67.0,0,119,4.0,0.0
9686,49.0,0,59,6.0,0.0
9687,49.0,45,59,15.0,0.0
9688,79.0,0,119,8.0,0.0
9689,64.0,15,104,11.0,0.0
9690,69.0,0,119,10.0,0.0
9691,50.0,0,59,6.0,0.0
9692,50.0,60,59,15.0,0.0
9693,52.0,0,59,6.0,0.0
9694,78.0,0,119,8.0,0.0
9695,69.0,0,119,10.0,0.0
9696,52.0,60,59,15.0,0.0
9697,62.0,60,119,11.0,0.0
9698,54.0,0,59,6.0,0.0
9699,54.0,0,59,15.0,0.0
9700,64.0,0,119,4.0,0.0
9701,76.0,0,119,8.0,0.0
9702,55.0,0,59,6.0,0.0
9703,69.0,120,119,10.0,0.0
9704,55.0,60,59,15.0,0.0
9705,61.0,0,119,11.0,0.0
9706,57.0,0,119,4.0,0.0
9707,52.0,0,59,6.0,0.0
9708,52.0,0,59,15.0,0.0
9709,74.0,0,119,8.0,0.0
9710,62.0,0,359,3.0,0.0
9711,54.0,120,119,15.0,0.0
9712,62.0,0,119,11.0,0.0
9713,69.0,0,119,10.0,0.0
9714,86.0,0,359,0.0,0.0
9715,54.0,0,119,6.0,0.0
9716,66.0,0,119,10.0,0.0
9717,50.0,0,119,6.0,0.0
9718,57.0,0,119,11.0,0.0
9719,74.0,0,119,8.0,0.0
9720,62.0,120,119,4.0,0.0
9721,54.0,0,119,4.0,0.0
9722,67.0,0,119,10.0,0.0
9723,45.0,60,119,6.0,0.0
9724,76.0,0,119,8.0,0.0
9725,57.0,0,119,11.0,0.0
9726,62.0,0,119,4.0,0.0
9727,85.0,0,59,0.0,0.0
9728,57.0,0,119,11.0,0.0
9729,45.0,0,119,6.0,0.0
9730,78.0,0,119,8.0,0.0
9731,69.0,60,119,10.0,0.0
9732,61.0,60,59,3.0,0.0
9733,66.0,0,119,4.0,0.0
9734,59.0,0,59,3.0,0.0
9735,83.0,0,59,0.0,0.0
9736,61.0,0,59,3.0,0.0
9737,61.0,0,179,11.0,0.0
9738,57.0,0,119,6.0,0.0
9739,85.0,60,59,0.0,0.0
9740,76.0,0,179,8.0,0.0
9741,67.0,0,179,10.0,0.0
9742,64.0,0,59,3.0,0.0
9743,88.0,60,59,0.0,0.0
9744,57.0,0,119,4.0,0.0
9745,64.0,0,119,4.0,0.0
9746,67.0,0,59,3.0,0.0
9747,45.0,0,119,6.0,0.0
9748,91.0,60,59,0.0,0.0
9749,66.0,0,59,10.0,0.0
9750,62.0,0,59,11.0,0.0
9751,74.0,0,59,8.0,0.0
9752,66.0,60,59,3.0,0.0
9753,90.0,0,59,0.0,0.0
9754,66.0,60,59,3.0,0.0
9755,50.0,0,239,6.0,0.0
9756,66.0,0,239,10.0,0.0
9757,74.0,0,239,8.0,0.0
9758,62.0,0,239,11.0,0.0
9759,90.0,0,59,0.0,0.0
9760,62.0,0,59,3.0,0.0
9761,86.0,60,59,0.0,0.0
9762,57.0,45,179,14.0,0.0
9763,61.0,0,59,3.0,0.0
9764,57.0,0,179,15.0,0.0
9765,45.0,0,179,15.0,0.0
9766,85.0,60,59,0.0,0.0
9767,57.0,15,224,11.0,0.0
9768,54.0,0,119,4.0,0.0
9769,62.0,60,119,4.0,0.0
9770,86.0,0,59,0.0,0.0
9771,62.0,0,59,3.0,0.0
9772,61.0,0,119,3.0,0.0
9773,64.0,0,119,3.0,0.0
9774,57.0,0,119,4.0,0.0
9775,61.0,0,104,11.0,0.0
9776,64.0,0,119,4.0,0.0
9777,69.0,0,104,10.0,0.0
9778,57.0,0,119,5.0,0.0
9779,45.0,60,119,7.0,0.0
9780,76.0,0,104,8.0,0.0
9781,85.0,0,119,0.0,0.0
9782,69.0,0,119,5.0,0.0
9783,88.0,0,119,0.0,0.0
9784,76.0,0,119,2.0,0.0
9785,73.0,0,119,2.0,0.0
9786,73.0,0,119,1.0,0.0
9787,76.0,0,119,1.0,0.0
9788,45.0,0,59,15.0,0.0
9789,33.0,0,59,15.0,0.0
9790,52.0,0,59,14.0,0.0
9791,76.0,0,119,1.0,0.0
9792,40.0,60,59,15.0,0.0
9793,76.0,0,119,8.0,0.0
9794,73.0,0,119,1.0,0.0
9795,45.0,0,119,11.0,0.0
9796,52.0,0,59,15.0,0.0
9797,64.0,0,119,4.0,0.0
9798,73.0,0,119,2.0,0.0
9799,76.0,0,119,2.0,0.0
9800,57.0,0,119,4.0,0.0
9801,61.0,0,59,14.0,0.0
9802,61.0,0,119,11.0,0.0
9803,69.0,60,119,10.0,0.0
9804,37.0,0,59,15.0,0.0
9805,57.0,0,59,14.0,0.0
9806,49.0,0,59,15.0,0.0
9807,57.0,60,59,15.0,0.0
9808,66.0,0,59,13.0,0.0
9809,62.0,0,59,14.0,0.0
9810,45.0,0,59,15.0,0.0
9811,69.0,0,59,12.0,0.0
9812,69.0,0,119,10.0,0.0
9813,74.0,0,119,2.0,0.0
9814,62.0,0,119,4.0,0.0
9815,66.0,0,119,4.0,0.0
9816,62.0,0,119,11.0,0.0
9817,78.0,0,119,2.0,0.0
9818,78.0,0,119,1.0,0.0
9819,74.0,60,119,1.0,0.0
9820,78.0,0,119,8.0,0.0
9821,57.0,0,119,11.0,0.0
9822,66.0,0,59,13.0,0.0
9823,57.0,0,59,3.0,0.0
9824,81.0,0,59,0.0,0.0
9825,69.0,0,59,12.0,0.0
9826,74.0,0,119,8.0,0.0
9827,69.0,0,119,10.0,0.0
9828,66.0,0,59,3.0,0.0
9829,74.0,0,59,13.0,0.0
9830,45.0,0,59,7.0,0.0
9831,90.0,0,59,0.0,0.0
9832,57.0,0,119,11.0,0.0
9833,74.0,0,119,1.0,0.0
9834,74.0,0,119,2.0,0.0
9835,66.0,0,119,2.0,0.0
9836,69.0,60,59,5.0,0.0
9837,66.0,0,119,1.0,0.0
9838,78.0,0,59,12.0,0.0
9839,66.0,0,119,11.0,0.0
9840,57.0,0,59,5.0,0.0
9841,62.0,60,119,4.0,0.0
9842,54.0,0,119,4.0,0.0
9843,45.0,0,59,7.0,0.0
9844,86.0,0,59,0.0,0.0
9845,62.0,0,59,3.0,0.0
9846,69.0,0,59,13.0,0.0
9847,69.0,0,59,5.0,0.0
9848,57.0,0,59,5.0,0.0
9849,74.0,0,59,12.0,0.0
9850,57.0,0,59,14.0,0.0
9851,69.0,0,119,5.0,0.0
9852,57.0,0,119,5.0,0.0
9853,91.0,0,59,0.0,0.0
9854,45.0,0,119,7.0,0.0
9855,69.0,0,119,10.0,0.0
9856,33.0,0,59,15.0,0.0
9857,57.0,0,119,4.0,0.0
9858,45.0,0,59,15.0,0.0
9859,57.0,0,119,11.0,0.0
9860,76.0,0,119,1.0,0.0
9861,73.0,0,119,1.0,0.0
9862,76.0,0,119,8.0,0.0
9863,73.0,0,119,13.0,0.0
9864,67.0,60,59,3.0,0.0
9865,73.0,0,119,2.0,0.0
9866,79.0,0,119,12.0,0.0
9867,61.0,0,119,11.0,0.0
9868,76.0,0,119,2.0,0.0
9869,64.0,0,119,4.0,0.0
9870,57.0,0,59,14.0,0.0
9871,45.0,0,59,15.0,0.0
9872,33.0,60,59,15.0,0.0
9873,45.0,0,59,15.0,0.0
9874,62.0,0,59,11.0,0.0
9875,78.0,0,59,2.0,0.0
9876,45.0,0,119,11.0,0.0
9877,62.0,0,59,4.0,0.0
9878,78.0,0,59,8.0,0.0
9879,78.0,0,59,1.0,0.0
9880,74.0,0,59,2.0,0.0
9881,74.0,0,59,1.0,0.0
9882,66.0,0,59,4.0,0.0
9883,62.0,60,59,14.0,0.0
9884,69.0,0,119,10.0,0.0
9885,57.0,0,59,15.0,0.0
9886,79.0,0,59,2.0,0.0
9887,76.0,0,59,2.0,0.0
9888,67.0,0,59,4.0,0.0
9889,64.0,60,59,11.0,0.0
9890,76.0,0,59,1.0,0.0
9891,79.0,0,59,8.0,0.0
9892,57.0,0,59,14.0,0.0
9893,79.0,0,59,1.0,0.0
9894,64.0,0,59,4.0,0.0
9895,74.0,0,119,1.0,0.0
9896,66.0,0,59,13.0,0.0
9897,62.0,0,119,4.0,0.0
9898,66.0,60,119,4.0,0.0
9899,62.0,0,119,11.0,0.0
9900,45.0,0,59,15.0,0.0
9901,57.0,0,119,11.0,0.0
9902,33.0,0,59,15.0,0.0
9903,78.0,60,59,2.0,0.0
9904,78.0,0,119,8.0,0.0
9905,62.0,0,59,14.0,0.0
9906,69.0,0,59,12.0,0.0
9907,78.0,0,119,1.0,0.0
9908,74.0,0,59,2.0,0.0
9909,69.0,0,119,10.0,0.0
9910,81.0,0,59,0.0,0.0
9911,69.0,0,59,12.0,0.0
9912,45.0,0,59,15.0,0.0
9913,74.0,0,59,13.0,0.0
9914,57.0,0,59,3.0,0.0
9915,57.0,0,59,15.0,0.0
9916,66.0,0,59,2.0,0.0
9917,69.0,0,59,2.0,0.0
9918,67.0,0,59,13.0,0.0
9919,74.0,0,119,8.0,0.0
9920,67.0,0,59,10.0,0.0
9921,64.0,0,59,2.0,0.0
9922,67.0,0,59,2.0,0.0
9923,76.0,0,59,12.0,0.0
9924,50.0,0,119,4.0,0.0
9925,74.0,0,119,1.0,0.0
9926,45.0,0,59,7.0,0.0
9927,64.0,60,59,11.0,0.0
9928,57.0,0,59,5.0,0.0
9929,57.0,0,119,11.0,0.0
9930,64.0,0,59,3.0,0.0
9931,62.0,0,119,4.0,0.0
9932,88.0,0,59,0.0,0.0
9933,69.0,0,59,5.0,0.0
9934,69.0,0,119,1.0,0.0
9935,74.0,0,59,13.0,0.0
9936,66.0,0,59,2.0,0.0
9937,69.0,0,59,5.0,0.0
9938,57.0,0,59,5.0,0.0
9939,66.0,0,59,3.0,0.0
9940,66.0,0,59,10.0,0.0
9941,90.0,0,59,0.0,0.0
9942,78.0,0,59,12.0,0.0
9943,45.0,60,59,7.0,0.0
9944,62.0,0,59,11.0,0.0
9945,62.0,0,59,2.0,0.0
9946,69.0,0,119,10.0,0.0
9947,73.0,60,119,1.0,0.0
9948,57.0,0,119,4.0,0.0
9949,64.0,0,119,4.0,0.0
9950,61.0,0,119,11.0,0.0
9951,91.0,0,119,0.0,0.0
9952,79.0,0,119,12.0,0.0
9953,76.0,0,119,8.0,0.0
9954,45.0,0,119,7.0,0.0
9955,76.0,0,119,1.0,0.0
9956,67.0,0,119,3.0,0.0
9957,64.0,0,59,2.0,0.0
9958,57.0,0,119,11.0,0.0
9959,49.0,0,59,14.0,0.0
9960,69.0,0,119,5.0,0.0
9961,61.0,0,59,2.0,0.0
9962,57.0,0,119,5.0,0.0
9963,76.0,0,119,13.0,0.0
9964,45.0,45,14,15.0,0.0
9965,33.0,0,14,15.0,0.0
9966,73.0,0,59,2.0,0.0
9967,49.0,0,59,14.0,0.0
9968,76.0,0,59,2.0,0.0
9969,78.0,0,59,8.0,0.0
9970,57.0,0,59,14.0,0.0
9971,57.0,0,119,11.0,0.0
9972,45.0,0,59,15.0,0.0
9973,78.0,0,59,2.0,0.0
9974,74.0,0,59,2.0,0.0
9975,62.0,0,59,4.0,0.0
9976,74.0,60,59,1.0,0.0
9977,61.0,0,119,11.0,0.0
9978,66.0,0,59,4.0,0.0
9979,78.0,0,59,1.0,0.0
9980,64.0,0,119,10.0,0.0
9981,57.0,0,59,15.0,0.0
9982,76.0,0,59,2.0,0.0
9983,73.0,0,59,12.0,0.0
9984,79.0,0,59,8.0,0.0
9985,64.0,0,59,13.0,0.0
9986,79.0,0,59,2.0,0.0
9987,85.0,0,59,0.0,0.0
9988,76.0,0,59,1.0,0.0
9989,79.0,0,59,1.0,0.0
9990,67.0,120,59,4.0,0.0
9991,64.0,0,59,4.0,0.0
9992,61.0,0,59,3.0,0.0
9993,78.0,0,119,1.0,0.0
9994,73.0,0,119,1.0,0.0
9995,61.0,0,119,11.0,0.0
9996,73.0,0,119,13.0,0.0
9997,58.0,0,119,11.0,0.0
9998,90.0,0,119,0.0,0.0
9999,66.0,0,119,4.0,0.0
10000,66.0,0,119,3.0,0.0
10001,78.0,0,119,8.0,0.0
10002,78.0,0,119,12.0,0.0
10003,78.0,0,119,2.0,0.0
10004,54.0,0,119,4.0,0.0
10005,73.0,120,119,2.0,0.0
10006,66.0,0,119,10.0,0.0
10007,46.0,0,59,15.0,0.0
10008,58.0,0,59,14.0,0.0
10009,58.0,0,59,15.0,0.0
10010,66.0,0,119,4.0,0.0
10011,66.0,0,119,14.0,0.0
10012,76.0,0,119,1.0,0.0
10013,54.0,0,119,11.0,0.0
10014,54.0,0,119,4.0,0.0
10015,54.0,0,119,15.0,0.0
10016,73.0,0,119,2.0,0.0
10017,76.0,0,119,2.0,0.0
10018,76.0,0,119,8.0,0.0
10019,58.0,0,119,11.0,0.0
10020,42.0,120,119,15.0,0.0
10021,73.0,0,119,1.0,0.0
10022,66.0,0,119,10.0,0.0
10023,78.0,0,59,0.0,0.0
10024,66.0,0,59,12.0,0.0
10025,73.0,0,59,13.0,0.0
10026,54.0,0,59,3.0,0.0
10027,64.0,0,59,13.0,0.0
10028,74.0,0,119,12.0,0.0
10029,86.0,0,119,0.0,0.0
10030,66.0,0,119,10.0,0.0
10031,71.0,0,119,13.0,0.0
10032,54.0,0,119,4.0,0.0
10033,66.0,0,119,4.0,0.0
10034,62.0,0,119,13.0,0.0
10035,59.0,0,119,11.0,0.0
10036,62.0,0,119,3.0,0.0
10037,71.0,0,119,2.0,0.0
10038,71.0,0,119,1.0,0.0
10039,74.0,0,119,2.0,0.0
10040,74.0,0,119,8.0,0.0
10041,74.0,0,119,1.0,0.0
10042,62.0,0,59,14.0,0.0
10043,47.0,0,59,15.0,0.0
10044,59.0,0,59,15.0,0.0
10045,59.0,0,59,14.0,0.0
10046,64.0,0,119,4.0,0.0
10047,68.0,0,119,10.0,0.0
10048,68.0,60,59,14.0,0.0
10049,59.0,0,119,11.0,0.0
10050,76.0,0,119,1.0,0.0
10051,68.0,0,119,1.0,0.0
10052,76.0,60,119,8.0,0.0
10053,76.0,0,119,2.0,0.0
10054,52.0,0,119,11.0,0.0
10055,68.0,0,119,2.0,0.0
10056,40.0,0,119,15.0,0.0
10057,52.0,0,119,15.0,0.0
10058,68.0,0,59,13.0,0.0
10059,88.0,0,59,0.0,0.0
10060,76.0,0,59,12.0,0.0
10061,64.0,0,59,3.0,0.0
10062,69.0,15,104,10.0,0.0
10063,57.0,0,104,11.0,0.0
10064,69.0,0,104,8.0,0.0
10065,69.0,0,59,13.0,0.0
10066,69.0,45,59,12.0,0.0
10067,61.0,0,59,13.0,0.0
10068,61.0,0,104,11.0,0.0
10069,57.0,0,119,3.0,0.0
10070,69.0,0,119,2.0,0.0
10071,81.0,0,119,0.0,0.0
10072,57.0,0,119,4.0,0.0
10073,69.0,60,119,1.0,0.0
10074,45.0,0,119,7.0,0.0
10075,57.0,0,119,5.0,0.0
10076,69.0,0,119,5.0,0.0
10077,57.0,0,59,15.0,0.0
10078,57.0,0,59,14.0,0.0
10079,45.0,0,59,15.0,0.0
10080,69.0,0,59,12.0,0.0
10081,66.0,0,59,13.0,0.0
10082,66.0,0,239,4.0,0.0
10083,62.0,0,239,11.0,0.0
10084,74.0,60,59,13.0,0.0
10085,62.0,0,239,4.0,0.0
10086,69.0,0,59,5.0,0.0
10087,69.0,0,59,14.0,0.0
10088,78.0,0,239,2.0,0.0
10089,74.0,0,239,2.0,0.0
10090,69.0,0,239,10.0,0.0
10091,57.0,0,59,5.0,0.0
10092,78.0,0,239,8.0,0.0
10093,45.0,0,59,15.0,0.0
10094,74.0,0,239,1.0,0.0
10095,78.0,0,239,1.0,0.0
10096,45.0,0,59,7.0,0.0
10097,33.0,0,59,15.0,0.0
10098,45.0,0,119,11.0,0.0
10099,78.0,0,59,12.0,0.0
10100,57.0,0,59,3.0,0.0
10101,45.0,0,59,15.0,0.0
10102,81.0,0,59,0.0,0.0
10103,33.0,0,59,15.0,0.0
10104,69.0,0,59,5.0,0.0
10105,57.0,0,59,14.0,0.0
10106,57.0,0,59,5.0,0.0
10107,45.0,60,59,7.0,0.0
10108,38.0,0,359,15.0,0.0
10109,62.0,0,119,5.0,0.0
10110,74.0,0,119,5.0,0.0
10111,50.0,0,119,7.0,0.0
10112,90.0,0,59,0.0,0.0
10113,50.0,0,119,11.0,0.0
10114,50.0,0,359,15.0,0.0
10115,66.0,60,59,3.0,0.0
10116,50.0,60,119,14.0,0.0
10117,57.0,0,59,3.0,0.0
10118,66.0,0,59,13.0,0.0
10119,69.0,0,59,12.0,0.0
10120,81.0,0,59,0.0,0.0
10121,62.0,0,119,11.0,0.0
10122,90.0,60,59,0.0,0.0
10123,74.0,0,119,1.0,0.0
10124,78.0,0,119,1.0,0.0
10125,78.0,0,119,8.0,0.0
10126,66.0,0,119,4.0,0.0
10127,69.0,120,119,10.0,0.0
10128,74.0,0,119,2.0,0.0
10129,78.0,0,119,2.0,0.0
10130,50.0,0,119,11.0,0.0
10131,78.0,0,119,12.0,0.0
10132,66.0,0,59,3.0,0.0
10133,62.0,0,119,4.0,0.0
10134,69.0,0,119,13.0,0.0
10135,50.0,0,59,14.0,0.0
10136,76.0,0,119,1.0,0.0
10137,50.0,0,119,11.0,0.0
10138,62.0,0,119,14.0,0.0
10139,69.0,0,119,10.0,0.0
10140,79.0,0,119,1.0,0.0
10141,76.0,0,119,2.0,0.0
10142,64.0,0,119,11.0,0.0
10143,79.0,0,119,8.0,0.0
10144,67.0,60,119,4.0,0.0
10145,64.0,0,119,4.0,0.0
10146,79.0,0,119,2.0,0.0
10147,66.0,0,59,13.0,0.0
10148,69.0,0,59,12.0,0.0
10149,81.0,0,59,0.0,0.0
10150,45.0,0,59,3.0,0.0
10151,57.0,0,119,3.0,0.0
10152,93.0,0,59,0.0,0.0
10153,69.0,0,119,10.0,0.0
10154,66.0,0,119,4.0,0.0
10155,74.0,0,119,5.0,0.0
10156,62.0,0,119,5.0,0.0
10157,81.0,0,119,2.0,0.0
10158,78.0,0,119,2.0,0.0
10159,37.0,0,59,15.0,0.0
10160,78.0,60,119,13.0,0.0
10161,69.0,0,119,4.0,0.0
10162,50.0,0,119,7.0,0.0
10163,81.0,0,119,1.0,0.0
10164,49.0,60,59,11.0,0.0
10165,78.0,0,119,1.0,0.0
10166,81.0,0,119,12.0,0.0
10167,49.0,0,59,15.0,0.0
10168,81.0,0,119,8.0,0.0
10169,66.0,0,119,11.0,0.0
10170,35.0,0,59,15.0,0.0
10171,47.0,0,59,15.0,0.0
10172,50.0,0,59,14.0,0.0
10173,47.0,0,59,11.0,0.0
10174,45.0,0,119,7.0,0.0
10175,78.0,60,119,2.0,0.0
10176,78.0,0,119,1.0,0.0
10177,45.0,0,59,11.0,0.0
10178,33.0,45,59,15.0,0.0
10179,66.0,0,119,4.0,0.0
10180,69.0,0,119,4.0,0.0
10181,57.0,0,119,5.0,0.0
10182,69.0,0,119,5.0,0.0
10183,81.0,0,104,8.0,0.0
10184,81.0,0,119,1.0,0.0
10185,81.0,0,119,2.0,0.0
10186,69.0,15,104,10.0,0.0
10187,66.0,0,104,11.0,0.0
10188,45.0,0,59,15.0,0.0
10189,57.0,0,119,14.0,0.0
10190,35.0,0,59,15.0,0.0
10191,81.0,0,59,0.0,0.0
10192,47.0,0,44,11.0,0.0
10193,47.0,0,59,15.0,0.0
10194,69.0,0,59,13.0,0.0
10195,69.0,0,59,12.0,0.0
10196,57.0,0,59,3.0,0.0
10197,69.0,0,119,10.0,0.0
10198,37.0,0,59,15.0,0.0
10199,76.0,0,119,2.0,0.0
10200,79.0,0,119,2.0,0.0
10201,79.0,0,119,12.0,0.0
10202,79.0,0,119,8.0,0.0
10203,91.0,0,119,0.0,0.0
10204,49.0,0,59,15.0,0.0
10205,49.0,60,59,11.0,0.0
10206,76.0,0,119,1.0,0.0
10207,76.0,0,119,13.0,0.0
10208,67.0,0,119,3.0,0.0
10209,64.0,0,119,11.0,0.0
10210,79.0,0,119,1.0,0.0
10211,67.0,0,119,4.0,0.0
10212,64.0,0,119,4.0,0.0
10213,38.0,0,59,15.0,0.0
10214,50.0,60,59,15.0,0.0
10215,50.0,0,59,11.0,0.0
10216,57.0,0,59,14.0,0.0
10217,74.0,0,119,1.0,0.0
10218,78.0,0,119,1.0,0.0
10219,69.0,0,119,14.0,0.0
10220,52.0,0,59,11.0,0.0
10221,78.0,0,119,2.0,0.0
10222,74.0,0,119,2.0,0.0
10223,66.0,0,119,4.0,0.0
10224,78.0,60,119,8.0,0.0
10225,62.0,0,119,4.0,0.0
10226,69.0,0,119,10.0,0.0
10227,62.0,0,119,11.0,0.0
10228,40.0,0,59,15.0,0.0
10229,52.0,60,59,15.0,0.0
10230,54.0,0,59,15.0,0.0
10231,42.0,0,59,15.0,0.0
10232,81.0,0,59,0.0,0.0
10233,54.0,0,59,11.0,0.0
10234,69.0,0,59,12.0,0.0
10235,62.0,0,59,13.0,0.0
10236,57.0,0,59,3.0,0.0
10237,76.0,0,119,2.0,0.0
10238,64.0,0,119,3.0,0.0
10239,43.0,0,59,15.0,0.0
10240,69.0,0,59,5.0,0.0
10241,61.0,0,119,11.0,0.0
10242,73.0,0,119,2.0,0.0
10243,73.0,0,119,1.0,0.0
10244,76.0,0,119,1.0,0.0
10245,57.0,0,119,4.0,0.0
10246,55.0,0,59,11.0,0.0
10247,64.0,120,119,4.0,0.0
10248,69.0,0,119,10.0,0.0
10249,45.0,60,59,7.0,0.0
10250,88.0,0,119,0.0,0.0
10251,76.0,0,119,8.0,0.0
10252,55.0,0,59,15.0,0.0
10253,76.0,0,119,12.0,0.0
10254,57.0,0,59,5.0,0.0
10255,73.0,0,119,13.0,0.0
10256,57.0,0,59,14.0,0.0
10257,52.0,0,59,15.0,0.0
10258,45.0,0,59,7.0,0.0
10259,57.0,0,59,5.0,0.0
10260,40.0,0,59,15.0,0.0
10261,52.0,0,59,11.0,0.0
10262,69.0,0,59,5.0,0.0
10263,54.0,0,119,4.0,0.0
10264,69.0,0,119,5.0,0.0
10265,74.0,0,119,1.0,0.0
10266,62.0,120,119,11.0,0.0
10267,45.0,0,119,7.0,0.0
10268,57.0,0,119,5.0,0.0
10269,74.0,0,119,2.0,0.0
10270,69.0,0,119,2.0,0.0
10271,54.0,0,119,15.0,0.0
10272,69.0,0,119,14.0,0.0
10273,54.0,0,119,11.0,0.0
10274,69.0,0,119,1.0,0.0
10275,74.0,0,119,8.0,0.0
10276,42.0,0,119,15.0,0.0
10277,62.0,0,119,4.0,0.0
10278,69.0,0,119,10.0,0.0
10279,57.0,0,59,3.0,0.0
10280,69.0,0,59,12.0,0.0
10281,62.0,0,59,13.0,0.0
10282,81.0,0,59,0.0,0.0
10283,74.0,0,119,1.0,0.0
10284,54.0,0,119,4.0,0.0
10285,69.0,0,119,2.0,0.0
10286,74.0,0,119,2.0,0.0
10287,69.0,0,119,1.0,0.0
10288,86.0,0,119,0.0,0.0
10289,69.0,0,119,13.0,0.0
10290,66.0,0,119,10.0,0.0
10291,74.0,0,119,8.0,0.0
10292,62.0,0,119,4.0,0.0
10293,54.0,0,119,11.0,0.0
10294,62.0,0,119,3.0,0.0
10295,74.0,0,119,12.0,0.0
10296,57.0,60,119,11.0,0.0
10297,62.0,0,59,14.0,0.0
10298,54.0,0,59,15.0,0.0
10299,42.0,0,59,15.0,0.0
10300,50.0,0,119,11.0,0.0
10301,38.0,0,119,15.0,0.0
10302,57.0,60,119,11.0,0.0
10303,50.0,0,119,15.0,0.0
10304,76.0,0,119,2.0,0.0
10305,67.0,0,119,10.0,0.0
10306,76.0,0,119,8.0,0.0
10307,76.0,0,119,1.0,0.0
10308,67.0,60,59,1.0,0.0
10309,57.0,0,119,14.0,0.0
10310,57.0,0,119,4.0,0.0
10311,64.0,0,119,4.0,0.0
10312,67.0,0,59,2.0,0.0
10313,69.0,0,59,12.0,0.0
10314,57.0,0,59,3.0,0.0
10315,66.0,0,59,13.0,0.0
10316,73.0,0,59,2.0,0.0
10317,73.0,0,59,1.0,0.0
10318,81.0,0,59,0.0,0.0
10319,74.0,0,119,13.0,0.0
10320,62.0,0,119,4.0,0.0
10321,74.0,0,119,2.0,0.0
10322,78.0,60,119,2.0,0.0
10323,90.0,0,119,0.0,0.0
10324,66.0,0,119,4.0,0.0
10325,57.0,0,59,5.0,0.0
10326,74.0,0,119,1.0,0.0
10327,78.0,0,119,8.0,0.0
10328,50.0,0,119,11.0,0.0
10329,57.0,0,119,11.0,0.0
10330,69.0,0,119,10.0,0.0
10331,45.0,0,59,7.0,0.0
10332,78.0,0,119,12.0,0.0
10333,66.0,0,119,3.0,0.0
10334,78.0,0,119,1.0,0.0
10335,69.0,60,59,5.0,0.0
10336,66.0,0,59,14.0,0.0
10337,69.0,0,59,5.0,0.0
10338,38.0,0,59,15.0,0.0
10339,57.0,0,59,5.0,0.0
10340,45.0,0,59,7.0,0.0
10341,50.0,0,59,15.0,0.0
10342,73.0,60,59,2.0,0.0
10343,57.0,0,119,14.0,0.0
10344,45.0,0,119,7.0,0.0
10345,57.0,0,119,15.0,0.0
10346,61.0,0,179,11.0,0.0
10347,76.0,0,179,1.0,0.0
10348,73.0,0,119,1.0,0.0
10349,57.0,0,119,11.0,0.0
10350,45.0,0,119,15.0,0.0
10351,76.0,0,59,2.0,0.0
10352,67.0,0,179,10.0,0.0
10353,69.0,60,119,5.0,0.0
10354,57.0,0,119,5.0,0.0
10355,64.0,60,179,4.0,0.0
10356,76.0,0,179,8.0,0.0
10357,57.0,0,179,4.0,0.0
10358,57.0,0,59,3.0,0.0
10359,67.0,0,59,2.0,0.0
10360,64.0,0,59,2.0,0.0
10361,69.0,0,59,12.0,0.0
10362,67.0,0,59,13.0,0.0
10363,81.0,0,59,0.0,0.0
10364,64.0,0,119,3.0,0.0
10365,88.0,0,119,0.0,0.0
10366,45.0,120,119,11.0,0.0
10367,73.0,0,59,13.0,0.0
10368,73.0,0,59,2.0,0.0
10369,67.0,0,59,1.0,0.0
10370,76.0,0,59,12.0,0.0
10371,61.0,0,59,2.0,0.0
10372,62.0,0,59,4.0,0.0
10373,66.0,0,59,1.0,0.0
10374,66.0,0,59,10.0,0.0
10375,45.0,0,59,15.0,0.0
10376,33.0,0,59,15.0,0.0
10377,74.0,0,59,8.0,0.0
10378,62.0,0,59,11.0,0.0
10379,57.0,0,59,5.0,0.0
10380,45.0,0,59,7.0,0.0
10381,74.0,0,59,1.0,0.0
10382,69.0,0,59,5.0,0.0
10383,55.0,0,59,14.0,0.0
10384,74.0,0,59,2.0,0.0
10385,62.0,0,59,2.0,0.0
10386,54.0,0,59,4.0,0.0
10387,54.0,60,119,14.0,0.0
10388,62.0,0,119,5.0,0.0
10389,74.0,0,119,2.0,0.0
10390,62.0,0,119,2.0,0.0
10391,50.0,120,239,11.0,0.0
10392,66.0,0,239,10.0,0.0
10393,62.0,0,119,4.0,0.0
10394,54.0,0,119,4.0,0.0
10395,74.0,0,239,8.0,0.0
10396,50.0,0,119,15.0,0.0
10397,50.0,0,119,7.0,0.0
10398,38.0,0,119,15.0,0.0
10399,62.0,0,239,11.0,0.0
10400,66.0,0,119,1.0,0.0
10401,74.0,0,119,1.0,0.0
10402,81.0,0,59,0.0,0.0
10403,66.0,0,59,13.0,0.0
10404,69.0,0,59,12.0,0.0
10405,57.0,0,59,3.0,0.0
10406,69.0,0,119,4.0,0.0
10407,93.0,0,119,0.0,0.0
10408,90.0,0,119,0.0,0.0
10409,66.0,0,119,2.0,0.0
10410,69.0,0,119,2.0,0.0
10411,66.0,0,119,4.0,0.0
10412,69.0,60,59,13.0,0.0
10413,74.0,0,59,12.0,0.0
10414,81.0,0,119,1.0,0.0
10415,78.0,0,119,1.0,0.0
10416,62.0,0,59,3.0,0.0
10417,54.0,0,59,3.0,0.0
10418,66.0,0,59,14.0,0.0
10419,57.0,0,59,3.0,0.0
10420,50.0,0,59,15.0,0.0
10421,62.0,0,59,15.0,0.0
10422,62.0,0,119,5.0,0.0
10423,79.0,0,179,1.0,0.0
10424,76.0,0,179,1.0,0.0
10425,54.0,0,119,14.0,0.0
10426,52.0,0,179,3.0,0.0
10427,50.0,0,119,15.0,0.0
10428,74.0,0,119,5.0,0.0
10429,55.0,0,179,3.0,0.0
10430,64.0,0,179,2.0,0.0
10431,64.0,0,179,4.0,0.0
10432,67.0,60,179,2.0,0.0
10433,88.0,0,179,0.0,0.0
10434,38.0,0,119,15.0,0.0
10435,50.0,0,119,7.0,0.0
10436,67.0,0,179,4.0,0.0
10437,91.0,0,179,0.0,0.0
10438,69.0,60,59,12.0,0.0
10439,57.0,0,59,13.0,0.0
10440,69.0,0,59,13.0,0.0
10441,81.0,0,59,12.0,0.0
10442,78.0,0,59,1.0,0.0
10443,74.0,0,59,1.0,0.0
10444,50.0,0,59,3.0,0.0
10445,50.0,0,59,15.0,0.0
10446,66.0,0,59,4.0,0.0
10447,62.0,0,59,4.0,0.0
10448,54.0,0,59,3.0,0.0
10449,62.0,0,59,2.0,0.0
10450,66.0,0,59,2.0,0.0
10451,90.0,0,59,0.0,0.0
10452,86.0,0,59,0.0,0.0
10453,62.0,0,59,15.0,0.0
10454,66.0,120,59,14.0,0.0
10455,54.0,0,119,3.0,0.0
10456,86.0,0,119,0.0,0.0
10457,90.0,0,119,0.0,0.0
10458,54.0,0,119,14.0,0.0
10459,74.0,0,119,1.0,0.0
10460,50.0,0,119,3.0,0.0
10461,78.0,0,119,1.0,0.0
10462,66.0,0,119,2.0,0.0
10463,50.0,0,119,15.0,0.0
10464,66.0,0,119,4.0,0.0
10465,62.0,0,119,4.0,0.0
10466,62.0,60,119,2.0,0.0
10467,38.0,0,119,15.0,0.0
10468,62.0,0,59,13.0,0.0
10469,74.0,0,59,12.0,0.0
10470,62.0,0,119,3.0,0.0
10471,59.0,0,119,3.0,0.0
10472,50.0,0,59,7.0,0.0
10473,62.0,0,119,4.0,0.0
10474,86.0,0,59,12.0,0.0
10475,74.0,0,59,13.0,0.0
10476,62.0,60,59,5.0,0.0
10477,74.0,0,119,2.0,0.0
10478,74.0,0,59,5.0,0.0
10479,74.0,0,119,0.0,0.0
10480,86.0,0,119,0.0,0.0
10481,71.0,0,119,2.0,0.0
10482,50.0,120,119,4.0,0.0
10483,86.0,0,119,1.0,0.0
10484,83.0,0,119,1.0,0.0
10485,62.0,0,59,14.0,0.0
10486,62.0,0,59,5.0,0.0
10487,74.0,0,59,5.0,0.0
10488,38.0,0,59,15.0,0.0
10489,50.0,0,59,7.0,0.0
10490,50.0,0,59,15.0,0.0
10491,78.0,0,179,0.0,0.0
10492,74.0,60,119,5.0,0.0
10493,62.0,0,119,5.0,0.0
10494,31.0,0,119,15.0,0.0
10495,50.0,0,119,7.0,0.0
10496,90.0,0,179,0.0,0.0
10497,84.0,0,179,1.0,0.0
10498,72.0,0,179,2.0,0.0
10499,69.0,0,179,2.0,0.0
10500,43.0,0,119,15.0,0.0
10501,81.0,60,179,1.0,0.0
10502,57.0,0,179,3.0,0.0
10503,60.0,0,179,3.0,0.0
10504,62.0,0,179,4.0,0.0
10505,55.0,0,119,14.0,0.0
10506,50.0,0,179,4.0,0.0
10507,72.0,0,59,12.0,0.0
10508,60.0,0,59,13.0,0.0
10509,72.0,0,59,13.0,0.0
10510,84.0,0,59,12.0,0.0
10511,79.0,0,59,0.0,0.0
10512,67.0,0,59,2.0,0.0
10513,71.0,0,59,2.0,0.0
10514,55.0,0,59,15.0,0.0
10515,59.0,0,59,3.0,0.0
10516,50.0,0,59,4.0,0.0
10517,62.0,0,59,4.0,0.0
10518,67.0,0,59,14.0,0.0
10519,55.0,0,59,3.0,0.0
10520,79.0,0,59,1.0,0.0
10521,83.0,120,59,1.0,0.0
10522,43.0,0,59,15.0,0.0
10523,91.0,0,59,0.0,0.0
10524,79.0,0,119,1.0,0.0
10525,62.0,0,119,4.0,0.0
10526,55.0,0,119,3.0,0.0
10527,55.0,0,119,14.0,0.0
10528,59.0,0,119,3.0,0.0
10529,83.0,0,119,1.0,0.0
10530,43.0,0,119,15.0,0.0
10531,91.0,60,119,0.0,0.0
10532,79.0,0,119,0.0,0.0
10533,31.0,0,119,15.0,0.0
10534,67.0,0,119,2.0,0.0
10535,71.0,0,119,2.0,0.0
10536,50.0,0,119,4.0,0.0
10537,71.0,0,59,12.0,0.0
10538,59.0,0,59,13.0,0.0
10539,91.0,0,59,0.0,0.0
10540,83.0,0,59,12.0,0.0
10541,67.0,0,59,4.0,0.0
10542,79.0,0,59,2.0,0.0
10543,71.0,0,59,2.0,0.0
10544,71.0,0,59,13.0,0.0
10545,83.0,0,59,0.0,0.0
10546,50.0,0,59,7.0,0.0
10547,74.0,0,59,5.0,0.0
10548,59.0,0,59,3.0,0.0
10549,67.0,60,59,3.0,0.0
10550,71.0,0,59,1.0,0.0
10551,79.0,0,59,1.0,0.0
10552,62.0,0,59,5.0,0.0
10553,67.0,0,59,14.0,0.0
10554,55.0,0,59,15.0,0.0
10555,88.0,0,59,0.0,0.0
10556,62.0,0,59,5.0,0.0
10557,50.0,0,59,7.0,0.0
10558,74.0,0,59,5.0,0.0
10559,64.0,0,59,4.0,0.0
10560,64.0,0,59,3.0,0.0
10561,67.0,0,59,1.0,0.0
10562,76.0,0,59,1.0,0.0
10563,79.0,0,59,0.0,0.0
10564,67.0,0,59,2.0,0.0
10565,76.0,0,59,2.0,0.0
10566,55.0,0,59,3.0,0.0
10567,43.0,60,59,15.0,0.0
10568,64.0,0,179,4.0,0.0
10569,66.0,0,59,1.0,0.0
10570,74.0,0,59,1.0,0.0
10571,57.0,0,179,4.0,0.0
10572,57.0,0,119,5.0,0.0
10573,69.0,0,119,5.0,0.0
10574,69.0,60,119,14.0,0.0
10575,66.0,0,59,2.0,0.0
10576,54.0,0,59,3.0,0.0
10577,62.0,0,59,3.0,0.0
10578,57.0,0,119,15.0,0.0
10579,45.0,0,119,15.0,0.0
10580,74.0,60,59,2.0,0.0
10581,45.0,0,119,7.0,0.0
10582,86.0,0,59,0.0,0.0
10583,78.0,0,59,0.0,0.0
10584,52.0,0,59,3.0,0.0
10585,61.0,0,59,3.0,0.0
10586,73.0,0,59,2.0,0.0
10587,64.0,0,59,2.0,0.0
10588,73.0,0,59,1.0,0.0
10589,76.0,0,59,0.0,0.0
10590,73.0,0,59,12.0,0.0
10591,64.0,0,59,13.0,0.0
10592,76.0,0,59,12.0,0.0
10593,85.0,0,59,0.0,0.0
10594,64.0,0,59,1.0,0.0
10595,88.0,0,59,0.0,0.0
10596,79.0,0,59,0.0,0.0
10597,79.0,0,59,12.0,0.0
10598,76.0,0,59,13.0,0.0
10599,76.0,0,59,1.0,0.0
10600,67.0,0,59,1.0,0.0
10601,64.0,0,59,3.0,0.0
10602,55.0,0,59,3.0,0.0
10603,67.0,0,59,2.0,0.0
10604,76.0,60,59,2.0,0.0
10605,64.0,0,59,4.0,0.0
10606,57.0,0,59,4.0,0.0
10607,73.0,0,59,1.0,0.0
10608,64.0,0,59,1.0,0.0
10609,85.0,60,59,0.0,0.0
10610,76.0,0,59,0.0,0.0
10611,52.0,0,59,3.0,0.0
10612,61.0,0,59,3.0,0.0
10613,73.0,0,59,2.0,0.0
10614,33.0,0,59,15.0,0.0
10615,45.0,0,59,15.0,0.0
10616,57.0,0,59,14.0,0.0
10617,64.0,0,59,2.0,0.0
10618,45.0,0,119,15.0,0.0
10619,57.0,0,119,15.0,0.0
10620,83.0,0,59,0.0,0.0
10621,62.0,0,59,1.0,0.0
10622,71.0,0,59,1.0,0.0
10623,62.0,0,59,2.0,0.0
10624,71.0,60,59,2.0,0.0
10625,69.0,0,119,14.0,0.0
10626,74.0,0,59,0.0,0.0
10627,64.0,0,179,4.0,0.0
10628,57.0,0,179,4.0,0.0
10629,50.0,0,59,3.0,0.0
10630,59.0,0,59,3.0,0.0
10631,69.0,0,59,1.0,0.0
10632,61.0,0,59,1.0,0.0
10633,64.0,60,59,13.0,0.0
10634,69.0,0,59,2.0,0.0
10635,61.0,0,59,2.0,0.0
10636,49.0,0,59,3.0,0.0
10637,57.0,0,59,3.0,0.0
10638,73.0,0,59,0.0,0.0
10639,81.0,0,59,0.0,0.0
10640,67.0,0,59,12.0,0.0
10641,59.0,60,59,3.0,0.0
10642,50.0,0,59,3.0,0.0
10643,57.0,0,59,5.0,0.0
10644,69.0,0,59,5.0,0.0
10645,71.0,0,59,2.0,0.0
10646,62.0,0,59,2.0,0.0
10647,83.0,0,59,0.0,0.0
10648,74.0,0,59,0.0,0.0
10649,45.0,0,59,7.0,0.0
10650,76.0,0,59,13.0,0.0
10651,62.0,0,59,1.0,0.0
10652,79.0,0,59,12.0,0.0
10653,71.0,0,59,1.0,0.0
10654,61.0,0,59,3.0,0.0
10655,45.0,0,59,15.0,0.0
10656,69.0,0,59,5.0,0.0
10657,57.0,0,59,5.0,0.0
10658,73.0,0,59,2.0,0.0
10659,76.0,60,59,0.0,0.0
10660,73.0,0,59,1.0,0.0
10661,52.0,0,59,3.0,0.0
10662,64.0,0,59,1.0,0.0
10663,45.0,0,59,7.0,0.0
10664,64.0,0,59,4.0,0.0
10665,57.0,0,59,4.0,0.0
10666,57.0,0,59,14.0,0.0
10667,57.0,0,59,15.0,0.0
10668,64.0,0,59,2.0,0.0
10669,85.0,0,59,0.0,0.0
10670,66.0,0,59,1.0,0.0
10671,74.0,0,59,1.0,0.0
10672,62.0,0,59,4.0,0.0
10673,54.0,0,59,4.0,0.0
10674,78.0,0,59,12.0,0.0
10675,66.0,60,59,2.0,0.0
10676,78.0,0,59,0.0,0.0
10677,74.0,0,59,13.0,0.0
10678,62.0,0,59,5.0,0.0
10679,74.0,0,59,5.0,0.0
10680,50.0,0,59,15.0,0.0
10681,86.0,0,59,0.0,0.0
10682,50.0,0,59,7.0,0.0
10683,74.0,0,59,2.0,0.0
10684,62.0,0,59,15.0,0.0
10685,54.0,0,59,3.0,0.0
10686,62.0,0,59,14.0,0.0
10687,62.0,0,59,3.0,0.0
10688,81.0,0,59,0.0,0.0
10689,69.0,0,59,2.0,0.0
10690,78.0,0,59,2.0,0.0
10691,90.0,0,59,0.0,0.0
10692,78.0,0,59,1.0,0.0
10693,66.0,0,59,3.0,0.0
10694,57.0,60,59,3.0,0.0
10695,69.0,0,59,1.0,0.0
10696,76.0,0,59,2.0,0.0
10697,67.0,0,59,2.0,0.0
10698,64.0,0,59,3.0,0.0
10699,76.0,0,59,13.0,0.0
10700,69.0,0,59,13.0,0.0
10701,69.0,0,59,5.0,0.0
10702,57.0,0,59,5.0,0.0
10703,45.0,0,59,15.0,0.0
10704,45.0,0,59,7.0,0.0
10705,57.0,0,59,15.0,0.0
10706,67.0,0,59,1.0,0.0
10707,76.0,0,59,1.0,0.0
10708,55.0,0,59,3.0,0.0
10709,73.0,60,59,14.0,0.0
10710,64.0,0,59,14.0,0.0
10711,88.0,0,59,0.0,0.0
10712,79.0,0,59,0.0,0.0
10713,64.0,0,59,4.0,0.0
10714,57.0,0,59,4.0,0.0
10715,85.0,0,59,12.0,0.0
10716,69.0,0,59,12.0,0.0
10717,52.0,0,59,3.0,0.0
10718,61.0,0,59,3.0,0.0
10719,85.0,60,59,0.0,0.0
10720,73.0,0,59,2.0,0.0
10721,64.0,0,59,2.0,0.0
10722,64.0,0,59,1.0,0.0
10723,73.0,0,59,1.0,0.0
10724,76.0,0,59,0.0,0.0
10725,66.0,0,59,14.0,0.0
10726,50.0,0,59,7.0,0.0
10727,54.0,0,59,3.0,0.0
10728,62.0,60,59,3.0,0.0
10729,69.0,0,59,13.0,0.0
10730,62.0,0,59,13.0,0.0
10731,50.0,0,59,15.0,0.0
10732,74.0,0,59,5.0,0.0
10733,86.0,0,59,0.0,0.0
10734,74.0,0,59,1.0,0.0
10735,62.0,0,59,5.0,0.0
10736,66.0,0,59,1.0,0.0
10737,78.0,0,59,0.0,0.0
10738,74.0,0,59,14.0,0.0
10739,78.0,0,59,13.0,0.0
10740,38.0,0,59,15.0,0.0
10741,66.0,0,59,2.0,0.0
10742,74.0,0,59,2.0,0.0
10743,62.0,0,59,12.0,0.0
10744,69.0,0,59,12.0,0.0
10745,86.0,0,59,12.0,0.0
10746,54.0,0,59,4.0,0.0
10747,62.0,0,59,4.0,0.0
10748,69.0,60,59,1.0,0.0
10749,57.0,0,59,11.0,0.0
10750,66.0,0,59,2.0,0.0
10751,54.0,0,59,6.0,0.0
10752,67.0,0,59,2.0,0.0
10753,38.0,0,59,4.0,0.0
10754,59.0,0,59,11.0,0.0
10755,55.0,60,59,6.0,0.0
10756,71.0,0,59,1.0,0.0
10757,73.0,0,59,1.0,0.0
10758,61.0,0,59,11.0,0.0
10759,52.0,60,59,6.0,0.0
10760,64.0,0,59,2.0,0.0
10761,62.0,0,59,11.0,0.0
10762,74.0,60,59,1.0,0.0
10763,38.0,0,59,4.0,0.0
10764,54.0,0,59,6.0,0.0
10765,66.0,0,59,2.0,0.0
10766,76.0,0,59,1.0,0.0
10767,55.0,15,59,6.0,0.0
10768,67.0,0,59,2.0,0.0
10769,64.0,0,59,11.0,0.0
10770,52.0,0,59,6.0,0.0
10771,54.0,15,14,15.0,0.0
10772,61.0,0,59,11.0,0.0
10773,38.0,0,59,4.0,0.0
10774,64.0,15,59,2.0,0.0
10775,73.0,0,59,1.0,0.0
10776,55.0,15,14,15.0,0.0
10777,54.0,15,14,15.0,0.0
10778,55.0,0,14,15.0,0.0
10779,62.0,0,59,11.0,0.0
10780,54.0,0,59,6.0,0.0
10781,74.0,0,59,1.0,0.0
10782,66.0,0,59,2.0,0.0
10783,54.0,15,14,15.0,0.0
10784,55.0,15,14,15.0,0.0
10785,52.0,15,14,15.0,0.0
10786,54.0,60,14,15.0,0.0
10787,38.0,60,59,4.0,0.0
10788,55.0,0,59,6.0,0.0
10789,64.0,0,59,11.0,0.0
10790,67.0,0,59,2.0,0.0
10791,76.0,0,59,1.0,0.0
10792,66.0,0,59,11.0,0.0
10793,78.0,0,59,1.0,0.0
10794,57.0,0,59,6.0,0.0
10795,69.0,15,59,2.0,0.0
10796,62.0,15,14,15.0,0.0
10797,79.0,0,59,1.0,0.0
10798,71.0,0,59,2.0,0.0
10799,67.0,0,59,11.0,0.0
10800,38.0,0,59,4.0,0.0
10801,59.0,15,59,6.0,0.0
10802,64.0,15,14,15.0,0.0
10803,62.0,15,14,15.0,0.0
10804,64.0,0,14,15.0,0.0
10805,62.0,15,14,15.0,0.0
10806,78.0,0,59,1.0,0.0
10807,66.0,0,59,11.0,0.0
10808,57.0,60,59,6.0,0.0
10809,69.0,0,59,2.0,0.0
10810,64.0,15,14,15.0,0.0
10811,61.0,15,14,15.0,0.0
10812,62.0,0,14,15.0,0.0
10813,57.0,60,59,6.0,0.0
10814,38.0,0,59,4.0,0.0
10815,69.0,0,59,2.0,0.0
10816,78.0,0,59,1.0,0.0
10817,66.0,0,59,11.0,0.0
10818,76.0,0,59,1.0,0.0
10819,55.0,0,59,6.0,0.0
10820,67.0,0,59,2.0,0.0
10821,64.0,15,59,11.0,0.0
10822,79.0,0,59,1.0,0.0
10823,71.0,0,59,2.0,0.0
10824,59.0,15,14,15.0,0.0
10825,67.0,15,59,11.0,0.0
10826,38.0,0,59,4.0,0.0
10827,59.0,0,59,6.0,0.0
10828,60.0,15,14,15.0,0.0
10829,59.0,15,14,15.0,0.0
10830,60.0,0,14,15.0,0.0
10831,67.0,60,59,2.0,0.0
10832,64.0,0,59,11.0,0.0
10833,55.0,0,59,6.0,0.0
10834,59.0,15,14,15.0,0.0
10835,76.0,0,59,1.0,0.0
10836,60.0,15,14,15.0,0.0
10837,57.0,15,14,15.0,0.0
10838,59.0,0,14,15.0,0.0
10839,74.0,60,59,1.0,0.0
10840,54.0,0,59,6.0,0.0
10841,38.0,0,59,4.0,0.0
10842,62.0,0,59,11.0,0.0
10843,66.0,0,59,2.0,0.0
10844,64.0,0,59,2.0,0.0
10845,52.0,0,59,6.0,0.0
10846,61.0,0,59,11.0,0.0
10847,73.0,15,59,1.0,0.0
10848,38.0,0,59,4.0,0.0
10849,67.0,15,14,15.0,0.0
10850,67.0,0,59,2.0,0.0
10851,55.0,15,59,6.0,0.0
10852,64.0,0,59,11.0,0.0
10853,76.0,0,59,1.0,0.0
10854,69.0,15,14,15.0,0.0
10855,67.0,15,14,15.0,0.0
10856,69.0,0,14,15.0,0.0
10857,67.0,15,14,15.0,0.0
10858,64.0,0,59,2.0,0.0
10859,52.0,0,59,6.0,0.0
10860,67.0,0,59,1.0,0.0
10861,55.0,0,59,11.0,0.0
10862,69.0,15,14,15.0,0.0
10863,66.0,15,14,15.0,0.0
10864,67.0,60,14,15.0,0.0
10865,38.0,0,59,4.0,0.0
10866,66.0,0,119,1.0,0.0
10867,54.0,0,59,11.0,0.0
10868,50.0,60,59,6.0,0.0
10869,62.0,0,119,2.0,0.0
10870,55.0,0,59,11.0,0.0
10871,52.0,15,59,6.0,0.0
10872,57.0,0,59,11.0,0.0
10873,54.0,0,59,6.0,0.0
10874,54.0,15,14,14.0,0.0
10875,38.0,15,59,4.0,0.0
10876,55.0,15,14,14.0,0.0
10877,54.0,15,14,14.0,0.0
10878,55.0,0,14,14.0,0.0
10879,55.0,0,59,6.0,0.0
10880,54.0,15,14,14.0,0.0
10881,59.0,0,59,11.0,0.0
10882,55.0,15,14,14.0,0.0
10883,52.0,15,14,14.0,0.0
10884,54.0,60,14,14.0,0.0
10885,38.0,0,59,4.0,0.0
10886,57.0,0,59,6.0,0.0
10887,61.0,60,59,11.0,0.0
10888,59.0,15,59,6.0,0.0
10889,62.0,0,59,11.0,0.0
10890,64.0,0,59,11.0,0.0
10891,61.0,15,59,6.0,0.0
10892,38.0,0,59,4.0,0.0
10893,62.0,15,14,14.0,0.0
10894,64.0,15,14,14.0,0.0
10895,62.0,15,14,14.0,0.0
10896,64.0,0,14,14.0,0.0
10897,66.0,0,59,11.0,0.0
10898,62.0,0,59,6.0,0.0
10899,62.0,15,14,14.0,0.0
10900,64.0,15,14,14.0,0.0
10901,61.0,15,14,14.0,0.0
10902,62.0,60,14,14.0,0.0
10903,62.0,0,59,6.0,0.0
10904,66.0,0,59,11.0,0.0
10905,38.0,60,59,4.0,0.0
10906,61.0,0,59,6.0,0.0
10907,64.0,15,59,11.0,0.0
10908,64.0,15,14,14.0,0.0
10909,67.0,0,59,11.0,0.0
10910,38.0,15,59,4.0,0.0
10911,64.0,0,59,6.0,0.0
10912,66.0,15,14,14.0,0.0
10913,64.0,15,14,14.0,0.0
10914,66.0,0,14,14.0,0.0
10915,62.0,60,59,6.0,0.0
10916,64.0,15,14,14.0,0.0
10917,66.0,0,59,11.0,0.0
10918,66.0,15,14,14.0,0.0
10919,62.0,15,14,14.0,0.0
10920,64.0,0,14,14.0,0.0
10921,67.0,60,59,10.0,0.0
10922,79.0,0,59,1.0,0.0
10923,61.0,15,224,6.0,0.0
10924,64.0,0,224,11.0,0.0
10925,38.0,0,59,4.0,0.0
10926,78.0,0,59,1.0,0.0
10927,66.0,15,59,10.0,0.0
10928,67.0,15,14,14.0,0.0
10929,38.0,0,59,4.0,0.0
10930,69.0,15,59,10.0,0.0
10931,81.0,0,59,1.0,0.0
10932,69.0,15,14,14.0,0.0
10933,67.0,15,14,14.0,0.0
10934,69.0,0,14,14.0,0.0
10935,79.0,0,59,1.0,0.0
10936,67.0,15,14,14.0,0.0
10937,67.0,60,59,10.0,0.0
10938,69.0,15,14,14.0,0.0
10939,66.0,0,14,14.0,0.0
10940,67.0,0,14,14.0,0.0
10941,62.0,15,119,6.0,0.0
10942,66.0,0,479,3.0,0.0
10943,62.0,0,479,3.0,0.0
10944,38.0,0,59,4.0,0.0
10945,78.0,0,59,1.0,0.0
10946,66.0,0,119,11.0,0.0
10947,66.0,60,59,10.0,0.0
10948,79.0,0,59,1.0,0.0
10949,67.0,0,59,10.0,0.0
10950,80.0,0,59,1.0,0.0
10951,38.0,0,59,4.0,0.0
10952,62.0,0,119,6.0,0.0
10953,68.0,15,59,10.0,0.0
10954,66.0,0,119,11.0,0.0
10955,66.0,15,14,13.0,0.0
10956,67.0,15,14,13.0,0.0
10957,66.0,15,14,13.0,0.0
10958,67.0,0,14,13.0,0.0
10959,69.0,60,59,10.0,0.0
10960,66.0,15,14,13.0,0.0
10961,81.0,0,59,1.0,0.0
10962,67.0,15,14,13.0,0.0
10963,64.0,15,14,13.0,0.0
10964,66.0,0,14,13.0,0.0
10965,62.0,0,119,6.0,0.0
10966,66.0,0,119,11.0,0.0
10967,80.0,0,59,1.0,0.0
10968,68.0,60,59,10.0,0.0
10969,38.0,0,59,4.0,0.0
10970,69.0,0,59,10.0,0.0
10971,81.0,15,59,1.0,0.0
10972,74.0,15,14,13.0,0.0
10973,66.0,0,104,11.0,0.0
10974,71.0,0,59,10.0,0.0
10975,62.0,0,104,6.0,0.0
10976,83.0,15,59,1.0,0.0
10977,38.0,0,59,4.0,0.0
10978,76.0,15,14,13.0,0.0
10979,74.0,15,14,13.0,0.0
10980,76.0,0,14,13.0,0.0
10981,74.0,15,14,13.0,0.0
10982,81.0,60,59,1.0,0.0
10983,69.0,0,44,10.0,0.0
10984,76.0,15,14,13.0,0.0
10985,73.0,15,14,13.0,0.0
10986,74.0,0,14,13.0,0.0
10987,59.0,60,239,3.0,0.0
10988,38.0,0,59,4.0,0.0
10989,62.0,0,119,11.0,0.0
10990,69.0,60,59,10.0,0.0
10991,59.0,0,119,6.0,0.0
10992,81.0,0,59,1.0,0.0
10993,62.0,0,239,3.0,0.0
10994,79.0,0,59,1.0,0.0
10995,67.0,15,59,10.0,0.0
10996,59.0,0,119,6.0,0.0
10997,71.0,0,59,10.0,0.0
10998,83.0,0,59,1.0,0.0
10999,38.0,0,59,4.0,0.0
11000,62.0,0,119,11.0,0.0
11001,71.0,15,14,13.0,0.0
11002,72.0,15,14,13.0,0.0
11003,71.0,15,14,13.0,0.0
11004,72.0,15,14,13.0,0.0
11005,67.0,0,59,10.0,0.0
11006,79.0,0,59,1.0,0.0
11007,71.0,15,14,13.0,0.0
11008,72.0,15,14,13.0,0.0
11009,69.0,15,14,13.0,0.0
11010,71.0,0,14,13.0,0.0
11011,61.0,0,239,3.0,0.0
11012,78.0,0,59,1.0,0.0
11013,64.0,60,239,3.0,0.0
11014,64.0,15,119,11.0,0.0
11015,66.0,0,59,10.0,0.0
11016,61.0,0,119,6.0,0.0
11017,38.0,60,59,4.0,0.0
11018,64.0,0,59,10.0,0.0
11019,76.0,0,59,1.0,0.0
11020,61.0,0,119,6.0,0.0
11021,38.0,15,59,4.0,0.0
11022,67.0,15,14,13.0,0.0
11023,67.0,0,59,10.0,0.0
11024,79.0,0,59,1.0,0.0
11025,64.0,0,119,11.0,0.0
11026,69.0,15,14,13.0,0.0
11027,67.0,15,14,13.0,0.0
11028,69.0,0,14,13.0,0.0
11029,64.0,0,59,10.0,0.0
11030,67.0,15,14,13.0,0.0
11031,76.0,0,59,1.0,0.0
11032,69.0,15,14,13.0,0.0
11033,66.0,15,14,13.0,0.0
11034,67.0,0,14,13.0,0.0
11035,62.0,0,119,3.0,0.0
11036,74.0,60,59,0.0,0.0
11037,66.0,0,59,11.0,0.0
11038,66.0,0,59,1.0,0.0
11039,38.0,0,59,4.0,0.0
11040,62.0,0,59,10.0,0.0
11041,62.0,0,59,6.0,0.0
11042,67.0,0,59,1.0,0.0
11043,61.0,0,59,6.0,0.0
11044,76.0,0,59,0.0,0.0
11045,64.0,0,59,11.0,0.0
11046,64.0,15,59,10.0,0.0
11047,69.0,0,59,1.0,0.0
11048,62.0,0,59,11.0,0.0
11049,66.0,15,14,12.0,0.0
11050,66.0,0,59,10.0,0.0
11051,78.0,15,59,0.0,0.0
11052,59.0,0,59,6.0,0.0
11053,38.0,0,59,4.0,0.0
11054,67.0,15,14,12.0,0.0
11055,66.0,15,14,12.0,0.0
11056,67.0,0,14,12.0,0.0
11057,71.0,60,59,1.0,0.0
11058,57.0,0,59,6.0,0.0
11059,79.0,0,59,0.0,0.0
11060,67.0,0,59,10.0,0.0
11061,66.0,15,14,12.0,0.0
11062,61.0,0,59,11.0,0.0
11063,67.0,15,14,12.0,0.0
11064,64.0,15,14,12.0,0.0
11065,66.0,0,14,12.0,0.0
11066,55.0,0,59,6.0,0.0
11067,73.0,60,59,1.0,0.0
11068,38.0,0,59,4.0,0.0
11069,81.0,0,59,0.0,0.0
11070,69.0,0,59,10.0,0.0
11071,59.0,0,59,11.0,0.0
11072,74.0,0,59,1.0,0.0
11073,57.0,0,59,11.0,0.0
11074,71.0,15,59,10.0,0.0
11075,83.0,0,59,0.0,0.0
11076,54.0,0,59,6.0,0.0
11077,74.0,15,14,12.0,0.0
11078,38.0,15,59,4.0,0.0
11079,52.0,0,59,6.0,0.0
11080,73.0,0,59,10.0,0.0
11081,76.0,0,59,1.0,0.0
11082,85.0,0,59,0.0,0.0
11083,55.0,0,59,11.0,0.0
11084,76.0,15,14,12.0,0.0
11085,74.0,15,14,12.0,0.0
11086,76.0,0,14,12.0,0.0
11087,74.0,15,14,12.0,0.0
11088,78.0,0,59,1.0,0.0
11089,86.0,60,59,0.0,0.0
11090,54.0,0,59,11.0,0.0
11091,74.0,0,59,10.0,0.0
11092,50.0,0,59,6.0,0.0
11093,76.0,15,14,12.0,0.0
11094,73.0,15,14,12.0,0.0
11095,74.0,0,14,12.0,0.0
11096,86.0,0,59,0.0,0.0
11097,54.0,60,59,6.0,0.0
11098,38.0,0,59,4.0,0.0
11099,74.0,0,59,10.0,0.0
11100,74.0,0,59,1.0,0.0
11101,55.0,0,239,3.0,0.0
11102,52.0,60,239,3.0,0.0
11103,57.0,0,59,11.0,0.0
11104,73.0,0,59,1.0,0.0
11105,73.0,15,59,10.0,0.0
11106,55.0,0,59,11.0,0.0
11107,52.0,0,59,6.0,0.0
11108,85.0,0,59,0.0,0.0
11109,71.0,0,59,10.0,0.0
11110,71.0,0,59,1.0,0.0
11111,76.0,15,14,12.0,0.0
11112,50.0,0,59,6.0,0.0
11113,83.0,15,59,0.0,0.0
11114,54.0,0,59,11.0,0.0
11115,38.0,0,59,4.0,0.0
11116,78.0,15,14,12.0,0.0
11117,76.0,15,14,12.0,0.0
11118,78.0,0,14,12.0,0.0
11119,52.0,0,59,6.0,0.0
11120,55.0,0,59,11.0,0.0
11121,76.0,15,14,12.0,0.0
11122,85.0,0,59,0.0,0.0
11123,73.0,0,59,10.0,0.0
11124,73.0,0,59,1.0,0.0
11125,78.0,15,14,12.0,0.0
11126,74.0,15,14,12.0,0.0
11127,76.0,0,14,12.0,0.0
11128,54.0,0,59,3.0,0.0
11129,50.0,0,59,3.0,0.0
11130,74.0,45,59,10.0,0.0
11131,38.0,0,59,4.0,0.0
11132,86.0,0,59,0.0,0.0
11133,74.0,0,59,1.0,0.0
11134,50.0,0,59,6.0,0.0
11135,54.0,15,104,11.0,0.0
11136,69.0,0,44,10.0,0.0
11137,57.0,0,59,3.0,0.0
11138,54.0,0,59,3.0,0.0
11139,81.0,0,59,0.0,0.0
11140,74.0,0,59,8.0,0.0
11141,54.0,0,44,6.0,0.0
11142,69.0,15,59,1.0,0.0
11143,52.0,0,59,6.0,0.0
11144,67.0,0,59,10.0,0.0
11145,52.0,0,59,3.0,0.0
11146,85.0,0,59,0.0,0.0
11147,76.0,0,59,8.0,0.0
11148,57.0,0,119,11.0,0.0
11149,38.0,0,59,4.0,0.0
11150,55.0,0,59,3.0,0.0
11151,45.0,0,119,7.0,0.0
11152,79.0,15,59,1.0,0.0
11153,78.0,15,14,12.0,0.0
11154,79.0,15,14,12.0,0.0
11155,78.0,15,14,12.0,0.0
11156,79.0,0,14,12.0,0.0
11157,78.0,60,59,1.0,0.0
11158,54.0,0,59,3.0,0.0
11159,78.0,0,119,8.0,0.0
11160,50.0,0,59,3.0,0.0
11161,66.0,0,59,10.0,0.0
11162,78.0,15,14,12.0,0.0
11163,50.0,0,59,6.0,0.0
11164,86.0,0,59,0.0,0.0
11165,79.0,15,14,12.0,0.0
11166,76.0,15,14,12.0,0.0
11167,78.0,0,14,12.0,0.0
11168,45.0,0,59,7.0,0.0
11169,45.0,0,119,3.0,0.0
11170,90.0,60,59,0.0,0.0
11171,74.0,0,59,1.0,0.0
11172,62.0,0,59,11.0,0.0
11173,45.0,0,119,4.0,0.0
11174,52.0,0,119,3.0,0.0
11175,57.0,0,119,6.0,0.0
11176,64.0,15,119,10.0,0.0
11177,61.0,0,59,11.0,0.0
11178,73.0,0,59,1.0,0.0
11179,76.0,0,59,8.0,0.0
11180,88.0,0,59,0.0,0.0
11181,86.0,0,59,0.0,0.0
11182,45.0,0,14,15.0,0.0
11183,57.0,15,14,14.0,0.0
11184,74.0,0,59,8.0,0.0
11185,69.0,0,119,10.0,0.0
11186,45.0,0,119,6.0,0.0
11187,71.0,0,59,1.0,0.0
11188,59.0,0,59,11.0,0.0
11189,45.0,15,59,7.0,0.0
11190,59.0,15,14,14.0,0.0
11191,47.0,0,14,15.0,0.0
11192,45.0,0,14,15.0,0.0
11193,57.0,15,14,14.0,0.0
11194,47.0,0,14,15.0,0.0
11195,59.0,0,14,14.0,0.0
11196,73.0,0,59,1.0,0.0
11197,61.0,60,59,11.0,0.0
11198,45.0,0,14,15.0,0.0
11199,76.0,0,59,8.0,0.0
11200,57.0,15,14,14.0,0.0
11201,88.0,0,59,0.0,0.0
11202,59.0,0,14,14.0,0.0
11203,47.0,15,14,15.0,0.0
11204,44.0,15,14,15.0,0.0
11205,56.0,0,14,14.0,0.0
11206,45.0,0,14,15.0,0.0
11207,57.0,0,14,14.0,0.0
11208,79.0,0,59,8.0,0.0
11209,64.0,0,59,11.0,0.0
11210,45.0,60,59,7.0,0.0
11211,49.0,0,59,6.0,0.0
11212,69.0,0,119,10.0,0.0
11213,62.0,0,59,11.0,0.0
11214,50.0,15,59,6.0,0.0
11215,78.0,0,59,8.0,0.0
11216,57.0,0,14,14.0,0.0
11217,61.0,0,59,11.0,0.0
11218,69.0,15,14,13.0,0.0
11219,69.0,0,119,10.0,0.0
11220,76.0,15,59,8.0,0.0
11221,52.0,0,59,6.0,0.0
11222,45.0,0,59,7.0,0.0
11223,59.0,0,14,14.0,0.0
11224,71.0,15,14,13.0,0.0
11225,57.0,0,14,14.0,0.0
11226,69.0,15,14,13.0,0.0
11227,59.0,0,14,14.0,0.0
11228,71.0,0,14,13.0,0.0
11229,54.0,0,59,6.0,0.0
11230,62.0,60,59,11.0,0.0
11231,74.0,0,59,8.0,0.0
11232,57.0,0,14,14.0,0.0
11233,69.0,15,14,13.0,0.0
11234,59.0,15,14,14.0,0.0
11235,71.0,0,14,13.0,0.0
11236,56.0,0,14,14.0,0.0
11237,68.0,15,14,13.0,0.0
11238,57.0,0,14,14.0,0.0
11239,69.0,0,14,13.0,0.0
11240,74.0,0,59,1.0,0.0
11241,78.0,60,59,8.0,0.0
11242,45.0,0,119,6.0,0.0
11243,90.0,0,59,0.0,0.0
11244,62.0,0,59,11.0,0.0
11245,69.0,0,119,10.0,0.0
11246,45.0,0,59,7.0,0.0
11247,61.0,0,59,11.0,0.0
11248,88.0,0,59,0.0,0.0
11249,76.0,0,59,8.0,0.0
11250,73.0,15,59,1.0,0.0
11251,45.0,0,59,7.0,0.0
11252,59.0,0,59,11.0,0.0
11253,71.0,0,59,1.0,0.0
11254,57.0,0,119,6.0,0.0
11255,74.0,0,59,8.0,0.0
11256,69.0,0,14,13.0,0.0
11257,81.0,15,14,12.0,0.0
11258,69.0,0,119,10.0,0.0
11259,86.0,0,59,0.0,0.0
11260,71.0,15,14,13.0,0.0
11261,83.0,0,14,12.0,0.0
11262,69.0,0,14,13.0,0.0
11263,81.0,15,14,12.0,0.0
11264,83.0,0,14,12.0,0.0
11265,71.0,15,14,13.0,0.0
11266,73.0,0,59,1.0,0.0
11267,69.0,15,14,13.0,0.0
11268,81.0,0,14,12.0,0.0
11269,88.0,0,59,0.0,0.0
11270,61.0,0,59,11.0,0.0
11271,76.0,0,59,8.0,0.0
11272,71.0,15,14,13.0,0.0
11273,83.0,0,14,12.0,0.0
11274,68.0,15,14,13.0,0.0
11275,80.0,0,14,12.0,0.0
11276,81.0,60,14,12.0,0.0
11277,69.0,0,14,13.0,0.0
11278,79.0,0,59,8.0,0.0
11279,64.0,0,59,11.0,0.0
11280,45.0,0,59,7.0,0.0
11281,49.0,60,59,6.0,0.0
11282,69.0,0,119,10.0,0.0
11283,78.0,15,59,8.0,0.0
11284,50.0,0,59,6.0,0.0
11285,62.0,0,59,11.0,0.0
11286,73.0,0,59,10.0,0.0
11287,61.0,0,59,11.0,0.0
11288,76.0,0,59,8.0,0.0
11289,45.0,15,59,7.0,0.0
11290,52.0,0,59,6.0,0.0
11291,81.0,0,14,12.0,0.0
11292,69.0,15,14,13.0,0.0
11293,71.0,0,14,13.0,0.0
11294,83.0,15,14,12.0,0.0
11295,69.0,0,14,13.0,0.0
11296,81.0,15,14,12.0,0.0
11297,71.0,0,14,13.0,0.0
11298,83.0,0,14,12.0,0.0
11299,54.0,0,44,6.0,0.0
11300,74.0,0,44,8.0,0.0
11301,81.0,0,14,12.0,0.0
11302,74.0,0,44,10.0,0.0
11303,62.0,0,44,11.0,0.0
11304,69.0,15,14,13.0,0.0
11305,71.0,15,14,13.0,0.0
11306,83.0,0,14,12.0,0.0
11307,68.0,15,14,13.0,0.0
11308,80.0,0,14,12.0,0.0
11309,81.0,0,14,12.0,0.0
11310,69.0,60,14,13.0,0.0
11311,54.0,0,59,6.0,0.0
11312,62.0,0,59,11.0,0.0
11313,45.0,0,59,7.0,0.0
11314,74.0,60,59,10.0,0.0
11315,78.0,0,59,8.0,0.0
11316,76.0,0,59,8.0,0.0
11317,73.0,0,59,10.0,0.0
11318,55.0,15,59,6.0,0.0
11319,64.0,0,59,11.0,0.0
11320,57.0,15,59,6.0,0.0
11321,71.0,0,59,10.0,0.0
11322,45.0,0,59,7.0,0.0
11323,74.0,0,59,1.0,0.0
11324,66.0,0,59,11.0,0.0
11325,86.0,0,59,0.0,0.0
11326,71.0,0,59,2.0,0.0
11327,54.0,0,59,3.0,0.0
11328,57.0,15,14,14.0,0.0
11329,74.0,0,59,8.0,0.0
11330,45.0,0,14,15.0,0.0
11331,59.0,0,14,14.0,0.0
11332,47.0,15,14,15.0,0.0
11333,45.0,0,14,15.0,0.0
11334,57.0,15,14,14.0,0.0
11335,47.0,0,14,15.0,0.0
11336,59.0,0,14,14.0,0.0
11337,76.0,0,59,1.0,0.0
11338,45.0,15,14,15.0,0.0
11339,76.0,0,59,8.0,0.0
11340,88.0,0,59,0.0,0.0
11341,55.0,0,59,3.0,0.0
11342,64.0,0,59,11.0,0.0
11343,73.0,0,59,2.0,0.0
11344,55.0,60,59,6.0,0.0
11345,73.0,0,59,10.0,0.0
11346,57.0,0,14,14.0,0.0
11347,59.0,0,14,14.0,0.0
11348,47.0,15,14,15.0,0.0
11349,44.0,15,14,15.0,0.0
11350,56.0,0,14,14.0,0.0
11351,57.0,0,14,14.0,0.0
11352,45.0,0,14,15.0,0.0
11353,79.0,60,59,8.0,0.0
11354,76.0,0,59,10.0,0.0
11355,64.0,0,59,11.0,0.0
11356,45.0,0,59,7.0,0.0
11357,55.0,0,59,6.0,0.0
11358,57.0,0,59,6.0,0.0
11359,78.0,0,59,8.0,0.0
11360,66.0,0,59,11.0,0.0
11361,74.0,15,59,10.0,0.0
11362,90.0,0,59,0.0,0.0
11363,78.0,15,59,1.0,0.0
11364,45.0,0,59,7.0,0.0
11365,74.0,0,59,2.0,0.0
11366,66.0,0,59,11.0,0.0
11367,57.0,0,59,3.0,0.0
11368,66.0,15,14,13.0,0.0
11369,57.0,0,59,6.0,0.0
11370,78.0,0,59,8.0,0.0
11371,54.0,0,14,14.0,0.0
11372,74.0,0,59,10.0,0.0
11373,55.0,15,14,14.0,0.0
11374,67.0,0,14,13.0,0.0
11375,54.0,0,14,14.0,0.0
11376,66.0,15,14,13.0,0.0
11377,55.0,0,14,14.0,0.0
11378,67.0,0,14,13.0,0.0
11379,54.0,0,14,14.0,0.0
11380,73.0,0,59,10.0,0.0
11381,58.0,0,59,6.0,0.0
11382,58.0,0,59,3.0,0.0
11383,76.0,0,59,1.0,0.0
11384,73.0,0,59,2.0,0.0
11385,66.0,15,14,13.0,0.0
11386,76.0,60,59,8.0,0.0
11387,67.0,0,59,11.0,0.0
11388,88.0,0,59,0.0,0.0
11389,67.0,0,14,13.0,0.0
11390,55.0,15,14,14.0,0.0
11391,64.0,15,14,13.0,0.0
11392,52.0,0,14,14.0,0.0
11393,66.0,0,14,13.0,0.0
11394,54.0,0,14,14.0,0.0
11395,73.0,0,59,10.0,0.0
11396,67.0,60,59,11.0,0.0
11397,76.0,0,59,8.0,0.0
11398,58.0,0,59,6.0,0.0
11399,45.0,0,59,7.0,0.0
11400,74.0,0,59,8.0,0.0
11401,59.0,0,59,6.0,0.0
11402,74.0,15,59,10.0,0.0
11403,66.0,0,59,11.0,0.0
11404,71.0,0,119,10.0,0.0
11405,86.0,0,59,0.0,0.0
11406,45.0,0,59,7.0,0.0
11407,76.0,15,14,12.0,0.0
11408,59.0,0,59,3.0,0.0
11409,64.0,0,14,13.0,0.0
11410,71.0,0,119,2.0,0.0
11411,74.0,0,59,1.0,0.0
11412,59.0,15,59,6.0,0.0
11413,74.0,0,59,8.0,0.0
11414,67.0,0,59,11.0,0.0
11415,78.0,0,14,12.0,0.0
11416,66.0,15,14,13.0,0.0
11417,76.0,0,14,12.0,0.0
11418,64.0,15,14,13.0,0.0
11419,78.0,0,14,12.0,0.0
11420,66.0,0,14,13.0,0.0
11421,88.0,0,59,0.0,0.0
11422,64.0,15,14,13.0,0.0
11423,76.0,0,14,12.0,0.0
11424,64.0,0,59,11.0,0.0
11425,56.0,0,59,3.0,0.0
11426,76.0,0,59,1.0,0.0
11427,76.0,0,59,8.0,0.0
11428,56.0,60,59,6.0,0.0
11429,66.0,0,14,13.0,0.0
11430,78.0,15,14,12.0,0.0
11431,75.0,0,14,12.0,0.0
11432,63.0,15,14,13.0,0.0
11433,76.0,0,14,12.0,0.0
11434,64.0,0,14,13.0,0.0
11435,67.0,45,59,1.0,0.0
11436,69.0,0,104,8.0,0.0
11437,57.0,15,104,6.0,0.0
11438,69.0,0,104,10.0,0.0
11439,57.0,0,104,11.0,0.0
11440,55.0,0,59,3.0,0.0
11441,45.0,0,59,7.0,0.0
11442,52.0,0,59,3.0,0.0
11443,64.0,15,59,1.0,0.0
11444,69.0,0,239,10.0,0.0
11445,62.0,0,179,11.0,0.0
11446,45.0,0,119,6.0,0.0
11447,45.0,0,59,7.0,0.0
11448,62.0,0,59,1.0,0.0
11449,54.0,0,59,3.0,0.0
11450,81.0,0,59,0.0,0.0
11451,69.0,0,14,13.0,0.0
11452,81.0,15,14,12.0,0.0
11453,78.0,0,179,8.0,0.0
11454,38.0,15,59,4.0,0.0
11455,69.0,0,59,2.0,0.0
11456,83.0,0,14,12.0,0.0
11457,71.0,15,14,13.0,0.0
11458,69.0,0,14,13.0,0.0
11459,81.0,15,14,12.0,0.0
11460,71.0,0,14,13.0,0.0
11461,83.0,0,14,12.0,0.0
11462,62.0,15,59,3.0,0.0
11463,81.0,15,14,12.0,0.0
11464,78.0,0,59,1.0,0.0
11465,69.0,0,14,13.0,0.0
11466,90.0,0,59,0.0,0.0
11467,66.0,0,59,2.0,0.0
11468,71.0,15,14,13.0,0.0
11469,83.0,0,14,12.0,0.0
11470,80.0,15,14,12.0,0.0
11471,68.0,0,14,13.0,0.0
11472,81.0,0,14,12.0,0.0
11473,69.0,0,14,13.0,0.0
11474,66.0,0,119,2.0,0.0
11475,38.0,0,59,4.0,0.0
11476,50.0,0,119,6.0,0.0
11477,90.0,0,119,0.0,0.0
11478,62.0,0,119,3.0,0.0
11479,78.0,0,119,1.0,0.0
11480,45.0,0,59,7.0,0.0
11481,45.0,0,14,15.0,0.0
11482,57.0,15,14,14.0,0.0
11483,47.0,0,14,15.0,0.0
11484,59.0,15,14,14.0,0.0
11485,57.0,0,14,14.0,0.0
11486,45.0,15,14,15.0,0.0
11487,47.0,0,14,15.0,0.0
11488,59.0,15,14,14.0,0.0
11489,57.0,0,14,14.0,0.0
11490,79.0,0,59,8.0,0.0
11491,64.0,15,59,11.0,0.0
11492,45.0,15,14,15.0,0.0
11493,59.0,0,14,14.0,0.0
11494,47.0,15,14,15.0,0.0
11495,56.0,0,14,14.0,0.0
11496,44.0,15,14,15.0,0.0
11497,45.0,0,14,15.0,0.0
11498,57.0,0,14,14.0,0.0
11499,69.0,0,119,10.0,0.0
11500,61.0,0,59,11.0,0.0
11501,81.0,0,14,12.0,0.0
11502,76.0,0,59,1.0,0.0
11503,61.0,0,59,3.0,0.0
11504,45.0,0,59,7.0,0.0
11505,69.0,15,14,13.0,0.0
11506,76.0,0,59,8.0,0.0
11507,88.0,0,59,0.0,0.0
11508,67.0,0,59,2.0,0.0
11509,57.0,0,119,6.0,0.0
11510,38.0,15,59,4.0,0.0
11511,71.0,0,14,13.0,0.0
11512,83.0,15,14,12.0,0.0
11513,69.0,15,14,13.0,0.0
11514,81.0,0,14,12.0,0.0
11515,83.0,0,14,12.0,0.0
11516,71.0,0,14,13.0,0.0
11517,62.0,0,59,11.0,0.0
11518,78.0,0,59,1.0,0.0
11519,90.0,0,59,0.0,0.0
11520,62.0,0,59,3.0,0.0
11521,69.0,0,14,13.0,0.0
11522,66.0,0,59,2.0,0.0
11523,81.0,15,14,12.0,0.0
11524,78.0,15,59,8.0,0.0
11525,83.0,15,14,12.0,0.0
11526,71.0,0,14,13.0,0.0
11527,80.0,0,14,12.0,0.0
11528,68.0,15,14,13.0,0.0
11529,69.0,0,14,13.0,0.0
11530,81.0,0,14,12.0,0.0
11531,38.0,0,59,4.0,0.0
11532,57.0,15,119,6.0,0.0
11533,45.0,0,14,15.0,0.0
11534,62.0,0,119,10.0,0.0
11535,45.0,0,59,7.0,0.0
11536,79.0,15,59,8.0,0.0
11537,57.0,15,14,14.0,0.0
11538,64.0,0,59,11.0,0.0
11539,59.0,0,14,14.0,0.0
11540,47.0,15,14,15.0,0.0
11541,57.0,15,14,14.0,0.0
11542,45.0,0,14,15.0,0.0
11543,59.0,0,14,14.0,0.0
11544,47.0,0,14,15.0,0.0
11545,81.0,0,59,8.0,0.0
11546,66.0,0,59,11.0,0.0
11547,57.0,15,14,14.0,0.0
11548,45.0,0,14,15.0,0.0
11549,59.0,0,14,14.0,0.0
11550,47.0,15,14,15.0,0.0
11551,56.0,15,14,14.0,0.0
11552,44.0,0,14,15.0,0.0
11553,45.0,0,14,15.0,0.0
11554,57.0,0,14,14.0,0.0
11555,86.0,0,119,0.0,0.0
11556,38.0,15,59,4.0,0.0
11557,57.0,0,119,6.0,0.0
11558,62.0,0,119,10.0,0.0
11559,83.0,0,59,1.0,0.0
11560,67.0,0,59,11.0,0.0
11561,67.0,0,59,3.0,0.0
11562,69.0,0,14,13.0,0.0
11563,45.0,0,59,7.0,0.0
11564,71.0,0,59,2.0,0.0
11565,81.0,15,14,12.0,0.0
11566,83.0,0,59,8.0,0.0
11567,83.0,15,14,12.0,0.0
11568,71.0,0,14,13.0,0.0
11569,69.0,0,14,13.0,0.0
11570,81.0,15,14,12.0,0.0
11571,83.0,0,14,12.0,0.0
11572,71.0,0,14,13.0,0.0
11573,81.0,15,14,12.0,0.0
11574,69.0,0,59,2.0,0.0
11575,66.0,0,59,11.0,0.0
11576,66.0,0,59,3.0,0.0
11577,81.0,0,59,8.0,0.0
11578,69.0,0,14,13.0,0.0
11579,81.0,0,59,1.0,0.0
11580,71.0,0,14,13.0,0.0
11581,83.0,15,14,12.0,0.0
11582,80.0,15,14,12.0,0.0
11583,68.0,0,14,13.0,0.0
11584,69.0,0,14,13.0,0.0
11585,81.0,15,14,12.0,0.0
11586,81.0,0,59,8.0,0.0
11587,59.0,15,119,6.0,0.0
11588,38.0,0,59,4.0,0.0
11589,45.0,15,59,7.0,0.0
11590,62.0,0,119,10.0,0.0
11591,66.0,0,59,11.0,0.0
11592,55.0,0,14,14.0,0.0
11593,47.0,15,14,15.0,0.0
11594,57.0,15,14,14.0,0.0
11595,48.0,0,14,15.0,0.0
11596,47.0,0,14,15.0,0.0
11597,55.0,15,14,14.0,0.0
11598,48.0,0,14,15.0,0.0
11599,57.0,0,14,14.0,0.0
11600,79.0,0,59,8.0,0.0
11601,55.0,0,14,14.0,0.0
11602,64.0,0,59,11.0,0.0
11603,47.0,15,14,15.0,0.0
11604,57.0,15,14,14.0,0.0
11605,48.0,0,14,15.0,0.0
11606,54.0,0,14,14.0,0.0
11607,45.0,15,14,15.0,0.0
11608,55.0,0,14,14.0,0.0
11609,47.0,0,14,15.0,0.0
11610,83.0,0,59,1.0,0.0
11611,38.0,0,59,4.0,0.0
11612,67.0,0,119,10.0,0.0
11613,71.0,15,14,13.0,0.0
11614,67.0,0,59,11.0,0.0
11615,59.0,0,119,6.0,0.0
11616,71.0,0,59,2.0,0.0
11617,86.0,0,119,0.0,0.0
11618,83.0,0,14,12.0,0.0
11619,45.0,0,59,7.0,0.0
11620,83.0,0,59,8.0,0.0
11621,67.0,0,59,3.0,0.0
11622,72.0,15,14,13.0,0.0
11623,84.0,0,14,12.0,0.0
11624,83.0,0,14,12.0,0.0
11625,71.0,15,14,13.0,0.0
11626,72.0,15,14,13.0,0.0
11627,84.0,0,14,12.0,0.0
11628,79.0,0,59,1.0,0.0
11629,83.0,0,14,12.0,0.0
11630,67.0,0,59,2.0,0.0
11631,71.0,15,14,13.0,0.0
11632,79.0,15,59,8.0,0.0
11633,64.0,0,59,3.0,0.0
11634,64.0,0,59,11.0,0.0
11635,84.0,0,14,12.0,0.0
11636,72.0,15,14,13.0,0.0
11637,81.0,0,14,12.0,0.0
11638,69.0,15,14,13.0,0.0
11639,71.0,0,14,13.0,0.0
11640,83.0,0,14,12.0,0.0
11641,38.0,15,59,4.0,0.0
11642,67.0,0,59,10.0,0.0
11643,64.0,15,119,11.0,0.0
11644,67.0,15,14,14.0,0.0
11645,62.0,0,59,6.0,0.0
11646,64.0,0,14,15.0,0.0
11647,78.0,0,59,8.0,0.0
11648,45.0,0,59,7.0,0.0
11649,69.0,15,14,14.0,0.0
11650,66.0,0,14,15.0,0.0
11651,64.0,15,14,15.0,0.0
11652,67.0,0,14,14.0,0.0
11653,66.0,0,14,15.0,0.0
11654,69.0,0,14,14.0,0.0
11655,67.0,0,14,14.0,0.0
11656,76.0,0,59,10.0,0.0
11657,61.0,0,59,6.0,0.0
11658,76.0,0,59,8.0,0.0
11659,64.0,15,14,15.0,0.0
11660,69.0,0,14,14.0,0.0
11661,66.0,15,14,15.0,0.0
11662,66.0,0,14,14.0,0.0
11663,62.0,15,14,15.0,0.0
11664,67.0,0,14,14.0,0.0
11665,64.0,0,14,15.0,0.0
11666,79.0,0,59,8.0,0.0
11667,45.0,0,59,7.0,0.0
11668,64.0,0,59,3.0,0.0
11669,64.0,0,104,11.0,0.0
11670,73.0,0,14,13.0,0.0
11671,79.0,0,59,1.0,0.0
11672,67.0,15,59,2.0,0.0
11673,76.0,0,59,10.0,0.0
11674,85.0,15,14,12.0,0.0
11675,38.0,0,59,4.0,0.0
11676,64.0,0,59,6.0,0.0
11677,91.0,0,59,0.0,0.0
11678,74.0,0,14,13.0,0.0
11679,86.0,15,14,12.0,0.0
11680,85.0,15,14,12.0,0.0
11681,73.0,0,14,13.0,0.0
11682,86.0,0,14,12.0,0.0
11683,74.0,0,14,13.0,0.0
11684,61.0,0,44,6.0,0.0
11685,67.0,0,44,10.0,0.0
11686,73.0,0,14,13.0,0.0
11687,64.0,15,59,2.0,0.0
11688,76.0,0,59,1.0,0.0
11689,76.0,0,44,8.0,0.0
11690,61.0,0,59,3.0,0.0
11691,85.0,15,14,12.0,0.0
11692,88.0,0,59,0.0,0.0
11693,74.0,0,14,13.0,0.0
11694,86.0,15,14,12.0,0.0
11695,71.0,0,14,13.0,0.0
11696,83.0,15,14,12.0,0.0
11697,73.0,0,14,13.0,0.0
11698,85.0,0,14,12.0,0.0
11699,45.0,0,59,7.0,0.0
11700,66.0,0,14,14.0,0.0
11701,62.0,0,119,6.0,0.0
11702,62.0,15,14,15.0,0.0
11703,64.0,15,59,11.0,0.0
11704,38.0,0,59,4.0,0.0
11705,67.0,0,59,10.0,0.0
11706,76.0,0,59,8.0,0.0
11707,67.0,0,14,14.0,0.0
11708,64.0,15,14,15.0,0.0
11709,62.0,15,14,15.0,0.0
11710,66.0,0,14,14.0,0.0
11711,64.0,0,14,15.0,0.0
11712,67.0,0,14,14.0,0.0
11713,62.0,0,14,15.0,0.0
11714,74.0,0,59,8.0,0.0
11715,66.0,0,59,11.0,0.0
11716,66.0,15,14,14.0,0.0
11717,69.0,0,59,10.0,0.0
11718,64.0,0,14,15.0,0.0
11719,67.0,15,14,14.0,0.0
11720,61.0,0,14,15.0,0.0
11721,64.0,15,14,14.0,0.0
11722,62.0,15,14,15.0,0.0
11723,66.0,0,14,14.0,0.0
11724,73.0,15,59,1.0,0.0
11725,73.0,0,59,8.0,0.0
11726,64.0,0,59,3.0,0.0
11727,78.0,0,14,12.0,0.0
11728,85.0,0,59,0.0,0.0
11729,67.0,0,59,11.0,0.0
11730,74.0,15,14,13.0,0.0
11731,64.0,0,59,6.0,0.0
11732,45.0,0,59,7.0,0.0
11733,67.0,0,59,2.0,0.0
11734,69.0,0,119,10.0,0.0
11735,38.0,0,59,4.0,0.0
11736,79.0,15,14,12.0,0.0
11737,76.0,0,14,13.0,0.0
11738,74.0,0,14,13.0,0.0
11739,78.0,15,14,12.0,0.0
11740,79.0,0,14,12.0,0.0
11741,76.0,0,14,13.0,0.0
11742,78.0,15,14,12.0,0.0
11743,69.0,0,59,2.0,0.0
11744,86.0,0,59,0.0,0.0
11745,69.0,0,59,11.0,0.0
11746,74.0,0,14,13.0,0.0
11747,66.0,60,59,3.0,0.0
11748,74.0,0,59,8.0,0.0
11749,66.0,0,59,6.0,0.0
11750,74.0,0,59,1.0,0.0
11751,76.0,15,14,13.0,0.0
11752,79.0,0,14,12.0,0.0
11753,73.0,0,14,13.0,0.0
11754,76.0,15,14,12.0,0.0
11755,74.0,0,14,13.0,0.0
11756,78.0,0,14,12.0,0.0
11757,50.0,0,119,15.0,0.0
11758,66.0,60,59,10.0,0.0
11759,45.0,0,59,7.0,0.0
11760,38.0,0,59,4.0,0.0
11761,69.0,60,119,13.0,0.0
11762,62.0,0,59,11.0,0.0
11763,62.0,0,119,15.0,0.0
11764,78.0,0,59,8.0,0.0
11765,62.0,0,119,14.0,0.0
11766,78.0,0,119,12.0,0.0
11767,62.0,0,179,6.0,0.0
11768,67.0,0,119,10.0,0.0
11769,76.0,0,59,8.0,0.0
11770,64.0,0,119,11.0,0.0
11771,38.0,0,59,4.0,0.0
11772,79.0,0,59,8.0,0.0
11773,45.0,60,59,7.0,0.0
11774,62.0,0,59,6.0,0.0
11775,62.0,0,59,14.0,0.0
11776,78.0,0,59,8.0,0.0
11777,69.0,0,59,13.0,0.0
11778,78.0,0,59,12.0,0.0
11779,50.0,0,59,15.0,0.0
11780,66.0,0,59,11.0,0.0
11781,69.0,0,59,10.0,0.0
11782,62.0,60,59,15.0,0.0
11783,38.0,0,119,4.0,0.0
11784,62.0,0,119,15.0,0.0
11785,50.0,0,119,15.0,0.0
11786,67.0,0,119,13.0,0.0
11787,45.0,60,119,7.0,0.0
11788,62.0,0,59,6.0,0.0
11789,66.0,60,59,11.0,0.0
11790,76.0,0,119,12.0,0.0
11791,78.0,0,59,8.0,0.0
11792,74.0,0,59,10.0,0.0
11793,62.0,0,119,14.0,0.0
11794,76.0,0,119,8.0,0.0
11795,57.0,0,119,6.0,0.0
11796,73.0,60,119,10.0,0.0
11797,67.0,0,119,11.0,0.0
11798,62.0,0,59,14.0,0.0
11799,50.0,120,59,15.0,0.0
11800,62.0,0,59,6.0,0.0
11801,73.0,0,59,12.0,0.0
11802,66.0,0,59,13.0,0.0
11803,74.0,0,59,13.0,0.0
11804,62.0,0,59,15.0,0.0
11805,66.0,0,59,11.0,0.0
11806,69.0,0,59,8.0,0.0
11807,74.0,0,59,10.0,0.0
11808,74.0,0,239,10.0,0.0
11809,74.0,0,119,13.0,0.0
11810,62.0,0,119,14.0,0.0
11811,62.0,0,119,15.0,0.0
11812,62.0,0,239,6.0,0.0
11813,50.0,0,119,15.0,0.0
11814,74.0,0,239,8.0,0.0
11815,66.0,0,119,13.0,0.0
11816,74.0,15,119,12.0,0.0
11817,66.0,0,239,11.0,0.0
11818,91.0,0,59,0.0,0.0
11819,79.0,0,59,1.0,0.0
11820,76.0,0,59,1.0,0.0
11821,33.0,0,59,15.0,0.0
11822,33.0,15,59,3.0,0.0
11823,67.0,0,59,3.0,0.0
11824,69.0,0,119,5.0,0.0
11825,57.0,0,119,5.0,0.0
11826,79.0,0,59,2.0,0.0
11827,76.0,0,59,2.0,0.0
11828,57.0,15,119,4.0,0.0
11829,62.0,15,14,15.0,0.0
11830,64.0,0,59,3.0,0.0
11831,66.0,0,14,14.0,0.0
11832,88.0,0,59,0.0,0.0
11833,45.0,0,119,7.0,0.0
11834,45.0,0,119,4.0,0.0
11835,67.0,0,14,14.0,0.0
11836,64.0,15,14,15.0,0.0
11837,66.0,0,14,14.0,0.0
11838,62.0,15,14,15.0,0.0
11839,67.0,0,14,14.0,0.0
11840,64.0,0,14,15.0,0.0
11841,62.0,15,14,15.0,0.0
11842,45.0,0,59,3.0,0.0
11843,78.0,0,59,2.0,0.0
11844,74.0,0,59,2.0,0.0
11845,90.0,0,59,0.0,0.0
11846,86.0,0,59,0.0,0.0
11847,74.0,0,59,1.0,0.0
11848,62.0,0,59,3.0,0.0
11849,78.0,0,59,1.0,0.0
11850,66.0,0,59,3.0,0.0
11851,45.0,0,59,15.0,0.0
11852,66.0,0,14,14.0,0.0
11853,67.0,0,14,14.0,0.0
11854,64.0,15,14,15.0,0.0
11855,61.0,0,14,15.0,0.0
11856,64.0,15,14,14.0,0.0
11857,66.0,0,14,14.0,0.0
11858,62.0,0,14,15.0,0.0
11859,61.0,15,14,15.0,0.0
11860,78.0,0,59,1.0,0.0
11861,74.0,0,59,1.0,0.0
11862,62.0,0,59,3.0,0.0
11863,66.0,0,59,3.0,0.0
11864,64.0,0,14,14.0,0.0
11865,86.0,0,59,0.0,0.0
11866,90.0,0,59,0.0,0.0
11867,62.0,0,59,11.0,0.0
11868,33.0,0,59,3.0,0.0
11869,78.0,0,59,8.0,0.0
11870,57.0,0,119,11.0,0.0
11871,33.0,0,59,15.0,0.0
11872,69.0,0,59,5.0,0.0
11873,74.0,15,59,2.0,0.0
11874,78.0,0,59,2.0,0.0
11875,45.0,0,59,7.0,0.0
11876,57.0,0,59,4.0,0.0
11877,45.0,0,59,4.0,0.0
11878,69.0,0,119,10.0,0.0
11879,57.0,0,59,5.0,0.0
11880,66.0,15,14,14.0,0.0
11881,62.0,0,14,15.0,0.0
11882,64.0,15,14,14.0,0.0
11883,61.0,0,14,15.0,0.0
11884,62.0,0,14,15.0,0.0
11885,66.0,0,14,14.0,0.0
11886,64.0,0,14,14.0,0.0
11887,88.0,0,59,0.0,0.0
11888,85.0,0,59,0.0,0.0
11889,64.0,0,59,3.0,0.0
11890,61.0,0,59,3.0,0.0
11891,45.0,0,59,15.0,0.0
11892,76.0,0,59,1.0,0.0
11893,61.0,0,59,11.0,0.0
11894,76.0,0,59,8.0,0.0
11895,45.0,0,59,3.0,0.0
11896,73.0,0,59,2.0,0.0
11897,76.0,0,59,2.0,0.0
11898,73.0,0,59,1.0,0.0
11899,61.0,15,14,15.0,0.0
11900,62.0,15,14,15.0,0.0
11901,66.0,0,14,14.0,0.0
11902,59.0,0,14,15.0,0.0
11903,62.0,15,14,14.0,0.0
11904,64.0,0,14,14.0,0.0
11905,61.0,15,14,15.0,0.0
11906,57.0,0,59,4.0,0.0
11907,57.0,0,59,5.0,0.0
11908,73.0,0,14,13.0,0.0
11909,74.0,0,59,8.0,0.0
11910,62.0,0,59,3.0,0.0
11911,76.0,15,14,12.0,0.0
11912,45.0,0,59,4.0,0.0
11913,45.0,0,59,7.0,0.0
11914,74.0,0,59,2.0,0.0
11915,74.0,0,59,1.0,0.0
11916,71.0,0,59,1.0,0.0
11917,69.0,0,59,5.0,0.0
11918,59.0,0,59,11.0,0.0
11919,59.0,0,59,3.0,0.0
11920,83.0,0,59,0.0,0.0
11921,86.0,0,59,0.0,0.0
11922,33.0,0,59,3.0,0.0
11923,57.0,0,119,11.0,0.0
11924,69.0,0,119,10.0,0.0
11925,33.0,0,59,15.0,0.0
11926,71.0,0,59,2.0,0.0
11927,74.0,15,14,13.0,0.0
11928,78.0,0,14,12.0,0.0
11929,76.0,0,14,12.0,0.0
11930,73.0,15,14,13.0,0.0
11931,74.0,0,14,13.0,0.0
11932,78.0,15,14,12.0,0.0
11933,73.0,0,59,2.0,0.0
11934,76.0,0,59,2.0,0.0
11935,88.0,15,59,0.0,0.0
11936,76.0,0,59,8.0,0.0
11937,64.0,0,59,3.0,0.0
11938,61.0,0,59,3.0,0.0
11939,45.0,0,59,3.0,0.0
11940,76.0,0,59,1.0,0.0
11941,73.0,0,59,1.0,0.0
11942,45.0,0,59,15.0,0.0
11943,73.0,15,14,13.0,0.0
11944,85.0,0,59,0.0,0.0
11945,76.0,0,14,12.0,0.0
11946,61.0,0,59,11.0,0.0
11947,74.0,15,14,13.0,0.0
11948,78.0,0,14,12.0,0.0
11949,71.0,0,14,13.0,0.0
11950,74.0,15,14,12.0,0.0
11951,76.0,0,14,12.0,0.0
11952,73.0,0,14,13.0,0.0
11953,45.0,0,59,4.0,0.0
11954,57.0,0,119,11.0,0.0
11955,57.0,0,59,4.0,0.0
11956,33.0,0,59,3.0,0.0
11957,66.0,15,14,14.0,0.0
11958,64.0,0,59,11.0,0.0
11959,33.0,0,59,15.0,0.0
11960,57.0,0,59,5.0,0.0
11961,69.0,0,59,5.0,0.0
11962,69.0,0,119,10.0,0.0
11963,79.0,0,59,2.0,0.0
11964,79.0,0,59,8.0,0.0
11965,45.0,0,59,7.0,0.0
11966,64.0,0,59,3.0,0.0
11967,67.0,0,59,3.0,0.0
11968,76.0,0,59,2.0,0.0
11969,62.0,0,14,15.0,0.0
11970,76.0,0,59,1.0,0.0
11971,88.0,0,59,0.0,0.0
11972,91.0,0,59,0.0,0.0
11973,79.0,0,59,1.0,0.0
11974,64.0,0,14,15.0,0.0
11975,67.0,15,14,14.0,0.0
11976,62.0,0,14,15.0,0.0
11977,66.0,15,14,14.0,0.0
11978,67.0,0,14,14.0,0.0
11979,64.0,15,14,15.0,0.0
11980,74.0,0,59,2.0,0.0
11981,62.0,0,14,15.0,0.0
11982,66.0,15,14,14.0,0.0
11983,62.0,0,59,3.0,0.0
11984,62.0,0,59,11.0,0.0
11985,86.0,0,59,0.0,0.0
11986,90.0,0,59,0.0,0.0
11987,78.0,0,59,2.0,0.0
11988,66.0,0,59,3.0,0.0
11989,45.0,0,59,3.0,0.0
11990,45.0,0,59,15.0,0.0
11991,78.0,0,59,1.0,0.0
11992,78.0,0,59,8.0,0.0
11993,74.0,0,59,1.0,0.0
11994,67.0,15,14,14.0,0.0
11995,64.0,0,14,15.0,0.0
11996,64.0,15,14,14.0,0.0
11997,61.0,0,14,15.0,0.0
11998,66.0,0,14,14.0,0.0
11999,62.0,15,14,15.0,0.0
12000,33.0,0,59,15.0,0.0
12001,64.0,0,59,3.0,0.0
12002,67.0,0,59,11.0,0.0
12003,55.0,0,59,3.0,0.0
12004,76.0,0,59,2.0,0.0
12005,45.0,0,59,4.0,0.0
12006,57.0,0,59,4.0,0.0
12007,69.0,0,59,5.0,0.0
12008,57.0,0,59,5.0,0.0
12009,69.0,0,119,10.0,0.0
12010,76.0,0,59,1.0,0.0
12011,67.0,0,59,1.0,0.0
12012,67.0,0,59,2.0,0.0
12013,74.0,0,14,13.0,0.0
12014,78.0,15,14,12.0,0.0
12015,45.0,0,59,7.0,0.0
12016,88.0,0,59,0.0,0.0
12017,79.0,0,59,0.0,0.0
12018,76.0,0,59,8.0,0.0
12019,57.0,0,119,11.0,0.0
12020,33.0,0,59,3.0,0.0
12021,76.0,15,14,13.0,0.0
12022,79.0,0,14,12.0,0.0
12023,74.0,15,14,13.0,0.0
12024,78.0,0,14,12.0,0.0
12025,76.0,15,14,13.0,0.0
12026,79.0,0,14,12.0,0.0
12027,66.0,0,59,1.0,0.0
12028,78.0,15,14,12.0,0.0
12029,45.0,0,59,3.0,0.0
12030,74.0,0,59,2.0,0.0
12031,66.0,0,59,2.0,0.0
12032,74.0,0,59,1.0,0.0
12033,74.0,0,14,13.0,0.0
12034,62.0,0,59,3.0,0.0
12035,54.0,0,59,3.0,0.0
12036,45.0,0,59,15.0,0.0
12037,74.0,0,59,8.0,0.0
12038,66.0,0,59,11.0,0.0
12039,86.0,0,59,0.0,0.0
12040,78.0,0,59,0.0,0.0
12041,79.0,0,14,12.0,0.0
12042,76.0,15,14,13.0,0.0
12043,73.0,0,14,13.0,0.0
12044,76.0,15,14,12.0,0.0
12045,74.0,15,14,13.0,0.0
12046,78.0,0,14,12.0,0.0
12047,78.0,0,59,8.0,0.0
12048,62.0,0,59,11.0,0.0
12049,64.0,0,14,14.0,0.0
12050,86.0,0,59,0.0,0.0
12051,74.0,0,59,2.0,0.0
12052,78.0,0,59,2.0,0.0
12053,45.0,0,59,7.0,0.0
12054,57.0,0,59,4.0,0.0
12055,33.0,0,59,15.0,0.0
12056,69.0,0,59,5.0,0.0
12057,57.0,0,59,5.0,0.0
12058,57.0,0,119,11.0,0.0
12059,90.0,15,59,0.0,0.0
12060,45.0,0,59,4.0,0.0
12061,33.0,0,59,3.0,0.0
12062,66.0,0,59,3.0,0.0
12063,78.0,0,59,1.0,0.0
12064,74.0,0,59,1.0,0.0
12065,69.0,0,119,10.0,0.0
12066,62.0,0,59,3.0,0.0
12067,61.0,15,14,15.0,0.0
12068,62.0,15,14,15.0,0.0
12069,66.0,0,14,14.0,0.0
12070,64.0,0,14,14.0,0.0
12071,61.0,15,14,15.0,0.0
12072,66.0,0,14,14.0,0.0
12073,62.0,0,14,15.0,0.0
12074,73.0,0,59,2.0,0.0
12075,45.0,0,59,15.0,0.0
12076,76.0,0,59,2.0,0.0
12077,61.0,0,59,3.0,0.0
12078,64.0,0,59,3.0,0.0
12079,64.0,15,14,14.0,0.0
12080,61.0,0,14,15.0,0.0
12081,88.0,0,59,0.0,0.0
12082,85.0,0,59,0.0,0.0
12083,61.0,0,59,11.0,0.0
12084,76.0,0,59,1.0,0.0
12085,73.0,0,59,1.0,0.0
12086,45.0,0,59,3.0,0.0
12087,76.0,0,59,8.0,0.0
12088,66.0,0,14,14.0,0.0
12089,62.0,15,14,15.0,0.0
12090,62.0,15,14,14.0,0.0
12091,59.0,0,14,15.0,0.0
12092,61.0,0,14,15.0,0.0
12093,64.0,15,14,14.0,0.0
12094,69.0,0,119,10.0,0.0
12095,73.0,15,14,13.0,0.0
12096,45.0,0,59,7.0,0.0
12097,74.0,0,59,2.0,0.0
12098,62.0,0,59,3.0,0.0
12099,59.0,0,59,11.0,0.0
12100,71.0,0,59,2.0,0.0
12101,69.0,0,59,5.0,0.0
12102,33.0,0,59,3.0,0.0
12103,59.0,0,59,3.0,0.0
12104,83.0,0,59,0.0,0.0
12105,74.0,0,59,1.0,0.0
12106,57.0,0,59,4.0,0.0
12107,57.0,0,59,5.0,0.0
12108,86.0,0,59,0.0,0.0
12109,33.0,15,59,15.0,0.0
12110,71.0,0,59,1.0,0.0
12111,74.0,0,59,8.0,0.0
12112,76.0,0,14,12.0,0.0
12113,45.0,0,59,4.0,0.0
12114,57.0,0,119,11.0,0.0
12115,74.0,15,14,13.0,0.0
12116,78.0,0,14,12.0,0.0
12117,73.0,0,14,13.0,0.0
12118,76.0,15,14,12.0,0.0
12119,74.0,0,14,13.0,0.0
12120,78.0,0,14,12.0,0.0
12121,73.0,15,14,13.0,0.0
12122,45.0,15,59,3.0,0.0
12123,76.0,0,59,8.0,0.0
12124,76.0,0,14,12.0,0.0
12125,61.0,0,59,11.0,0.0
12126,85.0,0,59,0.0,0.0
12127,73.0,0,59,2.0,0.0
12128,76.0,0,59,2.0,0.0
12129,45.0,0,59,15.0,0.0
12130,73.0,0,59,1.0,0.0
12131,76.0,0,59,1.0,0.0
12132,88.0,0,59,0.0,0.0
12133,64.0,0,59,3.0,0.0
12134,61.0,0,59,3.0,0.0
12135,78.0,15,14,12.0,0.0
12136,74.0,0,14,13.0,0.0
12137,71.0,15,14,13.0,0.0
12138,74.0,0,14,12.0,0.0
12139,76.0,0,14,12.0,0.0
12140,73.0,0,14,13.0,0.0
12141,79.0,0,59,1.0,0.0
12142,33.0,0,59,3.0,0.0
12143,91.0,0,59,0.0,0.0
12144,85.0,0,59,0.0,0.0
12145,76.0,0,59,1.0,0.0
12146,62.0,15,14,15.0,0.0
12147,57.0,0,119,11.0,0.0
12148,64.0,0,59,11.0,0.0
12149,33.0,0,59,15.0,0.0
12150,57.0,0,59,4.0,0.0
12151,45.0,0,59,4.0,0.0
12152,69.0,0,119,10.0,0.0
12153,79.0,0,59,2.0,0.0
12154,45.0,0,59,7.0,0.0
12155,57.0,0,59,5.0,0.0
12156,79.0,0,59,8.0,0.0
12157,69.0,0,59,5.0,0.0
12158,64.0,0,59,3.0,0.0
12159,67.0,0,59,3.0,0.0
12160,66.0,0,14,14.0,0.0
12161,76.0,0,59,2.0,0.0
12162,67.0,15,14,14.0,0.0
12163,64.0,0,14,15.0,0.0
12164,62.0,15,14,15.0,0.0
12165,66.0,0,14,14.0,0.0
12166,67.0,0,14,14.0,0.0
12167,64.0,15,14,15.0,0.0
12168,62.0,0,59,3.0,0.0
12169,62.0,0,59,11.0,0.0
12170,66.0,15,59,3.0,0.0
12171,74.0,0,59,1.0,0.0
12172,78.0,0,59,1.0,0.0
12173,83.0,0,59,0.0,0.0
12174,45.0,0,59,3.0,0.0
12175,78.0,0,59,2.0,0.0
12176,74.0,0,59,2.0,0.0
12177,45.0,0,59,15.0,0.0
12178,62.0,0,14,15.0,0.0
12179,78.0,0,59,8.0,0.0
12180,86.0,0,59,0.0,0.0
12181,66.0,15,14,14.0,0.0
12182,67.0,0,14,14.0,0.0
12183,64.0,15,14,15.0,0.0
12184,64.0,0,14,14.0,0.0
12185,61.0,15,14,15.0,0.0
12186,66.0,0,14,14.0,0.0
12187,62.0,0,14,15.0,0.0
12188,33.0,0,59,15.0,0.0
12189,88.0,0,59,0.0,0.0
12190,67.0,0,59,11.0,0.0
12191,64.0,0,59,3.0,0.0
12192,67.0,0,59,2.0,0.0
12193,57.0,0,59,4.0,0.0
12194,45.0,0,59,7.0,0.0
12195,76.0,0,59,8.0,0.0
12196,74.0,15,14,13.0,0.0
12197,76.0,0,59,2.0,0.0
12198,79.0,0,59,0.0,0.0
12199,55.0,0,59,3.0,0.0
12200,45.0,0,59,4.0,0.0
12201,69.0,0,59,5.0,0.0
12202,33.0,15,59,3.0,0.0
12203,69.0,15,104,10.0,0.0
12204,78.0,0,14,12.0,0.0
12205,67.0,0,59,1.0,0.0
12206,76.0,0,59,1.0,0.0
12207,57.0,0,104,11.0,0.0
12208,57.0,0,59,5.0,0.0
12209,76.0,0,14,13.0,0.0
12210,79.0,15,14,12.0,0.0
12211,78.0,0,14,12.0,0.0
12212,74.0,15,14,13.0,0.0
12213,76.0,0,14,13.0,0.0
12214,79.0,0,14,12.0,0.0
12215,86.0,0,59,0.0,0.0
12216,78.0,0,59,0.0,0.0
12217,74.0,0,59,1.0,0.0
12218,66.0,0,59,1.0,0.0
12219,74.0,15,14,13.0,0.0
12220,66.0,0,44,11.0,0.0
12221,74.0,0,44,8.0,0.0
12222,62.0,0,59,3.0,0.0
12223,54.0,0,59,3.0,0.0
12224,74.0,0,59,2.0,0.0
12225,66.0,0,59,2.0,0.0
12226,45.0,0,59,15.0,0.0
12227,45.0,0,59,3.0,0.0
12228,78.0,0,14,12.0,0.0
12229,76.0,0,14,13.0,0.0
12230,79.0,15,14,12.0,0.0
12231,76.0,0,14,12.0,0.0
12232,73.0,0,14,13.0,0.0
12233,78.0,0,14,12.0,0.0
12234,74.0,15,14,13.0,0.0
12235,74.0,0,59,10.0,0.0
12236,57.0,0,59,5.0,0.0
12237,74.0,0,59,1.0,0.0
12238,33.0,0,59,15.0,0.0
12239,78.0,0,59,8.0,0.0
12240,66.0,0,59,3.0,0.0
12241,86.0,15,59,0.0,0.0
12242,33.0,0,59,3.0,0.0
12243,64.0,15,14,14.0,0.0
12244,62.0,0,59,11.0,0.0
12245,90.0,0,59,0.0,0.0
12246,62.0,0,59,3.0,0.0
12247,57.0,0,119,11.0,0.0
12248,66.0,0,59,4.0,0.0
12249,61.0,0,14,15.0,0.0
12250,78.0,0,59,1.0,0.0
12251,45.0,0,59,7.0,0.0
12252,78.0,0,59,2.0,0.0
12253,74.0,0,59,2.0,0.0
12254,69.0,0,59,5.0,0.0
12255,62.0,0,14,15.0,0.0
12256,66.0,15,14,14.0,0.0
12257,64.0,15,14,14.0,0.0
12258,61.0,0,14,15.0,0.0
12259,62.0,0,14,15.0,0.0
12260,66.0,0,14,14.0,0.0
12261,64.0,0,59,3.0,0.0
12262,61.0,0,59,3.0,0.0
12263,64.0,0,59,4.0,0.0
12264,45.0,0,59,3.0,0.0
12265,64.0,0,14,14.0,0.0
12266,73.0,0,59,1.0,0.0
12267,85.0,15,59,0.0,0.0
12268,76.0,0,59,1.0,0.0
12269,88.0,0,59,0.0,0.0
12270,73.0,0,59,10.0,0.0
12271,64.0,0,59,11.0,0.0
12272,73.0,0,59,2.0,0.0
12273,76.0,0,59,2.0,0.0
12274,76.0,0,59,8.0,0.0
12275,45.0,0,59,15.0,0.0
12276,61.0,15,14,15.0,0.0
12277,66.0,15,14,14.0,0.0
12278,62.0,0,14,15.0,0.0
12279,62.0,0,14,14.0,0.0
12280,59.0,15,14,15.0,0.0
12281,64.0,0,14,14.0,0.0
12282,61.0,0,14,15.0,0.0
12283,74.0,0,59,2.0,0.0
12284,45.0,0,59,7.0,0.0
12285,74.0,0,59,1.0,0.0
12286,71.0,0,59,1.0,0.0
12287,59.0,0,59,3.0,0.0
12288,66.0,0,59,11.0,0.0
12289,69.0,0,59,5.0,0.0
12290,74.0,0,59,8.0,0.0
12291,33.0,0,59,3.0,0.0
12292,57.0,0,59,5.0,0.0
12293,71.0,0,59,10.0,0.0
12294,76.0,0,14,12.0,0.0
12295,62.0,0,59,3.0,0.0
12296,71.0,0,59,2.0,0.0
12297,45.0,0,119,11.0,0.0
12298,86.0,0,59,0.0,0.0
12299,73.0,15,14,13.0,0.0
12300,62.0,0,59,4.0,0.0
12301,83.0,0,59,0.0,0.0
12302,33.0,0,59,15.0,0.0
12303,74.0,15,14,13.0,0.0
12304,78.0,0,14,12.0,0.0
12305,73.0,0,14,13.0,0.0
12306,76.0,15,14,12.0,0.0
12307,74.0,0,14,13.0,0.0
12308,78.0,15,14,12.0,0.0
12309,76.0,0,14,12.0,0.0
12310,64.0,0,59,4.0,0.0
12311,73.0,15,14,13.0,0.0
12312,45.0,0,59,15.0,0.0
12313,76.0,0,59,1.0,0.0
12314,88.0,0,59,0.0,0.0
12315,73.0,0,59,1.0,0.0
12316,76.0,0,59,8.0,0.0
12317,73.0,0,59,10.0,0.0
12318,45.0,0,59,3.0,0.0
12319,76.0,0,59,2.0,0.0
12320,73.0,0,59,2.0,0.0
12321,64.0,0,59,3.0,0.0
12322,64.0,15,59,11.0,0.0
12323,85.0,0,59,0.0,0.0
12324,61.0,0,59,3.0,0.0
12325,78.0,15,14,12.0,0.0
12326,74.0,0,14,13.0,0.0
12327,71.0,15,14,13.0,0.0
12328,74.0,0,14,12.0,0.0
12329,73.0,0,14,13.0,0.0
12330,76.0,0,14,12.0,0.0
12331,79.0,0,59,1.0,0.0
12332,61.0,0,59,3.0,0.0
12333,88.0,0,59,0.0,0.0
12334,91.0,0,59,0.0,0.0
12335,33.0,0,59,3.0,0.0
12336,76.0,0,59,10.0,0.0
12337,79.0,0,59,8.0,0.0
12338,69.0,0,59,5.0,0.0
12339,61.0,0,59,11.0,0.0
12340,76.0,15,59,1.0,0.0
12341,64.0,0,59,3.0,0.0
12342,57.0,0,59,5.0,0.0
12343,45.0,0,59,7.0,0.0
12344,76.0,0,59,2.0,0.0
12345,79.0,0,59,2.0,0.0
12346,33.0,0,59,15.0,0.0
12347,45.0,0,119,11.0,0.0
12348,66.0,0,14,14.0,0.0
12349,67.0,0,59,4.0,0.0
12350,62.0,15,14,15.0,0.0
12351,67.0,0,14,14.0,0.0
12352,64.0,15,14,15.0,0.0
12353,66.0,0,14,14.0,0.0
12354,62.0,15,14,15.0,0.0
12355,64.0,0,14,15.0,0.0
12356,67.0,0,14,14.0,0.0
12357,74.0,0,59,2.0,0.0
12358,78.0,0,59,2.0,0.0
12359,45.0,0,59,3.0,0.0
12360,66.0,0,59,4.0,0.0
12361,78.0,0,59,1.0,0.0
12362,74.0,0,59,1.0,0.0
12363,66.0,15,14,14.0,0.0
12364,45.0,0,59,15.0,0.0
12365,62.0,0,59,11.0,0.0
12366,90.0,0,59,0.0,0.0
12367,78.0,0,59,8.0,0.0
12368,66.0,0,59,3.0,0.0
12369,62.0,0,59,3.0,0.0
12370,74.0,0,59,10.0,0.0
12371,86.0,15,59,0.0,0.0
12372,62.0,0,14,15.0,0.0
12373,67.0,0,14,14.0,0.0
12374,64.0,15,14,15.0,0.0
12375,61.0,0,14,15.0,0.0
12376,64.0,15,14,14.0,0.0
12377,62.0,0,14,15.0,0.0
12378,66.0,0,14,14.0,0.0
12379,74.0,0,59,10.0,0.0
12380,86.0,0,59,0.0,0.0
12381,90.0,0,59,0.0,0.0
12382,69.0,0,59,5.0,0.0
12383,57.0,0,59,5.0,0.0
12384,78.0,0,59,2.0,0.0
12385,74.0,0,59,2.0,0.0
12386,33.0,0,59,3.0,0.0
12387,66.0,0,59,4.0,0.0
12388,33.0,0,59,15.0,0.0
12389,78.0,0,14,12.0,0.0
12390,78.0,0,59,8.0,0.0
12391,45.0,0,119,11.0,0.0
12392,45.0,0,59,7.0,0.0
12393,66.0,15,14,13.0,0.0
12394,62.0,0,59,3.0,0.0
12395,78.0,15,59,1.0,0.0
12396,74.0,0,59,1.0,0.0
12397,62.0,0,59,11.0,0.0
12398,66.0,0,59,3.0,0.0
12399,67.0,0,14,13.0,0.0
12400,79.0,15,14,12.0,0.0
12401,66.0,0,14,13.0,0.0
12402,78.0,15,14,12.0,0.0
12403,79.0,0,14,12.0,0.0
12404,67.0,0,14,13.0,0.0
12405,76.0,0,59,8.0,0.0
12406,73.0,0,59,1.0,0.0
12407,73.0,0,59,10.0,0.0
12408,88.0,15,59,0.0,0.0
12409,78.0,15,14,12.0,0.0
12410,64.0,0,59,4.0,0.0
12411,76.0,0,59,2.0,0.0
12412,76.0,0,59,1.0,0.0
12413,66.0,0,14,13.0,0.0
12414,73.0,0,59,2.0,0.0
12415,64.0,0,59,11.0,0.0
12416,45.0,0,59,3.0,0.0
12417,64.0,0,59,3.0,0.0
12418,45.0,0,59,15.0,0.0
12419,85.0,0,59,0.0,0.0
12420,67.0,0,59,3.0,0.0
12421,67.0,0,14,13.0,0.0
12422,79.0,15,14,12.0,0.0
12423,64.0,15,14,13.0,0.0
12424,76.0,0,14,12.0,0.0
12425,66.0,0,14,13.0,0.0
12426,78.0,0,14,12.0,0.0
12427,45.0,0,119,11.0,0.0
12428,76.0,0,59,1.0,0.0
12429,73.0,0,59,1.0,0.0
12430,45.0,0,59,7.0,0.0
12431,61.0,15,59,3.0,0.0
12432,52.0,0,59,3.0,0.0
12433,73.0,0,59,10.0,0.0
12434,62.0,0,14,14.0,0.0
12435,59.0,15,14,15.0,0.0
12436,85.0,0,59,0.0,0.0
12437,69.0,0,59,5.0,0.0
12438,73.0,0,59,2.0,0.0
12439,52.0,0,59,11.0,0.0
12440,88.0,0,59,0.0,0.0
12441,57.0,0,59,5.0,0.0
12442,33.0,0,59,15.0,0.0
12443,76.0,0,59,2.0,0.0
12444,33.0,0,59,3.0,0.0
12445,76.0,0,59,8.0,0.0
12446,64.0,0,59,4.0,0.0
12447,61.0,15,14,15.0,0.0
12448,64.0,0,14,14.0,0.0
12449,62.0,15,14,14.0,0.0
12450,59.0,0,14,15.0,0.0
12451,64.0,0,14,14.0,0.0
12452,61.0,0,14,15.0,0.0
12453,71.0,0,59,2.0,0.0
12454,83.0,0,59,0.0,0.0
12455,45.0,15,59,15.0,0.0
12456,86.0,0,59,0.0,0.0
12457,54.0,0,59,11.0,0.0
12458,74.0,0,59,2.0,0.0
12459,74.0,0,59,8.0,0.0
12460,54.0,0,59,3.0,0.0
12461,62.0,15,14,14.0,0.0
12462,71.0,0,59,10.0,0.0
12463,45.0,0,59,3.0,0.0
12464,71.0,0,59,1.0,0.0
12465,74.0,0,59,1.0,0.0
12466,62.0,0,59,3.0,0.0
12467,62.0,0,59,4.0,0.0
12468,59.0,0,14,15.0,0.0
12469,64.0,15,14,14.0,0.0
12470,61.0,0,14,15.0,0.0
12471,57.0,0,14,15.0,0.0
12472,61.0,15,14,14.0,0.0
12473,62.0,0,14,14.0,0.0
12474,59.0,0,14,15.0,0.0
12475,74.0,0,59,1.0,0.0
12476,45.0,0,119,11.0,0.0
12477,71.0,15,59,10.0,0.0
12478,86.0,0,14,12.0,0.0
12479,45.0,0,59,7.0,0.0
12480,71.0,0,59,1.0,0.0
12481,74.0,15,14,13.0,0.0
12482,83.0,0,59,0.0,0.0
12483,74.0,0,59,8.0,0.0
12484,33.0,0,59,3.0,0.0
12485,62.0,0,59,3.0,0.0
12486,54.0,0,59,3.0,0.0
12487,54.0,0,59,11.0,0.0
12488,33.0,0,59,15.0,0.0
12489,69.0,0,59,5.0,0.0
12490,57.0,0,59,5.0,0.0
12491,62.0,0,59,4.0,0.0
12492,71.0,0,59,2.0,0.0
12493,74.0,0,59,2.0,0.0
12494,86.0,0,59,0.0,0.0
12495,88.0,15,14,12.0,0.0
12496,76.0,0,14,13.0,0.0
12497,86.0,15,14,12.0,0.0
12498,74.0,0,14,13.0,0.0
12499,88.0,0,14,12.0,0.0
12500,76.0,0,14,13.0,0.0
12501,68.0,0,59,1.0,0.0
12502,86.0,0,14,12.0,0.0
12503,45.0,0,59,15.0,0.0
12504,88.0,0,59,0.0,0.0
12505,80.0,0,59,0.0,0.0
12506,64.0,15,59,4.0,0.0
12507,56.0,0,59,3.0,0.0
12508,45.0,0,59,3.0,0.0
12509,76.0,0,59,8.0,0.0
12510,74.0,15,14,13.0,0.0
12511,76.0,0,59,1.0,0.0
12512,64.0,0,59,10.0,0.0
12513,68.0,0,59,2.0,0.0
12514,76.0,0,59,2.0,0.0
12515,59.0,0,59,3.0,0.0
12516,56.0,0,59,11.0,0.0
12517,76.0,0,14,13.0,0.0
12518,88.0,15,14,12.0,0.0
12519,73.0,0,14,13.0,0.0
12520,85.0,15,14,12.0,0.0
12521,86.0,0,14,12.0,0.0
12522,74.0,0,14,13.0,0.0
12523,33.0,0,59,15.0,0.0
12524,61.0,0,14,15.0,0.0
12525,57.0,0,59,11.0,0.0
12526,81.0,0,119,0.0,0.0
12527,69.0,15,104,8.0,0.0
12528,69.0,0,59,2.0,0.0
12529,64.0,15,14,14.0,0.0
12530,45.0,0,59,7.0,0.0
12531,69.0,0,59,1.0,0.0
12532,45.0,0,104,11.0,0.0
12533,69.0,0,59,10.0,0.0
12534,33.0,0,59,3.0,0.0
12535,57.0,0,59,5.0,0.0
12536,69.0,0,59,5.0,0.0
12537,57.0,0,119,4.0,0.0
12538,61.0,0,59,3.0,0.0
12539,57.0,0,59,3.0,0.0
12540,62.0,0,14,15.0,0.0
12541,66.0,15,14,14.0,0.0
12542,61.0,15,14,15.0,0.0
12543,64.0,0,14,14.0,0.0
12544,66.0,0,14,14.0,0.0
12545,62.0,15,14,15.0,0.0
12546,76.0,0,59,1.0,0.0
12547,64.0,0,14,14.0,0.0
12548,67.0,0,44,10.0,0.0
12549,67.0,0,59,3.0,0.0
12550,64.0,0,59,3.0,0.0
12551,67.0,0,59,4.0,0.0
12552,45.0,0,59,3.0,0.0
12553,76.0,0,59,2.0,0.0
12554,45.0,15,59,15.0,0.0
12555,73.0,0,59,2.0,0.0
12556,64.0,0,59,11.0,0.0
12557,61.0,15,14,15.0,0.0
12558,79.0,0,59,1.0,0.0
12559,66.0,0,14,14.0,0.0
12560,62.0,15,14,15.0,0.0
12561,59.0,0,14,15.0,0.0
12562,62.0,0,14,14.0,0.0
12563,61.0,0,14,15.0,0.0
12564,64.0,0,14,14.0,0.0
12565,26.0,0,59,15.0,0.0
12566,66.0,0,59,10.0,0.0
12567,62.0,0,59,11.0,0.0
12568,66.0,0,59,4.0,0.0
12569,81.0,0,14,12.0,0.0
12570,78.0,0,179,2.0,0.0
12571,45.0,0,59,7.0,0.0
12572,74.0,0,59,1.0,0.0
12573,62.0,0,59,3.0,0.0
12574,66.0,15,59,3.0,0.0
12575,57.0,0,59,5.0,0.0
12576,69.0,0,59,5.0,0.0
12577,26.0,0,59,3.0,0.0
12578,74.0,0,179,2.0,0.0
12579,45.0,0,119,11.0,0.0
12580,86.0,0,179,0.0,0.0
12581,78.0,0,179,8.0,0.0
12582,78.0,0,59,1.0,0.0
12583,69.0,15,14,13.0,0.0
12584,90.0,0,179,0.0,0.0
12585,83.0,0,14,12.0,0.0
12586,71.0,15,14,13.0,0.0
12587,81.0,0,14,12.0,0.0
12588,69.0,15,14,13.0,0.0
12589,83.0,0,14,12.0,0.0
12590,71.0,0,14,13.0,0.0
12591,64.0,15,59,4.0,0.0
12592,76.0,0,59,1.0,0.0
12593,73.0,0,59,1.0,0.0
12594,81.0,15,14,12.0,0.0
12595,61.0,0,59,3.0,0.0
12596,61.0,0,59,11.0,0.0
12597,64.0,0,59,3.0,0.0
12598,33.0,0,59,3.0,0.0
12599,64.0,0,59,10.0,0.0
12600,69.0,0,14,13.0,0.0
12601,33.0,0,59,15.0,0.0
12602,83.0,0,14,12.0,0.0
12603,71.0,15,14,13.0,0.0
12604,68.0,15,14,13.0,0.0
12605,80.0,0,14,12.0,0.0
12606,81.0,0,14,12.0,0.0
12607,69.0,0,14,13.0,0.0
12608,62.0,15,59,11.0,0.0
12609,38.0,0,59,4.0,0.0
12610,78.0,0,59,1.0,0.0
12611,26.0,0,59,3.0,0.0
12612,26.0,0,59,15.0,0.0
12613,66.0,0,119,10.0,0.0
12614,54.0,0,14,15.0,0.0
12615,50.0,0,119,11.0,0.0
12616,74.0,0,59,1.0,0.0
12617,66.0,0,59,4.0,0.0
12618,45.0,0,59,7.0,0.0
12619,57.0,0,59,5.0,0.0
12620,62.0,0,59,3.0,0.0
12621,66.0,0,59,3.0,0.0
12622,66.0,15,14,14.0,0.0
12623,69.0,0,59,5.0,0.0
12624,67.0,0,14,14.0,0.0
12625,55.0,15,14,15.0,0.0
12626,66.0,15,14,14.0,0.0
12627,54.0,0,14,15.0,0.0
12628,55.0,0,14,15.0,0.0
12629,67.0,0,14,14.0,0.0
12630,64.0,0,59,11.0,0.0
12631,79.0,0,59,1.0,0.0
12632,76.0,0,59,1.0,0.0
12633,67.0,0,59,4.0,0.0
12634,54.0,15,14,15.0,0.0
12635,79.0,0,59,8.0,0.0
12636,33.0,0,59,3.0,0.0
12637,33.0,0,59,15.0,0.0
12638,76.0,0,59,2.0,0.0
12639,79.0,0,59,2.0,0.0
12640,66.0,0,14,14.0,0.0
12641,88.0,0,59,0.0,0.0
12642,91.0,15,59,0.0,0.0
12643,64.0,0,59,3.0,0.0
12644,67.0,0,59,3.0,0.0
12645,55.0,0,14,15.0,0.0
12646,67.0,15,14,14.0,0.0
12647,64.0,0,14,14.0,0.0
12648,52.0,15,14,15.0,0.0
12649,66.0,0,14,14.0,0.0
12650,54.0,0,14,15.0,0.0
12651,66.0,0,14,13.0,0.0
12652,88.0,0,59,0.0,0.0
12653,76.0,0,59,2.0,0.0
12654,73.0,0,59,2.0,0.0
12655,64.0,0,59,3.0,0.0
12656,85.0,0,59,0.0,0.0
12657,61.0,0,59,3.0,0.0
12658,69.0,15,59,5.0,0.0
12659,26.0,0,59,15.0,0.0
12660,62.0,0,59,5.0,0.0
12661,50.0,0,119,11.0,0.0
12662,38.0,0,59,4.0,0.0
12663,76.0,0,59,1.0,0.0
12664,73.0,0,59,1.0,0.0
12665,76.0,0,59,8.0,0.0
12666,69.0,0,119,10.0,0.0
12667,26.0,0,59,3.0,0.0
12668,45.0,0,59,7.0,0.0
12669,78.0,15,14,12.0,0.0
12670,64.0,0,59,4.0,0.0
12671,61.0,0,59,11.0,0.0
12672,67.0,0,14,13.0,0.0
12673,79.0,15,14,12.0,0.0
12674,66.0,0,14,13.0,0.0
12675,78.0,15,14,12.0,0.0
12676,79.0,0,14,12.0,0.0
12677,67.0,0,14,13.0,0.0
12678,74.0,0,59,1.0,0.0
12679,78.0,0,59,1.0,0.0
12680,66.0,15,14,13.0,0.0
12681,74.0,0,59,2.0,0.0
12682,78.0,0,59,2.0,0.0
12683,62.0,15,59,11.0,0.0
12684,33.0,0,59,3.0,0.0
12685,33.0,0,59,15.0,0.0
12686,66.0,0,59,4.0,0.0
12687,90.0,0,59,0.0,0.0
12688,66.0,0,59,3.0,0.0
12689,62.0,0,59,3.0,0.0
12690,78.0,0,59,8.0,0.0
12691,86.0,0,59,0.0,0.0
12692,78.0,0,14,12.0,0.0
12693,67.0,15,14,13.0,0.0
12694,79.0,0,14,12.0,0.0
12695,76.0,15,14,12.0,0.0
12696,64.0,0,14,13.0,0.0
12697,78.0,0,14,12.0,0.0
12698,66.0,0,14,13.0,0.0
12699,55.0,0,59,3.0,0.0
12700,74.0,0,14,14.0,0.0
12701,79.0,0,59,8.0,0.0
12702,52.0,0,59,3.0,0.0
12703,26.0,0,59,3.0,0.0
12704,62.0,0,59,5.0,0.0
12705,69.0,0,59,5.0,0.0
12706,50.0,0,119,11.0,0.0
12707,67.0,0,59,4.0,0.0
12708,38.0,0,59,4.0,0.0
12709,76.0,0,59,2.0,0.0
12710,79.0,0,59,1.0,0.0
12711,76.0,0,59,1.0,0.0
12712,64.0,0,59,11.0,0.0
12713,79.0,0,59,2.0,0.0
12714,45.0,0,59,7.0,0.0
12715,69.0,0,119,10.0,0.0
12716,26.0,15,59,15.0,0.0
12717,88.0,0,59,0.0,0.0
12718,91.0,0,59,0.0,0.0
12719,62.0,15,14,15.0,0.0
12720,76.0,15,14,14.0,0.0
12721,64.0,0,14,15.0,0.0
12722,62.0,0,14,15.0,0.0
12723,74.0,15,14,14.0,0.0
12724,64.0,0,14,15.0,0.0
12725,76.0,0,14,14.0,0.0
12726,62.0,0,14,15.0,0.0
12727,66.0,0,59,11.0,0.0
12728,69.0,0,59,4.0,0.0
12729,93.0,0,59,0.0,0.0
12730,33.0,0,59,3.0,0.0
12731,90.0,0,59,0.0,0.0
12732,78.0,0,59,1.0,0.0
12733,33.0,0,59,15.0,0.0
12734,81.0,0,59,1.0,0.0
12735,74.0,15,14,14.0,0.0
12736,81.0,0,59,2.0,0.0
12737,78.0,0,59,2.0,0.0
12738,57.0,0,59,3.0,0.0
12739,81.0,0,59,8.0,0.0
12740,54.0,0,59,3.0,0.0
12741,64.0,0,14,15.0,0.0
12742,76.0,15,14,14.0,0.0
12743,73.0,15,14,14.0,0.0
12744,61.0,0,14,15.0,0.0
12745,74.0,15,14,14.0,0.0
12746,62.0,0,14,15.0,0.0
12747,74.0,15,14,13.0,0.0
12748,26.0,0,59,15.0,0.0
12749,91.0,0,59,0.0,0.0
12750,83.0,0,59,0.0,0.0
12751,45.0,0,59,7.0,0.0
12752,55.0,0,59,3.0,0.0
12753,59.0,0,59,3.0,0.0
12754,69.0,0,119,10.0,0.0
12755,67.0,0,59,11.0,0.0
12756,86.0,0,14,12.0,0.0
12757,79.0,0,59,1.0,0.0
12758,50.0,0,119,11.0,0.0
12759,69.0,0,59,5.0,0.0
12760,38.0,15,59,4.0,0.0
12761,69.0,0,119,4.0,0.0
12762,26.0,0,59,3.0,0.0
12763,79.0,0,59,2.0,0.0
12764,83.0,0,59,2.0,0.0
12765,62.0,0,59,5.0,0.0
12766,83.0,0,59,8.0,0.0
12767,83.0,0,59,1.0,0.0
12768,76.0,0,14,13.0,0.0
12769,88.0,15,14,12.0,0.0
12770,74.0,15,14,13.0,0.0
12771,86.0,0,14,12.0,0.0
12772,76.0,0,14,13.0,0.0
12773,88.0,0,14,12.0,0.0
12774,57.0,0,59,3.0,0.0
12775,66.0,0,59,11.0,0.0
12776,81.0,0,59,0.0,0.0
12777,90.0,15,59,0.0,0.0
12778,78.0,0,59,1.0,0.0
12779,81.0,0,59,1.0,0.0
12780,81.0,0,59,2.0,0.0
12781,78.0,0,59,2.0,0.0
12782,54.0,0,59,3.0,0.0
12783,74.0,15,14,13.0,0.0
12784,33.0,0,59,15.0,0.0
12785,33.0,0,59,3.0,0.0
12786,81.0,0,59,8.0,0.0
12787,86.0,0,14,12.0,0.0
12788,88.0,15,14,12.0,0.0
12789,76.0,0,14,13.0,0.0
12790,85.0,15,14,12.0,0.0
12791,73.0,0,14,13.0,0.0
12792,74.0,0,14,13.0,0.0
12793,86.0,0,14,12.0,0.0
12794,26.0,0,59,3.0,0.0
12795,59.0,0,14,15.0,0.0
12796,38.0,0,119,4.0,0.0
12797,69.0,0,59,4.0,0.0
12798,50.0,0,119,11.0,0.0
12799,81.0,0,59,0.0,0.0
12800,62.0,15,119,5.0,0.0
12801,81.0,0,59,1.0,0.0
12802,26.0,0,59,15.0,0.0
12803,72.0,0,59,1.0,0.0
12804,81.0,0,59,2.0,0.0
12805,45.0,0,119,7.0,0.0
12806,81.0,0,59,8.0,0.0
12807,69.0,0,119,5.0,0.0
12808,84.0,0,59,0.0,0.0
12809,71.0,15,14,14.0,0.0
12810,62.0,0,119,10.0,0.0
12811,60.0,0,59,11.0,0.0
12812,72.0,0,59,2.0,0.0
12813,57.0,0,59,3.0,0.0
12814,60.0,0,59,3.0,0.0
12815,60.0,0,14,15.0,0.0
12816,72.0,15,14,14.0,0.0
12817,71.0,0,14,14.0,0.0
12818,59.0,15,14,15.0,0.0
12819,60.0,15,14,15.0,0.0
12820,72.0,0,14,14.0,0.0
12821,55.0,0,59,3.0,0.0
12822,33.0,0,59,15.0,0.0
12823,79.0,0,59,2.0,0.0
12824,71.0,0,59,2.0,0.0
12825,67.0,0,59,4.0,0.0
12826,33.0,0,59,3.0,0.0
12827,59.0,0,59,3.0,0.0
12828,59.0,15,14,15.0,0.0
12829,79.0,0,59,0.0,0.0
12830,83.0,0,59,0.0,0.0
12831,71.0,0,59,1.0,0.0
12832,71.0,0,14,14.0,0.0
12833,79.0,0,59,8.0,0.0
12834,79.0,0,59,1.0,0.0
12835,59.0,0,59,11.0,0.0
12836,72.0,15,14,14.0,0.0
12837,60.0,0,14,15.0,0.0
12838,57.0,15,14,15.0,0.0
12839,69.0,0,14,14.0,0.0
12840,71.0,0,14,14.0,0.0
12841,59.0,0,14,15.0,0.0
12842,45.0,0,119,7.0,0.0
12843,62.0,0,119,5.0,0.0
12844,71.0,15,14,13.0,0.0
12845,83.0,0,59,1.0,0.0
12846,83.0,0,59,0.0,0.0
12847,74.0,0,59,1.0,0.0
12848,83.0,0,59,8.0,0.0
12849,74.0,0,119,10.0,0.0
12850,50.0,0,119,11.0,0.0
12851,26.0,0,59,15.0,0.0
12852,38.0,0,119,4.0,0.0
12853,62.0,15,59,3.0,0.0
12854,69.0,0,119,5.0,0.0
12855,67.0,15,119,4.0,0.0
12856,62.0,0,59,11.0,0.0
12857,59.0,0,59,3.0,0.0
12858,86.0,0,59,0.0,0.0
12859,83.0,0,14,12.0,0.0
12860,74.0,0,59,2.0,0.0
12861,83.0,0,59,2.0,0.0
12862,26.0,0,59,3.0,0.0
12863,84.0,0,14,12.0,0.0
12864,72.0,15,14,13.0,0.0
12865,83.0,0,14,12.0,0.0
12866,71.0,15,14,13.0,0.0
12867,84.0,0,14,12.0,0.0
12868,72.0,0,14,13.0,0.0
12869,33.0,0,59,3.0,0.0
12870,33.0,0,59,15.0,0.0
12871,79.0,0,59,2.0,0.0
12872,71.0,0,59,2.0,0.0
12873,83.0,0,59,0.0,0.0
12874,79.0,0,59,1.0,0.0
12875,79.0,0,59,8.0,0.0
12876,71.0,0,59,1.0,0.0
12877,59.0,0,59,11.0,0.0
12878,79.0,0,59,0.0,0.0
12879,83.0,0,14,12.0,0.0
12880,59.0,0,59,3.0,0.0
12881,71.0,15,14,13.0,0.0
12882,55.0,0,59,3.0,0.0
12883,72.0,0,14,13.0,0.0
12884,84.0,15,14,12.0,0.0
12885,81.0,15,14,12.0,0.0
12886,69.0,0,14,13.0,0.0
12887,83.0,0,14,12.0,0.0
12888,71.0,0,14,13.0,0.0
12889,76.0,0,119,10.0,0.0
12890,67.0,0,14,14.0,0.0
12891,55.0,15,14,15.0,0.0
12892,45.0,0,119,7.0,0.0
12893,90.0,0,59,0.0,0.0
12894,26.0,0,59,3.0,0.0
12895,78.0,15,59,8.0,0.0
12896,78.0,0,59,2.0,0.0
12897,26.0,0,59,15.0,0.0
12898,69.0,0,119,5.0,0.0
12899,62.0,0,119,5.0,0.0
12900,50.0,0,119,11.0,0.0
12901,78.0,0,59,1.0,0.0
12902,74.0,0,59,1.0,0.0
12903,86.0,0,59,0.0,0.0
12904,38.0,0,119,4.0,0.0
12905,66.0,0,59,4.0,0.0
12906,62.0,0,59,3.0,0.0
12907,66.0,0,59,3.0,0.0
12908,62.0,0,59,11.0,0.0
12909,74.0,0,59,2.0,0.0
12910,69.0,15,14,14.0,0.0
12911,57.0,0,14,15.0,0.0
12912,55.0,0,14,15.0,0.0
12913,67.0,15,14,14.0,0.0
12914,57.0,0,14,15.0,0.0
12915,69.0,0,14,14.0,0.0
12916,55.0,15,14,15.0,0.0
12917,61.0,0,59,3.0,0.0
12918,73.0,0,59,1.0,0.0
12919,76.0,0,59,8.0,0.0
12920,64.0,0,59,3.0,0.0
12921,67.0,0,14,14.0,0.0
12922,88.0,0,59,0.0,0.0
12923,61.0,0,59,11.0,0.0
12924,33.0,0,59,3.0,0.0
12925,33.0,0,59,15.0,0.0
12926,64.0,0,59,4.0,0.0
12927,85.0,15,59,0.0,0.0
12928,76.0,0,59,1.0,0.0
12929,76.0,0,59,2.0,0.0
12930,73.0,0,59,2.0,0.0
12931,69.0,0,14,14.0,0.0
12932,57.0,15,14,15.0,0.0
12933,54.0,0,14,15.0,0.0
12934,66.0,15,14,14.0,0.0
12935,67.0,0,14,14.0,0.0
12936,55.0,0,14,15.0,0.0
12937,38.0,0,119,4.0,0.0
12938,45.0,0,119,7.0,0.0
12939,88.0,0,59,0.0,0.0
12940,76.0,0,59,2.0,0.0
12941,62.0,0,119,5.0,0.0
12942,69.0,0,119,5.0,0.0
12943,79.0,0,14,12.0,0.0
12944,50.0,0,104,11.0,0.0
12945,67.0,15,14,13.0,0.0
12946,79.0,0,59,2.0,0.0
12947,64.0,0,59,11.0,0.0
12948,91.0,0,59,0.0,0.0
12949,79.0,0,59,1.0,0.0
12950,67.0,15,59,3.0,0.0
12951,67.0,0,59,4.0,0.0
12952,76.0,0,59,1.0,0.0
12953,26.0,0,59,3.0,0.0
12954,79.0,0,59,8.0,0.0
12955,26.0,0,59,15.0,0.0
12956,64.0,0,59,3.0,0.0
12957,67.0,15,104,10.0,0.0
12958,81.0,0,14,12.0,0.0
12959,69.0,15,14,13.0,0.0
12960,67.0,0,14,13.0,0.0
12961,79.0,15,14,12.0,0.0
12962,81.0,0,14,12.0,0.0
12963,69.0,0,14,13.0,0.0
12964,33.0,0,59,3.0,0.0
12965,76.0,0,44,8.0,0.0
12966,67.0,0,14,13.0,0.0
12967,64.0,15,59,4.0,0.0
12968,79.0,15,14,12.0,0.0
12969,88.0,0,59,0.0,0.0
12970,85.0,0,59,0.0,0.0
12971,33.0,0,59,15.0,0.0
12972,73.0,0,59,2.0,0.0
12973,76.0,0,59,1.0,0.0
12974,61.0,0,44,11.0,0.0
12975,73.0,0,59,1.0,0.0
12976,76.0,0,59,2.0,0.0
12977,61.0,0,59,3.0,0.0
12978,64.0,0,59,3.0,0.0
12979,81.0,0,14,12.0,0.0
12980,69.0,15,14,13.0,0.0
12981,78.0,0,14,12.0,0.0
12982,66.0,0,14,13.0,0.0
12983,67.0,0,14,13.0,0.0
12984,79.0,0,14,12.0,0.0
12985,88.0,0,59,0.0,0.0
12986,79.0,0,59,0.0,0.0
12987,76.0,0,59,1.0,0.0
12988,67.0,0,59,1.0,0.0
12989,26.0,0,59,3.0,0.0
12990,67.0,0,59,10.0,0.0
12991,66.0,0,14,14.0,0.0
12992,55.0,0,59,3.0,0.0
12993,64.0,0,59,3.0,0.0
12994,62.0,0,119,11.0,0.0
12995,54.0,15,14,15.0,0.0
12996,76.0,0,59,2.0,0.0
12997,64.0,0,59,4.0,0.0
12998,67.0,15,59,2.0,0.0
12999,69.0,0,119,5.0,0.0
13000,50.0,0,119,11.0,0.0
13001,38.0,0,119,4.0,0.0
13002,62.0,0,119,5.0,0.0
13003,45.0,0,119,7.0,0.0
13004,76.0,0,59,8.0,0.0
13005,26.0,0,59,15.0,0.0
13006,55.0,0,14,15.0,0.0
13007,67.0,15,14,14.0,0.0
13008,66.0,0,14,14.0,0.0
13009,54.0,15,14,15.0,0.0
13010,67.0,0,14,14.0,0.0
13011,55.0,0,14,15.0,0.0
13012,66.0,0,59,10.0,0.0
13013,66.0,0,59,1.0,0.0
13014,54.0,15,14,15.0,0.0
13015,74.0,0,59,2.0,0.0
13016,62.0,0,59,3.0,0.0
13017,62.0,0,59,4.0,0.0
13018,33.0,0,59,15.0,0.0
13019,74.0,0,59,8.0,0.0
13020,66.0,0,59,2.0,0.0
13021,54.0,0,59,3.0,0.0
13022,33.0,15,59,3.0,0.0
13023,74.0,0,59,1.0,0.0
13024,66.0,0,14,14.0,0.0
13025,86.0,0,59,0.0,0.0
13026,78.0,0,59,0.0,0.0
13027,67.0,0,14,14.0,0.0
13028,55.0,15,14,15.0,0.0
13029,52.0,0,14,15.0,0.0
13030,64.0,15,14,14.0,0.0
13031,54.0,0,14,15.0,0.0
13032,66.0,0,14,14.0,0.0
13033,26.0,0,59,3.0,0.0
13034,57.0,0,59,4.0,0.0
13035,38.0,0,119,4.0,0.0
13036,64.0,0,59,2.0,0.0
13037,73.0,0,59,2.0,0.0
13038,73.0,0,59,8.0,0.0
13039,26.0,15,59,15.0,0.0
13040,69.0,0,119,5.0,0.0
13041,78.0,0,14,12.0,0.0
13042,62.0,0,119,5.0,0.0
13043,45.0,0,119,7.0,0.0
13044,64.0,0,59,10.0,0.0
13045,73.0,0,59,1.0,0.0
13046,64.0,0,59,1.0,0.0
13047,50.0,0,119,11.0,0.0
13048,76.0,0,59,0.0,0.0
13049,62.0,0,119,11.0,0.0
13050,66.0,15,14,13.0,0.0
13051,85.0,0,59,0.0,0.0
13052,61.0,0,59,3.0,0.0
13053,52.0,0,59,3.0,0.0
13054,79.0,15,14,12.0,0.0
13055,67.0,0,14,13.0,0.0
13056,78.0,15,14,12.0,0.0
13057,66.0,0,14,13.0,0.0
13058,79.0,0,14,12.0,0.0
13059,67.0,0,14,13.0,0.0
13060,66.0,0,59,10.0,0.0
13061,62.0,0,59,3.0,0.0
13062,54.0,0,59,3.0,0.0
13063,74.0,0,59,1.0,0.0
13064,78.0,0,14,12.0,0.0
13065,62.0,0,59,4.0,0.0
13066,66.0,15,14,13.0,0.0
13067,78.0,0,59,0.0,0.0
13068,33.0,0,59,3.0,0.0
13069,86.0,0,59,0.0,0.0
13070,74.0,60,59,8.0,0.0
13071,33.0,0,59,15.0,0.0
13072,66.0,0,59,2.0,0.0
13073,74.0,0,59,2.0,0.0
13074,66.0,0,59,1.0,0.0
13075,79.0,15,14,12.0,0.0
13076,67.0,0,14,13.0,0.0
13077,76.0,0,14,12.0,0.0
13078,64.0,15,14,13.0,0.0
13079,66.0,0,14,13.0,0.0
13080,78.0,0,14,12.0,0.0
13081,66.0,0,59,3.0,0.0
13082,86.0,0,59,0.0,0.0
13083,90.0,0,59,0.0,0.0
13084,74.0,0,59,10.0,0.0
13085,62.0,0,59,3.0,0.0
13086,45.0,0,119,7.0,0.0
13087,74.0,0,119,13.0,0.0
13088,74.0,0,59,2.0,0.0
13089,50.0,0,119,15.0,0.0
13090,69.0,0,119,14.0,0.0
13091,66.0,0,119,14.0,0.0
13092,50.0,0,119,3.0,0.0
13093,78.0,0,59,2.0,0.0
13094,38.0,0,119,4.0,0.0
13095,78.0,60,59,8.0,0.0
13096,69.0,0,119,5.0,0.0
13097,62.0,0,119,5.0,0.0
13098,66.0,0,59,4.0,0.0
13099,78.0,0,119,13.0,0.0
13100,86.0,0,119,12.0,0.0
13101,78.0,0,59,1.0,0.0
13102,74.0,0,59,1.0,0.0
13103,62.0,0,179,11.0,0.0
13104,62.0,0,119,15.0,0.0
13105,73.0,0,59,1.0,0.0
13106,88.0,0,59,0.0,0.0
13107,76.0,0,59,1.0,0.0
13108,85.0,0,59,0.0,0.0
13109,73.0,60,59,10.0,0.0
13110,64.0,0,59,4.0,0.0
13111,76.0,0,59,8.0,0.0
13112,64.0,0,59,3.0,0.0
13113,61.0,0,59,3.0,0.0
13114,76.0,0,59,2.0,0.0
13115,73.0,0,59,2.0,0.0
13116,76.0,0,59,10.0,0.0
13117,91.0,0,59,0.0,0.0
13118,88.0,0,59,0.0,0.0
13119,64.0,0,59,3.0,0.0
13120,76.0,0,59,2.0,0.0
13121,79.0,60,59,2.0,0.0
13122,74.0,0,119,5.0,0.0
13123,50.0,0,119,7.0,0.0
13124,67.0,0,59,4.0,0.0
13125,38.0,0,119,4.0,0.0
13126,79.0,0,59,1.0,0.0
13127,76.0,0,59,1.0,0.0
13128,62.0,0,119,5.0,0.0
13129,79.0,0,59,8.0,0.0
13130,67.0,0,59,3.0,0.0
13131,66.0,0,59,3.0,0.0
13132,86.0,0,59,0.0,0.0
13133,66.0,0,59,4.0,0.0
13134,90.0,0,59,0.0,0.0
13135,74.0,60,59,1.0,0.0
13136,78.0,0,59,2.0,0.0
13137,74.0,0,59,2.0,0.0
13138,78.0,0,59,8.0,0.0
13139,74.0,0,59,10.0,0.0
13140,62.0,0,59,3.0,0.0
13141,78.0,0,59,1.0,0.0
13142,62.0,0,59,11.0,0.0
13143,67.0,0,119,14.0,0.0
13144,62.0,0,59,11.0,0.0
13145,50.0,0,119,15.0,0.0
13146,78.0,0,59,8.0,0.0
13147,76.0,0,119,5.0,0.0
13148,50.0,0,119,7.0,0.0
13149,74.0,0,59,2.0,0.0
13150,85.0,0,119,13.0,0.0
13151,78.0,0,59,2.0,0.0
13152,76.0,0,119,13.0,0.0
13153,74.0,0,59,10.0,0.0
13154,69.0,0,119,5.0,0.0
13155,62.0,0,119,15.0,0.0
13156,50.0,0,119,3.0,0.0
13157,69.0,60,119,14.0,0.0
13158,88.0,0,119,12.0,0.0
13159,66.0,0,59,11.0,0.0
13160,62.0,0,59,3.0,0.0
13161,66.0,0,59,3.0,0.0
13162,90.0,0,59,0.0,0.0
13163,86.0,0,59,0.0,0.0
13164,66.0,0,59,4.0,0.0
13165,78.0,0,59,1.0,0.0
13166,62.0,0,59,4.0,0.0
13167,74.0,60,59,1.0,0.0
13168,73.0,0,119,1.0,0.0
13169,64.0,0,119,3.0,0.0
13170,76.0,0,119,1.0,0.0
13171,88.0,0,119,0.0,0.0
13172,67.0,0,119,3.0,0.0
13173,57.0,0,119,4.0,0.0
13174,57.0,0,119,11.0,0.0
13175,64.0,0,119,4.0,0.0
13176,76.0,0,119,2.0,0.0
13177,73.0,60,119,2.0,0.0
13178,76.0,0,119,8.0,0.0
13179,85.0,0,119,0.0,0.0
13180,73.0,0,119,10.0,0.0
13181,67.0,0,119,11.0,0.0
13182,69.0,0,59,8.0,0.0
13183,62.0,0,59,15.0,0.0
13184,66.0,0,59,11.0,0.0
13185,74.0,0,59,1.0,0.0
13186,69.0,0,59,1.0,0.0
13187,54.0,0,59,4.0,0.0
13188,62.0,0,59,4.0,0.0
13189,81.0,0,59,0.0,0.0
13190,62.0,0,59,11.0,0.0
13191,81.0,0,59,12.0,0.0
13192,50.0,0,59,15.0,0.0
13193,62.0,0,59,3.0,0.0
13194,78.0,0,59,13.0,0.0
13195,74.0,0,59,10.0,0.0
13196,69.0,0,59,2.0,0.0
13197,57.0,0,59,3.0,0.0
13198,66.0,0,59,14.0,0.0
13199,50.0,0,59,7.0,0.0
13200,86.0,60,59,13.0,0.0
13201,50.0,0,59,3.0,0.0
13202,66.0,0,59,5.0,0.0
13203,74.0,0,59,2.0,0.0
13204,74.0,0,59,5.0,0.0
13205,69.0,0,59,14.0,0.0
13206,69.0,0,59,12.0,0.0
13207,62.0,0,119,3.0,0.0
13208,66.0,0,59,14.0,0.0
13209,50.0,0,119,3.0,0.0
13210,74.0,0,239,10.0,0.0
13211,50.0,0,119,15.0,0.0
13212,78.0,0,59,13.0,0.0
13213,86.0,0,119,0.0,0.0
13214,62.0,0,119,15.0,0.0
13215,66.0,0,119,5.0,0.0
13216,74.0,0,119,1.0,0.0
13217,86.0,30,59,12.0,0.0
13218,74.0,0,119,2.0,0.0
13219,50.0,0,119,7.0,0.0
13220,69.0,0,59,13.0,0.0
13221,54.0,0,119,4.0,0.0
13222,74.0,0,224,8.0,0.0
13223,62.0,0,119,4.0,0.0
13224,74.0,0,119,5.0,0.0
13225,62.0,0,224,11.0,0.0
13226,69.0,0,59,14.0,0.0
13227,66.0,15,224,11.0,0.0
13228,62.0,0,29,13.0,0.0
13229,74.0,30,29,12.0,0.0
13230,50.0,0,29,14.0,0.0
13231,49.0,0,29,14.0,0.0
13232,61.0,30,29,13.0,0.0
13233,73.0,0,29,12.0,0.0
13234,69.0,0,119,5.0,0.0
13235,62.0,0,119,5.0,0.0
13236,90.0,0,119,0.0,0.0
13237,50.0,30,29,14.0,0.0
13238,66.0,0,119,4.0,0.0
13239,62.0,0,29,13.0,0.0
13240,50.0,0,119,7.0,0.0
13241,69.0,120,119,4.0,0.0
13242,78.0,0,119,1.0,0.0
13243,81.0,0,119,1.0,0.0
13244,74.0,0,29,12.0,0.0
13245,54.0,0,119,3.0,0.0
13246,86.0,0,119,0.0,0.0
13247,57.0,0,119,3.0,0.0
13248,52.0,30,29,14.0,0.0
13249,64.0,0,29,13.0,0.0
13250,76.0,0,29,12.0,0.0
13251,66.0,15,29,13.0,0.0
13252,54.0,0,29,14.0,0.0
13253,78.0,0,29,12.0,0.0
13254,79.0,0,29,12.0,0.0
13255,67.0,0,29,13.0,0.0
13256,55.0,0,29,14.0,0.0
13257,69.0,0,119,5.0,0.0
13258,88.0,0,179,0.0,0.0
13259,57.0,0,179,14.0,0.0
13260,79.0,0,179,1.0,0.0
13261,76.0,0,179,1.0,0.0
13262,64.0,0,179,4.0,0.0
13263,62.0,0,179,15.0,0.0
13264,66.0,0,179,13.0,0.0
13265,69.0,0,179,13.0,0.0
13266,50.0,0,179,14.0,0.0
13267,50.0,0,179,3.0,0.0
13268,50.0,60,119,7.0,0.0
13269,62.0,0,119,5.0,0.0
13270,55.0,0,179,3.0,0.0
13271,69.0,0,179,8.0,0.0
13272,67.0,0,179,4.0,0.0
13273,66.0,0,179,10.0,0.0
13274,91.0,60,179,0.0,0.0
13275,50.0,0,179,15.0,0.0
13276,62.0,0,179,11.0,0.0
13277,69.0,0,179,12.0,0.0
13278,81.0,0,179,12.0,0.0
13279,52.0,0,179,3.0,0.0
13280,62.0,0,59,4.0,0.0
13281,74.0,0,59,1.0,0.0
13282,90.0,0,59,0.0,0.0
13283,78.0,0,59,1.0,0.0
13284,54.0,120,59,3.0,0.0
13285,86.0,0,59,0.0,0.0
13286,66.0,0,59,4.0,0.0
13287,50.0,0,59,3.0,0.0
13288,69.0,0,179,13.0,0.0
13289,62.0,0,119,5.0,0.0
13290,69.0,0,119,5.0,0.0
13291,62.0,0,179,15.0,0.0
13292,90.0,0,119,0.0,0.0
13293,86.0,60,119,0.0,0.0
13294,62.0,0,119,4.0,0.0
13295,66.0,0,119,4.0,0.0
13296,54.0,0,119,3.0,0.0
13297,81.0,0,179,12.0,0.0
13298,50.0,0,179,15.0,0.0
13299,74.0,0,119,1.0,0.0
13300,62.0,0,179,11.0,0.0
13301,69.0,0,179,12.0,0.0
13302,50.0,0,119,3.0,0.0
13303,74.0,60,179,14.0,0.0
13304,50.0,0,119,7.0,0.0
13305,78.0,0,119,1.0,0.0
13306,69.0,0,179,8.0,0.0
13307,66.0,0,179,13.0,0.0
13308,66.0,0,179,10.0,0.0
13309,50.0,0,239,4.0,0.0
13310,86.0,0,119,1.0,0.0
13311,50.0,0,59,3.0,0.0
13312,62.0,0,119,3.0,0.0
13313,62.0,0,239,4.0,0.0
13314,74.0,0,119,1.0,0.0
13315,86.0,60,239,0.0,0.0
13316,57.0,0,179,3.0,0.0
13317,60.0,0,179,3.0,0.0
13318,67.0,0,179,14.0,0.0
13319,67.0,0,179,10.0,0.0
13320,71.0,0,179,14.0,0.0
13321,50.0,0,119,7.0,0.0
13322,43.0,0,179,15.0,0.0
13323,59.0,0,179,11.0,0.0
13324,74.0,0,119,5.0,0.0
13325,62.0,0,119,5.0,0.0
13326,71.0,0,179,8.0,0.0
13327,55.0,0,179,15.0,0.0
13328,55.0,0,179,13.0,0.0
13329,71.0,0,179,12.0,0.0
13330,43.0,0,179,3.0,0.0
13331,83.0,0,179,12.0,0.0
13332,81.0,60,179,1.0,0.0
13333,55.0,0,179,11.0,0.0
13334,84.0,0,179,1.0,0.0
13335,84.0,0,59,0.0,0.0
13336,62.0,120,119,4.0,0.0
13337,90.0,0,59,0.0,0.0
13338,66.0,0,59,4.0,0.0
13339,79.0,0,59,1.0,0.0
13340,83.0,0,59,1.0,0.0
13341,67.0,0,59,4.0,0.0
13342,83.0,0,59,0.0,0.0
13343,59.0,0,59,3.0,0.0
13344,55.0,0,59,3.0,0.0
13345,91.0,0,59,0.0,0.0
13346,62.0,0,119,5.0,0.0
13347,67.0,0,179,10.0,0.0
13348,91.0,0,119,0.0,0.0
13349,43.0,0,179,3.0,0.0
13350,83.0,0,179,12.0,0.0
13351,83.0,0,119,0.0,0.0
13352,74.0,0,119,5.0,0.0
13353,55.0,0,179,14.0,0.0
13354,71.0,0,179,13.0,0.0
13355,79.0,0,179,13.0,0.0
13356,83.0,0,119,1.0,0.0
13357,55.0,0,179,15.0,0.0
13358,79.0,0,119,1.0,0.0
13359,71.0,0,179,12.0,0.0
13360,50.0,0,119,7.0,0.0
13361,43.0,0,179,15.0,0.0
13362,62.0,0,119,4.0,0.0
13363,67.0,60,119,4.0,0.0
13364,59.0,0,119,3.0,0.0
13365,55.0,0,119,3.0,0.0
13366,55.0,0,179,11.0,0.0
13367,71.0,0,179,8.0,0.0
13368,91.0,60,59,0.0,0.0
13369,67.0,0,59,3.0,0.0
13370,79.0,0,59,1.0,0.0
13371,67.0,0,119,4.0,0.0
13372,55.0,0,59,3.0,0.0
13373,88.0,0,59,0.0,0.0
13374,76.0,0,59,1.0,0.0
13375,64.0,60,59,3.0,0.0
13376,52.0,0,59,3.0,0.0
13377,69.0,0,119,5.0,0.0
13378,74.0,0,59,1.0,0.0
13379,57.0,0,179,15.0,0.0
13380,45.0,0,119,7.0,0.0
13381,76.0,0,179,13.0,0.0
13382,73.0,0,179,13.0,0.0
13383,57.0,60,179,14.0,0.0
13384,62.0,60,59,3.0,0.0
13385,64.0,0,179,4.0,0.0
13386,86.0,0,59,0.0,0.0
13387,73.0,0,179,8.0,0.0
13388,67.0,0,179,4.0,0.0
13389,85.0,0,179,12.0,0.0
13390,57.0,0,119,5.0,0.0
13391,45.0,0,179,15.0,0.0
13392,57.0,0,179,11.0,0.0
13393,64.0,0,179,10.0,0.0
13394,45.0,0,179,3.0,0.0
13395,69.0,0,179,12.0,0.0
13396,61.0,60,59,3.0,0.0
13397,85.0,0,59,0.0,0.0
13398,73.0,0,59,1.0,0.0
13399,76.0,0,59,1.0,0.0
13400,64.0,0,59,3.0,0.0
13401,88.0,0,59,0.0,0.0
13402,61.0,60,59,3.0,0.0
13403,85.0,0,59,0.0,0.0
13404,73.0,0,59,1.0,0.0
13405,73.0,0,179,13.0,0.0
13406,59.0,0,59,3.0,0.0
13407,76.0,0,179,13.0,0.0
13408,85.0,0,179,12.0,0.0
13409,64.0,0,179,4.0,0.0
13410,67.0,0,179,4.0,0.0
13411,69.0,60,179,10.0,0.0
13412,69.0,0,179,14.0,0.0
13413,73.0,0,179,8.0,0.0
13414,64.0,0,179,11.0,0.0
13415,76.0,0,179,12.0,0.0
13416,83.0,0,59,0.0,0.0
13417,57.0,0,179,11.0,0.0
13418,71.0,60,59,1.0,0.0
13419,45.0,0,179,3.0,0.0
13420,45.0,60,119,7.0,0.0
13421,69.0,0,239,5.0,0.0
13422,57.0,0,179,15.0,0.0
13423,45.0,0,179,15.0,0.0
13424,76.0,0,239,5.0,0.0
13425,81.0,0,59,0.0,0.0
13426,57.0,0,59,3.0,0.0
13427,69.0,0,59,1.0,0.0
13428,71.0,0,59,1.0,0.0
13429,59.0,0,59,3.0,0.0
13430,83.0,0,59,0.0,0.0
13431,85.0,60,59,0.0,0.0
13432,61.0,0,59,3.0,0.0
13433,73.0,0,59,1.0,0.0
13434,74.0,0,479,5.0,0.0
13435,69.0,0,179,10.0,0.0
13436,66.0,0,179,14.0,0.0
13437,50.0,0,119,7.0,0.0
13438,50.0,0,479,3.0,0.0
13439,66.0,60,479,5.0,0.0
13440,78.0,0,179,13.0,0.0
13441,74.0,60,179,13.0,0.0
13442,76.0,0,59,1.0,0.0
13443,86.0,0,179,12.0,0.0
13444,66.0,0,479,4.0,0.0
13445,64.0,0,59,3.0,0.0
13446,66.0,15,464,11.0,0.0
13447,62.0,0,464,11.0,0.0
13448,78.0,0,179,12.0,0.0
13449,62.0,0,479,4.0,0.0
13450,88.0,60,59,0.0,0.0
13451,62.0,0,479,15.0,0.0
13452,50.0,0,479,15.0,0.0
13453,74.0,0,464,8.0,0.0
13454,62.0,0,59,3.0,0.0
13455,86.0,60,59,0.0,0.0
13456,74.0,0,59,1.0,0.0
13457,78.0,0,59,1.0,0.0
13458,90.0,0,59,0.0,0.0
13459,66.0,0,59,3.0,0.0
13460,86.0,0,59,1.0,0.0
13461,74.0,60,59,1.0,0.0
13462,62.0,0,59,3.0,0.0
13463,86.0,0,59,0.0,0.0
13464,62.0,0,479,14.0,0.0
13465,62.0,0,179,12.0,0.0
13466,74.0,45,179,12.0,0.0
13467,61.0,60,59,3.0,0.0
13468,85.0,0,59,0.0,0.0
13469,74.0,60,479,10.0,0.0
13470,74.0,0,179,13.0,0.0
13471,59.0,0,479,14.0,0.0
13472,85.0,0,59,1.0,0.0
13473,73.0,0,59,1.0,0.0
13474,62.0,0,179,13.0,0.0
13475,83.0,0,59,0.0,0.0
13476,71.0,60,59,1.0,0.0
13477,83.0,0,59,1.0,0.0
13478,59.0,0,59,3.0,0.0
13479,74.0,0,59,1.0,0.0
13480,86.0,0,59,0.0,0.0
13481,86.0,0,59,1.0,0.0
13482,62.0,0,59,3.0,0.0
13483,83.0,0,59,0.0,0.0
13484,59.0,0,59,3.0,0.0
13485,83.0,0,59,1.0,0.0
13486,71.0,0,59,1.0,0.0
13487,80.0,60,179,12.0,0.0
13488,52.0,0,179,11.0,0.0
13489,69.0,60,59,1.0,0.0
13490,76.0,0,179,5.0,0.0
13491,71.0,0,179,12.0,0.0
13492,57.0,0,59,3.0,0.0
13493,80.0,0,179,13.0,0.0
13494,64.0,0,179,4.0,0.0
13495,80.0,0,179,8.0,0.0
13496,71.0,0,179,13.0,0.0
13497,59.0,0,179,11.0,0.0
13498,40.0,0,179,15.0,0.0
13499,52.0,0,179,15.0,0.0
13500,81.0,0,59,0.0,0.0
13501,40.0,0,179,3.0,0.0
13502,81.0,0,59,1.0,0.0
13503,56.0,0,59,3.0,0.0
13504,80.0,0,59,1.0,0.0
13505,80.0,60,59,0.0,0.0
13506,68.0,0,59,1.0,0.0
13507,59.0,0,59,3.0,0.0
13508,71.0,0,59,1.0,0.0
13509,83.0,0,59,1.0,0.0
13510,83.0,0,59,0.0,0.0
13511,80.0,0,59,0.0,0.0
13512,92.0,0,59,0.0,0.0
13513,68.0,0,59,1.0,0.0
13514,56.0,0,59,3.0,0.0
13515,80.0,0,59,1.0,0.0
13516,52.0,0,179,11.0,0.0
13517,64.0,0,179,4.0,0.0
13518,78.0,0,59,0.0,0.0
13519,64.0,0,179,11.0,0.0
13520,71.0,0,179,10.0,0.0
13521,40.0,0,179,3.0,0.0
13522,80.0,0,179,12.0,0.0
13523,54.0,0,59,3.0,0.0
13524,40.0,0,179,15.0,0.0
13525,80.0,0,179,8.0,0.0
13526,80.0,60,179,13.0,0.0
13527,64.0,0,179,14.0,0.0
13528,59.0,0,179,14.0,0.0
13529,76.0,0,179,5.0,0.0
13530,71.0,0,179,13.0,0.0
13531,90.0,60,59,0.0,0.0
13532,71.0,0,179,12.0,0.0
13533,52.0,0,179,15.0,0.0
13534,66.0,0,59,1.0,0.0
13535,78.0,0,59,1.0,0.0
13536,76.0,0,59,1.0,0.0
13537,64.0,0,59,1.0,0.0
13538,52.0,0,59,3.0,0.0
13539,88.0,0,59,0.0,0.0
13540,76.0,60,59,0.0,0.0
13541,78.0,0,59,1.0,0.0
13542,66.0,0,59,1.0,0.0
13543,54.0,0,59,3.0,0.0
13544,90.0,0,59,0.0,0.0
13545,68.0,30,59,1.0,0.0
13546,80.0,0,59,0.0,0.0
13547,80.0,0,59,1.0,0.0
13548,56.0,0,59,3.0,0.0
13549,92.0,0,59,0.0,0.0
13550,45.0,0,29,15.0,0.0
13551,57.0,0,479,11.0,0.0
13552,81.0,0,479,8.0,0.0
13553,73.0,0,479,10.0,0.0
13554,81.0,0,539,0.0,0.0
13555,93.0,60,539,0.0,0.0
13556,81.0,30,29,13.0,0.0
13557,69.0,0,539,1.0,0.0
13558,81.0,0,539,1.0,0.0
13559,57.0,0,479,4.0,0.0
13560,64.0,0,479,11.0,0.0
13561,69.0,0,479,4.0,0.0
13562,81.0,0,29,12.0,0.0
13563,69.0,0,29,14.0,0.0
13564,45.0,0,29,7.0,0.0
13565,81.0,0,479,5.0,0.0
13566,69.0,0,479,5.0,0.0
13567,45.0,0,29,3.0,0.0
13568,69.0,0,29,12.0,0.0
13569,57.0,0,29,15.0,0.0
13570,69.0,0,29,13.0,0.0
13571,57.0,0,539,3.0,0.0
13572,71.0,30,29,14.0,0.0
13573,59.0,0,29,15.0,0.0
13574,47.0,0,29,15.0,0.0
13575,47.0,0,29,3.0,0.0
13576,83.0,0,29,13.0,0.0
13577,83.0,0,29,12.0,0.0
13578,45.0,0,29,7.0,0.0
13579,81.0,0,29,12.0,0.0
13580,69.0,0,29,14.0,0.0
13581,81.0,0,29,13.0,0.0
13582,45.0,0,29,7.0,0.0
13583,45.0,30,29,3.0,0.0
13584,45.0,0,29,15.0,0.0
13585,57.0,0,29,15.0,0.0
13586,56.0,30,29,15.0,0.0
13587,45.0,0,29,7.0,0.0
13588,80.0,0,29,12.0,0.0
13589,44.0,0,29,15.0,0.0
13590,68.0,0,29,14.0,0.0
13591,44.0,0,29,3.0,0.0
13592,80.0,0,29,13.0,0.0
13593,45.0,0,29,7.0,0.0
13594,78.0,0,29,12.0,0.0
13595,78.0,0,29,13.0,0.0
13596,54.0,0,29,15.0,0.0
13597,66.0,30,29,14.0,0.0
13598,42.0,0,29,3.0,0.0
13599,42.0,0,29,15.0,0.0
13600,44.0,0,29,15.0,0.0
13601,44.0,30,29,3.0,0.0
13602,56.0,0,29,15.0,0.0
13603,45.0,0,29,7.0,0.0
13604,80.0,0,29,13.0,0.0
13605,68.0,0,29,14.0,0.0
13606,80.0,0,29,12.0,0.0
13607,42.0,0,29,15.0,0.0
13608,66.0,0,29,14.0,0.0
13609,45.0,0,29,7.0,0.0
13610,78.0,0,29,12.0,0.0
13611,54.0,0,29,15.0,0.0
13612,78.0,0,29,13.0,0.0
13613,42.0,30,29,3.0,0.0
13614,76.0,0,29,13.0,0.0
13615,45.0,0,29,7.0,0.0
13616,40.0,30,29,15.0,0.0
13617,52.0,0,29,15.0,0.0
13618,64.0,0,29,14.0,0.0
13619,40.0,0,29,3.0,0.0
13620,76.0,0,29,12.0,0.0
13621,74.0,0,29,13.0,0.0
13622,38.0,30,29,15.0,0.0
13623,74.0,0,29,12.0,0.0
13624,45.0,0,29,7.0,0.0
13625,62.0,0,29,14.0,0.0
13626,38.0,0,29,3.0,0.0
13627,50.0,0,29,15.0,0.0
13628,52.0,0,29,15.0,0.0
13629,45.0,30,29,7.0,0.0
13630,76.0,0,29,12.0,0.0
13631,64.0,0,29,14.0,0.0
13632,40.0,0,29,15.0,0.0
13633,76.0,0,29,13.0,0.0
13634,40.0,0,29,3.0,0.0
13635,62.0,0,29,14.0,0.0
13636,74.0,30,29,13.0,0.0
13637,38.0,0,29,15.0,0.0
13638,38.0,0,29,3.0,0.0
13639,50.0,0,29,15.0,0.0
13640,74.0,0,29,12.0,0.0
13641,45.0,0,29,7.0,0.0
13642,73.0,0,29,12.0,0.0
13643,37.0,30,29,15.0,0.0
13644,73.0,0,29,13.0,0.0
13645,61.0,0,29,14.0,0.0
13646,37.0,0,29,3.0,0.0
13647,49.0,0,29,15.0,0.0
13648,45.0,0,29,7.0,0.0
13649,35.0,0,29,3.0,0.0
13650,59.0,0,29,14.0,0.0
13651,71.0,0,29,12.0,0.0
13652,45.0,0,119,7.0,0.0
13653,35.0,0,29,15.0,0.0
13654,71.0,30,29,13.0,0.0
13655,47.0,0,29,15.0,0.0
13656,49.0,30,29,15.0,0.0
13657,73.0,0,29,13.0,0.0
13658,61.0,0,29,14.0,0.0
13659,73.0,0,29,12.0,0.0
13660,37.0,0,29,15.0,0.0
13661,37.0,0,29,3.0,0.0
13662,35.0,0,29,15.0,0.0
13663,71.0,0,29,12.0,0.0
13664,35.0,30,29,3.0,0.0
13665,59.0,0,29,14.0,0.0
13666,71.0,0,29,13.0,0.0
13667,47.0,0,29,15.0,0.0
13668,33.0,60,29,3.0,0.0
13669,33.0,0,29,15.0,0.0
13670,45.0,0,29,15.0,0.0
13671,57.0,0,29,14.0,0.0
13672,69.0,0,29,12.0,0.0
13673,69.0,0,29,13.0,0.0
13674,40.0,0,179,15.0,0.0
13675,49.0,0,179,14.0,0.0
13676,76.0,0,179,5.0,0.0
13677,64.0,60,179,13.0,0.0
13678,64.0,0,179,12.0,0.0
13679,64.0,0,179,4.0,0.0
13680,52.0,0,179,15.0,0.0
13681,40.0,0,179,3.0,0.0
13682,80.0,0,59,0.0,0.0
13683,56.0,60,59,3.0,0.0
13684,80.0,0,59,1.0,0.0
13685,68.0,0,59,1.0,0.0
13686,92.0,0,59,0.0,0.0
13687,83.0,0,59,1.0,0.0
13688,59.0,0,59,3.0,0.0
13689,71.0,0,59,1.0,0.0
13690,83.0,0,59,0.0,0.0
13691,56.0,0,59,3.0,0.0
13692,68.0,0,59,1.0,0.0
13693,80.0,60,59,1.0,0.0
13694,92.0,0,59,0.0,0.0
13695,80.0,0,59,0.0,0.0
13696,76.0,0,179,5.0,0.0
13697,76.0,60,179,14.0,0.0
13698,64.0,0,179,4.0,0.0
13699,64.0,0,179,11.0,0.0
13700,90.0,0,59,0.0,0.0
13701,40.0,0,179,3.0,0.0
13702,52.0,0,179,11.0,0.0
13703,80.0,0,179,8.0,0.0
13704,66.0,0,59,1.0,0.0
13705,40.0,0,179,15.0,0.0
13706,78.0,0,59,1.0,0.0
13707,52.0,0,179,15.0,0.0
13708,71.0,0,179,13.0,0.0
13709,78.0,0,59,0.0,0.0
13710,54.0,60,59,3.0,0.0
13711,71.0,0,179,12.0,0.0
13712,71.0,0,179,10.0,0.0
13713,80.0,0,179,12.0,0.0
13714,80.0,0,179,13.0,0.0
13715,64.0,0,179,14.0,0.0
13716,76.0,0,59,0.0,0.0
13717,64.0,0,59,1.0,0.0
13718,76.0,60,59,1.0,0.0
13719,88.0,0,59,0.0,0.0
13720,52.0,0,59,3.0,0.0
13721,54.0,0,59,3.0,0.0
13722,78.0,0,59,1.0,0.0
13723,78.0,0,59,0.0,0.0
13724,90.0,0,59,0.0,0.0
13725,66.0,0,59,1.0,0.0
13726,68.0,0,59,1.0,0.0
13727,80.0,0,59,1.0,0.0
13728,92.0,30,59,0.0,0.0
13729,80.0,0,59,0.0,0.0
13730,56.0,0,59,3.0,0.0
13731,69.0,0,479,4.0,0.0
13732,57.0,0,479,4.0,0.0
13733,57.0,0,29,3.0,0.0
13734,81.0,0,479,1.0,0.0
13735,64.0,0,479,11.0,0.0
13736,45.0,0,29,7.0,0.0
13737,69.0,0,29,14.0,0.0
13738,81.0,0,479,8.0,0.0
13739,69.0,0,479,5.0,0.0
13740,81.0,0,479,5.0,0.0
13741,81.0,0,29,12.0,0.0
13742,69.0,30,29,12.0,0.0
13743,69.0,0,479,1.0,0.0
13744,57.0,30,479,11.0,0.0
13745,69.0,0,29,13.0,0.0
13746,45.0,0,29,3.0,0.0
13747,81.0,0,479,0.0,0.0
13748,73.0,0,479,10.0,0.0
13749,45.0,0,29,15.0,0.0
13750,93.0,0,479,0.0,0.0
13751,81.0,0,29,13.0,0.0
13752,57.0,0,29,15.0,0.0
13753,45.0,0,29,7.0,0.0
13754,71.0,0,29,14.0,0.0
13755,83.0,0,29,12.0,0.0
13756,47.0,0,29,3.0,0.0
13757,83.0,0,29,13.0,0.0
13758,59.0,0,29,3.0,0.0
13759,47.0,0,29,15.0,0.0
13760,59.0,30,29,15.0,0.0
13761,45.0,0,29,7.0,0.0
13762,81.0,30,29,12.0,0.0
13763,69.0,0,29,14.0,0.0
13764,45.0,0,29,15.0,0.0
13765,57.0,0,29,3.0,0.0
13766,81.0,0,29,13.0,0.0
13767,57.0,0,29,15.0,0.0
13768,45.0,0,29,3.0,0.0
13769,56.0,0,29,15.0,0.0
13770,56.0,0,29,3.0,0.0
13771,44.0,0,29,15.0,0.0
13772,80.0,30,29,13.0,0.0
13773,44.0,0,29,3.0,0.0
13774,45.0,0,29,7.0,0.0
13775,68.0,0,29,14.0,0.0
13776,80.0,0,29,12.0,0.0
13777,78.0,0,29,12.0,0.0
13778,66.0,30,29,14.0,0.0
13779,78.0,0,29,13.0,0.0
13780,54.0,0,29,15.0,0.0
13781,42.0,0,29,15.0,0.0
13782,45.0,0,29,7.0,0.0
13783,54.0,0,29,3.0,0.0
13784,42.0,0,29,3.0,0.0
13785,56.0,30,29,3.0,0.0
13786,44.0,0,29,15.0,0.0
13787,45.0,0,29,7.0,0.0
13788,68.0,0,29,14.0,0.0
13789,44.0,0,29,3.0,0.0
13790,79.0,0,29,12.0,0.0
13791,79.0,0,29,13.0,0.0
13792,56.0,0,29,15.0,0.0
13793,54.0,0,29,15.0,0.0
13794,66.0,0,29,14.0,0.0
13795,78.0,0,29,12.0,0.0
13796,42.0,0,29,15.0,0.0
13797,45.0,0,29,7.0,0.0
13798,54.0,0,29,3.0,0.0
13799,42.0,0,29,3.0,0.0
13800,78.0,30,29,13.0,0.0
13801,76.0,0,29,13.0,0.0
13802,52.0,0,29,15.0,0.0
13803,64.0,0,29,14.0,0.0
13804,40.0,0,29,3.0,0.0
13805,45.0,0,29,7.0,0.0
13806,76.0,0,29,12.0,0.0
13807,40.0,0,29,15.0,0.0
13808,52.0,30,29,3.0,0.0
13809,62.0,0,29,14.0,0.0
13810,38.0,0,29,15.0,0.0
13811,50.0,0,29,15.0,0.0
13812,74.0,30,29,13.0,0.0
13813,74.0,0,29,12.0,0.0
13814,45.0,0,29,7.0,0.0
13815,50.0,0,29,3.0,0.0
13816,38.0,0,29,3.0,0.0
13817,64.0,0,29,14.0,0.0
13818,76.0,0,29,12.0,0.0
13819,45.0,30,29,7.0,0.0
13820,52.0,0,29,15.0,0.0
13821,76.0,0,29,13.0,0.0
13822,40.0,0,29,3.0,0.0
13823,52.0,0,29,3.0,0.0
13824,40.0,0,29,15.0,0.0
13825,50.0,0,29,3.0,0.0
13826,38.0,0,29,3.0,0.0
13827,38.0,0,29,15.0,0.0
13828,50.0,0,29,15.0,0.0
13829,74.0,30,29,13.0,0.0
13830,45.0,0,29,7.0,0.0
13831,62.0,0,29,14.0,0.0
13832,74.0,0,29,12.0,0.0
13833,61.0,0,29,14.0,0.0
13834,37.0,0,29,15.0,0.0
13835,49.0,0,29,3.0,0.0
13836,37.0,0,29,3.0,0.0
13837,49.0,0,29,15.0,0.0
13838,45.0,30,29,7.0,0.0
13839,73.0,0,29,12.0,0.0
13840,73.0,0,29,13.0,0.0
13841,71.0,0,29,12.0,0.0
13842,47.0,0,29,15.0,0.0
13843,35.0,0,29,3.0,0.0
13844,71.0,0,29,13.0,0.0
13845,47.0,30,29,3.0,0.0
13846,35.0,0,29,15.0,0.0
13847,45.0,0,29,7.0,0.0
13848,59.0,0,29,14.0,0.0
13849,49.0,0,29,3.0,0.0
13850,45.0,0,29,7.0,0.0
13851,73.0,0,29,13.0,0.0
13852,37.0,30,29,3.0,0.0
13853,61.0,0,29,14.0,0.0
13854,49.0,0,29,15.0,0.0
13855,73.0,0,29,12.0,0.0
13856,37.0,0,29,15.0,0.0
13857,45.0,0,29,7.0,0.0
13858,35.0,30,29,3.0,0.0
13859,71.0,0,29,13.0,0.0
13860,47.0,0,29,15.0,0.0
13861,59.0,0,29,14.0,0.0
13862,71.0,0,29,12.0,0.0
13863,47.0,0,29,3.0,0.0
13864,35.0,0,29,15.0,0.0
13865,33.0,0,29,3.0,0.0
13866,45.0,0,29,15.0,0.0
13867,45.0,0,29,3.0,0.0
13868,69.0,0,29,13.0,0.0
13869,45.0,0,29,7.0,0.0
13870,57.0,0,29,14.0,0.0
13871,69.0,0,29,12.0,0.0
13872,33.0,0,29,15.0,0.0
13873,81.0,0,179,0.0,0.0
13874,69.0,0,179,1.0,0.0
13875,57.0,0,179,4.0,0.0
13876,69.0,0,179,4.0,0.0
13877,57.0,0,179,14.0,0.0
13878,33.0,0,239,15.0,0.0
13879,69.0,0,179,13.0,0.0
13880,93.0,0,179,0.0,0.0
13881,45.0,0,179,3.0,0.0
13882,45.0,30,239,15.0,0.0
13883,69.0,0,179,12.0,0.0
13884,33.0,0,179,3.0,0.0
13885,69.0,60,179,5.0,0.0
13886,45.0,30,29,7.0,0.0
13887,81.0,0,179,5.0,0.0
13888,81.0,0,179,1.0,0.0
13889,45.0,30,29,7.0,0.0
13890,45.0,30,29,7.0,0.0
13891,45.0,30,29,7.0,0.0
13892,45.0,30,29,7.0,0.0
13893,45.0,0,29,7.0,0.0
13894,81.0,0,179,5.0,0.0
13895,69.0,0,179,5.0,0.0
13896,69.0,0,179,14.0,0.0
13897,57.0,0,179,14.0,0.0
13898,81.0,0,179,12.0,0.0
13899,69.0,0,179,12.0,0.0
13900,69.0,0,179,10.0,0.0
13901,81.0,0,179,1.0,0.0
13902,69.0,0,179,1.0,0.0
13903,45.0,0,179,3.0,0.0
13904,45.0,30,29,7.0,0.0
13905,57.0,0,179,4.0,0.0
13906,57.0,0,239,15.0,0.0
13907,57.0,0,179,3.0,0.0
13908,93.0,60,179,0.0,0.0
13909,81.0,0,179,0.0,0.0
13910,45.0,15,239,15.0,0.0
13911,81.0,0,179,8.0,0.0
13912,69.0,0,179,13.0,0.0
13913,69.0,0,179,4.0,0.0
13914,57.0,0,179,11.0,0.0
13915,81.0,0,179,13.0,0.0
13916,45.0,30,29,7.0,0.0
13917,45.0,30,29,7.0,0.0
13918,45.0,30,29,7.0,0.0
13919,45.0,30,29,7.0,0.0
13920,45.0,0,29,7.0,0.0
13921,81.0,0,959,5.0,0.0
13922,53.0,0,959,14.0,0.0
13923,29.0,0,959,15.0,0.0
13924,93.0,0,959,0.0,0.0
13925,53.0,300,959,11.0,0.0
13926,41.0,0,959,15.0,0.0
13927,81.0,0,959,0.0,0.0
13928,65.0,0,959,4.0,0.0
13929,53.0,0,959,4.0,0.0
13930,81.0,0,959,12.0,0.0
13931,29.0,0,959,3.0,0.0
13932,69.0,0,959,12.0,0.0
13933,41.0,0,959,3.0,0.0
13934,69.0,0,959,5.0,0.0
13935,57.0,0,959,14.0,0.0
13936,65.0,0,959,11.0,0.0
13937,57.0,0,959,4.0,0.0
13938,69.0,0,959,13.0,0.0
13939,81.0,0,959,13.0,0.0
13940,69.0,0,959,10.0,0.0
13941,81.0,0,959,8.0,0.0
13942,69.0,0,959,1.0,0.0
13943,81.0,0,959,1.0,0.0
13944,45.0,15,14,7.0,0.0
13945,69.0,0,959,4.0,0.0
13946,45.0,15,14,7.0,0.0
13947,45.0,15,14,7.0,0.0
13948,45.0,15,14,7.0,0.0
13949,45.0,15,14,7.0,0.0
13950,45.0,15,14,7.0,0.0
13951,45.0,15,14,7.0,0.0
13952,45.0,15,14,7.0,0.0
13953,45.0,15,14,7.0,0.0
13954,45.0,15,14,7.0,0.0
13955,45.0,15,14,7.0,0.0
13956,45.0,15,14,7.0,0.0
13957,45.0,15,14,7.0,0.0
13958,45.0,15,14,7.0,0.0
13959,45.0,15,14,7.0,0.0
13960,45.0,15,14,7.0,0.0
13961,45.0,15,14,7.0,0.0
13962,45.0,15,14,7.0,0.0
13963,45.0,15,14,7.0,0.0
13964,45.0,15,14,7.0,0.0
13965,45.0,15,14,7.0,0.0
13966,45.0,15,14,7.0,0.0
13967,45.0,15,14,7.0,0.0
13968,45.0,15,14,7.0,0.0
13969,45.0,15,14,7.0,0.0
13970,45.0,15,14,7.0,0.0
13971,45.0,15,14,7.0,0.0
13972,45.0,15,14,7.0,0.0
13973,45.0,15,14,7.0,0.0
13974,45.0,15,14,7.0,0.0
13975,45.0,15,14,7.0,0.0
13976,45.0,15,14,7.0,0.0
13977,45.0,15,14,7.0,0.0
13978,45.0,15,14,7.0,0.0
13979,45.0,15,14,7.0,0.0
13980,45.0,15,14,7.0,0.0
13981,45.0,15,14,7.0,0.0
13982,45.0,15,14,7.0,0.0
13983,45.0,15,14,7.0,0.0
13984,45.0,15,14,7.0,0.0
13985,45.0,15,14,7.0,0.0
13986,45.0,15,14,7.0,0.0
13987,45.0,15,14,7.0,0.0
13988,45.0,15,14,7.0,0.0
13989,45.0,15,14,7.0,0.0
13990,45.0,15,14,7.0,0.0
13991,45.0,15,14,7.0,0.0
13992,45.0,15,14,7.0,0.0
13993,45.0,15,14,7.0,0.0
13994,45.0,15,14,7.0,0.0
13995,45.0,15,14,7.0,0.0
13996,45.0,15,14,7.0,0.0
13997,45.0,15,14,7.0,0.0
13998,45.0,15,14,7.0,0.0
13999,45.0,15,14,7.0,0.0
14000,45.0,15,14,7.0,0.0
14001,45.0,15,14,7.0,0.0
14002,45.0,15,14,7.0,0.0
14003,45.0,15,14,7.0,0.0
14004,45.0,15,14,7.0,0.0
14005,45.0,15,14,7.0,0.0
14006,45.0,15,14,7.0,0.0
14007,45.0,15,14,7.0,0.0
14008,45.0,0,14,7.0,0.0
14009,46.0,720,119,3.0,0.0
14010,34.0,0,119,3.0,0.0
14011,35.0,0,119,9.0,0.0
14012,35.0,0,119,9.0,0.0
14013,46.0,0,119,3.0,0.0
14014,34.0,0,119,3.0,0.0
14015,35.0,0,119,9.0,0.0
14016,34.0,0,119,3.0,0.0
14017,46.0,0,119,3.0,0.0
14018,34.0,0,119,3.0,0.0
14019,35.0,0,119,9.0,0.0
14020,46.0,360,119,3.0,0.0
14021,35.0,0,119,9.0,0.0
14022,46.0,360,119,3.0,0.0
14023,34.0,0,119,3.0,0.0
14024,35.0,0,119,9.0,0.0
14025,34.0,0,119,3.0,0.0
14026,46.0,360,119,3.0,0.0
14027,62.0,0,119,2.0,0.0
14028,58.0,0,119,4.0,0.0
14029,46.0,0,119,3.0,0.0
14030,34.0,0,119,3.0,0.0
14031,46.0,0,119,4.0,0.0
14032,74.0,0,119,2.0,0.0
14033,35.0,0,119,9.0,0.0
14034,46.0,0,119,3.0,0.0
14035,62.0,0,119,2.0,0.0
14036,74.0,0,119,2.0,0.0
14037,35.0,15,119,9.0,0.0
14038,58.0,0,119,4.0,0.0
14039,46.0,0,119,4.0,0.0
14040,34.0,0,104,3.0,0.0
14041,35.0,0,119,9.0,0.0
14042,34.0,0,119,3.0,0.0
14043,46.0,0,119,4.0,0.0
14044,62.0,0,119,2.0,0.0
14045,74.0,0,119,2.0,0.0
14046,58.0,360,119,4.0,0.0
14047,46.0,0,119,3.0,0.0
14048,46.0,0,119,4.0,0.0
14049,62.0,0,119,2.0,0.0
14050,74.0,0,119,2.0,0.0
14051,35.0,0,119,9.0,0.0
14052,34.0,0,119,3.0,0.0
14053,58.0,0,119,4.0,0.0
14054,49.0,0,119,9.0,0.0
14055,35.0,0,119,9.0,0.0
14056,46.0,30,119,3.0,0.0
14057,81.0,0,119,9.0,0.0
14058,34.0,0,119,3.0,0.0
14059,62.0,150,29,4.0,0.0
14060,58.0,0,29,4.0,0.0
14061,86.0,0,29,0.0,0.0
14062,70.0,0,29,2.0,0.0
14063,74.0,0,29,2.0,0.0
14064,58.0,0,119,3.0,0.0
14065,81.0,0,119,9.0,0.0
14066,74.0,30,299,2.0,0.0
14067,70.0,0,299,2.0,0.0
14068,46.0,0,119,3.0,0.0
14069,62.0,0,299,4.0,0.0
14070,86.0,0,299,0.0,0.0
14071,58.0,0,299,4.0,0.0
14072,35.0,0,119,9.0,0.0
14073,81.0,0,119,9.0,0.0
14074,49.0,0,119,9.0,0.0
14075,46.0,0,119,3.0,0.0
14076,34.0,0,119,3.0,0.0
14077,72.0,0,29,2.0,0.0
14078,63.0,0,29,4.0,0.0
14079,75.0,0,29,2.0,0.0
14080,60.0,150,29,4.0,0.0
14081,87.0,0,29,0.0,0.0
14082,65.0,0,299,4.0,0.0
14083,62.0,0,299,4.0,0.0
14084,81.0,180,119,9.0,0.0
14085,77.0,0,299,2.0,0.0
14086,74.0,0,299,2.0,0.0
14087,58.0,0,119,3.0,0.0
14088,46.0,0,119,3.0,0.0
14089,89.0,0,299,0.0,0.0
14090,41.0,0,119,3.0,0.0
14091,29.0,0,119,3.0,0.0
14092,35.0,0,119,9.0,0.0
14093,49.0,0,119,9.0,0.0
14094,81.0,30,119,9.0,0.0
14095,53.0,0,119,3.0,0.0
14096,77.0,0,59,2.0,0.0
14097,74.0,0,59,2.0,0.0
14098,65.0,0,29,4.0,0.0
14099,89.0,120,59,0.0,0.0
14100,65.0,0,29,1.0,0.0
14101,77.0,0,29,1.0,0.0
14102,62.0,30,29,4.0,0.0
14103,63.0,0,299,4.0,0.0
14104,65.0,0,299,1.0,0.0
14105,77.0,30,299,1.0,0.0
14106,75.0,0,299,2.0,0.0
14107,72.0,0,299,2.0,0.0
14108,60.0,0,299,4.0,0.0
14109,41.0,0,119,3.0,0.0
14110,53.0,0,119,3.0,0.0
14111,65.0,180,119,3.0,0.0
14112,81.0,0,119,9.0,0.0
14113,87.0,0,299,0.0,0.0
14114,49.0,0,119,9.0,0.0
14115,35.0,0,119,9.0,0.0
14116,53.0,0,119,3.0,0.0
14117,41.0,0,119,3.0,0.0
14118,81.0,0,119,9.0,0.0
14119,29.0,0,119,3.0,0.0
14120,74.0,0,29,2.0,0.0
14121,70.0,0,29,2.0,0.0
14122,58.0,0,29,4.0,0.0
14123,79.0,0,29,1.0,0.0
14124,67.0,150,29,1.0,0.0
14125,62.0,0,29,4.0,0.0
14126,86.0,0,29,0.0,0.0
14127,72.0,0,299,2.0,0.0
14128,81.0,120,179,1.0,0.0
14129,53.0,0,119,3.0,0.0
14130,65.0,0,299,2.0,0.0
14131,39.0,0,119,3.0,0.0
14132,69.0,0,179,1.0,0.0
14133,65.0,60,119,3.0,0.0
14134,84.0,0,299,0.0,0.0
14135,60.0,0,299,4.0,0.0
14136,53.0,60,299,4.0,0.0
14137,81.0,0,119,9.0,0.0
14138,49.0,0,119,9.0,0.0
14139,34.0,0,119,3.0,0.0
14140,84.0,0,119,1.0,0.0
14141,81.0,0,119,9.0,0.0
14142,35.0,0,119,9.0,0.0
14143,70.0,0,119,5.0,0.0
14144,72.0,0,119,1.0,0.0
14145,46.0,0,119,3.0,0.0
14146,82.0,0,59,0.0,0.0
14147,82.0,0,59,1.0,0.0
14148,70.0,0,59,1.0,0.0
14149,62.0,0,59,2.0,0.0
14150,50.0,0,59,4.0,0.0
14151,58.0,120,59,4.0,0.0
14152,70.0,0,59,2.0,0.0
14153,70.0,0,299,1.0,0.0
14154,82.0,0,299,1.0,0.0
14155,70.0,0,299,2.0,0.0
14156,82.0,60,299,0.0,0.0
14157,58.0,0,119,3.0,0.0
14158,46.0,0,119,3.0,0.0
14159,62.0,0,299,2.0,0.0
14160,58.0,0,299,4.0,0.0
14161,50.0,0,299,4.0,0.0
14162,81.0,0,119,9.0,0.0
14163,34.0,0,119,3.0,0.0
14164,46.0,0,119,3.0,0.0
14165,35.0,0,119,9.0,0.0
14166,81.0,0,119,9.0,0.0
14167,49.0,0,119,9.0,0.0
14168,65.0,0,59,2.0,0.0
14169,72.0,0,59,2.0,0.0
14170,60.0,0,59,4.0,0.0
14171,53.0,0,59,4.0,0.0
14172,84.0,0,59,0.0,0.0
14173,84.0,120,59,1.0,0.0
14174,81.0,0,59,1.0,0.0
14175,70.0,0,119,5.0,0.0
14176,58.0,0,299,4.0,0.0
14177,62.0,0,299,4.0,0.0
14178,81.0,60,119,9.0,0.0
14179,86.0,0,299,0.0,0.0
14180,58.0,0,119,3.0,0.0
14181,70.0,0,299,2.0,0.0
14182,74.0,0,299,2.0,0.0
14183,82.0,0,299,1.0,0.0
14184,86.0,60,299,1.0,0.0
14185,46.0,0,119,3.0,0.0
14186,70.0,120,59,5.0,0.0
14187,81.0,0,119,9.0,0.0
14188,35.0,0,119,9.0,0.0
14189,29.0,0,119,3.0,0.0
14190,49.0,0,119,9.0,0.0
14191,41.0,0,119,3.0,0.0
14192,53.0,0,119,3.0,0.0
14193,65.0,0,119,5.0,0.0
14194,74.0,0,59,2.0,0.0
14195,82.0,0,59,1.0,0.0
14196,86.0,0,59,1.0,0.0
14197,58.0,0,59,4.0,0.0
14198,62.0,0,59,4.0,0.0
14199,86.0,120,59,0.0,0.0
14200,70.0,0,59,2.0,0.0
14201,41.0,180,119,3.0,0.0
14202,65.0,0,299,2.0,0.0
14203,53.0,0,119,3.0,0.0
14204,81.0,0,299,1.0,0.0
14205,81.0,0,119,9.0,0.0
14206,65.0,0,119,3.0,0.0
14207,84.0,0,299,1.0,0.0
14208,72.0,0,299,2.0,0.0
14209,53.0,0,299,4.0,0.0
14210,84.0,0,299,0.0,0.0
14211,60.0,60,299,4.0,0.0
14212,35.0,0,119,9.0,0.0
14213,29.0,0,119,3.0,0.0
14214,81.0,0,119,9.0,0.0
14215,53.0,0,119,3.0,0.0
14216,41.0,0,119,3.0,0.0
14217,49.0,0,119,9.0,0.0
14218,70.0,0,59,2.0,0.0
14219,58.0,0,59,4.0,0.0
14220,50.0,0,59,4.0,0.0
14221,62.0,0,59,2.0,0.0
14222,82.0,0,59,0.0,0.0
14223,74.0,0,59,1.0,0.0
14224,82.0,120,59,1.0,0.0
14225,41.0,60,119,3.0,0.0
14226,84.0,0,299,0.0,0.0
14227,81.0,60,299,1.0,0.0
14228,65.0,0,119,3.0,0.0
14229,53.0,0,119,3.0,0.0
14230,65.0,0,119,5.0,0.0
14231,84.0,0,299,1.0,0.0
14232,81.0,0,119,9.0,0.0
14233,72.0,0,299,2.0,0.0
14234,65.0,0,299,2.0,0.0
14235,60.0,0,299,4.0,0.0
14236,53.0,0,299,4.0,0.0
14237,65.0,120,59,5.0,0.0
14238,49.0,0,119,9.0,0.0
14239,46.0,0,119,3.0,0.0
14240,34.0,0,119,3.0,0.0
14241,70.0,0,119,5.0,0.0
14242,81.0,0,119,9.0,0.0
14243,35.0,0,119,9.0,0.0
14244,70.0,0,59,2.0,0.0
14245,58.0,0,59,4.0,0.0
14246,62.0,0,59,4.0,0.0
14247,86.0,0,59,0.0,0.0
14248,74.0,0,59,2.0,0.0
14249,86.0,120,59,1.0,0.0
14250,82.0,0,59,1.0,0.0
14251,70.0,0,299,2.0,0.0
14252,98.0,0,299,0.0,0.0
14253,82.0,0,299,1.0,0.0
14254,74.0,0,299,2.0,0.0
14255,46.0,0,119,3.0,0.0
14256,62.0,0,299,4.0,0.0
14257,58.0,0,299,4.0,0.0
14258,58.0,0,119,3.0,0.0
14259,86.0,0,299,1.0,0.0
14260,81.0,180,119,9.0,0.0
14261,81.0,0,119,9.0,0.0
14262,35.0,0,119,9.0,0.0
14263,46.0,60,119,3.0,0.0
14264,34.0,0,119,3.0,0.0
14265,49.0,0,119,9.0,0.0
14266,63.0,0,59,4.0,0.0
14267,60.0,0,59,4.0,0.0
14268,99.0,0,59,0.0,0.0
14269,75.0,0,59,1.0,0.0
14270,84.0,0,59,1.0,0.0
14271,75.0,120,59,2.0,0.0
14272,72.0,0,59,2.0,0.0
14273,74.0,0,299,2.0,0.0
14274,86.0,0,299,1.0,0.0
14275,62.0,0,299,4.0,0.0
14276,77.0,0,299,1.0,0.0
14277,81.0,0,119,9.0,0.0
14278,58.0,0,119,3.0,0.0
14279,46.0,0,119,3.0,0.0
14280,65.0,0,299,4.0,0.0
14281,77.0,0,299,2.0,0.0
14282,101.0,0,299,0.0,0.0
14283,81.0,0,119,9.0,0.0
14284,29.0,0,119,3.0,0.0
14285,49.0,60,119,9.0,0.0
14286,41.0,0,119,3.0,0.0
14287,35.0,0,119,9.0,0.0
14288,53.0,0,119,3.0,0.0
14289,62.0,0,59,4.0,0.0
14290,65.0,0,59,4.0,0.0
14291,74.0,0,59,2.0,0.0
14292,77.0,0,59,1.0,0.0
14293,77.0,0,59,2.0,0.0
14294,86.0,0,59,1.0,0.0
14295,101.0,120,59,0.0,0.0
14296,99.0,0,299,0.0,0.0
14297,63.0,60,299,4.0,0.0
14298,77.0,0,299,1.0,0.0
14299,45.0,0,119,3.0,0.0
14300,84.0,0,299,1.0,0.0
14301,33.0,0,119,3.0,0.0
14302,81.0,0,119,9.0,0.0
14303,60.0,0,299,4.0,0.0
14304,75.0,0,299,2.0,0.0
14305,72.0,0,299,2.0,0.0
14306,57.0,60,119,3.0,0.0
14307,60.0,0,59,3.0,0.0
14308,48.0,0,59,3.0,0.0
14309,36.0,120,59,3.0,0.0
14310,65.0,0,119,3.0,0.0
14311,35.0,0,119,9.0,0.0
14312,49.0,0,119,9.0,0.0
14313,41.0,0,119,3.0,0.0
14314,53.0,0,119,3.0,0.0
14315,81.0,0,119,9.0,0.0
14316,41.0,0,59,3.0,0.0
14317,86.0,0,59,1.0,0.0
14318,77.0,0,59,1.0,0.0
14319,62.0,0,59,4.0,0.0
14320,98.0,0,59,0.0,0.0
14321,29.0,0,59,3.0,0.0
14322,74.0,0,59,2.0,0.0
14323,70.0,120,59,2.0,0.0
14324,53.0,0,59,3.0,0.0
14325,58.0,0,59,4.0,0.0
14326,72.0,0,299,2.0,0.0
14327,84.0,0,299,1.0,0.0
14328,77.0,0,299,1.0,0.0
14329,60.0,0,299,4.0,0.0
14330,53.0,0,299,4.0,0.0
14331,31.0,0,119,3.0,0.0
14332,65.0,60,299,2.0,0.0
14333,43.0,60,119,3.0,0.0
14334,81.0,0,119,9.0,0.0
14335,96.0,0,299,0.0,0.0
14336,55.0,0,119,3.0,0.0
14337,33.0,120,59,3.0,0.0
14338,45.0,0,59,3.0,0.0
14339,57.0,0,59,3.0,0.0
14340,70.0,0,119,5.0,0.0
14341,46.0,0,119,3.0,0.0
14342,49.0,0,119,9.0,0.0
14343,81.0,0,119,9.0,0.0
14344,35.0,0,119,9.0,0.0
14345,34.0,0,119,3.0,0.0
14346,94.0,0,59,0.0,0.0
14347,62.0,0,59,2.0,0.0
14348,58.0,0,59,4.0,0.0
14349,50.0,0,59,4.0,0.0
14350,82.0,120,59,1.0,0.0
14351,77.0,0,59,1.0,0.0
14352,70.0,0,59,2.0,0.0
14353,82.0,0,299,1.0,0.0
14354,58.0,0,299,4.0,0.0
14355,81.0,180,119,9.0,0.0
14356,50.0,0,299,4.0,0.0
14357,77.0,0,299,1.0,0.0
14358,94.0,60,299,0.0,0.0
14359,62.0,0,299,2.0,0.0
14360,70.0,0,299,2.0,0.0
14361,58.0,0,119,3.0,0.0
14362,46.0,0,119,3.0,0.0
14363,46.0,0,119,3.0,0.0
14364,81.0,0,119,9.0,0.0
14365,35.0,0,119,9.0,0.0
14366,34.0,0,119,3.0,0.0
14367,49.0,0,119,9.0,0.0
14368,84.0,0,59,1.0,0.0
14369,81.0,0,59,1.0,0.0
14370,65.0,0,59,2.0,0.0
14371,72.0,0,59,2.0,0.0
14372,60.0,120,59,4.0,0.0
14373,53.0,0,59,4.0,0.0
14374,96.0,0,59,0.0,0.0
14375,86.0,0,299,1.0,0.0
14376,81.0,0,119,9.0,0.0
14377,82.0,0,299,1.0,0.0
14378,62.0,0,299,4.0,0.0
14379,58.0,0,299,4.0,0.0
14380,74.0,0,299,2.0,0.0
14381,70.0,60,119,5.0,0.0
14382,98.0,30,299,0.0,0.0
14383,46.0,0,119,3.0,0.0
14384,58.0,0,119,3.0,0.0
14385,70.0,0,299,2.0,0.0
14386,70.0,120,59,5.0,0.0
14387,29.0,0,119,3.0,0.0
14388,65.0,0,119,5.0,0.0
14389,35.0,0,119,9.0,0.0
14390,53.0,0,119,3.0,0.0
14391,41.0,0,119,3.0,0.0
14392,49.0,0,119,9.0,0.0
14393,81.0,0,119,9.0,0.0
14394,60.0,0,29,4.0,0.0
14395,81.0,0,29,1.0,0.0
14396,84.0,0,29,1.0,0.0
14397,96.0,0,29,0.0,0.0
14398,53.0,0,29,4.0,0.0
14399,72.0,0,29,2.0,0.0
14400,65.0,90,29,2.0,0.0
14401,81.0,0,59,1.0,0.0
14402,41.0,0,119,3.0,0.0
14403,65.0,0,119,5.0,0.0
14404,53.0,0,119,3.0,0.0
14405,65.0,0,119,3.0,0.0
14406,65.0,60,59,2.0,0.0
14407,81.0,0,119,9.0,0.0
14408,53.0,0,59,4.0,0.0
14409,84.0,0,59,1.0,0.0
14410,60.0,0,59,4.0,0.0
14411,96.0,0,59,0.0,0.0
14412,72.0,0,59,2.0,0.0
14413,35.0,30,119,9.0,0.0
14414,49.0,0,119,9.0,0.0
14415,70.0,0,29,2.0,0.0
14416,62.0,30,29,2.0,0.0
14417,82.0,0,29,1.0,0.0
14418,58.0,0,29,4.0,0.0
14419,50.0,0,29,4.0,0.0
14420,74.0,0,29,1.0,0.0
14421,70.0,60,59,5.0,0.0
14422,94.0,0,29,0.0,0.0
14423,58.0,0,119,4.0,0.0
14424,50.0,0,119,4.0,0.0
14425,82.0,0,119,1.0,0.0
14426,70.0,0,119,5.0,0.0
14427,70.0,0,59,13.0,0.0
14428,65.0,0,59,14.0,0.0
14429,35.0,0,119,9.0,0.0
14430,46.0,0,119,3.0,0.0
14431,58.0,0,59,15.0,0.0
14432,81.0,0,119,9.0,0.0
14433,86.0,60,59,12.0,0.0
14434,70.0,30,119,2.0,0.0
14435,62.0,0,119,2.0,0.0
14436,34.0,0,119,3.0,0.0
14437,74.0,0,119,1.0,0.0
14438,94.0,0,119,0.0,0.0
14439,49.0,0,119,9.0,0.0
14440,84.0,0,29,12.0,0.0
14441,69.0,0,29,14.0,0.0
14442,65.0,90,29,15.0,0.0
14443,72.0,0,29,13.0,0.0
14444,84.0,90,59,12.0,0.0
14445,65.0,0,59,15.0,0.0
14446,72.0,0,59,13.0,0.0
14447,69.0,0,59,14.0,0.0
14448,82.0,0,29,12.0,0.0
14449,74.0,0,29,13.0,0.0
14450,65.0,0,29,15.0,0.0
14451,70.0,150,29,14.0,0.0
14452,69.0,60,119,14.0,0.0
14453,53.0,0,119,3.0,0.0
14454,41.0,0,119,3.0,0.0
14455,35.0,0,119,9.0,0.0
14456,29.0,0,119,3.0,0.0
14457,49.0,0,119,9.0,0.0
14458,72.0,0,119,13.0,0.0
14459,65.0,0,119,15.0,0.0
14460,81.0,0,119,9.0,0.0
14461,84.0,0,119,12.0,0.0
14462,72.0,0,59,2.0,0.0
14463,84.0,0,59,1.0,0.0
14464,81.0,0,59,1.0,0.0
14465,65.0,0,59,2.0,0.0
14466,60.0,0,59,4.0,0.0
14467,53.0,120,59,4.0,0.0
14468,96.0,0,59,0.0,0.0
14469,53.0,0,119,3.0,0.0
14470,65.0,180,119,3.0,0.0
14471,81.0,0,119,9.0,0.0
14472,41.0,0,119,3.0,0.0
14473,84.0,0,359,1.0,0.0
14474,81.0,0,359,1.0,0.0
14475,53.0,0,359,4.0,0.0
14476,96.0,0,359,0.0,0.0
14477,72.0,0,359,2.0,0.0
14478,65.0,120,359,2.0,0.0
14479,60.0,0,359,4.0,0.0
14480,81.0,0,119,9.0,0.0
14481,41.0,0,119,3.0,0.0
14482,65.0,60,119,5.0,0.0
14483,35.0,0,119,9.0,0.0
14484,29.0,0,119,3.0,0.0
14485,49.0,0,119,9.0,0.0
14486,53.0,0,119,3.0,0.0
14487,62.0,0,119,4.0,0.0
14488,58.0,0,119,4.0,0.0
14489,70.0,0,119,2.0,0.0
14490,74.0,0,119,2.0,0.0
14491,46.0,0,119,3.0,0.0
14492,98.0,0,119,0.0,0.0
14493,65.0,0,119,5.0,0.0
14494,82.0,0,119,1.0,0.0
14495,86.0,60,119,1.0,0.0
14496,34.0,0,119,3.0,0.0
14497,81.0,0,119,9.0,0.0
14498,62.0,0,59,2.0,0.0
14499,50.0,0,59,4.0,0.0
14500,58.0,0,59,4.0,0.0
14501,94.0,0,59,0.0,0.0
14502,82.0,120,59,1.0,0.0
14503,74.0,0,59,1.0,0.0
14504,65.0,0,59,5.0,0.0
14505,70.0,0,59,2.0,0.0
14506,65.0,0,119,5.0,0.0
14507,53.0,0,119,4.0,0.0
14508,60.0,0,119,4.0,0.0
14509,29.0,0,119,3.0,0.0
14510,81.0,0,119,1.0,0.0
14511,84.0,0,119,1.0,0.0
14512,65.0,0,119,2.0,0.0
14513,72.0,0,119,2.0,0.0
14514,96.0,0,119,0.0,0.0
14515,81.0,0,119,9.0,0.0
14516,49.0,0,119,9.0,0.0
14517,53.0,60,119,3.0,0.0
14518,41.0,0,119,3.0,0.0
14519,35.0,0,119,9.0,0.0
14520,84.0,0,59,1.0,0.0
14521,81.0,0,59,1.0,0.0
14522,72.0,120,59,2.0,0.0
14523,60.0,0,59,4.0,0.0
14524,53.0,0,59,4.0,0.0
14525,96.0,0,59,0.0,0.0
14526,65.0,0,59,2.0,0.0
14527,96.0,0,239,0.0,0.0
14528,72.0,0,239,2.0,0.0
14529,65.0,0,299,2.0,0.0
14530,81.0,0,239,1.0,0.0
14531,60.0,0,299,4.0,0.0
14532,53.0,0,299,4.0,0.0
14533,53.0,120,119,3.0,0.0
14534,65.0,0,119,3.0,0.0
14535,41.0,0,119,3.0,0.0
14536,84.0,60,239,1.0,0.0
14537,81.0,0,119,9.0,0.0
14538,53.0,0,119,3.0,0.0
14539,49.0,0,119,9.0,0.0
14540,81.0,0,119,9.0,0.0
14541,29.0,0,119,3.0,0.0
14542,35.0,0,119,9.0,0.0
14543,65.0,0,119,5.0,0.0
14544,41.0,0,119,3.0,0.0
14545,98.0,0,59,0.0,0.0
14546,86.0,0,59,1.0,0.0
14547,82.0,60,59,1.0,0.0
14548,74.0,0,59,2.0,0.0
14549,63.0,0,59,4.0,0.0
14550,81.0,0,59,1.0,0.0
14551,84.0,0,59,1.0,0.0
14552,99.0,0,59,0.0,0.0
14553,75.0,0,59,2.0,0.0
14554,60.0,60,59,4.0,0.0
14555,72.0,0,59,2.0,0.0
14556,46.0,0,119,3.0,0.0
14557,98.0,0,59,0.0,0.0
14558,81.0,0,119,9.0,0.0
14559,74.0,60,59,2.0,0.0
14560,86.0,0,59,1.0,0.0
14561,82.0,0,59,1.0,0.0
14562,62.0,30,119,4.0,0.0
14563,70.0,0,59,2.0,0.0
14564,34.0,0,119,3.0,0.0
14565,65.0,0,119,5.0,0.0
14566,58.0,0,119,4.0,0.0
14567,94.0,0,29,0.0,0.0
14568,70.0,0,29,2.0,0.0
14569,50.0,60,59,4.0,0.0
14570,74.0,0,29,1.0,0.0
14571,62.0,0,29,2.0,0.0
14572,65.0,0,59,5.0,0.0
14573,58.0,0,59,4.0,0.0
14574,82.0,30,29,1.0,0.0
14575,65.0,0,119,5.0,0.0
14576,72.0,60,59,2.0,0.0
14577,41.0,0,119,3.0,0.0
14578,96.0,0,59,0.0,0.0
14579,65.0,0,119,2.0,0.0
14580,81.0,0,59,1.0,0.0
14581,29.0,60,119,3.0,0.0
14582,60.0,0,119,4.0,0.0
14583,84.0,0,59,1.0,0.0
14584,81.0,0,119,9.0,0.0
14585,53.0,0,119,3.0,0.0
14586,49.0,0,119,9.0,0.0
14587,53.0,0,119,4.0,0.0
14588,35.0,0,119,9.0,0.0
14589,98.0,0,59,0.0,0.0
14590,82.0,0,59,1.0,0.0
14591,86.0,0,59,1.0,0.0
14592,74.0,0,59,2.0,0.0
14593,60.0,60,59,4.0,0.0
14594,63.0,0,59,4.0,0.0
14595,72.0,0,59,2.0,0.0
14596,75.0,0,59,2.0,0.0
14597,84.0,0,59,1.0,0.0
14598,99.0,0,59,0.0,0.0
14599,81.0,0,59,1.0,0.0
14600,46.0,0,119,3.0,0.0
14601,86.0,0,59,1.0,0.0
14602,82.0,60,59,1.0,0.0
14603,58.0,30,119,4.0,0.0
14604,62.0,0,119,4.0,0.0
14605,58.0,0,119,3.0,0.0
14606,81.0,0,119,9.0,0.0
14607,74.0,0,59,2.0,0.0
14608,70.0,0,59,2.0,0.0
14609,34.0,0,119,3.0,0.0
14610,98.0,0,59,0.0,0.0
14611,70.0,0,29,2.0,0.0
14612,82.0,0,29,1.0,0.0
14613,94.0,0,29,0.0,0.0
14614,50.0,60,59,4.0,0.0
14615,74.0,0,29,1.0,0.0
14616,62.0,30,29,2.0,0.0
14617,58.0,0,59,4.0,0.0
14618,84.0,0,59,1.0,0.0
14619,96.0,60,59,0.0,0.0
14620,81.0,0,59,1.0,0.0
14621,41.0,0,119,3.0,0.0
14622,29.0,0,119,3.0,0.0
14623,53.0,0,119,3.0,0.0
14624,65.0,0,119,2.0,0.0
14625,72.0,0,59,2.0,0.0
14626,35.0,0,119,9.0,0.0
14627,81.0,60,119,9.0,0.0
14628,53.0,0,119,4.0,0.0
14629,60.0,0,119,4.0,0.0
14630,49.0,0,119,9.0,0.0
14631,74.0,0,59,2.0,0.0
14632,98.0,0,59,0.0,0.0
14633,82.0,0,59,1.0,0.0
14634,86.0,0,59,1.0,0.0
14635,81.0,120,59,1.0,0.0
14636,72.0,0,59,2.0,0.0
14637,84.0,0,59,1.0,0.0
14638,75.0,0,59,2.0,0.0
14639,63.0,0,59,4.0,0.0
14640,99.0,0,59,0.0,0.0
14641,60.0,0,59,4.0,0.0
14642,53.0,60,119,3.0,0.0
14643,65.0,0,119,3.0,0.0
14644,86.0,0,119,1.0,0.0
14645,82.0,0,119,1.0,0.0
14646,81.0,0,119,9.0,0.0
14647,41.0,0,119,3.0,0.0
14648,58.0,0,119,4.0,0.0
14649,74.0,0,119,2.0,0.0
14650,62.0,0,119,4.0,0.0
14651,98.0,0,119,0.0,0.0
14652,70.0,0,119,2.0,0.0
14653,60.0,0,239,4.0,0.0
14654,96.0,0,119,0.0,0.0
14655,53.0,60,59,4.0,0.0
14656,69.0,0,119,2.0,0.0
14657,72.0,60,119,2.0,0.0
14658,81.0,0,119,1.0,0.0
14659,84.0,0,119,1.0,0.0
14660,48.0,0,119,3.0,0.0
14661,36.0,0,119,3.0,0.0
14662,49.0,0,119,9.0,0.0
14663,35.0,0,119,9.0,0.0
14664,81.0,60,119,9.0,0.0
14665,67.0,0,59,2.0,0.0
14666,70.0,0,59,2.0,0.0
14667,82.0,0,59,1.0,0.0
14668,79.0,0,59,1.0,0.0
14669,94.0,0,59,0.0,0.0
14670,65.0,120,59,2.0,0.0
14671,93.0,0,59,0.0,0.0
14672,69.0,0,59,2.0,0.0
14673,81.0,0,59,1.0,0.0
14674,77.0,0,59,1.0,0.0
14675,82.0,0,119,1.0,0.0
14676,81.0,0,119,9.0,0.0
14677,94.0,0,119,0.0,0.0
14678,48.0,0,119,3.0,0.0
14679,70.0,0,119,2.0,0.0
14680,67.0,0,119,2.0,0.0
14681,60.0,0,119,3.0,0.0
14682,79.0,0,119,1.0,0.0
14683,60.0,60,119,4.0,0.0
14684,64.0,0,59,2.0,0.0
14685,84.0,60,59,1.0,0.0
14686,76.0,0,59,1.0,0.0
14687,60.0,0,59,4.0,0.0
14688,96.0,0,59,0.0,0.0
14689,72.0,0,59,2.0,0.0
14690,39.0,0,179,3.0,0.0
14691,65.0,0,119,4.0,0.0
14692,53.0,0,59,2.0,0.0
14693,51.0,0,179,3.0,0.0
14694,53.0,60,119,4.0,0.0
14695,89.0,0,59,0.0,0.0
14696,65.0,0,59,2.0,0.0
14697,81.0,0,119,9.0,0.0
14698,35.0,0,119,9.0,0.0
14699,49.0,0,119,9.0,0.0
14700,77.0,60,59,1.0,0.0
14701,65.0,0,59,1.0,0.0
14702,63.0,0,179,3.0,0.0
14703,67.0,0,59,2.0,0.0
14704,79.0,0,59,1.0,0.0
14705,67.0,0,59,1.0,0.0
14706,55.0,0,59,2.0,0.0
14707,91.0,0,59,0.0,0.0
14708,69.0,0,59,2.0,0.0
14709,65.0,0,59,4.0,0.0
14710,69.0,0,59,1.0,0.0
14711,81.0,0,59,1.0,0.0
14712,93.0,0,59,0.0,0.0
14713,53.0,0,59,4.0,0.0
14714,57.0,60,59,2.0,0.0
14715,38.0,0,119,3.0,0.0
14716,94.0,0,59,0.0,0.0
14717,81.0,60,119,9.0,0.0
14718,62.0,0,119,3.0,0.0
14719,58.0,0,59,2.0,0.0
14720,53.0,0,119,4.0,0.0
14721,50.0,0,119,3.0,0.0
14722,82.0,0,59,1.0,0.0
14723,70.0,60,59,1.0,0.0
14724,70.0,0,59,2.0,0.0
14725,65.0,0,119,4.0,0.0
14726,96.0,0,59,0.0,0.0
14727,72.0,0,59,2.0,0.0
14728,72.0,0,59,1.0,0.0
14729,84.0,0,59,1.0,0.0
14730,60.0,0,59,2.0,0.0
14731,48.0,0,59,3.0,0.0
14732,60.0,0,59,3.0,0.0
14733,74.0,0,59,1.0,0.0
14734,53.0,0,59,4.0,0.0
14735,65.0,0,59,4.0,0.0
14736,62.0,0,59,2.0,0.0
14737,98.0,0,59,0.0,0.0
14738,86.0,0,59,1.0,0.0
14739,74.0,0,59,2.0,0.0
14740,36.0,120,59,3.0,0.0
14741,46.0,0,119,3.0,0.0
14742,62.0,0,119,2.0,0.0
14743,70.0,0,119,5.0,0.0
14744,53.0,60,119,4.0,0.0
14745,65.0,0,119,4.0,0.0
14746,86.0,0,119,1.0,0.0
14747,74.0,0,119,1.0,0.0
14748,98.0,0,119,0.0,0.0
14749,35.0,0,119,9.0,0.0
14750,74.0,0,119,2.0,0.0
14751,49.0,0,119,9.0,0.0
14752,34.0,0,119,3.0,0.0
14753,81.0,0,119,9.0,0.0
14754,98.0,120,59,0.0,0.0
14755,86.0,0,59,1.0,0.0
14756,46.0,0,59,4.0,0.0
14757,58.0,0,59,4.0,0.0
14758,82.0,0,59,1.0,0.0
14759,70.0,0,59,2.0,0.0
14760,74.0,0,59,2.0,0.0
14761,81.0,0,119,9.0,0.0
14762,98.0,0,299,0.0,0.0
14763,70.0,0,299,2.0,0.0
14764,74.0,0,299,2.0,0.0
14765,86.0,0,299,1.0,0.0
14766,82.0,0,299,1.0,0.0
14767,58.0,0,299,4.0,0.0
14768,46.0,0,299,4.0,0.0
14769,46.0,0,119,3.0,0.0
14770,58.0,180,119,3.0,0.0
14771,35.0,0,119,9.0,0.0
14772,81.0,0,119,9.0,0.0
14773,49.0,0,119,9.0,0.0
14774,44.0,60,119,3.0,0.0
14775,56.0,0,119,3.0,0.0
14776,32.0,0,119,3.0,0.0
14777,72.0,0,59,2.0,0.0
14778,46.0,0,59,4.0,0.0
14779,58.0,120,59,4.0,0.0
14780,75.0,0,59,2.0,0.0
14781,99.0,0,59,0.0,0.0
14782,82.0,0,59,1.0,0.0
14783,84.0,0,59,1.0,0.0
14784,46.0,0,299,4.0,0.0
14785,58.0,0,299,4.0,0.0
14786,44.0,0,119,3.0,0.0
14787,77.0,0,299,2.0,0.0
14788,74.0,0,179,2.0,0.0
14789,68.0,0,119,3.0,0.0
14790,101.0,0,299,0.0,0.0
14791,56.0,0,119,3.0,0.0
14792,81.0,0,119,9.0,0.0
14793,86.0,120,179,1.0,0.0
14794,82.0,60,299,1.0,0.0
14795,70.0,60,119,5.0,0.0
14796,70.0,0,59,5.0,0.0
14797,81.0,0,119,9.0,0.0
14798,55.0,0,119,3.0,0.0
14799,43.0,0,119,3.0,0.0
14800,70.0,0,119,5.0,0.0
14801,35.0,0,119,9.0,0.0
14802,31.0,0,119,3.0,0.0
14803,70.0,0,179,2.0,0.0
14804,49.0,0,119,9.0,0.0
14805,46.0,0,59,4.0,0.0
14806,58.0,0,59,4.0,0.0
14807,101.0,0,59,0.0,0.0
14808,77.0,0,59,1.0,0.0
14809,82.0,0,59,1.0,0.0
14810,77.0,120,59,2.0,0.0
14811,58.0,0,299,4.0,0.0
14812,46.0,0,299,4.0,0.0
14813,43.0,0,119,3.0,0.0
14814,99.0,0,299,0.0,0.0
14815,63.0,0,119,2.0,0.0
14816,75.0,0,299,2.0,0.0
14817,55.0,0,119,3.0,0.0
14818,67.0,0,119,3.0,0.0
14819,81.0,0,119,9.0,0.0
14820,82.0,0,299,1.0,0.0
14821,75.0,60,119,1.0,0.0
14822,65.0,120,59,2.0,0.0
14823,77.0,0,59,1.0,0.0
14824,35.0,0,119,9.0,0.0
14825,81.0,0,119,9.0,0.0
14826,39.0,0,119,3.0,0.0
14827,51.0,0,119,3.0,0.0
14828,67.0,120,179,2.0,0.0
14829,27.0,0,119,3.0,0.0
14830,49.0,60,119,9.0,0.0
14831,79.0,0,119,1.0,0.0
14832,86.0,0,59,1.0,0.0
14833,98.0,0,59,0.0,0.0
14834,79.0,0,59,1.0,0.0
14835,74.0,0,59,2.0,0.0
14836,58.0,0,59,4.0,0.0
14837,46.0,0,59,4.0,0.0
14838,79.0,0,179,1.0,0.0
14839,96.0,0,299,0.0,0.0
14840,72.0,0,299,2.0,0.0
14841,70.0,0,119,5.0,0.0
14842,67.0,0,179,2.0,0.0
14843,84.0,0,299,1.0,0.0
14844,28.0,0,119,3.0,0.0
14845,46.0,0,299,4.0,0.0
14846,58.0,0,299,4.0,0.0
14847,52.0,0,119,3.0,0.0
14848,81.0,60,119,9.0,0.0
14849,40.0,0,119,3.0,0.0
14850,70.0,120,59,5.0,0.0
14851,63.0,0,119,2.0,0.0
14852,35.0,0,119,9.0,0.0
14853,49.0,0,119,9.0,0.0
14854,81.0,60,119,9.0,0.0
14855,75.0,0,119,1.0,0.0
14856,65.0,0,119,5.0,0.0
14857,29.0,0,119,3.0,0.0
14858,53.0,0,119,3.0,0.0
14859,41.0,0,119,3.0,0.0
14860,58.0,120,59,4.0,0.0
14861,50.0,0,59,4.0,0.0
14862,94.0,0,59,0.0,0.0
14863,82.0,0,59,1.0,0.0
14864,70.0,0,59,2.0,0.0
14865,62.0,0,59,2.0,0.0
14866,74.0,0,59,1.0,0.0
14867,53.0,0,119,3.0,0.0
14868,65.0,0,119,3.0,0.0
14869,62.0,0,299,2.0,0.0
14870,41.0,180,119,3.0,0.0
14871,74.0,0,299,1.0,0.0
14872,50.0,0,299,4.0,0.0
14873,58.0,0,299,4.0,0.0
14874,82.0,0,299,1.0,0.0
14875,94.0,0,299,0.0,0.0
14876,70.0,0,299,2.0,0.0
14877,81.0,0,119,9.0,0.0
14878,29.0,0,119,3.0,0.0
14879,53.0,0,119,3.0,0.0
14880,49.0,60,119,9.0,0.0
14881,35.0,0,119,9.0,0.0
14882,81.0,0,119,9.0,0.0
14883,41.0,0,119,3.0,0.0
14884,53.0,0,59,4.0,0.0
14885,60.0,0,59,4.0,0.0
14886,96.0,0,59,0.0,0.0
14887,72.0,0,59,2.0,0.0
14888,65.0,120,59,2.0,0.0
14889,84.0,0,59,1.0,0.0
14890,81.0,0,59,1.0,0.0
14891,62.0,0,299,4.0,0.0
14892,58.0,0,299,4.0,0.0
14893,81.0,0,119,9.0,0.0
14894,74.0,0,299,2.0,0.0
14895,70.0,30,299,2.0,0.0
14896,98.0,0,299,0.0,0.0
14897,41.0,180,119,3.0,0.0
14898,65.0,0,119,3.0,0.0
14899,86.0,0,299,1.0,0.0
14900,82.0,0,299,1.0,0.0
14901,53.0,0,119,3.0,0.0
14902,29.0,0,119,3.0,0.0
14903,35.0,0,119,9.0,0.0
14904,49.0,0,119,9.0,0.0
14905,53.0,0,119,3.0,0.0
14906,41.0,0,119,3.0,0.0
14907,81.0,0,119,9.0,0.0
14908,60.0,90,29,4.0,0.0
14909,96.0,0,29,0.0,0.0
14910,53.0,0,29,4.0,0.0
14911,65.0,0,29,2.0,0.0
14912,72.0,0,29,2.0,0.0
14913,81.0,0,29,1.0,0.0
14914,84.0,0,29,1.0,0.0
14915,53.0,0,59,4.0,0.0
14916,60.0,0,59,4.0,0.0
14917,81.0,0,119,9.0,0.0
14918,49.0,0,119,9.0,0.0
14919,35.0,30,119,9.0,0.0
14920,41.0,0,119,3.0,0.0
14921,53.0,0,119,3.0,0.0
14922,65.0,0,119,5.0,0.0
14923,65.0,0,119,3.0,0.0
14924,96.0,0,59,0.0,0.0
14925,81.0,0,59,1.0,0.0
14926,84.0,60,59,1.0,0.0
14927,72.0,0,59,2.0,0.0
14928,65.0,0,59,2.0,0.0
14929,62.0,0,29,2.0,0.0
14930,70.0,30,29,2.0,0.0
14931,50.0,0,29,4.0,0.0
14932,74.0,0,29,1.0,0.0
14933,82.0,0,29,1.0,0.0
14934,94.0,0,29,0.0,0.0
14935,58.0,0,29,4.0,0.0
14936,65.0,60,59,5.0,0.0
14937,65.0,0,59,14.0,0.0
14938,70.0,0,119,2.0,0.0
14939,70.0,0,59,13.0,0.0
14940,82.0,0,119,1.0,0.0
14941,74.0,0,119,1.0,0.0
14942,70.0,0,119,5.0,0.0
14943,62.0,0,119,2.0,0.0
14944,94.0,0,119,0.0,0.0
14945,34.0,0,119,3.0,0.0
14946,49.0,0,119,9.0,0.0
14947,58.0,60,59,15.0,0.0
14948,35.0,0,119,9.0,0.0
14949,81.0,30,119,9.0,0.0
14950,46.0,0,119,3.0,0.0
14951,58.0,0,119,4.0,0.0
14952,50.0,0,119,4.0,0.0
14953,86.0,0,59,12.0,0.0
14954,69.0,90,29,14.0,0.0
14955,65.0,0,29,15.0,0.0
14956,84.0,0,29,12.0,0.0
14957,72.0,0,29,13.0,0.0
14958,65.0,90,59,15.0,0.0
14959,84.0,0,59,12.0,0.0
14960,69.0,0,59,14.0,0.0
14961,72.0,0,59,13.0,0.0
14962,65.0,0,29,15.0,0.0
14963,70.0,0,29,14.0,0.0
14964,74.0,0,29,13.0,0.0
14965,82.0,150,29,12.0,0.0
14966,58.0,0,119,15.0,0.0
14967,74.0,0,119,13.0,0.0
14968,70.0,0,119,14.0,0.0
14969,35.0,0,119,9.0,0.0
14970,34.0,0,119,3.0,0.0
14971,46.0,0,119,3.0,0.0
14972,49.0,60,119,9.0,0.0
14973,81.0,0,119,9.0,0.0
14974,82.0,0,119,12.0,0.0
14975,62.0,120,359,6.0,0.0
14976,86.0,0,59,0.0,0.0
14977,58.0,0,59,4.0,0.0
14978,70.0,120,59,2.0,0.0
14979,74.0,0,59,2.0,0.0
14980,62.0,0,59,4.0,0.0
14981,81.0,0,119,9.0,0.0
14982,46.0,0,119,3.0,0.0
14983,74.0,0,299,2.0,0.0
14984,86.0,60,299,0.0,0.0
14985,70.0,0,299,2.0,0.0
14986,58.0,0,299,4.0,0.0
14987,62.0,0,299,4.0,0.0
14988,58.0,60,119,3.0,0.0
14989,81.0,0,119,9.0,0.0
14990,35.0,0,119,9.0,0.0
14991,49.0,0,119,9.0,0.0
14992,46.0,0,119,3.0,0.0
14993,34.0,0,119,3.0,0.0
14994,87.0,0,59,0.0,0.0
14995,63.0,0,59,4.0,0.0
14996,60.0,120,59,4.0,0.0
14997,75.0,0,59,2.0,0.0
14998,72.0,0,59,2.0,0.0
14999,58.0,180,119,3.0,0.0
15000,46.0,0,119,3.0,0.0
15001,74.0,0,299,2.0,0.0
15002,89.0,0,299,0.0,0.0
15003,62.0,0,299,4.0,0.0
15004,65.0,0,299,4.0,0.0
15005,77.0,60,299,2.0,0.0
15006,81.0,0,119,9.0,0.0
15007,35.0,0,119,9.0,0.0
15008,81.0,0,119,9.0,0.0
15009,41.0,0,119,3.0,0.0
15010,53.0,0,119,3.0,0.0
15011,49.0,0,119,9.0,0.0
15012,65.0,135,344,6.0,0.0
15013,65.0,0,59,1.0,0.0
15014,62.0,0,59,4.0,0.0
15015,65.0,0,59,4.0,0.0
15016,77.0,0,59,2.0,0.0
15017,89.0,0,59,0.0,0.0
15018,77.0,120,59,1.0,0.0
15019,74.0,0,59,2.0,0.0
15020,60.0,0,299,4.0,0.0
15021,65.0,0,119,3.0,0.0
15022,53.0,0,119,3.0,0.0
15023,75.0,0,299,2.0,0.0
15024,72.0,0,299,2.0,0.0
15025,65.0,0,299,1.0,0.0
15026,77.0,0,299,1.0,0.0
15027,81.0,45,119,9.0,0.0
15028,87.0,0,299,0.0,0.0
15029,63.0,0,299,4.0,0.0
15030,41.0,0,119,3.0,0.0
15031,81.0,0,119,9.0,0.0
15032,53.0,0,179,6.0,0.0
15033,49.0,0,119,9.0,0.0
15034,53.0,60,119,3.0,0.0
15035,35.0,0,119,9.0,0.0
15036,62.0,0,59,4.0,0.0
15037,58.0,0,59,4.0,0.0
15038,79.0,120,59,1.0,0.0
15039,67.0,0,59,1.0,0.0
15040,74.0,0,59,2.0,0.0
15041,70.0,0,59,2.0,0.0
15042,86.0,0,59,0.0,0.0
15043,65.0,0,119,3.0,0.0
15044,84.0,0,299,0.0,0.0
15045,69.0,0,299,2.0,0.0
15046,72.0,0,299,2.0,0.0
15047,81.0,60,119,9.0,0.0
15048,81.0,0,179,1.0,0.0
15049,69.0,0,179,1.0,0.0
15050,57.0,0,299,4.0,0.0
15051,55.0,0,119,6.0,0.0
15052,53.0,0,119,3.0,0.0
15053,60.0,0,299,4.0,0.0
15054,57.0,120,59,6.0,0.0
15055,35.0,0,119,9.0,0.0
15056,49.0,0,119,9.0,0.0
15057,72.0,0,119,1.0,0.0
15058,70.0,0,119,5.0,0.0
15059,81.0,60,119,9.0,0.0
15060,84.0,0,119,1.0,0.0
15061,46.0,0,119,3.0,0.0
15062,34.0,0,119,3.0,0.0
15063,58.0,120,179,6.0,0.0
15064,82.0,0,59,1.0,0.0
15065,70.0,0,59,1.0,0.0
15066,58.0,0,59,4.0,0.0
15067,50.0,0,59,4.0,0.0
15068,82.0,0,59,0.0,0.0
15069,62.0,0,59,2.0,0.0
15070,70.0,0,59,2.0,0.0
15071,46.0,0,119,3.0,0.0
15072,82.0,0,299,1.0,0.0
15073,62.0,0,299,2.0,0.0
15074,70.0,0,299,2.0,0.0
15075,70.0,0,299,1.0,0.0
15076,81.0,45,119,9.0,0.0
15077,50.0,0,299,4.0,0.0
15078,58.0,0,299,4.0,0.0
15079,58.0,0,119,3.0,0.0
15080,82.0,0,299,0.0,0.0
15081,58.0,135,164,6.0,0.0
15082,35.0,60,119,9.0,0.0
15083,49.0,0,119,9.0,0.0
15084,34.0,0,119,3.0,0.0
15085,46.0,0,119,3.0,0.0
15086,58.0,0,119,6.0,0.0
15087,81.0,0,119,9.0,0.0
15088,84.0,0,59,0.0,0.0
15089,60.0,0,59,6.0,0.0
15090,81.0,0,59,1.0,0.0
15091,53.0,0,59,4.0,0.0
15092,60.0,0,59,4.0,0.0
15093,84.0,0,59,1.0,0.0
15094,72.0,120,59,2.0,0.0
15095,65.0,0,59,2.0,0.0
15096,62.0,0,179,6.0,0.0
15097,46.0,0,119,3.0,0.0
15098,62.0,0,299,4.0,0.0
15099,81.0,0,119,9.0,0.0
15100,58.0,0,119,3.0,0.0
15101,70.0,0,299,2.0,0.0
15102,86.0,0,299,1.0,0.0
15103,82.0,60,299,1.0,0.0
15104,70.0,60,119,5.0,0.0
15105,58.0,0,299,4.0,0.0
15106,74.0,0,299,2.0,0.0
15107,86.0,0,299,0.0,0.0
15108,70.0,120,59,5.0,0.0
15109,41.0,0,119,3.0,0.0
15110,62.0,0,179,6.0,0.0
15111,35.0,0,119,9.0,0.0
15112,65.0,0,119,5.0,0.0
15113,49.0,0,119,9.0,0.0
15114,81.0,0,119,9.0,0.0
15115,53.0,0,119,3.0,0.0
15116,86.0,0,59,0.0,0.0
15117,86.0,0,59,1.0,0.0
15118,74.0,0,59,2.0,0.0
15119,62.0,0,59,4.0,0.0
15120,70.0,120,59,2.0,0.0
15121,82.0,0,59,1.0,0.0
15122,58.0,0,59,4.0,0.0
15123,84.0,0,299,1.0,0.0
15124,60.0,120,179,6.0,0.0
15125,84.0,0,299,0.0,0.0
15126,81.0,0,119,9.0,0.0
15127,65.0,0,119,3.0,0.0
15128,81.0,0,299,1.0,0.0
15129,69.0,0,299,2.0,0.0
15130,72.0,0,299,2.0,0.0
15131,53.0,60,119,3.0,0.0
15132,57.0,0,299,4.0,0.0
15133,60.0,0,299,4.0,0.0
15134,81.0,0,119,9.0,0.0
15135,49.0,0,119,9.0,0.0
15136,60.0,0,119,6.0,0.0
15137,35.0,60,119,9.0,0.0
15138,53.0,0,119,3.0,0.0
15139,41.0,0,119,3.0,0.0
15140,82.0,0,59,0.0,0.0
15141,74.0,0,59,1.0,0.0
15142,58.0,120,59,6.0,0.0
15143,50.0,0,59,4.0,0.0
15144,58.0,0,59,4.0,0.0
15145,70.0,0,59,2.0,0.0
15146,62.0,0,59,2.0,0.0
15147,82.0,0,59,1.0,0.0
15148,65.0,0,119,5.0,0.0
15149,84.0,0,299,0.0,0.0
15150,72.0,0,299,2.0,0.0
15151,53.0,0,119,3.0,0.0
15152,65.0,0,299,2.0,0.0
15153,60.0,0,299,4.0,0.0
15154,53.0,60,299,4.0,0.0
15155,81.0,0,299,1.0,0.0
15156,84.0,0,299,1.0,0.0
15157,60.0,45,119,6.0,0.0
15158,65.0,0,119,3.0,0.0
15159,81.0,0,119,9.0,0.0
15160,65.0,105,59,5.0,0.0
15161,53.0,15,44,6.0,0.0
15162,34.0,0,119,3.0,0.0
15163,46.0,0,119,3.0,0.0
15164,62.0,15,104,6.0,0.0
15165,49.0,0,119,9.0,0.0
15166,81.0,0,119,9.0,0.0
15167,35.0,0,119,9.0,0.0
15168,70.0,0,119,5.0,0.0
15169,82.0,0,59,1.0,0.0
15170,74.0,0,59,2.0,0.0
15171,70.0,0,59,2.0,0.0
15172,86.0,0,59,0.0,0.0
15173,86.0,0,59,1.0,0.0
15174,62.0,120,59,4.0,0.0
15175,58.0,0,59,4.0,0.0
15176,98.0,0,299,0.0,0.0
15177,58.0,0,119,3.0,0.0
15178,62.0,0,299,4.0,0.0
15179,74.0,0,299,2.0,0.0
15180,70.0,0,299,2.0,0.0
15181,81.0,0,119,9.0,0.0
15182,58.0,0,119,6.0,0.0
15183,46.0,180,119,3.0,0.0
15184,58.0,0,299,4.0,0.0
15185,86.0,0,299,1.0,0.0
15186,82.0,0,299,1.0,0.0
15187,62.0,0,119,6.0,0.0
15188,46.0,60,119,3.0,0.0
15189,49.0,0,119,9.0,0.0
15190,81.0,0,119,9.0,0.0
15191,35.0,0,119,9.0,0.0
15192,34.0,0,119,3.0,0.0
15193,75.0,0,59,2.0,0.0
15194,72.0,0,59,2.0,0.0
15195,75.0,0,59,1.0,0.0
15196,84.0,0,59,1.0,0.0
15197,99.0,120,59,0.0,0.0
15198,60.0,0,59,4.0,0.0
15199,63.0,0,59,4.0,0.0
15200,74.0,0,299,2.0,0.0
15201,77.0,0,299,2.0,0.0
15202,77.0,0,299,1.0,0.0
15203,86.0,0,299,1.0,0.0
15204,46.0,180,119,3.0,0.0
15205,58.0,0,119,6.0,0.0
15206,101.0,0,299,0.0,0.0
15207,65.0,60,299,4.0,0.0
15208,58.0,0,119,3.0,0.0
15209,62.0,0,299,4.0,0.0
15210,81.0,0,119,9.0,0.0
15211,49.0,0,119,9.0,0.0
15212,65.0,0,119,6.0,0.0
15213,35.0,0,119,9.0,0.0
15214,81.0,0,119,9.0,0.0
15215,41.0,0,119,3.0,0.0
15216,53.0,0,119,3.0,0.0
15217,86.0,0,59,1.0,0.0
15218,65.0,0,59,4.0,0.0
15219,62.0,0,59,4.0,0.0
15220,77.0,120,59,2.0,0.0
15221,74.0,0,59,2.0,0.0
15222,53.0,0,59,6.0,0.0
15223,101.0,0,59,0.0,0.0
15224,77.0,0,59,1.0,0.0
15225,84.0,60,299,1.0,0.0
15226,77.0,0,299,1.0,0.0
15227,72.0,0,299,2.0,0.0
15228,99.0,0,299,0.0,0.0
15229,81.0,60,119,9.0,0.0
15230,75.0,0,299,2.0,0.0
15231,60.0,0,299,4.0,0.0
15232,63.0,0,299,4.0,0.0
15233,45.0,0,119,3.0,0.0
15234,57.0,0,119,3.0,0.0
15235,57.0,0,119,6.0,0.0
15236,48.0,120,59,3.0,0.0
15237,60.0,0,59,6.0,0.0
15238,60.0,0,59,3.0,0.0
15239,49.0,0,119,9.0,0.0
15240,65.0,0,119,3.0,0.0
15241,81.0,0,119,9.0,0.0
15242,53.0,0,119,3.0,0.0
15243,35.0,0,119,9.0,0.0
15244,65.0,0,119,6.0,0.0
15245,62.0,120,59,4.0,0.0
15246,58.0,0,59,4.0,0.0
15247,98.0,0,59,0.0,0.0
15248,86.0,0,59,1.0,0.0
15249,41.0,0,59,3.0,0.0
15250,74.0,0,59,2.0,0.0
15251,70.0,0,59,2.0,0.0
15252,77.0,0,59,1.0,0.0
15253,53.0,0,59,6.0,0.0
15254,53.0,0,59,3.0,0.0
15255,55.0,0,119,3.0,0.0
15256,96.0,0,299,0.0,0.0
15257,81.0,0,119,9.0,0.0
15258,53.0,0,299,4.0,0.0
15259,84.0,60,299,1.0,0.0
15260,72.0,0,299,2.0,0.0
15261,65.0,0,299,2.0,0.0
15262,60.0,0,299,4.0,0.0
15263,55.0,60,119,6.0,0.0
15264,77.0,0,299,1.0,0.0
15265,43.0,0,119,3.0,0.0
15266,57.0,0,59,6.0,0.0
15267,57.0,120,59,3.0,0.0
15268,45.0,0,59,3.0,0.0
15269,49.0,0,119,9.0,0.0
15270,81.0,0,119,9.0,0.0
15271,35.0,0,119,9.0,0.0
15272,34.0,0,119,3.0,0.0
15273,46.0,0,119,3.0,0.0
15274,70.0,0,119,5.0,0.0
15275,58.0,0,119,6.0,0.0
15276,77.0,0,59,1.0,0.0
15277,82.0,0,59,1.0,0.0
15278,62.0,0,59,2.0,0.0
15279,50.0,120,59,4.0,0.0
15280,58.0,0,59,4.0,0.0
15281,70.0,0,59,2.0,0.0
15282,94.0,0,59,0.0,0.0
15283,94.0,0,299,0.0,0.0
15284,50.0,0,299,4.0,0.0
15285,53.0,180,119,6.0,0.0
15286,58.0,0,299,4.0,0.0
15287,62.0,0,299,2.0,0.0
15288,77.0,0,299,1.0,0.0
15289,81.0,0,119,9.0,0.0
15290,46.0,0,119,3.0,0.0
15291,58.0,0,119,3.0,0.0
15292,82.0,0,299,1.0,0.0
15293,70.0,0,299,2.0,0.0
15294,81.0,60,119,9.0,0.0
15295,35.0,0,119,9.0,0.0
15296,49.0,0,119,9.0,0.0
15297,62.0,0,119,6.0,0.0
15298,34.0,0,119,3.0,0.0
15299,46.0,0,119,3.0,0.0
15300,65.0,0,59,2.0,0.0
15301,72.0,0,59,2.0,0.0
15302,96.0,120,59,0.0,0.0
15303,53.0,0,59,4.0,0.0
15304,60.0,0,59,4.0,0.0
15305,84.0,0,59,1.0,0.0
15306,81.0,0,59,1.0,0.0
15307,58.0,0,119,6.0,0.0
15308,62.0,0,299,4.0,0.0
15309,58.0,0,299,4.0,0.0
15310,81.0,0,119,9.0,0.0
15311,74.0,0,299,2.0,0.0
15312,70.0,0,299,2.0,0.0
15313,70.0,0,119,5.0,0.0
15314,98.0,0,299,0.0,0.0
15315,58.0,0,119,3.0,0.0
15316,82.0,0,299,1.0,0.0
15317,46.0,60,119,3.0,0.0
15318,86.0,0,299,1.0,0.0
15319,70.0,120,59,5.0,0.0
15320,65.0,30,119,6.0,0.0
15321,53.0,0,119,3.0,0.0
15322,41.0,0,119,3.0,0.0
15323,49.0,0,119,9.0,0.0
15324,35.0,0,119,9.0,0.0
15325,81.0,0,119,9.0,0.0
15326,65.0,0,119,5.0,0.0
15327,72.0,0,29,2.0,0.0
15328,53.0,0,29,4.0,0.0
15329,81.0,0,29,1.0,0.0
15330,84.0,0,29,1.0,0.0
15331,65.0,90,29,2.0,0.0
15332,60.0,0,29,4.0,0.0
15333,96.0,0,29,0.0,0.0
15334,60.0,0,59,4.0,0.0
15335,72.0,0,59,2.0,0.0
15336,84.0,0,59,1.0,0.0
15337,53.0,0,119,3.0,0.0
15338,65.0,0,119,3.0,0.0
15339,63.0,0,119,6.0,0.0
15340,65.0,0,59,2.0,0.0
15341,81.0,0,59,1.0,0.0
15342,35.0,0,119,9.0,0.0
15343,53.0,60,59,4.0,0.0
15344,49.0,0,119,9.0,0.0
15345,65.0,0,119,5.0,0.0
15346,81.0,30,119,9.0,0.0
15347,96.0,0,59,0.0,0.0
15348,70.0,0,29,2.0,0.0
15349,62.0,0,59,6.0,0.0
15350,62.0,0,29,2.0,0.0
15351,70.0,60,59,5.0,0.0
15352,74.0,0,29,1.0,0.0
15353,82.0,30,29,1.0,0.0
15354,94.0,0,29,0.0,0.0
15355,58.0,0,29,4.0,0.0
15356,50.0,0,29,4.0,0.0
15357,35.0,0,119,9.0,0.0
15358,70.0,0,59,14.0,0.0
15359,81.0,0,119,9.0,0.0
15360,49.0,0,119,9.0,0.0
15361,82.0,0,119,1.0,0.0
15362,62.0,0,119,6.0,0.0
15363,86.0,0,59,12.0,0.0
15364,77.0,0,59,13.0,0.0
15365,94.0,0,119,0.0,0.0
15366,50.0,0,119,4.0,0.0
15367,62.0,0,119,2.0,0.0
15368,70.0,0,119,5.0,0.0
15369,58.0,60,59,15.0,0.0
15370,58.0,0,119,4.0,0.0
15371,74.0,0,119,1.0,0.0
15372,34.0,0,119,3.0,0.0
15373,46.0,30,119,3.0,0.0
15374,70.0,0,119,2.0,0.0
15375,65.0,0,29,15.0,0.0
15376,81.0,0,29,13.0,0.0
15377,84.0,90,29,12.0,0.0
15378,69.0,0,29,14.0,0.0
15379,81.0,0,59,13.0,0.0
15380,65.0,0,59,15.0,0.0
15381,84.0,90,59,12.0,0.0
15382,69.0,0,59,14.0,0.0
15383,74.0,150,29,13.0,0.0
15384,65.0,0,29,15.0,0.0
15385,82.0,0,29,12.0,0.0
15386,70.0,0,29,14.0,0.0
15387,60.0,0,119,6.0,0.0
15388,53.0,0,119,3.0,0.0
15389,69.0,0,119,14.0,0.0
15390,72.0,0,119,13.0,0.0
15391,84.0,0,119,12.0,0.0
15392,81.0,0,119,9.0,0.0
15393,49.0,0,119,9.0,0.0
15394,35.0,0,119,9.0,0.0
15395,65.0,60,119,15.0,0.0
15396,41.0,0,119,3.0,0.0
15397,81.0,120,59,1.0,0.0
15398,72.0,0,59,2.0,0.0
15399,65.0,0,59,2.0,0.0
15400,60.0,0,59,4.0,0.0
15401,96.0,0,59,0.0,0.0
15402,53.0,0,59,4.0,0.0
15403,84.0,0,59,1.0,0.0
15404,53.0,0,119,3.0,0.0
15405,81.0,180,119,9.0,0.0
15406,84.0,0,359,1.0,0.0
15407,81.0,0,359,1.0,0.0
15408,65.0,0,119,3.0,0.0
15409,65.0,0,359,2.0,0.0
15410,60.0,0,359,4.0,0.0
15411,53.0,120,359,4.0,0.0
15412,96.0,0,359,0.0,0.0
15413,72.0,0,359,2.0,0.0
15414,53.0,0,119,6.0,0.0
15415,60.0,0,179,6.0,0.0
15416,49.0,0,119,9.0,0.0
15417,81.0,0,119,9.0,0.0
15418,35.0,0,119,9.0,0.0
15419,53.0,0,119,3.0,0.0
15420,41.0,60,119,3.0,0.0
15421,65.0,0,119,5.0,0.0
15422,82.0,0,119,1.0,0.0
15423,86.0,0,119,1.0,0.0
15424,65.0,0,119,5.0,0.0
15425,46.0,0,119,3.0,0.0
15426,98.0,0,119,0.0,0.0
15427,81.0,0,119,9.0,0.0
15428,58.0,60,119,4.0,0.0
15429,62.0,0,119,4.0,0.0
15430,70.0,0,119,2.0,0.0
15431,74.0,0,119,2.0,0.0
15432,62.0,0,119,6.0,0.0
15433,34.0,0,119,3.0,0.0
15434,70.0,0,59,2.0,0.0
15435,94.0,120,59,0.0,0.0
15436,62.0,0,59,2.0,0.0
15437,82.0,0,59,1.0,0.0
15438,74.0,0,59,1.0,0.0
15439,65.0,0,59,5.0,0.0
15440,58.0,0,59,6.0,0.0
15441,58.0,0,59,4.0,0.0
15442,50.0,0,59,4.0,0.0
15443,49.0,0,119,9.0,0.0
15444,60.0,0,119,6.0,0.0
15445,81.0,0,119,9.0,0.0
15446,35.0,0,119,9.0,0.0
15447,65.0,60,119,5.0,0.0
15448,53.0,0,119,3.0,0.0
15449,41.0,0,119,3.0,0.0
15450,65.0,0,119,2.0,0.0
15451,72.0,0,119,2.0,0.0
15452,81.0,0,119,1.0,0.0
15453,53.0,0,119,4.0,0.0
15454,60.0,0,119,4.0,0.0
15455,96.0,0,119,0.0,0.0
15456,84.0,0,119,1.0,0.0
15457,84.0,0,59,1.0,0.0
15458,81.0,0,59,1.0,0.0
15459,72.0,0,59,2.0,0.0
15460,65.0,0,59,2.0,0.0
15461,60.0,120,59,4.0,0.0
15462,96.0,0,59,0.0,0.0
15463,53.0,0,59,4.0,0.0
15464,81.0,0,119,9.0,0.0
15465,60.0,0,299,4.0,0.0
15466,84.0,0,239,1.0,0.0
15467,81.0,0,239,1.0,0.0
15468,72.0,0,239,2.0,0.0
15469,65.0,0,299,2.0,0.0
15470,53.0,0,119,3.0,0.0
15471,53.0,0,119,6.0,0.0
15472,96.0,60,239,0.0,0.0
15473,53.0,0,299,4.0,0.0
15474,65.0,120,119,3.0,0.0
15475,65.0,0,119,5.0,0.0
15476,53.0,0,119,3.0,0.0
15477,35.0,0,119,9.0,0.0
15478,41.0,0,119,3.0,0.0
15479,81.0,60,119,9.0,0.0
15480,65.0,15,344,6.0,0.0
15481,49.0,0,119,9.0,0.0
15482,82.0,0,59,1.0,0.0
15483,86.0,0,59,1.0,0.0
15484,98.0,0,59,0.0,0.0
15485,74.0,0,59,2.0,0.0
15486,84.0,0,59,1.0,0.0
15487,81.0,60,59,1.0,0.0
15488,63.0,0,59,4.0,0.0
15489,75.0,0,59,2.0,0.0
15490,72.0,0,59,2.0,0.0
15491,99.0,0,59,0.0,0.0
15492,60.0,0,59,4.0,0.0
15493,62.0,0,119,4.0,0.0
15494,58.0,0,119,4.0,0.0
15495,82.0,0,59,1.0,0.0
15496,81.0,0,119,9.0,0.0
15497,46.0,30,119,3.0,0.0
15498,34.0,0,119,3.0,0.0
15499,65.0,0,119,5.0,0.0
15500,98.0,0,59,0.0,0.0
15501,86.0,60,59,1.0,0.0
15502,70.0,0,59,2.0,0.0
15503,74.0,0,59,2.0,0.0
15504,94.0,0,59,0.0,0.0
15505,65.0,0,59,5.0,0.0
15506,70.0,0,29,2.0,0.0
15507,74.0,0,59,1.0,0.0
15508,82.0,60,59,1.0,0.0
15509,50.0,0,59,4.0,0.0
15510,58.0,0,59,4.0,0.0
15511,62.0,15,29,2.0,0.0
15512,72.0,0,59,2.0,0.0
15513,81.0,0,119,9.0,0.0
15514,49.0,0,119,9.0,0.0
15515,53.0,0,119,3.0,0.0
15516,41.0,0,119,3.0,0.0
15517,60.0,0,119,4.0,0.0
15518,35.0,0,119,9.0,0.0
15519,65.0,0,119,2.0,0.0
15520,53.0,0,119,4.0,0.0
15521,84.0,0,59,1.0,0.0
15522,81.0,0,59,1.0,0.0
15523,65.0,60,119,6.0,0.0
15524,65.0,0,119,5.0,0.0
15525,96.0,60,59,0.0,0.0
15526,98.0,0,59,0.0,0.0
15527,86.0,0,59,1.0,0.0
15528,82.0,0,59,1.0,0.0
15529,74.0,0,59,2.0,0.0
15530,75.0,0,59,2.0,0.0
15531,81.0,0,59,1.0,0.0
15532,99.0,0,59,0.0,0.0
15533,84.0,0,59,1.0,0.0
15534,60.0,0,59,4.0,0.0
15535,63.0,0,59,4.0,0.0
15536,72.0,60,59,2.0,0.0
15537,58.0,0,119,4.0,0.0
15538,74.0,60,59,2.0,0.0
15539,98.0,0,59,0.0,0.0
15540,70.0,0,59,2.0,0.0
15541,82.0,0,59,1.0,0.0
15542,81.0,30,119,9.0,0.0
15543,53.0,0,119,6.0,0.0
15544,46.0,0,119,3.0,0.0
15545,86.0,0,59,1.0,0.0
15546,58.0,0,119,3.0,0.0
15547,62.0,0,119,4.0,0.0
15548,94.0,30,29,0.0,0.0
15549,50.0,0,59,4.0,0.0
15550,58.0,0,59,4.0,0.0
15551,62.0,0,29,2.0,0.0
15552,70.0,0,29,2.0,0.0
15553,82.0,60,59,1.0,0.0
15554,74.0,0,59,1.0,0.0
15555,49.0,60,119,9.0,0.0
15556,65.0,0,119,2.0,0.0
15557,53.0,0,119,3.0,0.0
15558,35.0,0,119,9.0,0.0
15559,84.0,0,59,1.0,0.0
15560,81.0,0,59,1.0,0.0
15561,65.0,0,179,6.0,0.0
15562,96.0,60,59,0.0,0.0
15563,53.0,0,119,4.0,0.0
15564,60.0,0,119,4.0,0.0
15565,41.0,0,119,3.0,0.0
15566,81.0,0,119,9.0,0.0
15567,72.0,0,59,2.0,0.0
15568,74.0,0,59,2.0,0.0
15569,86.0,0,59,1.0,0.0
15570,98.0,0,59,0.0,0.0
15571,82.0,0,59,1.0,0.0
15572,60.0,0,59,4.0,0.0
15573,84.0,0,59,1.0,0.0
15574,81.0,0,59,1.0,0.0
15575,63.0,0,59,4.0,0.0
15576,99.0,0,59,0.0,0.0
15577,72.0,0,59,2.0,0.0
15578,75.0,120,59,2.0,0.0
15579,82.0,0,119,1.0,0.0
15580,86.0,0,119,1.0,0.0
15581,70.0,0,119,2.0,0.0
15582,98.0,0,119,0.0,0.0
15583,58.0,0,119,4.0,0.0
15584,62.0,45,119,4.0,0.0
15585,74.0,0,119,2.0,0.0
15586,81.0,0,119,9.0,0.0
15587,62.0,0,119,6.0,0.0
15588,53.0,0,119,3.0,0.0
15589,65.0,0,119,3.0,0.0
15590,72.0,0,119,2.0,0.0
15591,60.0,0,239,4.0,0.0
15592,96.0,0,119,0.0,0.0
15593,84.0,60,119,1.0,0.0
15594,81.0,0,119,1.0,0.0
15595,53.0,60,59,4.0,0.0
15596,69.0,0,119,2.0,0.0
15597,60.0,15,44,6.0,0.0
15598,48.0,0,119,3.0,0.0
15599,58.0,60,119,6.0,0.0
15600,36.0,0,119,3.0,0.0
15601,49.0,0,119,9.0,0.0
15602,35.0,0,119,9.0,0.0
15603,81.0,0,119,9.0,0.0
15604,94.0,0,59,0.0,0.0
15605,82.0,0,59,1.0,0.0
15606,79.0,0,59,1.0,0.0
15607,67.0,0,59,2.0,0.0
15608,70.0,0,59,2.0,0.0
15609,65.0,0,59,2.0,0.0
15610,93.0,60,59,0.0,0.0
15611,69.0,0,59,2.0,0.0
15612,57.0,0,59,6.0,0.0
15613,77.0,0,59,1.0,0.0
15614,81.0,0,59,1.0,0.0
15615,48.0,0,119,3.0,0.0
15616,70.0,0,59,2.0,0.0
15617,58.0,0,119,6.0,0.0
15618,60.0,0,119,4.0,0.0
15619,94.0,0,59,0.0,0.0
15620,67.0,0,59,2.0,0.0
15621,82.0,0,59,1.0,0.0
15622,60.0,0,119,3.0,0.0
15623,79.0,60,59,1.0,0.0
15624,81.0,30,119,9.0,0.0
15625,72.0,0,29,2.0,0.0
15626,96.0,0,29,0.0,0.0
15627,64.0,0,29,2.0,0.0
15628,60.0,60,59,4.0,0.0
15629,76.0,0,29,1.0,0.0
15630,84.0,30,29,1.0,0.0
15631,60.0,0,59,6.0,0.0
15632,65.0,0,119,4.0,0.0
15633,53.0,0,59,2.0,0.0
15634,65.0,60,59,2.0,0.0
15635,63.0,0,179,6.0,0.0
15636,63.0,0,179,3.0,0.0
15637,53.0,0,119,4.0,0.0
15638,89.0,0,59,0.0,0.0
15639,77.0,0,59,1.0,0.0
15640,65.0,0,59,1.0,0.0
15641,81.0,0,119,9.0,0.0
15642,35.0,0,119,9.0,0.0
15643,49.0,0,119,9.0,0.0
15644,51.0,0,179,3.0,0.0
15645,67.0,0,59,2.0,0.0
15646,79.0,0,59,1.0,0.0
15647,67.0,0,59,1.0,0.0
15648,91.0,0,59,0.0,0.0
15649,55.0,60,59,2.0,0.0
15650,81.0,0,59,1.0,0.0
15651,93.0,0,59,0.0,0.0
15652,69.0,0,59,1.0,0.0
15653,65.0,0,59,4.0,0.0
15654,53.0,60,59,4.0,0.0
15655,57.0,0,59,2.0,0.0
15656,69.0,0,59,2.0,0.0
15657,94.0,60,59,0.0,0.0
15658,82.0,0,59,1.0,0.0
15659,70.0,0,59,1.0,0.0
15660,70.0,0,59,2.0,0.0
15661,58.0,0,59,2.0,0.0
15662,81.0,0,119,9.0,0.0
15663,62.0,0,119,3.0,0.0
15664,50.0,0,119,3.0,0.0
15665,65.0,0,119,4.0,0.0
15666,53.0,0,119,4.0,0.0
15667,62.0,45,119,6.0,0.0
15668,60.0,0,59,2.0,0.0
15669,84.0,0,59,1.0,0.0
15670,72.0,0,59,1.0,0.0
15671,96.0,0,59,0.0,0.0
15672,72.0,0,59,2.0,0.0
15673,60.0,0,59,3.0,0.0
15674,65.0,0,59,4.0,0.0
15675,74.0,0,59,1.0,0.0
15676,98.0,0,59,0.0,0.0
15677,53.0,0,59,4.0,0.0
15678,62.0,0,59,2.0,0.0
15679,74.0,120,59,2.0,0.0
15680,86.0,0,59,1.0,0.0
15681,48.0,0,59,3.0,0.0
15682,60.0,15,44,6.0,0.0
15683,74.0,0,119,2.0,0.0
15684,62.0,0,119,2.0,0.0
15685,65.0,0,119,4.0,0.0
15686,70.0,0,119,5.0,0.0
15687,53.0,0,119,4.0,0.0
15688,86.0,0,119,1.0,0.0
15689,74.0,0,119,1.0,0.0
15690,81.0,0,119,9.0,0.0
15691,98.0,0,119,0.0,0.0
15692,35.0,0,119,9.0,0.0
15693,46.0,0,119,3.0,0.0
15694,34.0,60,119,3.0,0.0
15695,49.0,0,119,9.0,0.0
15696,62.0,0,179,6.0,0.0
15697,74.0,0,59,2.0,0.0
15698,58.0,0,59,4.0,0.0
15699,46.0,0,59,4.0,0.0
15700,82.0,120,59,1.0,0.0
15701,86.0,0,59,1.0,0.0
15702,98.0,0,59,0.0,0.0
15703,70.0,0,59,2.0,0.0
15704,98.0,0,299,0.0,0.0
15705,81.0,0,119,9.0,0.0
15706,58.0,0,299,4.0,0.0
15707,46.0,180,119,3.0,0.0
15708,58.0,0,119,3.0,0.0
15709,86.0,0,299,1.0,0.0
15710,82.0,60,299,1.0,0.0
15711,46.0,0,299,4.0,0.0
15712,58.0,0,119,6.0,0.0
15713,74.0,0,299,2.0,0.0
15714,70.0,0,299,2.0,0.0
15715,62.0,0,179,6.0,0.0
15716,49.0,0,119,9.0,0.0
15717,81.0,0,119,9.0,0.0
15718,35.0,0,119,9.0,0.0
15719,44.0,0,119,3.0,0.0
15720,56.0,0,119,3.0,0.0
15721,58.0,0,59,4.0,0.0
15722,99.0,0,59,0.0,0.0
15723,46.0,0,59,4.0,0.0
15724,82.0,0,59,1.0,0.0
15725,84.0,0,59,1.0,0.0
15726,75.0,0,59,2.0,0.0
15727,72.0,120,59,2.0,0.0
15728,68.0,0,119,3.0,0.0
15729,56.0,0,119,3.0,0.0
15730,60.0,0,119,6.0,0.0
15731,101.0,60,299,0.0,0.0
15732,46.0,0,299,4.0,0.0
15733,86.0,120,179,1.0,0.0
15734,82.0,0,299,1.0,0.0
15735,81.0,60,119,9.0,0.0
15736,58.0,0,299,4.0,0.0
15737,74.0,0,179,2.0,0.0
15738,77.0,0,299,2.0,0.0
15739,70.0,0,119,5.0,0.0
15740,70.0,0,59,5.0,0.0
15741,58.0,0,59,6.0,0.0
15742,70.0,0,119,5.0,0.0
15743,63.0,0,179,6.0,0.0
15744,35.0,0,119,9.0,0.0
15745,43.0,0,119,3.0,0.0
15746,55.0,0,119,3.0,0.0
15747,49.0,0,119,9.0,0.0
15748,70.0,120,179,2.0,0.0
15749,81.0,0,119,9.0,0.0
15750,77.0,0,59,1.0,0.0
15751,82.0,0,59,1.0,0.0
15752,58.0,0,59,4.0,0.0
15753,77.0,0,59,2.0,0.0
15754,46.0,0,59,4.0,0.0
15755,101.0,0,59,0.0,0.0
15756,46.0,0,299,4.0,0.0
15757,81.0,0,119,9.0,0.0
15758,99.0,0,299,0.0,0.0
15759,82.0,0,299,1.0,0.0
15760,67.0,0,119,3.0,0.0
15761,63.0,0,119,2.0,0.0
15762,58.0,0,299,4.0,0.0
15763,75.0,0,299,2.0,0.0
15764,63.0,60,119,6.0,0.0
15765,55.0,0,119,3.0,0.0
15766,75.0,0,119,1.0,0.0
15767,77.0,0,59,1.0,0.0
15768,65.0,120,59,2.0,0.0
15769,65.0,0,59,6.0,0.0
15770,39.0,0,119,3.0,0.0
15771,51.0,0,119,3.0,0.0
15772,67.0,120,179,6.0,0.0
15773,35.0,0,119,9.0,0.0
15774,49.0,0,119,9.0,0.0
15775,81.0,0,119,9.0,0.0
15776,79.0,60,119,1.0,0.0
15777,67.0,0,179,2.0,0.0
15778,98.0,0,59,0.0,0.0
15779,46.0,0,59,4.0,0.0
15780,86.0,0,59,1.0,0.0
15781,58.0,0,59,4.0,0.0
15782,79.0,0,59,1.0,0.0
15783,74.0,0,59,2.0,0.0
15784,67.0,0,179,2.0,0.0
15785,72.0,0,299,2.0,0.0
15786,70.0,45,119,5.0,0.0
15787,79.0,120,179,1.0,0.0
15788,81.0,0,119,9.0,0.0
15789,58.0,0,299,4.0,0.0
15790,84.0,0,299,1.0,0.0
15791,67.0,15,164,6.0,0.0
15792,52.0,0,119,3.0,0.0
15793,40.0,0,119,3.0,0.0
15794,96.0,60,299,0.0,0.0
15795,46.0,0,299,4.0,0.0
15796,70.0,0,59,5.0,0.0
15797,41.0,0,119,3.0,0.0
15798,63.0,0,119,2.0,0.0
15799,53.0,0,119,3.0,0.0
15800,75.0,0,119,1.0,0.0
15801,65.0,0,179,6.0,0.0
15802,49.0,0,119,9.0,0.0
15803,35.0,0,119,9.0,0.0
15804,81.0,0,119,9.0,0.0
15805,65.0,0,119,5.0,0.0
15806,70.0,0,59,2.0,0.0
15807,94.0,0,59,0.0,0.0
15808,58.0,0,59,4.0,0.0
15809,62.0,0,59,2.0,0.0
15810,74.0,0,59,1.0,0.0
15811,50.0,0,59,4.0,0.0
15812,82.0,120,59,1.0,0.0
15813,65.0,0,119,3.0,0.0
15814,58.0,0,299,4.0,0.0
15815,74.0,0,299,1.0,0.0
15816,82.0,0,299,1.0,0.0
15817,62.0,0,299,2.0,0.0
15818,65.0,120,179,6.0,0.0
15819,70.0,60,299,2.0,0.0
15820,53.0,0,119,3.0,0.0
15821,94.0,0,299,0.0,0.0
15822,50.0,0,299,4.0,0.0
15823,81.0,60,119,9.0,0.0
15824,53.0,0,119,3.0,0.0
15825,41.0,0,119,3.0,0.0
15826,65.0,60,539,6.0,0.0
15827,81.0,0,119,9.0,0.0
15828,35.0,0,119,9.0,0.0
15829,49.0,0,119,9.0,0.0
15830,60.0,0,59,4.0,0.0
15831,72.0,0,59,2.0,0.0
15832,65.0,0,59,2.0,0.0
15833,53.0,0,59,4.0,0.0
15834,81.0,120,59,1.0,0.0
15835,96.0,0,59,0.0,0.0
15836,84.0,0,59,1.0,0.0
15837,62.0,0,299,4.0,0.0
15838,58.0,0,299,4.0,0.0
15839,74.0,0,299,2.0,0.0
15840,70.0,30,299,2.0,0.0
15841,86.0,0,299,1.0,0.0
15842,82.0,0,299,1.0,0.0
15843,81.0,0,119,9.0,0.0
15844,98.0,0,299,0.0,0.0
15845,53.0,180,119,3.0,0.0
15846,65.0,0,119,3.0,0.0
15847,53.0,0,119,3.0,0.0
15848,81.0,0,119,9.0,0.0
15849,41.0,0,119,3.0,0.0
15850,35.0,0,119,9.0,0.0
15851,49.0,0,119,9.0,0.0
15852,65.0,0,29,2.0,0.0
15853,72.0,0,29,2.0,0.0
15854,81.0,30,29,1.0,0.0
15855,53.0,0,29,4.0,0.0
15856,60.0,0,29,4.0,0.0
15857,84.0,0,29,1.0,0.0
15858,96.0,0,29,0.0,0.0
15859,53.0,0,119,3.0,0.0
15860,84.0,0,59,1.0,0.0
15861,63.0,0,119,6.0,0.0
15862,96.0,0,59,0.0,0.0
15863,81.0,0,119,9.0,0.0
15864,81.0,0,59,1.0,0.0
15865,65.0,0,119,3.0,0.0
15866,35.0,0,119,9.0,0.0
15867,60.0,0,59,4.0,0.0
15868,65.0,0,119,5.0,0.0
15869,49.0,30,119,9.0,0.0
15870,65.0,0,59,2.0,0.0
15871,72.0,60,59,2.0,0.0
15872,53.0,0,59,4.0,0.0
15873,74.0,0,29,1.0,0.0
15874,62.0,0,59,6.0,0.0
15875,94.0,30,29,0.0,0.0
15876,50.0,0,29,4.0,0.0
15877,65.0,60,59,5.0,0.0
15878,70.0,0,29,2.0,0.0
15879,62.0,0,29,2.0,0.0
15880,82.0,0,29,1.0,0.0
15881,58.0,0,29,4.0,0.0
15882,62.0,0,119,6.0,0.0
15883,58.0,0,119,4.0,0.0
15884,50.0,0,119,4.0,0.0
15885,49.0,0,119,9.0,0.0
15886,81.0,0,119,9.0,0.0
15887,74.0,0,119,1.0,0.0
15888,82.0,0,119,1.0,0.0
15889,35.0,0,119,9.0,0.0
15890,70.0,0,119,5.0,0.0
15891,58.0,0,59,15.0,0.0
15892,94.0,0,119,0.0,0.0
15893,46.0,0,119,3.0,0.0
15894,65.0,0,59,14.0,0.0
15895,70.0,30,119,2.0,0.0
15896,34.0,0,119,3.0,0.0
15897,86.0,60,59,12.0,0.0
15898,70.0,0,59,13.0,0.0
15899,62.0,0,119,2.0,0.0
15900,65.0,0,29,15.0,0.0
15901,72.0,0,29,13.0,0.0
15902,84.0,0,29,12.0,0.0
15903,69.0,30,29,14.0,0.0
15904,60.0,60,59,6.0,0.0
15905,60.0,30,119,6.0,0.0
15906,69.0,0,59,14.0,0.0
15907,65.0,0,59,15.0,0.0
15908,84.0,0,59,12.0,0.0
15909,72.0,60,59,13.0,0.0
15910,65.0,0,29,15.0,0.0
15911,82.0,120,59,12.0,0.0
15912,70.0,0,29,14.0,0.0
15913,74.0,30,29,13.0,0.0
15914,60.0,0,119,6.0,0.0
15915,69.0,0,119,14.0,0.0
15916,35.0,0,119,9.0,0.0
15917,49.0,0,119,9.0,0.0
15918,81.0,0,119,9.0,0.0
15919,84.0,60,119,12.0,0.0
15920,65.0,0,119,15.0,0.0
15921,41.0,0,119,3.0,0.0
15922,53.0,0,119,3.0,0.0
15923,72.0,0,119,13.0,0.0
15924,60.0,0,59,4.0,0.0
15925,53.0,0,59,4.0,0.0
15926,65.0,120,59,2.0,0.0
15927,96.0,0,59,0.0,0.0
15928,81.0,0,59,1.0,0.0
15929,84.0,0,59,1.0,0.0
15930,72.0,0,59,2.0,0.0
15931,81.0,0,359,1.0,0.0
15932,53.0,0,119,6.0,0.0
15933,84.0,0,359,1.0,0.0
15934,96.0,0,359,0.0,0.0
15935,60.0,0,359,4.0,0.0
15936,53.0,120,359,4.0,0.0
15937,53.0,0,119,3.0,0.0
15938,65.0,180,119,3.0,0.0
15939,81.0,0,119,9.0,0.0
15940,65.0,0,359,2.0,0.0
15941,72.0,0,359,2.0,0.0
15942,49.0,0,119,9.0,0.0
15943,81.0,0,119,9.0,0.0
15944,41.0,0,119,3.0,0.0
15945,35.0,60,119,9.0,0.0
15946,53.0,0,119,3.0,0.0
15947,60.0,0,179,6.0,0.0
15948,62.0,0,119,6.0,0.0
15949,62.0,0,119,4.0,0.0
15950,58.0,0,119,4.0,0.0
15951,65.0,45,119,5.0,0.0
15952,74.0,0,119,2.0,0.0
15953,98.0,0,119,0.0,0.0
15954,86.0,0,119,1.0,0.0
15955,46.0,0,119,3.0,0.0
15956,81.0,0,119,9.0,0.0
15957,82.0,0,119,1.0,0.0
15958,34.0,0,119,3.0,0.0
15959,70.0,0,119,2.0,0.0
15960,58.0,0,59,4.0,0.0
15961,50.0,0,59,4.0,0.0
15962,82.0,0,59,1.0,0.0
15963,74.0,0,59,1.0,0.0
15964,58.0,15,44,6.0,0.0
15965,65.0,0,59,5.0,0.0
15966,94.0,120,59,0.0,0.0
15967,70.0,0,59,2.0,0.0
15968,62.0,0,59,2.0,0.0
15969,96.0,0,119,0.0,0.0
15970,84.0,0,119,1.0,0.0
15971,49.0,0,119,9.0,0.0
15972,53.0,0,119,3.0,0.0
15973,41.0,0,119,3.0,0.0
15974,65.0,0,119,5.0,0.0
15975,81.0,0,119,1.0,0.0
15976,81.0,0,119,9.0,0.0
15977,35.0,0,119,9.0,0.0
15978,53.0,0,119,4.0,0.0
15979,60.0,60,119,6.0,0.0
15980,60.0,0,119,4.0,0.0
15981,65.0,0,119,2.0,0.0
15982,72.0,0,119,2.0,0.0
15983,84.0,120,59,1.0,0.0
15984,60.0,0,59,4.0,0.0
15985,53.0,0,59,4.0,0.0
15986,96.0,0,59,0.0,0.0
15987,65.0,0,59,2.0,0.0
15988,72.0,0,59,2.0,0.0
15989,81.0,0,59,1.0,0.0
15990,84.0,0,239,1.0,0.0
15991,81.0,0,239,1.0,0.0
15992,96.0,60,239,0.0,0.0
15993,53.0,120,119,6.0,0.0
15994,53.0,0,299,4.0,0.0
15995,53.0,0,119,3.0,0.0
15996,65.0,0,119,3.0,0.0
15997,65.0,0,299,2.0,0.0
15998,60.0,0,299,4.0,0.0
15999,81.0,0,119,9.0,0.0
16000,72.0,0,239,2.0,0.0
16001,81.0,0,119,9.0,0.0
16002,35.0,0,119,9.0,0.0
16003,53.0,0,119,3.0,0.0
16004,41.0,0,119,3.0,0.0
16005,49.0,0,119,9.0,0.0
16006,65.0,0,1259,6.0,0.0
16007,82.0,0,59,1.0,0.0
16008,98.0,0,59,0.0,0.0
16009,74.0,60,59,2.0,0.0
16010,86.0,0,59,1.0,0.0
16011,75.0,0,59,2.0,0.0
16012,72.0,0,59,2.0,0.0
16013,63.0,0,59,4.0,0.0
16014,60.0,0,59,4.0,0.0
16015,99.0,0,59,0.0,0.0
16016,84.0,60,59,1.0,0.0
16017,81.0,0,59,1.0,0.0
16018,70.0,0,59,2.0,0.0
16019,74.0,0,59,2.0,0.0
16020,65.0,0,119,5.0,0.0
16021,82.0,60,59,1.0,0.0
16022,34.0,0,119,3.0,0.0
16023,98.0,0,59,0.0,0.0
16024,81.0,0,119,9.0,0.0
16025,46.0,0,119,3.0,0.0
16026,86.0,0,59,1.0,0.0
16027,62.0,30,119,4.0,0.0
16028,58.0,0,119,4.0,0.0
16029,65.0,60,59,5.0,0.0
16030,82.0,0,29,1.0,0.0
16031,74.0,30,29,1.0,0.0
16032,58.0,0,59,4.0,0.0
16033,62.0,0,59,2.0,0.0
16034,70.0,0,59,2.0,0.0
16035,94.0,0,29,0.0,0.0
16036,50.0,0,59,4.0,0.0
16037,53.0,0,119,3.0,0.0
16038,41.0,60,119,3.0,0.0
16039,96.0,60,59,0.0,0.0
16040,65.0,0,119,5.0,0.0
16041,65.0,0,119,11.0,0.0
16042,53.0,0,119,4.0,0.0
16043,84.0,0,59,1.0,0.0
16044,81.0,0,59,1.0,0.0
16045,53.0,0,119,11.0,0.0
16046,60.0,0,119,4.0,0.0
16047,81.0,0,119,9.0,0.0
16048,35.0,0,119,9.0,0.0
16049,49.0,0,119,9.0,0.0
16050,60.0,0,119,11.0,0.0
16051,72.0,0,59,2.0,0.0
16052,65.0,0,119,2.0,0.0
16053,82.0,0,59,1.0,0.0
16054,86.0,0,59,1.0,0.0
16055,74.0,0,59,2.0,0.0
16056,98.0,0,59,0.0,0.0
16057,75.0,0,59,2.0,0.0
16058,84.0,0,59,1.0,0.0
16059,81.0,60,59,1.0,0.0
16060,60.0,0,59,4.0,0.0
16061,63.0,0,59,4.0,0.0
16062,99.0,0,59,0.0,0.0
16063,72.0,0,59,2.0,0.0
16064,62.0,0,119,4.0,0.0
16065,58.0,0,119,4.0,0.0
16066,86.0,60,59,1.0,0.0
16067,82.0,0,59,1.0,0.0
16068,58.0,0,119,3.0,0.0
16069,46.0,30,119,3.0,0.0
16070,98.0,0,59,0.0,0.0
16071,74.0,0,59,2.0,0.0
16072,53.0,0,119,11.0,0.0
16073,70.0,0,59,2.0,0.0
16074,81.0,0,119,9.0,0.0
16075,50.0,60,59,4.0,0.0
16076,74.0,0,29,1.0,0.0
16077,70.0,0,59,2.0,0.0
16078,82.0,0,29,1.0,0.0
16079,58.0,0,59,4.0,0.0
16080,62.0,0,59,2.0,0.0
16081,94.0,30,29,0.0,0.0
16082,84.0,0,59,1.0,0.0
16083,65.0,60,119,2.0,0.0
16084,72.0,0,59,2.0,0.0
16085,96.0,0,59,0.0,0.0
16086,81.0,60,59,1.0,0.0
16087,81.0,0,119,9.0,0.0
16088,35.0,0,119,9.0,0.0
16089,60.0,0,179,11.0,0.0
16090,65.0,0,179,11.0,0.0
16091,53.0,0,179,11.0,0.0
16092,53.0,0,119,3.0,0.0
16093,53.0,0,119,4.0,0.0
16094,60.0,0,119,4.0,0.0
16095,49.0,0,119,9.0,0.0
16096,41.0,0,119,3.0,0.0
16097,86.0,0,59,1.0,0.0
16098,74.0,0,59,2.0,0.0
16099,98.0,0,59,0.0,0.0
16100,82.0,0,59,1.0,0.0
16101,81.0,0,59,1.0,0.0
16102,99.0,0,59,0.0,0.0
16103,75.0,0,59,2.0,0.0
16104,72.0,0,59,2.0,0.0
16105,60.0,0,59,4.0,0.0
16106,84.0,120,59,1.0,0.0
16107,63.0,0,59,4.0,0.0
16108,70.0,45,119,2.0,0.0
16109,82.0,0,119,1.0,0.0
16110,86.0,0,119,1.0,0.0
16111,58.0,0,119,4.0,0.0
16112,53.0,0,164,11.0,0.0
16113,53.0,0,119,3.0,0.0
16114,65.0,0,119,3.0,0.0
16115,62.0,0,119,11.0,0.0
16116,62.0,0,119,4.0,0.0
16117,58.0,0,119,11.0,0.0
16118,74.0,0,119,2.0,0.0
16119,81.0,0,119,9.0,0.0
16120,98.0,0,119,0.0,0.0
16121,53.0,60,59,4.0,0.0
16122,96.0,60,119,0.0,0.0
16123,60.0,0,239,4.0,0.0
16124,81.0,0,119,1.0,0.0
16125,84.0,0,119,1.0,0.0
16126,57.0,15,44,11.0,0.0
16127,60.0,0,44,11.0,0.0
16128,69.0,0,119,2.0,0.0
16129,72.0,0,119,2.0,0.0
16130,48.0,0,119,3.0,0.0
16131,81.0,0,119,9.0,0.0
16132,58.0,0,119,11.0,0.0
16133,36.0,0,119,3.0,0.0
16134,35.0,0,119,9.0,0.0
16135,48.0,0,179,11.0,0.0
16136,55.0,0,119,11.0,0.0
16137,49.0,0,119,9.0,0.0
16138,82.0,0,59,1.0,0.0
16139,67.0,60,59,2.0,0.0
16140,70.0,0,59,2.0,0.0
16141,94.0,0,59,0.0,0.0
16142,79.0,0,59,1.0,0.0
16143,57.0,0,59,11.0,0.0
16144,53.0,60,59,11.0,0.0
16145,93.0,0,59,0.0,0.0
16146,81.0,0,59,1.0,0.0
16147,69.0,0,59,2.0,0.0
16148,65.0,0,59,2.0,0.0
16149,77.0,0,59,1.0,0.0
16150,67.0,60,59,2.0,0.0
16151,60.0,0,119,4.0,0.0
16152,94.0,0,59,0.0,0.0
16153,48.0,0,119,3.0,0.0
16154,70.0,0,59,2.0,0.0
16155,48.0,60,179,11.0,0.0
16156,67.0,30,119,6.0,0.0
16157,79.0,0,59,1.0,0.0
16158,82.0,0,59,1.0,0.0
16159,60.0,0,119,3.0,0.0
16160,81.0,0,119,9.0,0.0
16161,58.0,0,119,11.0,0.0
16162,64.0,30,29,2.0,0.0
16163,64.0,0,59,6.0,0.0
16164,84.0,0,29,1.0,0.0
16165,76.0,0,29,1.0,0.0
16166,72.0,0,29,2.0,0.0
16167,60.0,0,59,4.0,0.0
16168,96.0,0,29,0.0,0.0
16169,60.0,0,59,11.0,0.0
16170,51.0,0,179,11.0,0.0
16171,77.0,0,59,1.0,0.0
16172,49.0,0,119,9.0,0.0
16173,65.0,0,59,1.0,0.0
16174,65.0,0,479,6.0,0.0
16175,53.0,0,59,2.0,0.0
16176,81.0,0,119,9.0,0.0
16177,51.0,0,179,3.0,0.0
16178,63.0,0,179,3.0,0.0
16179,35.0,0,119,9.0,0.0
16180,89.0,0,59,0.0,0.0
16181,65.0,0,119,4.0,0.0
16182,53.0,60,119,4.0,0.0
16183,63.0,0,179,11.0,0.0
16184,65.0,60,59,2.0,0.0
16185,79.0,0,59,1.0,0.0
16186,91.0,0,59,0.0,0.0
16187,67.0,0,59,2.0,0.0
16188,55.0,0,59,2.0,0.0
16189,67.0,0,59,1.0,0.0
16190,93.0,0,59,0.0,0.0
16191,57.0,0,59,2.0,0.0
16192,81.0,0,59,1.0,0.0
16193,69.0,0,59,2.0,0.0
16194,53.0,60,59,4.0,0.0
16195,65.0,0,59,4.0,0.0
16196,69.0,0,59,1.0,0.0
16197,62.0,0,119,3.0,0.0
16198,50.0,0,119,3.0,0.0
16199,94.0,0,59,0.0,0.0
16200,65.0,0,119,4.0,0.0
16201,82.0,60,59,1.0,0.0
16202,50.0,0,119,11.0,0.0
16203,58.0,0,59,2.0,0.0
16204,53.0,0,119,4.0,0.0
16205,62.0,0,119,11.0,0.0
16206,70.0,0,59,2.0,0.0
16207,81.0,45,119,9.0,0.0
16208,70.0,0,59,1.0,0.0
16209,96.0,0,59,0.0,0.0
16210,72.0,0,59,2.0,0.0
16211,72.0,0,59,1.0,0.0
16212,84.0,0,59,1.0,0.0
16213,60.0,0,59,2.0,0.0
16214,74.0,0,59,2.0,0.0
16215,60.0,0,44,11.0,0.0
16216,74.0,0,59,1.0,0.0
16217,98.0,0,59,0.0,0.0
16218,65.0,0,59,4.0,0.0
16219,62.0,0,59,2.0,0.0
16220,86.0,120,59,1.0,0.0
16221,60.0,0,59,3.0,0.0
16222,48.0,0,59,3.0,0.0
16223,53.0,0,59,4.0,0.0
16224,48.0,0,44,11.0,0.0
16225,35.0,0,119,9.0,0.0
16226,86.0,0,119,1.0,0.0
16227,74.0,0,119,2.0,0.0
16228,70.0,0,119,5.0,0.0
16229,34.0,60,119,3.0,0.0
16230,46.0,0,119,3.0,0.0
16231,53.0,0,119,4.0,0.0
16232,65.0,0,119,4.0,0.0
16233,81.0,0,119,9.0,0.0
16234,62.0,0,119,2.0,0.0
16235,58.0,0,179,11.0,0.0
16236,62.0,0,179,11.0,0.0
16237,98.0,0,119,0.0,0.0
16238,74.0,0,119,1.0,0.0
16239,49.0,0,119,9.0,0.0
16240,74.0,0,59,2.0,0.0
16241,82.0,0,59,1.0,0.0
16242,86.0,120,59,1.0,0.0
16243,70.0,0,59,2.0,0.0
16244,58.0,0,59,4.0,0.0
16245,98.0,0,59,0.0,0.0
16246,46.0,0,59,4.0,0.0
16247,58.0,0,59,6.0,0.0
16248,58.0,0,119,11.0,0.0
16249,46.0,0,119,3.0,0.0
16250,58.0,0,119,3.0,0.0
16251,98.0,0,299,0.0,0.0
16252,46.0,0,119,15.0,0.0
16253,74.0,0,119,12.0,0.0
16254,46.0,0,299,4.0,0.0
16255,58.0,60,299,4.0,0.0
16256,46.0,60,119,11.0,0.0
16257,74.0,0,299,2.0,0.0
16258,60.0,0,119,6.0,0.0
16259,58.0,0,119,15.0,0.0
16260,70.0,0,119,13.0,0.0
16261,82.0,0,299,1.0,0.0
16262,86.0,0,299,1.0,0.0
16263,81.0,0,119,9.0,0.0
16264,65.0,0,119,14.0,0.0
16265,70.0,0,299,2.0,0.0
16266,58.0,120,59,6.0,0.0
16267,56.0,0,179,11.0,0.0
16268,56.0,0,119,3.0,0.0
16269,62.0,0,179,11.0,0.0
16270,58.0,0,179,11.0,0.0
16271,44.0,0,119,3.0,0.0
16272,35.0,0,119,9.0,0.0
16273,60.0,0,119,6.0,0.0
16274,49.0,0,119,9.0,0.0
16275,81.0,0,119,9.0,0.0
16276,58.0,0,59,4.0,0.0
16277,46.0,0,59,4.0,0.0
16278,75.0,0,59,2.0,0.0
16279,58.0,120,59,6.0,0.0
16280,82.0,0,59,1.0,0.0
16281,99.0,0,59,0.0,0.0
16282,72.0,0,59,2.0,0.0
16283,84.0,0,59,1.0,0.0
16284,58.0,0,119,13.0,0.0
16285,70.0,0,119,14.0,0.0
16286,58.0,0,119,11.0,0.0
16287,44.0,0,119,11.0,0.0
16288,65.0,0,119,14.0,0.0
16289,82.0,0,299,1.0,0.0
16290,86.0,0,179,1.0,0.0
16291,58.0,0,299,4.0,0.0
16292,46.0,0,299,4.0,0.0
16293,62.0,0,119,6.0,0.0
16294,74.0,0,119,12.0,0.0
16295,44.0,0,119,15.0,0.0
16296,77.0,0,299,2.0,0.0
16297,56.0,0,119,15.0,0.0
16298,81.0,0,119,9.0,0.0
16299,74.0,0,179,2.0,0.0
16300,56.0,60,119,3.0,0.0
16301,68.0,0,119,3.0,0.0
16302,101.0,0,299,0.0,0.0
16303,70.0,0,119,5.0,0.0
16304,70.0,0,59,5.0,0.0
16305,58.0,120,59,6.0,0.0
16306,81.0,0,119,9.0,0.0
16307,49.0,0,119,9.0,0.0
16308,43.0,0,119,3.0,0.0
16309,55.0,0,119,3.0,0.0
16310,70.0,120,179,2.0,0.0
16311,63.0,0,119,6.0,0.0
16312,55.0,60,119,11.0,0.0
16313,70.0,0,119,5.0,0.0
16314,63.0,0,119,11.0,0.0
16315,58.0,0,119,11.0,0.0
16316,35.0,0,119,9.0,0.0
16317,58.0,0,59,4.0,0.0
16318,46.0,0,59,4.0,0.0
16319,77.0,0,59,1.0,0.0
16320,101.0,0,59,0.0,0.0
16321,58.0,0,59,6.0,0.0
16322,82.0,0,59,1.0,0.0
16323,77.0,0,59,2.0,0.0
16324,63.0,0,119,11.0,0.0
16325,75.0,0,299,2.0,0.0
16326,70.0,0,359,2.0,0.0
16327,75.0,0,119,12.0,0.0
16328,60.0,0,119,6.0,0.0
16329,43.0,0,119,15.0,0.0
16330,55.0,0,119,11.0,0.0
16331,82.0,0,299,1.0,0.0
16332,55.0,0,119,3.0,0.0
16333,75.0,0,119,1.0,0.0
16334,58.0,0,179,11.0,0.0
16335,67.0,60,119,13.0,0.0
16336,58.0,0,299,4.0,0.0
16337,46.0,0,299,4.0,0.0
16338,55.0,0,119,15.0,0.0
16339,70.0,0,119,13.0,0.0
16340,81.0,0,119,9.0,0.0
16341,58.0,0,119,14.0,0.0
16342,99.0,0,299,0.0,0.0
16343,63.0,0,119,3.0,0.0
16344,53.0,0,59,15.0,0.0
16345,41.0,0,59,15.0,0.0
16346,77.0,0,59,1.0,0.0
16347,65.0,0,59,3.0,0.0
16348,53.0,0,59,3.0,0.0
16349,53.0,0,59,11.0,0.0
16350,65.0,120,59,11.0,0.0
16351,62.0,0,59,6.0,0.0
16352,63.0,0,119,6.0,0.0
16353,51.0,0,179,15.0,0.0
16354,39.0,0,179,15.0,0.0
16355,35.0,0,119,9.0,0.0
16356,79.0,0,119,1.0,0.0
16357,49.0,0,119,9.0,0.0
16358,58.0,0,179,11.0,0.0
16359,81.0,60,119,9.0,0.0
16360,67.0,0,179,11.0,0.0
16361,51.0,0,179,11.0,0.0
16362,67.0,0,119,3.0,0.0
16363,51.0,0,119,3.0,0.0
16364,74.0,0,59,2.0,0.0
16365,58.0,120,59,4.0,0.0
16366,46.0,0,59,4.0,0.0
16367,98.0,0,59,0.0,0.0
16368,86.0,0,59,1.0,0.0
16369,65.0,0,59,6.0,0.0
16370,79.0,0,59,1.0,0.0
16371,72.0,0,299,2.0,0.0
16372,58.0,60,299,4.0,0.0
16373,96.0,0,299,0.0,0.0
16374,81.0,0,119,9.0,0.0
16375,46.0,0,299,4.0,0.0
16376,70.0,0,179,2.0,0.0
16377,55.0,0,119,11.0,0.0
16378,40.0,60,119,15.0,0.0
16379,55.0,0,119,13.0,0.0
16380,67.0,0,119,13.0,0.0
16381,67.0,0,119,14.0,0.0
16382,70.0,0,119,14.0,0.0
16383,52.0,0,119,11.0,0.0
16384,70.0,0,119,5.0,0.0
16385,67.0,0,119,6.0,0.0
16386,52.0,0,119,15.0,0.0
16387,67.0,0,119,3.0,0.0
16388,67.0,0,119,11.0,0.0
16389,52.0,0,119,3.0,0.0
16390,84.0,0,299,1.0,0.0
16391,72.0,0,119,12.0,0.0
16392,79.0,120,179,1.0,0.0
16393,70.0,0,59,5.0,0.0
16394,53.0,0,119,11.0,0.0
16395,35.0,0,119,9.0,0.0
16396,81.0,0,119,9.0,0.0
16397,63.0,0,119,2.0,0.0
16398,53.0,0,179,6.0,0.0
16399,49.0,0,119,9.0,0.0
16400,53.0,0,119,3.0,0.0
16401,75.0,0,119,1.0,0.0
16402,70.0,0,119,5.0,0.0
16403,41.0,0,119,3.0,0.0
16404,62.0,0,119,11.0,0.0
16405,65.0,0,119,11.0,0.0
16406,74.0,0,59,1.0,0.0
16407,94.0,0,59,0.0,0.0
16408,66.0,0,59,13.0,0.0
16409,62.0,120,59,2.0,0.0
16410,70.0,0,59,2.0,0.0
16411,82.0,0,59,1.0,0.0
16412,54.0,0,59,14.0,0.0
16413,58.0,0,59,4.0,0.0
16414,50.0,0,59,4.0,0.0
16415,62.0,0,299,2.0,0.0
16416,58.0,0,299,4.0,0.0
16417,62.0,0,119,12.0,0.0
16418,41.0,60,119,15.0,0.0
16419,70.0,60,299,2.0,0.0
16420,94.0,0,299,0.0,0.0
16421,82.0,0,299,1.0,0.0
16422,70.0,0,119,12.0,0.0
16423,55.0,0,119,6.0,0.0
16424,74.0,0,299,1.0,0.0
16425,50.0,0,299,4.0,0.0
16426,53.0,0,119,15.0,0.0
16427,53.0,0,119,11.0,0.0
16428,65.0,0,119,13.0,0.0
16429,53.0,0,119,3.0,0.0
16430,53.0,0,119,14.0,0.0
16431,65.0,0,119,3.0,0.0
16432,81.0,0,119,9.0,0.0
16433,57.0,120,59,6.0,0.0
16434,35.0,0,119,9.0,0.0
16435,81.0,0,119,9.0,0.0
16436,53.0,0,119,3.0,0.0
16437,49.0,0,119,9.0,0.0
16438,41.0,0,119,3.0,0.0
16439,58.0,0,119,6.0,0.0
16440,65.0,0,539,11.0,0.0
16441,53.0,60,539,11.0,0.0
16442,84.0,0,59,1.0,0.0
16443,53.0,0,59,4.0,0.0
16444,72.0,0,59,2.0,0.0
16445,54.0,0,59,14.0,0.0
16446,96.0,0,59,0.0,0.0
16447,60.0,0,59,4.0,0.0
16448,81.0,0,59,1.0,0.0
16449,65.0,0,59,2.0,0.0
16450,60.0,120,59,6.0,0.0
16451,66.0,0,59,13.0,0.0
16452,82.0,0,299,1.0,0.0
16453,53.0,60,119,3.0,0.0
16454,86.0,0,299,1.0,0.0
16455,65.0,0,119,5.0,0.0
16456,82.0,0,119,12.0,0.0
16457,65.0,0,119,3.0,0.0
16458,74.0,0,119,12.0,0.0
16459,53.0,0,119,15.0,0.0
16460,62.0,0,299,4.0,0.0
16461,62.0,0,119,6.0,0.0
16462,81.0,0,119,9.0,0.0
16463,53.0,0,119,14.0,0.0
16464,65.0,0,119,13.0,0.0
16465,58.0,0,299,4.0,0.0
16466,41.0,0,119,15.0,0.0
16467,98.0,30,299,0.0,0.0
16468,70.0,0,299,2.0,0.0
16469,74.0,0,299,2.0,0.0
16470,65.0,0,59,5.0,0.0
16471,63.0,120,59,6.0,0.0
16472,65.0,0,179,6.0,0.0
16473,53.0,0,119,3.0,0.0
16474,41.0,0,119,3.0,0.0
16475,81.0,0,119,9.0,0.0
16476,35.0,0,119,9.0,0.0
16477,49.0,0,119,9.0,0.0
16478,65.0,0,119,5.0,0.0
16479,84.0,0,29,1.0,0.0
16480,81.0,30,29,1.0,0.0
16481,65.0,0,29,2.0,0.0
16482,53.0,0,29,4.0,0.0
16483,60.0,0,29,4.0,0.0
16484,79.0,0,59,13.0,0.0
16485,96.0,0,29,0.0,0.0
16486,72.0,0,29,2.0,0.0
16487,64.0,0,59,14.0,0.0
16488,81.0,0,119,9.0,0.0
16489,62.0,0,119,14.0,0.0
16490,41.0,0,119,15.0,0.0
16491,77.0,0,119,13.0,0.0
16492,96.0,0,59,0.0,0.0
16493,35.0,0,119,9.0,0.0
16494,49.0,0,119,9.0,0.0
16495,57.0,0,119,11.0,0.0
16496,53.0,60,179,11.0,0.0
16497,84.0,0,59,1.0,0.0
16498,81.0,0,59,1.0,0.0
16499,65.0,0,179,6.0,0.0
16500,65.0,0,59,2.0,0.0
16501,65.0,0,119,5.0,0.0
16502,72.0,60,59,2.0,0.0
16503,60.0,0,59,4.0,0.0
16504,53.0,0,59,4.0,0.0
16505,65.0,0,119,3.0,0.0
16506,53.0,30,119,3.0,0.0
16507,72.0,0,119,12.0,0.0
16508,81.0,0,119,12.0,0.0
16509,60.0,0,119,11.0,0.0
16510,53.0,0,119,15.0,0.0
16511,70.0,0,29,2.0,0.0
16512,50.0,0,29,4.0,0.0
16513,94.0,0,29,0.0,0.0
16514,74.0,30,29,1.0,0.0
16515,82.0,0,29,1.0,0.0
16516,58.0,0,59,11.0,0.0
16517,62.0,0,29,2.0,0.0
16518,62.0,0,59,11.0,0.0
16519,58.0,0,29,4.0,0.0
16520,65.0,0,59,5.0,0.0
16521,81.0,0,119,9.0,0.0
16522,35.0,0,119,9.0,0.0
16523,82.0,0,119,1.0,0.0
16524,65.0,0,539,6.0,0.0
16525,74.0,0,119,1.0,0.0
16526,58.0,0,119,5.0,0.0
16527,49.0,0,119,9.0,0.0
16528,94.0,0,119,0.0,0.0
16529,70.0,0,119,2.0,0.0
16530,50.0,0,119,4.0,0.0
16531,62.0,0,119,11.0,0.0
16532,62.0,0,119,2.0,0.0
16533,46.0,0,59,15.0,0.0
16534,58.0,0,59,15.0,0.0
16535,58.0,30,119,4.0,0.0
16536,58.0,0,119,11.0,0.0
16537,34.0,0,119,3.0,0.0
16538,74.0,0,59,13.0,0.0
16539,86.0,0,59,12.0,0.0
16540,62.0,60,59,14.0,0.0
16541,46.0,0,119,3.0,0.0
16542,77.0,0,59,1.0,0.0
16543,75.0,0,29,14.0,0.0
16544,65.0,0,59,1.0,0.0
16545,41.0,0,29,15.0,0.0
16546,74.0,0,59,2.0,0.0
16547,60.0,0,59,11.0,0.0
16548,72.0,0,29,13.0,0.0
16549,101.0,0,59,0.0,0.0
16550,81.0,0,29,13.0,0.0
16551,53.0,0,59,4.0,0.0
16552,65.0,60,59,4.0,0.0
16553,53.0,0,59,11.0,0.0
16554,84.0,0,29,12.0,0.0
16555,77.0,0,59,2.0,0.0
16556,53.0,30,29,15.0,0.0
16557,49.0,0,119,9.0,0.0
16558,81.0,0,119,9.0,0.0
16559,101.0,0,299,0.0,0.0
16560,81.0,60,59,13.0,0.0
16561,77.0,0,299,2.0,0.0
16562,74.0,0,299,2.0,0.0
16563,72.0,0,59,13.0,0.0
16564,35.0,0,119,9.0,0.0
16565,53.0,60,299,4.0,0.0
16566,53.0,0,119,11.0,0.0
16567,41.0,0,59,15.0,0.0
16568,60.0,30,119,11.0,0.0
16569,84.0,0,59,12.0,0.0
16570,77.0,0,299,1.0,0.0
16571,65.0,0,299,1.0,0.0
16572,53.0,0,59,15.0,0.0
16573,75.0,0,59,14.0,0.0
16574,65.0,0,299,4.0,0.0
16575,46.0,0,29,15.0,0.0
16576,58.0,0,29,15.0,0.0
16577,82.0,0,29,13.0,0.0
16578,74.0,0,29,14.0,0.0
16579,74.0,0,29,13.0,0.0
16580,82.0,150,29,12.0,0.0
16581,82.0,0,119,12.0,0.0
16582,46.0,0,119,15.0,0.0
16583,34.0,0,119,3.0,0.0
16584,35.0,0,119,9.0,0.0
16585,81.0,0,119,9.0,0.0
16586,49.0,0,119,9.0,0.0
16587,46.0,0,119,3.0,0.0
16588,58.0,0,119,15.0,0.0
16589,82.0,0,119,13.0,0.0
16590,74.0,0,119,14.0,0.0
16591,74.0,0,119,13.0,0.0
16592,70.0,0,119,5.0,0.0
16593,75.0,0,59,1.0,0.0
16594,72.0,0,59,2.0,0.0
16595,75.0,0,59,2.0,0.0
16596,99.0,120,59,0.0,0.0
16597,60.0,0,59,4.0,0.0
16598,63.0,0,59,4.0,0.0
16599,84.0,0,59,1.0,0.0
16600,65.0,0,119,13.0,0.0
16601,82.0,0,299,1.0,0.0
16602,86.0,60,299,1.0,0.0
16603,98.0,0,299,0.0,0.0
16604,58.0,0,119,15.0,0.0
16605,58.0,0,119,14.0,0.0
16606,65.0,0,119,14.0,0.0
16607,70.0,0,119,14.0,0.0
16608,58.0,0,119,6.0,0.0
16609,74.0,0,119,12.0,0.0
16610,58.0,0,299,4.0,0.0
16611,65.0,0,119,12.0,0.0
16612,70.0,0,299,2.0,0.0
16613,74.0,0,299,2.0,0.0
16614,58.0,0,119,13.0,0.0
16615,62.0,0,299,4.0,0.0
16616,46.0,0,119,15.0,0.0
16617,74.0,0,119,13.0,0.0
16618,58.0,0,119,12.0,0.0
16619,46.0,0,119,3.0,0.0
16620,58.0,0,119,3.0,0.0
16621,81.0,0,119,9.0,0.0
16622,46.0,0,119,3.0,0.0
16623,34.0,0,119,3.0,0.0
16624,58.0,120,179,11.0,0.0
16625,35.0,0,119,9.0,0.0
16626,49.0,0,119,9.0,0.0
16627,82.0,0,59,1.0,0.0
16628,74.0,0,59,2.0,0.0
16629,94.0,0,59,0.0,0.0
16630,82.0,0,59,2.0,0.0
16631,74.0,0,59,1.0,0.0
16632,58.0,0,59,4.0,0.0
16633,46.0,0,59,4.0,0.0
16634,74.0,0,179,2.0,0.0
16635,70.0,0,119,12.0,0.0
16636,46.0,0,119,15.0,0.0
16637,58.0,0,119,15.0,0.0
16638,74.0,120,179,1.0,0.0
16639,82.0,0,299,2.0,0.0
16640,58.0,0,119,11.0,0.0
16641,77.0,0,119,12.0,0.0
16642,82.0,0,299,1.0,0.0
16643,65.0,0,119,14.0,0.0
16644,74.0,0,119,13.0,0.0
16645,82.0,0,119,13.0,0.0
16646,58.0,0,119,14.0,0.0
16647,70.0,0,119,14.0,0.0
16648,62.0,60,119,12.0,0.0
16649,58.0,0,119,3.0,0.0
16650,65.0,0,119,13.0,0.0
16651,46.0,0,119,3.0,0.0
16652,46.0,0,299,4.0,0.0
16653,58.0,0,299,4.0,0.0
16654,70.0,0,119,5.0,0.0
16655,94.0,0,299,0.0,0.0
16656,70.0,0,59,5.0,0.0
16657,51.0,0,119,3.0,0.0
16658,79.0,0,119,2.0,0.0
16659,70.0,60,119,5.0,0.0
16660,39.0,0,119,3.0,0.0
16661,81.0,0,119,9.0,0.0
16662,35.0,0,119,9.0,0.0
16663,79.0,0,119,1.0,0.0
16664,49.0,0,119,9.0,0.0
16665,63.0,0,179,11.0,0.0
16666,27.0,0,119,3.0,0.0
16667,67.0,0,179,11.0,0.0
16668,77.0,120,59,1.0,0.0
16669,80.0,0,59,1.0,0.0
16670,77.0,0,59,2.0,0.0
16671,80.0,0,59,2.0,0.0
16672,63.0,0,59,4.0,0.0
16673,92.0,0,59,0.0,0.0
16674,75.0,0,299,1.0,0.0
16675,67.0,0,119,11.0,0.0
16676,63.0,0,119,11.0,0.0
16677,51.0,0,119,3.0,0.0
16678,63.0,0,119,3.0,0.0
16679,63.0,0,299,4.0,0.0
16680,51.0,0,119,15.0,0.0
16681,79.0,0,299,2.0,0.0
16682,67.0,0,119,14.0,0.0
16683,75.0,0,299,2.0,0.0
16684,70.0,0,119,13.0,0.0
16685,39.0,0,119,15.0,0.0
16686,79.0,0,299,1.0,0.0
16687,39.0,0,119,3.0,0.0
16688,79.0,0,119,12.0,0.0
16689,70.0,180,119,12.0,0.0
16690,63.0,0,119,13.0,0.0
16691,63.0,0,119,12.0,0.0
16692,91.0,0,299,0.0,0.0
16693,79.0,0,119,13.0,0.0
16694,58.0,0,119,14.0,0.0
16695,51.0,0,119,14.0,0.0
16696,39.0,0,119,3.0,0.0
16697,49.0,0,119,9.0,0.0
16698,81.0,0,119,9.0,0.0
16699,27.0,60,119,3.0,0.0
16700,67.0,0,299,6.0,0.0
16701,51.0,0,119,3.0,0.0
16702,63.0,0,179,11.0,0.0
16703,67.0,0,179,11.0,0.0
16704,35.0,0,119,9.0,0.0
16705,63.0,0,59,4.0,0.0
16706,67.0,120,59,2.0,0.0
16707,75.0,0,59,2.0,0.0
16708,99.0,0,59,0.0,0.0
16709,75.0,0,59,1.0,0.0
16710,79.0,0,59,1.0,0.0
16711,60.0,0,119,14.0,0.0
16712,67.0,0,119,14.0,0.0
16713,51.0,0,119,3.0,0.0
16714,67.0,0,119,11.0,0.0
16715,67.0,0,119,3.0,0.0
16716,72.0,0,119,13.0,0.0
16717,39.0,0,119,3.0,0.0
16718,99.0,0,119,0.0,0.0
16719,72.0,0,119,1.0,0.0
16720,63.0,0,299,4.0,0.0
16721,51.0,45,119,15.0,0.0
16722,39.0,0,119,15.0,0.0
16723,51.0,0,119,11.0,0.0
16724,84.0,0,119,12.0,0.0
16725,79.0,0,119,1.0,0.0
16726,70.0,0,119,5.0,0.0
16727,63.0,0,119,11.0,0.0
16728,72.0,0,119,2.0,0.0
16729,75.0,0,119,2.0,0.0
16730,63.0,15,44,6.0,0.0
16731,75.0,0,119,1.0,0.0
16732,84.0,0,119,1.0,0.0
16733,96.0,0,119,0.0,0.0
16734,72.0,60,59,2.0,0.0
16735,84.0,60,119,2.0,0.0
16736,70.0,0,59,5.0,0.0
16737,75.0,0,59,2.0,0.0
16738,65.0,0,179,11.0,0.0
16739,35.0,0,119,9.0,0.0
16740,63.0,0,59,6.0,0.0
16741,41.0,0,119,3.0,0.0
16742,53.0,0,119,3.0,0.0
16743,49.0,0,119,9.0,0.0
16744,29.0,0,119,3.0,0.0
16745,81.0,0,119,9.0,0.0
16746,53.0,120,179,11.0,0.0
16747,65.0,0,119,5.0,0.0
16748,82.0,0,59,2.0,0.0
16749,94.0,60,59,0.0,0.0
16750,74.0,0,59,1.0,0.0
16751,62.0,0,59,6.0,0.0
16752,82.0,0,59,1.0,0.0
16753,74.0,0,59,2.0,0.0
16754,81.0,0,59,2.0,0.0
16755,60.0,0,59,4.0,0.0
16756,60.0,0,59,6.0,0.0
16757,53.0,0,59,4.0,0.0
16758,93.0,0,59,0.0,0.0
16759,72.0,0,59,1.0,0.0
16760,81.0,0,59,1.0,0.0
16761,72.0,0,59,2.0,0.0
16762,53.0,0,299,4.0,0.0
16763,60.0,0,299,4.0,0.0
16764,84.0,0,119,1.0,0.0
16765,84.0,0,119,2.0,0.0
16766,75.0,0,119,2.0,0.0
16767,41.0,0,119,3.0,0.0
16768,63.0,0,119,6.0,0.0
16769,53.0,0,179,11.0,0.0
16770,53.0,0,119,3.0,0.0
16771,75.0,0,119,1.0,0.0
16772,72.0,0,119,13.0,0.0
16773,81.0,0,119,13.0,0.0
16774,41.0,0,119,15.0,0.0
16775,69.0,0,119,14.0,0.0
16776,53.0,60,119,15.0,0.0
16777,96.0,0,119,0.0,0.0
16778,84.0,0,119,12.0,0.0
16779,65.0,0,119,3.0,0.0
16780,60.0,0,119,14.0,0.0
16781,72.0,0,119,2.0,0.0
16782,81.0,0,119,2.0,0.0
16783,93.0,0,119,0.0,0.0
16784,60.0,0,59,6.0,0.0
16785,81.0,60,119,1.0,0.0
16786,72.0,0,119,1.0,0.0
16787,53.0,0,539,11.0,0.0
16788,41.0,0,119,3.0,0.0
16789,53.0,0,119,3.0,0.0
16790,35.0,60,119,9.0,0.0
16791,29.0,0,119,3.0,0.0
16792,81.0,0,119,9.0,0.0
16793,49.0,0,119,9.0,0.0
16794,60.0,0,59,6.0,0.0
16795,65.0,0,539,11.0,0.0
16796,79.0,0,59,2.0,0.0
16797,70.0,0,59,2.0,0.0
16798,91.0,0,59,0.0,0.0
16799,79.0,0,59,1.0,0.0
16800,58.0,0,59,6.0,0.0
16801,70.0,0,59,1.0,0.0
16802,57.0,0,59,6.0,0.0
16803,77.0,0,59,2.0,0.0
16804,69.0,0,59,1.0,0.0
16805,77.0,0,59,1.0,0.0
16806,89.0,0,59,0.0,0.0
16807,60.0,0,59,4.0,0.0
16808,69.0,0,59,2.0,0.0
16809,53.0,120,59,4.0,0.0
16810,69.0,0,119,14.0,0.0
16811,65.0,0,119,14.0,0.0
16812,53.0,0,119,15.0,0.0
16813,65.0,0,119,3.0,0.0
16814,65.0,0,119,13.0,0.0
16815,60.0,0,119,14.0,0.0
16816,79.0,0,119,1.0,0.0
16817,70.0,0,119,1.0,0.0
16818,70.0,0,119,2.0,0.0
16819,72.0,0,119,13.0,0.0
16820,41.0,60,119,3.0,0.0
16821,81.0,0,119,13.0,0.0
16822,65.0,0,119,5.0,0.0
16823,53.0,0,119,3.0,0.0
16824,53.0,0,179,4.0,0.0
16825,81.0,0,119,12.0,0.0
16826,65.0,0,119,12.0,0.0
16827,72.0,0,119,12.0,0.0
16828,58.0,0,119,6.0,0.0
16829,91.0,0,119,0.0,0.0
16830,41.0,0,119,15.0,0.0
16831,79.0,0,119,2.0,0.0
16832,60.0,0,179,4.0,0.0
16833,93.0,0,59,0.0,0.0
16834,60.0,0,59,6.0,0.0
16835,81.0,0,59,1.0,0.0
16836,72.0,60,59,1.0,0.0
16837,65.0,0,59,5.0,0.0
16838,81.0,0,59,2.0,0.0
16839,72.0,0,59,2.0,0.0
16840,58.0,0,119,3.0,0.0
16841,46.0,0,119,3.0,0.0
16842,70.0,0,119,5.0,0.0
16843,82.0,0,59,2.0,0.0
16844,74.0,0,59,2.0,0.0
16845,94.0,60,59,0.0,0.0
16846,49.0,0,119,9.0,0.0
16847,34.0,0,119,3.0,0.0
16848,58.0,0,119,4.0,0.0
16849,50.0,0,119,4.0,0.0
16850,74.0,0,59,1.0,0.0
16851,82.0,0,59,1.0,0.0
16852,35.0,0,119,9.0,0.0
16853,81.0,60,119,9.0,0.0
16854,62.0,0,59,6.0,0.0
16855,84.0,0,59,2.0,0.0
16856,75.0,0,59,2.0,0.0
16857,63.0,0,59,6.0,0.0
16858,75.0,0,59,1.0,0.0
16859,84.0,0,59,1.0,0.0
16860,96.0,0,59,0.0,0.0
16861,65.0,0,59,6.0,0.0
16862,86.0,0,119,2.0,0.0
16863,77.0,60,119,2.0,0.0
16864,62.0,0,59,4.0,0.0
16865,58.0,0,59,4.0,0.0
16866,77.0,0,119,1.0,0.0
16867,86.0,0,119,1.0,0.0
16868,98.0,0,119,0.0,0.0
16869,35.0,0,119,9.0,0.0
16870,65.0,0,119,13.0,0.0
16871,81.0,0,119,13.0,0.0
16872,72.0,0,119,13.0,0.0
16873,41.0,0,119,3.0,0.0
16874,53.0,0,119,15.0,0.0
16875,53.0,0,119,3.0,0.0
16876,49.0,0,119,9.0,0.0
16877,29.0,0,119,3.0,0.0
16878,65.0,0,179,11.0,0.0
16879,81.0,0,119,9.0,0.0
16880,67.0,0,119,6.0,0.0
16881,60.0,0,119,14.0,0.0
16882,65.0,0,119,14.0,0.0
16883,65.0,0,119,12.0,0.0
16884,81.0,0,119,12.0,0.0
16885,72.0,0,119,12.0,0.0
16886,53.0,0,119,4.0,0.0
16887,53.0,0,179,11.0,0.0
16888,41.0,0,119,15.0,0.0
16889,69.0,0,119,14.0,0.0
16890,65.0,0,119,5.0,0.0
16891,60.0,0,119,4.0,0.0
16892,96.0,0,59,0.0,0.0
16893,84.0,0,59,2.0,0.0
16894,84.0,0,59,1.0,0.0
16895,75.0,60,59,2.0,0.0
16896,75.0,0,59,1.0,0.0
16897,81.0,0,59,1.0,0.0
16898,72.0,0,59,1.0,0.0
16899,65.0,0,59,5.0,0.0
16900,72.0,0,59,2.0,0.0
16901,81.0,0,59,2.0,0.0
16902,60.0,0,59,4.0,0.0
16903,53.0,0,59,4.0,0.0
16904,69.0,60,59,6.0,0.0
16905,93.0,0,59,0.0,0.0
16906,35.0,0,119,9.0,0.0
16907,46.0,0,119,15.0,0.0
16908,81.0,0,119,9.0,0.0
16909,58.0,0,59,3.0,0.0
16910,62.0,0,59,3.0,0.0
16911,34.0,0,119,3.0,0.0
16912,74.0,0,59,2.0,0.0
16913,82.0,0,59,2.0,0.0
16914,94.0,0,59,0.0,0.0
16915,49.0,60,119,9.0,0.0
16916,65.0,0,539,11.0,0.0
16917,70.0,0,119,6.0,0.0
16918,74.0,0,59,13.0,0.0
16919,74.0,0,59,1.0,0.0
16920,82.0,0,59,1.0,0.0
16921,82.0,60,59,12.0,0.0
16922,53.0,0,539,11.0,0.0
16923,50.0,0,119,4.0,0.0
16924,70.0,0,119,5.0,0.0
16925,58.0,0,119,15.0,0.0
16926,58.0,0,119,4.0,0.0
16927,70.0,0,59,14.0,0.0
16928,60.0,0,59,3.0,0.0
16929,96.0,0,59,0.0,0.0
16930,75.0,0,59,13.0,0.0
16931,84.0,0,59,12.0,0.0
16932,75.0,0,59,1.0,0.0
16933,84.0,0,59,1.0,0.0
16934,72.0,0,59,14.0,0.0
16935,84.0,0,59,2.0,0.0
16936,75.0,0,59,2.0,0.0
16937,63.0,0,59,3.0,0.0
16938,62.0,0,59,4.0,0.0
16939,77.0,0,119,2.0,0.0
16940,86.0,60,119,2.0,0.0
16941,65.0,60,59,6.0,0.0
16942,77.0,0,119,13.0,0.0
16943,58.0,0,59,4.0,0.0
16944,62.0,0,119,3.0,0.0
16945,86.0,0,119,12.0,0.0
16946,74.0,0,119,14.0,0.0
16947,98.0,0,119,0.0,0.0
16948,86.0,0,119,1.0,0.0
16949,65.0,0,119,3.0,0.0
16950,77.0,0,119,1.0,0.0
16951,41.0,60,119,15.0,0.0
16952,81.0,0,119,9.0,0.0
16953,67.0,0,119,6.0,0.0
16954,49.0,0,119,9.0,0.0
16955,35.0,0,119,9.0,0.0
16956,29.0,0,119,3.0,0.0
16957,53.0,0,119,15.0,0.0
16958,58.0,0,59,4.0,0.0
16959,62.0,0,59,4.0,0.0
16960,65.0,0,119,5.0,0.0
16961,60.0,0,59,3.0,0.0
16962,96.0,0,59,0.0,0.0
16963,63.0,0,59,3.0,0.0
16964,75.0,0,59,2.0,0.0
16965,84.0,0,59,1.0,0.0
16966,53.0,0,59,4.0,0.0
16967,60.0,0,59,4.0,0.0
16968,72.0,0,59,14.0,0.0
16969,84.0,0,59,12.0,0.0
16970,75.0,0,59,13.0,0.0
16971,84.0,0,59,2.0,0.0
16972,75.0,0,59,1.0,0.0
16973,81.0,0,59,12.0,0.0
16974,69.0,0,59,14.0,0.0
16975,93.0,0,59,0.0,0.0
16976,81.0,60,59,1.0,0.0
16977,72.0,0,59,1.0,0.0
16978,60.0,0,59,4.0,0.0
16979,57.0,0,59,3.0,0.0
16980,60.0,0,59,3.0,0.0
16981,82.0,0,59,2.0,0.0
16982,72.0,0,59,2.0,0.0
16983,69.0,0,59,6.0,0.0
16984,72.0,0,59,13.0,0.0
16985,65.0,0,59,5.0,0.0
16986,53.0,0,59,4.0,0.0
16987,49.0,0,119,9.0,0.0
16988,81.0,0,119,9.0,0.0
16989,58.0,0,119,4.0,0.0
16990,50.0,60,119,4.0,0.0
16991,38.0,0,119,3.0,0.0
16992,74.0,0,119,1.0,0.0
16993,82.0,0,119,1.0,0.0
16994,82.0,0,119,2.0,0.0
16995,62.0,60,59,3.0,0.0
16996,74.0,0,119,2.0,0.0
16997,70.0,0,119,13.0,0.0
16998,50.0,0,59,15.0,0.0
16999,94.0,0,119,0.0,0.0
17000,62.0,0,59,15.0,0.0
17001,70.0,0,119,5.0,0.0
17002,70.0,0,179,6.0,0.0
17003,82.0,0,119,12.0,0.0
17004,67.0,0,119,14.0,0.0
17005,35.0,0,119,9.0,0.0
17006,62.0,0,59,15.0,0.0
17007,50.0,0,59,15.0,0.0
17008,62.0,0,59,3.0,0.0
17009,62.0,0,59,15.0,0.0
17010,50.0,0,59,15.0,0.0
17011,58.0,0,59,2.0,0.0
17012,58.0,0,59,4.0,0.0
17013,58.0,60,59,13.0,0.0
17014,62.0,0,59,3.0,0.0
17015,46.0,0,119,11.0,0.0
17016,62.0,0,59,15.0,0.0
17017,58.0,0,179,4.0,0.0
17018,50.0,0,59,15.0,0.0
17019,62.0,60,59,3.0,0.0
17020,58.0,0,179,2.0,0.0
17021,58.0,0,299,13.0,0.0
17022,58.0,0,119,6.0,0.0
17023,58.0,0,119,11.0,0.0
17024,63.0,0,59,15.0,0.0
17025,63.0,60,59,3.0,0.0
17026,51.0,0,59,15.0,0.0
17027,53.0,0,59,15.0,0.0
17028,65.0,0,59,3.0,0.0
17029,65.0,60,59,15.0,0.0
17030,65.0,0,59,3.0,0.0
17031,53.0,60,59,15.0,0.0
17032,65.0,0,59,15.0,0.0
17033,67.0,0,59,15.0,0.0
17034,67.0,60,59,3.0,0.0
17035,55.0,0,59,15.0,0.0
17036,60.0,0,59,4.0,0.0
17037,53.0,0,59,15.0,0.0
17038,60.0,0,59,2.0,0.0
17039,65.0,60,59,15.0,0.0
17040,60.0,0,59,13.0,0.0
17041,65.0,0,59,3.0,0.0
17042,60.0,0,179,2.0,0.0
17043,60.0,60,179,4.0,0.0
17044,63.0,0,59,15.0,0.0
17045,60.0,0,299,13.0,0.0
17046,51.0,60,59,15.0,0.0
17047,63.0,0,59,3.0,0.0
17048,62.0,0,59,3.0,0.0
17049,62.0,0,59,15.0,0.0
17050,50.0,60,59,15.0,0.0
17051,48.0,0,59,15.0,0.0
17052,60.0,0,59,3.0,0.0
17053,60.0,0,59,15.0,0.0
17054,58.0,0,59,3.0,0.0
17055,58.0,0,59,15.0,0.0
17056,46.0,60,59,15.0,0.0
17057,45.0,30,59,15.0,0.0
17058,57.0,0,59,15.0,0.0
17059,57.0,0,59,3.0,0.0
17060,58.0,0,59,15.0,0.0
17061,62.0,0,59,4.0,0.0
17062,58.0,0,59,3.0,0.0
17063,62.0,0,59,2.0,0.0
17064,46.0,60,59,15.0,0.0
17065,62.0,30,29,13.0,0.0
17066,62.0,60,119,4.0,0.0
17067,59.0,0,59,15.0,0.0
17068,67.0,0,119,2.0,0.0
17069,47.0,0,59,15.0,0.0
17070,59.0,0,59,3.0,0.0
17071,67.0,60,59,13.0,0.0
17072,60.0,0,59,15.0,0.0
17073,60.0,0,59,3.0,0.0
17074,48.0,0,59,15.0,0.0
17075,62.0,0,59,3.0,0.0
17076,65.0,60,59,13.0,0.0
17077,62.0,0,59,15.0,0.0
17078,50.0,0,59,15.0,0.0
17079,65.0,0,59,2.0,0.0
17080,65.0,0,59,4.0,0.0
17081,60.0,0,59,15.0,0.0
17082,63.0,0,119,2.0,0.0
17083,48.0,0,59,15.0,0.0
17084,63.0,0,119,13.0,0.0
17085,63.0,0,119,4.0,0.0
17086,60.0,60,59,3.0,0.0
17087,41.0,60,59,15.0,0.0
17088,53.0,0,59,15.0,0.0
17089,53.0,0,59,3.0,0.0
17090,53.0,0,59,3.0,0.0
17091,53.0,0,59,15.0,0.0
17092,41.0,60,59,15.0,0.0
17093,46.0,60,59,15.0,0.0
17094,62.0,0,119,4.0,0.0
17095,58.0,0,59,3.0,0.0
17096,58.0,0,59,15.0,0.0
17097,62.0,0,119,2.0,0.0
17098,62.0,0,119,13.0,0.0
17099,46.0,60,59,3.0,0.0
17100,34.0,0,59,15.0,0.0
17101,46.0,0,59,15.0,0.0
17102,46.0,0,59,15.0,0.0
17103,46.0,0,59,3.0,0.0
17104,34.0,60,59,15.0,0.0
17105,65.0,60,119,15.0,0.0
17106,65.0,0,119,3.0,0.0
17107,60.0,0,59,13.0,0.0
17108,60.0,0,119,4.0,0.0
17109,53.0,0,119,15.0,0.0
17110,60.0,0,119,2.0,0.0
17111,81.0,60,59,12.0,0.0
17112,72.0,0,59,13.0,0.0
17113,81.0,0,59,12.0,0.0
17114,81.0,60,59,12.0,0.0
17115,53.0,0,59,4.0,0.0
17116,57.0,0,59,2.0,0.0
17117,72.0,0,59,2.0,0.0
17118,72.0,0,59,13.0,0.0
17119,41.0,0,59,4.0,0.0
17120,53.0,0,59,3.0,0.0
17121,53.0,0,59,15.0,0.0
17122,41.0,0,59,15.0,0.0
17123,41.0,0,59,3.0,0.0
17124,53.0,0,299,15.0,0.0
17125,57.0,0,59,13.0,0.0
17126,72.0,0,179,2.0,0.0
17127,81.0,60,59,12.0,0.0
17128,57.0,0,179,2.0,0.0
17129,53.0,0,299,4.0,0.0
17130,41.0,0,299,4.0,0.0
17131,53.0,0,179,3.0,0.0
17132,41.0,0,179,3.0,0.0
17133,41.0,0,299,15.0,0.0
17134,82.0,0,59,12.0,0.0
17135,69.0,60,59,13.0,0.0
17136,84.0,60,59,12.0,0.0
17137,69.0,0,59,13.0,0.0
17138,84.0,60,59,12.0,0.0
17139,58.0,0,59,13.0,0.0
17140,70.0,0,59,13.0,0.0
17141,86.0,60,59,12.0,0.0
17142,41.0,0,59,4.0,0.0
17143,53.0,0,59,4.0,0.0
17144,43.0,0,59,3.0,0.0
17145,84.0,0,59,12.0,0.0
17146,55.0,0,59,15.0,0.0
17147,43.0,0,59,15.0,0.0
17148,70.0,0,59,13.0,0.0
17149,58.0,60,59,2.0,0.0
17150,70.0,0,59,2.0,0.0
17151,55.0,0,59,3.0,0.0
17152,43.0,0,299,3.0,0.0
17153,58.0,0,179,2.0,0.0
17154,70.0,0,179,2.0,0.0
17155,43.0,0,299,15.0,0.0
17156,55.0,60,299,3.0,0.0
17157,55.0,0,299,15.0,0.0
17158,70.0,0,59,13.0,0.0
17159,82.0,60,59,12.0,0.0
17160,53.0,0,299,4.0,0.0
17161,41.0,0,299,4.0,0.0
17162,81.0,0,59,12.0,0.0
17163,70.0,60,59,13.0,0.0
17164,70.0,60,59,13.0,0.0
17165,79.0,0,59,12.0,0.0
17166,70.0,60,59,13.0,0.0
17167,77.0,0,59,12.0,0.0
17168,58.0,0,59,13.0,0.0
17169,76.0,0,59,12.0,0.0
17170,45.0,0,59,3.0,0.0
17171,60.0,0,59,2.0,0.0
17172,72.0,0,59,2.0,0.0
17173,45.0,60,59,15.0,0.0
17174,57.0,0,59,15.0,0.0
17175,77.0,0,59,12.0,0.0
17176,53.0,0,59,4.0,0.0
17177,41.0,0,59,4.0,0.0
17178,57.0,0,59,3.0,0.0
17179,60.0,0,59,13.0,0.0
17180,65.0,60,59,13.0,0.0
17181,50.0,0,119,3.0,0.0
17182,77.0,0,59,12.0,0.0
17183,65.0,0,119,2.0,0.0
17184,41.0,0,119,4.0,0.0
17185,53.0,0,119,4.0,0.0
17186,50.0,0,119,15.0,0.0
17187,77.0,0,119,2.0,0.0
17188,62.0,0,119,15.0,0.0
17189,62.0,0,119,3.0,0.0
17190,79.0,60,59,12.0,0.0
17191,77.0,0,59,13.0,0.0
17192,48.0,0,59,15.0,0.0
17193,60.0,0,59,3.0,0.0
17194,65.0,0,59,2.0,0.0
17195,81.0,0,59,12.0,0.0
17196,48.0,0,59,3.0,0.0
17197,77.0,0,59,2.0,0.0
17198,77.0,0,59,13.0,0.0
17199,60.0,0,59,15.0,0.0
17200,53.0,60,59,4.0,0.0
17201,41.0,0,59,4.0,0.0
17202,72.0,0,119,2.0,0.0
17203,60.0,0,119,4.0,0.0
17204,46.0,0,119,15.0,0.0
17205,58.0,60,119,3.0,0.0
17206,64.0,0,59,13.0,0.0
17207,76.0,0,119,2.0,0.0
17208,58.0,0,119,15.0,0.0
17209,46.0,0,119,3.0,0.0
17210,79.0,60,59,12.0,0.0
17211,76.0,0,59,13.0,0.0
17212,72.0,0,59,12.0,0.0
17213,76.0,0,59,13.0,0.0
17214,72.0,60,59,12.0,0.0
17215,45.0,60,119,3.0,0.0
17216,60.0,0,59,13.0,0.0
17217,77.0,60,59,12.0,0.0
17218,60.0,0,119,4.0,0.0
17219,77.0,0,119,2.0,0.0
17220,45.0,0,119,15.0,0.0
17221,57.0,0,119,3.0,0.0
17222,72.0,0,119,2.0,0.0
17223,57.0,0,119,15.0,0.0
17224,72.0,0,59,13.0,0.0
17225,65.0,0,59,12.0,0.0
17226,72.0,60,59,13.0,0.0
17227,65.0,0,59,12.0,0.0
17228,77.0,0,119,2.0,0.0
17229,58.0,60,59,13.0,0.0
17230,45.0,0,119,3.0,0.0
17231,70.0,0,119,2.0,0.0
17232,57.0,0,119,3.0,0.0
17233,57.0,0,119,15.0,0.0
17234,45.0,0,119,15.0,0.0
17235,77.0,0,59,12.0,0.0
17236,58.0,0,119,4.0,0.0
17237,70.0,60,59,13.0,0.0
17238,65.0,0,59,12.0,0.0
17239,70.0,0,59,13.0,0.0
17240,65.0,60,59,12.0,0.0
17241,70.0,0,119,2.0,0.0
17242,43.0,0,119,3.0,0.0
17243,75.0,0,59,12.0,0.0
17244,75.0,0,119,2.0,0.0
17245,58.0,60,119,4.0,0.0
17246,55.0,0,119,15.0,0.0
17247,58.0,60,59,13.0,0.0
17248,43.0,0,119,15.0,0.0
17249,55.0,0,119,3.0,0.0
17250,63.0,0,59,12.0,0.0
17251,70.0,0,59,13.0,0.0
17252,70.0,0,59,13.0,0.0
17253,63.0,60,59,12.0,0.0
17254,43.0,0,119,15.0,0.0
17255,55.0,0,119,15.0,0.0
17256,69.0,0,119,2.0,0.0
17257,75.0,0,119,2.0,0.0
17258,57.0,60,119,4.0,0.0
17259,60.0,0,119,4.0,0.0
17260,75.0,60,59,12.0,0.0
17261,69.0,0,119,4.0,0.0
17262,57.0,0,59,13.0,0.0
17263,43.0,0,119,3.0,0.0
17264,55.0,0,119,3.0,0.0
17265,69.0,0,59,13.0,0.0
17266,63.0,0,59,12.0,0.0
17267,69.0,60,59,13.0,0.0
17268,63.0,0,59,12.0,0.0
17269,42.0,0,119,3.0,0.0
17270,54.0,60,119,3.0,0.0
17271,69.0,0,119,4.0,0.0
17272,57.0,0,119,4.0,0.0
17273,74.0,60,59,12.0,0.0
17274,74.0,0,119,2.0,0.0
17275,57.0,0,59,13.0,0.0
17276,62.0,0,119,4.0,0.0
17277,42.0,0,119,15.0,0.0
17278,54.0,0,119,15.0,0.0
17279,69.0,0,119,2.0,0.0
17280,50.0,0,119,4.0,0.0
17281,62.0,0,59,12.0,0.0
17282,69.0,0,59,13.0,0.0
17283,62.0,0,59,12.0,0.0
17284,69.0,60,59,13.0,0.0
17285,55.0,0,119,3.0,0.0
17286,74.0,60,59,12.0,0.0
17287,43.0,0,119,15.0,0.0
17288,74.0,0,119,2.0,0.0
17289,55.0,0,119,15.0,0.0
17290,71.0,0,119,2.0,0.0
17291,71.0,0,59,13.0,0.0
17292,43.0,60,119,3.0,0.0
17293,71.0,0,59,13.0,0.0
17294,79.0,0,59,12.0,0.0
17295,67.0,0,59,15.0,0.0
17296,67.0,0,59,14.0,0.0
17297,67.0,0,59,4.0,0.0
17298,71.0,0,59,13.0,0.0
17299,83.0,0,59,0.0,0.0
17300,67.0,0,59,1.0,0.0
17301,81.0,60,59,12.0,0.0
17302,67.0,60,179,1.0,0.0
17303,67.0,0,299,15.0,0.0
17304,67.0,0,299,14.0,0.0
17305,83.0,0,179,0.0,0.0
17306,67.0,0,179,4.0,0.0
17307,71.0,60,59,13.0,0.0
17308,83.0,0,59,12.0,0.0
17309,83.0,0,59,12.0,0.0
17310,72.0,60,59,13.0,0.0
17311,74.0,0,59,13.0,0.0
17312,83.0,0,59,12.0,0.0
17313,74.0,60,59,13.0,0.0
17314,83.0,0,59,12.0,0.0
17315,84.0,0,59,12.0,0.0
17316,76.0,60,59,13.0,0.0
17317,69.0,0,59,15.0,0.0
17318,84.0,0,59,12.0,0.0
17319,69.0,0,59,4.0,0.0
17320,74.0,60,59,13.0,0.0
17321,69.0,0,59,14.0,0.0
17322,84.0,0,59,0.0,0.0
17323,69.0,0,59,1.0,0.0
17324,84.0,0,179,0.0,0.0
17325,69.0,0,179,15.0,0.0
17326,69.0,0,299,14.0,0.0
17327,69.0,0,179,4.0,0.0
17328,84.0,0,59,12.0,0.0
17329,69.0,0,179,1.0,0.0
17330,72.0,60,59,13.0,0.0
17331,84.0,60,59,12.0,0.0
17332,71.0,0,59,13.0,0.0
17333,84.0,0,59,12.0,0.0
17334,69.0,60,59,13.0,0.0
17335,84.0,0,59,12.0,0.0
17336,67.0,60,59,13.0,0.0
17337,69.0,0,59,13.0,0.0
17338,84.0,60,59,12.0,0.0
17339,71.0,0,59,14.0,0.0
17340,86.0,0,59,12.0,0.0
17341,67.0,0,59,4.0,0.0
17342,71.0,60,59,1.0,0.0
17343,86.0,0,59,0.0,0.0
17344,67.0,0,59,13.0,0.0
17345,76.0,0,119,1.0,0.0
17346,86.0,0,59,12.0,0.0
17347,76.0,0,119,14.0,0.0
17348,67.0,0,119,4.0,0.0
17349,67.0,0,59,13.0,0.0
17350,86.0,60,59,0.0,0.0
17351,84.0,0,59,0.0,0.0
17352,84.0,0,59,12.0,0.0
17353,79.0,60,59,13.0,0.0
17354,83.0,0,59,12.0,0.0
17355,83.0,0,59,0.0,0.0
17356,67.0,60,59,4.0,0.0
17357,67.0,0,59,13.0,0.0
17358,74.0,0,59,1.0,0.0
17359,74.0,0,59,14.0,0.0
17360,74.0,0,59,12.0,0.0
17361,86.0,0,59,0.0,0.0
17362,69.0,60,59,13.0,0.0
17363,72.0,0,119,1.0,0.0
17364,72.0,0,119,14.0,0.0
17365,76.0,0,59,12.0,0.0
17366,88.0,60,59,0.0,0.0
17367,62.0,0,59,13.0,0.0
17368,90.0,60,59,0.0,0.0
17369,62.0,0,59,13.0,0.0
17370,78.0,0,59,12.0,0.0
17371,67.0,60,59,13.0,0.0
17372,71.0,0,119,14.0,0.0
17373,79.0,0,59,12.0,0.0
17374,71.0,0,119,1.0,0.0
17375,91.0,0,119,0.0,0.0
17376,79.0,60,59,12.0,0.0
17377,55.0,0,59,13.0,0.0
17378,55.0,60,59,13.0,0.0
17379,86.0,0,59,0.0,0.0
17380,79.0,0,59,12.0,0.0
17381,67.0,60,59,13.0,0.0
17382,79.0,0,119,1.0,0.0
17383,71.0,0,119,14.0,0.0
17384,91.0,0,119,0.0,0.0
17385,79.0,0,59,12.0,0.0
17386,71.0,60,119,2.0,0.0
17387,55.0,0,59,13.0,0.0
17388,79.0,0,59,12.0,0.0
17389,79.0,0,59,1.0,0.0
17390,71.0,0,59,2.0,0.0
17391,86.0,0,59,0.0,0.0
17392,55.0,0,59,13.0,0.0
17393,79.0,60,59,12.0,0.0
17394,91.0,0,119,0.0,0.0
17395,79.0,0,119,1.0,0.0
17396,67.0,0,119,14.0,0.0
17397,86.0,60,59,12.0,0.0
17398,59.0,0,59,13.0,0.0
17399,74.0,0,119,2.0,0.0
17400,86.0,0,59,12.0,0.0
17401,55.0,60,59,13.0,0.0
17402,86.0,0,59,12.0,0.0
17403,74.0,0,59,2.0,0.0
17404,89.0,60,59,0.0,0.0
17405,79.0,0,59,1.0,0.0
17406,55.0,0,59,13.0,0.0
17407,87.0,0,119,0.0,0.0
17408,67.0,0,119,14.0,0.0
17409,67.0,0,119,2.0,0.0
17410,60.0,0,59,13.0,0.0
17411,84.0,60,59,12.0,0.0
17412,55.0,60,59,13.0,0.0
17413,84.0,0,59,12.0,0.0
17414,84.0,0,59,12.0,0.0
17415,55.0,60,59,13.0,0.0
17416,72.0,0,59,1.0,0.0
17417,65.0,0,119,14.0,0.0
17418,83.0,0,59,12.0,0.0
17419,79.0,0,119,1.0,0.0
17420,65.0,0,119,2.0,0.0
17421,62.0,60,59,13.0,0.0
17422,86.0,0,119,0.0,0.0
17423,83.0,0,59,12.0,0.0
17424,55.0,60,59,13.0,0.0
17425,77.0,0,59,1.0,0.0
17426,83.0,0,59,12.0,0.0
17427,55.0,60,59,13.0,0.0
17428,55.0,0,119,14.0,0.0
17429,65.0,60,59,13.0,0.0
17430,86.0,60,119,0.0,0.0
17431,83.0,0,59,12.0,0.0
17432,77.0,0,119,1.0,0.0
17433,68.0,0,119,14.0,0.0
17434,83.0,0,59,12.0,0.0
17435,55.0,0,59,13.0,0.0
17436,62.0,60,59,2.0,0.0
17437,55.0,0,59,13.0,0.0
17438,84.0,0,59,12.0,0.0
17439,84.0,0,119,0.0,0.0
17440,63.0,0,59,13.0,0.0
17441,84.0,60,59,12.0,0.0
17442,68.0,0,119,2.0,0.0
17443,67.0,0,119,14.0,0.0
17444,75.0,0,119,1.0,0.0
17445,55.0,0,119,14.0,0.0
17446,84.0,0,59,12.0,0.0
17447,55.0,60,59,13.0,0.0
17448,55.0,0,59,13.0,0.0
17449,84.0,60,59,12.0,0.0
17450,67.0,0,59,2.0,0.0
17451,55.0,0,119,14.0,0.0
17452,84.0,0,119,0.0,0.0
17453,65.0,0,119,2.0,0.0
17454,65.0,0,119,14.0,0.0
17455,74.0,0,119,1.0,0.0
17456,84.0,60,59,12.0,0.0
17457,62.0,0,59,13.0,0.0
17458,55.0,0,59,13.0,0.0
17459,84.0,60,59,12.0,0.0
17460,84.0,60,59,12.0,0.0
17461,55.0,0,59,13.0,0.0
17462,65.0,0,59,3.0,0.0
17463,67.0,0,119,3.0,0.0
17464,74.0,0,119,1.0,0.0
17465,55.0,0,119,14.0,0.0
17466,83.0,0,119,0.0,0.0
17467,83.0,0,59,12.0,0.0
17468,62.0,60,59,13.0,0.0
17469,65.0,0,119,2.0,0.0
17470,65.0,0,119,14.0,0.0
17471,55.0,60,59,13.0,0.0
17472,83.0,0,59,12.0,0.0
17473,83.0,60,59,12.0,0.0
17474,55.0,0,59,3.0,0.0
17475,55.0,0,59,13.0,0.0
17476,63.0,60,119,2.0,0.0
17477,67.0,60,59,13.0,0.0
17478,60.0,0,119,3.0,0.0
17479,63.0,0,59,14.0,0.0
17480,63.0,0,59,15.0,0.0
17481,63.0,0,59,15.0,0.0
17482,63.0,0,59,14.0,0.0
17483,60.0,0,59,13.0,0.0
17484,60.0,60,59,13.0,0.0
17485,63.0,0,59,15.0,0.0
17486,63.0,0,59,14.0,0.0
17487,84.0,0,59,0.0,0.0
17488,72.0,0,59,1.0,0.0
17489,72.0,0,59,12.0,0.0
17490,84.0,0,179,0.0,0.0
17491,72.0,60,179,1.0,0.0
17492,63.0,60,59,15.0,0.0
17493,60.0,0,59,13.0,0.0
17494,63.0,0,59,14.0,0.0
17495,72.0,0,299,12.0,0.0
17496,62.0,60,59,13.0,0.0
17497,65.0,0,59,15.0,0.0
17498,65.0,0,59,14.0,0.0
17499,67.0,0,59,15.0,0.0
17500,63.0,0,59,13.0,0.0
17501,67.0,0,59,14.0,0.0
17502,67.0,0,59,15.0,0.0
17503,67.0,60,59,14.0,0.0
17504,63.0,0,59,13.0,0.0
17505,68.0,0,59,14.0,0.0
17506,65.0,0,59,13.0,0.0
17507,68.0,60,59,15.0,0.0
17508,74.0,0,59,12.0,0.0
17509,65.0,60,59,13.0,0.0
17510,67.0,0,59,15.0,0.0
17511,67.0,0,59,14.0,0.0
17512,86.0,0,59,0.0,0.0
17513,74.0,0,59,1.0,0.0
17514,65.0,0,59,15.0,0.0
17515,74.0,0,299,12.0,0.0
17516,62.0,60,59,13.0,0.0
17517,86.0,0,179,0.0,0.0
17518,65.0,0,59,14.0,0.0
17519,74.0,0,179,1.0,0.0
17520,63.0,60,59,14.0,0.0
17521,63.0,0,59,15.0,0.0
17522,60.0,0,59,13.0,0.0
17523,59.0,0,59,13.0,0.0
17524,62.0,60,59,14.0,0.0
17525,62.0,0,59,15.0,0.0
17526,60.0,60,59,15.0,0.0
17527,60.0,0,59,14.0,0.0
17528,63.0,0,59,13.0,0.0
17529,59.0,0,59,14.0,0.0
17530,59.0,60,59,15.0,0.0
17531,65.0,0,59,13.0,0.0
17532,75.0,0,59,1.0,0.0
17533,60.0,0,59,14.0,0.0
17534,75.0,0,59,12.0,0.0
17535,63.0,60,59,13.0,0.0
17536,60.0,0,59,15.0,0.0
17537,87.0,0,59,0.0,0.0
17538,80.0,0,119,1.0,0.0
17539,80.0,60,119,12.0,0.0
17540,60.0,60,59,15.0,0.0
17541,63.0,0,59,13.0,0.0
17542,60.0,0,59,14.0,0.0
17543,92.0,0,119,0.0,0.0
17544,65.0,0,59,13.0,0.0
17545,62.0,0,59,15.0,0.0
17546,62.0,0,59,14.0,0.0
17547,79.0,0,59,1.0,0.0
17548,72.0,0,59,13.0,0.0
17549,91.0,0,59,0.0,0.0
17550,79.0,60,59,12.0,0.0
17551,63.0,0,59,15.0,0.0
17552,63.0,0,59,14.0,0.0
17553,72.0,60,59,13.0,0.0
17554,62.0,0,59,14.0,0.0
17555,89.0,0,119,0.0,0.0
17556,62.0,0,119,4.0,0.0
17557,77.0,0,119,1.0,0.0
17558,62.0,0,59,15.0,0.0
17559,77.0,60,119,12.0,0.0
17560,55.0,0,59,14.0,0.0
17561,55.0,0,59,15.0,0.0
17562,71.0,0,59,13.0,0.0
17563,71.0,0,59,2.0,0.0
17564,67.0,0,59,2.0,0.0
17565,55.0,0,59,3.0,0.0
17566,55.0,0,59,15.0,0.0
17567,71.0,0,59,13.0,0.0
17568,55.0,60,59,14.0,0.0
17569,72.0,0,119,2.0,0.0
17570,67.0,0,119,2.0,0.0
17571,60.0,0,119,3.0,0.0
17572,75.0,0,119,1.0,0.0
17573,87.0,0,119,0.0,0.0
17574,55.0,60,59,13.0,0.0
17575,60.0,0,59,15.0,0.0
17576,75.0,60,119,12.0,0.0
17577,60.0,0,119,4.0,0.0
17578,60.0,0,59,14.0,0.0
17579,48.0,0,59,14.0,0.0
17580,48.0,0,59,15.0,0.0
17581,67.0,0,59,13.0,0.0
17582,67.0,60,59,13.0,0.0
17583,67.0,0,59,2.0,0.0
17584,72.0,0,59,2.0,0.0
17585,48.0,0,59,3.0,0.0
17586,48.0,0,59,14.0,0.0
17587,48.0,0,59,15.0,0.0
17588,62.0,60,59,15.0,0.0
17589,70.0,0,119,2.0,0.0
17590,65.0,0,119,2.0,0.0
17591,62.0,60,119,3.0,0.0
17592,65.0,0,59,13.0,0.0
17593,62.0,0,59,14.0,0.0
17594,58.0,0,59,15.0,0.0
17595,58.0,0,59,14.0,0.0
17596,62.0,0,59,13.0,0.0
17597,89.0,60,59,0.0,0.0
17598,58.0,0,59,14.0,0.0
17599,70.0,0,59,2.0,0.0
17600,65.0,0,59,2.0,0.0
17601,62.0,0,59,13.0,0.0
17602,58.0,0,59,15.0,0.0
17603,77.0,0,59,12.0,0.0
17604,58.0,0,59,4.0,0.0
17605,65.0,0,59,4.0,0.0
17606,77.0,0,59,1.0,0.0
17607,65.0,0,59,14.0,0.0
17608,82.0,0,119,1.0,0.0
17609,65.0,60,119,2.0,0.0
17610,86.0,0,119,0.0,0.0
17611,82.0,0,119,12.0,0.0
17612,58.0,0,299,3.0,0.0
17613,74.0,60,59,13.0,0.0
17614,65.0,0,59,15.0,0.0
17615,58.0,0,119,4.0,0.0
17616,65.0,0,119,4.0,0.0
17617,74.0,0,119,2.0,0.0
17618,58.0,0,59,14.0,0.0
17619,58.0,0,59,15.0,0.0
17620,62.0,0,59,13.0,0.0
17621,58.0,0,59,14.0,0.0
17622,62.0,0,59,13.0,0.0
17623,80.0,60,59,12.0,0.0
17624,58.0,0,59,15.0,0.0
17625,58.0,0,59,4.0,0.0
17626,74.0,0,59,2.0,0.0
17627,92.0,0,59,0.0,0.0
17628,77.0,0,59,2.0,0.0
17629,80.0,0,59,1.0,0.0
17630,65.0,0,59,4.0,0.0
17631,79.0,0,119,2.0,0.0
17632,79.0,0,119,12.0,0.0
17633,70.0,0,59,14.0,0.0
17634,79.0,0,119,1.0,0.0
17635,75.0,0,119,2.0,0.0
17636,58.0,0,119,4.0,0.0
17637,63.0,60,119,4.0,0.0
17638,63.0,60,59,15.0,0.0
17639,91.0,0,119,0.0,0.0
17640,67.0,0,59,13.0,0.0
17641,63.0,0,59,13.0,0.0
17642,58.0,0,59,15.0,0.0
17643,58.0,0,59,14.0,0.0
17644,74.0,0,59,2.0,0.0
17645,62.0,0,59,2.0,0.0
17646,70.0,0,59,1.0,0.0
17647,41.0,0,59,15.0,0.0
17648,46.0,0,59,4.0,0.0
17649,58.0,0,59,4.0,0.0
17650,86.0,0,59,0.0,0.0
17651,53.0,0,59,15.0,0.0
17652,62.0,0,59,13.0,0.0
17653,82.0,0,59,1.0,0.0
17654,53.0,0,59,3.0,0.0
17655,41.0,0,59,3.0,0.0
17656,58.0,60,59,14.0,0.0
17657,58.0,0,59,14.0,0.0
17658,46.0,0,119,15.0,0.0
17659,46.0,0,119,4.0,0.0
17660,58.0,0,119,4.0,0.0
17661,77.0,0,119,12.0,0.0
17662,91.0,0,119,0.0,0.0
17663,82.0,0,119,1.0,0.0
17664,46.0,0,119,3.0,0.0
17665,74.0,60,59,13.0,0.0
17666,58.0,0,119,15.0,0.0
17667,67.0,60,119,2.0,0.0
17668,79.0,0,119,2.0,0.0
17669,70.0,0,119,1.0,0.0
17670,58.0,0,119,3.0,0.0
17671,62.0,0,59,13.0,0.0
17672,65.0,0,59,14.0,0.0
17673,56.0,0,59,15.0,0.0
17674,89.0,0,59,0.0,0.0
17675,46.0,0,59,4.0,0.0
17676,62.0,60,59,13.0,0.0
17677,77.0,0,59,2.0,0.0
17678,65.0,0,59,2.0,0.0
17679,44.0,0,59,3.0,0.0
17680,56.0,0,59,3.0,0.0
17681,70.0,0,59,1.0,0.0
17682,82.0,0,59,1.0,0.0
17683,44.0,0,59,15.0,0.0
17684,65.0,0,59,14.0,0.0
17685,58.0,0,59,4.0,0.0
17686,70.0,0,119,1.0,0.0
17687,82.0,0,119,1.0,0.0
17688,55.0,60,59,15.0,0.0
17689,75.0,0,59,13.0,0.0
17690,46.0,0,119,4.0,0.0
17691,43.0,0,59,3.0,0.0
17692,63.0,0,119,2.0,0.0
17693,75.0,0,119,2.0,0.0
17694,58.0,0,119,4.0,0.0
17695,63.0,0,59,14.0,0.0
17696,43.0,0,59,15.0,0.0
17697,55.0,0,59,3.0,0.0
17698,82.0,0,119,12.0,0.0
17699,87.0,0,119,0.0,0.0
17700,44.0,0,59,15.0,0.0
17701,44.0,0,59,3.0,0.0
17702,56.0,0,59,15.0,0.0
17703,65.0,0,59,14.0,0.0
17704,74.0,60,59,13.0,0.0
17705,56.0,0,59,3.0,0.0
17706,67.0,0,59,14.0,0.0
17707,58.0,0,59,3.0,0.0
17708,46.0,0,59,15.0,0.0
17709,75.0,0,59,13.0,0.0
17710,46.0,0,59,3.0,0.0
17711,70.0,0,59,1.0,0.0
17712,82.0,0,59,1.0,0.0
17713,46.0,60,59,4.0,0.0
17714,58.0,0,59,4.0,0.0
17715,75.0,0,59,12.0,0.0
17716,75.0,0,59,2.0,0.0
17717,67.0,0,59,2.0,0.0
17718,58.0,0,59,15.0,0.0
17719,87.0,0,59,0.0,0.0
17720,79.0,0,59,0.0,0.0
17721,67.0,0,179,2.0,0.0
17722,75.0,0,179,2.0,0.0
17723,70.0,0,179,1.0,0.0
17724,58.0,0,299,4.0,0.0
17725,67.0,0,59,14.0,0.0
17726,75.0,0,299,12.0,0.0
17727,67.0,0,299,13.0,0.0
17728,46.0,0,59,15.0,0.0
17729,46.0,0,299,4.0,0.0
17730,79.0,0,179,0.0,0.0
17731,58.0,60,59,15.0,0.0
17732,82.0,60,179,1.0,0.0
17733,87.0,0,179,0.0,0.0
17734,58.0,0,59,3.0,0.0
17735,46.0,0,59,3.0,0.0
17736,68.0,0,59,14.0,0.0
17737,46.0,60,59,3.0,0.0
17738,58.0,0,59,3.0,0.0
17739,58.0,0,59,15.0,0.0
17740,46.0,0,59,15.0,0.0
17741,46.0,0,59,3.0,0.0
17742,46.0,0,59,15.0,0.0
17743,58.0,0,59,3.0,0.0
17744,58.0,0,59,15.0,0.0
17745,70.0,0,59,14.0,0.0
17746,55.0,0,59,14.0,0.0
17747,58.0,0,59,15.0,0.0
17748,46.0,0,59,15.0,0.0
17749,58.0,0,59,3.0,0.0
17750,46.0,60,59,3.0,0.0
17751,60.0,0,59,3.0,0.0
17752,48.0,60,59,3.0,0.0
17753,48.0,0,59,15.0,0.0
17754,60.0,0,59,15.0,0.0
17755,56.0,0,59,14.0,0.0
17756,46.0,0,59,15.0,0.0
17757,55.0,0,59,14.0,0.0
17758,77.0,0,59,12.0,0.0
17759,58.0,0,59,3.0,0.0
17760,58.0,0,59,4.0,0.0
17761,70.0,0,59,1.0,0.0
17762,46.0,0,59,4.0,0.0
17763,82.0,0,59,1.0,0.0
17764,74.0,0,59,2.0,0.0
17765,77.0,0,59,2.0,0.0
17766,58.0,60,59,15.0,0.0
17767,68.0,0,59,13.0,0.0
17768,89.0,0,59,0.0,0.0
17769,86.0,0,59,0.0,0.0
17770,46.0,0,59,3.0,0.0
17771,46.0,0,299,4.0,0.0
17772,82.0,0,179,1.0,0.0
17773,70.0,0,179,1.0,0.0
17774,53.0,60,59,14.0,0.0
17775,58.0,0,299,4.0,0.0
17776,44.0,0,59,15.0,0.0
17777,77.0,0,299,12.0,0.0
17778,56.0,0,59,15.0,0.0
17779,74.0,0,179,2.0,0.0
17780,77.0,0,179,2.0,0.0
17781,68.0,0,119,13.0,0.0
17782,86.0,0,179,0.0,0.0
17783,89.0,0,179,0.0,0.0
17784,44.0,0,59,3.0,0.0
17785,56.0,0,59,3.0,0.0
17786,55.0,0,59,15.0,0.0
17787,43.0,0,59,15.0,0.0
17788,43.0,0,59,3.0,0.0
17789,55.0,60,59,3.0,0.0
17790,51.0,0,59,14.0,0.0
17791,70.0,0,59,13.0,0.0
17792,53.0,0,59,15.0,0.0
17793,53.0,0,59,3.0,0.0
17794,41.0,60,59,3.0,0.0
17795,50.0,0,59,14.0,0.0
17796,41.0,0,59,15.0,0.0
17797,63.0,0,59,14.0,0.0
17798,39.0,60,59,15.0,0.0
17799,51.0,0,59,3.0,0.0
17800,39.0,0,59,3.0,0.0
17801,70.0,0,179,13.0,0.0
17802,51.0,0,59,15.0,0.0
17803,53.0,0,59,3.0,0.0
17804,41.0,0,59,15.0,0.0
17805,56.0,60,59,14.0,0.0
17806,41.0,0,59,3.0,0.0
17807,53.0,0,59,15.0,0.0
17808,79.0,0,59,0.0,0.0
17809,39.0,0,59,3.0,0.0
17810,79.0,0,59,12.0,0.0
17811,79.0,0,59,1.0,0.0
17812,39.0,60,59,15.0,0.0
17813,79.0,0,59,2.0,0.0
17814,51.0,0,59,3.0,0.0
17815,67.0,0,59,2.0,0.0
17816,51.0,0,59,15.0,0.0
17817,91.0,0,59,0.0,0.0
17818,46.0,0,59,4.0,0.0
17819,58.0,0,59,4.0,0.0
17820,55.0,0,59,14.0,0.0
17821,52.0,0,59,15.0,0.0
17822,58.0,0,119,4.0,0.0
17823,40.0,0,59,3.0,0.0
17824,52.0,0,59,3.0,0.0
17825,40.0,60,59,15.0,0.0
17826,60.0,0,119,13.0,0.0
17827,91.0,0,119,0.0,0.0
17828,84.0,0,119,12.0,0.0
17829,46.0,0,119,4.0,0.0
17830,84.0,60,119,0.0,0.0
17831,72.0,0,119,2.0,0.0
17832,79.0,0,119,2.0,0.0
17833,84.0,0,119,1.0,0.0
17834,55.0,0,59,14.0,0.0
17835,56.0,0,59,14.0,0.0
17836,41.0,0,59,3.0,0.0
17837,41.0,0,59,15.0,0.0
17838,53.0,0,59,15.0,0.0
17839,53.0,0,59,3.0,0.0
17840,91.0,0,59,0.0,0.0
17841,43.0,0,59,15.0,0.0
17842,55.0,0,59,3.0,0.0
17843,43.0,0,59,3.0,0.0
17844,72.0,0,59,13.0,0.0
17845,64.0,0,59,14.0,0.0
17846,84.0,0,59,0.0,0.0
17847,79.0,0,59,2.0,0.0
17848,70.0,60,59,2.0,0.0
17849,55.0,0,59,15.0,0.0
17850,58.0,0,59,4.0,0.0
17851,46.0,0,59,4.0,0.0
17852,82.0,0,59,12.0,0.0
17853,82.0,0,59,1.0,0.0
17854,41.0,0,59,15.0,0.0
17855,41.0,0,59,3.0,0.0
17856,68.0,0,119,2.0,0.0
17857,77.0,0,299,2.0,0.0
17858,53.0,60,59,3.0,0.0
17859,89.0,0,119,0.0,0.0
17860,80.0,0,119,1.0,0.0
17861,65.0,0,119,14.0,0.0
17862,53.0,0,59,15.0,0.0
17863,72.0,60,119,13.0,0.0
17864,80.0,0,119,12.0,0.0
17865,41.0,0,59,4.0,0.0
17866,53.0,0,59,4.0,0.0
17867,84.0,0,119,0.0,0.0
17868,36.0,0,59,15.0,0.0
17869,48.0,0,59,15.0,0.0
17870,36.0,0,59,3.0,0.0
17871,60.0,0,59,4.0,0.0
17872,48.0,0,59,3.0,0.0
17873,36.0,0,59,15.0,0.0
17874,48.0,0,59,3.0,0.0
17875,36.0,0,59,3.0,0.0
17876,60.0,0,59,4.0,0.0
17877,48.0,60,59,15.0,0.0
17878,65.0,0,59,14.0,0.0
17879,72.0,0,59,13.0,0.0
17880,65.0,0,59,2.0,0.0
17881,60.0,0,59,3.0,0.0
17882,77.0,0,119,13.0,0.0
17883,79.0,60,119,1.0,0.0
17884,88.0,0,119,0.0,0.0
17885,72.0,0,119,2.0,0.0
17886,60.0,0,59,15.0,0.0
17887,79.0,0,119,12.0,0.0
17888,84.0,0,119,0.0,0.0
17889,72.0,0,119,14.0,0.0
17890,48.0,60,59,3.0,0.0
17891,60.0,0,119,4.0,0.0
17892,48.0,0,59,15.0,0.0
17893,36.0,0,59,15.0,0.0
17894,48.0,0,59,15.0,0.0
17895,48.0,0,59,3.0,0.0
17896,36.0,0,59,3.0,0.0
17897,76.0,0,59,2.0,0.0
17898,48.0,0,59,3.0,0.0
17899,36.0,0,59,3.0,0.0
17900,36.0,0,59,15.0,0.0
17901,70.0,0,59,2.0,0.0
17902,76.0,60,59,13.0,0.0
17903,48.0,0,59,15.0,0.0
17904,60.0,0,59,4.0,0.0
17905,70.0,0,59,14.0,0.0
17906,48.0,60,59,15.0,0.0
17907,60.0,0,59,15.0,0.0
17908,68.0,0,119,14.0,0.0
17909,48.0,0,59,3.0,0.0
17910,60.0,0,59,3.0,0.0
17911,77.0,0,119,13.0,0.0
17912,60.0,0,119,4.0,0.0
17913,68.0,0,119,2.0,0.0
17914,77.0,0,119,2.0,0.0
17915,53.0,0,59,3.0,0.0
17916,53.0,0,59,15.0,0.0
17917,41.0,60,59,3.0,0.0
17918,41.0,0,59,15.0,0.0
17919,80.0,0,59,12.0,0.0
17920,68.0,0,59,1.0,0.0
17921,80.0,0,59,1.0,0.0
17922,53.0,60,59,15.0,0.0
17923,65.0,0,59,4.0,0.0
17924,65.0,0,59,14.0,0.0
17925,89.0,0,59,0.0,0.0
17926,77.0,0,59,0.0,0.0
17927,73.0,0,59,13.0,0.0
17928,73.0,0,59,2.0,0.0
17929,61.0,0,59,2.0,0.0
17930,41.0,0,59,15.0,0.0
17931,56.0,0,59,3.0,0.0
17932,53.0,0,59,4.0,0.0
17933,73.0,0,299,2.0,0.0
17934,70.0,0,119,14.0,0.0
17935,73.0,0,299,13.0,0.0
17936,65.0,0,59,15.0,0.0
17937,65.0,0,119,4.0,0.0
17938,53.0,0,119,4.0,0.0
17939,85.0,60,119,1.0,0.0
17940,73.0,0,119,1.0,0.0
17941,85.0,0,119,12.0,0.0
17942,53.0,60,59,15.0,0.0
17943,61.0,0,119,3.0,0.0
17944,89.0,0,119,0.0,0.0
17945,77.0,0,119,0.0,0.0
17946,61.0,0,299,2.0,0.0
17947,53.0,0,59,15.0,0.0
17948,41.0,0,59,15.0,0.0
17949,60.0,0,59,3.0,0.0
17950,53.0,0,59,4.0,0.0
17951,77.0,0,59,0.0,0.0
17952,65.0,60,59,4.0,0.0
17953,84.0,0,59,12.0,0.0
17954,53.0,0,59,15.0,0.0
17955,68.0,0,59,14.0,0.0
17956,84.0,0,59,1.0,0.0
17957,72.0,0,59,1.0,0.0
17958,41.0,0,59,15.0,0.0
17959,89.0,0,59,0.0,0.0
17960,53.0,60,59,15.0,0.0
17961,67.0,0,119,14.0,0.0
17962,58.0,0,119,3.0,0.0
17963,70.0,0,119,1.0,0.0
17964,82.0,60,119,1.0,0.0
17965,77.0,0,119,0.0,0.0
17966,65.0,0,59,15.0,0.0
17967,82.0,0,119,12.0,0.0
17968,65.0,0,119,4.0,0.0
17969,89.0,0,119,0.0,0.0
17970,53.0,0,119,4.0,0.0
17971,53.0,0,59,15.0,0.0
17972,41.0,0,59,15.0,0.0
17973,68.0,0,59,13.0,0.0
17974,68.0,0,59,2.0,0.0
17975,80.0,0,59,2.0,0.0
17976,65.0,60,59,4.0,0.0
17977,53.0,0,59,15.0,0.0
17978,53.0,0,59,4.0,0.0
17979,41.0,0,59,15.0,0.0
17980,65.0,60,119,4.0,0.0
17981,53.0,0,119,4.0,0.0
17982,53.0,60,59,15.0,0.0
17983,65.0,0,59,15.0,0.0
17984,73.0,0,119,13.0,0.0
17985,56.0,0,119,3.0,0.0
17986,85.0,0,119,2.0,0.0
17987,89.0,0,119,0.0,0.0
17988,77.0,0,119,0.0,0.0
17989,65.0,0,119,14.0,0.0
17990,80.0,0,119,1.0,0.0
17991,80.0,0,119,12.0,0.0
17992,73.0,0,119,2.0,0.0
17993,68.0,0,119,1.0,0.0
17994,41.0,0,59,15.0,0.0
17995,53.0,0,59,15.0,0.0
17996,41.0,0,59,15.0,0.0
17997,53.0,0,59,15.0,0.0
17998,84.0,0,59,2.0,0.0
17999,65.0,0,59,4.0,0.0
18000,72.0,0,59,2.0,0.0
18001,72.0,0,59,13.0,0.0
18002,53.0,60,59,4.0,0.0
18003,67.0,0,59,15.0,0.0
18004,55.0,60,59,15.0,0.0
18005,53.0,0,59,4.0,0.0
18006,65.0,0,59,4.0,0.0
18007,82.0,0,119,2.0,0.0
18008,70.0,60,119,2.0,0.0
18009,70.0,0,119,13.0,0.0
18010,43.0,0,59,15.0,0.0
18011,58.0,0,59,4.0,0.0
18012,55.0,0,59,15.0,0.0
18013,58.0,0,59,3.0,0.0
18014,75.0,0,59,2.0,0.0
18015,43.0,0,59,15.0,0.0
18016,63.0,0,59,2.0,0.0
18017,82.0,0,59,12.0,0.0
18018,70.0,0,59,1.0,0.0
18019,55.0,0,59,15.0,0.0
18020,63.0,60,59,13.0,0.0
18021,67.0,0,59,14.0,0.0
18022,58.0,0,59,4.0,0.0
18023,89.0,0,59,0.0,0.0
18024,77.0,0,59,0.0,0.0
18025,63.0,0,119,3.0,0.0
18026,67.0,60,59,15.0,0.0
18027,63.0,0,299,2.0,0.0
18028,75.0,0,299,2.0,0.0
18029,87.0,0,119,12.0,0.0
18030,63.0,0,119,4.0,0.0
18031,55.0,0,59,15.0,0.0
18032,63.0,0,119,13.0,0.0
18033,75.0,0,119,0.0,0.0
18034,87.0,0,119,0.0,0.0
18035,75.0,0,119,1.0,0.0
18036,72.0,60,119,14.0,0.0
18037,43.0,0,59,15.0,0.0
18038,55.0,0,59,15.0,0.0
18039,43.0,0,59,15.0,0.0
18040,75.0,0,179,13.0,0.0
18041,63.0,0,59,4.0,0.0
18042,73.0,60,59,1.0,0.0
18043,87.0,0,59,0.0,0.0
18044,55.0,0,59,15.0,0.0
18045,70.0,0,179,14.0,0.0
18046,85.0,0,59,12.0,0.0
18047,75.0,0,59,0.0,0.0
18048,61.0,0,59,3.0,0.0
18049,84.0,0,119,12.0,0.0
18050,63.0,0,119,4.0,0.0
18051,72.0,60,119,1.0,0.0
18052,87.0,0,119,0.0,0.0
18053,60.0,0,119,3.0,0.0
18054,75.0,0,119,0.0,0.0
18055,68.0,0,59,15.0,0.0
18056,56.0,60,59,15.0,0.0
18057,44.0,0,59,15.0,0.0
18058,56.0,0,59,15.0,0.0
18059,56.0,0,59,15.0,0.0
18060,60.0,0,179,3.0,0.0
18061,80.0,0,179,2.0,0.0
18062,68.0,60,59,14.0,0.0
18063,63.0,0,59,4.0,0.0
18064,68.0,0,179,2.0,0.0
18065,80.0,0,179,13.0,0.0
18066,44.0,0,59,15.0,0.0
18067,82.0,0,119,12.0,0.0
18068,63.0,0,119,4.0,0.0
18069,51.0,60,59,15.0,0.0
18070,63.0,0,59,15.0,0.0
18071,75.0,0,119,14.0,0.0
18072,87.0,0,119,0.0,0.0
18073,75.0,0,119,0.0,0.0
18074,70.0,0,119,1.0,0.0
18075,51.0,0,59,15.0,0.0
18076,39.0,60,59,15.0,0.0
18077,79.0,0,59,13.0,0.0
18078,73.0,60,59,14.0,0.0
18079,63.0,0,59,4.0,0.0
18080,58.0,0,59,3.0,0.0
18081,79.0,0,59,2.0,0.0
18082,67.0,0,59,2.0,0.0
18083,39.0,0,59,15.0,0.0
18084,51.0,0,59,15.0,0.0
18085,51.0,0,59,15.0,0.0
18086,78.0,0,59,13.0,0.0
18087,72.0,0,59,14.0,0.0
18088,60.0,60,59,3.0,0.0
18089,66.0,0,59,3.0,0.0
18090,57.0,0,119,4.0,0.0
18091,63.0,0,119,4.0,0.0
18092,81.0,0,119,12.0,0.0
18093,39.0,0,59,15.0,0.0
18094,78.0,0,59,2.0,0.0
18095,66.0,0,59,2.0,0.0
18096,69.0,0,119,4.0,0.0
18097,39.0,0,59,15.0,0.0
18098,51.0,0,59,15.0,0.0
18099,63.0,0,59,13.0,0.0
18100,66.0,0,59,3.0,0.0
18101,63.0,60,59,3.0,0.0
18102,75.0,0,59,2.0,0.0
18103,78.0,0,59,2.0,0.0
18104,60.0,0,59,14.0,0.0
18105,63.0,0,59,4.0,0.0
18106,81.0,0,59,0.0,0.0
18107,81.0,0,59,12.0,0.0
18108,69.0,0,59,4.0,0.0
18109,57.0,0,59,4.0,0.0
18110,63.0,0,59,13.0,0.0
18111,75.0,0,59,2.0,0.0
18112,78.0,0,59,2.0,0.0
18113,93.0,0,59,0.0,0.0
18114,60.0,0,59,14.0,0.0
18115,81.0,0,59,1.0,0.0
18116,39.0,0,59,15.0,0.0
18117,51.0,0,59,15.0,0.0
18118,63.0,0,59,3.0,0.0
18119,66.0,0,59,3.0,0.0
18120,69.0,60,59,1.0,0.0
18121,75.0,0,59,2.0,0.0
18122,81.0,0,299,12.0,0.0
18123,81.0,0,179,0.0,0.0
18124,93.0,0,179,0.0,0.0
18125,66.0,0,59,3.0,0.0
18126,63.0,0,59,3.0,0.0
18127,78.0,0,59,2.0,0.0
18128,63.0,0,59,13.0,0.0
18129,39.0,0,59,15.0,0.0
18130,69.0,0,179,4.0,0.0
18131,60.0,60,59,14.0,0.0
18132,57.0,0,179,4.0,0.0
18133,51.0,0,59,15.0,0.0
18134,81.0,0,179,1.0,0.0
18135,69.0,0,179,1.0,0.0
18136,63.0,0,59,4.0,0.0
18137,53.0,0,59,15.0,0.0
18138,61.0,0,59,13.0,0.0
18139,77.0,0,59,2.0,0.0
18140,41.0,60,59,15.0,0.0
18141,65.0,0,59,3.0,0.0
18142,61.0,0,59,3.0,0.0
18143,61.0,0,59,14.0,0.0
18144,73.0,0,59,2.0,0.0
18145,72.0,0,59,2.0,0.0
18146,75.0,0,59,2.0,0.0
18147,63.0,0,59,3.0,0.0
18148,60.0,0,59,3.0,0.0
18149,60.0,0,59,13.0,0.0
18150,54.0,0,59,15.0,0.0
18151,63.0,60,59,14.0,0.0
18152,42.0,0,59,15.0,0.0
18153,42.0,0,59,15.0,0.0
18154,72.0,0,59,13.0,0.0
18155,72.0,0,59,2.0,0.0
18156,75.0,0,59,2.0,0.0
18157,63.0,60,59,14.0,0.0
18158,54.0,0,59,15.0,0.0
18159,63.0,0,59,3.0,0.0
18160,60.0,0,59,3.0,0.0
18161,54.0,0,59,15.0,0.0
18162,75.0,0,59,2.0,0.0
18163,63.0,0,59,14.0,0.0
18164,72.0,60,59,2.0,0.0
18165,42.0,0,59,15.0,0.0
18166,63.0,0,59,3.0,0.0
18167,60.0,0,59,3.0,0.0
18168,72.0,0,59,13.0,0.0
18169,42.0,0,59,15.0,0.0
18170,81.0,0,59,12.0,0.0
18171,93.0,0,59,0.0,0.0
18172,81.0,0,59,0.0,0.0
18173,75.0,0,59,2.0,0.0
18174,72.0,0,59,13.0,0.0
18175,72.0,0,59,2.0,0.0
18176,57.0,0,59,4.0,0.0
18177,69.0,0,59,4.0,0.0
18178,63.0,0,59,3.0,0.0
18179,63.0,0,59,14.0,0.0
18180,60.0,60,59,3.0,0.0
18181,63.0,0,59,4.0,0.0
18182,81.0,0,59,1.0,0.0
18183,54.0,0,59,15.0,0.0
18184,69.0,0,59,1.0,0.0
18185,63.0,60,59,14.0,0.0
18186,63.0,0,59,4.0,0.0
18187,75.0,0,59,2.0,0.0
18188,72.0,0,59,2.0,0.0
18189,72.0,0,59,13.0,0.0
18190,69.0,0,179,1.0,0.0
18191,42.0,0,59,15.0,0.0
18192,60.0,0,59,3.0,0.0
18193,57.0,0,179,4.0,0.0
18194,69.0,0,179,4.0,0.0
18195,54.0,0,59,15.0,0.0
18196,81.0,0,299,12.0,0.0
18197,81.0,0,179,1.0,0.0
18198,81.0,0,179,0.0,0.0
18199,93.0,0,179,0.0,0.0
18200,63.0,0,59,3.0,0.0
18201,61.0,0,59,3.0,0.0
18202,65.0,0,59,14.0,0.0
18203,73.0,0,59,13.0,0.0
18204,53.0,60,59,15.0,0.0
18205,41.0,0,59,15.0,0.0
18206,77.0,0,59,2.0,0.0
18207,65.0,0,59,3.0,0.0
18208,73.0,0,59,2.0,0.0
18209,75.0,0,59,13.0,0.0
18210,66.0,0,59,14.0,0.0
18211,63.0,0,59,3.0,0.0
18212,39.0,60,59,15.0,0.0
18213,51.0,0,59,15.0,0.0
18214,75.0,0,59,2.0,0.0
18215,78.0,0,59,2.0,0.0
18216,66.0,0,59,3.0,0.0
18217,77.0,0,59,13.0,0.0
18218,65.0,0,59,2.0,0.0
18219,77.0,0,59,2.0,0.0
18220,65.0,0,59,3.0,0.0
18221,53.0,0,59,3.0,0.0
18222,53.0,60,59,4.0,0.0
18223,37.0,0,59,15.0,0.0
18224,58.0,0,59,14.0,0.0
18225,49.0,0,59,15.0,0.0
18226,65.0,0,59,4.0,0.0
18227,65.0,0,59,4.0,0.0
18228,61.0,0,59,3.0,0.0
18229,37.0,0,59,15.0,0.0
18230,49.0,0,59,15.0,0.0
18231,58.0,0,59,14.0,0.0
18232,53.0,60,59,4.0,0.0
18233,65.0,0,59,13.0,0.0
18234,65.0,0,59,3.0,0.0
18235,77.0,0,59,2.0,0.0
18236,73.0,0,59,2.0,0.0
18237,61.0,0,59,3.0,0.0
18238,65.0,60,59,3.0,0.0
18239,65.0,0,59,13.0,0.0
18240,82.0,0,59,1.0,0.0
18241,82.0,0,59,0.0,0.0
18242,49.0,0,59,15.0,0.0
18243,73.0,0,59,2.0,0.0
18244,58.0,0,59,14.0,0.0
18245,77.0,0,59,2.0,0.0
18246,37.0,0,59,15.0,0.0
18247,70.0,0,59,0.0,0.0
18248,70.0,0,59,1.0,0.0
18249,82.0,0,59,12.0,0.0
18250,53.0,0,59,4.0,0.0
18251,65.0,0,59,4.0,0.0
18252,73.0,0,59,2.0,0.0
18253,77.0,0,59,2.0,0.0
18254,65.0,60,59,13.0,0.0
18255,82.0,0,299,12.0,0.0
18256,37.0,0,59,15.0,0.0
18257,58.0,0,59,14.0,0.0
18258,61.0,0,59,3.0,0.0
18259,70.0,0,179,1.0,0.0
18260,70.0,0,179,0.0,0.0
18261,82.0,60,179,0.0,0.0
18262,49.0,0,59,15.0,0.0
18263,53.0,0,119,4.0,0.0
18264,65.0,0,119,4.0,0.0
18265,65.0,0,59,3.0,0.0
18266,82.0,0,179,1.0,0.0
18267,51.0,0,59,15.0,0.0
18268,60.0,60,59,14.0,0.0
18269,72.0,0,59,2.0,0.0
18270,75.0,0,59,2.0,0.0
18271,63.0,0,59,13.0,0.0
18272,39.0,0,59,15.0,0.0
18273,63.0,0,59,3.0,0.0
18274,60.0,0,59,3.0,0.0
18275,41.0,0,59,15.0,0.0
18276,58.0,0,59,3.0,0.0
18277,61.0,0,59,3.0,0.0
18278,70.0,0,59,2.0,0.0
18279,61.0,0,59,14.0,0.0
18280,53.0,0,59,15.0,0.0
18281,73.0,0,59,2.0,0.0
18282,61.0,0,59,13.0,0.0
18283,53.0,0,59,15.0,0.0
18284,53.0,0,59,4.0,0.0
18285,41.0,0,59,15.0,0.0
18286,70.0,0,59,13.0,0.0
18287,61.0,0,59,14.0,0.0
18288,61.0,0,59,3.0,0.0
18289,65.0,60,59,4.0,0.0
18290,70.0,0,59,2.0,0.0
18291,73.0,0,59,2.0,0.0
18292,58.0,0,59,3.0,0.0
18293,73.0,0,59,2.0,0.0
18294,70.0,0,59,13.0,0.0
18295,65.0,0,59,4.0,0.0
18296,53.0,0,59,4.0,0.0
18297,58.0,0,59,3.0,0.0
18298,41.0,0,59,15.0,0.0
18299,61.0,60,59,3.0,0.0
18300,61.0,0,59,14.0,0.0
18301,53.0,0,59,15.0,0.0
18302,70.0,0,59,2.0,0.0
18303,82.0,0,59,0.0,0.0
18304,70.0,0,59,2.0,0.0
18305,70.0,0,59,13.0,0.0
18306,70.0,0,59,1.0,0.0
18307,65.0,0,59,4.0,0.0
18308,61.0,0,59,14.0,0.0
18309,61.0,0,59,3.0,0.0
18310,58.0,0,59,3.0,0.0
18311,53.0,0,59,4.0,0.0
18312,41.0,0,59,15.0,0.0
18313,53.0,0,59,15.0,0.0
18314,82.0,0,59,12.0,0.0
18315,73.0,0,59,2.0,0.0
18316,70.0,60,59,0.0,0.0
18317,82.0,0,59,1.0,0.0
18318,61.0,0,59,14.0,0.0
18319,70.0,0,59,2.0,0.0
18320,73.0,0,59,2.0,0.0
18321,41.0,0,59,15.0,0.0
18322,82.0,0,299,12.0,0.0
18323,70.0,60,59,13.0,0.0
18324,61.0,0,59,3.0,0.0
18325,53.0,0,119,4.0,0.0
18326,65.0,0,119,4.0,0.0
18327,53.0,0,59,15.0,0.0
18328,82.0,0,179,0.0,0.0
18329,58.0,0,59,3.0,0.0
18330,70.0,0,179,1.0,0.0
18331,70.0,0,179,0.0,0.0
18332,82.0,0,179,1.0,0.0
18333,63.0,60,59,3.0,0.0
18334,63.0,0,59,14.0,0.0
18335,72.0,0,59,2.0,0.0
18336,75.0,0,59,2.0,0.0
18337,51.0,0,59,15.0,0.0
18338,39.0,0,59,15.0,0.0
18339,72.0,0,59,13.0,0.0
18340,60.0,0,59,3.0,0.0
18341,65.0,0,59,14.0,0.0
18342,77.0,60,59,2.0,0.0
18343,73.0,0,59,2.0,0.0
18344,65.0,0,59,3.0,0.0
18345,61.0,0,59,3.0,0.0
18346,73.0,0,59,13.0,0.0
18347,49.0,0,59,15.0,0.0
18348,37.0,0,59,15.0,0.0
18349,75.0,0,59,14.0,0.0
18350,36.0,60,59,15.0,0.0
18351,48.0,0,59,15.0,0.0
18352,87.0,0,59,0.0,0.0
18353,78.0,0,59,13.0,0.0
18354,63.0,0,59,4.0,0.0
18355,63.0,0,59,3.0,0.0
18356,66.0,0,59,3.0,0.0
18357,78.0,0,59,2.0,0.0
18358,75.0,0,59,2.0,0.0
18359,87.0,0,59,0.0,0.0
18360,75.0,0,59,14.0,0.0
18361,66.0,0,59,3.0,0.0
18362,63.0,0,59,3.0,0.0
18363,75.0,0,59,2.0,0.0
18364,78.0,0,59,13.0,0.0
18365,36.0,0,59,15.0,0.0
18366,48.0,60,59,15.0,0.0
18367,63.0,0,59,4.0,0.0
18368,78.0,0,59,2.0,0.0
18369,48.0,0,59,15.0,0.0
18370,66.0,0,59,3.0,0.0
18371,63.0,0,59,3.0,0.0
18372,87.0,0,59,0.0,0.0
18373,63.0,0,59,4.0,0.0
18374,53.0,0,59,4.0,0.0
18375,36.0,0,59,15.0,0.0
18376,65.0,0,59,4.0,0.0
18377,78.0,0,59,2.0,0.0
18378,75.0,0,59,2.0,0.0
18379,70.0,0,59,1.0,0.0
18380,82.0,60,59,1.0,0.0
18381,75.0,0,59,14.0,0.0
18382,82.0,0,59,12.0,0.0
18383,78.0,0,59,13.0,0.0
18384,78.0,0,59,2.0,0.0
18385,82.0,0,179,1.0,0.0
18386,70.0,0,179,1.0,0.0
18387,48.0,0,59,15.0,0.0
18388,36.0,60,59,15.0,0.0
18389,65.0,0,119,4.0,0.0
18390,75.0,0,59,14.0,0.0
18391,53.0,60,119,4.0,0.0
18392,82.0,0,299,12.0,0.0
18393,63.0,0,119,4.0,0.0
18394,87.0,0,59,0.0,0.0
18395,75.0,0,59,2.0,0.0
18396,78.0,0,59,13.0,0.0
18397,63.0,0,59,3.0,0.0
18398,66.0,0,59,3.0,0.0
18399,61.0,0,59,3.0,0.0
18400,77.0,0,59,2.0,0.0
18401,73.0,0,59,2.0,0.0
18402,65.0,0,59,3.0,0.0
18403,49.0,0,59,15.0,0.0
18404,77.0,0,59,13.0,0.0
18405,89.0,0,59,0.0,0.0
18406,73.0,0,59,14.0,0.0
18407,37.0,0,59,15.0,0.0
18408,75.0,0,59,2.0,0.0
18409,63.0,0,59,3.0,0.0
18410,75.0,0,59,13.0,0.0
18411,60.0,0,59,3.0,0.0
18412,72.0,0,59,14.0,0.0
18413,51.0,0,59,15.0,0.0
18414,39.0,0,59,15.0,0.0
18415,72.0,0,59,2.0,0.0
18416,90.0,60,59,0.0,0.0
18417,75.0,0,59,2.0,0.0
18418,90.0,0,59,0.0,0.0
18419,66.0,60,59,2.0,0.0
18420,54.0,0,59,3.0,0.0
18421,75.0,0,59,13.0,0.0
18422,66.0,0,59,14.0,0.0
18423,39.0,0,59,15.0,0.0
18424,51.0,0,59,15.0,0.0
18425,63.0,0,59,4.0,0.0
18426,63.0,0,59,3.0,0.0
18427,53.0,0,59,15.0,0.0
18428,90.0,60,59,0.0,0.0
18429,41.0,0,59,15.0,0.0
18430,63.0,0,59,4.0,0.0
18431,53.0,0,59,3.0,0.0
18432,73.0,0,59,2.0,0.0
18433,65.0,0,59,2.0,0.0
18434,65.0,0,59,14.0,0.0
18435,61.0,0,59,3.0,0.0
18436,73.0,0,59,13.0,0.0
18437,82.0,0,59,12.0,0.0
18438,72.0,0,59,13.0,0.0
18439,60.0,0,59,3.0,0.0
18440,42.0,0,59,15.0,0.0
18441,63.0,0,59,2.0,0.0
18442,90.0,60,59,0.0,0.0
18443,51.0,0,59,3.0,0.0
18444,63.0,0,59,14.0,0.0
18445,63.0,0,59,4.0,0.0
18446,54.0,0,59,15.0,0.0
18447,70.0,0,59,1.0,0.0
18448,82.0,0,59,1.0,0.0
18449,72.0,0,59,2.0,0.0
18450,60.0,0,59,3.0,0.0
18451,51.0,0,59,3.0,0.0
18452,82.0,0,119,1.0,0.0
18453,70.0,0,119,1.0,0.0
18454,53.0,0,59,15.0,0.0
18455,63.0,60,59,14.0,0.0
18456,60.0,0,59,4.0,0.0
18457,53.0,0,59,4.0,0.0
18458,90.0,0,59,0.0,0.0
18459,41.0,0,59,15.0,0.0
18460,72.0,0,59,13.0,0.0
18461,72.0,0,59,2.0,0.0
18462,63.0,0,59,2.0,0.0
18463,82.0,0,119,12.0,0.0
18464,65.0,0,119,4.0,0.0
18465,65.0,0,59,15.0,0.0
18466,63.0,60,59,3.0,0.0
18467,60.0,0,59,3.0,0.0
18468,60.0,0,59,4.0,0.0
18469,53.0,0,59,4.0,0.0
18470,53.0,0,59,15.0,0.0
18471,89.0,0,59,0.0,0.0
18472,75.0,0,59,2.0,0.0
18473,72.0,0,59,2.0,0.0
18474,72.0,0,59,14.0,0.0
18475,75.0,0,59,13.0,0.0
18476,60.0,0,59,3.0,0.0
18477,65.0,0,59,15.0,0.0
18478,72.0,0,59,14.0,0.0
18479,75.0,0,59,13.0,0.0
18480,53.0,0,59,15.0,0.0
18481,72.0,0,59,2.0,0.0
18482,75.0,60,59,2.0,0.0
18483,81.0,0,59,1.0,0.0
18484,53.0,0,59,4.0,0.0
18485,60.0,0,59,4.0,0.0
18486,87.0,0,59,0.0,0.0
18487,69.0,0,59,1.0,0.0
18488,81.0,0,59,12.0,0.0
18489,63.0,0,59,3.0,0.0
18490,82.0,60,59,12.0,0.0
18491,70.0,0,119,14.0,0.0
18492,73.0,0,119,2.0,0.0
18493,73.0,0,59,13.0,0.0
18494,70.0,0,119,2.0,0.0
18495,53.0,0,119,15.0,0.0
18496,61.0,0,119,3.0,0.0
18497,65.0,0,119,15.0,0.0
18498,58.0,0,119,4.0,0.0
18499,46.0,60,119,4.0,0.0
18500,70.0,0,119,1.0,0.0
18501,85.0,0,119,0.0,0.0
18502,58.0,0,119,3.0,0.0
18503,82.0,0,119,1.0,0.0
18504,82.0,0,59,12.0,0.0
18505,73.0,0,59,13.0,0.0
18506,73.0,60,59,2.0,0.0
18507,89.0,0,59,0.0,0.0
18508,77.0,0,59,0.0,0.0
18509,77.0,0,59,1.0,0.0
18510,46.0,0,59,15.0,0.0
18511,46.0,0,59,3.0,0.0
18512,82.0,0,59,12.0,0.0
18513,65.0,0,59,1.0,0.0
18514,49.0,0,59,14.0,0.0
18515,73.0,0,59,13.0,0.0
18516,61.0,0,59,2.0,0.0
18517,34.0,0,59,15.0,0.0
18518,34.0,0,59,3.0,0.0
18519,58.0,0,59,4.0,0.0
18520,46.0,0,59,4.0,0.0
18521,58.0,0,299,4.0,0.0
18522,46.0,0,299,4.0,0.0
18523,82.0,60,59,12.0,0.0
18524,61.0,0,179,2.0,0.0
18525,46.0,0,299,15.0,0.0
18526,73.0,0,59,13.0,0.0
18527,73.0,0,179,2.0,0.0
18528,77.0,0,179,1.0,0.0
18529,34.0,0,179,3.0,0.0
18530,46.0,60,179,3.0,0.0
18531,65.0,0,179,1.0,0.0
18532,77.0,0,179,0.0,0.0
18533,34.0,0,299,15.0,0.0
18534,49.0,0,299,14.0,0.0
18535,89.0,0,179,0.0,0.0
18536,84.0,0,59,12.0,0.0
18537,75.0,60,59,13.0,0.0
18538,85.0,0,59,12.0,0.0
18539,77.0,0,59,13.0,0.0
18540,77.0,60,59,13.0,0.0
18541,85.0,0,59,12.0,0.0
18542,87.0,60,59,12.0,0.0
18543,78.0,0,59,13.0,0.0
18544,77.0,0,59,13.0,0.0
18545,48.0,0,59,15.0,0.0
18546,75.0,0,59,2.0,0.0
18547,63.0,0,59,2.0,0.0
18548,53.0,0,59,4.0,0.0
18549,65.0,0,59,4.0,0.0
18550,65.0,0,59,1.0,0.0
18551,77.0,0,59,1.0,0.0
18552,48.0,0,59,3.0,0.0
18553,36.0,0,59,3.0,0.0
18554,77.0,60,59,0.0,0.0
18555,89.0,0,59,0.0,0.0
18556,51.0,0,59,14.0,0.0
18557,85.0,0,59,12.0,0.0
18558,36.0,0,59,15.0,0.0
18559,36.0,0,299,15.0,0.0
18560,84.0,60,59,12.0,0.0
18561,75.0,0,179,2.0,0.0
18562,48.0,0,299,15.0,0.0
18563,89.0,0,179,0.0,0.0
18564,77.0,0,179,0.0,0.0
18565,36.0,0,179,3.0,0.0
18566,77.0,0,179,1.0,0.0
18567,51.0,0,299,14.0,0.0
18568,63.0,0,179,2.0,0.0
18569,53.0,60,299,4.0,0.0
18570,65.0,0,299,4.0,0.0
18571,48.0,0,179,3.0,0.0
18572,65.0,0,179,1.0,0.0
18573,75.0,0,59,13.0,0.0
18574,82.0,0,59,12.0,0.0
18575,73.0,60,59,13.0,0.0
18576,81.0,60,59,12.0,0.0
18577,72.0,0,59,13.0,0.0
18578,70.0,60,59,13.0,0.0
18579,82.0,0,119,12.0,0.0
18580,72.0,0,59,13.0,0.0
18581,53.0,0,59,14.0,0.0
18582,49.0,0,59,15.0,0.0
18583,58.0,0,59,4.0,0.0
18584,37.0,0,59,15.0,0.0
18585,46.0,60,59,4.0,0.0
18586,77.0,0,59,2.0,0.0
18587,70.0,0,59,13.0,0.0
18588,89.0,0,59,0.0,0.0
18589,49.0,0,59,3.0,0.0
18590,77.0,0,59,0.0,0.0
18591,65.0,0,59,2.0,0.0
18592,82.0,0,119,0.0,0.0
18593,54.0,0,119,15.0,0.0
18594,58.0,0,119,4.0,0.0
18595,46.0,0,119,4.0,0.0
18596,42.0,0,119,15.0,0.0
18597,70.0,60,59,13.0,0.0
18598,58.0,0,119,2.0,0.0
18599,42.0,0,119,3.0,0.0
18600,58.0,0,119,14.0,0.0
18601,70.0,0,119,2.0,0.0
18602,54.0,60,119,3.0,0.0
18603,72.0,0,59,13.0,0.0
18604,41.0,0,59,15.0,0.0
18605,73.0,60,59,13.0,0.0
18606,53.0,0,59,15.0,0.0
18607,53.0,0,59,3.0,0.0
18608,82.0,0,59,0.0,0.0
18609,46.0,0,59,4.0,0.0
18610,58.0,0,59,4.0,0.0
18611,70.0,0,59,2.0,0.0
18612,56.0,0,59,14.0,0.0
18613,58.0,0,59,2.0,0.0
18614,41.0,0,59,3.0,0.0
18615,39.0,0,119,3.0,0.0
18616,51.0,0,119,3.0,0.0
18617,78.0,0,119,0.0,0.0
18618,90.0,0,119,0.0,0.0
18619,54.0,60,119,14.0,0.0
18620,78.0,0,119,2.0,0.0
18621,66.0,0,119,2.0,0.0
18622,39.0,0,119,15.0,0.0
18623,71.0,60,59,12.0,0.0
18624,51.0,0,119,15.0,0.0
18625,63.0,0,119,4.0,0.0
18626,75.0,0,119,13.0,0.0
18627,73.0,0,59,12.0,0.0
18628,39.0,0,59,15.0,0.0
18629,51.0,0,59,15.0,0.0
18630,39.0,0,59,3.0,0.0
18631,51.0,60,59,3.0,0.0
18632,71.0,0,59,12.0,0.0
18633,78.0,0,59,1.0,0.0
18634,54.0,0,59,14.0,0.0
18635,44.0,0,119,3.0,0.0
18636,71.0,0,119,1.0,0.0
18637,44.0,0,119,15.0,0.0
18638,71.0,0,59,12.0,0.0
18639,75.0,60,59,13.0,0.0
18640,59.0,0,119,14.0,0.0
18641,56.0,0,119,15.0,0.0
18642,56.0,0,119,3.0,0.0
18643,73.0,0,59,12.0,0.0
18644,77.0,60,59,13.0,0.0
18645,75.0,0,59,12.0,0.0
18646,71.0,0,59,1.0,0.0
18647,42.0,0,59,15.0,0.0
18648,78.0,0,59,13.0,0.0
18649,42.0,0,59,3.0,0.0
18650,58.0,0,59,14.0,0.0
18651,54.0,0,59,3.0,0.0
18652,54.0,60,59,15.0,0.0
18653,41.0,0,119,15.0,0.0
18654,53.0,0,119,3.0,0.0
18655,56.0,0,119,14.0,0.0
18656,77.0,0,119,12.0,0.0
18657,53.0,0,119,15.0,0.0
18658,80.0,60,59,13.0,0.0
18659,80.0,0,119,1.0,0.0
18660,53.0,0,119,4.0,0.0
18661,41.0,0,119,4.0,0.0
18662,41.0,0,119,3.0,0.0
18663,75.0,60,59,13.0,0.0
18664,68.0,0,59,2.0,0.0
18665,53.0,0,59,15.0,0.0
18666,41.0,0,59,3.0,0.0
18667,41.0,60,59,15.0,0.0
18668,80.0,0,59,2.0,0.0
18669,53.0,0,59,3.0,0.0
18670,92.0,0,59,0.0,0.0
18671,56.0,0,59,14.0,0.0
18672,72.0,0,59,13.0,0.0
18673,80.0,0,59,0.0,0.0
18674,58.0,60,119,3.0,0.0
18675,58.0,0,119,15.0,0.0
18676,73.0,60,59,13.0,0.0
18677,46.0,0,119,3.0,0.0
18678,85.0,0,119,0.0,0.0
18679,61.0,0,119,2.0,0.0
18680,73.0,0,119,2.0,0.0
18681,46.0,0,119,15.0,0.0
18682,61.0,0,119,14.0,0.0
18683,77.0,0,59,12.0,0.0
18684,78.0,0,59,12.0,0.0
18685,75.0,0,59,13.0,0.0
18686,56.0,0,59,3.0,0.0
18687,85.0,0,59,0.0,0.0
18688,61.0,0,59,2.0,0.0
18689,73.0,0,59,2.0,0.0
18690,59.0,0,59,14.0,0.0
18691,56.0,0,59,15.0,0.0
18692,80.0,0,59,12.0,0.0
18693,44.0,0,59,15.0,0.0
18694,44.0,60,59,3.0,0.0
18695,77.0,0,59,13.0,0.0
18696,58.0,0,119,4.0,0.0
18697,82.0,0,119,2.0,0.0
18698,82.0,60,59,12.0,0.0
18699,42.0,0,119,15.0,0.0
18700,82.0,0,119,0.0,0.0
18701,75.0,0,119,13.0,0.0
18702,54.0,0,119,15.0,0.0
18703,70.0,60,119,2.0,0.0
18704,46.0,0,119,4.0,0.0
18705,58.0,0,119,14.0,0.0
18706,54.0,0,119,3.0,0.0
18707,42.0,0,119,3.0,0.0
18708,77.0,0,59,12.0,0.0
18709,74.0,0,59,12.0,0.0
18710,54.0,0,59,15.0,0.0
18711,42.0,60,59,15.0,0.0
18712,42.0,0,59,3.0,0.0
18713,58.0,0,59,14.0,0.0
18714,54.0,0,59,3.0,0.0
18715,82.0,0,59,1.0,0.0
18716,78.0,0,59,13.0,0.0
18717,75.0,0,119,1.0,0.0
18718,47.0,60,119,15.0,0.0
18719,75.0,60,59,12.0,0.0
18720,59.0,0,119,3.0,0.0
18721,47.0,0,119,3.0,0.0
18722,63.0,0,119,14.0,0.0
18723,59.0,0,119,15.0,0.0
18724,80.0,0,59,13.0,0.0
18725,77.0,0,59,12.0,0.0
18726,82.0,0,59,13.0,0.0
18727,75.0,0,59,1.0,0.0
18728,46.0,0,59,3.0,0.0
18729,58.0,0,59,3.0,0.0
18730,61.0,0,59,14.0,0.0
18731,78.0,0,59,12.0,0.0
18732,58.0,60,59,15.0,0.0
18733,46.0,0,59,15.0,0.0
18734,56.0,60,119,15.0,0.0
18735,44.0,0,119,15.0,0.0
18736,83.0,0,119,1.0,0.0
18737,59.0,0,119,14.0,0.0
18738,77.0,0,59,13.0,0.0
18739,56.0,0,119,3.0,0.0
18740,44.0,0,119,3.0,0.0
18741,83.0,60,59,12.0,0.0
18742,78.0,0,59,13.0,0.0
18743,82.0,0,59,12.0,0.0
18744,56.0,0,59,3.0,0.0
18745,78.0,0,59,12.0,0.0
18746,83.0,0,59,2.0,0.0
18747,56.0,0,59,15.0,0.0
18748,75.0,0,59,13.0,0.0
18749,44.0,60,59,3.0,0.0
18750,59.0,0,59,14.0,0.0
18751,44.0,0,59,15.0,0.0
18752,83.0,0,59,0.0,0.0
18753,71.0,0,59,0.0,0.0
18754,71.0,0,59,2.0,0.0
18755,61.0,0,119,3.0,0.0
18756,65.0,0,119,2.0,0.0
18757,65.0,0,119,4.0,0.0
18758,53.0,0,119,4.0,0.0
18759,68.0,60,59,14.0,0.0
18760,77.0,0,59,13.0,0.0
18761,49.0,0,119,3.0,0.0
18762,77.0,0,119,2.0,0.0
18763,49.0,60,119,15.0,0.0
18764,80.0,0,59,12.0,0.0
18765,61.0,0,119,15.0,0.0
18766,65.0,0,119,0.0,0.0
18767,77.0,0,119,0.0,0.0
18768,66.0,0,59,14.0,0.0
18769,82.0,0,59,12.0,0.0
18770,78.0,0,59,13.0,0.0
18771,77.0,60,59,1.0,0.0
18772,65.0,0,59,2.0,0.0
18773,77.0,0,59,2.0,0.0
18774,80.0,0,59,1.0,0.0
18775,59.0,0,59,15.0,0.0
18776,59.0,0,59,3.0,0.0
18777,47.0,0,59,3.0,0.0
18778,83.0,0,59,12.0,0.0
18779,65.0,0,59,14.0,0.0
18780,47.0,0,59,15.0,0.0
18781,89.0,0,59,0.0,0.0
18782,85.0,0,59,0.0,0.0
18783,80.0,0,59,13.0,0.0
18784,66.0,0,59,2.0,0.0
18785,58.0,60,59,4.0,0.0
18786,46.0,0,59,4.0,0.0
18787,78.0,0,59,1.0,0.0
18788,61.0,0,59,14.0,0.0
18789,82.0,0,59,1.0,0.0
18790,58.0,0,59,15.0,0.0
18791,46.0,0,59,15.0,0.0
18792,58.0,0,59,3.0,0.0
18793,46.0,0,59,3.0,0.0
18794,85.0,0,59,12.0,0.0
18795,78.0,0,59,2.0,0.0
18796,78.0,0,59,13.0,0.0
18797,90.0,0,59,0.0,0.0
18798,85.0,0,59,0.0,0.0
18799,58.0,0,59,4.0,0.0
18800,44.0,0,59,3.0,0.0
18801,89.0,60,59,0.0,0.0
18802,85.0,0,59,0.0,0.0
18803,56.0,0,59,15.0,0.0
18804,46.0,0,59,4.0,0.0
18805,73.0,0,59,14.0,0.0
18806,83.0,0,59,12.0,0.0
18807,83.0,0,59,1.0,0.0
18808,77.0,0,59,1.0,0.0
18809,44.0,0,59,15.0,0.0
18810,65.0,0,59,2.0,0.0
18811,77.0,0,59,2.0,0.0
18812,77.0,0,59,13.0,0.0
18813,56.0,0,59,3.0,0.0
18814,58.0,0,59,4.0,0.0
18815,82.0,0,59,1.0,0.0
18816,78.0,0,59,1.0,0.0
18817,54.0,0,59,4.0,0.0
18818,46.0,0,59,4.0,0.0
18819,54.0,0,59,15.0,0.0
18820,66.0,0,59,4.0,0.0
18821,78.0,60,59,13.0,0.0
18822,42.0,0,59,3.0,0.0
18823,90.0,0,59,0.0,0.0
18824,42.0,0,59,15.0,0.0
18825,82.0,0,59,12.0,0.0
18826,73.0,0,59,14.0,0.0
18827,66.0,0,59,2.0,0.0
18828,78.0,0,59,2.0,0.0
18829,54.0,0,59,3.0,0.0
18830,85.0,0,59,0.0,0.0
18831,78.0,0,59,1.0,0.0
18832,73.0,0,59,14.0,0.0
18833,61.0,60,59,3.0,0.0
18834,49.0,0,59,3.0,0.0
18835,49.0,0,59,15.0,0.0
18836,82.0,0,59,13.0,0.0
18837,58.0,0,59,4.0,0.0
18838,46.0,0,59,4.0,0.0
18839,82.0,0,59,1.0,0.0
18840,61.0,0,59,15.0,0.0
18841,85.0,0,59,0.0,0.0
18842,90.0,0,59,0.0,0.0
18843,54.0,0,59,4.0,0.0
18844,66.0,0,59,4.0,0.0
18845,82.0,0,59,2.0,0.0
18846,70.0,0,59,2.0,0.0
18847,70.0,0,59,12.0,0.0
18848,49.0,0,59,15.0,0.0
18849,66.0,0,59,4.0,0.0
18850,54.0,0,59,4.0,0.0
18851,80.0,0,59,2.0,0.0
18852,37.0,60,59,15.0,0.0
18853,54.0,0,59,3.0,0.0
18854,58.0,0,59,3.0,0.0
18855,73.0,0,59,14.0,0.0
18856,70.0,0,59,12.0,0.0
18857,78.0,0,59,1.0,0.0
18858,46.0,0,59,4.0,0.0
18859,58.0,0,59,4.0,0.0
18860,85.0,0,59,0.0,0.0
18861,90.0,0,59,0.0,0.0
18862,82.0,0,59,1.0,0.0
18863,80.0,0,59,13.0,0.0
18864,68.0,0,59,2.0,0.0
18865,90.0,0,59,0.0,0.0
18866,54.0,0,59,4.0,0.0
18867,66.0,60,59,4.0,0.0
18868,54.0,0,59,3.0,0.0
18869,58.0,0,59,3.0,0.0
18870,70.0,0,59,12.0,0.0
18871,46.0,0,59,4.0,0.0
18872,58.0,0,59,4.0,0.0
18873,78.0,0,59,1.0,0.0
18874,82.0,0,59,1.0,0.0
18875,37.0,0,59,15.0,0.0
18876,49.0,0,59,15.0,0.0
18877,85.0,0,59,0.0,0.0
18878,66.0,0,59,2.0,0.0
18879,73.0,0,59,14.0,0.0
18880,78.0,0,59,13.0,0.0
18881,78.0,0,59,2.0,0.0
18882,54.0,0,119,3.0,0.0
18883,78.0,60,119,2.0,0.0
18884,73.0,0,119,14.0,0.0
18885,66.0,0,119,2.0,0.0
18886,42.0,0,119,15.0,0.0
18887,85.0,0,119,0.0,0.0
18888,54.0,0,119,4.0,0.0
18889,90.0,0,119,0.0,0.0
18890,54.0,0,119,15.0,0.0
18891,58.0,0,59,3.0,0.0
18892,66.0,0,119,4.0,0.0
18893,78.0,0,119,1.0,0.0
18894,70.0,60,59,12.0,0.0
18895,78.0,0,59,13.0,0.0
18896,46.0,0,119,4.0,0.0
18897,58.0,0,119,4.0,0.0
18898,82.0,0,119,1.0,0.0
18899,71.0,0,59,12.0,0.0
18900,80.0,0,59,13.0,0.0
18901,59.0,0,59,3.0,0.0
18902,82.0,0,59,13.0,0.0
18903,61.0,0,59,3.0,0.0
18904,73.0,60,59,12.0,0.0
18905,46.0,60,59,15.0,0.0
18906,46.0,0,59,4.0,0.0
18907,73.0,0,59,12.0,0.0
18908,58.0,0,59,4.0,0.0
18909,58.0,0,59,15.0,0.0
18910,78.0,0,59,13.0,0.0
18911,61.0,0,59,3.0,0.0
18912,46.0,0,59,4.0,0.0
18913,58.0,0,59,4.0,0.0
18914,58.0,0,59,15.0,0.0
18915,63.0,0,59,3.0,0.0
18916,78.0,60,59,13.0,0.0
18917,46.0,0,59,15.0,0.0
18918,75.0,0,59,12.0,0.0
18919,58.0,0,59,4.0,0.0
18920,58.0,0,59,15.0,0.0
18921,46.0,0,59,15.0,0.0
18922,61.0,0,59,3.0,0.0
18923,73.0,0,59,12.0,0.0
18924,78.0,0,59,13.0,0.0
18925,46.0,60,59,4.0,0.0
18926,46.0,60,119,4.0,0.0
18927,58.0,0,119,4.0,0.0
18928,78.0,0,59,13.0,0.0
18929,59.0,60,59,3.0,0.0
18930,71.0,0,59,12.0,0.0
18931,46.0,0,59,15.0,0.0
18932,58.0,0,59,15.0,0.0
18933,47.0,0,59,15.0,0.0
18934,78.0,0,59,13.0,0.0
18935,70.0,0,59,12.0,0.0
18936,58.0,0,59,3.0,0.0
18937,59.0,0,59,15.0,0.0
18938,77.0,0,59,13.0,0.0
18939,56.0,0,59,3.0,0.0
18940,49.0,60,59,15.0,0.0
18941,68.0,0,59,12.0,0.0
18942,61.0,0,59,15.0,0.0
18943,66.0,0,59,2.0,0.0
18944,66.0,0,59,12.0,0.0
18945,49.0,0,59,15.0,0.0
18946,78.0,0,59,1.0,0.0
18947,54.0,0,119,3.0,0.0
18948,61.0,0,59,15.0,0.0
18949,70.0,60,59,13.0,0.0
18950,66.0,0,59,12.0,0.0
18951,51.0,0,59,15.0,0.0
18952,63.0,0,59,15.0,0.0
18953,78.0,60,59,1.0,0.0
18954,66.0,0,59,2.0,0.0
18955,70.0,0,59,13.0,0.0
18956,66.0,0,59,2.0,0.0
18957,78.0,0,59,1.0,0.0
18958,66.0,0,59,12.0,0.0
18959,61.0,0,59,15.0,0.0
18960,70.0,0,59,13.0,0.0
18961,49.0,60,59,15.0,0.0
18962,70.0,60,59,13.0,0.0
18963,78.0,0,59,1.0,0.0
18964,66.0,0,59,12.0,0.0
18965,47.0,0,59,15.0,0.0
18966,59.0,0,59,15.0,0.0
18967,66.0,0,59,2.0,0.0
18968,46.0,0,59,15.0,0.0
18969,71.0,0,59,13.0,0.0
18970,68.0,0,59,2.0,0.0
18971,80.0,0,59,1.0,0.0
18972,58.0,60,59,15.0,0.0
18973,68.0,0,59,12.0,0.0
18974,44.0,0,59,15.0,0.0
18975,82.0,0,59,1.0,0.0
18976,70.0,0,59,2.0,0.0
18977,70.0,0,59,12.0,0.0
18978,56.0,60,59,15.0,0.0
18979,73.0,0,59,13.0,0.0
18980,73.0,0,59,13.0,0.0
18981,42.0,0,59,15.0,0.0
18982,58.0,0,59,4.0,0.0
18983,46.0,0,59,4.0,0.0
18984,54.0,0,59,15.0,0.0
18985,82.0,60,59,1.0,0.0
18986,70.0,0,59,12.0,0.0
18987,70.0,0,59,2.0,0.0
18988,46.0,0,59,4.0,0.0
18989,71.0,0,59,12.0,0.0
18990,42.0,60,59,15.0,0.0
18991,58.0,0,59,4.0,0.0
18992,75.0,0,59,13.0,0.0
18993,54.0,0,59,15.0,0.0
18994,83.0,0,59,1.0,0.0
18995,71.0,0,59,2.0,0.0
18996,70.0,0,59,2.0,0.0
18997,58.0,0,59,4.0,0.0
18998,46.0,0,59,4.0,0.0
18999,70.0,0,59,12.0,0.0
19000,54.0,0,59,15.0,0.0
19001,82.0,0,59,1.0,0.0
19002,42.0,0,59,15.0,0.0
19003,73.0,60,59,13.0,0.0
19004,42.0,60,59,15.0,0.0
19005,71.0,0,59,13.0,0.0
19006,80.0,0,59,1.0,0.0
19007,68.0,0,59,12.0,0.0
19008,68.0,0,59,2.0,0.0
19009,46.0,0,59,4.0,0.0
19010,54.0,0,59,15.0,0.0
19011,58.0,0,59,4.0,0.0
19012,66.0,0,59,2.0,0.0
19013,70.0,0,59,13.0,0.0
19014,66.0,0,59,12.0,0.0
19015,46.0,0,59,4.0,0.0
19016,44.0,0,59,15.0,0.0
19017,56.0,0,59,15.0,0.0
19018,78.0,0,59,1.0,0.0
19019,58.0,60,59,4.0,0.0
19020,65.0,0,59,2.0,0.0
19021,58.0,0,59,4.0,0.0
19022,58.0,0,59,15.0,0.0
19023,68.0,60,59,13.0,0.0
19024,46.0,0,59,15.0,0.0
19025,65.0,0,59,12.0,0.0
19026,46.0,0,59,4.0,0.0
19027,77.0,0,59,1.0,0.0
19028,46.0,0,59,4.0,0.0
19029,87.0,0,59,0.0,0.0
19030,63.0,0,119,2.0,0.0
19031,58.0,0,59,15.0,0.0
19032,46.0,0,59,15.0,0.0
19033,75.0,0,119,1.0,0.0
19034,66.0,0,59,13.0,0.0
19035,63.0,60,59,12.0,0.0
19036,58.0,0,59,4.0,0.0
19037,87.0,0,59,0.0,0.0
19038,59.0,0,59,15.0,0.0
19039,58.0,0,59,4.0,0.0
19040,46.0,0,59,4.0,0.0
19041,47.0,0,59,15.0,0.0
19042,75.0,0,59,13.0,0.0
19043,66.0,60,59,12.0,0.0
19044,66.0,0,59,12.0,0.0
19045,87.0,0,59,0.0,0.0
19046,46.0,0,59,4.0,0.0
19047,58.0,60,59,15.0,0.0
19048,58.0,0,59,4.0,0.0
19049,46.0,0,59,15.0,0.0
19050,75.0,0,59,13.0,0.0
19051,44.0,60,59,15.0,0.0
19052,66.0,0,59,12.0,0.0
19053,46.0,0,59,4.0,0.0
19054,58.0,0,59,4.0,0.0
19055,75.0,0,59,13.0,0.0
19056,56.0,0,59,15.0,0.0
19057,87.0,0,59,0.0,0.0
19058,68.0,0,59,12.0,0.0
19059,77.0,60,59,13.0,0.0
19060,42.0,0,59,15.0,0.0
19061,89.0,0,59,0.0,0.0
19062,58.0,0,59,4.0,0.0
19063,46.0,0,59,4.0,0.0
19064,54.0,0,59,15.0,0.0
19065,58.0,60,59,4.0,0.0
19066,53.0,0,59,15.0,0.0
19067,70.0,0,59,12.0,0.0
19068,41.0,0,59,15.0,0.0
19069,90.0,0,59,0.0,0.0
19070,78.0,0,59,13.0,0.0
19071,46.0,0,59,4.0,0.0
19072,78.0,60,59,13.0,0.0
19073,70.0,0,59,12.0,0.0
19074,46.0,0,119,4.0,0.0
19075,58.0,60,119,4.0,0.0
19076,51.0,0,59,15.0,0.0
19077,90.0,0,59,0.0,0.0
19078,63.0,0,59,14.0,0.0
19079,39.0,0,59,15.0,0.0
19080,63.0,0,59,14.0,0.0
19081,71.0,0,59,12.0,0.0
19082,92.0,0,59,0.0,0.0
19083,80.0,0,59,13.0,0.0
19084,78.0,0,59,13.0,0.0
19085,70.0,0,59,12.0,0.0
19086,90.0,60,59,0.0,0.0
19087,63.0,0,59,14.0,0.0
19088,77.0,0,59,13.0,0.0
19089,68.0,60,59,12.0,0.0
19090,63.0,0,59,14.0,0.0
19091,89.0,0,59,0.0,0.0
19092,65.0,0,59,14.0,0.0
19093,75.0,0,59,13.0,0.0
19094,66.0,0,59,12.0,0.0
19095,87.0,60,59,0.0,0.0
19096,73.0,0,59,13.0,0.0
19097,66.0,60,59,14.0,0.0
19098,85.0,0,59,0.0,0.0
19099,65.0,0,59,12.0,0.0
19100,63.0,0,59,12.0,0.0
19101,84.0,0,59,0.0,0.0
19102,68.0,0,59,14.0,0.0
19103,72.0,60,59,13.0,0.0
19104,70.0,60,59,12.0,0.0
19105,60.0,0,59,14.0,0.0
19106,78.0,0,59,13.0,0.0
19107,90.0,0,59,0.0,0.0
19108,77.0,0,59,13.0,0.0
19109,89.0,60,59,0.0,0.0
19110,68.0,0,59,12.0,0.0
19111,61.0,0,59,14.0,0.0
19112,66.0,0,59,12.0,0.0
19113,75.0,0,59,13.0,0.0
19114,87.0,0,59,0.0,0.0
19115,61.0,60,59,14.0,0.0
19116,65.0,0,59,12.0,0.0
19117,73.0,0,59,13.0,0.0
19118,63.0,60,59,14.0,0.0
19119,85.0,0,59,0.0,0.0
19120,65.0,0,59,14.0,0.0
19121,63.0,60,59,12.0,0.0
19122,72.0,0,59,13.0,0.0
19123,84.0,0,59,0.0,0.0
19124,70.0,0,59,13.0,0.0
19125,66.0,0,59,14.0,0.0
19126,61.0,0,59,12.0,0.0
19127,82.0,60,59,0.0,0.0
19128,68.0,0,59,12.0,0.0
19129,58.0,0,59,14.0,0.0
19130,89.0,60,59,0.0,0.0
19131,77.0,0,59,13.0,0.0
19132,87.0,0,59,0.0,0.0
19133,60.0,0,59,14.0,0.0
19134,75.0,60,59,13.0,0.0
19135,66.0,0,59,12.0,0.0
19136,85.0,0,59,0.0,0.0
19137,60.0,60,59,14.0,0.0
19138,65.0,0,59,12.0,0.0
19139,73.0,0,59,13.0,0.0
19140,84.0,0,59,0.0,0.0
19141,63.0,0,59,12.0,0.0
19142,72.0,60,59,13.0,0.0
19143,61.0,0,59,14.0,0.0
19144,61.0,0,59,12.0,0.0
19145,70.0,0,59,13.0,0.0
19146,82.0,0,59,0.0,0.0
19147,63.0,60,59,14.0,0.0
19148,65.0,60,59,14.0,0.0
19149,69.0,0,59,13.0,0.0
19150,81.0,0,59,0.0,0.0
19151,60.0,0,59,12.0,0.0
19152,55.0,0,59,14.0,0.0
19153,85.0,0,59,0.0,0.0
19154,73.0,0,59,13.0,0.0
19155,65.0,60,59,12.0,0.0
19156,72.0,0,59,13.0,0.0
19157,63.0,60,59,12.0,0.0
19158,84.0,0,59,0.0,0.0
19159,57.0,0,59,14.0,0.0
19160,58.0,0,59,14.0,0.0
19161,73.0,60,59,13.0,0.0
19162,82.0,0,119,0.0,0.0
19163,61.0,0,119,12.0,0.0
19164,58.0,60,59,14.0,0.0
19165,73.0,0,59,13.0,0.0
19166,73.0,0,59,13.0,0.0
19167,58.0,60,59,14.0,0.0
19168,82.0,0,59,12.0,0.0
19169,82.0,0,59,1.0,0.0
19170,70.0,0,59,1.0,0.0
19171,73.0,0,59,13.0,0.0
19172,58.0,0,59,3.0,0.0
19173,58.0,0,59,14.0,0.0
19174,82.0,0,59,0.0,0.0
19175,70.0,60,59,2.0,0.0
19176,70.0,0,59,2.0,0.0
19177,70.0,60,59,1.0,0.0
19178,82.0,0,59,1.0,0.0
19179,60.0,0,59,14.0,0.0
19180,75.0,0,59,13.0,0.0
19181,58.0,0,59,3.0,0.0
19182,82.0,0,59,0.0,0.0
19183,82.0,0,59,12.0,0.0
19184,82.0,0,59,0.0,0.0
19185,82.0,0,59,12.0,0.0
19186,61.0,0,59,14.0,0.0
19187,58.0,0,59,3.0,0.0
19188,70.0,0,59,2.0,0.0
19189,77.0,0,59,13.0,0.0
19190,82.0,0,59,1.0,0.0
19191,70.0,60,59,1.0,0.0
19192,58.0,0,59,4.0,0.0
19193,58.0,0,59,3.0,0.0
19194,46.0,0,59,4.0,0.0
19195,70.0,0,59,1.0,0.0
19196,82.0,0,59,1.0,0.0
19197,58.0,0,59,15.0,0.0
19198,82.0,60,59,12.0,0.0
19199,77.0,0,59,13.0,0.0
19200,61.0,0,59,14.0,0.0
19201,46.0,0,59,15.0,0.0
19202,70.0,0,59,2.0,0.0
19203,82.0,0,59,0.0,0.0
19204,58.0,0,59,4.0,0.0
19205,46.0,0,59,4.0,0.0
19206,60.0,0,59,14.0,0.0
19207,46.0,60,59,15.0,0.0
19208,84.0,0,59,0.0,0.0
19209,58.0,0,59,15.0,0.0
19210,75.0,0,59,13.0,0.0
19211,60.0,0,59,3.0,0.0
19212,72.0,0,59,2.0,0.0
19213,84.0,0,59,12.0,0.0
19214,82.0,0,59,1.0,0.0
19215,70.0,0,59,1.0,0.0
19216,58.0,0,59,15.0,0.0
19217,46.0,0,59,4.0,0.0
19218,58.0,0,59,4.0,0.0
19219,73.0,0,59,13.0,0.0
19220,85.0,0,59,0.0,0.0
19221,61.0,60,59,3.0,0.0
19222,85.0,0,59,12.0,0.0
19223,46.0,0,59,15.0,0.0
19224,70.0,0,59,1.0,0.0
19225,82.0,0,59,1.0,0.0
19226,73.0,0,59,2.0,0.0
19227,58.0,0,59,14.0,0.0
19228,46.0,0,59,4.0,0.0
19229,58.0,0,59,4.0,0.0
19230,85.0,0,59,0.0,0.0
19231,70.0,0,59,1.0,0.0
19232,82.0,0,59,1.0,0.0
19233,73.0,0,59,13.0,0.0
19234,73.0,0,59,2.0,0.0
19235,65.0,0,59,14.0,0.0
19236,61.0,0,59,3.0,0.0
19237,46.0,0,59,15.0,0.0
19238,58.0,60,59,15.0,0.0
19239,85.0,0,59,12.0,0.0
19240,60.0,0,59,3.0,0.0
19241,72.0,0,59,2.0,0.0
19242,48.0,0,59,15.0,0.0
19243,60.0,0,59,15.0,0.0
19244,58.0,0,59,4.0,0.0
19245,46.0,0,59,4.0,0.0
19246,75.0,0,59,13.0,0.0
19247,84.0,0,59,12.0,0.0
19248,84.0,0,59,0.0,0.0
19249,63.0,0,59,14.0,0.0
19250,70.0,0,59,1.0,0.0
19251,82.0,60,59,1.0,0.0
19252,82.0,0,59,0.0,0.0
19253,58.0,0,59,4.0,0.0
19254,46.0,0,59,4.0,0.0
19255,61.0,0,59,15.0,0.0
19256,77.0,0,59,13.0,0.0
19257,49.0,0,59,15.0,0.0
19258,70.0,0,59,2.0,0.0
19259,58.0,60,59,3.0,0.0
19260,61.0,0,59,14.0,0.0
19261,82.0,0,59,1.0,0.0
19262,70.0,0,59,1.0,0.0
19263,82.0,0,59,12.0,0.0
19264,58.0,0,59,4.0,0.0
19265,73.0,0,59,13.0,0.0
19266,46.0,0,59,4.0,0.0
19267,70.0,0,59,1.0,0.0
19268,58.0,60,59,14.0,0.0
19269,58.0,0,59,15.0,0.0
19270,82.0,0,59,1.0,0.0
19271,46.0,0,59,15.0,0.0
19272,58.0,0,59,4.0,0.0
19273,44.0,0,59,15.0,0.0
19274,46.0,0,59,4.0,0.0
19275,82.0,0,59,1.0,0.0
19276,70.0,0,59,1.0,0.0
19277,56.0,0,59,15.0,0.0
19278,58.0,60,59,14.0,0.0
19279,73.0,0,59,13.0,0.0
19280,46.0,0,59,4.0,0.0
19281,42.0,0,59,15.0,0.0
19282,54.0,0,59,15.0,0.0
19283,82.0,0,59,1.0,0.0
19284,73.0,0,59,13.0,0.0
19285,70.0,0,59,1.0,0.0
19286,58.0,0,59,14.0,0.0
19287,58.0,60,59,4.0,0.0
19288,82.0,0,59,1.0,0.0
19289,70.0,0,59,1.0,0.0
19290,58.0,0,59,14.0,0.0
19291,58.0,0,59,3.0,0.0
19292,58.0,60,59,4.0,0.0
19293,70.0,0,59,2.0,0.0
19294,46.0,0,59,4.0,0.0
19295,82.0,0,59,12.0,0.0
19296,73.0,0,59,13.0,0.0
19297,82.0,0,59,0.0,0.0
19298,82.0,0,59,1.0,0.0
19299,82.0,0,59,0.0,0.0
19300,59.0,0,59,14.0,0.0
19301,46.0,0,59,4.0,0.0
19302,70.0,0,59,1.0,0.0
19303,58.0,0,59,3.0,0.0
19304,58.0,0,59,4.0,0.0
19305,82.0,0,59,12.0,0.0
19306,70.0,0,59,2.0,0.0
19307,75.0,60,59,13.0,0.0
19308,82.0,60,59,0.0,0.0
19309,82.0,0,59,12.0,0.0
19310,82.0,0,59,1.0,0.0
19311,70.0,0,59,1.0,0.0
19312,70.0,0,59,2.0,0.0
19313,61.0,0,59,14.0,0.0
19314,76.0,0,59,13.0,0.0
19315,58.0,0,59,3.0,0.0
19316,58.0,0,59,4.0,0.0
19317,46.0,0,59,4.0,0.0
19318,82.0,60,59,0.0,0.0
19319,46.0,0,59,4.0,0.0
19320,82.0,0,59,12.0,0.0
19321,58.0,0,59,4.0,0.0
19322,70.0,0,59,2.0,0.0
19323,76.0,0,59,13.0,0.0
19324,58.0,0,59,3.0,0.0
19325,61.0,0,59,14.0,0.0
19326,70.0,0,59,1.0,0.0
19327,82.0,0,59,1.0,0.0
19328,83.0,60,59,0.0,0.0
19329,70.0,0,59,1.0,0.0
19330,75.0,0,59,13.0,0.0
19331,83.0,0,59,12.0,0.0
19332,59.0,0,59,14.0,0.0
19333,82.0,0,59,1.0,0.0
19334,58.0,0,59,4.0,0.0
19335,59.0,0,59,3.0,0.0
19336,71.0,0,59,2.0,0.0
19337,46.0,0,59,4.0,0.0
19338,85.0,60,59,0.0,0.0
19339,85.0,0,59,12.0,0.0
19340,46.0,0,59,4.0,0.0
19341,58.0,0,59,4.0,0.0
19342,58.0,0,59,14.0,0.0
19343,73.0,0,59,2.0,0.0
19344,61.0,0,59,3.0,0.0
19345,73.0,0,59,13.0,0.0
19346,70.0,0,59,1.0,0.0
19347,82.0,0,59,1.0,0.0
19348,85.0,60,59,0.0,0.0
19349,82.0,0,59,1.0,0.0
19350,70.0,0,59,1.0,0.0
19351,46.0,0,59,4.0,0.0
19352,85.0,0,59,12.0,0.0
19353,61.0,0,59,3.0,0.0
19354,58.0,0,59,4.0,0.0
19355,54.0,0,59,15.0,0.0
19356,58.0,0,59,14.0,0.0
19357,42.0,0,59,15.0,0.0
19358,73.0,0,59,2.0,0.0
19359,73.0,0,59,13.0,0.0
19360,60.0,0,59,3.0,0.0
19361,83.0,0,59,12.0,0.0
19362,70.0,0,59,1.0,0.0
19363,82.0,0,59,1.0,0.0
19364,58.0,0,59,4.0,0.0
19365,71.0,0,59,2.0,0.0
19366,83.0,0,59,0.0,0.0
19367,46.0,0,59,4.0,0.0
19368,59.0,60,59,14.0,0.0
19369,42.0,0,59,15.0,0.0
19370,54.0,0,59,15.0,0.0
19371,75.0,0,59,13.0,0.0
19372,58.0,60,59,3.0,0.0
19373,58.0,0,59,4.0,0.0
19374,46.0,0,59,4.0,0.0
19375,82.0,0,59,0.0,0.0
19376,70.0,0,59,1.0,0.0
19377,82.0,0,59,1.0,0.0
19378,54.0,0,59,15.0,0.0
19379,76.0,0,59,13.0,0.0
19380,82.0,0,59,12.0,0.0
19381,70.0,0,59,2.0,0.0
19382,61.0,0,59,14.0,0.0
19383,42.0,0,59,15.0,0.0
19384,58.0,0,59,4.0,0.0
19385,46.0,0,59,4.0,0.0
19386,82.0,0,59,1.0,0.0
19387,70.0,0,59,1.0,0.0
19388,55.0,0,59,15.0,0.0
19389,64.0,0,59,14.0,0.0
19390,73.0,60,59,13.0,0.0
19391,43.0,0,59,15.0,0.0
19392,64.0,0,59,14.0,0.0
19393,82.0,0,59,1.0,0.0
19394,70.0,0,59,1.0,0.0
19395,55.0,0,59,15.0,0.0
19396,58.0,0,59,4.0,0.0
19397,46.0,0,59,4.0,0.0
19398,73.0,60,59,13.0,0.0
19399,67.0,0,59,15.0,0.0
19400,82.0,0,59,1.0,0.0
19401,64.0,0,59,14.0,0.0
19402,67.0,0,59,15.0,0.0
19403,70.0,0,59,1.0,0.0
19404,55.0,0,59,15.0,0.0
19405,58.0,60,59,4.0,0.0
19406,46.0,0,59,4.0,0.0
19407,73.0,0,59,13.0,0.0
19408,73.0,0,59,13.0,0.0
19409,70.0,0,59,2.0,0.0
19410,55.0,0,59,15.0,0.0
19411,85.0,0,59,0.0,0.0
19412,58.0,0,59,4.0,0.0
19413,46.0,0,59,4.0,0.0
19414,70.0,0,59,1.0,0.0
19415,67.0,0,59,15.0,0.0
19416,82.0,60,59,1.0,0.0
19417,58.0,0,59,3.0,0.0
19418,64.0,0,59,14.0,0.0
19419,82.0,0,59,12.0,0.0
19420,70.0,0,59,1.0,0.0
19421,82.0,0,59,1.0,0.0
19422,58.0,0,59,3.0,0.0
19423,54.0,0,59,15.0,0.0
19424,82.0,0,59,12.0,0.0
19425,46.0,0,59,4.0,0.0
19426,58.0,0,59,4.0,0.0
19427,66.0,0,59,14.0,0.0
19428,66.0,60,59,15.0,0.0
19429,70.0,0,59,2.0,0.0
19430,85.0,0,59,0.0,0.0
19431,74.0,0,59,13.0,0.0
19432,76.0,0,59,13.0,0.0
19433,64.0,0,59,15.0,0.0
19434,58.0,0,59,4.0,0.0
19435,70.0,0,59,1.0,0.0
19436,82.0,0,59,1.0,0.0
19437,58.0,0,59,3.0,0.0
19438,67.0,0,59,14.0,0.0
19439,85.0,60,59,0.0,0.0
19440,52.0,0,59,15.0,0.0
19441,46.0,0,59,4.0,0.0
19442,82.0,0,59,12.0,0.0
19443,70.0,0,59,2.0,0.0
19444,70.0,0,59,2.0,0.0
19445,52.0,0,59,15.0,0.0
19446,64.0,0,59,15.0,0.0
19447,70.0,0,59,1.0,0.0
19448,82.0,0,59,1.0,0.0
19449,76.0,0,59,13.0,0.0
19450,58.0,0,59,3.0,0.0
19451,73.0,60,59,14.0,0.0
19452,85.0,0,59,0.0,0.0
19453,58.0,0,59,4.0,0.0
19454,82.0,0,59,12.0,0.0
19455,46.0,0,59,4.0,0.0
19456,50.0,0,59,15.0,0.0
19457,78.0,0,59,13.0,0.0
19458,83.0,0,59,12.0,0.0
19459,62.0,0,59,15.0,0.0
19460,58.0,0,59,4.0,0.0
19461,59.0,0,59,3.0,0.0
19462,46.0,0,59,4.0,0.0
19463,74.0,0,59,14.0,0.0
19464,86.0,60,59,0.0,0.0
19465,83.0,0,59,1.0,0.0
19466,71.0,0,59,1.0,0.0
19467,71.0,0,59,2.0,0.0
19468,61.0,0,59,3.0,0.0
19469,49.0,0,59,15.0,0.0
19470,73.0,0,59,1.0,0.0
19471,73.0,60,59,2.0,0.0
19472,79.0,0,59,13.0,0.0
19473,76.0,0,59,14.0,0.0
19474,61.0,0,59,15.0,0.0
19475,85.0,0,59,1.0,0.0
19476,58.0,0,59,4.0,0.0
19477,46.0,0,59,4.0,0.0
19478,88.0,0,59,0.0,0.0
19479,85.0,0,59,12.0,0.0
19480,61.0,0,59,3.0,0.0
19481,46.0,0,59,4.0,0.0
19482,76.0,0,59,1.0,0.0
19483,73.0,0,59,1.0,0.0
19484,73.0,60,59,13.0,0.0
19485,58.0,0,59,4.0,0.0
19486,88.0,0,59,0.0,0.0
19487,76.0,0,59,2.0,0.0
19488,64.0,0,59,3.0,0.0
19489,54.0,0,59,15.0,0.0
19490,85.0,0,59,0.0,0.0
19491,66.0,0,59,15.0,0.0
19492,76.0,0,59,12.0,0.0
19493,67.0,0,59,14.0,0.0
19494,73.0,0,59,2.0,0.0
19495,66.0,0,59,14.0,0.0
19496,74.0,0,59,1.0,0.0
19497,78.0,0,59,1.0,0.0
19498,71.0,0,59,13.0,0.0
19499,66.0,60,59,3.0,0.0
19500,62.0,0,59,3.0,0.0
19501,74.0,0,59,2.0,0.0
19502,58.0,0,59,4.0,0.0
19503,74.0,0,59,12.0,0.0
19504,86.0,0,59,0.0,0.0
19505,46.0,0,59,4.0,0.0
19506,78.0,0,59,2.0,0.0
19507,42.0,0,59,15.0,0.0
19508,90.0,0,59,0.0,0.0
19509,54.0,0,59,15.0,0.0
19510,70.0,0,59,13.0,0.0
19511,42.0,0,59,15.0,0.0
19512,64.0,0,59,14.0,0.0
19513,64.0,0,59,3.0,0.0
19514,67.0,0,59,3.0,0.0
19515,73.0,0,59,12.0,0.0
19516,79.0,0,59,1.0,0.0
19517,46.0,0,59,4.0,0.0
19518,58.0,0,59,4.0,0.0
19519,76.0,0,59,1.0,0.0
19520,88.0,0,59,0.0,0.0
19521,54.0,0,59,15.0,0.0
19522,76.0,0,59,2.0,0.0
19523,91.0,0,59,0.0,0.0
19524,79.0,60,59,2.0,0.0
19525,66.0,0,59,3.0,0.0
19526,62.0,0,59,3.0,0.0
19527,71.0,0,119,1.0,0.0
19528,83.0,0,119,1.0,0.0
19529,54.0,0,59,14.0,0.0
19530,62.0,0,59,15.0,0.0
19531,59.0,0,119,2.0,0.0
19532,66.0,0,59,13.0,0.0
19533,50.0,0,59,15.0,0.0
19534,66.0,0,59,4.0,0.0
19535,71.0,0,119,12.0,0.0
19536,50.0,0,119,4.0,0.0
19537,54.0,60,59,4.0,0.0
19538,83.0,0,119,0.0,0.0
19539,71.0,0,119,2.0,0.0
19540,62.0,0,119,4.0,0.0
19541,66.0,0,59,14.0,0.0
19542,66.0,0,59,4.0,0.0
19543,54.0,0,59,4.0,0.0
19544,71.0,0,59,13.0,0.0
19545,50.0,60,59,15.0,0.0
19546,62.0,0,59,3.0,0.0
19547,62.0,0,59,15.0,0.0
19548,50.0,0,59,3.0,0.0
19549,71.0,0,59,2.0,0.0
19550,71.0,0,59,1.0,0.0
19551,59.0,0,59,2.0,0.0
19552,62.0,0,59,15.0,0.0
19553,62.0,0,59,3.0,0.0
19554,71.0,0,59,13.0,0.0
19555,66.0,0,59,14.0,0.0
19556,83.0,0,59,0.0,0.0
19557,54.0,60,59,4.0,0.0
19558,66.0,0,59,4.0,0.0
19559,83.0,0,59,1.0,0.0
19560,50.0,0,59,3.0,0.0
19561,50.0,0,59,15.0,0.0
19562,50.0,0,59,3.0,0.0
19563,71.0,0,59,13.0,0.0
19564,66.0,0,59,4.0,0.0
19565,66.0,0,59,14.0,0.0
19566,62.0,0,59,3.0,0.0
19567,54.0,0,59,4.0,0.0
19568,71.0,0,179,1.0,0.0
19569,83.0,0,59,12.0,0.0
19570,50.0,0,59,15.0,0.0
19571,71.0,0,179,2.0,0.0
19572,83.0,0,179,1.0,0.0
19573,59.0,0,179,2.0,0.0
19574,62.0,60,59,15.0,0.0
19575,83.0,0,179,0.0,0.0
19576,64.0,60,59,3.0,0.0
19577,64.0,0,59,15.0,0.0
19578,73.0,0,59,13.0,0.0
19579,83.0,0,299,12.0,0.0
19580,52.0,0,59,3.0,0.0
19581,66.0,0,59,4.0,0.0
19582,67.0,0,59,14.0,0.0
19583,54.0,0,59,4.0,0.0
19584,52.0,0,59,15.0,0.0
19585,74.0,60,59,13.0,0.0
19586,71.0,0,59,14.0,0.0
19587,54.0,0,59,4.0,0.0
19588,66.0,0,59,4.0,0.0
19589,66.0,0,59,3.0,0.0
19590,54.0,0,59,15.0,0.0
19591,66.0,0,59,15.0,0.0
19592,54.0,0,59,3.0,0.0
19593,71.0,60,59,14.0,0.0
19594,74.0,0,59,13.0,0.0
19595,54.0,0,59,15.0,0.0
19596,66.0,0,59,4.0,0.0
19597,66.0,0,59,15.0,0.0
19598,54.0,0,59,3.0,0.0
19599,66.0,0,59,3.0,0.0
19600,54.0,0,59,4.0,0.0
19601,54.0,60,59,4.0,0.0
19602,66.0,0,59,4.0,0.0
19603,71.0,0,59,14.0,0.0
19604,55.0,0,59,15.0,0.0
19605,76.0,0,59,13.0,0.0
19606,67.0,0,59,3.0,0.0
19607,67.0,0,59,15.0,0.0
19608,55.0,0,59,3.0,0.0
19609,76.0,0,59,13.0,0.0
19610,54.0,0,59,4.0,0.0
19611,66.0,0,59,4.0,0.0
19612,54.0,0,59,3.0,0.0
19613,54.0,0,59,15.0,0.0
19614,70.0,0,59,14.0,0.0
19615,66.0,0,59,3.0,0.0
19616,66.0,0,59,15.0,0.0
19617,61.0,0,59,2.0,0.0
19618,85.0,60,59,1.0,0.0
19619,73.0,0,59,1.0,0.0
19620,73.0,0,59,2.0,0.0
19621,85.0,0,59,0.0,0.0
19622,85.0,0,179,0.0,0.0
19623,73.0,0,59,13.0,0.0
19624,64.0,0,59,15.0,0.0
19625,52.0,0,59,3.0,0.0
19626,52.0,0,59,15.0,0.0
19627,85.0,0,59,12.0,0.0
19628,73.0,0,179,1.0,0.0
19629,85.0,0,179,1.0,0.0
19630,73.0,0,179,2.0,0.0
19631,64.0,0,59,3.0,0.0
19632,66.0,60,59,4.0,0.0
19633,54.0,0,59,4.0,0.0
19634,61.0,0,179,2.0,0.0
19635,67.0,0,59,14.0,0.0
19636,71.0,0,59,13.0,0.0
19637,62.0,60,59,3.0,0.0
19638,85.0,60,119,12.0,0.0
19639,50.0,0,59,3.0,0.0
19640,50.0,0,59,15.0,0.0
19641,54.0,0,59,4.0,0.0
19642,62.0,0,59,15.0,0.0
19643,66.0,0,59,14.0,0.0
19644,66.0,0,59,4.0,0.0
19645,54.0,0,59,4.0,0.0
19646,64.0,0,59,14.0,0.0
19647,66.0,0,59,4.0,0.0
19648,49.0,0,59,15.0,0.0
19649,61.0,0,59,15.0,0.0
19650,70.0,0,59,13.0,0.0
19651,49.0,0,59,3.0,0.0
19652,61.0,0,59,3.0,0.0
19653,48.0,60,59,15.0,0.0
19654,60.0,0,59,3.0,0.0
19655,48.0,0,59,3.0,0.0
19656,75.0,0,59,12.0,0.0
19657,60.0,0,59,15.0,0.0
19658,66.0,0,59,2.0,0.0
19659,70.0,0,59,2.0,0.0
19660,66.0,0,59,14.0,0.0
19661,66.0,0,59,4.0,0.0
19662,69.0,0,59,13.0,0.0
19663,87.0,0,59,0.0,0.0
19664,75.0,0,59,1.0,0.0
19665,63.0,0,59,1.0,0.0
19666,54.0,0,59,4.0,0.0
19667,59.0,0,59,15.0,0.0
19668,64.0,30,59,14.0,0.0
19669,64.0,0,59,4.0,0.0
19670,64.0,0,59,1.0,0.0
19671,76.0,0,59,1.0,0.0
19672,47.0,0,59,15.0,0.0
19673,67.0,0,59,4.0,0.0
19674,47.0,0,59,3.0,0.0
19675,67.0,0,59,2.0,0.0
19676,59.0,0,59,3.0,0.0
19677,76.0,0,59,12.0,0.0
19678,65.0,0,59,2.0,0.0
19679,88.0,0,59,0.0,0.0
19680,67.0,0,59,13.0,0.0
19681,67.0,0,59,2.0,0.0
19682,78.0,0,29,1.0,0.0
19683,66.0,0,29,1.0,0.0
19684,90.0,30,29,0.0,0.0
19685,65.0,0,59,2.0,0.0
19686,64.0,0,59,4.0,0.0
19687,78.0,0,29,12.0,0.0
19688,52.0,0,59,15.0,0.0
19689,57.0,0,29,14.0,0.0
19690,66.0,0,29,13.0,0.0
19691,64.0,0,59,15.0,0.0
19692,64.0,0,59,3.0,0.0
19693,67.0,0,59,4.0,0.0
19694,52.0,0,59,3.0,0.0
19695,64.0,60,29,13.0,0.0
19696,55.0,0,29,14.0,0.0
19697,91.0,0,29,0.0,0.0
19698,79.0,0,29,12.0,0.0
19699,79.0,0,29,1.0,0.0
19700,67.0,0,29,1.0,0.0
19701,79.0,0,59,12.0,0.0
19702,67.0,0,179,4.0,0.0
19703,52.0,0,299,15.0,0.0
19704,91.0,0,59,0.0,0.0
19705,67.0,0,179,2.0,0.0
19706,55.0,0,179,2.0,0.0
19707,64.0,0,179,3.0,0.0
19708,55.0,0,59,14.0,0.0
19709,59.0,60,59,13.0,0.0
19710,64.0,0,179,4.0,0.0
19711,79.0,0,59,1.0,0.0
19712,64.0,0,299,15.0,0.0
19713,52.0,0,179,3.0,0.0
19714,67.0,0,59,1.0,0.0
19715,72.0,0,59,14.0,0.0
19716,79.0,0,59,12.0,0.0
19717,79.0,0,59,1.0,0.0
19718,76.0,0,59,13.0,0.0
19719,67.0,0,59,1.0,0.0
19720,91.0,60,59,0.0,0.0
19721,91.0,0,59,0.0,0.0
19722,71.0,0,59,14.0,0.0
19723,79.0,60,59,1.0,0.0
19724,79.0,0,59,12.0,0.0
19725,76.0,0,59,13.0,0.0
19726,67.0,0,59,1.0,0.0
19727,67.0,0,59,1.0,0.0
19728,71.0,0,59,14.0,0.0
19729,91.0,60,59,0.0,0.0
19730,79.0,0,59,1.0,0.0
19731,76.0,0,59,13.0,0.0
19732,79.0,0,59,12.0,0.0
19733,93.0,0,59,0.0,0.0
19734,72.0,60,59,14.0,0.0
19735,81.0,0,59,12.0,0.0
19736,76.0,0,59,13.0,0.0
19737,81.0,0,59,1.0,0.0
19738,69.0,0,59,1.0,0.0
19739,76.0,0,59,13.0,0.0
19740,57.0,0,59,2.0,0.0
19741,67.0,0,59,1.0,0.0
19742,71.0,0,59,14.0,0.0
19743,66.0,0,59,3.0,0.0
19744,79.0,60,59,12.0,0.0
19745,69.0,0,59,2.0,0.0
19746,91.0,0,59,0.0,0.0
19747,54.0,0,59,3.0,0.0
19748,69.0,0,59,4.0,0.0
19749,66.0,0,59,4.0,0.0
19750,66.0,0,59,15.0,0.0
19751,54.0,0,59,15.0,0.0
19752,79.0,0,59,1.0,0.0
19753,69.0,0,59,14.0,0.0
19754,66.0,0,119,15.0,0.0
19755,54.0,0,119,15.0,0.0
19756,78.0,0,59,12.0,0.0
19757,66.0,0,179,3.0,0.0
19758,54.0,0,179,3.0,0.0
19759,57.0,0,179,2.0,0.0
19760,69.0,0,179,2.0,0.0
19761,90.0,0,59,0.0,0.0
19762,69.0,0,179,4.0,0.0
19763,66.0,0,179,4.0,0.0
19764,72.0,0,59,13.0,0.0
19765,78.0,60,59,1.0,0.0
19766,76.0,0,59,1.0,0.0
19767,71.0,0,59,13.0,0.0
19768,88.0,0,59,0.0,0.0
19769,67.0,60,59,14.0,0.0
19770,76.0,0,59,12.0,0.0
19771,75.0,60,59,1.0,0.0
19772,66.0,0,59,14.0,0.0
19773,70.0,0,59,13.0,0.0
19774,87.0,0,59,0.0,0.0
19775,75.0,0,59,12.0,0.0
19776,84.0,0,59,12.0,0.0
19777,69.0,0,59,14.0,0.0
19778,54.0,0,59,15.0,0.0
19779,84.0,0,59,1.0,0.0
19780,42.0,0,59,15.0,0.0
19781,51.0,60,119,3.0,0.0
19782,63.0,0,119,2.0,0.0
19783,63.0,0,119,13.0,0.0
19784,72.0,0,59,1.0,0.0
19785,93.0,60,59,0.0,0.0
19786,93.0,0,59,0.0,0.0
19787,42.0,0,59,15.0,0.0
19788,84.0,0,59,12.0,0.0
19789,84.0,0,59,1.0,0.0
19790,72.0,0,59,1.0,0.0
19791,69.0,0,59,14.0,0.0
19792,54.0,0,59,15.0,0.0
19793,84.0,0,59,1.0,0.0
19794,75.0,0,59,2.0,0.0
19795,54.0,0,59,15.0,0.0
19796,75.0,0,59,13.0,0.0
19797,84.0,0,59,12.0,0.0
19798,63.0,60,59,3.0,0.0
19799,69.0,0,59,14.0,0.0
19800,42.0,0,59,15.0,0.0
19801,93.0,0,59,0.0,0.0
19802,72.0,0,59,1.0,0.0
19803,69.0,0,59,14.0,0.0
19804,42.0,0,59,15.0,0.0
19805,93.0,0,59,0.0,0.0
19806,84.0,60,59,1.0,0.0
19807,72.0,0,59,1.0,0.0
19808,54.0,0,59,15.0,0.0
19809,75.0,0,179,2.0,0.0
19810,75.0,0,299,13.0,0.0
19811,84.0,0,59,12.0,0.0
19812,63.0,0,179,3.0,0.0
19813,71.0,0,59,1.0,0.0
19814,83.0,0,59,1.0,0.0
19815,55.0,60,59,15.0,0.0
19816,43.0,0,59,15.0,0.0
19817,83.0,0,59,12.0,0.0
19818,71.0,0,59,14.0,0.0
19819,91.0,0,59,0.0,0.0
19820,90.0,0,59,0.0,0.0
19821,45.0,0,59,15.0,0.0
19822,57.0,0,59,15.0,0.0
19823,81.0,60,59,12.0,0.0
19824,81.0,0,59,1.0,0.0
19825,69.0,0,59,1.0,0.0
19826,72.0,0,59,14.0,0.0
19827,71.0,0,59,14.0,0.0
19828,57.0,0,59,15.0,0.0
19829,66.0,60,59,1.0,0.0
19830,45.0,0,59,15.0,0.0
19831,87.0,0,59,0.0,0.0
19832,78.0,0,59,1.0,0.0
19833,78.0,0,59,12.0,0.0
19834,79.0,0,59,1.0,0.0
19835,87.0,0,59,0.0,0.0
19836,71.0,0,59,14.0,0.0
19837,47.0,0,59,15.0,0.0
19838,79.0,0,59,12.0,0.0
19839,59.0,60,59,15.0,0.0
19840,67.0,0,59,1.0,0.0
19841,71.0,0,59,14.0,0.0
19842,67.0,0,59,1.0,0.0
19843,79.0,0,59,1.0,0.0
19844,79.0,0,59,12.0,0.0
19845,76.0,60,59,2.0,0.0
19846,57.0,0,59,15.0,0.0
19847,64.0,0,59,3.0,0.0
19848,88.0,0,59,0.0,0.0
19849,76.0,0,59,13.0,0.0
19850,45.0,0,59,15.0,0.0
19851,67.0,0,59,4.0,0.0
19852,67.0,0,59,1.0,0.0
19853,71.0,0,59,14.0,0.0
19854,79.0,0,59,1.0,0.0
19855,43.0,0,59,15.0,0.0
19856,79.0,0,59,12.0,0.0
19857,67.0,0,179,4.0,0.0
19858,76.0,60,179,2.0,0.0
19859,55.0,60,59,15.0,0.0
19860,76.0,60,119,13.0,0.0
19861,64.0,0,179,3.0,0.0
19862,88.0,0,59,0.0,0.0
19863,69.0,0,59,14.0,0.0
19864,81.0,0,59,12.0,0.0
19865,81.0,0,59,1.0,0.0
19866,69.0,0,59,1.0,0.0
19867,54.0,0,59,15.0,0.0
19868,42.0,0,59,15.0,0.0
19869,90.0,0,59,0.0,0.0
19870,83.0,0,59,12.0,0.0
19871,83.0,0,59,1.0,0.0
19872,71.0,0,59,1.0,0.0
19873,40.0,0,59,15.0,0.0
19874,76.0,0,179,13.0,0.0
19875,91.0,0,59,0.0,0.0
19876,52.0,0,59,15.0,0.0
19877,67.0,0,59,14.0,0.0
19878,40.0,60,59,15.0,0.0
19879,67.0,0,59,14.0,0.0
19880,52.0,0,59,15.0,0.0
19881,83.0,0,59,1.0,0.0
19882,71.0,0,59,1.0,0.0
19883,83.0,0,59,12.0,0.0
19884,91.0,0,59,0.0,0.0
19885,72.0,0,59,1.0,0.0
19886,84.0,0,59,12.0,0.0
19887,91.0,60,59,0.0,0.0
19888,40.0,0,59,15.0,0.0
19889,52.0,0,59,15.0,0.0
19890,69.0,0,59,14.0,0.0
19891,84.0,0,59,1.0,0.0
19892,51.0,0,59,15.0,0.0
19893,78.0,0,59,13.0,0.0
19894,66.0,0,59,4.0,0.0
19895,71.0,0,59,1.0,0.0
19896,69.0,0,59,4.0,0.0
19897,93.0,0,59,0.0,0.0
19898,83.0,0,59,1.0,0.0
19899,66.0,0,59,14.0,0.0
19900,83.0,0,59,12.0,0.0
19901,66.0,60,59,3.0,0.0
19902,63.0,0,59,15.0,0.0
19903,78.0,0,59,2.0,0.0
19904,78.0,0,59,13.0,0.0
19905,81.0,0,59,12.0,0.0
19906,78.0,0,179,2.0,0.0
19907,69.0,0,59,1.0,0.0
19908,66.0,0,179,3.0,0.0
19909,93.0,0,59,0.0,0.0
19910,66.0,0,299,4.0,0.0
19911,69.0,0,299,4.0,0.0
19912,51.0,0,299,15.0,0.0
19913,63.0,0,299,15.0,0.0
19914,81.0,60,59,1.0,0.0
19915,66.0,60,119,14.0,0.0
19916,91.0,0,59,0.0,0.0
19917,79.0,0,59,12.0,0.0
19918,79.0,0,59,1.0,0.0
19919,71.0,0,59,13.0,0.0
19920,67.0,0,59,1.0,0.0
19921,66.0,0,59,14.0,0.0
19922,90.0,60,59,0.0,0.0
19923,78.0,0,59,1.0,0.0
19924,71.0,0,59,13.0,0.0
19925,66.0,0,59,1.0,0.0
19926,78.0,0,59,12.0,0.0
19927,81.0,0,59,12.0,0.0
19928,93.0,60,59,0.0,0.0
19929,66.0,0,119,14.0,0.0
19930,71.0,0,59,13.0,0.0
19931,81.0,60,119,1.0,0.0
19932,78.0,0,119,1.0,0.0
19933,59.0,0,59,13.0,0.0
19934,83.0,0,59,12.0,0.0
19935,93.0,0,59,0.0,0.0
19936,78.0,0,59,1.0,0.0
19937,66.0,0,59,4.0,0.0
19938,63.0,60,59,3.0,0.0
19939,51.0,0,59,3.0,0.0
19940,93.0,0,59,0.0,0.0
19941,78.0,0,59,2.0,0.0
19942,66.0,0,59,2.0,0.0
19943,81.0,0,59,12.0,0.0
19944,51.0,0,59,15.0,0.0
19945,63.0,0,59,15.0,0.0
19946,59.0,0,59,13.0,0.0
19947,66.0,0,59,14.0,0.0
19948,69.0,0,59,4.0,0.0
19949,81.0,0,59,1.0,0.0
19950,64.0,0,119,15.0,0.0
19951,67.0,60,119,14.0,0.0
19952,67.0,0,119,4.0,0.0
19953,91.0,0,59,0.0,0.0
19954,76.0,0,119,1.0,0.0
19955,59.0,0,59,13.0,0.0
19956,64.0,0,179,3.0,0.0
19957,64.0,0,119,4.0,0.0
19958,52.0,0,119,15.0,0.0
19959,79.0,0,119,1.0,0.0
19960,52.0,0,179,3.0,0.0
19961,67.0,0,179,2.0,0.0
19962,79.0,0,179,2.0,0.0
19963,79.0,60,59,12.0,0.0
19964,71.0,0,59,13.0,0.0
19965,78.0,0,59,12.0,0.0
19966,90.0,0,59,0.0,0.0
19967,64.0,60,59,15.0,0.0
19968,79.0,0,59,1.0,0.0
19969,88.0,0,59,0.0,0.0
19970,76.0,0,59,12.0,0.0
19971,52.0,0,59,15.0,0.0
19972,67.0,0,59,14.0,0.0
19973,76.0,0,59,1.0,0.0
19974,67.0,0,59,4.0,0.0
19975,64.0,0,59,4.0,0.0
19976,71.0,0,59,13.0,0.0
19977,49.0,0,119,15.0,0.0
19978,76.0,0,59,13.0,0.0
19979,64.0,0,119,4.0,0.0
19980,76.0,0,119,1.0,0.0
19981,79.0,0,119,1.0,0.0
19982,67.0,0,119,4.0,0.0
19983,64.0,0,119,14.0,0.0
19984,61.0,0,119,15.0,0.0
19985,79.0,0,59,12.0,0.0
19986,91.0,60,59,0.0,0.0
19987,69.0,0,59,13.0,0.0
19988,93.0,0,59,0.0,0.0
19989,81.0,60,59,12.0,0.0
19990,49.0,0,59,3.0,0.0
19991,69.0,0,59,13.0,0.0
19992,49.0,0,59,15.0,0.0
19993,79.0,0,59,12.0,0.0
19994,64.0,0,59,14.0,0.0
19995,91.0,0,59,0.0,0.0
19996,64.0,0,59,2.0,0.0
19997,76.0,0,59,2.0,0.0
19998,64.0,60,59,4.0,0.0
19999,67.0,0,59,4.0,0.0
20000,61.0,0,59,15.0,0.0
20001,79.0,0,59,1.0,0.0
20002,76.0,0,59,1.0,0.0
20003,61.0,0,59,3.0,0.0
20004,66.0,0,179,2.0,0.0
20005,78.0,0,179,2.0,0.0
20006,50.0,0,179,3.0,0.0
20007,90.0,0,59,0.0,0.0
20008,74.0,0,119,1.0,0.0
20009,66.0,0,119,14.0,0.0
20010,69.0,0,59,13.0,0.0
20011,62.0,0,119,15.0,0.0
20012,62.0,0,179,3.0,0.0
20013,78.0,0,119,1.0,0.0
20014,78.0,60,59,12.0,0.0
20015,62.0,0,119,4.0,0.0
20016,66.0,60,119,4.0,0.0
20017,50.0,0,119,15.0,0.0
20018,74.0,0,59,13.0,0.0
20019,88.0,0,59,0.0,0.0
20020,76.0,0,59,12.0,0.0
20021,78.0,0,59,1.0,0.0
20022,86.0,0,59,0.0,0.0
20023,62.0,0,59,4.0,0.0
20024,66.0,60,59,14.0,0.0
20025,74.0,0,59,13.0,0.0
20026,66.0,0,59,4.0,0.0
20027,62.0,0,59,15.0,0.0
20028,74.0,0,59,12.0,0.0
20029,50.0,0,59,15.0,0.0
20030,74.0,0,59,1.0,0.0
20031,59.0,0,119,15.0,0.0
20032,78.0,0,119,1.0,0.0
20033,62.0,0,119,14.0,0.0
20034,74.0,0,59,13.0,0.0
20035,47.0,0,119,15.0,0.0
20036,66.0,60,119,4.0,0.0
20037,74.0,0,119,1.0,0.0
20038,78.0,0,59,12.0,0.0
20039,62.0,0,119,4.0,0.0
20040,90.0,60,59,0.0,0.0
20041,91.0,0,59,0.0,0.0
20042,67.0,0,59,13.0,0.0
20043,79.0,0,59,12.0,0.0
20044,59.0,0,59,15.0,0.0
20045,78.0,0,59,12.0,0.0
20046,47.0,0,59,3.0,0.0
20047,59.0,0,59,3.0,0.0
20048,47.0,0,59,15.0,0.0
20049,62.0,0,59,2.0,0.0
20050,62.0,0,59,4.0,0.0
20051,90.0,0,59,0.0,0.0
20052,74.0,0,59,1.0,0.0
20053,62.0,0,59,14.0,0.0
20054,66.0,60,59,4.0,0.0
20055,67.0,0,59,13.0,0.0
20056,74.0,0,59,2.0,0.0
20057,78.0,0,59,1.0,0.0
20058,73.0,0,119,1.0,0.0
20059,76.0,0,119,1.0,0.0
20060,64.0,0,119,14.0,0.0
20061,64.0,0,119,4.0,0.0
20062,67.0,0,59,13.0,0.0
20063,88.0,0,59,0.0,0.0
20064,76.0,60,59,12.0,0.0
20065,61.0,0,179,3.0,0.0
20066,49.0,0,179,3.0,0.0
20067,61.0,0,119,15.0,0.0
20068,76.0,60,179,2.0,0.0
20069,64.0,0,179,2.0,0.0
20070,49.0,0,119,15.0,0.0
20071,74.0,0,59,12.0,0.0
20072,73.0,60,59,13.0,0.0
20073,86.0,0,59,0.0,0.0
20074,64.0,0,59,14.0,0.0
20075,76.0,0,59,1.0,0.0
20076,61.0,0,59,15.0,0.0
20077,64.0,0,59,4.0,0.0
20078,73.0,0,59,1.0,0.0
20079,73.0,0,59,12.0,0.0
20080,49.0,0,59,15.0,0.0
20081,73.0,0,59,13.0,0.0
20082,85.0,0,59,0.0,0.0
20083,61.0,60,119,14.0,0.0
20084,64.0,0,119,4.0,0.0
20085,88.0,0,59,0.0,0.0
20086,58.0,0,119,15.0,0.0
20087,46.0,0,119,15.0,0.0
20088,76.0,0,119,1.0,0.0
20089,76.0,0,59,12.0,0.0
20090,73.0,60,59,13.0,0.0
20091,73.0,0,119,1.0,0.0
20092,66.0,0,59,13.0,0.0
20093,78.0,0,59,12.0,0.0
20094,90.0,0,59,0.0,0.0
20095,61.0,0,59,14.0,0.0
20096,73.0,0,59,1.0,0.0
20097,76.0,0,59,1.0,0.0
20098,58.0,0,59,3.0,0.0
20099,46.0,0,59,3.0,0.0
20100,46.0,0,59,15.0,0.0
20101,88.0,0,59,0.0,0.0
20102,66.0,0,59,13.0,0.0
20103,73.0,0,59,2.0,0.0
20104,61.0,0,59,2.0,0.0
20105,76.0,0,59,12.0,0.0
20106,58.0,60,59,15.0,0.0
20107,54.0,0,59,4.0,0.0
20108,66.0,0,59,4.0,0.0
20109,59.0,0,119,15.0,0.0
20110,66.0,0,119,4.0,0.0
20111,62.0,0,179,2.0,0.0
20112,47.0,0,179,3.0,0.0
20113,74.0,0,179,2.0,0.0
20114,59.0,60,179,3.0,0.0
20115,54.0,0,119,4.0,0.0
20116,71.0,0,119,1.0,0.0
20117,74.0,0,119,1.0,0.0
20118,62.0,0,119,14.0,0.0
20119,86.0,0,59,0.0,0.0
20120,47.0,60,119,15.0,0.0
20121,74.0,60,59,12.0,0.0
20122,66.0,0,59,13.0,0.0
20123,85.0,0,59,0.0,0.0
20124,66.0,0,59,13.0,0.0
20125,73.0,0,59,12.0,0.0
20126,66.0,0,59,13.0,0.0
20127,71.0,0,59,12.0,0.0
20128,71.0,0,59,1.0,0.0
20129,62.0,0,59,14.0,0.0
20130,66.0,0,59,4.0,0.0
20131,54.0,0,59,4.0,0.0
20132,83.0,0,59,0.0,0.0
20133,59.0,0,59,15.0,0.0
20134,47.0,0,59,15.0,0.0
20135,74.0,0,59,1.0,0.0
20136,70.0,0,59,1.0,0.0
20137,67.0,0,59,14.0,0.0
20138,61.0,0,59,3.0,0.0
20139,70.0,0,59,12.0,0.0
20140,52.0,0,59,15.0,0.0
20141,66.0,0,59,4.0,0.0
20142,54.0,0,59,4.0,0.0
20143,73.0,60,59,1.0,0.0
20144,73.0,0,59,13.0,0.0
20145,82.0,0,59,0.0,0.0
20146,64.0,0,59,15.0,0.0
20147,78.0,0,59,0.0,0.0
20148,90.0,0,59,0.0,0.0
20149,67.0,0,59,14.0,0.0
20150,58.0,0,59,3.0,0.0
20151,66.0,0,59,4.0,0.0
20152,52.0,0,59,15.0,0.0
20153,54.0,0,59,4.0,0.0
20154,82.0,0,59,12.0,0.0
20155,74.0,0,59,13.0,0.0
20156,70.0,60,59,1.0,0.0
20157,82.0,0,59,1.0,0.0
20158,64.0,0,59,15.0,0.0
20159,58.0,0,59,3.0,0.0
20160,70.0,0,59,1.0,0.0
20161,78.0,0,59,0.0,0.0
20162,90.0,0,59,0.0,0.0
20163,52.0,0,59,15.0,0.0
20164,67.0,0,59,14.0,0.0
20165,82.0,60,59,1.0,0.0
20166,54.0,0,59,4.0,0.0
20167,66.0,0,59,4.0,0.0
20168,73.0,0,59,13.0,0.0
20169,82.0,0,59,12.0,0.0
20170,64.0,0,59,15.0,0.0
20171,59.0,60,59,3.0,0.0
20172,71.0,0,59,13.0,0.0
20173,66.0,0,59,14.0,0.0
20174,62.0,0,59,15.0,0.0
20175,83.0,0,59,1.0,0.0
20176,66.0,0,59,4.0,0.0
20177,54.0,0,59,4.0,0.0
20178,90.0,0,59,0.0,0.0
20179,78.0,0,59,0.0,0.0
20180,50.0,0,59,15.0,0.0
20181,83.0,0,59,12.0,0.0
20182,71.0,0,59,1.0,0.0
20183,71.0,0,59,1.0,0.0
20184,83.0,0,59,1.0,0.0
20185,78.0,0,59,0.0,0.0
20186,61.0,0,59,15.0,0.0
20187,59.0,0,59,3.0,0.0
20188,54.0,0,59,4.0,0.0
20189,66.0,0,59,4.0,0.0
20190,70.0,0,59,13.0,0.0
20191,83.0,0,59,12.0,0.0
20192,49.0,0,59,15.0,0.0
20193,90.0,0,59,0.0,0.0
20194,64.0,60,59,14.0,0.0
20195,83.0,0,59,1.0,0.0
20196,59.0,0,59,15.0,0.0
20197,66.0,0,59,4.0,0.0
20198,54.0,0,59,4.0,0.0
20199,71.0,0,59,1.0,0.0
20200,47.0,0,59,15.0,0.0
20201,83.0,60,59,12.0,0.0
20202,90.0,0,59,0.0,0.0
20203,68.0,0,59,13.0,0.0
20204,59.0,0,59,3.0,0.0
20205,62.0,0,59,14.0,0.0
20206,78.0,0,59,0.0,0.0
20207,90.0,0,119,0.0,0.0
20208,66.0,0,59,13.0,0.0
20209,78.0,0,119,0.0,0.0
20210,61.0,0,59,14.0,0.0
20211,66.0,0,59,4.0,0.0
20212,54.0,0,59,4.0,0.0
20213,46.0,60,59,15.0,0.0
20214,58.0,0,59,15.0,0.0
20215,85.0,0,119,12.0,0.0
20216,85.0,0,119,1.0,0.0
20217,73.0,0,119,1.0,0.0
20218,61.0,0,119,3.0,0.0
20219,47.0,0,59,15.0,0.0
20220,68.0,0,59,14.0,0.0
20221,62.0,60,59,13.0,0.0
20222,59.0,0,59,15.0,0.0
20223,54.0,0,59,4.0,0.0
20224,66.0,0,59,4.0,0.0
20225,78.0,0,59,1.0,0.0
20226,49.0,0,59,15.0,0.0
20227,54.0,0,59,4.0,0.0
20228,66.0,0,59,4.0,0.0
20229,90.0,0,59,0.0,0.0
20230,78.0,0,59,0.0,0.0
20231,66.0,0,59,1.0,0.0
20232,70.0,0,59,14.0,0.0
20233,64.0,0,59,13.0,0.0
20234,78.0,0,59,12.0,0.0
20235,61.0,60,59,15.0,0.0
20236,54.0,0,59,3.0,0.0
20237,61.0,0,59,15.0,0.0
20238,78.0,0,299,12.0,0.0
20239,66.0,0,179,1.0,0.0
20240,54.0,0,59,4.0,0.0
20241,90.0,0,179,0.0,0.0
20242,54.0,0,179,3.0,0.0
20243,49.0,0,59,15.0,0.0
20244,64.0,0,59,13.0,0.0
20245,70.0,60,59,14.0,0.0
20246,78.0,0,179,1.0,0.0
20247,78.0,0,179,0.0,0.0
20248,66.0,0,59,4.0,0.0
20249,54.0,0,59,4.0,0.0
20250,49.0,0,59,15.0,0.0
20251,66.0,0,59,4.0,0.0
20252,64.0,60,59,13.0,0.0
20253,70.0,0,59,14.0,0.0
20254,61.0,0,59,15.0,0.0
20255,70.0,0,59,14.0,0.0
20256,64.0,60,59,13.0,0.0
20257,66.0,0,59,4.0,0.0
20258,61.0,0,59,15.0,0.0
20259,54.0,0,59,4.0,0.0
20260,49.0,0,59,15.0,0.0
20261,70.0,0,59,14.0,0.0
20262,54.0,0,59,4.0,0.0
20263,66.0,0,59,4.0,0.0
20264,49.0,0,59,15.0,0.0
20265,61.0,0,59,15.0,0.0
20266,64.0,60,59,13.0,0.0
20267,71.0,0,59,14.0,0.0
20268,62.0,60,59,15.0,0.0
20269,50.0,0,59,15.0,0.0
20270,54.0,0,59,4.0,0.0
20271,66.0,0,59,4.0,0.0
20272,66.0,0,59,13.0,0.0
20273,64.0,0,59,13.0,0.0
20274,49.0,0,59,15.0,0.0
20275,61.0,0,59,15.0,0.0
20276,70.0,0,59,14.0,0.0
20277,54.0,60,59,4.0,0.0
20278,78.0,0,59,1.0,0.0
20279,66.0,0,59,1.0,0.0
20280,54.0,0,59,3.0,0.0
20281,78.0,0,59,12.0,0.0
20282,66.0,0,59,4.0,0.0
20283,90.0,0,59,0.0,0.0
20284,78.0,0,59,0.0,0.0
20285,80.0,0,119,0.0,0.0
20286,47.0,0,59,15.0,0.0
20287,68.0,0,59,14.0,0.0
20288,54.0,0,59,4.0,0.0
20289,62.0,60,59,13.0,0.0
20290,66.0,0,59,4.0,0.0
20291,68.0,0,119,1.0,0.0
20292,80.0,0,119,1.0,0.0
20293,80.0,0,119,12.0,0.0
20294,92.0,0,119,0.0,0.0
20295,59.0,0,59,15.0,0.0
20296,56.0,0,119,3.0,0.0
20297,46.0,0,59,15.0,0.0
20298,66.0,60,59,14.0,0.0
20299,54.0,0,59,4.0,0.0
20300,61.0,0,59,13.0,0.0
20301,66.0,0,59,4.0,0.0
20302,58.0,0,59,15.0,0.0
20303,59.0,0,59,13.0,0.0
20304,44.0,0,59,15.0,0.0
20305,56.0,0,59,15.0,0.0
20306,65.0,60,59,14.0,0.0
20307,66.0,0,59,4.0,0.0
20308,54.0,0,59,4.0,0.0
20309,71.0,60,59,12.0,0.0
20310,44.0,60,119,15.0,0.0
20311,65.0,0,59,13.0,0.0
20312,56.0,0,59,13.0,0.0
20313,32.0,0,119,15.0,0.0
20314,50.0,0,119,4.0,0.0
20315,59.0,0,59,14.0,0.0
20316,62.0,0,119,4.0,0.0
20317,65.0,0,59,13.0,0.0
20318,59.0,0,59,14.0,0.0
20319,56.0,0,59,13.0,0.0
20320,73.0,0,59,12.0,0.0
20321,56.0,0,59,15.0,0.0
20322,77.0,0,59,1.0,0.0
20323,44.0,60,59,3.0,0.0
20324,50.0,0,59,4.0,0.0
20325,59.0,0,59,14.0,0.0
20326,59.0,0,59,2.0,0.0
20327,62.0,0,59,4.0,0.0
20328,74.0,0,59,12.0,0.0
20329,56.0,0,59,3.0,0.0
20330,77.0,0,59,0.0,0.0
20331,71.0,0,59,2.0,0.0
20332,65.0,0,59,1.0,0.0
20333,56.0,0,59,13.0,0.0
20334,65.0,0,59,13.0,0.0
20335,44.0,0,59,15.0,0.0
20336,89.0,0,59,0.0,0.0
20337,77.0,0,179,0.0,0.0
20338,89.0,0,179,0.0,0.0
20339,62.0,60,179,4.0,0.0
20340,50.0,0,179,4.0,0.0
20341,65.0,0,179,1.0,0.0
20342,74.0,0,59,12.0,0.0
20343,59.0,0,179,2.0,0.0
20344,71.0,0,179,2.0,0.0
20345,77.0,0,179,1.0,0.0
20346,59.0,60,59,13.0,0.0
20347,44.0,0,299,15.0,0.0
20348,44.0,0,179,3.0,0.0
20349,56.0,0,179,3.0,0.0
20350,65.0,0,59,14.0,0.0
20351,56.0,0,299,15.0,0.0
20352,65.0,0,59,14.0,0.0
20353,59.0,0,59,13.0,0.0
20354,74.0,60,59,12.0,0.0
20355,74.0,0,59,12.0,0.0
20356,59.0,0,59,13.0,0.0
20357,65.0,0,59,14.0,0.0
20358,59.0,0,59,13.0,0.0
20359,74.0,0,59,12.0,0.0
20360,65.0,60,59,14.0,0.0
20361,65.0,0,59,14.0,0.0
20362,59.0,0,59,13.0,0.0
20363,76.0,60,59,12.0,0.0
20364,56.0,0,59,3.0,0.0
20365,44.0,60,59,3.0,0.0
20366,59.0,0,59,13.0,0.0
20367,77.0,0,59,1.0,0.0
20368,65.0,0,59,14.0,0.0
20369,71.0,0,59,2.0,0.0
20370,59.0,0,59,2.0,0.0
20371,74.0,0,59,12.0,0.0
20372,65.0,0,59,1.0,0.0
20373,89.0,0,59,0.0,0.0
20374,56.0,0,59,15.0,0.0
20375,44.0,0,59,15.0,0.0
20376,77.0,0,59,0.0,0.0
20377,66.0,60,179,1.0,0.0
20378,78.0,0,179,1.0,0.0
20379,54.0,0,59,4.0,0.0
20380,58.0,0,119,3.0,0.0
20381,46.0,0,119,3.0,0.0
20382,66.0,60,59,4.0,0.0
20383,73.0,0,119,2.0,0.0
20384,73.0,0,59,12.0,0.0
20385,58.0,0,119,15.0,0.0
20386,61.0,0,59,13.0,0.0
20387,46.0,0,119,15.0,0.0
20388,66.0,0,59,14.0,0.0
20389,90.0,0,179,0.0,0.0
20390,61.0,0,119,2.0,0.0
20391,78.0,0,179,0.0,0.0
20392,54.0,0,59,4.0,0.0
20393,66.0,0,59,4.0,0.0
20394,71.0,0,59,12.0,0.0
20395,66.0,0,59,14.0,0.0
20396,61.0,60,59,13.0,0.0
20397,54.0,0,59,4.0,0.0
20398,66.0,0,59,4.0,0.0
20399,61.0,0,59,13.0,0.0
20400,70.0,0,59,12.0,0.0
20401,66.0,0,59,14.0,0.0
20402,73.0,60,59,13.0,0.0
20403,66.0,0,59,4.0,0.0
20404,54.0,0,59,4.0,0.0
20405,85.0,0,119,12.0,0.0
20406,30.0,0,119,15.0,0.0
20407,58.0,0,59,14.0,0.0
20408,42.0,0,119,15.0,0.0
20409,59.0,60,59,14.0,0.0
20410,54.0,0,59,4.0,0.0
20411,66.0,0,59,4.0,0.0
20412,74.0,0,59,13.0,0.0
20413,54.0,0,59,3.0,0.0
20414,76.0,0,59,13.0,0.0
20415,61.0,0,59,14.0,0.0
20416,66.0,60,59,4.0,0.0
20417,54.0,0,59,4.0,0.0
20418,42.0,0,59,15.0,0.0
20419,90.0,0,59,0.0,0.0
20420,82.0,0,59,12.0,0.0
20421,73.0,0,59,2.0,0.0
20422,58.0,0,59,3.0,0.0
20423,76.0,0,59,2.0,0.0
20424,76.0,0,59,1.0,0.0
20425,54.0,0,59,15.0,0.0
20426,85.0,0,59,1.0,0.0
20427,78.0,0,59,0.0,0.0
20428,82.0,60,299,12.0,0.0
20429,76.0,0,179,2.0,0.0
20430,73.0,0,179,2.0,0.0
20431,58.0,0,179,3.0,0.0
20432,54.0,0,179,3.0,0.0
20433,61.0,0,59,14.0,0.0
20434,78.0,0,179,0.0,0.0
20435,42.0,0,299,15.0,0.0
20436,85.0,0,179,1.0,0.0
20437,76.0,0,179,1.0,0.0
20438,54.0,0,299,15.0,0.0
20439,66.0,0,59,4.0,0.0
20440,54.0,0,59,4.0,0.0
20441,90.0,0,179,0.0,0.0
20442,76.0,60,59,13.0,0.0
20443,54.0,0,59,4.0,0.0
20444,66.0,0,59,4.0,0.0
20445,76.0,0,59,13.0,0.0
20446,61.0,60,59,14.0,0.0
20447,66.0,0,59,4.0,0.0
20448,61.0,0,59,14.0,0.0
20449,76.0,0,59,13.0,0.0
20450,54.0,60,59,4.0,0.0
20451,54.0,0,59,4.0,0.0
20452,61.0,0,59,14.0,0.0
20453,76.0,60,59,13.0,0.0
20454,66.0,0,59,4.0,0.0
20455,62.0,0,59,14.0,0.0
20456,54.0,0,59,4.0,0.0
20457,78.0,0,59,13.0,0.0
20458,66.0,0,59,4.0,0.0
20459,66.0,60,59,4.0,0.0
20460,54.0,0,59,4.0,0.0
20461,58.0,0,59,3.0,0.0
20462,54.0,0,59,3.0,0.0
20463,76.0,0,59,1.0,0.0
20464,61.0,0,59,14.0,0.0
20465,73.0,0,59,2.0,0.0
20466,85.0,0,59,1.0,0.0
20467,76.0,0,59,2.0,0.0
20468,76.0,0,59,13.0,0.0
20469,90.0,0,59,0.0,0.0
20470,78.0,0,59,0.0,0.0
20471,54.0,0,59,15.0,0.0
20472,42.0,0,59,15.0,0.0
20473,82.0,0,59,12.0,0.0
20474,74.0,0,179,1.0,0.0
20475,83.0,0,179,1.0,0.0
20476,59.0,60,59,14.0,0.0
20477,56.0,60,119,15.0,0.0
20478,77.0,0,179,2.0,0.0
20479,71.0,0,179,2.0,0.0
20480,44.0,0,119,15.0,0.0
20481,83.0,0,179,0.0,0.0
20482,74.0,0,59,13.0,0.0
20483,83.0,0,119,12.0,0.0
20484,56.0,60,179,3.0,0.0
20485,66.0,0,59,4.0,0.0
20486,54.0,0,59,4.0,0.0
20487,89.0,0,179,0.0,0.0
20488,59.0,0,179,3.0,0.0
20489,54.0,0,59,4.0,0.0
20490,73.0,0,59,13.0,0.0
20491,58.0,0,59,14.0,0.0
20492,66.0,0,59,4.0,0.0
20493,56.0,0,59,14.0,0.0
20494,66.0,0,59,4.0,0.0
20495,54.0,0,59,4.0,0.0
20496,71.0,0,59,13.0,0.0
20497,59.0,0,59,15.0,0.0
20498,62.0,0,119,4.0,0.0
20499,65.0,60,59,14.0,0.0
20500,74.0,0,59,13.0,0.0
20501,50.0,0,119,4.0,0.0
20502,80.0,0,119,12.0,0.0
20503,47.0,0,59,15.0,0.0
20504,65.0,0,59,14.0,0.0
20505,49.0,0,59,15.0,0.0
20506,61.0,60,59,15.0,0.0
20507,73.0,0,59,13.0,0.0
20508,65.0,0,59,3.0,0.0
20509,62.0,0,59,3.0,0.0
20510,50.0,0,59,15.0,0.0
20511,65.0,60,59,14.0,0.0
20512,80.0,0,59,1.0,0.0
20513,71.0,0,59,1.0,0.0
20514,62.0,0,59,4.0,0.0
20515,68.0,0,59,2.0,0.0
20516,50.0,0,59,4.0,0.0
20517,71.0,0,59,13.0,0.0
20518,62.0,0,59,15.0,0.0
20519,80.0,0,59,0.0,0.0
20520,68.0,0,59,12.0,0.0
20521,71.0,0,59,2.0,0.0
20522,71.0,0,179,2.0,0.0
20523,65.0,60,59,14.0,0.0
20524,80.0,0,179,0.0,0.0
20525,68.0,60,179,2.0,0.0
20526,62.0,0,179,3.0,0.0
20527,50.0,0,179,4.0,0.0
20528,50.0,0,59,15.0,0.0
20529,71.0,0,179,1.0,0.0
20530,68.0,60,299,12.0,0.0
20531,62.0,0,179,4.0,0.0
20532,62.0,0,59,15.0,0.0
20533,65.0,0,179,3.0,0.0
20534,80.0,0,179,1.0,0.0
20535,71.0,0,59,13.0,0.0
20536,71.0,60,59,13.0,0.0
20537,65.0,0,59,14.0,0.0
20538,50.0,0,59,15.0,0.0
20539,62.0,0,59,15.0,0.0
20540,65.0,0,59,14.0,0.0
20541,71.0,0,59,13.0,0.0
20542,62.0,0,59,15.0,0.0
20543,50.0,0,59,15.0,0.0
20544,62.0,0,59,15.0,0.0
20545,50.0,0,59,15.0,0.0
20546,71.0,60,59,13.0,0.0
20547,50.0,0,119,4.0,0.0
20548,62.0,0,119,4.0,0.0
20549,65.0,0,59,14.0,0.0
20550,52.0,0,59,15.0,0.0
20551,64.0,0,59,15.0,0.0
20552,71.0,0,59,13.0,0.0
20553,65.0,0,59,14.0,0.0
20554,68.0,0,59,12.0,0.0
20555,62.0,60,59,15.0,0.0
20556,50.0,0,59,4.0,0.0
20557,62.0,0,59,4.0,0.0
20558,71.0,0,59,13.0,0.0
20559,62.0,0,59,3.0,0.0
20560,80.0,0,59,1.0,0.0
20561,65.0,0,59,3.0,0.0
20562,65.0,0,59,14.0,0.0
20563,71.0,0,59,1.0,0.0
20564,68.0,0,59,2.0,0.0
20565,80.0,0,59,0.0,0.0
20566,71.0,0,59,2.0,0.0
20567,50.0,0,59,15.0,0.0
20568,61.0,0,59,15.0,0.0
20569,70.0,0,119,12.0,0.0
20570,64.0,0,119,3.0,0.0
20571,70.0,0,179,2.0,0.0
20572,73.0,0,179,2.0,0.0
20573,61.0,60,119,3.0,0.0
20574,49.0,60,59,15.0,0.0
20575,73.0,0,179,1.0,0.0
20576,82.0,60,179,1.0,0.0
20577,73.0,0,59,13.0,0.0
20578,64.0,0,59,14.0,0.0
20579,82.0,0,179,0.0,0.0
20580,64.0,0,119,4.0,0.0
20581,73.0,0,59,13.0,0.0
20582,64.0,0,59,14.0,0.0
20583,50.0,0,59,15.0,0.0
20584,62.0,0,59,15.0,0.0
20585,64.0,0,59,3.0,0.0
20586,49.0,0,59,15.0,0.0
20587,64.0,0,59,14.0,0.0
20588,61.0,0,59,3.0,0.0
20589,61.0,0,59,15.0,0.0
20590,70.0,0,59,12.0,0.0
20591,73.0,0,59,13.0,0.0
20592,73.0,0,59,13.0,0.0
20593,52.0,0,59,15.0,0.0
20594,64.0,0,59,15.0,0.0
20595,64.0,0,119,3.0,0.0
20596,67.0,0,119,3.0,0.0
20597,67.0,60,59,14.0,0.0
20598,70.0,0,119,12.0,0.0
20599,67.0,0,119,4.0,0.0
20600,64.0,60,119,4.0,0.0
20601,66.0,0,59,15.0,0.0
20602,67.0,0,59,14.0,0.0
20603,54.0,0,59,15.0,0.0
20604,74.0,0,59,13.0,0.0
20605,73.0,0,59,2.0,0.0
20606,70.0,0,59,12.0,0.0
20607,64.0,0,59,4.0,0.0
20608,67.0,0,59,3.0,0.0
20609,64.0,0,59,3.0,0.0
20610,82.0,0,59,0.0,0.0
20611,64.0,0,59,15.0,0.0
20612,67.0,0,59,14.0,0.0
20613,73.0,0,59,1.0,0.0
20614,82.0,0,59,1.0,0.0
20615,52.0,0,59,15.0,0.0
20616,70.0,60,59,2.0,0.0
20617,73.0,0,59,13.0,0.0
20618,67.0,0,59,4.0,0.0
20619,66.0,60,119,3.0,0.0
20620,83.0,0,179,0.0,0.0
20621,66.0,0,119,4.0,0.0
20622,66.0,60,59,14.0,0.0
20623,71.0,0,179,2.0,0.0
20624,50.0,0,59,15.0,0.0
20625,83.0,0,179,1.0,0.0
20626,74.0,0,179,2.0,0.0
20627,71.0,0,59,13.0,0.0
20628,74.0,0,179,1.0,0.0
20629,62.0,0,119,4.0,0.0
20630,71.0,0,119,12.0,0.0
20631,62.0,0,119,3.0,0.0
20632,62.0,0,59,15.0,0.0
20633,52.0,0,59,15.0,0.0
20634,73.0,0,59,13.0,0.0
20635,66.0,0,59,14.0,0.0
20636,64.0,0,59,15.0,0.0
20637,66.0,60,59,3.0,0.0
20638,62.0,0,59,3.0,0.0
20639,71.0,0,59,12.0,0.0
20640,71.0,0,59,13.0,0.0
20641,50.0,0,59,15.0,0.0
20642,62.0,0,59,4.0,0.0
20643,66.0,0,59,4.0,0.0
20644,66.0,0,59,14.0,0.0
20645,62.0,0,59,15.0,0.0
20646,66.0,60,59,15.0,0.0
20647,69.0,0,119,4.0,0.0
20648,66.0,0,119,4.0,0.0
20649,69.0,0,59,14.0,0.0
20650,69.0,0,119,3.0,0.0
20651,66.0,0,119,3.0,0.0
20652,54.0,0,59,15.0,0.0
20653,71.0,0,119,12.0,0.0
20654,74.0,0,59,13.0,0.0
20655,76.0,0,59,13.0,0.0
20656,55.0,0,59,15.0,0.0
20657,67.0,0,59,15.0,0.0
20658,71.0,60,59,14.0,0.0
20659,66.0,60,59,15.0,0.0
20660,71.0,0,59,12.0,0.0
20661,66.0,0,59,3.0,0.0
20662,74.0,0,59,13.0,0.0
20663,83.0,0,59,1.0,0.0
20664,74.0,0,59,1.0,0.0
20665,74.0,0,59,2.0,0.0
20666,71.0,0,59,2.0,0.0
20667,54.0,0,59,15.0,0.0
20668,83.0,0,59,0.0,0.0
20669,69.0,0,59,3.0,0.0
20670,69.0,0,59,14.0,0.0
20671,69.0,0,59,4.0,0.0
20672,66.0,0,59,4.0,0.0
20673,64.0,60,59,15.0,0.0
20674,85.0,0,179,0.0,0.0
20675,73.0,0,59,13.0,0.0
20676,67.0,0,59,14.0,0.0
20677,85.0,60,179,1.0,0.0
20678,76.0,0,179,1.0,0.0
20679,73.0,0,179,2.0,0.0
20680,52.0,0,59,15.0,0.0
20681,73.0,0,119,12.0,0.0
20682,67.0,0,119,4.0,0.0
20683,64.0,0,119,3.0,0.0
20684,67.0,0,119,3.0,0.0
20685,64.0,0,119,4.0,0.0
20686,76.0,0,179,2.0,0.0
20687,66.0,0,59,15.0,0.0
20688,54.0,0,59,15.0,0.0
20689,69.0,60,59,14.0,0.0
20690,74.0,0,59,13.0,0.0
20691,73.0,0,59,12.0,0.0
20692,64.0,0,59,15.0,0.0
20693,67.0,0,59,3.0,0.0
20694,64.0,0,59,3.0,0.0
20695,67.0,0,59,4.0,0.0
20696,64.0,0,59,4.0,0.0
20697,67.0,0,59,14.0,0.0
20698,52.0,0,59,15.0,0.0
20699,73.0,0,59,13.0,0.0
20700,69.0,0,119,4.0,0.0
20701,55.0,0,119,3.0,0.0
20702,57.0,0,119,4.0,0.0
20703,69.0,0,59,13.0,0.0
20704,64.0,0,59,14.0,0.0
20705,55.0,0,59,15.0,0.0
20706,43.0,60,59,15.0,0.0
20707,43.0,0,119,3.0,0.0
20708,73.0,60,119,12.0,0.0
20709,57.0,0,59,15.0,0.0
20710,69.0,0,59,13.0,0.0
20711,45.0,0,59,15.0,0.0
20712,66.0,0,59,14.0,0.0
20713,69.0,0,59,4.0,0.0
20714,64.0,0,59,14.0,0.0
20715,73.0,0,59,2.0,0.0
20716,69.0,0,59,13.0,0.0
20717,43.0,0,59,15.0,0.0
20718,73.0,0,59,12.0,0.0
20719,55.0,0,59,3.0,0.0
20720,55.0,0,59,15.0,0.0
20721,43.0,0,59,3.0,0.0
20722,76.0,0,59,1.0,0.0
20723,76.0,0,59,2.0,0.0
20724,85.0,0,59,0.0,0.0
20725,57.0,60,59,4.0,0.0
20726,85.0,0,59,1.0,0.0
20727,69.0,0,179,2.0,0.0
20728,69.0,0,59,13.0,0.0
20729,86.0,0,179,0.0,0.0
20730,42.0,0,59,15.0,0.0
20731,57.0,60,119,4.0,0.0
20732,69.0,0,119,4.0,0.0
20733,78.0,0,179,1.0,0.0
20734,54.0,0,59,15.0,0.0
20735,42.0,0,119,3.0,0.0
20736,54.0,0,119,3.0,0.0
20737,74.0,0,119,12.0,0.0
20738,62.0,60,59,14.0,0.0
20739,81.0,0,179,2.0,0.0
20740,86.0,0,179,1.0,0.0
20741,69.0,0,59,13.0,0.0
20742,43.0,0,59,15.0,0.0
20743,55.0,0,59,15.0,0.0
20744,64.0,0,59,14.0,0.0
20745,54.0,0,59,3.0,0.0
20746,54.0,0,59,15.0,0.0
20747,42.0,60,59,3.0,0.0
20748,74.0,0,59,12.0,0.0
20749,69.0,0,59,13.0,0.0
20750,42.0,0,59,15.0,0.0
20751,62.0,0,59,14.0,0.0
20752,69.0,0,59,4.0,0.0
20753,57.0,0,59,4.0,0.0
20754,45.0,0,59,15.0,0.0
20755,45.0,0,119,3.0,0.0
20756,66.0,0,59,14.0,0.0
20757,69.0,0,119,4.0,0.0
20758,57.0,0,119,3.0,0.0
20759,75.0,0,119,12.0,0.0
20760,57.0,60,59,15.0,0.0
20761,71.0,0,59,13.0,0.0
20762,57.0,60,119,4.0,0.0
20763,47.0,0,59,15.0,0.0
20764,67.0,0,59,14.0,0.0
20765,71.0,0,59,13.0,0.0
20766,59.0,0,59,15.0,0.0
20767,45.0,0,59,15.0,0.0
20768,66.0,0,59,4.0,0.0
20769,57.0,0,59,3.0,0.0
20770,45.0,0,59,3.0,0.0
20771,66.0,0,59,14.0,0.0
20772,71.0,0,59,2.0,0.0
20773,75.0,0,59,12.0,0.0
20774,71.0,0,59,13.0,0.0
20775,87.0,0,59,0.0,0.0
20776,54.0,0,59,4.0,0.0
20777,75.0,0,59,1.0,0.0
20778,78.0,0,59,1.0,0.0
20779,66.0,60,59,2.0,0.0
20780,57.0,0,59,15.0,0.0
20781,43.0,0,119,3.0,0.0
20782,55.0,0,119,3.0,0.0
20783,88.0,0,179,0.0,0.0
20784,43.0,60,59,15.0,0.0
20785,64.0,0,179,2.0,0.0
20786,71.0,0,179,2.0,0.0
20787,64.0,0,119,4.0,0.0
20788,71.0,60,179,1.0,0.0
20789,83.0,0,179,1.0,0.0
20790,76.0,60,119,12.0,0.0
20791,64.0,0,59,14.0,0.0
20792,55.0,0,59,15.0,0.0
20793,71.0,0,59,13.0,0.0
20794,45.0,0,59,15.0,0.0
20795,66.0,0,59,14.0,0.0
20796,57.0,0,59,15.0,0.0
20797,71.0,0,59,13.0,0.0
20798,71.0,0,59,13.0,0.0
20799,55.0,0,59,15.0,0.0
20800,43.0,0,59,15.0,0.0
20801,43.0,0,59,3.0,0.0
20802,76.0,0,59,12.0,0.0
20803,55.0,0,59,3.0,0.0
20804,64.0,0,59,4.0,0.0
20805,64.0,0,59,14.0,0.0
20806,55.0,60,59,15.0,0.0
20807,71.0,0,59,14.0,0.0
20808,76.0,0,119,12.0,0.0
20809,55.0,0,119,3.0,0.0
20810,71.0,0,59,13.0,0.0
20811,43.0,0,119,3.0,0.0
20812,67.0,0,119,4.0,0.0
20813,43.0,0,59,15.0,0.0
20814,73.0,0,59,14.0,0.0
20815,83.0,0,59,13.0,0.0
20816,45.0,0,59,15.0,0.0
20817,57.0,60,59,15.0,0.0
20818,71.0,0,59,14.0,0.0
20819,55.0,0,59,3.0,0.0
20820,43.0,0,59,3.0,0.0
20821,71.0,0,59,2.0,0.0
20822,64.0,0,59,2.0,0.0
20823,83.0,0,59,13.0,0.0
20824,67.0,0,59,4.0,0.0
20825,88.0,0,59,0.0,0.0
20826,76.0,0,59,12.0,0.0
20827,83.0,0,59,0.0,0.0
20828,55.0,60,59,15.0,0.0
20829,43.0,0,59,15.0,0.0
20830,76.0,0,59,1.0,0.0
20831,71.0,0,59,1.0,0.0
20832,59.0,60,59,14.0,0.0
20833,77.0,0,119,12.0,0.0
20834,83.0,0,179,0.0,0.0
20835,43.0,0,59,15.0,0.0
20836,71.0,0,179,1.0,0.0
20837,77.0,0,179,1.0,0.0
20838,67.0,0,119,4.0,0.0
20839,89.0,0,179,0.0,0.0
20840,83.0,0,59,13.0,0.0
20841,43.0,0,119,3.0,0.0
20842,55.0,0,119,3.0,0.0
20843,31.0,0,59,15.0,0.0
20844,65.0,0,179,2.0,0.0
20845,71.0,0,179,2.0,0.0
20846,33.0,60,59,15.0,0.0
20847,45.0,0,59,15.0,0.0
20848,61.0,0,59,14.0,0.0
20849,83.0,0,59,13.0,0.0
20850,59.0,60,59,14.0,0.0
20851,67.0,0,59,4.0,0.0
20852,43.0,0,59,15.0,0.0
20853,83.0,0,59,13.0,0.0
20854,43.0,0,59,3.0,0.0
20855,55.0,0,59,3.0,0.0
20856,77.0,0,59,12.0,0.0
20857,31.0,0,59,15.0,0.0
20858,31.0,60,59,15.0,0.0
20859,83.0,0,59,13.0,0.0
20860,59.0,0,59,14.0,0.0
20861,77.0,0,119,12.0,0.0
20862,55.0,0,119,3.0,0.0
20863,43.0,0,119,3.0,0.0
20864,43.0,0,59,15.0,0.0
20865,67.0,0,119,4.0,0.0
20866,83.0,60,59,13.0,0.0
20867,61.0,0,59,14.0,0.0
20868,33.0,0,59,15.0,0.0
20869,45.0,0,59,15.0,0.0
20870,59.0,60,59,14.0,0.0
20871,71.0,0,59,1.0,0.0
20872,67.0,0,59,4.0,0.0
20873,43.0,0,59,15.0,0.0
20874,77.0,0,59,12.0,0.0
20875,73.0,0,59,13.0,0.0
20876,77.0,0,59,1.0,0.0
20877,89.0,0,59,0.0,0.0
20878,83.0,0,59,0.0,0.0
20879,31.0,0,59,15.0,0.0
20880,55.0,0,59,3.0,0.0
20881,71.0,0,59,2.0,0.0
20882,65.0,0,59,2.0,0.0
20883,43.0,0,59,3.0,0.0
20884,66.0,0,119,4.0,0.0
20885,54.0,0,119,4.0,0.0
20886,42.0,0,119,3.0,0.0
20887,73.0,60,59,13.0,0.0
20888,30.0,0,59,15.0,0.0
20889,78.0,0,119,1.0,0.0
20890,58.0,0,59,14.0,0.0
20891,42.0,0,59,15.0,0.0
20892,66.0,0,119,2.0,0.0
20893,54.0,0,119,3.0,0.0
20894,78.0,60,119,2.0,0.0
20895,66.0,0,119,1.0,0.0
20896,78.0,0,119,0.0,0.0
20897,90.0,0,119,0.0,0.0
20898,78.0,0,119,12.0,0.0
20899,43.0,0,59,15.0,0.0
20900,73.0,0,59,13.0,0.0
20901,59.0,0,59,14.0,0.0
20902,31.0,0,59,15.0,0.0
20903,78.0,0,59,12.0,0.0
20904,58.0,0,59,14.0,0.0
20905,66.0,0,59,4.0,0.0
20906,90.0,0,59,0.0,0.0
20907,78.0,0,59,0.0,0.0
20908,66.0,0,59,13.0,0.0
20909,42.0,0,59,3.0,0.0
20910,54.0,0,59,3.0,0.0
20911,30.0,0,59,15.0,0.0
20912,66.0,0,59,1.0,0.0
20913,54.0,0,59,4.0,0.0
20914,42.0,0,59,15.0,0.0
20915,78.0,120,59,2.0,0.0
20916,78.0,0,59,1.0,0.0
20917,66.0,0,59,2.0,0.0
20918,78.0,0,119,2.0,0.0
20919,66.0,0,119,2.0,0.0
20920,42.0,60,119,3.0,0.0
20921,78.0,0,119,12.0,0.0
20922,66.0,0,119,1.0,0.0
20923,42.0,0,119,15.0,0.0
20924,90.0,0,119,0.0,0.0
20925,78.0,0,119,1.0,0.0
20926,66.0,0,119,13.0,0.0
20927,54.0,0,119,3.0,0.0
20928,54.0,0,119,14.0,0.0
20929,78.0,0,119,0.0,0.0
20930,54.0,0,119,4.0,0.0
20931,66.0,0,119,4.0,0.0
20932,30.0,0,119,15.0,0.0
20933,42.0,0,59,15.0,0.0
20934,42.0,0,59,3.0,0.0
20935,78.0,300,59,0.0,0.0
20936,78.0,0,59,12.0,0.0
20937,66.0,0,59,13.0,0.0
20938,90.0,0,59,0.0,0.0
20939,66.0,0,59,2.0,0.0
20940,78.0,0,59,2.0,0.0
20941,54.0,0,59,14.0,0.0
20942,54.0,0,59,3.0,0.0
20943,78.0,0,59,1.0,0.0
20944,66.0,0,59,1.0,0.0
20945,66.0,0,59,4.0,0.0
20946,54.0,0,59,4.0,0.0
20947,54.0,0,59,15.0,0.0
20948,66.0,0,299,1.0,0.0
20949,78.0,0,299,1.0,0.0
20950,54.0,0,299,4.0,0.0
20951,78.0,0,299,13.0,0.0
20952,54.0,0,299,3.0,0.0
20953,66.0,0,299,3.0,0.0
20954,90.0,0,299,0.0,0.0
20955,78.0,60,299,0.0,0.0
20956,66.0,0,299,4.0,0.0
20957,78.0,0,299,2.0,0.0
20958,90.0,0,299,12.0,0.0
20959,66.0,0,299,14.0,0.0
20960,54.0,0,299,15.0,0.0
20961,66.0,0,299,2.0,0.0
20962,66.0,0,299,15.0,0.0
20963,90.0,0,59,12.0,0.0
20964,78.0,0,59,2.0,0.0
20965,66.0,0,59,2.0,0.0
20966,66.0,0,59,15.0,0.0
20967,90.0,0,59,0.0,0.0
20968,78.0,300,59,0.0,0.0
20969,66.0,0,59,3.0,0.0
20970,78.0,0,59,1.0,0.0
20971,66.0,0,59,4.0,0.0
20972,54.0,0,59,4.0,0.0
20973,54.0,0,59,15.0,0.0
20974,78.0,0,59,13.0,0.0
20975,66.0,0,59,14.0,0.0
20976,66.0,0,59,1.0,0.0
20977,54.0,0,59,3.0,0.0
20978,78.0,0,299,1.0,0.0
20979,66.0,0,299,1.0,0.0
20980,54.0,0,299,15.0,0.0
20981,42.0,0,299,15.0,0.0
20982,78.0,0,299,2.0,0.0
20983,54.0,0,299,3.0,0.0
20984,78.0,0,299,12.0,0.0
20985,90.0,0,299,0.0,0.0
20986,78.0,0,299,0.0,0.0
20987,42.0,0,299,3.0,0.0
20988,66.0,0,299,14.0,0.0
20989,78.0,60,299,13.0,0.0
20990,66.0,0,299,2.0,0.0
20991,54.0,0,299,4.0,0.0
20992,66.0,0,299,4.0,0.0
20993,78.0,0,59,2.0,0.0
20994,54.0,0,59,15.0,0.0
20995,66.0,0,59,14.0,0.0
20996,66.0,0,59,1.0,0.0
20997,78.0,0,59,1.0,0.0
20998,78.0,0,59,12.0,0.0
20999,78.0,0,59,0.0,0.0
21000,90.0,0,59,0.0,0.0
21001,66.0,0,59,2.0,0.0
21002,54.0,0,59,3.0,0.0
21003,42.0,300,59,15.0,0.0
21004,78.0,0,59,13.0,0.0
21005,54.0,0,59,4.0,0.0
21006,66.0,0,59,4.0,0.0
21007,42.0,0,299,3.0,0.0
21008,54.0,0,299,14.0,0.0
21009,78.0,0,299,1.0,0.0
21010,66.0,0,299,13.0,0.0
21011,66.0,60,299,12.0,0.0
21012,30.0,0,299,15.0,0.0
21013,42.0,0,299,15.0,0.0
21014,66.0,0,299,1.0,0.0
21015,90.0,0,299,0.0,0.0
21016,54.0,0,299,4.0,0.0
21017,78.0,0,299,0.0,0.0
21018,66.0,0,299,4.0,0.0
21019,78.0,0,299,2.0,0.0
21020,66.0,0,299,2.0,0.0
21021,78.0,0,59,2.0,0.0
21022,54.0,0,59,14.0,0.0
21023,42.0,0,59,15.0,0.0
21024,66.0,0,59,4.0,0.0
21025,54.0,300,59,4.0,0.0
21026,30.0,0,59,15.0,0.0
21027,66.0,0,59,12.0,0.0
21028,66.0,0,59,2.0,0.0
21029,78.0,0,59,0.0,0.0
21030,90.0,0,59,0.0,0.0
21031,42.0,0,59,3.0,0.0
21032,78.0,0,59,1.0,0.0
21033,66.0,0,59,13.0,0.0
21034,66.0,0,59,1.0,0.0
21035,54.0,0,299,15.0,0.0
21036,78.0,0,299,1.0,0.0
21037,66.0,0,299,1.0,0.0
21038,42.0,0,299,15.0,0.0
21039,54.0,0,299,3.0,0.0
21040,78.0,0,299,0.0,0.0
21041,66.0,0,299,4.0,0.0
21042,78.0,0,299,12.0,0.0
21043,66.0,0,299,14.0,0.0
21044,78.0,0,299,13.0,0.0
21045,66.0,0,299,2.0,0.0
21046,90.0,0,299,0.0,0.0
21047,54.0,0,299,4.0,0.0
21048,78.0,60,299,2.0,0.0
21049,42.0,0,59,15.0,0.0
21050,54.0,0,59,3.0,0.0
21051,66.0,0,59,14.0,0.0
21052,78.0,300,59,0.0,0.0
21053,90.0,0,59,0.0,0.0
21054,66.0,0,59,2.0,0.0
21055,66.0,0,59,4.0,0.0
21056,78.0,0,59,1.0,0.0
21057,66.0,0,59,1.0,0.0
21058,78.0,0,59,2.0,0.0
21059,78.0,0,59,13.0,0.0
21060,54.0,0,59,15.0,0.0
21061,78.0,0,59,12.0,0.0
21062,54.0,0,59,4.0,0.0
21063,66.0,0,299,2.0,0.0
21064,90.0,0,299,12.0,0.0
21065,66.0,0,299,15.0,0.0
21066,66.0,0,299,4.0,0.0
21067,54.0,0,299,4.0,0.0
21068,66.0,0,299,3.0,0.0
21069,78.0,0,299,13.0,0.0
21070,78.0,0,299,2.0,0.0
21071,66.0,0,299,14.0,0.0
21072,78.0,60,299,0.0,0.0
21073,54.0,0,299,15.0,0.0
21074,90.0,0,299,0.0,0.0
21075,78.0,0,299,1.0,0.0
21076,66.0,0,299,1.0,0.0
21077,66.0,0,59,2.0,0.0
21078,78.0,0,59,2.0,0.0
21079,66.0,0,59,14.0,0.0
21080,78.0,0,59,1.0,0.0
21081,66.0,0,59,4.0,0.0
21082,54.0,0,59,4.0,0.0
21083,78.0,300,59,0.0,0.0
21084,66.0,0,59,1.0,0.0
21085,66.0,0,59,15.0,0.0
21086,90.0,0,59,12.0,0.0
21087,66.0,0,59,3.0,0.0
21088,78.0,0,59,13.0,0.0
21089,90.0,0,59,0.0,0.0
21090,54.0,0,59,15.0,0.0
21091,54.0,0,299,3.0,0.0
21092,78.0,0,299,12.0,0.0
21093,54.0,0,299,15.0,0.0
21094,78.0,0,299,0.0,0.0
21095,66.0,0,299,4.0,0.0
21096,42.0,0,299,15.0,0.0
21097,90.0,0,299,0.0,0.0
21098,78.0,0,299,1.0,0.0
21099,66.0,60,299,1.0,0.0
21100,54.0,0,299,14.0,0.0
21101,78.0,0,299,2.0,0.0
21102,66.0,0,299,2.0,0.0
21103,54.0,0,299,4.0,0.0
21104,66.0,0,299,13.0,0.0
21105,66.0,0,59,4.0,0.0
21106,66.0,0,59,13.0,0.0
21107,54.0,300,59,4.0,0.0
21108,42.0,0,59,15.0,0.0
21109,54.0,0,59,14.0,0.0
21110,78.0,0,59,0.0,0.0
21111,90.0,0,59,0.0,0.0
21112,66.0,0,59,1.0,0.0
21113,66.0,0,59,2.0,0.0
21114,78.0,0,59,2.0,0.0
21115,78.0,0,59,1.0,0.0
21116,78.0,0,59,12.0,0.0
21117,54.0,0,59,15.0,0.0
21118,54.0,0,59,3.0,0.0
21119,90.0,60,299,0.0,0.0
21120,66.0,0,299,1.0,0.0
21121,78.0,0,299,2.0,0.0
21122,66.0,0,299,2.0,0.0
21123,42.0,0,299,3.0,0.0
21124,54.0,0,299,14.0,0.0
21125,66.0,0,299,13.0,0.0
21126,66.0,0,299,12.0,0.0
21127,66.0,0,299,4.0,0.0
21128,54.0,0,299,4.0,0.0
21129,30.0,0,299,15.0,0.0
21130,78.0,0,299,1.0,0.0
21131,42.0,0,299,15.0,0.0
21132,78.0,0,299,0.0,0.0
21133,66.0,0,59,13.0,0.0
21134,30.0,0,59,15.0,0.0
21135,78.0,300,59,0.0,0.0
21136,66.0,0,59,1.0,0.0
21137,78.0,0,59,1.0,0.0
21138,54.0,0,59,14.0,0.0
21139,42.0,0,59,15.0,0.0
21140,66.0,0,59,12.0,0.0
21141,42.0,0,59,3.0,0.0
21142,90.0,0,59,0.0,0.0
21143,66.0,0,59,2.0,0.0
21144,78.0,0,59,2.0,0.0
21145,66.0,0,59,4.0,0.0
21146,54.0,0,59,4.0,0.0
21147,78.0,0,299,12.0,0.0
21148,42.0,60,299,15.0,0.0
21149,90.0,0,299,0.0,0.0
21150,54.0,0,299,3.0,0.0
21151,78.0,0,299,1.0,0.0
21152,78.0,0,299,0.0,0.0
21153,66.0,0,299,14.0,0.0
21154,66.0,0,299,4.0,0.0
21155,54.0,0,299,4.0,0.0
21156,66.0,0,299,1.0,0.0
21157,78.0,0,299,13.0,0.0
21158,54.0,0,299,15.0,0.0
21159,78.0,0,299,2.0,0.0
21160,66.0,0,299,2.0,0.0
21161,66.0,300,59,4.0,0.0
21162,54.0,0,59,4.0,0.0
21163,54.0,60,299,4.0,0.0
21164,66.0,0,299,4.0,0.0
21165,66.0,300,59,4.0,0.0
21166,54.0,0,59,4.0,0.0
21167,54.0,60,299,4.0,0.0
21168,66.0,0,299,4.0,0.0
21169,54.0,0,59,4.0,0.0
21170,66.0,300,59,4.0,0.0
21171,66.0,60,299,4.0,0.0
21172,54.0,0,299,4.0,0.0
21173,54.0,0,59,4.0,0.0
21174,66.0,180,59,4.0,0.0
21175,54.0,0,179,4.0,0.0
21176,66.0,360,179,4.0,0.0
21177,66.0,60,839,4.0,0.0
21178,59.0,0,719,14.0,0.0
21179,63.0,0,359,3.0,0.0
21180,54.0,0,839,4.0,0.0
21181,59.0,0,359,3.0,0.0
21182,35.0,0,719,15.0,0.0
21183,47.0,120,719,15.0,0.0
21184,75.0,0,359,1.0,0.0
21185,71.0,180,359,1.0,0.0
21186,59.0,0,719,12.0,0.0
21187,59.0,0,719,13.0,0.0
21188,61.0,180,179,3.0,0.0
21189,64.0,0,179,3.0,0.0
21190,76.0,0,179,1.0,0.0
21191,73.0,0,179,1.0,0.0
21192,78.0,0,179,1.0,0.0
21193,66.0,0,179,3.0,0.0
21194,75.0,0,179,1.0,0.0
21195,63.0,0,179,3.0,0.0
21196,66.0,0,59,4.0,0.0
21197,54.0,300,59,4.0,0.0
21198,66.0,0,299,4.0,0.0
21199,54.0,60,299,4.0,0.0
21200,66.0,300,59,4.0,0.0
21201,54.0,0,59,4.0,0.0
21202,54.0,60,299,4.0,0.0
21203,66.0,0,299,4.0,0.0
21204,54.0,300,59,4.0,0.0
21205,66.0,0,59,4.0,0.0
21206,66.0,0,299,4.0,0.0
21207,54.0,60,299,4.0,0.0
21208,66.0,180,59,4.0,0.0
21209,54.0,0,59,4.0,0.0
21210,66.0,0,179,4.0,0.0
21211,54.0,360,179,4.0,0.0
21212,59.0,0,719,12.0,0.0
21213,35.0,0,719,15.0,0.0
21214,59.0,0,719,13.0,0.0
21215,62.0,0,359,3.0,0.0
21216,47.0,0,719,15.0,0.0
21217,59.0,0,359,3.0,0.0
21218,66.0,0,839,4.0,0.0
21219,59.0,120,719,14.0,0.0
21220,54.0,60,839,4.0,0.0
21221,74.0,0,359,1.0,0.0
21222,71.0,180,359,1.0,0.0
21223,73.0,0,179,1.0,0.0
21224,61.0,0,179,3.0,0.0
21225,64.0,0,179,3.0,0.0
21226,76.0,180,179,1.0,0.0
21227,74.0,0,179,1.0,0.0
21228,66.0,0,179,3.0,0.0
21229,62.0,0,179,3.0,0.0
21230,78.0,0,179,1.0,0.0
21231,66.0,300,59,4.0,0.0
21232,54.0,0,59,4.0,0.0
21233,54.0,0,299,4.0,0.0
21234,66.0,60,299,4.0,0.0
21235,66.0,300,59,4.0,0.0
21236,54.0,0,59,4.0,0.0
21237,66.0,0,299,4.0,0.0
21238,54.0,60,299,4.0,0.0
21239,54.0,300,59,4.0,0.0
21240,66.0,0,59,4.0,0.0
21241,54.0,0,299,4.0,0.0
21242,66.0,60,299,4.0,0.0
21243,66.0,0,59,4.0,0.0
21244,54.0,180,59,4.0,0.0
21245,66.0,360,179,4.0,0.0
21246,54.0,0,179,4.0,0.0
21247,57.0,0,599,13.0,0.0
21248,45.0,0,599,15.0,0.0
21249,33.0,0,599,15.0,0.0
21250,78.0,0,359,1.0,0.0
21251,62.0,0,359,4.0,0.0
21252,57.0,60,599,14.0,0.0
21253,57.0,0,599,12.0,0.0
21254,66.0,0,359,4.0,0.0
21255,74.0,180,359,1.0,0.0
21256,67.0,0,179,4.0,0.0
21257,64.0,0,179,4.0,0.0
21258,76.0,60,179,1.0,0.0
21259,79.0,0,179,1.0,0.0
21260,81.0,0,179,1.0,0.0
21261,78.0,0,179,1.0,0.0
21262,69.0,0,179,4.0,0.0
21263,66.0,0,179,4.0,0.0
21264,59.0,0,59,12.0,0.0
21265,47.0,0,59,15.0,0.0
21266,59.0,0,59,14.0,0.0
21267,59.0,0,59,13.0,0.0
21268,35.0,60,59,15.0,0.0
21269,61.0,45,59,14.0,0.0
21270,61.0,0,59,13.0,0.0
21271,49.0,0,59,15.0,0.0
21272,61.0,0,59,12.0,0.0
21273,37.0,0,59,15.0,0.0
21274,74.0,0,119,1.0,0.0
21275,35.0,0,44,15.0,0.0
21276,78.0,0,179,8.0,0.0
21277,62.0,0,44,12.0,0.0
21278,62.0,0,119,5.0,0.0
21279,62.0,0,44,13.0,0.0
21280,66.0,0,119,4.0,0.0
21281,62.0,0,119,4.0,0.0
21282,86.0,0,119,0.0,0.0
21283,90.0,0,119,0.0,0.0
21284,69.0,45,179,10.0,0.0
21285,50.0,0,119,3.0,0.0
21286,78.0,0,119,1.0,0.0
21287,50.0,45,119,7.0,0.0
21288,47.0,0,44,15.0,0.0
21289,54.0,0,119,3.0,0.0
21290,62.0,0,179,11.0,0.0
21291,50.0,60,44,14.0,0.0
21292,74.0,0,119,5.0,0.0
21293,86.0,0,44,12.0,0.0
21294,62.0,0,44,15.0,0.0
21295,74.0,15,44,14.0,0.0
21296,50.0,0,44,15.0,0.0
21297,86.0,0,44,13.0,0.0
21298,73.0,0,44,14.0,0.0
21299,85.0,0,44,12.0,0.0
21300,85.0,15,44,13.0,0.0
21301,49.0,0,44,15.0,0.0
21302,61.0,0,44,15.0,0.0
21303,50.0,0,119,7.0,0.0
21304,86.0,0,119,0.0,0.0
21305,90.0,45,119,0.0,0.0
21306,78.0,0,164,8.0,0.0
21307,74.0,0,119,5.0,0.0
21308,50.0,0,119,3.0,0.0
21309,54.0,0,119,3.0,0.0
21310,59.0,0,44,15.0,0.0
21311,62.0,0,119,5.0,0.0
21312,47.0,0,44,15.0,0.0
21313,69.0,0,164,10.0,0.0
21314,62.0,0,119,4.0,0.0
21315,71.0,0,44,14.0,0.0
21316,83.0,0,44,13.0,0.0
21317,62.0,0,164,11.0,0.0
21318,83.0,60,44,12.0,0.0
21319,74.0,0,119,1.0,0.0
21320,78.0,0,119,1.0,0.0
21321,66.0,0,119,4.0,0.0
21322,81.0,0,44,13.0,0.0
21323,81.0,0,44,12.0,0.0
21324,69.0,0,44,14.0,0.0
21325,45.0,15,44,15.0,0.0
21326,57.0,0,44,15.0,0.0
21327,74.0,0,59,5.0,0.0
21328,62.0,45,59,5.0,0.0
21329,50.0,0,59,7.0,0.0
21330,43.0,0,44,15.0,0.0
21331,55.0,0,44,15.0,0.0
21332,67.0,0,44,14.0,0.0
21333,79.0,0,44,13.0,0.0
21334,79.0,0,44,12.0,0.0
21335,67.0,45,119,4.0,0.0
21336,64.0,0,119,4.0,0.0
21337,69.0,0,179,10.0,0.0
21338,66.0,0,44,14.0,0.0
21339,55.0,0,119,3.0,0.0
21340,74.0,0,119,5.0,0.0
21341,91.0,0,119,0.0,0.0
21342,88.0,0,119,0.0,0.0
21343,54.0,60,44,15.0,0.0
21344,78.0,0,44,13.0,0.0
21345,52.0,0,119,3.0,0.0
21346,62.0,0,119,5.0,0.0
21347,79.0,0,179,8.0,0.0
21348,64.0,45,179,11.0,0.0
21349,79.0,0,119,1.0,0.0
21350,76.0,0,119,1.0,0.0
21351,78.0,0,44,12.0,0.0
21352,42.0,0,44,15.0,0.0
21353,50.0,0,119,7.0,0.0
21354,62.0,0,179,11.0,0.0
21355,64.0,0,44,14.0,0.0
21356,76.0,0,44,12.0,0.0
21357,40.0,0,44,15.0,0.0
21358,52.0,0,44,15.0,0.0
21359,76.0,15,44,13.0,0.0
21360,38.0,0,44,15.0,0.0
21361,50.0,15,44,15.0,0.0
21362,74.0,0,44,12.0,0.0
21363,74.0,0,44,13.0,0.0
21364,62.0,0,44,14.0,0.0
21365,81.0,45,179,8.0,0.0
21366,69.0,45,119,4.0,0.0
21367,66.0,0,119,4.0,0.0
21368,78.0,0,119,1.0,0.0
21369,73.0,60,44,12.0,0.0
21370,74.0,0,119,5.0,0.0
21371,81.0,0,119,1.0,0.0
21372,73.0,0,44,13.0,0.0
21373,66.0,0,179,11.0,0.0
21374,57.0,0,119,3.0,0.0
21375,61.0,0,44,14.0,0.0
21376,49.0,0,44,15.0,0.0
21377,54.0,0,119,3.0,0.0
21378,62.0,0,119,5.0,0.0
21379,50.0,0,119,7.0,0.0
21380,37.0,0,44,15.0,0.0
21381,69.0,0,179,10.0,0.0
21382,62.0,0,179,11.0,0.0
21383,93.0,0,119,0.0,0.0
21384,90.0,0,119,0.0,0.0
21385,35.0,0,44,15.0,0.0
21386,59.0,0,44,14.0,0.0
21387,47.0,0,44,15.0,0.0
21388,71.0,15,44,13.0,0.0
21389,71.0,0,44,12.0,0.0
21390,57.0,0,44,14.0,0.0
21391,50.0,0,59,7.0,0.0
21392,45.0,15,44,15.0,0.0
21393,74.0,0,59,5.0,0.0
21394,62.0,0,59,5.0,0.0
21395,69.0,0,44,12.0,0.0
21396,69.0,0,44,13.0,0.0
21397,57.0,0,44,15.0,0.0
21398,69.0,0,119,5.0,0.0
21399,93.0,0,119,0.0,0.0
21400,33.0,0,44,15.0,0.0
21401,90.0,0,119,0.0,0.0
21402,54.0,0,119,3.0,0.0
21403,57.0,45,119,3.0,0.0
21404,57.0,0,119,5.0,0.0
21405,45.0,0,119,7.0,0.0
21406,45.0,0,44,15.0,0.0
21407,66.0,0,119,4.0,0.0
21408,57.0,0,179,11.0,0.0
21409,66.0,0,179,11.0,0.0
21410,57.0,60,44,14.0,0.0
21411,78.0,0,119,1.0,0.0
21412,69.0,0,179,10.0,0.0
21413,69.0,0,119,4.0,0.0
21414,57.0,0,44,13.0,0.0
21415,57.0,0,44,12.0,0.0
21416,81.0,0,119,1.0,0.0
21417,81.0,45,179,8.0,0.0
21418,69.0,0,44,13.0,0.0
21419,45.0,0,44,15.0,0.0
21420,69.0,0,44,14.0,0.0
21421,57.0,0,44,15.0,0.0
21422,69.0,15,44,12.0,0.0
21423,71.0,0,44,12.0,0.0
21424,71.0,15,44,13.0,0.0
21425,59.0,0,44,15.0,0.0
21426,47.0,0,44,15.0,0.0
21427,59.0,0,44,14.0,0.0
21428,91.0,0,119,0.0,0.0
21429,45.0,45,119,7.0,0.0
21430,79.0,0,119,1.0,0.0
21431,76.0,0,119,1.0,0.0
21432,73.0,0,44,13.0,0.0
21433,79.0,0,179,8.0,0.0
21434,57.0,0,179,11.0,0.0
21435,61.0,0,44,14.0,0.0
21436,88.0,0,119,0.0,0.0
21437,69.0,0,179,10.0,0.0
21438,61.0,0,44,15.0,0.0
21439,55.0,0,119,3.0,0.0
21440,52.0,0,119,3.0,0.0
21441,64.0,0,179,11.0,0.0
21442,49.0,60,44,15.0,0.0
21443,69.0,0,119,5.0,0.0
21444,64.0,0,119,4.0,0.0
21445,57.0,0,119,5.0,0.0
21446,73.0,0,44,12.0,0.0
21447,67.0,0,119,4.0,0.0
21448,74.0,15,44,12.0,0.0
21449,62.0,0,44,14.0,0.0
21450,62.0,0,44,15.0,0.0
21451,50.0,0,44,15.0,0.0
21452,74.0,0,44,13.0,0.0
21453,76.0,0,44,12.0,0.0
21454,76.0,0,44,13.0,0.0
21455,57.0,0,59,5.0,0.0
21456,69.0,45,59,5.0,0.0
21457,64.0,15,44,14.0,0.0
21458,52.0,0,44,15.0,0.0
21459,45.0,0,59,7.0,0.0
21460,64.0,0,44,15.0,0.0
21461,78.0,0,179,8.0,0.0
21462,78.0,0,44,12.0,0.0
21463,62.0,45,179,11.0,0.0
21464,66.0,0,44,15.0,0.0
21465,57.0,0,119,5.0,0.0
21466,90.0,0,119,0.0,0.0
21467,57.0,0,119,3.0,0.0
21468,54.0,0,44,15.0,0.0
21469,66.0,0,119,3.0,0.0
21470,62.0,0,119,4.0,0.0
21471,66.0,0,119,4.0,0.0
21472,69.0,0,119,5.0,0.0
21473,81.0,0,119,0.0,0.0
21474,69.0,0,179,10.0,0.0
21475,45.0,45,119,7.0,0.0
21476,78.0,0,44,13.0,0.0
21477,57.0,0,179,11.0,0.0
21478,66.0,60,44,14.0,0.0
21479,78.0,0,119,1.0,0.0
21480,69.0,0,119,1.0,0.0
21481,55.0,15,44,15.0,0.0
21482,43.0,0,44,15.0,0.0
21483,67.0,0,44,14.0,0.0
21484,79.0,0,44,13.0,0.0
21485,79.0,0,44,12.0,0.0
21486,57.0,15,44,15.0,0.0
21487,81.0,0,44,13.0,0.0
21488,45.0,0,44,15.0,0.0
21489,69.0,0,44,14.0,0.0
21490,81.0,0,44,12.0,0.0
21491,88.0,0,119,0.0,0.0
21492,69.0,45,119,5.0,0.0
21493,62.0,0,119,11.0,0.0
21494,76.0,0,164,8.0,0.0
21495,57.0,0,119,5.0,0.0
21496,59.0,60,44,15.0,0.0
21497,69.0,0,119,10.0,0.0
21498,67.0,0,119,1.0,0.0
21499,76.0,0,119,1.0,0.0
21500,83.0,0,44,13.0,0.0
21501,64.0,0,119,3.0,0.0
21502,57.0,0,119,4.0,0.0
21503,64.0,0,119,4.0,0.0
21504,47.0,0,44,15.0,0.0
21505,83.0,0,44,12.0,0.0
21506,59.0,0,119,11.0,0.0
21507,79.0,0,119,0.0,0.0
21508,45.0,0,119,7.0,0.0
21509,55.0,0,119,3.0,0.0
21510,71.0,0,44,14.0,0.0
21511,69.0,0,44,14.0,0.0
21512,45.0,0,44,15.0,0.0
21513,57.0,0,44,15.0,0.0
21514,81.0,0,44,12.0,0.0
21515,81.0,15,44,13.0,0.0
21516,49.0,0,44,15.0,0.0
21517,45.0,0,59,7.0,0.0
21518,61.0,0,44,15.0,0.0
21519,73.0,15,44,14.0,0.0
21520,57.0,45,59,5.0,0.0
21521,64.0,0,44,11.0,0.0
21522,69.0,0,59,5.0,0.0
21523,85.0,0,44,12.0,0.0
21524,67.0,0,44,10.0,0.0
21525,61.0,0,44,11.0,0.0
21526,85.0,0,44,13.0,0.0
21527,86.0,0,44,12.0,0.0
21528,62.0,0,44,15.0,0.0
21529,66.0,0,179,10.0,0.0
21530,66.0,0,179,11.0,0.0
21531,54.0,0,119,4.0,0.0
21532,50.0,60,44,15.0,0.0
21533,50.0,0,119,7.0,0.0
21534,62.0,0,119,3.0,0.0
21535,54.0,45,119,3.0,0.0
21536,74.0,0,119,5.0,0.0
21537,62.0,0,119,5.0,0.0
21538,86.0,0,44,13.0,0.0
21539,62.0,0,119,4.0,0.0
21540,66.0,0,119,1.0,0.0
21541,62.0,45,179,11.0,0.0
21542,86.0,0,119,0.0,0.0
21543,78.0,0,119,0.0,0.0
21544,74.0,0,179,8.0,0.0
21545,74.0,0,44,14.0,0.0
21546,74.0,0,119,1.0,0.0
21547,81.0,0,44,12.0,0.0
21548,81.0,0,44,13.0,0.0
21549,69.0,0,44,14.0,0.0
21550,57.0,15,44,15.0,0.0
21551,45.0,0,44,15.0,0.0
21552,79.0,0,44,12.0,0.0
21553,67.0,0,44,14.0,0.0
21554,43.0,0,44,15.0,0.0
21555,55.0,0,44,15.0,0.0
21556,79.0,15,44,13.0,0.0
21557,66.0,0,179,11.0,0.0
21558,42.0,0,44,15.0,0.0
21559,50.0,45,119,3.0,0.0
21560,54.0,0,119,4.0,0.0
21561,62.0,0,119,4.0,0.0
21562,78.0,0,44,12.0,0.0
21563,54.0,0,119,3.0,0.0
21564,66.0,0,119,1.0,0.0
21565,45.0,0,119,7.0,0.0
21566,54.0,60,44,15.0,0.0
21567,78.0,0,44,13.0,0.0
21568,74.0,0,179,8.0,0.0
21569,57.0,0,179,11.0,0.0
21570,78.0,0,119,0.0,0.0
21571,86.0,0,119,0.0,0.0
21572,57.0,0,119,5.0,0.0
21573,69.0,0,119,5.0,0.0
21574,66.0,0,44,14.0,0.0
21575,74.0,0,119,1.0,0.0
21576,69.0,0,179,10.0,0.0
21577,64.0,0,44,14.0,0.0
21578,40.0,0,44,15.0,0.0
21579,52.0,0,44,15.0,0.0
21580,76.0,0,44,12.0,0.0
21581,76.0,15,44,13.0,0.0
21582,69.0,0,59,5.0,0.0
21583,74.0,0,44,12.0,0.0
21584,38.0,0,44,15.0,0.0
21585,62.0,0,44,14.0,0.0
21586,50.0,0,44,15.0,0.0
21587,74.0,15,44,13.0,0.0
21588,45.0,0,59,7.0,0.0
21589,57.0,45,59,5.0,0.0
21590,76.0,0,119,1.0,0.0
21591,37.0,0,44,15.0,0.0
21592,49.0,0,44,15.0,0.0
21593,73.0,60,44,13.0,0.0
21594,76.0,0,179,8.0,0.0
21595,88.0,0,119,0.0,0.0
21596,69.0,0,119,1.0,0.0
21597,49.0,0,119,3.0,0.0
21598,61.0,0,44,14.0,0.0
21599,52.0,0,119,3.0,0.0
21600,57.0,0,179,11.0,0.0
21601,73.0,0,44,12.0,0.0
21602,57.0,45,119,4.0,0.0
21603,57.0,0,119,5.0,0.0
21604,64.0,0,119,4.0,0.0
21605,69.0,45,179,10.0,0.0
21606,45.0,0,119,7.0,0.0
21607,69.0,0,119,5.0,0.0
21608,81.0,0,119,0.0,0.0
21609,38.0,0,44,15.0,0.0
21610,50.0,0,44,15.0,0.0
21611,74.0,0,44,12.0,0.0
21612,62.0,15,44,14.0,0.0
21613,74.0,0,44,13.0,0.0
21614,71.0,0,44,13.0,0.0
21615,71.0,0,44,12.0,0.0
21616,35.0,0,44,15.0,0.0
21617,59.0,15,44,14.0,0.0
21618,47.0,0,44,15.0,0.0
21619,45.0,0,119,7.0,0.0
21620,78.0,45,179,8.0,0.0
21621,69.0,0,44,13.0,0.0
21622,33.0,60,44,15.0,0.0
21623,45.0,0,44,15.0,0.0
21624,57.0,0,179,11.0,0.0
21625,78.0,0,119,1.0,0.0
21626,69.0,0,44,12.0,0.0
21627,86.0,45,119,0.0,0.0
21628,90.0,0,119,0.0,0.0
21629,69.0,0,119,5.0,0.0
21630,57.0,0,119,5.0,0.0
21631,62.0,0,179,11.0,0.0
21632,54.0,0,119,3.0,0.0
21633,74.0,0,119,1.0,0.0
21634,69.0,0,179,10.0,0.0
21635,50.0,0,119,3.0,0.0
21636,62.0,0,119,4.0,0.0
21637,57.0,0,44,14.0,0.0
21638,66.0,0,119,4.0,0.0
21639,71.0,0,44,13.0,0.0
21640,71.0,0,44,12.0,0.0
21641,47.0,15,44,15.0,0.0
21642,35.0,0,44,15.0,0.0
21643,59.0,0,44,14.0,0.0
21644,69.0,0,59,5.0,0.0
21645,57.0,0,59,5.0,0.0
21646,56.0,0,44,14.0,0.0
21647,68.0,0,44,12.0,0.0
21648,32.0,15,44,15.0,0.0
21649,44.0,0,44,15.0,0.0
21650,68.0,0,44,13.0,0.0
21651,45.0,0,59,7.0,0.0
21652,57.0,0,299,11.0,0.0
21653,33.0,0,44,15.0,0.0
21654,54.0,0,119,3.0,0.0
21655,50.0,0,119,3.0,0.0
21656,57.0,0,44,14.0,0.0
21657,45.0,0,119,7.0,0.0
21658,62.0,45,119,4.0,0.0
21659,66.0,0,119,4.0,0.0
21660,69.0,0,299,10.0,0.0
21661,57.0,60,44,12.0,0.0
21662,62.0,0,299,11.0,0.0
21663,78.0,0,299,8.0,0.0
21664,86.0,0,119,0.0,0.0
21665,74.0,0,119,1.0,0.0
21666,45.0,0,44,15.0,0.0
21667,69.0,0,119,5.0,0.0
21668,57.0,0,44,13.0,0.0
21669,57.0,0,119,5.0,0.0
21670,78.0,0,119,1.0,0.0
21671,90.0,0,119,0.0,0.0
21672,69.0,0,44,13.0,0.0
21673,45.0,0,44,15.0,0.0
21674,69.0,0,44,12.0,0.0
21675,57.0,0,44,14.0,0.0
21676,57.0,15,44,15.0,0.0
21677,47.0,0,44,15.0,0.0
21678,71.0,0,44,12.0,0.0
21679,59.0,0,44,14.0,0.0
21680,71.0,0,44,13.0,0.0
21681,59.0,60,44,15.0,0.0
21682,73.0,0,44,12.0,0.0
21683,61.0,60,44,15.0,0.0
21684,61.0,0,44,14.0,0.0
21685,73.0,0,44,13.0,0.0
21686,45.0,0,119,7.0,0.0
21687,49.0,0,44,15.0,0.0
21688,69.0,45,119,5.0,0.0
21689,76.0,0,119,5.0,0.0
21690,50.0,0,44,15.0,0.0
21691,74.0,0,44,12.0,0.0
21692,74.0,15,44,13.0,0.0
21693,62.0,0,44,15.0,0.0
21694,62.0,0,44,14.0,0.0
21695,76.0,0,44,12.0,0.0
21696,85.0,0,59,0.0,0.0
21697,45.0,0,59,7.0,0.0
21698,88.0,0,59,0.0,0.0
21699,76.0,0,59,5.0,0.0
21700,52.0,0,44,15.0,0.0
21701,52.0,0,59,3.0,0.0
21702,64.0,0,44,14.0,0.0
21703,76.0,45,59,8.0,0.0
21704,57.0,0,59,4.0,0.0
21705,64.0,0,59,4.0,0.0
21706,49.0,0,59,3.0,0.0
21707,64.0,15,44,15.0,0.0
21708,76.0,0,44,13.0,0.0
21709,69.0,0,59,5.0,0.0
21710,69.0,0,59,10.0,0.0
21711,61.0,0,59,11.0,0.0
21712,57.0,0,59,11.0,0.0
21713,76.0,0,59,1.0,0.0
21714,73.0,0,59,1.0,0.0
21715,78.0,0,44,12.0,0.0
21716,88.0,0,119,0.0,0.0
21717,85.0,0,119,0.0,0.0
21718,78.0,0,44,13.0,0.0
21719,66.0,0,44,15.0,0.0
21720,69.0,0,119,10.0,0.0
21721,66.0,60,44,14.0,0.0
21722,73.0,0,119,1.0,0.0
21723,69.0,0,119,4.0,0.0
21724,69.0,0,119,5.0,0.0
21725,61.0,0,119,11.0,0.0
21726,76.0,0,119,8.0,0.0
21727,76.0,0,119,1.0,0.0
21728,81.0,0,119,5.0,0.0
21729,49.0,0,119,3.0,0.0
21730,52.0,0,119,3.0,0.0
21731,57.0,0,119,11.0,0.0
21732,54.0,0,44,15.0,0.0
21733,57.0,45,119,4.0,0.0
21734,45.0,0,119,7.0,0.0
21735,67.0,0,44,14.0,0.0
21736,79.0,15,44,13.0,0.0
21737,67.0,0,44,15.0,0.0
21738,55.0,0,44,15.0,0.0
21739,79.0,0,44,12.0,0.0
21740,76.0,0,59,5.0,0.0
21741,45.0,15,44,15.0,0.0
21742,81.0,0,44,13.0,0.0
21743,57.0,0,44,15.0,0.0
21744,81.0,0,44,12.0,0.0
21745,45.0,0,59,7.0,0.0
21746,67.0,45,59,4.0,0.0
21747,64.0,0,59,4.0,0.0
21748,79.0,0,59,5.0,0.0
21749,57.0,0,44,14.0,0.0
21750,59.0,0,44,15.0,0.0
21751,59.0,60,44,14.0,0.0
21752,78.0,0,119,5.0,0.0
21753,83.0,0,44,12.0,0.0
21754,47.0,0,44,15.0,0.0
21755,62.0,0,119,4.0,0.0
21756,74.0,0,119,5.0,0.0
21757,45.0,0,119,7.0,0.0
21758,83.0,0,44,13.0,0.0
21759,66.0,45,119,4.0,0.0
21760,81.0,0,44,12.0,0.0
21761,57.0,0,44,15.0,0.0
21762,57.0,0,44,14.0,0.0
21763,45.0,15,44,15.0,0.0
21764,81.0,0,44,13.0,0.0
21765,61.0,0,44,14.0,0.0
21766,61.0,15,44,15.0,0.0
21767,85.0,0,44,13.0,0.0
21768,45.0,0,59,7.0,0.0
21769,57.0,0,59,4.0,0.0
21770,64.0,45,59,4.0,0.0
21771,49.0,0,44,15.0,0.0
21772,76.0,0,59,5.0,0.0
21773,69.0,0,59,5.0,0.0
21774,85.0,0,44,12.0,0.0
21775,50.0,0,119,7.0,0.0
21776,90.0,0,119,0.0,0.0
21777,81.0,45,119,0.0,0.0
21778,86.0,60,44,13.0,0.0
21779,86.0,0,44,12.0,0.0
21780,78.0,45,179,8.0,0.0
21781,62.0,0,44,15.0,0.0
21782,69.0,0,179,10.0,0.0
21783,62.0,0,44,14.0,0.0
21784,38.0,0,119,3.0,0.0
21785,62.0,0,179,11.0,0.0
21786,69.0,0,119,1.0,0.0
21787,78.0,0,119,1.0,0.0
21788,74.0,0,119,5.0,0.0
21789,66.0,0,119,5.0,0.0
21790,54.0,0,119,3.0,0.0
21791,50.0,0,44,15.0,0.0
21792,50.0,0,119,4.0,0.0
21793,66.0,0,119,4.0,0.0
21794,83.0,0,44,13.0,0.0
21795,59.0,0,44,15.0,0.0
21796,47.0,0,44,15.0,0.0
21797,83.0,15,44,12.0,0.0
21798,59.0,0,44,14.0,0.0
21799,81.0,0,44,12.0,0.0
21800,81.0,0,44,13.0,0.0
21801,45.0,0,44,15.0,0.0
21802,57.0,0,44,14.0,0.0
21803,57.0,15,44,15.0,0.0
21804,78.0,0,179,8.0,0.0
21805,69.0,0,179,10.0,0.0
21806,62.0,0,179,11.0,0.0
21807,79.0,0,44,12.0,0.0
21808,66.0,0,119,4.0,0.0
21809,62.0,0,119,4.0,0.0
21810,79.0,0,44,13.0,0.0
21811,43.0,60,44,15.0,0.0
21812,81.0,0,119,1.0,0.0
21813,54.0,0,119,3.0,0.0
21814,74.0,0,119,5.0,0.0
21815,62.0,45,119,5.0,0.0
21816,55.0,0,44,14.0,0.0
21817,57.0,0,119,3.0,0.0
21818,55.0,0,44,15.0,0.0
21819,50.0,0,119,7.0,0.0
21820,86.0,0,119,0.0,0.0
21821,78.0,0,119,1.0,0.0
21822,90.0,0,119,0.0,0.0
21823,54.0,0,44,15.0,0.0
21824,78.0,0,44,12.0,0.0
21825,78.0,0,44,13.0,0.0
21826,42.0,0,44,15.0,0.0
21827,54.0,15,44,14.0,0.0
21828,52.0,0,44,14.0,0.0
21829,50.0,0,59,7.0,0.0
21830,52.0,15,44,15.0,0.0
21831,76.0,0,44,12.0,0.0
21832,74.0,0,59,5.0,0.0
21833,62.0,0,59,5.0,0.0
21834,40.0,0,44,15.0,0.0
21835,76.0,0,44,13.0,0.0
21836,62.0,0,119,4.0,0.0
21837,67.0,0,119,4.0,0.0
21838,74.0,0,44,12.0,0.0
21839,50.0,0,44,15.0,0.0
21840,71.0,0,179,10.0,0.0
21841,50.0,0,44,14.0,0.0
21842,83.0,45,119,1.0,0.0
21843,79.0,0,119,1.0,0.0
21844,86.0,0,119,0.0,0.0
21845,55.0,0,119,3.0,0.0
21846,59.0,0,119,3.0,0.0
21847,74.0,0,119,5.0,0.0
21848,79.0,45,179,8.0,0.0
21849,62.0,0,119,5.0,0.0
21850,38.0,60,44,15.0,0.0
21851,62.0,0,179,11.0,0.0
21852,50.0,0,119,7.0,0.0
21853,91.0,0,119,0.0,0.0
21854,74.0,0,44,13.0,0.0
21855,76.0,15,44,13.0,0.0
21856,64.0,0,44,14.0,0.0
21857,40.0,0,44,15.0,0.0
21858,76.0,0,44,12.0,0.0
21859,52.0,0,44,15.0,0.0
21860,62.0,0,44,14.0,0.0
21861,50.0,0,44,15.0,0.0
21862,74.0,0,44,13.0,0.0
21863,38.0,0,44,15.0,0.0
21864,74.0,15,44,12.0,0.0
21865,36.0,0,44,15.0,0.0
21866,48.0,0,44,15.0,0.0
21867,62.0,45,119,4.0,0.0
21868,72.0,60,44,13.0,0.0
21869,62.0,0,119,5.0,0.0
21870,74.0,0,119,5.0,0.0
21871,57.0,0,119,3.0,0.0
21872,60.0,0,119,3.0,0.0
21873,84.0,0,119,1.0,0.0
21874,81.0,0,119,1.0,0.0
21875,62.0,0,179,11.0,0.0
21876,72.0,0,44,12.0,0.0
21877,72.0,0,179,10.0,0.0
21878,60.0,0,44,14.0,0.0
21879,50.0,0,119,7.0,0.0
21880,86.0,0,119,0.0,0.0
21881,93.0,0,119,0.0,0.0
21882,69.0,0,119,4.0,0.0
21883,81.0,0,179,8.0,0.0
21884,59.0,0,44,14.0,0.0
21885,47.0,15,44,15.0,0.0
21886,35.0,0,44,15.0,0.0
21887,71.0,0,44,12.0,0.0
21888,71.0,0,44,13.0,0.0
21889,69.0,15,44,12.0,0.0
21890,33.0,0,44,15.0,0.0
21891,74.0,0,59,5.0,0.0
21892,69.0,0,44,13.0,0.0
21893,45.0,0,44,15.0,0.0
21894,50.0,0,59,7.0,0.0
21895,57.0,0,44,14.0,0.0
21896,62.0,45,59,5.0,0.0
21897,55.0,0,44,12.0,0.0
21898,84.0,0,119,1.0,0.0
21899,50.0,45,119,7.0,0.0
21900,93.0,0,119,0.0,0.0
21901,57.0,0,119,3.0,0.0
21902,72.0,45,179,10.0,0.0
21903,81.0,0,119,1.0,0.0
21904,55.0,0,44,14.0,0.0
21905,60.0,0,119,3.0,0.0
21906,74.0,0,119,5.0,0.0
21907,69.0,0,119,4.0,0.0
21908,62.0,0,119,4.0,0.0
21909,43.0,0,44,15.0,0.0
21910,55.0,0,179,11.0,0.0
21911,86.0,0,119,0.0,0.0
21912,81.0,0,179,8.0,0.0
21913,55.0,60,44,13.0,0.0
21914,62.0,0,179,11.0,0.0
21915,31.0,0,44,15.0,0.0
21916,62.0,0,119,5.0,0.0
21917,57.0,0,44,15.0,0.0
21918,69.0,0,44,14.0,0.0
21919,45.0,15,44,15.0,0.0
21920,69.0,0,44,13.0,0.0
21921,69.0,0,44,12.0,0.0
21922,71.0,0,44,13.0,0.0
21923,71.0,0,44,14.0,0.0
21924,47.0,0,44,15.0,0.0
21925,71.0,15,44,12.0,0.0
21926,59.0,0,44,15.0,0.0
21927,67.0,0,119,4.0,0.0
21928,79.0,0,119,1.0,0.0
21929,83.0,0,119,1.0,0.0
21930,72.0,0,44,14.0,0.0
21931,71.0,0,179,10.0,0.0
21932,50.0,0,119,7.0,0.0
21933,48.0,0,44,15.0,0.0
21934,62.0,0,119,4.0,0.0
21935,62.0,0,179,11.0,0.0
21936,72.0,0,44,13.0,0.0
21937,74.0,0,119,5.0,0.0
21938,55.0,0,119,3.0,0.0
21939,72.0,60,44,12.0,0.0
21940,62.0,0,119,5.0,0.0
21941,60.0,0,44,15.0,0.0
21942,91.0,0,119,0.0,0.0
21943,86.0,45,119,0.0,0.0
21944,55.0,45,179,11.0,0.0
21945,59.0,0,119,3.0,0.0
21946,79.0,0,179,8.0,0.0
21947,74.0,0,44,12.0,0.0
21948,62.0,0,44,15.0,0.0
21949,50.0,0,44,15.0,0.0
21950,74.0,0,44,13.0,0.0
21951,74.0,15,44,14.0,0.0
21952,64.0,0,44,15.0,0.0
21953,74.0,0,59,5.0,0.0
21954,62.0,0,59,5.0,0.0
21955,52.0,15,44,15.0,0.0
21956,76.0,0,44,13.0,0.0
21957,50.0,0,59,7.0,0.0
21958,76.0,0,44,12.0,0.0
21959,76.0,0,44,14.0,0.0
21960,62.0,0,119,4.0,0.0
21961,57.0,0,119,3.0,0.0
21962,54.0,0,119,3.0,0.0
21963,86.0,0,119,0.0,0.0
21964,78.0,0,179,8.0,0.0
21965,91.0,0,119,0.0,0.0
21966,78.0,0,44,13.0,0.0
21967,74.0,0,119,5.0,0.0
21968,62.0,0,119,5.0,0.0
21969,62.0,45,179,11.0,0.0
21970,55.0,0,179,11.0,0.0
21971,54.0,60,44,15.0,0.0
21972,66.0,0,44,15.0,0.0
21973,69.0,0,179,10.0,0.0
21974,66.0,0,44,14.0,0.0
21975,66.0,0,119,4.0,0.0
21976,50.0,0,119,7.0,0.0
21977,81.0,45,119,1.0,0.0
21978,78.0,0,119,1.0,0.0
21979,78.0,0,44,12.0,0.0
21980,79.0,0,44,13.0,0.0
21981,67.0,0,44,14.0,0.0
21982,55.0,0,44,15.0,0.0
21983,67.0,15,44,15.0,0.0
21984,79.0,0,44,12.0,0.0
21985,45.0,15,44,15.0,0.0
21986,81.0,0,44,12.0,0.0
21987,57.0,0,44,15.0,0.0
21988,69.0,0,44,14.0,0.0
21989,81.0,0,44,13.0,0.0
21990,74.0,0,119,5.0,0.0
21991,59.0,0,44,15.0,0.0
21992,71.0,60,44,14.0,0.0
21993,55.0,0,164,11.0,0.0
21994,79.0,0,119,1.0,0.0
21995,76.0,0,119,1.0,0.0
21996,67.0,0,164,10.0,0.0
21997,76.0,0,164,8.0,0.0
21998,55.0,0,119,3.0,0.0
21999,62.0,45,119,5.0,0.0
22000,86.0,0,119,0.0,0.0
22001,62.0,0,164,11.0,0.0
22002,50.0,0,119,7.0,0.0
22003,47.0,0,44,15.0,0.0
22004,64.0,0,119,4.0,0.0
22005,62.0,0,119,4.0,0.0
22006,88.0,0,119,0.0,0.0
22007,52.0,0,119,3.0,0.0
22008,83.0,0,44,12.0,0.0
22009,83.0,0,44,13.0,0.0
22010,43.0,0,44,15.0,0.0
22011,67.0,15,44,13.0,0.0
22012,31.0,0,44,15.0,0.0
22013,55.0,0,44,14.0,0.0
22014,67.0,0,44,12.0,0.0
22015,50.0,0,59,7.0,0.0
22016,55.0,0,44,14.0,0.0
22017,74.0,45,59,5.0,0.0
22018,62.0,0,59,5.0,0.0
22019,31.0,0,44,15.0,0.0
22020,67.0,0,44,13.0,0.0
22021,67.0,15,44,12.0,0.0
22022,43.0,0,44,15.0,0.0
22023,57.0,0,44,13.0,0.0
22024,69.0,0,119,5.0,0.0
22025,62.0,0,119,4.0,0.0
22026,33.0,0,44,15.0,0.0
22027,45.0,0,119,7.0,0.0
22028,78.0,0,119,1.0,0.0
22029,45.0,60,44,15.0,0.0
22030,54.0,0,119,4.0,0.0
22031,57.0,0,119,5.0,0.0
22032,86.0,0,119,0.0,0.0
22033,74.0,0,119,1.0,0.0
22034,57.0,0,44,14.0,0.0
22035,74.0,0,179,8.0,0.0
22036,78.0,0,119,0.0,0.0
22037,54.0,45,119,3.0,0.0
22038,50.0,0,119,3.0,0.0
22039,66.0,0,179,10.0,0.0
22040,62.0,0,179,11.0,0.0
22041,57.0,45,179,11.0,0.0
22042,57.0,0,44,12.0,0.0
22043,67.0,0,44,14.0,0.0
22044,79.0,0,44,13.0,0.0
22045,55.0,0,44,15.0,0.0
22046,67.0,0,44,15.0,0.0
22047,79.0,15,44,12.0,0.0
22048,78.0,15,44,13.0,0.0
22049,78.0,0,44,12.0,0.0
22050,66.0,0,44,15.0,0.0
22051,66.0,0,44,14.0,0.0
22052,54.0,0,44,15.0,0.0
22053,66.0,0,179,10.0,0.0
22054,57.0,0,179,11.0,0.0
22055,86.0,0,119,0.0,0.0
22056,76.0,0,44,12.0,0.0
22057,78.0,0,119,0.0,0.0
22058,76.0,0,44,13.0,0.0
22059,50.0,45,119,3.0,0.0
22060,54.0,0,119,4.0,0.0
22061,62.0,0,119,4.0,0.0
22062,54.0,0,119,3.0,0.0
22063,45.0,0,119,7.0,0.0
22064,62.0,0,179,11.0,0.0
22065,57.0,0,119,5.0,0.0
22066,52.0,0,44,15.0,0.0
22067,76.0,60,44,14.0,0.0
22068,64.0,0,44,15.0,0.0
22069,74.0,0,119,1.0,0.0
22070,74.0,45,179,8.0,0.0
22071,69.0,0,119,5.0,0.0
22072,78.0,0,119,1.0,0.0
22073,74.0,0,44,12.0,0.0
22074,62.0,0,44,15.0,0.0
22075,74.0,0,44,13.0,0.0
22076,50.0,0,44,15.0,0.0
22077,74.0,15,44,14.0,0.0
22078,69.0,0,59,5.0,0.0
22079,57.0,0,59,5.0,0.0
22080,73.0,0,44,13.0,0.0
22081,49.0,0,44,15.0,0.0
22082,73.0,0,44,14.0,0.0
22083,61.0,15,44,15.0,0.0
22084,73.0,0,44,12.0,0.0
22085,45.0,0,59,7.0,0.0
22086,52.0,0,119,3.0,0.0
22087,47.0,0,44,15.0,0.0
22088,88.0,0,119,0.0,0.0
22089,85.0,0,119,0.0,0.0
22090,45.0,0,119,7.0,0.0
22091,57.0,0,119,4.0,0.0
22092,71.0,60,44,14.0,0.0
22093,76.0,0,119,1.0,0.0
22094,55.0,0,119,3.0,0.0
22095,61.0,0,164,11.0,0.0
22096,76.0,60,164,8.0,0.0
22097,69.0,45,119,5.0,0.0
22098,64.0,0,119,4.0,0.0
22099,67.0,0,164,10.0,0.0
22100,71.0,0,44,12.0,0.0
22101,79.0,0,119,1.0,0.0
22102,59.0,0,44,15.0,0.0
22103,57.0,0,119,5.0,0.0
22104,57.0,0,164,11.0,0.0
22105,71.0,0,44,13.0,0.0
22106,45.0,0,44,15.0,0.0
22107,69.0,0,44,13.0,0.0
22108,69.0,0,44,14.0,0.0
22109,69.0,0,44,12.0,0.0
22110,57.0,15,44,15.0,0.0
22111,74.0,0,44,13.0,0.0
22112,62.0,0,44,15.0,0.0
22113,74.0,0,44,14.0,0.0
22114,74.0,0,44,12.0,0.0
22115,50.0,0,44,15.0,0.0
22116,57.0,0,119,3.0,0.0
22117,54.0,0,119,3.0,0.0
22118,69.0,60,44,12.0,0.0
22119,69.0,0,119,5.0,0.0
22120,57.0,0,119,5.0,0.0
22121,45.0,0,119,7.0,0.0
22122,57.0,0,179,11.0,0.0
22123,45.0,0,44,15.0,0.0
22124,86.0,0,119,0.0,0.0
22125,90.0,0,119,0.0,0.0
22126,69.0,0,44,14.0,0.0
22127,62.0,0,179,11.0,0.0
22128,66.0,45,119,4.0,0.0
22129,62.0,0,119,4.0,0.0
22130,66.0,0,179,10.0,0.0
22131,69.0,0,44,13.0,0.0
22132,78.0,0,119,1.0,0.0
22133,57.0,0,44,15.0,0.0
22134,78.0,0,179,8.0,0.0
22135,81.0,0,119,1.0,0.0
22136,42.0,15,44,15.0,0.0
22137,66.0,0,44,12.0,0.0
22138,54.0,0,44,15.0,0.0
22139,66.0,0,44,13.0,0.0
22140,66.0,0,44,14.0,0.0
22141,57.0,0,59,5.0,0.0
22142,45.0,45,59,7.0,0.0
22143,62.0,0,44,14.0,0.0
22144,62.0,0,44,13.0,0.0
22145,69.0,0,59,5.0,0.0
22146,38.0,15,44,15.0,0.0
22147,62.0,0,44,12.0,0.0
22148,50.0,0,44,15.0,0.0
22149,55.0,0,119,3.0,0.0
22150,88.0,0,119,0.0,0.0
22151,64.0,0,119,4.0,0.0
22152,59.0,0,44,14.0,0.0
22153,57.0,0,119,4.0,0.0
22154,47.0,0,44,15.0,0.0
22155,76.0,0,299,8.0,0.0
22156,61.0,45,299,11.0,0.0
22157,35.0,0,44,15.0,0.0
22158,69.0,0,119,5.0,0.0
22159,59.0,0,44,12.0,0.0
22160,57.0,0,299,11.0,0.0
22161,45.0,0,119,7.0,0.0
22162,57.0,0,119,5.0,0.0
22163,76.0,45,119,1.0,0.0
22164,85.0,0,119,0.0,0.0
22165,67.0,0,299,10.0,0.0
22166,52.0,0,119,3.0,0.0
22167,59.0,60,44,13.0,0.0
22168,79.0,0,119,1.0,0.0
22169,57.0,15,44,13.0,0.0
22170,57.0,0,44,14.0,0.0
22171,57.0,0,44,12.0,0.0
22172,33.0,0,44,15.0,0.0
22173,45.0,0,44,15.0,0.0
22174,32.0,0,44,15.0,0.0
22175,56.0,60,44,13.0,0.0
22176,44.0,0,44,15.0,0.0
22177,56.0,0,44,14.0,0.0
22178,56.0,0,44,12.0,0.0
22179,57.0,60,44,13.0,0.0
22180,33.0,0,44,15.0,0.0
22181,57.0,0,44,14.0,0.0
22182,69.0,0,119,5.0,0.0
22183,45.0,0,119,7.0,0.0
22184,57.0,0,44,12.0,0.0
22185,57.0,0,119,5.0,0.0
22186,45.0,0,44,15.0,0.0
22187,69.0,0,44,12.0,0.0
22188,57.0,15,44,15.0,0.0
22189,45.0,0,44,15.0,0.0
22190,69.0,0,44,13.0,0.0
22191,69.0,0,44,14.0,0.0
22192,62.0,0,59,4.0,0.0
22193,57.0,0,59,5.0,0.0
22194,69.0,0,59,5.0,0.0
22195,86.0,45,59,0.0,0.0
22196,54.0,0,59,4.0,0.0
22197,81.0,0,59,0.0,0.0
22198,57.0,0,44,15.0,0.0
22199,54.0,0,59,3.0,0.0
22200,50.0,0,59,3.0,0.0
22201,66.0,0,59,10.0,0.0
22202,45.0,0,44,15.0,0.0
22203,74.0,0,59,8.0,0.0
22204,62.0,0,59,11.0,0.0
22205,74.0,0,59,1.0,0.0
22206,69.0,15,44,14.0,0.0
22207,69.0,0,44,13.0,0.0
22208,45.0,0,59,7.0,0.0
22209,57.0,0,59,11.0,0.0
22210,69.0,0,44,12.0,0.0
22211,78.0,0,59,1.0,0.0
22212,54.0,0,119,3.0,0.0
22213,50.0,0,119,3.0,0.0
22214,62.0,0,44,13.0,0.0
22215,50.0,45,119,7.0,0.0
22216,50.0,0,119,11.0,0.0
22217,62.0,0,44,12.0,0.0
22218,62.0,0,119,5.0,0.0
22219,62.0,0,44,14.0,0.0
22220,62.0,0,119,11.0,0.0
22221,74.0,0,119,5.0,0.0
22222,74.0,0,119,8.0,0.0
22223,66.0,0,119,10.0,0.0
22224,54.0,0,119,4.0,0.0
22225,86.0,0,119,0.0,0.0
22226,50.0,0,44,15.0,0.0
22227,81.0,0,119,0.0,0.0
22228,78.0,0,119,1.0,0.0
22229,38.0,60,44,15.0,0.0
22230,74.0,0,119,1.0,0.0
22231,62.0,0,119,4.0,0.0
22232,69.0,0,44,12.0,0.0
22233,57.0,0,44,15.0,0.0
22234,69.0,15,44,14.0,0.0
22235,45.0,0,44,15.0,0.0
22236,69.0,0,44,13.0,0.0
22237,68.0,0,44,14.0,0.0
22238,56.0,0,44,15.0,0.0
22239,62.0,0,59,4.0,0.0
22240,44.0,0,44,15.0,0.0
22241,54.0,0,59,4.0,0.0
22242,68.0,0,44,12.0,0.0
22243,50.0,45,59,7.0,0.0
22244,66.0,0,59,5.0,0.0
22245,74.0,0,59,5.0,0.0
22246,68.0,15,44,13.0,0.0
22247,62.0,45,119,4.0,0.0
22248,69.0,0,44,13.0,0.0
22249,45.0,0,44,15.0,0.0
22250,66.0,0,119,5.0,0.0
22251,74.0,0,119,5.0,0.0
22252,50.0,0,119,7.0,0.0
22253,69.0,0,44,12.0,0.0
22254,54.0,0,119,4.0,0.0
22255,57.0,0,44,15.0,0.0
22256,69.0,60,44,14.0,0.0
22257,78.0,0,44,13.0,0.0
22258,54.0,0,44,15.0,0.0
22259,66.0,0,44,14.0,0.0
22260,42.0,0,44,15.0,0.0
22261,78.0,15,44,12.0,0.0
22262,74.0,0,44,12.0,0.0
22263,50.0,0,44,15.0,0.0
22264,50.0,0,59,7.0,0.0
22265,74.0,0,44,13.0,0.0
22266,62.0,0,59,5.0,0.0
22267,66.0,0,59,4.0,0.0
22268,38.0,0,44,15.0,0.0
22269,62.0,15,44,14.0,0.0
22270,78.0,0,59,5.0,0.0
22271,50.0,45,59,4.0,0.0
22272,69.0,0,44,13.0,0.0
22273,61.0,0,179,11.0,0.0
22274,45.0,0,44,15.0,0.0
22275,73.0,0,119,1.0,0.0
22276,45.0,0,119,7.0,0.0
22277,33.0,0,44,15.0,0.0
22278,76.0,45,179,8.0,0.0
22279,76.0,0,119,1.0,0.0
22280,69.0,60,44,12.0,0.0
22281,88.0,0,119,0.0,0.0
22282,64.0,0,179,10.0,0.0
22283,57.0,0,44,14.0,0.0
22284,49.0,0,119,3.0,0.0
22285,57.0,0,179,11.0,0.0
22286,57.0,0,119,4.0,0.0
22287,64.0,0,119,4.0,0.0
22288,52.0,0,119,3.0,0.0
22289,76.0,0,119,5.0,0.0
22290,69.0,0,119,5.0,0.0
22291,85.0,45,119,0.0,0.0
22292,45.0,0,44,15.0,0.0
22293,81.0,15,44,12.0,0.0
22294,69.0,0,44,14.0,0.0
22295,57.0,0,44,15.0,0.0
22296,81.0,0,44,13.0,0.0
22297,80.0,0,44,13.0,0.0
22298,68.0,0,44,14.0,0.0
22299,80.0,0,44,12.0,0.0
22300,44.0,0,44,15.0,0.0
22301,56.0,15,44,15.0,0.0
22302,76.0,0,119,1.0,0.0
22303,76.0,0,179,8.0,0.0
22304,88.0,0,119,0.0,0.0
22305,45.0,0,119,7.0,0.0
22306,73.0,0,119,1.0,0.0
22307,81.0,0,44,12.0,0.0
22308,57.0,45,119,5.0,0.0
22309,69.0,0,119,5.0,0.0
22310,57.0,0,119,4.0,0.0
22311,64.0,0,119,4.0,0.0
22312,69.0,60,44,14.0,0.0
22313,52.0,0,119,3.0,0.0
22314,49.0,0,119,3.0,0.0
22315,45.0,0,44,15.0,0.0
22316,69.0,0,179,10.0,0.0
22317,61.0,0,179,11.0,0.0
22318,85.0,0,119,0.0,0.0
22319,57.0,0,44,15.0,0.0
22320,57.0,0,179,11.0,0.0
22321,81.0,0,44,13.0,0.0
22322,76.0,0,44,12.0,0.0
22323,64.0,0,44,14.0,0.0
22324,76.0,15,44,13.0,0.0
22325,40.0,0,44,15.0,0.0
22326,52.0,0,44,15.0,0.0
22327,73.0,0,44,12.0,0.0
22328,73.0,15,44,13.0,0.0
22329,37.0,0,44,15.0,0.0
22330,61.0,0,44,14.0,0.0
22331,69.0,0,59,5.0,0.0
22332,57.0,45,59,5.0,0.0
22333,49.0,0,44,15.0,0.0
22334,45.0,0,59,7.0,0.0
22335,74.0,0,119,1.0,0.0
22336,57.0,0,119,5.0,0.0
22337,69.0,45,119,5.0,0.0
22338,50.0,0,119,3.0,0.0
22339,69.0,0,179,10.0,0.0
22340,54.0,0,119,3.0,0.0
22341,62.0,0,179,11.0,0.0
22342,45.0,0,119,7.0,0.0
22343,33.0,0,44,15.0,0.0
22344,90.0,0,119,0.0,0.0
22345,69.0,0,44,13.0,0.0
22346,57.0,0,179,11.0,0.0
22347,69.0,0,44,12.0,0.0
22348,78.0,45,179,8.0,0.0
22349,66.0,0,119,4.0,0.0
22350,78.0,0,119,1.0,0.0
22351,62.0,0,119,4.0,0.0
22352,57.0,60,44,14.0,0.0
22353,86.0,0,119,0.0,0.0
22354,45.0,0,44,15.0,0.0
22355,69.0,0,44,14.0,0.0
22356,81.0,0,44,13.0,0.0
22357,45.0,0,44,15.0,0.0
22358,81.0,0,44,12.0,0.0
22359,57.0,15,44,15.0,0.0
22360,80.0,0,44,13.0,0.0
22361,44.0,0,44,15.0,0.0
22362,68.0,0,44,14.0,0.0
22363,80.0,0,44,12.0,0.0
22364,56.0,15,44,15.0,0.0
22365,74.0,0,179,8.0,0.0
22366,54.0,0,119,3.0,0.0
22367,50.0,0,119,3.0,0.0
22368,81.0,60,44,12.0,0.0
22369,69.0,0,119,5.0,0.0
22370,78.0,0,119,1.0,0.0
22371,57.0,0,44,15.0,0.0
22372,81.0,0,44,13.0,0.0
22373,45.0,45,119,7.0,0.0
22374,74.0,0,119,1.0,0.0
22375,57.0,0,179,11.0,0.0
22376,54.0,0,119,4.0,0.0
22377,86.0,0,119,0.0,0.0
22378,66.0,45,179,11.0,0.0
22379,69.0,0,179,10.0,0.0
22380,62.0,0,119,4.0,0.0
22381,69.0,0,44,14.0,0.0
22382,45.0,0,44,15.0,0.0
22383,57.0,0,119,5.0,0.0
22384,78.0,0,44,13.0,0.0
22385,78.0,15,44,12.0,0.0
22386,54.0,0,44,15.0,0.0
22387,42.0,0,44,15.0,0.0
22388,66.0,0,44,14.0,0.0
22389,74.0,0,44,12.0,0.0
22390,74.0,0,44,13.0,0.0
22391,57.0,0,59,5.0,0.0
22392,62.0,15,44,14.0,0.0
22393,50.0,0,44,15.0,0.0
22394,45.0,0,59,7.0,0.0
22395,38.0,0,44,15.0,0.0
22396,69.0,0,59,5.0,0.0
22397,69.0,0,119,5.0,0.0
22398,57.0,0,119,4.0,0.0
22399,73.0,0,119,1.0,0.0
22400,76.0,0,119,1.0,0.0
22401,45.0,0,44,15.0,0.0
22402,33.0,0,44,15.0,0.0
22403,85.0,0,119,0.0,0.0
22404,49.0,0,119,3.0,0.0
22405,52.0,0,119,3.0,0.0
22406,45.0,0,119,7.0,0.0
22407,69.0,0,44,12.0,0.0
22408,64.0,0,119,4.0,0.0
22409,61.0,45,179,11.0,0.0
22410,76.0,0,179,8.0,0.0
22411,69.0,0,179,10.0,0.0
22412,57.0,0,179,11.0,0.0
22413,69.0,0,44,13.0,0.0
22414,57.0,60,44,14.0,0.0
22415,57.0,0,119,5.0,0.0
22416,88.0,45,119,0.0,0.0
22417,45.0,0,44,15.0,0.0
22418,81.0,0,44,12.0,0.0
22419,57.0,15,44,15.0,0.0
22420,81.0,0,44,13.0,0.0
22421,69.0,0,44,14.0,0.0
22422,47.0,0,44,15.0,0.0
22423,83.0,15,44,12.0,0.0
22424,83.0,0,44,13.0,0.0
22425,59.0,0,44,15.0,0.0
22426,71.0,0,44,14.0,0.0
22427,78.0,0,119,8.0,0.0
22428,69.0,0,119,5.0,0.0
22429,45.0,45,119,7.0,0.0
22430,62.0,0,119,11.0,0.0
22431,69.0,60,44,14.0,0.0
22432,57.0,0,179,11.0,0.0
22433,78.0,0,119,1.0,0.0
22434,69.0,45,179,10.0,0.0
22435,81.0,0,44,13.0,0.0
22436,57.0,0,119,5.0,0.0
22437,81.0,0,44,12.0,0.0
22438,45.0,0,44,15.0,0.0
22439,74.0,0,119,1.0,0.0
22440,57.0,0,44,15.0,0.0
22441,90.0,0,119,0.0,0.0
22442,86.0,0,119,0.0,0.0
22443,54.0,0,119,3.0,0.0
22444,50.0,0,119,3.0,0.0
22445,62.0,0,119,4.0,0.0
22446,66.0,0,119,4.0,0.0
22447,33.0,15,44,15.0,0.0
22448,69.0,0,44,12.0,0.0
22449,45.0,0,44,15.0,0.0
22450,57.0,0,44,14.0,0.0
22451,69.0,0,44,13.0,0.0
22452,69.0,0,44,12.0,0.0
22453,69.0,0,59,5.0,0.0
22454,64.0,0,59,11.0,0.0
22455,69.0,0,44,13.0,0.0
22456,55.0,0,59,3.0,0.0
22457,52.0,0,59,3.0,0.0
22458,64.0,0,59,4.0,0.0
22459,67.0,0,59,4.0,0.0
22460,57.0,0,59,5.0,0.0
22461,57.0,0,44,14.0,0.0
22462,45.0,0,59,7.0,0.0
22463,79.0,0,59,1.0,0.0
22464,79.0,0,59,8.0,0.0
22465,91.0,0,59,0.0,0.0
22466,45.0,15,44,15.0,0.0
22467,88.0,0,59,0.0,0.0
22468,76.0,0,59,1.0,0.0
22469,33.0,0,44,15.0,0.0
22470,57.0,0,44,14.0,0.0
22471,45.0,0,119,7.0,0.0
22472,69.0,60,44,13.0,0.0
22473,33.0,0,44,15.0,0.0
22474,62.0,0,179,11.0,0.0
22475,57.0,45,179,11.0,0.0
22476,69.0,0,44,12.0,0.0
22477,45.0,0,44,15.0,0.0
22478,69.0,0,179,10.0,0.0
22479,78.0,0,179,8.0,0.0
22480,50.0,0,119,3.0,0.0
22481,62.0,0,119,4.0,0.0
22482,66.0,0,119,4.0,0.0
22483,69.0,45,119,5.0,0.0
22484,57.0,0,119,5.0,0.0
22485,90.0,0,119,0.0,0.0
22486,54.0,0,119,3.0,0.0
22487,78.0,0,119,1.0,0.0
22488,74.0,0,119,1.0,0.0
22489,86.0,0,119,0.0,0.0
22490,81.0,0,44,13.0,0.0
22491,81.0,0,44,12.0,0.0
22492,45.0,0,44,15.0,0.0
22493,69.0,15,44,14.0,0.0
22494,57.0,0,44,15.0,0.0
22495,44.0,15,44,15.0,0.0
22496,80.0,0,44,13.0,0.0
22497,80.0,0,44,12.0,0.0
22498,68.0,0,44,14.0,0.0
22499,56.0,0,44,15.0,0.0
22500,57.0,0,119,5.0,0.0
22501,57.0,0,44,15.0,0.0
22502,66.0,15,164,11.0,0.0
22503,45.0,60,44,15.0,0.0
22504,81.0,0,44,13.0,0.0
22505,74.0,0,119,1.0,0.0
22506,78.0,0,119,1.0,0.0
22507,81.0,0,44,12.0,0.0
22508,62.0,0,119,4.0,0.0
22509,57.0,0,164,11.0,0.0
22510,86.0,45,119,0.0,0.0
22511,54.0,0,119,4.0,0.0
22512,45.0,0,119,7.0,0.0
22513,69.0,0,44,14.0,0.0
22514,50.0,0,119,3.0,0.0
22515,54.0,0,119,3.0,0.0
22516,69.0,0,164,10.0,0.0
22517,74.0,0,164,8.0,0.0
22518,69.0,0,119,5.0,0.0
22519,78.0,0,44,13.0,0.0
22520,54.0,0,44,15.0,0.0
22521,66.0,0,44,14.0,0.0
22522,42.0,15,44,15.0,0.0
22523,78.0,0,44,12.0,0.0
22524,57.0,45,59,5.0,0.0
22525,69.0,0,59,5.0,0.0
22526,45.0,0,59,7.0,0.0
22527,74.0,0,44,12.0,0.0
22528,38.0,0,44,15.0,0.0
22529,74.0,0,44,13.0,0.0
22530,50.0,0,44,15.0,0.0
22531,62.0,0,44,14.0,0.0
22532,57.0,0,119,4.0,0.0
22533,64.0,0,119,4.0,0.0
22534,76.0,0,179,8.0,0.0
22535,49.0,0,119,3.0,0.0
22536,45.0,0,119,7.0,0.0
22537,52.0,0,119,3.0,0.0
22538,57.0,0,44,14.0,0.0
22539,69.0,0,44,12.0,0.0
22540,69.0,0,119,5.0,0.0
22541,33.0,60,44,15.0,0.0
22542,73.0,0,119,1.0,0.0
22543,76.0,45,119,1.0,0.0
22544,69.0,0,179,10.0,0.0
22545,57.0,0,119,5.0,0.0
22546,61.0,45,179,11.0,0.0
22547,69.0,0,44,13.0,0.0
22548,45.0,0,44,15.0,0.0
22549,57.0,0,179,11.0,0.0
22550,85.0,0,119,0.0,0.0
22551,88.0,0,119,0.0,0.0
22552,57.0,0,44,15.0,0.0
22553,81.0,0,44,12.0,0.0
22554,81.0,0,44,13.0,0.0
22555,69.0,0,44,14.0,0.0
22556,45.0,15,44,15.0,0.0
22557,71.0,15,44,14.0,0.0
22558,47.0,0,44,15.0,0.0
22559,83.0,0,44,12.0,0.0
22560,83.0,0,44,13.0,0.0
22561,59.0,0,44,15.0,0.0
22562,45.0,0,119,7.0,0.0
22563,69.0,0,119,5.0,0.0
22564,57.0,45,119,5.0,0.0
22565,90.0,0,119,0.0,0.0
22566,57.0,0,44,15.0,0.0
22567,69.0,60,44,14.0,0.0
22568,62.0,0,119,4.0,0.0
22569,66.0,0,119,4.0,0.0
22570,62.0,0,119,11.0,0.0
22571,86.0,0,119,0.0,0.0
22572,74.0,0,119,1.0,0.0
22573,81.0,0,44,12.0,0.0
22574,54.0,0,119,3.0,0.0
22575,50.0,0,119,3.0,0.0
22576,57.0,0,179,11.0,0.0
22577,78.0,0,119,1.0,0.0
22578,81.0,0,44,13.0,0.0
22579,45.0,0,44,15.0,0.0
22580,66.0,0,119,10.0,0.0
22581,78.0,0,119,8.0,0.0
22582,69.0,0,44,12.0,0.0
22583,69.0,0,44,13.0,0.0
22584,33.0,0,44,15.0,0.0
22585,45.0,0,44,15.0,0.0
22586,57.0,15,44,14.0,0.0
22587,55.0,0,59,3.0,0.0
22588,79.0,0,59,8.0,0.0
22589,69.0,0,44,12.0,0.0
22590,33.0,0,44,15.0,0.0
22591,76.0,0,59,5.0,0.0
22592,52.0,0,59,3.0,0.0
22593,69.0,15,44,13.0,0.0
22594,45.0,0,44,15.0,0.0
22595,79.0,0,59,1.0,0.0
22596,76.0,0,59,1.0,0.0
22597,91.0,0,59,0.0,0.0
22598,57.0,0,44,14.0,0.0
22599,64.0,0,59,10.0,0.0
22600,64.0,45,59,11.0,0.0
22601,88.0,0,59,0.0,0.0
22602,67.0,0,59,4.0,0.0
22603,64.0,0,59,4.0,0.0
22604,73.0,0,179,10.0,0.0
22605,46.0,0,44,15.0,0.0
22606,34.0,0,44,15.0,0.0
22607,58.0,60,44,13.0,0.0
22608,73.0,0,119,1.0,0.0
22609,78.0,45,119,1.0,0.0
22610,66.0,0,119,4.0,0.0
22611,61.0,0,179,11.0,0.0
22612,78.0,0,119,5.0,0.0
22613,54.0,0,119,4.0,0.0
22614,90.0,0,119,0.0,0.0
22615,58.0,0,44,12.0,0.0
22616,58.0,0,44,14.0,0.0
22617,78.0,45,179,8.0,0.0
22618,46.0,0,119,3.0,0.0
22619,58.0,0,179,11.0,0.0
22620,54.0,0,119,3.0,0.0
22621,85.0,0,119,0.0,0.0
22622,66.0,0,119,5.0,0.0
22623,70.0,0,44,13.0,0.0
22624,46.0,0,44,15.0,0.0
22625,58.0,0,44,15.0,0.0
22626,70.0,15,44,14.0,0.0
22627,70.0,0,44,12.0,0.0
22628,70.0,15,44,14.0,0.0
22629,46.0,0,44,15.0,0.0
22630,58.0,0,44,15.0,0.0
22631,70.0,0,44,13.0,0.0
22632,70.0,0,44,12.0,0.0
22633,30.0,0,44,15.0,0.0
22634,66.0,0,44,12.0,0.0
22635,88.0,0,119,0.0,0.0
22636,76.0,0,119,1.0,0.0
22637,73.0,45,179,10.0,0.0
22638,76.0,0,179,8.0,0.0
22639,85.0,0,119,0.0,0.0
22640,58.0,0,179,11.0,0.0
22641,54.0,0,44,14.0,0.0
22642,54.0,0,179,11.0,0.0
22643,54.0,0,119,4.0,0.0
22644,66.0,0,119,4.0,0.0
22645,66.0,0,119,5.0,0.0
22646,78.0,45,119,5.0,0.0
22647,42.0,0,44,15.0,0.0
22648,54.0,0,119,3.0,0.0
22649,73.0,0,119,1.0,0.0
22650,66.0,60,44,13.0,0.0
22651,58.0,0,119,3.0,0.0
22652,54.0,0,44,15.0,0.0
22653,42.0,0,44,15.0,0.0
22654,78.0,0,44,13.0,0.0
22655,78.0,15,44,12.0,0.0
22656,66.0,0,44,14.0,0.0
22657,78.0,0,59,5.0,0.0
22658,66.0,0,59,5.0,0.0
22659,78.0,0,44,13.0,0.0
22660,66.0,0,44,14.0,0.0
22661,54.0,0,44,15.0,0.0
22662,42.0,0,44,15.0,0.0
22663,78.0,15,44,12.0,0.0
22664,78.0,45,119,5.0,0.0
22665,47.0,0,44,15.0,0.0
22666,66.0,0,119,5.0,0.0
22667,59.0,60,44,13.0,0.0
22668,74.0,0,179,8.0,0.0
22669,59.0,0,44,14.0,0.0
22670,59.0,0,119,3.0,0.0
22671,54.0,0,119,4.0,0.0
22672,59.0,0,179,11.0,0.0
22673,71.0,0,119,1.0,0.0
22674,83.0,0,119,0.0,0.0
22675,35.0,0,44,15.0,0.0
22676,74.0,0,119,1.0,0.0
22677,86.0,0,119,0.0,0.0
22678,66.0,45,179,10.0,0.0
22679,66.0,0,119,4.0,0.0
22680,47.0,0,119,3.0,0.0
22681,59.0,0,44,12.0,0.0
22682,59.0,0,44,15.0,0.0
22683,47.0,0,44,15.0,0.0
22684,71.0,0,44,14.0,0.0
22685,71.0,0,44,13.0,0.0
22686,71.0,15,44,12.0,0.0
22687,71.0,15,44,14.0,0.0
22688,47.0,0,44,15.0,0.0
22689,71.0,0,44,13.0,0.0
22690,71.0,0,44,12.0,0.0
22691,59.0,0,44,15.0,0.0
22692,64.0,0,119,3.0,0.0
22693,59.0,0,179,11.0,0.0
22694,68.0,0,119,1.0,0.0
22695,64.0,0,44,13.0,0.0
22696,76.0,0,119,1.0,0.0
22697,52.0,0,179,11.0,0.0
22698,76.0,0,179,8.0,0.0
22699,40.0,0,44,15.0,0.0
22700,76.0,45,119,5.0,0.0
22701,68.0,0,179,10.0,0.0
22702,64.0,0,119,4.0,0.0
22703,56.0,0,119,3.0,0.0
22704,52.0,0,44,14.0,0.0
22705,64.0,0,44,12.0,0.0
22706,88.0,0,119,0.0,0.0
22707,80.0,0,119,0.0,0.0
22708,28.0,60,44,15.0,0.0
22709,64.0,0,44,14.0,0.0
22710,52.0,0,44,15.0,0.0
22711,76.0,15,44,13.0,0.0
22712,40.0,0,44,15.0,0.0
22713,76.0,0,44,12.0,0.0
22714,76.0,15,44,12.0,0.0
22715,40.0,0,44,15.0,0.0
22716,52.0,0,44,15.0,0.0
22717,76.0,45,59,5.0,0.0
22718,76.0,0,44,13.0,0.0
22719,64.0,0,44,14.0,0.0
22720,57.0,0,119,4.0,0.0
22721,69.0,0,119,1.0,0.0
22722,57.0,0,164,11.0,0.0
22723,69.0,0,164,10.0,0.0
22724,69.0,0,164,8.0,0.0
22725,61.0,0,164,11.0,0.0
22726,33.0,0,44,15.0,0.0
22727,69.0,0,44,12.0,0.0
22728,61.0,0,119,3.0,0.0
22729,45.0,0,44,15.0,0.0
22730,69.0,60,44,13.0,0.0
22731,45.0,0,119,7.0,0.0
22732,57.0,0,44,14.0,0.0
22733,69.0,0,119,5.0,0.0
22734,81.0,45,119,0.0,0.0
22735,57.0,0,119,3.0,0.0
22736,64.0,0,119,4.0,0.0
22737,81.0,0,44,13.0,0.0
22738,69.0,0,44,14.0,0.0
22739,45.0,0,44,15.0,0.0
22740,57.0,15,44,15.0,0.0
22741,81.0,0,44,12.0,0.0
22742,57.0,0,44,15.0,0.0
22743,69.0,0,44,14.0,0.0
22744,81.0,60,44,13.0,0.0
22745,45.0,0,44,15.0,0.0
22746,81.0,0,44,12.0,0.0
22747,57.0,0,44,13.0,0.0
22748,54.0,0,119,3.0,0.0
22749,78.0,0,359,8.0,0.0
22750,57.0,0,119,5.0,0.0
22751,69.0,0,119,5.0,0.0
22752,57.0,0,44,12.0,0.0
22753,86.0,45,119,0.0,0.0
22754,90.0,0,119,0.0,0.0
22755,69.0,45,359,10.0,0.0
22756,45.0,0,44,15.0,0.0
22757,57.0,60,44,14.0,0.0
22758,62.0,0,119,4.0,0.0
22759,78.0,0,119,1.0,0.0
22760,57.0,0,179,11.0,0.0
22761,50.0,0,119,3.0,0.0
22762,74.0,0,119,1.0,0.0
22763,33.0,0,44,15.0,0.0
22764,66.0,0,119,4.0,0.0
22765,45.0,0,119,7.0,0.0
22766,45.0,15,44,15.0,0.0
22767,69.0,0,44,14.0,0.0
22768,69.0,0,44,12.0,0.0
22769,69.0,0,44,13.0,0.0
22770,57.0,0,44,15.0,0.0
22771,57.0,0,59,5.0,0.0
22772,69.0,0,44,12.0,0.0
22773,69.0,15,44,13.0,0.0
22774,57.0,0,44,15.0,0.0
22775,69.0,0,44,14.0,0.0
22776,45.0,45,59,7.0,0.0
22777,69.0,0,59,5.0,0.0
22778,45.0,0,44,15.0,0.0
22779,90.0,0,119,0.0,0.0
22780,74.0,0,44,12.0,0.0
22781,86.0,45,119,0.0,0.0
22782,38.0,0,44,15.0,0.0
22783,50.0,60,44,14.0,0.0
22784,74.0,0,44,13.0,0.0
22785,78.0,0,119,1.0,0.0
22786,50.0,0,119,7.0,0.0
22787,50.0,0,119,3.0,0.0
22788,62.0,0,179,11.0,0.0
22789,74.0,0,119,1.0,0.0
22790,66.0,0,119,4.0,0.0
22791,54.0,0,119,3.0,0.0
22792,62.0,0,119,5.0,0.0
22793,74.0,0,119,5.0,0.0
22794,50.0,0,44,15.0,0.0
22795,62.0,0,119,4.0,0.0
22796,62.0,0,44,15.0,0.0
22797,86.0,15,44,13.0,0.0
22798,50.0,0,44,15.0,0.0
22799,86.0,0,44,12.0,0.0
22800,74.0,0,44,14.0,0.0
22801,48.0,0,44,15.0,0.0
22802,84.0,0,44,13.0,0.0
22803,84.0,15,44,12.0,0.0
22804,72.0,0,44,14.0,0.0
22805,60.0,0,44,15.0,0.0
22806,69.0,0,179,10.0,0.0
22807,62.0,0,119,5.0,0.0
22808,59.0,0,44,15.0,0.0
22809,50.0,0,119,7.0,0.0
22810,47.0,0,44,15.0,0.0
22811,74.0,0,119,5.0,0.0
22812,90.0,45,119,0.0,0.0
22813,71.0,0,44,14.0,0.0
22814,66.0,0,119,4.0,0.0
22815,62.0,0,119,3.0,0.0
22816,86.0,0,119,0.0,0.0
22817,50.0,0,119,3.0,0.0
22818,83.0,0,44,12.0,0.0
22819,62.0,0,179,11.0,0.0
22820,62.0,0,119,4.0,0.0
22821,83.0,60,44,13.0,0.0
22822,69.0,0,119,1.0,0.0
22823,78.0,0,179,8.0,0.0
22824,78.0,0,119,1.0,0.0
22825,57.0,0,44,15.0,0.0
22826,69.0,15,44,14.0,0.0
22827,45.0,0,44,15.0,0.0
22828,81.0,0,44,13.0,0.0
22829,81.0,0,44,12.0,0.0
22830,79.0,0,44,12.0,0.0
22831,74.0,0,59,5.0,0.0
22832,43.0,15,44,15.0,0.0
22833,62.0,0,59,5.0,0.0
22834,55.0,0,44,15.0,0.0
22835,67.0,0,44,14.0,0.0
22836,50.0,45,59,7.0,0.0
22837,79.0,0,44,13.0,0.0
22838,50.0,0,119,7.0,0.0
22839,79.0,45,179,8.0,0.0
22840,78.0,0,44,12.0,0.0
22841,67.0,0,119,4.0,0.0
22842,86.0,0,119,0.0,0.0
22843,91.0,0,119,0.0,0.0
22844,62.0,0,119,3.0,0.0
22845,50.0,0,119,3.0,0.0
22846,74.0,45,119,5.0,0.0
22847,42.0,0,44,15.0,0.0
22848,62.0,0,119,4.0,0.0
22849,71.0,0,179,10.0,0.0
22850,71.0,0,119,1.0,0.0
22851,66.0,60,44,14.0,0.0
22852,62.0,0,119,5.0,0.0
22853,54.0,0,44,15.0,0.0
22854,78.0,0,44,13.0,0.0
22855,62.0,0,179,11.0,0.0
22856,79.0,0,119,1.0,0.0
22857,64.0,0,44,14.0,0.0
22858,40.0,0,44,15.0,0.0
22859,52.0,15,44,15.0,0.0
22860,76.0,0,44,12.0,0.0
22861,76.0,0,44,13.0,0.0
22862,38.0,0,44,15.0,0.0
22863,50.0,0,44,15.0,0.0
22864,74.0,0,44,12.0,0.0
22865,74.0,0,44,13.0,0.0
22866,62.0,15,44,14.0,0.0
22867,62.0,0,179,11.0,0.0
22868,72.0,0,44,12.0,0.0
22869,93.0,0,119,0.0,0.0
22870,72.0,60,44,13.0,0.0
22871,86.0,0,119,0.0,0.0
22872,81.0,0,179,8.0,0.0
22873,48.0,0,44,15.0,0.0
22874,36.0,0,44,15.0,0.0
22875,64.0,0,119,11.0,0.0
22876,50.0,0,119,3.0,0.0
22877,69.0,0,119,4.0,0.0
22878,64.0,0,119,3.0,0.0
22879,74.0,0,119,5.0,0.0
22880,72.0,0,119,1.0,0.0
22881,62.0,0,119,4.0,0.0
22882,60.0,0,44,14.0,0.0
22883,50.0,0,119,7.0,0.0
22884,81.0,45,119,1.0,0.0
22885,62.0,0,119,5.0,0.0
22886,72.0,0,179,10.0,0.0
22887,71.0,0,44,13.0,0.0
22888,71.0,0,44,12.0,0.0
22889,35.0,0,44,15.0,0.0
22890,47.0,15,44,15.0,0.0
22891,59.0,0,44,14.0,0.0
22892,45.0,0,44,15.0,0.0
22893,66.0,45,59,11.0,0.0
22894,33.0,15,44,15.0,0.0
22895,69.0,0,44,12.0,0.0
22896,50.0,0,59,7.0,0.0
22897,62.0,0,59,5.0,0.0
22898,57.0,0,44,14.0,0.0
22899,66.0,0,59,3.0,0.0
22900,69.0,0,44,13.0,0.0
22901,74.0,0,59,5.0,0.0
22902,50.0,0,119,7.0,0.0
22903,81.0,45,119,1.0,0.0
22904,72.0,0,119,1.0,0.0
22905,67.0,0,119,3.0,0.0
22906,43.0,0,119,3.0,0.0
22907,62.0,0,119,4.0,0.0
22908,69.0,0,119,4.0,0.0
22909,55.0,0,44,14.0,0.0
22910,86.0,0,119,0.0,0.0
22911,55.0,0,44,12.0,0.0
22912,67.0,45,179,11.0,0.0
22913,55.0,0,44,13.0,0.0
22914,43.0,60,44,15.0,0.0
22915,74.0,0,119,5.0,0.0
22916,81.0,0,179,8.0,0.0
22917,31.0,0,44,15.0,0.0
22918,72.0,0,179,10.0,0.0
22919,62.0,0,119,5.0,0.0
22920,55.0,0,179,11.0,0.0
22921,93.0,0,119,0.0,0.0
22922,69.0,0,44,14.0,0.0
22923,69.0,0,44,12.0,0.0
22924,45.0,0,44,15.0,0.0
22925,69.0,0,44,13.0,0.0
22926,57.0,15,44,15.0,0.0
22927,71.0,0,44,13.0,0.0
22928,47.0,15,44,15.0,0.0
22929,59.0,0,44,15.0,0.0
22930,71.0,0,44,12.0,0.0
22931,71.0,0,44,14.0,0.0
22932,55.0,0,179,11.0,0.0
22933,59.0,0,119,3.0,0.0
22934,72.0,0,44,14.0,0.0
22935,67.0,0,119,4.0,0.0
22936,72.0,0,44,13.0,0.0
22937,48.0,0,44,15.0,0.0
22938,86.0,0,119,0.0,0.0
22939,91.0,0,119,0.0,0.0
22940,67.0,0,179,11.0,0.0
22941,71.0,0,119,1.0,0.0
22942,67.0,0,119,3.0,0.0
22943,62.0,0,119,4.0,0.0
22944,79.0,45,179,8.0,0.0
22945,50.0,45,119,7.0,0.0
22946,62.0,0,119,5.0,0.0
22947,72.0,0,44,12.0,0.0
22948,74.0,0,119,5.0,0.0
22949,71.0,0,179,10.0,0.0
22950,79.0,0,119,1.0,0.0
22951,60.0,60,44,15.0,0.0
22952,50.0,15,44,15.0,0.0
22953,74.0,0,44,13.0,0.0
22954,62.0,0,44,15.0,0.0
22955,74.0,0,44,12.0,0.0
22956,74.0,0,44,14.0,0.0
22957,74.0,0,59,5.0,0.0
22958,62.0,0,59,5.0,0.0
22959,50.0,0,59,7.0,0.0
22960,64.0,0,44,15.0,0.0
22961,76.0,0,44,12.0,0.0
22962,76.0,15,44,13.0,0.0
22963,76.0,0,44,14.0,0.0
22964,52.0,0,44,15.0,0.0
22965,69.0,0,119,1.0,0.0
22966,62.0,0,119,5.0,0.0
22967,78.0,0,119,1.0,0.0
22968,74.0,0,119,5.0,0.0
22969,66.0,0,119,4.0,0.0
22970,78.0,0,44,12.0,0.0
22971,57.0,0,119,3.0,0.0
22972,86.0,0,119,0.0,0.0
22973,78.0,60,44,13.0,0.0
22974,69.0,0,179,10.0,0.0
22975,50.0,45,119,7.0,0.0
22976,62.0,45,179,11.0,0.0
22977,66.0,0,44,14.0,0.0
22978,62.0,0,119,4.0,0.0
22979,55.0,0,179,11.0,0.0
22980,66.0,0,44,15.0,0.0
22981,54.0,0,44,15.0,0.0
22982,78.0,0,179,8.0,0.0
22983,90.0,0,119,0.0,0.0
22984,66.0,0,119,3.0,0.0
22985,79.0,0,44,13.0,0.0
22986,67.0,0,44,14.0,0.0
22987,79.0,15,44,12.0,0.0
22988,67.0,0,44,15.0,0.0
22989,55.0,0,44,15.0,0.0
22990,81.0,0,44,12.0,0.0
22991,57.0,0,44,15.0,0.0
22992,45.0,0,44,15.0,0.0
22993,81.0,0,44,13.0,0.0
22994,69.0,15,44,14.0,0.0
22995,83.0,15,44,13.0,0.0
22996,71.0,0,44,14.0,0.0
22997,62.0,0,119,4.0,0.0
22998,55.0,0,119,3.0,0.0
22999,67.0,0,119,3.0,0.0
23000,64.0,0,119,4.0,0.0
23001,50.0,0,119,7.0,0.0
23002,83.0,0,44,12.0,0.0
23003,62.0,0,119,5.0,0.0
23004,74.0,0,119,5.0,0.0
23005,47.0,0,44,15.0,0.0
23006,67.0,45,119,10.0,0.0
23007,79.0,0,119,8.0,0.0
23008,67.0,45,59,1.0,0.0
23009,79.0,0,119,1.0,0.0
23010,59.0,0,44,15.0,0.0
23011,59.0,0,119,11.0,0.0
23012,79.0,0,59,0.0,0.0
23013,91.0,0,119,0.0,0.0
23014,55.0,0,44,14.0,0.0
23015,67.0,0,44,13.0,0.0
23016,67.0,15,44,12.0,0.0
23017,31.0,0,44,15.0,0.0
23018,81.0,0,59,0.0,0.0
23019,43.0,0,44,15.0,0.0
23020,69.0,0,59,1.0,0.0
23021,67.0,0,44,13.0,0.0
23022,76.0,0,59,1.0,0.0
23023,71.0,0,59,1.0,0.0
23024,43.0,0,44,15.0,0.0
23025,50.0,0,59,7.0,0.0
23026,55.0,0,59,3.0,0.0
23027,59.0,45,59,3.0,0.0
23028,62.0,0,59,5.0,0.0
23029,74.0,0,59,5.0,0.0
23030,71.0,0,44,10.0,0.0
23031,88.0,0,59,0.0,0.0
23032,83.0,0,59,0.0,0.0
23033,55.0,0,44,14.0,0.0
23034,31.0,0,44,15.0,0.0
23035,76.0,0,44,8.0,0.0
23036,55.0,0,44,11.0,0.0
23037,67.0,0,44,12.0,0.0
23038,78.0,0,119,0.0,0.0
23039,45.0,0,44,15.0,0.0
23040,54.0,0,119,3.0,0.0
23041,62.0,0,119,3.0,0.0
23042,57.0,0,119,5.0,0.0
23043,69.0,0,119,5.0,0.0
23044,74.0,0,119,1.0,0.0
23045,33.0,0,44,15.0,0.0
23046,57.0,0,44,12.0,0.0
23047,74.0,45,179,8.0,0.0
23048,66.0,0,119,1.0,0.0
23049,45.0,0,119,7.0,0.0
23050,86.0,0,119,0.0,0.0
23051,66.0,0,179,10.0,0.0
23052,57.0,0,44,14.0,0.0
23053,57.0,0,179,11.0,0.0
23054,54.0,0,119,4.0,0.0
23055,57.0,60,44,13.0,0.0
23056,62.0,45,119,4.0,0.0
23057,55.0,0,44,15.0,0.0
23058,79.0,0,44,12.0,0.0
23059,67.0,0,44,15.0,0.0
23060,79.0,15,44,13.0,0.0
23061,67.0,0,44,14.0,0.0
23062,66.0,0,44,14.0,0.0
23063,78.0,0,44,12.0,0.0
23064,54.0,0,44,15.0,0.0
23065,66.0,15,44,15.0,0.0
23066,78.0,0,44,13.0,0.0
23067,66.0,0,119,1.0,0.0
23068,62.0,0,119,4.0,0.0
23069,57.0,0,179,11.0,0.0
23070,62.0,45,179,11.0,0.0
23071,54.0,45,119,3.0,0.0
23072,50.0,0,119,3.0,0.0
23073,66.0,0,179,10.0,0.0
23074,64.0,0,44,15.0,0.0
23075,74.0,0,179,8.0,0.0
23076,52.0,0,44,15.0,0.0
23077,69.0,0,119,5.0,0.0
23078,57.0,0,119,5.0,0.0
23079,74.0,0,119,1.0,0.0
23080,76.0,0,44,14.0,0.0
23081,86.0,0,119,0.0,0.0
23082,54.0,0,119,4.0,0.0
23083,76.0,0,44,13.0,0.0
23084,45.0,0,119,7.0,0.0
23085,76.0,60,44,12.0,0.0
23086,74.0,0,44,13.0,0.0
23087,74.0,15,44,14.0,0.0
23088,50.0,0,44,15.0,0.0
23089,74.0,0,44,12.0,0.0
23090,62.0,0,44,15.0,0.0
23091,45.0,0,59,7.0,0.0
23092,73.0,0,44,13.0,0.0
23093,49.0,0,44,15.0,0.0
23094,73.0,0,44,12.0,0.0
23095,69.0,0,59,5.0,0.0
23096,73.0,15,44,14.0,0.0
23097,61.0,0,44,15.0,0.0
23098,57.0,0,59,5.0,0.0
23099,45.0,0,119,7.0,0.0
23100,57.0,0,119,4.0,0.0
23101,64.0,0,119,4.0,0.0
23102,71.0,0,44,14.0,0.0
23103,55.0,0,119,3.0,0.0
23104,57.0,0,179,11.0,0.0
23105,52.0,0,119,3.0,0.0
23106,86.0,45,119,0.0,0.0
23107,88.0,0,119,0.0,0.0
23108,76.0,45,179,8.0,0.0
23109,71.0,0,44,13.0,0.0
23110,59.0,60,44,15.0,0.0
23111,76.0,0,119,1.0,0.0
23112,67.0,0,119,1.0,0.0
23113,57.0,0,119,5.0,0.0
23114,71.0,0,44,12.0,0.0
23115,69.0,0,119,5.0,0.0
23116,47.0,0,44,15.0,0.0
23117,67.0,0,179,10.0,0.0
23118,62.0,0,179,11.0,0.0
23119,69.0,0,44,13.0,0.0
23120,69.0,0,44,14.0,0.0
23121,69.0,0,44,12.0,0.0
23122,45.0,15,44,15.0,0.0
23123,57.0,0,44,15.0,0.0
23124,74.0,0,44,13.0,0.0
23125,50.0,0,44,15.0,0.0
23126,74.0,0,44,12.0,0.0
23127,74.0,0,44,14.0,0.0
23128,62.0,15,44,15.0,0.0
23129,69.0,0,179,10.0,0.0
23130,69.0,0,44,14.0,0.0
23131,45.0,0,119,7.0,0.0
23132,57.0,0,179,11.0,0.0
23133,57.0,0,119,3.0,0.0
23134,54.0,0,119,3.0,0.0
23135,69.0,0,44,13.0,0.0
23136,62.0,0,119,4.0,0.0
23137,66.0,0,119,4.0,0.0
23138,45.0,60,44,15.0,0.0
23139,62.0,0,179,11.0,0.0
23140,57.0,0,44,15.0,0.0
23141,86.0,0,119,0.0,0.0
23142,90.0,0,119,0.0,0.0
23143,69.0,0,44,12.0,0.0
23144,78.0,0,119,1.0,0.0
23145,69.0,0,119,1.0,0.0
23146,78.0,0,179,8.0,0.0
23147,57.0,0,119,5.0,0.0
23148,69.0,45,119,5.0,0.0
23149,66.0,0,44,14.0,0.0
23150,66.0,0,44,13.0,0.0
23151,42.0,0,44,15.0,0.0
23152,54.0,15,44,15.0,0.0
23153,66.0,0,44,12.0,0.0
23154,45.0,0,59,7.0,0.0
23155,62.0,0,44,13.0,0.0
23156,50.0,15,44,15.0,0.0
23157,38.0,0,44,15.0,0.0
23158,57.0,45,59,5.0,0.0
23159,62.0,0,44,12.0,0.0
23160,69.0,0,59,5.0,0.0
23161,62.0,0,44,14.0,0.0
23162,55.0,0,119,3.0,0.0
23163,59.0,0,44,12.0,0.0
23164,76.0,0,299,8.0,0.0
23165,73.0,0,119,1.0,0.0
23166,59.0,0,44,13.0,0.0
23167,57.0,0,299,11.0,0.0
23168,35.0,0,44,15.0,0.0
23169,61.0,0,299,11.0,0.0
23170,85.0,0,119,0.0,0.0
23171,67.0,45,299,10.0,0.0
23172,45.0,0,119,7.0,0.0
23173,59.0,0,44,14.0,0.0
23174,52.0,0,119,3.0,0.0
23175,88.0,0,119,0.0,0.0
23176,76.0,45,119,1.0,0.0
23177,57.0,0,119,5.0,0.0
23178,69.0,0,119,5.0,0.0
23179,57.0,0,119,4.0,0.0
23180,64.0,0,119,4.0,0.0
23181,47.0,60,44,15.0,0.0
23182,57.0,15,44,14.0,0.0
23183,57.0,0,44,12.0,0.0
23184,33.0,0,44,15.0,0.0
23185,45.0,0,44,15.0,0.0
23186,57.0,0,44,13.0,0.0
23187,32.0,60,44,15.0,0.0
23188,56.0,0,44,13.0,0.0
23189,56.0,0,44,14.0,0.0
23190,44.0,0,44,15.0,0.0
23191,56.0,0,44,12.0,0.0
23192,33.0,0,44,15.0,0.0
23193,57.0,0,44,13.0,0.0
23194,57.0,60,44,12.0,0.0
23195,45.0,0,44,15.0,0.0
23196,57.0,0,119,5.0,0.0
23197,69.0,0,119,5.0,0.0
23198,45.0,0,119,7.0,0.0
23199,57.0,0,44,14.0,0.0
23200,57.0,15,44,15.0,0.0
23201,69.0,0,44,12.0,0.0
23202,69.0,0,44,14.0,0.0
23203,69.0,0,44,13.0,0.0
23204,45.0,0,44,15.0,0.0
23205,62.0,45,59,4.0,0.0
23206,57.0,0,59,5.0,0.0
23207,69.0,0,44,14.0,0.0
23208,62.0,0,59,11.0,0.0
23209,50.0,0,59,3.0,0.0
23210,54.0,0,59,3.0,0.0
23211,66.0,0,59,10.0,0.0
23212,54.0,0,59,4.0,0.0
23213,69.0,0,59,5.0,0.0
23214,57.0,0,59,11.0,0.0
23215,69.0,15,44,12.0,0.0
23216,74.0,0,59,8.0,0.0
23217,57.0,0,44,15.0,0.0
23218,74.0,0,59,1.0,0.0
23219,66.0,0,59,1.0,0.0
23220,45.0,0,44,15.0,0.0
23221,78.0,0,59,0.0,0.0
23222,45.0,0,59,7.0,0.0
23223,86.0,0,59,0.0,0.0
23224,69.0,0,44,13.0,0.0
23225,62.0,0,119,5.0,0.0
23226,86.0,0,119,0.0,0.0
23227,78.0,0,119,0.0,0.0
23228,66.0,0,119,1.0,0.0
23229,74.0,0,119,1.0,0.0
23230,62.0,45,119,4.0,0.0
23231,50.0,0,119,3.0,0.0
23232,54.0,0,119,3.0,0.0
23233,50.0,0,44,15.0,0.0
23234,62.0,45,179,11.0,0.0
23235,74.0,0,119,5.0,0.0
23236,62.0,0,44,14.0,0.0
23237,62.0,60,44,12.0,0.0
23238,62.0,0,44,13.0,0.0
23239,38.0,0,44,15.0,0.0
23240,74.0,0,179,8.0,0.0
23241,50.0,0,179,11.0,0.0
23242,50.0,0,119,7.0,0.0
23243,54.0,0,119,4.0,0.0
23244,66.0,0,179,10.0,0.0
23245,45.0,15,44,15.0,0.0
23246,57.0,0,44,15.0,0.0
23247,69.0,0,44,13.0,0.0
23248,69.0,0,44,12.0,0.0
23249,69.0,0,44,14.0,0.0
23250,44.0,0,44,15.0,0.0
23251,68.0,15,44,14.0,0.0
23252,68.0,0,44,13.0,0.0
23253,56.0,0,44,15.0,0.0
23254,50.0,0,59,7.0,0.0
23255,74.0,0,59,5.0,0.0
23256,68.0,0,44,12.0,0.0
23257,66.0,0,59,5.0,0.0
23258,54.0,0,59,4.0,0.0
23259,62.0,0,59,4.0,0.0
23260,74.0,0,119,5.0,0.0
23261,69.0,0,44,13.0,0.0
23262,50.0,0,119,7.0,0.0
23263,62.0,0,119,4.0,0.0
23264,54.0,45,119,4.0,0.0
23265,45.0,60,44,15.0,0.0
23266,57.0,0,44,15.0,0.0
23267,69.0,0,44,12.0,0.0
23268,69.0,0,44,14.0,0.0
23269,66.0,0,119,5.0,0.0
23270,78.0,0,44,12.0,0.0
23271,66.0,0,44,14.0,0.0
23272,42.0,0,44,15.0,0.0
23273,78.0,15,44,13.0,0.0
23274,54.0,0,44,15.0,0.0
23275,50.0,0,44,15.0,0.0
23276,50.0,0,59,7.0,0.0
23277,74.0,0,44,12.0,0.0
23278,66.0,0,59,4.0,0.0
23279,62.0,15,44,14.0,0.0
23280,50.0,0,59,4.0,0.0
23281,62.0,45,59,5.0,0.0
23282,78.0,0,59,5.0,0.0
23283,74.0,0,44,13.0,0.0
23284,38.0,0,44,15.0,0.0
23285,69.0,0,44,12.0,0.0
23286,64.0,0,119,4.0,0.0
23287,33.0,0,44,15.0,0.0
23288,45.0,60,44,15.0,0.0
23289,76.0,45,179,8.0,0.0
23290,69.0,0,44,13.0,0.0
23291,57.0,0,44,14.0,0.0
23292,57.0,0,119,4.0,0.0
23293,57.0,0,179,11.0,0.0
23294,64.0,0,179,10.0,0.0
23295,73.0,0,119,1.0,0.0
23296,45.0,0,119,7.0,0.0
23297,88.0,0,119,0.0,0.0
23298,85.0,0,119,0.0,0.0
23299,76.0,45,119,1.0,0.0
23300,69.0,0,119,5.0,0.0
23301,76.0,0,119,5.0,0.0
23302,49.0,0,119,3.0,0.0
23303,52.0,0,119,3.0,0.0
23304,61.0,0,179,11.0,0.0
23305,81.0,0,44,12.0,0.0
23306,45.0,0,44,15.0,0.0
23307,57.0,0,44,15.0,0.0
23308,81.0,0,44,13.0,0.0
23309,69.0,15,44,14.0,0.0
23310,80.0,0,44,12.0,0.0
23311,56.0,0,44,15.0,0.0
23312,68.0,15,44,14.0,0.0
23313,44.0,0,44,15.0,0.0
23314,80.0,0,44,13.0,0.0
23315,81.0,0,44,13.0,0.0
23316,45.0,0,119,7.0,0.0
23317,45.0,60,44,15.0,0.0
23318,81.0,0,44,12.0,0.0
23319,52.0,0,119,3.0,0.0
23320,76.0,0,179,8.0,0.0
23321,57.0,0,119,4.0,0.0
23322,64.0,0,119,4.0,0.0
23323,85.0,0,119,0.0,0.0
23324,69.0,0,119,5.0,0.0
23325,49.0,45,119,3.0,0.0
23326,69.0,0,179,10.0,0.0
23327,88.0,0,119,0.0,0.0
23328,57.0,0,119,5.0,0.0
23329,57.0,0,44,15.0,0.0
23330,57.0,45,179,11.0,0.0
23331,69.0,0,44,14.0,0.0
23332,61.0,0,179,11.0,0.0
23333,76.0,0,119,1.0,0.0
23334,73.0,0,119,1.0,0.0
23335,76.0,0,44,12.0,0.0
23336,76.0,0,44,13.0,0.0
23337,64.0,0,44,14.0,0.0
23338,40.0,0,44,15.0,0.0
23339,52.0,15,44,15.0,0.0
23340,45.0,0,59,7.0,0.0
23341,73.0,0,44,13.0,0.0
23342,37.0,0,44,15.0,0.0
23343,61.0,0,44,14.0,0.0
23344,49.0,15,44,15.0,0.0
23345,73.0,0,44,12.0,0.0
23346,69.0,0,59,5.0,0.0
23347,57.0,0,59,5.0,0.0
23348,57.0,0,44,14.0,0.0
23349,45.0,60,44,15.0,0.0
23350,86.0,0,119,0.0,0.0
23351,45.0,0,119,7.0,0.0
23352,90.0,0,119,0.0,0.0
23353,78.0,0,119,1.0,0.0
23354,74.0,0,119,1.0,0.0
23355,33.0,0,44,15.0,0.0
23356,57.0,0,179,11.0,0.0
23357,69.0,0,44,13.0,0.0
23358,62.0,0,119,4.0,0.0
23359,54.0,0,119,3.0,0.0
23360,66.0,45,119,4.0,0.0
23361,78.0,45,179,8.0,0.0
23362,69.0,0,44,12.0,0.0
23363,57.0,0,119,5.0,0.0
23364,69.0,0,119,5.0,0.0
23365,62.0,0,179,11.0,0.0
23366,69.0,0,179,10.0,0.0
23367,50.0,0,119,3.0,0.0
23368,69.0,0,44,14.0,0.0
23369,57.0,0,44,15.0,0.0
23370,81.0,15,44,13.0,0.0
23371,81.0,0,44,12.0,0.0
23372,45.0,0,44,15.0,0.0
23373,80.0,0,44,13.0,0.0
23374,80.0,0,44,12.0,0.0
23375,44.0,0,44,15.0,0.0
23376,68.0,15,44,14.0,0.0
23377,56.0,0,44,15.0,0.0
23378,45.0,0,119,7.0,0.0
23379,66.0,0,179,11.0,0.0
23380,57.0,0,119,5.0,0.0
23381,54.0,0,119,3.0,0.0
23382,81.0,60,44,13.0,0.0
23383,69.0,0,119,5.0,0.0
23384,57.0,0,44,15.0,0.0
23385,81.0,0,44,12.0,0.0
23386,50.0,0,119,3.0,0.0
23387,78.0,0,119,1.0,0.0
23388,69.0,0,44,14.0,0.0
23389,45.0,0,44,15.0,0.0
23390,54.0,45,119,4.0,0.0
23391,69.0,0,179,10.0,0.0
23392,62.0,0,119,4.0,0.0
23393,74.0,0,119,1.0,0.0
23394,86.0,0,119,0.0,0.0
23395,57.0,0,179,11.0,0.0
23396,74.0,0,179,8.0,0.0
23397,66.0,0,44,14.0,0.0
23398,42.0,0,44,15.0,0.0
23399,78.0,0,44,12.0,0.0
23400,78.0,0,44,13.0,0.0
23401,54.0,15,44,15.0,0.0
23402,38.0,15,44,15.0,0.0
23403,62.0,0,44,14.0,0.0
23404,50.0,0,44,15.0,0.0
23405,74.0,0,44,13.0,0.0
23406,74.0,0,44,12.0,0.0
23407,45.0,0,59,7.0,0.0
23408,69.0,45,59,5.0,0.0
23409,57.0,0,59,5.0,0.0
23410,69.0,60,44,13.0,0.0
23411,73.0,0,119,1.0,0.0
23412,88.0,0,119,0.0,0.0
23413,85.0,0,119,0.0,0.0
23414,57.0,0,119,4.0,0.0
23415,64.0,0,119,4.0,0.0
23416,69.0,0,44,12.0,0.0
23417,69.0,0,119,5.0,0.0
23418,76.0,0,179,8.0,0.0
23419,33.0,0,44,15.0,0.0
23420,76.0,0,119,1.0,0.0
23421,45.0,0,44,15.0,0.0
23422,61.0,45,179,11.0,0.0
23423,45.0,0,119,7.0,0.0
23424,57.0,0,179,11.0,0.0
23425,57.0,0,44,14.0,0.0
23426,52.0,0,119,3.0,0.0
23427,69.0,0,179,10.0,0.0
23428,49.0,45,119,3.0,0.0
23429,57.0,0,119,5.0,0.0
23430,81.0,0,44,13.0,0.0
23431,69.0,0,44,14.0,0.0
23432,57.0,15,44,15.0,0.0
23433,81.0,0,44,12.0,0.0
23434,45.0,0,44,15.0,0.0
23435,71.0,0,44,14.0,0.0
23436,47.0,0,44,15.0,0.0
23437,83.0,15,44,12.0,0.0
23438,83.0,0,44,13.0,0.0
23439,59.0,0,44,15.0,0.0
23440,81.0,0,44,12.0,0.0
23441,45.0,45,119,7.0,0.0
23442,90.0,0,119,0.0,0.0
23443,86.0,0,119,0.0,0.0
23444,57.0,0,44,15.0,0.0
23445,62.0,0,119,11.0,0.0
23446,69.0,0,44,14.0,0.0
23447,62.0,0,119,4.0,0.0
23448,78.0,0,119,1.0,0.0
23449,50.0,0,119,3.0,0.0
23450,45.0,60,44,15.0,0.0
23451,81.0,0,44,13.0,0.0
23452,69.0,0,119,5.0,0.0
23453,57.0,0,119,5.0,0.0
23454,66.0,0,119,4.0,0.0
23455,78.0,0,119,8.0,0.0
23456,57.0,0,179,11.0,0.0
23457,69.0,0,179,10.0,0.0
23458,74.0,0,119,1.0,0.0
23459,54.0,0,119,3.0,0.0
23460,69.0,0,44,13.0,0.0
23461,69.0,0,44,12.0,0.0
23462,33.0,15,44,15.0,0.0
23463,57.0,0,44,14.0,0.0
23464,45.0,0,44,15.0,0.0
23465,45.0,0,59,7.0,0.0
23466,57.0,0,44,14.0,0.0
23467,55.0,0,59,3.0,0.0
23468,52.0,0,59,3.0,0.0
23469,69.0,0,59,5.0,0.0
23470,79.0,0,59,1.0,0.0
23471,76.0,45,59,1.0,0.0
23472,57.0,0,59,5.0,0.0
23473,64.0,0,59,4.0,0.0
23474,45.0,0,44,15.0,0.0
23475,67.0,0,59,4.0,0.0
23476,64.0,0,59,11.0,0.0
23477,69.0,0,44,13.0,0.0
23478,33.0,0,44,15.0,0.0
23479,69.0,15,44,12.0,0.0
23480,79.0,0,59,8.0,0.0
23481,91.0,0,59,0.0,0.0
23482,88.0,0,59,0.0,0.0
23483,57.0,0,44,14.0,0.0
23484,78.0,0,179,8.0,0.0
23485,50.0,0,119,3.0,0.0
23486,54.0,0,119,3.0,0.0
23487,33.0,0,44,15.0,0.0
23488,90.0,0,119,0.0,0.0
23489,45.0,60,44,15.0,0.0
23490,69.0,45,179,10.0,0.0
23491,69.0,0,44,12.0,0.0
23492,62.0,0,179,11.0,0.0
23493,78.0,45,119,1.0,0.0
23494,66.0,0,119,4.0,0.0
23495,62.0,0,119,4.0,0.0
23496,74.0,0,119,1.0,0.0
23497,86.0,0,119,0.0,0.0
23498,57.0,0,179,11.0,0.0
23499,69.0,0,44,13.0,0.0
23500,57.0,0,119,5.0,0.0
23501,69.0,0,119,5.0,0.0
23502,45.0,0,119,7.0,0.0
23503,45.0,0,44,15.0,0.0
23504,69.0,0,44,14.0,0.0
23505,81.0,15,44,13.0,0.0
23506,57.0,0,44,15.0,0.0
23507,81.0,0,44,12.0,0.0
23508,56.0,0,44,15.0,0.0
23509,80.0,15,44,12.0,0.0
23510,80.0,0,44,13.0,0.0
23511,44.0,0,44,15.0,0.0
23512,68.0,0,44,14.0,0.0
23513,81.0,0,44,12.0,0.0
23514,54.0,0,119,4.0,0.0
23515,62.0,0,119,4.0,0.0
23516,78.0,0,119,1.0,0.0
23517,74.0,45,119,1.0,0.0
23518,81.0,0,44,13.0,0.0
23519,69.0,0,44,14.0,0.0
23520,69.0,0,179,10.0,0.0
23521,57.0,60,44,15.0,0.0
23522,86.0,0,119,0.0,0.0
23523,50.0,0,119,3.0,0.0
23524,45.0,0,119,7.0,0.0
23525,54.0,0,119,3.0,0.0
23526,66.0,0,164,11.0,0.0
23527,57.0,0,119,5.0,0.0
23528,69.0,0,119,5.0,0.0
23529,74.0,15,164,8.0,0.0
23530,57.0,0,164,11.0,0.0
23531,45.0,0,44,15.0,0.0
23532,78.0,0,44,12.0,0.0
23533,66.0,0,44,14.0,0.0
23534,54.0,0,44,15.0,0.0
23535,42.0,0,44,15.0,0.0
23536,78.0,15,44,13.0,0.0
23537,50.0,0,44,15.0,0.0
23538,74.0,0,44,12.0,0.0
23539,62.0,0,44,14.0,0.0
23540,45.0,0,59,7.0,0.0
23541,38.0,0,44,15.0,0.0
23542,57.0,45,59,5.0,0.0
23543,69.0,0,59,5.0,0.0
23544,74.0,0,44,13.0,0.0
23545,88.0,0,119,0.0,0.0
23546,57.0,60,44,14.0,0.0
23547,73.0,0,119,1.0,0.0
23548,76.0,0,119,1.0,0.0
23549,57.0,0,119,4.0,0.0
23550,69.0,0,44,12.0,0.0
23551,85.0,0,119,0.0,0.0
23552,64.0,45,119,4.0,0.0
23553,49.0,0,119,3.0,0.0
23554,52.0,0,119,3.0,0.0
23555,69.0,0,119,5.0,0.0
23556,45.0,0,44,15.0,0.0
23557,57.0,0,119,5.0,0.0
23558,33.0,0,44,15.0,0.0
23559,45.0,0,119,7.0,0.0
23560,69.0,0,44,13.0,0.0
23561,69.0,0,179,10.0,0.0
23562,57.0,0,179,11.0,0.0
23563,61.0,0,179,11.0,0.0
23564,76.0,45,179,8.0,0.0
23565,81.0,0,44,13.0,0.0
23566,45.0,15,44,15.0,0.0
23567,81.0,0,44,12.0,0.0
23568,57.0,0,44,15.0,0.0
23569,69.0,0,44,14.0,0.0
23570,71.0,0,44,14.0,0.0
23571,47.0,0,44,15.0,0.0
23572,83.0,15,44,12.0,0.0
23573,83.0,0,44,13.0,0.0
23574,59.0,0,44,15.0,0.0
23575,54.0,0,119,3.0,0.0
23576,50.0,0,119,3.0,0.0
23577,81.0,0,44,13.0,0.0
23578,57.0,45,119,5.0,0.0
23579,69.0,0,119,5.0,0.0
23580,57.0,0,179,11.0,0.0
23581,86.0,0,119,0.0,0.0
23582,57.0,0,44,15.0,0.0
23583,66.0,0,119,4.0,0.0
23584,62.0,0,119,4.0,0.0
23585,81.0,0,44,12.0,0.0
23586,78.0,0,119,8.0,0.0
23587,90.0,0,119,0.0,0.0
23588,74.0,0,119,1.0,0.0
23589,78.0,0,119,1.0,0.0
23590,66.0,0,119,10.0,0.0
23591,45.0,0,119,7.0,0.0
23592,62.0,0,119,11.0,0.0
23593,69.0,60,44,14.0,0.0
23594,45.0,0,44,15.0,0.0
23595,45.0,0,44,15.0,0.0
23596,57.0,0,44,14.0,0.0
23597,69.0,15,44,13.0,0.0
23598,33.0,0,44,15.0,0.0
23599,69.0,0,44,12.0,0.0
23600,57.0,0,44,14.0,0.0
23601,55.0,45,59,3.0,0.0
23602,52.0,0,59,3.0,0.0
23603,64.0,0,59,11.0,0.0
23604,76.0,0,59,1.0,0.0
23605,33.0,0,44,15.0,0.0
23606,69.0,0,44,12.0,0.0
23607,64.0,0,59,10.0,0.0
23608,79.0,0,59,1.0,0.0
23609,79.0,0,59,8.0,0.0
23610,91.0,0,59,0.0,0.0
23611,88.0,0,59,0.0,0.0
23612,45.0,0,44,15.0,0.0
23613,64.0,0,59,4.0,0.0
23614,67.0,0,59,4.0,0.0
23615,76.0,0,59,5.0,0.0
23616,69.0,15,44,13.0,0.0
23617,78.0,0,119,5.0,0.0
23618,66.0,0,119,5.0,0.0
23619,58.0,0,44,12.0,0.0
23620,90.0,0,119,0.0,0.0
23621,73.0,0,119,1.0,0.0
23622,46.0,0,119,3.0,0.0
23623,54.0,0,119,3.0,0.0
23624,78.0,0,119,1.0,0.0
23625,85.0,0,119,0.0,0.0
23626,61.0,0,179,11.0,0.0
23627,58.0,0,44,13.0,0.0
23628,46.0,0,44,15.0,0.0
23629,78.0,45,179,8.0,0.0
23630,54.0,0,119,4.0,0.0
23631,73.0,0,179,10.0,0.0
23632,66.0,45,119,4.0,0.0
23633,58.0,0,44,14.0,0.0
23634,58.0,0,179,11.0,0.0
23635,34.0,60,44,15.0,0.0
23636,46.0,0,44,15.0,0.0
23637,70.0,15,44,14.0,0.0
23638,70.0,0,44,13.0,0.0
23639,58.0,0,44,15.0,0.0
23640,70.0,0,44,12.0,0.0
23641,70.0,0,44,12.0,0.0
23642,58.0,15,44,15.0,0.0
23643,46.0,0,44,15.0,0.0
23644,70.0,0,44,13.0,0.0
23645,70.0,0,44,14.0,0.0
23646,58.0,0,179,11.0,0.0
23647,73.0,0,179,10.0,0.0
23648,54.0,0,119,4.0,0.0
23649,54.0,0,179,11.0,0.0
23650,66.0,0,119,5.0,0.0
23651,78.0,45,119,5.0,0.0
23652,66.0,0,119,4.0,0.0
23653,66.0,0,44,12.0,0.0
23654,76.0,0,179,8.0,0.0
23655,88.0,0,119,0.0,0.0
23656,66.0,0,44,13.0,0.0
23657,85.0,0,119,0.0,0.0
23658,30.0,0,44,15.0,0.0
23659,58.0,0,119,3.0,0.0
23660,76.0,0,119,1.0,0.0
23661,73.0,0,119,1.0,0.0
23662,42.0,0,44,15.0,0.0
23663,54.0,0,119,3.0,0.0
23664,54.0,60,44,14.0,0.0
23665,66.0,0,44,14.0,0.0
23666,54.0,15,44,15.0,0.0
23667,78.0,0,44,13.0,0.0
23668,78.0,0,44,12.0,0.0
23669,42.0,0,44,15.0,0.0
23670,66.0,0,44,14.0,0.0
23671,78.0,15,44,13.0,0.0
23672,78.0,0,44,12.0,0.0
23673,54.0,0,44,15.0,0.0
23674,66.0,0,59,5.0,0.0
23675,42.0,0,44,15.0,0.0
23676,78.0,45,59,5.0,0.0
23677,59.0,60,44,14.0,0.0
23678,59.0,0,44,12.0,0.0
23679,54.0,0,119,4.0,0.0
23680,35.0,0,44,15.0,0.0
23681,66.0,45,119,5.0,0.0
23682,66.0,0,119,4.0,0.0
23683,47.0,0,44,15.0,0.0
23684,59.0,0,179,11.0,0.0
23685,66.0,0,179,10.0,0.0
23686,47.0,0,119,3.0,0.0
23687,59.0,0,119,3.0,0.0
23688,74.0,0,119,1.0,0.0
23689,71.0,0,119,1.0,0.0
23690,78.0,0,119,5.0,0.0
23691,86.0,0,119,0.0,0.0
23692,59.0,0,44,13.0,0.0
23693,83.0,0,119,0.0,0.0
23694,74.0,0,179,8.0,0.0
23695,71.0,15,44,14.0,0.0
23696,71.0,0,44,12.0,0.0
23697,59.0,0,44,15.0,0.0
23698,47.0,0,44,15.0,0.0
23699,71.0,0,44,13.0,0.0
23700,71.0,0,44,13.0,0.0
23701,71.0,0,44,14.0,0.0
23702,47.0,0,44,15.0,0.0
23703,59.0,0,44,15.0,0.0
23704,71.0,15,44,12.0,0.0
23705,64.0,0,44,12.0,0.0
23706,64.0,0,44,13.0,0.0
23707,76.0,0,179,8.0,0.0
23708,59.0,0,179,11.0,0.0
23709,40.0,0,44,15.0,0.0
23710,52.0,45,179,11.0,0.0
23711,64.0,0,119,4.0,0.0
23712,76.0,0,119,5.0,0.0
23713,76.0,0,119,1.0,0.0
23714,68.0,0,119,1.0,0.0
23715,68.0,0,179,10.0,0.0
23716,64.0,0,119,3.0,0.0
23717,56.0,0,119,3.0,0.0
23718,28.0,0,44,15.0,0.0
23719,88.0,0,119,0.0,0.0
23720,80.0,45,119,0.0,0.0
23721,52.0,60,44,14.0,0.0
23722,52.0,0,44,15.0,0.0
23723,76.0,0,44,13.0,0.0
23724,40.0,15,44,15.0,0.0
23725,64.0,0,44,14.0,0.0
23726,76.0,0,44,12.0,0.0
23727,76.0,0,44,13.0,0.0
23728,52.0,0,44,15.0,0.0
23729,64.0,15,44,14.0,0.0
23730,76.0,0,44,12.0,0.0
23731,76.0,0,59,5.0,0.0
23732,40.0,0,44,15.0,0.0
23733,45.0,0,44,15.0,0.0
23734,69.0,0,164,8.0,0.0
23735,45.0,0,119,7.0,0.0
23736,61.0,45,179,11.0,0.0
23737,57.0,60,44,14.0,0.0
23738,69.0,0,119,1.0,0.0
23739,69.0,0,44,13.0,0.0
23740,69.0,45,119,5.0,0.0
23741,69.0,0,164,10.0,0.0
23742,33.0,0,44,15.0,0.0
23743,61.0,0,119,3.0,0.0
23744,57.0,0,119,3.0,0.0
23745,64.0,0,119,4.0,0.0
23746,57.0,0,119,4.0,0.0
23747,81.0,0,119,0.0,0.0
23748,57.0,0,164,11.0,0.0
23749,69.0,0,44,12.0,0.0
23750,81.0,0,44,13.0,0.0
23751,69.0,15,44,14.0,0.0
23752,81.0,0,44,12.0,0.0
23753,57.0,0,44,15.0,0.0
23754,45.0,0,44,15.0,0.0
23755,81.0,15,44,12.0,0.0
23756,69.0,0,44,14.0,0.0
23757,57.0,0,44,15.0,0.0
23758,45.0,0,44,15.0,0.0
23759,81.0,0,44,13.0,0.0
23760,33.0,0,44,15.0,0.0
23761,57.0,0,44,13.0,0.0
23762,45.0,0,119,7.0,0.0
23763,45.0,0,44,15.0,0.0
23764,78.0,0,359,8.0,0.0
23765,50.0,0,119,3.0,0.0
23766,66.0,0,119,4.0,0.0
23767,62.0,0,119,4.0,0.0
23768,54.0,0,119,3.0,0.0
23769,57.0,0,44,12.0,0.0
23770,90.0,0,119,0.0,0.0
23771,57.0,45,179,11.0,0.0
23772,57.0,0,119,5.0,0.0
23773,69.0,0,119,5.0,0.0
23774,86.0,45,119,0.0,0.0
23775,78.0,0,119,1.0,0.0
23776,74.0,0,119,1.0,0.0
23777,69.0,0,359,10.0,0.0
23778,57.0,60,44,14.0,0.0
23779,57.0,0,44,15.0,0.0
23780,45.0,0,44,15.0,0.0
23781,69.0,0,44,13.0,0.0
23782,69.0,0,44,12.0,0.0
23783,69.0,15,44,14.0,0.0
23784,69.0,0,59,5.0,0.0
23785,69.0,0,44,14.0,0.0
23786,57.0,15,44,15.0,0.0
23787,69.0,0,44,13.0,0.0
23788,45.0,0,44,15.0,0.0
23789,45.0,0,59,7.0,0.0
23790,69.0,0,44,12.0,0.0
23791,57.0,0,59,5.0,0.0
23792,74.0,0,119,1.0,0.0
23793,38.0,0,44,15.0,0.0
23794,54.0,0,119,3.0,0.0
23795,78.0,0,119,1.0,0.0
23796,62.0,0,119,4.0,0.0
23797,62.0,60,44,13.0,0.0
23798,62.0,0,179,11.0,0.0
23799,62.0,0,44,12.0,0.0
23800,66.0,0,119,4.0,0.0
23801,50.0,0,119,7.0,0.0
23802,90.0,0,119,0.0,0.0
23803,86.0,45,119,0.0,0.0
23804,50.0,0,44,14.0,0.0
23805,62.0,0,119,5.0,0.0
23806,74.0,0,119,5.0,0.0
23807,50.0,0,44,15.0,0.0
23808,50.0,0,119,3.0,0.0
23809,62.0,0,44,15.0,0.0
23810,86.0,0,44,13.0,0.0
23811,74.0,15,44,14.0,0.0
23812,86.0,0,44,12.0,0.0
23813,50.0,0,44,15.0,0.0
23814,60.0,0,44,15.0,0.0
23815,48.0,15,44,15.0,0.0
23816,84.0,0,44,12.0,0.0
23817,84.0,0,44,13.0,0.0
23818,72.0,0,44,14.0,0.0
23819,69.0,45,179,10.0,0.0
23820,71.0,0,44,14.0,0.0
23821,83.0,0,44,12.0,0.0
23822,50.0,0,119,7.0,0.0
23823,74.0,0,119,5.0,0.0
23824,62.0,0,119,5.0,0.0
23825,78.0,0,179,8.0,0.0
23826,62.0,0,119,3.0,0.0
23827,50.0,0,119,3.0,0.0
23828,59.0,0,44,15.0,0.0
23829,83.0,0,44,13.0,0.0
23830,66.0,0,119,4.0,0.0
23831,47.0,60,44,15.0,0.0
23832,69.0,0,119,1.0,0.0
23833,78.0,0,119,1.0,0.0
23834,86.0,0,119,0.0,0.0
23835,62.0,0,119,4.0,0.0
23836,90.0,45,119,0.0,0.0
23837,62.0,0,179,11.0,0.0
23838,57.0,0,44,15.0,0.0
23839,69.0,15,44,14.0,0.0
23840,81.0,0,44,13.0,0.0
23841,81.0,0,44,12.0,0.0
23842,45.0,0,44,15.0,0.0
23843,50.0,0,59,7.0,0.0
23844,79.0,0,44,12.0,0.0
23845,67.0,0,44,14.0,0.0
23846,55.0,15,44,15.0,0.0
23847,62.0,0,59,5.0,0.0
23848,74.0,0,59,5.0,0.0
23849,43.0,0,44,15.0,0.0
23850,79.0,0,44,13.0,0.0
23851,62.0,0,119,3.0,0.0
23852,50.0,45,119,3.0,0.0
23853,62.0,0,119,5.0,0.0
23854,67.0,0,119,4.0,0.0
23855,62.0,0,179,11.0,0.0
23856,62.0,0,119,4.0,0.0
23857,74.0,0,119,5.0,0.0
23858,71.0,0,119,1.0,0.0
23859,79.0,45,179,8.0,0.0
23860,79.0,0,119,1.0,0.0
23861,54.0,0,44,15.0,0.0
23862,78.0,0,44,13.0,0.0
23863,71.0,0,179,10.0,0.0
23864,91.0,0,119,0.0,0.0
23865,66.0,0,44,14.0,0.0
23866,78.0,60,44,12.0,0.0
23867,42.0,0,44,15.0,0.0
23868,86.0,0,119,0.0,0.0
23869,50.0,0,119,7.0,0.0
23870,40.0,0,44,15.0,0.0
23871,76.0,15,44,12.0,0.0
23872,76.0,0,44,13.0,0.0
23873,64.0,0,44,14.0,0.0
23874,52.0,0,44,15.0,0.0
23875,74.0,0,44,12.0,0.0
23876,62.0,0,44,14.0,0.0
23877,50.0,0,44,15.0,0.0
23878,38.0,15,44,15.0,0.0
23879,74.0,0,44,13.0,0.0
23880,69.0,0,119,4.0,0.0
23881,72.0,0,44,13.0,0.0
23882,62.0,45,179,11.0,0.0
23883,93.0,0,119,0.0,0.0
23884,81.0,0,179,8.0,0.0
23885,64.0,0,119,11.0,0.0
23886,62.0,45,119,4.0,0.0
23887,72.0,0,119,1.0,0.0
23888,48.0,0,44,15.0,0.0
23889,72.0,0,44,12.0,0.0
23890,86.0,0,119,0.0,0.0
23891,50.0,0,119,7.0,0.0
23892,81.0,0,119,1.0,0.0
23893,64.0,0,119,3.0,0.0
23894,50.0,0,119,3.0,0.0
23895,72.0,0,179,10.0,0.0
23896,60.0,0,44,14.0,0.0
23897,62.0,0,119,5.0,0.0
23898,74.0,0,119,5.0,0.0
23899,36.0,60,44,15.0,0.0
23900,71.0,15,44,12.0,0.0
23901,35.0,0,44,15.0,0.0
23902,71.0,0,44,13.0,0.0
23903,47.0,0,44,15.0,0.0
23904,59.0,0,44,14.0,0.0
23905,69.0,0,44,13.0,0.0
23906,74.0,0,59,5.0,0.0
23907,66.0,0,59,3.0,0.0
23908,62.0,0,59,5.0,0.0
23909,69.0,0,44,12.0,0.0
23910,66.0,0,59,11.0,0.0
23911,50.0,0,59,7.0,0.0
23912,45.0,0,44,15.0,0.0
23913,57.0,0,44,14.0,0.0
23914,33.0,15,44,15.0,0.0
23915,55.0,0,44,13.0,0.0
23916,93.0,45,119,0.0,0.0
23917,81.0,0,179,8.0,0.0
23918,67.0,0,119,3.0,0.0
23919,55.0,60,44,14.0,0.0
23920,72.0,45,179,10.0,0.0
23921,43.0,0,119,3.0,0.0
23922,50.0,0,119,7.0,0.0
23923,62.0,0,119,5.0,0.0
23924,74.0,0,119,5.0,0.0
23925,31.0,0,44,15.0,0.0
23926,55.0,0,179,11.0,0.0
23927,43.0,0,44,15.0,0.0
23928,86.0,0,119,0.0,0.0
23929,69.0,0,119,4.0,0.0
23930,55.0,0,44,12.0,0.0
23931,67.0,0,179,11.0,0.0
23932,81.0,0,119,1.0,0.0
23933,72.0,0,119,1.0,0.0
23934,62.0,0,119,4.0,0.0
23935,45.0,15,44,15.0,0.0
23936,57.0,0,44,15.0,0.0
23937,69.0,0,44,14.0,0.0
23938,69.0,0,44,13.0,0.0
23939,69.0,0,44,12.0,0.0
23940,71.0,0,44,14.0,0.0
23941,71.0,0,44,12.0,0.0
23942,71.0,0,44,13.0,0.0
23943,59.0,0,44,15.0,0.0
23944,47.0,15,44,15.0,0.0
23945,71.0,0,179,10.0,0.0
23946,79.0,0,119,1.0,0.0
23947,72.0,0,44,12.0,0.0
23948,60.0,60,44,15.0,0.0
23949,71.0,0,119,1.0,0.0
23950,48.0,0,44,15.0,0.0
23951,72.0,0,44,14.0,0.0
23952,74.0,0,119,5.0,0.0
23953,50.0,0,119,7.0,0.0
23954,79.0,0,179,8.0,0.0
23955,91.0,0,119,0.0,0.0
23956,86.0,0,119,0.0,0.0
23957,67.0,0,119,4.0,0.0
23958,62.0,45,119,4.0,0.0
23959,67.0,0,179,11.0,0.0
23960,72.0,0,44,13.0,0.0
23961,55.0,0,179,11.0,0.0
23962,59.0,0,119,3.0,0.0
23963,62.0,0,119,5.0,0.0
23964,67.0,0,119,3.0,0.0
23965,74.0,0,44,12.0,0.0
23966,74.0,0,44,13.0,0.0
23967,62.0,0,44,15.0,0.0
23968,74.0,0,44,14.0,0.0
23969,50.0,15,44,15.0,0.0
23970,76.0,0,44,12.0,0.0
23971,50.0,0,59,7.0,0.0
23972,62.0,45,59,5.0,0.0
23973,74.0,0,59,5.0,0.0
23974,76.0,0,44,14.0,0.0
23975,52.0,15,44,15.0,0.0
23976,76.0,0,44,13.0,0.0
23977,64.0,0,44,15.0,0.0
23978,78.0,0,119,1.0,0.0
23979,54.0,60,44,15.0,0.0
23980,66.0,0,119,3.0,0.0
23981,78.0,0,179,8.0,0.0
23982,57.0,0,119,3.0,0.0
23983,90.0,0,119,0.0,0.0
23984,62.0,45,179,11.0,0.0
23985,86.0,45,119,0.0,0.0
23986,69.0,0,179,10.0,0.0
23987,78.0,0,44,13.0,0.0
23988,69.0,0,119,1.0,0.0
23989,55.0,0,179,11.0,0.0
23990,66.0,0,44,15.0,0.0
23991,66.0,0,44,14.0,0.0
23992,78.0,0,44,12.0,0.0
23993,62.0,0,119,5.0,0.0
23994,62.0,0,119,4.0,0.0
23995,50.0,0,119,7.0,0.0
23996,74.0,0,119,5.0,0.0
23997,66.0,0,119,4.0,0.0
23998,79.0,0,44,12.0,0.0
23999,55.0,0,44,15.0,0.0
24000,67.0,0,44,15.0,0.0
24001,67.0,15,44,14.0,0.0
24002,79.0,0,44,13.0,0.0
24003,81.0,0,44,13.0,0.0
24004,57.0,0,44,15.0,0.0
24005,81.0,0,44,12.0,0.0
24006,45.0,15,44,15.0,0.0
24007,69.0,0,44,14.0,0.0
24008,62.0,0,119,5.0,0.0
24009,55.0,0,119,3.0,0.0
24010,74.0,0,119,5.0,0.0
24011,47.0,15,44,15.0,0.0
24012,67.0,0,119,3.0,0.0
24013,91.0,0,119,0.0,0.0
24014,64.0,45,119,4.0,0.0
24015,79.0,45,59,0.0,0.0
24016,59.0,0,44,15.0,0.0
24017,83.0,0,44,12.0,0.0
24018,50.0,0,119,7.0,0.0
24019,62.0,0,119,4.0,0.0
24020,67.0,0,59,1.0,0.0
24021,79.0,0,119,1.0,0.0
24022,67.0,0,119,10.0,0.0
24023,79.0,0,119,8.0,0.0
24024,59.0,0,119,11.0,0.0
24025,83.0,0,44,13.0,0.0
24026,71.0,0,44,14.0,0.0
24027,81.0,0,59,0.0,0.0
24028,31.0,0,44,15.0,0.0
24029,43.0,0,44,15.0,0.0
24030,67.0,0,44,13.0,0.0
24031,69.0,0,59,1.0,0.0
24032,67.0,0,44,12.0,0.0
24033,55.0,15,44,14.0,0.0
24034,50.0,0,59,7.0,0.0
24035,55.0,0,59,3.0,0.0
24036,76.0,0,59,1.0,0.0
24037,67.0,0,44,13.0,0.0
24038,71.0,0,59,1.0,0.0
24039,55.0,0,44,11.0,0.0
24040,67.0,0,44,12.0,0.0
24041,76.0,15,44,8.0,0.0
24042,71.0,0,44,10.0,0.0
24043,74.0,0,59,5.0,0.0
24044,62.0,0,59,5.0,0.0
24045,59.0,0,59,3.0,0.0
24046,88.0,45,59,0.0,0.0
24047,31.0,0,44,15.0,0.0
24048,83.0,0,59,0.0,0.0
24049,43.0,0,44,15.0,0.0
24050,55.0,0,44,14.0,0.0
24051,45.0,45,119,7.0,0.0
24052,57.0,60,44,13.0,0.0
24053,86.0,0,119,0.0,0.0
24054,78.0,0,119,0.0,0.0
24055,57.0,0,44,14.0,0.0
24056,74.0,0,179,8.0,0.0
24057,54.0,0,119,4.0,0.0
24058,57.0,0,119,5.0,0.0
24059,69.0,0,119,5.0,0.0
24060,45.0,0,44,15.0,0.0
24061,62.0,0,119,4.0,0.0
24062,57.0,0,179,11.0,0.0
24063,54.0,0,119,3.0,0.0
24064,33.0,0,44,15.0,0.0
24065,62.0,0,119,3.0,0.0
24066,57.0,0,44,12.0,0.0
24067,66.0,0,179,10.0,0.0
24068,74.0,0,119,1.0,0.0
24069,66.0,0,119,1.0,0.0
24070,67.0,0,44,14.0,0.0
24071,67.0,0,44,15.0,0.0
24072,79.0,15,44,13.0,0.0
24073,79.0,0,44,12.0,0.0
24074,55.0,0,44,15.0,0.0
24075,78.0,0,44,13.0,0.0
24076,66.0,0,44,14.0,0.0
24077,78.0,0,44,12.0,0.0
24078,54.0,15,44,15.0,0.0
24079,66.0,0,44,15.0,0.0
24080,57.0,0,119,5.0,0.0
24081,69.0,0,119,5.0,0.0
24082,54.0,0,119,3.0,0.0
24083,86.0,45,119,0.0,0.0
24084,64.0,0,44,15.0,0.0
24085,76.0,60,44,13.0,0.0
24086,50.0,0,119,3.0,0.0
24087,57.0,0,179,11.0,0.0
24088,66.0,0,179,10.0,0.0
24089,74.0,0,179,8.0,0.0
24090,62.0,45,179,11.0,0.0
24091,76.0,0,44,14.0,0.0
24092,52.0,0,44,15.0,0.0
24093,66.0,0,119,1.0,0.0
24094,74.0,0,119,1.0,0.0
24095,54.0,0,119,4.0,0.0
24096,62.0,0,119,4.0,0.0
24097,76.0,0,44,12.0,0.0
24098,45.0,0,119,7.0,0.0
24099,74.0,0,44,14.0,0.0
24100,50.0,0,44,15.0,0.0
24101,74.0,15,44,12.0,0.0
24102,62.0,0,44,15.0,0.0
24103,74.0,0,44,13.0,0.0
24104,49.0,0,44,15.0,0.0
24105,73.0,0,44,13.0,0.0
24106,73.0,15,44,14.0,0.0
24107,45.0,0,59,7.0,0.0
24108,57.0,0,59,5.0,0.0
24109,73.0,0,44,12.0,0.0
24110,61.0,0,44,15.0,0.0
24111,69.0,0,59,5.0,0.0
24112,71.0,0,44,13.0,0.0
24113,55.0,0,119,3.0,0.0
24114,67.0,0,179,10.0,0.0
24115,86.0,0,119,0.0,0.0
24116,45.0,0,119,7.0,0.0
24117,59.0,0,44,15.0,0.0
24118,71.0,60,44,12.0,0.0
24119,64.0,0,119,4.0,0.0
24120,57.0,0,119,4.0,0.0
24121,47.0,0,44,15.0,0.0
24122,76.0,0,179,8.0,0.0
24123,62.0,45,179,11.0,0.0
24124,52.0,0,119,3.0,0.0
24125,88.0,45,119,0.0,0.0
24126,69.0,0,119,5.0,0.0
24127,67.0,0,119,1.0,0.0
24128,57.0,0,119,5.0,0.0
24129,57.0,0,179,11.0,0.0
24130,71.0,0,44,14.0,0.0
24131,76.0,0,119,1.0,0.0
24132,57.0,0,44,15.0,0.0
24133,45.0,0,44,15.0,0.0
24134,69.0,15,44,12.0,0.0
24135,69.0,0,44,14.0,0.0
24136,69.0,0,44,13.0,0.0
24137,74.0,0,44,12.0,0.0
24138,62.0,0,44,15.0,0.0
24139,50.0,15,44,15.0,0.0
24140,74.0,0,44,14.0,0.0
24141,74.0,0,44,13.0,0.0
24142,62.0,0,179,11.0,0.0
24143,69.0,0,44,14.0,0.0
24144,54.0,0,119,3.0,0.0
24145,78.0,45,179,8.0,0.0
24146,57.0,0,119,3.0,0.0
24147,69.0,0,44,13.0,0.0
24148,69.0,0,119,1.0,0.0
24149,69.0,0,44,12.0,0.0
24150,69.0,0,179,10.0,0.0
24151,45.0,45,119,7.0,0.0
24152,69.0,0,119,5.0,0.0
24153,86.0,0,119,0.0,0.0
24154,78.0,0,119,1.0,0.0
24155,57.0,0,119,5.0,0.0
24156,90.0,0,119,0.0,0.0
24157,66.0,0,119,4.0,0.0
24158,45.0,0,44,15.0,0.0
24159,62.0,0,119,4.0,0.0
24160,57.0,0,179,11.0,0.0
24161,57.0,60,44,15.0,0.0
24162,66.0,0,44,12.0,0.0
24163,42.0,0,44,15.0,0.0
24164,54.0,15,44,15.0,0.0
24165,66.0,0,44,14.0,0.0
24166,66.0,0,44,13.0,0.0
24167,57.0,0,59,5.0,0.0
24168,62.0,0,44,14.0,0.0
24169,38.0,0,44,15.0,0.0
24170,69.0,0,59,5.0,0.0
24171,45.0,0,59,7.0,0.0
24172,62.0,0,44,12.0,0.0
24173,50.0,0,44,15.0,0.0
24174,62.0,15,44,13.0,0.0
24175,35.0,60,44,15.0,0.0
24176,67.0,0,299,10.0,0.0
24177,76.0,0,299,8.0,0.0
24178,59.0,0,44,14.0,0.0
24179,47.0,0,44,15.0,0.0
24180,52.0,0,119,3.0,0.0
24181,57.0,0,119,5.0,0.0
24182,69.0,0,119,5.0,0.0
24183,55.0,0,119,3.0,0.0
24184,59.0,0,44,13.0,0.0
24185,57.0,0,299,11.0,0.0
24186,45.0,0,119,7.0,0.0
24187,59.0,0,44,12.0,0.0
24188,73.0,0,119,1.0,0.0
24189,64.0,0,119,4.0,0.0
24190,57.0,45,119,4.0,0.0
24191,61.0,0,299,11.0,0.0
24192,85.0,0,119,0.0,0.0
24193,88.0,0,119,0.0,0.0
24194,76.0,0,119,1.0,0.0
24195,57.0,0,44,12.0,0.0
24196,45.0,0,44,15.0,0.0
24197,33.0,0,44,15.0,0.0
24198,57.0,15,44,14.0,0.0
24199,57.0,0,44,13.0,0.0
24200,56.0,0,44,12.0,0.0
24201,56.0,0,44,14.0,0.0
24202,44.0,60,44,15.0,0.0
24203,56.0,0,44,13.0,0.0
24204,32.0,0,44,15.0,0.0
24205,57.0,0,44,14.0,0.0
24206,57.0,60,44,13.0,0.0
24207,45.0,45,119,7.0,0.0
24208,45.0,0,44,15.0,0.0
24209,57.0,0,44,12.0,0.0
24210,33.0,0,44,15.0,0.0
24211,69.0,0,119,5.0,0.0
24212,57.0,0,119,5.0,0.0
24213,69.0,0,44,12.0,0.0
24214,45.0,0,44,15.0,0.0
24215,57.0,15,44,15.0,0.0
24216,69.0,0,44,14.0,0.0
24217,69.0,0,44,13.0,0.0
24218,57.0,0,44,15.0,0.0
24219,57.0,0,59,5.0,0.0
24220,74.0,0,59,1.0,0.0
24221,86.0,0,59,0.0,0.0
24222,78.0,0,59,0.0,0.0
24223,62.0,0,59,11.0,0.0
24224,54.0,0,59,4.0,0.0
24225,62.0,0,59,4.0,0.0
24226,69.0,0,59,5.0,0.0
24227,66.0,0,59,1.0,0.0
24228,50.0,0,59,3.0,0.0
24229,69.0,0,44,13.0,0.0
24230,66.0,0,59,10.0,0.0
24231,54.0,0,59,3.0,0.0
24232,57.0,45,59,11.0,0.0
24233,74.0,0,59,8.0,0.0
24234,45.0,15,44,15.0,0.0
24235,69.0,0,44,14.0,0.0
24236,69.0,0,44,12.0,0.0
24237,45.0,0,59,7.0,0.0
24238,66.0,0,119,1.0,0.0
24239,66.0,0,179,10.0,0.0
24240,62.0,60,44,14.0,0.0
24241,62.0,0,44,12.0,0.0
24242,54.0,0,119,3.0,0.0
24243,50.0,0,119,3.0,0.0
24244,74.0,45,119,1.0,0.0
24245,38.0,0,44,15.0,0.0
24246,54.0,0,119,4.0,0.0
24247,50.0,45,179,11.0,0.0
24248,74.0,0,179,8.0,0.0
24249,62.0,0,119,4.0,0.0
24250,50.0,0,44,15.0,0.0
24251,86.0,0,119,0.0,0.0
24252,78.0,0,119,0.0,0.0
24253,74.0,0,119,5.0,0.0
24254,62.0,0,119,5.0,0.0
24255,62.0,0,44,13.0,0.0
24256,50.0,0,119,7.0,0.0
24257,62.0,0,179,11.0,0.0
24258,62.0,15,44,15.0,0.0
24259,50.0,0,44,15.0,0.0
24260,74.0,0,44,12.0,0.0
24261,74.0,0,44,14.0,0.0
24262,74.0,0,44,13.0,0.0
24263,73.0,0,44,14.0,0.0
24264,73.0,0,44,13.0,0.0
24265,49.0,0,44,15.0,0.0
24266,61.0,0,44,15.0,0.0
24267,73.0,15,44,12.0,0.0
24268,62.0,0,44,15.0,0.0
24269,74.0,60,44,12.0,0.0
24270,93.0,0,119,0.0,0.0
24271,90.0,0,119,0.0,0.0
24272,74.0,0,44,13.0,0.0
24273,81.0,0,119,1.0,0.0
24274,78.0,0,119,1.0,0.0
24275,50.0,0,119,7.0,0.0
24276,74.0,0,44,14.0,0.0
24277,74.0,0,119,5.0,0.0
24278,69.0,0,119,4.0,0.0
24279,62.0,0,119,5.0,0.0
24280,66.0,0,119,4.0,0.0
24281,50.0,0,44,15.0,0.0
24282,54.0,45,119,3.0,0.0
24283,57.0,0,119,3.0,0.0
24284,66.0,0,44,14.0,0.0
24285,78.0,15,44,13.0,0.0
24286,54.0,0,44,15.0,0.0
24287,42.0,0,44,15.0,0.0
24288,78.0,0,44,12.0,0.0
24289,81.0,0,44,13.0,0.0
24290,81.0,0,44,12.0,0.0
24291,69.0,15,44,14.0,0.0
24292,57.0,0,44,15.0,0.0
24293,62.0,0,59,5.0,0.0
24294,50.0,0,59,7.0,0.0
24295,45.0,0,44,15.0,0.0
24296,74.0,45,59,5.0,0.0
24297,50.0,0,44,15.0,0.0
24298,88.0,0,119,0.0,0.0
24299,74.0,0,119,5.0,0.0
24300,62.0,0,119,5.0,0.0
24301,91.0,0,119,0.0,0.0
24302,50.0,45,119,7.0,0.0
24303,79.0,0,119,1.0,0.0
24304,74.0,60,44,14.0,0.0
24305,86.0,0,44,12.0,0.0
24306,76.0,0,119,1.0,0.0
24307,55.0,0,119,3.0,0.0
24308,67.0,0,119,4.0,0.0
24309,64.0,0,119,4.0,0.0
24310,52.0,0,119,3.0,0.0
24311,38.0,0,44,15.0,0.0
24312,86.0,0,44,13.0,0.0
24313,62.0,0,44,13.0,0.0
24314,38.0,0,44,15.0,0.0
24315,62.0,0,44,12.0,0.0
24316,50.0,0,44,14.0,0.0
24317,50.0,15,44,15.0,0.0
24318,49.0,0,44,15.0,0.0
24319,61.0,0,44,13.0,0.0
24320,61.0,60,44,12.0,0.0
24321,49.0,0,44,14.0,0.0
24322,37.0,0,44,15.0,0.0
24323,50.0,0,44,15.0,0.0
24324,74.0,0,119,5.0,0.0
24325,62.0,0,119,5.0,0.0
24326,50.0,45,119,7.0,0.0
24327,62.0,60,44,12.0,0.0
24328,38.0,0,44,15.0,0.0
24329,50.0,0,44,14.0,0.0
24330,62.0,0,44,13.0,0.0
24331,66.0,0,44,13.0,0.0
24332,42.0,0,44,15.0,0.0
24333,54.0,0,44,14.0,0.0
24334,54.0,0,44,15.0,0.0
24335,66.0,15,44,12.0,0.0
24336,62.0,0,59,5.0,0.0
24337,45.0,0,44,15.0,0.0
24338,69.0,15,44,13.0,0.0
24339,54.0,0,59,3.0,0.0
24340,69.0,0,44,12.0,0.0
24341,57.0,0,44,14.0,0.0
24342,74.0,0,59,5.0,0.0
24343,78.0,0,59,1.0,0.0
24344,74.0,0,59,1.0,0.0
24345,86.0,0,59,0.0,0.0
24346,90.0,0,59,0.0,0.0
24347,57.0,0,44,15.0,0.0
24348,66.0,0,59,4.0,0.0
24349,62.0,0,59,4.0,0.0
24350,50.0,0,59,3.0,0.0
24351,50.0,45,59,7.0,0.0
24352,50.0,45,59,3.0,0.0
24353,54.0,0,119,3.0,0.0
24354,90.0,0,119,0.0,0.0
24355,72.0,0,44,13.0,0.0
24356,86.0,0,119,0.0,0.0
24357,60.0,15,44,14.0,0.0
24358,66.0,0,119,4.0,0.0
24359,74.0,0,119,1.0,0.0
24360,78.0,0,119,1.0,0.0
24361,74.0,0,119,5.0,0.0
24362,50.0,0,119,7.0,0.0
24363,48.0,0,44,15.0,0.0
24364,60.0,0,44,15.0,0.0
24365,72.0,0,44,12.0,0.0
24366,62.0,0,119,5.0,0.0
24367,62.0,45,119,4.0,0.0
24368,64.0,15,44,12.0,0.0
24369,40.0,0,44,15.0,0.0
24370,64.0,0,44,13.0,0.0
24371,50.0,0,59,3.0,0.0
24372,76.0,0,44,14.0,0.0
24373,52.0,0,44,15.0,0.0
24374,74.0,0,44,14.0,0.0
24375,52.0,45,59,3.0,0.0
24376,38.0,15,44,15.0,0.0
24377,62.0,0,44,12.0,0.0
24378,62.0,0,44,13.0,0.0
24379,50.0,0,44,15.0,0.0
24380,48.0,0,44,15.0,0.0
24381,54.0,45,59,3.0,0.0
24382,62.0,0,119,3.0,0.0
24383,72.0,15,44,14.0,0.0
24384,50.0,0,119,7.0,0.0
24385,60.0,0,44,12.0,0.0
24386,60.0,0,44,13.0,0.0
24387,50.0,45,119,4.0,0.0
24388,74.0,0,119,5.0,0.0
24389,62.0,0,119,5.0,0.0
24390,74.0,0,119,1.0,0.0
24391,86.0,0,119,1.0,0.0
24392,62.0,0,119,4.0,0.0
24393,74.0,0,119,0.0,0.0
24394,86.0,0,119,0.0,0.0
24395,36.0,0,44,15.0,0.0
24396,35.0,0,44,15.0,0.0
24397,71.0,15,44,14.0,0.0
24398,59.0,0,44,12.0,0.0
24399,47.0,0,44,15.0,0.0
24400,55.0,0,59,3.0,0.0
24401,59.0,0,44,13.0,0.0
24402,45.0,0,44,15.0,0.0
24403,69.0,0,44,14.0,0.0
24404,57.0,0,59,3.0,0.0
24405,62.0,0,59,5.0,0.0
24406,33.0,0,44,15.0,0.0
24407,74.0,0,59,5.0,0.0
24408,57.0,15,44,13.0,0.0
24409,57.0,0,44,12.0,0.0
24410,50.0,45,59,7.0,0.0
24411,31.0,0,44,15.0,0.0
24412,57.0,45,119,3.0,0.0
24413,60.0,0,119,3.0,0.0
24414,67.0,0,44,14.0,0.0
24415,43.0,60,44,15.0,0.0
24416,90.0,0,119,0.0,0.0
24417,50.0,0,119,7.0,0.0
24418,69.0,0,119,4.0,0.0
24419,66.0,0,119,4.0,0.0
24420,86.0,0,119,0.0,0.0
24421,74.0,0,119,5.0,0.0
24422,62.0,0,119,5.0,0.0
24423,81.0,0,119,1.0,0.0
24424,84.0,0,119,1.0,0.0
24425,55.0,0,44,12.0,0.0
24426,55.0,0,44,13.0,0.0
24427,35.0,0,44,15.0,0.0
24428,47.0,15,44,15.0,0.0
24429,71.0,0,44,14.0,0.0
24430,59.0,0,44,12.0,0.0
24431,59.0,0,44,13.0,0.0
24432,62.0,0,44,13.0,0.0
24433,38.0,0,44,15.0,0.0
24434,62.0,0,44,12.0,0.0
24435,74.0,60,44,14.0,0.0
24436,50.0,0,44,15.0,0.0
24437,62.0,0,119,5.0,0.0
24438,74.0,45,119,5.0,0.0
24439,55.0,60,44,14.0,0.0
24440,55.0,0,44,15.0,0.0
24441,43.0,0,44,15.0,0.0
24442,67.0,0,44,13.0,0.0
24443,50.0,0,119,7.0,0.0
24444,67.0,0,44,12.0,0.0
24445,71.0,15,44,12.0,0.0
24446,71.0,0,44,13.0,0.0
24447,47.0,0,44,15.0,0.0
24448,59.0,0,44,15.0,0.0
24449,59.0,0,44,14.0,0.0
24450,62.0,0,44,14.0,0.0
24451,50.0,0,44,15.0,0.0
24452,74.0,0,44,13.0,0.0
24453,83.0,0,59,1.0,0.0
24454,79.0,0,59,1.0,0.0
24455,91.0,0,59,0.0,0.0
24456,86.0,0,59,0.0,0.0
24457,55.0,0,59,3.0,0.0
24458,62.0,0,44,15.0,0.0
24459,50.0,120,59,7.0,0.0
24460,62.0,0,59,5.0,0.0
24461,67.0,0,59,4.0,0.0
24462,74.0,0,59,5.0,0.0
24463,74.0,15,44,12.0,0.0
24464,59.0,0,59,3.0,0.0
24465,50.0,0,119,7.0,0.0
24466,79.0,0,119,13.0,0.0
24467,74.0,60,119,5.0,0.0
24468,62.0,0,119,5.0,0.0
24469,79.0,0,119,1.0,0.0
24470,83.0,0,119,1.0,0.0
24471,79.0,0,119,12.0,0.0
24472,67.0,0,119,15.0,0.0
24473,55.0,0,119,3.0,0.0
24474,86.0,0,119,0.0,0.0
24475,91.0,0,119,0.0,0.0
24476,59.0,0,119,3.0,0.0
24477,67.0,1380,179,14.0,0.0
24478,55.0,0,119,15.0,0.0
24479,67.0,0,119,4.0,0.0
24480,55.0,0,719,15.0,0.0
24481,43.0,0,719,15.0,0.0
24482,55.0,180,719,6.0,0.0
24483,55.0,0,479,11.0,0.0
24484,55.0,0,179,15.0,0.0
24485,43.0,0,179,15.0,0.0
24486,55.0,0,179,11.0,0.0
24487,55.0,0,179,6.0,0.0
24488,54.0,0,179,11.0,0.0
24489,54.0,0,179,15.0,0.0
24490,42.0,0,179,15.0,0.0
24491,54.0,0,179,6.0,0.0
24492,38.0,780,179,15.0,0.0
24493,50.0,0,179,6.0,0.0
24494,50.0,0,179,15.0,0.0
24495,50.0,0,179,11.0,0.0
24496,64.0,180,719,15.0,0.0
24497,64.0,0,719,6.0,0.0
24498,52.0,0,719,15.0,0.0
24499,64.0,0,719,11.0,0.0
24500,52.0,240,179,15.0,0.0
24501,64.0,0,179,11.0,0.0
24502,64.0,0,179,6.0,0.0
24503,64.0,0,179,15.0,0.0
24504,62.0,0,179,15.0,0.0
24505,62.0,0,179,11.0,0.0
24506,50.0,240,179,15.0,0.0
24507,62.0,0,179,6.0,0.0
24508,59.0,0,179,15.0,0.0
24509,47.0,0,179,15.0,0.0
24510,59.0,0,179,6.0,0.0
24511,59.0,0,179,11.0,0.0
24512,60.0,0,719,6.0,0.0
24513,48.0,0,719,15.0,0.0
24514,60.0,0,719,15.0,0.0
24515,60.0,0,479,11.0,0.0
24516,48.0,0,239,15.0,0.0
24517,60.0,0,239,15.0,0.0
24518,60.0,0,239,11.0,0.0
24519,60.0,240,239,6.0,0.0
24520,59.0,480,239,15.0,0.0
24521,59.0,0,239,11.0,0.0
24522,47.0,0,239,15.0,0.0
24523,59.0,0,239,6.0,0.0
24524,55.0,0,479,15.0,0.0
24525,55.0,0,479,6.0,0.0
24526,43.0,0,479,15.0,0.0
24527,55.0,0,479,11.0,0.0
24528,64.0,0,479,15.0,0.0
24529,52.0,0,479,15.0,0.0
24530,64.0,240,479,6.0,0.0
24531,64.0,0,479,11.0,0.0
24532,64.0,0,239,15.0,0.0
24533,52.0,0,239,15.0,0.0
24534,64.0,600,239,6.0,0.0
24535,64.0,0,239,11.0,0.0
24536,50.0,90,719,15.0,0.0
24537,62.0,0,719,15.0,0.0
24538,62.0,0,719,11.0,0.0
24539,62.0,0,719,6.0,0.0
24540,79.0,0,719,2.0,0.0
24541,79.0,60,119,12.0,0.0
24542,71.0,0,119,13.0,0.0
24543,71.0,0,719,1.0,0.0
24544,91.0,0,719,0.0,0.0
24545,83.0,0,719,0.0,0.0
24546,79.0,0,719,1.0,0.0
24547,71.0,0,719,2.0,0.0
24548,74.0,0,59,13.0,0.0
24549,83.0,60,59,12.0,0.0
24550,81.0,60,179,12.0,0.0
24551,72.0,0,179,13.0,0.0
24552,67.0,30,89,14.0,0.0
24553,71.0,0,479,10.0,0.0
24554,79.0,0,479,8.0,0.0
24555,71.0,60,59,13.0,0.0
24556,79.0,0,59,12.0,0.0
24557,55.0,60,239,14.0,0.0
24558,69.0,60,59,13.0,0.0
24559,78.0,0,59,12.0,0.0
24560,55.0,0,59,15.0,0.0
24561,43.0,0,59,15.0,0.0
24562,55.0,0,179,6.0,0.0
24563,55.0,0,179,11.0,0.0
24564,62.0,0,179,11.0,0.0
24565,55.0,0,239,3.0,0.0
24566,62.0,60,179,6.0,0.0
24567,71.0,0,179,6.0,0.0
24568,71.0,0,59,13.0,0.0
24569,79.0,60,59,12.0,0.0
24570,43.0,0,59,3.0,0.0
24571,60.0,0,59,13.0,0.0
24572,55.0,0,59,15.0,0.0
24573,43.0,0,59,3.0,0.0
24574,74.0,0,239,14.0,0.0
24575,69.0,0,59,12.0,0.0
24576,43.0,0,59,15.0,0.0
24577,45.0,60,59,3.0,0.0
24578,57.0,0,59,15.0,0.0
24579,67.0,60,179,12.0,0.0
24580,45.0,0,59,15.0,0.0
24581,59.0,0,179,13.0,0.0
24582,59.0,0,179,6.0,0.0
24583,47.0,60,59,3.0,0.0
24584,71.0,0,179,6.0,0.0
24585,71.0,0,179,1.0,0.0
24586,79.0,0,179,1.0,0.0
24587,62.0,0,179,6.0,0.0
24588,79.0,15,179,8.0,0.0
24589,83.0,0,179,0.0,0.0
24590,47.0,0,59,15.0,0.0
24591,59.0,0,179,11.0,0.0
24592,59.0,0,59,15.0,0.0
24593,62.0,0,179,11.0,0.0
24594,79.0,0,179,2.0,0.0
24595,71.0,0,179,2.0,0.0
24596,59.0,0,179,3.0,0.0
24597,91.0,0,179,0.0,0.0
24598,71.0,15,179,10.0,0.0
24599,67.0,30,89,14.0,0.0
24600,47.0,0,59,15.0,0.0
24601,59.0,0,59,15.0,0.0
24602,72.0,0,59,13.0,0.0
24603,47.0,0,59,3.0,0.0
24604,81.0,0,59,12.0,0.0
24605,79.0,30,119,12.0,0.0
24606,71.0,0,119,13.0,0.0
24607,60.0,0,59,15.0,0.0
24608,48.0,0,59,3.0,0.0
24609,48.0,60,59,15.0,0.0
24610,81.0,0,179,0.0,0.0
24611,69.0,0,179,6.0,0.0
24612,62.0,0,59,15.0,0.0
24613,90.0,0,179,0.0,0.0
24614,78.0,0,179,2.0,0.0
24615,69.0,0,179,2.0,0.0
24616,62.0,0,179,11.0,0.0
24617,62.0,30,89,14.0,0.0
24618,78.0,0,179,8.0,0.0
24619,69.0,0,179,1.0,0.0
24620,78.0,0,179,1.0,0.0
24621,62.0,60,179,3.0,0.0
24622,50.0,0,59,3.0,0.0
24623,62.0,0,179,6.0,0.0
24624,50.0,0,59,15.0,0.0
24625,69.0,0,179,10.0,0.0
24626,78.0,60,59,12.0,0.0
24627,69.0,0,59,13.0,0.0
24628,62.0,0,59,15.0,0.0
24629,50.0,0,59,3.0,0.0
24630,50.0,0,239,14.0,0.0
24631,50.0,0,59,15.0,0.0
24632,69.0,0,59,13.0,0.0
24633,78.0,0,59,12.0,0.0
24634,76.0,60,59,12.0,0.0
24635,52.0,0,59,15.0,0.0
24636,64.0,0,59,15.0,0.0
24637,52.0,0,59,3.0,0.0
24638,67.0,0,59,13.0,0.0
24639,50.0,60,59,3.0,0.0
24640,50.0,0,179,6.0,0.0
24641,74.0,0,179,8.0,0.0
24642,66.0,0,179,1.0,0.0
24643,86.0,0,179,0.0,0.0
24644,78.0,60,179,0.0,0.0
24645,50.0,0,59,15.0,0.0
24646,74.0,0,179,1.0,0.0
24647,38.0,0,179,3.0,0.0
24648,74.0,0,179,2.0,0.0
24649,62.0,0,179,6.0,0.0
24650,67.0,0,59,13.0,0.0
24651,66.0,0,179,2.0,0.0
24652,66.0,0,179,6.0,0.0
24653,66.0,0,179,10.0,0.0
24654,62.0,0,179,11.0,0.0
24655,62.0,0,59,15.0,0.0
24656,76.0,0,59,12.0,0.0
24657,50.0,0,179,11.0,0.0
24658,74.0,60,59,12.0,0.0
24659,66.0,0,59,13.0,0.0
24660,74.0,0,59,12.0,0.0
24661,50.0,0,59,3.0,0.0
24662,50.0,0,59,15.0,0.0
24663,62.0,0,239,14.0,0.0
24664,66.0,0,59,13.0,0.0
24665,62.0,0,59,15.0,0.0
24666,38.0,60,179,15.0,0.0
24667,78.0,0,59,13.0,0.0
24668,50.0,0,179,15.0,0.0
24669,86.0,60,59,12.0,0.0
24670,67.0,0,719,6.0,0.0
24671,67.0,0,59,13.0,0.0
24672,67.0,0,719,2.0,0.0
24673,76.0,0,719,1.0,0.0
24674,67.0,0,719,1.0,0.0
24675,50.0,60,479,3.0,0.0
24676,76.0,0,719,8.0,0.0
24677,38.0,0,119,3.0,0.0
24678,50.0,0,479,11.0,0.0
24679,76.0,0,719,2.0,0.0
24680,50.0,0,479,6.0,0.0
24681,67.0,60,719,10.0,0.0
24682,76.0,60,59,12.0,0.0
24683,79.0,0,719,0.0,0.0
24684,88.0,0,719,0.0,0.0
24685,79.0,0,59,13.0,0.0
24686,88.0,0,59,12.0,0.0
24687,88.0,60,179,12.0,0.0
24688,79.0,60,239,13.0,0.0
24689,74.0,30,89,14.0,0.0
24690,38.0,0,59,3.0,0.0
24691,50.0,30,59,15.0,0.0
24692,38.0,0,59,15.0,0.0
24693,40.0,0,59,15.0,0.0
24694,40.0,60,59,3.0,0.0
24695,52.0,0,59,15.0,0.0
24696,64.0,0,479,6.0,0.0
24697,50.0,0,179,15.0,0.0
24698,64.0,0,119,14.0,0.0
24699,64.0,0,479,11.0,0.0
24700,38.0,0,179,3.0,0.0
24701,38.0,0,179,15.0,0.0
24702,48.0,0,239,14.0,0.0
24703,79.0,60,239,13.0,0.0
24704,76.0,60,59,12.0,0.0
24705,40.0,0,59,15.0,0.0
24706,40.0,0,59,3.0,0.0
24707,74.0,0,59,12.0,0.0
24708,52.0,0,59,15.0,0.0
24709,48.0,0,239,11.0,0.0
24710,36.0,0,59,3.0,0.0
24711,36.0,0,59,15.0,0.0
24712,76.0,60,59,12.0,0.0
24713,48.0,0,59,15.0,0.0
24714,48.0,0,179,6.0,0.0
24715,48.0,0,59,15.0,0.0
24716,88.0,0,59,12.0,0.0
24717,79.0,0,239,13.0,0.0
24718,60.0,60,59,15.0,0.0
24719,72.0,0,239,14.0,0.0
24720,67.0,60,239,14.0,0.0
24721,48.0,0,59,3.0,0.0
24722,59.0,0,59,15.0,0.0
24723,86.0,0,59,12.0,0.0
24724,47.0,0,59,15.0,0.0
24725,47.0,0,59,3.0,0.0
24726,60.0,0,179,3.0,0.0
24727,60.0,0,59,15.0,0.0
24728,76.0,0,179,2.0,0.0
24729,48.0,60,59,15.0,0.0
24730,60.0,0,239,11.0,0.0
24731,67.0,0,179,1.0,0.0
24732,76.0,0,179,1.0,0.0
24733,67.0,0,179,2.0,0.0
24734,60.0,0,179,6.0,0.0
24735,67.0,0,179,6.0,0.0
24736,48.0,0,59,3.0,0.0
24737,79.0,0,179,0.0,0.0
24738,88.0,0,179,0.0,0.0
24739,88.0,0,59,12.0,0.0
24740,67.0,0,239,10.0,0.0
24741,76.0,0,239,8.0,0.0
24742,76.0,0,239,12.0,0.0
24743,50.0,60,59,3.0,0.0
24744,50.0,0,59,15.0,0.0
24745,79.0,0,239,13.0,0.0
24746,76.0,0,119,14.0,0.0
24747,62.0,0,59,15.0,0.0
24748,60.0,0,179,15.0,0.0
24749,48.0,0,179,3.0,0.0
24750,48.0,60,179,15.0,0.0
24751,67.0,60,239,10.0,0.0
24752,59.0,0,179,3.0,0.0
24753,67.0,0,179,6.0,0.0
24754,74.0,0,179,1.0,0.0
24755,67.0,0,179,1.0,0.0
24756,86.0,0,179,0.0,0.0
24757,79.0,0,179,0.0,0.0
24758,67.0,0,119,14.0,0.0
24759,67.0,0,179,2.0,0.0
24760,74.0,0,179,2.0,0.0
24761,74.0,0,239,8.0,0.0
24762,59.0,0,239,11.0,0.0
24763,59.0,0,179,6.0,0.0
24764,47.0,60,59,15.0,0.0
24765,59.0,0,59,15.0,0.0
24766,55.0,60,239,14.0,0.0
24767,79.0,0,59,13.0,0.0
24768,47.0,0,59,3.0,0.0
24769,74.0,0,59,12.0,0.0
24770,45.0,0,59,15.0,0.0
24771,72.0,0,59,12.0,0.0
24772,57.0,0,59,15.0,0.0
24773,81.0,0,59,13.0,0.0
24774,45.0,0,59,3.0,0.0
24775,55.0,60,59,15.0,0.0
24776,67.0,0,179,1.0,0.0
24777,71.0,0,179,1.0,0.0
24778,55.0,0,179,6.0,0.0
24779,71.0,0,179,6.0,0.0
24780,59.0,0,179,6.0,0.0
24781,43.0,0,59,3.0,0.0
24782,83.0,0,179,0.0,0.0
24783,43.0,0,59,15.0,0.0
24784,79.0,0,179,0.0,0.0
24785,71.0,0,179,2.0,0.0
24786,67.0,0,179,2.0,0.0
24787,71.0,0,239,8.0,0.0
24788,55.0,0,239,11.0,0.0
24789,71.0,0,59,12.0,0.0
24790,67.0,30,209,10.0,0.0
24791,59.0,0,239,11.0,0.0
24792,83.0,0,59,13.0,0.0
24793,55.0,0,179,3.0,0.0
24794,43.0,0,59,3.0,0.0
24795,83.0,0,59,12.0,0.0
24796,74.0,0,59,13.0,0.0
24797,43.0,0,59,15.0,0.0
24798,55.0,30,59,15.0,0.0
24799,67.0,60,239,14.0,0.0
24800,45.0,60,59,3.0,0.0
24801,72.0,0,59,13.0,0.0
24802,57.0,0,59,15.0,0.0
24803,81.0,0,59,12.0,0.0
24804,45.0,0,59,15.0,0.0
24805,71.0,0,479,2.0,0.0
24806,71.0,0,479,10.0,0.0
24807,71.0,60,479,6.0,0.0
24808,83.0,0,59,12.0,0.0
24809,71.0,0,479,1.0,0.0
24810,83.0,0,479,0.0,0.0
24811,43.0,0,59,15.0,0.0
24812,43.0,0,59,3.0,0.0
24813,74.0,60,59,13.0,0.0
24814,55.0,0,59,15.0,0.0
24815,64.0,0,59,13.0,0.0
24816,43.0,60,59,15.0,0.0
24817,31.0,0,59,15.0,0.0
24818,72.0,0,59,12.0,0.0
24819,31.0,0,59,3.0,0.0
24820,71.0,0,119,14.0,0.0
24821,43.0,60,59,15.0,0.0
24822,71.0,0,59,12.0,0.0
24823,43.0,0,59,3.0,0.0
24824,55.0,0,59,15.0,0.0
24825,62.0,0,59,13.0,0.0
24826,60.0,0,59,13.0,0.0
24827,72.0,0,479,8.0,0.0
24828,57.0,0,479,6.0,0.0
24829,57.0,0,479,11.0,0.0
24830,57.0,0,479,3.0,0.0
24831,72.0,0,59,12.0,0.0
24832,72.0,0,479,2.0,0.0
24833,45.0,0,59,15.0,0.0
24834,57.0,0,59,15.0,0.0
24835,84.0,60,479,0.0,0.0
24836,72.0,0,479,1.0,0.0
24837,60.0,60,119,14.0,0.0
24838,45.0,60,59,3.0,0.0
24839,45.0,0,59,15.0,0.0
24840,76.0,60,59,13.0,0.0
24841,84.0,0,59,12.0,0.0
24842,45.0,0,59,3.0,0.0
24843,57.0,0,59,15.0,0.0
24844,48.0,60,239,14.0,0.0
24845,59.0,0,59,15.0,0.0
24846,47.0,0,59,3.0,0.0
24847,47.0,0,59,15.0,0.0
24848,83.0,0,59,12.0,0.0
24849,74.0,0,59,13.0,0.0
24850,76.0,0,59,13.0,0.0
24851,45.0,0,59,15.0,0.0
24852,84.0,0,59,12.0,0.0
24853,69.0,0,239,2.0,0.0
24854,60.0,0,239,6.0,0.0
24855,69.0,0,239,6.0,0.0
24856,69.0,0,239,1.0,0.0
24857,57.0,0,59,15.0,0.0
24858,45.0,60,59,3.0,0.0
24859,81.0,0,239,0.0,0.0
24860,69.0,0,239,10.0,0.0
24861,60.0,0,239,11.0,0.0
24862,60.0,0,239,14.0,0.0
24863,33.0,0,59,15.0,0.0
24864,64.0,0,59,13.0,0.0
24865,72.0,0,59,12.0,0.0
24866,45.0,0,59,15.0,0.0
24867,33.0,60,59,3.0,0.0
24868,62.0,0,59,13.0,0.0
24869,71.0,0,59,12.0,0.0
24870,47.0,0,59,15.0,0.0
24871,35.0,0,59,15.0,0.0
24872,35.0,0,59,3.0,0.0
24873,64.0,0,239,11.0,0.0
24874,69.0,60,119,2.0,0.0
24875,57.0,0,239,3.0,0.0
24876,69.0,0,239,10.0,0.0
24877,57.0,0,239,6.0,0.0
24878,72.0,0,239,6.0,0.0
24879,84.0,0,239,0.0,0.0
24880,81.0,0,239,0.0,0.0
24881,45.0,0,59,15.0,0.0
24882,72.0,0,59,12.0,0.0
24883,57.0,0,239,11.0,0.0
24884,69.0,0,239,1.0,0.0
24885,72.0,0,239,1.0,0.0
24886,72.0,0,239,2.0,0.0
24887,33.0,0,59,3.0,0.0
24888,60.0,0,59,13.0,0.0
24889,33.0,60,59,15.0,0.0
24890,72.0,60,239,8.0,0.0
24891,64.0,0,239,6.0,0.0
24892,57.0,0,59,15.0,0.0
24893,72.0,0,119,14.0,0.0
24894,45.0,0,59,3.0,0.0
24895,64.0,0,119,2.0,0.0
24896,45.0,60,59,15.0,0.0
24897,64.0,0,119,13.0,0.0
24898,74.0,0,59,12.0,0.0
24899,55.0,0,59,15.0,0.0
24900,43.0,0,59,3.0,0.0
24901,43.0,0,59,15.0,0.0
24902,72.0,0,179,12.0,0.0
24903,59.0,0,59,15.0,0.0
24904,71.0,0,239,8.0,0.0
24905,59.0,0,239,3.0,0.0
24906,59.0,0,239,11.0,0.0
24907,63.0,0,239,11.0,0.0
24908,59.0,0,239,6.0,0.0
24909,83.0,0,239,0.0,0.0
24910,78.0,0,239,0.0,0.0
24911,66.0,0,239,10.0,0.0
24912,71.0,0,239,1.0,0.0
24913,66.0,0,239,1.0,0.0
24914,47.0,60,59,3.0,0.0
24915,66.0,60,119,14.0,0.0
24916,63.0,0,119,13.0,0.0
24917,63.0,0,239,2.0,0.0
24918,71.0,60,239,6.0,0.0
24919,47.0,0,59,15.0,0.0
24920,63.0,0,239,6.0,0.0
24921,71.0,0,239,2.0,0.0
24922,48.0,0,59,15.0,0.0
24923,63.0,60,59,13.0,0.0
24924,60.0,0,59,15.0,0.0
24925,59.0,0,119,14.0,0.0
24926,48.0,0,59,3.0,0.0
24927,71.0,0,59,12.0,0.0
24928,47.0,0,59,3.0,0.0
24929,59.0,0,59,15.0,0.0
24930,83.0,0,59,12.0,0.0
24931,47.0,0,59,15.0,0.0
24932,71.0,0,59,13.0,0.0
24933,67.0,0,479,2.0,0.0
24934,48.0,60,59,15.0,0.0
24935,64.0,0,479,2.0,0.0
24936,60.0,0,479,3.0,0.0
24937,67.0,60,479,1.0,0.0
24938,64.0,0,59,13.0,0.0
24939,64.0,0,479,6.0,0.0
24940,67.0,0,479,6.0,0.0
24941,64.0,0,479,11.0,0.0
24942,64.0,0,479,1.0,0.0
24943,60.0,0,59,15.0,0.0
24944,79.0,0,59,12.0,0.0
24945,64.0,0,479,10.0,0.0
24946,60.0,0,479,6.0,0.0
24947,48.0,0,59,3.0,0.0
24948,52.0,60,119,14.0,0.0
24949,76.0,0,479,0.0,0.0
24950,79.0,0,479,0.0,0.0
24951,60.0,0,479,11.0,0.0
24952,36.0,0,59,3.0,0.0
24953,55.0,0,239,14.0,0.0
24954,48.0,0,59,15.0,0.0
24955,76.0,60,59,12.0,0.0
24956,64.0,0,59,13.0,0.0
24957,55.0,0,59,13.0,0.0
24958,36.0,0,59,15.0,0.0
24959,47.0,60,59,15.0,0.0
24960,35.0,0,59,3.0,0.0
24961,35.0,0,59,15.0,0.0
24962,76.0,60,179,13.0,0.0
24963,79.0,0,179,12.0,0.0
24964,36.0,0,59,15.0,0.0
24965,36.0,0,59,3.0,0.0
24966,67.0,0,239,8.0,0.0
24967,48.0,60,59,15.0,0.0
24968,48.0,0,59,3.0,0.0
24969,60.0,60,59,15.0,0.0
24970,67.0,0,59,13.0,0.0
24971,48.0,0,59,15.0,0.0
24972,76.0,0,59,12.0,0.0
24973,60.0,60,239,14.0,0.0
24974,47.0,0,59,15.0,0.0
24975,59.0,0,59,15.0,0.0
24976,79.0,0,179,13.0,0.0
24977,47.0,0,59,3.0,0.0
24978,88.0,0,179,12.0,0.0
24979,60.0,0,479,11.0,0.0
24980,60.0,0,479,6.0,0.0
24981,67.0,0,479,11.0,0.0
24982,76.0,0,479,8.0,0.0
24983,67.0,60,479,6.0,0.0
24984,72.0,0,479,6.0,0.0
24985,72.0,0,479,10.0,0.0
24986,60.0,0,59,15.0,0.0
24987,60.0,0,479,3.0,0.0
24988,81.0,0,479,0.0,0.0
24989,76.0,0,479,1.0,0.0
24990,67.0,0,479,2.0,0.0
24991,72.0,0,479,2.0,0.0
24992,84.0,0,479,0.0,0.0
24993,48.0,0,59,3.0,0.0
24994,48.0,60,59,15.0,0.0
24995,76.0,0,59,12.0,0.0
24996,48.0,0,59,15.0,0.0
24997,36.0,0,59,15.0,0.0
24998,67.0,0,59,13.0,0.0
24999,64.0,0,239,14.0,0.0
25000,36.0,60,59,3.0,0.0
25001,35.0,60,59,3.0,0.0
25002,88.0,60,179,12.0,0.0
25003,35.0,0,59,15.0,0.0
25004,47.0,0,59,15.0,0.0
25005,79.0,0,179,13.0,0.0
25006,36.0,0,59,3.0,0.0
25007,36.0,60,59,15.0,0.0
25008,48.0,0,59,15.0,0.0
25009,67.0,60,239,14.0,0.0
25010,48.0,60,59,15.0,0.0
25011,76.0,0,59,12.0,0.0
25012,60.0,0,59,13.0,0.0
25013,48.0,0,59,3.0,0.0
25014,60.0,0,59,15.0,0.0
25015,47.0,0,59,3.0,0.0
25016,74.0,0,59,12.0,0.0
25017,59.0,0,59,13.0,0.0
25018,59.0,0,59,15.0,0.0
25019,47.0,0,59,15.0,0.0
25020,60.0,0,239,11.0,0.0
25021,88.0,0,239,0.0,0.0
25022,60.0,0,239,3.0,0.0
25023,48.0,0,59,3.0,0.0
25024,60.0,0,239,6.0,0.0
25025,60.0,60,59,15.0,0.0
25026,84.0,0,119,0.0,0.0
25027,67.0,0,239,11.0,0.0
25028,72.0,690,239,10.0,0.0
25029,67.0,0,239,6.0,0.0
25030,67.0,0,239,2.0,0.0
25031,76.0,0,59,12.0,0.0
25032,76.0,0,239,8.0,0.0
25033,60.0,0,59,13.0,0.0
25034,72.0,0,239,2.0,0.0
25035,72.0,0,239,6.0,0.0
25036,76.0,0,239,1.0,0.0
25037,48.0,0,59,15.0,0.0
25038,36.0,60,59,15.0,0.0
25039,78.0,0,59,12.0,0.0
25040,69.0,0,59,13.0,0.0
25041,81.0,0,59,0.0,0.0
25042,48.0,0,59,15.0,0.0
25043,36.0,0,59,3.0,0.0
25044,72.0,0,119,14.0,0.0
25045,48.0,0,59,3.0,0.0
25046,67.0,0,59,13.0,0.0
25047,79.0,0,59,0.0,0.0
25048,60.0,0,59,15.0,0.0
25049,48.0,0,59,15.0,0.0
25050,76.0,0,59,12.0,0.0
25051,50.0,0,719,3.0,0.0
25052,62.0,240,719,3.0,0.0
25053,74.0,0,719,1.0,0.0
25054,74.0,0,719,12.0,0.0
25055,74.0,0,719,8.0,0.0
25056,66.0,0,719,13.0,0.0
25057,62.0,30,689,11.0,0.0
25058,50.0,0,719,15.0,0.0
25059,78.0,0,719,0.0,0.0
25060,86.0,0,719,0.0,0.0
25061,62.0,0,719,6.0,0.0
25062,69.0,0,719,2.0,0.0
25063,66.0,0,719,2.0,0.0
25064,66.0,0,689,11.0,0.0
25065,69.0,0,719,6.0,0.0
25066,62.0,0,719,15.0,0.0
25067,69.0,0,719,10.0,0.0
25068,66.0,0,719,14.0,0.0
25069,69.0,0,719,14.0,0.0
25070,66.0,0,719,6.0,0.0
25071,48.0,0,239,6.0,0.0
25072,60.0,0,239,6.0,0.0
25073,48.0,0,239,15.0,0.0
25074,60.0,0,239,11.0,0.0
25075,60.0,360,239,15.0,0.0
25076,62.0,0,359,11.0,0.0
25077,50.0,0,359,6.0,0.0
25078,50.0,120,359,15.0,0.0
25079,62.0,0,359,15.0,0.0
25080,62.0,0,359,6.0,0.0
25081,48.0,0,119,15.0,0.0
25082,60.0,0,119,11.0,0.0
25083,48.0,0,119,6.0,0.0
25084,60.0,0,119,15.0,0.0
25085,60.0,0,119,6.0,0.0
25086,53.0,0,359,6.0,0.0
25087,65.0,0,359,15.0,0.0
25088,53.0,0,359,15.0,0.0
25089,65.0,0,359,6.0,0.0
25090,65.0,0,359,11.0,0.0
25091,65.0,0,119,11.0,0.0
25092,65.0,480,119,15.0,0.0
25093,53.0,0,119,6.0,0.0
25094,53.0,0,119,15.0,0.0
25095,65.0,0,119,6.0,0.0
25096,65.0,0,479,15.0,0.0
25097,65.0,0,479,6.0,0.0
25098,65.0,0,479,11.0,0.0
25099,53.0,0,479,15.0,0.0
25100,53.0,240,479,6.0,0.0
25101,53.0,0,239,6.0,0.0
25102,65.0,0,239,11.0,0.0
25103,53.0,0,239,15.0,0.0
25104,65.0,480,239,6.0,0.0
25105,65.0,0,239,15.0,0.0
25106,65.0,0,479,15.0,0.0
25107,53.0,0,479,6.0,0.0
25108,65.0,0,479,11.0,0.0
25109,65.0,0,479,6.0,0.0
25110,53.0,0,479,15.0,0.0
25111,50.0,0,719,6.0,0.0
25112,62.0,0,719,6.0,0.0
25113,50.0,240,479,15.0,0.0
25114,62.0,0,479,15.0,0.0
25115,62.0,0,479,11.0,0.0
25116,60.0,0,239,11.0,0.0
25117,60.0,0,239,15.0,0.0
25118,60.0,0,239,6.0,0.0
25119,48.0,0,239,6.0,0.0
25120,48.0,0,239,15.0,0.0
25121,60.0,0,239,11.0,0.0
25122,60.0,0,239,6.0,0.0
25123,60.0,0,239,15.0,0.0
25124,48.0,240,239,6.0,0.0
25125,48.0,0,239,15.0,0.0
25126,45.0,0,239,15.0,0.0
25127,57.0,0,239,15.0,0.0
25128,45.0,0,239,6.0,0.0
25129,57.0,240,239,6.0,0.0
25130,57.0,0,239,11.0,0.0
25131,43.0,0,239,6.0,0.0
25132,55.0,0,239,15.0,0.0
25133,43.0,480,239,15.0,0.0
25134,55.0,0,239,6.0,0.0
25135,55.0,0,239,11.0,0.0
25136,65.0,0,479,11.0,0.0
25137,65.0,0,479,15.0,0.0
25138,53.0,0,479,6.0,0.0
25139,65.0,240,479,6.0,0.0
25140,53.0,0,479,15.0,0.0
25141,52.0,180,239,15.0,0.0
25142,64.0,0,239,15.0,0.0
25143,52.0,0,239,6.0,0.0
25144,64.0,0,239,11.0,0.0
25145,64.0,0,239,6.0,0.0
25146,52.0,0,179,6.0,0.0
25147,64.0,240,179,6.0,0.0
25148,52.0,0,179,15.0,0.0
25149,64.0,0,179,15.0,0.0
25150,64.0,0,179,11.0,0.0
25151,62.0,0,179,6.0,0.0
25152,50.0,0,179,15.0,0.0
25153,50.0,0,179,6.0,0.0
25154,62.0,0,179,15.0,0.0
25155,62.0,0,179,11.0,0.0
25156,72.0,0,119,12.0,0.0
25157,69.0,0,479,1.0,0.0
25158,72.0,0,479,1.0,0.0
25159,60.0,0,479,2.0,0.0
25160,57.0,0,479,2.0,0.0
25161,53.0,0,839,3.0,0.0
25162,65.0,60,119,13.0,0.0
25163,57.0,0,59,13.0,0.0
25164,65.0,150,59,12.0,0.0
25165,65.0,0,179,13.0,0.0
25166,72.0,0,179,12.0,0.0
25167,41.0,60,119,3.0,0.0
25168,53.0,0,599,6.0,0.0
25169,57.0,0,239,6.0,0.0
25170,65.0,0,599,6.0,0.0
25171,53.0,120,239,11.0,0.0
25172,57.0,0,239,11.0,0.0
25173,53.0,0,119,15.0,0.0
25174,65.0,0,599,10.0,0.0
25175,65.0,30,89,14.0,0.0
25176,41.0,0,119,15.0,0.0
25177,72.0,0,239,8.0,0.0
25178,43.0,0,59,3.0,0.0
25179,43.0,0,59,15.0,0.0
25180,57.0,0,59,13.0,0.0
25181,55.0,60,59,15.0,0.0
25182,53.0,60,239,14.0,0.0
25183,65.0,0,59,12.0,0.0
25184,53.0,0,179,15.0,0.0
25185,41.0,0,179,3.0,0.0
25186,72.0,0,59,12.0,0.0
25187,65.0,0,179,13.0,0.0
25188,41.0,0,179,15.0,0.0
25189,74.0,0,359,1.0,0.0
25190,74.0,0,359,8.0,0.0
25191,58.0,60,359,2.0,0.0
25192,70.0,0,359,1.0,0.0
25193,58.0,0,359,11.0,0.0
25194,50.0,0,359,11.0,0.0
25195,62.0,0,359,2.0,0.0
25196,58.0,0,359,6.0,0.0
25197,74.0,0,119,12.0,0.0
25198,58.0,0,59,13.0,0.0
25199,65.0,0,59,12.0,0.0
25200,65.0,0,239,14.0,0.0
25201,43.0,180,59,15.0,0.0
25202,55.0,0,59,15.0,0.0
25203,43.0,0,59,3.0,0.0
25204,74.0,0,179,12.0,0.0
25205,41.0,0,179,3.0,0.0
25206,65.0,0,179,13.0,0.0
25207,53.0,0,179,15.0,0.0
25208,41.0,0,179,15.0,0.0
25209,57.0,0,119,6.0,0.0
25210,65.0,120,119,6.0,0.0
25211,53.0,0,119,3.0,0.0
25212,60.0,0,119,2.0,0.0
25213,55.0,0,59,15.0,0.0
25214,43.0,60,59,15.0,0.0
25215,72.0,0,119,8.0,0.0
25216,50.0,0,119,11.0,0.0
25217,57.0,0,119,11.0,0.0
25218,65.0,0,59,12.0,0.0
25219,77.0,0,119,14.0,0.0
25220,72.0,0,119,1.0,0.0
25221,69.0,0,119,1.0,0.0
25222,57.0,0,59,13.0,0.0
25223,43.0,0,59,3.0,0.0
25224,57.0,0,119,2.0,0.0
25225,53.0,0,119,6.0,0.0
25226,65.0,0,119,10.0,0.0
25227,41.0,0,59,3.0,0.0
25228,72.0,60,179,12.0,0.0
25229,53.0,0,59,15.0,0.0
25230,41.0,0,59,15.0,0.0
25231,65.0,0,179,13.0,0.0
25232,45.0,0,119,3.0,0.0
25233,45.0,0,119,15.0,0.0
25234,72.0,0,119,14.0,0.0
25235,57.0,0,119,15.0,0.0
25236,65.0,30,59,12.0,0.0
25237,57.0,0,119,6.0,0.0
25238,53.0,30,89,14.0,0.0
25239,77.0,0,479,1.0,0.0
25240,60.0,0,59,13.0,0.0
25241,89.0,0,479,0.0,0.0
25242,60.0,0,119,6.0,0.0
25243,65.0,0,479,6.0,0.0
25244,65.0,0,479,11.0,0.0
25245,84.0,0,119,0.0,0.0
25246,57.0,0,119,11.0,0.0
25247,72.0,0,119,10.0,0.0
25248,46.0,0,59,3.0,0.0
25249,57.0,0,119,3.0,0.0
25250,46.0,0,59,15.0,0.0
25251,65.0,0,479,2.0,0.0
25252,72.0,0,119,2.0,0.0
25253,58.0,0,59,15.0,0.0
25254,65.0,0,179,13.0,0.0
25255,45.0,0,59,3.0,0.0
25256,72.0,0,59,12.0,0.0
25257,45.0,0,59,15.0,0.0
25258,57.0,90,59,15.0,0.0
25259,77.0,0,359,8.0,0.0
25260,86.0,0,359,0.0,0.0
25261,46.0,0,119,15.0,0.0
25262,58.0,0,119,15.0,0.0
25263,74.0,0,359,2.0,0.0
25264,58.0,0,359,3.0,0.0
25265,74.0,60,119,12.0,0.0
25266,58.0,0,359,11.0,0.0
25267,50.0,30,89,14.0,0.0
25268,58.0,0,359,6.0,0.0
25269,74.0,60,359,10.0,0.0
25270,46.0,0,119,3.0,0.0
25271,48.0,0,59,15.0,0.0
25272,60.0,0,59,15.0,0.0
25273,62.0,0,239,14.0,0.0
25274,74.0,0,59,12.0,0.0
25275,48.0,60,59,3.0,0.0
25276,65.0,0,59,13.0,0.0
25277,77.0,120,59,12.0,0.0
25278,58.0,0,179,15.0,0.0
25279,46.0,0,179,15.0,0.0
25280,46.0,0,179,3.0,0.0
25281,74.0,0,419,13.0,0.0
25282,77.0,0,119,12.0,0.0
25283,77.0,0,59,12.0,0.0
25284,65.0,0,119,11.0,0.0
25285,58.0,0,119,6.0,0.0
25286,58.0,120,119,11.0,0.0
25287,58.0,0,119,3.0,0.0
25288,77.0,0,119,1.0,0.0
25289,89.0,0,119,0.0,0.0
25290,86.0,0,119,0.0,0.0
25291,77.0,0,119,8.0,0.0
25292,48.0,0,59,15.0,0.0
25293,70.0,60,239,14.0,0.0
25294,60.0,60,59,15.0,0.0
25295,48.0,0,59,3.0,0.0
25296,74.0,0,119,2.0,0.0
25297,70.0,0,119,6.0,0.0
25298,65.0,0,119,6.0,0.0
25299,65.0,0,119,2.0,0.0
25300,74.0,0,119,10.0,0.0
25301,46.0,0,179,15.0,0.0
25302,58.0,0,179,15.0,0.0
25303,82.0,0,179,12.0,0.0
25304,46.0,0,59,3.0,0.0
25305,74.0,0,479,10.0,0.0
25306,70.0,0,479,6.0,0.0
25307,86.0,0,479,0.0,0.0
25308,58.0,0,479,6.0,0.0
25309,65.0,120,479,6.0,0.0
25310,65.0,0,479,2.0,0.0
25311,77.0,0,479,8.0,0.0
25312,74.0,0,479,2.0,0.0
25313,46.0,0,119,3.0,0.0
25314,58.0,0,479,11.0,0.0
25315,58.0,0,479,3.0,0.0
25316,65.0,0,479,11.0,0.0
25317,89.0,0,479,0.0,0.0
25318,77.0,0,479,1.0,0.0
25319,74.0,0,59,13.0,0.0
25320,60.0,180,59,15.0,0.0
25321,48.0,0,59,15.0,0.0
25322,48.0,0,59,3.0,0.0
25323,58.0,0,239,14.0,0.0
25324,82.0,0,59,12.0,0.0
25325,77.0,0,239,13.0,0.0
25326,86.0,60,239,12.0,0.0
25327,46.0,0,179,15.0,0.0
25328,46.0,0,179,3.0,0.0
25329,58.0,60,179,15.0,0.0
25330,48.0,0,59,15.0,0.0
25331,50.0,0,239,14.0,0.0
25332,60.0,0,59,15.0,0.0
25333,48.0,0,59,3.0,0.0
25334,46.0,0,179,15.0,0.0
25335,86.0,0,179,13.0,0.0
25336,46.0,0,59,3.0,0.0
25337,58.0,60,179,15.0,0.0
25338,89.0,0,179,12.0,0.0
25339,74.0,0,239,10.0,0.0
25340,86.0,0,239,0.0,0.0
25341,46.0,0,119,3.0,0.0
25342,58.0,90,239,6.0,0.0
25343,65.0,0,239,11.0,0.0
25344,77.0,0,239,1.0,0.0
25345,58.0,0,239,3.0,0.0
25346,58.0,0,239,11.0,0.0
25347,65.0,0,239,6.0,0.0
25348,70.0,0,239,6.0,0.0
25349,74.0,0,239,2.0,0.0
25350,77.0,0,239,8.0,0.0
25351,89.0,0,239,0.0,0.0
25352,65.0,0,239,2.0,0.0
25353,48.0,0,59,3.0,0.0
25354,77.0,0,59,12.0,0.0
25355,60.0,30,59,15.0,0.0
25356,74.0,0,59,13.0,0.0
25357,48.0,0,59,15.0,0.0
25358,62.0,30,89,14.0,0.0
25359,58.0,0,179,15.0,0.0
25360,86.0,60,179,13.0,0.0
25361,46.0,0,59,3.0,0.0
25362,89.0,0,179,12.0,0.0
25363,46.0,0,179,15.0,0.0
25364,77.0,120,719,1.0,0.0
25365,65.0,0,479,6.0,0.0
25366,58.0,0,239,3.0,0.0
25367,65.0,0,479,11.0,0.0
25368,70.0,0,479,6.0,0.0
25369,46.0,0,119,3.0,0.0
25370,74.0,0,479,2.0,0.0
25371,77.0,0,479,8.0,0.0
25372,65.0,0,479,2.0,0.0
25373,58.0,0,239,11.0,0.0
25374,74.0,30,89,14.0,0.0
25375,74.0,0,479,10.0,0.0
25376,58.0,120,239,6.0,0.0
25377,86.0,120,479,0.0,0.0
25378,89.0,0,719,0.0,0.0
25379,74.0,60,59,13.0,0.0
25380,48.0,0,59,15.0,0.0
25381,62.0,0,239,14.0,0.0
25382,48.0,0,59,3.0,0.0
25383,60.0,0,59,15.0,0.0
25384,77.0,0,59,12.0,0.0
25385,86.0,0,179,13.0,0.0
25386,58.0,0,179,15.0,0.0
25387,46.0,60,179,15.0,0.0
25388,46.0,0,59,3.0,0.0
25389,89.0,0,179,12.0,0.0
25390,58.0,0,719,6.0,0.0
25391,58.0,0,719,11.0,0.0
25392,46.0,0,119,3.0,0.0
25393,58.0,0,719,3.0,0.0
25394,74.0,0,59,13.0,0.0
25395,48.0,60,59,3.0,0.0
25396,48.0,0,59,15.0,0.0
25397,77.0,0,59,12.0,0.0
25398,53.0,0,239,14.0,0.0
25399,60.0,0,59,15.0,0.0
25400,86.0,0,179,13.0,0.0
25401,89.0,0,179,12.0,0.0
25402,46.0,0,179,15.0,0.0
25403,58.0,60,179,15.0,0.0
25404,46.0,0,179,3.0,0.0
25405,65.0,0,719,2.0,0.0
25406,70.0,0,719,2.0,0.0
25407,65.0,90,719,11.0,0.0
25408,70.0,0,719,6.0,0.0
25409,70.0,0,719,10.0,0.0
25410,82.0,0,719,0.0,0.0
25411,65.0,0,719,6.0,0.0
25412,74.0,0,239,14.0,0.0
25413,74.0,0,59,13.0,0.0
25414,48.0,60,59,3.0,0.0
25415,48.0,0,59,15.0,0.0
25416,60.0,0,59,15.0,0.0
25417,77.0,0,59,12.0,0.0
25418,58.0,45,179,15.0,0.0
25419,89.0,0,179,12.0,0.0
25420,46.0,0,179,15.0,0.0
25421,46.0,0,179,3.0,0.0
25422,86.0,0,179,13.0,0.0
25423,86.0,0,479,0.0,0.0
25424,74.0,0,479,8.0,0.0
25425,74.0,0,479,1.0,0.0
25426,77.0,15,59,12.0,0.0
25427,74.0,0,59,13.0,0.0
25428,58.0,0,239,14.0,0.0
25429,60.0,0,59,15.0,0.0
25430,48.0,60,59,15.0,0.0
25431,48.0,0,59,3.0,0.0
25432,89.0,0,59,12.0,0.0
25433,86.0,0,59,13.0,0.0
25434,46.0,0,59,15.0,0.0
25435,46.0,0,59,3.0,0.0
25436,58.0,0,59,15.0,0.0
25437,77.0,0,119,13.0,0.0
25438,58.0,0,119,15.0,0.0
25439,58.0,0,239,6.0,0.0
25440,58.0,0,239,11.0,0.0
25441,58.0,0,239,3.0,0.0
25442,46.0,0,119,15.0,0.0
25443,46.0,0,119,3.0,0.0
25444,86.0,60,119,12.0,0.0
25445,34.0,0,59,15.0,0.0
25446,50.0,30,89,14.0,0.0
25447,34.0,0,59,3.0,0.0
25448,79.0,30,59,13.0,0.0
25449,88.0,0,59,12.0,0.0
25450,46.0,0,59,15.0,0.0
25451,46.0,0,59,3.0,0.0
25452,77.0,0,59,13.0,0.0
25453,86.0,0,59,12.0,0.0
25454,58.0,0,59,15.0,0.0
25455,46.0,0,59,15.0,0.0
25456,76.0,0,119,13.0,0.0
25457,64.0,0,239,11.0,0.0
25458,79.0,0,239,0.0,0.0
25459,67.0,0,239,10.0,0.0
25460,84.0,60,119,12.0,0.0
25461,48.0,0,119,3.0,0.0
25462,60.0,0,239,3.0,0.0
25463,60.0,0,239,11.0,0.0
25464,64.0,0,239,6.0,0.0
25465,67.0,0,239,6.0,0.0
25466,67.0,0,239,2.0,0.0
25467,64.0,0,239,2.0,0.0
25468,84.0,0,239,0.0,0.0
25469,60.0,0,239,6.0,0.0
25470,72.0,0,239,8.0,0.0
25471,48.0,0,119,15.0,0.0
25472,52.0,0,89,14.0,0.0
25473,55.0,30,89,14.0,0.0
25474,60.0,0,119,15.0,0.0
25475,72.0,90,239,1.0,0.0
25476,67.0,30,89,14.0,0.0
25477,36.0,0,59,15.0,0.0
25478,48.0,0,59,15.0,0.0
25479,86.0,0,59,12.0,0.0
25480,77.0,30,59,13.0,0.0
25481,36.0,0,59,3.0,0.0
25482,84.0,0,179,12.0,0.0
25483,76.0,0,179,13.0,0.0
25484,48.0,0,59,3.0,0.0
25485,60.0,60,179,15.0,0.0
25486,48.0,0,179,15.0,0.0
25487,72.0,30,89,14.0,0.0
25488,67.0,0,239,2.0,0.0
25489,72.0,0,239,2.0,0.0
25490,84.0,0,239,0.0,0.0
25491,60.0,0,479,6.0,0.0
25492,79.0,0,239,0.0,0.0
25493,67.0,0,239,6.0,0.0
25494,72.0,0,239,1.0,0.0
25495,64.0,0,239,11.0,0.0
25496,48.0,0,119,3.0,0.0
25497,72.0,0,239,8.0,0.0
25498,67.0,120,239,10.0,0.0
25499,60.0,0,479,3.0,0.0
25500,64.0,0,239,6.0,0.0
25501,36.0,0,59,3.0,0.0
25502,55.0,0,239,14.0,0.0
25503,48.0,0,59,15.0,0.0
25504,36.0,0,59,15.0,0.0
25505,86.0,60,59,12.0,0.0
25506,77.0,0,59,13.0,0.0
25507,48.0,60,179,3.0,0.0
25508,76.0,0,59,13.0,0.0
25509,84.0,0,179,12.0,0.0
25510,48.0,0,179,15.0,0.0
25511,60.0,0,179,15.0,0.0
25512,69.0,0,239,1.0,0.0
25513,65.0,0,239,6.0,0.0
25514,69.0,0,239,8.0,0.0
25515,65.0,0,239,10.0,0.0
25516,60.0,0,239,11.0,0.0
25517,81.0,0,239,0.0,0.0
25518,77.0,0,119,13.0,0.0
25519,77.0,0,239,0.0,0.0
25520,65.0,0,239,2.0,0.0
25521,69.0,120,239,2.0,0.0
25522,69.0,0,239,6.0,0.0
25523,36.0,0,59,3.0,0.0
25524,86.0,0,59,12.0,0.0
25525,36.0,60,59,15.0,0.0
25526,69.0,0,59,13.0,0.0
25527,48.0,0,239,14.0,0.0
25528,48.0,0,59,15.0,0.0
25529,48.0,0,59,15.0,0.0
25530,48.0,0,59,3.0,0.0
25531,60.0,0,59,15.0,0.0
25532,84.0,0,179,12.0,0.0
25533,77.0,0,59,13.0,0.0
25534,67.0,0,239,1.0,0.0
25535,76.0,0,119,13.0,0.0
25536,67.0,0,239,2.0,0.0
25537,67.0,0,239,6.0,0.0
25538,60.0,0,239,6.0,0.0
25539,76.0,0,239,0.0,0.0
25540,64.0,0,239,2.0,0.0
25541,60.0,60,119,15.0,0.0
25542,67.0,0,239,8.0,0.0
25543,64.0,0,239,10.0,0.0
25544,60.0,0,239,11.0,0.0
25545,79.0,0,239,0.0,0.0
25546,60.0,0,239,3.0,0.0
25547,48.0,0,119,15.0,0.0
25548,64.0,0,239,6.0,0.0
25549,48.0,0,119,3.0,0.0
25550,76.0,120,119,14.0,0.0
25551,86.0,0,59,12.0,0.0
25552,36.0,0,59,15.0,0.0
25553,36.0,0,59,3.0,0.0
25554,48.0,60,59,15.0,0.0
25555,67.0,0,59,13.0,0.0
25556,48.0,0,179,15.0,0.0
25557,88.0,0,59,12.0,0.0
25558,48.0,0,59,3.0,0.0
25559,60.0,60,179,15.0,0.0
25560,79.0,0,59,13.0,0.0
25561,77.0,0,479,2.0,0.0
25562,48.0,0,119,3.0,0.0
25563,77.0,0,479,8.0,0.0
25564,69.0,0,359,6.0,0.0
25565,69.0,0,359,2.0,0.0
25566,60.0,0,359,6.0,0.0
25567,60.0,0,359,3.0,0.0
25568,69.0,60,359,10.0,0.0
25569,89.0,0,119,12.0,0.0
25570,81.0,0,359,0.0,0.0
25571,89.0,90,479,0.0,0.0
25572,77.0,0,479,1.0,0.0
25573,60.0,0,359,11.0,0.0
25574,65.0,0,119,14.0,0.0
25575,81.0,0,119,13.0,0.0
25576,72.0,0,59,13.0,0.0
25577,50.0,0,59,15.0,0.0
25578,62.0,0,59,15.0,0.0
25579,50.0,0,59,3.0,0.0
25580,53.0,0,239,14.0,0.0
25581,77.0,180,59,12.0,0.0
25582,60.0,0,179,15.0,0.0
25583,89.0,0,179,12.0,0.0
25584,81.0,0,179,13.0,0.0
25585,48.0,0,179,3.0,0.0
25586,48.0,0,179,15.0,0.0
25587,62.0,0,119,3.0,0.0
25588,77.0,0,59,12.0,0.0
25589,50.0,0,59,15.0,0.0
25590,74.0,0,59,13.0,0.0
25591,71.0,0,119,10.0,0.0
25592,62.0,0,59,15.0,0.0
25593,65.0,30,89,14.0,0.0
25594,71.0,0,119,2.0,0.0
25595,50.0,30,59,3.0,0.0
25596,83.0,0,119,0.0,0.0
25597,62.0,0,119,6.0,0.0
25598,71.0,0,119,6.0,0.0
25599,62.0,0,119,11.0,0.0
25600,48.0,0,59,3.0,0.0
25601,89.0,0,59,12.0,0.0
25602,60.0,0,59,15.0,0.0
25603,86.0,0,59,13.0,0.0
25604,48.0,0,59,15.0,0.0
25605,84.0,0,119,13.0,0.0
25606,72.0,0,239,6.0,0.0
25607,64.0,0,119,11.0,0.0
25608,72.0,0,239,2.0,0.0
25609,76.0,0,239,2.0,0.0
25610,88.0,0,119,12.0,0.0
25611,64.0,0,119,15.0,0.0
25612,72.0,0,239,10.0,0.0
25613,60.0,30,89,14.0,0.0
25614,64.0,0,119,6.0,0.0
25615,52.0,0,119,15.0,0.0
25616,84.0,0,239,0.0,0.0
25617,88.0,0,239,0.0,0.0
25618,76.0,0,239,8.0,0.0
25619,64.0,0,119,3.0,0.0
25620,76.0,0,239,1.0,0.0
25621,52.0,0,119,3.0,0.0
25622,65.0,30,59,15.0,0.0
25623,65.0,0,119,11.0,0.0
25624,65.0,0,119,6.0,0.0
25625,76.0,0,59,12.0,0.0
25626,65.0,120,119,3.0,0.0
25627,53.0,0,59,3.0,0.0
25628,72.0,30,89,14.0,0.0
25629,53.0,0,59,15.0,0.0
25630,72.0,0,59,13.0,0.0
25631,64.0,0,59,15.0,0.0
25632,84.0,0,179,13.0,0.0
25633,52.0,0,59,3.0,0.0
25634,52.0,0,59,15.0,0.0
25635,88.0,0,179,12.0,0.0
25636,72.0,0,239,10.0,0.0
25637,76.0,0,239,8.0,0.0
25638,76.0,0,179,1.0,0.0
25639,55.0,0,119,3.0,0.0
25640,67.0,0,239,11.0,0.0
25641,55.0,60,119,14.0,0.0
25642,55.0,0,179,6.0,0.0
25643,67.0,0,179,3.0,0.0
25644,72.0,0,179,2.0,0.0
25645,67.0,0,119,15.0,0.0
25646,55.0,0,239,11.0,0.0
25647,72.0,0,179,6.0,0.0
25648,84.0,0,179,0.0,0.0
25649,88.0,0,179,0.0,0.0
25650,67.0,120,239,6.0,0.0
25651,76.0,0,179,2.0,0.0
25652,55.0,0,119,15.0,0.0
25653,55.0,0,239,14.0,0.0
25654,57.0,60,59,3.0,0.0
25655,57.0,0,59,15.0,0.0
25656,72.0,0,59,13.0,0.0
25657,76.0,0,59,12.0,0.0
25658,69.0,0,59,15.0,0.0
25659,67.0,0,239,14.0,0.0
25660,67.0,0,59,15.0,0.0
25661,55.0,0,59,15.0,0.0
25662,55.0,0,59,3.0,0.0
25663,88.0,0,59,12.0,0.0
25664,84.0,0,59,13.0,0.0
25665,83.0,0,179,0.0,0.0
25666,55.0,0,119,15.0,0.0
25667,86.0,0,179,0.0,0.0
25668,86.0,0,119,12.0,0.0
25669,83.0,0,119,13.0,0.0
25670,74.0,60,179,1.0,0.0
25671,55.0,0,179,6.0,0.0
25672,67.0,0,239,6.0,0.0
25673,71.0,0,179,6.0,0.0
25674,74.0,0,239,8.0,0.0
25675,71.0,0,239,10.0,0.0
25676,71.0,0,179,2.0,0.0
25677,74.0,0,119,13.0,0.0
25678,55.0,120,239,11.0,0.0
25679,74.0,0,179,2.0,0.0
25680,55.0,0,119,3.0,0.0
25681,74.0,60,119,12.0,0.0
25682,67.0,0,239,11.0,0.0
25683,67.0,0,119,15.0,0.0
25684,67.0,0,179,3.0,0.0
25685,58.0,120,719,14.0,0.0
25686,55.0,0,119,6.0,0.0
25687,70.0,0,119,1.0,0.0
25688,74.0,0,119,1.0,0.0
25689,86.0,0,119,12.0,0.0
25690,74.0,0,599,2.0,0.0
25691,74.0,0,119,12.0,0.0
25692,74.0,120,839,0.0,0.0
25693,31.0,0,119,3.0,0.0
25694,43.0,0,959,3.0,0.0
25695,55.0,240,959,3.0,0.0
25696,43.0,0,719,15.0,0.0
25697,50.0,0,719,15.0,0.0
25698,70.0,120,599,2.0,0.0
25699,31.0,0,119,15.0,0.0
25700,74.0,480,119,13.0,0.0
25701,70.0,0,119,6.0,0.0
25702,82.0,0,119,13.0,0.0
25703,74.0,0,719,14.0,0.0
25704,62.0,0,719,14.0,0.0
25705,67.0,0,119,6.0,0.0
25706,58.0,0,119,2.0,0.0
25707,62.0,0,119,2.0,0.0
25708,67.0,0,239,14.0,0.0
25709,50.0,0,239,15.0,0.0
25710,59.0,0,239,2.0,0.0
25711,62.0,0,479,2.0,0.0
25712,43.0,0,239,15.0,0.0
25713,59.0,0,239,14.0,0.0
25714,62.0,0,479,14.0,0.0
25715,67.0,0,119,0.0,0.0
25716,55.0,0,479,2.0,0.0
25717,64.0,240,479,14.0,0.0
25718,55.0,240,239,14.0,0.0
25719,36.0,0,479,3.0,0.0
25720,48.0,0,479,3.0,0.0
25721,48.0,0,479,15.0,0.0
25722,36.0,0,479,15.0,0.0
25723,64.0,0,479,0.0,0.0
25724,60.0,0,239,14.0,0.0
25725,60.0,0,239,2.0,0.0
25726,64.0,360,479,2.0,0.0
25727,48.0,240,239,15.0,0.0
25728,36.0,0,239,15.0,0.0
25729,55.0,0,239,2.0,0.0
25730,48.0,0,479,14.0,0.0
25731,60.0,0,479,14.0,0.0
25732,64.0,0,479,14.0,0.0
25733,64.0,0,479,0.0,0.0
25734,36.0,0,239,3.0,0.0
25735,48.0,0,239,3.0,0.0
25736,45.0,0,599,15.0,0.0
25737,60.0,0,239,2.0,0.0
25738,57.0,0,599,3.0,0.0
25739,45.0,0,599,3.0,0.0
25740,66.0,120,359,0.0,0.0
25741,66.0,0,359,14.0,0.0
25742,60.0,0,359,14.0,0.0
25743,50.0,0,359,14.0,0.0
25744,60.0,0,359,2.0,0.0
25745,62.0,0,359,2.0,0.0
25746,58.0,0,119,14.0,0.0
25747,67.0,0,119,14.0,0.0
25748,62.0,0,119,2.0,0.0
25749,58.0,0,119,2.0,0.0
25750,43.0,0,119,15.0,0.0
25751,43.0,0,119,3.0,0.0
25752,55.0,180,119,3.0,0.0
25753,50.0,0,119,14.0,0.0
25754,67.0,0,119,0.0,0.0
25755,50.0,0,179,3.0,0.0
25756,38.0,0,179,3.0,0.0
25757,38.0,0,179,15.0,0.0
25758,58.0,0,179,14.0,0.0
25759,67.0,0,179,14.0,0.0
25760,50.0,240,179,14.0,0.0
25761,58.0,0,179,2.0,0.0
25762,62.0,0,179,2.0,0.0
25763,67.0,0,179,0.0,0.0
25764,69.0,0,179,0.0,0.0
25765,62.0,0,179,3.0,0.0
25766,50.0,0,179,3.0,0.0
25767,50.0,60,179,15.0,0.0
25768,66.0,0,239,14.0,0.0
25769,65.0,0,179,2.0,0.0
25770,50.0,0,239,14.0,0.0
25771,57.0,0,239,14.0,0.0
25772,69.0,240,239,14.0,0.0
25773,57.0,0,179,2.0,0.0
25774,55.0,0,239,3.0,0.0
25775,43.0,0,839,3.0,0.0
25776,43.0,0,839,15.0,0.0
25777,50.0,0,839,15.0,0.0
25778,58.0,480,239,2.0,0.0
25779,74.0,0,719,2.0,0.0
25780,58.0,0,839,14.0,0.0
25781,74.0,0,839,14.0,0.0
25782,62.0,0,839,14.0,0.0
25783,74.0,0,839,0.0,0.0
25784,55.0,0,599,11.0,0.0
25785,70.0,0,479,2.0,0.0
25786,74.0,0,599,8.0,0.0
25787,62.0,0,599,10.0,0.0
25788,58.0,90,599,11.0,0.0
25789,58.0,120,479,3.0,0.0
25790,62.0,0,119,2.0,0.0
25791,55.0,0,119,3.0,0.0
25792,58.0,0,119,2.0,0.0
25793,67.0,0,89,14.0,0.0
25794,59.0,0,89,14.0,0.0
25795,50.0,30,89,14.0,0.0
25796,43.0,0,89,15.0,0.0
25797,43.0,0,89,3.0,0.0
25798,55.0,0,89,3.0,0.0
25799,62.0,0,89,2.0,0.0
25800,50.0,0,89,15.0,0.0
25801,59.0,0,89,2.0,0.0
25802,55.0,0,119,11.0,0.0
25803,67.0,0,89,0.0,0.0
25804,50.0,120,119,11.0,0.0
25805,67.0,0,119,8.0,0.0
25806,59.0,0,119,10.0,0.0
25807,64.0,0,179,8.0,0.0
25808,36.0,0,179,3.0,0.0
25809,48.0,60,119,15.0,0.0
25810,55.0,0,179,14.0,0.0
25811,64.0,0,179,0.0,0.0
25812,55.0,180,179,2.0,0.0
25813,48.0,0,179,11.0,0.0
25814,64.0,0,179,14.0,0.0
25815,36.0,0,119,15.0,0.0
25816,48.0,0,179,14.0,0.0
25817,55.0,0,179,10.0,0.0
25818,48.0,0,179,3.0,0.0
25819,55.0,0,179,2.0,0.0
25820,55.0,0,179,10.0,0.0
25821,64.0,0,179,8.0,0.0
25822,55.0,0,179,14.0,0.0
25823,48.0,300,179,14.0,0.0
25824,64.0,0,179,14.0,0.0
25825,48.0,0,179,3.0,0.0
25826,48.0,0,179,11.0,0.0
25827,64.0,0,179,0.0,0.0
25828,48.0,0,119,15.0,0.0
25829,36.0,60,119,15.0,0.0
25830,36.0,0,179,3.0,0.0
25831,36.0,0,239,3.0,0.0
25832,64.0,0,479,0.0,0.0
25833,48.0,0,239,3.0,0.0
25834,36.0,240,239,15.0,0.0
25835,60.0,0,839,2.0,0.0
25836,55.0,0,239,14.0,0.0
25837,64.0,0,479,14.0,0.0
25838,48.0,0,239,15.0,0.0
25839,48.0,0,479,14.0,0.0
25840,64.0,0,479,2.0,0.0
25841,64.0,360,239,8.0,0.0
25842,45.0,0,599,11.0,0.0
25843,60.0,0,599,10.0,0.0
25844,48.0,0,239,11.0,0.0
25845,45.0,0,599,15.0,0.0
25846,45.0,0,599,3.0,0.0
25847,57.0,0,599,3.0,0.0
25848,60.0,0,239,14.0,0.0
25849,60.0,0,359,14.0,0.0
25850,50.0,0,359,14.0,0.0
25851,66.0,0,359,8.0,0.0
25852,50.0,0,359,11.0,0.0
25853,62.0,0,359,2.0,0.0
25854,66.0,120,359,14.0,0.0
25855,66.0,0,359,0.0,0.0
25856,67.0,0,119,8.0,0.0
25857,58.0,0,119,10.0,0.0
25858,43.0,0,119,11.0,0.0
25859,55.0,0,119,3.0,0.0
25860,43.0,0,119,15.0,0.0
25861,50.0,180,119,11.0,0.0
25862,43.0,0,119,3.0,0.0
25863,67.0,0,119,14.0,0.0
25864,58.0,0,119,2.0,0.0
25865,62.0,0,119,2.0,0.0
25866,58.0,0,119,14.0,0.0
25867,67.0,0,119,0.0,0.0
25868,50.0,0,119,14.0,0.0
25869,67.0,0,179,0.0,0.0
25870,62.0,0,179,2.0,0.0
25871,67.0,0,179,8.0,0.0
25872,58.0,0,179,2.0,0.0
25873,50.0,0,179,14.0,0.0
25874,50.0,0,179,11.0,0.0
25875,67.0,240,179,14.0,0.0
25876,38.0,0,179,15.0,0.0
25877,50.0,0,179,3.0,0.0
25878,38.0,0,179,3.0,0.0
25879,58.0,0,179,10.0,0.0
25880,58.0,0,179,14.0,0.0
25881,62.0,0,179,11.0,0.0
25882,50.0,0,179,3.0,0.0
25883,69.0,0,179,14.0,0.0
25884,65.0,0,179,2.0,0.0
25885,50.0,0,179,14.0,0.0
25886,66.0,0,179,14.0,0.0
25887,62.0,0,179,3.0,0.0
25888,69.0,0,179,0.0,0.0
25889,62.0,540,179,2.0,0.0
25890,62.0,0,179,14.0,0.0
25891,69.0,0,179,8.0,0.0
25892,66.0,0,179,10.0,0.0
25893,62.0,0,179,11.0,0.0
25894,50.0,0,179,15.0,0.0
25895,55.0,0,719,3.0,0.0
25896,70.0,0,719,0.0,0.0
25897,43.0,0,719,3.0,0.0
25898,67.0,240,479,14.0,0.0
25899,43.0,0,479,15.0,0.0
25900,67.0,0,479,2.0,0.0
25901,62.0,0,479,2.0,0.0
25902,50.0,0,479,14.0,0.0
25903,58.0,0,479,14.0,0.0
25904,70.0,0,479,14.0,0.0
25905,62.0,120,479,10.0,0.0
25906,70.0,0,479,8.0,0.0
25907,58.0,0,479,11.0,0.0
25908,55.0,0,479,11.0,0.0
25909,43.0,0,359,15.0,0.0
25910,58.0,0,359,2.0,0.0
25911,62.0,0,359,2.0,0.0
25912,70.0,0,359,14.0,0.0
25913,58.0,0,359,14.0,0.0
25914,50.0,120,359,14.0,0.0
25915,62.0,0,359,14.0,0.0
25916,55.0,0,239,3.0,0.0
25917,70.0,0,239,8.0,0.0
25918,62.0,0,239,10.0,0.0
25919,70.0,0,239,0.0,0.0
25920,58.0,0,239,11.0,0.0
25921,43.0,0,239,3.0,0.0
25922,55.0,0,239,11.0,0.0
25923,70.0,0,119,2.0,0.0
25924,58.0,0,119,14.0,0.0
25925,50.0,0,119,14.0,0.0
25926,43.0,0,119,15.0,0.0
25927,62.0,0,119,2.0,0.0
25928,70.0,0,119,14.0,0.0
25929,62.0,240,119,14.0,0.0
25930,69.0,0,479,14.0,0.0
25931,72.0,0,479,14.0,0.0
25932,53.0,0,479,3.0,0.0
25933,41.0,0,479,3.0,0.0
25934,57.0,120,599,11.0,0.0
25935,53.0,0,479,11.0,0.0
25936,53.0,0,479,14.0,0.0
25937,72.0,0,479,8.0,0.0
25938,41.0,240,239,15.0,0.0
25939,72.0,120,479,0.0,0.0
25940,69.0,0,479,10.0,0.0
25941,69.0,0,239,2.0,0.0
25942,72.0,0,239,2.0,0.0
25943,57.0,0,479,14.0,0.0
25944,57.0,0,479,2.0,0.0
25945,60.0,0,479,2.0,0.0
25946,53.0,0,239,15.0,0.0
25947,72.0,0,239,14.0,0.0
25948,53.0,240,239,14.0,0.0
25949,53.0,0,239,15.0,0.0
25950,41.0,0,239,3.0,0.0
25951,72.0,0,239,0.0,0.0
25952,72.0,0,239,8.0,0.0
25953,53.0,0,239,3.0,0.0
25954,53.0,0,239,11.0,0.0
25955,69.0,0,239,10.0,0.0
25956,57.0,0,239,14.0,0.0
25957,69.0,0,239,14.0,0.0
25958,65.0,0,119,11.0,0.0
25959,74.0,0,239,14.0,0.0
25960,58.0,240,239,2.0,0.0
25961,74.0,0,239,0.0,0.0
25962,70.0,0,239,10.0,0.0
25963,34.0,0,239,3.0,0.0
25964,50.0,0,239,14.0,0.0
25965,46.0,0,239,11.0,0.0
25966,62.0,0,239,2.0,0.0
25967,46.0,0,239,3.0,0.0
25968,65.0,0,239,11.0,0.0
25969,58.0,0,239,14.0,0.0
25970,46.0,0,239,15.0,0.0
25971,74.0,0,239,8.0,0.0
25972,62.0,0,239,14.0,0.0
25973,65.0,0,239,2.0,0.0
25974,62.0,0,239,11.0,0.0
25975,70.0,0,239,10.0,0.0
25976,58.0,0,239,15.0,0.0
25977,74.0,0,239,14.0,0.0
25978,74.0,0,239,0.0,0.0
25979,58.0,0,239,14.0,0.0
25980,58.0,0,239,3.0,0.0
25981,74.0,0,239,8.0,0.0
25982,58.0,0,239,11.0,0.0
25983,46.0,0,239,3.0,0.0
25984,62.0,0,239,14.0,0.0
25985,74.0,720,239,2.0,0.0
25986,60.0,0,719,3.0,0.0
25987,76.0,0,719,0.0,0.0
25988,64.0,0,719,2.0,0.0
25989,48.0,0,719,3.0,0.0
25990,67.0,0,719,2.0,0.0
25991,64.0,0,719,14.0,0.0
25992,55.0,0,719,14.0,0.0
25993,48.0,0,719,14.0,0.0
25994,76.0,0,719,14.0,0.0
25995,36.0,0,719,15.0,0.0
25996,48.0,0,719,15.0,0.0
25997,67.0,720,479,10.0,0.0
25998,67.0,0,479,6.0,0.0
25999,60.0,0,479,6.0,0.0
26000,72.0,0,479,6.0,0.0
26001,76.0,0,479,8.0,0.0
26002,60.0,0,479,11.0,0.0
26003,60.0,0,719,3.0,0.0
26004,36.0,0,719,15.0,0.0
26005,48.0,0,719,15.0,0.0
26006,67.0,0,719,2.0,0.0
26007,67.0,0,719,0.0,0.0
26008,48.0,0,719,3.0,0.0
26009,64.0,0,719,14.0,0.0
26010,64.0,0,719,2.0,0.0
26011,67.0,0,719,14.0,0.0
26012,55.0,0,479,11.0,0.0
26013,64.0,0,479,10.0,0.0
26014,48.0,0,479,11.0,0.0
26015,67.0,240,479,8.0,0.0
26016,64.0,0,239,2.0,0.0
26017,48.0,0,239,3.0,0.0
26018,48.0,0,239,11.0,0.0
26019,67.0,0,239,2.0,0.0
26020,60.0,0,239,3.0,0.0
26021,64.0,480,239,14.0,0.0
26022,67.0,0,239,14.0,0.0
26023,55.0,0,239,11.0,0.0
26024,67.0,0,239,8.0,0.0
26025,64.0,0,239,10.0,0.0
26026,67.0,0,239,0.0,0.0
26027,36.0,0,239,15.0,0.0
26028,48.0,0,239,15.0,0.0
26029,76.0,0,479,0.0,0.0
26030,76.0,0,479,14.0,0.0
26031,60.0,0,479,15.0,0.0
26032,67.0,0,479,10.0,0.0
26033,67.0,240,479,14.0,0.0
26034,60.0,0,479,14.0,0.0
26035,64.0,0,479,14.0,0.0
26036,76.0,0,479,8.0,0.0
26037,67.0,0,479,2.0,0.0
26038,76.0,0,479,2.0,0.0
26039,48.0,0,479,3.0,0.0
26040,60.0,0,479,3.0,0.0
26041,60.0,0,479,11.0,0.0
26042,67.0,0,239,10.0,0.0
26043,60.0,0,239,15.0,0.0
26044,76.0,240,239,0.0,0.0
26045,64.0,0,239,14.0,0.0
26046,76.0,0,239,8.0,0.0
26047,76.0,0,239,14.0,0.0
26048,67.0,0,239,2.0,0.0
26049,48.0,0,239,3.0,0.0
26050,60.0,0,239,3.0,0.0
26051,60.0,0,239,14.0,0.0
26052,67.0,0,239,14.0,0.0
26053,76.0,0,239,2.0,0.0
26054,60.0,0,239,11.0,0.0
26055,60.0,240,239,15.0,0.0
26056,60.0,0,239,3.0,0.0
26057,48.0,0,239,3.0,0.0
26058,69.0,0,479,10.0,0.0
26059,65.0,0,479,14.0,0.0
26060,77.0,0,479,8.0,0.0
26061,60.0,0,239,14.0,0.0
26062,69.0,0,479,2.0,0.0
26063,77.0,0,479,0.0,0.0
26064,60.0,0,239,11.0,0.0
26065,65.0,240,479,2.0,0.0
26066,65.0,0,479,11.0,0.0
26067,69.0,0,479,14.0,0.0
26068,41.0,0,239,3.0,0.0
26069,53.0,0,239,3.0,0.0
26070,53.0,0,239,14.0,0.0
26071,53.0,0,239,15.0,0.0
26072,53.0,0,239,11.0,0.0
26073,77.0,0,239,0.0,0.0
26074,69.0,0,239,2.0,0.0
26075,65.0,0,239,2.0,0.0
26076,69.0,0,239,14.0,0.0
26077,65.0,0,239,14.0,0.0
26078,65.0,720,239,15.0,0.0
26079,65.0,0,239,11.0,0.0
26080,69.0,0,239,10.0,0.0
26081,77.0,0,239,8.0,0.0
26082,65.0,0,239,3.0,0.0
26083,53.0,0,239,3.0,0.0
26084,69.0,0,719,2.0,0.0
26085,78.0,0,719,0.0,0.0
26086,78.0,0,719,8.0,0.0
26087,62.0,0,719,11.0,0.0
26088,66.0,0,719,14.0,0.0
26089,50.0,0,719,3.0,0.0
26090,62.0,0,719,3.0,0.0
26091,69.0,0,719,6.0,0.0
26092,66.0,0,719,6.0,0.0
26093,66.0,0,719,2.0,0.0
26094,62.0,0,719,15.0,0.0
26095,69.0,0,719,14.0,0.0
26096,62.0,0,719,14.0,0.0
26097,69.0,0,719,10.0,0.0
26098,62.0,480,719,6.0,0.0
26099,63.0,0,359,3.0,0.0
26100,79.0,0,359,8.0,0.0
26101,67.0,120,239,10.0,0.0
26102,67.0,0,359,11.0,0.0
26103,63.0,0,359,15.0,0.0
26104,67.0,0,359,2.0,0.0
26105,91.0,0,359,0.0,0.0
26106,79.0,0,359,0.0,0.0
26107,67.0,0,359,6.0,0.0
26108,67.0,0,359,3.0,0.0
26109,63.0,0,359,6.0,0.0
26110,67.0,0,359,14.0,0.0
26111,79.0,0,359,1.0,0.0
26112,63.0,0,359,11.0,0.0
26113,67.0,120,359,1.0,0.0
26114,63.0,0,359,14.0,0.0
26115,79.0,0,359,2.0,0.0
26116,75.0,0,119,10.0,0.0
26117,79.0,0,119,1.0,0.0
26118,79.0,0,119,8.0,0.0
26119,87.0,0,119,0.0,0.0
26120,91.0,0,119,0.0,0.0
26121,63.0,480,119,11.0,0.0
26122,67.0,0,119,6.0,0.0
26123,75.0,0,119,1.0,0.0
26124,75.0,0,119,14.0,0.0
26125,70.0,0,119,14.0,0.0
26126,63.0,0,119,14.0,0.0
26127,79.0,0,119,2.0,0.0
26128,75.0,0,119,2.0,0.0
26129,75.0,0,119,10.0,0.0
26130,67.0,0,119,3.0,0.0
26131,63.0,0,119,3.0,0.0
26132,63.0,0,119,6.0,0.0
26133,63.0,0,119,15.0,0.0
26134,67.0,0,119,14.0,0.0
26135,67.0,0,119,11.0,0.0
26136,70.0,0,479,14.0,0.0
26137,79.0,0,479,2.0,0.0
26138,75.0,240,479,10.0,0.0
26139,63.0,0,479,14.0,0.0
26140,63.0,0,479,15.0,0.0
26141,63.0,0,479,3.0,0.0
26142,67.0,0,479,3.0,0.0
26143,75.0,0,479,2.0,0.0
26144,63.0,0,479,11.0,0.0
26145,75.0,0,479,1.0,0.0
26146,63.0,0,479,6.0,0.0
26147,79.0,0,479,1.0,0.0
26148,67.0,0,479,14.0,0.0
26149,67.0,0,479,6.0,0.0
26150,75.0,0,479,14.0,0.0
26151,67.0,0,479,11.0,0.0
26152,79.0,0,479,8.0,0.0
26153,70.0,0,479,6.0,0.0
26154,87.0,0,479,0.0,0.0
26155,91.0,0,479,0.0,0.0
26156,67.0,0,239,14.0,0.0
26157,79.0,0,239,8.0,0.0
26158,70.0,0,239,6.0,0.0
26159,67.0,0,239,6.0,0.0
26160,75.0,0,239,10.0,0.0
26161,63.0,0,239,3.0,0.0
26162,63.0,0,239,14.0,0.0
26163,70.0,0,239,14.0,0.0
26164,79.0,0,239,2.0,0.0
26165,75.0,0,239,14.0,0.0
26166,67.0,0,239,11.0,0.0
26167,75.0,0,239,1.0,0.0
26168,67.0,0,239,3.0,0.0
26169,87.0,0,239,0.0,0.0
26170,63.0,0,239,6.0,0.0
26171,91.0,240,239,0.0,0.0
26172,63.0,0,239,15.0,0.0
26173,63.0,0,239,11.0,0.0
26174,79.0,0,239,1.0,0.0
26175,75.0,0,239,2.0,0.0
26176,75.0,0,239,10.0,0.0
26177,67.0,0,239,14.0,0.0
26178,67.0,0,239,6.0,0.0
26179,70.0,0,239,6.0,0.0
26180,79.0,0,239,1.0,0.0
26181,75.0,0,239,1.0,0.0
26182,87.0,0,239,0.0,0.0
26183,91.0,0,239,0.0,0.0
26184,63.0,0,239,11.0,0.0
26185,63.0,0,239,15.0,0.0
26186,67.0,0,239,11.0,0.0
26187,67.0,0,239,3.0,0.0
26188,79.0,480,239,2.0,0.0
26189,75.0,0,239,2.0,0.0
26190,75.0,0,239,14.0,0.0
26191,63.0,0,239,3.0,0.0
26192,79.0,0,239,8.0,0.0
26193,70.0,0,239,14.0,0.0
26194,63.0,0,239,6.0,0.0
26195,63.0,0,239,14.0,0.0
26196,79.0,0,479,1.0,0.0
26197,63.0,0,479,11.0,0.0
26198,75.0,0,479,10.0,0.0
26199,75.0,0,479,1.0,0.0
26200,79.0,0,479,2.0,0.0
26201,75.0,0,479,2.0,0.0
26202,63.0,0,479,3.0,0.0
26203,79.0,0,479,8.0,0.0
26204,63.0,0,479,15.0,0.0
26205,67.0,0,479,3.0,0.0
26206,70.0,0,479,14.0,0.0
26207,75.0,480,479,14.0,0.0
26208,67.0,0,479,6.0,0.0
26209,63.0,0,479,6.0,0.0
26210,91.0,0,479,0.0,0.0
26211,87.0,0,479,0.0,0.0
26212,70.0,0,479,6.0,0.0
26213,67.0,0,479,14.0,0.0
26214,67.0,0,479,11.0,0.0
26215,63.0,0,479,14.0,0.0
26216,67.0,0,479,6.0,0.0
26217,79.0,0,479,8.0,0.0
26218,63.0,0,479,6.0,0.0
26219,75.0,240,479,2.0,0.0
26220,79.0,0,479,2.0,0.0
26221,67.0,0,479,11.0,0.0
26222,91.0,0,479,0.0,0.0
26223,87.0,0,479,0.0,0.0
26224,75.0,0,479,10.0,0.0
26225,75.0,0,479,14.0,0.0
26226,63.0,0,479,15.0,0.0
26227,63.0,0,479,3.0,0.0
26228,75.0,0,479,1.0,0.0
26229,79.0,0,479,1.0,0.0
26230,63.0,0,479,14.0,0.0
26231,67.0,0,479,14.0,0.0
26232,70.0,0,479,6.0,0.0
26233,70.0,0,479,14.0,0.0
26234,67.0,0,479,3.0,0.0
26235,63.0,0,479,11.0,0.0
26236,87.0,0,239,0.0,0.0
26237,63.0,0,239,15.0,0.0
26238,75.0,0,239,10.0,0.0
26239,75.0,0,239,2.0,0.0
26240,79.0,0,239,2.0,0.0
26241,67.0,0,239,11.0,0.0
26242,79.0,0,239,1.0,0.0
26243,75.0,0,239,1.0,0.0
26244,63.0,0,239,6.0,0.0
26245,91.0,1200,239,0.0,0.0
26246,79.0,0,239,8.0,0.0
26247,67.0,0,239,3.0,0.0
26248,67.0,0,239,6.0,0.0
26249,63.0,0,239,3.0,0.0
26250,63.0,0,239,11.0,0.0
26251,67.0,0,239,14.0,0.0
26252,63.0,0,239,14.0,0.0
26253,70.0,0,239,14.0,0.0
26254,75.0,0,239,14.0,0.0
26255,70.0,0,239,6.0,0.0
26256,64.0,0,959,15.0,0.0
26257,70.0,480,959,14.0,0.0
26258,79.0,0,959,12.0,0.0
26259,67.0,0,959,14.0,0.0
26260,73.0,0,959,13.0,0.0
26261,52.0,0,959,15.0,0.0
26262,82.0,30,1439,1.0,0.0
26263,64.0,0,479,15.0,0.0
26264,79.0,0,479,12.0,0.0
26265,52.0,0,479,15.0,0.0
26266,73.0,0,479,13.0,0.0
26267,67.0,0,479,14.0,0.0
26268,70.0,240,479,14.0,0.0
26269,85.0,480,719,0.0,0.0
26270,79.0,0,959,1.0,0.0
26271,88.0,0,239,0.0,0.0
26272,52.0,0,719,15.0,0.0
26273,67.0,0,719,14.0,0.0
26274,70.0,0,719,14.0,0.0
26275,64.0,0,719,15.0,0.0
26276,73.0,0,719,13.0,0.0
26277,91.0,0,719,0.0,0.0
26278,79.0,0,719,12.0,0.0
26279,76.0,0,479,2.0,0.0
26280,85.0,0,479,0.0,0.0
26281,61.0,0,239,3.0,0.0
26282,64.0,0,239,3.0,0.0
26283,79.0,0,239,2.0,0.0
26284,82.0,0,29,13.0,0.0
26285,76.0,20,359,10.0,0.0
26286,45.0,0,29,7.0,0.0
26287,91.0,0,59,0.0,0.0
26288,61.0,0,59,3.0,0.0
26289,64.0,0,59,3.0,0.0
26290,57.0,0,29,15.0,0.0
26291,79.0,0,59,2.0,0.0
26292,45.0,30,29,15.0,0.0
26293,76.0,0,29,12.0,0.0
26294,82.0,0,59,1.0,0.0
26295,79.0,0,59,1.0,0.0
26296,85.0,0,29,12.0,0.0
26297,76.0,0,59,2.0,0.0
26298,76.0,0,29,14.0,0.0
26299,73.0,0,29,13.0,0.0
26300,67.0,0,29,14.0,0.0
26301,88.0,0,59,0.0,0.0
26302,79.0,0,359,8.0,0.0
26303,76.0,0,29,14.0,0.0
26304,85.0,0,29,12.0,0.0
26305,76.0,0,29,12.0,0.0
26306,82.0,0,29,13.0,0.0
26307,45.0,30,29,7.0,0.0
26308,67.0,0,29,14.0,0.0
26309,73.0,0,29,13.0,0.0
26310,69.0,0,29,15.0,0.0
26311,57.0,0,29,15.0,0.0
26312,69.0,0,29,15.0,0.0
26313,45.0,0,29,7.0,0.0
26314,85.0,0,29,12.0,0.0
26315,76.0,0,29,12.0,0.0
26316,76.0,0,29,14.0,0.0
26317,73.0,30,29,13.0,0.0
26318,82.0,0,29,13.0,0.0
26319,67.0,0,29,14.0,0.0
26320,57.0,0,29,15.0,0.0
26321,79.0,0,59,1.0,0.0
26322,82.0,10,59,1.0,0.0
26323,61.0,0,59,3.0,0.0
26324,64.0,0,59,3.0,0.0
26325,91.0,0,59,0.0,0.0
26326,88.0,0,59,0.0,0.0
26327,79.0,0,59,2.0,0.0
26328,76.0,0,59,2.0,0.0
26329,73.0,0,29,13.0,0.0
26330,82.0,0,29,13.0,0.0
26331,85.0,0,29,12.0,0.0
26332,76.0,0,29,12.0,0.0
26333,69.0,0,29,15.0,0.0
26334,67.0,0,29,14.0,0.0
26335,45.0,20,29,7.0,0.0
26336,76.0,0,29,14.0,0.0
26337,57.0,0,29,15.0,0.0
26338,73.0,0,29,13.0,0.0
26339,82.0,0,29,13.0,0.0
26340,67.0,0,29,14.0,0.0
26341,69.0,0,29,15.0,0.0
26342,45.0,0,29,7.0,0.0
26343,76.0,0,29,12.0,0.0
26344,85.0,30,29,12.0,0.0
26345,57.0,0,29,15.0,0.0
26346,76.0,0,29,14.0,0.0
26347,76.0,0,29,14.0,0.0
26348,67.0,0,29,14.0,0.0
26349,85.0,30,29,12.0,0.0
26350,76.0,0,29,12.0,0.0
26351,57.0,0,29,15.0,0.0
26352,69.0,0,29,15.0,0.0
26353,82.0,0,29,13.0,0.0
26354,73.0,0,29,13.0,0.0
26355,45.0,0,29,7.0,0.0
26356,91.0,0,59,0.0,0.0
26357,82.0,0,59,1.0,0.0
26358,79.0,0,59,1.0,0.0
26359,88.0,0,59,0.0,0.0
26360,79.0,20,59,2.0,0.0
26361,76.0,0,59,2.0,0.0
26362,64.0,0,59,3.0,0.0
26363,61.0,0,59,3.0,0.0
26364,45.0,0,29,7.0,0.0
26365,73.0,0,29,13.0,0.0
26366,57.0,0,29,15.0,0.0
26367,67.0,10,29,14.0,0.0
26368,76.0,0,29,14.0,0.0
26369,82.0,0,29,13.0,0.0
26370,69.0,0,29,15.0,0.0
26371,76.0,0,29,12.0,0.0
26372,85.0,0,29,12.0,0.0
26373,67.0,0,29,14.0,0.0
26374,76.0,0,29,14.0,0.0
26375,85.0,0,29,12.0,0.0
26376,69.0,0,29,15.0,0.0
26377,82.0,30,29,13.0,0.0
26378,76.0,0,29,12.0,0.0
26379,73.0,0,29,13.0,0.0
26380,45.0,0,29,7.0,0.0
26381,57.0,0,29,15.0,0.0
26382,79.0,0,59,1.0,0.0
26383,85.0,0,29,12.0,0.0
26384,76.0,0,29,12.0,0.0
26385,76.0,0,29,14.0,0.0
26386,82.0,0,59,1.0,0.0
26387,67.0,0,29,14.0,0.0
26388,82.0,30,29,13.0,0.0
26389,76.0,0,59,2.0,0.0
26390,79.0,0,59,2.0,0.0
26391,91.0,0,59,0.0,0.0
26392,88.0,0,59,0.0,0.0
26393,57.0,0,29,15.0,0.0
26394,45.0,0,29,7.0,0.0
26395,73.0,0,29,13.0,0.0
26396,64.0,0,59,3.0,0.0
26397,69.0,0,29,15.0,0.0
26398,61.0,0,59,3.0,0.0
26399,76.0,0,29,12.0,0.0
26400,85.0,0,29,12.0,0.0
26401,82.0,0,29,13.0,0.0
26402,57.0,0,29,15.0,0.0
26403,76.0,0,29,14.0,0.0
26404,69.0,0,29,15.0,0.0
26405,67.0,0,29,14.0,0.0
26406,73.0,0,29,13.0,0.0
26407,45.0,30,29,7.0,0.0
26408,73.0,0,29,13.0,0.0
26409,69.0,0,29,15.0,0.0
26410,85.0,0,29,12.0,0.0
26411,76.0,0,29,12.0,0.0
26412,67.0,0,29,14.0,0.0
26413,45.0,0,29,7.0,0.0
26414,76.0,0,29,14.0,0.0
26415,57.0,30,29,15.0,0.0
26416,82.0,0,29,13.0,0.0
26417,61.0,0,59,3.0,0.0
26418,82.0,0,59,1.0,0.0
26419,79.0,0,59,1.0,0.0
26420,91.0,0,59,0.0,0.0
26421,88.0,0,59,0.0,0.0
26422,76.0,0,59,2.0,0.0
26423,79.0,10,59,2.0,0.0
26424,64.0,0,59,3.0,0.0
26425,76.0,0,29,12.0,0.0
26426,45.0,0,29,7.0,0.0
26427,85.0,0,29,12.0,0.0
26428,67.0,0,29,14.0,0.0
26429,69.0,0,29,15.0,0.0
26430,76.0,0,29,14.0,0.0
26431,82.0,0,29,13.0,0.0
26432,57.0,0,29,15.0,0.0
26433,73.0,0,29,13.0,0.0
26434,76.0,30,119,10.0,0.0
26435,67.0,0,29,14.0,0.0
26436,45.0,0,29,7.0,0.0
26437,82.0,0,29,13.0,0.0
26438,69.0,0,29,15.0,0.0
26439,57.0,0,29,15.0,0.0
26440,76.0,0,29,14.0,0.0
26441,79.0,0,119,8.0,0.0
26442,85.0,0,29,12.0,0.0
26443,76.0,0,29,12.0,0.0
26444,73.0,0,29,13.0,0.0
26445,73.0,0,29,13.0,0.0
26446,45.0,0,29,7.0,0.0
26447,57.0,0,29,15.0,0.0
26448,85.0,0,29,12.0,0.0
26449,76.0,0,29,12.0,0.0
26450,82.0,30,29,13.0,0.0
26451,76.0,0,29,14.0,0.0
26452,69.0,0,29,15.0,0.0
26453,67.0,0,29,14.0,0.0
26454,82.0,0,59,1.0,0.0
26455,61.0,0,59,3.0,0.0
26456,64.0,0,59,3.0,0.0
26457,79.0,0,59,1.0,0.0
26458,79.0,0,59,2.0,0.0
26459,76.0,20,59,2.0,0.0
26460,88.0,0,59,0.0,0.0
26461,91.0,0,59,0.0,0.0
26462,67.0,0,29,14.0,0.0
26463,76.0,0,29,14.0,0.0
26464,73.0,10,29,13.0,0.0
26465,45.0,0,29,7.0,0.0
26466,69.0,0,29,15.0,0.0
26467,85.0,0,29,12.0,0.0
26468,82.0,0,29,13.0,0.0
26469,57.0,0,29,15.0,0.0
26470,76.0,0,29,12.0,0.0
26471,45.0,0,29,7.0,0.0
26472,67.0,0,29,14.0,0.0
26473,76.0,0,29,14.0,0.0
26474,82.0,0,29,13.0,0.0
26475,73.0,0,29,13.0,0.0
26476,85.0,0,29,12.0,0.0
26477,76.0,0,29,12.0,0.0
26478,69.0,0,29,15.0,0.0
26479,57.0,0,29,15.0,0.0
26480,79.0,0,59,1.0,0.0
26481,73.0,0,29,13.0,0.0
26482,85.0,0,29,12.0,0.0
26483,76.0,0,29,12.0,0.0
26484,82.0,0,29,13.0,0.0
26485,57.0,0,29,15.0,0.0
26486,79.0,0,479,8.0,0.0
26487,61.0,0,59,3.0,0.0
26488,64.0,0,59,3.0,0.0
26489,88.0,0,59,0.0,0.0
26490,91.0,0,59,0.0,0.0
26491,76.0,30,479,10.0,0.0
26492,69.0,0,29,15.0,0.0
26493,82.0,0,59,1.0,0.0
26494,45.0,0,29,7.0,0.0
26495,76.0,0,59,2.0,0.0
26496,79.0,0,59,2.0,0.0
26497,67.0,30,29,14.0,0.0
26498,76.0,0,29,14.0,0.0
26499,76.0,0,29,14.0,0.0
26500,67.0,0,29,14.0,0.0
26501,76.0,0,29,12.0,0.0
26502,82.0,0,29,13.0,0.0
26503,69.0,0,29,15.0,0.0
26504,45.0,0,29,7.0,0.0
26505,57.0,0,29,15.0,0.0
26506,85.0,30,29,12.0,0.0
26507,73.0,0,29,13.0,0.0
26508,85.0,0,29,12.0,0.0
26509,69.0,0,29,15.0,0.0
26510,76.0,0,29,12.0,0.0
26511,57.0,0,29,15.0,0.0
26512,45.0,0,29,7.0,0.0
26513,67.0,0,29,14.0,0.0
26514,76.0,0,29,14.0,0.0
26515,73.0,0,29,13.0,0.0
26516,82.0,30,29,13.0,0.0
26517,91.0,0,59,0.0,0.0
26518,76.0,0,59,2.0,0.0
26519,88.0,10,59,0.0,0.0
26520,64.0,0,59,3.0,0.0
26521,61.0,0,59,3.0,0.0
26522,82.0,0,59,1.0,0.0
26523,79.0,0,59,2.0,0.0
26524,79.0,0,59,1.0,0.0
26525,67.0,0,29,14.0,0.0
26526,45.0,0,29,7.0,0.0
26527,76.0,0,29,14.0,0.0
26528,69.0,0,29,15.0,0.0
26529,76.0,0,29,12.0,0.0
26530,85.0,0,29,12.0,0.0
26531,57.0,20,29,15.0,0.0
26532,73.0,0,29,13.0,0.0
26533,82.0,0,29,13.0,0.0
26534,82.0,0,29,13.0,0.0
26535,76.0,0,29,14.0,0.0
26536,57.0,0,29,15.0,0.0
26537,73.0,30,29,13.0,0.0
26538,69.0,0,29,15.0,0.0
26539,67.0,0,29,14.0,0.0
26540,76.0,0,29,12.0,0.0
26541,85.0,0,29,12.0,0.0
26542,45.0,0,29,7.0,0.0
26543,76.0,0,29,14.0,0.0
26544,67.0,0,29,14.0,0.0
26545,69.0,30,29,15.0,0.0
26546,73.0,0,29,13.0,0.0
26547,82.0,0,29,13.0,0.0
26548,85.0,0,29,12.0,0.0
26549,76.0,0,29,12.0,0.0
26550,45.0,0,29,7.0,0.0
26551,57.0,0,29,15.0,0.0
26552,82.0,0,59,1.0,0.0
26553,79.0,0,59,2.0,0.0
26554,76.0,0,59,2.0,0.0
26555,64.0,0,59,3.0,0.0
26556,61.0,0,59,3.0,0.0
26557,91.0,0,59,0.0,0.0
26558,88.0,20,59,0.0,0.0
26559,79.0,0,59,1.0,0.0
26560,76.0,0,29,14.0,0.0
26561,73.0,0,29,13.0,0.0
26562,82.0,0,29,13.0,0.0
26563,69.0,0,29,15.0,0.0
26564,85.0,0,29,12.0,0.0
26565,45.0,0,29,7.0,0.0
26566,67.0,0,29,14.0,0.0
26567,57.0,10,29,15.0,0.0
26568,76.0,0,29,12.0,0.0
26569,45.0,0,29,7.0,0.0
26570,57.0,0,29,15.0,0.0
26571,85.0,0,29,12.0,0.0
26572,76.0,0,29,12.0,0.0
26573,69.0,0,29,15.0,0.0
26574,67.0,30,29,14.0,0.0
26575,76.0,0,29,14.0,0.0
26576,73.0,0,29,13.0,0.0
26577,82.0,0,29,13.0,0.0
26578,61.0,0,239,6.0,0.0
26579,91.0,0,59,0.0,0.0
26580,57.0,0,239,6.0,0.0
26581,88.0,30,59,0.0,0.0
26582,64.0,0,59,3.0,0.0
26583,61.0,0,359,11.0,0.0
26584,82.0,0,29,13.0,0.0
26585,82.0,0,59,1.0,0.0
26586,57.0,0,239,4.0,0.0
26587,64.0,0,239,4.0,0.0
26588,79.0,0,59,2.0,0.0
26589,69.0,30,29,15.0,0.0
26590,76.0,0,59,2.0,0.0
26591,45.0,0,239,6.0,0.0
26592,79.0,0,59,1.0,0.0
26593,73.0,0,29,13.0,0.0
26594,57.0,0,359,11.0,0.0
26595,61.0,0,59,3.0,0.0
26596,57.0,0,29,15.0,0.0
26597,85.0,0,29,12.0,0.0
26598,76.0,0,29,12.0,0.0
26599,76.0,0,29,14.0,0.0
26600,67.0,0,29,14.0,0.0
26601,45.0,0,29,7.0,0.0
26602,85.0,0,29,12.0,0.0
26603,57.0,0,29,15.0,0.0
26604,69.0,0,29,15.0,0.0
26605,76.0,0,29,14.0,0.0
26606,67.0,0,29,14.0,0.0
26607,76.0,0,29,12.0,0.0
26608,45.0,0,29,7.0,0.0
26609,73.0,0,29,13.0,0.0
26610,82.0,0,29,13.0,0.0
26611,73.0,30,29,13.0,0.0
26612,76.0,0,29,14.0,0.0
26613,82.0,0,29,13.0,0.0
26614,85.0,0,29,12.0,0.0
26615,67.0,0,29,14.0,0.0
26616,57.0,0,29,15.0,0.0
26617,76.0,0,29,12.0,0.0
26618,45.0,0,29,7.0,0.0
26619,69.0,0,29,15.0,0.0
26620,79.0,0,59,1.0,0.0
26621,82.0,0,59,1.0,0.0
26622,61.0,0,59,3.0,0.0
26623,76.0,0,59,2.0,0.0
26624,79.0,10,59,2.0,0.0
26625,88.0,0,59,0.0,0.0
26626,91.0,0,59,0.0,0.0
26627,64.0,0,59,3.0,0.0
26628,57.0,0,29,15.0,0.0
26629,73.0,0,29,13.0,0.0
26630,69.0,0,29,15.0,0.0
26631,82.0,0,29,13.0,0.0
26632,85.0,0,29,12.0,0.0
26633,76.0,0,29,12.0,0.0
26634,45.0,0,29,7.0,0.0
26635,67.0,0,29,14.0,0.0
26636,76.0,20,29,14.0,0.0
26637,67.0,0,29,14.0,0.0
26638,57.0,0,29,15.0,0.0
26639,85.0,0,29,12.0,0.0
26640,76.0,0,29,12.0,0.0
26641,45.0,0,29,7.0,0.0
26642,76.0,0,29,14.0,0.0
26643,69.0,0,29,15.0,0.0
26644,82.0,0,29,13.0,0.0
26645,73.0,0,29,13.0,0.0
26646,45.0,30,29,7.0,0.0
26647,69.0,0,29,15.0,0.0
26648,67.0,0,29,14.0,0.0
26649,73.0,0,29,13.0,0.0
26650,76.0,0,29,14.0,0.0
26651,76.0,0,29,12.0,0.0
26652,85.0,0,29,12.0,0.0
26653,57.0,0,29,15.0,0.0
26654,82.0,0,29,13.0,0.0
26655,91.0,0,59,0.0,0.0
26656,88.0,0,59,0.0,0.0
26657,64.0,20,59,3.0,0.0
26658,82.0,0,59,1.0,0.0
26659,61.0,0,59,3.0,0.0
26660,79.0,0,59,1.0,0.0
26661,79.0,0,59,2.0,0.0
26662,76.0,0,59,2.0,0.0
26663,73.0,0,29,13.0,0.0
26664,67.0,0,29,14.0,0.0
26665,45.0,10,29,7.0,0.0
26666,76.0,0,29,14.0,0.0
26667,82.0,0,29,13.0,0.0
26668,69.0,0,29,15.0,0.0
26669,76.0,0,29,12.0,0.0
26670,85.0,0,29,12.0,0.0
26671,57.0,0,29,15.0,0.0
26672,82.0,0,29,13.0,0.0
26673,73.0,0,29,13.0,0.0
26674,45.0,0,29,7.0,0.0
26675,57.0,0,29,15.0,0.0
26676,85.0,0,29,12.0,0.0
26677,76.0,0,29,14.0,0.0
26678,76.0,0,29,12.0,0.0
26679,69.0,0,29,15.0,0.0
26680,67.0,0,29,14.0,0.0
26681,69.0,0,29,15.0,0.0
26682,76.0,30,239,10.0,0.0
26683,61.0,0,239,6.0,0.0
26684,57.0,0,239,4.0,0.0
26685,64.0,0,239,4.0,0.0
26686,79.0,0,239,8.0,0.0
26687,76.0,0,59,2.0,0.0
26688,79.0,10,59,2.0,0.0
26689,57.0,0,29,15.0,0.0
26690,76.0,0,29,12.0,0.0
26691,57.0,0,239,6.0,0.0
26692,82.0,0,29,13.0,0.0
26693,45.0,0,239,6.0,0.0
26694,45.0,30,29,7.0,0.0
26695,82.0,0,59,1.0,0.0
26696,79.0,0,59,1.0,0.0
26697,76.0,0,29,14.0,0.0
26698,67.0,0,29,14.0,0.0
26699,61.0,0,59,3.0,0.0
26700,64.0,0,59,3.0,0.0
26701,85.0,0,29,12.0,0.0
26702,73.0,0,29,13.0,0.0
26703,91.0,20,59,0.0,0.0
26704,88.0,0,59,0.0,0.0
26705,85.0,0,29,12.0,0.0
26706,76.0,0,29,12.0,0.0
26707,82.0,0,29,13.0,0.0
26708,57.0,0,29,15.0,0.0
26709,67.0,0,29,14.0,0.0
26710,73.0,0,29,13.0,0.0
26711,69.0,0,29,15.0,0.0
26712,76.0,0,29,14.0,0.0
26713,45.0,0,29,7.0,0.0
26714,67.0,0,29,14.0,0.0
26715,85.0,30,29,12.0,0.0
26716,57.0,0,29,15.0,0.0
26717,73.0,0,29,13.0,0.0
26718,76.0,0,29,12.0,0.0
26719,76.0,0,29,14.0,0.0
26720,69.0,0,29,15.0,0.0
26721,45.0,0,29,7.0,0.0
26722,82.0,0,29,13.0,0.0
26723,76.0,0,59,2.0,0.0
26724,82.0,0,59,1.0,0.0
26725,79.0,0,59,2.0,0.0
26726,61.0,0,59,3.0,0.0
26727,79.0,10,59,1.0,0.0
26728,64.0,0,59,3.0,0.0
26729,45.0,0,29,7.0,0.0
26730,76.0,0,29,14.0,0.0
26731,82.0,0,29,13.0,0.0
26732,85.0,20,29,12.0,0.0
26733,76.0,0,29,12.0,0.0
26734,69.0,0,29,15.0,0.0
26735,57.0,0,29,15.0,0.0
26736,67.0,0,29,14.0,0.0
26737,73.0,0,29,13.0,0.0
26738,88.0,30,59,0.0,0.0
26739,91.0,0,59,0.0,0.0
26740,69.0,0,29,15.0,0.0
26741,45.0,0,29,7.0,0.0
26742,85.0,0,29,12.0,0.0
26743,76.0,0,29,14.0,0.0
26744,73.0,0,29,13.0,0.0
26745,76.0,0,29,12.0,0.0
26746,57.0,0,119,11.0,0.0
26747,61.0,0,119,11.0,0.0
26748,57.0,0,29,15.0,0.0
26749,67.0,0,29,14.0,0.0
26750,82.0,0,29,13.0,0.0
26751,57.0,0,29,15.0,0.0
26752,82.0,0,29,13.0,0.0
26753,73.0,30,29,13.0,0.0
26754,85.0,0,29,12.0,0.0
26755,76.0,0,29,14.0,0.0
26756,67.0,0,29,14.0,0.0
26757,45.0,0,29,7.0,0.0
26758,69.0,0,29,15.0,0.0
26759,76.0,0,29,12.0,0.0
26760,61.0,0,59,3.0,0.0
26761,64.0,0,59,3.0,0.0
26762,76.0,0,59,2.0,0.0
26763,82.0,0,59,1.0,0.0
26764,79.0,10,59,1.0,0.0
26765,79.0,0,59,2.0,0.0
26766,88.0,10,59,0.0,0.0
26767,91.0,0,59,0.0,0.0
26768,85.0,0,29,12.0,0.0
26769,57.0,0,29,15.0,0.0
26770,82.0,0,29,13.0,0.0
26771,69.0,0,29,15.0,0.0
26772,76.0,0,29,14.0,0.0
26773,67.0,0,29,14.0,0.0
26774,45.0,0,29,7.0,0.0
26775,73.0,10,29,13.0,0.0
26776,76.0,0,29,12.0,0.0
26777,45.0,0,29,7.0,0.0
26778,67.0,0,29,14.0,0.0
26779,76.0,0,29,14.0,0.0
26780,69.0,0,29,15.0,0.0
26781,76.0,0,29,12.0,0.0
26782,85.0,0,29,12.0,0.0
26783,57.0,0,29,15.0,0.0
26784,82.0,0,29,13.0,0.0
26785,73.0,0,29,13.0,0.0
26786,57.0,0,29,15.0,0.0
26787,76.0,0,59,2.0,0.0
26788,45.0,0,29,7.0,0.0
26789,45.0,0,479,6.0,0.0
26790,76.0,0,29,14.0,0.0
26791,67.0,0,29,14.0,0.0
26792,79.0,0,59,2.0,0.0
26793,82.0,0,59,1.0,0.0
26794,82.0,0,29,13.0,0.0
26795,79.0,0,59,1.0,0.0
26796,61.0,0,479,11.0,0.0
26797,76.0,0,29,12.0,0.0
26798,85.0,0,29,12.0,0.0
26799,64.0,0,59,3.0,0.0
26800,61.0,0,59,3.0,0.0
26801,76.0,0,239,10.0,0.0
26802,64.0,0,479,4.0,0.0
26803,57.0,0,479,4.0,0.0
26804,79.0,0,239,8.0,0.0
26805,73.0,0,29,13.0,0.0
26806,69.0,30,29,15.0,0.0
26807,57.0,0,479,11.0,0.0
26808,61.0,0,479,6.0,0.0
26809,57.0,0,479,6.0,0.0
26810,88.0,0,59,0.0,0.0
26811,91.0,20,59,0.0,0.0
26812,45.0,0,29,7.0,0.0
26813,82.0,0,29,13.0,0.0
26814,67.0,10,29,14.0,0.0
26815,76.0,0,29,12.0,0.0
26816,85.0,0,29,12.0,0.0
26817,57.0,0,29,15.0,0.0
26818,69.0,0,29,15.0,0.0
26819,76.0,0,29,14.0,0.0
26820,73.0,0,29,13.0,0.0
26821,82.0,0,29,13.0,0.0
26822,57.0,30,29,15.0,0.0
26823,69.0,0,29,15.0,0.0
26824,85.0,0,29,12.0,0.0
26825,76.0,0,29,12.0,0.0
26826,45.0,0,29,7.0,0.0
26827,73.0,0,29,13.0,0.0
26828,67.0,0,29,14.0,0.0
26829,76.0,0,29,14.0,0.0
26830,79.0,0,59,1.0,0.0
26831,82.0,0,59,1.0,0.0
26832,79.0,0,59,2.0,0.0
26833,64.0,0,59,3.0,0.0
26834,61.0,10,59,3.0,0.0
26835,76.0,0,59,2.0,0.0
26836,45.0,0,29,7.0,0.0
26837,69.0,0,29,15.0,0.0
26838,88.0,0,59,0.0,0.0
26839,85.0,0,29,12.0,0.0
26840,57.0,0,29,15.0,0.0
26841,76.0,0,29,12.0,0.0
26842,76.0,0,29,14.0,0.0
26843,82.0,20,29,13.0,0.0
26844,67.0,0,29,14.0,0.0
26845,73.0,0,29,13.0,0.0
26846,91.0,0,59,0.0,0.0
26847,76.0,0,29,14.0,0.0
26848,67.0,30,29,14.0,0.0
26849,69.0,0,29,15.0,0.0
26850,57.0,0,29,15.0,0.0
26851,76.0,0,29,12.0,0.0
26852,85.0,0,29,12.0,0.0
26853,73.0,0,29,13.0,0.0
26854,82.0,0,29,13.0,0.0
26855,45.0,0,29,7.0,0.0
26856,76.0,0,29,12.0,0.0
26857,85.0,0,29,12.0,0.0
26858,76.0,0,29,14.0,0.0
26859,67.0,0,29,14.0,0.0
26860,73.0,0,29,13.0,0.0
26861,69.0,0,29,15.0,0.0
26862,45.0,0,29,7.0,0.0
26863,57.0,0,29,15.0,0.0
26864,82.0,30,29,13.0,0.0
26865,64.0,0,59,3.0,0.0
26866,82.0,10,59,1.0,0.0
26867,61.0,0,59,3.0,0.0
26868,79.0,0,59,2.0,0.0
26869,76.0,0,59,2.0,0.0
26870,79.0,0,59,1.0,0.0
26871,91.0,10,59,0.0,0.0
26872,88.0,0,59,0.0,0.0
26873,76.0,0,29,14.0,0.0
26874,67.0,0,29,14.0,0.0
26875,85.0,10,29,12.0,0.0
26876,45.0,0,29,7.0,0.0
26877,82.0,0,29,13.0,0.0
26878,57.0,0,29,15.0,0.0
26879,73.0,0,29,13.0,0.0
26880,69.0,0,29,15.0,0.0
26881,76.0,0,29,12.0,0.0
26882,57.0,0,29,15.0,0.0
26883,69.0,0,29,15.0,0.0
26884,76.0,0,29,14.0,0.0
26885,67.0,0,29,14.0,0.0
26886,82.0,0,29,13.0,0.0
26887,85.0,0,29,12.0,0.0
26888,73.0,30,29,13.0,0.0
26889,45.0,0,29,7.0,0.0
26890,76.0,0,29,12.0,0.0
26891,91.0,0,59,0.0,0.0
26892,57.0,0,29,15.0,0.0
26893,69.0,0,29,15.0,0.0
26894,45.0,0,29,7.0,0.0
26895,79.0,0,59,2.0,0.0
26896,85.0,0,29,12.0,0.0
26897,76.0,0,29,12.0,0.0
26898,76.0,0,59,2.0,0.0
26899,64.0,0,59,3.0,0.0
26900,76.0,0,479,10.0,0.0
26901,88.0,0,59,0.0,0.0
26902,82.0,0,29,13.0,0.0
26903,73.0,0,29,13.0,0.0
26904,79.0,0,479,8.0,0.0
26905,79.0,0,59,1.0,0.0
26906,82.0,0,59,1.0,0.0
26907,76.0,0,29,14.0,0.0
26908,61.0,0,59,3.0,0.0
26909,67.0,30,29,14.0,0.0
26910,67.0,0,29,14.0,0.0
26911,76.0,0,29,14.0,0.0
26912,85.0,30,29,12.0,0.0
26913,45.0,0,29,7.0,0.0
26914,76.0,0,29,12.0,0.0
26915,82.0,0,29,13.0,0.0
26916,57.0,0,29,15.0,0.0
26917,69.0,0,29,15.0,0.0
26918,73.0,0,29,13.0,0.0
26919,82.0,0,29,13.0,0.0
26920,73.0,0,29,13.0,0.0
26921,57.0,0,29,15.0,0.0
26922,76.0,0,29,12.0,0.0
26923,85.0,0,29,12.0,0.0
26924,69.0,0,29,15.0,0.0
26925,67.0,0,29,14.0,0.0
26926,76.0,0,29,14.0,0.0
26927,45.0,30,29,7.0,0.0
26928,76.0,0,59,2.0,0.0
26929,88.0,10,59,0.0,0.0
26930,91.0,0,59,0.0,0.0
26931,64.0,0,59,3.0,0.0
26932,61.0,0,59,3.0,0.0
26933,79.0,0,59,1.0,0.0
26934,82.0,0,59,1.0,0.0
26935,79.0,0,59,2.0,0.0
26936,69.0,0,29,15.0,0.0
26937,67.0,0,29,14.0,0.0
26938,82.0,20,29,13.0,0.0
26939,73.0,0,29,13.0,0.0
26940,76.0,0,29,12.0,0.0
26941,85.0,0,29,12.0,0.0
26942,45.0,0,29,7.0,0.0
26943,57.0,0,29,15.0,0.0
26944,76.0,0,29,14.0,0.0
26945,73.0,0,29,13.0,0.0
26946,85.0,0,29,12.0,0.0
26947,76.0,0,29,12.0,0.0
26948,67.0,0,29,14.0,0.0
26949,82.0,30,29,13.0,0.0
26950,76.0,0,29,14.0,0.0
26951,69.0,0,29,15.0,0.0
26952,45.0,0,29,7.0,0.0
26953,57.0,0,29,15.0,0.0
26954,82.0,0,29,13.0,0.0
26955,76.0,0,29,14.0,0.0
26956,85.0,0,29,12.0,0.0
26957,45.0,0,29,7.0,0.0
26958,69.0,0,29,15.0,0.0
26959,73.0,0,29,13.0,0.0
26960,57.0,30,29,15.0,0.0
26961,76.0,0,29,12.0,0.0
26962,67.0,0,29,14.0,0.0
26963,91.0,0,59,0.0,0.0
26964,88.0,0,59,0.0,0.0
26965,61.0,0,59,3.0,0.0
26966,64.0,0,59,3.0,0.0
26967,76.0,20,59,2.0,0.0
26968,79.0,0,59,2.0,0.0
26969,82.0,0,59,1.0,0.0
26970,79.0,0,59,1.0,0.0
26971,76.0,0,29,14.0,0.0
26972,67.0,0,29,14.0,0.0
26973,69.0,0,29,15.0,0.0
26974,85.0,0,29,12.0,0.0
26975,73.0,0,29,13.0,0.0
26976,57.0,0,29,15.0,0.0
26977,76.0,0,29,12.0,0.0
26978,82.0,10,29,13.0,0.0
26979,45.0,0,29,7.0,0.0
26980,76.0,0,29,12.0,0.0
26981,69.0,0,29,15.0,0.0
26982,85.0,0,29,12.0,0.0
26983,82.0,0,29,13.0,0.0
26984,73.0,30,29,13.0,0.0
26985,45.0,0,29,7.0,0.0
26986,76.0,0,29,14.0,0.0
26987,67.0,0,29,14.0,0.0
26988,57.0,0,29,15.0,0.0
26989,57.0,0,239,4.0,0.0
26990,64.0,0,239,4.0,0.0
26991,76.0,0,59,2.0,0.0
26992,61.0,0,239,11.0,0.0
26993,45.0,0,29,7.0,0.0
26994,79.0,0,59,2.0,0.0
26995,57.0,0,239,6.0,0.0
26996,61.0,30,239,6.0,0.0
26997,76.0,30,29,14.0,0.0
26998,67.0,0,29,14.0,0.0
26999,61.0,0,59,3.0,0.0
27000,64.0,0,59,3.0,0.0
27001,73.0,0,29,13.0,0.0
27002,57.0,0,29,15.0,0.0
27003,91.0,0,59,0.0,0.0
27004,88.0,30,59,0.0,0.0
27005,82.0,0,59,1.0,0.0
27006,69.0,0,29,15.0,0.0
27007,45.0,0,239,6.0,0.0
27008,85.0,0,29,12.0,0.0
27009,76.0,0,29,12.0,0.0
27010,79.0,0,59,1.0,0.0
27011,57.0,0,239,11.0,0.0
27012,82.0,0,29,13.0,0.0
27013,73.0,0,29,13.0,0.0
27014,67.0,0,29,14.0,0.0
27015,76.0,0,29,14.0,0.0
27016,76.0,0,29,12.0,0.0
27017,45.0,0,29,7.0,0.0
27018,82.0,0,29,13.0,0.0
27019,69.0,0,29,15.0,0.0
27020,57.0,0,29,15.0,0.0
27021,85.0,0,29,12.0,0.0
27022,45.0,0,29,7.0,0.0
27023,85.0,0,29,12.0,0.0
27024,76.0,0,29,12.0,0.0
27025,73.0,0,29,13.0,0.0
27026,57.0,30,29,15.0,0.0
27027,69.0,0,29,15.0,0.0
27028,67.0,0,29,14.0,0.0
27029,82.0,0,29,13.0,0.0
27030,76.0,0,29,14.0,0.0
27031,79.0,10,59,1.0,0.0
27032,64.0,0,59,3.0,0.0
27033,61.0,0,59,3.0,0.0
27034,82.0,0,59,1.0,0.0
27035,79.0,0,59,2.0,0.0
27036,76.0,0,59,2.0,0.0
27037,91.0,0,59,0.0,0.0
27038,88.0,0,59,0.0,0.0
27039,73.0,0,29,13.0,0.0
27040,82.0,0,29,13.0,0.0
27041,45.0,0,29,7.0,0.0
27042,76.0,0,29,12.0,0.0
27043,69.0,0,29,15.0,0.0
27044,85.0,0,29,12.0,0.0
27045,57.0,0,29,15.0,0.0
27046,67.0,0,29,14.0,0.0
27047,76.0,20,29,14.0,0.0
27048,85.0,0,29,12.0,0.0
27049,67.0,0,29,14.0,0.0
27050,76.0,0,29,12.0,0.0
27051,45.0,0,29,7.0,0.0
27052,73.0,0,29,13.0,0.0
27053,76.0,0,29,14.0,0.0
27054,57.0,0,29,15.0,0.0
27055,69.0,0,29,15.0,0.0
27056,82.0,30,29,13.0,0.0
27057,57.0,0,29,15.0,0.0
27058,67.0,0,29,14.0,0.0
27059,73.0,0,29,13.0,0.0
27060,76.0,30,29,12.0,0.0
27061,85.0,0,29,12.0,0.0
27062,76.0,0,29,14.0,0.0
27063,69.0,0,29,15.0,0.0
27064,82.0,0,29,13.0,0.0
27065,45.0,0,29,7.0,0.0
27066,91.0,0,59,0.0,0.0
27067,76.0,0,59,2.0,0.0
27068,64.0,0,59,3.0,0.0
27069,79.0,0,59,1.0,0.0
27070,82.0,20,59,1.0,0.0
27071,79.0,0,59,2.0,0.0
27072,88.0,0,59,0.0,0.0
27073,61.0,0,59,3.0,0.0
27074,57.0,0,29,15.0,0.0
27075,82.0,10,29,13.0,0.0
27076,69.0,0,29,15.0,0.0
27077,76.0,0,29,14.0,0.0
27078,85.0,0,29,12.0,0.0
27079,45.0,0,29,7.0,0.0
27080,73.0,0,29,13.0,0.0
27081,67.0,0,29,14.0,0.0
27082,76.0,0,29,12.0,0.0
27083,67.0,0,29,14.0,0.0
27084,76.0,0,29,14.0,0.0
27085,69.0,0,29,15.0,0.0
27086,57.0,0,29,15.0,0.0
27087,45.0,0,29,7.0,0.0
27088,73.0,0,29,13.0,0.0
27089,85.0,0,29,12.0,0.0
27090,82.0,0,29,13.0,0.0
27091,76.0,0,29,12.0,0.0
27092,61.0,0,239,6.0,0.0
27093,45.0,0,29,7.0,0.0
27094,79.0,0,59,1.0,0.0
27095,57.0,0,29,15.0,0.0
27096,61.0,0,59,3.0,0.0
27097,64.0,0,59,3.0,0.0
27098,91.0,0,59,0.0,0.0
27099,88.0,0,59,0.0,0.0
27100,45.0,0,239,6.0,0.0
27101,76.0,0,29,12.0,0.0
27102,57.0,0,239,11.0,0.0
27103,57.0,0,239,6.0,0.0
27104,82.0,0,29,13.0,0.0
27105,73.0,0,29,13.0,0.0
27106,67.0,30,29,14.0,0.0
27107,85.0,0,29,12.0,0.0
27108,76.0,0,29,14.0,0.0
27109,79.0,0,1199,8.0,0.0
27110,61.0,0,239,11.0,0.0
27111,69.0,0,29,15.0,0.0
27112,76.0,0,1199,10.0,0.0
27113,64.0,0,239,4.0,0.0
27114,82.0,0,59,1.0,0.0
27115,57.0,0,239,4.0,0.0
27116,79.0,25,59,2.0,0.0
27117,76.0,0,59,2.0,0.0
27118,82.0,0,29,13.0,0.0
27119,69.0,0,29,15.0,0.0
27120,73.0,0,29,13.0,0.0
27121,57.0,0,29,15.0,0.0
27122,67.0,0,29,14.0,0.0
27123,45.0,5,29,7.0,0.0
27124,76.0,0,29,14.0,0.0
27125,76.0,0,29,12.0,0.0
27126,85.0,0,29,12.0,0.0
27127,45.0,0,29,7.0,0.0
27128,82.0,0,29,13.0,0.0
27129,73.0,0,29,13.0,0.0
27130,67.0,0,29,14.0,0.0
27131,69.0,0,29,15.0,0.0
27132,85.0,30,29,12.0,0.0
27133,76.0,0,29,14.0,0.0
27134,76.0,0,29,12.0,0.0
27135,57.0,0,29,15.0,0.0
27136,82.0,0,59,1.0,0.0
27137,79.0,0,59,1.0,0.0
27138,88.0,0,59,0.0,0.0
27139,91.0,0,59,0.0,0.0
27140,64.0,5,59,3.0,0.0
27141,61.0,0,59,3.0,0.0
27142,79.0,5,59,2.0,0.0
27143,76.0,0,59,2.0,0.0
27144,69.0,0,29,15.0,0.0
27145,76.0,0,29,12.0,0.0
27146,76.0,0,29,14.0,0.0
27147,73.0,20,29,13.0,0.0
27148,67.0,0,29,14.0,0.0
27149,45.0,0,29,7.0,0.0
27150,57.0,0,29,15.0,0.0
27151,85.0,0,29,12.0,0.0
27152,82.0,0,29,13.0,0.0
27153,76.0,0,29,12.0,0.0
27154,85.0,0,29,12.0,0.0
27155,76.0,0,29,14.0,0.0
27156,67.0,0,29,14.0,0.0
27157,82.0,0,29,13.0,0.0
27158,57.0,0,29,15.0,0.0
27159,45.0,0,29,7.0,0.0
27160,73.0,0,29,13.0,0.0
27161,69.0,0,29,15.0,0.0
27162,73.0,0,29,13.0,0.0
27163,76.0,0,29,14.0,0.0
27164,76.0,0,29,12.0,0.0
27165,67.0,0,29,14.0,0.0
27166,85.0,0,29,12.0,0.0
27167,82.0,0,29,13.0,0.0
27168,69.0,0,29,15.0,0.0
27169,45.0,0,29,7.0,0.0
27170,57.0,30,29,15.0,0.0
27171,82.0,0,59,1.0,0.0
27172,64.0,0,59,3.0,0.0
27173,91.0,0,59,0.0,0.0
27174,61.0,5,59,3.0,0.0
27175,88.0,0,59,0.0,0.0
27176,79.0,0,59,1.0,0.0
27177,76.0,15,59,2.0,0.0
27178,79.0,0,59,2.0,0.0
27179,76.0,0,29,14.0,0.0
27180,85.0,0,29,12.0,0.0
27181,76.0,0,29,12.0,0.0
27182,45.0,0,29,7.0,0.0
27183,57.0,0,29,15.0,0.0
27184,82.0,0,29,13.0,0.0
27185,73.0,10,29,13.0,0.0
27186,69.0,0,29,15.0,0.0
27187,67.0,0,29,14.0,0.0
27188,85.0,30,29,12.0,0.0
27189,76.0,0,29,14.0,0.0
27190,67.0,0,29,14.0,0.0
27191,57.0,0,29,15.0,0.0
27192,69.0,0,29,15.0,0.0
27193,76.0,0,29,12.0,0.0
27194,45.0,0,29,7.0,0.0
27195,82.0,0,29,13.0,0.0
27196,73.0,0,29,13.0,0.0
27197,88.0,10,59,0.0,0.0
27198,91.0,0,59,0.0,0.0
27199,57.0,0,479,11.0,0.0
27200,61.0,0,479,6.0,0.0
27201,57.0,0,479,6.0,0.0
27202,57.0,0,479,4.0,0.0
27203,64.0,0,479,4.0,0.0
27204,85.0,0,29,12.0,0.0
27205,76.0,0,29,12.0,0.0
27206,57.0,0,29,15.0,0.0
27207,73.0,0,29,13.0,0.0
27208,45.0,0,479,6.0,0.0
27209,82.0,0,29,13.0,0.0
27210,82.0,0,59,1.0,0.0
27211,79.0,0,59,1.0,0.0
27212,61.0,0,479,11.0,0.0
27213,64.0,0,59,3.0,0.0
27214,61.0,0,59,3.0,0.0
27215,69.0,20,29,15.0,0.0
27216,76.0,0,29,14.0,0.0
27217,67.0,0,29,14.0,0.0
27218,79.0,0,59,2.0,0.0
27219,45.0,0,29,7.0,0.0
27220,76.0,0,59,2.0,0.0
27221,69.0,0,29,15.0,0.0
27222,82.0,30,29,13.0,0.0
27223,57.0,0,29,15.0,0.0
27224,73.0,0,29,13.0,0.0
27225,85.0,0,29,12.0,0.0
27226,76.0,0,29,12.0,0.0
27227,45.0,0,29,7.0,0.0
27228,67.0,0,29,14.0,0.0
27229,76.0,0,29,14.0,0.0
27230,82.0,0,29,13.0,0.0
27231,69.0,0,29,15.0,0.0
27232,67.0,0,29,14.0,0.0
27233,45.0,0,29,7.0,0.0
27234,76.0,0,29,12.0,0.0
27235,57.0,0,29,15.0,0.0
27236,85.0,0,29,12.0,0.0
27237,73.0,0,29,13.0,0.0
27238,76.0,30,29,14.0,0.0
27239,91.0,0,59,0.0,0.0
27240,88.0,10,59,0.0,0.0
27241,76.0,0,59,2.0,0.0
27242,79.0,0,59,2.0,0.0
27243,61.0,10,59,3.0,0.0
27244,64.0,0,59,3.0,0.0
27245,79.0,0,59,1.0,0.0
27246,82.0,0,59,1.0,0.0
27247,69.0,0,29,15.0,0.0
27248,76.0,0,29,12.0,0.0
27249,76.0,0,29,14.0,0.0
27250,67.0,0,29,14.0,0.0
27251,85.0,0,29,12.0,0.0
27252,57.0,10,29,15.0,0.0
27253,82.0,0,29,13.0,0.0
27254,45.0,0,29,7.0,0.0
27255,73.0,0,29,13.0,0.0
27256,85.0,0,29,12.0,0.0
27257,69.0,0,29,15.0,0.0
27258,45.0,0,29,7.0,0.0
27259,67.0,0,29,14.0,0.0
27260,76.0,0,29,12.0,0.0
27261,73.0,30,29,13.0,0.0
27262,57.0,0,29,15.0,0.0
27263,76.0,0,29,14.0,0.0
27264,82.0,0,29,13.0,0.0
27265,76.0,0,29,12.0,0.0
27266,76.0,0,29,14.0,0.0
27267,67.0,30,29,14.0,0.0
27268,57.0,0,29,15.0,0.0
27269,69.0,0,29,15.0,0.0
27270,88.0,0,59,0.0,0.0
27271,82.0,0,29,13.0,0.0
27272,73.0,0,29,13.0,0.0
27273,91.0,10,59,0.0,0.0
27274,85.0,0,29,12.0,0.0
27275,45.0,0,29,7.0,0.0
27276,64.0,0,59,3.0,0.0
27277,79.0,0,59,2.0,0.0
27278,82.0,0,59,1.0,0.0
27279,79.0,20,59,1.0,0.0
27280,61.0,0,59,3.0,0.0
27281,76.0,0,59,2.0,0.0
27282,57.0,0,29,15.0,0.0
27283,76.0,0,29,14.0,0.0
27284,67.0,0,29,14.0,0.0
27285,85.0,0,29,12.0,0.0
27286,76.0,0,29,12.0,0.0
27287,69.0,0,29,15.0,0.0
27288,45.0,0,29,7.0,0.0
27289,73.0,0,29,13.0,0.0
27290,82.0,0,29,13.0,0.0
27291,45.0,0,29,7.0,0.0
27292,82.0,0,29,13.0,0.0
27293,67.0,0,29,14.0,0.0
27294,76.0,0,29,14.0,0.0
27295,69.0,30,29,15.0,0.0
27296,57.0,0,29,15.0,0.0
27297,85.0,0,29,12.0,0.0
27298,76.0,0,29,12.0,0.0
27299,73.0,0,29,13.0,0.0
27300,91.0,0,59,0.0,0.0
27301,88.0,10,59,0.0,0.0
27302,45.0,0,29,7.0,0.0
27303,76.0,20,29,14.0,0.0
27304,67.0,0,29,14.0,0.0
27305,64.0,0,59,3.0,0.0
27306,57.0,0,29,15.0,0.0
27307,82.0,0,59,1.0,0.0
27308,79.0,0,59,1.0,0.0
27309,61.0,0,59,3.0,0.0
27310,82.0,0,29,13.0,0.0
27311,69.0,0,29,15.0,0.0
27312,79.0,0,59,2.0,0.0
27313,76.0,0,29,12.0,0.0
27314,76.0,0,59,2.0,0.0
27315,85.0,0,29,12.0,0.0
27316,73.0,0,29,13.0,0.0
27317,69.0,0,29,15.0,0.0
27318,57.0,0,29,15.0,0.0
27319,85.0,0,29,12.0,0.0
27320,76.0,0,29,12.0,0.0
27321,67.0,0,29,14.0,0.0
27322,76.0,0,29,14.0,0.0
27323,45.0,0,29,7.0,0.0
27324,82.0,30,29,13.0,0.0
27325,73.0,0,29,13.0,0.0
27326,76.0,0,29,12.0,0.0
27327,85.0,0,29,12.0,0.0
27328,57.0,0,29,15.0,0.0
27329,76.0,0,29,14.0,0.0
27330,82.0,30,29,13.0,0.0
27331,67.0,0,29,14.0,0.0
27332,69.0,0,29,15.0,0.0
27333,45.0,0,29,7.0,0.0
27334,73.0,0,29,13.0,0.0
27335,88.0,0,59,0.0,0.0
27336,91.0,10,59,0.0,0.0
27337,79.0,0,59,1.0,0.0
27338,82.0,0,59,1.0,0.0
27339,61.0,0,59,3.0,0.0
27340,64.0,10,59,3.0,0.0
27341,76.0,0,59,2.0,0.0
27342,79.0,0,59,2.0,0.0
27343,67.0,0,29,14.0,0.0
27344,76.0,0,29,14.0,0.0
27345,69.0,0,29,15.0,0.0
27346,85.0,0,29,12.0,0.0
27347,73.0,0,29,13.0,0.0
27348,82.0,0,29,13.0,0.0
27349,57.0,0,29,15.0,0.0
27350,76.0,10,29,12.0,0.0
27351,45.0,0,29,7.0,0.0
27352,82.0,0,29,13.0,0.0
27353,67.0,0,29,14.0,0.0
27354,76.0,0,29,14.0,0.0
27355,76.0,0,29,12.0,0.0
27356,85.0,0,29,12.0,0.0
27357,45.0,0,29,7.0,0.0
27358,69.0,30,29,15.0,0.0
27359,57.0,0,29,15.0,0.0
27360,73.0,0,29,13.0,0.0
27361,91.0,0,59,0.0,0.0
27362,85.0,0,29,12.0,0.0
27363,69.0,0,29,15.0,0.0
27364,76.0,0,29,12.0,0.0
27365,76.0,0,29,14.0,0.0
27366,67.0,0,29,14.0,0.0
27367,88.0,0,59,0.0,0.0
27368,45.0,0,29,7.0,0.0
27369,73.0,0,29,13.0,0.0
27370,82.0,0,29,13.0,0.0
27371,57.0,30,29,15.0,0.0
27372,61.0,0,59,3.0,0.0
27373,82.0,0,59,1.0,0.0
27374,79.0,0,59,1.0,0.0
27375,64.0,20,59,3.0,0.0
27376,79.0,0,59,2.0,0.0
27377,76.0,0,59,2.0,0.0
27378,57.0,0,29,15.0,0.0
27379,82.0,0,29,13.0,0.0
27380,73.0,0,29,13.0,0.0
27381,67.0,0,29,14.0,0.0
27382,76.0,0,29,14.0,0.0
27383,76.0,0,29,12.0,0.0
27384,85.0,10,29,12.0,0.0
27385,69.0,0,29,15.0,0.0
27386,45.0,0,29,7.0,0.0
27387,69.0,0,29,15.0,0.0
27388,85.0,30,29,12.0,0.0
27389,76.0,0,29,14.0,0.0
27390,73.0,0,29,13.0,0.0
27391,82.0,0,29,13.0,0.0
27392,76.0,0,29,12.0,0.0
27393,57.0,0,29,15.0,0.0
27394,67.0,0,29,14.0,0.0
27395,45.0,0,29,7.0,0.0
27396,85.0,0,29,12.0,0.0
27397,67.0,0,29,14.0,0.0
27398,76.0,30,29,14.0,0.0
27399,76.0,0,29,12.0,0.0
27400,76.0,0,59,2.0,0.0
27401,79.0,30,59,2.0,0.0
27402,57.0,0,29,15.0,0.0
27403,45.0,0,29,7.0,0.0
27404,88.0,0,59,0.0,0.0
27405,61.0,0,479,11.0,0.0
27406,57.0,0,479,11.0,0.0
27407,91.0,0,59,0.0,0.0
27408,64.0,0,59,3.0,0.0
27409,82.0,0,29,13.0,0.0
27410,73.0,0,29,13.0,0.0
27411,45.0,0,479,6.0,0.0
27412,61.0,0,59,3.0,0.0
27413,79.0,0,59,1.0,0.0
27414,57.0,0,479,6.0,0.0
27415,61.0,0,479,6.0,0.0
27416,82.0,0,59,1.0,0.0
27417,57.0,30,479,4.0,0.0
27418,64.0,0,479,4.0,0.0
27419,69.0,0,29,15.0,0.0
27420,69.0,0,29,15.0,0.0
27421,57.0,0,29,15.0,0.0
27422,76.0,0,29,12.0,0.0
27423,85.0,0,29,12.0,0.0
27424,45.0,0,29,7.0,0.0
27425,82.0,0,29,13.0,0.0
27426,73.0,0,29,13.0,0.0
27427,76.0,0,29,14.0,0.0
27428,67.0,0,29,14.0,0.0
27429,45.0,0,29,7.0,0.0
27430,57.0,0,29,15.0,0.0
27431,69.0,0,29,15.0,0.0
27432,76.0,0,29,12.0,0.0
27433,85.0,0,29,12.0,0.0
27434,67.0,0,29,14.0,0.0
27435,76.0,0,29,14.0,0.0
27436,73.0,0,29,13.0,0.0
27437,82.0,30,29,13.0,0.0
27438,61.0,0,59,3.0,0.0
27439,82.0,0,59,1.0,0.0
27440,76.0,0,59,2.0,0.0
27441,91.0,10,59,0.0,0.0
27442,79.0,0,59,2.0,0.0
27443,64.0,0,59,3.0,0.0
27444,88.0,0,59,0.0,0.0
27445,79.0,0,59,1.0,0.0
27446,76.0,0,29,14.0,0.0
27447,69.0,0,29,15.0,0.0
27448,67.0,0,29,14.0,0.0
27449,45.0,0,29,7.0,0.0
27450,57.0,0,29,15.0,0.0
27451,76.0,20,29,12.0,0.0
27452,85.0,0,29,12.0,0.0
27453,82.0,0,29,13.0,0.0
27454,73.0,0,29,13.0,0.0
27455,57.0,0,29,15.0,0.0
27456,76.0,0,29,14.0,0.0
27457,73.0,30,29,13.0,0.0
27458,67.0,0,29,14.0,0.0
27459,82.0,0,29,13.0,0.0
27460,76.0,0,29,12.0,0.0
27461,45.0,0,29,7.0,0.0
27462,85.0,0,29,12.0,0.0
27463,69.0,0,29,15.0,0.0
27464,82.0,0,29,13.0,0.0
27465,73.0,0,29,13.0,0.0
27466,67.0,0,29,14.0,0.0
27467,57.0,30,29,15.0,0.0
27468,45.0,0,29,7.0,0.0
27469,69.0,0,29,15.0,0.0
27470,85.0,0,29,12.0,0.0
27471,76.0,0,29,12.0,0.0
27472,76.0,0,29,14.0,0.0
27473,64.0,0,59,3.0,0.0
27474,88.0,0,59,0.0,0.0
27475,91.0,20,59,0.0,0.0
27476,82.0,0,59,1.0,0.0
27477,79.0,0,59,1.0,0.0
27478,79.0,0,59,2.0,0.0
27479,76.0,0,59,2.0,0.0
27480,61.0,0,59,3.0,0.0
27481,67.0,0,29,14.0,0.0
27482,69.0,10,29,15.0,0.0
27483,76.0,0,29,12.0,0.0
27484,85.0,0,29,12.0,0.0
27485,45.0,0,29,7.0,0.0
27486,82.0,0,29,13.0,0.0
27487,57.0,0,29,15.0,0.0
27488,73.0,0,29,13.0,0.0
27489,76.0,0,29,14.0,0.0
27490,67.0,30,29,14.0,0.0
27491,76.0,0,29,14.0,0.0
27492,69.0,0,29,15.0,0.0
27493,45.0,0,29,7.0,0.0
27494,76.0,0,29,12.0,0.0
27495,85.0,0,29,12.0,0.0
27496,82.0,0,29,13.0,0.0
27497,73.0,0,29,13.0,0.0
27498,57.0,0,29,15.0,0.0
27499,76.0,0,59,2.0,0.0
27500,82.0,0,59,1.0,0.0
27501,79.0,0,59,2.0,0.0
27502,73.0,30,29,13.0,0.0
27503,69.0,0,29,15.0,0.0
27504,64.0,0,59,3.0,0.0
27505,45.0,0,29,7.0,0.0
27506,61.0,0,59,3.0,0.0
27507,91.0,0,59,0.0,0.0
27508,88.0,0,59,0.0,0.0
27509,79.0,0,59,1.0,0.0
27510,76.0,0,29,12.0,0.0
27511,82.0,0,29,13.0,0.0
27512,85.0,0,29,12.0,0.0
27513,57.0,0,29,15.0,0.0
27514,67.0,0,29,14.0,0.0
27515,76.0,0,29,14.0,0.0
27516,57.0,0,29,15.0,0.0
27517,76.0,0,29,14.0,0.0
27518,82.0,0,29,13.0,0.0
27519,76.0,0,29,12.0,0.0
27520,85.0,30,29,12.0,0.0
27521,69.0,0,29,15.0,0.0
27522,45.0,0,29,7.0,0.0
27523,67.0,0,29,14.0,0.0
27524,73.0,0,29,13.0,0.0
27525,73.0,0,29,13.0,0.0
27526,67.0,30,29,14.0,0.0
27527,76.0,0,29,12.0,0.0
27528,76.0,0,29,14.0,0.0
27529,85.0,0,29,12.0,0.0
27530,69.0,0,29,15.0,0.0
27531,82.0,0,29,13.0,0.0
27532,57.0,0,29,15.0,0.0
27533,45.0,0,29,7.0,0.0
27534,88.0,0,59,0.0,0.0
27535,79.0,0,59,1.0,0.0
27536,76.0,0,59,2.0,0.0
27537,79.0,0,59,2.0,0.0
27538,61.0,0,59,3.0,0.0
27539,64.0,0,59,3.0,0.0
27540,82.0,0,59,1.0,0.0
27541,91.0,10,59,0.0,0.0
27542,76.0,0,29,14.0,0.0
27543,67.0,0,29,14.0,0.0
27544,73.0,0,29,13.0,0.0
27545,57.0,0,29,15.0,0.0
27546,82.0,0,29,13.0,0.0
27547,45.0,0,29,7.0,0.0
27548,69.0,0,29,15.0,0.0
27549,76.0,20,29,12.0,0.0
27550,85.0,0,29,12.0,0.0
27551,82.0,0,29,13.0,0.0
27552,67.0,30,29,14.0,0.0
27553,76.0,0,29,12.0,0.0
27554,73.0,0,29,13.0,0.0
27555,85.0,0,29,12.0,0.0
27556,76.0,0,29,14.0,0.0
27557,45.0,0,29,7.0,0.0
27558,57.0,0,29,15.0,0.0
27559,69.0,0,29,15.0,0.0
27560,67.0,0,29,14.0,0.0
27561,57.0,0,29,15.0,0.0
27562,73.0,0,29,13.0,0.0
27563,76.0,0,29,14.0,0.0
27564,76.0,0,29,12.0,0.0
27565,85.0,0,29,12.0,0.0
27566,69.0,0,29,15.0,0.0
27567,45.0,0,29,7.0,0.0
27568,82.0,30,29,13.0,0.0
27569,91.0,0,59,0.0,0.0
27570,79.0,0,59,2.0,0.0
27571,76.0,0,59,2.0,0.0
27572,64.0,0,59,3.0,0.0
27573,61.0,20,59,3.0,0.0
27574,88.0,0,59,0.0,0.0
27575,79.0,0,59,1.0,0.0
27576,82.0,0,59,1.0,0.0
27577,85.0,0,29,12.0,0.0
27578,69.0,0,29,15.0,0.0
27579,76.0,10,29,14.0,0.0
27580,76.0,0,29,12.0,0.0
27581,57.0,0,29,15.0,0.0
27582,82.0,0,29,13.0,0.0
27583,67.0,0,29,14.0,0.0
27584,73.0,0,29,13.0,0.0
27585,45.0,0,29,7.0,0.0
27586,76.0,0,29,14.0,0.0
27587,76.0,0,29,12.0,0.0
27588,85.0,0,29,12.0,0.0
27589,45.0,0,29,7.0,0.0
27590,67.0,0,29,14.0,0.0
27591,82.0,0,29,13.0,0.0
27592,57.0,0,29,15.0,0.0
27593,73.0,0,29,13.0,0.0
27594,69.0,0,29,15.0,0.0
27595,45.0,0,239,6.0,0.0
27596,64.0,0,59,3.0,0.0
27597,76.0,0,29,14.0,0.0
27598,67.0,30,29,14.0,0.0
27599,79.0,0,59,1.0,0.0
27600,57.0,0,239,4.0,0.0
27601,76.0,0,239,10.0,0.0
27602,61.0,0,239,6.0,0.0
27603,82.0,0,59,1.0,0.0
27604,64.0,0,239,4.0,0.0
27605,69.0,0,29,15.0,0.0
27606,61.0,30,59,3.0,0.0
27607,57.0,0,29,15.0,0.0
27608,85.0,0,29,12.0,0.0
27609,76.0,0,29,12.0,0.0
27610,88.0,0,59,0.0,0.0
27611,91.0,0,59,0.0,0.0
27612,45.0,0,29,7.0,0.0
27613,79.0,0,239,8.0,0.0
27614,76.0,0,59,2.0,0.0
27615,57.0,0,239,6.0,0.0
27616,79.0,0,59,2.0,0.0
27617,61.0,780,239,11.0,0.0
27618,82.0,0,29,13.0,0.0
27619,73.0,0,29,13.0,0.0
27620,57.0,0,239,11.0,0.0
27621,57.0,0,29,15.0,0.0
27622,82.0,0,29,13.0,0.0
27623,73.0,0,29,13.0,0.0
27624,76.0,0,29,12.0,0.0
27625,85.0,0,29,12.0,0.0
27626,45.0,0,29,7.0,0.0
27627,69.0,0,29,15.0,0.0
27628,76.0,0,29,14.0,0.0
27629,67.0,0,29,14.0,0.0
27630,82.0,0,29,13.0,0.0
27631,73.0,0,29,13.0,0.0
27632,57.0,0,29,15.0,0.0
27633,69.0,0,29,15.0,0.0
27634,76.0,0,29,14.0,0.0
27635,45.0,0,29,7.0,0.0
27636,76.0,30,29,12.0,0.0
27637,67.0,0,29,14.0,0.0
27638,85.0,0,29,12.0,0.0
27639,91.0,0,59,0.0,0.0
27640,88.0,0,59,0.0,0.0
27641,79.0,0,59,2.0,0.0
27642,61.0,10,59,3.0,0.0
27643,64.0,0,59,3.0,0.0
27644,79.0,0,59,1.0,0.0
27645,82.0,0,59,1.0,0.0
27646,76.0,0,59,2.0,0.0
27647,76.0,0,29,12.0,0.0
27648,69.0,0,29,15.0,0.0
27649,85.0,0,29,12.0,0.0
27650,82.0,0,29,13.0,0.0
27651,73.0,0,29,13.0,0.0
27652,76.0,20,29,14.0,0.0
27653,67.0,0,29,14.0,0.0
27654,57.0,0,29,15.0,0.0
27655,45.0,0,29,7.0,0.0
27656,73.0,0,29,13.0,0.0
27657,82.0,0,29,13.0,0.0
27658,45.0,0,29,7.0,0.0
27659,67.0,0,29,14.0,0.0
27660,76.0,0,29,14.0,0.0
27661,69.0,30,29,15.0,0.0
27662,57.0,0,29,15.0,0.0
27663,85.0,0,29,12.0,0.0
27664,76.0,0,29,12.0,0.0
27665,57.0,0,29,15.0,0.0
27666,82.0,0,29,13.0,0.0
27667,73.0,30,29,13.0,0.0
27668,76.0,0,29,14.0,0.0
27669,69.0,0,29,15.0,0.0
27670,85.0,0,29,12.0,0.0
27671,76.0,0,29,12.0,0.0
27672,67.0,0,29,14.0,0.0
27673,45.0,0,29,7.0,0.0
27674,76.0,0,79,2.0,0.0
27675,79.0,0,79,2.0,0.0
27676,91.0,0,79,0.0,0.0
27677,88.0,0,79,0.0,0.0
27678,61.0,0,79,3.0,0.0
27679,79.0,0,79,1.0,0.0
27680,82.0,0,79,1.0,0.0
27681,64.0,0,79,3.0,0.0
27682,69.0,0,29,15.0,0.0
27683,57.0,0,29,15.0,0.0
27684,85.0,0,29,12.0,0.0
27685,82.0,0,29,13.0,0.0
27686,76.0,0,29,12.0,0.0
27687,45.0,0,29,7.0,0.0
27688,76.0,0,29,14.0,0.0
27689,67.0,30,29,14.0,0.0
27690,73.0,0,29,13.0,0.0
27691,85.0,0,29,12.0,0.0
27692,57.0,0,29,15.0,0.0
27693,45.0,0,29,7.0,0.0
27694,76.0,0,29,12.0,0.0
27695,67.0,0,29,14.0,0.0
27696,69.0,0,29,15.0,0.0
27697,76.0,0,29,14.0,0.0
27698,82.0,0,29,13.0,0.0
27699,73.0,0,29,13.0,0.0
27700,74.0,0,719,10.0,0.0
27701,74.0,0,719,13.0,0.0
27702,74.0,0,719,2.0,0.0
27703,74.0,60,719,5.0,0.0
27704,90.0,0,239,0.0,0.0
27705,78.0,0,239,8.0,0.0
27706,78.0,60,59,12.0,0.0
27707,78.0,0,239,1.0,0.0
27708,69.0,60,59,12.0,0.0
27709,71.0,60,59,12.0,0.0
27710,73.0,60,59,12.0,0.0
27711,90.0,0,119,0.0,0.0
27712,78.0,0,119,1.0,0.0
27713,78.0,15,104,8.0,0.0
27714,74.0,45,59,12.0,0.0
27715,76.0,0,59,12.0,0.0
27716,74.0,0,359,10.0,0.0
27717,74.0,0,359,2.0,0.0
27718,91.0,0,239,0.0,0.0
27719,74.0,0,359,5.0,0.0
27720,78.0,60,59,12.0,0.0
27721,74.0,60,359,13.0,0.0
27722,79.0,0,239,1.0,0.0
27723,79.0,60,239,8.0,0.0
27724,76.0,60,59,12.0,0.0
27725,74.0,60,59,12.0,0.0
27726,76.0,0,59,12.0,0.0
27727,93.0,0,119,0.0,0.0
27728,81.0,0,119,8.0,0.0
27729,78.0,60,59,12.0,0.0
27730,81.0,0,119,1.0,0.0
27731,79.0,0,59,12.0,0.0
27732,73.0,0,359,13.0,0.0
27733,73.0,0,359,6.0,0.0
27734,81.0,0,239,8.0,0.0
27735,81.0,0,239,1.0,0.0
27736,73.0,0,359,10.0,0.0
27737,93.0,60,239,0.0,0.0
27738,81.0,60,59,12.0,0.0
27739,73.0,60,359,2.0,0.0
27740,83.0,60,59,12.0,0.0
27741,81.0,60,59,12.0,0.0
27742,79.0,0,59,12.0,0.0
27743,79.0,0,119,8.0,0.0
27744,91.0,0,119,0.0,0.0
27745,81.0,60,59,12.0,0.0
27746,79.0,0,119,1.0,0.0
27747,79.0,0,59,12.0,0.0
27748,69.0,0,359,13.0,0.0
27749,78.0,0,239,8.0,0.0
27750,69.0,0,359,10.0,0.0
27751,78.0,0,239,1.0,0.0
27752,69.0,0,359,2.0,0.0
27753,90.0,60,239,0.0,0.0
27754,69.0,0,359,5.0,0.0
27755,69.0,0,359,6.0,0.0
27756,78.0,60,59,12.0,0.0
27757,79.0,60,59,12.0,0.0
27758,78.0,60,59,12.0,0.0
27759,76.0,0,59,12.0,0.0
27760,76.0,0,119,1.0,0.0
27761,76.0,15,104,8.0,0.0
27762,78.0,45,59,12.0,0.0
27763,88.0,0,119,0.0,0.0
27764,76.0,60,59,12.0,0.0
27765,74.0,0,239,8.0,0.0
27766,74.0,0,239,1.0,0.0
27767,86.0,60,239,0.0,0.0
27768,71.0,0,359,2.0,0.0
27769,71.0,0,359,6.0,0.0
27770,71.0,0,359,10.0,0.0
27771,74.0,60,59,12.0,0.0
27772,71.0,0,359,13.0,0.0
27773,66.0,60,59,12.0,0.0
27774,67.0,60,59,12.0,0.0
27775,69.0,0,59,12.0,0.0
27776,71.0,60,59,12.0,0.0
27777,86.0,0,119,0.0,0.0
27778,74.0,60,119,1.0,0.0
27779,74.0,0,119,8.0,0.0
27780,73.0,0,59,12.0,0.0
27781,71.0,0,359,10.0,0.0
27782,88.0,0,239,0.0,0.0
27783,76.0,0,239,1.0,0.0
27784,76.0,60,239,8.0,0.0
27785,71.0,0,359,2.0,0.0
27786,71.0,0,359,13.0,0.0
27787,71.0,0,359,6.0,0.0
27788,74.0,60,59,12.0,0.0
27789,73.0,60,59,12.0,0.0
27790,71.0,60,59,12.0,0.0
27791,73.0,0,59,12.0,0.0
27792,90.0,0,119,0.0,0.0
27793,78.0,60,119,1.0,0.0
27794,74.0,60,59,12.0,0.0
27795,78.0,0,119,8.0,0.0
27796,76.0,0,59,12.0,0.0
27797,78.0,60,239,1.0,0.0
27798,69.0,0,359,13.0,0.0
27799,69.0,0,359,2.0,0.0
27800,69.0,60,359,6.0,0.0
27801,69.0,0,359,5.0,0.0
27802,78.0,0,239,8.0,0.0
27803,78.0,60,59,12.0,0.0
27804,69.0,0,359,10.0,0.0
27805,90.0,0,239,0.0,0.0
27806,79.0,60,59,12.0,0.0
27807,78.0,60,59,12.0,0.0
27808,76.0,0,59,12.0,0.0
27809,88.0,0,119,0.0,0.0
27810,76.0,0,119,8.0,0.0
27811,78.0,60,59,12.0,0.0
27812,76.0,0,119,1.0,0.0
27813,76.0,0,59,12.0,0.0
27814,66.0,60,359,5.0,0.0
27815,66.0,0,359,13.0,0.0
27816,66.0,0,359,2.0,0.0
27817,74.0,60,59,12.0,0.0
27818,66.0,0,344,10.0,0.0
27819,66.0,0,359,6.0,0.0
27820,74.0,60,239,8.0,0.0
27821,86.0,0,239,0.0,0.0
27822,74.0,0,239,1.0,0.0
27823,76.0,60,59,12.0,0.0
27824,74.0,60,59,12.0,0.0
27825,73.0,0,59,12.0,0.0
27826,73.0,0,119,1.0,0.0
27827,85.0,0,119,0.0,0.0
27828,74.0,45,59,12.0,0.0
27829,73.0,15,104,8.0,0.0
27830,73.0,0,59,12.0,0.0
27831,67.0,0,359,10.0,0.0
27832,71.0,0,239,8.0,0.0
27833,67.0,0,359,13.0,0.0
27834,71.0,60,59,12.0,0.0
27835,67.0,0,359,6.0,0.0
27836,83.0,0,239,0.0,0.0
27837,71.0,60,239,1.0,0.0
27838,67.0,0,359,2.0,0.0
27839,62.0,60,59,12.0,0.0
27840,64.0,60,59,12.0,0.0
27841,66.0,0,59,12.0,0.0
27842,71.0,0,119,1.0,0.0
27843,71.0,0,119,8.0,0.0
27844,83.0,0,119,0.0,0.0
27845,67.0,60,59,12.0,0.0
27846,69.0,60,59,12.0,0.0
27847,67.0,60,359,2.0,0.0
27848,67.0,0,359,6.0,0.0
27849,67.0,0,359,13.0,0.0
27850,85.0,0,239,0.0,0.0
27851,67.0,0,359,10.0,0.0
27852,73.0,60,239,8.0,0.0
27853,71.0,60,59,12.0,0.0
27854,73.0,0,239,1.0,0.0
27855,69.0,60,59,12.0,0.0
27856,67.0,60,59,12.0,0.0
27857,69.0,0,59,12.0,0.0
27858,74.0,0,119,8.0,0.0
27859,71.0,60,59,12.0,0.0
27860,86.0,0,119,0.0,0.0
27861,74.0,0,119,1.0,0.0
27862,73.0,0,59,12.0,0.0
27863,66.0,0,359,13.0,0.0
27864,74.0,0,239,1.0,0.0
27865,74.0,60,239,8.0,0.0
27866,66.0,0,359,5.0,0.0
27867,86.0,0,239,0.0,0.0
27868,66.0,0,359,10.0,0.0
27869,66.0,0,359,2.0,0.0
27870,66.0,0,359,6.0,0.0
27871,74.0,60,59,12.0,0.0
27872,76.0,60,59,12.0,0.0
27873,74.0,60,59,12.0,0.0
27874,73.0,0,59,12.0,0.0
27875,73.0,60,119,1.0,0.0
27876,74.0,60,59,12.0,0.0
27877,73.0,0,119,8.0,0.0
27878,85.0,0,119,0.0,0.0
27879,73.0,0,59,12.0,0.0
27880,62.0,0,359,2.0,0.0
27881,83.0,0,239,0.0,0.0
27882,62.0,0,359,5.0,0.0
27883,71.0,0,239,1.0,0.0
27884,62.0,0,359,10.0,0.0
27885,71.0,60,59,12.0,0.0
27886,62.0,0,359,13.0,0.0
27887,62.0,0,359,6.0,0.0
27888,71.0,60,239,8.0,0.0
27889,73.0,60,59,12.0,0.0
27890,71.0,60,59,12.0,0.0
27891,69.0,0,59,12.0,0.0
27892,69.0,15,104,8.0,0.0
27893,71.0,45,59,12.0,0.0
27894,81.0,0,119,0.0,0.0
27895,69.0,0,119,1.0,0.0
27896,69.0,60,59,12.0,0.0
27897,79.0,0,239,0.0,0.0
27898,71.0,0,359,10.0,0.0
27899,71.0,0,359,13.0,0.0
27900,71.0,0,359,2.0,0.0
27901,71.0,0,359,6.0,0.0
27902,67.0,0,239,8.0,0.0
27903,67.0,60,59,12.0,0.0
27904,67.0,0,239,1.0,0.0
27905,69.0,60,59,12.0,0.0
27906,67.0,60,59,12.0,0.0
27907,66.0,60,59,12.0,0.0
27908,66.0,0,119,1.0,0.0
27909,66.0,0,119,8.0,0.0
27910,78.0,0,119,0.0,0.0
27911,67.0,60,59,12.0,0.0
27912,66.0,60,59,12.0,0.0
27913,71.0,0,359,6.0,0.0
27914,64.0,60,59,12.0,0.0
27915,76.0,0,239,0.0,0.0
27916,71.0,0,359,13.0,0.0
27917,71.0,0,359,2.0,0.0
27918,64.0,0,239,1.0,0.0
27919,71.0,0,359,10.0,0.0
27920,64.0,60,239,8.0,0.0
27921,66.0,60,59,12.0,0.0
27922,64.0,60,59,12.0,0.0
27923,62.0,0,59,12.0,0.0
27924,64.0,60,59,12.0,0.0
27925,74.0,0,119,0.0,0.0
27926,62.0,0,119,8.0,0.0
27927,62.0,0,119,1.0,0.0
27928,62.0,60,59,12.0,0.0
27929,69.0,0,359,2.0,0.0
27930,69.0,0,359,5.0,0.0
27931,69.0,0,359,13.0,0.0
27932,69.0,0,239,1.0,0.0
27933,69.0,60,239,8.0,0.0
27934,69.0,15,344,10.0,0.0
27935,69.0,60,59,12.0,0.0
27936,81.0,0,239,0.0,0.0
27937,69.0,0,359,6.0,0.0
27938,68.0,60,59,12.0,0.0
27939,69.0,60,59,12.0,0.0
27940,71.0,0,59,12.0,0.0
27941,69.0,0,119,1.0,0.0
27942,73.0,45,59,12.0,0.0
27943,81.0,0,119,0.0,0.0
27944,69.0,60,119,8.0,0.0
27945,71.0,0,59,12.0,0.0
27946,69.0,0,719,4.0,0.0
27947,61.0,0,719,10.0,0.0
27948,69.0,0,719,3.0,0.0
27949,69.0,60,59,12.0,0.0
27950,69.0,0,719,11.0,0.0
27951,69.0,0,719,14.0,0.0
27952,69.0,0,239,1.0,0.0
27953,81.0,0,239,0.0,0.0
27954,69.0,0,359,15.0,0.0
27955,61.0,0,719,13.0,0.0
27956,61.0,0,719,2.0,0.0
27957,61.0,0,719,6.0,0.0
27958,69.0,0,719,6.0,0.0
27959,69.0,120,239,8.0,0.0
27960,73.0,60,59,12.0,0.0
27961,76.0,60,59,12.0,0.0
27962,68.0,0,59,12.0,0.0
27963,69.0,60,119,12.0,0.0
27964,61.0,0,239,11.0,0.0
27965,61.0,0,59,15.0,0.0
27966,49.0,0,59,3.0,0.0
27967,61.0,0,59,3.0,0.0
27968,49.0,60,59,15.0,0.0
27969,40.0,0,59,3.0,0.0
27970,52.0,0,59,15.0,0.0
27971,52.0,0,59,3.0,0.0
27972,40.0,60,59,15.0,0.0
27973,54.0,0,59,3.0,0.0
27974,42.0,0,59,3.0,0.0
27975,54.0,0,59,15.0,0.0
27976,42.0,60,59,15.0,0.0
27977,44.0,0,59,15.0,0.0
27978,56.0,0,59,15.0,0.0
27979,56.0,0,59,3.0,0.0
27980,44.0,60,59,3.0,0.0
27981,45.0,0,59,3.0,0.0
27982,57.0,0,59,3.0,0.0
27983,61.0,15,104,11.0,0.0
27984,57.0,0,59,15.0,0.0
27985,45.0,45,59,15.0,0.0
27986,59.0,60,59,15.0,0.0
27987,47.0,0,59,3.0,0.0
27988,47.0,0,59,15.0,0.0
27989,59.0,0,59,3.0,0.0
27990,61.0,0,359,2.0,0.0
27991,69.0,0,359,14.0,0.0
27992,49.0,0,59,3.0,0.0
27993,69.0,0,359,6.0,0.0
27994,61.0,0,359,10.0,0.0
27995,69.0,0,359,3.0,0.0
27996,61.0,0,359,6.0,0.0
27997,69.0,0,359,4.0,0.0
27998,61.0,0,59,3.0,0.0
27999,69.0,0,359,11.0,0.0
28000,62.0,0,239,11.0,0.0
28001,61.0,60,59,15.0,0.0
28002,49.0,0,59,15.0,0.0
28003,61.0,0,359,13.0,0.0
28004,47.0,60,59,15.0,0.0
28005,47.0,0,59,3.0,0.0
28006,59.0,0,59,15.0,0.0
28007,59.0,0,59,3.0,0.0
28008,45.0,60,59,3.0,0.0
28009,57.0,0,59,3.0,0.0
28010,45.0,0,59,15.0,0.0
28011,57.0,0,59,15.0,0.0
28012,59.0,60,59,15.0,0.0
28013,59.0,0,59,3.0,0.0
28014,47.0,0,59,3.0,0.0
28015,47.0,0,59,15.0,0.0
28016,49.0,0,59,15.0,0.0
28017,61.0,0,59,3.0,0.0
28018,49.0,0,59,3.0,0.0
28019,61.0,60,59,15.0,0.0
28020,64.0,0,119,11.0,0.0
28021,62.0,60,59,15.0,0.0
28022,50.0,0,59,3.0,0.0
28023,50.0,0,59,15.0,0.0
28024,62.0,0,59,3.0,0.0
28025,52.0,0,59,3.0,0.0
28026,76.0,0,239,1.0,0.0
28027,64.0,60,59,15.0,0.0
28028,68.0,0,359,14.0,0.0
28029,64.0,0,59,3.0,0.0
28030,68.0,0,359,3.0,0.0
28031,59.0,0,359,2.0,0.0
28032,59.0,0,359,10.0,0.0
28033,68.0,0,359,6.0,0.0
28034,59.0,0,359,6.0,0.0
28035,76.0,0,59,12.0,0.0
28036,59.0,60,359,13.0,0.0
28037,64.0,0,239,11.0,0.0
28038,88.0,60,239,0.0,0.0
28039,52.0,0,59,15.0,0.0
28040,68.0,0,359,11.0,0.0
28041,76.0,0,239,8.0,0.0
28042,66.0,60,59,3.0,0.0
28043,54.0,0,59,3.0,0.0
28044,66.0,0,59,15.0,0.0
28045,64.0,0,59,12.0,0.0
28046,54.0,0,59,15.0,0.0
28047,76.0,0,59,12.0,0.0
28048,64.0,0,59,15.0,0.0
28049,52.0,0,59,15.0,0.0
28050,52.0,60,59,3.0,0.0
28051,64.0,0,59,3.0,0.0
28052,50.0,0,59,15.0,0.0
28053,62.0,0,59,15.0,0.0
28054,76.0,0,59,12.0,0.0
28055,50.0,0,59,3.0,0.0
28056,62.0,0,59,3.0,0.0
28057,52.0,60,59,3.0,0.0
28058,76.0,0,119,1.0,0.0
28059,76.0,0,119,12.0,0.0
28060,64.0,0,59,15.0,0.0
28061,64.0,0,59,3.0,0.0
28062,76.0,0,119,8.0,0.0
28063,62.0,0,119,11.0,0.0
28064,52.0,0,59,15.0,0.0
28065,88.0,0,119,0.0,0.0
28066,50.0,0,59,15.0,0.0
28067,62.0,0,59,15.0,0.0
28068,50.0,0,59,3.0,0.0
28069,62.0,0,59,3.0,0.0
28070,57.0,0,239,6.0,0.0
28071,64.0,0,344,11.0,0.0
28072,49.0,0,59,15.0,0.0
28073,64.0,0,359,6.0,0.0
28074,57.0,0,239,2.0,0.0
28075,49.0,60,59,3.0,0.0
28076,64.0,0,359,3.0,0.0
28077,61.0,0,59,3.0,0.0
28078,61.0,0,239,11.0,0.0
28079,57.0,0,239,10.0,0.0
28080,64.0,0,359,4.0,0.0
28081,57.0,0,239,13.0,0.0
28082,64.0,0,359,14.0,0.0
28083,61.0,0,59,15.0,0.0
28084,62.0,0,59,3.0,0.0
28085,62.0,0,59,15.0,0.0
28086,50.0,60,59,15.0,0.0
28087,50.0,0,59,3.0,0.0
28088,49.0,0,59,15.0,0.0
28089,49.0,0,59,3.0,0.0
28090,61.0,60,59,15.0,0.0
28091,61.0,0,59,3.0,0.0
28092,47.0,0,59,3.0,0.0
28093,59.0,0,59,3.0,0.0
28094,47.0,60,59,15.0,0.0
28095,59.0,0,59,15.0,0.0
28096,56.0,0,119,6.0,0.0
28097,49.0,45,59,3.0,0.0
28098,56.0,0,119,2.0,0.0
28099,61.0,0,59,3.0,0.0
28100,61.0,0,59,15.0,0.0
28101,49.0,0,59,15.0,0.0
28102,56.0,0,119,13.0,0.0
28103,59.0,15,104,11.0,0.0
28104,56.0,0,104,10.0,0.0
28105,59.0,0,59,3.0,0.0
28106,47.0,60,59,3.0,0.0
28107,59.0,0,59,15.0,0.0
28108,47.0,0,59,15.0,0.0
28109,66.0,0,359,6.0,0.0
28110,57.0,0,239,11.0,0.0
28111,66.0,0,359,3.0,0.0
28112,57.0,60,59,3.0,0.0
28113,66.0,0,359,11.0,0.0
28114,62.0,60,359,6.0,0.0
28115,57.0,0,59,15.0,0.0
28116,45.0,0,59,15.0,0.0
28117,62.0,0,359,2.0,0.0
28118,45.0,60,119,7.0,0.0
28119,62.0,0,359,10.0,0.0
28120,66.0,0,359,14.0,0.0
28121,45.0,0,59,3.0,0.0
28122,62.0,0,359,13.0,0.0
28123,66.0,0,359,4.0,0.0
28124,69.0,0,119,5.0,0.0
28125,57.0,0,119,5.0,0.0
28126,37.0,0,59,15.0,0.0
28127,37.0,0,59,3.0,0.0
28128,49.0,0,59,15.0,0.0
28129,49.0,0,59,3.0,0.0
28130,50.0,60,59,15.0,0.0
28131,38.0,0,59,15.0,0.0
28132,38.0,0,59,3.0,0.0
28133,50.0,0,59,3.0,0.0
28134,40.0,0,59,3.0,0.0
28135,52.0,0,59,15.0,0.0
28136,52.0,0,59,3.0,0.0
28137,40.0,60,59,15.0,0.0
28138,57.0,0,119,11.0,0.0
28139,42.0,0,59,15.0,0.0
28140,42.0,0,59,3.0,0.0
28141,54.0,60,59,3.0,0.0
28142,54.0,0,59,15.0,0.0
28143,56.0,0,59,15.0,0.0
28144,44.0,0,59,3.0,0.0
28145,56.0,0,59,3.0,0.0
28146,44.0,0,59,15.0,0.0
28147,57.0,0,59,15.0,0.0
28148,66.0,0,359,3.0,0.0
28149,57.0,60,59,3.0,0.0
28150,45.0,0,59,3.0,0.0
28151,74.0,0,359,13.0,0.0
28152,66.0,0,359,14.0,0.0
28153,66.0,60,359,6.0,0.0
28154,45.0,0,59,15.0,0.0
28155,74.0,0,359,2.0,0.0
28156,66.0,0,359,11.0,0.0
28157,59.0,0,239,11.0,0.0
28158,74.0,0,359,10.0,0.0
28159,66.0,0,359,4.0,0.0
28160,44.0,0,59,3.0,0.0
28161,44.0,60,59,15.0,0.0
28162,56.0,0,59,15.0,0.0
28163,56.0,0,59,3.0,0.0
28164,42.0,0,59,3.0,0.0
28165,54.0,0,59,15.0,0.0
28166,54.0,0,59,3.0,0.0
28167,42.0,60,59,15.0,0.0
28168,44.0,0,59,15.0,0.0
28169,44.0,0,59,3.0,0.0
28170,56.0,60,59,3.0,0.0
28171,56.0,0,59,15.0,0.0
28172,61.0,0,119,11.0,0.0
28173,57.0,0,59,15.0,0.0
28174,45.0,60,59,3.0,0.0
28175,57.0,0,59,3.0,0.0
28176,45.0,0,59,15.0,0.0
28177,59.0,0,59,15.0,0.0
28178,47.0,0,59,15.0,0.0
28179,59.0,0,59,3.0,0.0
28180,47.0,0,59,3.0,0.0
28181,49.0,0,59,15.0,0.0
28182,93.0,60,239,0.0,0.0
28183,61.0,0,59,3.0,0.0
28184,64.0,0,359,11.0,0.0
28185,64.0,0,359,4.0,0.0
28186,81.0,0,239,1.0,0.0
28187,76.0,0,359,13.0,0.0
28188,49.0,0,59,3.0,0.0
28189,76.0,60,359,2.0,0.0
28190,64.0,0,359,3.0,0.0
28191,81.0,0,239,8.0,0.0
28192,64.0,0,359,6.0,0.0
28193,76.0,0,359,10.0,0.0
28194,61.0,0,239,11.0,0.0
28195,61.0,0,59,15.0,0.0
28196,64.0,0,359,14.0,0.0
28197,81.0,60,59,12.0,0.0
28198,62.0,0,59,15.0,0.0
28199,50.0,0,59,15.0,0.0
28200,69.0,0,59,12.0,0.0
28201,62.0,0,59,3.0,0.0
28202,50.0,60,59,3.0,0.0
28203,61.0,0,59,15.0,0.0
28204,49.0,60,59,15.0,0.0
28205,49.0,0,59,3.0,0.0
28206,61.0,0,59,3.0,0.0
28207,81.0,0,59,12.0,0.0
28208,81.0,0,59,12.0,0.0
28209,47.0,0,59,15.0,0.0
28210,47.0,0,59,3.0,0.0
28211,59.0,0,59,3.0,0.0
28212,59.0,0,59,15.0,0.0
28213,81.0,0,119,8.0,0.0
28214,81.0,0,119,1.0,0.0
28215,81.0,0,119,12.0,0.0
28216,61.0,0,59,3.0,0.0
28217,61.0,60,59,15.0,0.0
28218,49.0,0,59,15.0,0.0
28219,59.0,0,119,11.0,0.0
28220,49.0,0,59,3.0,0.0
28221,93.0,0,119,0.0,0.0
28222,59.0,0,59,15.0,0.0
28223,47.0,0,59,15.0,0.0
28224,59.0,0,59,3.0,0.0
28225,47.0,0,59,3.0,0.0
28226,57.0,0,59,3.0,0.0
28227,69.0,0,119,5.0,0.0
28228,61.0,0,359,3.0,0.0
28229,57.0,0,119,5.0,0.0
28230,57.0,0,59,15.0,0.0
28231,61.0,0,359,14.0,0.0
28232,45.0,0,119,7.0,0.0
28233,61.0,60,359,6.0,0.0
28234,45.0,0,59,3.0,0.0
28235,57.0,0,239,11.0,0.0
28236,64.0,0,344,10.0,0.0
28237,64.0,0,359,6.0,0.0
28238,64.0,0,359,13.0,0.0
28239,45.0,60,59,15.0,0.0
28240,61.0,15,344,11.0,0.0
28241,64.0,0,359,2.0,0.0
28242,61.0,0,359,4.0,0.0
28243,59.0,60,59,3.0,0.0
28244,47.0,0,59,3.0,0.0
28245,59.0,0,59,15.0,0.0
28246,47.0,0,59,15.0,0.0
28247,45.0,60,59,3.0,0.0
28248,45.0,0,59,15.0,0.0
28249,57.0,0,59,3.0,0.0
28250,57.0,0,59,15.0,0.0
28251,55.0,60,59,3.0,0.0
28252,55.0,0,59,15.0,0.0
28253,43.0,0,59,15.0,0.0
28254,43.0,0,59,3.0,0.0
28255,57.0,0,59,15.0,0.0
28256,45.0,0,59,3.0,0.0
28257,55.0,0,104,11.0,0.0
28258,57.0,0,59,3.0,0.0
28259,45.0,45,59,15.0,0.0
28260,55.0,0,59,3.0,0.0
28261,43.0,0,59,15.0,0.0
28262,43.0,0,59,3.0,0.0
28263,55.0,0,59,15.0,0.0
28264,62.0,0,359,14.0,0.0
28265,66.0,0,359,2.0,0.0
28266,54.0,0,59,3.0,0.0
28267,42.0,0,59,3.0,0.0
28268,54.0,0,239,11.0,0.0
28269,62.0,0,359,11.0,0.0
28270,66.0,0,359,13.0,0.0
28271,54.0,60,59,15.0,0.0
28272,62.0,0,359,4.0,0.0
28273,50.0,0,119,7.0,0.0
28274,62.0,0,359,3.0,0.0
28275,62.0,0,119,5.0,0.0
28276,66.0,0,359,10.0,0.0
28277,74.0,0,119,5.0,0.0
28278,42.0,0,59,15.0,0.0
28279,62.0,60,359,6.0,0.0
28280,66.0,0,359,6.0,0.0
28281,33.0,0,59,3.0,0.0
28282,45.0,0,59,3.0,0.0
28283,45.0,60,59,15.0,0.0
28284,33.0,0,59,15.0,0.0
28285,47.0,60,59,15.0,0.0
28286,35.0,0,59,3.0,0.0
28287,47.0,0,59,3.0,0.0
28288,35.0,0,59,15.0,0.0
28289,49.0,0,59,3.0,0.0
28290,37.0,60,59,3.0,0.0
28291,49.0,0,59,15.0,0.0
28292,37.0,0,59,15.0,0.0
28293,38.0,0,59,3.0,0.0
28294,54.0,0,119,11.0,0.0
28295,50.0,0,59,15.0,0.0
28296,50.0,0,59,3.0,0.0
28297,38.0,60,59,15.0,0.0
28298,52.0,0,59,15.0,0.0
28299,40.0,0,59,3.0,0.0
28300,40.0,0,59,15.0,0.0
28301,52.0,0,59,3.0,0.0
28302,62.0,0,359,14.0,0.0
28303,74.0,0,119,5.0,0.0
28304,56.0,0,239,11.0,0.0
28305,42.0,0,59,3.0,0.0
28306,62.0,0,359,4.0,0.0
28307,78.0,0,239,8.0,0.0
28308,78.0,60,59,12.0,0.0
28309,62.0,0,119,5.0,0.0
28310,54.0,0,59,15.0,0.0
28311,62.0,0,359,3.0,0.0
28312,54.0,0,59,3.0,0.0
28313,42.0,0,59,15.0,0.0
28314,66.0,0,359,13.0,0.0
28315,66.0,0,359,2.0,0.0
28316,90.0,0,239,0.0,0.0
28317,62.0,0,359,6.0,0.0
28318,62.0,60,359,11.0,0.0
28319,50.0,0,119,7.0,0.0
28320,66.0,0,359,10.0,0.0
28321,66.0,0,359,6.0,0.0
28322,78.0,60,239,1.0,0.0
28323,40.0,60,59,15.0,0.0
28324,79.0,0,59,12.0,0.0
28325,52.0,0,59,15.0,0.0
28326,52.0,0,59,3.0,0.0
28327,40.0,0,59,3.0,0.0
28328,38.0,0,59,15.0,0.0
28329,38.0,0,59,3.0,0.0
28330,50.0,0,59,15.0,0.0
28331,78.0,0,59,12.0,0.0
28332,50.0,60,59,3.0,0.0
28333,52.0,0,59,3.0,0.0
28334,40.0,0,59,3.0,0.0
28335,40.0,0,59,15.0,0.0
28336,52.0,0,59,15.0,0.0
28337,78.0,0,59,12.0,0.0
28338,78.0,60,59,12.0,0.0
28339,78.0,0,119,8.0,0.0
28340,42.0,0,59,3.0,0.0
28341,54.0,0,59,15.0,0.0
28342,90.0,0,119,0.0,0.0
28343,42.0,0,59,15.0,0.0
28344,57.0,0,119,11.0,0.0
28345,54.0,0,59,3.0,0.0
28346,78.0,0,119,1.0,0.0
28347,56.0,0,59,15.0,0.0
28348,44.0,0,59,15.0,0.0
28349,56.0,0,59,3.0,0.0
28350,44.0,0,59,3.0,0.0
28351,78.0,0,59,12.0,0.0
28352,45.0,0,59,15.0,0.0
28353,61.0,0,359,6.0,0.0
28354,64.0,0,359,6.0,0.0
28355,69.0,0,119,5.0,0.0
28356,57.0,0,119,5.0,0.0
28357,57.0,0,239,11.0,0.0
28358,64.0,0,359,13.0,0.0
28359,64.0,0,359,10.0,0.0
28360,90.0,0,239,0.0,0.0
28361,64.0,0,359,2.0,0.0
28362,61.0,0,359,14.0,0.0
28363,45.0,0,119,7.0,0.0
28364,57.0,60,59,15.0,0.0
28365,78.0,0,239,1.0,0.0
28366,61.0,0,359,3.0,0.0
28367,57.0,0,59,3.0,0.0
28368,61.0,0,359,11.0,0.0
28369,61.0,0,359,4.0,0.0
28370,78.0,0,59,12.0,0.0
28371,45.0,0,59,3.0,0.0
28372,78.0,0,239,8.0,0.0
28373,59.0,0,59,3.0,0.0
28374,47.0,0,59,15.0,0.0
28375,59.0,0,59,15.0,0.0
28376,79.0,60,59,12.0,0.0
28377,47.0,0,59,3.0,0.0
28378,45.0,0,59,3.0,0.0
28379,57.0,0,59,3.0,0.0
28380,57.0,0,59,15.0,0.0
28381,78.0,0,59,12.0,0.0
28382,45.0,60,59,15.0,0.0
28383,55.0,0,59,3.0,0.0
28384,43.0,0,59,3.0,0.0
28385,43.0,60,59,15.0,0.0
28386,79.0,0,59,12.0,0.0
28387,55.0,0,59,15.0,0.0
28388,76.0,0,119,8.0,0.0
28389,88.0,0,119,0.0,0.0
28390,76.0,0,119,1.0,0.0
28391,45.0,0,59,3.0,0.0
28392,45.0,0,59,15.0,0.0
28393,57.0,60,59,3.0,0.0
28394,57.0,0,59,15.0,0.0
28395,76.0,0,59,12.0,0.0
28396,55.0,0,119,11.0,0.0
28397,43.0,0,59,3.0,0.0
28398,43.0,60,59,15.0,0.0
28399,55.0,0,59,15.0,0.0
28400,55.0,0,59,3.0,0.0
28401,76.0,0,59,12.0,0.0
28402,62.0,0,239,13.0,0.0
28403,62.0,0,239,10.0,0.0
28404,81.0,0,239,1.0,0.0
28405,57.0,0,359,14.0,0.0
28406,54.0,60,59,15.0,0.0
28407,57.0,0,359,11.0,0.0
28408,45.0,0,119,7.0,0.0
28409,81.0,0,239,8.0,0.0
28410,57.0,0,359,3.0,0.0
28411,69.0,0,119,5.0,0.0
28412,42.0,0,59,3.0,0.0
28413,57.0,0,119,5.0,0.0
28414,54.0,0,239,11.0,0.0
28415,42.0,0,59,15.0,0.0
28416,57.0,0,359,4.0,0.0
28417,93.0,0,239,0.0,0.0
28418,62.0,0,239,2.0,0.0
28419,62.0,0,239,6.0,0.0
28420,57.0,0,359,6.0,0.0
28421,54.0,0,59,3.0,0.0
28422,81.0,0,59,12.0,0.0
28423,83.0,0,59,12.0,0.0
28424,43.0,0,59,3.0,0.0
28425,43.0,0,59,15.0,0.0
28426,55.0,0,59,3.0,0.0
28427,55.0,60,59,15.0,0.0
28428,42.0,0,59,15.0,0.0
28429,81.0,0,59,12.0,0.0
28430,42.0,0,59,3.0,0.0
28431,54.0,0,59,3.0,0.0
28432,54.0,60,59,15.0,0.0
28433,40.0,0,59,3.0,0.0
28434,40.0,0,59,15.0,0.0
28435,52.0,60,59,3.0,0.0
28436,83.0,0,59,12.0,0.0
28437,52.0,0,59,15.0,0.0
28438,42.0,0,59,15.0,0.0
28439,91.0,0,119,0.0,0.0
28440,61.0,0,119,10.0,0.0
28441,79.0,0,119,8.0,0.0
28442,61.0,0,119,13.0,0.0
28443,54.0,0,59,3.0,0.0
28444,61.0,0,119,2.0,0.0
28445,52.0,15,104,11.0,0.0
28446,79.0,60,119,1.0,0.0
28447,54.0,0,59,15.0,0.0
28448,61.0,0,119,6.0,0.0
28449,79.0,45,59,12.0,0.0
28450,42.0,0,59,3.0,0.0
28451,40.0,0,59,3.0,0.0
28452,52.0,0,59,3.0,0.0
28453,52.0,0,59,15.0,0.0
28454,40.0,0,59,15.0,0.0
28455,79.0,0,59,12.0,0.0
28456,90.0,0,239,0.0,0.0
28457,78.0,0,239,8.0,0.0
28458,45.0,60,119,7.0,0.0
28459,67.0,0,359,14.0,0.0
28460,67.0,0,359,3.0,0.0
28461,50.0,60,239,11.0,0.0
28462,78.0,0,239,1.0,0.0
28463,50.0,60,59,3.0,0.0
28464,67.0,0,359,4.0,0.0
28465,38.0,0,59,15.0,0.0
28466,50.0,0,59,15.0,0.0
28467,64.0,0,359,13.0,0.0
28468,38.0,0,59,3.0,0.0
28469,57.0,0,119,5.0,0.0
28470,78.0,0,59,12.0,0.0
28471,64.0,0,359,6.0,0.0
28472,64.0,0,359,10.0,0.0
28473,67.0,0,359,6.0,0.0
28474,67.0,0,359,11.0,0.0
28475,64.0,0,359,2.0,0.0
28476,69.0,0,119,5.0,0.0
28477,52.0,0,59,3.0,0.0
28478,40.0,0,59,15.0,0.0
28479,79.0,0,59,12.0,0.0
28480,52.0,0,59,15.0,0.0
28481,40.0,0,59,3.0,0.0
28482,78.0,0,59,12.0,0.0
28483,38.0,0,59,3.0,0.0
28484,38.0,0,59,15.0,0.0
28485,50.0,0,59,3.0,0.0
28486,50.0,60,59,15.0,0.0
28487,79.0,0,59,12.0,0.0
28488,37.0,0,59,15.0,0.0
28489,49.0,0,59,3.0,0.0
28490,37.0,0,59,3.0,0.0
28491,49.0,0,59,15.0,0.0
28492,49.0,0,119,11.0,0.0
28493,76.0,0,119,1.0,0.0
28494,50.0,0,59,3.0,0.0
28495,76.0,60,59,12.0,0.0
28496,38.0,0,59,3.0,0.0
28497,88.0,0,119,0.0,0.0
28498,50.0,0,59,15.0,0.0
28499,38.0,0,59,15.0,0.0
28500,76.0,0,119,8.0,0.0
28501,37.0,0,59,15.0,0.0
28502,37.0,0,59,3.0,0.0
28503,49.0,0,59,3.0,0.0
28504,76.0,60,59,12.0,0.0
28505,49.0,0,59,15.0,0.0
28506,67.0,0,359,4.0,0.0
28507,35.0,0,59,3.0,0.0
28508,74.0,0,239,1.0,0.0
28509,86.0,0,239,0.0,0.0
28510,74.0,0,59,12.0,0.0
28511,67.0,0,359,3.0,0.0
28512,67.0,60,359,11.0,0.0
28513,64.0,0,359,2.0,0.0
28514,67.0,0,359,14.0,0.0
28515,45.0,0,119,7.0,0.0
28516,64.0,0,359,13.0,0.0
28517,35.0,60,59,15.0,0.0
28518,47.0,15,224,11.0,0.0
28519,64.0,0,359,10.0,0.0
28520,57.0,0,119,5.0,0.0
28521,69.0,0,119,5.0,0.0
28522,64.0,0,359,6.0,0.0
28523,67.0,0,359,6.0,0.0
28524,47.0,0,59,3.0,0.0
28525,74.0,60,239,8.0,0.0
28526,47.0,0,59,15.0,0.0
28527,49.0,0,59,15.0,0.0
28528,76.0,0,59,12.0,0.0
28529,37.0,0,59,3.0,0.0
28530,37.0,60,59,15.0,0.0
28531,49.0,0,59,3.0,0.0
28532,35.0,0,59,3.0,0.0
28533,47.0,0,59,15.0,0.0
28534,47.0,0,59,3.0,0.0
28535,35.0,0,59,15.0,0.0
28536,74.0,45,59,12.0,0.0
28537,45.0,0,59,15.0,0.0
28538,45.0,0,59,3.0,0.0
28539,76.0,0,59,12.0,0.0
28540,33.0,0,59,3.0,0.0
28541,33.0,0,59,15.0,0.0
28542,73.0,0,59,12.0,0.0
28543,85.0,0,119,0.0,0.0
28544,47.0,0,59,3.0,0.0
28545,35.0,60,59,3.0,0.0
28546,73.0,0,119,1.0,0.0
28547,45.0,0,119,11.0,0.0
28548,35.0,0,59,15.0,0.0
28549,73.0,0,119,8.0,0.0
28550,47.0,0,59,15.0,0.0
28551,45.0,0,59,15.0,0.0
28552,33.0,0,59,15.0,0.0
28553,45.0,0,59,3.0,0.0
28554,33.0,0,59,3.0,0.0
28555,73.0,0,59,12.0,0.0
28556,76.0,0,239,8.0,0.0
28557,66.0,0,359,11.0,0.0
28558,50.0,0,59,3.0,0.0
28559,76.0,0,239,1.0,0.0
28560,66.0,0,359,3.0,0.0
28561,62.0,0,359,2.0,0.0
28562,88.0,0,239,0.0,0.0
28563,38.0,0,59,15.0,0.0
28564,66.0,0,359,4.0,0.0
28565,50.0,0,119,7.0,0.0
28566,66.0,0,359,6.0,0.0
28567,50.0,0,59,15.0,0.0
28568,50.0,0,239,11.0,0.0
28569,62.0,0,359,13.0,0.0
28570,66.0,0,359,14.0,0.0
28571,38.0,60,59,3.0,0.0
28572,62.0,0,359,10.0,0.0
28573,62.0,0,359,6.0,0.0
28574,76.0,0,59,12.0,0.0
28575,62.0,60,119,5.0,0.0
28576,33.0,0,59,15.0,0.0
28577,45.0,0,59,3.0,0.0
28578,33.0,0,59,3.0,0.0
28579,45.0,0,59,15.0,0.0
28580,78.0,0,59,12.0,0.0
28581,47.0,0,59,15.0,0.0
28582,35.0,0,59,3.0,0.0
28583,76.0,0,59,12.0,0.0
28584,35.0,60,59,15.0,0.0
28585,47.0,0,59,3.0,0.0
28586,37.0,60,59,15.0,0.0
28587,81.0,0,59,12.0,0.0
28588,49.0,0,59,3.0,0.0
28589,37.0,0,59,3.0,0.0
28590,49.0,0,59,15.0,0.0
28591,50.0,60,59,3.0,0.0
28592,86.0,0,119,0.0,0.0
28593,50.0,0,119,11.0,0.0
28594,74.0,0,59,12.0,0.0
28595,38.0,0,59,15.0,0.0
28596,74.0,0,119,1.0,0.0
28597,50.0,0,119,7.0,0.0
28598,62.0,60,119,5.0,0.0
28599,74.0,0,119,8.0,0.0
28600,38.0,0,59,3.0,0.0
28601,50.0,0,59,15.0,0.0
28602,37.0,0,59,15.0,0.0
28603,49.0,0,59,15.0,0.0
28604,37.0,0,59,3.0,0.0
28605,74.0,0,59,12.0,0.0
28606,49.0,0,59,3.0,0.0
28607,76.0,0,239,8.0,0.0
28608,50.0,15,224,11.0,0.0
28609,50.0,0,59,3.0,0.0
28610,62.0,0,719,6.0,0.0
28611,38.0,0,59,15.0,0.0
28612,38.0,60,59,3.0,0.0
28613,88.0,0,239,0.0,0.0
28614,62.0,0,119,5.0,0.0
28615,76.0,0,239,1.0,0.0
28616,50.0,0,59,15.0,0.0
28617,76.0,0,59,12.0,0.0
28618,50.0,0,119,7.0,0.0
28619,54.0,60,59,15.0,0.0
28620,76.0,0,59,12.0,0.0
28621,42.0,0,59,3.0,0.0
28622,54.0,0,59,3.0,0.0
28623,42.0,0,59,15.0,0.0
28624,76.0,45,59,12.0,0.0
28625,45.0,0,59,3.0,0.0
28626,45.0,0,59,15.0,0.0
28627,57.0,0,59,15.0,0.0
28628,57.0,0,59,3.0,0.0
28629,76.0,60,59,12.0,0.0
28630,49.0,0,59,3.0,0.0
28631,61.0,0,59,15.0,0.0
28632,49.0,0,59,15.0,0.0
28633,61.0,0,59,3.0,0.0
28634,78.0,0,1079,1.0,0.0
28635,50.0,60,119,7.0,0.0
28636,78.0,0,1079,8.0,0.0
28637,50.0,0,479,3.0,0.0
28638,50.0,0,479,15.0,0.0
28639,62.0,0,479,3.0,0.0
28640,62.0,0,479,5.0,0.0
28641,90.0,0,1079,0.0,0.0
28642,62.0,0,479,11.0,0.0
28643,62.0,0,119,15.0,0.0
28644,78.0,60,59,12.0,0.0
28645,78.0,0,59,12.0,0.0
28646,78.0,60,59,12.0,0.0
28647,74.0,0,119,5.0,0.0
28648,66.0,0,59,14.0,0.0
28649,66.0,0,239,11.0,0.0
28650,66.0,0,239,6.0,0.0
28651,66.0,0,239,3.0,0.0
28652,66.0,0,239,15.0,0.0
28653,50.0,0,119,7.0,0.0
28654,66.0,0,239,4.0,0.0
28655,57.0,0,59,14.0,0.0
28656,78.0,60,59,12.0,0.0
28657,78.0,0,59,12.0,0.0
28658,59.0,60,59,14.0,0.0
28659,78.0,0,59,12.0,0.0
28660,61.0,60,59,14.0,0.0
28661,62.0,45,59,14.0,0.0
28662,66.0,0,119,15.0,0.0
28663,66.0,0,119,6.0,0.0
28664,66.0,0,119,3.0,0.0
28665,66.0,15,104,11.0,0.0
28666,66.0,60,119,4.0,0.0
28667,78.0,0,59,12.0,0.0
28668,64.0,0,59,14.0,0.0
28669,78.0,0,59,12.0,0.0
28670,62.0,0,359,11.0,0.0
28671,67.0,0,239,6.0,0.0
28672,62.0,0,359,6.0,0.0
28673,50.0,0,119,7.0,0.0
28674,50.0,0,359,15.0,0.0
28675,62.0,0,359,3.0,0.0
28676,50.0,0,359,3.0,0.0
28677,67.0,0,239,15.0,0.0
28678,62.0,0,359,5.0,0.0
28679,67.0,0,239,4.0,0.0
28680,78.0,0,59,12.0,0.0
28681,74.0,0,119,5.0,0.0
28682,67.0,0,239,11.0,0.0
28683,67.0,60,239,3.0,0.0
28684,66.0,60,59,14.0,0.0
28685,78.0,0,59,12.0,0.0
28686,64.0,60,59,14.0,0.0
28687,62.0,60,59,14.0,0.0
28688,78.0,0,59,12.0,0.0
28689,78.0,0,59,12.0,0.0
28690,64.0,0,59,14.0,0.0
28691,66.0,60,59,14.0,0.0
28692,69.0,0,119,15.0,0.0
28693,78.0,0,59,12.0,0.0
28694,69.0,0,119,4.0,0.0
28695,69.0,60,119,6.0,0.0
28696,69.0,0,119,11.0,0.0
28697,69.0,0,119,3.0,0.0
28698,78.0,0,59,12.0,0.0
28699,67.0,0,59,14.0,0.0
28700,69.0,0,239,6.0,0.0
28701,69.0,0,59,14.0,0.0
28702,69.0,0,239,3.0,0.0
28703,45.0,0,119,7.0,0.0
28704,49.0,60,359,15.0,0.0
28705,61.0,0,359,11.0,0.0
28706,57.0,60,119,5.0,0.0
28707,69.0,0,119,5.0,0.0
28708,64.0,0,239,6.0,0.0
28709,61.0,0,359,3.0,0.0
28710,64.0,0,59,13.0,0.0
28711,69.0,0,239,15.0,0.0
28712,69.0,0,239,11.0,0.0
28713,49.0,0,359,3.0,0.0
28714,64.0,0,239,10.0,0.0
28715,61.0,0,359,6.0,0.0
28716,64.0,0,239,2.0,0.0
28717,78.0,60,59,12.0,0.0
28718,69.0,0,239,4.0,0.0
28719,71.0,0,59,14.0,0.0
28720,79.0,0,59,12.0,0.0
28721,57.0,0,59,13.0,0.0
28722,69.0,0,59,14.0,0.0
28723,64.0,60,59,13.0,0.0
28724,78.0,0,59,12.0,0.0
28725,64.0,60,59,13.0,0.0
28726,67.0,0,59,14.0,0.0
28727,79.0,0,59,12.0,0.0
28728,64.0,0,119,13.0,0.0
28729,67.0,0,119,4.0,0.0
28730,64.0,0,119,2.0,0.0
28731,67.0,0,119,6.0,0.0
28732,67.0,0,119,11.0,0.0
28733,69.0,60,59,14.0,0.0
28734,64.0,0,119,10.0,0.0
28735,76.0,0,119,8.0,0.0
28736,67.0,0,119,15.0,0.0
28737,64.0,0,119,6.0,0.0
28738,76.0,0,119,1.0,0.0
28739,88.0,0,119,0.0,0.0
28740,67.0,0,119,3.0,0.0
28741,78.0,0,59,12.0,0.0
28742,76.0,0,59,12.0,0.0
28743,67.0,0,59,14.0,0.0
28744,66.0,0,239,4.0,0.0
28745,74.0,60,239,1.0,0.0
28746,86.0,0,239,0.0,0.0
28747,66.0,0,59,14.0,0.0
28748,45.0,0,359,15.0,0.0
28749,57.0,0,359,6.0,0.0
28750,69.0,0,119,5.0,0.0
28751,45.0,60,119,7.0,0.0
28752,66.0,0,239,15.0,0.0
28753,74.0,60,59,12.0,0.0
28754,57.0,0,119,5.0,0.0
28755,66.0,0,239,6.0,0.0
28756,45.0,0,359,3.0,0.0
28757,74.0,0,239,8.0,0.0
28758,66.0,0,239,3.0,0.0
28759,57.0,0,359,3.0,0.0
28760,66.0,0,239,11.0,0.0
28761,57.0,0,344,11.0,0.0
28762,67.0,0,59,14.0,0.0
28763,76.0,0,59,12.0,0.0
28764,66.0,0,59,14.0,0.0
28765,74.0,60,59,12.0,0.0
28766,64.0,0,59,14.0,0.0
28767,76.0,0,59,12.0,0.0
28768,64.0,0,119,15.0,0.0
28769,64.0,15,104,11.0,0.0
28770,64.0,0,119,6.0,0.0
28771,73.0,0,119,1.0,0.0
28772,85.0,0,119,0.0,0.0
28773,73.0,0,119,8.0,0.0
28774,74.0,45,59,12.0,0.0
28775,66.0,0,59,14.0,0.0
28776,64.0,0,119,3.0,0.0
28777,64.0,0,119,4.0,0.0
28778,64.0,60,59,14.0,0.0
28779,73.0,0,59,12.0,0.0
28780,62.0,0,239,6.0,0.0
28781,62.0,60,239,11.0,0.0
28782,62.0,0,239,15.0,0.0
28783,74.0,0,59,12.0,0.0
28784,47.0,0,359,15.0,0.0
28785,74.0,0,959,1.0,0.0
28786,59.0,0,359,11.0,0.0
28787,74.0,0,959,8.0,0.0
28788,59.0,60,359,6.0,0.0
28789,50.0,0,119,7.0,0.0
28790,74.0,0,119,5.0,0.0
28791,47.0,0,359,3.0,0.0
28792,62.0,0,119,5.0,0.0
28793,59.0,0,359,3.0,0.0
28794,62.0,0,239,3.0,0.0
28795,86.0,0,959,0.0,0.0
28796,62.0,60,59,14.0,0.0
28797,62.0,0,239,4.0,0.0
28798,54.0,60,59,14.0,0.0
28799,74.0,0,59,12.0,0.0
28800,74.0,0,59,12.0,0.0
28801,55.0,60,59,14.0,0.0
28802,57.0,0,59,14.0,0.0
28803,74.0,0,59,12.0,0.0
28804,62.0,0,119,3.0,0.0
28805,62.0,0,119,15.0,0.0
28806,62.0,0,119,6.0,0.0
28807,74.0,60,59,12.0,0.0
28808,62.0,0,119,11.0,0.0
28809,62.0,0,119,4.0,0.0
28810,59.0,0,59,14.0,0.0
28811,61.0,0,59,14.0,0.0
28812,74.0,0,59,12.0,0.0
28813,50.0,0,119,7.0,0.0
28814,64.0,0,239,4.0,0.0
28815,62.0,0,119,5.0,0.0
28816,59.0,0,359,6.0,0.0
28817,74.0,60,59,12.0,0.0
28818,62.0,0,59,14.0,0.0
28819,64.0,0,239,11.0,0.0
28820,59.0,0,359,3.0,0.0
28821,64.0,60,239,3.0,0.0
28822,64.0,0,239,6.0,0.0
28823,74.0,60,119,5.0,0.0
28824,47.0,0,359,3.0,0.0
28825,47.0,60,359,15.0,0.0
28826,64.0,0,239,15.0,0.0
28827,59.0,0,359,11.0,0.0
28828,74.0,0,59,12.0,0.0
28829,61.0,0,59,14.0,0.0
28830,59.0,60,59,14.0,0.0
28831,74.0,0,59,12.0,0.0
28832,74.0,0,59,12.0,0.0
28833,61.0,0,59,14.0,0.0
28834,74.0,60,59,12.0,0.0
28835,66.0,0,119,3.0,0.0
28836,66.0,0,119,4.0,0.0
28837,66.0,0,119,11.0,0.0
28838,66.0,0,119,6.0,0.0
28839,66.0,0,119,15.0,0.0
28840,62.0,0,59,14.0,0.0
28841,64.0,0,59,14.0,0.0
28842,74.0,0,59,12.0,0.0
28843,66.0,0,239,3.0,0.0
28844,69.0,0,59,13.0,0.0
28845,57.0,0,359,3.0,0.0
28846,74.0,60,59,12.0,0.0
28847,69.0,0,239,10.0,0.0
28848,66.0,0,239,6.0,0.0
28849,45.0,0,359,15.0,0.0
28850,45.0,0,359,3.0,0.0
28851,69.0,0,119,5.0,0.0
28852,57.0,0,119,5.0,0.0
28853,66.0,0,239,4.0,0.0
28854,45.0,0,119,7.0,0.0
28855,57.0,0,359,6.0,0.0
28856,69.0,0,239,2.0,0.0
28857,66.0,0,239,11.0,0.0
28858,66.0,0,59,14.0,0.0
28859,69.0,0,239,6.0,0.0
28860,66.0,0,239,15.0,0.0
28861,57.0,60,359,11.0,0.0
28862,67.0,60,59,14.0,0.0
28863,76.0,0,59,12.0,0.0
28864,57.0,0,59,13.0,0.0
28865,69.0,0,59,13.0,0.0
28866,74.0,60,59,12.0,0.0
28867,66.0,0,59,14.0,0.0
28868,64.0,0,59,14.0,0.0
28869,76.0,60,59,12.0,0.0
28870,69.0,0,59,13.0,0.0
28871,69.0,0,119,2.0,0.0
28872,69.0,0,119,13.0,0.0
28873,64.0,0,119,11.0,0.0
28874,74.0,60,59,12.0,0.0
28875,73.0,0,119,1.0,0.0
28876,64.0,0,119,3.0,0.0
28877,64.0,0,119,4.0,0.0
28878,85.0,0,119,0.0,0.0
28879,73.0,0,119,8.0,0.0
28880,66.0,0,59,14.0,0.0
28881,64.0,0,119,15.0,0.0
28882,64.0,0,119,6.0,0.0
28883,69.0,0,119,6.0,0.0
28884,69.0,0,119,10.0,0.0
28885,64.0,0,59,14.0,0.0
28886,73.0,0,59,12.0,0.0
28887,62.0,0,239,4.0,0.0
28888,71.0,0,239,1.0,0.0
28889,83.0,0,239,0.0,0.0
28890,62.0,0,239,6.0,0.0
28891,54.0,0,359,6.0,0.0
28892,42.0,0,359,15.0,0.0
28893,62.0,60,239,11.0,0.0
28894,62.0,0,239,15.0,0.0
28895,71.0,0,239,8.0,0.0
28896,42.0,0,359,3.0,0.0
28897,54.0,15,344,11.0,0.0
28898,54.0,0,359,3.0,0.0
28899,71.0,60,59,12.0,0.0
28900,74.0,0,119,5.0,0.0
28901,62.0,0,119,5.0,0.0
28902,50.0,0,119,7.0,0.0
28903,62.0,0,59,14.0,0.0
28904,62.0,0,239,3.0,0.0
28905,73.0,60,59,12.0,0.0
28906,64.0,0,59,14.0,0.0
28907,62.0,0,59,14.0,0.0
28908,71.0,60,59,12.0,0.0
28909,73.0,0,59,12.0,0.0
28910,61.0,0,59,14.0,0.0
28911,60.0,0,104,11.0,0.0
28912,69.0,0,119,8.0,0.0
28913,81.0,0,119,0.0,0.0
28914,60.0,0,119,3.0,0.0
28915,69.0,0,119,1.0,0.0
28916,62.0,45,59,14.0,0.0
28917,60.0,0,119,15.0,0.0
28918,60.0,60,119,6.0,0.0
28919,60.0,0,119,4.0,0.0
28920,71.0,0,59,12.0,0.0
28921,60.0,0,59,14.0,0.0
28922,69.0,0,59,12.0,0.0
28923,59.0,0,239,4.0,0.0
28924,55.0,0,359,6.0,0.0
28925,55.0,0,359,3.0,0.0
28926,55.0,0,359,11.0,0.0
28927,43.0,0,359,15.0,0.0
28928,59.0,0,59,14.0,0.0
28929,83.0,0,719,0.0,0.0
28930,71.0,0,719,1.0,0.0
28931,59.0,0,239,3.0,0.0
28932,50.0,0,119,7.0,0.0
28933,59.0,0,239,6.0,0.0
28934,62.0,0,119,5.0,0.0
28935,59.0,60,239,11.0,0.0
28936,43.0,0,359,3.0,0.0
28937,74.0,0,119,5.0,0.0
28938,59.0,0,239,15.0,0.0
28939,71.0,60,59,12.0,0.0
28940,71.0,0,599,8.0,0.0
28941,71.0,0,59,12.0,0.0
28942,50.0,60,59,14.0,0.0
28943,52.0,0,59,14.0,0.0
28944,71.0,60,59,12.0,0.0
28945,54.0,0,59,14.0,0.0
28946,71.0,0,59,12.0,0.0
28947,50.0,0,119,4.0,0.0
28948,62.0,0,119,4.0,0.0
28949,59.0,60,119,6.0,0.0
28950,59.0,0,119,15.0,0.0
28951,59.0,0,119,3.0,0.0
28952,71.0,0,59,12.0,0.0
28953,55.0,60,59,14.0,0.0
28954,59.0,0,119,11.0,0.0
28955,71.0,0,59,12.0,0.0
28956,57.0,0,59,14.0,0.0
28957,67.0,0,239,6.0,0.0
28958,55.0,0,359,11.0,0.0
28959,50.0,0,119,7.0,0.0
28960,67.0,60,239,10.0,0.0
28961,55.0,60,359,3.0,0.0
28962,61.0,0,239,3.0,0.0
28963,71.0,0,59,12.0,0.0
28964,43.0,0,359,15.0,0.0
28965,74.0,0,119,5.0,0.0
28966,62.0,0,119,5.0,0.0
28967,67.0,0,239,2.0,0.0
28968,62.0,0,239,4.0,0.0
28969,67.0,0,59,13.0,0.0
28970,61.0,0,239,15.0,0.0
28971,59.0,60,59,14.0,0.0
28972,43.0,0,359,3.0,0.0
28973,50.0,0,239,4.0,0.0
28974,61.0,0,239,11.0,0.0
28975,61.0,0,239,6.0,0.0
28976,71.0,0,59,12.0,0.0
28977,57.0,0,59,14.0,0.0
28978,67.0,60,59,13.0,0.0
28979,55.0,0,59,14.0,0.0
28980,71.0,0,59,12.0,0.0
28981,67.0,60,59,13.0,0.0
28982,67.0,0,59,13.0,0.0
28983,57.0,0,59,14.0,0.0
28984,71.0,0,59,12.0,0.0
28985,55.0,0,119,6.0,0.0
28986,62.0,0,119,11.0,0.0
28987,59.0,60,59,14.0,0.0
28988,71.0,0,59,12.0,0.0
28989,62.0,0,119,15.0,0.0
28990,71.0,0,119,8.0,0.0
28991,55.0,0,59,13.0,0.0
28992,50.0,0,119,4.0,0.0
28993,62.0,0,119,4.0,0.0
28994,62.0,0,119,3.0,0.0
28995,55.0,0,119,10.0,0.0
28996,62.0,0,119,6.0,0.0
28997,55.0,0,119,2.0,0.0
28998,61.0,0,59,14.0,0.0
28999,71.0,0,59,12.0,0.0
29000,55.0,0,59,13.0,0.0
29001,81.0,0,719,0.0,0.0
29002,62.0,0,239,15.0,0.0
29003,62.0,0,359,4.0,0.0
29004,54.0,0,359,11.0,0.0
29005,71.0,0,59,12.0,0.0
29006,50.0,60,119,7.0,0.0
29007,54.0,0,359,6.0,0.0
29008,42.0,60,359,3.0,0.0
29009,42.0,0,359,15.0,0.0
29010,50.0,0,359,4.0,0.0
29011,69.0,60,719,8.0,0.0
29012,74.0,0,119,5.0,0.0
29013,62.0,0,239,3.0,0.0
29014,54.0,0,359,3.0,0.0
29015,57.0,0,119,10.0,0.0
29016,62.0,60,59,14.0,0.0
29017,62.0,0,119,5.0,0.0
29018,57.0,0,59,13.0,0.0
29019,62.0,0,239,6.0,0.0
29020,57.0,0,119,2.0,0.0
29021,69.0,0,719,1.0,0.0
29022,62.0,0,239,11.0,0.0
29023,57.0,0,59,13.0,0.0
29024,64.0,0,59,14.0,0.0
29025,69.0,0,59,12.0,0.0
29026,71.0,0,59,12.0,0.0
29027,62.0,60,59,14.0,0.0
29028,62.0,60,119,10.0,0.0
29029,57.0,0,59,13.0,0.0
29030,59.0,0,119,2.0,0.0
29031,69.0,0,59,12.0,0.0
29032,61.0,0,59,14.0,0.0
29033,57.0,0,59,13.0,0.0
29034,61.0,0,119,3.0,0.0
29035,61.0,0,59,2.0,0.0
29036,69.0,60,59,12.0,0.0
29037,61.0,0,119,11.0,0.0
29038,57.0,0,59,13.0,0.0
29039,62.0,0,59,14.0,0.0
29040,64.0,0,59,10.0,0.0
29041,61.0,0,119,15.0,0.0
29042,62.0,0,59,2.0,0.0
29043,61.0,0,59,14.0,0.0
29044,57.0,0,59,13.0,0.0
29045,66.0,0,59,10.0,0.0
29046,69.0,0,59,12.0,0.0
29047,59.0,0,59,14.0,0.0
29048,50.0,0,359,6.0,0.0
29049,67.0,60,59,13.0,0.0
29050,67.0,0,239,2.0,0.0
29051,59.0,0,239,6.0,0.0
29052,67.0,0,239,10.0,0.0
29053,59.0,0,239,3.0,0.0
29054,50.0,0,359,3.0,0.0
29055,50.0,0,359,4.0,0.0
29056,67.0,0,239,6.0,0.0
29057,59.0,0,239,11.0,0.0
29058,62.0,0,359,4.0,0.0
29059,50.0,0,119,7.0,0.0
29060,74.0,60,119,5.0,0.0
29061,62.0,0,119,5.0,0.0
29062,50.0,0,359,11.0,0.0
29063,59.0,0,239,15.0,0.0
29064,69.0,0,59,12.0,0.0
29065,38.0,0,359,3.0,0.0
29066,38.0,0,359,15.0,0.0
29067,69.0,0,59,13.0,0.0
29068,57.0,0,59,12.0,0.0
29069,61.0,0,59,14.0,0.0
29070,59.0,0,59,14.0,0.0
29071,67.0,60,59,13.0,0.0
29072,69.0,0,59,12.0,0.0
29073,57.0,0,59,12.0,0.0
29074,57.0,60,59,14.0,0.0
29075,69.0,0,59,13.0,0.0
29076,66.0,0,119,10.0,0.0
29077,57.0,0,119,15.0,0.0
29078,67.0,0,59,13.0,0.0
29079,66.0,0,119,6.0,0.0
29080,57.0,0,119,6.0,0.0
29081,57.0,0,119,3.0,0.0
29082,66.0,0,119,2.0,0.0
29083,57.0,15,104,11.0,0.0
29084,69.0,0,119,12.0,0.0
29085,59.0,45,59,14.0,0.0
29086,66.0,0,59,13.0,0.0
29087,57.0,0,59,14.0,0.0
29088,64.0,0,239,10.0,0.0
29089,62.0,0,359,4.0,0.0
29090,50.0,0,359,4.0,0.0
29091,64.0,0,239,6.0,0.0
29092,59.0,0,359,3.0,0.0
29093,59.0,0,359,11.0,0.0
29094,55.0,0,239,11.0,0.0
29095,55.0,0,239,15.0,0.0
29096,47.0,0,359,15.0,0.0
29097,47.0,0,359,3.0,0.0
29098,64.0,60,59,13.0,0.0
29099,74.0,0,119,5.0,0.0
29100,62.0,0,119,5.0,0.0
29101,55.0,60,239,3.0,0.0
29102,55.0,0,239,6.0,0.0
29103,59.0,0,359,6.0,0.0
29104,50.0,0,119,7.0,0.0
29105,55.0,0,59,14.0,0.0
29106,64.0,0,239,2.0,0.0
29107,57.0,60,59,14.0,0.0
29108,66.0,0,59,13.0,0.0
29109,64.0,60,59,13.0,0.0
29110,55.0,0,59,14.0,0.0
29111,66.0,0,59,13.0,0.0
29112,54.0,0,59,14.0,0.0
29113,54.0,0,119,11.0,0.0
29114,54.0,0,119,3.0,0.0
29115,55.0,0,59,14.0,0.0
29116,54.0,0,119,15.0,0.0
29117,62.0,0,119,2.0,0.0
29118,64.0,60,59,13.0,0.0
29119,54.0,60,119,6.0,0.0
29120,62.0,0,119,6.0,0.0
29121,62.0,0,119,10.0,0.0
29122,62.0,0,59,13.0,0.0
29123,54.0,0,59,14.0,0.0
29124,62.0,0,119,5.0,0.0
29125,52.0,60,59,14.0,0.0
29126,50.0,0,119,7.0,0.0
29127,62.0,0,359,4.0,0.0
29128,61.0,0,239,10.0,0.0
29129,61.0,0,59,13.0,0.0
29130,59.0,0,359,11.0,0.0
29131,61.0,60,239,6.0,0.0
29132,52.0,0,239,6.0,0.0
29133,59.0,0,359,6.0,0.0
29134,47.0,0,359,15.0,0.0
29135,47.0,0,359,3.0,0.0
29136,52.0,0,239,15.0,0.0
29137,52.0,0,239,3.0,0.0
29138,74.0,60,119,5.0,0.0
29139,61.0,0,239,2.0,0.0
29140,59.0,0,359,3.0,0.0
29141,50.0,60,359,4.0,0.0
29142,52.0,0,239,11.0,0.0
29143,62.0,0,59,13.0,0.0
29144,54.0,0,59,14.0,0.0
29145,52.0,0,59,14.0,0.0
29146,61.0,60,59,13.0,0.0
29147,62.0,0,59,13.0,0.0
29148,50.0,0,59,14.0,0.0
29149,62.0,0,59,13.0,0.0
29150,62.0,0,119,10.0,0.0
29151,62.0,0,119,2.0,0.0
29152,50.0,0,119,11.0,0.0
29153,62.0,0,119,6.0,0.0
29154,50.0,0,119,6.0,0.0
29155,50.0,0,119,15.0,0.0
29156,50.0,0,119,3.0,0.0
29157,52.0,60,59,14.0,0.0
29158,62.0,0,59,13.0,0.0
29159,50.0,0,59,14.0,0.0
29160,45.0,0,239,3.0,0.0
29161,45.0,0,119,7.0,0.0
29162,45.0,0,239,15.0,0.0
29163,66.0,0,59,13.0,0.0
29164,66.0,0,239,2.0,0.0
29165,57.0,0,239,6.0,0.0
29166,66.0,0,239,6.0,0.0
29167,59.0,0,239,11.0,0.0
29168,57.0,0,239,4.0,0.0
29169,57.0,60,59,14.0,0.0
29170,66.0,0,239,10.0,0.0
29171,69.0,0,119,5.0,0.0
29172,57.0,0,119,5.0,0.0
29173,57.0,0,239,15.0,0.0
29174,57.0,0,239,11.0,0.0
29175,57.0,0,239,3.0,0.0
29176,45.0,0,239,4.0,0.0
29177,66.0,0,59,13.0,0.0
29178,52.0,60,59,14.0,0.0
29179,54.0,0,59,14.0,0.0
29180,66.0,60,59,13.0,0.0
29181,66.0,0,59,13.0,0.0
29182,56.0,0,59,14.0,0.0
29183,64.0,60,119,6.0,0.0
29184,57.0,0,119,6.0,0.0
29185,64.0,0,119,10.0,0.0
29186,57.0,0,119,11.0,0.0
29187,45.0,0,479,4.0,0.0
29188,49.0,0,359,15.0,0.0
29189,61.0,120,359,3.0,0.0
29190,62.0,0,119,13.0,0.0
29191,49.0,0,359,3.0,0.0
29192,61.0,0,359,6.0,0.0
29193,57.0,0,479,4.0,0.0
29194,61.0,0,359,11.0,0.0
29195,64.0,0,119,2.0,0.0
29196,57.0,60,59,14.0,0.0
29197,61.0,0,359,15.0,0.0
29198,56.0,0,59,14.0,0.0
29199,57.0,0,239,6.0,0.0
29200,81.0,0,719,5.0,0.0
29201,81.0,0,719,8.0,0.0
29202,81.0,0,719,1.0,0.0
29203,57.0,0,239,11.0,0.0
29204,81.0,0,719,12.0,0.0
29205,57.0,60,59,14.0,0.0
29206,93.0,0,719,0.0,0.0
29207,61.0,60,59,14.0,0.0
29208,64.0,60,59,14.0,0.0
29209,55.0,0,59,14.0,0.0
29210,59.0,0,119,11.0,0.0
29211,59.0,0,119,3.0,0.0
29212,57.0,0,119,14.0,0.0
29213,47.0,0,119,3.0,0.0
29214,59.0,0,119,15.0,0.0
29215,59.0,0,119,6.0,0.0
29216,47.0,60,119,15.0,0.0
29217,45.0,0,359,15.0,0.0
29218,73.0,60,59,13.0,0.0
29219,57.0,0,359,6.0,0.0
29220,57.0,0,359,3.0,0.0
29221,57.0,0,359,11.0,0.0
29222,73.0,0,239,6.0,0.0
29223,45.0,0,359,3.0,0.0
29224,73.0,60,239,10.0,0.0
29225,69.0,60,119,5.0,0.0
29226,57.0,0,359,4.0,0.0
29227,57.0,60,359,15.0,0.0
29228,45.0,0,359,4.0,0.0
29229,45.0,0,119,7.0,0.0
29230,73.0,0,239,2.0,0.0
29231,64.0,0,59,13.0,0.0
29232,66.0,60,59,13.0,0.0
29233,68.0,0,59,13.0,0.0
29234,73.0,15,104,10.0,0.0
29235,73.0,0,119,6.0,0.0
29236,69.0,45,59,13.0,0.0
29237,73.0,0,119,2.0,0.0
29238,73.0,0,59,13.0,0.0
29239,59.0,0,239,6.0,0.0
29240,81.0,0,359,1.0,0.0
29241,81.0,0,359,5.0,0.0
29242,45.0,0,239,4.0,0.0
29243,59.0,0,239,11.0,0.0
29244,74.0,0,239,10.0,0.0
29245,74.0,0,239,2.0,0.0
29246,81.0,0,359,12.0,0.0
29247,57.0,0,239,4.0,0.0
29248,81.0,0,359,8.0,0.0
29249,59.0,0,239,3.0,0.0
29250,47.0,0,239,3.0,0.0
29251,74.0,60,59,13.0,0.0
29252,47.0,60,239,15.0,0.0
29253,93.0,0,359,0.0,0.0
29254,59.0,0,239,15.0,0.0
29255,69.0,60,59,13.0,0.0
29256,74.0,60,59,13.0,0.0
29257,69.0,0,59,13.0,0.0
29258,61.0,0,119,3.0,0.0
29259,61.0,0,119,6.0,0.0
29260,61.0,0,119,15.0,0.0
29261,76.0,60,59,13.0,0.0
29262,45.0,0,119,4.0,0.0
29263,61.0,0,119,11.0,0.0
29264,76.0,0,119,10.0,0.0
29265,49.0,0,119,15.0,0.0
29266,49.0,0,119,3.0,0.0
29267,76.0,0,119,2.0,0.0
29268,57.0,0,119,4.0,0.0
29269,69.0,60,59,13.0,0.0
29270,64.0,0,239,6.0,0.0
29271,52.0,0,959,3.0,0.0
29272,64.0,0,239,3.0,0.0
29273,64.0,60,59,14.0,0.0
29274,76.0,0,239,10.0,0.0
29275,80.0,0,359,1.0,0.0
29276,80.0,0,359,8.0,0.0
29277,64.0,0,239,11.0,0.0
29278,76.0,0,59,13.0,0.0
29279,40.0,0,959,3.0,0.0
29280,40.0,0,959,15.0,0.0
29281,92.0,0,359,0.0,0.0
29282,52.0,0,959,11.0,0.0
29283,80.0,0,359,12.0,0.0
29284,52.0,0,959,6.0,0.0
29285,64.0,0,239,15.0,0.0
29286,64.0,0,239,4.0,0.0
29287,76.0,60,239,2.0,0.0
29288,78.0,60,59,13.0,0.0
29289,52.0,0,59,14.0,0.0
29290,76.0,60,59,13.0,0.0
29291,64.0,0,59,14.0,0.0
29292,64.0,0,59,14.0,0.0
29293,74.0,0,59,13.0,0.0
29294,64.0,0,119,15.0,0.0
29295,64.0,0,119,4.0,0.0
29296,64.0,0,119,14.0,0.0
29297,64.0,0,119,3.0,0.0
29298,64.0,0,119,11.0,0.0
29299,74.0,0,119,10.0,0.0
29300,76.0,60,59,13.0,0.0
29301,64.0,60,119,6.0,0.0
29302,74.0,0,119,2.0,0.0
29303,74.0,0,59,13.0,0.0
29304,73.0,60,239,6.0,0.0
29305,73.0,60,59,13.0,0.0
29306,52.0,0,599,15.0,0.0
29307,76.0,15,344,8.0,0.0
29308,76.0,0,359,5.0,0.0
29309,73.0,0,239,10.0,0.0
29310,88.0,0,359,0.0,0.0
29311,76.0,0,359,12.0,0.0
29312,73.0,0,239,2.0,0.0
29313,76.0,60,359,1.0,0.0
29314,74.0,60,59,13.0,0.0
29315,73.0,60,59,13.0,0.0
29316,71.0,0,59,13.0,0.0
29317,71.0,0,119,2.0,0.0
29318,71.0,0,104,10.0,0.0
29319,71.0,0,119,6.0,0.0
29320,73.0,45,59,13.0,0.0
29321,71.0,0,59,13.0,0.0
29322,78.0,0,359,12.0,0.0
29323,69.0,0,239,10.0,0.0
29324,69.0,0,239,6.0,0.0
29325,69.0,0,239,2.0,0.0
29326,69.0,60,59,13.0,0.0
29327,90.0,0,359,0.0,0.0
29328,78.0,0,359,8.0,0.0
29329,78.0,0,359,5.0,0.0
29330,78.0,0,359,1.0,0.0
29331,57.0,60,59,13.0,0.0
29332,66.0,60,59,13.0,0.0
29333,68.0,60,59,13.0,0.0
29334,69.0,60,59,13.0,0.0
29335,50.0,0,119,7.0,0.0
29336,38.0,0,119,3.0,0.0
29337,50.0,0,119,15.0,0.0
29338,74.0,0,119,5.0,0.0
29339,50.0,0,119,11.0,0.0
29340,69.0,0,119,10.0,0.0
29341,62.0,0,119,4.0,0.0
29342,50.0,0,119,4.0,0.0
29343,69.0,0,119,2.0,0.0
29344,69.0,0,119,6.0,0.0
29345,50.0,60,119,3.0,0.0
29346,50.0,0,119,6.0,0.0
29347,38.0,0,119,15.0,0.0
29348,66.0,0,59,13.0,0.0
29349,90.0,0,359,0.0,0.0
29350,71.0,0,239,6.0,0.0
29351,50.0,60,119,7.0,0.0
29352,78.0,0,359,5.0,0.0
29353,50.0,0,239,15.0,0.0
29354,78.0,0,359,1.0,0.0
29355,74.0,0,119,5.0,0.0
29356,62.0,0,239,6.0,0.0
29357,71.0,0,239,10.0,0.0
29358,62.0,0,239,11.0,0.0
29359,62.0,0,239,3.0,0.0
29360,78.0,0,359,12.0,0.0
29361,78.0,0,359,8.0,0.0
29362,62.0,0,119,4.0,0.0
29363,71.0,60,239,2.0,0.0
29364,50.0,0,239,3.0,0.0
29365,71.0,60,59,13.0,0.0
29366,50.0,0,119,4.0,0.0
29367,62.0,0,239,15.0,0.0
29368,62.0,0,59,13.0,0.0
29369,69.0,60,59,13.0,0.0
29370,71.0,0,59,13.0,0.0
29371,45.0,0,119,4.0,0.0
29372,57.0,0,119,4.0,0.0
29373,73.0,60,59,13.0,0.0
29374,73.0,0,119,6.0,0.0
29375,45.0,0,119,7.0,0.0
29376,57.0,0,839,6.0,0.0
29377,73.0,60,119,2.0,0.0
29378,57.0,0,839,11.0,0.0
29379,69.0,0,119,5.0,0.0
29380,45.0,0,119,3.0,0.0
29381,73.0,0,119,10.0,0.0
29382,45.0,0,119,15.0,0.0
29383,57.0,0,119,15.0,0.0
29384,57.0,0,119,3.0,0.0
29385,69.0,0,59,13.0,0.0
29386,66.0,0,239,11.0,0.0
29387,57.0,0,119,5.0,0.0
29388,76.0,0,359,5.0,0.0
29389,69.0,0,239,6.0,0.0
29390,73.0,0,239,6.0,0.0
29391,73.0,0,239,2.0,0.0
29392,45.0,0,719,15.0,0.0
29393,57.0,0,719,3.0,0.0
29394,69.0,0,239,3.0,0.0
29395,45.0,0,119,7.0,0.0
29396,88.0,0,359,0.0,0.0
29397,69.0,0,239,15.0,0.0
29398,45.0,0,719,3.0,0.0
29399,73.0,0,239,10.0,0.0
29400,69.0,60,59,14.0,0.0
29401,76.0,0,359,12.0,0.0
29402,73.0,0,59,13.0,0.0
29403,76.0,60,359,8.0,0.0
29404,76.0,0,359,1.0,0.0
29405,69.0,60,239,4.0,0.0
29406,74.0,0,59,13.0,0.0
29407,57.0,60,59,14.0,0.0
29408,73.0,0,59,13.0,0.0
29409,69.0,60,59,14.0,0.0
29410,69.0,0,59,14.0,0.0
29411,71.0,0,59,13.0,0.0
29412,71.0,0,119,10.0,0.0
29413,71.0,0,119,2.0,0.0
29414,69.0,0,119,4.0,0.0
29415,71.0,0,119,6.0,0.0
29416,69.0,0,119,14.0,0.0
29417,69.0,0,119,3.0,0.0
29418,66.0,0,119,11.0,0.0
29419,73.0,60,59,13.0,0.0
29420,69.0,0,119,15.0,0.0
29421,69.0,0,119,6.0,0.0
29422,71.0,0,59,13.0,0.0
29423,73.0,0,359,1.0,0.0
29424,69.0,60,59,13.0,0.0
29425,57.0,0,359,15.0,0.0
29426,69.0,0,239,10.0,0.0
29427,73.0,0,359,12.0,0.0
29428,69.0,60,239,6.0,0.0
29429,69.0,0,239,2.0,0.0
29430,85.0,0,359,0.0,0.0
29431,73.0,0,344,8.0,0.0
29432,71.0,60,59,13.0,0.0
29433,69.0,60,59,13.0,0.0
29434,67.0,0,59,13.0,0.0
29435,69.0,45,59,13.0,0.0
29436,67.0,0,119,6.0,0.0
29437,67.0,15,104,10.0,0.0
29438,67.0,60,119,2.0,0.0
29439,67.0,0,59,13.0,0.0
29440,66.0,0,239,2.0,0.0
29441,59.0,0,359,6.0,0.0
29442,59.0,60,359,3.0,0.0
29443,66.0,60,239,6.0,0.0
29444,66.0,60,59,13.0,0.0
29445,59.0,0,359,15.0,0.0
29446,66.0,0,239,10.0,0.0
29447,47.0,0,359,15.0,0.0
29448,47.0,0,359,3.0,0.0
29449,86.0,0,359,0.0,0.0
29450,74.0,0,359,1.0,0.0
29451,74.0,0,359,12.0,0.0
29452,59.0,0,359,11.0,0.0
29453,74.0,0,359,8.0,0.0
29454,74.0,0,359,5.0,0.0
29455,61.0,60,59,13.0,0.0
29456,62.0,60,59,13.0,0.0
29457,64.0,0,59,13.0,0.0
29458,66.0,0,119,6.0,0.0
29459,66.0,60,59,13.0,0.0
29460,66.0,0,119,10.0,0.0
29461,66.0,0,119,2.0,0.0
29462,62.0,0,59,13.0,0.0
29463,52.0,0,359,6.0,0.0
29464,86.0,0,359,0.0,0.0
29465,52.0,0,359,3.0,0.0
29466,68.0,60,59,13.0,0.0
29467,59.0,0,239,3.0,0.0
29468,59.0,0,239,11.0,0.0
29469,40.0,0,359,3.0,0.0
29470,74.0,0,359,12.0,0.0
29471,68.0,0,239,2.0,0.0
29472,40.0,0,359,15.0,0.0
29473,59.0,0,359,6.0,0.0
29474,74.0,60,359,8.0,0.0
29475,74.0,0,359,1.0,0.0
29476,52.0,0,359,11.0,0.0
29477,74.0,0,359,5.0,0.0
29478,52.0,0,359,15.0,0.0
29479,68.0,60,239,10.0,0.0
29480,59.0,0,59,14.0,0.0
29481,68.0,0,239,6.0,0.0
29482,64.0,0,59,13.0,0.0
29483,61.0,60,59,14.0,0.0
29484,66.0,0,59,13.0,0.0
29485,59.0,60,59,14.0,0.0
29486,59.0,0,59,14.0,0.0
29487,68.0,0,59,13.0,0.0
29488,69.0,0,119,6.0,0.0
29489,69.0,0,119,10.0,0.0
29490,69.0,0,119,2.0,0.0
29491,61.0,0,59,3.0,0.0
29492,69.0,0,59,13.0,0.0
29493,59.0,0,119,11.0,0.0
29494,61.0,60,59,14.0,0.0
29495,68.0,0,59,13.0,0.0
29496,59.0,0,59,14.0,0.0
29497,59.0,0,59,3.0,0.0
29498,69.0,0,239,2.0,0.0
29499,42.0,0,239,3.0,0.0
29500,73.0,0,359,8.0,0.0
29501,54.0,0,239,3.0,0.0
29502,54.0,0,239,11.0,0.0
29503,69.0,0,239,10.0,0.0
29504,54.0,0,239,6.0,0.0
29505,57.0,0,239,6.0,0.0
29506,57.0,60,239,11.0,0.0
29507,57.0,0,239,3.0,0.0
29508,69.0,60,59,13.0,0.0
29509,69.0,0,239,6.0,0.0
29510,57.0,0,59,14.0,0.0
29511,73.0,0,359,1.0,0.0
29512,85.0,0,359,0.0,0.0
29513,73.0,60,359,12.0,0.0
29514,54.0,0,239,15.0,0.0
29515,42.0,0,239,15.0,0.0
29516,57.0,0,59,14.0,0.0
29517,71.0,60,59,13.0,0.0
29518,57.0,0,59,14.0,0.0
29519,69.0,60,59,13.0,0.0
29520,67.0,0,59,13.0,0.0
29521,59.0,0,59,14.0,0.0
29522,69.0,0,59,13.0,0.0
29523,67.0,0,119,10.0,0.0
29524,64.0,0,119,6.0,0.0
29525,64.0,0,119,3.0,0.0
29526,61.0,0,119,3.0,0.0
29527,52.0,0,119,15.0,0.0
29528,64.0,0,119,11.0,0.0
29529,61.0,60,59,14.0,0.0
29530,67.0,0,119,6.0,0.0
29531,61.0,0,119,11.0,0.0
29532,64.0,0,119,15.0,0.0
29533,67.0,0,119,2.0,0.0
29534,52.0,0,119,3.0,0.0
29535,61.0,0,119,6.0,0.0
29536,57.0,0,59,14.0,0.0
29537,67.0,0,59,13.0,0.0
29538,69.0,0,359,12.0,0.0
29539,62.0,0,239,15.0,0.0
29540,69.0,0,359,1.0,0.0
29541,81.0,0,359,0.0,0.0
29542,57.0,0,359,4.0,0.0
29543,66.0,0,59,13.0,0.0
29544,50.0,0,239,15.0,0.0
29545,50.0,60,239,3.0,0.0
29546,69.0,0,359,5.0,0.0
29547,66.0,0,239,2.0,0.0
29548,69.0,0,359,8.0,0.0
29549,66.0,0,239,6.0,0.0
29550,62.0,0,239,3.0,0.0
29551,45.0,60,119,7.0,0.0
29552,62.0,0,239,6.0,0.0
29553,66.0,0,239,10.0,0.0
29554,62.0,60,59,14.0,0.0
29555,57.0,0,119,5.0,0.0
29556,62.0,0,239,11.0,0.0
29557,57.0,0,59,14.0,0.0
29558,67.0,0,59,13.0,0.0
29559,66.0,0,59,13.0,0.0
29560,62.0,60,59,14.0,0.0
29561,57.0,0,59,14.0,0.0
29562,64.0,0,59,13.0,0.0
29563,49.0,0,119,15.0,0.0
29564,64.0,0,119,11.0,0.0
29565,61.0,0,119,15.0,0.0
29566,64.0,0,119,6.0,0.0
29567,66.0,0,59,13.0,0.0
29568,61.0,0,119,6.0,0.0
29569,64.0,0,119,2.0,0.0
29570,61.0,60,119,3.0,0.0
29571,64.0,0,119,3.0,0.0
29572,64.0,45,59,14.0,0.0
29573,61.0,0,104,11.0,0.0
29574,49.0,0,119,3.0,0.0
29575,64.0,15,104,10.0,0.0
29576,57.0,0,59,14.0,0.0
29577,64.0,0,59,13.0,0.0
29578,74.0,0,239,10.0,0.0
29579,59.0,60,119,6.0,0.0
29580,47.0,0,119,15.0,0.0
29581,79.0,0,359,5.0,0.0
29582,69.0,0,119,5.0,0.0
29583,64.0,0,359,11.0,0.0
29584,45.0,0,119,7.0,0.0
29585,91.0,0,359,0.0,0.0
29586,64.0,0,359,3.0,0.0
29587,57.0,0,359,4.0,0.0
29588,64.0,0,359,4.0,0.0
29589,74.0,0,239,2.0,0.0
29590,79.0,0,359,8.0,0.0
29591,47.0,0,119,3.0,0.0
29592,59.0,0,119,3.0,0.0
29593,79.0,0,359,1.0,0.0
29594,59.0,0,119,15.0,0.0
29595,64.0,60,59,14.0,0.0
29596,64.0,0,359,6.0,0.0
29597,79.0,0,359,12.0,0.0
29598,74.0,0,59,13.0,0.0
29599,59.0,0,119,11.0,0.0
29600,76.0,0,59,13.0,0.0
29601,57.0,0,59,14.0,0.0
29602,74.0,60,59,13.0,0.0
29603,45.0,0,239,3.0,0.0
29604,57.0,0,239,15.0,0.0
29605,64.0,0,59,14.0,0.0
29606,57.0,0,239,11.0,0.0
29607,57.0,0,239,3.0,0.0
29608,45.0,0,239,15.0,0.0
29609,57.0,0,239,6.0,0.0
29610,73.0,60,59,13.0,0.0
29611,57.0,0,59,14.0,0.0
29612,74.0,0,59,13.0,0.0
29613,64.0,60,59,14.0,0.0
29614,73.0,0,119,2.0,0.0
29615,73.0,0,119,10.0,0.0
29616,73.0,60,59,13.0,0.0
29617,57.0,0,59,14.0,0.0
29618,57.0,0,359,15.0,0.0
29619,71.0,60,239,2.0,0.0
29620,79.0,0,359,1.0,0.0
29621,45.0,0,119,7.0,0.0
29622,45.0,0,359,3.0,0.0
29623,62.0,0,239,3.0,0.0
29624,69.0,0,119,5.0,0.0
29625,79.0,60,359,5.0,0.0
29626,57.0,0,359,3.0,0.0
29627,62.0,0,59,14.0,0.0
29628,79.0,0,359,8.0,0.0
29629,62.0,0,239,6.0,0.0
29630,71.0,15,224,10.0,0.0
29631,91.0,0,359,0.0,0.0
29632,45.0,0,359,15.0,0.0
29633,57.0,0,359,11.0,0.0
29634,64.0,0,359,4.0,0.0
29635,57.0,0,359,6.0,0.0
29636,71.0,60,59,13.0,0.0
29637,79.0,0,359,12.0,0.0
29638,57.0,0,359,4.0,0.0
29639,62.0,0,239,11.0,0.0
29640,73.0,0,59,13.0,0.0
29641,57.0,60,59,14.0,0.0
29642,71.0,0,59,13.0,0.0
29643,62.0,45,59,14.0,0.0
29644,57.0,0,59,14.0,0.0
29645,64.0,0,59,13.0,0.0
29646,69.0,0,59,13.0,0.0
29647,61.0,0,359,3.0,0.0
29648,61.0,0,119,6.0,0.0
29649,62.0,60,59,14.0,0.0
29650,76.0,0,119,2.0,0.0
29651,76.0,0,119,10.0,0.0
29652,61.0,60,359,11.0,0.0
29653,64.0,0,59,13.0,0.0
29654,61.0,0,59,14.0,0.0
29655,78.0,0,359,8.0,0.0
29656,58.0,0,359,6.0,0.0
29657,66.0,0,359,5.0,0.0
29658,46.0,0,359,3.0,0.0
29659,73.0,0,239,2.0,0.0
29660,78.0,0,359,12.0,0.0
29661,54.0,0,359,4.0,0.0
29662,90.0,60,359,0.0,0.0
29663,58.0,0,359,15.0,0.0
29664,73.0,0,239,6.0,0.0
29665,73.0,60,59,13.0,0.0
29666,46.0,0,359,15.0,0.0
29667,78.0,0,359,1.0,0.0
29668,78.0,0,359,5.0,0.0
29669,73.0,0,239,10.0,0.0
29670,61.0,0,59,14.0,0.0
29671,66.0,0,359,4.0,0.0
29672,61.0,0,59,14.0,0.0
29673,74.0,60,59,13.0,0.0
29674,73.0,0,59,13.0,0.0
29675,61.0,60,59,14.0,0.0
29676,61.0,0,59,14.0,0.0
29677,71.0,0,59,13.0,0.0
29678,73.0,0,119,2.0,0.0
29679,73.0,0,119,6.0,0.0
29680,58.0,60,59,14.0,0.0
29681,73.0,0,119,10.0,0.0
29682,58.0,0,119,3.0,0.0
29683,73.0,0,59,13.0,0.0
29684,58.0,0,119,11.0,0.0
29685,71.0,0,59,13.0,0.0
29686,58.0,0,59,14.0,0.0
29687,42.0,0,359,3.0,0.0
29688,54.0,0,359,15.0,0.0
29689,54.0,0,359,3.0,0.0
29690,73.0,60,359,6.0,0.0
29691,73.0,0,59,13.0,0.0
29692,73.0,0,359,10.0,0.0
29693,59.0,60,59,14.0,0.0
29694,73.0,0,359,2.0,0.0
29695,58.0,0,239,6.0,0.0
29696,54.0,0,359,6.0,0.0
29697,54.0,0,359,4.0,0.0
29698,42.0,0,359,15.0,0.0
29699,54.0,0,359,11.0,0.0
29700,59.0,60,59,14.0,0.0
29701,66.0,0,59,13.0,0.0
29702,59.0,0,59,14.0,0.0
29703,70.0,60,59,13.0,0.0
29704,71.0,0,59,13.0,0.0
29705,59.0,0,59,14.0,0.0
29706,61.0,60,59,14.0,0.0
29707,61.0,0,359,3.0,0.0
29708,61.0,0,359,11.0,0.0
29709,73.0,0,119,13.0,0.0
29710,61.0,0,59,14.0,0.0
29711,64.0,0,359,6.0,0.0
29712,52.0,0,359,15.0,0.0
29713,78.0,0,359,1.0,0.0
29714,78.0,0,359,8.0,0.0
29715,66.0,0,359,5.0,0.0
29716,78.0,60,359,5.0,0.0
29717,64.0,0,359,3.0,0.0
29718,61.0,60,239,6.0,0.0
29719,90.0,0,359,0.0,0.0
29720,61.0,60,59,14.0,0.0
29721,64.0,0,359,11.0,0.0
29722,64.0,0,359,4.0,0.0
29723,52.0,0,359,3.0,0.0
29724,78.0,0,359,12.0,0.0
29725,64.0,0,359,15.0,0.0
29726,62.0,60,59,14.0,0.0
29727,61.0,60,59,14.0,0.0
29728,59.0,0,59,14.0,0.0
29729,61.0,60,59,14.0,0.0
29730,58.0,60,359,11.0,0.0
29731,58.0,0,359,3.0,0.0
29732,58.0,0,59,14.0,0.0
29733,64.0,0,359,11.0,0.0
29734,78.0,0,359,1.0,0.0
29735,58.0,0,59,14.0,0.0
29736,78.0,0,359,8.0,0.0
29737,52.0,0,359,15.0,0.0
29738,64.0,0,359,3.0,0.0
29739,64.0,0,359,15.0,0.0
29740,66.0,0,599,6.0,0.0
29741,58.0,0,239,6.0,0.0
29742,78.0,0,359,5.0,0.0
29743,64.0,0,359,4.0,0.0
29744,90.0,0,359,0.0,0.0
29745,66.0,0,359,5.0,0.0
29746,66.0,60,59,13.0,0.0
29747,78.0,0,359,12.0,0.0
29748,66.0,0,359,2.0,0.0
29749,64.0,0,359,6.0,0.0
29750,52.0,60,359,3.0,0.0
29751,66.0,0,359,10.0,0.0
29752,59.0,60,59,14.0,0.0
29753,61.0,0,59,13.0,0.0
29754,58.0,60,59,14.0,0.0
29755,66.0,0,59,13.0,0.0
29756,61.0,0,59,13.0,0.0
29757,54.0,0,59,14.0,0.0
29758,54.0,0,119,6.0,0.0
29759,54.0,60,59,14.0,0.0
29760,54.0,0,359,11.0,0.0
29761,54.0,0,119,3.0,0.0
29762,66.0,0,59,13.0,0.0
29763,61.0,0,59,13.0,0.0
29764,54.0,0,59,14.0,0.0
29765,54.0,0,359,4.0,0.0
29766,78.0,0,359,12.0,0.0
29767,66.0,0,239,10.0,0.0
29768,54.0,0,239,3.0,0.0
29769,78.0,0,359,1.0,0.0
29770,63.0,0,359,15.0,0.0
29771,63.0,0,359,3.0,0.0
29772,78.0,60,359,8.0,0.0
29773,66.0,0,359,4.0,0.0
29774,66.0,0,239,2.0,0.0
29775,54.0,0,59,14.0,0.0
29776,51.0,0,359,3.0,0.0
29777,63.0,0,359,11.0,0.0
29778,78.0,0,359,5.0,0.0
29779,66.0,0,359,5.0,0.0
29780,66.0,60,59,13.0,0.0
29781,51.0,0,359,15.0,0.0
29782,63.0,0,359,6.0,0.0
29783,90.0,0,359,0.0,0.0
29784,54.0,0,239,6.0,0.0
29785,54.0,60,59,14.0,0.0
29786,63.0,0,59,13.0,0.0
29787,66.0,60,59,13.0,0.0
29788,54.0,0,59,14.0,0.0
29789,63.0,0,59,13.0,0.0
29790,54.0,60,59,14.0,0.0
29791,66.0,0,59,13.0,0.0
29792,59.0,0,119,3.0,0.0
29793,63.0,0,359,2.0,0.0
29794,63.0,0,359,10.0,0.0
29795,59.0,60,59,14.0,0.0
29796,59.0,0,119,11.0,0.0
29797,63.0,0,59,13.0,0.0
29798,59.0,0,59,14.0,0.0
29799,59.0,0,359,11.0,0.0
29800,59.0,60,59,14.0,0.0
29801,59.0,0,359,6.0,0.0
29802,71.0,0,359,12.0,0.0
29803,59.0,0,359,3.0,0.0
29804,83.0,0,359,0.0,0.0
29805,63.0,0,59,13.0,0.0
29806,63.0,0,239,6.0,0.0
29807,71.0,0,359,8.0,0.0
29808,71.0,0,359,1.0,0.0
29809,66.0,0,59,13.0,0.0
29810,61.0,60,59,14.0,0.0
29811,63.0,60,59,13.0,0.0
29812,59.0,0,59,14.0,0.0
29813,66.0,0,59,13.0,0.0
29814,61.0,60,59,14.0,0.0
29815,66.0,60,359,2.0,0.0
29816,66.0,0,359,10.0,0.0
29817,63.0,0,59,13.0,0.0
29818,59.0,60,59,14.0,0.0
29819,66.0,0,59,13.0,0.0
29820,61.0,60,59,14.0,0.0
29821,81.0,0,359,12.0,0.0
29822,47.0,60,359,3.0,0.0
29823,66.0,60,59,13.0,0.0
29824,81.0,0,359,8.0,0.0
29825,47.0,0,359,15.0,0.0
29826,59.0,0,359,3.0,0.0
29827,59.0,0,359,15.0,0.0
29828,59.0,0,359,11.0,0.0
29829,93.0,0,359,0.0,0.0
29830,81.0,0,359,1.0,0.0
29831,59.0,0,239,6.0,0.0
29832,63.0,60,59,13.0,0.0
29833,66.0,60,59,13.0,0.0
29834,63.0,0,59,13.0,0.0
29835,66.0,60,59,13.0,0.0
29836,63.0,0,359,2.0,0.0
29837,63.0,0,359,10.0,0.0
29838,63.0,0,59,13.0,0.0
29839,81.0,0,359,8.0,0.0
29840,59.0,0,359,15.0,0.0
29841,59.0,0,719,3.0,0.0
29842,54.0,60,239,11.0,0.0
29843,59.0,60,59,14.0,0.0
29844,63.0,0,59,13.0,0.0
29845,81.0,60,359,1.0,0.0
29846,47.0,0,359,15.0,0.0
29847,54.0,0,239,6.0,0.0
29848,63.0,0,239,6.0,0.0
29849,47.0,0,359,3.0,0.0
29850,93.0,0,359,0.0,0.0
29851,59.0,0,359,6.0,0.0
29852,81.0,0,359,12.0,0.0
29853,61.0,60,59,14.0,0.0
29854,59.0,0,59,13.0,0.0
29855,63.0,0,59,13.0,0.0
29856,59.0,60,59,14.0,0.0
29857,59.0,0,59,13.0,0.0
29858,61.0,0,59,14.0,0.0
29859,59.0,0,359,10.0,0.0
29860,59.0,0,359,2.0,0.0
29861,59.0,0,119,11.0,0.0
29862,63.0,60,59,13.0,0.0
29863,59.0,0,59,14.0,0.0
29864,59.0,0,59,13.0,0.0
29865,59.0,0,59,14.0,0.0
29866,59.0,0,359,15.0,0.0
29867,92.0,0,359,0.0,0.0
29868,80.0,15,344,8.0,0.0
29869,80.0,0,359,12.0,0.0
29870,47.0,0,359,3.0,0.0
29871,59.0,0,239,6.0,0.0
29872,59.0,0,239,11.0,0.0
29873,59.0,0,59,13.0,0.0
29874,59.0,60,59,14.0,0.0
29875,47.0,0,359,15.0,0.0
29876,80.0,0,359,1.0,0.0
29877,64.0,60,59,13.0,0.0
29878,52.0,0,59,14.0,0.0
29879,59.0,0,59,13.0,0.0
29880,59.0,60,59,14.0,0.0
29881,64.0,0,59,13.0,0.0
29882,52.0,60,59,14.0,0.0
29883,59.0,45,59,14.0,0.0
29884,64.0,0,119,2.0,0.0
29885,59.0,0,59,13.0,0.0
29886,64.0,0,119,10.0,0.0
29887,52.0,0,359,3.0,0.0
29888,52.0,0,59,14.0,0.0
29889,64.0,0,59,13.0,0.0
29890,79.0,0,359,12.0,0.0
29891,49.0,0,359,3.0,0.0
29892,64.0,0,359,2.0,0.0
29893,91.0,0,359,0.0,0.0
29894,79.0,0,359,1.0,0.0
29895,37.0,0,359,3.0,0.0
29896,79.0,0,359,8.0,0.0
29897,59.0,0,59,13.0,0.0
29898,52.0,0,359,15.0,0.0
29899,59.0,60,59,14.0,0.0
29900,52.0,0,239,11.0,0.0
29901,37.0,0,359,15.0,0.0
29902,59.0,0,239,6.0,0.0
29903,52.0,0,359,6.0,0.0
29904,64.0,0,359,10.0,0.0
29905,64.0,60,59,13.0,0.0
29906,52.0,0,59,14.0,0.0
29907,59.0,0,59,13.0,0.0
29908,59.0,60,59,14.0,0.0
29909,64.0,60,59,13.0,0.0
29910,52.0,0,59,14.0,0.0
29911,64.0,0,359,3.0,0.0
29912,64.0,60,119,6.0,0.0
29913,64.0,0,119,13.0,0.0
29914,59.0,60,59,14.0,0.0
29915,64.0,60,359,11.0,0.0
29916,64.0,0,59,14.0,0.0
29917,79.0,0,359,12.0,0.0
29918,62.0,0,359,11.0,0.0
29919,64.0,60,359,4.0,0.0
29920,79.0,0,359,8.0,0.0
29921,91.0,0,359,0.0,0.0
29922,79.0,0,359,5.0,0.0
29923,50.0,0,359,3.0,0.0
29924,76.0,60,119,5.0,0.0
29925,50.0,0,359,15.0,0.0
29926,79.0,0,359,1.0,0.0
29927,58.0,60,59,14.0,0.0
29928,64.0,0,59,13.0,0.0
29929,62.0,0,359,15.0,0.0
29930,50.0,0,119,7.0,0.0
29931,62.0,0,359,3.0,0.0
29932,62.0,0,359,6.0,0.0
29933,67.0,0,59,13.0,0.0
29934,64.0,0,59,14.0,0.0
29935,58.0,60,59,14.0,0.0
29936,64.0,0,59,13.0,0.0
29937,67.0,0,59,13.0,0.0
29938,64.0,0,59,14.0,0.0
29939,58.0,60,59,14.0,0.0
29940,58.0,0,119,11.0,0.0
29941,64.0,0,59,13.0,0.0
29942,58.0,0,119,3.0,0.0
29943,64.0,0,59,14.0,0.0
29944,67.0,0,59,13.0,0.0
29945,79.0,0,359,1.0,0.0
29946,61.0,0,359,3.0,0.0
29947,61.0,0,359,11.0,0.0
29948,57.0,60,239,6.0,0.0
29949,79.0,0,359,12.0,0.0
29950,64.0,0,59,13.0,0.0
29951,45.0,60,119,7.0,0.0
29952,79.0,0,359,5.0,0.0
29953,57.0,0,239,3.0,0.0
29954,57.0,60,59,14.0,0.0
29955,91.0,0,359,0.0,0.0
29956,64.0,0,359,4.0,0.0
29957,79.0,0,359,8.0,0.0
29958,57.0,0,239,11.0,0.0
29959,61.0,0,359,6.0,0.0
29960,49.0,0,359,15.0,0.0
29961,57.0,0,359,4.0,0.0
29962,61.0,0,359,15.0,0.0
29963,49.0,60,359,3.0,0.0
29964,69.0,0,119,5.0,0.0
29965,64.0,0,59,14.0,0.0
29966,67.0,0,59,13.0,0.0
29967,57.0,0,59,14.0,0.0
29968,64.0,60,59,13.0,0.0
29969,67.0,0,59,13.0,0.0
29970,64.0,0,59,14.0,0.0
29971,64.0,60,59,13.0,0.0
29972,64.0,0,359,3.0,0.0
29973,64.0,60,359,6.0,0.0
29974,57.0,0,59,14.0,0.0
29975,64.0,0,359,11.0,0.0
29976,67.0,0,59,13.0,0.0
29977,64.0,0,59,14.0,0.0
29978,78.0,0,359,8.0,0.0
29979,57.0,60,59,14.0,0.0
29980,78.0,0,359,12.0,0.0
29981,62.0,0,359,4.0,0.0
29982,64.0,0,59,13.0,0.0
29983,62.0,0,359,3.0,0.0
29984,78.0,0,359,1.0,0.0
29985,50.0,0,359,15.0,0.0
29986,50.0,60,119,7.0,0.0
29987,50.0,0,359,3.0,0.0
29988,78.0,0,359,5.0,0.0
29989,69.0,0,119,5.0,0.0
29990,90.0,0,359,0.0,0.0
29991,64.0,0,239,15.0,0.0
29992,64.0,0,59,14.0,0.0
29993,69.0,0,59,13.0,0.0
29994,64.0,0,59,13.0,0.0
29995,57.0,60,59,14.0,0.0
29996,64.0,0,59,14.0,0.0
29997,69.0,0,59,13.0,0.0
29998,62.0,0,119,15.0,0.0
29999,62.0,0,119,6.0,0.0
30000,62.0,0,59,13.0,0.0
30001,62.0,0,119,11.0,0.0
30002,57.0,60,59,14.0,0.0
30003,69.0,0,59,13.0,0.0
30004,62.0,0,59,14.0,0.0
30005,74.0,0,719,10.0,0.0
30006,66.0,0,239,3.0,0.0
30007,74.0,0,719,2.0,0.0
30008,66.0,0,239,6.0,0.0
30009,66.0,0,239,11.0,0.0
30010,66.0,0,239,15.0,0.0
30011,66.0,60,59,14.0,0.0
30012,74.0,0,719,13.0,0.0
30013,67.0,60,59,14.0,0.0
30014,66.0,60,59,14.0,0.0
30015,64.0,60,59,14.0,0.0
30016,64.0,0,359,6.0,0.0
30017,66.0,60,59,14.0,0.0
30018,64.0,0,359,3.0,0.0
30019,64.0,0,359,15.0,0.0
30020,64.0,60,359,11.0,0.0
30021,64.0,60,59,14.0,0.0
30022,78.0,0,239,1.0,0.0
30023,78.0,60,59,12.0,0.0
30024,78.0,0,239,8.0,0.0
30025,64.0,0,59,14.0,0.0
30026,90.0,0,239,0.0,0.0
30027,69.0,60,59,12.0,0.0
30028,66.0,0,59,14.0,0.0
30029,64.0,0,59,14.0,0.0
30030,73.0,60,59,12.0,0.0
30031,74.0,0,59,12.0,0.0
30032,62.0,0,59,14.0,0.0
30033,62.0,0,119,6.0,0.0
30034,76.0,45,59,12.0,0.0
30035,64.0,0,59,14.0,0.0
30036,62.0,0,119,15.0,0.0
30037,78.0,15,104,8.0,0.0
30038,62.0,0,119,3.0,0.0
30039,90.0,0,119,0.0,0.0
30040,78.0,0,119,1.0,0.0
30041,62.0,0,119,11.0,0.0
30042,78.0,0,59,12.0,0.0
30043,62.0,60,59,14.0,0.0
30044,79.0,0,239,8.0,0.0
30045,64.0,0,239,15.0,0.0
30046,64.0,60,59,14.0,0.0
30047,74.0,0,359,13.0,0.0
30048,74.0,0,359,2.0,0.0
30049,79.0,0,59,12.0,0.0
30050,91.0,0,239,0.0,0.0
30051,74.0,0,359,10.0,0.0
30052,64.0,0,239,6.0,0.0
30053,64.0,60,239,3.0,0.0
30054,64.0,0,239,11.0,0.0
30055,79.0,0,239,1.0,0.0
30056,64.0,60,59,14.0,0.0
30057,74.0,0,59,12.0,0.0
30058,64.0,60,59,14.0,0.0
30059,79.0,0,59,12.0,0.0
30060,74.0,0,59,12.0,0.0
30061,64.0,0,59,14.0,0.0
30062,66.0,0,119,11.0,0.0
30063,81.0,0,119,8.0,0.0
30064,66.0,60,119,6.0,0.0
30065,81.0,60,59,12.0,0.0
30066,81.0,0,119,1.0,0.0
30067,93.0,0,119,0.0,0.0
30068,66.0,0,119,3.0,0.0
30069,66.0,0,59,14.0,0.0
30070,66.0,0,119,15.0,0.0
30071,74.0,0,59,12.0,0.0
30072,66.0,0,59,14.0,0.0
30073,57.0,0,239,11.0,0.0
30074,81.0,60,59,12.0,0.0
30075,64.0,0,359,6.0,0.0
30076,64.0,0,359,15.0,0.0
30077,73.0,0,359,2.0,0.0
30078,73.0,0,359,6.0,0.0
30079,45.0,0,59,3.0,0.0
30080,81.0,0,239,8.0,0.0
30081,57.0,0,239,4.0,0.0
30082,57.0,0,59,3.0,0.0
30083,73.0,0,359,10.0,0.0
30084,45.0,0,59,15.0,0.0
30085,64.0,0,359,11.0,0.0
30086,73.0,0,359,13.0,0.0
30087,57.0,0,239,5.0,0.0
30088,45.0,0,239,7.0,0.0
30089,81.0,0,239,1.0,0.0
30090,45.0,0,239,4.0,0.0
30091,64.0,0,59,14.0,0.0
30092,93.0,0,239,0.0,0.0
30093,69.0,0,239,5.0,0.0
30094,64.0,0,359,3.0,0.0
30095,57.0,0,239,6.0,0.0
30096,64.0,0,59,14.0,0.0
30097,33.0,0,59,3.0,0.0
30098,33.0,60,59,15.0,0.0
30099,83.0,0,59,12.0,0.0
30100,45.0,0,59,3.0,0.0
30101,45.0,0,59,15.0,0.0
30102,64.0,0,59,14.0,0.0
30103,45.0,0,59,3.0,0.0
30104,81.0,0,59,12.0,0.0
30105,57.0,60,59,3.0,0.0
30106,57.0,0,59,3.0,0.0
30107,79.0,0,59,12.0,0.0
30108,45.0,60,59,3.0,0.0
30109,45.0,0,59,15.0,0.0
30110,64.0,0,59,14.0,0.0
30111,81.0,60,59,12.0,0.0
30112,57.0,0,119,5.0,0.0
30113,57.0,0,119,3.0,0.0
30114,79.0,0,119,1.0,0.0
30115,57.0,0,119,6.0,0.0
30116,45.0,0,119,4.0,0.0
30117,57.0,0,119,4.0,0.0
30118,69.0,0,119,5.0,0.0
30119,45.0,0,119,3.0,0.0
30120,45.0,0,119,7.0,0.0
30121,57.0,0,119,11.0,0.0
30122,64.0,0,59,14.0,0.0
30123,91.0,0,119,0.0,0.0
30124,45.0,0,119,15.0,0.0
30125,79.0,0,119,8.0,0.0
30126,79.0,60,59,12.0,0.0
30127,64.0,0,59,14.0,0.0
30128,69.0,0,359,6.0,0.0
30129,78.0,0,239,1.0,0.0
30130,69.0,60,359,13.0,0.0
30131,62.0,0,239,15.0,0.0
30132,69.0,0,359,2.0,0.0
30133,78.0,60,59,12.0,0.0
30134,90.0,0,239,0.0,0.0
30135,78.0,0,239,8.0,0.0
30136,62.0,0,239,3.0,0.0
30137,62.0,0,59,14.0,0.0
30138,62.0,0,239,11.0,0.0
30139,69.0,15,344,10.0,0.0
30140,79.0,0,59,12.0,0.0
30141,62.0,60,59,14.0,0.0
30142,78.0,0,59,12.0,0.0
30143,62.0,60,59,14.0,0.0
30144,76.0,0,59,12.0,0.0
30145,62.0,60,59,14.0,0.0
30146,61.0,60,359,11.0,0.0
30147,78.0,45,59,12.0,0.0
30148,61.0,0,359,6.0,0.0
30149,61.0,0,359,3.0,0.0
30150,61.0,0,359,15.0,0.0
30151,76.0,0,104,8.0,0.0
30152,76.0,0,119,1.0,0.0
30153,61.0,0,59,14.0,0.0
30154,88.0,0,119,0.0,0.0
30155,76.0,0,59,12.0,0.0
30156,61.0,0,59,14.0,0.0
30157,71.0,0,359,6.0,0.0
30158,74.0,0,59,12.0,0.0
30159,71.0,0,359,10.0,0.0
30160,74.0,0,239,8.0,0.0
30161,86.0,0,239,0.0,0.0
30162,71.0,0,359,2.0,0.0
30163,61.0,60,59,14.0,0.0
30164,71.0,0,359,13.0,0.0
30165,74.0,0,239,1.0,0.0
30166,61.0,60,59,14.0,0.0
30167,66.0,0,59,12.0,0.0
30168,71.0,0,59,12.0,0.0
30169,61.0,60,59,14.0,0.0
30170,61.0,0,59,14.0,0.0
30171,73.0,0,59,12.0,0.0
30172,86.0,0,119,0.0,0.0
30173,59.0,60,119,3.0,0.0
30174,59.0,0,119,11.0,0.0
30175,74.0,0,119,8.0,0.0
30176,59.0,0,119,15.0,0.0
30177,74.0,0,119,1.0,0.0
30178,74.0,60,59,12.0,0.0
30179,59.0,0,119,6.0,0.0
30180,59.0,0,59,14.0,0.0
30181,71.0,0,59,12.0,0.0
30182,59.0,0,59,14.0,0.0
30183,76.0,0,239,1.0,0.0
30184,61.0,0,59,14.0,0.0
30185,88.0,0,239,0.0,0.0
30186,71.0,0,359,13.0,0.0
30187,61.0,0,239,6.0,0.0
30188,71.0,0,359,2.0,0.0
30189,71.0,0,359,10.0,0.0
30190,61.0,0,239,3.0,0.0
30191,61.0,0,239,11.0,0.0
30192,76.0,60,239,8.0,0.0
30193,76.0,60,59,12.0,0.0
30194,71.0,60,359,6.0,0.0
30195,61.0,0,239,15.0,0.0
30196,61.0,0,59,14.0,0.0
30197,71.0,60,59,12.0,0.0
30198,61.0,0,59,14.0,0.0
30199,76.0,60,59,12.0,0.0
30200,71.0,0,59,12.0,0.0
30201,61.0,0,59,14.0,0.0
30202,78.0,0,59,12.0,0.0
30203,78.0,0,119,8.0,0.0
30204,78.0,0,119,1.0,0.0
30205,62.0,0,119,6.0,0.0
30206,62.0,0,359,15.0,0.0
30207,62.0,60,59,14.0,0.0
30208,90.0,0,119,0.0,0.0
30209,62.0,0,59,14.0,0.0
30210,71.0,0,59,12.0,0.0
30211,90.0,0,239,0.0,0.0
30212,78.0,0,59,12.0,0.0
30213,62.0,0,59,3.0,0.0
30214,69.0,0,359,10.0,0.0
30215,78.0,0,239,1.0,0.0
30216,50.0,60,59,15.0,0.0
30217,50.0,0,239,7.0,0.0
30218,74.0,0,239,5.0,0.0
30219,62.0,0,239,5.0,0.0
30220,50.0,0,239,4.0,0.0
30221,62.0,0,59,14.0,0.0
30222,78.0,0,239,8.0,0.0
30223,62.0,0,239,4.0,0.0
30224,69.0,0,359,2.0,0.0
30225,62.0,0,239,11.0,0.0
30226,62.0,0,239,6.0,0.0
30227,69.0,60,359,6.0,0.0
30228,69.0,0,359,13.0,0.0
30229,50.0,0,59,3.0,0.0
30230,38.0,60,59,15.0,0.0
30231,38.0,0,59,3.0,0.0
30232,62.0,0,59,14.0,0.0
30233,50.0,0,59,3.0,0.0
30234,79.0,0,59,12.0,0.0
30235,50.0,0,59,3.0,0.0
30236,62.0,0,59,14.0,0.0
30237,38.0,60,59,3.0,0.0
30238,38.0,0,59,15.0,0.0
30239,78.0,0,59,12.0,0.0
30240,50.0,0,59,3.0,0.0
30241,62.0,0,59,14.0,0.0
30242,50.0,0,59,15.0,0.0
30243,62.0,0,59,3.0,0.0
30244,76.0,0,59,12.0,0.0
30245,57.0,0,119,5.0,0.0
30246,61.0,0,119,15.0,0.0
30247,88.0,0,119,0.0,0.0
30248,61.0,60,59,14.0,0.0
30249,45.0,0,119,15.0,0.0
30250,76.0,0,119,8.0,0.0
30251,69.0,0,119,5.0,0.0
30252,45.0,0,119,3.0,0.0
30253,45.0,0,119,7.0,0.0
30254,76.0,0,119,1.0,0.0
30255,78.0,0,59,12.0,0.0
30256,61.0,0,119,3.0,0.0
30257,57.0,0,119,3.0,0.0
30258,61.0,0,119,11.0,0.0
30259,45.0,0,119,4.0,0.0
30260,57.0,0,119,6.0,0.0
30261,57.0,0,119,4.0,0.0
30262,57.0,0,119,11.0,0.0
30263,76.0,0,59,12.0,0.0
30264,61.0,0,59,14.0,0.0
30265,59.0,60,59,14.0,0.0
30266,74.0,0,239,8.0,0.0
30267,74.0,0,59,12.0,0.0
30268,66.0,15,344,10.0,0.0
30269,59.0,0,239,15.0,0.0
30270,66.0,0,359,2.0,0.0
30271,74.0,0,239,1.0,0.0
30272,66.0,0,359,13.0,0.0
30273,59.0,60,239,11.0,0.0
30274,66.0,0,359,6.0,0.0
30275,59.0,0,239,3.0,0.0
30276,86.0,0,239,0.0,0.0
30277,59.0,60,59,14.0,0.0
30278,76.0,0,59,12.0,0.0
30279,74.0,0,59,12.0,0.0
30280,59.0,60,59,14.0,0.0
30281,59.0,0,59,14.0,0.0
30282,73.0,0,59,12.0,0.0
30283,57.0,0,119,15.0,0.0
30284,74.0,0,59,12.0,0.0
30285,73.0,0,119,1.0,0.0
30286,85.0,0,119,0.0,0.0
30287,73.0,0,104,8.0,0.0
30288,57.0,45,59,14.0,0.0
30289,57.0,60,119,3.0,0.0
30290,57.0,0,119,11.0,0.0
30291,57.0,0,119,6.0,0.0
30292,73.0,0,59,12.0,0.0
30293,57.0,0,59,14.0,0.0
30294,64.0,60,239,6.0,0.0
30295,71.0,0,239,1.0,0.0
30296,68.0,0,359,6.0,0.0
30297,71.0,60,59,12.0,0.0
30298,68.0,0,359,13.0,0.0
30299,64.0,0,239,15.0,0.0
30300,83.0,0,239,0.0,0.0
30301,68.0,0,359,2.0,0.0
30302,64.0,0,239,3.0,0.0
30303,68.0,0,359,10.0,0.0
30304,71.0,0,239,8.0,0.0
30305,64.0,0,239,11.0,0.0
30306,64.0,0,59,14.0,0.0
30307,66.0,0,59,14.0,0.0
30308,64.0,60,59,12.0,0.0
30309,68.0,0,59,12.0,0.0
30310,64.0,60,59,14.0,0.0
30311,69.0,0,59,12.0,0.0
30312,66.0,0,59,14.0,0.0
30313,71.0,0,119,8.0,0.0
30314,83.0,0,119,0.0,0.0
30315,71.0,60,59,12.0,0.0
30316,62.0,0,119,3.0,0.0
30317,62.0,0,119,15.0,0.0
30318,62.0,60,119,6.0,0.0
30319,64.0,0,59,14.0,0.0
30320,71.0,0,119,1.0,0.0
30321,62.0,0,119,11.0,0.0
30322,64.0,0,59,12.0,0.0
30323,62.0,0,59,14.0,0.0
30324,61.0,0,239,11.0,0.0
30325,68.0,60,359,13.0,0.0
30326,40.0,0,239,15.0,0.0
30327,52.0,0,239,11.0,0.0
30328,52.0,0,239,3.0,0.0
30329,61.0,0,239,6.0,0.0
30330,68.0,0,359,6.0,0.0
30331,52.0,0,239,6.0,0.0
30332,61.0,0,239,3.0,0.0
30333,61.0,0,59,14.0,0.0
30334,73.0,0,239,8.0,0.0
30335,85.0,60,239,0.0,0.0
30336,68.0,0,359,10.0,0.0
30337,73.0,0,239,1.0,0.0
30338,40.0,0,239,3.0,0.0
30339,73.0,60,59,12.0,0.0
30340,61.0,0,239,15.0,0.0
30341,68.0,0,359,2.0,0.0
30342,69.0,0,59,12.0,0.0
30343,61.0,60,59,14.0,0.0
30344,71.0,60,59,12.0,0.0
30345,61.0,0,59,14.0,0.0
30346,73.0,0,59,12.0,0.0
30347,61.0,0,59,14.0,0.0
30348,52.0,0,119,11.0,0.0
30349,74.0,0,119,1.0,0.0
30350,52.0,0,119,3.0,0.0
30351,59.0,0,119,6.0,0.0
30352,59.0,0,119,3.0,0.0
30353,40.0,0,119,15.0,0.0
30354,86.0,0,119,0.0,0.0
30355,59.0,0,119,15.0,0.0
30356,59.0,0,119,11.0,0.0
30357,59.0,0,59,14.0,0.0
30358,74.0,0,119,8.0,0.0
30359,52.0,0,119,6.0,0.0
30360,74.0,60,59,12.0,0.0
30361,40.0,0,119,3.0,0.0
30362,59.0,0,59,14.0,0.0
30363,71.0,0,59,12.0,0.0
30364,50.0,60,59,14.0,0.0
30365,47.0,0,239,3.0,0.0
30366,50.0,0,239,3.0,0.0
30367,66.0,0,359,13.0,0.0
30368,50.0,15,224,11.0,0.0
30369,86.0,0,239,0.0,0.0
30370,47.0,0,239,6.0,0.0
30371,35.0,60,239,15.0,0.0
30372,74.0,0,239,8.0,0.0
30373,66.0,0,359,6.0,0.0
30374,50.0,0,119,7.0,0.0
30375,47.0,0,239,11.0,0.0
30376,66.0,0,359,10.0,0.0
30377,62.0,60,119,5.0,0.0
30378,74.0,0,119,5.0,0.0
30379,74.0,0,239,1.0,0.0
30380,66.0,0,359,2.0,0.0
30381,66.0,0,359,4.0,0.0
30382,35.0,0,239,3.0,0.0
30383,47.0,0,239,15.0,0.0
30384,74.0,0,59,12.0,0.0
30385,76.0,0,59,12.0,0.0
30386,62.0,0,59,14.0,0.0
30387,74.0,45,59,12.0,0.0
30388,50.0,0,59,14.0,0.0
30389,73.0,0,59,12.0,0.0
30390,50.0,0,59,14.0,0.0
30391,85.0,0,119,0.0,0.0
30392,50.0,0,119,11.0,0.0
30393,50.0,60,59,14.0,0.0
30394,35.0,0,119,15.0,0.0
30395,47.0,0,119,3.0,0.0
30396,47.0,0,119,6.0,0.0
30397,35.0,0,119,3.0,0.0
30398,50.0,0,119,6.0,0.0
30399,47.0,0,119,11.0,0.0
30400,47.0,0,119,15.0,0.0
30401,50.0,0,119,3.0,0.0
30402,74.0,0,59,12.0,0.0
30403,73.0,60,119,1.0,0.0
30404,73.0,0,119,8.0,0.0
30405,73.0,0,59,12.0,0.0
30406,50.0,0,59,14.0,0.0
30407,37.0,0,239,15.0,0.0
30408,49.0,0,239,6.0,0.0
30409,52.0,0,239,3.0,0.0
30410,62.0,0,359,6.0,0.0
30411,52.0,0,239,6.0,0.0
30412,49.0,0,239,3.0,0.0
30413,64.0,0,359,2.0,0.0
30414,62.0,0,359,10.0,0.0
30415,49.0,0,239,11.0,0.0
30416,62.0,0,119,5.0,0.0
30417,74.0,0,119,5.0,0.0
30418,52.0,0,59,14.0,0.0
30419,71.0,0,239,1.0,0.0
30420,83.0,0,239,0.0,0.0
30421,62.0,0,359,13.0,0.0
30422,62.0,0,359,4.0,0.0
30423,71.0,0,239,8.0,0.0
30424,49.0,0,239,15.0,0.0
30425,52.0,60,239,11.0,0.0
30426,50.0,0,119,7.0,0.0
30427,71.0,60,59,12.0,0.0
30428,37.0,0,239,3.0,0.0
30429,52.0,0,59,14.0,0.0
30430,73.0,60,59,12.0,0.0
30431,71.0,60,59,12.0,0.0
30432,52.0,0,59,14.0,0.0
30433,52.0,0,59,14.0,0.0
30434,69.0,0,59,12.0,0.0
30435,54.0,0,119,11.0,0.0
30436,50.0,0,119,15.0,0.0
30437,38.0,60,119,3.0,0.0
30438,54.0,0,119,6.0,0.0
30439,50.0,0,119,6.0,0.0
30440,50.0,0,119,3.0,0.0
30441,54.0,0,119,3.0,0.0
30442,69.0,0,119,1.0,0.0
30443,81.0,0,119,0.0,0.0
30444,69.0,0,119,8.0,0.0
30445,38.0,0,119,15.0,0.0
30446,54.0,0,59,14.0,0.0
30447,50.0,0,119,11.0,0.0
30448,71.0,60,59,12.0,0.0
30449,69.0,0,59,12.0,0.0
30450,54.0,0,59,14.0,0.0
30451,50.0,0,119,7.0,0.0
30452,62.0,60,119,5.0,0.0
30453,74.0,0,119,5.0,0.0
30454,52.0,0,239,11.0,0.0
30455,56.0,0,239,3.0,0.0
30456,52.0,0,239,3.0,0.0
30457,40.0,0,239,3.0,0.0
30458,71.0,0,359,13.0,0.0
30459,68.0,0,239,8.0,0.0
30460,71.0,0,359,10.0,0.0
30461,52.0,0,239,15.0,0.0
30462,80.0,0,239,0.0,0.0
30463,68.0,0,239,1.0,0.0
30464,71.0,0,359,2.0,0.0
30465,40.0,0,239,15.0,0.0
30466,56.0,60,239,11.0,0.0
30467,68.0,0,59,12.0,0.0
30468,56.0,60,59,14.0,0.0
30469,56.0,0,239,6.0,0.0
30470,71.0,0,359,6.0,0.0
30471,52.0,0,239,6.0,0.0
30472,69.0,0,59,12.0,0.0
30473,56.0,0,59,14.0,0.0
30474,56.0,60,59,14.0,0.0
30475,68.0,0,59,12.0,0.0
30476,56.0,0,59,14.0,0.0
30477,66.0,0,59,12.0,0.0
30478,42.0,0,119,3.0,0.0
30479,57.0,0,119,3.0,0.0
30480,54.0,60,119,15.0,0.0
30481,57.0,0,119,11.0,0.0
30482,54.0,0,119,6.0,0.0
30483,42.0,0,119,15.0,0.0
30484,66.0,0,119,1.0,0.0
30485,54.0,0,119,3.0,0.0
30486,78.0,0,119,0.0,0.0
30487,54.0,0,119,11.0,0.0
30488,64.0,0,59,12.0,0.0
30489,66.0,0,119,8.0,0.0
30490,57.0,60,59,14.0,0.0
30491,66.0,0,59,12.0,0.0
30492,57.0,0,59,14.0,0.0
30493,64.0,0,239,8.0,0.0
30494,74.0,0,119,5.0,0.0
30495,62.0,0,119,5.0,0.0
30496,56.0,0,239,15.0,0.0
30497,44.0,0,239,15.0,0.0
30498,59.0,0,59,14.0,0.0
30499,64.0,0,239,1.0,0.0
30500,64.0,60,59,12.0,0.0
30501,50.0,60,119,7.0,0.0
30502,56.0,0,239,6.0,0.0
30503,71.0,0,359,2.0,0.0
30504,64.0,0,359,4.0,0.0
30505,71.0,0,359,6.0,0.0
30506,59.0,0,239,6.0,0.0
30507,56.0,0,239,11.0,0.0
30508,44.0,0,239,3.0,0.0
30509,71.0,0,359,13.0,0.0
30510,64.0,0,359,13.0,0.0
30511,59.0,0,239,11.0,0.0
30512,71.0,0,359,10.0,0.0
30513,56.0,0,239,3.0,0.0
30514,59.0,0,239,3.0,0.0
30515,76.0,60,239,0.0,0.0
30516,68.0,0,59,12.0,0.0
30517,59.0,0,59,14.0,0.0
30518,59.0,0,59,14.0,0.0
30519,71.0,60,59,12.0,0.0
30520,59.0,0,59,14.0,0.0
30521,73.0,0,59,12.0,0.0
30522,52.0,0,119,15.0,0.0
30523,55.0,0,119,11.0,0.0
30524,56.0,0,119,6.0,0.0
30525,52.0,0,119,3.0,0.0
30526,56.0,60,119,3.0,0.0
30527,40.0,0,119,15.0,0.0
30528,52.0,0,119,11.0,0.0
30529,74.0,0,119,12.0,0.0
30530,40.0,0,119,3.0,0.0
30531,86.0,0,119,0.0,0.0
30532,55.0,60,59,14.0,0.0
30533,74.0,0,119,8.0,0.0
30534,74.0,0,119,1.0,0.0
30535,52.0,0,119,6.0,0.0
30536,55.0,0,59,14.0,0.0
30537,69.0,0,359,13.0,0.0
30538,64.0,0,359,13.0,0.0
30539,57.0,0,359,4.0,0.0
30540,69.0,0,359,10.0,0.0
30541,47.0,0,239,3.0,0.0
30542,69.0,0,359,2.0,0.0
30543,59.0,60,239,3.0,0.0
30544,62.0,0,239,3.0,0.0
30545,69.0,0,359,6.0,0.0
30546,47.0,0,239,15.0,0.0
30547,57.0,60,119,5.0,0.0
30548,45.0,0,119,7.0,0.0
30549,69.0,0,119,5.0,0.0
30550,62.0,0,239,11.0,0.0
30551,59.0,0,239,11.0,0.0
30552,59.0,0,239,6.0,0.0
30553,64.0,0,359,4.0,0.0
30554,62.0,60,59,14.0,0.0
30555,59.0,0,239,15.0,0.0
30556,64.0,0,59,14.0,0.0
30557,62.0,60,59,14.0,0.0
30558,64.0,0,59,14.0,0.0
30559,57.0,60,119,6.0,0.0
30560,61.0,0,119,3.0,0.0
30561,57.0,0,119,3.0,0.0
30562,61.0,60,59,14.0,0.0
30563,45.0,0,119,3.0,0.0
30564,57.0,0,119,15.0,0.0
30565,61.0,0,119,6.0,0.0
30566,61.0,0,119,11.0,0.0
30567,57.0,0,119,11.0,0.0
30568,45.0,0,119,15.0,0.0
30569,61.0,0,59,14.0,0.0
30570,81.0,0,719,0.0,0.0
30571,62.0,0,239,4.0,0.0
30572,57.0,60,119,5.0,0.0
30573,59.0,0,239,3.0,0.0
30574,69.0,0,719,5.0,0.0
30575,62.0,0,239,3.0,0.0
30576,69.0,0,719,1.0,0.0
30577,47.0,60,239,3.0,0.0
30578,69.0,0,719,8.0,0.0
30579,62.0,60,59,14.0,0.0
30580,62.0,0,239,11.0,0.0
30581,62.0,0,239,6.0,0.0
30582,59.0,0,239,11.0,0.0
30583,59.0,0,239,15.0,0.0
30584,47.0,0,239,15.0,0.0
30585,45.0,0,119,7.0,0.0
30586,69.0,0,719,12.0,0.0
30587,59.0,0,239,6.0,0.0
30588,64.0,0,59,14.0,0.0
30589,62.0,60,59,14.0,0.0
30590,64.0,0,59,14.0,0.0
30591,64.0,45,59,14.0,0.0
30592,61.0,0,119,11.0,0.0
30593,64.0,0,119,6.0,0.0
30594,64.0,15,104,11.0,0.0
30595,64.0,0,119,4.0,0.0
30596,61.0,60,119,6.0,0.0
30597,49.0,0,119,15.0,0.0
30598,49.0,0,119,3.0,0.0
30599,61.0,0,119,15.0,0.0
30600,61.0,0,119,3.0,0.0
30601,64.0,0,119,3.0,0.0
30602,64.0,0,59,14.0,0.0
30603,66.0,0,359,14.0,0.0
30604,61.0,60,239,2.0,0.0
30605,66.0,0,359,4.0,0.0
30606,61.0,0,239,6.0,0.0
30607,66.0,60,359,6.0,0.0
30608,66.0,0,359,3.0,0.0
30609,66.0,0,359,11.0,0.0
30610,61.0,60,59,13.0,0.0
30611,61.0,0,239,10.0,0.0
30612,66.0,0,359,15.0,0.0
30613,59.0,60,59,13.0,0.0
30614,57.0,60,59,13.0,0.0
30615,59.0,0,59,13.0,0.0
30616,61.0,45,59,13.0,0.0
30617,61.0,0,119,2.0,0.0
30618,61.0,15,104,10.0,0.0
30619,57.0,0,59,13.0,0.0
30620,66.0,60,359,11.0,0.0
30621,69.0,0,359,8.0,0.0
30622,63.0,60,59,13.0,0.0
30623,66.0,0,359,4.0,0.0
30624,63.0,0,239,10.0,0.0
30625,66.0,0,359,6.0,0.0
30626,81.0,0,359,0.0,0.0
30627,66.0,0,359,14.0,0.0
30628,63.0,0,239,2.0,0.0
30629,66.0,0,359,15.0,0.0
30630,66.0,0,359,3.0,0.0
30631,69.0,0,359,1.0,0.0
30632,69.0,0,359,12.0,0.0
30633,63.0,0,239,6.0,0.0
30634,69.0,0,359,5.0,0.0
30635,59.0,60,59,13.0,0.0
30636,61.0,60,59,13.0,0.0
30637,63.0,60,59,13.0,0.0
30638,64.0,0,119,10.0,0.0
30639,64.0,0,119,6.0,0.0
30640,64.0,60,59,13.0,0.0
30641,64.0,0,119,2.0,0.0
30642,63.0,0,59,13.0,0.0
30643,64.0,60,59,13.0,0.0
30644,64.0,0,239,2.0,0.0
30645,80.0,0,359,0.0,0.0
30646,64.0,0,599,11.0,0.0
30647,68.0,0,359,12.0,0.0
30648,68.0,0,359,8.0,0.0
30649,64.0,0,599,3.0,0.0
30650,64.0,60,239,10.0,0.0
30651,64.0,60,599,4.0,0.0
30652,68.0,0,359,1.0,0.0
30653,64.0,0,599,14.0,0.0
30654,64.0,0,239,6.0,0.0
30655,64.0,0,599,15.0,0.0
30656,66.0,60,59,13.0,0.0
30657,64.0,60,59,13.0,0.0
30658,62.0,0,59,13.0,0.0
30659,62.0,0,119,6.0,0.0
30660,62.0,0,119,2.0,0.0
30661,64.0,60,59,13.0,0.0
30662,62.0,60,119,10.0,0.0
30663,62.0,0,59,13.0,0.0
30664,61.0,60,59,13.0,0.0
30665,59.0,0,719,11.0,0.0
30666,47.0,0,719,3.0,0.0
30667,59.0,0,719,3.0,0.0
30668,61.0,0,239,6.0,0.0
30669,47.0,0,719,15.0,0.0
30670,61.0,0,239,10.0,0.0
30671,64.0,0,359,8.0,0.0
30672,64.0,0,359,1.0,0.0
30673,76.0,0,359,0.0,0.0
30674,61.0,0,239,2.0,0.0
30675,64.0,0,359,12.0,0.0
30676,62.0,60,59,13.0,0.0
30677,61.0,60,59,13.0,0.0
30678,59.0,0,59,13.0,0.0
30679,62.0,0,119,4.0,0.0
30680,61.0,45,59,13.0,0.0
30681,62.0,0,119,14.0,0.0
30682,62.0,15,104,11.0,0.0
30683,62.0,0,119,3.0,0.0
30684,62.0,60,119,6.0,0.0
30685,59.0,0,119,6.0,0.0
30686,59.0,0,119,2.0,0.0
30687,59.0,0,104,10.0,0.0
30688,62.0,0,119,15.0,0.0
30689,59.0,0,59,13.0,0.0
30690,62.0,0,359,14.0,0.0
30691,62.0,0,359,4.0,0.0
30692,50.0,0,359,4.0,0.0
30693,62.0,0,119,5.0,0.0
30694,62.0,0,239,6.0,0.0
30695,74.0,60,119,5.0,0.0
30696,59.0,0,359,15.0,0.0
30697,62.0,0,239,2.0,0.0
30698,62.0,0,359,3.0,0.0
30699,62.0,60,239,10.0,0.0
30700,62.0,0,359,11.0,0.0
30701,50.0,0,119,7.0,0.0
30702,62.0,60,59,13.0,0.0
30703,58.0,0,59,13.0,0.0
30704,59.0,60,59,13.0,0.0
30705,61.0,0,59,13.0,0.0
30706,62.0,0,119,2.0,0.0
30707,62.0,60,59,13.0,0.0
30708,62.0,0,119,10.0,0.0
30709,59.0,60,59,13.0,0.0
30710,62.0,0,359,4.0,0.0
30711,50.0,0,119,7.0,0.0
30712,59.0,0,359,6.0,0.0
30713,59.0,0,359,15.0,0.0
30714,64.0,0,239,10.0,0.0
30715,62.0,0,359,14.0,0.0
30716,64.0,0,239,2.0,0.0
30717,62.0,60,119,5.0,0.0
30718,74.0,0,119,5.0,0.0
30719,59.0,0,359,3.0,0.0
30720,47.0,0,359,15.0,0.0
30721,50.0,0,359,4.0,0.0
30722,59.0,0,359,11.0,0.0
30723,62.0,0,359,3.0,0.0
30724,64.0,60,239,6.0,0.0
30725,62.0,60,59,13.0,0.0
30726,47.0,0,359,3.0,0.0
30727,62.0,0,359,11.0,0.0
30728,62.0,0,359,6.0,0.0
30729,61.0,0,59,13.0,0.0
30730,59.0,60,59,13.0,0.0
30731,61.0,0,59,13.0,0.0
30732,66.0,0,119,10.0,0.0
30733,66.0,0,119,2.0,0.0
30734,66.0,0,119,6.0,0.0
30735,62.0,60,59,13.0,0.0
30736,64.0,60,59,13.0,0.0
30737,66.0,0,239,10.0,0.0
30738,58.0,0,359,3.0,0.0
30739,61.0,0,359,3.0,0.0
30740,66.0,0,239,6.0,0.0
30741,61.0,0,359,14.0,0.0
30742,66.0,0,239,2.0,0.0
30743,46.0,60,359,15.0,0.0
30744,61.0,0,359,11.0,0.0
30745,46.0,0,359,3.0,0.0
30746,66.0,60,59,13.0,0.0
30747,58.0,0,359,11.0,0.0
30748,61.0,0,359,6.0,0.0
30749,58.0,0,359,6.0,0.0
30750,58.0,0,359,15.0,0.0
30751,67.0,60,59,13.0,0.0
30752,66.0,60,59,13.0,0.0
30753,64.0,60,59,13.0,0.0
30754,64.0,0,119,6.0,0.0
30755,64.0,0,119,10.0,0.0
30756,66.0,60,59,13.0,0.0
30757,64.0,0,119,2.0,0.0
30758,64.0,0,59,13.0,0.0
30759,90.0,60,719,0.0,0.0
30760,54.0,0,359,6.0,0.0
30761,54.0,0,359,3.0,0.0
30762,78.0,0,719,5.0,0.0
30763,59.0,0,239,3.0,0.0
30764,59.0,0,239,6.0,0.0
30765,62.0,60,239,2.0,0.0
30766,78.0,0,719,12.0,0.0
30767,62.0,0,239,10.0,0.0
30768,78.0,0,719,8.0,0.0
30769,54.0,15,344,11.0,0.0
30770,78.0,0,719,1.0,0.0
30771,54.0,0,359,15.0,0.0
30772,54.0,0,719,4.0,0.0
30773,66.0,0,719,4.0,0.0
30774,66.0,0,719,5.0,0.0
30775,62.0,0,239,6.0,0.0
30776,62.0,60,59,13.0,0.0
30777,42.0,0,359,15.0,0.0
30778,59.0,0,239,14.0,0.0
30779,42.0,60,359,3.0,0.0
30780,59.0,0,239,11.0,0.0
30781,64.0,60,59,13.0,0.0
30782,62.0,60,59,13.0,0.0
30783,61.0,0,59,13.0,0.0
30784,58.0,0,119,6.0,0.0
30785,58.0,0,119,14.0,0.0
30786,61.0,0,119,2.0,0.0
30787,58.0,0,119,3.0,0.0
30788,62.0,45,59,13.0,0.0
30789,61.0,0,119,6.0,0.0
30790,61.0,0,104,10.0,0.0
30791,58.0,0,119,11.0,0.0
30792,61.0,0,59,13.0,0.0
30793,71.0,0,239,2.0,0.0
30794,54.0,0,719,11.0,0.0
30795,54.0,60,719,14.0,0.0
30796,71.0,60,59,13.0,0.0
30797,50.0,0,359,15.0,0.0
30798,50.0,0,359,3.0,0.0
30799,71.0,0,239,6.0,0.0
30800,71.0,60,239,10.0,0.0
30801,62.0,0,359,6.0,0.0
30802,54.0,0,719,3.0,0.0
30803,62.0,0,359,11.0,0.0
30804,62.0,0,359,3.0,0.0
30805,54.0,0,719,6.0,0.0
30806,62.0,0,359,15.0,0.0
30807,62.0,60,59,13.0,0.0
30808,66.0,60,59,13.0,0.0
30809,68.0,0,59,13.0,0.0
30810,71.0,0,119,2.0,0.0
30811,70.0,60,59,13.0,0.0
30812,71.0,0,119,10.0,0.0
30813,71.0,0,119,6.0,0.0
30814,71.0,0,59,13.0,0.0
30815,47.0,0,359,3.0,0.0
30816,73.0,60,59,13.0,0.0
30817,90.0,0,359,0.0,0.0
30818,47.0,0,359,15.0,0.0
30819,73.0,0,239,6.0,0.0
30820,66.0,0,359,5.0,0.0
30821,59.0,0,359,6.0,0.0
30822,78.0,0,359,1.0,0.0
30823,73.0,0,239,10.0,0.0
30824,78.0,0,359,8.0,0.0
30825,66.0,0,359,4.0,0.0
30826,78.0,0,359,5.0,0.0
30827,73.0,0,239,2.0,0.0
30828,62.0,0,359,4.0,0.0
30829,59.0,0,359,11.0,0.0
30830,59.0,0,359,15.0,0.0
30831,78.0,0,359,12.0,0.0
30832,59.0,0,359,3.0,0.0
30833,66.0,60,59,13.0,0.0
30834,73.0,60,59,13.0,0.0
30835,66.0,60,59,13.0,0.0
30836,74.0,60,59,13.0,0.0
30837,74.0,0,119,10.0,0.0
30838,74.0,0,119,2.0,0.0
30839,66.0,0,59,13.0,0.0
30840,77.0,60,359,8.0,0.0
30841,49.0,0,359,15.0,0.0
30842,73.0,0,239,10.0,0.0
30843,61.0,0,359,15.0,0.0
30844,61.0,0,359,6.0,0.0
30845,73.0,60,59,13.0,0.0
30846,49.0,0,359,3.0,0.0
30847,73.0,0,239,2.0,0.0
30848,77.0,0,359,1.0,0.0
30849,89.0,0,359,0.0,0.0
30850,61.0,0,599,3.0,0.0
30851,61.0,0,359,11.0,0.0
30852,61.0,0,599,14.0,0.0
30853,77.0,0,359,12.0,0.0
30854,74.0,60,59,13.0,0.0
30855,73.0,60,59,13.0,0.0
30856,71.0,60,59,13.0,0.0
30857,73.0,60,59,13.0,0.0
30858,71.0,0,119,10.0,0.0
30859,71.0,0,119,2.0,0.0
30860,71.0,0,59,13.0,0.0
30861,70.0,60,59,13.0,0.0
30862,49.0,0,359,3.0,0.0
30863,61.0,0,359,6.0,0.0
30864,70.0,60,239,10.0,0.0
30865,73.0,0,344,8.0,0.0
30866,61.0,0,239,11.0,0.0
30867,70.0,0,239,2.0,0.0
30868,61.0,0,359,15.0,0.0
30869,49.0,0,359,15.0,0.0
30870,73.0,0,359,12.0,0.0
30871,85.0,0,359,0.0,0.0
30872,73.0,0,359,1.0,0.0
30873,71.0,60,59,13.0,0.0
30874,70.0,60,59,13.0,0.0
30875,68.0,0,59,13.0,0.0
30876,70.0,45,59,13.0,0.0
30877,68.0,0,119,2.0,0.0
30878,59.0,0,119,14.0,0.0
30879,68.0,15,104,10.0,0.0
30880,59.0,0,119,6.0,0.0
30881,59.0,0,119,3.0,0.0
30882,59.0,0,119,11.0,0.0
30883,68.0,60,59,13.0,0.0
30884,76.0,0,359,8.0,0.0
30885,88.0,0,359,0.0,0.0
30886,42.0,0,359,3.0,0.0
30887,61.0,0,359,3.0,0.0
30888,54.0,0,359,11.0,0.0
30889,70.0,60,59,13.0,0.0
30890,42.0,0,359,15.0,0.0
30891,70.0,0,239,2.0,0.0
30892,61.0,0,359,11.0,0.0
30893,61.0,0,359,14.0,0.0
30894,76.0,0,359,5.0,0.0
30895,76.0,0,359,12.0,0.0
30896,70.0,60,239,10.0,0.0
30897,54.0,0,359,6.0,0.0
30898,76.0,0,359,1.0,0.0
30899,61.0,0,359,6.0,0.0
30900,54.0,0,359,15.0,0.0
30901,61.0,60,59,13.0,0.0
30902,66.0,60,59,13.0,0.0
30903,68.0,0,59,13.0,0.0
30904,70.0,0,119,2.0,0.0
30905,70.0,60,119,10.0,0.0
30906,70.0,60,59,13.0,0.0
30907,66.0,0,59,13.0,0.0
30908,54.0,0,359,15.0,0.0
30909,59.0,0,239,3.0,0.0
30910,71.0,0,239,2.0,0.0
30911,59.0,0,239,14.0,0.0
30912,54.0,0,359,6.0,0.0
30913,42.0,0,359,15.0,0.0
30914,76.0,0,359,1.0,0.0
30915,71.0,15,224,10.0,0.0
30916,59.0,60,239,6.0,0.0
30917,76.0,0,359,5.0,0.0
30918,76.0,0,359,8.0,0.0
30919,42.0,0,359,3.0,0.0
30920,88.0,0,359,0.0,0.0
30921,71.0,60,59,13.0,0.0
30922,59.0,0,239,11.0,0.0
30923,76.0,0,359,12.0,0.0
30924,54.0,0,359,11.0,0.0
30925,66.0,60,59,13.0,0.0
30926,71.0,45,59,13.0,0.0
30927,66.0,0,59,13.0,0.0
30928,58.0,0,119,3.0,0.0
30929,58.0,0,119,11.0,0.0
30930,58.0,0,119,14.0,0.0
30931,73.0,0,359,2.0,0.0
30932,73.0,60,59,13.0,0.0
30933,58.0,0,119,6.0,0.0
30934,73.0,0,119,10.0,0.0
30935,66.0,60,59,13.0,0.0
30936,59.0,0,359,15.0,0.0
30937,73.0,0,239,10.0,0.0
30938,59.0,0,359,14.0,0.0
30939,59.0,0,359,3.0,0.0
30940,47.0,0,359,15.0,0.0
30941,87.0,60,359,0.0,0.0
30942,75.0,0,359,1.0,0.0
30943,47.0,0,359,3.0,0.0
30944,75.0,0,359,8.0,0.0
30945,75.0,0,359,12.0,0.0
30946,59.0,0,359,6.0,0.0
30947,73.0,60,59,13.0,0.0
30948,59.0,0,359,11.0,0.0
30949,66.0,60,59,13.0,0.0
30950,73.0,60,59,13.0,0.0
30951,66.0,60,59,13.0,0.0
30952,71.0,60,59,13.0,0.0
30953,71.0,0,119,2.0,0.0
30954,71.0,0,119,10.0,0.0
30955,66.0,0,59,13.0,0.0
30956,62.0,0,719,4.0,0.0
30957,73.0,0,239,2.0,0.0
30958,62.0,0,719,11.0,0.0
30959,71.0,0,359,12.0,0.0
30960,62.0,0,719,6.0,0.0
30961,62.0,0,719,3.0,0.0
30962,62.0,0,719,14.0,0.0
30963,71.0,0,344,8.0,0.0
30964,71.0,0,359,1.0,0.0
30965,83.0,0,359,0.0,0.0
30966,73.0,0,239,10.0,0.0
30967,73.0,60,59,13.0,0.0
30968,62.0,0,359,15.0,0.0
30969,66.0,60,59,13.0,0.0
30970,73.0,60,59,13.0,0.0
30971,66.0,60,59,13.0,0.0
30972,74.0,45,59,13.0,0.0
30973,74.0,0,119,2.0,0.0
30974,74.0,15,104,10.0,0.0
30975,66.0,60,59,13.0,0.0
30976,71.0,0,359,2.0,0.0
30977,50.0,0,239,11.0,0.0
30978,35.0,0,59,15.0,0.0
30979,90.0,0,599,0.0,0.0
30980,50.0,0,239,6.0,0.0
30981,78.0,0,599,5.0,0.0
30982,71.0,0,359,13.0,0.0
30983,71.0,0,359,6.0,0.0
30984,35.0,0,59,3.0,0.0
30985,78.0,0,599,8.0,0.0
30986,66.0,0,599,5.0,0.0
30987,78.0,0,599,12.0,0.0
30988,71.0,0,359,10.0,0.0
30989,47.0,60,59,15.0,0.0
30990,78.0,0,599,1.0,0.0
30991,50.0,0,239,3.0,0.0
30992,42.0,60,59,15.0,0.0
30993,30.0,0,59,15.0,0.0
30994,30.0,0,59,3.0,0.0
30995,32.0,60,59,3.0,0.0
30996,32.0,0,59,15.0,0.0
30997,44.0,0,59,15.0,0.0
30998,34.0,0,59,3.0,0.0
30999,46.0,0,59,15.0,0.0
31000,34.0,60,59,15.0,0.0
31001,50.0,0,119,6.0,0.0
31002,35.0,0,59,15.0,0.0
31003,35.0,0,59,3.0,0.0
31004,47.0,45,59,15.0,0.0
31005,50.0,15,104,11.0,0.0
31006,50.0,60,119,3.0,0.0
31007,49.0,0,59,15.0,0.0
31008,37.0,0,59,3.0,0.0
31009,37.0,0,59,15.0,0.0
31010,62.0,0,359,14.0,0.0
31011,38.0,0,59,3.0,0.0
31012,62.0,0,359,11.0,0.0
31013,71.0,0,359,13.0,0.0
31014,38.0,0,59,15.0,0.0
31015,52.0,0,239,3.0,0.0
31016,62.0,0,359,4.0,0.0
31017,71.0,0,359,2.0,0.0
31018,52.0,0,239,6.0,0.0
31019,71.0,0,359,10.0,0.0
31020,62.0,0,359,6.0,0.0
31021,71.0,0,359,6.0,0.0
31022,62.0,0,359,3.0,0.0
31023,50.0,60,59,15.0,0.0
31024,52.0,0,239,11.0,0.0
31025,49.0,0,59,15.0,0.0
31026,37.0,0,59,15.0,0.0
31027,37.0,60,59,3.0,0.0
31028,47.0,60,59,15.0,0.0
31029,35.0,0,59,15.0,0.0
31030,35.0,0,59,3.0,0.0
31031,37.0,60,59,3.0,0.0
31032,49.0,0,59,15.0,0.0
31033,37.0,0,59,15.0,0.0
31034,54.0,0,119,3.0,0.0
31035,54.0,0,119,11.0,0.0
31036,54.0,0,119,6.0,0.0
31037,74.0,0,119,8.0,0.0
31038,38.0,60,59,15.0,0.0
31039,66.0,0,119,5.0,0.0
31040,74.0,0,119,5.0,0.0
31041,50.0,0,59,15.0,0.0
31042,74.0,0,119,12.0,0.0
31043,38.0,0,59,3.0,0.0
31044,74.0,0,119,1.0,0.0
31045,86.0,0,119,0.0,0.0
31046,40.0,60,59,3.0,0.0
31047,40.0,0,59,15.0,0.0
31048,52.0,0,59,15.0,0.0
31049,76.0,0,239,1.0,0.0
31050,54.0,0,359,4.0,0.0
31051,76.0,0,239,12.0,0.0
31052,54.0,0,59,15.0,0.0
31053,76.0,0,359,5.0,0.0
31054,66.0,0,359,5.0,0.0
31055,70.0,0,359,10.0,0.0
31056,61.0,0,359,11.0,0.0
31057,88.0,0,239,0.0,0.0
31058,66.0,0,359,4.0,0.0
31059,70.0,0,359,2.0,0.0
31060,42.0,0,59,15.0,0.0
31061,61.0,0,359,14.0,0.0
31062,54.0,0,239,6.0,0.0
31063,76.0,0,239,8.0,0.0
31064,61.0,60,359,3.0,0.0
31065,54.0,0,239,3.0,0.0
31066,54.0,0,239,11.0,0.0
31067,61.0,0,359,6.0,0.0
31068,70.0,0,359,6.0,0.0
31069,70.0,0,359,13.0,0.0
31070,42.0,60,59,3.0,0.0
31071,43.0,0,59,3.0,0.0
31072,55.0,60,59,15.0,0.0
31073,43.0,0,59,15.0,0.0
31074,42.0,60,59,15.0,0.0
31075,42.0,0,59,3.0,0.0
31076,54.0,0,59,15.0,0.0
31077,40.0,60,59,15.0,0.0
31078,52.0,0,59,15.0,0.0
31079,40.0,0,59,3.0,0.0
31080,52.0,0,119,11.0,0.0
31081,42.0,60,59,15.0,0.0
31082,73.0,0,119,8.0,0.0
31083,73.0,0,119,1.0,0.0
31084,73.0,0,119,12.0,0.0
31085,52.0,0,119,6.0,0.0
31086,85.0,0,119,0.0,0.0
31087,54.0,0,59,15.0,0.0
31088,42.0,0,59,3.0,0.0
31089,52.0,0,119,3.0,0.0
31090,52.0,0,59,15.0,0.0
31091,40.0,0,59,3.0,0.0
31092,40.0,0,59,15.0,0.0
31093,66.0,0,359,2.0,0.0
31094,38.0,0,59,15.0,0.0
31095,50.0,0,239,3.0,0.0
31096,59.0,0,239,3.0,0.0
31097,59.0,0,239,11.0,0.0
31098,86.0,0,239,0.0,0.0
31099,50.0,0,239,11.0,0.0
31100,66.0,0,359,5.0,0.0
31101,74.0,0,239,8.0,0.0
31102,50.0,60,59,15.0,0.0
31103,50.0,0,239,6.0,0.0
31104,59.0,0,239,6.0,0.0
31105,66.0,0,359,6.0,0.0
31106,59.0,0,239,14.0,0.0
31107,38.0,0,59,3.0,0.0
31108,74.0,0,239,12.0,0.0
31109,74.0,0,239,1.0,0.0
31110,66.0,0,359,4.0,0.0
31111,54.0,0,359,4.0,0.0
31112,66.0,0,344,10.0,0.0
31113,66.0,0,359,13.0,0.0
31114,40.0,0,59,15.0,0.0
31115,40.0,0,59,3.0,0.0
31116,52.0,60,59,15.0,0.0
31117,38.0,0,59,15.0,0.0
31118,38.0,0,59,3.0,0.0
31119,50.0,60,59,15.0,0.0
31120,49.0,0,59,15.0,0.0
31121,37.0,0,59,15.0,0.0
31122,37.0,60,59,3.0,0.0
31123,49.0,0,119,6.0,0.0
31124,76.0,60,119,5.0,0.0
31125,76.0,0,119,8.0,0.0
31126,76.0,0,119,12.0,0.0
31127,38.0,45,59,15.0,0.0
31128,49.0,0,119,3.0,0.0
31129,58.0,0,119,14.0,0.0
31130,49.0,0,104,11.0,0.0
31131,58.0,0,119,3.0,0.0
31132,76.0,0,119,1.0,0.0
31133,50.0,0,59,15.0,0.0
31134,38.0,0,59,3.0,0.0
31135,58.0,0,119,6.0,0.0
31136,88.0,0,119,0.0,0.0
31137,58.0,15,104,11.0,0.0
31138,37.0,0,59,3.0,0.0
31139,37.0,0,59,15.0,0.0
31140,49.0,0,59,15.0,0.0
31141,76.0,0,359,2.0,0.0
31142,70.0,0,359,12.0,0.0
31143,70.0,0,359,1.0,0.0
31144,49.0,60,59,15.0,0.0
31145,78.0,0,599,5.0,0.0
31146,61.0,0,359,14.0,0.0
31147,76.0,0,359,13.0,0.0
31148,37.0,0,59,15.0,0.0
31149,82.0,0,359,0.0,0.0
31150,49.0,60,239,6.0,0.0
31151,37.0,0,59,3.0,0.0
31152,76.0,0,359,10.0,0.0
31153,61.0,0,359,6.0,0.0
31154,70.0,0,359,8.0,0.0
31155,49.0,0,239,3.0,0.0
31156,54.0,0,599,4.0,0.0
31157,66.0,0,599,4.0,0.0
31158,61.0,0,359,11.0,0.0
31159,66.0,0,599,5.0,0.0
31160,49.0,0,239,11.0,0.0
31161,61.0,0,359,3.0,0.0
31162,42.0,60,59,15.0,0.0
31163,30.0,0,59,3.0,0.0
31164,30.0,0,59,15.0,0.0
31165,44.0,0,59,15.0,0.0
31166,32.0,0,59,15.0,0.0
31167,32.0,60,59,3.0,0.0
31168,34.0,0,59,3.0,0.0
31169,46.0,0,59,15.0,0.0
31170,34.0,0,59,15.0,0.0
31171,35.0,0,59,3.0,0.0
31172,49.0,0,119,6.0,0.0
31173,49.0,0,119,3.0,0.0
31174,35.0,0,59,15.0,0.0
31175,47.0,60,59,15.0,0.0
31176,49.0,0,119,11.0,0.0
31177,37.0,60,59,15.0,0.0
31178,37.0,0,59,3.0,0.0
31179,49.0,0,59,15.0,0.0
31180,51.0,0,239,6.0,0.0
31181,51.0,60,59,15.0,0.0
31182,51.0,0,239,11.0,0.0
31183,54.0,0,719,14.0,0.0
31184,75.0,0,239,2.0,0.0
31185,51.0,0,239,3.0,0.0
31186,54.0,0,359,6.0,0.0
31187,75.0,0,239,10.0,0.0
31188,71.0,0,239,12.0,0.0
31189,54.0,0,359,11.0,0.0
31190,39.0,0,59,3.0,0.0
31191,75.0,0,239,13.0,0.0
31192,71.0,60,239,8.0,0.0
31193,39.0,0,59,15.0,0.0
31194,83.0,0,239,0.0,0.0
31195,71.0,0,239,1.0,0.0
31196,47.0,0,59,15.0,0.0
31197,35.0,60,59,15.0,0.0
31198,35.0,0,59,3.0,0.0
31199,37.0,0,59,3.0,0.0
31200,37.0,60,59,15.0,0.0
31201,49.0,0,59,15.0,0.0
31202,39.0,0,59,15.0,0.0
31203,39.0,0,59,3.0,0.0
31204,51.0,0,59,15.0,0.0
31205,73.0,0,119,13.0,0.0
31206,66.0,0,119,4.0,0.0
31207,54.0,0,119,4.0,0.0
31208,82.0,0,119,0.0,0.0
31209,52.0,0,59,15.0,0.0
31210,70.0,0,119,1.0,0.0
31211,40.0,0,59,15.0,0.0
31212,40.0,60,59,3.0,0.0
31213,52.0,0,119,3.0,0.0
31214,70.0,0,119,8.0,0.0
31215,73.0,0,119,2.0,0.0
31216,52.0,0,119,6.0,0.0
31217,52.0,60,119,11.0,0.0
31218,73.0,0,119,10.0,0.0
31219,78.0,0,119,5.0,0.0
31220,70.0,0,119,12.0,0.0
31221,66.0,0,119,5.0,0.0
31222,49.0,0,59,15.0,0.0
31223,37.0,0,59,3.0,0.0
31224,37.0,0,59,15.0,0.0
31225,71.0,15,344,8.0,0.0
31226,71.0,0,359,1.0,0.0
31227,75.0,0,359,2.0,0.0
31228,54.0,0,599,4.0,0.0
31229,66.0,0,599,4.0,0.0
31230,54.0,60,59,15.0,0.0
31231,71.0,0,359,12.0,0.0
31232,78.0,0,599,5.0,0.0
31233,75.0,0,359,10.0,0.0
31234,54.0,0,239,3.0,0.0
31235,42.0,0,59,3.0,0.0
31236,54.0,0,239,11.0,0.0
31237,54.0,0,239,6.0,0.0
31238,83.0,0,359,0.0,0.0
31239,75.0,0,359,13.0,0.0
31240,42.0,0,59,15.0,0.0
31241,66.0,0,599,5.0,0.0
31242,44.0,0,59,3.0,0.0
31243,44.0,0,59,15.0,0.0
31244,56.0,60,59,15.0,0.0
31245,54.0,0,59,15.0,0.0
31246,42.0,60,59,15.0,0.0
31247,42.0,0,59,3.0,0.0
31248,39.0,0,59,15.0,0.0
31249,39.0,60,59,3.0,0.0
31250,51.0,0,59,15.0,0.0
31251,51.0,0,119,11.0,0.0
31252,51.0,0,119,6.0,0.0
31253,40.0,0,59,3.0,0.0
31254,52.0,0,59,15.0,0.0
31255,40.0,45,59,15.0,0.0
31256,51.0,0,119,3.0,0.0
31257,39.0,0,59,3.0,0.0
31258,39.0,0,59,15.0,0.0
31259,51.0,0,59,15.0,0.0
31260,66.0,0,359,2.0,0.0
31261,75.0,0,719,8.0,0.0
31262,37.0,60,59,15.0,0.0
31263,66.0,0,359,13.0,0.0
31264,49.0,0,59,15.0,0.0
31265,54.0,60,359,6.0,0.0
31266,87.0,60,719,0.0,0.0
31267,66.0,0,359,6.0,0.0
31268,75.0,0,719,1.0,0.0
31269,37.0,0,59,3.0,0.0
31270,75.0,0,719,12.0,0.0
31271,59.0,0,719,14.0,0.0
31272,66.0,0,344,10.0,0.0
31273,49.0,0,239,3.0,0.0
31274,49.0,0,239,6.0,0.0
31275,54.0,0,359,3.0,0.0
31276,54.0,15,344,11.0,0.0
31277,49.0,0,239,11.0,0.0
31278,51.0,0,59,15.0,0.0
31279,39.0,60,59,15.0,0.0
31280,39.0,0,59,3.0,0.0
31281,49.0,0,59,15.0,0.0
31282,37.0,0,59,15.0,0.0
31283,37.0,60,59,3.0,0.0
31284,35.0,0,59,3.0,0.0
31285,47.0,60,59,15.0,0.0
31286,35.0,0,59,15.0,0.0
31287,47.0,0,104,11.0,0.0
31288,49.0,45,59,15.0,0.0
31289,78.0,0,119,5.0,0.0
31290,37.0,0,59,3.0,0.0
31291,66.0,0,119,4.0,0.0
31292,37.0,0,59,15.0,0.0
31293,66.0,0,119,5.0,0.0
31294,47.0,0,119,3.0,0.0
31295,47.0,0,119,6.0,0.0
31296,54.0,0,119,4.0,0.0
31297,47.0,0,59,15.0,0.0
31298,35.0,0,59,3.0,0.0
31299,35.0,0,59,15.0,0.0
31300,54.0,0,119,4.0,0.0
31301,42.0,0,59,3.0,0.0
31302,69.0,0,359,10.0,0.0
31303,59.0,0,359,11.0,0.0
31304,69.0,0,359,13.0,0.0
31305,78.0,0,119,5.0,0.0
31306,54.0,0,59,15.0,0.0
31307,66.0,0,119,4.0,0.0
31308,54.0,0,239,11.0,0.0
31309,54.0,0,239,6.0,0.0
31310,69.0,0,359,2.0,0.0
31311,54.0,0,239,3.0,0.0
31312,59.0,0,359,3.0,0.0
31313,66.0,0,119,5.0,0.0
31314,42.0,60,59,15.0,0.0
31315,69.0,0,359,6.0,0.0
31316,59.0,0,359,6.0,0.0
31317,47.0,0,59,15.0,0.0
31318,35.0,0,59,15.0,0.0
31319,35.0,60,59,3.0,0.0
31320,49.0,60,59,15.0,0.0
31321,37.0,0,59,15.0,0.0
31322,37.0,0,59,3.0,0.0
31323,39.0,0,59,3.0,0.0
31324,39.0,60,59,15.0,0.0
31325,51.0,0,59,15.0,0.0
31326,54.0,0,119,11.0,0.0
31327,52.0,0,59,15.0,0.0
31328,40.0,0,59,15.0,0.0
31329,54.0,0,119,6.0,0.0
31330,40.0,60,59,3.0,0.0
31331,54.0,0,119,3.0,0.0
31332,54.0,0,59,15.0,0.0
31333,42.0,0,59,15.0,0.0
31334,42.0,0,59,3.0,0.0
31335,75.0,0,359,1.0,0.0
31336,75.0,60,359,12.0,0.0
31337,56.0,0,239,11.0,0.0
31338,68.0,0,239,10.0,0.0
31339,75.0,0,359,8.0,0.0
31340,56.0,0,239,6.0,0.0
31341,44.0,60,59,15.0,0.0
31342,59.0,0,719,3.0,0.0
31343,68.0,0,239,2.0,0.0
31344,56.0,0,239,3.0,0.0
31345,68.0,0,239,6.0,0.0
31346,59.0,0,359,6.0,0.0
31347,59.0,0,359,11.0,0.0
31348,68.0,0,239,13.0,0.0
31349,44.0,0,59,3.0,0.0
31350,59.0,0,359,14.0,0.0
31351,87.0,0,359,0.0,0.0
31352,56.0,0,59,15.0,0.0
31353,47.0,60,59,15.0,0.0
31354,35.0,0,59,3.0,0.0
31355,35.0,0,59,15.0,0.0
31356,42.0,60,59,15.0,0.0
31357,42.0,0,59,3.0,0.0
31358,54.0,0,59,15.0,0.0
31359,56.0,0,59,15.0,0.0
31360,44.0,0,59,15.0,0.0
31361,44.0,60,59,3.0,0.0
31362,57.0,0,59,15.0,0.0
31363,66.0,0,119,10.0,0.0
31364,66.0,0,119,13.0,0.0
31365,45.0,60,59,3.0,0.0
31366,66.0,0,119,2.0,0.0
31367,57.0,0,119,11.0,0.0
31368,57.0,0,119,6.0,0.0
31369,57.0,0,119,3.0,0.0
31370,45.0,0,59,15.0,0.0
31371,66.0,0,119,6.0,0.0
31372,42.0,0,59,3.0,0.0
31373,54.0,0,59,15.0,0.0
31374,42.0,0,59,15.0,0.0
31375,76.0,0,359,1.0,0.0
31376,88.0,0,359,0.0,0.0
31377,57.0,0,239,11.0,0.0
31378,64.0,0,239,13.0,0.0
31379,64.0,0,239,2.0,0.0
31380,45.0,0,59,15.0,0.0
31381,64.0,0,239,10.0,0.0
31382,59.0,0,359,11.0,0.0
31383,57.0,0,239,3.0,0.0
31384,76.0,0,359,8.0,0.0
31385,59.0,0,359,14.0,0.0
31386,76.0,0,359,12.0,0.0
31387,64.0,60,239,6.0,0.0
31388,59.0,0,359,6.0,0.0
31389,76.0,0,359,5.0,0.0
31390,57.0,0,239,6.0,0.0
31391,57.0,0,59,15.0,0.0
31392,45.0,60,59,3.0,0.0
31393,47.0,0,59,3.0,0.0
31394,47.0,0,59,15.0,0.0
31395,59.0,60,59,15.0,0.0
31396,45.0,0,59,15.0,0.0
31397,57.0,0,59,15.0,0.0
31398,45.0,60,59,3.0,0.0
31399,44.0,0,59,15.0,0.0
31400,56.0,0,59,15.0,0.0
31401,44.0,0,59,3.0,0.0
31402,45.0,0,59,3.0,0.0
31403,56.0,0,119,11.0,0.0
31404,68.0,0,119,10.0,0.0
31405,68.0,0,119,2.0,0.0
31406,57.0,60,59,15.0,0.0
31407,68.0,0,119,6.0,0.0
31408,68.0,0,119,13.0,0.0
31409,56.0,0,119,3.0,0.0
31410,56.0,60,119,6.0,0.0
31411,45.0,0,59,15.0,0.0
31412,44.0,0,59,3.0,0.0
31413,56.0,0,59,15.0,0.0
31414,44.0,0,59,15.0,0.0
31415,76.0,0,359,12.0,0.0
31416,76.0,0,359,8.0,0.0
31417,69.0,0,239,10.0,0.0
31418,69.0,60,239,6.0,0.0
31419,57.0,0,239,11.0,0.0
31420,57.0,0,239,14.0,0.0
31421,88.0,0,359,0.0,0.0
31422,69.0,0,239,2.0,0.0
31423,54.0,0,239,11.0,0.0
31424,57.0,0,239,3.0,0.0
31425,54.0,0,239,3.0,0.0
31426,42.0,0,59,3.0,0.0
31427,76.0,0,359,5.0,0.0
31428,42.0,0,59,15.0,0.0
31429,54.0,60,59,15.0,0.0
31430,64.0,0,119,4.0,0.0
31431,69.0,0,239,13.0,0.0
31432,76.0,0,359,1.0,0.0
31433,54.0,0,239,6.0,0.0
31434,56.0,60,59,15.0,0.0
31435,44.0,0,59,3.0,0.0
31436,44.0,0,59,15.0,0.0
31437,42.0,0,59,15.0,0.0
31438,42.0,60,59,3.0,0.0
31439,54.0,0,59,15.0,0.0
31440,40.0,0,59,3.0,0.0
31441,52.0,0,59,15.0,0.0
31442,40.0,0,59,15.0,0.0
31443,71.0,0,119,10.0,0.0
31444,56.0,0,119,11.0,0.0
31445,52.0,15,104,11.0,0.0
31446,54.0,45,59,15.0,0.0
31447,71.0,0,119,2.0,0.0
31448,42.0,0,59,3.0,0.0
31449,56.0,0,119,3.0,0.0
31450,52.0,0,119,3.0,0.0
31451,71.0,0,119,13.0,0.0
31452,56.0,0,119,14.0,0.0
31453,71.0,0,119,6.0,0.0
31454,56.0,0,119,6.0,0.0
31455,42.0,0,59,15.0,0.0
31456,52.0,0,119,6.0,0.0
31457,40.0,0,59,15.0,0.0
31458,52.0,0,59,15.0,0.0
31459,40.0,60,59,3.0,0.0
31460,62.0,0,359,6.0,0.0
31461,76.0,0,239,13.0,0.0
31462,59.0,0,239,3.0,0.0
31463,92.0,0,359,0.0,0.0
31464,62.0,0,359,11.0,0.0
31465,76.0,0,359,5.0,0.0
31466,59.0,0,239,6.0,0.0
31467,62.0,0,359,3.0,0.0
31468,59.0,60,59,15.0,0.0
31469,62.0,0,359,14.0,0.0
31470,80.0,60,359,8.0,0.0
31471,76.0,0,239,2.0,0.0
31472,47.0,0,59,3.0,0.0
31473,59.0,0,239,11.0,0.0
31474,47.0,0,59,15.0,0.0
31475,80.0,0,359,1.0,0.0
31476,64.0,0,239,4.0,0.0
31477,76.0,0,239,10.0,0.0
31478,80.0,0,359,12.0,0.0
31479,40.0,0,59,15.0,0.0
31480,52.0,0,59,15.0,0.0
31481,40.0,60,59,3.0,0.0
31482,56.0,0,59,15.0,0.0
31483,44.0,60,59,15.0,0.0
31484,44.0,0,59,3.0,0.0
31485,45.0,0,59,3.0,0.0
31486,57.0,0,59,15.0,0.0
31487,45.0,60,59,15.0,0.0
31488,59.0,0,119,3.0,0.0
31489,74.0,0,119,10.0,0.0
31490,74.0,0,119,2.0,0.0
31491,64.0,0,119,4.0,0.0
31492,59.0,0,119,11.0,0.0
31493,59.0,60,59,15.0,0.0
31494,47.0,0,59,15.0,0.0
31495,47.0,0,59,3.0,0.0
31496,74.0,0,119,13.0,0.0
31497,59.0,0,119,6.0,0.0
31498,52.0,0,59,15.0,0.0
31499,40.0,0,59,15.0,0.0
31500,40.0,0,59,3.0,0.0
31501,64.0,15,224,11.0,0.0
31502,73.0,0,239,2.0,0.0
31503,73.0,0,239,10.0,0.0
31504,80.0,0,359,8.0,0.0
31505,80.0,0,359,1.0,0.0
31506,80.0,0,359,12.0,0.0
31507,64.0,60,59,15.0,0.0
31508,52.0,0,359,14.0,0.0
31509,52.0,0,59,15.0,0.0
31510,76.0,0,359,5.0,0.0
31511,73.0,0,239,6.0,0.0
31512,64.0,0,239,6.0,0.0
31513,64.0,0,239,4.0,0.0
31514,52.0,0,359,11.0,0.0
31515,52.0,0,359,6.0,0.0
31516,64.0,0,239,3.0,0.0
31517,73.0,0,239,13.0,0.0
31518,52.0,0,59,3.0,0.0
31519,92.0,0,359,0.0,0.0
31520,66.0,0,59,15.0,0.0
31521,54.0,60,59,15.0,0.0
31522,54.0,0,59,3.0,0.0
31523,64.0,45,59,15.0,0.0
31524,52.0,0,59,15.0,0.0
31525,52.0,0,59,3.0,0.0
31526,50.0,0,59,3.0,0.0
31527,50.0,60,59,15.0,0.0
31528,62.0,0,59,15.0,0.0
31529,62.0,0,119,3.0,0.0
31530,62.0,0,119,6.0,0.0
31531,52.0,0,59,3.0,0.0
31532,64.0,0,119,4.0,0.0
31533,64.0,0,59,15.0,0.0
31534,71.0,0,119,13.0,0.0
31535,52.0,45,59,15.0,0.0
31536,71.0,0,119,6.0,0.0
31537,71.0,0,119,2.0,0.0
31538,62.0,60,119,11.0,0.0
31539,71.0,15,104,10.0,0.0
31540,62.0,0,59,15.0,0.0
31541,50.0,0,59,15.0,0.0
31542,50.0,0,59,3.0,0.0
31543,57.0,0,359,4.0,0.0
31544,64.0,0,359,4.0,0.0
31545,57.0,0,359,11.0,0.0
31546,49.0,0,59,3.0,0.0
31547,61.0,60,59,15.0,0.0
31548,81.0,15,344,8.0,0.0
31549,69.0,0,239,13.0,0.0
31550,69.0,0,239,2.0,0.0
31551,76.0,0,359,5.0,0.0
31552,81.0,0,359,1.0,0.0
31553,93.0,0,359,0.0,0.0
31554,62.0,0,239,11.0,0.0
31555,81.0,0,359,12.0,0.0
31556,69.0,0,239,10.0,0.0
31557,62.0,60,239,6.0,0.0
31558,57.0,60,359,14.0,0.0
31559,57.0,0,359,6.0,0.0
31560,49.0,0,59,15.0,0.0
31561,62.0,0,359,3.0,0.0
31562,69.0,0,359,6.0,0.0
31563,45.0,60,119,7.0,0.0
31564,57.0,0,239,3.0,0.0
31565,52.0,0,59,15.0,0.0
31566,52.0,0,59,3.0,0.0
31567,64.0,0,59,15.0,0.0
31568,62.0,0,59,15.0,0.0
31569,50.0,0,59,15.0,0.0
31570,50.0,60,59,3.0,0.0
31571,49.0,0,59,15.0,0.0
31572,61.0,0,59,15.0,0.0
31573,49.0,0,59,3.0,0.0
31574,62.0,0,59,15.0,0.0
31575,50.0,45,59,3.0,0.0
31576,76.0,0,119,2.0,0.0
31577,61.0,0,119,3.0,0.0
31578,61.0,0,119,6.0,0.0
31579,61.0,0,119,11.0,0.0
31580,50.0,0,59,15.0,0.0
31581,76.0,0,119,10.0,0.0
31582,76.0,0,119,13.0,0.0
31583,49.0,0,59,3.0,0.0
31584,61.0,0,59,15.0,0.0
31585,49.0,0,59,15.0,0.0
31586,59.0,0,239,6.0,0.0
31587,81.0,0,359,0.0,0.0
31588,59.0,0,239,3.0,0.0
31589,74.0,0,239,13.0,0.0
31590,74.0,0,239,2.0,0.0
31591,59.0,0,59,15.0,0.0
31592,69.0,0,359,8.0,0.0
31593,45.0,0,119,7.0,0.0
31594,47.0,60,59,3.0,0.0
31595,59.0,60,239,11.0,0.0
31596,69.0,0,359,5.0,0.0
31597,47.0,0,59,15.0,0.0
31598,69.0,0,359,1.0,0.0
31599,74.0,0,239,10.0,0.0
31600,69.0,0,359,12.0,0.0
31601,49.0,0,59,15.0,0.0
31602,61.0,0,59,15.0,0.0
31603,49.0,60,59,3.0,0.0
31604,47.0,0,59,3.0,0.0
31605,47.0,0,59,15.0,0.0
31606,59.0,60,59,15.0,0.0
31607,57.0,0,59,15.0,0.0
31608,45.0,0,59,3.0,0.0
31609,45.0,0,59,15.0,0.0
31610,61.0,0,119,3.0,0.0
31611,76.0,0,119,13.0,0.0
31612,76.0,0,119,10.0,0.0
31613,61.0,60,59,15.0,0.0
31614,49.0,0,59,15.0,0.0
31615,76.0,0,119,2.0,0.0
31616,61.0,0,119,6.0,0.0
31617,61.0,0,119,11.0,0.0
31618,49.0,0,59,3.0,0.0
31619,59.0,0,59,15.0,0.0
31620,47.0,0,59,3.0,0.0
31621,47.0,60,59,15.0,0.0
31622,45.0,0,119,7.0,0.0
31623,81.0,0,359,12.0,0.0
31624,81.0,0,359,5.0,0.0
31625,74.0,0,239,2.0,0.0
31626,59.0,0,59,15.0,0.0
31627,59.0,120,239,6.0,0.0
31628,81.0,0,359,1.0,0.0
31629,81.0,360,359,8.0,0.0
31630,59.0,0,239,3.0,0.0
31631,47.0,60,59,15.0,0.0
31632,47.0,0,59,3.0,0.0
31633,59.0,0,239,11.0,0.0
31634,74.0,0,239,13.0,0.0
31635,93.0,0,359,0.0,0.0
31636,74.0,0,239,10.0,0.0
31637,57.0,0,59,15.0,0.0
31638,45.0,0,59,15.0,0.0
31639,45.0,60,59,3.0,0.0
31640,59.0,60,59,15.0,0.0
31641,47.0,0,59,15.0,0.0
31642,47.0,0,59,3.0,0.0
31643,45.0,0,59,3.0,0.0
31644,45.0,0,59,15.0,0.0
31645,57.0,0,59,15.0,0.0
31646,57.0,0,119,6.0,0.0
31647,33.0,0,119,3.0,0.0
31648,73.0,0,119,2.0,0.0
31649,45.0,0,119,15.0,0.0
31650,73.0,0,119,10.0,0.0
31651,57.0,0,119,3.0,0.0
31652,57.0,0,119,11.0,0.0
31653,73.0,0,119,13.0,0.0
31654,33.0,0,119,15.0,0.0
31655,81.0,0,359,5.0,0.0
31656,81.0,0,359,12.0,0.0
31657,81.0,0,359,8.0,0.0
31658,81.0,0,359,1.0,0.0
31659,93.0,720,359,0.0,0.0
31660,81.0,15,6104,8.0,0.0
31661,81.0,0,6119,5.0,0.0
31662,93.0,0,6119,0.0,0.0
31663,81.0,60,1124,12.0,0.0
31664,81.0,0,6119,1.0,0.0
31665,57.0,240,359,6.0,0.0
31666,57.0,0,359,14.0,0.0
31667,57.0,0,359,11.0,0.0
31668,57.0,0,359,15.0,0.0
31669,57.0,0,359,4.0,0.0
31670,57.0,0,359,3.0,0.0
31671,57.0,0,359,5.0,0.0
31672,69.0,0,359,11.0,0.0
31673,69.0,0,359,5.0,0.0
31674,66.0,120,239,4.0,0.0
31675,69.0,0,359,14.0,0.0
31676,69.0,45,359,6.0,0.0
31677,69.0,0,359,4.0,0.0
31678,69.0,0,359,15.0,0.0
31679,69.0,0,359,3.0,0.0
31680,66.0,0,119,4.0,0.0
31681,69.0,0,359,11.0,0.0
31682,62.0,0,719,11.0,0.0
31683,50.0,45,119,7.0,0.0
31684,69.0,0,359,6.0,0.0
31685,69.0,0,359,3.0,0.0
31686,62.0,0,719,3.0,0.0
31687,67.0,45,239,4.0,0.0
31688,62.0,0,719,6.0,0.0
31689,50.0,0,719,15.0,0.0
31690,69.0,0,359,5.0,0.0
31691,69.0,0,719,15.0,0.0
31692,62.0,45,719,4.0,0.0
31693,50.0,0,719,3.0,0.0
31694,69.0,45,359,14.0,0.0
31695,83.0,15,44,12.0,0.0
31696,81.0,60,44,12.0,0.0
31697,79.0,15,44,12.0,0.0
31698,69.0,0,119,4.0,0.0
31699,78.0,60,44,12.0,0.0
31700,79.0,15,44,12.0,0.0
31701,69.0,15,1064,11.0,0.0
31702,66.0,0,239,10.0,0.0
31703,66.0,45,239,2.0,0.0
31704,69.0,0,239,4.0,0.0
31705,69.0,45,4679,5.0,0.0
31706,81.0,15,44,12.0,0.0
31707,66.0,0,239,6.0,0.0
31708,69.0,0,1079,14.0,0.0
31709,69.0,0,1079,3.0,0.0
31710,66.0,45,59,13.0,0.0
31711,50.0,0,119,7.0,0.0
31712,73.0,15,44,12.0,0.0
31713,57.0,45,59,13.0,0.0
31714,59.0,45,59,13.0,0.0
31715,74.0,15,44,12.0,0.0
31716,76.0,15,44,12.0,0.0
31717,61.0,0,59,13.0,0.0
31718,66.0,0,119,6.0,0.0
31719,66.0,15,104,10.0,0.0
31720,78.0,15,44,12.0,0.0
31721,62.0,45,59,13.0,0.0
31722,67.0,0,119,4.0,0.0
31723,66.0,0,119,2.0,0.0
31724,79.0,0,44,12.0,0.0
31725,64.0,0,59,13.0,0.0
31726,62.0,0,359,15.0,0.0
31727,50.0,45,119,7.0,0.0
31728,50.0,0,359,15.0,0.0
31729,67.0,0,239,2.0,0.0
31730,62.0,0,359,11.0,0.0
31731,62.0,0,359,4.0,0.0
31732,67.0,0,239,10.0,0.0
31733,81.0,15,44,12.0,0.0
31734,50.0,45,359,3.0,0.0
31735,66.0,45,59,13.0,0.0
31736,66.0,0,239,4.0,0.0
31737,62.0,0,359,6.0,0.0
31738,62.0,0,359,3.0,0.0
31739,67.0,45,239,6.0,0.0
31740,79.0,15,44,12.0,0.0
31741,64.0,0,59,13.0,0.0
31742,78.0,15,44,12.0,0.0
31743,62.0,45,59,13.0,0.0
31744,79.0,15,44,12.0,0.0
31745,64.0,0,59,13.0,0.0
31746,69.0,0,119,6.0,0.0
31747,69.0,0,119,2.0,0.0
31748,66.0,45,59,13.0,0.0
31749,81.0,15,44,12.0,0.0
31750,64.0,0,119,4.0,0.0
31751,69.0,0,119,10.0,0.0
31752,83.0,15,44,12.0,0.0
31753,67.0,0,59,13.0,0.0
31754,69.0,45,59,13.0,0.0
31755,62.0,0,239,4.0,0.0
31756,49.0,0,359,3.0,0.0
31757,49.0,0,359,15.0,0.0
31758,61.0,0,359,15.0,0.0
31759,57.0,0,359,4.0,0.0
31760,69.0,0,239,10.0,0.0
31761,61.0,0,359,6.0,0.0
31762,69.0,0,239,6.0,0.0
31763,69.0,0,239,2.0,0.0
31764,45.0,0,119,7.0,0.0
31765,61.0,0,359,11.0,0.0
31766,61.0,0,359,3.0,0.0
31767,81.0,15,44,12.0,0.0
31768,71.0,45,59,13.0,0.0
31769,79.0,15,44,12.0,0.0
31770,69.0,45,59,13.0,0.0
31771,81.0,15,44,12.0,0.0
31772,67.0,45,59,13.0,0.0
31773,83.0,15,44,12.0,0.0
31774,67.0,0,119,6.0,0.0
31775,69.0,45,59,13.0,0.0
31776,76.0,15,44,12.0,0.0
31777,62.0,45,119,4.0,0.0
31778,67.0,0,119,10.0,0.0
31779,67.0,0,119,2.0,0.0
31780,67.0,0,59,13.0,0.0
31781,81.0,0,44,12.0,0.0
31782,62.0,0,719,14.0,0.0
31783,62.0,0,719,3.0,0.0
31784,57.0,0,359,3.0,0.0
31785,81.0,15,44,12.0,0.0
31786,57.0,0,359,15.0,0.0
31787,45.0,0,359,3.0,0.0
31788,64.0,0,239,4.0,0.0
31789,45.0,45,119,7.0,0.0
31790,66.0,0,239,2.0,0.0
31791,57.0,0,359,4.0,0.0
31792,57.0,0,344,11.0,0.0
31793,45.0,0,359,15.0,0.0
31794,57.0,0,359,6.0,0.0
31795,66.0,45,59,13.0,0.0
31796,66.0,0,239,6.0,0.0
31797,62.0,0,719,11.0,0.0
31798,66.0,0,239,10.0,0.0
31799,74.0,15,44,12.0,0.0
31800,67.0,0,59,13.0,0.0
31801,78.0,15,44,12.0,0.0
31802,66.0,45,59,13.0,0.0
31803,64.0,45,59,13.0,0.0
31804,79.0,15,44,12.0,0.0
31805,64.0,0,119,6.0,0.0
31806,64.0,0,119,2.0,0.0
31807,64.0,15,104,10.0,0.0
31808,66.0,45,59,13.0,0.0
31809,66.0,45,119,4.0,0.0
31810,81.0,15,44,12.0,0.0
31811,64.0,0,59,13.0,0.0
31812,81.0,0,44,12.0,0.0
31813,59.0,0,359,15.0,0.0
31814,59.0,0,359,6.0,0.0
31815,81.0,15,44,12.0,0.0
31816,50.0,0,359,4.0,0.0
31817,62.0,0,359,4.0,0.0
31818,62.0,0,239,10.0,0.0
31819,62.0,45,59,13.0,0.0
31820,59.0,0,359,11.0,0.0
31821,47.0,0,359,3.0,0.0
31822,62.0,45,239,2.0,0.0
31823,47.0,45,359,15.0,0.0
31824,59.0,0,359,3.0,0.0
31825,62.0,0,239,6.0,0.0
31826,66.0,0,239,4.0,0.0
31827,50.0,0,119,7.0,0.0
31828,61.0,45,59,13.0,0.0
31829,76.0,15,44,12.0,0.0
31830,59.0,45,59,13.0,0.0
31831,74.0,15,44,12.0,0.0
31832,76.0,15,44,12.0,0.0
31833,61.0,0,59,13.0,0.0
31834,62.0,0,119,2.0,0.0
31835,64.0,0,119,4.0,0.0
31836,62.0,45,59,13.0,0.0
31837,78.0,15,44,12.0,0.0
31838,62.0,0,119,6.0,0.0
31839,62.0,0,119,10.0,0.0
31840,74.0,15,44,12.0,0.0
31841,59.0,0,59,13.0,0.0
31842,64.0,0,239,2.0,0.0
31843,62.0,0,359,3.0,0.0
31844,59.0,0,359,3.0,0.0
31845,79.0,15,44,12.0,0.0
31846,64.0,45,239,6.0,0.0
31847,47.0,0,359,3.0,0.0
31848,62.0,45,359,6.0,0.0
31849,62.0,0,359,14.0,0.0
31850,59.0,0,359,11.0,0.0
31851,62.0,0,359,11.0,0.0
31852,62.0,0,239,4.0,0.0
31853,50.0,45,119,7.0,0.0
31854,59.0,0,359,6.0,0.0
31855,64.0,45,59,13.0,0.0
31856,64.0,0,239,10.0,0.0
31857,59.0,0,359,15.0,0.0
31858,47.0,0,359,15.0,0.0
31859,50.0,0,359,4.0,0.0
31860,61.0,0,59,13.0,0.0
31861,76.0,15,44,12.0,0.0
31862,62.0,45,59,13.0,0.0
31863,78.0,15,44,12.0,0.0
31864,79.0,15,44,12.0,0.0
31865,64.0,0,59,13.0,0.0
31866,66.0,45,59,13.0,0.0
31867,60.0,0,119,4.0,0.0
31868,66.0,0,119,10.0,0.0
31869,81.0,15,44,12.0,0.0
31870,66.0,0,119,6.0,0.0
31871,66.0,0,119,2.0,0.0
31872,62.0,0,59,13.0,0.0
31873,81.0,15,44,12.0,0.0
31874,66.0,0,239,10.0,0.0
31875,60.0,0,359,11.0,0.0
31876,50.0,0,119,7.0,0.0
31877,57.0,0,359,15.0,0.0
31878,60.0,0,359,14.0,0.0
31879,57.0,0,359,6.0,0.0
31880,66.0,45,239,6.0,0.0
31881,81.0,15,44,12.0,0.0
31882,57.0,0,359,11.0,0.0
31883,60.0,0,359,3.0,0.0
31884,57.0,0,359,3.0,0.0
31885,45.0,45,359,15.0,0.0
31886,66.0,45,59,13.0,0.0
31887,60.0,0,359,6.0,0.0
31888,59.0,0,239,4.0,0.0
31889,66.0,0,239,2.0,0.0
31890,45.0,0,359,3.0,0.0
31891,67.0,45,59,13.0,0.0
31892,83.0,15,44,12.0,0.0
31893,81.0,15,44,12.0,0.0
31894,66.0,45,59,13.0,0.0
31895,64.0,0,59,13.0,0.0
31896,79.0,15,44,12.0,0.0
31897,64.0,0,119,10.0,0.0
31898,81.0,15,44,12.0,0.0
31899,66.0,45,59,13.0,0.0
31900,64.0,0,119,2.0,0.0
31901,64.0,0,119,6.0,0.0
31902,62.0,0,119,4.0,0.0
31903,50.0,0,119,4.0,0.0
31904,79.0,15,44,12.0,0.0
31905,64.0,0,59,13.0,0.0
31906,54.0,0,359,3.0,0.0
31907,62.0,45,59,13.0,0.0
31908,57.0,0,359,6.0,0.0
31909,62.0,0,239,6.0,0.0
31910,54.0,0,344,11.0,0.0
31911,42.0,0,359,15.0,0.0
31912,62.0,0,239,2.0,0.0
31913,50.0,0,119,7.0,0.0
31914,54.0,0,359,6.0,0.0
31915,62.0,45,239,10.0,0.0
31916,57.0,0,359,3.0,0.0
31917,42.0,0,359,3.0,0.0
31918,57.0,15,344,11.0,0.0
31919,57.0,0,359,14.0,0.0
31920,50.0,0,239,4.0,0.0
31921,62.0,0,239,4.0,0.0
31922,54.0,0,359,15.0,0.0
31923,81.0,15,44,12.0,0.0
31924,64.0,45,59,13.0,0.0
31925,81.0,15,44,12.0,0.0
31926,62.0,45,59,13.0,0.0
31927,81.0,15,44,12.0,0.0
31928,61.0,0,59,13.0,0.0
31929,81.0,15,44,12.0,0.0
31930,62.0,0,119,4.0,0.0
31931,81.0,15,44,12.0,0.0
31932,50.0,0,119,4.0,0.0
31933,60.0,0,119,2.0,0.0
31934,60.0,0,104,10.0,0.0
31935,60.0,45,119,6.0,0.0
31936,62.0,45,59,13.0,0.0
31937,60.0,0,59,13.0,0.0
31938,81.0,0,44,12.0,0.0
31939,55.0,0,359,15.0,0.0
31940,43.0,45,359,3.0,0.0
31941,55.0,0,359,3.0,0.0
31942,81.0,15,44,12.0,0.0
31943,50.0,45,119,7.0,0.0
31944,55.0,0,359,14.0,0.0
31945,59.0,45,59,13.0,0.0
31946,62.0,45,239,4.0,0.0
31947,59.0,0,239,2.0,0.0
31948,55.0,0,359,6.0,0.0
31949,43.0,0,359,15.0,0.0
31950,59.0,0,239,10.0,0.0
31951,59.0,0,239,6.0,0.0
31952,50.0,0,239,4.0,0.0
31953,55.0,0,359,11.0,0.0
31954,62.0,0,59,13.0,0.0
31955,71.0,15,44,12.0,0.0
31956,72.0,15,44,12.0,0.0
31957,64.0,45,59,13.0,0.0
31958,66.0,0,59,13.0,0.0
31959,74.0,15,44,12.0,0.0
31960,66.0,0,119,4.0,0.0
31961,67.0,45,59,13.0,0.0
31962,71.0,0,119,10.0,0.0
31963,76.0,15,44,12.0,0.0
31964,71.0,0,119,2.0,0.0
31965,71.0,0,119,6.0,0.0
31966,71.0,0,59,13.0,0.0
31967,79.0,15,44,12.0,0.0
31968,81.0,15,44,12.0,0.0
31969,57.0,0,239,6.0,0.0
31970,50.0,0,359,4.0,0.0
31971,62.0,0,359,4.0,0.0
31972,57.0,0,239,11.0,0.0
31973,43.0,0,359,3.0,0.0
31974,72.0,0,239,6.0,0.0
31975,55.0,0,359,6.0,0.0
31976,43.0,45,359,15.0,0.0
31977,57.0,0,239,3.0,0.0
31978,55.0,0,359,3.0,0.0
31979,72.0,45,59,13.0,0.0
31980,50.0,45,119,7.0,0.0
31981,57.0,0,239,14.0,0.0
31982,67.0,0,239,4.0,0.0
31983,72.0,45,239,10.0,0.0
31984,55.0,0,359,11.0,0.0
31985,55.0,0,359,15.0,0.0
31986,72.0,0,239,2.0,0.0
31987,81.0,15,44,12.0,0.0
31988,62.0,0,59,13.0,0.0
31989,81.0,15,44,12.0,0.0
31990,72.0,45,59,13.0,0.0
31991,81.0,15,44,12.0,0.0
31992,62.0,0,59,13.0,0.0
31993,74.0,0,119,2.0,0.0
31994,59.0,0,119,11.0,0.0
31995,74.0,45,59,13.0,0.0
31996,74.0,0,119,10.0,0.0
31997,59.0,0,119,3.0,0.0
31998,69.0,0,119,4.0,0.0
31999,83.0,15,44,12.0,0.0
32000,59.0,0,119,14.0,0.0
32001,59.0,0,119,6.0,0.0
32002,83.0,15,44,12.0,0.0
32003,62.0,0,59,13.0,0.0
32004,42.0,0,359,3.0,0.0
32005,50.0,45,119,7.0,0.0
32006,74.0,0,239,10.0,0.0
32007,57.0,0,239,11.0,0.0
32008,50.0,0,359,4.0,0.0
32009,54.0,45,359,6.0,0.0
32010,57.0,0,239,3.0,0.0
32011,57.0,0,239,14.0,0.0
32012,54.0,0,359,3.0,0.0
32013,67.0,0,239,4.0,0.0
32014,74.0,45,239,2.0,0.0
32015,62.0,0,359,4.0,0.0
32016,74.0,45,59,13.0,0.0
32017,81.0,15,44,12.0,0.0
32018,54.0,0,359,15.0,0.0
32019,42.0,0,359,15.0,0.0
32020,54.0,0,359,11.0,0.0
32021,62.0,0,59,13.0,0.0
32022,78.0,15,44,12.0,0.0
32023,61.0,45,59,13.0,0.0
32024,76.0,15,44,12.0,0.0
32025,62.0,0,59,13.0,0.0
32026,78.0,15,44,12.0,0.0
32027,66.0,0,119,6.0,0.0
32028,66.0,0,119,4.0,0.0
32029,79.0,15,44,12.0,0.0
32030,66.0,0,119,2.0,0.0
32031,62.0,0,119,11.0,0.0
32032,64.0,45,59,13.0,0.0
32033,66.0,0,119,10.0,0.0
32034,62.0,0,119,3.0,0.0
32035,62.0,0,119,14.0,0.0
32036,62.0,0,119,6.0,0.0
32037,81.0,15,44,12.0,0.0
32038,66.0,0,59,13.0,0.0
32039,62.0,0,359,6.0,0.0
32040,62.0,0,359,3.0,0.0
32041,62.0,0,359,4.0,0.0
32042,67.0,45,239,4.0,0.0
32043,50.0,45,119,7.0,0.0
32044,50.0,0,359,4.0,0.0
32045,67.0,0,239,6.0,0.0
32046,67.0,15,224,10.0,0.0
32047,50.0,0,359,3.0,0.0
32048,64.0,0,239,6.0,0.0
32049,64.0,0,239,3.0,0.0
32050,81.0,15,44,12.0,0.0
32051,50.0,0,359,15.0,0.0
32052,67.0,45,59,13.0,0.0
32053,62.0,0,359,11.0,0.0
32054,67.0,0,239,2.0,0.0
32055,62.0,0,359,15.0,0.0
32056,64.0,0,239,11.0,0.0
32057,64.0,0,239,14.0,0.0
32058,66.0,0,59,13.0,0.0
32059,74.0,15,44,12.0,0.0
32060,64.0,45,59,13.0,0.0
32061,73.0,15,44,12.0,0.0
32062,66.0,0,59,13.0,0.0
32063,74.0,0,44,12.0,0.0
32064,67.0,45,59,13.0,0.0
32065,66.0,0,119,3.0,0.0
32066,69.0,0,119,6.0,0.0
32067,69.0,0,119,4.0,0.0
32068,66.0,0,119,14.0,0.0
32069,66.0,15,104,11.0,0.0
32070,69.0,45,119,10.0,0.0
32071,81.0,15,44,12.0,0.0
32072,66.0,0,119,6.0,0.0
32073,69.0,0,119,2.0,0.0
32074,81.0,0,44,12.0,0.0
32075,69.0,0,59,13.0,0.0
32076,67.0,0,239,2.0,0.0
32077,52.0,0,359,15.0,0.0
32078,64.0,0,359,15.0,0.0
32079,52.0,0,359,3.0,0.0
32080,67.0,0,239,4.0,0.0
32081,67.0,45,59,13.0,0.0
32082,64.0,0,359,11.0,0.0
32083,64.0,0,359,4.0,0.0
32084,67.0,0,239,10.0,0.0
32085,81.0,15,44,12.0,0.0
32086,67.0,45,239,6.0,0.0
32087,64.0,0,359,6.0,0.0
32088,64.0,0,599,14.0,0.0
32089,66.0,45,59,13.0,0.0
32090,81.0,15,44,12.0,0.0
32091,79.0,15,44,12.0,0.0
32092,64.0,45,59,13.0,0.0
32093,62.0,0,59,13.0,0.0
32094,78.0,15,44,12.0,0.0
32095,64.0,45,59,13.0,0.0
32096,79.0,15,44,12.0,0.0
32097,66.0,0,119,4.0,0.0
32098,66.0,0,119,2.0,0.0
32099,66.0,0,119,10.0,0.0
32100,66.0,0,59,13.0,0.0
32101,81.0,0,44,12.0,0.0
32102,81.0,0,359,8.0,0.0
32103,81.0,15,44,12.0,0.0
32104,52.0,0,359,15.0,0.0
32105,64.0,0,359,4.0,0.0
32106,93.0,0,359,0.0,0.0
32107,81.0,0,359,5.0,0.0
32108,64.0,0,239,6.0,0.0
32109,81.0,0,359,1.0,0.0
32110,64.0,0,359,15.0,0.0
32111,64.0,0,239,3.0,0.0
32112,67.0,45,239,6.0,0.0
32113,69.0,0,359,5.0,0.0
32114,67.0,0,239,2.0,0.0
32115,67.0,0,359,4.0,0.0
32116,67.0,0,239,10.0,0.0
32117,52.0,45,359,3.0,0.0
32118,64.0,0,239,11.0,0.0
32119,67.0,45,59,13.0,0.0
32120,66.0,45,59,13.0,0.0
32121,81.0,15,44,12.0,0.0
32122,64.0,45,59,13.0,0.0
32123,79.0,15,44,12.0,0.0
32124,78.0,15,44,12.0,0.0
32125,66.0,0,59,13.0,0.0
32126,76.0,15,44,12.0,0.0
32127,66.0,0,119,11.0,0.0
32128,66.0,0,119,3.0,0.0
32129,67.0,45,59,13.0,0.0
32130,69.0,0,119,6.0,0.0
32131,66.0,0,119,14.0,0.0
32132,69.0,0,119,2.0,0.0
32133,69.0,0,119,10.0,0.0
32134,66.0,0,119,6.0,0.0
32135,81.0,15,44,12.0,0.0
32136,69.0,0,59,13.0,0.0
32137,71.0,0,239,2.0,0.0
32138,81.0,0,359,8.0,0.0
32139,71.0,0,239,6.0,0.0
32140,81.0,15,44,12.0,0.0
32141,67.0,0,239,11.0,0.0
32142,71.0,45,59,13.0,0.0
32143,81.0,0,359,1.0,0.0
32144,67.0,0,239,14.0,0.0
32145,71.0,45,239,10.0,0.0
32146,52.0,0,1079,3.0,0.0
32147,64.0,45,1079,6.0,0.0
32148,67.0,0,239,3.0,0.0
32149,69.0,0,359,5.0,0.0
32150,81.0,0,359,5.0,0.0
32151,67.0,0,239,6.0,0.0
32152,52.0,0,1079,15.0,0.0
32153,67.0,45,359,4.0,0.0
32154,93.0,0,359,0.0,0.0
32155,64.0,0,1079,11.0,0.0
32156,64.0,0,1079,15.0,0.0
32157,64.0,0,1079,4.0,0.0
32158,64.0,0,1079,3.0,0.0
32159,78.0,15,44,12.0,0.0
32160,69.0,45,59,13.0,0.0
32161,76.0,15,44,12.0,0.0
32162,67.0,45,59,13.0,0.0
32163,66.0,0,59,13.0,0.0
32164,74.0,15,44,12.0,0.0
32165,66.0,0,119,6.0,0.0
32166,66.0,0,119,3.0,0.0
32167,66.0,0,119,14.0,0.0
32168,69.0,0,119,2.0,0.0
32169,76.0,15,44,12.0,0.0
32170,69.0,0,119,10.0,0.0
32171,67.0,45,59,13.0,0.0
32172,66.0,0,119,11.0,0.0
32173,81.0,15,44,12.0,0.0
32174,69.0,0,59,13.0,0.0
32175,71.0,0,239,6.0,0.0
32176,67.0,0,359,4.0,0.0
32177,93.0,0,359,0.0,0.0
32178,81.0,0,359,5.0,0.0
32179,79.0,15,44,12.0,0.0
32180,67.0,0,359,3.0,0.0
32181,67.0,0,359,6.0,0.0
32182,71.0,0,239,10.0,0.0
32183,69.0,0,359,5.0,0.0
32184,67.0,45,359,14.0,0.0
32185,81.0,0,359,1.0,0.0
32186,71.0,45,59,13.0,0.0
32187,67.0,0,359,11.0,0.0
32188,81.0,0,359,8.0,0.0
32189,71.0,45,239,2.0,0.0
32190,67.0,45,59,13.0,0.0
32191,79.0,15,44,12.0,0.0
32192,71.0,45,59,13.0,0.0
32193,79.0,15,44,12.0,0.0
32194,79.0,15,44,12.0,0.0
32195,67.0,0,59,13.0,0.0
32196,73.0,45,359,6.0,0.0
32197,81.0,15,44,12.0,0.0
32198,73.0,0,359,10.0,0.0
32199,73.0,0,359,2.0,0.0
32200,73.0,45,59,13.0,0.0
32201,81.0,15,44,12.0,0.0
32202,67.0,0,59,13.0,0.0
32203,73.0,45,59,13.0,0.0
32204,81.0,240,1439,5.0,0.0
32205,69.0,0,1439,5.0,0.0
32206,93.0,0,1439,0.0,0.0
32207,67.0,0,359,14.0,0.0
32208,81.0,0,1439,1.0,0.0
32209,81.0,0,1439,8.0,0.0
32210,67.0,0,359,3.0,0.0
32211,81.0,15,44,12.0,0.0
32212,67.0,0,359,6.0,0.0
32213,45.0,45,119,7.0,0.0
32214,67.0,0,359,11.0,0.0
32215,66.0,0,719,4.0,0.0
32216,69.0,15,44,12.0,0.0
32217,67.0,0,59,13.0,0.0
32218,81.0,15,44,12.0,0.0
32219,73.0,45,59,13.0,0.0
32220,67.0,0,59,13.0,0.0
32221,69.0,15,44,12.0,0.0
32222,69.0,0,119,6.0,0.0
32223,81.0,15,44,12.0,0.0
32224,69.0,0,119,10.0,0.0
32225,69.0,0,119,2.0,0.0
32226,69.0,45,59,13.0,0.0
32227,67.0,0,59,13.0,0.0
32228,69.0,15,44,12.0,0.0
32229,67.0,0,359,11.0,0.0
32230,71.0,0,239,6.0,0.0
32231,81.0,15,44,12.0,0.0
32232,67.0,0,359,6.0,0.0
32233,71.0,0,239,2.0,0.0
32234,71.0,45,59,13.0,0.0
32235,52.0,0,359,3.0,0.0
32236,64.0,0,359,4.0,0.0
32237,67.0,0,359,3.0,0.0
32238,64.0,0,359,15.0,0.0
32239,64.0,0,359,11.0,0.0
32240,52.0,0,359,15.0,0.0
32241,64.0,0,359,3.0,0.0
32242,71.0,0,239,10.0,0.0
32243,64.0,0,359,6.0,0.0
32244,45.0,0,119,7.0,0.0
32245,67.0,0,359,14.0,0.0
32246,69.0,15,44,12.0,0.0
32247,67.0,45,59,13.0,0.0
32248,71.0,45,59,13.0,0.0
32249,81.0,15,44,12.0,0.0
32250,67.0,45,59,13.0,0.0
32251,69.0,15,44,12.0,0.0
32252,73.0,0,119,10.0,0.0
32253,81.0,15,44,12.0,0.0
32254,73.0,0,119,2.0,0.0
32255,73.0,45,59,13.0,0.0
32256,73.0,0,119,6.0,0.0
32257,67.0,30,59,13.0,0.0
32258,69.0,15,44,12.0,0.0
32259,74.0,0,239,10.0,0.0
32260,62.0,0,719,15.0,0.0
32261,62.0,0,719,3.0,0.0
32262,50.0,0,719,15.0,0.0
32263,50.0,15,29,7.0,0.0
32264,62.0,0,719,6.0,0.0
32265,81.0,15,44,12.0,0.0
32266,50.0,0,719,3.0,0.0
32267,66.0,0,719,11.0,0.0
32268,74.0,30,59,13.0,0.0
32269,62.0,15,704,11.0,0.0
32270,62.0,0,719,4.0,0.0
32271,66.0,0,719,14.0,0.0
32272,74.0,0,239,2.0,0.0
32273,66.0,0,719,3.0,0.0
32274,66.0,0,719,6.0,0.0
32275,50.0,0,29,7.0,0.0
32276,78.0,15,44,12.0,0.0
32277,50.0,15,29,7.0,0.0
32278,69.0,0,59,13.0,0.0
32279,50.0,30,29,7.0,0.0
32280,79.0,15,44,12.0,0.0
32281,71.0,0,59,13.0,0.0
32282,50.0,15,29,7.0,0.0
32283,50.0,30,29,7.0,0.0
32284,50.0,15,29,7.0,0.0
32285,73.0,30,59,13.0,0.0
32286,81.0,15,44,12.0,0.0
32287,50.0,0,29,7.0,0.0
32288,50.0,15,29,7.0,0.0
32289,74.0,30,59,13.0,0.0
32290,73.0,0,119,2.0,0.0
32291,83.0,15,44,12.0,0.0
32292,74.0,0,119,10.0,0.0
32293,50.0,0,29,7.0,0.0
32294,73.0,30,59,13.0,0.0
32295,81.0,15,44,12.0,0.0
32296,50.0,15,29,7.0,0.0
32297,50.0,0,29,7.0,0.0
32298,74.0,0,359,10.0,0.0
32299,74.0,0,59,13.0,0.0
32300,74.0,0,359,2.0,0.0
32301,81.0,15,44,12.0,0.0
32302,50.0,15,29,7.0,0.0
32303,50.0,30,29,7.0,0.0
32304,74.0,15,44,12.0,0.0
32305,78.0,30,59,13.0,0.0
32306,50.0,15,29,7.0,0.0
32307,50.0,0,29,7.0,0.0
32308,50.0,15,29,7.0,0.0
32309,78.0,15,44,12.0,0.0
32310,81.0,30,59,13.0,0.0
32311,50.0,0,29,7.0,0.0
32312,50.0,15,29,7.0,0.0
32313,73.0,105,59,13.0,0.0
32314,81.0,15,44,12.0,0.0
32315,50.0,0,29,7.0,0.0
32316,50.0,0,119,7.0,0.0
32317,81.0,0,119,12.0,0.0
32318,74.0,0,119,13.0,0.0
32319,54.0,0,239,15.0,0.0
32320,42.0,120,239,15.0,0.0
32321,54.0,0,239,11.0,0.0
32322,54.0,0,239,14.0,0.0
32323,66.0,0,239,13.0,0.0
32324,66.0,0,239,12.0,0.0
32325,54.0,0,119,3.0,0.0
32326,66.0,0,119,2.0,0.0
32327,54.0,120,119,3.0,0.0
32328,66.0,0,119,2.0,0.0
32329,66.0,120,119,2.0,0.0
32330,54.0,0,119,3.0,0.0
32331,66.0,0,119,2.0,0.0
32332,54.0,120,119,3.0,0.0
32333,54.0,0,119,3.0,0.0
32334,54.0,0,119,11.0,0.0
32335,66.0,0,119,13.0,0.0
32336,66.0,240,119,2.0,0.0
32337,66.0,0,119,12.0,0.0
32338,54.0,0,119,15.0,0.0
32339,54.0,0,119,14.0,0.0
32340,42.0,0,119,15.0,0.0
32341,36.0,0,239,15.0,0.0
32342,60.0,120,239,12.0,0.0
32343,48.0,0,239,15.0,0.0
32344,48.0,0,239,14.0,0.0
32345,60.0,0,239,13.0,0.0
32346,48.0,0,239,11.0,0.0
32347,60.0,0,119,2.0,0.0
32348,48.0,0,119,3.0,0.0
32349,48.0,0,119,3.0,0.0
32350,60.0,120,119,2.0,0.0
32351,48.0,0,119,3.0,0.0
32352,60.0,120,119,2.0,0.0
32353,60.0,0,119,2.0,0.0
32354,48.0,105,119,3.0,0.0
32355,48.0,0,119,3.0,0.0
32356,48.0,0,119,14.0,0.0
32357,48.0,15,104,11.0,0.0
32358,48.0,0,119,15.0,0.0
32359,60.0,0,119,12.0,0.0
32360,60.0,0,119,13.0,0.0
32361,36.0,0,119,15.0,0.0
32362,60.0,240,119,2.0,0.0
32363,57.0,0,239,14.0,0.0
32364,45.0,0,239,15.0,0.0
32365,69.0,0,239,13.0,0.0
32366,57.0,0,239,11.0,0.0
32367,57.0,0,239,15.0,0.0
32368,69.0,120,239,12.0,0.0
32369,57.0,0,119,3.0,0.0
32370,69.0,0,119,2.0,0.0
32371,57.0,120,119,3.0,0.0
32372,69.0,0,119,2.0,0.0
32373,69.0,0,119,2.0,0.0
32374,57.0,120,119,3.0,0.0
32375,69.0,120,119,2.0,0.0
32376,57.0,0,119,3.0,0.0
32377,45.0,0,119,15.0,0.0
32378,57.0,0,119,15.0,0.0
32379,69.0,240,119,12.0,0.0
32380,69.0,0,119,2.0,0.0
32381,57.0,0,119,14.0,0.0
32382,57.0,0,119,3.0,0.0
32383,57.0,0,119,11.0,0.0
32384,69.0,0,119,13.0,0.0
32385,70.0,0,239,13.0,0.0
32386,58.0,0,239,14.0,0.0
32387,58.0,0,239,15.0,0.0
32388,46.0,0,239,15.0,0.0
32389,70.0,0,239,12.0,0.0
32390,58.0,0,239,11.0,0.0
32391,58.0,0,119,3.0,0.0
32392,70.0,120,119,2.0,0.0
32393,58.0,0,119,3.0,0.0
32394,70.0,120,119,2.0,0.0
32395,58.0,120,119,3.0,0.0
32396,70.0,0,119,2.0,0.0
32397,70.0,0,119,2.0,0.0
32398,58.0,120,119,3.0,0.0
32399,58.0,0,119,15.0,0.0
32400,46.0,0,119,15.0,0.0
32401,70.0,0,119,12.0,0.0
32402,58.0,240,119,3.0,0.0
32403,58.0,0,119,14.0,0.0
32404,70.0,0,119,2.0,0.0
32405,70.0,0,119,13.0,0.0
32406,58.0,0,119,11.0,0.0
32407,52.0,0,239,15.0,0.0
32408,52.0,0,239,14.0,0.0
32409,64.0,0,239,13.0,0.0
32410,40.0,0,239,15.0,0.0
32411,64.0,0,239,12.0,0.0
32412,52.0,0,239,11.0,0.0
32413,52.0,0,119,3.0,0.0
32414,64.0,120,119,2.0,0.0
32415,52.0,0,119,3.0,0.0
32416,64.0,120,119,2.0,0.0
32417,64.0,0,119,2.0,0.0
32418,52.0,120,119,3.0,0.0
32419,64.0,120,119,2.0,0.0
32420,52.0,0,119,3.0,0.0
32421,52.0,0,119,14.0,0.0
32422,40.0,0,119,15.0,0.0
32423,52.0,240,119,15.0,0.0
32424,52.0,0,119,11.0,0.0
32425,64.0,0,119,13.0,0.0
32426,64.0,0,119,2.0,0.0
32427,64.0,0,119,12.0,0.0
32428,52.0,0,119,3.0,0.0
32429,61.0,0,239,15.0,0.0
32430,73.0,0,239,12.0,0.0
32431,61.0,0,239,14.0,0.0
32432,61.0,0,239,11.0,0.0
32433,73.0,120,239,13.0,0.0
32434,49.0,0,239,15.0,0.0
32435,73.0,0,119,2.0,0.0
32436,61.0,0,119,3.0,0.0
32437,73.0,0,119,2.0,0.0
32438,61.0,120,119,3.0,0.0
32439,61.0,120,119,3.0,0.0
32440,73.0,0,119,2.0,0.0
32441,73.0,120,119,2.0,0.0
32442,61.0,0,119,3.0,0.0
32443,61.0,0,119,15.0,0.0
32444,49.0,0,119,15.0,0.0
32445,61.0,0,119,11.0,0.0
32446,61.0,0,119,14.0,0.0
32447,73.0,0,119,2.0,0.0
32448,61.0,0,119,3.0,0.0
32449,73.0,240,119,12.0,0.0
32450,73.0,0,119,13.0,0.0
32451,38.0,0,239,15.0,0.0
32452,74.0,0,239,12.0,0.0
32453,62.0,120,239,14.0,0.0
32454,62.0,0,239,11.0,0.0
32455,74.0,0,239,13.0,0.0
32456,50.0,0,239,15.0,0.0
32457,62.0,0,119,3.0,0.0
32458,74.0,0,119,2.0,0.0
32459,74.0,0,119,2.0,0.0
32460,62.0,120,119,3.0,0.0
32461,62.0,120,119,3.0,0.0
32462,74.0,0,119,2.0,0.0
32463,62.0,105,119,3.0,0.0
32464,74.0,0,119,2.0,0.0
32465,74.0,0,119,13.0,0.0
32466,62.0,0,119,14.0,0.0
32467,50.0,240,119,15.0,0.0
32468,62.0,0,119,3.0,0.0
32469,38.0,0,119,15.0,0.0
32470,74.0,0,119,2.0,0.0
32471,62.0,15,104,11.0,0.0
32472,74.0,0,119,12.0,0.0
32473,75.0,0,719,13.0,0.0
32474,63.0,0,719,11.0,0.0
32475,51.0,0,719,15.0,0.0
32476,39.0,0,719,15.0,0.0
32477,75.0,240,719,12.0,0.0
32478,63.0,0,719,14.0,0.0
32479,63.0,0,119,3.0,0.0
32480,75.0,120,119,2.0,0.0
32481,75.0,0,119,2.0,0.0
32482,63.0,120,119,3.0,0.0
32483,75.0,120,119,2.0,0.0
32484,63.0,0,119,3.0,0.0
32485,63.0,0,119,3.0,0.0
32486,75.0,120,119,2.0,0.0
32487,75.0,0,119,2.0,0.0
32488,63.0,0,119,3.0,0.0
32489,43.0,0,239,15.0,0.0
32490,55.0,0,239,10.0,0.0
32491,67.0,0,239,13.0,0.0
32492,67.0,120,239,12.0,0.0
32493,55.0,0,239,14.0,0.0
32494,31.0,0,239,15.0,0.0
32495,67.0,0,119,1.0,0.0
32496,55.0,0,119,3.0,0.0
32497,67.0,0,119,2.0,0.0
32498,67.0,0,119,2.0,0.0
32499,67.0,0,119,1.0,0.0
32500,55.0,120,119,3.0,0.0
32501,67.0,120,119,1.0,0.0
32502,55.0,0,119,3.0,0.0
32503,67.0,0,119,2.0,0.0
32504,67.0,120,119,1.0,0.0
32505,67.0,0,119,2.0,0.0
32506,55.0,0,119,3.0,0.0
32507,43.0,0,119,15.0,0.0
32508,31.0,0,119,15.0,0.0
32509,55.0,0,119,3.0,0.0
32510,67.0,0,119,12.0,0.0
32511,67.0,0,119,2.0,0.0
32512,67.0,0,119,1.0,0.0
32513,55.0,0,119,14.0,0.0
32514,67.0,240,119,13.0,0.0
32515,55.0,0,119,10.0,0.0
32516,76.0,0,239,12.0,0.0
32517,64.0,0,239,10.0,0.0
32518,64.0,0,239,14.0,0.0
32519,52.0,0,239,15.0,0.0
32520,40.0,0,239,15.0,0.0
32521,76.0,0,239,13.0,0.0
32522,76.0,0,119,1.0,0.0
32523,64.0,0,119,3.0,0.0
32524,76.0,120,119,2.0,0.0
32525,64.0,120,119,3.0,0.0
32526,76.0,0,119,1.0,0.0
32527,76.0,0,119,2.0,0.0
32528,76.0,0,119,2.0,0.0
32529,76.0,120,119,1.0,0.0
32530,64.0,0,119,3.0,0.0
32531,64.0,0,119,3.0,0.0
32532,76.0,120,119,2.0,0.0
32533,76.0,0,119,1.0,0.0
32534,76.0,0,119,1.0,0.0
32535,52.0,0,119,15.0,0.0
32536,64.0,0,119,14.0,0.0
32537,64.0,0,119,10.0,0.0
32538,64.0,0,119,3.0,0.0
32539,40.0,0,119,15.0,0.0
32540,76.0,240,119,12.0,0.0
32541,76.0,0,119,2.0,0.0
32542,76.0,0,119,13.0,0.0
32543,41.0,0,239,15.0,0.0
32544,65.0,0,239,10.0,0.0
32545,65.0,0,239,14.0,0.0
32546,77.0,0,239,12.0,0.0
32547,53.0,0,239,15.0,0.0
32548,77.0,0,239,13.0,0.0
32549,77.0,0,119,1.0,0.0
32550,77.0,120,119,2.0,0.0
32551,65.0,0,119,3.0,0.0
32552,77.0,0,119,1.0,0.0
32553,77.0,120,119,2.0,0.0
32554,65.0,0,119,3.0,0.0
32555,77.0,120,119,1.0,0.0
32556,65.0,0,119,3.0,0.0
32557,77.0,0,119,2.0,0.0
32558,77.0,0,119,1.0,0.0
32559,77.0,0,119,2.0,0.0
32560,65.0,120,119,3.0,0.0
32561,41.0,0,119,15.0,0.0
32562,77.0,0,119,12.0,0.0
32563,77.0,0,119,13.0,0.0
32564,65.0,0,119,3.0,0.0
32565,65.0,0,119,14.0,0.0
32566,53.0,0,119,15.0,0.0
32567,77.0,240,119,2.0,0.0
32568,77.0,0,119,1.0,0.0
32569,65.0,0,119,10.0,0.0
32570,66.0,0,719,14.0,0.0
32571,66.0,15,704,10.0,0.0
32572,54.0,0,719,15.0,0.0
32573,42.0,0,719,15.0,0.0
32574,78.0,240,719,12.0,0.0
32575,78.0,0,719,13.0,0.0
32576,78.0,0,119,2.0,0.0
32577,66.0,0,119,2.0,0.0
32578,54.0,0,119,3.0,0.0
32579,66.0,0,119,3.0,0.0
32580,78.0,120,119,1.0,0.0
32581,54.0,120,119,3.0,0.0
32582,78.0,0,119,2.0,0.0
32583,66.0,0,119,2.0,0.0
32584,78.0,0,119,1.0,0.0
32585,66.0,0,119,3.0,0.0
32586,66.0,0,119,3.0,0.0
32587,54.0,120,119,3.0,0.0
32588,78.0,0,119,2.0,0.0
32589,66.0,0,119,2.0,0.0
32590,78.0,0,119,1.0,0.0
32591,78.0,105,119,1.0,0.0
32592,54.0,0,119,3.0,0.0
32593,66.0,0,119,3.0,0.0
32594,78.0,0,119,2.0,0.0
32595,66.0,0,119,2.0,0.0
32596,78.0,0,119,1.0,0.0
32597,78.0,0,119,2.0,0.0
32598,66.0,0,119,2.0,0.0
32599,54.0,0,119,3.0,0.0
32600,66.0,0,119,3.0,0.0
32601,70.0,0,239,12.0,0.0
32602,58.0,0,239,10.0,0.0
32603,46.0,0,239,11.0,0.0
32604,70.0,0,239,8.0,0.0
32605,46.0,0,239,15.0,0.0
32606,58.0,0,239,14.0,0.0
32607,70.0,0,239,13.0,0.0
32608,34.0,0,239,15.0,0.0
32609,58.0,0,239,11.0,0.0
32610,70.0,0,119,1.0,0.0
32611,46.0,0,119,3.0,0.0
32612,58.0,0,119,3.0,0.0
32613,70.0,0,119,2.0,0.0
32614,58.0,120,119,2.0,0.0
32615,82.0,0,119,0.0,0.0
32616,58.0,0,119,3.0,0.0
32617,58.0,0,119,2.0,0.0
32618,70.0,0,119,1.0,0.0
32619,46.0,120,119,3.0,0.0
32620,82.0,0,119,0.0,0.0
32621,70.0,0,119,2.0,0.0
32622,70.0,0,119,2.0,0.0
32623,82.0,0,119,0.0,0.0
32624,58.0,0,119,2.0,0.0
32625,70.0,120,119,1.0,0.0
32626,46.0,0,119,3.0,0.0
32627,58.0,0,119,3.0,0.0
32628,46.0,0,119,3.0,0.0
32629,70.0,120,119,1.0,0.0
32630,70.0,0,119,2.0,0.0
32631,58.0,0,119,2.0,0.0
32632,82.0,0,119,0.0,0.0
32633,58.0,0,119,3.0,0.0
32634,46.0,0,119,11.0,0.0
32635,46.0,0,119,3.0,0.0
32636,58.0,0,119,3.0,0.0
32637,70.0,0,119,2.0,0.0
32638,58.0,0,119,2.0,0.0
32639,70.0,0,119,12.0,0.0
32640,58.0,0,119,10.0,0.0
32641,70.0,0,119,8.0,0.0
32642,70.0,0,119,13.0,0.0
32643,34.0,0,119,15.0,0.0
32644,82.0,240,119,0.0,0.0
32645,58.0,0,119,14.0,0.0
32646,58.0,0,119,11.0,0.0
32647,46.0,0,119,15.0,0.0
32648,70.0,0,119,1.0,0.0
32649,79.0,0,239,12.0,0.0
32650,55.0,0,239,11.0,0.0
32651,79.0,0,239,13.0,0.0
32652,67.0,0,239,10.0,0.0
32653,79.0,0,239,8.0,0.0
32654,67.0,0,239,11.0,0.0
32655,55.0,0,239,15.0,0.0
32656,67.0,0,239,14.0,0.0
32657,43.0,0,239,15.0,0.0
32658,91.0,0,119,0.0,0.0
32659,79.0,120,119,1.0,0.0
32660,79.0,0,119,2.0,0.0
32661,67.0,0,119,2.0,0.0
32662,67.0,0,119,3.0,0.0
32663,55.0,0,119,3.0,0.0
32664,91.0,0,119,0.0,0.0
32665,67.0,120,119,3.0,0.0
32666,55.0,0,119,3.0,0.0
32667,79.0,0,119,1.0,0.0
32668,67.0,0,119,2.0,0.0
32669,79.0,0,119,2.0,0.0
32670,79.0,120,119,1.0,0.0
32671,79.0,0,119,2.0,0.0
32672,67.0,0,119,2.0,0.0
32673,91.0,0,119,0.0,0.0
32674,67.0,0,119,3.0,0.0
32675,55.0,0,119,3.0,0.0
32676,91.0,0,119,0.0,0.0
32677,79.0,0,119,1.0,0.0
32678,67.0,120,119,3.0,0.0
32679,55.0,0,119,3.0,0.0
32680,79.0,0,119,2.0,0.0
32681,67.0,0,119,2.0,0.0
32682,79.0,0,119,13.0,0.0
32683,79.0,0,119,8.0,0.0
32684,55.0,0,119,11.0,0.0
32685,67.0,0,119,14.0,0.0
32686,55.0,0,119,3.0,0.0
32687,67.0,0,119,3.0,0.0
32688,43.0,0,119,15.0,0.0
32689,67.0,0,119,2.0,0.0
32690,79.0,0,119,2.0,0.0
32691,55.0,240,119,15.0,0.0
32692,67.0,0,119,11.0,0.0
32693,67.0,0,119,10.0,0.0
32694,79.0,0,119,1.0,0.0
32695,79.0,0,119,12.0,0.0
32696,91.0,0,119,0.0,0.0
32697,68.0,0,239,11.0,0.0
32698,80.0,0,239,13.0,0.0
32699,80.0,120,239,8.0,0.0
32700,80.0,0,239,12.0,0.0
32701,56.0,0,239,11.0,0.0
32702,68.0,0,239,10.0,0.0
32703,56.0,0,239,15.0,0.0
32704,44.0,0,239,15.0,0.0
32705,68.0,0,239,14.0,0.0
32706,92.0,0,119,0.0,0.0
32707,68.0,0,119,3.0,0.0
32708,56.0,0,119,3.0,0.0
32709,80.0,0,119,1.0,0.0
32710,68.0,0,119,2.0,0.0
32711,80.0,0,119,2.0,0.0
32712,68.0,0,119,2.0,0.0
32713,92.0,0,119,0.0,0.0
32714,80.0,0,119,2.0,0.0
32715,80.0,120,119,1.0,0.0
32716,56.0,0,119,3.0,0.0
32717,68.0,0,119,3.0,0.0
32718,80.0,120,119,1.0,0.0
32719,56.0,0,119,3.0,0.0
32720,80.0,0,119,2.0,0.0
32721,68.0,0,119,2.0,0.0
32722,68.0,0,119,3.0,0.0
32723,92.0,0,119,0.0,0.0
32724,68.0,0,119,2.0,0.0
32725,68.0,0,119,3.0,0.0
32726,56.0,0,119,3.0,0.0
32727,80.0,0,119,1.0,0.0
32728,80.0,120,119,2.0,0.0
32729,92.0,0,119,0.0,0.0
32730,68.0,0,119,3.0,0.0
32731,80.0,0,119,12.0,0.0
32732,68.0,0,119,10.0,0.0
32733,56.0,0,119,3.0,0.0
32734,80.0,0,119,1.0,0.0
32735,68.0,0,119,14.0,0.0
32736,80.0,0,119,8.0,0.0
32737,68.0,345,119,2.0,0.0
32738,44.0,0,119,15.0,0.0
32739,56.0,0,119,11.0,0.0
32740,80.0,0,119,13.0,0.0
32741,80.0,0,119,2.0,0.0
32742,92.0,0,119,0.0,0.0
32743,56.0,0,119,15.0,0.0
32744,81.0,0,359,13.0,0.0
32745,81.0,0,344,8.0,0.0
32746,69.0,0,359,2.0,0.0
32747,45.0,0,359,15.0,0.0
32748,57.0,0,359,3.0,0.0
32749,45.0,0,359,3.0,0.0
32750,81.0,0,359,5.0,0.0
32751,69.0,0,359,5.0,0.0
32752,93.0,0,359,0.0,0.0
32753,81.0,0,359,0.0,0.0
32754,81.0,0,359,1.0,0.0
32755,69.0,0,359,1.0,0.0
32756,57.0,0,359,4.0,0.0
32757,81.0,0,359,2.0,0.0
32758,57.0,720,359,15.0,0.0
32759,81.0,0,359,12.0,0.0
32760,69.0,0,359,4.0,0.0
32761,57.0,0,344,11.0,0.0
32762,69.0,0,344,10.0,0.0
32763,69.0,0,359,14.0,0.0
32764,61.0,0,719,11.0,0.0
32765,88.0,0,719,0.0,0.0
32766,85.0,0,719,0.0,0.0
32767,57.0,0,719,5.0,0.0
32768,69.0,0,719,5.0,0.0
32769,57.0,0,719,11.0,0.0
32770,76.0,0,719,1.0,0.0
32771,76.0,0,719,2.0,0.0
32772,73.0,0,719,2.0,0.0
32773,61.0,0,719,3.0,0.0
32774,64.0,0,719,3.0,0.0
32775,76.0,0,719,8.0,0.0
32776,64.0,0,719,4.0,0.0
32777,57.0,0,719,4.0,0.0
32778,69.0,0,719,10.0,0.0
32779,73.0,360,719,1.0,0.0
32780,69.0,0,359,10.0,0.0
32781,61.0,0,359,11.0,0.0
32782,61.0,0,359,3.0,0.0
32783,64.0,0,359,3.0,0.0
32784,57.0,0,359,11.0,0.0
32785,73.0,0,359,2.0,0.0
32786,76.0,0,359,1.0,0.0
32787,57.0,360,359,5.0,0.0
32788,76.0,0,359,8.0,0.0
32789,69.0,0,359,5.0,0.0
32790,73.0,0,359,1.0,0.0
32791,64.0,0,359,4.0,0.0
32792,85.0,0,359,0.0,0.0
32793,88.0,0,359,0.0,0.0
32794,57.0,0,359,4.0,0.0
32795,76.0,0,359,2.0,0.0
32796,57.0,0,359,14.0,0.0
32797,45.0,0,359,15.0,0.0
32798,76.0,0,359,12.0,0.0
32799,71.0,360,359,13.0,0.0
32800,68.0,0,359,13.0,0.0
32801,62.0,0,359,14.0,0.0
32802,57.0,0,359,15.0,0.0
32803,64.0,0,359,12.0,0.0
32804,68.0,0,359,13.0,0.0
32805,45.0,0,359,15.0,0.0
32806,57.0,0,359,14.0,0.0
32807,57.0,0,359,15.0,0.0
32808,62.0,0,359,14.0,0.0
32809,71.0,0,359,13.0,0.0
32810,76.0,0,359,12.0,0.0
32811,64.0,360,359,12.0,0.0
32812,76.0,0,359,8.0,0.0
32813,80.0,0,359,1.0,0.0
32814,57.0,0,359,11.0,0.0
32815,76.0,0,359,5.0,0.0
32816,64.0,0,359,4.0,0.0
32817,57.0,0,359,4.0,0.0
32818,71.0,0,359,10.0,0.0
32819,64.0,0,359,3.0,0.0
32820,71.0,0,359,1.0,0.0
32821,83.0,0,359,0.0,0.0
32822,62.0,0,359,3.0,0.0
32823,88.0,0,359,0.0,0.0
32824,62.0,0,359,11.0,0.0
32825,80.0,360,359,2.0,0.0
32826,71.0,0,359,2.0,0.0
32827,71.0,0,359,1.0,0.0
32828,80.0,360,359,1.0,0.0
32829,62.0,0,359,11.0,0.0
32830,57.0,0,359,4.0,0.0
32831,64.0,0,359,4.0,0.0
32832,83.0,0,359,0.0,0.0
32833,80.0,0,359,2.0,0.0
32834,76.0,0,359,5.0,0.0
32835,88.0,0,359,0.0,0.0
32836,71.0,0,359,10.0,0.0
32837,57.0,0,359,11.0,0.0
32838,64.0,0,359,3.0,0.0
32839,62.0,0,359,3.0,0.0
32840,76.0,0,359,8.0,0.0
32841,71.0,0,359,2.0,0.0
32842,76.0,0,359,12.0,0.0
32843,73.0,0,359,12.0,0.0
32844,73.0,0,359,13.0,0.0
32845,64.0,0,359,14.0,0.0
32846,64.0,360,359,13.0,0.0
32847,57.0,0,359,15.0,0.0
32848,45.0,0,359,15.0,0.0
32849,61.0,0,359,14.0,0.0
32850,64.0,0,359,13.0,0.0
32851,45.0,0,359,15.0,0.0
32852,73.0,0,359,12.0,0.0
32853,76.0,0,719,8.0,0.0
32854,76.0,360,359,12.0,0.0
32855,57.0,0,359,15.0,0.0
32856,64.0,0,719,11.0,0.0
32857,57.0,0,719,11.0,0.0
32858,61.0,0,359,14.0,0.0
32859,64.0,0,359,14.0,0.0
32860,73.0,0,359,13.0,0.0
32861,73.0,360,719,10.0,0.0
32862,64.0,0,359,14.0,0.0
32863,57.0,0,359,15.0,0.0
32864,45.0,0,359,15.0,0.0
32865,61.0,0,359,14.0,0.0
32866,64.0,0,359,13.0,0.0
32867,73.0,0,359,12.0,0.0
32868,76.0,0,359,12.0,0.0
32869,73.0,0,359,13.0,0.0
32870,76.0,0,359,12.0,0.0
32871,73.0,0,359,12.0,0.0
32872,45.0,0,359,15.0,0.0
32873,57.0,0,359,15.0,0.0
32874,76.0,0,359,8.0,0.0
32875,57.0,0,359,11.0,0.0
32876,73.0,0,359,13.0,0.0
32877,64.0,0,359,13.0,0.0
32878,64.0,0,359,11.0,0.0
32879,73.0,240,359,10.0,0.0
32880,61.0,0,359,14.0,0.0
32881,64.0,0,359,14.0,0.0
32882,57.0,0,1079,15.0,0.0
32883,68.0,120,239,1.0,0.0
32884,57.0,0,1079,11.0,0.0
32885,64.0,0,1079,11.0,0.0
32886,80.0,0,1079,8.0,0.0
32887,64.0,0,1079,13.0,0.0
32888,62.0,0,1079,14.0,0.0
32889,80.0,0,239,0.0,0.0
32890,74.0,0,1079,13.0,0.0
32891,64.0,240,1079,14.0,0.0
32892,45.0,0,1079,15.0,0.0
32893,71.0,0,1079,10.0,0.0
32894,71.0,0,1079,12.0,0.0
32895,64.0,0,1439,4.0,0.0
32896,47.0,0,239,3.0,0.0
32897,80.0,0,1079,12.0,0.0
32898,69.0,240,119,1.0,0.0
32899,49.0,0,119,3.0,0.0
32900,81.0,0,119,0.0,0.0
32901,83.0,120,239,0.0,0.0
32902,50.0,0,239,3.0,0.0
32903,71.0,0,239,1.0,0.0
32904,73.0,0,119,1.0,0.0
32905,52.0,240,119,3.0,0.0
32906,85.0,0,119,0.0,0.0
32907,74.0,0,239,1.0,0.0
32908,86.0,0,239,0.0,0.0
32909,54.0,120,239,3.0,0.0
32910,76.0,0,119,1.0,0.0
32911,76.0,0,119,0.0,0.0
32912,88.0,0,119,0.0,0.0
32913,64.0,0,119,1.0,0.0
32914,56.0,0,119,3.0,0.0
32915,71.0,0,359,10.0,0.0
32916,64.0,0,359,13.0,0.0
32917,45.0,120,359,15.0,0.0
32918,62.0,0,359,14.0,0.0
32919,71.0,0,359,12.0,0.0
32920,57.0,0,239,3.0,0.0
32921,64.0,0,359,14.0,0.0
32922,74.0,0,359,13.0,0.0
32923,80.0,0,359,8.0,0.0
32924,78.0,0,239,0.0,0.0
32925,80.0,0,359,12.0,0.0
32926,78.0,120,239,1.0,0.0
32927,66.0,0,239,1.0,0.0
32928,90.0,0,239,0.0,0.0
32929,57.0,0,359,11.0,0.0
32930,64.0,0,359,11.0,0.0
32931,57.0,0,359,15.0,0.0
32932,59.0,0,119,3.0,0.0
32933,92.0,0,119,0.0,0.0
32934,80.0,0,119,0.0,0.0
32935,80.0,0,119,1.0,0.0
32936,68.0,0,119,1.0,0.0
32937,81.0,120,119,1.0,0.0
32938,64.0,0,359,13.0,0.0
32939,64.0,0,359,11.0,0.0
32940,69.0,0,119,1.0,0.0
32941,61.0,0,239,2.0,0.0
32942,57.0,0,359,4.0,0.0
32943,64.0,0,359,4.0,0.0
32944,73.0,0,359,10.0,0.0
32945,45.0,0,359,15.0,0.0
32946,61.0,0,119,3.0,0.0
32947,73.0,240,359,13.0,0.0
32948,57.0,0,359,11.0,0.0
32949,81.0,0,359,8.0,0.0
32950,73.0,0,359,12.0,0.0
32951,81.0,0,359,12.0,0.0
32952,81.0,0,119,0.0,0.0
32953,57.0,120,239,2.0,0.0
32954,57.0,0,359,15.0,0.0
32955,93.0,0,119,0.0,0.0
32956,64.0,0,359,14.0,0.0
32957,61.0,0,359,14.0,0.0
32958,59.0,0,119,2.0,0.0
32959,62.0,0,119,2.0,0.0
32960,45.0,0,719,15.0,0.0
32961,64.0,0,719,13.0,0.0
32962,64.0,0,719,14.0,0.0
32963,61.0,0,719,14.0,0.0
32964,57.0,0,719,15.0,0.0
32965,76.0,0,719,8.0,0.0
32966,64.0,120,239,2.0,0.0
32967,61.0,0,239,2.0,0.0
32968,57.0,0,719,4.0,0.0
32969,73.0,0,719,13.0,0.0
32970,64.0,0,719,4.0,0.0
32971,73.0,0,359,10.0,0.0
32972,57.0,0,719,11.0,0.0
32973,76.0,0,719,12.0,0.0
32974,73.0,0,719,12.0,0.0
32975,64.0,240,719,11.0,0.0
32976,66.0,240,119,2.0,0.0
32977,62.0,0,119,2.0,0.0
32978,64.0,120,239,2.0,0.0
32979,68.0,0,239,2.0,0.0
32980,69.0,0,359,10.0,0.0
32981,66.0,0,119,2.0,0.0
32982,69.0,0,119,2.0,0.0
32983,69.0,0,359,10.0,0.0
32984,57.0,0,359,4.0,0.0
32985,76.0,0,359,8.0,0.0
32986,57.0,0,359,11.0,0.0
32987,57.0,0,359,15.0,0.0
32988,61.0,0,359,14.0,0.0
32989,45.0,0,359,15.0,0.0
32990,76.0,0,359,12.0,0.0
32991,64.0,240,359,13.0,0.0
32992,73.0,0,359,13.0,0.0
32993,64.0,0,359,14.0,0.0
32994,71.0,0,239,2.0,0.0
32995,68.0,120,239,2.0,0.0
32996,64.0,0,359,4.0,0.0
32997,64.0,0,359,11.0,0.0
32998,73.0,0,359,12.0,0.0
32999,73.0,0,119,2.0,0.0
33000,69.0,0,119,2.0,0.0
33001,71.0,0,239,0.0,0.0
33002,76.0,0,359,8.0,0.0
33003,57.0,0,359,11.0,0.0
33004,71.0,0,359,10.0,0.0
33005,71.0,240,359,13.0,0.0
33006,76.0,0,359,12.0,0.0
33007,71.0,0,359,12.0,0.0
33008,45.0,0,359,15.0,0.0
33009,47.0,0,239,3.0,0.0
33010,59.0,0,239,3.0,0.0
33011,62.0,0,239,2.0,0.0
33012,68.0,0,359,13.0,0.0
33013,74.0,120,239,2.0,0.0
33014,57.0,0,359,15.0,0.0
33015,64.0,0,359,11.0,0.0
33016,57.0,0,359,4.0,0.0
33017,64.0,0,359,4.0,0.0
33018,62.0,0,359,14.0,0.0
33019,64.0,0,359,14.0,0.0
33020,61.0,0,119,3.0,0.0
33021,49.0,0,119,3.0,0.0
33022,73.0,0,119,0.0,0.0
33023,76.0,0,119,2.0,0.0
33024,64.0,0,119,2.0,0.0
33025,66.0,0,239,2.0,0.0
33026,78.0,0,239,2.0,0.0
33027,71.0,0,359,13.0,0.0
33028,71.0,0,359,12.0,0.0
33029,62.0,0,359,14.0,0.0
33030,76.0,0,359,12.0,0.0
33031,64.0,0,359,11.0,0.0
33032,68.0,0,359,13.0,0.0
33033,57.0,0,359,11.0,0.0
33034,57.0,0,359,4.0,0.0
33035,64.0,240,359,14.0,0.0
33036,64.0,0,359,4.0,0.0
33037,74.0,0,239,0.0,0.0
33038,57.0,0,359,15.0,0.0
33039,76.0,0,359,8.0,0.0
33040,50.0,120,239,3.0,0.0
33041,62.0,0,239,3.0,0.0
33042,71.0,0,359,10.0,0.0
33043,45.0,0,359,15.0,0.0
33044,52.0,0,119,3.0,0.0
33045,64.0,0,119,3.0,0.0
33046,76.0,0,119,0.0,0.0
33047,80.0,0,119,2.0,0.0
33048,68.0,0,119,2.0,0.0
33049,45.0,0,359,15.0,0.0
33050,81.0,0,239,2.0,0.0
33051,69.0,0,239,2.0,0.0
33052,78.0,0,239,0.0,0.0
33053,76.0,0,359,8.0,0.0
33054,68.0,0,359,13.0,0.0
33055,76.0,0,359,12.0,0.0
33056,71.0,0,359,12.0,0.0
33057,54.0,120,239,3.0,0.0
33058,57.0,240,359,15.0,0.0
33059,71.0,0,359,13.0,0.0
33060,66.0,0,239,3.0,0.0
33061,57.0,0,359,11.0,0.0
33062,71.0,0,359,10.0,0.0
33063,62.0,0,359,14.0,0.0
33064,64.0,0,359,14.0,0.0
33065,57.0,0,359,4.0,0.0
33066,64.0,0,359,11.0,0.0
33067,64.0,0,359,4.0,0.0
33068,71.0,0,119,0.0,0.0
33069,80.0,0,119,0.0,0.0
33070,68.0,0,119,3.0,0.0
33071,56.0,0,119,3.0,0.0
33072,83.0,0,119,2.0,0.0
33073,71.0,0,119,2.0,0.0
33074,73.0,0,239,2.0,0.0
33075,85.0,0,239,2.0,0.0
33076,57.0,0,359,4.0,0.0
33077,64.0,0,359,14.0,0.0
33078,57.0,0,359,11.0,0.0
33079,62.0,0,359,14.0,0.0
33080,64.0,0,359,4.0,0.0
33081,71.0,0,359,10.0,0.0
33082,81.0,0,239,0.0,0.0
33083,73.0,120,239,0.0,0.0
33084,76.0,0,359,12.0,0.0
33085,57.0,0,359,15.0,0.0
33086,71.0,0,359,12.0,0.0
33087,68.0,0,359,13.0,0.0
33088,45.0,120,359,15.0,0.0
33089,64.0,0,359,11.0,0.0
33090,57.0,0,239,3.0,0.0
33091,76.0,0,359,8.0,0.0
33092,69.0,0,239,3.0,0.0
33093,71.0,0,359,13.0,0.0
33094,59.0,0,119,3.0,0.0
33095,86.0,0,119,2.0,0.0
33096,74.0,0,119,2.0,0.0
33097,83.0,0,119,0.0,0.0
33098,74.0,0,119,0.0,0.0
33099,61.0,0,359,14.0,0.0
33100,64.0,0,359,14.0,0.0
33101,57.0,0,359,11.0,0.0
33102,76.0,120,119,2.0,0.0
33103,64.0,240,359,11.0,0.0
33104,45.0,0,359,15.0,0.0
33105,69.0,0,359,13.0,0.0
33106,73.0,0,359,13.0,0.0
33107,76.0,0,359,8.0,0.0
33108,88.0,0,119,2.0,0.0
33109,57.0,0,359,15.0,0.0
33110,69.0,0,359,12.0,0.0
33111,61.0,0,239,3.0,0.0
33112,73.0,0,359,10.0,0.0
33113,64.0,0,359,4.0,0.0
33114,76.0,0,359,12.0,0.0
33115,57.0,0,359,4.0,0.0
33116,85.0,120,239,0.0,0.0
33117,76.0,0,239,0.0,0.0
33118,59.0,0,119,3.0,0.0
33119,74.0,0,119,0.0,0.0
33120,83.0,0,119,0.0,0.0
33121,71.0,0,119,2.0,0.0
33122,76.0,120,359,12.0,0.0
33123,57.0,0,344,11.0,0.0
33124,64.0,0,359,4.0,0.0
33125,69.0,0,359,12.0,0.0
33126,64.0,0,344,11.0,0.0
33127,76.0,15,344,8.0,0.0
33128,69.0,0,239,2.0,0.0
33129,57.0,0,359,15.0,0.0
33130,45.0,0,359,15.0,0.0
33131,69.0,0,359,13.0,0.0
33132,57.0,0,239,3.0,0.0
33133,57.0,0,359,4.0,0.0
33134,73.0,105,239,0.0,0.0
33135,81.0,0,239,0.0,0.0
33136,73.0,0,344,10.0,0.0
33137,61.0,0,359,14.0,0.0
33138,71.0,0,119,2.0,0.0
33139,59.0,0,119,3.0,0.0
33140,74.0,0,119,0.0,0.0
33141,83.0,0,119,0.0,0.0
33142,45.0,0,359,15.0,0.0
33143,72.0,0,119,2.0,0.0
33144,57.0,0,359,4.0,0.0
33145,76.0,0,359,8.0,0.0
33146,64.0,0,359,4.0,0.0
33147,76.0,120,359,12.0,0.0
33148,64.0,0,359,11.0,0.0
33149,61.0,0,359,14.0,0.0
33150,84.0,0,119,0.0,0.0
33151,73.0,0,359,10.0,0.0
33152,57.0,0,359,11.0,0.0
33153,72.0,120,119,0.0,0.0
33154,60.0,0,119,3.0,0.0
33155,57.0,0,359,15.0,0.0
33156,69.0,0,719,13.0,0.0
33157,69.0,0,719,12.0,0.0
33158,83.0,120,119,0.0,0.0
33159,71.0,0,119,2.0,0.0
33160,59.0,0,119,3.0,0.0
33161,71.0,0,119,0.0,0.0
33162,72.0,0,119,0.0,0.0
33163,72.0,0,119,2.0,0.0
33164,84.0,0,119,0.0,0.0
33165,60.0,0,119,3.0,0.0
33166,78.0,0,359,12.0,0.0
33167,86.0,0,119,0.0,0.0
33168,38.0,120,359,15.0,0.0
33169,62.0,0,359,5.0,0.0
33170,50.0,0,359,15.0,0.0
33171,74.0,0,359,5.0,0.0
33172,74.0,0,359,10.0,0.0
33173,50.0,0,359,4.0,0.0
33174,62.0,0,359,11.0,0.0
33175,74.0,0,119,2.0,0.0
33176,62.0,0,359,4.0,0.0
33177,62.0,120,119,3.0,0.0
33178,60.0,0,359,14.0,0.0
33179,74.0,0,119,0.0,0.0
33180,50.0,0,359,11.0,0.0
33181,78.0,0,359,8.0,0.0
33182,76.0,0,119,0.0,0.0
33183,88.0,0,119,0.0,0.0
33184,64.0,120,119,3.0,0.0
33185,76.0,0,119,2.0,0.0
33186,78.0,0,119,2.0,0.0
33187,66.0,0,119,3.0,0.0
33188,90.0,0,119,0.0,0.0
33189,78.0,0,119,0.0,0.0
33190,62.0,0,359,5.0,0.0
33191,62.0,0,359,4.0,0.0
33192,79.0,120,359,8.0,0.0
33193,50.0,0,359,4.0,0.0
33194,62.0,0,359,11.0,0.0
33195,67.0,0,2879,3.0,0.0
33196,79.0,0,119,2.0,0.0
33197,50.0,0,119,7.0,0.0
33198,74.0,0,359,5.0,0.0
33199,74.0,0,359,10.0,0.0
33200,71.0,0,359,13.0,0.0
33201,67.0,0,359,13.0,0.0
33202,91.0,120,119,0.0,0.0
33203,59.0,0,359,14.0,0.0
33204,79.0,0,119,0.0,0.0
33205,79.0,0,359,12.0,0.0
33206,62.0,0,359,14.0,0.0
33207,67.0,120,239,1.0,0.0
33208,43.0,0,359,15.0,0.0
33209,55.0,0,359,11.0,0.0
33210,55.0,0,359,15.0,0.0
33211,79.0,0,119,0.0,0.0
33212,81.0,0,119,0.0,0.0
33213,69.0,0,119,1.0,0.0
33214,62.0,0,359,14.0,0.0
33215,59.0,0,359,14.0,0.0
33216,83.0,0,239,0.0,0.0
33217,50.0,120,119,7.0,0.0
33218,67.0,0,239,2.0,0.0
33219,55.0,0,359,15.0,0.0
33220,62.0,0,359,11.0,0.0
33221,55.0,0,359,11.0,0.0
33222,79.0,0,359,12.0,0.0
33223,74.0,0,359,10.0,0.0
33224,79.0,0,359,8.0,0.0
33225,67.0,0,359,13.0,0.0
33226,74.0,0,359,5.0,0.0
33227,71.0,0,359,13.0,0.0
33228,71.0,120,239,1.0,0.0
33229,43.0,0,359,15.0,0.0
33230,67.0,0,359,4.0,0.0
33231,62.0,0,359,5.0,0.0
33232,84.0,0,119,0.0,0.0
33233,69.0,120,119,2.0,0.0
33234,72.0,0,119,1.0,0.0
33235,62.0,0,359,11.0,0.0
33236,74.0,0,359,5.0,0.0
33237,62.0,0,359,5.0,0.0
33238,86.0,120,239,0.0,0.0
33239,71.0,0,359,13.0,0.0
33240,67.0,0,359,13.0,0.0
33241,67.0,0,359,4.0,0.0
33242,74.0,0,239,1.0,0.0
33243,55.0,0,359,11.0,0.0
33244,43.0,0,359,15.0,0.0
33245,50.0,120,119,7.0,0.0
33246,74.0,0,359,10.0,0.0
33247,79.0,0,359,8.0,0.0
33248,79.0,0,359,12.0,0.0
33249,71.0,0,239,2.0,0.0
33250,59.0,120,359,14.0,0.0
33251,55.0,0,359,15.0,0.0
33252,62.0,0,359,14.0,0.0
33253,72.0,0,119,2.0,0.0
33254,76.0,0,119,1.0,0.0
33255,88.0,0,119,0.0,0.0
33256,76.0,0,119,0.0,0.0
33257,62.0,0,359,5.0,0.0
33258,43.0,30,359,15.0,0.0
33259,74.0,120,239,2.0,0.0
33260,74.0,0,359,10.0,0.0
33261,90.0,0,239,0.0,0.0
33262,78.0,0,239,0.0,0.0
33263,71.0,0,359,13.0,0.0
33264,67.0,0,359,13.0,0.0
33265,59.0,0,359,14.0,0.0
33266,78.0,0,239,1.0,0.0
33267,62.0,0,359,11.0,0.0
33268,62.0,0,359,14.0,0.0
33269,74.0,0,359,5.0,0.0
33270,67.0,0,359,4.0,0.0
33271,55.0,0,359,15.0,0.0
33272,55.0,0,359,11.0,0.0
33273,79.0,0,359,8.0,0.0
33274,50.0,120,119,7.0,0.0
33275,79.0,0,359,12.0,0.0
33276,76.0,0,119,2.0,0.0
33277,91.0,0,1559,0.0,0.0
33278,79.0,0,1559,0.0,0.0
33279,79.0,0,119,1.0,0.0
33280,50.0,30,29,7.0,0.0
33281,78.0,30,239,1.0,0.0
33282,78.0,0,239,2.0,0.0
33283,62.0,0,1079,5.0,0.0
33284,79.0,0,1079,12.0,0.0
33285,74.0,0,1079,10.0,0.0
33286,55.0,0,1079,15.0,0.0
33287,81.0,0,239,1.0,0.0
33288,79.0,30,1079,8.0,0.0
33289,55.0,0,1079,11.0,0.0
33290,74.0,0,1079,5.0,0.0
33291,62.0,0,1079,11.0,0.0
33292,67.0,0,1439,13.0,0.0
33293,71.0,0,1439,13.0,0.0
33294,59.0,60,1439,14.0,0.0
33295,62.0,0,1439,14.0,0.0
33296,67.0,0,1439,4.0,0.0
33297,43.0,0,1079,15.0,0.0
33298,50.0,30,29,7.0,0.0
33299,50.0,30,29,7.0,0.0
33300,50.0,30,29,7.0,0.0
33301,50.0,30,29,7.0,0.0
33302,50.0,30,29,7.0,0.0
33303,50.0,30,29,7.0,0.0
33304,50.0,0,29,7.0,0.0
33305,79.0,0,119,1.0,0.0
33306,83.0,0,119,1.0,0.0
33307,50.0,30,29,7.0,0.0
33308,79.0,30,119,2.0,0.0
33309,50.0,30,29,7.0,0.0
33310,50.0,30,29,7.0,0.0
33311,50.0,0,29,7.0,0.0
33312,84.0,0,239,1.0,0.0
33313,50.0,30,29,7.0,0.0
33314,81.0,0,239,1.0,0.0
33315,81.0,30,239,2.0,0.0
33316,50.0,30,29,7.0,0.0
33317,50.0,30,29,7.0,0.0
33318,50.0,30,29,7.0,0.0
33319,50.0,30,29,7.0,0.0
33320,50.0,30,29,7.0,0.0
33321,50.0,30,29,7.0,0.0
33322,50.0,0,29,7.0,0.0
33323,50.0,30,29,7.0,0.0
33324,86.0,0,839,1.0,0.0
33325,83.0,0,839,2.0,0.0
33326,83.0,0,839,1.0,0.0
33327,50.0,30,29,7.0,0.0
33328,50.0,30,29,7.0,0.0
33329,50.0,30,29,7.0,0.0
33330,50.0,30,29,7.0,0.0
33331,50.0,30,29,7.0,0.0
33332,50.0,30,29,7.0,0.0
33333,50.0,30,29,7.0,0.0
33334,50.0,30,29,7.0,0.0
33335,50.0,30,29,7.0,0.0
33336,50.0,30,29,7.0,0.0
33337,50.0,30,29,7.0,0.0
33338,50.0,30,29,7.0,0.0
33339,50.0,30,29,7.0,0.0
33340,50.0,30,29,7.0,0.0
33341,50.0,0,29,7.0,0.0
33342,55.0,0,359,15.0,0.0
33343,43.0,0,359,15.0,0.0
33344,55.0,0,359,11.0,0.0
33345,79.0,0,359,8.0,0.0
33346,74.0,0,359,5.0,0.0
33347,62.0,0,359,5.0,0.0
33348,74.0,0,359,10.0,0.0
33349,50.0,30,29,7.0,0.0
33350,79.0,0,359,12.0,0.0
33351,62.0,0,359,11.0,0.0
33352,50.0,30,29,7.0,0.0
33353,50.0,30,29,7.0,0.0
33354,50.0,30,29,7.0,0.0
33355,50.0,30,29,7.0,0.0
33356,50.0,30,29,7.0,0.0
33357,50.0,30,29,7.0,0.0
33358,50.0,120,29,7.0,0.0
33359,83.0,60,59,12.0,0.0
33360,84.0,60,59,12.0,0.0
33361,86.0,60,59,12.0,0.0
33362,86.0,60,59,12.0,0.0
33363,71.0,60,59,13.0,0.0
33364,86.0,0,59,12.0,0.0
33365,67.0,0,59,14.0,0.0
33366,72.0,0,59,13.0,0.0
33367,69.0,0,59,14.0,0.0
33368,84.0,60,59,12.0,0.0
33369,83.0,0,59,12.0,0.0
33370,74.0,60,59,13.0,0.0
33371,71.0,0,59,14.0,0.0
33372,81.0,60,59,12.0,0.0
33373,71.0,0,59,14.0,0.0
33374,74.0,0,59,13.0,0.0
33375,74.0,60,59,13.0,0.0
33376,71.0,0,59,14.0,0.0
33377,79.0,0,59,12.0,0.0
33378,69.0,0,59,14.0,0.0
33379,81.0,0,59,12.0,0.0
33380,72.0,60,59,13.0,0.0
33381,83.0,60,59,12.0,0.0
33382,67.0,0,59,14.0,0.0
33383,71.0,0,59,13.0,0.0
33384,66.0,0,59,14.0,0.0
33385,83.0,60,59,12.0,0.0
33386,69.0,0,59,13.0,0.0
33387,67.0,0,59,13.0,0.0
33388,83.0,0,59,12.0,0.0
33389,64.0,60,59,14.0,0.0
33390,69.0,60,59,13.0,0.0
33391,81.0,0,59,12.0,0.0
33392,66.0,0,59,14.0,0.0
33393,71.0,0,59,13.0,0.0
33394,67.0,0,59,14.0,0.0
33395,79.0,60,59,12.0,0.0
33396,71.0,0,59,13.0,0.0
33397,67.0,0,59,14.0,0.0
33398,78.0,60,59,12.0,0.0
33399,67.0,60,59,14.0,0.0
33400,76.0,0,59,12.0,0.0
33401,71.0,0,59,13.0,0.0
33402,66.0,0,59,14.0,0.0
33403,78.0,60,59,12.0,0.0
33404,69.0,0,59,13.0,0.0
33405,67.0,0,59,13.0,0.0
33406,79.0,0,59,12.0,0.0
33407,64.0,60,59,14.0,0.0
33408,79.0,0,59,12.0,0.0
33409,62.0,60,59,14.0,0.0
33410,66.0,0,59,13.0,0.0
33411,61.0,0,59,14.0,0.0
33412,67.0,0,59,2.0,0.0
33413,91.0,0,59,0.0,0.0
33414,76.0,0,59,1.0,0.0
33415,57.0,0,59,15.0,0.0
33416,64.0,0,59,13.0,0.0
33417,45.0,60,59,15.0,0.0
33418,64.0,0,59,3.0,0.0
33419,79.0,0,59,12.0,0.0
33420,66.0,0,59,2.0,0.0
33421,57.0,0,59,15.0,0.0
33422,78.0,0,59,12.0,0.0
33423,62.0,0,59,14.0,0.0
33424,66.0,60,59,13.0,0.0
33425,74.0,0,59,1.0,0.0
33426,62.0,0,59,3.0,0.0
33427,90.0,0,59,0.0,0.0
33428,45.0,0,59,15.0,0.0
33429,61.0,0,59,3.0,0.0
33430,64.0,0,59,14.0,0.0
33431,64.0,0,59,2.0,0.0
33432,73.0,60,59,1.0,0.0
33433,88.0,0,59,0.0,0.0
33434,45.0,0,59,15.0,0.0
33435,57.0,0,59,15.0,0.0
33436,67.0,0,59,13.0,0.0
33437,76.0,0,59,12.0,0.0
33438,57.0,0,59,15.0,0.0
33439,45.0,0,59,15.0,0.0
33440,64.0,60,59,14.0,0.0
33441,86.0,0,59,1.0,0.0
33442,86.0,0,59,0.0,0.0
33443,67.0,0,59,13.0,0.0
33444,74.0,0,59,12.0,0.0
33445,74.0,0,59,2.0,0.0
33446,62.0,0,59,3.0,0.0
33447,85.0,0,59,0.0,0.0
33448,73.0,0,59,2.0,0.0
33449,45.0,60,59,15.0,0.0
33450,57.0,0,59,15.0,0.0
33451,73.0,0,59,12.0,0.0
33452,67.0,0,59,13.0,0.0
33453,61.0,0,59,3.0,0.0
33454,85.0,0,59,1.0,0.0
33455,64.0,0,59,14.0,0.0
33456,59.0,0,59,3.0,0.0
33457,71.0,0,59,2.0,0.0
33458,69.0,0,59,13.0,0.0
33459,43.0,0,59,15.0,0.0
33460,55.0,60,59,15.0,0.0
33461,66.0,0,59,14.0,0.0
33462,74.0,0,59,12.0,0.0
33463,86.0,0,59,0.0,0.0
33464,83.0,0,59,1.0,0.0
33465,69.0,0,59,2.0,0.0
33466,81.0,0,59,1.0,0.0
33467,42.0,0,59,15.0,0.0
33468,76.0,0,59,12.0,0.0
33469,54.0,0,59,15.0,0.0
33470,67.0,0,59,14.0,0.0
33471,71.0,0,59,13.0,0.0
33472,57.0,0,59,3.0,0.0
33473,88.0,60,59,0.0,0.0
33474,69.0,0,59,14.0,0.0
33475,40.0,0,59,15.0,0.0
33476,79.0,0,59,1.0,0.0
33477,55.0,0,59,3.0,0.0
33478,78.0,0,59,12.0,0.0
33479,90.0,0,59,0.0,0.0
33480,52.0,0,59,15.0,0.0
33481,67.0,0,59,2.0,0.0
33482,73.0,60,59,13.0,0.0
33483,66.0,0,59,2.0,0.0
33484,54.0,0,59,3.0,0.0
33485,78.0,0,59,1.0,0.0
33486,79.0,60,59,12.0,0.0
33487,91.0,0,59,0.0,0.0
33488,50.0,0,59,15.0,0.0
33489,38.0,0,59,15.0,0.0
33490,71.0,0,59,14.0,0.0
33491,74.0,0,59,13.0,0.0
33492,73.0,0,59,14.0,0.0
33493,37.0,0,59,15.0,0.0
33494,93.0,0,59,0.0,0.0
33495,81.0,0,59,12.0,0.0
33496,64.0,0,59,2.0,0.0
33497,76.0,0,59,1.0,0.0
33498,49.0,60,59,15.0,0.0
33499,52.0,0,59,3.0,0.0
33500,76.0,0,59,13.0,0.0
33501,83.0,0,59,12.0,0.0
33502,78.0,0,59,13.0,0.0
33503,62.0,0,59,2.0,0.0
33504,47.0,60,59,15.0,0.0
33505,50.0,0,59,3.0,0.0
33506,93.0,0,59,0.0,0.0
33507,74.0,0,59,14.0,0.0
33508,74.0,0,59,1.0,0.0
33509,35.0,0,59,15.0,0.0
33510,73.0,0,59,1.0,0.0
33511,93.0,0,59,0.0,0.0
33512,33.0,0,59,15.0,0.0
33513,85.0,0,59,12.0,0.0
33514,76.0,0,59,14.0,0.0
33515,45.0,0,59,15.0,0.0
33516,61.0,0,59,2.0,0.0
33517,79.0,60,59,13.0,0.0
33518,49.0,0,59,3.0,0.0
33519,50.0,60,119,15.0,0.0
33520,38.0,0,119,15.0,0.0
33521,50.0,0,2999,4.0,0.0
33522,62.0,0,119,2.0,0.0
33523,74.0,0,119,13.0,0.0
33524,78.0,0,119,13.0,0.0
33525,54.0,0,299,6.0,0.0
33526,74.0,0,119,1.0,0.0
33527,50.0,60,59,14.0,0.0
33528,86.0,0,119,12.0,0.0
33529,50.0,60,479,3.0,0.0
33530,54.0,0,479,3.0,0.0
33531,50.0,0,299,6.0,0.0
33532,86.0,0,119,0.0,0.0
33533,50.0,0,59,14.0,0.0
33534,50.0,60,59,14.0,0.0
33535,50.0,60,59,14.0,0.0
33536,50.0,60,59,14.0,0.0
33537,55.0,0,59,6.0,0.0
33538,52.0,60,59,6.0,0.0
33539,50.0,0,59,14.0,0.0
33540,54.0,0,59,6.0,0.0
33541,57.0,0,59,6.0,0.0
33542,50.0,45,59,14.0,0.0
33543,50.0,15,44,6.0,0.0
33544,54.0,0,44,6.0,0.0
33545,50.0,0,59,14.0,0.0
33546,52.0,0,119,6.0,0.0
33547,52.0,0,479,3.0,0.0
33548,55.0,60,119,6.0,0.0
33549,50.0,60,59,14.0,0.0
33550,69.0,0,299,2.0,0.0
33551,55.0,0,479,3.0,0.0
33552,50.0,0,59,14.0,0.0
33553,55.0,0,119,6.0,0.0
33554,50.0,60,59,14.0,0.0
33555,52.0,0,119,6.0,0.0
33556,50.0,60,59,14.0,0.0
33557,52.0,0,119,6.0,0.0
33558,50.0,60,59,14.0,0.0
33559,55.0,0,119,6.0,0.0
33560,50.0,0,59,14.0,0.0
33561,71.0,60,59,2.0,0.0
33562,50.0,60,59,14.0,0.0
33563,55.0,0,119,6.0,0.0
33564,52.0,60,119,6.0,0.0
33565,73.0,0,59,2.0,0.0
33566,50.0,0,59,14.0,0.0
33567,69.0,0,59,2.0,0.0
33568,66.0,60,299,5.0,0.0
33569,55.0,0,179,6.0,0.0
33570,50.0,60,59,14.0,0.0
33571,74.0,0,119,2.0,0.0
33572,52.0,0,179,6.0,0.0
33573,74.0,0,479,1.0,0.0
33574,66.0,0,479,1.0,0.0
33575,50.0,0,119,3.0,0.0
33576,54.0,60,119,3.0,0.0
33577,74.0,0,299,5.0,0.0
33578,50.0,0,59,14.0,0.0
33579,50.0,60,59,14.0,0.0
33580,50.0,60,59,6.0,0.0
33581,54.0,0,59,6.0,0.0
33582,50.0,0,59,14.0,0.0
33583,50.0,0,59,14.0,0.0
33584,50.0,60,239,6.0,0.0
33585,54.0,0,239,6.0,0.0
33586,67.0,60,59,5.0,0.0
33587,76.0,0,59,5.0,0.0
33588,50.0,0,59,14.0,0.0
33589,50.0,0,59,14.0,0.0
33590,69.0,0,59,5.0,0.0
33591,78.0,45,59,5.0,0.0
33592,74.0,15,44,5.0,0.0
33593,50.0,0,59,14.0,0.0
33594,66.0,0,44,5.0,0.0
33595,67.0,0,119,5.0,0.0
33596,50.0,60,59,14.0,0.0
33597,81.0,0,299,0.0,0.0
33598,76.0,60,119,5.0,0.0
33599,76.0,0,479,1.0,0.0
33600,67.0,60,479,1.0,0.0
33601,50.0,0,59,14.0,0.0
33602,76.0,0,119,5.0,0.0
33603,50.0,60,59,14.0,0.0
33604,67.0,0,119,5.0,0.0
33605,50.0,60,59,14.0,0.0
33606,50.0,60,59,14.0,0.0
33607,76.0,0,119,5.0,0.0
33608,67.0,60,119,5.0,0.0
33609,50.0,0,59,14.0,0.0
33610,83.0,0,59,0.0,0.0
33611,76.0,0,119,5.0,0.0
33612,67.0,0,119,5.0,0.0
33613,50.0,0,59,14.0,0.0
33614,85.0,60,59,0.0,0.0
33615,50.0,0,59,14.0,0.0
33616,81.0,0,59,0.0,0.0
33617,50.0,0,299,3.0,0.0
33618,67.0,60,179,5.0,0.0
33619,86.0,60,119,0.0,0.0
33620,50.0,60,59,14.0,0.0
33621,62.0,0,299,2.0,0.0
33622,66.0,0,299,2.0,0.0
33623,54.0,0,299,3.0,0.0
33624,76.0,0,179,5.0,0.0
33625,78.0,60,299,1.0,0.0
33626,74.0,0,299,1.0,0.0
33627,50.0,0,59,14.0,0.0
33628,50.0,0,59,14.0,0.0
33629,50.0,0,59,14.0,0.0
33630,66.0,60,59,5.0,0.0
33631,74.0,0,59,5.0,0.0
33632,74.0,0,239,5.0,0.0
33633,66.0,0,239,5.0,0.0
33634,50.0,0,59,14.0,0.0
33635,52.0,0,59,3.0,0.0
33636,55.0,0,59,3.0,0.0
33637,76.0,0,59,1.0,0.0
33638,50.0,0,59,14.0,0.0
33639,79.0,0,59,1.0,0.0
33640,67.0,0,59,2.0,0.0
33641,64.0,60,59,2.0,0.0
33642,66.0,60,59,2.0,0.0
33643,69.0,0,59,2.0,0.0
33644,54.0,0,59,3.0,0.0
33645,50.0,0,59,14.0,0.0
33646,78.0,0,59,1.0,0.0
33647,81.0,0,59,1.0,0.0
33648,57.0,0,59,3.0,0.0
33649,54.0,60,59,3.0,0.0
33650,78.0,0,59,1.0,0.0
33651,62.0,0,59,2.0,0.0
33652,50.0,0,59,3.0,0.0
33653,74.0,0,59,1.0,0.0
33654,50.0,0,59,14.0,0.0
33655,66.0,0,59,2.0,0.0
33656,52.0,60,119,3.0,0.0
33657,55.0,0,119,3.0,0.0
33658,38.0,60,59,15.0,0.0
33659,69.0,0,299,13.0,0.0
33660,79.0,0,119,1.0,0.0
33661,76.0,0,119,1.0,0.0
33662,50.0,0,59,14.0,0.0
33663,50.0,0,59,15.0,0.0
33664,67.0,0,119,2.0,0.0
33665,64.0,0,119,2.0,0.0
33666,81.0,0,299,12.0,0.0
33667,50.0,0,59,14.0,0.0
33668,38.0,0,59,15.0,0.0
33669,50.0,0,59,15.0,0.0
33670,50.0,0,59,15.0,0.0
33671,79.0,60,119,1.0,0.0
33672,76.0,0,119,1.0,0.0
33673,50.0,60,59,14.0,0.0
33674,67.0,0,119,2.0,0.0
33675,64.0,0,119,2.0,0.0
33676,38.0,0,59,15.0,0.0
33677,52.0,0,119,3.0,0.0
33678,55.0,0,119,3.0,0.0
33679,50.0,0,59,15.0,0.0
33680,38.0,0,59,15.0,0.0
33681,50.0,0,59,14.0,0.0
33682,64.0,0,119,2.0,0.0
33683,76.0,0,119,1.0,0.0
33684,79.0,0,119,1.0,0.0
33685,50.0,0,59,14.0,0.0
33686,50.0,60,59,15.0,0.0
33687,52.0,0,119,3.0,0.0
33688,55.0,0,119,3.0,0.0
33689,38.0,0,59,15.0,0.0
33690,67.0,0,119,2.0,0.0
33691,38.0,0,59,15.0,0.0
33692,71.0,60,59,13.0,0.0
33693,50.0,0,59,14.0,0.0
33694,83.0,0,59,12.0,0.0
33695,50.0,0,59,15.0,0.0
33696,64.0,0,119,2.0,0.0
33697,67.0,0,119,2.0,0.0
33698,50.0,0,59,14.0,0.0
33699,52.0,0,119,3.0,0.0
33700,55.0,0,119,3.0,0.0
33701,73.0,0,59,13.0,0.0
33702,85.0,0,59,12.0,0.0
33703,50.0,60,59,15.0,0.0
33704,79.0,0,119,1.0,0.0
33705,38.0,0,59,15.0,0.0
33706,76.0,0,119,1.0,0.0
33707,50.0,0,59,14.0,0.0
33708,69.0,0,59,13.0,0.0
33709,38.0,0,59,15.0,0.0
33710,81.0,0,59,12.0,0.0
33711,50.0,60,59,15.0,0.0
33712,54.0,0,59,3.0,0.0
33713,50.0,0,119,15.0,0.0
33714,66.0,0,59,2.0,0.0
33715,62.0,60,59,2.0,0.0
33716,86.0,0,59,0.0,0.0
33717,86.0,0,119,12.0,0.0
33718,50.0,0,119,3.0,0.0
33719,50.0,0,119,14.0,0.0
33720,78.0,0,59,1.0,0.0
33721,74.0,0,119,1.0,0.0
33722,74.0,0,119,13.0,0.0
33723,38.0,0,119,15.0,0.0
33724,76.0,0,59,1.0,0.0
33725,64.0,0,59,3.0,0.0
33726,64.0,60,59,2.0,0.0
33727,88.0,0,59,0.0,0.0
33728,76.0,0,59,2.0,0.0
33729,66.0,60,59,2.0,0.0
33730,78.0,0,59,2.0,0.0
33731,78.0,0,59,1.0,0.0
33732,66.0,0,59,3.0,0.0
33733,90.0,0,59,0.0,0.0
33734,66.0,60,59,3.0,0.0
33735,66.0,0,59,2.0,0.0
33736,78.0,0,59,2.0,0.0
33737,90.0,0,59,0.0,0.0
33738,78.0,0,59,1.0,0.0
33739,62.0,0,59,13.0,0.0
33740,66.0,60,59,3.0,0.0
33741,74.0,0,59,12.0,0.0
33742,78.0,0,59,2.0,0.0
33743,62.0,0,59,14.0,0.0
33744,66.0,0,59,2.0,0.0
33745,62.0,0,59,15.0,0.0
33746,90.0,0,59,0.0,0.0
33747,50.0,0,59,15.0,0.0
33748,78.0,0,59,1.0,0.0
33749,76.0,0,59,2.0,0.0
33750,52.0,0,59,15.0,0.0
33751,64.0,0,59,14.0,0.0
33752,64.0,0,59,3.0,0.0
33753,76.0,0,59,12.0,0.0
33754,64.0,0,59,13.0,0.0
33755,76.0,0,59,1.0,0.0
33756,88.0,0,59,0.0,0.0
33757,64.0,0,59,15.0,0.0
33758,64.0,60,59,2.0,0.0
33759,66.0,0,59,15.0,0.0
33760,66.0,60,59,13.0,0.0
33761,54.0,0,59,15.0,0.0
33762,74.0,0,59,2.0,0.0
33763,62.0,0,59,2.0,0.0
33764,86.0,0,59,0.0,0.0
33765,74.0,0,59,1.0,0.0
33766,62.0,0,59,3.0,0.0
33767,66.0,0,59,14.0,0.0
33768,78.0,0,59,12.0,0.0
33769,73.0,0,59,2.0,0.0
33770,73.0,0,59,1.0,0.0
33771,66.0,60,59,13.0,0.0
33772,85.0,0,59,0.0,0.0
33773,66.0,0,59,15.0,0.0
33774,78.0,0,59,12.0,0.0
33775,66.0,0,59,14.0,0.0
33776,61.0,0,59,2.0,0.0
33777,54.0,0,59,15.0,0.0
33778,61.0,0,59,3.0,0.0
33779,66.0,0,59,15.0,0.0
33780,83.0,0,59,0.0,0.0
33781,78.0,60,59,12.0,0.0
33782,66.0,0,59,13.0,0.0
33783,71.0,0,59,2.0,0.0
33784,59.0,0,59,2.0,0.0
33785,71.0,0,59,1.0,0.0
33786,59.0,0,59,3.0,0.0
33787,54.0,0,59,15.0,0.0
33788,66.0,0,59,14.0,0.0
33789,64.0,0,59,14.0,0.0
33790,73.0,0,59,1.0,0.0
33791,85.0,0,59,0.0,0.0
33792,76.0,0,59,12.0,0.0
33793,61.0,0,59,2.0,0.0
33794,73.0,0,59,2.0,0.0
33795,64.0,60,59,15.0,0.0
33796,61.0,0,59,3.0,0.0
33797,64.0,0,59,13.0,0.0
33798,52.0,0,59,15.0,0.0
33799,74.0,0,59,12.0,0.0
33800,62.0,0,59,14.0,0.0
33801,74.0,0,59,1.0,0.0
33802,50.0,0,59,15.0,0.0
33803,86.0,60,59,0.0,0.0
33804,62.0,0,59,15.0,0.0
33805,62.0,0,59,2.0,0.0
33806,62.0,0,59,13.0,0.0
33807,62.0,0,59,3.0,0.0
33808,74.0,0,59,2.0,0.0
33809,61.0,0,59,15.0,0.0
33810,86.0,0,59,0.0,0.0
33811,61.0,0,59,13.0,0.0
33812,62.0,60,59,3.0,0.0
33813,74.0,0,59,2.0,0.0
33814,73.0,0,59,12.0,0.0
33815,62.0,0,59,2.0,0.0
33816,61.0,0,59,14.0,0.0
33817,74.0,0,59,1.0,0.0
33818,49.0,0,59,15.0,0.0
33819,74.0,0,59,1.0,0.0
33820,47.0,0,59,15.0,0.0
33821,71.0,0,59,12.0,0.0
33822,62.0,0,59,3.0,0.0
33823,59.0,0,59,15.0,0.0
33824,62.0,0,59,2.0,0.0
33825,74.0,60,59,2.0,0.0
33826,59.0,0,59,13.0,0.0
33827,86.0,0,59,0.0,0.0
33828,59.0,0,59,14.0,0.0
33829,73.0,0,59,1.0,0.0
33830,61.0,0,59,13.0,0.0
33831,61.0,0,59,2.0,0.0
33832,73.0,0,59,2.0,0.0
33833,85.0,0,59,0.0,0.0
33834,49.0,0,59,15.0,0.0
33835,61.0,0,59,15.0,0.0
33836,61.0,0,59,3.0,0.0
33837,61.0,60,59,14.0,0.0
33838,73.0,0,59,12.0,0.0
33839,74.0,0,59,12.0,0.0
33840,59.0,0,59,3.0,0.0
33841,62.0,0,59,15.0,0.0
33842,50.0,0,59,15.0,0.0
33843,83.0,0,59,0.0,0.0
33844,71.0,0,59,1.0,0.0
33845,59.0,60,59,2.0,0.0
33846,71.0,0,59,2.0,0.0
33847,62.0,0,59,14.0,0.0
33848,62.0,0,59,13.0,0.0
33849,69.0,60,59,1.0,0.0
33850,74.0,0,59,12.0,0.0
33851,62.0,0,59,14.0,0.0
33852,62.0,0,59,15.0,0.0
33853,81.0,0,59,0.0,0.0
33854,57.0,0,59,3.0,0.0
33855,50.0,0,59,15.0,0.0
33856,62.0,0,59,13.0,0.0
33857,69.0,0,59,2.0,0.0
33858,57.0,0,59,2.0,0.0
33859,62.0,0,59,13.0,0.0
33860,80.0,60,59,0.0,0.0
33861,56.0,0,59,3.0,0.0
33862,50.0,0,59,15.0,0.0
33863,68.0,0,59,2.0,0.0
33864,56.0,0,59,2.0,0.0
33865,68.0,0,59,1.0,0.0
33866,74.0,0,59,12.0,0.0
33867,62.0,0,59,14.0,0.0
33868,62.0,0,59,15.0,0.0
33869,81.0,0,59,0.0,0.0
33870,61.0,0,59,14.0,0.0
33871,73.0,0,59,13.0,0.0
33872,57.0,0,59,3.0,0.0
33873,81.0,0,59,1.0,0.0
33874,73.0,60,59,12.0,0.0
33875,69.0,0,59,2.0,0.0
33876,61.0,0,59,15.0,0.0
33877,49.0,0,59,15.0,0.0
33878,47.0,0,59,15.0,0.0
33879,71.0,0,59,2.0,0.0
33880,59.0,60,59,3.0,0.0
33881,83.0,0,59,0.0,0.0
33882,71.0,0,59,13.0,0.0
33883,83.0,0,59,1.0,0.0
33884,59.0,0,59,14.0,0.0
33885,71.0,0,59,12.0,0.0
33886,59.0,0,59,15.0,0.0
33887,83.0,0,59,0.0,0.0
33888,59.0,0,59,3.0,0.0
33889,57.0,60,59,15.0,0.0
33890,69.0,0,59,12.0,0.0
33891,57.0,0,59,14.0,0.0
33892,45.0,0,59,15.0,0.0
33893,71.0,0,59,2.0,0.0
33894,69.0,0,59,13.0,0.0
33895,83.0,0,59,1.0,0.0
33896,68.0,0,59,13.0,0.0
33897,56.0,0,59,14.0,0.0
33898,59.0,0,59,3.0,0.0
33899,68.0,0,59,12.0,0.0
33900,56.0,0,59,15.0,0.0
33901,71.0,0,59,2.0,0.0
33902,83.0,0,59,0.0,0.0
33903,44.0,60,59,15.0,0.0
33904,83.0,0,59,1.0,0.0
33905,57.0,0,59,3.0,0.0
33906,81.0,0,59,1.0,0.0
33907,81.0,0,59,0.0,0.0
33908,69.0,0,59,12.0,0.0
33909,57.0,60,59,14.0,0.0
33910,69.0,0,59,13.0,0.0
33911,69.0,0,59,2.0,0.0
33912,57.0,0,59,15.0,0.0
33913,45.0,0,59,15.0,0.0
33914,56.0,60,59,3.0,0.0
33915,59.0,0,59,15.0,0.0
33916,71.0,0,59,13.0,0.0
33917,68.0,0,59,2.0,0.0
33918,59.0,0,59,14.0,0.0
33919,47.0,0,59,15.0,0.0
33920,80.0,0,59,0.0,0.0
33921,80.0,0,59,1.0,0.0
33922,71.0,0,59,12.0,0.0
33923,71.0,0,59,13.0,0.0
33924,59.0,0,59,14.0,0.0
33925,71.0,0,59,12.0,0.0
33926,59.0,0,59,15.0,0.0
33927,78.0,60,59,1.0,0.0
33928,66.0,0,59,2.0,0.0
33929,47.0,0,59,15.0,0.0
33930,54.0,0,59,3.0,0.0
33931,78.0,0,59,0.0,0.0
33932,47.0,0,59,15.0,0.0
33933,80.0,0,59,0.0,0.0
33934,68.0,0,59,2.0,0.0
33935,59.0,0,59,15.0,0.0
33936,59.0,0,59,14.0,0.0
33937,56.0,0,59,3.0,0.0
33938,71.0,60,59,13.0,0.0
33939,80.0,0,59,1.0,0.0
33940,71.0,0,59,12.0,0.0
33941,69.0,0,59,2.0,0.0
33942,57.0,0,59,15.0,0.0
33943,45.0,0,59,15.0,0.0
33944,57.0,0,59,14.0,0.0
33945,57.0,0,59,3.0,0.0
33946,81.0,60,59,1.0,0.0
33947,81.0,0,59,0.0,0.0
33948,69.0,0,59,13.0,0.0
33949,69.0,0,59,12.0,0.0
33950,56.0,0,59,14.0,0.0
33951,68.0,0,59,12.0,0.0
33952,59.0,0,59,3.0,0.0
33953,68.0,0,59,13.0,0.0
33954,83.0,0,59,0.0,0.0
33955,71.0,0,59,2.0,0.0
33956,56.0,60,59,15.0,0.0
33957,44.0,0,59,15.0,0.0
33958,83.0,0,59,1.0,0.0
33959,42.0,0,59,15.0,0.0
33960,54.0,0,59,15.0,0.0
33961,54.0,0,59,14.0,0.0
33962,85.0,60,59,0.0,0.0
33963,66.0,0,59,12.0,0.0
33964,73.0,0,59,2.0,0.0
33965,66.0,0,59,13.0,0.0
33966,85.0,0,59,1.0,0.0
33967,61.0,0,59,3.0,0.0
33968,52.0,0,59,15.0,0.0
33969,52.0,0,59,14.0,0.0
33970,86.0,0,59,0.0,0.0
33971,62.0,0,59,3.0,0.0
33972,64.0,0,59,13.0,0.0
33973,86.0,0,59,1.0,0.0
33974,64.0,60,59,12.0,0.0
33975,74.0,0,59,2.0,0.0
33976,40.0,0,59,15.0,0.0
33977,38.0,0,59,15.0,0.0
33978,64.0,0,59,2.0,0.0
33979,76.0,0,59,1.0,0.0
33980,88.0,60,59,0.0,0.0
33981,62.0,0,59,13.0,0.0
33982,52.0,0,59,3.0,0.0
33983,76.0,0,59,2.0,0.0
33984,62.0,0,59,12.0,0.0
33985,50.0,0,59,14.0,0.0
33986,50.0,0,59,15.0,0.0
33987,37.0,0,59,15.0,0.0
33988,61.0,0,59,12.0,0.0
33989,49.0,0,59,15.0,0.0
33990,49.0,60,59,14.0,0.0
33991,54.0,0,59,3.0,0.0
33992,78.0,0,59,1.0,0.0
33993,61.0,0,59,13.0,0.0
33994,90.0,0,59,0.0,0.0
33995,78.0,0,59,2.0,0.0
33996,66.0,0,59,2.0,0.0
33997,59.0,0,59,14.0,0.0
33998,47.0,0,59,15.0,0.0
33999,59.0,0,59,13.0,0.0
34000,68.0,0,59,2.0,0.0
34001,80.0,0,59,2.0,0.0
34002,35.0,60,59,15.0,0.0
34003,92.0,0,59,0.0,0.0
34004,59.0,0,59,12.0,0.0
34005,56.0,0,59,3.0,0.0
34006,80.0,0,59,1.0,0.0
34007,57.0,0,59,13.0,0.0
34008,73.0,0,479,2.0,0.0
34009,33.0,0,119,15.0,0.0
34010,81.0,0,119,1.0,0.0
34011,73.0,60,299,5.0,0.0
34012,57.0,0,479,3.0,0.0
34013,57.0,0,59,14.0,0.0
34014,57.0,0,2999,4.0,0.0
34015,69.0,0,479,2.0,0.0
34016,61.0,60,479,3.0,0.0
34017,93.0,60,119,0.0,0.0
34018,57.0,60,59,12.0,0.0
34019,69.0,0,299,5.0,0.0
34020,45.0,0,119,15.0,0.0
34021,57.0,0,59,14.0,0.0
34022,81.0,0,59,12.0,0.0
34023,81.0,0,59,12.0,0.0
34024,69.0,0,59,13.0,0.0
34025,57.0,60,59,14.0,0.0
34026,81.0,0,59,12.0,0.0
34027,69.0,60,59,13.0,0.0
34028,57.0,0,59,14.0,0.0
34029,69.0,0,59,13.0,0.0
34030,57.0,0,59,14.0,0.0
34031,81.0,0,59,12.0,0.0
34032,71.0,0,59,5.0,0.0
34033,57.0,0,59,14.0,0.0
34034,69.0,0,59,13.0,0.0
34035,81.0,0,59,12.0,0.0
34036,74.0,60,59,5.0,0.0
34037,73.0,0,59,5.0,0.0
34038,76.0,45,59,5.0,0.0
34039,57.0,0,59,14.0,0.0
34040,81.0,0,59,12.0,0.0
34041,69.0,0,59,13.0,0.0
34042,73.0,0,44,5.0,0.0
34043,69.0,0,59,13.0,0.0
34044,57.0,0,59,14.0,0.0
34045,81.0,0,59,12.0,0.0
34046,69.0,15,44,5.0,0.0
34047,74.0,0,479,2.0,0.0
34048,71.0,0,479,2.0,0.0
34049,71.0,0,119,5.0,0.0
34050,81.0,0,59,12.0,0.0
34051,74.0,0,119,5.0,0.0
34052,76.0,0,299,1.0,0.0
34053,59.0,0,479,3.0,0.0
34054,62.0,0,479,3.0,0.0
34055,57.0,60,59,14.0,0.0
34056,69.0,0,59,13.0,0.0
34057,81.0,0,59,12.0,0.0
34058,69.0,0,59,13.0,0.0
34059,57.0,60,59,14.0,0.0
34060,74.0,60,119,5.0,0.0
34061,71.0,0,119,5.0,0.0
34062,81.0,0,59,12.0,0.0
34063,69.0,60,59,13.0,0.0
34064,57.0,0,59,14.0,0.0
34065,69.0,0,59,13.0,0.0
34066,81.0,0,59,12.0,0.0
34067,57.0,0,59,14.0,0.0
34068,69.0,60,59,13.0,0.0
34069,71.0,0,119,5.0,0.0
34070,57.0,0,59,14.0,0.0
34071,81.0,0,59,12.0,0.0
34072,74.0,0,119,5.0,0.0
34073,57.0,0,59,14.0,0.0
34074,69.0,0,59,13.0,0.0
34075,81.0,60,59,12.0,0.0
34076,78.0,0,59,1.0,0.0
34077,71.0,60,119,5.0,0.0
34078,57.0,0,59,14.0,0.0
34079,69.0,0,59,13.0,0.0
34080,74.0,0,119,5.0,0.0
34081,80.0,60,59,1.0,0.0
34082,81.0,0,59,12.0,0.0
34083,57.0,0,59,14.0,0.0
34084,81.0,0,59,12.0,0.0
34085,76.0,0,59,1.0,0.0
34086,69.0,0,59,13.0,0.0
34087,81.0,0,119,1.0,0.0
34088,73.0,0,119,2.0,0.0
34089,57.0,0,299,6.0,0.0
34090,69.0,0,119,2.0,0.0
34091,69.0,0,59,13.0,0.0
34092,61.0,0,299,6.0,0.0
34093,57.0,0,479,3.0,0.0
34094,61.0,60,479,3.0,0.0
34095,81.0,0,59,12.0,0.0
34096,74.0,0,179,5.0,0.0
34097,71.0,0,179,5.0,0.0
34098,57.0,60,59,14.0,0.0
34099,57.0,60,59,14.0,0.0
34100,81.0,0,59,12.0,0.0
34101,69.0,0,59,13.0,0.0
34102,69.0,60,59,13.0,0.0
34103,57.0,0,59,14.0,0.0
34104,81.0,0,59,12.0,0.0
34105,73.0,0,59,5.0,0.0
34106,69.0,0,59,13.0,0.0
34107,69.0,0,59,5.0,0.0
34108,81.0,60,59,12.0,0.0
34109,57.0,0,59,14.0,0.0
34110,69.0,60,59,13.0,0.0
34111,81.0,0,59,12.0,0.0
34112,57.0,0,59,14.0,0.0
34113,73.0,0,239,5.0,0.0
34114,69.0,0,239,5.0,0.0
34115,59.0,0,59,6.0,0.0
34116,57.0,0,59,14.0,0.0
34117,62.0,0,59,6.0,0.0
34118,69.0,60,59,13.0,0.0
34119,81.0,0,59,12.0,0.0
34120,81.0,0,59,12.0,0.0
34121,64.0,0,59,6.0,0.0
34122,57.0,45,59,14.0,0.0
34123,61.0,0,59,6.0,0.0
34124,69.0,0,59,13.0,0.0
34125,81.0,0,59,12.0,0.0
34126,57.0,0,59,14.0,0.0
34127,57.0,0,44,6.0,0.0
34128,61.0,15,44,6.0,0.0
34129,69.0,0,59,13.0,0.0
34130,62.0,0,119,6.0,0.0
34131,57.0,60,59,14.0,0.0
34132,69.0,0,59,13.0,0.0
34133,81.0,0,59,12.0,0.0
34134,59.0,0,119,6.0,0.0
34135,59.0,0,479,3.0,0.0
34136,62.0,0,479,3.0,0.0
34137,64.0,0,299,2.0,0.0
34138,57.0,60,59,14.0,0.0
34139,81.0,0,59,12.0,0.0
34140,69.0,0,59,13.0,0.0
34141,57.0,0,59,14.0,0.0
34142,59.0,0,119,6.0,0.0
34143,81.0,0,59,12.0,0.0
34144,69.0,60,59,13.0,0.0
34145,62.0,60,119,6.0,0.0
34146,57.0,0,59,14.0,0.0
34147,81.0,0,59,12.0,0.0
34148,69.0,0,59,13.0,0.0
34149,69.0,0,59,13.0,0.0
34150,62.0,0,119,6.0,0.0
34151,59.0,0,119,6.0,0.0
34152,57.0,0,59,14.0,0.0
34153,81.0,60,59,12.0,0.0
34154,69.0,0,59,13.0,0.0
34155,81.0,0,59,12.0,0.0
34156,66.0,0,59,2.0,0.0
34157,57.0,60,59,14.0,0.0
34158,59.0,0,119,6.0,0.0
34159,57.0,0,59,14.0,0.0
34160,69.0,60,59,13.0,0.0
34161,81.0,0,59,12.0,0.0
34162,62.0,60,119,6.0,0.0
34163,68.0,0,59,2.0,0.0
34164,81.0,0,59,12.0,0.0
34165,64.0,0,59,2.0,0.0
34166,69.0,0,59,13.0,0.0
34167,57.0,0,59,14.0,0.0
34168,69.0,0,59,13.0,0.0
34169,73.0,0,299,1.0,0.0
34170,69.0,0,299,1.0,0.0
34171,81.0,0,59,12.0,0.0
34172,61.0,0,299,3.0,0.0
34173,62.0,0,179,6.0,0.0
34174,69.0,60,119,2.0,0.0
34175,57.0,0,299,3.0,0.0
34176,59.0,0,179,6.0,0.0
34177,57.0,60,59,14.0,0.0
34178,69.0,0,59,13.0,0.0
34179,81.0,0,59,12.0,0.0
34180,57.0,0,59,14.0,0.0
34181,57.0,60,59,14.0,0.0
34182,69.0,0,59,13.0,0.0
34183,81.0,0,59,12.0,0.0
34184,61.0,60,59,6.0,0.0
34185,57.0,0,59,14.0,0.0
34186,57.0,0,59,6.0,0.0
34187,81.0,0,59,12.0,0.0
34188,69.0,0,59,13.0,0.0
34189,61.0,0,239,6.0,0.0
34190,57.0,60,59,14.0,0.0
34191,57.0,0,239,6.0,0.0
34192,69.0,0,59,13.0,0.0
34193,81.0,0,59,12.0,0.0
34194,74.0,60,59,1.0,0.0
34195,81.0,0,59,12.0,0.0
34196,71.0,0,59,1.0,0.0
34197,62.0,0,59,3.0,0.0
34198,59.0,0,59,3.0,0.0
34199,57.0,0,59,14.0,0.0
34200,69.0,0,59,13.0,0.0
34201,61.0,0,59,3.0,0.0
34202,76.0,0,59,1.0,0.0
34203,69.0,0,59,13.0,0.0
34204,73.0,0,59,1.0,0.0
34205,57.0,0,59,14.0,0.0
34206,64.0,60,59,3.0,0.0
34207,81.0,0,59,12.0,0.0
34208,81.0,0,59,12.0,0.0
34209,57.0,0,59,3.0,0.0
34210,61.0,60,59,3.0,0.0
34211,57.0,0,59,14.0,0.0
34212,69.0,0,59,13.0,0.0
34213,73.0,0,59,1.0,0.0
34214,69.0,0,59,1.0,0.0
34215,81.0,0,299,0.0,0.0
34216,69.0,0,59,13.0,0.0
34217,57.0,60,59,14.0,0.0
34218,81.0,0,59,12.0,0.0
34219,69.0,0,599,4.0,0.0
34220,74.0,0,119,1.0,0.0
34221,69.0,60,299,2.0,0.0
34222,57.0,0,59,15.0,0.0
34223,59.0,0,119,3.0,0.0
34224,62.0,0,119,3.0,0.0
34225,45.0,0,59,15.0,0.0
34226,71.0,0,119,1.0,0.0
34227,57.0,0,299,2.0,0.0
34228,69.0,0,59,13.0,0.0
34229,45.0,0,59,15.0,0.0
34230,57.0,60,59,14.0,0.0
34231,81.0,0,59,12.0,0.0
34232,57.0,0,59,15.0,0.0
34233,81.0,0,59,12.0,0.0
34234,57.0,0,59,14.0,0.0
34235,71.0,60,119,1.0,0.0
34236,57.0,0,59,15.0,0.0
34237,74.0,0,119,1.0,0.0
34238,45.0,0,59,15.0,0.0
34239,69.0,60,59,13.0,0.0
34240,62.0,0,119,3.0,0.0
34241,59.0,0,119,3.0,0.0
34242,45.0,0,59,15.0,0.0
34243,69.0,0,59,13.0,0.0
34244,57.0,0,59,15.0,0.0
34245,57.0,0,59,14.0,0.0
34246,81.0,0,59,12.0,0.0
34247,45.0,0,59,15.0,0.0
34248,76.0,0,359,5.0,0.0
34249,69.0,0,59,14.0,0.0
34250,73.0,0,119,1.0,0.0
34251,57.0,0,59,15.0,0.0
34252,73.0,0,59,13.0,0.0
34253,76.0,0,59,12.0,0.0
34254,64.0,0,119,3.0,0.0
34255,61.0,0,119,3.0,0.0
34256,76.0,0,119,1.0,0.0
34257,83.0,0,59,0.0,0.0
34258,76.0,0,59,12.0,0.0
34259,69.0,0,59,14.0,0.0
34260,57.0,0,59,15.0,0.0
34261,59.0,0,59,2.0,0.0
34262,45.0,60,59,15.0,0.0
34263,73.0,0,59,13.0,0.0
34264,71.0,0,59,2.0,0.0
34265,69.0,0,59,14.0,0.0
34266,57.0,0,59,15.0,0.0
34267,76.0,0,59,12.0,0.0
34268,64.0,0,119,3.0,0.0
34269,73.0,0,59,13.0,0.0
34270,45.0,0,59,15.0,0.0
34271,73.0,0,59,2.0,0.0
34272,85.0,60,59,0.0,0.0
34273,61.0,0,119,3.0,0.0
34274,61.0,0,59,2.0,0.0
34275,76.0,0,119,1.0,0.0
34276,73.0,0,119,1.0,0.0
34277,76.0,0,59,12.0,0.0
34278,57.0,0,59,15.0,0.0
34279,45.0,0,59,15.0,0.0
34280,57.0,120,59,2.0,0.0
34281,69.0,0,59,2.0,0.0
34282,69.0,0,59,14.0,0.0
34283,81.0,0,59,0.0,0.0
34284,73.0,0,59,13.0,0.0
34285,61.0,0,119,3.0,0.0
34286,64.0,0,119,3.0,0.0
34287,45.0,0,119,15.0,0.0
34288,67.0,0,119,5.0,0.0
34289,76.0,0,119,1.0,0.0
34290,73.0,0,119,1.0,0.0
34291,67.0,90,119,14.0,0.0
34292,73.0,0,119,13.0,0.0
34293,88.0,0,119,0.0,0.0
34294,64.0,0,119,2.0,0.0
34295,76.0,0,119,12.0,0.0
34296,57.0,0,119,15.0,0.0
34297,76.0,0,119,2.0,0.0
34298,76.0,0,89,1.0,0.0
34299,67.0,90,119,5.0,0.0
34300,73.0,30,89,2.0,0.0
34301,76.0,0,119,5.0,0.0
34302,74.0,0,89,1.0,0.0
34303,74.0,0,119,5.0,0.0
34304,69.0,0,119,13.0,0.0
34305,74.0,30,89,2.0,0.0
34306,57.0,0,119,15.0,0.0
34307,66.0,90,119,5.0,0.0
34308,66.0,0,119,14.0,0.0
34309,74.0,0,119,12.0,0.0
34310,45.0,0,119,15.0,0.0
34311,86.0,0,89,0.0,0.0
34312,86.0,15,89,0.0,0.0
34313,74.0,15,104,5.0,0.0
34314,69.0,120,119,13.0,0.0
34315,66.0,0,104,5.0,0.0
34316,74.0,0,119,12.0,0.0
34317,66.0,0,119,14.0,0.0
34318,79.0,0,119,5.0,0.0
34319,45.0,0,119,15.0,0.0
34320,64.0,0,119,6.0,0.0
34321,69.0,0,119,12.0,0.0
34322,79.0,0,119,12.0,0.0
34323,64.0,0,119,15.0,0.0
34324,73.0,0,119,13.0,0.0
34325,91.0,0,119,0.0,0.0
34326,73.0,0,119,5.0,0.0
34327,64.0,90,119,14.0,0.0
34328,73.0,30,89,2.0,0.0
34329,64.0,0,119,6.0,0.0
34330,73.0,0,119,5.0,0.0
34331,79.0,90,119,5.0,0.0
34332,79.0,0,89,1.0,0.0
34333,64.0,0,89,3.0,0.0
34334,74.0,0,119,13.0,0.0
34335,62.0,0,119,15.0,0.0
34336,45.0,0,119,15.0,0.0
34337,78.0,0,119,12.0,0.0
34338,69.0,0,119,12.0,0.0
34339,74.0,90,119,5.0,0.0
34340,78.0,0,119,5.0,0.0
34341,90.0,0,89,0.0,0.0
34342,74.0,0,89,2.0,0.0
34343,62.0,0,89,3.0,0.0
34344,62.0,0,119,14.0,0.0
34345,62.0,0,119,6.0,0.0
34346,78.0,30,89,1.0,0.0
34347,62.0,120,119,14.0,0.0
34348,74.0,0,119,13.0,0.0
34349,78.0,0,119,5.0,0.0
34350,90.0,15,89,0.0,0.0
34351,74.0,0,119,5.0,0.0
34352,62.0,0,119,15.0,0.0
34353,62.0,15,104,6.0,0.0
34354,69.0,0,119,12.0,0.0
34355,78.0,0,119,12.0,0.0
34356,45.0,0,119,15.0,0.0
34357,69.0,0,119,12.0,0.0
34358,67.0,120,119,14.0,0.0
34359,67.0,0,119,15.0,0.0
34360,73.0,0,119,13.0,0.0
34361,74.0,0,119,5.0,0.0
34362,78.0,0,119,5.0,0.0
34363,76.0,0,119,12.0,0.0
34364,67.0,0,119,6.0,0.0
34365,76.0,120,119,5.0,0.0
34366,69.0,0,119,2.0,0.0
34367,67.0,0,119,6.0,0.0
34368,73.0,0,119,5.0,0.0
34369,88.0,0,119,0.0,0.0
34370,57.0,0,119,3.0,0.0
34371,74.0,0,119,12.0,0.0
34372,66.0,0,119,6.0,0.0
34373,66.0,0,119,15.0,0.0
34374,45.0,0,119,15.0,0.0
34375,74.0,0,119,2.0,0.0
34376,74.0,0,119,5.0,0.0
34377,66.0,0,119,14.0,0.0
34378,86.0,0,119,0.0,0.0
34379,69.0,120,119,13.0,0.0
34380,69.0,0,119,5.0,0.0
34381,62.0,0,119,3.0,0.0
34382,66.0,120,119,6.0,0.0
34383,81.0,0,119,5.0,0.0
34384,66.0,0,119,14.0,0.0
34385,74.0,0,119,5.0,0.0
34386,66.0,0,119,15.0,0.0
34387,66.0,0,119,6.0,0.0
34388,69.0,0,119,13.0,0.0
34389,81.0,120,119,5.0,0.0
34390,45.0,0,119,15.0,0.0
34391,57.0,0,119,15.0,0.0
34392,64.0,0,119,14.0,0.0
34393,69.0,0,119,5.0,0.0
34394,79.0,0,119,12.0,0.0
34395,79.0,0,239,1.0,0.0
34396,91.0,0,119,0.0,0.0
34397,73.0,0,119,2.0,0.0
34398,73.0,0,119,5.0,0.0
34399,73.0,0,119,1.0,0.0
34400,64.0,0,119,6.0,0.0
34401,79.0,0,119,5.0,0.0
34402,64.0,120,119,3.0,0.0
34403,81.0,0,119,0.0,0.0
34404,74.0,0,239,1.0,0.0
34405,69.0,0,119,13.0,0.0
34406,45.0,105,119,15.0,0.0
34407,62.0,0,119,14.0,0.0
34408,74.0,0,119,2.0,0.0
34409,62.0,0,119,6.0,0.0
34410,74.0,0,239,5.0,0.0
34411,57.0,0,119,15.0,0.0
34412,79.0,0,119,5.0,0.0
34413,78.0,0,119,12.0,0.0
34414,62.0,0,119,3.0,0.0
34415,69.0,0,119,6.0,0.0
34416,78.0,0,119,1.0,0.0
34417,78.0,15,104,5.0,0.0
34418,90.0,120,119,0.0,0.0
34419,69.0,0,119,5.0,0.0
34420,69.0,120,1919,2.0,0.0
34421,57.0,0,119,14.0,0.0
34422,69.0,120,119,14.0,0.0
34423,45.0,0,5279,4.0,0.0
34424,52.0,0,119,6.0,0.0
34425,57.0,0,5279,4.0,0.0
34426,73.0,0,239,1.0,0.0
34427,69.0,0,5279,4.0,0.0
34428,69.0,0,119,6.0,0.0
34429,52.0,0,119,15.0,0.0
34430,73.0,0,119,12.0,0.0
34431,67.0,0,119,13.0,0.0
34432,40.0,0,119,15.0,0.0
34433,67.0,0,239,2.0,0.0
34434,67.0,0,119,6.0,0.0
34435,52.0,0,119,3.0,0.0
34436,52.0,0,119,6.0,0.0
34437,85.0,0,119,0.0,0.0
34438,73.0,120,119,5.0,0.0
34439,38.0,0,119,15.0,0.0
34440,50.0,0,119,15.0,0.0
34441,50.0,0,119,3.0,0.0
34442,69.0,0,119,14.0,0.0
34443,57.0,105,119,14.0,0.0
34444,67.0,0,119,6.0,0.0
34445,66.0,0,119,13.0,0.0
34446,74.0,0,119,12.0,0.0
34447,50.0,0,119,6.0,0.0
34448,86.0,0,119,0.0,0.0
34449,74.0,0,119,5.0,0.0
34450,74.0,0,239,1.0,0.0
34451,66.0,0,239,2.0,0.0
34452,50.0,0,104,6.0,0.0
34453,38.0,120,119,15.0,0.0
34454,78.0,0,119,5.0,0.0
34455,50.0,0,119,15.0,0.0
34456,66.0,15,104,6.0,0.0
34457,57.0,0,119,14.0,0.0
34458,64.0,0,119,5.0,0.0
34459,69.0,0,119,14.0,0.0
34460,73.0,0,239,1.0,0.0
34461,81.0,120,119,5.0,0.0
34462,64.0,0,239,2.0,0.0
34463,55.0,0,119,6.0,0.0
34464,43.0,0,119,15.0,0.0
34465,81.0,0,119,12.0,0.0
34466,55.0,0,119,15.0,0.0
34467,64.0,0,119,13.0,0.0
34468,57.0,0,719,6.0,0.0
34469,61.0,0,119,13.0,0.0
34470,64.0,0,119,5.0,0.0
34471,73.0,0,119,5.0,0.0
34472,55.0,0,119,6.0,0.0
34473,55.0,0,119,3.0,0.0
34474,85.0,120,119,0.0,0.0
34475,86.0,105,119,0.0,0.0
34476,62.0,0,119,13.0,0.0
34477,42.0,0,119,15.0,0.0
34478,62.0,0,119,5.0,0.0
34479,62.0,0,239,2.0,0.0
34480,69.0,0,119,14.0,0.0
34481,57.0,0,119,14.0,0.0
34482,54.0,0,119,15.0,0.0
34483,74.0,0,239,1.0,0.0
34484,74.0,0,119,12.0,0.0
34485,74.0,0,119,5.0,0.0
34486,54.0,0,119,6.0,0.0
34487,54.0,0,119,3.0,0.0
34488,62.0,0,119,13.0,0.0
34489,54.0,120,119,6.0,0.0
34490,42.0,0,119,15.0,0.0
34491,62.0,15,104,5.0,0.0
34492,54.0,0,119,15.0,0.0
34493,78.0,0,119,5.0,0.0
34494,57.0,0,119,14.0,0.0
34495,69.0,120,119,12.0,0.0
34496,40.0,0,119,15.0,0.0
34497,52.0,0,119,15.0,0.0
34498,73.0,120,239,1.0,0.0
34499,67.0,0,119,5.0,0.0
34500,54.0,0,119,6.0,0.0
34501,69.0,0,119,14.0,0.0
34502,69.0,0,119,5.0,0.0
34503,67.0,0,119,13.0,0.0
34504,67.0,0,119,2.0,0.0
34505,52.0,0,119,6.0,0.0
34506,67.0,0,119,5.0,0.0
34507,85.0,0,119,0.0,0.0
34508,73.0,0,119,5.0,0.0
34509,52.0,0,119,3.0,0.0
34510,86.0,0,119,0.0,0.0
34511,66.0,0,119,2.0,0.0
34512,50.0,0,119,15.0,0.0
34513,74.0,0,119,12.0,0.0
34514,74.0,0,239,1.0,0.0
34515,57.0,0,119,14.0,0.0
34516,69.0,0,119,14.0,0.0
34517,66.0,0,119,13.0,0.0
34518,50.0,0,119,3.0,0.0
34519,38.0,0,119,15.0,0.0
34520,50.0,0,119,6.0,0.0
34521,66.0,0,119,5.0,0.0
34522,74.0,105,119,5.0,0.0
34523,57.0,15,104,6.0,0.0
34524,66.0,0,119,5.0,0.0
34525,66.0,0,119,13.0,0.0
34526,78.0,0,119,5.0,0.0
34527,81.0,0,119,12.0,0.0
34528,43.0,0,119,15.0,0.0
34529,57.0,0,119,6.0,0.0
34530,81.0,120,119,5.0,0.0
34531,57.0,0,119,14.0,0.0
34532,69.0,0,119,14.0,0.0
34533,64.0,0,119,13.0,0.0
34534,66.0,0,119,5.0,0.0
34535,55.0,0,119,15.0,0.0
34536,73.0,0,239,1.0,0.0
34537,64.0,120,119,5.0,0.0
34538,64.0,0,119,2.0,0.0
34539,55.0,0,119,6.0,0.0
34540,55.0,0,119,3.0,0.0
34541,73.0,0,119,5.0,0.0
34542,85.0,0,119,0.0,0.0
34543,54.0,105,119,3.0,0.0
34544,55.0,0,119,6.0,0.0
34545,57.0,0,239,6.0,0.0
34546,69.0,0,119,14.0,0.0
34547,42.0,0,119,15.0,0.0
34548,74.0,0,239,1.0,0.0
34549,62.0,0,119,13.0,0.0
34550,54.0,0,119,15.0,0.0
34551,74.0,0,119,12.0,0.0
34552,74.0,0,119,5.0,0.0
34553,86.0,0,119,0.0,0.0
34554,62.0,0,119,5.0,0.0
34555,62.0,0,119,2.0,0.0
34556,57.0,0,119,14.0,0.0
34557,78.0,15,104,5.0,0.0
34558,69.0,0,119,5.0,0.0
34559,54.0,0,104,6.0,0.0
34560,76.0,0,119,12.0,0.0
34561,69.0,0,119,5.0,0.0
34562,45.0,120,119,6.0,0.0
34563,33.0,0,119,15.0,0.0
34564,45.0,0,119,15.0,0.0
34565,78.0,0,119,5.0,0.0
34566,69.0,0,959,2.0,0.0
34567,57.0,0,239,6.0,0.0
34568,69.0,0,119,13.0,0.0
34569,67.0,0,239,2.0,0.0
34570,57.0,0,119,14.0,0.0
34571,76.0,0,119,5.0,0.0
34572,49.0,0,119,3.0,0.0
34573,76.0,0,119,1.0,0.0
34574,88.0,0,119,0.0,0.0
34575,67.0,0,119,5.0,0.0
34576,49.0,120,119,6.0,0.0
34577,69.0,0,119,13.0,0.0
34578,38.0,0,119,15.0,0.0
34579,76.0,0,119,5.0,0.0
34580,74.0,0,119,12.0,0.0
34581,86.0,0,119,0.0,0.0
34582,50.0,0,119,3.0,0.0
34583,57.0,0,119,14.0,0.0
34584,67.0,0,119,5.0,0.0
34585,50.0,105,119,6.0,0.0
34586,57.0,15,224,6.0,0.0
34587,66.0,0,239,2.0,0.0
34588,50.0,0,119,15.0,0.0
34589,54.0,120,119,6.0,0.0
34590,74.0,0,119,5.0,0.0
34591,66.0,0,104,5.0,0.0
34592,74.0,0,119,1.0,0.0
34593,45.0,90,119,15.0,0.0
34594,69.0,0,719,5.0,0.0
34595,64.0,0,119,14.0,0.0
34596,67.0,0,119,12.0,0.0
34597,69.0,0,119,12.0,0.0
34598,64.0,0,119,6.0,0.0
34599,57.0,0,119,15.0,0.0
34600,57.0,0,119,6.0,0.0
34601,73.0,0,119,5.0,0.0
34602,57.0,0,119,13.0,0.0
34603,64.0,0,119,2.0,0.0
34604,76.0,30,89,1.0,0.0
34605,49.0,0,119,6.0,0.0
34606,49.0,0,119,3.0,0.0
34607,64.0,0,119,6.0,0.0
34608,64.0,90,119,5.0,0.0
34609,50.0,0,119,3.0,0.0
34610,62.0,0,119,6.0,0.0
34611,78.0,15,89,1.0,0.0
34612,62.0,0,119,14.0,0.0
34613,69.0,0,119,12.0,0.0
34614,66.0,0,119,12.0,0.0
34615,50.0,0,119,6.0,0.0
34616,66.0,15,104,5.0,0.0
34617,57.0,0,119,13.0,0.0
34618,50.0,0,119,15.0,0.0
34619,38.0,60,119,15.0,0.0
34620,62.0,0,119,2.0,0.0
34621,62.0,15,104,6.0,0.0
34622,62.0,0,119,14.0,0.0
34623,86.0,0,119,0.0,0.0
34624,74.0,0,119,5.0,0.0
34625,54.0,0,119,6.0,0.0
34626,79.0,45,59,1.0,0.0
34627,78.0,90,59,1.0,0.0
34628,76.0,0,119,12.0,0.0
34629,69.0,0,119,13.0,0.0
34630,45.0,0,119,15.0,0.0
34631,67.0,0,119,14.0,0.0
34632,76.0,0,89,1.0,0.0
34633,45.0,0,119,6.0,0.0
34634,33.0,0,119,15.0,0.0
34635,88.0,0,119,0.0,0.0
34636,67.0,0,119,6.0,0.0
34637,64.0,30,89,2.0,0.0
34638,76.0,60,119,5.0,0.0
34639,76.0,0,119,5.0,0.0
34640,90.0,0,59,0.0,0.0
34641,49.0,0,119,3.0,0.0
34642,66.0,0,59,2.0,0.0
34643,67.0,0,119,6.0,0.0
34644,49.0,90,119,6.0,0.0
34645,78.0,60,59,1.0,0.0
34646,88.0,0,59,0.0,0.0
34647,64.0,0,59,2.0,0.0
34648,76.0,0,59,1.0,0.0
34649,66.0,0,119,14.0,0.0
34650,62.0,0,89,2.0,0.0
34651,50.0,0,119,3.0,0.0
34652,86.0,0,89,0.0,0.0
34653,50.0,0,119,15.0,0.0
34654,74.0,60,119,12.0,0.0
34655,50.0,0,119,6.0,0.0
34656,38.0,0,119,15.0,0.0
34657,69.0,0,239,5.0,0.0
34658,69.0,0,119,13.0,0.0
34659,66.0,0,119,6.0,0.0
34660,74.0,30,89,1.0,0.0
34661,74.0,0,119,5.0,0.0
34662,64.0,0,59,2.0,0.0
34663,54.0,0,119,6.0,0.0
34664,76.0,0,59,1.0,0.0
34665,66.0,0,119,6.0,0.0
34666,74.0,0,119,12.0,0.0
34667,74.0,15,104,5.0,0.0
34668,66.0,0,119,14.0,0.0
34669,88.0,45,59,0.0,0.0
34670,86.0,90,59,0.0,0.0
34671,74.0,0,59,1.0,0.0
34672,66.0,0,59,2.0,0.0
34673,64.0,0,119,14.0,0.0
34674,45.0,0,119,15.0,0.0
34675,69.0,0,239,5.0,0.0
34676,57.0,0,119,14.0,0.0
34677,57.0,0,119,15.0,0.0
34678,79.0,0,119,5.0,0.0
34679,67.0,30,89,2.0,0.0
34680,79.0,0,89,1.0,0.0
34681,66.0,60,119,6.0,0.0
34682,57.0,0,119,6.0,0.0
34683,67.0,0,89,3.0,0.0
34684,69.0,0,119,13.0,0.0
34685,91.0,0,89,0.0,0.0
34686,76.0,0,119,12.0,0.0
34687,79.0,0,119,5.0,0.0
34688,64.0,0,119,6.0,0.0
34689,49.0,0,119,6.0,0.0
34690,69.0,0,59,2.0,0.0
34691,57.0,0,59,3.0,0.0
34692,49.0,90,119,3.0,0.0
34693,93.0,0,59,0.0,0.0
34694,81.0,60,59,1.0,0.0
34695,91.0,0,59,0.0,0.0
34696,67.0,0,59,2.0,0.0
34697,79.0,0,59,1.0,0.0
34698,67.0,0,59,3.0,0.0
34699,57.0,0,119,14.0,0.0
34700,38.0,0,119,15.0,0.0
34701,50.0,60,119,6.0,0.0
34702,64.0,0,119,6.0,0.0
34703,78.0,0,89,1.0,0.0
34704,74.0,0,119,12.0,0.0
34705,62.0,0,119,14.0,0.0
34706,90.0,30,89,0.0,0.0
34707,78.0,0,119,5.0,0.0
34708,69.0,0,119,13.0,0.0
34709,50.0,0,119,3.0,0.0
34710,66.0,0,119,3.0,0.0
34711,69.0,0,239,5.0,0.0
34712,66.0,0,89,2.0,0.0
34713,50.0,0,119,15.0,0.0
34714,76.0,45,59,1.0,0.0
34715,54.0,15,104,6.0,0.0
34716,64.0,0,59,2.0,0.0
34717,69.0,0,119,13.0,0.0
34718,88.0,0,59,0.0,0.0
34719,62.0,0,119,6.0,0.0
34720,78.0,120,119,5.0,0.0
34721,74.0,0,119,12.0,0.0
34722,74.0,0,59,1.0,0.0
34723,86.0,0,59,0.0,0.0
34724,62.0,0,59,2.0,0.0
34725,52.0,0,119,15.0,0.0
34726,52.0,0,119,6.0,0.0
34727,69.0,0,119,2.0,0.0
34728,61.0,0,119,6.0,0.0
34729,64.0,0,119,8.0,0.0
34730,52.0,0,119,14.0,0.0
34731,64.0,0,119,12.0,0.0
34732,64.0,0,119,10.0,0.0
34733,61.0,0,119,2.0,0.0
34734,64.0,0,119,13.0,0.0
34735,81.0,0,119,1.0,0.0
34736,52.0,0,119,11.0,0.0
34737,69.0,0,119,5.0,0.0
34738,40.0,120,119,15.0,0.0
34739,81.0,0,119,0.0,0.0
34740,64.0,0,119,13.0,0.0
34741,67.0,0,119,6.0,0.0
34742,85.0,0,119,0.0,0.0
34743,64.0,0,119,8.0,0.0
34744,64.0,0,119,12.0,0.0
34745,40.0,0,119,15.0,0.0
34746,52.0,0,119,15.0,0.0
34747,73.0,0,119,5.0,0.0
34748,64.0,120,119,10.0,0.0
34749,57.0,0,119,6.0,0.0
34750,73.0,0,119,1.0,0.0
34751,52.0,0,119,14.0,0.0
34752,52.0,0,119,11.0,0.0
34753,61.0,0,119,2.0,0.0
34754,57.0,0,119,3.0,0.0
34755,50.0,0,119,6.0,0.0
34756,50.0,0,119,14.0,0.0
34757,74.0,105,119,5.0,0.0
34758,62.0,0,119,13.0,0.0
34759,67.0,0,119,6.0,0.0
34760,57.0,0,119,2.0,0.0
34761,38.0,0,119,15.0,0.0
34762,62.0,0,119,8.0,0.0
34763,69.0,0,119,1.0,0.0
34764,62.0,0,119,12.0,0.0
34765,86.0,0,119,0.0,0.0
34766,50.0,0,119,15.0,0.0
34767,69.0,0,239,5.0,0.0
34768,50.0,0,119,11.0,0.0
34769,62.0,0,119,10.0,0.0
34770,62.0,120,119,12.0,0.0
34771,50.0,0,119,15.0,0.0
34772,62.0,15,104,8.0,0.0
34773,74.0,0,119,1.0,0.0
34774,62.0,0,104,10.0,0.0
34775,50.0,0,119,14.0,0.0
34776,38.0,0,119,15.0,0.0
34777,57.0,0,119,3.0,0.0
34778,78.0,0,119,5.0,0.0
34779,50.0,0,104,11.0,0.0
34780,45.0,0,119,3.0,0.0
34781,62.0,0,119,2.0,0.0
34782,57.0,0,119,6.0,0.0
34783,62.0,0,119,13.0,0.0
34784,66.0,0,104,6.0,0.0
34785,67.0,0,119,10.0,0.0
34786,64.0,0,119,6.0,0.0
34787,55.0,0,119,14.0,0.0
34788,43.0,0,119,15.0,0.0
34789,67.0,0,119,13.0,0.0
34790,67.0,0,119,8.0,0.0
34791,81.0,0,119,5.0,0.0
34792,67.0,120,119,12.0,0.0
34793,55.0,0,119,6.0,0.0
34794,55.0,0,119,11.0,0.0
34795,55.0,0,119,15.0,0.0
34796,55.0,0,119,15.0,0.0
34797,55.0,0,119,14.0,0.0
34798,73.0,0,119,5.0,0.0
34799,43.0,0,119,15.0,0.0
34800,55.0,0,119,11.0,0.0
34801,57.0,0,119,6.0,0.0
34802,67.0,0,119,13.0,0.0
34803,85.0,0,119,0.0,0.0
34804,67.0,0,119,8.0,0.0
34805,67.0,0,119,12.0,0.0
34806,64.0,0,119,2.0,0.0
34807,76.0,0,119,1.0,0.0
34808,67.0,0,119,10.0,0.0
34809,57.0,120,119,3.0,0.0
34810,54.0,0,119,14.0,0.0
34811,74.0,0,119,5.0,0.0
34812,42.0,0,119,15.0,0.0
34813,69.0,0,119,1.0,0.0
34814,66.0,0,119,10.0,0.0
34815,69.0,0,359,5.0,0.0
34816,66.0,0,119,12.0,0.0
34817,66.0,0,119,8.0,0.0
34818,86.0,0,119,0.0,0.0
34819,54.0,0,119,6.0,0.0
34820,66.0,0,119,13.0,0.0
34821,54.0,0,119,15.0,0.0
34822,57.0,0,119,6.0,0.0
34823,54.0,0,119,11.0,0.0
34824,57.0,105,119,2.0,0.0
34825,66.0,0,119,12.0,0.0
34826,57.0,0,119,3.0,0.0
34827,45.0,0,119,3.0,0.0
34828,54.0,0,119,15.0,0.0
34829,74.0,0,119,1.0,0.0
34830,66.0,0,119,8.0,0.0
34831,66.0,0,119,10.0,0.0
34832,62.0,120,119,2.0,0.0
34833,57.0,0,119,6.0,0.0
34834,78.0,15,104,5.0,0.0
34835,54.0,0,119,14.0,0.0
34836,42.0,0,119,15.0,0.0
34837,54.0,0,119,11.0,0.0
34838,66.0,0,119,13.0,0.0
34839,42.0,0,119,15.0,0.0
34840,66.0,0,119,12.0,0.0
34841,54.0,0,119,14.0,0.0
34842,81.0,45,119,5.0,0.0
34843,66.0,0,119,13.0,0.0
34844,66.0,0,119,10.0,0.0
34845,54.0,0,119,15.0,0.0
34846,54.0,0,119,11.0,0.0
34847,66.0,0,119,8.0,0.0
34848,57.0,0,119,6.0,0.0
34849,64.0,0,119,12.0,0.0
34850,64.0,0,119,10.0,0.0
34851,61.0,0,119,6.0,0.0
34852,67.0,0,44,2.0,0.0
34853,79.0,0,119,5.0,0.0
34854,57.0,0,119,3.0,0.0
34855,61.0,120,119,3.0,0.0
34856,69.0,0,119,5.0,0.0
34857,64.0,0,119,13.0,0.0
34858,64.0,0,119,8.0,0.0
34859,79.0,0,44,1.0,0.0
34860,52.0,0,119,15.0,0.0
34861,40.0,0,119,15.0,0.0
34862,64.0,0,119,6.0,0.0
34863,91.0,60,44,0.0,0.0
34864,52.0,0,119,11.0,0.0
34865,52.0,0,119,14.0,0.0
34866,81.0,0,44,0.0,0.0
34867,69.0,15,44,1.0,0.0
34868,57.0,0,44,2.0,0.0
34869,90.0,0,119,0.0,0.0
34870,62.0,0,119,13.0,0.0
34871,50.0,0,119,14.0,0.0
34872,66.0,0,119,6.0,0.0
34873,50.0,0,119,15.0,0.0
34874,38.0,0,119,15.0,0.0
34875,62.0,0,119,10.0,0.0
34876,50.0,0,119,11.0,0.0
34877,62.0,120,119,8.0,0.0
34878,66.0,0,119,2.0,0.0
34879,62.0,0,119,12.0,0.0
34880,57.0,0,119,6.0,0.0
34881,69.0,0,119,5.0,0.0
34882,78.0,0,119,1.0,0.0
34883,81.0,0,119,5.0,0.0
34884,69.0,120,119,8.0,0.0
34885,69.0,0,119,10.0,0.0
34886,45.0,0,119,15.0,0.0
34887,62.0,0,119,3.0,0.0
34888,57.0,0,119,11.0,0.0
34889,57.0,0,119,3.0,0.0
34890,62.0,0,119,6.0,0.0
34891,69.0,0,119,12.0,0.0
34892,78.0,0,119,5.0,0.0
34893,57.0,0,119,15.0,0.0
34894,69.0,0,119,13.0,0.0
34895,57.0,0,119,14.0,0.0
34896,69.0,0,119,5.0,0.0
34897,69.0,0,239,4.0,0.0
34898,69.0,0,119,5.0,0.0
34899,69.0,0,119,13.0,0.0
34900,57.0,0,119,15.0,0.0
34901,57.0,0,119,6.0,0.0
34902,69.0,0,119,12.0,0.0
34903,81.0,0,119,5.0,0.0
34904,45.0,0,119,15.0,0.0
34905,69.0,0,119,10.0,0.0
34906,69.0,0,119,8.0,0.0
34907,57.0,0,119,11.0,0.0
34908,57.0,0,119,14.0,0.0
34909,45.0,0,239,4.0,0.0
34910,57.0,0,239,4.0,0.0
34911,76.0,60,179,5.0,0.0
34912,88.0,0,44,0.0,0.0
34913,73.0,0,119,5.0,0.0
34914,55.0,0,119,11.0,0.0
34915,67.0,0,119,10.0,0.0
34916,67.0,0,119,8.0,0.0
34917,45.0,0,239,6.0,0.0
34918,55.0,0,119,15.0,0.0
34919,67.0,0,119,12.0,0.0
34920,43.0,0,119,15.0,0.0
34921,57.0,0,119,3.0,0.0
34922,76.0,60,44,1.0,0.0
34923,67.0,0,239,6.0,0.0
34924,67.0,0,119,13.0,0.0
34925,55.0,0,119,14.0,0.0
34926,64.0,0,44,2.0,0.0
34927,57.0,0,44,2.0,0.0
34928,69.0,0,44,1.0,0.0
34929,81.0,15,44,0.0,0.0
34930,67.0,0,119,10.0,0.0
34931,86.0,0,119,0.0,0.0
34932,67.0,0,119,8.0,0.0
34933,62.0,0,119,2.0,0.0
34934,43.0,0,119,15.0,0.0
34935,74.0,0,119,1.0,0.0
34936,55.0,0,119,14.0,0.0
34937,45.0,0,239,4.0,0.0
34938,57.0,0,239,4.0,0.0
34939,67.0,0,119,13.0,0.0
34940,69.0,0,119,5.0,0.0
34941,55.0,0,119,15.0,0.0
34942,55.0,0,119,11.0,0.0
34943,69.0,0,239,4.0,0.0
34944,67.0,0,119,12.0,0.0
34945,74.0,105,59,5.0,0.0
34946,66.0,0,119,6.0,0.0
34947,66.0,0,119,13.0,0.0
34948,54.0,0,119,15.0,0.0
34949,66.0,0,104,8.0,0.0
34950,81.0,0,119,5.0,0.0
34951,66.0,0,104,10.0,0.0
34952,54.0,0,119,14.0,0.0
34953,45.0,0,119,3.0,0.0
34954,74.0,0,119,5.0,0.0
34955,66.0,0,119,12.0,0.0
34956,42.0,0,119,15.0,0.0
34957,54.0,0,104,11.0,0.0
34958,57.0,0,239,6.0,0.0
34959,45.0,0,239,4.0,0.0
34960,57.0,0,239,4.0,0.0
34961,66.0,0,119,10.0,0.0
34962,42.0,0,119,15.0,0.0
34963,66.0,0,119,13.0,0.0
34964,62.0,0,119,6.0,0.0
34965,81.0,45,119,5.0,0.0
34966,69.0,0,119,5.0,0.0
34967,54.0,0,119,15.0,0.0
34968,69.0,0,239,4.0,0.0
34969,54.0,0,119,11.0,0.0
34970,66.0,0,119,12.0,0.0
34971,54.0,0,119,14.0,0.0
34972,66.0,0,119,8.0,0.0
34973,64.0,120,119,13.0,0.0
34974,64.0,0,119,8.0,0.0
34975,52.0,0,119,15.0,0.0
34976,79.0,0,44,1.0,0.0
34977,79.0,0,119,5.0,0.0
34978,67.0,0,44,2.0,0.0
34979,64.0,0,119,6.0,0.0
34980,40.0,0,119,15.0,0.0
34981,64.0,0,119,12.0,0.0
34982,52.0,0,119,14.0,0.0
34983,91.0,60,44,0.0,0.0
34984,64.0,0,119,10.0,0.0
34985,57.0,0,119,3.0,0.0
34986,45.0,0,479,6.0,0.0
34987,52.0,0,119,11.0,0.0
34988,73.0,0,119,5.0,0.0
34989,57.0,0,44,2.0,0.0
34990,81.0,15,44,0.0,0.0
34991,69.0,0,44,1.0,0.0
34992,90.0,0,119,0.0,0.0
34993,50.0,0,119,14.0,0.0
34994,62.0,0,119,12.0,0.0
34995,38.0,0,119,15.0,0.0
34996,45.0,0,239,4.0,0.0
34997,66.0,0,119,6.0,0.0
34998,57.0,0,239,4.0,0.0
34999,78.0,0,119,1.0,0.0
35000,62.0,0,119,10.0,0.0
35001,69.0,0,239,4.0,0.0
35002,69.0,0,119,5.0,0.0
35003,66.0,0,119,2.0,0.0
35004,50.0,0,119,11.0,0.0
35005,62.0,0,119,8.0,0.0
35006,50.0,0,119,15.0,0.0
35007,81.0,0,119,5.0,0.0
35008,62.0,120,119,13.0,0.0
35009,57.0,0,119,6.0,0.0
35010,45.0,120,119,3.0,0.0
35011,69.0,0,119,13.0,0.0
35012,78.0,0,119,5.0,0.0
35013,57.0,0,119,14.0,0.0
35014,69.0,0,119,8.0,0.0
35015,74.0,0,119,5.0,0.0
35016,57.0,0,119,15.0,0.0
35017,69.0,0,119,12.0,0.0
35018,57.0,0,119,11.0,0.0
35019,69.0,0,119,10.0,0.0
35020,45.0,0,119,15.0,0.0
35021,69.0,0,119,10.0,0.0
35022,45.0,0,239,4.0,0.0
35023,69.0,0,119,13.0,0.0
35024,69.0,0,239,4.0,0.0
35025,57.0,0,239,4.0,0.0
35026,69.0,0,119,8.0,0.0
35027,45.0,0,119,15.0,0.0
35028,57.0,0,119,11.0,0.0
35029,81.0,0,119,5.0,0.0
35030,57.0,0,119,14.0,0.0
35031,57.0,45,119,15.0,0.0
35032,61.0,0,119,6.0,0.0
35033,69.0,0,119,5.0,0.0
35034,69.0,0,119,12.0,0.0
35035,57.0,0,119,3.0,0.0
35036,55.0,0,119,14.0,0.0
35037,76.0,60,179,5.0,0.0
35038,64.0,0,44,2.0,0.0
35039,67.0,0,239,6.0,0.0
35040,55.0,0,119,15.0,0.0
35041,76.0,60,44,1.0,0.0
35042,67.0,0,119,8.0,0.0
35043,88.0,0,44,0.0,0.0
35044,55.0,0,119,11.0,0.0
35045,43.0,0,119,15.0,0.0
35046,67.0,0,119,10.0,0.0
35047,73.0,0,119,5.0,0.0
35048,67.0,0,119,13.0,0.0
35049,57.0,0,479,6.0,0.0
35050,67.0,0,119,12.0,0.0
35051,69.0,0,44,1.0,0.0
35052,81.0,15,44,0.0,0.0
35053,57.0,0,44,2.0,0.0
35054,55.0,0,119,14.0,0.0
35055,67.0,0,119,8.0,0.0
35056,55.0,0,119,15.0,0.0
35057,43.0,0,119,15.0,0.0
35058,62.0,0,119,2.0,0.0
35059,74.0,0,119,1.0,0.0
35060,86.0,105,119,0.0,0.0
35061,67.0,0,119,13.0,0.0
35062,67.0,0,119,12.0,0.0
35063,55.0,0,119,11.0,0.0
35064,69.0,0,119,5.0,0.0
35065,57.0,0,239,4.0,0.0
35066,45.0,0,239,4.0,0.0
35067,69.0,0,239,4.0,0.0
35068,67.0,0,119,10.0,0.0
35069,74.0,0,59,5.0,0.0
35070,54.0,0,119,14.0,0.0
35071,66.0,0,119,13.0,0.0
35072,66.0,0,239,6.0,0.0
35073,66.0,0,104,8.0,0.0
35074,42.0,0,119,15.0,0.0
35075,81.0,0,239,8.0,0.0
35076,45.0,120,119,3.0,0.0
35077,66.0,15,104,10.0,0.0
35078,74.0,0,239,8.0,0.0
35079,54.0,0,119,15.0,0.0
35080,54.0,0,104,11.0,0.0
35081,66.0,0,119,12.0,0.0
35082,69.0,0,119,12.0,0.0
35083,69.0,0,119,8.0,0.0
35084,45.0,0,119,7.0,0.0
35085,69.0,0,119,10.0,0.0
35086,69.0,45,119,4.0,0.0
35087,57.0,0,119,4.0,0.0
35088,45.0,0,119,4.0,0.0
35089,57.0,0,119,11.0,0.0
35090,57.0,0,119,14.0,0.0
35091,57.0,0,119,15.0,0.0
35092,57.0,0,119,5.0,0.0
35093,69.0,0,119,13.0,0.0
35094,45.0,0,119,15.0,0.0
35095,69.0,0,119,5.0,0.0
35096,57.0,0,59,13.0,0.0
35097,57.0,0,59,14.0,0.0
35098,91.0,0,119,0.0,0.0
35099,69.0,0,119,8.0,0.0
35100,79.0,0,44,1.0,0.0
35101,45.0,0,119,7.0,0.0
35102,76.0,0,44,1.0,0.0
35103,79.0,0,119,8.0,0.0
35104,64.0,0,59,3.0,0.0
35105,67.0,45,59,3.0,0.0
35106,79.0,0,44,2.0,0.0
35107,76.0,15,44,2.0,0.0
35108,64.0,0,119,6.0,0.0
35109,69.0,0,119,10.0,0.0
35110,57.0,0,119,5.0,0.0
35111,69.0,0,119,5.0,0.0
35112,45.0,0,59,15.0,0.0
35113,45.0,0,119,4.0,0.0
35114,69.0,0,119,4.0,0.0
35115,57.0,0,119,4.0,0.0
35116,57.0,0,59,12.0,0.0
35117,33.0,0,119,15.0,0.0
35118,45.0,60,119,11.0,0.0
35119,88.0,0,119,0.0,0.0
35120,76.0,0,119,8.0,0.0
35121,57.0,0,119,11.0,0.0
35122,45.0,0,59,3.0,0.0
35123,57.0,0,59,14.0,0.0
35124,69.0,0,44,2.0,0.0
35125,45.0,0,59,15.0,0.0
35126,57.0,0,59,13.0,0.0
35127,69.0,15,44,1.0,0.0
35128,57.0,0,59,12.0,0.0
35129,59.0,0,119,11.0,0.0
35130,71.0,0,119,8.0,0.0
35131,69.0,0,119,4.0,0.0
35132,59.0,0,59,13.0,0.0
35133,35.0,0,119,15.0,0.0
35134,47.0,30,89,3.0,0.0
35135,45.0,0,119,7.0,0.0
35136,64.0,0,119,6.0,0.0
35137,79.0,0,119,8.0,0.0
35138,59.0,30,59,14.0,0.0
35139,47.0,0,59,15.0,0.0
35140,47.0,0,119,11.0,0.0
35141,71.0,0,89,0.0,0.0
35142,76.0,0,119,8.0,0.0
35143,71.0,0,119,10.0,0.0
35144,45.0,0,119,4.0,0.0
35145,71.0,0,89,1.0,0.0
35146,57.0,0,119,4.0,0.0
35147,69.0,0,119,5.0,0.0
35148,71.0,0,89,2.0,0.0
35149,59.0,0,89,2.0,0.0
35150,59.0,0,59,12.0,0.0
35151,57.0,60,119,5.0,0.0
35152,59.0,0,59,14.0,0.0
35153,59.0,0,59,12.0,0.0
35154,59.0,0,59,13.0,0.0
35155,47.0,0,59,15.0,0.0
35156,69.0,30,89,0.0,0.0
35157,57.0,0,89,2.0,0.0
35158,69.0,0,89,2.0,0.0
35159,57.0,0,59,14.0,0.0
35160,57.0,0,119,5.0,0.0
35161,33.0,0,119,15.0,0.0
35162,57.0,0,119,11.0,0.0
35163,69.0,0,119,4.0,0.0
35164,69.0,0,119,8.0,0.0
35165,69.0,0,119,5.0,0.0
35166,57.0,30,59,13.0,0.0
35167,45.0,0,119,7.0,0.0
35168,45.0,0,119,11.0,0.0
35169,57.0,0,59,12.0,0.0
35170,69.0,60,119,10.0,0.0
35171,45.0,0,89,3.0,0.0
35172,45.0,0,59,15.0,0.0
35173,45.0,0,119,4.0,0.0
35174,69.0,0,89,1.0,0.0
35175,57.0,0,119,4.0,0.0
35176,57.0,0,59,13.0,0.0
35177,57.0,0,59,12.0,0.0
35178,57.0,0,59,14.0,0.0
35179,45.0,0,59,15.0,0.0
35180,74.0,0,89,2.0,0.0
35181,50.0,0,119,11.0,0.0
35182,62.0,0,89,2.0,0.0
35183,69.0,0,119,5.0,0.0
35184,57.0,0,119,5.0,0.0
35185,74.0,0,89,1.0,0.0
35186,62.0,0,59,14.0,0.0
35187,74.0,30,89,0.0,0.0
35188,45.0,0,119,7.0,0.0
35189,50.0,0,89,3.0,0.0
35190,62.0,30,59,13.0,0.0
35191,50.0,0,59,15.0,0.0
35192,62.0,0,119,11.0,0.0
35193,74.0,0,119,8.0,0.0
35194,45.0,0,119,4.0,0.0
35195,62.0,0,59,12.0,0.0
35196,57.0,0,119,4.0,0.0
35197,69.0,0,119,4.0,0.0
35198,74.0,0,119,10.0,0.0
35199,38.0,60,119,15.0,0.0
35200,62.0,0,59,13.0,0.0
35201,62.0,0,59,14.0,0.0
35202,50.0,0,59,15.0,0.0
35203,62.0,0,59,12.0,0.0
35204,73.0,0,89,2.0,0.0
35205,61.0,0,89,2.0,0.0
35206,69.0,0,119,4.0,0.0
35207,61.0,60,119,11.0,0.0
35208,49.0,0,89,3.0,0.0
35209,73.0,0,89,0.0,0.0
35210,73.0,0,119,10.0,0.0
35211,49.0,0,59,14.0,0.0
35212,61.0,30,59,13.0,0.0
35213,37.0,0,119,15.0,0.0
35214,69.0,0,119,5.0,0.0
35215,73.0,0,119,8.0,0.0
35216,57.0,0,119,5.0,0.0
35217,49.0,0,119,11.0,0.0
35218,73.0,30,89,1.0,0.0
35219,57.0,0,119,4.0,0.0
35220,61.0,0,59,12.0,0.0
35221,45.0,0,119,4.0,0.0
35222,45.0,0,119,7.0,0.0
35223,49.0,0,59,15.0,0.0
35224,49.0,0,59,15.0,0.0
35225,61.0,0,59,13.0,0.0
35226,49.0,0,59,14.0,0.0
35227,61.0,0,59,12.0,0.0
35228,66.0,0,119,10.0,0.0
35229,45.0,0,119,7.0,0.0
35230,78.0,0,119,1.0,0.0
35231,66.0,0,59,12.0,0.0
35232,69.0,0,119,4.0,0.0
35233,45.0,0,119,4.0,0.0
35234,66.0,0,119,11.0,0.0
35235,57.0,0,119,4.0,0.0
35236,78.0,0,119,8.0,0.0
35237,54.0,0,119,3.0,0.0
35238,57.0,0,119,5.0,0.0
35239,66.0,0,59,13.0,0.0
35240,42.0,60,119,15.0,0.0
35241,54.0,60,59,14.0,0.0
35242,66.0,0,119,2.0,0.0
35243,78.0,0,119,2.0,0.0
35244,54.0,0,119,11.0,0.0
35245,78.0,0,119,0.0,0.0
35246,69.0,0,119,5.0,0.0
35247,54.0,0,59,15.0,0.0
35248,66.0,0,59,12.0,0.0
35249,54.0,0,59,15.0,0.0
35250,66.0,0,59,13.0,0.0
35251,54.0,0,59,14.0,0.0
35252,76.0,0,119,8.0,0.0
35253,52.0,0,59,14.0,0.0
35254,69.0,0,119,5.0,0.0
35255,57.0,0,119,5.0,0.0
35256,45.0,0,119,4.0,0.0
35257,45.0,0,119,7.0,0.0
35258,76.0,0,119,1.0,0.0
35259,64.0,0,59,13.0,0.0
35260,64.0,0,119,11.0,0.0
35261,64.0,0,59,12.0,0.0
35262,52.0,0,119,3.0,0.0
35263,76.0,0,119,2.0,0.0
35264,57.0,0,119,4.0,0.0
35265,76.0,0,119,0.0,0.0
35266,64.0,60,119,2.0,0.0
35267,52.0,60,59,15.0,0.0
35268,40.0,0,119,15.0,0.0
35269,69.0,0,119,4.0,0.0
35270,64.0,0,119,10.0,0.0
35271,52.0,0,119,11.0,0.0
35272,64.0,0,59,12.0,0.0
35273,64.0,0,59,13.0,0.0
35274,52.0,0,59,14.0,0.0
35275,52.0,0,59,15.0,0.0
35276,57.0,0,59,14.0,0.0
35277,69.0,0,119,10.0,0.0
35278,69.0,60,59,12.0,0.0
35279,57.0,0,119,5.0,0.0
35280,69.0,0,119,5.0,0.0
35281,45.0,0,119,7.0,0.0
35282,57.0,60,119,11.0,0.0
35283,81.0,0,119,8.0,0.0
35284,69.0,0,59,13.0,0.0
35285,45.0,0,119,15.0,0.0
35286,69.0,0,119,11.0,0.0
35287,45.0,0,119,4.0,0.0
35288,81.0,0,119,1.0,0.0
35289,81.0,0,119,2.0,0.0
35290,69.0,0,119,2.0,0.0
35291,57.0,0,119,3.0,0.0
35292,57.0,0,119,4.0,0.0
35293,69.0,0,119,4.0,0.0
35294,81.0,0,119,0.0,0.0
35295,57.0,0,59,15.0,0.0
35296,69.0,0,59,12.0,0.0
35297,57.0,0,59,14.0,0.0
35298,57.0,0,59,15.0,0.0
35299,69.0,0,59,13.0,0.0
35300,57.0,0,119,5.0,0.0
35301,69.0,0,119,5.0,0.0
35302,45.0,0,119,7.0,0.0
35303,67.0,0,59,12.0,0.0
35304,55.0,0,119,3.0,0.0
35305,79.0,0,119,1.0,0.0
35306,55.0,60,59,14.0,0.0
35307,43.0,0,119,15.0,0.0
35308,55.0,0,59,15.0,0.0
35309,67.0,0,119,11.0,0.0
35310,79.0,60,119,2.0,0.0
35311,67.0,0,119,2.0,0.0
35312,55.0,0,119,11.0,0.0
35313,79.0,0,119,0.0,0.0
35314,67.0,0,119,10.0,0.0
35315,57.0,0,119,4.0,0.0
35316,67.0,0,59,13.0,0.0
35317,69.0,0,119,4.0,0.0
35318,45.0,0,119,4.0,0.0
35319,79.0,0,119,8.0,0.0
35320,67.0,0,59,12.0,0.0
35321,55.0,0,59,15.0,0.0
35322,55.0,0,59,14.0,0.0
35323,67.0,0,59,13.0,0.0
35324,79.0,0,119,8.0,0.0
35325,55.0,0,119,3.0,0.0
35326,69.0,0,119,5.0,0.0
35327,69.0,0,119,4.0,0.0
35328,57.0,60,119,5.0,0.0
35329,67.0,0,119,10.0,0.0
35330,55.0,0,59,15.0,0.0
35331,79.0,0,119,2.0,0.0
35332,43.0,0,119,15.0,0.0
35333,67.0,0,119,2.0,0.0
35334,67.0,60,59,13.0,0.0
35335,55.0,0,119,11.0,0.0
35336,55.0,0,59,14.0,0.0
35337,57.0,0,119,4.0,0.0
35338,67.0,0,59,12.0,0.0
35339,45.0,0,119,7.0,0.0
35340,79.0,0,119,1.0,0.0
35341,67.0,0,119,11.0,0.0
35342,45.0,0,119,4.0,0.0
35343,79.0,0,119,0.0,0.0
35344,67.0,0,59,12.0,0.0
35345,55.0,0,59,14.0,0.0
35346,55.0,0,59,15.0,0.0
35347,67.0,0,59,13.0,0.0
35348,43.0,0,119,15.0,0.0
35349,79.0,0,119,1.0,0.0
35350,45.0,0,119,4.0,0.0
35351,67.0,0,59,12.0,0.0
35352,79.0,0,119,2.0,0.0
35353,69.0,0,119,5.0,0.0
35354,43.0,60,119,3.0,0.0
35355,55.0,0,119,3.0,0.0
35356,57.0,0,119,4.0,0.0
35357,69.0,0,119,4.0,0.0
35358,55.0,60,59,14.0,0.0
35359,67.0,0,119,2.0,0.0
35360,67.0,0,59,13.0,0.0
35361,57.0,0,119,5.0,0.0
35362,45.0,0,119,7.0,0.0
35363,79.0,0,119,0.0,0.0
35364,55.0,0,59,15.0,0.0
35365,67.0,0,59,12.0,0.0
35366,55.0,0,59,14.0,0.0
35367,67.0,0,59,13.0,0.0
35368,55.0,0,59,15.0,0.0
35369,86.0,0,119,0.0,0.0
35370,50.0,0,119,3.0,0.0
35371,69.0,60,119,5.0,0.0
35372,57.0,0,119,5.0,0.0
35373,74.0,0,59,12.0,0.0
35374,62.0,0,59,15.0,0.0
35375,62.0,0,119,3.0,0.0
35376,45.0,0,119,4.0,0.0
35377,62.0,60,59,14.0,0.0
35378,74.0,0,59,13.0,0.0
35379,74.0,0,119,2.0,0.0
35380,45.0,0,119,7.0,0.0
35381,86.0,0,119,1.0,0.0
35382,57.0,0,119,4.0,0.0
35383,69.0,0,119,4.0,0.0
35384,50.0,0,119,15.0,0.0
35385,62.0,0,59,14.0,0.0
35386,74.0,0,59,13.0,0.0
35387,62.0,0,59,15.0,0.0
35388,74.0,0,59,12.0,0.0
35389,85.0,0,119,0.0,0.0
35390,61.0,60,59,15.0,0.0
35391,57.0,0,119,5.0,0.0
35392,61.0,0,59,14.0,0.0
35393,73.0,0,119,2.0,0.0
35394,85.0,0,119,1.0,0.0
35395,69.0,0,119,5.0,0.0
35396,45.0,0,119,7.0,0.0
35397,73.0,0,59,12.0,0.0
35398,73.0,0,59,13.0,0.0
35399,49.0,0,119,3.0,0.0
35400,61.0,0,119,3.0,0.0
35401,69.0,0,119,4.0,0.0
35402,57.0,0,119,4.0,0.0
35403,45.0,0,119,4.0,0.0
35404,49.0,0,119,15.0,0.0
35405,73.0,0,59,12.0,0.0
35406,61.0,0,59,15.0,0.0
35407,61.0,60,59,14.0,0.0
35408,73.0,0,59,13.0,0.0
35409,54.0,0,119,3.0,0.0
35410,78.0,0,59,12.0,0.0
35411,66.0,0,59,15.0,0.0
35412,45.0,0,119,4.0,0.0
35413,45.0,0,119,7.0,0.0
35414,78.0,0,119,1.0,0.0
35415,78.0,60,59,13.0,0.0
35416,57.0,0,119,5.0,0.0
35417,54.0,0,119,15.0,0.0
35418,69.0,0,119,5.0,0.0
35419,57.0,0,119,4.0,0.0
35420,69.0,0,119,4.0,0.0
35421,90.0,0,119,0.0,0.0
35422,66.0,0,59,14.0,0.0
35423,66.0,0,119,3.0,0.0
35424,78.0,0,119,2.0,0.0
35425,66.0,0,59,14.0,0.0
35426,78.0,60,59,13.0,0.0
35427,78.0,0,59,12.0,0.0
35428,66.0,0,59,15.0,0.0
35429,76.0,0,119,1.0,0.0
35430,76.0,0,59,13.0,0.0
35431,45.0,0,119,7.0,0.0
35432,64.0,0,59,15.0,0.0
35433,76.0,0,59,12.0,0.0
35434,64.0,60,59,14.0,0.0
35435,52.0,0,119,3.0,0.0
35436,69.0,0,119,4.0,0.0
35437,64.0,0,119,3.0,0.0
35438,57.0,0,119,4.0,0.0
35439,45.0,0,119,4.0,0.0
35440,52.0,0,119,15.0,0.0
35441,88.0,0,119,0.0,0.0
35442,69.0,60,119,5.0,0.0
35443,76.0,0,119,2.0,0.0
35444,57.0,0,119,5.0,0.0
35445,76.0,0,59,12.0,0.0
35446,76.0,0,59,13.0,0.0
35447,64.0,0,59,14.0,0.0
35448,64.0,0,59,15.0,0.0
35449,81.0,0,119,0.0,0.0
35450,57.0,0,119,3.0,0.0
35451,57.0,0,119,5.0,0.0
35452,81.0,60,59,12.0,0.0
35453,45.0,0,119,4.0,0.0
35454,93.0,0,119,0.0,0.0
35455,81.0,0,119,1.0,0.0
35456,57.0,0,119,4.0,0.0
35457,57.0,0,119,15.0,0.0
35458,69.0,0,59,14.0,0.0
35459,45.0,0,119,7.0,0.0
35460,81.0,0,119,2.0,0.0
35461,81.0,0,59,13.0,0.0
35462,69.0,0,59,15.0,0.0
35463,69.0,0,119,4.0,0.0
35464,69.0,0,119,5.0,0.0
35465,69.0,0,59,14.0,0.0
35466,81.0,60,59,12.0,0.0
35467,81.0,0,59,13.0,0.0
35468,69.0,0,59,15.0,0.0
35469,55.0,0,119,15.0,0.0
35470,55.0,0,119,3.0,0.0
35471,67.0,0,59,14.0,0.0
35472,67.0,0,59,15.0,0.0
35473,79.0,0,119,1.0,0.0
35474,45.0,0,119,7.0,0.0
35475,79.0,60,59,12.0,0.0
35476,79.0,0,59,13.0,0.0
35477,45.0,0,119,4.0,0.0
35478,69.0,0,119,4.0,0.0
35479,69.0,0,119,5.0,0.0
35480,57.0,0,119,5.0,0.0
35481,67.0,0,119,3.0,0.0
35482,79.0,0,119,2.0,0.0
35483,79.0,0,119,0.0,0.0
35484,57.0,0,119,4.0,0.0
35485,91.0,0,119,0.0,0.0
35486,79.0,0,59,12.0,0.0
35487,67.0,60,59,15.0,0.0
35488,67.0,0,59,14.0,0.0
35489,79.0,0,59,13.0,0.0
35490,76.0,0,359,1.0,0.0
35491,57.0,0,59,14.0,0.0
35492,88.0,0,359,0.0,0.0
35493,91.0,0,359,0.0,0.0
35494,79.0,0,59,12.0,0.0
35495,67.0,0,59,14.0,0.0
35496,64.0,0,359,3.0,0.0
35497,61.0,60,359,3.0,0.0
35498,45.0,0,59,7.0,0.0
35499,67.0,0,359,4.0,0.0
35500,55.0,60,59,15.0,0.0
35501,57.0,0,359,4.0,0.0
35502,57.0,0,359,5.0,0.0
35503,79.0,0,359,2.0,0.0
35504,64.0,0,359,4.0,0.0
35505,69.0,0,359,5.0,0.0
35506,73.0,0,359,2.0,0.0
35507,79.0,0,359,1.0,0.0
35508,79.0,0,59,13.0,0.0
35509,67.0,0,59,15.0,0.0
35510,67.0,0,59,14.0,0.0
35511,45.0,0,59,7.0,0.0
35512,57.0,60,59,15.0,0.0
35513,76.0,0,59,12.0,0.0
35514,73.0,0,59,12.0,0.0
35515,57.0,0,59,14.0,0.0
35516,67.0,0,59,13.0,0.0
35517,45.0,0,59,15.0,0.0
35518,67.0,0,59,13.0,0.0
35519,76.0,0,59,12.0,0.0
35520,73.0,60,59,12.0,0.0
35521,45.0,0,59,7.0,0.0
35522,57.0,0,59,15.0,0.0
35523,45.0,0,59,15.0,0.0
35524,67.0,0,59,14.0,0.0
35525,57.0,0,59,14.0,0.0
35526,45.0,0,59,15.0,0.0
35527,45.0,0,59,7.0,0.0
35528,57.0,0,59,14.0,0.0
35529,67.0,0,59,14.0,0.0
35530,76.0,0,59,12.0,0.0
35531,73.0,0,59,12.0,0.0
35532,67.0,60,59,13.0,0.0
35533,57.0,0,59,15.0,0.0
35534,45.0,60,59,7.0,0.0
35535,76.0,0,59,12.0,0.0
35536,73.0,0,59,12.0,0.0
35537,57.0,0,59,15.0,0.0
35538,57.0,0,59,14.0,0.0
35539,45.0,0,59,15.0,0.0
35540,67.0,0,59,13.0,0.0
35541,64.0,0,59,14.0,0.0
35542,57.0,0,59,15.0,0.0
35543,67.0,0,59,13.0,0.0
35544,45.0,0,59,15.0,0.0
35545,76.0,0,59,12.0,0.0
35546,45.0,0,59,7.0,0.0
35547,73.0,0,59,12.0,0.0
35548,64.0,0,59,14.0,0.0
35549,57.0,0,59,14.0,0.0
35550,50.0,0,299,3.0,0.0
35551,86.0,0,299,0.0,0.0
35552,90.0,60,299,0.0,0.0
35553,62.0,0,299,3.0,0.0
35554,50.0,60,59,15.0,0.0
35555,66.0,0,299,10.0,0.0
35556,62.0,0,299,11.0,0.0
35557,62.0,0,59,15.0,0.0
35558,78.0,0,299,2.0,0.0
35559,74.0,0,59,13.0,0.0
35560,74.0,0,299,1.0,0.0
35561,78.0,0,299,1.0,0.0
35562,66.0,0,59,14.0,0.0
35563,50.0,0,59,7.0,0.0
35564,62.0,0,59,5.0,0.0
35565,74.0,0,59,5.0,0.0
35566,66.0,0,299,11.0,0.0
35567,78.0,0,299,8.0,0.0
35568,74.0,0,299,2.0,0.0
35569,66.0,0,299,4.0,0.0
35570,62.0,0,299,4.0,0.0
35571,78.0,0,59,12.0,0.0
35572,66.0,0,59,12.0,0.0
35573,50.0,0,59,7.0,0.0
35574,62.0,60,59,5.0,0.0
35575,66.0,0,59,13.0,0.0
35576,50.0,0,59,15.0,0.0
35577,54.0,0,59,14.0,0.0
35578,74.0,0,59,5.0,0.0
35579,38.0,0,59,15.0,0.0
35580,66.0,0,59,14.0,0.0
35581,62.0,0,119,5.0,0.0
35582,50.0,0,119,7.0,0.0
35583,62.0,0,59,15.0,0.0
35584,50.0,60,59,15.0,0.0
35585,78.0,0,59,12.0,0.0
35586,74.0,0,119,5.0,0.0
35587,78.0,0,59,13.0,0.0
35588,66.0,0,59,12.0,0.0
35589,66.0,0,59,13.0,0.0
35590,54.0,60,59,14.0,0.0
35591,50.0,0,59,15.0,0.0
35592,38.0,0,59,15.0,0.0
35593,42.0,0,59,15.0,0.0
35594,74.0,0,119,5.0,0.0
35595,62.0,0,119,5.0,0.0
35596,50.0,0,119,7.0,0.0
35597,54.0,0,59,15.0,0.0
35598,69.0,0,59,12.0,0.0
35599,57.0,0,59,14.0,0.0
35600,69.0,0,59,13.0,0.0
35601,62.0,0,59,14.0,0.0
35602,74.0,0,59,12.0,0.0
35603,50.0,0,59,3.0,0.0
35604,62.0,0,59,3.0,0.0
35605,78.0,0,59,1.0,0.0
35606,66.0,0,59,11.0,0.0
35607,90.0,0,59,0.0,0.0
35608,86.0,60,59,0.0,0.0
35609,66.0,0,59,1.0,0.0
35610,66.0,0,59,10.0,0.0
35611,66.0,0,59,4.0,0.0
35612,74.0,0,59,13.0,0.0
35613,66.0,0,59,2.0,0.0
35614,45.0,0,59,15.0,0.0
35615,78.0,0,59,2.0,0.0
35616,62.0,0,59,4.0,0.0
35617,62.0,0,59,11.0,0.0
35618,78.0,0,59,8.0,0.0
35619,57.0,0,59,15.0,0.0
35620,78.0,0,119,2.0,0.0
35621,50.0,0,59,15.0,0.0
35622,90.0,0,119,0.0,0.0
35623,62.0,0,119,5.0,0.0
35624,74.0,0,119,5.0,0.0
35625,78.0,0,59,13.0,0.0
35626,66.0,0,119,11.0,0.0
35627,78.0,0,119,0.0,0.0
35628,62.0,0,119,3.0,0.0
35629,66.0,0,119,2.0,0.0
35630,50.0,0,119,3.0,0.0
35631,50.0,0,119,7.0,0.0
35632,78.0,0,119,8.0,0.0
35633,62.0,0,119,11.0,0.0
35634,78.0,0,119,1.0,0.0
35635,66.0,0,119,10.0,0.0
35636,78.0,60,59,12.0,0.0
35637,66.0,0,119,4.0,0.0
35638,66.0,0,59,14.0,0.0
35639,66.0,0,119,1.0,0.0
35640,62.0,0,119,4.0,0.0
35641,62.0,0,59,15.0,0.0
35642,76.0,0,59,13.0,0.0
35643,49.0,0,59,15.0,0.0
35644,61.0,0,59,15.0,0.0
35645,64.0,0,59,14.0,0.0
35646,76.0,0,59,12.0,0.0
35647,74.0,0,119,2.0,0.0
35648,59.0,0,119,3.0,0.0
35649,47.0,0,119,3.0,0.0
35650,62.0,0,119,2.0,0.0
35651,62.0,0,104,10.0,0.0
35652,47.0,0,59,15.0,0.0
35653,62.0,0,59,14.0,0.0
35654,50.0,0,119,4.0,0.0
35655,62.0,0,119,4.0,0.0
35656,74.0,0,119,0.0,0.0
35657,74.0,0,59,12.0,0.0
35658,62.0,15,104,11.0,0.0
35659,74.0,0,59,5.0,0.0
35660,62.0,0,59,5.0,0.0
35661,86.0,0,119,0.0,0.0
35662,74.0,0,104,8.0,0.0
35663,59.0,0,104,11.0,0.0
35664,62.0,0,119,1.0,0.0
35665,74.0,0,119,1.0,0.0
35666,59.0,45,59,15.0,0.0
35667,74.0,0,59,13.0,0.0
35668,50.0,0,59,7.0,0.0
35669,47.0,0,59,15.0,0.0
35670,62.0,0,59,13.0,0.0
35671,50.0,0,59,14.0,0.0
35672,74.0,60,59,5.0,0.0
35673,50.0,0,59,7.0,0.0
35674,62.0,0,59,12.0,0.0
35675,62.0,0,59,5.0,0.0
35676,35.0,0,59,15.0,0.0
35677,62.0,0,179,11.0,0.0
35678,74.0,0,119,5.0,0.0
35679,74.0,0,59,12.0,0.0
35680,62.0,0,119,5.0,0.0
35681,86.0,0,179,0.0,0.0
35682,74.0,0,179,0.0,0.0
35683,74.0,0,59,13.0,0.0
35684,74.0,0,179,10.0,0.0
35685,59.0,0,59,15.0,0.0
35686,74.0,0,179,8.0,0.0
35687,59.0,0,179,3.0,0.0
35688,50.0,0,119,7.0,0.0
35689,74.0,0,179,1.0,0.0
35690,47.0,0,59,15.0,0.0
35691,47.0,0,179,3.0,0.0
35692,62.0,0,179,1.0,0.0
35693,62.0,0,179,2.0,0.0
35694,62.0,0,179,4.0,0.0
35695,50.0,0,179,4.0,0.0
35696,59.0,0,179,11.0,0.0
35697,74.0,0,179,2.0,0.0
35698,62.0,60,59,14.0,0.0
35699,50.0,0,59,14.0,0.0
35700,62.0,0,59,12.0,0.0
35701,62.0,0,59,13.0,0.0
35702,35.0,0,59,15.0,0.0
35703,47.0,60,59,15.0,0.0
35704,50.0,0,119,7.0,0.0
35705,66.0,0,59,13.0,0.0
35706,54.0,0,59,14.0,0.0
35707,38.0,0,59,15.0,0.0
35708,62.0,0,119,5.0,0.0
35709,74.0,0,119,5.0,0.0
35710,66.0,0,59,12.0,0.0
35711,50.0,60,59,15.0,0.0
35712,74.0,0,59,0.0,0.0
35713,54.0,0,59,15.0,0.0
35714,59.0,0,59,11.0,0.0
35715,74.0,0,59,8.0,0.0
35716,71.0,0,59,12.0,0.0
35717,71.0,0,59,13.0,0.0
35718,47.0,0,59,3.0,0.0
35719,62.0,0,59,11.0,0.0
35720,86.0,0,59,0.0,0.0
35721,59.0,0,59,14.0,0.0
35722,42.0,0,59,15.0,0.0
35723,59.0,0,59,3.0,0.0
35724,62.0,60,59,1.0,0.0
35725,74.0,0,59,1.0,0.0
35726,62.0,0,59,2.0,0.0
35727,74.0,0,59,2.0,0.0
35728,50.0,0,59,4.0,0.0
35729,74.0,0,59,10.0,0.0
35730,62.0,0,59,4.0,0.0
35731,59.0,0,119,11.0,0.0
35732,62.0,0,119,1.0,0.0
35733,74.0,0,119,1.0,0.0
35734,62.0,0,119,5.0,0.0
35735,74.0,0,119,5.0,0.0
35736,74.0,0,119,8.0,0.0
35737,59.0,0,119,3.0,0.0
35738,59.0,0,59,15.0,0.0
35739,50.0,0,119,7.0,0.0
35740,74.0,0,119,10.0,0.0
35741,47.0,0,119,3.0,0.0
35742,47.0,0,59,15.0,0.0
35743,50.0,0,119,4.0,0.0
35744,62.0,0,119,4.0,0.0
35745,74.0,0,59,13.0,0.0
35746,74.0,0,59,12.0,0.0
35747,74.0,0,119,2.0,0.0
35748,86.0,0,119,0.0,0.0
35749,62.0,0,119,2.0,0.0
35750,74.0,0,119,0.0,0.0
35751,62.0,60,59,14.0,0.0
35752,62.0,0,119,11.0,0.0
35753,61.0,0,59,14.0,0.0
35754,57.0,0,59,15.0,0.0
35755,45.0,0,59,15.0,0.0
35756,73.0,0,59,13.0,0.0
35757,73.0,0,59,12.0,0.0
35758,50.0,0,59,7.0,0.0
35759,55.0,0,104,11.0,0.0
35760,71.0,0,104,8.0,0.0
35761,71.0,0,59,13.0,0.0
35762,71.0,0,119,1.0,0.0
35763,43.0,0,119,3.0,0.0
35764,55.0,0,119,3.0,0.0
35765,71.0,15,104,10.0,0.0
35766,59.0,0,59,14.0,0.0
35767,71.0,0,59,12.0,0.0
35768,43.0,0,59,15.0,0.0
35769,83.0,0,119,0.0,0.0
35770,59.0,0,104,11.0,0.0
35771,74.0,0,59,5.0,0.0
35772,55.0,45,59,15.0,0.0
35773,71.0,0,119,0.0,0.0
35774,62.0,0,59,5.0,0.0
35775,50.0,0,119,4.0,0.0
35776,71.0,60,119,2.0,0.0
35777,59.0,0,119,2.0,0.0
35778,62.0,0,119,4.0,0.0
35779,59.0,0,59,13.0,0.0
35780,43.0,0,59,15.0,0.0
35781,59.0,0,59,12.0,0.0
35782,31.0,0,59,15.0,0.0
35783,59.0,0,59,14.0,0.0
35784,62.0,0,59,5.0,0.0
35785,74.0,0,59,5.0,0.0
35786,50.0,0,59,7.0,0.0
35787,55.0,0,179,11.0,0.0
35788,71.0,0,179,2.0,0.0
35789,59.0,0,179,2.0,0.0
35790,50.0,60,119,7.0,0.0
35791,71.0,0,179,0.0,0.0
35792,71.0,0,179,8.0,0.0
35793,59.0,0,179,11.0,0.0
35794,83.0,0,179,1.0,0.0
35795,71.0,0,179,1.0,0.0
35796,71.0,0,59,14.0,0.0
35797,55.0,0,59,15.0,0.0
35798,55.0,0,179,3.0,0.0
35799,83.0,0,179,0.0,0.0
35800,67.0,60,59,15.0,0.0
35801,67.0,0,179,3.0,0.0
35802,71.0,0,179,10.0,0.0
35803,83.0,0,59,12.0,0.0
35804,62.0,0,119,5.0,0.0
35805,83.0,0,59,13.0,0.0
35806,67.0,0,179,4.0,0.0
35807,74.0,0,119,5.0,0.0
35808,55.0,0,59,15.0,0.0
35809,71.0,0,59,12.0,0.0
35810,59.0,0,59,14.0,0.0
35811,71.0,0,59,13.0,0.0
35812,43.0,0,59,15.0,0.0
35813,50.0,0,119,7.0,0.0
35814,62.0,0,119,5.0,0.0
35815,74.0,0,119,5.0,0.0
35816,62.0,0,59,14.0,0.0
35817,47.0,0,59,15.0,0.0
35818,74.0,0,59,12.0,0.0
35819,74.0,60,59,13.0,0.0
35820,59.0,0,59,15.0,0.0
35821,71.0,60,59,2.0,0.0
35822,59.0,0,59,2.0,0.0
35823,71.0,0,59,10.0,0.0
35824,71.0,0,59,0.0,0.0
35825,83.0,0,59,0.0,0.0
35826,79.0,0,59,13.0,0.0
35827,62.0,0,59,15.0,0.0
35828,83.0,0,59,1.0,0.0
35829,71.0,0,59,1.0,0.0
35830,59.0,0,59,11.0,0.0
35831,67.0,0,59,14.0,0.0
35832,67.0,0,59,4.0,0.0
35833,50.0,0,59,15.0,0.0
35834,71.0,0,59,8.0,0.0
35835,55.0,0,59,11.0,0.0
35836,79.0,0,59,12.0,0.0
35837,55.0,0,59,3.0,0.0
35838,67.0,0,59,3.0,0.0
35839,71.0,0,119,10.0,0.0
35840,83.0,0,59,12.0,0.0
35841,55.0,0,119,3.0,0.0
35842,71.0,0,119,1.0,0.0
35843,83.0,0,119,1.0,0.0
35844,59.0,0,119,2.0,0.0
35845,71.0,0,119,2.0,0.0
35846,59.0,0,119,11.0,0.0
35847,71.0,0,119,8.0,0.0
35848,67.0,60,119,3.0,0.0
35849,67.0,0,59,15.0,0.0
35850,83.0,0,119,0.0,0.0
35851,55.0,60,59,15.0,0.0
35852,83.0,0,59,13.0,0.0
35853,71.0,0,59,14.0,0.0
35854,67.0,0,119,4.0,0.0
35855,50.0,0,119,7.0,0.0
35856,55.0,0,119,11.0,0.0
35857,71.0,0,119,0.0,0.0
35858,62.0,0,119,5.0,0.0
35859,74.0,0,119,5.0,0.0
35860,81.0,0,59,13.0,0.0
35861,54.0,0,59,15.0,0.0
35862,69.0,0,59,14.0,0.0
35863,66.0,0,59,15.0,0.0
35864,81.0,0,59,12.0,0.0
35865,55.0,0,104,11.0,0.0
35866,79.0,0,119,0.0,0.0
35867,79.0,0,59,13.0,0.0
35868,67.0,0,119,0.0,0.0
35869,64.0,0,119,3.0,0.0
35870,79.0,0,119,1.0,0.0
35871,67.0,0,104,10.0,0.0
35872,67.0,0,119,4.0,0.0
35873,64.0,45,59,15.0,0.0
35874,52.0,0,104,11.0,0.0
35875,64.0,0,119,4.0,0.0
35876,55.0,0,119,2.0,0.0
35877,52.0,0,59,15.0,0.0
35878,67.0,0,119,2.0,0.0
35879,79.0,0,59,12.0,0.0
35880,52.0,0,119,3.0,0.0
35881,67.0,15,104,8.0,0.0
35882,67.0,0,119,1.0,0.0
35883,67.0,0,59,14.0,0.0
35884,67.0,0,59,12.0,0.0
35885,67.0,0,59,13.0,0.0
35886,40.0,0,59,15.0,0.0
35887,55.0,0,59,14.0,0.0
35888,52.0,0,59,15.0,0.0
35889,79.0,60,59,13.0,0.0
35890,79.0,0,179,8.0,0.0
35891,52.0,0,59,15.0,0.0
35892,67.0,0,179,2.0,0.0
35893,64.0,0,179,11.0,0.0
35894,79.0,0,59,12.0,0.0
35895,67.0,0,179,1.0,0.0
35896,79.0,0,179,1.0,0.0
35897,64.0,0,59,15.0,0.0
35898,67.0,0,59,14.0,0.0
35899,64.0,0,179,3.0,0.0
35900,52.0,0,179,3.0,0.0
35901,67.0,0,179,4.0,0.0
35902,91.0,0,179,0.0,0.0
35903,64.0,0,179,4.0,0.0
35904,79.0,0,179,2.0,0.0
35905,76.0,0,179,10.0,0.0
35906,79.0,0,179,0.0,0.0
35907,67.0,0,59,13.0,0.0
35908,52.0,0,59,15.0,0.0
35909,67.0,0,59,12.0,0.0
35910,40.0,0,59,15.0,0.0
35911,55.0,60,59,14.0,0.0
35912,43.0,0,59,15.0,0.0
35913,71.0,0,59,12.0,0.0
35914,59.0,0,59,14.0,0.0
35915,71.0,0,59,13.0,0.0
35916,55.0,0,59,15.0,0.0
35917,52.0,0,59,3.0,0.0
35918,64.0,0,59,3.0,0.0
35919,91.0,0,59,0.0,0.0
35920,76.0,0,59,12.0,0.0
35921,67.0,0,59,2.0,0.0
35922,79.0,0,59,8.0,0.0
35923,47.0,0,59,15.0,0.0
35924,59.0,0,59,15.0,0.0
35925,79.0,0,59,1.0,0.0
35926,67.0,0,59,1.0,0.0
35927,76.0,0,59,2.0,0.0
35928,64.0,0,59,11.0,0.0
35929,79.0,0,59,0.0,0.0
35930,64.0,0,59,14.0,0.0
35931,76.0,0,59,10.0,0.0
35932,76.0,0,59,13.0,0.0
35933,67.0,0,59,4.0,0.0
35934,64.0,0,59,4.0,0.0
35935,76.0,0,89,1.0,0.0
35936,79.0,0,89,1.0,0.0
35937,45.0,0,119,15.0,0.0
35938,76.0,0,89,2.0,0.0
35939,88.0,0,89,0.0,0.0
35940,91.0,0,89,0.0,0.0
35941,64.0,30,89,4.0,0.0
35942,64.0,0,119,11.0,0.0
35943,67.0,0,89,2.0,0.0
35944,57.0,0,89,3.0,0.0
35945,45.0,0,89,3.0,0.0
35946,67.0,0,89,4.0,0.0
35947,64.0,0,119,13.0,0.0
35948,76.0,0,119,10.0,0.0
35949,67.0,0,119,14.0,0.0
35950,73.0,0,119,13.0,0.0
35951,57.0,0,119,11.0,0.0
35952,57.0,0,119,15.0,0.0
35953,79.0,0,119,12.0,0.0
35954,79.0,90,119,8.0,0.0
35955,79.0,0,119,8.0,0.0
35956,64.0,90,119,11.0,0.0
35957,67.0,0,89,4.0,0.0
35958,64.0,0,89,4.0,0.0
35959,76.0,0,89,1.0,0.0
35960,79.0,0,89,1.0,0.0
35961,76.0,0,119,10.0,0.0
35962,76.0,0,89,2.0,0.0
35963,67.0,0,89,2.0,0.0
35964,57.0,0,89,3.0,0.0
35965,57.0,0,119,11.0,0.0
35966,45.0,0,89,3.0,0.0
35967,88.0,0,89,0.0,0.0
35968,91.0,30,89,0.0,0.0
35969,57.0,30,89,3.0,0.0
35970,67.0,0,89,4.0,0.0
35971,57.0,0,119,11.0,0.0
35972,76.0,60,119,10.0,0.0
35973,76.0,0,89,1.0,0.0
35974,79.0,0,89,1.0,0.0
35975,79.0,0,119,8.0,0.0
35976,76.0,0,89,2.0,0.0
35977,45.0,0,89,3.0,0.0
35978,64.0,0,89,4.0,0.0
35979,88.0,0,89,0.0,0.0
35980,64.0,0,119,11.0,0.0
35981,91.0,0,89,0.0,0.0
35982,67.0,0,89,2.0,0.0
35983,76.0,0,119,13.0,0.0
35984,88.0,30,119,12.0,0.0
35985,79.0,0,119,8.0,0.0
35986,76.0,0,89,1.0,0.0
35987,67.0,0,89,2.0,0.0
35988,76.0,0,89,2.0,0.0
35989,79.0,0,89,1.0,0.0
35990,91.0,0,89,0.0,0.0
35991,88.0,0,89,0.0,0.0
35992,64.0,30,89,4.0,0.0
35993,76.0,0,119,10.0,0.0
35994,57.0,0,89,3.0,0.0
35995,45.0,0,89,3.0,0.0
35996,64.0,60,119,11.0,0.0
35997,67.0,0,89,4.0,0.0
35998,57.0,0,119,11.0,0.0
35999,73.0,0,29,13.0,0.0
36000,85.0,0,29,12.0,0.0
36001,67.0,0,29,13.0,0.0
36002,79.0,0,29,12.0,0.0
36003,67.0,0,59,4.0,0.0
36004,64.0,0,59,4.0,0.0
36005,59.0,0,119,15.0,0.0
36006,79.0,0,59,8.0,0.0
36007,59.0,0,119,14.0,0.0
36008,59.0,0,119,11.0,0.0
36009,47.0,0,119,15.0,0.0
36010,76.0,0,59,1.0,0.0
36011,79.0,0,59,1.0,0.0
36012,64.0,0,59,11.0,0.0
36013,59.0,0,119,3.0,0.0
36014,88.0,0,59,0.0,0.0
36015,91.0,0,59,0.0,0.0
36016,76.0,0,59,10.0,0.0
36017,76.0,0,59,2.0,0.0
36018,67.0,60,59,2.0,0.0
36019,47.0,0,119,3.0,0.0
36020,66.0,0,59,2.0,0.0
36021,86.0,0,59,0.0,0.0
36022,90.0,0,59,0.0,0.0
36023,74.0,0,59,1.0,0.0
36024,74.0,0,59,10.0,0.0
36025,74.0,0,59,2.0,0.0
36026,78.0,0,59,1.0,0.0
36027,66.0,0,59,4.0,0.0
36028,62.0,0,59,4.0,0.0
36029,62.0,0,59,11.0,0.0
36030,78.0,105,59,8.0,0.0
36031,74.0,0,119,1.0,0.0
36032,78.0,0,119,1.0,0.0
36033,62.0,15,104,11.0,0.0
36034,47.0,0,119,3.0,0.0
36035,74.0,0,119,2.0,0.0
36036,66.0,0,119,4.0,0.0
36037,62.0,0,119,4.0,0.0
36038,78.0,0,104,8.0,0.0
36039,90.0,0,119,0.0,0.0
36040,59.0,0,104,11.0,0.0
36041,86.0,0,119,0.0,0.0
36042,74.0,0,104,10.0,0.0
36043,59.0,120,119,3.0,0.0
36044,66.0,0,119,2.0,0.0
36045,78.0,0,119,1.0,0.0
36046,78.0,0,119,8.0,0.0
36047,59.0,0,119,11.0,0.0
36048,74.0,0,119,10.0,0.0
36049,47.0,0,119,3.0,0.0
36050,59.0,0,119,3.0,0.0
36051,50.0,30,119,4.0,0.0
36052,86.0,0,119,0.0,0.0
36053,62.0,0,119,11.0,0.0
36054,74.0,0,119,1.0,0.0
36055,90.0,0,119,0.0,0.0
36056,66.0,0,119,4.0,0.0
36057,74.0,0,119,2.0,0.0
36058,62.0,0,119,2.0,0.0
36059,74.0,0,89,13.0,0.0
36060,86.0,30,89,12.0,0.0
36061,59.0,0,119,3.0,0.0
36062,47.0,0,119,3.0,0.0
36063,59.0,0,119,11.0,0.0
36064,78.0,0,119,8.0,0.0
36065,66.0,0,119,4.0,0.0
36066,50.0,0,119,4.0,0.0
36067,62.0,0,119,2.0,0.0
36068,74.0,0,119,2.0,0.0
36069,66.0,0,119,10.0,0.0
36070,74.0,120,119,1.0,0.0
36071,78.0,0,119,1.0,0.0
36072,86.0,0,119,0.0,0.0
36073,90.0,0,119,0.0,0.0
36074,62.0,0,119,11.0,0.0
36075,85.0,0,29,12.0,0.0
36076,73.0,30,29,13.0,0.0
36077,86.0,0,29,12.0,0.0
36078,74.0,30,29,13.0,0.0
36079,78.0,0,29,12.0,0.0
36080,66.0,0,29,13.0,0.0
36081,43.0,0,119,15.0,0.0
36082,55.0,0,359,11.0,0.0
36083,76.0,15,194,8.0,0.0
36084,55.0,0,119,15.0,0.0
36085,43.0,0,119,3.0,0.0
36086,55.0,0,119,3.0,0.0
36087,64.0,0,119,4.0,0.0
36088,71.0,0,119,2.0,0.0
36089,64.0,0,119,13.0,0.0
36090,59.0,75,119,2.0,0.0
36091,76.0,0,119,12.0,0.0
36092,71.0,0,299,10.0,0.0
36093,88.0,0,119,0.0,0.0
36094,83.0,0,119,0.0,0.0
36095,71.0,0,119,1.0,0.0
36096,76.0,0,119,1.0,0.0
36097,59.0,0,119,14.0,0.0
36098,59.0,60,359,11.0,0.0
36099,76.0,0,119,1.0,0.0
36100,71.0,60,119,1.0,0.0
36101,64.0,0,119,4.0,0.0
36102,55.0,0,119,3.0,0.0
36103,43.0,0,119,3.0,0.0
36104,71.0,0,119,2.0,0.0
36105,88.0,0,119,0.0,0.0
36106,83.0,0,119,0.0,0.0
36107,59.0,0,119,2.0,0.0
36108,78.0,15,14,8.0,0.0
36109,76.0,15,14,8.0,0.0
36110,75.0,0,14,8.0,0.0
36111,76.0,60,59,8.0,0.0
36112,78.0,0,59,8.0,0.0
36113,69.0,0,59,10.0,0.0
36114,55.0,0,119,3.0,0.0
36115,43.0,0,119,3.0,0.0
36116,59.0,0,119,11.0,0.0
36117,88.0,0,119,0.0,0.0
36118,64.0,0,119,4.0,0.0
36119,79.0,60,59,8.0,0.0
36120,55.0,60,119,11.0,0.0
36121,71.0,0,59,10.0,0.0
36122,71.0,0,119,1.0,0.0
36123,59.0,0,119,2.0,0.0
36124,71.0,0,119,2.0,0.0
36125,76.0,0,119,1.0,0.0
36126,83.0,0,119,0.0,0.0
36127,76.0,0,59,8.0,0.0
36128,67.0,0,59,10.0,0.0
36129,76.0,60,59,8.0,0.0
36130,76.0,0,59,12.0,0.0
36131,57.0,0,119,15.0,0.0
36132,57.0,0,119,14.0,0.0
36133,45.0,0,119,15.0,0.0
36134,67.0,0,59,10.0,0.0
36135,67.0,0,59,13.0,0.0
36136,57.0,0,119,11.0,0.0
36137,66.0,0,59,10.0,0.0
36138,74.0,0,59,12.0,0.0
36139,74.0,0,59,8.0,0.0
36140,66.0,60,59,13.0,0.0
36141,74.0,0,119,12.0,0.0
36142,74.0,0,119,1.0,0.0
36143,50.0,0,119,4.0,0.0
36144,66.0,0,119,4.0,0.0
36145,66.0,0,119,2.0,0.0
36146,66.0,0,119,13.0,0.0
36147,86.0,120,119,0.0,0.0
36148,74.0,0,119,2.0,0.0
36149,78.0,0,119,0.0,0.0
36150,62.0,0,119,4.0,0.0
36151,66.0,0,119,1.0,0.0
36152,66.0,0,119,10.0,0.0
36153,57.0,0,119,3.0,0.0
36154,45.0,0,119,3.0,0.0
36155,57.0,60,59,11.0,0.0
36156,74.0,0,119,8.0,0.0
36157,62.0,0,59,11.0,0.0
36158,74.0,0,119,8.0,0.0
36159,62.0,120,119,11.0,0.0
36160,57.0,0,479,11.0,0.0
36161,66.0,0,119,10.0,0.0
36162,73.0,0,119,2.0,0.0
36163,85.0,90,119,0.0,0.0
36164,64.0,0,119,2.0,0.0
36165,45.0,0,119,3.0,0.0
36166,57.0,0,119,3.0,0.0
36167,57.0,0,119,4.0,0.0
36168,45.0,0,119,4.0,0.0
36169,76.0,90,359,8.0,0.0
36170,64.0,0,359,10.0,0.0
36171,76.0,0,119,1.0,0.0
36172,73.0,0,119,1.0,0.0
36173,64.0,0,119,4.0,0.0
36174,61.0,0,359,11.0,0.0
36175,88.0,0,119,0.0,0.0
36176,45.0,0,1919,4.0,0.0
36177,45.0,0,239,15.0,0.0
36178,55.0,0,89,3.0,0.0
36179,57.0,0,239,15.0,0.0
36180,69.0,120,959,2.0,0.0
36181,57.0,0,959,2.0,0.0
36182,57.0,0,89,4.0,0.0
36183,88.0,0,89,0.0,0.0
36184,85.0,120,89,0.0,0.0
36185,64.0,0,89,4.0,0.0
36186,76.0,0,89,1.0,0.0
36187,73.0,0,89,1.0,0.0
36188,88.0,30,89,0.0,0.0
36189,57.0,0,89,4.0,0.0
36190,64.0,0,89,3.0,0.0
36191,76.0,0,89,1.0,0.0
36192,85.0,0,89,0.0,0.0
36193,64.0,0,89,4.0,0.0
36194,73.0,0,89,1.0,0.0
36195,86.0,0,119,0.0,0.0
36196,54.0,0,119,4.0,0.0
36197,54.0,30,89,3.0,0.0
36198,74.0,60,119,1.0,0.0
36199,62.0,0,119,4.0,0.0
36200,57.0,0,59,4.0,0.0
36201,64.0,30,59,4.0,0.0
36202,73.0,0,59,1.0,0.0
36203,88.0,0,59,0.0,0.0
36204,85.0,0,59,0.0,0.0
36205,62.0,30,89,3.0,0.0
36206,76.0,0,59,1.0,0.0
36207,86.0,0,59,0.0,0.0
36208,90.0,0,59,0.0,0.0
36209,74.0,0,59,1.0,0.0
36210,78.0,90,59,1.0,0.0
36211,62.0,0,59,4.0,0.0
36212,66.0,0,59,4.0,0.0
36213,64.0,30,89,4.0,0.0
36214,67.0,0,89,4.0,0.0
36215,52.0,0,89,3.0,0.0
36216,79.0,0,119,1.0,0.0
36217,85.0,0,89,0.0,0.0
36218,73.0,90,119,1.0,0.0
36219,91.0,0,89,0.0,0.0
36220,88.0,0,89,0.0,0.0
36221,61.0,0,89,3.0,0.0
36222,91.0,0,89,0.0,0.0
36223,64.0,0,89,4.0,0.0
36224,79.0,0,89,1.0,0.0
36225,67.0,0,89,4.0,0.0
36226,76.0,120,89,1.0,0.0
36227,66.0,0,89,4.0,0.0
36228,62.0,0,89,4.0,0.0
36229,90.0,0,89,0.0,0.0
36230,81.0,0,89,0.0,0.0
36231,69.0,0,89,1.0,0.0
36232,50.0,0,89,3.0,0.0
36233,78.0,120,89,1.0,0.0
36234,78.0,0,89,1.0,0.0
36235,74.0,0,89,1.0,0.0
36236,90.0,0,89,0.0,0.0
36237,62.0,0,89,3.0,0.0
36238,62.0,30,89,4.0,0.0
36239,86.0,0,89,0.0,0.0
36240,66.0,0,89,4.0,0.0
36241,57.0,0,239,2.0,0.0
36242,69.0,0,239,2.0,0.0
36243,45.0,0,119,3.0,0.0
36244,57.0,120,119,3.0,0.0
36245,90.0,0,119,0.0,0.0
36246,81.0,0,119,0.0,0.0
36247,78.0,0,119,1.0,0.0
36248,62.0,0,119,4.0,0.0
36249,66.0,0,119,4.0,0.0
36250,69.0,0,119,1.0,0.0
36251,67.0,120,119,1.0,0.0
36252,61.0,0,119,3.0,0.0
36253,57.0,0,119,4.0,0.0
36254,64.0,0,119,4.0,0.0
36255,88.0,0,119,0.0,0.0
36256,79.0,0,119,0.0,0.0
36257,76.0,0,119,1.0,0.0
36258,49.0,0,119,3.0,0.0
36259,54.0,0,119,4.0,0.0
36260,62.0,0,119,4.0,0.0
36261,69.0,0,479,2.0,0.0
36262,57.0,0,479,2.0,0.0
36263,86.0,0,119,0.0,0.0
36264,50.0,0,119,3.0,0.0
36265,78.0,120,119,0.0,0.0
36266,66.0,0,119,1.0,0.0
36267,74.0,0,119,1.0,0.0
36268,62.0,0,119,3.0,0.0
36269,62.0,0,119,4.0,0.0
36270,54.0,120,119,3.0,0.0
36271,66.0,0,119,3.0,0.0
36272,69.0,0,119,4.0,0.0
36273,86.0,0,119,0.0,0.0
36274,74.0,0,119,1.0,0.0
36275,93.0,0,119,0.0,0.0
36276,81.0,0,119,1.0,0.0
36277,81.0,0,119,1.0,0.0
36278,93.0,0,119,0.0,0.0
36279,78.0,0,119,1.0,0.0
36280,66.0,0,119,4.0,0.0
36281,90.0,0,119,0.0,0.0
36282,69.0,0,119,3.0,0.0
36283,57.0,120,119,3.0,0.0
36284,69.0,0,119,4.0,0.0
36285,64.0,120,119,4.0,0.0
36286,88.0,0,119,0.0,0.0
36287,91.0,0,119,0.0,0.0
36288,67.0,0,119,4.0,0.0
36289,49.0,0,119,3.0,0.0
36290,76.0,0,119,1.0,0.0
36291,61.0,0,119,3.0,0.0
36292,79.0,0,119,1.0,0.0
36293,50.0,0,119,3.0,0.0
36294,62.0,0,119,3.0,0.0
36295,67.0,0,119,4.0,0.0
36296,64.0,0,119,4.0,0.0
36297,69.0,0,239,2.0,0.0
36298,57.0,0,239,2.0,0.0
36299,88.0,0,119,0.0,0.0
36300,76.0,0,119,1.0,0.0
36301,91.0,0,119,0.0,0.0
36302,79.0,120,119,1.0,0.0
36303,78.0,0,119,1.0,0.0
36304,74.0,0,119,1.0,0.0
36305,62.0,0,119,4.0,0.0
36306,66.0,0,119,4.0,0.0
36307,90.0,0,119,0.0,0.0
36308,86.0,90,119,0.0,0.0
36309,54.0,0,119,3.0,0.0
36310,66.0,0,119,3.0,0.0
36311,55.0,30,89,3.0,0.0
36312,76.0,0,119,12.0,0.0
36313,57.0,0,119,11.0,0.0
36314,69.0,0,119,1.0,0.0
36315,73.0,0,119,12.0,0.0
36316,81.0,0,119,0.0,0.0
36317,69.0,0,119,0.0,0.0
36318,67.0,0,119,10.0,0.0
36319,57.0,0,119,4.0,0.0
36320,45.0,0,119,4.0,0.0
36321,76.0,0,119,8.0,0.0
36322,64.0,90,119,4.0,0.0
36323,67.0,0,119,13.0,0.0
36324,54.0,0,119,2.0,0.0
36325,61.0,0,119,11.0,0.0
36326,61.0,0,119,11.0,0.0
36327,57.0,0,119,11.0,0.0
36328,61.0,0,119,2.0,0.0
36329,85.0,0,119,0.0,0.0
36330,73.0,0,119,0.0,0.0
36331,64.0,0,119,4.0,0.0
36332,64.0,30,89,3.0,0.0
36333,67.0,0,119,10.0,0.0
36334,73.0,0,119,1.0,0.0
36335,57.0,0,119,4.0,0.0
36336,69.0,0,119,4.0,0.0
36337,76.0,0,119,8.0,0.0
36338,74.0,0,119,8.0,0.0
36339,66.0,0,119,10.0,0.0
36340,57.0,0,119,11.0,0.0
36341,54.0,30,89,3.0,0.0
36342,66.0,0,119,13.0,0.0
36343,74.0,0,119,1.0,0.0
36344,74.0,0,119,12.0,0.0
36345,74.0,0,119,0.0,0.0
36346,54.0,0,119,4.0,0.0
36347,62.0,0,119,4.0,0.0
36348,62.0,0,119,2.0,0.0
36349,86.0,0,119,0.0,0.0
36350,57.0,0,119,4.0,0.0
36351,45.0,0,119,4.0,0.0
36352,62.0,60,119,11.0,0.0
36353,78.0,0,119,0.0,0.0
36354,64.0,0,59,4.0,0.0
36355,78.0,0,119,1.0,0.0
36356,62.0,15,89,3.0,0.0
36357,66.0,90,119,2.0,0.0
36358,57.0,0,104,11.0,0.0
36359,62.0,0,104,11.0,0.0
36360,66.0,15,104,10.0,0.0
36361,57.0,30,59,4.0,0.0
36362,74.0,0,104,8.0,0.0
36363,90.0,0,119,0.0,0.0
36364,69.0,0,119,4.0,0.0
36365,62.0,0,59,4.0,0.0
36366,66.0,0,59,4.0,0.0
36367,57.0,0,119,11.0,0.0
36368,57.0,0,119,4.0,0.0
36369,73.0,0,119,10.0,0.0
36370,79.0,0,119,8.0,0.0
36371,64.0,90,119,11.0,0.0
36372,52.0,30,89,3.0,0.0
36373,45.0,0,119,4.0,0.0
36374,81.0,0,119,1.0,0.0
36375,79.0,0,119,12.0,0.0
36376,73.0,0,119,13.0,0.0
36377,69.0,0,119,2.0,0.0
36378,93.0,0,119,0.0,0.0
36379,67.0,0,119,4.0,0.0
36380,81.0,0,119,0.0,0.0
36381,64.0,0,119,4.0,0.0
36382,67.0,0,119,4.0,0.0
36383,64.0,0,119,11.0,0.0
36384,64.0,0,119,4.0,0.0
36385,67.0,30,89,3.0,0.0
36386,57.0,0,119,4.0,0.0
36387,69.0,0,119,4.0,0.0
36388,73.0,90,119,1.0,0.0
36389,79.0,0,119,8.0,0.0
36390,85.0,0,119,0.0,0.0
36391,73.0,0,119,10.0,0.0
36392,73.0,0,119,0.0,0.0
36393,61.0,0,119,2.0,0.0
36394,57.0,0,119,11.0,0.0
36395,74.0,0,119,10.0,0.0
36396,57.0,0,119,4.0,0.0
36397,78.0,0,119,8.0,0.0
36398,62.0,0,119,2.0,0.0
36399,57.0,0,119,11.0,0.0
36400,74.0,0,119,13.0,0.0
36401,62.0,0,119,1.0,0.0
36402,62.0,0,119,11.0,0.0
36403,74.0,0,119,1.0,0.0
36404,50.0,30,89,3.0,0.0
36405,62.0,0,119,4.0,0.0
36406,78.0,90,119,12.0,0.0
36407,66.0,0,119,4.0,0.0
36408,74.0,0,119,0.0,0.0
36409,86.0,0,119,0.0,0.0
36410,45.0,0,119,4.0,0.0
36411,90.0,0,119,0.0,0.0
36412,78.0,0,119,0.0,0.0
36413,78.0,0,119,8.0,0.0
36414,78.0,0,119,1.0,0.0
36415,62.0,0,119,11.0,0.0
36416,57.0,120,119,11.0,0.0
36417,66.0,30,89,3.0,0.0
36418,74.0,0,119,10.0,0.0
36419,62.0,0,119,4.0,0.0
36420,66.0,0,119,2.0,0.0
36421,69.0,0,119,4.0,0.0
36422,57.0,0,119,4.0,0.0
36423,66.0,0,119,4.0,0.0
36424,66.0,0,119,1.0,0.0
36425,57.0,0,119,13.0,0.0
36426,78.0,0,119,8.0,0.0
36427,78.0,0,119,1.0,0.0
36428,66.0,0,119,4.0,0.0
36429,57.0,0,119,12.0,0.0
36430,62.0,0,119,4.0,0.0
36431,69.0,0,119,1.0,0.0
36432,57.0,0,119,3.0,0.0
36433,69.0,0,119,10.0,0.0
36434,81.0,0,119,0.0,0.0
36435,90.0,120,119,0.0,0.0
36436,66.0,0,119,2.0,0.0
36437,57.0,0,119,2.0,0.0
36438,57.0,0,239,11.0,0.0
36439,45.0,0,239,4.0,0.0
36440,64.0,0,119,2.0,0.0
36441,55.0,120,119,2.0,0.0
36442,76.0,0,119,8.0,0.0
36443,55.0,0,119,3.0,0.0
36444,67.0,0,119,10.0,0.0
36445,57.0,0,119,4.0,0.0
36446,61.0,0,119,13.0,0.0
36447,61.0,0,119,12.0,0.0
36448,79.0,0,119,0.0,0.0
36449,88.0,0,119,0.0,0.0
36450,67.0,0,119,1.0,0.0
36451,64.0,0,119,4.0,0.0
36452,76.0,0,119,1.0,0.0
36453,62.0,120,119,13.0,0.0
36454,54.0,0,119,3.0,0.0
36455,54.0,0,119,4.0,0.0
36456,45.0,0,239,4.0,0.0
36457,50.0,0,119,3.0,0.0
36458,78.0,0,119,0.0,0.0
36459,62.0,0,119,2.0,0.0
36460,54.0,0,119,2.0,0.0
36461,86.0,0,119,0.0,0.0
36462,74.0,0,119,8.0,0.0
36463,62.0,0,119,12.0,0.0
36464,57.0,0,239,11.0,0.0
36465,74.0,0,119,1.0,0.0
36466,62.0,0,119,4.0,0.0
36467,66.0,0,119,1.0,0.0
36468,66.0,0,239,10.0,0.0
36469,81.0,0,119,0.0,0.0
36470,66.0,0,119,12.0,0.0
36471,57.0,0,119,3.0,0.0
36472,54.0,0,119,3.0,0.0
36473,66.0,0,119,13.0,0.0
36474,81.0,0,119,1.0,0.0
36475,81.0,0,119,8.0,0.0
36476,93.0,0,119,0.0,0.0
36477,57.0,0,119,4.0,0.0
36478,69.0,0,119,4.0,0.0
36479,57.0,0,119,2.0,0.0
36480,69.0,0,119,2.0,0.0
36481,69.0,0,119,1.0,0.0
36482,93.0,0,119,0.0,0.0
36483,57.0,0,239,4.0,0.0
36484,81.0,0,119,8.0,0.0
36485,90.0,0,119,0.0,0.0
36486,54.0,0,119,3.0,0.0
36487,69.0,0,119,13.0,0.0
36488,66.0,0,119,11.0,0.0
36489,69.0,0,239,10.0,0.0
36490,57.0,0,119,3.0,0.0
36491,78.0,0,119,1.0,0.0
36492,45.0,0,239,4.0,0.0
36493,57.0,0,239,11.0,0.0
36494,69.0,0,119,4.0,0.0
36495,69.0,0,119,2.0,0.0
36496,66.0,120,119,2.0,0.0
36497,66.0,0,119,4.0,0.0
36498,81.0,0,119,1.0,0.0
36499,69.0,0,119,12.0,0.0
36500,91.0,0,119,0.0,0.0
36501,61.0,0,119,13.0,0.0
36502,79.0,0,119,8.0,0.0
36503,61.0,0,119,12.0,0.0
36504,79.0,120,119,1.0,0.0
36505,76.0,0,119,1.0,0.0
36506,64.0,0,119,2.0,0.0
36507,67.0,0,119,2.0,0.0
36508,67.0,0,119,4.0,0.0
36509,64.0,0,119,4.0,0.0
36510,64.0,0,119,11.0,0.0
36511,88.0,0,119,0.0,0.0
36512,55.0,0,119,3.0,0.0
36513,52.0,0,119,3.0,0.0
36514,67.0,0,119,2.0,0.0
36515,57.0,0,224,11.0,0.0
36516,62.0,0,119,12.0,0.0
36517,79.0,0,119,8.0,0.0
36518,57.0,0,239,4.0,0.0
36519,45.0,60,239,4.0,0.0
36520,91.0,0,119,0.0,0.0
36521,88.0,0,119,0.0,0.0
36522,62.0,0,119,13.0,0.0
36523,64.0,0,119,2.0,0.0
36524,52.0,105,119,3.0,0.0
36525,79.0,0,119,1.0,0.0
36526,55.0,0,119,3.0,0.0
36527,64.0,0,119,11.0,0.0
36528,76.0,0,119,1.0,0.0
36529,67.0,0,119,4.0,0.0
36530,64.0,0,119,4.0,0.0
36531,69.0,0,224,10.0,0.0
36532,62.0,15,104,11.0,0.0
36533,78.0,0,119,1.0,0.0
36534,90.0,0,119,0.0,0.0
36535,54.0,0,119,3.0,0.0
36536,62.0,0,119,4.0,0.0
36537,66.0,0,119,4.0,0.0
36538,74.0,0,119,1.0,0.0
36539,78.0,0,104,8.0,0.0
36540,62.0,0,119,2.0,0.0
36541,66.0,0,119,2.0,0.0
36542,66.0,0,119,13.0,0.0
36543,66.0,0,119,12.0,0.0
36544,50.0,0,119,3.0,0.0
36545,86.0,0,119,0.0,0.0
36546,57.0,0,89,5.0,0.0
36547,69.0,0,119,8.0,0.0
36548,52.0,0,119,3.0,0.0
36549,69.0,0,119,10.0,0.0
36550,45.0,0,89,4.0,0.0
36551,64.0,0,89,4.0,0.0
36552,49.0,0,119,3.0,0.0
36553,57.0,0,89,4.0,0.0
36554,69.0,30,89,5.0,0.0
36555,88.0,0,119,0.0,0.0
36556,69.0,0,59,13.0,0.0
36557,73.0,0,119,1.0,0.0
36558,76.0,0,119,1.0,0.0
36559,57.0,0,119,11.0,0.0
36560,61.0,0,119,2.0,0.0
36561,45.0,0,89,7.0,0.0
36562,69.0,30,59,12.0,0.0
36563,64.0,0,119,2.0,0.0
36564,85.0,0,119,0.0,0.0
36565,69.0,0,59,13.0,0.0
36566,69.0,60,59,12.0,0.0
36567,69.0,0,89,1.0,0.0
36568,57.0,0,89,2.0,0.0
36569,69.0,0,119,10.0,0.0
36570,69.0,0,119,8.0,0.0
36571,45.0,0,89,3.0,0.0
36572,69.0,0,89,0.0,0.0
36573,57.0,0,119,11.0,0.0
36574,57.0,30,59,12.0,0.0
36575,57.0,0,59,13.0,0.0
36576,69.0,0,89,4.0,0.0
36577,45.0,30,89,4.0,0.0
36578,57.0,0,89,5.0,0.0
36579,69.0,0,89,5.0,0.0
36580,45.0,0,89,7.0,0.0
36581,57.0,0,89,4.0,0.0
36582,45.0,60,119,11.0,0.0
36583,57.0,0,59,13.0,0.0
36584,57.0,0,59,12.0,0.0
36585,59.0,0,59,13.0,0.0
36586,71.0,0,119,8.0,0.0
36587,71.0,0,89,1.0,0.0
36588,45.0,0,89,7.0,0.0
36589,71.0,60,119,10.0,0.0
36590,59.0,30,59,12.0,0.0
36591,71.0,0,89,0.0,0.0
36592,69.0,30,89,4.0,0.0
36593,59.0,0,119,11.0,0.0
36594,59.0,0,89,2.0,0.0
36595,47.0,0,89,3.0,0.0
36596,69.0,0,89,5.0,0.0
36597,57.0,0,89,4.0,0.0
36598,45.0,0,89,4.0,0.0
36599,57.0,0,89,5.0,0.0
36600,47.0,0,119,11.0,0.0
36601,59.0,0,59,12.0,0.0
36602,59.0,0,59,13.0,0.0
36603,69.0,0,89,4.0,0.0
36604,47.0,0,119,11.0,0.0
36605,57.0,0,119,11.0,0.0
36606,69.0,0,89,1.0,0.0
36607,45.0,30,89,4.0,0.0
36608,57.0,0,89,4.0,0.0
36609,69.0,0,89,5.0,0.0
36610,57.0,30,59,13.0,0.0
36611,69.0,0,89,0.0,0.0
36612,57.0,0,59,12.0,0.0
36613,57.0,0,89,5.0,0.0
36614,69.0,0,119,10.0,0.0
36615,69.0,0,119,8.0,0.0
36616,45.0,0,89,3.0,0.0
36617,45.0,0,89,7.0,0.0
36618,57.0,0,89,2.0,0.0
36619,57.0,60,59,13.0,0.0
36620,57.0,0,59,12.0,0.0
36621,57.0,0,119,5.0,0.0
36622,50.0,0,119,3.0,0.0
36623,74.0,0,119,0.0,0.0
36624,62.0,0,119,11.0,0.0
36625,74.0,0,119,8.0,0.0
36626,62.0,0,59,12.0,0.0
36627,69.0,0,119,5.0,0.0
36628,45.0,30,89,7.0,0.0
36629,62.0,30,59,13.0,0.0
36630,62.0,60,119,10.0,0.0
36631,74.0,0,119,1.0,0.0
36632,62.0,0,119,2.0,0.0
36633,57.0,0,119,4.0,0.0
36634,45.0,0,119,4.0,0.0
36635,69.0,0,119,4.0,0.0
36636,50.0,0,119,11.0,0.0
36637,62.0,0,59,13.0,0.0
36638,62.0,0,59,12.0,0.0
36639,45.0,0,119,4.0,0.0
36640,73.0,0,119,1.0,0.0
36641,61.0,30,59,12.0,0.0
36642,61.0,0,119,2.0,0.0
36643,57.0,0,119,4.0,0.0
36644,73.0,0,119,8.0,0.0
36645,69.0,0,119,4.0,0.0
36646,49.0,60,119,3.0,0.0
36647,61.0,0,59,13.0,0.0
36648,45.0,30,89,7.0,0.0
36649,73.0,0,119,0.0,0.0
36650,61.0,0,119,11.0,0.0
36651,61.0,0,119,10.0,0.0
36652,49.0,0,119,11.0,0.0
36653,69.0,0,119,5.0,0.0
36654,57.0,0,119,5.0,0.0
36655,61.0,0,59,13.0,0.0
36656,61.0,0,59,12.0,0.0
36657,78.0,0,119,0.0,0.0
36658,69.0,0,119,5.0,0.0
36659,45.0,0,119,4.0,0.0
36660,45.0,30,89,7.0,0.0
36661,57.0,0,119,5.0,0.0
36662,54.0,0,119,11.0,0.0
36663,66.0,0,119,11.0,0.0
36664,69.0,0,119,4.0,0.0
36665,66.0,30,59,12.0,0.0
36666,57.0,0,119,4.0,0.0
36667,66.0,0,59,13.0,0.0
36668,78.0,0,119,8.0,0.0
36669,78.0,0,119,1.0,0.0
36670,54.0,0,119,3.0,0.0
36671,66.0,60,119,2.0,0.0
36672,66.0,0,119,10.0,0.0
36673,66.0,0,59,13.0,0.0
36674,66.0,0,59,12.0,0.0
36675,64.0,0,119,2.0,0.0
36676,69.0,0,119,4.0,0.0
36677,76.0,0,119,1.0,0.0
36678,64.0,0,119,11.0,0.0
36679,52.0,0,119,11.0,0.0
36680,64.0,0,119,10.0,0.0
36681,64.0,0,59,12.0,0.0
36682,45.0,30,89,7.0,0.0
36683,64.0,30,59,13.0,0.0
36684,52.0,0,119,3.0,0.0
36685,57.0,0,119,4.0,0.0
36686,45.0,0,119,4.0,0.0
36687,69.0,0,119,5.0,0.0
36688,57.0,0,119,5.0,0.0
36689,76.0,0,119,8.0,0.0
36690,76.0,60,119,0.0,0.0
36691,64.0,0,59,12.0,0.0
36692,64.0,0,59,13.0,0.0
36693,57.0,0,119,5.0,0.0
36694,69.0,0,119,2.0,0.0
36695,57.0,0,119,11.0,0.0
36696,69.0,60,119,11.0,0.0
36697,69.0,0,119,4.0,0.0
36698,45.0,0,119,4.0,0.0
36699,57.0,0,119,4.0,0.0
36700,69.0,0,119,5.0,0.0
36701,45.0,0,119,3.0,0.0
36702,69.0,30,59,13.0,0.0
36703,69.0,0,59,12.0,0.0
36704,81.0,0,119,1.0,0.0
36705,57.0,0,119,3.0,0.0
36706,69.0,0,119,10.0,0.0
36707,81.0,0,119,0.0,0.0
36708,81.0,0,119,8.0,0.0
36709,45.0,30,89,7.0,0.0
36710,69.0,0,59,12.0,0.0
36711,69.0,0,59,13.0,0.0
36712,45.0,60,119,4.0,0.0
36713,79.0,0,119,1.0,0.0
36714,67.0,30,59,13.0,0.0
36715,69.0,0,119,4.0,0.0
36716,55.0,0,119,3.0,0.0
36717,43.0,0,119,3.0,0.0
36718,67.0,0,59,12.0,0.0
36719,79.0,0,119,0.0,0.0
36720,57.0,0,119,5.0,0.0
36721,67.0,0,119,2.0,0.0
36722,79.0,0,119,8.0,0.0
36723,45.0,30,89,7.0,0.0
36724,67.0,0,119,11.0,0.0
36725,55.0,0,119,11.0,0.0
36726,69.0,0,119,5.0,0.0
36727,67.0,0,119,10.0,0.0
36728,57.0,0,119,4.0,0.0
36729,67.0,0,59,12.0,0.0
36730,67.0,0,59,13.0,0.0
36731,79.0,0,119,1.0,0.0
36732,69.0,0,119,4.0,0.0
36733,69.0,0,119,5.0,0.0
36734,57.0,0,119,5.0,0.0
36735,67.0,0,59,12.0,0.0
36736,67.0,0,119,10.0,0.0
36737,55.0,0,119,3.0,0.0
36738,67.0,0,119,2.0,0.0
36739,43.0,0,119,3.0,0.0
36740,79.0,0,119,8.0,0.0
36741,57.0,0,119,4.0,0.0
36742,79.0,0,119,0.0,0.0
36743,55.0,60,119,11.0,0.0
36744,67.0,30,59,13.0,0.0
36745,45.0,30,89,7.0,0.0
36746,67.0,0,119,11.0,0.0
36747,45.0,0,119,4.0,0.0
36748,67.0,0,59,13.0,0.0
36749,67.0,0,59,12.0,0.0
36750,79.0,0,119,0.0,0.0
36751,45.0,30,89,7.0,0.0
36752,67.0,0,119,2.0,0.0
36753,79.0,60,119,1.0,0.0
36754,57.0,0,119,5.0,0.0
36755,55.0,0,119,3.0,0.0
36756,43.0,0,119,3.0,0.0
36757,69.0,0,119,5.0,0.0
36758,67.0,0,59,12.0,0.0
36759,67.0,30,59,13.0,0.0
36760,69.0,0,119,4.0,0.0
36761,57.0,0,119,4.0,0.0
36762,45.0,0,119,4.0,0.0
36763,67.0,0,59,12.0,0.0
36764,67.0,0,59,13.0,0.0
36765,86.0,0,119,0.0,0.0
36766,74.0,0,119,2.0,0.0
36767,69.0,0,119,4.0,0.0
36768,57.0,0,119,4.0,0.0
36769,45.0,0,119,4.0,0.0
36770,57.0,0,119,5.0,0.0
36771,74.0,0,59,12.0,0.0
36772,86.0,0,119,1.0,0.0
36773,69.0,0,119,5.0,0.0
36774,62.0,0,119,3.0,0.0
36775,50.0,0,119,3.0,0.0
36776,74.0,30,59,13.0,0.0
36777,45.0,30,89,7.0,0.0
36778,74.0,60,59,13.0,0.0
36779,74.0,0,59,12.0,0.0
36780,73.0,0,59,13.0,0.0
36781,69.0,0,119,5.0,0.0
36782,57.0,0,119,5.0,0.0
36783,45.0,0,119,4.0,0.0
36784,73.0,30,59,12.0,0.0
36785,49.0,0,119,3.0,0.0
36786,61.0,0,119,3.0,0.0
36787,57.0,0,119,4.0,0.0
36788,69.0,0,119,4.0,0.0
36789,85.0,0,119,1.0,0.0
36790,45.0,30,89,7.0,0.0
36791,73.0,0,119,2.0,0.0
36792,85.0,0,119,0.0,0.0
36793,73.0,0,59,12.0,0.0
36794,73.0,0,59,13.0,0.0
36795,90.0,0,119,0.0,0.0
36796,69.0,0,119,4.0,0.0
36797,45.0,30,89,7.0,0.0
36798,54.0,0,119,3.0,0.0
36799,78.0,0,59,12.0,0.0
36800,66.0,0,119,3.0,0.0
36801,57.0,0,119,4.0,0.0
36802,78.0,0,119,1.0,0.0
36803,78.0,30,59,13.0,0.0
36804,78.0,0,119,2.0,0.0
36805,69.0,0,119,5.0,0.0
36806,57.0,60,119,5.0,0.0
36807,45.0,0,119,4.0,0.0
36808,78.0,0,59,12.0,0.0
36809,78.0,0,59,13.0,0.0
36810,45.0,0,119,4.0,0.0
36811,52.0,0,119,3.0,0.0
36812,64.0,0,119,3.0,0.0
36813,76.0,0,59,12.0,0.0
36814,76.0,0,119,2.0,0.0
36815,76.0,0,119,1.0,0.0
36816,88.0,0,119,0.0,0.0
36817,69.0,0,119,4.0,0.0
36818,69.0,0,119,5.0,0.0
36819,45.0,30,89,7.0,0.0
36820,57.0,0,119,5.0,0.0
36821,76.0,30,59,13.0,0.0
36822,57.0,0,119,4.0,0.0
36823,76.0,0,59,12.0,0.0
36824,76.0,0,59,13.0,0.0
36825,81.0,0,119,1.0,0.0
36826,57.0,0,119,3.0,0.0
36827,81.0,60,59,12.0,0.0
36828,81.0,0,119,2.0,0.0
36829,69.0,0,119,4.0,0.0
36830,45.0,0,119,7.0,0.0
36831,69.0,0,119,5.0,0.0
36832,57.0,0,119,5.0,0.0
36833,45.0,0,119,4.0,0.0
36834,57.0,0,119,4.0,0.0
36835,81.0,0,59,13.0,0.0
36836,93.0,0,119,0.0,0.0
36837,81.0,0,59,13.0,0.0
36838,81.0,60,59,12.0,0.0
36839,79.0,0,119,1.0,0.0
36840,45.0,60,119,4.0,0.0
36841,79.0,60,59,13.0,0.0
36842,79.0,0,119,2.0,0.0
36843,45.0,0,119,7.0,0.0
36844,91.0,0,119,0.0,0.0
36845,69.0,0,119,4.0,0.0
36846,57.0,0,119,4.0,0.0
36847,55.0,0,119,3.0,0.0
36848,67.0,0,119,3.0,0.0
36849,79.0,0,59,12.0,0.0
36850,57.0,0,119,5.0,0.0
36851,69.0,0,119,5.0,0.0
36852,79.0,0,59,12.0,0.0
36853,79.0,0,59,13.0,0.0
36854,79.0,0,59,13.0,0.0
36855,45.0,0,59,7.0,0.0
36856,64.0,0,359,3.0,0.0
36857,91.0,0,359,0.0,0.0
36858,61.0,0,359,3.0,0.0
36859,88.0,0,359,0.0,0.0
36860,69.0,0,119,5.0,0.0
36861,79.0,0,359,2.0,0.0
36862,79.0,60,59,12.0,0.0
36863,67.0,0,359,4.0,0.0
36864,79.0,0,359,1.0,0.0
36865,57.0,60,359,4.0,0.0
36866,64.0,0,359,4.0,0.0
36867,76.0,0,359,1.0,0.0
36868,57.0,0,119,5.0,0.0
36869,73.0,0,359,2.0,0.0
36870,76.0,60,59,12.0,0.0
36871,73.0,0,59,13.0,0.0
36872,45.0,0,59,7.0,0.0
36873,76.0,0,59,12.0,0.0
36874,45.0,60,59,7.0,0.0
36875,69.0,0,119,5.0,0.0
36876,73.0,0,59,13.0,0.0
36877,57.0,0,119,5.0,0.0
36878,76.0,0,59,12.0,0.0
36879,45.0,60,59,7.0,0.0
36880,73.0,0,59,13.0,0.0
36881,69.0,0,119,5.0,0.0
36882,45.0,0,59,7.0,0.0
36883,76.0,60,59,12.0,0.0
36884,57.0,0,119,5.0,0.0
36885,73.0,0,59,13.0,0.0
36886,73.0,0,59,13.0,0.0
36887,76.0,0,59,12.0,0.0
36888,45.0,0,59,7.0,0.0
36889,90.0,0,299,0.0,0.0
36890,62.0,0,299,3.0,0.0
36891,78.0,0,299,2.0,0.0
36892,66.0,0,299,2.0,0.0
36893,62.0,60,299,11.0,0.0
36894,78.0,0,299,1.0,0.0
36895,66.0,0,299,1.0,0.0
36896,62.0,0,299,4.0,0.0
36897,50.0,0,299,3.0,0.0
36898,78.0,0,299,0.0,0.0
36899,50.0,60,59,7.0,0.0
36900,66.0,0,299,4.0,0.0
36901,66.0,0,299,11.0,0.0
36902,66.0,0,299,10.0,0.0
36903,69.0,0,119,5.0,0.0
36904,74.0,0,59,13.0,0.0
36905,57.0,0,119,5.0,0.0
36906,78.0,0,299,8.0,0.0
36907,78.0,0,59,12.0,0.0
36908,66.0,60,59,13.0,0.0
36909,50.0,0,59,7.0,0.0
36910,66.0,0,59,12.0,0.0
36911,50.0,60,119,7.0,0.0
36912,57.0,0,359,5.0,0.0
36913,69.0,0,359,5.0,0.0
36914,78.0,0,59,13.0,0.0
36915,78.0,60,59,12.0,0.0
36916,66.0,0,59,13.0,0.0
36917,66.0,0,59,12.0,0.0
36918,69.0,0,59,12.0,0.0
36919,50.0,0,119,7.0,0.0
36920,69.0,0,59,13.0,0.0
36921,50.0,60,59,3.0,0.0
36922,62.0,0,59,3.0,0.0
36923,66.0,0,59,11.0,0.0
36924,78.0,0,59,1.0,0.0
36925,62.0,0,59,4.0,0.0
36926,66.0,0,59,4.0,0.0
36927,62.0,0,59,11.0,0.0
36928,66.0,0,59,1.0,0.0
36929,74.0,0,59,12.0,0.0
36930,78.0,0,59,0.0,0.0
36931,74.0,0,59,13.0,0.0
36932,78.0,0,59,8.0,0.0
36933,66.0,0,59,2.0,0.0
36934,66.0,0,59,10.0,0.0
36935,78.0,0,59,2.0,0.0
36936,90.0,0,59,0.0,0.0
36937,50.0,0,119,7.0,0.0
36938,78.0,0,119,8.0,0.0
36939,76.0,0,119,2.0,0.0
36940,62.0,0,119,3.0,0.0
36941,66.0,0,119,2.0,0.0
36942,50.0,0,119,3.0,0.0
36943,78.0,0,59,13.0,0.0
36944,78.0,0,119,0.0,0.0
36945,78.0,60,59,12.0,0.0
36946,62.0,60,119,11.0,0.0
36947,66.0,0,119,10.0,0.0
36948,66.0,0,119,11.0,0.0
36949,90.0,0,119,0.0,0.0
36950,66.0,0,119,1.0,0.0
36951,78.0,0,119,1.0,0.0
36952,66.0,0,119,4.0,0.0
36953,62.0,0,119,4.0,0.0
36954,76.0,0,59,13.0,0.0
36955,76.0,0,59,12.0,0.0
36956,62.0,0,119,1.0,0.0
36957,62.0,15,104,10.0,0.0
36958,74.0,0,104,8.0,0.0
36959,74.0,60,119,1.0,0.0
36960,62.0,0,104,11.0,0.0
36961,74.0,0,59,13.0,0.0
36962,74.0,45,59,5.0,0.0
36963,62.0,0,59,5.0,0.0
36964,50.0,0,119,4.0,0.0
36965,74.0,0,119,2.0,0.0
36966,59.0,0,104,11.0,0.0
36967,74.0,0,59,12.0,0.0
36968,62.0,0,119,4.0,0.0
36969,50.0,0,59,7.0,0.0
36970,47.0,0,119,3.0,0.0
36971,62.0,0,119,2.0,0.0
36972,74.0,0,119,0.0,0.0
36973,59.0,0,119,3.0,0.0
36974,86.0,0,119,0.0,0.0
36975,74.0,0,59,5.0,0.0
36976,62.0,0,59,5.0,0.0
36977,62.0,0,59,12.0,0.0
36978,50.0,0,59,7.0,0.0
36979,62.0,0,59,13.0,0.0
36980,74.0,0,179,2.0,0.0
36981,62.0,0,179,2.0,0.0
36982,74.0,0,179,8.0,0.0
36983,74.0,0,179,10.0,0.0
36984,74.0,0,119,5.0,0.0
36985,74.0,60,59,12.0,0.0
36986,62.0,0,119,5.0,0.0
36987,86.0,0,179,0.0,0.0
36988,74.0,0,179,0.0,0.0
36989,59.0,0,179,11.0,0.0
36990,62.0,0,179,11.0,0.0
36991,50.0,0,179,4.0,0.0
36992,62.0,0,179,4.0,0.0
36993,59.0,0,179,3.0,0.0
36994,47.0,60,179,3.0,0.0
36995,50.0,0,119,7.0,0.0
36996,74.0,0,179,1.0,0.0
36997,86.0,0,179,1.0,0.0
36998,74.0,0,59,13.0,0.0
36999,62.0,60,59,13.0,0.0
37000,62.0,0,59,12.0,0.0
37001,50.0,0,119,7.0,0.0
37002,62.0,0,119,5.0,0.0
37003,74.0,0,119,5.0,0.0
37004,66.0,0,59,12.0,0.0
37005,66.0,0,59,13.0,0.0
37006,74.0,0,59,8.0,0.0
37007,59.0,0,59,3.0,0.0
37008,74.0,0,59,10.0,0.0
37009,74.0,60,59,1.0,0.0
37010,71.0,0,59,12.0,0.0
37011,86.0,0,59,0.0,0.0
37012,86.0,0,59,1.0,0.0
37013,62.0,0,59,4.0,0.0
37014,74.0,0,59,0.0,0.0
37015,59.0,0,59,11.0,0.0
37016,50.0,0,59,4.0,0.0
37017,62.0,0,59,11.0,0.0
37018,47.0,0,59,3.0,0.0
37019,74.0,0,59,2.0,0.0
37020,62.0,0,59,2.0,0.0
37021,71.0,0,59,13.0,0.0
37022,74.0,0,119,5.0,0.0
37023,86.0,0,119,1.0,0.0
37024,74.0,0,119,1.0,0.0
37025,62.0,0,119,2.0,0.0
37026,74.0,60,59,13.0,0.0
37027,74.0,0,119,0.0,0.0
37028,86.0,0,119,0.0,0.0
37029,59.0,0,119,11.0,0.0
37030,74.0,0,119,2.0,0.0
37031,74.0,60,119,8.0,0.0
37032,50.0,0,119,7.0,0.0
37033,62.0,0,119,5.0,0.0
37034,59.0,0,119,3.0,0.0
37035,62.0,0,119,11.0,0.0
37036,74.0,0,59,12.0,0.0
37037,47.0,0,119,3.0,0.0
37038,74.0,0,119,10.0,0.0
37039,62.0,0,119,4.0,0.0
37040,50.0,0,119,4.0,0.0
37041,73.0,0,59,12.0,0.0
37042,73.0,0,59,13.0,0.0
37043,50.0,0,59,7.0,0.0
37044,71.0,0,119,1.0,0.0
37045,71.0,0,59,13.0,0.0
37046,83.0,0,119,1.0,0.0
37047,55.0,0,104,11.0,0.0
37048,74.0,0,59,5.0,0.0
37049,71.0,0,104,10.0,0.0
37050,43.0,60,119,3.0,0.0
37051,55.0,0,119,3.0,0.0
37052,62.0,45,59,5.0,0.0
37053,83.0,0,119,0.0,0.0
37054,71.0,0,59,12.0,0.0
37055,71.0,0,104,8.0,0.0
37056,71.0,0,119,0.0,0.0
37057,59.0,0,119,2.0,0.0
37058,71.0,0,119,2.0,0.0
37059,59.0,15,104,11.0,0.0
37060,62.0,0,119,4.0,0.0
37061,50.0,0,119,4.0,0.0
37062,74.0,0,59,5.0,0.0
37063,50.0,0,59,7.0,0.0
37064,59.0,0,59,13.0,0.0
37065,59.0,0,59,12.0,0.0
37066,62.0,0,59,5.0,0.0
37067,59.0,0,179,11.0,0.0
37068,71.0,0,179,1.0,0.0
37069,83.0,60,59,13.0,0.0
37070,59.0,0,179,2.0,0.0
37071,71.0,0,179,2.0,0.0
37072,83.0,0,179,0.0,0.0
37073,74.0,0,119,5.0,0.0
37074,71.0,0,179,10.0,0.0
37075,62.0,0,119,5.0,0.0
37076,67.0,0,179,4.0,0.0
37077,83.0,0,59,12.0,0.0
37078,71.0,0,179,0.0,0.0
37079,50.0,0,119,7.0,0.0
37080,55.0,0,179,3.0,0.0
37081,43.0,0,179,3.0,0.0
37082,83.0,0,179,1.0,0.0
37083,71.0,0,179,8.0,0.0
37084,55.0,0,179,11.0,0.0
37085,71.0,60,59,12.0,0.0
37086,71.0,0,59,13.0,0.0
37087,50.0,0,119,7.0,0.0
37088,74.0,60,59,13.0,0.0
37089,74.0,0,119,5.0,0.0
37090,62.0,0,119,5.0,0.0
37091,74.0,0,59,12.0,0.0
37092,71.0,0,59,0.0,0.0
37093,83.0,0,59,0.0,0.0
37094,43.0,0,59,3.0,0.0
37095,71.0,0,59,1.0,0.0
37096,79.0,0,59,12.0,0.0
37097,71.0,0,59,8.0,0.0
37098,79.0,0,59,13.0,0.0
37099,55.0,0,59,11.0,0.0
37100,71.0,0,59,10.0,0.0
37101,83.0,0,59,1.0,0.0
37102,71.0,0,59,2.0,0.0
37103,55.0,0,59,3.0,0.0
37104,67.0,0,59,4.0,0.0
37105,59.0,60,59,11.0,0.0
37106,59.0,0,59,2.0,0.0
37107,83.0,0,119,1.0,0.0
37108,71.0,60,119,1.0,0.0
37109,43.0,0,119,3.0,0.0
37110,55.0,0,119,3.0,0.0
37111,71.0,0,119,0.0,0.0
37112,71.0,0,119,10.0,0.0
37113,83.0,0,59,12.0,0.0
37114,55.0,0,119,11.0,0.0
37115,83.0,60,59,13.0,0.0
37116,62.0,0,119,5.0,0.0
37117,67.0,0,119,4.0,0.0
37118,74.0,0,119,5.0,0.0
37119,50.0,0,119,7.0,0.0
37120,71.0,0,119,8.0,0.0
37121,71.0,0,119,2.0,0.0
37122,59.0,0,119,2.0,0.0
37123,83.0,0,119,0.0,0.0
37124,59.0,0,119,11.0,0.0
37125,81.0,0,59,12.0,0.0
37126,81.0,0,59,13.0,0.0
37127,55.0,0,119,11.0,0.0
37128,79.0,60,59,13.0,0.0
37129,67.0,0,119,10.0,0.0
37130,52.0,0,119,11.0,0.0
37131,74.0,0,59,5.0,0.0
37132,62.0,0,59,5.0,0.0
37133,79.0,0,119,0.0,0.0
37134,67.0,0,119,0.0,0.0
37135,79.0,0,59,12.0,0.0
37136,67.0,0,119,4.0,0.0
37137,40.0,0,119,3.0,0.0
37138,67.0,0,119,8.0,0.0
37139,64.0,0,119,4.0,0.0
37140,55.0,0,119,2.0,0.0
37141,67.0,0,119,2.0,0.0
37142,67.0,0,119,1.0,0.0
37143,52.0,0,119,3.0,0.0
37144,79.0,0,119,1.0,0.0
37145,62.0,0,59,5.0,0.0
37146,74.0,60,59,5.0,0.0
37147,67.0,0,59,13.0,0.0
37148,67.0,0,59,12.0,0.0
37149,71.0,0,119,2.0,0.0
37150,67.0,0,119,2.0,0.0
37151,79.0,60,59,12.0,0.0
37152,52.0,0,119,3.0,0.0
37153,79.0,0,59,13.0,0.0
37154,64.0,0,179,6.0,0.0
37155,52.0,0,179,6.0,0.0
37156,64.0,0,119,4.0,0.0
37157,67.0,0,119,4.0,0.0
37158,71.0,0,179,5.0,0.0
37159,62.0,0,119,5.0,0.0
37160,79.0,0,179,5.0,0.0
37161,71.0,0,119,1.0,0.0
37162,64.0,0,119,3.0,0.0
37163,91.0,0,119,0.0,0.0
37164,83.0,0,119,0.0,0.0
37165,74.0,60,119,5.0,0.0
37166,79.0,0,119,1.0,0.0
37167,67.0,0,59,13.0,0.0
37168,67.0,0,59,12.0,0.0
37169,74.0,0,119,5.0,0.0
37170,71.0,0,59,12.0,0.0
37171,62.0,0,119,5.0,0.0
37172,71.0,60,59,13.0,0.0
37173,76.0,0,59,13.0,0.0
37174,64.0,0,59,6.0,0.0
37175,71.0,0,59,5.0,0.0
37176,79.0,0,59,5.0,0.0
37177,76.0,0,59,12.0,0.0
37178,52.0,60,59,6.0,0.0
37179,79.0,0,119,5.0,0.0
37180,62.0,0,119,5.0,0.0
37181,71.0,0,119,5.0,0.0
37182,52.0,60,119,6.0,0.0
37183,74.0,0,119,5.0,0.0
37184,79.0,0,59,12.0,0.0
37185,79.0,60,59,13.0,0.0
37186,64.0,0,119,6.0,0.0
37187,67.0,0,59,13.0,0.0
37188,67.0,0,59,12.0,0.0
37189,71.0,45,59,13.0,0.0
37190,79.0,0,104,5.0,0.0
37191,71.0,0,104,5.0,0.0
37192,76.0,0,119,5.0,0.0
37193,52.0,15,104,6.0,0.0
37194,71.0,0,59,12.0,0.0
37195,64.0,0,104,6.0,0.0
37196,76.0,60,59,12.0,0.0
37197,76.0,0,59,13.0,0.0
37198,52.0,0,119,3.0,0.0
37199,80.0,0,119,1.0,0.0
37200,80.0,0,179,5.0,0.0
37201,71.0,0,119,1.0,0.0
37202,64.0,0,119,3.0,0.0
37203,76.0,0,179,8.0,0.0
37204,83.0,0,119,0.0,0.0
37205,71.0,0,179,5.0,0.0
37206,64.0,0,179,6.0,0.0
37207,64.0,0,179,10.0,0.0
37208,64.0,0,179,11.0,0.0
37209,52.0,0,179,6.0,0.0
37210,80.0,0,59,13.0,0.0
37211,71.0,0,119,2.0,0.0
37212,64.0,0,119,4.0,0.0
37213,80.0,60,59,12.0,0.0
37214,68.0,0,119,2.0,0.0
37215,92.0,60,119,0.0,0.0
37216,68.0,0,59,12.0,0.0
37217,68.0,0,59,13.0,0.0
37218,71.0,0,59,13.0,0.0
37219,71.0,45,59,12.0,0.0
37220,76.0,0,59,12.0,0.0
37221,80.0,0,44,5.0,0.0
37222,52.0,15,44,6.0,0.0
37223,76.0,0,59,8.0,0.0
37224,64.0,0,59,10.0,0.0
37225,64.0,0,59,11.0,0.0
37226,71.0,0,59,5.0,0.0
37227,76.0,120,59,13.0,0.0
37228,64.0,0,44,6.0,0.0
37229,71.0,0,359,5.0,0.0
37230,71.0,0,119,13.0,0.0
37231,80.0,120,359,5.0,0.0
37232,76.0,0,119,8.0,0.0
37233,80.0,0,119,12.0,0.0
37234,64.0,0,119,11.0,0.0
37235,52.0,0,359,6.0,0.0
37236,64.0,0,359,6.0,0.0
37237,64.0,0,119,10.0,0.0
37238,64.0,0,119,8.0,0.0
37239,64.0,0,119,10.0,0.0
37240,52.0,0,119,11.0,0.0
37241,71.0,150,119,5.0,0.0
37242,64.0,0,119,6.0,0.0
37243,80.0,0,119,5.0,0.0
37244,52.0,0,119,6.0,0.0
37245,64.0,30,149,6.0,0.0
37246,52.0,0,149,6.0,0.0
37247,80.0,0,149,5.0,0.0
37248,71.0,0,149,5.0,0.0
37249,71.0,0,839,2.0,0.0
37250,56.0,0,419,3.0,0.0
37251,64.0,0,419,2.0,0.0
37252,59.0,0,839,3.0,0.0
37253,76.0,0,29,5.0,0.0
37254,59.0,0,29,6.0,0.0
37255,56.0,0,29,6.0,0.0
37256,64.0,60,29,5.0,0.0
37257,56.0,120,59,6.0,0.0
37258,76.0,0,59,5.0,0.0
37259,59.0,0,59,6.0,0.0
37260,64.0,0,59,5.0,0.0
37261,59.0,120,119,6.0,0.0
37262,76.0,0,119,5.0,0.0
37263,56.0,0,119,6.0,0.0
37264,71.0,0,119,13.0,0.0
37265,76.0,0,119,12.0,0.0
37266,64.0,0,119,13.0,0.0
37267,71.0,0,119,5.0,0.0
37268,56.0,0,119,6.0,0.0
37269,59.0,0,119,6.0,0.0
37270,71.0,0,119,5.0,0.0
37271,76.0,60,119,5.0,0.0
37272,64.0,60,59,6.0,0.0
37273,71.0,0,119,5.0,0.0
37274,56.0,0,59,6.0,0.0
37275,76.0,0,59,5.0,0.0
37276,59.0,0,59,6.0,0.0
37277,54.0,0,59,3.0,0.0
37278,75.0,60,59,5.0,0.0
37279,63.0,0,59,2.0,0.0
37280,54.0,0,59,6.0,0.0
37281,75.0,0,104,5.0,0.0
37282,71.0,60,119,13.0,0.0
37283,71.0,45,59,5.0,0.0
37284,66.0,0,119,13.0,0.0
37285,63.0,180,359,2.0,0.0
37286,75.0,0,119,12.0,0.0
37287,54.0,0,104,6.0,0.0
37288,59.0,0,104,6.0,0.0
37289,54.0,0,359,3.0,0.0
37290,66.0,15,44,5.0,0.0
37291,54.0,60,119,6.0,0.0
37292,66.0,60,59,5.0,0.0
37293,75.0,0,119,5.0,0.0
37294,59.0,0,119,6.0,0.0
37295,63.0,0,59,5.0,0.0
37296,75.0,0,119,5.0,0.0
37297,59.0,0,119,6.0,0.0
37298,54.0,0,119,6.0,0.0
37299,63.0,60,59,5.0,0.0
37300,71.0,0,59,5.0,0.0
37301,73.0,0,479,2.0,0.0
37302,52.0,0,479,6.0,0.0
37303,64.0,0,239,6.0,0.0
37304,73.0,20,179,5.0,0.0
37305,56.0,0,479,3.0,0.0
37306,68.0,0,479,2.0,0.0
37307,52.0,0,479,3.0,0.0
37308,64.0,0,59,13.0,0.0
37309,68.0,40,59,12.0,0.0
37310,75.0,20,19,5.0,0.0
37311,73.0,20,19,5.0,0.0
37312,72.0,0,19,5.0,0.0
37313,56.0,0,239,6.0,0.0
37314,73.0,20,39,5.0,0.0
37315,68.0,0,119,13.0,0.0
37316,73.0,40,119,12.0,0.0
37317,68.0,20,19,5.0,0.0
37318,66.0,0,59,5.0,0.0
37319,75.0,0,39,5.0,0.0
37320,68.0,20,59,5.0,0.0
37321,78.0,20,39,5.0,0.0
37322,76.0,40,39,5.0,0.0
37323,64.0,40,59,5.0,0.0
37324,73.0,0,39,5.0,0.0
37325,63.0,0,479,2.0,0.0
37326,71.0,40,39,5.0,0.0
37327,59.0,0,479,3.0,0.0
37328,54.0,0,599,3.0,0.0
37329,63.0,20,179,5.0,0.0
37330,54.0,40,119,6.0,0.0
37331,71.0,0,479,2.0,0.0
37332,73.0,40,39,5.0,0.0
37333,70.0,0,39,5.0,0.0
37334,71.0,20,39,5.0,0.0
37335,59.0,0,239,6.0,0.0
37336,73.0,40,39,5.0,0.0
37337,63.0,40,59,12.0,0.0
37338,71.0,0,299,5.0,0.0
37339,63.0,0,179,13.0,0.0
37340,75.0,0,39,5.0,0.0
37341,76.0,40,39,5.0,0.0
37342,71.0,0,119,12.0,0.0
37343,77.0,40,39,5.0,0.0
37344,78.0,0,39,5.0,0.0
37345,54.0,40,119,6.0,0.0
37346,77.0,30,29,5.0,0.0
37347,63.0,0,119,6.0,0.0
37348,78.0,30,29,5.0,0.0
37349,80.0,30,29,5.0,0.0
37350,78.0,0,29,5.0,0.0
37351,61.0,0,119,3.0,0.0
37352,78.0,0,359,5.0,0.0
37353,70.0,0,39,5.0,0.0
37354,54.0,20,59,6.0,0.0
37355,64.0,0,119,2.0,0.0
37356,61.0,20,39,6.0,0.0
37357,70.0,0,119,2.0,0.0
37358,71.0,0,39,5.0,0.0
37359,63.0,40,39,6.0,0.0
37360,54.0,0,59,6.0,0.0
37361,59.0,40,39,6.0,0.0
37362,68.0,0,39,5.0,0.0
37363,70.0,0,39,5.0,0.0
37364,61.0,40,39,6.0,0.0
37365,54.0,0,479,6.0,0.0
37366,71.0,0,39,5.0,0.0
37367,63.0,40,39,6.0,0.0
37368,64.0,0,59,12.0,0.0
37369,64.0,0,179,13.0,0.0
37370,73.0,40,79,5.0,0.0
37371,64.0,40,39,6.0,0.0
37372,73.0,0,119,12.0,0.0
37373,58.0,0,39,6.0,0.0
37374,75.0,0,39,5.0,0.0
37375,59.0,40,39,6.0,0.0
37376,76.0,30,39,5.0,0.0
37377,61.0,0,39,6.0,0.0
37378,68.0,30,29,5.0,0.0
37379,64.0,0,29,6.0,0.0
37380,76.0,40,119,5.0,0.0
37381,63.0,0,29,6.0,0.0
37382,66.0,30,29,5.0,0.0
37383,64.0,0,29,6.0,0.0
37384,68.0,30,29,5.0,0.0
37385,61.0,0,29,6.0,0.0
37386,70.0,0,29,5.0,0.0
37387,59.0,20,39,6.0,0.0
37388,54.0,0,119,3.0,0.0
37389,75.0,0,119,2.0,0.0
37390,63.0,0,119,2.0,0.0
37391,75.0,0,59,5.0,0.0
37392,71.0,20,59,5.0,0.0
37393,59.0,0,119,3.0,0.0
37394,61.0,40,39,6.0,0.0
37395,75.0,0,59,5.0,0.0
37396,71.0,0,59,5.0,0.0
37397,58.0,40,39,6.0,0.0
37398,59.0,40,39,6.0,0.0
37399,71.0,0,359,5.0,0.0
37400,75.0,0,359,5.0,0.0
37401,61.0,40,39,6.0,0.0
37402,63.0,0,179,13.0,0.0
37403,63.0,0,59,12.0,0.0
37404,63.0,40,39,6.0,0.0
37405,64.0,40,39,6.0,0.0
37406,71.0,0,119,12.0,0.0
37407,65.0,40,39,6.0,0.0
37408,66.0,30,39,6.0,0.0
37409,42.0,40,119,6.0,0.0
37410,68.0,30,29,6.0,0.0
37411,66.0,30,29,6.0,0.0
37412,65.0,30,29,6.0,0.0
37413,66.0,0,29,6.0,0.0
37414,66.0,0,119,2.0,0.0
37415,59.0,0,119,3.0,0.0
37416,54.0,0,119,3.0,0.0
37417,42.0,20,39,6.0,0.0
37418,66.0,20,59,6.0,0.0
37419,75.0,0,119,2.0,0.0
37420,44.0,40,39,6.0,0.0
37421,75.0,0,59,5.0,0.0
37422,71.0,0,59,5.0,0.0
37423,66.0,40,59,6.0,0.0
37424,46.0,0,39,6.0,0.0
37425,66.0,0,239,6.0,0.0
37426,47.0,40,39,6.0,0.0
37427,71.0,40,359,5.0,0.0
37428,75.0,0,359,5.0,0.0
37429,49.0,40,39,6.0,0.0
37430,63.0,30,179,13.0,0.0
37431,63.0,40,59,12.0,0.0
37432,51.0,0,39,6.0,0.0
37433,71.0,0,119,12.0,0.0
37434,52.0,40,39,6.0,0.0
37435,53.0,40,39,6.0,0.0
37436,54.0,0,39,6.0,0.0
37437,53.0,30,29,6.0,0.0
37438,54.0,30,29,6.0,0.0
37439,56.0,30,29,6.0,0.0
37440,59.0,0,59,11.0,0.0
37441,54.0,40,69,6.0,0.0
37442,73.0,0,119,5.0,0.0
37443,64.0,0,119,3.0,0.0
37444,54.0,0,119,3.0,0.0
37445,73.0,0,119,2.0,0.0
37446,70.0,0,239,5.0,0.0
37447,70.0,40,119,2.0,0.0
37448,64.0,20,179,11.0,0.0
37449,64.0,40,39,6.0,0.0
37450,63.0,0,39,6.0,0.0
37451,78.0,0,119,5.0,0.0
37452,64.0,20,39,6.0,0.0
37453,61.0,40,39,6.0,0.0
37454,64.0,0,179,12.0,0.0
37455,54.0,40,59,11.0,0.0
37456,61.0,60,179,13.0,0.0
37457,58.0,0,39,6.0,0.0
37458,71.0,0,119,5.0,0.0
37459,54.0,20,59,11.0,0.0
37460,80.0,0,119,5.0,0.0
37461,54.0,20,39,6.0,0.0
37462,52.0,40,39,6.0,0.0
37463,66.0,0,59,11.0,0.0
37464,49.0,0,39,6.0,0.0
37465,54.0,0,59,6.0,0.0
37466,66.0,60,59,11.0,0.0
37467,82.0,0,119,5.0,0.0
37468,73.0,0,119,5.0,0.0
37469,64.0,0,59,11.0,0.0
37470,54.0,120,59,6.0,0.0
37471,71.0,0,119,2.0,0.0
37472,63.0,0,239,2.0,0.0
37473,63.0,0,239,11.0,0.0
37474,47.0,60,119,6.0,0.0
37475,59.0,0,479,3.0,0.0
37476,71.0,0,119,5.0,0.0
37477,83.0,0,119,5.0,0.0
37478,47.0,120,119,6.0,0.0
37479,66.0,0,839,2.0,0.0
37480,66.0,60,59,5.0,0.0
37481,83.0,0,59,5.0,0.0
37482,71.0,0,59,5.0,0.0
37483,63.0,0,59,12.0,0.0
37484,63.0,0,59,13.0,0.0
37485,78.0,0,59,5.0,0.0
37486,74.0,0,719,5.0,0.0
37487,47.0,240,239,6.0,0.0
37488,62.0,120,119,13.0,0.0
37489,62.0,0,719,11.0,0.0
37490,62.0,0,719,2.0,0.0
37491,66.0,0,119,12.0,0.0
37492,78.0,240,719,5.0,0.0
37493,45.0,0,479,6.0,0.0
37494,57.0,0,479,3.0,0.0
37495,62.0,120,59,12.0,0.0
37496,62.0,120,179,13.0,0.0
37497,66.0,0,119,12.0,0.0
37498,83.0,120,119,12.0,0.0
37499,71.0,0,119,13.0,0.0
37500,81.0,0,119,12.0,0.0
37501,69.0,120,119,13.0,0.0
37502,71.0,0,119,14.0,0.0
37503,59.0,120,119,15.0,0.0
37504,47.0,0,119,15.0,0.0
37505,45.0,0,119,15.0,0.0
37506,57.0,0,119,15.0,0.0
37507,69.0,120,119,14.0,0.0
37508,71.0,120,119,13.0,0.0
37509,83.0,0,119,12.0,0.0
37510,81.0,0,119,12.0,0.0
37511,69.0,120,119,13.0,0.0
37512,59.0,0,119,15.0,0.0
37513,71.0,0,119,14.0,0.0
37514,47.0,120,119,15.0,0.0
37515,45.0,120,119,15.0,0.0
37516,57.0,0,119,15.0,0.0
37517,69.0,0,119,14.0,0.0
37518,83.0,120,119,12.0,0.0
37519,71.0,0,119,13.0,0.0
37520,69.0,0,119,13.0,0.0
37521,81.0,120,119,12.0,0.0
37522,71.0,0,119,14.0,0.0
37523,59.0,0,119,15.0,0.0
37524,47.0,120,119,15.0,0.0
37525,69.0,0,119,14.0,0.0
37526,57.0,120,119,15.0,0.0
37527,45.0,0,119,15.0,0.0
37528,71.0,0,119,13.0,0.0
37529,83.0,120,119,12.0,0.0
37530,81.0,0,119,12.0,0.0
37531,69.0,120,119,13.0,0.0
37532,71.0,0,119,14.0,0.0
37533,47.0,0,119,15.0,0.0
37534,59.0,120,119,15.0,0.0
37535,57.0,0,119,15.0,0.0
37536,69.0,0,119,14.0,0.0
37537,45.0,120,119,15.0,0.0
37538,71.0,0,119,14.0,0.0
37539,47.0,120,119,15.0,0.0
37540,71.0,0,119,13.0,0.0
37541,83.0,0,119,12.0,0.0
37542,59.0,0,119,15.0,0.0
37543,69.0,0,119,14.0,0.0
37544,69.0,0,119,13.0,0.0
37545,45.0,0,119,15.0,0.0
37546,57.0,0,119,15.0,0.0
37547,81.0,120,119,12.0,0.0
37548,71.0,0,119,13.0,0.0
37549,47.0,0,119,15.0,0.0
37550,59.0,0,119,15.0,0.0
37551,71.0,120,119,14.0,0.0
37552,83.0,0,119,12.0,0.0
37553,57.0,0,119,15.0,0.0
37554,69.0,0,119,13.0,0.0
37555,69.0,0,119,14.0,0.0
37556,45.0,120,119,15.0,0.0
37557,81.0,0,119,12.0,0.0
37558,59.0,0,119,15.0,0.0
37559,83.0,0,119,12.0,0.0
37560,71.0,0,119,13.0,0.0
37561,47.0,0,119,15.0,0.0
37562,71.0,120,119,14.0,0.0
37563,81.0,0,119,12.0,0.0
37564,69.0,0,119,14.0,0.0
37565,45.0,0,119,15.0,0.0
37566,69.0,120,119,13.0,0.0
37567,57.0,0,119,15.0,0.0
37568,71.0,0,119,13.0,0.0
37569,59.0,0,119,15.0,0.0
37570,47.0,0,119,15.0,0.0
37571,83.0,120,119,12.0,0.0
37572,71.0,0,119,14.0,0.0
37573,45.0,0,119,7.0,0.0
37574,69.0,0,119,12.0,0.0
37575,57.0,0,119,15.0,0.0
37576,45.0,120,119,15.0,0.0
37577,81.0,0,119,12.0,0.0
37578,69.0,0,119,14.0,0.0
37579,71.0,0,119,1.0,0.0
37580,57.0,0,119,4.0,0.0
37581,69.0,0,119,5.0,0.0
37582,45.0,0,119,4.0,0.0
37583,83.0,0,119,12.0,0.0
37584,83.0,0,119,1.0,0.0
37585,59.0,0,119,3.0,0.0
37586,59.0,0,119,15.0,0.0
37587,83.0,0,119,2.0,0.0
37588,57.0,0,119,5.0,0.0
37589,47.0,0,119,3.0,0.0
37590,95.0,0,119,13.0,0.0
37591,83.0,0,119,0.0,0.0
37592,69.0,0,119,4.0,0.0
37593,71.0,0,119,14.0,0.0
37594,35.0,0,119,3.0,0.0
37595,47.0,0,119,15.0,0.0
37596,71.0,0,119,2.0,0.0
37597,45.0,120,119,7.0,0.0
37598,71.0,0,119,12.0,0.0
37599,81.0,0,119,12.0,0.0
37600,81.0,0,119,2.0,0.0
37601,69.0,0,119,2.0,0.0
37602,57.0,0,119,3.0,0.0
37603,45.0,0,119,3.0,0.0
37604,69.0,0,119,1.0,0.0
37605,81.0,0,119,1.0,0.0
37606,33.0,0,119,3.0,0.0
37607,57.0,0,119,15.0,0.0
37608,81.0,0,119,0.0,0.0
37609,57.0,0,119,5.0,0.0
37610,69.0,0,119,5.0,0.0
37611,45.0,0,119,4.0,0.0
37612,69.0,0,119,4.0,0.0
37613,93.0,120,119,13.0,0.0
37614,45.0,0,119,15.0,0.0
37615,69.0,0,119,12.0,0.0
37616,69.0,0,119,14.0,0.0
37617,57.0,0,119,4.0,0.0
37618,45.0,0,119,7.0,0.0
37619,83.0,0,119,1.0,0.0
37620,83.0,0,119,12.0,0.0
37621,59.0,0,119,15.0,0.0
37622,69.0,0,119,4.0,0.0
37623,35.0,0,119,3.0,0.0
37624,71.0,0,119,14.0,0.0
37625,71.0,0,119,12.0,0.0
37626,83.0,0,119,0.0,0.0
37627,71.0,0,119,1.0,0.0
37628,59.0,0,119,3.0,0.0
37629,47.0,0,119,3.0,0.0
37630,69.0,0,119,5.0,0.0
37631,57.0,0,119,5.0,0.0
37632,57.0,0,119,4.0,0.0
37633,45.0,0,119,4.0,0.0
37634,95.0,0,119,13.0,0.0
37635,83.0,0,119,2.0,0.0
37636,71.0,120,119,2.0,0.0
37637,47.0,0,119,15.0,0.0
37638,45.0,0,119,7.0,0.0
37639,69.0,0,119,14.0,0.0
37640,81.0,0,119,2.0,0.0
37641,69.0,0,119,2.0,0.0
37642,45.0,0,119,15.0,0.0
37643,81.0,0,119,0.0,0.0
37644,45.0,0,119,4.0,0.0
37645,93.0,0,119,13.0,0.0
37646,33.0,0,119,3.0,0.0
37647,69.0,0,119,4.0,0.0
37648,57.0,0,119,4.0,0.0
37649,81.0,0,119,12.0,0.0
37650,45.0,0,119,7.0,0.0
37651,69.0,0,119,12.0,0.0
37652,57.0,120,119,5.0,0.0
37653,69.0,0,119,1.0,0.0
37654,81.0,0,119,1.0,0.0
37655,45.0,0,119,3.0,0.0
37656,57.0,0,119,3.0,0.0
37657,69.0,0,119,5.0,0.0
37658,57.0,0,119,15.0,0.0
37659,71.0,0,119,14.0,0.0
37660,45.0,0,119,7.0,0.0
37661,57.0,0,119,5.0,0.0
37662,69.0,0,119,5.0,0.0
37663,95.0,0,119,13.0,0.0
37664,71.0,0,119,2.0,0.0
37665,83.0,0,119,2.0,0.0
37666,47.0,120,119,15.0,0.0
37667,71.0,0,119,12.0,0.0
37668,35.0,0,119,3.0,0.0
37669,59.0,0,119,3.0,0.0
37670,83.0,0,119,12.0,0.0
37671,69.0,0,119,4.0,0.0
37672,45.0,0,119,4.0,0.0
37673,57.0,0,119,4.0,0.0
37674,59.0,0,119,15.0,0.0
37675,83.0,0,119,0.0,0.0
37676,83.0,0,119,1.0,0.0
37677,71.0,0,119,1.0,0.0
37678,47.0,0,119,3.0,0.0
37679,57.0,0,119,15.0,0.0
37680,45.0,0,119,3.0,0.0
37681,33.0,0,119,3.0,0.0
37682,57.0,0,119,3.0,0.0
37683,81.0,0,119,12.0,0.0
37684,45.0,0,119,7.0,0.0
37685,81.0,0,119,0.0,0.0
37686,45.0,0,119,15.0,0.0
37687,93.0,0,119,13.0,0.0
37688,69.0,0,119,12.0,0.0
37689,69.0,0,119,2.0,0.0
37690,81.0,0,119,2.0,0.0
37691,69.0,0,119,14.0,0.0
37692,69.0,0,119,4.0,0.0
37693,45.0,0,119,4.0,0.0
37694,81.0,0,119,1.0,0.0
37695,69.0,0,119,5.0,0.0
37696,57.0,0,119,5.0,0.0
37697,69.0,60,119,1.0,0.0
37698,57.0,0,119,4.0,0.0
37699,59.0,0,59,3.0,0.0
37700,71.0,0,59,1.0,0.0
37701,47.0,0,59,3.0,0.0
37702,95.0,0,59,13.0,0.0
37703,71.0,0,59,2.0,0.0
37704,45.0,0,59,4.0,0.0
37705,47.0,0,59,15.0,0.0
37706,69.0,0,59,5.0,0.0
37707,57.0,0,59,5.0,0.0
37708,83.0,0,59,1.0,0.0
37709,69.0,0,59,4.0,0.0
37710,35.0,0,59,3.0,0.0
37711,83.0,0,59,12.0,0.0
37712,45.0,0,59,7.0,0.0
37713,71.0,0,59,12.0,0.0
37714,59.0,60,59,15.0,0.0
37715,83.0,0,59,0.0,0.0
37716,57.0,0,59,4.0,0.0
37717,71.0,0,59,14.0,0.0
37718,85.0,0,59,0.0,0.0
37719,85.0,0,59,12.0,0.0
37720,73.0,0,59,2.0,0.0
37721,73.0,0,59,1.0,0.0
37722,85.0,0,59,1.0,0.0
37723,69.0,120,59,4.0,0.0
37724,45.0,0,59,4.0,0.0
37725,57.0,0,59,4.0,0.0
37726,61.0,0,59,3.0,0.0
37727,49.0,0,59,3.0,0.0
37728,97.0,0,59,13.0,0.0
37729,49.0,0,59,15.0,0.0
37730,37.0,0,59,3.0,0.0
37731,73.0,0,59,12.0,0.0
37732,45.0,0,59,7.0,0.0
37733,69.0,0,59,5.0,0.0
37734,57.0,0,59,5.0,0.0
37735,61.0,0,59,15.0,0.0
37736,73.0,0,59,14.0,0.0
37737,50.0,0,119,3.0,0.0
37738,98.0,0,119,13.0,0.0
37739,74.0,0,119,5.0,0.0
37740,62.0,0,119,5.0,0.0
37741,74.0,0,119,14.0,0.0
37742,50.0,0,119,15.0,0.0
37743,62.0,0,119,15.0,0.0
37744,50.0,0,119,4.0,0.0
37745,86.0,0,119,1.0,0.0
37746,74.0,0,119,1.0,0.0
37747,86.0,0,119,0.0,0.0
37748,38.0,0,119,3.0,0.0
37749,74.0,0,119,2.0,0.0
37750,62.0,0,119,2.0,0.0
37751,62.0,0,119,4.0,0.0
37752,86.0,0,119,12.0,0.0
37753,49.0,0,119,9.0,0.0
37754,50.0,0,119,7.0,0.0
37755,74.0,0,119,12.0,0.0
37756,81.0,120,119,9.0,0.0
37757,62.0,0,119,3.0,0.0
37758,62.0,0,119,6.0,0.0
37759,35.0,0,119,9.0,0.0
37760,74.0,0,119,1.0,0.0
37761,86.0,0,119,1.0,0.0
37762,38.0,0,119,3.0,0.0
37763,86.0,0,119,0.0,0.0
37764,62.0,0,119,4.0,0.0
37765,62.0,0,119,2.0,0.0
37766,74.0,0,119,5.0,0.0
37767,62.0,0,119,5.0,0.0
37768,81.0,0,119,9.0,0.0
37769,50.0,0,119,3.0,0.0
37770,74.0,120,119,2.0,0.0
37771,50.0,0,119,4.0,0.0
37772,35.0,0,119,9.0,0.0
37773,49.0,0,119,9.0,0.0
37774,50.0,0,119,7.0,0.0
37775,62.0,0,119,3.0,0.0
37776,98.0,0,119,13.0,0.0
37777,73.0,0,119,2.0,0.0
37778,61.0,120,119,2.0,0.0
37779,61.0,0,119,3.0,0.0
37780,57.0,0,119,5.0,0.0
37781,97.0,0,119,13.0,0.0
37782,45.0,0,119,7.0,0.0
37783,49.0,0,119,3.0,0.0
37784,49.0,0,119,9.0,0.0
37785,35.0,0,119,9.0,0.0
37786,81.0,0,119,9.0,0.0
37787,37.0,0,119,3.0,0.0
37788,85.0,0,119,0.0,0.0
37789,85.0,0,119,1.0,0.0
37790,73.0,0,119,1.0,0.0
37791,69.0,0,119,4.0,0.0
37792,61.0,0,119,4.0,0.0
37793,69.0,0,119,5.0,0.0
37794,83.0,0,119,0.0,0.0
37795,45.0,0,119,7.0,0.0
37796,71.0,0,119,1.0,0.0
37797,95.0,0,119,13.0,0.0
37798,59.0,0,119,3.0,0.0
37799,35.0,0,119,3.0,0.0
37800,83.0,0,119,1.0,0.0
37801,47.0,0,119,3.0,0.0
37802,71.0,0,119,2.0,0.0
37803,69.0,0,119,4.0,0.0
37804,61.0,0,119,4.0,0.0
37805,59.0,0,119,2.0,0.0
37806,57.0,120,119,5.0,0.0
37807,69.0,0,119,5.0,0.0
37808,64.0,0,119,4.0,0.0
37809,100.0,0,119,13.0,0.0
37810,64.0,0,119,6.0,0.0
37811,64.0,0,119,2.0,0.0
37812,76.0,120,119,2.0,0.0
37813,76.0,0,119,1.0,0.0
37814,49.0,0,119,9.0,0.0
37815,81.0,0,119,9.0,0.0
37816,35.0,0,119,9.0,0.0
37817,40.0,0,119,3.0,0.0
37818,52.0,0,119,3.0,0.0
37819,64.0,0,119,3.0,0.0
37820,88.0,0,119,0.0,0.0
37821,49.0,0,119,9.0,0.0
37822,64.0,0,119,3.0,0.0
37823,52.0,0,119,3.0,0.0
37824,76.0,0,119,1.0,0.0
37825,88.0,0,119,0.0,0.0
37826,40.0,0,119,3.0,0.0
37827,35.0,0,119,9.0,0.0
37828,81.0,0,119,9.0,0.0
37829,64.0,0,119,2.0,0.0
37830,76.0,0,119,2.0,0.0
37831,64.0,0,119,4.0,0.0
37832,100.0,0,119,13.0,0.0
37833,63.0,0,119,2.0,0.0
37834,99.0,0,119,13.0,0.0
37835,87.0,0,119,0.0,0.0
37836,39.0,0,119,3.0,0.0
37837,35.0,0,119,9.0,0.0
37838,49.0,0,119,9.0,0.0
37839,63.0,0,119,3.0,0.0
37840,51.0,0,119,3.0,0.0
37841,81.0,0,119,9.0,0.0
37842,75.0,120,119,1.0,0.0
37843,75.0,0,119,2.0,0.0
37844,95.0,0,119,13.0,0.0
37845,35.0,0,119,3.0,0.0
37846,83.0,120,119,0.0,0.0
37847,59.0,0,119,3.0,0.0
37848,71.0,0,119,2.0,0.0
37849,71.0,0,119,1.0,0.0
37850,59.0,0,119,2.0,0.0
37851,47.0,0,119,3.0,0.0
37852,49.0,0,119,9.0,0.0
37853,40.0,0,119,3.0,0.0
37854,52.0,0,119,3.0,0.0
37855,81.0,0,119,9.0,0.0
37856,64.0,0,119,3.0,0.0
37857,76.0,0,119,1.0,0.0
37858,100.0,0,119,13.0,0.0
37859,64.0,120,119,6.0,0.0
37860,35.0,0,119,9.0,0.0
37861,52.0,0,119,6.0,0.0
37862,88.0,0,119,0.0,0.0
37863,64.0,0,119,2.0,0.0
37864,76.0,0,119,2.0,0.0
37865,64.0,0,119,4.0,0.0
37866,42.0,0,119,3.0,0.0
37867,54.0,0,119,3.0,0.0
37868,78.0,0,119,1.0,0.0
37869,66.0,0,119,2.0,0.0
37870,90.0,0,119,0.0,0.0
37871,102.0,0,119,13.0,0.0
37872,30.0,0,119,3.0,0.0
37873,64.0,0,119,4.0,0.0
37874,78.0,0,119,2.0,0.0
37875,64.0,0,119,4.0,0.0
37876,31.0,0,119,3.0,0.0
37877,91.0,0,119,0.0,0.0
37878,55.0,0,119,3.0,0.0
37879,49.0,0,119,9.0,0.0
37880,35.0,0,119,9.0,0.0
37881,81.0,120,119,9.0,0.0
37882,43.0,0,119,3.0,0.0
37883,79.0,0,119,2.0,0.0
37884,103.0,0,119,13.0,0.0
37885,79.0,0,119,1.0,0.0
37886,67.0,0,119,2.0,0.0
37887,56.0,0,119,3.0,0.0
37888,80.0,0,119,2.0,0.0
37889,92.0,0,119,0.0,0.0
37890,68.0,0,119,2.0,0.0
37891,64.0,0,119,4.0,0.0
37892,80.0,0,119,1.0,0.0
37893,104.0,0,119,13.0,0.0
37894,44.0,120,119,3.0,0.0
37895,32.0,0,119,3.0,0.0
37896,69.0,0,119,2.0,0.0
37897,81.0,120,119,9.0,0.0
37898,49.0,0,119,9.0,0.0
37899,45.0,0,119,7.0,0.0
37900,57.0,0,119,4.0,0.0
37901,64.0,0,119,4.0,0.0
37902,69.0,0,119,6.0,0.0
37903,93.0,0,119,0.0,0.0
37904,81.0,0,119,2.0,0.0
37905,33.0,0,119,3.0,0.0
37906,45.0,0,119,3.0,0.0
37907,57.0,0,119,6.0,0.0
37908,105.0,0,119,13.0,0.0
37909,57.0,0,119,3.0,0.0
37910,81.0,0,119,1.0,0.0
37911,69.0,0,119,5.0,0.0
37912,35.0,0,119,9.0,0.0
37913,57.0,0,119,5.0,0.0
37914,80.0,0,119,1.0,0.0
37915,32.0,0,119,3.0,0.0
37916,44.0,0,119,3.0,0.0
37917,56.0,0,119,3.0,0.0
37918,92.0,0,119,0.0,0.0
37919,69.0,0,119,5.0,0.0
37920,45.0,0,119,7.0,0.0
37921,68.0,120,119,2.0,0.0
37922,57.0,0,119,5.0,0.0
37923,64.0,0,119,4.0,0.0
37924,80.0,0,119,2.0,0.0
37925,104.0,0,119,13.0,0.0
37926,69.0,0,119,12.0,0.0
37927,33.0,0,119,15.0,0.0
37928,57.0,0,119,14.0,0.0
37929,81.0,60,119,2.0,0.0
37930,57.0,0,119,4.0,0.0
37931,69.0,0,119,2.0,0.0
37932,45.0,0,119,15.0,0.0
37933,57.0,0,119,3.0,0.0
37934,45.0,0,119,7.0,0.0
37935,81.0,0,119,1.0,0.0
37936,45.0,0,119,3.0,0.0
37937,69.0,0,119,5.0,0.0
37938,33.0,0,119,3.0,0.0
37939,93.0,0,119,0.0,0.0
37940,105.0,0,119,13.0,0.0
37941,57.0,0,119,5.0,0.0
37942,81.0,0,119,12.0,0.0
37943,67.0,0,119,2.0,0.0
37944,79.0,0,119,2.0,0.0
37945,35.0,60,59,3.0,0.0
37946,79.0,0,119,1.0,0.0
37947,83.0,0,59,12.0,0.0
37948,69.0,0,119,4.0,0.0
37949,59.0,0,59,3.0,0.0
37950,47.0,0,59,3.0,0.0
37951,71.0,0,59,12.0,0.0
37952,59.0,0,59,14.0,0.0
37953,69.0,0,59,5.0,0.0
37954,103.0,0,119,13.0,0.0
37955,57.0,0,119,4.0,0.0
37956,57.0,0,59,5.0,0.0
37957,91.0,0,119,0.0,0.0
37958,47.0,0,59,15.0,0.0
37959,45.0,0,59,7.0,0.0
37960,35.0,0,59,15.0,0.0
37961,37.0,0,59,3.0,0.0
37962,85.0,0,59,12.0,0.0
37963,45.0,0,59,7.0,0.0
37964,57.0,0,59,5.0,0.0
37965,69.0,0,59,5.0,0.0
37966,37.0,0,59,15.0,0.0
37967,49.0,0,59,3.0,0.0
37968,61.0,0,59,3.0,0.0
37969,49.0,0,59,15.0,0.0
37970,73.0,0,59,12.0,0.0
37971,61.0,0,59,14.0,0.0
37972,62.0,0,89,3.0,0.0
37973,50.0,30,89,7.0,0.0
37974,66.0,0,89,1.0,0.0
37975,78.0,0,89,1.0,0.0
37976,50.0,0,89,3.0,0.0
37977,50.0,0,89,15.0,0.0
37978,74.0,0,89,5.0,0.0
37979,62.0,0,119,6.0,0.0
37980,35.0,0,119,9.0,0.0
37981,81.0,0,119,9.0,0.0
37982,49.0,0,119,9.0,0.0
37983,86.0,0,89,12.0,0.0
37984,38.0,0,89,15.0,0.0
37985,62.0,0,89,12.0,0.0
37986,74.0,0,119,10.0,0.0
37987,66.0,0,89,2.0,0.0
37988,78.0,0,89,2.0,0.0
37989,50.0,0,89,4.0,0.0
37990,62.0,0,119,11.0,0.0
37991,74.0,0,119,8.0,0.0
37992,102.0,0,89,13.0,0.0
37993,74.0,0,89,12.0,0.0
37994,62.0,0,89,14.0,0.0
37995,62.0,0,89,5.0,0.0
37996,38.0,0,89,3.0,0.0
37997,50.0,0,89,14.0,0.0
37998,90.0,0,89,0.0,0.0
37999,62.0,0,89,4.0,0.0
38000,50.0,0,89,14.0,0.0
38001,78.0,0,59,1.0,0.0
38002,86.0,0,89,12.0,0.0
38003,62.0,0,119,11.0,0.0
38004,66.0,0,59,2.0,0.0
38005,50.0,0,89,4.0,0.0
38006,74.0,0,119,10.0,0.0
38007,78.0,0,59,2.0,0.0
38008,38.0,30,89,15.0,0.0
38009,90.0,30,59,0.0,0.0
38010,38.0,0,89,3.0,0.0
38011,62.0,0,89,4.0,0.0
38012,50.0,0,89,15.0,0.0
38013,66.0,0,59,1.0,0.0
38014,62.0,0,89,14.0,0.0
38015,74.0,0,119,8.0,0.0
38016,74.0,0,89,12.0,0.0
38017,62.0,0,89,3.0,0.0
38018,102.0,0,59,13.0,0.0
38019,74.0,0,89,5.0,0.0
38020,50.0,0,89,3.0,0.0
38021,62.0,0,89,5.0,0.0
38022,35.0,0,119,9.0,0.0
38023,50.0,0,89,7.0,0.0
38024,81.0,0,119,9.0,0.0
38025,49.0,0,119,9.0,0.0
38026,91.0,0,59,0.0,0.0
38027,67.0,0,59,2.0,0.0
38028,79.0,0,59,2.0,0.0
38029,103.0,0,59,13.0,0.0
38030,79.0,0,59,1.0,0.0
38031,67.0,90,59,1.0,0.0
38032,93.0,0,89,0.0,0.0
38033,61.0,0,119,11.0,0.0
38034,85.0,0,89,12.0,0.0
38035,49.0,0,119,9.0,0.0
38036,35.0,0,119,9.0,0.0
38037,81.0,0,119,9.0,0.0
38038,49.0,0,89,15.0,0.0
38039,57.0,0,89,5.0,0.0
38040,81.0,0,89,1.0,0.0
38041,69.0,0,89,1.0,0.0
38042,61.0,0,89,3.0,0.0
38043,49.0,0,89,3.0,0.0
38044,105.0,0,89,13.0,0.0
38045,45.0,0,89,7.0,0.0
38046,69.0,0,89,4.0,0.0
38047,69.0,0,89,5.0,0.0
38048,57.0,0,89,4.0,0.0
38049,73.0,0,89,12.0,0.0
38050,73.0,0,119,8.0,0.0
38051,73.0,0,119,10.0,0.0
38052,61.0,0,89,14.0,0.0
38053,37.0,0,89,3.0,0.0
38054,37.0,30,89,15.0,0.0
38055,69.0,0,89,2.0,0.0
38056,81.0,0,89,2.0,0.0
38057,57.0,0,89,14.0,0.0
38058,69.0,0,89,5.0,0.0
38059,57.0,0,89,5.0,0.0
38060,33.0,0,89,15.0,0.0
38061,45.0,0,89,7.0,0.0
38062,69.0,0,104,10.0,0.0
38063,69.0,0,104,8.0,0.0
38064,45.0,15,89,15.0,0.0
38065,57.0,0,104,11.0,0.0
38066,57.0,0,89,3.0,0.0
38067,57.0,0,89,4.0,0.0
38068,69.0,0,89,4.0,0.0
38069,45.0,0,89,3.0,0.0
38070,81.0,0,89,12.0,0.0
38071,69.0,0,89,12.0,0.0
38072,81.0,90,119,9.0,0.0
38073,76.0,0,119,12.0,0.0
38074,40.0,0,119,15.0,0.0
38075,67.0,0,89,2.0,0.0
38076,52.0,0,119,3.0,0.0
38077,79.0,0,89,2.0,0.0
38078,64.0,0,119,3.0,0.0
38079,76.0,0,119,8.0,0.0
38080,52.0,0,119,14.0,0.0
38081,40.0,0,119,3.0,0.0
38082,91.0,30,89,0.0,0.0
38083,64.0,0,119,6.0,0.0
38084,79.0,0,89,1.0,0.0
38085,76.0,0,119,10.0,0.0
38086,49.0,60,119,9.0,0.0
38087,81.0,0,119,9.0,0.0
38088,35.0,0,119,9.0,0.0
38089,64.0,0,119,11.0,0.0
38090,67.0,0,89,1.0,0.0
38091,52.0,0,119,15.0,0.0
38092,91.0,0,89,13.0,0.0
38093,64.0,0,119,4.0,0.0
38094,88.0,0,119,12.0,0.0
38095,64.0,0,119,3.0,0.0
38096,40.0,0,119,15.0,0.0
38097,52.0,0,119,3.0,0.0
38098,76.0,0,119,8.0,0.0
38099,79.0,0,59,1.0,0.0
38100,67.0,60,59,1.0,0.0
38101,64.0,0,119,14.0,0.0
38102,40.0,0,119,3.0,0.0
38103,52.0,0,119,15.0,0.0
38104,91.0,0,59,0.0,0.0
38105,81.0,0,119,9.0,0.0
38106,76.0,0,119,10.0,0.0
38107,76.0,0,119,12.0,0.0
38108,79.0,0,59,2.0,0.0
38109,67.0,0,59,2.0,0.0
38110,49.0,0,119,9.0,0.0
38111,64.0,0,119,4.0,0.0
38112,88.0,0,119,12.0,0.0
38113,91.0,0,59,13.0,0.0
38114,64.0,0,119,11.0,0.0
38115,35.0,0,119,9.0,0.0
38116,81.0,0,59,1.0,0.0
38117,93.0,0,59,13.0,0.0
38118,69.0,90,59,2.0,0.0
38119,93.0,0,59,0.0,0.0
38120,81.0,0,59,2.0,0.0
38121,69.0,0,59,1.0,0.0
38122,63.0,0,119,14.0,0.0
38123,51.0,0,119,3.0,0.0
38124,49.0,0,119,9.0,0.0
38125,35.0,0,119,9.0,0.0
38126,81.0,0,119,9.0,0.0
38127,83.0,0,89,2.0,0.0
38128,95.0,0,89,13.0,0.0
38129,75.0,0,119,12.0,0.0
38130,83.0,30,89,0.0,0.0
38131,75.0,0,119,10.0,0.0
38132,63.0,0,119,11.0,0.0
38133,87.0,0,119,12.0,0.0
38134,71.0,0,89,2.0,0.0
38135,39.0,0,119,15.0,0.0
38136,63.0,0,119,3.0,0.0
38137,51.0,0,119,15.0,0.0
38138,75.0,60,119,8.0,0.0
38139,83.0,0,89,1.0,0.0
38140,39.0,0,119,3.0,0.0
38141,71.0,0,89,1.0,0.0
38142,71.0,0,119,12.0,0.0
38143,83.0,0,119,12.0,0.0
38144,71.0,0,104,10.0,0.0
38145,47.0,0,119,3.0,0.0
38146,59.0,0,119,3.0,0.0
38147,71.0,0,104,8.0,0.0
38148,59.0,0,104,11.0,0.0
38149,47.0,0,119,15.0,0.0
38150,83.0,0,59,1.0,0.0
38151,35.0,0,119,15.0,0.0
38152,71.0,0,59,1.0,0.0
38153,83.0,45,59,2.0,0.0
38154,71.0,0,59,2.0,0.0
38155,35.0,120,119,3.0,0.0
38156,95.0,0,59,13.0,0.0
38157,81.0,0,119,9.0,0.0
38158,83.0,0,59,0.0,0.0
38159,59.0,0,119,14.0,0.0
38160,81.0,0,59,2.0,0.0
38161,81.0,0,59,1.0,0.0
38162,93.0,0,59,13.0,0.0
38163,69.0,0,59,2.0,0.0
38164,69.0,0,59,1.0,0.0
38165,93.0,0,59,0.0,0.0
38166,76.0,0,119,8.0,0.0
38167,64.0,0,119,3.0,0.0
38168,52.0,0,119,3.0,0.0
38169,91.0,0,119,13.0,0.0
38170,52.0,0,119,11.0,0.0
38171,35.0,0,119,9.0,0.0
38172,49.0,0,119,9.0,0.0
38173,81.0,60,119,9.0,0.0
38174,64.0,0,119,14.0,0.0
38175,93.0,0,119,0.0,0.0
38176,40.0,0,119,3.0,0.0
38177,52.0,0,119,6.0,0.0
38178,64.0,0,119,10.0,0.0
38179,88.0,0,119,12.0,0.0
38180,64.0,0,119,11.0,0.0
38181,67.0,0,119,2.0,0.0
38182,79.0,0,119,2.0,0.0
38183,64.0,0,119,6.0,0.0
38184,64.0,0,119,4.0,0.0
38185,40.0,0,119,15.0,0.0
38186,52.0,0,119,15.0,0.0
38187,67.0,0,119,1.0,0.0
38188,76.0,0,119,12.0,0.0
38189,79.0,0,119,1.0,0.0
38190,42.0,0,119,15.0,0.0
38191,67.0,0,59,2.0,0.0
38192,78.0,0,119,12.0,0.0
38193,66.0,0,119,11.0,0.0
38194,40.0,0,59,3.0,0.0
38195,52.0,0,59,3.0,0.0
38196,67.0,0,59,1.0,0.0
38197,79.0,0,59,1.0,0.0
38198,66.0,0,119,10.0,0.0
38199,79.0,0,59,2.0,0.0
38200,91.0,0,59,0.0,0.0
38201,54.0,0,119,14.0,0.0
38202,78.0,0,119,8.0,0.0
38203,54.0,0,119,15.0,0.0
38204,64.0,0,119,4.0,0.0
38205,66.0,0,119,12.0,0.0
38206,91.0,60,59,13.0,0.0
38207,54.0,0,119,11.0,0.0
38208,78.0,0,59,1.0,0.0
38209,90.0,0,59,13.0,0.0
38210,54.0,0,59,3.0,0.0
38211,42.0,0,59,3.0,0.0
38212,90.0,0,59,0.0,0.0
38213,66.0,0,59,1.0,0.0
38214,66.0,0,59,2.0,0.0
38215,78.0,0,59,2.0,0.0
38216,35.0,0,119,9.0,0.0
38217,49.0,60,119,9.0,0.0
38218,81.0,0,119,9.0,0.0
38219,55.0,0,119,3.0,0.0
38220,67.0,0,119,11.0,0.0
38221,67.0,0,119,10.0,0.0
38222,79.0,0,119,12.0,0.0
38223,79.0,0,119,8.0,0.0
38224,88.0,0,119,0.0,0.0
38225,55.0,0,119,15.0,0.0
38226,55.0,0,119,14.0,0.0
38227,76.0,0,119,1.0,0.0
38228,43.0,0,119,15.0,0.0
38229,88.0,0,119,13.0,0.0
38230,64.0,0,119,1.0,0.0
38231,43.0,0,119,3.0,0.0
38232,76.0,0,119,2.0,0.0
38233,55.0,0,119,11.0,0.0
38234,64.0,0,119,2.0,0.0
38235,67.0,0,119,12.0,0.0
38236,64.0,0,119,4.0,0.0
38237,56.0,120,119,3.0,0.0
38238,88.0,0,59,13.0,0.0
38239,68.0,0,119,10.0,0.0
38240,80.0,0,119,12.0,0.0
38241,80.0,0,119,8.0,0.0
38242,88.0,0,59,0.0,0.0
38243,56.0,0,119,15.0,0.0
38244,56.0,0,119,14.0,0.0
38245,68.0,0,119,12.0,0.0
38246,56.0,0,119,11.0,0.0
38247,64.0,0,59,1.0,0.0
38248,76.0,0,59,1.0,0.0
38249,44.0,0,119,3.0,0.0
38250,64.0,60,59,2.0,0.0
38251,64.0,0,119,4.0,0.0
38252,76.0,0,59,2.0,0.0
38253,44.0,0,119,15.0,0.0
38254,86.0,0,59,13.0,0.0
38255,86.0,0,59,0.0,0.0
38256,62.0,0,59,1.0,0.0
38257,74.0,0,59,2.0,0.0
38258,74.0,0,59,1.0,0.0
38259,62.0,0,59,2.0,0.0
38260,35.0,0,119,9.0,0.0
38261,85.0,0,119,0.0,0.0
38262,45.0,0,119,15.0,0.0
38263,69.0,0,119,6.0,0.0
38264,81.0,0,119,9.0,0.0
38265,81.0,0,119,12.0,0.0
38266,81.0,60,119,8.0,0.0
38267,45.0,0,119,7.0,0.0
38268,61.0,0,119,2.0,0.0
38269,49.0,0,119,9.0,0.0
38270,57.0,0,119,6.0,0.0
38271,64.0,0,119,4.0,0.0
38272,69.0,0,119,10.0,0.0
38273,57.0,0,119,11.0,0.0
38274,85.0,0,119,13.0,0.0
38275,57.0,0,119,15.0,0.0
38276,57.0,0,119,5.0,0.0
38277,69.0,0,119,12.0,0.0
38278,57.0,0,119,4.0,0.0
38279,73.0,0,119,2.0,0.0
38280,73.0,0,119,1.0,0.0
38281,57.0,0,119,3.0,0.0
38282,45.0,0,119,3.0,0.0
38283,69.0,0,119,5.0,0.0
38284,57.0,0,119,14.0,0.0
38285,68.0,0,119,12.0,0.0
38286,80.0,0,119,8.0,0.0
38287,68.0,0,119,10.0,0.0
38288,56.0,0,119,3.0,0.0
38289,56.0,0,119,11.0,0.0
38290,44.0,0,119,3.0,0.0
38291,56.0,120,119,14.0,0.0
38292,45.0,0,119,7.0,0.0
38293,57.0,0,119,5.0,0.0
38294,73.0,0,59,2.0,0.0
38295,69.0,0,119,5.0,0.0
38296,56.0,0,119,15.0,0.0
38297,80.0,0,119,12.0,0.0
38298,85.0,0,59,0.0,0.0
38299,73.0,0,59,1.0,0.0
38300,64.0,0,119,4.0,0.0
38301,44.0,0,119,15.0,0.0
38302,85.0,60,59,2.0,0.0
38303,85.0,0,59,13.0,0.0
38304,81.0,0,119,9.0,0.0
38305,83.0,0,59,2.0,0.0
38306,71.0,0,59,2.0,0.0
38307,83.0,0,59,0.0,0.0
38308,83.0,0,59,13.0,0.0
38309,71.0,0,59,1.0,0.0
38310,81.0,0,119,8.0,0.0
38311,45.0,0,119,7.0,0.0
38312,81.0,0,119,9.0,0.0
38313,81.0,0,119,12.0,0.0
38314,57.0,0,119,4.0,0.0
38315,69.0,0,119,1.0,0.0
38316,69.0,0,119,2.0,0.0
38317,81.0,0,119,0.0,0.0
38318,81.0,0,119,2.0,0.0
38319,81.0,0,119,13.0,0.0
38320,45.0,0,119,15.0,0.0
38321,69.0,0,119,5.0,0.0
38322,57.0,0,119,5.0,0.0
38323,57.0,0,119,15.0,0.0
38324,57.0,0,119,14.0,0.0
38325,57.0,0,119,3.0,0.0
38326,69.0,0,119,10.0,0.0
38327,45.0,0,119,3.0,0.0
38328,69.0,0,119,12.0,0.0
38329,57.0,0,119,11.0,0.0
38330,59.0,0,59,15.0,0.0
38331,51.0,0,119,3.0,0.0
38332,47.0,0,59,3.0,0.0
38333,75.0,0,119,1.0,0.0
38334,63.0,0,119,1.0,0.0
38335,59.0,0,59,14.0,0.0
38336,71.0,60,59,12.0,0.0
38337,83.0,0,59,12.0,0.0
38338,81.0,0,119,9.0,0.0
38339,47.0,0,59,15.0,0.0
38340,75.0,0,119,2.0,0.0
38341,63.0,0,119,2.0,0.0
38342,87.0,0,119,13.0,0.0
38343,87.0,0,119,0.0,0.0
38344,57.0,0,59,15.0,0.0
38345,45.0,0,59,3.0,0.0
38346,81.0,0,59,12.0,0.0
38347,57.0,90,59,14.0,0.0
38348,45.0,0,59,15.0,0.0
38349,69.0,0,59,12.0,0.0
38350,67.0,0,119,6.0,0.0
38351,88.0,0,119,13.0,0.0
38352,49.0,0,119,9.0,0.0
38353,35.0,0,119,9.0,0.0
38354,55.0,0,89,15.0,0.0
38355,81.0,0,119,9.0,0.0
38356,76.0,60,119,2.0,0.0
38357,64.0,0,119,2.0,0.0
38358,55.0,0,119,6.0,0.0
38359,67.0,0,119,4.0,0.0
38360,67.0,0,89,12.0,0.0
38361,79.0,0,89,12.0,0.0
38362,43.0,30,89,15.0,0.0
38363,76.0,0,119,1.0,0.0
38364,64.0,0,119,1.0,0.0
38365,43.0,0,89,3.0,0.0
38366,55.0,0,89,14.0,0.0
38367,52.0,0,119,3.0,0.0
38368,88.0,0,119,0.0,0.0
38369,66.0,0,119,1.0,0.0
38370,90.0,0,119,0.0,0.0
38371,64.0,0,119,4.0,0.0
38372,78.0,0,119,1.0,0.0
38373,67.0,0,59,12.0,0.0
38374,43.0,0,59,15.0,0.0
38375,79.0,0,59,12.0,0.0
38376,90.0,0,119,13.0,0.0
38377,66.0,0,119,2.0,0.0
38378,78.0,0,119,2.0,0.0
38379,55.0,0,59,15.0,0.0
38380,54.0,0,119,3.0,0.0
38381,43.0,0,59,3.0,0.0
38382,67.0,60,59,14.0,0.0
38383,66.0,0,59,12.0,0.0
38384,78.0,0,59,12.0,0.0
38385,66.0,0,59,14.0,0.0
38386,54.0,90,59,15.0,0.0
38387,42.0,0,59,3.0,0.0
38388,42.0,0,59,15.0,0.0
38389,64.0,0,89,14.0,0.0
38390,91.0,0,119,0.0,0.0
38391,55.0,0,119,3.0,0.0
38392,76.0,0,89,12.0,0.0
38393,79.0,0,119,1.0,0.0
38394,67.0,0,119,1.0,0.0
38395,67.0,60,119,2.0,0.0
38396,40.0,30,89,3.0,0.0
38397,64.0,0,119,6.0,0.0
38398,79.0,0,119,2.0,0.0
38399,52.0,0,119,6.0,0.0
38400,40.0,0,89,15.0,0.0
38401,91.0,0,119,13.0,0.0
38402,49.0,0,119,9.0,0.0
38403,81.0,0,119,9.0,0.0
38404,35.0,0,119,9.0,0.0
38405,64.0,0,89,12.0,0.0
38406,64.0,0,119,4.0,0.0
38407,52.0,0,89,15.0,0.0
38408,52.0,0,59,15.0,0.0
38409,64.0,0,59,14.0,0.0
38410,80.0,0,119,2.0,0.0
38411,68.0,0,119,2.0,0.0
38412,64.0,0,59,12.0,0.0
38413,40.0,60,59,15.0,0.0
38414,68.0,0,119,10.0,0.0
38415,92.0,0,119,13.0,0.0
38416,56.0,0,119,11.0,0.0
38417,56.0,0,119,3.0,0.0
38418,64.0,0,119,4.0,0.0
38419,40.0,0,59,3.0,0.0
38420,92.0,0,119,0.0,0.0
38421,80.0,0,119,8.0,0.0
38422,76.0,0,59,12.0,0.0
38423,80.0,0,119,1.0,0.0
38424,68.0,0,119,1.0,0.0
38425,62.0,0,59,14.0,0.0
38426,38.0,0,59,15.0,0.0
38427,62.0,0,59,12.0,0.0
38428,38.0,0,59,3.0,0.0
38429,74.0,90,59,12.0,0.0
38430,50.0,0,59,15.0,0.0
38431,61.0,0,89,12.0,0.0
38432,61.0,0,119,6.0,0.0
38433,69.0,0,119,10.0,0.0
38434,49.0,0,119,6.0,0.0
38435,49.0,0,119,9.0,0.0
38436,81.0,0,119,9.0,0.0
38437,93.0,0,119,0.0,0.0
38438,69.0,0,119,5.0,0.0
38439,57.0,0,119,5.0,0.0
38440,57.0,0,119,3.0,0.0
38441,49.0,0,89,15.0,0.0
38442,61.0,0,89,14.0,0.0
38443,81.0,0,119,8.0,0.0
38444,93.0,0,119,13.0,0.0
38445,35.0,0,119,9.0,0.0
38446,57.0,0,119,11.0,0.0
38447,69.0,0,119,1.0,0.0
38448,81.0,0,119,1.0,0.0
38449,37.0,30,89,15.0,0.0
38450,69.0,0,119,2.0,0.0
38451,81.0,0,119,2.0,0.0
38452,73.0,0,89,12.0,0.0
38453,45.0,0,119,7.0,0.0
38454,64.0,0,119,4.0,0.0
38455,57.0,0,119,4.0,0.0
38456,37.0,0,89,3.0,0.0
38457,37.0,0,59,3.0,0.0
38458,80.0,0,119,2.0,0.0
38459,68.0,0,119,2.0,0.0
38460,61.0,0,59,14.0,0.0
38461,49.0,0,59,15.0,0.0
38462,56.0,0,119,3.0,0.0
38463,37.0,0,59,15.0,0.0
38464,92.0,0,119,13.0,0.0
38465,73.0,0,119,5.0,0.0
38466,92.0,0,119,0.0,0.0
38467,81.0,0,119,9.0,0.0
38468,68.0,0,119,10.0,0.0
38469,45.0,0,119,7.0,0.0
38470,73.0,60,59,12.0,0.0
38471,80.0,60,119,8.0,0.0
38472,68.0,0,119,1.0,0.0
38473,56.0,0,119,11.0,0.0
38474,61.0,0,59,12.0,0.0
38475,64.0,0,119,4.0,0.0
38476,80.0,0,119,1.0,0.0
38477,47.0,0,59,15.0,0.0
38478,59.0,0,59,12.0,0.0
38479,59.0,0,59,14.0,0.0
38480,35.0,0,59,15.0,0.0
38481,35.0,0,59,3.0,0.0
38482,71.0,0,59,12.0,0.0
38483,93.0,0,59,0.0,0.0
38484,81.0,0,1664,8.0,0.0
38485,57.0,0,59,12.0,0.0
38486,69.0,0,1664,10.0,0.0
38487,93.0,0,59,13.0,0.0
38488,69.0,0,239,5.0,0.0
38489,57.0,0,59,3.0,0.0
38490,69.0,0,59,12.0,0.0
38491,45.0,30,59,7.0,0.0
38492,81.0,0,59,2.0,0.0
38493,57.0,0,239,5.0,0.0
38494,33.0,0,89,15.0,0.0
38495,57.0,0,59,14.0,0.0
38496,57.0,0,119,6.0,0.0
38497,81.0,0,59,1.0,0.0
38498,57.0,0,1664,11.0,0.0
38499,69.0,0,59,1.0,0.0
38500,81.0,0,119,9.0,0.0
38501,57.0,0,239,4.0,0.0
38502,33.0,0,89,3.0,0.0
38503,69.0,0,59,2.0,0.0
38504,45.0,30,89,15.0,0.0
38505,45.0,0,119,6.0,0.0
38506,69.0,0,59,14.0,0.0
38507,71.0,0,59,2.0,0.0
38508,69.0,60,59,12.0,0.0
38509,83.0,0,59,0.0,0.0
38510,71.0,0,59,1.0,0.0
38511,95.0,0,59,13.0,0.0
38512,83.0,0,59,1.0,0.0
38513,45.0,0,59,7.0,0.0
38514,59.0,0,59,3.0,0.0
38515,81.0,0,59,12.0,0.0
38516,83.0,0,59,2.0,0.0
38517,85.0,0,59,2.0,0.0
38518,81.0,0,119,9.0,0.0
38519,45.0,0,119,3.0,0.0
38520,97.0,0,59,13.0,0.0
38521,45.0,0,119,15.0,0.0
38522,69.0,0,59,12.0,0.0
38523,73.0,60,59,2.0,0.0
38524,61.0,0,59,3.0,0.0
38525,73.0,0,59,1.0,0.0
38526,85.0,0,59,1.0,0.0
38527,69.0,0,59,14.0,0.0
38528,45.0,0,59,7.0,0.0
38529,69.0,0,119,4.0,0.0
38530,81.0,0,59,12.0,0.0
38531,85.0,0,59,0.0,0.0
38532,57.0,0,119,15.0,0.0
38533,57.0,0,59,14.0,0.0
38534,86.0,0,59,1.0,0.0
38535,74.0,0,59,2.0,0.0
38536,81.0,0,59,12.0,0.0
38537,86.0,0,59,2.0,0.0
38538,86.0,0,59,0.0,0.0
38539,62.0,0,59,3.0,0.0
38540,98.0,0,59,13.0,0.0
38541,69.0,0,59,12.0,0.0
38542,45.0,0,59,7.0,0.0
38543,74.0,60,59,1.0,0.0
38544,64.0,0,179,2.0,0.0
38545,81.0,0,59,12.0,0.0
38546,64.0,0,179,4.0,0.0
38547,69.0,0,59,12.0,0.0
38548,76.0,0,179,2.0,0.0
38549,76.0,0,179,1.0,0.0
38550,43.0,0,119,15.0,0.0
38551,76.0,60,59,12.0,0.0
38552,100.0,0,179,13.0,0.0
38553,55.0,60,119,15.0,0.0
38554,55.0,0,59,14.0,0.0
38555,57.0,0,479,5.0,0.0
38556,69.0,0,479,5.0,0.0
38557,88.0,0,179,0.0,0.0
38558,35.0,0,119,9.0,0.0
38559,49.0,0,119,9.0,0.0
38560,43.0,0,119,3.0,0.0
38561,45.0,0,59,7.0,0.0
38562,81.0,0,119,9.0,0.0
38563,64.0,0,179,3.0,0.0
38564,55.0,0,59,14.0,0.0
38565,45.0,0,59,7.0,0.0
38566,81.0,0,59,12.0,0.0
38567,76.0,0,59,12.0,0.0
38568,69.0,0,59,12.0,0.0
38569,45.0,60,119,15.0,0.0
38570,57.0,60,59,14.0,0.0
38571,45.0,0,119,3.0,0.0
38572,81.0,0,119,9.0,0.0
38573,57.0,0,119,15.0,0.0
38574,69.0,0,59,12.0,0.0
38575,81.0,0,59,12.0,0.0
38576,45.0,0,59,7.0,0.0
38577,76.0,0,59,12.0,0.0
38578,45.0,0,59,7.0,0.0
38579,78.0,0,59,1.0,0.0
38580,69.0,0,59,12.0,0.0
38581,81.0,0,59,12.0,0.0
38582,66.0,0,59,4.0,0.0
38583,78.0,0,59,2.0,0.0
38584,102.0,0,59,13.0,0.0
38585,78.0,0,59,12.0,0.0
38586,66.0,0,59,2.0,0.0
38587,57.0,0,59,14.0,0.0
38588,90.0,0,59,0.0,0.0
38589,66.0,0,59,3.0,0.0
38590,55.0,0,59,14.0,0.0
38591,76.0,0,59,12.0,0.0
38592,55.0,0,119,15.0,0.0
38593,76.0,0,119,1.0,0.0
38594,43.0,0,119,15.0,0.0
38595,76.0,0,119,2.0,0.0
38596,43.0,0,119,3.0,0.0
38597,88.0,0,119,0.0,0.0
38598,45.0,0,59,7.0,0.0
38599,81.0,0,119,9.0,0.0
38600,64.0,0,119,3.0,0.0
38601,64.0,60,119,4.0,0.0
38602,64.0,0,119,2.0,0.0
38603,69.0,0,59,12.0,0.0
38604,81.0,60,59,12.0,0.0
38605,100.0,0,119,13.0,0.0
38606,76.0,0,59,12.0,0.0
38607,45.0,0,59,7.0,0.0
38608,55.0,0,59,14.0,0.0
38609,69.0,0,59,12.0,0.0
38610,81.0,0,59,12.0,0.0
38611,86.0,60,119,0.0,0.0
38612,62.0,0,119,3.0,0.0
38613,74.0,0,119,1.0,0.0
38614,54.0,0,119,15.0,0.0
38615,42.0,0,119,15.0,0.0
38616,42.0,0,119,3.0,0.0
38617,62.0,0,119,2.0,0.0
38618,54.0,0,119,6.0,0.0
38619,98.0,0,119,13.0,0.0
38620,62.0,0,119,6.0,0.0
38621,54.0,0,59,14.0,0.0
38622,81.0,0,119,9.0,0.0
38623,74.0,60,59,12.0,0.0
38624,74.0,0,119,2.0,0.0
38625,81.0,0,59,12.0,0.0
38626,69.0,0,59,12.0,0.0
38627,62.0,0,119,4.0,0.0
38628,45.0,0,59,7.0,0.0
38629,57.0,0,239,6.0,0.0
38630,45.0,0,59,7.0,0.0
38631,74.0,0,59,12.0,0.0
38632,81.0,0,59,12.0,0.0
38633,69.0,0,59,12.0,0.0
38634,54.0,0,59,14.0,0.0
38635,55.0,0,119,6.0,0.0
38636,49.0,0,119,9.0,0.0
38637,35.0,0,119,9.0,0.0
38638,64.0,0,119,6.0,0.0
38639,81.0,0,119,9.0,0.0
38640,43.0,0,119,3.0,0.0
38641,43.0,0,119,15.0,0.0
38642,45.0,0,59,7.0,0.0
38643,64.0,0,179,3.0,0.0
38644,64.0,0,179,2.0,0.0
38645,57.0,0,479,5.0,0.0
38646,88.0,0,179,0.0,0.0
38647,69.0,0,479,5.0,0.0
38648,55.0,0,119,15.0,0.0
38649,100.0,0,179,13.0,0.0
38650,76.0,0,179,2.0,0.0
38651,55.0,0,59,14.0,0.0
38652,76.0,0,59,12.0,0.0
38653,76.0,0,179,1.0,0.0
38654,81.0,60,59,12.0,0.0
38655,69.0,0,59,12.0,0.0
38656,64.0,0,179,4.0,0.0
38657,81.0,60,59,12.0,0.0
38658,69.0,0,59,12.0,0.0
38659,76.0,0,59,12.0,0.0
38660,55.0,0,59,14.0,0.0
38661,45.0,0,59,7.0,0.0
38662,45.0,60,59,7.0,0.0
38663,45.0,0,119,15.0,0.0
38664,81.0,0,59,12.0,0.0
38665,81.0,60,119,9.0,0.0
38666,57.0,0,119,15.0,0.0
38667,45.0,0,119,3.0,0.0
38668,76.0,0,59,12.0,0.0
38669,57.0,0,59,14.0,0.0
38670,69.0,0,59,12.0,0.0
38671,57.0,0,59,14.0,0.0
38672,78.0,0,59,12.0,0.0
38673,69.0,0,59,12.0,0.0
38674,66.0,0,59,2.0,0.0
38675,78.0,0,59,2.0,0.0
38676,102.0,0,59,13.0,0.0
38677,81.0,0,59,12.0,0.0
38678,66.0,0,59,4.0,0.0
38679,66.0,0,59,3.0,0.0
38680,45.0,0,59,7.0,0.0
38681,90.0,0,59,0.0,0.0
38682,78.0,0,59,1.0,0.0
38683,64.0,0,119,4.0,0.0
38684,76.0,0,59,12.0,0.0
38685,64.0,0,119,3.0,0.0
38686,88.0,0,119,0.0,0.0
38687,100.0,0,119,13.0,0.0
38688,81.0,0,119,9.0,0.0
38689,76.0,0,119,2.0,0.0
38690,64.0,0,119,2.0,0.0
38691,76.0,0,119,1.0,0.0
38692,43.0,0,119,15.0,0.0
38693,69.0,0,59,12.0,0.0
38694,81.0,0,59,12.0,0.0
38695,55.0,0,59,14.0,0.0
38696,55.0,0,119,15.0,0.0
38697,43.0,0,119,3.0,0.0
38698,45.0,60,59,7.0,0.0
38699,45.0,0,59,7.0,0.0
38700,76.0,0,59,12.0,0.0
38701,81.0,0,59,12.0,0.0
38702,55.0,60,59,14.0,0.0
38703,69.0,0,59,12.0,0.0
38704,54.0,0,119,6.0,0.0
38705,74.0,0,59,12.0,0.0
38706,42.0,0,119,3.0,0.0
38707,42.0,0,119,15.0,0.0
38708,74.0,0,119,1.0,0.0
38709,69.0,0,59,12.0,0.0
38710,81.0,0,59,12.0,0.0
38711,62.0,0,119,4.0,0.0
38712,98.0,0,119,13.0,0.0
38713,45.0,0,59,7.0,0.0
38714,54.0,0,119,15.0,0.0
38715,54.0,60,59,14.0,0.0
38716,62.0,0,119,2.0,0.0
38717,74.0,0,119,2.0,0.0
38718,57.0,60,239,6.0,0.0
38719,62.0,60,119,6.0,0.0
38720,81.0,0,119,9.0,0.0
38721,62.0,0,119,3.0,0.0
38722,86.0,0,119,0.0,0.0
38723,45.0,0,59,7.0,0.0
38724,74.0,0,59,12.0,0.0
38725,69.0,0,59,12.0,0.0
38726,81.0,0,59,12.0,0.0
38727,54.0,0,59,14.0,0.0
38728,45.0,0,59,7.0,0.0
38729,64.0,0,179,3.0,0.0
38730,69.0,0,479,5.0,0.0
38731,57.0,0,479,5.0,0.0
38732,88.0,0,179,0.0,0.0
38733,55.0,0,119,15.0,0.0
38734,55.0,0,119,6.0,0.0
38735,76.0,0,179,2.0,0.0
38736,100.0,0,179,13.0,0.0
38737,64.0,0,179,4.0,0.0
38738,43.0,0,119,3.0,0.0
38739,64.0,0,179,2.0,0.0
38740,49.0,0,119,9.0,0.0
38741,35.0,0,119,9.0,0.0
38742,76.0,60,179,1.0,0.0
38743,81.0,0,119,9.0,0.0
38744,55.0,0,59,14.0,0.0
38745,64.0,0,119,6.0,0.0
38746,76.0,0,59,12.0,0.0
38747,43.0,0,119,15.0,0.0
38748,69.0,0,59,12.0,0.0
38749,81.0,60,59,12.0,0.0
38750,76.0,0,59,12.0,0.0
38751,55.0,0,59,14.0,0.0
38752,69.0,0,59,12.0,0.0
38753,81.0,0,59,12.0,0.0
38754,45.0,0,59,7.0,0.0
38755,45.0,0,59,7.0,0.0
38756,57.0,0,59,14.0,0.0
38757,45.0,0,119,3.0,0.0
38758,76.0,0,59,12.0,0.0
38759,81.0,0,119,9.0,0.0
38760,57.0,0,119,15.0,0.0
38761,45.0,0,119,15.0,0.0
38762,81.0,0,59,12.0,0.0
38763,69.0,0,59,12.0,0.0
38764,78.0,0,59,1.0,0.0
38765,57.0,0,59,14.0,0.0
38766,66.0,60,59,4.0,0.0
38767,90.0,0,59,0.0,0.0
38768,78.0,0,59,12.0,0.0
38769,78.0,0,59,2.0,0.0
38770,66.0,0,59,2.0,0.0
38771,66.0,0,59,3.0,0.0
38772,69.0,0,59,12.0,0.0
38773,45.0,0,59,7.0,0.0
38774,102.0,0,59,13.0,0.0
38775,81.0,0,59,12.0,0.0
38776,43.0,0,119,15.0,0.0
38777,69.0,0,59,12.0,0.0
38778,76.0,0,119,1.0,0.0
38779,64.0,0,119,4.0,0.0
38780,55.0,0,119,15.0,0.0
38781,64.0,0,119,2.0,0.0
38782,76.0,0,119,2.0,0.0
38783,45.0,0,59,7.0,0.0
38784,100.0,0,119,13.0,0.0
38785,43.0,0,119,3.0,0.0
38786,81.0,0,119,9.0,0.0
38787,81.0,0,59,12.0,0.0
38788,88.0,0,119,0.0,0.0
38789,64.0,0,119,3.0,0.0
38790,76.0,60,59,12.0,0.0
38791,55.0,0,59,14.0,0.0
38792,45.0,60,59,7.0,0.0
38793,55.0,0,59,14.0,0.0
38794,76.0,0,59,12.0,0.0
38795,81.0,0,59,12.0,0.0
38796,69.0,0,59,12.0,0.0
38797,45.0,0,59,7.0,0.0
38798,54.0,60,119,15.0,0.0
38799,74.0,0,59,12.0,0.0
38800,57.0,0,239,6.0,0.0
38801,62.0,0,119,6.0,0.0
38802,54.0,0,119,6.0,0.0
38803,86.0,0,119,0.0,0.0
38804,62.0,0,119,4.0,0.0
38805,98.0,0,119,13.0,0.0
38806,62.0,0,119,2.0,0.0
38807,74.0,0,119,1.0,0.0
38808,42.0,0,119,3.0,0.0
38809,62.0,0,119,3.0,0.0
38810,69.0,45,59,12.0,0.0
38811,54.0,0,59,14.0,0.0
38812,81.0,0,59,12.0,0.0
38813,74.0,0,119,2.0,0.0
38814,42.0,0,119,15.0,0.0
38815,81.0,0,119,9.0,0.0
38816,45.0,0,59,7.0,0.0
38817,74.0,0,59,12.0,0.0
38818,69.0,0,59,12.0,0.0
38819,81.0,0,59,12.0,0.0
38820,54.0,0,59,14.0,0.0
38821,57.0,0,479,5.0,0.0
38822,64.0,0,179,2.0,0.0
38823,81.0,0,119,9.0,0.0
38824,49.0,0,119,9.0,0.0
38825,55.0,0,119,15.0,0.0
38826,43.0,0,119,15.0,0.0
38827,69.0,0,479,5.0,0.0
38828,76.0,0,179,2.0,0.0
38829,35.0,0,119,9.0,0.0
38830,57.0,0,119,11.0,0.0
38831,69.0,0,59,12.0,0.0
38832,69.0,0,119,10.0,0.0
38833,43.0,0,119,3.0,0.0
38834,64.0,0,179,3.0,0.0
38835,55.0,0,59,14.0,0.0
38836,64.0,0,119,11.0,0.0
38837,64.0,0,179,4.0,0.0
38838,88.0,0,179,0.0,0.0
38839,55.0,60,119,6.0,0.0
38840,81.0,60,59,12.0,0.0
38841,100.0,0,179,13.0,0.0
38842,76.0,0,119,8.0,0.0
38843,76.0,0,59,12.0,0.0
38844,64.0,0,119,6.0,0.0
38845,76.0,0,179,1.0,0.0
38846,45.0,0,59,7.0,0.0
38847,76.0,0,59,12.0,0.0
38848,81.0,0,59,12.0,0.0
38849,69.0,0,59,12.0,0.0
38850,45.0,0,59,7.0,0.0
38851,55.0,0,59,14.0,0.0
38852,81.0,0,59,12.0,0.0
38853,57.0,0,119,11.0,0.0
38854,45.0,60,119,15.0,0.0
38855,81.0,0,119,9.0,0.0
38856,64.0,0,119,11.0,0.0
38857,57.0,0,119,15.0,0.0
38858,76.0,0,119,8.0,0.0
38859,45.0,0,59,7.0,0.0
38860,69.0,0,119,10.0,0.0
38861,45.0,0,119,3.0,0.0
38862,57.0,0,59,14.0,0.0
38863,69.0,60,59,12.0,0.0
38864,76.0,0,59,12.0,0.0
38865,90.0,0,59,0.0,0.0
38866,78.0,0,59,12.0,0.0
38867,57.0,0,59,14.0,0.0
38868,45.0,0,59,7.0,0.0
38869,102.0,0,59,13.0,0.0
38870,66.0,0,59,3.0,0.0
38871,69.0,0,59,12.0,0.0
38872,78.0,0,59,1.0,0.0
38873,66.0,0,59,4.0,0.0
38874,78.0,0,59,2.0,0.0
38875,66.0,0,59,2.0,0.0
38876,81.0,0,59,12.0,0.0
38877,100.0,0,119,13.0,0.0
38878,81.0,60,59,12.0,0.0
38879,45.0,0,59,7.0,0.0
38880,81.0,0,119,9.0,0.0
38881,69.0,0,59,12.0,0.0
38882,64.0,0,119,4.0,0.0
38883,64.0,0,119,3.0,0.0
38884,55.0,0,119,15.0,0.0
38885,64.0,0,119,2.0,0.0
38886,43.0,0,119,15.0,0.0
38887,88.0,0,119,0.0,0.0
38888,76.0,0,59,12.0,0.0
38889,43.0,0,119,3.0,0.0
38890,55.0,0,59,14.0,0.0
38891,76.0,60,119,1.0,0.0
38892,76.0,0,119,2.0,0.0
38893,69.0,0,59,12.0,0.0
38894,81.0,0,59,12.0,0.0
38895,76.0,0,59,12.0,0.0
38896,45.0,0,59,7.0,0.0
38897,55.0,0,59,14.0,0.0
38898,62.0,0,119,6.0,0.0
38899,69.0,0,59,12.0,0.0
38900,81.0,0,59,12.0,0.0
38901,74.0,60,59,12.0,0.0
38902,54.0,0,119,6.0,0.0
38903,42.0,0,119,3.0,0.0
38904,62.0,0,119,2.0,0.0
38905,74.0,0,119,2.0,0.0
38906,81.0,0,119,9.0,0.0
38907,86.0,0,119,0.0,0.0
38908,74.0,0,119,1.0,0.0
38909,57.0,0,239,6.0,0.0
38910,54.0,0,59,14.0,0.0
38911,62.0,0,119,3.0,0.0
38912,62.0,0,119,4.0,0.0
38913,42.0,0,119,15.0,0.0
38914,45.0,0,59,7.0,0.0
38915,54.0,0,119,15.0,0.0
38916,98.0,0,119,13.0,0.0
38917,45.0,30,59,7.0,0.0
38918,69.0,0,59,12.0,0.0
38919,81.0,0,59,12.0,0.0
38920,74.0,0,59,12.0,0.0
38921,54.0,0,59,14.0,0.0
38922,64.0,0,179,4.0,0.0
38923,45.0,0,59,7.0,0.0
38924,55.0,0,119,15.0,0.0
38925,69.0,0,59,12.0,0.0
38926,64.0,0,179,3.0,0.0
38927,64.0,0,179,11.0,0.0
38928,43.0,0,119,15.0,0.0
38929,55.0,0,119,6.0,0.0
38930,55.0,30,59,14.0,0.0
38931,76.0,0,179,1.0,0.0
38932,88.0,0,179,0.0,0.0
38933,88.0,0,59,12.0,0.0
38934,69.0,0,239,10.0,0.0
38935,81.0,0,59,12.0,0.0
38936,64.0,0,119,6.0,0.0
38937,57.0,0,1919,4.0,0.0
38938,69.0,0,1919,5.0,0.0
38939,35.0,0,119,9.0,0.0
38940,81.0,0,119,9.0,0.0
38941,49.0,0,119,9.0,0.0
38942,76.0,0,179,8.0,0.0
38943,55.0,0,119,11.0,0.0
38944,81.0,0,1919,5.0,0.0
38945,76.0,0,179,2.0,0.0
38946,93.0,30,29,13.0,0.0
38947,69.0,0,1919,4.0,0.0
38948,64.0,0,179,2.0,0.0
38949,43.0,0,119,3.0,0.0
38950,95.0,0,29,13.0,0.0
38951,55.0,30,59,14.0,0.0
38952,76.0,0,59,12.0,0.0
38953,45.0,0,59,7.0,0.0
38954,69.0,0,59,12.0,0.0
38955,81.0,0,59,12.0,0.0
38956,93.0,30,29,13.0,0.0
38957,95.0,0,29,13.0,0.0
38958,81.0,30,59,12.0,0.0
38959,69.0,0,59,12.0,0.0
38960,45.0,0,119,15.0,0.0
38961,57.0,0,59,14.0,0.0
38962,93.0,30,29,13.0,0.0
38963,81.0,0,119,9.0,0.0
38964,57.0,0,119,15.0,0.0
38965,45.0,0,119,3.0,0.0
38966,76.0,0,59,12.0,0.0
38967,45.0,0,59,7.0,0.0
38968,57.0,0,119,11.0,0.0
38969,95.0,0,29,13.0,0.0
38970,93.0,30,29,13.0,0.0
38971,66.0,0,59,11.0,0.0
38972,45.0,0,59,7.0,0.0
38973,78.0,0,59,8.0,0.0
38974,90.0,0,59,0.0,0.0
38975,78.0,0,59,1.0,0.0
38976,66.0,0,59,3.0,0.0
38977,78.0,0,59,12.0,0.0
38978,66.0,0,59,2.0,0.0
38979,66.0,0,59,4.0,0.0
38980,78.0,0,59,2.0,0.0
38981,81.0,30,59,12.0,0.0
38982,69.0,0,59,12.0,0.0
38983,57.0,0,59,14.0,0.0
38984,95.0,0,29,13.0,0.0
38985,64.0,0,119,3.0,0.0
38986,55.0,0,119,15.0,0.0
38987,88.0,0,119,0.0,0.0
38988,76.0,0,59,12.0,0.0
38989,81.0,0,59,12.0,0.0
38990,81.0,0,119,9.0,0.0
38991,43.0,0,119,15.0,0.0
38992,69.0,0,239,10.0,0.0
38993,64.0,0,119,4.0,0.0
38994,45.0,0,59,7.0,0.0
38995,76.0,0,119,1.0,0.0
38996,43.0,0,119,3.0,0.0
38997,55.0,0,119,11.0,0.0
38998,64.0,0,119,2.0,0.0
38999,76.0,0,119,2.0,0.0
39000,64.0,30,119,11.0,0.0
39001,76.0,0,119,8.0,0.0
39002,69.0,0,59,12.0,0.0
39003,93.0,30,29,13.0,0.0
39004,55.0,30,59,14.0,0.0
39005,95.0,0,29,13.0,0.0
39006,76.0,0,59,12.0,0.0
39007,69.0,0,59,12.0,0.0
39008,81.0,0,59,12.0,0.0
39009,45.0,0,59,7.0,0.0
39010,55.0,0,59,14.0,0.0
39011,93.0,30,29,13.0,0.0
39012,95.0,0,29,13.0,0.0
39013,42.0,30,119,3.0,0.0
39014,62.0,0,119,2.0,0.0
39015,62.0,0,119,4.0,0.0
39016,54.0,0,59,14.0,0.0
39017,74.0,0,119,1.0,0.0
39018,74.0,0,119,2.0,0.0
39019,74.0,0,119,8.0,0.0
39020,69.0,0,59,12.0,0.0
39021,81.0,0,59,12.0,0.0
39022,62.0,0,119,3.0,0.0
39023,81.0,0,119,9.0,0.0
39024,86.0,0,119,0.0,0.0
39025,54.0,0,119,11.0,0.0
39026,62.0,0,119,11.0,0.0
39027,93.0,30,29,13.0,0.0
39028,54.0,0,119,15.0,0.0
39029,57.0,0,239,6.0,0.0
39030,54.0,0,119,6.0,0.0
39031,62.0,0,119,6.0,0.0
39032,74.0,0,59,12.0,0.0
39033,42.0,0,119,15.0,0.0
39034,45.0,30,59,7.0,0.0
39035,95.0,0,29,13.0,0.0
39036,74.0,0,59,12.0,0.0
39037,69.0,0,59,12.0,0.0
39038,81.0,0,59,12.0,0.0
39039,93.0,30,29,13.0,0.0
39040,45.0,0,59,7.0,0.0
39041,54.0,0,59,14.0,0.0
39042,95.0,0,29,13.0,0.0
39043,76.0,0,59,12.0,0.0
39044,76.0,0,179,8.0,0.0
39045,88.0,0,179,0.0,0.0
39046,64.0,0,179,3.0,0.0
39047,49.0,0,119,9.0,0.0
39048,43.0,0,119,15.0,0.0
39049,55.0,0,119,15.0,0.0
39050,93.0,30,29,13.0,0.0
39051,69.0,0,239,10.0,0.0
39052,43.0,0,119,3.0,0.0
39053,55.0,0,119,11.0,0.0
39054,64.0,30,179,11.0,0.0
39055,64.0,0,179,2.0,0.0
39056,76.0,0,179,2.0,0.0
39057,64.0,0,119,6.0,0.0
39058,55.0,30,119,6.0,0.0
39059,76.0,0,179,1.0,0.0
39060,64.0,0,179,4.0,0.0
39061,55.0,0,59,14.0,0.0
39062,35.0,0,119,9.0,0.0
39063,81.0,0,119,9.0,0.0
39064,45.0,30,59,7.0,0.0
39065,69.0,0,59,12.0,0.0
39066,81.0,0,59,12.0,0.0
39067,95.0,0,29,13.0,0.0
39068,81.0,0,59,12.0,0.0
39069,93.0,30,29,13.0,0.0
39070,55.0,0,59,14.0,0.0
39071,69.0,0,59,12.0,0.0
39072,45.0,0,59,7.0,0.0
39073,76.0,0,59,12.0,0.0
39074,95.0,0,29,13.0,0.0
39075,57.0,0,119,11.0,0.0
39076,57.0,0,59,14.0,0.0
39077,57.0,0,119,15.0,0.0
39078,69.0,0,59,12.0,0.0
39079,81.0,0,59,12.0,0.0
39080,45.0,0,119,15.0,0.0
39081,93.0,30,29,13.0,0.0
39082,45.0,0,119,3.0,0.0
39083,81.0,30,119,9.0,0.0
39084,45.0,0,59,7.0,0.0
39085,76.0,0,59,12.0,0.0
39086,95.0,0,29,13.0,0.0
39087,93.0,30,29,13.0,0.0
39088,45.0,0,59,7.0,0.0
39089,78.0,0,59,12.0,0.0
39090,66.0,0,59,4.0,0.0
39091,69.0,0,59,12.0,0.0
39092,78.0,0,59,1.0,0.0
39093,66.0,0,59,2.0,0.0
39094,66.0,0,59,11.0,0.0
39095,78.0,0,59,2.0,0.0
39096,66.0,0,59,3.0,0.0
39097,81.0,0,59,12.0,0.0
39098,90.0,0,59,0.0,0.0
39099,78.0,0,59,8.0,0.0
39100,57.0,0,59,14.0,0.0
39101,95.0,0,29,13.0,0.0
39102,64.0,0,119,11.0,0.0
39103,45.0,0,59,7.0,0.0
39104,55.0,0,59,14.0,0.0
39105,93.0,30,29,13.0,0.0
39106,64.0,0,119,3.0,0.0
39107,81.0,0,59,12.0,0.0
39108,69.0,0,59,12.0,0.0
39109,43.0,0,119,15.0,0.0
39110,69.0,0,239,10.0,0.0
39111,76.0,0,119,2.0,0.0
39112,64.0,30,119,2.0,0.0
39113,64.0,0,119,4.0,0.0
39114,55.0,0,119,15.0,0.0
39115,88.0,0,119,0.0,0.0
39116,76.0,0,59,12.0,0.0
39117,55.0,0,119,11.0,0.0
39118,76.0,0,119,8.0,0.0
39119,81.0,0,119,9.0,0.0
39120,43.0,0,119,3.0,0.0
39121,76.0,0,119,1.0,0.0
39122,95.0,30,29,13.0,0.0
39123,55.0,0,59,14.0,0.0
39124,81.0,0,59,12.0,0.0
39125,45.0,0,59,7.0,0.0
39126,69.0,0,59,12.0,0.0
39127,93.0,30,29,13.0,0.0
39128,76.0,0,59,12.0,0.0
39129,95.0,0,29,13.0,0.0
39130,62.0,0,119,4.0,0.0
39131,62.0,0,119,11.0,0.0
39132,54.0,0,119,11.0,0.0
39133,54.0,0,119,15.0,0.0
39134,81.0,0,119,9.0,0.0
39135,62.0,0,119,2.0,0.0
39136,54.0,30,59,14.0,0.0
39137,42.0,0,119,3.0,0.0
39138,74.0,0,119,1.0,0.0
39139,86.0,0,119,0.0,0.0
39140,62.0,30,119,3.0,0.0
39141,57.0,0,239,6.0,0.0
39142,69.0,0,59,12.0,0.0
39143,81.0,0,59,12.0,0.0
39144,74.0,0,119,8.0,0.0
39145,62.0,0,119,6.0,0.0
39146,74.0,0,119,2.0,0.0
39147,54.0,0,119,6.0,0.0
39148,42.0,0,119,15.0,0.0
39149,45.0,0,59,7.0,0.0
39150,74.0,0,59,12.0,0.0
39151,93.0,30,29,13.0,0.0
39152,95.0,0,29,13.0,0.0
39153,69.0,0,59,12.0,0.0
39154,54.0,0,59,14.0,0.0
39155,93.0,30,29,13.0,0.0
39156,45.0,0,59,7.0,0.0
39157,74.0,0,59,12.0,0.0
39158,81.0,0,59,12.0,0.0
39159,95.0,0,29,13.0,0.0
39160,64.0,0,179,11.0,0.0
39161,43.0,0,119,3.0,0.0
39162,76.0,0,179,1.0,0.0
39163,55.0,0,119,11.0,0.0
39164,64.0,0,179,3.0,0.0
39165,81.0,0,119,9.0,0.0
39166,93.0,30,29,13.0,0.0
39167,55.0,0,119,6.0,0.0
39168,69.0,0,59,12.0,0.0
39169,81.0,30,59,12.0,0.0
39170,35.0,0,119,9.0,0.0
39171,49.0,0,119,9.0,0.0
39172,88.0,30,179,0.0,0.0
39173,69.0,0,239,10.0,0.0
39174,55.0,0,59,14.0,0.0
39175,76.0,0,59,12.0,0.0
39176,76.0,0,179,8.0,0.0
39177,45.0,0,59,7.0,0.0
39178,64.0,0,179,4.0,0.0
39179,43.0,0,119,15.0,0.0
39180,64.0,0,179,2.0,0.0
39181,55.0,0,119,15.0,0.0
39182,76.0,0,179,2.0,0.0
39183,64.0,0,119,6.0,0.0
39184,95.0,0,29,13.0,0.0
39185,93.0,30,29,13.0,0.0
39186,55.0,0,59,14.0,0.0
39187,45.0,0,59,7.0,0.0
39188,76.0,0,59,12.0,0.0
39189,69.0,30,59,12.0,0.0
39190,81.0,0,59,12.0,0.0
39191,95.0,0,29,13.0,0.0
39192,57.0,0,119,11.0,0.0
39193,81.0,0,119,9.0,0.0
39194,76.0,0,59,12.0,0.0
39195,57.0,0,119,15.0,0.0
39196,57.0,0,59,14.0,0.0
39197,45.0,0,59,7.0,0.0
39198,45.0,0,119,15.0,0.0
39199,45.0,0,119,3.0,0.0
39200,69.0,0,59,12.0,0.0
39201,93.0,30,29,13.0,0.0
39202,81.0,0,59,12.0,0.0
39203,95.0,0,29,13.0,0.0
39204,90.0,0,59,0.0,0.0
39205,81.0,0,59,12.0,0.0
39206,69.0,30,59,12.0,0.0
39207,66.0,0,59,4.0,0.0
39208,78.0,0,59,2.0,0.0
39209,93.0,30,29,13.0,0.0
39210,78.0,0,59,8.0,0.0
39211,66.0,0,59,11.0,0.0
39212,57.0,0,59,14.0,0.0
39213,66.0,0,59,3.0,0.0
39214,45.0,0,59,7.0,0.0
39215,78.0,0,59,12.0,0.0
39216,66.0,0,59,2.0,0.0
39217,78.0,0,59,1.0,0.0
39218,95.0,0,29,13.0,0.0
39219,64.0,30,119,4.0,0.0
39220,43.0,0,119,15.0,0.0
39221,88.0,0,119,0.0,0.0
39222,55.0,0,119,11.0,0.0
39223,55.0,0,59,14.0,0.0
39224,64.0,0,119,11.0,0.0
39225,69.0,30,59,12.0,0.0
39226,81.0,0,59,12.0,0.0
39227,76.0,0,119,1.0,0.0
39228,81.0,0,119,9.0,0.0
39229,76.0,0,119,8.0,0.0
39230,64.0,0,119,2.0,0.0
39231,45.0,0,59,7.0,0.0
39232,43.0,0,119,3.0,0.0
39233,64.0,0,119,3.0,0.0
39234,69.0,0,119,10.0,0.0
39235,76.0,0,119,2.0,0.0
39236,93.0,30,29,13.0,0.0
39237,55.0,0,119,15.0,0.0
39238,76.0,0,59,12.0,0.0
39239,95.0,0,29,13.0,0.0
39240,81.0,0,59,12.0,0.0
39241,76.0,0,59,12.0,0.0
39242,69.0,0,59,12.0,0.0
39243,55.0,0,59,14.0,0.0
39244,93.0,30,29,13.0,0.0
39245,45.0,0,59,7.0,0.0
39246,95.0,0,29,13.0,0.0
39247,86.0,0,119,0.0,0.0
39248,74.0,0,119,2.0,0.0
39249,62.0,0,119,2.0,0.0
39250,74.0,0,119,8.0,0.0
39251,81.0,0,59,12.0,0.0
39252,62.0,0,119,6.0,0.0
39253,62.0,0,119,3.0,0.0
39254,45.0,0,59,7.0,0.0
39255,93.0,30,29,13.0,0.0
39256,54.0,0,119,6.0,0.0
39257,62.0,0,119,4.0,0.0
39258,54.0,0,59,14.0,0.0
39259,54.0,0,119,11.0,0.0
39260,74.0,30,59,12.0,0.0
39261,74.0,0,119,1.0,0.0
39262,62.0,0,119,11.0,0.0
39263,81.0,0,119,9.0,0.0
39264,54.0,0,119,15.0,0.0
39265,57.0,0,239,6.0,0.0
39266,69.0,0,119,10.0,0.0
39267,42.0,0,119,3.0,0.0
39268,42.0,0,119,15.0,0.0
39269,69.0,0,59,12.0,0.0
39270,95.0,0,29,13.0,0.0
39271,81.0,0,59,12.0,0.0
39272,69.0,0,59,12.0,0.0
39273,93.0,30,29,13.0,0.0
39274,74.0,0,59,12.0,0.0
39275,45.0,30,59,7.0,0.0
39276,54.0,0,59,14.0,0.0
39277,95.0,0,29,13.0,0.0
39278,64.0,0,119,6.0,0.0
39279,76.0,0,179,1.0,0.0
39280,64.0,0,179,4.0,0.0
39281,45.0,0,59,7.0,0.0
39282,55.0,0,119,6.0,0.0
39283,93.0,30,29,13.0,0.0
39284,55.0,0,119,11.0,0.0
39285,55.0,30,119,15.0,0.0
39286,64.0,0,179,11.0,0.0
39287,69.0,0,239,10.0,0.0
39288,69.0,30,59,12.0,0.0
39289,76.0,0,59,12.0,0.0
39290,55.0,0,59,14.0,0.0
39291,76.0,0,179,8.0,0.0
39292,81.0,0,59,12.0,0.0
39293,88.0,0,179,0.0,0.0
39294,64.0,0,179,2.0,0.0
39295,76.0,0,179,2.0,0.0
39296,64.0,0,179,3.0,0.0
39297,43.0,0,119,3.0,0.0
39298,81.0,0,119,9.0,0.0
39299,49.0,0,119,9.0,0.0
39300,43.0,0,119,15.0,0.0
39301,35.0,0,119,9.0,0.0
39302,95.0,0,29,13.0,0.0
39303,76.0,0,59,12.0,0.0
39304,45.0,0,59,7.0,0.0
39305,69.0,0,59,12.0,0.0
39306,55.0,0,59,14.0,0.0
39307,81.0,0,59,12.0,0.0
39308,93.0,30,29,13.0,0.0
39309,95.0,0,29,13.0,0.0
39310,45.0,0,119,3.0,0.0
39311,45.0,0,119,15.0,0.0
39312,57.0,0,59,14.0,0.0
39313,81.0,0,119,9.0,0.0
39314,76.0,0,59,12.0,0.0
39315,93.0,30,29,13.0,0.0
39316,81.0,0,59,12.0,0.0
39317,69.0,0,59,12.0,0.0
39318,57.0,0,119,15.0,0.0
39319,45.0,0,59,7.0,0.0
39320,57.0,0,119,11.0,0.0
39321,95.0,30,29,13.0,0.0
39322,93.0,30,29,13.0,0.0
39323,66.0,0,59,11.0,0.0
39324,57.0,0,59,14.0,0.0
39325,90.0,0,59,0.0,0.0
39326,66.0,0,59,3.0,0.0
39327,78.0,0,59,1.0,0.0
39328,66.0,0,59,2.0,0.0
39329,78.0,0,59,2.0,0.0
39330,81.0,30,59,12.0,0.0
39331,69.0,0,59,12.0,0.0
39332,78.0,0,59,8.0,0.0
39333,66.0,0,59,4.0,0.0
39334,78.0,0,59,12.0,0.0
39335,45.0,0,59,7.0,0.0
39336,95.0,0,29,13.0,0.0
39337,69.0,0,239,10.0,0.0
39338,93.0,30,29,13.0,0.0
39339,76.0,0,59,12.0,0.0
39340,55.0,0,119,11.0,0.0
39341,76.0,0,119,2.0,0.0
39342,64.0,0,119,11.0,0.0
39343,64.0,0,119,3.0,0.0
39344,55.0,0,119,15.0,0.0
39345,43.0,30,119,3.0,0.0
39346,64.0,0,119,2.0,0.0
39347,69.0,0,59,12.0,0.0
39348,76.0,0,119,8.0,0.0
39349,81.0,0,119,9.0,0.0
39350,81.0,0,59,12.0,0.0
39351,45.0,0,59,7.0,0.0
39352,43.0,0,119,15.0,0.0
39353,76.0,0,119,1.0,0.0
39354,88.0,0,119,0.0,0.0
39355,55.0,0,59,14.0,0.0
39356,64.0,0,119,4.0,0.0
39357,95.0,30,29,13.0,0.0
39358,81.0,0,59,12.0,0.0
39359,45.0,0,59,7.0,0.0
39360,69.0,0,59,12.0,0.0
39361,93.0,30,29,13.0,0.0
39362,55.0,0,59,14.0,0.0
39363,76.0,0,59,12.0,0.0
39364,95.0,0,29,13.0,0.0
39365,81.0,0,59,12.0,0.0
39366,54.0,0,119,6.0,0.0
39367,86.0,0,119,0.0,0.0
39368,69.0,0,59,12.0,0.0
39369,42.0,0,119,3.0,0.0
39370,81.0,0,119,9.0,0.0
39371,93.0,30,29,13.0,0.0
39372,54.0,0,59,14.0,0.0
39373,54.0,0,119,11.0,0.0
39374,62.0,0,119,4.0,0.0
39375,62.0,0,119,6.0,0.0
39376,62.0,0,119,11.0,0.0
39377,74.0,60,119,8.0,0.0
39378,74.0,0,119,1.0,0.0
39379,62.0,0,119,3.0,0.0
39380,42.0,0,119,15.0,0.0
39381,57.0,0,239,6.0,0.0
39382,74.0,30,59,12.0,0.0
39383,62.0,0,119,2.0,0.0
39384,74.0,0,119,2.0,0.0
39385,54.0,0,119,15.0,0.0
39386,45.0,0,59,7.0,0.0
39387,95.0,0,29,13.0,0.0
39388,91.0,30,29,13.0,0.0
39389,81.0,0,59,12.0,0.0
39390,74.0,0,59,12.0,0.0
39391,54.0,0,59,14.0,0.0
39392,45.0,0,59,7.0,0.0
39393,69.0,0,59,12.0,0.0
39394,93.0,0,29,13.0,0.0
39395,61.0,0,239,11.0,0.0
39396,52.0,0,119,15.0,0.0
39397,67.0,0,119,6.0,0.0
39398,93.0,0,119,0.0,0.0
39399,57.0,0,119,3.0,0.0
39400,81.0,0,119,8.0,0.0
39401,81.0,0,119,2.0,0.0
39402,93.0,60,119,13.0,0.0
39403,69.0,0,119,2.0,0.0
39404,67.0,0,239,4.0,0.0
39405,69.0,0,239,4.0,0.0
39406,57.0,0,239,4.0,0.0
39407,45.0,0,119,7.0,0.0
39408,49.0,0,119,9.0,0.0
39409,35.0,0,119,9.0,0.0
39410,81.0,0,119,9.0,0.0
39411,61.0,60,59,14.0,0.0
39412,40.0,0,119,15.0,0.0
39413,69.0,0,119,5.0,0.0
39414,69.0,0,59,12.0,0.0
39415,81.0,0,119,1.0,0.0
39416,40.0,0,119,3.0,0.0
39417,52.0,0,119,6.0,0.0
39418,69.0,0,239,10.0,0.0
39419,81.0,0,119,5.0,0.0
39420,52.0,0,239,11.0,0.0
39421,69.0,0,119,1.0,0.0
39422,81.0,0,59,12.0,0.0
39423,69.0,0,59,12.0,0.0
39424,61.0,0,59,14.0,0.0
39425,81.0,0,59,12.0,0.0
39426,52.0,0,119,3.0,0.0
39427,91.0,0,119,0.0,0.0
39428,81.0,0,59,12.0,0.0
39429,64.0,0,119,15.0,0.0
39430,79.0,0,59,12.0,0.0
39431,52.0,0,119,15.0,0.0
39432,73.0,60,119,1.0,0.0
39433,61.0,0,59,14.0,0.0
39434,73.0,0,119,2.0,0.0
39435,79.0,0,119,2.0,0.0
39436,79.0,0,119,1.0,0.0
39437,79.0,0,119,8.0,0.0
39438,61.0,0,119,3.0,0.0
39439,67.0,0,119,3.0,0.0
39440,69.0,60,59,12.0,0.0
39441,91.0,0,119,13.0,0.0
39442,61.0,0,59,14.0,0.0
39443,79.0,0,59,12.0,0.0
39444,69.0,0,59,12.0,0.0
39445,81.0,0,59,12.0,0.0
39446,64.0,0,119,4.0,0.0
39447,79.0,45,59,12.0,0.0
39448,62.0,0,119,6.0,0.0
39449,50.0,60,119,15.0,0.0
39450,57.0,0,119,6.0,0.0
39451,50.0,0,119,7.0,0.0
39452,76.0,0,119,1.0,0.0
39453,50.0,0,239,4.0,0.0
39454,79.0,0,119,1.0,0.0
39455,91.0,0,119,13.0,0.0
39456,91.0,0,119,0.0,0.0
39457,67.0,0,119,4.0,0.0
39458,50.0,0,104,11.0,0.0
39459,79.0,0,119,2.0,0.0
39460,49.0,0,119,9.0,0.0
39461,79.0,15,104,8.0,0.0
39462,69.0,0,59,12.0,0.0
39463,62.0,0,119,5.0,0.0
39464,74.0,0,119,5.0,0.0
39465,81.0,0,59,12.0,0.0
39466,69.0,0,104,10.0,0.0
39467,67.0,0,119,3.0,0.0
39468,38.0,0,119,15.0,0.0
39469,57.0,0,119,3.0,0.0
39470,35.0,0,119,9.0,0.0
39471,62.0,0,104,11.0,0.0
39472,50.0,0,119,6.0,0.0
39473,62.0,0,59,14.0,0.0
39474,76.0,0,119,2.0,0.0
39475,38.0,0,119,3.0,0.0
39476,81.0,0,119,9.0,0.0
39477,69.0,0,59,12.0,0.0
39478,81.0,0,59,12.0,0.0
39479,79.0,0,59,12.0,0.0
39480,62.0,0,59,14.0,0.0
39481,90.0,0,119,13.0,0.0
39482,74.0,0,119,1.0,0.0
39483,78.0,0,119,1.0,0.0
39484,90.0,0,119,0.0,0.0
39485,62.0,0,119,4.0,0.0
39486,62.0,60,119,11.0,0.0
39487,50.0,0,119,11.0,0.0
39488,66.0,0,119,4.0,0.0
39489,62.0,0,119,15.0,0.0
39490,69.0,0,119,10.0,0.0
39491,50.0,0,119,15.0,0.0
39492,66.0,0,119,3.0,0.0
39493,62.0,0,59,14.0,0.0
39494,74.0,0,119,2.0,0.0
39495,78.0,0,119,2.0,0.0
39496,78.0,60,59,12.0,0.0
39497,50.0,0,119,3.0,0.0
39498,62.0,0,119,3.0,0.0
39499,69.0,0,59,12.0,0.0
39500,78.0,0,119,8.0,0.0
39501,78.0,0,59,12.0,0.0
39502,69.0,0,59,12.0,0.0
39503,62.0,0,59,14.0,0.0
39504,69.0,0,119,2.0,0.0
39505,49.0,0,119,9.0,0.0
39506,81.0,0,119,9.0,0.0
39507,35.0,0,119,9.0,0.0
39508,50.0,0,119,7.0,0.0
39509,43.0,0,119,15.0,0.0
39510,57.0,0,119,3.0,0.0
39511,66.0,0,119,3.0,0.0
39512,69.0,60,59,12.0,0.0
39513,43.0,0,119,3.0,0.0
39514,78.0,0,119,8.0,0.0
39515,74.0,0,119,5.0,0.0
39516,62.0,0,119,5.0,0.0
39517,59.0,0,59,14.0,0.0
39518,78.0,0,59,12.0,0.0
39519,78.0,0,119,2.0,0.0
39520,67.0,0,119,6.0,0.0
39521,69.0,0,119,10.0,0.0
39522,55.0,0,119,15.0,0.0
39523,90.0,0,119,0.0,0.0
39524,69.0,0,119,1.0,0.0
39525,55.0,0,119,6.0,0.0
39526,78.0,0,119,1.0,0.0
39527,55.0,0,239,11.0,0.0
39528,59.0,0,239,11.0,0.0
39529,102.0,0,119,13.0,0.0
39530,59.0,60,59,14.0,0.0
39531,78.0,0,59,12.0,0.0
39532,69.0,0,59,12.0,0.0
39533,55.0,0,119,15.0,0.0
39534,67.0,0,119,10.0,0.0
39535,76.0,60,119,8.0,0.0
39536,67.0,0,119,15.0,0.0
39537,64.0,0,119,4.0,0.0
39538,67.0,0,119,4.0,0.0
39539,64.0,0,119,3.0,0.0
39540,55.0,0,119,3.0,0.0
39541,100.0,0,119,13.0,0.0
39542,67.0,60,59,12.0,0.0
39543,43.0,0,119,3.0,0.0
39544,67.0,0,119,1.0,0.0
39545,76.0,0,119,2.0,0.0
39546,67.0,0,119,2.0,0.0
39547,76.0,0,59,12.0,0.0
39548,59.0,0,59,14.0,0.0
39549,76.0,0,119,1.0,0.0
39550,88.0,0,119,0.0,0.0
39551,67.0,0,59,12.0,0.0
39552,76.0,0,59,12.0,0.0
39553,59.0,0,59,14.0,0.0
39554,71.0,60,59,12.0,0.0
39555,50.0,0,119,7.0,0.0
39556,91.0,0,119,0.0,0.0
39557,67.0,0,119,3.0,0.0
39558,79.0,0,119,2.0,0.0
39559,67.0,0,119,4.0,0.0
39560,55.0,0,119,6.0,0.0
39561,59.0,0,239,11.0,0.0
39562,71.0,0,119,10.0,0.0
39563,55.0,0,239,11.0,0.0
39564,31.0,0,119,15.0,0.0
39565,71.0,0,119,2.0,0.0
39566,59.0,0,119,3.0,0.0
39567,64.0,0,119,4.0,0.0
39568,103.0,0,119,13.0,0.0
39569,71.0,0,119,1.0,0.0
39570,79.0,0,119,1.0,0.0
39571,67.0,0,119,6.0,0.0
39572,43.0,0,119,15.0,0.0
39573,74.0,0,119,5.0,0.0
39574,62.0,0,119,5.0,0.0
39575,31.0,0,119,3.0,0.0
39576,79.0,0,119,8.0,0.0
39577,79.0,0,59,12.0,0.0
39578,59.0,0,59,14.0,0.0
39579,79.0,0,59,12.0,0.0
39580,71.0,0,59,12.0,0.0
39581,59.0,60,59,14.0,0.0
39582,76.0,0,119,8.0,0.0
39583,67.0,0,119,10.0,0.0
39584,67.0,0,59,12.0,0.0
39585,43.0,0,119,3.0,0.0
39586,64.0,0,119,3.0,0.0
39587,55.0,0,119,3.0,0.0
39588,67.0,0,119,1.0,0.0
39589,76.0,0,119,1.0,0.0
39590,64.0,0,119,4.0,0.0
39591,67.0,0,119,2.0,0.0
39592,100.0,0,119,13.0,0.0
39593,88.0,0,119,0.0,0.0
39594,55.0,0,119,15.0,0.0
39595,76.0,0,119,2.0,0.0
39596,43.0,60,119,15.0,0.0
39597,76.0,60,59,12.0,0.0
39598,67.0,0,119,4.0,0.0
39599,59.0,0,59,14.0,0.0
39600,59.0,0,59,14.0,0.0
39601,67.0,0,59,12.0,0.0
39602,76.0,0,59,12.0,0.0
39603,57.0,0,59,14.0,0.0
39604,76.0,0,119,1.0,0.0
39605,76.0,60,59,12.0,0.0
39606,45.0,0,119,7.0,0.0
39607,57.0,0,119,6.0,0.0
39608,88.0,0,119,0.0,0.0
39609,67.0,0,119,2.0,0.0
39610,76.0,0,119,2.0,0.0
39611,67.0,0,59,12.0,0.0
39612,45.0,60,119,15.0,0.0
39613,33.0,0,119,15.0,0.0
39614,67.0,0,119,1.0,0.0
39615,55.0,0,119,3.0,0.0
39616,64.0,0,119,3.0,0.0
39617,69.0,0,119,5.0,0.0
39618,100.0,0,119,13.0,0.0
39619,76.0,0,119,8.0,0.0
39620,49.0,0,119,9.0,0.0
39621,81.0,0,119,9.0,0.0
39622,57.0,0,239,11.0,0.0
39623,35.0,0,119,9.0,0.0
39624,64.0,0,119,4.0,0.0
39625,67.0,0,119,10.0,0.0
39626,67.0,0,119,4.0,0.0
39627,57.0,0,119,5.0,0.0
39628,33.0,0,119,3.0,0.0
39629,57.0,0,59,14.0,0.0
39630,76.0,0,59,12.0,0.0
39631,67.0,0,59,12.0,0.0
39632,45.0,0,119,15.0,0.0
39633,57.0,0,119,15.0,0.0
39634,86.0,0,119,0.0,0.0
39635,98.0,0,119,13.0,0.0
39636,66.0,0,119,10.0,0.0
39637,57.0,0,59,14.0,0.0
39638,74.0,0,119,8.0,0.0
39639,66.0,0,119,1.0,0.0
39640,74.0,0,119,1.0,0.0
39641,74.0,0,119,2.0,0.0
39642,45.0,0,119,3.0,0.0
39643,66.0,0,59,12.0,0.0
39644,62.0,0,119,3.0,0.0
39645,62.0,0,119,4.0,0.0
39646,66.0,0,119,2.0,0.0
39647,66.0,0,119,4.0,0.0
39648,54.0,0,119,3.0,0.0
39649,74.0,60,59,12.0,0.0
39650,66.0,0,59,12.0,0.0
39651,57.0,0,59,14.0,0.0
39652,74.0,0,59,12.0,0.0
39653,64.0,60,119,6.0,0.0
39654,31.0,0,119,3.0,0.0
39655,74.0,0,119,1.0,0.0
39656,64.0,0,119,1.0,0.0
39657,55.0,0,119,6.0,0.0
39658,43.0,0,119,15.0,0.0
39659,57.0,0,119,6.0,0.0
39660,64.0,60,59,12.0,0.0
39661,98.0,0,119,13.0,0.0
39662,52.0,0,119,3.0,0.0
39663,64.0,0,239,4.0,0.0
39664,57.0,0,239,4.0,0.0
39665,69.0,0,119,5.0,0.0
39666,57.0,0,119,5.0,0.0
39667,86.0,0,119,0.0,0.0
39668,31.0,0,119,15.0,0.0
39669,74.0,0,119,2.0,0.0
39670,57.0,0,239,11.0,0.0
39671,55.0,0,239,11.0,0.0
39672,62.0,0,119,3.0,0.0
39673,64.0,0,239,10.0,0.0
39674,74.0,0,119,8.0,0.0
39675,57.0,0,59,14.0,0.0
39676,74.0,0,59,12.0,0.0
39677,45.0,0,119,7.0,0.0
39678,52.0,0,59,14.0,0.0
39679,74.0,0,59,12.0,0.0
39680,52.0,0,59,14.0,0.0
39681,57.0,0,59,14.0,0.0
39682,64.0,0,59,12.0,0.0
39683,73.0,0,119,8.0,0.0
39684,97.0,0,119,13.0,0.0
39685,85.0,0,119,0.0,0.0
39686,61.0,0,119,3.0,0.0
39687,64.0,0,119,3.0,0.0
39688,69.0,0,119,1.0,0.0
39689,73.0,0,119,1.0,0.0
39690,73.0,0,119,2.0,0.0
39691,43.0,0,119,3.0,0.0
39692,55.0,0,119,15.0,0.0
39693,64.0,0,59,12.0,0.0
39694,73.0,60,59,12.0,0.0
39695,52.0,0,59,14.0,0.0
39696,57.0,0,59,14.0,0.0
39697,43.0,0,119,15.0,0.0
39698,64.0,0,59,12.0,0.0
39699,52.0,0,59,14.0,0.0
39700,73.0,60,59,12.0,0.0
39701,57.0,0,59,14.0,0.0
39702,62.0,0,359,10.0,0.0
39703,74.0,0,359,1.0,0.0
39704,57.0,0,479,11.0,0.0
39705,66.0,0,119,6.0,0.0
39706,57.0,0,59,14.0,0.0
39707,54.0,0,59,14.0,0.0
39708,54.0,0,479,11.0,0.0
39709,62.0,0,119,6.0,0.0
39710,30.0,0,119,15.0,0.0
39711,74.0,0,239,5.0,0.0
39712,62.0,0,239,5.0,0.0
39713,83.0,0,239,1.0,0.0
39714,71.0,0,59,12.0,0.0
39715,30.0,60,119,3.0,0.0
39716,95.0,0,239,13.0,0.0
39717,49.0,0,119,9.0,0.0
39718,74.0,60,359,2.0,0.0
39719,54.0,0,119,6.0,0.0
39720,50.0,60,59,7.0,0.0
39721,57.0,0,479,3.0,0.0
39722,83.0,0,239,2.0,0.0
39723,62.0,0,239,4.0,0.0
39724,83.0,0,59,12.0,0.0
39725,83.0,0,239,0.0,0.0
39726,50.0,0,239,4.0,0.0
39727,83.0,60,239,8.0,0.0
39728,62.0,0,599,3.0,0.0
39729,42.0,0,119,15.0,0.0
39730,35.0,0,119,9.0,0.0
39731,81.0,0,119,9.0,0.0
39732,50.0,0,59,7.0,0.0
39733,71.0,0,59,12.0,0.0
39734,54.0,0,59,14.0,0.0
39735,83.0,0,59,12.0,0.0
39736,57.0,0,59,14.0,0.0
39737,54.0,0,119,15.0,0.0
39738,83.0,0,59,12.0,0.0
39739,54.0,0,59,14.0,0.0
39740,50.0,60,59,7.0,0.0
39741,71.0,0,59,12.0,0.0
39742,42.0,0,119,15.0,0.0
39743,57.0,0,59,14.0,0.0
39744,42.0,0,119,3.0,0.0
39745,50.0,0,59,7.0,0.0
39746,57.0,0,59,14.0,0.0
39747,83.0,0,59,12.0,0.0
39748,54.0,0,59,14.0,0.0
39749,71.0,0,59,12.0,0.0
39750,81.0,0,359,8.0,0.0
39751,69.0,0,59,12.0,0.0
39752,54.0,0,239,4.0,0.0
39753,66.0,0,239,4.0,0.0
39754,81.0,0,59,12.0,0.0
39755,50.0,0,59,7.0,0.0
39756,93.0,0,359,0.0,0.0
39757,93.0,0,119,13.0,0.0
39758,42.0,0,119,15.0,0.0
39759,54.0,0,119,6.0,0.0
39760,69.0,0,359,4.0,0.0
39761,54.0,0,59,14.0,0.0
39762,57.0,60,59,14.0,0.0
39763,57.0,0,119,6.0,0.0
39764,69.0,0,119,6.0,0.0
39765,54.0,0,119,15.0,0.0
39766,81.0,0,359,2.0,0.0
39767,81.0,0,359,1.0,0.0
39768,42.0,0,119,3.0,0.0
39769,81.0,0,239,5.0,0.0
39770,69.0,0,239,5.0,0.0
39771,69.0,0,59,12.0,0.0
39772,57.0,0,59,14.0,0.0
39773,81.0,0,59,12.0,0.0
39774,54.0,0,59,14.0,0.0
39775,50.0,0,59,7.0,0.0
39776,66.0,0,119,15.0,0.0
39777,69.0,60,119,1.0,0.0
39778,54.0,0,119,15.0,0.0
39779,105.0,0,239,13.0,0.0
39780,54.0,0,119,3.0,0.0
39781,69.0,0,119,2.0,0.0
39782,50.0,60,59,7.0,0.0
39783,69.0,0,119,10.0,0.0
39784,69.0,0,59,12.0,0.0
39785,81.0,0,59,12.0,0.0
39786,54.0,0,59,14.0,0.0
39787,57.0,0,59,14.0,0.0
39788,69.0,0,59,12.0,0.0
39789,81.0,0,59,12.0,0.0
39790,54.0,0,59,14.0,0.0
39791,50.0,0,59,7.0,0.0
39792,57.0,0,59,14.0,0.0
39793,59.0,0,119,11.0,0.0
39794,59.0,0,119,3.0,0.0
39795,69.0,0,119,2.0,0.0
39796,64.0,0,119,6.0,0.0
39797,52.0,0,239,11.0,0.0
39798,40.0,0,119,3.0,0.0
39799,40.0,0,119,15.0,0.0
39800,67.0,0,119,6.0,0.0
39801,71.0,60,119,10.0,0.0
39802,57.0,0,119,4.0,0.0
39803,52.0,0,119,15.0,0.0
39804,81.0,0,119,9.0,0.0
39805,49.0,0,119,9.0,0.0
39806,67.0,0,239,4.0,0.0
39807,81.0,0,59,12.0,0.0
39808,45.0,0,119,7.0,0.0
39809,69.0,0,119,5.0,0.0
39810,81.0,0,119,5.0,0.0
39811,59.0,60,59,14.0,0.0
39812,52.0,0,119,6.0,0.0
39813,71.0,0,59,12.0,0.0
39814,35.0,0,119,9.0,0.0
39815,71.0,0,119,1.0,0.0
39816,71.0,0,59,12.0,0.0
39817,81.0,0,59,12.0,0.0
39818,59.0,0,59,14.0,0.0
39819,52.0,0,119,15.0,0.0
39820,79.0,60,119,2.0,0.0
39821,73.0,0,119,1.0,0.0
39822,73.0,0,59,12.0,0.0
39823,103.0,0,119,13.0,0.0
39824,57.0,0,119,4.0,0.0
39825,69.0,0,239,4.0,0.0
39826,91.0,0,119,0.0,0.0
39827,79.0,60,59,12.0,0.0
39828,79.0,0,119,8.0,0.0
39829,79.0,0,119,1.0,0.0
39830,64.0,0,119,15.0,0.0
39831,61.0,0,119,11.0,0.0
39832,73.0,0,119,10.0,0.0
39833,61.0,0,119,3.0,0.0
39834,52.0,0,119,3.0,0.0
39835,67.0,0,119,2.0,0.0
39836,61.0,0,59,14.0,0.0
39837,64.0,0,119,3.0,0.0
39838,61.0,0,59,14.0,0.0
39839,79.0,0,59,12.0,0.0
39840,73.0,0,59,12.0,0.0
39841,91.0,0,119,0.0,0.0
39842,50.0,0,119,7.0,0.0
39843,81.0,0,119,9.0,0.0
39844,76.0,0,59,12.0,0.0
39845,79.0,0,119,2.0,0.0
39846,79.0,0,119,1.0,0.0
39847,76.0,0,119,1.0,0.0
39848,76.0,0,119,2.0,0.0
39849,35.0,0,119,9.0,0.0
39850,64.0,0,104,11.0,0.0
39851,49.0,0,119,9.0,0.0
39852,79.0,15,104,8.0,0.0
39853,64.0,45,59,14.0,0.0
39854,62.0,0,119,5.0,0.0
39855,74.0,0,119,5.0,0.0
39856,38.0,0,119,3.0,0.0
39857,64.0,0,119,3.0,0.0
39858,67.0,0,119,3.0,0.0
39859,76.0,0,104,10.0,0.0
39860,62.0,0,119,6.0,0.0
39861,38.0,0,119,15.0,0.0
39862,50.0,0,119,15.0,0.0
39863,50.0,0,104,11.0,0.0
39864,103.0,0,119,13.0,0.0
39865,50.0,0,119,6.0,0.0
39866,79.0,0,59,12.0,0.0
39867,67.0,0,119,4.0,0.0
39868,64.0,0,119,4.0,0.0
39869,76.0,60,59,12.0,0.0
39870,64.0,0,59,14.0,0.0
39871,79.0,0,59,12.0,0.0
39872,78.0,0,119,2.0,0.0
39873,50.0,0,239,4.0,0.0
39874,62.0,0,119,15.0,0.0
39875,90.0,0,119,0.0,0.0
39876,50.0,0,119,3.0,0.0
39877,74.0,0,59,12.0,0.0
39878,78.0,0,119,8.0,0.0
39879,102.0,0,119,13.0,0.0
39880,50.0,0,119,11.0,0.0
39881,78.0,60,119,1.0,0.0
39882,62.0,0,119,4.0,0.0
39883,62.0,0,119,3.0,0.0
39884,62.0,60,59,14.0,0.0
39885,66.0,0,119,4.0,0.0
39886,66.0,0,119,3.0,0.0
39887,74.0,0,119,10.0,0.0
39888,50.0,0,119,15.0,0.0
39889,62.0,0,119,11.0,0.0
39890,74.0,0,119,2.0,0.0
39891,78.0,0,59,12.0,0.0
39892,74.0,0,119,1.0,0.0
39893,62.0,0,59,14.0,0.0
39894,78.0,0,59,12.0,0.0
39895,74.0,0,59,12.0,0.0
39896,78.0,0,119,2.0,0.0
39897,59.0,0,119,6.0,0.0
39898,69.0,0,119,2.0,0.0
39899,57.0,0,119,3.0,0.0
39900,71.0,0,119,6.0,0.0
39901,90.0,60,119,0.0,0.0
39902,55.0,0,119,15.0,0.0
39903,69.0,0,59,12.0,0.0
39904,59.0,60,59,14.0,0.0
39905,43.0,0,119,3.0,0.0
39906,78.0,0,59,12.0,0.0
39907,59.0,0,239,11.0,0.0
39908,62.0,0,119,5.0,0.0
39909,74.0,0,119,5.0,0.0
39910,78.0,0,119,1.0,0.0
39911,69.0,0,119,1.0,0.0
39912,43.0,0,119,15.0,0.0
39913,55.0,0,119,6.0,0.0
39914,102.0,0,119,13.0,0.0
39915,50.0,0,119,7.0,0.0
39916,55.0,0,239,11.0,0.0
39917,66.0,0,119,3.0,0.0
39918,69.0,0,119,10.0,0.0
39919,49.0,0,119,9.0,0.0
39920,81.0,0,119,9.0,0.0
39921,35.0,0,119,9.0,0.0
39922,78.0,0,119,8.0,0.0
39923,59.0,0,59,14.0,0.0
39924,78.0,0,59,12.0,0.0
39925,69.0,0,59,12.0,0.0
39926,64.0,0,119,3.0,0.0
39927,76.0,0,59,12.0,0.0
39928,71.0,0,59,14.0,0.0
39929,67.0,60,59,12.0,0.0
39930,43.0,0,119,3.0,0.0
39931,55.0,0,119,3.0,0.0
39932,55.0,0,119,15.0,0.0
39933,100.0,0,119,13.0,0.0
39934,88.0,0,119,0.0,0.0
39935,67.0,0,119,1.0,0.0
39936,76.0,0,119,1.0,0.0
39937,76.0,60,119,8.0,0.0
39938,64.0,0,119,4.0,0.0
39939,67.0,0,119,15.0,0.0
39940,67.0,0,119,4.0,0.0
39941,67.0,0,119,10.0,0.0
39942,76.0,0,119,2.0,0.0
39943,67.0,0,119,2.0,0.0
39944,67.0,0,59,12.0,0.0
39945,71.0,0,59,14.0,0.0
39946,76.0,0,59,12.0,0.0
39947,67.0,0,119,6.0,0.0
39948,59.0,0,119,6.0,0.0
39949,79.0,0,59,12.0,0.0
39950,43.0,0,119,15.0,0.0
39951,74.0,0,119,5.0,0.0
39952,50.0,0,119,7.0,0.0
39953,79.0,0,119,2.0,0.0
39954,79.0,0,119,1.0,0.0
39955,71.0,0,119,1.0,0.0
39956,103.0,0,119,13.0,0.0
39957,71.0,60,119,2.0,0.0
39958,62.0,0,119,5.0,0.0
39959,79.0,0,119,8.0,0.0
39960,91.0,0,119,0.0,0.0
39961,67.0,0,119,4.0,0.0
39962,55.0,0,119,6.0,0.0
39963,55.0,0,239,11.0,0.0
39964,31.0,0,119,15.0,0.0
39965,71.0,0,119,10.0,0.0
39966,59.0,0,119,3.0,0.0
39967,31.0,0,119,3.0,0.0
39968,67.0,0,119,3.0,0.0
39969,71.0,60,59,12.0,0.0
39970,64.0,0,119,4.0,0.0
39971,59.0,0,59,14.0,0.0
39972,59.0,0,239,11.0,0.0
39973,79.0,0,59,12.0,0.0
39974,59.0,0,59,14.0,0.0
39975,71.0,0,59,12.0,0.0
39976,67.0,0,119,10.0,0.0
39977,43.0,0,119,15.0,0.0
39978,67.0,60,59,12.0,0.0
39979,55.0,0,119,3.0,0.0
39980,55.0,0,119,15.0,0.0
39981,64.0,0,119,4.0,0.0
39982,76.0,0,119,8.0,0.0
39983,67.0,0,119,4.0,0.0
39984,71.0,0,59,14.0,0.0
39985,43.0,0,119,3.0,0.0
39986,88.0,0,119,0.0,0.0
39987,100.0,0,119,13.0,0.0
39988,67.0,0,119,2.0,0.0
39989,76.0,0,119,2.0,0.0
39990,67.0,0,119,1.0,0.0
39991,76.0,0,59,12.0,0.0
39992,64.0,0,119,3.0,0.0
39993,76.0,0,119,1.0,0.0
39994,76.0,0,59,12.0,0.0
39995,71.0,0,59,14.0,0.0
39996,67.0,0,59,12.0,0.0
39997,49.0,0,119,9.0,0.0
39998,81.0,60,119,9.0,0.0
39999,67.0,0,59,12.0,0.0
40000,33.0,0,119,3.0,0.0
40001,76.0,0,119,1.0,0.0
40002,45.0,0,119,7.0,0.0
40003,100.0,0,119,13.0,0.0
40004,67.0,0,119,4.0,0.0
40005,64.0,0,119,4.0,0.0
40006,45.0,0,119,15.0,0.0
40007,64.0,0,119,3.0,0.0
40008,57.0,0,239,11.0,0.0
40009,35.0,0,119,9.0,0.0
40010,76.0,0,119,8.0,0.0
40011,67.0,0,119,1.0,0.0
40012,67.0,0,119,10.0,0.0
40013,57.0,0,119,6.0,0.0
40014,76.0,0,59,12.0,0.0
40015,57.0,0,59,14.0,0.0
40016,76.0,0,119,2.0,0.0
40017,67.0,0,119,2.0,0.0
40018,69.0,0,119,5.0,0.0
40019,57.0,0,119,5.0,0.0
40020,55.0,0,119,3.0,0.0
40021,88.0,0,119,0.0,0.0
40022,33.0,0,119,15.0,0.0
40023,54.0,60,59,14.0,0.0
40024,67.0,0,59,12.0,0.0
40025,57.0,0,59,14.0,0.0
40026,54.0,0,59,14.0,0.0
40027,76.0,0,59,12.0,0.0
40028,66.0,0,119,10.0,0.0
40029,62.0,0,119,3.0,0.0
40030,54.0,0,119,3.0,0.0
40031,45.0,0,119,15.0,0.0
40032,57.0,0,119,15.0,0.0
40033,74.0,0,59,12.0,0.0
40034,66.0,0,59,12.0,0.0
40035,98.0,0,119,13.0,0.0
40036,66.0,0,119,1.0,0.0
40037,74.0,0,119,1.0,0.0
40038,86.0,0,119,0.0,0.0
40039,66.0,0,59,14.0,0.0
40040,69.0,60,59,14.0,0.0
40041,74.0,0,119,2.0,0.0
40042,66.0,0,119,2.0,0.0
40043,74.0,0,119,8.0,0.0
40044,62.0,0,119,4.0,0.0
40045,66.0,0,119,4.0,0.0
40046,45.0,0,119,3.0,0.0
40047,69.0,0,59,14.0,0.0
40048,66.0,0,59,14.0,0.0
40049,74.0,0,59,12.0,0.0
40050,66.0,60,59,12.0,0.0
40051,45.0,0,119,7.0,0.0
40052,69.0,0,119,5.0,0.0
40053,57.0,0,119,5.0,0.0
40054,54.0,60,119,3.0,0.0
40055,33.0,0,119,3.0,0.0
40056,74.0,0,59,12.0,0.0
40057,45.0,0,119,15.0,0.0
40058,74.0,0,119,2.0,0.0
40059,66.0,0,119,2.0,0.0
40060,57.0,0,239,11.0,0.0
40061,62.0,0,119,3.0,0.0
40062,86.0,0,119,0.0,0.0
40063,74.0,0,119,8.0,0.0
40064,52.0,0,59,14.0,0.0
40065,62.0,0,119,4.0,0.0
40066,66.0,0,59,12.0,0.0
40067,66.0,0,119,4.0,0.0
40068,57.0,0,119,6.0,0.0
40069,33.0,0,119,15.0,0.0
40070,66.0,0,119,10.0,0.0
40071,98.0,0,119,13.0,0.0
40072,66.0,0,119,1.0,0.0
40073,74.0,0,119,1.0,0.0
40074,57.0,60,59,14.0,0.0
40075,66.0,0,59,12.0,0.0
40076,57.0,0,59,14.0,0.0
40077,52.0,0,59,14.0,0.0
40078,74.0,0,59,12.0,0.0
40079,64.0,0,59,14.0,0.0
40080,64.0,0,59,12.0,0.0
40081,97.0,120,119,13.0,0.0
40082,52.0,0,119,3.0,0.0
40083,61.0,0,119,3.0,0.0
40084,45.0,0,119,3.0,0.0
40085,57.0,0,119,15.0,0.0
40086,73.0,0,119,8.0,0.0
40087,64.0,0,119,2.0,0.0
40088,64.0,0,119,4.0,0.0
40089,64.0,0,119,10.0,0.0
40090,73.0,0,119,2.0,0.0
40091,73.0,0,59,12.0,0.0
40092,57.0,0,119,4.0,0.0
40093,85.0,0,119,0.0,0.0
40094,69.0,60,59,14.0,0.0
40095,73.0,0,119,1.0,0.0
40096,64.0,0,119,1.0,0.0
40097,45.0,0,119,15.0,0.0
40098,69.0,0,59,14.0,0.0
40099,73.0,0,59,12.0,0.0
40100,64.0,0,59,12.0,0.0
40101,64.0,0,59,14.0,0.0
40102,54.0,0,119,3.0,0.0
40103,74.0,0,119,2.0,0.0
40104,66.0,0,119,2.0,0.0
40105,50.0,0,119,11.0,0.0
40106,35.0,0,119,9.0,0.0
40107,49.0,0,119,9.0,0.0
40108,81.0,0,119,9.0,0.0
40109,50.0,0,119,6.0,0.0
40110,62.0,0,119,11.0,0.0
40111,50.0,0,119,15.0,0.0
40112,50.0,0,119,7.0,0.0
40113,86.0,0,119,0.0,0.0
40114,62.0,0,119,12.0,0.0
40115,74.0,0,119,12.0,0.0
40116,98.0,0,119,13.0,0.0
40117,62.0,0,119,3.0,0.0
40118,50.0,0,119,14.0,0.0
40119,62.0,0,119,14.0,0.0
40120,62.0,0,119,1.0,0.0
40121,74.0,0,119,1.0,0.0
40122,76.0,0,119,8.0,0.0
40123,57.0,0,119,4.0,0.0
40124,62.0,0,119,6.0,0.0
40125,50.0,0,119,3.0,0.0
40126,67.0,0,119,10.0,0.0
40127,62.0,0,119,5.0,0.0
40128,74.0,0,119,5.0,0.0
40129,64.0,0,119,4.0,0.0
40130,62.0,0,119,15.0,0.0
40131,62.0,0,119,15.0,0.0
40132,66.0,0,59,1.0,0.0
40133,50.0,0,119,15.0,0.0
40134,62.0,0,119,14.0,0.0
40135,50.0,90,119,14.0,0.0
40136,78.0,0,59,2.0,0.0
40137,66.0,60,59,2.0,0.0
40138,50.0,0,119,11.0,0.0
40139,54.0,0,59,3.0,0.0
40140,78.0,0,59,1.0,0.0
40141,62.0,0,119,12.0,0.0
40142,62.0,0,119,4.0,0.0
40143,50.0,0,119,3.0,0.0
40144,35.0,0,119,9.0,0.0
40145,74.0,0,119,5.0,0.0
40146,74.0,0,119,12.0,0.0
40147,81.0,0,119,9.0,0.0
40148,49.0,0,119,9.0,0.0
40149,74.0,0,119,8.0,0.0
40150,102.0,0,59,13.0,0.0
40151,50.0,0,119,7.0,0.0
40152,90.0,0,59,0.0,0.0
40153,62.0,0,119,5.0,0.0
40154,54.0,0,119,4.0,0.0
40155,62.0,0,119,11.0,0.0
40156,66.0,0,119,10.0,0.0
40157,103.0,0,59,13.0,0.0
40158,91.0,0,59,0.0,0.0
40159,67.0,0,59,2.0,0.0
40160,67.0,0,59,1.0,0.0
40161,79.0,0,59,1.0,0.0
40162,79.0,0,59,2.0,0.0
40163,55.0,0,59,3.0,0.0
40164,69.0,0,119,5.0,0.0
40165,61.0,0,119,15.0,0.0
40166,49.0,0,119,3.0,0.0
40167,57.0,0,89,3.0,0.0
40168,64.0,0,119,4.0,0.0
40169,69.0,0,89,2.0,0.0
40170,81.0,30,89,2.0,0.0
40171,57.0,0,119,5.0,0.0
40172,49.0,120,119,15.0,0.0
40173,81.0,0,89,1.0,0.0
40174,69.0,0,89,1.0,0.0
40175,61.0,0,119,14.0,0.0
40176,105.0,0,89,13.0,0.0
40177,93.0,0,89,0.0,0.0
40178,49.0,0,119,9.0,0.0
40179,57.0,0,119,4.0,0.0
40180,35.0,0,119,9.0,0.0
40181,81.0,0,119,9.0,0.0
40182,45.0,0,119,7.0,0.0
40183,73.0,0,119,12.0,0.0
40184,57.0,0,119,5.0,0.0
40185,69.0,0,119,5.0,0.0
40186,69.0,0,119,12.0,0.0
40187,45.0,0,119,7.0,0.0
40188,45.0,0,119,15.0,0.0
40189,69.0,0,119,4.0,0.0
40190,57.0,0,119,14.0,0.0
40191,57.0,0,119,4.0,0.0
40192,45.0,0,119,3.0,0.0
40193,57.0,0,119,15.0,0.0
40194,66.0,0,119,2.0,0.0
40195,66.0,0,119,12.0,0.0
40196,62.0,0,119,11.0,0.0
40197,66.0,0,119,1.0,0.0
40198,66.0,0,119,10.0,0.0
40199,54.0,0,119,14.0,0.0
40200,38.0,0,119,3.0,0.0
40201,78.0,60,119,2.0,0.0
40202,62.0,0,119,4.0,0.0
40203,78.0,0,119,1.0,0.0
40204,78.0,0,119,12.0,0.0
40205,102.0,0,119,13.0,0.0
40206,49.0,0,119,9.0,0.0
40207,81.0,0,119,9.0,0.0
40208,35.0,0,119,9.0,0.0
40209,78.0,0,119,8.0,0.0
40210,62.0,0,119,3.0,0.0
40211,62.0,0,119,6.0,0.0
40212,50.0,0,119,3.0,0.0
40213,62.0,0,119,5.0,0.0
40214,74.0,0,119,5.0,0.0
40215,66.0,0,119,11.0,0.0
40216,50.0,0,119,7.0,0.0
40217,50.0,0,119,6.0,0.0
40218,90.0,0,119,0.0,0.0
40219,54.0,0,119,4.0,0.0
40220,78.0,0,119,2.0,0.0
40221,54.0,0,59,14.0,0.0
40222,62.0,0,119,11.0,0.0
40223,66.0,0,119,2.0,0.0
40224,90.0,0,119,0.0,0.0
40225,102.0,0,119,13.0,0.0
40226,35.0,0,119,9.0,0.0
40227,81.0,0,119,9.0,0.0
40228,49.0,0,119,9.0,0.0
40229,66.0,0,119,11.0,0.0
40230,78.0,0,59,12.0,0.0
40231,66.0,60,59,12.0,0.0
40232,50.0,0,119,7.0,0.0
40233,66.0,0,119,10.0,0.0
40234,50.0,0,119,3.0,0.0
40235,78.0,0,119,8.0,0.0
40236,74.0,0,119,5.0,0.0
40237,62.0,0,119,5.0,0.0
40238,78.0,0,119,1.0,0.0
40239,62.0,0,119,3.0,0.0
40240,54.0,0,119,4.0,0.0
40241,38.0,0,119,3.0,0.0
40242,62.0,0,119,4.0,0.0
40243,66.0,0,119,1.0,0.0
40244,55.0,0,59,14.0,0.0
40245,79.0,0,59,12.0,0.0
40246,67.0,0,59,12.0,0.0
40247,64.0,0,119,2.0,0.0
40248,64.0,0,119,11.0,0.0
40249,37.0,0,119,3.0,0.0
40250,64.0,0,119,4.0,0.0
40251,76.0,0,119,5.0,0.0
40252,64.0,120,119,10.0,0.0
40253,81.0,0,89,12.0,0.0
40254,69.0,0,119,5.0,0.0
40255,76.0,0,119,1.0,0.0
40256,57.0,0,119,4.0,0.0
40257,76.0,0,119,2.0,0.0
40258,100.0,0,119,13.0,0.0
40259,35.0,0,119,9.0,0.0
40260,61.0,0,119,11.0,0.0
40261,61.0,0,119,3.0,0.0
40262,49.0,0,119,3.0,0.0
40263,49.0,0,119,9.0,0.0
40264,81.0,0,119,9.0,0.0
40265,76.0,0,119,8.0,0.0
40266,57.0,0,89,14.0,0.0
40267,64.0,0,119,1.0,0.0
40268,45.0,0,119,7.0,0.0
40269,88.0,0,119,0.0,0.0
40270,69.0,30,89,12.0,0.0
40271,57.0,0,119,11.0,0.0
40272,69.0,120,119,5.0,0.0
40273,57.0,0,119,3.0,0.0
40274,73.0,0,119,1.0,0.0
40275,76.0,0,119,5.0,0.0
40276,61.0,0,119,1.0,0.0
40277,45.0,0,119,3.0,0.0
40278,61.0,0,119,11.0,0.0
40279,73.0,0,119,8.0,0.0
40280,73.0,0,119,2.0,0.0
40281,85.0,0,119,0.0,0.0
40282,45.0,0,119,7.0,0.0
40283,57.0,0,119,4.0,0.0
40284,61.0,0,119,2.0,0.0
40285,97.0,0,119,13.0,0.0
40286,64.0,0,119,4.0,0.0
40287,33.0,0,119,3.0,0.0
40288,61.0,0,119,10.0,0.0
40289,67.0,0,119,1.0,0.0
40290,64.0,0,119,6.0,0.0
40291,91.0,0,119,13.0,0.0
40292,49.0,0,119,9.0,0.0
40293,79.0,0,119,2.0,0.0
40294,52.0,60,119,15.0,0.0
40295,81.0,0,119,9.0,0.0
40296,79.0,0,119,12.0,0.0
40297,55.0,0,119,3.0,0.0
40298,79.0,0,119,1.0,0.0
40299,35.0,0,119,9.0,0.0
40300,64.0,0,119,14.0,0.0
40301,67.0,0,119,2.0,0.0
40302,67.0,0,119,12.0,0.0
40303,64.0,0,119,15.0,0.0
40304,91.0,0,119,0.0,0.0
40305,52.0,0,119,3.0,0.0
40306,52.0,0,119,6.0,0.0
40307,67.0,0,119,4.0,0.0
40308,79.0,0,59,0.0,0.0
40309,67.0,0,119,12.0,0.0
40310,81.0,0,119,9.0,0.0
40311,35.0,0,119,9.0,0.0
40312,49.0,0,119,9.0,0.0
40313,67.0,60,59,1.0,0.0
40314,79.0,0,59,1.0,0.0
40315,79.0,0,119,12.0,0.0
40316,67.0,0,119,4.0,0.0
40317,64.0,0,119,15.0,0.0
40318,52.0,0,119,15.0,0.0
40319,55.0,0,59,3.0,0.0
40320,64.0,0,119,14.0,0.0
40321,67.0,0,59,2.0,0.0
40322,91.0,0,59,13.0,0.0
40323,79.0,0,59,2.0,0.0
40324,52.0,0,119,3.0,0.0
40325,81.0,0,59,2.0,0.0
40326,57.0,90,59,3.0,0.0
40327,69.0,0,59,1.0,0.0
40328,81.0,0,59,1.0,0.0
40329,81.0,0,59,0.0,0.0
40330,93.0,0,59,13.0,0.0
40331,69.0,0,59,2.0,0.0
40332,66.0,0,119,12.0,0.0
40333,35.0,120,119,9.0,0.0
40334,49.0,0,119,9.0,0.0
40335,63.0,0,119,14.0,0.0
40336,95.0,0,89,13.0,0.0
40337,63.0,0,119,15.0,0.0
40338,81.0,0,119,9.0,0.0
40339,51.0,0,119,3.0,0.0
40340,78.0,0,119,12.0,0.0
40341,83.0,0,89,1.0,0.0
40342,59.0,0,89,3.0,0.0
40343,71.0,0,89,2.0,0.0
40344,51.0,0,119,15.0,0.0
40345,83.0,0,89,2.0,0.0
40346,83.0,30,89,0.0,0.0
40347,66.0,0,119,4.0,0.0
40348,54.0,0,119,4.0,0.0
40349,71.0,0,89,1.0,0.0
40350,59.0,0,119,14.0,0.0
40351,59.0,0,119,15.0,0.0
40352,75.0,120,119,12.0,0.0
40353,63.0,0,119,12.0,0.0
40354,66.0,0,119,4.0,0.0
40355,47.0,0,119,3.0,0.0
40356,47.0,0,119,15.0,0.0
40357,54.0,0,119,4.0,0.0
40358,67.0,0,119,1.0,0.0
40359,79.0,0,119,1.0,0.0
40360,40.0,0,119,15.0,0.0
40361,67.0,0,119,10.0,0.0
40362,67.0,0,119,4.0,0.0
40363,55.0,0,119,14.0,0.0
40364,52.0,0,119,15.0,0.0
40365,79.0,0,119,8.0,0.0
40366,49.0,60,119,9.0,0.0
40367,52.0,0,119,3.0,0.0
40368,64.0,0,119,3.0,0.0
40369,40.0,0,119,3.0,0.0
40370,35.0,0,119,9.0,0.0
40371,79.0,0,119,2.0,0.0
40372,81.0,0,119,9.0,0.0
40373,67.0,0,119,2.0,0.0
40374,79.0,0,119,12.0,0.0
40375,64.0,0,119,11.0,0.0
40376,64.0,0,119,6.0,0.0
40377,79.0,0,119,0.0,0.0
40378,52.0,0,119,6.0,0.0
40379,91.0,0,119,0.0,0.0
40380,91.0,0,119,13.0,0.0
40381,67.0,0,119,12.0,0.0
40382,40.0,0,119,15.0,0.0
40383,67.0,0,119,1.0,0.0
40384,91.0,0,119,13.0,0.0
40385,91.0,0,119,0.0,0.0
40386,35.0,0,119,9.0,0.0
40387,79.0,90,119,0.0,0.0
40388,52.0,0,119,15.0,0.0
40389,49.0,0,119,9.0,0.0
40390,79.0,0,119,1.0,0.0
40391,79.0,0,119,2.0,0.0
40392,79.0,60,59,12.0,0.0
40393,67.0,0,119,10.0,0.0
40394,67.0,0,59,12.0,0.0
40395,67.0,0,119,2.0,0.0
40396,79.0,0,119,8.0,0.0
40397,64.0,0,119,11.0,0.0
40398,52.0,0,119,3.0,0.0
40399,64.0,0,119,3.0,0.0
40400,81.0,0,119,9.0,0.0
40401,55.0,0,59,14.0,0.0
40402,67.0,0,119,4.0,0.0
40403,40.0,0,119,3.0,0.0
40404,81.0,0,59,12.0,0.0
40405,69.0,0,59,12.0,0.0
40406,57.0,0,59,14.0,0.0
40407,83.0,30,89,12.0,0.0
40408,63.0,0,119,3.0,0.0
40409,51.0,0,119,3.0,0.0
40410,78.0,0,119,8.0,0.0
40411,66.0,0,119,1.0,0.0
40412,66.0,0,119,2.0,0.0
40413,78.0,0,119,2.0,0.0
40414,63.0,0,119,11.0,0.0
40415,39.0,60,119,3.0,0.0
40416,78.0,0,119,1.0,0.0
40417,81.0,0,119,9.0,0.0
40418,54.0,0,119,4.0,0.0
40419,66.0,0,119,4.0,0.0
40420,71.0,0,89,12.0,0.0
40421,35.0,0,119,9.0,0.0
40422,49.0,0,119,9.0,0.0
40423,39.0,0,119,15.0,0.0
40424,78.0,0,119,0.0,0.0
40425,90.0,0,119,0.0,0.0
40426,71.0,0,119,10.0,0.0
40427,51.0,0,119,15.0,0.0
40428,90.0,0,119,13.0,0.0
40429,59.0,0,89,14.0,0.0
40430,66.0,0,119,4.0,0.0
40431,54.0,0,119,4.0,0.0
40432,75.0,15,104,8.0,0.0
40433,90.0,0,59,13.0,0.0
40434,47.0,0,119,3.0,0.0
40435,59.0,0,119,3.0,0.0
40436,90.0,0,59,0.0,0.0
40437,75.0,0,119,2.0,0.0
40438,63.0,0,119,2.0,0.0
40439,63.0,0,59,14.0,0.0
40440,35.0,0,59,15.0,0.0
40441,59.0,0,104,11.0,0.0
40442,63.0,0,119,1.0,0.0
40443,75.0,0,119,1.0,0.0
40444,78.0,0,59,0.0,0.0
40445,35.0,0,119,3.0,0.0
40446,47.0,0,59,15.0,0.0
40447,66.0,0,59,12.0,0.0
40448,66.0,0,104,10.0,0.0
40449,78.0,45,59,12.0,0.0
40450,91.0,0,59,0.0,0.0
40451,59.0,0,59,15.0,0.0
40452,79.0,0,59,0.0,0.0
40453,67.0,0,59,12.0,0.0
40454,47.0,0,59,15.0,0.0
40455,64.0,0,59,14.0,0.0
40456,79.0,0,59,12.0,0.0
40457,91.0,0,59,13.0,0.0
40458,69.0,0,179,2.0,0.0
40459,93.0,0,89,13.0,0.0
40460,59.0,0,179,15.0,0.0
40461,66.0,60,179,2.0,0.0
40462,81.0,60,119,9.0,0.0
40463,66.0,0,179,6.0,0.0
40464,66.0,0,239,11.0,0.0
40465,69.0,0,179,6.0,0.0
40466,78.0,0,179,1.0,0.0
40467,59.0,0,239,11.0,0.0
40468,69.0,0,89,12.0,0.0
40469,81.0,0,239,8.0,0.0
40470,69.0,0,239,10.0,0.0
40471,69.0,0,179,4.0,0.0
40472,54.0,0,179,4.0,0.0
40473,59.0,0,179,6.0,0.0
40474,66.0,0,89,14.0,0.0
40475,59.0,0,179,3.0,0.0
40476,35.0,0,179,3.0,0.0
40477,47.0,0,179,15.0,0.0
40478,81.0,0,89,0.0,0.0
40479,93.0,0,89,0.0,0.0
40480,81.0,30,89,12.0,0.0
40481,49.0,0,119,9.0,0.0
40482,81.0,0,179,1.0,0.0
40483,47.0,0,179,3.0,0.0
40484,35.0,0,119,9.0,0.0
40485,78.0,0,59,0.0,0.0
40486,90.0,0,59,0.0,0.0
40487,78.0,0,59,12.0,0.0
40488,90.0,0,59,13.0,0.0
40489,63.0,0,59,14.0,0.0
40490,66.0,0,59,12.0,0.0
40491,79.0,90,59,12.0,0.0
40492,64.0,0,59,14.0,0.0
40493,67.0,0,59,12.0,0.0
40494,91.0,0,59,13.0,0.0
40495,79.0,0,59,0.0,0.0
40496,91.0,0,59,0.0,0.0
40497,47.0,60,179,15.0,0.0
40498,81.0,0,179,1.0,0.0
40499,35.0,0,179,3.0,0.0
40500,81.0,0,89,12.0,0.0
40501,59.0,0,179,15.0,0.0
40502,69.0,0,239,10.0,0.0
40503,59.0,0,239,11.0,0.0
40504,69.0,30,89,12.0,0.0
40505,93.0,0,89,0.0,0.0
40506,66.0,90,239,11.0,0.0
40507,81.0,0,239,8.0,0.0
40508,69.0,0,179,6.0,0.0
40509,93.0,0,89,13.0,0.0
40510,66.0,0,179,6.0,0.0
40511,66.0,0,89,14.0,0.0
40512,78.0,0,179,1.0,0.0
40513,69.0,0,179,2.0,0.0
40514,59.0,0,179,6.0,0.0
40515,54.0,0,179,4.0,0.0
40516,69.0,0,179,4.0,0.0
40517,47.0,0,179,3.0,0.0
40518,81.0,0,89,0.0,0.0
40519,59.0,0,179,3.0,0.0
40520,66.0,0,179,2.0,0.0
40521,81.0,60,119,9.0,0.0
40522,63.0,0,59,14.0,0.0
40523,66.0,0,59,12.0,0.0
40524,78.0,0,59,12.0,0.0
40525,90.0,0,59,13.0,0.0
40526,78.0,0,59,0.0,0.0
40527,90.0,0,59,0.0,0.0
40528,91.0,0,59,13.0,0.0
40529,91.0,0,59,0.0,0.0
40530,67.0,0,59,12.0,0.0
40531,79.0,0,59,12.0,0.0
40532,79.0,0,59,0.0,0.0
40533,64.0,0,59,14.0,0.0
40534,66.0,0,89,14.0,0.0
40535,69.0,0,89,12.0,0.0
40536,81.0,0,119,9.0,0.0
40537,35.0,0,119,9.0,0.0
40538,59.0,0,179,15.0,0.0
40539,66.0,0,179,2.0,0.0
40540,35.0,0,179,3.0,0.0
40541,69.0,0,179,2.0,0.0
40542,59.0,0,179,6.0,0.0
40543,81.0,0,89,12.0,0.0
40544,78.0,0,179,1.0,0.0
40545,66.0,0,179,6.0,0.0
40546,59.0,0,179,3.0,0.0
40547,47.0,0,179,3.0,0.0
40548,93.0,0,89,13.0,0.0
40549,66.0,0,239,11.0,0.0
40550,81.0,0,179,1.0,0.0
40551,81.0,0,239,8.0,0.0
40552,69.0,0,239,10.0,0.0
40553,81.0,0,89,0.0,0.0
40554,69.0,0,179,4.0,0.0
40555,54.0,0,179,4.0,0.0
40556,59.0,0,239,11.0,0.0
40557,69.0,0,179,6.0,0.0
40558,49.0,60,119,9.0,0.0
40559,93.0,30,89,0.0,0.0
40560,47.0,0,179,15.0,0.0
40561,90.0,60,59,13.0,0.0
40562,78.0,0,59,12.0,0.0
40563,90.0,0,59,0.0,0.0
40564,78.0,0,59,0.0,0.0
40565,63.0,0,59,14.0,0.0
40566,66.0,0,59,12.0,0.0
40567,79.0,0,59,0.0,0.0
40568,91.0,0,59,0.0,0.0
40569,79.0,0,59,12.0,0.0
40570,64.0,0,59,14.0,0.0
40571,67.0,0,59,12.0,0.0
40572,91.0,90,59,13.0,0.0
40573,81.0,60,119,9.0,0.0
40574,35.0,0,179,3.0,0.0
40575,81.0,0,239,8.0,0.0
40576,81.0,0,89,0.0,0.0
40577,47.0,0,179,15.0,0.0
40578,59.0,0,179,3.0,0.0
40579,47.0,60,179,3.0,0.0
40580,93.0,0,89,13.0,0.0
40581,81.0,0,179,1.0,0.0
40582,78.0,0,179,1.0,0.0
40583,81.0,0,89,12.0,0.0
40584,59.0,0,179,6.0,0.0
40585,66.0,0,239,11.0,0.0
40586,69.0,0,179,6.0,0.0
40587,69.0,0,179,2.0,0.0
40588,66.0,0,179,2.0,0.0
40589,66.0,0,89,14.0,0.0
40590,69.0,30,89,12.0,0.0
40591,69.0,0,239,10.0,0.0
40592,66.0,0,179,6.0,0.0
40593,59.0,0,179,15.0,0.0
40594,54.0,0,179,4.0,0.0
40595,69.0,0,179,4.0,0.0
40596,93.0,0,89,0.0,0.0
40597,59.0,0,239,11.0,0.0
40598,63.0,0,59,14.0,0.0
40599,78.0,0,59,12.0,0.0
40600,90.0,0,59,0.0,0.0
40601,66.0,0,59,12.0,0.0
40602,90.0,0,59,13.0,0.0
40603,78.0,0,59,0.0,0.0
40604,79.0,0,59,0.0,0.0
40605,79.0,0,59,12.0,0.0
40606,64.0,0,59,14.0,0.0
40607,91.0,90,59,0.0,0.0
40608,67.0,0,59,12.0,0.0
40609,91.0,0,59,13.0,0.0
40610,66.0,0,239,11.0,0.0
40611,59.0,90,239,11.0,0.0
40612,69.0,0,89,12.0,0.0
40613,93.0,0,89,13.0,0.0
40614,69.0,0,179,6.0,0.0
40615,66.0,0,179,6.0,0.0
40616,81.0,0,89,12.0,0.0
40617,47.0,0,179,15.0,0.0
40618,81.0,0,89,0.0,0.0
40619,81.0,0,239,8.0,0.0
40620,93.0,0,89,0.0,0.0
40621,47.0,0,179,3.0,0.0
40622,59.0,0,179,3.0,0.0
40623,78.0,0,179,1.0,0.0
40624,81.0,0,179,1.0,0.0
40625,69.0,0,179,2.0,0.0
40626,66.0,0,179,2.0,0.0
40627,54.0,0,179,4.0,0.0
40628,69.0,0,179,4.0,0.0
40629,59.0,0,179,6.0,0.0
40630,66.0,30,89,14.0,0.0
40631,35.0,60,179,3.0,0.0
40632,59.0,0,179,15.0,0.0
40633,69.0,0,239,10.0,0.0
40634,35.0,0,119,9.0,0.0
40635,81.0,0,119,9.0,0.0
40636,49.0,60,119,9.0,0.0
40637,63.0,0,59,14.0,0.0
40638,90.0,0,59,13.0,0.0
40639,66.0,0,59,12.0,0.0
40640,78.0,0,59,12.0,0.0
40641,78.0,0,59,0.0,0.0
40642,90.0,0,59,0.0,0.0
40643,91.0,0,59,13.0,0.0
40644,67.0,0,59,12.0,0.0
40645,79.0,0,59,12.0,0.0
40646,91.0,0,59,0.0,0.0
40647,79.0,0,59,0.0,0.0
40648,64.0,0,59,14.0,0.0
40649,69.0,0,239,10.0,0.0
40650,59.0,0,179,6.0,0.0
40651,93.0,0,89,13.0,0.0
40652,59.0,0,179,15.0,0.0
40653,81.0,0,89,12.0,0.0
40654,69.0,0,179,2.0,0.0
40655,66.0,60,179,2.0,0.0
40656,35.0,0,179,3.0,0.0
40657,66.0,0,89,14.0,0.0
40658,78.0,0,179,1.0,0.0
40659,81.0,0,179,1.0,0.0
40660,59.0,0,179,3.0,0.0
40661,47.0,0,179,3.0,0.0
40662,47.0,0,179,15.0,0.0
40663,66.0,0,179,4.0,0.0
40664,66.0,0,179,6.0,0.0
40665,81.0,0,239,8.0,0.0
40666,81.0,60,119,9.0,0.0
40667,69.0,0,179,4.0,0.0
40668,69.0,0,89,12.0,0.0
40669,69.0,0,179,6.0,0.0
40670,93.0,30,89,0.0,0.0
40671,59.0,0,239,11.0,0.0
40672,81.0,0,89,0.0,0.0
40673,66.0,0,239,11.0,0.0
40674,83.0,0,59,0.0,0.0
40675,95.0,0,59,13.0,0.0
40676,67.0,0,59,14.0,0.0
40677,83.0,0,59,12.0,0.0
40678,71.0,0,59,12.0,0.0
40679,66.0,0,59,14.0,0.0
40680,93.0,0,59,13.0,0.0
40681,69.0,0,59,12.0,0.0
40682,81.0,0,59,0.0,0.0
40683,93.0,0,59,0.0,0.0
40684,81.0,90,59,12.0,0.0
40685,36.0,0,179,3.0,0.0
40686,76.0,0,179,5.0,0.0
40687,64.0,0,179,4.0,0.0
40688,60.0,0,179,3.0,0.0
40689,48.0,0,179,3.0,0.0
40690,76.0,0,179,1.0,0.0
40691,79.0,0,179,1.0,0.0
40692,67.0,0,179,2.0,0.0
40693,64.0,0,179,2.0,0.0
40694,91.0,0,89,0.0,0.0
40695,79.0,0,89,0.0,0.0
40696,67.0,0,224,10.0,0.0
40697,67.0,0,179,4.0,0.0
40698,91.0,0,89,13.0,0.0
40699,64.0,0,239,14.0,0.0
40700,60.0,0,179,15.0,0.0
40701,60.0,0,239,11.0,0.0
40702,67.0,30,89,12.0,0.0
40703,67.0,0,179,6.0,0.0
40704,81.0,0,119,9.0,0.0
40705,64.0,0,179,6.0,0.0
40706,35.0,60,119,9.0,0.0
40707,49.0,0,119,9.0,0.0
40708,64.0,15,224,11.0,0.0
40709,79.0,0,89,12.0,0.0
40710,79.0,0,239,8.0,0.0
40711,48.0,0,179,15.0,0.0
40712,60.0,0,179,6.0,0.0
40713,88.0,0,59,13.0,0.0
40714,64.0,0,59,12.0,0.0
40715,88.0,0,59,0.0,0.0
40716,76.0,0,59,0.0,0.0
40717,76.0,45,59,12.0,0.0
40718,90.0,90,59,0.0,0.0
40719,78.0,0,59,0.0,0.0
40720,66.0,0,59,12.0,0.0
40721,90.0,0,59,13.0,0.0
40722,78.0,0,59,12.0,0.0
40723,67.0,0,179,2.0,0.0
40724,67.0,0,179,6.0,0.0
40725,48.0,0,179,15.0,0.0
40726,60.0,0,179,3.0,0.0
40727,79.0,0,89,0.0,0.0
40728,60.0,0,239,11.0,0.0
40729,79.0,0,179,1.0,0.0
40730,76.0,0,179,1.0,0.0
40731,81.0,60,119,9.0,0.0
40732,67.0,0,89,12.0,0.0
40733,64.0,60,179,2.0,0.0
40734,91.0,0,89,13.0,0.0
40735,79.0,0,239,8.0,0.0
40736,67.0,0,179,4.0,0.0
40737,79.0,0,89,12.0,0.0
40738,64.0,0,239,14.0,0.0
40739,60.0,0,179,15.0,0.0
40740,60.0,0,179,6.0,0.0
40741,36.0,0,179,3.0,0.0
40742,48.0,0,179,3.0,0.0
40743,64.0,0,179,6.0,0.0
40744,91.0,30,89,0.0,0.0
40745,64.0,90,239,11.0,0.0
40746,76.0,0,179,5.0,0.0
40747,64.0,0,179,4.0,0.0
40748,67.0,0,239,10.0,0.0
40749,76.0,0,59,0.0,0.0
40750,88.0,0,59,0.0,0.0
40751,64.0,0,59,12.0,0.0
40752,76.0,0,59,12.0,0.0
40753,88.0,0,59,13.0,0.0
40754,78.0,0,59,12.0,0.0
40755,90.0,0,59,0.0,0.0
40756,78.0,0,59,0.0,0.0
40757,90.0,0,59,13.0,0.0
40758,66.0,0,59,12.0,0.0
40759,60.0,0,239,11.0,0.0
40760,91.0,0,89,13.0,0.0
40761,79.0,30,89,12.0,0.0
40762,67.0,0,179,2.0,0.0
40763,48.0,0,179,15.0,0.0
40764,60.0,0,179,15.0,0.0
40765,49.0,0,119,9.0,0.0
40766,81.0,0,119,9.0,0.0
40767,35.0,60,119,9.0,0.0
40768,76.0,0,179,5.0,0.0
40769,60.0,0,179,6.0,0.0
40770,64.0,0,239,14.0,0.0
40771,64.0,0,239,11.0,0.0
40772,79.0,0,179,1.0,0.0
40773,64.0,0,179,2.0,0.0
40774,76.0,0,179,1.0,0.0
40775,36.0,0,179,3.0,0.0
40776,67.0,0,89,12.0,0.0
40777,91.0,0,89,0.0,0.0
40778,67.0,0,179,6.0,0.0
40779,64.0,0,179,6.0,0.0
40780,79.0,0,239,8.0,0.0
40781,79.0,0,89,0.0,0.0
40782,64.0,0,179,4.0,0.0
40783,67.0,0,179,4.0,0.0
40784,67.0,0,239,10.0,0.0
40785,48.0,0,179,3.0,0.0
40786,60.0,0,179,3.0,0.0
40787,76.0,60,59,12.0,0.0
40788,88.0,0,59,0.0,0.0
40789,76.0,0,59,0.0,0.0
40790,88.0,0,59,13.0,0.0
40791,64.0,0,59,12.0,0.0
40792,78.0,0,59,12.0,0.0
40793,66.0,0,59,12.0,0.0
40794,78.0,0,59,0.0,0.0
40795,90.0,0,59,13.0,0.0
40796,90.0,90,59,0.0,0.0
40797,79.0,0,89,0.0,0.0
40798,64.0,0,179,6.0,0.0
40799,60.0,0,239,11.0,0.0
40800,81.0,60,119,9.0,0.0
40801,48.0,0,179,3.0,0.0
40802,64.0,0,239,14.0,0.0
40803,67.0,0,179,6.0,0.0
40804,36.0,0,179,3.0,0.0
40805,76.0,0,179,1.0,0.0
40806,79.0,0,179,1.0,0.0
40807,79.0,0,239,8.0,0.0
40808,67.0,0,239,10.0,0.0
40809,60.0,60,179,15.0,0.0
40810,91.0,0,89,0.0,0.0
40811,64.0,0,239,11.0,0.0
40812,67.0,0,89,12.0,0.0
40813,76.0,0,179,5.0,0.0
40814,79.0,0,89,12.0,0.0
40815,64.0,0,179,2.0,0.0
40816,67.0,0,179,2.0,0.0
40817,60.0,0,179,3.0,0.0
40818,60.0,0,179,6.0,0.0
40819,91.0,30,89,13.0,0.0
40820,67.0,0,179,4.0,0.0
40821,48.0,0,179,15.0,0.0
40822,64.0,0,179,4.0,0.0
40823,93.0,0,59,0.0,0.0
40824,81.0,0,59,12.0,0.0
40825,81.0,0,59,0.0,0.0
40826,69.0,0,59,12.0,0.0
40827,93.0,0,59,13.0,0.0
40828,91.0,0,59,13.0,0.0
40829,79.0,0,59,0.0,0.0
40830,91.0,0,59,0.0,0.0
40831,79.0,90,59,12.0,0.0
40832,67.0,0,59,12.0,0.0
40833,65.0,0,239,14.0,0.0
40834,69.0,0,179,6.0,0.0
40835,65.0,0,179,6.0,0.0
40836,81.0,0,119,9.0,0.0
40837,49.0,0,119,9.0,0.0
40838,41.0,0,179,3.0,0.0
40839,77.0,0,224,8.0,0.0
40840,53.0,0,179,15.0,0.0
40841,69.0,0,239,14.0,0.0
40842,35.0,60,119,9.0,0.0
40843,65.0,0,179,2.0,0.0
40844,89.0,0,89,13.0,0.0
40845,77.0,0,89,0.0,0.0
40846,65.0,0,89,12.0,0.0
40847,65.0,0,179,3.0,0.0
40848,53.0,0,179,3.0,0.0
40849,77.0,0,89,12.0,0.0
40850,69.0,0,179,2.0,0.0
40851,69.0,0,224,10.0,0.0
40852,69.0,0,179,1.0,0.0
40853,69.0,0,179,5.0,0.0
40854,65.0,0,179,4.0,0.0
40855,89.0,30,89,0.0,0.0
40856,65.0,0,224,11.0,0.0
40857,65.0,0,179,15.0,0.0
40858,77.0,0,179,1.0,0.0
40859,62.0,0,59,12.0,0.0
40860,98.0,45,59,13.0,0.0
40861,74.0,0,59,12.0,0.0
40862,86.0,0,59,0.0,0.0
40863,74.0,0,59,0.0,0.0
40864,76.0,0,59,0.0,0.0
40865,64.0,90,59,12.0,0.0
40866,100.0,0,59,13.0,0.0
40867,76.0,0,59,12.0,0.0
40868,88.0,0,59,0.0,0.0
40869,69.0,0,239,10.0,0.0
40870,77.0,0,89,0.0,0.0
40871,77.0,0,239,8.0,0.0
40872,101.0,0,89,13.0,0.0
40873,89.0,0,89,0.0,0.0
40874,74.0,0,239,14.0,0.0
40875,62.0,0,179,3.0,0.0
40876,38.0,0,179,3.0,0.0
40877,62.0,0,179,15.0,0.0
40878,65.0,30,89,12.0,0.0
40879,65.0,0,239,14.0,0.0
40880,65.0,0,179,2.0,0.0
40881,50.0,0,179,4.0,0.0
40882,62.0,0,179,4.0,0.0
40883,57.0,0,179,4.0,0.0
40884,62.0,0,179,6.0,0.0
40885,50.0,0,179,3.0,0.0
40886,69.0,0,179,4.0,0.0
40887,74.0,0,179,1.0,0.0
40888,77.0,0,179,1.0,0.0
40889,74.0,0,179,2.0,0.0
40890,77.0,0,89,12.0,0.0
40891,62.0,0,179,5.0,0.0
40892,50.0,0,239,7.0,0.0
40893,74.0,0,179,5.0,0.0
40894,50.0,0,179,15.0,0.0
40895,62.0,0,239,11.0,0.0
40896,49.0,0,119,9.0,0.0
40897,81.0,60,119,9.0,0.0
40898,35.0,0,119,9.0,0.0
40899,69.0,0,179,6.0,0.0
40900,67.0,0,59,12.0,0.0
40901,79.0,0,59,0.0,0.0
40902,91.0,0,59,0.0,0.0
40903,103.0,0,59,13.0,0.0
40904,79.0,0,59,12.0,0.0
40905,89.0,0,59,0.0,0.0
40906,101.0,0,59,13.0,0.0
40907,65.0,0,59,12.0,0.0
40908,77.0,0,59,0.0,0.0
40909,77.0,0,59,12.0,0.0
40910,73.0,0,239,2.0,0.0
40911,76.0,0,239,2.0,0.0
40912,64.0,30,89,12.0,0.0
40913,45.0,30,59,7.0,0.0
40914,57.0,0,239,6.0,0.0
40915,45.0,0,179,15.0,0.0
40916,33.0,0,239,3.0,0.0
40917,69.0,0,239,4.0,0.0
40918,57.0,0,239,11.0,0.0
40919,76.0,0,89,12.0,0.0
40920,100.0,0,89,13.0,0.0
40921,35.0,0,119,9.0,0.0
40922,49.0,0,119,9.0,0.0
40923,81.0,0,119,9.0,0.0
40924,69.0,0,239,6.0,0.0
40925,61.0,0,239,6.0,0.0
40926,57.0,0,239,3.0,0.0
40927,45.0,0,239,3.0,0.0
40928,57.0,0,179,15.0,0.0
40929,76.0,90,239,8.0,0.0
40930,73.0,0,239,14.0,0.0
40931,61.0,0,239,11.0,0.0
40932,69.0,0,239,5.0,0.0
40933,57.0,0,239,5.0,0.0
40934,76.0,0,89,0.0,0.0
40935,88.0,0,89,0.0,0.0
40936,45.0,0,239,4.0,0.0
40937,76.0,0,239,1.0,0.0
40938,73.0,0,239,1.0,0.0
40939,57.0,0,239,4.0,0.0
40940,69.0,0,239,10.0,0.0
40941,45.0,60,59,7.0,0.0
40942,88.0,0,59,12.0,0.0
40943,45.0,60,59,7.0,0.0
40944,88.0,0,59,0.0,0.0
40945,76.0,0,59,12.0,0.0
40946,100.0,0,59,13.0,0.0
40947,85.0,0,59,0.0,0.0
40948,85.0,0,59,12.0,0.0
40949,97.0,0,59,13.0,0.0
40950,73.0,0,59,12.0,0.0
40951,45.0,0,59,7.0,0.0
40952,57.0,0,239,5.0,0.0
40953,69.0,0,119,15.0,0.0
40954,57.0,0,119,14.0,0.0
40955,69.0,0,119,2.0,0.0
40956,69.0,0,239,10.0,0.0
40957,57.0,0,119,2.0,0.0
40958,69.0,0,239,5.0,0.0
40959,69.0,0,239,6.0,0.0
40960,45.0,0,119,7.0,0.0
40961,81.0,0,119,9.0,0.0
40962,35.0,0,119,9.0,0.0
40963,49.0,0,119,9.0,0.0
40964,45.0,0,119,4.0,0.0
40965,57.0,0,119,4.0,0.0
40966,81.0,0,89,0.0,0.0
40967,45.0,60,119,3.0,0.0
40968,57.0,0,119,3.0,0.0
40969,81.0,30,89,12.0,0.0
40970,69.0,0,119,3.0,0.0
40971,57.0,0,239,11.0,0.0
40972,69.0,0,239,8.0,0.0
40973,93.0,0,89,13.0,0.0
40974,69.0,0,119,1.0,0.0
40975,57.0,0,239,6.0,0.0
40976,57.0,0,119,15.0,0.0
40977,69.0,0,89,12.0,0.0
40978,57.0,0,119,3.0,0.0
40979,45.0,0,119,7.0,0.0
40980,69.0,0,119,2.0,0.0
40981,81.0,60,119,2.0,0.0
40982,45.0,0,119,15.0,0.0
40983,81.0,0,119,1.0,0.0
40984,45.0,0,119,3.0,0.0
40985,80.0,60,59,12.0,0.0
40986,57.0,0,119,15.0,0.0
40987,57.0,0,119,4.0,0.0
40988,104.0,0,59,13.0,0.0
40989,92.0,0,59,0.0,0.0
40990,69.0,0,119,4.0,0.0
40991,33.0,0,119,3.0,0.0
40992,68.0,0,59,12.0,0.0
40993,68.0,0,59,14.0,0.0
40994,105.0,0,59,13.0,0.0
40995,81.0,0,59,12.0,0.0
40996,69.0,0,59,12.0,0.0
40997,69.0,0,59,14.0,0.0
40998,93.0,0,59,0.0,0.0
40999,81.0,0,239,2.0,0.0
41000,49.0,0,119,9.0,0.0
41001,54.0,0,239,4.0,0.0
41002,59.0,60,119,6.0,0.0
41003,66.0,0,239,4.0,0.0
41004,47.0,0,59,15.0,0.0
41005,75.0,0,59,12.0,0.0
41006,66.0,0,59,14.0,0.0
41007,69.0,0,59,14.0,0.0
41008,78.0,0,239,2.0,0.0
41009,90.0,0,239,0.0,0.0
41010,93.0,0,239,0.0,0.0
41011,66.0,0,239,5.0,0.0
41012,81.0,60,239,5.0,0.0
41013,81.0,0,119,9.0,0.0
41014,69.0,0,239,4.0,0.0
41015,47.0,0,239,3.0,0.0
41016,66.0,0,224,11.0,0.0
41017,35.0,0,119,9.0,0.0
41018,35.0,0,239,3.0,0.0
41019,81.0,0,239,1.0,0.0
41020,78.0,0,239,1.0,0.0
41021,66.0,0,119,6.0,0.0
41022,69.0,0,119,6.0,0.0
41023,59.0,0,224,11.0,0.0
41024,69.0,0,224,10.0,0.0
41025,81.0,0,59,12.0,0.0
41026,59.0,0,59,15.0,0.0
41027,105.0,30,89,13.0,0.0
41028,81.0,0,224,8.0,0.0
41029,78.0,30,59,12.0,0.0
41030,59.0,0,239,3.0,0.0
41031,78.0,0,59,12.0,0.0
41032,75.0,0,59,12.0,0.0
41033,81.0,0,59,12.0,0.0
41034,47.0,0,59,15.0,0.0
41035,69.0,0,59,14.0,0.0
41036,59.0,0,59,15.0,0.0
41037,66.0,0,59,14.0,0.0
41038,66.0,0,59,14.0,0.0
41039,69.0,0,59,14.0,0.0
41040,78.0,0,59,12.0,0.0
41041,47.0,0,59,15.0,0.0
41042,81.0,45,59,12.0,0.0
41043,75.0,0,59,12.0,0.0
41044,59.0,0,59,15.0,0.0
41045,47.0,0,59,15.0,0.0
41046,75.0,0,59,12.0,0.0
41047,102.0,15,44,13.0,0.0
41048,78.0,0,59,12.0,0.0
41049,59.0,0,59,15.0,0.0
41050,81.0,0,59,12.0,0.0
41051,69.0,0,59,14.0,0.0
41052,66.0,0,59,14.0,0.0
41053,69.0,0,479,6.0,0.0
41054,66.0,0,479,6.0,0.0
41055,81.0,0,479,8.0,0.0
41056,59.0,0,479,6.0,0.0
41057,59.0,0,479,11.0,0.0
41058,93.0,0,479,0.0,0.0
41059,54.0,0,479,4.0,0.0
41060,69.0,0,479,4.0,0.0
41061,47.0,30,59,15.0,0.0
41062,59.0,0,479,3.0,0.0
41063,78.0,0,479,2.0,0.0
41064,81.0,0,479,2.0,0.0
41065,66.0,60,479,4.0,0.0
41066,90.0,0,479,0.0,0.0
41067,47.0,0,479,3.0,0.0
41068,69.0,0,479,10.0,0.0
41069,78.0,0,479,1.0,0.0
41070,81.0,0,59,12.0,0.0
41071,69.0,0,59,14.0,0.0
41072,66.0,0,59,14.0,0.0
41073,81.0,0,119,9.0,0.0
41074,81.0,0,479,5.0,0.0
41075,66.0,0,479,5.0,0.0
41076,66.0,0,479,11.0,0.0
41077,105.0,30,89,13.0,0.0
41078,81.0,0,479,1.0,0.0
41079,59.0,0,59,15.0,0.0
41080,75.0,0,59,12.0,0.0
41081,35.0,0,479,3.0,0.0
41082,78.0,0,59,12.0,0.0
41083,49.0,0,119,9.0,0.0
41084,35.0,0,119,9.0,0.0
41085,47.0,0,59,15.0,0.0
41086,69.0,0,59,14.0,0.0
41087,78.0,0,59,12.0,0.0
41088,75.0,60,59,12.0,0.0
41089,59.0,0,59,15.0,0.0
41090,81.0,0,59,12.0,0.0
41091,66.0,0,59,14.0,0.0
41092,81.0,0,59,12.0,0.0
41093,59.0,0,59,15.0,0.0
41094,47.0,45,59,15.0,0.0
41095,69.0,0,59,14.0,0.0
41096,66.0,0,59,14.0,0.0
41097,78.0,0,59,12.0,0.0
41098,75.0,0,59,12.0,0.0
41099,66.0,0,59,14.0,0.0
41100,75.0,0,59,12.0,0.0
41101,47.0,0,59,15.0,0.0
41102,59.0,60,59,15.0,0.0
41103,69.0,0,59,14.0,0.0
41104,102.0,15,44,13.0,0.0
41105,81.0,0,59,12.0,0.0
41106,78.0,0,59,12.0,0.0
41107,47.0,0,59,15.0,0.0
41108,81.0,0,59,12.0,0.0
41109,105.0,30,89,13.0,0.0
41110,75.0,0,59,12.0,0.0
41111,78.0,30,59,12.0,0.0
41112,66.0,0,59,14.0,0.0
41113,69.0,0,59,14.0,0.0
41114,59.0,0,59,15.0,0.0
41115,81.0,0,59,12.0,0.0
41116,75.0,0,59,12.0,0.0
41117,78.0,60,59,12.0,0.0
41118,66.0,0,59,14.0,0.0
41119,47.0,0,59,15.0,0.0
41120,59.0,0,59,15.0,0.0
41121,69.0,0,59,14.0,0.0
41122,81.0,0,59,12.0,0.0
41123,47.0,0,59,15.0,0.0
41124,69.0,0,59,14.0,0.0
41125,59.0,0,59,15.0,0.0
41126,75.0,60,59,12.0,0.0
41127,66.0,0,59,14.0,0.0
41128,78.0,0,59,12.0,0.0
41129,102.0,0,59,13.0,0.0
41130,66.0,0,59,14.0,0.0
41131,69.0,0,59,14.0,0.0
41132,81.0,0,59,12.0,0.0
41133,75.0,0,59,12.0,0.0
41134,78.0,0,59,12.0,0.0
41135,47.0,0,59,15.0,0.0
41136,59.0,0,59,15.0,0.0
41137,69.0,0,119,6.0,0.0
41138,47.0,0,179,3.0,0.0
41139,81.0,0,119,9.0,0.0
41140,59.0,0,119,6.0,0.0
41141,49.0,0,119,9.0,0.0
41142,105.0,0,119,13.0,0.0
41143,59.0,0,179,3.0,0.0
41144,93.0,0,179,0.0,0.0
41145,35.0,0,119,9.0,0.0
41146,90.0,0,179,0.0,0.0
41147,66.0,0,119,6.0,0.0
41148,81.0,0,59,12.0,0.0
41149,69.0,0,239,10.0,0.0
41150,59.0,0,239,11.0,0.0
41151,75.0,60,59,12.0,0.0
41152,78.0,60,179,2.0,0.0
41153,81.0,0,179,2.0,0.0
41154,78.0,0,59,12.0,0.0
41155,81.0,0,239,8.0,0.0
41156,81.0,0,179,1.0,0.0
41157,78.0,0,239,5.0,0.0
41158,81.0,0,239,5.0,0.0
41159,78.0,0,179,1.0,0.0
41160,59.0,0,59,15.0,0.0
41161,66.0,0,239,4.0,0.0
41162,35.0,0,179,3.0,0.0
41163,66.0,0,239,11.0,0.0
41164,69.0,0,239,4.0,0.0
41165,69.0,0,59,14.0,0.0
41166,66.0,0,59,14.0,0.0
41167,47.0,0,59,15.0,0.0
41168,47.0,0,59,15.0,0.0
41169,75.0,0,59,12.0,0.0
41170,66.0,0,59,14.0,0.0
41171,59.0,0,59,15.0,0.0
41172,69.0,0,59,14.0,0.0
41173,81.0,0,59,12.0,0.0
41174,78.0,60,59,12.0,0.0
41175,47.0,0,59,15.0,0.0
41176,78.0,0,59,12.0,0.0
41177,69.0,0,59,14.0,0.0
41178,66.0,0,59,14.0,0.0
41179,75.0,0,59,12.0,0.0
41180,81.0,0,59,12.0,0.0
41181,59.0,0,59,15.0,0.0
41182,66.0,0,59,14.0,0.0
41183,59.0,0,59,15.0,0.0
41184,47.0,0,59,15.0,0.0
41185,81.0,0,59,12.0,0.0
41186,78.0,0,59,12.0,0.0
41187,75.0,0,59,12.0,0.0
41188,69.0,0,59,14.0,0.0
41189,105.0,0,59,13.0,0.0
41190,78.0,0,59,12.0,0.0
41191,66.0,0,119,6.0,0.0
41192,69.0,0,119,6.0,0.0
41193,47.0,0,179,3.0,0.0
41194,75.0,60,59,12.0,0.0
41195,81.0,0,59,12.0,0.0
41196,66.0,0,239,11.0,0.0
41197,93.0,0,179,0.0,0.0
41198,90.0,0,179,0.0,0.0
41199,35.0,60,179,3.0,0.0
41200,78.0,0,239,5.0,0.0
41201,81.0,0,179,1.0,0.0
41202,78.0,0,179,1.0,0.0
41203,81.0,0,239,5.0,0.0
41204,81.0,0,179,2.0,0.0
41205,59.0,0,179,3.0,0.0
41206,66.0,0,239,4.0,0.0
41207,59.0,0,59,15.0,0.0
41208,69.0,0,239,4.0,0.0
41209,105.0,0,119,13.0,0.0
41210,47.0,0,59,15.0,0.0
41211,66.0,0,59,14.0,0.0
41212,69.0,0,239,10.0,0.0
41213,81.0,0,119,9.0,0.0
41214,81.0,0,239,8.0,0.0
41215,69.0,0,59,14.0,0.0
41216,59.0,0,239,11.0,0.0
41217,78.0,0,179,2.0,0.0
41218,59.0,0,119,6.0,0.0
41219,49.0,0,119,9.0,0.0
41220,35.0,0,119,9.0,0.0
41221,78.0,0,59,12.0,0.0
41222,47.0,60,59,15.0,0.0
41223,81.0,0,59,12.0,0.0
41224,69.0,0,59,14.0,0.0
41225,66.0,0,59,14.0,0.0
41226,59.0,0,59,15.0,0.0
41227,75.0,0,59,12.0,0.0
41228,81.0,0,59,12.0,0.0
41229,59.0,0,59,15.0,0.0
41230,78.0,0,59,12.0,0.0
41231,75.0,0,59,12.0,0.0
41232,66.0,0,59,14.0,0.0
41233,69.0,0,59,14.0,0.0
41234,47.0,0,59,15.0,0.0
41235,81.0,0,59,12.0,0.0
41236,75.0,0,59,12.0,0.0
41237,78.0,0,59,12.0,0.0
41238,102.0,60,59,13.0,0.0
41239,59.0,0,59,15.0,0.0
41240,47.0,0,59,15.0,0.0
41241,66.0,0,59,14.0,0.0
41242,69.0,0,59,14.0,0.0
41243,47.0,0,59,15.0,0.0
41244,81.0,0,239,8.0,0.0
41245,81.0,60,179,1.0,0.0
41246,78.0,0,179,1.0,0.0
41247,69.0,0,239,10.0,0.0
41248,105.0,0,119,13.0,0.0
41249,59.0,0,119,6.0,0.0
41250,81.0,0,179,2.0,0.0
41251,66.0,60,59,14.0,0.0
41252,90.0,0,179,0.0,0.0
41253,93.0,0,179,0.0,0.0
41254,59.0,0,239,11.0,0.0
41255,69.0,0,239,4.0,0.0
41256,66.0,0,239,4.0,0.0
41257,35.0,0,179,3.0,0.0
41258,78.0,0,239,5.0,0.0
41259,81.0,0,239,5.0,0.0
41260,69.0,0,59,14.0,0.0
41261,75.0,0,59,12.0,0.0
41262,59.0,0,59,15.0,0.0
41263,59.0,0,179,3.0,0.0
41264,47.0,0,179,3.0,0.0
41265,69.0,60,119,6.0,0.0
41266,66.0,0,119,6.0,0.0
41267,66.0,0,239,11.0,0.0
41268,78.0,0,179,2.0,0.0
41269,78.0,0,59,12.0,0.0
41270,81.0,0,59,12.0,0.0
41271,66.0,0,59,14.0,0.0
41272,69.0,0,59,14.0,0.0
41273,59.0,0,59,15.0,0.0
41274,81.0,0,59,12.0,0.0
41275,78.0,0,59,12.0,0.0
41276,47.0,0,59,15.0,0.0
41277,75.0,0,59,12.0,0.0
41278,69.0,0,59,14.0,0.0
41279,66.0,0,59,14.0,0.0
41280,47.0,0,59,15.0,0.0
41281,78.0,0,59,12.0,0.0
41282,75.0,0,59,12.0,0.0
41283,59.0,0,59,15.0,0.0
41284,81.0,0,59,12.0,0.0
41285,75.0,0,59,12.0,0.0
41286,78.0,0,59,12.0,0.0
41287,47.0,0,59,15.0,0.0
41288,102.0,0,59,13.0,0.0
41289,59.0,0,59,15.0,0.0
41290,81.0,0,59,12.0,0.0
41291,66.0,0,59,14.0,0.0
41292,69.0,0,59,14.0,0.0
41293,78.0,0,239,5.0,0.0
41294,81.0,0,239,5.0,0.0
41295,90.0,0,179,0.0,0.0
41296,66.0,0,239,11.0,0.0
41297,93.0,0,179,0.0,0.0
41298,78.0,0,179,2.0,0.0
41299,81.0,0,239,8.0,0.0
41300,35.0,0,179,3.0,0.0
41301,66.0,0,239,4.0,0.0
41302,69.0,0,239,4.0,0.0
41303,81.0,0,179,2.0,0.0
41304,59.0,0,59,15.0,0.0
41305,66.0,0,119,6.0,0.0
41306,78.0,0,179,1.0,0.0
41307,69.0,0,239,10.0,0.0
41308,35.0,0,119,9.0,0.0
41309,49.0,0,119,9.0,0.0
41310,81.0,0,119,9.0,0.0
41311,47.0,60,59,15.0,0.0
41312,105.0,0,119,13.0,0.0
41313,78.0,0,59,12.0,0.0
41314,81.0,60,179,1.0,0.0
41315,69.0,0,59,14.0,0.0
41316,66.0,0,59,14.0,0.0
41317,75.0,0,59,12.0,0.0
41318,81.0,0,59,12.0,0.0
41319,69.0,0,119,6.0,0.0
41320,59.0,0,239,11.0,0.0
41321,59.0,0,179,3.0,0.0
41322,47.0,0,179,3.0,0.0
41323,59.0,0,119,6.0,0.0
41324,47.0,0,59,15.0,0.0
41325,66.0,0,59,14.0,0.0
41326,69.0,60,59,14.0,0.0
41327,75.0,0,59,12.0,0.0
41328,78.0,0,59,12.0,0.0
41329,59.0,0,59,15.0,0.0
41330,81.0,0,59,12.0,0.0
41331,47.0,0,59,15.0,0.0
41332,69.0,0,59,14.0,0.0
41333,75.0,0,59,12.0,0.0
41334,81.0,0,59,12.0,0.0
41335,66.0,0,59,14.0,0.0
41336,59.0,0,59,15.0,0.0
41337,78.0,0,59,12.0,0.0
41338,102.0,0,59,13.0,0.0
41339,75.0,0,59,12.0,0.0
41340,69.0,0,59,14.0,0.0
41341,66.0,0,59,14.0,0.0
41342,81.0,0,59,12.0,0.0
41343,78.0,0,59,12.0,0.0
41344,59.0,0,59,15.0,0.0
41345,47.0,0,59,15.0,0.0
41346,59.0,0,239,11.0,0.0
41347,90.0,0,179,0.0,0.0
41348,59.0,0,119,6.0,0.0
41349,78.0,0,179,1.0,0.0
41350,81.0,60,179,1.0,0.0
41351,81.0,0,179,2.0,0.0
41352,78.0,0,239,5.0,0.0
41353,81.0,0,239,5.0,0.0
41354,59.0,0,59,15.0,0.0
41355,78.0,60,59,12.0,0.0
41356,93.0,0,179,0.0,0.0
41357,78.0,0,179,2.0,0.0
41358,75.0,0,59,12.0,0.0
41359,47.0,0,59,15.0,0.0
41360,69.0,0,59,14.0,0.0
41361,66.0,0,239,11.0,0.0
41362,81.0,0,59,12.0,0.0
41363,105.0,0,119,13.0,0.0
41364,69.0,0,239,10.0,0.0
41365,66.0,0,59,14.0,0.0
41366,35.0,0,179,3.0,0.0
41367,66.0,0,119,6.0,0.0
41368,59.0,0,179,3.0,0.0
41369,66.0,0,239,4.0,0.0
41370,47.0,0,179,3.0,0.0
41371,81.0,0,239,8.0,0.0
41372,69.0,60,119,6.0,0.0
41373,69.0,0,239,4.0,0.0
41374,69.0,0,59,14.0,0.0
41375,59.0,0,59,15.0,0.0
41376,66.0,0,59,14.0,0.0
41377,47.0,0,59,15.0,0.0
41378,81.0,0,59,12.0,0.0
41379,75.0,0,59,12.0,0.0
41380,78.0,0,59,12.0,0.0
41381,59.0,0,59,15.0,0.0
41382,81.0,0,59,12.0,0.0
41383,47.0,0,59,15.0,0.0
41384,75.0,0,59,12.0,0.0
41385,69.0,0,59,14.0,0.0
41386,66.0,0,59,14.0,0.0
41387,78.0,0,59,12.0,0.0
41388,59.0,0,59,15.0,0.0
41389,105.0,60,59,13.0,0.0
41390,47.0,0,59,15.0,0.0
41391,66.0,0,59,14.0,0.0
41392,69.0,0,59,14.0,0.0
41393,75.0,0,59,12.0,0.0
41394,78.0,0,59,12.0,0.0
41395,81.0,0,59,12.0,0.0
41396,79.0,0,239,5.0,0.0
41397,76.0,0,179,1.0,0.0
41398,79.0,0,179,1.0,0.0
41399,76.0,0,59,14.0,0.0
41400,64.0,0,59,14.0,0.0
41401,60.0,0,224,11.0,0.0
41402,60.0,60,59,15.0,0.0
41403,76.0,0,239,5.0,0.0
41404,64.0,15,224,11.0,0.0
41405,60.0,0,119,6.0,0.0
41406,103.0,0,119,13.0,0.0
41407,91.0,0,179,0.0,0.0
41408,88.0,0,179,0.0,0.0
41409,67.0,0,119,6.0,0.0
41410,79.0,0,179,2.0,0.0
41411,48.0,0,179,3.0,0.0
41412,67.0,0,59,12.0,0.0
41413,76.0,0,59,12.0,0.0
41414,76.0,0,179,2.0,0.0
41415,79.0,0,224,8.0,0.0
41416,64.0,0,119,6.0,0.0
41417,67.0,0,239,4.0,0.0
41418,64.0,0,239,4.0,0.0
41419,79.0,0,59,12.0,0.0
41420,35.0,0,119,9.0,0.0
41421,81.0,0,119,9.0,0.0
41422,60.0,0,179,3.0,0.0
41423,36.0,0,179,3.0,0.0
41424,76.0,0,224,10.0,0.0
41425,48.0,0,59,15.0,0.0
41426,49.0,0,119,9.0,0.0
41427,67.0,0,59,12.0,0.0
41428,76.0,0,59,12.0,0.0
41429,60.0,0,59,15.0,0.0
41430,79.0,60,59,12.0,0.0
41431,64.0,0,59,14.0,0.0
41432,76.0,0,59,14.0,0.0
41433,48.0,0,59,15.0,0.0
41434,67.0,0,59,12.0,0.0
41435,76.0,0,59,12.0,0.0
41436,64.0,0,59,14.0,0.0
41437,79.0,0,59,12.0,0.0
41438,48.0,0,59,15.0,0.0
41439,60.0,0,59,15.0,0.0
41440,76.0,0,59,14.0,0.0
41441,48.0,0,59,15.0,0.0
41442,76.0,0,59,14.0,0.0
41443,60.0,0,59,15.0,0.0
41444,100.0,0,59,13.0,0.0
41445,76.0,0,59,12.0,0.0
41446,79.0,0,59,12.0,0.0
41447,64.0,0,59,14.0,0.0
41448,67.0,0,59,12.0,0.0
41449,79.0,0,179,2.0,0.0
41450,67.0,0,119,6.0,0.0
41451,64.0,0,119,6.0,0.0
41452,76.0,0,179,2.0,0.0
41453,79.0,0,59,12.0,0.0
41454,103.0,60,119,13.0,0.0
41455,60.0,0,239,11.0,0.0
41456,79.0,0,239,8.0,0.0
41457,60.0,0,119,6.0,0.0
41458,76.0,0,179,1.0,0.0
41459,79.0,0,179,1.0,0.0
41460,91.0,0,179,0.0,0.0
41461,60.0,0,59,15.0,0.0
41462,64.0,0,239,11.0,0.0
41463,48.0,0,179,3.0,0.0
41464,88.0,0,179,0.0,0.0
41465,76.0,0,239,5.0,0.0
41466,79.0,0,239,5.0,0.0
41467,76.0,0,239,10.0,0.0
41468,76.0,0,59,12.0,0.0
41469,60.0,0,179,3.0,0.0
41470,67.0,0,59,12.0,0.0
41471,81.0,0,119,9.0,0.0
41472,36.0,0,179,3.0,0.0
41473,64.0,0,239,4.0,0.0
41474,64.0,0,59,14.0,0.0
41475,76.0,0,59,14.0,0.0
41476,48.0,0,59,15.0,0.0
41477,67.0,0,239,4.0,0.0
41478,79.0,0,59,12.0,0.0
41479,48.0,0,59,15.0,0.0
41480,60.0,0,59,15.0,0.0
41481,64.0,0,59,14.0,0.0
41482,76.0,0,59,14.0,0.0
41483,67.0,0,59,12.0,0.0
41484,76.0,0,59,12.0,0.0
41485,79.0,0,59,12.0,0.0
41486,48.0,0,59,15.0,0.0
41487,76.0,0,59,14.0,0.0
41488,64.0,0,59,14.0,0.0
41489,60.0,0,59,15.0,0.0
41490,67.0,0,59,12.0,0.0
41491,76.0,0,59,12.0,0.0
41492,100.0,0,59,13.0,0.0
41493,67.0,0,59,12.0,0.0
41494,64.0,0,59,14.0,0.0
41495,48.0,0,59,15.0,0.0
41496,79.0,0,59,12.0,0.0
41497,60.0,0,59,15.0,0.0
41498,76.0,60,59,14.0,0.0
41499,76.0,0,59,12.0,0.0
41500,76.0,0,239,10.0,0.0
41501,79.0,0,179,1.0,0.0
41502,48.0,0,59,15.0,0.0
41503,76.0,0,179,1.0,0.0
41504,60.0,0,239,11.0,0.0
41505,76.0,0,179,2.0,0.0
41506,88.0,0,179,0.0,0.0
41507,91.0,0,179,0.0,0.0
41508,60.0,60,59,15.0,0.0
41509,79.0,0,59,12.0,0.0
41510,60.0,0,119,6.0,0.0
41511,76.0,0,59,12.0,0.0
41512,67.0,0,59,12.0,0.0
41513,79.0,0,179,2.0,0.0
41514,81.0,0,119,9.0,0.0
41515,79.0,0,239,8.0,0.0
41516,49.0,0,119,9.0,0.0
41517,79.0,0,239,5.0,0.0
41518,76.0,0,239,5.0,0.0
41519,64.0,0,239,11.0,0.0
41520,60.0,0,179,3.0,0.0
41521,48.0,0,179,3.0,0.0
41522,76.0,0,59,14.0,0.0
41523,35.0,0,119,9.0,0.0
41524,64.0,0,59,14.0,0.0
41525,36.0,0,179,3.0,0.0
41526,64.0,0,239,4.0,0.0
41527,103.0,0,119,13.0,0.0
41528,67.0,0,119,6.0,0.0
41529,64.0,0,119,6.0,0.0
41530,67.0,0,239,4.0,0.0
41531,48.0,0,59,15.0,0.0
41532,76.0,0,59,14.0,0.0
41533,64.0,0,59,14.0,0.0
41534,60.0,0,59,15.0,0.0
41535,76.0,0,59,12.0,0.0
41536,67.0,0,59,12.0,0.0
41537,79.0,0,59,12.0,0.0
41538,67.0,0,59,12.0,0.0
41539,60.0,0,59,15.0,0.0
41540,64.0,0,59,14.0,0.0
41541,76.0,0,59,14.0,0.0
41542,79.0,0,59,12.0,0.0
41543,76.0,0,59,12.0,0.0
41544,48.0,60,59,15.0,0.0
41545,79.0,60,59,12.0,0.0
41546,67.0,0,59,12.0,0.0
41547,64.0,0,59,14.0,0.0
41548,60.0,0,59,15.0,0.0
41549,76.0,0,59,14.0,0.0
41550,100.0,0,59,13.0,0.0
41551,76.0,0,59,12.0,0.0
41552,48.0,0,59,15.0,0.0
41553,76.0,0,59,14.0,0.0
41554,76.0,0,179,2.0,0.0
41555,76.0,0,239,5.0,0.0
41556,79.0,0,239,5.0,0.0
41557,88.0,0,59,12.0,0.0
41558,79.0,0,179,1.0,0.0
41559,79.0,0,59,12.0,0.0
41560,91.0,0,179,0.0,0.0
41561,81.0,0,119,9.0,0.0
41562,76.0,0,239,10.0,0.0
41563,103.0,0,119,13.0,0.0
41564,48.0,0,59,15.0,0.0
41565,60.0,0,239,11.0,0.0
41566,76.0,0,179,1.0,0.0
41567,64.0,0,59,14.0,0.0
41568,60.0,60,59,15.0,0.0
41569,48.0,0,179,3.0,0.0
41570,60.0,0,179,3.0,0.0
41571,76.0,0,59,12.0,0.0
41572,36.0,0,179,3.0,0.0
41573,60.0,0,119,6.0,0.0
41574,64.0,0,239,4.0,0.0
41575,67.0,0,239,4.0,0.0
41576,88.0,0,179,0.0,0.0
41577,67.0,60,119,6.0,0.0
41578,64.0,0,119,6.0,0.0
41579,79.0,0,239,8.0,0.0
41580,64.0,0,239,11.0,0.0
41581,79.0,0,179,2.0,0.0
41582,64.0,0,59,14.0,0.0
41583,76.0,0,59,14.0,0.0
41584,88.0,0,59,12.0,0.0
41585,76.0,0,59,12.0,0.0
41586,79.0,0,59,12.0,0.0
41587,60.0,0,59,15.0,0.0
41588,48.0,0,59,15.0,0.0
41589,76.0,0,59,12.0,0.0
41590,76.0,0,59,14.0,0.0
41591,64.0,0,59,14.0,0.0
41592,79.0,0,59,12.0,0.0
41593,88.0,0,59,12.0,0.0
41594,48.0,0,59,15.0,0.0
41595,60.0,60,59,15.0,0.0
41596,60.0,0,59,15.0,0.0
41597,76.0,0,59,14.0,0.0
41598,64.0,0,59,14.0,0.0
41599,79.0,0,59,12.0,0.0
41600,48.0,60,59,15.0,0.0
41601,88.0,0,59,12.0,0.0
41602,100.0,0,59,13.0,0.0
41603,76.0,0,59,12.0,0.0
41604,69.0,0,119,6.0,0.0
41605,53.0,0,239,4.0,0.0
41606,65.0,0,239,4.0,0.0
41607,101.0,0,119,13.0,0.0
41608,77.0,0,59,12.0,0.0
41609,69.0,0,59,12.0,0.0
41610,89.0,0,59,12.0,0.0
41611,65.0,0,59,14.0,0.0
41612,69.0,0,59,14.0,0.0
41613,53.0,0,59,15.0,0.0
41614,65.0,60,59,15.0,0.0
41615,53.0,0,179,3.0,0.0
41616,77.0,0,239,2.0,0.0
41617,77.0,0,224,8.0,0.0
41618,69.0,0,224,10.0,0.0
41619,69.0,0,239,5.0,0.0
41620,41.0,0,179,3.0,0.0
41621,69.0,0,239,2.0,0.0
41622,65.0,0,179,3.0,0.0
41623,77.0,0,179,1.0,0.0
41624,81.0,0,179,0.0,0.0
41625,69.0,0,179,1.0,0.0
41626,81.0,0,119,9.0,0.0
41627,49.0,0,119,9.0,0.0
41628,65.0,0,224,11.0,0.0
41629,65.0,0,119,6.0,0.0
41630,89.0,0,179,0.0,0.0
41631,35.0,60,119,9.0,0.0
41632,77.0,0,59,12.0,0.0
41633,53.0,0,59,15.0,0.0
41634,65.0,0,59,14.0,0.0
41635,69.0,0,59,12.0,0.0
41636,89.0,0,59,12.0,0.0
41637,69.0,0,59,14.0,0.0
41638,65.0,0,59,15.0,0.0
41639,69.0,0,59,14.0,0.0
41640,65.0,45,59,14.0,0.0
41641,69.0,0,59,12.0,0.0
41642,65.0,0,59,15.0,0.0
41643,77.0,0,59,12.0,0.0
41644,81.0,0,119,9.0,0.0
41645,53.0,0,59,15.0,0.0
41646,89.0,0,59,12.0,0.0
41647,53.0,0,59,15.0,0.0
41648,77.0,0,59,12.0,0.0
41649,69.0,0,59,12.0,0.0
41650,93.0,60,59,13.0,0.0
41651,69.0,0,59,14.0,0.0
41652,65.0,0,59,15.0,0.0
41653,65.0,0,59,14.0,0.0
41654,89.0,0,59,12.0,0.0
41655,62.0,0,239,5.0,0.0
41656,74.0,0,239,2.0,0.0
41657,62.0,0,239,11.0,0.0
41658,89.0,0,59,12.0,0.0
41659,74.0,0,239,5.0,0.0
41660,35.0,0,119,9.0,0.0
41661,74.0,0,239,10.0,0.0
41662,77.0,0,239,8.0,0.0
41663,62.0,0,59,15.0,0.0
41664,49.0,0,119,9.0,0.0
41665,65.0,0,59,14.0,0.0
41666,62.0,0,179,3.0,0.0
41667,50.0,0,179,3.0,0.0
41668,38.0,0,179,3.0,0.0
41669,81.0,0,119,9.0,0.0
41670,74.0,0,59,14.0,0.0
41671,50.0,60,239,4.0,0.0
41672,50.0,0,59,15.0,0.0
41673,62.0,0,239,4.0,0.0
41674,77.0,0,239,2.0,0.0
41675,89.0,60,179,0.0,0.0
41676,86.0,0,179,0.0,0.0
41677,50.0,0,239,7.0,0.0
41678,57.0,0,239,4.0,0.0
41679,62.0,0,119,6.0,0.0
41680,74.0,0,119,6.0,0.0
41681,77.0,0,59,12.0,0.0
41682,74.0,0,179,1.0,0.0
41683,101.0,0,119,13.0,0.0
41684,69.0,0,239,4.0,0.0
41685,74.0,60,59,12.0,0.0
41686,77.0,0,179,1.0,0.0
41687,89.0,0,59,12.0,0.0
41688,65.0,0,59,14.0,0.0
41689,74.0,0,59,14.0,0.0
41690,62.0,0,59,15.0,0.0
41691,74.0,0,59,12.0,0.0
41692,77.0,0,59,12.0,0.0
41693,50.0,60,59,15.0,0.0
41694,74.0,0,59,14.0,0.0
41695,74.0,0,59,12.0,0.0
41696,81.0,0,119,9.0,0.0
41697,62.0,0,59,15.0,0.0
41698,89.0,0,59,12.0,0.0
41699,50.0,0,59,15.0,0.0
41700,77.0,0,59,12.0,0.0
41701,65.0,0,59,14.0,0.0
41702,89.0,0,59,12.0,0.0
41703,74.0,0,59,14.0,0.0
41704,101.0,0,59,13.0,0.0
41705,65.0,0,59,14.0,0.0
41706,74.0,0,59,12.0,0.0
41707,77.0,0,59,12.0,0.0
41708,50.0,0,59,15.0,0.0
41709,62.0,0,59,15.0,0.0
41710,35.0,0,119,9.0,0.0
41711,49.0,0,119,9.0,0.0
41712,100.0,0,119,13.0,0.0
41713,76.0,0,239,2.0,0.0
41714,69.0,0,239,4.0,0.0
41715,33.0,30,239,3.0,0.0
41716,76.0,0,179,1.0,0.0
41717,88.0,60,59,12.0,0.0
41718,69.0,0,59,14.0,0.0
41719,57.0,0,119,6.0,0.0
41720,57.0,0,239,11.0,0.0
41721,73.0,0,179,1.0,0.0
41722,73.0,0,239,10.0,0.0
41723,81.0,0,119,9.0,0.0
41724,57.0,0,59,15.0,0.0
41725,73.0,0,59,12.0,0.0
41726,57.0,0,239,4.0,0.0
41727,45.0,0,239,4.0,0.0
41728,76.0,0,59,12.0,0.0
41729,57.0,0,179,3.0,0.0
41730,76.0,0,239,8.0,0.0
41731,85.0,0,179,0.0,0.0
41732,45.0,0,59,15.0,0.0
41733,73.0,0,239,2.0,0.0
41734,69.0,0,239,5.0,0.0
41735,73.0,0,119,6.0,0.0
41736,69.0,0,119,6.0,0.0
41737,45.0,0,239,7.0,0.0
41738,88.0,0,179,0.0,0.0
41739,45.0,0,179,3.0,0.0
41740,57.0,0,239,5.0,0.0
41741,69.0,0,239,11.0,0.0
41742,57.0,60,59,15.0,0.0
41743,45.0,0,59,15.0,0.0
41744,76.0,0,59,12.0,0.0
41745,73.0,0,59,12.0,0.0
41746,69.0,0,59,14.0,0.0
41747,88.0,0,59,12.0,0.0
41748,45.0,0,59,15.0,0.0
41749,57.0,0,59,15.0,0.0
41750,88.0,0,59,12.0,0.0
41751,69.0,0,59,14.0,0.0
41752,81.0,0,119,9.0,0.0
41753,73.0,0,59,12.0,0.0
41754,76.0,60,59,12.0,0.0
41755,45.0,0,59,15.0,0.0
41756,76.0,0,59,12.0,0.0
41757,88.0,0,59,12.0,0.0
41758,93.0,0,59,13.0,0.0
41759,73.0,0,59,12.0,0.0
41760,69.0,0,59,14.0,0.0
41761,57.0,0,59,15.0,0.0
41762,88.0,0,59,12.0,0.0
41763,88.0,0,179,0.0,0.0
41764,57.0,0,119,11.0,0.0
41765,69.0,0,59,14.0,0.0
41766,45.0,0,119,3.0,0.0
41767,57.0,0,119,3.0,0.0
41768,73.0,0,59,12.0,0.0
41769,81.0,0,179,0.0,0.0
41770,69.0,0,119,6.0,0.0
41771,76.0,0,59,12.0,0.0
41772,69.0,0,479,4.0,0.0
41773,49.0,0,119,9.0,0.0
41774,35.0,30,119,9.0,0.0
41775,81.0,0,479,5.0,0.0
41776,69.0,0,239,5.0,0.0
41777,57.0,0,239,4.0,0.0
41778,33.0,0,119,3.0,0.0
41779,64.0,0,224,11.0,0.0
41780,69.0,0,239,2.0,0.0
41781,76.0,0,239,2.0,0.0
41782,50.0,0,479,4.0,0.0
41783,81.0,0,119,9.0,0.0
41784,69.0,0,59,15.0,0.0
41785,69.0,0,179,1.0,0.0
41786,76.0,0,179,1.0,0.0
41787,69.0,15,224,10.0,0.0
41788,57.0,0,59,15.0,0.0
41789,76.0,0,224,8.0,0.0
41790,88.0,30,29,13.0,0.0
41791,45.0,30,239,7.0,0.0
41792,57.0,0,119,6.0,0.0
41793,89.0,30,29,13.0,0.0
41794,88.0,0,59,12.0,0.0
41795,57.0,0,59,15.0,0.0
41796,73.0,0,59,12.0,0.0
41797,88.0,30,29,13.0,0.0
41798,69.0,0,59,15.0,0.0
41799,69.0,0,59,14.0,0.0
41800,76.0,0,59,12.0,0.0
41801,89.0,0,29,13.0,0.0
41802,48.0,0,59,14.0,0.0
41803,60.0,0,59,14.0,0.0
41804,60.0,0,104,11.0,0.0
41805,69.0,0,59,12.0,0.0
41806,88.0,0,59,12.0,0.0
41807,48.0,0,359,3.0,0.0
41808,60.0,0,59,15.0,0.0
41809,88.0,30,29,13.0,0.0
41810,60.0,0,359,3.0,0.0
41811,81.0,0,119,9.0,0.0
41812,48.0,30,59,15.0,0.0
41813,36.0,0,359,3.0,0.0
41814,76.0,0,59,12.0,0.0
41815,89.0,0,29,13.0,0.0
41816,60.0,0,59,14.0,0.0
41817,60.0,0,59,15.0,0.0
41818,86.0,15,29,13.0,0.0
41819,48.0,0,59,14.0,0.0
41820,88.0,0,59,12.0,0.0
41821,69.0,0,59,12.0,0.0
41822,76.0,0,59,12.0,0.0
41823,48.0,0,59,15.0,0.0
41824,88.0,0,29,13.0,0.0
41825,62.0,0,239,11.0,0.0
41826,90.0,30,29,13.0,0.0
41827,78.0,0,59,12.0,0.0
41828,69.0,0,239,2.0,0.0
41829,66.0,0,239,2.0,0.0
41830,81.0,0,119,9.0,0.0
41831,49.0,0,119,9.0,0.0
41832,60.0,0,59,15.0,0.0
41833,35.0,0,119,9.0,0.0
41834,69.0,0,59,12.0,0.0
41835,62.0,60,239,6.0,0.0
41836,74.0,0,359,5.0,0.0
41837,69.0,0,239,6.0,0.0
41838,78.0,0,239,1.0,0.0
41839,60.0,0,59,14.0,0.0
41840,50.0,30,59,7.0,0.0
41841,90.0,0,59,12.0,0.0
41842,60.0,0,239,11.0,0.0
41843,69.0,0,239,1.0,0.0
41844,48.0,0,59,14.0,0.0
41845,90.0,0,239,0.0,0.0
41846,78.0,0,239,8.0,0.0
41847,69.0,0,239,10.0,0.0
41848,48.0,0,59,15.0,0.0
41849,62.0,0,239,4.0,0.0
41850,60.0,0,239,6.0,0.0
41851,91.0,0,29,13.0,0.0
41852,69.0,30,59,12.0,0.0
41853,60.0,0,59,14.0,0.0
41854,48.0,0,59,14.0,0.0
41855,50.0,0,59,7.0,0.0
41856,78.0,0,59,12.0,0.0
41857,90.0,0,59,12.0,0.0
41858,48.0,0,59,15.0,0.0
41859,90.0,30,29,13.0,0.0
41860,60.0,0,59,15.0,0.0
41861,91.0,0,29,13.0,0.0
41862,78.0,0,59,12.0,0.0
41863,50.0,0,59,7.0,0.0
41864,90.0,30,29,13.0,0.0
41865,90.0,0,59,12.0,0.0
41866,69.0,0,59,12.0,0.0
41867,48.0,0,59,15.0,0.0
41868,48.0,0,59,14.0,0.0
41869,60.0,0,59,14.0,0.0
41870,60.0,0,59,15.0,0.0
41871,91.0,30,29,13.0,0.0
41872,78.0,0,59,12.0,0.0
41873,69.0,0,59,12.0,0.0
41874,50.0,0,59,7.0,0.0
41875,60.0,0,59,14.0,0.0
41876,88.0,30,29,13.0,0.0
41877,60.0,0,59,15.0,0.0
41878,90.0,0,59,12.0,0.0
41879,48.0,0,59,15.0,0.0
41880,48.0,0,59,14.0,0.0
41881,90.0,0,29,13.0,0.0
41882,47.0,0,59,3.0,0.0
41883,59.0,0,59,3.0,0.0
41884,91.0,0,599,0.0,0.0
41885,91.0,0,599,13.0,0.0
41886,62.0,0,119,6.0,0.0
41887,71.0,0,119,6.0,0.0
41888,71.0,0,59,2.0,0.0
41889,49.0,0,119,9.0,0.0
41890,35.0,0,119,9.0,0.0
41891,67.0,0,59,2.0,0.0
41892,50.0,0,59,7.0,0.0
41893,59.0,0,119,6.0,0.0
41894,91.0,0,59,12.0,0.0
41895,81.0,0,119,9.0,0.0
41896,79.0,60,59,12.0,0.0
41897,79.0,0,59,1.0,0.0
41898,74.0,0,59,1.0,0.0
41899,71.0,0,59,12.0,0.0
41900,79.0,0,239,5.0,0.0
41901,59.0,0,59,14.0,0.0
41902,79.0,0,1199,8.0,0.0
41903,59.0,0,59,15.0,0.0
41904,47.0,0,59,15.0,0.0
41905,59.0,0,119,11.0,0.0
41906,71.0,0,119,10.0,0.0
41907,35.0,0,119,3.0,0.0
41908,67.0,0,239,4.0,0.0
41909,50.0,0,59,3.0,0.0
41910,62.0,0,59,1.0,0.0
41911,62.0,60,59,2.0,0.0
41912,79.0,0,59,12.0,0.0
41913,91.0,0,59,12.0,0.0
41914,59.0,0,59,15.0,0.0
41915,47.0,0,59,15.0,0.0
41916,50.0,0,59,7.0,0.0
41917,71.0,0,59,12.0,0.0
41918,59.0,0,59,14.0,0.0
41919,67.0,0,119,10.0,0.0
41920,55.0,60,59,15.0,0.0
41921,43.0,0,119,3.0,0.0
41922,55.0,0,119,11.0,0.0
41923,91.0,0,59,12.0,0.0
41924,50.0,0,59,7.0,0.0
41925,71.0,0,59,12.0,0.0
41926,79.0,0,59,12.0,0.0
41927,55.0,0,119,6.0,0.0
41928,67.0,0,119,11.0,0.0
41929,64.0,0,59,1.0,0.0
41930,64.0,0,59,2.0,0.0
41931,67.0,0,59,14.0,0.0
41932,67.0,0,59,15.0,0.0
41933,52.0,0,59,3.0,0.0
41934,91.0,0,59,12.0,0.0
41935,50.0,0,59,7.0,0.0
41936,66.0,0,59,1.0,0.0
41937,67.0,60,59,15.0,0.0
41938,67.0,0,59,14.0,0.0
41939,79.0,0,59,12.0,0.0
41940,54.0,0,59,3.0,0.0
41941,71.0,0,59,12.0,0.0
41942,55.0,0,59,15.0,0.0
41943,66.0,0,59,2.0,0.0
41944,55.0,0,59,3.0,0.0
41945,52.0,0,59,15.0,0.0
41946,67.0,0,959,4.0,0.0
41947,64.0,0,119,11.0,0.0
41948,45.0,0,59,7.0,0.0
41949,81.0,0,119,9.0,0.0
41950,49.0,0,119,9.0,0.0
41951,64.0,0,959,4.0,0.0
41952,35.0,0,119,9.0,0.0
41953,67.0,0,59,2.0,0.0
41954,79.0,0,959,5.0,0.0
41955,88.0,0,59,12.0,0.0
41956,55.0,0,59,2.0,0.0
41957,76.0,0,59,14.0,0.0
41958,76.0,0,959,5.0,0.0
41959,76.0,60,119,10.0,0.0
41960,52.0,0,119,3.0,0.0
41961,64.0,0,59,15.0,0.0
41962,67.0,60,59,1.0,0.0
41963,67.0,0,959,6.0,0.0
41964,91.0,0,59,12.0,0.0
41965,64.0,0,479,6.0,0.0
41966,55.0,0,59,2.0,0.0
41967,67.0,0,59,2.0,0.0
41968,52.0,0,59,15.0,0.0
41969,64.0,0,59,15.0,0.0
41970,88.0,0,59,12.0,0.0
41971,67.0,0,59,1.0,0.0
41972,45.0,0,59,7.0,0.0
41973,76.0,0,59,14.0,0.0
41974,43.0,0,59,3.0,0.0
41975,91.0,0,59,12.0,0.0
41976,55.0,0,59,3.0,0.0
41977,69.0,60,59,1.0,0.0
41978,57.0,0,59,3.0,0.0
41979,45.0,0,59,3.0,0.0
41980,85.0,0,59,12.0,0.0
41981,49.0,0,119,3.0,0.0
41982,73.0,0,119,10.0,0.0
41983,81.0,0,119,9.0,0.0
41984,57.0,0,59,2.0,0.0
41985,69.0,0,59,2.0,0.0
41986,49.0,0,59,15.0,0.0
41987,73.0,0,59,14.0,0.0
41988,45.0,0,59,7.0,0.0
41989,91.0,0,59,12.0,0.0
41990,61.0,0,119,11.0,0.0
41991,61.0,0,59,15.0,0.0
41992,71.0,60,59,1.0,0.0
41993,73.0,0,59,14.0,0.0
41994,45.0,0,59,7.0,0.0
41995,59.0,0,59,2.0,0.0
41996,71.0,0,59,2.0,0.0
41997,91.0,0,59,12.0,0.0
41998,85.0,0,59,12.0,0.0
41999,61.0,0,59,15.0,0.0
42000,59.0,0,59,3.0,0.0
42001,49.0,0,59,15.0,0.0
42002,47.0,0,59,3.0,0.0
42003,69.0,0,119,10.0,0.0
42004,81.0,60,119,9.0,0.0
42005,61.0,0,59,2.0,0.0
42006,57.0,0,59,15.0,0.0
42007,45.0,0,59,7.0,0.0
42008,73.0,0,59,2.0,0.0
42009,69.0,0,59,14.0,0.0
42010,49.0,0,59,3.0,0.0
42011,57.0,0,119,11.0,0.0
42012,45.0,0,119,3.0,0.0
42013,61.0,0,59,3.0,0.0
42014,45.0,0,59,15.0,0.0
42015,81.0,0,59,12.0,0.0
42016,91.0,60,59,12.0,0.0
42017,73.0,0,59,1.0,0.0
42018,50.0,0,59,3.0,0.0
42019,74.0,0,59,1.0,0.0
42020,45.0,0,59,7.0,0.0
42021,62.0,0,59,3.0,0.0
42022,81.0,0,59,12.0,0.0
42023,74.0,0,59,2.0,0.0
42024,45.0,0,59,15.0,0.0
42025,91.0,0,59,12.0,0.0
42026,57.0,0,59,15.0,0.0
42027,62.0,0,59,2.0,0.0
42028,69.0,0,59,14.0,0.0
42029,64.0,0,59,2.0,0.0
42030,43.0,0,119,3.0,0.0
42031,61.0,0,59,2.0,0.0
42032,45.0,0,59,7.0,0.0
42033,43.0,0,59,15.0,0.0
42034,49.0,0,59,3.0,0.0
42035,91.0,0,59,12.0,0.0
42036,81.0,0,119,9.0,0.0
42037,55.0,0,59,15.0,0.0
42038,76.0,0,59,0.0,0.0
42039,67.0,0,119,10.0,0.0
42040,52.0,0,59,3.0,0.0
42041,79.0,60,59,12.0,0.0
42042,55.0,0,119,11.0,0.0
42043,73.0,0,59,1.0,0.0
42044,76.0,0,59,1.0,0.0
42045,88.0,0,59,13.0,0.0
42046,67.0,0,59,14.0,0.0
42047,79.0,0,59,12.0,0.0
42048,55.0,0,59,15.0,0.0
42049,74.0,0,59,1.0,0.0
42050,78.0,0,59,1.0,0.0
42051,45.0,0,59,7.0,0.0
42052,62.0,0,59,2.0,0.0
42053,66.0,0,59,2.0,0.0
42054,78.0,0,59,0.0,0.0
42055,67.0,0,59,14.0,0.0
42056,43.0,0,59,15.0,0.0
42057,50.0,0,59,3.0,0.0
42058,90.0,0,59,13.0,0.0
42059,54.0,0,59,3.0,0.0
42060,91.0,0,59,12.0,0.0
42061,91.0,0,59,13.0,0.0
42062,91.0,0,59,12.0,0.0
42063,64.0,0,119,10.0,0.0
42064,52.0,0,119,11.0,0.0
42065,40.0,0,59,15.0,0.0
42066,52.0,0,59,15.0,0.0
42067,76.0,60,59,12.0,0.0
42068,57.0,60,479,6.0,0.0
42069,52.0,0,59,3.0,0.0
42070,64.0,0,59,14.0,0.0
42071,55.0,0,59,3.0,0.0
42072,79.0,0,59,0.0,0.0
42073,76.0,0,59,1.0,0.0
42074,79.0,0,59,1.0,0.0
42075,45.0,0,59,7.0,0.0
42076,40.0,0,119,3.0,0.0
42077,64.0,0,59,2.0,0.0
42078,81.0,0,119,9.0,0.0
42079,67.0,0,59,2.0,0.0
42080,52.0,0,59,15.0,0.0
42081,40.0,0,59,15.0,0.0
42082,66.0,0,59,2.0,0.0
42083,64.0,0,59,14.0,0.0
42084,57.0,0,59,3.0,0.0
42085,69.0,0,59,2.0,0.0
42086,45.0,0,59,7.0,0.0
42087,81.0,60,59,0.0,0.0
42088,91.0,0,59,12.0,0.0
42089,78.0,0,59,1.0,0.0
42090,81.0,0,59,1.0,0.0
42091,54.0,0,59,3.0,0.0
42092,76.0,0,59,12.0,0.0
42093,93.0,0,59,13.0,0.0
42094,45.0,0,59,7.0,0.0
42095,49.0,0,119,11.0,0.0
42096,83.0,0,59,1.0,0.0
42097,61.0,0,119,11.0,0.0
42098,79.0,0,59,1.0,0.0
42099,81.0,0,119,9.0,0.0
42100,83.0,0,59,0.0,0.0
42101,37.0,0,119,3.0,0.0
42102,59.0,0,59,3.0,0.0
42103,73.0,0,59,12.0,0.0
42104,61.0,0,119,10.0,0.0
42105,71.0,0,59,2.0,0.0
42106,67.0,0,59,2.0,0.0
42107,37.0,60,59,15.0,0.0
42108,49.0,0,59,15.0,0.0
42109,91.0,0,59,12.0,0.0
42110,61.0,0,59,14.0,0.0
42111,55.0,0,59,3.0,0.0
42112,95.0,0,59,13.0,0.0
42113,61.0,0,59,3.0,0.0
42114,45.0,0,59,7.0,0.0
42115,57.0,0,59,3.0,0.0
42116,97.0,0,59,13.0,0.0
42117,37.0,0,59,15.0,0.0
42118,49.0,60,59,15.0,0.0
42119,81.0,0,59,1.0,0.0
42120,91.0,0,59,12.0,0.0
42121,85.0,0,59,1.0,0.0
42122,85.0,0,59,0.0,0.0
42123,73.0,0,59,2.0,0.0
42124,69.0,0,59,2.0,0.0
42125,73.0,0,59,12.0,0.0
42126,61.0,0,59,14.0,0.0
42127,57.0,0,119,10.0,0.0
42128,86.0,0,59,0.0,0.0
42129,71.0,60,59,2.0,0.0
42130,74.0,0,59,2.0,0.0
42131,45.0,0,59,15.0,0.0
42132,98.0,0,59,13.0,0.0
42133,57.0,0,119,11.0,0.0
42134,69.0,0,59,12.0,0.0
42135,81.0,0,119,9.0,0.0
42136,57.0,0,59,14.0,0.0
42137,59.0,0,59,3.0,0.0
42138,86.0,0,59,1.0,0.0
42139,91.0,0,59,12.0,0.0
42140,62.0,0,59,3.0,0.0
42141,33.0,0,59,15.0,0.0
42142,33.0,0,119,3.0,0.0
42143,45.0,0,119,11.0,0.0
42144,45.0,0,59,7.0,0.0
42145,83.0,0,59,1.0,0.0
42146,85.0,0,59,0.0,0.0
42147,69.0,0,59,12.0,0.0
42148,45.0,0,59,15.0,0.0
42149,76.0,0,59,1.0,0.0
42150,57.0,0,59,14.0,0.0
42151,61.0,0,59,3.0,0.0
42152,33.0,0,59,15.0,0.0
42153,91.0,0,59,12.0,0.0
42154,100.0,0,59,13.0,0.0
42155,73.0,0,59,1.0,0.0
42156,88.0,0,59,0.0,0.0
42157,45.0,60,59,7.0,0.0
42158,76.0,0,59,2.0,0.0
42159,73.0,0,59,2.0,0.0
42160,64.0,0,59,3.0,0.0
42161,76.0,0,59,14.0,0.0
42162,91.0,0,59,12.0,0.0
42163,64.0,0,119,11.0,0.0
42164,45.0,0,59,7.0,0.0
42165,69.0,0,59,15.0,0.0
42166,90.0,0,59,0.0,0.0
42167,86.0,0,59,0.0,0.0
42168,57.0,0,59,15.0,0.0
42169,66.0,0,59,3.0,0.0
42170,62.0,0,59,3.0,0.0
42171,45.0,0,119,3.0,0.0
42172,88.0,0,59,12.0,0.0
42173,57.0,0,359,11.0,0.0
42174,74.0,0,59,2.0,0.0
42175,78.0,0,59,2.0,0.0
42176,102.0,0,59,13.0,0.0
42177,76.0,0,119,10.0,0.0
42178,78.0,60,59,1.0,0.0
42179,74.0,0,59,1.0,0.0
42180,81.0,0,119,9.0,0.0
42181,79.0,0,59,1.0,0.0
42182,69.0,0,59,15.0,0.0
42183,88.0,0,59,0.0,0.0
42184,76.0,0,59,14.0,0.0
42185,76.0,0,59,1.0,0.0
42186,57.0,0,59,15.0,0.0
42187,91.0,0,59,0.0,0.0
42188,88.0,0,59,12.0,0.0
42189,64.0,0,59,3.0,0.0
42190,45.0,0,59,7.0,0.0
42191,103.0,0,59,13.0,0.0
42192,91.0,0,59,12.0,0.0
42193,76.0,0,59,2.0,0.0
42194,79.0,0,59,2.0,0.0
42195,67.0,0,59,3.0,0.0
42196,45.0,0,59,7.0,0.0
42197,86.0,0,239,0.0,0.0
42198,90.0,0,239,0.0,0.0
42199,62.0,0,119,6.0,0.0
42200,35.0,60,119,9.0,0.0
42201,66.0,0,119,6.0,0.0
42202,81.0,0,119,9.0,0.0
42203,74.0,0,59,14.0,0.0
42204,45.0,0,359,3.0,0.0
42205,78.0,0,239,8.0,0.0
42206,66.0,0,239,11.0,0.0
42207,74.0,0,239,10.0,0.0
42208,57.0,0,59,15.0,0.0
42209,49.0,0,119,9.0,0.0
42210,86.0,0,59,12.0,0.0
42211,78.0,60,59,12.0,0.0
42212,62.0,0,239,4.0,0.0
42213,78.0,0,239,2.0,0.0
42214,57.0,0,119,6.0,0.0
42215,69.0,0,59,15.0,0.0
42216,74.0,0,239,2.0,0.0
42217,66.0,0,239,4.0,0.0
42218,90.0,0,59,12.0,0.0
42219,66.0,0,239,3.0,0.0
42220,102.0,0,119,13.0,0.0
42221,62.0,0,239,3.0,0.0
42222,78.0,0,239,1.0,0.0
42223,77.0,0,239,5.0,0.0
42224,74.0,0,239,5.0,0.0
42225,74.0,0,239,1.0,0.0
42226,74.0,0,59,14.0,0.0
42227,69.0,0,59,15.0,0.0
42228,57.0,0,59,15.0,0.0
42229,78.0,0,59,12.0,0.0
42230,45.0,0,59,7.0,0.0
42231,90.0,0,59,12.0,0.0
42232,86.0,0,59,12.0,0.0
42233,78.0,0,59,12.0,0.0
42234,45.0,0,59,7.0,0.0
42235,86.0,0,59,12.0,0.0
42236,57.0,0,59,15.0,0.0
42237,90.0,0,59,12.0,0.0
42238,74.0,0,59,14.0,0.0
42239,69.0,60,59,15.0,0.0
42240,86.0,0,59,12.0,0.0
42241,69.0,0,59,15.0,0.0
42242,78.0,0,59,12.0,0.0
42243,90.0,0,59,12.0,0.0
42244,74.0,0,59,14.0,0.0
42245,57.0,0,59,15.0,0.0
42246,45.0,0,59,7.0,0.0
42247,102.0,0,59,13.0,0.0
42248,73.0,0,119,2.0,0.0
42249,76.0,0,239,2.0,0.0
42250,88.0,0,239,0.0,0.0
42251,85.0,0,119,0.0,0.0
42252,64.0,0,119,3.0,0.0
42253,57.0,0,59,15.0,0.0
42254,61.0,0,119,3.0,0.0
42255,88.0,0,59,12.0,0.0
42256,45.0,0,59,7.0,0.0
42257,61.0,0,119,6.0,0.0
42258,57.0,0,119,6.0,0.0
42259,64.0,0,119,6.0,0.0
42260,76.0,0,239,5.0,0.0
42261,35.0,0,119,9.0,0.0
42262,49.0,0,119,9.0,0.0
42263,69.0,0,239,5.0,0.0
42264,73.0,0,59,14.0,0.0
42265,73.0,0,119,1.0,0.0
42266,76.0,0,239,1.0,0.0
42267,64.0,0,239,4.0,0.0
42268,57.0,0,239,4.0,0.0
42269,100.0,30,29,13.0,0.0
42270,76.0,0,59,12.0,0.0
42271,81.0,0,119,9.0,0.0
42272,76.0,0,239,8.0,0.0
42273,57.0,0,119,11.0,0.0
42274,73.0,0,119,10.0,0.0
42275,69.0,30,59,15.0,0.0
42276,85.0,0,59,12.0,0.0
42277,102.0,0,29,13.0,0.0
42278,45.0,30,59,7.0,0.0
42279,85.0,0,59,12.0,0.0
42280,57.0,0,59,14.0,0.0
42281,76.0,0,59,12.0,0.0
42282,57.0,0,59,15.0,0.0
42283,69.0,0,59,15.0,0.0
42284,100.0,30,29,13.0,0.0
42285,88.0,0,59,12.0,0.0
42286,102.0,0,29,13.0,0.0
42287,69.0,0,119,10.0,0.0
42288,69.0,0,119,2.0,0.0
42289,81.0,30,119,0.0,0.0
42290,81.0,0,59,12.0,0.0
42291,69.0,0,119,1.0,0.0
42292,48.0,0,359,3.0,0.0
42293,48.0,0,59,15.0,0.0
42294,88.0,0,59,12.0,0.0
42295,45.0,0,59,7.0,0.0
42296,60.0,0,119,11.0,0.0
42297,36.0,0,359,3.0,0.0
42298,60.0,30,59,14.0,0.0
42299,48.0,0,59,14.0,0.0
42300,60.0,0,59,15.0,0.0
42301,100.0,30,29,13.0,0.0
42302,60.0,0,359,3.0,0.0
42303,102.0,0,29,13.0,0.0
42304,60.0,0,59,15.0,0.0
42305,98.0,30,29,13.0,0.0
42306,88.0,0,59,12.0,0.0
42307,48.0,0,59,14.0,0.0
42308,48.0,0,59,15.0,0.0
42309,60.0,0,59,14.0,0.0
42310,45.0,0,59,7.0,0.0
42311,81.0,0,59,12.0,0.0
42312,100.0,0,29,13.0,0.0
42313,60.0,0,59,14.0,0.0
42314,102.0,30,29,13.0,0.0
42315,69.0,0,104,10.0,0.0
42316,62.0,0,239,6.0,0.0
42317,66.0,0,239,6.0,0.0
42318,74.0,0,119,5.0,0.0
42319,78.0,0,119,5.0,0.0
42320,78.0,0,104,8.0,0.0
42321,48.0,0,59,14.0,0.0
42322,66.0,0,119,4.0,0.0
42323,90.0,0,239,0.0,0.0
42324,48.0,0,59,15.0,0.0
42325,60.0,0,104,11.0,0.0
42326,50.0,0,59,7.0,0.0
42327,90.0,0,59,12.0,0.0
42328,78.0,0,239,2.0,0.0
42329,69.0,0,239,2.0,0.0
42330,49.0,0,119,9.0,0.0
42331,81.0,0,119,9.0,0.0
42332,50.0,0,239,4.0,0.0
42333,62.0,0,119,4.0,0.0
42334,60.0,0,239,6.0,0.0
42335,35.0,0,119,9.0,0.0
42336,62.0,15,104,11.0,0.0
42337,78.0,0,239,1.0,0.0
42338,69.0,0,239,1.0,0.0
42339,78.0,0,59,12.0,0.0
42340,60.0,30,59,15.0,0.0
42341,86.0,0,59,12.0,0.0
42342,103.0,0,29,13.0,0.0
42343,48.0,0,59,15.0,0.0
42344,74.0,0,59,12.0,0.0
42345,102.0,15,29,13.0,0.0
42346,66.0,0,59,14.0,0.0
42347,60.0,30,59,15.0,0.0
42348,50.0,0,59,7.0,0.0
42349,90.0,0,59,12.0,0.0
42350,103.0,0,29,13.0,0.0
42351,62.0,0,119,4.0,0.0
42352,60.0,30,59,15.0,0.0
42353,50.0,0,59,7.0,0.0
42354,78.0,0,119,5.0,0.0
42355,62.0,0,119,11.0,0.0
42356,48.0,0,59,15.0,0.0
42357,74.0,0,119,5.0,0.0
42358,66.0,0,119,4.0,0.0
42359,102.0,30,29,13.0,0.0
42360,90.0,0,59,12.0,0.0
42361,76.0,0,59,12.0,0.0
42362,67.0,0,59,14.0,0.0
42363,69.0,0,119,10.0,0.0
42364,78.0,0,119,8.0,0.0
42365,60.0,0,119,11.0,0.0
42366,103.0,0,29,13.0,0.0
42367,100.0,30,29,13.0,0.0
42368,78.0,0,59,12.0,0.0
42369,69.0,0,59,14.0,0.0
42370,90.0,0,59,12.0,0.0
42371,50.0,0,59,7.0,0.0
42372,48.0,0,59,15.0,0.0
42373,60.0,0,59,15.0,0.0
42374,102.0,0,29,13.0,0.0
42375,59.0,0,59,15.0,0.0
42376,79.0,0,59,2.0,0.0
42377,71.0,0,59,2.0,0.0
42378,50.0,0,119,4.0,0.0
42379,67.0,0,119,6.0,0.0
42380,62.0,0,119,6.0,0.0
42381,81.0,0,119,9.0,0.0
42382,49.0,0,119,9.0,0.0
42383,35.0,0,119,9.0,0.0
42384,91.0,0,59,12.0,0.0
42385,91.0,0,599,0.0,0.0
42386,62.0,0,119,4.0,0.0
42387,103.0,0,599,13.0,0.0
42388,74.0,0,119,5.0,0.0
42389,79.0,0,239,5.0,0.0
42390,71.0,0,59,1.0,0.0
42391,79.0,0,1199,8.0,0.0
42392,50.0,0,59,7.0,0.0
42393,71.0,60,119,10.0,0.0
42394,79.0,0,59,12.0,0.0
42395,71.0,0,59,12.0,0.0
42396,35.0,0,119,3.0,0.0
42397,59.0,0,59,3.0,0.0
42398,47.0,0,59,3.0,0.0
42399,79.0,0,59,1.0,0.0
42400,67.0,0,59,14.0,0.0
42401,71.0,0,59,14.0,0.0
42402,59.0,0,119,6.0,0.0
42403,59.0,0,119,11.0,0.0
42404,47.0,60,59,15.0,0.0
42405,47.0,0,59,15.0,0.0
42406,62.0,0,59,2.0,0.0
42407,62.0,0,59,1.0,0.0
42408,50.0,0,59,7.0,0.0
42409,91.0,0,59,12.0,0.0
42410,79.0,0,59,12.0,0.0
42411,71.0,0,59,14.0,0.0
42412,67.0,0,59,14.0,0.0
42413,71.0,0,59,12.0,0.0
42414,59.0,0,59,15.0,0.0
42415,50.0,0,59,3.0,0.0
42416,43.0,0,119,3.0,0.0
42417,67.0,60,119,11.0,0.0
42418,91.0,0,59,12.0,0.0
42419,64.0,0,59,1.0,0.0
42420,43.0,0,59,15.0,0.0
42421,55.0,0,119,6.0,0.0
42422,79.0,60,59,12.0,0.0
42423,71.0,0,59,12.0,0.0
42424,67.0,0,59,14.0,0.0
42425,71.0,0,59,14.0,0.0
42426,55.0,0,59,15.0,0.0
42427,50.0,0,59,7.0,0.0
42428,67.0,0,119,4.0,0.0
42429,55.0,0,119,11.0,0.0
42430,64.0,0,59,2.0,0.0
42431,67.0,0,119,10.0,0.0
42432,52.0,0,59,3.0,0.0
42433,91.0,0,59,12.0,0.0
42434,67.0,0,59,14.0,0.0
42435,79.0,0,59,12.0,0.0
42436,66.0,0,59,1.0,0.0
42437,66.0,0,59,2.0,0.0
42438,50.0,0,59,7.0,0.0
42439,55.0,0,59,15.0,0.0
42440,54.0,0,59,3.0,0.0
42441,43.0,0,59,15.0,0.0
42442,71.0,0,59,12.0,0.0
42443,71.0,0,59,14.0,0.0
42444,45.0,0,59,7.0,0.0
42445,55.0,0,59,3.0,0.0
42446,88.0,0,59,12.0,0.0
42447,67.0,0,59,1.0,0.0
42448,76.0,0,59,14.0,0.0
42449,35.0,0,119,9.0,0.0
42450,79.0,0,959,5.0,0.0
42451,64.0,0,59,15.0,0.0
42452,52.0,0,119,3.0,0.0
42453,49.0,0,119,9.0,0.0
42454,64.0,0,119,11.0,0.0
42455,67.0,0,959,6.0,0.0
42456,76.0,0,959,5.0,0.0
42457,64.0,0,479,6.0,0.0
42458,64.0,0,959,4.0,0.0
42459,67.0,60,59,2.0,0.0
42460,91.0,0,59,12.0,0.0
42461,76.0,0,119,10.0,0.0
42462,67.0,0,959,4.0,0.0
42463,81.0,0,119,9.0,0.0
42464,52.0,0,59,15.0,0.0
42465,76.0,0,59,14.0,0.0
42466,45.0,0,59,7.0,0.0
42467,64.0,0,59,15.0,0.0
42468,88.0,0,59,12.0,0.0
42469,52.0,0,59,15.0,0.0
42470,91.0,0,59,12.0,0.0
42471,67.0,60,59,1.0,0.0
42472,55.0,0,59,3.0,0.0
42473,67.0,0,59,2.0,0.0
42474,69.0,0,59,2.0,0.0
42475,81.0,0,119,9.0,0.0
42476,61.0,0,59,15.0,0.0
42477,45.0,0,59,7.0,0.0
42478,57.0,60,59,3.0,0.0
42479,49.0,0,119,3.0,0.0
42480,73.0,0,59,14.0,0.0
42481,69.0,0,59,1.0,0.0
42482,61.0,0,119,11.0,0.0
42483,49.0,0,59,15.0,0.0
42484,73.0,60,119,10.0,0.0
42485,85.0,0,59,12.0,0.0
42486,91.0,0,59,12.0,0.0
42487,71.0,0,59,2.0,0.0
42488,73.0,0,59,14.0,0.0
42489,71.0,0,59,1.0,0.0
42490,61.0,0,59,15.0,0.0
42491,47.0,0,59,3.0,0.0
42492,49.0,0,59,15.0,0.0
42493,45.0,0,59,7.0,0.0
42494,91.0,0,59,12.0,0.0
42495,59.0,0,59,3.0,0.0
42496,85.0,0,59,12.0,0.0
42497,81.0,0,59,12.0,0.0
42498,45.0,0,119,3.0,0.0
42499,69.0,60,59,14.0,0.0
42500,57.0,0,59,15.0,0.0
42501,69.0,0,119,10.0,0.0
42502,57.0,0,119,11.0,0.0
42503,45.0,0,59,7.0,0.0
42504,45.0,0,59,15.0,0.0
42505,61.0,0,59,2.0,0.0
42506,73.0,0,59,2.0,0.0
42507,81.0,0,119,9.0,0.0
42508,91.0,0,59,12.0,0.0
42509,73.0,0,59,1.0,0.0
42510,61.0,0,59,3.0,0.0
42511,49.0,0,59,3.0,0.0
42512,81.0,0,59,12.0,0.0
42513,57.0,0,59,15.0,0.0
42514,74.0,0,59,1.0,0.0
42515,45.0,0,59,7.0,0.0
42516,69.0,0,59,14.0,0.0
42517,50.0,0,59,3.0,0.0
42518,45.0,0,59,15.0,0.0
42519,91.0,0,59,12.0,0.0
42520,62.0,0,59,2.0,0.0
42521,49.0,0,59,3.0,0.0
42522,81.0,0,119,9.0,0.0
42523,88.0,0,59,13.0,0.0
42524,43.0,0,119,3.0,0.0
42525,79.0,0,59,12.0,0.0
42526,55.0,0,59,15.0,0.0
42527,76.0,0,59,1.0,0.0
42528,55.0,0,119,11.0,0.0
42529,43.0,0,59,15.0,0.0
42530,45.0,0,59,7.0,0.0
42531,76.0,0,59,0.0,0.0
42532,73.0,0,59,1.0,0.0
42533,67.0,0,119,10.0,0.0
42534,61.0,0,59,2.0,0.0
42535,64.0,0,59,2.0,0.0
42536,67.0,0,59,14.0,0.0
42537,52.0,0,59,3.0,0.0
42538,91.0,60,59,12.0,0.0
42539,66.0,0,59,2.0,0.0
42540,91.0,0,59,12.0,0.0
42541,62.0,0,59,2.0,0.0
42542,67.0,0,59,14.0,0.0
42543,45.0,0,59,7.0,0.0
42544,50.0,0,59,3.0,0.0
42545,43.0,0,59,15.0,0.0
42546,79.0,60,59,12.0,0.0
42547,74.0,0,59,1.0,0.0
42548,90.0,0,59,13.0,0.0
42549,78.0,0,59,1.0,0.0
42550,55.0,0,59,15.0,0.0
42551,78.0,0,59,0.0,0.0
42552,54.0,0,59,3.0,0.0
42553,64.0,0,59,14.0,0.0
42554,40.0,0,59,15.0,0.0
42555,91.0,0,59,13.0,0.0
42556,52.0,0,59,15.0,0.0
42557,79.0,0,59,0.0,0.0
42558,40.0,0,119,3.0,0.0
42559,67.0,0,59,2.0,0.0
42560,64.0,0,59,2.0,0.0
42561,76.0,0,59,12.0,0.0
42562,57.0,0,479,6.0,0.0
42563,91.0,0,59,12.0,0.0
42564,81.0,0,119,9.0,0.0
42565,64.0,60,119,10.0,0.0
42566,79.0,0,59,1.0,0.0
42567,52.0,0,119,11.0,0.0
42568,55.0,60,59,3.0,0.0
42569,76.0,0,59,1.0,0.0
42570,45.0,0,59,7.0,0.0
42571,52.0,0,59,3.0,0.0
42572,45.0,0,59,7.0,0.0
42573,40.0,0,59,15.0,0.0
42574,81.0,0,59,0.0,0.0
42575,69.0,0,59,2.0,0.0
42576,76.0,0,59,12.0,0.0
42577,81.0,0,59,1.0,0.0
42578,64.0,0,59,14.0,0.0
42579,52.0,0,59,15.0,0.0
42580,91.0,0,59,12.0,0.0
42581,93.0,0,59,13.0,0.0
42582,78.0,0,59,1.0,0.0
42583,66.0,0,59,2.0,0.0
42584,54.0,0,59,3.0,0.0
42585,57.0,0,59,3.0,0.0
42586,61.0,0,119,10.0,0.0
42587,45.0,0,59,7.0,0.0
42588,67.0,0,59,2.0,0.0
42589,37.0,0,119,3.0,0.0
42590,55.0,0,59,3.0,0.0
42591,59.0,0,59,3.0,0.0
42592,95.0,0,59,13.0,0.0
42593,73.0,0,59,12.0,0.0
42594,49.0,0,59,15.0,0.0
42595,61.0,0,59,14.0,0.0
42596,49.0,0,119,11.0,0.0
42597,83.0,0,59,0.0,0.0
42598,81.0,0,119,9.0,0.0
42599,83.0,0,59,1.0,0.0
42600,61.0,0,119,11.0,0.0
42601,79.0,0,59,1.0,0.0
42602,37.0,60,59,15.0,0.0
42603,71.0,0,59,2.0,0.0
42604,91.0,0,59,12.0,0.0
42605,81.0,0,59,1.0,0.0
42606,91.0,0,59,12.0,0.0
42607,85.0,0,59,0.0,0.0
42608,69.0,0,59,2.0,0.0
42609,73.0,60,59,2.0,0.0
42610,61.0,0,59,3.0,0.0
42611,57.0,0,59,3.0,0.0
42612,37.0,0,59,15.0,0.0
42613,85.0,0,59,1.0,0.0
42614,61.0,0,59,14.0,0.0
42615,45.0,0,59,7.0,0.0
42616,97.0,0,59,13.0,0.0
42617,49.0,0,59,15.0,0.0
42618,73.0,0,59,12.0,0.0
42619,74.0,0,59,2.0,0.0
42620,45.0,0,59,15.0,0.0
42621,57.0,0,59,14.0,0.0
42622,86.0,0,59,1.0,0.0
42623,91.0,0,59,12.0,0.0
42624,83.0,0,59,1.0,0.0
42625,45.0,0,119,11.0,0.0
42626,59.0,0,59,3.0,0.0
42627,33.0,60,59,15.0,0.0
42628,57.0,60,119,11.0,0.0
42629,57.0,0,119,10.0,0.0
42630,45.0,0,59,7.0,0.0
42631,33.0,0,119,3.0,0.0
42632,86.0,0,59,0.0,0.0
42633,98.0,0,59,13.0,0.0
42634,69.0,0,59,12.0,0.0
42635,71.0,0,59,2.0,0.0
42636,62.0,0,59,3.0,0.0
42637,81.0,0,119,9.0,0.0
42638,33.0,0,59,15.0,0.0
42639,85.0,0,59,0.0,0.0
42640,45.0,0,59,7.0,0.0
42641,73.0,0,59,2.0,0.0
42642,76.0,0,59,2.0,0.0
42643,45.0,0,59,15.0,0.0
42644,100.0,0,59,13.0,0.0
42645,76.0,0,59,1.0,0.0
42646,61.0,0,59,3.0,0.0
42647,64.0,0,59,3.0,0.0
42648,57.0,0,59,14.0,0.0
42649,91.0,0,59,12.0,0.0
42650,88.0,0,59,0.0,0.0
42651,69.0,0,59,12.0,0.0
42652,73.0,0,59,1.0,0.0
42653,69.0,0,59,15.0,0.0
42654,67.0,0,119,11.0,0.0
42655,81.0,0,119,9.0,0.0
42656,86.0,0,59,0.0,0.0
42657,57.0,60,359,11.0,0.0
42658,57.0,0,59,15.0,0.0
42659,67.0,0,59,14.0,0.0
42660,76.0,0,59,14.0,0.0
42661,74.0,0,59,2.0,0.0
42662,78.0,0,59,2.0,0.0
42663,45.0,0,119,3.0,0.0
42664,62.0,0,59,3.0,0.0
42665,66.0,0,59,3.0,0.0
42666,76.0,0,119,10.0,0.0
42667,78.0,60,59,1.0,0.0
42668,74.0,0,59,1.0,0.0
42669,102.0,0,59,13.0,0.0
42670,88.0,0,59,12.0,0.0
42671,91.0,0,59,12.0,0.0
42672,45.0,0,59,7.0,0.0
42673,90.0,0,59,0.0,0.0
42674,91.0,60,59,12.0,0.0
42675,76.0,0,59,1.0,0.0
42676,88.0,0,59,12.0,0.0
42677,79.0,0,59,1.0,0.0
42678,67.0,0,59,3.0,0.0
42679,64.0,0,59,3.0,0.0
42680,67.0,0,59,14.0,0.0
42681,57.0,0,59,15.0,0.0
42682,91.0,0,59,0.0,0.0
42683,88.0,0,59,0.0,0.0
42684,45.0,0,59,7.0,0.0
42685,79.0,0,59,2.0,0.0
42686,76.0,0,59,2.0,0.0
42687,69.0,0,59,15.0,0.0
42688,76.0,0,59,14.0,0.0
42689,103.0,0,59,13.0,0.0
42690,86.0,0,59,12.0,0.0
42691,57.0,0,59,15.0,0.0
42692,78.0,0,239,8.0,0.0
42693,45.0,0,239,3.0,0.0
42694,35.0,0,119,9.0,0.0
42695,86.0,0,239,0.0,0.0
42696,81.0,0,119,9.0,0.0
42697,49.0,0,119,9.0,0.0
42698,66.0,0,239,3.0,0.0
42699,62.0,0,239,3.0,0.0
42700,45.0,60,59,7.0,0.0
42701,78.0,0,59,12.0,0.0
42702,69.0,0,239,11.0,0.0
42703,69.0,0,59,15.0,0.0
42704,66.0,0,119,6.0,0.0
42705,62.0,0,119,6.0,0.0
42706,78.0,0,239,5.0,0.0
42707,74.0,0,239,5.0,0.0
42708,102.0,0,119,13.0,0.0
42709,90.0,0,239,0.0,0.0
42710,66.0,0,59,14.0,0.0
42711,74.0,0,59,14.0,0.0
42712,57.0,0,119,6.0,0.0
42713,90.0,0,59,12.0,0.0
42714,74.0,0,239,2.0,0.0
42715,74.0,0,239,1.0,0.0
42716,78.0,0,239,2.0,0.0
42717,78.0,0,239,1.0,0.0
42718,66.0,0,239,4.0,0.0
42719,62.0,0,239,4.0,0.0
42720,74.0,0,239,10.0,0.0
42721,69.0,0,59,15.0,0.0
42722,45.0,60,59,7.0,0.0
42723,86.0,0,59,12.0,0.0
42724,57.0,0,59,15.0,0.0
42725,74.0,0,59,14.0,0.0
42726,66.0,0,59,14.0,0.0
42727,90.0,0,59,12.0,0.0
42728,78.0,0,59,12.0,0.0
42729,57.0,0,59,15.0,0.0
42730,90.0,0,59,12.0,0.0
42731,45.0,0,59,7.0,0.0
42732,78.0,60,59,12.0,0.0
42733,66.0,0,59,14.0,0.0
42734,69.0,0,59,15.0,0.0
42735,86.0,0,59,12.0,0.0
42736,74.0,0,59,14.0,0.0
42737,103.0,0,59,13.0,0.0
42738,66.0,0,59,14.0,0.0
42739,74.0,0,59,14.0,0.0
42740,78.0,0,59,12.0,0.0
42741,57.0,0,59,15.0,0.0
42742,86.0,0,59,12.0,0.0
42743,102.0,0,59,13.0,0.0
42744,45.0,0,59,7.0,0.0
42745,69.0,0,59,15.0,0.0
42746,90.0,0,59,12.0,0.0
42747,73.0,0,239,1.0,0.0
42748,100.0,0,119,13.0,0.0
42749,76.0,0,239,1.0,0.0
42750,73.0,0,239,10.0,0.0
42751,33.0,0,239,3.0,0.0
42752,76.0,0,59,12.0,0.0
42753,85.0,60,59,12.0,0.0
42754,57.0,0,59,15.0,0.0
42755,45.0,0,59,7.0,0.0
42756,76.0,0,239,8.0,0.0
42757,73.0,0,239,2.0,0.0
42758,88.0,0,59,12.0,0.0
42759,73.0,0,59,14.0,0.0
42760,35.0,0,119,9.0,0.0
42761,88.0,0,239,0.0,0.0
42762,49.0,0,119,9.0,0.0
42763,69.0,0,239,5.0,0.0
42764,76.0,0,239,5.0,0.0
42765,61.0,0,239,3.0,0.0
42766,64.0,0,239,3.0,0.0
42767,64.0,0,59,14.0,0.0
42768,61.0,0,119,6.0,0.0
42769,64.0,0,119,6.0,0.0
42770,81.0,0,119,9.0,0.0
42771,76.0,0,239,2.0,0.0
42772,57.0,0,239,11.0,0.0
42773,57.0,0,239,4.0,0.0
42774,45.0,0,59,15.0,0.0
42775,57.0,0,119,6.0,0.0
42776,85.0,0,239,0.0,0.0
42777,64.0,0,239,4.0,0.0
42778,45.0,0,59,7.0,0.0
42779,88.0,0,59,12.0,0.0
42780,76.0,0,59,12.0,0.0
42781,45.0,0,59,15.0,0.0
42782,85.0,0,59,12.0,0.0
42783,64.0,0,59,14.0,0.0
42784,73.0,0,59,14.0,0.0
42785,57.0,60,59,15.0,0.0
42786,45.0,60,59,15.0,0.0
42787,57.0,0,59,15.0,0.0
42788,73.0,0,59,14.0,0.0
42789,64.0,0,59,14.0,0.0
42790,85.0,0,59,12.0,0.0
42791,76.0,0,59,12.0,0.0
42792,102.0,0,59,13.0,0.0
42793,45.0,0,59,7.0,0.0
42794,88.0,0,59,12.0,0.0
42795,57.0,0,59,15.0,0.0
42796,88.0,0,59,12.0,0.0
42797,100.0,0,59,13.0,0.0
42798,45.0,60,59,15.0,0.0
42799,85.0,0,59,12.0,0.0
42800,76.0,0,59,12.0,0.0
42801,64.0,0,59,14.0,0.0
42802,45.0,0,59,7.0,0.0
42803,73.0,0,59,14.0,0.0
42804,66.0,0,59,14.0,0.0
42805,62.0,0,239,11.0,0.0
42806,50.0,60,239,11.0,0.0
42807,74.0,0,119,5.0,0.0
42808,50.0,0,59,15.0,0.0
42809,50.0,0,119,7.0,0.0
42810,74.0,0,119,1.0,0.0
42811,62.0,0,119,6.0,0.0
42812,50.0,60,119,3.0,0.0
42813,50.0,0,119,6.0,0.0
42814,74.0,0,239,10.0,0.0
42815,86.0,0,119,0.0,0.0
42816,35.0,0,119,9.0,0.0
42817,49.0,0,119,9.0,0.0
42818,74.0,0,59,14.0,0.0
42819,78.0,0,59,12.0,0.0
42820,62.0,60,59,15.0,0.0
42821,66.0,0,119,2.0,0.0
42822,74.0,0,119,2.0,0.0
42823,81.0,0,119,9.0,0.0
42824,66.0,0,119,5.0,0.0
42825,74.0,0,239,8.0,0.0
42826,98.0,0,119,13.0,0.0
42827,86.0,0,59,12.0,0.0
42828,38.0,0,59,3.0,0.0
42829,62.0,0,119,4.0,0.0
42830,54.0,0,119,4.0,0.0
42831,62.0,0,119,3.0,0.0
42832,50.0,0,59,15.0,0.0
42833,62.0,0,59,12.0,0.0
42834,38.0,0,59,3.0,0.0
42835,62.0,0,59,14.0,0.0
42836,74.0,0,59,12.0,0.0
42837,62.0,0,59,15.0,0.0
42838,64.0,0,59,14.0,0.0
42839,64.0,0,59,15.0,0.0
42840,76.0,0,59,12.0,0.0
42841,40.0,0,59,3.0,0.0
42842,64.0,0,59,12.0,0.0
42843,52.0,60,59,15.0,0.0
42844,54.0,0,59,15.0,0.0
42845,66.0,0,59,14.0,0.0
42846,78.0,0,59,12.0,0.0
42847,42.0,0,59,3.0,0.0
42848,66.0,0,59,15.0,0.0
42849,66.0,0,59,12.0,0.0
42850,66.0,0,59,12.0,0.0
42851,66.0,0,59,15.0,0.0
42852,66.0,0,119,1.0,0.0
42853,54.0,60,59,15.0,0.0
42854,54.0,0,119,3.0,0.0
42855,78.0,0,119,1.0,0.0
42856,66.0,0,119,4.0,0.0
42857,66.0,0,119,2.0,0.0
42858,42.0,0,59,3.0,0.0
42859,66.0,0,59,14.0,0.0
42860,78.0,0,59,12.0,0.0
42861,78.0,0,119,0.0,0.0
42862,102.0,0,119,13.0,0.0
42863,78.0,0,119,2.0,0.0
42864,64.0,0,59,14.0,0.0
42865,78.0,60,59,12.0,0.0
42866,40.0,0,59,3.0,0.0
42867,52.0,0,59,15.0,0.0
42868,66.0,0,59,12.0,0.0
42869,64.0,0,59,15.0,0.0
42870,62.0,0,59,15.0,0.0
42871,55.0,0,59,3.0,0.0
42872,79.0,0,59,0.0,0.0
42873,79.0,0,59,12.0,0.0
42874,67.0,0,59,1.0,0.0
42875,67.0,0,59,12.0,0.0
42876,79.0,0,59,2.0,0.0
42877,50.0,60,59,15.0,0.0
42878,67.0,0,59,2.0,0.0
42879,62.0,0,59,14.0,0.0
42880,66.0,0,59,4.0,0.0
42881,38.0,0,59,3.0,0.0
42882,103.0,0,59,13.0,0.0
42883,79.0,0,59,1.0,0.0
42884,61.0,60,59,14.0,0.0
42885,69.0,0,59,12.0,0.0
42886,81.0,0,59,1.0,0.0
42887,49.0,0,59,15.0,0.0
42888,69.0,0,59,2.0,0.0
42889,81.0,0,59,0.0,0.0
42890,57.0,0,59,3.0,0.0
42891,37.0,0,59,3.0,0.0
42892,81.0,0,59,12.0,0.0
42893,69.0,0,59,1.0,0.0
42894,61.0,0,59,15.0,0.0
42895,64.0,0,59,4.0,0.0
42896,81.0,0,59,2.0,0.0
42897,105.0,0,59,13.0,0.0
42898,95.0,0,119,13.0,0.0
42899,35.0,0,59,3.0,0.0
42900,59.0,0,119,6.0,0.0
42901,71.0,0,119,6.0,0.0
42902,47.0,0,59,15.0,0.0
42903,71.0,0,119,2.0,0.0
42904,83.0,0,119,2.0,0.0
42905,50.0,0,119,7.0,0.0
42906,59.0,0,59,15.0,0.0
42907,35.0,60,119,9.0,0.0
42908,74.0,0,119,5.0,0.0
42909,83.0,0,119,1.0,0.0
42910,59.0,0,119,11.0,0.0
42911,62.0,0,119,4.0,0.0
42912,62.0,0,119,5.0,0.0
42913,71.0,60,59,12.0,0.0
42914,59.0,0,119,3.0,0.0
42915,71.0,0,119,1.0,0.0
42916,59.0,0,59,14.0,0.0
42917,49.0,0,119,9.0,0.0
42918,81.0,0,119,9.0,0.0
42919,71.0,0,119,8.0,0.0
42920,83.0,0,59,12.0,0.0
42921,71.0,0,119,10.0,0.0
42922,83.0,0,119,0.0,0.0
42923,59.0,0,59,14.0,0.0
42924,71.0,0,59,12.0,0.0
42925,35.0,0,59,3.0,0.0
42926,59.0,0,59,15.0,0.0
42927,47.0,0,59,15.0,0.0
42928,83.0,0,59,12.0,0.0
42929,71.0,0,119,10.0,0.0
42930,48.0,60,59,15.0,0.0
42931,60.0,0,59,15.0,0.0
42932,36.0,0,59,3.0,0.0
42933,62.0,0,119,5.0,0.0
42934,50.0,60,119,7.0,0.0
42935,74.0,0,119,5.0,0.0
42936,71.0,0,119,8.0,0.0
42937,60.0,0,59,14.0,0.0
42938,72.0,0,59,12.0,0.0
42939,59.0,0,119,11.0,0.0
42940,84.0,0,59,12.0,0.0
42941,62.0,0,59,14.0,0.0
42942,86.0,0,59,12.0,0.0
42943,74.0,0,59,12.0,0.0
42944,62.0,0,59,15.0,0.0
42945,50.0,0,59,15.0,0.0
42946,38.0,0,59,3.0,0.0
42947,38.0,0,59,3.0,0.0
42948,62.0,60,59,15.0,0.0
42949,86.0,0,119,0.0,0.0
42950,50.0,0,59,15.0,0.0
42951,86.0,0,59,12.0,0.0
42952,74.0,0,119,1.0,0.0
42953,50.0,0,119,3.0,0.0
42954,62.0,0,119,3.0,0.0
42955,98.0,0,119,13.0,0.0
42956,62.0,0,59,14.0,0.0
42957,62.0,0,119,2.0,0.0
42958,74.0,0,59,12.0,0.0
42959,50.0,0,119,4.0,0.0
42960,62.0,0,119,4.0,0.0
42961,74.0,0,119,2.0,0.0
42962,74.0,0,59,12.0,0.0
42963,48.0,0,59,15.0,0.0
42964,86.0,0,59,12.0,0.0
42965,36.0,0,59,3.0,0.0
42966,60.0,0,59,14.0,0.0
42967,60.0,60,59,15.0,0.0
42968,62.0,0,119,4.0,0.0
42969,100.0,0,59,13.0,0.0
42970,76.0,0,59,1.0,0.0
42971,76.0,0,59,2.0,0.0
42972,88.0,0,59,0.0,0.0
42973,50.0,0,119,4.0,0.0
42974,64.0,0,59,2.0,0.0
42975,59.0,0,59,15.0,0.0
42976,59.0,0,59,14.0,0.0
42977,88.0,0,59,12.0,0.0
42978,52.0,0,59,3.0,0.0
42979,47.0,0,59,15.0,0.0
42980,64.0,60,59,3.0,0.0
42981,35.0,0,59,3.0,0.0
42982,76.0,0,59,12.0,0.0
42983,78.0,0,59,12.0,0.0
42984,57.0,0,59,14.0,0.0
42985,66.0,0,59,2.0,0.0
42986,78.0,0,59,2.0,0.0
42987,78.0,0,59,1.0,0.0
42988,54.0,0,59,3.0,0.0
42989,66.0,0,59,3.0,0.0
42990,102.0,0,59,13.0,0.0
42991,33.0,0,59,3.0,0.0
42992,57.0,0,59,15.0,0.0
42993,45.0,0,59,15.0,0.0
42994,90.0,0,59,0.0,0.0
42995,90.0,0,59,12.0,0.0
42996,79.0,0,119,1.0,0.0
42997,79.0,0,119,2.0,0.0
42998,55.0,0,119,3.0,0.0
42999,79.0,0,119,8.0,0.0
43000,91.0,0,119,0.0,0.0
43001,43.0,60,59,15.0,0.0
43002,103.0,0,119,13.0,0.0
43003,55.0,0,59,14.0,0.0
43004,67.0,0,119,3.0,0.0
43005,31.0,0,59,3.0,0.0
43006,67.0,0,119,10.0,0.0
43007,62.0,0,119,5.0,0.0
43008,67.0,60,119,6.0,0.0
43009,74.0,0,119,5.0,0.0
43010,55.0,0,119,11.0,0.0
43011,67.0,0,119,11.0,0.0
43012,67.0,0,119,4.0,0.0
43013,50.0,0,119,7.0,0.0
43014,55.0,0,119,6.0,0.0
43015,49.0,0,119,9.0,0.0
43016,81.0,0,119,9.0,0.0
43017,35.0,0,119,9.0,0.0
43018,55.0,0,59,15.0,0.0
43019,91.0,0,59,12.0,0.0
43020,67.0,0,119,2.0,0.0
43021,79.0,0,59,12.0,0.0
43022,55.0,0,59,14.0,0.0
43023,91.0,0,59,12.0,0.0
43024,31.0,0,59,3.0,0.0
43025,79.0,0,59,12.0,0.0
43026,43.0,0,59,15.0,0.0
43027,55.0,0,59,15.0,0.0
43028,67.0,0,104,10.0,0.0
43029,33.0,0,59,3.0,0.0
43030,50.0,0,119,7.0,0.0
43031,67.0,0,104,11.0,0.0
43032,45.0,0,59,15.0,0.0
43033,74.0,0,119,5.0,0.0
43034,57.0,45,59,15.0,0.0
43035,57.0,0,59,14.0,0.0
43036,62.0,0,119,5.0,0.0
43037,55.0,0,104,11.0,0.0
43038,69.0,0,59,12.0,0.0
43039,79.0,15,104,8.0,0.0
43040,81.0,0,59,12.0,0.0
43041,35.0,60,59,3.0,0.0
43042,59.0,0,59,15.0,0.0
43043,83.0,0,59,12.0,0.0
43044,71.0,0,59,12.0,0.0
43045,59.0,0,59,14.0,0.0
43046,47.0,0,59,15.0,0.0
43047,74.0,0,119,5.0,0.0
43048,62.0,0,119,5.0,0.0
43049,76.0,0,59,12.0,0.0
43050,64.0,0,119,3.0,0.0
43051,52.0,0,119,3.0,0.0
43052,64.0,0,119,10.0,0.0
43053,64.0,0,119,11.0,0.0
43054,52.0,0,119,6.0,0.0
43055,76.0,0,119,2.0,0.0
43056,52.0,60,59,14.0,0.0
43057,50.0,0,119,7.0,0.0
43058,100.0,0,119,13.0,0.0
43059,40.0,0,59,15.0,0.0
43060,52.0,0,59,15.0,0.0
43061,28.0,0,59,3.0,0.0
43062,52.0,0,119,11.0,0.0
43063,76.0,0,119,8.0,0.0
43064,64.0,0,119,4.0,0.0
43065,64.0,0,119,6.0,0.0
43066,64.0,0,59,12.0,0.0
43067,88.0,0,119,0.0,0.0
43068,76.0,0,119,1.0,0.0
43069,64.0,0,119,2.0,0.0
43070,40.0,0,59,15.0,0.0
43071,64.0,0,59,14.0,0.0
43072,76.0,0,59,12.0,0.0
43073,52.0,60,59,15.0,0.0
43074,28.0,0,59,3.0,0.0
43075,78.0,0,59,2.0,0.0
43076,66.0,0,59,14.0,0.0
43077,62.0,0,119,5.0,0.0
43078,64.0,0,119,10.0,0.0
43079,66.0,0,59,3.0,0.0
43080,30.0,60,59,3.0,0.0
43081,52.0,0,119,11.0,0.0
43082,102.0,0,59,13.0,0.0
43083,66.0,0,59,2.0,0.0
43084,64.0,0,119,11.0,0.0
43085,64.0,0,119,4.0,0.0
43086,42.0,0,59,15.0,0.0
43087,54.0,0,59,15.0,0.0
43088,76.0,0,119,8.0,0.0
43089,78.0,0,59,1.0,0.0
43090,50.0,0,119,7.0,0.0
43091,74.0,0,119,5.0,0.0
43092,54.0,0,59,3.0,0.0
43093,90.0,0,59,0.0,0.0
43094,78.0,0,59,12.0,0.0
43095,43.0,0,59,15.0,0.0
43096,91.0,0,59,0.0,0.0
43097,55.0,0,59,15.0,0.0
43098,79.0,0,59,2.0,0.0
43099,67.0,0,59,2.0,0.0
43100,79.0,0,59,1.0,0.0
43101,67.0,0,59,14.0,0.0
43102,79.0,0,59,12.0,0.0
43103,55.0,0,59,3.0,0.0
43104,67.0,0,59,3.0,0.0
43105,103.0,0,59,13.0,0.0
43106,31.0,0,59,3.0,0.0
43107,93.0,0,119,0.0,0.0
43108,69.0,0,119,6.0,0.0
43109,57.0,0,359,11.0,0.0
43110,33.0,0,59,3.0,0.0
43111,45.0,0,59,15.0,0.0
43112,69.0,0,119,2.0,0.0
43113,81.0,0,119,2.0,0.0
43114,57.0,0,119,5.0,0.0
43115,69.0,0,359,10.0,0.0
43116,81.0,0,59,12.0,0.0
43117,57.0,0,59,15.0,0.0
43118,69.0,0,119,5.0,0.0
43119,81.0,0,119,1.0,0.0
43120,49.0,0,119,9.0,0.0
43121,45.0,60,119,7.0,0.0
43122,57.0,0,119,3.0,0.0
43123,105.0,0,119,13.0,0.0
43124,81.0,0,119,9.0,0.0
43125,81.0,0,359,8.0,0.0
43126,69.0,0,119,4.0,0.0
43127,57.0,0,119,4.0,0.0
43128,69.0,60,59,14.0,0.0
43129,69.0,0,59,12.0,0.0
43130,57.0,0,119,6.0,0.0
43131,69.0,0,119,3.0,0.0
43132,35.0,0,119,9.0,0.0
43133,69.0,0,359,11.0,0.0
43134,59.0,0,59,15.0,0.0
43135,71.0,0,59,12.0,0.0
43136,47.0,0,59,15.0,0.0
43137,35.0,0,59,3.0,0.0
43138,83.0,0,59,12.0,0.0
43139,71.0,0,59,14.0,0.0
43140,37.0,0,59,3.0,0.0
43141,73.0,0,59,12.0,0.0
43142,61.0,0,59,15.0,0.0
43143,85.0,60,59,12.0,0.0
43144,49.0,0,59,15.0,0.0
43145,73.0,0,59,14.0,0.0
43146,74.0,60,59,14.0,0.0
43147,38.0,0,59,3.0,0.0
43148,50.0,0,59,15.0,0.0
43149,74.0,0,59,12.0,0.0
43150,86.0,0,59,12.0,0.0
43151,62.0,0,59,15.0,0.0
43152,81.0,0,119,0.0,0.0
43153,64.0,0,59,15.0,0.0
43154,40.0,0,59,3.0,0.0
43155,76.0,0,59,12.0,0.0
43156,76.0,0,59,14.0,0.0
43157,69.0,0,119,1.0,0.0
43158,93.0,60,119,13.0,0.0
43159,81.0,0,119,2.0,0.0
43160,69.0,0,119,2.0,0.0
43161,81.0,0,119,1.0,0.0
43162,88.0,60,59,12.0,0.0
43163,52.0,0,59,15.0,0.0
43164,57.0,0,119,3.0,0.0
43165,54.0,0,59,15.0,0.0
43166,66.0,0,59,14.0,0.0
43167,66.0,0,59,15.0,0.0
43168,42.0,0,59,3.0,0.0
43169,78.0,0,59,12.0,0.0
43170,90.0,0,59,12.0,0.0
43171,95.0,0,59,13.0,0.0
43172,57.0,0,119,11.0,0.0
43173,55.0,0,59,15.0,0.0
43174,79.0,0,59,12.0,0.0
43175,71.0,0,59,2.0,0.0
43176,67.0,0,59,15.0,0.0
43177,83.0,0,59,2.0,0.0
43178,69.0,0,119,11.0,0.0
43179,59.0,0,59,3.0,0.0
43180,71.0,0,59,1.0,0.0
43181,57.0,0,119,5.0,0.0
43182,43.0,60,59,3.0,0.0
43183,67.0,0,59,14.0,0.0
43184,45.0,60,119,7.0,0.0
43185,83.0,0,59,0.0,0.0
43186,81.0,0,119,8.0,0.0
43187,69.0,0,119,5.0,0.0
43188,69.0,0,119,10.0,0.0
43189,83.0,0,59,1.0,0.0
43190,91.0,0,59,12.0,0.0
43191,97.0,0,59,13.0,0.0
43192,93.0,0,59,12.0,0.0
43193,73.0,0,59,1.0,0.0
43194,85.0,0,59,1.0,0.0
43195,57.0,0,59,15.0,0.0
43196,69.0,0,59,15.0,0.0
43197,45.0,0,59,3.0,0.0
43198,73.0,0,59,2.0,0.0
43199,85.0,0,59,2.0,0.0
43200,85.0,0,59,0.0,0.0
43201,81.0,0,59,12.0,0.0
43202,61.0,0,59,3.0,0.0
43203,69.0,0,59,14.0,0.0
43204,74.0,0,59,1.0,0.0
43205,98.0,0,59,13.0,0.0
43206,86.0,0,59,1.0,0.0
43207,45.0,0,119,7.0,0.0
43208,57.0,0,119,5.0,0.0
43209,81.0,0,119,8.0,0.0
43210,86.0,0,59,0.0,0.0
43211,49.0,0,119,9.0,0.0
43212,81.0,0,119,9.0,0.0
43213,35.0,0,119,9.0,0.0
43214,62.0,0,59,3.0,0.0
43215,69.0,0,119,5.0,0.0
43216,57.0,0,59,15.0,0.0
43217,69.0,15,119,10.0,0.0
43218,45.0,0,59,3.0,0.0
43219,86.0,0,59,2.0,0.0
43220,69.0,60,59,14.0,0.0
43221,74.0,0,59,2.0,0.0
43222,57.0,0,119,11.0,0.0
43223,69.0,0,59,15.0,0.0
43224,69.0,0,119,11.0,0.0
43225,81.0,0,59,12.0,0.0
43226,93.0,0,59,12.0,0.0
43227,57.0,0,59,15.0,0.0
43228,69.0,0,59,12.0,0.0
43229,33.0,0,59,3.0,0.0
43230,69.0,0,59,2.0,0.0
43231,81.0,0,59,0.0,0.0
43232,69.0,0,59,1.0,0.0
43233,69.0,0,59,14.0,0.0
43234,57.0,0,59,3.0,0.0
43235,93.0,0,59,13.0,0.0
43236,45.0,0,59,15.0,0.0
43237,81.0,0,59,12.0,0.0
43238,81.0,0,59,2.0,0.0
43239,81.0,45,59,1.0,0.0
43240,83.0,0,59,2.0,0.0
43241,71.0,0,59,2.0,0.0
43242,35.0,0,59,3.0,0.0
43243,95.0,0,59,13.0,0.0
43244,59.0,0,59,15.0,0.0
43245,74.0,0,119,8.0,0.0
43246,50.0,0,119,7.0,0.0
43247,47.0,0,59,15.0,0.0
43248,59.0,0,59,3.0,0.0
43249,83.0,60,59,0.0,0.0
43250,62.0,0,119,10.0,0.0
43251,62.0,0,119,11.0,0.0
43252,74.0,0,119,5.0,0.0
43253,62.0,60,119,5.0,0.0
43254,83.0,0,59,12.0,0.0
43255,50.0,0,119,11.0,0.0
43256,71.0,0,59,1.0,0.0
43257,83.0,0,59,1.0,0.0
43258,71.0,0,59,14.0,0.0
43259,71.0,0,59,12.0,0.0
43260,97.0,0,59,13.0,0.0
43261,37.0,0,59,3.0,0.0
43262,85.0,0,59,2.0,0.0
43263,49.0,0,59,15.0,0.0
43264,73.0,0,59,2.0,0.0
43265,85.0,0,59,12.0,0.0
43266,73.0,0,59,1.0,0.0
43267,85.0,0,59,1.0,0.0
43268,85.0,0,59,0.0,0.0
43269,61.0,0,59,3.0,0.0
43270,73.0,0,59,14.0,0.0
43271,73.0,0,59,12.0,0.0
43272,61.0,0,59,15.0,0.0
43273,62.0,0,119,5.0,0.0
43274,74.0,0,59,14.0,0.0
43275,38.0,0,59,3.0,0.0
43276,86.0,0,59,0.0,0.0
43277,86.0,0,59,12.0,0.0
43278,98.0,0,59,13.0,0.0
43279,50.0,0,59,15.0,0.0
43280,62.0,0,59,15.0,0.0
43281,74.0,0,59,12.0,0.0
43282,86.0,60,59,1.0,0.0
43283,74.0,0,59,1.0,0.0
43284,74.0,0,59,2.0,0.0
43285,86.0,0,59,2.0,0.0
43286,50.0,0,119,6.0,0.0
43287,50.0,0,119,4.0,0.0
43288,62.0,0,119,4.0,0.0
43289,62.0,0,59,3.0,0.0
43290,62.0,0,119,6.0,0.0
43291,76.0,0,59,1.0,0.0
43292,64.0,0,59,3.0,0.0
43293,100.0,0,59,13.0,0.0
43294,76.0,0,59,2.0,0.0
43295,40.0,0,59,3.0,0.0
43296,52.0,0,59,15.0,0.0
43297,76.0,0,59,14.0,0.0
43298,64.0,0,59,15.0,0.0
43299,88.0,0,59,0.0,0.0
43300,76.0,0,59,12.0,0.0
43301,66.0,0,119,5.0,0.0
43302,42.0,0,59,3.0,0.0
43303,66.0,0,59,15.0,0.0
43304,54.0,0,59,15.0,0.0
43305,66.0,0,119,4.0,0.0
43306,66.0,60,59,3.0,0.0
43307,66.0,0,59,14.0,0.0
43308,78.0,0,59,2.0,0.0
43309,102.0,0,59,13.0,0.0
43310,78.0,0,59,12.0,0.0
43311,78.0,0,59,1.0,0.0
43312,90.0,0,59,0.0,0.0
43313,54.0,0,119,4.0,0.0
43314,74.0,0,59,1.0,0.0
43315,62.0,0,59,14.0,0.0
43316,98.0,0,59,13.0,0.0
43317,62.0,0,59,3.0,0.0
43318,38.0,0,59,3.0,0.0
43319,86.0,0,59,0.0,0.0
43320,50.0,0,59,15.0,0.0
43321,74.0,0,59,2.0,0.0
43322,74.0,0,59,12.0,0.0
43323,62.0,60,59,15.0,0.0
43324,45.0,0,59,15.0,0.0
43325,105.0,0,359,13.0,0.0
43326,45.0,0,59,3.0,0.0
43327,33.0,0,59,3.0,0.0
43328,35.0,0,119,9.0,0.0
43329,69.0,0,119,5.0,0.0
43330,57.0,0,119,5.0,0.0
43331,49.0,0,119,9.0,0.0
43332,57.0,0,59,3.0,0.0
43333,93.0,60,359,0.0,0.0
43334,57.0,60,59,14.0,0.0
43335,81.0,0,359,1.0,0.0
43336,81.0,0,359,2.0,0.0
43337,69.0,0,359,2.0,0.0
43338,69.0,0,59,12.0,0.0
43339,57.0,0,59,15.0,0.0
43340,81.0,0,59,12.0,0.0
43341,69.0,0,359,4.0,0.0
43342,45.0,0,119,7.0,0.0
43343,57.0,0,119,6.0,0.0
43344,69.0,0,119,6.0,0.0
43345,81.0,0,119,9.0,0.0
43346,57.0,0,359,4.0,0.0
43347,59.0,0,59,15.0,0.0
43348,83.0,0,59,12.0,0.0
43349,59.0,0,59,14.0,0.0
43350,47.0,0,59,3.0,0.0
43351,35.0,0,59,3.0,0.0
43352,47.0,0,59,15.0,0.0
43353,59.0,0,59,3.0,0.0
43354,71.0,60,59,12.0,0.0
43355,73.0,60,59,12.0,0.0
43356,61.0,0,59,15.0,0.0
43357,61.0,0,59,3.0,0.0
43358,49.0,0,59,15.0,0.0
43359,85.0,0,59,12.0,0.0
43360,37.0,0,59,3.0,0.0
43361,49.0,0,59,3.0,0.0
43362,61.0,0,59,14.0,0.0
43363,86.0,0,59,12.0,0.0
43364,62.0,60,59,3.0,0.0
43365,50.0,0,59,3.0,0.0
43366,74.0,0,59,12.0,0.0
43367,62.0,0,59,14.0,0.0
43368,38.0,0,59,3.0,0.0
43369,62.0,0,59,15.0,0.0
43370,50.0,0,59,15.0,0.0
43371,64.0,0,59,15.0,0.0
43372,52.0,0,59,3.0,0.0
43373,64.0,0,59,3.0,0.0
43374,64.0,0,59,14.0,0.0
43375,88.0,0,59,12.0,0.0
43376,52.0,0,59,15.0,0.0
43377,76.0,60,59,12.0,0.0
43378,40.0,0,59,3.0,0.0
43379,90.0,0,59,12.0,0.0
43380,78.0,0,59,12.0,0.0
43381,66.0,0,59,15.0,0.0
43382,42.0,0,59,3.0,0.0
43383,66.0,0,59,3.0,0.0
43384,66.0,0,59,14.0,0.0
43385,54.0,0,59,15.0,0.0
43386,54.0,0,59,3.0,0.0
43387,55.0,0,59,15.0,0.0
43388,81.0,0,119,2.0,0.0
43389,43.0,0,59,3.0,0.0
43390,67.0,60,59,15.0,0.0
43391,57.0,0,119,4.0,0.0
43392,81.0,0,119,1.0,0.0
43393,69.0,0,119,2.0,0.0
43394,45.0,0,119,7.0,0.0
43395,79.0,0,59,12.0,0.0
43396,69.0,0,119,5.0,0.0
43397,105.0,0,119,13.0,0.0
43398,69.0,0,119,4.0,0.0
43399,93.0,0,119,0.0,0.0
43400,67.0,0,59,14.0,0.0
43401,55.0,0,59,3.0,0.0
43402,67.0,0,59,3.0,0.0
43403,91.0,0,59,12.0,0.0
43404,57.0,0,119,5.0,0.0
43405,69.0,0,59,14.0,0.0
43406,57.0,0,59,15.0,0.0
43407,45.0,0,59,3.0,0.0
43408,69.0,60,59,3.0,0.0
43409,81.0,0,59,12.0,0.0
43410,57.0,0,59,3.0,0.0
43411,69.0,0,59,15.0,0.0
43412,93.0,0,59,12.0,0.0
43413,69.0,0,119,2.0,0.0
43414,81.0,0,119,2.0,0.0
43415,81.0,60,59,12.0,0.0
43416,105.0,0,119,13.0,0.0
43417,81.0,0,119,1.0,0.0
43418,45.0,0,59,3.0,0.0
43419,45.0,0,59,15.0,0.0
43420,81.0,0,119,9.0,0.0
43421,93.0,0,59,12.0,0.0
43422,57.0,0,59,3.0,0.0
43423,57.0,0,59,15.0,0.0
43424,49.0,0,119,9.0,0.0
43425,69.0,0,119,5.0,0.0
43426,57.0,0,119,5.0,0.0
43427,35.0,0,119,9.0,0.0
43428,57.0,0,119,4.0,0.0
43429,69.0,0,119,4.0,0.0
43430,33.0,0,59,3.0,0.0
43431,93.0,0,119,0.0,0.0
43432,45.0,0,119,7.0,0.0
43433,69.0,0,59,14.0,0.0
43434,57.0,0,59,15.0,0.0
43435,33.0,0,59,3.0,0.0
43436,45.0,0,59,15.0,0.0
43437,45.0,60,59,3.0,0.0
43438,81.0,0,59,12.0,0.0
43439,69.0,0,59,14.0,0.0
43440,57.0,0,59,3.0,0.0
43441,69.0,0,59,12.0,0.0
43442,62.0,0,119,5.0,0.0
43443,74.0,0,119,1.0,0.0
43444,74.0,0,119,5.0,0.0
43445,50.0,0,119,7.0,0.0
43446,62.0,0,119,4.0,0.0
43447,74.0,0,119,2.0,0.0
43448,62.0,0,119,2.0,0.0
43449,71.0,0,59,12.0,0.0
43450,83.0,60,59,12.0,0.0
43451,98.0,0,119,13.0,0.0
43452,50.0,0,119,4.0,0.0
43453,86.0,0,119,0.0,0.0
43454,35.0,0,59,3.0,0.0
43455,71.0,0,59,14.0,0.0
43456,47.0,0,59,15.0,0.0
43457,59.0,0,59,3.0,0.0
43458,47.0,0,59,3.0,0.0
43459,59.0,0,59,15.0,0.0
43460,49.0,0,59,15.0,0.0
43461,49.0,0,59,3.0,0.0
43462,85.0,0,59,12.0,0.0
43463,61.0,0,59,3.0,0.0
43464,73.0,0,59,12.0,0.0
43465,73.0,0,59,14.0,0.0
43466,37.0,60,59,3.0,0.0
43467,61.0,0,59,15.0,0.0
43468,69.0,0,119,11.0,0.0
43469,74.0,0,59,12.0,0.0
43470,45.0,0,59,7.0,0.0
43471,38.0,0,59,3.0,0.0
43472,74.0,0,59,14.0,0.0
43473,50.0,0,59,15.0,0.0
43474,62.0,0,59,15.0,0.0
43475,62.0,0,59,3.0,0.0
43476,50.0,60,59,3.0,0.0
43477,50.0,0,119,6.0,0.0
43478,81.0,0,119,8.0,0.0
43479,62.0,0,119,6.0,0.0
43480,69.0,60,119,10.0,0.0
43481,62.0,0,119,5.0,0.0
43482,57.0,0,119,11.0,0.0
43483,86.0,0,59,12.0,0.0
43484,52.0,0,59,15.0,0.0
43485,76.0,0,59,14.0,0.0
43486,52.0,0,59,3.0,0.0
43487,40.0,0,59,3.0,0.0
43488,76.0,0,59,12.0,0.0
43489,45.0,0,59,7.0,0.0
43490,64.0,0,59,15.0,0.0
43491,64.0,0,59,3.0,0.0
43492,66.0,0,59,14.0,0.0
43493,54.0,0,59,3.0,0.0
43494,66.0,60,59,3.0,0.0
43495,66.0,0,59,15.0,0.0
43496,54.0,0,59,15.0,0.0
43497,69.0,0,119,10.0,0.0
43498,69.0,0,119,11.0,0.0
43499,57.0,0,119,11.0,0.0
43500,42.0,0,59,3.0,0.0
43501,81.0,0,119,8.0,0.0
43502,45.0,0,59,7.0,0.0
43503,66.0,0,119,5.0,0.0
43504,78.0,0,59,12.0,0.0
43505,62.0,0,59,15.0,0.0
43506,50.0,60,59,15.0,0.0
43507,62.0,0,59,14.0,0.0
43508,38.0,0,59,3.0,0.0
43509,74.0,0,59,12.0,0.0
43510,62.0,0,59,3.0,0.0
43511,50.0,0,59,3.0,0.0
43512,45.0,0,59,7.0,0.0
43513,69.0,0,119,6.0,0.0
43514,45.0,0,59,7.0,0.0
43515,57.0,0,839,5.0,0.0
43516,57.0,0,839,11.0,0.0
43517,69.0,0,839,5.0,0.0
43518,57.0,0,59,15.0,0.0
43519,57.0,0,119,6.0,0.0
43520,69.0,0,839,10.0,0.0
43521,33.0,0,59,3.0,0.0
43522,81.0,0,59,12.0,0.0
43523,69.0,60,839,11.0,0.0
43524,81.0,0,119,9.0,0.0
43525,57.0,60,59,3.0,0.0
43526,69.0,0,59,14.0,0.0
43527,49.0,0,119,9.0,0.0
43528,35.0,0,119,9.0,0.0
43529,45.0,0,59,15.0,0.0
43530,81.0,0,839,8.0,0.0
43531,37.0,0,59,3.0,0.0
43532,45.0,60,59,7.0,0.0
43533,37.0,0,59,15.0,0.0
43534,49.0,0,59,15.0,0.0
43535,49.0,0,59,3.0,0.0
43536,61.0,0,59,14.0,0.0
43537,73.0,0,59,12.0,0.0
43538,50.0,0,59,15.0,0.0
43539,62.0,0,59,14.0,0.0
43540,38.0,0,59,3.0,0.0
43541,45.0,0,59,7.0,0.0
43542,50.0,60,59,3.0,0.0
43543,74.0,0,59,12.0,0.0
43544,38.0,0,59,15.0,0.0
43545,52.0,0,59,15.0,0.0
43546,40.0,0,59,3.0,0.0
43547,45.0,0,59,7.0,0.0
43548,76.0,0,59,12.0,0.0
43549,64.0,0,59,14.0,0.0
43550,52.0,60,59,3.0,0.0
43551,40.0,0,59,15.0,0.0
43552,45.0,0,59,15.0,0.0
43553,57.0,60,59,15.0,0.0
43554,57.0,0,59,3.0,0.0
43555,45.0,0,59,3.0,0.0
43556,69.0,0,59,14.0,0.0
43557,81.0,0,59,12.0,0.0
43558,45.0,0,59,7.0,0.0
43559,45.0,0,59,7.0,0.0
43560,38.0,0,59,15.0,0.0
43561,50.0,0,59,15.0,0.0
43562,50.0,0,59,3.0,0.0
43563,38.0,0,59,3.0,0.0
43564,62.0,0,59,14.0,0.0
43565,74.0,0,59,12.0,0.0
43566,52.0,0,59,15.0,0.0
43567,40.0,0,59,3.0,0.0
43568,40.0,0,59,15.0,0.0
43569,45.0,0,59,7.0,0.0
43570,52.0,60,59,3.0,0.0
43571,76.0,0,59,12.0,0.0
43572,64.0,0,59,14.0,0.0
43573,66.0,0,59,14.0,0.0
43574,54.0,0,59,3.0,0.0
43575,45.0,0,59,7.0,0.0
43576,78.0,0,59,12.0,0.0
43577,42.0,0,59,3.0,0.0
43578,54.0,0,59,15.0,0.0
43579,42.0,0,59,15.0,0.0
43580,45.0,0,59,7.0,0.0
43581,81.0,0,59,12.0,0.0
43582,69.0,0,59,14.0,0.0
43583,57.0,0,59,3.0,0.0
43584,45.0,0,59,15.0,0.0
43585,45.0,0,59,3.0,0.0
43586,57.0,0,59,15.0,0.0
43587,51.0,0,59,3.0,0.0
43588,63.0,0,59,14.0,0.0
43589,51.0,60,59,15.0,0.0
43590,39.0,0,59,15.0,0.0
43591,45.0,0,59,7.0,0.0
43592,75.0,0,59,12.0,0.0
43593,39.0,0,59,3.0,0.0
43594,45.0,0,59,7.0,0.0
43595,40.0,60,59,3.0,0.0
43596,52.0,0,59,3.0,0.0
43597,40.0,0,59,15.0,0.0
43598,52.0,0,59,15.0,0.0
43599,64.0,0,59,14.0,0.0
43600,76.0,0,59,12.0,0.0
43601,54.0,0,59,15.0,0.0
43602,45.0,0,59,7.0,0.0
43603,42.0,0,59,3.0,0.0
43604,42.0,0,59,15.0,0.0
43605,66.0,0,59,14.0,0.0
43606,54.0,0,59,3.0,0.0
43607,78.0,0,59,12.0,0.0
43608,43.0,0,59,15.0,0.0
43609,43.0,0,59,3.0,0.0
43610,79.0,0,59,12.0,0.0
43611,45.0,0,59,7.0,0.0
43612,55.0,0,59,15.0,0.0
43613,55.0,0,59,3.0,0.0
43614,67.0,60,59,14.0,0.0
43615,69.0,0,59,12.0,0.0
43616,45.0,0,59,15.0,0.0
43617,81.0,0,59,12.0,0.0
43618,45.0,0,59,7.0,0.0
43619,33.0,0,59,3.0,0.0
43620,57.0,0,59,14.0,0.0
43621,57.0,0,59,15.0,0.0
43622,57.0,0,59,3.0,0.0
43623,35.0,0,59,3.0,0.0
43624,57.0,60,119,11.0,0.0
43625,69.0,0,119,10.0,0.0
43626,71.0,0,59,12.0,0.0
43627,59.0,0,59,14.0,0.0
43628,69.0,0,119,5.0,0.0
43629,81.0,0,119,8.0,0.0
43630,57.0,0,119,5.0,0.0
43631,83.0,0,59,12.0,0.0
43632,69.0,0,119,11.0,0.0
43633,59.0,60,59,15.0,0.0
43634,45.0,0,59,7.0,0.0
43635,59.0,0,59,3.0,0.0
43636,47.0,0,59,15.0,0.0
43637,73.0,0,59,12.0,0.0
43638,61.0,0,59,15.0,0.0
43639,45.0,0,59,7.0,0.0
43640,49.0,0,59,15.0,0.0
43641,85.0,0,59,12.0,0.0
43642,37.0,0,59,3.0,0.0
43643,61.0,0,59,14.0,0.0
43644,61.0,0,59,3.0,0.0
43645,81.0,0,119,8.0,0.0
43646,57.0,0,119,11.0,0.0
43647,62.0,0,59,3.0,0.0
43648,69.0,0,119,10.0,0.0
43649,50.0,0,59,15.0,0.0
43650,35.0,0,119,9.0,0.0
43651,62.0,60,59,15.0,0.0
43652,69.0,60,119,11.0,0.0
43653,86.0,0,59,12.0,0.0
43654,57.0,0,119,5.0,0.0
43655,74.0,0,59,12.0,0.0
43656,69.0,0,119,5.0,0.0
43657,62.0,0,59,14.0,0.0
43658,49.0,0,119,9.0,0.0
43659,38.0,0,59,3.0,0.0
43660,81.0,0,119,9.0,0.0
43661,45.0,0,59,7.0,0.0
43662,88.0,0,59,12.0,0.0
43663,45.0,0,59,7.0,0.0
43664,64.0,0,59,15.0,0.0
43665,64.0,0,59,3.0,0.0
43666,64.0,0,59,14.0,0.0
43667,76.0,0,59,12.0,0.0
43668,52.0,0,59,15.0,0.0
43669,40.0,0,59,3.0,0.0
43670,66.0,0,59,3.0,0.0
43671,74.0,0,119,8.0,0.0
43672,74.0,0,119,5.0,0.0
43673,78.0,0,59,12.0,0.0
43674,66.0,0,59,14.0,0.0
43675,54.0,60,59,15.0,0.0
43676,42.0,0,59,3.0,0.0
43677,62.0,0,119,5.0,0.0
43678,62.0,0,119,10.0,0.0
43679,50.0,0,59,7.0,0.0
43680,62.0,60,119,11.0,0.0
43681,66.0,0,59,15.0,0.0
43682,50.0,0,119,11.0,0.0
43683,90.0,0,59,12.0,0.0
43684,50.0,0,59,7.0,0.0
43685,67.0,0,59,15.0,0.0
43686,55.0,0,59,15.0,0.0
43687,91.0,0,59,12.0,0.0
43688,67.0,0,59,3.0,0.0
43689,43.0,0,59,3.0,0.0
43690,79.0,0,59,12.0,0.0
43691,67.0,0,59,14.0,0.0
43692,81.0,0,59,12.0,0.0
43693,69.0,0,119,2.0,0.0
43694,81.0,0,119,2.0,0.0
43695,74.0,0,119,5.0,0.0
43696,62.0,0,119,5.0,0.0
43697,93.0,0,119,0.0,0.0
43698,50.0,60,119,6.0,0.0
43699,45.0,0,59,3.0,0.0
43700,105.0,0,119,13.0,0.0
43701,57.0,0,59,15.0,0.0
43702,45.0,0,59,7.0,0.0
43703,62.0,0,119,6.0,0.0
43704,69.0,0,59,14.0,0.0
43705,69.0,0,59,3.0,0.0
43706,69.0,60,59,15.0,0.0
43707,93.0,0,59,12.0,0.0
43708,69.0,0,119,4.0,0.0
43709,57.0,0,119,4.0,0.0
43710,81.0,0,119,1.0,0.0
43711,38.0,0,59,3.0,0.0
43712,50.0,0,59,3.0,0.0
43713,50.0,0,59,14.0,0.0
43714,62.0,0,59,12.0,0.0
43715,45.0,0,59,7.0,0.0
43716,38.0,0,59,15.0,0.0
43717,50.0,0,59,15.0,0.0
43718,64.0,0,59,14.0,0.0
43719,66.0,0,119,6.0,0.0
43720,105.0,0,119,13.0,0.0
43721,81.0,0,119,2.0,0.0
43722,52.0,0,59,3.0,0.0
43723,69.0,0,119,2.0,0.0
43724,76.0,0,59,12.0,0.0
43725,93.0,0,119,0.0,0.0
43726,40.0,0,59,3.0,0.0
43727,40.0,0,59,15.0,0.0
43728,57.0,0,119,4.0,0.0
43729,69.0,0,119,4.0,0.0
43730,45.0,0,59,7.0,0.0
43731,66.0,0,119,5.0,0.0
43732,81.0,0,119,1.0,0.0
43733,52.0,0,59,15.0,0.0
43734,54.0,0,119,6.0,0.0
43735,78.0,0,119,5.0,0.0
43736,42.0,0,59,3.0,0.0
43737,42.0,0,59,15.0,0.0
43738,45.0,0,59,7.0,0.0
43739,66.0,0,59,14.0,0.0
43740,54.0,0,59,3.0,0.0
43741,78.0,0,59,12.0,0.0
43742,54.0,0,59,15.0,0.0
43743,93.0,0,839,0.0,0.0
43744,57.0,0,59,15.0,0.0
43745,69.0,0,59,14.0,0.0
43746,45.0,0,59,15.0,0.0
43747,81.0,0,839,1.0,0.0
43748,69.0,0,839,2.0,0.0
43749,69.0,0,119,6.0,0.0
43750,81.0,0,839,2.0,0.0
43751,57.0,0,119,6.0,0.0
43752,81.0,0,119,9.0,0.0
43753,35.0,0,119,9.0,0.0
43754,49.0,0,119,9.0,0.0
43755,81.0,0,839,5.0,0.0
43756,81.0,0,59,12.0,0.0
43757,45.0,0,59,3.0,0.0
43758,69.0,0,839,4.0,0.0
43759,105.0,0,839,13.0,0.0
43760,57.0,0,839,4.0,0.0
43761,45.0,0,59,7.0,0.0
43762,57.0,60,59,3.0,0.0
43763,69.0,0,839,5.0,0.0
43764,73.0,0,59,12.0,0.0
43765,37.0,0,59,3.0,0.0
43766,45.0,0,59,7.0,0.0
43767,49.0,0,59,15.0,0.0
43768,61.0,0,59,14.0,0.0
43769,37.0,0,59,15.0,0.0
43770,49.0,0,59,3.0,0.0
43771,45.0,0,59,7.0,0.0
43772,38.0,0,59,3.0,0.0
43773,74.0,0,59,12.0,0.0
43774,38.0,0,59,15.0,0.0
43775,50.0,0,59,15.0,0.0
43776,62.0,0,59,14.0,0.0
43777,50.0,60,59,3.0,0.0
43778,64.0,0,59,14.0,0.0
43779,52.0,60,59,15.0,0.0
43780,45.0,0,59,7.0,0.0
43781,40.0,0,59,15.0,0.0
43782,40.0,0,59,3.0,0.0
43783,76.0,0,59,12.0,0.0
43784,52.0,0,59,3.0,0.0
43785,81.0,0,59,12.0,0.0
43786,57.0,60,59,3.0,0.0
43787,45.0,0,59,7.0,0.0
43788,57.0,0,59,15.0,0.0
43789,45.0,0,59,3.0,0.0
43790,45.0,0,59,15.0,0.0
43791,69.0,0,119,6.0,0.0
43792,69.0,0,59,14.0,0.0
43793,57.0,0,119,6.0,0.0
43794,50.0,0,59,15.0,0.0
43795,62.0,0,59,14.0,0.0
43796,38.0,0,59,15.0,0.0
43797,38.0,0,59,3.0,0.0
43798,74.0,0,59,12.0,0.0
43799,50.0,0,59,3.0,0.0
43800,45.0,0,59,7.0,0.0
43801,52.0,60,59,15.0,0.0
43802,76.0,0,59,12.0,0.0
43803,45.0,0,59,7.0,0.0
43804,64.0,0,59,14.0,0.0
43805,40.0,0,59,15.0,0.0
43806,52.0,0,59,3.0,0.0
43807,40.0,0,59,3.0,0.0
43808,42.0,0,59,3.0,0.0
43809,45.0,0,59,7.0,0.0
43810,54.0,0,59,3.0,0.0
43811,42.0,0,59,15.0,0.0
43812,78.0,0,59,12.0,0.0
43813,66.0,60,59,14.0,0.0
43814,54.0,0,59,15.0,0.0
43815,69.0,0,119,6.0,0.0
43816,81.0,0,59,12.0,0.0
43817,57.0,0,59,3.0,0.0
43818,69.0,0,59,14.0,0.0
43819,57.0,0,119,6.0,0.0
43820,57.0,0,59,15.0,0.0
43821,45.0,0,59,7.0,0.0
43822,45.0,60,59,3.0,0.0
43823,45.0,0,59,15.0,0.0
43824,63.0,0,59,14.0,0.0
43825,51.0,60,59,3.0,0.0
43826,39.0,0,59,3.0,0.0
43827,51.0,0,59,15.0,0.0
43828,39.0,0,59,15.0,0.0
43829,75.0,0,59,12.0,0.0
43830,45.0,0,59,7.0,0.0
43831,64.0,0,59,14.0,0.0
43832,40.0,60,59,3.0,0.0
43833,76.0,0,59,12.0,0.0
43834,40.0,0,59,15.0,0.0
43835,52.0,0,59,15.0,0.0
43836,52.0,0,59,3.0,0.0
43837,45.0,0,59,7.0,0.0
43838,45.0,0,59,7.0,0.0
43839,54.0,0,59,3.0,0.0
43840,42.0,0,59,15.0,0.0
43841,54.0,0,59,15.0,0.0
43842,42.0,0,59,3.0,0.0
43843,66.0,0,59,14.0,0.0
43844,78.0,0,59,12.0,0.0
43845,69.0,0,119,6.0,0.0
43846,45.0,0,59,7.0,0.0
43847,55.0,0,59,15.0,0.0
43848,55.0,60,59,3.0,0.0
43849,67.0,0,59,14.0,0.0
43850,43.0,0,59,3.0,0.0
43851,57.0,0,119,6.0,0.0
43852,79.0,0,59,12.0,0.0
43853,43.0,0,59,15.0,0.0
43854,45.0,0,59,15.0,0.0
43855,33.0,0,59,3.0,0.0
43856,57.0,0,59,15.0,0.0
43857,69.0,0,59,14.0,0.0
43858,69.0,0,59,12.0,0.0
43859,57.0,0,59,3.0,0.0
43860,81.0,0,59,12.0,0.0
43861,45.0,60,59,7.0,0.0
43862,83.0,60,59,12.0,0.0
43863,59.0,0,59,3.0,0.0
43864,71.0,0,59,14.0,0.0
43865,47.0,0,59,15.0,0.0
43866,35.0,0,59,3.0,0.0
43867,69.0,0,119,5.0,0.0
43868,93.0,0,119,0.0,0.0
43869,71.0,0,59,12.0,0.0
43870,59.0,0,59,15.0,0.0
43871,81.0,60,119,2.0,0.0
43872,69.0,0,119,2.0,0.0
43873,81.0,0,119,5.0,0.0
43874,45.0,0,59,7.0,0.0
43875,81.0,0,119,1.0,0.0
43876,105.0,0,119,13.0,0.0
43877,57.0,0,119,4.0,0.0
43878,69.0,0,119,4.0,0.0
43879,49.0,0,59,15.0,0.0
43880,61.0,0,59,3.0,0.0
43881,73.0,0,59,14.0,0.0
43882,85.0,0,59,12.0,0.0
43883,45.0,0,59,7.0,0.0
43884,37.0,0,59,3.0,0.0
43885,61.0,0,59,15.0,0.0
43886,73.0,0,59,12.0,0.0
43887,86.0,0,59,12.0,0.0
43888,45.0,0,59,7.0,0.0
43889,62.0,0,59,3.0,0.0
43890,62.0,0,59,15.0,0.0
43891,81.0,0,119,2.0,0.0
43892,69.0,0,119,2.0,0.0
43893,38.0,0,59,3.0,0.0
43894,74.0,0,59,12.0,0.0
43895,81.0,0,119,1.0,0.0
43896,81.0,0,119,5.0,0.0
43897,50.0,0,59,15.0,0.0
43898,69.0,0,119,5.0,0.0
43899,93.0,0,119,0.0,0.0
43900,74.0,60,59,14.0,0.0
43901,49.0,0,119,9.0,0.0
43902,69.0,0,119,4.0,0.0
43903,35.0,0,119,9.0,0.0
43904,81.0,0,119,9.0,0.0
43905,57.0,0,119,4.0,0.0
43906,105.0,0,119,13.0,0.0
43907,45.0,0,59,7.0,0.0
43908,64.0,60,59,3.0,0.0
43909,76.0,0,59,12.0,0.0
43910,76.0,0,59,14.0,0.0
43911,64.0,0,59,15.0,0.0
43912,52.0,0,59,15.0,0.0
43913,88.0,0,59,12.0,0.0
43914,40.0,0,59,3.0,0.0
43915,54.0,0,59,15.0,0.0
43916,66.0,0,59,15.0,0.0
43917,66.0,0,59,3.0,0.0
43918,74.0,0,119,1.0,0.0
43919,74.0,0,119,2.0,0.0
43920,50.0,0,119,4.0,0.0
43921,50.0,60,59,7.0,0.0
43922,90.0,0,59,12.0,0.0
43923,42.0,0,59,3.0,0.0
43924,78.0,0,59,14.0,0.0
43925,78.0,0,59,12.0,0.0
43926,62.0,0,119,5.0,0.0
43927,74.0,60,119,5.0,0.0
43928,86.0,0,119,0.0,0.0
43929,98.0,0,119,13.0,0.0
43930,62.0,0,119,2.0,0.0
43931,62.0,0,119,4.0,0.0
43932,55.0,0,59,15.0,0.0
43933,79.0,0,59,12.0,0.0
43934,43.0,0,59,3.0,0.0
43935,79.0,0,59,14.0,0.0
43936,67.0,0,59,3.0,0.0
43937,67.0,0,59,15.0,0.0
43938,50.0,0,59,7.0,0.0
43939,91.0,0,59,12.0,0.0
43940,57.0,60,419,3.0,0.0
43941,79.0,0,419,8.0,0.0
43942,76.0,0,419,1.0,0.0
43943,79.0,0,419,1.0,0.0
43944,103.0,0,359,13.0,0.0
43945,76.0,0,59,14.0,0.0
43946,67.0,0,59,14.0,0.0
43947,64.0,0,119,6.0,0.0
43948,67.0,0,119,6.0,0.0
43949,45.0,0,59,7.0,0.0
43950,76.0,0,419,10.0,0.0
43951,67.0,0,419,4.0,0.0
43952,64.0,0,419,4.0,0.0
43953,79.0,0,59,12.0,0.0
43954,73.0,0,419,2.0,0.0
43955,76.0,0,419,2.0,0.0
43956,57.0,0,119,6.0,0.0
43957,57.0,60,59,15.0,0.0
43958,64.0,0,419,11.0,0.0
43959,45.0,0,359,3.0,0.0
43960,76.0,0,59,12.0,0.0
43961,91.0,0,419,0.0,0.0
43962,88.0,0,419,0.0,0.0
43963,91.0,0,59,12.0,0.0
43964,81.0,0,119,9.0,0.0
43965,35.0,0,119,9.0,0.0
43966,49.0,0,119,9.0,0.0
43967,76.0,0,419,5.0,0.0
43968,69.0,0,419,5.0,0.0
43969,57.0,0,419,11.0,0.0
43970,45.0,0,59,15.0,0.0
43971,45.0,0,59,15.0,0.0
43972,57.0,0,59,15.0,0.0
43973,76.0,0,59,14.0,0.0
43974,67.0,0,59,14.0,0.0
43975,91.0,0,59,12.0,0.0
43976,45.0,60,59,7.0,0.0
43977,76.0,0,59,12.0,0.0
43978,79.0,0,59,12.0,0.0
43979,76.0,0,59,12.0,0.0
43980,79.0,60,59,12.0,0.0
43981,67.0,0,59,14.0,0.0
43982,76.0,0,59,14.0,0.0
43983,45.0,0,59,7.0,0.0
43984,57.0,0,59,15.0,0.0
43985,45.0,0,59,15.0,0.0
43986,91.0,0,59,12.0,0.0
43987,45.0,120,59,15.0,0.0
43988,57.0,0,59,15.0,0.0
43989,79.0,0,59,12.0,0.0
43990,45.0,0,59,7.0,0.0
43991,67.0,0,59,14.0,0.0
43992,76.0,0,59,14.0,0.0
43993,76.0,0,59,12.0,0.0
43994,91.0,0,59,12.0,0.0
43995,76.0,0,119,14.0,0.0
43996,91.0,0,119,12.0,0.0
43997,81.0,60,119,9.0,0.0
43998,45.0,0,119,15.0,0.0
43999,57.0,0,119,15.0,0.0
44000,35.0,0,119,9.0,0.0
44001,49.0,0,119,9.0,0.0
44002,76.0,0,119,12.0,0.0
44003,79.0,0,119,12.0,0.0
44004,45.0,0,119,7.0,0.0
44005,67.0,0,119,14.0,0.0
44006,57.0,0,59,3.0,0.0
44007,45.0,0,59,3.0,0.0
44008,91.0,0,59,0.0,0.0
44009,88.0,0,59,0.0,0.0
44010,79.0,0,59,8.0,0.0
44011,76.0,0,59,10.0,0.0
44012,57.0,90,59,11.0,0.0
44013,76.0,0,59,1.0,0.0
44014,79.0,0,59,1.0,0.0
44015,76.0,0,59,5.0,0.0
44016,45.0,0,59,7.0,0.0
44017,64.0,0,59,4.0,0.0
44018,67.0,0,59,4.0,0.0
44019,73.0,0,59,2.0,0.0
44020,69.0,0,59,5.0,0.0
44021,64.0,0,59,11.0,0.0
44022,76.0,0,59,2.0,0.0
44023,88.0,0,89,0.0,0.0
44024,91.0,0,89,0.0,0.0
44025,76.0,0,89,5.0,0.0
44026,69.0,0,89,5.0,0.0
44027,64.0,0,89,11.0,0.0
44028,67.0,0,89,4.0,0.0
44029,79.0,0,89,8.0,0.0
44030,64.0,0,89,4.0,0.0
44031,79.0,0,89,1.0,0.0
44032,76.0,30,89,1.0,0.0
44033,73.0,0,89,2.0,0.0
44034,76.0,0,89,10.0,0.0
44035,76.0,0,89,2.0,0.0
44036,57.0,0,89,11.0,0.0
44037,57.0,0,89,3.0,0.0
44038,45.0,0,89,7.0,0.0
44039,45.0,0,89,3.0,0.0
44040,79.0,0,29,1.0,0.0
44041,76.0,0,29,1.0,0.0
44042,67.0,0,29,4.0,0.0
44043,88.0,0,29,0.0,0.0
44044,45.0,90,29,3.0,0.0
44045,57.0,0,29,3.0,0.0
44046,57.0,0,29,11.0,0.0
44047,67.0,0,29,10.0,0.0
44048,85.0,0,29,0.0,0.0
44049,73.0,0,29,2.0,0.0
44050,76.0,0,29,2.0,0.0
44051,64.0,0,29,4.0,0.0
44052,45.0,0,29,7.0,0.0
44053,76.0,0,29,8.0,0.0
44054,76.0,0,29,5.0,0.0
44055,69.0,0,29,5.0,0.0
44056,64.0,0,29,11.0,0.0
44057,86.0,0,89,0.0,0.0
44058,64.0,0,89,11.0,0.0
44059,57.0,0,89,11.0,0.0
44060,45.0,0,89,3.0,0.0
44061,67.0,0,89,10.0,0.0
44062,79.0,0,89,1.0,0.0
44063,76.0,0,89,1.0,0.0
44064,74.0,0,89,8.0,0.0
44065,69.0,0,89,5.0,0.0
44066,76.0,0,89,5.0,0.0
44067,74.0,0,89,2.0,0.0
44068,64.0,0,89,4.0,0.0
44069,67.0,0,89,4.0,0.0
44070,57.0,0,89,3.0,0.0
44071,45.0,0,89,7.0,0.0
44072,45.0,0,29,3.0,0.0
44073,57.0,0,29,3.0,0.0
44074,45.0,0,29,7.0,0.0
44075,69.0,0,29,5.0,0.0
44076,76.0,0,29,5.0,0.0
44077,73.0,0,29,8.0,0.0
44078,67.0,0,29,10.0,0.0
44079,76.0,0,29,12.0,0.0
44080,79.0,0,29,1.0,0.0
44081,76.0,0,29,1.0,0.0
44082,64.0,0,29,4.0,0.0
44083,67.0,0,29,4.0,0.0
44084,73.0,0,29,2.0,0.0
44085,85.0,0,29,0.0,0.0
44086,64.0,0,29,11.0,0.0
44087,57.0,0,29,11.0,0.0
44088,100.0,0,134,13.0,0.0
44089,76.0,0,179,2.0,0.0
44090,73.0,0,119,8.0,0.0
44091,73.0,0,179,2.0,0.0
44092,45.0,0,119,7.0,0.0
44093,57.0,0,59,3.0,0.0
44094,88.0,10,134,12.0,0.0
44095,85.0,0,134,12.0,0.0
44096,79.0,60,59,1.0,0.0
44097,88.0,0,179,0.0,0.0
44098,85.0,0,179,0.0,0.0
44099,57.0,0,119,11.0,0.0
44100,76.0,0,134,14.0,0.0
44101,67.0,0,119,10.0,0.0
44102,76.0,0,119,5.0,0.0
44103,69.0,0,119,5.0,0.0
44104,76.0,0,59,1.0,0.0
44105,73.0,0,134,14.0,0.0
44106,64.0,15,119,11.0,0.0
44107,67.0,0,59,4.0,0.0
44108,64.0,0,59,4.0,0.0
44109,67.0,0,134,15.0,0.0
44110,45.0,0,59,3.0,0.0
44111,64.0,0,119,3.0,0.0
44112,64.0,0,119,4.0,0.0
44113,57.0,0,119,4.0,0.0
44114,73.0,0,119,1.0,0.0
44115,76.0,0,119,1.0,0.0
44116,61.0,0,119,3.0,0.0
44117,74.0,0,9,14.0,0.0
44118,98.0,0,9,13.0,0.0
44119,83.0,15,9,12.0,0.0
44120,66.0,0,9,15.0,0.0
44121,86.0,0,9,12.0,0.0
44122,71.0,0,9,14.0,0.0
44123,97.0,0,9,13.0,0.0
44124,64.0,0,9,15.0,0.0
44125,85.0,0,9,12.0,0.0
44126,81.0,15,9,12.0,0.0
44127,73.0,0,9,14.0,0.0
44128,69.0,0,9,14.0,0.0
44129,79.0,0,9,12.0,0.0
44130,67.0,0,9,14.0,0.0
44131,95.0,0,9,13.0,0.0
44132,62.0,5,9,15.0,0.0
44133,83.0,0,9,12.0,0.0
44134,71.0,0,9,14.0,0.0
44135,61.0,0,9,15.0,0.0
44136,66.0,0,9,14.0,0.0
44137,69.0,0,9,14.0,0.0
44138,78.0,0,29,2.0,0.0
44139,74.0,0,29,2.0,0.0
44140,81.0,0,9,12.0,0.0
44141,90.0,10,29,0.0,0.0
44142,62.0,0,29,4.0,0.0
44143,78.0,0,29,1.0,0.0
44144,86.0,0,29,0.0,0.0
44145,62.0,0,29,3.0,0.0
44146,66.0,0,29,3.0,0.0
44147,74.0,0,29,1.0,0.0
44148,66.0,0,29,4.0,0.0
44149,93.0,0,9,13.0,0.0
44150,78.0,15,9,12.0,0.0
44151,76.0,5,9,12.0,0.0
44152,91.0,0,9,13.0,0.0
44153,64.0,0,9,14.0,0.0
44154,67.0,0,9,14.0,0.0
44155,79.0,0,9,12.0,0.0
44156,59.0,0,9,15.0,0.0
44157,66.0,0,9,14.0,0.0
44158,57.0,0,9,15.0,0.0
44159,90.0,0,9,13.0,0.0
44160,62.0,15,9,14.0,0.0
44161,88.0,0,29,0.0,0.0
44162,67.0,10,29,3.0,0.0
44163,64.0,0,29,3.0,0.0
44164,91.0,0,29,0.0,0.0
44165,79.0,0,29,1.0,0.0
44166,76.0,0,29,1.0,0.0
44167,64.0,0,29,4.0,0.0
44168,74.0,0,9,12.0,0.0
44169,67.0,0,29,4.0,0.0
44170,78.0,0,9,12.0,0.0
44171,79.0,0,29,2.0,0.0
44172,76.0,0,29,2.0,0.0
44173,73.0,0,9,12.0,0.0
44174,88.0,5,9,13.0,0.0
44175,76.0,0,9,12.0,0.0
44176,64.0,0,9,14.0,0.0
44177,61.0,0,9,14.0,0.0
44178,55.0,0,9,15.0,0.0
44179,74.0,10,14,12.0,0.0
44180,90.0,5,9,13.0,0.0
44181,62.0,0,89,5.0,0.0
44182,38.0,0,89,3.0,0.0
44183,69.0,0,89,1.0,0.0
44184,66.0,0,89,10.0,0.0
44185,50.0,0,89,3.0,0.0
44186,62.0,0,89,3.0,0.0
44187,78.0,0,89,8.0,0.0
44188,38.0,0,14,15.0,0.0
44189,78.0,0,14,12.0,0.0
44190,66.0,0,14,14.0,0.0
44191,81.0,0,119,9.0,0.0
44192,35.0,0,119,9.0,0.0
44193,49.0,0,119,9.0,0.0
44194,78.0,0,89,1.0,0.0
44195,74.0,0,89,5.0,0.0
44196,50.0,0,89,7.0,0.0
44197,66.0,0,89,4.0,0.0
44198,66.0,0,59,6.0,0.0
44199,62.0,0,89,4.0,0.0
44200,62.0,0,89,11.0,0.0
44201,90.0,10,89,0.0,0.0
44202,62.0,0,14,15.0,0.0
44203,69.0,0,89,2.0,0.0
44204,78.0,0,89,2.0,0.0
44205,62.0,0,59,6.0,0.0
44206,61.0,10,14,15.0,0.0
44207,50.0,0,14,15.0,0.0
44208,76.0,0,14,12.0,0.0
44209,64.0,0,14,14.0,0.0
44210,73.0,0,14,12.0,0.0
44211,88.0,5,9,13.0,0.0
44212,50.0,0,14,15.0,0.0
44213,62.0,0,14,14.0,0.0
44214,74.0,0,14,12.0,0.0
44215,71.0,0,14,12.0,0.0
44216,86.0,5,9,13.0,0.0
44217,59.0,10,14,15.0,0.0
44218,50.0,0,14,15.0,0.0
44219,73.0,0,14,12.0,0.0
44220,85.0,5,9,13.0,0.0
44221,57.0,0,14,15.0,0.0
44222,69.0,0,14,12.0,0.0
44223,61.0,10,14,14.0,0.0
44224,50.0,0,14,15.0,0.0
44225,83.0,5,9,13.0,0.0
44226,59.0,0,14,14.0,0.0
44227,55.0,10,14,15.0,0.0
44228,67.0,0,14,12.0,0.0
44229,71.0,0,14,12.0,0.0
44230,57.0,0,14,14.0,0.0
44231,81.0,5,9,13.0,0.0
44232,66.0,0,14,12.0,0.0
44233,69.0,0,14,12.0,0.0
44234,54.0,0,14,15.0,0.0
44235,50.0,0,14,15.0,0.0
44236,67.0,5,14,12.0,0.0
44237,50.0,0,14,15.0,0.0
44238,52.0,0,14,15.0,0.0
44239,62.0,0,29,5.0,0.0
44240,90.0,0,29,0.0,0.0
44241,78.0,15,29,1.0,0.0
44242,50.0,0,29,3.0,0.0
44243,64.0,0,14,12.0,0.0
44244,78.0,0,19,8.0,0.0
44245,62.0,0,29,4.0,0.0
44246,66.0,0,29,4.0,0.0
44247,50.0,0,29,7.0,0.0
44248,78.0,0,29,2.0,0.0
44249,62.0,0,29,3.0,0.0
44250,74.0,0,19,10.0,0.0
44251,55.0,0,14,14.0,0.0
44252,79.0,5,9,13.0,0.0
44253,74.0,0,29,2.0,0.0
44254,62.0,0,19,11.0,0.0
44255,38.0,0,29,3.0,0.0
44256,74.0,0,29,1.0,0.0
44257,74.0,0,29,5.0,0.0
44258,62.0,0,14,12.0,0.0
44259,50.0,0,14,15.0,0.0
44260,66.0,0,14,12.0,0.0
44261,54.0,0,14,14.0,0.0
44262,78.0,5,9,13.0,0.0
44263,50.0,0,119,7.0,0.0
44264,62.0,0,179,11.0,0.0
44265,55.0,0,59,6.0,0.0
44266,35.0,0,119,9.0,0.0
44267,79.0,0,14,12.0,0.0
44268,55.0,0,179,11.0,0.0
44269,49.0,0,119,9.0,0.0
44270,71.0,0,14,14.0,0.0
44271,81.0,0,119,9.0,0.0
44272,62.0,0,119,5.0,0.0
44273,31.0,0,179,3.0,0.0
44274,67.0,0,59,6.0,0.0
44275,59.0,0,59,6.0,0.0
44276,91.0,0,179,13.0,0.0
44277,74.0,0,119,5.0,0.0
44278,79.0,0,179,1.0,0.0
44279,83.0,0,14,12.0,0.0
44280,91.0,0,179,0.0,0.0
44281,67.0,0,179,4.0,0.0
44282,55.0,15,179,3.0,0.0
44283,43.0,0,179,3.0,0.0
44284,71.0,0,179,10.0,0.0
44285,31.0,15,14,15.0,0.0
44286,79.0,0,179,8.0,0.0
44287,67.0,0,14,15.0,0.0
44288,62.0,0,119,4.0,0.0
44289,79.0,0,179,2.0,0.0
44290,71.0,0,179,1.0,0.0
44291,71.0,0,179,2.0,0.0
44292,66.0,0,14,15.0,0.0
44293,81.0,0,14,12.0,0.0
44294,69.0,0,14,14.0,0.0
44295,78.0,15,14,12.0,0.0
44296,43.0,0,14,15.0,0.0
44297,67.0,0,14,14.0,0.0
44298,79.0,15,14,12.0,0.0
44299,76.0,0,14,12.0,0.0
44300,43.0,0,14,15.0,0.0
44301,64.0,0,14,15.0,0.0
44302,74.0,15,14,12.0,0.0
44303,43.0,0,14,15.0,0.0
44304,66.0,0,14,14.0,0.0
44305,62.0,0,14,15.0,0.0
44306,78.0,0,14,12.0,0.0
44307,76.0,0,14,12.0,0.0
44308,64.0,0,14,14.0,0.0
44309,61.0,0,14,15.0,0.0
44310,73.0,0,14,12.0,0.0
44311,43.0,15,14,15.0,0.0
44312,59.0,0,14,15.0,0.0
44313,43.0,0,14,15.0,0.0
44314,62.0,0,14,14.0,0.0
44315,74.0,0,14,12.0,0.0
44316,71.0,15,14,12.0,0.0
44317,43.0,15,14,15.0,0.0
44318,57.0,0,14,15.0,0.0
44319,73.0,0,14,12.0,0.0
44320,69.0,0,14,12.0,0.0
44321,61.0,0,14,14.0,0.0
44322,59.0,0,14,14.0,0.0
44323,43.0,0,14,15.0,0.0
44324,71.0,15,14,12.0,0.0
44325,67.0,0,14,12.0,0.0
44326,55.0,0,14,15.0,0.0
44327,76.0,0,14,12.0,0.0
44328,33.0,0,14,15.0,0.0
44329,79.0,0,14,12.0,0.0
44330,64.0,0,14,15.0,0.0
44331,50.0,0,59,4.0,0.0
44332,67.0,15,14,14.0,0.0
44333,74.0,0,14,12.0,0.0
44334,78.0,15,14,12.0,0.0
44335,62.0,0,14,15.0,0.0
44336,66.0,0,14,14.0,0.0
44337,45.0,0,14,15.0,0.0
44338,45.0,0,14,15.0,0.0
44339,76.0,15,14,12.0,0.0
44340,73.0,0,14,12.0,0.0
44341,64.0,0,14,14.0,0.0
44342,61.0,0,14,15.0,0.0
44343,74.0,0,14,12.0,0.0
44344,62.0,0,14,14.0,0.0
44345,45.0,0,14,15.0,0.0
44346,59.0,0,14,15.0,0.0
44347,71.0,0,14,12.0,0.0
44348,45.0,0,14,15.0,0.0
44349,57.0,0,59,5.0,0.0
44350,45.0,0,59,3.0,0.0
44351,61.0,0,59,6.0,0.0
44352,57.0,0,59,3.0,0.0
44353,57.0,0,59,6.0,0.0
44354,76.0,0,59,8.0,0.0
44355,57.0,0,14,15.0,0.0
44356,73.0,0,59,1.0,0.0
44357,76.0,0,59,1.0,0.0
44358,88.0,0,59,0.0,0.0
44359,73.0,0,59,2.0,0.0
44360,76.0,0,59,2.0,0.0
44361,73.0,0,59,10.0,0.0
44362,100.0,0,59,13.0,0.0
44363,64.0,0,59,6.0,0.0
44364,49.0,0,59,9.0,0.0
44365,61.0,0,59,11.0,0.0
44366,33.0,0,59,3.0,0.0
44367,35.0,0,59,9.0,0.0
44368,81.0,0,59,9.0,0.0
44369,64.0,0,59,4.0,0.0
44370,69.0,0,59,5.0,0.0
44371,73.0,0,14,12.0,0.0
44372,57.0,0,59,11.0,0.0
44373,45.0,0,59,7.0,0.0
44374,61.0,0,14,14.0,0.0
44375,57.0,0,59,4.0,0.0
44376,69.0,15,14,12.0,0.0
44377,71.0,0,14,12.0,0.0
44378,67.0,0,14,12.0,0.0
44379,55.0,0,14,15.0,0.0
44380,59.0,15,14,14.0,0.0
44381,45.0,0,14,15.0,0.0
44382,54.0,0,14,15.0,0.0
44383,66.0,15,14,12.0,0.0
44384,57.0,0,14,14.0,0.0
44385,69.0,0,14,12.0,0.0
44386,45.0,0,14,15.0,0.0
44387,76.0,0,14,12.0,0.0
44388,64.0,0,14,15.0,0.0
44389,45.0,0,14,15.0,0.0
44390,64.0,0,14,14.0,0.0
44391,79.0,0,14,12.0,0.0
44392,64.0,0,14,14.0,0.0
44393,76.0,0,14,12.0,0.0
44394,69.0,0,59,6.0,0.0
44395,105.0,0,89,13.0,0.0
44396,81.0,0,89,1.0,0.0
44397,81.0,15,29,9.0,0.0
44398,93.0,0,89,0.0,0.0
44399,49.0,0,119,9.0,0.0
44400,35.0,0,119,9.0,0.0
44401,67.0,0,14,14.0,0.0
44402,64.0,0,14,15.0,0.0
44403,57.0,0,89,5.0,0.0
44404,33.0,0,89,3.0,0.0
44405,81.0,0,89,2.0,0.0
44406,69.0,0,89,10.0,0.0
44407,33.0,15,14,15.0,0.0
44408,69.0,0,89,11.0,0.0
44409,57.0,0,89,3.0,0.0
44410,45.0,0,89,3.0,0.0
44411,69.0,0,89,4.0,0.0
44412,81.0,0,89,8.0,0.0
44413,45.0,0,89,7.0,0.0
44414,79.0,0,14,12.0,0.0
44415,69.0,0,89,5.0,0.0
44416,57.0,0,89,11.0,0.0
44417,69.0,0,89,2.0,0.0
44418,57.0,0,59,6.0,0.0
44419,57.0,0,89,4.0,0.0
44420,66.0,0,14,14.0,0.0
44421,62.0,0,14,14.0,0.0
44422,74.0,0,14,12.0,0.0
44423,78.0,0,14,12.0,0.0
44424,62.0,0,14,15.0,0.0
44425,45.0,0,14,15.0,0.0
44426,64.0,0,14,14.0,0.0
44427,64.0,0,14,15.0,0.0
44428,76.0,15,14,12.0,0.0
44429,67.0,0,14,14.0,0.0
44430,45.0,0,14,15.0,0.0
44431,79.0,0,14,12.0,0.0
44432,81.0,0,29,9.0,0.0
44433,78.0,0,14,12.0,0.0
44434,45.0,0,14,15.0,0.0
44435,66.0,0,14,15.0,0.0
44436,69.0,15,14,14.0,0.0
44437,66.0,0,14,14.0,0.0
44438,81.0,0,14,12.0,0.0
44439,45.0,0,14,15.0,0.0
44440,83.0,0,14,12.0,0.0
44441,81.0,0,29,9.0,0.0
44442,71.0,0,14,14.0,0.0
44443,67.0,0,14,15.0,0.0
44444,79.0,0,14,12.0,0.0
44445,67.0,15,14,14.0,0.0
44446,78.0,0,14,12.0,0.0
44447,66.0,0,14,14.0,0.0
44448,69.0,0,14,14.0,0.0
44449,66.0,0,14,15.0,0.0
44450,81.0,0,14,12.0,0.0
44451,45.0,15,14,15.0,0.0
44452,69.0,0,29,11.0,0.0
44453,105.0,0,29,13.0,0.0
44454,81.0,0,29,9.0,0.0
44455,67.0,0,14,14.0,0.0
44456,93.0,0,29,0.0,0.0
44457,45.0,0,14,15.0,0.0
44458,79.0,15,14,12.0,0.0
44459,67.0,0,14,15.0,0.0
44460,71.0,0,14,14.0,0.0
44461,57.0,0,29,3.0,0.0
44462,69.0,0,29,5.0,0.0
44463,81.0,0,29,1.0,0.0
44464,33.0,0,29,3.0,0.0
44465,81.0,15,29,8.0,0.0
44466,83.0,0,14,12.0,0.0
44467,81.0,0,29,2.0,0.0
44468,45.0,0,29,3.0,0.0
44469,69.0,0,29,2.0,0.0
44470,45.0,0,29,7.0,0.0
44471,69.0,0,29,4.0,0.0
44472,57.0,0,29,5.0,0.0
44473,57.0,0,29,11.0,0.0
44474,57.0,0,29,4.0,0.0
44475,69.0,0,29,10.0,0.0
44476,73.0,0,14,14.0,0.0
44477,64.0,0,14,14.0,0.0
44478,85.0,0,14,12.0,0.0
44479,64.0,0,14,15.0,0.0
44480,45.0,0,14,15.0,0.0
44481,76.0,0,14,12.0,0.0
44482,78.0,0,14,12.0,0.0
44483,81.0,0,59,2.0,0.0
44484,69.0,0,59,2.0,0.0
44485,49.0,0,119,9.0,0.0
44486,86.0,0,14,12.0,0.0
44487,57.0,0,59,6.0,0.0
44488,81.0,0,29,9.0,0.0
44489,57.0,0,59,11.0,0.0
44490,57.0,0,59,3.0,0.0
44491,45.0,0,59,3.0,0.0
44492,35.0,0,119,9.0,0.0
44493,33.0,0,59,3.0,0.0
44494,66.0,0,14,14.0,0.0
44495,81.0,0,59,1.0,0.0
44496,81.0,0,59,8.0,0.0
44497,66.0,15,14,15.0,0.0
44498,33.0,0,14,15.0,0.0
44499,69.0,0,59,4.0,0.0
44500,57.0,0,59,4.0,0.0
44501,93.0,0,59,0.0,0.0
44502,45.0,0,59,7.0,0.0
44503,57.0,0,59,5.0,0.0
44504,105.0,0,59,13.0,0.0
44505,69.0,0,59,5.0,0.0
44506,74.0,0,14,14.0,0.0
44507,69.0,0,59,10.0,0.0
44508,69.0,15,59,11.0,0.0
44509,69.0,0,59,6.0,0.0
44510,64.0,0,14,15.0,0.0
44511,85.0,0,14,12.0,0.0
44512,76.0,0,14,12.0,0.0
44513,64.0,15,14,14.0,0.0
44514,73.0,0,14,14.0,0.0
44515,45.0,0,14,15.0,0.0
44516,66.0,0,14,14.0,0.0
44517,74.0,0,14,14.0,0.0
44518,86.0,0,14,12.0,0.0
44519,81.0,0,29,9.0,0.0
44520,66.0,0,14,15.0,0.0
44521,78.0,0,14,12.0,0.0
44522,45.0,15,14,15.0,0.0
44523,67.0,0,14,14.0,0.0
44524,45.0,0,14,15.0,0.0
44525,67.0,0,14,15.0,0.0
44526,76.0,0,14,14.0,0.0
44527,79.0,0,14,12.0,0.0
44528,88.0,0,14,12.0,0.0
44529,62.0,0,59,5.0,0.0
44530,50.0,0,59,6.0,0.0
44531,50.0,0,44,11.0,0.0
44532,74.0,0,59,5.0,0.0
44533,62.0,15,44,10.0,0.0
44534,81.0,0,14,12.0,0.0
44535,62.0,0,44,11.0,0.0
44536,26.0,0,59,3.0,0.0
44537,74.0,0,59,1.0,0.0
44538,69.0,0,14,15.0,0.0
44539,62.0,0,59,4.0,0.0
44540,26.0,0,14,15.0,0.0
44541,50.0,0,59,3.0,0.0
44542,38.0,0,59,3.0,0.0
44543,50.0,0,59,4.0,0.0
44544,98.0,0,59,13.0,0.0
44545,62.0,0,59,6.0,0.0
44546,74.0,0,44,8.0,0.0
44547,50.0,0,59,7.0,0.0
44548,90.0,15,14,12.0,0.0
44549,69.0,0,14,14.0,0.0
44550,74.0,0,59,2.0,0.0
44551,78.0,0,14,14.0,0.0
44552,81.0,0,29,9.0,0.0
44553,86.0,0,59,0.0,0.0
44554,62.0,0,59,2.0,0.0
44555,76.0,0,14,14.0,0.0
44556,88.0,15,14,12.0,0.0
44557,79.0,0,14,12.0,0.0
44558,38.0,0,14,15.0,0.0
44559,67.0,0,14,15.0,0.0
44560,67.0,0,14,14.0,0.0
44561,69.0,0,14,15.0,0.0
44562,81.0,0,29,9.0,0.0
44563,69.0,0,14,14.0,0.0
44564,90.0,0,14,12.0,0.0
44565,38.0,0,14,15.0,0.0
44566,81.0,0,14,12.0,0.0
44567,78.0,0,14,14.0,0.0
44568,66.0,0,14,15.0,0.0
44569,74.0,0,14,14.0,0.0
44570,66.0,0,14,14.0,0.0
44571,78.0,0,14,12.0,0.0
44572,38.0,0,14,15.0,0.0
44573,86.0,0,14,12.0,0.0
44574,105.0,0,89,13.0,0.0
44575,64.0,15,14,15.0,0.0
44576,93.0,0,89,0.0,0.0
44577,69.0,0,89,5.0,0.0
44578,57.0,15,89,5.0,0.0
44579,69.0,0,89,11.0,0.0
44580,69.0,0,59,6.0,0.0
44581,57.0,0,89,11.0,0.0
44582,57.0,0,59,6.0,0.0
44583,73.0,0,14,14.0,0.0
44584,64.0,0,14,14.0,0.0
44585,45.0,0,89,3.0,0.0
44586,57.0,0,89,4.0,0.0
44587,69.0,0,89,4.0,0.0
44588,57.0,0,89,3.0,0.0
44589,33.0,0,89,3.0,0.0
44590,69.0,0,89,2.0,0.0
44591,81.0,0,89,2.0,0.0
44592,81.0,0,89,1.0,0.0
44593,35.0,0,119,9.0,0.0
44594,49.0,0,119,9.0,0.0
44595,85.0,0,14,12.0,0.0
44596,81.0,0,89,8.0,0.0
44597,45.0,0,89,7.0,0.0
44598,69.0,0,89,10.0,0.0
44599,76.0,0,14,12.0,0.0
44600,81.0,0,29,9.0,0.0
44601,33.0,0,14,15.0,0.0
44602,45.0,15,14,15.0,0.0
44603,86.0,0,14,12.0,0.0
44604,78.0,0,14,12.0,0.0
44605,74.0,0,14,14.0,0.0
44606,66.0,0,14,14.0,0.0
44607,66.0,0,14,15.0,0.0
44608,67.0,0,14,14.0,0.0
44609,79.0,0,14,12.0,0.0
44610,45.0,15,14,15.0,0.0
44611,81.0,0,29,9.0,0.0
44612,67.0,0,14,15.0,0.0
44613,76.0,0,14,14.0,0.0
44614,88.0,0,14,12.0,0.0
44615,61.0,0,14,15.0,0.0
44616,61.0,0,14,14.0,0.0
44617,69.0,0,14,14.0,0.0
44618,81.0,0,14,12.0,0.0
44619,73.0,0,14,12.0,0.0
44620,45.0,15,14,15.0,0.0
44621,74.0,0,14,12.0,0.0
44622,83.0,15,14,12.0,0.0
44623,62.0,0,14,14.0,0.0
44624,71.0,0,14,14.0,0.0
44625,81.0,0,29,9.0,0.0
44626,62.0,0,14,15.0,0.0
44627,45.0,0,14,15.0,0.0
44628,61.0,0,14,15.0,0.0
44629,45.0,0,14,15.0,0.0
44630,61.0,0,14,14.0,0.0
44631,81.0,0,14,12.0,0.0
44632,69.0,0,14,14.0,0.0
44633,73.0,0,14,12.0,0.0
44634,45.0,0,29,3.0,0.0
44635,81.0,0,29,2.0,0.0
44636,83.0,0,14,12.0,0.0
44637,45.0,0,29,7.0,0.0
44638,69.0,0,29,2.0,0.0
44639,93.0,0,29,0.0,0.0
44640,74.0,0,14,12.0,0.0
44641,62.0,0,14,14.0,0.0
44642,69.0,0,29,10.0,0.0
44643,81.0,0,29,8.0,0.0
44644,71.0,0,14,14.0,0.0
44645,33.0,0,29,3.0,0.0
44646,69.0,0,29,11.0,0.0
44647,81.0,0,29,1.0,0.0
44648,45.0,0,14,15.0,0.0
44649,57.0,0,29,11.0,0.0
44650,81.0,0,29,9.0,0.0
44651,105.0,0,29,13.0,0.0
44652,57.0,0,29,4.0,0.0
44653,69.0,0,29,4.0,0.0
44654,62.0,15,14,15.0,0.0
44655,57.0,0,29,5.0,0.0
44656,57.0,0,29,3.0,0.0
44657,69.0,0,29,5.0,0.0
44658,64.0,0,14,15.0,0.0
44659,45.0,0,14,15.0,0.0
44660,73.0,0,14,14.0,0.0
44661,64.0,0,14,14.0,0.0
44662,76.0,0,14,12.0,0.0
44663,85.0,60,14,12.0,0.0
44664,57.0,0,119,6.0,0.0
44665,57.0,0,239,4.0,0.0
44666,69.0,0,119,6.0,0.0
44667,69.0,0,239,11.0,0.0
44668,57.0,0,239,11.0,0.0
44669,62.0,0,59,15.0,0.0
44670,69.0,0,239,2.0,0.0
44671,69.0,0,239,4.0,0.0
44672,69.0,0,239,10.0,0.0
44673,81.0,0,239,2.0,0.0
44674,38.0,0,239,3.0,0.0
44675,66.0,0,59,14.0,0.0
44676,81.0,0,239,8.0,0.0
44677,57.0,0,239,3.0,0.0
44678,50.0,60,239,3.0,0.0
44679,105.0,0,119,13.0,0.0
44680,74.0,60,59,14.0,0.0
44681,38.0,0,59,15.0,0.0
44682,49.0,0,119,9.0,0.0
44683,81.0,0,119,9.0,0.0
44684,35.0,0,119,9.0,0.0
44685,81.0,0,239,1.0,0.0
44686,50.0,0,59,7.0,0.0
44687,78.0,0,119,5.0,0.0
44688,74.0,0,119,5.0,0.0
44689,93.0,0,239,0.0,0.0
44690,78.0,0,59,12.0,0.0
44691,86.0,0,59,12.0,0.0
44692,50.0,0,59,15.0,0.0
44693,50.0,0,59,7.0,0.0
44694,38.0,60,59,15.0,0.0
44695,66.0,0,59,14.0,0.0
44696,74.0,0,59,12.0,0.0
44697,62.0,0,59,14.0,0.0
44698,78.0,0,59,12.0,0.0
44699,67.0,0,59,14.0,0.0
44700,76.0,0,59,12.0,0.0
44701,74.0,0,119,5.0,0.0
44702,50.0,0,59,15.0,0.0
44703,81.0,0,119,9.0,0.0
44704,78.0,0,119,5.0,0.0
44705,50.0,0,59,7.0,0.0
44706,79.0,0,59,12.0,0.0
44707,38.0,60,59,15.0,0.0
44708,64.0,0,59,14.0,0.0
44709,102.0,0,119,13.0,0.0
44710,50.0,0,59,7.0,0.0
44711,78.0,0,59,12.0,0.0
44712,66.0,0,59,14.0,0.0
44713,81.0,0,59,12.0,0.0
44714,69.0,0,59,14.0,0.0
44715,50.0,0,59,15.0,0.0
44716,38.0,0,59,15.0,0.0
44717,103.0,0,119,13.0,0.0
44718,79.0,0,119,5.0,0.0
44719,76.0,0,119,5.0,0.0
44720,81.0,0,119,9.0,0.0
44721,38.0,0,119,3.0,0.0
44722,69.0,0,59,14.0,0.0
44723,38.0,0,59,15.0,0.0
44724,66.0,0,59,14.0,0.0
44725,50.0,0,119,3.0,0.0
44726,62.0,0,119,6.0,0.0
44727,50.0,0,119,7.0,0.0
44728,78.0,0,59,12.0,0.0
44729,81.0,60,59,12.0,0.0
44730,74.0,60,119,8.0,0.0
44731,62.0,0,119,11.0,0.0
44732,50.0,0,119,6.0,0.0
44733,74.0,0,119,1.0,0.0
44734,50.0,0,59,15.0,0.0
44735,62.0,0,119,2.0,0.0
44736,74.0,0,119,2.0,0.0
44737,50.0,0,119,11.0,0.0
44738,86.0,0,119,0.0,0.0
44739,62.0,0,119,4.0,0.0
44740,62.0,0,119,10.0,0.0
44741,50.0,0,119,4.0,0.0
44742,79.0,0,59,12.0,0.0
44743,67.0,0,59,14.0,0.0
44744,64.0,0,59,14.0,0.0
44745,38.0,0,59,15.0,0.0
44746,50.0,0,59,15.0,0.0
44747,76.0,0,59,12.0,0.0
44748,81.0,60,119,2.0,0.0
44749,81.0,0,119,9.0,0.0
44750,69.0,0,119,2.0,0.0
44751,45.0,0,119,7.0,0.0
44752,45.0,0,59,15.0,0.0
44753,74.0,0,59,12.0,0.0
44754,93.0,0,119,0.0,0.0
44755,78.0,60,59,12.0,0.0
44756,33.0,0,119,3.0,0.0
44757,66.0,0,119,4.0,0.0
44758,69.0,0,119,4.0,0.0
44759,33.0,0,59,15.0,0.0
44760,57.0,0,119,3.0,0.0
44761,78.0,0,119,5.0,0.0
44762,69.0,0,119,1.0,0.0
44763,81.0,0,119,1.0,0.0
44764,66.0,0,59,14.0,0.0
44765,62.0,0,59,14.0,0.0
44766,81.0,0,119,5.0,0.0
44767,54.0,0,119,3.0,0.0
44768,105.0,0,119,13.0,0.0
44769,64.0,0,59,14.0,0.0
44770,76.0,0,59,12.0,0.0
44771,61.0,0,59,14.0,0.0
44772,45.0,0,59,15.0,0.0
44773,73.0,0,59,12.0,0.0
44774,33.0,0,59,15.0,0.0
44775,105.0,0,119,8.0,0.0
44776,50.0,0,119,6.0,0.0
44777,78.0,0,119,1.0,0.0
44778,81.0,0,119,1.0,0.0
44779,78.0,0,119,5.0,0.0
44780,50.0,0,59,7.0,0.0
44781,78.0,0,119,2.0,0.0
44782,66.0,0,119,3.0,0.0
44783,62.0,0,119,6.0,0.0
44784,57.0,0,119,3.0,0.0
44785,74.0,0,59,13.0,0.0
44786,81.0,0,119,2.0,0.0
44787,38.0,0,59,15.0,0.0
44788,81.0,0,119,5.0,0.0
44789,78.0,0,59,12.0,0.0
44790,93.0,0,119,0.0,0.0
44791,66.0,0,119,4.0,0.0
44792,69.0,0,119,4.0,0.0
44793,38.0,0,239,3.0,0.0
44794,66.0,0,59,14.0,0.0
44795,50.0,60,59,15.0,0.0
44796,35.0,0,119,9.0,0.0
44797,49.0,0,119,9.0,0.0
44798,81.0,0,119,9.0,0.0
44799,62.0,0,59,14.0,0.0
44800,74.0,0,59,13.0,0.0
44801,38.0,0,59,15.0,0.0
44802,50.0,0,59,15.0,0.0
44803,50.0,0,59,7.0,0.0
44804,62.0,0,59,14.0,0.0
44805,78.0,0,59,12.0,0.0
44806,66.0,0,59,14.0,0.0
44807,76.0,0,119,5.0,0.0
44808,64.0,0,119,3.0,0.0
44809,55.0,0,119,3.0,0.0
44810,76.0,0,119,2.0,0.0
44811,64.0,0,59,14.0,0.0
44812,67.0,0,59,14.0,0.0
44813,103.0,0,119,8.0,0.0
44814,79.0,0,119,5.0,0.0
44815,38.0,60,59,15.0,0.0
44816,79.0,0,119,2.0,0.0
44817,79.0,0,59,12.0,0.0
44818,76.0,0,59,13.0,0.0
44819,91.0,0,119,0.0,0.0
44820,79.0,0,119,1.0,0.0
44821,76.0,0,119,1.0,0.0
44822,81.0,0,119,9.0,0.0
44823,50.0,0,59,7.0,0.0
44824,50.0,0,59,15.0,0.0
44825,64.0,0,119,4.0,0.0
44826,67.0,0,119,4.0,0.0
44827,50.0,0,59,15.0,0.0
44828,66.0,0,59,14.0,0.0
44829,78.0,0,59,13.0,0.0
44830,38.0,0,59,15.0,0.0
44831,50.0,0,59,7.0,0.0
44832,69.0,0,59,14.0,0.0
44833,81.0,0,59,12.0,0.0
44834,74.0,0,119,5.0,0.0
44835,81.0,60,59,12.0,0.0
44836,78.0,0,119,1.0,0.0
44837,74.0,0,119,1.0,0.0
44838,38.0,0,119,3.0,0.0
44839,54.0,0,119,3.0,0.0
44840,62.0,0,119,3.0,0.0
44841,38.0,0,59,15.0,0.0
44842,78.0,60,119,5.0,0.0
44843,78.0,0,59,13.0,0.0
44844,102.0,0,119,8.0,0.0
44845,50.0,0,119,7.0,0.0
44846,74.0,0,119,2.0,0.0
44847,78.0,0,119,2.0,0.0
44848,66.0,0,59,14.0,0.0
44849,66.0,0,119,4.0,0.0
44850,62.0,0,119,4.0,0.0
44851,50.0,0,59,15.0,0.0
44852,69.0,0,59,14.0,0.0
44853,81.0,0,119,9.0,0.0
44854,90.0,0,119,0.0,0.0
44855,79.0,0,59,12.0,0.0
44856,67.0,0,59,14.0,0.0
44857,64.0,0,59,14.0,0.0
44858,76.0,0,59,13.0,0.0
44859,50.0,0,59,15.0,0.0
44860,38.0,0,59,15.0,0.0
44861,62.0,0,59,4.0,0.0
44862,78.0,0,59,5.0,0.0
44863,74.0,0,59,2.0,0.0
44864,78.0,0,59,1.0,0.0
44865,74.0,0,59,1.0,0.0
44866,33.0,0,119,3.0,0.0
44867,74.0,0,59,5.0,0.0
44868,66.0,0,59,4.0,0.0
44869,78.0,0,59,12.0,0.0
44870,33.0,0,59,15.0,0.0
44871,62.0,0,59,3.0,0.0
44872,54.0,60,59,3.0,0.0
44873,81.0,0,119,9.0,0.0
44874,62.0,0,59,14.0,0.0
44875,66.0,0,59,14.0,0.0
44876,45.0,0,119,7.0,0.0
44877,102.0,0,59,8.0,0.0
44878,74.0,0,59,13.0,0.0
44879,78.0,0,59,2.0,0.0
44880,90.0,0,59,0.0,0.0
44881,45.0,0,59,15.0,0.0
44882,76.0,0,59,2.0,0.0
44883,73.0,0,59,2.0,0.0
44884,45.0,0,59,15.0,0.0
44885,76.0,0,59,12.0,0.0
44886,73.0,0,59,13.0,0.0
44887,76.0,0,59,1.0,0.0
44888,100.0,0,59,8.0,0.0
44889,73.0,0,59,1.0,0.0
44890,52.0,0,59,3.0,0.0
44891,33.0,0,59,15.0,0.0
44892,64.0,0,59,14.0,0.0
44893,61.0,0,59,14.0,0.0
44894,64.0,0,59,4.0,0.0
44895,57.0,0,59,4.0,0.0
44896,88.0,0,59,0.0,0.0
44897,76.0,0,59,5.0,0.0
44898,61.0,60,59,3.0,0.0
44899,69.0,0,59,5.0,0.0
44900,66.0,0,59,14.0,0.0
44901,62.0,0,119,6.0,0.0
44902,62.0,0,59,14.0,0.0
44903,74.0,0,119,2.0,0.0
44904,78.0,0,119,2.0,0.0
44905,78.0,0,119,1.0,0.0
44906,74.0,0,119,1.0,0.0
44907,74.0,0,119,5.0,0.0
44908,50.0,0,59,15.0,0.0
44909,50.0,0,119,6.0,0.0
44910,50.0,0,59,7.0,0.0
44911,74.0,60,59,13.0,0.0
44912,90.0,0,119,0.0,0.0
44913,54.0,0,119,3.0,0.0
44914,62.0,60,119,3.0,0.0
44915,38.0,0,59,15.0,0.0
44916,102.0,0,119,8.0,0.0
44917,81.0,0,119,9.0,0.0
44918,49.0,0,119,9.0,0.0
44919,38.0,0,239,3.0,0.0
44920,78.0,0,119,5.0,0.0
44921,35.0,0,119,9.0,0.0
44922,66.0,0,119,4.0,0.0
44923,62.0,0,119,4.0,0.0
44924,78.0,0,59,12.0,0.0
44925,50.0,0,59,15.0,0.0
44926,74.0,0,59,13.0,0.0
44927,38.0,0,59,15.0,0.0
44928,78.0,0,59,12.0,0.0
44929,50.0,0,59,7.0,0.0
44930,62.0,0,59,14.0,0.0
44931,66.0,0,59,14.0,0.0
44932,90.0,0,119,0.0,0.0
44933,74.0,0,119,1.0,0.0
44934,64.0,0,59,14.0,0.0
44935,78.0,0,119,5.0,0.0
44936,74.0,60,119,5.0,0.0
44937,50.0,60,59,7.0,0.0
44938,74.0,0,119,2.0,0.0
44939,78.0,0,119,2.0,0.0
44940,67.0,0,59,14.0,0.0
44941,76.0,0,59,13.0,0.0
44942,62.0,0,119,4.0,0.0
44943,66.0,0,119,4.0,0.0
44944,102.0,0,119,8.0,0.0
44945,81.0,0,119,9.0,0.0
44946,54.0,0,119,3.0,0.0
44947,38.0,0,59,15.0,0.0
44948,62.0,0,119,3.0,0.0
44949,50.0,0,59,15.0,0.0
44950,78.0,0,119,1.0,0.0
44951,79.0,0,59,12.0,0.0
44952,50.0,0,59,7.0,0.0
44953,66.0,0,59,14.0,0.0
44954,50.0,0,59,15.0,0.0
44955,69.0,0,59,14.0,0.0
44956,38.0,0,59,15.0,0.0
44957,78.0,0,59,13.0,0.0
44958,81.0,0,59,12.0,0.0
44959,81.0,0,59,12.0,0.0
44960,64.0,0,119,4.0,0.0
44961,81.0,0,119,9.0,0.0
44962,91.0,0,119,0.0,0.0
44963,67.0,0,119,4.0,0.0
44964,50.0,0,59,15.0,0.0
44965,38.0,60,59,15.0,0.0
44966,66.0,0,59,14.0,0.0
44967,69.0,0,59,14.0,0.0
44968,78.0,0,59,13.0,0.0
44969,103.0,0,119,8.0,0.0
44970,76.0,0,119,5.0,0.0
44971,38.0,0,119,3.0,0.0
44972,55.0,0,119,3.0,0.0
44973,64.0,0,119,3.0,0.0
44974,76.0,0,119,2.0,0.0
44975,79.0,0,119,5.0,0.0
44976,76.0,0,119,1.0,0.0
44977,50.0,0,119,7.0,0.0
44978,79.0,0,119,2.0,0.0
44979,79.0,0,119,1.0,0.0
44980,50.0,0,59,15.0,0.0
44981,79.0,0,59,12.0,0.0
44982,76.0,60,59,13.0,0.0
44983,64.0,0,59,14.0,0.0
44984,67.0,0,59,14.0,0.0
44985,38.0,0,59,15.0,0.0
44986,81.0,0,119,1.0,0.0
44987,62.0,0,59,14.0,0.0
44988,45.0,0,59,15.0,0.0
44989,78.0,0,59,12.0,0.0
44990,78.0,0,119,1.0,0.0
44991,81.0,0,119,9.0,0.0
44992,33.0,0,119,3.0,0.0
44993,93.0,0,119,0.0,0.0
44994,81.0,0,119,5.0,0.0
44995,78.0,0,119,5.0,0.0
44996,66.0,0,119,3.0,0.0
44997,57.0,0,119,3.0,0.0
44998,45.0,0,119,7.0,0.0
44999,33.0,60,59,15.0,0.0
45000,66.0,0,59,14.0,0.0
45001,105.0,60,119,8.0,0.0
45002,74.0,0,59,13.0,0.0
45003,81.0,0,119,2.0,0.0
45004,69.0,0,119,4.0,0.0
45005,78.0,0,119,2.0,0.0
45006,66.0,0,119,4.0,0.0
45007,45.0,0,59,15.0,0.0
45008,64.0,0,59,14.0,0.0
45009,76.0,0,59,12.0,0.0
45010,73.0,0,59,13.0,0.0
45011,33.0,0,59,15.0,0.0
45012,61.0,0,59,14.0,0.0
45013,78.0,0,119,1.0,0.0
45014,50.0,0,59,15.0,0.0
45015,50.0,0,119,6.0,0.0
45016,66.0,0,119,4.0,0.0
45017,38.0,0,239,3.0,0.0
45018,74.0,0,59,13.0,0.0
45019,50.0,60,59,7.0,0.0
45020,38.0,0,59,15.0,0.0
45021,78.0,0,59,12.0,0.0
45022,81.0,0,119,1.0,0.0
45023,81.0,0,119,9.0,0.0
45024,93.0,0,119,0.0,0.0
45025,35.0,0,119,9.0,0.0
45026,49.0,0,119,9.0,0.0
45027,62.0,0,119,6.0,0.0
45028,69.0,0,119,4.0,0.0
45029,78.0,0,119,5.0,0.0
45030,105.0,0,119,8.0,0.0
45031,81.0,0,119,5.0,0.0
45032,66.0,0,119,3.0,0.0
45033,62.0,0,59,14.0,0.0
45034,66.0,0,59,14.0,0.0
45035,81.0,0,119,2.0,0.0
45036,78.0,0,119,2.0,0.0
45037,57.0,60,119,3.0,0.0
45038,78.0,0,59,12.0,0.0
45039,50.0,0,59,15.0,0.0
45040,74.0,0,59,13.0,0.0
45041,50.0,0,59,7.0,0.0
45042,62.0,0,59,14.0,0.0
45043,38.0,0,59,15.0,0.0
45044,66.0,0,59,14.0,0.0
45045,79.0,0,119,2.0,0.0
45046,79.0,0,59,12.0,0.0
45047,55.0,0,119,3.0,0.0
45048,67.0,0,59,14.0,0.0
45049,64.0,0,59,14.0,0.0
45050,103.0,0,119,8.0,0.0
45051,79.0,0,119,5.0,0.0
45052,76.0,0,119,5.0,0.0
45053,76.0,0,119,2.0,0.0
45054,81.0,0,119,9.0,0.0
45055,50.0,60,59,15.0,0.0
45056,79.0,0,119,1.0,0.0
45057,76.0,0,119,1.0,0.0
45058,64.0,0,119,4.0,0.0
45059,50.0,0,59,7.0,0.0
45060,38.0,0,59,15.0,0.0
45061,91.0,0,119,0.0,0.0
45062,67.0,0,119,4.0,0.0
45063,64.0,0,119,3.0,0.0
45064,76.0,0,59,13.0,0.0
45065,50.0,0,59,15.0,0.0
45066,81.0,60,59,12.0,0.0
45067,50.0,0,59,7.0,0.0
45068,78.0,0,59,13.0,0.0
45069,69.0,0,59,14.0,0.0
45070,66.0,0,59,14.0,0.0
45071,38.0,0,59,15.0,0.0
45072,54.0,0,119,3.0,0.0
45073,62.0,0,119,3.0,0.0
45074,69.0,0,59,14.0,0.0
45075,66.0,60,59,14.0,0.0
45076,74.0,0,119,1.0,0.0
45077,50.0,0,119,7.0,0.0
45078,78.0,0,119,1.0,0.0
45079,38.0,0,59,15.0,0.0
45080,90.0,0,119,0.0,0.0
45081,81.0,0,119,9.0,0.0
45082,102.0,0,119,8.0,0.0
45083,66.0,0,119,4.0,0.0
45084,81.0,0,59,12.0,0.0
45085,78.0,60,119,2.0,0.0
45086,78.0,0,59,13.0,0.0
45087,50.0,0,59,15.0,0.0
45088,74.0,0,119,2.0,0.0
45089,38.0,0,119,3.0,0.0
45090,78.0,0,119,5.0,0.0
45091,74.0,0,119,5.0,0.0
45092,62.0,0,119,4.0,0.0
45093,38.0,0,59,15.0,0.0
45094,50.0,0,59,15.0,0.0
45095,76.0,0,59,13.0,0.0
45096,79.0,0,59,12.0,0.0
45097,67.0,0,59,14.0,0.0
45098,64.0,0,59,14.0,0.0
45099,62.0,0,59,14.0,0.0
45100,90.0,0,59,0.0,0.0
45101,66.0,0,59,14.0,0.0
45102,54.0,0,59,3.0,0.0
45103,74.0,0,59,13.0,0.0
45104,74.0,0,59,2.0,0.0
45105,78.0,0,59,2.0,0.0
45106,33.0,0,119,3.0,0.0
45107,62.0,0,59,4.0,0.0
45108,33.0,0,59,15.0,0.0
45109,66.0,0,59,4.0,0.0
45110,62.0,0,59,3.0,0.0
45111,102.0,60,59,8.0,0.0
45112,78.0,0,59,12.0,0.0
45113,81.0,0,119,9.0,0.0
45114,74.0,0,59,1.0,0.0
45115,45.0,0,59,15.0,0.0
45116,74.0,0,59,5.0,0.0
45117,45.0,0,119,7.0,0.0
45118,78.0,0,59,5.0,0.0
45119,78.0,0,59,1.0,0.0
45120,69.0,0,59,5.0,0.0
45121,76.0,0,59,5.0,0.0
45122,73.0,0,59,13.0,0.0
45123,73.0,0,59,1.0,0.0
45124,76.0,0,59,1.0,0.0
45125,45.0,0,59,15.0,0.0
45126,52.0,0,59,3.0,0.0
45127,61.0,0,59,3.0,0.0
45128,76.0,0,59,12.0,0.0
45129,33.0,0,59,15.0,0.0
45130,88.0,0,59,0.0,0.0
45131,64.0,60,59,14.0,0.0
45132,61.0,0,59,14.0,0.0
45133,64.0,0,59,4.0,0.0
45134,57.0,0,59,4.0,0.0
45135,73.0,0,59,2.0,0.0
45136,100.0,0,59,8.0,0.0
45137,76.0,0,59,2.0,0.0
45138,38.0,0,59,15.0,0.0
45139,66.0,60,59,14.0,0.0
45140,62.0,0,119,6.0,0.0
45141,78.0,60,119,1.0,0.0
45142,90.0,0,119,0.0,0.0
45143,74.0,0,119,1.0,0.0
45144,62.0,0,119,4.0,0.0
45145,54.0,0,119,3.0,0.0
45146,78.0,0,59,12.0,0.0
45147,49.0,0,119,9.0,0.0
45148,35.0,0,119,9.0,0.0
45149,38.0,0,119,3.0,0.0
45150,81.0,0,119,9.0,0.0
45151,50.0,0,119,6.0,0.0
45152,74.0,0,59,13.0,0.0
45153,78.0,0,119,5.0,0.0
45154,62.0,0,59,14.0,0.0
45155,50.0,0,119,7.0,0.0
45156,50.0,0,59,15.0,0.0
45157,62.0,0,119,3.0,0.0
45158,66.0,0,119,4.0,0.0
45159,78.0,0,119,2.0,0.0
45160,74.0,0,119,2.0,0.0
45161,102.0,0,119,8.0,0.0
45162,74.0,0,119,5.0,0.0
45163,38.0,0,59,15.0,0.0
45164,50.0,0,59,15.0,0.0
45165,74.0,0,59,13.0,0.0
45166,78.0,0,59,12.0,0.0
45167,66.0,0,59,14.0,0.0
45168,62.0,0,59,14.0,0.0
45169,45.0,0,119,7.0,0.0
45170,33.0,0,119,3.0,0.0
45171,100.0,0,119,8.0,0.0
45172,61.0,0,119,3.0,0.0
45173,52.0,0,119,3.0,0.0
45174,45.0,60,59,15.0,0.0
45175,73.0,0,119,2.0,0.0
45176,64.0,0,59,14.0,0.0
45177,73.0,0,59,13.0,0.0
45178,61.0,0,59,14.0,0.0
45179,76.0,0,119,5.0,0.0
45180,76.0,0,119,1.0,0.0
45181,73.0,0,119,1.0,0.0
45182,69.0,60,119,5.0,0.0
45183,64.0,0,119,4.0,0.0
45184,57.0,0,119,4.0,0.0
45185,81.0,0,119,9.0,0.0
45186,88.0,0,119,0.0,0.0
45187,33.0,0,59,15.0,0.0
45188,76.0,0,59,12.0,0.0
45189,76.0,0,119,2.0,0.0
45190,61.0,0,59,14.0,0.0
45191,76.0,0,59,12.0,0.0
45192,45.0,0,59,15.0,0.0
45193,64.0,0,59,14.0,0.0
45194,73.0,0,59,13.0,0.0
45195,33.0,0,59,15.0,0.0
45196,54.0,0,119,3.0,0.0
45197,74.0,0,59,13.0,0.0
45198,74.0,0,119,2.0,0.0
45199,78.0,0,119,2.0,0.0
45200,50.0,0,59,15.0,0.0
45201,38.0,60,59,15.0,0.0
45202,78.0,0,59,12.0,0.0
45203,66.0,0,119,4.0,0.0
45204,74.0,0,119,1.0,0.0
45205,50.0,0,119,7.0,0.0
45206,62.0,0,119,3.0,0.0
45207,78.0,0,119,1.0,0.0
45208,62.0,0,59,14.0,0.0
45209,38.0,0,119,3.0,0.0
45210,102.0,0,119,8.0,0.0
45211,62.0,0,119,4.0,0.0
45212,66.0,0,59,14.0,0.0
45213,81.0,0,119,9.0,0.0
45214,90.0,0,119,0.0,0.0
45215,78.0,0,119,5.0,0.0
45216,74.0,0,119,5.0,0.0
45217,50.0,0,59,15.0,0.0
45218,74.0,0,59,13.0,0.0
45219,62.0,0,59,14.0,0.0
45220,66.0,0,59,14.0,0.0
45221,78.0,0,59,12.0,0.0
45222,38.0,0,59,15.0,0.0
45223,85.0,0,119,1.0,0.0
45224,85.0,0,119,0.0,0.0
45225,61.0,0,119,3.0,0.0
45226,52.0,0,119,3.0,0.0
45227,76.0,0,119,1.0,0.0
45228,76.0,0,59,13.0,0.0
45229,81.0,0,119,9.0,0.0
45230,85.0,0,59,12.0,0.0
45231,45.0,0,59,15.0,0.0
45232,69.0,0,119,5.0,0.0
45233,76.0,0,119,5.0,0.0
45234,64.0,0,119,2.0,0.0
45235,73.0,0,119,2.0,0.0
45236,57.0,0,119,4.0,0.0
45237,33.0,0,119,3.0,0.0
45238,64.0,0,119,4.0,0.0
45239,45.0,0,119,7.0,0.0
45240,33.0,60,59,15.0,0.0
45241,97.0,0,119,8.0,0.0
45242,64.0,0,59,14.0,0.0
45243,67.0,0,59,14.0,0.0
45244,45.0,0,59,15.0,0.0
45245,76.0,0,59,13.0,0.0
45246,33.0,0,59,15.0,0.0
45247,64.0,0,59,14.0,0.0
45248,67.0,0,59,14.0,0.0
45249,85.0,0,59,12.0,0.0
45250,66.0,0,59,14.0,0.0
45251,62.0,0,59,14.0,0.0
45252,50.0,0,119,7.0,0.0
45253,50.0,60,59,15.0,0.0
45254,78.0,0,119,1.0,0.0
45255,86.0,0,119,1.0,0.0
45256,35.0,60,119,9.0,0.0
45257,74.0,0,119,5.0,0.0
45258,38.0,0,59,15.0,0.0
45259,86.0,0,119,0.0,0.0
45260,50.0,0,119,6.0,0.0
45261,62.0,0,119,4.0,0.0
45262,54.0,0,119,4.0,0.0
45263,62.0,0,119,6.0,0.0
45264,98.0,0,119,8.0,0.0
45265,54.0,0,119,3.0,0.0
45266,62.0,0,119,3.0,0.0
45267,66.0,0,119,2.0,0.0
45268,74.0,0,119,2.0,0.0
45269,49.0,0,119,9.0,0.0
45270,81.0,0,119,9.0,0.0
45271,78.0,0,119,5.0,0.0
45272,86.0,0,59,12.0,0.0
45273,38.0,0,119,3.0,0.0
45274,78.0,0,59,13.0,0.0
45275,62.0,0,59,14.0,0.0
45276,38.0,0,59,15.0,0.0
45277,78.0,0,59,13.0,0.0
45278,86.0,0,59,12.0,0.0
45279,50.0,0,59,15.0,0.0
45280,66.0,0,59,14.0,0.0
45281,45.0,0,119,7.0,0.0
45282,64.0,0,59,14.0,0.0
45283,76.0,0,59,13.0,0.0
45284,85.0,0,59,12.0,0.0
45285,33.0,0,59,15.0,0.0
45286,61.0,60,59,14.0,0.0
45287,85.0,0,119,0.0,0.0
45288,81.0,0,119,9.0,0.0
45289,97.0,0,119,8.0,0.0
45290,61.0,0,119,3.0,0.0
45291,45.0,0,59,15.0,0.0
45292,52.0,0,119,3.0,0.0
45293,33.0,0,119,3.0,0.0
45294,73.0,0,119,2.0,0.0
45295,64.0,0,119,2.0,0.0
45296,85.0,0,119,1.0,0.0
45297,45.0,0,119,4.0,0.0
45298,69.0,0,119,5.0,0.0
45299,76.0,0,119,5.0,0.0
45300,57.0,0,119,4.0,0.0
45301,76.0,0,119,1.0,0.0
45302,33.0,0,59,15.0,0.0
45303,61.0,0,59,14.0,0.0
45304,76.0,0,59,13.0,0.0
45305,64.0,0,59,14.0,0.0
45306,45.0,0,59,15.0,0.0
45307,85.0,60,59,12.0,0.0
45308,50.0,0,59,15.0,0.0
45309,50.0,0,119,7.0,0.0
45310,38.0,60,59,15.0,0.0
45311,78.0,0,59,13.0,0.0
45312,86.0,0,59,12.0,0.0
45313,74.0,0,119,2.0,0.0
45314,81.0,0,119,9.0,0.0
45315,74.0,0,119,5.0,0.0
45316,66.0,60,119,2.0,0.0
45317,54.0,0,119,4.0,0.0
45318,62.0,0,119,4.0,0.0
45319,78.0,0,119,5.0,0.0
45320,98.0,0,119,8.0,0.0
45321,62.0,0,59,14.0,0.0
45322,86.0,0,119,0.0,0.0
45323,66.0,0,59,14.0,0.0
45324,62.0,0,119,3.0,0.0
45325,78.0,0,119,1.0,0.0
45326,86.0,0,119,1.0,0.0
45327,54.0,0,119,3.0,0.0
45328,38.0,0,119,3.0,0.0
45329,78.0,0,59,13.0,0.0
45330,50.0,0,59,15.0,0.0
45331,62.0,0,59,14.0,0.0
45332,38.0,0,59,15.0,0.0
45333,66.0,0,59,14.0,0.0
45334,86.0,0,59,12.0,0.0
45335,88.0,0,59,12.0,0.0
45336,69.0,0,119,5.0,0.0
45337,45.0,0,119,3.0,0.0
45338,85.0,0,59,13.0,0.0
45339,76.0,0,119,1.0,0.0
45340,85.0,0,119,1.0,0.0
45341,81.0,0,119,9.0,0.0
45342,45.0,0,59,15.0,0.0
45343,57.0,0,59,15.0,0.0
45344,45.0,0,119,7.0,0.0
45345,57.0,0,119,5.0,0.0
45346,57.0,0,119,4.0,0.0
45347,64.0,0,59,14.0,0.0
45348,73.0,0,119,2.0,0.0
45349,76.0,0,119,2.0,0.0
45350,64.0,0,119,3.0,0.0
45351,61.0,0,119,3.0,0.0
45352,88.0,0,119,0.0,0.0
45353,73.0,60,59,14.0,0.0
45354,64.0,0,119,4.0,0.0
45355,100.0,0,119,8.0,0.0
45356,73.0,0,59,14.0,0.0
45357,64.0,0,59,14.0,0.0
45358,85.0,0,59,13.0,0.0
45359,57.0,0,59,15.0,0.0
45360,45.0,0,59,15.0,0.0
45361,88.0,0,59,12.0,0.0
45362,90.0,0,59,12.0,0.0
45363,35.0,0,119,9.0,0.0
45364,50.0,0,119,3.0,0.0
45365,74.0,0,119,5.0,0.0
45366,62.0,0,119,5.0,0.0
45367,102.0,0,119,8.0,0.0
45368,62.0,60,59,15.0,0.0
45369,74.0,0,119,2.0,0.0
45370,78.0,0,119,2.0,0.0
45371,78.0,0,119,1.0,0.0
45372,86.0,0,119,1.0,0.0
45373,49.0,0,119,9.0,0.0
45374,74.0,0,59,14.0,0.0
45375,50.0,0,59,15.0,0.0
45376,86.0,0,59,13.0,0.0
45377,50.0,0,119,6.0,0.0
45378,50.0,0,119,7.0,0.0
45379,62.0,0,119,4.0,0.0
45380,66.0,0,119,4.0,0.0
45381,62.0,0,119,3.0,0.0
45382,66.0,0,119,3.0,0.0
45383,62.0,0,119,6.0,0.0
45384,81.0,0,119,9.0,0.0
45385,90.0,0,119,0.0,0.0
45386,66.0,0,59,14.0,0.0
45387,62.0,0,59,15.0,0.0
45388,90.0,60,59,12.0,0.0
45389,50.0,0,59,15.0,0.0
45390,74.0,0,59,14.0,0.0
45391,66.0,0,59,14.0,0.0
45392,86.0,0,59,13.0,0.0
45393,100.0,0,119,8.0,0.0
45394,85.0,0,59,13.0,0.0
45395,64.0,0,59,14.0,0.0
45396,57.0,0,119,5.0,0.0
45397,69.0,0,119,5.0,0.0
45398,57.0,0,59,15.0,0.0
45399,76.0,0,119,2.0,0.0
45400,76.0,0,119,1.0,0.0
45401,85.0,0,119,1.0,0.0
45402,45.0,0,119,7.0,0.0
45403,73.0,60,59,14.0,0.0
45404,88.0,0,119,0.0,0.0
45405,73.0,0,119,2.0,0.0
45406,45.0,0,59,15.0,0.0
45407,81.0,0,119,9.0,0.0
45408,88.0,0,59,12.0,0.0
45409,64.0,0,119,3.0,0.0
45410,61.0,0,119,3.0,0.0
45411,45.0,60,119,3.0,0.0
45412,64.0,0,119,4.0,0.0
45413,57.0,0,119,4.0,0.0
45414,85.0,0,59,13.0,0.0
45415,57.0,0,59,15.0,0.0
45416,88.0,0,59,12.0,0.0
45417,45.0,0,59,15.0,0.0
45418,73.0,0,59,14.0,0.0
45419,64.0,0,59,14.0,0.0
45420,62.0,60,59,15.0,0.0
45421,74.0,0,59,14.0,0.0
45422,86.0,0,119,1.0,0.0
45423,66.0,0,59,14.0,0.0
45424,78.0,0,119,1.0,0.0
45425,78.0,0,119,2.0,0.0
45426,62.0,0,119,4.0,0.0
45427,90.0,60,119,0.0,0.0
45428,66.0,0,119,3.0,0.0
45429,62.0,0,119,3.0,0.0
45430,74.0,0,119,2.0,0.0
45431,74.0,0,119,5.0,0.0
45432,62.0,0,119,5.0,0.0
45433,86.0,0,59,13.0,0.0
45434,66.0,0,119,4.0,0.0
45435,102.0,0,119,8.0,0.0
45436,81.0,0,119,9.0,0.0
45437,50.0,0,59,15.0,0.0
45438,90.0,0,59,12.0,0.0
45439,50.0,0,119,3.0,0.0
45440,50.0,0,119,7.0,0.0
45441,50.0,0,59,15.0,0.0
45442,66.0,0,59,14.0,0.0
45443,74.0,0,59,14.0,0.0
45444,86.0,0,59,13.0,0.0
45445,62.0,0,59,15.0,0.0
45446,90.0,0,59,12.0,0.0
45447,81.0,0,119,9.0,0.0
45448,52.0,0,119,3.0,0.0
45449,76.0,0,119,2.0,0.0
45450,45.0,0,59,15.0,0.0
45451,91.0,0,119,0.0,0.0
45452,64.0,0,119,4.0,0.0
45453,88.0,0,59,13.0,0.0
45454,55.0,0,119,3.0,0.0
45455,57.0,0,119,5.0,0.0
45456,45.0,0,119,7.0,0.0
45457,57.0,0,59,15.0,0.0
45458,79.0,0,119,2.0,0.0
45459,67.0,0,59,14.0,0.0
45460,79.0,0,119,1.0,0.0
45461,103.0,0,119,8.0,0.0
45462,45.0,0,119,3.0,0.0
45463,76.0,0,59,14.0,0.0
45464,91.0,60,59,12.0,0.0
45465,69.0,0,119,5.0,0.0
45466,76.0,60,119,1.0,0.0
45467,67.0,0,119,4.0,0.0
45468,45.0,0,59,15.0,0.0
45469,91.0,0,59,12.0,0.0
45470,88.0,0,59,13.0,0.0
45471,76.0,0,59,14.0,0.0
45472,67.0,0,59,14.0,0.0
45473,57.0,0,59,15.0,0.0
45474,49.0,0,119,9.0,0.0
45475,50.0,60,59,7.0,0.0
45476,50.0,0,59,15.0,0.0
45477,79.0,0,119,1.0,0.0
45478,76.0,0,119,1.0,0.0
45479,88.0,0,59,13.0,0.0
45480,35.0,0,119,9.0,0.0
45481,62.0,0,59,15.0,0.0
45482,62.0,0,119,6.0,0.0
45483,103.0,0,119,8.0,0.0
45484,91.0,0,59,12.0,0.0
45485,67.0,0,119,4.0,0.0
45486,81.0,0,119,9.0,0.0
45487,50.0,0,119,3.0,0.0
45488,76.0,0,119,2.0,0.0
45489,64.0,0,119,4.0,0.0
45490,79.0,0,119,2.0,0.0
45491,74.0,0,119,5.0,0.0
45492,62.0,0,119,5.0,0.0
45493,67.0,0,59,14.0,0.0
45494,76.0,0,59,14.0,0.0
45495,91.0,60,119,0.0,0.0
45496,50.0,0,119,6.0,0.0
45497,55.0,0,119,3.0,0.0
45498,52.0,0,119,3.0,0.0
45499,50.0,0,59,15.0,0.0
45500,91.0,0,59,12.0,0.0
45501,50.0,0,59,7.0,0.0
45502,76.0,0,59,14.0,0.0
45503,67.0,0,59,14.0,0.0
45504,62.0,0,59,15.0,0.0
45505,88.0,0,59,13.0,0.0
45506,74.0,0,119,2.0,0.0
45507,78.0,0,119,2.0,0.0
45508,66.0,0,119,4.0,0.0
45509,81.0,0,119,9.0,0.0
45510,66.0,0,59,14.0,0.0
45511,86.0,0,59,13.0,0.0
45512,50.0,0,59,15.0,0.0
45513,102.0,0,119,8.0,0.0
45514,50.0,0,59,7.0,0.0
45515,54.0,0,119,3.0,0.0
45516,90.0,0,59,12.0,0.0
45517,74.0,0,59,14.0,0.0
45518,90.0,0,119,0.0,0.0
45519,50.0,0,119,3.0,0.0
45520,62.0,60,59,15.0,0.0
45521,74.0,0,119,1.0,0.0
45522,78.0,0,119,1.0,0.0
45523,74.0,0,119,5.0,0.0
45524,62.0,0,119,5.0,0.0
45525,62.0,0,119,4.0,0.0
45526,62.0,0,59,15.0,0.0
45527,86.0,0,59,13.0,0.0
45528,50.0,0,59,15.0,0.0
45529,90.0,0,59,12.0,0.0
45530,74.0,0,59,14.0,0.0
45531,50.0,0,59,7.0,0.0
45532,66.0,0,59,14.0,0.0
45533,79.0,60,59,13.0,0.0
45534,76.0,0,119,1.0,0.0
45535,67.0,0,59,14.0,0.0
45536,55.0,0,119,3.0,0.0
45537,52.0,0,119,3.0,0.0
45538,91.0,0,119,0.0,0.0
45539,50.0,0,119,3.0,0.0
45540,91.0,0,59,12.0,0.0
45541,62.0,0,59,15.0,0.0
45542,76.0,0,59,14.0,0.0
45543,103.0,0,119,8.0,0.0
45544,50.0,0,59,15.0,0.0
45545,62.0,0,119,5.0,0.0
45546,74.0,0,119,5.0,0.0
45547,81.0,0,119,9.0,0.0
45548,79.0,0,119,2.0,0.0
45549,67.0,0,119,4.0,0.0
45550,76.0,0,119,2.0,0.0
45551,79.0,0,119,1.0,0.0
45552,50.0,0,59,7.0,0.0
45553,64.0,0,119,4.0,0.0
45554,67.0,0,59,14.0,0.0
45555,91.0,0,59,12.0,0.0
45556,76.0,0,59,14.0,0.0
45557,79.0,0,59,13.0,0.0
45558,50.0,0,59,15.0,0.0
45559,50.0,60,59,7.0,0.0
45560,62.0,0,59,15.0,0.0
45561,54.0,0,119,3.0,0.0
45562,57.0,0,119,3.0,0.0
45563,69.0,0,59,14.0,0.0
45564,78.0,0,59,14.0,0.0
45565,78.0,0,119,2.0,0.0
45566,81.0,0,119,2.0,0.0
45567,93.0,0,59,12.0,0.0
45568,105.0,0,119,8.0,0.0
45569,74.0,0,119,5.0,0.0
45570,50.0,0,59,7.0,0.0
45571,62.0,0,59,15.0,0.0
45572,78.0,0,119,1.0,0.0
45573,93.0,0,119,0.0,0.0
45574,81.0,0,59,13.0,0.0
45575,62.0,0,119,5.0,0.0
45576,50.0,60,59,15.0,0.0
45577,81.0,0,119,9.0,0.0
45578,69.0,0,119,4.0,0.0
45579,50.0,0,119,3.0,0.0
45580,66.0,0,119,4.0,0.0
45581,81.0,0,119,1.0,0.0
45582,93.0,0,59,12.0,0.0
45583,69.0,0,59,14.0,0.0
45584,78.0,0,59,14.0,0.0
45585,62.0,0,59,15.0,0.0
45586,50.0,0,59,7.0,0.0
45587,81.0,0,59,13.0,0.0
45588,50.0,0,59,15.0,0.0
45589,78.0,0,119,14.0,0.0
45590,69.0,60,119,14.0,0.0
45591,74.0,0,119,5.0,0.0
45592,105.0,0,119,8.0,0.0
45593,57.0,0,119,3.0,0.0
45594,93.0,0,119,0.0,0.0
45595,90.0,0,119,0.0,0.0
45596,50.0,0,119,3.0,0.0
45597,81.0,0,119,13.0,0.0
45598,50.0,0,119,7.0,0.0
45599,62.0,0,119,5.0,0.0
45600,62.0,0,119,6.0,0.0
45601,50.0,0,119,15.0,0.0
45602,66.0,0,119,6.0,0.0
45603,62.0,0,119,15.0,0.0
45604,69.0,0,119,6.0,0.0
45605,93.0,0,119,12.0,0.0
45606,49.0,0,119,9.0,0.0
45607,35.0,0,119,9.0,0.0
45608,81.0,0,119,1.0,0.0
45609,78.0,0,119,1.0,0.0
45610,69.0,0,119,4.0,0.0
45611,66.0,0,119,4.0,0.0
45612,81.0,0,119,9.0,0.0
45613,66.0,0,119,3.0,0.0
45614,81.0,0,119,2.0,0.0
45615,78.0,0,119,2.0,0.0
45616,57.0,0,59,3.0,0.0
45617,78.0,0,59,2.0,0.0
45618,69.0,0,59,2.0,0.0
45619,78.0,0,59,1.0,0.0
45620,69.0,0,59,1.0,0.0
45621,66.0,0,59,4.0,0.0
45622,62.0,0,59,4.0,0.0
45623,69.0,0,59,12.0,0.0
45624,54.0,0,59,3.0,0.0
45625,50.0,0,59,15.0,0.0
45626,50.0,0,59,7.0,0.0
45627,69.0,0,59,14.0,0.0
45628,66.0,0,59,14.0,0.0
45629,38.0,0,59,15.0,0.0
45630,69.0,0,59,13.0,0.0
45631,38.0,0,59,3.0,0.0
45632,90.0,0,59,0.0,0.0
45633,81.0,0,59,0.0,0.0
45634,102.0,0,59,8.0,0.0
45635,66.0,0,119,3.0,0.0
45636,81.0,0,119,1.0,0.0
45637,69.0,0,119,14.0,0.0
45638,50.0,0,119,3.0,0.0
45639,78.0,0,119,14.0,0.0
45640,74.0,0,119,5.0,0.0
45641,62.0,0,119,5.0,0.0
45642,78.0,0,119,1.0,0.0
45643,57.0,0,119,3.0,0.0
45644,93.0,0,119,12.0,0.0
45645,81.0,0,119,2.0,0.0
45646,50.0,0,119,15.0,0.0
45647,62.0,0,119,15.0,0.0
45648,81.0,0,119,13.0,0.0
45649,93.0,0,119,0.0,0.0
45650,90.0,0,119,0.0,0.0
45651,105.0,0,119,8.0,0.0
45652,50.0,0,119,7.0,0.0
45653,78.0,0,119,2.0,0.0
45654,69.0,0,119,4.0,0.0
45655,81.0,0,119,9.0,0.0
45656,35.0,0,119,9.0,0.0
45657,66.0,0,119,4.0,0.0
45658,49.0,0,119,9.0,0.0
45659,69.0,0,59,2.0,0.0
45660,78.0,0,59,2.0,0.0
45661,81.0,0,59,0.0,0.0
45662,54.0,0,59,3.0,0.0
45663,78.0,0,59,1.0,0.0
45664,62.0,0,59,4.0,0.0
45665,69.0,0,59,1.0,0.0
45666,69.0,0,59,14.0,0.0
45667,69.0,180,59,13.0,0.0
45668,66.0,0,59,14.0,0.0
45669,38.0,0,59,15.0,0.0
45670,90.0,0,59,0.0,0.0
45671,57.0,0,59,3.0,0.0
45672,66.0,0,59,4.0,0.0
45673,50.0,0,59,15.0,0.0
45674,102.0,0,59,8.0,0.0
45675,50.0,0,59,7.0,0.0
45676,69.0,0,59,12.0,0.0
45677,38.0,0,59,3.0,0.0
45678,78.0,0,119,1.0,0.0
45679,81.0,0,119,1.0,0.0
45680,62.0,0,119,15.0,0.0
45681,62.0,0,119,6.0,0.0
45682,50.0,0,119,7.0,0.0
45683,57.0,0,119,3.0,0.0
45684,66.0,0,119,3.0,0.0
45685,93.0,0,119,0.0,0.0
45686,90.0,0,119,0.0,0.0
45687,62.0,0,119,5.0,0.0
45688,66.0,0,119,6.0,0.0
45689,49.0,0,119,9.0,0.0
45690,81.0,0,119,13.0,0.0
45691,81.0,60,119,9.0,0.0
45692,35.0,0,119,9.0,0.0
45693,50.0,0,119,15.0,0.0
45694,69.0,0,119,14.0,0.0
45695,78.0,0,119,14.0,0.0
45696,93.0,0,119,12.0,0.0
45697,81.0,0,119,2.0,0.0
45698,105.0,0,119,8.0,0.0
45699,69.0,0,119,4.0,0.0
45700,78.0,0,119,2.0,0.0
45701,66.0,0,119,4.0,0.0
45702,69.0,0,119,6.0,0.0
45703,74.0,0,119,5.0,0.0
45704,50.0,0,119,3.0,0.0
45705,90.0,0,59,0.0,0.0
45706,78.0,0,59,2.0,0.0
45707,69.0,0,59,2.0,0.0
45708,57.0,0,59,3.0,0.0
45709,54.0,0,59,3.0,0.0
45710,81.0,0,59,0.0,0.0
45711,62.0,0,59,4.0,0.0
45712,66.0,0,59,4.0,0.0
45713,50.0,180,59,15.0,0.0
45714,69.0,0,59,1.0,0.0
45715,78.0,0,59,1.0,0.0
45716,69.0,0,59,13.0,0.0
45717,66.0,0,59,14.0,0.0
45718,69.0,0,59,14.0,0.0
45719,69.0,0,59,12.0,0.0
45720,50.0,0,59,7.0,0.0
45721,38.0,0,59,15.0,0.0
45722,38.0,0,59,3.0,0.0
45723,102.0,0,59,8.0,0.0
45724,105.0,0,119,8.0,0.0
45725,35.0,0,119,9.0,0.0
45726,81.0,0,119,13.0,0.0
45727,81.0,0,119,9.0,0.0
45728,93.0,0,119,12.0,0.0
45729,49.0,0,119,9.0,0.0
45730,50.0,0,119,7.0,0.0
45731,81.0,0,119,1.0,0.0
45732,66.0,0,119,4.0,0.0
45733,50.0,60,119,3.0,0.0
45734,62.0,0,119,5.0,0.0
45735,69.0,0,119,4.0,0.0
45736,50.0,0,119,15.0,0.0
45737,62.0,0,119,15.0,0.0
45738,90.0,0,119,0.0,0.0
45739,93.0,0,119,0.0,0.0
45740,78.0,0,119,2.0,0.0
45741,81.0,0,119,2.0,0.0
45742,78.0,0,119,14.0,0.0
45743,69.0,0,119,14.0,0.0
45744,57.0,0,119,3.0,0.0
45745,66.0,0,119,3.0,0.0
45746,78.0,0,119,1.0,0.0
45747,74.0,0,119,5.0,0.0
45748,50.0,0,59,7.0,0.0
45749,38.0,0,59,3.0,0.0
45750,69.0,0,59,2.0,0.0
45751,78.0,0,59,2.0,0.0
45752,38.0,0,59,15.0,0.0
45753,50.0,180,59,15.0,0.0
45754,66.0,0,59,14.0,0.0
45755,69.0,0,59,14.0,0.0
45756,78.0,0,59,1.0,0.0
45757,69.0,0,59,1.0,0.0
45758,66.0,0,59,4.0,0.0
45759,69.0,0,59,13.0,0.0
45760,62.0,0,59,4.0,0.0
45761,81.0,0,59,0.0,0.0
45762,102.0,0,59,8.0,0.0
45763,57.0,0,59,3.0,0.0
45764,90.0,0,59,0.0,0.0
45765,54.0,0,59,3.0,0.0
45766,69.0,0,59,12.0,0.0
45767,49.0,60,119,9.0,0.0
45768,90.0,0,119,0.0,0.0
45769,35.0,0,119,9.0,0.0
45770,78.0,0,119,1.0,0.0
45771,57.0,0,119,3.0,0.0
45772,81.0,0,119,9.0,0.0
45773,105.0,0,119,8.0,0.0
45774,62.0,0,119,15.0,0.0
45775,50.0,0,119,15.0,0.0
45776,69.0,0,119,4.0,0.0
45777,50.0,0,119,7.0,0.0
45778,81.0,0,119,2.0,0.0
45779,78.0,0,119,2.0,0.0
45780,69.0,0,119,14.0,0.0
45781,78.0,0,119,14.0,0.0
45782,50.0,0,119,3.0,0.0
45783,69.0,0,119,6.0,0.0
45784,62.0,0,119,6.0,0.0
45785,81.0,0,119,1.0,0.0
45786,93.0,0,119,12.0,0.0
45787,66.0,0,119,6.0,0.0
45788,74.0,0,119,5.0,0.0
45789,62.0,0,119,5.0,0.0
45790,93.0,0,119,0.0,0.0
45791,66.0,0,119,4.0,0.0
45792,66.0,0,119,3.0,0.0
45793,81.0,0,119,13.0,0.0
45794,90.0,0,59,0.0,0.0
45795,69.0,0,59,12.0,0.0
45796,81.0,0,59,0.0,0.0
45797,78.0,0,59,2.0,0.0
45798,57.0,0,59,3.0,0.0
45799,66.0,0,59,14.0,0.0
45800,69.0,0,59,14.0,0.0
45801,69.0,0,59,2.0,0.0
45802,69.0,0,59,13.0,0.0
45803,78.0,0,59,1.0,0.0
45804,69.0,0,59,1.0,0.0
45805,38.0,0,59,3.0,0.0
45806,102.0,0,59,8.0,0.0
45807,50.0,0,59,7.0,0.0
45808,50.0,180,59,15.0,0.0
45809,62.0,0,59,4.0,0.0
45810,54.0,0,59,3.0,0.0
45811,38.0,0,59,15.0,0.0
45812,66.0,0,59,4.0,0.0
45813,93.0,0,119,0.0,0.0
45814,90.0,0,119,0.0,0.0
45815,66.0,0,119,3.0,0.0
45816,35.0,0,119,9.0,0.0
45817,49.0,0,119,9.0,0.0
45818,50.0,0,119,15.0,0.0
45819,81.0,0,119,9.0,0.0
45820,93.0,0,119,12.0,0.0
45821,62.0,0,119,5.0,0.0
45822,50.0,0,119,3.0,0.0
45823,57.0,0,119,3.0,0.0
45824,74.0,0,119,5.0,0.0
45825,62.0,0,119,15.0,0.0
45826,69.0,0,119,4.0,0.0
45827,66.0,0,119,4.0,0.0
45828,50.0,0,119,7.0,0.0
45829,81.0,0,119,13.0,0.0
45830,105.0,0,119,8.0,0.0
45831,81.0,0,119,1.0,0.0
45832,78.0,0,119,1.0,0.0
45833,78.0,0,119,14.0,0.0
45834,69.0,0,119,14.0,0.0
45835,78.0,60,119,2.0,0.0
45836,81.0,0,119,2.0,0.0
45837,102.0,0,59,8.0,0.0
45838,69.0,0,59,12.0,0.0
45839,78.0,0,59,1.0,0.0
45840,69.0,0,59,2.0,0.0
45841,78.0,0,59,2.0,0.0
45842,66.0,0,59,14.0,0.0
45843,38.0,180,59,15.0,0.0
45844,69.0,0,59,1.0,0.0
45845,69.0,0,59,14.0,0.0
45846,90.0,0,59,0.0,0.0
45847,69.0,0,59,13.0,0.0
45848,57.0,0,59,3.0,0.0
45849,62.0,0,59,4.0,0.0
45850,66.0,0,59,4.0,0.0
45851,38.0,0,59,3.0,0.0
45852,54.0,0,59,3.0,0.0
45853,50.0,0,59,15.0,0.0
45854,50.0,0,59,7.0,0.0
45855,81.0,0,59,0.0,0.0
45856,81.0,0,119,2.0,0.0
45857,93.0,0,119,12.0,0.0
45858,69.0,60,119,14.0,0.0
45859,78.0,0,119,14.0,0.0
45860,105.0,0,119,8.0,0.0
45861,66.0,0,119,4.0,0.0
45862,66.0,0,119,3.0,0.0
45863,78.0,0,119,2.0,0.0
45864,93.0,0,119,0.0,0.0
45865,90.0,0,119,0.0,0.0
45866,50.0,0,119,3.0,0.0
45867,57.0,0,119,3.0,0.0
45868,81.0,0,119,9.0,0.0
45869,35.0,0,119,9.0,0.0
45870,69.0,0,119,4.0,0.0
45871,50.0,0,119,15.0,0.0
45872,49.0,0,119,9.0,0.0
45873,69.0,0,119,6.0,0.0
45874,50.0,0,119,7.0,0.0
45875,81.0,0,119,1.0,0.0
45876,62.0,0,119,15.0,0.0
45877,62.0,0,119,6.0,0.0
45878,62.0,0,119,5.0,0.0
45879,81.0,0,119,13.0,0.0
45880,66.0,0,119,6.0,0.0
45881,74.0,0,119,5.0,0.0
45882,78.0,0,119,1.0,0.0
45883,57.0,0,59,3.0,0.0
45884,69.0,0,59,2.0,0.0
45885,50.0,0,59,7.0,0.0
45886,90.0,0,59,0.0,0.0
45887,38.0,0,59,3.0,0.0
45888,50.0,0,59,15.0,0.0
45889,38.0,0,59,15.0,0.0
45890,78.0,0,59,1.0,0.0
45891,81.0,0,59,0.0,0.0
45892,78.0,0,59,2.0,0.0
45893,102.0,0,59,8.0,0.0
45894,69.0,0,59,12.0,0.0
45895,54.0,0,59,3.0,0.0
45896,62.0,0,59,4.0,0.0
45897,69.0,180,59,14.0,0.0
45898,69.0,0,59,1.0,0.0
45899,66.0,0,59,4.0,0.0
45900,69.0,0,59,13.0,0.0
45901,66.0,0,59,14.0,0.0
45902,93.0,0,119,0.0,0.0
45903,81.0,0,119,2.0,0.0
45904,78.0,0,119,2.0,0.0
45905,93.0,0,119,12.0,0.0
45906,50.0,0,119,15.0,0.0
45907,62.0,0,119,15.0,0.0
45908,78.0,0,119,14.0,0.0
45909,69.0,0,119,14.0,0.0
45910,74.0,0,119,5.0,0.0
45911,62.0,0,119,5.0,0.0
45912,50.0,0,119,3.0,0.0
45913,81.0,0,119,13.0,0.0
45914,50.0,0,119,7.0,0.0
45915,81.0,0,119,1.0,0.0
45916,78.0,0,119,1.0,0.0
45917,90.0,0,119,0.0,0.0
45918,81.0,0,119,9.0,0.0
45919,69.0,0,119,4.0,0.0
45920,66.0,0,119,4.0,0.0
45921,105.0,0,119,8.0,0.0
45922,49.0,0,119,9.0,0.0
45923,35.0,0,119,9.0,0.0
45924,66.0,0,119,3.0,0.0
45925,57.0,0,119,3.0,0.0
45926,38.0,0,59,3.0,0.0
45927,81.0,0,59,0.0,0.0
45928,50.0,0,59,7.0,0.0
45929,90.0,0,59,0.0,0.0
45930,57.0,0,59,3.0,0.0
45931,78.0,0,59,1.0,0.0
45932,54.0,120,59,3.0,0.0
45933,69.0,0,59,14.0,0.0
45934,69.0,0,59,13.0,0.0
45935,69.0,0,59,1.0,0.0
45936,66.0,0,59,14.0,0.0
45937,102.0,0,59,8.0,0.0
45938,38.0,0,59,15.0,0.0
45939,69.0,0,59,12.0,0.0
45940,78.0,0,59,2.0,0.0
45941,69.0,0,59,2.0,0.0
45942,62.0,0,59,4.0,0.0
45943,50.0,0,59,15.0,0.0
45944,66.0,0,59,4.0,0.0
45945,81.0,0,119,2.0,0.0
45946,78.0,0,119,2.0,0.0
45947,93.0,0,59,12.0,0.0
45948,50.0,0,59,15.0,0.0
45949,50.0,60,59,7.0,0.0
45950,62.0,60,119,6.0,0.0
45951,50.0,0,119,3.0,0.0
45952,69.0,0,59,14.0,0.0
45953,78.0,0,59,14.0,0.0
45954,93.0,0,119,0.0,0.0
45955,66.0,0,119,6.0,0.0
45956,69.0,0,119,6.0,0.0
45957,62.0,0,59,15.0,0.0
45958,74.0,0,119,5.0,0.0
45959,90.0,0,119,0.0,0.0
45960,62.0,0,119,5.0,0.0
45961,57.0,0,119,3.0,0.0
45962,69.0,0,119,4.0,0.0
45963,66.0,0,119,3.0,0.0
45964,81.0,0,119,1.0,0.0
45965,35.0,0,119,9.0,0.0
45966,49.0,0,119,9.0,0.0
45967,81.0,0,119,9.0,0.0
45968,81.0,0,59,13.0,0.0
45969,105.0,0,119,8.0,0.0
45970,78.0,0,119,1.0,0.0
45971,66.0,0,119,4.0,0.0
45972,50.0,0,59,15.0,0.0
45973,62.0,0,59,15.0,0.0
45974,50.0,0,59,7.0,0.0
45975,81.0,0,59,13.0,0.0
45976,69.0,0,59,14.0,0.0
45977,78.0,0,59,14.0,0.0
45978,93.0,0,59,12.0,0.0
45979,69.0,0,59,13.0,0.0
45980,69.0,60,59,12.0,0.0
45981,69.0,0,59,1.0,0.0
45982,62.0,0,119,5.0,0.0
45983,50.0,0,59,15.0,0.0
45984,78.0,0,59,2.0,0.0
45985,69.0,0,59,2.0,0.0
45986,66.0,0,59,14.0,0.0
45987,81.0,0,59,0.0,0.0
45988,90.0,0,59,0.0,0.0
45989,50.0,0,59,7.0,0.0
45990,69.0,0,59,14.0,0.0
45991,62.0,0,59,12.0,0.0
45992,62.0,0,59,13.0,0.0
45993,74.0,0,119,5.0,0.0
45994,78.0,0,59,1.0,0.0
45995,102.0,0,59,8.0,0.0
45996,57.0,0,59,3.0,0.0
45997,62.0,0,59,4.0,0.0
45998,38.0,0,59,3.0,0.0
45999,38.0,0,59,15.0,0.0
46000,54.0,0,59,3.0,0.0
46001,66.0,0,59,4.0,0.0
46002,50.0,0,59,15.0,0.0
46003,62.0,0,59,13.0,0.0
46004,69.0,0,59,13.0,0.0
46005,50.0,0,59,7.0,0.0
46006,38.0,0,59,15.0,0.0
46007,69.0,0,59,12.0,0.0
46008,69.0,0,59,14.0,0.0
46009,66.0,60,59,14.0,0.0
46010,62.0,0,59,12.0,0.0
46011,66.0,0,119,3.0,0.0
46012,50.0,0,119,3.0,0.0
46013,62.0,0,59,15.0,0.0
46014,62.0,0,119,5.0,0.0
46015,81.0,0,59,13.0,0.0
46016,66.0,0,119,4.0,0.0
46017,69.0,0,119,4.0,0.0
46018,57.0,0,119,3.0,0.0
46019,50.0,0,59,7.0,0.0
46020,74.0,0,119,5.0,0.0
46021,90.0,0,119,0.0,0.0
46022,49.0,0,119,9.0,0.0
46023,81.0,0,119,2.0,0.0
46024,78.0,0,119,2.0,0.0
46025,50.0,0,59,15.0,0.0
46026,35.0,0,119,9.0,0.0
46027,81.0,0,119,9.0,0.0
46028,93.0,0,59,12.0,0.0
46029,81.0,0,119,1.0,0.0
46030,78.0,0,119,1.0,0.0
46031,105.0,0,119,8.0,0.0
46032,93.0,0,119,0.0,0.0
46033,69.0,60,59,14.0,0.0
46034,78.0,0,59,14.0,0.0
46035,93.0,0,59,12.0,0.0
46036,50.0,0,59,7.0,0.0
46037,50.0,0,59,15.0,0.0
46038,81.0,60,59,13.0,0.0
46039,69.0,0,59,14.0,0.0
46040,78.0,0,59,14.0,0.0
46041,62.0,0,59,15.0,0.0
46042,38.0,0,59,15.0,0.0
46043,54.0,0,59,3.0,0.0
46044,69.0,0,59,14.0,0.0
46045,62.0,0,59,12.0,0.0
46046,57.0,0,59,3.0,0.0
46047,66.0,0,59,14.0,0.0
46048,62.0,0,59,13.0,0.0
46049,74.0,0,119,5.0,0.0
46050,69.0,0,59,12.0,0.0
46051,90.0,0,59,0.0,0.0
46052,81.0,0,59,0.0,0.0
46053,62.0,0,59,4.0,0.0
46054,66.0,0,59,4.0,0.0
46055,69.0,0,59,1.0,0.0
46056,78.0,0,59,1.0,0.0
46057,50.0,0,59,7.0,0.0
46058,69.0,0,59,13.0,0.0
46059,78.0,0,59,2.0,0.0
46060,69.0,0,59,2.0,0.0
46061,38.0,60,59,3.0,0.0
46062,62.0,0,119,5.0,0.0
46063,50.0,0,59,15.0,0.0
46064,102.0,0,59,8.0,0.0
46065,69.0,0,59,12.0,0.0
46066,38.0,0,59,15.0,0.0
46067,66.0,0,59,14.0,0.0
46068,50.0,0,59,15.0,0.0
46069,50.0,0,59,7.0,0.0
46070,62.0,0,59,12.0,0.0
46071,69.0,0,59,14.0,0.0
46072,69.0,0,59,13.0,0.0
46073,62.0,60,59,13.0,0.0
46074,50.0,0,59,7.0,0.0
46075,90.0,0,119,0.0,0.0
46076,66.0,60,119,3.0,0.0
46077,93.0,0,119,0.0,0.0
46078,66.0,0,119,6.0,0.0
46079,49.0,0,119,9.0,0.0
46080,35.0,0,119,9.0,0.0
46081,81.0,0,119,9.0,0.0
46082,69.0,0,119,6.0,0.0
46083,78.0,0,119,1.0,0.0
46084,105.0,0,119,8.0,0.0
46085,93.0,60,59,12.0,0.0
46086,57.0,0,119,3.0,0.0
46087,74.0,0,119,5.0,0.0
46088,62.0,0,119,5.0,0.0
46089,78.0,0,59,14.0,0.0
46090,69.0,0,59,14.0,0.0
46091,50.0,0,119,3.0,0.0
46092,81.0,0,59,13.0,0.0
46093,62.0,0,59,15.0,0.0
46094,81.0,0,119,1.0,0.0
46095,78.0,0,119,2.0,0.0
46096,81.0,0,119,2.0,0.0
46097,50.0,0,59,15.0,0.0
46098,66.0,0,119,4.0,0.0
46099,62.0,0,119,6.0,0.0
46100,69.0,0,119,4.0,0.0
46101,81.0,0,59,13.0,0.0
46102,50.0,0,59,7.0,0.0
46103,62.0,0,59,15.0,0.0
46104,93.0,0,59,12.0,0.0
46105,69.0,0,59,14.0,0.0
46106,78.0,0,59,14.0,0.0
46107,50.0,0,59,15.0,0.0
46108,38.0,0,59,15.0,0.0
46109,69.0,0,59,14.0,0.0
46110,62.0,0,59,12.0,0.0
46111,66.0,0,59,14.0,0.0
46112,90.0,60,59,0.0,0.0
46113,50.0,0,59,7.0,0.0
46114,78.0,0,59,1.0,0.0
46115,69.0,0,59,1.0,0.0
46116,62.0,0,119,5.0,0.0
46117,102.0,0,59,8.0,0.0
46118,38.0,0,59,3.0,0.0
46119,78.0,0,59,2.0,0.0
46120,69.0,0,59,2.0,0.0
46121,81.0,0,59,0.0,0.0
46122,54.0,0,59,3.0,0.0
46123,69.0,0,59,12.0,0.0
46124,50.0,0,59,15.0,0.0
46125,62.0,0,59,4.0,0.0
46126,66.0,0,59,4.0,0.0
46127,57.0,0,59,3.0,0.0
46128,69.0,0,59,13.0,0.0
46129,62.0,0,59,13.0,0.0
46130,74.0,0,119,5.0,0.0
46131,69.0,0,59,12.0,0.0
46132,66.0,0,59,14.0,0.0
46133,50.0,0,59,7.0,0.0
46134,50.0,0,59,15.0,0.0
46135,62.0,60,59,13.0,0.0
46136,69.0,0,59,14.0,0.0
46137,69.0,0,59,13.0,0.0
46138,38.0,0,59,15.0,0.0
46139,62.0,0,59,12.0,0.0
46140,35.0,0,119,9.0,0.0
46141,78.0,0,59,14.0,0.0
46142,81.0,0,119,9.0,0.0
46143,69.0,0,59,14.0,0.0
46144,105.0,0,119,8.0,0.0
46145,93.0,0,119,0.0,0.0
46146,78.0,0,119,2.0,0.0
46147,93.0,0,59,12.0,0.0
46148,74.0,0,119,5.0,0.0
46149,62.0,0,119,5.0,0.0
46150,81.0,0,119,2.0,0.0
46151,50.0,0,119,3.0,0.0
46152,50.0,0,59,15.0,0.0
46153,81.0,60,59,13.0,0.0
46154,62.0,0,59,15.0,0.0
46155,66.0,0,119,4.0,0.0
46156,69.0,0,119,4.0,0.0
46157,66.0,0,119,3.0,0.0
46158,57.0,60,119,3.0,0.0
46159,50.0,0,59,7.0,0.0
46160,78.0,0,119,1.0,0.0
46161,81.0,0,119,1.0,0.0
46162,49.0,0,119,9.0,0.0
46163,90.0,0,119,0.0,0.0
46164,69.0,0,59,14.0,0.0
46165,50.0,0,59,7.0,0.0
46166,78.0,0,59,14.0,0.0
46167,93.0,0,59,12.0,0.0
46168,50.0,0,59,15.0,0.0
46169,62.0,0,59,15.0,0.0
46170,81.0,0,59,13.0,0.0
46171,57.0,0,59,3.0,0.0
46172,54.0,0,59,3.0,0.0
46173,78.0,0,59,1.0,0.0
46174,90.0,0,59,0.0,0.0
46175,81.0,0,59,0.0,0.0
46176,69.0,0,59,13.0,0.0
46177,102.0,60,59,8.0,0.0
46178,66.0,0,59,14.0,0.0
46179,69.0,0,59,14.0,0.0
46180,69.0,0,59,1.0,0.0
46181,69.0,0,59,12.0,0.0
46182,62.0,0,119,5.0,0.0
46183,62.0,0,59,12.0,0.0
46184,78.0,0,59,2.0,0.0
46185,69.0,0,59,2.0,0.0
46186,38.0,0,59,3.0,0.0
46187,74.0,0,119,5.0,0.0
46188,62.0,0,59,13.0,0.0
46189,50.0,0,59,7.0,0.0
46190,38.0,0,59,15.0,0.0
46191,50.0,0,59,15.0,0.0
46192,66.0,0,59,4.0,0.0
46193,62.0,0,59,4.0,0.0
46194,62.0,0,59,12.0,0.0
46195,50.0,0,59,15.0,0.0
46196,62.0,0,59,13.0,0.0
46197,69.0,0,59,12.0,0.0
46198,38.0,0,59,15.0,0.0
46199,69.0,0,59,13.0,0.0
46200,69.0,0,59,14.0,0.0
46201,66.0,0,59,14.0,0.0
46202,50.0,60,59,7.0,0.0
46203,69.0,0,119,6.0,0.0
46204,50.0,0,119,3.0,0.0
46205,74.0,0,119,5.0,0.0
46206,62.0,0,119,5.0,0.0
46207,66.0,0,119,6.0,0.0
46208,93.0,0,59,12.0,0.0
46209,62.0,0,59,15.0,0.0
46210,81.0,0,59,13.0,0.0
46211,50.0,0,59,7.0,0.0
46212,78.0,0,119,1.0,0.0
46213,81.0,0,119,2.0,0.0
46214,81.0,0,119,1.0,0.0
46215,50.0,0,59,15.0,0.0
46216,69.0,60,59,14.0,0.0
46217,78.0,0,59,14.0,0.0
46218,66.0,0,119,4.0,0.0
46219,66.0,0,119,3.0,0.0
46220,57.0,0,119,3.0,0.0
46221,78.0,0,119,2.0,0.0
46222,90.0,0,119,0.0,0.0
46223,93.0,0,119,0.0,0.0
46224,69.0,0,119,4.0,0.0
46225,62.0,0,119,6.0,0.0
46226,81.0,0,119,9.0,0.0
46227,49.0,0,119,9.0,0.0
46228,35.0,60,119,9.0,0.0
46229,105.0,0,119,8.0,0.0
46230,93.0,0,59,12.0,0.0
46231,81.0,0,59,13.0,0.0
46232,50.0,0,59,15.0,0.0
46233,78.0,0,59,14.0,0.0
46234,69.0,0,59,14.0,0.0
46235,50.0,0,59,7.0,0.0
46236,62.0,0,59,15.0,0.0
46237,54.0,0,59,3.0,0.0
46238,66.0,0,59,4.0,0.0
46239,69.0,0,59,12.0,0.0
46240,69.0,0,59,2.0,0.0
46241,78.0,0,59,2.0,0.0
46242,78.0,60,59,1.0,0.0
46243,69.0,0,59,14.0,0.0
46244,69.0,0,59,13.0,0.0
46245,66.0,0,59,14.0,0.0
46246,62.0,0,119,5.0,0.0
46247,74.0,0,119,5.0,0.0
46248,38.0,0,59,3.0,0.0
46249,38.0,0,59,15.0,0.0
46250,62.0,0,59,12.0,0.0
46251,62.0,0,59,4.0,0.0
46252,62.0,0,59,13.0,0.0
46253,57.0,0,59,3.0,0.0
46254,69.0,0,59,1.0,0.0
46255,50.0,0,59,7.0,0.0
46256,102.0,0,59,8.0,0.0
46257,50.0,0,59,15.0,0.0
46258,90.0,0,59,0.0,0.0
46259,81.0,0,59,0.0,0.0
46260,50.0,60,59,7.0,0.0
46261,38.0,0,59,15.0,0.0
46262,66.0,0,59,14.0,0.0
46263,69.0,0,59,13.0,0.0
46264,62.0,0,59,13.0,0.0
46265,69.0,0,59,14.0,0.0
46266,69.0,0,59,12.0,0.0
46267,50.0,0,59,15.0,0.0
46268,62.0,0,59,12.0,0.0
46269,93.0,0,59,12.0,0.0
46270,35.0,0,119,9.0,0.0
46271,69.0,0,119,4.0,0.0
46272,81.0,0,119,1.0,0.0
46273,62.0,0,119,5.0,0.0
46274,74.0,0,119,5.0,0.0
46275,49.0,0,119,9.0,0.0
46276,81.0,0,119,9.0,0.0
46277,66.0,0,119,4.0,0.0
46278,90.0,0,119,0.0,0.0
46279,81.0,0,119,2.0,0.0
46280,105.0,0,119,8.0,0.0
46281,81.0,0,59,13.0,0.0
46282,78.0,0,59,14.0,0.0
46283,69.0,0,59,14.0,0.0
46284,62.0,60,59,15.0,0.0
46285,50.0,0,119,3.0,0.0
46286,78.0,0,119,2.0,0.0
46287,78.0,0,119,1.0,0.0
46288,93.0,0,119,0.0,0.0
46289,50.0,0,59,15.0,0.0
46290,66.0,0,119,3.0,0.0
46291,57.0,0,119,3.0,0.0
46292,50.0,0,59,7.0,0.0
46293,78.0,0,59,14.0,0.0
46294,69.0,0,59,14.0,0.0
46295,93.0,0,59,12.0,0.0
46296,81.0,0,59,13.0,0.0
46297,50.0,0,59,7.0,0.0
46298,50.0,0,59,15.0,0.0
46299,62.0,0,59,15.0,0.0
46300,54.0,0,59,3.0,0.0
46301,102.0,0,59,8.0,0.0
46302,69.0,0,59,12.0,0.0
46303,38.0,0,59,15.0,0.0
46304,69.0,0,59,13.0,0.0
46305,38.0,0,59,3.0,0.0
46306,90.0,0,59,0.0,0.0
46307,81.0,0,59,0.0,0.0
46308,50.0,0,59,7.0,0.0
46309,69.0,0,59,2.0,0.0
46310,57.0,0,59,3.0,0.0
46311,62.0,0,59,12.0,0.0
46312,50.0,0,59,15.0,0.0
46313,69.0,0,59,1.0,0.0
46314,62.0,0,59,4.0,0.0
46315,66.0,0,59,4.0,0.0
46316,78.0,0,59,1.0,0.0
46317,74.0,0,119,5.0,0.0
46318,66.0,0,59,14.0,0.0
46319,62.0,60,119,5.0,0.0
46320,69.0,0,59,14.0,0.0
46321,78.0,0,59,2.0,0.0
46322,62.0,0,59,13.0,0.0
46323,38.0,0,59,15.0,0.0
46324,50.0,0,59,7.0,0.0
46325,69.0,0,59,13.0,0.0
46326,50.0,0,59,15.0,0.0
46327,62.0,0,59,13.0,0.0
46328,69.0,0,59,12.0,0.0
46329,69.0,0,59,14.0,0.0
46330,66.0,0,59,14.0,0.0
46331,62.0,0,59,12.0,0.0
46332,81.0,0,119,2.0,0.0
46333,69.0,60,59,14.0,0.0
46334,81.0,0,119,1.0,0.0
46335,81.0,0,59,13.0,0.0
46336,69.0,0,119,4.0,0.0
46337,66.0,0,119,4.0,0.0
46338,81.0,0,119,9.0,0.0
46339,78.0,0,59,14.0,0.0
46340,49.0,0,119,9.0,0.0
46341,62.0,0,59,15.0,0.0
46342,69.0,0,119,6.0,0.0
46343,78.0,0,119,2.0,0.0
46344,93.0,0,59,12.0,0.0
46345,105.0,0,119,8.0,0.0
46346,66.0,0,119,3.0,0.0
46347,78.0,0,119,1.0,0.0
46348,57.0,0,119,3.0,0.0
46349,50.0,0,59,15.0,0.0
46350,35.0,0,119,9.0,0.0
46351,50.0,0,59,7.0,0.0
46352,50.0,60,119,3.0,0.0
46353,90.0,0,119,0.0,0.0
46354,93.0,0,119,0.0,0.0
46355,62.0,0,119,6.0,0.0
46356,74.0,0,119,5.0,0.0
46357,62.0,0,119,5.0,0.0
46358,66.0,0,119,6.0,0.0
46359,93.0,0,59,12.0,0.0
46360,81.0,0,59,13.0,0.0
46361,78.0,0,59,14.0,0.0
46362,50.0,0,59,7.0,0.0
46363,62.0,0,59,15.0,0.0
46364,50.0,0,59,15.0,0.0
46365,69.0,0,59,14.0,0.0
46366,62.0,0,119,5.0,0.0
46367,74.0,0,119,5.0,0.0
46368,38.0,0,59,15.0,0.0
46369,69.0,0,59,2.0,0.0
46370,78.0,0,59,2.0,0.0
46371,54.0,0,59,3.0,0.0
46372,62.0,0,59,4.0,0.0
46373,69.0,0,59,1.0,0.0
46374,50.0,60,59,7.0,0.0
46375,102.0,0,59,8.0,0.0
46376,69.0,0,59,13.0,0.0
46377,38.0,0,59,3.0,0.0
46378,66.0,0,59,4.0,0.0
46379,78.0,0,59,1.0,0.0
46380,69.0,0,59,14.0,0.0
46381,66.0,0,59,14.0,0.0
46382,62.0,0,59,13.0,0.0
46383,90.0,0,59,0.0,0.0
46384,81.0,0,59,0.0,0.0
46385,50.0,0,59,15.0,0.0
46386,69.0,0,59,12.0,0.0
46387,62.0,0,59,12.0,0.0
46388,57.0,0,59,3.0,0.0
46389,69.0,0,59,13.0,0.0
46390,62.0,0,59,13.0,0.0
46391,66.0,0,59,14.0,0.0
46392,50.0,0,59,15.0,0.0
46393,69.0,60,59,14.0,0.0
46394,62.0,0,59,12.0,0.0
46395,38.0,0,59,15.0,0.0
46396,50.0,0,59,7.0,0.0
46397,69.0,0,59,12.0,0.0
46398,78.0,0,119,1.0,0.0
46399,93.0,0,59,12.0,0.0
46400,50.0,0,119,3.0,0.0
46401,81.0,0,119,1.0,0.0
46402,81.0,0,119,2.0,0.0
46403,62.0,0,59,15.0,0.0
46404,90.0,0,119,0.0,0.0
46405,49.0,0,119,9.0,0.0
46406,81.0,0,119,9.0,0.0
46407,93.0,0,119,0.0,0.0
46408,50.0,0,59,7.0,0.0
46409,35.0,0,119,9.0,0.0
46410,81.0,0,59,13.0,0.0
46411,78.0,0,119,2.0,0.0
46412,105.0,0,119,8.0,0.0
46413,78.0,60,59,14.0,0.0
46414,50.0,0,59,15.0,0.0
46415,69.0,0,59,14.0,0.0
46416,66.0,0,119,4.0,0.0
46417,74.0,0,119,5.0,0.0
46418,57.0,0,119,3.0,0.0
46419,62.0,0,119,5.0,0.0
46420,69.0,0,119,4.0,0.0
46421,66.0,60,119,3.0,0.0
46422,50.0,0,59,7.0,0.0
46423,93.0,0,59,12.0,0.0
46424,81.0,0,59,13.0,0.0
46425,50.0,0,59,15.0,0.0
46426,62.0,0,59,15.0,0.0
46427,78.0,0,59,14.0,0.0
46428,69.0,0,59,14.0,0.0
46429,66.0,0,59,4.0,0.0
46430,38.0,0,59,15.0,0.0
46431,62.0,0,59,4.0,0.0
46432,50.0,60,59,7.0,0.0
46433,38.0,0,59,3.0,0.0
46434,62.0,0,59,12.0,0.0
46435,69.0,0,59,1.0,0.0
46436,78.0,0,59,1.0,0.0
46437,69.0,0,59,12.0,0.0
46438,62.0,0,59,13.0,0.0
46439,81.0,0,59,0.0,0.0
46440,90.0,0,59,0.0,0.0
46441,69.0,0,59,14.0,0.0
46442,66.0,0,59,14.0,0.0
46443,50.0,0,59,15.0,0.0
46444,54.0,0,59,3.0,0.0
46445,103.0,0,59,8.0,0.0
46446,57.0,0,59,3.0,0.0
46447,78.0,0,59,2.0,0.0
46448,69.0,0,59,2.0,0.0
46449,74.0,0,119,5.0,0.0
46450,69.0,0,59,13.0,0.0
46451,62.0,0,119,5.0,0.0
46452,62.0,0,59,13.0,0.0
46453,69.0,0,59,13.0,0.0
46454,50.0,0,59,7.0,0.0
46455,69.0,0,59,12.0,0.0
46456,50.0,0,59,15.0,0.0
46457,69.0,0,59,14.0,0.0
46458,66.0,0,59,14.0,0.0
46459,38.0,0,59,15.0,0.0
46460,62.0,80,59,12.0,0.0
46461,38.0,0,119,3.0,0.0
46462,66.0,0,119,6.0,0.0
46463,81.0,40,79,1.0,0.0
46464,69.0,0,79,1.0,0.0
46465,69.0,0,119,6.0,0.0
46466,57.0,0,119,14.0,0.0
46467,81.0,0,119,13.0,0.0
46468,66.0,0,119,14.0,0.0
46469,69.0,0,119,13.0,0.0
46470,81.0,40,119,9.0,0.0
46471,49.0,0,119,9.0,0.0
46472,35.0,0,119,9.0,0.0
46473,74.0,80,959,5.0,0.0
46474,45.0,0,79,3.0,0.0
46475,57.0,0,79,3.0,0.0
46476,81.0,0,79,8.0,0.0
46477,69.0,0,119,14.0,0.0
46478,62.0,0,119,13.0,0.0
46479,50.0,0,79,7.0,0.0
46480,62.0,0,959,5.0,0.0
46481,66.0,0,119,4.0,0.0
46482,69.0,0,119,4.0,0.0
46483,81.0,0,79,0.0,0.0
46484,38.0,0,119,15.0,0.0
46485,69.0,0,119,12.0,0.0
46486,57.0,0,79,2.0,0.0
46487,69.0,0,79,2.0,0.0
46488,62.0,0,119,12.0,0.0
46489,62.0,0,119,6.0,0.0
46490,50.0,0,119,15.0,0.0
46491,93.0,0,119,12.0,0.0
46492,83.0,0,79,0.0,0.0
46493,71.0,0,79,2.0,0.0
46494,83.0,0,79,8.0,0.0
46495,47.0,0,79,3.0,0.0
46496,59.0,0,79,3.0,0.0
46497,83.0,0,79,1.0,0.0
46498,71.0,0,79,1.0,0.0
46499,59.0,80,79,2.0,0.0
46500,50.0,0,79,7.0,0.0
46501,62.0,0,839,4.0,0.0
46502,50.0,0,839,4.0,0.0
46503,85.0,0,79,0.0,0.0
46504,85.0,0,79,8.0,0.0
46505,61.0,0,79,3.0,0.0
46506,49.0,0,79,3.0,0.0
46507,50.0,80,79,7.0,0.0
46508,73.0,0,79,1.0,0.0
46509,61.0,0,79,2.0,0.0
46510,73.0,0,79,2.0,0.0
46511,85.0,0,79,1.0,0.0
46512,50.0,0,79,3.0,0.0
46513,62.0,0,79,3.0,0.0
46514,62.0,0,79,2.0,0.0
46515,74.0,0,79,2.0,0.0
46516,86.0,0,79,0.0,0.0
46517,74.0,0,79,1.0,0.0
46518,86.0,0,79,1.0,0.0
46519,86.0,0,79,8.0,0.0
46520,50.0,80,79,7.0,0.0
46521,52.0,0,79,3.0,0.0
46522,88.0,0,79,0.0,0.0
46523,88.0,80,79,8.0,0.0
46524,76.0,0,79,1.0,0.0
46525,64.0,0,79,2.0,0.0
46526,50.0,0,79,7.0,0.0
46527,90.0,0,79,8.0,0.0
46528,66.0,0,79,2.0,0.0
46529,50.0,0,79,7.0,0.0
46530,90.0,0,79,0.0,0.0
46531,54.0,80,79,3.0,0.0
46532,78.0,0,79,1.0,0.0
46533,91.0,80,79,8.0,0.0
46534,55.0,0,79,3.0,0.0
46535,79.0,0,79,1.0,0.0
46536,91.0,0,79,0.0,0.0
46537,50.0,0,79,7.0,0.0
46538,67.0,0,79,2.0,0.0
46539,50.0,0,79,7.0,0.0
46540,66.0,0,79,1.0,0.0
46541,78.0,0,79,1.0,0.0
46542,90.0,0,79,8.0,0.0
46543,66.0,0,79,2.0,0.0
46544,90.0,80,79,0.0,0.0
46545,54.0,0,79,3.0,0.0
46546,91.0,0,79,8.0,0.0
46547,67.0,0,79,1.0,0.0
46548,55.0,80,79,3.0,0.0
46549,91.0,0,79,0.0,0.0
46550,50.0,0,79,7.0,0.0
46551,79.0,0,79,1.0,0.0
46552,67.0,0,79,2.0,0.0
46553,69.0,0,79,2.0,0.0
46554,93.0,0,79,0.0,0.0
46555,50.0,0,79,7.0,0.0
46556,69.0,0,79,1.0,0.0
46557,81.0,0,79,1.0,0.0
46558,57.0,0,79,3.0,0.0
46559,93.0,80,79,8.0,0.0
46560,95.0,0,79,8.0,0.0
46561,83.0,0,79,0.0,0.0
46562,71.0,0,79,2.0,0.0
46563,59.0,0,79,3.0,0.0
46564,50.0,0,79,7.0,0.0
46565,83.0,80,79,1.0,0.0
46566,71.0,0,79,1.0,0.0
46567,61.0,0,79,3.0,0.0
46568,50.0,0,79,7.0,0.0
46569,85.0,0,79,0.0,0.0
46570,97.0,0,79,8.0,0.0
46571,85.0,0,79,1.0,0.0
46572,73.0,0,79,1.0,0.0
46573,73.0,0,79,2.0,0.0
46574,74.0,0,119,12.0,0.0
46575,62.0,0,119,6.0,0.0
46576,62.0,0,119,12.0,0.0
46577,74.0,0,79,2.0,0.0
46578,50.0,0,119,15.0,0.0
46579,50.0,0,119,6.0,0.0
46580,86.0,0,119,12.0,0.0
46581,62.0,0,119,4.0,0.0
46582,74.0,40,119,14.0,0.0
46583,86.0,0,79,0.0,0.0
46584,38.0,0,119,15.0,0.0
46585,62.0,0,79,3.0,0.0
46586,50.0,0,79,3.0,0.0
46587,98.0,0,79,8.0,0.0
46588,74.0,0,79,1.0,0.0
46589,86.0,40,79,1.0,0.0
46590,62.0,0,119,14.0,0.0
46591,50.0,0,119,4.0,0.0
46592,49.0,0,119,9.0,0.0
46593,81.0,0,119,9.0,0.0
46594,38.0,0,119,3.0,0.0
46595,35.0,0,119,9.0,0.0
46596,74.0,0,119,13.0,0.0
46597,62.0,0,119,5.0,0.0
46598,50.0,0,79,7.0,0.0
46599,62.0,0,119,13.0,0.0
46600,74.0,0,119,5.0,0.0
46601,86.0,0,119,13.0,0.0
46602,73.0,0,79,1.0,0.0
46603,97.0,80,79,8.0,0.0
46604,50.0,0,79,7.0,0.0
46605,85.0,0,79,0.0,0.0
46606,73.0,0,79,2.0,0.0
46607,61.0,0,79,3.0,0.0
46608,49.0,0,79,3.0,0.0
46609,81.0,0,119,9.0,0.0
46610,98.0,0,79,8.0,0.0
46611,50.0,0,79,7.0,0.0
46612,86.0,0,79,0.0,0.0
46613,62.0,0,79,3.0,0.0
46614,50.0,0,79,3.0,0.0
46615,74.0,80,79,2.0,0.0
46616,74.0,0,79,1.0,0.0
46617,64.0,0,79,3.0,0.0
46618,100.0,0,79,8.0,0.0
46619,76.0,40,79,1.0,0.0
46620,52.0,0,79,3.0,0.0
46621,81.0,40,119,9.0,0.0
46622,88.0,0,79,0.0,0.0
46623,50.0,0,79,7.0,0.0
46624,76.0,0,79,2.0,0.0
46625,78.0,0,79,2.0,0.0
46626,54.0,0,79,3.0,0.0
46627,78.0,80,79,1.0,0.0
46628,102.0,0,79,8.0,0.0
46629,90.0,0,79,0.0,0.0
46630,50.0,0,79,7.0,0.0
46631,66.0,0,79,3.0,0.0
46632,81.0,0,119,9.0,0.0
46633,67.0,0,79,3.0,0.0
46634,55.0,0,79,3.0,0.0
46635,79.0,0,79,1.0,0.0
46636,50.0,120,79,7.0,0.0
46637,79.0,0,79,2.0,0.0
46638,103.0,0,79,8.0,0.0
46639,91.0,0,79,0.0,0.0
46640,62.0,0,119,6.0,0.0
46641,49.0,0,119,9.0,0.0
46642,38.0,0,119,15.0,0.0
46643,86.0,0,119,12.0,0.0
46644,93.0,0,119,0.0,0.0
46645,62.0,0,119,12.0,0.0
46646,69.0,0,119,3.0,0.0
46647,81.0,0,119,9.0,0.0
46648,57.0,0,119,3.0,0.0
46649,74.0,0,119,12.0,0.0
46650,35.0,0,119,9.0,0.0
46651,62.0,0,119,4.0,0.0
46652,50.0,120,119,7.0,0.0
46653,62.0,0,119,13.0,0.0
46654,74.0,0,119,13.0,0.0
46655,86.0,0,119,13.0,0.0
46656,50.0,0,119,6.0,0.0
46657,38.0,0,119,3.0,0.0
46658,62.0,0,119,5.0,0.0
46659,74.0,0,119,5.0,0.0
46660,74.0,0,119,14.0,0.0
46661,50.0,0,119,15.0,0.0
46662,81.0,0,119,2.0,0.0
46663,105.0,0,119,8.0,0.0
46664,62.0,0,119,14.0,0.0
46665,81.0,0,119,1.0,0.0
46666,50.0,0,119,4.0,0.0
46667,81.0,0,119,2.0,0.0
46668,105.0,0,119,8.0,0.0
46669,50.0,0,119,7.0,0.0
46670,69.0,0,119,3.0,0.0
46671,93.0,0,119,0.0,0.0
46672,81.0,0,119,1.0,0.0
46673,81.0,120,119,9.0,0.0
46674,57.0,0,119,3.0,0.0
46675,50.0,0,119,7.0,0.0
46676,93.0,0,119,0.0,0.0
46677,81.0,0,119,1.0,0.0
46678,69.0,0,119,3.0,0.0
46679,57.0,0,119,3.0,0.0
46680,105.0,0,119,8.0,0.0
46681,81.0,0,119,9.0,0.0
46682,81.0,120,119,2.0,0.0
46683,93.0,0,119,0.0,0.0
46684,81.0,0,119,1.0,0.0
46685,81.0,0,119,2.0,0.0
46686,57.0,0,119,3.0,0.0
46687,69.0,0,119,3.0,0.0
46688,50.0,0,119,7.0,0.0
46689,81.0,120,119,9.0,0.0
46690,105.0,0,119,8.0,0.0
46691,81.0,0,119,9.0,0.0
46692,38.0,0,119,15.0,0.0
46693,38.0,0,119,3.0,0.0
46694,49.0,0,119,9.0,0.0
46695,62.0,0,119,3.0,0.0
46696,50.0,0,119,3.0,0.0
46697,86.0,0,119,0.0,0.0
46698,35.0,0,119,9.0,0.0
46699,50.0,0,119,4.0,0.0
46700,74.0,0,119,14.0,0.0
46701,86.0,0,119,12.0,0.0
46702,62.0,0,119,4.0,0.0
46703,50.0,0,119,15.0,0.0
46704,74.0,0,119,2.0,0.0
46705,74.0,0,119,1.0,0.0
46706,62.0,0,119,6.0,0.0
46707,74.0,0,119,5.0,0.0
46708,50.0,0,119,7.0,0.0
46709,62.0,0,119,13.0,0.0
46710,98.0,0,119,8.0,0.0
46711,50.0,0,119,6.0,0.0
46712,62.0,0,119,5.0,0.0
46713,62.0,0,119,12.0,0.0
46714,86.0,0,119,13.0,0.0
46715,74.0,0,119,12.0,0.0
46716,62.0,0,119,14.0,0.0
46717,74.0,0,119,13.0,0.0
