,note,step,duration,channel,velocity
0,70.0,0,120,10.0,42.0
1,76.0,1,120,10.0,42.0
2,67.0,1,120,10.0,50.0
3,60.0,0,120,12.0,50.0
4,64.0,2,120,11.0,50.0
5,60.0,0,120,13.0,48.0
6,55.0,0,120,11.0,50.0
7,48.0,3,120,14.0,46.0
8,88.0,0,230,0.0,55.0
9,82.0,0,230,0.0,55.0
10,76.0,0,230,1.0,70.0
11,70.0,0,230,1.0,70.0
12,70.0,0,230,2.0,70.0
13,67.0,1,230,2.0,70.0
14,48.0,1,230,3.0,80.0
15,60.0,0,230,3.0,80.0
16,89.0,1,60,0.0,43.0
17,81.0,0,60,0.0,43.0
18,60.0,1,300,4.0,82.0
19,69.0,0,60,1.0,55.0
20,77.0,1,60,1.0,55.0
21,65.0,0,60,2.0,55.0
22,69.0,1,60,2.0,55.0
23,48.0,0,300,5.0,82.0
24,41.0,0,60,3.0,64.0
25,53.0,1,60,3.0,64.0
26,65.0,229,120,10.0,28.0
27,69.0,0,120,10.0,24.0
28,57.0,0,120,11.0,28.0
29,77.0,1,120,10.0,24.0
30,53.0,1,120,12.0,28.0
31,53.0,2,120,13.0,26.0
32,65.0,0,120,11.0,28.0
33,41.0,3,120,14.0,24.0
34,55.0,229,120,10.0,50.0
35,65.0,1,120,10.0,50.0
36,55.0,0,120,11.0,50.0
37,71.0,1,120,10.0,50.0
38,65.0,1,120,11.0,50.0
39,55.0,0,120,12.0,50.0
40,71.0,2,120,11.0,50.0
41,55.0,0,120,13.0,48.0
42,43.0,3,120,14.0,46.0
43,83.0,0,230,0.0,55.0
44,77.0,1,230,0.0,55.0
45,62.0,0,230,4.0,82.0
46,71.0,0,230,1.0,70.0
47,77.0,0,230,1.0,70.0
48,65.0,1,230,2.0,70.0
49,62.0,0,230,2.0,70.0
50,55.0,0,230,5.0,82.0
51,55.0,0,230,3.0,80.0
52,43.0,1,230,3.0,80.0
53,76.0,0,60,0.0,43.0
54,84.0,1,60,0.0,43.0
55,72.0,0,60,1.0,55.0
56,76.0,0,60,1.0,55.0
57,60.0,0,60,4.0,66.0
58,60.0,1,60,2.0,55.0
59,64.0,0,60,2.0,55.0
60,48.0,1,60,5.0,66.0
61,57.0,0,60,3.0,64.0
62,45.0,1,60,3.0,64.0
63,57.0,229,120,10.0,28.0
64,64.0,1,120,10.0,28.0
65,57.0,0,120,11.0,28.0
66,72.0,0,120,10.0,28.0
67,57.0,0,120,12.0,28.0
68,64.0,1,120,11.0,28.0
69,72.0,2,120,11.0,28.0
70,57.0,0,120,13.0,26.0
71,45.0,3,120,14.0,24.0
72,62.0,229,120,10.0,37.0
73,72.0,0,120,10.0,31.0
74,62.0,0,120,11.0,37.0
75,78.0,0,120,10.0,31.0
76,50.0,0,120,12.0,37.0
77,72.0,1,120,11.0,37.0
78,50.0,2,120,13.0,35.0
79,38.0,3,120,14.0,33.0
80,90.0,1,230,0.0,58.0
81,84.0,0,230,0.0,58.0
82,62.0,1,230,4.0,82.0
83,72.0,0,230,1.0,74.0
84,78.0,0,230,1.0,74.0
85,72.0,1,230,2.0,74.0
86,69.0,0,230,2.0,74.0
87,62.0,1,230,5.0,82.0
88,62.0,0,230,3.0,80.0
89,50.0,1,230,3.0,80.0
90,90.0,1,99,0.0,58.0
91,84.0,0,99,0.0,58.0
92,78.0,1,99,1.0,74.0
93,72.0,0,99,1.0,74.0
94,62.0,0,99,4.0,82.0
95,69.0,0,99,2.0,74.0
96,72.0,0,99,2.0,74.0
97,62.0,1,99,5.0,82.0
98,62.0,0,99,3.0,80.0
99,50.0,1,99,3.0,80.0
100,62.0,109,0,10.0,68.0
101,72.0,0,120,10.0,41.0
102,62.0,1,120,11.0,50.0
103,78.0,0,0,10.0,56.0
104,62.0,0,120,12.0,50.0
105,72.0,0,0,11.0,68.0
106,50.0,2,120,13.0,48.0
107,38.0,3,120,14.0,46.0
108,84.0,0,99,0.0,58.0
109,90.0,1,99,0.0,58.0
110,72.0,1,99,1.0,74.0
111,78.0,0,99,1.0,74.0
112,62.0,0,99,4.0,82.0
113,72.0,0,99,2.0,74.0
114,69.0,0,99,2.0,74.0
115,62.0,1,99,5.0,82.0
116,50.0,0,99,3.0,80.0
117,62.0,1,99,3.0,80.0
118,72.0,0,120,10.0,57.0
119,62.0,1,120,11.0,68.0
120,62.0,1,120,12.0,68.0
121,50.0,2,120,13.0,66.0
122,38.0,3,120,14.0,64.0
123,71.0,0,120,10.0,110.0
124,55.0,0,120,10.0,110.0
125,62.0,0,120,10.0,110.0
126,83.0,1,120,0.0,78.0
127,91.0,0,120,0.0,78.0
128,62.0,1,120,4.0,102.0
129,79.0,0,120,1.0,98.0
130,55.0,0,120,6.0,104.0
131,67.0,0,120,6.0,104.0
132,71.0,0,120,1.0,98.0
133,55.0,0,120,11.0,110.0
134,62.0,0,120,11.0,110.0
135,71.0,1,120,2.0,98.0
136,67.0,0,120,2.0,98.0
137,71.0,0,120,11.0,110.0
138,55.0,1,120,5.0,102.0
139,55.0,1,120,12.0,110.0
140,43.0,0,120,13.0,108.0
141,43.0,2,120,15.0,112.0
142,43.0,0,120,3.0,100.0
143,55.0,1,120,3.0,100.0
144,31.0,3,120,14.0,106.0
145,79.0,109,175,10.0,110.0
146,80.0,169,60,10.0,110.0
147,68.0,3,60,11.0,110.0
148,81.0,57,60,10.0,110.0
149,69.0,3,60,11.0,110.0
150,77.0,57,60,10.0,110.0
151,65.0,3,60,11.0,110.0
152,74.0,57,60,10.0,110.0
153,62.0,3,60,11.0,110.0
154,72.0,57,55,10.0,110.0
155,60.0,3,55,11.0,110.0
156,43.0,1,55,3.0,100.0
157,43.0,2,60,13.0,108.0
158,31.0,3,60,14.0,106.0
159,71.0,57,90,10.0,110.0
160,59.0,1,90,11.0,110.0
161,74.0,19,15,10.0,110.0
162,62.0,3,15,11.0,110.0
163,72.0,12,5,10.0,110.0
164,60.0,3,5,11.0,110.0
165,55.0,1,55,3.0,100.0
166,65.0,1,120,12.0,110.0
167,55.0,56,60,13.0,108.0
168,43.0,3,0,14.0,106.0
169,55.0,1,55,3.0,100.0
170,55.0,56,0,13.0,108.0
171,43.0,3,0,14.0,106.0
172,77.0,1,120,0.0,98.0
173,55.0,1,55,3.0,100.0
174,65.0,0,120,3.0,100.0
175,71.0,12,145,10.0,110.0
176,59.0,2,145,11.0,110.0
177,72.0,19,30,10.0,110.0
178,53.0,1,55,3.0,100.0
179,60.0,3,30,11.0,110.0
180,53.0,4,0,13.0,108.0
181,41.0,3,60,14.0,106.0
182,74.0,27,30,10.0,110.0
183,62.0,3,30,11.0,110.0
184,76.0,19,30,10.0,110.0
185,74.0,50,120,0.0,98.0
186,64.0,3,30,11.0,110.0
187,53.0,1,55,3.0,100.0
188,62.0,2,240,12.0,110.0
189,62.0,0,120,3.0,100.0
190,41.0,3,0,14.0,106.0
191,77.0,27,30,10.0,110.0
192,65.0,2,30,11.0,110.0
193,74.0,19,30,10.0,110.0
194,62.0,3,30,11.0,110.0
195,53.0,0,55,3.0,100.0
196,53.0,4,0,13.0,108.0
197,41.0,3,0,14.0,106.0
198,72.0,27,30,10.0,110.0
199,60.0,3,30,11.0,110.0
200,71.0,19,25,10.0,110.0
201,59.0,3,25,11.0,110.0
202,71.0,1,120,0.0,98.0
203,53.0,1,55,3.0,100.0
204,55.0,2,120,12.0,110.0
205,59.0,1,120,3.0,100.0
206,52.0,1,55,3.0,100.0
207,52.0,2,60,13.0,108.0
208,40.0,3,0,14.0,106.0
209,74.0,27,90,10.0,110.0
210,62.0,3,90,11.0,110.0
211,72.0,19,25,10.0,110.0
212,60.0,3,25,11.0,110.0
213,67.0,0,600,4.0,102.0
214,52.0,1,55,3.0,100.0
215,55.0,1,600,5.0,102.0
216,67.0,2,120,12.0,110.0
217,52.0,2,0,13.0,108.0
218,40.0,3,0,14.0,106.0
219,79.0,2,630,1.0,98.0
220,67.0,0,630,2.0,98.0
221,78.0,21,30,1.0,98.0
222,66.0,1,30,2.0,98.0
223,52.0,1,55,3.0,100.0
224,79.0,29,30,1.0,98.0
225,67.0,1,30,2.0,98.0
226,78.0,21,25,1.0,98.0
227,66.0,1,25,2.0,98.0
228,79.0,1,120,0.0,98.0
229,67.0,1,120,4.0,102.0
230,52.0,1,55,3.0,100.0
231,55.0,1,120,5.0,102.0
232,64.0,1,120,12.0,110.0
233,52.0,4,60,13.0,108.0
234,67.0,0,120,3.0,100.0
235,40.0,3,60,14.0,106.0
236,72.0,27,145,10.0,110.0
237,60.0,1,145,11.0,110.0
238,79.0,1,50,1.0,98.0
239,67.0,1,50,2.0,98.0
240,71.0,19,30,10.0,110.0
241,52.0,0,55,3.0,100.0
242,59.0,3,30,11.0,110.0
243,52.0,4,0,13.0,108.0
244,40.0,3,0,14.0,106.0
245,72.0,27,30,10.0,110.0
246,60.0,0,30,11.0,110.0
247,79.0,2,50,1.0,98.0
248,67.0,1,50,2.0,98.0
249,71.0,19,30,10.0,110.0
250,76.0,28,120,0.0,98.0
251,64.0,0,120,4.0,102.0
252,52.0,1,55,3.0,100.0
253,59.0,3,30,11.0,110.0
254,52.0,1,120,5.0,102.0
255,60.0,1,120,12.0,110.0
256,64.0,1,120,3.0,100.0
257,40.0,3,0,14.0,106.0
258,72.0,27,30,10.0,110.0
259,60.0,0,30,11.0,110.0
260,79.0,1,50,1.0,98.0
261,67.0,1,50,2.0,98.0
262,71.0,19,30,10.0,110.0
263,59.0,3,30,11.0,110.0
264,52.0,1,55,3.0,100.0
265,52.0,2,60,13.0,108.0
266,72.0,27,30,10.0,110.0
267,60.0,0,30,11.0,110.0
268,79.0,2,50,1.0,98.0
269,67.0,1,50,2.0,98.0
270,73.0,19,25,10.0,110.0
271,61.0,3,25,11.0,110.0
272,72.0,1,120,0.0,98.0
273,60.0,0,120,4.0,102.0
274,52.0,1,55,3.0,100.0
275,48.0,1,120,5.0,102.0
276,55.0,1,0,12.0,110.0
277,52.0,4,60,13.0,108.0
278,60.0,0,120,3.0,100.0
279,40.0,3,60,14.0,106.0
280,47.0,1,55,3.0,100.0
281,47.0,2,60,13.0,108.0
282,35.0,3,60,14.0,106.0
283,74.0,27,90,10.0,110.0
284,62.0,1,90,11.0,110.0
285,77.0,19,15,10.0,110.0
286,65.0,3,15,11.0,110.0
287,76.0,12,12,10.0,110.0
288,64.0,3,12,11.0,110.0
289,59.0,1,55,3.0,100.0
290,59.0,2,0,13.0,108.0
291,47.0,3,60,14.0,106.0
292,59.0,1,55,3.0,100.0
293,47.0,3,60,14.0,106.0
294,59.0,1,55,3.0,100.0
295,59.0,56,60,13.0,108.0
296,47.0,3,0,14.0,106.0
297,74.0,12,147,10.0,110.0
298,62.0,3,147,11.0,110.0
299,74.0,1,270,0.0,98.0
300,65.0,2,150,12.0,110.0
301,65.0,0,270,3.0,100.0
302,73.0,19,30,10.0,110.0
303,73.0,1,30,0.0,98.0
304,55.0,1,0,4.0,102.0
305,61.0,2,30,11.0,110.0
306,43.0,1,300,5.0,102.0
307,64.0,2,30,12.0,110.0
308,59.0,56,60,13.0,108.0
309,64.0,3,30,3.0,100.0
310,74.0,22,30,10.0,110.0
311,74.0,1,30,0.0,98.0
312,62.0,1,30,11.0,110.0
313,65.0,1,30,12.0,110.0
314,65.0,1,30,3.0,100.0
315,43.0,1,55,5.0,102.0
316,76.0,19,30,10.0,110.0
317,76.0,1,30,0.0,98.0
318,79.0,1,360,1.0,98.0
319,64.0,2,30,11.0,110.0
320,67.0,0,360,2.0,98.0
321,61.0,2,30,12.0,110.0
322,59.0,2,60,13.0,108.0
323,61.0,3,30,3.0,100.0
324,47.0,3,60,14.0,106.0
325,77.0,22,30,10.0,110.0
326,74.0,1,30,0.0,98.0
327,77.0,0,30,0.0,98.0
328,77.0,0,30,1.0,98.0
329,74.0,0,30,1.0,98.0
330,65.0,0,30,11.0,110.0
331,62.0,1,30,2.0,98.0
332,65.0,0,30,2.0,98.0
333,62.0,1,30,12.0,110.0
334,62.0,1,30,3.0,100.0
335,55.0,1,55,4.0,102.0
336,43.0,1,55,5.0,102.0
337,79.0,19,30,10.0,110.0
338,76.0,0,30,0.0,98.0
339,79.0,1,30,0.0,98.0
340,79.0,1,30,1.0,98.0
341,76.0,0,30,1.0,98.0
342,67.0,1,30,11.0,110.0
343,64.0,0,30,2.0,98.0
344,67.0,0,30,2.0,98.0
345,64.0,2,30,12.0,110.0
346,55.0,2,0,13.0,108.0
347,64.0,3,30,3.0,100.0
348,43.0,3,60,14.0,106.0
349,81.0,22,30,10.0,110.0
350,77.0,0,0,0.0,98.0
351,81.0,1,30,0.0,98.0
352,77.0,0,30,1.0,98.0
353,81.0,1,30,1.0,98.0
354,65.0,0,0,2.0,98.0
355,69.0,0,30,2.0,98.0
356,69.0,0,30,11.0,110.0
357,65.0,1,30,12.0,110.0
358,65.0,1,30,3.0,100.0
359,74.0,1,25,0.0,98.0
360,55.0,0,55,4.0,102.0
361,77.0,19,27,10.0,110.0
362,74.0,0,25,1.0,98.0
363,77.0,1,25,1.0,98.0
364,62.0,1,25,2.0,98.0
365,43.0,1,55,5.0,102.0
366,65.0,0,27,11.0,110.0
367,62.0,3,25,3.0,100.0
368,62.0,2,30,12.0,110.0
369,59.0,1,240,3.0,100.0
370,43.0,3,60,14.0,106.0
371,76.0,22,104,10.0,110.0
372,55.0,1,104,11.0,110.0
373,64.0,0,104,11.0,110.0
374,76.0,1,107,0.0,98.0
375,72.0,0,107,0.0,98.0
376,72.0,1,107,1.0,98.0
377,76.0,0,107,1.0,98.0
378,60.0,1,104,12.0,110.0
379,60.0,0,107,4.0,102.0
380,64.0,0,107,2.0,98.0
381,60.0,0,107,2.0,98.0
382,48.0,1,107,5.0,102.0
383,48.0,2,104,13.0,108.0
384,60.0,1,107,3.0,100.0
385,36.0,3,104,14.0,106.0
386,88.0,110,114,0.0,93.0
387,91.0,0,114,0.0,93.0
388,72.0,0,114,6.0,104.0
389,76.0,0,114,1.0,93.0
390,67.0,1,114,4.0,102.0
391,60.0,0,114,6.0,104.0
392,79.0,0,114,1.0,93.0
393,76.0,0,114,2.0,93.0
394,67.0,1,114,2.0,93.0
395,64.0,1,114,5.0,102.0
396,48.0,1,114,15.0,73.0
397,60.0,3,114,3.0,100.0
398,48.0,0,114,3.0,100.0
399,65.0,112,114,10.0,100.0
400,74.0,0,114,10.0,100.0
401,57.0,0,114,10.0,100.0
402,74.0,3,114,11.0,100.0
403,65.0,0,114,11.0,100.0
404,57.0,0,114,11.0,100.0
405,65.0,2,114,12.0,110.0
406,53.0,2,114,13.0,108.0
407,41.0,4,114,14.0,106.0
408,89.0,0,114,0.0,93.0
409,86.0,110,114,0.0,93.0
410,65.0,0,114,4.0,102.0
411,72.0,0,114,6.0,104.0
412,60.0,1,114,6.0,104.0
413,77.0,0,114,1.0,93.0
414,74.0,0,114,1.0,93.0
415,69.0,1,114,2.0,93.0
416,65.0,0,114,2.0,93.0
417,62.0,1,114,5.0,102.0
418,48.0,1,114,15.0,73.0
419,65.0,3,114,3.0,100.0
420,53.0,0,114,3.0,100.0
421,64.0,0,177,10.0,100.0
422,72.0,0,177,10.0,100.0
423,55.0,112,177,10.0,100.0
424,64.0,0,177,11.0,100.0
425,55.0,0,177,11.0,100.0
426,84.0,0,180,0.0,98.0
427,88.0,1,180,0.0,98.0
428,76.0,0,0,1.0,98.0
429,72.0,1,180,1.0,98.0
430,64.0,0,180,4.0,102.0
431,60.0,1,180,2.0,98.0
432,64.0,0,0,2.0,98.0
433,60.0,1,180,5.0,102.0
434,88.0,1,55,0.0,98.0
435,91.0,0,55,0.0,98.0
436,67.0,0,55,4.0,102.0
437,76.0,169,57,10.0,110.0
438,79.0,1,55,1.0,98.0
439,67.0,1,55,2.0,98.0
440,64.0,1,55,5.0,102.0
441,67.0,0,57,11.0,110.0
442,55.0,0,240,6.0,104.0
443,67.0,0,240,6.0,104.0
444,55.0,1,235,3.0,100.0
445,67.0,0,235,3.0,100.0
446,43.0,0,240,15.0,32.0
447,76.0,56,60,10.0,110.0
448,88.0,0,60,0.0,98.0
449,91.0,1,60,0.0,98.0
450,76.0,0,60,1.0,98.0
451,67.0,1,60,4.0,102.0
452,79.0,0,60,1.0,98.0
453,67.0,1,60,11.0,110.0
454,67.0,0,60,2.0,98.0
455,64.0,0,60,2.0,98.0
456,64.0,1,60,5.0,102.0
457,55.0,1,0,12.0,110.0
458,55.0,2,0,13.0,108.0
459,43.0,4,60,3.0,100.0
460,55.0,1,0,3.0,100.0
461,43.0,3,300,14.0,106.0
462,74.0,52,60,10.0,110.0
463,89.0,0,60,0.0,98.0
464,86.0,1,60,0.0,98.0
465,74.0,0,60,1.0,98.0
466,77.0,0,60,1.0,98.0
467,65.0,1,60,4.0,102.0
468,65.0,0,60,11.0,110.0
469,65.0,1,60,2.0,98.0
470,62.0,0,60,2.0,98.0
471,62.0,1,60,5.0,102.0
472,55.0,2,0,13.0,108.0
473,55.0,1,0,3.0,100.0
474,43.0,3,60,14.0,106.0
475,72.0,49,60,10.0,110.0
476,88.0,1,60,0.0,98.0
477,84.0,0,60,0.0,98.0
478,64.0,0,60,4.0,102.0
479,72.0,0,60,1.0,98.0
480,76.0,1,60,1.0,98.0
481,64.0,1,60,11.0,110.0
482,64.0,0,60,2.0,98.0
483,60.0,0,60,2.0,98.0
484,60.0,1,60,5.0,102.0
485,55.0,1,60,12.0,110.0
486,43.0,3,60,14.0,106.0
487,83.0,0,55,0.0,98.0
488,86.0,1,55,0.0,98.0
489,74.0,0,55,1.0,98.0
490,71.0,1,55,1.0,98.0
491,71.0,49,57,10.0,110.0
492,65.0,0,55,4.0,102.0
493,65.0,1,55,2.0,98.0
494,62.0,1,55,5.0,102.0
495,62.0,0,57,11.0,110.0
496,59.0,0,55,3.0,100.0
497,56.0,1,55,3.0,100.0
498,56.0,1,60,12.0,110.0
499,56.0,2,60,13.0,108.0
500,44.0,3,60,14.0,106.0
501,72.0,0,104,10.0,109.0
502,57.0,49,104,10.0,109.0
503,64.0,0,104,10.0,109.0
504,60.0,0,104,11.0,109.0
505,64.0,0,104,11.0,109.0
506,72.0,0,104,11.0,109.0
507,84.0,1,107,0.0,98.0
508,57.0,1,104,12.0,120.0
509,64.0,1,107,4.0,102.0
510,72.0,0,107,1.0,98.0
511,64.0,1,107,2.0,98.0
512,60.0,1,107,5.0,102.0
513,57.0,2,104,13.0,118.0
514,57.0,0,107,3.0,100.0
515,60.0,1,107,3.0,100.0
516,45.0,3,104,14.0,116.0
517,88.0,0,114,0.0,93.0
518,84.0,110,114,0.0,93.0
519,60.0,0,114,6.0,104.0
520,76.0,0,114,1.0,93.0
521,72.0,0,114,1.0,93.0
522,60.0,0,114,4.0,102.0
523,72.0,1,114,6.0,104.0
524,64.0,1,114,2.0,93.0
525,60.0,0,114,2.0,93.0
526,48.0,1,114,5.0,102.0
527,57.0,0,114,3.0,100.0
528,45.0,3,114,3.0,100.0
529,48.0,1,126,15.0,73.0
530,81.0,0,114,10.0,100.0
531,65.0,112,114,10.0,100.0
532,72.0,0,114,10.0,100.0
533,72.0,3,114,11.0,100.0
534,81.0,0,114,11.0,100.0
535,65.0,0,114,11.0,100.0
536,53.0,2,114,12.0,110.0
537,60.0,0,114,12.0,110.0
538,65.0,0,114,12.0,110.0
539,53.0,2,114,13.0,108.0
540,41.0,4,114,14.0,106.0
541,86.0,0,114,0.0,93.0
542,89.0,110,114,0.0,93.0
543,72.0,0,114,6.0,104.0
544,60.0,0,114,6.0,104.0
545,60.0,0,114,4.0,102.0
546,74.0,1,114,1.0,93.0
547,77.0,0,114,1.0,93.0
548,65.0,1,114,2.0,93.0
549,69.0,0,114,2.0,93.0
550,48.0,1,114,5.0,102.0
551,48.0,1,114,15.0,73.0
552,41.0,3,114,3.0,100.0
553,53.0,0,114,3.0,100.0
554,72.0,0,120,10.0,100.0
555,64.0,0,120,10.0,100.0
556,55.0,112,120,10.0,100.0
557,64.0,0,120,11.0,100.0
558,72.0,0,120,11.0,100.0
559,55.0,1,120,11.0,100.0
560,55.0,0,120,12.0,110.0
561,55.0,2,120,13.0,108.0
562,43.0,3,120,14.0,106.0
563,88.0,0,235,0.0,74.0
564,84.0,1,235,0.0,74.0
565,72.0,0,235,1.0,98.0
566,76.0,1,235,1.0,98.0
567,64.0,0,235,2.0,98.0
568,60.0,0,235,2.0,98.0
569,55.0,0,240,6.0,104.0
570,67.0,0,240,6.0,104.0
571,55.0,0,235,3.0,100.0
572,43.0,1,235,3.0,100.0
573,43.0,1,240,15.0,73.0
574,60.0,0,300,4.0,102.0
575,48.0,1,300,5.0,102.0
576,84.0,0,110,0.0,62.0
577,88.0,230,110,0.0,62.0
578,76.0,1,110,1.0,83.0
579,72.0,0,110,1.0,83.0
580,64.0,1,110,2.0,83.0
581,72.0,0,110,2.0,83.0
582,43.0,5,110,3.0,85.0
583,55.0,0,110,3.0,85.0
584,67.0,54,60,4.0,122.0
585,55.0,2,60,5.0,122.0
586,64.0,0,60,4.0,122.0
587,52.0,1,60,5.0,122.0
588,84.0,0,110,0.0,74.0
589,88.0,57,110,0.0,74.0
590,76.0,1,110,1.0,98.0
591,72.0,0,110,1.0,98.0
592,64.0,0,110,2.0,98.0
593,72.0,1,110,2.0,98.0
594,55.0,4,110,3.0,100.0
595,43.0,0,110,3.0,100.0
596,60.0,54,60,4.0,122.0
597,48.0,2,60,5.0,122.0
598,55.0,56,60,10.0,110.0
599,55.0,1,60,11.0,110.0
600,55.0,1,60,12.0,110.0
601,43.0,2,60,13.0,108.0
602,31.0,3,60,14.0,106.0
603,57.0,49,30,10.0,95.0
604,57.0,3,30,11.0,95.0
605,57.0,2,30,12.0,95.0
606,45.0,2,30,13.0,93.0
607,33.0,4,30,14.0,91.0
608,59.0,19,30,10.0,97.0
609,59.0,3,30,11.0,97.0
610,59.0,2,30,12.0,97.0
611,47.0,2,30,13.0,95.0
612,35.0,4,30,14.0,93.0
613,60.0,19,30,10.0,100.0
614,60.0,3,30,11.0,100.0
615,60.0,2,30,12.0,100.0
616,48.0,2,30,13.0,98.0
617,36.0,4,30,14.0,96.0
618,62.0,19,30,10.0,102.0
619,62.0,3,30,11.0,102.0
620,62.0,2,30,12.0,102.0
621,50.0,2,30,13.0,100.0
622,38.0,4,30,14.0,98.0
623,64.0,19,30,10.0,105.0
624,64.0,3,30,11.0,105.0
625,64.0,2,30,12.0,105.0
626,52.0,2,30,13.0,103.0
627,40.0,4,30,14.0,101.0
628,66.0,19,25,10.0,107.0
629,66.0,3,25,11.0,107.0
630,66.0,2,25,12.0,107.0
631,83.0,1,0,0.0,98.0
632,89.0,1,240,0.0,93.0
633,71.0,0,240,1.0,98.0
634,77.0,1,240,1.0,98.0
635,55.0,0,240,4.0,102.0
636,54.0,2,25,13.0,105.0
637,71.0,0,0,2.0,98.0
638,62.0,0,240,2.0,98.0
639,43.0,1,240,5.0,102.0
640,42.0,4,25,14.0,103.0
641,55.0,1,0,3.0,100.0
642,43.0,0,0,3.0,100.0
643,67.0,19,175,10.0,110.0
644,67.0,0,175,11.0,110.0
645,67.0,1,175,12.0,110.0
646,55.0,2,175,13.0,108.0
647,43.0,3,175,14.0,106.0
648,67.0,169,15,10.0,95.0
649,67.0,3,15,11.0,95.0
650,67.0,2,15,12.0,95.0
651,55.0,2,15,13.0,93.0
652,43.0,4,15,14.0,91.0
653,65.0,4,15,10.0,95.0
654,65.0,3,15,11.0,95.0
655,65.0,2,15,12.0,95.0
656,53.0,2,15,13.0,93.0
657,41.0,4,15,14.0,91.0
658,64.0,4,15,10.0,95.0
659,64.0,3,15,11.0,95.0
660,64.0,2,15,12.0,95.0
661,52.0,2,15,13.0,93.0
662,40.0,4,15,14.0,91.0
663,77.0,0,235,0.0,98.0
664,62.0,0,235,4.0,102.0
665,65.0,1,235,1.0,98.0
666,71.0,0,235,1.0,98.0
667,65.0,1,235,2.0,98.0
668,55.0,1,235,5.0,102.0
669,62.0,4,15,10.0,95.0
670,62.0,3,15,11.0,95.0
671,62.0,2,15,12.0,95.0
672,50.0,2,15,13.0,93.0
673,38.0,4,15,14.0,91.0
674,84.0,0,120,0.0,88.0
675,76.0,1,120,0.0,88.0
676,72.0,0,120,1.0,88.0
677,64.0,0,120,1.0,88.0
678,60.0,1,120,4.0,102.0
679,60.0,1,120,11.0,90.0
680,72.0,0,120,2.0,88.0
681,64.0,0,120,2.0,88.0
682,52.0,1,120,5.0,102.0
683,60.0,1,120,12.0,90.0
684,48.0,2,120,13.0,88.0
685,60.0,1,120,3.0,100.0
686,48.0,0,120,3.0,100.0
687,36.0,3,120,14.0,86.0
688,60.0,4,308,10.0,110.0
689,55.0,349,90,10.0,110.0
690,59.0,90,20,10.0,110.0
691,55.0,3,120,11.0,67.0
692,52.0,2,120,12.0,67.0
693,48.0,2,120,13.0,65.0
694,36.0,4,120,14.0,63.0
695,60.0,30,308,10.0,110.0
696,55.0,349,90,10.0,110.0
697,59.0,90,20,10.0,110.0
698,60.0,30,30,10.0,110.0
699,60.0,49,30,10.0,110.0
700,55.0,3,120,11.0,67.0
701,52.0,2,120,12.0,67.0
702,48.0,2,120,13.0,65.0
703,36.0,4,120,14.0,63.0
704,55.0,60,30,10.0,110.0
705,59.0,60,30,10.0,110.0
706,60.0,60,30,10.0,110.0
707,60.0,49,30,10.0,110.0
708,55.0,3,120,11.0,67.0
709,52.0,2,120,12.0,67.0
710,48.0,2,120,13.0,65.0
711,36.0,4,120,14.0,63.0
712,55.0,60,30,10.0,110.0
713,59.0,60,30,10.0,110.0
714,60.0,60,60,10.0,110.0
715,55.0,3,120,11.0,67.0
716,52.0,2,120,12.0,67.0
717,48.0,2,120,13.0,65.0
718,36.0,4,120,14.0,63.0
719,64.0,109,60,10.0,110.0
720,67.0,120,60,10.0,110.0
721,71.0,120,60,10.0,110.0
722,72.0,120,120,10.0,110.0
723,84.0,0,480,0.0,78.0
724,76.0,1,480,1.0,78.0
725,60.0,0,480,3.0,80.0
726,76.0,1,360,1.0,78.0
727,69.0,352,30,10.0,110.0
728,69.0,1,30,11.0,110.0
729,57.0,2,30,12.0,110.0
730,57.0,2,30,13.0,108.0
731,45.0,4,30,14.0,106.0
732,67.0,19,30,10.0,110.0
733,67.0,3,30,11.0,110.0
734,55.0,2,30,12.0,110.0
735,55.0,2,30,13.0,108.0
736,43.0,4,30,14.0,106.0
737,65.0,19,30,10.0,110.0
738,65.0,3,30,11.0,110.0
739,53.0,2,30,12.0,110.0
740,53.0,2,30,13.0,108.0
741,41.0,4,30,14.0,106.0
742,64.0,19,30,10.0,110.0
743,76.0,1,960,0.0,78.0
744,85.0,473,480,0.0,78.0
745,69.0,2,120,1.0,78.0
746,79.0,0,480,1.0,78.0
747,64.0,3,30,11.0,110.0
748,73.0,1,480,2.0,78.0
749,76.0,0,480,2.0,78.0
750,52.0,2,30,12.0,110.0
751,52.0,2,30,13.0,108.0
752,67.0,6,960,3.0,80.0
753,57.0,5,480,3.0,80.0
754,40.0,4,30,14.0,106.0
755,77.0,0,120,0.0,62.0
756,86.0,1,120,0.0,62.0
757,69.0,1,120,1.0,62.0
758,77.0,0,120,1.0,62.0
759,74.0,0,120,2.0,62.0
760,77.0,0,120,2.0,62.0
761,62.0,1,120,11.0,110.0
762,50.0,2,120,12.0,110.0
763,50.0,2,120,13.0,108.0
764,50.0,1,120,3.0,64.0
765,65.0,0,120,3.0,64.0
766,38.0,3,120,14.0,106.0
767,62.0,19,308,10.0,110.0
768,57.0,349,90,10.0,110.0
769,61.0,90,30,10.0,110.0
770,57.0,3,120,11.0,78.0
771,53.0,2,120,12.0,78.0
772,50.0,2,120,13.0,76.0
773,38.0,4,120,14.0,74.0
774,62.0,30,308,10.0,110.0
775,57.0,349,90,10.0,110.0
776,61.0,90,30,10.0,110.0
777,62.0,30,30,10.0,110.0
778,62.0,49,30,10.0,110.0
779,57.0,3,120,11.0,78.0
780,53.0,2,120,12.0,78.0
781,50.0,2,120,13.0,76.0
782,38.0,4,120,14.0,74.0
783,57.0,60,30,10.0,110.0
784,61.0,60,30,10.0,110.0
785,62.0,60,30,10.0,110.0
786,62.0,49,30,10.0,110.0
787,57.0,3,120,11.0,78.0
788,53.0,2,120,12.0,78.0
789,50.0,2,120,13.0,76.0
790,38.0,4,120,14.0,74.0
791,57.0,60,30,10.0,110.0
792,61.0,60,30,10.0,110.0
793,62.0,60,60,10.0,110.0
794,57.0,3,120,11.0,78.0
795,53.0,2,120,12.0,78.0
796,50.0,2,120,13.0,76.0
797,38.0,4,120,14.0,74.0
798,65.0,109,60,10.0,110.0
799,69.0,120,60,10.0,110.0
800,73.0,120,60,10.0,110.0
801,74.0,120,120,10.0,110.0
802,81.0,0,480,1.0,78.0
803,69.0,0,480,2.0,78.0
804,62.0,1,0,11.0,110.0
805,62.0,1,480,12.0,110.0
806,50.0,2,0,13.0,108.0
807,62.0,0,480,3.0,80.0
808,50.0,1,480,3.0,80.0
809,38.0,3,480,14.0,106.0
810,62.0,469,20,10.0,110.0
811,60.0,2,20,12.0,110.0
812,62.0,0,20,12.0,110.0
813,60.0,7,15,11.0,110.0
814,60.0,2,20,10.0,110.0
815,38.0,3,30,14.0,106.0
816,62.0,13,15,11.0,110.0
817,62.0,3,20,10.0,110.0
818,60.0,3,15,11.0,110.0
819,62.0,4,20,12.0,110.0
820,48.0,4,30,13.0,108.0
821,36.0,1,30,14.0,106.0
822,62.0,3,15,11.0,110.0
823,60.0,12,20,10.0,110.0
824,60.0,2,20,12.0,110.0
825,60.0,7,15,11.0,110.0
826,50.0,2,30,13.0,108.0
827,62.0,2,20,10.0,110.0
828,38.0,4,30,14.0,106.0
829,62.0,5,20,12.0,110.0
830,62.0,8,15,11.0,110.0
831,60.0,3,20,10.0,110.0
832,60.0,3,15,11.0,110.0
833,60.0,4,20,12.0,110.0
834,48.0,4,30,13.0,108.0
835,36.0,1,30,14.0,106.0
836,62.0,3,15,11.0,110.0
837,62.0,12,20,10.0,110.0
838,62.0,2,20,12.0,110.0
839,60.0,7,15,11.0,110.0
840,50.0,2,30,13.0,108.0
841,60.0,2,20,10.0,110.0
842,38.0,4,30,14.0,106.0
843,60.0,5,20,12.0,110.0
844,62.0,8,15,11.0,110.0
845,62.0,3,20,10.0,110.0
846,60.0,3,15,11.0,110.0
847,62.0,4,20,12.0,110.0
848,48.0,4,30,13.0,108.0
849,36.0,1,30,14.0,106.0
850,62.0,3,15,11.0,110.0
851,60.0,12,20,10.0,110.0
852,60.0,2,20,12.0,110.0
853,60.0,7,15,11.0,110.0
854,50.0,2,30,13.0,108.0
855,62.0,2,20,10.0,110.0
856,38.0,4,30,14.0,106.0
857,62.0,5,20,12.0,110.0
858,62.0,8,15,11.0,110.0
859,60.0,3,20,10.0,110.0
860,60.0,3,15,11.0,110.0
861,60.0,4,20,12.0,110.0
862,48.0,4,30,13.0,108.0
863,36.0,1,30,14.0,106.0
864,62.0,3,15,11.0,110.0
865,62.0,12,20,10.0,110.0
866,62.0,2,20,12.0,110.0
867,60.0,7,15,11.0,110.0
868,50.0,2,30,13.0,108.0
869,60.0,2,20,10.0,110.0
870,38.0,4,30,14.0,106.0
871,60.0,5,20,12.0,110.0
872,62.0,8,15,11.0,110.0
873,62.0,3,20,10.0,110.0
874,60.0,3,15,11.0,110.0
875,62.0,4,20,12.0,110.0
876,48.0,4,30,13.0,108.0
877,36.0,1,30,14.0,106.0
878,62.0,3,15,11.0,110.0
879,60.0,12,20,10.0,110.0
880,60.0,2,20,12.0,110.0
881,60.0,7,15,11.0,110.0
882,50.0,2,30,13.0,108.0
883,62.0,2,20,10.0,110.0
884,38.0,4,30,14.0,106.0
885,62.0,5,20,12.0,110.0
886,62.0,8,15,11.0,110.0
887,60.0,3,20,10.0,110.0
888,60.0,3,15,11.0,110.0
889,60.0,4,20,12.0,110.0
890,48.0,4,30,13.0,108.0
891,36.0,1,30,14.0,106.0
892,62.0,3,15,11.0,110.0
893,62.0,12,20,10.0,110.0
894,62.0,2,20,12.0,110.0
895,60.0,7,15,11.0,110.0
896,50.0,2,30,13.0,108.0
897,60.0,2,20,10.0,110.0
898,38.0,4,30,14.0,106.0
899,60.0,5,20,12.0,110.0
900,62.0,8,15,11.0,110.0
901,62.0,3,20,10.0,110.0
902,60.0,3,15,11.0,110.0
903,62.0,4,20,12.0,110.0
904,48.0,4,30,13.0,108.0
905,36.0,1,30,14.0,106.0
906,59.0,12,30,10.0,110.0
907,59.0,3,30,11.0,110.0
908,59.0,2,30,12.0,110.0
909,47.0,2,30,13.0,108.0
910,35.0,4,30,14.0,106.0
911,60.0,19,30,10.0,110.0
912,77.0,1,960,0.0,78.0
913,86.0,1,0,0.0,98.0
914,62.0,0,960,4.0,82.0
915,77.0,1,0,1.0,98.0
916,80.0,2,480,1.0,78.0
917,65.0,1,960,2.0,78.0
918,60.0,3,30,11.0,110.0
919,68.0,0,480,2.0,78.0
920,62.0,1,960,5.0,82.0
921,60.0,2,30,12.0,110.0
922,48.0,2,30,13.0,108.0
923,60.0,1,480,3.0,80.0
924,48.0,0,480,3.0,80.0
925,36.0,4,30,14.0,106.0
926,59.0,19,308,10.0,110.0
927,59.0,0,308,11.0,110.0
928,59.0,1,308,12.0,110.0
929,47.0,2,308,13.0,108.0
930,35.0,3,308,14.0,106.0
931,77.0,0,335,0.0,98.0
932,79.0,0,335,1.0,98.0
933,62.0,0,335,4.0,102.0
934,67.0,1,335,2.0,98.0
935,65.0,0,335,2.0,98.0
936,55.0,1,335,5.0,102.0
937,59.0,0,335,3.0,100.0
938,47.0,1,335,3.0,100.0
939,55.0,349,90,10.0,110.0
940,59.0,90,30,10.0,110.0
941,62.0,30,30,10.0,110.0
942,62.0,60,30,10.0,110.0
943,55.0,60,30,10.0,110.0
944,59.0,60,30,10.0,110.0
945,62.0,60,30,10.0,110.0
946,62.0,60,30,10.0,110.0
947,55.0,60,90,10.0,110.0
948,55.0,3,90,11.0,110.0
949,55.0,2,90,12.0,110.0
950,43.0,2,90,13.0,108.0
951,55.0,0,90,3.0,100.0
952,43.0,1,90,3.0,100.0
953,31.0,3,90,14.0,106.0
954,59.0,79,30,10.0,110.0
955,59.0,3,30,11.0,110.0
956,59.0,2,30,12.0,110.0
957,47.0,2,30,13.0,108.0
958,47.0,0,30,3.0,100.0
959,59.0,1,30,3.0,100.0
960,35.0,3,30,14.0,106.0
961,62.0,19,308,10.0,110.0
962,62.0,1,308,11.0,110.0
963,62.0,1,308,12.0,110.0
964,50.0,2,308,13.0,108.0
965,38.0,3,308,14.0,106.0
966,83.0,1,335,0.0,98.0
967,77.0,0,335,1.0,98.0
968,79.0,0,335,1.0,98.0
969,67.0,1,335,4.0,102.0
970,71.0,0,335,2.0,98.0
971,65.0,0,335,2.0,98.0
972,55.0,1,335,5.0,102.0
973,50.0,1,335,3.0,100.0
974,62.0,0,335,3.0,100.0
975,55.0,349,90,10.0,110.0
976,59.0,90,30,10.0,110.0
977,62.0,30,30,10.0,110.0
978,62.0,60,30,10.0,110.0
979,55.0,60,30,10.0,110.0
980,59.0,60,30,10.0,110.0
981,62.0,60,30,10.0,110.0
982,62.0,60,30,10.0,110.0
983,59.0,60,90,10.0,110.0
984,59.0,3,90,11.0,110.0
985,59.0,2,90,12.0,110.0
986,47.0,2,90,13.0,108.0
987,47.0,0,90,3.0,100.0
988,59.0,1,90,3.0,100.0
989,35.0,3,90,14.0,106.0
990,62.0,79,30,10.0,110.0
991,62.0,3,30,11.0,110.0
992,62.0,2,30,12.0,110.0
993,50.0,2,30,13.0,108.0
994,50.0,1,0,3.0,90.0
995,62.0,0,30,3.0,100.0
996,38.0,3,30,14.0,106.0
997,43.0,2,240,15.0,104.0
998,65.0,19,308,10.0,110.0
999,65.0,0,308,11.0,110.0
1000,65.0,1,308,12.0,110.0
1001,53.0,2,308,13.0,108.0
1002,41.0,1,308,14.0,106.0
1003,71.0,349,90,10.0,100.0
1004,71.0,3,90,11.0,100.0
1005,74.0,87,30,10.0,100.0
1006,74.0,3,30,11.0,100.0
1007,77.0,27,30,10.0,100.0
1008,77.0,3,30,11.0,100.0
1009,74.0,57,30,10.0,100.0
1010,74.0,3,30,11.0,100.0
1011,86.0,0,590,0.0,88.0
1012,83.0,1,590,0.0,88.0
1013,67.0,0,590,6.0,94.0
1014,74.0,0,590,6.0,94.0
1015,79.0,1,590,1.0,88.0
1016,83.0,0,590,1.0,88.0
1017,67.0,0,590,4.0,92.0
1018,74.0,1,590,2.0,88.0
1019,71.0,0,590,2.0,88.0
1020,55.0,1,590,5.0,92.0
1021,62.0,0,590,3.0,90.0
1022,71.0,57,30,10.0,100.0
1023,71.0,1,30,11.0,100.0
1024,67.0,50,30,10.0,100.0
1025,67.0,3,30,11.0,100.0
1026,86.0,0,110,0.0,79.0
1027,83.0,1,110,0.0,79.0
1028,67.0,0,110,4.0,92.0
1029,83.0,1,110,1.0,79.0
1030,79.0,0,110,1.0,79.0
1031,74.0,0,110,6.0,94.0
1032,67.0,0,110,6.0,94.0
1033,71.0,0,110,2.0,79.0
1034,74.0,0,110,2.0,79.0
1035,55.0,1,110,5.0,92.0
1036,62.0,4,110,3.0,90.0
1037,50.0,0,110,3.0,90.0
1038,43.0,2,0,15.0,104.0
1039,65.0,57,30,10.0,100.0
1040,65.0,0,30,11.0,100.0
1041,65.0,1,30,12.0,100.0
1042,53.0,2,30,13.0,98.0
1043,41.0,1,30,14.0,96.0
1044,62.0,49,30,10.0,100.0
1045,62.0,3,30,11.0,100.0
1046,62.0,2,30,12.0,100.0
1047,50.0,2,30,13.0,98.0
1048,38.0,4,30,14.0,96.0
1049,83.0,0,110,0.0,79.0
1050,86.0,1,110,0.0,79.0
1051,67.0,1,110,6.0,94.0
1052,83.0,0,110,1.0,79.0
1053,79.0,0,110,1.0,79.0
1054,67.0,0,110,4.0,92.0
1055,74.0,0,110,6.0,94.0
1056,71.0,1,110,2.0,79.0
1057,74.0,0,110,2.0,79.0
1058,55.0,1,110,5.0,92.0
1059,62.0,1,110,3.0,90.0
1060,50.0,0,110,3.0,90.0
1061,43.0,2,0,15.0,104.0
1062,59.0,49,30,10.0,100.0
1063,59.0,0,30,11.0,100.0
1064,59.0,1,30,12.0,100.0
1065,47.0,2,30,13.0,98.0
1066,35.0,1,30,14.0,96.0
1067,55.0,49,30,10.0,100.0
1068,55.0,3,30,11.0,100.0
1069,55.0,2,30,12.0,100.0
1070,43.0,2,30,13.0,98.0
1071,31.0,4,30,14.0,96.0
1072,86.0,1,110,0.0,79.0
1073,83.0,0,110,0.0,79.0
1074,67.0,0,110,6.0,94.0
1075,74.0,0,110,6.0,94.0
1076,79.0,0,110,1.0,79.0
1077,83.0,0,110,1.0,79.0
1078,67.0,1,110,4.0,92.0
1079,74.0,1,110,2.0,79.0
1080,71.0,0,110,2.0,79.0
1081,55.0,1,110,5.0,92.0
1082,62.0,0,110,3.0,90.0
1083,50.0,1,110,3.0,90.0
1084,60.0,49,60,10.0,100.0
1085,84.0,1,60,0.0,88.0
1086,88.0,0,60,0.0,88.0
1087,67.0,0,60,4.0,102.0
1088,76.0,0,60,6.0,104.0
1089,72.0,1,60,6.0,104.0
1090,84.0,0,60,1.0,88.0
1091,79.0,0,60,1.0,88.0
1092,76.0,1,60,2.0,88.0
1093,72.0,0,60,2.0,88.0
1094,60.0,0,60,11.0,100.0
1095,55.0,1,60,5.0,102.0
1096,60.0,1,60,12.0,100.0
1097,48.0,2,60,13.0,98.0
1098,48.0,0,60,3.0,100.0
1099,60.0,1,60,3.0,100.0
1100,48.0,2,60,15.0,102.0
1101,36.0,1,60,14.0,96.0
1102,65.0,229,60,10.0,100.0
1103,89.0,0,60,0.0,88.0
1104,81.0,1,60,0.0,88.0
1105,81.0,0,60,1.0,88.0
1106,72.0,0,60,1.0,88.0
1107,60.0,0,60,6.0,94.0
1108,60.0,1,60,4.0,92.0
1109,72.0,0,60,6.0,94.0
1110,65.0,1,60,11.0,100.0
1111,69.0,0,60,2.0,88.0
1112,77.0,0,60,2.0,88.0
1113,48.0,1,60,5.0,92.0
1114,65.0,1,60,12.0,100.0
1115,53.0,2,60,13.0,98.0
1116,53.0,1,60,3.0,100.0
1117,48.0,0,60,15.0,102.0
1118,81.0,0,60,10.0,100.0
1119,72.0,2,60,10.0,100.0
1120,41.0,1,60,14.0,96.0
1121,72.0,0,60,11.0,100.0
1122,81.0,2,60,11.0,100.0
1123,64.0,227,60,10.0,100.0
1124,79.0,1,60,0.0,88.0
1125,88.0,0,60,0.0,88.0
1126,60.0,0,60,6.0,94.0
1127,72.0,0,60,6.0,94.0
1128,60.0,0,60,4.0,92.0
1129,76.0,1,60,1.0,88.0
1130,72.0,0,60,1.0,88.0
1131,76.0,0,60,2.0,88.0
1132,67.0,1,60,2.0,88.0
1133,64.0,0,60,11.0,100.0
1134,48.0,1,60,5.0,92.0
1135,67.0,1,60,12.0,100.0
1136,55.0,2,60,13.0,98.0
1137,55.0,1,60,3.0,100.0
1138,79.0,0,60,10.0,100.0
1139,72.0,0,60,10.0,100.0
1140,48.0,2,60,15.0,102.0
1141,43.0,1,60,14.0,96.0
1142,72.0,0,60,11.0,100.0
1143,79.0,2,60,11.0,100.0
1144,55.0,227,60,10.0,100.0
1145,77.0,0,60,0.0,88.0
1146,83.0,1,60,0.0,88.0
1147,67.0,0,60,6.0,94.0
1148,71.0,0,60,1.0,88.0
1149,74.0,1,60,1.0,88.0
1150,55.0,0,60,6.0,94.0
1151,62.0,0,60,4.0,92.0
1152,65.0,0,60,2.0,88.0
1153,71.0,1,60,2.0,88.0
1154,55.0,0,60,11.0,100.0
1155,55.0,1,60,5.0,92.0
1156,55.0,1,60,12.0,100.0
1157,43.0,2,60,13.0,98.0
1158,43.0,1,60,3.0,100.0
1159,71.0,0,60,10.0,100.0
1160,62.0,0,60,10.0,100.0
1161,43.0,2,60,15.0,102.0
1162,31.0,1,60,14.0,96.0
1163,62.0,0,60,11.0,100.0
1164,71.0,2,60,11.0,100.0
1165,60.0,1,50,12.0,100.0
1166,48.0,2,50,13.0,98.0
1167,48.0,1,50,3.0,100.0
1168,76.0,0,60,0.0,88.0
1169,84.0,1,60,0.0,88.0
1170,36.0,1,50,14.0,96.0
1171,72.0,1,60,6.0,94.0
1172,60.0,0,60,6.0,94.0
1173,60.0,0,60,4.0,92.0
1174,64.0,0,60,1.0,88.0
1175,72.0,0,60,1.0,88.0
1176,72.0,0,60,2.0,88.0
1177,64.0,1,60,2.0,88.0
1178,52.0,1,60,5.0,92.0
1179,48.0,2,60,15.0,102.0
1180,52.0,0,50,12.0,100.0
1181,55.0,52,50,12.0,100.0
1182,48.0,2,50,13.0,98.0
1183,48.0,1,50,3.0,100.0
1184,36.0,3,50,14.0,96.0
1185,52.0,0,50,12.0,100.0
1186,55.0,54,50,12.0,100.0
1187,48.0,2,50,13.0,98.0
1188,48.0,1,50,3.0,100.0
1189,36.0,3,50,14.0,96.0
1190,52.0,0,50,12.0,100.0
1191,55.0,54,50,12.0,100.0
1192,48.0,2,50,13.0,98.0
1193,48.0,1,50,3.0,100.0
1194,36.0,3,50,14.0,96.0
1195,52.0,0,50,12.0,100.0
1196,55.0,54,50,12.0,100.0
1197,48.0,2,50,13.0,98.0
1198,48.0,1,50,3.0,100.0
1199,36.0,3,50,14.0,96.0
1200,55.0,227,350,10.0,100.0
1201,55.0,0,350,11.0,100.0
1202,55.0,54,50,12.0,100.0
1203,52.0,0,50,12.0,100.0
1204,48.0,2,50,13.0,98.0
1205,48.0,1,50,3.0,100.0
1206,64.0,0,350,10.0,100.0
1207,36.0,3,50,14.0,96.0
1208,64.0,0,350,11.0,100.0
1209,72.0,0,360,10.0,100.0
1210,72.0,2,360,11.0,100.0
1211,52.0,2,50,12.0,100.0
1212,55.0,0,50,12.0,100.0
1213,48.0,2,50,13.0,98.0
1214,48.0,1,50,3.0,100.0
1215,36.0,3,50,14.0,96.0
1216,76.0,49,110,10.0,100.0
1217,64.0,3,110,11.0,100.0
1218,55.0,54,50,12.0,100.0
1219,52.0,0,50,12.0,100.0
1220,48.0,2,50,13.0,98.0
1221,48.0,1,50,3.0,100.0
1222,36.0,3,50,14.0,96.0
1223,55.0,0,50,12.0,100.0
1224,52.0,2,50,12.0,100.0
1225,48.0,2,50,13.0,98.0
1226,48.0,1,50,3.0,100.0
1227,36.0,3,50,14.0,96.0
1228,55.0,0,50,12.0,100.0
1229,52.0,54,50,12.0,100.0
1230,48.0,2,50,13.0,98.0
1231,48.0,1,50,3.0,100.0
1232,36.0,3,50,14.0,96.0
1233,52.0,1,50,12.0,100.0
1234,55.0,0,50,12.0,100.0
1235,48.0,2,50,13.0,98.0
1236,48.0,1,50,3.0,100.0
1237,36.0,3,50,14.0,96.0
1238,84.0,50,110,0.0,113.0
1239,72.0,0,110,1.0,113.0
1240,76.0,1,110,1.0,113.0
1241,55.0,0,50,12.0,100.0
1242,52.0,54,50,12.0,100.0
1243,48.0,2,50,13.0,98.0
1244,48.0,1,50,3.0,100.0
1245,36.0,3,50,14.0,96.0
1246,60.0,0,120,4.0,87.0
1247,52.0,2,120,5.0,87.0
1248,55.0,0,50,12.0,100.0
1249,52.0,1,50,12.0,100.0
1250,48.0,2,50,13.0,98.0
1251,48.0,1,50,3.0,100.0
1252,36.0,3,50,14.0,96.0
1253,79.0,49,350,10.0,100.0
1254,84.0,50,110,0.0,113.0
1255,76.0,0,110,1.0,113.0
1256,72.0,0,110,1.0,113.0
1257,67.0,3,350,11.0,100.0
1258,52.0,54,50,12.0,100.0
1259,55.0,0,50,12.0,100.0
1260,48.0,2,50,13.0,98.0
1261,48.0,1,50,3.0,100.0
1262,36.0,3,50,14.0,96.0
1263,60.0,1,0,4.0,87.0
1264,52.0,2,120,5.0,87.0
1265,77.0,49,30,10.0,100.0
1266,65.0,1,30,11.0,100.0
1267,55.0,0,50,12.0,100.0
1268,52.0,1,50,12.0,100.0
1269,48.0,2,50,13.0,98.0
1270,48.0,1,50,3.0,100.0
1271,76.0,19,30,10.0,100.0
1272,36.0,3,50,14.0,96.0
1273,64.0,3,30,11.0,100.0
1274,74.0,27,30,10.0,100.0
1275,62.0,3,30,11.0,100.0
1276,72.0,19,20,10.0,100.0
1277,84.0,1,110,0.0,113.0
1278,76.0,0,110,1.0,113.0
1279,72.0,0,110,1.0,113.0
1280,60.0,3,20,11.0,100.0
1281,52.0,2,50,12.0,100.0
1282,55.0,0,50,12.0,100.0
1283,48.0,2,50,13.0,98.0
1284,48.0,1,50,3.0,100.0
1285,36.0,3,50,14.0,96.0
1286,52.0,1,120,5.0,87.0
1287,71.0,27,50,10.0,67.0
1288,62.0,0,50,10.0,67.0
1289,59.0,1,50,11.0,78.0
1290,53.0,1,50,12.0,86.0
1291,55.0,0,50,12.0,86.0
1292,48.0,2,50,13.0,98.0
1293,48.0,1,50,3.0,100.0
1294,36.0,3,50,14.0,96.0
1295,62.0,0,50,10.0,67.0
1296,71.0,49,50,10.0,67.0
1297,59.0,3,50,11.0,78.0
1298,62.0,0,50,11.0,78.0
1299,55.0,2,50,12.0,86.0
1300,53.0,0,50,12.0,86.0
1301,48.0,2,50,13.0,98.0
1302,48.0,1,50,3.0,100.0
1303,36.0,3,50,14.0,96.0
1304,62.0,0,50,10.0,67.0
1305,71.0,49,50,10.0,67.0
1306,62.0,0,50,11.0,78.0
1307,59.0,3,50,11.0,78.0
1308,53.0,2,50,12.0,86.0
1309,55.0,0,50,12.0,86.0
1310,48.0,2,50,13.0,98.0
1311,48.0,1,50,3.0,100.0
1312,36.0,3,50,14.0,96.0
1313,71.0,0,50,10.0,67.0
1314,62.0,49,50,10.0,67.0
1315,59.0,3,50,11.0,78.0
1316,62.0,0,50,11.0,78.0
1317,53.0,0,50,12.0,86.0
1318,55.0,2,50,12.0,86.0
1319,48.0,2,50,13.0,98.0
1320,48.0,1,50,3.0,100.0
1321,36.0,3,50,14.0,96.0
1322,62.0,49,50,10.0,67.0
1323,71.0,0,50,10.0,67.0
1324,62.0,3,50,11.0,78.0
1325,59.0,0,50,11.0,78.0
1326,53.0,2,50,12.0,86.0
1327,55.0,0,50,12.0,86.0
1328,48.0,2,50,13.0,98.0
1329,48.0,1,50,3.0,100.0
1330,36.0,3,50,14.0,96.0
1331,71.0,49,50,10.0,67.0
1332,62.0,0,50,10.0,67.0
1333,59.0,3,50,11.0,78.0
1334,62.0,0,50,11.0,78.0
1335,55.0,2,50,12.0,86.0
1336,53.0,0,50,12.0,86.0
1337,48.0,2,50,13.0,98.0
1338,48.0,1,50,3.0,100.0
1339,36.0,3,50,14.0,96.0
1340,83.0,1,360,0.0,118.0
1341,71.0,0,360,2.0,118.0
1342,59.0,0,360,3.0,105.0
1343,71.0,0,50,10.0,67.0
1344,62.0,49,50,10.0,67.0
1345,59.0,2,50,11.0,78.0
1346,62.0,0,50,11.0,78.0
1347,53.0,2,50,12.0,86.0
1348,55.0,0,50,12.0,86.0
1349,48.0,2,50,13.0,98.0
1350,48.0,0,50,3.0,100.0
1351,36.0,3,50,14.0,96.0
1352,62.0,49,50,10.0,67.0
1353,71.0,0,50,10.0,67.0
1354,86.0,1,110,0.0,125.0
1355,62.0,0,50,11.0,78.0
1356,59.0,3,50,11.0,78.0
1357,74.0,0,110,2.0,125.0
1358,53.0,2,50,12.0,86.0
1359,55.0,0,50,12.0,86.0
1360,48.0,2,50,13.0,98.0
1361,48.0,1,50,3.0,100.0
1362,36.0,3,50,14.0,96.0
1363,62.0,1,120,3.0,114.0
1364,62.0,0,50,10.0,67.0
1365,71.0,49,50,10.0,67.0
1366,59.0,0,50,11.0,78.0
1367,62.0,0,50,11.0,78.0
1368,53.0,0,50,12.0,86.0
1369,55.0,2,50,12.0,86.0
1370,48.0,2,50,13.0,98.0
1371,48.0,1,50,3.0,100.0
1372,36.0,3,50,14.0,96.0
1373,62.0,49,50,10.0,67.0
1374,71.0,0,50,10.0,67.0
1375,62.0,0,50,11.0,78.0
1376,59.0,3,50,11.0,78.0
1377,55.0,0,50,12.0,86.0
1378,53.0,2,50,12.0,86.0
1379,48.0,2,50,13.0,98.0
1380,48.0,1,50,3.0,100.0
1381,36.0,3,50,14.0,96.0
1382,71.0,0,600,1.0,113.0
1383,77.0,1,600,1.0,113.0
1384,62.0,0,0,4.0,87.0
1385,55.0,1,0,5.0,87.0
1386,71.0,0,50,10.0,67.0
1387,62.0,49,50,10.0,67.0
1388,59.0,0,50,11.0,78.0
1389,62.0,1,50,11.0,78.0
1390,53.0,1,50,12.0,86.0
1391,55.0,0,50,12.0,86.0
1392,48.0,2,50,13.0,98.0
1393,48.0,1,50,3.0,100.0
1394,36.0,1,50,14.0,96.0
1395,71.0,0,50,10.0,67.0
1396,62.0,49,50,10.0,67.0
1397,71.0,2,110,1.0,113.0
1398,65.0,0,110,1.0,113.0
1399,62.0,0,50,11.0,78.0
1400,59.0,3,50,11.0,78.0
1401,55.0,0,50,12.0,86.0
1402,53.0,2,50,12.0,86.0
1403,48.0,2,50,13.0,98.0
1404,48.0,1,50,3.0,100.0
1405,36.0,3,50,14.0,96.0
1406,74.0,0,120,6.0,89.0
1407,67.0,0,120,6.0,89.0
1408,55.0,1,0,5.0,87.0
1409,48.0,2,120,15.0,90.0
1410,62.0,0,50,10.0,67.0
1411,71.0,49,50,10.0,67.0
1412,59.0,0,50,11.0,78.0
1413,62.0,1,50,11.0,78.0
1414,55.0,0,50,12.0,86.0
1415,53.0,1,50,12.0,86.0
1416,48.0,2,50,13.0,98.0
1417,48.0,1,50,3.0,100.0
1418,36.0,1,50,14.0,96.0
1419,71.0,49,50,10.0,67.0
1420,62.0,0,50,10.0,67.0
1421,89.0,1,350,0.0,125.0
1422,71.0,0,110,1.0,113.0
1423,65.0,2,110,1.0,113.0
1424,59.0,3,50,11.0,78.0
1425,77.0,2,350,2.0,125.0
1426,62.0,0,50,11.0,78.0
1427,53.0,2,50,12.0,86.0
1428,55.0,0,50,12.0,86.0
1429,48.0,2,50,13.0,98.0
1430,48.0,1,50,3.0,100.0
1431,65.0,0,350,3.0,117.0
1432,36.0,3,50,14.0,96.0
1433,67.0,0,120,6.0,89.0
1434,62.0,0,120,4.0,87.0
1435,74.0,0,120,6.0,89.0
1436,55.0,1,0,5.0,87.0
1437,48.0,2,0,15.0,90.0
1438,88.0,1,30,0.0,125.0
1439,76.0,0,30,2.0,125.0
1440,64.0,1,30,3.0,117.0
1441,62.0,49,50,10.0,67.0
1442,71.0,0,50,10.0,67.0
1443,62.0,1,50,11.0,78.0
1444,59.0,0,50,11.0,78.0
1445,53.0,1,50,12.0,86.0
1446,55.0,0,50,12.0,86.0
1447,48.0,2,50,13.0,98.0
1448,48.0,0,50,3.0,100.0
1449,86.0,20,30,0.0,125.0
1450,36.0,1,50,14.0,96.0
1451,74.0,2,30,2.0,125.0
1452,62.0,5,30,3.0,117.0
1453,84.0,1,30,0.0,125.0
1454,72.0,0,30,2.0,125.0
1455,60.0,0,30,3.0,117.0
1456,62.0,22,50,10.0,67.0
1457,71.0,0,50,10.0,67.0
1458,83.0,20,20,0.0,125.0
1459,71.0,0,110,1.0,113.0
1460,65.0,0,110,1.0,113.0
1461,59.0,2,50,11.0,78.0
1462,71.0,2,20,2.0,125.0
1463,62.0,0,50,11.0,78.0
1464,55.0,0,50,12.0,86.0
1465,53.0,2,50,12.0,86.0
1466,48.0,2,50,13.0,98.0
1467,48.0,1,50,3.0,100.0
1468,59.0,5,20,3.0,117.0
1469,36.0,3,50,14.0,96.0
1470,62.0,1,120,4.0,87.0
1471,74.0,0,120,6.0,89.0
1472,67.0,0,120,6.0,89.0
1473,48.0,2,0,15.0,90.0
1474,55.0,0,50,12.0,100.0
1475,52.0,1,50,12.0,100.0
1476,48.0,2,50,13.0,98.0
1477,48.0,0,50,3.0,100.0
1478,72.0,22,60,10.0,100.0
1479,36.0,1,50,14.0,96.0
1480,60.0,0,60,11.0,100.0
1481,71.0,49,50,10.0,100.0
1482,59.0,3,50,11.0,100.0
1483,55.0,2,50,12.0,100.0
1484,64.0,0,50,12.0,100.0
1485,48.0,2,50,13.0,98.0
1486,48.0,1,50,3.0,100.0
1487,84.0,1,120,0.0,112.0
1488,36.0,3,50,14.0,96.0
1489,60.0,0,120,4.0,87.0
1490,64.0,0,120,1.0,101.0
1491,72.0,0,120,6.0,89.0
1492,64.0,1,120,6.0,89.0
1493,72.0,0,120,1.0,101.0
1494,72.0,1,120,2.0,112.0
1495,52.0,1,120,5.0,87.0
1496,60.0,1,120,3.0,117.0
1497,72.0,49,30,10.0,100.0
1498,60.0,3,30,11.0,100.0
1499,55.0,0,50,12.0,100.0
1500,64.0,2,50,12.0,100.0
1501,48.0,2,50,13.0,98.0
1502,48.0,1,50,3.0,100.0
1503,36.0,3,50,14.0,96.0
1504,74.0,49,30,10.0,100.0
1505,62.0,3,30,11.0,100.0
1506,55.0,2,50,12.0,100.0
1507,64.0,0,50,12.0,100.0
1508,48.0,2,50,13.0,98.0
1509,48.0,1,50,3.0,100.0
1510,36.0,3,50,14.0,96.0
1511,64.0,2,50,12.0,100.0
1512,55.0,0,50,12.0,100.0
1513,48.0,2,50,13.0,98.0
1514,48.0,1,50,3.0,100.0
1515,76.0,49,60,10.0,100.0
1516,36.0,3,50,14.0,96.0
1517,64.0,3,60,11.0,100.0
1518,74.0,49,50,10.0,100.0
1519,62.0,3,50,11.0,100.0
1520,55.0,2,50,12.0,100.0
1521,64.0,0,50,12.0,100.0
1522,48.0,2,50,13.0,98.0
1523,48.0,1,50,3.0,100.0
1524,36.0,3,50,14.0,96.0
1525,76.0,49,30,10.0,100.0
1526,64.0,3,30,11.0,100.0
1527,55.0,2,50,12.0,100.0
1528,64.0,0,50,12.0,100.0
1529,48.0,2,50,13.0,98.0
1530,48.0,1,50,3.0,100.0
1531,36.0,3,50,14.0,96.0
1532,77.0,49,30,10.0,100.0
1533,65.0,3,30,11.0,100.0
1534,55.0,2,50,12.0,100.0
1535,64.0,0,50,12.0,100.0
1536,48.0,2,50,13.0,98.0
1537,48.0,1,50,3.0,100.0
1538,36.0,3,50,14.0,96.0
1539,55.0,2,50,12.0,100.0
1540,64.0,0,50,12.0,100.0
1541,48.0,2,50,13.0,98.0
1542,48.0,1,50,3.0,100.0
1543,79.0,49,60,10.0,100.0
1544,36.0,3,50,14.0,96.0
1545,67.0,3,60,11.0,100.0
1546,78.0,49,50,10.0,100.0
1547,66.0,3,50,11.0,100.0
1548,64.0,2,50,12.0,100.0
1549,55.0,0,50,12.0,100.0
1550,48.0,2,50,13.0,98.0
1551,48.0,1,50,3.0,100.0
1552,36.0,3,50,14.0,96.0
1553,79.0,49,30,10.0,100.0
1554,67.0,0,30,11.0,100.0
1555,55.0,0,50,12.0,100.0
1556,64.0,1,50,12.0,100.0
1557,48.0,2,50,13.0,98.0
1558,48.0,0,50,3.0,100.0
1559,36.0,3,50,14.0,96.0
1560,78.0,49,30,10.0,100.0
1561,66.0,3,30,11.0,100.0
1562,84.0,1,110,0.0,113.0
1563,76.0,0,110,1.0,113.0
1564,72.0,0,110,1.0,113.0
1565,72.0,1,110,2.0,113.0
1566,64.0,0,110,2.0,113.0
1567,55.0,2,50,12.0,100.0
1568,64.0,0,50,12.0,100.0
1569,48.0,2,50,13.0,98.0
1570,48.0,1,50,3.0,100.0
1571,60.0,1,110,3.0,100.0
1572,36.0,3,50,14.0,96.0
1573,60.0,0,0,4.0,87.0
1574,52.0,1,0,5.0,87.0
1575,64.0,0,50,12.0,100.0
1576,55.0,1,50,12.0,100.0
1577,48.0,2,50,13.0,98.0
1578,48.0,0,50,3.0,100.0
1579,79.0,49,60,10.0,100.0
1580,36.0,3,50,14.0,96.0
1581,67.0,1,60,11.0,100.0
1582,76.0,49,50,10.0,100.0
1583,84.0,1,110,0.0,113.0
1584,72.0,0,110,1.0,113.0
1585,76.0,1,110,1.0,113.0
1586,64.0,3,50,11.0,100.0
1587,64.0,0,110,2.0,113.0
1588,72.0,0,110,2.0,113.0
1589,64.0,2,50,12.0,100.0
1590,55.0,0,50,12.0,100.0
1591,48.0,2,50,13.0,98.0
1592,48.0,1,50,3.0,100.0
1593,60.0,1,110,3.0,100.0
1594,36.0,3,50,14.0,96.0
1595,52.0,1,0,5.0,87.0
1596,74.0,49,30,10.0,100.0
1597,62.0,0,30,11.0,100.0
1598,64.0,1,50,12.0,100.0
1599,55.0,0,50,12.0,100.0
1600,48.0,2,50,13.0,98.0
1601,48.0,1,50,3.0,100.0
1602,36.0,3,50,14.0,96.0
1603,72.0,49,30,10.0,100.0
1604,60.0,3,30,11.0,100.0
1605,84.0,1,110,0.0,113.0
1606,72.0,1,110,1.0,113.0
1607,76.0,0,110,1.0,113.0
1608,64.0,0,110,2.0,113.0
1609,72.0,1,110,2.0,113.0
1610,64.0,0,50,12.0,100.0
1611,55.0,2,50,12.0,100.0
1612,48.0,2,50,13.0,98.0
1613,48.0,1,50,3.0,100.0
1614,60.0,0,110,3.0,100.0
1615,36.0,3,50,14.0,96.0
1616,60.0,0,120,4.0,87.0
1617,62.0,0,50,10.0,67.0
1618,71.0,49,50,10.0,67.0
1619,59.0,0,50,11.0,78.0
1620,65.0,0,50,12.0,86.0
1621,55.0,1,50,12.0,86.0
1622,48.0,2,50,13.0,98.0
1623,48.0,1,50,3.0,100.0
1624,83.0,1,60,0.0,125.0
1625,36.0,3,50,14.0,96.0
1626,71.0,1,60,2.0,125.0
1627,59.0,0,60,3.0,115.0
1628,62.0,49,50,10.0,67.0
1629,71.0,0,50,10.0,67.0
1630,59.0,0,50,11.0,78.0
1631,62.0,0,50,11.0,78.0
1632,55.0,0,50,12.0,86.0
1633,65.0,2,50,12.0,86.0
1634,48.0,2,50,13.0,98.0
1635,48.0,0,50,3.0,100.0
1636,36.0,3,50,14.0,96.0
1637,81.0,1,60,0.0,125.0
1638,69.0,2,60,2.0,125.0
1639,57.0,1,60,3.0,115.0
1640,71.0,0,50,10.0,67.0
1641,62.0,49,50,10.0,67.0
1642,62.0,0,50,11.0,78.0
1643,59.0,0,50,11.0,78.0
1644,65.0,2,50,12.0,86.0
1645,55.0,0,50,12.0,86.0
1646,48.0,2,50,13.0,98.0
1647,48.0,0,50,3.0,100.0
1648,79.0,1,60,0.0,125.0
1649,36.0,3,50,14.0,96.0
1650,67.0,2,60,2.0,125.0
1651,55.0,1,60,3.0,115.0
1652,71.0,0,50,10.0,67.0
1653,62.0,49,50,10.0,67.0
1654,59.0,0,50,11.0,78.0
1655,62.0,0,50,11.0,78.0
1656,65.0,0,50,12.0,86.0
1657,55.0,2,50,12.0,86.0
1658,48.0,2,50,13.0,98.0
1659,48.0,1,50,3.0,100.0
1660,81.0,1,60,0.0,125.0
1661,36.0,3,50,14.0,96.0
1662,69.0,2,60,2.0,125.0
1663,57.0,0,60,3.0,115.0
1664,62.0,0,50,10.0,67.0
1665,71.0,49,50,10.0,67.0
1666,62.0,0,50,11.0,78.0
1667,59.0,0,50,11.0,78.0
1668,65.0,2,50,12.0,86.0
1669,55.0,0,50,12.0,86.0
1670,48.0,2,50,13.0,98.0
1671,48.0,1,50,3.0,100.0
1672,83.0,1,60,0.0,125.0
1673,36.0,3,50,14.0,96.0
1674,71.0,2,60,2.0,125.0
1675,59.0,0,60,3.0,115.0
1676,62.0,49,50,10.0,67.0
1677,71.0,0,50,10.0,67.0
1678,62.0,2,50,11.0,78.0
1679,59.0,0,50,11.0,78.0
1680,55.0,2,50,12.0,86.0
1681,65.0,0,50,12.0,86.0
1682,48.0,2,50,13.0,98.0
1683,48.0,0,50,3.0,100.0
1684,84.0,1,60,0.0,125.0
1685,36.0,3,50,14.0,96.0
1686,72.0,0,60,2.0,125.0
1687,60.0,1,60,3.0,115.0
1688,62.0,49,50,10.0,67.0
1689,71.0,0,50,10.0,67.0
1690,59.0,0,50,11.0,78.0
1691,62.0,2,50,11.0,78.0
1692,55.0,0,50,12.0,86.0
1693,65.0,2,50,12.0,86.0
1694,48.0,2,50,13.0,98.0
1695,48.0,0,50,3.0,100.0
1696,86.0,1,60,0.0,125.0
1697,36.0,3,50,14.0,96.0
1698,74.0,0,60,2.0,125.0
1699,62.0,1,60,3.0,115.0
1700,71.0,49,50,10.0,67.0
1701,62.0,0,50,10.0,67.0
1702,88.0,1,50,0.0,125.0
1703,62.0,0,50,11.0,78.0
1704,59.0,2,50,11.0,78.0
1705,76.0,0,50,2.0,125.0
1706,65.0,0,50,12.0,86.0
1707,55.0,2,50,12.0,86.0
1708,48.0,2,50,13.0,98.0
1709,64.0,1,50,3.0,115.0
1710,48.0,0,50,3.0,100.0
1711,36.0,3,50,14.0,96.0
1712,62.0,49,50,10.0,67.0
1713,71.0,0,50,10.0,67.0
1714,59.0,0,50,11.0,78.0
1715,62.0,0,50,11.0,78.0
1716,65.0,2,50,12.0,86.0
1717,55.0,0,50,12.0,86.0
1718,48.0,2,50,13.0,98.0
1719,48.0,0,50,3.0,100.0
1720,89.0,1,60,0.0,125.0
1721,36.0,3,50,14.0,96.0
1722,77.0,2,60,2.0,125.0
1723,65.0,1,60,3.0,115.0
1724,71.0,49,50,10.0,67.0
1725,62.0,0,50,10.0,67.0
1726,59.0,0,50,11.0,78.0
1727,62.0,2,50,11.0,78.0
1728,65.0,0,50,12.0,86.0
1729,55.0,2,50,12.0,86.0
1730,48.0,2,50,13.0,98.0
1731,48.0,0,50,3.0,100.0
1732,36.0,3,50,14.0,96.0
1733,88.0,1,60,0.0,125.0
1734,71.0,0,600,1.0,113.0
1735,62.0,0,0,4.0,87.0
1736,77.0,1,600,1.0,113.0
1737,76.0,0,60,2.0,125.0
1738,55.0,1,0,5.0,87.0
1739,64.0,1,60,3.0,115.0
1740,71.0,49,50,10.0,67.0
1741,62.0,0,50,10.0,67.0
1742,59.0,0,50,11.0,78.0
1743,62.0,0,50,11.0,78.0
1744,65.0,1,50,12.0,86.0
1745,55.0,0,50,12.0,86.0
1746,48.0,2,50,13.0,98.0
1747,48.0,0,50,3.0,100.0
1748,89.0,1,60,0.0,125.0
1749,36.0,1,50,14.0,96.0
1750,77.0,1,60,2.0,125.0
1751,65.0,1,60,3.0,115.0
1752,71.0,49,50,10.0,67.0
1753,62.0,0,50,10.0,67.0
1754,71.0,0,110,1.0,113.0
1755,65.0,0,110,1.0,113.0
1756,62.0,0,50,11.0,78.0
1757,59.0,0,50,11.0,78.0
1758,55.0,0,50,12.0,86.0
1759,65.0,2,50,12.0,86.0
1760,48.0,2,50,13.0,98.0
1761,48.0,1,50,3.0,100.0
1762,88.0,1,60,0.0,125.0
1763,36.0,3,50,14.0,96.0
1764,67.0,0,120,6.0,89.0
1765,74.0,1,0,6.0,89.0
1766,76.0,2,60,2.0,125.0
1767,55.0,1,0,5.0,87.0
1768,64.0,0,60,3.0,115.0
1769,48.0,2,0,15.0,90.0
1770,62.0,49,50,10.0,67.0
1771,71.0,0,50,10.0,67.0
1772,62.0,0,50,11.0,78.0
1773,59.0,1,50,11.0,78.0
1774,65.0,0,50,12.0,86.0
1775,55.0,1,50,12.0,86.0
1776,48.0,2,50,13.0,98.0
1777,48.0,0,50,3.0,100.0
1778,36.0,1,50,14.0,96.0
1779,89.0,1,60,0.0,125.0
1780,77.0,0,60,2.0,125.0
1781,65.0,1,60,3.0,115.0
1782,62.0,0,50,10.0,67.0
1783,71.0,49,50,10.0,67.0
1784,65.0,0,110,1.0,113.0
1785,71.0,0,110,1.0,113.0
1786,62.0,2,50,11.0,78.0
1787,59.0,0,50,11.0,78.0
1788,65.0,2,50,12.0,86.0
1789,55.0,0,50,12.0,86.0
1790,48.0,2,50,13.0,98.0
1791,48.0,0,50,3.0,100.0
1792,86.0,1,60,0.0,125.0
1793,36.0,3,50,14.0,96.0
1794,67.0,1,0,6.0,89.0
1795,62.0,0,120,4.0,87.0
1796,74.0,0,60,2.0,125.0
1797,62.0,1,60,3.0,115.0
1798,48.0,2,0,15.0,90.0
1799,71.0,49,50,10.0,67.0
1800,62.0,0,50,10.0,67.0
1801,59.0,0,50,11.0,78.0
1802,62.0,1,50,11.0,78.0
1803,65.0,1,50,12.0,86.0
1804,55.0,0,50,12.0,86.0
1805,48.0,2,50,13.0,98.0
1806,48.0,1,50,3.0,100.0
1807,84.0,1,60,0.0,125.0
1808,36.0,1,50,14.0,96.0
1809,72.0,0,60,2.0,125.0
1810,60.0,0,60,3.0,115.0
1811,71.0,49,50,10.0,67.0
1812,62.0,0,50,10.0,67.0
1813,83.0,1,50,0.0,125.0
1814,71.0,0,110,1.0,113.0
1815,65.0,0,110,1.0,113.0
1816,71.0,2,50,2.0,125.0
1817,59.0,0,50,11.0,78.0
1818,62.0,0,50,11.0,78.0
1819,55.0,0,50,12.0,86.0
1820,65.0,2,50,12.0,86.0
1821,48.0,2,50,13.0,98.0
1822,59.0,0,50,3.0,115.0
1823,48.0,1,50,3.0,100.0
1824,36.0,3,50,14.0,96.0
1825,62.0,0,120,4.0,87.0
1826,74.0,0,120,6.0,89.0
1827,55.0,1,120,5.0,87.0
1828,72.0,49,30,10.0,100.0
1829,60.0,1,30,11.0,100.0
1830,72.0,49,30,10.0,100.0
1831,60.0,3,30,11.0,100.0
1832,84.0,1,120,0.0,112.0
1833,64.0,0,120,1.0,101.0
1834,64.0,0,120,6.0,89.0
1835,72.0,1,120,6.0,89.0
1836,72.0,0,120,1.0,101.0
1837,60.0,0,120,4.0,87.0
1838,72.0,0,120,2.0,112.0
1839,52.0,1,120,5.0,87.0
1840,55.0,1,120,12.0,100.0
1841,64.0,0,120,12.0,100.0
1842,48.0,2,120,13.0,98.0
1843,60.0,0,120,3.0,115.0
1844,48.0,1,120,3.0,100.0
1845,48.0,2,120,15.0,90.0
1846,36.0,1,120,14.0,96.0
1847,67.0,57,30,10.0,100.0
1848,55.0,3,30,11.0,100.0
1849,71.0,57,30,10.0,100.0
1850,59.0,3,30,11.0,100.0
1851,72.0,57,30,10.0,100.0
1852,60.0,3,30,11.0,100.0
1853,72.0,57,30,10.0,100.0
1854,60.0,3,30,11.0,100.0
1855,69.0,57,30,10.0,100.0
1856,81.0,1,30,0.0,98.0
1857,69.0,1,30,1.0,98.0
1858,69.0,0,30,2.0,98.0
1859,57.0,1,30,11.0,100.0
1860,57.0,2,30,12.0,100.0
1861,45.0,2,30,13.0,98.0
1862,45.0,1,30,3.0,100.0
1863,33.0,3,30,14.0,96.0
1864,73.0,49,30,10.0,100.0
1865,85.0,1,30,0.0,98.0
1866,73.0,1,30,1.0,98.0
1867,61.0,1,30,11.0,100.0
1868,73.0,0,30,2.0,98.0
1869,61.0,2,30,12.0,100.0
1870,49.0,2,30,13.0,98.0
1871,49.0,1,30,3.0,100.0
1872,37.0,3,30,14.0,96.0
1873,74.0,49,30,10.0,100.0
1874,62.0,0,30,11.0,100.0
1875,74.0,49,30,10.0,100.0
1876,62.0,3,30,11.0,100.0
1877,86.0,1,120,0.0,98.0
1878,74.0,1,120,1.0,98.0
1879,74.0,1,120,2.0,98.0
1880,62.0,2,120,12.0,100.0
1881,50.0,2,120,13.0,98.0
1882,50.0,1,120,3.0,100.0
1883,38.0,3,120,14.0,96.0
1884,69.0,57,30,10.0,100.0
1885,57.0,3,30,11.0,100.0
1886,73.0,57,30,10.0,100.0
1887,61.0,3,30,11.0,100.0
1888,74.0,57,30,10.0,100.0
1889,62.0,3,30,11.0,100.0
1890,74.0,57,30,10.0,100.0
1891,62.0,3,30,11.0,100.0
1892,71.0,57,30,10.0,100.0
1893,83.0,1,30,0.0,98.0
1894,71.0,1,30,1.0,98.0
1895,59.0,0,30,11.0,100.0
1896,71.0,1,30,2.0,98.0
1897,59.0,2,30,12.0,100.0
1898,47.0,2,30,13.0,98.0
1899,47.0,1,30,3.0,100.0
1900,35.0,3,30,14.0,96.0
1901,75.0,49,30,10.0,100.0
1902,87.0,1,30,0.0,98.0
1903,75.0,1,30,1.0,98.0
1904,63.0,1,30,11.0,100.0
1905,75.0,0,30,2.0,98.0
1906,63.0,2,30,12.0,100.0
1907,51.0,2,30,13.0,98.0
1908,51.0,1,30,3.0,100.0
1909,39.0,3,30,14.0,96.0
1910,76.0,49,30,10.0,100.0
1911,64.0,0,30,11.0,100.0
1912,64.0,2,30,12.0,100.0
1913,52.0,2,30,13.0,98.0
1914,40.0,3,30,14.0,96.0
1915,88.0,1,50,0.0,98.0
1916,76.0,1,50,1.0,98.0
1917,76.0,1,50,2.0,98.0
1918,52.0,1,50,3.0,100.0
1919,76.0,49,30,10.0,100.0
1920,64.0,1,30,11.0,100.0
1921,64.0,2,30,12.0,100.0
1922,52.0,2,30,13.0,98.0
1923,40.0,3,30,14.0,96.0
1924,76.0,1,50,0.0,98.0
1925,76.0,1,50,1.0,98.0
1926,64.0,0,50,2.0,98.0
1927,52.0,1,50,3.0,100.0
1928,72.0,49,30,10.0,100.0
1929,60.0,0,30,11.0,100.0
1930,60.0,2,30,12.0,100.0
1931,48.0,2,30,13.0,98.0
1932,36.0,3,30,14.0,96.0
1933,72.0,1,50,0.0,98.0
1934,72.0,1,50,1.0,98.0
1935,60.0,1,50,2.0,98.0
1936,48.0,1,50,3.0,100.0
1937,76.0,49,30,10.0,100.0
1938,64.0,0,30,11.0,100.0
1939,64.0,2,30,12.0,100.0
1940,52.0,2,30,13.0,98.0
1941,40.0,3,30,14.0,96.0
1942,76.0,1,50,0.0,98.0
1943,76.0,1,50,1.0,98.0
1944,64.0,1,50,2.0,98.0
1945,52.0,1,50,3.0,100.0
1946,77.0,49,30,10.0,100.0
1947,65.0,0,30,11.0,100.0
1948,65.0,2,30,12.0,100.0
1949,53.0,2,30,13.0,98.0
1950,41.0,3,30,14.0,96.0
1951,77.0,1,50,0.0,98.0
1952,77.0,1,50,1.0,98.0
1953,65.0,1,50,2.0,98.0
1954,53.0,1,50,3.0,100.0
1955,74.0,49,30,10.0,100.0
1956,62.0,1,30,11.0,100.0
1957,62.0,2,30,12.0,100.0
1958,50.0,2,30,13.0,98.0
1959,38.0,3,30,14.0,96.0
1960,74.0,1,50,0.0,98.0
1961,74.0,1,50,1.0,98.0
1962,62.0,0,50,2.0,98.0
1963,50.0,1,50,3.0,100.0
1964,79.0,49,30,10.0,100.0
1965,67.0,1,30,11.0,100.0
1966,67.0,2,30,12.0,100.0
1967,55.0,2,30,13.0,98.0
1968,43.0,3,30,14.0,96.0
1969,79.0,1,50,0.0,98.0
1970,79.0,1,50,1.0,98.0
1971,67.0,0,50,2.0,98.0
1972,55.0,1,50,3.0,100.0
1973,76.0,49,30,10.0,100.0
1974,64.0,1,30,11.0,100.0
1975,64.0,2,30,12.0,100.0
1976,52.0,2,30,13.0,98.0
1977,40.0,3,30,14.0,96.0
1978,76.0,1,50,0.0,98.0
1979,76.0,1,50,1.0,98.0
1980,64.0,0,50,2.0,98.0
1981,52.0,1,50,3.0,100.0
1982,81.0,49,30,10.0,100.0
1983,69.0,0,30,11.0,100.0
1984,69.0,2,30,12.0,100.0
1985,57.0,2,30,13.0,98.0
1986,45.0,3,30,14.0,96.0
1987,81.0,1,50,0.0,98.0
1988,81.0,1,50,1.0,98.0
1989,69.0,1,50,2.0,98.0
1990,57.0,1,50,3.0,100.0
1991,77.0,49,30,10.0,100.0
1992,65.0,0,30,11.0,100.0
1993,65.0,2,30,12.0,100.0
1994,53.0,2,30,13.0,98.0
1995,41.0,3,30,14.0,96.0
1996,77.0,1,50,0.0,98.0
1997,77.0,1,50,1.0,98.0
1998,65.0,1,50,2.0,98.0
1999,53.0,1,50,3.0,100.0
2000,83.0,49,30,10.0,100.0
2001,71.0,0,30,11.0,100.0
2002,71.0,2,30,12.0,100.0
2003,59.0,2,30,13.0,98.0
2004,47.0,3,30,14.0,96.0
2005,83.0,1,50,0.0,98.0
2006,83.0,1,50,1.0,98.0
2007,71.0,1,50,2.0,98.0
2008,59.0,1,50,3.0,100.0
2009,79.0,49,30,10.0,100.0
2010,67.0,1,30,11.0,100.0
2011,67.0,2,30,12.0,100.0
2012,55.0,2,30,13.0,98.0
2013,43.0,3,30,14.0,96.0
2014,79.0,1,50,0.0,98.0
2015,79.0,1,50,1.0,98.0
2016,67.0,0,50,2.0,98.0
2017,55.0,1,50,3.0,100.0
2018,84.0,49,30,10.0,100.0
2019,72.0,0,30,11.0,100.0
2020,72.0,2,30,12.0,100.0
2021,60.0,2,30,13.0,98.0
2022,48.0,3,30,14.0,96.0
2023,84.0,1,50,0.0,98.0
2024,84.0,1,50,1.0,98.0
2025,72.0,1,50,2.0,98.0
2026,60.0,1,50,3.0,100.0
2027,81.0,49,30,10.0,100.0
2028,69.0,1,30,11.0,100.0
2029,69.0,2,30,12.0,100.0
2030,57.0,2,30,13.0,98.0
2031,45.0,3,30,14.0,96.0
2032,81.0,1,50,0.0,98.0
2033,81.0,1,50,1.0,98.0
2034,69.0,0,50,2.0,98.0
2035,57.0,1,50,3.0,100.0
2036,76.0,49,30,10.0,100.0
2037,64.0,0,30,11.0,100.0
2038,64.0,2,30,12.0,100.0
2039,52.0,2,30,13.0,98.0
2040,40.0,3,30,14.0,96.0
2041,76.0,1,50,0.0,98.0
2042,76.0,1,50,1.0,98.0
2043,64.0,1,50,2.0,98.0
2044,52.0,1,50,3.0,100.0
2045,78.0,49,30,10.0,100.0
2046,66.0,1,30,11.0,100.0
2047,66.0,2,30,12.0,100.0
2048,54.0,2,30,13.0,98.0
2049,42.0,3,30,14.0,96.0
2050,78.0,1,50,0.0,98.0
2051,78.0,1,50,1.0,98.0
2052,66.0,0,50,2.0,98.0
2053,54.0,1,50,3.0,100.0
2054,55.0,1,50,12.0,100.0
2055,43.0,2,50,13.0,98.0
2056,79.0,1,60,0.0,98.0
2057,31.0,3,50,14.0,96.0
2058,67.0,0,60,2.0,98.0
2059,67.0,54,30,12.0,100.0
2060,55.0,2,30,13.0,98.0
2061,43.0,4,30,14.0,96.0
2062,79.0,49,120,10.0,100.0
2063,67.0,1,120,4.0,102.0
2064,79.0,0,120,1.0,98.0
2065,67.0,1,120,11.0,100.0
2066,55.0,1,120,5.0,102.0
2067,55.0,1,120,3.0,100.0
2068,67.0,1,30,12.0,100.0
2069,55.0,2,30,13.0,98.0
2070,43.0,4,30,14.0,96.0
2071,83.0,50,60,0.0,98.0
2072,86.0,0,60,0.0,98.0
2073,74.0,0,60,2.0,98.0
2074,71.0,1,60,2.0,98.0
2075,67.0,54,30,12.0,100.0
2076,55.0,2,30,13.0,98.0
2077,43.0,4,30,14.0,96.0
2078,62.0,1,120,4.0,102.0
2079,55.0,1,120,5.0,102.0
2080,84.0,50,60,0.0,98.0
2081,88.0,0,60,0.0,98.0
2082,76.0,1,60,2.0,98.0
2083,72.0,0,60,2.0,98.0
2084,65.0,1,60,12.0,100.0
2085,53.0,2,60,13.0,98.0
2086,41.0,4,60,14.0,96.0
2087,64.0,54,50,12.0,100.0
2088,52.0,2,50,13.0,98.0
2089,40.0,4,50,14.0,96.0
2090,64.0,1,120,4.0,102.0
2091,60.0,1,0,5.0,102.0
2092,62.0,1,30,12.0,100.0
2093,50.0,2,30,13.0,98.0
2094,38.0,4,30,14.0,96.0
2095,88.0,0,60,0.0,98.0
2096,84.0,50,60,0.0,98.0
2097,76.0,1,60,2.0,98.0
2098,72.0,0,60,2.0,98.0
2099,60.0,54,30,12.0,100.0
2100,48.0,2,30,13.0,98.0
2101,36.0,4,30,14.0,96.0
2102,64.0,1,120,4.0,102.0
2103,86.0,0,30,0.0,98.0
2104,83.0,1,60,0.0,98.0
2105,91.0,48,30,0.0,98.0
2106,79.0,1,30,1.0,98.0
2107,67.0,6,30,3.0,100.0
2108,67.0,49,105,10.0,71.0
2109,62.0,0,105,11.0,71.0
2110,83.0,0,105,10.0,78.0
2111,74.0,0,105,10.0,71.0
2112,71.0,2,105,11.0,71.0
2113,79.0,0,105,11.0,61.0
2114,67.0,0,120,6.0,104.0
2115,62.0,0,120,4.0,102.0
2116,55.0,1,120,6.0,104.0
2117,74.0,1,120,2.0,98.0
2118,71.0,0,120,2.0,98.0
2119,55.0,1,120,5.0,102.0
2120,55.0,1,120,12.0,100.0
2121,43.0,2,120,13.0,98.0
2122,43.0,3,120,15.0,77.0
2123,31.0,1,120,14.0,96.0
2124,91.0,53,30,0.0,98.0
2125,79.0,1,30,1.0,98.0
2126,67.0,6,30,3.0,100.0
2127,91.0,53,30,0.0,98.0
2128,79.0,1,30,1.0,98.0
2129,67.0,6,30,3.0,100.0
2130,89.0,1,60,0.0,98.0
2131,77.0,0,60,1.0,98.0
2132,65.0,1,60,3.0,100.0
2133,67.0,52,105,10.0,71.0
2134,64.0,1,105,11.0,71.0
2135,88.0,48,50,0.0,98.0
2136,76.0,1,50,1.0,98.0
2137,84.0,0,105,10.0,78.0
2138,76.0,2,105,10.0,71.0
2139,79.0,2,105,11.0,61.0
2140,72.0,0,105,11.0,71.0
2141,64.0,6,50,3.0,100.0
2142,55.0,0,120,6.0,104.0
2143,67.0,1,120,6.0,104.0
2144,67.0,2,120,12.0,100.0
2145,55.0,2,120,13.0,98.0
2146,43.0,0,120,15.0,77.0
2147,43.0,1,120,14.0,96.0
2148,86.0,53,30,0.0,98.0
2149,74.0,1,30,1.0,98.0
2150,62.0,6,30,3.0,100.0
2151,84.0,53,30,0.0,98.0
2152,72.0,1,30,1.0,98.0
2153,60.0,6,30,3.0,100.0
2154,55.0,2,50,12.0,100.0
2155,43.0,2,50,13.0,98.0
2156,31.0,1,50,14.0,96.0
2157,79.0,1,60,0.0,98.0
2158,67.0,52,30,12.0,100.0
2159,55.0,2,30,13.0,98.0
2160,43.0,4,30,14.0,96.0
2161,67.0,52,105,10.0,71.0
2162,62.0,1,105,11.0,71.0
2163,74.0,0,105,10.0,71.0
2164,83.0,0,105,10.0,78.0
2165,79.0,0,105,11.0,61.0
2166,71.0,2,105,11.0,71.0
2167,67.0,0,120,1.0,98.0
2168,55.0,1,120,6.0,104.0
2169,67.0,0,120,6.0,104.0
2170,55.0,1,120,3.0,100.0
2171,43.0,2,120,15.0,77.0
2172,67.0,1,30,12.0,100.0
2173,55.0,2,30,13.0,98.0
2174,43.0,4,30,14.0,96.0
2175,83.0,0,60,0.0,98.0
2176,86.0,50,60,0.0,98.0
2177,74.0,1,60,2.0,98.0
2178,71.0,0,60,2.0,98.0
2179,67.0,54,30,12.0,100.0
2180,55.0,2,30,13.0,98.0
2181,43.0,4,30,14.0,96.0
2182,62.0,1,120,4.0,102.0
2183,55.0,1,120,5.0,102.0
2184,88.0,0,60,0.0,98.0
2185,84.0,50,60,0.0,98.0
2186,76.0,0,60,2.0,98.0
2187,72.0,1,60,2.0,98.0
2188,65.0,1,60,12.0,100.0
2189,53.0,2,60,13.0,98.0
2190,41.0,4,60,14.0,96.0
2191,64.0,54,50,12.0,100.0
2192,52.0,2,50,13.0,98.0
2193,40.0,4,50,14.0,96.0
2194,64.0,1,0,4.0,102.0
2195,60.0,1,120,5.0,102.0
2196,62.0,1,30,12.0,100.0
2197,50.0,2,30,13.0,98.0
2198,38.0,4,30,14.0,96.0
2199,88.0,50,60,0.0,98.0
2200,84.0,0,60,0.0,98.0
2201,72.0,1,60,2.0,98.0
2202,76.0,0,60,2.0,98.0
2203,60.0,54,30,12.0,100.0
2204,48.0,2,30,13.0,98.0
2205,36.0,4,30,14.0,96.0
2206,60.0,1,120,5.0,102.0
2207,86.0,1,30,0.0,98.0
2208,83.0,0,60,0.0,98.0
2209,91.0,48,30,0.0,98.0
2210,79.0,1,30,1.0,98.0
2211,67.0,6,30,3.0,100.0
2212,67.0,49,105,10.0,71.0
2213,62.0,0,105,11.0,71.0
2214,83.0,3,105,10.0,78.0
2215,74.0,0,105,10.0,71.0
2216,79.0,2,105,11.0,61.0
2217,71.0,0,105,11.0,71.0
2218,62.0,1,120,4.0,102.0
2219,55.0,0,120,6.0,104.0
2220,67.0,0,120,6.0,104.0
2221,74.0,1,120,2.0,98.0
2222,71.0,0,120,2.0,98.0
2223,55.0,1,120,5.0,102.0
2224,55.0,1,120,12.0,100.0
2225,43.0,2,120,13.0,98.0
2226,43.0,0,120,15.0,77.0
2227,31.0,1,120,14.0,96.0
2228,91.0,53,30,0.0,98.0
2229,79.0,1,30,1.0,98.0
2230,67.0,6,30,3.0,100.0
2231,91.0,53,30,0.0,98.0
2232,79.0,1,30,1.0,98.0
2233,67.0,6,30,3.0,100.0
2234,89.0,1,60,0.0,98.0
2235,77.0,1,60,1.0,98.0
2236,65.0,1,60,3.0,100.0
2237,67.0,52,105,10.0,71.0
2238,64.0,1,105,11.0,71.0
2239,88.0,48,50,0.0,98.0
2240,76.0,1,50,1.0,98.0
2241,76.0,0,105,10.0,71.0
2242,84.0,2,105,10.0,78.0
2243,64.0,6,50,3.0,100.0
2244,79.0,0,105,11.0,61.0
2245,72.0,2,105,11.0,71.0
2246,67.0,2,120,12.0,100.0
2247,55.0,2,120,13.0,98.0
2248,43.0,1,120,14.0,96.0
2249,86.0,53,30,0.0,98.0
2250,74.0,1,30,1.0,98.0
2251,62.0,6,30,3.0,100.0
2252,84.0,53,30,0.0,98.0
2253,72.0,1,30,1.0,98.0
2254,60.0,6,30,3.0,100.0
2255,55.0,2,50,12.0,100.0
2256,43.0,2,50,13.0,98.0
2257,31.0,1,50,14.0,96.0
2258,67.0,52,30,12.0,100.0
2259,55.0,2,30,13.0,98.0
2260,43.0,4,30,14.0,96.0
2261,67.0,52,105,10.0,71.0
2262,62.0,0,105,11.0,71.0
2263,74.0,0,105,10.0,71.0
2264,83.0,0,105,10.0,78.0
2265,79.0,0,105,11.0,61.0
2266,71.0,2,105,11.0,71.0
2267,79.0,1,120,0.0,98.0
2268,55.0,0,120,6.0,104.0
2269,67.0,1,0,6.0,104.0
2270,67.0,0,120,1.0,98.0
2271,67.0,1,120,2.0,98.0
2272,43.0,0,120,3.0,100.0
2273,55.0,1,0,3.0,100.0
2274,43.0,2,120,15.0,77.0
2275,67.0,1,30,12.0,100.0
2276,55.0,2,30,13.0,98.0
2277,43.0,3,30,14.0,96.0
2278,67.0,54,30,12.0,100.0
2279,55.0,2,30,13.0,98.0
2280,43.0,4,30,14.0,96.0
2281,83.0,50,120,0.0,98.0
2282,86.0,0,120,0.0,98.0
2283,79.0,0,120,1.0,98.0
2284,62.0,0,120,4.0,102.0
2285,74.0,0,120,1.0,98.0
2286,74.0,0,120,6.0,104.0
2287,71.0,0,120,2.0,98.0
2288,74.0,1,120,2.0,98.0
2289,55.0,1,120,5.0,102.0
2290,67.0,0,120,3.0,100.0
2291,65.0,2,60,12.0,100.0
2292,53.0,2,60,13.0,98.0
2293,41.0,1,60,14.0,96.0
2294,67.0,49,105,10.0,71.0
2295,64.0,3,105,11.0,71.0
2296,64.0,52,50,12.0,100.0
2297,84.0,0,105,10.0,78.0
2298,76.0,3,105,10.0,71.0
2299,52.0,2,50,13.0,98.0
2300,79.0,0,105,11.0,61.0
2301,72.0,2,105,11.0,71.0
2302,40.0,4,50,14.0,96.0
2303,48.0,0,120,15.0,77.0
2304,62.0,1,30,12.0,100.0
2305,50.0,2,30,13.0,98.0
2306,38.0,3,30,14.0,96.0
2307,60.0,54,30,12.0,100.0
2308,48.0,2,30,13.0,98.0
2309,36.0,4,30,14.0,96.0
2310,88.0,50,120,0.0,98.0
2311,84.0,0,120,0.0,98.0
2312,79.0,0,120,1.0,98.0
2313,72.0,0,120,6.0,104.0
2314,76.0,0,120,6.0,104.0
2315,64.0,0,120,4.0,102.0
2316,76.0,1,120,1.0,98.0
2317,72.0,1,120,2.0,98.0
2318,76.0,0,120,2.0,98.0
2319,60.0,1,120,5.0,102.0
2320,48.0,1,120,3.0,100.0
2321,60.0,0,120,3.0,100.0
2322,55.0,2,50,12.0,100.0
2323,43.0,2,50,13.0,98.0
2324,31.0,1,50,14.0,96.0
2325,67.0,52,30,12.0,100.0
2326,55.0,2,30,13.0,98.0
2327,43.0,4,30,14.0,96.0
2328,67.0,49,105,10.0,71.0
2329,62.0,3,105,11.0,71.0
2330,74.0,0,105,10.0,71.0
2331,83.0,0,105,10.0,78.0
2332,79.0,2,105,11.0,61.0
2333,71.0,0,105,11.0,71.0
2334,43.0,3,120,15.0,77.0
2335,67.0,1,30,12.0,100.0
2336,55.0,2,30,13.0,98.0
2337,43.0,3,30,14.0,96.0
2338,67.0,54,30,12.0,100.0
2339,55.0,2,30,13.0,98.0
2340,43.0,4,30,14.0,96.0
2341,86.0,50,120,0.0,98.0
2342,83.0,0,120,0.0,98.0
2343,79.0,1,120,1.0,98.0
2344,74.0,0,120,1.0,98.0
2345,67.0,0,120,6.0,104.0
2346,74.0,0,120,6.0,104.0
2347,62.0,0,120,4.0,102.0
2348,74.0,1,120,2.0,98.0
2349,71.0,0,120,2.0,98.0
2350,55.0,1,120,5.0,102.0
2351,67.0,0,120,3.0,100.0
2352,55.0,1,120,3.0,100.0
2353,65.0,2,60,12.0,100.0
2354,53.0,2,60,13.0,98.0
2355,41.0,1,60,14.0,96.0
2356,67.0,49,105,10.0,71.0
2357,64.0,3,105,11.0,71.0
2358,76.0,0,105,10.0,71.0
2359,84.0,0,105,10.0,78.0
2360,64.0,52,50,12.0,100.0
2361,52.0,2,50,13.0,98.0
2362,79.0,0,105,11.0,61.0
2363,72.0,2,105,11.0,71.0
2364,40.0,4,50,14.0,96.0
2365,48.0,3,120,15.0,77.0
2366,62.0,1,30,12.0,100.0
2367,50.0,2,30,13.0,98.0
2368,38.0,3,30,14.0,96.0
2369,60.0,54,30,12.0,100.0
2370,48.0,2,30,13.0,98.0
2371,36.0,4,30,14.0,96.0
2372,88.0,0,120,0.0,98.0
2373,84.0,50,120,0.0,98.0
2374,79.0,1,0,1.0,98.0
2375,76.0,0,120,1.0,98.0
2376,76.0,1,120,6.0,104.0
2377,72.0,0,120,6.0,104.0
2378,64.0,0,120,4.0,102.0
2379,72.0,1,120,2.0,98.0
2380,76.0,0,120,2.0,98.0
2381,60.0,1,120,5.0,102.0
2382,60.0,1,120,3.0,100.0
2383,48.0,0,120,3.0,100.0
2384,67.0,49,105,10.0,71.0
2385,62.0,1,105,11.0,71.0
2386,83.0,0,105,10.0,78.0
2387,74.0,0,105,10.0,71.0
2388,79.0,0,105,11.0,61.0
2389,71.0,2,105,11.0,71.0
2390,83.0,1,120,0.0,98.0
2391,86.0,0,120,0.0,98.0
2392,62.0,0,120,4.0,102.0
2393,67.0,0,120,6.0,104.0
2394,74.0,0,120,6.0,104.0
2395,74.0,0,120,1.0,98.0
2396,74.0,0,120,2.0,98.0
2397,71.0,0,120,2.0,98.0
2398,55.0,1,120,5.0,102.0
2399,55.0,1,120,12.0,100.0
2400,43.0,2,120,13.0,98.0
2401,55.0,0,120,3.0,100.0
2402,67.0,1,120,3.0,100.0
2403,43.0,2,120,15.0,77.0
2404,31.0,1,120,14.0,96.0
2405,62.0,227,105,10.0,71.0
2406,62.0,1,105,11.0,71.0
2407,71.0,0,105,10.0,71.0
2408,79.0,2,105,10.0,78.0
2409,79.0,2,105,11.0,61.0
2410,71.0,0,105,11.0,71.0
2411,79.0,1,120,0.0,98.0
2412,55.0,1,120,6.0,104.0
2413,79.0,0,120,1.0,98.0
2414,62.0,0,120,4.0,102.0
2415,67.0,0,120,6.0,104.0
2416,79.0,0,120,2.0,98.0
2417,55.0,1,120,5.0,102.0
2418,67.0,1,120,12.0,100.0
2419,55.0,2,120,13.0,98.0
2420,55.0,1,120,3.0,100.0
2421,43.0,0,120,15.0,77.0
2422,43.0,1,120,14.0,96.0
2423,55.0,227,120,10.0,100.0
2424,79.0,1,120,0.0,98.0
2425,55.0,0,120,4.0,102.0
2426,67.0,0,120,6.0,104.0
2427,67.0,1,120,1.0,98.0
2428,55.0,0,120,6.0,104.0
2429,55.0,1,120,11.0,100.0
2430,67.0,0,120,2.0,98.0
2431,43.0,1,120,5.0,102.0
2432,55.0,1,120,12.0,100.0
2433,43.0,2,120,13.0,98.0
2434,43.0,1,120,3.0,100.0
2435,43.0,2,120,15.0,77.0
2436,31.0,1,120,14.0,96.0
2437,74.0,351,110,1.0,98.0
2438,59.0,1,60,11.0,86.0
2439,55.0,2,120,12.0,82.0
2440,55.0,2,120,13.0,80.0
2441,43.0,4,120,14.0,78.0
2442,62.0,112,60,11.0,86.0
2443,79.0,120,300,1.0,98.0
2444,67.0,120,60,11.0,86.0
2445,78.0,59,60,1.0,98.0
2446,76.0,60,60,1.0,98.0
2447,71.0,1,60,11.0,86.0
2448,74.0,59,50,1.0,98.0
2449,72.0,1,120,1.0,98.0
2450,72.0,1,120,11.0,86.0
2451,57.0,2,120,12.0,82.0
2452,57.0,2,120,13.0,80.0
2453,45.0,4,120,14.0,78.0
2454,72.0,109,60,10.0,86.0
2455,69.0,120,60,10.0,86.0
2456,84.0,59,300,0.0,98.0
2457,83.0,61,60,0.0,98.0
2458,66.0,59,60,10.0,86.0
2459,81.0,1,60,0.0,98.0
2460,79.0,60,50,0.0,98.0
2461,60.0,59,60,10.0,86.0
2462,60.0,1,60,11.0,86.0
2463,78.0,1,120,0.0,98.0
2464,50.0,2,120,12.0,82.0
2465,50.0,2,120,13.0,80.0
2466,38.0,4,120,14.0,78.0
2467,62.0,112,60,11.0,86.0
2468,81.0,1,300,1.0,98.0
2469,66.0,120,60,11.0,86.0
2470,78.0,59,60,1.0,98.0
2471,74.0,60,60,1.0,98.0
2472,69.0,1,60,11.0,86.0
2473,72.0,59,50,1.0,98.0
2474,59.0,58,60,10.0,86.0
2475,71.0,1,120,1.0,98.0
2476,67.0,1,120,11.0,86.0
2477,55.0,2,120,12.0,82.0
2478,55.0,2,120,13.0,80.0
2479,43.0,4,120,14.0,78.0
2480,62.0,109,60,10.0,86.0
2481,67.0,120,60,10.0,86.0
2482,86.0,1,300,0.0,98.0
2483,83.0,61,60,0.0,98.0
2484,71.0,59,60,10.0,86.0
2485,81.0,1,60,0.0,98.0
2486,79.0,60,50,0.0,98.0
2487,69.0,59,60,10.0,86.0
2488,81.0,1,120,0.0,88.0
2489,78.0,1,120,1.0,88.0
2490,66.0,1,120,2.0,88.0
2491,66.0,0,120,11.0,86.0
2492,69.0,1,0,2.0,88.0
2493,62.0,2,120,12.0,100.0
2494,50.0,2,120,13.0,98.0
2495,38.0,4,120,14.0,96.0
2496,62.0,1,60,3.0,100.0
2497,81.0,117,120,10.0,100.0
2498,84.0,110,240,0.0,62.0
2499,81.0,1,240,1.0,62.0
2500,72.0,0,240,2.0,88.0
2501,72.0,3,120,11.0,100.0
2502,62.0,2,120,12.0,100.0
2503,54.0,2,120,13.0,98.0
2504,61.0,57,60,3.0,100.0
2505,42.0,3,120,14.0,96.0
2506,62.0,1,60,3.0,100.0
2507,79.0,52,110,10.0,100.0
2508,83.0,1,110,0.0,62.0
2509,79.0,1,110,1.0,62.0
2510,71.0,0,110,2.0,88.0
2511,67.0,1,110,2.0,88.0
2512,71.0,0,110,11.0,100.0
2513,74.0,2,110,12.0,100.0
2514,55.0,2,110,13.0,98.0
2515,61.0,57,50,3.0,100.0
2516,43.0,3,110,14.0,96.0
2517,78.0,52,60,10.0,86.0
2518,69.0,0,60,11.0,86.0
2519,81.0,1,120,0.0,62.0
2520,78.0,1,120,1.0,62.0
2521,69.0,1,120,2.0,88.0
2522,66.0,0,120,2.0,88.0
2523,62.0,2,120,12.0,100.0
2524,50.0,2,120,13.0,98.0
2525,62.0,1,120,3.0,100.0
2526,38.0,3,120,14.0,96.0
2527,62.0,1,60,3.0,100.0
2528,81.0,117,120,10.0,100.0
2529,84.0,110,240,0.0,62.0
2530,81.0,1,240,1.0,62.0
2531,72.0,1,240,2.0,88.0
2532,72.0,3,120,11.0,100.0
2533,69.0,0,240,2.0,88.0
2534,62.0,2,120,12.0,100.0
2535,54.0,2,120,13.0,98.0
2536,61.0,57,60,3.0,100.0
2537,42.0,3,120,14.0,96.0
2538,62.0,1,60,3.0,100.0
2539,79.0,52,110,10.0,100.0
2540,83.0,1,110,0.0,62.0
2541,79.0,1,110,1.0,62.0
2542,71.0,0,110,2.0,88.0
2543,67.0,0,110,2.0,88.0
2544,71.0,1,110,11.0,100.0
2545,74.0,2,110,12.0,100.0
2546,55.0,2,110,13.0,98.0
2547,61.0,57,50,3.0,100.0
2548,43.0,3,110,14.0,96.0
2549,78.0,52,60,10.0,86.0
2550,62.0,1,60,11.0,86.0
2551,78.0,1,110,1.0,70.0
2552,81.0,1,120,0.0,70.0
2553,66.0,0,120,2.0,98.0
2554,69.0,0,120,2.0,98.0
2555,69.0,2,120,12.0,100.0
2556,57.0,2,120,13.0,98.0
2557,62.0,1,120,3.0,100.0
2558,45.0,3,120,14.0,96.0
2559,74.0,109,60,10.0,100.0
2560,66.0,1,60,11.0,100.0
2561,86.0,1,120,0.0,98.0
2562,78.0,1,120,1.0,98.0
2563,62.0,5,120,3.0,100.0
2564,85.0,113,120,0.0,98.0
2565,79.0,1,120,1.0,98.0
2566,57.0,3,120,12.0,100.0
2567,45.0,2,120,13.0,98.0
2568,64.0,1,120,3.0,100.0
2569,33.0,3,120,14.0,96.0
2570,73.0,109,60,10.0,100.0
2571,67.0,1,60,11.0,100.0
2572,88.0,1,110,0.0,98.0
2573,73.0,1,110,1.0,98.0
2574,67.0,5,110,3.0,100.0
2575,74.0,112,120,10.0,100.0
2576,86.0,1,120,0.0,98.0
2577,74.0,1,120,1.0,98.0
2578,66.0,1,120,11.0,100.0
2579,57.0,0,120,11.0,100.0
2580,50.0,2,120,12.0,100.0
2581,50.0,2,120,13.0,98.0
2582,66.0,1,120,3.0,100.0
2583,38.0,3,120,14.0,96.0
2584,60.0,114,240,12.0,100.0
2585,60.0,2,240,13.0,98.0
2586,48.0,4,240,14.0,96.0
2587,74.0,229,110,10.0,86.0
2588,62.0,3,110,11.0,86.0
2589,57.0,2,110,12.0,100.0
2590,57.0,2,110,13.0,98.0
2591,45.0,4,110,14.0,96.0
2592,47.0,1,60,3.0,100.0
2593,55.0,2,120,12.0,100.0
2594,55.0,2,120,13.0,98.0
2595,43.0,3,120,14.0,96.0
2596,50.0,117,60,3.0,100.0
2597,79.0,109,300,10.0,86.0
2598,67.0,3,300,11.0,86.0
2599,55.0,120,60,3.0,100.0
2600,78.0,52,60,10.0,86.0
2601,66.0,3,60,11.0,86.0
2602,76.0,57,60,10.0,86.0
2603,64.0,3,60,11.0,86.0
2604,59.0,5,60,3.0,100.0
2605,74.0,52,50,10.0,86.0
2606,62.0,3,50,11.0,86.0
2607,72.0,57,120,10.0,86.0
2608,60.0,1,120,2.0,98.0
2609,60.0,0,120,11.0,86.0
2610,57.0,2,120,12.0,100.0
2611,57.0,2,120,13.0,98.0
2612,60.0,1,120,3.0,100.0
2613,45.0,3,120,14.0,96.0
2614,64.0,112,120,2.0,98.0
2615,84.0,1,300,0.0,98.0
2616,72.0,1,300,1.0,98.0
2617,83.0,58,60,0.0,98.0
2618,71.0,1,60,1.0,98.0
2619,69.0,120,120,2.0,98.0
2620,81.0,59,60,0.0,98.0
2621,69.0,1,60,1.0,98.0
2622,79.0,58,50,0.0,98.0
2623,67.0,1,50,1.0,98.0
2624,72.0,1,110,2.0,98.0
2625,50.0,1,60,3.0,100.0
2626,78.0,1,120,0.0,98.0
2627,66.0,1,120,1.0,98.0
2628,60.0,0,120,2.0,98.0
2629,50.0,2,120,12.0,100.0
2630,50.0,2,120,13.0,98.0
2631,38.0,3,120,14.0,96.0
2632,54.0,117,60,3.0,100.0
2633,81.0,58,300,10.0,86.0
2634,69.0,1,300,11.0,86.0
2635,57.0,120,60,3.0,100.0
2636,78.0,52,60,10.0,86.0
2637,66.0,3,60,11.0,86.0
2638,74.0,57,60,10.0,86.0
2639,62.0,3,60,11.0,86.0
2640,62.0,5,60,3.0,100.0
2641,72.0,52,50,10.0,86.0
2642,60.0,3,50,11.0,86.0
2643,71.0,57,120,10.0,86.0
2644,59.0,0,120,2.0,88.0
2645,62.0,2,120,2.0,88.0
2646,59.0,0,120,11.0,86.0
2647,55.0,2,120,12.0,100.0
2648,55.0,2,120,13.0,98.0
2649,55.0,1,120,3.0,100.0
2650,43.0,3,120,14.0,96.0
2651,65.0,0,120,2.0,88.0
2652,62.0,112,120,2.0,88.0
2653,89.0,1,300,0.0,88.0
2654,86.0,58,60,0.0,88.0
2655,65.0,120,120,2.0,88.0
2656,71.0,0,0,2.0,88.0
2657,83.0,60,60,0.0,88.0
2658,77.0,58,50,0.0,88.0
2659,74.0,2,110,2.0,88.0
2660,76.0,59,60,10.0,100.0
2661,79.0,1,60,0.0,88.0
2662,64.0,2,60,11.0,100.0
2663,60.0,2,60,12.0,100.0
2664,60.0,2,60,13.0,98.0
2665,48.0,3,60,14.0,96.0
2666,72.0,0,120,2.0,88.0
2667,76.0,0,120,2.0,88.0
2668,60.0,0,120,3.0,100.0
2669,64.0,1,120,3.0,100.0
2670,60.0,2,60,12.0,100.0
2671,60.0,2,60,13.0,98.0
2672,48.0,3,60,14.0,96.0
2673,88.0,1,120,0.0,79.0
2674,84.0,0,120,0.0,79.0
2675,76.0,0,120,1.0,79.0
2676,72.0,1,120,1.0,79.0
2677,64.0,1,120,3.0,100.0
2678,60.0,0,120,3.0,100.0
2679,79.0,109,230,10.0,100.0
2680,67.0,1,230,11.0,100.0
2681,80.0,112,120,10.0,100.0
2682,68.0,3,120,11.0,100.0
2683,59.0,2,120,12.0,100.0
2684,59.0,2,120,13.0,98.0
2685,47.0,4,120,14.0,96.0
2686,79.0,109,60,10.0,100.0
2687,67.0,3,60,11.0,100.0
2688,60.0,2,60,12.0,100.0
2689,60.0,2,60,13.0,98.0
2690,48.0,4,60,14.0,96.0
2691,86.0,0,350,0.0,79.0
2692,89.0,110,350,0.0,79.0
2693,74.0,1,350,1.0,79.0
2694,77.0,0,350,1.0,79.0
2695,65.0,6,350,3.0,100.0
2696,62.0,0,350,3.0,100.0
2697,60.0,2,60,12.0,100.0
2698,60.0,2,60,13.0,98.0
2699,48.0,3,60,14.0,96.0
2700,88.0,0,120,0.0,79.0
2701,84.0,1,120,0.0,79.0
2702,72.0,0,120,1.0,79.0
2703,76.0,1,120,1.0,79.0
2704,60.0,1,120,3.0,100.0
2705,64.0,0,120,3.0,100.0
2706,79.0,109,230,10.0,100.0
2707,67.0,1,230,11.0,100.0
2708,80.0,112,120,10.0,100.0
2709,68.0,3,120,11.0,100.0
2710,59.0,2,120,12.0,100.0
2711,59.0,2,120,13.0,98.0
2712,47.0,4,120,14.0,96.0
2713,81.0,109,110,10.0,100.0
2714,89.0,110,350,0.0,79.0
2715,86.0,0,350,0.0,79.0
2716,74.0,1,350,1.0,79.0
2717,77.0,0,350,1.0,79.0
2718,69.0,3,110,11.0,100.0
2719,60.0,2,110,12.0,100.0
2720,60.0,2,110,13.0,98.0
2721,65.0,6,350,3.0,100.0
2722,62.0,0,350,3.0,100.0
2723,48.0,4,110,14.0,96.0
2724,76.0,109,120,10.0,100.0
2725,84.0,0,120,0.0,88.0
2726,88.0,1,120,0.0,88.0
2727,76.0,1,120,1.0,88.0
2728,72.0,0,120,1.0,88.0
2729,72.0,1,120,11.0,100.0
2730,64.0,2,120,12.0,100.0
2731,57.0,2,120,13.0,98.0
2732,64.0,1,120,3.0,100.0
2733,60.0,0,120,3.0,100.0
2734,45.0,3,120,14.0,96.0
2735,74.0,109,120,10.0,100.0
2736,83.0,0,120,0.0,88.0
2737,86.0,1,120,0.0,88.0
2738,71.0,0,120,1.0,88.0
2739,74.0,1,120,1.0,88.0
2740,71.0,1,120,11.0,100.0
2741,68.0,2,120,12.0,100.0
2742,59.0,2,120,13.0,98.0
2743,62.0,1,120,3.0,100.0
2744,59.0,0,120,3.0,100.0
2745,47.0,3,120,14.0,96.0
2746,72.0,109,110,10.0,100.0
2747,81.0,0,110,0.0,88.0
2748,84.0,1,110,0.0,88.0
2749,69.0,0,110,1.0,88.0
2750,72.0,1,110,1.0,88.0
2751,69.0,1,110,11.0,100.0
2752,69.0,2,110,12.0,100.0
2753,60.0,2,110,13.0,98.0
2754,60.0,0,110,3.0,100.0
2755,57.0,1,110,3.0,100.0
2756,48.0,3,110,14.0,96.0
2757,71.0,109,240,10.0,100.0
2758,79.0,0,240,0.0,88.0
2759,83.0,1,240,0.0,88.0
2760,71.0,1,240,1.0,88.0
2761,67.0,0,240,1.0,88.0
2762,74.0,0,240,2.0,88.0
2763,67.0,0,240,11.0,100.0
2764,62.0,1,0,2.0,98.0
2765,62.0,2,240,12.0,100.0
2766,62.0,2,240,13.0,98.0
2767,59.0,1,240,3.0,100.0
2768,55.0,0,240,3.0,100.0
2769,50.0,3,240,14.0,96.0
2770,69.0,229,215,10.0,100.0
2771,66.0,0,215,11.0,100.0
2772,62.0,2,215,12.0,100.0
2773,81.0,1,220,0.0,98.0
2774,78.0,0,220,0.0,98.0
2775,60.0,2,215,13.0,98.0
2776,66.0,1,220,1.0,98.0
2777,69.0,0,220,1.0,98.0
2778,74.0,0,220,2.0,98.0
2779,48.0,3,215,14.0,96.0
2780,57.0,1,220,3.0,100.0
2781,54.0,0,220,3.0,100.0
2782,86.0,229,20,10.0,110.0
2783,74.0,0,20,10.0,110.0
2784,62.0,1,20,11.0,110.0
2785,74.0,0,20,11.0,110.0
2786,67.0,1,20,12.0,110.0
2787,59.0,2,20,13.0,108.0
2788,47.0,3,20,14.0,106.0
2789,74.0,19,20,10.0,110.0
2790,86.0,0,20,10.0,110.0
2791,62.0,0,20,11.0,110.0
2792,74.0,3,20,11.0,110.0
2793,67.0,2,20,12.0,110.0
2794,59.0,2,20,13.0,108.0
2795,47.0,4,20,14.0,106.0
2796,86.0,0,20,10.0,110.0
2797,74.0,19,20,10.0,110.0
2798,74.0,0,20,11.0,110.0
2799,62.0,3,20,11.0,110.0
2800,67.0,2,20,12.0,110.0
2801,59.0,2,20,13.0,108.0
2802,47.0,4,20,14.0,106.0
2803,86.0,19,20,10.0,110.0
2804,74.0,0,20,10.0,110.0
2805,62.0,3,20,11.0,110.0
2806,74.0,0,20,11.0,110.0
2807,67.0,2,20,12.0,110.0
2808,59.0,2,20,13.0,108.0
2809,86.0,0,120,0.0,98.0
2810,79.0,1,120,0.0,98.0
2811,47.0,4,20,14.0,106.0
2812,74.0,0,120,1.0,98.0
2813,62.0,0,120,1.0,98.0
2814,74.0,0,120,6.0,104.0
2815,62.0,1,120,4.0,102.0
2816,74.0,0,120,2.0,98.0
2817,62.0,0,120,2.0,98.0
2818,62.0,1,120,5.0,102.0
2819,59.0,1,120,3.0,100.0
2820,47.0,0,120,3.0,100.0
2821,74.0,19,60,10.0,110.0
2822,86.0,0,60,10.0,110.0
2823,62.0,0,60,11.0,110.0
2824,74.0,3,60,11.0,110.0
2825,67.0,2,60,12.0,110.0
2826,59.0,2,60,13.0,108.0
2827,47.0,4,60,14.0,106.0
2828,84.0,109,20,10.0,110.0
2829,74.0,0,20,10.0,110.0
2830,62.0,0,20,11.0,110.0
2831,74.0,0,20,11.0,110.0
2832,66.0,1,20,12.0,110.0
2833,57.0,2,20,13.0,108.0
2834,45.0,3,20,14.0,106.0
2835,74.0,0,20,10.0,110.0
2836,84.0,19,20,10.0,110.0
2837,74.0,3,20,11.0,110.0
2838,62.0,0,20,11.0,110.0
2839,66.0,2,20,12.0,110.0
2840,57.0,2,20,13.0,108.0
2841,45.0,4,20,14.0,106.0
2842,84.0,0,20,10.0,110.0
2843,74.0,19,20,10.0,110.0
2844,62.0,0,20,11.0,110.0
2845,74.0,3,20,11.0,110.0
2846,66.0,2,20,12.0,110.0
2847,57.0,2,20,13.0,108.0
2848,45.0,4,20,14.0,106.0
2849,74.0,19,20,10.0,110.0
2850,84.0,0,20,10.0,110.0
2851,74.0,3,20,11.0,110.0
2852,62.0,0,20,11.0,110.0
2853,66.0,2,20,12.0,110.0
2854,57.0,2,20,13.0,108.0
2855,45.0,4,20,14.0,106.0
2856,84.0,0,120,0.0,98.0
2857,78.0,1,120,0.0,98.0
2858,78.0,0,120,1.0,98.0
2859,72.0,1,120,1.0,98.0
2860,74.0,0,120,6.0,104.0
2861,62.0,0,120,4.0,102.0
2862,72.0,1,120,2.0,98.0
2863,66.0,0,120,2.0,98.0
2864,62.0,1,120,5.0,102.0
2865,57.0,1,120,3.0,100.0
2866,45.0,0,120,3.0,100.0
2867,84.0,0,60,10.0,110.0
2868,74.0,19,60,10.0,110.0
2869,62.0,3,60,11.0,110.0
2870,74.0,0,60,11.0,110.0
2871,66.0,2,60,12.0,110.0
2872,57.0,2,60,13.0,108.0
2873,45.0,4,60,14.0,106.0
2874,83.0,0,20,10.0,110.0
2875,74.0,109,20,10.0,110.0
2876,62.0,0,20,11.0,110.0
2877,74.0,0,20,11.0,110.0
2878,67.0,1,20,12.0,110.0
2879,55.0,2,20,13.0,108.0
2880,43.0,3,20,14.0,106.0
2881,83.0,0,20,10.0,110.0
2882,74.0,19,20,10.0,110.0
2883,62.0,0,20,11.0,110.0
2884,74.0,3,20,11.0,110.0
2885,67.0,2,20,12.0,110.0
2886,55.0,2,20,13.0,108.0
2887,43.0,4,20,14.0,106.0
2888,74.0,0,20,10.0,110.0
2889,83.0,19,20,10.0,110.0
2890,62.0,0,20,11.0,110.0
2891,74.0,3,20,11.0,110.0
2892,67.0,2,20,12.0,110.0
2893,55.0,2,20,13.0,108.0
2894,43.0,4,20,14.0,106.0
2895,74.0,19,20,10.0,110.0
2896,83.0,0,20,10.0,110.0
2897,74.0,0,20,11.0,110.0
2898,62.0,3,20,11.0,110.0
2899,67.0,2,20,12.0,110.0
2900,55.0,2,20,13.0,108.0
2901,83.0,0,120,0.0,98.0
2902,43.0,4,20,14.0,106.0
2903,79.0,1,120,0.0,98.0
2904,62.0,1,120,4.0,102.0
2905,79.0,0,120,1.0,98.0
2906,71.0,0,120,1.0,98.0
2907,74.0,0,120,6.0,104.0
2908,71.0,0,120,2.0,98.0
2909,67.0,1,120,2.0,98.0
2910,62.0,1,120,5.0,102.0
2911,55.0,0,120,3.0,100.0
2912,43.0,1,120,3.0,100.0
2913,74.0,19,60,10.0,110.0
2914,83.0,0,60,10.0,110.0
2915,74.0,0,60,11.0,110.0
2916,62.0,3,60,11.0,110.0
2917,67.0,2,60,12.0,110.0
2918,55.0,2,60,13.0,108.0
2919,43.0,4,60,14.0,106.0
2920,81.0,109,30,10.0,110.0
2921,69.0,1,30,11.0,110.0
2922,74.0,0,50,12.0,110.0
2923,62.0,2,50,12.0,110.0
2924,60.0,2,50,13.0,108.0
2925,48.0,4,50,14.0,106.0
2926,81.0,1,60,0.0,98.0
2927,69.0,1,60,1.0,98.0
2928,83.0,49,30,10.0,110.0
2929,71.0,1,30,11.0,110.0
2930,62.0,0,50,12.0,110.0
2931,74.0,2,50,12.0,110.0
2932,60.0,2,50,13.0,108.0
2933,83.0,1,60,0.0,98.0
2934,48.0,4,50,14.0,106.0
2935,71.0,1,60,1.0,98.0
2936,84.0,49,30,10.0,110.0
2937,72.0,1,30,11.0,110.0
2938,62.0,2,50,12.0,110.0
2939,74.0,0,50,12.0,110.0
2940,60.0,2,50,13.0,108.0
2941,48.0,4,50,14.0,106.0
2942,84.0,1,60,0.0,98.0
2943,72.0,1,60,1.0,98.0
2944,85.0,49,30,10.0,110.0
2945,73.0,1,30,11.0,110.0
2946,85.0,1,50,0.0,98.0
2947,73.0,1,50,1.0,98.0
2948,74.0,2,50,12.0,110.0
2949,62.0,0,50,12.0,110.0
2950,60.0,2,50,13.0,108.0
2951,48.0,4,50,14.0,106.0
2952,86.0,0,20,10.0,110.0
2953,74.0,49,20,10.0,110.0
2954,74.0,0,20,11.0,110.0
2955,62.0,1,20,11.0,110.0
2956,67.0,1,20,12.0,110.0
2957,59.0,2,20,13.0,108.0
2958,47.0,3,20,14.0,106.0
2959,86.0,0,20,10.0,110.0
2960,74.0,19,20,10.0,110.0
2961,74.0,0,20,11.0,110.0
2962,62.0,3,20,11.0,110.0
2963,67.0,2,20,12.0,110.0
2964,59.0,2,20,13.0,108.0
2965,47.0,4,20,14.0,106.0
2966,86.0,0,20,10.0,110.0
2967,74.0,19,20,10.0,110.0
2968,74.0,0,20,11.0,110.0
2969,62.0,3,20,11.0,110.0
2970,67.0,2,20,12.0,110.0
2971,59.0,2,20,13.0,108.0
2972,47.0,4,20,14.0,106.0
2973,74.0,0,20,10.0,110.0
2974,86.0,19,20,10.0,110.0
2975,62.0,0,20,11.0,110.0
2976,74.0,3,20,11.0,110.0
2977,67.0,2,20,12.0,110.0
2978,59.0,2,20,13.0,108.0
2979,47.0,4,20,14.0,106.0
2980,86.0,19,60,10.0,110.0
2981,74.0,0,60,10.0,110.0
2982,62.0,3,60,11.0,110.0
2983,74.0,0,60,11.0,110.0
2984,67.0,2,60,12.0,110.0
2985,59.0,2,60,13.0,108.0
2986,47.0,4,60,14.0,106.0
2987,86.0,1,230,0.0,98.0
2988,74.0,0,230,1.0,98.0
2989,62.0,1,230,3.0,100.0
2990,74.0,0,240,6.0,104.0
2991,62.0,0,0,4.0,102.0
2992,62.0,1,0,5.0,102.0
2993,74.0,109,20,10.0,110.0
2994,84.0,0,20,10.0,110.0
2995,74.0,0,20,11.0,110.0
2996,62.0,1,20,11.0,110.0
2997,66.0,1,20,12.0,110.0
2998,57.0,2,20,13.0,108.0
2999,45.0,3,20,14.0,106.0
3000,74.0,0,20,10.0,110.0
3001,84.0,19,20,10.0,110.0
3002,62.0,0,20,11.0,110.0
3003,74.0,3,20,11.0,110.0
3004,66.0,2,20,12.0,110.0
3005,57.0,2,20,13.0,108.0
3006,45.0,4,20,14.0,106.0
3007,74.0,0,20,10.0,110.0
3008,84.0,19,20,10.0,110.0
3009,62.0,0,20,11.0,110.0
3010,74.0,3,20,11.0,110.0
3011,66.0,2,20,12.0,110.0
3012,57.0,2,20,13.0,108.0
3013,45.0,4,20,14.0,106.0
3014,74.0,0,20,10.0,110.0
3015,84.0,19,20,10.0,110.0
3016,62.0,0,20,11.0,110.0
3017,74.0,3,20,11.0,110.0
3018,66.0,2,20,12.0,110.0
3019,57.0,2,20,13.0,108.0
3020,45.0,4,20,14.0,106.0
3021,84.0,0,60,10.0,110.0
3022,74.0,19,60,10.0,110.0
3023,74.0,0,60,11.0,110.0
3024,62.0,3,60,11.0,110.0
3025,66.0,2,60,12.0,110.0
3026,57.0,2,60,13.0,108.0
3027,45.0,4,60,14.0,106.0
3028,84.0,0,230,0.0,98.0
3029,90.0,1,230,0.0,98.0
3030,78.0,1,230,1.0,98.0
3031,72.0,0,230,1.0,98.0
3032,60.0,0,230,3.0,100.0
3033,66.0,1,230,3.0,100.0
3034,74.0,0,240,6.0,104.0
3035,62.0,0,0,4.0,102.0
3036,62.0,1,0,5.0,102.0
3037,83.0,109,20,10.0,110.0
3038,74.0,0,20,10.0,110.0
3039,62.0,0,20,11.0,110.0
3040,74.0,1,20,11.0,110.0
3041,67.0,1,20,12.0,110.0
3042,55.0,2,20,13.0,108.0
3043,43.0,3,20,14.0,106.0
3044,74.0,19,20,10.0,110.0
3045,83.0,0,20,10.0,110.0
3046,74.0,3,20,11.0,110.0
3047,62.0,0,20,11.0,110.0
3048,67.0,2,20,12.0,110.0
3049,55.0,2,20,13.0,108.0
3050,43.0,4,20,14.0,106.0
3051,74.0,19,20,10.0,110.0
3052,83.0,0,20,10.0,110.0
3053,74.0,0,20,11.0,110.0
3054,62.0,3,20,11.0,110.0
3055,67.0,2,20,12.0,110.0
3056,55.0,2,20,13.0,108.0
3057,43.0,4,20,14.0,106.0
3058,83.0,0,20,10.0,110.0
3059,74.0,19,20,10.0,110.0
3060,74.0,3,20,11.0,110.0
3061,62.0,0,20,11.0,110.0
3062,67.0,2,20,12.0,110.0
3063,55.0,2,20,13.0,108.0
3064,91.0,1,120,0.0,98.0
3065,43.0,4,20,14.0,106.0
3066,83.0,0,120,0.0,98.0
3067,71.0,0,120,1.0,98.0
3068,79.0,0,120,1.0,98.0
3069,67.0,1,120,3.0,100.0
3070,59.0,0,120,3.0,100.0
3071,74.0,0,60,10.0,110.0
3072,83.0,19,60,10.0,110.0
3073,62.0,3,60,11.0,110.0
3074,74.0,0,60,11.0,110.0
3075,67.0,2,60,12.0,110.0
3076,55.0,2,60,13.0,108.0
3077,43.0,4,60,14.0,106.0
3078,74.0,1,240,6.0,104.0
3079,81.0,109,30,10.0,110.0
3080,69.0,1,30,11.0,110.0
3081,62.0,0,50,12.0,110.0
3082,74.0,2,50,12.0,110.0
3083,60.0,2,50,13.0,108.0
3084,81.0,1,60,0.0,98.0
3085,48.0,4,50,14.0,106.0
3086,69.0,1,60,1.0,98.0
3087,83.0,49,30,10.0,110.0
3088,71.0,1,30,11.0,110.0
3089,62.0,2,50,12.0,110.0
3090,74.0,0,50,12.0,110.0
3091,60.0,2,50,13.0,108.0
3092,83.0,1,60,0.0,98.0
3093,48.0,4,50,14.0,106.0
3094,71.0,1,60,1.0,98.0
3095,84.0,49,30,10.0,110.0
3096,72.0,1,30,11.0,110.0
3097,74.0,2,50,12.0,110.0
3098,62.0,0,50,12.0,110.0
3099,60.0,2,50,13.0,108.0
3100,48.0,4,50,14.0,106.0
3101,84.0,1,60,0.0,98.0
3102,72.0,1,60,1.0,98.0
3103,85.0,49,30,10.0,110.0
3104,73.0,1,30,11.0,110.0
3105,85.0,1,50,0.0,98.0
3106,73.0,1,50,1.0,98.0
3107,62.0,0,50,12.0,110.0
3108,74.0,2,50,12.0,110.0
3109,60.0,2,50,13.0,108.0
3110,48.0,4,50,14.0,106.0
3111,86.0,49,20,10.0,110.0
3112,74.0,1,20,11.0,110.0
3113,86.0,19,20,10.0,110.0
3114,74.0,3,20,11.0,110.0
3115,86.0,27,20,10.0,110.0
3116,74.0,3,20,11.0,110.0
3117,86.0,27,20,10.0,110.0
3118,74.0,3,20,11.0,110.0
3119,86.0,27,20,10.0,110.0
3120,74.0,3,20,11.0,110.0
3121,86.0,27,20,10.0,110.0
3122,86.0,1,170,0.0,98.0
3123,74.0,1,170,1.0,98.0
3124,74.0,3,20,11.0,110.0
3125,74.0,0,170,2.0,98.0
3126,59.0,1,170,12.0,110.0
3127,59.0,2,170,13.0,108.0
3128,59.0,1,170,3.0,100.0
3129,47.0,3,170,14.0,106.0
3130,84.0,27,20,10.0,110.0
3131,72.0,0,20,11.0,110.0
3132,84.0,19,20,10.0,110.0
3133,84.0,1,50,0.0,98.0
3134,72.0,1,50,1.0,98.0
3135,72.0,3,20,11.0,110.0
3136,72.0,1,50,2.0,98.0
3137,57.0,2,50,12.0,110.0
3138,57.0,2,50,13.0,108.0
3139,57.0,1,50,3.0,100.0
3140,45.0,3,50,14.0,106.0
3141,74.0,0,240,6.0,104.0
3142,62.0,0,240,4.0,102.0
3143,62.0,1,240,5.0,102.0
3144,83.0,27,20,10.0,110.0
3145,71.0,1,20,11.0,110.0
3146,83.0,19,20,10.0,110.0
3147,83.0,1,50,0.0,98.0
3148,71.0,1,50,1.0,98.0
3149,71.0,0,50,2.0,98.0
3150,71.0,3,20,11.0,110.0
3151,55.0,2,50,12.0,110.0
3152,55.0,2,50,13.0,108.0
3153,55.0,1,50,3.0,100.0
3154,43.0,3,50,14.0,106.0
3155,81.0,27,20,10.0,110.0
3156,69.0,0,20,11.0,110.0
3157,81.0,19,20,10.0,110.0
3158,81.0,1,50,0.0,98.0
3159,69.0,1,50,1.0,98.0
3160,69.0,3,20,11.0,110.0
3161,69.0,1,50,2.0,98.0
3162,57.0,2,50,12.0,110.0
3163,57.0,2,50,13.0,108.0
3164,57.0,1,50,3.0,100.0
3165,45.0,3,50,14.0,106.0
3166,79.0,27,20,10.0,110.0
3167,67.0,1,20,11.0,110.0
3168,79.0,19,20,10.0,110.0
3169,79.0,1,50,0.0,98.0
3170,67.0,1,50,1.0,98.0
3171,67.0,0,50,2.0,98.0
3172,67.0,3,20,11.0,110.0
3173,58.0,2,50,12.0,110.0
3174,58.0,2,50,13.0,108.0
3175,58.0,1,50,3.0,100.0
3176,46.0,3,50,14.0,106.0
3177,77.0,27,20,10.0,110.0
3178,65.0,0,20,11.0,110.0
3179,77.0,19,20,10.0,110.0
3180,77.0,1,50,0.0,98.0
3181,65.0,1,50,1.0,98.0
3182,65.0,3,20,11.0,110.0
3183,65.0,1,50,2.0,98.0
3184,59.0,2,50,12.0,110.0
3185,59.0,2,50,13.0,108.0
3186,59.0,1,50,3.0,100.0
3187,47.0,3,50,14.0,106.0
3188,76.0,27,20,10.0,110.0
3189,64.0,1,20,11.0,110.0
3190,76.0,19,20,10.0,110.0
3191,64.0,1,50,1.0,98.0
3192,76.0,3,20,11.0,110.0
3193,64.0,0,50,2.0,98.0
3194,76.0,27,20,10.0,110.0
3195,76.0,0,20,11.0,110.0
3196,76.0,27,20,10.0,110.0
3197,76.0,1,110,0.0,98.0
3198,76.0,3,20,11.0,110.0
3199,76.0,27,20,10.0,110.0
3200,76.0,2,20,11.0,110.0
3201,76.0,27,20,10.0,110.0
3202,88.0,1,50,0.0,98.0
3203,76.0,2,110,1.0,98.0
3204,76.0,3,20,11.0,110.0
3205,76.0,1,110,2.0,98.0
3206,60.0,2,170,12.0,110.0
3207,60.0,2,170,13.0,108.0
3208,60.0,1,170,3.0,100.0
3209,48.0,3,170,14.0,106.0
3210,74.0,27,20,10.0,110.0
3211,74.0,1,20,11.0,110.0
3212,74.0,19,20,10.0,110.0
3213,86.0,1,50,0.0,98.0
3214,74.0,1,50,1.0,98.0
3215,74.0,3,20,11.0,110.0
3216,74.0,0,50,2.0,98.0
3217,59.0,2,50,12.0,110.0
3218,59.0,2,50,13.0,108.0
3219,59.0,1,50,3.0,100.0
3220,47.0,3,50,14.0,106.0
3221,72.0,27,20,10.0,110.0
3222,72.0,1,20,11.0,110.0
3223,72.0,19,20,10.0,110.0
3224,84.0,1,50,0.0,98.0
3225,72.0,1,50,1.0,98.0
3226,72.0,3,20,11.0,110.0
3227,72.0,0,50,2.0,98.0
3228,64.0,2,50,12.0,110.0
3229,64.0,2,50,13.0,108.0
3230,64.0,1,50,3.0,100.0
3231,52.0,3,50,14.0,106.0
3232,71.0,27,20,10.0,110.0
3233,71.0,0,20,11.0,110.0
3234,71.0,19,20,10.0,110.0
3235,83.0,1,50,0.0,98.0
3236,71.0,1,50,1.0,98.0
3237,71.0,1,50,2.0,98.0
3238,71.0,3,20,11.0,110.0
3239,62.0,2,50,12.0,110.0
3240,62.0,2,50,13.0,108.0
3241,62.0,1,50,3.0,100.0
3242,50.0,3,50,14.0,106.0
3243,69.0,27,20,10.0,110.0
3244,69.0,1,20,11.0,110.0
3245,69.0,19,20,10.0,110.0
3246,81.0,1,50,0.0,98.0
3247,69.0,1,50,1.0,98.0
3248,69.0,3,20,11.0,110.0
3249,69.0,0,50,2.0,98.0
3250,60.0,2,50,12.0,110.0
3251,60.0,2,50,13.0,108.0
3252,60.0,1,50,3.0,100.0
3253,48.0,3,50,14.0,106.0
3254,67.0,27,20,10.0,110.0
3255,67.0,0,20,11.0,110.0
3256,67.0,19,20,10.0,110.0
3257,79.0,1,50,0.0,98.0
3258,67.0,1,50,1.0,98.0
3259,67.0,3,20,11.0,110.0
3260,67.0,1,50,2.0,98.0
3261,61.0,2,50,12.0,110.0
3262,61.0,2,50,13.0,108.0
3263,61.0,1,50,3.0,100.0
3264,49.0,3,50,14.0,106.0
3265,66.0,27,20,10.0,110.0
3266,66.0,0,20,11.0,110.0
3267,62.0,2,30,12.0,110.0
3268,62.0,2,30,13.0,108.0
3269,50.0,3,30,14.0,106.0
3270,66.0,19,20,10.0,110.0
3271,78.0,1,50,0.0,98.0
3272,66.0,1,50,1.0,98.0
3273,66.0,1,50,2.0,98.0
3274,66.0,3,20,11.0,110.0
3275,62.0,1,50,3.0,100.0
3276,67.0,27,20,10.0,110.0
3277,67.0,1,20,11.0,110.0
3278,71.0,2,30,12.0,110.0
3279,59.0,2,30,13.0,108.0
3280,47.0,3,30,14.0,106.0
3281,67.0,19,20,10.0,110.0
3282,79.0,1,50,0.0,98.0
3283,67.0,1,50,1.0,98.0
3284,67.0,3,20,11.0,110.0
3285,67.0,0,50,2.0,98.0
3286,59.0,1,50,3.0,100.0
3287,69.0,27,20,10.0,110.0
3288,69.0,1,20,11.0,110.0
3289,69.0,2,30,12.0,110.0
3290,57.0,2,30,13.0,108.0
3291,45.0,3,30,14.0,106.0
3292,69.0,19,20,10.0,110.0
3293,81.0,1,50,0.0,98.0
3294,69.0,0,50,0.0,98.0
3295,69.0,1,50,1.0,98.0
3296,69.0,3,20,11.0,110.0
3297,69.0,0,50,2.0,98.0
3298,57.0,1,50,3.0,100.0
3299,71.0,27,20,10.0,110.0
3300,71.0,1,20,11.0,110.0
3301,67.0,2,30,12.0,110.0
3302,55.0,2,30,13.0,108.0
3303,43.0,3,30,14.0,106.0
3304,71.0,19,20,10.0,110.0
3305,71.0,0,50,0.0,98.0
3306,83.0,1,50,0.0,98.0
3307,71.0,1,50,1.0,98.0
3308,71.0,3,20,11.0,110.0
3309,71.0,0,50,2.0,98.0
3310,55.0,1,50,3.0,100.0
3311,72.0,27,20,10.0,110.0
3312,72.0,1,20,11.0,110.0
3313,66.0,2,30,12.0,110.0
3314,54.0,2,30,13.0,108.0
3315,42.0,3,30,14.0,106.0
3316,72.0,19,20,10.0,110.0
3317,84.0,0,50,0.0,98.0
3318,72.0,1,50,0.0,98.0
3319,72.0,1,50,1.0,98.0
3320,72.0,0,50,2.0,98.0
3321,72.0,3,20,11.0,110.0
3322,54.0,1,50,3.0,100.0
3323,74.0,27,20,10.0,110.0
3324,74.0,1,20,11.0,110.0
3325,64.0,2,30,12.0,110.0
3326,52.0,2,30,13.0,108.0
3327,40.0,3,30,14.0,106.0
3328,74.0,19,20,10.0,110.0
3329,74.0,0,50,0.0,98.0
3330,86.0,1,50,0.0,98.0
3331,74.0,1,50,1.0,98.0
3332,74.0,3,20,11.0,110.0
3333,74.0,0,50,2.0,98.0
3334,52.0,1,50,3.0,100.0
3335,76.0,27,20,10.0,110.0
3336,76.0,0,20,11.0,110.0
3337,62.0,2,30,12.0,110.0
3338,50.0,2,30,13.0,108.0
3339,38.0,3,30,14.0,106.0
3340,76.0,19,20,10.0,110.0
3341,76.0,1,50,0.0,98.0
3342,88.0,0,50,0.0,98.0
3343,76.0,1,50,1.0,98.0
3344,76.0,3,20,11.0,110.0
3345,76.0,1,50,2.0,98.0
3346,50.0,1,50,3.0,100.0
3347,78.0,27,20,10.0,110.0
3348,78.0,0,20,11.0,110.0
3349,60.0,2,30,12.0,110.0
3350,48.0,2,30,13.0,108.0
3351,36.0,3,30,14.0,106.0
3352,78.0,19,20,10.0,110.0
3353,78.0,1,50,0.0,98.0
3354,90.0,0,50,0.0,98.0
3355,78.0,1,50,1.0,98.0
3356,78.0,1,50,2.0,98.0
3357,78.0,3,20,11.0,110.0
3358,48.0,1,50,3.0,100.0
3359,79.0,27,60,10.0,110.0
3360,91.0,1,60,0.0,98.0
3361,79.0,0,60,0.0,98.0
3362,79.0,1,60,1.0,98.0
3363,79.0,1,60,2.0,98.0
3364,79.0,0,60,11.0,110.0
3365,59.0,2,60,12.0,110.0
3366,47.0,2,60,13.0,108.0
3367,47.0,1,60,3.0,100.0
3368,35.0,3,60,14.0,106.0
3369,76.0,109,60,10.0,110.0
3370,88.0,1,60,0.0,88.0
3371,76.0,0,60,1.0,88.0
3372,67.0,1,60,1.0,88.0
3373,67.0,0,60,11.0,110.0
3374,67.0,0,60,2.0,88.0
3375,76.0,1,60,2.0,88.0
3376,67.0,1,60,12.0,110.0
3377,48.0,2,60,13.0,108.0
3378,48.0,1,60,3.0,100.0
3379,36.0,3,60,14.0,106.0
3380,67.0,0,120,6.0,104.0
3381,67.0,0,120,4.0,102.0
3382,55.0,1,120,5.0,102.0
3383,74.0,109,60,10.0,110.0
3384,86.0,1,60,0.0,88.0
3385,74.0,1,60,1.0,88.0
3386,71.0,0,60,1.0,88.0
3387,71.0,1,60,2.0,88.0
3388,74.0,0,60,2.0,88.0
3389,71.0,0,60,11.0,110.0
3390,67.0,1,60,12.0,110.0
3391,50.0,2,60,13.0,108.0
3392,50.0,1,60,3.0,100.0
3393,38.0,3,60,14.0,106.0
3394,74.0,1,0,6.0,104.0
3395,62.0,0,0,4.0,102.0
3396,62.0,1,120,5.0,102.0
3397,66.0,109,60,10.0,110.0
3398,78.0,1,60,0.0,88.0
3399,72.0,0,60,1.0,88.0
3400,78.0,0,60,1.0,88.0
3401,72.0,0,60,2.0,88.0
3402,66.0,0,60,2.0,88.0
3403,57.0,0,60,11.0,110.0
3404,66.0,1,60,11.0,110.0
3405,60.0,1,60,12.0,110.0
3406,50.0,2,60,13.0,108.0
3407,50.0,1,60,3.0,100.0
3408,38.0,3,60,14.0,106.0
3409,62.0,1,120,5.0,102.0
3410,67.0,109,110,10.0,110.0
3411,59.0,0,110,11.0,110.0
3412,67.0,1,110,11.0,110.0
3413,59.0,1,110,12.0,110.0
3414,79.0,1,120,0.0,70.0
3415,62.0,0,120,4.0,47.0
3416,79.0,0,120,1.0,70.0
3417,71.0,0,120,1.0,70.0
3418,67.0,1,120,6.0,49.0
3419,71.0,0,120,2.0,70.0
3420,67.0,0,120,2.0,70.0
3421,55.0,1,120,5.0,47.0
3422,62.0,109,86,10.0,100.0
3423,58.0,3,86,11.0,100.0
3424,55.0,2,86,12.0,100.0
3425,55.0,2,300,13.0,108.0
3426,55.0,1,300,3.0,100.0
3427,43.0,3,300,14.0,106.0
3428,62.0,115,86,10.0,100.0
3429,58.0,3,86,11.0,100.0
3430,55.0,2,86,12.0,100.0
3431,53.0,62,60,13.0,108.0
3432,53.0,1,60,3.0,100.0
3433,41.0,3,60,14.0,106.0
3434,51.0,2,60,13.0,108.0
3435,51.0,1,60,3.0,100.0
3436,39.0,3,60,14.0,106.0
3437,62.0,49,86,10.0,100.0
3438,58.0,3,86,11.0,100.0
3439,55.0,2,86,12.0,100.0
3440,50.0,56,50,13.0,108.0
3441,50.0,1,50,3.0,100.0
3442,38.0,3,50,14.0,106.0
3443,63.0,49,86,10.0,100.0
3444,60.0,3,86,11.0,100.0
3445,55.0,2,86,12.0,100.0
3446,48.0,1,120,3.0,100.0
3447,63.0,109,86,10.0,100.0
3448,60.0,3,86,11.0,100.0
3449,55.0,2,86,12.0,100.0
3450,48.0,2,290,13.0,108.0
3451,36.0,3,290,14.0,106.0
3452,63.0,115,86,10.0,100.0
3453,60.0,3,86,11.0,100.0
3454,55.0,2,86,12.0,100.0
3455,46.0,62,60,13.0,108.0
3456,34.0,4,60,14.0,106.0
3457,45.0,2,60,13.0,108.0
3458,33.0,4,60,14.0,106.0
3459,63.0,49,86,10.0,100.0
3460,60.0,3,86,11.0,100.0
3461,55.0,2,86,12.0,100.0
3462,43.0,56,50,13.0,108.0
3463,31.0,4,50,14.0,106.0
3464,63.0,49,86,10.0,100.0
3465,60.0,1,86,11.0,100.0
3466,57.0,2,86,12.0,100.0
3467,63.0,109,86,10.0,100.0
3468,60.0,3,86,11.0,100.0
3469,53.0,2,86,12.0,100.0
3470,41.0,2,290,13.0,108.0
3471,29.0,4,290,14.0,106.0
3472,63.0,115,86,10.0,100.0
3473,60.0,3,86,11.0,100.0
3474,53.0,2,86,12.0,100.0
3475,43.0,62,60,13.0,108.0
3476,31.0,4,60,14.0,106.0
3477,44.0,2,60,13.0,108.0
3478,32.0,4,60,14.0,106.0
3479,63.0,49,86,10.0,100.0
3480,60.0,3,86,11.0,100.0
3481,53.0,2,86,12.0,100.0
3482,45.0,56,50,13.0,108.0
3483,33.0,4,50,14.0,106.0
3484,62.0,49,86,10.0,100.0
3485,58.0,3,86,11.0,100.0
3486,53.0,2,86,12.0,100.0
3487,62.0,109,86,10.0,100.0
3488,58.0,3,86,11.0,100.0
3489,53.0,2,86,12.0,100.0
3490,46.0,2,290,13.0,108.0
3491,34.0,4,290,14.0,106.0
3492,62.0,115,86,10.0,100.0
3493,58.0,3,86,11.0,100.0
3494,53.0,2,86,12.0,100.0
3495,77.0,2,840,1.0,108.0
3496,48.0,62,60,13.0,108.0
3497,36.0,4,60,14.0,106.0
3498,75.0,2,60,1.0,108.0
3499,49.0,2,60,13.0,108.0
3500,37.0,4,60,14.0,106.0
3501,62.0,49,86,10.0,100.0
3502,58.0,1,86,11.0,100.0
3503,53.0,2,86,12.0,100.0
3504,74.0,51,50,1.0,108.0
3505,50.0,5,50,13.0,108.0
3506,38.0,4,50,14.0,106.0
3507,74.0,2,45,1.0,108.0
3508,51.0,2,60,13.0,108.0
3509,39.0,4,60,14.0,106.0
3510,60.0,49,86,10.0,100.0
3511,58.0,1,86,11.0,100.0
3512,55.0,2,86,12.0,100.0
3513,72.0,36,45,1.0,108.0
3514,50.0,20,50,13.0,108.0
3515,38.0,4,50,14.0,106.0
3516,51.0,2,30,13.0,108.0
3517,39.0,4,30,14.0,106.0
3518,60.0,49,86,10.0,100.0
3519,58.0,1,86,11.0,100.0
3520,55.0,2,86,12.0,100.0
3521,72.0,2,90,1.0,108.0
3522,52.0,56,30,13.0,108.0
3523,40.0,4,30,14.0,106.0
3524,53.0,2,60,13.0,108.0
3525,41.0,4,60,14.0,106.0
3526,60.0,49,86,10.0,100.0
3527,57.0,1,86,11.0,100.0
3528,53.0,2,86,12.0,100.0
3529,72.0,2,90,1.0,108.0
3530,52.0,56,50,13.0,108.0
3531,40.0,4,50,14.0,106.0
3532,53.0,2,30,13.0,108.0
3533,41.0,4,30,14.0,106.0
3534,60.0,49,86,10.0,100.0
3535,57.0,1,86,11.0,100.0
3536,57.0,2,86,12.0,100.0
3537,72.0,2,90,1.0,108.0
3538,53.0,56,30,13.0,108.0
3539,41.0,4,30,14.0,106.0
3540,60.0,49,86,10.0,100.0
3541,57.0,1,86,11.0,100.0
3542,57.0,2,86,12.0,100.0
3543,72.0,109,86,10.0,100.0
3544,69.0,3,86,11.0,100.0
3545,62.0,2,86,12.0,100.0
3546,54.0,2,290,13.0,108.0
3547,42.0,3,290,14.0,106.0
3548,72.0,115,86,10.0,100.0
3549,69.0,3,86,11.0,100.0
3550,62.0,2,86,12.0,100.0
3551,50.0,62,60,13.0,108.0
3552,38.0,4,60,14.0,106.0
3553,52.0,2,60,13.0,108.0
3554,40.0,4,60,14.0,106.0
3555,72.0,49,86,10.0,101.0
3556,69.0,3,86,11.0,101.0
3557,62.0,2,86,12.0,101.0
3558,54.0,56,50,13.0,108.0
3559,42.0,4,50,14.0,106.0
3560,70.0,49,86,10.0,102.0
3561,67.0,3,86,11.0,102.0
3562,62.0,2,86,12.0,102.0
3563,70.0,109,86,10.0,103.0
3564,67.0,3,86,11.0,103.0
3565,62.0,2,86,12.0,103.0
3566,55.0,2,290,13.0,108.0
3567,43.0,4,290,14.0,106.0
3568,70.0,115,86,10.0,104.0
3569,67.0,3,86,11.0,104.0
3570,62.0,2,86,12.0,104.0
3571,74.0,2,840,1.0,98.0
3572,55.0,62,60,13.0,108.0
3573,62.0,1,840,3.0,100.0
3574,43.0,4,60,14.0,106.0
3575,72.0,2,60,1.0,98.0
3576,57.0,2,60,13.0,108.0
3577,60.0,1,60,3.0,100.0
3578,45.0,3,60,14.0,106.0
3579,70.0,49,86,10.0,105.0
3580,62.0,1,86,11.0,105.0
3581,67.0,2,86,12.0,105.0
3582,70.0,51,50,1.0,98.0
3583,58.0,5,50,13.0,108.0
3584,58.0,1,50,3.0,100.0
3585,46.0,3,50,14.0,106.0
3586,70.0,2,45,1.0,98.0
3587,58.0,1,45,3.0,100.0
3588,60.0,2,60,13.0,108.0
3589,48.0,3,60,14.0,106.0
3590,69.0,49,86,10.0,106.0
3591,63.0,1,86,11.0,106.0
3592,67.0,2,86,12.0,106.0
3593,69.0,36,45,1.0,98.0
3594,57.0,6,45,3.0,100.0
3595,59.0,14,50,13.0,108.0
3596,47.0,4,50,14.0,106.0
3597,60.0,2,30,13.0,108.0
3598,48.0,3,30,14.0,106.0
3599,69.0,49,86,10.0,107.0
3600,63.0,1,86,11.0,107.0
3601,67.0,2,86,12.0,107.0
3602,69.0,2,90,1.0,98.0
3603,60.0,56,30,13.0,108.0
3604,57.0,1,90,3.0,100.0
3605,48.0,4,30,14.0,106.0
3606,61.0,2,60,13.0,108.0
3607,49.0,3,60,14.0,106.0
3608,69.0,49,86,10.0,108.0
3609,64.0,1,86,11.0,108.0
3610,67.0,2,86,12.0,108.0
3611,69.0,2,90,1.0,98.0
3612,57.0,1,90,3.0,100.0
3613,60.0,56,50,13.0,108.0
3614,48.0,4,50,14.0,106.0
3615,61.0,2,30,13.0,108.0
3616,49.0,3,30,14.0,106.0
3617,69.0,49,86,10.0,109.0
3618,64.0,1,86,11.0,109.0
3619,67.0,2,86,12.0,109.0
3620,69.0,2,90,1.0,98.0
3621,61.0,56,30,13.0,108.0
3622,57.0,1,90,3.0,100.0
3623,49.0,4,30,14.0,106.0
3624,69.0,49,86,10.0,110.0
3625,66.0,0,86,11.0,110.0
3626,66.0,2,86,12.0,110.0
3627,78.0,109,86,10.0,110.0
3628,72.0,3,86,11.0,110.0
3629,69.0,2,86,12.0,110.0
3630,62.0,2,290,13.0,108.0
3631,50.0,3,290,14.0,106.0
3632,78.0,115,86,10.0,110.0
3633,72.0,3,86,11.0,110.0
3634,69.0,2,86,12.0,110.0
3635,61.0,62,60,13.0,108.0
3636,49.0,4,60,14.0,106.0
3637,62.0,2,60,13.0,108.0
3638,50.0,4,60,14.0,106.0
3639,78.0,49,86,10.0,110.0
3640,72.0,3,86,11.0,110.0
3641,69.0,2,86,12.0,110.0
3642,63.0,56,50,13.0,108.0
3643,84.0,1,480,0.0,98.0
3644,78.0,0,480,0.0,98.0
3645,51.0,4,50,14.0,106.0
3646,72.0,0,480,1.0,98.0
3647,78.0,1,480,1.0,98.0
3648,72.0,1,480,2.0,98.0
3649,69.0,0,480,2.0,98.0
3650,60.0,1,480,3.0,100.0
3651,66.0,0,480,3.0,100.0
3652,79.0,49,86,10.0,110.0
3653,71.0,1,86,11.0,110.0
3654,67.0,2,86,12.0,110.0
3655,79.0,109,86,10.0,110.0
3656,71.0,3,86,11.0,110.0
3657,67.0,2,86,12.0,110.0
3658,64.0,2,300,13.0,108.0
3659,52.0,3,300,14.0,106.0
3660,79.0,115,86,10.0,110.0
3661,71.0,3,86,11.0,110.0
3662,67.0,2,86,12.0,110.0
3663,62.0,62,60,13.0,108.0
3664,50.0,4,60,14.0,106.0
3665,60.0,2,60,13.0,108.0
3666,48.0,4,60,14.0,106.0
3667,79.0,49,86,10.0,110.0
3668,71.0,3,86,11.0,110.0
3669,67.0,2,86,12.0,110.0
3670,59.0,56,50,13.0,108.0
3671,83.0,1,480,0.0,98.0
3672,47.0,4,50,14.0,106.0
3673,71.0,0,480,1.0,98.0
3674,71.0,0,480,2.0,98.0
3675,59.0,0,480,3.0,100.0
3676,67.0,1,480,3.0,100.0
3677,60.0,2,60,13.0,108.0
3678,48.0,3,60,14.0,106.0
3679,79.0,49,86,10.0,110.0
3680,69.0,0,86,11.0,110.0
3681,64.0,2,86,12.0,110.0
3682,59.0,56,60,13.0,108.0
3683,47.0,4,60,14.0,106.0
3684,60.0,2,60,13.0,108.0
3685,48.0,4,60,14.0,106.0
3686,79.0,49,86,10.0,110.0
3687,76.0,3,86,11.0,110.0
3688,69.0,2,86,12.0,110.0
3689,61.0,56,50,13.0,108.0
3690,79.0,0,720,0.0,98.0
3691,49.0,4,50,14.0,106.0
3692,79.0,1,720,1.0,98.0
3693,76.0,1,240,2.0,98.0
3694,67.0,0,720,2.0,98.0
3695,67.0,1,240,3.0,100.0
3696,64.0,0,240,3.0,100.0
3697,62.0,2,60,13.0,108.0
3698,50.0,3,60,14.0,106.0
3699,78.0,49,86,10.0,110.0
3700,72.0,0,86,11.0,110.0
3701,69.0,2,86,12.0,110.0
3702,60.0,56,60,13.0,108.0
3703,48.0,4,60,14.0,106.0
3704,62.0,2,60,13.0,108.0
3705,50.0,4,60,14.0,106.0
3706,78.0,49,86,10.0,110.0
3707,72.0,3,86,11.0,110.0
3708,69.0,2,86,12.0,110.0
3709,78.0,1,230,0.0,98.0
3710,78.0,1,230,1.0,98.0
3711,66.0,1,230,2.0,98.0
3712,72.0,0,230,2.0,98.0
3713,50.0,56,50,13.0,108.0
3714,66.0,1,230,3.0,100.0
3715,60.0,0,230,3.0,100.0
3716,81.0,1,480,0.0,98.0
3717,38.0,4,50,14.0,106.0
3718,69.0,1,480,1.0,98.0
3719,55.0,2,110,12.0,110.0
3720,55.0,2,110,13.0,108.0
3721,43.0,3,110,14.0,106.0
3722,71.0,1,120,2.0,98.0
3723,67.0,0,120,2.0,98.0
3724,50.0,114,90,12.0,110.0
3725,50.0,2,90,13.0,108.0
3726,38.0,4,90,14.0,106.0
3727,54.0,84,20,12.0,110.0
3728,54.0,2,20,13.0,108.0
3729,42.0,4,20,14.0,106.0
3730,79.0,49,350,10.0,110.0
3731,79.0,1,350,0.0,98.0
3732,79.0,0,350,1.0,98.0
3733,67.0,1,350,1.0,98.0
3734,67.0,0,350,11.0,110.0
3735,55.0,1,350,3.0,100.0
3736,67.0,0,350,3.0,100.0
3737,43.0,3,120,15.0,79.0
3738,74.0,109,90,10.0,110.0
3739,74.0,1,90,0.0,98.0
3740,74.0,0,90,1.0,98.0
3741,62.0,1,90,1.0,98.0
3742,62.0,1,90,11.0,110.0
3743,50.0,0,90,3.0,100.0
3744,62.0,5,90,3.0,100.0
3745,78.0,82,20,10.0,110.0
3746,78.0,1,20,0.0,98.0
3747,66.0,1,20,1.0,98.0
3748,78.0,0,20,1.0,98.0
3749,66.0,1,20,11.0,110.0
3750,54.0,0,20,3.0,100.0
3751,66.0,5,20,3.0,100.0
3752,55.0,1,350,12.0,110.0
3753,55.0,2,350,13.0,108.0
3754,43.0,1,350,14.0,106.0
3755,67.0,0,360,6.0,104.0
3756,67.0,0,360,4.0,102.0
3757,55.0,21,360,6.0,104.0
3758,55.0,2,360,5.0,102.0
3759,50.0,117,90,12.0,110.0
3760,50.0,2,90,13.0,108.0
3761,38.0,4,90,14.0,106.0
3762,54.0,84,20,12.0,110.0
3763,54.0,2,20,13.0,108.0
3764,42.0,4,20,14.0,106.0
3765,79.0,22,350,10.0,110.0
3766,79.0,1,350,0.0,98.0
3767,79.0,0,350,1.0,98.0
3768,67.0,1,350,1.0,98.0
3769,67.0,1,350,11.0,110.0
3770,67.0,0,350,3.0,100.0
3771,55.0,5,350,3.0,100.0
3772,43.0,3,120,15.0,79.0
3773,74.0,109,90,10.0,110.0
3774,74.0,1,90,0.0,98.0
3775,74.0,1,90,1.0,98.0
3776,62.0,0,90,1.0,98.0
3777,62.0,1,90,11.0,110.0
3778,62.0,0,90,3.0,100.0
3779,50.0,5,90,3.0,100.0
3780,78.0,82,20,10.0,110.0
3781,78.0,1,20,0.0,98.0
3782,78.0,1,20,1.0,98.0
3783,66.0,0,20,1.0,98.0
3784,66.0,1,20,11.0,110.0
3785,66.0,0,20,3.0,100.0
3786,54.0,5,20,3.0,100.0
3787,79.0,22,30,10.0,110.0
3788,67.0,1,30,11.0,110.0
3789,79.0,1,60,0.0,98.0
3790,67.0,1,60,1.0,98.0
3791,79.0,0,60,1.0,98.0
3792,79.0,50,60,10.0,110.0
3793,55.0,0,360,6.0,104.0
3794,67.0,0,360,4.0,102.0
3795,67.0,21,360,6.0,104.0
3796,67.0,3,60,11.0,110.0
3797,55.0,2,360,5.0,102.0
3798,55.0,1,360,12.0,110.0
3799,55.0,2,360,13.0,108.0
3800,55.0,5,120,3.0,100.0
3801,67.0,0,120,3.0,100.0
3802,43.0,2,120,15.0,79.0
3803,43.0,1,360,14.0,106.0
3804,78.0,57,60,10.0,110.0
3805,66.0,3,60,11.0,110.0
3806,79.0,57,50,10.0,110.0
3807,67.0,3,50,11.0,110.0
3808,81.0,57,30,10.0,110.0
3809,69.0,0,30,11.0,110.0
3810,81.0,1,60,0.0,98.0
3811,78.0,0,60,1.0,98.0
3812,69.0,1,60,1.0,98.0
3813,81.0,49,60,10.0,110.0
3814,69.0,0,120,2.0,98.0
3815,66.0,1,120,2.0,98.0
3816,69.0,3,60,11.0,110.0
3817,66.0,2,120,12.0,110.0
3818,50.0,2,120,13.0,108.0
3819,50.0,1,120,3.0,100.0
3820,38.0,3,120,14.0,106.0
3821,79.0,57,60,10.0,110.0
3822,67.0,3,60,11.0,110.0
3823,81.0,57,50,10.0,110.0
3824,69.0,3,50,11.0,110.0
3825,83.0,57,30,10.0,110.0
3826,71.0,0,30,11.0,110.0
3827,83.0,1,60,0.0,98.0
3828,79.0,1,60,1.0,98.0
3829,71.0,0,60,1.0,98.0
3830,83.0,49,60,10.0,110.0
3831,71.0,3,60,11.0,110.0
3832,67.0,1,120,2.0,98.0
3833,71.0,0,120,2.0,98.0
3834,67.0,2,120,12.0,110.0
3835,55.0,2,120,13.0,108.0
3836,55.0,1,120,3.0,100.0
3837,43.0,3,120,14.0,106.0
3838,81.0,57,60,10.0,110.0
3839,69.0,3,60,11.0,110.0
3840,83.0,57,50,10.0,110.0
3841,71.0,3,50,11.0,110.0
3842,84.0,57,30,10.0,110.0
3843,72.0,0,30,11.0,110.0
3844,84.0,1,60,0.0,98.0
3845,78.0,1,60,1.0,98.0
3846,72.0,0,60,1.0,98.0
3847,84.0,49,60,10.0,110.0
3848,72.0,1,120,2.0,98.0
3849,72.0,3,60,11.0,110.0
3850,66.0,0,120,2.0,98.0
3851,62.0,0,120,12.0,110.0
3852,74.0,2,120,12.0,110.0
3853,57.0,2,120,13.0,108.0
3854,57.0,1,120,3.0,100.0
3855,45.0,3,120,14.0,106.0
3856,83.0,57,60,10.0,110.0
3857,71.0,3,60,11.0,110.0
3858,84.0,57,50,10.0,110.0
3859,72.0,3,50,11.0,110.0
3860,86.0,57,20,10.0,110.0
3861,74.0,1,20,11.0,110.0
3862,86.0,19,20,10.0,110.0
3863,74.0,3,20,11.0,110.0
3864,59.0,2,60,12.0,110.0
3865,47.0,2,60,13.0,108.0
3866,35.0,3,60,14.0,106.0
3867,86.0,27,20,10.0,110.0
3868,74.0,3,20,11.0,110.0
3869,86.0,27,20,10.0,110.0
3870,74.0,3,20,11.0,110.0
3871,67.0,0,120,2.0,98.0
3872,71.0,0,120,2.0,98.0
3873,86.0,27,20,10.0,110.0
3874,74.0,3,20,11.0,110.0
3875,86.0,19,20,10.0,110.0
3876,74.0,3,20,11.0,110.0
3877,62.0,2,60,12.0,110.0
3878,50.0,2,60,13.0,108.0
3879,38.0,4,60,14.0,106.0
3880,86.0,27,20,10.0,110.0
3881,74.0,3,20,11.0,110.0
3882,86.0,27,20,10.0,110.0
3883,74.0,3,20,11.0,110.0
3884,86.0,27,20,10.0,110.0
3885,74.0,3,20,11.0,110.0
3886,86.0,19,20,10.0,110.0
3887,74.0,3,20,11.0,110.0
3888,67.0,2,60,12.0,110.0
3889,55.0,2,60,13.0,108.0
3890,43.0,4,60,14.0,106.0
3891,86.0,27,20,10.0,110.0
3892,74.0,3,20,11.0,110.0
3893,86.0,27,20,10.0,110.0
3894,74.0,3,20,11.0,110.0
3895,86.0,27,20,10.0,110.0
3896,74.0,3,20,11.0,110.0
3897,86.0,19,20,10.0,110.0
3898,74.0,3,20,11.0,110.0
3899,71.0,2,60,12.0,110.0
3900,59.0,2,60,13.0,108.0
3901,47.0,4,60,14.0,106.0
3902,86.0,27,20,10.0,110.0
3903,74.0,3,20,11.0,110.0
3904,86.0,27,20,10.0,110.0
3905,86.0,1,470,0.0,88.0
3906,74.0,1,470,1.0,88.0
3907,79.0,0,470,1.0,88.0
3908,74.0,3,20,11.0,110.0
3909,59.0,0,470,3.0,100.0
3910,62.0,1,470,3.0,100.0
3911,87.0,27,20,10.0,110.0
3912,75.0,1,20,11.0,110.0
3913,87.0,19,20,10.0,110.0
3914,75.0,3,20,11.0,110.0
3915,57.0,2,60,12.0,110.0
3916,45.0,2,60,13.0,108.0
3917,33.0,3,60,14.0,106.0
3918,87.0,27,20,10.0,110.0
3919,75.0,3,20,11.0,110.0
3920,87.0,27,20,10.0,110.0
3921,75.0,3,20,11.0,110.0
3922,87.0,27,20,10.0,110.0
3923,75.0,3,20,11.0,110.0
3924,87.0,19,20,10.0,110.0
3925,75.0,3,20,11.0,110.0
3926,60.0,2,60,12.0,110.0
3927,48.0,2,60,13.0,108.0
3928,36.0,4,60,14.0,106.0
3929,87.0,27,20,10.0,110.0
3930,75.0,3,20,11.0,110.0
3931,87.0,27,20,10.0,110.0
3932,75.0,3,20,11.0,110.0
3933,87.0,27,20,10.0,110.0
3934,75.0,3,20,11.0,110.0
3935,87.0,19,20,10.0,110.0
3936,75.0,3,20,11.0,110.0
3937,66.0,2,60,12.0,110.0
3938,54.0,2,60,13.0,108.0
3939,42.0,4,60,14.0,106.0
3940,87.0,27,20,10.0,110.0
3941,75.0,3,20,11.0,110.0
3942,87.0,27,20,10.0,110.0
3943,75.0,3,20,11.0,110.0
3944,87.0,27,20,10.0,110.0
3945,75.0,3,20,11.0,110.0
3946,87.0,19,20,10.0,110.0
3947,75.0,3,20,11.0,110.0
3948,69.0,2,60,12.0,110.0
3949,57.0,2,60,13.0,108.0
3950,45.0,4,60,14.0,106.0
3951,87.0,27,20,10.0,110.0
3952,75.0,3,20,11.0,110.0
3953,87.0,27,20,10.0,110.0
3954,78.0,0,470,0.0,88.0
3955,87.0,1,470,0.0,88.0
3956,78.0,0,470,1.0,88.0
3957,75.0,1,470,1.0,88.0
3958,75.0,3,20,11.0,110.0
3959,57.0,0,470,3.0,100.0
3960,60.0,1,470,3.0,100.0
3961,88.0,27,20,10.0,110.0
3962,76.0,1,20,11.0,110.0
3963,88.0,19,20,10.0,110.0
3964,76.0,3,20,11.0,110.0
3965,56.0,2,60,12.0,110.0
3966,44.0,2,60,13.0,108.0
3967,32.0,3,60,14.0,106.0
3968,88.0,27,20,10.0,110.0
3969,76.0,3,20,11.0,110.0
3970,88.0,27,20,10.0,110.0
3971,76.0,3,20,11.0,110.0
3972,88.0,27,20,10.0,110.0
3973,76.0,3,20,11.0,110.0
3974,88.0,19,20,10.0,110.0
3975,76.0,3,20,11.0,110.0
3976,59.0,2,60,12.0,110.0
3977,47.0,2,60,13.0,108.0
3978,35.0,4,60,14.0,106.0
3979,88.0,27,20,10.0,110.0
3980,76.0,3,20,11.0,110.0
3981,88.0,27,20,10.0,110.0
3982,76.0,3,20,11.0,110.0
3983,88.0,27,20,10.0,110.0
3984,76.0,3,20,11.0,110.0
3985,88.0,19,20,10.0,110.0
3986,76.0,3,20,11.0,110.0
3987,64.0,2,60,12.0,110.0
3988,52.0,2,60,13.0,108.0
3989,40.0,4,60,14.0,106.0
3990,88.0,27,20,10.0,110.0
3991,76.0,3,20,11.0,110.0
3992,88.0,27,20,10.0,110.0
3993,76.0,3,20,11.0,110.0
3994,88.0,27,20,10.0,110.0
3995,76.0,3,20,11.0,110.0
3996,88.0,19,20,10.0,110.0
3997,76.0,3,20,11.0,110.0
3998,68.0,2,60,12.0,110.0
3999,56.0,2,60,13.0,108.0
4000,44.0,4,60,14.0,106.0
4001,88.0,27,20,10.0,110.0
4002,76.0,3,20,11.0,110.0
4003,88.0,27,20,10.0,110.0
4004,83.0,0,470,0.0,88.0
4005,88.0,1,470,0.0,88.0
4006,76.0,1,470,1.0,88.0
4007,71.0,0,470,1.0,88.0
4008,76.0,3,20,11.0,110.0
4009,56.0,1,470,3.0,100.0
4010,59.0,0,470,3.0,100.0
4011,89.0,27,20,10.0,110.0
4012,77.0,1,20,11.0,110.0
4013,89.0,19,20,10.0,110.0
4014,77.0,3,20,11.0,110.0
4015,62.0,2,60,12.0,110.0
4016,50.0,2,60,13.0,108.0
4017,38.0,3,60,14.0,106.0
4018,89.0,27,20,10.0,110.0
4019,77.0,3,20,11.0,110.0
4020,89.0,27,20,10.0,110.0
4021,77.0,3,20,11.0,110.0
4022,89.0,0,120,0.0,88.0
4023,77.0,1,120,0.0,88.0
4024,77.0,1,120,1.0,88.0
4025,65.0,0,120,3.0,100.0
4026,86.0,27,20,10.0,110.0
4027,74.0,1,20,11.0,110.0
4028,86.0,19,20,10.0,110.0
4029,74.0,3,20,11.0,110.0
4030,74.0,2,60,12.0,110.0
4031,62.0,2,60,13.0,108.0
4032,50.0,3,60,14.0,106.0
4033,86.0,27,20,10.0,110.0
4034,74.0,3,20,11.0,110.0
4035,86.0,27,20,10.0,110.0
4036,74.0,3,20,11.0,110.0
4037,86.0,1,120,0.0,88.0
4038,74.0,1,120,1.0,88.0
4039,62.0,1,120,3.0,100.0
4040,83.0,27,20,10.0,110.0
4041,71.0,1,20,11.0,110.0
4042,83.0,19,20,10.0,110.0
4043,71.0,3,20,11.0,110.0
4044,74.0,2,60,12.0,110.0
4045,62.0,2,60,13.0,108.0
4046,50.0,3,60,14.0,106.0
4047,83.0,27,20,10.0,110.0
4048,71.0,3,20,11.0,110.0
4049,83.0,27,20,10.0,110.0
4050,71.0,3,20,11.0,110.0
4051,83.0,1,120,0.0,88.0
4052,71.0,1,120,1.0,88.0
4053,59.0,1,120,3.0,100.0
4054,80.0,27,20,10.0,110.0
4055,68.0,1,20,11.0,110.0
4056,80.0,19,20,10.0,110.0
4057,68.0,3,20,11.0,110.0
4058,74.0,2,60,12.0,110.0
4059,62.0,2,60,13.0,108.0
4060,50.0,3,60,14.0,106.0
4061,80.0,27,20,10.0,110.0
4062,68.0,3,20,11.0,110.0
4063,80.0,27,20,10.0,110.0
4064,80.0,1,110,0.0,88.0
4065,68.0,1,110,1.0,88.0
4066,68.0,3,20,11.0,110.0
4067,56.0,1,110,3.0,100.0
4068,50.0,1,480,3.0,100.0
4069,81.0,27,20,10.0,110.0
4070,69.0,1,20,11.0,110.0
4071,81.0,19,20,10.0,110.0
4072,81.0,3,20,11.0,110.0
4073,60.0,2,60,12.0,110.0
4074,48.0,2,60,13.0,108.0
4075,36.0,3,60,14.0,106.0
4076,81.0,27,20,10.0,110.0
4077,81.0,3,20,11.0,110.0
4078,81.0,27,20,10.0,110.0
4079,81.0,3,20,11.0,110.0
4080,48.0,0,110,3.0,100.0
4081,57.0,1,110,3.0,100.0
4082,81.0,27,20,10.0,110.0
4083,81.0,3,20,11.0,110.0
4084,81.0,19,20,10.0,110.0
4085,81.0,3,20,11.0,110.0
4086,72.0,2,60,12.0,110.0
4087,60.0,2,60,13.0,108.0
4088,48.0,3,60,14.0,106.0
4089,81.0,27,20,10.0,110.0
4090,81.0,3,20,11.0,110.0
4091,81.0,27,20,10.0,110.0
4092,81.0,3,20,11.0,110.0
4093,64.0,1,110,3.0,100.0
4094,60.0,0,110,3.0,100.0
4095,81.0,27,20,10.0,110.0
4096,81.0,3,20,11.0,110.0
4097,81.0,19,20,10.0,110.0
4098,81.0,3,20,11.0,110.0
4099,72.0,2,60,12.0,110.0
4100,60.0,2,60,13.0,108.0
4101,48.0,3,60,14.0,106.0
4102,81.0,27,20,10.0,110.0
4103,81.0,3,20,11.0,110.0
4104,81.0,27,20,10.0,110.0
4105,81.0,3,20,11.0,110.0
4106,60.0,0,110,3.0,100.0
4107,64.0,1,110,3.0,100.0
4108,81.0,27,20,10.0,110.0
4109,81.0,3,20,11.0,110.0
4110,81.0,19,20,10.0,110.0
4111,81.0,3,20,11.0,110.0
4112,72.0,2,60,12.0,110.0
4113,60.0,2,60,13.0,108.0
4114,48.0,3,60,14.0,106.0
4115,81.0,27,20,10.0,110.0
4116,81.0,3,20,11.0,110.0
4117,81.0,27,20,10.0,110.0
4118,81.0,3,20,11.0,110.0
4119,64.0,1,110,3.0,100.0
4120,60.0,0,110,3.0,100.0
4121,76.0,1,480,0.0,88.0
4122,81.0,0,480,0.0,88.0
4123,76.0,1,480,1.0,88.0
4124,69.0,0,480,1.0,88.0
4125,82.0,27,20,10.0,110.0
4126,82.0,1,20,11.0,110.0
4127,82.0,19,20,10.0,110.0
4128,82.0,3,20,11.0,110.0
4129,61.0,2,60,12.0,110.0
4130,49.0,2,60,13.0,108.0
4131,37.0,3,60,14.0,106.0
4132,82.0,27,20,10.0,110.0
4133,82.0,3,20,11.0,110.0
4134,82.0,27,20,10.0,110.0
4135,82.0,3,20,11.0,110.0
4136,82.0,1,120,0.0,88.0
4137,82.0,1,120,1.0,88.0
4138,64.0,1,120,3.0,100.0
4139,61.0,0,120,3.0,100.0
4140,79.0,27,20,10.0,110.0
4141,79.0,1,20,11.0,110.0
4142,79.0,19,20,10.0,110.0
4143,79.0,3,20,11.0,110.0
4144,67.0,2,60,12.0,110.0
4145,55.0,2,60,13.0,108.0
4146,43.0,3,60,14.0,106.0
4147,79.0,27,20,10.0,110.0
4148,79.0,3,20,11.0,110.0
4149,79.0,27,20,10.0,110.0
4150,79.0,3,20,11.0,110.0
4151,79.0,1,120,0.0,88.0
4152,79.0,1,120,1.0,88.0
4153,67.0,1,120,3.0,100.0
4154,55.0,0,120,3.0,100.0
4155,76.0,27,20,10.0,110.0
4156,76.0,1,20,11.0,110.0
4157,76.0,19,20,10.0,110.0
4158,76.0,3,20,11.0,110.0
4159,64.0,2,60,12.0,110.0
4160,52.0,2,60,13.0,108.0
4161,40.0,3,60,14.0,106.0
4162,76.0,27,20,10.0,110.0
4163,76.0,3,20,11.0,110.0
4164,76.0,27,20,10.0,110.0
4165,76.0,3,20,11.0,110.0
4166,88.0,0,120,0.0,88.0
4167,76.0,1,120,0.0,88.0
4168,76.0,1,120,1.0,88.0
4169,52.0,0,120,3.0,100.0
4170,64.0,1,120,3.0,100.0
4171,73.0,27,20,10.0,110.0
4172,73.0,1,20,11.0,110.0
4173,73.0,19,20,10.0,110.0
4174,73.0,3,20,11.0,110.0
4175,61.0,2,60,12.0,110.0
4176,49.0,2,60,13.0,108.0
4177,37.0,3,60,14.0,106.0
4178,73.0,27,20,10.0,110.0
4179,73.0,3,20,11.0,110.0
4180,73.0,27,20,10.0,110.0
4181,73.0,1,110,0.0,88.0
4182,85.0,0,110,0.0,88.0
4183,73.0,1,110,1.0,88.0
4184,73.0,3,20,11.0,110.0
4185,49.0,1,110,3.0,100.0
4186,61.0,0,110,3.0,100.0
4187,74.0,27,20,10.0,110.0
4188,74.0,0,20,11.0,110.0
4189,74.0,19,20,10.0,110.0
4190,74.0,3,20,11.0,110.0
4191,62.0,2,50,12.0,110.0
4192,50.0,2,50,13.0,108.0
4193,38.0,3,50,14.0,106.0
4194,74.0,27,20,10.0,110.0
4195,74.0,3,20,11.0,110.0
4196,74.0,19,20,10.0,110.0
4197,74.0,3,20,11.0,110.0
4198,62.0,2,50,12.0,110.0
4199,50.0,2,50,13.0,108.0
4200,38.0,4,50,14.0,106.0
4201,74.0,27,20,10.0,110.0
4202,74.0,3,20,11.0,110.0
4203,74.0,19,20,10.0,110.0
4204,74.0,3,20,11.0,110.0
4205,62.0,2,50,12.0,110.0
4206,50.0,2,50,13.0,108.0
4207,38.0,4,50,14.0,106.0
4208,74.0,27,20,10.0,110.0
4209,74.0,3,20,11.0,110.0
4210,74.0,19,20,10.0,110.0
4211,86.0,1,230,0.0,88.0
4212,74.0,0,230,0.0,88.0
4213,74.0,1,230,1.0,88.0
4214,74.0,3,20,11.0,110.0
4215,62.0,0,230,2.0,98.0
4216,74.0,1,230,2.0,98.0
4217,62.0,2,50,12.0,110.0
4218,50.0,2,50,13.0,108.0
4219,50.0,1,230,3.0,100.0
4220,62.0,0,230,3.0,100.0
4221,38.0,4,50,14.0,106.0
4222,76.0,27,20,10.0,110.0
4223,76.0,0,20,11.0,110.0
4224,76.0,19,20,10.0,110.0
4225,76.0,3,20,11.0,110.0
4226,64.0,1,50,12.0,110.0
4227,52.0,2,50,13.0,108.0
4228,40.0,3,50,14.0,106.0
4229,76.0,27,20,10.0,110.0
4230,76.0,3,20,11.0,110.0
4231,76.0,19,20,10.0,110.0
4232,76.0,3,20,11.0,110.0
4233,64.0,2,50,12.0,110.0
4234,52.0,2,50,13.0,108.0
4235,40.0,4,50,14.0,106.0
4236,76.0,27,20,10.0,110.0
4237,76.0,3,20,11.0,110.0
4238,76.0,19,20,10.0,110.0
4239,76.0,3,20,11.0,110.0
4240,64.0,2,50,12.0,110.0
4241,52.0,2,50,13.0,108.0
4242,40.0,4,50,14.0,106.0
4243,76.0,27,20,10.0,110.0
4244,76.0,3,20,11.0,110.0
4245,76.0,19,20,10.0,110.0
4246,88.0,0,230,0.0,88.0
4247,76.0,1,230,0.0,88.0
4248,76.0,0,230,1.0,88.0
4249,76.0,0,230,2.0,98.0
4250,64.0,1,230,2.0,98.0
4251,76.0,3,20,11.0,110.0
4252,64.0,2,50,12.0,110.0
4253,52.0,2,50,13.0,108.0
4254,52.0,0,230,3.0,100.0
4255,64.0,1,230,3.0,100.0
4256,40.0,4,50,14.0,106.0
4257,64.0,1,240,4.0,102.0
4258,76.0,0,240,6.0,104.0
4259,64.0,0,240,6.0,104.0
4260,52.0,1,240,5.0,102.0
4261,72.0,27,20,10.0,110.0
4262,72.0,0,20,11.0,110.0
4263,72.0,19,20,10.0,110.0
4264,72.0,3,20,11.0,110.0
4265,60.0,1,50,12.0,110.0
4266,48.0,2,50,13.0,108.0
4267,36.0,3,50,14.0,106.0
4268,72.0,27,20,10.0,110.0
4269,72.0,3,20,11.0,110.0
4270,72.0,19,20,10.0,110.0
4271,72.0,3,20,11.0,110.0
4272,60.0,2,50,12.0,110.0
4273,48.0,2,50,13.0,108.0
4274,36.0,4,50,14.0,106.0
4275,72.0,27,20,10.0,110.0
4276,72.0,3,20,11.0,110.0
4277,72.0,19,20,10.0,110.0
4278,72.0,3,20,11.0,110.0
4279,60.0,2,50,12.0,110.0
4280,48.0,2,50,13.0,108.0
4281,36.0,4,50,14.0,106.0
4282,72.0,27,20,10.0,110.0
4283,72.0,3,20,11.0,110.0
4284,72.0,19,20,10.0,110.0
4285,84.0,0,230,0.0,88.0
4286,72.0,1,230,0.0,88.0
4287,72.0,0,230,1.0,88.0
4288,72.0,3,20,11.0,110.0
4289,72.0,1,230,2.0,98.0
4290,60.0,0,230,2.0,98.0
4291,60.0,2,50,12.0,110.0
4292,48.0,2,50,13.0,108.0
4293,60.0,1,230,3.0,100.0
4294,48.0,0,230,3.0,100.0
4295,36.0,4,50,14.0,106.0
4296,60.0,0,240,6.0,104.0
4297,72.0,0,240,6.0,104.0
4298,60.0,1,240,4.0,102.0
4299,48.0,1,240,5.0,102.0
4300,74.0,27,20,10.0,110.0
4301,74.0,0,20,11.0,110.0
4302,74.0,19,20,10.0,110.0
4303,74.0,3,20,11.0,110.0
4304,62.0,1,50,12.0,110.0
4305,50.0,2,50,13.0,108.0
4306,38.0,3,50,14.0,106.0
4307,74.0,27,20,10.0,110.0
4308,74.0,3,20,11.0,110.0
4309,74.0,19,20,10.0,110.0
4310,74.0,3,20,11.0,110.0
4311,62.0,2,50,12.0,110.0
4312,50.0,2,50,13.0,108.0
4313,38.0,4,50,14.0,106.0
4314,74.0,27,20,10.0,110.0
4315,74.0,3,20,11.0,110.0
4316,74.0,19,20,10.0,110.0
4317,74.0,3,20,11.0,110.0
4318,62.0,2,50,12.0,110.0
4319,50.0,2,50,13.0,108.0
4320,38.0,4,50,14.0,106.0
4321,74.0,27,20,10.0,110.0
4322,74.0,3,20,11.0,110.0
4323,74.0,19,20,10.0,110.0
4324,86.0,0,230,0.0,88.0
4325,74.0,1,230,0.0,88.0
4326,74.0,1,230,1.0,88.0
4327,74.0,1,230,2.0,98.0
4328,62.0,0,230,2.0,98.0
4329,74.0,3,20,11.0,110.0
4330,62.0,2,50,12.0,110.0
4331,50.0,2,50,13.0,108.0
4332,62.0,1,230,3.0,100.0
4333,50.0,0,230,3.0,100.0
4334,38.0,4,50,14.0,106.0
4335,62.0,0,240,4.0,102.0
4336,74.0,0,240,6.0,104.0
4337,62.0,1,240,5.0,102.0
4338,67.0,0,60,11.0,110.0
4339,67.0,0,110,1.0,88.0
4340,55.0,0,110,3.0,100.0
4341,43.0,1,110,3.0,100.0
4342,67.0,27,120,10.0,100.0
4343,67.0,0,120,0.0,88.0
4344,79.0,1,120,0.0,88.0
4345,67.0,1,120,6.0,104.0
4346,55.0,52,60,11.0,110.0
4347,55.0,0,120,2.0,98.0
4348,67.0,1,120,2.0,98.0
4349,55.0,1,120,12.0,110.0
4350,43.0,2,120,13.0,108.0
4351,43.0,2,120,15.0,79.0
4352,31.0,1,120,14.0,106.0
4353,67.0,1,60,11.0,110.0
4354,55.0,55,50,11.0,110.0
4355,76.0,0,120,1.0,98.0
4356,72.0,59,120,1.0,98.0
4357,60.0,0,120,3.0,100.0
4358,64.0,5,120,3.0,100.0
4359,67.0,1,60,11.0,110.0
4360,71.0,59,120,1.0,98.0
4361,74.0,0,120,1.0,98.0
4362,55.0,55,60,11.0,110.0
4363,59.0,5,120,3.0,100.0
4364,62.0,0,120,3.0,100.0
4365,67.0,1,60,11.0,110.0
4366,55.0,55,50,11.0,110.0
4367,78.0,57,120,10.0,110.0
4368,69.0,2,120,1.0,98.0
4369,72.0,0,120,1.0,98.0
4370,60.0,5,120,3.0,100.0
4371,57.0,0,120,3.0,100.0
4372,67.0,1,60,11.0,110.0
4373,71.0,0,120,1.0,98.0
4374,67.0,2,120,1.0,98.0
4375,55.0,55,60,11.0,110.0
4376,55.0,0,120,3.0,100.0
4377,59.0,5,120,3.0,100.0
4378,79.0,57,180,10.0,125.0
4379,67.0,1,60,11.0,110.0
4380,78.0,52,30,10.0,110.0
4381,76.0,27,20,10.0,110.0
4382,55.0,3,50,11.0,110.0
4383,72.0,59,120,1.0,98.0
4384,69.0,0,120,1.0,98.0
4385,57.0,5,120,3.0,100.0
4386,60.0,0,120,3.0,100.0
4387,74.0,30,60,10.0,110.0
4388,67.0,1,60,11.0,110.0
4389,74.0,2,110,1.0,98.0
4390,71.0,0,110,1.0,98.0
4391,59.0,0,110,3.0,100.0
4392,62.0,5,110,3.0,100.0
4393,55.0,0,840,4.0,102.0
4394,55.0,55,60,11.0,110.0
4395,43.0,1,840,5.0,102.0
4396,66.0,0,60,11.0,110.0
4397,57.0,52,50,11.0,110.0
4398,72.0,57,120,10.0,110.0
4399,90.0,0,120,0.0,98.0
4400,78.0,1,120,0.0,98.0
4401,62.0,0,120,4.0,102.0
4402,78.0,1,120,1.0,98.0
4403,72.0,0,120,1.0,98.0
4404,78.0,1,120,2.0,98.0
4405,66.0,0,120,2.0,98.0
4406,62.0,1,120,5.0,102.0
4407,62.0,1,120,12.0,110.0
4408,50.0,2,120,13.0,108.0
4409,60.0,1,120,3.0,100.0
4410,57.0,0,120,3.0,100.0
4411,38.0,3,120,14.0,106.0
4412,67.0,0,60,11.0,110.0
4413,71.0,57,120,10.0,110.0
4414,79.0,0,120,0.0,98.0
4415,91.0,1,120,0.0,98.0
4416,79.0,0,120,1.0,98.0
4417,67.0,0,120,1.0,98.0
4418,55.0,52,60,11.0,110.0
4419,79.0,1,120,2.0,98.0
4420,67.0,0,120,2.0,98.0
4421,67.0,1,120,12.0,110.0
4422,55.0,2,120,13.0,108.0
4423,59.0,1,120,3.0,100.0
4424,55.0,0,120,3.0,100.0
4425,43.0,2,120,15.0,52.0
4426,43.0,1,120,14.0,106.0
4427,67.0,1,60,11.0,110.0
4428,55.0,55,50,11.0,110.0
4429,76.0,59,120,1.0,98.0
4430,72.0,0,120,1.0,98.0
4431,64.0,5,120,3.0,100.0
4432,60.0,0,120,3.0,100.0
4433,67.0,1,60,11.0,110.0
4434,71.0,0,120,1.0,98.0
4435,74.0,59,120,1.0,98.0
4436,55.0,55,60,11.0,110.0
4437,62.0,0,120,3.0,100.0
4438,59.0,5,120,3.0,100.0
4439,67.0,1,60,11.0,110.0
4440,55.0,55,50,11.0,110.0
4441,78.0,57,120,10.0,110.0
4442,72.0,2,120,1.0,98.0
4443,69.0,0,120,1.0,98.0
4444,60.0,0,120,3.0,100.0
4445,57.0,5,120,3.0,100.0
4446,67.0,1,60,11.0,110.0
4447,71.0,0,120,1.0,98.0
4448,67.0,2,120,1.0,98.0
4449,55.0,55,60,11.0,110.0
4450,59.0,0,120,3.0,100.0
4451,55.0,5,120,3.0,100.0
4452,79.0,57,180,10.0,125.0
4453,67.0,1,60,11.0,110.0
4454,78.0,52,30,10.0,110.0
4455,76.0,27,20,10.0,110.0
4456,55.0,3,50,11.0,110.0
4457,72.0,0,120,1.0,98.0
4458,69.0,59,120,1.0,98.0
4459,60.0,5,120,3.0,100.0
4460,57.0,0,120,3.0,100.0
4461,74.0,30,60,10.0,110.0
4462,67.0,1,60,11.0,110.0
4463,74.0,2,110,1.0,98.0
4464,71.0,0,110,1.0,98.0
4465,59.0,0,110,3.0,100.0
4466,62.0,5,110,3.0,100.0
4467,55.0,1,840,4.0,102.0
4468,55.0,55,60,11.0,110.0
4469,43.0,1,840,5.0,102.0
4470,66.0,0,60,11.0,110.0
4471,57.0,52,50,11.0,110.0
4472,78.0,57,120,10.0,110.0
4473,78.0,0,120,0.0,98.0
4474,90.0,1,120,0.0,98.0
4475,62.0,1,120,4.0,102.0
4476,74.0,0,120,6.0,104.0
4477,72.0,0,120,1.0,98.0
4478,69.0,0,120,1.0,98.0
4479,78.0,1,120,2.0,98.0
4480,66.0,0,120,2.0,98.0
4481,62.0,1,120,5.0,102.0
4482,62.0,1,120,12.0,110.0
4483,50.0,2,120,13.0,108.0
4484,60.0,0,120,3.0,100.0
4485,57.0,1,120,3.0,100.0
4486,38.0,3,120,14.0,106.0
4487,71.0,0,60,1.0,98.0
4488,67.0,0,60,1.0,98.0
4489,67.0,0,60,11.0,110.0
4490,55.0,1,60,3.0,100.0
4491,59.0,0,60,3.0,100.0
4492,79.0,1,120,0.0,98.0
4493,67.0,0,120,6.0,104.0
4494,55.0,52,60,11.0,110.0
4495,67.0,1,120,12.0,110.0
4496,55.0,2,120,13.0,108.0
4497,43.0,2,120,15.0,52.0
4498,43.0,1,120,14.0,106.0
4499,79.0,57,180,10.0,125.0
4500,91.0,0,180,0.0,98.0
4501,79.0,1,180,2.0,98.0
4502,67.0,1,60,11.0,110.0
4503,67.0,0,180,2.0,98.0
4504,78.0,52,30,10.0,110.0
4505,90.0,1,30,0.0,98.0
4506,78.0,0,30,2.0,98.0
4507,66.0,0,30,2.0,98.0
4508,76.0,27,20,10.0,110.0
4509,88.0,1,20,0.0,98.0
4510,55.0,2,50,11.0,110.0
4511,64.0,2,20,2.0,98.0
4512,76.0,0,20,2.0,98.0
4513,72.0,59,120,1.0,98.0
4514,76.0,0,120,1.0,98.0
4515,64.0,5,120,3.0,100.0
4516,60.0,0,120,3.0,100.0
4517,74.0,27,60,10.0,110.0
4518,86.0,1,60,0.0,98.0
4519,62.0,1,60,2.0,98.0
4520,67.0,0,60,11.0,110.0
4521,74.0,0,60,2.0,98.0
4522,74.0,0,120,1.0,98.0
4523,71.0,1,120,1.0,98.0
4524,55.0,1,360,4.0,102.0
4525,55.0,55,60,11.0,110.0
4526,43.0,1,360,5.0,102.0
4527,59.0,5,120,3.0,100.0
4528,62.0,0,120,3.0,100.0
4529,60.0,1,60,11.0,110.0
4530,62.0,52,50,11.0,110.0
4531,78.0,57,120,10.0,110.0
4532,84.0,1,120,0.0,98.0
4533,90.0,0,120,0.0,98.0
4534,74.0,0,120,6.0,104.0
4535,62.0,1,120,4.0,102.0
4536,72.0,0,120,1.0,98.0
4537,69.0,0,120,1.0,98.0
4538,78.0,0,120,2.0,98.0
4539,66.0,0,120,2.0,98.0
4540,62.0,1,120,5.0,102.0
4541,62.0,1,120,12.0,110.0
4542,50.0,2,120,13.0,108.0
4543,57.0,1,120,3.0,100.0
4544,60.0,0,120,3.0,100.0
4545,38.0,3,120,14.0,106.0
4546,67.0,0,60,1.0,98.0
4547,71.0,0,60,1.0,98.0
4548,59.0,0,60,11.0,110.0
4549,59.0,1,60,3.0,100.0
4550,55.0,0,60,3.0,100.0
4551,83.0,0,120,0.0,98.0
4552,67.0,0,120,6.0,104.0
4553,55.0,52,60,11.0,110.0
4554,67.0,1,120,12.0,110.0
4555,55.0,2,120,13.0,108.0
4556,43.0,2,120,15.0,52.0
4557,43.0,1,120,14.0,106.0
4558,79.0,57,180,10.0,125.0
4559,91.0,1,180,0.0,98.0
4560,79.0,0,180,2.0,98.0
4561,67.0,1,180,2.0,98.0
4562,67.0,1,60,11.0,110.0
4563,78.0,52,30,10.0,110.0
4564,90.0,1,30,0.0,98.0
4565,66.0,0,30,2.0,98.0
4566,78.0,2,30,2.0,98.0
4567,76.0,27,20,10.0,110.0
4568,88.0,1,30,0.0,98.0
4569,76.0,59,120,1.0,98.0
4570,72.0,0,120,1.0,98.0
4571,76.0,0,30,2.0,98.0
4572,55.0,0,60,11.0,110.0
4573,64.0,2,30,2.0,98.0
4574,60.0,5,120,3.0,100.0
4575,64.0,0,120,3.0,100.0
4576,74.0,27,60,10.0,110.0
4577,86.0,1,60,0.0,98.0
4578,74.0,0,60,2.0,98.0
4579,62.0,1,60,2.0,98.0
4580,67.0,0,60,11.0,110.0
4581,55.0,55,50,11.0,110.0
4582,71.0,0,120,1.0,98.0
4583,74.0,1,120,1.0,98.0
4584,55.0,1,360,4.0,102.0
4585,43.0,1,360,5.0,102.0
4586,62.0,5,120,3.0,100.0
4587,59.0,0,120,3.0,100.0
4588,62.0,57,60,10.0,95.0
4589,78.0,0,60,2.0,98.0
4590,72.0,0,60,11.0,110.0
4591,66.0,1,60,2.0,98.0
4592,62.0,0,60,11.0,110.0
4593,62.0,1,60,12.0,110.0
4594,50.0,2,60,13.0,108.0
4595,78.0,2,60,10.0,95.0
4596,69.0,0,60,10.0,95.0
4597,90.0,0,120,0.0,98.0
4598,84.0,1,120,0.0,98.0
4599,62.0,0,120,4.0,102.0
4600,69.0,0,120,1.0,98.0
4601,72.0,0,120,1.0,98.0
4602,74.0,1,120,6.0,104.0
4603,62.0,1,120,5.0,102.0
4604,60.0,1,120,3.0,100.0
4605,57.0,0,120,3.0,100.0
4606,38.0,1,120,14.0,106.0
4607,62.0,0,60,10.0,95.0
4608,55.0,109,60,10.0,95.0
4609,62.0,0,60,11.0,95.0
4610,55.0,0,60,11.0,95.0
4611,55.0,1,60,12.0,110.0
4612,67.0,0,60,12.0,110.0
4613,55.0,2,60,13.0,108.0
4614,79.0,0,60,10.0,95.0
4615,71.0,0,60,10.0,95.0
4616,43.0,1,60,14.0,106.0
4617,71.0,2,60,11.0,95.0
4618,83.0,0,120,0.0,98.0
4619,67.0,0,120,6.0,104.0
4620,71.0,0,120,1.0,98.0
4621,67.0,0,120,1.0,98.0
4622,43.0,2,120,15.0,112.0
4623,62.0,1,240,4.0,102.0
4624,55.0,2,0,5.0,102.0
4625,55.0,0,0,3.0,100.0
4626,59.0,1,240,3.0,100.0
4627,91.0,1,480,0.0,98.0
4628,79.0,0,240,1.0,88.0
4629,67.0,1,0,4.0,102.0
4630,67.0,0,480,2.0,98.0
4631,79.0,1,480,2.0,98.0
4632,67.0,4,240,3.0,100.0
4633,89.0,233,240,0.0,88.0
4634,77.0,0,240,1.0,88.0
4635,65.0,1,240,2.0,88.0
4636,77.0,0,240,2.0,88.0
4637,55.0,1,0,5.0,102.0
4638,53.0,0,240,3.0,100.0
4639,65.0,4,240,3.0,100.0
4640,86.0,233,240,0.0,88.0
4641,67.0,1,0,4.0,102.0
4642,74.0,1,240,1.0,88.0
4643,74.0,1,240,2.0,88.0
4644,62.0,0,240,2.0,88.0
4645,50.0,4,240,3.0,100.0
4646,62.0,0,240,3.0,100.0
4647,55.0,0,120,10.0,86.0
4648,62.0,232,120,10.0,86.0
4649,55.0,0,120,11.0,86.0
4650,62.0,0,120,11.0,86.0
4651,65.0,1,120,12.0,100.0
4652,55.0,0,120,12.0,100.0
4653,43.0,2,120,13.0,98.0
4654,71.0,2,120,10.0,86.0
4655,31.0,1,120,14.0,96.0
4656,71.0,2,120,11.0,86.0
4657,83.0,1,240,0.0,88.0
4658,71.0,0,240,1.0,88.0
4659,71.0,1,240,2.0,88.0
4660,59.0,0,240,2.0,88.0
4661,47.0,1,240,3.0,100.0
4662,59.0,0,240,3.0,100.0
4663,79.0,228,240,0.0,88.0
4664,79.0,1,240,1.0,88.0
4665,67.0,0,240,1.0,88.0
4666,67.0,1,240,2.0,88.0
4667,43.0,0,240,3.0,100.0
4668,55.0,5,240,3.0,100.0
4669,77.0,233,240,0.0,88.0
4670,77.0,0,240,1.0,88.0
4671,65.0,1,240,1.0,88.0
4672,65.0,1,240,2.0,88.0
4673,41.0,5,240,3.0,100.0
4674,53.0,0,240,3.0,100.0
4675,55.0,112,90,10.0,100.0
4676,55.0,3,90,11.0,100.0
4677,55.0,2,90,12.0,100.0
4678,43.0,2,90,13.0,98.0
4679,31.0,4,90,14.0,96.0
4680,59.0,79,20,10.0,100.0
4681,59.0,3,20,11.0,100.0
4682,59.0,2,20,12.0,100.0
4683,47.0,2,20,13.0,98.0
4684,74.0,233,240,0.0,88.0
4685,35.0,4,20,14.0,96.0
4686,62.0,1,240,1.0,88.0
4687,74.0,0,240,1.0,88.0
4688,62.0,1,240,2.0,88.0
4689,55.0,1,960,5.0,102.0
4690,38.0,0,240,3.0,100.0
4691,50.0,5,240,3.0,100.0
4692,84.0,1,120,0.0,74.0
4693,76.0,0,120,0.0,74.0
4694,60.0,0,120,4.0,87.0
4695,72.0,0,120,1.0,74.0
4696,64.0,1,120,1.0,74.0
4697,64.0,1,120,2.0,74.0
4698,60.0,0,120,11.0,90.0
4699,72.0,0,120,2.0,74.0
4700,52.0,1,120,5.0,87.0
4701,60.0,1,120,12.0,90.0
4702,48.0,2,120,13.0,88.0
4703,48.0,1,120,3.0,100.0
4704,60.0,0,120,3.0,100.0
4705,36.0,3,120,14.0,86.0
4706,60.0,19,308,10.0,110.0
4707,55.0,349,90,10.0,110.0
4708,59.0,90,20,10.0,110.0
4709,55.0,3,120,11.0,67.0
4710,52.0,2,120,12.0,67.0
4711,48.0,2,120,13.0,65.0
4712,36.0,4,120,14.0,63.0
4713,60.0,30,308,10.0,110.0
4714,55.0,349,90,10.0,110.0
4715,59.0,90,20,10.0,110.0
4716,60.0,30,30,10.0,110.0
4717,60.0,49,30,10.0,110.0
4718,55.0,3,120,11.0,67.0
4719,52.0,2,120,12.0,67.0
4720,48.0,2,120,13.0,65.0
4721,36.0,4,120,14.0,63.0
4722,55.0,60,30,10.0,110.0
4723,59.0,60,30,10.0,110.0
4724,60.0,60,30,10.0,110.0
4725,60.0,49,30,10.0,110.0
4726,55.0,3,120,11.0,67.0
4727,52.0,2,120,12.0,67.0
4728,48.0,2,120,13.0,65.0
4729,36.0,4,120,14.0,63.0
4730,55.0,60,30,10.0,110.0
4731,59.0,60,30,10.0,110.0
4732,60.0,60,60,10.0,110.0
4733,55.0,3,120,11.0,67.0
4734,52.0,2,120,12.0,67.0
4735,48.0,2,120,13.0,65.0
4736,36.0,4,120,14.0,63.0
4737,64.0,109,60,10.0,110.0
4738,67.0,120,60,10.0,110.0
4739,71.0,120,60,10.0,110.0
4740,72.0,120,120,10.0,110.0
4741,84.0,1,480,0.0,78.0
4742,76.0,0,0,1.0,78.0
4743,60.0,6,480,3.0,80.0
4744,69.0,352,30,10.0,110.0
4745,69.0,1,30,11.0,110.0
4746,57.0,2,30,12.0,110.0
4747,57.0,2,30,13.0,108.0
4748,45.0,4,30,14.0,106.0
4749,67.0,19,30,10.0,110.0
4750,67.0,3,30,11.0,110.0
4751,55.0,2,30,12.0,110.0
4752,55.0,2,30,13.0,108.0
4753,43.0,4,30,14.0,106.0
4754,65.0,19,30,10.0,110.0
4755,65.0,3,30,11.0,110.0
4756,53.0,2,30,12.0,110.0
4757,53.0,2,30,13.0,108.0
4758,41.0,4,30,14.0,106.0
4759,64.0,19,30,10.0,110.0
4760,76.0,0,960,0.0,78.0
4761,85.0,473,480,0.0,78.0
4762,79.0,1,480,1.0,78.0
4763,69.0,1,0,1.0,62.0
4764,64.0,3,30,11.0,110.0
4765,76.0,1,480,2.0,78.0
4766,73.0,0,480,2.0,78.0
4767,52.0,2,30,12.0,110.0
4768,52.0,2,30,13.0,108.0
4769,67.0,0,960,3.0,80.0
4770,57.0,5,480,3.0,80.0
4771,40.0,4,30,14.0,106.0
4772,77.0,0,120,0.0,62.0
4773,86.0,1,120,0.0,62.0
4774,77.0,0,120,1.0,62.0
4775,74.0,0,120,2.0,62.0
4776,62.0,1,120,11.0,110.0
4777,77.0,0,120,2.0,62.0
4778,50.0,2,120,12.0,110.0
4779,50.0,2,120,13.0,108.0
4780,50.0,0,120,3.0,64.0
4781,65.0,1,120,3.0,64.0
4782,38.0,3,120,14.0,106.0
4783,62.0,19,308,10.0,110.0
4784,57.0,349,90,10.0,110.0
4785,61.0,90,30,10.0,110.0
4786,57.0,3,120,11.0,78.0
4787,53.0,2,120,12.0,78.0
4788,50.0,2,120,13.0,76.0
4789,38.0,4,120,14.0,74.0
4790,62.0,30,308,10.0,110.0
4791,57.0,349,90,10.0,110.0
4792,61.0,90,30,10.0,110.0
4793,62.0,30,30,10.0,110.0
4794,62.0,49,30,10.0,110.0
4795,57.0,3,120,11.0,78.0
4796,53.0,2,120,12.0,78.0
4797,50.0,2,120,13.0,76.0
4798,38.0,4,120,14.0,74.0
4799,57.0,60,30,10.0,110.0
4800,61.0,60,30,10.0,110.0
4801,62.0,60,30,10.0,110.0
4802,62.0,49,30,10.0,110.0
4803,57.0,3,120,11.0,78.0
4804,53.0,2,120,12.0,78.0
4805,50.0,2,120,13.0,76.0
4806,38.0,4,120,14.0,74.0
4807,57.0,60,30,10.0,110.0
4808,61.0,60,30,10.0,110.0
4809,62.0,60,60,10.0,110.0
4810,57.0,3,120,11.0,78.0
4811,53.0,2,120,12.0,78.0
4812,50.0,2,120,13.0,76.0
4813,38.0,4,120,14.0,74.0
4814,65.0,109,60,10.0,110.0
4815,69.0,120,60,10.0,110.0
4816,73.0,120,60,10.0,110.0
4817,74.0,120,120,10.0,110.0
4818,81.0,1,480,1.0,78.0
4819,62.0,0,480,11.0,110.0
4820,69.0,0,480,2.0,78.0
4821,62.0,1,480,12.0,110.0
4822,50.0,2,0,13.0,108.0
4823,50.0,0,480,3.0,80.0
4824,62.0,1,480,3.0,80.0
4825,38.0,3,480,14.0,106.0
4826,62.0,0,15,11.0,110.0
4827,62.0,469,20,10.0,110.0
4828,62.0,2,20,12.0,110.0
4829,60.0,7,15,11.0,110.0
4830,60.0,2,20,10.0,110.0
4831,38.0,3,30,14.0,106.0
4832,60.0,5,20,12.0,110.0
4833,62.0,8,15,11.0,110.0
4834,62.0,3,20,10.0,110.0
4835,60.0,3,15,11.0,110.0
4836,62.0,4,20,12.0,110.0
4837,48.0,4,30,13.0,108.0
4838,36.0,1,30,14.0,106.0
4839,62.0,3,15,11.0,110.0
4840,60.0,12,20,10.0,110.0
4841,60.0,2,20,12.0,110.0
4842,60.0,7,15,11.0,110.0
4843,50.0,2,30,13.0,108.0
4844,62.0,2,20,10.0,110.0
4845,38.0,4,30,14.0,106.0
4846,62.0,5,20,12.0,110.0
4847,62.0,8,15,11.0,110.0
4848,60.0,3,20,10.0,110.0
4849,60.0,3,15,11.0,110.0
4850,60.0,4,20,12.0,110.0
4851,48.0,4,30,13.0,108.0
4852,36.0,1,30,14.0,106.0
4853,62.0,3,15,11.0,110.0
4854,62.0,12,20,10.0,110.0
4855,62.0,2,20,12.0,110.0
4856,60.0,7,15,11.0,110.0
4857,50.0,2,30,13.0,108.0
4858,60.0,2,20,10.0,110.0
4859,38.0,4,30,14.0,106.0
4860,60.0,5,20,12.0,110.0
4861,62.0,8,15,11.0,110.0
4862,62.0,3,20,10.0,110.0
4863,60.0,3,15,11.0,110.0
4864,62.0,4,20,12.0,110.0
4865,48.0,4,30,13.0,108.0
4866,36.0,1,30,14.0,106.0
4867,62.0,3,15,11.0,110.0
4868,60.0,12,20,10.0,110.0
4869,60.0,2,20,12.0,110.0
4870,60.0,7,15,11.0,110.0
4871,50.0,2,30,13.0,108.0
4872,62.0,2,20,10.0,110.0
4873,38.0,4,30,14.0,106.0
4874,62.0,5,20,12.0,110.0
4875,62.0,8,15,11.0,110.0
4876,60.0,3,20,10.0,110.0
4877,60.0,3,15,11.0,110.0
4878,60.0,4,20,12.0,110.0
4879,48.0,4,30,13.0,108.0
4880,36.0,1,30,14.0,106.0
4881,62.0,3,15,11.0,110.0
4882,62.0,12,20,10.0,110.0
4883,62.0,2,20,12.0,110.0
4884,60.0,7,15,11.0,110.0
4885,50.0,2,30,13.0,108.0
4886,60.0,2,20,10.0,110.0
4887,38.0,4,30,14.0,106.0
4888,60.0,5,20,12.0,110.0
4889,62.0,8,15,11.0,110.0
4890,62.0,3,20,10.0,110.0
4891,60.0,3,15,11.0,110.0
4892,62.0,4,20,12.0,110.0
4893,48.0,4,30,13.0,108.0
4894,36.0,1,30,14.0,106.0
4895,62.0,3,15,11.0,110.0
4896,60.0,12,20,10.0,110.0
4897,60.0,2,20,12.0,110.0
4898,60.0,7,15,11.0,110.0
4899,50.0,2,30,13.0,108.0
4900,62.0,2,20,10.0,110.0
4901,38.0,4,30,14.0,106.0
4902,62.0,5,20,12.0,110.0
4903,62.0,8,15,11.0,110.0
4904,60.0,3,20,10.0,110.0
4905,60.0,3,15,11.0,110.0
4906,60.0,4,20,12.0,110.0
4907,48.0,4,30,13.0,108.0
4908,36.0,1,30,14.0,106.0
4909,62.0,3,15,11.0,110.0
4910,62.0,12,20,10.0,110.0
4911,62.0,2,20,12.0,110.0
4912,60.0,7,15,11.0,110.0
4913,50.0,2,30,13.0,108.0
4914,60.0,2,20,10.0,110.0
4915,38.0,4,30,14.0,106.0
4916,60.0,5,20,12.0,110.0
4917,62.0,8,15,11.0,110.0
4918,62.0,3,20,10.0,110.0
4919,60.0,3,15,11.0,110.0
4920,62.0,4,20,12.0,110.0
4921,48.0,4,30,13.0,108.0
4922,36.0,1,30,14.0,106.0
4923,59.0,12,30,10.0,110.0
4924,59.0,3,30,11.0,110.0
4925,59.0,2,30,12.0,110.0
4926,47.0,2,30,13.0,108.0
4927,35.0,4,30,14.0,106.0
4928,60.0,19,30,10.0,110.0
4929,86.0,0,0,0.0,98.0
4930,77.0,1,0,0.0,98.0
4931,80.0,2,480,1.0,78.0
4932,77.0,0,960,1.0,78.0
4933,62.0,0,0,4.0,102.0
4934,68.0,1,480,2.0,78.0
4935,60.0,3,30,11.0,110.0
4936,65.0,0,0,2.0,98.0
4937,62.0,1,960,5.0,82.0
4938,60.0,2,30,12.0,110.0
4939,48.0,2,30,13.0,108.0
4940,48.0,1,480,3.0,80.0
4941,60.0,0,480,3.0,80.0
4942,36.0,4,30,14.0,106.0
4943,59.0,19,308,10.0,110.0
4944,59.0,1,308,11.0,110.0
4945,59.0,1,308,12.0,110.0
4946,47.0,2,308,13.0,108.0
4947,35.0,3,308,14.0,106.0
4948,79.0,1,335,1.0,98.0
4949,77.0,0,335,1.0,98.0
4950,67.0,0,335,2.0,98.0
4951,55.0,1,335,5.0,102.0
4952,59.0,1,335,3.0,100.0
4953,47.0,0,335,3.0,100.0
4954,55.0,349,90,10.0,110.0
4955,59.0,90,30,10.0,110.0
4956,62.0,30,30,10.0,110.0
4957,62.0,60,30,10.0,110.0
4958,55.0,60,30,10.0,110.0
4959,59.0,60,30,10.0,110.0
4960,62.0,60,30,10.0,110.0
4961,62.0,60,30,10.0,110.0
4962,55.0,60,90,10.0,110.0
4963,55.0,3,90,11.0,110.0
4964,55.0,2,90,12.0,110.0
4965,43.0,2,90,13.0,108.0
4966,43.0,0,90,3.0,100.0
4967,55.0,1,90,3.0,100.0
4968,31.0,3,90,14.0,106.0
4969,59.0,79,30,10.0,110.0
4970,59.0,3,30,11.0,110.0
4971,59.0,2,30,12.0,110.0
4972,47.0,2,30,13.0,108.0
4973,59.0,1,30,3.0,100.0
4974,47.0,0,30,3.0,100.0
4975,35.0,3,30,14.0,106.0
4976,62.0,19,308,10.0,110.0
4977,62.0,0,308,11.0,110.0
4978,62.0,1,308,12.0,110.0
4979,50.0,2,308,13.0,108.0
4980,38.0,3,308,14.0,106.0
4981,83.0,1,335,0.0,98.0
4982,77.0,0,335,1.0,98.0
4983,67.0,0,335,4.0,102.0
4984,79.0,1,335,1.0,98.0
4985,71.0,1,335,2.0,98.0
4986,65.0,0,335,2.0,98.0
4987,55.0,1,335,5.0,102.0
4988,62.0,0,335,3.0,100.0
4989,50.0,1,335,3.0,100.0
4990,55.0,349,90,10.0,110.0
4991,59.0,90,30,10.0,110.0
4992,62.0,30,30,10.0,110.0
4993,62.0,60,30,10.0,110.0
4994,55.0,60,30,10.0,110.0
4995,59.0,60,30,10.0,110.0
4996,62.0,60,30,10.0,110.0
4997,62.0,60,30,10.0,110.0
4998,59.0,60,90,10.0,110.0
4999,59.0,3,90,11.0,110.0
5000,59.0,2,90,12.0,110.0
5001,47.0,2,90,13.0,108.0
5002,47.0,1,90,3.0,100.0
5003,59.0,0,90,3.0,100.0
5004,35.0,3,90,14.0,106.0
5005,62.0,79,30,10.0,110.0
5006,62.0,3,30,11.0,110.0
5007,62.0,2,30,12.0,110.0
5008,50.0,2,30,13.0,108.0
5009,62.0,0,0,3.0,90.0
5010,50.0,1,0,3.0,90.0
5011,38.0,3,30,14.0,106.0
5012,43.0,2,240,15.0,104.0
5013,65.0,19,308,10.0,110.0
5014,65.0,1,308,11.0,110.0
5015,65.0,1,308,12.0,110.0
5016,53.0,2,308,13.0,108.0
5017,41.0,1,308,14.0,106.0
5018,71.0,349,90,10.0,100.0
5019,71.0,3,90,11.0,100.0
5020,74.0,87,30,10.0,100.0
5021,74.0,3,30,11.0,100.0
5022,77.0,27,30,10.0,100.0
5023,77.0,3,30,11.0,100.0
5024,74.0,57,30,10.0,100.0
5025,74.0,3,30,11.0,100.0
5026,83.0,1,590,0.0,88.0
5027,86.0,0,590,0.0,88.0
5028,74.0,1,590,6.0,94.0
5029,79.0,0,590,1.0,88.0
5030,67.0,0,590,6.0,94.0
5031,83.0,0,590,1.0,88.0
5032,67.0,0,590,4.0,92.0
5033,74.0,0,590,2.0,88.0
5034,71.0,0,590,2.0,88.0
5035,55.0,1,590,5.0,92.0
5036,71.0,57,30,10.0,100.0
5037,71.0,0,30,11.0,100.0
5038,67.0,50,30,10.0,100.0
5039,67.0,3,30,11.0,100.0
5040,86.0,1,110,0.0,79.0
5041,83.0,0,110,0.0,79.0
5042,67.0,0,110,6.0,94.0
5043,74.0,0,110,6.0,94.0
5044,79.0,0,110,1.0,79.0
5045,83.0,0,110,1.0,79.0
5046,67.0,1,110,4.0,92.0
5047,74.0,0,110,2.0,79.0
5048,71.0,1,110,2.0,79.0
5049,55.0,1,110,5.0,92.0
5050,50.0,4,110,3.0,90.0
5051,62.0,0,110,3.0,90.0
5052,43.0,2,120,15.0,104.0
5053,65.0,57,30,10.0,100.0
5054,65.0,1,30,11.0,100.0
5055,65.0,1,30,12.0,100.0
5056,53.0,2,30,13.0,98.0
5057,41.0,1,30,14.0,96.0
5058,62.0,49,30,10.0,100.0
5059,62.0,3,30,11.0,100.0
5060,62.0,2,30,12.0,100.0
5061,50.0,2,30,13.0,98.0
5062,38.0,4,30,14.0,96.0
5063,86.0,1,110,0.0,79.0
5064,83.0,0,110,0.0,79.0
5065,83.0,0,110,1.0,79.0
5066,79.0,0,110,1.0,79.0
5067,74.0,1,110,6.0,94.0
5068,67.0,0,110,6.0,94.0
5069,67.0,0,110,4.0,92.0
5070,71.0,0,110,2.0,79.0
5071,74.0,0,110,2.0,79.0
5072,55.0,1,110,5.0,92.0
5073,50.0,1,110,3.0,90.0
5074,62.0,0,110,3.0,90.0
5075,43.0,2,0,15.0,104.0
5076,59.0,49,30,10.0,100.0
5077,59.0,0,30,11.0,100.0
5078,59.0,1,30,12.0,100.0
5079,47.0,2,30,13.0,98.0
5080,35.0,1,30,14.0,96.0
5081,55.0,49,30,10.0,100.0
5082,55.0,3,30,11.0,100.0
5083,55.0,2,30,12.0,100.0
5084,43.0,2,30,13.0,98.0
5085,31.0,4,30,14.0,96.0
5086,83.0,1,110,0.0,79.0
5087,86.0,0,110,0.0,79.0
5088,67.0,1,110,6.0,94.0
5089,67.0,0,110,4.0,92.0
5090,79.0,0,110,1.0,79.0
5091,83.0,0,110,1.0,79.0
5092,74.0,0,110,6.0,94.0
5093,74.0,1,110,2.0,79.0
5094,71.0,0,110,2.0,79.0
5095,55.0,1,110,5.0,92.0
5096,50.0,0,110,3.0,90.0
5097,62.0,1,110,3.0,90.0
5098,60.0,49,60,10.0,100.0
5099,88.0,1,60,0.0,88.0
5100,84.0,0,60,0.0,88.0
5101,79.0,0,60,1.0,88.0
5102,67.0,0,60,4.0,102.0
5103,76.0,0,60,6.0,104.0
5104,84.0,1,60,1.0,88.0
5105,72.0,0,60,6.0,104.0
5106,76.0,0,60,2.0,88.0
5107,72.0,1,60,2.0,88.0
5108,60.0,0,60,11.0,100.0
5109,55.0,1,60,5.0,102.0
5110,60.0,1,60,12.0,100.0
5111,48.0,2,60,13.0,98.0
5112,60.0,1,60,3.0,100.0
5113,48.0,0,60,3.0,100.0
5114,48.0,2,60,15.0,102.0
5115,36.0,1,60,14.0,96.0
5116,65.0,229,60,10.0,100.0
5117,89.0,0,60,0.0,88.0
5118,81.0,1,60,0.0,88.0
5119,60.0,0,60,4.0,92.0
5120,81.0,1,60,1.0,88.0
5121,72.0,0,60,1.0,88.0
5122,72.0,0,60,6.0,94.0
5123,60.0,0,60,6.0,94.0
5124,65.0,1,60,11.0,100.0
5125,77.0,0,60,2.0,88.0
5126,69.0,0,60,2.0,88.0
5127,48.0,1,60,5.0,92.0
5128,65.0,1,60,12.0,100.0
5129,53.0,2,60,13.0,98.0
5130,53.0,1,60,3.0,100.0
5131,48.0,2,60,15.0,102.0
5132,81.0,0,60,10.0,100.0
5133,72.0,0,60,10.0,100.0
5134,41.0,1,60,14.0,96.0
5135,81.0,0,60,11.0,100.0
5136,72.0,2,60,11.0,100.0
5137,64.0,227,60,10.0,100.0
5138,79.0,1,60,0.0,88.0
5139,88.0,0,60,0.0,88.0
5140,72.0,1,60,6.0,94.0
5141,76.0,0,60,1.0,88.0
5142,72.0,0,60,1.0,88.0
5143,60.0,0,60,4.0,92.0
5144,60.0,0,60,6.0,94.0
5145,67.0,1,60,2.0,88.0
5146,64.0,0,60,11.0,100.0
5147,76.0,0,60,2.0,88.0
5148,48.0,1,60,5.0,92.0
5149,67.0,1,60,12.0,100.0
5150,55.0,2,60,13.0,98.0
5151,55.0,1,60,3.0,100.0
5152,72.0,2,60,10.0,100.0
5153,48.0,0,60,15.0,102.0
5154,79.0,0,60,10.0,100.0
5155,43.0,1,60,14.0,96.0
5156,72.0,0,60,11.0,100.0
5157,79.0,2,60,11.0,100.0
5158,55.0,227,60,10.0,100.0
5159,77.0,1,60,0.0,88.0
5160,83.0,0,60,0.0,88.0
5161,71.0,0,60,1.0,88.0
5162,74.0,0,60,1.0,88.0
5163,67.0,1,60,6.0,94.0
5164,62.0,0,60,4.0,92.0
5165,55.0,0,60,6.0,94.0
5166,71.0,1,60,2.0,88.0
5167,65.0,0,60,2.0,88.0
5168,55.0,0,60,11.0,100.0
5169,55.0,1,60,5.0,92.0
5170,55.0,1,60,12.0,100.0
5171,43.0,2,60,13.0,98.0
5172,43.0,1,60,3.0,100.0
5173,62.0,2,60,10.0,100.0
5174,71.0,0,60,10.0,100.0
5175,43.0,0,60,15.0,102.0
5176,31.0,1,60,14.0,96.0
5177,62.0,0,60,11.0,100.0
5178,71.0,2,60,11.0,100.0
5179,60.0,1,50,12.0,100.0
5180,48.0,2,50,13.0,98.0
5181,48.0,1,50,3.0,100.0
5182,84.0,0,60,0.0,88.0
5183,76.0,1,60,0.0,88.0
5184,36.0,1,50,14.0,96.0
5185,60.0,0,60,4.0,92.0
5186,72.0,0,60,1.0,88.0
5187,60.0,0,60,6.0,94.0
5188,64.0,0,60,1.0,88.0
5189,72.0,1,60,6.0,94.0
5190,72.0,1,60,2.0,88.0
5191,64.0,0,60,2.0,88.0
5192,52.0,1,60,5.0,92.0
5193,48.0,2,60,15.0,102.0
5194,55.0,0,50,12.0,100.0
5195,52.0,52,50,12.0,100.0
5196,48.0,2,50,13.0,98.0
5197,48.0,1,50,3.0,100.0
5198,36.0,3,50,14.0,96.0
5199,55.0,0,50,12.0,100.0
5200,52.0,54,50,12.0,100.0
5201,48.0,2,50,13.0,98.0
5202,48.0,1,50,3.0,100.0
5203,36.0,3,50,14.0,96.0
5204,55.0,0,50,12.0,100.0
5205,52.0,54,50,12.0,100.0
5206,48.0,2,50,13.0,98.0
5207,48.0,1,50,3.0,100.0
5208,36.0,3,50,14.0,96.0
5209,55.0,54,50,12.0,100.0
5210,52.0,0,50,12.0,100.0
5211,48.0,2,50,13.0,98.0
5212,48.0,1,50,3.0,100.0
5213,36.0,3,50,14.0,96.0
5214,55.0,227,350,10.0,100.0
5215,55.0,0,350,11.0,100.0
5216,55.0,0,50,12.0,100.0
5217,52.0,54,50,12.0,100.0
5218,48.0,2,50,13.0,98.0
5219,48.0,1,50,3.0,100.0
5220,64.0,0,350,10.0,100.0
5221,36.0,3,50,14.0,96.0
5222,64.0,0,350,11.0,100.0
5223,72.0,0,360,10.0,100.0
5224,72.0,2,360,11.0,100.0
5225,52.0,0,50,12.0,100.0
5226,55.0,2,50,12.0,100.0
5227,48.0,2,50,13.0,98.0
5228,48.0,1,50,3.0,100.0
5229,36.0,3,50,14.0,96.0
5230,76.0,49,110,10.0,100.0
5231,64.0,3,110,11.0,100.0
5232,52.0,54,50,12.0,100.0
5233,55.0,0,50,12.0,100.0
5234,48.0,2,50,13.0,98.0
5235,48.0,1,50,3.0,100.0
5236,36.0,3,50,14.0,96.0
5237,55.0,0,50,12.0,100.0
5238,52.0,2,50,12.0,100.0
5239,48.0,2,50,13.0,98.0
5240,48.0,1,50,3.0,100.0
5241,36.0,3,50,14.0,96.0
5242,52.0,54,50,12.0,100.0
5243,55.0,0,50,12.0,100.0
5244,48.0,2,50,13.0,98.0
5245,48.0,1,50,3.0,100.0
5246,36.0,3,50,14.0,96.0
5247,55.0,0,50,12.0,100.0
5248,52.0,1,50,12.0,100.0
5249,48.0,2,50,13.0,98.0
5250,48.0,1,50,3.0,100.0
5251,36.0,3,50,14.0,96.0
5252,84.0,50,110,0.0,113.0
5253,76.0,0,110,1.0,113.0
5254,72.0,0,110,1.0,113.0
5255,55.0,54,50,12.0,100.0
5256,52.0,0,50,12.0,100.0
5257,48.0,2,50,13.0,98.0
5258,48.0,1,50,3.0,100.0
5259,36.0,3,50,14.0,96.0
5260,60.0,1,120,4.0,87.0
5261,52.0,2,0,5.0,87.0
5262,55.0,0,50,12.0,100.0
5263,52.0,1,50,12.0,100.0
5264,48.0,2,50,13.0,98.0
5265,48.0,1,50,3.0,100.0
5266,36.0,3,50,14.0,96.0
5267,79.0,49,350,10.0,100.0
5268,84.0,50,110,0.0,113.0
5269,76.0,0,110,1.0,113.0
5270,72.0,1,110,1.0,113.0
5271,67.0,3,350,11.0,100.0
5272,52.0,54,50,12.0,100.0
5273,55.0,0,50,12.0,100.0
5274,48.0,2,50,13.0,98.0
5275,48.0,1,50,3.0,100.0
5276,36.0,3,50,14.0,96.0
5277,60.0,0,120,4.0,87.0
5278,77.0,49,30,10.0,100.0
5279,65.0,1,30,11.0,100.0
5280,55.0,1,50,12.0,100.0
5281,52.0,0,50,12.0,100.0
5282,48.0,2,50,13.0,98.0
5283,48.0,1,50,3.0,100.0
5284,76.0,19,30,10.0,100.0
5285,36.0,3,50,14.0,96.0
5286,64.0,3,30,11.0,100.0
5287,74.0,27,30,10.0,100.0
5288,62.0,3,30,11.0,100.0
5289,72.0,19,20,10.0,100.0
5290,84.0,1,110,0.0,113.0
5291,72.0,1,110,1.0,113.0
5292,76.0,0,110,1.0,113.0
5293,60.0,3,20,11.0,100.0
5294,55.0,2,50,12.0,100.0
5295,52.0,0,50,12.0,100.0
5296,48.0,2,50,13.0,98.0
5297,48.0,1,50,3.0,100.0
5298,36.0,3,50,14.0,96.0
5299,60.0,0,120,4.0,87.0
5300,52.0,1,120,5.0,87.0
5301,71.0,0,50,10.0,67.0
5302,62.0,27,50,10.0,67.0
5303,59.0,0,50,11.0,78.0
5304,55.0,0,50,12.0,86.0
5305,53.0,1,50,12.0,86.0
5306,48.0,2,50,13.0,98.0
5307,48.0,1,50,3.0,100.0
5308,36.0,3,50,14.0,96.0
5309,71.0,0,50,10.0,67.0
5310,62.0,49,50,10.0,67.0
5311,59.0,0,50,11.0,78.0
5312,62.0,3,50,11.0,78.0
5313,53.0,2,50,12.0,86.0
5314,55.0,0,50,12.0,86.0
5315,48.0,2,50,13.0,98.0
5316,48.0,1,50,3.0,100.0
5317,36.0,3,50,14.0,96.0
5318,71.0,0,50,10.0,67.0
5319,62.0,49,50,10.0,67.0
5320,59.0,3,50,11.0,78.0
5321,62.0,0,50,11.0,78.0
5322,53.0,0,50,12.0,86.0
5323,55.0,2,50,12.0,86.0
5324,48.0,2,50,13.0,98.0
5325,48.0,1,50,3.0,100.0
5326,36.0,3,50,14.0,96.0
5327,62.0,0,50,10.0,67.0
5328,71.0,49,50,10.0,67.0
5329,59.0,0,50,11.0,78.0
5330,62.0,3,50,11.0,78.0
5331,53.0,0,50,12.0,86.0
5332,55.0,2,50,12.0,86.0
5333,48.0,2,50,13.0,98.0
5334,48.0,1,50,3.0,100.0
5335,36.0,3,50,14.0,96.0
5336,62.0,49,50,10.0,67.0
5337,71.0,0,50,10.0,67.0
5338,62.0,0,50,11.0,78.0
5339,59.0,3,50,11.0,78.0
5340,53.0,0,50,12.0,86.0
5341,55.0,2,50,12.0,86.0
5342,48.0,2,50,13.0,98.0
5343,48.0,1,50,3.0,100.0
5344,36.0,3,50,14.0,96.0
5345,71.0,0,50,10.0,67.0
5346,62.0,49,50,10.0,67.0
5347,62.0,0,50,11.0,78.0
5348,59.0,3,50,11.0,78.0
5349,55.0,0,50,12.0,86.0
5350,53.0,2,50,12.0,86.0
5351,48.0,2,50,13.0,98.0
5352,48.0,1,50,3.0,100.0
5353,83.0,1,360,0.0,124.0
5354,36.0,3,50,14.0,96.0
5355,71.0,1,360,2.0,124.0
5356,59.0,0,360,3.0,110.0
5357,71.0,0,50,10.0,67.0
5358,62.0,49,50,10.0,67.0
5359,59.0,0,50,11.0,78.0
5360,62.0,0,50,11.0,78.0
5361,55.0,0,50,12.0,86.0
5362,53.0,2,50,12.0,86.0
5363,48.0,2,50,13.0,98.0
5364,48.0,1,50,3.0,100.0
5365,36.0,3,50,14.0,96.0
5366,62.0,0,50,10.0,67.0
5367,71.0,49,50,10.0,67.0
5368,86.0,1,110,0.0,125.0
5369,62.0,3,50,11.0,78.0
5370,59.0,0,50,11.0,78.0
5371,74.0,2,110,2.0,125.0
5372,53.0,0,50,12.0,86.0
5373,55.0,2,50,12.0,86.0
5374,48.0,2,50,13.0,98.0
5375,48.0,1,50,3.0,100.0
5376,36.0,3,50,14.0,96.0
5377,62.0,0,120,3.0,115.0
5378,62.0,49,50,10.0,67.0
5379,71.0,0,50,10.0,67.0
5380,62.0,0,50,11.0,78.0
5381,59.0,2,50,11.0,78.0
5382,53.0,2,50,12.0,86.0
5383,55.0,0,50,12.0,86.0
5384,48.0,2,50,13.0,98.0
5385,48.0,1,50,3.0,100.0
5386,36.0,3,50,14.0,96.0
5387,71.0,49,50,10.0,67.0
5388,62.0,0,50,10.0,67.0
5389,59.0,3,50,11.0,78.0
5390,62.0,0,50,11.0,78.0
5391,53.0,0,50,12.0,86.0
5392,55.0,2,50,12.0,86.0
5393,48.0,2,50,13.0,98.0
5394,48.0,1,50,3.0,100.0
5395,36.0,3,50,14.0,96.0
5396,71.0,0,600,1.0,113.0
5397,77.0,1,600,1.0,113.0
5398,62.0,0,600,4.0,87.0
5399,55.0,1,600,5.0,87.0
5400,62.0,49,50,10.0,67.0
5401,71.0,0,50,10.0,67.0
5402,62.0,1,50,11.0,78.0
5403,59.0,0,50,11.0,78.0
5404,53.0,0,50,12.0,86.0
5405,55.0,1,50,12.0,86.0
5406,48.0,2,50,13.0,98.0
5407,48.0,1,50,3.0,100.0
5408,36.0,1,50,14.0,96.0
5409,62.0,49,50,10.0,67.0
5410,71.0,0,50,10.0,67.0
5411,65.0,2,110,1.0,113.0
5412,71.0,0,110,1.0,113.0
5413,62.0,0,50,11.0,78.0
5414,59.0,3,50,11.0,78.0
5415,53.0,2,50,12.0,86.0
5416,55.0,0,50,12.0,86.0
5417,48.0,2,50,13.0,98.0
5418,48.0,1,50,3.0,100.0
5419,36.0,3,50,14.0,96.0
5420,74.0,0,0,6.0,89.0
5421,62.0,0,120,4.0,87.0
5422,67.0,0,0,6.0,89.0
5423,55.0,1,120,5.0,87.0
5424,48.0,2,0,15.0,90.0
5425,62.0,0,50,10.0,67.0
5426,71.0,49,50,10.0,67.0
5427,59.0,0,50,11.0,78.0
5428,62.0,1,50,11.0,78.0
5429,53.0,0,50,12.0,86.0
5430,55.0,1,50,12.0,86.0
5431,48.0,2,50,13.0,98.0
5432,48.0,1,50,3.0,100.0
5433,36.0,1,50,14.0,96.0
5434,62.0,0,50,10.0,67.0
5435,71.0,49,50,10.0,67.0
5436,89.0,1,350,0.0,125.0
5437,65.0,2,110,1.0,113.0
5438,71.0,0,110,1.0,113.0
5439,59.0,0,50,11.0,78.0
5440,77.0,0,350,2.0,125.0
5441,62.0,3,50,11.0,78.0
5442,55.0,0,50,12.0,86.0
5443,53.0,2,50,12.0,86.0
5444,48.0,2,50,13.0,98.0
5445,48.0,1,50,3.0,100.0
5446,65.0,0,350,3.0,117.0
5447,36.0,3,50,14.0,96.0
5448,62.0,0,120,4.0,87.0
5449,67.0,0,0,6.0,89.0
5450,74.0,0,0,6.0,89.0
5451,55.0,1,0,5.0,87.0
5452,48.0,2,0,15.0,90.0
5453,88.0,1,30,0.0,124.0
5454,76.0,0,30,2.0,124.0
5455,64.0,1,30,3.0,110.0
5456,62.0,0,50,10.0,67.0
5457,71.0,49,50,10.0,67.0
5458,59.0,0,50,11.0,78.0
5459,62.0,1,50,11.0,78.0
5460,55.0,1,50,12.0,86.0
5461,53.0,0,50,12.0,86.0
5462,48.0,2,50,13.0,98.0
5463,48.0,0,50,3.0,100.0
5464,36.0,1,50,14.0,96.0
5465,86.0,20,30,0.0,125.0
5466,74.0,2,30,2.0,125.0
5467,62.0,5,30,3.0,111.0
5468,84.0,1,30,0.0,125.0
5469,72.0,0,30,2.0,125.0
5470,60.0,1,30,3.0,113.0
5471,71.0,0,50,10.0,67.0
5472,62.0,22,50,10.0,67.0
5473,83.0,20,20,0.0,125.0
5474,65.0,1,110,1.0,113.0
5475,71.0,0,110,1.0,113.0
5476,59.0,0,50,11.0,78.0
5477,62.0,2,50,11.0,78.0
5478,71.0,2,20,2.0,125.0
5479,53.0,0,50,12.0,86.0
5480,55.0,2,50,12.0,86.0
5481,48.0,2,50,13.0,98.0
5482,59.0,5,20,3.0,115.0
5483,48.0,0,50,3.0,100.0
5484,36.0,3,50,14.0,96.0
5485,62.0,0,120,4.0,87.0
5486,52.0,1,50,12.0,100.0
5487,55.0,0,50,12.0,100.0
5488,48.0,2,50,13.0,98.0
5489,48.0,1,50,3.0,100.0
5490,72.0,22,60,10.0,100.0
5491,36.0,1,50,14.0,96.0
5492,60.0,1,60,11.0,100.0
5493,71.0,49,50,10.0,100.0
5494,59.0,3,50,11.0,100.0
5495,55.0,2,50,12.0,100.0
5496,64.0,0,50,12.0,100.0
5497,48.0,2,50,13.0,98.0
5498,48.0,1,50,3.0,100.0
5499,36.0,3,50,14.0,96.0
5500,84.0,1,120,0.0,112.0
5501,64.0,0,120,1.0,101.0
5502,72.0,0,120,1.0,101.0
5503,60.0,0,120,4.0,87.0
5504,72.0,1,120,6.0,89.0
5505,64.0,0,120,6.0,89.0
5506,72.0,0,120,2.0,112.0
5507,52.0,1,120,5.0,87.0
5508,60.0,0,120,3.0,117.0
5509,48.0,2,120,15.0,90.0
5510,72.0,49,30,10.0,100.0
5511,60.0,3,30,11.0,100.0
5512,55.0,2,50,12.0,100.0
5513,64.0,0,50,12.0,100.0
5514,48.0,2,50,13.0,98.0
5515,48.0,1,50,3.0,100.0
5516,36.0,3,50,14.0,96.0
5517,74.0,49,30,10.0,100.0
5518,62.0,3,30,11.0,100.0
5519,55.0,0,50,12.0,100.0
5520,64.0,2,50,12.0,100.0
5521,48.0,2,50,13.0,98.0
5522,48.0,1,50,3.0,100.0
5523,36.0,3,50,14.0,96.0
5524,55.0,2,50,12.0,100.0
5525,64.0,0,50,12.0,100.0
5526,48.0,2,50,13.0,98.0
5527,48.0,1,50,3.0,100.0
5528,76.0,49,60,10.0,100.0
5529,36.0,3,50,14.0,96.0
5530,64.0,3,60,11.0,100.0
5531,74.0,49,50,10.0,100.0
5532,62.0,3,50,11.0,100.0
5533,64.0,0,50,12.0,100.0
5534,55.0,2,50,12.0,100.0
5535,48.0,2,50,13.0,98.0
5536,48.0,1,50,3.0,100.0
5537,36.0,3,50,14.0,96.0
5538,76.0,49,30,10.0,100.0
5539,64.0,3,30,11.0,100.0
5540,55.0,0,50,12.0,100.0
5541,64.0,2,50,12.0,100.0
5542,48.0,2,50,13.0,98.0
5543,48.0,1,50,3.0,100.0
5544,36.0,3,50,14.0,96.0
5545,77.0,49,30,10.0,100.0
5546,65.0,3,30,11.0,100.0
5547,55.0,0,50,12.0,100.0
5548,64.0,2,50,12.0,100.0
5549,48.0,2,50,13.0,98.0
5550,48.0,1,50,3.0,100.0
5551,36.0,3,50,14.0,96.0
5552,64.0,2,50,12.0,100.0
5553,55.0,0,50,12.0,100.0
5554,48.0,2,50,13.0,98.0
5555,48.0,1,50,3.0,100.0
5556,79.0,49,60,10.0,100.0
5557,36.0,3,50,14.0,96.0
5558,67.0,3,60,11.0,100.0
5559,78.0,49,50,10.0,100.0
5560,66.0,3,50,11.0,100.0
5561,64.0,0,50,12.0,100.0
5562,55.0,2,50,12.0,100.0
5563,48.0,2,50,13.0,98.0
5564,48.0,1,50,3.0,100.0
5565,36.0,3,50,14.0,96.0
5566,79.0,49,30,10.0,100.0
5567,67.0,1,30,11.0,100.0
5568,64.0,0,50,12.0,100.0
5569,55.0,1,50,12.0,100.0
5570,48.0,2,50,13.0,98.0
5571,48.0,1,50,3.0,100.0
5572,36.0,3,50,14.0,96.0
5573,78.0,49,30,10.0,100.0
5574,66.0,3,30,11.0,100.0
5575,84.0,1,110,0.0,113.0
5576,72.0,0,110,1.0,113.0
5577,76.0,0,110,1.0,113.0
5578,72.0,0,110,2.0,113.0
5579,64.0,0,110,2.0,113.0
5580,55.0,2,50,12.0,100.0
5581,64.0,0,50,12.0,100.0
5582,48.0,2,50,13.0,98.0
5583,48.0,1,50,3.0,100.0
5584,60.0,0,110,3.0,100.0
5585,36.0,3,50,14.0,96.0
5586,60.0,0,0,4.0,87.0
5587,52.0,1,0,5.0,87.0
5588,55.0,1,50,12.0,100.0
5589,64.0,0,50,12.0,100.0
5590,48.0,2,50,13.0,98.0
5591,48.0,1,50,3.0,100.0
5592,79.0,49,60,10.0,100.0
5593,36.0,3,50,14.0,96.0
5594,67.0,0,60,11.0,100.0
5595,76.0,49,50,10.0,100.0
5596,84.0,1,110,0.0,113.0
5597,72.0,0,110,1.0,113.0
5598,76.0,1,110,1.0,113.0
5599,64.0,1,110,2.0,113.0
5600,72.0,0,110,2.0,113.0
5601,64.0,3,50,11.0,100.0
5602,55.0,0,50,12.0,100.0
5603,64.0,2,50,12.0,100.0
5604,48.0,2,50,13.0,98.0
5605,48.0,1,50,3.0,100.0
5606,60.0,0,110,3.0,100.0
5607,36.0,3,50,14.0,96.0
5608,60.0,0,0,4.0,87.0
5609,74.0,49,30,10.0,100.0
5610,62.0,0,30,11.0,100.0
5611,64.0,0,50,12.0,100.0
5612,55.0,1,50,12.0,100.0
5613,48.0,2,50,13.0,98.0
5614,48.0,1,50,3.0,100.0
5615,36.0,3,50,14.0,96.0
5616,72.0,49,30,10.0,100.0
5617,60.0,3,30,11.0,100.0
5618,84.0,1,110,0.0,113.0
5619,72.0,0,110,1.0,113.0
5620,76.0,1,110,1.0,113.0
5621,72.0,0,110,2.0,113.0
5622,64.0,1,110,2.0,113.0
5623,55.0,0,50,12.0,100.0
5624,64.0,2,50,12.0,100.0
5625,48.0,2,50,13.0,98.0
5626,60.0,0,110,3.0,100.0
5627,48.0,1,50,3.0,100.0
5628,36.0,3,50,14.0,96.0
5629,52.0,1,120,5.0,87.0
5630,62.0,0,50,10.0,67.0
5631,71.0,49,50,10.0,67.0
5632,59.0,1,50,11.0,78.0
5633,65.0,0,50,12.0,86.0
5634,55.0,1,50,12.0,86.0
5635,48.0,2,50,13.0,98.0
5636,48.0,0,50,3.0,100.0
5637,36.0,3,50,14.0,96.0
5638,83.0,1,60,0.0,125.0
5639,71.0,0,60,2.0,125.0
5640,59.0,1,60,3.0,117.0
5641,71.0,49,50,10.0,67.0
5642,62.0,0,50,10.0,67.0
5643,59.0,2,50,11.0,78.0
5644,62.0,0,50,11.0,78.0
5645,65.0,2,50,12.0,86.0
5646,55.0,0,50,12.0,86.0
5647,48.0,2,50,13.0,98.0
5648,48.0,1,50,3.0,100.0
5649,81.0,1,60,0.0,125.0
5650,36.0,3,50,14.0,96.0
5651,69.0,0,60,2.0,125.0
5652,57.0,0,60,3.0,117.0
5653,71.0,49,50,10.0,67.0
5654,62.0,0,50,10.0,67.0
5655,59.0,0,50,11.0,78.0
5656,62.0,0,50,11.0,78.0
5657,65.0,0,50,12.0,86.0
5658,55.0,2,50,12.0,86.0
5659,48.0,2,50,13.0,98.0
5660,48.0,0,50,3.0,100.0
5661,79.0,1,60,0.0,125.0
5662,36.0,3,50,14.0,96.0
5663,67.0,2,60,2.0,125.0
5664,55.0,1,60,3.0,117.0
5665,62.0,0,50,10.0,67.0
5666,71.0,49,50,10.0,67.0
5667,62.0,0,50,11.0,78.0
5668,59.0,0,50,11.0,78.0
5669,55.0,0,50,12.0,86.0
5670,65.0,2,50,12.0,86.0
5671,48.0,2,50,13.0,98.0
5672,48.0,1,50,3.0,100.0
5673,81.0,1,60,0.0,125.0
5674,36.0,3,50,14.0,96.0
5675,69.0,2,60,2.0,125.0
5676,57.0,0,60,3.0,117.0
5677,62.0,49,50,10.0,67.0
5678,71.0,0,50,10.0,67.0
5679,59.0,2,50,11.0,78.0
5680,62.0,0,50,11.0,78.0
5681,55.0,0,50,12.0,86.0
5682,65.0,2,50,12.0,86.0
5683,48.0,2,50,13.0,98.0
5684,48.0,1,50,3.0,100.0
5685,83.0,1,60,0.0,125.0
5686,36.0,3,50,14.0,96.0
5687,71.0,0,60,2.0,125.0
5688,59.0,0,60,3.0,117.0
5689,62.0,49,50,10.0,67.0
5690,71.0,0,50,10.0,67.0
5691,59.0,0,50,11.0,78.0
5692,62.0,2,50,11.0,78.0
5693,65.0,2,50,12.0,86.0
5694,55.0,0,50,12.0,86.0
5695,48.0,2,50,13.0,98.0
5696,48.0,1,50,3.0,100.0
5697,36.0,3,50,14.0,96.0
5698,84.0,1,60,0.0,125.0
5699,72.0,0,60,2.0,125.0
5700,60.0,0,60,3.0,117.0
5701,62.0,49,50,10.0,67.0
5702,71.0,0,50,10.0,67.0
5703,62.0,0,50,11.0,78.0
5704,59.0,2,50,11.0,78.0
5705,55.0,0,50,12.0,86.0
5706,65.0,2,50,12.0,86.0
5707,48.0,2,50,13.0,98.0
5708,48.0,0,50,3.0,100.0
5709,36.0,3,50,14.0,96.0
5710,86.0,1,60,0.0,125.0
5711,74.0,0,60,2.0,125.0
5712,62.0,1,60,3.0,117.0
5713,71.0,49,50,10.0,67.0
5714,62.0,0,50,10.0,67.0
5715,88.0,1,50,0.0,125.0
5716,59.0,2,50,11.0,78.0
5717,76.0,0,50,2.0,125.0
5718,62.0,0,50,11.0,78.0
5719,55.0,2,50,12.0,86.0
5720,65.0,0,50,12.0,86.0
5721,48.0,2,50,13.0,98.0
5722,48.0,0,50,3.0,100.0
5723,64.0,1,50,3.0,117.0
5724,36.0,3,50,14.0,96.0
5725,71.0,49,50,10.0,67.0
5726,62.0,0,50,10.0,67.0
5727,59.0,0,50,11.0,78.0
5728,62.0,0,50,11.0,78.0
5729,65.0,0,50,12.0,86.0
5730,55.0,2,50,12.0,86.0
5731,48.0,2,50,13.0,98.0
5732,48.0,1,50,3.0,100.0
5733,36.0,3,50,14.0,96.0
5734,89.0,1,60,0.0,125.0
5735,77.0,2,60,2.0,125.0
5736,65.0,0,60,3.0,117.0
5737,71.0,0,50,10.0,67.0
5738,62.0,49,50,10.0,67.0
5739,59.0,2,50,11.0,78.0
5740,62.0,0,50,11.0,78.0
5741,65.0,0,50,12.0,86.0
5742,55.0,2,50,12.0,86.0
5743,48.0,2,50,13.0,98.0
5744,48.0,1,50,3.0,100.0
5745,88.0,1,60,0.0,125.0
5746,36.0,3,50,14.0,96.0
5747,77.0,1,600,1.0,113.0
5748,62.0,0,600,4.0,87.0
5749,71.0,0,0,1.0,113.0
5750,76.0,0,60,2.0,125.0
5751,55.0,1,600,5.0,87.0
5752,64.0,0,60,3.0,117.0
5753,71.0,49,50,10.0,67.0
5754,62.0,0,50,10.0,67.0
5755,62.0,0,50,11.0,78.0
5756,59.0,0,50,11.0,78.0
5757,65.0,0,50,12.0,86.0
5758,55.0,1,50,12.0,86.0
5759,48.0,2,50,13.0,98.0
5760,48.0,0,50,3.0,100.0
5761,89.0,1,60,0.0,125.0
5762,36.0,1,50,14.0,96.0
5763,77.0,1,60,2.0,125.0
5764,65.0,1,60,3.0,117.0
5765,62.0,49,50,10.0,67.0
5766,71.0,0,50,10.0,67.0
5767,65.0,0,110,1.0,113.0
5768,59.0,2,50,11.0,78.0
5769,62.0,0,50,11.0,78.0
5770,55.0,0,50,12.0,86.0
5771,65.0,2,50,12.0,86.0
5772,48.0,2,50,13.0,98.0
5773,48.0,0,50,3.0,100.0
5774,36.0,3,50,14.0,96.0
5775,88.0,1,60,0.0,125.0
5776,62.0,0,120,4.0,87.0
5777,74.0,0,0,6.0,89.0
5778,67.0,0,120,6.0,89.0
5779,76.0,0,60,2.0,125.0
5780,55.0,1,0,5.0,87.0
5781,64.0,1,60,3.0,117.0
5782,48.0,2,0,15.0,90.0
5783,62.0,0,50,10.0,67.0
5784,71.0,49,50,10.0,67.0
5785,59.0,1,50,11.0,78.0
5786,62.0,0,50,11.0,78.0
5787,55.0,0,50,12.0,86.0
5788,65.0,1,50,12.0,86.0
5789,48.0,2,50,13.0,98.0
5790,48.0,0,50,3.0,100.0
5791,89.0,1,60,0.0,125.0
5792,36.0,1,50,14.0,96.0
5793,77.0,0,60,2.0,125.0
5794,65.0,1,60,3.0,117.0
5795,62.0,0,50,10.0,67.0
5796,71.0,49,50,10.0,67.0
5797,65.0,0,110,1.0,113.0
5798,71.0,0,110,1.0,113.0
5799,62.0,0,50,11.0,78.0
5800,59.0,0,50,11.0,78.0
5801,65.0,2,50,12.0,86.0
5802,55.0,0,50,12.0,86.0
5803,48.0,2,50,13.0,98.0
5804,48.0,0,50,3.0,100.0
5805,36.0,3,50,14.0,96.0
5806,86.0,1,60,0.0,125.0
5807,67.0,0,0,6.0,89.0
5808,62.0,1,120,4.0,87.0
5809,74.0,0,0,6.0,89.0
5810,74.0,2,60,2.0,125.0
5811,62.0,1,60,3.0,117.0
5812,62.0,49,50,10.0,67.0
5813,71.0,0,50,10.0,67.0
5814,59.0,0,50,11.0,78.0
5815,62.0,1,50,11.0,78.0
5816,65.0,0,50,12.0,86.0
5817,55.0,1,50,12.0,86.0
5818,48.0,2,50,13.0,98.0
5819,48.0,1,50,3.0,100.0
5820,36.0,1,50,14.0,96.0
5821,84.0,1,60,0.0,125.0
5822,72.0,0,60,2.0,125.0
5823,60.0,0,60,3.0,117.0
5824,62.0,0,50,10.0,67.0
5825,71.0,49,50,10.0,67.0
5826,83.0,1,50,0.0,125.0
5827,71.0,1,110,1.0,113.0
5828,65.0,0,110,1.0,113.0
5829,62.0,0,50,11.0,78.0
5830,71.0,0,50,2.0,125.0
5831,59.0,2,50,11.0,78.0
5832,65.0,2,50,12.0,86.0
5833,55.0,0,50,12.0,86.0
5834,48.0,2,50,13.0,98.0
5835,59.0,1,50,3.0,117.0
5836,48.0,0,50,3.0,100.0
5837,36.0,3,50,14.0,96.0
5838,62.0,0,120,4.0,87.0
5839,55.0,1,120,5.0,87.0
5840,48.0,2,120,15.0,90.0
5841,72.0,49,30,10.0,100.0
5842,60.0,1,30,11.0,100.0
5843,72.0,49,30,10.0,100.0
5844,60.0,3,30,11.0,100.0
5845,84.0,1,120,0.0,101.0
5846,60.0,0,120,4.0,87.0
5847,72.0,1,120,1.0,101.0
5848,64.0,0,120,6.0,89.0
5849,72.0,0,120,6.0,89.0
5850,64.0,0,120,1.0,101.0
5851,72.0,0,120,2.0,101.0
5852,52.0,1,120,5.0,87.0
5853,55.0,0,120,12.0,100.0
5854,64.0,1,120,12.0,100.0
5855,48.0,2,120,13.0,98.0
5856,48.0,1,120,3.0,100.0
5857,60.0,0,120,3.0,100.0
5858,48.0,2,120,15.0,90.0
5859,36.0,1,120,14.0,96.0
5860,67.0,57,30,10.0,100.0
5861,55.0,3,30,11.0,100.0
5862,71.0,57,30,10.0,100.0
5863,59.0,3,30,11.0,100.0
5864,72.0,57,30,10.0,100.0
5865,60.0,3,30,11.0,100.0
5866,72.0,57,30,10.0,100.0
5867,60.0,3,30,11.0,100.0
5868,69.0,57,30,10.0,100.0
5869,81.0,1,30,0.0,98.0
5870,69.0,1,30,1.0,98.0
5871,57.0,0,30,11.0,100.0
5872,69.0,1,30,2.0,98.0
5873,57.0,2,30,12.0,100.0
5874,45.0,2,30,13.0,98.0
5875,45.0,1,30,3.0,100.0
5876,33.0,3,30,14.0,96.0
5877,73.0,49,30,10.0,100.0
5878,85.0,1,30,0.0,98.0
5879,73.0,1,30,1.0,98.0
5880,73.0,1,30,2.0,98.0
5881,61.0,0,30,11.0,100.0
5882,61.0,2,30,12.0,100.0
5883,49.0,2,30,13.0,98.0
5884,49.0,1,30,3.0,100.0
5885,37.0,3,30,14.0,96.0
5886,74.0,49,30,10.0,100.0
5887,62.0,0,30,11.0,100.0
5888,74.0,49,30,10.0,100.0
5889,62.0,3,30,11.0,100.0
5890,86.0,1,120,0.0,98.0
5891,74.0,1,120,1.0,98.0
5892,74.0,1,120,2.0,98.0
5893,62.0,2,120,12.0,100.0
5894,50.0,2,120,13.0,98.0
5895,50.0,1,120,3.0,100.0
5896,38.0,3,120,14.0,96.0
5897,69.0,57,30,10.0,100.0
5898,57.0,3,30,11.0,100.0
5899,73.0,57,30,10.0,100.0
5900,61.0,3,30,11.0,100.0
5901,74.0,57,30,10.0,100.0
5902,62.0,3,30,11.0,100.0
5903,74.0,57,30,10.0,100.0
5904,62.0,3,30,11.0,100.0
5905,71.0,57,30,10.0,100.0
5906,83.0,1,30,0.0,98.0
5907,71.0,1,30,1.0,98.0
5908,71.0,1,30,2.0,98.0
5909,59.0,0,30,11.0,100.0
5910,59.0,2,30,12.0,100.0
5911,47.0,2,30,13.0,98.0
5912,47.0,1,30,3.0,100.0
5913,35.0,3,30,14.0,96.0
5914,75.0,49,30,10.0,100.0
5915,87.0,1,30,0.0,98.0
5916,75.0,1,30,1.0,98.0
5917,63.0,0,30,11.0,100.0
5918,75.0,1,30,2.0,98.0
5919,63.0,2,30,12.0,100.0
5920,51.0,2,30,13.0,98.0
5921,51.0,1,30,3.0,100.0
5922,39.0,3,30,14.0,96.0
5923,76.0,49,30,10.0,100.0
5924,64.0,1,30,11.0,100.0
5925,64.0,2,30,12.0,100.0
5926,52.0,2,30,13.0,98.0
5927,40.0,3,30,14.0,96.0
5928,88.0,1,50,0.0,98.0
5929,76.0,1,50,1.0,98.0
5930,76.0,0,50,2.0,98.0
5931,52.0,1,50,3.0,100.0
5932,76.0,49,30,10.0,100.0
5933,64.0,1,30,11.0,100.0
5934,64.0,2,30,12.0,100.0
5935,52.0,2,30,13.0,98.0
5936,40.0,3,30,14.0,96.0
5937,76.0,1,50,0.0,98.0
5938,76.0,1,50,1.0,98.0
5939,64.0,0,50,2.0,98.0
5940,52.0,1,50,3.0,100.0
5941,72.0,49,30,10.0,100.0
5942,60.0,1,30,11.0,100.0
5943,60.0,2,30,12.0,100.0
5944,48.0,2,30,13.0,98.0
5945,36.0,3,30,14.0,96.0
5946,72.0,1,50,0.0,98.0
5947,72.0,1,50,1.0,98.0
5948,60.0,0,50,2.0,98.0
5949,48.0,1,50,3.0,100.0
5950,76.0,49,30,10.0,100.0
5951,64.0,0,30,11.0,100.0
5952,64.0,2,30,12.0,100.0
5953,52.0,2,30,13.0,98.0
5954,40.0,3,30,14.0,96.0
5955,76.0,1,50,0.0,98.0
5956,76.0,1,50,1.0,98.0
5957,64.0,1,50,2.0,98.0
5958,52.0,1,50,3.0,100.0
5959,77.0,49,30,10.0,100.0
5960,65.0,0,30,11.0,100.0
5961,65.0,2,30,12.0,100.0
5962,53.0,2,30,13.0,98.0
5963,41.0,3,30,14.0,96.0
5964,77.0,1,50,0.0,98.0
5965,77.0,1,50,1.0,98.0
5966,65.0,1,50,2.0,98.0
5967,53.0,1,50,3.0,100.0
5968,74.0,49,30,10.0,100.0
5969,62.0,0,30,11.0,100.0
5970,62.0,2,30,12.0,100.0
5971,50.0,2,30,13.0,98.0
5972,38.0,3,30,14.0,96.0
5973,74.0,1,50,0.0,98.0
5974,74.0,1,50,1.0,98.0
5975,62.0,1,50,2.0,98.0
5976,50.0,1,50,3.0,100.0
5977,79.0,49,30,10.0,100.0
5978,67.0,0,30,11.0,100.0
5979,67.0,2,30,12.0,100.0
5980,55.0,2,30,13.0,98.0
5981,43.0,3,30,14.0,96.0
5982,79.0,1,50,0.0,98.0
5983,79.0,1,50,1.0,98.0
5984,67.0,1,50,2.0,98.0
5985,55.0,1,50,3.0,100.0
5986,76.0,49,30,10.0,100.0
5987,64.0,1,30,11.0,100.0
5988,64.0,2,30,12.0,100.0
5989,52.0,2,30,13.0,98.0
5990,40.0,3,30,14.0,96.0
5991,76.0,1,50,0.0,98.0
5992,76.0,1,50,1.0,98.0
5993,64.0,0,50,2.0,98.0
5994,52.0,1,50,3.0,100.0
5995,81.0,49,30,10.0,100.0
5996,69.0,1,30,11.0,100.0
5997,69.0,2,30,12.0,100.0
5998,57.0,2,30,13.0,98.0
5999,45.0,3,30,14.0,96.0
6000,81.0,1,50,0.0,98.0
6001,81.0,1,50,1.0,98.0
6002,69.0,0,50,2.0,98.0
6003,57.0,1,50,3.0,100.0
6004,77.0,49,30,10.0,100.0
6005,65.0,1,30,11.0,100.0
6006,65.0,2,30,12.0,100.0
6007,53.0,2,30,13.0,98.0
6008,41.0,3,30,14.0,96.0
6009,77.0,1,50,0.0,98.0
6010,77.0,1,50,1.0,98.0
6011,65.0,0,50,2.0,98.0
6012,53.0,1,50,3.0,100.0
6013,83.0,49,30,10.0,100.0
6014,71.0,1,30,11.0,100.0
6015,71.0,2,30,12.0,100.0
6016,59.0,2,30,13.0,98.0
6017,47.0,3,30,14.0,96.0
6018,83.0,1,50,0.0,98.0
6019,83.0,1,50,1.0,98.0
6020,71.0,0,50,2.0,98.0
6021,59.0,1,50,3.0,100.0
6022,79.0,49,30,10.0,100.0
6023,67.0,0,30,11.0,100.0
6024,67.0,2,30,12.0,100.0
6025,55.0,2,30,13.0,98.0
6026,43.0,3,30,14.0,96.0
6027,79.0,1,50,0.0,98.0
6028,79.0,1,50,1.0,98.0
6029,67.0,1,50,2.0,98.0
6030,55.0,1,50,3.0,100.0
6031,84.0,49,30,10.0,100.0
6032,72.0,0,30,11.0,100.0
6033,72.0,2,30,12.0,100.0
6034,60.0,2,30,13.0,98.0
6035,48.0,3,30,14.0,96.0
6036,84.0,1,50,0.0,98.0
6037,84.0,1,50,1.0,98.0
6038,72.0,1,50,2.0,98.0
6039,60.0,1,50,3.0,100.0
6040,81.0,49,30,10.0,100.0
6041,69.0,0,30,11.0,100.0
6042,69.0,2,30,12.0,100.0
6043,57.0,2,30,13.0,98.0
6044,45.0,3,30,14.0,96.0
6045,81.0,1,50,0.0,98.0
6046,81.0,1,50,1.0,98.0
6047,69.0,1,50,2.0,98.0
6048,57.0,1,50,3.0,100.0
6049,76.0,49,30,10.0,100.0
6050,64.0,1,30,11.0,100.0
6051,64.0,2,30,12.0,100.0
6052,52.0,2,30,13.0,98.0
6053,40.0,3,30,14.0,96.0
6054,76.0,1,50,0.0,98.0
6055,76.0,1,50,1.0,98.0
6056,64.0,0,50,2.0,98.0
6057,52.0,1,50,3.0,100.0
6058,78.0,49,30,10.0,100.0
6059,66.0,0,30,11.0,100.0
6060,66.0,2,30,12.0,100.0
6061,54.0,2,30,13.0,98.0
6062,42.0,3,30,14.0,96.0
6063,78.0,1,50,0.0,98.0
6064,78.0,1,50,1.0,98.0
6065,66.0,1,50,2.0,98.0
6066,54.0,1,50,3.0,100.0
6067,55.0,1,50,12.0,100.0
6068,43.0,2,50,13.0,98.0
6069,31.0,3,50,14.0,96.0
6070,79.0,1,60,0.0,98.0
6071,67.0,1,60,2.0,98.0
6072,67.0,54,30,12.0,100.0
6073,55.0,2,30,13.0,98.0
6074,43.0,4,30,14.0,96.0
6075,79.0,49,120,10.0,100.0
6076,79.0,0,120,1.0,98.0
6077,67.0,1,120,4.0,102.0
6078,67.0,0,120,11.0,100.0
6079,55.0,1,0,5.0,102.0
6080,55.0,1,120,3.0,100.0
6081,67.0,1,30,12.0,100.0
6082,55.0,2,30,13.0,98.0
6083,43.0,4,30,14.0,96.0
6084,86.0,50,60,0.0,98.0
6085,83.0,0,60,0.0,98.0
6086,74.0,1,60,2.0,98.0
6087,71.0,0,60,2.0,98.0
6088,67.0,54,30,12.0,100.0
6089,55.0,2,30,13.0,98.0
6090,43.0,4,30,14.0,96.0
6091,62.0,1,120,4.0,102.0
6092,84.0,50,60,0.0,98.0
6093,88.0,0,60,0.0,98.0
6094,72.0,1,60,2.0,98.0
6095,76.0,0,60,2.0,98.0
6096,65.0,1,60,12.0,100.0
6097,53.0,2,60,13.0,98.0
6098,41.0,4,60,14.0,96.0
6099,64.0,54,50,12.0,100.0
6100,52.0,2,50,13.0,98.0
6101,40.0,4,50,14.0,96.0
6102,64.0,1,120,4.0,102.0
6103,60.0,1,120,5.0,102.0
6104,62.0,1,30,12.0,100.0
6105,50.0,2,30,13.0,98.0
6106,38.0,4,30,14.0,96.0
6107,84.0,50,60,0.0,98.0
6108,88.0,0,60,0.0,98.0
6109,76.0,0,60,2.0,98.0
6110,72.0,1,60,2.0,98.0
6111,60.0,54,30,12.0,100.0
6112,48.0,2,30,13.0,98.0
6113,36.0,4,30,14.0,96.0
6114,64.0,1,120,4.0,102.0
6115,60.0,1,120,5.0,102.0
6116,86.0,1,30,0.0,98.0
6117,83.0,0,60,0.0,98.0
6118,91.0,48,30,0.0,98.0
6119,79.0,1,30,1.0,98.0
6120,67.0,6,30,3.0,100.0
6121,67.0,49,105,10.0,71.0
6122,62.0,1,105,11.0,71.0
6123,74.0,3,105,10.0,71.0
6124,83.0,0,105,10.0,78.0
6125,79.0,0,105,11.0,61.0
6126,71.0,2,105,11.0,71.0
6127,55.0,1,120,6.0,104.0
6128,67.0,0,120,6.0,104.0
6129,62.0,0,120,4.0,102.0
6130,71.0,0,120,2.0,98.0
6131,74.0,0,120,2.0,98.0
6132,55.0,1,120,5.0,102.0
6133,55.0,1,120,12.0,100.0
6134,43.0,2,120,13.0,98.0
6135,43.0,0,120,15.0,77.0
6136,31.0,1,120,14.0,96.0
6137,91.0,53,30,0.0,98.0
6138,79.0,1,30,1.0,98.0
6139,67.0,6,30,3.0,100.0
6140,91.0,53,30,0.0,98.0
6141,79.0,1,30,1.0,98.0
6142,67.0,6,30,3.0,100.0
6143,89.0,1,60,0.0,98.0
6144,77.0,1,60,1.0,98.0
6145,65.0,1,60,3.0,100.0
6146,67.0,52,105,10.0,71.0
6147,64.0,1,105,11.0,71.0
6148,88.0,48,50,0.0,98.0
6149,76.0,1,50,1.0,98.0
6150,84.0,0,105,10.0,78.0
6151,76.0,0,105,10.0,71.0
6152,79.0,0,105,11.0,61.0
6153,72.0,2,105,11.0,71.0
6154,64.0,6,50,3.0,100.0
6155,55.0,0,120,6.0,104.0
6156,67.0,0,120,6.0,104.0
6157,67.0,2,120,12.0,100.0
6158,55.0,2,120,13.0,98.0
6159,43.0,2,120,15.0,77.0
6160,43.0,1,120,14.0,96.0
6161,86.0,53,30,0.0,98.0
6162,74.0,1,30,1.0,98.0
6163,62.0,6,30,3.0,100.0
6164,84.0,53,30,0.0,98.0
6165,72.0,1,30,1.0,98.0
6166,60.0,6,30,3.0,100.0
6167,55.0,2,50,12.0,100.0
6168,43.0,2,50,13.0,98.0
6169,79.0,1,60,0.0,98.0
6170,31.0,1,50,14.0,96.0
6171,67.0,52,30,12.0,100.0
6172,55.0,2,30,13.0,98.0
6173,43.0,4,30,14.0,96.0
6174,67.0,52,105,10.0,71.0
6175,62.0,1,105,11.0,71.0
6176,74.0,0,105,10.0,71.0
6177,83.0,0,105,10.0,78.0
6178,71.0,0,105,11.0,71.0
6179,79.0,2,105,11.0,61.0
6180,67.0,1,120,6.0,104.0
6181,55.0,0,120,6.0,104.0
6182,67.0,0,120,1.0,98.0
6183,55.0,1,120,3.0,100.0
6184,43.0,2,120,15.0,77.0
6185,67.0,1,30,12.0,100.0
6186,55.0,2,30,13.0,98.0
6187,43.0,4,30,14.0,96.0
6188,83.0,0,60,0.0,98.0
6189,86.0,50,60,0.0,98.0
6190,74.0,1,60,2.0,98.0
6191,71.0,0,60,2.0,98.0
6192,67.0,54,30,12.0,100.0
6193,55.0,2,30,13.0,98.0
6194,43.0,4,30,14.0,96.0
6195,62.0,1,120,4.0,102.0
6196,55.0,1,120,5.0,102.0
6197,88.0,0,60,0.0,98.0
6198,84.0,50,60,0.0,98.0
6199,72.0,1,60,2.0,98.0
6200,76.0,0,60,2.0,98.0
6201,65.0,1,60,12.0,100.0
6202,53.0,2,60,13.0,98.0
6203,41.0,4,60,14.0,96.0
6204,64.0,54,50,12.0,100.0
6205,52.0,2,50,13.0,98.0
6206,40.0,4,50,14.0,96.0
6207,64.0,1,0,4.0,102.0
6208,60.0,1,120,5.0,102.0
6209,62.0,1,30,12.0,100.0
6210,50.0,2,30,13.0,98.0
6211,38.0,4,30,14.0,96.0
6212,88.0,0,60,0.0,98.0
6213,84.0,50,60,0.0,98.0
6214,72.0,0,60,2.0,98.0
6215,76.0,1,60,2.0,98.0
6216,60.0,54,30,12.0,100.0
6217,48.0,2,30,13.0,98.0
6218,36.0,4,30,14.0,96.0
6219,60.0,1,120,5.0,102.0
6220,86.0,1,30,0.0,98.0
6221,83.0,0,60,0.0,98.0
6222,91.0,48,30,0.0,98.0
6223,79.0,1,30,1.0,98.0
6224,67.0,6,30,3.0,100.0
6225,67.0,49,105,10.0,71.0
6226,62.0,0,105,11.0,71.0
6227,83.0,0,105,10.0,78.0
6228,74.0,0,105,10.0,71.0
6229,79.0,0,105,11.0,61.0
6230,71.0,2,105,11.0,71.0
6231,62.0,0,120,4.0,102.0
6232,55.0,0,120,6.0,104.0
6233,67.0,1,120,6.0,104.0
6234,74.0,1,120,2.0,98.0
6235,71.0,0,120,2.0,98.0
6236,55.0,1,120,5.0,102.0
6237,55.0,1,120,12.0,100.0
6238,43.0,2,120,13.0,98.0
6239,43.0,3,120,15.0,77.0
6240,31.0,1,120,14.0,96.0
6241,91.0,53,30,0.0,98.0
6242,79.0,1,30,1.0,98.0
6243,67.0,6,30,3.0,100.0
6244,91.0,53,30,0.0,98.0
6245,79.0,1,30,1.0,98.0
6246,67.0,6,30,3.0,100.0
6247,89.0,1,60,0.0,98.0
6248,77.0,1,60,1.0,98.0
6249,65.0,1,60,3.0,100.0
6250,67.0,52,105,10.0,71.0
6251,64.0,1,105,11.0,71.0
6252,88.0,48,50,0.0,98.0
6253,76.0,1,50,1.0,98.0
6254,76.0,2,105,10.0,71.0
6255,84.0,0,105,10.0,78.0
6256,79.0,0,105,11.0,61.0
6257,64.0,6,50,3.0,100.0
6258,72.0,2,105,11.0,71.0
6259,67.0,2,120,12.0,100.0
6260,55.0,2,120,13.0,98.0
6261,43.0,1,120,14.0,96.0
6262,86.0,53,30,0.0,98.0
6263,74.0,1,30,1.0,98.0
6264,62.0,6,30,3.0,100.0
6265,84.0,53,30,0.0,98.0
6266,72.0,1,30,1.0,98.0
6267,60.0,6,30,3.0,100.0
6268,55.0,2,50,12.0,100.0
6269,43.0,2,50,13.0,98.0
6270,31.0,1,50,14.0,96.0
6271,67.0,52,30,12.0,100.0
6272,55.0,2,30,13.0,98.0
6273,43.0,4,30,14.0,96.0
6274,67.0,52,105,10.0,71.0
6275,62.0,0,105,11.0,71.0
6276,74.0,2,105,10.0,71.0
6277,83.0,0,105,10.0,78.0
6278,79.0,0,105,11.0,61.0
6279,71.0,2,105,11.0,71.0
6280,79.0,1,120,0.0,98.0
6281,55.0,1,120,6.0,104.0
6282,67.0,0,120,6.0,104.0
6283,67.0,0,120,1.0,98.0
6284,67.0,1,120,2.0,98.0
6285,55.0,1,120,3.0,100.0
6286,43.0,0,120,3.0,100.0
6287,43.0,0,120,15.0,77.0
6288,67.0,1,30,12.0,100.0
6289,55.0,2,30,13.0,98.0
6290,43.0,3,30,14.0,96.0
6291,67.0,54,30,12.0,100.0
6292,55.0,2,30,13.0,98.0
6293,43.0,4,30,14.0,96.0
6294,86.0,0,120,0.0,98.0
6295,83.0,50,120,0.0,98.0
6296,67.0,0,120,6.0,104.0
6297,62.0,0,120,4.0,102.0
6298,74.0,1,120,1.0,98.0
6299,74.0,0,120,6.0,104.0
6300,79.0,0,120,1.0,98.0
6301,74.0,1,120,2.0,98.0
6302,71.0,0,120,2.0,98.0
6303,55.0,1,120,5.0,102.0
6304,55.0,0,120,3.0,100.0
6305,67.0,1,120,3.0,100.0
6306,65.0,2,60,12.0,100.0
6307,53.0,2,60,13.0,98.0
6308,41.0,1,60,14.0,96.0
6309,67.0,49,105,10.0,71.0
6310,64.0,3,105,11.0,71.0
6311,64.0,52,50,12.0,100.0
6312,76.0,0,105,10.0,71.0
6313,84.0,0,105,10.0,78.0
6314,52.0,2,50,13.0,98.0
6315,72.0,0,105,11.0,71.0
6316,79.0,2,105,11.0,61.0
6317,40.0,4,50,14.0,96.0
6318,48.0,3,120,15.0,77.0
6319,62.0,1,30,12.0,100.0
6320,50.0,2,30,13.0,98.0
6321,38.0,3,30,14.0,96.0
6322,60.0,54,30,12.0,100.0
6323,48.0,2,30,13.0,98.0
6324,36.0,4,30,14.0,96.0
6325,88.0,0,120,0.0,98.0
6326,84.0,50,120,0.0,98.0
6327,64.0,0,120,4.0,102.0
6328,76.0,1,120,6.0,104.0
6329,72.0,0,120,6.0,104.0
6330,79.0,0,120,1.0,98.0
6331,76.0,0,120,1.0,98.0
6332,72.0,0,120,2.0,98.0
6333,76.0,1,120,2.0,98.0
6334,60.0,1,120,5.0,102.0
6335,60.0,0,120,3.0,100.0
6336,48.0,1,120,3.0,100.0
6337,55.0,2,50,12.0,100.0
6338,43.0,2,50,13.0,98.0
6339,31.0,1,50,14.0,96.0
6340,67.0,52,30,12.0,100.0
6341,55.0,2,30,13.0,98.0
6342,43.0,4,30,14.0,96.0
6343,67.0,49,105,10.0,71.0
6344,62.0,3,105,11.0,71.0
6345,83.0,3,105,10.0,78.0
6346,74.0,0,105,10.0,71.0
6347,79.0,0,105,11.0,61.0
6348,71.0,2,105,11.0,71.0
6349,43.0,0,120,15.0,77.0
6350,67.0,1,30,12.0,100.0
6351,55.0,2,30,13.0,98.0
6352,43.0,3,30,14.0,96.0
6353,67.0,54,30,12.0,100.0
6354,55.0,2,30,13.0,98.0
6355,43.0,4,30,14.0,96.0
6356,83.0,50,120,0.0,98.0
6357,86.0,0,120,0.0,98.0
6358,74.0,1,120,6.0,104.0
6359,62.0,0,120,4.0,102.0
6360,79.0,0,120,1.0,98.0
6361,67.0,0,120,6.0,104.0
6362,74.0,0,120,1.0,98.0
6363,71.0,1,120,2.0,98.0
6364,74.0,0,120,2.0,98.0
6365,55.0,1,120,5.0,102.0
6366,55.0,0,120,3.0,100.0
6367,67.0,1,120,3.0,100.0
6368,65.0,2,60,12.0,100.0
6369,53.0,2,60,13.0,98.0
6370,41.0,1,60,14.0,96.0
6371,67.0,49,105,10.0,71.0
6372,64.0,3,105,11.0,71.0
6373,64.0,52,50,12.0,100.0
6374,76.0,0,105,10.0,71.0
6375,84.0,3,105,10.0,78.0
6376,52.0,2,50,13.0,98.0
6377,72.0,2,105,11.0,71.0
6378,79.0,0,105,11.0,61.0
6379,40.0,4,50,14.0,96.0
6380,48.0,0,120,15.0,77.0
6381,62.0,1,30,12.0,100.0
6382,50.0,2,30,13.0,98.0
6383,38.0,3,30,14.0,96.0
6384,60.0,54,30,12.0,100.0
6385,48.0,2,30,13.0,98.0
6386,36.0,4,30,14.0,96.0
6387,84.0,50,120,0.0,98.0
6388,88.0,0,120,0.0,98.0
6389,72.0,0,120,6.0,104.0
6390,76.0,0,120,1.0,98.0
6391,79.0,0,0,1.0,98.0
6392,76.0,0,120,6.0,104.0
6393,64.0,0,120,4.0,102.0
6394,76.0,0,120,2.0,98.0
6395,72.0,1,120,2.0,98.0
6396,60.0,1,120,5.0,102.0
6397,60.0,1,120,3.0,100.0
6398,48.0,0,120,3.0,100.0
6399,67.0,49,105,10.0,71.0
6400,62.0,0,105,11.0,71.0
6401,74.0,2,105,10.0,71.0
6402,83.0,0,105,10.0,78.0
6403,79.0,2,105,11.0,61.0
6404,71.0,0,105,11.0,71.0
6405,83.0,0,120,0.0,98.0
6406,86.0,1,120,0.0,98.0
6407,67.0,0,120,6.0,104.0
6408,74.0,0,120,6.0,104.0
6409,74.0,1,120,1.0,98.0
6410,62.0,0,120,4.0,102.0
6411,71.0,0,120,2.0,98.0
6412,74.0,1,120,2.0,98.0
6413,55.0,1,120,5.0,102.0
6414,55.0,1,120,12.0,100.0
6415,43.0,2,120,13.0,98.0
6416,67.0,1,120,3.0,100.0
6417,55.0,0,120,3.0,100.0
6418,43.0,0,120,15.0,77.0
6419,31.0,1,120,14.0,96.0
6420,62.0,227,105,10.0,71.0
6421,62.0,1,105,11.0,71.0
6422,79.0,0,105,10.0,78.0
6423,71.0,0,105,10.0,71.0
6424,71.0,0,105,11.0,71.0
6425,79.0,2,105,11.0,61.0
6426,79.0,1,120,0.0,98.0
6427,67.0,0,120,6.0,104.0
6428,79.0,0,120,1.0,98.0
6429,62.0,1,120,4.0,102.0
6430,55.0,0,120,6.0,104.0
6431,79.0,0,120,2.0,98.0
6432,55.0,1,120,5.0,102.0
6433,67.0,1,120,12.0,100.0
6434,55.0,2,120,13.0,98.0
6435,55.0,1,120,3.0,100.0
6436,43.0,2,120,15.0,77.0
6437,43.0,1,120,14.0,96.0
6438,55.0,227,120,10.0,100.0
6439,79.0,1,120,0.0,98.0
6440,55.0,0,120,4.0,102.0
6441,55.0,1,120,6.0,104.0
6442,67.0,0,120,1.0,98.0
6443,67.0,0,120,6.0,104.0
6444,67.0,0,120,2.0,98.0
6445,55.0,1,120,11.0,100.0
6446,43.0,1,120,5.0,102.0
6447,55.0,1,120,12.0,100.0
6448,43.0,2,120,13.0,98.0
6449,43.0,1,120,3.0,100.0
6450,43.0,2,120,15.0,77.0
6451,31.0,1,120,14.0,96.0
6452,74.0,351,110,1.0,98.0
6453,59.0,1,60,11.0,86.0
6454,55.0,2,120,12.0,82.0
6455,55.0,2,120,13.0,80.0
6456,43.0,4,120,14.0,78.0
6457,62.0,112,60,11.0,86.0
6458,79.0,120,300,1.0,98.0
6459,67.0,120,60,11.0,86.0
6460,78.0,59,60,1.0,98.0
6461,76.0,60,60,1.0,98.0
6462,71.0,1,60,11.0,86.0
6463,74.0,59,50,1.0,98.0
6464,72.0,1,120,1.0,98.0
6465,72.0,1,120,11.0,86.0
6466,57.0,2,120,12.0,82.0
6467,57.0,2,120,13.0,80.0
6468,45.0,4,120,14.0,78.0
6469,72.0,109,60,10.0,86.0
6470,69.0,120,60,10.0,86.0
6471,84.0,59,300,0.0,98.0
6472,83.0,61,60,0.0,98.0
6473,66.0,59,60,10.0,86.0
6474,81.0,1,60,0.0,98.0
6475,79.0,60,50,0.0,98.0
6476,60.0,59,60,10.0,86.0
6477,60.0,1,60,11.0,86.0
6478,78.0,1,120,0.0,98.0
6479,50.0,2,120,12.0,82.0
6480,50.0,2,120,13.0,80.0
6481,38.0,4,120,14.0,78.0
6482,62.0,112,60,11.0,86.0
6483,81.0,1,300,1.0,98.0
6484,66.0,120,60,11.0,86.0
6485,78.0,59,60,1.0,98.0
6486,74.0,60,60,1.0,98.0
6487,69.0,1,60,11.0,86.0
6488,72.0,59,50,1.0,98.0
6489,59.0,58,60,10.0,86.0
6490,71.0,1,120,1.0,98.0
6491,67.0,1,120,11.0,86.0
6492,55.0,2,120,12.0,82.0
6493,55.0,2,120,13.0,80.0
6494,43.0,4,120,14.0,78.0
6495,62.0,109,60,10.0,86.0
6496,67.0,120,60,10.0,86.0
6497,86.0,1,300,0.0,98.0
6498,83.0,61,60,0.0,98.0
6499,71.0,59,60,10.0,86.0
6500,81.0,1,60,0.0,98.0
6501,79.0,60,50,0.0,98.0
6502,69.0,59,60,10.0,86.0
6503,81.0,1,120,0.0,88.0
6504,78.0,1,120,1.0,88.0
6505,66.0,0,120,11.0,86.0
6506,69.0,1,0,2.0,88.0
6507,66.0,0,120,2.0,88.0
6508,62.0,2,120,12.0,100.0
6509,50.0,2,120,13.0,98.0
6510,38.0,4,120,14.0,96.0
6511,62.0,1,60,3.0,100.0
6512,81.0,117,120,10.0,100.0
6513,84.0,110,240,0.0,62.0
6514,81.0,1,240,1.0,62.0
6515,72.0,0,240,2.0,88.0
6516,72.0,3,120,11.0,100.0
6517,62.0,2,120,12.0,100.0
6518,54.0,2,120,13.0,98.0
6519,61.0,57,60,3.0,100.0
6520,42.0,3,120,14.0,96.0
6521,62.0,1,60,3.0,100.0
6522,79.0,52,110,10.0,100.0
6523,83.0,1,110,0.0,62.0
6524,79.0,1,110,1.0,62.0
6525,67.0,1,110,2.0,88.0
6526,71.0,0,110,11.0,100.0
6527,71.0,0,110,2.0,88.0
6528,74.0,2,110,12.0,100.0
6529,55.0,2,110,13.0,98.0
6530,61.0,57,50,3.0,100.0
6531,43.0,3,110,14.0,96.0
6532,78.0,52,60,10.0,86.0
6533,69.0,1,60,11.0,86.0
6534,81.0,1,120,0.0,62.0
6535,78.0,1,120,1.0,62.0
6536,66.0,0,120,2.0,88.0
6537,69.0,1,0,2.0,88.0
6538,62.0,2,120,12.0,100.0
6539,50.0,2,120,13.0,98.0
6540,62.0,1,120,3.0,100.0
6541,38.0,3,120,14.0,96.0
6542,62.0,1,60,3.0,100.0
6543,81.0,117,120,10.0,100.0
6544,84.0,110,240,0.0,62.0
6545,81.0,1,240,1.0,62.0
6546,72.0,0,240,2.0,88.0
6547,72.0,3,120,11.0,100.0
6548,62.0,2,120,12.0,100.0
6549,54.0,2,120,13.0,98.0
6550,61.0,57,60,3.0,100.0
6551,42.0,3,120,14.0,96.0
6552,62.0,1,60,3.0,100.0
6553,79.0,52,110,10.0,100.0
6554,83.0,1,110,0.0,62.0
6555,79.0,1,110,1.0,62.0
6556,67.0,0,110,2.0,88.0
6557,71.0,0,110,11.0,100.0
6558,71.0,1,110,2.0,88.0
6559,74.0,2,110,12.0,100.0
6560,55.0,2,110,13.0,98.0
6561,61.0,57,50,3.0,100.0
6562,43.0,3,110,14.0,96.0
6563,78.0,52,60,10.0,86.0
6564,62.0,0,60,11.0,86.0
6565,78.0,1,110,1.0,70.0
6566,81.0,1,120,0.0,70.0
6567,66.0,0,120,2.0,98.0
6568,69.0,1,120,2.0,98.0
6569,69.0,2,120,12.0,100.0
6570,57.0,2,120,13.0,98.0
6571,62.0,1,120,3.0,100.0
6572,45.0,3,120,14.0,96.0
6573,74.0,109,60,10.0,100.0
6574,66.0,1,60,11.0,100.0
6575,86.0,1,120,0.0,98.0
6576,78.0,1,120,1.0,98.0
6577,62.0,5,120,3.0,100.0
6578,85.0,113,120,0.0,98.0
6579,79.0,1,120,1.0,98.0
6580,57.0,3,120,12.0,100.0
6581,45.0,2,120,13.0,98.0
6582,64.0,1,120,3.0,100.0
6583,33.0,3,120,14.0,96.0
6584,73.0,109,60,10.0,100.0
6585,67.0,1,60,11.0,100.0
6586,88.0,1,110,0.0,98.0
6587,73.0,1,110,1.0,98.0
6588,67.0,5,110,3.0,100.0
6589,74.0,112,120,10.0,100.0
6590,86.0,1,120,0.0,98.0
6591,74.0,1,120,1.0,98.0
6592,57.0,1,120,11.0,100.0
6593,66.0,0,120,11.0,100.0
6594,50.0,2,120,12.0,100.0
6595,50.0,2,120,13.0,98.0
6596,66.0,1,120,3.0,100.0
6597,38.0,3,120,14.0,96.0
6598,60.0,114,240,12.0,100.0
6599,60.0,2,240,13.0,98.0
6600,48.0,4,240,14.0,96.0
6601,74.0,229,110,10.0,86.0
6602,62.0,3,110,11.0,86.0
6603,57.0,2,110,12.0,100.0
6604,57.0,2,110,13.0,98.0
6605,45.0,4,110,14.0,96.0
6606,47.0,1,60,3.0,100.0
6607,55.0,2,120,12.0,100.0
6608,55.0,2,120,13.0,98.0
6609,43.0,3,120,14.0,96.0
6610,50.0,117,60,3.0,100.0
6611,79.0,109,300,10.0,86.0
6612,67.0,3,300,11.0,86.0
6613,55.0,120,60,3.0,100.0
6614,78.0,52,60,10.0,86.0
6615,66.0,3,60,11.0,86.0
6616,76.0,57,60,10.0,86.0
6617,64.0,3,60,11.0,86.0
6618,59.0,5,60,3.0,100.0
6619,74.0,52,50,10.0,86.0
6620,62.0,3,50,11.0,86.0
6621,72.0,57,120,10.0,86.0
6622,60.0,1,120,11.0,86.0
6623,60.0,0,120,2.0,98.0
6624,57.0,2,120,12.0,100.0
6625,57.0,2,120,13.0,98.0
6626,60.0,1,120,3.0,100.0
6627,45.0,3,120,14.0,96.0
6628,64.0,112,120,2.0,98.0
6629,84.0,1,300,0.0,98.0
6630,72.0,1,300,1.0,98.0
6631,83.0,58,60,0.0,98.0
6632,71.0,1,60,1.0,98.0
6633,69.0,120,120,2.0,98.0
6634,81.0,59,60,0.0,98.0
6635,69.0,1,60,1.0,98.0
6636,79.0,58,50,0.0,98.0
6637,67.0,1,50,1.0,98.0
6638,72.0,1,110,2.0,98.0
6639,50.0,1,60,3.0,100.0
6640,78.0,1,120,0.0,98.0
6641,66.0,1,120,1.0,98.0
6642,60.0,0,120,2.0,98.0
6643,50.0,2,120,12.0,100.0
6644,50.0,2,120,13.0,98.0
6645,38.0,3,120,14.0,96.0
6646,54.0,117,60,3.0,100.0
6647,81.0,58,300,10.0,86.0
6648,69.0,1,300,11.0,86.0
6649,57.0,120,60,3.0,100.0
6650,78.0,52,60,10.0,86.0
6651,66.0,3,60,11.0,86.0
6652,74.0,57,60,10.0,86.0
6653,62.0,3,60,11.0,86.0
6654,62.0,5,60,3.0,100.0
6655,72.0,52,50,10.0,86.0
6656,60.0,3,50,11.0,86.0
6657,71.0,57,120,10.0,86.0
6658,59.0,0,120,2.0,88.0
6659,62.0,112,0,2.0,88.0
6660,59.0,0,120,11.0,86.0
6661,55.0,2,120,12.0,100.0
6662,55.0,2,120,13.0,98.0
6663,55.0,1,120,3.0,100.0
6664,43.0,3,120,14.0,96.0
6665,65.0,0,120,2.0,88.0
6666,89.0,1,300,0.0,88.0
6667,86.0,58,60,0.0,88.0
6668,65.0,0,120,2.0,88.0
6669,71.0,120,120,2.0,88.0
6670,83.0,60,60,0.0,88.0
6671,77.0,58,50,0.0,88.0
6672,74.0,2,110,2.0,88.0
6673,71.0,0,110,2.0,88.0
6674,76.0,59,60,10.0,100.0
6675,79.0,1,60,0.0,88.0
6676,64.0,2,60,11.0,100.0
6677,60.0,2,60,12.0,100.0
6678,60.0,2,60,13.0,98.0
6679,48.0,3,60,14.0,96.0
6680,72.0,0,120,2.0,88.0
6681,76.0,0,120,2.0,88.0
6682,60.0,0,120,3.0,100.0
6683,64.0,1,120,3.0,100.0
6684,60.0,2,60,12.0,100.0
6685,60.0,2,60,13.0,98.0
6686,48.0,3,60,14.0,96.0
6687,88.0,1,120,0.0,79.0
6688,84.0,0,120,0.0,79.0
6689,76.0,1,120,1.0,79.0
6690,72.0,0,120,1.0,79.0
6691,60.0,1,120,3.0,100.0
6692,64.0,0,120,3.0,100.0
6693,79.0,109,230,10.0,100.0
6694,67.0,1,230,11.0,100.0
6695,80.0,112,120,10.0,100.0
6696,68.0,3,120,11.0,100.0
6697,59.0,2,120,12.0,100.0
6698,59.0,2,120,13.0,98.0
6699,47.0,4,120,14.0,96.0
6700,79.0,109,60,10.0,100.0
6701,67.0,3,60,11.0,100.0
6702,60.0,2,60,12.0,100.0
6703,60.0,2,60,13.0,98.0
6704,48.0,4,60,14.0,96.0
6705,86.0,0,350,0.0,79.0
6706,89.0,110,350,0.0,79.0
6707,77.0,1,350,1.0,79.0
6708,74.0,0,350,1.0,79.0
6709,62.0,6,350,3.0,100.0
6710,65.0,0,350,3.0,100.0
6711,60.0,2,60,12.0,100.0
6712,60.0,2,60,13.0,98.0
6713,48.0,3,60,14.0,96.0
6714,84.0,1,120,0.0,79.0
6715,88.0,0,120,0.0,79.0
6716,72.0,0,120,1.0,79.0
6717,76.0,1,120,1.0,79.0
6718,60.0,1,120,3.0,100.0
6719,64.0,0,120,3.0,100.0
6720,79.0,109,230,10.0,100.0
6721,67.0,1,230,11.0,100.0
6722,80.0,112,120,10.0,100.0
6723,68.0,3,120,11.0,100.0
6724,59.0,2,120,12.0,100.0
6725,59.0,2,120,13.0,98.0
6726,47.0,4,120,14.0,96.0
6727,81.0,109,110,10.0,100.0
6728,89.0,0,350,0.0,79.0
6729,86.0,110,350,0.0,79.0
6730,77.0,0,350,1.0,79.0
6731,74.0,1,350,1.0,79.0
6732,69.0,3,110,11.0,100.0
6733,60.0,2,110,12.0,100.0
6734,60.0,2,110,13.0,98.0
6735,62.0,0,350,3.0,100.0
6736,65.0,6,350,3.0,100.0
6737,48.0,4,110,14.0,96.0
6738,76.0,109,120,10.0,100.0
6739,88.0,1,120,0.0,88.0
6740,84.0,0,120,0.0,88.0
6741,72.0,0,120,1.0,88.0
6742,76.0,1,120,1.0,88.0
6743,72.0,1,120,11.0,100.0
6744,64.0,2,120,12.0,100.0
6745,57.0,2,120,13.0,98.0
6746,60.0,0,120,3.0,100.0
6747,64.0,1,120,3.0,100.0
6748,45.0,3,120,14.0,96.0
6749,74.0,109,120,10.0,100.0
6750,83.0,1,120,0.0,88.0
6751,86.0,0,120,0.0,88.0
6752,74.0,0,120,1.0,88.0
6753,71.0,1,120,1.0,88.0
6754,71.0,1,120,11.0,100.0
6755,68.0,2,120,12.0,100.0
6756,59.0,2,120,13.0,98.0
6757,62.0,1,120,3.0,100.0
6758,59.0,0,120,3.0,100.0
6759,47.0,3,120,14.0,96.0
6760,72.0,109,110,10.0,100.0
6761,81.0,1,110,0.0,88.0
6762,84.0,0,110,0.0,88.0
6763,69.0,1,110,1.0,88.0
6764,72.0,0,110,1.0,88.0
6765,69.0,1,110,11.0,100.0
6766,69.0,2,110,12.0,100.0
6767,60.0,2,110,13.0,98.0
6768,57.0,0,110,3.0,100.0
6769,60.0,1,110,3.0,100.0
6770,48.0,3,110,14.0,96.0
6771,71.0,109,240,10.0,100.0
6772,83.0,1,240,0.0,88.0
6773,79.0,0,240,0.0,88.0
6774,67.0,1,240,1.0,88.0
6775,71.0,0,240,1.0,88.0
6776,74.0,0,240,2.0,88.0
6777,62.0,0,0,2.0,98.0
6778,67.0,1,240,11.0,100.0
6779,62.0,2,240,12.0,100.0
6780,62.0,2,240,13.0,98.0
6781,59.0,1,240,3.0,100.0
6782,55.0,0,240,3.0,100.0
6783,50.0,3,240,14.0,96.0
6784,69.0,229,215,10.0,100.0
6785,66.0,0,215,11.0,100.0
6786,62.0,2,215,12.0,100.0
6787,78.0,1,220,0.0,98.0
6788,81.0,0,220,0.0,98.0
6789,60.0,2,215,13.0,98.0
6790,69.0,1,220,1.0,98.0
6791,66.0,0,220,1.0,98.0
6792,74.0,1,220,2.0,98.0
6793,48.0,3,215,14.0,96.0
6794,57.0,0,220,3.0,100.0
6795,54.0,1,220,3.0,100.0
6796,86.0,0,20,10.0,110.0
6797,74.0,229,20,10.0,110.0
6798,74.0,0,20,11.0,110.0
6799,62.0,0,20,11.0,110.0
6800,67.0,1,20,12.0,110.0
6801,59.0,2,20,13.0,108.0
6802,47.0,3,20,14.0,106.0
6803,74.0,19,20,10.0,110.0
6804,86.0,0,20,10.0,110.0
6805,62.0,3,20,11.0,110.0
6806,74.0,0,20,11.0,110.0
6807,67.0,2,20,12.0,110.0
6808,59.0,2,20,13.0,108.0
6809,47.0,4,20,14.0,106.0
6810,74.0,19,20,10.0,110.0
6811,86.0,0,20,10.0,110.0
6812,62.0,3,20,11.0,110.0
6813,74.0,0,20,11.0,110.0
6814,67.0,2,20,12.0,110.0
6815,59.0,2,20,13.0,108.0
6816,47.0,4,20,14.0,106.0
6817,86.0,0,20,10.0,110.0
6818,74.0,19,20,10.0,110.0
6819,62.0,0,20,11.0,110.0
6820,74.0,3,20,11.0,110.0
6821,67.0,2,20,12.0,110.0
6822,59.0,2,20,13.0,108.0
6823,79.0,0,120,0.0,98.0
6824,86.0,1,120,0.0,98.0
6825,47.0,4,20,14.0,106.0
6826,74.0,0,120,6.0,104.0
6827,74.0,1,120,1.0,98.0
6828,62.0,0,120,1.0,98.0
6829,62.0,0,120,4.0,102.0
6830,74.0,0,120,2.0,98.0
6831,62.0,1,120,2.0,98.0
6832,62.0,1,120,5.0,102.0
6833,59.0,0,120,3.0,100.0
6834,47.0,1,120,3.0,100.0
6835,74.0,19,60,10.0,110.0
6836,86.0,0,60,10.0,110.0
6837,74.0,3,60,11.0,110.0
6838,62.0,0,60,11.0,110.0
6839,67.0,2,60,12.0,110.0
6840,59.0,2,60,13.0,108.0
6841,47.0,4,60,14.0,106.0
6842,74.0,0,20,10.0,110.0
6843,84.0,109,20,10.0,110.0
6844,62.0,0,20,11.0,110.0
6845,74.0,0,20,11.0,110.0
6846,66.0,1,20,12.0,110.0
6847,57.0,2,20,13.0,108.0
6848,45.0,3,20,14.0,106.0
6849,74.0,19,20,10.0,110.0
6850,84.0,0,20,10.0,110.0
6851,62.0,0,20,11.0,110.0
6852,74.0,3,20,11.0,110.0
6853,66.0,2,20,12.0,110.0
6854,57.0,2,20,13.0,108.0
6855,45.0,4,20,14.0,106.0
6856,84.0,0,20,10.0,110.0
6857,74.0,19,20,10.0,110.0
6858,62.0,3,20,11.0,110.0
6859,74.0,0,20,11.0,110.0
6860,66.0,2,20,12.0,110.0
6861,57.0,2,20,13.0,108.0
6862,45.0,4,20,14.0,106.0
6863,84.0,0,20,10.0,110.0
6864,74.0,19,20,10.0,110.0
6865,62.0,0,20,11.0,110.0
6866,74.0,3,20,11.0,110.0
6867,66.0,2,20,12.0,110.0
6868,57.0,2,20,13.0,108.0
6869,78.0,0,120,0.0,98.0
6870,45.0,4,20,14.0,106.0
6871,84.0,1,120,0.0,98.0
6872,78.0,0,120,1.0,98.0
6873,72.0,0,120,1.0,98.0
6874,62.0,1,120,4.0,102.0
6875,74.0,0,120,6.0,104.0
6876,66.0,1,120,2.0,98.0
6877,72.0,0,120,2.0,98.0
6878,62.0,1,120,5.0,102.0
6879,57.0,1,120,3.0,100.0
6880,45.0,0,120,3.0,100.0
6881,84.0,0,60,10.0,110.0
6882,74.0,19,60,10.0,110.0
6883,62.0,0,60,11.0,110.0
6884,74.0,3,60,11.0,110.0
6885,66.0,2,60,12.0,110.0
6886,57.0,2,60,13.0,108.0
6887,45.0,4,60,14.0,106.0
6888,83.0,0,20,10.0,110.0
6889,74.0,109,20,10.0,110.0
6890,74.0,0,20,11.0,110.0
6891,62.0,0,20,11.0,110.0
6892,67.0,1,20,12.0,110.0
6893,55.0,2,20,13.0,108.0
6894,43.0,3,20,14.0,106.0
6895,74.0,19,20,10.0,110.0
6896,83.0,0,20,10.0,110.0
6897,74.0,3,20,11.0,110.0
6898,62.0,0,20,11.0,110.0
6899,67.0,2,20,12.0,110.0
6900,55.0,2,20,13.0,108.0
6901,43.0,4,20,14.0,106.0
6902,74.0,0,20,10.0,110.0
6903,83.0,19,20,10.0,110.0
6904,74.0,0,20,11.0,110.0
6905,62.0,3,20,11.0,110.0
6906,67.0,2,20,12.0,110.0
6907,55.0,2,20,13.0,108.0
6908,43.0,4,20,14.0,106.0
6909,83.0,19,20,10.0,110.0
6910,74.0,0,20,10.0,110.0
6911,74.0,3,20,11.0,110.0
6912,62.0,0,20,11.0,110.0
6913,67.0,2,20,12.0,110.0
6914,55.0,2,20,13.0,108.0
6915,79.0,0,120,0.0,98.0
6916,43.0,4,20,14.0,106.0
6917,83.0,1,120,0.0,98.0
6918,62.0,0,120,4.0,102.0
6919,71.0,0,120,1.0,98.0
6920,74.0,0,120,6.0,104.0
6921,79.0,1,120,1.0,98.0
6922,71.0,1,120,2.0,98.0
6923,67.0,0,120,2.0,98.0
6924,62.0,1,120,5.0,102.0
6925,55.0,1,120,3.0,100.0
6926,43.0,0,120,3.0,100.0
6927,83.0,19,60,10.0,110.0
6928,74.0,0,60,10.0,110.0
6929,74.0,0,60,11.0,110.0
6930,62.0,3,60,11.0,110.0
6931,67.0,2,60,12.0,110.0
6932,55.0,2,60,13.0,108.0
6933,43.0,4,60,14.0,106.0
6934,81.0,109,30,10.0,110.0
6935,69.0,1,30,11.0,110.0
6936,74.0,2,50,12.0,110.0
6937,62.0,0,50,12.0,110.0
6938,60.0,2,50,13.0,108.0
6939,81.0,1,60,0.0,98.0
6940,48.0,4,50,14.0,106.0
6941,69.0,1,60,1.0,98.0
6942,83.0,49,30,10.0,110.0
6943,71.0,1,30,11.0,110.0
6944,62.0,0,50,12.0,110.0
6945,74.0,2,50,12.0,110.0
6946,60.0,2,50,13.0,108.0
6947,48.0,4,50,14.0,106.0
6948,83.0,1,60,0.0,98.0
6949,71.0,1,60,1.0,98.0
6950,84.0,49,30,10.0,110.0
6951,72.0,1,30,11.0,110.0
6952,62.0,0,50,12.0,110.0
6953,74.0,2,50,12.0,110.0
6954,60.0,2,50,13.0,108.0
6955,48.0,4,50,14.0,106.0
6956,84.0,1,60,0.0,98.0
6957,72.0,1,60,1.0,98.0
6958,85.0,49,30,10.0,110.0
6959,73.0,1,30,11.0,110.0
6960,85.0,1,50,0.0,98.0
6961,73.0,1,50,1.0,98.0
6962,62.0,2,50,12.0,110.0
6963,74.0,0,50,12.0,110.0
6964,60.0,2,50,13.0,108.0
6965,48.0,4,50,14.0,106.0
6966,86.0,0,20,10.0,110.0
6967,74.0,49,20,10.0,110.0
6968,74.0,0,20,11.0,110.0
6969,62.0,1,20,11.0,110.0
6970,67.0,1,20,12.0,110.0
6971,59.0,2,20,13.0,108.0
6972,47.0,3,20,14.0,106.0
6973,86.0,0,20,10.0,110.0
6974,74.0,19,20,10.0,110.0
6975,74.0,0,20,11.0,110.0
6976,62.0,3,20,11.0,110.0
6977,67.0,2,20,12.0,110.0
6978,59.0,2,20,13.0,108.0
6979,47.0,4,20,14.0,106.0
6980,74.0,0,20,10.0,110.0
6981,86.0,19,20,10.0,110.0
6982,62.0,3,20,11.0,110.0
6983,74.0,0,20,11.0,110.0
6984,67.0,2,20,12.0,110.0
6985,59.0,2,20,13.0,108.0
6986,47.0,4,20,14.0,106.0
6987,86.0,19,20,10.0,110.0
6988,74.0,0,20,10.0,110.0
6989,74.0,3,20,11.0,110.0
6990,62.0,0,20,11.0,110.0
6991,67.0,2,20,12.0,110.0
6992,59.0,2,20,13.0,108.0
6993,47.0,4,20,14.0,106.0
6994,74.0,19,60,10.0,110.0
6995,86.0,0,60,10.0,110.0
6996,74.0,0,60,11.0,110.0
6997,62.0,3,60,11.0,110.0
6998,67.0,2,60,12.0,110.0
6999,59.0,2,60,13.0,108.0
7000,47.0,4,60,14.0,106.0
7001,86.0,1,230,0.0,98.0
7002,74.0,0,230,1.0,98.0
7003,62.0,1,230,3.0,100.0
7004,74.0,1,240,6.0,104.0
7005,62.0,0,0,4.0,102.0
7006,62.0,1,240,5.0,102.0
7007,74.0,0,20,10.0,110.0
7008,84.0,109,20,10.0,110.0
7009,74.0,1,20,11.0,110.0
7010,62.0,0,20,11.0,110.0
7011,66.0,1,20,12.0,110.0
7012,57.0,2,20,13.0,108.0
7013,45.0,3,20,14.0,106.0
7014,74.0,0,20,10.0,110.0
7015,84.0,19,20,10.0,110.0
7016,62.0,3,20,11.0,110.0
7017,74.0,0,20,11.0,110.0
7018,66.0,2,20,12.0,110.0
7019,57.0,2,20,13.0,108.0
7020,45.0,4,20,14.0,106.0
7021,84.0,0,20,10.0,110.0
7022,74.0,19,20,10.0,110.0
7023,62.0,3,20,11.0,110.0
7024,74.0,0,20,11.0,110.0
7025,66.0,2,20,12.0,110.0
7026,57.0,2,20,13.0,108.0
7027,45.0,4,20,14.0,106.0
7028,74.0,0,20,10.0,110.0
7029,84.0,19,20,10.0,110.0
7030,62.0,3,20,11.0,110.0
7031,74.0,0,20,11.0,110.0
7032,66.0,2,20,12.0,110.0
7033,57.0,2,20,13.0,108.0
7034,45.0,4,20,14.0,106.0
7035,74.0,19,60,10.0,110.0
7036,84.0,0,60,10.0,110.0
7037,62.0,0,60,11.0,110.0
7038,74.0,3,60,11.0,110.0
7039,66.0,2,60,12.0,110.0
7040,57.0,2,60,13.0,108.0
7041,45.0,4,60,14.0,106.0
7042,90.0,1,230,0.0,98.0
7043,84.0,0,230,0.0,98.0
7044,72.0,0,230,1.0,98.0
7045,78.0,0,230,1.0,98.0
7046,66.0,0,230,3.0,100.0
7047,60.0,1,230,3.0,100.0
7048,74.0,1,240,6.0,104.0
7049,62.0,1,0,5.0,102.0
7050,74.0,0,20,10.0,110.0
7051,83.0,109,20,10.0,110.0
7052,74.0,1,20,11.0,110.0
7053,62.0,0,20,11.0,110.0
7054,67.0,1,20,12.0,110.0
7055,55.0,2,20,13.0,108.0
7056,43.0,3,20,14.0,106.0
7057,83.0,19,20,10.0,110.0
7058,74.0,0,20,10.0,110.0
7059,74.0,3,20,11.0,110.0
7060,62.0,0,20,11.0,110.0
7061,67.0,2,20,12.0,110.0
7062,55.0,2,20,13.0,108.0
7063,43.0,4,20,14.0,106.0
7064,74.0,0,20,10.0,110.0
7065,83.0,19,20,10.0,110.0
7066,62.0,0,20,11.0,110.0
7067,74.0,3,20,11.0,110.0
7068,67.0,2,20,12.0,110.0
7069,55.0,2,20,13.0,108.0
7070,43.0,4,20,14.0,106.0
7071,74.0,0,20,10.0,110.0
7072,83.0,19,20,10.0,110.0
7073,74.0,3,20,11.0,110.0
7074,62.0,0,20,11.0,110.0
7075,67.0,2,20,12.0,110.0
7076,55.0,2,20,13.0,108.0
7077,43.0,4,20,14.0,106.0
7078,83.0,1,120,0.0,98.0
7079,91.0,0,120,0.0,98.0
7080,71.0,0,120,1.0,98.0
7081,79.0,0,120,1.0,98.0
7082,59.0,0,120,3.0,100.0
7083,67.0,1,120,3.0,100.0
7084,74.0,0,60,10.0,110.0
7085,83.0,19,60,10.0,110.0
7086,74.0,0,60,11.0,110.0
7087,62.0,3,60,11.0,110.0
7088,67.0,2,60,12.0,110.0
7089,55.0,2,60,13.0,108.0
7090,43.0,4,60,14.0,106.0
7091,74.0,1,240,6.0,104.0
7092,62.0,0,240,4.0,102.0
7093,81.0,109,30,10.0,110.0
7094,69.0,1,30,11.0,110.0
7095,62.0,2,50,12.0,110.0
7096,74.0,0,50,12.0,110.0
7097,60.0,2,50,13.0,108.0
7098,81.0,1,60,0.0,98.0
7099,48.0,4,50,14.0,106.0
7100,69.0,1,60,1.0,98.0
7101,83.0,49,30,10.0,110.0
7102,71.0,1,30,11.0,110.0
7103,62.0,0,50,12.0,110.0
7104,74.0,2,50,12.0,110.0
7105,60.0,2,50,13.0,108.0
7106,48.0,4,50,14.0,106.0
7107,83.0,1,60,0.0,98.0
7108,71.0,1,60,1.0,98.0
7109,84.0,49,30,10.0,110.0
7110,72.0,1,30,11.0,110.0
7111,62.0,2,50,12.0,110.0
7112,74.0,0,50,12.0,110.0
7113,60.0,2,50,13.0,108.0
7114,84.0,1,60,0.0,98.0
7115,48.0,4,50,14.0,106.0
7116,72.0,1,60,1.0,98.0
7117,85.0,49,30,10.0,110.0
7118,73.0,1,30,11.0,110.0
7119,85.0,1,50,0.0,98.0
7120,73.0,1,50,1.0,98.0
7121,62.0,2,50,12.0,110.0
7122,74.0,0,50,12.0,110.0
7123,60.0,2,50,13.0,108.0
7124,48.0,4,50,14.0,106.0
7125,86.0,49,20,10.0,110.0
7126,74.0,0,20,11.0,110.0
7127,86.0,19,20,10.0,110.0
7128,74.0,3,20,11.0,110.0
7129,86.0,27,20,10.0,110.0
7130,74.0,3,20,11.0,110.0
7131,86.0,27,20,10.0,110.0
7132,74.0,3,20,11.0,110.0
7133,86.0,27,20,10.0,110.0
7134,74.0,3,20,11.0,110.0
7135,86.0,27,20,10.0,110.0
7136,86.0,1,170,0.0,98.0
7137,74.0,1,170,1.0,98.0
7138,74.0,1,170,2.0,98.0
7139,74.0,3,20,11.0,110.0
7140,59.0,1,170,12.0,110.0
7141,59.0,2,170,13.0,108.0
7142,59.0,1,170,3.0,100.0
7143,47.0,3,170,14.0,106.0
7144,84.0,27,20,10.0,110.0
7145,72.0,1,20,11.0,110.0
7146,84.0,19,20,10.0,110.0
7147,84.0,1,50,0.0,98.0
7148,72.0,1,50,1.0,98.0
7149,72.0,3,20,11.0,110.0
7150,72.0,0,50,2.0,98.0
7151,57.0,2,50,12.0,110.0
7152,57.0,2,50,13.0,108.0
7153,57.0,1,50,3.0,100.0
7154,45.0,3,50,14.0,106.0
7155,62.0,0,240,4.0,102.0
7156,74.0,0,240,6.0,104.0
7157,62.0,1,240,5.0,102.0
7158,83.0,27,20,10.0,110.0
7159,71.0,1,20,11.0,110.0
7160,83.0,19,20,10.0,110.0
7161,83.0,1,50,0.0,98.0
7162,71.0,1,50,1.0,98.0
7163,71.0,3,20,11.0,110.0
7164,71.0,0,50,2.0,98.0
7165,55.0,2,50,12.0,110.0
7166,55.0,2,50,13.0,108.0
7167,55.0,1,50,3.0,100.0
7168,43.0,3,50,14.0,106.0
7169,81.0,27,20,10.0,110.0
7170,69.0,1,20,11.0,110.0
7171,81.0,19,20,10.0,110.0
7172,81.0,1,50,0.0,98.0
7173,69.0,1,50,1.0,98.0
7174,69.0,0,50,2.0,98.0
7175,69.0,3,20,11.0,110.0
7176,57.0,2,50,12.0,110.0
7177,57.0,2,50,13.0,108.0
7178,57.0,1,50,3.0,100.0
7179,45.0,3,50,14.0,106.0
7180,79.0,27,20,10.0,110.0
7181,67.0,1,20,11.0,110.0
7182,79.0,19,20,10.0,110.0
7183,79.0,1,50,0.0,98.0
7184,67.0,1,50,1.0,98.0
7185,67.0,0,50,2.0,98.0
7186,67.0,3,20,11.0,110.0
7187,58.0,2,50,12.0,110.0
7188,58.0,2,50,13.0,108.0
7189,58.0,1,50,3.0,100.0
7190,46.0,3,50,14.0,106.0
7191,77.0,27,20,10.0,110.0
7192,65.0,1,20,11.0,110.0
7193,77.0,19,20,10.0,110.0
7194,77.0,1,50,0.0,98.0
7195,65.0,1,50,1.0,98.0
7196,65.0,3,20,11.0,110.0
7197,65.0,0,50,2.0,98.0
7198,59.0,2,50,12.0,110.0
7199,59.0,2,50,13.0,108.0
7200,59.0,1,50,3.0,100.0
7201,47.0,3,50,14.0,106.0
7202,76.0,27,20,10.0,110.0
7203,64.0,0,20,11.0,110.0
7204,76.0,19,20,10.0,110.0
7205,64.0,1,50,1.0,98.0
7206,76.0,3,20,11.0,110.0
7207,64.0,1,50,2.0,98.0
7208,76.0,27,20,10.0,110.0
7209,76.0,0,20,11.0,110.0
7210,76.0,27,20,10.0,110.0
7211,76.0,1,110,0.0,98.0
7212,76.0,3,20,11.0,110.0
7213,76.0,27,20,10.0,110.0
7214,76.0,2,20,11.0,110.0
7215,76.0,27,20,10.0,110.0
7216,88.0,1,50,0.0,98.0
7217,76.0,2,110,1.0,98.0
7218,76.0,3,20,11.0,110.0
7219,76.0,1,110,2.0,98.0
7220,60.0,2,170,12.0,110.0
7221,60.0,2,170,13.0,108.0
7222,60.0,1,170,3.0,100.0
7223,48.0,3,170,14.0,106.0
7224,74.0,27,20,10.0,110.0
7225,74.0,0,20,11.0,110.0
7226,74.0,19,20,10.0,110.0
7227,86.0,1,50,0.0,98.0
7228,74.0,1,50,1.0,98.0
7229,74.0,3,20,11.0,110.0
7230,74.0,1,50,2.0,98.0
7231,59.0,2,50,12.0,110.0
7232,59.0,2,50,13.0,108.0
7233,59.0,1,50,3.0,100.0
7234,47.0,3,50,14.0,106.0
7235,72.0,27,20,10.0,110.0
7236,72.0,0,20,11.0,110.0
7237,72.0,19,20,10.0,110.0
7238,84.0,1,50,0.0,98.0
7239,72.0,1,50,1.0,98.0
7240,72.0,3,20,11.0,110.0
7241,72.0,1,50,2.0,98.0
7242,64.0,2,50,12.0,110.0
7243,64.0,2,50,13.0,108.0
7244,64.0,1,50,3.0,100.0
7245,52.0,3,50,14.0,106.0
7246,71.0,27,20,10.0,110.0
7247,71.0,1,20,11.0,110.0
7248,71.0,19,20,10.0,110.0
7249,83.0,1,50,0.0,98.0
7250,71.0,1,50,1.0,98.0
7251,71.0,3,20,11.0,110.0
7252,71.0,0,50,2.0,98.0
7253,62.0,2,50,12.0,110.0
7254,62.0,2,50,13.0,108.0
7255,62.0,1,50,3.0,100.0
7256,50.0,3,50,14.0,106.0
7257,69.0,27,20,10.0,110.0
7258,69.0,1,20,11.0,110.0
7259,69.0,19,20,10.0,110.0
7260,81.0,1,50,0.0,98.0
7261,69.0,1,50,1.0,98.0
7262,69.0,3,20,11.0,110.0
7263,69.0,0,50,2.0,98.0
7264,60.0,2,50,12.0,110.0
7265,60.0,2,50,13.0,108.0
7266,60.0,1,50,3.0,100.0
7267,48.0,3,50,14.0,106.0
7268,67.0,27,20,10.0,110.0
7269,67.0,1,20,11.0,110.0
7270,67.0,19,20,10.0,110.0
7271,79.0,1,50,0.0,98.0
7272,67.0,1,50,1.0,98.0
7273,67.0,3,20,11.0,110.0
7274,67.0,0,50,2.0,98.0
7275,61.0,2,50,12.0,110.0
7276,61.0,2,50,13.0,108.0
7277,61.0,1,50,3.0,100.0
7278,49.0,3,50,14.0,106.0
7279,66.0,27,20,10.0,110.0
7280,66.0,1,20,11.0,110.0
7281,62.0,2,30,12.0,110.0
7282,62.0,2,30,13.0,108.0
7283,50.0,3,30,14.0,106.0
7284,66.0,19,20,10.0,110.0
7285,78.0,1,50,0.0,98.0
7286,66.0,1,50,1.0,98.0
7287,66.0,3,20,11.0,110.0
7288,66.0,0,50,2.0,98.0
7289,62.0,1,50,3.0,100.0
7290,67.0,27,20,10.0,110.0
7291,67.0,0,20,11.0,110.0
7292,71.0,2,30,12.0,110.0
7293,59.0,2,30,13.0,108.0
7294,47.0,3,30,14.0,106.0
7295,67.0,19,20,10.0,110.0
7296,79.0,1,50,0.0,98.0
7297,67.0,1,50,1.0,98.0
7298,67.0,3,20,11.0,110.0
7299,67.0,1,50,2.0,98.0
7300,59.0,1,50,3.0,100.0
7301,69.0,27,20,10.0,110.0
7302,69.0,0,20,11.0,110.0
7303,69.0,2,30,12.0,110.0
7304,57.0,2,30,13.0,108.0
7305,45.0,3,30,14.0,106.0
7306,69.0,19,20,10.0,110.0
7307,81.0,0,50,0.0,98.0
7308,69.0,1,50,0.0,98.0
7309,69.0,1,50,1.0,98.0
7310,69.0,3,20,11.0,110.0
7311,69.0,1,50,2.0,98.0
7312,57.0,1,50,3.0,100.0
7313,71.0,27,20,10.0,110.0
7314,71.0,0,20,11.0,110.0
7315,67.0,2,30,12.0,110.0
7316,55.0,2,30,13.0,108.0
7317,43.0,3,30,14.0,106.0
7318,71.0,19,20,10.0,110.0
7319,83.0,1,50,0.0,98.0
7320,71.0,0,50,0.0,98.0
7321,71.0,1,50,1.0,98.0
7322,71.0,3,20,11.0,110.0
7323,71.0,1,50,2.0,98.0
7324,55.0,1,50,3.0,100.0
7325,72.0,27,20,10.0,110.0
7326,72.0,0,20,11.0,110.0
7327,66.0,2,30,12.0,110.0
7328,54.0,2,30,13.0,108.0
7329,42.0,3,30,14.0,106.0
7330,72.0,19,20,10.0,110.0
7331,72.0,1,50,0.0,98.0
7332,84.0,0,50,0.0,98.0
7333,72.0,1,50,1.0,98.0
7334,72.0,1,50,2.0,98.0
7335,72.0,3,20,11.0,110.0
7336,54.0,1,50,3.0,100.0
7337,74.0,27,20,10.0,110.0
7338,74.0,0,20,11.0,110.0
7339,64.0,2,30,12.0,110.0
7340,52.0,2,30,13.0,108.0
7341,40.0,3,30,14.0,106.0
7342,74.0,19,20,10.0,110.0
7343,86.0,0,50,0.0,98.0
7344,74.0,1,50,0.0,98.0
7345,74.0,1,50,1.0,98.0
7346,74.0,1,50,2.0,98.0
7347,74.0,3,20,11.0,110.0
7348,52.0,1,50,3.0,100.0
7349,76.0,27,20,10.0,110.0
7350,76.0,1,20,11.0,110.0
7351,62.0,2,30,12.0,110.0
7352,50.0,2,30,13.0,108.0
7353,38.0,3,30,14.0,106.0
7354,76.0,19,20,10.0,110.0
7355,88.0,0,50,0.0,98.0
7356,76.0,1,50,0.0,98.0
7357,76.0,1,50,1.0,98.0
7358,76.0,3,20,11.0,110.0
7359,76.0,0,50,2.0,98.0
7360,50.0,1,50,3.0,100.0
7361,78.0,27,20,10.0,110.0
7362,78.0,1,20,11.0,110.0
7363,60.0,2,30,12.0,110.0
7364,48.0,2,30,13.0,108.0
7365,36.0,3,30,14.0,106.0
7366,78.0,19,20,10.0,110.0
7367,90.0,0,50,0.0,98.0
7368,78.0,1,50,0.0,98.0
7369,78.0,1,50,1.0,98.0
7370,78.0,0,50,2.0,98.0
7371,78.0,3,20,11.0,110.0
7372,48.0,1,50,3.0,100.0
7373,79.0,27,60,10.0,110.0
7374,91.0,0,60,0.0,98.0
7375,79.0,1,60,0.0,98.0
7376,79.0,1,60,1.0,98.0
7377,79.0,1,60,2.0,98.0
7378,79.0,0,60,11.0,110.0
7379,59.0,2,60,12.0,110.0
7380,47.0,2,60,13.0,108.0
7381,47.0,1,60,3.0,100.0
7382,35.0,3,60,14.0,106.0
7383,76.0,109,60,10.0,110.0
7384,88.0,1,60,0.0,88.0
7385,76.0,0,60,1.0,88.0
7386,67.0,0,60,1.0,88.0
7387,67.0,1,60,2.0,88.0
7388,76.0,0,60,2.0,88.0
7389,67.0,0,60,11.0,110.0
7390,67.0,1,60,12.0,110.0
7391,48.0,2,60,13.0,108.0
7392,48.0,1,60,3.0,100.0
7393,36.0,3,60,14.0,106.0
7394,67.0,1,120,6.0,104.0
7395,67.0,0,120,4.0,102.0
7396,55.0,1,120,5.0,102.0
7397,74.0,109,60,10.0,110.0
7398,86.0,1,60,0.0,88.0
7399,71.0,1,60,1.0,88.0
7400,74.0,0,60,1.0,88.0
7401,74.0,1,60,2.0,88.0
7402,71.0,0,60,2.0,88.0
7403,71.0,0,60,11.0,110.0
7404,67.0,1,60,12.0,110.0
7405,50.0,2,60,13.0,108.0
7406,50.0,1,60,3.0,100.0
7407,38.0,3,60,14.0,106.0
7408,62.0,0,120,4.0,102.0
7409,74.0,0,0,6.0,104.0
7410,62.0,1,0,5.0,102.0
7411,66.0,109,60,10.0,110.0
7412,78.0,1,60,0.0,88.0
7413,72.0,0,60,1.0,88.0
7414,78.0,1,60,1.0,88.0
7415,72.0,0,60,2.0,88.0
7416,66.0,0,60,2.0,88.0
7417,57.0,0,60,11.0,110.0
7418,66.0,1,60,11.0,110.0
7419,60.0,1,60,12.0,110.0
7420,50.0,2,60,13.0,108.0
7421,50.0,1,60,3.0,100.0
7422,38.0,3,60,14.0,106.0
7423,62.0,0,0,4.0,47.0
7424,67.0,109,110,10.0,110.0
7425,67.0,0,110,11.0,110.0
7426,59.0,1,110,11.0,110.0
7427,59.0,1,110,12.0,110.0
7428,79.0,1,120,0.0,70.0
7429,67.0,0,120,6.0,49.0
7430,71.0,1,120,1.0,70.0
7431,79.0,0,120,1.0,70.0
7432,71.0,0,120,2.0,70.0
7433,67.0,0,120,2.0,70.0
7434,55.0,1,120,5.0,47.0
7435,62.0,109,86,10.0,100.0
7436,58.0,3,86,11.0,100.0
7437,55.0,2,86,12.0,100.0
7438,55.0,2,300,13.0,108.0
7439,55.0,1,300,3.0,100.0
7440,43.0,3,300,14.0,106.0
7441,62.0,115,86,10.0,100.0
7442,58.0,3,86,11.0,100.0
7443,55.0,2,86,12.0,100.0
7444,53.0,62,60,13.0,108.0
7445,53.0,1,60,3.0,100.0
7446,41.0,3,60,14.0,106.0
7447,51.0,2,60,13.0,108.0
7448,51.0,1,60,3.0,100.0
7449,39.0,3,60,14.0,106.0
7450,62.0,49,86,10.0,100.0
7451,58.0,3,86,11.0,100.0
7452,55.0,2,86,12.0,100.0
7453,50.0,56,50,13.0,108.0
7454,50.0,1,50,3.0,100.0
7455,38.0,3,50,14.0,106.0
7456,63.0,49,86,10.0,100.0
7457,60.0,3,86,11.0,100.0
7458,55.0,2,86,12.0,100.0
7459,48.0,1,120,3.0,100.0
7460,63.0,109,86,10.0,100.0
7461,60.0,3,86,11.0,100.0
7462,55.0,2,86,12.0,100.0
7463,48.0,2,290,13.0,108.0
7464,36.0,3,290,14.0,106.0
7465,63.0,115,86,10.0,100.0
7466,60.0,3,86,11.0,100.0
7467,55.0,2,86,12.0,100.0
7468,46.0,62,60,13.0,108.0
7469,34.0,4,60,14.0,106.0
7470,45.0,2,60,13.0,108.0
7471,33.0,4,60,14.0,106.0
7472,63.0,49,86,10.0,100.0
7473,60.0,3,86,11.0,100.0
7474,55.0,2,86,12.0,100.0
7475,43.0,56,50,13.0,108.0
7476,31.0,4,50,14.0,106.0
7477,63.0,49,86,10.0,100.0
7478,60.0,1,86,11.0,100.0
7479,57.0,2,86,12.0,100.0
7480,63.0,109,86,10.0,100.0
7481,60.0,3,86,11.0,100.0
7482,53.0,2,86,12.0,100.0
7483,41.0,2,290,13.0,108.0
7484,29.0,4,290,14.0,106.0
7485,63.0,115,86,10.0,100.0
7486,60.0,3,86,11.0,100.0
7487,53.0,2,86,12.0,100.0
7488,43.0,62,60,13.0,108.0
7489,31.0,4,60,14.0,106.0
7490,44.0,2,60,13.0,108.0
7491,32.0,4,60,14.0,106.0
7492,63.0,49,86,10.0,100.0
7493,60.0,3,86,11.0,100.0
7494,53.0,2,86,12.0,100.0
7495,45.0,56,50,13.0,108.0
7496,33.0,4,50,14.0,106.0
7497,62.0,49,86,10.0,100.0
7498,58.0,3,86,11.0,100.0
7499,53.0,2,86,12.0,100.0
7500,62.0,109,86,10.0,100.0
7501,58.0,3,86,11.0,100.0
7502,53.0,2,86,12.0,100.0
7503,46.0,2,290,13.0,108.0
7504,34.0,4,290,14.0,106.0
7505,62.0,115,86,10.0,100.0
7506,58.0,3,86,11.0,100.0
7507,53.0,2,86,12.0,100.0
7508,77.0,2,840,1.0,113.0
7509,48.0,62,60,13.0,108.0
7510,36.0,4,60,14.0,106.0
7511,75.0,2,60,1.0,113.0
7512,49.0,2,60,13.0,108.0
7513,37.0,4,60,14.0,106.0
7514,62.0,49,86,10.0,100.0
7515,58.0,1,86,11.0,100.0
7516,53.0,2,86,12.0,100.0
7517,74.0,51,50,1.0,113.0
7518,50.0,5,50,13.0,108.0
7519,38.0,4,50,14.0,106.0
7520,74.0,2,45,1.0,113.0
7521,51.0,2,60,13.0,108.0
7522,39.0,4,60,14.0,106.0
7523,60.0,49,86,10.0,100.0
7524,58.0,1,86,11.0,100.0
7525,55.0,2,86,12.0,100.0
7526,72.0,36,45,1.0,113.0
7527,50.0,20,50,13.0,108.0
7528,38.0,4,50,14.0,106.0
7529,51.0,2,30,13.0,108.0
7530,39.0,4,30,14.0,106.0
7531,60.0,49,86,10.0,100.0
7532,58.0,1,86,11.0,100.0
7533,55.0,2,86,12.0,100.0
7534,72.0,2,90,1.0,113.0
7535,52.0,56,30,13.0,108.0
7536,40.0,4,30,14.0,106.0
7537,53.0,2,60,13.0,108.0
7538,41.0,4,60,14.0,106.0
7539,60.0,49,86,10.0,100.0
7540,57.0,1,86,11.0,100.0
7541,53.0,2,86,12.0,100.0
7542,72.0,2,90,1.0,113.0
7543,52.0,56,50,13.0,108.0
7544,40.0,4,50,14.0,106.0
7545,53.0,2,30,13.0,108.0
7546,41.0,4,30,14.0,106.0
7547,60.0,49,86,10.0,100.0
7548,57.0,1,86,11.0,100.0
7549,57.0,2,86,12.0,100.0
7550,72.0,2,90,1.0,113.0
7551,53.0,56,30,13.0,108.0
7552,41.0,4,30,14.0,106.0
7553,60.0,49,86,10.0,100.0
7554,57.0,1,86,11.0,100.0
7555,57.0,2,86,12.0,100.0
7556,72.0,109,86,10.0,100.0
7557,69.0,3,86,11.0,100.0
7558,62.0,2,86,12.0,100.0
7559,54.0,2,290,13.0,108.0
7560,42.0,3,290,14.0,106.0
7561,72.0,115,86,10.0,100.0
7562,69.0,3,86,11.0,100.0
7563,62.0,2,86,12.0,100.0
7564,50.0,62,60,13.0,108.0
7565,38.0,4,60,14.0,106.0
7566,52.0,2,60,13.0,108.0
7567,40.0,4,60,14.0,106.0
7568,72.0,49,86,10.0,101.0
7569,69.0,3,86,11.0,101.0
7570,62.0,2,86,12.0,101.0
7571,54.0,56,50,13.0,108.0
7572,42.0,4,50,14.0,106.0
7573,70.0,49,86,10.0,102.0
7574,67.0,3,86,11.0,102.0
7575,62.0,2,86,12.0,102.0
7576,70.0,109,86,10.0,103.0
7577,67.0,3,86,11.0,103.0
7578,62.0,2,86,12.0,103.0
7579,55.0,2,290,13.0,108.0
7580,43.0,4,290,14.0,106.0
7581,70.0,115,86,10.0,104.0
7582,67.0,3,86,11.0,104.0
7583,62.0,2,86,12.0,104.0
7584,74.0,2,840,1.0,98.0
7585,55.0,62,60,13.0,108.0
7586,62.0,1,840,3.0,100.0
7587,43.0,4,60,14.0,106.0
7588,72.0,2,60,1.0,98.0
7589,57.0,2,60,13.0,108.0
7590,60.0,1,60,3.0,100.0
7591,45.0,3,60,14.0,106.0
7592,70.0,49,86,10.0,105.0
7593,62.0,1,86,11.0,105.0
7594,67.0,2,86,12.0,105.0
7595,70.0,51,50,1.0,98.0
7596,58.0,5,50,13.0,108.0
7597,58.0,1,50,3.0,100.0
7598,46.0,3,50,14.0,106.0
7599,70.0,2,45,1.0,98.0
7600,58.0,1,45,3.0,100.0
7601,60.0,2,60,13.0,108.0
7602,48.0,3,60,14.0,106.0
7603,69.0,49,86,10.0,106.0
7604,63.0,1,86,11.0,106.0
7605,67.0,2,86,12.0,106.0
7606,69.0,36,45,1.0,98.0
7607,57.0,6,45,3.0,100.0
7608,59.0,14,50,13.0,108.0
7609,47.0,4,50,14.0,106.0
7610,60.0,2,30,13.0,108.0
7611,48.0,3,30,14.0,106.0
7612,69.0,49,86,10.0,107.0
7613,63.0,1,86,11.0,107.0
7614,67.0,2,86,12.0,107.0
7615,69.0,2,90,1.0,98.0
7616,60.0,56,30,13.0,108.0
7617,57.0,1,90,3.0,100.0
7618,48.0,4,30,14.0,106.0
7619,61.0,2,60,13.0,108.0
7620,49.0,3,60,14.0,106.0
7621,69.0,49,86,10.0,108.0
7622,64.0,1,86,11.0,108.0
7623,67.0,2,86,12.0,108.0
7624,69.0,2,90,1.0,98.0
7625,57.0,1,90,3.0,100.0
7626,60.0,56,50,13.0,108.0
7627,48.0,4,50,14.0,106.0
7628,61.0,2,30,13.0,108.0
7629,49.0,3,30,14.0,106.0
7630,69.0,49,86,10.0,109.0
7631,64.0,1,86,11.0,109.0
7632,67.0,2,86,12.0,109.0
7633,69.0,2,90,1.0,98.0
7634,61.0,56,30,13.0,108.0
7635,57.0,1,90,3.0,100.0
7636,49.0,4,30,14.0,106.0
7637,69.0,49,86,10.0,110.0
7638,66.0,0,86,11.0,110.0
7639,66.0,2,86,12.0,110.0
7640,78.0,109,86,10.0,110.0
7641,72.0,3,86,11.0,110.0
7642,69.0,2,86,12.0,110.0
7643,62.0,2,290,13.0,108.0
7644,50.0,3,290,14.0,106.0
7645,78.0,115,86,10.0,110.0
7646,72.0,3,86,11.0,110.0
7647,69.0,2,86,12.0,110.0
7648,61.0,62,60,13.0,108.0
7649,49.0,4,60,14.0,106.0
7650,62.0,2,60,13.0,108.0
7651,50.0,4,60,14.0,106.0
7652,78.0,49,86,10.0,110.0
7653,72.0,3,86,11.0,110.0
7654,69.0,2,86,12.0,110.0
7655,63.0,56,50,13.0,108.0
7656,84.0,1,480,0.0,98.0
7657,78.0,0,480,0.0,98.0
7658,51.0,4,50,14.0,106.0
7659,78.0,0,480,1.0,98.0
7660,72.0,1,480,1.0,98.0
7661,72.0,1,480,2.0,98.0
7662,69.0,0,480,2.0,98.0
7663,60.0,1,480,3.0,100.0
7664,66.0,0,480,3.0,100.0
7665,79.0,49,86,10.0,110.0
7666,71.0,1,86,11.0,110.0
7667,67.0,2,86,12.0,110.0
7668,79.0,109,86,10.0,110.0
7669,71.0,3,86,11.0,110.0
7670,67.0,2,86,12.0,110.0
7671,64.0,2,300,13.0,108.0
7672,52.0,3,300,14.0,106.0
7673,79.0,115,86,10.0,110.0
7674,71.0,3,86,11.0,110.0
7675,67.0,2,86,12.0,110.0
7676,62.0,62,60,13.0,108.0
7677,50.0,4,60,14.0,106.0
7678,60.0,2,60,13.0,108.0
7679,48.0,4,60,14.0,106.0
7680,79.0,49,86,10.0,110.0
7681,71.0,3,86,11.0,110.0
7682,67.0,2,86,12.0,110.0
7683,59.0,56,50,13.0,108.0
7684,83.0,1,480,0.0,98.0
7685,47.0,4,50,14.0,106.0
7686,71.0,0,480,1.0,98.0
7687,71.0,0,480,2.0,98.0
7688,67.0,0,0,3.0,100.0
7689,59.0,1,480,3.0,100.0
7690,60.0,2,60,13.0,108.0
7691,48.0,3,60,14.0,106.0
7692,79.0,49,86,10.0,110.0
7693,69.0,0,86,11.0,110.0
7694,64.0,2,86,12.0,110.0
7695,59.0,56,60,13.0,108.0
7696,47.0,4,60,14.0,106.0
7697,60.0,2,60,13.0,108.0
7698,48.0,4,60,14.0,106.0
7699,79.0,49,86,10.0,110.0
7700,76.0,3,86,11.0,110.0
7701,69.0,2,86,12.0,110.0
7702,61.0,56,50,13.0,108.0
7703,49.0,4,50,14.0,106.0
7704,79.0,0,720,0.0,98.0
7705,79.0,1,720,1.0,98.0
7706,67.0,0,720,2.0,98.0
7707,76.0,1,240,2.0,98.0
7708,64.0,1,240,3.0,100.0
7709,62.0,2,60,13.0,108.0
7710,50.0,3,60,14.0,106.0
7711,78.0,49,86,10.0,110.0
7712,72.0,0,86,11.0,110.0
7713,69.0,2,86,12.0,110.0
7714,60.0,56,60,13.0,108.0
7715,48.0,4,60,14.0,106.0
7716,62.0,2,60,13.0,108.0
7717,50.0,4,60,14.0,106.0
7718,78.0,49,86,10.0,110.0
7719,72.0,3,86,11.0,110.0
7720,69.0,2,86,12.0,110.0
7721,78.0,1,230,0.0,98.0
7722,78.0,1,230,1.0,98.0
7723,72.0,0,230,2.0,98.0
7724,66.0,1,230,2.0,98.0
7725,50.0,56,50,13.0,108.0
7726,66.0,0,230,3.0,100.0
7727,60.0,1,230,3.0,100.0
7728,81.0,1,480,0.0,98.0
7729,38.0,4,50,14.0,106.0
7730,69.0,1,480,1.0,98.0
7731,55.0,2,110,12.0,110.0
7732,55.0,2,110,13.0,108.0
7733,43.0,3,110,14.0,106.0
7734,71.0,0,120,2.0,98.0
7735,67.0,1,120,2.0,98.0
7736,50.0,114,90,12.0,110.0
7737,50.0,2,90,13.0,108.0
7738,38.0,4,90,14.0,106.0
7739,54.0,84,20,12.0,110.0
7740,54.0,2,20,13.0,108.0
7741,42.0,4,20,14.0,106.0
7742,79.0,49,350,10.0,110.0
7743,79.0,1,350,0.0,98.0
7744,79.0,0,350,1.0,98.0
7745,67.0,1,350,1.0,98.0
7746,67.0,0,350,11.0,110.0
7747,67.0,1,350,3.0,100.0
7748,55.0,0,350,3.0,100.0
7749,43.0,3,120,15.0,79.0
7750,74.0,109,90,10.0,110.0
7751,74.0,1,90,0.0,98.0
7752,62.0,1,90,1.0,98.0
7753,74.0,0,90,1.0,98.0
7754,62.0,1,90,11.0,110.0
7755,50.0,5,90,3.0,100.0
7756,62.0,0,90,3.0,100.0
7757,78.0,82,20,10.0,110.0
7758,78.0,1,20,0.0,98.0
7759,66.0,1,20,1.0,98.0
7760,78.0,0,20,1.0,98.0
7761,66.0,1,20,11.0,110.0
7762,66.0,5,20,3.0,100.0
7763,54.0,0,20,3.0,100.0
7764,55.0,1,350,12.0,110.0
7765,55.0,2,350,13.0,108.0
7766,43.0,1,350,14.0,106.0
7767,67.0,21,360,4.0,102.0
7768,67.0,0,360,6.0,104.0
7769,55.0,0,360,6.0,104.0
7770,55.0,2,360,5.0,102.0
7771,50.0,117,90,12.0,110.0
7772,50.0,2,90,13.0,108.0
7773,38.0,4,90,14.0,106.0
7774,54.0,84,20,12.0,110.0
7775,54.0,2,20,13.0,108.0
7776,42.0,4,20,14.0,106.0
7777,79.0,22,350,10.0,110.0
7778,79.0,1,350,0.0,98.0
7779,67.0,1,350,1.0,98.0
7780,79.0,0,350,1.0,98.0
7781,67.0,1,350,11.0,110.0
7782,55.0,0,350,3.0,100.0
7783,67.0,5,350,3.0,100.0
7784,43.0,3,120,15.0,79.0
7785,74.0,109,90,10.0,110.0
7786,74.0,1,90,0.0,98.0
7787,74.0,1,90,1.0,98.0
7788,62.0,0,90,1.0,98.0
7789,62.0,1,90,11.0,110.0
7790,62.0,5,90,3.0,100.0
7791,50.0,0,90,3.0,100.0
7792,78.0,82,20,10.0,110.0
7793,78.0,1,20,0.0,98.0
7794,78.0,1,20,1.0,98.0
7795,66.0,0,20,1.0,98.0
7796,66.0,1,20,11.0,110.0
7797,66.0,0,20,3.0,100.0
7798,54.0,5,20,3.0,100.0
7799,79.0,22,30,10.0,110.0
7800,67.0,1,30,11.0,110.0
7801,79.0,1,60,0.0,98.0
7802,79.0,0,60,1.0,98.0
7803,67.0,1,60,1.0,98.0
7804,79.0,50,60,10.0,110.0
7805,67.0,0,360,6.0,104.0
7806,55.0,21,360,6.0,104.0
7807,67.0,0,360,4.0,102.0
7808,67.0,3,60,11.0,110.0
7809,55.0,2,360,5.0,102.0
7810,55.0,1,360,12.0,110.0
7811,55.0,2,360,13.0,108.0
7812,67.0,0,120,3.0,100.0
7813,55.0,5,120,3.0,100.0
7814,43.0,2,120,15.0,79.0
7815,43.0,1,360,14.0,106.0
7816,78.0,57,60,10.0,110.0
7817,66.0,3,60,11.0,110.0
7818,79.0,57,50,10.0,110.0
7819,67.0,3,50,11.0,110.0
7820,81.0,57,30,10.0,110.0
7821,69.0,0,30,11.0,110.0
7822,81.0,1,60,0.0,98.0
7823,78.0,1,60,1.0,98.0
7824,69.0,0,60,1.0,98.0
7825,81.0,49,60,10.0,110.0
7826,66.0,0,120,2.0,98.0
7827,69.0,3,60,11.0,110.0
7828,69.0,1,120,2.0,98.0
7829,66.0,2,120,12.0,110.0
7830,50.0,2,120,13.0,108.0
7831,50.0,1,120,3.0,100.0
7832,38.0,3,120,14.0,106.0
7833,79.0,57,60,10.0,110.0
7834,67.0,3,60,11.0,110.0
7835,81.0,57,50,10.0,110.0
7836,69.0,3,50,11.0,110.0
7837,83.0,57,30,10.0,110.0
7838,71.0,1,30,11.0,110.0
7839,83.0,1,60,0.0,98.0
7840,71.0,0,60,1.0,98.0
7841,79.0,1,60,1.0,98.0
7842,83.0,49,60,10.0,110.0
7843,71.0,3,60,11.0,110.0
7844,67.0,0,120,2.0,98.0
7845,71.0,0,120,2.0,98.0
7846,67.0,2,120,12.0,110.0
7847,55.0,2,120,13.0,108.0
7848,55.0,1,120,3.0,100.0
7849,43.0,3,120,14.0,106.0
7850,81.0,57,60,10.0,110.0
7851,69.0,3,60,11.0,110.0
7852,83.0,57,50,10.0,110.0
7853,71.0,3,50,11.0,110.0
7854,84.0,57,30,10.0,110.0
7855,72.0,0,30,11.0,110.0
7856,84.0,1,60,0.0,98.0
7857,78.0,1,60,1.0,98.0
7858,72.0,0,60,1.0,98.0
7859,84.0,49,60,10.0,110.0
7860,72.0,3,60,11.0,110.0
7861,66.0,0,120,2.0,98.0
7862,72.0,1,120,2.0,98.0
7863,74.0,0,120,12.0,110.0
7864,62.0,2,120,12.0,110.0
7865,57.0,2,120,13.0,108.0
7866,57.0,1,120,3.0,100.0
7867,45.0,3,120,14.0,106.0
7868,83.0,57,60,10.0,110.0
7869,71.0,3,60,11.0,110.0
7870,84.0,57,50,10.0,110.0
7871,72.0,3,50,11.0,110.0
7872,86.0,57,20,10.0,110.0
7873,74.0,1,20,11.0,110.0
7874,86.0,19,20,10.0,110.0
7875,74.0,3,20,11.0,110.0
7876,59.0,2,60,12.0,110.0
7877,47.0,2,60,13.0,108.0
7878,35.0,3,60,14.0,106.0
7879,86.0,27,20,10.0,110.0
7880,74.0,3,20,11.0,110.0
7881,86.0,27,20,10.0,110.0
7882,74.0,3,20,11.0,110.0
7883,67.0,0,120,2.0,98.0
7884,71.0,0,120,2.0,98.0
7885,86.0,27,20,10.0,110.0
7886,74.0,3,20,11.0,110.0
7887,86.0,19,20,10.0,110.0
7888,74.0,3,20,11.0,110.0
7889,62.0,2,60,12.0,110.0
7890,50.0,2,60,13.0,108.0
7891,38.0,4,60,14.0,106.0
7892,86.0,27,20,10.0,110.0
7893,74.0,3,20,11.0,110.0
7894,86.0,27,20,10.0,110.0
7895,74.0,3,20,11.0,110.0
7896,86.0,27,20,10.0,110.0
7897,74.0,3,20,11.0,110.0
7898,86.0,19,20,10.0,110.0
7899,74.0,3,20,11.0,110.0
7900,67.0,2,60,12.0,110.0
7901,55.0,2,60,13.0,108.0
7902,43.0,4,60,14.0,106.0
7903,86.0,27,20,10.0,110.0
7904,74.0,3,20,11.0,110.0
7905,86.0,27,20,10.0,110.0
7906,74.0,3,20,11.0,110.0
7907,86.0,27,20,10.0,110.0
7908,74.0,3,20,11.0,110.0
7909,86.0,19,20,10.0,110.0
7910,74.0,3,20,11.0,110.0
7911,71.0,2,60,12.0,110.0
7912,59.0,2,60,13.0,108.0
7913,47.0,4,60,14.0,106.0
7914,86.0,27,20,10.0,110.0
7915,74.0,3,20,11.0,110.0
7916,86.0,27,20,10.0,110.0
7917,86.0,1,470,0.0,88.0
7918,74.0,1,470,1.0,88.0
7919,79.0,0,470,1.0,88.0
7920,74.0,3,20,11.0,110.0
7921,59.0,1,470,3.0,100.0
7922,62.0,0,470,3.0,100.0
7923,87.0,27,20,10.0,110.0
7924,75.0,1,20,11.0,110.0
7925,87.0,19,20,10.0,110.0
7926,75.0,3,20,11.0,110.0
7927,57.0,2,60,12.0,110.0
7928,45.0,2,60,13.0,108.0
7929,33.0,3,60,14.0,106.0
7930,87.0,27,20,10.0,110.0
7931,75.0,3,20,11.0,110.0
7932,87.0,27,20,10.0,110.0
7933,75.0,3,20,11.0,110.0
7934,87.0,27,20,10.0,110.0
7935,75.0,3,20,11.0,110.0
7936,87.0,19,20,10.0,110.0
7937,75.0,3,20,11.0,110.0
7938,60.0,2,60,12.0,110.0
7939,48.0,2,60,13.0,108.0
7940,36.0,4,60,14.0,106.0
7941,87.0,27,20,10.0,110.0
7942,75.0,3,20,11.0,110.0
7943,87.0,27,20,10.0,110.0
7944,75.0,3,20,11.0,110.0
7945,87.0,27,20,10.0,110.0
7946,75.0,3,20,11.0,110.0
7947,87.0,19,20,10.0,110.0
7948,75.0,3,20,11.0,110.0
7949,66.0,2,60,12.0,110.0
7950,54.0,2,60,13.0,108.0
7951,42.0,4,60,14.0,106.0
7952,87.0,27,20,10.0,110.0
7953,75.0,3,20,11.0,110.0
7954,87.0,27,20,10.0,110.0
7955,75.0,3,20,11.0,110.0
7956,87.0,27,20,10.0,110.0
7957,75.0,3,20,11.0,110.0
7958,87.0,19,20,10.0,110.0
7959,75.0,3,20,11.0,110.0
7960,69.0,2,60,12.0,110.0
7961,57.0,2,60,13.0,108.0
7962,45.0,4,60,14.0,106.0
7963,87.0,27,20,10.0,110.0
7964,75.0,3,20,11.0,110.0
7965,87.0,27,20,10.0,110.0
7966,87.0,0,470,0.0,88.0
7967,78.0,1,470,0.0,88.0
7968,78.0,0,470,1.0,88.0
7969,75.0,1,470,1.0,88.0
7970,75.0,3,20,11.0,110.0
7971,57.0,0,470,3.0,100.0
7972,60.0,1,470,3.0,100.0
7973,88.0,27,20,10.0,110.0
7974,76.0,1,20,11.0,110.0
7975,88.0,19,20,10.0,110.0
7976,76.0,3,20,11.0,110.0
7977,56.0,2,60,12.0,110.0
7978,44.0,2,60,13.0,108.0
7979,32.0,3,60,14.0,106.0
7980,88.0,27,20,10.0,110.0
7981,76.0,3,20,11.0,110.0
7982,88.0,27,20,10.0,110.0
7983,76.0,3,20,11.0,110.0
7984,88.0,27,20,10.0,110.0
7985,76.0,3,20,11.0,110.0
7986,88.0,19,20,10.0,110.0
7987,76.0,3,20,11.0,110.0
7988,59.0,2,60,12.0,110.0
7989,47.0,2,60,13.0,108.0
7990,35.0,4,60,14.0,106.0
7991,88.0,27,20,10.0,110.0
7992,76.0,3,20,11.0,110.0
7993,88.0,27,20,10.0,110.0
7994,76.0,3,20,11.0,110.0
7995,88.0,27,20,10.0,110.0
7996,76.0,3,20,11.0,110.0
7997,88.0,19,20,10.0,110.0
7998,76.0,3,20,11.0,110.0
7999,64.0,2,60,12.0,110.0
8000,52.0,2,60,13.0,108.0
8001,40.0,4,60,14.0,106.0
8002,88.0,27,20,10.0,110.0
8003,76.0,3,20,11.0,110.0
8004,88.0,27,20,10.0,110.0
8005,76.0,3,20,11.0,110.0
8006,88.0,27,20,10.0,110.0
8007,76.0,3,20,11.0,110.0
8008,88.0,19,20,10.0,110.0
8009,76.0,3,20,11.0,110.0
8010,68.0,2,60,12.0,110.0
8011,56.0,2,60,13.0,108.0
8012,44.0,4,60,14.0,106.0
8013,88.0,27,20,10.0,110.0
8014,76.0,3,20,11.0,110.0
8015,88.0,27,20,10.0,110.0
8016,88.0,1,470,0.0,88.0
8017,83.0,0,470,0.0,88.0
8018,76.0,0,470,1.0,88.0
8019,71.0,1,470,1.0,88.0
8020,76.0,3,20,11.0,110.0
8021,59.0,0,470,3.0,100.0
8022,56.0,1,470,3.0,100.0
8023,89.0,27,20,10.0,110.0
8024,77.0,1,20,11.0,110.0
8025,89.0,19,20,10.0,110.0
8026,77.0,3,20,11.0,110.0
8027,62.0,2,60,12.0,110.0
8028,50.0,2,60,13.0,108.0
8029,38.0,3,60,14.0,106.0
8030,89.0,27,20,10.0,110.0
8031,77.0,3,20,11.0,110.0
8032,89.0,27,20,10.0,110.0
8033,77.0,3,20,11.0,110.0
8034,89.0,0,120,0.0,88.0
8035,77.0,1,120,0.0,88.0
8036,77.0,1,120,1.0,88.0
8037,65.0,1,120,3.0,100.0
8038,86.0,27,20,10.0,110.0
8039,74.0,1,20,11.0,110.0
8040,86.0,19,20,10.0,110.0
8041,74.0,3,20,11.0,110.0
8042,74.0,2,60,12.0,110.0
8043,62.0,2,60,13.0,108.0
8044,50.0,3,60,14.0,106.0
8045,86.0,27,20,10.0,110.0
8046,74.0,3,20,11.0,110.0
8047,86.0,27,20,10.0,110.0
8048,74.0,3,20,11.0,110.0
8049,86.0,1,120,0.0,88.0
8050,74.0,1,120,1.0,88.0
8051,62.0,1,120,3.0,100.0
8052,83.0,27,20,10.0,110.0
8053,71.0,1,20,11.0,110.0
8054,83.0,19,20,10.0,110.0
8055,71.0,3,20,11.0,110.0
8056,74.0,2,60,12.0,110.0
8057,62.0,2,60,13.0,108.0
8058,50.0,3,60,14.0,106.0
8059,83.0,27,20,10.0,110.0
8060,71.0,3,20,11.0,110.0
8061,83.0,27,20,10.0,110.0
8062,71.0,3,20,11.0,110.0
8063,83.0,1,120,0.0,88.0
8064,71.0,1,120,1.0,88.0
8065,59.0,1,120,3.0,100.0
8066,80.0,27,20,10.0,110.0
8067,68.0,1,20,11.0,110.0
8068,80.0,19,20,10.0,110.0
8069,68.0,3,20,11.0,110.0
8070,74.0,2,60,12.0,110.0
8071,62.0,2,60,13.0,108.0
8072,50.0,3,60,14.0,106.0
8073,80.0,27,20,10.0,110.0
8074,68.0,3,20,11.0,110.0
8075,80.0,27,20,10.0,110.0
8076,80.0,1,110,0.0,88.0
8077,68.0,1,110,1.0,88.0
8078,68.0,3,20,11.0,110.0
8079,56.0,1,110,3.0,100.0
8080,50.0,0,480,3.0,100.0
8081,81.0,27,20,10.0,110.0
8082,69.0,1,20,11.0,110.0
8083,81.0,19,20,10.0,110.0
8084,81.0,3,20,11.0,110.0
8085,60.0,2,60,12.0,110.0
8086,48.0,2,60,13.0,108.0
8087,36.0,3,60,14.0,106.0
8088,81.0,27,20,10.0,110.0
8089,81.0,3,20,11.0,110.0
8090,81.0,27,20,10.0,110.0
8091,81.0,3,20,11.0,110.0
8092,48.0,1,110,3.0,100.0
8093,57.0,0,110,3.0,100.0
8094,81.0,27,20,10.0,110.0
8095,81.0,3,20,11.0,110.0
8096,81.0,19,20,10.0,110.0
8097,81.0,3,20,11.0,110.0
8098,72.0,2,60,12.0,110.0
8099,60.0,2,60,13.0,108.0
8100,48.0,3,60,14.0,106.0
8101,81.0,27,20,10.0,110.0
8102,81.0,3,20,11.0,110.0
8103,81.0,27,20,10.0,110.0
8104,81.0,3,20,11.0,110.0
8105,64.0,0,110,3.0,100.0
8106,60.0,1,110,3.0,100.0
8107,81.0,27,20,10.0,110.0
8108,81.0,3,20,11.0,110.0
8109,81.0,19,20,10.0,110.0
8110,81.0,3,20,11.0,110.0
8111,72.0,2,60,12.0,110.0
8112,60.0,2,60,13.0,108.0
8113,48.0,3,60,14.0,106.0
8114,81.0,27,20,10.0,110.0
8115,81.0,3,20,11.0,110.0
8116,81.0,27,20,10.0,110.0
8117,81.0,3,20,11.0,110.0
8118,64.0,1,110,3.0,100.0
8119,60.0,0,110,3.0,100.0
8120,81.0,27,20,10.0,110.0
8121,81.0,3,20,11.0,110.0
8122,81.0,19,20,10.0,110.0
8123,81.0,3,20,11.0,110.0
8124,72.0,2,60,12.0,110.0
8125,60.0,2,60,13.0,108.0
8126,48.0,3,60,14.0,106.0
8127,81.0,27,20,10.0,110.0
8128,81.0,3,20,11.0,110.0
8129,81.0,27,20,10.0,110.0
8130,81.0,3,20,11.0,110.0
8131,64.0,1,110,3.0,100.0
8132,60.0,0,110,3.0,100.0
8133,76.0,0,480,0.0,88.0
8134,81.0,1,480,0.0,88.0
8135,76.0,1,480,1.0,88.0
8136,69.0,0,480,1.0,88.0
8137,82.0,27,20,10.0,110.0
8138,82.0,1,20,11.0,110.0
8139,82.0,19,20,10.0,110.0
8140,82.0,3,20,11.0,110.0
8141,61.0,2,60,12.0,110.0
8142,49.0,2,60,13.0,108.0
8143,37.0,3,60,14.0,106.0
8144,82.0,27,20,10.0,110.0
8145,82.0,3,20,11.0,110.0
8146,82.0,27,20,10.0,110.0
8147,82.0,3,20,11.0,110.0
8148,82.0,1,120,0.0,88.0
8149,82.0,1,120,1.0,88.0
8150,64.0,0,120,3.0,100.0
8151,61.0,1,120,3.0,100.0
8152,79.0,27,20,10.0,110.0
8153,79.0,1,20,11.0,110.0
8154,79.0,19,20,10.0,110.0
8155,79.0,3,20,11.0,110.0
8156,67.0,2,60,12.0,110.0
8157,55.0,2,60,13.0,108.0
8158,43.0,3,60,14.0,106.0
8159,79.0,27,20,10.0,110.0
8160,79.0,3,20,11.0,110.0
8161,79.0,27,20,10.0,110.0
8162,79.0,3,20,11.0,110.0
8163,79.0,1,120,0.0,88.0
8164,79.0,1,120,1.0,88.0
8165,67.0,0,120,3.0,100.0
8166,55.0,1,120,3.0,100.0
8167,76.0,27,20,10.0,110.0
8168,76.0,1,20,11.0,110.0
8169,76.0,19,20,10.0,110.0
8170,76.0,3,20,11.0,110.0
8171,64.0,2,60,12.0,110.0
8172,52.0,2,60,13.0,108.0
8173,40.0,3,60,14.0,106.0
8174,76.0,27,20,10.0,110.0
8175,76.0,3,20,11.0,110.0
8176,76.0,27,20,10.0,110.0
8177,76.0,3,20,11.0,110.0
8178,88.0,0,120,0.0,88.0
8179,76.0,1,120,0.0,88.0
8180,76.0,1,120,1.0,88.0
8181,64.0,1,120,3.0,100.0
8182,52.0,0,120,3.0,100.0
8183,73.0,27,20,10.0,110.0
8184,73.0,1,20,11.0,110.0
8185,73.0,19,20,10.0,110.0
8186,73.0,3,20,11.0,110.0
8187,61.0,2,60,12.0,110.0
8188,49.0,2,60,13.0,108.0
8189,37.0,3,60,14.0,106.0
8190,73.0,27,20,10.0,110.0
8191,73.0,3,20,11.0,110.0
8192,73.0,27,20,10.0,110.0
8193,85.0,0,110,0.0,88.0
8194,73.0,1,110,0.0,88.0
8195,73.0,1,110,1.0,88.0
8196,73.0,3,20,11.0,110.0
8197,61.0,0,110,3.0,100.0
8198,49.0,1,110,3.0,100.0
8199,74.0,27,20,10.0,110.0
8200,74.0,1,20,11.0,110.0
8201,74.0,19,20,10.0,110.0
8202,74.0,3,20,11.0,110.0
8203,62.0,2,50,12.0,110.0
8204,50.0,2,50,13.0,108.0
8205,38.0,3,50,14.0,106.0
8206,74.0,27,20,10.0,110.0
8207,74.0,3,20,11.0,110.0
8208,74.0,19,20,10.0,110.0
8209,74.0,3,20,11.0,110.0
8210,62.0,2,50,12.0,110.0
8211,50.0,2,50,13.0,108.0
8212,38.0,4,50,14.0,106.0
8213,74.0,27,20,10.0,110.0
8214,74.0,3,20,11.0,110.0
8215,74.0,19,20,10.0,110.0
8216,74.0,3,20,11.0,110.0
8217,62.0,2,50,12.0,110.0
8218,50.0,2,50,13.0,108.0
8219,38.0,4,50,14.0,106.0
8220,74.0,27,20,10.0,110.0
8221,74.0,3,20,11.0,110.0
8222,74.0,19,20,10.0,110.0
8223,74.0,0,230,0.0,88.0
8224,86.0,1,230,0.0,88.0
8225,74.0,1,230,1.0,88.0
8226,74.0,3,20,11.0,110.0
8227,62.0,0,230,2.0,98.0
8228,74.0,0,230,2.0,98.0
8229,62.0,2,50,12.0,110.0
8230,50.0,2,50,13.0,108.0
8231,62.0,0,230,3.0,100.0
8232,50.0,1,230,3.0,100.0
8233,38.0,4,50,14.0,106.0
8234,76.0,27,20,10.0,110.0
8235,76.0,1,20,11.0,110.0
8236,76.0,19,20,10.0,110.0
8237,76.0,3,20,11.0,110.0
8238,64.0,1,50,12.0,110.0
8239,52.0,2,50,13.0,108.0
8240,40.0,3,50,14.0,106.0
8241,76.0,27,20,10.0,110.0
8242,76.0,3,20,11.0,110.0
8243,76.0,19,20,10.0,110.0
8244,76.0,3,20,11.0,110.0
8245,64.0,2,50,12.0,110.0
8246,52.0,2,50,13.0,108.0
8247,40.0,4,50,14.0,106.0
8248,76.0,27,20,10.0,110.0
8249,76.0,3,20,11.0,110.0
8250,76.0,19,20,10.0,110.0
8251,76.0,3,20,11.0,110.0
8252,64.0,2,50,12.0,110.0
8253,52.0,2,50,13.0,108.0
8254,40.0,4,50,14.0,106.0
8255,76.0,27,20,10.0,110.0
8256,76.0,3,20,11.0,110.0
8257,76.0,19,20,10.0,110.0
8258,76.0,1,230,0.0,88.0
8259,88.0,0,230,0.0,88.0
8260,76.0,0,230,1.0,88.0
8261,76.0,0,230,2.0,98.0
8262,64.0,0,230,2.0,98.0
8263,76.0,3,20,11.0,110.0
8264,64.0,2,50,12.0,110.0
8265,52.0,2,50,13.0,108.0
8266,52.0,0,230,3.0,100.0
8267,64.0,1,230,3.0,100.0
8268,40.0,4,50,14.0,106.0
8269,64.0,1,240,4.0,102.0
8270,76.0,0,240,6.0,104.0
8271,64.0,0,240,6.0,104.0
8272,52.0,1,240,5.0,102.0
8273,72.0,27,20,10.0,110.0
8274,72.0,0,20,11.0,110.0
8275,72.0,19,20,10.0,110.0
8276,72.0,3,20,11.0,110.0
8277,60.0,1,50,12.0,110.0
8278,48.0,2,50,13.0,108.0
8279,36.0,3,50,14.0,106.0
8280,72.0,27,20,10.0,110.0
8281,72.0,3,20,11.0,110.0
8282,72.0,19,20,10.0,110.0
8283,72.0,3,20,11.0,110.0
8284,60.0,2,50,12.0,110.0
8285,48.0,2,50,13.0,108.0
8286,36.0,4,50,14.0,106.0
8287,72.0,27,20,10.0,110.0
8288,72.0,3,20,11.0,110.0
8289,72.0,19,20,10.0,110.0
8290,72.0,3,20,11.0,110.0
8291,60.0,2,50,12.0,110.0
8292,48.0,2,50,13.0,108.0
8293,36.0,4,50,14.0,106.0
8294,72.0,27,20,10.0,110.0
8295,72.0,3,20,11.0,110.0
8296,72.0,19,20,10.0,110.0
8297,72.0,0,230,0.0,88.0
8298,84.0,1,230,0.0,88.0
8299,72.0,0,230,1.0,88.0
8300,60.0,1,230,2.0,98.0
8301,72.0,3,20,11.0,110.0
8302,72.0,0,230,2.0,98.0
8303,60.0,2,50,12.0,110.0
8304,48.0,2,50,13.0,108.0
8305,60.0,0,230,3.0,100.0
8306,48.0,1,230,3.0,100.0
8307,36.0,4,50,14.0,106.0
8308,60.0,0,240,6.0,104.0
8309,72.0,1,240,6.0,104.0
8310,60.0,0,240,4.0,102.0
8311,48.0,1,240,5.0,102.0
8312,74.0,27,20,10.0,110.0
8313,74.0,0,20,11.0,110.0
8314,74.0,19,20,10.0,110.0
8315,74.0,3,20,11.0,110.0
8316,62.0,1,50,12.0,110.0
8317,50.0,2,50,13.0,108.0
8318,38.0,3,50,14.0,106.0
8319,74.0,27,20,10.0,110.0
8320,74.0,3,20,11.0,110.0
8321,74.0,19,20,10.0,110.0
8322,74.0,3,20,11.0,110.0
8323,62.0,2,50,12.0,110.0
8324,50.0,2,50,13.0,108.0
8325,38.0,4,50,14.0,106.0
8326,74.0,27,20,10.0,110.0
8327,74.0,3,20,11.0,110.0
8328,74.0,19,20,10.0,110.0
8329,74.0,3,20,11.0,110.0
8330,62.0,2,50,12.0,110.0
8331,50.0,2,50,13.0,108.0
8332,38.0,4,50,14.0,106.0
8333,74.0,27,20,10.0,110.0
8334,74.0,3,20,11.0,110.0
8335,74.0,19,20,10.0,110.0
8336,74.0,1,230,0.0,88.0
8337,86.0,0,230,0.0,88.0
8338,74.0,0,230,1.0,88.0
8339,62.0,0,230,2.0,98.0
8340,74.0,1,230,2.0,98.0
8341,74.0,3,20,11.0,110.0
8342,62.0,2,50,12.0,110.0
8343,50.0,2,50,13.0,108.0
8344,50.0,1,230,3.0,100.0
8345,62.0,0,230,3.0,100.0
8346,38.0,4,50,14.0,106.0
8347,62.0,1,240,4.0,102.0
8348,74.0,0,240,6.0,104.0
8349,62.0,1,240,5.0,102.0
8350,67.0,1,60,11.0,110.0
8351,67.0,0,110,1.0,88.0
8352,55.0,1,110,3.0,100.0
8353,43.0,0,110,3.0,100.0
8354,67.0,27,120,10.0,100.0
8355,67.0,0,120,0.0,88.0
8356,79.0,1,120,0.0,88.0
8357,67.0,0,120,6.0,104.0
8358,67.0,0,120,2.0,98.0
8359,55.0,0,120,2.0,98.0
8360,55.0,52,60,11.0,110.0
8361,55.0,1,120,12.0,110.0
8362,43.0,2,120,13.0,108.0
8363,43.0,2,120,15.0,79.0
8364,31.0,1,120,14.0,106.0
8365,67.0,1,60,11.0,110.0
8366,55.0,55,50,11.0,110.0
8367,72.0,0,120,1.0,98.0
8368,76.0,59,120,1.0,98.0
8369,60.0,0,120,3.0,100.0
8370,64.0,5,120,3.0,100.0
8371,67.0,1,60,11.0,110.0
8372,71.0,0,120,1.0,98.0
8373,74.0,59,120,1.0,98.0
8374,55.0,55,60,11.0,110.0
8375,62.0,5,120,3.0,100.0
8376,59.0,0,120,3.0,100.0
8377,67.0,1,60,11.0,110.0
8378,55.0,55,50,11.0,110.0
8379,78.0,57,120,10.0,110.0
8380,69.0,2,120,1.0,98.0
8381,72.0,0,120,1.0,98.0
8382,60.0,0,120,3.0,100.0
8383,57.0,5,120,3.0,100.0
8384,67.0,1,60,11.0,110.0
8385,67.0,0,120,1.0,98.0
8386,71.0,2,120,1.0,98.0
8387,55.0,55,60,11.0,110.0
8388,59.0,0,120,3.0,100.0
8389,55.0,5,120,3.0,100.0
8390,79.0,57,180,10.0,125.0
8391,67.0,1,60,11.0,110.0
8392,78.0,52,30,10.0,110.0
8393,76.0,27,20,10.0,110.0
8394,55.0,3,50,11.0,110.0
8395,72.0,59,120,1.0,98.0
8396,69.0,0,120,1.0,98.0
8397,57.0,0,120,3.0,100.0
8398,60.0,5,120,3.0,100.0
8399,74.0,30,60,10.0,110.0
8400,67.0,1,60,11.0,110.0
8401,74.0,2,110,1.0,98.0
8402,71.0,0,110,1.0,98.0
8403,62.0,5,110,3.0,100.0
8404,59.0,0,110,3.0,100.0
8405,55.0,1,840,4.0,102.0
8406,55.0,55,60,11.0,110.0
8407,43.0,1,840,5.0,102.0
8408,66.0,1,60,11.0,110.0
8409,57.0,52,50,11.0,110.0
8410,72.0,57,120,10.0,110.0
8411,78.0,0,120,0.0,98.0
8412,90.0,1,120,0.0,98.0
8413,78.0,0,120,1.0,98.0
8414,62.0,0,120,4.0,102.0
8415,72.0,1,120,1.0,98.0
8416,66.0,0,120,2.0,98.0
8417,78.0,0,120,2.0,98.0
8418,62.0,1,120,5.0,102.0
8419,62.0,1,120,12.0,110.0
8420,50.0,2,120,13.0,108.0
8421,57.0,0,120,3.0,100.0
8422,60.0,1,120,3.0,100.0
8423,38.0,3,120,14.0,106.0
8424,67.0,0,60,11.0,110.0
8425,71.0,57,120,10.0,110.0
8426,79.0,0,120,0.0,98.0
8427,91.0,1,120,0.0,98.0
8428,79.0,0,120,1.0,98.0
8429,67.0,1,120,1.0,98.0
8430,55.0,52,60,11.0,110.0
8431,79.0,0,120,2.0,98.0
8432,67.0,1,120,2.0,98.0
8433,67.0,1,120,12.0,110.0
8434,55.0,2,120,13.0,108.0
8435,55.0,0,120,3.0,100.0
8436,59.0,1,120,3.0,100.0
8437,43.0,2,120,15.0,52.0
8438,43.0,1,120,14.0,106.0
8439,67.0,1,60,11.0,110.0
8440,55.0,55,50,11.0,110.0
8441,72.0,0,120,1.0,98.0
8442,76.0,59,120,1.0,98.0
8443,60.0,0,120,3.0,100.0
8444,64.0,5,120,3.0,100.0
8445,67.0,1,60,11.0,110.0
8446,71.0,59,120,1.0,98.0
8447,74.0,0,120,1.0,98.0
8448,55.0,55,60,11.0,110.0
8449,62.0,5,120,3.0,100.0
8450,59.0,0,120,3.0,100.0
8451,67.0,1,60,11.0,110.0
8452,55.0,55,50,11.0,110.0
8453,78.0,57,120,10.0,110.0
8454,72.0,0,120,1.0,98.0
8455,69.0,2,120,1.0,98.0
8456,60.0,5,120,3.0,100.0
8457,57.0,0,120,3.0,100.0
8458,67.0,1,60,11.0,110.0
8459,71.0,2,120,1.0,98.0
8460,67.0,0,120,1.0,98.0
8461,55.0,55,60,11.0,110.0
8462,55.0,5,120,3.0,100.0
8463,59.0,0,120,3.0,100.0
8464,79.0,57,180,10.0,125.0
8465,67.0,1,60,11.0,110.0
8466,78.0,52,30,10.0,110.0
8467,76.0,27,20,10.0,110.0
8468,55.0,3,50,11.0,110.0
8469,72.0,59,120,1.0,98.0
8470,69.0,0,120,1.0,98.0
8471,60.0,5,120,3.0,100.0
8472,57.0,0,120,3.0,100.0
8473,74.0,30,60,10.0,110.0
8474,67.0,1,60,11.0,110.0
8475,71.0,0,110,1.0,98.0
8476,74.0,2,110,1.0,98.0
8477,59.0,0,110,3.0,100.0
8478,62.0,5,110,3.0,100.0
8479,55.0,0,840,4.0,102.0
8480,55.0,55,60,11.0,110.0
8481,43.0,1,840,5.0,102.0
8482,66.0,0,60,11.0,110.0
8483,57.0,52,50,11.0,110.0
8484,78.0,57,120,10.0,110.0
8485,90.0,1,120,0.0,98.0
8486,78.0,0,120,0.0,98.0
8487,74.0,0,120,6.0,104.0
8488,72.0,0,120,1.0,98.0
8489,69.0,1,120,1.0,98.0
8490,62.0,0,120,4.0,102.0
8491,66.0,1,120,2.0,98.0
8492,78.0,0,120,2.0,98.0
8493,62.0,1,120,5.0,102.0
8494,62.0,1,120,12.0,110.0
8495,50.0,2,120,13.0,108.0
8496,57.0,1,120,3.0,100.0
8497,60.0,0,120,3.0,100.0
8498,38.0,3,120,14.0,106.0
8499,71.0,0,60,1.0,98.0
8500,67.0,0,60,1.0,98.0
8501,67.0,1,60,11.0,110.0
8502,55.0,0,60,3.0,100.0
8503,59.0,1,60,3.0,100.0
8504,79.0,0,120,0.0,98.0
8505,67.0,1,120,6.0,104.0
8506,55.0,52,60,11.0,110.0
8507,67.0,1,120,12.0,110.0
8508,55.0,2,120,13.0,108.0
8509,43.0,2,120,15.0,52.0
8510,43.0,1,120,14.0,106.0
8511,79.0,57,180,10.0,125.0
8512,91.0,1,180,0.0,98.0
8513,67.0,1,60,11.0,110.0
8514,67.0,0,180,2.0,98.0
8515,79.0,0,180,2.0,98.0
8516,78.0,52,30,10.0,110.0
8517,90.0,1,30,0.0,98.0
8518,66.0,0,30,2.0,98.0
8519,78.0,0,30,2.0,98.0
8520,76.0,27,20,10.0,110.0
8521,88.0,1,20,0.0,98.0
8522,55.0,2,50,11.0,110.0
8523,64.0,0,20,2.0,98.0
8524,76.0,2,20,2.0,98.0
8525,76.0,0,120,1.0,98.0
8526,72.0,59,120,1.0,98.0
8527,60.0,5,120,3.0,100.0
8528,64.0,0,120,3.0,100.0
8529,74.0,27,60,10.0,110.0
8530,86.0,1,60,0.0,98.0
8531,62.0,1,60,2.0,98.0
8532,67.0,0,60,11.0,110.0
8533,74.0,0,60,2.0,98.0
8534,71.0,1,120,1.0,98.0
8535,74.0,0,120,1.0,98.0
8536,55.0,0,360,4.0,102.0
8537,55.0,55,60,11.0,110.0
8538,43.0,1,360,5.0,102.0
8539,62.0,5,120,3.0,100.0
8540,59.0,0,120,3.0,100.0
8541,60.0,1,60,11.0,110.0
8542,62.0,52,50,11.0,110.0
8543,78.0,57,120,10.0,110.0
8544,90.0,0,120,0.0,98.0
8545,84.0,1,120,0.0,98.0
8546,72.0,0,120,1.0,98.0
8547,69.0,1,120,1.0,98.0
8548,62.0,0,120,4.0,102.0
8549,74.0,0,120,6.0,104.0
8550,66.0,0,120,2.0,98.0
8551,78.0,0,120,2.0,98.0
8552,62.0,1,120,5.0,102.0
8553,62.0,1,120,12.0,110.0
8554,50.0,2,120,13.0,108.0
8555,57.0,0,120,3.0,100.0
8556,60.0,1,120,3.0,100.0
8557,38.0,3,120,14.0,106.0
8558,67.0,0,60,1.0,98.0
8559,71.0,0,60,1.0,98.0
8560,59.0,1,60,11.0,110.0
8561,55.0,0,60,3.0,100.0
8562,59.0,1,60,3.0,100.0
8563,83.0,0,120,0.0,98.0
8564,67.0,0,120,6.0,104.0
8565,55.0,52,60,11.0,110.0
8566,67.0,1,120,12.0,110.0
8567,55.0,2,120,13.0,108.0
8568,43.0,2,120,15.0,52.0
8569,43.0,1,120,14.0,106.0
8570,79.0,57,180,10.0,125.0
8571,91.0,1,180,0.0,98.0
8572,67.0,1,60,11.0,110.0
8573,67.0,0,180,2.0,98.0
8574,79.0,0,180,2.0,98.0
8575,78.0,52,30,10.0,110.0
8576,90.0,1,30,0.0,98.0
8577,66.0,2,30,2.0,98.0
8578,78.0,0,30,2.0,98.0
8579,76.0,27,20,10.0,110.0
8580,88.0,1,30,0.0,98.0
8581,76.0,59,120,1.0,98.0
8582,72.0,0,120,1.0,98.0
8583,55.0,0,60,11.0,110.0
8584,64.0,2,30,2.0,98.0
8585,76.0,0,30,2.0,98.0
8586,60.0,5,120,3.0,100.0
8587,64.0,0,120,3.0,100.0
8588,74.0,27,60,10.0,110.0
8589,86.0,1,60,0.0,98.0
8590,67.0,0,60,11.0,110.0
8591,74.0,1,60,2.0,98.0
8592,62.0,0,60,2.0,98.0
8593,55.0,55,50,11.0,110.0
8594,74.0,1,120,1.0,98.0
8595,71.0,0,120,1.0,98.0
8596,55.0,1,360,4.0,102.0
8597,43.0,1,360,5.0,102.0
8598,59.0,5,120,3.0,100.0
8599,62.0,0,120,3.0,100.0
8600,62.0,57,60,10.0,95.0
8601,66.0,1,60,2.0,98.0
8602,72.0,0,60,11.0,110.0
8603,78.0,0,60,2.0,98.0
8604,62.0,0,60,11.0,110.0
8605,62.0,1,60,12.0,110.0
8606,50.0,2,60,13.0,108.0
8607,69.0,0,60,10.0,95.0
8608,78.0,2,60,10.0,95.0
8609,90.0,1,120,0.0,98.0
8610,84.0,0,120,0.0,98.0
8611,74.0,0,120,6.0,104.0
8612,62.0,0,0,4.0,102.0
8613,69.0,0,120,1.0,98.0
8614,72.0,1,120,1.0,98.0
8615,62.0,1,120,5.0,102.0
8616,57.0,1,120,3.0,100.0
8617,60.0,0,120,3.0,100.0
8618,38.0,1,120,14.0,106.0
8619,62.0,109,60,10.0,95.0
8620,55.0,0,60,10.0,95.0
8621,55.0,1,60,11.0,95.0
8622,55.0,0,60,12.0,110.0
8623,67.0,1,60,12.0,110.0
8624,55.0,2,60,13.0,108.0
8625,71.0,0,60,10.0,95.0
8626,79.0,0,60,10.0,95.0
8627,43.0,1,60,14.0,106.0
8628,62.0,0,60,11.0,95.0
8629,71.0,2,60,11.0,95.0
8630,83.0,0,120,0.0,98.0
8631,67.0,0,120,6.0,104.0
8632,71.0,0,120,1.0,98.0
8633,67.0,1,120,1.0,98.0
8634,43.0,2,120,15.0,89.0
8635,55.0,2,0,5.0,102.0
8636,55.0,4,0,3.0,100.0
8637,59.0,0,240,3.0,100.0
8638,91.0,1,480,0.0,98.0
8639,79.0,0,240,1.0,88.0
8640,67.0,0,0,4.0,102.0
8641,67.0,0,480,2.0,98.0
8642,79.0,0,480,2.0,98.0
8643,67.0,0,240,3.0,100.0
8644,89.0,233,240,0.0,88.0
8645,77.0,1,240,1.0,88.0
8646,67.0,1,0,4.0,102.0
8647,65.0,1,240,2.0,88.0
8648,77.0,0,240,2.0,88.0
8649,55.0,1,0,5.0,102.0
8650,53.0,4,240,3.0,100.0
8651,65.0,0,240,3.0,100.0
8652,86.0,233,240,0.0,88.0
8653,74.0,0,240,1.0,88.0
8654,62.0,1,240,2.0,88.0
8655,74.0,0,240,2.0,88.0
8656,55.0,1,0,5.0,102.0
8657,50.0,0,240,3.0,100.0
8658,62.0,4,240,3.0,100.0
8659,55.0,232,120,10.0,86.0
8660,55.0,0,120,11.0,86.0
8661,65.0,0,120,12.0,100.0
8662,55.0,1,120,12.0,100.0
8663,43.0,2,120,13.0,98.0
8664,71.0,2,120,10.0,86.0
8665,62.0,0,120,10.0,86.0
8666,31.0,1,120,14.0,96.0
8667,62.0,2,120,11.0,86.0
8668,71.0,0,120,11.0,86.0
8669,83.0,1,240,0.0,88.0
8670,71.0,1,240,1.0,88.0
8671,71.0,0,240,2.0,88.0
8672,59.0,1,240,2.0,88.0
8673,47.0,1,240,3.0,100.0
8674,59.0,0,240,3.0,100.0
8675,79.0,228,240,0.0,88.0
8676,79.0,0,240,1.0,88.0
8677,67.0,1,240,1.0,88.0
8678,67.0,1,240,2.0,88.0
8679,43.0,0,240,3.0,100.0
8680,55.0,5,240,3.0,100.0
8681,77.0,233,240,0.0,88.0
8682,65.0,0,240,1.0,88.0
8683,77.0,1,240,1.0,88.0
8684,65.0,1,240,2.0,88.0
8685,41.0,5,240,3.0,100.0
8686,53.0,0,240,3.0,100.0
8687,74.0,233,240,0.0,88.0
8688,67.0,0,960,4.0,102.0
8689,62.0,1,240,1.0,88.0
8690,74.0,0,240,1.0,88.0
8691,62.0,1,240,2.0,88.0
8692,50.0,0,240,3.0,100.0
8693,38.0,5,240,3.0,100.0
8694,81.0,0,335,10.0,110.0
8695,69.0,232,335,10.0,110.0
8696,69.0,1,335,11.0,110.0
8697,61.0,0,335,11.0,110.0
8698,64.0,0,335,11.0,110.0
8699,61.0,1,335,12.0,110.0
8700,49.0,2,335,13.0,108.0
8701,37.0,3,335,14.0,106.0
8702,81.0,1,360,0.0,88.0
8703,76.0,0,360,0.0,88.0
8704,64.0,0,360,6.0,104.0
8705,69.0,1,360,1.0,88.0
8706,64.0,0,360,1.0,88.0
8707,64.0,0,360,4.0,102.0
8708,76.0,0,360,6.0,104.0
8709,69.0,0,360,2.0,88.0
8710,64.0,0,360,2.0,88.0
8711,52.0,1,360,5.0,102.0
8712,49.0,1,360,3.0,100.0
8713,76.0,349,90,10.0,110.0
8714,80.0,90,20,10.0,110.0
8715,81.0,30,30,10.0,110.0
8716,81.0,60,30,10.0,110.0
8717,76.0,60,30,10.0,110.0
8718,80.0,60,30,10.0,110.0
8719,81.0,60,30,10.0,110.0
8720,81.0,60,30,10.0,110.0
8721,76.0,60,30,10.0,110.0
8722,80.0,60,30,10.0,110.0
8723,81.0,1,60,0.0,88.0
8724,76.0,1,60,1.0,88.0
8725,73.0,0,60,1.0,88.0
8726,69.0,1,60,11.0,110.0
8727,61.0,2,60,12.0,110.0
8728,64.0,0,60,12.0,110.0
8729,81.0,60,120,10.0,110.0
8730,55.0,2,120,13.0,108.0
8731,55.0,1,120,3.0,100.0
8732,43.0,3,120,14.0,106.0
8733,70.0,1,196,11.0,110.0
8734,61.0,2,196,12.0,110.0
8735,64.0,0,196,12.0,110.0
8736,82.0,110,200,0.0,88.0
8737,73.0,0,200,1.0,88.0
8738,76.0,1,200,1.0,88.0
8739,52.0,122,120,13.0,108.0
8740,52.0,1,120,3.0,100.0
8741,40.0,3,120,14.0,106.0
8742,69.0,1,196,11.0,110.0
8743,64.0,0,196,12.0,110.0
8744,61.0,2,196,12.0,110.0
8745,81.0,110,200,0.0,88.0
8746,73.0,0,200,1.0,88.0
8747,76.0,1,200,1.0,88.0
8748,49.0,122,120,13.0,108.0
8749,49.0,1,120,3.0,100.0
8750,37.0,3,120,14.0,106.0
8751,70.0,1,196,11.0,110.0
8752,61.0,0,196,12.0,110.0
8753,64.0,2,196,12.0,110.0
8754,82.0,110,200,0.0,88.0
8755,73.0,1,200,1.0,88.0
8756,76.0,0,200,1.0,88.0
8757,43.0,122,120,13.0,108.0
8758,43.0,1,120,3.0,100.0
8759,31.0,3,120,14.0,106.0
8760,81.0,110,60,0.0,88.0
8761,73.0,0,60,1.0,88.0
8762,76.0,1,60,1.0,88.0
8763,69.0,1,60,11.0,110.0
8764,61.0,0,60,12.0,110.0
8765,64.0,2,60,12.0,110.0
8766,61.0,0,480,3.0,100.0
8767,86.0,0,335,10.0,110.0
8768,74.0,115,335,10.0,110.0
8769,74.0,0,335,11.0,110.0
8770,62.0,0,335,11.0,110.0
8771,54.0,1,335,12.0,110.0
8772,42.0,2,335,13.0,108.0
8773,30.0,3,335,14.0,106.0
8774,81.0,1,360,0.0,88.0
8775,86.0,0,360,0.0,88.0
8776,69.0,1,360,1.0,88.0
8777,74.0,0,360,1.0,88.0
8778,74.0,0,360,6.0,104.0
8779,62.0,0,360,4.0,102.0
8780,74.0,1,360,2.0,88.0
8781,69.0,0,360,2.0,88.0
8782,62.0,1,360,5.0,102.0
8783,62.0,0,360,3.0,100.0
8784,54.0,1,360,3.0,100.0
8785,81.0,349,90,10.0,110.0
8786,85.0,90,20,10.0,110.0
8787,86.0,30,30,10.0,110.0
8788,86.0,60,30,10.0,110.0
8789,81.0,60,30,10.0,110.0
8790,85.0,60,30,10.0,110.0
8791,86.0,60,30,10.0,110.0
8792,86.0,60,30,10.0,110.0
8793,81.0,60,30,10.0,110.0
8794,85.0,60,30,10.0,110.0
8795,86.0,1,60,0.0,88.0
8796,78.0,1,60,1.0,88.0
8797,81.0,0,60,1.0,88.0
8798,74.0,1,60,11.0,110.0
8799,66.0,2,60,12.0,110.0
8800,69.0,0,60,12.0,110.0
8801,86.0,60,120,10.0,110.0
8802,60.0,2,120,13.0,108.0
8803,60.0,1,120,3.0,100.0
8804,48.0,3,120,14.0,106.0
8805,75.0,1,196,11.0,110.0
8806,87.0,110,200,0.0,88.0
8807,69.0,2,196,12.0,110.0
8808,66.0,0,196,12.0,110.0
8809,78.0,0,200,1.0,88.0
8810,81.0,1,200,1.0,88.0
8811,57.0,122,120,13.0,108.0
8812,57.0,1,120,3.0,100.0
8813,45.0,3,120,14.0,106.0
8814,74.0,1,196,11.0,110.0
8815,66.0,2,196,12.0,110.0
8816,69.0,0,196,12.0,110.0
8817,86.0,110,200,0.0,88.0
8818,81.0,0,200,1.0,88.0
8819,78.0,1,200,1.0,88.0
8820,54.0,122,120,13.0,108.0
8821,54.0,0,120,3.0,100.0
8822,42.0,3,120,14.0,106.0
8823,75.0,1,196,11.0,110.0
8824,66.0,0,196,12.0,110.0
8825,87.0,110,200,0.0,88.0
8826,69.0,2,196,12.0,110.0
8827,81.0,0,200,1.0,88.0
8828,78.0,1,200,1.0,88.0
8829,48.0,122,120,13.0,108.0
8830,48.0,1,120,3.0,100.0
8831,36.0,3,120,14.0,106.0
8832,86.0,110,60,0.0,88.0
8833,81.0,0,60,1.0,88.0
8834,78.0,1,60,1.0,88.0
8835,74.0,1,60,11.0,110.0
8836,66.0,2,60,12.0,110.0
8837,69.0,0,60,12.0,110.0
8838,66.0,1,480,3.0,100.0
8839,79.0,115,335,10.0,110.0
8840,62.0,1,335,11.0,110.0
8841,74.0,0,335,11.0,110.0
8842,59.0,1,335,12.0,110.0
8843,47.0,2,335,13.0,108.0
8844,35.0,3,335,14.0,106.0
8845,91.0,1,360,0.0,88.0
8846,86.0,0,360,0.0,88.0
8847,79.0,0,360,1.0,88.0
8848,74.0,0,360,6.0,104.0
8849,62.0,1,360,4.0,102.0
8850,67.0,0,360,6.0,104.0
8851,74.0,0,360,1.0,88.0
8852,67.0,0,360,2.0,88.0
8853,74.0,0,360,2.0,88.0
8854,55.0,1,360,5.0,102.0
8855,59.0,0,360,3.0,100.0
8856,67.0,1,360,3.0,100.0
8857,74.0,349,90,10.0,110.0
8858,78.0,90,20,10.0,110.0
8859,79.0,30,30,10.0,110.0
8860,79.0,60,30,10.0,110.0
8861,74.0,60,30,10.0,110.0
8862,78.0,60,30,10.0,110.0
8863,79.0,60,30,10.0,110.0
8864,79.0,60,30,10.0,110.0
8865,74.0,60,30,10.0,110.0
8866,78.0,60,30,10.0,110.0
8867,79.0,1,60,0.0,88.0
8868,74.0,1,60,1.0,88.0
8869,71.0,0,60,1.0,88.0
8870,67.0,1,60,11.0,110.0
8871,62.0,0,60,12.0,110.0
8872,59.0,2,60,12.0,110.0
8873,79.0,60,120,10.0,110.0
8874,53.0,2,120,13.0,108.0
8875,53.0,1,120,3.0,100.0
8876,41.0,3,120,14.0,106.0
8877,68.0,1,196,11.0,110.0
8878,80.0,110,200,0.0,88.0
8879,62.0,0,196,12.0,110.0
8880,59.0,2,196,12.0,110.0
8881,71.0,0,200,1.0,88.0
8882,74.0,1,200,1.0,88.0
8883,50.0,122,120,13.0,108.0
8884,50.0,1,120,3.0,100.0
8885,38.0,3,120,14.0,106.0
8886,67.0,1,196,11.0,110.0
8887,59.0,0,196,12.0,110.0
8888,62.0,2,196,12.0,110.0
8889,79.0,110,200,0.0,88.0
8890,71.0,1,200,1.0,88.0
8891,74.0,0,200,1.0,88.0
8892,47.0,3,120,13.0,108.0
8893,47.0,1,120,3.0,100.0
8894,35.0,3,120,14.0,106.0
8895,68.0,1,196,11.0,110.0
8896,62.0,2,196,12.0,110.0
8897,80.0,110,200,0.0,88.0
8898,59.0,0,196,12.0,110.0
8899,71.0,1,200,1.0,88.0
8900,74.0,0,200,1.0,88.0
8901,43.0,122,120,13.0,108.0
8902,43.0,1,120,3.0,100.0
8903,31.0,3,120,14.0,106.0
8904,77.0,110,60,0.0,88.0
8905,71.0,1,60,1.0,88.0
8906,74.0,0,60,1.0,88.0
8907,65.0,1,60,11.0,110.0
8908,59.0,2,60,12.0,110.0
8909,62.0,0,60,12.0,110.0
8910,62.0,117,480,4.0,102.0
8911,55.0,2,480,5.0,102.0
8912,65.0,0,480,3.0,100.0
8913,55.0,1,20,11.0,95.0
8914,63.0,0,20,11.0,95.0
8915,60.0,1,20,12.0,95.0
8916,63.0,0,20,11.0,95.0
8917,55.0,22,20,11.0,95.0
8918,60.0,2,20,12.0,95.0
8919,48.0,2,60,13.0,108.0
8920,36.0,1,60,14.0,106.0
8921,63.0,0,20,11.0,95.0
8922,55.0,28,20,11.0,95.0
8923,60.0,2,20,12.0,95.0
8924,55.0,0,20,11.0,95.0
8925,63.0,28,20,11.0,95.0
8926,60.0,2,20,12.0,95.0
8927,55.0,115,120,10.0,100.0
8928,75.0,1,120,0.0,88.0
8929,72.0,0,120,6.0,104.0
8930,60.0,0,120,4.0,102.0
8931,75.0,0,120,1.0,88.0
8932,72.0,1,120,1.0,88.0
8933,60.0,0,120,6.0,104.0
8934,48.0,1,120,5.0,102.0
8935,48.0,1,120,3.0,100.0
8936,63.0,0,120,3.0,100.0
8937,72.0,2,120,10.0,100.0
8938,63.0,0,120,10.0,100.0
8939,63.0,28,20,11.0,95.0
8940,55.0,0,20,11.0,95.0
8941,60.0,2,20,12.0,95.0
8942,55.0,0,20,11.0,95.0
8943,63.0,22,20,11.0,95.0
8944,60.0,2,20,12.0,95.0
8945,51.0,2,60,13.0,108.0
8946,39.0,4,60,14.0,106.0
8947,63.0,0,20,11.0,95.0
8948,55.0,28,20,11.0,95.0
8949,60.0,2,20,12.0,95.0
8950,63.0,0,20,11.0,95.0
8951,55.0,28,20,11.0,95.0
8952,60.0,2,20,12.0,95.0
8953,55.0,28,20,11.0,95.0
8954,63.0,0,20,11.0,95.0
8955,60.0,2,20,12.0,95.0
8956,55.0,22,20,11.0,95.0
8957,63.0,0,20,11.0,95.0
8958,60.0,2,20,12.0,95.0
8959,55.0,2,60,13.0,108.0
8960,43.0,4,60,14.0,106.0
8961,55.0,0,20,11.0,95.0
8962,63.0,28,20,11.0,95.0
8963,60.0,2,20,12.0,95.0
8964,63.0,28,20,11.0,95.0
8965,55.0,0,20,11.0,95.0
8966,60.0,2,20,12.0,95.0
8967,63.0,0,20,11.0,95.0
8968,55.0,28,20,11.0,95.0
8969,60.0,2,20,12.0,95.0
8970,63.0,0,20,11.0,95.0
8971,55.0,22,20,11.0,95.0
8972,60.0,2,20,12.0,95.0
8973,59.0,2,60,13.0,108.0
8974,47.0,4,60,14.0,106.0
8975,63.0,0,20,11.0,95.0
8976,55.0,28,20,11.0,95.0
8977,60.0,2,20,12.0,95.0
8978,55.0,28,20,11.0,95.0
8979,63.0,0,20,11.0,95.0
8980,60.0,2,20,12.0,95.0
8981,55.0,1,20,11.0,95.0
8982,63.0,0,20,11.0,95.0
8983,60.0,2,20,12.0,95.0
8984,63.0,0,20,11.0,95.0
8985,55.0,22,20,11.0,95.0
8986,60.0,2,20,12.0,95.0
8987,72.0,26,60,0.0,125.0
8988,60.0,1,60,1.0,125.0
8989,63.0,28,20,11.0,95.0
8990,55.0,0,20,11.0,95.0
8991,60.0,2,20,12.0,95.0
8992,63.0,0,20,11.0,95.0
8993,55.0,28,20,11.0,95.0
8994,60.0,2,20,12.0,95.0
8995,60.0,2,120,13.0,108.0
8996,48.0,4,120,14.0,106.0
8997,63.0,0,20,11.0,95.0
8998,55.0,1,20,11.0,95.0
8999,60.0,2,20,12.0,95.0
9000,63.0,0,20,11.0,95.0
9001,55.0,28,20,11.0,95.0
9002,60.0,2,20,12.0,95.0
9003,75.0,26,60,0.0,125.0
9004,63.0,1,60,1.0,125.0
9005,63.0,0,20,11.0,95.0
9006,55.0,28,20,11.0,95.0
9007,60.0,2,20,12.0,95.0
9008,63.0,0,20,11.0,95.0
9009,55.0,28,20,11.0,95.0
9010,60.0,2,20,12.0,95.0
9011,63.0,0,20,11.0,95.0
9012,55.0,1,20,11.0,95.0
9013,60.0,2,20,12.0,95.0
9014,55.0,0,20,11.0,95.0
9015,63.0,28,20,11.0,95.0
9016,60.0,2,20,12.0,95.0
9017,79.0,26,60,0.0,125.0
9018,67.0,1,60,1.0,125.0
9019,63.0,28,20,11.0,95.0
9020,55.0,0,20,11.0,95.0
9021,60.0,2,20,12.0,95.0
9022,63.0,0,20,11.0,95.0
9023,55.0,28,20,11.0,95.0
9024,60.0,2,20,12.0,95.0
9025,55.0,1,20,11.0,95.0
9026,63.0,0,20,11.0,95.0
9027,60.0,2,20,12.0,95.0
9028,63.0,0,20,11.0,95.0
9029,55.0,28,20,11.0,95.0
9030,60.0,2,20,12.0,95.0
9031,83.0,26,60,0.0,125.0
9032,71.0,1,60,1.0,125.0
9033,63.0,0,20,11.0,95.0
9034,55.0,28,20,11.0,95.0
9035,60.0,2,20,12.0,95.0
9036,55.0,28,20,11.0,95.0
9037,63.0,0,20,11.0,95.0
9038,60.0,2,20,12.0,95.0
9039,55.0,0,20,11.0,95.0
9040,63.0,1,20,11.0,95.0
9041,60.0,1,20,12.0,95.0
9042,63.0,0,20,11.0,95.0
9043,55.0,25,20,11.0,95.0
9044,60.0,2,20,12.0,95.0
9045,60.0,25,60,10.0,110.0
9046,48.0,3,60,3.0,100.0
9047,55.0,28,20,11.0,95.0
9048,63.0,0,20,11.0,95.0
9049,60.0,2,20,12.0,95.0
9050,63.0,28,20,11.0,95.0
9051,55.0,0,20,11.0,95.0
9052,60.0,2,20,12.0,95.0
9053,55.0,3,20,11.0,95.0
9054,63.0,0,20,11.0,95.0
9055,60.0,2,20,12.0,95.0
9056,55.0,25,20,11.0,95.0
9057,63.0,0,20,11.0,95.0
9058,60.0,2,20,12.0,95.0
9059,63.0,25,60,10.0,110.0
9060,51.0,3,60,3.0,100.0
9061,63.0,28,20,11.0,95.0
9062,55.0,0,20,11.0,95.0
9063,60.0,2,20,12.0,95.0
9064,55.0,0,20,11.0,95.0
9065,63.0,28,20,11.0,95.0
9066,60.0,2,20,12.0,95.0
9067,55.0,3,20,11.0,95.0
9068,63.0,0,20,11.0,95.0
9069,60.0,2,20,12.0,95.0
9070,63.0,0,20,11.0,95.0
9071,55.0,25,20,11.0,95.0
9072,60.0,2,20,12.0,95.0
9073,67.0,25,60,10.0,110.0
9074,55.0,3,60,3.0,100.0
9075,55.0,28,20,11.0,95.0
9076,63.0,0,20,11.0,95.0
9077,60.0,2,20,12.0,95.0
9078,55.0,0,20,11.0,95.0
9079,63.0,28,20,11.0,95.0
9080,60.0,2,20,12.0,95.0
9081,55.0,0,20,11.0,95.0
9082,63.0,3,20,11.0,95.0
9083,60.0,2,20,12.0,95.0
9084,63.0,0,20,11.0,95.0
9085,55.0,25,20,11.0,95.0
9086,60.0,2,20,12.0,95.0
9087,71.0,25,60,10.0,110.0
9088,63.0,0,20,11.0,95.0
9089,55.0,28,20,11.0,95.0
9090,60.0,2,20,12.0,95.0
9091,63.0,28,20,11.0,95.0
9092,55.0,0,20,11.0,95.0
9093,60.0,2,20,12.0,95.0
9094,59.0,3,120,3.0,100.0
9095,63.0,3,20,11.0,95.0
9096,60.0,2,20,12.0,95.0
9097,63.0,22,20,11.0,95.0
9098,60.0,2,20,12.0,95.0
9099,72.0,25,60,10.0,110.0
9100,60.0,2,60,13.0,108.0
9101,48.0,3,60,14.0,106.0
9102,63.0,28,20,11.0,95.0
9103,60.0,2,20,12.0,95.0
9104,63.0,28,20,11.0,95.0
9105,60.0,2,20,12.0,95.0
9106,60.0,1,600,4.0,102.0
9107,48.0,1,0,5.0,102.0
9108,60.0,1,120,3.0,100.0
9109,72.0,1,20,11.0,95.0
9110,60.0,1,20,12.0,95.0
9111,72.0,22,20,11.0,95.0
9112,60.0,2,20,12.0,95.0
9113,74.0,25,60,10.0,110.0
9114,58.0,2,60,13.0,108.0
9115,46.0,3,60,14.0,106.0
9116,72.0,28,20,11.0,95.0
9117,60.0,2,20,12.0,95.0
9118,72.0,28,20,11.0,95.0
9119,60.0,2,20,12.0,95.0
9120,60.0,2,120,4.0,102.0
9121,48.0,1,0,5.0,102.0
9122,62.0,1,120,3.0,100.0
9123,72.0,1,20,11.0,95.0
9124,60.0,1,20,12.0,95.0
9125,72.0,22,20,11.0,95.0
9126,60.0,2,20,12.0,95.0
9127,75.0,25,60,10.0,110.0
9128,56.0,2,60,13.0,108.0
9129,44.0,3,60,14.0,106.0
9130,72.0,28,20,11.0,95.0
9131,60.0,2,20,12.0,95.0
9132,72.0,28,20,11.0,95.0
9133,60.0,2,20,12.0,95.0
9134,84.0,1,840,0.0,98.0
9135,60.0,1,0,4.0,102.0
9136,48.0,1,0,5.0,102.0
9137,63.0,1,120,3.0,100.0
9138,70.0,1,20,11.0,95.0
9139,60.0,1,20,12.0,95.0
9140,70.0,22,20,11.0,95.0
9141,60.0,2,20,12.0,95.0
9142,76.0,25,60,10.0,110.0
9143,55.0,2,60,13.0,108.0
9144,43.0,3,60,14.0,106.0
9145,70.0,28,20,11.0,95.0
9146,60.0,2,20,12.0,95.0
9147,70.0,28,20,11.0,95.0
9148,60.0,2,20,12.0,95.0
9149,82.0,1,120,0.0,98.0
9150,48.0,1,0,5.0,82.0
9151,64.0,1,120,3.0,100.0
9152,68.0,1,20,11.0,95.0
9153,60.0,0,20,11.0,95.0
9154,60.0,1,20,12.0,95.0
9155,68.0,0,20,11.0,95.0
9156,60.0,22,20,11.0,95.0
9157,65.0,2,20,12.0,95.0
9158,53.0,2,60,13.0,108.0
9159,41.0,3,60,14.0,106.0
9160,68.0,28,20,11.0,95.0
9161,60.0,0,20,11.0,95.0
9162,65.0,2,20,12.0,95.0
9163,60.0,0,20,11.0,95.0
9164,68.0,28,20,11.0,95.0
9165,65.0,2,20,12.0,95.0
9166,77.0,25,120,10.0,100.0
9167,80.0,1,120,0.0,98.0
9168,72.0,0,1080,1.0,98.0
9169,60.0,1,120,4.0,82.0
9170,60.0,0,1080,2.0,98.0
9171,72.0,0,1080,2.0,98.0
9172,65.0,1,120,3.0,80.0
9173,60.0,0,20,11.0,95.0
9174,68.0,28,20,11.0,95.0
9175,65.0,2,20,12.0,95.0
9176,60.0,22,20,11.0,95.0
9177,68.0,0,20,11.0,95.0
9178,65.0,2,20,12.0,95.0
9179,56.0,2,60,13.0,108.0
9180,44.0,4,60,14.0,106.0
9181,60.0,0,20,11.0,95.0
9182,68.0,28,20,11.0,95.0
9183,65.0,2,20,12.0,95.0
9184,60.0,28,20,11.0,95.0
9185,68.0,0,20,11.0,95.0
9186,65.0,2,20,12.0,95.0
9187,68.0,28,20,11.0,95.0
9188,60.0,0,20,11.0,95.0
9189,65.0,2,20,12.0,95.0
9190,60.0,22,20,11.0,95.0
9191,68.0,0,20,11.0,95.0
9192,65.0,2,20,12.0,95.0
9193,60.0,2,60,13.0,108.0
9194,48.0,4,60,14.0,106.0
9195,68.0,28,20,11.0,95.0
9196,60.0,0,20,11.0,95.0
9197,65.0,2,20,12.0,95.0
9198,60.0,0,20,11.0,95.0
9199,68.0,28,20,11.0,95.0
9200,65.0,2,20,12.0,95.0
9201,68.0,28,20,11.0,95.0
9202,60.0,0,20,11.0,95.0
9203,65.0,2,20,12.0,95.0
9204,60.0,0,20,11.0,95.0
9205,68.0,22,20,11.0,95.0
9206,65.0,2,20,12.0,95.0
9207,64.0,2,60,13.0,108.0
9208,52.0,4,60,14.0,106.0
9209,60.0,0,20,11.0,95.0
9210,68.0,28,20,11.0,95.0
9211,65.0,2,20,12.0,95.0
9212,60.0,28,20,11.0,95.0
9213,68.0,0,20,11.0,95.0
9214,65.0,2,20,12.0,95.0
9215,68.0,0,20,11.0,95.0
9216,60.0,1,20,11.0,95.0
9217,65.0,2,20,12.0,95.0
9218,60.0,22,20,11.0,95.0
9219,68.0,0,20,11.0,95.0
9220,65.0,2,20,12.0,95.0
9221,77.0,26,60,0.0,125.0
9222,65.0,1,60,1.0,125.0
9223,68.0,28,20,11.0,95.0
9224,60.0,0,20,11.0,95.0
9225,65.0,2,20,12.0,95.0
9226,60.0,28,20,11.0,95.0
9227,68.0,0,20,11.0,95.0
9228,65.0,2,20,12.0,95.0
9229,65.0,2,120,13.0,108.0
9230,53.0,4,120,14.0,106.0
9231,60.0,0,20,11.0,95.0
9232,68.0,1,20,11.0,95.0
9233,65.0,2,20,12.0,95.0
9234,60.0,0,20,11.0,95.0
9235,68.0,28,20,11.0,95.0
9236,65.0,2,20,12.0,95.0
9237,80.0,26,60,0.0,125.0
9238,68.0,1,60,1.0,125.0
9239,68.0,0,20,11.0,95.0
9240,60.0,28,20,11.0,95.0
9241,65.0,2,20,12.0,95.0
9242,60.0,28,20,11.0,95.0
9243,68.0,0,20,11.0,95.0
9244,65.0,2,20,12.0,95.0
9245,68.0,0,20,11.0,95.0
9246,60.0,1,20,11.0,95.0
9247,65.0,2,20,12.0,95.0
9248,68.0,0,20,11.0,95.0
9249,60.0,28,20,11.0,95.0
9250,65.0,2,20,12.0,95.0
9251,84.0,26,60,0.0,125.0
9252,72.0,1,60,1.0,125.0
9253,68.0,0,20,11.0,95.0
9254,60.0,28,20,11.0,95.0
9255,65.0,2,20,12.0,95.0
9256,60.0,0,20,11.0,95.0
9257,68.0,28,20,11.0,95.0
9258,65.0,2,20,12.0,95.0
9259,68.0,0,20,11.0,95.0
9260,60.0,1,20,11.0,95.0
9261,65.0,2,20,12.0,95.0
9262,60.0,0,20,11.0,95.0
9263,68.0,28,20,11.0,95.0
9264,65.0,2,20,12.0,95.0
9265,88.0,26,60,0.0,125.0
9266,76.0,1,60,1.0,125.0
9267,68.0,28,20,11.0,95.0
9268,60.0,0,20,11.0,95.0
9269,65.0,2,20,12.0,95.0
9270,60.0,0,20,11.0,95.0
9271,68.0,28,20,11.0,95.0
9272,65.0,2,20,12.0,95.0
9273,60.0,0,20,11.0,95.0
9274,68.0,1,20,11.0,95.0
9275,65.0,1,20,12.0,95.0
9276,68.0,25,20,11.0,95.0
9277,60.0,0,20,11.0,95.0
9278,65.0,2,20,12.0,95.0
9279,65.0,25,60,10.0,110.0
9280,53.0,3,60,3.0,100.0
9281,68.0,0,20,11.0,95.0
9282,60.0,28,20,11.0,95.0
9283,65.0,2,20,12.0,95.0
9284,60.0,0,20,11.0,95.0
9285,68.0,28,20,11.0,95.0
9286,65.0,2,20,12.0,95.0
9287,60.0,3,20,11.0,95.0
9288,68.0,0,20,11.0,95.0
9289,65.0,2,20,12.0,95.0
9290,68.0,25,20,11.0,95.0
9291,60.0,0,20,11.0,95.0
9292,65.0,2,20,12.0,95.0
9293,68.0,25,60,10.0,110.0
9294,56.0,3,60,3.0,100.0
9295,68.0,0,20,11.0,95.0
9296,60.0,28,20,11.0,95.0
9297,65.0,2,20,12.0,95.0
9298,60.0,0,20,11.0,95.0
9299,68.0,28,20,11.0,95.0
9300,65.0,2,20,12.0,95.0
9301,60.0,3,20,11.0,95.0
9302,68.0,0,20,11.0,95.0
9303,65.0,2,20,12.0,95.0
9304,68.0,25,20,11.0,95.0
9305,60.0,0,20,11.0,95.0
9306,65.0,2,20,12.0,95.0
9307,72.0,25,60,10.0,110.0
9308,60.0,3,60,3.0,100.0
9309,60.0,0,20,11.0,95.0
9310,68.0,28,20,11.0,95.0
9311,65.0,2,20,12.0,95.0
9312,68.0,28,20,11.0,95.0
9313,60.0,0,20,11.0,95.0
9314,65.0,2,20,12.0,95.0
9315,68.0,0,20,11.0,95.0
9316,60.0,3,20,11.0,95.0
9317,65.0,2,20,12.0,95.0
9318,68.0,25,20,11.0,95.0
9319,60.0,0,20,11.0,95.0
9320,65.0,2,20,12.0,95.0
9321,76.0,25,60,10.0,110.0
9322,64.0,3,60,3.0,100.0
9323,68.0,28,20,11.0,95.0
9324,60.0,0,20,11.0,95.0
9325,65.0,2,20,12.0,95.0
9326,60.0,28,20,11.0,95.0
9327,68.0,0,20,11.0,95.0
9328,65.0,2,20,12.0,95.0
9329,68.0,3,20,11.0,95.0
9330,65.0,2,20,12.0,95.0
9331,68.0,22,20,11.0,95.0
9332,65.0,2,20,12.0,95.0
9333,77.0,25,60,10.0,110.0
9334,53.0,2,60,13.0,108.0
9335,41.0,3,60,14.0,106.0
9336,68.0,28,20,11.0,95.0
9337,65.0,2,20,12.0,95.0
9338,68.0,28,20,11.0,95.0
9339,65.0,2,20,12.0,95.0
9340,65.0,2,0,4.0,102.0
9341,65.0,1,600,5.0,102.0
9342,77.0,1,20,11.0,95.0
9343,65.0,1,20,12.0,95.0
9344,77.0,22,20,11.0,95.0
9345,65.0,2,20,12.0,95.0
9346,79.0,25,60,10.0,110.0
9347,51.0,2,60,13.0,108.0
9348,39.0,4,60,14.0,106.0
9349,77.0,28,20,11.0,95.0
9350,65.0,2,20,12.0,95.0
9351,77.0,28,20,11.0,95.0
9352,65.0,2,20,12.0,95.0
9353,65.0,2,0,4.0,102.0
9354,65.0,1,0,5.0,102.0
9355,77.0,1,20,11.0,95.0
9356,65.0,1,20,12.0,95.0
9357,77.0,22,20,11.0,95.0
9358,65.0,2,20,12.0,95.0
9359,80.0,25,60,10.0,110.0
9360,50.0,2,60,13.0,108.0
9361,38.0,4,60,14.0,106.0
9362,77.0,28,20,11.0,95.0
9363,65.0,2,20,12.0,95.0
9364,77.0,28,20,11.0,95.0
9365,65.0,2,20,12.0,95.0
9366,89.0,1,840,0.0,98.0
9367,77.0,1,840,1.0,98.0
9368,65.0,1,360,3.0,100.0
9369,75.0,1,20,11.0,95.0
9370,65.0,1,20,12.0,95.0
9371,75.0,22,20,11.0,95.0
9372,65.0,2,20,12.0,95.0
9373,81.0,25,60,10.0,110.0
9374,48.0,2,60,13.0,108.0
9375,36.0,3,60,14.0,106.0
9376,75.0,28,20,11.0,95.0
9377,65.0,2,20,12.0,95.0
9378,75.0,28,20,11.0,95.0
9379,65.0,2,20,12.0,95.0
9380,87.0,1,120,0.0,98.0
9381,75.0,0,120,1.0,98.0
9382,65.0,0,0,4.0,102.0
9383,65.0,1,120,5.0,102.0
9384,63.0,1,120,3.0,100.0
9385,74.0,1,20,11.0,95.0
9386,65.0,1,20,12.0,95.0
9387,65.0,22,20,11.0,95.0
9388,62.0,2,20,12.0,95.0
9389,46.0,2,60,13.0,108.0
9390,34.0,3,60,14.0,106.0
9391,65.0,28,20,11.0,95.0
9392,62.0,2,20,12.0,95.0
9393,65.0,28,20,11.0,95.0
9394,62.0,2,20,12.0,95.0
9395,82.0,25,120,10.0,110.0
9396,86.0,1,120,0.0,98.0
9397,74.0,1,120,1.0,98.0
9398,65.0,0,1080,2.0,98.0
9399,77.0,0,1080,2.0,98.0
9400,65.0,1,120,5.0,102.0
9401,62.0,1,120,3.0,100.0
9402,65.0,28,20,11.0,95.0
9403,62.0,2,20,12.0,95.0
9404,65.0,22,20,11.0,95.0
9405,62.0,2,20,12.0,95.0
9406,50.0,2,60,13.0,108.0
9407,38.0,4,60,14.0,106.0
9408,65.0,28,20,11.0,95.0
9409,62.0,2,20,12.0,95.0
9410,65.0,28,20,11.0,95.0
9411,62.0,2,20,12.0,95.0
9412,65.0,28,20,11.0,95.0
9413,62.0,2,20,12.0,95.0
9414,65.0,22,20,11.0,95.0
9415,62.0,2,20,12.0,95.0
9416,53.0,2,60,13.0,108.0
9417,41.0,4,60,14.0,106.0
9418,65.0,28,20,11.0,95.0
9419,62.0,2,20,12.0,95.0
9420,65.0,28,20,11.0,95.0
9421,62.0,2,20,12.0,95.0
9422,65.0,28,20,11.0,95.0
9423,62.0,2,20,12.0,95.0
9424,65.0,22,20,11.0,95.0
9425,62.0,2,20,12.0,95.0
9426,57.0,2,60,13.0,108.0
9427,45.0,4,60,14.0,106.0
9428,65.0,28,20,11.0,95.0
9429,62.0,2,20,12.0,95.0
9430,65.0,28,20,11.0,95.0
9431,62.0,2,20,12.0,95.0
9432,65.0,2,20,11.0,95.0
9433,62.0,2,20,12.0,95.0
9434,65.0,22,20,11.0,95.0
9435,62.0,2,20,12.0,95.0
9436,80.0,25,60,10.0,110.0
9437,74.0,1,60,0.0,113.0
9438,65.0,28,20,11.0,95.0
9439,62.0,2,20,12.0,95.0
9440,65.0,28,20,11.0,95.0
9441,62.0,2,20,12.0,95.0
9442,58.0,2,120,13.0,108.0
9443,46.0,3,120,14.0,106.0
9444,65.0,2,20,11.0,95.0
9445,62.0,2,20,12.0,95.0
9446,65.0,28,20,11.0,95.0
9447,62.0,2,20,12.0,95.0
9448,77.0,25,60,10.0,110.0
9449,77.0,1,60,0.0,113.0
9450,65.0,28,20,11.0,95.0
9451,62.0,2,20,12.0,95.0
9452,65.0,28,20,11.0,95.0
9453,62.0,2,20,12.0,95.0
9454,65.0,2,20,11.0,95.0
9455,62.0,2,20,12.0,95.0
9456,65.0,28,20,11.0,95.0
9457,62.0,2,20,12.0,95.0
9458,74.0,25,60,10.0,110.0
9459,82.0,1,60,0.0,113.0
9460,65.0,28,20,11.0,95.0
9461,62.0,2,20,12.0,95.0
9462,65.0,28,20,11.0,95.0
9463,62.0,2,20,12.0,95.0
9464,65.0,2,20,11.0,95.0
9465,62.0,2,20,12.0,95.0
9466,65.0,28,20,11.0,95.0
9467,62.0,2,20,12.0,95.0
9468,68.0,25,60,10.0,110.0
9469,86.0,1,60,0.0,113.0
9470,65.0,28,20,11.0,95.0
9471,62.0,2,20,12.0,95.0
9472,65.0,28,20,11.0,95.0
9473,62.0,2,20,12.0,95.0
9474,56.0,0,480,3.0,100.0
9475,53.0,1,480,3.0,100.0
9476,67.0,1,20,11.0,95.0
9477,63.0,2,20,12.0,95.0
9478,67.0,22,20,11.0,95.0
9479,63.0,2,20,12.0,95.0
9480,46.0,2,60,13.0,108.0
9481,34.0,3,60,14.0,106.0
9482,67.0,28,20,11.0,95.0
9483,63.0,2,20,12.0,95.0
9484,67.0,28,20,11.0,95.0
9485,63.0,2,20,12.0,95.0
9486,67.0,25,120,10.0,110.0
9487,87.0,1,120,0.0,113.0
9488,55.0,1,120,3.0,100.0
9489,51.0,0,120,3.0,100.0
9490,67.0,28,20,11.0,95.0
9491,63.0,2,20,12.0,95.0
9492,67.0,22,20,11.0,95.0
9493,63.0,2,20,12.0,95.0
9494,46.0,2,60,13.0,108.0
9495,34.0,4,60,14.0,106.0
9496,67.0,28,20,11.0,95.0
9497,63.0,2,20,12.0,95.0
9498,67.0,28,20,11.0,95.0
9499,63.0,2,20,12.0,95.0
9500,67.0,28,20,11.0,95.0
9501,63.0,2,20,12.0,95.0
9502,67.0,22,20,11.0,95.0
9503,63.0,2,20,12.0,95.0
9504,51.0,2,60,13.0,108.0
9505,39.0,4,60,14.0,106.0
9506,67.0,28,20,11.0,95.0
9507,63.0,2,20,12.0,95.0
9508,67.0,28,20,11.0,95.0
9509,63.0,2,20,12.0,95.0
9510,67.0,28,20,11.0,95.0
9511,63.0,2,20,12.0,95.0
9512,67.0,22,20,11.0,95.0
9513,63.0,2,20,12.0,95.0
9514,55.0,2,60,13.0,108.0
9515,43.0,4,60,14.0,106.0
9516,67.0,28,20,11.0,95.0
9517,63.0,2,20,12.0,95.0
9518,67.0,28,20,11.0,95.0
9519,63.0,2,20,12.0,95.0
9520,67.0,2,20,11.0,95.0
9521,63.0,2,20,12.0,95.0
9522,67.0,22,20,11.0,95.0
9523,63.0,2,20,12.0,95.0
9524,79.0,25,60,10.0,110.0
9525,75.0,1,60,0.0,113.0
9526,67.0,28,20,11.0,95.0
9527,63.0,2,20,12.0,95.0
9528,67.0,28,20,11.0,95.0
9529,63.0,2,20,12.0,95.0
9530,79.0,0,600,1.0,98.0
9531,75.0,1,600,1.0,98.0
9532,58.0,2,120,13.0,108.0
9533,46.0,3,120,14.0,106.0
9534,67.0,2,20,11.0,95.0
9535,63.0,2,20,12.0,95.0
9536,67.0,28,20,11.0,95.0
9537,63.0,2,20,12.0,95.0
9538,75.0,25,60,10.0,110.0
9539,79.0,1,60,0.0,113.0
9540,67.0,28,20,11.0,95.0
9541,63.0,2,20,12.0,95.0
9542,67.0,28,20,11.0,95.0
9543,63.0,2,20,12.0,95.0
9544,67.0,2,20,11.0,95.0
9545,63.0,2,20,12.0,95.0
9546,67.0,28,20,11.0,95.0
9547,63.0,2,20,12.0,95.0
9548,70.0,25,60,10.0,110.0
9549,82.0,1,60,0.0,113.0
9550,67.0,28,20,11.0,95.0
9551,63.0,2,20,12.0,95.0
9552,67.0,28,20,11.0,95.0
9553,63.0,2,20,12.0,95.0
9554,67.0,2,20,11.0,95.0
9555,63.0,2,20,12.0,95.0
9556,67.0,28,20,11.0,95.0
9557,63.0,2,20,12.0,95.0
9558,67.0,25,60,10.0,110.0
9559,67.0,28,20,11.0,95.0
9560,63.0,2,20,12.0,95.0
9561,67.0,28,20,11.0,95.0
9562,63.0,2,20,12.0,95.0
9563,87.0,1,120,0.0,113.0
9564,55.0,0,480,3.0,100.0
9565,69.0,1,20,11.0,95.0
9566,63.0,0,20,11.0,95.0
9567,66.0,2,20,12.0,95.0
9568,63.0,0,20,11.0,95.0
9569,69.0,22,20,11.0,95.0
9570,66.0,2,20,12.0,95.0
9571,46.0,2,60,13.0,108.0
9572,34.0,3,60,14.0,106.0
9573,63.0,0,20,11.0,95.0
9574,69.0,28,20,11.0,95.0
9575,66.0,2,20,12.0,95.0
9576,63.0,28,20,11.0,95.0
9577,69.0,0,20,11.0,95.0
9578,66.0,2,20,12.0,95.0
9579,69.0,25,120,10.0,110.0
9580,57.0,1,120,3.0,100.0
9581,51.0,1,600,3.0,100.0
9582,63.0,28,20,11.0,95.0
9583,69.0,0,20,11.0,95.0
9584,66.0,2,20,12.0,95.0
9585,69.0,22,20,11.0,95.0
9586,63.0,0,20,11.0,95.0
9587,66.0,2,20,12.0,95.0
9588,51.0,2,60,13.0,108.0
9589,39.0,4,60,14.0,106.0
9590,69.0,0,20,11.0,95.0
9591,63.0,28,20,11.0,95.0
9592,66.0,2,20,12.0,95.0
9593,63.0,0,20,11.0,95.0
9594,69.0,28,20,11.0,95.0
9595,66.0,2,20,12.0,95.0
9596,81.0,25,20,10.0,82.0
9597,63.0,0,20,11.0,95.0
9598,69.0,3,20,11.0,95.0
9599,66.0,2,20,12.0,95.0
9600,81.0,19,20,10.0,83.0
9601,69.0,0,20,11.0,95.0
9602,63.0,3,20,11.0,95.0
9603,66.0,2,20,12.0,95.0
9604,54.0,2,60,13.0,108.0
9605,42.0,4,60,14.0,106.0
9606,81.0,25,20,10.0,85.0
9607,63.0,3,20,11.0,96.0
9608,69.0,0,20,11.0,96.0
9609,66.0,2,20,12.0,96.0
9610,81.0,25,20,10.0,87.0
9611,69.0,3,20,11.0,96.0
9612,63.0,0,20,11.0,96.0
9613,66.0,2,20,12.0,96.0
9614,81.0,25,20,10.0,90.0
9615,63.0,3,20,11.0,97.0
9616,69.0,0,20,11.0,97.0
9617,66.0,2,20,12.0,97.0
9618,81.0,19,20,10.0,92.0
9619,69.0,0,20,11.0,98.0
9620,63.0,3,20,11.0,98.0
9621,66.0,2,20,12.0,98.0
9622,57.0,2,60,13.0,108.0
9623,45.0,4,60,14.0,106.0
9624,81.0,25,20,10.0,94.0
9625,63.0,3,20,11.0,98.0
9626,69.0,0,20,11.0,98.0
9627,66.0,2,20,12.0,98.0
9628,81.0,25,20,10.0,97.0
9629,69.0,0,20,11.0,99.0
9630,63.0,3,20,11.0,99.0
9631,66.0,2,20,12.0,99.0
9632,81.0,25,20,10.0,100.0
9633,69.0,3,20,11.0,100.0
9634,63.0,0,20,11.0,100.0
9635,66.0,2,20,12.0,100.0
9636,81.0,19,20,10.0,100.0
9637,63.0,0,20,11.0,100.0
9638,69.0,3,20,11.0,100.0
9639,66.0,2,20,12.0,100.0
9640,60.0,2,60,13.0,108.0
9641,48.0,3,60,14.0,106.0
9642,81.0,25,20,10.0,101.0
9643,69.0,0,20,11.0,101.0
9644,63.0,3,20,11.0,101.0
9645,66.0,2,20,12.0,101.0
9646,81.0,25,20,10.0,101.0
9647,69.0,0,20,11.0,101.0
9648,63.0,3,20,11.0,101.0
9649,66.0,2,20,12.0,101.0
9650,90.0,1,600,0.0,98.0
9651,81.0,25,20,10.0,102.0
9652,63.0,2,20,11.0,102.0
9653,69.0,0,20,11.0,102.0
9654,66.0,2,20,12.0,102.0
9655,81.0,19,20,10.0,103.0
9656,69.0,0,20,11.0,103.0
9657,63.0,3,20,11.0,103.0
9658,66.0,2,20,12.0,103.0
9659,57.0,2,60,13.0,108.0
9660,45.0,4,60,14.0,106.0
9661,81.0,25,20,10.0,103.0
9662,63.0,3,20,11.0,103.0
9663,69.0,0,20,11.0,103.0
9664,66.0,2,20,12.0,103.0
9665,81.0,25,20,10.0,104.0
9666,69.0,0,20,11.0,104.0
9667,63.0,3,20,11.0,104.0
9668,66.0,2,20,12.0,104.0
9669,81.0,1,0,0.0,98.0
9670,81.0,25,20,10.0,105.0
9671,69.0,2,20,11.0,105.0
9672,63.0,0,20,11.0,105.0
9673,66.0,2,20,12.0,105.0
9674,81.0,19,20,10.0,105.0
9675,63.0,0,20,11.0,105.0
9676,69.0,3,20,11.0,105.0
9677,66.0,2,20,12.0,105.0
9678,54.0,2,60,13.0,108.0
9679,42.0,4,60,14.0,106.0
9680,81.0,25,20,10.0,106.0
9681,63.0,0,20,11.0,106.0
9682,69.0,3,20,11.0,106.0
9683,66.0,2,20,12.0,106.0
9684,81.0,25,20,10.0,106.0
9685,69.0,0,20,11.0,106.0
9686,63.0,3,20,11.0,106.0
9687,66.0,2,20,12.0,106.0
9688,81.0,25,20,10.0,107.0
9689,69.0,2,20,11.0,107.0
9690,63.0,0,20,11.0,107.0
9691,66.0,2,20,12.0,107.0
9692,81.0,19,20,10.0,108.0
9693,69.0,3,20,11.0,108.0
9694,63.0,0,20,11.0,108.0
9695,66.0,2,20,12.0,108.0
9696,51.0,2,60,13.0,108.0
9697,39.0,4,60,14.0,106.0
9698,81.0,25,20,10.0,108.0
9699,69.0,3,20,11.0,108.0
9700,63.0,0,20,11.0,108.0
9701,66.0,2,20,12.0,108.0
9702,81.0,25,20,10.0,109.0
9703,69.0,3,20,11.0,109.0
9704,63.0,0,20,11.0,109.0
9705,66.0,2,20,12.0,109.0
9706,81.0,1,120,0.0,98.0
9707,75.0,1,960,1.0,98.0
9708,78.0,0,960,1.0,98.0
9709,60.0,0,480,2.0,98.0
9710,72.0,0,480,2.0,98.0
9711,66.0,0,480,3.0,100.0
9712,63.0,1,480,3.0,100.0
9713,82.0,25,30,10.0,110.0
9714,82.0,49,30,10.0,110.0
9715,82.0,1,120,0.0,83.0
9716,74.0,1,120,1.0,83.0
9717,77.0,0,120,1.0,83.0
9718,62.0,0,120,2.0,83.0
9719,74.0,0,120,2.0,83.0
9720,62.0,0,120,11.0,100.0
9721,70.0,1,120,11.0,100.0
9722,65.0,2,120,12.0,100.0
9723,46.0,2,120,13.0,98.0
9724,62.0,1,120,3.0,85.0
9725,65.0,0,120,3.0,85.0
9726,34.0,3,120,14.0,96.0
9727,82.0,60,30,10.0,110.0
9728,82.0,60,30,10.0,110.0
9729,80.0,60,60,10.0,110.0
9730,79.0,60,50,10.0,110.0
9731,77.0,60,30,10.0,110.0
9732,75.0,60,30,10.0,110.0
9733,58.0,3,30,11.0,110.0
9734,70.0,60,30,11.0,110.0
9735,74.0,60,120,10.0,110.0
9736,70.0,60,30,11.0,110.0
9737,70.0,2,60,12.0,110.0
9738,58.0,2,60,13.0,108.0
9739,46.0,4,60,14.0,106.0
9740,74.0,49,30,10.0,110.0
9741,70.0,3,30,11.0,110.0
9742,75.0,57,30,10.0,110.0
9743,68.0,3,60,11.0,110.0
9744,70.0,2,60,12.0,110.0
9745,58.0,2,60,13.0,108.0
9746,46.0,4,60,14.0,106.0
9747,77.0,49,30,10.0,110.0
9748,67.0,3,50,11.0,110.0
9749,79.0,57,30,10.0,110.0
9750,65.0,3,30,11.0,110.0
9751,70.0,2,60,12.0,110.0
9752,58.0,2,60,13.0,108.0
9753,46.0,4,60,14.0,106.0
9754,81.0,49,30,10.0,110.0
9755,63.0,3,30,11.0,110.0
9756,82.0,57,30,10.0,110.0
9757,82.0,49,30,10.0,110.0
9758,62.0,3,120,11.0,110.0
9759,58.0,2,120,12.0,110.0
9760,46.0,2,120,13.0,108.0
9761,34.0,4,120,14.0,106.0
9762,82.0,60,30,10.0,110.0
9763,82.0,60,30,10.0,110.0
9764,62.0,3,30,11.0,110.0
9765,63.0,3,30,11.0,110.0
9766,80.0,57,60,10.0,110.0
9767,65.0,3,30,11.0,110.0
9768,79.0,57,50,10.0,110.0
9769,77.0,57,30,10.0,110.0
9770,67.0,3,30,11.0,110.0
9771,75.0,57,30,10.0,110.0
9772,69.0,3,30,11.0,110.0
9773,70.0,3,30,11.0,110.0
9774,70.0,60,30,11.0,110.0
9775,74.0,57,120,10.0,110.0
9776,70.0,60,30,11.0,110.0
9777,70.0,2,60,12.0,110.0
9778,58.0,2,60,13.0,108.0
9779,46.0,4,60,14.0,106.0
9780,74.0,49,30,10.0,110.0
9781,70.0,3,30,11.0,110.0
9782,75.0,57,30,10.0,110.0
9783,68.0,3,60,11.0,110.0
9784,70.0,2,60,12.0,110.0
9785,58.0,2,60,13.0,108.0
9786,46.0,4,60,14.0,106.0
9787,77.0,49,30,10.0,110.0
9788,67.0,3,50,11.0,110.0
9789,79.0,57,30,10.0,110.0
9790,65.0,3,30,11.0,110.0
9791,70.0,2,60,12.0,110.0
9792,58.0,2,60,13.0,108.0
9793,46.0,4,60,14.0,106.0
9794,81.0,49,30,10.0,110.0
9795,63.0,3,30,11.0,110.0
9796,82.0,57,30,10.0,110.0
9797,62.0,1,30,11.0,110.0
9798,58.0,2,30,12.0,110.0
9799,46.0,2,30,13.0,108.0
9800,34.0,3,30,14.0,106.0
9801,82.0,49,30,10.0,110.0
9802,70.0,3,30,11.0,110.0
9803,70.0,2,30,12.0,110.0
9804,58.0,2,30,13.0,108.0
9805,46.0,4,30,14.0,106.0
9806,82.0,1,108,0.0,88.0
9807,77.0,0,108,1.0,88.0
9808,82.0,1,108,1.0,88.0
9809,62.0,1,108,3.0,100.0
9810,65.0,0,108,3.0,100.0
9811,82.0,49,30,10.0,110.0
9812,70.0,1,30,11.0,110.0
9813,70.0,2,30,12.0,110.0
9814,58.0,2,30,13.0,108.0
9815,46.0,3,30,14.0,106.0
9816,82.0,49,30,10.0,110.0
9817,70.0,3,30,11.0,110.0
9818,70.0,2,30,12.0,110.0
9819,58.0,2,30,13.0,108.0
9820,46.0,4,30,14.0,106.0
9821,86.0,1,108,0.0,88.0
9822,89.0,0,108,0.0,88.0
9823,82.0,1,108,1.0,88.0
9824,77.0,0,108,1.0,88.0
9825,62.0,1,108,3.0,100.0
9826,65.0,0,108,3.0,100.0
9827,80.0,49,60,10.0,110.0
9828,68.0,1,60,11.0,110.0
9829,68.0,2,60,12.0,110.0
9830,56.0,2,60,13.0,108.0
9831,44.0,3,60,14.0,106.0
9832,87.0,1,108,0.0,88.0
9833,91.0,0,108,0.0,88.0
9834,82.0,0,108,1.0,88.0
9835,79.0,1,108,1.0,88.0
9836,79.0,49,50,10.0,110.0
9837,67.0,3,50,11.0,110.0
9838,67.0,2,50,12.0,110.0
9839,67.0,0,108,3.0,100.0
9840,63.0,1,108,3.0,100.0
9841,55.0,2,50,13.0,108.0
9842,43.0,4,50,14.0,106.0
9843,77.0,49,30,10.0,110.0
9844,65.0,1,30,11.0,110.0
9845,65.0,2,30,12.0,110.0
9846,53.0,2,30,13.0,108.0
9847,41.0,3,30,14.0,106.0
9848,75.0,49,30,10.0,110.0
9849,63.0,3,30,11.0,110.0
9850,63.0,2,30,12.0,110.0
9851,51.0,2,30,13.0,108.0
9852,39.0,4,30,14.0,106.0
9853,91.0,0,108,0.0,88.0
9854,87.0,1,108,0.0,88.0
9855,82.0,1,108,1.0,88.0
9856,79.0,0,108,1.0,88.0
9857,63.0,1,108,3.0,100.0
9858,67.0,0,108,3.0,100.0
9859,74.0,49,30,10.0,110.0
9860,62.0,1,30,11.0,110.0
9861,58.0,2,30,12.0,110.0
9862,46.0,2,30,13.0,108.0
9863,34.0,3,30,14.0,106.0
9864,82.0,49,30,10.0,110.0
9865,70.0,3,30,11.0,110.0
9866,70.0,2,30,12.0,110.0
9867,58.0,2,30,13.0,108.0
9868,46.0,4,30,14.0,106.0
9869,86.0,1,108,0.0,88.0
9870,89.0,0,108,0.0,88.0
9871,82.0,1,108,1.0,88.0
9872,77.0,0,108,1.0,88.0
9873,65.0,1,108,3.0,100.0
9874,62.0,0,108,3.0,100.0
9875,82.0,49,30,10.0,110.0
9876,70.0,1,30,11.0,110.0
9877,70.0,2,30,12.0,110.0
9878,58.0,2,30,13.0,108.0
9879,46.0,3,30,14.0,106.0
9880,82.0,49,30,10.0,110.0
9881,70.0,3,30,11.0,110.0
9882,70.0,2,30,12.0,110.0
9883,58.0,2,30,13.0,108.0
9884,46.0,4,30,14.0,106.0
9885,86.0,1,108,0.0,88.0
9886,89.0,0,108,0.0,88.0
9887,82.0,1,108,1.0,88.0
9888,77.0,0,108,1.0,88.0
9889,65.0,1,108,3.0,100.0
9890,62.0,0,108,3.0,100.0
9891,80.0,49,60,10.0,110.0
9892,68.0,1,60,11.0,110.0
9893,68.0,2,60,12.0,110.0
9894,56.0,2,60,13.0,108.0
9895,44.0,3,60,14.0,106.0
9896,87.0,1,108,0.0,88.0
9897,91.0,0,108,0.0,88.0
9898,79.0,49,50,10.0,110.0
9899,82.0,1,108,1.0,88.0
9900,79.0,0,108,1.0,88.0
9901,67.0,3,50,11.0,110.0
9902,67.0,2,50,12.0,110.0
9903,63.0,0,108,3.0,100.0
9904,67.0,1,108,3.0,100.0
9905,55.0,2,50,13.0,108.0
9906,43.0,4,50,14.0,106.0
9907,77.0,49,30,10.0,110.0
9908,65.0,1,30,11.0,110.0
9909,65.0,2,30,12.0,110.0
9910,53.0,2,30,13.0,108.0
9911,41.0,3,30,14.0,106.0
9912,75.0,49,30,10.0,110.0
9913,63.0,3,30,11.0,110.0
9914,63.0,2,30,12.0,110.0
9915,51.0,2,30,13.0,108.0
9916,39.0,4,30,14.0,106.0
9917,87.0,0,108,0.0,88.0
9918,91.0,1,108,0.0,88.0
9919,79.0,0,108,1.0,88.0
9920,82.0,1,108,1.0,88.0
9921,67.0,1,108,3.0,100.0
9922,63.0,0,108,3.0,100.0
9923,74.0,49,30,10.0,110.0
9924,75.0,49,30,10.0,110.0
9925,86.0,1,120,0.0,88.0
9926,89.0,0,120,0.0,88.0
9927,77.0,1,120,1.0,88.0
9928,82.0,0,120,1.0,88.0
9929,62.0,1,120,11.0,110.0
9930,58.0,2,120,12.0,110.0
9931,46.0,2,120,13.0,108.0
9932,65.0,1,120,3.0,100.0
9933,62.0,0,120,3.0,100.0
9934,34.0,3,120,14.0,106.0
9935,77.0,60,30,10.0,110.0
9936,79.0,60,30,10.0,110.0
9937,80.0,60,60,10.0,110.0
9938,79.0,60,50,10.0,110.0
9939,77.0,60,30,10.0,110.0
9940,75.0,60,30,10.0,110.0
9941,74.0,60,30,10.0,110.0
9942,75.0,60,30,10.0,110.0
9943,74.0,60,30,10.0,110.0
9944,72.0,60,30,10.0,110.0
9945,70.0,60,30,10.0,110.0
9946,68.0,60,30,10.0,110.0
9947,67.0,60,30,10.0,110.0
9948,65.0,60,30,10.0,110.0
9949,63.0,60,30,10.0,95.0
9950,63.0,3,30,11.0,95.0
9951,70.0,52,30,10.0,95.0
9952,67.0,3,30,11.0,95.0
9953,70.0,57,30,10.0,95.0
9954,67.0,3,30,11.0,95.0
9955,70.0,57,30,10.0,95.0
9956,67.0,3,30,11.0,95.0
9957,70.0,57,30,10.0,95.0
9958,67.0,3,30,11.0,95.0
9959,70.0,57,30,10.0,95.0
9960,67.0,3,30,11.0,95.0
9961,63.0,5,355,3.0,110.0
9962,70.0,57,30,10.0,95.0
9963,67.0,3,30,11.0,95.0
9964,68.0,52,30,10.0,95.0
9965,65.0,3,30,11.0,95.0
9966,58.0,5,90,3.0,121.0
9967,62.0,35,25,3.0,121.0
9968,67.0,22,30,10.0,95.0
9969,63.0,3,30,11.0,95.0
9970,63.0,5,60,3.0,110.0
9971,70.0,52,30,10.0,95.0
9972,67.0,3,30,11.0,95.0
9973,70.0,57,30,10.0,95.0
9974,67.0,1,30,11.0,95.0
9975,68.0,57,30,10.0,95.0
9976,70.0,2,90,1.0,119.0
9977,65.0,3,30,11.0,95.0
9978,74.0,29,25,1.0,119.0
9979,67.0,28,30,10.0,95.0
9980,63.0,1,30,11.0,95.0
9981,75.0,2,60,1.0,108.0
9982,70.0,57,30,10.0,95.0
9983,67.0,3,30,11.0,95.0
9984,70.0,57,30,10.0,95.0
9985,67.0,2,30,11.0,95.0
9986,68.0,57,30,10.0,95.0
9987,82.0,1,90,0.0,119.0
9988,65.0,3,30,11.0,95.0
9989,86.0,28,25,0.0,119.0
9990,87.0,1,60,0.0,108.0
9991,67.0,29,120,10.0,95.0
9992,63.0,2,120,11.0,95.0
9993,46.0,5,90,13.0,108.0
9994,34.0,4,90,14.0,106.0
9995,50.0,86,20,13.0,108.0
9996,38.0,4,20,14.0,106.0
9997,82.0,118,240,0.0,98.0
9998,79.0,1,240,1.0,98.0
9999,51.0,26,120,13.0,108.0
10000,39.0,4,120,14.0,106.0
10001,58.0,109,90,10.0,120.0
10002,62.0,88,20,10.0,120.0
10003,80.0,1,120,0.0,98.0
10004,77.0,1,120,1.0,98.0
10005,63.0,30,120,10.0,120.0
10006,79.0,1,120,0.0,98.0
10007,75.0,1,120,1.0,98.0
10008,83.0,119,120,0.0,98.0
10009,77.0,1,120,1.0,98.0
10010,61.0,6,120,3.0,100.0
10011,84.0,113,120,0.0,98.0
10012,76.0,1,120,1.0,98.0
10013,60.0,6,120,3.0,100.0
10014,82.0,113,115,0.0,98.0
10015,79.0,1,115,1.0,98.0
10016,48.0,5,110,13.0,108.0
10017,36.0,3,110,14.0,106.0
10018,64.0,1,115,3.0,100.0
10019,68.0,109,30,10.0,95.0
10020,65.0,1,30,11.0,95.0
10021,72.0,49,30,10.0,95.0
10022,68.0,3,30,11.0,95.0
10023,80.0,1,120,0.0,98.0
10024,72.0,1,120,1.0,98.0
10025,65.0,1,120,3.0,100.0
10026,72.0,57,30,10.0,95.0
10027,68.0,3,30,11.0,95.0
10028,72.0,57,30,10.0,95.0
10029,68.0,3,30,11.0,95.0
10030,72.0,57,30,10.0,95.0
10031,68.0,3,30,11.0,95.0
10032,72.0,57,30,10.0,95.0
10033,68.0,3,30,11.0,95.0
10034,53.0,4,350,13.0,108.0
10035,41.0,3,350,14.0,106.0
10036,72.0,57,30,10.0,95.0
10037,68.0,3,30,11.0,95.0
10038,70.0,49,30,10.0,95.0
10039,67.0,3,30,11.0,95.0
10040,48.0,4,90,13.0,108.0
10041,36.0,4,90,14.0,106.0
10042,52.0,34,20,13.0,108.0
10043,40.0,4,20,14.0,106.0
10044,68.0,19,30,10.0,95.0
10045,65.0,3,30,11.0,95.0
10046,72.0,49,30,10.0,95.0
10047,68.0,3,30,11.0,95.0
10048,53.0,4,120,13.0,108.0
10049,41.0,4,120,14.0,106.0
10050,72.0,57,30,10.0,95.0
10051,68.0,3,30,11.0,95.0
10052,70.0,52,30,10.0,95.0
10053,67.0,3,30,11.0,95.0
10054,60.0,5,90,3.0,121.0
10055,64.0,35,25,3.0,121.0
10056,68.0,22,30,10.0,95.0
10057,65.0,3,30,11.0,95.0
10058,65.0,5,60,3.0,110.0
10059,72.0,52,30,10.0,95.0
10060,68.0,3,30,11.0,95.0
10061,72.0,57,30,10.0,95.0
10062,68.0,1,30,11.0,95.0
10063,70.0,57,30,10.0,95.0
10064,72.0,2,90,1.0,119.0
10065,67.0,3,30,11.0,95.0
10066,76.0,29,25,1.0,119.0
10067,77.0,2,60,1.0,108.0
10068,65.0,1,110,11.0,95.0
10069,68.0,28,120,10.0,95.0
10070,84.0,118,90,0.0,119.0
10071,88.0,86,25,0.0,119.0
10072,89.0,30,60,0.0,108.0
10073,60.0,2,230,11.0,110.0
10074,56.0,2,230,12.0,110.0
10075,72.0,119,90,10.0,120.0
10076,76.0,85,20,10.0,120.0
10077,58.0,3,110,11.0,110.0
10078,55.0,2,110,12.0,110.0
10079,77.0,30,120,10.0,120.0
10080,56.0,3,120,11.0,110.0
10081,53.0,2,120,12.0,110.0
10082,87.0,116,120,0.0,88.0
10083,82.0,1,120,1.0,88.0
10084,67.0,6,120,3.0,100.0
10085,86.0,113,120,0.0,88.0
10086,81.0,1,120,1.0,88.0
10087,66.0,6,120,3.0,100.0
10088,84.0,113,115,0.0,88.0
10089,50.0,5,110,13.0,108.0
10090,78.0,1,115,1.0,88.0
10091,38.0,3,110,14.0,106.0
10092,62.0,1,115,3.0,100.0
10093,70.0,109,30,10.0,95.0
10094,67.0,1,30,11.0,95.0
10095,74.0,49,30,10.0,95.0
10096,70.0,3,30,11.0,95.0
10097,82.0,1,120,0.0,88.0
10098,74.0,1,120,1.0,88.0
10099,67.0,1,120,3.0,100.0
10100,74.0,57,30,10.0,95.0
10101,70.0,3,30,11.0,95.0
10102,74.0,57,30,10.0,95.0
10103,70.0,3,30,11.0,95.0
10104,74.0,57,30,10.0,95.0
10105,70.0,3,30,11.0,95.0
10106,74.0,57,30,10.0,95.0
10107,70.0,3,30,11.0,95.0
10108,55.0,4,350,13.0,108.0
10109,43.0,3,350,14.0,106.0
10110,74.0,57,30,10.0,95.0
10111,70.0,3,30,11.0,95.0
10112,72.0,49,30,10.0,95.0
10113,69.0,3,30,11.0,95.0
10114,50.0,4,90,13.0,108.0
10115,38.0,4,90,14.0,106.0
10116,54.0,34,20,13.0,108.0
10117,42.0,4,20,14.0,106.0
10118,70.0,19,30,10.0,95.0
10119,67.0,3,30,11.0,95.0
10120,74.0,49,30,10.0,95.0
10121,70.0,3,30,11.0,95.0
10122,55.0,4,120,13.0,108.0
10123,43.0,4,120,14.0,106.0
10124,74.0,57,30,10.0,95.0
10125,70.0,3,30,11.0,95.0
10126,72.0,52,30,10.0,95.0
10127,69.0,3,30,11.0,95.0
10128,62.0,5,90,3.0,121.0
10129,66.0,35,25,3.0,121.0
10130,70.0,22,30,10.0,95.0
10131,67.0,3,30,11.0,95.0
10132,67.0,5,60,3.0,110.0
10133,74.0,52,30,10.0,95.0
10134,70.0,3,30,11.0,95.0
10135,74.0,57,30,10.0,95.0
10136,70.0,1,30,11.0,95.0
10137,72.0,57,30,10.0,95.0
10138,74.0,2,90,1.0,119.0
10139,69.0,3,30,11.0,95.0
10140,78.0,29,25,1.0,119.0
10141,79.0,2,60,1.0,108.0
10142,67.0,1,110,11.0,95.0
10143,70.0,28,120,10.0,95.0
10144,86.0,118,90,0.0,119.0
10145,90.0,86,25,0.0,119.0
10146,91.0,30,60,0.0,108.0
10147,62.0,2,230,11.0,110.0
10148,58.0,2,230,12.0,110.0
10149,74.0,119,90,10.0,103.0
10150,78.0,85,20,10.0,103.0
10151,60.0,3,110,11.0,110.0
10152,57.0,2,110,12.0,110.0
10153,79.0,30,120,10.0,103.0
10154,58.0,3,120,11.0,110.0
10155,55.0,2,120,12.0,110.0
10156,82.0,117,120,1.0,98.0
10157,67.0,6,120,3.0,100.0
10158,81.0,114,120,1.0,98.0
10159,65.0,6,120,3.0,100.0
10160,57.0,3,90,12.0,110.0
10161,45.0,2,90,13.0,108.0
10162,33.0,3,90,14.0,106.0
10163,61.0,84,20,12.0,110.0
10164,49.0,2,20,13.0,108.0
10165,79.0,114,115,1.0,98.0
10166,37.0,4,20,14.0,106.0
10167,64.0,1,115,3.0,100.0
10168,77.0,21,120,1.0,98.0
10169,62.0,3,120,12.0,110.0
10170,53.0,2,120,13.0,108.0
10171,62.0,1,120,3.0,100.0
10172,41.0,3,120,14.0,106.0
10173,82.0,110,120,0.0,98.0
10174,73.0,1,120,1.0,98.0
10175,67.0,6,120,3.0,100.0
10176,81.0,113,120,0.0,98.0
10177,74.0,1,120,1.0,98.0
10178,65.0,6,120,3.0,100.0
10179,69.0,112,90,10.0,103.0
10180,57.0,1,90,11.0,120.0
10181,73.0,79,20,10.0,103.0
10182,61.0,3,20,11.0,120.0
10183,69.0,2,110,12.0,110.0
10184,79.0,1,115,0.0,98.0
10185,57.0,2,110,13.0,108.0
10186,76.0,1,115,1.0,98.0
10187,45.0,3,110,14.0,106.0
10188,61.0,1,115,3.0,100.0
10189,74.0,1,115,1.0,98.0
10190,74.0,27,120,10.0,103.0
10191,77.0,1,120,0.0,98.0
10192,62.0,1,120,11.0,120.0
10193,62.0,1,115,3.0,100.0
10194,62.0,2,120,12.0,110.0
10195,50.0,2,120,13.0,108.0
10196,38.0,3,120,14.0,106.0
10197,77.0,111,120,1.0,98.0
10198,62.0,6,120,3.0,100.0
10199,76.0,114,120,1.0,98.0
10200,60.0,6,120,3.0,100.0
10201,52.0,3,90,12.0,110.0
10202,52.0,2,90,13.0,108.0
10203,40.0,3,90,14.0,106.0
10204,56.0,84,20,12.0,110.0
10205,56.0,2,20,13.0,108.0
10206,44.0,4,20,14.0,106.0
10207,74.0,114,120,1.0,98.0
10208,59.0,1,120,3.0,100.0
10209,72.0,21,115,1.0,98.0
10210,57.0,1,115,3.0,100.0
10211,57.0,3,120,12.0,110.0
10212,57.0,2,120,13.0,108.0
10213,45.0,3,120,14.0,106.0
10214,80.0,110,120,0.0,98.0
10215,77.0,1,120,1.0,98.0
10216,62.0,6,120,3.0,100.0
10217,81.0,113,120,0.0,98.0
10218,76.0,1,120,1.0,98.0
10219,60.0,6,120,3.0,100.0
10220,76.0,112,90,10.0,103.0
10221,64.0,1,90,11.0,120.0
10222,80.0,79,20,10.0,103.0
10223,68.0,3,20,11.0,120.0
10224,64.0,2,110,12.0,110.0
10225,52.0,2,110,13.0,108.0
10226,83.0,1,120,0.0,98.0
10227,40.0,3,110,14.0,106.0
10228,74.0,1,120,1.0,98.0
10229,59.0,1,120,3.0,100.0
10230,84.0,1,115,0.0,98.0
10231,72.0,1,115,1.0,98.0
10232,81.0,27,120,10.0,103.0
10233,57.0,1,115,3.0,100.0
10234,69.0,1,120,11.0,120.0
10235,57.0,2,120,12.0,110.0
10236,45.0,2,120,13.0,108.0
10237,33.0,3,120,14.0,106.0
10238,84.0,110,120,0.0,98.0
10239,72.0,0,120,1.0,98.0
10240,57.0,6,120,3.0,100.0
10241,60.0,0,120,3.0,100.0
10242,83.0,113,120,0.0,98.0
10243,76.0,1,240,1.0,98.0
10244,71.0,1,120,1.0,98.0
10245,55.0,0,120,3.0,100.0
10246,59.0,6,120,3.0,100.0
10247,65.0,112,70,10.0,110.0
10248,65.0,1,70,11.0,110.0
10249,65.0,2,70,12.0,110.0
10250,53.0,2,70,13.0,108.0
10251,41.0,3,70,14.0,106.0
10252,65.0,79,20,10.0,110.0
10253,65.0,3,20,11.0,110.0
10254,65.0,2,20,12.0,110.0
10255,81.0,1,115,0.0,98.0
10256,75.0,0,115,1.0,98.0
10257,69.0,1,115,1.0,98.0
10258,53.0,2,20,13.0,108.0
10259,41.0,4,20,14.0,106.0
10260,53.0,0,115,3.0,100.0
10261,57.0,1,115,3.0,100.0
10262,80.0,1,120,0.0,98.0
10263,68.0,1,120,1.0,98.0
10264,76.0,0,120,1.0,98.0
10265,52.0,0,120,3.0,100.0
10266,56.0,1,120,3.0,100.0
10267,64.0,19,350,10.0,110.0
10268,64.0,1,350,11.0,110.0
10269,64.0,1,350,12.0,110.0
10270,52.0,2,350,13.0,108.0
10271,40.0,3,350,14.0,106.0
10272,59.0,349,90,10.0,110.0
10273,59.0,3,90,11.0,110.0
10274,59.0,2,90,12.0,110.0
10275,47.0,2,90,13.0,108.0
10276,35.0,4,90,14.0,106.0
10277,63.0,79,20,10.0,110.0
10278,63.0,3,20,11.0,110.0
10279,63.0,2,20,12.0,110.0
10280,51.0,2,20,13.0,108.0
10281,39.0,4,20,14.0,106.0
10282,64.0,19,30,10.0,110.0
10283,64.0,3,30,11.0,110.0
10284,64.0,2,30,12.0,110.0
10285,52.0,2,30,13.0,108.0
10286,40.0,4,30,14.0,106.0
10287,66.0,49,30,10.0,110.0
10288,66.0,3,30,11.0,110.0
10289,66.0,2,30,12.0,110.0
10290,54.0,2,30,13.0,108.0
10291,42.0,4,30,14.0,106.0
10292,68.0,49,30,10.0,110.0
10293,68.0,3,30,11.0,110.0
10294,68.0,2,30,12.0,110.0
10295,56.0,2,30,13.0,108.0
10296,44.0,4,30,14.0,106.0
10297,69.0,49,30,10.0,110.0
10298,69.0,3,30,11.0,110.0
10299,69.0,2,30,12.0,110.0
10300,57.0,2,30,13.0,108.0
10301,45.0,4,30,14.0,106.0
10302,71.0,49,30,10.0,110.0
10303,71.0,3,30,11.0,110.0
10304,71.0,2,30,12.0,110.0
10305,59.0,2,30,13.0,108.0
10306,47.0,4,30,14.0,106.0
10307,72.0,49,30,10.0,110.0
10308,72.0,3,30,11.0,110.0
10309,72.0,2,30,12.0,110.0
10310,60.0,2,30,13.0,108.0
10311,48.0,4,30,14.0,106.0
10312,74.0,49,30,10.0,110.0
10313,74.0,3,30,11.0,110.0
10314,74.0,2,30,12.0,110.0
10315,62.0,2,30,13.0,108.0
10316,50.0,4,30,14.0,106.0
10317,71.0,49,30,10.0,110.0
10318,71.0,3,30,11.0,110.0
10319,71.0,2,30,12.0,110.0
10320,59.0,2,30,13.0,108.0
10321,47.0,4,30,14.0,106.0
10322,64.0,0,945,6.0,104.0
10323,76.0,0,945,6.0,104.0
10324,64.0,0,945,4.0,102.0
10325,52.0,1,945,5.0,102.0
10326,69.0,49,120,10.0,110.0
10327,69.0,1,120,11.0,110.0
10328,69.0,1,120,12.0,110.0
10329,57.0,2,120,13.0,108.0
10330,45.0,3,120,14.0,106.0
10331,84.0,0,360,0.0,88.0
10332,81.0,1,360,0.0,88.0
10333,72.0,1,360,1.0,88.0
10334,69.0,0,360,1.0,88.0
10335,60.0,1,360,3.0,90.0
10336,57.0,0,360,3.0,90.0
10337,86.0,350,120,0.0,88.0
10338,83.0,0,120,0.0,88.0
10339,71.0,0,120,1.0,88.0
10340,74.0,0,0,1.0,88.0
10341,62.0,0,120,3.0,90.0
10342,59.0,6,120,3.0,90.0
10343,86.0,113,120,0.0,88.0
10344,89.0,0,120,0.0,88.0
10345,77.0,1,120,1.0,88.0
10346,65.0,6,120,3.0,90.0
10347,62.0,0,120,3.0,90.0
10348,88.0,0,120,0.0,88.0
10349,84.0,113,120,0.0,88.0
10350,72.0,1,120,1.0,88.0
10351,76.0,0,120,1.0,88.0
10352,60.0,6,120,3.0,90.0
10353,64.0,0,120,3.0,90.0
10354,83.0,0,120,0.0,88.0
10355,86.0,113,120,0.0,88.0
10356,74.0,1,120,1.0,88.0
10357,71.0,0,120,1.0,88.0
10358,59.0,6,120,3.0,90.0
10359,62.0,0,120,3.0,90.0
10360,57.0,112,30,10.0,110.0
10361,57.0,1,30,11.0,110.0
10362,57.0,2,30,12.0,110.0
10363,45.0,2,30,13.0,108.0
10364,33.0,3,30,14.0,106.0
10365,59.0,19,30,10.0,110.0
10366,59.0,3,30,11.0,110.0
10367,59.0,2,30,12.0,110.0
10368,47.0,2,30,13.0,108.0
10369,35.0,4,30,14.0,106.0
10370,60.0,19,30,10.0,110.0
10371,60.0,3,30,11.0,110.0
10372,60.0,2,30,12.0,110.0
10373,48.0,2,30,13.0,108.0
10374,36.0,4,30,14.0,106.0
10375,76.0,0,945,6.0,94.0
10376,64.0,0,945,4.0,102.0
10377,64.0,0,945,6.0,94.0
10378,52.0,1,945,5.0,102.0
10379,62.0,19,20,10.0,110.0
10380,62.0,3,20,11.0,110.0
10381,62.0,2,20,12.0,110.0
10382,50.0,2,20,13.0,108.0
10383,84.0,1,120,0.0,88.0
10384,81.0,0,120,0.0,88.0
10385,38.0,4,20,14.0,106.0
10386,72.0,1,120,1.0,88.0
10387,69.0,0,120,1.0,88.0
10388,57.0,1,120,3.0,90.0
10389,60.0,0,120,3.0,90.0
10390,80.0,1,120,0.0,88.0
10391,83.0,0,120,0.0,88.0
10392,71.0,0,120,1.0,88.0
10393,68.0,0,120,1.0,88.0
10394,64.0,0,1080,2.0,88.0
10395,76.0,0,1080,2.0,88.0
10396,56.0,0,120,3.0,90.0
10397,59.0,1,120,3.0,90.0
10398,64.0,19,350,10.0,110.0
10399,64.0,1,350,11.0,110.0
10400,64.0,1,350,12.0,110.0
10401,52.0,2,350,13.0,108.0
10402,40.0,3,350,14.0,106.0
10403,59.0,349,90,10.0,110.0
10404,59.0,3,90,11.0,110.0
10405,59.0,2,90,12.0,110.0
10406,47.0,2,90,13.0,108.0
10407,35.0,4,90,14.0,106.0
10408,63.0,79,20,10.0,110.0
10409,63.0,3,20,11.0,110.0
10410,63.0,2,20,12.0,110.0
10411,51.0,2,20,13.0,108.0
10412,39.0,4,20,14.0,106.0
10413,64.0,19,30,10.0,110.0
10414,64.0,3,30,11.0,110.0
10415,64.0,2,30,12.0,110.0
10416,52.0,2,30,13.0,108.0
10417,40.0,4,30,14.0,106.0
10418,66.0,49,30,10.0,110.0
10419,66.0,3,30,11.0,110.0
10420,66.0,2,30,12.0,110.0
10421,54.0,2,30,13.0,108.0
10422,42.0,4,30,14.0,106.0
10423,68.0,49,30,10.0,110.0
10424,68.0,3,30,11.0,110.0
10425,68.0,2,30,12.0,110.0
10426,56.0,2,30,13.0,108.0
10427,44.0,4,30,14.0,106.0
10428,69.0,49,30,10.0,110.0
10429,69.0,3,30,11.0,110.0
10430,69.0,2,30,12.0,110.0
10431,57.0,2,30,13.0,108.0
10432,45.0,4,30,14.0,106.0
10433,71.0,49,30,10.0,110.0
10434,71.0,3,30,11.0,110.0
10435,71.0,2,30,12.0,110.0
10436,59.0,2,30,13.0,108.0
10437,47.0,4,30,14.0,106.0
10438,72.0,49,30,10.0,110.0
10439,72.0,3,30,11.0,110.0
10440,72.0,2,30,12.0,110.0
10441,60.0,2,30,13.0,108.0
10442,48.0,4,30,14.0,106.0
10443,74.0,49,30,10.0,110.0
10444,74.0,3,30,11.0,110.0
10445,74.0,2,30,12.0,110.0
10446,62.0,2,30,13.0,108.0
10447,50.0,4,30,14.0,106.0
10448,71.0,49,30,10.0,110.0
10449,71.0,3,30,11.0,110.0
10450,71.0,2,30,12.0,110.0
10451,59.0,2,30,13.0,108.0
10452,47.0,4,30,14.0,106.0
10453,64.0,1,945,4.0,102.0
10454,64.0,0,945,6.0,94.0
10455,76.0,0,945,6.0,94.0
10456,52.0,1,945,5.0,102.0
10457,69.0,49,120,10.0,110.0
10458,69.0,0,120,11.0,110.0
10459,69.0,1,120,12.0,110.0
10460,57.0,2,120,13.0,108.0
10461,45.0,3,120,14.0,106.0
10462,81.0,1,360,0.0,88.0
10463,84.0,0,360,0.0,88.0
10464,69.0,0,360,1.0,88.0
10465,72.0,1,360,1.0,88.0
10466,57.0,1,360,3.0,90.0
10467,60.0,0,360,3.0,90.0
10468,86.0,0,120,0.0,88.0
10469,83.0,350,120,0.0,88.0
10470,74.0,0,120,1.0,88.0
10471,71.0,1,120,1.0,88.0
10472,59.0,0,120,3.0,90.0
10473,62.0,6,120,3.0,90.0
10474,86.0,0,120,0.0,88.0
10475,89.0,113,120,0.0,88.0
10476,77.0,1,120,1.0,88.0
10477,74.0,0,120,1.0,88.0
10478,62.0,0,120,3.0,90.0
10479,65.0,6,120,3.0,90.0
10480,84.0,113,120,0.0,88.0
10481,88.0,0,120,0.0,88.0
10482,72.0,1,120,1.0,88.0
10483,76.0,0,120,1.0,88.0
10484,60.0,0,120,3.0,90.0
10485,64.0,6,120,3.0,90.0
10486,86.0,113,120,0.0,88.0
10487,83.0,0,120,0.0,88.0
10488,74.0,0,120,1.0,88.0
10489,71.0,1,120,1.0,88.0
10490,62.0,0,120,3.0,90.0
10491,59.0,6,120,3.0,90.0
10492,57.0,112,30,10.0,110.0
10493,57.0,1,30,11.0,110.0
10494,57.0,2,30,12.0,110.0
10495,45.0,2,30,13.0,108.0
10496,33.0,3,30,14.0,106.0
10497,59.0,19,30,10.0,110.0
10498,59.0,3,30,11.0,110.0
10499,59.0,2,30,12.0,110.0
10500,47.0,2,30,13.0,108.0
10501,35.0,4,30,14.0,106.0
10502,60.0,19,30,10.0,110.0
10503,60.0,3,30,11.0,110.0
10504,60.0,2,30,12.0,110.0
10505,48.0,2,30,13.0,108.0
10506,36.0,4,30,14.0,106.0
10507,64.0,0,945,4.0,102.0
10508,64.0,0,945,6.0,94.0
10509,76.0,0,945,6.0,94.0
10510,52.0,1,945,5.0,102.0
10511,62.0,19,20,10.0,110.0
10512,62.0,3,20,11.0,110.0
10513,62.0,2,20,12.0,110.0
10514,81.0,1,115,0.0,88.0
10515,84.0,0,115,0.0,88.0
10516,72.0,1,115,1.0,88.0
10517,69.0,0,115,1.0,88.0
10518,50.0,2,20,13.0,108.0
10519,38.0,4,20,14.0,106.0
10520,57.0,1,115,3.0,90.0
10521,60.0,0,115,3.0,90.0
10522,80.0,0,60,0.0,88.0
10523,83.0,1,60,0.0,88.0
10524,71.0,0,60,1.0,88.0
10525,68.0,1,60,1.0,88.0
10526,59.0,1,60,3.0,90.0
10527,56.0,0,60,3.0,90.0
10528,64.0,19,120,10.0,110.0
10529,64.0,1,120,11.0,110.0
10530,64.0,0,1080,2.0,88.0
10531,76.0,1,1080,2.0,88.0
10532,64.0,1,120,12.0,110.0
10533,52.0,2,120,13.0,108.0
10534,40.0,3,120,14.0,106.0
10535,88.0,110,120,0.0,88.0
10536,84.0,0,120,0.0,88.0
10537,76.0,0,120,1.0,88.0
10538,72.0,1,120,1.0,88.0
10539,64.0,0,120,3.0,90.0
10540,60.0,6,120,3.0,90.0
10541,64.0,0,345,6.0,94.0
10542,76.0,0,345,6.0,94.0
10543,64.0,0,345,4.0,102.0
10544,52.0,1,345,5.0,102.0
10545,83.0,113,120,0.0,88.0
10546,86.0,0,120,0.0,88.0
10547,71.0,0,120,1.0,88.0
10548,74.0,1,120,1.0,88.0
10549,62.0,6,120,3.0,90.0
10550,59.0,0,120,3.0,90.0
10551,57.0,112,30,10.0,110.0
10552,57.0,0,30,11.0,110.0
10553,57.0,1,30,12.0,110.0
10554,45.0,2,30,13.0,108.0
10555,33.0,3,30,14.0,106.0
10556,59.0,19,30,10.0,110.0
10557,59.0,3,30,11.0,110.0
10558,59.0,2,30,12.0,110.0
10559,47.0,2,30,13.0,108.0
10560,35.0,4,30,14.0,106.0
10561,60.0,19,30,10.0,110.0
10562,60.0,3,30,11.0,110.0
10563,60.0,2,30,12.0,110.0
10564,48.0,2,30,13.0,108.0
10565,36.0,4,30,14.0,106.0
10566,64.0,0,105,4.0,102.0
10567,64.0,0,105,6.0,94.0
10568,76.0,0,105,6.0,94.0
10569,52.0,1,105,5.0,102.0
10570,62.0,19,20,10.0,110.0
10571,62.0,3,20,11.0,110.0
10572,62.0,2,20,12.0,110.0
10573,84.0,0,115,0.0,88.0
10574,81.0,1,115,0.0,88.0
10575,50.0,2,20,13.0,108.0
10576,72.0,1,115,1.0,88.0
10577,69.0,0,115,1.0,88.0
10578,38.0,4,20,14.0,106.0
10579,60.0,1,115,3.0,90.0
10580,57.0,0,115,3.0,90.0
10581,83.0,0,60,0.0,88.0
10582,80.0,1,60,0.0,88.0
10583,68.0,1,60,1.0,88.0
10584,71.0,0,60,1.0,88.0
10585,59.0,1,60,3.0,90.0
10586,56.0,0,60,3.0,90.0
10587,64.0,0,235,2.0,88.0
10588,76.0,1,235,2.0,88.0
10589,64.0,19,120,10.0,110.0
10590,64.0,1,120,11.0,110.0
10591,64.0,1,120,12.0,110.0
10592,52.0,2,120,13.0,108.0
10593,40.0,3,120,14.0,106.0
10594,88.0,110,120,0.0,88.0
10595,84.0,0,120,0.0,88.0
10596,72.0,1,120,1.0,88.0
10597,76.0,0,120,1.0,88.0
10598,60.0,0,120,3.0,90.0
10599,64.0,6,120,3.0,90.0
10600,64.0,0,345,4.0,102.0
10601,76.0,0,345,6.0,94.0
10602,64.0,0,345,6.0,94.0
10603,52.0,1,345,5.0,102.0
10604,86.0,113,120,0.0,88.0
10605,83.0,0,120,0.0,88.0
10606,71.0,0,120,1.0,88.0
10607,74.0,1,120,1.0,88.0
10608,59.0,0,120,3.0,90.0
10609,62.0,6,120,3.0,90.0
10610,57.0,112,30,10.0,110.0
10611,57.0,0,30,11.0,110.0
10612,57.0,1,30,12.0,110.0
10613,45.0,2,30,13.0,108.0
10614,33.0,3,30,14.0,106.0
10615,59.0,19,30,10.0,110.0
10616,59.0,3,30,11.0,110.0
10617,59.0,2,30,12.0,110.0
10618,47.0,2,30,13.0,108.0
10619,35.0,4,30,14.0,106.0
10620,60.0,19,30,10.0,110.0
10621,60.0,3,30,11.0,110.0
10622,60.0,2,30,12.0,110.0
10623,48.0,2,30,13.0,108.0
10624,36.0,4,30,14.0,106.0
10625,76.0,0,105,6.0,94.0
10626,64.0,0,105,4.0,102.0
10627,64.0,0,105,6.0,94.0
10628,52.0,1,105,5.0,102.0
10629,62.0,19,20,10.0,110.0
10630,62.0,3,20,11.0,110.0
10631,62.0,2,20,12.0,110.0
10632,84.0,0,115,0.0,88.0
10633,81.0,1,115,0.0,88.0
10634,50.0,2,20,13.0,108.0
10635,69.0,0,115,1.0,88.0
10636,72.0,1,115,1.0,88.0
10637,38.0,4,20,14.0,106.0
10638,57.0,0,115,3.0,90.0
10639,60.0,1,115,3.0,90.0
10640,64.0,0,235,2.0,88.0
10641,76.0,1,235,2.0,88.0
10642,64.0,19,120,10.0,110.0
10643,80.0,0,120,0.0,88.0
10644,83.0,1,120,0.0,88.0
10645,68.0,1,120,1.0,88.0
10646,64.0,0,120,6.0,94.0
10647,64.0,0,120,4.0,102.0
10648,71.0,0,120,1.0,88.0
10649,76.0,0,120,6.0,94.0
10650,64.0,1,120,11.0,110.0
10651,52.0,1,120,5.0,102.0
10652,64.0,1,120,12.0,110.0
10653,52.0,2,120,13.0,108.0
10654,59.0,1,120,3.0,90.0
10655,56.0,0,120,3.0,90.0
10656,40.0,3,120,14.0,106.0
10657,64.0,469,72,10.0,110.0
10658,76.0,0,72,10.0,110.0
10659,88.0,1,72,0.0,98.0
10660,76.0,0,72,0.0,98.0
10661,76.0,0,72,1.0,98.0
10662,64.0,1,72,6.0,104.0
10663,64.0,0,72,4.0,92.0
10664,64.0,0,72,1.0,98.0
10665,76.0,0,72,6.0,104.0
10666,76.0,1,72,11.0,110.0
10667,64.0,0,72,11.0,110.0
10668,76.0,0,72,2.0,98.0
10669,64.0,0,72,2.0,98.0
10670,52.0,1,72,5.0,102.0
10671,64.0,1,72,12.0,110.0
10672,52.0,2,72,13.0,108.0
10673,64.0,1,72,3.0,90.0
10674,52.0,0,72,3.0,90.0
10675,40.0,3,72,14.0,106.0
10676,64.0,0,72,10.0,110.0
10677,76.0,229,72,10.0,110.0
10678,76.0,1,72,0.0,98.0
10679,88.0,0,72,0.0,98.0
10680,64.0,0,72,4.0,92.0
10681,76.0,0,72,6.0,104.0
10682,64.0,0,72,6.0,104.0
10683,76.0,0,72,1.0,98.0
10684,64.0,1,72,1.0,98.0
10685,76.0,1,72,2.0,98.0
10686,64.0,0,72,11.0,110.0
10687,76.0,0,72,11.0,110.0
10688,64.0,0,72,2.0,98.0
10689,52.0,1,72,5.0,102.0
10690,64.0,1,72,12.0,110.0
10691,52.0,2,72,13.0,108.0
10692,52.0,1,72,3.0,90.0
10693,64.0,0,72,3.0,90.0
10694,40.0,3,72,14.0,106.0
10695,76.0,0,72,10.0,110.0
10696,64.0,229,72,10.0,110.0
10697,76.0,0,72,6.0,104.0
10698,64.0,0,72,4.0,92.0
10699,64.0,0,72,6.0,104.0
10700,76.0,0,72,11.0,110.0
10701,64.0,0,72,11.0,110.0
10702,52.0,1,72,5.0,102.0
10703,64.0,1,72,12.0,110.0
10704,52.0,2,72,13.0,108.0
10705,40.0,3,72,14.0,106.0
10706,76.0,1,955,0.0,98.0
10707,88.0,0,955,0.0,98.0
10708,76.0,1,955,1.0,98.0
10709,64.0,0,955,2.0,98.0
10710,76.0,1,955,2.0,98.0
10711,64.0,1,955,3.0,90.0
10712,52.0,0,955,3.0,90.0
10713,89.0,950,480,0.0,98.0
10714,77.0,0,480,0.0,98.0
10715,77.0,1,480,1.0,98.0
10716,65.0,0,480,3.0,100.0
10717,53.0,6,480,3.0,100.0
10718,74.0,473,480,0.0,98.0
10719,86.0,0,480,0.0,98.0
10720,74.0,1,480,1.0,98.0
10721,50.0,6,480,3.0,100.0
10722,62.0,0,480,3.0,100.0
10723,83.0,0,480,0.0,98.0
10724,71.0,473,480,0.0,98.0
10725,71.0,1,480,1.0,98.0
10726,47.0,0,480,3.0,100.0
10727,59.0,6,480,3.0,100.0
10728,67.0,352,30,10.0,110.0
10729,67.0,3,30,11.0,110.0
10730,67.0,2,30,12.0,110.0
10731,55.0,2,30,13.0,108.0
10732,43.0,4,30,14.0,106.0
10733,65.0,19,30,10.0,110.0
10734,65.0,3,30,11.0,110.0
10735,65.0,2,30,12.0,110.0
10736,53.0,2,30,13.0,108.0
10737,41.0,4,30,14.0,106.0
10738,64.0,19,30,10.0,110.0
10739,64.0,3,30,11.0,110.0
10740,64.0,2,30,12.0,110.0
10741,52.0,2,30,13.0,108.0
10742,40.0,4,30,14.0,106.0
10743,62.0,19,17,10.0,110.0
10744,62.0,3,17,11.0,110.0
10745,62.0,2,17,12.0,110.0
10746,50.0,2,17,13.0,108.0
10747,38.0,4,17,14.0,106.0
10748,67.0,473,480,0.0,98.0
10749,79.0,0,480,0.0,98.0
10750,67.0,1,480,1.0,98.0
10751,55.0,0,480,3.0,100.0
10752,43.0,6,480,3.0,100.0
10753,60.0,19,308,10.0,110.0
10754,84.0,1,308,0.0,98.0
10755,72.0,0,308,1.0,98.0
10756,72.0,0,308,2.0,98.0
10757,60.0,1,308,11.0,110.0
10758,60.0,1,308,12.0,110.0
10759,48.0,2,308,13.0,108.0
10760,48.0,1,308,3.0,100.0
10761,36.0,1,308,14.0,106.0
10762,72.0,0,360,6.0,96.0
10763,60.0,0,360,4.0,94.0
10764,60.0,1,360,6.0,96.0
10765,48.0,1,360,5.0,94.0
10766,48.0,2,360,15.0,77.0
10767,55.0,349,90,10.0,110.0
10768,79.0,1,90,0.0,98.0
10769,67.0,1,90,1.0,98.0
10770,67.0,1,90,2.0,98.0
10771,55.0,0,90,11.0,110.0
10772,55.0,2,90,12.0,110.0
10773,43.0,2,90,13.0,108.0
10774,43.0,1,90,3.0,100.0
10775,31.0,3,90,14.0,106.0
10776,59.0,79,20,10.0,110.0
10777,83.0,1,20,0.0,98.0
10778,71.0,1,20,1.0,98.0
10779,59.0,1,20,11.0,110.0
10780,71.0,0,20,2.0,98.0
10781,59.0,2,20,12.0,110.0
10782,47.0,2,20,13.0,108.0
10783,47.0,1,20,3.0,100.0
10784,35.0,3,20,14.0,106.0
10785,60.0,19,308,10.0,110.0
10786,84.0,1,308,0.0,98.0
10787,72.0,0,308,1.0,98.0
10788,72.0,1,308,2.0,98.0
10789,60.0,0,308,11.0,110.0
10790,60.0,1,308,12.0,110.0
10791,48.0,2,308,13.0,108.0
10792,48.0,1,308,3.0,100.0
10793,36.0,1,308,14.0,106.0
10794,60.0,0,360,4.0,94.0
10795,60.0,0,360,6.0,96.0
10796,72.0,1,360,6.0,96.0
10797,48.0,1,360,5.0,94.0
10798,48.0,2,360,15.0,81.0
10799,55.0,349,90,10.0,110.0
10800,79.0,1,90,0.0,98.0
10801,67.0,1,90,1.0,98.0
10802,67.0,1,90,2.0,98.0
10803,55.0,0,90,11.0,110.0
10804,55.0,2,90,12.0,110.0
10805,43.0,2,90,13.0,108.0
10806,43.0,1,90,3.0,100.0
10807,31.0,3,90,14.0,106.0
10808,59.0,79,20,10.0,110.0
10809,83.0,1,20,0.0,98.0
10810,71.0,1,20,1.0,98.0
10811,59.0,0,20,11.0,110.0
10812,71.0,1,20,2.0,98.0
10813,59.0,2,20,12.0,110.0
10814,47.0,2,20,13.0,108.0
10815,47.0,1,20,3.0,100.0
10816,35.0,3,20,14.0,106.0
10817,60.0,19,30,10.0,110.0
10818,84.0,1,30,0.0,98.0
10819,72.0,0,30,1.0,98.0
10820,60.0,0,30,11.0,110.0
10821,72.0,1,30,2.0,98.0
10822,60.0,1,30,12.0,110.0
10823,48.0,2,30,13.0,108.0
10824,48.0,1,30,3.0,100.0
10825,36.0,1,30,14.0,106.0
10826,60.0,49,30,10.0,110.0
10827,84.0,1,30,0.0,98.0
10828,72.0,1,30,1.0,98.0
10829,60.0,0,30,11.0,110.0
10830,72.0,1,30,2.0,98.0
10831,60.0,2,30,12.0,110.0
10832,48.0,2,30,13.0,108.0
10833,48.0,1,30,3.0,100.0
10834,36.0,3,30,14.0,106.0
10835,60.0,0,120,4.0,94.0
10836,60.0,1,120,6.0,96.0
10837,72.0,0,120,6.0,96.0
10838,48.0,1,120,5.0,94.0
10839,48.0,2,120,15.0,77.0
10840,55.0,49,30,10.0,110.0
10841,79.0,1,30,0.0,98.0
10842,67.0,1,30,1.0,98.0
10843,55.0,1,30,11.0,110.0
10844,67.0,0,30,2.0,98.0
10845,55.0,2,30,12.0,110.0
10846,43.0,2,30,13.0,108.0
10847,43.0,1,30,3.0,100.0
10848,31.0,3,30,14.0,106.0
10849,59.0,49,30,10.0,110.0
10850,83.0,1,30,0.0,98.0
10851,71.0,1,30,1.0,98.0
10852,71.0,0,30,2.0,98.0
10853,59.0,1,30,11.0,110.0
10854,59.0,2,30,12.0,110.0
10855,47.0,2,30,13.0,108.0
10856,47.0,1,30,3.0,100.0
10857,35.0,3,30,14.0,106.0
10858,60.0,49,30,10.0,110.0
10859,84.0,1,30,0.0,98.0
10860,72.0,0,30,1.0,98.0
10861,72.0,0,30,2.0,98.0
10862,60.0,1,30,11.0,110.0
10863,60.0,1,30,12.0,110.0
10864,48.0,2,30,13.0,108.0
10865,48.0,1,30,3.0,100.0
10866,36.0,1,30,14.0,106.0
10867,60.0,49,30,10.0,110.0
10868,84.0,1,30,0.0,98.0
10869,72.0,1,30,1.0,98.0
10870,60.0,0,30,11.0,110.0
10871,72.0,1,30,2.0,98.0
10872,60.0,2,30,12.0,110.0
10873,48.0,2,30,13.0,108.0
10874,48.0,1,30,3.0,100.0
10875,36.0,3,30,14.0,106.0
10876,60.0,1,120,4.0,94.0
10877,72.0,0,120,6.0,96.0
10878,60.0,0,120,6.0,96.0
10879,48.0,1,120,5.0,94.0
10880,48.0,2,120,15.0,77.0
10881,55.0,49,30,10.0,110.0
10882,79.0,1,30,0.0,98.0
10883,67.0,1,30,1.0,98.0
10884,67.0,0,30,2.0,98.0
10885,55.0,1,30,11.0,110.0
10886,55.0,2,30,12.0,110.0
10887,43.0,2,30,13.0,108.0
10888,43.0,1,30,3.0,100.0
10889,31.0,3,30,14.0,106.0
10890,59.0,49,30,10.0,110.0
10891,83.0,1,30,0.0,98.0
10892,71.0,1,30,1.0,98.0
10893,71.0,1,30,2.0,98.0
10894,59.0,0,30,11.0,110.0
10895,59.0,2,30,12.0,110.0
10896,47.0,2,30,13.0,108.0
10897,47.0,1,30,3.0,100.0
10898,35.0,3,30,14.0,106.0
10899,60.0,49,60,10.0,110.0
10900,84.0,1,60,0.0,98.0
10901,72.0,1,60,1.0,98.0
10902,60.0,0,60,11.0,110.0
10903,72.0,1,60,2.0,98.0
10904,60.0,1,60,12.0,110.0
10905,48.0,2,60,13.0,108.0
10906,48.0,1,60,3.0,100.0
10907,36.0,1,60,14.0,106.0
10908,60.0,0,120,6.0,96.0
10909,72.0,0,120,6.0,96.0
10910,60.0,0,120,4.0,94.0
10911,48.0,1,120,5.0,94.0
10912,48.0,2,120,15.0,77.0
10913,64.0,109,60,10.0,110.0
10914,88.0,1,60,0.0,98.0
10915,76.0,0,60,0.0,98.0
10916,76.0,1,60,1.0,98.0
10917,76.0,0,60,2.0,98.0
10918,64.0,1,60,11.0,110.0
10919,64.0,2,60,12.0,110.0
10920,52.0,2,60,13.0,108.0
10921,52.0,1,60,3.0,100.0
10922,40.0,3,60,14.0,106.0
10923,67.0,109,60,10.0,110.0
10924,79.0,0,60,0.0,98.0
10925,91.0,1,60,0.0,98.0
10926,79.0,1,60,1.0,98.0
10927,67.0,1,60,11.0,110.0
10928,79.0,0,60,2.0,98.0
10929,67.0,2,60,12.0,110.0
10930,55.0,2,60,13.0,108.0
10931,55.0,1,60,3.0,100.0
10932,43.0,3,60,14.0,106.0
10933,71.0,109,60,10.0,110.0
10934,83.0,1,60,0.0,98.0
10935,67.0,0,60,0.0,98.0
10936,71.0,1,60,1.0,98.0
10937,71.0,0,60,2.0,98.0
10938,71.0,1,60,11.0,110.0
10939,59.0,2,60,12.0,110.0
10940,59.0,2,60,13.0,108.0
10941,59.0,1,60,3.0,100.0
10942,47.0,3,60,14.0,106.0
10943,72.0,109,120,10.0,90.0
10944,72.0,0,120,0.0,98.0
10945,72.0,1,120,11.0,90.0
10946,72.0,0,120,2.0,98.0
10947,60.0,2,120,12.0,90.0
10948,60.0,2,120,13.0,88.0
10949,48.0,3,120,14.0,86.0
10950,84.0,1,480,0.0,88.0
10951,72.0,1,480,1.0,88.0
10952,76.0,0,480,1.0,88.0
10953,60.0,1,480,3.0,90.0
10954,69.0,352,30,10.0,110.0
10955,69.0,3,30,11.0,110.0
10956,57.0,2,30,12.0,110.0
10957,57.0,2,30,13.0,108.0
10958,45.0,4,30,14.0,106.0
10959,67.0,19,30,10.0,110.0
10960,67.0,3,30,11.0,110.0
10961,55.0,2,30,12.0,110.0
10962,55.0,2,30,13.0,108.0
10963,43.0,4,30,14.0,106.0
10964,65.0,19,30,10.0,110.0
10965,65.0,3,30,11.0,110.0
10966,53.0,2,30,12.0,110.0
10967,53.0,2,30,13.0,108.0
10968,41.0,4,30,14.0,106.0
10969,64.0,19,20,10.0,110.0
10970,64.0,3,20,11.0,110.0
10971,52.0,2,20,12.0,110.0
10972,52.0,2,20,13.0,108.0
10973,40.0,4,20,14.0,106.0
10974,85.0,470,480,0.0,88.0
10975,79.0,1,480,1.0,88.0
10976,73.0,0,480,1.0,88.0
10977,67.0,0,480,2.0,88.0
10978,64.0,1,480,2.0,88.0
10979,64.0,0,960,3.0,90.0
10980,57.0,5,480,3.0,90.0
10981,62.0,19,308,10.0,110.0
10982,86.0,1,308,0.0,98.0
10983,77.0,1,308,1.0,98.0
10984,74.0,0,308,1.0,98.0
10985,65.0,1,308,2.0,98.0
10986,62.0,0,308,11.0,110.0
10987,50.0,0,308,12.0,110.0
10988,62.0,1,308,12.0,110.0
10989,50.0,2,308,13.0,108.0
10990,50.0,1,308,3.0,100.0
10991,62.0,0,308,3.0,100.0
10992,38.0,3,308,14.0,106.0
10993,62.0,0,360,4.0,94.0
10994,62.0,1,360,5.0,94.0
10995,57.0,349,90,10.0,110.0
10996,81.0,1,90,0.0,98.0
10997,69.0,1,90,1.0,98.0
10998,57.0,0,90,11.0,110.0
10999,69.0,1,90,2.0,98.0
11000,57.0,2,90,12.0,110.0
11001,45.0,2,90,13.0,108.0
11002,57.0,0,90,3.0,100.0
11003,45.0,1,90,3.0,100.0
11004,33.0,3,90,14.0,106.0
11005,61.0,79,20,10.0,110.0
11006,85.0,1,20,0.0,98.0
11007,73.0,1,20,1.0,98.0
11008,61.0,0,20,11.0,110.0
11009,73.0,1,20,2.0,98.0
11010,61.0,2,20,12.0,110.0
11011,49.0,2,20,13.0,108.0
11012,49.0,1,20,3.0,100.0
11013,61.0,0,20,3.0,100.0
11014,37.0,3,20,14.0,106.0
11015,62.0,19,308,10.0,110.0
11016,86.0,1,308,0.0,98.0
11017,74.0,0,308,1.0,98.0
11018,74.0,0,308,2.0,98.0
11019,62.0,1,308,11.0,110.0
11020,62.0,1,308,12.0,110.0
11021,50.0,2,308,13.0,108.0
11022,62.0,0,308,3.0,100.0
11023,50.0,1,308,3.0,100.0
11024,38.0,3,308,14.0,106.0
11025,62.0,1,360,4.0,94.0
11026,74.0,0,360,6.0,96.0
11027,62.0,1,360,5.0,94.0
11028,57.0,349,90,10.0,110.0
11029,81.0,1,90,0.0,98.0
11030,69.0,1,90,1.0,98.0
11031,69.0,0,90,2.0,98.0
11032,57.0,1,90,11.0,110.0
11033,57.0,2,90,12.0,110.0
11034,45.0,2,90,13.0,108.0
11035,45.0,0,90,3.0,100.0
11036,57.0,1,90,3.0,100.0
11037,33.0,3,90,14.0,106.0
11038,61.0,79,20,10.0,110.0
11039,85.0,1,20,0.0,98.0
11040,73.0,1,20,1.0,98.0
11041,73.0,0,20,2.0,98.0
11042,61.0,1,20,11.0,110.0
11043,61.0,2,20,12.0,110.0
11044,49.0,2,20,13.0,108.0
11045,61.0,1,20,3.0,100.0
11046,49.0,0,20,3.0,100.0
11047,37.0,3,20,14.0,106.0
11048,62.0,19,30,10.0,110.0
11049,86.0,1,30,0.0,98.0
11050,74.0,1,30,1.0,98.0
11051,74.0,1,30,2.0,98.0
11052,62.0,0,30,11.0,110.0
11053,62.0,1,30,12.0,110.0
11054,50.0,2,30,13.0,108.0
11055,62.0,0,30,3.0,100.0
11056,50.0,1,30,3.0,100.0
11057,38.0,3,30,14.0,106.0
11058,62.0,49,30,10.0,110.0
11059,86.0,1,30,0.0,98.0
11060,74.0,1,30,1.0,98.0
11061,74.0,1,30,2.0,98.0
11062,62.0,0,30,11.0,110.0
11063,62.0,2,30,12.0,110.0
11064,50.0,2,30,13.0,108.0
11065,62.0,0,30,3.0,100.0
11066,50.0,1,30,3.0,100.0
11067,38.0,3,30,14.0,106.0
11068,62.0,0,120,4.0,94.0
11069,74.0,0,120,6.0,96.0
11070,62.0,1,120,5.0,94.0
11071,57.0,49,30,10.0,110.0
11072,81.0,1,30,0.0,98.0
11073,69.0,1,30,1.0,98.0
11074,69.0,1,30,2.0,98.0
11075,57.0,0,30,11.0,110.0
11076,57.0,2,30,12.0,110.0
11077,45.0,2,30,13.0,108.0
11078,45.0,0,30,3.0,100.0
11079,57.0,1,30,3.0,100.0
11080,33.0,3,30,14.0,106.0
11081,61.0,49,30,10.0,110.0
11082,85.0,1,30,0.0,98.0
11083,73.0,1,30,1.0,98.0
11084,61.0,1,30,11.0,110.0
11085,73.0,0,30,2.0,98.0
11086,61.0,2,30,12.0,110.0
11087,49.0,2,30,13.0,108.0
11088,49.0,1,30,3.0,100.0
11089,61.0,0,30,3.0,100.0
11090,37.0,3,30,14.0,106.0
11091,62.0,49,30,10.0,110.0
11092,86.0,1,30,0.0,98.0
11093,74.0,0,30,1.0,98.0
11094,62.0,0,30,11.0,110.0
11095,74.0,1,30,2.0,98.0
11096,62.0,1,30,12.0,110.0
11097,50.0,2,30,13.0,108.0
11098,62.0,1,30,3.0,100.0
11099,50.0,0,30,3.0,100.0
11100,38.0,3,30,14.0,106.0
11101,62.0,49,30,10.0,110.0
11102,86.0,1,30,0.0,98.0
11103,74.0,1,30,1.0,98.0
11104,62.0,0,30,11.0,110.0
11105,74.0,1,30,2.0,98.0
11106,62.0,2,30,12.0,110.0
11107,50.0,2,30,13.0,108.0
11108,62.0,1,30,3.0,100.0
11109,50.0,0,30,3.0,100.0
11110,38.0,3,30,14.0,106.0
11111,62.0,0,120,4.0,94.0
11112,74.0,1,120,6.0,96.0
11113,62.0,1,120,5.0,94.0
11114,57.0,49,30,10.0,110.0
11115,81.0,1,30,0.0,98.0
11116,69.0,1,30,1.0,98.0
11117,57.0,0,30,11.0,110.0
11118,69.0,1,30,2.0,98.0
11119,57.0,2,30,12.0,110.0
11120,45.0,2,30,13.0,108.0
11121,57.0,1,30,3.0,100.0
11122,45.0,0,30,3.0,100.0
11123,33.0,3,30,14.0,106.0
11124,61.0,49,30,10.0,110.0
11125,85.0,1,30,0.0,98.0
11126,73.0,1,30,1.0,98.0
11127,73.0,1,30,2.0,98.0
11128,61.0,0,30,11.0,110.0
11129,61.0,2,30,12.0,110.0
11130,49.0,2,30,13.0,108.0
11131,49.0,0,30,3.0,100.0
11132,61.0,1,30,3.0,100.0
11133,37.0,3,30,14.0,106.0
11134,62.0,49,60,10.0,110.0
11135,86.0,1,60,0.0,98.0
11136,74.0,0,60,1.0,98.0
11137,62.0,1,60,11.0,110.0
11138,74.0,0,60,2.0,98.0
11139,62.0,1,60,12.0,110.0
11140,50.0,2,60,13.0,108.0
11141,50.0,1,60,3.0,100.0
11142,62.0,0,60,3.0,100.0
11143,38.0,3,60,14.0,106.0
11144,74.0,1,120,6.0,96.0
11145,62.0,0,120,4.0,94.0
11146,62.0,1,120,5.0,94.0
11147,65.0,109,60,10.0,110.0
11148,77.0,1,60,0.0,98.0
11149,77.0,1,60,1.0,98.0
11150,65.0,0,60,11.0,110.0
11151,77.0,1,60,2.0,98.0
11152,65.0,2,60,12.0,110.0
11153,53.0,2,60,13.0,108.0
11154,53.0,1,60,3.0,100.0
11155,41.0,3,60,14.0,106.0
11156,69.0,109,60,10.0,110.0
11157,81.0,1,60,0.0,98.0
11158,81.0,1,60,1.0,98.0
11159,69.0,1,60,11.0,110.0
11160,81.0,0,60,2.0,98.0
11161,69.0,2,60,12.0,110.0
11162,57.0,2,60,13.0,108.0
11163,57.0,1,60,3.0,100.0
11164,45.0,3,60,14.0,106.0
11165,73.0,109,60,10.0,110.0
11166,73.0,1,60,0.0,98.0
11167,73.0,1,60,1.0,98.0
11168,73.0,1,60,11.0,110.0
11169,73.0,0,60,2.0,98.0
11170,61.0,2,60,12.0,110.0
11171,61.0,2,60,13.0,108.0
11172,61.0,1,60,3.0,100.0
11173,49.0,3,60,14.0,106.0
11174,74.0,109,120,10.0,64.0
11175,74.0,0,120,11.0,64.0
11176,62.0,2,120,12.0,64.0
11177,62.0,2,120,13.0,62.0
11178,50.0,3,120,14.0,60.0
11179,74.0,2,480,1.0,88.0
11180,65.0,1,480,2.0,88.0
11181,69.0,0,480,2.0,88.0
11182,62.0,1,480,3.0,90.0
11183,60.0,357,30,12.0,110.0
11184,60.0,2,30,13.0,108.0
11185,48.0,4,30,14.0,106.0
11186,58.0,24,30,12.0,110.0
11187,58.0,2,30,13.0,108.0
11188,46.0,4,30,14.0,106.0
11189,57.0,24,30,12.0,110.0
11190,57.0,2,30,13.0,108.0
11191,45.0,4,30,14.0,106.0
11192,55.0,24,20,12.0,110.0
11193,55.0,2,20,13.0,108.0
11194,43.0,4,20,14.0,106.0
11195,76.0,471,480,1.0,88.0
11196,67.0,0,480,2.0,88.0
11197,70.0,1,480,2.0,88.0
11198,48.0,4,480,3.0,90.0
11199,60.0,0,600,4.0,84.0
11200,60.0,0,600,6.0,86.0
11201,48.0,1,600,5.0,84.0
11202,53.0,2,120,12.0,110.0
11203,53.0,2,120,13.0,108.0
11204,41.0,3,120,14.0,106.0
11205,77.0,21,480,1.0,88.0
11206,69.0,0,480,1.0,88.0
11207,65.0,1,480,2.0,88.0
11208,69.0,0,480,2.0,88.0
11209,60.0,0,960,3.0,90.0
11210,53.0,1,480,3.0,90.0
11211,74.0,352,30,10.0,110.0
11212,62.0,3,30,11.0,110.0
11213,72.0,27,30,10.0,110.0
11214,60.0,3,30,11.0,110.0
11215,71.0,27,30,10.0,110.0
11216,59.0,3,30,11.0,110.0
11217,69.0,27,20,10.0,110.0
11218,57.0,3,20,11.0,110.0
11219,78.0,471,480,1.0,88.0
11220,72.0,0,480,1.0,88.0
11221,72.0,0,480,2.0,88.0
11222,66.0,1,480,2.0,88.0
11223,50.0,4,480,3.0,90.0
11224,67.0,27,120,10.0,110.0
11225,55.0,0,120,11.0,110.0
11226,71.0,0,240,1.0,88.0
11227,79.0,2,240,1.0,88.0
11228,62.0,0,720,4.0,94.0
11229,71.0,0,240,2.0,88.0
11230,67.0,1,240,2.0,88.0
11231,62.0,1,720,5.0,94.0
11232,55.0,5,240,3.0,90.0
11233,62.0,0,720,3.0,90.0
11234,64.0,117,30,12.0,110.0
11235,52.0,2,30,13.0,108.0
11236,40.0,4,30,14.0,106.0
11237,62.0,24,30,12.0,110.0
11238,50.0,2,30,13.0,108.0
11239,38.0,4,30,14.0,106.0
11240,60.0,24,30,12.0,110.0
11241,48.0,2,30,13.0,108.0
11242,36.0,4,30,14.0,106.0
11243,59.0,24,20,12.0,110.0
11244,47.0,2,20,13.0,108.0
11245,35.0,4,20,14.0,106.0
11246,71.0,0,240,1.0,88.0
11247,80.0,234,240,1.0,88.0
11248,74.0,0,240,2.0,88.0
11249,68.0,1,240,2.0,88.0
11250,52.0,4,240,3.0,90.0
11251,57.0,2,120,12.0,110.0
11252,45.0,2,120,13.0,108.0
11253,33.0,3,120,14.0,106.0
11254,72.0,0,240,1.0,88.0
11255,64.0,0,480,4.0,94.0
11256,81.0,1,0,1.0,88.0
11257,72.0,1,0,2.0,88.0
11258,69.0,0,240,2.0,88.0
11259,52.0,1,480,5.0,94.0
11260,64.0,0,480,3.0,90.0
11261,57.0,1,240,3.0,90.0
11262,77.0,112,30,10.0,110.0
11263,65.0,3,30,11.0,110.0
11264,75.0,27,30,10.0,110.0
11265,63.0,3,30,11.0,110.0
11266,74.0,27,30,10.0,110.0
11267,62.0,3,30,11.0,110.0
11268,72.0,27,20,10.0,110.0
11269,60.0,3,20,11.0,110.0
11270,81.0,230,240,0.0,88.0
11271,75.0,0,240,1.0,88.0
11272,69.0,0,240,2.0,88.0
11273,53.0,0,240,3.0,90.0
11274,70.0,27,120,10.0,110.0
11275,58.0,0,120,11.0,110.0
11276,82.0,1,240,0.0,88.0
11277,82.0,1,240,1.0,88.0
11278,74.0,0,240,2.0,88.0
11279,70.0,1,240,2.0,88.0
11280,58.0,5,240,3.0,90.0
11281,65.0,5,480,3.0,90.0
11282,74.0,0,360,1.0,88.0
11283,67.0,3,30,12.0,110.0
11284,55.0,2,30,13.0,108.0
11285,43.0,4,30,14.0,106.0
11286,65.0,24,30,12.0,110.0
11287,53.0,2,30,13.0,108.0
11288,41.0,4,30,14.0,106.0
11289,64.0,24,30,12.0,110.0
11290,52.0,2,30,13.0,108.0
11291,40.0,4,30,14.0,106.0
11292,62.0,24,20,12.0,110.0
11293,50.0,2,20,13.0,108.0
11294,38.0,4,20,14.0,106.0
11295,83.0,233,240,0.0,88.0
11296,71.0,114,120,1.0,88.0
11297,67.0,1,240,4.0,94.0
11298,77.0,0,240,1.0,88.0
11299,71.0,0,240,2.0,88.0
11300,77.0,1,240,2.0,88.0
11301,55.0,1,240,5.0,94.0
11302,55.0,0,240,3.0,90.0
11303,60.0,1,120,12.0,110.0
11304,48.0,2,120,13.0,108.0
11305,36.0,3,120,14.0,106.0
11306,84.0,20,240,0.0,88.0
11307,60.0,0,240,4.0,94.0
11308,76.0,1,0,1.0,88.0
11309,72.0,0,240,1.0,88.0
11310,76.0,1,240,2.0,88.0
11311,72.0,0,240,2.0,88.0
11312,48.0,1,240,5.0,94.0
11313,60.0,1,240,3.0,90.0
11314,67.0,4,480,3.0,90.0
11315,81.0,112,30,10.0,110.0
11316,69.0,3,30,11.0,110.0
11317,79.0,27,30,10.0,110.0
11318,67.0,3,30,11.0,110.0
11319,77.0,27,30,10.0,110.0
11320,65.0,3,30,11.0,110.0
11321,76.0,27,20,10.0,110.0
11322,64.0,3,20,11.0,110.0
11323,79.0,230,240,0.0,88.0
11324,85.0,0,240,0.0,88.0
11325,73.0,0,240,1.0,88.0
11326,67.0,0,240,3.0,90.0
11327,57.0,6,240,3.0,90.0
11328,74.0,27,120,10.0,110.0
11329,62.0,1,120,11.0,110.0
11330,77.0,0,240,0.0,88.0
11331,86.0,1,240,0.0,88.0
11332,77.0,0,240,1.0,88.0
11333,74.0,1,240,1.0,88.0
11334,62.0,5,240,3.0,90.0
11335,65.0,0,240,3.0,90.0
11336,72.0,117,30,12.0,110.0
11337,60.0,2,30,13.0,108.0
11338,48.0,4,30,14.0,106.0
11339,70.0,24,30,12.0,110.0
11340,58.0,2,30,13.0,108.0
11341,46.0,4,30,14.0,106.0
11342,69.0,24,30,12.0,110.0
11343,57.0,2,30,13.0,108.0
11344,45.0,4,30,14.0,106.0
11345,67.0,24,20,12.0,110.0
11346,55.0,2,20,13.0,108.0
11347,88.0,0,240,0.0,88.0
11348,43.0,4,20,14.0,106.0
11349,82.0,233,240,0.0,88.0
11350,70.0,0,240,1.0,88.0
11351,76.0,1,240,1.0,88.0
11352,67.0,1,240,2.0,88.0
11353,70.0,0,240,2.0,88.0
11354,60.0,0,240,3.0,90.0
11355,67.0,5,240,3.0,90.0
11356,65.0,2,60,12.0,110.0
11357,53.0,2,60,13.0,108.0
11358,41.0,3,60,14.0,106.0
11359,81.0,109,30,10.0,110.0
11360,69.0,3,30,11.0,110.0
11361,69.0,2,30,12.0,110.0
11362,57.0,2,30,13.0,108.0
11363,45.0,4,30,14.0,106.0
11364,79.0,19,30,10.0,110.0
11365,67.0,3,30,11.0,110.0
11366,67.0,2,30,12.0,110.0
11367,55.0,2,30,13.0,108.0
11368,43.0,4,30,14.0,106.0
11369,77.0,19,30,10.0,110.0
11370,65.0,3,30,11.0,110.0
11371,65.0,2,30,12.0,110.0
11372,53.0,2,30,13.0,108.0
11373,41.0,4,30,14.0,106.0
11374,76.0,19,20,10.0,110.0
11375,64.0,3,20,11.0,110.0
11376,64.0,2,20,12.0,110.0
11377,52.0,2,20,13.0,108.0
11378,40.0,4,20,14.0,106.0
11379,89.0,0,240,0.0,88.0
11380,81.0,20,240,0.0,88.0
11381,77.0,0,240,1.0,88.0
11382,69.0,1,240,1.0,88.0
11383,69.0,0,240,2.0,88.0
11384,65.0,1,240,2.0,88.0
11385,53.0,1,240,3.0,90.0
11386,65.0,0,240,3.0,90.0
11387,74.0,19,60,10.0,110.0
11388,62.0,1,60,11.0,110.0
11389,62.0,1,60,12.0,110.0
11390,50.0,2,60,13.0,108.0
11391,38.0,3,60,14.0,106.0
11392,74.0,109,30,10.0,110.0
11393,62.0,3,30,11.0,110.0
11394,62.0,2,30,12.0,110.0
11395,50.0,2,30,13.0,108.0
11396,38.0,4,30,14.0,106.0
11397,72.0,19,30,10.0,110.0
11398,60.0,3,30,11.0,110.0
11399,60.0,2,30,12.0,110.0
11400,48.0,2,30,13.0,108.0
11401,36.0,4,30,14.0,106.0
11402,71.0,19,30,10.0,110.0
11403,59.0,3,30,11.0,110.0
11404,59.0,2,30,12.0,110.0
11405,47.0,2,30,13.0,108.0
11406,35.0,4,30,14.0,106.0
11407,69.0,19,20,10.0,110.0
11408,57.0,3,20,11.0,110.0
11409,57.0,2,20,12.0,110.0
11410,45.0,2,20,13.0,108.0
11411,33.0,4,20,14.0,106.0
11412,84.0,1,240,0.0,88.0
11413,90.0,0,240,0.0,88.0
11414,74.0,0,240,6.0,96.0
11415,72.0,1,240,1.0,88.0
11416,62.0,0,0,4.0,94.0
11417,78.0,0,240,1.0,88.0
11418,72.0,0,240,2.0,88.0
11419,69.0,0,240,2.0,88.0
11420,62.0,1,240,5.0,94.0
11421,62.0,1,240,3.0,90.0
11422,50.0,0,240,3.0,90.0
11423,55.0,1,50,12.0,110.0
11424,43.0,2,50,13.0,108.0
11425,67.0,19,60,10.0,110.0
11426,31.0,1,50,14.0,106.0
11427,55.0,0,60,11.0,110.0
11428,59.0,54,50,12.0,110.0
11429,62.0,0,50,12.0,110.0
11430,55.0,2,50,13.0,108.0
11431,43.0,4,50,14.0,106.0
11432,67.0,1,120,6.0,96.0
11433,43.0,2,120,15.0,97.0
11434,62.0,2,50,12.0,110.0
11435,59.0,0,50,12.0,110.0
11436,55.0,2,50,13.0,108.0
11437,43.0,4,50,14.0,106.0
11438,62.0,54,50,12.0,110.0
11439,59.0,0,50,12.0,110.0
11440,55.0,2,50,13.0,108.0
11441,43.0,4,50,14.0,106.0
11442,59.0,0,50,12.0,110.0
11443,62.0,54,50,12.0,110.0
11444,55.0,2,50,13.0,108.0
11445,43.0,4,50,14.0,106.0
11446,79.0,49,230,10.0,110.0
11447,91.0,0,352,0.0,88.0
11448,67.0,3,230,11.0,110.0
11449,71.0,0,352,1.0,88.0
11450,79.0,0,352,1.0,88.0
11451,67.0,0,352,2.0,88.0
11452,71.0,1,352,2.0,88.0
11453,59.0,0,50,12.0,110.0
11454,62.0,54,50,12.0,110.0
11455,55.0,2,50,13.0,108.0
11456,55.0,1,352,3.0,90.0
11457,43.0,0,352,3.0,90.0
11458,43.0,4,50,14.0,106.0
11459,79.0,49,30,10.0,110.0
11460,67.0,1,30,11.0,110.0
11461,59.0,0,50,12.0,110.0
11462,62.0,2,50,12.0,110.0
11463,55.0,2,50,13.0,108.0
11464,77.0,19,30,10.0,110.0
11465,43.0,3,50,14.0,106.0
11466,65.0,3,30,11.0,110.0
11467,76.0,27,30,10.0,110.0
11468,64.0,3,30,11.0,110.0
11469,74.0,19,20,10.0,110.0
11470,62.0,3,20,11.0,110.0
11471,89.0,1,112,0.0,98.0
11472,83.0,1,472,0.0,88.0
11473,77.0,0,112,1.0,98.0
11474,71.0,1,112,1.0,98.0
11475,59.0,2,50,12.0,110.0
11476,62.0,0,50,12.0,110.0
11477,71.0,0,112,2.0,98.0
11478,77.0,0,112,2.0,98.0
11479,55.0,2,50,13.0,108.0
11480,59.0,1,112,3.0,100.0
11481,62.0,0,112,3.0,100.0
11482,43.0,4,50,14.0,106.0
11483,55.0,1,480,5.0,94.0
11484,60.0,0,50,12.0,110.0
11485,64.0,1,50,12.0,110.0
11486,55.0,2,50,13.0,108.0
11487,76.0,27,60,10.0,110.0
11488,43.0,3,50,14.0,106.0
11489,64.0,0,60,11.0,110.0
11490,88.0,1,112,0.0,98.0
11491,84.0,0,112,0.0,98.0
11492,72.0,1,112,1.0,98.0
11493,76.0,0,112,1.0,98.0
11494,60.0,54,50,12.0,110.0
11495,72.0,0,112,2.0,98.0
11496,76.0,1,112,2.0,98.0
11497,64.0,0,50,12.0,110.0
11498,55.0,2,50,13.0,108.0
11499,60.0,0,112,3.0,100.0
11500,64.0,1,112,3.0,100.0
11501,43.0,4,50,14.0,106.0
11502,64.0,0,120,4.0,94.0
11503,60.0,1,120,5.0,94.0
11504,76.0,49,30,10.0,110.0
11505,64.0,0,30,11.0,110.0
11506,64.0,1,50,12.0,110.0
11507,60.0,0,50,12.0,110.0
11508,55.0,2,50,13.0,108.0
11509,74.0,19,30,10.0,110.0
11510,43.0,1,50,14.0,106.0
11511,62.0,3,30,11.0,110.0
11512,72.0,27,30,10.0,110.0
11513,60.0,3,30,11.0,110.0
11514,71.0,19,20,10.0,110.0
11515,59.0,3,20,11.0,110.0
11516,76.0,1,112,0.0,98.0
11517,84.0,0,112,0.0,98.0
11518,72.0,1,112,1.0,98.0
11519,76.0,0,112,1.0,98.0
11520,60.0,2,50,12.0,110.0
11521,76.0,1,112,2.0,98.0
11522,64.0,0,50,12.0,110.0
11523,72.0,0,112,2.0,98.0
11524,55.0,2,50,13.0,108.0
11525,64.0,0,112,3.0,100.0
11526,60.0,1,112,3.0,100.0
11527,43.0,4,50,14.0,106.0
11528,67.0,0,120,4.0,94.0
11529,72.0,0,120,6.0,96.0
11530,60.0,0,0,6.0,96.0
11531,55.0,1,120,5.0,94.0
11532,43.0,2,120,15.0,97.0
11533,69.0,0,50,12.0,110.0
11534,60.0,1,50,12.0,110.0
11535,55.0,2,50,13.0,108.0
11536,72.0,27,60,10.0,110.0
11537,43.0,1,50,14.0,106.0
11538,60.0,1,60,11.0,110.0
11539,81.0,0,112,0.0,98.0
11540,72.0,1,112,0.0,98.0
11541,69.0,0,112,1.0,98.0
11542,72.0,1,112,1.0,98.0
11543,69.0,0,112,2.0,98.0
11544,60.0,54,50,12.0,110.0
11545,69.0,0,50,12.0,110.0
11546,72.0,0,112,2.0,98.0
11547,55.0,2,50,13.0,108.0
11548,57.0,1,112,3.0,100.0
11549,60.0,0,112,3.0,100.0
11550,43.0,4,50,14.0,106.0
11551,72.0,0,120,6.0,96.0
11552,67.0,0,0,4.0,94.0
11553,55.0,1,0,5.0,94.0
11554,43.0,2,120,15.0,97.0
11555,72.0,49,30,10.0,110.0
11556,72.0,0,30,11.0,110.0
11557,69.0,0,50,12.0,110.0
11558,60.0,1,50,12.0,110.0
11559,55.0,2,50,13.0,108.0
11560,69.0,19,30,10.0,110.0
11561,43.0,1,50,14.0,106.0
11562,69.0,3,30,11.0,110.0
11563,67.0,27,30,10.0,110.0
11564,67.0,3,30,11.0,110.0
11565,66.0,19,20,10.0,110.0
11566,78.0,1,112,0.0,98.0
11567,66.0,3,20,11.0,110.0
11568,72.0,0,112,0.0,98.0
11569,69.0,0,112,1.0,98.0
11570,72.0,0,112,1.0,98.0
11571,60.0,0,50,12.0,110.0
11572,69.0,2,50,12.0,110.0
11573,72.0,0,112,2.0,98.0
11574,69.0,1,112,2.0,98.0
11575,55.0,2,50,13.0,108.0
11576,60.0,1,112,3.0,100.0
11577,57.0,0,112,3.0,100.0
11578,43.0,4,50,14.0,106.0
11579,60.0,1,120,6.0,96.0
11580,72.0,0,120,6.0,96.0
11581,43.0,2,120,15.0,97.0
11582,67.0,0,50,12.0,110.0
11583,59.0,1,50,12.0,110.0
11584,43.0,2,50,13.0,108.0
11585,67.0,27,60,10.0,110.0
11586,31.0,1,50,14.0,106.0
11587,67.0,0,60,11.0,110.0
11588,79.0,0,112,0.0,98.0
11589,71.0,1,112,0.0,98.0
11590,71.0,0,112,1.0,98.0
11591,62.0,54,50,12.0,110.0
11592,59.0,0,50,12.0,110.0
11593,71.0,1,112,2.0,98.0
11594,55.0,2,50,13.0,108.0
11595,55.0,0,112,3.0,100.0
11596,59.0,1,112,3.0,100.0
11597,43.0,4,50,14.0,106.0
11598,55.0,0,120,6.0,96.0
11599,67.0,1,120,6.0,96.0
11600,43.0,2,120,15.0,97.0
11601,62.0,0,50,12.0,110.0
11602,59.0,2,50,12.0,110.0
11603,55.0,2,50,13.0,108.0
11604,43.0,3,50,14.0,106.0
11605,71.0,0,112,1.0,98.0
11606,71.0,0,112,2.0,98.0
11607,62.0,54,50,12.0,110.0
11608,59.0,0,50,12.0,110.0
11609,55.0,2,50,13.0,108.0
11610,59.0,1,112,3.0,100.0
11611,55.0,0,112,3.0,100.0
11612,43.0,4,50,14.0,106.0
11613,62.0,0,50,12.0,110.0
11614,59.0,2,50,12.0,110.0
11615,55.0,2,50,13.0,108.0
11616,43.0,3,50,14.0,106.0
11617,79.0,49,230,10.0,110.0
11618,91.0,1,232,0.0,98.0
11619,67.0,0,230,11.0,110.0
11620,83.0,0,232,0.0,98.0
11621,74.0,51,112,1.0,98.0
11622,79.0,1,232,1.0,98.0
11623,79.0,1,232,2.0,98.0
11624,62.0,54,50,12.0,110.0
11625,74.0,1,112,2.0,98.0
11626,59.0,0,50,12.0,110.0
11627,55.0,2,50,13.0,108.0
11628,62.0,1,112,3.0,100.0
11629,59.0,0,112,3.0,100.0
11630,43.0,4,50,14.0,106.0
11631,67.0,0,360,4.0,94.0
11632,55.0,1,0,5.0,94.0
11633,79.0,49,30,10.0,110.0
11634,67.0,1,30,11.0,110.0
11635,62.0,0,50,12.0,110.0
11636,59.0,1,50,12.0,110.0
11637,55.0,2,50,13.0,108.0
11638,77.0,19,30,10.0,110.0
11639,43.0,3,50,14.0,106.0
11640,65.0,3,30,11.0,110.0
11641,76.0,27,30,10.0,110.0
11642,64.0,3,30,11.0,110.0
11643,74.0,19,20,10.0,110.0
11644,86.0,1,112,0.0,98.0
11645,62.0,3,20,11.0,110.0
11646,89.0,0,112,0.0,98.0
11647,74.0,1,112,1.0,98.0
11648,77.0,0,112,1.0,98.0
11649,62.0,0,50,12.0,110.0
11650,74.0,0,112,2.0,98.0
11651,77.0,0,112,2.0,98.0
11652,59.0,2,50,12.0,110.0
11653,55.0,2,50,13.0,108.0
11654,62.0,1,112,3.0,100.0
11655,59.0,0,112,3.0,100.0
11656,43.0,4,50,14.0,106.0
11657,62.0,0,120,4.0,94.0
11658,60.0,0,50,12.0,110.0
11659,64.0,1,50,12.0,110.0
11660,55.0,2,50,13.0,108.0
11661,76.0,27,60,10.0,110.0
11662,43.0,3,50,14.0,106.0
11663,64.0,0,60,11.0,110.0
11664,84.0,1,112,0.0,98.0
11665,88.0,0,112,0.0,98.0
11666,67.0,1,112,1.0,98.0
11667,76.0,0,112,1.0,98.0
11668,76.0,1,112,2.0,98.0
11669,64.0,0,50,12.0,110.0
11670,67.0,0,112,2.0,98.0
11671,60.0,54,50,12.0,110.0
11672,55.0,2,50,13.0,108.0
11673,60.0,1,112,3.0,100.0
11674,64.0,0,112,3.0,100.0
11675,43.0,4,50,14.0,106.0
11676,64.0,0,120,4.0,94.0
11677,60.0,1,120,5.0,94.0
11678,76.0,49,30,10.0,110.0
11679,64.0,0,30,11.0,110.0
11680,64.0,0,50,12.0,110.0
11681,60.0,1,50,12.0,110.0
11682,55.0,2,50,13.0,108.0
11683,74.0,19,30,10.0,110.0
11684,43.0,1,50,14.0,106.0
11685,62.0,3,30,11.0,110.0
11686,72.0,27,30,10.0,110.0
11687,60.0,3,30,11.0,110.0
11688,71.0,19,20,10.0,110.0
11689,84.0,1,112,0.0,98.0
11690,59.0,3,20,11.0,110.0
11691,67.0,0,112,1.0,98.0
11692,76.0,0,112,1.0,98.0
11693,76.0,0,112,2.0,98.0
11694,67.0,1,112,2.0,98.0
11695,64.0,0,50,12.0,110.0
11696,60.0,2,50,12.0,110.0
11697,55.0,2,50,13.0,108.0
11698,64.0,1,112,3.0,100.0
11699,60.0,0,112,3.0,100.0
11700,43.0,4,50,14.0,106.0
11701,60.0,0,120,6.0,96.0
11702,72.0,1,120,6.0,96.0
11703,67.0,0,120,4.0,94.0
11704,55.0,1,0,5.0,94.0
11705,43.0,2,120,15.0,97.0
11706,69.0,0,50,12.0,110.0
11707,60.0,1,50,12.0,110.0
11708,55.0,2,50,13.0,108.0
11709,72.0,27,60,10.0,110.0
11710,43.0,1,50,14.0,106.0
11711,60.0,1,60,11.0,110.0
11712,81.0,1,112,0.0,98.0
11713,69.0,0,112,1.0,98.0
11714,72.0,0,112,1.0,98.0
11715,72.0,0,112,2.0,98.0
11716,69.0,54,50,12.0,110.0
11717,60.0,0,50,12.0,110.0
11718,69.0,0,112,2.0,98.0
11719,55.0,2,50,13.0,108.0
11720,60.0,1,112,3.0,100.0
11721,57.0,0,112,3.0,100.0
11722,43.0,4,50,14.0,106.0
11723,60.0,0,120,6.0,96.0
11724,72.0,1,120,6.0,96.0
11725,67.0,0,0,4.0,94.0
11726,43.0,2,120,15.0,97.0
11727,72.0,49,30,10.0,110.0
11728,72.0,0,30,11.0,110.0
11729,60.0,1,50,12.0,110.0
11730,69.0,0,50,12.0,110.0
11731,55.0,2,50,13.0,108.0
11732,69.0,19,30,10.0,110.0
11733,43.0,1,50,14.0,106.0
11734,69.0,3,30,11.0,110.0
11735,67.0,27,30,10.0,110.0
11736,67.0,3,30,11.0,110.0
11737,66.0,19,20,10.0,110.0
11738,78.0,1,112,0.0,98.0
11739,66.0,3,20,11.0,110.0
11740,78.0,0,112,1.0,98.0
11741,72.0,0,112,1.0,98.0
11742,60.0,0,50,12.0,110.0
11743,69.0,2,50,12.0,110.0
11744,78.0,0,112,2.0,98.0
11745,72.0,1,112,2.0,98.0
11746,55.0,2,50,13.0,108.0
11747,60.0,0,112,3.0,100.0
11748,57.0,1,112,3.0,100.0
11749,43.0,4,50,14.0,106.0
11750,60.0,0,120,6.0,96.0
11751,72.0,1,120,6.0,96.0
11752,67.0,1,0,4.0,94.0
11753,55.0,1,0,5.0,94.0
11754,43.0,2,0,15.0,97.0
11755,67.0,27,30,10.0,110.0
11756,79.0,1,30,0.0,98.0
11757,79.0,1,30,2.0,98.0
11758,67.0,0,30,11.0,110.0
11759,67.0,0,30,2.0,98.0
11760,59.0,0,30,12.0,110.0
11761,67.0,1,30,12.0,110.0
11762,55.0,2,30,13.0,108.0
11763,55.0,1,30,3.0,100.0
11764,43.0,1,30,14.0,106.0
11765,69.0,49,30,10.0,110.0
11766,81.0,1,30,0.0,98.0
11767,69.0,0,30,2.0,98.0
11768,69.0,2,30,11.0,110.0
11769,57.0,2,30,12.0,110.0
11770,57.0,2,30,13.0,108.0
11771,57.0,1,30,3.0,100.0
11772,45.0,3,30,14.0,106.0
11773,71.0,0,120,1.0,98.0
11774,79.0,0,120,1.0,98.0
11775,67.0,0,120,6.0,96.0
11776,55.0,0,120,6.0,96.0
11777,71.0,49,30,10.0,110.0
11778,83.0,1,30,0.0,98.0
11779,71.0,0,30,11.0,110.0
11780,71.0,2,30,2.0,98.0
11781,59.0,2,30,12.0,110.0
11782,59.0,2,30,13.0,108.0
11783,59.0,1,30,3.0,100.0
11784,47.0,3,30,14.0,106.0
11785,72.0,49,30,10.0,110.0
11786,84.0,1,30,0.0,98.0
11787,72.0,0,30,2.0,98.0
11788,72.0,2,30,11.0,110.0
11789,60.0,2,30,12.0,110.0
11790,60.0,2,30,13.0,108.0
11791,60.0,1,30,3.0,100.0
11792,48.0,3,30,14.0,106.0
11793,74.0,49,30,10.0,110.0
11794,86.0,1,30,0.0,98.0
11795,74.0,1,30,1.0,98.0
11796,74.0,1,30,2.0,98.0
11797,74.0,0,30,11.0,110.0
11798,62.0,2,30,12.0,110.0
11799,62.0,2,30,13.0,108.0
11800,62.0,1,30,3.0,100.0
11801,50.0,3,30,14.0,106.0
11802,72.0,49,30,10.0,110.0
11803,84.0,1,30,0.0,98.0
11804,72.0,1,30,1.0,98.0
11805,72.0,1,30,11.0,110.0
11806,72.0,0,30,2.0,98.0
11807,60.0,2,30,12.0,110.0
11808,60.0,2,30,13.0,108.0
11809,60.0,1,30,3.0,100.0
11810,48.0,3,30,14.0,106.0
11811,71.0,49,30,10.0,110.0
11812,83.0,1,30,0.0,98.0
11813,71.0,1,30,1.0,98.0
11814,71.0,0,30,11.0,110.0
11815,71.0,1,30,2.0,98.0
11816,59.0,2,30,12.0,110.0
11817,59.0,2,30,13.0,108.0
11818,59.0,1,30,3.0,100.0
11819,47.0,3,30,14.0,106.0
11820,69.0,49,30,10.0,110.0
11821,81.0,1,30,0.0,98.0
11822,69.0,1,30,1.0,98.0
11823,69.0,1,30,11.0,110.0
11824,69.0,0,30,2.0,98.0
11825,57.0,2,30,12.0,110.0
11826,57.0,2,30,13.0,108.0
11827,57.0,1,30,3.0,100.0
11828,45.0,3,30,14.0,106.0
11829,67.0,49,30,10.0,110.0
11830,79.0,1,30,0.0,98.0
11831,67.0,0,30,1.0,98.0
11832,67.0,1,30,2.0,98.0
11833,67.0,0,30,11.0,110.0
11834,55.0,1,30,12.0,110.0
11835,55.0,2,30,13.0,108.0
11836,55.0,1,30,3.0,100.0
11837,43.0,1,30,14.0,106.0
11838,69.0,49,30,10.0,110.0
11839,81.0,1,30,0.0,98.0
11840,69.0,1,30,1.0,98.0
11841,69.0,1,30,11.0,110.0
11842,69.0,0,30,2.0,98.0
11843,57.0,2,30,12.0,110.0
11844,57.0,2,30,13.0,108.0
11845,57.0,1,30,3.0,100.0
11846,45.0,3,30,14.0,106.0
11847,55.0,0,120,6.0,96.0
11848,67.0,0,120,4.0,94.0
11849,67.0,1,120,6.0,96.0
11850,55.0,1,120,5.0,94.0
11851,43.0,2,120,15.0,97.0
11852,71.0,49,30,10.0,110.0
11853,83.0,1,30,0.0,98.0
11854,71.0,1,30,1.0,98.0
11855,71.0,1,30,2.0,98.0
11856,71.0,0,30,11.0,110.0
11857,59.0,2,30,12.0,110.0
11858,59.0,2,30,13.0,108.0
11859,59.0,1,30,3.0,100.0
11860,47.0,3,30,14.0,106.0
11861,72.0,49,30,10.0,110.0
11862,84.0,1,30,0.0,98.0
11863,72.0,1,30,1.0,98.0
11864,72.0,0,30,2.0,98.0
11865,72.0,1,30,11.0,110.0
11866,60.0,2,30,12.0,110.0
11867,60.0,2,30,13.0,108.0
11868,60.0,1,30,3.0,100.0
11869,48.0,3,30,14.0,106.0
11870,74.0,49,30,10.0,110.0
11871,86.0,1,30,0.0,98.0
11872,74.0,1,30,1.0,98.0
11873,74.0,0,30,11.0,110.0
11874,74.0,1,30,2.0,98.0
11875,62.0,2,30,12.0,110.0
11876,62.0,2,30,13.0,108.0
11877,62.0,1,30,3.0,100.0
11878,50.0,3,30,14.0,106.0
11879,72.0,49,30,10.0,110.0
11880,84.0,1,30,0.0,98.0
11881,72.0,1,30,1.0,98.0
11882,72.0,0,30,11.0,110.0
11883,72.0,1,30,2.0,98.0
11884,60.0,2,30,12.0,110.0
11885,60.0,2,30,13.0,108.0
11886,60.0,1,30,3.0,100.0
11887,48.0,3,30,14.0,106.0
11888,71.0,49,30,10.0,110.0
11889,83.0,1,30,0.0,98.0
11890,71.0,1,30,1.0,98.0
11891,71.0,0,30,11.0,110.0
11892,71.0,1,30,2.0,98.0
11893,59.0,2,30,12.0,110.0
11894,59.0,2,30,13.0,108.0
11895,59.0,1,30,3.0,100.0
11896,47.0,3,30,14.0,106.0
11897,69.0,49,30,10.0,110.0
11898,81.0,1,30,0.0,98.0
11899,69.0,1,30,1.0,98.0
11900,69.0,0,30,2.0,98.0
11901,69.0,1,30,11.0,110.0
11902,57.0,2,30,12.0,110.0
11903,57.0,2,30,13.0,108.0
11904,57.0,1,30,3.0,100.0
11905,45.0,3,30,14.0,106.0
11906,67.0,49,60,10.0,110.0
11907,67.0,0,60,11.0,110.0
11908,55.0,1,60,12.0,110.0
11909,55.0,2,60,13.0,108.0
11910,43.0,1,60,14.0,106.0
11911,66.0,49,60,10.0,110.0
11912,79.0,1,120,0.0,98.0
11913,67.0,1,120,4.0,94.0
11914,55.0,0,120,6.0,96.0
11915,67.0,0,120,6.0,96.0
11916,67.0,0,120,1.0,98.0
11917,66.0,3,60,11.0,110.0
11918,67.0,1,120,2.0,98.0
11919,55.0,1,120,5.0,94.0
11920,54.0,2,60,12.0,110.0
11921,54.0,2,60,13.0,108.0
11922,55.0,1,120,3.0,100.0
11923,43.0,2,120,15.0,97.0
11924,42.0,4,60,14.0,106.0
11925,67.0,49,60,10.0,110.0
11926,67.0,3,60,11.0,110.0
11927,55.0,2,60,12.0,110.0
11928,55.0,2,60,13.0,108.0
11929,43.0,4,60,14.0,106.0
11930,66.0,49,60,10.0,110.0
11931,66.0,3,60,11.0,110.0
11932,54.0,2,60,12.0,110.0
11933,54.0,2,60,13.0,108.0
11934,42.0,4,60,14.0,106.0
11935,67.0,49,60,10.0,110.0
11936,67.0,3,60,11.0,110.0
11937,55.0,2,60,12.0,110.0
11938,55.0,2,60,13.0,108.0
11939,43.0,4,60,14.0,106.0
11940,66.0,49,60,10.0,110.0
11941,66.0,3,60,11.0,110.0
11942,54.0,2,60,12.0,110.0
11943,54.0,2,60,13.0,108.0
11944,42.0,4,60,14.0,106.0
11945,67.0,49,60,10.0,110.0
11946,67.0,3,60,11.0,110.0
11947,55.0,2,60,12.0,110.0
11948,55.0,2,60,13.0,108.0
11949,43.0,4,60,14.0,106.0
11950,66.0,49,50,10.0,110.0
11951,66.0,3,50,11.0,110.0
11952,54.0,2,50,12.0,110.0
11953,54.0,2,50,13.0,108.0
11954,42.0,4,50,14.0,106.0
11955,67.0,49,60,10.0,110.0
11956,67.0,3,60,11.0,110.0
11957,55.0,2,60,12.0,110.0
11958,55.0,2,60,13.0,108.0
11959,43.0,4,60,14.0,106.0
11960,66.0,49,60,10.0,110.0
11961,66.0,3,60,11.0,110.0
11962,54.0,2,60,12.0,110.0
11963,54.0,2,60,13.0,108.0
11964,42.0,4,60,14.0,106.0
11965,67.0,49,60,10.0,110.0
11966,67.0,3,60,11.0,110.0
11967,55.0,2,60,12.0,110.0
11968,55.0,2,60,13.0,108.0
11969,43.0,4,60,14.0,106.0
11970,66.0,49,60,10.0,110.0
11971,66.0,3,60,11.0,110.0
11972,54.0,2,60,12.0,110.0
11973,54.0,2,60,13.0,108.0
11974,42.0,4,60,14.0,106.0
11975,67.0,49,60,10.0,110.0
11976,67.0,3,60,11.0,110.0
11977,55.0,2,60,12.0,110.0
11978,55.0,2,60,13.0,108.0
11979,43.0,4,60,14.0,106.0
11980,65.0,49,60,10.0,110.0
11981,65.0,3,60,11.0,110.0
11982,53.0,2,60,12.0,110.0
11983,53.0,2,60,13.0,108.0
11984,41.0,4,60,14.0,106.0
11985,64.0,49,60,10.0,110.0
11986,64.0,0,60,11.0,110.0
11987,52.0,2,60,12.0,110.0
11988,52.0,2,60,13.0,108.0
11989,40.0,4,60,14.0,106.0
11990,62.0,49,50,10.0,110.0
11991,79.0,1,110,0.0,98.0
11992,62.0,3,50,11.0,110.0
11993,67.0,2,110,2.0,98.0
11994,50.0,2,50,12.0,110.0
11995,50.0,2,50,13.0,108.0
11996,38.0,4,50,14.0,106.0
11997,52.0,2,60,12.0,110.0
11998,60.0,49,120,10.0,110.0
11999,60.0,2,120,11.0,110.0
12000,48.0,2,120,13.0,108.0
12001,36.0,4,120,14.0,106.0
12002,55.0,114,60,12.0,95.0
12003,84.0,1,300,0.0,98.0
12004,72.0,0,300,2.0,98.0
12005,60.0,120,60,12.0,95.0
12006,83.0,56,60,0.0,98.0
12007,71.0,2,60,2.0,98.0
12008,81.0,58,60,0.0,98.0
12009,69.0,2,60,2.0,98.0
12010,64.0,2,60,12.0,95.0
12011,79.0,56,50,0.0,98.0
12012,67.0,2,50,2.0,98.0
12013,65.0,57,60,10.0,95.0
12014,65.0,0,60,11.0,95.0
12015,77.0,1,120,0.0,98.0
12016,65.0,1,120,2.0,98.0
12017,57.0,2,120,12.0,95.0
12018,50.0,2,120,13.0,88.0
12019,38.0,3,120,14.0,86.0
12020,69.0,109,60,10.0,95.0
12021,69.0,3,60,11.0,95.0
12022,74.0,117,60,10.0,95.0
12023,77.0,1,300,1.0,98.0
12024,74.0,3,60,11.0,95.0
12025,65.0,1,300,3.0,100.0
12026,76.0,59,60,1.0,98.0
12027,64.0,6,60,3.0,100.0
12028,77.0,52,60,10.0,95.0
12029,74.0,2,60,1.0,98.0
12030,77.0,1,60,11.0,95.0
12031,62.0,5,60,3.0,100.0
12032,72.0,54,50,1.0,98.0
12033,60.0,6,50,3.0,100.0
12034,59.0,2,60,12.0,95.0
12035,71.0,52,120,10.0,95.0
12036,71.0,1,120,1.0,98.0
12037,71.0,1,120,11.0,95.0
12038,55.0,2,120,13.0,88.0
12039,59.0,1,120,3.0,100.0
12040,43.0,3,120,14.0,86.0
12041,62.0,114,60,12.0,95.0
12042,86.0,1,300,0.0,98.0
12043,65.0,120,60,12.0,95.0
12044,83.0,56,60,0.0,98.0
12045,79.0,60,60,0.0,98.0
12046,71.0,4,60,12.0,95.0
12047,77.0,56,50,0.0,98.0
12048,76.0,59,60,10.0,95.0
12049,72.0,1,60,11.0,95.0
12050,76.0,1,120,0.0,98.0
12051,72.0,2,120,12.0,95.0
12052,48.0,2,120,13.0,88.0
12053,36.0,3,120,14.0,86.0
12054,72.0,109,60,10.0,95.0
12055,67.0,3,60,11.0,95.0
12056,67.0,117,60,10.0,95.0
12057,79.0,1,300,1.0,98.0
12058,64.0,3,60,11.0,95.0
12059,67.0,1,300,3.0,100.0
12060,76.0,59,60,1.0,98.0
12061,64.0,6,60,3.0,100.0
12062,64.0,52,60,10.0,95.0
12063,74.0,2,60,1.0,98.0
12064,60.0,1,60,11.0,95.0
12065,62.0,5,60,3.0,100.0
12066,72.0,54,50,1.0,98.0
12067,60.0,6,50,3.0,100.0
12068,62.0,52,60,10.0,95.0
12069,59.0,1,60,11.0,95.0
12070,71.0,2,120,1.0,98.0
12071,55.0,4,120,13.0,88.0
12072,59.0,1,120,3.0,100.0
12073,43.0,3,120,14.0,86.0
12074,77.0,112,120,10.0,110.0
12075,83.0,1,120,0.0,98.0
12076,62.0,1,120,4.0,94.0
12077,77.0,111,240,1.0,98.0
12078,71.0,0,120,11.0,110.0
12079,71.0,1,120,2.0,98.0
12080,65.0,0,120,2.0,98.0
12081,55.0,1,120,5.0,94.0
12082,62.0,1,120,12.0,110.0
12083,55.0,2,120,13.0,108.0
12084,65.0,6,240,3.0,100.0
12085,43.0,4,120,14.0,106.0
12086,84.0,1,110,0.0,98.0
12087,76.0,1,110,1.0,98.0
12088,64.0,0,110,2.0,98.0
12089,72.0,0,110,2.0,98.0
12090,60.0,2,110,13.0,108.0
12091,64.0,1,110,3.0,100.0
12092,76.0,109,120,10.0,110.0
12093,48.0,3,110,14.0,106.0
12094,64.0,0,120,4.0,94.0
12095,72.0,1,120,11.0,110.0
12096,60.0,1,120,5.0,94.0
12097,60.0,1,120,12.0,110.0
12098,74.0,111,120,1.0,98.0
12099,55.0,5,120,13.0,108.0
12100,59.0,1,120,3.0,100.0
12101,43.0,3,120,14.0,106.0
12102,77.0,112,120,10.0,110.0
12103,83.0,1,120,0.0,98.0
12104,62.0,1,120,4.0,94.0
12105,77.0,111,240,1.0,98.0
12106,71.0,1,120,11.0,110.0
12107,65.0,0,120,2.0,98.0
12108,71.0,0,120,2.0,98.0
12109,55.0,1,120,5.0,94.0
12110,62.0,1,120,12.0,110.0
12111,55.0,2,120,13.0,108.0
12112,62.0,6,240,3.0,100.0
12113,43.0,4,120,14.0,106.0
12114,76.0,109,110,10.0,110.0
12115,84.0,1,110,0.0,98.0
12116,76.0,1,110,1.0,98.0
12117,72.0,1,110,11.0,110.0
12118,72.0,0,110,2.0,98.0
12119,64.0,0,110,2.0,98.0
12120,60.0,1,110,12.0,110.0
12121,60.0,2,110,13.0,108.0
12122,60.0,1,110,3.0,100.0
12123,48.0,3,110,14.0,106.0
12124,64.0,0,120,4.0,94.0
12125,60.0,1,120,5.0,94.0
12126,74.0,109,60,10.0,110.0
12127,71.0,1,60,11.0,110.0
12128,67.0,1,60,12.0,110.0
12129,83.0,1,120,0.0,98.0
12130,62.0,0,120,4.0,94.0
12131,74.0,1,120,1.0,98.0
12132,62.0,1,120,5.0,94.0
12133,62.0,2,120,13.0,108.0
12134,50.0,3,120,14.0,106.0
12135,79.0,109,60,10.0,110.0
12136,71.0,1,60,11.0,110.0
12137,62.0,2,60,12.0,110.0
12138,79.0,1,120,1.0,98.0
12139,67.0,0,120,2.0,98.0
12140,59.0,1,240,3.0,100.0
12141,86.0,1,240,0.0,98.0
12142,78.0,117,120,1.0,98.0
12143,62.0,0,120,4.0,94.0
12144,66.0,1,120,2.0,98.0
12145,62.0,1,120,5.0,94.0
12146,50.0,3,120,13.0,108.0
12147,38.0,3,120,14.0,106.0
12148,78.0,109,60,10.0,110.0
12149,72.0,0,60,11.0,110.0
12150,62.0,2,60,12.0,110.0
12151,78.0,1,110,0.0,98.0
12152,81.0,1,110,1.0,98.0
12153,69.0,1,110,2.0,98.0
12154,60.0,1,230,3.0,100.0
12155,79.0,115,120,10.0,110.0
12156,79.0,1,120,0.0,98.0
12157,79.0,0,120,1.0,98.0
12158,62.0,1,120,4.0,94.0
12159,71.0,0,120,11.0,110.0
12160,67.0,1,120,2.0,98.0
12161,55.0,1,120,5.0,94.0
12162,55.0,1,120,12.0,110.0
12163,55.0,2,120,13.0,108.0
12164,59.0,1,120,3.0,100.0
12165,43.0,3,120,14.0,106.0
12166,65.0,114,240,12.0,110.0
12167,65.0,2,240,13.0,108.0
12168,53.0,4,240,14.0,106.0
12169,67.0,229,110,10.0,110.0
12170,79.0,1,110,0.0,113.0
12171,62.0,4,110,12.0,110.0
12172,62.0,2,110,13.0,108.0
12173,50.0,4,110,14.0,106.0
12174,48.0,1,60,3.0,100.0
12175,52.0,0,60,3.0,100.0
12176,60.0,4,120,12.0,110.0
12177,60.0,2,120,13.0,108.0
12178,48.0,3,120,14.0,106.0
12179,55.0,117,60,3.0,100.0
12180,52.0,0,60,3.0,100.0
12181,72.0,109,300,10.0,110.0
12182,84.0,1,300,0.0,113.0
12183,60.0,120,60,3.0,100.0
12184,55.0,0,60,3.0,100.0
12185,71.0,52,60,10.0,110.0
12186,83.0,1,60,0.0,113.0
12187,69.0,59,60,10.0,110.0
12188,81.0,1,60,0.0,113.0
12189,64.0,7,60,3.0,100.0
12190,60.0,0,60,3.0,100.0
12191,67.0,52,50,10.0,110.0
12192,79.0,1,50,0.0,113.0
12193,65.0,1,60,11.0,110.0
12194,65.0,59,120,10.0,110.0
12195,77.0,1,120,0.0,98.0
12196,62.0,2,120,12.0,110.0
12197,50.0,2,120,13.0,108.0
12198,38.0,3,120,14.0,106.0
12199,69.0,112,60,11.0,110.0
12200,77.0,1,300,1.0,113.0
12201,74.0,120,60,11.0,110.0
12202,65.0,1,300,3.0,115.0
12203,76.0,59,60,1.0,113.0
12204,64.0,6,60,3.0,115.0
12205,74.0,54,60,1.0,113.0
12206,77.0,1,60,11.0,110.0
12207,62.0,5,60,3.0,115.0
12208,72.0,54,50,1.0,113.0
12209,60.0,6,50,3.0,115.0
12210,62.0,0,60,2.0,98.0
12211,59.0,0,60,2.0,98.0
12212,71.0,1,120,1.0,98.0
12213,65.0,1,120,11.0,110.0
12214,55.0,2,120,12.0,110.0
12215,43.0,2,120,13.0,108.0
12216,59.0,1,120,3.0,100.0
12217,31.0,3,120,14.0,106.0
12218,62.0,112,60,2.0,98.0
12219,65.0,0,60,2.0,98.0
12220,74.0,52,300,10.0,110.0
12221,86.0,1,300,0.0,113.0
12222,71.0,0,60,2.0,98.0
12223,65.0,120,60,2.0,98.0
12224,71.0,57,60,10.0,110.0
12225,83.0,1,60,0.0,113.0
12226,67.0,59,60,10.0,110.0
12227,79.0,1,60,0.0,113.0
12228,74.0,2,60,2.0,98.0
12229,71.0,0,60,2.0,98.0
12230,65.0,57,50,10.0,110.0
12231,77.0,1,50,0.0,113.0
12232,52.0,0,60,3.0,100.0
12233,48.0,1,60,3.0,100.0
12234,64.0,59,120,10.0,110.0
12235,76.0,1,120,0.0,98.0
12236,76.0,0,120,2.0,98.0
12237,72.0,1,120,2.0,98.0
12238,60.0,1,120,12.0,110.0
12239,48.0,2,120,13.0,108.0
12240,36.0,3,120,14.0,106.0
12241,55.0,117,60,3.0,100.0
12242,52.0,0,60,3.0,100.0
12243,82.0,0,300,1.0,101.0
12244,60.0,0,60,3.0,100.0
12245,55.0,120,60,3.0,100.0
12246,79.0,54,60,1.0,101.0
12247,76.0,60,60,1.0,101.0
12248,60.0,0,60,3.0,100.0
12249,64.0,1,60,3.0,100.0
12250,70.0,51,50,1.0,101.0
12251,60.0,3,110,12.0,110.0
12252,48.0,2,110,13.0,108.0
12253,36.0,3,110,14.0,106.0
12254,60.0,1,110,3.0,100.0
12255,65.0,0,110,3.0,100.0
12256,69.0,60,120,1.0,98.0
12257,60.0,1,600,4.0,94.0
12258,48.0,1,600,5.0,94.0
12259,65.0,3,120,12.0,110.0
12260,53.0,2,120,13.0,108.0
12261,41.0,3,120,14.0,106.0
12262,77.0,0,120,1.0,88.0
12263,81.0,1,120,1.0,88.0
12264,69.0,1,120,2.0,88.0
12265,65.0,0,120,2.0,88.0
12266,72.0,109,230,10.0,110.0
12267,84.0,1,230,0.0,88.0
12268,60.0,0,230,11.0,110.0
12269,60.0,5,230,3.0,100.0
12270,73.0,117,120,10.0,110.0
12271,85.0,1,120,0.0,88.0
12272,61.0,2,120,11.0,110.0
12273,64.0,2,120,12.0,110.0
12274,52.0,2,120,13.0,108.0
12275,61.0,0,120,3.0,100.0
12276,52.0,1,120,3.0,100.0
12277,40.0,3,120,14.0,106.0
12278,72.0,109,60,10.0,110.0
12279,60.0,2,60,11.0,110.0
12280,65.0,2,60,12.0,110.0
12281,53.0,2,60,13.0,108.0
12282,41.0,3,60,14.0,106.0
12283,84.0,1,110,0.0,88.0
12284,79.0,114,350,1.0,88.0
12285,82.0,0,350,1.0,88.0
12286,67.0,0,350,2.0,88.0
12287,70.0,1,350,2.0,88.0
12288,60.0,1,110,3.0,100.0
12289,53.0,0,110,3.0,100.0
12290,81.0,0,120,1.0,88.0
12291,77.0,1,120,1.0,88.0
12292,65.0,0,120,2.0,88.0
12293,69.0,0,120,2.0,88.0
12294,72.0,109,230,10.0,110.0
12295,84.0,1,230,0.0,88.0
12296,60.0,1,230,11.0,110.0
12297,60.0,5,230,3.0,100.0
12298,52.0,2,120,13.0,108.0
12299,52.0,0,120,3.0,100.0
12300,40.0,3,120,14.0,106.0
12301,73.0,117,180,10.0,110.0
12302,61.0,2,180,11.0,110.0
12303,70.0,2,180,12.0,110.0
12304,53.0,116,60,13.0,108.0
12305,41.0,3,60,14.0,106.0
12306,85.0,1,230,0.0,88.0
12307,79.0,114,350,1.0,88.0
12308,82.0,0,350,1.0,88.0
12309,67.0,1,350,2.0,88.0
12310,70.0,0,350,2.0,88.0
12311,53.0,1,110,3.0,100.0
12312,61.0,1,230,3.0,100.0
12313,74.0,109,120,10.0,110.0
12314,86.0,1,120,0.0,88.0
12315,77.0,1,120,1.0,88.0
12316,81.0,0,120,1.0,88.0
12317,69.0,0,120,2.0,88.0
12318,62.0,1,120,11.0,110.0
12319,65.0,0,120,2.0,88.0
12320,69.0,2,120,12.0,110.0
12321,53.0,2,120,13.0,108.0
12322,53.0,0,120,3.0,100.0
12323,62.0,1,120,3.0,100.0
12324,41.0,3,120,14.0,106.0
12325,76.0,109,120,10.0,110.0
12326,88.0,1,120,0.0,88.0
12327,76.0,1,120,1.0,88.0
12328,79.0,0,120,1.0,88.0
12329,67.0,0,120,2.0,88.0
12330,64.0,0,120,2.0,88.0
12331,64.0,1,120,11.0,110.0
12332,67.0,2,120,12.0,110.0
12333,52.0,2,120,13.0,108.0
12334,61.0,1,120,3.0,100.0
12335,64.0,0,120,3.0,100.0
12336,40.0,3,120,14.0,106.0
12337,77.0,109,110,10.0,110.0
12338,89.0,1,110,0.0,88.0
12339,74.0,1,110,1.0,88.0
12340,77.0,0,110,1.0,88.0
12341,62.0,0,110,2.0,88.0
12342,65.0,1,110,11.0,110.0
12343,65.0,0,110,2.0,88.0
12344,65.0,2,110,12.0,110.0
12345,50.0,2,110,13.0,108.0
12346,65.0,1,110,3.0,100.0
12347,62.0,0,110,3.0,100.0
12348,38.0,3,110,14.0,106.0
12349,55.0,1,120,12.0,110.0
12350,72.0,109,240,10.0,110.0
12351,84.0,1,240,0.0,88.0
12352,64.0,1,240,4.0,94.0
12353,72.0,0,240,1.0,88.0
12354,76.0,0,240,1.0,88.0
12355,64.0,1,240,11.0,110.0
12356,60.0,0,240,2.0,88.0
12357,64.0,0,240,2.0,88.0
12358,60.0,1,240,5.0,94.0
12359,55.0,2,240,13.0,108.0
12360,55.0,0,240,3.0,100.0
12361,60.0,1,240,3.0,100.0
12362,43.0,3,240,14.0,106.0
12363,67.0,114,230,12.0,110.0
12364,71.0,115,220,10.0,110.0
12365,83.0,1,220,0.0,98.0
12366,74.0,0,220,1.0,98.0
12367,71.0,0,220,1.0,98.0
12368,62.0,1,220,4.0,94.0
12369,62.0,1,220,11.0,110.0
12370,62.0,0,220,2.0,98.0
12371,59.0,0,220,2.0,98.0
12372,55.0,1,220,5.0,94.0
12373,53.0,3,220,13.0,108.0
12374,59.0,0,220,3.0,100.0
12375,53.0,1,220,3.0,100.0
12376,41.0,3,220,14.0,106.0
12377,67.0,114,110,12.0,110.0
12378,79.0,115,20,10.0,110.0
12379,67.0,0,20,11.0,110.0
12380,55.0,0,20,11.0,110.0
12381,72.0,1,20,12.0,110.0
12382,52.0,2,20,13.0,108.0
12383,40.0,3,20,14.0,106.0
12384,79.0,19,20,10.0,110.0
12385,55.0,0,20,11.0,110.0
12386,67.0,3,20,11.0,110.0
12387,60.0,2,20,12.0,110.0
12388,52.0,2,20,13.0,108.0
12389,40.0,4,20,14.0,106.0
12390,79.0,19,20,10.0,110.0
12391,55.0,3,20,11.0,110.0
12392,67.0,0,20,11.0,110.0
12393,60.0,2,20,12.0,110.0
12394,52.0,2,20,13.0,108.0
12395,40.0,4,20,14.0,106.0
12396,79.0,19,20,10.0,110.0
12397,67.0,0,20,11.0,110.0
12398,55.0,3,20,11.0,110.0
12399,60.0,2,20,12.0,110.0
12400,52.0,2,20,13.0,108.0
12401,79.0,1,120,0.0,98.0
12402,40.0,4,20,14.0,106.0
12403,79.0,1,120,1.0,98.0
12404,67.0,0,120,1.0,98.0
12405,67.0,0,120,4.0,94.0
12406,60.0,0,120,2.0,98.0
12407,67.0,1,120,2.0,98.0
12408,55.0,1,120,5.0,94.0
12409,64.0,1,120,3.0,100.0
12410,52.0,0,120,3.0,100.0
12411,79.0,19,60,10.0,110.0
12412,55.0,0,60,11.0,110.0
12413,67.0,3,60,11.0,110.0
12414,60.0,2,60,12.0,110.0
12415,52.0,2,60,13.0,108.0
12416,40.0,4,60,14.0,106.0
12417,77.0,109,20,10.0,110.0
12418,67.0,1,20,11.0,110.0
12419,55.0,0,20,11.0,110.0
12420,59.0,1,20,12.0,110.0
12421,50.0,2,20,13.0,108.0
12422,38.0,3,20,14.0,106.0
12423,77.0,19,20,10.0,110.0
12424,55.0,3,20,11.0,110.0
12425,67.0,0,20,11.0,110.0
12426,59.0,2,20,12.0,110.0
12427,50.0,2,20,13.0,108.0
12428,38.0,4,20,14.0,106.0
12429,77.0,19,20,10.0,110.0
12430,55.0,0,20,11.0,110.0
12431,67.0,3,20,11.0,110.0
12432,59.0,2,20,12.0,110.0
12433,50.0,2,20,13.0,108.0
12434,38.0,4,20,14.0,106.0
12435,77.0,19,20,10.0,110.0
12436,67.0,3,20,11.0,110.0
12437,55.0,0,20,11.0,110.0
12438,59.0,2,20,12.0,110.0
12439,50.0,2,20,13.0,108.0
12440,38.0,4,20,14.0,106.0
12441,89.0,0,120,0.0,98.0
12442,83.0,1,120,0.0,98.0
12443,77.0,1,120,1.0,98.0
12444,67.0,0,120,4.0,94.0
12445,65.0,0,120,1.0,98.0
12446,65.0,0,120,2.0,98.0
12447,71.0,0,120,2.0,98.0
12448,55.0,1,120,5.0,94.0
12449,62.0,1,120,3.0,100.0
12450,50.0,0,120,3.0,100.0
12451,77.0,19,60,10.0,110.0
12452,55.0,3,60,11.0,110.0
12453,67.0,0,60,11.0,110.0
12454,59.0,2,60,12.0,110.0
12455,50.0,2,60,13.0,108.0
12456,38.0,4,60,14.0,106.0
12457,76.0,109,20,10.0,110.0
12458,55.0,1,20,11.0,110.0
12459,67.0,0,20,11.0,110.0
12460,60.0,1,20,12.0,110.0
12461,48.0,2,20,13.0,108.0
12462,36.0,3,20,14.0,106.0
12463,76.0,19,20,10.0,110.0
12464,67.0,3,20,11.0,110.0
12465,55.0,0,20,11.0,110.0
12466,60.0,2,20,12.0,110.0
12467,48.0,2,20,13.0,108.0
12468,36.0,4,20,14.0,106.0
12469,76.0,19,20,10.0,110.0
12470,55.0,0,20,11.0,110.0
12471,67.0,3,20,11.0,110.0
12472,60.0,2,20,12.0,110.0
12473,48.0,2,20,13.0,108.0
12474,36.0,4,20,14.0,106.0
12475,76.0,19,20,10.0,110.0
12476,67.0,3,20,11.0,110.0
12477,55.0,0,20,11.0,110.0
12478,60.0,2,20,12.0,110.0
12479,48.0,2,20,13.0,108.0
12480,84.0,1,120,0.0,98.0
12481,88.0,0,120,0.0,98.0
12482,36.0,4,20,14.0,106.0
12483,64.0,0,120,1.0,98.0
12484,67.0,1,120,4.0,94.0
12485,76.0,0,120,1.0,98.0
12486,64.0,0,120,2.0,98.0
12487,72.0,0,120,2.0,98.0
12488,55.0,1,120,5.0,94.0
12489,48.0,0,120,3.0,100.0
12490,60.0,1,120,3.0,100.0
12491,76.0,19,60,10.0,110.0
12492,67.0,3,60,11.0,110.0
12493,55.0,0,60,11.0,110.0
12494,60.0,2,60,12.0,110.0
12495,48.0,2,60,13.0,108.0
12496,36.0,4,60,14.0,106.0
12497,74.0,109,30,10.0,110.0
12498,62.0,3,30,11.0,110.0
12499,55.0,2,50,12.0,110.0
12500,53.0,2,50,13.0,108.0
12501,41.0,4,50,14.0,106.0
12502,76.0,49,30,10.0,110.0
12503,64.0,3,30,11.0,110.0
12504,55.0,2,50,12.0,110.0
12505,53.0,2,50,13.0,108.0
12506,41.0,4,50,14.0,106.0
12507,77.0,49,30,10.0,110.0
12508,65.0,3,30,11.0,110.0
12509,55.0,2,50,12.0,110.0
12510,53.0,2,50,13.0,108.0
12511,41.0,4,50,14.0,106.0
12512,78.0,49,30,10.0,110.0
12513,66.0,3,30,11.0,110.0
12514,55.0,2,50,12.0,110.0
12515,53.0,2,50,13.0,108.0
12516,41.0,4,50,14.0,106.0
12517,79.0,49,20,10.0,110.0
12518,67.0,1,20,11.0,110.0
12519,55.0,0,20,11.0,110.0
12520,60.0,1,20,12.0,110.0
12521,52.0,2,20,13.0,108.0
12522,40.0,1,20,14.0,106.0
12523,79.0,19,20,10.0,110.0
12524,67.0,0,20,11.0,110.0
12525,55.0,3,20,11.0,110.0
12526,60.0,2,20,12.0,110.0
12527,52.0,2,20,13.0,108.0
12528,40.0,4,20,14.0,106.0
12529,79.0,19,20,10.0,110.0
12530,67.0,0,20,11.0,110.0
12531,55.0,3,20,11.0,110.0
12532,60.0,2,20,12.0,110.0
12533,52.0,2,20,13.0,108.0
12534,40.0,4,20,14.0,106.0
12535,79.0,19,20,10.0,110.0
12536,67.0,3,20,11.0,110.0
12537,55.0,0,20,11.0,110.0
12538,60.0,2,20,12.0,110.0
12539,52.0,2,20,13.0,108.0
12540,40.0,4,20,14.0,106.0
12541,43.0,2,120,15.0,83.0
12542,79.0,19,60,10.0,110.0
12543,67.0,0,60,11.0,110.0
12544,55.0,3,60,11.0,110.0
12545,60.0,2,60,12.0,110.0
12546,52.0,2,60,13.0,108.0
12547,40.0,4,60,14.0,106.0
12548,91.0,0,230,0.0,88.0
12549,79.0,1,230,0.0,88.0
12550,67.0,0,230,1.0,88.0
12551,79.0,0,230,1.0,88.0
12552,67.0,0,230,2.0,88.0
12553,55.0,1,230,3.0,100.0
12554,67.0,1,240,4.0,94.0
12555,67.0,1,0,6.0,96.0
12556,55.0,1,0,5.0,94.0
12557,77.0,109,20,10.0,110.0
12558,55.0,1,20,11.0,110.0
12559,67.0,0,20,11.0,110.0
12560,59.0,1,20,12.0,110.0
12561,50.0,2,20,13.0,108.0
12562,38.0,1,20,14.0,106.0
12563,77.0,19,20,10.0,110.0
12564,67.0,0,20,11.0,110.0
12565,55.0,3,20,11.0,110.0
12566,59.0,2,20,12.0,110.0
12567,50.0,2,20,13.0,108.0
12568,38.0,4,20,14.0,106.0
12569,77.0,19,20,10.0,110.0
12570,55.0,3,20,11.0,110.0
12571,67.0,0,20,11.0,110.0
12572,59.0,2,20,12.0,110.0
12573,50.0,2,20,13.0,108.0
12574,38.0,4,20,14.0,106.0
12575,77.0,19,20,10.0,110.0
12576,67.0,0,20,11.0,110.0
12577,55.0,3,20,11.0,110.0
12578,59.0,2,20,12.0,110.0
12579,50.0,2,20,13.0,108.0
12580,38.0,4,20,14.0,106.0
12581,43.0,2,120,15.0,83.0
12582,77.0,19,60,10.0,110.0
12583,55.0,3,60,11.0,110.0
12584,67.0,0,60,11.0,110.0
12585,59.0,2,60,12.0,110.0
12586,50.0,2,60,13.0,108.0
12587,38.0,4,60,14.0,106.0
12588,89.0,1,230,0.0,88.0
12589,83.0,0,230,0.0,88.0
12590,71.0,0,230,1.0,88.0
12591,77.0,0,230,1.0,88.0
12592,71.0,0,230,2.0,88.0
12593,65.0,0,230,2.0,88.0
12594,59.0,1,230,3.0,100.0
12595,53.0,0,230,3.0,100.0
12596,67.0,0,240,4.0,94.0
12597,76.0,109,20,10.0,110.0
12598,55.0,0,20,11.0,110.0
12599,67.0,1,20,11.0,110.0
12600,60.0,1,20,12.0,110.0
12601,48.0,2,20,13.0,108.0
12602,36.0,1,20,14.0,106.0
12603,76.0,19,20,10.0,110.0
12604,55.0,3,20,11.0,110.0
12605,67.0,0,20,11.0,110.0
12606,60.0,2,20,12.0,110.0
12607,48.0,2,20,13.0,108.0
12608,36.0,4,20,14.0,106.0
12609,76.0,19,20,10.0,110.0
12610,67.0,3,20,11.0,110.0
12611,55.0,0,20,11.0,110.0
12612,60.0,2,20,12.0,110.0
12613,48.0,2,20,13.0,108.0
12614,36.0,4,20,14.0,106.0
12615,76.0,19,20,10.0,110.0
12616,67.0,3,20,11.0,110.0
12617,55.0,0,20,11.0,110.0
12618,60.0,2,20,12.0,110.0
12619,48.0,2,20,13.0,108.0
12620,36.0,4,20,14.0,106.0
12621,88.0,1,120,0.0,88.0
12622,84.0,0,120,0.0,88.0
12623,67.0,0,120,4.0,94.0
12624,72.0,1,120,1.0,88.0
12625,76.0,0,120,1.0,88.0
12626,67.0,0,120,6.0,96.0
12627,64.0,0,120,2.0,88.0
12628,72.0,0,120,2.0,88.0
12629,55.0,1,120,5.0,94.0
12630,52.0,1,120,3.0,100.0
12631,60.0,0,120,3.0,100.0
12632,43.0,2,120,15.0,83.0
12633,76.0,19,60,10.0,110.0
12634,67.0,0,60,11.0,110.0
12635,55.0,3,60,11.0,110.0
12636,60.0,2,60,12.0,110.0
12637,48.0,2,60,13.0,108.0
12638,36.0,4,60,14.0,106.0
12639,74.0,109,30,10.0,110.0
12640,62.0,3,30,11.0,110.0
12641,55.0,2,40,12.0,110.0
12642,53.0,2,40,13.0,108.0
12643,41.0,4,40,14.0,106.0
12644,76.0,49,30,10.0,110.0
12645,64.0,3,30,11.0,110.0
12646,55.0,2,40,12.0,110.0
12647,53.0,2,40,13.0,108.0
12648,41.0,4,40,14.0,106.0
12649,77.0,49,30,10.0,110.0
12650,65.0,3,30,11.0,110.0
12651,55.0,2,40,12.0,110.0
12652,53.0,2,40,13.0,108.0
12653,41.0,4,40,14.0,106.0
12654,78.0,49,30,10.0,110.0
12655,66.0,3,30,11.0,110.0
12656,55.0,2,40,12.0,110.0
12657,53.0,2,40,13.0,108.0
12658,41.0,4,40,14.0,106.0
12659,79.0,49,20,10.0,110.0
12660,67.0,1,20,11.0,110.0
12661,79.0,19,20,10.0,110.0
12662,67.0,3,20,11.0,110.0
12663,79.0,27,20,10.0,110.0
12664,67.0,3,20,11.0,110.0
12665,79.0,27,20,10.0,110.0
12666,67.0,3,20,11.0,110.0
12667,79.0,27,20,10.0,110.0
12668,67.0,3,20,11.0,110.0
12669,79.0,27,20,10.0,110.0
12670,79.0,1,170,0.0,88.0
12671,91.0,0,170,0.0,88.0
12672,79.0,1,170,1.0,88.0
12673,67.0,3,20,11.0,110.0
12674,79.0,0,170,2.0,88.0
12675,55.0,2,170,12.0,110.0
12676,52.0,2,170,13.0,108.0
12677,52.0,1,170,3.0,100.0
12678,40.0,3,170,14.0,106.0
12679,77.0,27,20,10.0,110.0
12680,65.0,1,20,11.0,110.0
12681,77.0,19,20,10.0,110.0
12682,77.0,1,50,0.0,88.0
12683,89.0,0,50,0.0,88.0
12684,77.0,1,50,1.0,88.0
12685,65.0,3,20,11.0,110.0
12686,77.0,0,50,2.0,88.0
12687,59.0,2,50,12.0,110.0
12688,50.0,2,50,13.0,108.0
12689,50.0,1,50,3.0,100.0
12690,38.0,3,50,14.0,106.0
12691,76.0,27,20,10.0,110.0
12692,64.0,0,20,11.0,110.0
12693,76.0,19,20,10.0,110.0
12694,76.0,0,50,0.0,88.0
12695,88.0,1,50,0.0,88.0
12696,76.0,1,50,1.0,88.0
12697,76.0,1,50,2.0,88.0
12698,64.0,3,20,11.0,110.0
12699,60.0,2,50,12.0,110.0
12700,48.0,2,50,13.0,108.0
12701,48.0,1,50,3.0,100.0
12702,36.0,3,50,14.0,106.0
12703,74.0,27,20,10.0,110.0
12704,62.0,1,20,11.0,110.0
12705,74.0,19,20,10.0,110.0
12706,74.0,0,50,0.0,88.0
12707,86.0,1,50,0.0,88.0
12708,74.0,1,50,1.0,88.0
12709,62.0,3,20,11.0,110.0
12710,74.0,0,50,2.0,88.0
12711,53.0,2,50,12.0,110.0
12712,50.0,2,50,13.0,108.0
12713,50.0,1,50,3.0,100.0
12714,38.0,3,50,14.0,106.0
12715,72.0,27,20,10.0,110.0
12716,60.0,0,20,11.0,110.0
12717,72.0,19,20,10.0,110.0
12718,72.0,1,50,0.0,88.0
12719,84.0,0,50,0.0,88.0
12720,72.0,1,50,1.0,88.0
12721,72.0,1,50,2.0,88.0
12722,60.0,3,20,11.0,110.0
12723,55.0,2,50,12.0,110.0
12724,51.0,2,50,13.0,108.0
12725,51.0,1,50,3.0,100.0
12726,39.0,3,50,14.0,106.0
12727,71.0,27,20,10.0,110.0
12728,59.0,1,20,11.0,110.0
12729,71.0,19,20,10.0,110.0
12730,71.0,1,50,0.0,88.0
12731,83.0,0,50,0.0,88.0
12732,71.0,1,50,1.0,88.0
12733,59.0,3,20,11.0,110.0
12734,71.0,0,50,2.0,88.0
12735,55.0,2,50,12.0,110.0
12736,52.0,2,50,13.0,108.0
12737,52.0,1,50,3.0,100.0
12738,40.0,3,50,14.0,106.0
12739,69.0,27,20,10.0,110.0
12740,57.0,0,20,11.0,110.0
12741,81.0,19,20,10.0,110.0
12742,69.0,1,50,0.0,88.0
12743,69.0,1,50,1.0,88.0
12744,69.0,3,20,11.0,110.0
12745,81.0,27,20,10.0,110.0
12746,69.0,1,20,11.0,110.0
12747,81.0,27,20,10.0,110.0
12748,69.0,3,20,11.0,110.0
12749,81.0,27,20,10.0,110.0
12750,69.0,3,20,11.0,110.0
12751,81.0,27,20,10.0,110.0
12752,81.0,1,110,0.0,88.0
12753,81.0,1,110,1.0,88.0
12754,69.0,1,170,2.0,88.0
12755,69.0,3,20,11.0,110.0
12756,65.0,2,170,12.0,110.0
12757,53.0,2,170,13.0,108.0
12758,53.0,1,170,3.0,100.0
12759,41.0,3,170,14.0,106.0
12760,79.0,27,20,10.0,110.0
12761,67.0,0,20,11.0,110.0
12762,79.0,19,20,10.0,110.0
12763,79.0,1,50,0.0,88.0
12764,79.0,1,50,1.0,88.0
12765,67.0,1,50,2.0,88.0
12766,67.0,3,20,11.0,110.0
12767,64.0,2,50,12.0,110.0
12768,52.0,2,50,13.0,108.0
12769,52.0,1,50,3.0,100.0
12770,40.0,3,50,14.0,106.0
12771,77.0,27,20,10.0,110.0
12772,65.0,1,20,11.0,110.0
12773,77.0,19,20,10.0,110.0
12774,77.0,1,50,0.0,88.0
12775,77.0,1,50,1.0,88.0
12776,65.0,0,50,2.0,88.0
12777,65.0,3,20,11.0,110.0
12778,62.0,2,50,12.0,110.0
12779,50.0,2,50,13.0,108.0
12780,50.0,1,50,3.0,100.0
12781,38.0,3,50,14.0,106.0
12782,76.0,27,20,10.0,110.0
12783,64.0,0,20,11.0,110.0
12784,76.0,19,20,10.0,110.0
12785,76.0,1,50,0.0,88.0
12786,76.0,1,50,1.0,88.0
12787,64.0,1,50,2.0,88.0
12788,64.0,3,20,11.0,110.0
12789,64.0,2,50,12.0,110.0
12790,52.0,2,50,13.0,108.0
12791,52.0,1,50,3.0,100.0
12792,40.0,3,50,14.0,106.0
12793,74.0,27,20,10.0,110.0
12794,62.0,1,20,11.0,110.0
12795,74.0,19,20,10.0,110.0
12796,74.0,1,50,0.0,88.0
12797,74.0,1,50,1.0,88.0
12798,62.0,0,50,2.0,88.0
12799,62.0,3,20,11.0,110.0
12800,65.0,2,50,12.0,110.0
12801,53.0,2,50,13.0,108.0
12802,53.0,1,50,3.0,100.0
12803,41.0,3,50,14.0,106.0
12804,72.0,27,20,10.0,110.0
12805,60.0,0,20,11.0,110.0
12806,72.0,19,20,10.0,110.0
12807,72.0,1,50,0.0,88.0
12808,72.0,1,50,1.0,88.0
12809,60.0,3,20,11.0,110.0
12810,60.0,1,50,2.0,88.0
12811,66.0,2,50,12.0,110.0
12812,54.0,2,50,13.0,108.0
12813,54.0,1,50,3.0,100.0
12814,42.0,3,50,14.0,106.0
12815,71.0,27,20,10.0,110.0
12816,59.0,1,20,11.0,110.0
12817,67.0,2,30,12.0,110.0
12818,55.0,2,30,13.0,108.0
12819,43.0,3,30,14.0,106.0
12820,71.0,19,20,10.0,110.0
12821,71.0,1,50,0.0,88.0
12822,71.0,1,50,1.0,88.0
12823,59.0,0,50,2.0,88.0
12824,59.0,3,20,11.0,110.0
12825,55.0,1,50,3.0,100.0
12826,72.0,27,20,10.0,110.0
12827,60.0,0,20,11.0,110.0
12828,76.0,2,30,12.0,110.0
12829,64.0,2,30,13.0,108.0
12830,52.0,3,30,14.0,106.0
12831,72.0,19,20,10.0,110.0
12832,72.0,1,50,0.0,88.0
12833,72.0,1,50,1.0,88.0
12834,60.0,3,20,11.0,110.0
12835,60.0,1,50,2.0,88.0
12836,64.0,1,50,3.0,100.0
12837,74.0,27,20,10.0,110.0
12838,62.0,0,20,11.0,110.0
12839,74.0,1,30,12.0,110.0
12840,62.0,2,30,13.0,108.0
12841,50.0,1,30,14.0,106.0
12842,74.0,19,20,10.0,110.0
12843,74.0,1,50,0.0,88.0
12844,62.0,1,50,1.0,88.0
12845,74.0,0,50,1.0,88.0
12846,62.0,3,20,11.0,110.0
12847,62.0,1,50,2.0,88.0
12848,62.0,1,50,3.0,100.0
12849,76.0,27,20,10.0,110.0
12850,64.0,1,20,11.0,110.0
12851,72.0,2,30,12.0,110.0
12852,60.0,2,30,13.0,108.0
12853,48.0,3,30,14.0,106.0
12854,76.0,19,20,10.0,110.0
12855,76.0,1,50,0.0,88.0
12856,76.0,1,50,1.0,88.0
12857,64.0,0,50,1.0,88.0
12858,64.0,3,20,11.0,110.0
12859,64.0,0,50,2.0,88.0
12860,60.0,1,50,3.0,100.0
12861,74.0,0,120,6.0,96.0
12862,67.0,0,120,4.0,94.0
12863,67.0,0,120,6.0,96.0
12864,55.0,1,120,5.0,94.0
12865,43.0,2,0,15.0,68.0
12866,77.0,27,20,10.0,110.0
12867,65.0,0,20,11.0,110.0
12868,71.0,1,30,12.0,110.0
12869,59.0,2,30,13.0,108.0
12870,47.0,1,30,14.0,106.0
12871,77.0,19,20,10.0,110.0
12872,77.0,1,50,0.0,88.0
12873,65.0,0,50,1.0,88.0
12874,77.0,0,50,1.0,88.0
12875,65.0,3,20,11.0,110.0
12876,65.0,1,50,2.0,88.0
12877,59.0,1,50,3.0,100.0
12878,79.0,27,20,10.0,110.0
12879,67.0,0,20,11.0,110.0
12880,69.0,2,30,12.0,110.0
12881,57.0,2,30,13.0,108.0
12882,45.0,3,30,14.0,106.0
12883,79.0,19,20,10.0,110.0
12884,79.0,1,50,0.0,88.0
12885,79.0,0,50,1.0,88.0
12886,67.0,1,50,1.0,88.0
12887,67.0,3,20,11.0,110.0
12888,67.0,1,50,2.0,88.0
12889,57.0,1,50,3.0,100.0
12890,74.0,0,120,6.0,96.0
12891,67.0,0,120,6.0,96.0
12892,67.0,1,120,4.0,94.0
12893,55.0,1,120,5.0,94.0
12894,43.0,2,0,15.0,75.0
12895,81.0,27,20,10.0,110.0
12896,69.0,1,20,11.0,110.0
12897,67.0,1,30,12.0,110.0
12898,55.0,2,30,13.0,108.0
12899,43.0,1,30,14.0,106.0
12900,81.0,19,20,10.0,110.0
12901,81.0,1,50,0.0,88.0
12902,81.0,0,50,1.0,88.0
12903,69.0,0,50,1.0,88.0
12904,69.0,3,20,11.0,110.0
12905,69.0,0,50,2.0,88.0
12906,55.0,1,50,3.0,100.0
12907,83.0,27,20,10.0,110.0
12908,71.0,1,20,11.0,110.0
12909,65.0,2,30,12.0,110.0
12910,53.0,2,30,13.0,108.0
12911,41.0,3,30,14.0,106.0
12912,83.0,19,20,10.0,110.0
12913,83.0,1,50,0.0,88.0
12914,83.0,1,50,1.0,88.0
12915,71.0,0,50,1.0,88.0
12916,71.0,0,50,2.0,88.0
12917,71.0,3,20,11.0,110.0
12918,54.0,1,50,3.0,100.0
12919,67.0,0,120,4.0,94.0
12920,74.0,0,120,6.0,96.0
12921,67.0,1,120,6.0,96.0
12922,55.0,1,0,5.0,94.0
12923,84.0,27,60,10.0,110.0
12924,84.0,1,60,0.0,88.0
12925,72.0,1,60,1.0,88.0
12926,84.0,0,60,1.0,88.0
12927,72.0,0,60,11.0,110.0
12928,72.0,1,60,2.0,88.0
12929,64.0,1,60,12.0,110.0
12930,52.0,2,60,13.0,108.0
12931,52.0,1,60,3.0,100.0
12932,40.0,1,60,14.0,106.0
12933,76.0,0,120,6.0,96.0
12934,72.0,1,0,6.0,96.0
12935,67.0,0,120,4.0,94.0
12936,48.0,2,120,15.0,83.0
12937,81.0,109,60,10.0,110.0
12938,77.0,0,60,0.0,88.0
12939,81.0,1,60,0.0,88.0
12940,72.0,0,60,1.0,88.0
12941,81.0,0,60,1.0,88.0
12942,69.0,0,60,2.0,88.0
12943,69.0,0,60,11.0,110.0
12944,65.0,1,60,2.0,88.0
12945,65.0,1,60,12.0,110.0
12946,53.0,2,60,13.0,108.0
12947,53.0,1,60,3.0,100.0
12948,41.0,1,60,14.0,106.0
12949,72.0,0,0,6.0,96.0
12950,60.0,1,0,4.0,94.0
12951,60.0,0,120,6.0,96.0
12952,48.0,1,0,5.0,94.0
12953,48.0,2,120,15.0,83.0
12954,79.0,109,60,10.0,110.0
12955,79.0,0,60,0.0,88.0
12956,76.0,1,60,0.0,88.0
12957,76.0,0,60,1.0,88.0
12958,79.0,0,60,1.0,88.0
12959,67.0,0,60,11.0,110.0
12960,64.0,0,60,2.0,88.0
12961,67.0,1,60,2.0,88.0
12962,67.0,1,60,12.0,110.0
12963,55.0,2,60,13.0,108.0
12964,55.0,1,60,3.0,100.0
12965,43.0,1,60,14.0,106.0
12966,60.0,0,120,6.0,96.0
12967,48.0,2,120,15.0,83.0
12968,71.0,109,60,10.0,110.0
12969,77.0,0,60,0.0,88.0
12970,83.0,1,60,0.0,88.0
12971,71.0,0,60,1.0,88.0
12972,65.0,0,60,1.0,88.0
12973,65.0,0,60,11.0,110.0
12974,55.0,0,60,11.0,110.0
12975,71.0,0,60,2.0,88.0
12976,65.0,1,60,2.0,88.0
12977,55.0,1,60,12.0,110.0
12978,43.0,2,60,13.0,108.0
12979,43.0,1,60,3.0,100.0
12980,31.0,1,60,14.0,106.0
12981,55.0,0,120,6.0,96.0
12982,67.0,1,120,6.0,96.0
12983,62.0,0,120,4.0,94.0
12984,55.0,1,120,5.0,94.0
12985,43.0,2,120,15.0,83.0
12986,72.0,109,81,10.0,64.0
12987,64.0,0,81,11.0,64.0
12988,55.0,0,81,11.0,64.0
12989,60.0,1,81,12.0,64.0
12990,76.0,1,120,0.0,70.0
12991,84.0,0,120,0.0,70.0
12992,72.0,0,120,1.0,70.0
12993,64.0,0,120,1.0,70.0
12994,60.0,0,120,4.0,60.0
12995,60.0,0,120,6.0,50.0
12996,72.0,1,120,6.0,50.0
12997,72.0,1,120,2.0,70.0
12998,64.0,0,120,2.0,70.0
12999,48.0,1,120,5.0,60.0
13000,48.0,1,120,3.0,80.0
13001,48.0,2,120,15.0,34.0
13002,67.0,109,81,10.0,86.0
13003,63.0,3,81,11.0,86.0
13004,60.0,2,81,12.0,86.0
13005,60.0,2,290,13.0,108.0
13006,48.0,1,290,14.0,106.0
13007,67.0,115,81,10.0,86.0
13008,63.0,3,81,11.0,86.0
13009,60.0,2,81,12.0,86.0
13010,58.0,62,60,13.0,108.0
13011,46.0,4,60,14.0,106.0
13012,56.0,2,60,13.0,108.0
13013,44.0,4,60,14.0,106.0
13014,67.0,49,81,10.0,86.0
13015,63.0,3,81,11.0,86.0
13016,60.0,2,81,12.0,86.0
13017,55.0,56,50,13.0,108.0
13018,43.0,4,50,14.0,106.0
13019,68.0,49,81,10.0,86.0
13020,65.0,3,81,11.0,86.0
13021,60.0,2,81,12.0,86.0
13022,68.0,109,81,10.0,86.0
13023,65.0,3,81,11.0,86.0
13024,60.0,2,81,12.0,86.0
13025,53.0,2,290,13.0,108.0
13026,41.0,4,290,14.0,106.0
13027,68.0,115,81,10.0,86.0
13028,65.0,3,81,11.0,86.0
13029,60.0,2,81,12.0,86.0
13030,51.0,62,60,13.0,108.0
13031,39.0,4,60,14.0,106.0
13032,50.0,2,60,13.0,108.0
13033,38.0,4,60,14.0,106.0
13034,68.0,49,81,10.0,86.0
13035,65.0,3,81,11.0,86.0
13036,60.0,2,81,12.0,86.0
13037,48.0,56,50,13.0,108.0
13038,36.0,4,50,14.0,106.0
13039,68.0,49,81,10.0,86.0
13040,65.0,1,81,11.0,86.0
13041,62.0,2,81,12.0,86.0
13042,68.0,109,81,10.0,86.0
13043,65.0,3,81,11.0,86.0
13044,58.0,2,81,12.0,86.0
13045,46.0,2,290,13.0,108.0
13046,34.0,4,290,14.0,106.0
13047,68.0,115,81,10.0,86.0
13048,65.0,3,81,11.0,86.0
13049,58.0,2,81,12.0,86.0
13050,48.0,62,60,13.0,108.0
13051,36.0,4,60,14.0,106.0
13052,49.0,2,60,13.0,108.0
13053,37.0,4,60,14.0,106.0
13054,68.0,49,81,10.0,86.0
13055,65.0,3,81,11.0,86.0
13056,58.0,2,81,12.0,86.0
13057,50.0,56,50,13.0,108.0
13058,38.0,4,50,14.0,106.0
13059,67.0,49,81,10.0,86.0
13060,63.0,3,81,11.0,86.0
13061,58.0,2,81,12.0,86.0
13062,67.0,109,81,10.0,86.0
13063,63.0,3,81,11.0,86.0
13064,58.0,2,81,12.0,86.0
13065,51.0,2,290,13.0,108.0
13066,39.0,4,290,14.0,106.0
13067,67.0,115,81,10.0,86.0
13068,63.0,3,81,11.0,86.0
13069,58.0,2,81,12.0,86.0
13070,82.0,2,840,1.0,113.0
13071,53.0,62,60,13.0,108.0
13072,41.0,4,60,14.0,106.0
13073,80.0,2,60,1.0,113.0
13074,54.0,2,60,13.0,108.0
13075,42.0,4,60,14.0,106.0
13076,67.0,49,81,10.0,86.0
13077,63.0,1,81,11.0,86.0
13078,58.0,2,81,12.0,86.0
13079,79.0,51,50,1.0,113.0
13080,55.0,5,50,13.0,108.0
13081,43.0,4,50,14.0,106.0
13082,79.0,2,45,1.0,113.0
13083,56.0,2,60,13.0,108.0
13084,44.0,4,60,14.0,106.0
13085,65.0,49,81,10.0,86.0
13086,63.0,1,81,11.0,86.0
13087,60.0,2,81,12.0,86.0
13088,77.0,36,45,1.0,113.0
13089,55.0,20,50,13.0,108.0
13090,43.0,4,50,14.0,106.0
13091,56.0,2,30,13.0,108.0
13092,44.0,4,30,14.0,106.0
13093,65.0,49,81,10.0,86.0
13094,63.0,1,81,11.0,86.0
13095,60.0,2,81,12.0,86.0
13096,77.0,2,90,1.0,113.0
13097,57.0,56,30,13.0,108.0
13098,45.0,4,30,14.0,106.0
13099,58.0,2,60,13.0,108.0
13100,46.0,4,60,14.0,106.0
13101,65.0,49,81,10.0,86.0
13102,62.0,1,81,11.0,86.0
13103,58.0,2,81,12.0,86.0
13104,77.0,2,90,1.0,113.0
13105,57.0,56,50,13.0,108.0
13106,45.0,4,50,14.0,106.0
13107,58.0,2,30,13.0,108.0
13108,46.0,4,30,14.0,106.0
13109,65.0,49,81,10.0,86.0
13110,62.0,1,81,11.0,86.0
13111,58.0,2,81,12.0,86.0
13112,77.0,2,90,1.0,113.0
13113,58.0,56,30,13.0,108.0
13114,46.0,4,30,14.0,106.0
13115,65.0,49,81,10.0,86.0
13116,65.0,1,81,11.0,86.0
13117,62.0,2,81,12.0,86.0
13118,77.0,2,120,1.0,113.0
13119,74.0,109,81,10.0,86.0
13120,65.0,3,81,11.0,86.0
13121,67.0,2,81,12.0,86.0
13122,59.0,2,290,13.0,108.0
13123,47.0,3,290,14.0,106.0
13124,74.0,115,81,10.0,86.0
13125,65.0,3,81,11.0,86.0
13126,67.0,2,81,12.0,86.0
13127,55.0,62,60,13.0,108.0
13128,43.0,4,60,14.0,106.0
13129,57.0,2,60,13.0,108.0
13130,45.0,4,60,14.0,106.0
13131,74.0,49,81,10.0,87.0
13132,65.0,3,81,11.0,87.0
13133,67.0,2,81,12.0,87.0
13134,59.0,56,50,13.0,108.0
13135,47.0,4,50,14.0,106.0
13136,72.0,49,81,10.0,88.0
13137,63.0,3,81,11.0,88.0
13138,67.0,2,81,12.0,88.0
13139,72.0,109,81,10.0,89.0
13140,63.0,3,81,11.0,89.0
13141,67.0,2,81,12.0,89.0
13142,60.0,2,290,13.0,108.0
13143,48.0,4,290,14.0,106.0
13144,72.0,115,81,10.0,89.0
13145,63.0,3,81,11.0,89.0
13146,67.0,2,81,12.0,89.0
13147,79.0,0,840,2.0,98.0
13148,48.0,62,60,13.0,108.0
13149,67.0,1,840,3.0,100.0
13150,36.0,4,60,14.0,106.0
13151,77.0,0,60,2.0,98.0
13152,50.0,2,60,13.0,108.0
13153,65.0,1,60,3.0,100.0
13154,38.0,3,60,14.0,106.0
13155,72.0,49,81,10.0,90.0
13156,63.0,3,81,11.0,90.0
13157,67.0,2,81,12.0,90.0
13158,75.0,52,50,2.0,98.0
13159,51.0,4,50,13.0,108.0
13160,63.0,1,50,3.0,100.0
13161,39.0,3,50,14.0,106.0
13162,75.0,3,45,2.0,98.0
13163,63.0,1,45,3.0,100.0
13164,53.0,2,60,13.0,108.0
13165,41.0,3,60,14.0,106.0
13166,72.0,49,81,10.0,91.0
13167,62.0,0,81,11.0,91.0
13168,68.0,2,81,12.0,91.0
13169,74.0,37,45,2.0,98.0
13170,62.0,5,45,3.0,100.0
13171,52.0,14,50,13.0,108.0
13172,40.0,4,50,14.0,106.0
13173,53.0,2,30,13.0,108.0
13174,41.0,3,30,14.0,106.0
13175,72.0,49,81,10.0,92.0
13176,68.0,3,81,11.0,92.0
13177,62.0,2,81,12.0,92.0
13178,74.0,0,90,2.0,98.0
13179,53.0,56,30,13.0,108.0
13180,62.0,1,90,3.0,100.0
13181,41.0,4,30,14.0,106.0
13182,54.0,2,60,13.0,108.0
13183,42.0,3,60,14.0,106.0
13184,72.0,49,81,10.0,93.0
13185,69.0,0,81,11.0,93.0
13186,63.0,2,81,12.0,93.0
13187,74.0,3,90,2.0,98.0
13188,62.0,1,90,3.0,100.0
13189,53.0,56,50,13.0,108.0
13190,41.0,4,50,14.0,106.0
13191,54.0,2,30,13.0,108.0
13192,42.0,3,30,14.0,106.0
13193,72.0,49,81,10.0,94.0
13194,69.0,3,81,11.0,94.0
13195,63.0,2,81,12.0,94.0
13196,74.0,0,90,2.0,98.0
13197,54.0,56,30,13.0,108.0
13198,62.0,1,90,3.0,100.0
13199,42.0,4,30,14.0,106.0
13200,71.0,49,81,10.0,95.0
13201,67.0,0,81,11.0,95.0
13202,62.0,2,81,12.0,95.0
13203,77.0,109,81,10.0,95.0
13204,71.0,3,81,11.0,95.0
13205,62.0,2,81,12.0,95.0
13206,55.0,2,290,13.0,108.0
13207,43.0,3,290,14.0,106.0
13208,77.0,115,81,10.0,95.0
13209,71.0,3,81,11.0,95.0
13210,62.0,2,81,12.0,95.0
13211,54.0,62,60,13.0,108.0
13212,42.0,4,60,14.0,106.0
13213,55.0,2,60,13.0,108.0
13214,43.0,4,60,14.0,106.0
13215,77.0,49,81,10.0,95.0
13216,71.0,3,81,11.0,95.0
13217,62.0,2,81,12.0,95.0
13218,56.0,56,50,13.0,108.0
13219,44.0,4,50,14.0,106.0
13220,83.0,1,480,0.0,98.0
13221,77.0,0,480,2.0,98.0
13222,74.0,2,480,2.0,98.0
13223,62.0,1,480,3.0,100.0
13224,65.0,0,480,3.0,100.0
13225,76.0,49,81,10.0,95.0
13226,72.0,0,81,11.0,95.0
13227,60.0,1,81,12.0,95.0
13228,76.0,109,81,10.0,95.0
13229,72.0,3,81,11.0,95.0
13230,60.0,2,81,12.0,95.0
13231,57.0,2,290,13.0,108.0
13232,45.0,3,290,14.0,106.0
13233,76.0,115,81,10.0,95.0
13234,72.0,3,81,11.0,95.0
13235,60.0,2,81,12.0,95.0
13236,55.0,62,60,13.0,108.0
13237,43.0,4,60,14.0,106.0
13238,53.0,2,60,13.0,108.0
13239,41.0,4,60,14.0,106.0
13240,76.0,49,81,10.0,95.0
13241,72.0,3,81,11.0,95.0
13242,60.0,2,81,12.0,95.0
13243,52.0,56,50,13.0,108.0
13244,40.0,4,50,14.0,106.0
13245,64.0,0,480,4.0,94.0
13246,76.0,1,480,1.0,98.0
13247,76.0,1,480,2.0,98.0
13248,64.0,1,480,3.0,100.0
13249,53.0,2,60,13.0,108.0
13250,41.0,3,60,14.0,106.0
13251,74.0,49,81,10.0,95.0
13252,69.0,1,81,11.0,95.0
13253,60.0,2,81,12.0,95.0
13254,52.0,56,60,13.0,108.0
13255,40.0,4,60,14.0,106.0
13256,53.0,2,60,13.0,108.0
13257,41.0,4,60,14.0,106.0
13258,74.0,49,81,10.0,98.0
13259,69.0,3,81,11.0,98.0
13260,60.0,2,81,12.0,98.0
13261,54.0,56,50,13.0,108.0
13262,42.0,4,50,14.0,106.0
13263,84.0,1,720,0.0,98.0
13264,81.0,0,240,1.0,98.0
13265,72.0,0,720,2.0,98.0
13266,60.0,1,720,5.0,94.0
13267,60.0,0,720,3.0,100.0
13268,55.0,2,60,13.0,108.0
13269,43.0,3,60,14.0,106.0
13270,74.0,49,81,10.0,102.0
13271,65.0,1,81,11.0,102.0
13272,59.0,1,81,12.0,102.0
13273,54.0,56,60,13.0,108.0
13274,42.0,4,60,14.0,106.0
13275,55.0,2,60,13.0,108.0
13276,43.0,4,60,14.0,106.0
13277,74.0,49,81,10.0,106.0
13278,65.0,3,81,11.0,106.0
13279,59.0,2,81,12.0,106.0
13280,83.0,1,230,0.0,98.0
13281,77.0,1,230,1.0,98.0
13282,71.0,0,230,2.0,98.0
13283,43.0,56,50,13.0,108.0
13284,59.0,1,230,3.0,100.0
13285,31.0,4,50,14.0,106.0
13286,62.0,2,480,4.0,94.0
13287,74.0,0,480,2.0,98.0
13288,55.0,1,240,5.0,94.0
13289,62.0,1,480,3.0,100.0
13290,60.0,1,60,12.0,110.0
13291,48.0,2,60,13.0,108.0
13292,36.0,3,60,14.0,106.0
13293,55.0,114,90,12.0,110.0
13294,43.0,2,90,13.0,108.0
13295,31.0,4,90,14.0,106.0
13296,59.0,84,20,12.0,110.0
13297,47.0,2,20,13.0,108.0
13298,35.0,4,20,14.0,106.0
13299,60.0,1,240,4.0,94.0
13300,52.0,1,240,5.0,94.0
13301,72.0,49,350,10.0,110.0
13302,84.0,0,350,0.0,98.0
13303,76.0,1,350,0.0,98.0
13304,76.0,0,350,1.0,98.0
13305,72.0,0,350,1.0,98.0
13306,64.0,0,350,11.0,110.0
13307,60.0,1,350,11.0,110.0
13308,72.0,0,350,2.0,98.0
13309,48.0,1,350,3.0,100.0
13310,60.0,0,350,3.0,100.0
13311,48.0,3,120,15.0,75.0
13312,67.0,109,90,10.0,110.0
13313,79.0,1,90,0.0,98.0
13314,67.0,1,90,1.0,98.0
13315,55.0,0,90,11.0,110.0
13316,67.0,1,90,2.0,98.0
13317,43.0,0,90,3.0,100.0
13318,55.0,5,90,3.0,100.0
13319,71.0,82,20,10.0,110.0
13320,83.0,1,20,0.0,98.0
13321,71.0,1,20,1.0,98.0
13322,71.0,0,20,2.0,98.0
13323,59.0,1,20,11.0,110.0
13324,47.0,0,20,3.0,100.0
13325,59.0,5,20,3.0,100.0
13326,60.0,1,350,12.0,110.0
13327,48.0,2,350,13.0,108.0
13328,36.0,1,350,14.0,106.0
13329,60.0,0,360,4.0,94.0
13330,72.0,21,360,6.0,96.0
13331,60.0,0,360,6.0,96.0
13332,48.0,2,360,5.0,94.0
13333,55.0,117,90,12.0,110.0
13334,43.0,2,90,13.0,108.0
13335,31.0,4,90,14.0,106.0
13336,59.0,84,20,12.0,110.0
13337,47.0,2,20,13.0,108.0
13338,35.0,4,20,14.0,106.0
13339,72.0,22,350,10.0,110.0
13340,84.0,1,350,0.0,98.0
13341,76.0,0,350,0.0,98.0
13342,72.0,0,350,1.0,98.0
13343,76.0,1,350,1.0,98.0
13344,72.0,0,350,2.0,98.0
13345,60.0,1,350,11.0,110.0
13346,60.0,5,350,3.0,100.0
13347,48.0,0,350,3.0,100.0
13348,48.0,3,120,15.0,81.0
13349,67.0,109,90,10.0,110.0
13350,79.0,1,90,0.0,98.0
13351,67.0,1,90,1.0,98.0
13352,67.0,0,90,2.0,98.0
13353,55.0,1,90,11.0,110.0
13354,55.0,5,90,3.0,100.0
13355,43.0,0,90,3.0,100.0
13356,71.0,82,20,10.0,110.0
13357,83.0,1,20,0.0,98.0
13358,71.0,1,20,1.0,98.0
13359,59.0,0,20,11.0,110.0
13360,71.0,1,20,2.0,98.0
13361,59.0,5,20,3.0,100.0
13362,47.0,0,20,3.0,100.0
13363,72.0,22,30,10.0,110.0
13364,60.0,0,30,11.0,110.0
13365,84.0,1,60,0.0,98.0
13366,72.0,1,60,1.0,98.0
13367,72.0,50,60,10.0,110.0
13368,60.0,21,360,4.0,94.0
13369,72.0,0,360,6.0,96.0
13370,60.0,0,360,6.0,96.0
13371,60.0,3,60,11.0,110.0
13372,60.0,0,120,2.0,98.0
13373,72.0,1,120,2.0,98.0
13374,48.0,2,360,5.0,94.0
13375,60.0,1,360,12.0,110.0
13376,48.0,2,360,13.0,108.0
13377,48.0,5,120,3.0,100.0
13378,60.0,0,120,3.0,100.0
13379,48.0,2,120,15.0,81.0
13380,36.0,1,360,14.0,106.0
13381,71.0,57,60,10.0,110.0
13382,59.0,3,60,11.0,110.0
13383,72.0,57,50,10.0,110.0
13384,60.0,3,50,11.0,110.0
13385,74.0,57,30,10.0,110.0
13386,62.0,1,30,11.0,110.0
13387,86.0,1,60,0.0,98.0
13388,83.0,0,60,0.0,98.0
13389,74.0,0,60,1.0,98.0
13390,71.0,0,60,1.0,98.0
13391,74.0,49,60,10.0,110.0
13392,55.0,0,120,6.0,96.0
13393,62.0,1,120,4.0,94.0
13394,67.0,0,120,6.0,96.0
13395,71.0,0,120,2.0,98.0
13396,62.0,0,120,2.0,98.0
13397,62.0,3,60,11.0,110.0
13398,55.0,1,120,5.0,94.0
13399,71.0,1,120,12.0,110.0
13400,55.0,2,120,13.0,108.0
13401,55.0,1,120,3.0,100.0
13402,43.0,2,120,15.0,81.0
13403,43.0,1,120,14.0,106.0
13404,73.0,57,60,10.0,110.0
13405,61.0,3,60,11.0,110.0
13406,74.0,57,50,10.0,110.0
13407,62.0,3,50,11.0,110.0
13408,76.0,57,30,10.0,110.0
13409,64.0,0,30,11.0,110.0
13410,88.0,0,60,0.0,98.0
13411,84.0,1,60,0.0,98.0
13412,76.0,0,60,1.0,98.0
13413,72.0,0,60,1.0,98.0
13414,76.0,49,60,10.0,110.0
13415,60.0,0,120,6.0,96.0
13416,72.0,0,120,6.0,96.0
13417,67.0,1,120,4.0,94.0
13418,64.0,1,120,2.0,98.0
13419,72.0,0,120,2.0,98.0
13420,64.0,3,60,11.0,110.0
13421,55.0,1,120,5.0,94.0
13422,72.0,1,120,12.0,110.0
13423,60.0,2,120,13.0,108.0
13424,60.0,1,120,3.0,100.0
13425,48.0,2,120,15.0,81.0
13426,48.0,1,120,14.0,106.0
13427,74.0,57,60,10.0,110.0
13428,62.0,3,60,11.0,110.0
13429,76.0,57,50,10.0,110.0
13430,64.0,3,50,11.0,110.0
13431,77.0,57,30,10.0,110.0
13432,65.0,0,30,11.0,110.0
13433,84.0,0,60,0.0,98.0
13434,89.0,1,60,0.0,98.0
13435,77.0,0,60,1.0,98.0
13436,72.0,1,60,1.0,98.0
13437,77.0,49,60,10.0,110.0
13438,60.0,0,120,6.0,96.0
13439,72.0,0,120,6.0,96.0
13440,60.0,0,120,4.0,94.0
13441,65.0,1,120,2.0,98.0
13442,65.0,3,60,11.0,110.0
13443,72.0,0,120,2.0,98.0
13444,48.0,1,120,5.0,94.0
13445,74.0,1,120,12.0,110.0
13446,62.0,2,120,13.0,108.0
13447,62.0,1,120,3.0,100.0
13448,48.0,2,120,15.0,81.0
13449,50.0,1,120,14.0,106.0
13450,76.0,57,60,10.0,110.0
13451,64.0,3,60,11.0,110.0
13452,77.0,57,50,10.0,110.0
13453,65.0,3,50,11.0,110.0
13454,79.0,57,20,10.0,110.0
13455,67.0,1,20,11.0,110.0
13456,79.0,19,20,10.0,110.0
13457,67.0,3,20,11.0,110.0
13458,64.0,1,60,12.0,110.0
13459,52.0,2,60,13.0,108.0
13460,40.0,1,60,14.0,106.0
13461,79.0,27,20,10.0,110.0
13462,67.0,3,20,11.0,110.0
13463,79.0,27,20,10.0,110.0
13464,67.0,3,20,11.0,110.0
13465,60.0,0,120,6.0,96.0
13466,60.0,0,120,4.0,94.0
13467,72.0,1,120,6.0,96.0
13468,48.0,1,120,5.0,94.0
13469,48.0,2,120,15.0,75.0
13470,79.0,27,20,10.0,110.0
13471,67.0,3,20,11.0,110.0
13472,79.0,19,20,10.0,110.0
13473,67.0,3,20,11.0,110.0
13474,67.0,2,60,12.0,110.0
13475,55.0,2,60,13.0,108.0
13476,43.0,4,60,14.0,106.0
13477,79.0,27,20,10.0,110.0
13478,67.0,3,20,11.0,110.0
13479,79.0,27,20,10.0,110.0
13480,67.0,3,20,11.0,110.0
13481,79.0,27,20,10.0,110.0
13482,67.0,3,20,11.0,110.0
13483,79.0,19,20,10.0,110.0
13484,67.0,3,20,11.0,110.0
13485,72.0,2,60,12.0,110.0
13486,60.0,2,60,13.0,108.0
13487,48.0,4,60,14.0,106.0
13488,79.0,27,20,10.0,110.0
13489,67.0,3,20,11.0,110.0
13490,79.0,27,20,10.0,110.0
13491,67.0,3,20,11.0,110.0
13492,79.0,27,20,10.0,110.0
13493,67.0,3,20,11.0,110.0
13494,79.0,19,20,10.0,110.0
13495,67.0,3,20,11.0,110.0
13496,76.0,2,60,12.0,110.0
13497,64.0,2,60,13.0,108.0
13498,52.0,4,60,14.0,106.0
13499,79.0,27,20,10.0,110.0
13500,67.0,3,20,11.0,110.0
13501,79.0,27,20,10.0,110.0
13502,91.0,1,470,0.0,98.0
13503,72.0,0,470,1.0,98.0
13504,79.0,0,470,1.0,98.0
13505,67.0,3,20,11.0,110.0
13506,64.0,0,470,3.0,100.0
13507,67.0,1,470,3.0,100.0
13508,80.0,27,20,10.0,110.0
13509,68.0,1,20,11.0,110.0
13510,80.0,19,20,10.0,110.0
13511,68.0,3,20,11.0,110.0
13512,62.0,2,60,12.0,110.0
13513,50.0,2,60,13.0,108.0
13514,38.0,3,60,14.0,106.0
13515,80.0,27,20,10.0,110.0
13516,68.0,3,20,11.0,110.0
13517,80.0,27,20,10.0,110.0
13518,68.0,3,20,11.0,110.0
13519,80.0,27,20,10.0,110.0
13520,68.0,3,20,11.0,110.0
13521,80.0,19,20,10.0,110.0
13522,68.0,3,20,11.0,110.0
13523,65.0,2,60,12.0,110.0
13524,53.0,2,60,13.0,108.0
13525,41.0,4,60,14.0,106.0
13526,80.0,27,20,10.0,110.0
13527,68.0,3,20,11.0,110.0
13528,80.0,27,20,10.0,110.0
13529,68.0,3,20,11.0,110.0
13530,80.0,27,20,10.0,110.0
13531,68.0,3,20,11.0,110.0
13532,80.0,19,20,10.0,110.0
13533,68.0,3,20,11.0,110.0
13534,71.0,2,60,12.0,110.0
13535,59.0,2,60,13.0,108.0
13536,47.0,4,60,14.0,106.0
13537,80.0,27,20,10.0,110.0
13538,68.0,3,20,11.0,110.0
13539,80.0,27,20,10.0,110.0
13540,68.0,3,20,11.0,110.0
13541,80.0,27,20,10.0,110.0
13542,68.0,3,20,11.0,110.0
13543,80.0,19,20,10.0,110.0
13544,68.0,3,20,11.0,110.0
13545,74.0,2,60,12.0,110.0
13546,62.0,2,60,13.0,108.0
13547,50.0,4,60,14.0,106.0
13548,80.0,27,20,10.0,110.0
13549,68.0,3,20,11.0,110.0
13550,80.0,27,20,10.0,110.0
13551,89.0,1,470,0.0,98.0
13552,71.0,1,470,1.0,98.0
13553,80.0,0,470,1.0,98.0
13554,68.0,3,20,11.0,110.0
13555,62.0,0,470,3.0,100.0
13556,65.0,1,470,3.0,100.0
13557,81.0,27,20,10.0,110.0
13558,69.0,1,20,11.0,110.0
13559,81.0,19,20,10.0,110.0
13560,69.0,3,20,11.0,110.0
13561,61.0,2,60,12.0,110.0
13562,49.0,2,60,13.0,108.0
13563,37.0,3,60,14.0,106.0
13564,81.0,27,20,10.0,110.0
13565,69.0,3,20,11.0,110.0
13566,81.0,27,20,10.0,110.0
13567,69.0,3,20,11.0,110.0
13568,81.0,27,20,10.0,110.0
13569,69.0,3,20,11.0,110.0
13570,81.0,19,20,10.0,110.0
13571,69.0,3,20,11.0,110.0
13572,64.0,2,60,12.0,110.0
13573,52.0,2,60,13.0,108.0
13574,40.0,4,60,14.0,106.0
13575,81.0,27,20,10.0,110.0
13576,69.0,3,20,11.0,110.0
13577,81.0,27,20,10.0,110.0
13578,69.0,3,20,11.0,110.0
13579,81.0,27,20,10.0,110.0
13580,69.0,3,20,11.0,110.0
13581,81.0,19,20,10.0,110.0
13582,69.0,3,20,11.0,110.0
13583,69.0,2,60,12.0,110.0
13584,57.0,2,60,13.0,108.0
13585,45.0,4,60,14.0,106.0
13586,81.0,27,20,10.0,110.0
13587,69.0,3,20,11.0,110.0
13588,81.0,27,20,10.0,110.0
13589,69.0,3,20,11.0,110.0
13590,81.0,27,20,10.0,110.0
13591,69.0,3,20,11.0,110.0
13592,81.0,19,20,10.0,110.0
13593,69.0,3,20,11.0,110.0
13594,73.0,2,60,12.0,110.0
13595,61.0,2,60,13.0,108.0
13596,49.0,4,60,14.0,106.0
13597,81.0,27,20,10.0,110.0
13598,69.0,3,20,11.0,110.0
13599,81.0,27,20,10.0,110.0
13600,76.0,1,470,1.0,98.0
13601,81.0,0,470,1.0,98.0
13602,69.0,3,20,11.0,110.0
13603,81.0,0,480,0.0,98.0
13604,82.0,27,20,10.0,110.0
13605,70.0,1,20,11.0,110.0
13606,82.0,19,20,10.0,110.0
13607,70.0,3,20,11.0,110.0
13608,67.0,2,60,12.0,110.0
13609,55.0,2,60,13.0,108.0
13610,43.0,4,60,14.0,106.0
13611,82.0,27,20,10.0,110.0
13612,70.0,3,20,11.0,110.0
13613,82.0,27,20,10.0,110.0
13614,70.0,3,20,11.0,110.0
13615,61.0,1,590,3.0,100.0
13616,64.0,0,590,3.0,100.0
13617,82.0,1,120,0.0,98.0
13618,88.0,1,600,0.0,98.0
13619,70.0,1,120,1.0,98.0
13620,82.0,0,120,1.0,98.0
13621,79.0,27,20,10.0,110.0
13622,67.0,1,20,11.0,110.0
13623,79.0,19,20,10.0,110.0
13624,67.0,3,20,11.0,110.0
13625,67.0,2,60,12.0,110.0
13626,67.0,2,60,13.0,108.0
13627,55.0,3,60,14.0,106.0
13628,79.0,27,20,10.0,110.0
13629,67.0,3,20,11.0,110.0
13630,79.0,27,20,10.0,110.0
13631,67.0,3,20,11.0,110.0
13632,61.0,1,110,3.0,100.0
13633,58.0,0,110,3.0,100.0
13634,79.0,1,120,0.0,98.0
13635,91.0,0,120,0.0,98.0
13636,67.0,1,120,1.0,98.0
13637,79.0,0,120,1.0,98.0
13638,76.0,27,20,10.0,110.0
13639,64.0,1,20,11.0,110.0
13640,76.0,19,20,10.0,110.0
13641,64.0,3,20,11.0,110.0
13642,67.0,2,60,12.0,110.0
13643,67.0,2,60,13.0,108.0
13644,55.0,3,60,14.0,106.0
13645,76.0,27,20,10.0,110.0
13646,64.0,3,20,11.0,110.0
13647,76.0,27,20,10.0,110.0
13648,64.0,3,20,11.0,110.0
13649,58.0,0,110,3.0,100.0
13650,61.0,1,110,3.0,100.0
13651,76.0,1,120,0.0,98.0
13652,88.0,0,120,0.0,98.0
13653,76.0,0,120,1.0,98.0
13654,64.0,1,120,1.0,98.0
13655,73.0,27,20,10.0,110.0
13656,61.0,1,20,11.0,110.0
13657,73.0,19,20,10.0,110.0
13658,61.0,3,20,11.0,110.0
13659,67.0,2,60,12.0,110.0
13660,67.0,2,60,13.0,108.0
13661,55.0,3,60,14.0,106.0
13662,73.0,27,20,10.0,110.0
13663,61.0,3,20,11.0,110.0
13664,73.0,27,20,10.0,110.0
13665,85.0,1,110,0.0,98.0
13666,73.0,0,110,0.0,98.0
13667,61.0,1,110,1.0,98.0
13668,73.0,0,110,1.0,98.0
13669,61.0,3,20,11.0,110.0
13670,61.0,0,110,3.0,100.0
13671,58.0,1,110,3.0,100.0
13672,74.0,27,20,10.0,110.0
13673,62.0,0,20,11.0,110.0
13674,86.0,19,20,10.0,110.0
13675,74.0,3,20,11.0,110.0
13676,65.0,2,60,12.0,110.0
13677,53.0,2,60,13.0,108.0
13678,41.0,3,60,14.0,106.0
13679,86.0,27,20,10.0,110.0
13680,74.0,3,20,11.0,110.0
13681,86.0,27,20,10.0,110.0
13682,74.0,3,20,11.0,110.0
13683,86.0,27,20,10.0,110.0
13684,74.0,3,20,11.0,110.0
13685,86.0,19,20,10.0,110.0
13686,74.0,3,20,11.0,110.0
13687,74.0,2,60,12.0,110.0
13688,57.0,2,60,13.0,108.0
13689,45.0,4,60,14.0,106.0
13690,86.0,27,20,10.0,110.0
13691,74.0,3,20,11.0,110.0
13692,86.0,27,20,10.0,110.0
13693,74.0,3,20,11.0,110.0
13694,86.0,27,20,10.0,110.0
13695,74.0,3,20,11.0,110.0
13696,86.0,19,20,10.0,110.0
13697,74.0,3,20,11.0,110.0
13698,69.0,2,60,12.0,110.0
13699,62.0,2,60,13.0,108.0
13700,50.0,4,60,14.0,106.0
13701,86.0,27,20,10.0,110.0
13702,74.0,3,20,11.0,110.0
13703,86.0,27,20,10.0,110.0
13704,74.0,3,20,11.0,110.0
13705,86.0,27,20,10.0,110.0
13706,74.0,3,20,11.0,110.0
13707,86.0,19,20,10.0,110.0
13708,74.0,3,20,11.0,110.0
13709,65.0,2,60,12.0,110.0
13710,65.0,2,60,13.0,108.0
13711,53.0,4,60,14.0,106.0
13712,86.0,27,20,10.0,110.0
13713,74.0,3,20,11.0,110.0
13714,86.0,27,20,10.0,110.0
13715,86.0,0,470,0.0,98.0
13716,74.0,1,470,0.0,98.0
13717,74.0,1,470,1.0,98.0
13718,62.0,0,470,1.0,98.0
13719,74.0,3,20,11.0,110.0
13720,65.0,1,470,2.0,98.0
13721,53.0,1,470,3.0,100.0
13722,57.0,0,470,3.0,100.0
13723,87.0,27,20,10.0,110.0
13724,75.0,0,20,11.0,110.0
13725,87.0,19,20,10.0,110.0
13726,75.0,3,20,11.0,110.0
13727,66.0,2,60,12.0,110.0
13728,54.0,2,60,13.0,108.0
13729,42.0,3,60,14.0,106.0
13730,87.0,27,20,10.0,110.0
13731,75.0,3,20,11.0,110.0
13732,87.0,27,20,10.0,110.0
13733,69.0,0,590,2.0,98.0
13734,75.0,3,20,11.0,110.0
13735,75.0,1,120,0.0,98.0
13736,87.0,0,120,0.0,98.0
13737,75.0,1,120,1.0,98.0
13738,66.0,1,120,2.0,98.0
13739,54.0,1,120,3.0,100.0
13740,84.0,27,20,10.0,110.0
13741,72.0,0,20,11.0,110.0
13742,84.0,19,20,10.0,110.0
13743,72.0,3,20,11.0,110.0
13744,72.0,1,60,12.0,110.0
13745,60.0,2,60,13.0,108.0
13746,48.0,1,60,14.0,106.0
13747,84.0,27,20,10.0,110.0
13748,72.0,3,20,11.0,110.0
13749,84.0,27,20,10.0,110.0
13750,72.0,3,20,11.0,110.0
13751,84.0,1,120,0.0,98.0
13752,72.0,1,120,6.0,96.0
13753,60.0,0,120,4.0,94.0
13754,72.0,0,120,1.0,98.0
13755,60.0,0,0,6.0,96.0
13756,72.0,1,120,2.0,98.0
13757,48.0,1,120,5.0,94.0
13758,60.0,1,120,3.0,100.0
13759,48.0,2,120,15.0,94.0
13760,81.0,27,20,10.0,110.0
13761,69.0,0,20,11.0,110.0
13762,81.0,19,20,10.0,110.0
13763,69.0,3,20,11.0,110.0
13764,69.0,1,60,12.0,110.0
13765,57.0,2,60,13.0,108.0
13766,45.0,1,60,14.0,106.0
13767,81.0,27,20,10.0,110.0
13768,69.0,3,20,11.0,110.0
13769,81.0,27,20,10.0,110.0
13770,69.0,3,20,11.0,110.0
13771,81.0,1,120,0.0,98.0
13772,60.0,0,120,4.0,94.0
13773,72.0,0,120,6.0,96.0
13774,69.0,1,120,1.0,98.0
13775,60.0,0,0,6.0,96.0
13776,69.0,1,120,2.0,98.0
13777,48.0,1,120,5.0,94.0
13778,57.0,1,120,3.0,100.0
13779,48.0,2,120,15.0,94.0
13780,78.0,27,20,10.0,110.0
13781,66.0,0,20,11.0,110.0
13782,78.0,19,20,10.0,110.0
13783,66.0,3,20,11.0,110.0
13784,66.0,1,60,12.0,110.0
13785,54.0,2,60,13.0,108.0
13786,42.0,1,60,14.0,106.0
13787,78.0,27,20,10.0,110.0
13788,66.0,3,20,11.0,110.0
13789,78.0,27,20,10.0,110.0
13790,78.0,1,110,0.0,98.0
13791,66.0,0,110,1.0,98.0
13792,66.0,3,20,11.0,110.0
13793,66.0,1,110,2.0,98.0
13794,54.0,1,110,3.0,100.0
13795,72.0,0,120,6.0,96.0
13796,60.0,0,0,4.0,94.0
13797,48.0,1,120,5.0,94.0
13798,48.0,2,120,15.0,94.0
13799,79.0,27,20,10.0,110.0
13800,67.0,0,20,11.0,110.0
13801,79.0,19,20,10.0,110.0
13802,67.0,3,20,11.0,110.0
13803,67.0,1,50,12.0,110.0
13804,55.0,2,50,13.0,108.0
13805,43.0,1,50,14.0,106.0
13806,79.0,27,20,10.0,110.0
13807,67.0,3,20,11.0,110.0
13808,79.0,19,20,10.0,110.0
13809,67.0,3,20,11.0,110.0
13810,67.0,2,50,12.0,110.0
13811,55.0,2,50,13.0,108.0
13812,43.0,4,50,14.0,106.0
13813,79.0,27,20,10.0,110.0
13814,67.0,3,20,11.0,110.0
13815,79.0,19,20,10.0,110.0
13816,67.0,3,20,11.0,110.0
13817,67.0,2,50,12.0,110.0
13818,55.0,2,50,13.0,108.0
13819,43.0,4,50,14.0,106.0
13820,79.0,27,20,10.0,110.0
13821,67.0,3,20,11.0,110.0
13822,79.0,19,20,10.0,110.0
13823,79.0,1,230,0.0,98.0
13824,67.0,1,230,1.0,98.0
13825,67.0,3,20,11.0,110.0
13826,67.0,1,230,2.0,98.0
13827,67.0,2,50,12.0,110.0
13828,55.0,2,50,13.0,108.0
13829,55.0,1,230,3.0,100.0
13830,43.0,4,50,14.0,106.0
13831,55.0,0,240,6.0,96.0
13832,67.0,0,240,6.0,96.0
13833,48.0,1,240,5.0,94.0
13834,43.0,2,240,15.0,94.0
13835,81.0,27,20,10.0,110.0
13836,69.0,1,20,11.0,110.0
13837,81.0,19,20,10.0,110.0
13838,69.0,3,20,11.0,110.0
13839,69.0,2,50,12.0,110.0
13840,57.0,2,50,13.0,108.0
13841,45.0,3,50,14.0,106.0
13842,81.0,27,20,10.0,110.0
13843,69.0,3,20,11.0,110.0
13844,81.0,19,20,10.0,110.0
13845,69.0,3,20,11.0,110.0
13846,69.0,2,50,12.0,110.0
13847,57.0,2,50,13.0,108.0
13848,45.0,4,50,14.0,106.0
13849,81.0,27,20,10.0,110.0
13850,69.0,3,20,11.0,110.0
13851,81.0,19,20,10.0,110.0
13852,69.0,3,20,11.0,110.0
13853,69.0,2,50,12.0,110.0
13854,57.0,2,50,13.0,108.0
13855,45.0,4,50,14.0,106.0
13856,81.0,27,20,10.0,110.0
13857,69.0,3,20,11.0,110.0
13858,81.0,19,20,10.0,110.0
13859,81.0,1,230,0.0,98.0
13860,69.0,1,230,1.0,98.0
13861,69.0,0,230,2.0,98.0
13862,69.0,3,20,11.0,110.0
13863,69.0,2,50,12.0,110.0
13864,57.0,2,50,13.0,108.0
13865,57.0,1,230,3.0,100.0
13866,45.0,4,50,14.0,106.0
13867,77.0,27,20,10.0,110.0
13868,65.0,1,20,11.0,110.0
13869,77.0,19,20,10.0,110.0
13870,65.0,3,20,11.0,110.0
13871,65.0,2,50,12.0,110.0
13872,53.0,2,50,13.0,108.0
13873,41.0,3,50,14.0,106.0
13874,77.0,27,20,10.0,110.0
13875,65.0,3,20,11.0,110.0
13876,77.0,19,20,10.0,110.0
13877,65.0,3,20,11.0,110.0
13878,65.0,2,50,12.0,110.0
13879,53.0,2,50,13.0,108.0
13880,41.0,4,50,14.0,106.0
13881,77.0,27,20,10.0,110.0
13882,65.0,3,20,11.0,110.0
13883,77.0,19,20,10.0,110.0
13884,65.0,3,20,11.0,110.0
13885,65.0,2,50,12.0,110.0
13886,53.0,2,50,13.0,108.0
13887,41.0,4,50,14.0,106.0
13888,77.0,27,20,10.0,110.0
13889,65.0,3,20,11.0,110.0
13890,77.0,19,20,10.0,110.0
13891,77.0,1,230,0.0,98.0
13892,65.0,1,230,1.0,98.0
13893,65.0,0,230,2.0,98.0
13894,65.0,3,20,11.0,110.0
13895,65.0,2,50,12.0,110.0
13896,53.0,2,50,13.0,108.0
13897,53.0,1,230,3.0,100.0
13898,41.0,4,50,14.0,106.0
13899,79.0,27,20,10.0,110.0
13900,67.0,1,20,11.0,110.0
13901,43.0,7,0,15.0,79.0
13902,79.0,19,20,10.0,110.0
13903,67.0,3,20,11.0,110.0
13904,67.0,1,50,12.0,110.0
13905,55.0,2,50,13.0,108.0
13906,43.0,1,50,14.0,106.0
13907,79.0,20,20,10.0,110.0
13908,67.0,3,20,11.0,110.0
13909,43.0,7,0,15.0,79.0
13910,79.0,19,20,10.0,110.0
13911,67.0,3,20,11.0,110.0
13912,67.0,2,50,12.0,110.0
13913,55.0,2,50,13.0,108.0
13914,43.0,1,50,14.0,106.0
13915,43.0,3,0,15.0,79.0
13916,79.0,20,20,10.0,110.0
13917,67.0,3,20,11.0,110.0
13918,79.0,19,20,10.0,110.0
13919,67.0,3,20,11.0,110.0
13920,67.0,2,50,12.0,110.0
13921,55.0,2,50,13.0,108.0
13922,43.0,1,50,14.0,106.0
13923,43.0,7,30,15.0,79.0
13924,79.0,20,20,10.0,110.0
13925,67.0,3,20,11.0,110.0
13926,43.0,3,30,15.0,79.0
13927,79.0,19,20,10.0,110.0
13928,79.0,1,230,0.0,98.0
13929,67.0,0,230,1.0,98.0
13930,67.0,0,230,2.0,98.0
13931,67.0,3,20,11.0,110.0
13932,67.0,2,50,12.0,110.0
13933,55.0,2,50,13.0,108.0
13934,55.0,1,230,3.0,100.0
13935,43.0,1,50,14.0,106.0
13936,67.0,1,240,6.0,96.0
13937,67.0,0,240,4.0,94.0
13938,79.0,0,240,6.0,96.0
13939,55.0,1,240,5.0,94.0
13940,43.0,7,30,15.0,79.0
13941,60.0,1,60,12.0,110.0
13942,72.0,20,120,10.0,110.0
13943,72.0,1,120,0.0,98.0
13944,60.0,0,120,1.0,98.0
13945,60.0,0,120,6.0,96.0
13946,72.0,0,120,6.0,96.0
13947,60.0,0,120,11.0,110.0
13948,60.0,1,120,2.0,98.0
13949,48.0,54,60,12.0,110.0
13950,48.0,2,120,13.0,108.0
13951,48.0,1,120,3.0,100.0
13952,48.0,2,120,15.0,77.0
13953,36.0,1,120,14.0,106.0
13954,60.0,2,60,12.0,110.0
13955,48.0,60,50,12.0,110.0
13956,77.0,0,120,1.0,88.0
13957,81.0,57,120,1.0,88.0
13958,69.0,1,120,2.0,88.0
13959,65.0,0,120,2.0,88.0
13960,60.0,2,60,12.0,110.0
13961,76.0,0,120,1.0,88.0
13962,79.0,57,120,1.0,88.0
13963,64.0,1,120,2.0,88.0
13964,67.0,0,120,2.0,88.0
13965,48.0,60,60,12.0,110.0
13966,60.0,2,60,12.0,110.0
13967,48.0,60,50,12.0,110.0
13968,83.0,55,120,10.0,110.0
13969,74.0,0,120,1.0,88.0
13970,77.0,2,120,1.0,88.0
13971,65.0,0,120,2.0,88.0
13972,62.0,1,120,2.0,88.0
13973,71.0,0,120,11.0,110.0
13974,60.0,2,60,12.0,110.0
13975,72.0,0,120,1.0,88.0
13976,76.0,2,120,1.0,88.0
13977,64.0,0,120,2.0,88.0
13978,60.0,0,120,2.0,88.0
13979,48.0,60,60,12.0,110.0
13980,84.0,55,180,10.0,125.0
13981,72.0,1,180,11.0,125.0
13982,60.0,2,60,12.0,110.0
13983,83.0,55,30,10.0,110.0
13984,71.0,3,30,11.0,110.0
13985,81.0,25,20,10.0,110.0
13986,69.0,3,20,11.0,110.0
13987,48.0,2,50,12.0,110.0
13988,74.0,0,120,1.0,88.0
13989,77.0,57,120,1.0,88.0
13990,62.0,0,120,2.0,88.0
13991,65.0,1,120,2.0,88.0
13992,79.0,27,60,10.0,110.0
13993,67.0,0,60,11.0,110.0
13994,60.0,2,60,12.0,110.0
13995,48.0,60,50,12.0,110.0
13996,76.0,2,120,1.0,88.0
13997,60.0,1,840,4.0,94.0
13998,79.0,0,120,1.0,88.0
13999,67.0,1,120,2.0,88.0
14000,64.0,0,120,2.0,88.0
14001,48.0,1,840,5.0,94.0
14002,62.0,1,60,12.0,110.0
14003,55.0,54,50,12.0,110.0
14004,77.0,55,120,10.0,110.0
14005,83.0,1,120,0.0,98.0
14006,62.0,0,120,4.0,94.0
14007,77.0,0,120,1.0,88.0
14008,74.0,1,120,1.0,88.0
14009,65.0,0,120,11.0,110.0
14010,62.0,0,120,2.0,88.0
14011,65.0,1,120,2.0,88.0
14012,55.0,1,120,5.0,94.0
14013,43.0,2,120,13.0,108.0
14014,53.0,1,120,3.0,100.0
14015,50.0,0,120,3.0,100.0
14016,31.0,3,120,14.0,106.0
14017,84.0,1,60,0.0,88.0
14018,72.0,0,60,1.0,88.0
14019,76.0,0,60,1.0,88.0
14020,64.0,1,60,2.0,88.0
14021,60.0,0,60,2.0,88.0
14022,60.0,1,60,12.0,110.0
14023,52.0,0,60,3.0,90.0
14024,48.0,1,60,3.0,90.0
14025,76.0,55,120,10.0,95.0
14026,64.0,0,120,11.0,95.0
14027,48.0,54,60,12.0,110.0
14028,48.0,2,120,13.0,108.0
14029,36.0,3,120,14.0,106.0
14030,60.0,2,60,12.0,110.0
14031,48.0,57,50,12.0,110.0
14032,65.0,58,120,2.0,98.0
14033,69.0,0,120,2.0,98.0
14034,53.0,0,120,3.0,100.0
14035,57.0,3,120,3.0,100.0
14036,60.0,2,60,12.0,110.0
14037,67.0,0,120,2.0,98.0
14038,64.0,58,120,2.0,98.0
14039,48.0,57,60,12.0,110.0
14040,55.0,3,120,3.0,100.0
14041,52.0,0,120,3.0,100.0
14042,60.0,2,60,12.0,110.0
14043,48.0,57,50,12.0,110.0
14044,83.0,55,120,10.0,110.0
14045,71.0,3,120,11.0,110.0
14046,65.0,0,120,2.0,98.0
14047,62.0,0,120,2.0,98.0
14048,50.0,3,120,3.0,100.0
14049,53.0,0,120,3.0,100.0
14050,60.0,2,60,12.0,110.0
14051,64.0,0,120,2.0,98.0
14052,60.0,3,120,2.0,98.0
14053,48.0,57,60,12.0,110.0
14054,52.0,0,120,3.0,100.0
14055,48.0,3,120,3.0,100.0
14056,84.0,55,180,10.0,125.0
14057,72.0,0,180,11.0,125.0
14058,60.0,2,60,12.0,110.0
14059,83.0,52,30,10.0,110.0
14060,71.0,3,30,11.0,110.0
14061,81.0,25,20,10.0,110.0
14062,69.0,3,20,11.0,110.0
14063,48.0,2,50,12.0,110.0
14064,65.0,58,120,2.0,98.0
14065,62.0,0,120,2.0,98.0
14066,53.0,3,120,3.0,100.0
14067,50.0,0,120,3.0,100.0
14068,79.0,27,60,10.0,110.0
14069,67.0,3,60,11.0,110.0
14070,60.0,2,60,12.0,110.0
14071,48.0,57,50,12.0,110.0
14072,60.0,1,840,4.0,94.0
14073,64.0,0,120,2.0,98.0
14074,67.0,0,120,2.0,98.0
14075,48.0,1,840,5.0,94.0
14076,52.0,0,120,3.0,100.0
14077,55.0,3,120,3.0,100.0
14078,62.0,1,60,12.0,110.0
14079,55.0,54,50,12.0,110.0
14080,83.0,55,120,10.0,110.0
14081,83.0,1,120,0.0,98.0
14082,62.0,0,120,4.0,94.0
14083,77.0,0,120,1.0,98.0
14084,74.0,1,120,1.0,98.0
14085,65.0,0,120,2.0,98.0
14086,62.0,0,120,2.0,98.0
14087,71.0,1,120,11.0,110.0
14088,55.0,1,120,5.0,94.0
14089,43.0,2,120,13.0,108.0
14090,53.0,1,120,3.0,100.0
14091,50.0,0,120,3.0,100.0
14092,31.0,3,120,14.0,106.0
14093,72.0,1,60,1.0,98.0
14094,76.0,0,60,1.0,98.0
14095,60.0,0,60,2.0,98.0
14096,64.0,1,60,2.0,98.0
14097,60.0,1,60,12.0,110.0
14098,52.0,0,60,3.0,100.0
14099,48.0,1,60,3.0,100.0
14100,48.0,54,60,12.0,110.0
14101,48.0,2,120,13.0,108.0
14102,36.0,3,120,14.0,106.0
14103,84.0,55,180,10.0,125.0
14104,84.0,1,180,0.0,98.0
14105,72.0,0,180,11.0,125.0
14106,60.0,2,60,12.0,110.0
14107,83.0,55,30,10.0,110.0
14108,83.0,1,30,0.0,98.0
14109,71.0,2,30,11.0,110.0
14110,81.0,25,20,10.0,110.0
14111,69.0,2,20,11.0,110.0
14112,48.0,2,50,12.0,110.0
14113,81.0,1,30,0.0,98.0
14114,81.0,1,120,1.0,98.0
14115,77.0,0,120,1.0,98.0
14116,69.0,1,120,2.0,98.0
14117,65.0,0,120,2.0,98.0
14118,79.0,27,60,10.0,110.0
14119,67.0,0,60,11.0,110.0
14120,60.0,2,60,12.0,110.0
14121,48.0,60,50,12.0,110.0
14122,79.0,1,120,0.0,98.0
14123,60.0,0,360,4.0,94.0
14124,79.0,0,120,1.0,98.0
14125,76.0,1,120,1.0,98.0
14126,64.0,0,120,2.0,98.0
14127,67.0,1,120,2.0,98.0
14128,48.0,1,360,5.0,94.0
14129,62.0,1,60,12.0,110.0
14130,55.0,54,50,12.0,110.0
14131,83.0,55,120,10.0,110.0
14132,77.0,1,120,0.0,98.0
14133,83.0,0,120,0.0,98.0
14134,77.0,0,120,1.0,98.0
14135,74.0,1,120,1.0,98.0
14136,67.0,0,120,6.0,96.0
14137,62.0,0,120,4.0,94.0
14138,55.0,0,120,6.0,96.0
14139,65.0,0,120,2.0,98.0
14140,62.0,0,120,2.0,98.0
14141,71.0,1,120,11.0,110.0
14142,55.0,1,120,5.0,94.0
14143,43.0,2,120,13.0,108.0
14144,43.0,3,120,15.0,76.0
14145,31.0,1,120,14.0,106.0
14146,72.0,0,60,1.0,98.0
14147,76.0,0,60,1.0,98.0
14148,64.0,1,60,2.0,98.0
14149,60.0,0,60,2.0,98.0
14150,60.0,1,60,12.0,110.0
14151,60.0,1,120,6.0,96.0
14152,72.0,0,120,6.0,96.0
14153,48.0,54,60,12.0,110.0
14154,48.0,2,120,13.0,108.0
14155,48.0,3,120,15.0,58.0
14156,36.0,1,120,14.0,106.0
14157,84.0,55,180,10.0,125.0
14158,84.0,1,180,0.0,98.0
14159,72.0,0,180,11.0,125.0
14160,60.0,2,60,12.0,110.0
14161,83.0,52,30,10.0,110.0
14162,83.0,1,30,0.0,98.0
14163,71.0,2,30,11.0,110.0
14164,81.0,25,20,10.0,110.0
14165,69.0,2,20,11.0,110.0
14166,48.0,2,50,12.0,110.0
14167,81.0,1,30,0.0,98.0
14168,81.0,0,120,1.0,98.0
14169,77.0,1,120,1.0,98.0
14170,65.0,1,120,2.0,98.0
14171,69.0,0,120,2.0,98.0
14172,53.0,3,120,3.0,100.0
14173,57.0,0,120,3.0,100.0
14174,79.0,27,60,10.0,110.0
14175,67.0,1,60,11.0,110.0
14176,60.0,2,60,12.0,110.0
14177,48.0,57,50,12.0,110.0
14178,79.0,1,120,0.0,98.0
14179,60.0,0,360,4.0,94.0
14180,76.0,1,120,1.0,98.0
14181,79.0,0,120,1.0,98.0
14182,64.0,0,120,2.0,98.0
14183,67.0,0,120,2.0,98.0
14184,48.0,1,360,5.0,94.0
14185,52.0,3,120,3.0,100.0
14186,55.0,0,120,3.0,100.0
14187,67.0,55,60,10.0,110.0
14188,83.0,1,60,0.0,98.0
14189,62.0,0,60,11.0,110.0
14190,71.0,0,60,11.0,110.0
14191,62.0,1,60,12.0,110.0
14192,43.0,2,60,13.0,108.0
14193,43.0,0,60,15.0,104.0
14194,74.0,0,60,10.0,110.0
14195,83.0,2,60,10.0,110.0
14196,31.0,1,60,14.0,106.0
14197,55.0,54,50,12.0,110.0
14198,77.0,0,120,0.0,98.0
14199,74.0,0,120,1.0,98.0
14200,62.0,1,120,4.0,94.0
14201,67.0,0,120,6.0,96.0
14202,77.0,0,120,1.0,98.0
14203,55.0,0,120,6.0,96.0
14204,62.0,0,120,2.0,98.0
14205,65.0,1,120,2.0,98.0
14206,55.0,1,120,5.0,94.0
14207,53.0,1,120,3.0,100.0
14208,50.0,0,120,3.0,100.0
14209,84.0,1,60,0.0,98.0
14210,48.0,2,60,13.0,88.0
14211,36.0,1,60,14.0,86.0
14212,67.0,55,120,10.0,90.0
14213,76.0,0,120,0.0,98.0
14214,60.0,0,120,4.0,94.0
14215,60.0,0,120,6.0,96.0
14216,72.0,0,120,6.0,96.0
14217,64.0,0,120,11.0,90.0
14218,55.0,0,120,11.0,90.0
14219,60.0,0,120,2.0,98.0
14220,64.0,1,120,2.0,98.0
14221,48.0,1,120,5.0,94.0
14222,55.0,0,120,12.0,90.0
14223,48.0,1,120,12.0,90.0
14224,52.0,1,120,3.0,100.0
14225,48.0,0,120,3.0,100.0
14226,76.0,2,120,10.0,90.0
14227,48.0,0,120,15.0,104.0
14228,84.0,0,120,10.0,90.0
14229,72.0,2,120,11.0,90.0
14230,64.0,2,120,12.0,90.0
14231,76.0,0,240,1.0,98.0
14232,72.0,1,240,1.0,98.0
14233,84.0,227,240,1.0,88.0
14234,72.0,0,240,1.0,88.0
14235,60.0,6,240,3.0,100.0
14236,82.0,234,240,1.0,88.0
14237,70.0,0,240,1.0,88.0
14238,58.0,6,240,3.0,100.0
14239,67.0,112,90,10.0,95.0
14240,55.0,3,90,11.0,95.0
14241,71.0,87,20,10.0,95.0
14242,59.0,3,20,11.0,95.0
14243,91.0,0,240,0.0,88.0
14244,79.0,233,240,0.0,88.0
14245,79.0,1,240,1.0,88.0
14246,67.0,0,240,3.0,100.0
14247,55.0,6,240,3.0,100.0
14248,72.0,27,30,10.0,95.0
14249,60.0,1,30,11.0,95.0
14250,72.0,49,30,10.0,95.0
14251,60.0,3,30,11.0,95.0
14252,60.0,1,120,12.0,95.0
14253,60.0,2,120,13.0,93.0
14254,48.0,2,120,15.0,40.0
14255,48.0,1,120,14.0,91.0
14256,67.0,57,30,10.0,95.0
14257,55.0,3,30,11.0,95.0
14258,71.0,57,30,10.0,95.0
14259,59.0,3,30,11.0,95.0
14260,88.0,0,240,0.0,88.0
14261,76.0,1,240,0.0,88.0
14262,76.0,0,240,1.0,88.0
14263,52.0,1,240,3.0,100.0
14264,64.0,0,240,3.0,100.0
14265,72.0,57,30,10.0,95.0
14266,60.0,1,30,11.0,95.0
14267,72.0,52,30,10.0,95.0
14268,60.0,3,30,11.0,95.0
14269,67.0,57,30,10.0,95.0
14270,55.0,3,30,11.0,95.0
14271,71.0,57,30,10.0,95.0
14272,59.0,3,30,11.0,95.0
14273,84.0,1,240,0.0,88.0
14274,72.0,1,240,1.0,88.0
14275,72.0,0,240,2.0,88.0
14276,60.0,5,240,3.0,100.0
14277,48.0,0,240,3.0,100.0
14278,72.0,57,30,10.0,95.0
14279,60.0,1,30,11.0,95.0
14280,72.0,52,30,10.0,95.0
14281,60.0,3,30,11.0,95.0
14282,67.0,57,30,10.0,95.0
14283,55.0,3,30,11.0,95.0
14284,71.0,57,30,10.0,95.0
14285,59.0,3,30,11.0,95.0
14286,82.0,1,240,0.0,88.0
14287,70.0,1,240,1.0,88.0
14288,72.0,1,0,6.0,96.0
14289,60.0,0,0,4.0,94.0
14290,60.0,0,0,6.0,96.0
14291,70.0,0,240,2.0,88.0
14292,48.0,1,720,5.0,94.0
14293,58.0,0,240,3.0,100.0
14294,46.0,5,240,3.0,100.0
14295,72.0,57,30,10.0,95.0
14296,60.0,0,30,11.0,95.0
14297,72.0,50,60,10.0,95.0
14298,60.0,3,60,11.0,95.0
14299,48.0,2,120,15.0,40.0
14300,74.0,57,60,10.0,95.0
14301,62.0,3,60,11.0,95.0
14302,76.0,57,50,10.0,95.0
14303,64.0,3,50,11.0,95.0
14304,79.0,1,240,0.0,88.0
14305,60.0,1,0,4.0,94.0
14306,67.0,0,240,1.0,88.0
14307,67.0,1,240,2.0,88.0
14308,48.0,1,240,5.0,94.0
14309,55.0,0,240,3.0,100.0
14310,43.0,4,240,3.0,100.0
14311,77.0,57,120,10.0,95.0
14312,77.0,1,120,0.0,88.0
14313,65.0,0,120,1.0,88.0
14314,60.0,0,120,6.0,96.0
14315,72.0,0,120,6.0,96.0
14316,65.0,1,120,11.0,95.0
14317,65.0,0,120,2.0,88.0
14318,48.0,1,120,5.0,94.0
14319,41.0,0,120,3.0,100.0
14320,53.0,4,120,3.0,100.0
14321,60.0,117,90,12.0,110.0
14322,48.0,2,90,13.0,108.0
14323,36.0,4,90,14.0,106.0
14324,64.0,84,20,12.0,110.0
14325,52.0,2,20,13.0,108.0
14326,40.0,4,20,14.0,106.0
14327,65.0,3,60,12.0,95.0
14328,53.0,2,60,13.0,93.0
14329,41.0,3,60,14.0,91.0
14330,81.0,21,240,1.0,88.0
14331,69.0,0,240,1.0,88.0
14332,57.0,1,240,3.0,100.0
14333,79.0,0,240,1.0,88.0
14334,67.0,231,240,1.0,88.0
14335,67.0,6,240,3.0,100.0
14336,76.0,112,90,10.0,95.0
14337,64.0,3,90,11.0,95.0
14338,80.0,87,20,10.0,95.0
14339,68.0,3,20,11.0,95.0
14340,88.0,233,240,0.0,88.0
14341,76.0,1,240,1.0,88.0
14342,64.0,6,240,3.0,100.0
14343,81.0,27,30,10.0,95.0
14344,69.0,1,30,11.0,95.0
14345,81.0,49,30,10.0,95.0
14346,69.0,3,30,11.0,95.0
14347,45.0,4,120,13.0,93.0
14348,33.0,3,120,14.0,91.0
14349,76.0,57,30,10.0,95.0
14350,64.0,3,30,11.0,95.0
14351,80.0,57,30,10.0,95.0
14352,68.0,3,30,11.0,95.0
14353,85.0,1,240,0.0,88.0
14354,73.0,1,240,1.0,88.0
14355,61.0,1,240,3.0,100.0
14356,81.0,57,30,10.0,95.0
14357,69.0,0,30,11.0,95.0
14358,81.0,52,30,10.0,95.0
14359,69.0,3,30,11.0,95.0
14360,76.0,57,30,10.0,95.0
14361,64.0,3,30,11.0,95.0
14362,80.0,57,30,10.0,95.0
14363,68.0,3,30,11.0,95.0
14364,81.0,1,240,0.0,88.0
14365,69.0,1,240,1.0,88.0
14366,69.0,1,240,2.0,88.0
14367,57.0,5,240,3.0,100.0
14368,81.0,57,30,10.0,95.0
14369,69.0,1,30,11.0,95.0
14370,81.0,52,30,10.0,95.0
14371,69.0,3,30,11.0,95.0
14372,76.0,57,30,10.0,95.0
14373,64.0,3,30,11.0,95.0
14374,80.0,57,30,10.0,95.0
14375,68.0,3,30,11.0,95.0
14376,79.0,1,240,0.0,88.0
14377,67.0,1,240,1.0,88.0
14378,67.0,0,240,2.0,88.0
14379,55.0,5,240,3.0,100.0
14380,81.0,57,30,10.0,95.0
14381,69.0,0,30,11.0,95.0
14382,81.0,52,60,10.0,95.0
14383,69.0,3,60,11.0,95.0
14384,83.0,57,60,10.0,95.0
14385,71.0,3,60,11.0,95.0
14386,85.0,57,50,10.0,95.0
14387,73.0,3,50,11.0,95.0
14388,76.0,1,240,0.0,88.0
14389,64.0,1,240,1.0,88.0
14390,64.0,1,240,2.0,88.0
14391,52.0,5,240,3.0,100.0
14392,86.0,57,120,10.0,95.0
14393,74.0,1,120,0.0,88.0
14394,62.0,1,120,1.0,88.0
14395,74.0,0,120,11.0,95.0
14396,62.0,1,120,2.0,88.0
14397,50.0,5,120,3.0,100.0
14398,57.0,117,90,12.0,110.0
14399,45.0,2,90,13.0,108.0
14400,33.0,4,90,14.0,106.0
14401,61.0,84,20,12.0,110.0
14402,49.0,2,20,13.0,108.0
14403,37.0,4,20,14.0,106.0
14404,62.0,3,60,12.0,95.0
14405,50.0,2,60,13.0,93.0
14406,38.0,3,60,14.0,91.0
14407,74.0,21,240,1.0,88.0
14408,62.0,1,240,3.0,100.0
14409,50.0,0,240,3.0,100.0
14410,89.0,230,240,0.0,88.0
14411,77.0,1,240,1.0,88.0
14412,65.0,0,240,3.0,100.0
14413,53.0,6,240,3.0,100.0
14414,74.0,112,90,10.0,110.0
14415,62.0,3,90,11.0,110.0
14416,78.0,87,20,10.0,110.0
14417,66.0,3,20,11.0,110.0
14418,86.0,233,240,0.0,88.0
14419,74.0,1,240,1.0,88.0
14420,62.0,0,240,3.0,100.0
14421,50.0,6,240,3.0,100.0
14422,79.0,27,30,10.0,110.0
14423,67.0,1,30,11.0,110.0
14424,43.0,2,34,15.0,35.0
14425,43.0,39,34,15.0,37.0
14426,79.0,10,30,10.0,110.0
14427,67.0,3,30,11.0,110.0
14428,55.0,2,120,12.0,110.0
14429,43.0,28,34,15.0,36.0
14430,43.0,0,120,13.0,108.0
14431,31.0,3,120,14.0,106.0
14432,74.0,29,30,10.0,110.0
14433,62.0,3,30,11.0,110.0
14434,43.0,6,34,15.0,40.0
14435,43.0,44,34,15.0,41.0
14436,78.0,7,30,10.0,110.0
14437,66.0,3,30,11.0,110.0
14438,83.0,1,240,0.0,88.0
14439,43.0,25,34,15.0,44.0
14440,71.0,1,240,1.0,88.0
14441,47.0,0,240,3.0,100.0
14442,59.0,1,240,3.0,100.0
14443,79.0,32,30,10.0,110.0
14444,67.0,1,30,11.0,110.0
14445,43.0,4,34,15.0,45.0
14446,43.0,38,34,15.0,44.0
14447,79.0,10,30,10.0,110.0
14448,67.0,3,30,11.0,110.0
14449,43.0,26,34,15.0,49.0
14450,74.0,31,30,10.0,110.0
14451,62.0,3,30,11.0,110.0
14452,43.0,6,34,15.0,50.0
14453,43.0,42,34,15.0,52.0
14454,78.0,9,30,10.0,110.0
14455,66.0,3,30,11.0,110.0
14456,43.0,24,34,15.0,54.0
14457,79.0,1,240,0.0,88.0
14458,67.0,1,240,1.0,88.0
14459,67.0,0,240,2.0,88.0
14460,55.0,5,240,3.0,100.0
14461,43.0,0,240,3.0,100.0
14462,79.0,33,30,10.0,110.0
14463,67.0,0,30,11.0,110.0
14464,43.0,4,34,15.0,57.0
14465,43.0,41,34,15.0,60.0
14466,79.0,11,30,10.0,110.0
14467,67.0,3,30,11.0,110.0
14468,67.0,0,600,6.0,96.0
14469,74.0,0,600,6.0,96.0
14470,43.0,27,34,15.0,63.0
14471,74.0,30,30,10.0,110.0
14472,62.0,1,30,11.0,110.0
14473,43.0,7,34,15.0,65.0
14474,43.0,42,34,15.0,68.0
14475,78.0,8,30,10.0,110.0
14476,66.0,3,30,11.0,110.0
14477,77.0,1,240,0.0,88.0
14478,43.0,24,34,15.0,74.0
14479,65.0,0,240,1.0,88.0
14480,67.0,0,120,6.0,96.0
14481,55.0,1,0,6.0,96.0
14482,65.0,1,240,2.0,88.0
14483,41.0,0,240,3.0,100.0
14484,53.0,0,240,3.0,100.0
14485,79.0,33,30,10.0,110.0
14486,67.0,0,30,11.0,110.0
14487,43.0,3,34,15.0,79.0
14488,43.0,40,34,15.0,81.0
14489,79.0,9,60,10.0,110.0
14490,67.0,0,120,6.0,96.0
14491,67.0,3,60,11.0,110.0
14492,43.0,29,34,15.0,87.0
14493,43.0,10,34,15.0,93.0
14494,81.0,28,60,10.0,110.0
14495,69.0,1,60,11.0,110.0
14496,43.0,39,34,15.0,93.0
14497,83.0,8,50,10.0,110.0
14498,71.0,3,50,11.0,110.0
14499,74.0,1,240,0.0,88.0
14500,67.0,0,120,6.0,96.0
14501,55.0,2,120,6.0,96.0
14502,62.0,0,240,1.0,88.0
14503,62.0,1,240,2.0,88.0
14504,43.0,28,34,15.0,97.0
14505,50.0,0,240,3.0,100.0
14506,38.0,5,240,3.0,100.0
14507,84.0,29,60,10.0,110.0
14508,76.0,0,60,0.0,98.0
14509,72.0,1,60,0.0,98.0
14510,72.0,0,60,6.0,96.0
14511,60.0,1,60,6.0,96.0
14512,64.0,0,60,1.0,98.0
14513,60.0,0,60,1.0,98.0
14514,64.0,0,60,2.0,98.0
14515,60.0,0,60,2.0,98.0
14516,72.0,1,60,11.0,110.0
14517,60.0,2,60,12.0,110.0
14518,48.0,2,60,13.0,108.0
14519,36.0,1,60,3.0,100.0
14520,48.0,0,60,3.0,100.0
14521,48.0,2,60,15.0,117.0
14522,36.0,1,60,14.0,106.0
14523,67.0,1,600,4.0,94.0
14524,55.0,1,600,5.0,94.0
14525,60.0,114,60,12.0,110.0
14526,48.0,2,60,13.0,108.0
14527,36.0,4,60,14.0,106.0
14528,65.0,109,60,10.0,110.0
14529,77.0,0,60,0.0,98.0
14530,81.0,1,60,0.0,98.0
14531,60.0,1,60,6.0,96.0
14532,72.0,0,60,1.0,98.0
14533,77.0,0,60,1.0,98.0
14534,60.0,0,60,4.0,94.0
14535,72.0,0,60,6.0,96.0
14536,65.0,0,60,2.0,98.0
14537,69.0,1,60,2.0,98.0
14538,65.0,0,60,11.0,110.0
14539,48.0,1,60,5.0,94.0
14540,53.0,0,60,3.0,100.0
14541,41.0,4,60,3.0,100.0
14542,48.0,0,60,15.0,99.0
14543,72.0,2,60,10.0,110.0
14544,81.0,0,60,10.0,110.0
14545,72.0,3,60,11.0,110.0
14546,81.0,0,60,11.0,110.0
14547,65.0,112,60,12.0,110.0
14548,53.0,2,60,13.0,108.0
14549,41.0,4,60,14.0,106.0
14550,64.0,109,60,10.0,110.0
14551,76.0,0,60,0.0,98.0
14552,79.0,1,60,0.0,98.0
14553,60.0,0,60,4.0,94.0
14554,76.0,0,60,1.0,98.0
14555,72.0,0,60,6.0,96.0
14556,60.0,1,60,6.0,96.0
14557,72.0,0,60,1.0,98.0
14558,64.0,0,60,11.0,110.0
14559,67.0,0,60,2.0,98.0
14560,64.0,1,60,2.0,98.0
14561,48.0,1,60,5.0,94.0
14562,55.0,4,60,3.0,100.0
14563,43.0,0,60,3.0,100.0
14564,72.0,2,60,10.0,110.0
14565,79.0,0,60,10.0,110.0
14566,48.0,0,60,15.0,99.0
14567,72.0,3,60,11.0,110.0
14568,79.0,0,60,11.0,110.0
14569,67.0,112,60,12.0,110.0
14570,55.0,2,60,13.0,108.0
14571,43.0,4,60,14.0,106.0
14572,62.0,109,60,10.0,110.0
14573,77.0,1,60,0.0,98.0
14574,83.0,0,60,0.0,98.0
14575,77.0,0,60,1.0,98.0
14576,74.0,0,60,1.0,98.0
14577,65.0,1,60,4.0,94.0
14578,65.0,1,60,2.0,98.0
14579,71.0,0,60,2.0,98.0
14580,62.0,0,60,11.0,110.0
14581,62.0,1,60,5.0,94.0
14582,56.0,4,60,3.0,100.0
14583,44.0,0,60,3.0,100.0
14584,77.0,2,60,10.0,110.0
14585,71.0,0,60,10.0,110.0
14586,71.0,3,60,11.0,110.0
14587,77.0,0,60,11.0,110.0
14588,68.0,112,60,12.0,110.0
14589,56.0,2,60,13.0,108.0
14590,44.0,4,60,14.0,106.0
14591,72.0,0,60,10.0,110.0
14592,76.0,109,60,10.0,110.0
14593,76.0,0,60,0.0,98.0
14594,84.0,1,60,0.0,98.0
14595,76.0,0,60,1.0,98.0
14596,72.0,0,60,1.0,98.0
14597,64.0,1,60,4.0,94.0
14598,72.0,0,60,6.0,96.0
14599,60.0,0,60,6.0,96.0
14600,64.0,0,60,2.0,98.0
14601,72.0,1,60,2.0,98.0
14602,72.0,0,60,11.0,110.0
14603,76.0,0,60,11.0,110.0
14604,60.0,1,60,5.0,94.0
14605,57.0,0,60,3.0,100.0
14606,45.0,4,60,3.0,100.0
14607,48.0,2,60,15.0,99.0
14608,69.0,115,60,12.0,110.0
14609,57.0,2,60,13.0,108.0
14610,45.0,4,60,14.0,106.0
14611,65.0,109,60,10.0,110.0
14612,81.0,1,60,0.0,98.0
14613,77.0,0,60,0.0,98.0
14614,77.0,0,60,1.0,98.0
14615,72.0,0,60,6.0,96.0
14616,60.0,0,60,6.0,96.0
14617,60.0,1,60,4.0,94.0
14618,72.0,0,60,1.0,98.0
14619,65.0,0,60,11.0,110.0
14620,72.0,1,60,2.0,98.0
14621,69.0,0,60,2.0,98.0
14622,48.0,1,60,5.0,94.0
14623,41.0,4,60,3.0,100.0
14624,53.0,0,60,3.0,100.0
14625,81.0,2,60,10.0,110.0
14626,48.0,0,60,15.0,99.0
14627,72.0,0,60,10.0,110.0
14628,81.0,3,60,11.0,110.0
14629,72.0,0,60,11.0,110.0
14630,65.0,112,60,12.0,110.0
14631,53.0,2,60,13.0,108.0
14632,41.0,4,60,14.0,106.0
14633,64.0,109,60,10.0,110.0
14634,79.0,0,60,0.0,98.0
14635,76.0,1,60,0.0,98.0
14636,72.0,0,60,1.0,98.0
14637,76.0,0,60,1.0,98.0
14638,60.0,1,60,4.0,94.0
14639,60.0,0,60,6.0,96.0
14640,72.0,0,60,6.0,96.0
14641,64.0,0,60,2.0,98.0
14642,64.0,1,60,11.0,110.0
14643,67.0,0,60,2.0,98.0
14644,48.0,1,60,5.0,94.0
14645,43.0,0,60,3.0,100.0
14646,55.0,4,60,3.0,100.0
14647,79.0,0,60,10.0,110.0
14648,72.0,2,60,10.0,110.0
14649,48.0,0,60,15.0,99.0
14650,79.0,3,60,11.0,110.0
14651,72.0,0,60,11.0,110.0
14652,67.0,112,60,12.0,110.0
14653,55.0,2,60,13.0,108.0
14654,43.0,4,60,14.0,106.0
14655,62.0,109,60,10.0,110.0
14656,83.0,0,60,0.0,98.0
14657,77.0,1,60,0.0,98.0
14658,65.0,0,60,4.0,94.0
14659,74.0,0,60,1.0,98.0
14660,77.0,1,60,1.0,98.0
14661,62.0,1,60,11.0,110.0
14662,65.0,0,60,2.0,98.0
14663,71.0,0,60,2.0,98.0
14664,62.0,1,60,5.0,94.0
14665,56.0,0,60,3.0,100.0
14666,44.0,4,60,3.0,100.0
14667,71.0,2,60,10.0,110.0
14668,77.0,0,60,10.0,110.0
14669,71.0,0,60,11.0,110.0
14670,77.0,3,60,11.0,110.0
14671,68.0,112,60,12.0,110.0
14672,56.0,2,60,13.0,108.0
14673,44.0,4,60,14.0,106.0
14674,76.0,0,60,10.0,110.0
14675,72.0,109,60,10.0,110.0
14676,76.0,1,60,0.0,98.0
14677,84.0,0,60,0.0,98.0
14678,76.0,0,60,1.0,98.0
14679,64.0,0,60,4.0,94.0
14680,72.0,1,60,6.0,96.0
14681,60.0,0,60,6.0,96.0
14682,72.0,0,60,1.0,98.0
14683,76.0,0,60,11.0,110.0
14684,72.0,0,60,2.0,98.0
14685,64.0,1,60,2.0,98.0
14686,72.0,0,60,11.0,110.0
14687,60.0,1,60,5.0,94.0
14688,45.0,0,60,3.0,100.0
14689,57.0,4,60,3.0,100.0
14690,48.0,2,60,15.0,99.0
14691,69.0,115,60,12.0,110.0
14692,57.0,2,60,13.0,108.0
14693,45.0,4,60,14.0,106.0
14694,65.0,109,60,10.0,110.0
14695,81.0,0,60,0.0,98.0
14696,89.0,1,60,0.0,98.0
14697,60.0,1,60,6.0,96.0
14698,60.0,0,60,4.0,94.0
14699,72.0,0,60,6.0,96.0
14700,81.0,0,60,1.0,98.0
14701,72.0,0,60,1.0,98.0
14702,69.0,0,60,2.0,98.0
14703,72.0,0,60,2.0,98.0
14704,65.0,1,60,11.0,110.0
14705,48.0,1,60,5.0,94.0
14706,53.0,0,60,3.0,100.0
14707,41.0,4,60,3.0,100.0
14708,81.0,2,60,10.0,110.0
14709,72.0,0,60,10.0,110.0
14710,48.0,0,60,15.0,99.0
14711,72.0,0,60,11.0,110.0
14712,81.0,3,60,11.0,110.0
14713,65.0,112,60,12.0,110.0
14714,53.0,2,60,13.0,108.0
14715,41.0,4,60,14.0,106.0
14716,64.0,109,60,10.0,110.0
14717,84.0,1,60,0.0,98.0
14718,88.0,0,60,0.0,98.0
14719,72.0,0,60,1.0,98.0
14720,76.0,0,60,1.0,98.0
14721,60.0,1,60,4.0,94.0
14722,72.0,0,60,6.0,96.0
14723,60.0,0,60,6.0,96.0
14724,64.0,0,60,11.0,110.0
14725,64.0,0,60,2.0,98.0
14726,72.0,1,60,2.0,98.0
14727,48.0,1,60,5.0,94.0
14728,43.0,4,60,3.0,100.0
14729,55.0,0,60,3.0,100.0
14730,72.0,0,60,10.0,110.0
14731,48.0,0,60,15.0,99.0
14732,79.0,2,60,10.0,110.0
14733,79.0,3,60,11.0,110.0
14734,72.0,0,60,11.0,110.0
14735,67.0,112,60,12.0,110.0
14736,55.0,2,60,13.0,108.0
14737,43.0,4,60,14.0,106.0
14738,67.0,109,60,10.0,110.0
14739,83.0,0,60,0.0,98.0
14740,77.0,1,60,0.0,98.0
14741,62.0,0,60,4.0,94.0
14742,74.0,0,60,6.0,96.0
14743,74.0,1,60,1.0,98.0
14744,71.0,0,60,1.0,98.0
14745,67.0,0,60,6.0,96.0
14746,65.0,1,60,2.0,98.0
14747,71.0,0,60,2.0,98.0
14748,67.0,0,60,11.0,110.0
14749,55.0,1,60,5.0,94.0
14750,55.0,4,60,3.0,100.0
14751,43.0,0,60,3.0,100.0
14752,43.0,0,60,15.0,99.0
14753,83.0,0,60,10.0,110.0
14754,74.0,2,60,10.0,110.0
14755,83.0,3,60,11.0,110.0
14756,74.0,0,60,11.0,110.0
14757,55.0,112,60,12.0,110.0
14758,43.0,2,60,13.0,108.0
14759,31.0,4,60,14.0,106.0
14760,64.0,0,20,11.0,100.0
14761,55.0,1,20,11.0,100.0
14762,60.0,1,20,12.0,100.0
14763,55.0,22,20,11.0,100.0
14764,64.0,0,20,11.0,100.0
14765,60.0,2,20,12.0,100.0
14766,67.0,109,60,10.0,110.0
14767,72.0,0,60,6.0,96.0
14768,64.0,0,60,6.0,96.0
14769,84.0,0,60,10.0,110.0
14770,76.0,2,60,10.0,110.0
14771,48.0,0,60,15.0,99.0
14772,55.0,0,20,11.0,100.0
14773,64.0,28,20,11.0,100.0
14774,60.0,2,20,12.0,100.0
14775,64.0,0,20,11.0,100.0
14776,55.0,28,20,11.0,100.0
14777,60.0,2,20,12.0,100.0
14778,55.0,0,20,11.0,100.0
14779,64.0,28,20,11.0,100.0
14780,60.0,2,20,12.0,100.0
14781,55.0,28,20,11.0,100.0
14782,64.0,0,20,11.0,100.0
14783,60.0,2,20,12.0,100.0
14784,55.0,0,20,11.0,100.0
14785,64.0,28,20,11.0,100.0
14786,60.0,2,20,12.0,100.0
14787,55.0,0,20,11.0,100.0
14788,64.0,28,20,11.0,100.0
14789,60.0,2,20,12.0,100.0
14790,64.0,0,20,11.0,100.0
14791,55.0,28,20,11.0,100.0
14792,60.0,2,20,12.0,100.0
14793,64.0,0,20,11.0,100.0
14794,55.0,28,20,11.0,100.0
14795,60.0,2,20,12.0,100.0
14796,55.0,0,20,11.0,100.0
14797,64.0,28,20,11.0,100.0
14798,60.0,2,20,12.0,100.0
14799,55.0,0,20,11.0,100.0
14800,64.0,28,20,11.0,100.0
14801,60.0,2,20,12.0,100.0
14802,48.0,2,350,13.0,118.0
14803,36.0,1,350,14.0,116.0
14804,48.0,1,360,3.0,100.0
14805,64.0,3,20,11.0,100.0
14806,55.0,0,20,11.0,100.0
14807,60.0,2,20,12.0,100.0
14808,55.0,0,20,11.0,100.0
14809,64.0,22,20,11.0,100.0
14810,60.0,2,20,12.0,100.0
14811,55.0,0,20,11.0,100.0
14812,64.0,28,20,11.0,100.0
14813,60.0,2,20,12.0,100.0
14814,55.0,25,90,10.0,125.0
14815,43.0,2,90,13.0,127.0
14816,43.0,1,90,3.0,115.0
14817,31.0,3,90,14.0,127.0
14818,59.0,25,20,10.0,125.0
14819,55.0,0,20,11.0,100.0
14820,64.0,3,20,11.0,100.0
14821,60.0,2,20,12.0,100.0
14822,47.0,2,20,13.0,127.0
14823,47.0,1,20,3.0,115.0
14824,35.0,3,20,14.0,127.0
14825,64.0,0,20,11.0,100.0
14826,55.0,3,20,11.0,100.0
14827,60.0,2,20,12.0,100.0
14828,60.0,19,30,10.0,125.0
14829,48.0,2,30,13.0,127.0
14830,48.0,1,30,3.0,115.0
14831,36.0,3,30,14.0,127.0
14832,64.0,0,20,11.0,100.0
14833,55.0,22,20,11.0,100.0
14834,60.0,2,20,12.0,100.0
14835,64.0,3,20,11.0,100.0
14836,55.0,0,20,11.0,100.0
14837,60.0,2,20,12.0,100.0
14838,60.0,25,30,10.0,125.0
14839,48.0,2,30,13.0,127.0
14840,48.0,1,30,3.0,115.0
14841,36.0,3,30,14.0,127.0
14842,55.0,0,20,11.0,100.0
14843,64.0,22,20,11.0,100.0
14844,60.0,2,20,12.0,100.0
14845,64.0,0,20,11.0,100.0
14846,55.0,3,20,11.0,100.0
14847,60.0,2,20,12.0,100.0
14848,55.0,25,30,10.0,125.0
14849,43.0,2,30,13.0,127.0
14850,43.0,1,30,3.0,115.0
14851,31.0,3,30,14.0,127.0
14852,64.0,0,20,11.0,100.0
14853,55.0,22,20,11.0,100.0
14854,60.0,2,20,12.0,100.0
14855,55.0,0,20,11.0,100.0
14856,64.0,3,20,11.0,100.0
14857,60.0,2,20,12.0,100.0
14858,59.0,25,30,10.0,125.0
14859,47.0,2,30,13.0,127.0
14860,47.0,1,30,3.0,115.0
14861,35.0,3,30,14.0,127.0
14862,55.0,0,20,11.0,100.0
14863,64.0,22,20,11.0,100.0
14864,60.0,2,20,12.0,100.0
14865,55.0,3,20,11.0,100.0
14866,64.0,0,20,11.0,100.0
14867,60.0,2,20,12.0,100.0
14868,60.0,25,30,10.0,125.0
14869,48.0,2,30,13.0,127.0
14870,48.0,1,30,3.0,115.0
14871,36.0,3,30,14.0,127.0
14872,55.0,0,20,11.0,100.0
14873,64.0,22,20,11.0,100.0
14874,60.0,2,20,12.0,100.0
14875,55.0,0,20,11.0,100.0
14876,64.0,3,20,11.0,100.0
14877,60.0,2,20,12.0,100.0
14878,60.0,25,30,10.0,125.0
14879,48.0,2,30,13.0,127.0
14880,48.0,1,30,3.0,115.0
14881,36.0,3,30,14.0,127.0
14882,55.0,0,20,11.0,100.0
14883,64.0,22,20,11.0,100.0
14884,60.0,2,20,12.0,100.0
14885,64.0,0,20,11.0,100.0
14886,55.0,3,20,11.0,100.0
14887,60.0,2,20,12.0,100.0
14888,55.0,25,30,10.0,125.0
14889,43.0,2,30,13.0,127.0
14890,43.0,1,30,3.0,115.0
14891,31.0,3,30,14.0,127.0
14892,55.0,0,20,11.0,100.0
14893,64.0,22,20,11.0,100.0
14894,60.0,2,20,12.0,100.0
14895,55.0,0,20,11.0,100.0
14896,64.0,3,20,11.0,100.0
14897,60.0,2,20,12.0,100.0
14898,59.0,25,30,10.0,125.0
14899,47.0,2,30,13.0,127.0
14900,47.0,1,30,3.0,115.0
14901,35.0,3,30,14.0,127.0
14902,64.0,22,20,11.0,100.0
14903,55.0,0,20,11.0,100.0
14904,60.0,2,20,12.0,100.0
14905,55.0,0,20,11.0,100.0
14906,64.0,3,20,11.0,100.0
14907,60.0,2,20,12.0,100.0
14908,64.0,22,20,11.0,100.0
14909,55.0,0,20,11.0,100.0
14910,60.0,2,20,12.0,100.0
14911,64.0,28,20,11.0,100.0
14912,55.0,0,20,11.0,100.0
14913,60.0,2,20,12.0,100.0
14914,55.0,0,20,11.0,100.0
14915,64.0,28,20,11.0,100.0
14916,60.0,2,20,12.0,100.0
14917,60.0,25,120,10.0,125.0
14918,60.0,1,1080,4.0,84.0
14919,52.0,1,1080,5.0,84.0
14920,48.0,2,120,13.0,127.0
14921,48.0,1,120,3.0,115.0
14922,36.0,3,120,14.0,127.0
14923,64.0,0,20,11.0,100.0
14924,55.0,1,20,11.0,100.0
14925,60.0,1,20,12.0,100.0
14926,64.0,23,20,11.0,100.0
14927,55.0,0,20,11.0,100.0
14928,60.0,2,20,12.0,100.0
14929,60.0,0,60,4.0,121.0
14930,48.0,1,60,5.0,121.0
14931,64.0,0,20,11.0,100.0
14932,55.0,28,20,11.0,100.0
14933,60.0,2,20,12.0,100.0
14934,55.0,28,20,11.0,100.0
14935,64.0,0,20,11.0,100.0
14936,60.0,2,20,12.0,100.0
14937,60.0,27,120,6.0,123.0
14938,48.0,5,120,15.0,93.0
14939,55.0,0,20,11.0,100.0
14940,64.0,1,20,11.0,100.0
14941,60.0,1,20,12.0,100.0
14942,55.0,23,20,11.0,100.0
14943,64.0,0,20,11.0,100.0
14944,60.0,2,20,12.0,100.0
14945,64.0,27,60,4.0,121.0
14946,52.0,1,60,5.0,121.0
14947,55.0,28,20,11.0,100.0
14948,64.0,0,20,11.0,100.0
14949,60.0,2,20,12.0,100.0
14950,55.0,0,20,11.0,100.0
14951,64.0,28,20,11.0,100.0
14952,60.0,2,20,12.0,100.0
14953,64.0,0,120,6.0,123.0
14954,48.0,5,0,15.0,93.0
14955,64.0,0,20,11.0,100.0
14956,55.0,1,20,11.0,100.0
14957,60.0,1,20,12.0,100.0
14958,64.0,0,20,11.0,100.0
14959,55.0,23,20,11.0,100.0
14960,60.0,2,20,12.0,100.0
14961,67.0,0,60,4.0,121.0
14962,55.0,1,60,5.0,121.0
14963,64.0,0,20,11.0,100.0
14964,55.0,28,20,11.0,100.0
14965,60.0,2,20,12.0,100.0
14966,64.0,28,20,11.0,100.0
14967,55.0,0,20,11.0,100.0
14968,60.0,2,20,12.0,100.0
14969,67.0,27,120,6.0,123.0
14970,55.0,0,20,11.0,100.0
14971,64.0,1,20,11.0,100.0
14972,60.0,1,20,12.0,100.0
14973,55.0,0,20,11.0,100.0
14974,64.0,23,20,11.0,100.0
14975,60.0,2,20,12.0,100.0
14976,72.0,25,60,10.0,110.0
14977,64.0,0,20,11.0,100.0
14978,55.0,28,20,11.0,100.0
14979,60.0,2,20,12.0,100.0
14980,55.0,0,20,11.0,100.0
14981,64.0,28,20,11.0,100.0
14982,60.0,2,20,12.0,100.0
14983,84.0,0,1560,0.0,88.0
14984,76.0,1,1560,0.0,88.0
14985,72.0,2,120,4.0,121.0
14986,64.0,0,0,1.0,98.0
14987,72.0,0,1560,1.0,88.0
14988,72.0,0,120,6.0,123.0
14989,72.0,0,1560,2.0,88.0
14990,64.0,0,1560,2.0,88.0
14991,60.0,1,120,5.0,121.0
14992,48.0,5,120,15.0,93.0
14993,64.0,0,20,11.0,100.0
14994,55.0,0,20,11.0,100.0
14995,60.0,2,20,12.0,100.0
14996,64.0,22,20,11.0,100.0
14997,55.0,0,20,11.0,100.0
14998,60.0,2,20,12.0,100.0
14999,72.0,25,60,10.0,110.0
15000,76.0,0,60,0.0,98.0
15001,72.0,1,60,0.0,98.0
15002,60.0,1,60,1.0,98.0
15003,64.0,0,60,2.0,98.0
15004,60.0,1,60,2.0,98.0
15005,60.0,2,60,13.0,118.0
15006,52.0,0,60,3.0,100.0
15007,48.0,1,60,3.0,100.0
15008,48.0,3,60,14.0,116.0
15009,55.0,28,20,11.0,100.0
15010,64.0,0,20,11.0,100.0
15011,60.0,2,20,12.0,100.0
15012,55.0,0,20,11.0,100.0
15013,64.0,28,20,11.0,100.0
15014,60.0,2,20,12.0,100.0
15015,55.0,0,20,11.0,100.0
15016,64.0,0,20,11.0,100.0
15017,60.0,2,20,12.0,100.0
15018,55.0,0,20,11.0,100.0
15019,64.0,22,20,11.0,100.0
15020,60.0,2,20,12.0,100.0
15021,76.0,25,60,10.0,110.0
15022,79.0,0,60,0.0,98.0
15023,76.0,1,60,0.0,98.0
15024,64.0,1,60,1.0,98.0
15025,67.0,0,60,1.0,98.0
15026,67.0,0,60,2.0,98.0
15027,64.0,1,60,2.0,98.0
15028,55.0,2,60,13.0,118.0
15029,52.0,1,60,3.0,100.0
15030,55.0,0,60,3.0,100.0
15031,43.0,3,60,14.0,116.0
15032,55.0,0,20,11.0,100.0
15033,64.0,28,20,11.0,100.0
15034,60.0,2,20,12.0,100.0
15035,55.0,0,20,11.0,100.0
15036,64.0,28,20,11.0,100.0
15037,60.0,2,20,12.0,100.0
15038,55.0,0,20,11.0,100.0
15039,64.0,0,20,11.0,100.0
15040,60.0,2,20,12.0,100.0
15041,64.0,22,20,11.0,100.0
15042,55.0,0,20,11.0,100.0
15043,60.0,2,20,12.0,100.0
15044,79.0,25,60,10.0,110.0
15045,84.0,0,60,0.0,98.0
15046,79.0,1,60,0.0,98.0
15047,67.0,1,60,1.0,98.0
15048,72.0,0,60,1.0,98.0
15049,72.0,0,60,2.0,98.0
15050,67.0,1,60,2.0,98.0
15051,52.0,2,60,13.0,118.0
15052,60.0,1,60,3.0,100.0
15053,55.0,0,60,3.0,100.0
15054,40.0,3,60,14.0,116.0
15055,64.0,28,20,11.0,100.0
15056,55.0,0,20,11.0,100.0
15057,60.0,2,20,12.0,100.0
15058,64.0,0,20,11.0,100.0
15059,55.0,28,20,11.0,100.0
15060,60.0,2,20,12.0,100.0
15061,64.0,0,20,11.0,100.0
15062,55.0,0,20,11.0,100.0
15063,60.0,1,20,12.0,100.0
15064,64.0,22,20,11.0,100.0
15065,55.0,0,20,11.0,100.0
15066,60.0,2,20,12.0,100.0
15067,55.0,28,20,11.0,100.0
15068,64.0,0,20,11.0,100.0
15069,60.0,2,20,12.0,100.0
15070,64.0,28,20,11.0,100.0
15071,55.0,0,20,11.0,100.0
15072,60.0,2,20,12.0,100.0
15073,84.0,25,120,10.0,110.0
15074,55.0,0,20,11.0,100.0
15075,64.0,28,20,11.0,100.0
15076,60.0,2,20,12.0,100.0
15077,55.0,28,20,11.0,100.0
15078,64.0,0,20,11.0,100.0
15079,60.0,2,20,12.0,100.0
15080,64.0,0,20,11.0,100.0
15081,55.0,28,20,11.0,100.0
15082,60.0,2,20,12.0,100.0
15083,64.0,0,20,11.0,100.0
15084,55.0,28,20,11.0,100.0
15085,60.0,2,20,12.0,100.0
15086,55.0,28,20,11.0,100.0
15087,64.0,0,20,11.0,100.0
15088,60.0,2,20,12.0,100.0
15089,55.0,0,20,11.0,100.0
15090,64.0,28,20,11.0,100.0
15091,60.0,2,20,12.0,100.0
15092,64.0,28,20,11.0,100.0
15093,55.0,0,20,11.0,100.0
15094,60.0,2,20,12.0,100.0
15095,64.0,0,20,11.0,100.0
15096,55.0,28,20,11.0,100.0
15097,60.0,2,20,12.0,100.0
15098,48.0,2,350,13.0,118.0
15099,36.0,3,350,14.0,116.0
15100,48.0,1,360,3.0,100.0
15101,64.0,0,20,11.0,100.0
15102,55.0,3,20,11.0,100.0
15103,60.0,2,20,12.0,100.0
15104,55.0,22,20,11.0,100.0
15105,64.0,0,20,11.0,100.0
15106,60.0,2,20,12.0,100.0
15107,55.0,28,20,11.0,100.0
15108,64.0,0,20,11.0,100.0
15109,60.0,2,20,12.0,100.0
15110,55.0,25,90,10.0,125.0
15111,43.0,2,90,13.0,127.0
15112,43.0,1,90,3.0,115.0
15113,31.0,3,90,14.0,127.0
15114,59.0,25,20,10.0,125.0
15115,55.0,3,20,11.0,100.0
15116,64.0,0,20,11.0,100.0
15117,60.0,2,20,12.0,100.0
15118,47.0,2,20,13.0,127.0
15119,47.0,1,20,3.0,115.0
15120,35.0,3,20,14.0,127.0
15121,64.0,3,20,11.0,100.0
15122,55.0,0,20,11.0,100.0
15123,60.0,2,20,12.0,100.0
15124,60.0,19,30,10.0,125.0
15125,48.0,2,30,13.0,127.0
15126,48.0,1,30,3.0,115.0
15127,36.0,3,30,14.0,127.0
15128,64.0,22,20,11.0,100.0
15129,55.0,0,20,11.0,100.0
15130,60.0,2,20,12.0,100.0
15131,64.0,0,20,11.0,100.0
15132,55.0,3,20,11.0,100.0
15133,60.0,2,20,12.0,100.0
15134,60.0,25,30,10.0,125.0
15135,48.0,2,30,13.0,127.0
15136,48.0,1,30,3.0,115.0
15137,36.0,3,30,14.0,127.0
15138,64.0,0,20,11.0,100.0
15139,55.0,22,20,11.0,100.0
15140,60.0,2,20,12.0,100.0
15141,64.0,0,20,11.0,100.0
15142,55.0,3,20,11.0,100.0
15143,60.0,2,20,12.0,100.0
15144,55.0,25,30,10.0,125.0
15145,43.0,2,30,13.0,127.0
15146,43.0,1,30,3.0,115.0
15147,31.0,3,30,14.0,127.0
15148,64.0,0,20,11.0,100.0
15149,55.0,22,20,11.0,100.0
15150,60.0,2,20,12.0,100.0
15151,55.0,3,20,11.0,100.0
15152,64.0,0,20,11.0,100.0
15153,60.0,2,20,12.0,100.0
15154,59.0,25,30,10.0,125.0
15155,47.0,2,30,13.0,127.0
15156,47.0,1,30,3.0,115.0
15157,35.0,3,30,14.0,127.0
15158,55.0,0,20,11.0,100.0
15159,64.0,22,20,11.0,100.0
15160,60.0,2,20,12.0,100.0
15161,64.0,0,20,11.0,100.0
15162,55.0,3,20,11.0,100.0
15163,60.0,2,20,12.0,100.0
15164,60.0,25,30,10.0,125.0
15165,48.0,2,30,13.0,127.0
15166,48.0,1,30,3.0,115.0
15167,36.0,3,30,14.0,127.0
15168,64.0,22,20,11.0,100.0
15169,55.0,0,20,11.0,100.0
15170,60.0,2,20,12.0,100.0
15171,64.0,3,20,11.0,100.0
15172,55.0,0,20,11.0,100.0
15173,60.0,2,20,12.0,100.0
15174,60.0,25,30,10.0,125.0
15175,48.0,2,30,13.0,127.0
15176,48.0,1,30,3.0,115.0
15177,36.0,3,30,14.0,127.0
15178,55.0,0,20,11.0,100.0
15179,64.0,22,20,11.0,100.0
15180,60.0,2,20,12.0,100.0
15181,64.0,0,20,11.0,100.0
15182,55.0,3,20,11.0,100.0
15183,60.0,2,20,12.0,100.0
15184,55.0,25,30,10.0,125.0
15185,43.0,2,30,13.0,127.0
15186,43.0,1,30,3.0,115.0
15187,31.0,3,30,14.0,127.0
15188,55.0,0,20,11.0,100.0
15189,64.0,22,20,11.0,100.0
15190,60.0,2,20,12.0,100.0
15191,64.0,0,20,11.0,100.0
15192,55.0,3,20,11.0,100.0
15193,60.0,2,20,12.0,100.0
15194,59.0,25,30,10.0,125.0
15195,47.0,2,30,13.0,127.0
15196,47.0,1,30,3.0,115.0
15197,35.0,3,30,14.0,127.0
15198,55.0,22,20,11.0,100.0
15199,64.0,0,20,11.0,100.0
15200,60.0,2,20,12.0,100.0
15201,55.0,3,20,11.0,100.0
15202,64.0,0,20,11.0,100.0
15203,60.0,2,20,12.0,100.0
15204,55.0,0,20,11.0,100.0
15205,64.0,22,20,11.0,100.0
15206,60.0,2,20,12.0,100.0
15207,55.0,28,20,11.0,100.0
15208,64.0,0,20,11.0,100.0
15209,60.0,2,20,12.0,100.0
15210,64.0,28,20,11.0,100.0
15211,55.0,0,20,11.0,100.0
15212,60.0,2,20,12.0,100.0
15213,60.0,25,120,10.0,125.0
15214,60.0,0,1080,4.0,84.0
15215,52.0,1,1080,5.0,84.0
15216,48.0,2,120,13.0,127.0
15217,48.0,1,120,3.0,115.0
15218,36.0,3,120,14.0,127.0
15219,55.0,0,20,11.0,100.0
15220,64.0,1,20,11.0,100.0
15221,60.0,1,20,12.0,100.0
15222,64.0,0,20,11.0,100.0
15223,55.0,23,20,11.0,100.0
15224,60.0,2,20,12.0,100.0
15225,52.0,0,60,4.0,121.0
15226,60.0,27,60,6.0,123.0
15227,64.0,0,60,6.0,123.0
15228,48.0,1,60,5.0,121.0
15229,55.0,28,20,11.0,100.0
15230,64.0,0,20,11.0,100.0
15231,60.0,2,20,12.0,100.0
15232,55.0,28,20,11.0,100.0
15233,64.0,0,20,11.0,100.0
15234,60.0,2,20,12.0,100.0
15235,48.0,5,0,15.0,88.0
15236,55.0,0,20,11.0,100.0
15237,64.0,1,20,11.0,100.0
15238,60.0,1,20,12.0,100.0
15239,64.0,0,20,11.0,100.0
15240,55.0,23,20,11.0,100.0
15241,60.0,2,20,12.0,100.0
15242,67.0,0,60,6.0,123.0
15243,64.0,0,60,6.0,123.0
15244,55.0,27,60,4.0,121.0
15245,52.0,1,60,5.0,121.0
15246,55.0,0,20,11.0,100.0
15247,64.0,28,20,11.0,100.0
15248,60.0,2,20,12.0,100.0
15249,55.0,0,20,11.0,100.0
15250,64.0,28,20,11.0,100.0
15251,60.0,2,20,12.0,100.0
15252,48.0,5,0,15.0,93.0
15253,55.0,0,20,11.0,100.0
15254,64.0,1,20,11.0,100.0
15255,60.0,1,20,12.0,100.0
15256,64.0,0,20,11.0,100.0
15257,55.0,23,20,11.0,100.0
15258,60.0,2,20,12.0,100.0
15259,72.0,0,60,6.0,123.0
15260,60.0,27,60,4.0,121.0
15261,67.0,0,60,6.0,123.0
15262,55.0,1,60,5.0,121.0
15263,55.0,28,20,11.0,100.0
15264,64.0,0,20,11.0,100.0
15265,60.0,2,20,12.0,100.0
15266,64.0,0,20,11.0,100.0
15267,55.0,28,20,11.0,100.0
15268,60.0,2,20,12.0,100.0
15269,64.0,1,20,11.0,100.0
15270,55.0,0,20,11.0,100.0
15271,60.0,1,20,12.0,100.0
15272,55.0,0,20,11.0,100.0
15273,64.0,23,20,11.0,100.0
15274,60.0,2,20,12.0,100.0
15275,76.0,25,60,10.0,110.0
15276,64.0,28,20,11.0,100.0
15277,55.0,0,20,11.0,100.0
15278,60.0,2,20,12.0,100.0
15279,55.0,0,20,11.0,100.0
15280,64.0,28,20,11.0,100.0
15281,60.0,2,20,12.0,100.0
15282,84.0,1,1560,0.0,88.0
15283,88.0,0,1560,0.0,88.0
15284,76.0,1,1560,1.0,88.0
15285,72.0,0,1560,1.0,88.0
15286,76.0,2,120,6.0,123.0
15287,72.0,0,120,6.0,123.0
15288,64.0,0,120,4.0,121.0
15289,72.0,1,1560,2.0,88.0
15290,76.0,0,1560,2.0,88.0
15291,60.0,1,120,5.0,121.0
15292,48.0,5,120,15.0,99.0
15293,55.0,1,20,11.0,100.0
15294,64.0,0,20,11.0,100.0
15295,60.0,2,20,12.0,100.0
15296,55.0,0,20,11.0,100.0
15297,64.0,22,20,11.0,100.0
15298,60.0,2,20,12.0,100.0
15299,76.0,25,60,10.0,110.0
15300,76.0,0,60,0.0,98.0
15301,79.0,1,60,0.0,98.0
15302,64.0,0,60,1.0,98.0
15303,67.0,1,60,1.0,98.0
15304,67.0,0,60,2.0,98.0
15305,64.0,0,60,2.0,98.0
15306,60.0,2,60,13.0,118.0
15307,52.0,1,60,3.0,100.0
15308,55.0,0,60,3.0,100.0
15309,48.0,3,60,14.0,116.0
15310,64.0,28,20,11.0,100.0
15311,55.0,0,20,11.0,100.0
15312,60.0,2,20,12.0,100.0
15313,64.0,0,20,11.0,100.0
15314,55.0,28,20,11.0,100.0
15315,60.0,2,20,12.0,100.0
15316,55.0,0,20,11.0,100.0
15317,64.0,0,20,11.0,100.0
15318,60.0,2,20,12.0,100.0
15319,64.0,0,20,11.0,100.0
15320,55.0,22,20,11.0,100.0
15321,60.0,2,20,12.0,100.0
15322,79.0,25,60,10.0,110.0
15323,79.0,1,60,0.0,98.0
15324,84.0,0,60,0.0,98.0
15325,67.0,0,60,1.0,98.0
15326,72.0,1,60,1.0,98.0
15327,72.0,0,60,2.0,98.0
15328,67.0,1,60,2.0,98.0
15329,55.0,2,60,13.0,118.0
15330,60.0,1,60,3.0,100.0
15331,55.0,0,60,3.0,100.0
15332,43.0,3,60,14.0,116.0
15333,64.0,28,20,11.0,100.0
15334,55.0,0,20,11.0,100.0
15335,60.0,2,20,12.0,100.0
15336,55.0,0,20,11.0,100.0
15337,64.0,28,20,11.0,100.0
15338,60.0,2,20,12.0,100.0
15339,64.0,0,20,11.0,100.0
15340,55.0,0,20,11.0,100.0
15341,60.0,2,20,12.0,100.0
15342,55.0,0,20,11.0,100.0
15343,64.0,22,20,11.0,100.0
15344,60.0,2,20,12.0,100.0
15345,84.0,25,60,10.0,110.0
15346,88.0,0,60,0.0,98.0
15347,84.0,1,60,0.0,98.0
15348,76.0,1,60,1.0,98.0
15349,72.0,0,60,1.0,98.0
15350,76.0,1,60,2.0,98.0
15351,72.0,0,60,2.0,98.0
15352,52.0,2,60,13.0,118.0
15353,64.0,0,60,3.0,100.0
15354,60.0,1,60,3.0,100.0
15355,40.0,3,60,14.0,116.0
15356,64.0,28,20,11.0,100.0
15357,55.0,0,20,11.0,100.0
15358,60.0,2,20,12.0,100.0
15359,64.0,0,20,11.0,100.0
15360,55.0,28,20,11.0,100.0
15361,60.0,2,20,12.0,100.0
15362,55.0,1,20,11.0,100.0
15363,64.0,0,20,11.0,100.0
15364,60.0,1,20,12.0,100.0
15365,55.0,22,20,11.0,100.0
15366,64.0,0,20,11.0,100.0
15367,60.0,2,20,12.0,100.0
15368,64.0,28,20,11.0,100.0
15369,55.0,0,20,11.0,100.0
15370,60.0,2,20,12.0,100.0
15371,64.0,28,20,11.0,100.0
15372,55.0,0,20,11.0,100.0
15373,60.0,2,20,12.0,100.0
15374,88.0,25,120,10.0,110.0
15375,48.0,2,120,15.0,117.0
15376,55.0,0,20,11.0,100.0
15377,64.0,28,20,11.0,100.0
15378,60.0,2,20,12.0,100.0
15379,64.0,28,20,11.0,100.0
15380,55.0,0,20,11.0,100.0
15381,60.0,2,20,12.0,100.0
15382,64.0,28,20,11.0,100.0
15383,55.0,0,20,11.0,100.0
15384,60.0,2,20,12.0,100.0
15385,64.0,0,20,11.0,100.0
15386,55.0,28,20,11.0,100.0
15387,60.0,2,20,12.0,100.0
15388,64.0,28,20,11.0,100.0
15389,55.0,0,20,11.0,100.0
15390,60.0,2,20,12.0,100.0
15391,64.0,28,20,11.0,100.0
15392,55.0,0,20,11.0,100.0
15393,60.0,2,20,12.0,100.0
15394,55.0,28,20,11.0,100.0
15395,64.0,0,20,11.0,100.0
15396,60.0,2,20,12.0,100.0
15397,55.0,28,20,11.0,100.0
15398,64.0,0,20,11.0,100.0
15399,60.0,2,20,12.0,100.0
15400,48.0,2,350,13.0,118.0
15401,36.0,1,350,14.0,116.0
15402,64.0,0,20,11.0,100.0
15403,55.0,3,20,11.0,100.0
15404,60.0,2,20,12.0,100.0
15405,55.0,22,20,11.0,100.0
15406,64.0,0,20,11.0,100.0
15407,60.0,2,20,12.0,100.0
15408,64.0,0,20,11.0,100.0
15409,55.0,28,20,11.0,100.0
15410,60.0,2,20,12.0,100.0
15411,55.0,25,90,10.0,125.0
15412,43.0,2,90,13.0,127.0
15413,31.0,4,90,14.0,127.0
15414,59.0,25,20,10.0,125.0
15415,55.0,3,20,11.0,100.0
15416,64.0,0,20,11.0,100.0
15417,60.0,2,20,12.0,100.0
15418,47.0,2,20,13.0,127.0
15419,35.0,4,20,14.0,127.0
15420,64.0,3,20,11.0,100.0
15421,55.0,0,20,11.0,100.0
15422,60.0,2,20,12.0,100.0
15423,60.0,19,30,10.0,125.0
15424,48.0,2,30,13.0,127.0
15425,36.0,4,30,14.0,127.0
15426,55.0,0,20,11.0,100.0
15427,64.0,22,20,11.0,100.0
15428,60.0,2,20,12.0,100.0
15429,64.0,0,20,11.0,100.0
15430,55.0,3,20,11.0,100.0
15431,60.0,2,20,12.0,100.0
15432,60.0,25,30,10.0,125.0
15433,48.0,2,30,13.0,127.0
15434,36.0,4,30,14.0,127.0
15435,55.0,22,20,11.0,100.0
15436,64.0,0,20,11.0,100.0
15437,60.0,2,20,12.0,100.0
15438,64.0,3,20,11.0,100.0
15439,55.0,0,20,11.0,100.0
15440,60.0,2,20,12.0,100.0
15441,55.0,25,30,10.0,125.0
15442,43.0,2,30,13.0,127.0
15443,31.0,4,30,14.0,127.0
15444,64.0,0,20,11.0,100.0
15445,55.0,22,20,11.0,100.0
15446,60.0,2,20,12.0,100.0
15447,64.0,3,20,11.0,100.0
15448,55.0,0,20,11.0,100.0
15449,60.0,2,20,12.0,100.0
15450,59.0,25,30,10.0,125.0
15451,47.0,2,30,13.0,127.0
15452,35.0,4,30,14.0,127.0
15453,55.0,0,20,11.0,100.0
15454,64.0,22,20,11.0,100.0
15455,60.0,2,20,12.0,100.0
15456,64.0,3,20,11.0,100.0
15457,55.0,0,20,11.0,100.0
15458,60.0,2,20,12.0,100.0
15459,60.0,25,30,10.0,125.0
15460,48.0,2,30,13.0,127.0
15461,36.0,4,30,14.0,127.0
15462,55.0,22,20,11.0,100.0
15463,64.0,0,20,11.0,100.0
15464,60.0,2,20,12.0,100.0
15465,64.0,3,20,11.0,100.0
15466,55.0,0,20,11.0,100.0
15467,60.0,2,20,12.0,100.0
15468,60.0,25,30,10.0,125.0
15469,48.0,2,30,13.0,127.0
15470,36.0,4,30,14.0,127.0
15471,64.0,22,20,11.0,100.0
15472,55.0,0,20,11.0,100.0
15473,60.0,2,20,12.0,100.0
15474,64.0,0,20,11.0,100.0
15475,55.0,3,20,11.0,100.0
15476,60.0,2,20,12.0,100.0
15477,55.0,25,30,10.0,125.0
15478,43.0,2,30,13.0,127.0
15479,31.0,4,30,14.0,127.0
15480,55.0,0,20,11.0,100.0
15481,64.0,22,20,11.0,100.0
15482,60.0,2,20,12.0,100.0
15483,64.0,3,20,11.0,100.0
15484,55.0,0,20,11.0,100.0
15485,60.0,2,20,12.0,100.0
15486,59.0,25,30,10.0,125.0
15487,47.0,2,30,13.0,127.0
15488,35.0,4,30,14.0,127.0
15489,64.0,0,20,11.0,100.0
15490,55.0,22,20,11.0,100.0
15491,60.0,2,20,12.0,100.0
15492,55.0,3,20,11.0,100.0
15493,64.0,0,20,11.0,100.0
15494,60.0,2,20,12.0,100.0
15495,64.0,22,20,11.0,100.0
15496,55.0,0,20,11.0,100.0
15497,60.0,2,20,12.0,100.0
15498,55.0,28,20,11.0,100.0
15499,64.0,0,20,11.0,100.0
15500,60.0,2,20,12.0,100.0
15501,55.0,0,20,11.0,100.0
15502,64.0,28,20,11.0,100.0
15503,60.0,2,20,12.0,100.0
15504,60.0,25,120,10.0,125.0
15505,48.0,2,120,13.0,127.0
15506,36.0,4,120,14.0,127.0
15507,64.0,0,20,11.0,100.0
15508,55.0,1,20,11.0,100.0
15509,60.0,2,20,12.0,100.0
15510,64.0,23,20,11.0,100.0
15511,55.0,0,20,11.0,100.0
15512,60.0,2,20,12.0,100.0
15513,67.0,27,60,6.0,127.0
15514,55.0,0,60,6.0,127.0
15515,64.0,28,20,11.0,100.0
15516,55.0,0,20,11.0,100.0
15517,60.0,2,20,12.0,100.0
15518,55.0,0,20,11.0,100.0
15519,64.0,28,20,11.0,100.0
15520,60.0,2,20,12.0,100.0
15521,48.0,5,120,15.0,78.0
15522,55.0,0,20,11.0,100.0
15523,64.0,1,20,11.0,100.0
15524,60.0,2,20,12.0,100.0
15525,55.0,23,20,11.0,100.0
15526,64.0,0,20,11.0,100.0
15527,60.0,2,20,12.0,100.0
15528,60.0,27,60,6.0,127.0
15529,72.0,0,60,6.0,127.0
15530,55.0,28,20,11.0,100.0
15531,64.0,0,20,11.0,100.0
15532,60.0,2,20,12.0,100.0
15533,55.0,28,20,11.0,100.0
15534,64.0,0,20,11.0,100.0
15535,60.0,2,20,12.0,100.0
15536,48.0,5,0,15.0,88.0
15537,64.0,0,20,11.0,100.0
15538,55.0,1,20,11.0,100.0
15539,60.0,2,20,12.0,100.0
15540,64.0,0,20,11.0,100.0
15541,55.0,23,20,11.0,100.0
15542,60.0,2,20,12.0,100.0
15543,76.0,0,60,6.0,127.0
15544,64.0,27,60,6.0,127.0
15545,55.0,0,20,11.0,100.0
15546,64.0,28,20,11.0,100.0
15547,60.0,2,20,12.0,100.0
15548,55.0,28,20,11.0,100.0
15549,64.0,0,20,11.0,100.0
15550,60.0,2,20,12.0,100.0
15551,48.0,5,0,15.0,93.0
15552,64.0,1,20,11.0,110.0
15553,60.0,2,20,12.0,110.0
15554,64.0,23,20,11.0,110.0
15555,60.0,2,20,12.0,110.0
15556,76.0,25,60,10.0,110.0
15557,64.0,28,20,11.0,110.0
15558,60.0,2,20,12.0,110.0
15559,64.0,28,20,11.0,110.0
15560,60.0,2,20,12.0,110.0
15561,88.0,1,1560,0.0,88.0
15562,91.0,0,1560,0.0,88.0
15563,60.0,0,1560,4.0,84.0
15564,76.0,0,1560,1.0,88.0
15565,79.0,1,1560,1.0,88.0
15566,76.0,0,1560,2.0,88.0
15567,79.0,0,1560,2.0,88.0
15568,52.0,1,1560,5.0,84.0
15569,67.0,0,1560,3.0,90.0
15570,64.0,1,1560,3.0,90.0
15571,67.0,1,20,11.0,110.0
15572,55.0,1,20,12.0,110.0
15573,67.0,22,20,11.0,110.0
15574,55.0,2,20,12.0,110.0
15575,79.0,25,60,10.0,110.0
15576,79.0,1,60,0.0,98.0
15577,67.0,0,60,1.0,98.0
15578,55.0,1,60,4.0,107.0
15579,67.0,0,60,2.0,98.0
15580,43.0,1,60,5.0,107.0
15581,55.0,2,60,13.0,118.0
15582,55.0,1,60,3.0,100.0
15583,43.0,3,60,14.0,116.0
15584,67.0,28,20,11.0,110.0
15585,55.0,2,20,12.0,110.0
15586,67.0,28,20,11.0,110.0
15587,55.0,2,20,12.0,110.0
15588,72.0,1,20,11.0,110.0
15589,60.0,1,20,12.0,110.0
15590,72.0,22,20,11.0,110.0
15591,60.0,2,20,12.0,110.0
15592,84.0,25,60,10.0,110.0
15593,84.0,1,60,0.0,98.0
15594,72.0,0,60,1.0,98.0
15595,60.0,1,60,4.0,107.0
15596,72.0,0,60,2.0,98.0
15597,48.0,1,60,5.0,107.0
15598,60.0,2,60,13.0,118.0
15599,60.0,1,60,3.0,100.0
15600,48.0,3,60,14.0,116.0
15601,72.0,28,20,11.0,110.0
15602,60.0,2,20,12.0,110.0
15603,72.0,28,20,11.0,110.0
15604,60.0,2,20,12.0,110.0
15605,76.0,0,20,11.0,110.0
15606,64.0,1,20,12.0,110.0
15607,76.0,22,20,11.0,110.0
15608,64.0,2,20,12.0,110.0
15609,88.0,25,60,10.0,110.0
15610,88.0,1,60,0.0,98.0
15611,64.0,1,60,4.0,107.0
15612,76.0,0,60,1.0,98.0
15613,76.0,1,60,2.0,98.0
15614,52.0,1,60,5.0,107.0
15615,64.0,2,60,13.0,118.0
15616,64.0,1,60,3.0,100.0
15617,52.0,3,60,14.0,116.0
15618,76.0,28,20,11.0,110.0
15619,64.0,2,20,12.0,110.0
15620,76.0,28,20,11.0,110.0
15621,64.0,2,20,12.0,110.0
15622,91.0,25,20,10.0,110.0
15623,79.0,0,20,11.0,110.0
15624,67.0,1,20,12.0,110.0
15625,91.0,19,20,10.0,110.0
15626,79.0,3,20,11.0,110.0
15627,67.0,2,20,12.0,110.0
15628,91.0,1,60,0.0,98.0
15629,79.0,1,60,1.0,98.0
15630,79.0,1,60,2.0,98.0
15631,67.0,2,60,13.0,118.0
15632,67.0,1,60,3.0,100.0
15633,55.0,3,60,14.0,116.0
15634,91.0,25,20,10.0,110.0
15635,79.0,3,20,11.0,110.0
15636,67.0,2,20,12.0,110.0
15637,91.0,25,20,10.0,110.0
15638,79.0,3,20,11.0,110.0
15639,67.0,2,20,12.0,110.0
15640,88.0,25,20,10.0,110.0
15641,76.0,1,20,11.0,110.0
15642,64.0,2,20,12.0,110.0
15643,48.0,2,24,15.0,96.0
15644,88.0,19,20,10.0,110.0
15645,76.0,3,20,11.0,110.0
15646,64.0,2,20,12.0,110.0
15647,88.0,1,60,0.0,98.0
15648,76.0,1,60,1.0,98.0
15649,76.0,0,60,2.0,98.0
15650,48.0,7,24,15.0,99.0
15651,64.0,2,60,13.0,118.0
15652,64.0,1,60,3.0,100.0
15653,52.0,1,60,14.0,116.0
15654,88.0,18,20,10.0,110.0
15655,76.0,3,20,11.0,110.0
15656,64.0,2,20,12.0,110.0
15657,48.0,6,24,15.0,99.0
15658,88.0,19,20,10.0,110.0
15659,76.0,3,20,11.0,110.0
15660,64.0,2,20,12.0,110.0
15661,48.0,8,24,15.0,96.0
15662,84.0,17,20,10.0,110.0
15663,72.0,1,20,11.0,110.0
15664,60.0,2,20,12.0,110.0
15665,48.0,2,24,15.0,96.0
15666,84.0,19,20,10.0,110.0
15667,72.0,3,20,11.0,110.0
15668,60.0,2,20,12.0,110.0
15669,84.0,1,60,0.0,98.0
15670,72.0,1,60,1.0,98.0
15671,72.0,0,60,2.0,98.0
15672,48.0,7,24,15.0,90.0
15673,60.0,2,60,13.0,118.0
15674,60.0,1,60,3.0,100.0
15675,48.0,1,60,14.0,116.0
15676,84.0,18,20,10.0,110.0
15677,72.0,3,20,11.0,110.0
15678,60.0,2,20,12.0,110.0
15679,48.0,4,24,15.0,86.0
15680,84.0,21,20,10.0,110.0
15681,72.0,3,20,11.0,110.0
15682,60.0,2,20,12.0,110.0
15683,48.0,9,24,15.0,82.0
15684,79.0,16,20,10.0,110.0
15685,67.0,0,20,11.0,110.0
15686,55.0,2,20,12.0,110.0
15687,48.0,2,24,15.0,82.0
15688,79.0,19,20,10.0,110.0
15689,67.0,3,20,11.0,110.0
15690,55.0,2,20,12.0,110.0
15691,79.0,1,60,0.0,98.0
15692,67.0,1,60,1.0,98.0
15693,67.0,1,60,2.0,98.0
15694,48.0,6,24,15.0,74.0
15695,55.0,2,60,13.0,118.0
15696,55.0,1,60,3.0,100.0
15697,43.0,1,60,14.0,116.0
15698,79.0,19,20,10.0,110.0
15699,67.0,3,20,11.0,110.0
15700,55.0,2,20,12.0,110.0
15701,48.0,4,24,15.0,72.0
15702,79.0,21,20,10.0,110.0
15703,67.0,3,20,11.0,110.0
15704,55.0,2,20,12.0,110.0
15705,67.0,0,960,6.0,127.0
15706,79.0,2,960,6.0,127.0
15707,67.0,0,480,4.0,107.0
15708,55.0,1,480,5.0,107.0
15709,48.0,10,24,15.0,68.0
15710,88.0,15,20,10.0,110.0
15711,76.0,0,20,11.0,110.0
15712,64.0,1,20,12.0,110.0
15713,48.0,1,24,15.0,62.0
15714,88.0,18,20,10.0,110.0
15715,76.0,3,20,11.0,110.0
15716,64.0,2,20,12.0,110.0
15717,88.0,1,60,0.0,98.0
15718,76.0,0,60,1.0,98.0
15719,76.0,1,60,2.0,98.0
15720,48.0,7,24,15.0,63.0
15721,64.0,2,60,13.0,118.0
15722,64.0,1,60,3.0,100.0
15723,52.0,3,60,14.0,116.0
15724,88.0,18,20,10.0,110.0
15725,76.0,3,20,11.0,110.0
15726,64.0,2,20,12.0,110.0
15727,48.0,4,24,15.0,65.0
15728,88.0,21,20,10.0,110.0
15729,76.0,3,20,11.0,110.0
15730,64.0,2,20,12.0,110.0
15731,48.0,4,24,15.0,61.0
15732,84.0,21,20,10.0,110.0
15733,72.0,1,20,11.0,110.0
15734,60.0,2,20,12.0,110.0
15735,48.0,0,24,15.0,62.0
15736,84.0,19,20,10.0,110.0
15737,72.0,3,20,11.0,110.0
15738,60.0,2,20,12.0,110.0
15739,84.0,1,60,0.0,98.0
15740,72.0,1,60,1.0,98.0
15741,72.0,0,60,2.0,98.0
15742,48.0,6,24,15.0,64.0
15743,60.0,2,60,13.0,118.0
15744,60.0,1,60,3.0,100.0
15745,48.0,3,60,14.0,116.0
15746,84.0,19,20,10.0,110.0
15747,72.0,3,20,11.0,110.0
15748,60.0,2,20,12.0,110.0
15749,48.0,3,24,15.0,62.0
15750,84.0,22,20,10.0,110.0
15751,72.0,3,20,11.0,110.0
15752,60.0,2,20,12.0,110.0
15753,48.0,1,24,15.0,62.0
15754,79.0,24,20,10.0,110.0
15755,67.0,0,20,11.0,110.0
15756,55.0,2,20,12.0,110.0
15757,48.0,2,24,15.0,65.0
15758,79.0,17,20,10.0,110.0
15759,67.0,3,20,11.0,110.0
15760,55.0,2,20,12.0,110.0
15761,79.0,1,60,0.0,98.0
15762,67.0,1,60,1.0,98.0
15763,67.0,1,60,2.0,98.0
15764,48.0,5,24,15.0,65.0
15765,55.0,2,60,13.0,118.0
15766,55.0,1,60,3.0,100.0
15767,43.0,3,60,14.0,116.0
15768,79.0,20,20,10.0,110.0
15769,67.0,3,20,11.0,110.0
15770,55.0,2,20,12.0,110.0
15771,48.0,4,24,15.0,62.0
15772,79.0,21,20,10.0,110.0
15773,67.0,3,20,11.0,110.0
15774,55.0,2,20,12.0,110.0
15775,48.0,1,24,15.0,64.0
15776,76.0,24,20,10.0,110.0
15777,64.0,1,20,11.0,110.0
15778,52.0,2,20,12.0,110.0
15779,48.0,0,24,15.0,61.0
15780,76.0,19,20,10.0,110.0
15781,64.0,3,20,11.0,110.0
15782,52.0,2,20,12.0,110.0
15783,76.0,1,60,0.0,98.0
15784,64.0,1,60,1.0,98.0
15785,64.0,0,60,2.0,98.0
15786,48.0,6,24,15.0,63.0
15787,52.0,2,60,13.0,118.0
15788,52.0,1,60,3.0,100.0
15789,40.0,3,60,14.0,116.0
15790,76.0,19,20,10.0,110.0
15791,64.0,3,20,11.0,110.0
15792,52.0,2,20,12.0,110.0
15793,48.0,4,24,15.0,65.0
15794,76.0,21,20,10.0,110.0
15795,64.0,3,20,11.0,110.0
15796,52.0,2,20,12.0,110.0
15797,76.0,0,480,6.0,96.0
15798,64.0,1,480,6.0,96.0
15799,64.0,0,480,4.0,94.0
15800,48.0,4,24,15.0,65.0
15801,52.0,1,480,5.0,94.0
15802,84.0,21,20,10.0,110.0
15803,72.0,0,20,11.0,110.0
15804,72.0,1,20,12.0,110.0
15805,48.0,1,24,15.0,62.0
15806,84.0,18,20,10.0,110.0
15807,72.0,3,20,11.0,110.0
15808,72.0,2,20,12.0,110.0
15809,84.0,1,60,0.0,98.0
15810,72.0,0,60,1.0,98.0
15811,60.0,1,60,2.0,98.0
15812,48.0,6,24,15.0,61.0
15813,60.0,2,60,13.0,118.0
15814,60.0,1,60,3.0,100.0
15815,48.0,3,60,14.0,116.0
15816,84.0,19,20,10.0,110.0
15817,72.0,3,20,11.0,110.0
15818,72.0,2,20,12.0,110.0
15819,48.0,5,24,15.0,64.0
15820,84.0,20,20,10.0,110.0
15821,72.0,3,20,11.0,110.0
15822,72.0,2,20,12.0,110.0
15823,48.0,4,24,15.0,65.0
15824,79.0,21,20,10.0,110.0
15825,79.0,1,20,11.0,110.0
15826,67.0,2,20,12.0,110.0
15827,48.0,1,24,15.0,63.0
15828,79.0,18,20,10.0,110.0
15829,79.0,3,20,11.0,110.0
15830,67.0,2,20,12.0,110.0
15831,79.0,1,60,0.0,98.0
15832,48.0,3,24,15.0,61.0
15833,79.0,1,60,1.0,98.0
15834,79.0,0,60,2.0,98.0
15835,55.0,2,60,13.0,118.0
15836,55.0,1,60,3.0,100.0
15837,43.0,3,60,14.0,116.0
15838,79.0,22,20,10.0,110.0
15839,79.0,3,20,11.0,110.0
15840,67.0,2,20,12.0,110.0
15841,48.0,5,24,15.0,63.0
15842,79.0,20,20,10.0,110.0
15843,79.0,3,20,11.0,110.0
15844,67.0,2,20,12.0,110.0
15845,48.0,4,24,15.0,63.0
15846,76.0,21,20,10.0,110.0
15847,76.0,1,20,11.0,110.0
15848,64.0,2,20,12.0,110.0
15849,48.0,2,24,15.0,63.0
15850,76.0,17,20,10.0,110.0
15851,76.0,3,20,11.0,110.0
15852,64.0,2,20,12.0,110.0
15853,88.0,1,60,0.0,98.0
15854,76.0,1,60,1.0,98.0
15855,76.0,0,60,2.0,98.0
15856,48.0,6,24,15.0,63.0
15857,52.0,2,60,13.0,118.0
15858,52.0,1,60,3.0,100.0
15859,40.0,3,60,14.0,116.0
15860,76.0,19,20,10.0,110.0
15861,76.0,3,20,11.0,110.0
15862,64.0,2,20,12.0,110.0
15863,48.0,7,24,15.0,64.0
15864,76.0,18,20,10.0,110.0
15865,76.0,3,20,11.0,110.0
15866,64.0,2,20,12.0,110.0
15867,60.0,0,360,4.0,94.0
15868,72.0,1,0,6.0,114.0
15869,60.0,0,360,6.0,96.0
15870,48.0,5,24,15.0,63.0
15871,48.0,1,360,5.0,94.0
15872,72.0,20,20,10.0,110.0
15873,72.0,0,20,11.0,110.0
15874,60.0,1,20,12.0,110.0
15875,48.0,3,24,15.0,62.0
15876,72.0,19,20,10.0,110.0
15877,72.0,3,20,11.0,110.0
15878,60.0,2,20,12.0,110.0
15879,84.0,1,60,0.0,98.0
15880,72.0,0,60,1.0,98.0
15881,72.0,0,60,4.0,112.0
15882,72.0,1,60,2.0,98.0
15883,60.0,1,60,5.0,112.0
15884,48.0,2,60,13.0,118.0
15885,48.0,1,60,3.0,100.0
15886,48.0,9,24,15.0,61.0
15887,36.0,0,60,14.0,116.0
15888,72.0,16,20,10.0,110.0
15889,72.0,3,20,11.0,110.0
15890,60.0,2,20,12.0,110.0
15891,48.0,8,24,15.0,64.0
15892,72.0,17,20,10.0,110.0
15893,72.0,3,20,11.0,110.0
15894,60.0,2,20,12.0,110.0
15895,48.0,8,24,15.0,61.0
15896,67.0,17,20,10.0,110.0
15897,67.0,1,20,11.0,110.0
15898,55.0,1,20,12.0,110.0
15899,48.0,2,24,15.0,65.0
15900,67.0,17,20,10.0,110.0
15901,67.0,3,20,11.0,110.0
15902,55.0,2,20,12.0,110.0
15903,79.0,1,60,0.0,98.0
15904,67.0,0,60,4.0,112.0
15905,48.0,3,24,15.0,62.0
15906,67.0,1,60,6.0,114.0
15907,67.0,0,60,1.0,98.0
15908,67.0,0,60,2.0,98.0
15909,55.0,1,60,5.0,112.0
15910,43.0,2,60,13.0,118.0
15911,43.0,1,60,3.0,100.0
15912,31.0,3,60,14.0,116.0
15913,67.0,22,20,10.0,110.0
15914,67.0,3,20,11.0,110.0
15915,55.0,2,20,12.0,110.0
15916,48.0,5,24,15.0,62.0
15917,67.0,20,20,10.0,110.0
15918,67.0,3,20,11.0,110.0
15919,55.0,2,20,12.0,110.0
15920,48.0,6,24,15.0,62.0
15921,72.0,19,20,10.0,110.0
15922,72.0,0,20,11.0,110.0
15923,60.0,1,20,12.0,110.0
15924,48.0,2,24,15.0,62.0
15925,72.0,17,20,10.0,110.0
15926,72.0,3,20,11.0,110.0
15927,60.0,2,20,12.0,110.0
15928,84.0,1,60,0.0,98.0
15929,72.0,0,60,1.0,98.0
15930,84.0,1,60,1.0,98.0
15931,72.0,0,60,6.0,114.0
15932,72.0,0,60,4.0,112.0
15933,72.0,1,60,2.0,98.0
15934,60.0,1,60,5.0,112.0
15935,48.0,6,24,15.0,62.0
15936,48.0,2,60,13.0,118.0
15937,48.0,1,60,3.0,100.0
15938,36.0,3,60,14.0,116.0
15939,72.0,19,20,10.0,110.0
15940,72.0,3,20,11.0,110.0
15941,60.0,2,20,12.0,110.0
15942,48.0,8,24,15.0,63.0
15943,72.0,17,20,10.0,110.0
15944,72.0,3,20,11.0,110.0
15945,60.0,2,20,12.0,110.0
15946,48.0,6,24,15.0,64.0
15947,67.0,19,20,10.0,110.0
15948,67.0,0,20,11.0,110.0
15949,55.0,1,20,12.0,110.0
15950,48.0,4,24,15.0,70.0
15951,67.0,15,20,10.0,110.0
15952,67.0,3,20,11.0,110.0
15953,55.0,2,20,12.0,110.0
15954,79.0,1,60,0.0,98.0
15955,67.0,0,60,6.0,114.0
15956,67.0,0,60,1.0,98.0
15957,79.0,1,60,1.0,98.0
15958,67.0,0,60,4.0,112.0
15959,67.0,1,60,2.0,98.0
15960,55.0,1,60,5.0,112.0
15961,48.0,8,24,15.0,76.0
15962,43.0,2,60,13.0,118.0
15963,43.0,1,60,3.0,100.0
15964,31.0,3,60,14.0,116.0
15965,67.0,17,20,10.0,110.0
15966,67.0,3,20,11.0,110.0
15967,55.0,2,20,12.0,110.0
15968,48.0,4,24,15.0,79.0
15969,67.0,21,20,10.0,110.0
15970,67.0,3,20,11.0,110.0
15971,55.0,2,20,12.0,110.0
15972,48.0,5,24,15.0,78.0
15973,64.0,20,20,10.0,110.0
15974,64.0,1,20,11.0,110.0
15975,52.0,1,20,12.0,110.0
15976,48.0,1,24,15.0,81.0
15977,64.0,19,20,10.0,110.0
15978,64.0,3,20,11.0,110.0
15979,52.0,2,20,12.0,110.0
15980,76.0,1,60,0.0,98.0
15981,64.0,0,60,4.0,112.0
15982,64.0,0,60,1.0,98.0
15983,76.0,1,60,1.0,98.0
15984,64.0,0,60,6.0,114.0
15985,64.0,0,60,2.0,98.0
15986,52.0,1,60,5.0,112.0
15987,48.0,6,24,15.0,87.0
15988,40.0,2,60,13.0,118.0
15989,40.0,1,60,3.0,100.0
15990,28.0,2,60,14.0,116.0
15991,64.0,19,20,10.0,110.0
15992,64.0,3,20,11.0,110.0
15993,52.0,2,20,12.0,110.0
15994,48.0,9,24,15.0,87.0
15995,64.0,16,20,10.0,110.0
15996,64.0,3,20,11.0,110.0
15997,52.0,2,20,12.0,110.0
15998,48.0,5,24,15.0,90.0
15999,60.0,20,120,10.0,125.0
16000,72.0,1,120,0.0,113.0
16001,60.0,1,120,6.0,127.0
16002,72.0,0,120,1.0,113.0
16003,60.0,0,120,4.0,127.0
16004,60.0,0,120,1.0,113.0
16005,60.0,1,120,11.0,125.0
16006,60.0,0,120,2.0,113.0
16007,48.0,1,120,5.0,127.0
16008,48.0,1,120,12.0,125.0
16009,36.0,2,120,13.0,123.0
16010,36.0,1,120,3.0,115.0
16011,48.0,2,120,15.0,109.0
16012,24.0,1,120,14.0,121.0
16013,67.0,469,120,10.0,110.0
16014,84.0,1,120,0.0,98.0
16015,60.0,0,120,6.0,96.0
16016,67.0,0,120,4.0,94.0
16017,76.0,1,120,1.0,98.0
16018,72.0,0,120,1.0,98.0
16019,72.0,0,120,6.0,96.0
16020,67.0,0,120,11.0,110.0
16021,72.0,0,120,2.0,98.0
16022,64.0,1,120,2.0,98.0
16023,60.0,1,120,5.0,94.0
16024,55.0,1,120,12.0,110.0
16025,48.0,2,120,13.0,108.0
16026,48.0,1,120,3.0,100.0
16027,76.0,0,120,10.0,110.0
16028,84.0,0,120,10.0,110.0
16029,48.0,2,120,15.0,102.0
16030,36.0,1,120,14.0,106.0
16031,84.0,0,120,11.0,110.0
16032,76.0,2,120,11.0,110.0
16033,64.0,0,120,12.0,110.0
16034,72.0,2,120,12.0,110.0
16035,55.0,465,120,10.0,110.0
16036,84.0,1,120,0.0,98.0
16037,60.0,1,120,4.0,94.0
16038,72.0,0,120,1.0,98.0
16039,76.0,0,120,1.0,98.0
16040,64.0,0,120,6.0,96.0
16041,72.0,0,120,6.0,96.0
16042,55.0,1,120,11.0,110.0
16043,72.0,0,120,2.0,98.0
16044,64.0,0,120,2.0,98.0
16045,48.0,1,120,5.0,94.0
16046,48.0,1,120,12.0,110.0
16047,48.0,2,120,13.0,108.0
16048,48.0,1,120,3.0,100.0
16049,72.0,2,120,10.0,110.0
16050,48.0,0,120,15.0,102.0
16051,64.0,0,120,10.0,110.0
16052,36.0,1,120,14.0,106.0
16053,72.0,0,120,11.0,110.0
16054,64.0,2,120,11.0,110.0
16055,55.0,467,120,10.0,110.0
16056,84.0,1,120,0.0,98.0
16057,72.0,1,120,1.0,98.0
16058,60.0,0,120,4.0,94.0
16059,60.0,0,120,6.0,96.0
16060,76.0,0,120,1.0,98.0
16061,55.0,0,120,11.0,110.0
16062,72.0,1,120,2.0,98.0
16063,64.0,0,120,2.0,98.0
16064,52.0,1,120,5.0,94.0
16065,48.0,1,120,12.0,110.0
16066,36.0,2,120,13.0,108.0
16067,48.0,0,120,13.0,108.0
16068,48.0,1,120,3.0,100.0
16069,64.0,0,120,10.0,110.0
16070,72.0,0,120,10.0,110.0
16071,48.0,2,120,15.0,102.0
16072,36.0,0,120,14.0,106.0
16073,24.0,1,120,14.0,106.0
16074,64.0,0,120,11.0,110.0
16075,72.0,2,120,11.0,110.0
16076,55.0,227,120,10.0,110.0
16077,84.0,1,120,0.0,98.0
16078,60.0,0,120,4.0,94.0
16079,76.0,0,120,1.0,98.0
16080,60.0,0,120,6.0,96.0
16081,72.0,1,120,1.0,98.0
16082,72.0,0,120,2.0,98.0
16083,64.0,0,120,2.0,98.0
16084,55.0,1,120,11.0,110.0
16085,52.0,1,120,5.0,94.0
16086,48.0,1,120,12.0,110.0
16087,48.0,2,120,13.0,108.0
16088,36.0,0,120,13.0,108.0
16089,48.0,1,120,3.0,100.0
16090,48.0,0,120,15.0,102.0
16091,72.0,0,120,10.0,110.0
16092,64.0,2,120,10.0,110.0
16093,36.0,0,120,14.0,106.0
16094,24.0,1,120,14.0,106.0
16095,72.0,2,120,11.0,110.0
16096,64.0,0,120,11.0,110.0
16097,55.0,227,120,10.0,110.0
16098,84.0,1,120,0.0,98.0
16099,60.0,0,120,4.0,94.0
16100,60.0,0,120,6.0,96.0
16101,76.0,1,120,1.0,98.0
16102,72.0,0,120,1.0,98.0
16103,64.0,0,120,2.0,98.0
16104,72.0,1,120,2.0,98.0
16105,55.0,0,120,11.0,110.0
16106,52.0,1,120,5.0,94.0
16107,48.0,1,120,12.0,110.0
16108,36.0,0,120,13.0,108.0
16109,48.0,2,120,13.0,108.0
16110,48.0,1,120,3.0,100.0
16111,64.0,2,120,10.0,110.0
16112,72.0,0,120,10.0,110.0
16113,48.0,0,120,15.0,102.0
16114,36.0,0,120,14.0,106.0
16115,24.0,1,120,14.0,106.0
16116,64.0,2,120,11.0,110.0
16117,72.0,0,120,11.0,110.0
