,note,step,duration,channel,velocity
0,62.0,0,29,7.0,127.0
1,74.0,15,30,7.0,127.0
2,50.0,0,149,10.0,127.0
3,86.0,15,119,7.0,127.0
4,62.0,0,149,10.0,127.0
5,74.0,0,149,8.0,127.0
6,62.0,0,149,8.0,127.0
7,60.0,120,29,10.0,127.0
8,72.0,0,29,8.0,127.0
9,84.0,0,29,7.0,127.0
10,62.0,0,194,11.0,127.0
11,50.0,0,194,12.0,127.0
12,82.0,0,29,7.0,127.0
13,70.0,0,29,8.0,127.0
14,58.0,30,29,10.0,127.0
15,69.0,0,29,8.0,127.0
16,57.0,0,29,10.0,127.0
17,81.0,30,29,7.0,127.0
18,82.0,0,29,7.0,127.0
19,58.0,0,29,10.0,127.0
20,70.0,30,29,8.0,127.0
21,69.0,0,29,8.0,127.0
22,57.0,30,29,10.0,127.0
23,81.0,0,29,7.0,127.0
24,55.0,30,29,10.0,127.0
25,79.0,0,29,7.0,127.0
26,67.0,0,29,8.0,127.0
27,54.0,0,29,10.0,127.0
28,66.0,0,29,8.0,127.0
29,78.0,30,29,7.0,127.0
30,79.0,0,29,7.0,127.0
31,55.0,0,29,11.0,127.0
32,43.0,30,29,12.0,127.0
33,55.0,0,29,10.0,127.0
34,67.0,0,29,8.0,127.0
35,41.0,0,29,12.0,127.0
36,77.0,0,29,7.0,127.0
37,65.0,0,29,8.0,127.0
38,53.0,30,29,11.0,127.0
39,65.0,0,29,10.0,127.0
40,63.0,0,29,10.0,127.0
41,75.0,0,29,7.0,127.0
42,51.0,0,29,11.0,127.0
43,63.0,30,29,8.0,127.0
44,39.0,0,29,12.0,127.0
45,50.0,0,29,11.0,127.0
46,62.0,0,29,8.0,127.0
47,38.0,30,29,12.0,127.0
48,74.0,0,29,7.0,127.0
49,62.0,0,29,10.0,127.0
50,63.0,30,29,8.0,127.0
51,63.0,0,29,10.0,127.0
52,75.0,0,29,7.0,127.0
53,51.0,0,29,11.0,127.0
54,39.0,0,29,12.0,127.0
55,62.0,0,29,10.0,127.0
56,50.0,0,29,11.0,127.0
57,74.0,0,29,8.0,127.0
58,74.0,30,29,7.0,127.0
59,38.0,0,29,12.0,127.0
60,36.0,0,29,12.0,127.0
61,72.0,30,29,7.0,127.0
62,72.0,0,29,8.0,127.0
63,60.0,0,29,10.0,127.0
64,48.0,0,29,11.0,127.0
65,70.0,0,29,7.0,127.0
66,46.0,0,29,11.0,127.0
67,58.0,30,29,10.0,127.0
68,70.0,0,29,8.0,127.0
69,34.0,0,29,12.0,127.0
70,48.0,0,29,11.0,127.0
71,72.0,0,29,7.0,127.0
72,72.0,30,29,8.0,127.0
73,60.0,0,29,10.0,127.0
74,36.0,0,29,12.0,127.0
75,70.0,0,29,7.0,127.0
76,46.0,0,29,11.0,127.0
77,58.0,0,29,10.0,127.0
78,34.0,30,29,12.0,127.0
79,70.0,0,29,8.0,127.0
80,57.0,0,29,10.0,127.0
81,69.0,30,29,8.0,127.0
82,45.0,0,29,11.0,127.0
83,33.0,0,29,12.0,127.0
84,69.0,0,29,7.0,127.0
85,67.0,0,29,7.0,127.0
86,31.0,0,29,12.0,127.0
87,67.0,0,29,8.0,127.0
88,55.0,0,29,10.0,127.0
89,43.0,30,29,11.0,127.0
90,68.0,0,29,8.0,127.0
91,68.0,0,29,7.0,127.0
92,44.0,0,59,11.0,127.0
93,56.0,0,59,10.0,127.0
94,32.0,30,59,12.0,127.0
95,70.0,0,29,8.0,127.0
96,68.0,30,29,7.0,127.0
97,68.0,0,29,10.0,127.0
98,72.0,0,29,8.0,127.0
99,44.0,30,29,12.0,127.0
100,68.0,0,29,7.0,127.0
101,56.0,0,29,11.0,127.0
102,55.0,0,29,11.0,127.0
103,68.0,0,29,7.0,127.0
104,43.0,0,29,12.0,127.0
105,67.0,0,29,10.0,127.0
106,70.0,30,29,8.0,127.0
107,65.0,0,29,10.0,127.0
108,68.0,30,29,8.0,127.0
109,53.0,0,29,11.0,127.0
110,41.0,0,29,12.0,127.0
111,68.0,0,29,7.0,127.0
112,68.0,0,29,7.0,127.0
113,67.0,0,29,10.0,127.0
114,43.0,0,29,12.0,127.0
115,55.0,30,29,11.0,127.0
116,70.0,0,29,8.0,127.0
117,65.0,30,29,10.0,127.0
118,68.0,0,29,8.0,127.0
119,68.0,0,29,7.0,127.0
120,53.0,0,29,11.0,127.0
121,41.0,0,29,12.0,127.0
122,39.0,0,29,12.0,127.0
123,68.0,0,29,7.0,127.0
124,63.0,0,29,10.0,127.0
125,67.0,0,29,8.0,127.0
126,51.0,30,29,11.0,127.0
127,38.0,30,29,12.0,127.0
128,50.0,0,29,11.0,127.0
129,62.0,0,29,10.0,127.0
130,65.0,0,29,8.0,127.0
131,39.0,30,29,12.0,127.0
132,63.0,0,29,10.0,127.0
133,51.0,0,29,11.0,127.0
134,67.0,0,29,8.0,127.0
135,65.0,0,29,10.0,127.0
136,53.0,0,29,11.0,127.0
137,68.0,30,29,8.0,127.0
138,41.0,0,29,12.0,127.0
139,68.0,0,119,7.0,127.0
140,70.0,0,29,8.0,127.0
141,55.0,0,29,11.0,127.0
142,67.0,30,29,10.0,127.0
143,43.0,0,29,12.0,127.0
144,65.0,0,29,10.0,127.0
145,68.0,0,29,8.0,127.0
146,53.0,30,29,11.0,127.0
147,41.0,0,29,12.0,127.0
148,63.0,30,29,10.0,127.0
149,51.0,0,29,11.0,127.0
150,39.0,0,29,12.0,127.0
151,67.0,0,29,8.0,127.0
152,65.0,0,29,8.0,127.0
153,38.0,30,29,12.0,127.0
154,50.0,0,29,11.0,127.0
155,62.0,0,29,10.0,127.0
156,60.0,0,29,10.0,127.0
157,36.0,30,29,12.0,127.0
158,74.0,0,29,7.0,127.0
159,48.0,0,29,11.0,127.0
160,63.0,0,29,8.0,127.0
161,62.0,30,59,8.0,127.0
162,74.0,0,59,7.0,127.0
163,58.0,0,59,10.0,127.0
164,77.0,0,29,7.0,127.0
165,68.0,0,29,8.0,127.0
166,46.0,0,119,11.0,127.0
167,62.0,90,29,10.0,127.0
168,34.0,0,119,12.0,127.0
169,77.0,30,59,7.0,127.0
170,68.0,0,59,8.0,127.0
171,62.0,0,59,10.0,127.0
172,74.0,0,29,8.0,127.0
173,46.0,0,119,11.0,127.0
174,65.0,0,29,10.0,127.0
175,80.0,90,29,7.0,127.0
176,34.0,0,119,12.0,127.0
177,65.0,0,119,2.0,127.0
178,68.0,0,119,2.0,127.0
179,58.0,0,119,4.0,127.0
180,65.0,0,119,4.0,127.0
181,80.0,0,119,7.0,127.0
182,62.0,0,119,3.0,126.0
183,34.0,0,119,12.0,127.0
184,46.0,0,119,4.0,127.0
185,46.0,0,119,3.0,126.0
186,65.0,0,119,10.0,127.0
187,80.0,0,119,1.0,127.0
188,77.0,0,119,1.0,127.0
189,82.0,0,119,0.0,127.0
190,46.0,30,119,6.0,127.0
191,46.0,0,119,11.0,127.0
192,74.0,0,119,8.0,127.0
193,58.0,0,119,5.0,127.0
194,70.0,0,119,5.0,127.0
195,86.0,0,119,0.0,127.0
196,62.0,0,29,10.0,127.0
197,62.0,0,59,7.0,127.0
198,70.0,0,59,7.0,127.0
199,38.0,0,59,12.0,127.0
200,62.0,0,59,3.0,126.0
201,46.0,0,59,3.0,126.0
202,80.0,0,59,1.0,127.0
203,58.0,0,59,5.0,127.0
204,70.0,0,59,5.0,127.0
205,80.0,0,59,7.0,127.0
206,77.0,0,59,1.0,127.0
207,46.0,0,59,6.0,127.0
208,77.0,240,59,8.0,127.0
209,89.0,0,59,0.0,127.0
210,86.0,0,59,0.0,127.0
211,50.0,0,59,11.0,127.0
212,68.0,0,59,2.0,127.0
213,58.0,0,59,4.0,127.0
214,46.0,0,59,4.0,127.0
215,62.0,0,59,8.0,127.0
216,65.0,0,59,2.0,127.0
217,65.0,0,59,4.0,127.0
218,70.0,0,59,8.0,127.0
219,65.0,0,29,10.0,127.0
220,68.0,0,59,2.0,127.0
221,65.0,0,59,2.0,127.0
222,62.0,0,59,8.0,127.0
223,77.0,0,59,8.0,127.0
224,70.0,0,59,8.0,127.0
225,41.0,0,59,12.0,127.0
226,46.0,0,59,4.0,127.0
227,70.0,0,59,5.0,127.0
228,62.0,0,59,7.0,127.0
229,58.0,0,59,5.0,127.0
230,70.0,0,59,7.0,127.0
231,80.0,0,59,7.0,127.0
232,46.0,0,59,6.0,127.0
233,53.0,0,59,11.0,127.0
234,62.0,0,59,3.0,126.0
235,58.0,0,59,4.0,127.0
236,46.0,0,59,3.0,126.0
237,80.0,0,59,1.0,127.0
238,77.0,0,59,1.0,127.0
239,89.0,120,59,0.0,127.0
240,86.0,0,59,0.0,127.0
241,65.0,0,59,4.0,127.0
242,70.0,0,29,10.0,127.0
243,62.0,0,59,8.0,127.0
244,86.0,0,59,0.0,127.0
245,62.0,0,59,7.0,127.0
246,65.0,0,59,2.0,127.0
247,68.0,120,59,2.0,127.0
248,46.0,0,59,12.0,127.0
249,46.0,0,59,3.0,126.0
250,62.0,0,59,3.0,126.0
251,46.0,0,59,4.0,127.0
252,58.0,0,59,4.0,127.0
253,65.0,0,59,4.0,127.0
254,58.0,0,59,11.0,127.0
255,70.0,0,59,8.0,127.0
256,58.0,0,59,5.0,127.0
257,70.0,0,59,5.0,127.0
258,77.0,0,59,8.0,127.0
259,80.0,0,59,1.0,127.0
260,89.0,0,59,0.0,127.0
261,77.0,0,59,1.0,127.0
262,80.0,0,59,7.0,127.0
263,46.0,0,59,6.0,127.0
264,70.0,0,59,7.0,127.0
265,65.0,0,59,2.0,127.0
266,68.0,120,59,2.0,127.0
267,80.0,0,59,1.0,127.0
268,62.0,0,59,3.0,126.0
269,89.0,0,59,0.0,127.0
270,46.0,0,59,4.0,127.0
271,58.0,0,59,4.0,127.0
272,65.0,0,59,4.0,127.0
273,77.0,0,59,1.0,127.0
274,46.0,0,59,3.0,126.0
275,86.0,0,59,0.0,127.0
276,58.0,0,59,10.0,127.0
277,65.0,0,59,10.0,127.0
278,70.0,0,59,10.0,127.0
279,77.0,120,119,7.0,127.0
280,34.0,0,119,12.0,127.0
281,70.0,0,119,5.0,127.0
282,58.0,0,119,5.0,127.0
283,46.0,0,119,11.0,127.0
284,70.0,0,119,7.0,127.0
285,62.0,0,119,7.0,127.0
286,46.0,0,119,6.0,127.0
287,58.0,0,119,8.0,127.0
288,74.0,0,119,8.0,127.0
289,65.0,0,119,8.0,127.0
290,80.0,0,119,1.0,127.0
291,89.0,0,119,0.0,127.0
292,86.0,0,119,0.0,127.0
293,77.0,0,119,1.0,127.0
294,68.0,0,119,4.0,127.0
295,46.0,0,119,4.0,127.0
296,65.0,120,119,2.0,127.0
297,65.0,0,119,4.0,127.0
298,68.0,0,119,2.0,127.0
299,65.0,0,119,3.0,126.0
300,62.0,0,119,3.0,126.0
301,46.0,0,59,6.0,127.0
302,65.0,0,239,4.0,127.0
303,68.0,0,239,2.0,127.0
304,74.0,0,239,2.0,127.0
305,65.0,0,239,3.0,126.0
306,62.0,0,239,3.0,126.0
307,34.0,0,239,12.0,127.0
308,68.0,120,239,4.0,127.0
309,46.0,0,239,4.0,127.0
310,58.0,0,239,10.0,127.0
311,86.0,0,239,0.0,127.0
312,80.0,0,239,0.0,127.0
313,46.0,0,239,11.0,127.0
314,56.0,0,239,8.0,127.0
315,62.0,0,239,7.0,127.0
316,80.0,0,239,1.0,127.0
317,58.0,0,239,5.0,127.0
318,74.0,0,239,1.0,127.0
319,70.0,0,239,5.0,127.0
320,63.0,0,59,13.0,50.0
321,39.0,0,59,13.0,50.0
322,51.0,240,59,13.0,50.0
323,46.0,0,59,13.0,50.0
324,58.0,240,59,13.0,50.0
325,70.0,0,59,13.0,50.0
326,58.0,0,59,13.0,50.0
327,34.0,240,59,13.0,50.0
328,46.0,0,59,13.0,50.0
329,51.0,0,59,13.0,50.0
330,63.0,240,59,13.0,50.0
331,39.0,0,59,13.0,50.0
332,51.0,0,59,13.0,50.0
333,39.0,0,59,13.0,50.0
334,63.0,240,59,13.0,50.0
335,38.0,0,59,13.0,50.0
336,50.0,0,59,13.0,50.0
337,62.0,120,59,13.0,50.0
338,63.0,120,59,13.0,50.0
339,51.0,0,59,13.0,50.0
340,39.0,0,119,13.0,50.0
341,40.0,180,59,13.0,50.0
342,64.0,0,59,13.0,50.0
343,52.0,0,59,13.0,50.0
344,53.0,0,59,13.0,50.0
345,41.0,0,59,13.0,50.0
346,65.0,60,59,13.0,50.0
347,62.0,0,59,13.0,50.0
348,38.0,60,59,13.0,50.0
349,50.0,0,59,13.0,50.0
350,39.0,60,59,13.0,50.0
351,51.0,0,59,13.0,50.0
352,63.0,0,59,13.0,50.0
353,57.0,0,59,13.0,50.0
354,45.0,60,59,13.0,50.0
355,33.0,0,59,13.0,50.0
356,58.0,0,119,13.0,50.0
357,46.0,60,119,13.0,50.0
358,34.0,0,119,13.0,50.0
359,63.0,0,119,13.0,50.0
360,51.0,0,119,13.0,50.0
361,39.0,240,119,13.0,50.0
362,75.0,0,59,0.0,48.0
363,63.0,0,59,2.0,48.0
364,51.0,120,59,3.0,48.0
365,58.0,0,119,13.0,50.0
366,70.0,120,119,13.0,50.0
367,46.0,0,119,13.0,50.0
368,70.0,0,59,2.0,48.0
369,58.0,120,59,3.0,48.0
370,82.0,0,59,0.0,48.0
371,34.0,0,119,13.0,50.0
372,46.0,0,119,13.0,50.0
373,58.0,120,119,13.0,50.0
374,70.0,0,59,0.0,48.0
375,58.0,120,59,2.0,48.0
376,46.0,0,59,3.0,48.0
377,51.0,0,119,13.0,50.0
378,63.0,0,119,13.0,50.0
379,39.0,120,119,13.0,50.0
380,51.0,0,59,3.0,48.0
381,75.0,120,59,0.0,48.0
382,63.0,0,59,2.0,48.0
383,63.0,0,59,13.0,50.0
384,39.0,120,59,13.0,50.0
385,51.0,0,59,13.0,50.0
386,63.0,60,59,2.0,48.0
387,51.0,0,59,3.0,48.0
388,75.0,0,59,0.0,48.0
389,38.0,0,59,13.0,50.0
390,50.0,60,59,13.0,50.0
391,62.0,0,59,13.0,50.0
392,74.0,0,59,0.0,48.0
393,62.0,60,59,2.0,48.0
394,50.0,0,59,3.0,48.0
395,39.0,0,59,13.0,50.0
396,51.0,60,59,13.0,50.0
397,63.0,0,59,13.0,50.0
398,51.0,0,59,3.0,48.0
399,63.0,0,59,2.0,48.0
400,75.0,60,59,0.0,48.0
401,64.0,0,59,13.0,50.0
402,52.0,0,59,13.0,50.0
403,40.0,0,59,13.0,50.0
404,76.0,0,59,0.0,48.0
405,64.0,0,59,2.0,48.0
406,52.0,120,59,3.0,48.0
407,65.0,60,29,2.0,48.0
408,53.0,0,29,3.0,48.0
409,77.0,0,29,0.0,48.0
410,41.0,0,59,13.0,50.0
411,53.0,0,59,13.0,50.0
412,65.0,0,59,13.0,50.0
413,50.0,60,29,3.0,48.0
414,74.0,0,29,0.0,48.0
415,62.0,0,29,2.0,48.0
416,38.0,0,59,13.0,50.0
417,50.0,0,59,13.0,50.0
418,62.0,0,59,13.0,50.0
419,51.0,0,29,3.0,48.0
420,75.0,0,29,0.0,48.0
421,63.0,60,29,2.0,48.0
422,51.0,0,59,13.0,50.0
423,39.0,0,59,13.0,50.0
424,63.0,0,59,13.0,50.0
425,45.0,0,29,3.0,48.0
426,69.0,0,29,0.0,48.0
427,57.0,60,29,2.0,48.0
428,57.0,0,59,13.0,50.0
429,45.0,0,59,13.0,50.0
430,33.0,0,59,13.0,50.0
431,34.0,60,119,13.0,50.0
432,46.0,0,119,13.0,50.0
433,58.0,0,119,13.0,50.0
434,58.0,0,119,2.0,48.0
435,70.0,0,119,0.0,48.0
436,46.0,0,119,3.0,48.0
437,34.0,0,29,3.0,127.0
438,70.0,0,29,1.0,127.0
439,82.0,0,29,1.0,127.0
440,46.0,0,29,3.0,127.0
441,58.0,0,29,4.0,127.0
442,46.0,0,29,4.0,127.0
443,70.0,0,29,2.0,127.0
444,82.0,0,29,2.0,127.0
445,82.0,480,29,0.0,127.0
446,58.0,0,29,5.0,127.0
447,70.0,0,29,5.0,127.0
448,46.0,0,29,6.0,127.0
449,46.0,0,29,6.0,127.0
450,58.0,0,29,4.0,127.0
451,58.0,0,29,5.0,127.0
452,70.0,0,29,5.0,127.0
453,82.0,60,29,2.0,127.0
454,34.0,0,29,3.0,127.0
455,82.0,0,29,1.0,127.0
456,46.0,0,29,3.0,127.0
457,82.0,0,29,0.0,127.0
458,46.0,0,29,4.0,127.0
459,70.0,0,29,2.0,127.0
460,70.0,0,29,1.0,127.0
461,46.0,0,29,4.0,127.0
462,58.0,0,29,4.0,127.0
463,82.0,60,29,0.0,127.0
464,46.0,0,29,6.0,127.0
465,82.0,0,29,1.0,127.0
466,70.0,0,29,2.0,127.0
467,82.0,0,29,2.0,127.0
468,58.0,0,29,5.0,127.0
469,70.0,0,29,1.0,127.0
470,70.0,0,29,5.0,127.0
471,46.0,0,29,3.0,127.0
472,34.0,0,29,3.0,127.0
473,46.0,0,59,6.0,48.0
474,70.0,0,179,2.0,48.0
475,82.0,0,179,0.0,48.0
476,82.0,0,179,2.0,48.0
477,58.0,0,179,5.0,48.0
478,70.0,0,179,1.0,48.0
479,70.0,0,179,5.0,48.0
480,58.0,0,179,4.0,48.0
481,46.0,0,179,3.0,48.0
482,34.0,360,179,3.0,48.0
483,82.0,0,179,1.0,48.0
484,46.0,0,179,4.0,48.0
485,56.0,0,59,13.0,47.0
486,44.0,0,59,13.0,47.0
487,68.0,180,59,13.0,47.0
488,67.0,60,59,13.0,47.0
489,55.0,0,59,13.0,47.0
490,43.0,0,59,13.0,48.0
491,44.0,0,59,13.0,48.0
492,56.0,240,59,13.0,47.0
493,68.0,0,59,13.0,47.0
494,70.0,240,59,13.0,47.0
495,58.0,0,59,13.0,47.0
496,46.0,0,59,13.0,48.0
497,46.0,120,59,13.0,48.0
498,70.0,0,59,13.0,47.0
499,58.0,0,59,13.0,47.0
500,63.0,0,59,13.0,47.0
501,39.0,120,59,13.0,48.0
502,51.0,0,59,13.0,47.0
503,82.0,0,59,8.0,127.0
504,70.0,0,59,8.0,127.0
505,34.0,0,59,12.0,127.0
506,46.0,240,59,11.0,127.0
507,82.0,0,59,7.0,127.0
508,58.0,0,59,10.0,127.0
509,70.0,0,59,7.0,127.0
510,82.0,0,59,8.0,127.0
511,34.0,0,59,12.0,127.0
512,82.0,0,59,7.0,127.0
513,70.0,0,59,7.0,127.0
514,46.0,0,59,11.0,127.0
515,58.0,60,59,10.0,127.0
516,70.0,0,59,8.0,127.0
517,82.0,60,59,8.0,127.0
518,34.0,0,59,12.0,127.0
519,70.0,0,59,7.0,127.0
520,82.0,0,59,7.0,127.0
521,46.0,0,59,11.0,127.0
522,58.0,0,59,10.0,127.0
523,70.0,0,59,8.0,127.0
524,70.0,0,29,1.0,127.0
525,46.0,0,29,4.0,127.0
526,46.0,0,29,6.0,127.0
527,58.0,0,29,4.0,127.0
528,82.0,120,29,1.0,127.0
529,46.0,0,29,3.0,127.0
530,34.0,0,29,3.0,127.0
531,82.0,0,29,2.0,127.0
532,82.0,0,29,0.0,127.0
533,70.0,0,29,2.0,127.0
534,70.0,0,29,5.0,127.0
535,58.0,0,29,5.0,127.0
536,46.0,0,29,3.0,127.0
537,34.0,0,29,3.0,127.0
538,82.0,0,29,1.0,127.0
539,70.0,60,29,5.0,127.0
540,46.0,0,29,6.0,127.0
541,82.0,0,29,0.0,127.0
542,46.0,0,29,4.0,127.0
543,58.0,0,29,4.0,127.0
544,70.0,0,29,2.0,127.0
545,82.0,0,29,2.0,127.0
546,70.0,0,29,1.0,127.0
547,58.0,0,29,5.0,127.0
548,34.0,0,29,3.0,127.0
549,46.0,0,29,3.0,127.0
550,46.0,0,29,4.0,127.0
551,82.0,0,29,0.0,127.0
552,70.0,0,29,2.0,127.0
553,82.0,0,29,2.0,127.0
554,58.0,60,29,4.0,127.0
555,82.0,0,29,1.0,127.0
556,70.0,0,29,1.0,127.0
557,46.0,0,29,6.0,127.0
558,58.0,0,29,5.0,127.0
559,70.0,0,29,5.0,127.0
560,70.0,0,179,8.0,48.0
561,70.0,120,179,7.0,48.0
562,82.0,0,179,7.0,48.0
563,58.0,0,179,10.0,48.0
564,34.0,0,179,12.0,81.0
565,46.0,0,179,11.0,49.0
566,82.0,0,179,8.0,48.0
567,46.0,240,59,6.0,48.0
568,34.0,0,179,3.0,48.0
569,46.0,0,179,3.0,48.0
570,82.0,0,179,1.0,48.0
571,70.0,0,179,1.0,48.0
572,82.0,0,179,2.0,48.0
573,70.0,0,179,2.0,48.0
574,58.0,0,179,5.0,48.0
575,46.0,0,179,4.0,48.0
576,58.0,0,179,4.0,48.0
577,82.0,0,179,0.0,48.0
578,70.0,0,179,5.0,48.0
579,68.0,0,59,13.0,48.0
580,56.0,180,59,13.0,48.0
581,44.0,0,59,13.0,48.0
582,55.0,0,59,13.0,48.0
583,43.0,60,59,13.0,48.0
584,67.0,0,59,13.0,48.0
585,55.0,120,59,3.0,48.0
586,67.0,0,59,2.0,48.0
587,79.0,0,59,0.0,48.0
588,44.0,0,59,13.0,48.0
589,56.0,120,59,13.0,48.0
590,68.0,0,59,13.0,48.0
591,80.0,0,59,0.0,48.0
592,68.0,0,59,2.0,48.0
593,56.0,120,59,3.0,48.0
594,70.0,120,59,13.0,48.0
595,46.0,0,59,13.0,48.0
596,58.0,0,59,13.0,48.0
597,82.0,0,59,0.0,48.0
598,58.0,60,59,3.0,48.0
599,70.0,0,59,2.0,48.0
600,70.0,0,59,13.0,48.0
601,58.0,0,59,13.0,48.0
602,46.0,60,59,13.0,48.0
603,58.0,60,59,3.0,48.0
604,82.0,0,59,0.0,48.0
605,70.0,0,59,2.0,48.0
606,39.0,0,59,13.0,48.0
607,63.0,60,59,13.0,48.0
608,51.0,0,59,13.0,48.0
609,63.0,0,59,2.0,48.0
610,51.0,120,59,3.0,48.0
611,75.0,0,59,0.0,48.0
612,51.0,60,29,11.0,47.0
613,51.0,60,29,11.0,47.0
614,51.0,60,29,11.0,47.0
615,63.0,120,239,8.0,48.0
616,51.0,0,122,11.0,47.0
617,50.0,120,59,11.0,47.0
618,70.0,60,239,8.0,48.0
619,68.0,60,29,7.0,48.0
620,68.0,60,29,7.0,48.0
621,68.0,60,29,7.0,48.0
622,58.0,120,239,8.0,48.0
623,68.0,60,122,7.0,48.0
624,67.0,120,59,7.0,48.0
625,63.0,0,239,8.0,48.0
626,63.0,120,59,8.0,48.0
627,58.0,60,62,11.0,47.0
628,62.0,0,59,8.0,48.0
629,56.0,60,62,11.0,47.0
630,53.0,60,62,11.0,47.0
631,63.0,0,89,8.0,48.0
632,72.0,60,62,7.0,48.0
633,55.0,60,179,11.0,47.0
634,70.0,60,62,7.0,48.0
635,64.0,0,29,8.0,48.0
636,48.0,60,62,11.0,47.0
637,67.0,0,62,7.0,48.0
638,65.0,0,29,8.0,48.0
639,53.0,60,62,11.0,47.0
640,68.0,0,62,7.0,48.0
641,62.0,60,29,8.0,48.0
642,46.0,0,62,11.0,47.0
643,70.0,0,62,7.0,48.0
644,63.0,0,29,8.0,48.0
645,67.0,0,62,7.0,48.0
646,51.0,60,62,11.0,47.0
647,57.0,60,29,8.0,48.0
648,75.0,0,62,7.0,48.0
649,48.0,0,62,11.0,47.0
650,58.0,60,59,8.0,48.0
651,74.0,0,62,7.0,48.0
652,46.0,0,119,11.0,47.0
653,77.0,60,62,7.0,48.0
654,70.0,60,62,7.0,48.0
655,68.0,60,62,7.0,48.0
656,67.0,60,59,7.0,48.0
657,51.0,60,29,11.0,47.0
658,51.0,60,29,11.0,47.0
659,51.0,60,29,11.0,47.0
660,63.0,0,239,8.0,48.0
661,51.0,60,122,11.0,47.0
662,50.0,120,59,11.0,47.0
663,70.0,0,239,8.0,48.0
664,68.0,60,29,7.0,48.0
665,68.0,60,29,7.0,48.0
666,68.0,60,29,7.0,48.0
667,58.0,120,239,8.0,48.0
668,68.0,60,122,7.0,48.0
669,67.0,120,59,7.0,48.0
670,63.0,0,239,8.0,48.0
671,63.0,120,59,8.0,48.0
672,58.0,60,62,11.0,47.0
673,62.0,0,59,8.0,48.0
674,56.0,60,62,11.0,47.0
675,53.0,60,62,11.0,47.0
676,63.0,60,89,8.0,48.0
677,72.0,60,62,7.0,48.0
678,55.0,0,179,11.0,47.0
679,70.0,60,62,7.0,48.0
680,64.0,0,29,8.0,48.0
681,67.0,0,62,7.0,48.0
682,48.0,60,62,11.0,47.0
683,65.0,0,29,8.0,48.0
684,53.0,60,62,11.0,47.0
685,68.0,0,62,7.0,48.0
686,62.0,60,29,8.0,48.0
687,46.0,0,62,11.0,47.0
688,70.0,0,62,7.0,48.0
689,63.0,60,29,8.0,48.0
690,51.0,0,62,11.0,47.0
691,67.0,0,62,7.0,48.0
692,57.0,0,29,8.0,48.0
693,48.0,60,62,11.0,47.0
694,75.0,0,62,7.0,48.0
695,74.0,0,62,7.0,48.0
696,46.0,0,119,11.0,47.0
697,58.0,60,119,8.0,48.0
698,77.0,60,62,7.0,48.0
699,70.0,60,59,7.0,48.0
700,58.0,60,62,11.0,47.0
701,56.0,60,62,11.0,47.0
702,57.0,60,62,11.0,47.0
703,58.0,60,62,11.0,47.0
704,60.0,60,59,11.0,47.0
705,70.0,60,29,8.0,96.0
706,70.0,60,29,8.0,96.0
707,51.0,0,122,11.0,47.0
708,70.0,60,29,8.0,96.0
709,50.0,0,59,11.0,47.0
710,82.0,60,62,7.0,48.0
711,80.0,60,62,7.0,48.0
712,46.0,60,62,11.0,47.0
713,82.0,0,62,7.0,52.0
714,83.0,0,62,7.0,56.0
715,50.0,60,62,11.0,52.0
716,84.0,60,59,7.0,60.0
717,53.0,0,62,11.0,57.0
718,75.0,60,122,7.0,48.0
719,74.0,120,59,7.0,48.0
720,56.0,0,179,11.0,47.0
721,70.0,0,179,8.0,48.0
722,58.0,0,62,11.0,47.0
723,68.0,60,62,8.0,48.0
724,63.0,0,62,11.0,47.0
725,58.0,60,62,11.0,47.0
726,55.0,60,62,11.0,47.0
727,51.0,60,59,11.0,47.0
728,67.0,60,242,8.0,48.0
729,80.0,60,62,7.0,52.0
730,48.0,0,182,11.0,47.0
731,77.0,60,62,7.0,52.0
732,68.0,60,239,8.0,48.0
733,75.0,0,59,7.0,52.0
734,47.0,60,62,11.0,47.0
735,70.0,60,59,8.0,48.0
736,74.0,0,62,7.0,52.0
737,46.0,0,62,11.0,47.0
738,80.0,0,62,7.0,52.0
739,50.0,60,62,11.0,47.0
740,70.0,60,59,8.0,48.0
741,77.0,0,62,7.0,52.0
742,53.0,0,62,11.0,47.0
743,74.0,60,59,7.0,52.0
744,56.0,0,59,11.0,47.0
745,55.0,0,62,11.0,47.0
746,75.0,60,119,7.0,52.0
747,58.0,60,59,11.0,47.0
748,63.0,0,119,8.0,48.0
749,51.0,60,29,11.0,47.0
750,58.0,60,62,11.0,47.0
751,56.0,60,62,11.0,47.0
752,57.0,60,62,11.0,47.0
753,58.0,60,62,11.0,47.0
754,60.0,60,59,11.0,47.0
755,70.0,0,29,8.0,96.0
756,70.0,60,29,8.0,96.0
757,51.0,60,122,11.0,47.0
758,70.0,0,29,8.0,96.0
759,50.0,60,59,11.0,47.0
760,82.0,60,62,7.0,48.0
761,80.0,60,62,7.0,48.0
762,46.0,0,62,11.0,48.0
763,82.0,60,62,7.0,52.0
764,83.0,60,62,7.0,56.0
765,50.0,0,62,11.0,53.0
766,84.0,0,59,7.0,60.0
767,53.0,60,62,11.0,58.0
768,75.0,0,122,7.0,48.0
769,74.0,120,59,7.0,48.0
770,56.0,60,179,11.0,47.0
771,70.0,0,179,8.0,48.0
772,68.0,0,62,8.0,48.0
773,58.0,60,62,11.0,47.0
774,63.0,60,62,11.0,47.0
775,58.0,60,62,11.0,47.0
776,55.0,60,62,11.0,47.0
777,51.0,60,59,11.0,47.0
778,67.0,0,242,8.0,48.0
779,80.0,60,62,7.0,48.0
780,48.0,0,182,11.0,47.0
781,77.0,60,62,7.0,48.0
782,75.0,0,59,7.0,48.0
783,68.0,60,239,8.0,48.0
784,47.0,60,62,11.0,47.0
785,70.0,0,59,8.0,48.0
786,46.0,0,62,11.0,47.0
787,74.0,60,62,7.0,48.0
788,50.0,60,62,11.0,47.0
789,80.0,0,62,7.0,48.0
790,70.0,0,59,8.0,48.0
791,77.0,0,62,7.0,48.0
792,53.0,60,62,11.0,47.0
793,56.0,60,59,11.0,47.0
794,74.0,0,59,7.0,48.0
795,55.0,0,62,11.0,47.0
796,75.0,60,119,7.0,48.0
797,58.0,60,59,11.0,47.0
798,63.0,0,119,8.0,48.0
799,51.0,60,29,11.0,47.0
800,70.0,60,32,10.0,48.0
801,68.0,30,29,10.0,48.0
802,67.0,0,19,10.0,48.0
803,70.0,40,19,10.0,48.0
804,68.0,40,19,10.0,48.0
805,67.0,40,19,10.0,48.0
806,65.0,40,19,10.0,48.0
807,63.0,40,19,10.0,48.0
808,75.0,30,239,7.0,48.0
809,62.0,0,19,10.0,48.0
810,65.0,40,19,10.0,48.0
811,68.0,40,19,10.0,48.0
812,67.0,40,19,10.0,48.0
813,65.0,40,19,10.0,48.0
814,63.0,40,19,10.0,48.0
815,82.0,40,239,7.0,48.0
816,62.0,0,19,10.0,48.0
817,60.0,0,19,10.0,48.0
818,58.0,40,19,8.0,48.0
819,58.0,40,19,10.0,48.0
820,60.0,0,19,8.0,48.0
821,62.0,40,19,8.0,48.0
822,56.0,0,19,10.0,48.0
823,55.0,0,19,10.0,48.0
824,63.0,40,19,8.0,48.0
825,65.0,40,19,8.0,48.0
826,53.0,0,19,10.0,48.0
827,70.0,40,239,7.0,48.0
828,67.0,40,19,8.0,48.0
829,51.0,0,19,10.0,48.0
830,70.0,40,19,8.0,48.0
831,55.0,0,19,10.0,48.0
832,60.0,0,19,11.0,48.0
833,72.0,0,19,8.0,48.0
834,58.0,0,19,11.0,48.0
835,56.0,40,19,10.0,48.0
836,56.0,0,19,11.0,48.0
837,58.0,40,19,10.0,48.0
838,74.0,0,19,8.0,48.0
839,60.0,40,19,10.0,48.0
840,75.0,0,19,8.0,48.0
841,55.0,0,19,11.0,48.0
842,62.0,0,19,10.0,48.0
843,53.0,40,19,11.0,48.0
844,77.0,0,19,8.0,48.0
845,75.0,0,239,7.0,48.0
846,51.0,0,39,11.0,48.0
847,79.0,0,39,8.0,48.0
848,63.0,0,39,10.0,48.0
849,75.0,40,59,7.0,48.0
850,67.0,0,39,10.0,49.0
851,70.0,0,39,8.0,49.0
852,63.0,40,39,11.0,49.0
853,63.0,40,39,11.0,50.0
854,70.0,0,39,8.0,50.0
855,67.0,0,39,10.0,50.0
856,68.0,40,39,10.0,52.0
857,70.0,0,39,8.0,52.0
858,65.0,0,39,11.0,52.0
859,74.0,0,59,7.0,52.0
860,70.0,40,39,8.0,53.0
861,65.0,0,39,11.0,53.0
862,68.0,0,39,10.0,53.0
863,70.0,40,39,8.0,54.0
864,68.0,0,39,10.0,54.0
865,65.0,0,39,11.0,54.0
866,70.0,0,39,8.0,56.0
867,67.0,0,39,10.0,56.0
868,63.0,40,39,11.0,56.0
869,63.0,0,39,11.0,57.0
870,70.0,0,39,8.0,57.0
871,67.0,40,39,10.0,57.0
872,70.0,40,39,8.0,58.0
873,67.0,0,39,10.0,58.0
874,61.0,0,39,11.0,58.0
875,70.0,0,39,8.0,60.0
876,67.0,0,39,10.0,60.0
877,60.0,40,39,11.0,60.0
878,75.0,0,179,7.0,56.0
879,70.0,0,39,8.0,61.0
880,67.0,40,39,10.0,61.0
881,60.0,0,39,11.0,61.0
882,76.0,20,59,7.0,62.0
883,70.0,0,39,8.0,62.0
884,67.0,0,39,10.0,62.0
885,60.0,20,39,11.0,62.0
886,77.0,40,29,7.0,48.0
887,60.0,0,39,11.0,48.0
888,65.0,0,39,10.0,48.0
889,68.0,0,39,8.0,48.0
890,68.0,0,39,8.0,48.0
891,65.0,0,39,10.0,48.0
892,60.0,40,39,11.0,48.0
893,74.0,20,29,7.0,48.0
894,68.0,20,39,8.0,48.0
895,59.0,0,39,11.0,48.0
896,65.0,0,39,10.0,48.0
897,75.0,0,29,7.0,48.0
898,65.0,0,39,10.0,48.0
899,58.0,40,39,11.0,48.0
900,67.0,0,39,8.0,48.0
901,63.0,0,39,10.0,48.0
902,58.0,40,39,11.0,48.0
903,67.0,0,39,8.0,48.0
904,69.0,20,29,7.0,48.0
905,66.0,0,39,8.0,48.0
906,58.0,0,39,11.0,48.0
907,63.0,20,39,10.0,48.0
908,58.0,0,39,11.0,48.0
909,57.0,40,39,11.0,48.0
910,65.0,0,119,8.0,48.0
911,58.0,40,39,11.0,48.0
912,63.0,40,119,10.0,48.0
913,70.0,0,119,7.0,48.0
914,46.0,40,59,11.0,48.0
915,70.0,60,32,10.0,48.0
916,68.0,30,29,10.0,48.0
917,67.0,30,19,10.0,48.0
918,70.0,40,19,10.0,48.0
919,68.0,40,19,10.0,48.0
920,67.0,40,19,10.0,48.0
921,65.0,40,19,10.0,48.0
922,63.0,40,19,10.0,48.0
923,75.0,0,239,7.0,48.0
924,62.0,0,19,10.0,48.0
925,65.0,40,19,10.0,48.0
926,68.0,40,19,10.0,48.0
927,67.0,40,19,10.0,48.0
928,65.0,40,19,10.0,48.0
929,63.0,40,19,10.0,48.0
930,82.0,40,239,7.0,48.0
931,62.0,0,19,10.0,48.0
932,60.0,40,19,10.0,48.0
933,58.0,0,19,8.0,48.0
934,58.0,40,19,10.0,48.0
935,60.0,0,19,8.0,48.0
936,56.0,0,19,10.0,48.0
937,62.0,40,19,8.0,48.0
938,63.0,40,19,8.0,48.0
939,55.0,0,19,10.0,48.0
940,53.0,0,19,10.0,48.0
941,65.0,40,19,8.0,48.0
942,70.0,40,239,7.0,48.0
943,67.0,0,19,8.0,48.0
944,51.0,40,19,10.0,48.0
945,55.0,40,19,10.0,48.0
946,60.0,0,19,11.0,48.0
947,70.0,0,19,8.0,48.0
948,58.0,0,19,11.0,48.0
949,56.0,40,19,10.0,48.0
950,72.0,0,19,8.0,48.0
951,56.0,40,19,11.0,48.0
952,74.0,0,19,8.0,48.0
953,58.0,0,19,10.0,48.0
954,60.0,0,19,10.0,48.0
955,55.0,40,19,11.0,48.0
956,75.0,0,19,8.0,48.0
957,62.0,40,19,10.0,48.0
958,53.0,0,19,11.0,48.0
959,77.0,0,19,8.0,48.0
960,75.0,0,239,7.0,48.0
961,63.0,40,39,10.0,48.0
962,79.0,0,39,8.0,48.0
963,51.0,0,39,11.0,48.0
964,75.0,0,59,7.0,48.0
965,63.0,0,39,11.0,49.0
966,70.0,40,39,8.0,49.0
967,67.0,0,39,10.0,49.0
968,63.0,40,39,11.0,50.0
969,70.0,0,39,8.0,50.0
970,67.0,0,39,10.0,50.0
971,65.0,0,39,11.0,52.0
972,70.0,0,39,8.0,52.0
973,68.0,40,39,10.0,52.0
974,74.0,0,59,7.0,52.0
975,70.0,0,39,8.0,53.0
976,68.0,40,39,10.0,53.0
977,65.0,0,39,11.0,53.0
978,68.0,0,39,10.0,54.0
979,65.0,0,39,11.0,54.0
980,70.0,40,39,8.0,54.0
981,67.0,0,39,10.0,56.0
982,63.0,0,39,11.0,56.0
983,70.0,0,39,8.0,56.0
984,63.0,0,39,11.0,57.0
985,67.0,40,39,10.0,57.0
986,70.0,0,39,8.0,57.0
987,70.0,40,39,8.0,58.0
988,67.0,0,39,10.0,58.0
989,61.0,0,39,11.0,58.0
990,60.0,0,39,11.0,60.0
991,67.0,0,39,10.0,60.0
992,70.0,40,39,8.0,60.0
993,75.0,40,179,7.0,56.0
994,70.0,0,39,8.0,61.0
995,60.0,0,39,11.0,61.0
996,67.0,40,39,10.0,61.0
997,70.0,0,39,8.0,62.0
998,60.0,0,39,11.0,62.0
999,67.0,20,39,10.0,62.0
1000,76.0,20,59,7.0,62.0
1001,77.0,0,29,7.0,48.0
1002,68.0,40,39,8.0,48.0
1003,60.0,0,39,11.0,48.0
1004,65.0,0,39,10.0,48.0
1005,60.0,0,39,11.0,48.0
1006,65.0,0,39,10.0,48.0
1007,68.0,40,39,8.0,48.0
1008,74.0,20,29,7.0,48.0
1009,65.0,20,39,10.0,48.0
1010,59.0,0,39,11.0,48.0
1011,68.0,0,39,8.0,48.0
1012,75.0,0,29,7.0,48.0
1013,67.0,0,39,8.0,48.0
1014,58.0,40,39,11.0,48.0
1015,65.0,0,39,10.0,48.0
1016,67.0,0,39,8.0,48.0
1017,58.0,40,39,11.0,48.0
1018,63.0,0,39,10.0,48.0
1019,69.0,20,29,7.0,48.0
1020,66.0,0,39,8.0,48.0
1021,58.0,20,39,11.0,48.0
1022,63.0,0,39,10.0,48.0
1023,58.0,0,39,11.0,48.0
1024,57.0,40,39,11.0,48.0
1025,58.0,40,39,11.0,48.0
1026,65.0,0,119,8.0,48.0
1027,63.0,40,119,10.0,48.0
1028,70.0,0,119,7.0,48.0
1029,46.0,40,59,11.0,48.0
1030,46.0,60,32,11.0,48.0
1031,48.0,30,29,11.0,48.0
1032,50.0,30,19,11.0,48.0
1033,72.0,40,42,8.0,48.0
1034,68.0,0,42,10.0,48.0
1035,50.0,0,42,11.0,48.0
1036,51.0,0,39,11.0,48.0
1037,70.0,40,39,8.0,48.0
1038,67.0,0,39,10.0,48.0
1039,68.0,0,19,8.0,48.0
1040,53.0,0,19,11.0,48.0
1041,65.0,40,19,10.0,48.0
1042,53.0,40,42,11.0,48.0
1043,65.0,0,42,10.0,48.0
1044,68.0,0,42,8.0,48.0
1045,67.0,40,39,8.0,48.0
1046,63.0,0,39,10.0,48.0
1047,55.0,0,39,11.0,48.0
1048,65.0,40,19,8.0,48.0
1049,62.0,0,19,10.0,48.0
1050,82.0,0,29,7.0,96.0
1051,62.0,0,42,10.0,48.0
1052,65.0,40,42,8.0,48.0
1053,82.0,20,29,7.0,96.0
1054,63.0,20,39,8.0,48.0
1055,56.0,0,119,11.0,48.0
1056,60.0,0,39,10.0,48.0
1057,82.0,40,29,7.0,96.0
1058,58.0,0,59,10.0,48.0
1059,62.0,0,59,8.0,48.0
1060,58.0,60,32,11.0,48.0
1061,60.0,30,29,11.0,48.0
1062,62.0,30,19,11.0,47.0
1063,80.0,40,42,8.0,48.0
1064,62.0,0,42,11.0,49.0
1065,72.0,0,42,10.0,48.0
1066,79.0,0,39,8.0,51.0
1067,63.0,0,39,11.0,52.0
1068,70.0,40,39,10.0,51.0
1069,65.0,0,19,11.0,55.0
1070,77.0,0,19,8.0,54.0
1071,68.0,40,19,10.0,54.0
1072,77.0,0,42,8.0,57.0
1073,65.0,40,42,11.0,57.0
1074,68.0,0,42,10.0,57.0
1075,67.0,0,39,10.0,61.0
1076,75.0,40,39,8.0,61.0
1077,67.0,0,39,11.0,60.0
1078,65.0,0,179,10.0,48.0
1079,68.0,40,179,11.0,48.0
1080,74.0,0,179,8.0,48.0
1081,82.0,0,179,7.0,48.0
1082,65.0,0,59,10.0,48.0
1083,58.0,180,59,11.0,48.0
1084,74.0,0,59,8.0,48.0
1085,80.0,0,62,7.0,48.0
1086,75.0,0,39,8.0,48.0
1087,67.0,60,39,10.0,48.0
1088,63.0,0,39,11.0,48.0
1089,70.0,0,39,10.0,48.0
1090,73.0,0,39,8.0,49.0
1091,63.0,40,39,11.0,49.0
1092,73.0,40,39,8.0,50.0
1093,70.0,0,39,10.0,48.0
1094,63.0,0,39,11.0,50.0
1095,63.0,0,39,11.0,52.0
1096,73.0,0,39,8.0,52.0
1097,70.0,40,39,10.0,48.0
1098,70.0,0,39,10.0,48.0
1099,73.0,0,39,8.0,53.0
1100,63.0,40,39,11.0,53.0
1101,70.0,40,39,10.0,48.0
1102,63.0,0,39,11.0,54.0
1103,73.0,0,39,8.0,54.0
1104,79.0,0,242,7.0,48.0
1105,68.0,40,39,10.0,48.0
1106,63.0,0,39,11.0,56.0
1107,72.0,0,39,8.0,56.0
1108,72.0,40,39,10.0,48.0
1109,63.0,0,39,11.0,57.0
1110,75.0,0,39,8.0,57.0
1111,63.0,0,39,11.0,58.0
1112,75.0,40,39,8.0,58.0
1113,72.0,0,39,10.0,48.0
1114,71.0,40,39,10.0,48.0
1115,63.0,0,39,11.0,60.0
1116,77.0,0,39,8.0,60.0
1117,71.0,0,39,10.0,48.0
1118,63.0,40,39,11.0,61.0
1119,77.0,0,39,8.0,61.0
1120,80.0,0,239,7.0,48.0
1121,63.0,40,39,11.0,62.0
1122,71.0,0,39,10.0,48.0
1123,77.0,0,39,8.0,62.0
1124,74.0,0,39,8.0,48.0
1125,63.0,0,39,11.0,48.0
1126,68.0,0,39,10.0,48.0
1127,82.0,40,59,7.0,48.0
1128,65.0,0,39,10.0,48.0
1129,80.0,40,39,8.0,48.0
1130,63.0,0,39,11.0,48.0
1131,67.0,40,39,10.0,48.0
1132,79.0,0,39,8.0,48.0
1133,63.0,0,39,11.0,48.0
1134,63.0,40,39,11.0,48.0
1135,68.0,0,39,10.0,48.0
1136,77.0,0,39,8.0,48.0
1137,82.0,0,59,7.0,48.0
1138,75.0,40,39,8.0,48.0
1139,67.0,0,39,10.0,48.0
1140,63.0,0,39,11.0,48.0
1141,63.0,0,39,11.0,48.0
1142,68.0,0,39,10.0,48.0
1143,74.0,40,39,8.0,48.0
1144,67.0,0,39,10.0,48.0
1145,75.0,40,39,8.0,48.0
1146,70.0,0,39,8.0,48.0
1147,67.0,40,39,10.0,48.0
1148,67.0,40,39,10.0,48.0
1149,63.0,0,119,11.0,48.0
1150,70.0,0,39,8.0,48.0
1151,75.0,0,119,7.0,48.0
1152,63.0,40,59,10.0,48.0
1153,67.0,0,59,8.0,48.0
1154,46.0,60,32,11.0,48.0
1155,48.0,30,29,11.0,48.0
1156,50.0,30,19,11.0,48.0
1157,72.0,0,42,8.0,48.0
1158,50.0,40,42,11.0,48.0
1159,68.0,0,42,10.0,48.0
1160,67.0,40,39,10.0,48.0
1161,51.0,0,39,11.0,48.0
1162,70.0,0,39,8.0,48.0
1163,68.0,40,19,8.0,48.0
1164,65.0,0,19,10.0,48.0
1165,53.0,0,19,11.0,48.0
1166,53.0,0,42,11.0,48.0
1167,65.0,0,42,10.0,48.0
1168,68.0,40,42,8.0,48.0
1169,63.0,0,39,10.0,48.0
1170,67.0,40,39,8.0,48.0
1171,55.0,0,39,11.0,48.0
1172,62.0,0,19,10.0,48.0
1173,65.0,0,19,8.0,48.0
1174,82.0,40,29,7.0,96.0
1175,65.0,40,42,8.0,48.0
1176,62.0,0,42,10.0,48.0
1177,82.0,20,29,7.0,96.0
1178,60.0,0,39,10.0,48.0
1179,63.0,20,39,8.0,48.0
1180,56.0,0,119,11.0,48.0
1181,82.0,40,29,7.0,96.0
1182,62.0,0,59,8.0,48.0
1183,58.0,0,59,10.0,48.0
1184,58.0,60,32,11.0,48.0
1185,60.0,30,29,11.0,48.0
1186,62.0,30,19,11.0,47.0
1187,62.0,0,42,11.0,49.0
1188,80.0,0,42,8.0,48.0
1189,72.0,40,42,10.0,48.0
1190,63.0,40,39,11.0,52.0
1191,79.0,0,39,8.0,51.0
1192,70.0,0,39,10.0,51.0
1193,68.0,0,19,10.0,54.0
1194,65.0,0,19,11.0,55.0
1195,77.0,40,19,8.0,54.0
1196,77.0,0,42,8.0,57.0
1197,68.0,40,42,10.0,57.0
1198,65.0,0,42,11.0,57.0
1199,67.0,40,39,10.0,61.0
1200,67.0,0,39,11.0,60.0
1201,75.0,0,39,8.0,61.0
1202,74.0,40,179,8.0,48.0
1203,68.0,0,179,11.0,48.0
1204,82.0,0,179,7.0,48.0
1205,65.0,0,179,10.0,48.0
1206,65.0,180,59,10.0,48.0
1207,58.0,0,59,11.0,48.0
1208,74.0,0,59,8.0,48.0
1209,80.0,0,62,7.0,48.0
1210,63.0,0,39,11.0,48.0
1211,67.0,0,39,10.0,48.0
1212,75.0,0,39,8.0,48.0
1213,73.0,0,39,8.0,49.0
1214,63.0,40,39,11.0,49.0
1215,70.0,0,39,10.0,48.0
1216,73.0,40,39,8.0,50.0
1217,63.0,0,39,11.0,50.0
1218,70.0,0,39,10.0,48.0
1219,63.0,40,39,11.0,52.0
1220,70.0,0,39,10.0,48.0
1221,73.0,0,39,8.0,52.0
1222,73.0,0,39,8.0,53.0
1223,63.0,0,39,11.0,53.0
1224,70.0,40,39,10.0,48.0
1225,63.0,0,39,11.0,54.0
1226,70.0,0,39,10.0,48.0
1227,73.0,40,39,8.0,54.0
1228,79.0,60,242,7.0,48.0
1229,63.0,0,39,11.0,56.0
1230,68.0,0,39,10.0,48.0
1231,72.0,0,39,8.0,56.0
1232,72.0,40,39,10.0,48.0
1233,75.0,0,39,8.0,57.0
1234,63.0,0,39,11.0,57.0
1235,72.0,0,39,10.0,48.0
1236,75.0,40,39,8.0,58.0
1237,63.0,0,39,11.0,58.0
1238,77.0,0,39,8.0,60.0
1239,63.0,40,39,11.0,60.0
1240,71.0,0,39,10.0,48.0
1241,77.0,40,39,8.0,61.0
1242,71.0,0,39,10.0,48.0
1243,63.0,0,39,11.0,61.0
1244,63.0,0,39,11.0,62.0
1245,77.0,0,39,8.0,62.0
1246,80.0,40,239,7.0,48.0
1247,71.0,40,39,10.0,48.0
1248,63.0,40,39,11.0,48.0
1249,74.0,0,39,8.0,48.0
1250,68.0,0,39,10.0,48.0
1251,82.0,0,59,7.0,48.0
1252,63.0,40,39,11.0,48.0
1253,65.0,0,39,10.0,48.0
1254,80.0,0,39,8.0,48.0
1255,63.0,0,39,11.0,48.0
1256,67.0,0,39,10.0,48.0
1257,79.0,40,39,8.0,48.0
1258,68.0,0,39,10.0,48.0
1259,63.0,40,39,11.0,48.0
1260,77.0,0,39,8.0,48.0
1261,82.0,0,59,7.0,48.0
1262,63.0,40,39,11.0,48.0
1263,67.0,0,39,10.0,48.0
1264,75.0,0,39,8.0,48.0
1265,74.0,40,39,8.0,48.0
1266,68.0,0,39,10.0,48.0
1267,63.0,0,39,11.0,48.0
1268,75.0,0,39,8.0,48.0
1269,67.0,0,39,10.0,48.0
1270,70.0,40,39,8.0,48.0
1271,67.0,0,39,10.0,48.0
1272,67.0,40,39,10.0,48.0
1273,75.0,0,119,7.0,48.0
1274,70.0,0,39,8.0,48.0
1275,63.0,40,119,11.0,48.0
1276,63.0,40,59,10.0,48.0
1277,67.0,0,59,8.0,48.0
1278,67.0,0,59,2.0,48.0
1279,58.0,0,59,3.0,48.0
1280,75.0,60,62,1.0,48.0
1281,55.0,30,32,7.0,48.0
1282,58.0,0,32,7.0,48.0
1283,51.0,0,119,13.0,64.0
1284,39.0,0,119,13.0,64.0
1285,67.0,30,59,8.0,48.0
1286,58.0,0,59,8.0,48.0
1287,63.0,0,59,10.0,48.0
1288,63.0,30,32,7.0,48.0
1289,67.0,0,32,7.0,48.0
1290,63.0,0,59,10.0,48.0
1291,67.0,30,59,8.0,48.0
1292,58.0,0,59,8.0,48.0
1293,58.0,60,182,3.0,48.0
1294,70.0,0,182,2.0,48.0
1295,79.0,0,182,1.0,48.0
1296,70.0,30,32,7.0,48.0
1297,75.0,0,32,7.0,48.0
1298,79.0,30,29,7.0,48.0
1299,67.0,0,59,8.0,48.0
1300,63.0,30,59,10.0,48.0
1301,63.0,0,239,4.0,64.0
1302,51.0,0,239,4.0,64.0
1303,51.0,0,239,3.0,64.0
1304,63.0,0,59,3.0,48.0
1305,58.0,0,59,8.0,48.0
1306,75.0,0,59,1.0,48.0
1307,67.0,0,59,2.0,48.0
1308,80.0,0,32,7.0,48.0
1309,77.0,30,32,7.0,48.0
1310,74.0,30,32,7.0,48.0
1311,65.0,0,59,10.0,48.0
1312,58.0,30,119,13.0,64.0
1313,46.0,0,119,13.0,64.0
1314,58.0,0,59,8.0,48.0
1315,68.0,0,59,8.0,48.0
1316,70.0,30,32,7.0,48.0
1317,68.0,30,32,7.0,48.0
1318,58.0,0,59,8.0,48.0
1319,68.0,0,59,8.0,48.0
1320,65.0,0,59,10.0,48.0
1321,58.0,0,179,3.0,64.0
1322,68.0,0,182,2.0,48.0
1323,74.0,0,182,1.0,48.0
1324,65.0,30,32,7.0,48.0
1325,65.0,0,182,3.0,48.0
1326,62.0,0,32,7.0,48.0
1327,77.0,30,59,1.0,48.0
1328,58.0,30,29,7.0,48.0
1329,70.0,0,239,4.0,64.0
1330,58.0,0,59,3.0,48.0
1331,62.0,0,59,2.0,48.0
1332,58.0,0,59,8.0,48.0
1333,68.0,0,59,8.0,48.0
1334,58.0,0,239,4.0,64.0
1335,65.0,0,59,10.0,48.0
1336,56.0,0,32,7.0,48.0
1337,58.0,30,32,7.0,48.0
1338,62.0,30,32,7.0,48.0
1339,34.0,0,119,13.0,64.0
1340,65.0,0,59,8.0,48.0
1341,46.0,0,119,13.0,64.0
1342,58.0,0,59,8.0,48.0
1343,56.0,0,59,10.0,48.0
1344,65.0,30,32,7.0,48.0
1345,68.0,0,32,7.0,48.0
1346,58.0,0,59,8.0,48.0
1347,62.0,30,59,10.0,48.0
1348,65.0,0,59,8.0,48.0
1349,58.0,0,182,3.0,48.0
1350,62.0,0,182,2.0,48.0
1351,70.0,30,32,7.0,48.0
1352,80.0,30,182,1.0,48.0
1353,74.0,0,32,7.0,48.0
1354,65.0,30,59,8.0,48.0
1355,58.0,0,59,8.0,48.0
1356,62.0,0,59,10.0,48.0
1357,68.0,0,59,2.0,48.0
1358,58.0,0,239,4.0,64.0
1359,46.0,0,239,4.0,64.0
1360,77.0,30,29,7.0,48.0
1361,46.0,0,239,3.0,64.0
1362,77.0,0,59,1.0,48.0
1363,65.0,0,59,3.0,48.0
1364,79.0,0,14,7.0,48.0
1365,67.0,30,14,7.0,48.0
1366,68.0,30,14,7.0,48.0
1367,70.0,30,14,7.0,48.0
1368,67.0,0,59,8.0,48.0
1369,39.0,0,119,13.0,64.0
1370,51.0,0,119,13.0,64.0
1371,58.0,0,59,8.0,48.0
1372,63.0,0,59,10.0,48.0
1373,72.0,0,14,7.0,48.0
1374,74.0,30,14,7.0,48.0
1375,67.0,0,59,8.0,48.0
1376,58.0,30,59,8.0,48.0
1377,63.0,0,59,10.0,48.0
1378,75.0,0,182,1.0,48.0
1379,70.0,0,182,2.0,48.0
1380,67.0,30,182,3.0,48.0
1381,75.0,0,14,7.0,48.0
1382,77.0,30,14,7.0,48.0
1383,51.0,0,239,3.0,64.0
1384,51.0,0,239,4.0,64.0
1385,63.0,0,239,4.0,64.0
1386,67.0,0,59,8.0,48.0
1387,58.0,0,59,8.0,48.0
1388,67.0,0,59,2.0,48.0
1389,82.0,0,959,0.0,49.0
1390,63.0,0,59,10.0,48.0
1391,79.0,0,59,1.0,48.0
1392,63.0,30,59,3.0,48.0
1393,67.0,0,32,8.0,48.0
1394,79.0,0,32,7.0,48.0
1395,78.0,0,32,7.0,53.0
1396,82.0,0,62,0.0,48.0
1397,66.0,30,32,8.0,54.0
1398,51.0,30,89,3.0,64.0
1399,82.0,0,89,1.0,48.0
1400,70.0,0,89,2.0,48.0
1401,67.0,0,89,2.0,48.0
1402,79.0,0,89,1.0,48.0
1403,63.0,0,89,3.0,64.0
1404,79.0,0,32,7.0,59.0
1405,67.0,0,32,8.0,60.0
1406,55.0,0,119,4.0,64.0
1407,58.0,0,119,4.0,64.0
1408,63.0,0,119,4.0,64.0
1409,58.0,30,59,10.0,57.0
1410,75.0,0,29,7.0,65.0
1411,39.0,0,119,13.0,64.0
1412,51.0,0,119,13.0,64.0
1413,87.0,0,59,0.0,60.0
1414,63.0,30,32,8.0,66.0
1415,75.0,0,122,0.0,48.0
1416,68.0,0,32,8.0,72.0
1417,80.0,0,32,7.0,71.0
1418,67.0,0,32,8.0,78.0
1419,82.0,30,62,0.0,72.0
1420,79.0,30,32,7.0,77.0
1421,82.0,0,89,1.0,72.0
1422,80.0,0,89,1.0,72.0
1423,70.0,0,89,2.0,73.0
1424,68.0,0,89,2.0,73.0
1425,62.0,0,89,3.0,87.0
1426,50.0,0,89,3.0,87.0
1427,68.0,30,32,8.0,84.0
1428,80.0,0,32,7.0,83.0
1429,77.0,30,29,7.0,89.0
1430,38.0,0,119,13.0,87.0
1431,58.0,0,59,10.0,76.0
1432,50.0,0,119,13.0,87.0
1433,89.0,0,59,0.0,84.0
1434,65.0,0,119,4.0,79.0
1435,58.0,0,119,4.0,79.0
1436,77.0,0,119,0.0,72.0
1437,65.0,0,32,8.0,90.0
1438,67.0,0,32,8.0,96.0
1439,79.0,0,32,7.0,96.0
1440,67.0,0,59,2.0,99.0
1441,82.0,0,62,0.0,96.0
1442,63.0,0,62,2.0,99.0
1443,77.0,0,32,7.0,90.0
1444,65.0,30,32,8.0,93.0
1445,63.0,0,32,8.0,90.0
1446,75.0,0,32,7.0,84.0
1447,51.0,0,119,13.0,112.0
1448,39.0,0,119,13.0,112.0
1449,87.0,0,59,0.0,90.0
1450,75.0,0,119,0.0,96.0
1451,55.0,30,59,10.0,96.0
1452,73.0,0,29,7.0,78.0
1453,61.0,30,32,8.0,87.0
1454,72.0,0,32,7.0,72.0
1455,60.0,30,32,8.0,84.0
1456,63.0,0,179,3.0,112.0
1457,51.0,0,179,3.0,112.0
1458,63.0,0,179,4.0,95.0
1459,79.0,0,179,1.0,96.0
1460,82.0,0,179,1.0,96.0
1461,67.0,0,59,10.0,90.0
1462,70.0,0,119,2.0,112.0
1463,55.0,30,179,4.0,95.0
1464,58.0,0,179,4.0,95.0
1465,67.0,0,122,2.0,112.0
1466,61.0,30,32,8.0,81.0
1467,73.0,0,32,7.0,66.0
1468,64.0,0,29,3.0,89.0
1469,52.0,0,29,3.0,89.0
1470,58.0,0,29,4.0,79.0
1471,65.0,0,29,4.0,79.0
1472,58.0,0,32,8.0,78.0
1473,70.0,0,32,7.0,60.0
1474,52.0,0,59,13.0,98.0
1475,40.0,0,59,13.0,98.0
1476,79.0,0,59,1.0,79.0
1477,72.0,0,29,7.0,54.0
1478,60.0,0,59,10.0,83.0
1479,60.0,30,32,8.0,75.0
1480,70.0,30,62,2.0,94.0
1481,65.0,0,29,3.0,81.0
1482,53.0,0,29,3.0,81.0
1483,68.0,30,29,4.0,73.0
1484,58.0,0,29,4.0,73.0
1485,56.0,0,32,8.0,72.0
1486,80.0,0,32,1.0,73.0
1487,68.0,0,32,7.0,48.0
1488,41.0,0,59,13.0,93.0
1489,60.0,0,59,10.0,76.0
1490,72.0,0,119,1.0,79.0
1491,72.0,0,119,2.0,94.0
1492,79.0,30,29,1.0,70.0
1493,53.0,0,59,13.0,93.0
1494,72.0,0,32,7.0,48.0
1495,60.0,0,32,8.0,69.0
1496,65.0,0,29,4.0,67.0
1497,62.0,0,29,3.0,73.0
1498,58.0,0,29,4.0,67.0
1499,50.0,0,29,3.0,73.0
1500,70.0,0,32,7.0,48.0
1501,58.0,0,32,8.0,66.0
1502,65.0,0,59,10.0,69.0
1503,38.0,0,59,13.0,88.0
1504,50.0,0,59,13.0,88.0
1505,77.0,30,59,1.0,67.0
1506,56.0,0,32,8.0,63.0
1507,68.0,30,32,7.0,48.0
1508,68.0,0,122,2.0,85.0
1509,51.0,0,29,3.0,65.0
1510,63.0,0,29,3.0,65.0
1511,63.0,0,29,4.0,61.0
1512,67.0,0,29,4.0,61.0
1513,55.0,0,32,8.0,60.0
1514,80.0,0,32,1.0,61.0
1515,67.0,0,32,7.0,48.0
1516,39.0,0,59,13.0,84.0
1517,51.0,0,59,13.0,84.0
1518,70.0,0,59,1.0,61.0
1519,79.0,30,29,1.0,58.0
1520,58.0,30,59,10.0,62.0
1521,70.0,0,119,2.0,76.0
1522,70.0,0,32,7.0,48.0
1523,67.0,0,62,2.0,67.0
1524,58.0,0,32,8.0,57.0
1525,63.0,0,29,4.0,55.0
1526,51.0,0,29,4.0,55.0
1527,45.0,0,29,3.0,57.0
1528,57.0,0,29,3.0,57.0
1529,60.0,0,32,8.0,54.0
1530,72.0,0,32,7.0,48.0
1531,45.0,0,59,13.0,79.0
1532,33.0,0,59,13.0,79.0
1533,75.0,0,59,1.0,55.0
1534,63.0,0,59,10.0,56.0
1535,74.0,0,29,7.0,48.0
1536,66.0,30,62,2.0,58.0
1537,62.0,30,32,8.0,51.0
1538,72.0,0,62,2.0,58.0
1539,75.0,0,32,7.0,48.0
1540,63.0,0,32,8.0,48.0
1541,46.0,0,59,13.0,74.0
1542,34.0,0,59,13.0,74.0
1543,55.0,0,62,10.0,49.0
1544,67.0,30,32,8.0,48.0
1545,67.0,30,62,2.0,49.0
1546,70.0,0,62,2.0,49.0
1547,79.0,0,32,7.0,48.0
1548,65.0,0,32,8.0,48.0
1549,77.0,0,32,7.0,48.0
1550,58.0,0,59,13.0,69.0
1551,46.0,0,59,13.0,69.0
1552,58.0,0,119,3.0,49.0
1553,46.0,0,119,3.0,49.0
1554,51.0,0,122,4.0,49.0
1555,79.0,0,122,1.0,49.0
1556,75.0,0,122,1.0,49.0
1557,63.0,30,32,8.0,48.0
1558,84.0,30,62,0.0,49.0
1559,63.0,0,122,4.0,49.0
1560,69.0,0,62,2.0,48.0
1561,67.0,0,122,4.0,49.0
1562,75.0,0,32,7.0,48.0
1563,57.0,0,62,10.0,48.0
1564,74.0,0,32,7.0,48.0
1565,62.0,0,32,8.0,48.0
1566,77.0,0,59,1.0,47.0
1567,77.0,30,59,0.0,49.0
1568,46.0,0,59,4.0,48.0
1569,58.0,0,59,10.0,48.0
1570,58.0,0,59,4.0,48.0
1571,46.0,0,59,13.0,48.0
1572,34.0,0,59,13.0,48.0
1573,74.0,0,59,1.0,47.0
1574,65.0,0,59,4.0,48.0
1575,70.0,0,59,2.0,48.0
1576,58.0,0,32,8.0,48.0
1577,77.0,30,32,7.0,48.0
1578,82.0,0,32,7.0,48.0
1579,60.0,0,32,8.0,48.0
1580,62.0,30,29,8.0,48.0
1581,80.0,0,29,7.0,48.0
1582,58.0,30,59,10.0,63.0
1583,27.0,0,29,12.0,127.0
1584,63.0,0,29,8.0,96.0
1585,39.0,0,29,11.0,96.0
1586,67.0,0,29,8.0,96.0
1587,41.0,30,29,11.0,96.0
1588,58.0,0,29,8.0,96.0
1589,29.0,0,29,12.0,127.0
1590,70.0,0,29,2.0,96.0
1591,58.0,0,29,4.0,96.0
1592,46.0,0,29,4.0,96.0
1593,67.0,0,29,2.0,96.0
1594,67.0,0,29,4.0,96.0
1595,58.0,0,29,3.0,96.0
1596,55.0,0,29,3.0,96.0
1597,87.0,0,29,0.0,96.0
1598,82.0,0,29,0.0,96.0
1599,43.0,0,29,11.0,96.0
1600,31.0,0,29,12.0,127.0
1601,79.0,0,29,1.0,95.0
1602,75.0,0,29,1.0,95.0
1603,67.0,30,29,8.0,96.0
1604,58.0,0,29,8.0,96.0
1605,51.0,0,119,6.0,96.0
1606,67.0,0,29,8.0,96.0
1607,58.0,0,29,8.0,96.0
1608,32.0,0,29,12.0,127.0
1609,44.0,30,29,11.0,96.0
1610,67.0,0,29,8.0,96.0
1611,58.0,0,29,4.0,96.0
1612,46.0,0,29,4.0,96.0
1613,67.0,0,29,4.0,96.0
1614,55.0,0,29,3.0,96.0
1615,34.0,0,29,12.0,127.0
1616,79.0,30,29,1.0,95.0
1617,58.0,0,29,3.0,96.0
1618,70.0,0,29,2.0,96.0
1619,46.0,0,29,11.0,96.0
1620,58.0,0,29,8.0,96.0
1621,87.0,0,29,0.0,96.0
1622,82.0,0,29,0.0,96.0
1623,75.0,0,29,1.0,95.0
1624,67.0,0,29,2.0,96.0
1625,36.0,0,29,12.0,127.0
1626,58.0,0,29,8.0,96.0
1627,67.0,30,29,8.0,96.0
1628,48.0,0,29,11.0,96.0
1629,79.0,0,182,7.0,96.0
1630,67.0,30,182,10.0,96.0
1631,46.0,0,29,4.0,96.0
1632,50.0,0,29,11.0,96.0
1633,87.0,30,29,0.0,96.0
1634,82.0,0,29,0.0,96.0
1635,58.0,0,29,8.0,96.0
1636,67.0,0,29,4.0,96.0
1637,67.0,0,29,8.0,96.0
1638,58.0,0,29,3.0,96.0
1639,75.0,0,29,1.0,95.0
1640,79.0,0,29,1.0,95.0
1641,38.0,0,29,12.0,127.0
1642,67.0,0,29,2.0,96.0
1643,70.0,0,29,2.0,96.0
1644,58.0,0,29,4.0,96.0
1645,55.0,0,29,3.0,96.0
1646,51.0,0,29,11.0,96.0
1647,63.0,0,239,5.0,127.0
1648,63.0,0,59,10.0,96.0
1649,75.0,0,59,7.0,96.0
1650,39.0,0,29,12.0,127.0
1651,58.0,30,29,8.0,96.0
1652,67.0,0,29,8.0,96.0
1653,41.0,0,29,12.0,127.0
1654,53.0,0,29,11.0,96.0
1655,58.0,0,29,8.0,96.0
1656,68.0,0,29,8.0,96.0
1657,68.0,0,29,8.0,96.0
1658,55.0,0,29,11.0,96.0
1659,43.0,30,29,12.0,127.0
1660,58.0,0,29,8.0,96.0
1661,68.0,0,29,4.0,96.0
1662,58.0,0,29,3.0,96.0
1663,56.0,0,29,3.0,96.0
1664,70.0,0,29,2.0,96.0
1665,44.0,30,29,12.0,127.0
1666,80.0,0,29,1.0,95.0
1667,86.0,0,29,0.0,96.0
1668,82.0,0,29,0.0,96.0
1669,58.0,0,29,8.0,96.0
1670,68.0,0,29,2.0,96.0
1671,46.0,0,29,4.0,96.0
1672,56.0,0,29,11.0,96.0
1673,58.0,0,29,4.0,96.0
1674,68.0,0,29,8.0,96.0
1675,74.0,0,29,1.0,95.0
1676,58.0,0,29,8.0,96.0
1677,46.0,0,119,6.0,96.0
1678,68.0,30,29,8.0,96.0
1679,55.0,0,29,11.0,96.0
1680,43.0,0,29,12.0,127.0
1681,41.0,0,29,12.0,127.0
1682,80.0,0,29,1.0,95.0
1683,74.0,0,29,1.0,95.0
1684,58.0,0,29,8.0,96.0
1685,56.0,0,29,3.0,96.0
1686,46.0,0,29,4.0,96.0
1687,68.0,30,29,4.0,96.0
1688,86.0,0,29,0.0,96.0
1689,82.0,0,29,0.0,96.0
1690,68.0,0,29,8.0,96.0
1691,53.0,0,29,11.0,96.0
1692,70.0,0,29,2.0,96.0
1693,68.0,0,29,2.0,96.0
1694,58.0,0,29,3.0,96.0
1695,58.0,0,29,4.0,96.0
1696,39.0,0,29,12.0,127.0
1697,58.0,30,29,8.0,96.0
1698,68.0,0,29,8.0,96.0
1699,51.0,0,29,11.0,96.0
1700,62.0,30,182,10.0,96.0
1701,74.0,0,182,7.0,96.0
1702,74.0,0,29,1.0,95.0
1703,80.0,0,29,1.0,95.0
1704,68.0,0,29,8.0,96.0
1705,70.0,0,29,2.0,96.0
1706,46.0,0,29,4.0,96.0
1707,50.0,0,29,11.0,96.0
1708,68.0,0,29,4.0,96.0
1709,82.0,0,29,0.0,96.0
1710,68.0,0,29,2.0,96.0
1711,86.0,0,29,0.0,96.0
1712,58.0,0,29,4.0,96.0
1713,58.0,0,29,8.0,96.0
1714,56.0,0,29,3.0,96.0
1715,58.0,0,29,3.0,96.0
1716,38.0,30,29,12.0,127.0
1717,68.0,30,29,8.0,96.0
1718,58.0,0,29,8.0,96.0
1719,48.0,0,29,11.0,96.0
1720,65.0,0,59,10.0,96.0
1721,77.0,0,59,7.0,96.0
1722,36.0,0,29,12.0,127.0
1723,70.0,0,239,5.0,127.0
1724,34.0,0,29,12.0,127.0
1725,46.0,0,29,11.0,96.0
1726,62.0,30,29,8.0,96.0
1727,58.0,0,29,8.0,96.0
1728,48.0,0,29,11.0,96.0
1729,36.0,30,29,12.0,127.0
1730,62.0,0,29,8.0,96.0
1731,58.0,0,29,8.0,96.0
1732,58.0,0,29,4.0,96.0
1733,68.0,0,29,2.0,96.0
1734,46.0,0,29,4.0,96.0
1735,65.0,0,29,4.0,96.0
1736,70.0,0,29,2.0,96.0
1737,56.0,0,29,3.0,96.0
1738,58.0,0,29,3.0,96.0
1739,80.0,0,29,1.0,95.0
1740,58.0,0,29,8.0,96.0
1741,62.0,0,29,8.0,96.0
1742,82.0,30,29,0.0,96.0
1743,50.0,0,29,11.0,96.0
1744,77.0,0,29,1.0,95.0
1745,38.0,0,29,12.0,127.0
1746,89.0,0,29,0.0,96.0
1747,51.0,0,29,11.0,96.0
1748,46.0,0,119,6.0,96.0
1749,39.0,0,29,12.0,127.0
1750,58.0,0,29,8.0,96.0
1751,62.0,30,29,8.0,96.0
1752,46.0,0,29,4.0,96.0
1753,58.0,0,29,4.0,96.0
1754,65.0,0,29,4.0,96.0
1755,41.0,0,29,12.0,127.0
1756,53.0,0,29,11.0,96.0
1757,80.0,0,29,1.0,95.0
1758,77.0,0,29,1.0,95.0
1759,89.0,0,29,0.0,96.0
1760,68.0,0,29,2.0,96.0
1761,58.0,30,29,8.0,96.0
1762,62.0,0,29,8.0,96.0
1763,56.0,0,29,3.0,96.0
1764,82.0,0,29,0.0,96.0
1765,70.0,0,29,2.0,96.0
1766,58.0,0,29,3.0,96.0
1767,55.0,0,29,11.0,96.0
1768,43.0,0,29,12.0,127.0
1769,62.0,30,29,8.0,96.0
1770,58.0,0,29,8.0,96.0
1771,80.0,0,182,7.0,96.0
1772,68.0,0,182,10.0,96.0
1773,44.0,0,29,12.0,127.0
1774,89.0,0,29,0.0,96.0
1775,82.0,0,29,0.0,96.0
1776,68.0,0,29,2.0,96.0
1777,58.0,0,29,8.0,96.0
1778,56.0,0,29,11.0,96.0
1779,80.0,30,29,1.0,95.0
1780,77.0,0,29,1.0,95.0
1781,58.0,0,29,3.0,96.0
1782,70.0,0,29,2.0,96.0
1783,62.0,0,29,8.0,96.0
1784,56.0,0,29,3.0,96.0
1785,65.0,0,29,4.0,96.0
1786,46.0,0,29,4.0,96.0
1787,58.0,0,29,4.0,96.0
1788,58.0,0,239,5.0,127.0
1789,62.0,0,29,8.0,96.0
1790,41.0,0,29,12.0,127.0
1791,53.0,30,29,11.0,96.0
1792,58.0,0,29,8.0,96.0
1793,65.0,0,59,10.0,96.0
1794,77.0,0,59,7.0,96.0
1795,55.0,30,29,11.0,96.0
1796,58.0,0,29,8.0,96.0
1797,63.0,0,29,8.0,96.0
1798,43.0,0,29,12.0,127.0
1799,56.0,0,29,11.0,96.0
1800,44.0,30,29,12.0,127.0
1801,63.0,0,29,8.0,96.0
1802,58.0,0,29,8.0,96.0
1803,58.0,0,29,4.0,96.0
1804,67.0,0,29,2.0,96.0
1805,63.0,0,29,4.0,96.0
1806,58.0,0,29,11.0,96.0
1807,70.0,0,29,2.0,96.0
1808,63.0,0,29,8.0,96.0
1809,82.0,0,29,0.0,96.0
1810,87.0,0,29,0.0,96.0
1811,79.0,30,29,1.0,95.0
1812,75.0,0,29,1.0,95.0
1813,58.0,0,29,8.0,96.0
1814,58.0,0,29,3.0,96.0
1815,55.0,0,29,3.0,96.0
1816,46.0,0,29,4.0,96.0
1817,46.0,0,29,12.0,127.0
1818,63.0,30,29,8.0,96.0
1819,58.0,0,29,8.0,96.0
1820,51.0,0,119,6.0,96.0
1821,48.0,0,29,12.0,127.0
1822,60.0,0,29,11.0,96.0
1823,58.0,0,29,11.0,96.0
1824,82.0,0,29,0.0,96.0
1825,58.0,0,29,4.0,96.0
1826,46.0,0,29,4.0,96.0
1827,63.0,0,29,4.0,96.0
1828,58.0,0,29,3.0,96.0
1829,55.0,0,29,3.0,96.0
1830,75.0,0,29,1.0,95.0
1831,79.0,0,29,1.0,95.0
1832,58.0,0,29,8.0,96.0
1833,63.0,0,29,8.0,96.0
1834,70.0,0,29,2.0,96.0
1835,46.0,0,29,12.0,127.0
1836,87.0,0,29,0.0,96.0
1837,67.0,30,29,2.0,96.0
1838,56.0,0,29,11.0,96.0
1839,58.0,0,29,8.0,96.0
1840,44.0,0,29,12.0,127.0
1841,63.0,30,29,8.0,96.0
1842,75.0,0,182,7.0,96.0
1843,63.0,0,182,10.0,96.0
1844,79.0,0,29,1.0,95.0
1845,63.0,0,29,4.0,96.0
1846,46.0,0,29,4.0,96.0
1847,58.0,0,29,4.0,96.0
1848,43.0,0,29,12.0,127.0
1849,63.0,0,29,8.0,96.0
1850,55.0,30,29,11.0,96.0
1851,87.0,0,29,0.0,96.0
1852,67.0,0,29,2.0,96.0
1853,70.0,0,29,2.0,96.0
1854,58.0,0,29,3.0,96.0
1855,55.0,0,29,3.0,96.0
1856,58.0,0,29,8.0,96.0
1857,75.0,0,29,1.0,95.0
1858,82.0,0,29,0.0,96.0
1859,67.0,0,59,10.0,96.0
1860,41.0,0,29,12.0,127.0
1861,79.0,0,59,7.0,96.0
1862,58.0,30,29,8.0,96.0
1863,63.0,0,29,8.0,96.0
1864,53.0,0,29,11.0,96.0
1865,63.0,0,239,5.0,127.0
1866,58.0,0,29,8.0,96.0
1867,67.0,0,29,8.0,96.0
1868,51.0,0,29,11.0,96.0
1869,39.0,0,29,12.0,127.0
1870,55.0,0,59,3.0,96.0
1871,58.0,0,59,3.0,96.0
1872,67.0,0,29,8.0,96.0
1873,58.0,0,29,8.0,96.0
1874,70.0,0,59,10.0,96.0
1875,79.0,0,59,1.0,95.0
1876,55.0,30,29,11.0,96.0
1877,82.0,0,59,7.0,96.0
1878,43.0,0,29,12.0,127.0
1879,75.0,0,59,1.0,95.0
1880,55.0,0,59,4.0,96.0
1881,67.0,0,59,4.0,96.0
1882,63.0,30,59,4.0,96.0
1883,67.0,0,59,2.0,96.0
1884,82.0,0,59,0.0,96.0
1885,87.0,0,59,0.0,96.0
1886,70.0,0,59,2.0,96.0
1887,67.0,0,29,8.0,96.0
1888,53.0,0,29,11.0,96.0
1889,58.0,0,29,8.0,96.0
1890,41.0,0,29,12.0,127.0
1891,63.0,0,59,4.0,96.0
1892,79.0,0,59,1.0,95.0
1893,55.0,30,59,4.0,96.0
1894,67.0,0,59,4.0,96.0
1895,39.0,30,29,12.0,127.0
1896,70.0,0,59,2.0,96.0
1897,67.0,0,29,8.0,96.0
1898,82.0,0,59,0.0,96.0
1899,87.0,0,59,0.0,96.0
1900,51.0,0,119,6.0,96.0
1901,51.0,0,29,11.0,96.0
1902,75.0,0,119,5.0,96.0
1903,58.0,0,29,8.0,96.0
1904,63.0,0,119,5.0,96.0
1905,55.0,0,59,3.0,96.0
1906,58.0,0,59,3.0,96.0
1907,67.0,0,59,2.0,96.0
1908,75.0,0,59,1.0,95.0
1909,50.0,0,29,11.0,96.0
1910,38.0,0,29,12.0,127.0
1911,68.0,0,29,8.0,96.0
1912,58.0,0,29,8.0,96.0
1913,82.0,0,59,0.0,96.0
1914,58.0,0,29,8.0,96.0
1915,70.0,0,59,10.0,96.0
1916,56.0,0,59,3.0,96.0
1917,58.0,0,59,3.0,96.0
1918,80.0,0,59,1.0,95.0
1919,89.0,0,59,0.0,96.0
1920,68.0,30,29,8.0,96.0
1921,70.0,0,59,2.0,96.0
1922,68.0,0,59,2.0,96.0
1923,77.0,0,59,1.0,95.0
1924,65.0,0,59,4.0,96.0
1925,46.0,0,29,11.0,96.0
1926,58.0,0,59,4.0,96.0
1927,82.0,0,59,7.0,96.0
1928,34.0,0,29,12.0,127.0
1929,58.0,0,29,8.0,96.0
1930,68.0,0,29,8.0,96.0
1931,36.0,0,29,12.0,127.0
1932,48.0,0,29,11.0,96.0
1933,38.0,0,29,12.0,127.0
1934,68.0,0,59,2.0,96.0
1935,70.0,30,59,2.0,96.0
1936,68.0,30,29,8.0,96.0
1937,56.0,0,59,3.0,96.0
1938,50.0,0,29,11.0,96.0
1939,89.0,0,59,0.0,96.0
1940,82.0,0,59,0.0,96.0
1941,58.0,0,59,3.0,96.0
1942,65.0,0,59,4.0,96.0
1943,77.0,0,59,1.0,95.0
1944,80.0,0,59,1.0,95.0
1945,46.0,0,119,6.0,96.0
1946,58.0,0,59,4.0,96.0
1947,58.0,0,119,5.0,96.0
1948,58.0,0,29,8.0,96.0
1949,70.0,30,119,5.0,96.0
1950,51.0,0,29,11.0,112.0
1951,39.0,0,29,12.0,127.0
1952,67.0,0,29,8.0,112.0
1953,63.0,0,59,4.0,112.0
1954,50.0,0,29,11.0,96.0
1955,55.0,0,59,4.0,112.0
1956,63.0,30,59,5.0,112.0
1957,87.0,0,59,0.0,112.0
1958,38.0,30,29,12.0,127.0
1959,67.0,0,59,2.0,112.0
1960,66.0,0,29,8.0,96.0
1961,79.0,0,59,1.0,112.0
1962,75.0,0,59,1.0,112.0
1963,75.0,0,59,5.0,112.0
1964,51.0,0,59,6.0,112.0
1965,82.0,0,59,0.0,112.0
1966,70.0,0,59,2.0,112.0
1967,67.0,0,59,4.0,112.0
1968,55.0,0,59,3.0,112.0
1969,58.0,0,59,3.0,112.0
1970,39.0,0,29,12.0,127.0
1971,51.0,0,29,11.0,96.0
1972,67.0,0,29,8.0,96.0
1973,70.0,0,59,2.0,96.0
1974,67.0,0,59,2.0,96.0
1975,87.0,0,59,0.0,96.0
1976,82.0,30,59,0.0,96.0
1977,79.0,0,59,1.0,95.0
1978,75.0,0,59,1.0,95.0
1979,37.0,0,29,12.0,127.0
1980,49.0,0,29,11.0,96.0
1981,65.0,30,29,8.0,96.0
1982,58.0,0,59,3.0,96.0
1983,55.0,0,59,3.0,96.0
1984,64.0,0,29,8.0,96.0
1985,36.0,0,29,12.0,127.0
1986,48.0,0,29,11.0,96.0
1987,70.0,0,59,2.0,96.0
1988,82.0,0,59,0.0,96.0
1989,38.0,0,29,12.0,127.0
1990,88.0,0,59,0.0,96.0
1991,50.0,0,29,11.0,96.0
1992,70.0,0,179,10.0,112.0
1993,79.0,30,59,1.0,95.0
1994,58.0,0,59,3.0,96.0
1995,55.0,0,59,3.0,96.0
1996,76.0,0,59,1.0,95.0
1997,65.0,30,29,8.0,96.0
1998,67.0,0,59,2.0,96.0
1999,82.0,0,182,7.0,112.0
2000,67.0,0,29,8.0,96.0
2001,52.0,30,29,11.0,96.0
2002,40.0,0,29,12.0,127.0
2003,67.0,0,59,4.0,96.0
2004,67.0,0,59,2.0,96.0
2005,70.0,0,59,2.0,96.0
2006,50.0,30,29,11.0,96.0
2007,67.0,0,59,10.0,96.0
2008,79.0,0,59,1.0,95.0
2009,38.0,0,29,12.0,127.0
2010,82.0,0,59,0.0,96.0
2011,79.0,0,59,7.0,96.0
2012,58.0,0,59,3.0,96.0
2013,60.0,0,29,8.0,96.0
2014,60.0,0,59,3.0,96.0
2015,84.0,0,59,0.0,96.0
2016,72.0,0,59,1.0,95.0
2017,68.0,0,29,8.0,96.0
2018,41.0,0,29,12.0,127.0
2019,53.0,0,29,11.0,96.0
2020,70.0,30,32,10.0,96.0
2021,82.0,0,32,7.0,96.0
2022,80.0,0,59,0.0,96.0
2023,84.0,0,59,0.0,96.0
2024,60.0,0,59,3.0,96.0
2025,56.0,0,59,3.0,96.0
2026,68.0,0,59,2.0,96.0
2027,65.0,0,59,2.0,96.0
2028,77.0,0,59,1.0,95.0
2029,60.0,0,29,8.0,96.0
2030,72.0,0,59,1.0,95.0
2031,39.0,0,29,12.0,127.0
2032,51.0,0,29,11.0,96.0
2033,68.0,30,29,10.0,96.0
2034,65.0,0,59,4.0,96.0
2035,68.0,0,59,4.0,96.0
2036,80.0,0,32,7.0,96.0
2037,38.0,30,29,12.0,127.0
2038,50.0,0,29,11.0,96.0
2039,65.0,0,29,8.0,96.0
2040,67.0,0,29,10.0,96.0
2041,77.0,0,29,7.0,96.0
2042,58.0,0,59,4.0,96.0
2043,34.0,30,29,12.0,127.0
2044,70.0,0,59,5.0,96.0
2045,58.0,0,59,5.0,96.0
2046,56.0,0,59,3.0,96.0
2047,70.0,0,29,8.0,96.0
2048,58.0,0,59,3.0,96.0
2049,80.0,0,59,1.0,95.0
2050,65.0,0,59,4.0,96.0
2051,68.0,0,59,2.0,96.0
2052,70.0,0,59,2.0,96.0
2053,77.0,0,59,1.0,95.0
2054,46.0,0,59,4.0,96.0
2055,89.0,0,59,0.0,96.0
2056,46.0,0,59,6.0,96.0
2057,82.0,0,59,0.0,96.0
2058,46.0,0,29,11.0,96.0
2059,51.0,0,29,11.0,96.0
2060,39.0,0,29,12.0,127.0
2061,67.0,0,29,8.0,96.0
2062,68.0,0,32,10.0,96.0
2063,80.0,0,32,7.0,96.0
2064,51.0,0,59,4.0,96.0
2065,55.0,0,59,3.0,96.0
2066,67.0,0,29,10.0,96.0
2067,67.0,0,59,4.0,96.0
2068,79.0,0,59,1.0,95.0
2069,75.0,0,59,1.0,95.0
2070,51.0,0,59,6.0,96.0
2071,50.0,30,29,11.0,96.0
2072,63.0,0,59,5.0,96.0
2073,67.0,0,59,2.0,96.0
2074,75.0,0,59,5.0,96.0
2075,82.0,0,59,0.0,96.0
2076,58.0,0,59,3.0,96.0
2077,70.0,30,59,2.0,96.0
2078,38.0,0,29,12.0,127.0
2079,70.0,0,29,8.0,96.0
2080,63.0,0,59,4.0,96.0
2081,79.0,0,59,0.0,96.0
2082,79.0,0,32,7.0,96.0
2083,51.0,0,29,11.0,96.0
2084,39.0,30,29,12.0,127.0
2085,66.0,0,29,8.0,96.0
2086,65.0,0,29,10.0,96.0
2087,75.0,0,29,7.0,96.0
2088,51.0,0,59,6.0,96.0
2089,78.0,0,59,1.0,95.0
2090,45.0,30,29,11.0,96.0
2091,75.0,0,59,1.0,95.0
2092,70.0,0,59,2.0,96.0
2093,33.0,0,29,12.0,127.0
2094,75.0,0,59,5.0,96.0
2095,66.0,0,59,2.0,96.0
2096,72.0,0,29,8.0,96.0
2097,54.0,0,59,3.0,96.0
2098,84.0,0,59,0.0,96.0
2099,63.0,0,59,5.0,96.0
2100,87.0,0,59,0.0,96.0
2101,63.0,0,59,4.0,96.0
2102,51.0,0,59,4.0,96.0
2103,60.0,0,59,3.0,96.0
2104,75.0,0,29,8.0,96.0
2105,46.0,0,29,11.0,96.0
2106,34.0,0,29,12.0,127.0
2107,46.0,0,59,6.0,96.0
2108,82.0,0,59,0.0,96.0
2109,87.0,30,59,0.0,96.0
2110,70.0,30,29,8.0,96.0
2111,67.0,0,59,2.0,96.0
2112,70.0,0,59,2.0,96.0
2113,75.0,0,59,1.0,95.0
2114,39.0,0,29,12.0,127.0
2115,70.0,0,59,5.0,96.0
2116,79.0,0,59,1.0,95.0
2117,58.0,0,59,5.0,96.0
2118,55.0,0,59,3.0,96.0
2119,58.0,0,59,3.0,96.0
2120,51.0,0,29,11.0,96.0
2121,43.0,0,29,12.0,127.0
2122,55.0,0,29,11.0,96.0
2123,67.0,0,29,8.0,96.0
2124,63.0,30,29,8.0,96.0
2125,58.0,0,29,11.0,96.0
2126,87.0,0,59,0.0,96.0
2127,82.0,0,59,0.0,96.0
2128,75.0,0,59,1.0,95.0
2129,58.0,0,59,3.0,96.0
2130,79.0,30,59,1.0,95.0
2131,46.0,0,29,12.0,127.0
2132,67.0,0,59,2.0,96.0
2133,63.0,0,59,3.0,96.0
2134,70.0,0,59,2.0,96.0
2135,51.0,0,122,4.0,96.0
2136,79.0,0,122,7.0,96.0
2137,67.0,0,122,4.0,96.0
2138,67.0,0,122,10.0,96.0
2139,63.0,0,122,4.0,96.0
2140,62.0,0,59,3.0,96.0
2141,82.0,0,59,0.0,96.0
2142,86.0,0,59,0.0,96.0
2143,58.0,0,59,5.0,96.0
2144,62.0,0,59,8.0,96.0
2145,65.0,0,59,10.0,96.0
2146,74.0,0,59,1.0,95.0
2147,70.0,30,59,5.0,96.0
2148,46.0,0,59,6.0,96.0
2149,58.0,0,59,3.0,96.0
2150,77.0,0,59,1.0,95.0
2151,65.0,0,59,4.0,96.0
2152,46.0,0,59,11.0,96.0
2153,70.0,0,59,2.0,96.0
2154,65.0,0,59,2.0,96.0
2155,34.0,0,59,12.0,127.0
2156,46.0,0,59,4.0,96.0
2157,77.0,0,59,7.0,96.0
2158,58.0,0,59,4.0,96.0
2159,70.0,60,32,1.0,48.0
2160,69.0,30,32,1.0,48.0
2161,70.0,30,32,1.0,48.0
2162,72.0,30,32,1.0,48.0
2163,58.0,0,32,7.0,48.0
2164,74.0,30,32,1.0,48.0
2165,75.0,30,32,1.0,48.0
2166,60.0,0,32,7.0,48.0
2167,77.0,30,32,1.0,48.0
2168,62.0,0,32,7.0,48.0
2169,64.0,0,32,7.0,48.0
2170,79.0,30,32,1.0,48.0
2171,65.0,30,32,7.0,48.0
2172,80.0,0,32,1.0,48.0
2173,64.0,30,29,7.0,48.0
2174,79.0,0,29,1.0,48.0
2175,65.0,0,29,10.0,100.0
2176,62.0,0,29,10.0,96.0
2177,74.0,0,29,2.0,96.0
2178,77.0,0,29,2.0,100.0
2179,46.0,30,29,11.0,96.0
2180,46.0,0,29,3.0,96.0
2181,58.0,0,29,3.0,96.0
2182,58.0,0,29,4.0,100.0
2183,65.0,0,29,4.0,96.0
2184,34.0,0,29,12.0,127.0
2185,58.0,0,29,8.0,100.0
2186,68.0,0,29,8.0,96.0
2187,65.0,0,32,7.0,96.0
2188,80.0,0,32,1.0,95.0
2189,67.0,30,32,7.0,93.0
2190,34.0,30,29,12.0,127.0
2191,77.0,0,29,2.0,100.0
2192,46.0,0,29,11.0,96.0
2193,74.0,0,29,2.0,100.0
2194,68.0,0,29,8.0,100.0
2195,58.0,0,29,8.0,100.0
2196,58.0,0,29,4.0,100.0
2197,62.0,0,29,10.0,100.0
2198,58.0,0,29,3.0,96.0
2199,65.0,0,29,4.0,100.0
2200,46.0,0,29,3.0,96.0
2201,65.0,0,29,10.0,100.0
2202,68.0,0,32,7.0,90.0
2203,80.0,0,32,1.0,95.0
2204,67.0,30,32,7.0,87.0
2205,77.0,0,29,2.0,100.0
2206,74.0,0,29,2.0,100.0
2207,65.0,0,29,10.0,100.0
2208,62.0,0,29,10.0,100.0
2209,58.0,30,29,8.0,100.0
2210,68.0,0,29,8.0,100.0
2211,46.0,0,29,11.0,96.0
2212,58.0,0,29,4.0,100.0
2213,65.0,0,29,4.0,100.0
2214,46.0,0,29,3.0,96.0
2215,58.0,0,29,3.0,96.0
2216,34.0,0,29,12.0,127.0
2217,80.0,0,32,1.0,95.0
2218,65.0,0,32,7.0,84.0
2219,63.0,30,32,7.0,81.0
2220,70.0,0,32,1.0,96.0
2221,62.0,30,32,7.0,78.0
2222,60.0,0,32,7.0,75.0
2223,69.0,30,32,1.0,92.0
2224,70.0,30,32,1.0,87.0
2225,58.0,0,32,7.0,72.0
2226,57.0,30,32,7.0,69.0
2227,72.0,0,32,1.0,82.0
2228,58.0,0,32,7.0,66.0
2229,74.0,30,32,1.0,77.0
2230,75.0,0,32,1.0,72.0
2231,60.0,30,32,7.0,63.0
2232,62.0,0,32,7.0,60.0
2233,77.0,30,32,1.0,68.0
2234,79.0,30,32,1.0,63.0
2235,63.0,0,32,7.0,57.0
2236,80.0,30,32,1.0,58.0
2237,65.0,0,32,7.0,54.0
2238,79.0,30,32,1.0,53.0
2239,64.0,0,32,7.0,51.0
2240,68.0,0,179,2.0,49.0
2241,74.0,0,179,2.0,49.0
2242,68.0,0,179,8.0,48.0
2243,46.0,30,179,3.0,48.0
2244,46.0,0,179,11.0,48.0
2245,58.0,0,179,8.0,48.0
2246,65.0,0,179,7.0,48.0
2247,62.0,0,179,10.0,48.0
2248,65.0,0,179,4.0,48.0
2249,58.0,0,179,4.0,48.0
2250,58.0,0,179,3.0,48.0
2251,34.0,0,179,12.0,80.0
2252,80.0,0,182,1.0,48.0
2253,81.0,180,62,1.0,48.0
2254,55.0,0,59,13.0,48.0
2255,43.0,0,59,13.0,48.0
2256,70.0,30,32,7.0,48.0
2257,75.0,0,32,7.0,48.0
2258,55.0,0,59,10.0,48.0
2259,58.0,30,59,8.0,48.0
2260,63.0,0,59,8.0,48.0
2261,70.0,30,32,7.0,48.0
2262,68.0,0,32,7.0,48.0
2263,63.0,0,179,2.0,49.0
2264,58.0,0,59,8.0,48.0
2265,63.0,30,59,8.0,48.0
2266,55.0,0,59,10.0,48.0
2267,58.0,0,182,2.0,49.0
2268,82.0,60,182,1.0,48.0
2269,67.0,30,32,7.0,48.0
2270,65.0,0,32,7.0,48.0
2271,58.0,0,59,8.0,48.0
2272,79.0,30,59,1.0,48.0
2273,63.0,30,29,7.0,48.0
2274,63.0,0,59,2.0,49.0
2275,70.0,0,59,2.0,49.0
2276,55.0,0,239,3.0,48.0
2277,43.0,0,239,3.0,48.0
2278,55.0,0,59,10.0,48.0
2279,63.0,0,239,4.0,48.0
2280,63.0,0,59,8.0,48.0
2281,59.0,0,32,7.0,48.0
2282,44.0,0,59,13.0,48.0
2283,56.0,0,59,13.0,48.0
2284,60.0,30,32,7.0,48.0
2285,65.0,0,32,7.0,48.0
2286,56.0,30,59,8.0,48.0
2287,60.0,0,59,10.0,48.0
2288,63.0,0,59,10.0,48.0
2289,65.0,0,59,8.0,48.0
2290,68.0,30,32,7.0,48.0
2291,72.0,0,32,7.0,48.0
2292,63.0,0,179,2.0,49.0
2293,56.0,0,59,8.0,48.0
2294,63.0,30,59,10.0,48.0
2295,60.0,0,59,10.0,48.0
2296,65.0,0,59,8.0,48.0
2297,77.0,0,182,1.0,48.0
2298,72.0,30,182,2.0,49.0
2299,77.0,30,32,7.0,48.0
2300,80.0,0,32,7.0,48.0
2301,84.0,0,59,1.0,48.0
2302,56.0,0,239,3.0,48.0
2303,77.0,30,29,7.0,48.0
2304,44.0,0,239,3.0,48.0
2305,63.0,0,239,4.0,48.0
2306,65.0,0,59,8.0,48.0
2307,60.0,0,59,10.0,48.0
2308,63.0,0,59,10.0,48.0
2309,56.0,0,59,8.0,48.0
2310,63.0,0,59,2.0,49.0
2311,65.0,30,59,2.0,49.0
2312,65.0,0,239,4.0,48.0
2313,75.0,0,14,1.0,48.0
2314,77.0,15,14,1.0,48.0
2315,79.0,0,32,7.0,48.0
2316,75.0,0,14,1.0,48.0
2317,67.0,30,59,4.0,48.0
2318,58.0,0,59,13.0,48.0
2319,63.0,0,59,4.0,48.0
2320,77.0,15,14,1.0,48.0
2321,46.0,0,59,13.0,48.0
2322,75.0,15,32,7.0,48.0
2323,75.0,0,14,1.0,48.0
2324,77.0,15,14,1.0,48.0
2325,70.0,15,32,7.0,48.0
2326,75.0,15,14,1.0,48.0
2327,77.0,15,14,1.0,48.0
2328,67.0,0,119,2.0,49.0
2329,58.0,0,119,3.0,48.0
2330,63.0,0,119,2.0,49.0
2331,63.0,0,59,10.0,48.0
2332,63.0,0,59,4.0,48.0
2333,55.0,0,59,4.0,48.0
2334,46.0,0,119,3.0,48.0
2335,58.0,0,59,8.0,48.0
2336,67.0,0,59,8.0,48.0
2337,67.0,0,32,7.0,48.0
2338,68.0,0,32,7.0,48.0
2339,65.0,0,59,4.0,48.0
2340,58.0,0,59,4.0,48.0
2341,46.0,15,59,13.0,48.0
2342,34.0,0,59,13.0,48.0
2343,74.0,30,32,7.0,48.0
2344,70.0,0,122,1.0,48.0
2345,65.0,0,32,10.0,48.0
2346,70.0,0,32,7.0,48.0
2347,79.0,0,92,1.0,48.0
2348,58.0,0,119,3.0,48.0
2349,46.0,0,119,3.0,48.0
2350,68.0,0,59,8.0,48.0
2351,65.0,30,59,4.0,48.0
2352,58.0,0,59,4.0,48.0
2353,62.0,0,29,10.0,48.0
2354,58.0,0,59,8.0,48.0
2355,62.0,0,119,2.0,49.0
2356,68.0,0,119,2.0,49.0
2357,68.0,0,29,7.0,48.0
2358,74.0,0,62,1.0,48.0
2359,77.0,30,32,1.0,48.0
2360,51.0,0,14,11.0,96.0
2361,39.0,0,14,12.0,127.0
2362,63.0,0,14,10.0,96.0
2363,46.0,0,14,12.0,127.0
2364,58.0,0,14,11.0,96.0
2365,70.0,30,14,10.0,96.0
2366,63.0,0,59,4.0,48.0
2367,55.0,0,59,4.0,48.0
2368,75.0,0,59,1.0,48.0
2369,51.0,0,59,3.0,48.0
2370,63.0,0,59,2.0,49.0
2371,39.0,0,59,3.0,48.0
2372,67.0,0,59,2.0,49.0
2373,44.0,0,14,12.0,127.0
2374,56.0,30,14,11.0,96.0
2375,68.0,0,14,10.0,96.0
2376,67.0,30,14,10.0,96.0
2377,55.0,0,14,11.0,96.0
2378,43.0,0,14,12.0,127.0
2379,67.0,0,119,8.0,48.0
2380,67.0,0,119,7.0,48.0
2381,58.0,30,119,8.0,48.0
2382,41.0,30,14,12.0,127.0
2383,65.0,0,14,10.0,96.0
2384,53.0,0,14,11.0,96.0
2385,63.0,0,14,10.0,96.0
2386,39.0,30,14,12.0,127.0
2387,51.0,0,14,11.0,96.0
2388,50.0,0,14,11.0,96.0
2389,38.0,0,14,12.0,127.0
2390,62.0,30,14,10.0,96.0
2391,70.0,0,32,7.0,96.0
2392,58.0,0,32,8.0,96.0
2393,48.0,30,14,11.0,96.0
2394,60.0,0,14,10.0,96.0
2395,36.0,0,14,12.0,127.0
2396,69.0,0,32,7.0,96.0
2397,57.0,0,32,8.0,96.0
2398,58.0,30,14,10.0,96.0
2399,46.0,0,29,3.0,96.0
2400,34.0,0,29,12.0,127.0
2401,46.0,0,29,11.0,96.0
2402,70.0,0,32,7.0,96.0
2403,58.0,0,32,8.0,96.0
2404,57.0,0,14,10.0,96.0
2405,45.0,0,29,3.0,96.0
2406,33.0,0,29,12.0,127.0
2407,58.0,0,59,5.0,96.0
2408,70.0,0,59,5.0,96.0
2409,46.0,0,59,6.0,96.0
2410,45.0,30,29,11.0,96.0
2411,72.0,0,32,7.0,96.0
2412,60.0,0,32,8.0,96.0
2413,58.0,0,14,10.0,96.0
2414,82.0,0,29,0.0,100.0
2415,82.0,0,29,2.0,96.0
2416,46.0,0,29,3.0,96.0
2417,34.0,0,29,12.0,127.0
2418,46.0,0,29,11.0,96.0
2419,58.0,0,29,4.0,96.0
2420,46.0,0,29,4.0,96.0
2421,70.0,0,29,4.0,96.0
2422,70.0,30,29,2.0,96.0
2423,70.0,0,29,1.0,96.0
2424,82.0,0,29,1.0,96.0
2425,62.0,0,32,8.0,96.0
2426,74.0,0,32,7.0,96.0
2427,60.0,0,14,10.0,96.0
2428,48.0,0,29,11.0,96.0
2429,48.0,0,29,3.0,96.0
2430,36.0,30,29,12.0,127.0
2431,75.0,0,32,7.0,96.0
2432,63.0,0,32,8.0,96.0
2433,62.0,0,14,10.0,96.0
2434,82.0,0,29,0.0,100.0
2435,50.0,0,29,11.0,96.0
2436,82.0,0,29,2.0,96.0
2437,38.0,30,29,12.0,127.0
2438,82.0,0,29,1.0,96.0
2439,70.0,0,29,2.0,96.0
2440,70.0,0,29,1.0,96.0
2441,46.0,0,29,4.0,96.0
2442,58.0,0,29,4.0,96.0
2443,50.0,0,29,3.0,96.0
2444,70.0,0,29,4.0,96.0
2445,77.0,0,32,7.0,96.0
2446,65.0,0,32,8.0,96.0
2447,63.0,30,14,10.0,96.0
2448,51.0,0,29,11.0,96.0
2449,39.0,0,29,12.0,127.0
2450,51.0,0,29,3.0,96.0
2451,67.0,0,32,8.0,96.0
2452,79.0,0,32,7.0,96.0
2453,65.0,30,14,10.0,96.0
2454,82.0,0,29,2.0,96.0
2455,58.0,0,29,4.0,96.0
2456,70.0,0,29,1.0,96.0
2457,70.0,0,29,2.0,96.0
2458,46.0,0,29,4.0,96.0
2459,82.0,0,29,1.0,96.0
2460,41.0,0,29,12.0,127.0
2461,82.0,0,29,0.0,100.0
2462,53.0,0,29,3.0,96.0
2463,53.0,0,29,11.0,96.0
2464,70.0,0,29,4.0,96.0
2465,68.0,0,32,8.0,96.0
2466,80.0,0,32,7.0,96.0
2467,64.0,0,14,10.0,96.0
2468,67.0,0,29,8.0,96.0
2469,52.0,0,29,3.0,96.0
2470,79.0,0,29,7.0,96.0
2471,52.0,30,29,11.0,96.0
2472,40.0,0,29,12.0,127.0
2473,68.0,30,14,8.0,96.0
2474,65.0,0,14,10.0,96.0
2475,82.0,0,29,1.0,96.0
2476,41.0,0,29,12.0,127.0
2477,70.0,0,29,1.0,96.0
2478,53.0,0,29,11.0,96.0
2479,46.0,0,29,6.0,96.0
2480,82.0,0,29,0.0,100.0
2481,53.0,0,29,3.0,96.0
2482,70.0,0,29,2.0,96.0
2483,70.0,0,29,5.0,96.0
2484,58.0,0,29,5.0,96.0
2485,70.0,0,29,4.0,96.0
2486,80.0,0,29,7.0,96.0
2487,46.0,0,29,4.0,96.0
2488,82.0,0,29,2.0,96.0
2489,58.0,0,29,4.0,96.0
2490,70.0,0,14,8.0,96.0
2491,67.0,0,14,10.0,96.0
2492,43.0,0,29,12.0,127.0
2493,55.0,0,29,11.0,96.0
2494,55.0,30,29,3.0,96.0
2495,68.0,0,14,10.0,96.0
2496,72.0,0,14,8.0,96.0
2497,70.0,0,29,2.0,96.0
2498,82.0,0,29,2.0,96.0
2499,82.0,0,29,1.0,96.0
2500,80.0,0,29,7.0,96.0
2501,46.0,0,29,6.0,96.0
2502,82.0,0,29,0.0,100.0
2503,70.0,0,29,4.0,96.0
2504,58.0,30,29,5.0,96.0
2505,70.0,0,29,5.0,96.0
2506,56.0,0,29,3.0,96.0
2507,46.0,0,29,4.0,96.0
2508,70.0,0,29,1.0,96.0
2509,44.0,0,29,12.0,127.0
2510,58.0,0,29,4.0,96.0
2511,56.0,0,29,11.0,96.0
2512,67.0,0,14,10.0,96.0
2513,70.0,30,14,8.0,96.0
2514,55.0,0,29,11.0,96.0
2515,55.0,0,29,3.0,96.0
2516,43.0,0,29,12.0,127.0
2517,68.0,0,14,8.0,96.0
2518,65.0,0,14,10.0,96.0
2519,70.0,0,29,5.0,96.0
2520,41.0,0,29,12.0,127.0
2521,70.0,0,29,4.0,96.0
2522,82.0,30,29,0.0,100.0
2523,82.0,0,29,2.0,96.0
2524,70.0,0,29,2.0,96.0
2525,46.0,0,29,4.0,96.0
2526,82.0,0,29,1.0,96.0
2527,46.0,0,29,6.0,96.0
2528,80.0,0,29,7.0,96.0
2529,70.0,0,29,1.0,96.0
2530,53.0,0,29,3.0,96.0
2531,53.0,0,29,11.0,96.0
2532,58.0,0,29,4.0,96.0
2533,58.0,0,29,5.0,96.0
2534,63.0,0,14,10.0,96.0
2535,67.0,0,14,8.0,96.0
2536,51.0,0,29,11.0,96.0
2537,39.0,0,29,12.0,127.0
2538,51.0,30,29,3.0,96.0
2539,62.0,0,14,10.0,96.0
2540,65.0,0,14,8.0,96.0
2541,50.0,0,29,3.0,96.0
2542,50.0,0,29,11.0,96.0
2543,38.0,30,29,12.0,127.0
2544,70.0,0,32,7.0,96.0
2545,60.0,0,14,10.0,96.0
2546,63.0,0,14,8.0,96.0
2547,48.0,0,29,11.0,96.0
2548,36.0,0,29,12.0,127.0
2549,48.0,0,29,3.0,96.0
2550,69.0,30,32,7.0,96.0
2551,58.0,0,14,10.0,96.0
2552,70.0,0,32,7.0,96.0
2553,58.0,0,32,8.0,96.0
2554,57.0,30,14,10.0,96.0
2555,58.0,0,59,5.0,96.0
2556,34.0,30,59,12.0,127.0
2557,70.0,0,59,5.0,96.0
2558,46.0,0,59,3.0,96.0
2559,46.0,0,59,11.0,96.0
2560,46.0,0,59,6.0,96.0
2561,60.0,0,32,8.0,96.0
2562,72.0,0,32,7.0,96.0
2563,58.0,0,14,10.0,96.0
2564,44.0,0,29,12.0,127.0
2565,46.0,0,29,4.0,96.0
2566,56.0,0,29,11.0,96.0
2567,70.0,0,29,4.0,96.0
2568,58.0,0,29,4.0,96.0
2569,62.0,30,32,8.0,96.0
2570,56.0,0,32,3.0,96.0
2571,60.0,0,32,3.0,96.0
2572,70.0,0,32,2.0,96.0
2573,74.0,0,32,0.0,100.0
2574,74.0,0,32,7.0,96.0
2575,74.0,0,32,2.0,96.0
2576,60.0,0,14,10.0,96.0
2577,43.0,0,29,12.0,127.0
2578,70.0,0,59,1.0,96.0
2579,82.0,0,59,1.0,96.0
2580,82.0,0,59,0.0,100.0
2581,55.0,0,29,11.0,96.0
2582,63.0,0,32,8.0,96.0
2583,75.0,0,32,2.0,96.0
2584,72.0,0,32,2.0,96.0
2585,55.0,0,32,3.0,96.0
2586,58.0,0,32,3.0,96.0
2587,75.0,30,32,7.0,96.0
2588,75.0,0,32,0.0,100.0
2589,62.0,0,14,10.0,96.0
2590,53.0,0,29,11.0,96.0
2591,46.0,0,29,4.0,96.0
2592,58.0,0,29,4.0,96.0
2593,70.0,0,29,4.0,96.0
2594,41.0,0,29,12.0,127.0
2595,56.0,0,32,3.0,96.0
2596,65.0,0,32,8.0,96.0
2597,77.0,0,32,2.0,96.0
2598,77.0,0,32,0.0,100.0
2599,74.0,0,32,2.0,96.0
2600,77.0,0,32,7.0,96.0
2601,53.0,0,32,3.0,96.0
2602,63.0,30,14,10.0,96.0
2603,70.0,0,59,5.0,96.0
2604,82.0,0,59,1.0,96.0
2605,70.0,30,59,1.0,96.0
2606,39.0,0,29,12.0,127.0
2607,58.0,0,59,5.0,96.0
2608,46.0,0,59,6.0,96.0
2609,51.0,0,29,11.0,96.0
2610,82.0,0,59,0.0,100.0
2611,79.0,0,32,2.0,96.0
2612,75.0,0,32,2.0,96.0
2613,79.0,0,32,0.0,100.0
2614,55.0,0,32,3.0,96.0
2615,51.0,0,32,3.0,96.0
2616,67.0,0,32,8.0,96.0
2617,79.0,0,32,7.0,96.0
2618,65.0,0,14,10.0,96.0
2619,58.0,0,29,4.0,96.0
2620,46.0,0,29,4.0,96.0
2621,50.0,0,29,11.0,96.0
2622,70.0,0,29,4.0,96.0
2623,38.0,0,29,12.0,127.0
2624,53.0,0,32,3.0,96.0
2625,80.0,0,32,7.0,96.0
2626,77.0,0,32,2.0,96.0
2627,50.0,0,32,3.0,96.0
2628,80.0,0,32,0.0,100.0
2629,80.0,0,32,2.0,96.0
2630,68.0,30,32,8.0,96.0
2631,63.0,0,14,10.0,96.0
2632,70.0,0,59,1.0,96.0
2633,55.0,30,29,3.0,96.0
2634,51.0,0,29,11.0,96.0
2635,67.0,0,29,8.0,96.0
2636,79.0,0,29,0.0,100.0
2637,79.0,0,29,7.0,96.0
2638,75.0,0,29,2.0,96.0
2639,82.0,0,59,1.0,96.0
2640,79.0,0,29,2.0,96.0
2641,39.0,0,29,12.0,127.0
2642,82.0,0,59,0.0,100.0
2643,51.0,0,29,3.0,96.0
2644,46.0,0,59,6.0,96.0
2645,46.0,0,179,4.0,96.0
2646,58.0,0,179,4.0,96.0
2647,70.0,0,179,4.0,96.0
2648,46.0,0,179,3.0,96.0
2649,80.0,0,179,0.0,100.0
2650,82.0,0,179,0.0,100.0
2651,34.0,0,179,12.0,127.0
2652,74.0,0,179,1.0,96.0
2653,65.0,30,179,10.0,96.0
2654,53.0,0,179,3.0,96.0
2655,82.0,0,179,1.0,96.0
2656,62.0,0,179,10.0,96.0
2657,80.0,0,179,2.0,96.0
2658,58.0,0,179,8.0,96.0
2659,74.0,0,179,2.0,96.0
2660,58.0,0,179,5.0,96.0
2661,46.0,0,179,11.0,96.0
2662,70.0,0,179,5.0,96.0
2663,80.0,0,182,7.0,96.0
2664,68.0,0,182,8.0,96.0
2665,81.0,180,62,7.0,96.0
2666,69.0,0,62,8.0,96.0
2667,43.0,0,29,11.0,96.0
2668,31.0,0,29,12.0,127.0
2669,58.0,0,29,10.0,96.0
2670,63.0,0,29,10.0,96.0
2671,44.0,0,29,11.0,96.0
2672,32.0,0,29,12.0,127.0
2673,51.0,0,59,6.0,96.0
2674,63.0,0,29,10.0,96.0
2675,58.0,30,29,10.0,96.0
2676,67.0,0,29,2.0,96.0
2677,34.0,0,29,12.0,127.0
2678,79.0,0,29,1.0,96.0
2679,75.0,0,29,1.0,96.0
2680,43.0,30,29,3.0,96.0
2681,55.0,0,29,3.0,96.0
2682,82.0,0,29,0.0,100.0
2683,46.0,0,29,11.0,96.0
2684,87.0,0,29,0.0,100.0
2685,63.0,0,29,4.0,96.0
2686,51.0,0,29,4.0,96.0
2687,70.0,0,29,2.0,96.0
2688,58.0,0,29,10.0,96.0
2689,58.0,0,29,4.0,96.0
2690,63.0,0,29,10.0,96.0
2691,36.0,0,29,12.0,127.0
2692,63.0,30,29,10.0,96.0
2693,48.0,0,29,11.0,96.0
2694,58.0,0,29,10.0,96.0
2695,63.0,0,29,4.0,96.0
2696,58.0,0,29,4.0,96.0
2697,38.0,0,29,12.0,127.0
2698,70.0,0,29,2.0,96.0
2699,51.0,0,29,4.0,96.0
2700,67.0,0,29,2.0,96.0
2701,43.0,0,29,3.0,96.0
2702,55.0,0,29,3.0,96.0
2703,79.0,0,29,1.0,96.0
2704,82.0,30,29,0.0,100.0
2705,63.0,0,29,10.0,96.0
2706,75.0,0,29,1.0,96.0
2707,50.0,0,29,11.0,96.0
2708,58.0,0,29,10.0,96.0
2709,87.0,0,29,0.0,100.0
2710,39.0,30,29,12.0,127.0
2711,51.0,0,29,11.0,96.0
2712,63.0,0,29,10.0,96.0
2713,58.0,0,29,10.0,96.0
2714,82.0,0,182,7.0,96.0
2715,70.0,0,182,8.0,96.0
2716,79.0,0,29,1.0,96.0
2717,75.0,0,29,1.0,96.0
2718,87.0,30,29,0.0,100.0
2719,43.0,0,29,3.0,96.0
2720,55.0,0,29,3.0,96.0
2721,53.0,0,29,11.0,96.0
2722,41.0,0,29,12.0,127.0
2723,63.0,0,29,4.0,96.0
2724,58.0,0,29,4.0,96.0
2725,51.0,0,29,4.0,96.0
2726,67.0,0,29,2.0,96.0
2727,63.0,0,29,10.0,96.0
2728,58.0,0,29,10.0,96.0
2729,82.0,0,29,0.0,100.0
2730,70.0,0,29,2.0,96.0
2731,75.0,60,239,5.0,96.0
2732,63.0,0,239,5.0,96.0
2733,58.0,0,29,10.0,96.0
2734,63.0,0,29,10.0,96.0
2735,67.0,0,59,8.0,96.0
2736,55.0,30,29,11.0,96.0
2737,43.0,0,29,12.0,127.0
2738,79.0,0,59,7.0,96.0
2739,56.0,0,29,11.0,96.0
2740,44.0,0,29,12.0,127.0
2741,63.0,0,29,10.0,96.0
2742,60.0,0,29,10.0,96.0
2743,60.0,30,29,10.0,96.0
2744,56.0,0,29,10.0,96.0
2745,43.0,0,29,12.0,127.0
2746,55.0,0,29,11.0,96.0
2747,51.0,30,59,6.0,96.0
2748,53.0,0,29,11.0,96.0
2749,41.0,0,29,12.0,127.0
2750,56.0,0,29,10.0,96.0
2751,60.0,0,29,10.0,96.0
2752,63.0,0,59,4.0,96.0
2753,51.0,0,59,4.0,96.0
2754,75.0,0,59,1.0,96.0
2755,72.0,0,59,2.0,96.0
2756,39.0,0,29,12.0,127.0
2757,87.0,30,59,0.0,100.0
2758,51.0,30,29,11.0,96.0
2759,89.0,0,59,0.0,100.0
2760,65.0,0,59,4.0,96.0
2761,65.0,0,59,2.0,96.0
2762,84.0,0,59,1.0,96.0
2763,56.0,0,29,10.0,96.0
2764,60.0,0,29,10.0,96.0
2765,56.0,0,59,3.0,96.0
2766,44.0,0,59,3.0,96.0
2767,50.0,0,29,11.0,96.0
2768,60.0,0,29,10.0,96.0
2769,38.0,0,29,12.0,127.0
2770,56.0,0,29,10.0,96.0
2771,65.0,0,59,4.0,96.0
2772,65.0,0,59,2.0,96.0
2773,51.0,0,59,4.0,96.0
2774,63.0,0,59,4.0,96.0
2775,48.0,0,29,11.0,96.0
2776,89.0,0,59,0.0,100.0
2777,75.0,0,59,1.0,96.0
2778,72.0,30,59,2.0,96.0
2779,84.0,0,59,1.0,96.0
2780,36.0,0,29,12.0,127.0
2781,44.0,0,59,3.0,96.0
2782,60.0,30,29,10.0,96.0
2783,56.0,0,29,10.0,96.0
2784,56.0,0,59,3.0,96.0
2785,87.0,0,59,0.0,100.0
2786,77.0,0,182,7.0,96.0
2787,65.0,0,182,8.0,96.0
2788,60.0,0,29,10.0,96.0
2789,56.0,0,29,10.0,96.0
2790,46.0,0,29,11.0,96.0
2791,34.0,30,29,12.0,127.0
2792,65.0,0,59,4.0,96.0
2793,44.0,30,29,11.0,96.0
2794,60.0,0,29,10.0,96.0
2795,75.0,0,59,1.0,96.0
2796,44.0,0,59,3.0,96.0
2797,84.0,0,59,1.0,96.0
2798,56.0,0,59,3.0,96.0
2799,63.0,0,239,5.0,96.0
2800,75.0,0,239,5.0,96.0
2801,51.0,0,59,4.0,96.0
2802,72.0,0,59,8.0,96.0
2803,56.0,0,29,10.0,96.0
2804,89.0,0,59,0.0,100.0
2805,84.0,0,59,7.0,96.0
2806,72.0,0,59,2.0,96.0
2807,32.0,0,29,12.0,127.0
2808,87.0,0,59,0.0,100.0
2809,63.0,0,59,4.0,96.0
2810,65.0,0,59,2.0,96.0
2811,46.0,0,29,11.0,96.0
2812,55.0,0,29,10.0,96.0
2813,58.0,0,29,10.0,96.0
2814,34.0,0,29,12.0,127.0
2815,51.0,0,59,4.0,96.0
2816,67.0,0,59,4.0,96.0
2817,63.0,30,59,4.0,96.0
2818,79.0,0,59,1.0,96.0
2819,70.0,0,59,2.0,96.0
2820,67.0,0,59,2.0,96.0
2821,55.0,0,29,10.0,96.0
2822,91.0,0,59,0.0,100.0
2823,46.0,0,59,6.0,96.0
2824,75.0,0,59,1.0,96.0
2825,46.0,0,59,3.0,96.0
2826,58.0,0,59,3.0,96.0
2827,58.0,0,29,10.0,96.0
2828,39.0,0,29,12.0,127.0
2829,51.0,30,29,11.0,96.0
2830,87.0,0,59,0.0,100.0
2831,55.0,0,29,11.0,96.0
2832,58.0,0,29,10.0,96.0
2833,43.0,0,29,12.0,127.0
2834,55.0,0,29,10.0,96.0
2835,58.0,0,59,3.0,96.0
2836,63.0,0,59,3.0,96.0
2837,63.0,0,59,4.0,96.0
2838,46.0,0,59,4.0,96.0
2839,58.0,0,29,10.0,96.0
2840,46.0,0,29,12.0,127.0
2841,87.0,0,59,0.0,100.0
2842,91.0,0,59,0.0,100.0
2843,70.0,30,59,2.0,96.0
2844,67.0,0,59,2.0,96.0
2845,67.0,0,59,4.0,96.0
2846,79.0,0,59,1.0,96.0
2847,75.0,0,59,1.0,96.0
2848,58.0,0,29,11.0,96.0
2849,70.0,0,119,5.0,96.0
2850,58.0,0,119,5.0,96.0
2851,55.0,30,29,10.0,96.0
2852,75.0,0,122,7.0,96.0
2853,63.0,0,122,8.0,96.0
2854,58.0,0,29,10.0,96.0
2855,56.0,0,29,10.0,96.0
2856,34.0,0,29,12.0,127.0
2857,46.0,0,29,11.0,96.0
2858,46.0,0,29,12.0,127.0
2859,46.0,0,59,6.0,96.0
2860,70.0,0,59,2.0,96.0
2861,68.0,0,59,2.0,96.0
2862,58.0,0,59,4.0,96.0
2863,46.0,0,59,4.0,96.0
2864,65.0,0,59,4.0,96.0
2865,77.0,0,59,1.0,96.0
2866,86.0,0,59,0.0,100.0
2867,58.0,0,29,11.0,96.0
2868,58.0,0,59,3.0,96.0
2869,56.0,0,59,3.0,96.0
2870,56.0,30,29,10.0,96.0
2871,58.0,0,29,10.0,96.0
2872,74.0,30,59,1.0,96.0
2873,89.0,0,59,0.0,100.0
2874,46.0,30,29,11.0,96.0
2875,58.0,0,29,10.0,96.0
2876,56.0,0,29,10.0,96.0
2877,34.0,0,29,12.0,127.0
2878,67.0,0,92,8.0,96.0
2879,79.0,0,92,7.0,96.0
2880,77.0,0,59,1.0,96.0
2881,86.0,0,59,0.0,100.0
2882,89.0,0,59,0.0,100.0
2883,65.0,0,59,4.0,96.0
2884,46.0,0,59,4.0,96.0
2885,65.0,30,29,8.0,96.0
2886,56.0,0,59,3.0,96.0
2887,58.0,0,29,10.0,96.0
2888,70.0,0,59,2.0,96.0
2889,68.0,0,59,2.0,96.0
2890,74.0,0,59,1.0,96.0
2891,56.0,0,29,10.0,96.0
2892,58.0,0,59,3.0,96.0
2893,34.0,0,29,12.0,127.0
2894,77.0,0,29,7.0,96.0
2895,58.0,0,119,5.0,96.0
2896,46.0,0,29,11.0,96.0
2897,70.0,0,119,5.0,96.0
2898,58.0,0,59,4.0,96.0
2899,63.0,0,59,5.0,96.0
2900,51.0,0,59,4.0,96.0
2901,51.0,0,59,11.0,96.0
2902,51.0,0,59,6.0,96.0
2903,67.0,0,59,2.0,96.0
2904,70.0,0,59,2.0,96.0
2905,87.0,0,59,0.0,100.0
2906,82.0,0,59,0.0,100.0
2907,55.0,0,59,4.0,96.0
2908,75.0,0,59,1.0,96.0
2909,75.0,0,59,7.0,96.0
2910,63.0,0,59,4.0,96.0
2911,55.0,0,59,3.0,96.0
2912,58.0,0,59,3.0,96.0
2913,39.0,30,59,12.0,127.0
2914,58.0,0,59,10.0,96.0
2915,63.0,0,59,8.0,96.0
2916,55.0,0,59,10.0,96.0
2917,63.0,60,29,7.0,48.0
2918,62.0,30,29,7.0,48.0
2919,63.0,30,29,7.0,48.0
2920,65.0,30,29,7.0,48.0
2921,67.0,30,29,7.0,48.0
2922,68.0,30,29,7.0,48.0
2923,70.0,0,29,7.0,96.0
2924,64.0,0,29,8.0,96.0
2925,55.0,30,29,11.0,100.0
2926,61.0,0,29,10.0,96.0
2927,61.0,0,152,10.0,48.0
2928,70.0,30,152,7.0,48.0
2929,67.0,0,59,7.0,48.0
2930,58.0,150,59,10.0,48.0
2931,64.0,0,209,8.0,48.0
2932,55.0,0,212,11.0,48.0
2933,65.0,0,59,7.0,48.0
2934,67.0,60,29,7.0,48.0
2935,65.0,30,29,7.0,48.0
2936,67.0,30,29,7.0,48.0
2937,68.0,30,29,7.0,48.0
2938,70.0,30,29,7.0,48.0
2939,60.0,0,239,10.0,48.0
2940,56.0,60,239,11.0,48.0
2941,65.0,0,239,8.0,48.0
2942,72.0,30,29,7.0,48.0
2943,73.0,0,179,7.0,95.0
2944,64.0,0,179,8.0,96.0
2945,67.0,0,182,10.0,95.0
2946,85.0,30,182,0.0,100.0
2947,82.0,0,59,0.0,48.0
2948,67.0,180,59,8.0,48.0
2949,61.0,0,59,10.0,48.0
2950,70.0,0,59,7.0,48.0
2951,58.0,0,239,11.0,96.0
2952,60.0,0,29,11.0,48.0
2953,81.0,0,29,0.0,48.0
2954,69.0,0,29,7.0,48.0
2955,66.0,0,29,8.0,48.0
2956,63.0,60,29,10.0,48.0
2957,63.0,30,29,10.0,50.0
2958,60.0,0,29,11.0,51.0
2959,66.0,0,29,8.0,50.0
2960,63.0,0,29,10.0,53.0
2961,75.0,0,29,7.0,54.0
2962,60.0,0,29,11.0,54.0
2963,66.0,0,29,8.0,53.0
2964,87.0,30,29,0.0,54.0
2965,66.0,0,29,8.0,56.0
2966,63.0,0,29,10.0,56.0
2967,60.0,30,29,11.0,57.0
2968,89.0,0,29,0.0,60.0
2969,68.0,0,29,10.0,59.0
2970,77.0,0,29,7.0,60.0
2971,62.0,30,29,11.0,60.0
2972,65.0,0,29,8.0,59.0
2973,62.0,30,29,11.0,63.0
2974,65.0,0,29,8.0,62.0
2975,68.0,0,29,10.0,62.0
2976,68.0,0,29,10.0,65.0
2977,62.0,0,29,11.0,66.0
2978,65.0,30,29,8.0,65.0
2979,83.0,0,29,0.0,66.0
2980,71.0,0,29,7.0,66.0
2981,65.0,30,29,8.0,68.0
2982,68.0,0,29,10.0,68.0
2983,62.0,0,29,11.0,69.0
2984,63.0,0,29,11.0,72.0
2985,72.0,0,29,7.0,72.0
2986,67.0,0,29,10.0,71.0
2987,67.0,30,29,8.0,71.0
2988,67.0,0,29,8.0,74.0
2989,67.0,0,29,10.0,74.0
2990,63.0,30,29,11.0,75.0
2991,84.0,0,59,0.0,72.0
2992,63.0,0,29,10.0,77.0
2993,79.0,0,29,7.0,78.0
2994,72.0,0,29,8.0,77.0
2995,63.0,0,29,11.0,78.0
2996,63.0,30,29,10.0,80.0
2997,72.0,0,29,8.0,80.0
2998,79.0,30,59,1.0,78.0
2999,72.0,0,59,1.0,78.0
3000,63.0,0,29,11.0,81.0
3001,84.0,0,59,0.0,78.0
3002,79.0,0,59,0.0,78.0
3003,72.0,0,29,8.0,83.0
3004,63.0,0,29,10.0,83.0
3005,54.0,0,29,11.0,84.0
3006,81.0,0,29,7.0,84.0
3007,72.0,0,29,8.0,86.0
3008,63.0,0,29,10.0,86.0
3009,81.0,30,59,1.0,84.0
3010,72.0,0,59,1.0,84.0
3011,81.0,0,59,0.0,84.0
3012,54.0,30,29,11.0,87.0
3013,84.0,0,59,0.0,84.0
3014,69.0,0,29,8.0,89.0
3015,72.0,0,29,7.0,90.0
3016,63.0,0,29,10.0,89.0
3017,54.0,0,29,11.0,90.0
3018,69.0,0,29,8.0,92.0
3019,84.0,0,59,0.0,90.0
3020,54.0,0,59,3.0,89.0
3021,72.0,30,59,1.0,90.0
3022,69.0,0,59,1.0,90.0
3023,81.0,0,59,0.0,90.0
3024,54.0,30,29,11.0,93.0
3025,63.0,0,29,10.0,92.0
3026,63.0,0,59,3.0,89.0
3027,67.0,0,29,8.0,96.0
3028,62.0,0,29,10.0,96.0
3029,55.0,30,29,11.0,96.0
3030,71.0,0,29,7.0,96.0
3031,55.0,30,29,11.0,96.0
3032,79.0,0,59,0.0,96.0
3033,62.0,0,29,10.0,96.0
3034,83.0,0,59,0.0,96.0
3035,67.0,0,59,1.0,96.0
3036,71.0,0,59,1.0,96.0
3037,62.0,0,59,3.0,95.0
3038,55.0,0,59,3.0,95.0
3039,31.0,0,59,12.0,127.0
3040,62.0,0,29,10.0,96.0
3041,79.0,0,29,7.0,96.0
3042,55.0,30,29,11.0,96.0
3043,71.0,0,29,8.0,96.0
3044,71.0,0,59,2.0,96.0
3045,55.0,0,59,3.0,96.0
3046,62.0,0,59,3.0,96.0
3047,79.0,0,59,0.0,96.0
3048,79.0,0,59,1.0,96.0
3049,62.0,30,29,10.0,96.0
3050,67.0,0,59,2.0,96.0
3051,55.0,0,29,11.0,96.0
3052,31.0,0,59,12.0,127.0
3053,83.0,0,59,0.0,96.0
3054,71.0,0,59,1.0,96.0
3055,54.0,0,29,11.0,96.0
3056,81.0,0,29,7.0,96.0
3057,72.0,0,29,8.0,96.0
3058,63.0,0,29,10.0,96.0
3059,72.0,0,59,1.0,96.0
3060,81.0,0,59,1.0,96.0
3061,54.0,0,29,11.0,96.0
3062,69.0,0,59,2.0,96.0
3063,54.0,0,59,3.0,96.0
3064,31.0,0,59,12.0,127.0
3065,63.0,30,29,10.0,96.0
3066,81.0,0,59,0.0,96.0
3067,84.0,0,59,0.0,96.0
3068,63.0,30,59,3.0,96.0
3069,72.0,0,59,2.0,96.0
3070,54.0,0,29,11.0,96.0
3071,72.0,0,29,7.0,96.0
3072,63.0,0,29,10.0,96.0
3073,69.0,0,29,8.0,96.0
3074,81.0,0,59,0.0,96.0
3075,84.0,0,59,0.0,96.0
3076,54.0,0,59,3.0,96.0
3077,31.0,0,59,12.0,127.0
3078,81.0,0,59,1.0,96.0
3079,69.0,0,59,2.0,96.0
3080,72.0,30,59,2.0,96.0
3081,72.0,0,59,1.0,96.0
3082,54.0,30,29,11.0,96.0
3083,63.0,0,29,10.0,96.0
3084,63.0,0,59,3.0,96.0
3085,55.0,0,29,11.0,96.0
3086,62.0,0,29,10.0,96.0
3087,67.0,0,29,8.0,96.0
3088,71.0,0,29,7.0,96.0
3089,55.0,30,29,11.0,96.0
3090,79.0,0,59,0.0,96.0
3091,71.0,0,59,1.0,96.0
3092,83.0,0,59,0.0,96.0
3093,62.0,0,59,3.0,96.0
3094,31.0,0,59,12.0,127.0
3095,67.0,0,59,2.0,96.0
3096,71.0,0,59,2.0,96.0
3097,62.0,0,29,10.0,96.0
3098,55.0,0,59,3.0,96.0
3099,79.0,30,59,1.0,96.0
3100,55.0,0,29,11.0,96.0
3101,62.0,0,29,10.0,96.0
3102,79.0,0,29,7.0,96.0
3103,71.0,0,29,8.0,96.0
3104,67.0,0,59,2.0,96.0
3105,71.0,30,59,2.0,96.0
3106,55.0,0,59,3.0,96.0
3107,79.0,0,59,1.0,96.0
3108,31.0,0,59,12.0,127.0
3109,83.0,0,59,0.0,96.0
3110,55.0,0,29,11.0,96.0
3111,62.0,0,59,3.0,96.0
3112,62.0,30,29,10.0,96.0
3113,71.0,0,59,1.0,96.0
3114,79.0,0,59,0.0,96.0
3115,72.0,0,29,8.0,96.0
3116,63.0,0,29,10.0,96.0
3117,54.0,0,29,11.0,96.0
3118,81.0,0,29,7.0,96.0
3119,63.0,0,29,10.0,96.0
3120,31.0,0,59,12.0,127.0
3121,54.0,0,59,3.0,96.0
3122,69.0,0,59,2.0,96.0
3123,72.0,0,59,2.0,96.0
3124,81.0,30,59,0.0,96.0
3125,84.0,0,59,0.0,96.0
3126,54.0,30,29,11.0,96.0
3127,63.0,0,59,3.0,96.0
3128,81.0,0,59,1.0,96.0
3129,72.0,0,59,1.0,96.0
3130,54.0,0,29,11.0,96.0
3131,63.0,0,29,10.0,96.0
3132,69.0,0,29,8.0,96.0
3133,72.0,0,29,7.0,96.0
3134,54.0,30,29,11.0,96.0
3135,54.0,0,59,3.0,96.0
3136,72.0,0,59,2.0,96.0
3137,69.0,0,59,2.0,96.0
3138,63.0,0,59,3.0,96.0
3139,63.0,0,29,10.0,96.0
3140,81.0,0,59,0.0,96.0
3141,81.0,0,59,1.0,96.0
3142,31.0,0,59,12.0,127.0
3143,84.0,0,59,0.0,96.0
3144,72.0,30,59,1.0,96.0
3145,55.0,0,59,4.0,127.0
3146,71.0,0,59,7.0,127.0
3147,55.0,0,59,3.0,127.0
3148,71.0,0,59,2.0,127.0
3149,67.0,0,59,4.0,127.0
3150,62.0,0,59,3.0,127.0
3151,67.0,0,59,2.0,127.0
3152,71.0,0,59,1.0,127.0
3153,62.0,0,59,10.0,127.0
3154,31.0,0,59,12.0,127.0
3155,67.0,0,59,8.0,127.0
3156,55.0,0,59,11.0,127.0
3157,67.0,0,59,5.0,96.0
3158,79.0,30,59,0.0,127.0
3159,83.0,0,59,0.0,127.0
3160,79.0,0,59,1.0,127.0
3161,55.0,0,59,10.0,127.0
3162,79.0,0,59,7.0,127.0
3163,62.0,0,59,7.0,127.0
3164,71.0,0,59,8.0,127.0
3165,62.0,0,59,8.0,127.0
3166,67.0,0,59,10.0,127.0
3167,67.0,0,59,4.0,127.0
3168,55.0,0,59,4.0,127.0
3169,91.0,0,59,0.0,127.0
3170,43.0,0,59,11.0,127.0
3171,79.0,0,59,2.0,127.0
3172,71.0,0,59,2.0,127.0
3173,55.0,0,59,7.0,127.0
3174,71.0,0,59,7.0,127.0
3175,79.0,0,59,1.0,127.0
3176,83.0,0,59,1.0,127.0
3177,55.0,0,59,8.0,127.0
3178,83.0,0,59,0.0,127.0
3179,55.0,0,59,3.0,127.0
3180,43.0,0,59,3.0,127.0
3181,31.0,120,59,12.0,127.0
3182,67.0,0,59,5.0,96.0
3183,71.0,0,59,8.0,127.0
3184,67.0,0,59,4.0,127.0
3185,55.0,0,59,4.0,127.0
3186,71.0,0,59,2.0,127.0
3187,67.0,0,59,2.0,127.0
3188,55.0,0,59,3.0,127.0
3189,55.0,0,59,8.0,127.0
3190,31.0,0,59,12.0,127.0
3191,62.0,0,59,8.0,127.0
3192,43.0,0,59,3.0,127.0
3193,67.0,120,59,10.0,127.0
3194,91.0,0,59,0.0,127.0
3195,67.0,0,59,5.0,96.0
3196,71.0,0,59,7.0,127.0
3197,62.0,0,59,7.0,127.0
3198,83.0,0,59,0.0,127.0
3199,79.0,0,59,1.0,127.0
3200,43.0,0,59,11.0,127.0
3201,71.0,0,59,1.0,127.0
3202,55.0,0,59,7.0,127.0
3203,79.0,0,59,7.0,127.0
3204,55.0,0,59,10.0,127.0
3205,60.0,60,59,11.0,48.0
3206,60.0,60,59,11.0,48.0
3207,60.0,60,59,11.0,48.0
3208,72.0,240,239,7.0,48.0
3209,60.0,0,122,11.0,48.0
3210,59.0,120,59,11.0,48.0
3211,79.0,60,239,7.0,48.0
3212,77.0,60,59,2.0,48.0
3213,77.0,60,59,2.0,48.0
3214,77.0,60,59,2.0,48.0
3215,67.0,120,239,7.0,48.0
3216,77.0,60,122,2.0,48.0
3217,72.0,0,179,7.0,48.0
3218,75.0,120,59,2.0,48.0
3219,75.0,60,29,7.0,48.0
3220,74.0,60,29,7.0,48.0
3221,72.0,60,29,7.0,48.0
3222,65.0,0,59,3.0,49.0
3223,71.0,0,29,7.0,48.0
3224,65.0,60,59,3.0,49.0
3225,74.0,0,29,7.0,48.0
3226,65.0,60,59,3.0,49.0
3227,65.0,0,122,3.0,49.0
3228,63.0,120,59,3.0,49.0
3229,72.0,60,179,7.0,48.0
3230,79.0,60,29,7.0,48.0
3231,77.0,60,29,7.0,48.0
3232,75.0,60,29,7.0,48.0
3233,74.0,60,29,7.0,48.0
3234,67.0,0,239,8.0,56.0
3235,77.0,60,119,7.0,48.0
3236,76.0,60,29,7.0,48.0
3237,74.0,30,29,7.0,48.0
3238,76.0,30,29,7.0,48.0
3239,77.0,30,29,7.0,48.0
3240,79.0,30,29,7.0,48.0
3241,80.0,30,29,7.0,48.0
3242,72.0,60,239,8.0,56.0
3243,82.0,30,29,7.0,48.0
3244,82.0,60,29,7.0,48.0
3245,82.0,60,29,7.0,48.0
3246,82.0,60,29,7.0,48.0
3247,60.0,0,239,8.0,56.0
3248,80.0,60,62,7.0,48.0
3249,84.0,60,59,7.0,48.0
3250,77.0,60,29,7.0,48.0
3251,65.0,0,179,8.0,56.0
3252,68.0,60,29,8.0,48.0
3253,67.0,60,29,8.0,48.0
3254,65.0,60,29,8.0,48.0
3255,79.0,0,29,7.0,48.0
3256,64.0,60,29,8.0,48.0
3257,72.0,0,29,7.0,48.0
3258,67.0,0,29,8.0,48.0
3259,82.0,60,29,7.0,48.0
3260,80.0,60,62,7.0,48.0
3261,84.0,60,59,7.0,48.0
3262,77.0,60,29,7.0,48.0
3263,65.0,0,179,8.0,48.0
3264,72.0,60,29,8.0,48.0
3265,70.0,60,29,8.0,48.0
3266,68.0,60,29,8.0,48.0
3267,77.0,0,29,7.0,48.0
3268,76.0,0,29,7.0,48.0
3269,67.0,60,29,8.0,48.0
3270,84.0,60,29,7.0,48.0
3271,70.0,0,29,8.0,48.0
3272,68.0,60,29,8.0,48.0
3273,77.0,0,29,7.0,48.0
3274,67.0,60,29,8.0,48.0
3275,75.0,0,29,7.0,48.0
3276,65.0,60,29,8.0,48.0
3277,74.0,0,29,7.0,48.0
3278,68.0,0,29,8.0,48.0
3279,67.0,60,29,8.0,48.0
3280,77.0,60,119,7.0,48.0
3281,65.0,0,29,8.0,48.0
3282,75.0,60,32,7.0,48.0
3283,74.0,30,29,7.0,48.0
3284,63.0,0,29,8.0,48.0
3285,72.0,30,29,7.0,48.0
3286,63.0,60,29,7.0,48.0
3287,60.0,0,239,10.0,56.0
3288,72.0,0,119,8.0,96.0
3289,71.0,60,29,8.0,48.0
3290,69.0,30,29,8.0,48.0
3291,62.0,60,149,7.0,48.0
3292,71.0,30,29,8.0,48.0
3293,63.0,30,29,7.0,48.0
3294,72.0,0,29,8.0,48.0
3295,74.0,30,29,8.0,48.0
3296,65.0,0,29,7.0,48.0
3297,67.0,0,239,10.0,48.0
3298,67.0,0,29,7.0,48.0
3299,75.0,30,29,8.0,48.0
3300,77.0,0,29,8.0,48.0
3301,68.0,30,59,7.0,48.0
3302,77.0,60,29,8.0,48.0
3303,69.0,0,59,7.0,48.0
3304,77.0,60,29,8.0,48.0
3305,70.0,0,59,7.0,48.0
3306,77.0,60,29,8.0,48.0
3307,55.0,0,239,10.0,48.0
3308,71.0,0,59,7.0,48.0
3309,72.0,0,59,7.0,48.0
3310,75.0,0,62,8.0,48.0
3311,79.0,60,59,8.0,48.0
3312,79.0,0,62,7.0,48.0
3313,72.0,60,29,8.0,48.0
3314,60.0,60,179,10.0,48.0
3315,63.0,60,29,10.0,48.0
3316,62.0,60,29,10.0,48.0
3317,80.0,0,182,7.0,72.0
3318,60.0,60,29,10.0,48.0
3319,74.0,0,29,8.0,48.0
3320,78.0,0,62,7.0,48.0
3321,59.0,60,29,10.0,48.0
3322,67.0,0,29,8.0,48.0
3323,79.0,0,59,7.0,48.0
3324,62.0,60,29,10.0,48.0
3325,77.0,0,29,8.0,48.0
3326,79.0,0,29,7.0,48.0
3327,79.0,0,29,7.0,48.0
3328,75.0,0,62,8.0,48.0
3329,79.0,60,59,8.0,48.0
3330,79.0,0,62,7.0,48.0
3331,72.0,60,29,8.0,48.0
3332,60.0,60,179,10.0,48.0
3333,67.0,60,29,10.0,48.0
3334,75.0,0,29,8.0,48.0
3335,74.0,0,29,8.0,48.0
3336,65.0,0,29,10.0,48.0
3337,80.0,0,182,7.0,72.0
3338,63.0,0,29,10.0,48.0
3339,72.0,0,29,8.0,48.0
3340,78.0,60,62,7.0,48.0
3341,62.0,0,29,10.0,48.0
3342,71.0,60,29,8.0,48.0
3343,79.0,0,59,7.0,48.0
3344,74.0,60,29,8.0,48.0
3345,79.0,0,29,7.0,48.0
3346,55.0,0,239,11.0,48.0
3347,43.0,60,239,12.0,80.0
3348,67.0,0,29,8.0,48.0
3349,79.0,0,29,7.0,48.0
3350,65.0,0,119,10.0,48.0
3351,64.0,0,29,10.0,48.0
3352,62.0,30,29,10.0,48.0
3353,64.0,30,29,10.0,48.0
3354,70.0,60,89,8.0,48.0
3355,65.0,30,29,10.0,48.0
3356,68.0,0,29,8.0,48.0
3357,67.0,30,29,10.0,48.0
3358,67.0,0,29,8.0,48.0
3359,65.0,30,29,8.0,48.0
3360,60.0,0,239,11.0,48.0
3361,67.0,60,239,2.0,48.0
3362,48.0,0,239,12.0,80.0
3363,55.0,0,239,3.0,48.0
3364,69.0,0,29,10.0,48.0
3365,64.0,30,59,8.0,48.0
3366,70.0,0,59,10.0,48.0
3367,72.0,0,29,8.0,48.0
3368,70.0,60,59,10.0,48.0
3369,71.0,30,29,8.0,48.0
3370,72.0,0,29,8.0,48.0
3371,70.0,30,59,10.0,48.0
3372,74.0,30,29,8.0,48.0
3373,75.0,0,29,8.0,48.0
3374,60.0,0,239,3.0,48.0
3375,76.0,30,29,8.0,48.0
3376,72.0,0,239,2.0,48.0
3377,48.0,0,239,11.0,48.0
3378,70.0,30,59,10.0,48.0
3379,36.0,0,239,12.0,80.0
3380,77.0,30,62,8.0,48.0
3381,68.0,0,62,10.0,48.0
3382,72.0,60,59,10.0,48.0
3383,72.0,0,62,8.0,48.0
3384,65.0,60,29,10.0,48.0
3385,41.0,0,179,12.0,80.0
3386,60.0,0,179,2.0,48.0
3387,48.0,0,179,3.0,48.0
3388,53.0,0,179,11.0,48.0
3389,56.0,0,29,11.0,48.0
3390,44.0,0,29,12.0,80.0
3391,60.0,0,59,2.0,48.0
3392,48.0,60,59,3.0,48.0
3393,55.0,60,29,11.0,48.0
3394,43.0,0,29,12.0,80.0
3395,60.0,0,59,2.0,48.0
3396,48.0,0,59,3.0,48.0
3397,73.0,0,182,8.0,72.0
3398,41.0,0,29,12.0,80.0
3399,53.0,0,29,11.0,48.0
3400,67.0,0,29,10.0,48.0
3401,60.0,0,59,2.0,48.0
3402,48.0,60,59,3.0,48.0
3403,71.0,0,62,8.0,48.0
3404,60.0,0,29,10.0,48.0
3405,52.0,0,29,11.0,48.0
3406,40.0,60,29,12.0,80.0
3407,60.0,0,59,2.0,48.0
3408,48.0,0,59,3.0,48.0
3409,72.0,0,59,8.0,48.0
3410,70.0,0,29,10.0,48.0
3411,55.0,0,29,11.0,48.0
3412,43.0,0,29,12.0,80.0
3413,72.0,0,29,8.0,48.0
3414,48.0,0,59,3.0,48.0
3415,60.0,60,59,2.0,48.0
3416,72.0,60,29,8.0,48.0
3417,68.0,0,62,10.0,48.0
3418,72.0,0,59,10.0,48.0
3419,72.0,60,62,8.0,48.0
3420,65.0,0,29,10.0,48.0
3421,48.0,0,179,3.0,48.0
3422,41.0,0,179,12.0,80.0
3423,53.0,0,179,11.0,48.0
3424,60.0,0,179,2.0,48.0
3425,68.0,0,29,10.0,48.0
3426,48.0,0,29,12.0,80.0
3427,60.0,0,29,11.0,48.0
3428,60.0,60,59,2.0,48.0
3429,48.0,0,59,3.0,48.0
3430,58.0,0,29,11.0,48.0
3431,67.0,0,29,10.0,48.0
3432,46.0,0,29,12.0,80.0
3433,60.0,0,59,2.0,48.0
3434,48.0,60,59,3.0,48.0
3435,73.0,60,182,8.0,71.0
3436,44.0,60,29,12.0,84.0
3437,65.0,0,29,10.0,51.0
3438,56.0,0,29,11.0,52.0
3439,60.0,0,59,2.0,51.0
3440,48.0,0,59,3.0,51.0
3441,71.0,0,62,8.0,51.0
3442,55.0,60,29,11.0,56.0
3443,64.0,0,29,10.0,55.0
3444,43.0,0,29,12.0,88.0
3445,48.0,0,59,3.0,55.0
3446,72.0,0,59,8.0,51.0
3447,60.0,0,59,2.0,55.0
3448,67.0,0,29,10.0,59.0
3449,72.0,0,29,8.0,51.0
3450,46.0,0,29,12.0,92.0
3451,58.0,0,29,11.0,60.0
3452,72.0,0,239,1.0,48.0
3453,60.0,0,59,2.0,59.0
3454,48.0,60,59,3.0,59.0
3455,56.0,0,29,11.0,64.0
3456,65.0,0,29,10.0,63.0
3457,44.0,0,29,12.0,96.0
3458,60.0,0,59,2.0,63.0
3459,48.0,0,59,3.0,63.0
3460,43.0,0,29,12.0,100.0
3461,63.0,60,29,10.0,67.0
3462,55.0,0,29,11.0,68.0
3463,41.0,0,29,12.0,104.0
3464,62.0,60,29,10.0,71.0
3465,53.0,0,29,11.0,72.0
3466,65.0,60,29,10.0,75.0
3467,44.0,0,29,12.0,108.0
3468,56.0,0,29,11.0,76.0
3469,77.0,0,239,1.0,64.0
3470,63.0,0,29,10.0,79.0
3471,43.0,0,29,12.0,112.0
3472,55.0,60,29,11.0,80.0
3473,72.0,60,299,8.0,51.0
3474,71.0,0,29,8.0,51.0
3475,53.0,0,29,11.0,84.0
3476,41.0,0,29,12.0,116.0
3477,62.0,60,29,10.0,83.0
3478,72.0,0,29,8.0,55.0
3479,60.0,0,29,10.0,87.0
3480,39.0,60,29,12.0,120.0
3481,51.0,0,29,11.0,88.0
3482,55.0,60,29,11.0,92.0
3483,69.0,0,29,8.0,59.0
3484,63.0,0,29,10.0,91.0
3485,43.0,0,29,12.0,124.0
3486,84.0,0,239,0.0,79.0
3487,72.0,0,242,2.0,79.0
3488,71.0,0,29,8.0,63.0
3489,41.0,0,29,12.0,127.0
3490,53.0,0,29,11.0,96.0
3491,62.0,0,29,10.0,96.0
3492,72.0,0,29,8.0,67.0
3493,60.0,0,29,10.0,96.0
3494,51.0,60,29,11.0,96.0
3495,39.0,0,29,12.0,127.0
3496,59.0,0,29,10.0,96.0
3497,74.0,0,29,8.0,71.0
3498,38.0,60,29,12.0,127.0
3499,50.0,0,29,11.0,96.0
3500,71.0,0,29,8.0,75.0
3501,79.0,0,239,7.0,96.0
3502,55.0,0,239,3.0,96.0
3503,41.0,60,119,12.0,127.0
3504,53.0,0,119,11.0,96.0
3505,79.0,0,299,2.0,95.0
3506,62.0,0,119,10.0,96.0
3507,52.0,0,29,11.0,96.0
3508,60.0,60,29,10.0,96.0
3509,40.0,0,29,12.0,127.0
3510,38.0,0,29,12.0,127.0
3511,59.0,30,29,10.0,96.0
3512,67.0,0,119,8.0,79.0
3513,87.0,60,359,0.0,95.0
3514,60.0,0,119,3.0,96.0
3515,50.0,0,29,11.0,96.0
3516,67.0,0,59,2.0,96.0
3517,60.0,0,29,10.0,96.0
3518,52.0,30,29,11.0,96.0
3519,40.0,0,29,12.0,127.0
3520,62.0,30,29,10.0,96.0
3521,41.0,0,29,12.0,127.0
3522,53.0,0,29,11.0,96.0
3523,63.0,0,29,10.0,96.0
3524,55.0,0,29,11.0,96.0
3525,43.0,0,29,12.0,127.0
3526,67.0,60,239,1.0,96.0
3527,44.0,0,29,12.0,127.0
3528,72.0,0,119,2.0,96.0
3529,60.0,30,59,2.0,96.0
3530,84.0,0,119,0.0,96.0
3531,65.0,30,29,10.0,96.0
3532,48.0,0,119,3.0,96.0
3533,84.0,0,239,7.0,96.0
3534,56.0,0,29,11.0,96.0
3535,67.0,0,29,10.0,96.0
3536,58.0,0,59,11.0,96.0
3537,46.0,30,59,12.0,127.0
3538,68.0,30,29,10.0,96.0
3539,67.0,30,29,10.0,96.0
3540,72.0,0,119,1.0,96.0
3541,84.0,0,119,0.0,96.0
3542,58.0,0,59,11.0,96.0
3543,65.0,30,29,10.0,96.0
3544,46.0,0,59,12.0,127.0
3545,60.0,0,119,2.0,96.0
3546,72.0,0,119,2.0,96.0
3547,64.0,0,29,10.0,96.0
3548,46.0,0,59,12.0,127.0
3549,58.0,0,59,11.0,96.0
3550,65.0,30,29,10.0,96.0
3551,48.0,0,179,3.0,96.0
3552,67.0,0,29,10.0,96.0
3553,60.0,0,119,2.0,96.0
3554,64.0,30,29,10.0,96.0
3555,84.0,0,119,0.0,96.0
3556,72.0,30,119,1.0,96.0
3557,58.0,0,59,11.0,96.0
3558,48.0,30,59,3.0,96.0
3559,46.0,0,59,12.0,127.0
3560,72.0,0,239,7.0,96.0
3561,72.0,0,119,2.0,96.0
3562,60.0,30,59,10.0,96.0
3563,48.0,0,59,3.0,96.0
3564,44.0,0,62,12.0,127.0
3565,56.0,0,62,11.0,96.0
3566,60.0,60,59,11.0,96.0
3567,48.0,0,59,12.0,127.0
3568,48.0,0,59,3.0,96.0
3569,60.0,0,62,10.0,96.0
3570,41.0,0,29,12.0,127.0
3571,53.0,60,29,11.0,96.0
3572,84.0,0,179,0.0,96.0
3573,72.0,0,179,2.0,96.0
3574,72.0,0,179,1.0,96.0
3575,77.0,0,179,7.0,96.0
3576,48.0,0,59,3.0,96.0
3577,60.0,0,179,2.0,96.0
3578,80.0,0,29,7.0,96.0
3579,72.0,0,59,2.0,96.0
3580,60.0,0,59,2.0,96.0
3581,72.0,60,59,1.0,96.0
3582,48.0,0,59,3.0,96.0
3583,84.0,0,59,0.0,96.0
3584,79.0,0,29,7.0,96.0
3585,72.0,0,59,1.0,96.0
3586,60.0,60,59,2.0,96.0
3587,72.0,0,59,2.0,96.0
3588,84.0,0,59,0.0,96.0
3589,61.0,0,182,10.0,112.0
3590,43.0,0,29,12.0,127.0
3591,55.0,0,29,11.0,96.0
3592,77.0,0,29,7.0,96.0
3593,60.0,0,59,2.0,96.0
3594,72.0,0,59,2.0,96.0
3595,84.0,0,59,0.0,96.0
3596,72.0,60,59,1.0,96.0
3597,59.0,0,62,10.0,96.0
3598,48.0,0,29,11.0,96.0
3599,76.0,0,29,7.0,96.0
3600,36.0,0,29,12.0,127.0
3601,60.0,30,29,8.0,96.0
3602,84.0,0,59,0.0,96.0
3603,60.0,60,59,2.0,96.0
3604,72.0,0,59,2.0,96.0
3605,48.0,0,179,3.0,96.0
3606,60.0,0,59,10.0,96.0
3607,72.0,0,59,1.0,96.0
3608,79.0,0,29,7.0,96.0
3609,58.0,0,29,11.0,96.0
3610,62.0,0,29,8.0,96.0
3611,60.0,0,29,10.0,96.0
3612,46.0,30,29,12.0,127.0
3613,72.0,0,59,2.0,96.0
3614,60.0,0,59,2.0,96.0
3615,48.0,0,59,3.0,96.0
3616,84.0,0,59,0.0,96.0
3617,63.0,30,29,8.0,96.0
3618,72.0,0,59,1.0,96.0
3619,60.0,0,29,10.0,96.0
3620,65.0,0,59,8.0,96.0
3621,48.0,30,59,3.0,96.0
3622,44.0,0,62,12.0,127.0
3623,56.0,0,62,11.0,96.0
3624,48.0,0,59,3.0,96.0
3625,60.0,60,59,11.0,96.0
3626,48.0,0,59,12.0,127.0
3627,60.0,0,62,10.0,96.0
3628,53.0,0,29,11.0,96.0
3629,41.0,0,29,12.0,127.0
3630,77.0,0,179,7.0,96.0
3631,84.0,0,179,0.0,96.0
3632,72.0,0,179,1.0,96.0
3633,72.0,0,179,2.0,96.0
3634,60.0,0,179,2.0,96.0
3635,48.0,60,59,3.0,96.0
3636,80.0,0,29,7.0,96.0
3637,84.0,60,59,0.0,96.0
3638,72.0,0,59,1.0,96.0
3639,72.0,0,59,2.0,96.0
3640,60.0,0,59,2.0,96.0
3641,48.0,0,59,3.0,96.0
3642,79.0,0,29,7.0,96.0
3643,84.0,0,59,0.0,96.0
3644,72.0,60,59,1.0,96.0
3645,60.0,0,59,2.0,96.0
3646,72.0,0,59,2.0,96.0
3647,48.0,0,59,3.0,96.0
3648,61.0,0,182,10.0,112.0
3649,43.0,0,29,12.0,127.0
3650,77.0,0,29,7.0,96.0
3651,55.0,0,29,11.0,96.0
3652,72.0,60,59,2.0,96.0
3653,84.0,0,59,0.0,96.0
3654,60.0,0,59,2.0,96.0
3655,72.0,0,59,1.0,96.0
3656,59.0,0,62,10.0,96.0
3657,76.0,0,29,7.0,96.0
3658,48.0,60,29,11.0,96.0
3659,36.0,0,29,12.0,127.0
3660,60.0,0,59,10.0,96.0
3661,72.0,0,59,1.0,96.0
3662,84.0,0,59,0.0,96.0
3663,60.0,0,59,2.0,96.0
3664,72.0,0,59,2.0,96.0
3665,79.0,0,29,7.0,96.0
3666,60.0,60,29,10.0,96.0
3667,46.0,0,29,12.0,127.0
3668,58.0,0,29,11.0,96.0
3669,72.0,0,59,2.0,96.0
3670,60.0,0,59,2.0,96.0
3671,72.0,0,239,8.0,112.0
3672,72.0,0,59,1.0,96.0
3673,84.0,0,59,0.0,96.0
3674,57.0,0,59,11.0,96.0
3675,45.0,0,59,12.0,127.0
3676,84.0,0,59,0.0,96.0
3677,72.0,0,59,7.0,96.0
3678,72.0,0,59,2.0,96.0
3679,60.0,0,59,2.0,96.0
3680,60.0,60,59,10.0,96.0
3681,72.0,0,59,1.0,96.0
3682,53.0,60,29,11.0,96.0
3683,69.0,0,29,7.0,96.0
3684,41.0,0,29,12.0,127.0
3685,40.0,30,29,12.0,127.0
3686,60.0,0,239,3.0,112.0
3687,52.0,0,29,11.0,96.0
3688,67.0,0,29,7.0,96.0
3689,69.0,0,29,7.0,96.0
3690,41.0,0,29,12.0,127.0
3691,53.0,0,29,11.0,96.0
3692,43.0,30,29,12.0,127.0
3693,55.0,0,29,11.0,96.0
3694,77.0,0,179,8.0,112.0
3695,70.0,0,29,7.0,96.0
3696,44.0,0,29,12.0,127.0
3697,72.0,0,29,7.0,96.0
3698,77.0,0,29,8.0,96.0
3699,56.0,30,29,11.0,96.0
3700,53.0,30,119,3.0,96.0
3701,46.0,0,29,12.0,127.0
3702,73.0,30,29,7.0,96.0
3703,58.0,0,29,11.0,96.0
3704,75.0,30,29,8.0,96.0
3705,75.0,0,59,7.0,96.0
3706,60.0,0,59,11.0,96.0
3707,48.0,0,59,12.0,127.0
3708,73.0,0,29,8.0,96.0
3709,46.0,60,59,12.0,127.0
3710,58.0,0,59,11.0,96.0
3711,72.0,60,29,8.0,96.0
3712,45.0,0,59,12.0,127.0
3713,57.0,0,59,11.0,96.0
3714,75.0,0,29,8.0,96.0
3715,60.0,0,59,11.0,96.0
3716,65.0,0,239,10.0,112.0
3717,48.0,60,59,12.0,127.0
3718,70.0,60,29,10.0,96.0
3719,46.0,0,59,12.0,127.0
3720,58.0,0,59,11.0,96.0
3721,73.0,0,59,8.0,96.0
3722,70.0,60,29,8.0,96.0
3723,68.0,0,29,10.0,96.0
3724,69.0,30,29,8.0,96.0
3725,77.0,0,239,1.0,112.0
3726,65.0,0,239,2.0,112.0
3727,67.0,0,29,10.0,96.0
3728,70.0,0,29,8.0,96.0
3729,72.0,30,29,8.0,96.0
3730,70.0,30,29,10.0,96.0
3731,73.0,0,29,8.0,96.0
3732,75.0,30,29,8.0,96.0
3733,58.0,0,119,2.0,96.0
3734,70.0,30,119,1.0,96.0
3735,77.0,30,29,8.0,96.0
3736,68.0,0,29,10.0,96.0
3737,67.0,60,29,10.0,96.0
3738,75.0,0,29,8.0,96.0
3739,65.0,0,29,10.0,96.0
3740,74.0,60,29,8.0,96.0
3741,68.0,0,29,10.0,96.0
3742,77.0,60,29,8.0,96.0
3743,82.0,0,239,7.0,112.0
3744,87.0,0,29,7.0,96.0
3745,67.0,60,59,10.0,96.0
3746,75.0,0,59,8.0,96.0
3747,63.0,60,29,10.0,96.0
3748,85.0,0,29,7.0,96.0
3749,67.0,0,29,8.0,96.0
3750,65.0,30,29,8.0,96.0
3751,62.0,0,29,10.0,96.0
3752,70.0,0,239,4.0,112.0
3753,58.0,0,239,4.0,112.0
3754,84.0,0,29,7.0,96.0
3755,63.0,0,29,10.0,96.0
3756,67.0,30,29,8.0,96.0
3757,65.0,30,29,10.0,96.0
3758,68.0,0,29,8.0,96.0
3759,87.0,0,29,7.0,96.0
3760,70.0,30,29,8.0,96.0
3761,67.0,0,29,10.0,96.0
3762,51.0,0,119,4.0,95.0
3763,72.0,0,29,8.0,96.0
3764,63.0,0,119,4.0,95.0
3765,68.0,30,29,10.0,96.0
3766,85.0,0,29,7.0,96.0
3767,73.0,0,59,8.0,96.0
3768,70.0,30,59,10.0,96.0
3769,84.0,60,29,7.0,96.0
3770,68.0,0,59,10.0,96.0
3771,74.0,0,59,8.0,96.0
3772,82.0,0,29,7.0,96.0
3773,75.0,0,59,8.0,96.0
3774,67.0,0,59,10.0,96.0
3775,85.0,0,29,7.0,96.0
3776,51.0,0,239,11.0,96.0
3777,67.0,60,59,10.0,96.0
3778,39.0,0,239,12.0,127.0
3779,70.0,0,119,8.0,96.0
3780,68.0,60,29,8.0,96.0
3781,63.0,0,119,10.0,96.0
3782,67.0,30,29,8.0,96.0
3783,70.0,60,242,2.0,96.0
3784,82.0,0,242,0.0,96.0
3785,68.0,0,29,8.0,96.0
3786,72.0,30,29,8.0,96.0
3787,70.0,30,29,8.0,96.0
3788,56.0,0,119,3.0,96.0
3789,68.0,30,29,8.0,96.0
3790,44.0,0,239,12.0,127.0
3791,56.0,0,239,11.0,96.0
3792,63.0,0,119,3.0,96.0
3793,68.0,0,122,2.0,96.0
3794,72.0,0,242,2.0,96.0
3795,80.0,0,122,0.0,96.0
3796,84.0,60,242,0.0,96.0
3797,84.0,0,242,7.0,96.0
3798,51.0,0,59,12.0,127.0
3799,63.0,0,59,11.0,96.0
3800,63.0,30,179,10.0,96.0
3801,63.0,60,29,10.0,96.0
3802,62.0,30,29,10.0,96.0
3803,79.0,30,122,0.0,96.0
3804,67.0,0,122,8.0,96.0
3805,67.0,0,122,2.0,96.0
3806,63.0,0,29,10.0,96.0
3807,39.0,0,59,12.0,127.0
3808,66.0,30,29,10.0,96.0
3809,51.0,30,59,11.0,96.0
3810,82.0,0,182,7.0,96.0
3811,66.0,0,62,2.0,96.0
3812,78.0,0,62,0.0,96.0
3813,70.0,0,182,2.0,96.0
3814,82.0,0,182,0.0,96.0
3815,65.0,0,29,10.0,96.0
3816,63.0,0,239,4.0,95.0
3817,51.0,0,239,4.0,95.0
3818,81.0,0,59,0.0,96.0
3819,84.0,0,59,0.0,96.0
3820,51.0,0,239,3.0,96.0
3821,63.0,30,29,10.0,96.0
3822,63.0,0,239,3.0,96.0
3823,84.0,0,59,7.0,96.0
3824,66.0,0,122,8.0,96.0
3825,72.0,30,62,2.0,96.0
3826,69.0,0,62,2.0,96.0
3827,65.0,0,59,8.0,96.0
3828,70.0,60,29,8.0,96.0
3829,58.0,0,119,4.0,95.0
3830,70.0,0,119,4.0,95.0
3831,69.0,30,29,8.0,96.0
3832,61.0,0,122,3.0,96.0
3833,61.0,0,122,10.0,96.0
3834,70.0,0,29,8.0,96.0
3835,73.0,30,29,8.0,96.0
3836,72.0,30,29,8.0,96.0
3837,70.0,0,239,2.0,96.0
3838,46.0,0,119,4.0,95.0
3839,58.0,0,119,4.0,95.0
3840,58.0,0,239,3.0,96.0
3841,46.0,0,239,12.0,127.0
3842,70.0,30,29,8.0,96.0
3843,58.0,30,239,11.0,96.0
3844,73.0,0,239,2.0,96.0
3845,82.0,0,239,0.0,96.0
3846,85.0,0,239,0.0,96.0
3847,85.0,0,239,7.0,96.0
3848,65.0,0,149,10.0,96.0
3849,60.0,30,29,10.0,96.0
3850,62.0,30,29,10.0,96.0
3851,64.0,30,29,10.0,96.0
3852,53.0,0,119,12.0,127.0
3853,65.0,0,119,11.0,96.0
3854,69.0,30,122,2.0,96.0
3855,81.0,0,122,0.0,96.0
3856,69.0,0,122,8.0,96.0
3857,65.0,0,29,10.0,96.0
3858,80.0,0,59,0.0,96.0
3859,67.0,30,29,10.0,96.0
3860,53.0,0,179,3.0,96.0
3861,65.0,30,302,3.0,96.0
3862,72.0,0,182,2.0,96.0
3863,84.0,0,182,0.0,96.0
3864,84.0,0,182,7.0,96.0
3865,65.0,0,29,10.0,96.0
3866,74.0,0,32,2.0,96.0
3867,86.0,0,32,7.0,96.0
3868,62.0,0,32,3.0,96.0
3869,86.0,0,32,0.0,96.0
3870,77.0,0,239,1.0,112.0
3871,63.0,0,29,10.0,96.0
3872,68.0,30,119,8.0,96.0
3873,53.0,0,59,3.0,96.0
3874,68.0,0,122,2.0,96.0
3875,80.0,30,62,0.0,96.0
3876,84.0,0,32,0.0,96.0
3877,72.0,30,32,2.0,96.0
3878,84.0,0,32,7.0,96.0
3879,63.0,0,32,3.0,96.0
3880,62.0,0,29,10.0,96.0
3881,71.0,0,59,2.0,96.0
3882,53.0,0,59,3.0,96.0
3883,65.0,0,59,3.0,96.0
3884,79.0,0,59,0.0,96.0
3885,41.0,0,179,12.0,127.0
3886,67.0,0,59,2.0,96.0
3887,83.0,0,59,7.0,96.0
3888,83.0,30,59,0.0,96.0
3889,53.0,0,179,11.0,96.0
3890,60.0,0,29,10.0,96.0
3891,39.0,0,59,12.0,127.0
3892,51.0,60,59,11.0,96.0
3893,83.0,0,119,1.0,96.0
3894,59.0,60,29,10.0,96.0
3895,50.0,0,59,11.0,96.0
3896,38.0,0,59,12.0,127.0
3897,62.0,60,29,10.0,96.0
3898,71.0,0,119,1.0,96.0
3899,53.0,0,59,11.0,96.0
3900,41.0,0,59,12.0,127.0
3901,67.0,0,239,8.0,112.0
3902,51.0,0,59,11.0,96.0
3903,39.0,0,59,12.0,127.0
3904,48.0,60,29,12.0,127.0
3905,60.0,0,29,11.0,96.0
3906,59.0,30,29,11.0,96.0
3907,47.0,0,29,12.0,127.0
3908,72.0,0,119,8.0,96.0
3909,60.0,60,119,10.0,96.0
3910,60.0,30,29,11.0,96.0
3911,48.0,0,29,12.0,127.0
3912,58.0,0,29,11.0,96.0
3913,46.0,30,29,12.0,127.0
3914,56.0,30,29,11.0,96.0
3915,44.0,0,29,12.0,127.0
3916,55.0,0,29,11.0,96.0
3917,60.0,0,119,8.0,96.0
3918,43.0,30,29,12.0,127.0
3919,75.0,0,239,7.0,112.0
3920,42.0,0,59,12.0,127.0
3921,81.0,0,59,7.0,96.0
3922,54.0,30,59,11.0,96.0
3923,50.0,60,29,11.0,96.0
3924,38.0,0,29,12.0,127.0
3925,49.0,30,29,11.0,96.0
3926,37.0,0,29,12.0,127.0
3927,38.0,0,29,12.0,127.0
3928,50.0,0,29,11.0,96.0
3929,69.0,30,59,7.0,96.0
3930,36.0,30,29,12.0,127.0
3931,48.0,0,29,11.0,96.0
3932,46.0,0,29,11.0,96.0
3933,34.0,30,29,12.0,127.0
3934,33.0,30,29,12.0,127.0
3935,45.0,0,29,11.0,96.0
3936,62.0,0,239,10.0,112.0
3937,43.0,0,59,11.0,96.0
3938,81.0,0,59,7.0,96.0
3939,31.0,30,59,12.0,127.0
3940,67.0,0,59,10.0,96.0
3941,43.0,0,29,12.0,127.0
3942,55.0,60,29,11.0,96.0
3943,42.0,0,29,12.0,127.0
3944,54.0,30,29,11.0,96.0
3945,82.0,0,239,8.0,112.0
3946,55.0,0,29,11.0,96.0
3947,43.0,0,29,12.0,127.0
3948,45.0,30,29,12.0,127.0
3949,70.0,0,59,8.0,96.0
3950,55.0,30,59,10.0,96.0
3951,69.0,0,59,7.0,96.0
3952,57.0,0,29,11.0,96.0
3953,58.0,0,29,11.0,96.0
3954,46.0,30,29,12.0,127.0
3955,43.0,30,29,12.0,127.0
3956,55.0,0,29,11.0,96.0
3957,62.0,0,239,3.0,96.0
3958,50.0,0,239,3.0,96.0
3959,55.0,30,29,3.0,112.0
3960,67.0,0,29,3.0,112.0
3961,82.0,0,59,8.0,112.0
3962,51.0,0,59,10.0,112.0
3963,39.0,0,59,12.0,127.0
3964,79.0,0,59,7.0,112.0
3965,51.0,0,59,11.0,112.0
3966,55.0,0,29,3.0,112.0
3967,43.0,0,29,3.0,112.0
3968,51.0,0,29,11.0,112.0
3969,39.0,60,29,12.0,127.0
3970,50.0,0,29,11.0,112.0
3971,38.0,30,29,12.0,127.0
3972,51.0,0,29,11.0,112.0
3973,39.0,0,29,12.0,127.0
3974,41.0,0,29,12.0,127.0
3975,70.0,0,59,8.0,112.0
3976,67.0,30,59,7.0,112.0
3977,53.0,30,29,11.0,112.0
3978,63.0,0,59,10.0,112.0
3979,39.0,30,29,12.0,127.0
3980,51.0,0,29,11.0,112.0
3981,50.0,0,29,11.0,112.0
3982,82.0,0,239,0.0,112.0
3983,38.0,30,29,12.0,127.0
3984,88.0,0,29,0.0,112.0
3985,37.0,30,59,12.0,127.0
3986,64.0,0,59,10.0,112.0
3987,79.0,0,59,7.0,112.0
3988,49.0,0,59,11.0,112.0
3989,81.0,0,59,8.0,112.0
3990,37.0,60,29,12.0,127.0
3991,49.0,0,29,11.0,112.0
3992,76.0,0,29,0.0,112.0
3993,35.0,30,29,12.0,127.0
3994,47.0,0,29,11.0,112.0
3995,37.0,30,29,12.0,127.0
3996,49.0,0,29,11.0,112.0
3997,52.0,0,59,10.0,112.0
3998,50.0,0,29,11.0,112.0
3999,67.0,0,59,7.0,112.0
4000,38.0,30,29,12.0,127.0
4001,69.0,0,59,8.0,112.0
4002,40.0,30,29,12.0,127.0
4003,52.0,0,29,11.0,112.0
4004,69.0,0,239,1.0,112.0
4005,49.0,0,29,11.0,112.0
4006,37.0,30,29,12.0,127.0
4007,69.0,0,239,2.0,112.0
4008,74.0,30,29,1.0,112.0
4009,38.0,0,59,12.0,127.0
4010,81.0,0,59,8.0,112.0
4011,50.0,0,59,10.0,112.0
4012,74.0,0,59,2.0,112.0
4013,77.0,0,59,7.0,112.0
4014,50.0,0,59,11.0,112.0
4015,40.0,0,29,12.0,127.0
4016,62.0,0,29,1.0,112.0
4017,52.0,60,29,11.0,112.0
4018,53.0,30,29,11.0,112.0
4019,62.0,0,59,2.0,112.0
4020,41.0,0,29,12.0,127.0
4021,55.0,30,29,11.0,112.0
4022,43.0,0,29,12.0,127.0
4023,65.0,0,59,7.0,112.0
4024,69.0,0,59,8.0,112.0
4025,45.0,0,29,12.0,127.0
4026,57.0,30,29,11.0,112.0
4027,47.0,30,29,12.0,127.0
4028,59.0,0,29,11.0,112.0
4029,49.0,0,29,12.0,127.0
4030,61.0,30,29,11.0,112.0
4031,62.0,0,29,11.0,112.0
4032,50.0,0,29,12.0,127.0
4033,62.0,0,179,10.0,112.0
4034,49.0,0,29,12.0,127.0
4035,77.0,0,59,7.0,112.0
4036,61.0,30,29,11.0,112.0
4037,81.0,30,59,8.0,112.0
4038,50.0,0,29,12.0,127.0
4039,62.0,0,29,11.0,112.0
4040,62.0,0,59,10.0,112.0
4041,61.0,0,29,11.0,112.0
4042,69.0,30,59,8.0,112.0
4043,49.0,30,29,12.0,127.0
4044,65.0,0,59,7.0,112.0
4045,50.0,0,29,12.0,127.0
4046,62.0,0,29,11.0,112.0
4047,77.0,30,59,7.0,112.0
4048,58.0,0,29,11.0,112.0
4049,81.0,0,59,8.0,112.0
4050,74.0,0,59,10.0,112.0
4051,46.0,30,29,12.0,127.0
4052,43.0,0,29,12.0,127.0
4053,55.0,0,29,11.0,112.0
4054,62.0,0,239,3.0,112.0
4055,50.0,0,239,3.0,112.0
4056,62.0,0,59,10.0,112.0
4057,69.0,30,59,8.0,112.0
4058,65.0,0,59,7.0,112.0
4059,86.0,0,239,0.0,112.0
4060,50.0,0,29,11.0,112.0
4061,38.0,30,29,12.0,127.0
4062,74.0,0,239,1.0,112.0
4063,74.0,30,29,10.0,127.0
4064,77.0,0,29,1.0,127.0
4065,77.0,0,29,7.0,126.0
4066,74.0,0,29,1.0,127.0
4067,83.0,0,29,8.0,126.0
4068,77.0,0,29,7.0,127.0
4069,62.0,0,29,10.0,127.0
4070,71.0,30,29,8.0,127.0
4071,56.0,0,59,3.0,127.0
4072,44.0,0,59,3.0,127.0
4073,56.0,0,59,11.0,127.0
4074,44.0,0,59,12.0,127.0
4075,77.0,0,29,7.0,127.0
4076,62.0,0,29,10.0,127.0
4077,65.0,0,29,1.0,127.0
4078,71.0,0,29,8.0,127.0
4079,62.0,0,29,1.0,127.0
4080,77.0,30,29,7.0,127.0
4081,56.0,0,59,11.0,127.0
4082,62.0,0,29,10.0,127.0
4083,44.0,0,59,12.0,127.0
4084,71.0,0,29,8.0,127.0
4085,71.0,0,29,8.0,127.0
4086,89.0,0,29,0.0,127.0
4087,86.0,0,29,0.0,127.0
4088,62.0,0,29,10.0,127.0
4089,77.0,0,29,7.0,127.0
4090,62.0,0,29,10.0,127.0
4091,44.0,0,59,12.0,127.0
4092,71.0,30,29,8.0,127.0
4093,56.0,0,59,11.0,127.0
4094,59.0,30,59,3.0,127.0
4095,77.0,0,29,7.0,127.0
4096,77.0,0,29,7.0,127.0
4097,71.0,0,29,8.0,127.0
4098,74.0,30,29,0.0,127.0
4099,77.0,0,29,0.0,127.0
4100,62.0,0,29,10.0,127.0
4101,77.0,30,29,7.0,127.0
4102,44.0,0,59,12.0,127.0
4103,56.0,0,59,11.0,127.0
4104,47.0,0,59,3.0,127.0
4105,62.0,0,29,10.0,127.0
4106,71.0,0,29,8.0,127.0
4107,71.0,0,29,8.0,127.0
4108,62.0,0,29,10.0,127.0
4109,77.0,30,29,7.0,127.0
4110,77.0,0,29,7.0,127.0
4111,86.0,0,59,0.0,127.0
4112,44.0,0,59,12.0,127.0
4113,89.0,0,59,0.0,127.0
4114,71.0,0,29,8.0,127.0
4115,77.0,0,59,1.0,127.0
4116,56.0,0,59,11.0,127.0
4117,74.0,0,59,1.0,127.0
4118,62.0,30,29,10.0,127.0
4119,62.0,0,59,3.0,127.0
4120,77.0,0,29,7.0,127.0
4121,62.0,0,29,10.0,127.0
4122,71.0,0,29,8.0,127.0
4123,77.0,0,29,7.0,127.0
4124,77.0,0,59,0.0,127.0
4125,62.0,0,59,1.0,127.0
4126,65.0,0,59,1.0,127.0
4127,50.0,30,59,3.0,127.0
4128,62.0,0,29,10.0,127.0
4129,74.0,0,59,0.0,127.0
4130,44.0,0,59,12.0,127.0
4131,71.0,30,29,8.0,127.0
4132,56.0,0,59,11.0,127.0
4133,71.0,0,29,8.0,127.0
4134,77.0,0,29,7.0,127.0
4135,62.0,0,29,10.0,127.0
4136,77.0,30,29,7.0,127.0
4137,62.0,0,29,10.0,127.0
4138,65.0,0,59,3.0,127.0
4139,74.0,0,59,1.0,127.0
4140,77.0,30,59,1.0,127.0
4141,44.0,0,59,12.0,127.0
4142,86.0,0,59,0.0,127.0
4143,56.0,0,59,11.0,127.0
4144,71.0,0,29,8.0,127.0
4145,89.0,0,59,0.0,127.0
4146,71.0,0,29,8.0,127.0
4147,77.0,0,29,7.0,127.0
4148,62.0,0,29,10.0,127.0
4149,62.0,30,29,10.0,127.0
4150,44.0,30,59,12.0,127.0
4151,44.0,30,419,3.0,127.0
4152,53.0,0,59,3.0,127.0
4153,71.0,0,29,8.0,127.0
4154,77.0,0,59,0.0,127.0
4155,74.0,0,59,0.0,127.0
4156,77.0,0,29,7.0,127.0
4157,65.0,0,59,1.0,127.0
4158,56.0,0,59,11.0,127.0
4159,62.0,0,59,1.0,127.0
4160,43.0,0,29,12.0,127.0
4161,55.0,0,29,11.0,127.0
4162,71.0,0,29,8.0,127.0
4163,62.0,0,29,10.0,127.0
4164,77.0,0,29,7.0,127.0
4165,62.0,0,29,10.0,127.0
4166,89.0,0,59,0.0,127.0
4167,43.0,0,29,12.0,127.0
4168,55.0,0,59,3.0,127.0
4169,55.0,30,29,11.0,127.0
4170,71.0,0,29,8.0,127.0
4171,77.0,0,59,1.0,127.0
4172,74.0,0,59,1.0,127.0
4173,43.0,30,59,3.0,127.0
4174,77.0,0,29,7.0,127.0
4175,86.0,0,59,0.0,127.0
4176,55.0,0,29,11.0,127.0
4177,71.0,0,29,8.0,127.0
4178,77.0,0,29,7.0,127.0
4179,43.0,0,29,12.0,127.0
4180,62.0,0,29,10.0,127.0
4181,77.0,0,59,0.0,127.0
4182,74.0,30,59,0.0,127.0
4183,71.0,0,29,8.0,127.0
4184,62.0,0,29,10.0,127.0
4185,65.0,0,59,1.0,127.0
4186,77.0,0,29,7.0,127.0
4187,62.0,0,59,1.0,127.0
4188,43.0,0,29,12.0,127.0
4189,55.0,30,29,11.0,127.0
4190,71.0,0,29,8.0,127.0
4191,43.0,0,29,12.0,127.0
4192,62.0,30,29,10.0,127.0
4193,55.0,0,29,11.0,127.0
4194,77.0,0,29,7.0,127.0
4195,62.0,0,29,10.0,127.0
4196,71.0,0,29,8.0,127.0
4197,59.0,0,59,3.0,127.0
4198,55.0,0,29,11.0,127.0
4199,77.0,30,29,7.0,127.0
4200,43.0,0,29,12.0,127.0
4201,43.0,0,29,12.0,127.0
4202,62.0,30,29,10.0,127.0
4203,55.0,0,29,11.0,127.0
4204,77.0,0,29,7.0,127.0
4205,71.0,0,29,8.0,127.0
4206,47.0,0,59,3.0,127.0
4207,77.0,0,29,7.0,127.0
4208,62.0,0,29,10.0,127.0
4209,43.0,30,29,12.0,127.0
4210,55.0,0,29,11.0,127.0
4211,71.0,0,29,8.0,127.0
4212,43.0,0,29,12.0,127.0
4213,77.0,30,29,7.0,127.0
4214,71.0,0,29,8.0,127.0
4215,55.0,0,29,11.0,127.0
4216,62.0,0,29,10.0,127.0
4217,77.0,0,59,1.0,127.0
4218,62.0,0,59,3.0,127.0
4219,74.0,0,59,1.0,127.0
4220,71.0,0,29,8.0,127.0
4221,43.0,30,29,12.0,127.0
4222,55.0,0,29,11.0,127.0
4223,89.0,0,59,0.0,127.0
4224,77.0,0,29,7.0,127.0
4225,62.0,0,29,10.0,127.0
4226,86.0,0,59,0.0,127.0
4227,62.0,0,29,10.0,127.0
4228,43.0,30,29,12.0,127.0
4229,71.0,0,29,8.0,127.0
4230,55.0,0,29,11.0,127.0
4231,77.0,0,29,7.0,127.0
4232,50.0,0,59,3.0,127.0
4233,71.0,30,29,8.0,127.0
4234,77.0,0,59,0.0,127.0
4235,74.0,0,59,0.0,127.0
4236,43.0,0,29,12.0,127.0
4237,65.0,0,59,1.0,127.0
4238,55.0,0,29,11.0,127.0
4239,62.0,0,59,1.0,127.0
4240,77.0,0,29,7.0,127.0
4241,62.0,0,29,10.0,127.0
4242,43.0,0,29,12.0,127.0
4243,71.0,0,29,8.0,127.0
4244,55.0,0,29,11.0,127.0
4245,62.0,30,29,10.0,127.0
4246,77.0,0,29,7.0,127.0
4247,43.0,30,29,12.0,127.0
4248,74.0,0,59,1.0,127.0
4249,77.0,0,59,1.0,127.0
4250,55.0,0,29,11.0,127.0
4251,77.0,0,29,7.0,127.0
4252,71.0,0,29,8.0,127.0
4253,62.0,0,29,10.0,127.0
4254,89.0,0,59,0.0,127.0
4255,86.0,0,59,0.0,127.0
4256,65.0,0,59,3.0,127.0
4257,43.0,0,29,12.0,127.0
4258,62.0,0,29,10.0,127.0
4259,55.0,30,29,11.0,127.0
4260,77.0,0,29,7.0,127.0
4261,71.0,0,29,8.0,127.0
4262,43.0,0,29,12.0,127.0
4263,55.0,0,29,11.0,127.0
4264,62.0,0,959,2.0,126.0
4265,77.0,0,959,2.0,126.0
4266,71.0,30,29,8.0,127.0
4267,77.0,0,29,7.0,127.0
4268,77.0,0,59,0.0,127.0
4269,62.0,0,29,10.0,127.0
4270,62.0,0,59,1.0,127.0
4271,65.0,0,59,1.0,127.0
4272,53.0,0,59,3.0,127.0
4273,43.0,0,419,3.0,127.0
4274,74.0,0,59,0.0,127.0
4275,71.0,0,59,8.0,48.0
4276,62.0,0,59,10.0,48.0
4277,42.0,0,59,3.0,48.0
4278,86.0,30,59,0.0,48.0
4279,78.0,0,119,2.0,48.0
4280,62.0,0,119,2.0,48.0
4281,74.0,0,119,1.0,47.0
4282,78.0,0,119,1.0,47.0
4283,59.0,60,59,10.0,48.0
4284,54.0,0,119,11.0,48.0
4285,62.0,0,59,8.0,48.0
4286,66.0,0,119,3.0,48.0
4287,42.0,0,119,12.0,80.0
4288,59.0,60,59,10.0,48.0
4289,62.0,0,59,8.0,48.0
4290,78.0,0,182,7.0,48.0
4291,90.0,0,182,0.0,48.0
4292,86.0,60,59,0.0,48.0
4293,59.0,0,59,10.0,48.0
4294,74.0,0,59,7.0,48.0
4295,62.0,0,59,8.0,48.0
4296,64.0,0,59,8.0,48.0
4297,61.0,60,59,8.0,48.0
4298,58.0,0,59,10.0,48.0
4299,42.0,0,119,13.0,48.0
4300,54.0,0,119,13.0,48.0
4301,61.0,0,59,8.0,48.0
4302,64.0,60,59,8.0,48.0
4303,58.0,0,59,10.0,48.0
4304,73.0,0,182,7.0,48.0
4305,85.0,60,182,0.0,48.0
4306,58.0,0,59,10.0,48.0
4307,88.0,0,59,0.0,48.0
4308,76.0,60,59,7.0,48.0
4309,64.0,0,59,8.0,48.0
4310,61.0,0,59,8.0,48.0
4311,42.0,0,119,13.0,48.0
4312,58.0,60,59,10.0,48.0
4313,54.0,0,119,13.0,48.0
4314,61.0,0,59,8.0,48.0
4315,64.0,0,59,8.0,48.0
4316,58.0,0,59,10.0,48.0
4317,61.0,0,59,8.0,48.0
4318,64.0,60,59,8.0,48.0
4319,91.0,60,182,0.0,48.0
4320,79.0,0,182,7.0,48.0
4321,61.0,0,59,8.0,48.0
4322,64.0,0,59,8.0,48.0
4323,76.0,0,59,7.0,48.0
4324,88.0,60,59,0.0,48.0
4325,58.0,0,59,10.0,48.0
4326,59.0,0,59,10.0,48.0
4327,47.0,0,119,13.0,48.0
4328,59.0,0,119,13.0,48.0
4329,62.0,60,59,8.0,48.0
4330,59.0,60,59,10.0,48.0
4331,62.0,0,59,8.0,48.0
4332,74.0,0,182,7.0,48.0
4333,86.0,60,182,0.0,48.0
4334,78.0,0,59,7.0,48.0
4335,59.0,0,59,10.0,48.0
4336,62.0,60,59,8.0,48.0
4337,90.0,0,59,0.0,48.0
4338,61.0,0,59,10.0,57.0
4339,93.0,0,119,0.0,48.0
4340,81.0,0,119,7.0,48.0
4341,49.0,0,119,13.0,48.0
4342,57.0,60,59,8.0,57.0
4343,61.0,60,119,13.0,48.0
4344,64.0,0,59,8.0,57.0
4345,93.0,60,119,0.0,71.0
4346,67.0,60,59,8.0,76.0
4347,57.0,0,59,8.0,76.0
4348,81.0,0,119,7.0,72.0
4349,45.0,0,119,13.0,67.0
4350,57.0,0,119,13.0,67.0
4351,61.0,0,59,10.0,76.0
4352,62.0,60,59,10.0,95.0
4353,57.0,0,59,8.0,95.0
4354,66.0,0,59,8.0,95.0
4355,62.0,0,119,13.0,86.0
4356,50.0,0,119,13.0,86.0
4357,62.0,60,59,10.0,81.0
4358,81.0,60,179,7.0,95.0
4359,66.0,0,59,8.0,81.0
4360,57.0,0,59,8.0,81.0
4361,93.0,0,179,0.0,96.0
4362,78.0,60,59,7.0,61.0
4363,62.0,0,59,10.0,65.0
4364,90.0,0,59,0.0,60.0
4365,50.0,0,59,13.0,65.0
4366,38.0,0,59,13.0,65.0
4367,66.0,0,59,8.0,65.0
4368,57.0,0,59,8.0,65.0
4369,93.0,0,32,0.0,48.0
4370,81.0,0,32,7.0,61.0
4371,79.0,0,29,7.0,61.0
4372,49.0,0,59,13.0,48.0
4373,37.0,60,59,13.0,48.0
4374,91.0,30,29,0.0,48.0
4375,88.0,0,29,0.0,48.0
4376,76.0,0,29,7.0,61.0
4377,33.0,0,59,13.0,48.0
4378,67.0,0,59,8.0,48.0
4379,64.0,30,59,10.0,48.0
4380,57.0,0,59,8.0,48.0
4381,45.0,0,59,13.0,48.0
4382,91.0,0,32,0.0,48.0
4383,79.0,0,32,7.0,61.0
4384,57.0,0,59,10.0,48.0
4385,50.0,0,59,13.0,48.0
4386,38.0,60,59,13.0,48.0
4387,90.0,0,29,0.0,48.0
4388,78.0,30,29,7.0,61.0
4389,74.0,0,29,7.0,61.0
4390,86.0,0,29,0.0,48.0
4391,57.0,0,59,8.0,48.0
4392,62.0,30,59,10.0,48.0
4393,42.0,0,59,13.0,48.0
4394,54.0,0,59,13.0,48.0
4395,66.0,0,59,8.0,48.0
4396,33.0,60,59,13.0,48.0
4397,45.0,0,59,13.0,48.0
4398,57.0,60,59,13.0,48.0
4399,45.0,0,59,13.0,48.0
4400,68.0,0,62,8.0,48.0
4401,90.0,0,122,0.0,48.0
4402,78.0,0,122,7.0,61.0
4403,62.0,0,62,10.0,48.0
4404,88.0,0,59,0.0,48.0
4405,33.0,0,59,13.0,48.0
4406,76.0,60,59,7.0,61.0
4407,45.0,0,59,13.0,48.0
4408,69.0,0,59,8.0,48.0
4409,61.0,0,59,10.0,48.0
4410,86.0,60,29,0.0,48.0
4411,78.0,0,29,1.0,47.0
4412,81.0,60,29,1.0,47.0
4413,90.0,0,29,0.0,48.0
4414,62.0,0,29,7.0,48.0
4415,64.0,30,29,7.0,48.0
4416,78.0,0,29,1.0,47.0
4417,90.0,0,29,0.0,48.0
4418,81.0,0,29,1.0,47.0
4419,66.0,30,29,7.0,48.0
4420,67.0,30,29,7.0,48.0
4421,78.0,0,29,1.0,47.0
4422,81.0,30,29,1.0,47.0
4423,69.0,0,29,7.0,48.0
4424,90.0,0,29,0.0,48.0
4425,71.0,30,29,7.0,48.0
4426,73.0,0,29,7.0,48.0
4427,81.0,30,29,1.0,47.0
4428,78.0,0,29,1.0,47.0
4429,86.0,0,29,0.0,48.0
4430,74.0,30,29,7.0,48.0
4431,79.0,0,29,1.0,47.0
4432,85.0,0,29,0.0,48.0
4433,81.0,0,29,1.0,47.0
4434,76.0,30,29,7.0,48.0
4435,78.0,30,29,7.0,48.0
4436,79.0,30,29,7.0,48.0
4437,79.0,0,29,1.0,47.0
4438,81.0,0,29,1.0,47.0
4439,85.0,0,29,0.0,48.0
4440,78.0,30,29,7.0,48.0
4441,76.0,0,29,7.0,48.0
4442,81.0,0,29,1.0,47.0
4443,79.0,0,29,1.0,47.0
4444,85.0,30,29,0.0,48.0
4445,74.0,30,29,7.0,48.0
4446,81.0,0,29,1.0,47.0
4447,79.0,0,29,1.0,47.0
4448,73.0,0,29,7.0,48.0
4449,88.0,30,29,0.0,48.0
4450,71.0,30,29,7.0,48.0
4451,79.0,0,29,1.0,47.0
4452,69.0,0,29,7.0,48.0
4453,91.0,30,29,0.0,48.0
4454,81.0,0,29,1.0,47.0
4455,68.0,30,29,7.0,48.0
4456,81.0,30,29,1.0,47.0
4457,79.0,0,29,1.0,47.0
4458,91.0,0,29,0.0,48.0
4459,69.0,0,29,7.0,48.0
4460,71.0,30,29,7.0,48.0
4461,79.0,30,29,1.0,47.0
4462,81.0,0,29,1.0,47.0
4463,73.0,0,29,7.0,48.0
4464,91.0,0,29,0.0,48.0
4465,69.0,30,29,7.0,48.0
4466,79.0,0,29,1.0,47.0
4467,71.0,30,29,7.0,48.0
4468,88.0,0,29,0.0,48.0
4469,81.0,0,29,1.0,47.0
4470,73.0,30,29,7.0,48.0
4471,74.0,0,29,7.0,48.0
4472,86.0,30,59,0.0,48.0
4473,62.0,30,29,7.0,48.0
4474,81.0,0,59,1.0,47.0
4475,78.0,0,59,1.0,47.0
4476,64.0,0,29,7.0,48.0
4477,81.0,0,59,1.0,47.0
4478,86.0,0,59,0.0,48.0
4479,66.0,30,29,7.0,48.0
4480,78.0,30,59,1.0,47.0
4481,67.0,0,29,7.0,48.0
4482,69.0,30,29,7.0,48.0
4483,81.0,30,59,1.0,47.0
4484,78.0,0,59,1.0,47.0
4485,86.0,0,59,0.0,48.0
4486,71.0,0,29,7.0,48.0
4487,78.0,30,59,1.0,47.0
4488,81.0,0,59,1.0,47.0
4489,81.0,0,59,0.0,48.0
4490,73.0,30,29,7.0,48.0
4491,90.0,0,59,0.0,48.0
4492,74.0,0,29,7.0,48.0
4493,81.0,0,59,0.0,48.0
4494,93.0,30,59,0.0,48.0
4495,74.0,0,59,1.0,47.0
4496,78.0,0,59,1.0,47.0
4497,78.0,30,29,7.0,49.0
4498,76.0,0,29,7.0,50.0
4499,74.0,0,59,1.0,49.0
4500,78.0,30,59,1.0,49.0
4501,93.0,0,59,0.0,50.0
4502,74.0,30,29,7.0,51.0
4503,81.0,0,59,0.0,50.0
4504,73.0,0,29,7.0,52.0
4505,76.0,0,59,1.0,51.0
4506,79.0,0,59,1.0,51.0
4507,74.0,30,29,7.0,53.0
4508,81.0,0,59,0.0,52.0
4509,93.0,30,59,0.0,52.0
4510,71.0,0,29,7.0,54.0
4511,93.0,0,59,0.0,54.0
4512,79.0,0,59,1.0,53.0
4513,73.0,30,29,7.0,55.0
4514,81.0,30,59,0.0,54.0
4515,76.0,0,59,1.0,53.0
4516,74.0,0,29,7.0,56.0
4517,78.0,0,59,1.0,55.0
4518,74.0,30,59,1.0,55.0
4519,93.0,0,59,0.0,56.0
4520,81.0,0,59,0.0,56.0
4521,73.0,30,29,7.0,57.0
4522,74.0,0,29,7.0,58.0
4523,78.0,30,59,1.0,57.0
4524,81.0,0,59,1.0,57.0
4525,73.0,30,29,7.0,59.0
4526,81.0,0,59,0.0,58.0
4527,93.0,0,59,0.0,58.0
4528,74.0,0,29,7.0,60.0
4529,78.0,0,59,1.0,59.0
4530,81.0,0,59,1.0,59.0
4531,73.0,30,29,7.0,61.0
4532,93.0,0,59,0.0,60.0
4533,81.0,30,59,0.0,60.0
4534,74.0,0,29,7.0,62.0
4535,90.0,0,59,0.0,62.0
4536,83.0,0,59,0.0,62.0
4537,75.0,30,29,7.0,63.0
4538,81.0,30,59,1.0,61.0
4539,78.0,0,59,1.0,61.0
4540,76.0,30,29,7.0,48.0
4541,79.0,0,59,1.0,47.0
4542,83.0,0,59,0.0,48.0
4543,91.0,0,59,0.0,48.0
4544,69.0,30,29,7.0,48.0
4545,71.0,0,29,7.0,48.0
4546,88.0,0,59,0.0,48.0
4547,81.0,30,59,0.0,48.0
4548,76.0,0,59,1.0,47.0
4549,79.0,0,59,1.0,47.0
4550,73.0,30,29,7.0,48.0
4551,74.0,0,29,7.0,48.0
4552,78.0,0,59,1.0,47.0
4553,90.0,0,59,0.0,48.0
4554,81.0,0,59,0.0,48.0
4555,74.0,30,59,1.0,47.0
4556,69.0,30,29,7.0,48.0
4557,66.0,0,29,7.0,48.0
4558,78.0,0,59,1.0,47.0
4559,74.0,0,59,1.0,47.0
4560,81.0,30,59,0.0,48.0
4561,86.0,0,59,0.0,48.0
4562,62.0,30,29,7.0,48.0
4563,57.0,0,29,7.0,48.0
4564,62.0,30,29,7.0,48.0
4565,81.0,0,59,0.0,48.0
4566,74.0,0,59,1.0,47.0
4567,90.0,30,59,0.0,48.0
4568,78.0,0,59,1.0,47.0
4569,66.0,0,29,7.0,48.0
4570,90.0,0,59,0.0,48.0
4571,69.0,30,29,7.0,48.0
4572,78.0,0,59,1.0,47.0
4573,74.0,30,59,1.0,47.0
4574,81.0,0,59,0.0,48.0
4575,73.0,0,59,1.0,47.0
4576,81.0,0,59,0.0,48.0
4577,57.0,0,59,7.0,48.0
4578,88.0,30,59,0.0,48.0
4579,76.0,0,59,1.0,47.0
4580,69.0,60,29,0.0,48.0
4581,73.0,30,29,0.0,48.0
4582,76.0,0,29,0.0,48.0
4583,67.0,30,32,7.0,48.0
4584,79.0,0,29,0.0,48.0
4585,58.0,0,62,10.0,48.0
4586,64.0,30,32,7.0,48.0
4587,85.0,0,29,0.0,48.0
4588,67.0,30,32,7.0,48.0
4589,88.0,0,29,0.0,48.0
4590,45.0,0,119,13.0,48.0
4591,33.0,0,119,13.0,48.0
4592,57.0,0,59,10.0,48.0
4593,64.0,30,32,7.0,48.0
4594,91.0,30,29,0.0,48.0
4595,67.0,0,32,7.0,48.0
4596,88.0,30,29,0.0,48.0
4597,70.0,0,62,8.0,48.0
4598,64.0,0,32,7.0,48.0
4599,85.0,30,29,0.0,48.0
4600,67.0,0,32,7.0,48.0
4601,69.0,0,59,8.0,48.0
4602,64.0,0,29,7.0,48.0
4603,79.0,30,29,0.0,48.0
4604,76.0,0,29,0.0,48.0
4605,67.0,0,32,7.0,48.0
4606,78.0,0,29,0.0,48.0
4607,59.0,0,62,10.0,48.0
4608,64.0,30,32,7.0,48.0
4609,79.0,0,29,0.0,48.0
4610,67.0,0,32,7.0,48.0
4611,57.0,30,59,10.0,48.0
4612,76.0,30,29,0.0,48.0
4613,33.0,30,119,13.0,48.0
4614,45.0,0,119,13.0,48.0
4615,64.0,0,32,7.0,48.0
4616,73.0,30,29,0.0,48.0
4617,67.0,0,32,7.0,48.0
4618,76.0,30,29,0.0,48.0
4619,71.0,0,62,8.0,48.0
4620,64.0,0,32,7.0,48.0
4621,69.0,0,29,0.0,48.0
4622,67.0,30,32,7.0,48.0
4623,64.0,30,29,7.0,48.0
4624,73.0,0,29,0.0,48.0
4625,69.0,0,59,8.0,48.0
4626,76.0,0,29,0.0,48.0
4627,67.0,0,32,7.0,48.0
4628,79.0,0,29,0.0,48.0
4629,64.0,30,32,7.0,48.0
4630,58.0,0,62,10.0,48.0
4631,85.0,30,29,0.0,48.0
4632,67.0,0,32,7.0,48.0
4633,33.0,30,119,13.0,48.0
4634,57.0,0,59,10.0,48.0
4635,88.0,30,29,0.0,48.0
4636,45.0,0,119,13.0,48.0
4637,64.0,0,32,7.0,48.0
4638,91.0,0,29,0.0,48.0
4639,67.0,30,32,7.0,48.0
4640,88.0,0,29,0.0,48.0
4641,64.0,30,32,7.0,48.0
4642,70.0,0,62,8.0,48.0
4643,85.0,0,29,0.0,48.0
4644,67.0,30,32,7.0,48.0
4645,64.0,30,29,7.0,48.0
4646,79.0,0,29,0.0,48.0
4647,69.0,0,59,8.0,48.0
4648,76.0,0,29,0.0,48.0
4649,61.0,0,32,7.0,48.0
4650,78.0,30,29,0.0,48.0
4651,57.0,0,62,10.0,48.0
4652,64.0,0,32,7.0,48.0
4653,79.0,0,29,0.0,48.0
4654,61.0,30,32,7.0,48.0
4655,55.0,0,59,10.0,48.0
4656,43.0,30,119,13.0,48.0
4657,81.0,0,29,0.0,48.0
4658,55.0,0,119,13.0,48.0
4659,64.0,30,32,7.0,48.0
4660,82.0,0,29,0.0,48.0
4661,61.0,0,32,7.0,48.0
4662,83.0,0,29,0.0,48.0
4663,69.0,30,62,8.0,48.0
4664,64.0,30,32,7.0,48.0
4665,84.0,0,29,0.0,48.0
4666,61.0,0,32,7.0,48.0
4667,85.0,30,29,0.0,48.0
4668,64.0,0,29,7.0,48.0
4669,67.0,30,59,8.0,48.0
4670,86.0,0,29,0.0,48.0
4671,69.0,0,32,7.0,48.0
4672,85.0,0,29,0.0,48.0
4673,57.0,30,32,7.0,48.0
4674,55.0,30,62,10.0,48.0
4675,86.0,30,29,0.0,48.0
4676,62.0,0,32,7.0,48.0
4677,42.0,0,119,13.0,48.0
4678,54.0,0,119,13.0,48.0
4679,85.0,30,29,0.0,48.0
4680,54.0,0,59,10.0,48.0
4681,57.0,0,32,7.0,48.0
4682,86.0,0,29,0.0,48.0
4683,62.0,30,32,7.0,48.0
4684,85.0,30,29,0.0,48.0
4685,57.0,0,32,7.0,48.0
4686,67.0,0,62,8.0,48.0
4687,86.0,0,29,0.0,48.0
4688,62.0,30,32,7.0,48.0
4689,66.0,0,59,8.0,48.0
4690,57.0,30,29,7.0,48.0
4691,85.0,0,29,0.0,48.0
4692,83.0,0,29,0.0,48.0
4693,62.0,30,32,7.0,48.0
4694,81.0,0,29,0.0,48.0
4695,57.0,0,62,10.0,48.0
4696,59.0,30,32,7.0,48.0
4697,79.0,30,29,0.0,48.0
4698,62.0,0,32,7.0,48.0
4699,78.0,0,29,0.0,48.0
4700,55.0,0,59,10.0,48.0
4701,55.0,0,119,13.0,48.0
4702,43.0,0,119,13.0,48.0
4703,59.0,30,32,7.0,48.0
4704,76.0,0,29,0.0,48.0
4705,62.0,30,32,7.0,48.0
4706,74.0,30,29,0.0,48.0
4707,59.0,0,32,7.0,48.0
4708,69.0,0,62,8.0,48.0
4709,73.0,30,29,0.0,48.0
4710,62.0,0,32,7.0,48.0
4711,71.0,30,29,0.0,48.0
4712,59.0,0,29,7.0,48.0
4713,67.0,0,59,8.0,48.0
4714,66.0,0,29,7.0,48.0
4715,45.0,0,59,13.0,48.0
4716,62.0,30,29,7.0,48.0
4717,69.0,30,59,0.0,48.0
4718,57.0,0,59,13.0,48.0
4719,56.0,0,62,10.0,48.0
4720,66.0,0,29,7.0,48.0
4721,62.0,30,29,7.0,48.0
4722,57.0,30,59,10.0,48.0
4723,76.0,0,9,0.0,48.0
4724,78.0,10,9,0.0,48.0
4725,76.0,10,9,0.0,48.0
4726,61.0,30,29,7.0,48.0
4727,78.0,0,9,0.0,48.0
4728,76.0,10,9,0.0,48.0
4729,33.0,0,59,13.0,48.0
4730,45.0,0,59,13.0,48.0
4731,78.0,10,9,0.0,48.0
4732,64.0,10,29,7.0,48.0
4733,56.0,0,62,10.0,48.0
4734,68.0,0,62,8.0,48.0
4735,76.0,10,9,0.0,48.0
4736,78.0,10,9,0.0,48.0
4737,69.0,0,29,7.0,48.0
4738,76.0,10,9,0.0,48.0
4739,78.0,0,14,0.0,48.0
4740,73.0,10,29,7.0,48.0
4741,57.0,0,59,10.0,48.0
4742,76.0,15,14,0.0,48.0
4743,69.0,0,59,8.0,48.0
4744,50.0,0,39,11.0,48.0
4745,50.0,0,39,10.0,48.0
4746,38.0,0,39,12.0,80.0
4747,66.0,15,39,7.0,48.0
4748,62.0,0,39,8.0,48.0
4749,74.0,0,39,7.0,48.0
4750,74.0,0,59,0.0,48.0
4751,69.0,40,39,7.0,56.0
4752,57.0,0,39,11.0,56.0
4753,45.0,0,39,12.0,88.0
4754,69.0,0,39,8.0,56.0
4755,69.0,0,39,10.0,56.0
4756,43.0,0,39,12.0,96.0
4757,55.0,40,39,11.0,64.0
4758,67.0,0,39,10.0,64.0
4759,67.0,0,39,7.0,64.0
4760,67.0,0,39,8.0,64.0
4761,42.0,0,39,12.0,104.0
4762,66.0,0,39,7.0,72.0
4763,66.0,0,39,8.0,72.0
4764,66.0,40,39,10.0,72.0
4765,54.0,0,39,11.0,72.0
4766,64.0,40,39,8.0,80.0
4767,64.0,0,39,7.0,80.0
4768,64.0,0,39,10.0,79.0
4769,52.0,0,39,11.0,80.0
4770,40.0,0,39,12.0,112.0
4771,50.0,40,39,11.0,88.0
4772,62.0,0,39,7.0,88.0
4773,62.0,0,39,10.0,87.0
4774,62.0,0,39,8.0,88.0
4775,38.0,0,39,12.0,120.0
4776,46.0,40,42,11.0,96.0
4777,58.0,0,42,8.0,96.0
4778,34.0,0,42,12.0,127.0
4779,58.0,0,42,7.0,96.0
4780,58.0,0,42,10.0,95.0
4781,57.0,0,39,8.0,96.0
4782,57.0,0,39,7.0,96.0
4783,45.0,0,39,11.0,96.0
4784,57.0,0,39,10.0,95.0
4785,33.0,40,39,12.0,127.0
4786,57.0,40,19,7.0,96.0
4787,57.0,0,19,8.0,96.0
4788,33.0,0,19,12.0,127.0
4789,57.0,0,19,10.0,95.0
4790,45.0,0,19,11.0,96.0
4791,67.0,0,39,10.0,112.0
4792,76.0,0,39,7.0,112.0
4793,85.0,40,39,0.0,112.0
4794,57.0,0,39,3.0,112.0
4795,73.0,0,39,1.0,112.0
4796,73.0,0,39,8.0,112.0
4797,67.0,0,39,2.0,112.0
4798,88.0,0,39,0.0,112.0
4799,45.0,0,39,3.0,112.0
4800,76.0,0,39,1.0,112.0
4801,88.0,0,39,0.0,96.0
4802,73.0,40,39,8.0,96.0
4803,67.0,0,39,2.0,96.0
4804,76.0,0,39,1.0,96.0
4805,67.0,0,39,10.0,95.0
4806,73.0,0,39,1.0,96.0
4807,76.0,0,39,7.0,96.0
4808,45.0,0,39,3.0,96.0
4809,57.0,0,39,3.0,96.0
4810,85.0,0,39,0.0,96.0
4811,85.0,0,39,0.0,96.0
4812,73.0,0,39,1.0,96.0
4813,57.0,0,39,3.0,96.0
4814,76.0,40,39,1.0,96.0
4815,45.0,0,39,3.0,96.0
4816,67.0,0,39,10.0,95.0
4817,73.0,0,39,8.0,96.0
4818,67.0,0,39,2.0,96.0
4819,88.0,0,39,0.0,96.0
4820,76.0,0,39,7.0,96.0
4821,59.0,0,42,8.0,96.0
4822,59.0,0,42,10.0,95.0
4823,59.0,0,42,7.0,96.0
4824,35.0,0,42,12.0,127.0
4825,47.0,40,42,11.0,96.0
4826,57.0,0,39,10.0,95.0
4827,57.0,0,39,7.0,96.0
4828,33.0,0,39,12.0,127.0
4829,45.0,40,39,11.0,96.0
4830,57.0,0,39,8.0,96.0
4831,57.0,0,19,10.0,95.0
4832,33.0,0,19,12.0,127.0
4833,45.0,0,19,11.0,96.0
4834,57.0,0,19,8.0,96.0
4835,57.0,40,19,7.0,96.0
4836,79.0,0,39,1.0,112.0
4837,79.0,0,39,7.0,112.0
4838,76.0,0,39,1.0,112.0
4839,73.0,0,39,10.0,112.0
4840,91.0,0,39,0.0,111.0
4841,76.0,0,39,8.0,112.0
4842,57.0,40,39,3.0,112.0
4843,45.0,0,39,3.0,112.0
4844,67.0,0,39,2.0,112.0
4845,64.0,0,39,2.0,112.0
4846,85.0,0,39,0.0,111.0
4847,91.0,0,39,0.0,96.0
4848,73.0,40,39,10.0,95.0
4849,85.0,0,39,0.0,96.0
4850,79.0,0,39,1.0,96.0
4851,57.0,0,39,3.0,96.0
4852,45.0,0,39,3.0,96.0
4853,67.0,0,39,2.0,96.0
4854,76.0,0,39,8.0,96.0
4855,79.0,0,39,7.0,96.0
4856,76.0,0,39,1.0,96.0
4857,73.0,0,39,10.0,95.0
4858,79.0,0,39,7.0,96.0
4859,91.0,0,39,0.0,96.0
4860,79.0,0,39,1.0,96.0
4861,76.0,0,39,8.0,96.0
4862,57.0,0,39,3.0,96.0
4863,45.0,0,39,3.0,96.0
4864,76.0,0,39,1.0,96.0
4865,67.0,40,39,2.0,96.0
4866,85.0,0,39,0.0,96.0
4867,58.0,0,42,7.0,96.0
4868,58.0,0,42,10.0,95.0
4869,34.0,0,42,12.0,127.0
4870,46.0,0,42,11.0,96.0
4871,58.0,40,42,8.0,96.0
4872,57.0,40,39,7.0,96.0
4873,57.0,0,39,10.0,95.0
4874,33.0,0,39,12.0,127.0
4875,45.0,0,39,11.0,96.0
4876,57.0,0,39,8.0,96.0
4877,33.0,0,19,12.0,127.0
4878,45.0,0,19,11.0,96.0
4879,57.0,40,19,10.0,95.0
4880,57.0,0,19,8.0,96.0
4881,57.0,0,19,7.0,96.0
4882,67.0,0,39,2.0,112.0
4883,85.0,40,39,7.0,112.0
4884,45.0,0,39,3.0,112.0
4885,57.0,0,39,3.0,112.0
4886,73.0,0,39,1.0,112.0
4887,76.0,0,39,1.0,112.0
4888,76.0,0,39,10.0,112.0
4889,79.0,0,39,8.0,112.0
4890,88.0,0,39,0.0,112.0
4891,85.0,0,39,0.0,112.0
4892,67.0,0,39,2.0,96.0
4893,76.0,0,39,10.0,95.0
4894,85.0,0,39,7.0,96.0
4895,57.0,0,39,3.0,96.0
4896,79.0,40,39,8.0,96.0
4897,76.0,0,39,1.0,96.0
4898,73.0,0,39,1.0,96.0
4899,45.0,0,39,3.0,96.0
4900,85.0,0,39,0.0,96.0
4901,88.0,0,39,0.0,96.0
4902,73.0,0,39,1.0,96.0
4903,67.0,0,39,2.0,96.0
4904,76.0,0,39,1.0,96.0
4905,88.0,0,39,0.0,96.0
4906,85.0,0,39,0.0,96.0
4907,85.0,0,39,7.0,96.0
4908,57.0,0,39,3.0,96.0
4909,79.0,0,39,8.0,96.0
4910,76.0,40,39,10.0,95.0
4911,45.0,0,39,3.0,96.0
4912,71.0,0,42,7.0,96.0
4913,35.0,0,42,12.0,127.0
4914,59.0,40,42,10.0,95.0
4915,59.0,0,42,8.0,96.0
4916,47.0,0,42,11.0,96.0
4917,69.0,0,39,7.0,96.0
4918,33.0,0,39,12.0,127.0
4919,57.0,0,39,10.0,95.0
4920,45.0,0,39,11.0,96.0
4921,57.0,40,39,8.0,96.0
4922,45.0,0,19,11.0,96.0
4923,57.0,0,19,8.0,96.0
4924,57.0,0,19,10.0,95.0
4925,33.0,0,19,12.0,127.0
4926,69.0,40,19,7.0,96.0
4927,73.0,0,39,1.0,96.0
4928,55.0,0,39,3.0,96.0
4929,43.0,0,39,3.0,96.0
4930,69.0,0,39,2.0,96.0
4931,88.0,0,39,0.0,96.0
4932,85.0,0,39,0.0,96.0
4933,76.0,0,39,1.0,96.0
4934,64.0,0,39,2.0,96.0
4935,57.0,0,42,10.0,95.0
4936,69.0,0,42,7.0,96.0
4937,45.0,40,42,11.0,96.0
4938,33.0,0,42,12.0,127.0
4939,57.0,0,42,8.0,96.0
4940,88.0,0,39,0.0,96.0
4941,55.0,0,39,8.0,96.0
4942,73.0,0,39,1.0,96.0
4943,43.0,0,39,11.0,96.0
4944,69.0,40,39,2.0,96.0
4945,64.0,0,39,2.0,96.0
4946,55.0,0,39,10.0,95.0
4947,43.0,0,39,3.0,96.0
4948,55.0,0,39,3.0,96.0
4949,67.0,0,39,7.0,96.0
4950,76.0,0,39,1.0,96.0
4951,31.0,0,39,12.0,127.0
4952,85.0,0,39,0.0,96.0
4953,55.0,0,19,8.0,96.0
4954,43.0,0,19,11.0,96.0
4955,31.0,0,19,12.0,127.0
4956,55.0,0,19,10.0,95.0
4957,67.0,0,19,7.0,96.0
4958,55.0,0,39,3.0,96.0
4959,73.0,0,39,1.0,96.0
4960,85.0,0,39,0.0,96.0
4961,69.0,0,39,2.0,96.0
4962,43.0,0,39,3.0,96.0
4963,64.0,0,39,2.0,96.0
4964,76.0,40,39,1.0,96.0
4965,88.0,0,39,0.0,96.0
4966,55.0,40,42,10.0,95.0
4967,43.0,0,42,11.0,96.0
4968,67.0,0,42,8.0,96.0
4969,67.0,0,42,7.0,96.0
4970,31.0,0,42,12.0,127.0
4971,66.0,0,39,8.0,96.0
4972,66.0,0,39,7.0,96.0
4973,30.0,0,39,12.0,127.0
4974,54.0,0,39,10.0,95.0
4975,42.0,40,39,11.0,96.0
4976,42.0,0,19,11.0,96.0
4977,30.0,0,19,12.0,127.0
4978,54.0,40,19,10.0,95.0
4979,66.0,0,19,8.0,96.0
4980,66.0,0,19,7.0,96.0
4981,54.0,0,39,3.0,96.0
4982,74.0,0,39,1.0,96.0
4983,81.0,0,39,1.0,96.0
4984,74.0,0,39,7.0,96.0
4985,90.0,0,39,0.0,96.0
4986,86.0,0,39,7.0,96.0
4987,86.0,0,39,0.0,96.0
4988,81.0,0,39,8.0,96.0
4989,66.0,0,39,10.0,95.0
4990,42.0,0,39,3.0,96.0
4991,74.0,40,39,2.0,96.0
4992,69.0,0,39,8.0,96.0
4993,42.0,0,39,12.0,127.0
4994,54.0,0,39,11.0,96.0
4995,69.0,0,39,2.0,96.0
4996,42.0,0,39,12.0,127.0
4997,74.0,0,39,1.0,96.0
4998,54.0,0,39,11.0,96.0
4999,81.0,0,39,1.0,96.0
5000,69.0,0,39,2.0,96.0
5001,42.0,0,39,3.0,96.0
5002,90.0,0,39,0.0,96.0
5003,74.0,0,39,2.0,96.0
5004,66.0,0,39,10.0,95.0
5005,86.0,0,39,0.0,96.0
5006,81.0,0,39,8.0,96.0
5007,69.0,0,39,8.0,96.0
5008,86.0,0,39,7.0,96.0
5009,74.0,0,39,7.0,96.0
5010,54.0,40,39,3.0,96.0
5011,54.0,0,39,11.0,96.0
5012,74.0,0,39,7.0,96.0
5013,86.0,0,39,7.0,96.0
5014,42.0,0,39,3.0,96.0
5015,54.0,0,39,3.0,96.0
5016,81.0,0,39,1.0,96.0
5017,74.0,0,39,1.0,96.0
5018,81.0,40,39,8.0,96.0
5019,42.0,0,39,12.0,127.0
5020,69.0,0,39,8.0,96.0
5021,90.0,0,39,0.0,96.0
5022,74.0,0,39,2.0,96.0
5023,69.0,0,39,2.0,96.0
5024,66.0,0,39,10.0,95.0
5025,86.0,0,39,0.0,96.0
5026,69.0,0,42,8.0,112.0
5027,57.0,0,42,10.0,112.0
5028,69.0,0,42,7.0,112.0
5029,33.0,0,42,12.0,127.0
5030,45.0,40,42,11.0,112.0
5031,67.0,0,39,8.0,96.0
5032,43.0,0,39,11.0,96.0
5033,55.0,0,39,10.0,95.0
5034,67.0,40,39,7.0,96.0
5035,31.0,0,39,12.0,127.0
5036,67.0,0,19,8.0,96.0
5037,67.0,0,19,7.0,96.0
5038,55.0,0,19,10.0,95.0
5039,43.0,0,19,11.0,96.0
5040,31.0,40,19,12.0,127.0
5041,43.0,40,39,12.0,127.0
5042,83.0,0,39,0.0,96.0
5043,86.0,0,39,0.0,96.0
5044,86.0,0,39,7.0,96.0
5045,71.0,0,39,2.0,96.0
5046,74.0,0,39,2.0,96.0
5047,71.0,0,39,8.0,96.0
5048,76.0,0,39,7.0,96.0
5049,55.0,0,39,3.0,96.0
5050,76.0,0,39,1.0,96.0
5051,74.0,0,39,1.0,96.0
5052,55.0,0,39,11.0,96.0
5053,67.0,0,39,10.0,95.0
5054,43.0,0,39,3.0,96.0
5055,83.0,0,39,8.0,96.0
5056,67.0,0,39,10.0,95.0
5057,43.0,0,39,3.0,96.0
5058,83.0,0,39,0.0,96.0
5059,55.0,0,39,11.0,96.0
5060,43.0,0,39,12.0,127.0
5061,86.0,0,39,0.0,96.0
5062,74.0,0,39,1.0,96.0
5063,71.0,0,39,8.0,96.0
5064,83.0,0,39,8.0,96.0
5065,76.0,0,39,1.0,96.0
5066,74.0,0,39,2.0,96.0
5067,71.0,0,39,2.0,96.0
5068,55.0,0,39,3.0,96.0
5069,86.0,0,39,7.0,96.0
5070,76.0,40,39,7.0,96.0
5071,67.0,40,39,10.0,95.0
5072,83.0,0,39,8.0,96.0
5073,71.0,0,39,8.0,96.0
5074,71.0,0,39,2.0,96.0
5075,43.0,0,39,12.0,127.0
5076,74.0,0,39,1.0,96.0
5077,43.0,0,39,3.0,96.0
5078,55.0,0,39,3.0,96.0
5079,83.0,0,39,0.0,96.0
5080,86.0,0,39,0.0,96.0
5081,74.0,0,39,2.0,96.0
5082,86.0,0,39,7.0,96.0
5083,76.0,0,39,7.0,96.0
5084,55.0,0,39,11.0,96.0
5085,76.0,0,39,1.0,96.0
5086,86.0,0,39,7.0,96.0
5087,69.0,0,39,8.0,96.0
5088,45.0,0,39,11.0,96.0
5089,81.0,0,39,8.0,96.0
5090,33.0,0,39,12.0,127.0
5091,57.0,0,39,10.0,95.0
5092,78.0,0,39,7.0,96.0
5093,74.0,0,59,1.0,96.0
5094,45.0,0,59,3.0,96.0
5095,57.0,40,59,3.0,96.0
5096,78.0,0,59,1.0,96.0
5097,69.0,0,59,2.0,96.0
5098,74.0,0,59,2.0,96.0
5099,81.0,0,59,0.0,96.0
5100,86.0,0,59,0.0,96.0
5101,69.0,0,39,8.0,96.0
5102,81.0,0,39,8.0,96.0
5103,69.0,0,39,10.0,95.0
5104,57.0,0,39,11.0,96.0
5105,78.0,40,39,7.0,96.0
5106,86.0,0,39,7.0,96.0
5107,45.0,0,39,12.0,127.0
5108,78.0,0,39,7.0,96.0
5109,86.0,40,39,7.0,96.0
5110,69.0,0,39,10.0,95.0
5111,81.0,0,39,8.0,96.0
5112,45.0,0,39,12.0,127.0
5113,69.0,0,39,8.0,96.0
5114,57.0,0,39,11.0,96.0
5115,33.0,0,39,12.0,127.0
5116,85.0,0,39,7.0,96.0
5117,76.0,0,39,7.0,96.0
5118,69.0,0,39,8.0,96.0
5119,79.0,0,39,8.0,96.0
5120,45.0,0,39,11.0,96.0
5121,69.0,0,39,10.0,95.0
5122,73.0,0,59,1.0,96.0
5123,81.0,0,59,0.0,96.0
5124,57.0,0,59,3.0,96.0
5125,67.0,0,59,2.0,96.0
5126,73.0,40,59,2.0,96.0
5127,45.0,0,59,3.0,96.0
5128,79.0,0,59,1.0,96.0
5129,85.0,0,59,0.0,96.0
5130,69.0,0,39,10.0,95.0
5131,69.0,0,39,8.0,96.0
5132,79.0,0,39,8.0,96.0
5133,76.0,40,39,7.0,96.0
5134,85.0,0,39,7.0,96.0
5135,57.0,0,39,11.0,96.0
5136,45.0,0,39,12.0,127.0
5137,69.0,0,39,10.0,95.0
5138,76.0,40,39,7.0,96.0
5139,85.0,0,39,7.0,96.0
5140,79.0,0,39,8.0,96.0
5141,57.0,0,39,11.0,96.0
5142,69.0,0,39,8.0,96.0
5143,45.0,0,39,12.0,127.0
5144,78.0,0,39,7.0,96.0
5145,86.0,0,39,7.0,96.0
5146,74.0,0,59,1.0,96.0
5147,62.0,0,59,3.0,96.0
5148,74.0,0,59,2.0,96.0
5149,78.0,0,59,1.0,96.0
5150,81.0,0,59,0.0,96.0
5151,50.0,0,59,3.0,96.0
5152,86.0,0,59,0.0,96.0
5153,66.0,0,59,2.0,96.0
5154,74.0,0,39,7.0,96.0
5155,86.0,40,39,7.0,96.0
5156,74.0,0,39,7.0,96.0
5157,38.0,0,119,12.0,127.0
5158,62.0,0,119,10.0,95.0
5159,78.0,40,119,8.0,96.0
5160,50.0,0,119,11.0,96.0
5161,69.0,0,119,8.0,96.0
5162,86.0,40,39,7.0,96.0
5163,86.0,40,39,7.0,96.0
5164,74.0,0,39,7.0,96.0
5165,74.0,0,39,7.0,96.0
5166,86.0,40,39,7.0,96.0
5167,86.0,0,39,7.0,96.0
5168,74.0,40,39,7.0,96.0
5169,48.0,0,39,12.0,127.0
5170,69.0,40,39,8.0,127.0
5171,60.0,0,39,10.0,127.0
5172,78.0,0,39,8.0,127.0
5173,86.0,0,39,7.0,127.0
5174,60.0,0,39,11.0,127.0
5175,74.0,0,39,7.0,127.0
5176,74.0,0,39,7.0,127.0
5177,72.0,40,39,10.0,127.0
5178,60.0,0,39,11.0,127.0
5179,78.0,0,39,8.0,127.0
5180,69.0,0,39,8.0,127.0
5181,48.0,0,39,12.0,127.0
5182,86.0,0,39,7.0,127.0
5183,86.0,0,39,7.0,127.0
5184,48.0,0,39,12.0,127.0
5185,74.0,0,39,7.0,127.0
5186,72.0,0,39,10.0,127.0
5187,60.0,0,39,11.0,127.0
5188,78.0,0,39,8.0,127.0
5189,69.0,40,39,8.0,127.0
5190,48.0,0,39,12.0,127.0
5191,72.0,40,39,10.0,127.0
5192,78.0,0,39,8.0,127.0
5193,74.0,0,39,7.0,127.0
5194,86.0,0,39,7.0,127.0
5195,60.0,0,39,11.0,127.0
5196,69.0,0,39,8.0,127.0
5197,78.0,0,39,8.0,127.0
5198,86.0,0,39,7.0,127.0
5199,72.0,0,39,10.0,127.0
5200,60.0,0,39,11.0,127.0
5201,69.0,0,39,8.0,127.0
5202,74.0,0,39,7.0,127.0
5203,48.0,40,39,12.0,127.0
5204,66.0,0,239,2.0,127.0
5205,72.0,0,39,10.0,127.0
5206,60.0,0,239,3.0,127.0
5207,86.0,0,39,7.0,127.0
5208,74.0,0,39,7.0,127.0
5209,74.0,0,239,2.0,127.0
5210,48.0,40,39,12.0,127.0
5211,86.0,0,239,0.0,127.0
5212,90.0,0,239,0.0,127.0
5213,60.0,0,39,11.0,127.0
5214,62.0,0,239,3.0,127.0
5215,78.0,0,39,8.0,127.0
5216,74.0,0,239,1.0,127.0
5217,78.0,0,239,1.0,127.0
5218,69.0,0,39,8.0,127.0
5219,59.0,0,39,11.0,127.0
5220,47.0,0,39,12.0,127.0
5221,86.0,0,39,7.0,127.0
5222,74.0,0,39,7.0,127.0
5223,79.0,0,39,8.0,127.0
5224,71.0,0,39,10.0,127.0
5225,74.0,0,39,7.0,127.0
5226,86.0,0,39,7.0,127.0
5227,79.0,0,39,8.0,127.0
5228,62.0,40,39,10.0,127.0
5229,47.0,0,39,12.0,127.0
5230,59.0,0,39,11.0,127.0
5231,79.0,0,39,8.0,127.0
5232,47.0,0,39,12.0,127.0
5233,86.0,0,39,7.0,127.0
5234,74.0,40,39,7.0,127.0
5235,74.0,0,119,2.0,127.0
5236,67.0,0,119,2.0,127.0
5237,86.0,40,119,0.0,127.0
5238,74.0,0,119,1.0,127.0
5239,59.0,0,119,3.0,127.0
5240,62.0,0,119,3.0,127.0
5241,91.0,0,119,0.0,127.0
5242,59.0,0,39,11.0,127.0
5243,62.0,0,39,10.0,127.0
5244,79.0,0,119,1.0,127.0
5245,46.0,0,39,12.0,127.0
5246,74.0,0,39,7.0,127.0
5247,86.0,0,39,7.0,127.0
5248,58.0,0,39,11.0,127.0
5249,65.0,40,39,10.0,127.0
5250,80.0,0,39,8.0,127.0
5251,74.0,0,39,7.0,127.0
5252,65.0,0,39,10.0,127.0
5253,58.0,40,39,11.0,127.0
5254,80.0,0,39,8.0,127.0
5255,86.0,0,39,7.0,127.0
5256,46.0,0,39,12.0,127.0
5257,65.0,0,39,10.0,127.0
5258,68.0,0,119,2.0,127.0
5259,65.0,0,119,3.0,127.0
5260,86.0,0,119,0.0,127.0
5261,86.0,0,39,7.0,127.0
5262,92.0,0,119,0.0,127.0
5263,74.0,0,39,7.0,127.0
5264,46.0,0,39,12.0,127.0
5265,80.0,0,119,1.0,127.0
5266,77.0,0,119,1.0,127.0
5267,58.0,40,39,11.0,127.0
5268,80.0,0,39,8.0,127.0
5269,69.0,0,39,8.0,127.0
5270,66.0,0,39,10.0,127.0
5271,57.0,0,39,11.0,127.0
5272,74.0,0,39,7.0,127.0
5273,86.0,0,39,7.0,127.0
5274,45.0,0,39,12.0,127.0
5275,81.0,0,39,8.0,127.0
5276,86.0,0,39,7.0,127.0
5277,57.0,0,39,11.0,127.0
5278,74.0,0,39,7.0,127.0
5279,66.0,0,39,10.0,127.0
5280,81.0,0,39,8.0,127.0
5281,69.0,0,39,8.0,127.0
5282,45.0,40,39,12.0,127.0
5283,86.0,0,39,7.0,127.0
5284,93.0,0,119,0.0,127.0
5285,74.0,0,239,2.0,127.0
5286,81.0,0,119,1.0,127.0
5287,66.0,40,119,3.0,127.0
5288,74.0,0,39,7.0,127.0
5289,78.0,0,119,1.0,127.0
5290,90.0,0,119,0.0,127.0
5291,69.0,0,119,2.0,127.0
5292,69.0,40,39,8.0,127.0
5293,57.0,0,39,11.0,127.0
5294,45.0,0,39,12.0,127.0
5295,81.0,0,39,8.0,127.0
5296,62.0,0,239,3.0,127.0
5297,66.0,0,39,10.0,127.0
5298,64.0,0,39,10.0,127.0
5299,57.0,40,39,10.0,127.0
5300,79.0,0,39,8.0,127.0
5301,85.0,0,39,7.0,127.0
5302,76.0,0,39,7.0,127.0
5303,69.0,0,39,8.0,127.0
5304,33.0,0,39,12.0,127.0
5305,45.0,0,39,11.0,127.0
5306,76.0,0,39,7.0,127.0
5307,79.0,0,39,8.0,127.0
5308,69.0,40,39,8.0,127.0
5309,45.0,0,39,11.0,127.0
5310,57.0,0,39,10.0,127.0
5311,85.0,0,39,7.0,127.0
5312,33.0,0,39,12.0,127.0
5313,64.0,0,39,10.0,127.0
5314,57.0,0,39,10.0,127.0
5315,64.0,0,39,10.0,127.0
5316,33.0,0,39,12.0,127.0
5317,85.0,0,119,0.0,127.0
5318,79.0,0,119,0.0,127.0
5319,81.0,0,119,1.0,127.0
5320,79.0,0,119,1.0,127.0
5321,64.0,0,119,3.0,127.0
5322,45.0,40,39,11.0,127.0
5323,69.0,0,39,8.0,127.0
5324,57.0,0,119,3.0,127.0
5325,67.0,0,119,2.0,127.0
5326,76.0,0,39,7.0,127.0
5327,73.0,0,119,2.0,127.0
5328,85.0,0,39,7.0,127.0
5329,79.0,0,39,8.0,127.0
5330,74.0,0,29,7.0,127.0
5331,50.0,0,29,3.0,127.0
5332,86.0,0,29,7.0,127.0
5333,78.0,0,29,0.0,127.0
5334,78.0,0,29,1.0,127.0
5335,81.0,0,29,1.0,127.0
5336,62.0,0,29,3.0,127.0
5337,69.0,0,59,8.0,127.0
5338,50.0,40,59,11.0,127.0
5339,62.0,0,59,10.0,127.0
5340,74.0,0,59,2.0,127.0
5341,66.0,0,59,2.0,127.0
5342,78.0,0,59,8.0,127.0
5343,86.0,0,59,0.0,127.0
5344,38.0,0,59,12.0,127.0
5345,74.0,0,32,0.0,127.0
5346,62.0,0,32,7.0,127.0
5347,50.0,30,32,3.0,127.0
5348,74.0,0,32,1.0,127.0
5349,76.0,0,32,0.0,127.0
5350,52.0,0,32,3.0,127.0
5351,64.0,30,32,7.0,127.0
5352,76.0,0,32,1.0,127.0
5353,78.0,0,32,1.0,127.0
5354,66.0,0,32,7.0,127.0
5355,54.0,0,32,3.0,127.0
5356,78.0,30,32,0.0,127.0
5357,55.0,0,32,3.0,127.0
5358,79.0,30,32,0.0,127.0
5359,67.0,0,32,7.0,127.0
5360,79.0,0,32,1.0,127.0
5361,57.0,0,32,3.0,127.0
5362,81.0,30,32,1.0,127.0
5363,81.0,0,32,0.0,127.0
5364,69.0,0,32,7.0,127.0
5365,82.0,0,32,1.0,127.0
5366,82.0,30,32,0.0,127.0
5367,70.0,0,32,7.0,127.0
5368,58.0,0,32,3.0,127.0
5369,84.0,0,29,1.0,127.0
5370,60.0,30,29,3.0,127.0
5371,84.0,0,29,0.0,127.0
5372,72.0,0,29,7.0,127.0
5373,55.0,0,29,10.0,96.0
5374,58.0,0,29,8.0,96.0
5375,86.0,0,59,1.0,96.0
5376,86.0,0,59,0.0,96.0
5377,74.0,0,59,7.0,112.0
5378,58.0,0,29,8.0,96.0
5379,55.0,30,29,10.0,96.0
5380,62.0,0,59,3.0,96.0
5381,50.0,30,29,10.0,96.0
5382,62.0,0,29,8.0,96.0
5383,62.0,0,29,8.0,96.0
5384,50.0,30,29,10.0,96.0
5385,58.0,0,29,8.0,96.0
5386,55.0,30,29,10.0,96.0
5387,62.0,0,44,3.0,96.0
5388,86.0,0,44,0.0,96.0
5389,74.0,0,44,7.0,112.0
5390,86.0,0,44,1.0,96.0
5391,55.0,30,29,10.0,96.0
5392,58.0,0,29,8.0,96.0
5393,62.0,30,29,8.0,96.0
5394,50.0,0,29,10.0,96.0
5395,62.0,0,14,3.0,96.0
5396,86.0,0,14,0.0,96.0
5397,86.0,30,14,1.0,96.0
5398,74.0,0,14,7.0,112.0
5399,50.0,0,29,10.0,96.0
5400,31.0,30,239,12.0,127.0
5401,62.0,0,29,8.0,96.0
5402,43.0,0,239,11.0,112.0
5403,57.0,0,29,10.0,96.0
5404,60.0,0,29,8.0,96.0
5405,86.0,30,59,0.0,96.0
5406,60.0,30,29,8.0,96.0
5407,86.0,0,59,1.0,96.0
5408,74.0,0,59,7.0,112.0
5409,57.0,0,29,10.0,96.0
5410,62.0,0,59,3.0,96.0
5411,50.0,30,29,10.0,96.0
5412,62.0,0,29,8.0,96.0
5413,50.0,0,29,10.0,96.0
5414,62.0,30,29,8.0,96.0
5415,60.0,30,29,8.0,96.0
5416,57.0,0,29,10.0,96.0
5417,62.0,0,44,3.0,96.0
5418,74.0,0,44,7.0,112.0
5419,86.0,0,44,1.0,96.0
5420,86.0,0,44,0.0,96.0
5421,57.0,30,29,10.0,96.0
5422,60.0,0,29,8.0,96.0
5423,62.0,0,29,8.0,96.0
5424,50.0,30,29,10.0,96.0
5425,86.0,0,14,1.0,96.0
5426,86.0,0,14,0.0,96.0
5427,74.0,0,14,7.0,112.0
5428,62.0,0,14,3.0,96.0
5429,38.0,0,239,12.0,127.0
5430,50.0,0,29,10.0,96.0
5431,50.0,0,239,11.0,112.0
5432,62.0,30,29,8.0,96.0
5433,57.0,0,29,8.0,96.0
5434,54.0,30,29,10.0,96.0
5435,78.0,0,32,0.0,96.0
5436,74.0,0,44,7.0,112.0
5437,86.0,0,44,0.0,96.0
5438,86.0,0,44,1.0,96.0
5439,62.0,0,44,3.0,96.0
5440,57.0,0,29,8.0,96.0
5441,54.0,0,29,10.0,96.0
5442,79.0,30,32,0.0,96.0
5443,62.0,0,29,8.0,96.0
5444,50.0,30,29,10.0,96.0
5445,81.0,0,32,0.0,96.0
5446,72.0,0,14,7.0,112.0
5447,60.0,0,14,3.0,96.0
5448,84.0,0,14,0.0,96.0
5449,84.0,0,14,1.0,96.0
5450,62.0,0,29,8.0,96.0
5451,50.0,30,29,10.0,96.0
5452,82.0,0,29,0.0,96.0
5453,54.0,30,29,10.0,96.0
5454,57.0,0,29,8.0,96.0
5455,84.0,0,32,0.0,96.0
5456,58.0,0,44,3.0,96.0
5457,82.0,0,44,0.0,96.0
5458,70.0,0,44,7.0,112.0
5459,82.0,0,44,1.0,96.0
5460,57.0,0,29,8.0,96.0
5461,54.0,30,29,10.0,96.0
5462,86.0,0,32,0.0,96.0
5463,62.0,0,29,8.0,96.0
5464,50.0,30,29,10.0,96.0
5465,88.0,0,32,0.0,96.0
5466,81.0,30,14,0.0,96.0
5467,69.0,0,14,7.0,112.0
5468,81.0,0,14,1.0,96.0
5469,57.0,0,14,3.0,96.0
5470,38.0,0,239,11.0,112.0
5471,90.0,0,29,0.0,96.0
5472,62.0,0,29,8.0,96.0
5473,26.0,0,239,12.0,127.0
5474,50.0,0,29,10.0,96.0
5475,58.0,0,29,8.0,96.0
5476,55.0,0,29,10.0,96.0
5477,70.0,0,44,7.0,112.0
5478,58.0,0,44,3.0,96.0
5479,82.0,0,44,0.0,96.0
5480,82.0,0,44,1.0,96.0
5481,55.0,0,29,10.0,96.0
5482,58.0,30,29,8.0,96.0
5483,62.0,30,29,8.0,96.0
5484,50.0,0,29,10.0,96.0
5485,60.0,0,14,3.0,96.0
5486,72.0,0,14,7.0,112.0
5487,84.0,30,14,0.0,96.0
5488,84.0,0,14,1.0,96.0
5489,50.0,0,29,10.0,96.0
5490,62.0,0,29,8.0,96.0
5491,91.0,30,119,0.0,96.0
5492,55.0,0,29,10.0,96.0
5493,58.0,0,29,8.0,96.0
5494,82.0,0,44,0.0,96.0
5495,58.0,0,44,3.0,96.0
5496,82.0,30,44,1.0,96.0
5497,70.0,0,44,7.0,112.0
5498,55.0,30,29,10.0,96.0
5499,58.0,0,29,8.0,96.0
5500,62.0,30,29,8.0,96.0
5501,50.0,0,29,10.0,96.0
5502,69.0,0,14,7.0,112.0
5503,81.0,30,14,1.0,96.0
5504,81.0,0,14,0.0,96.0
5505,57.0,0,14,3.0,96.0
5506,50.0,0,29,10.0,96.0
5507,43.0,0,239,11.0,112.0
5508,31.0,0,239,12.0,127.0
5509,62.0,0,29,8.0,96.0
5510,81.0,0,16,0.0,96.0
5511,81.0,0,16,1.0,96.0
5512,57.0,0,16,3.0,96.0
5513,69.0,0,16,7.0,112.0
5514,55.0,0,29,10.0,96.0
5515,58.0,30,29,8.0,96.0
5516,55.0,0,30,3.0,96.0
5517,79.0,0,30,0.0,96.0
5518,67.0,0,30,7.0,112.0
5519,79.0,15,30,1.0,96.0
5520,58.0,15,29,8.0,96.0
5521,55.0,0,29,10.0,96.0
5522,43.0,0,59,11.0,96.0
5523,31.0,0,59,12.0,127.0
5524,50.0,0,29,10.0,96.0
5525,62.0,30,29,8.0,96.0
5526,54.0,0,14,3.0,96.0
5527,78.0,0,14,1.0,96.0
5528,66.0,0,14,7.0,112.0
5529,78.0,0,14,0.0,96.0
5530,62.0,0,29,8.0,96.0
5531,50.0,30,29,10.0,96.0
5532,58.0,0,29,8.0,96.0
5533,55.0,30,29,10.0,96.0
5534,55.0,0,44,3.0,96.0
5535,79.0,0,44,1.0,96.0
5536,79.0,0,44,0.0,96.0
5537,67.0,0,44,7.0,112.0
5538,55.0,0,29,10.0,96.0
5539,43.0,0,59,11.0,96.0
5540,58.0,30,29,8.0,96.0
5541,31.0,0,59,12.0,127.0
5542,50.0,0,29,10.0,96.0
5543,62.0,30,29,8.0,96.0
5544,58.0,0,14,3.0,96.0
5545,82.0,30,14,0.0,96.0
5546,70.0,0,14,7.0,112.0
5547,82.0,0,14,1.0,96.0
5548,50.0,0,29,10.0,96.0
5549,62.0,0,29,8.0,96.0
5550,60.0,0,29,8.0,96.0
5551,54.0,30,29,10.0,96.0
5552,57.0,0,44,3.0,96.0
5553,69.0,0,44,7.0,112.0
5554,81.0,0,44,1.0,96.0
5555,81.0,0,44,0.0,96.0
5556,38.0,0,59,12.0,127.0
5557,54.0,30,29,10.0,96.0
5558,60.0,0,29,8.0,96.0
5559,50.0,0,59,11.0,96.0
5560,62.0,30,29,8.0,96.0
5561,50.0,0,29,10.0,96.0
5562,82.0,30,14,1.0,96.0
5563,58.0,0,14,3.0,96.0
5564,70.0,0,14,7.0,112.0
5565,82.0,0,14,0.0,96.0
5566,50.0,0,29,10.0,96.0
5567,62.0,0,29,8.0,96.0
5568,54.0,0,29,10.0,96.0
5569,60.0,0,29,8.0,96.0
5570,60.0,0,44,3.0,96.0
5571,84.0,0,44,0.0,96.0
5572,84.0,30,44,1.0,96.0
5573,72.0,0,44,7.0,112.0
5574,38.0,0,59,12.0,127.0
5575,60.0,30,29,8.0,96.0
5576,50.0,0,59,11.0,96.0
5577,54.0,0,29,10.0,96.0
5578,50.0,30,29,10.0,96.0
5579,62.0,0,29,8.0,96.0
5580,57.0,30,14,3.0,96.0
5581,69.0,0,14,7.0,112.0
5582,81.0,0,14,0.0,96.0
5583,81.0,0,14,1.0,96.0
5584,50.0,0,29,10.0,96.0
5585,62.0,0,29,8.0,96.0
5586,57.0,0,29,10.0,96.0
5587,60.0,30,29,8.0,96.0
5588,54.0,0,44,3.0,96.0
5589,78.0,0,44,1.0,96.0
5590,66.0,0,44,7.0,112.0
5591,78.0,0,44,0.0,96.0
5592,38.0,0,59,11.0,96.0
5593,57.0,0,29,10.0,96.0
5594,26.0,0,59,12.0,127.0
5595,60.0,30,29,8.0,96.0
5596,50.0,30,29,10.0,96.0
5597,62.0,0,29,8.0,96.0
5598,55.0,0,14,3.0,96.0
5599,79.0,0,14,0.0,96.0
5600,67.0,0,14,7.0,112.0
5601,79.0,30,14,1.0,96.0
5602,50.0,0,29,10.0,96.0
5603,62.0,0,29,8.0,96.0
5604,60.0,0,29,8.0,96.0
5605,54.0,0,29,10.0,96.0
5606,81.0,30,44,0.0,96.0
5607,81.0,0,44,1.0,96.0
5608,69.0,0,44,7.0,112.0
5609,57.0,0,44,3.0,96.0
5610,60.0,0,29,8.0,96.0
5611,26.0,0,59,12.0,127.0
5612,54.0,30,29,10.0,96.0
5613,38.0,0,59,11.0,96.0
5614,62.0,30,29,8.0,96.0
5615,50.0,0,29,10.0,96.0
5616,78.0,30,14,1.0,96.0
5617,78.0,0,14,0.0,96.0
5618,66.0,0,14,7.0,112.0
5619,54.0,0,14,3.0,96.0
5620,62.0,0,29,8.0,96.0
5621,50.0,0,29,10.0,96.0
5622,55.0,0,29,3.0,96.0
5623,79.0,0,29,1.0,96.0
5624,79.0,0,29,0.0,96.0
5625,67.0,0,29,7.0,112.0
5626,43.0,0,59,11.0,96.0
5627,55.0,0,59,10.0,96.0
5628,60.0,0,59,8.0,96.0
5629,31.0,30,59,12.0,127.0
5630,74.0,30,32,0.0,96.0
5631,74.0,0,32,1.0,96.0
5632,62.0,0,32,7.0,112.0
5633,50.0,0,32,3.0,96.0
5634,52.0,30,32,3.0,96.0
5635,76.0,0,32,0.0,96.0
5636,64.0,0,32,7.0,112.0
5637,76.0,0,32,1.0,96.0
5638,78.0,0,32,0.0,96.0
5639,78.0,30,32,1.0,96.0
5640,66.0,0,32,7.0,112.0
5641,54.0,0,32,3.0,96.0
5642,79.0,0,32,0.0,96.0
5643,55.0,30,32,3.0,96.0
5644,67.0,0,32,7.0,112.0
5645,79.0,0,32,1.0,96.0
5646,69.0,0,32,7.0,112.0
5647,57.0,0,32,3.0,96.0
5648,81.0,0,32,0.0,96.0
5649,81.0,30,32,1.0,96.0
5650,82.0,0,32,1.0,96.0
5651,70.0,30,32,7.0,112.0
5652,58.0,0,32,3.0,96.0
5653,82.0,0,32,0.0,96.0
5654,60.0,0,29,3.0,96.0
5655,84.0,30,29,1.0,96.0
5656,84.0,0,29,0.0,96.0
5657,72.0,0,29,7.0,112.0
5658,55.0,0,29,10.0,96.0
5659,58.0,0,29,8.0,96.0
5660,86.0,0,59,1.0,96.0
5661,74.0,0,59,7.0,112.0
5662,62.0,0,59,7.0,112.0
5663,55.0,30,29,10.0,96.0
5664,62.0,30,59,3.0,96.0
5665,86.0,0,59,0.0,96.0
5666,58.0,0,29,8.0,96.0
5667,58.0,30,29,10.0,96.0
5668,62.0,0,29,8.0,96.0
5669,62.0,30,29,8.0,96.0
5670,58.0,0,29,10.0,96.0
5671,55.0,0,29,10.0,96.0
5672,58.0,0,29,8.0,96.0
5673,86.0,0,44,0.0,96.0
5674,86.0,0,44,1.0,96.0
5675,62.0,30,44,7.0,112.0
5676,74.0,0,44,7.0,112.0
5677,62.0,0,44,3.0,96.0
5678,55.0,30,29,10.0,96.0
5679,58.0,0,29,8.0,96.0
5680,62.0,30,29,8.0,96.0
5681,58.0,0,29,10.0,96.0
5682,86.0,0,14,0.0,96.0
5683,62.0,0,14,7.0,112.0
5684,62.0,30,14,3.0,96.0
5685,86.0,0,14,1.0,96.0
5686,74.0,0,14,7.0,112.0
5687,43.0,0,239,11.0,112.0
5688,31.0,0,239,12.0,127.0
5689,58.0,0,29,10.0,96.0
5690,62.0,0,29,8.0,96.0
5691,57.0,0,29,10.0,96.0
5692,60.0,0,29,8.0,96.0
5693,57.0,0,29,10.0,96.0
5694,74.0,0,59,7.0,112.0
5695,86.0,0,59,1.0,96.0
5696,62.0,0,59,3.0,96.0
5697,86.0,30,59,0.0,96.0
5698,62.0,0,59,7.0,112.0
5699,60.0,30,29,8.0,96.0
5700,62.0,0,29,8.0,96.0
5701,60.0,30,29,10.0,96.0
5702,60.0,30,29,10.0,96.0
5703,62.0,0,29,8.0,96.0
5704,57.0,0,29,10.0,96.0
5705,60.0,0,29,8.0,96.0
5706,74.0,0,44,7.0,112.0
5707,86.0,0,44,1.0,96.0
5708,86.0,0,44,0.0,96.0
5709,62.0,30,44,7.0,112.0
5710,62.0,0,44,3.0,96.0
5711,57.0,30,29,10.0,96.0
5712,60.0,0,29,8.0,96.0
5713,62.0,30,29,8.0,96.0
5714,60.0,0,29,10.0,96.0
5715,74.0,0,14,7.0,112.0
5716,86.0,30,14,0.0,96.0
5717,62.0,0,14,3.0,96.0
5718,86.0,0,14,1.0,96.0
5719,62.0,0,14,7.0,112.0
5720,62.0,0,29,8.0,96.0
5721,38.0,0,239,12.0,127.0
5722,60.0,0,29,10.0,96.0
5723,50.0,0,239,11.0,112.0
5724,54.0,0,29,10.0,96.0
5725,57.0,0,29,8.0,96.0
5726,78.0,0,32,0.0,96.0
5727,62.0,0,44,7.0,112.0
5728,74.0,0,44,7.0,112.0
5729,86.0,30,44,1.0,96.0
5730,62.0,0,44,3.0,96.0
5731,86.0,0,44,0.0,96.0
5732,54.0,30,29,10.0,96.0
5733,57.0,0,29,8.0,96.0
5734,79.0,0,32,0.0,96.0
5735,62.0,30,29,8.0,96.0
5736,57.0,0,29,10.0,96.0
5737,81.0,0,32,0.0,96.0
5738,60.0,0,14,3.0,96.0
5739,84.0,30,14,1.0,96.0
5740,72.0,0,14,7.0,112.0
5741,84.0,0,14,0.0,96.0
5742,62.0,0,29,8.0,96.0
5743,82.0,0,29,0.0,96.0
5744,57.0,0,29,10.0,96.0
5745,66.0,0,29,8.0,96.0
5746,60.0,0,29,10.0,96.0
5747,84.0,0,32,0.0,96.0
5748,58.0,0,44,3.0,96.0
5749,82.0,30,44,1.0,96.0
5750,82.0,0,44,0.0,96.0
5751,70.0,0,44,7.0,112.0
5752,60.0,0,29,10.0,96.0
5753,66.0,30,29,8.0,96.0
5754,86.0,0,32,0.0,96.0
5755,62.0,0,29,8.0,96.0
5756,60.0,30,29,10.0,96.0
5757,88.0,0,32,0.0,96.0
5758,81.0,0,14,0.0,96.0
5759,57.0,0,14,3.0,96.0
5760,81.0,30,14,1.0,96.0
5761,69.0,0,14,7.0,112.0
5762,62.0,0,29,8.0,96.0
5763,38.0,0,239,11.0,112.0
5764,26.0,0,239,12.0,127.0
5765,60.0,0,29,10.0,96.0
5766,90.0,0,32,0.0,96.0
5767,58.0,30,29,10.0,96.0
5768,62.0,0,29,8.0,96.0
5769,82.0,0,44,0.0,96.0
5770,82.0,0,44,1.0,96.0
5771,58.0,0,44,3.0,96.0
5772,70.0,0,44,7.0,112.0
5773,58.0,0,29,10.0,96.0
5774,62.0,30,29,8.0,96.0
5775,58.0,0,29,10.0,96.0
5776,62.0,30,29,8.0,96.0
5777,84.0,0,14,0.0,96.0
5778,72.0,0,14,7.0,112.0
5779,84.0,0,14,1.0,96.0
5780,60.0,0,14,3.0,96.0
5781,91.0,0,119,0.0,96.0
5782,58.0,30,29,10.0,96.0
5783,62.0,0,29,8.0,96.0
5784,67.0,0,29,8.0,96.0
5785,62.0,30,29,10.0,96.0
5786,82.0,0,44,0.0,96.0
5787,82.0,0,44,1.0,96.0
5788,70.0,0,44,7.0,112.0
5789,58.0,0,44,3.0,96.0
5790,67.0,30,29,8.0,96.0
5791,62.0,0,29,10.0,96.0
5792,58.0,0,29,10.0,96.0
5793,62.0,30,29,8.0,96.0
5794,57.0,0,14,3.0,96.0
5795,81.0,0,14,0.0,96.0
5796,81.0,30,14,1.0,96.0
5797,69.0,0,14,7.0,112.0
5798,31.0,0,239,12.0,127.0
5799,43.0,0,239,11.0,112.0
5800,58.0,0,29,10.0,96.0
5801,62.0,0,29,8.0,96.0
5802,57.0,0,16,3.0,96.0
5803,69.0,0,16,7.0,112.0
5804,81.0,0,16,0.0,96.0
5805,81.0,0,16,1.0,96.0
5806,58.0,0,29,10.0,96.0
5807,62.0,30,29,8.0,96.0
5808,79.0,0,30,1.0,96.0
5809,79.0,0,30,0.0,96.0
5810,55.0,15,30,3.0,96.0
5811,67.0,0,30,7.0,112.0
5812,43.0,0,59,11.0,96.0
5813,58.0,15,29,10.0,96.0
5814,62.0,0,29,8.0,96.0
5815,31.0,0,59,12.0,127.0
5816,58.0,30,29,10.0,96.0
5817,62.0,0,29,8.0,96.0
5818,78.0,0,14,1.0,96.0
5819,54.0,0,14,3.0,96.0
5820,78.0,0,14,0.0,96.0
5821,66.0,0,14,7.0,112.0
5822,58.0,30,29,10.0,96.0
5823,62.0,0,29,8.0,96.0
5824,55.0,30,29,10.0,96.0
5825,58.0,0,29,8.0,96.0
5826,55.0,0,44,3.0,96.0
5827,79.0,0,44,1.0,96.0
5828,79.0,0,44,0.0,96.0
5829,67.0,0,44,7.0,112.0
5830,58.0,30,29,8.0,96.0
5831,31.0,0,59,12.0,127.0
5832,55.0,0,29,10.0,96.0
5833,43.0,0,59,11.0,96.0
5834,50.0,0,29,10.0,96.0
5835,62.0,30,29,8.0,96.0
5836,70.0,0,14,7.0,112.0
5837,58.0,0,14,3.0,96.0
5838,82.0,0,14,0.0,96.0
5839,82.0,0,14,1.0,96.0
5840,62.0,0,29,8.0,96.0
5841,50.0,30,29,10.0,96.0
5842,54.0,0,29,10.0,96.0
5843,60.0,0,29,8.0,96.0
5844,81.0,0,44,0.0,96.0
5845,57.0,0,44,3.0,96.0
5846,81.0,0,44,1.0,96.0
5847,69.0,0,44,7.0,112.0
5848,50.0,0,59,11.0,96.0
5849,60.0,0,29,8.0,96.0
5850,38.0,30,59,12.0,127.0
5851,54.0,30,29,10.0,96.0
5852,62.0,30,29,8.0,96.0
5853,50.0,0,29,10.0,96.0
5854,82.0,0,14,1.0,96.0
5855,70.0,0,14,7.0,112.0
5856,58.0,30,14,3.0,96.0
5857,82.0,0,14,0.0,96.0
5858,50.0,0,29,10.0,96.0
5859,62.0,0,29,8.0,96.0
5860,54.0,30,29,10.0,96.0
5861,60.0,0,29,8.0,96.0
5862,60.0,0,44,3.0,96.0
5863,84.0,0,44,1.0,96.0
5864,84.0,0,44,0.0,96.0
5865,72.0,0,44,7.0,112.0
5866,38.0,0,59,12.0,127.0
5867,50.0,0,59,11.0,96.0
5868,54.0,0,29,10.0,96.0
5869,60.0,30,29,8.0,96.0
5870,62.0,0,29,8.0,96.0
5871,50.0,30,29,10.0,96.0
5872,69.0,0,14,7.0,112.0
5873,81.0,0,14,0.0,96.0
5874,81.0,0,14,1.0,96.0
5875,57.0,30,14,3.0,96.0
5876,50.0,0,29,10.0,96.0
5877,62.0,0,29,8.0,96.0
5878,57.0,30,29,10.0,96.0
5879,60.0,0,29,8.0,96.0
5880,54.0,0,44,3.0,96.0
5881,78.0,0,44,1.0,96.0
5882,66.0,0,44,7.0,112.0
5883,78.0,0,44,0.0,96.0
5884,38.0,0,59,11.0,96.0
5885,57.0,0,29,10.0,96.0
5886,60.0,30,29,8.0,96.0
5887,26.0,0,59,12.0,127.0
5888,60.0,0,29,10.0,96.0
5889,62.0,30,29,8.0,96.0
5890,55.0,0,14,3.0,96.0
5891,79.0,30,14,1.0,96.0
5892,67.0,0,14,7.0,112.0
5893,79.0,0,14,0.0,96.0
5894,62.0,0,29,8.0,96.0
5895,60.0,0,29,10.0,96.0
5896,60.0,30,29,10.0,96.0
5897,62.0,0,29,8.0,96.0
5898,81.0,0,44,1.0,96.0
5899,81.0,0,44,0.0,96.0
5900,69.0,0,44,7.0,112.0
5901,57.0,0,44,3.0,96.0
5902,60.0,30,29,10.0,96.0
5903,62.0,0,29,8.0,96.0
5904,38.0,0,59,11.0,96.0
5905,26.0,0,59,12.0,127.0
5906,60.0,30,29,10.0,96.0
5907,62.0,0,29,8.0,96.0
5908,78.0,0,14,0.0,96.0
5909,78.0,0,14,1.0,96.0
5910,54.0,30,14,3.0,96.0
5911,66.0,0,14,7.0,112.0
5912,60.0,0,29,10.0,96.0
5913,62.0,0,29,8.0,96.0
5914,58.0,0,29,10.0,96.0
5915,55.0,0,59,3.0,96.0
5916,62.0,0,59,8.0,96.0
5917,79.0,0,59,1.0,96.0
5918,43.0,0,59,11.0,96.0
5919,31.0,0,59,12.0,127.0
5920,79.0,30,59,0.0,96.0
5921,67.0,0,59,7.0,112.0
5922,51.0,0,32,10.0,96.0
5923,64.0,0,32,2.0,96.0
5924,60.0,30,32,2.0,96.0
5925,48.0,0,32,10.0,96.0
5926,65.0,30,32,2.0,96.0
5927,53.0,0,32,10.0,96.0
5928,50.0,0,32,10.0,96.0
5929,62.0,0,32,2.0,96.0
5930,51.0,30,32,10.0,96.0
5931,55.0,0,32,10.0,96.0
5932,67.0,0,32,2.0,96.0
5933,64.0,0,32,2.0,96.0
5934,53.0,0,32,10.0,96.0
5935,65.0,0,32,2.0,96.0
5936,69.0,0,32,2.0,96.0
5937,57.0,30,32,10.0,96.0
5938,59.0,0,32,10.0,96.0
5939,55.0,0,32,10.0,96.0
5940,67.0,0,32,2.0,96.0
5941,70.0,30,32,2.0,96.0
5942,57.0,30,32,10.0,96.0
5943,69.0,0,32,2.0,96.0
5944,60.0,0,32,10.0,96.0
5945,72.0,0,32,2.0,96.0
5946,70.0,0,29,2.0,96.0
5947,62.0,30,29,10.0,96.0
5948,59.0,0,29,10.0,96.0
5949,74.0,0,29,2.0,96.0
5950,60.0,0,29,10.0,96.0
5951,63.0,0,29,10.0,96.0
5952,31.0,0,39,12.0,127.0
5953,43.0,0,39,11.0,96.0
5954,75.0,0,59,2.0,96.0
5955,72.0,0,59,2.0,96.0
5956,43.0,0,39,12.0,127.0
5957,55.0,40,39,11.0,96.0
5958,43.0,0,39,12.0,127.0
5959,55.0,40,39,11.0,96.0
5960,55.0,0,39,11.0,96.0
5961,43.0,0,39,12.0,127.0
5962,72.0,0,44,2.0,96.0
5963,60.0,0,44,10.0,96.0
5964,75.0,0,44,2.0,96.0
5965,63.0,0,44,10.0,96.0
5966,51.0,40,39,11.0,96.0
5967,39.0,0,39,12.0,127.0
5968,63.0,0,14,10.0,96.0
5969,75.0,0,14,2.0,96.0
5970,72.0,10,14,2.0,96.0
5971,60.0,0,14,10.0,96.0
5972,63.0,0,119,8.0,96.0
5973,72.0,40,119,8.0,96.0
5974,55.0,0,119,8.0,96.0
5975,60.0,30,239,3.0,112.0
5976,55.0,0,239,4.0,96.0
5977,72.0,0,239,7.0,112.0
5978,36.0,0,39,12.0,127.0
5979,48.0,40,39,11.0,96.0
5980,84.0,0,239,0.0,112.0
5981,67.0,0,239,4.0,96.0
5982,31.0,0,39,12.0,127.0
5983,43.0,0,39,11.0,96.0
5984,63.0,0,62,10.0,96.0
5985,60.0,0,62,10.0,96.0
5986,75.0,30,62,2.0,96.0
5987,72.0,0,62,2.0,96.0
5988,55.0,40,39,11.0,96.0
5989,43.0,0,39,12.0,127.0
5990,59.0,0,59,10.0,96.0
5991,55.0,20,39,11.0,96.0
5992,62.0,0,59,10.0,96.0
5993,74.0,0,59,2.0,96.0
5994,71.0,20,59,2.0,96.0
5995,43.0,0,39,12.0,127.0
5996,43.0,0,39,12.0,127.0
5997,55.0,0,39,11.0,96.0
5998,59.0,40,44,10.0,96.0
5999,62.0,0,44,10.0,96.0
6000,71.0,0,44,2.0,96.0
6001,74.0,0,44,2.0,96.0
6002,38.0,40,39,12.0,127.0
6003,50.0,0,39,11.0,96.0
6004,60.0,0,14,10.0,96.0
6005,72.0,0,14,2.0,96.0
6006,75.0,10,14,2.0,96.0
6007,63.0,0,14,10.0,96.0
6008,47.0,0,39,11.0,96.0
6009,55.0,0,239,4.0,96.0
6010,67.0,0,239,4.0,96.0
6011,67.0,0,239,3.0,112.0
6012,71.0,0,119,8.0,96.0
6013,62.0,0,119,8.0,96.0
6014,55.0,0,119,8.0,96.0
6015,35.0,40,39,12.0,127.0
6016,79.0,0,239,7.0,112.0
6017,91.0,0,239,0.0,112.0
6018,43.0,0,39,11.0,96.0
6019,31.0,0,39,12.0,127.0
6020,65.0,0,44,10.0,96.0
6021,62.0,0,44,10.0,96.0
6022,77.0,0,44,2.0,96.0
6023,74.0,0,44,2.0,96.0
6024,55.0,40,39,11.0,96.0
6025,43.0,0,39,12.0,127.0
6026,77.0,0,14,2.0,96.0
6027,74.0,10,14,2.0,96.0
6028,65.0,0,14,10.0,96.0
6029,62.0,0,14,10.0,96.0
6030,67.0,0,119,4.0,96.0
6031,55.0,0,119,4.0,96.0
6032,54.0,40,39,11.0,96.0
6033,42.0,0,39,12.0,127.0
6034,55.0,0,39,11.0,96.0
6035,43.0,0,39,12.0,127.0
6036,65.0,0,44,10.0,96.0
6037,62.0,0,44,10.0,96.0
6038,74.0,0,44,2.0,96.0
6039,77.0,0,44,2.0,96.0
6040,45.0,0,39,12.0,127.0
6041,57.0,40,39,11.0,96.0
6042,62.0,10,14,10.0,96.0
6043,77.0,0,14,2.0,96.0
6044,65.0,0,14,10.0,96.0
6045,74.0,0,14,2.0,96.0
6046,47.0,0,39,12.0,127.0
6047,59.0,40,39,11.0,96.0
6048,55.0,0,119,4.0,96.0
6049,55.0,0,119,8.0,96.0
6050,65.0,0,119,8.0,96.0
6051,74.0,30,119,8.0,96.0
6052,67.0,0,239,7.0,112.0
6053,55.0,0,239,3.0,112.0
6054,67.0,0,119,4.0,96.0
6055,79.0,30,239,0.0,112.0
6056,60.0,0,39,11.0,96.0
6057,48.0,0,39,12.0,127.0
6058,55.0,0,39,11.0,96.0
6059,43.0,40,39,12.0,127.0
6060,51.0,0,39,11.0,96.0
6061,39.0,40,39,12.0,127.0
6062,77.0,0,122,2.0,96.0
6063,74.0,0,122,2.0,96.0
6064,62.0,0,122,10.0,96.0
6065,65.0,0,122,10.0,96.0
6066,43.0,0,39,12.0,127.0
6067,55.0,0,39,11.0,96.0
6068,60.0,0,59,10.0,96.0
6069,75.0,0,59,2.0,96.0
6070,72.0,0,59,2.0,96.0
6071,67.0,0,179,4.0,96.0
6072,55.0,0,179,4.0,96.0
6073,63.0,0,59,10.0,96.0
6074,39.0,0,39,12.0,127.0
6075,51.0,40,39,11.0,96.0
6076,36.0,0,39,12.0,127.0
6077,48.0,40,39,11.0,96.0
6078,60.0,0,239,3.0,112.0
6079,84.0,30,239,0.0,112.0
6080,72.0,0,239,7.0,112.0
6081,55.0,0,119,8.0,96.0
6082,72.0,0,119,8.0,96.0
6083,63.0,40,119,8.0,96.0
6084,60.0,0,29,8.0,96.0
6085,60.0,0,59,3.0,96.0
6086,84.0,40,59,7.0,112.0
6087,84.0,0,59,1.0,96.0
6088,60.0,30,29,8.0,96.0
6089,63.0,30,29,8.0,96.0
6090,63.0,30,29,8.0,96.0
6091,60.0,30,29,8.0,96.0
6092,84.0,0,44,7.0,112.0
6093,60.0,0,44,3.0,96.0
6094,84.0,0,44,1.0,96.0
6095,60.0,30,29,8.0,96.0
6096,63.0,30,29,8.0,96.0
6097,84.0,0,14,7.0,112.0
6098,60.0,30,14,3.0,96.0
6099,84.0,0,14,1.0,96.0
6100,63.0,0,29,8.0,96.0
6101,87.0,0,239,0.0,112.0
6102,75.0,0,239,2.0,112.0
6103,32.0,0,239,12.0,127.0
6104,84.0,0,239,0.0,112.0
6105,44.0,0,239,11.0,112.0
6106,56.0,0,239,10.0,96.0
6107,72.0,0,239,2.0,112.0
6108,60.0,0,29,8.0,96.0
6109,57.0,0,59,3.0,96.0
6110,60.0,30,29,8.0,96.0
6111,81.0,0,59,7.0,112.0
6112,81.0,0,59,1.0,96.0
6113,62.0,30,29,8.0,96.0
6114,62.0,30,29,8.0,96.0
6115,60.0,0,29,8.0,96.0
6116,81.0,30,44,1.0,96.0
6117,57.0,0,44,3.0,96.0
6118,81.0,0,44,7.0,112.0
6119,60.0,30,29,8.0,96.0
6120,62.0,30,29,8.0,96.0
6121,57.0,0,14,3.0,96.0
6122,81.0,0,14,7.0,112.0
6123,81.0,0,14,1.0,96.0
6124,30.0,0,239,12.0,127.0
6125,72.0,0,239,2.0,112.0
6126,54.0,0,239,10.0,96.0
6127,42.0,0,239,11.0,112.0
6128,62.0,30,29,8.0,96.0
6129,74.0,30,239,2.0,112.0
6130,84.0,0,239,0.0,112.0
6131,86.0,0,239,0.0,112.0
6132,60.0,0,29,8.0,96.0
6133,54.0,0,44,3.0,96.0
6134,78.0,0,44,7.0,112.0
6135,78.0,0,44,1.0,96.0
6136,86.0,0,59,0.0,96.0
6137,84.0,30,59,0.0,96.0
6138,74.0,0,59,2.0,96.0
6139,72.0,0,59,2.0,96.0
6140,26.0,0,59,12.0,127.0
6141,60.0,30,29,8.0,96.0
6142,50.0,0,59,10.0,96.0
6143,38.0,0,59,11.0,96.0
6144,62.0,30,29,8.0,96.0
6145,55.0,0,14,3.0,96.0
6146,79.0,30,14,7.0,112.0
6147,79.0,0,14,1.0,96.0
6148,62.0,0,29,8.0,96.0
6149,60.0,0,29,8.0,96.0
6150,57.0,0,44,3.0,96.0
6151,81.0,30,44,1.0,96.0
6152,81.0,0,44,7.0,112.0
6153,84.0,0,59,0.0,96.0
6154,38.0,0,59,11.0,96.0
6155,86.0,0,59,0.0,96.0
6156,72.0,0,59,2.0,96.0
6157,60.0,30,29,8.0,96.0
6158,74.0,0,59,2.0,96.0
6159,50.0,0,59,10.0,96.0
6160,26.0,0,59,12.0,127.0
6161,62.0,30,29,8.0,96.0
6162,78.0,0,14,1.0,96.0
6163,78.0,0,14,7.0,112.0
6164,54.0,30,14,3.0,96.0
6165,62.0,0,29,8.0,96.0
6166,58.0,0,29,10.0,96.0
6167,74.0,0,32,2.0,96.0
6168,70.0,0,32,2.0,96.0
6169,86.0,0,59,0.0,96.0
6170,79.0,0,59,7.0,112.0
6171,55.0,30,59,3.0,96.0
6172,82.0,0,59,0.0,96.0
6173,79.0,0,59,1.0,96.0
6174,58.0,0,59,8.0,96.0
6175,48.0,0,32,10.0,96.0
6176,51.0,0,32,10.0,96.0
6177,60.0,30,32,2.0,96.0
6178,64.0,0,32,2.0,96.0
6179,65.0,0,32,2.0,96.0
6180,50.0,0,32,10.0,96.0
6181,62.0,0,32,2.0,96.0
6182,53.0,30,32,10.0,96.0
6183,31.0,0,119,12.0,127.0
6184,43.0,0,119,11.0,96.0
6185,55.0,0,32,10.0,96.0
6186,51.0,30,32,10.0,96.0
6187,64.0,0,32,2.0,96.0
6188,67.0,0,32,2.0,96.0
6189,57.0,0,32,10.0,96.0
6190,69.0,0,32,2.0,96.0
6191,65.0,30,32,2.0,96.0
6192,53.0,0,32,10.0,96.0
6193,55.0,30,32,10.0,96.0
6194,59.0,0,32,10.0,96.0
6195,70.0,0,32,2.0,96.0
6196,67.0,0,32,2.0,96.0
6197,57.0,0,32,10.0,96.0
6198,60.0,30,32,10.0,96.0
6199,72.0,0,32,2.0,96.0
6200,69.0,0,32,2.0,96.0
6201,74.0,0,29,2.0,96.0
6202,70.0,30,29,2.0,96.0
6203,59.0,0,29,10.0,96.0
6204,62.0,0,29,10.0,96.0
6205,63.0,0,29,10.0,96.0
6206,60.0,0,29,10.0,96.0
6207,43.0,30,39,11.0,96.0
6208,31.0,0,39,12.0,127.0
6209,72.0,0,59,2.0,96.0
6210,75.0,0,59,2.0,96.0
6211,55.0,40,39,11.0,96.0
6212,43.0,0,39,12.0,127.0
6213,60.0,0,119,8.0,96.0
6214,55.0,40,39,11.0,96.0
6215,43.0,0,39,12.0,127.0
6216,43.0,40,39,12.0,127.0
6217,55.0,0,39,11.0,96.0
6218,63.0,0,44,10.0,96.0
6219,72.0,0,44,2.0,96.0
6220,75.0,0,44,2.0,96.0
6221,60.0,0,44,10.0,96.0
6222,39.0,0,39,12.0,127.0
6223,51.0,40,39,11.0,96.0
6224,60.0,0,14,10.0,96.0
6225,75.0,0,14,2.0,96.0
6226,72.0,10,14,2.0,96.0
6227,63.0,0,14,10.0,96.0
6228,63.0,0,119,8.0,96.0
6229,72.0,0,239,7.0,112.0
6230,48.0,0,39,11.0,96.0
6231,55.0,0,119,8.0,96.0
6232,60.0,0,239,3.0,112.0
6233,36.0,40,39,12.0,127.0
6234,67.0,0,239,4.0,96.0
6235,55.0,0,239,4.0,96.0
6236,72.0,0,119,8.0,96.0
6237,84.0,0,239,0.0,112.0
6238,31.0,0,39,12.0,127.0
6239,43.0,0,39,11.0,96.0
6240,72.0,0,62,2.0,96.0
6241,75.0,0,62,2.0,96.0
6242,63.0,0,62,10.0,96.0
6243,60.0,0,62,10.0,96.0
6244,55.0,0,39,11.0,96.0
6245,43.0,40,39,12.0,127.0
6246,71.0,0,59,2.0,96.0
6247,43.0,20,39,12.0,127.0
6248,62.0,0,59,10.0,96.0
6249,59.0,20,59,10.0,96.0
6250,55.0,0,39,11.0,96.0
6251,74.0,0,59,2.0,96.0
6252,43.0,0,39,12.0,127.0
6253,55.0,0,39,11.0,96.0
6254,62.0,0,44,10.0,96.0
6255,74.0,0,44,2.0,96.0
6256,71.0,0,44,2.0,96.0
6257,59.0,40,44,10.0,96.0
6258,38.0,0,39,12.0,127.0
6259,50.0,40,39,11.0,96.0
6260,72.0,0,14,2.0,96.0
6261,75.0,0,14,2.0,96.0
6262,60.0,0,14,10.0,96.0
6263,63.0,10,14,10.0,96.0
6264,79.0,0,239,7.0,112.0
6265,35.0,40,39,12.0,127.0
6266,47.0,0,39,11.0,96.0
6267,55.0,0,239,4.0,96.0
6268,67.0,0,239,4.0,96.0
6269,62.0,0,119,8.0,96.0
6270,91.0,30,239,0.0,112.0
6271,67.0,0,239,3.0,112.0
6272,71.0,0,119,8.0,96.0
6273,55.0,0,119,8.0,96.0
6274,43.0,0,39,11.0,96.0
6275,31.0,0,39,12.0,127.0
6276,74.0,0,44,2.0,96.0
6277,62.0,0,44,10.0,96.0
6278,65.0,0,44,10.0,96.0
6279,77.0,0,44,2.0,96.0
6280,55.0,40,39,11.0,96.0
6281,43.0,0,39,12.0,127.0
6282,55.0,0,89,4.0,96.0
6283,67.0,0,89,4.0,96.0
6284,74.0,10,14,2.0,96.0
6285,77.0,0,14,2.0,96.0
6286,62.0,0,14,10.0,96.0
6287,65.0,0,14,10.0,96.0
6288,55.0,0,29,4.0,96.0
6289,67.0,0,29,4.0,96.0
6290,42.0,40,39,12.0,127.0
6291,54.0,0,39,11.0,96.0
6292,43.0,0,39,12.0,127.0
6293,55.0,0,39,11.0,96.0
6294,77.0,0,44,2.0,96.0
6295,62.0,30,44,10.0,96.0
6296,65.0,0,44,10.0,96.0
6297,74.0,0,44,2.0,96.0
6298,45.0,0,39,12.0,127.0
6299,57.0,40,39,11.0,96.0
6300,67.0,0,89,4.0,96.0
6301,55.0,0,89,4.0,96.0
6302,74.0,0,14,2.0,96.0
6303,77.0,10,14,2.0,96.0
6304,65.0,0,14,10.0,96.0
6305,62.0,0,14,10.0,96.0
6306,67.0,0,29,4.0,96.0
6307,55.0,0,29,4.0,96.0
6308,65.0,0,119,8.0,96.0
6309,55.0,30,239,3.0,112.0
6310,79.0,0,239,0.0,112.0
6311,59.0,40,39,11.0,96.0
6312,47.0,0,39,12.0,127.0
6313,74.0,0,119,8.0,96.0
6314,67.0,0,239,7.0,112.0
6315,55.0,0,119,8.0,96.0
6316,60.0,0,39,11.0,96.0
6317,48.0,0,39,12.0,127.0
6318,55.0,40,39,11.0,96.0
6319,43.0,0,39,12.0,127.0
6320,51.0,0,39,11.0,96.0
6321,39.0,40,39,12.0,127.0
6322,77.0,0,122,2.0,96.0
6323,62.0,0,122,10.0,96.0
6324,65.0,0,122,10.0,96.0
6325,74.0,0,122,2.0,96.0
6326,43.0,0,39,12.0,127.0
6327,55.0,40,39,11.0,96.0
6328,72.0,0,59,2.0,96.0
6329,63.0,0,59,10.0,96.0
6330,60.0,0,59,10.0,96.0
6331,55.0,0,179,4.0,96.0
6332,67.0,0,179,4.0,96.0
6333,75.0,0,59,2.0,96.0
6334,39.0,0,39,12.0,127.0
6335,51.0,40,39,11.0,96.0
6336,48.0,0,39,11.0,96.0
6337,36.0,40,39,12.0,127.0
6338,72.0,0,239,7.0,112.0
6339,60.0,0,239,3.0,112.0
6340,84.0,30,239,0.0,112.0
6341,72.0,0,119,8.0,96.0
6342,63.0,0,119,8.0,96.0
6343,55.0,0,119,8.0,96.0
6344,60.0,0,29,8.0,96.0
6345,60.0,0,59,3.0,96.0
6346,72.0,0,59,1.0,96.0
6347,60.0,30,29,8.0,96.0
6348,84.0,0,59,7.0,96.0
6349,63.0,30,29,8.0,96.0
6350,63.0,30,29,8.0,96.0
6351,60.0,0,29,8.0,96.0
6352,84.0,0,44,7.0,96.0
6353,72.0,30,44,1.0,96.0
6354,60.0,0,44,3.0,96.0
6355,60.0,30,29,8.0,96.0
6356,63.0,30,29,8.0,96.0
6357,72.0,0,14,1.0,96.0
6358,84.0,30,14,7.0,96.0
6359,60.0,0,14,3.0,96.0
6360,87.0,0,239,0.0,112.0
6361,32.0,40,239,12.0,127.0
6362,84.0,0,239,0.0,112.0
6363,44.0,0,239,11.0,112.0
6364,75.0,0,239,2.0,112.0
6365,72.0,0,239,2.0,112.0
6366,56.0,0,239,10.0,112.0
6367,63.0,0,29,8.0,96.0
6368,60.0,0,29,8.0,96.0
6369,57.0,0,59,3.0,96.0
6370,81.0,0,59,7.0,96.0
6371,60.0,30,29,8.0,96.0
6372,69.0,0,59,1.0,96.0
6373,62.0,30,29,8.0,96.0
6374,62.0,30,29,8.0,96.0
6375,60.0,30,29,8.0,96.0
6376,69.0,0,44,1.0,96.0
6377,57.0,0,44,3.0,96.0
6378,81.0,0,44,7.0,96.0
6379,60.0,30,29,8.0,96.0
6380,62.0,30,29,8.0,96.0
6381,69.0,0,14,1.0,96.0
6382,81.0,0,14,7.0,96.0
6383,57.0,0,14,3.0,96.0
6384,42.0,0,239,11.0,112.0
6385,30.0,0,239,12.0,127.0
6386,86.0,0,239,0.0,112.0
6387,84.0,0,239,0.0,112.0
6388,62.0,30,29,8.0,96.0
6389,74.0,0,239,2.0,112.0
6390,54.0,30,239,10.0,112.0
6391,72.0,0,239,2.0,112.0
6392,60.0,0,29,8.0,96.0
6393,78.0,0,32,0.0,96.0
6394,54.0,30,44,3.0,96.0
6395,66.0,0,44,1.0,96.0
6396,78.0,0,44,7.0,96.0
6397,60.0,0,29,8.0,96.0
6398,79.0,30,32,0.0,96.0
6399,62.0,30,29,8.0,96.0
6400,81.0,0,32,0.0,96.0
6401,55.0,0,14,3.0,96.0
6402,67.0,0,14,1.0,96.0
6403,79.0,0,14,7.0,96.0
6404,50.0,0,119,10.0,96.0
6405,62.0,30,29,8.0,96.0
6406,38.0,0,119,11.0,96.0
6407,74.0,0,119,2.0,96.0
6408,26.0,0,119,12.0,127.0
6409,72.0,0,119,2.0,96.0
6410,72.0,0,119,0.0,96.0
6411,82.0,0,32,0.0,96.0
6412,60.0,0,29,8.0,96.0
6413,84.0,0,32,0.0,96.0
6414,69.0,0,44,1.0,96.0
6415,81.0,30,44,7.0,96.0
6416,57.0,0,44,3.0,96.0
6417,60.0,30,29,8.0,96.0
6418,86.0,0,32,0.0,96.0
6419,62.0,0,29,8.0,96.0
6420,88.0,30,32,0.0,96.0
6421,54.0,0,14,3.0,96.0
6422,66.0,0,14,1.0,96.0
6423,78.0,30,14,7.0,96.0
6424,26.0,0,119,12.0,127.0
6425,38.0,0,119,11.0,96.0
6426,50.0,0,119,10.0,96.0
6427,62.0,0,29,8.0,96.0
6428,72.0,0,119,0.0,96.0
6429,74.0,0,119,2.0,96.0
6430,72.0,0,119,2.0,96.0
6431,90.0,0,32,0.0,96.0
6432,79.0,0,44,7.0,96.0
6433,55.0,0,44,3.0,96.0
6434,67.0,0,44,1.0,96.0
6435,59.0,30,59,8.0,96.0
6436,55.0,0,59,10.0,96.0
6437,77.0,60,29,8.0,96.0
6438,65.0,0,29,10.0,96.0
6439,79.0,0,14,7.0,96.0
6440,67.0,30,14,1.0,96.0
6441,55.0,0,14,3.0,96.0
6442,31.0,0,119,12.0,127.0
6443,71.0,0,119,2.0,96.0
6444,74.0,0,119,2.0,96.0
6445,43.0,0,119,11.0,96.0
6446,65.0,0,29,10.0,96.0
6447,77.0,0,29,8.0,96.0
6448,91.0,0,119,0.0,96.0
6449,71.0,0,119,0.0,96.0
6450,63.0,0,29,10.0,96.0
6451,75.0,0,29,8.0,96.0
6452,60.0,0,44,3.0,112.0
6453,72.0,30,44,1.0,112.0
6454,84.0,0,44,7.0,112.0
6455,63.0,30,29,10.0,96.0
6456,75.0,0,29,8.0,96.0
6457,62.0,30,29,10.0,96.0
6458,74.0,0,29,8.0,96.0
6459,72.0,30,14,1.0,96.0
6460,60.0,0,14,3.0,96.0
6461,84.0,0,14,7.0,96.0
6462,44.0,0,119,11.0,112.0
6463,62.0,0,29,10.0,96.0
6464,74.0,0,29,8.0,96.0
6465,32.0,0,119,12.0,127.0
6466,60.0,0,29,10.0,96.0
6467,72.0,0,29,8.0,96.0
6468,84.0,30,44,7.0,96.0
6469,60.0,0,44,3.0,96.0
6470,72.0,0,44,1.0,96.0
6471,72.0,30,29,8.0,96.0
6472,60.0,0,29,10.0,96.0
6473,75.0,30,29,8.0,96.0
6474,63.0,0,29,10.0,96.0
6475,72.0,0,14,1.0,96.0
6476,60.0,0,14,3.0,96.0
6477,84.0,30,14,7.0,96.0
6478,63.0,0,29,10.0,96.0
6479,44.0,0,119,11.0,96.0
6480,32.0,0,119,12.0,127.0
6481,75.0,0,29,8.0,96.0
6482,60.0,0,29,10.0,96.0
6483,72.0,0,29,8.0,96.0
6484,72.0,30,44,1.0,96.0
6485,84.0,0,44,7.0,96.0
6486,60.0,0,44,3.0,96.0
6487,60.0,30,29,10.0,96.0
6488,72.0,0,29,8.0,96.0
6489,75.0,30,29,8.0,96.0
6490,63.0,0,29,10.0,96.0
6491,60.0,0,14,3.0,96.0
6492,84.0,0,14,7.0,96.0
6493,72.0,30,14,1.0,96.0
6494,72.0,0,359,2.0,112.0
6495,75.0,0,239,2.0,112.0
6496,75.0,0,29,8.0,96.0
6497,63.0,0,29,10.0,96.0
6498,87.0,0,239,0.0,111.0
6499,84.0,0,359,0.0,111.0
6500,44.0,0,119,11.0,96.0
6501,32.0,0,119,12.0,127.0
6502,72.0,0,29,8.0,96.0
6503,60.0,0,29,10.0,96.0
6504,81.0,0,44,7.0,96.0
6505,57.0,0,44,3.0,96.0
6506,69.0,0,44,1.0,96.0
6507,60.0,30,29,10.0,96.0
6508,72.0,0,29,8.0,96.0
6509,62.0,30,29,10.0,96.0
6510,74.0,0,29,8.0,96.0
6511,81.0,0,14,7.0,96.0
6512,69.0,0,14,1.0,96.0
6513,57.0,30,14,3.0,96.0
6514,74.0,0,29,8.0,96.0
6515,42.0,0,119,11.0,96.0
6516,30.0,30,119,12.0,127.0
6517,62.0,0,29,10.0,96.0
6518,72.0,0,29,8.0,96.0
6519,60.0,0,29,10.0,96.0
6520,57.0,0,44,3.0,96.0
6521,69.0,30,44,1.0,96.0
6522,81.0,0,44,7.0,96.0
6523,60.0,30,29,10.0,96.0
6524,72.0,0,29,8.0,96.0
6525,62.0,30,29,10.0,96.0
6526,74.0,0,29,8.0,96.0
6527,81.0,0,14,7.0,96.0
6528,69.0,0,14,1.0,96.0
6529,57.0,0,14,3.0,96.0
6530,74.0,0,239,2.0,112.0
6531,84.0,0,239,0.0,111.0
6532,86.0,0,239,0.0,111.0
6533,30.0,0,119,12.0,127.0
6534,42.0,0,119,11.0,96.0
6535,62.0,30,29,10.0,96.0
6536,74.0,0,29,8.0,96.0
6537,72.0,0,239,2.0,112.0
6538,60.0,0,29,10.0,96.0
6539,72.0,0,29,8.0,96.0
6540,78.0,0,32,0.0,96.0
6541,54.0,0,44,3.0,96.0
6542,66.0,0,44,1.0,96.0
6543,78.0,0,44,7.0,96.0
6544,72.0,30,29,8.0,96.0
6545,60.0,0,29,10.0,96.0
6546,79.0,0,32,0.0,96.0
6547,74.0,0,29,8.0,96.0
6548,62.0,30,29,10.0,96.0
6549,81.0,0,32,0.0,96.0
6550,79.0,0,14,7.0,96.0
6551,67.0,0,14,1.0,96.0
6552,55.0,0,14,3.0,96.0
6553,62.0,0,29,10.0,96.0
6554,38.0,30,119,11.0,96.0
6555,72.0,0,119,2.0,96.0
6556,74.0,30,29,8.0,96.0
6557,74.0,0,119,2.0,96.0
6558,72.0,0,119,0.0,96.0
6559,26.0,0,119,12.0,127.0
6560,82.0,0,32,0.0,96.0
6561,72.0,0,29,8.0,96.0
6562,60.0,0,29,10.0,96.0
6563,84.0,0,32,0.0,96.0
6564,57.0,0,44,3.0,96.0
6565,81.0,0,44,7.0,96.0
6566,69.0,0,44,1.0,96.0
6567,60.0,0,29,10.0,96.0
6568,72.0,30,29,8.0,96.0
6569,86.0,0,32,0.0,96.0
6570,74.0,0,29,8.0,96.0
6571,62.0,30,29,10.0,96.0
6572,88.0,0,32,0.0,96.0
6573,66.0,0,14,1.0,96.0
6574,78.0,0,14,7.0,96.0
6575,54.0,0,14,3.0,96.0
6576,90.0,0,29,0.0,96.0
6577,50.0,30,119,11.0,96.0
6578,62.0,0,29,10.0,96.0
6579,74.0,0,119,2.0,96.0
6580,74.0,30,29,8.0,96.0
6581,38.0,0,119,12.0,127.0
6582,72.0,0,119,0.0,96.0
6583,72.0,0,119,2.0,96.0
6584,70.0,0,29,8.0,96.0
6585,58.0,0,29,10.0,96.0
6586,79.0,0,44,7.0,96.0
6587,91.0,0,44,0.0,96.0
6588,74.0,0,44,2.0,96.0
6589,67.0,0,44,1.0,96.0
6590,55.0,30,44,3.0,96.0
6591,71.0,0,44,2.0,96.0
6592,70.0,0,44,0.0,96.0
6593,74.0,0,29,8.0,96.0
6594,62.0,30,29,10.0,96.0
6595,58.0,0,29,10.0,96.0
6596,70.0,30,29,8.0,96.0
6597,86.0,0,14,0.0,96.0
6598,74.0,0,14,2.0,96.0
6599,81.0,0,14,7.0,96.0
6600,57.0,0,14,3.0,96.0
6601,69.0,30,14,1.0,96.0
6602,62.0,0,14,2.0,96.0
6603,55.0,0,29,10.0,96.0
6604,55.0,0,119,11.0,96.0
6605,67.0,0,29,8.0,96.0
6606,43.0,0,119,12.0,127.0
6607,70.0,0,29,8.0,96.0
6608,58.0,0,29,10.0,96.0
6609,62.0,30,44,2.0,96.0
6610,74.0,0,44,2.0,96.0
6611,82.0,0,44,7.0,96.0
6612,86.0,0,44,0.0,96.0
6613,70.0,0,44,1.0,96.0
6614,58.0,0,44,3.0,96.0
6615,74.0,0,29,8.0,96.0
6616,62.0,30,29,10.0,96.0
6617,70.0,0,29,8.0,96.0
6618,58.0,30,29,10.0,96.0
6619,74.0,0,14,2.0,96.0
6620,79.0,0,14,7.0,96.0
6621,55.0,0,14,3.0,96.0
6622,67.0,0,14,1.0,96.0
6623,86.0,30,14,0.0,96.0
6624,62.0,0,14,2.0,96.0
6625,55.0,0,29,10.0,96.0
6626,67.0,0,29,8.0,96.0
6627,55.0,0,119,11.0,96.0
6628,43.0,0,119,12.0,127.0
6629,72.0,0,29,8.0,96.0
6630,60.0,0,29,10.0,96.0
6631,74.0,0,44,2.0,96.0
6632,86.0,30,44,0.0,96.0
6633,54.0,0,44,3.0,96.0
6634,78.0,0,44,7.0,96.0
6635,62.0,0,44,2.0,96.0
6636,66.0,0,44,1.0,96.0
6637,62.0,0,29,10.0,96.0
6638,74.0,30,29,8.0,96.0
6639,72.0,30,29,8.0,96.0
6640,60.0,0,29,10.0,96.0
6641,79.0,0,14,7.0,96.0
6642,86.0,0,14,0.0,96.0
6643,55.0,0,14,3.0,96.0
6644,67.0,0,14,1.0,96.0
6645,62.0,0,14,2.0,96.0
6646,74.0,0,14,2.0,96.0
6647,69.0,0,29,8.0,96.0
6648,50.0,0,119,11.0,96.0
6649,38.0,0,119,12.0,127.0
6650,57.0,30,29,10.0,96.0
6651,60.0,0,29,10.0,96.0
6652,72.0,30,29,8.0,96.0
6653,62.0,0,44,2.0,96.0
6654,74.0,0,44,2.0,96.0
6655,69.0,0,44,1.0,96.0
6656,57.0,0,44,3.0,96.0
6657,81.0,0,44,7.0,96.0
6658,86.0,0,44,0.0,96.0
6659,74.0,0,29,8.0,96.0
6660,62.0,30,29,10.0,96.0
6661,72.0,30,29,8.0,96.0
6662,60.0,0,29,10.0,96.0
6663,86.0,0,14,0.0,96.0
6664,54.0,0,14,3.0,96.0
6665,74.0,0,14,2.0,96.0
6666,78.0,0,14,7.0,96.0
6667,66.0,0,14,1.0,96.0
6668,62.0,30,14,2.0,96.0
6669,69.0,0,29,8.0,96.0
6670,38.0,0,119,12.0,127.0
6671,50.0,0,119,11.0,96.0
6672,57.0,0,29,10.0,96.0
6673,70.0,0,29,8.0,96.0
6674,58.0,0,29,10.0,96.0
6675,86.0,0,44,0.0,96.0
6676,67.0,0,44,1.0,96.0
6677,55.0,0,44,3.0,96.0
6678,74.0,0,44,2.0,96.0
6679,62.0,30,44,2.0,96.0
6680,79.0,0,44,7.0,96.0
6681,74.0,30,29,8.0,96.0
6682,62.0,0,29,10.0,96.0
6683,70.0,30,29,8.0,96.0
6684,58.0,0,29,10.0,96.0
6685,74.0,0,14,2.0,96.0
6686,62.0,30,14,2.0,96.0
6687,81.0,0,14,7.0,96.0
6688,69.0,0,14,1.0,96.0
6689,86.0,0,14,0.0,96.0
6690,57.0,0,14,3.0,96.0
6691,67.0,0,29,8.0,96.0
6692,55.0,0,119,11.0,96.0
6693,55.0,0,29,10.0,96.0
6694,43.0,0,119,12.0,127.0
6695,58.0,0,29,10.0,96.0
6696,70.0,0,29,8.0,96.0
6697,82.0,0,44,7.0,96.0
6698,62.0,0,44,2.0,96.0
6699,70.0,0,44,1.0,96.0
6700,86.0,30,44,0.0,96.0
6701,58.0,0,44,3.0,96.0
6702,74.0,0,44,2.0,96.0
6703,74.0,0,29,8.0,96.0
6704,62.0,30,29,10.0,96.0
6705,58.0,0,29,10.0,96.0
6706,70.0,30,29,8.0,96.0
6707,55.0,0,14,3.0,96.0
6708,74.0,0,14,2.0,96.0
6709,62.0,0,14,2.0,96.0
6710,67.0,30,14,1.0,96.0
6711,79.0,0,14,7.0,96.0
6712,86.0,0,14,0.0,96.0
6713,67.0,0,29,8.0,96.0
6714,55.0,0,119,11.0,96.0
6715,55.0,0,29,10.0,96.0
6716,43.0,0,119,12.0,127.0
6717,72.0,0,29,8.0,96.0
6718,60.0,0,29,10.0,96.0
6719,86.0,0,44,0.0,96.0
6720,78.0,0,44,7.0,96.0
6721,66.0,0,44,1.0,96.0
6722,54.0,0,44,3.0,96.0
6723,74.0,0,44,2.0,96.0
6724,62.0,0,44,2.0,96.0
6725,62.0,0,29,10.0,96.0
6726,74.0,30,29,8.0,96.0
6727,72.0,0,29,8.0,96.0
6728,60.0,30,29,10.0,96.0
6729,55.0,0,14,3.0,96.0
6730,79.0,0,14,7.0,96.0
6731,67.0,0,14,1.0,96.0
6732,74.0,0,14,2.0,96.0
6733,62.0,0,14,2.0,96.0
6734,86.0,0,14,0.0,96.0
6735,38.0,30,119,12.0,127.0
6736,50.0,0,119,11.0,96.0
6737,69.0,30,29,8.0,96.0
6738,57.0,0,29,10.0,96.0
6739,72.0,30,29,8.0,96.0
6740,60.0,0,29,10.0,96.0
6741,74.0,0,44,2.0,96.0
6742,81.0,0,44,7.0,96.0
6743,86.0,0,44,0.0,96.0
6744,57.0,0,44,3.0,96.0
6745,62.0,0,44,2.0,96.0
6746,69.0,0,44,1.0,96.0
6747,62.0,30,29,10.0,96.0
6748,74.0,0,29,8.0,96.0
6749,60.0,0,29,10.0,96.0
6750,72.0,30,29,8.0,96.0
6751,78.0,0,14,7.0,96.0
6752,66.0,0,14,1.0,96.0
6753,86.0,0,14,0.0,96.0
6754,54.0,0,14,3.0,96.0
6755,62.0,0,14,2.0,96.0
6756,74.0,0,14,2.0,96.0
6757,57.0,30,29,10.0,96.0
6758,69.0,0,29,8.0,96.0
6759,38.0,0,119,12.0,127.0
6760,50.0,0,119,11.0,96.0
6761,55.0,0,29,3.0,96.0
6762,86.0,0,29,0.0,96.0
6763,70.0,0,29,8.0,96.0
6764,70.0,0,29,2.0,96.0
6765,67.0,30,29,2.0,96.0
6766,67.0,0,29,1.0,96.0
6767,58.0,0,29,10.0,96.0
6768,43.0,0,59,12.0,127.0
6769,62.0,30,29,10.0,96.0
6770,74.0,0,29,8.0,96.0
6771,55.0,0,59,11.0,96.0
6772,79.0,0,59,7.0,96.0
6773,70.0,0,29,2.0,96.0
6774,70.0,0,29,8.0,96.0
6775,67.0,0,29,2.0,96.0
6776,62.0,0,29,3.0,96.0
6777,58.0,30,29,10.0,96.0
6778,74.0,0,29,1.0,96.0
6779,82.0,0,29,0.0,96.0
6780,86.0,0,29,0.0,96.0
6781,50.0,0,29,3.0,96.0
6782,55.0,0,29,10.0,96.0
6783,67.0,0,119,4.0,96.0
6784,55.0,0,119,4.0,96.0
6785,43.0,0,59,12.0,127.0
6786,67.0,30,29,8.0,96.0
6787,55.0,0,59,11.0,96.0
6788,90.0,0,29,0.0,96.0
6789,50.0,0,29,3.0,96.0
6790,62.0,0,29,3.0,96.0
6791,84.0,0,29,0.0,96.0
6792,78.0,0,29,1.0,96.0
6793,72.0,0,29,2.0,96.0
6794,69.0,0,29,2.0,96.0
6795,72.0,0,29,8.0,96.0
6796,60.0,0,29,10.0,96.0
6797,74.0,0,29,1.0,96.0
6798,74.0,0,29,8.0,96.0
6799,62.0,30,29,10.0,96.0
6800,38.0,30,59,12.0,127.0
6801,50.0,0,59,11.0,96.0
6802,60.0,0,29,10.0,96.0
6803,69.0,30,29,2.0,96.0
6804,72.0,0,29,2.0,96.0
6805,50.0,0,29,3.0,96.0
6806,62.0,0,29,3.0,96.0
6807,74.0,0,29,1.0,96.0
6808,84.0,0,29,0.0,96.0
6809,86.0,0,29,0.0,96.0
6810,72.0,0,29,8.0,96.0
6811,78.0,0,29,1.0,96.0
6812,62.0,0,59,11.0,96.0
6813,69.0,0,119,7.0,96.0
6814,78.0,0,119,7.0,96.0
6815,69.0,0,29,8.0,96.0
6816,57.0,30,29,10.0,96.0
6817,50.0,0,59,12.0,127.0
6818,62.0,0,119,7.0,96.0
6819,67.0,0,29,2.0,96.0
6820,50.0,0,29,3.0,96.0
6821,62.0,0,29,3.0,96.0
6822,74.0,0,29,1.0,96.0
6823,91.0,0,29,0.0,96.0
6824,82.0,0,29,0.0,96.0
6825,70.0,0,29,8.0,96.0
6826,58.0,0,29,10.0,96.0
6827,79.0,0,29,1.0,96.0
6828,70.0,0,29,2.0,96.0
6829,55.0,0,59,11.0,96.0
6830,74.0,0,29,8.0,96.0
6831,62.0,30,29,10.0,96.0
6832,43.0,0,59,12.0,127.0
6833,62.0,0,29,3.0,96.0
6834,50.0,0,29,3.0,96.0
6835,86.0,0,29,0.0,96.0
6836,82.0,0,29,0.0,96.0
6837,70.0,0,29,2.0,96.0
6838,70.0,0,29,8.0,96.0
6839,58.0,0,29,10.0,96.0
6840,79.0,30,29,1.0,96.0
6841,67.0,0,29,2.0,96.0
6842,74.0,0,29,1.0,96.0
6843,67.0,0,29,8.0,96.0
6844,67.0,0,119,4.0,96.0
6845,43.0,0,59,12.0,127.0
6846,62.0,30,119,7.0,96.0
6847,55.0,0,119,4.0,96.0
6848,79.0,0,119,7.0,96.0
6849,55.0,0,119,7.0,96.0
6850,70.0,0,119,7.0,96.0
6851,55.0,0,59,11.0,96.0
6852,55.0,30,29,10.0,96.0
6853,72.0,0,29,8.0,96.0
6854,69.0,0,29,2.0,96.0
6855,72.0,0,29,2.0,96.0
6856,78.0,0,29,1.0,96.0
6857,84.0,30,29,0.0,96.0
6858,90.0,0,29,0.0,96.0
6859,74.0,0,29,1.0,96.0
6860,62.0,0,29,3.0,96.0
6861,50.0,0,29,3.0,96.0
6862,60.0,0,29,10.0,96.0
6863,74.0,30,29,8.0,96.0
6864,38.0,0,59,12.0,127.0
6865,62.0,0,29,10.0,96.0
6866,50.0,0,59,11.0,96.0
6867,72.0,0,29,8.0,96.0
6868,72.0,0,29,2.0,96.0
6869,50.0,0,29,3.0,96.0
6870,69.0,0,29,2.0,96.0
6871,62.0,0,29,3.0,96.0
6872,60.0,0,29,10.0,96.0
6873,86.0,0,29,0.0,96.0
6874,84.0,0,29,0.0,96.0
6875,74.0,0,29,1.0,96.0
6876,78.0,0,29,1.0,96.0
6877,62.0,30,59,11.0,96.0
6878,62.0,0,119,7.0,96.0
6879,78.0,0,119,7.0,96.0
6880,69.0,0,119,7.0,96.0
6881,50.0,0,59,12.0,127.0
6882,69.0,30,29,8.0,96.0
6883,57.0,0,29,10.0,96.0
6884,70.0,0,29,2.0,96.0
6885,67.0,0,29,2.0,96.0
6886,82.0,0,29,0.0,96.0
6887,50.0,0,29,3.0,96.0
6888,70.0,30,29,8.0,96.0
6889,74.0,0,29,1.0,96.0
6890,79.0,0,29,1.0,96.0
6891,62.0,0,29,3.0,96.0
6892,58.0,0,29,10.0,96.0
6893,91.0,0,29,0.0,96.0
6894,62.0,30,29,10.0,96.0
6895,55.0,0,59,11.0,96.0
6896,74.0,0,29,8.0,96.0
6897,43.0,0,59,12.0,127.0
6898,50.0,0,29,3.0,96.0
6899,86.0,0,29,0.0,96.0
6900,70.0,0,29,8.0,96.0
6901,62.0,0,29,3.0,96.0
6902,58.0,0,29,10.0,96.0
6903,67.0,0,29,2.0,96.0
6904,70.0,0,29,2.0,96.0
6905,74.0,0,29,1.0,96.0
6906,79.0,0,29,1.0,96.0
6907,82.0,0,29,0.0,96.0
6908,79.0,0,119,7.0,96.0
6909,55.0,0,119,4.0,96.0
6910,67.0,0,119,4.0,96.0
6911,55.0,0,119,7.0,96.0
6912,55.0,30,59,11.0,96.0
6913,70.0,0,119,7.0,96.0
6914,43.0,0,59,12.0,127.0
6915,62.0,0,119,7.0,96.0
6916,55.0,0,29,10.0,96.0
6917,67.0,30,29,8.0,96.0
6918,72.0,0,29,8.0,96.0
6919,50.0,0,29,3.0,96.0
6920,62.0,30,29,3.0,96.0
6921,69.0,0,29,2.0,96.0
6922,72.0,0,29,2.0,96.0
6923,60.0,0,29,10.0,96.0
6924,74.0,0,29,1.0,96.0
6925,90.0,0,29,0.0,96.0
6926,84.0,0,29,0.0,96.0
6927,78.0,0,29,1.0,96.0
6928,38.0,0,59,12.0,127.0
6929,50.0,0,59,11.0,96.0
6930,62.0,30,29,10.0,96.0
6931,74.0,0,29,8.0,96.0
6932,74.0,0,29,1.0,96.0
6933,78.0,30,29,1.0,96.0
6934,86.0,0,29,0.0,96.0
6935,84.0,0,29,0.0,96.0
6936,72.0,0,29,2.0,96.0
6937,69.0,0,29,2.0,96.0
6938,60.0,0,29,10.0,96.0
6939,62.0,0,29,3.0,96.0
6940,72.0,0,29,8.0,96.0
6941,50.0,0,29,3.0,96.0
6942,50.0,0,59,12.0,127.0
6943,62.0,0,119,7.0,96.0
6944,62.0,0,59,11.0,96.0
6945,69.0,0,119,7.0,96.0
6946,78.0,0,119,7.0,96.0
6947,57.0,0,29,10.0,96.0
6948,69.0,30,29,8.0,96.0
6949,82.0,0,29,0.0,96.0
6950,79.0,0,29,1.0,96.0
6951,74.0,0,29,1.0,96.0
6952,58.0,0,29,10.0,96.0
6953,70.0,0,29,2.0,96.0
6954,67.0,0,29,2.0,96.0
6955,62.0,0,29,3.0,96.0
6956,70.0,0,29,8.0,96.0
6957,50.0,0,29,3.0,96.0
6958,91.0,30,29,0.0,96.0
6959,43.0,0,59,12.0,127.0
6960,74.0,30,29,8.0,96.0
6961,62.0,0,29,10.0,96.0
6962,55.0,0,59,11.0,96.0
6963,82.0,0,29,0.0,96.0
6964,86.0,0,29,0.0,96.0
6965,79.0,0,29,1.0,96.0
6966,70.0,0,29,8.0,96.0
6967,70.0,0,29,2.0,96.0
6968,67.0,0,29,2.0,96.0
6969,58.0,0,29,10.0,96.0
6970,50.0,30,29,3.0,96.0
6971,74.0,0,29,1.0,96.0
6972,62.0,0,29,3.0,96.0
6973,55.0,30,29,10.0,96.0
6974,70.0,0,119,7.0,96.0
6975,62.0,0,119,7.0,96.0
6976,43.0,0,59,12.0,127.0
6977,55.0,0,59,11.0,96.0
6978,67.0,0,119,4.0,96.0
6979,55.0,0,119,4.0,96.0
6980,67.0,0,29,8.0,96.0
6981,79.0,0,119,7.0,96.0
6982,55.0,0,119,7.0,96.0
6983,60.0,0,29,10.0,96.0
6984,50.0,0,29,3.0,96.0
6985,74.0,0,29,1.0,96.0
6986,84.0,0,29,0.0,96.0
6987,90.0,0,29,0.0,96.0
6988,72.0,30,29,8.0,96.0
6989,72.0,0,29,2.0,96.0
6990,69.0,0,29,2.0,96.0
6991,78.0,0,29,1.0,96.0
6992,62.0,0,29,3.0,96.0
6993,62.0,30,29,10.0,96.0
6994,74.0,0,29,8.0,96.0
6995,50.0,0,59,11.0,96.0
6996,38.0,0,59,12.0,127.0
6997,69.0,0,29,2.0,96.0
6998,62.0,0,29,3.0,96.0
6999,72.0,0,29,8.0,96.0
7000,74.0,0,29,1.0,96.0
7001,60.0,0,29,10.0,96.0
7002,50.0,30,29,3.0,96.0
7003,72.0,0,29,2.0,96.0
7004,86.0,0,29,0.0,96.0
7005,84.0,0,29,0.0,96.0
7006,78.0,0,29,1.0,96.0
7007,62.0,0,59,11.0,96.0
7008,78.0,0,119,7.0,96.0
7009,69.0,0,119,7.0,96.0
7010,69.0,30,29,8.0,96.0
7011,57.0,0,29,10.0,96.0
7012,62.0,0,119,7.0,96.0
7013,50.0,0,59,12.0,127.0
7014,67.0,0,119,2.0,96.0
7015,70.0,0,119,2.0,96.0
7016,43.0,0,119,12.0,127.0
7017,58.0,0,119,10.0,96.0
7018,91.0,0,119,0.0,96.0
7019,67.0,0,119,4.0,96.0
7020,55.0,0,119,7.0,96.0
7021,62.0,0,119,7.0,96.0
7022,70.0,0,119,7.0,96.0
7023,79.0,0,119,7.0,96.0
7024,55.0,0,119,4.0,96.0
7025,70.0,0,119,8.0,96.0
7026,79.0,0,119,1.0,96.0
7027,62.0,0,119,8.0,96.0
7028,55.0,0,119,11.0,96.0
7029,82.0,0,119,0.0,96.0
7030,55.0,30,119,3.0,96.0
7031,74.0,0,119,1.0,96.0
7032,79.0,0,119,1.0,96.0
7033,79.0,0,119,7.0,96.0
7034,70.0,0,119,7.0,96.0
7035,67.0,0,119,4.0,96.0
7036,55.0,0,119,4.0,96.0
7037,43.0,240,119,12.0,127.0
7038,55.0,0,119,3.0,96.0
7039,55.0,0,119,7.0,96.0
7040,62.0,0,119,8.0,96.0
7041,55.0,0,119,11.0,96.0
7042,79.0,0,119,0.0,96.0
7043,62.0,0,119,7.0,96.0
7044,70.0,0,119,8.0,96.0
7045,55.0,0,119,8.0,96.0
7046,43.0,0,119,3.0,96.0
7047,79.0,0,119,8.0,96.0
7048,67.0,0,119,10.0,96.0
7049,55.0,0,119,10.0,96.0
7050,67.0,0,119,2.0,96.0
7051,55.0,0,59,7.0,48.0
7052,67.0,0,59,7.0,48.0
7053,55.0,0,59,10.0,48.0
7054,43.0,0,59,11.0,47.0
7055,67.0,0,59,8.0,49.0
7056,55.0,0,59,8.0,49.0
7057,31.0,0,59,12.0,79.0
7058,79.0,240,59,0.0,48.0
7059,67.0,0,59,1.0,48.0
7060,72.0,420,62,7.0,48.0
7061,84.0,0,62,0.0,48.0
7062,36.0,0,59,13.0,48.0
7063,48.0,0,59,13.0,48.0
7064,60.0,60,29,10.0,48.0
7065,55.0,0,29,8.0,49.0
7066,64.0,0,29,8.0,49.0
7067,55.0,60,29,8.0,49.0
7068,60.0,0,29,10.0,48.0
7069,64.0,0,29,8.0,49.0
7070,76.0,0,182,7.0,48.0
7071,88.0,60,182,0.0,48.0
7072,55.0,0,29,8.0,49.0
7073,60.0,0,29,10.0,48.0
7074,64.0,60,29,8.0,49.0
7075,84.0,0,59,0.0,48.0
7076,72.0,0,59,7.0,48.0
7077,55.0,0,59,13.0,48.0
7078,43.0,0,59,13.0,48.0
7079,62.0,0,29,10.0,48.0
7080,55.0,0,29,8.0,49.0
7081,65.0,0,29,8.0,49.0
7082,55.0,60,62,3.0,48.0
7083,67.0,0,62,1.0,48.0
7084,55.0,60,29,8.0,49.0
7085,65.0,0,29,8.0,49.0
7086,62.0,0,29,10.0,48.0
7087,71.0,0,182,7.0,48.0
7088,71.0,0,62,1.0,48.0
7089,83.0,60,182,0.0,48.0
7090,59.0,0,62,3.0,48.0
7091,55.0,0,29,8.0,49.0
7092,62.0,0,29,10.0,48.0
7093,65.0,0,29,8.0,49.0
7094,86.0,60,59,0.0,48.0
7095,62.0,0,59,3.0,48.0
7096,74.0,0,59,1.0,48.0
7097,74.0,0,59,7.0,48.0
7098,65.0,60,59,3.0,48.0
7099,43.0,0,59,13.0,48.0
7100,31.0,0,59,13.0,48.0
7101,77.0,0,59,1.0,48.0
7102,59.0,0,29,10.0,48.0
7103,65.0,0,29,8.0,49.0
7104,55.0,0,29,8.0,49.0
7105,62.0,60,29,10.0,48.0
7106,62.0,0,29,10.0,48.0
7107,59.0,60,29,10.0,48.0
7108,65.0,0,29,8.0,49.0
7109,55.0,0,29,8.0,49.0
7110,77.0,0,182,7.0,48.0
7111,89.0,0,182,0.0,48.0
7112,62.0,0,29,10.0,48.0
7113,59.0,0,29,10.0,48.0
7114,65.0,0,29,8.0,49.0
7115,55.0,0,29,8.0,49.0
7116,86.0,0,59,0.0,48.0
7117,74.0,60,59,7.0,48.0
7118,48.0,0,59,13.0,48.0
7119,36.0,60,59,13.0,48.0
7120,60.0,0,29,10.0,48.0
7121,64.0,0,29,8.0,49.0
7122,55.0,0,29,8.0,49.0
7123,64.0,0,29,10.0,48.0
7124,55.0,0,62,3.0,48.0
7125,67.0,60,62,1.0,48.0
7126,64.0,0,29,8.0,49.0
7127,60.0,0,29,10.0,48.0
7128,55.0,0,29,8.0,49.0
7129,84.0,0,182,0.0,48.0
7130,60.0,0,62,3.0,48.0
7131,72.0,0,182,7.0,48.0
7132,72.0,60,62,1.0,48.0
7133,55.0,0,29,8.0,49.0
7134,60.0,60,29,10.0,48.0
7135,64.0,0,29,8.0,49.0
7136,64.0,0,59,3.0,48.0
7137,67.0,0,1439,4.0,48.0
7138,88.0,0,59,0.0,48.0
7139,76.0,0,59,7.0,48.0
7140,55.0,0,1439,4.0,48.0
7141,76.0,0,59,1.0,48.0
7142,67.0,0,59,3.0,48.0
7143,79.0,0,59,7.0,48.0
7144,79.0,60,59,1.0,48.0
7145,91.0,0,59,0.0,48.0
7146,60.0,0,119,13.0,48.0
7147,64.0,60,59,8.0,59.0
7148,55.0,0,59,8.0,59.0
7149,60.0,0,59,10.0,59.0
7150,67.0,0,119,4.0,48.0
7151,55.0,0,119,4.0,48.0
7152,48.0,0,119,13.0,48.0
7153,91.0,60,59,0.0,72.0
7154,79.0,0,59,7.0,72.0
7155,55.0,60,59,8.0,83.0
7156,62.0,0,59,8.0,83.0
7157,59.0,0,59,10.0,83.0
7158,55.0,0,119,13.0,72.0
7159,43.0,0,119,13.0,72.0
7160,67.0,0,119,4.0,72.0
7161,55.0,0,119,4.0,72.0
7162,67.0,0,59,8.0,85.0
7163,40.0,0,119,13.0,96.0
7164,60.0,60,59,10.0,85.0
7165,55.0,0,59,8.0,85.0
7166,52.0,0,119,13.0,96.0
7167,67.0,0,59,8.0,73.0
7168,55.0,60,59,8.0,73.0
7169,60.0,0,59,10.0,73.0
7170,55.0,0,179,4.0,96.0
7171,79.0,0,179,7.0,96.0
7172,67.0,60,179,4.0,96.0
7173,91.0,0,179,0.0,96.0
7174,88.0,0,59,0.0,61.0
7175,67.0,0,59,8.0,61.0
7176,67.0,0,59,4.0,60.0
7177,55.0,0,59,4.0,60.0
7178,55.0,0,59,8.0,61.0
7179,36.0,0,59,13.0,48.0
7180,64.0,0,59,10.0,61.0
7181,76.0,60,59,7.0,61.0
7182,48.0,0,59,13.0,48.0
7183,79.0,0,32,7.0,48.0
7184,91.0,0,32,0.0,48.0
7185,77.0,0,29,7.0,48.0
7186,47.0,60,59,13.0,48.0
7187,89.0,30,29,0.0,48.0
7188,35.0,0,59,13.0,48.0
7189,74.0,0,29,7.0,48.0
7190,86.0,30,29,0.0,48.0
7191,55.0,0,59,8.0,49.0
7192,67.0,0,59,8.0,49.0
7193,31.0,0,59,13.0,48.0
7194,43.0,0,59,13.0,48.0
7195,65.0,0,59,10.0,48.0
7196,62.0,0,59,10.0,48.0
7197,89.0,60,32,0.0,48.0
7198,77.0,0,32,7.0,48.0
7199,76.0,30,29,7.0,48.0
7200,67.0,0,59,8.0,49.0
7201,55.0,0,59,8.0,49.0
7202,48.0,0,59,13.0,48.0
7203,67.0,0,179,4.0,48.0
7204,55.0,0,179,4.0,48.0
7205,36.0,0,59,13.0,48.0
7206,88.0,0,29,0.0,48.0
7207,84.0,0,29,0.0,48.0
7208,72.0,0,29,7.0,48.0
7209,55.0,0,59,8.0,49.0
7210,67.0,0,59,8.0,49.0
7211,40.0,0,59,13.0,48.0
7212,52.0,30,59,13.0,48.0
7213,60.0,0,59,10.0,48.0
7214,64.0,0,59,10.0,48.0
7215,43.0,0,59,13.0,48.0
7216,31.0,0,59,13.0,48.0
7217,55.0,0,59,13.0,48.0
7218,43.0,0,59,13.0,48.0
7219,60.0,0,62,10.0,48.0
7220,76.0,0,122,7.0,48.0
7221,66.0,60,62,8.0,49.0
7222,88.0,60,122,0.0,48.0
7223,74.0,0,59,7.0,48.0
7224,86.0,0,59,0.0,48.0
7225,43.0,60,59,13.0,48.0
7226,31.0,0,59,13.0,48.0
7227,67.0,0,59,8.0,49.0
7228,59.0,0,59,10.0,48.0
7229,60.0,60,62,8.0,32.0
7230,67.0,0,32,7.0,32.0
7231,66.0,30,32,7.0,32.0
7232,67.0,30,32,7.0,32.0
7233,66.0,30,32,7.0,32.0
7234,67.0,30,32,7.0,32.0
7235,63.0,60,182,8.0,32.0
7236,66.0,30,32,7.0,32.0
7237,67.0,30,32,7.0,32.0
7238,72.0,0,239,1.0,48.0
7239,60.0,0,59,8.0,32.0
7240,66.0,30,29,7.0,32.0
7241,67.0,30,32,7.0,32.0
7242,66.0,30,32,7.0,32.0
7243,67.0,30,32,7.0,32.0
7244,66.0,30,32,7.0,32.0
7245,67.0,30,32,7.0,32.0
7246,59.0,0,182,8.0,32.0
7247,66.0,30,32,7.0,32.0
7248,67.0,30,32,7.0,32.0
7249,66.0,30,29,7.0,32.0
7250,62.0,0,59,8.0,32.0
7251,79.0,0,239,1.0,48.0
7252,67.0,30,32,7.0,32.0
7253,66.0,30,32,7.0,32.0
7254,67.0,30,32,7.0,32.0
7255,66.0,30,32,7.0,32.0
7256,67.0,30,32,7.0,32.0
7257,66.0,30,32,7.0,32.0
7258,65.0,0,182,8.0,32.0
7259,67.0,30,32,7.0,32.0
7260,67.0,0,239,1.0,48.0
7261,62.0,0,59,8.0,32.0
7262,66.0,30,29,7.0,32.0
7263,67.0,30,32,7.0,32.0
7264,71.0,30,32,7.0,32.0
7265,72.0,30,32,7.0,32.0
7266,72.0,0,119,1.0,48.0
7267,60.0,0,119,8.0,32.0
7268,71.0,30,32,7.0,32.0
7269,72.0,30,32,7.0,32.0
7270,71.0,30,32,7.0,32.0
7271,72.0,0,32,7.0,32.0
7272,71.0,30,29,7.0,32.0
7273,68.0,0,62,8.0,32.0
7274,53.0,30,62,10.0,33.0
7275,72.0,0,32,7.0,32.0
7276,71.0,30,32,7.0,32.0
7277,72.0,30,32,7.0,32.0
7278,71.0,30,29,7.0,32.0
7279,72.0,30,32,7.0,32.0
7280,71.0,30,32,7.0,32.0
7281,65.0,30,182,8.0,32.0
7282,56.0,0,182,10.0,33.0
7283,72.0,30,32,7.0,32.0
7284,53.0,0,59,10.0,33.0
7285,71.0,30,29,7.0,32.0
7286,65.0,0,239,4.0,48.0
7287,68.0,0,59,8.0,32.0
7288,72.0,0,32,7.0,32.0
7289,71.0,30,32,7.0,32.0
7290,72.0,30,32,7.0,32.0
7291,71.0,30,32,7.0,32.0
7292,72.0,30,32,7.0,32.0
7293,52.0,30,182,10.0,33.0
7294,70.0,0,182,8.0,32.0
7295,71.0,30,32,7.0,32.0
7296,72.0,0,32,7.0,32.0
7297,67.0,30,59,8.0,32.0
7298,72.0,0,239,4.0,48.0
7299,71.0,30,29,7.0,32.0
7300,55.0,0,59,10.0,33.0
7301,72.0,0,32,7.0,32.0
7302,71.0,30,32,7.0,32.0
7303,72.0,30,32,7.0,32.0
7304,71.0,30,32,7.0,32.0
7305,72.0,30,32,7.0,32.0
7306,58.0,0,182,10.0,33.0
7307,64.0,30,182,8.0,32.0
7308,71.0,30,32,7.0,32.0
7309,72.0,0,32,7.0,32.0
7310,67.0,30,59,8.0,32.0
7311,60.0,0,239,4.0,48.0
7312,71.0,30,29,7.0,32.0
7313,55.0,0,59,10.0,33.0
7314,72.0,0,14,7.0,32.0
7315,68.0,30,59,8.0,32.0
7316,53.0,0,59,10.0,33.0
7317,59.0,30,32,7.0,32.0
7318,60.0,30,32,7.0,32.0
7319,65.0,0,119,4.0,48.0
7320,59.0,30,32,7.0,32.0
7321,60.0,30,32,7.0,32.0
7322,59.0,30,32,7.0,32.0
7323,60.0,0,32,7.0,32.0
7324,59.0,30,29,7.0,32.0
7325,53.0,0,62,11.0,32.0
7326,41.0,30,62,12.0,64.0
7327,58.0,0,32,7.0,32.0
7328,57.0,30,32,7.0,33.0
7329,58.0,30,32,7.0,34.0
7330,57.0,30,32,7.0,35.0
7331,58.0,30,32,7.0,36.0
7332,50.0,0,182,10.0,33.0
7333,44.0,30,182,12.0,64.0
7334,56.0,0,182,11.0,32.0
7335,57.0,30,32,7.0,37.0
7336,58.0,30,32,7.0,38.0
7337,53.0,0,59,11.0,37.0
7338,41.0,0,59,12.0,69.0
7339,53.0,0,59,10.0,38.0
7340,65.0,0,239,2.0,32.0
7341,77.0,0,239,0.0,32.0
7342,57.0,30,32,7.0,39.0
7343,58.0,0,32,7.0,40.0
7344,57.0,30,32,7.0,41.0
7345,58.0,30,32,7.0,42.0
7346,57.0,30,32,7.0,43.0
7347,58.0,30,32,7.0,44.0
7348,57.0,30,32,7.0,45.0
7349,56.0,30,182,10.0,40.0
7350,38.0,0,182,12.0,71.0
7351,50.0,0,182,11.0,39.0
7352,58.0,0,32,7.0,46.0
7353,53.0,30,59,10.0,46.0
7354,41.0,0,59,12.0,77.0
7355,53.0,0,59,11.0,45.0
7356,70.0,0,239,2.0,40.0
7357,82.0,0,239,0.0,40.0
7358,57.0,30,32,7.0,47.0
7359,58.0,0,32,7.0,48.0
7360,57.0,30,32,7.0,46.0
7361,58.0,30,32,7.0,44.0
7362,57.0,30,32,7.0,42.0
7363,58.0,30,32,7.0,40.0
7364,50.0,0,182,10.0,48.0
7365,50.0,0,182,11.0,47.0
7366,38.0,0,182,12.0,79.0
7367,57.0,30,32,7.0,38.0
7368,58.0,0,32,7.0,36.0
7369,70.0,30,239,0.0,48.0
7370,45.0,30,59,11.0,37.0
7371,33.0,0,59,12.0,69.0
7372,58.0,0,239,4.0,48.0
7373,53.0,0,59,10.0,37.0
7374,58.0,0,239,2.0,48.0
7375,46.0,0,239,4.0,48.0
7376,57.0,30,32,7.0,34.0
7377,58.0,0,32,7.0,32.0
7378,65.0,0,59,2.0,33.0
7379,31.0,0,59,12.0,64.0
7380,43.0,0,59,11.0,32.0
7381,55.0,0,59,10.0,33.0
7382,75.0,0,59,0.0,33.0
7383,63.0,0,59,4.0,33.0
7384,75.0,30,29,7.0,32.0
7385,51.0,30,59,4.0,33.0
7386,77.0,30,29,7.0,32.0
7387,75.0,30,29,7.0,32.0
7388,74.0,30,29,7.0,32.0
7389,75.0,30,29,7.0,32.0
7390,77.0,30,29,7.0,32.0
7391,79.0,30,29,7.0,32.0
7392,63.0,0,239,8.0,33.0
7393,80.0,30,29,7.0,32.0
7394,82.0,30,29,7.0,32.0
7395,84.0,30,29,7.0,32.0
7396,82.0,30,29,7.0,32.0
7397,80.0,30,29,7.0,32.0
7398,79.0,30,29,7.0,32.0
7399,77.0,30,29,7.0,32.0
7400,58.0,0,239,8.0,33.0
7401,75.0,30,29,7.0,32.0
7402,74.0,30,29,7.0,32.0
7403,75.0,30,29,7.0,32.0
7404,77.0,30,29,7.0,32.0
7405,75.0,30,29,7.0,32.0
7406,74.0,30,29,7.0,32.0
7407,72.0,30,29,7.0,32.0
7408,70.0,30,29,7.0,32.0
7409,68.0,30,29,7.0,32.0
7410,70.0,0,239,8.0,33.0
7411,67.0,30,29,7.0,32.0
7412,70.0,30,29,7.0,32.0
7413,75.0,30,29,7.0,32.0
7414,74.0,30,29,7.0,32.0
7415,72.0,30,29,7.0,32.0
7416,70.0,30,29,7.0,32.0
7417,63.0,0,179,8.0,33.0
7418,68.0,30,29,7.0,32.0
7419,60.0,0,29,8.0,33.0
7420,67.0,30,29,7.0,32.0
7421,62.0,0,29,8.0,33.0
7422,65.0,30,29,7.0,32.0
7423,68.0,30,29,7.0,32.0
7424,63.0,0,29,8.0,33.0
7425,68.0,30,29,7.0,32.0
7426,68.0,30,29,7.0,32.0
7427,65.0,0,29,8.0,33.0
7428,68.0,30,29,7.0,32.0
7429,68.0,30,29,7.0,32.0
7430,70.0,30,29,7.0,32.0
7431,62.0,0,29,8.0,33.0
7432,68.0,30,29,7.0,32.0
7433,67.0,30,29,7.0,32.0
7434,70.0,30,29,7.0,32.0
7435,72.0,30,29,7.0,32.0
7436,70.0,30,29,7.0,32.0
7437,68.0,30,29,7.0,32.0
7438,63.0,0,179,8.0,33.0
7439,67.0,30,29,7.0,32.0
7440,67.0,0,29,8.0,33.0
7441,65.0,30,29,7.0,32.0
7442,63.0,30,29,7.0,32.0
7443,62.0,30,29,7.0,32.0
7444,65.0,0,29,8.0,33.0
7445,63.0,30,29,7.0,32.0
7446,65.0,30,29,7.0,32.0
7447,67.0,0,29,8.0,33.0
7448,63.0,30,29,7.0,32.0
7449,62.0,30,29,7.0,32.0
7450,68.0,0,29,8.0,33.0
7451,60.0,30,29,7.0,32.0
7452,58.0,30,29,7.0,32.0
7453,60.0,30,29,7.0,32.0
7454,61.0,30,29,7.0,32.0
7455,60.0,30,29,7.0,32.0
7456,68.0,0,119,8.0,33.0
7457,70.0,30,29,8.0,33.0
7458,58.0,0,29,7.0,32.0
7459,68.0,0,29,8.0,33.0
7460,60.0,30,29,7.0,32.0
7461,61.0,0,29,7.0,32.0
7462,67.0,30,29,8.0,33.0
7463,68.0,30,29,8.0,33.0
7464,60.0,0,29,7.0,32.0
7465,70.0,0,29,8.0,33.0
7466,58.0,30,29,7.0,32.0
7467,58.0,0,239,10.0,32.0
7468,56.0,0,29,7.0,32.0
7469,72.0,30,29,8.0,33.0
7470,73.0,0,29,8.0,33.0
7471,55.0,0,59,7.0,32.0
7472,75.0,30,29,8.0,33.0
7473,77.0,0,29,8.0,33.0
7474,75.0,30,29,8.0,33.0
7475,67.0,30,89,7.0,32.0
7476,73.0,30,29,8.0,33.0
7477,68.0,0,29,7.0,32.0
7478,72.0,30,29,8.0,33.0
7479,70.0,30,29,7.0,32.0
7480,70.0,0,29,8.0,33.0
7481,72.0,30,29,7.0,32.0
7482,51.0,30,239,10.0,32.0
7483,68.0,0,29,8.0,33.0
7484,73.0,30,29,7.0,32.0
7485,67.0,0,29,8.0,33.0
7486,68.0,30,29,8.0,33.0
7487,70.0,0,29,8.0,33.0
7488,73.0,30,29,7.0,32.0
7489,68.0,30,29,8.0,33.0
7490,67.0,30,29,8.0,33.0
7491,70.0,0,29,7.0,32.0
7492,65.0,30,29,8.0,33.0
7493,63.0,0,29,8.0,33.0
7494,63.0,0,239,10.0,32.0
7495,61.0,30,29,8.0,33.0
7496,60.0,0,29,8.0,33.0
7497,75.0,30,119,7.0,32.0
7498,63.0,30,29,8.0,33.0
7499,68.0,30,29,8.0,33.0
7500,67.0,30,29,8.0,33.0
7501,72.0,0,62,7.0,32.0
7502,65.0,30,29,8.0,33.0
7503,63.0,30,29,8.0,33.0
7504,56.0,30,179,10.0,32.0
7505,53.0,0,29,10.0,32.0
7506,61.0,30,29,8.0,33.0
7507,60.0,30,29,8.0,33.0
7508,55.0,30,29,10.0,32.0
7509,58.0,0,29,8.0,33.0
7510,73.0,0,179,7.0,32.0
7511,61.0,30,29,8.0,33.0
7512,56.0,0,29,10.0,32.0
7513,61.0,30,29,8.0,33.0
7514,61.0,30,29,8.0,33.0
7515,70.0,0,62,7.0,32.0
7516,58.0,30,29,10.0,32.0
7517,61.0,0,29,8.0,33.0
7518,61.0,30,29,8.0,33.0
7519,63.0,30,29,8.0,33.0
7520,55.0,0,29,10.0,32.0
7521,61.0,30,29,8.0,33.0
7522,60.0,30,29,8.0,33.0
7523,63.0,30,29,8.0,33.0
7524,75.0,0,179,7.0,32.0
7525,68.0,0,29,8.0,33.0
7526,67.0,30,29,8.0,33.0
7527,72.0,30,62,7.0,32.0
7528,65.0,30,29,8.0,33.0
7529,56.0,0,179,10.0,32.0
7530,65.0,30,29,8.0,33.0
7531,67.0,0,29,8.0,33.0
7532,61.0,30,29,10.0,32.0
7533,68.0,30,29,8.0,33.0
7534,73.0,0,149,7.0,32.0
7535,58.0,30,29,10.0,32.0
7536,72.0,30,29,7.0,32.0
7537,70.0,0,59,8.0,33.0
7538,70.0,30,29,7.0,32.0
7539,60.0,0,29,10.0,32.0
7540,68.0,30,29,7.0,32.0
7541,61.0,30,29,10.0,32.0
7542,67.0,0,29,7.0,32.0
7543,68.0,30,29,7.0,32.0
7544,58.0,0,29,10.0,32.0
7545,67.0,30,29,7.0,32.0
7546,65.0,30,29,7.0,32.0
7547,73.0,0,89,8.0,33.0
7548,67.0,30,29,8.0,33.0
7549,60.0,30,59,10.0,32.0
7550,64.0,0,59,7.0,32.0
7551,72.0,30,29,8.0,33.0
7552,70.0,30,29,8.0,33.0
7553,64.0,0,59,10.0,32.0
7554,68.0,30,29,8.0,33.0
7555,67.0,30,29,8.0,33.0
7556,68.0,30,29,8.0,33.0
7557,70.0,30,29,8.0,33.0
7558,67.0,0,179,10.0,56.0
7559,75.0,60,29,0.0,48.0
7560,58.0,0,59,10.0,32.0
7561,67.0,0,179,8.0,33.0
7562,63.0,60,59,10.0,32.0
7563,65.0,0,29,8.0,33.0
7564,65.0,60,29,10.0,32.0
7565,63.0,30,29,8.0,33.0
7566,39.0,0,239,12.0,64.0
7567,51.0,30,239,11.0,32.0
7568,67.0,0,29,10.0,32.0
7569,68.0,0,29,10.0,32.0
7570,70.0,30,29,10.0,32.0
7571,79.0,0,179,0.0,72.0
7572,72.0,0,59,8.0,33.0
7573,72.0,30,29,10.0,32.0
7574,58.0,0,29,8.0,33.0
7575,60.0,0,29,8.0,33.0
7576,75.0,0,59,0.0,48.0
7577,70.0,30,29,10.0,32.0
7578,62.0,30,29,8.0,33.0
7579,68.0,0,29,10.0,32.0
7580,63.0,30,29,8.0,33.0
7581,67.0,0,29,10.0,32.0
7582,65.0,30,29,8.0,33.0
7583,65.0,0,29,10.0,32.0
7584,67.0,30,29,8.0,33.0
7585,46.0,30,239,11.0,32.0
7586,34.0,0,239,12.0,64.0
7587,63.0,0,29,10.0,32.0
7588,62.0,0,29,10.0,32.0
7589,63.0,30,29,10.0,32.0
7590,68.0,30,59,8.0,33.0
7591,74.0,0,179,0.0,72.0
7592,65.0,30,29,8.0,33.0
7593,77.0,0,29,0.0,48.0
7594,65.0,0,29,10.0,32.0
7595,67.0,30,29,8.0,33.0
7596,63.0,0,29,10.0,32.0
7597,62.0,0,29,10.0,32.0
7598,80.0,0,29,0.0,48.0
7599,68.0,30,29,8.0,33.0
7600,60.0,30,29,10.0,32.0
7601,70.0,0,29,8.0,33.0
7602,58.0,30,29,10.0,32.0
7603,72.0,0,29,8.0,33.0
7604,56.0,0,29,10.0,32.0
7605,46.0,0,239,12.0,64.0
7606,77.0,0,29,0.0,48.0
7607,58.0,0,239,11.0,32.0
7608,74.0,30,29,8.0,33.0
7609,55.0,0,29,10.0,32.0
7610,75.0,30,59,8.0,33.0
7611,58.0,30,29,10.0,32.0
7612,75.0,0,62,0.0,48.0
7613,63.0,30,29,10.0,32.0
7614,79.0,0,59,0.0,48.0
7615,62.0,30,29,10.0,32.0
7616,67.0,0,62,8.0,33.0
7617,60.0,0,29,10.0,32.0
7618,39.0,0,179,12.0,64.0
7619,58.0,30,29,10.0,32.0
7620,51.0,0,179,11.0,32.0
7621,82.0,0,89,0.0,48.0
7622,56.0,30,29,10.0,32.0
7623,48.0,0,29,11.0,32.0
7624,36.0,0,29,12.0,64.0
7625,55.0,30,29,10.0,32.0
7626,38.0,0,29,12.0,64.0
7627,53.0,0,29,10.0,32.0
7628,50.0,30,29,11.0,32.0
7629,68.0,30,179,8.0,33.0
7630,56.0,30,29,10.0,32.0
7631,51.0,0,29,11.0,32.0
7632,82.0,0,89,0.0,48.0
7633,39.0,0,29,12.0,64.0
7634,56.0,0,29,10.0,32.0
7635,56.0,30,29,10.0,32.0
7636,65.0,30,62,8.0,32.0
7637,41.0,0,29,12.0,64.0
7638,53.0,0,29,11.0,32.0
7639,56.0,30,29,10.0,32.0
7640,56.0,30,29,10.0,32.0
7641,82.0,0,89,0.0,48.0
7642,58.0,0,29,10.0,32.0
7643,50.0,0,29,11.0,32.0
7644,38.0,30,29,12.0,64.0
7645,56.0,30,29,10.0,32.0
7646,54.0,30,29,10.0,32.0
7647,70.0,0,179,8.0,34.0
7648,58.0,30,29,10.0,32.0
7649,63.0,0,29,10.0,32.0
7650,62.0,30,29,10.0,32.0
7651,67.0,30,62,8.0,42.0
7652,60.0,0,29,10.0,32.0
7653,63.0,30,29,10.0,32.0
7654,68.0,30,59,8.0,44.0
7655,75.0,0,59,7.0,32.0
7656,51.0,0,179,11.0,32.0
7657,39.0,0,179,12.0,64.0
7658,65.0,0,29,10.0,32.0
7659,44.0,0,29,12.0,64.0
7660,56.0,30,29,11.0,32.0
7661,63.0,30,29,10.0,33.0
7662,41.0,0,29,12.0,67.0
7663,60.0,0,89,8.0,47.0
7664,53.0,0,29,11.0,35.0
7665,70.0,30,29,8.0,51.0
7666,68.0,0,59,7.0,35.0
7667,62.0,30,59,10.0,35.0
7668,43.0,0,29,12.0,70.0
7669,68.0,0,29,8.0,52.0
7670,55.0,30,29,11.0,38.0
7671,67.0,30,29,8.0,53.0
7672,65.0,30,29,8.0,55.0
7673,44.0,0,29,12.0,73.0
7674,56.0,0,29,11.0,41.0
7675,62.0,0,59,10.0,41.0
7676,77.0,0,59,7.0,41.0
7677,63.0,30,29,8.0,56.0
7678,53.0,30,29,11.0,44.0
7679,62.0,0,29,8.0,57.0
7680,41.0,0,29,12.0,76.0
7681,60.0,30,29,8.0,58.0
7682,59.0,0,59,8.0,60.0
7683,65.0,0,59,7.0,47.0
7684,55.0,30,59,10.0,47.0
7685,43.0,0,59,12.0,79.0
7686,55.0,0,59,11.0,47.0
7687,80.0,60,29,7.0,50.0
7688,79.0,30,29,7.0,51.0
7689,77.0,0,29,7.0,53.0
7690,74.0,0,59,8.0,65.0
7691,75.0,30,29,7.0,54.0
7692,67.0,30,59,10.0,53.0
7693,74.0,30,29,7.0,56.0
7694,72.0,30,29,7.0,57.0
7695,71.0,0,29,7.0,59.0
7696,67.0,30,59,8.0,70.0
7697,72.0,30,29,7.0,60.0
7698,74.0,0,29,7.0,62.0
7699,59.0,30,29,10.0,62.0
7700,72.0,0,29,7.0,64.0
7701,60.0,30,29,10.0,64.0
7702,71.0,30,29,7.0,65.0
7703,62.0,0,29,10.0,65.0
7704,55.0,0,59,11.0,65.0
7705,43.0,0,59,12.0,97.0
7706,68.0,30,29,7.0,67.0
7707,55.0,0,29,10.0,67.0
7708,57.0,0,29,10.0,68.0
7709,67.0,30,29,7.0,68.0
7710,65.0,0,29,7.0,70.0
7711,59.0,30,29,10.0,70.0
7712,48.0,30,59,11.0,71.0
7713,36.0,0,59,12.0,103.0
7714,79.0,0,179,8.0,75.0
7715,63.0,0,59,7.0,71.0
7716,75.0,0,29,7.0,74.0
7717,74.0,30,29,7.0,76.0
7718,60.0,0,119,10.0,71.0
7719,79.0,60,62,8.0,83.0
7720,72.0,30,29,7.0,77.0
7721,70.0,30,29,7.0,79.0
7722,48.0,0,59,12.0,109.0
7723,60.0,0,59,11.0,77.0
7724,68.0,30,29,7.0,80.0
7725,63.0,0,59,10.0,80.0
7726,67.0,30,29,7.0,82.0
7727,65.0,30,29,10.0,83.0
7728,63.0,30,29,10.0,85.0
7729,80.0,0,179,8.0,85.0
7730,65.0,0,59,7.0,83.0
7731,62.0,0,29,10.0,86.0
7732,62.0,0,119,11.0,83.0
7733,50.0,0,119,12.0,115.0
7734,80.0,30,59,7.0,86.0
7735,60.0,30,29,10.0,88.0
7736,77.0,0,62,8.0,93.0
7737,58.0,0,29,10.0,89.0
7738,46.0,0,29,11.0,91.0
7739,60.0,0,29,10.0,91.0
7740,34.0,0,29,12.0,123.0
7741,62.0,30,29,7.0,91.0
7742,48.0,0,29,11.0,92.0
7743,58.0,0,29,10.0,92.0
7744,63.0,0,29,7.0,92.0
7745,36.0,30,29,12.0,124.0
7746,56.0,30,29,10.0,94.0
7747,65.0,0,29,7.0,94.0
7748,38.0,0,29,12.0,126.0
7749,50.0,0,29,11.0,94.0
7750,39.0,0,29,12.0,127.0
7751,51.0,0,29,11.0,96.0
7752,39.0,30,29,12.0,127.0
7753,51.0,0,29,11.0,96.0
7754,41.0,0,29,12.0,127.0
7755,53.0,30,29,11.0,96.0
7756,63.0,0,29,4.0,95.0
7757,51.0,0,29,4.0,95.0
7758,51.0,30,29,11.0,96.0
7759,82.0,30,239,8.0,96.0
7760,55.0,30,119,10.0,96.0
7761,39.0,0,29,12.0,127.0
7762,38.0,0,29,12.0,127.0
7763,50.0,0,29,11.0,96.0
7764,39.0,30,29,12.0,127.0
7765,51.0,0,29,11.0,96.0
7766,53.0,0,29,11.0,96.0
7767,41.0,30,29,12.0,127.0
7768,55.0,0,29,11.0,96.0
7769,43.0,30,29,12.0,127.0
7770,75.0,0,239,7.0,96.0
7771,67.0,0,239,7.0,96.0
7772,44.0,0,29,12.0,127.0
7773,56.0,30,29,11.0,96.0
7774,46.0,0,29,12.0,127.0
7775,58.0,30,29,11.0,96.0
7776,55.0,0,179,4.0,112.0
7777,67.0,30,179,4.0,112.0
7778,60.0,30,29,11.0,96.0
7779,51.0,0,29,4.0,95.0
7780,63.0,0,29,4.0,95.0
7781,48.0,0,29,12.0,127.0
7782,58.0,30,29,11.0,96.0
7783,63.0,0,239,10.0,96.0
7784,46.0,0,29,12.0,127.0
7785,44.0,0,29,12.0,127.0
7786,62.0,0,29,10.0,96.0
7787,56.0,30,29,11.0,96.0
7788,43.0,30,29,12.0,127.0
7789,55.0,0,29,11.0,96.0
7790,63.0,0,29,10.0,96.0
7791,41.0,0,29,12.0,127.0
7792,53.0,30,29,11.0,96.0
7793,65.0,0,29,10.0,96.0
7794,39.0,30,29,12.0,127.0
7795,70.0,0,239,7.0,111.0
7796,51.0,0,29,11.0,96.0
7797,67.0,0,29,10.0,96.0
7798,38.0,0,29,12.0,127.0
7799,50.0,0,29,11.0,96.0
7800,39.0,30,29,12.0,127.0
7801,46.0,0,179,4.0,95.0
7802,58.0,0,179,4.0,95.0
7803,68.0,0,59,10.0,96.0
7804,51.0,0,29,11.0,96.0
7805,53.0,0,29,11.0,96.0
7806,50.0,30,29,10.0,96.0
7807,41.0,0,29,12.0,127.0
7808,58.0,0,29,4.0,95.0
7809,65.0,0,29,4.0,95.0
7810,39.0,30,29,12.0,127.0
7811,51.0,0,29,11.0,96.0
7812,51.0,0,29,10.0,96.0
7813,50.0,0,29,11.0,96.0
7814,65.0,0,29,4.0,95.0
7815,68.0,30,29,4.0,95.0
7816,38.0,0,29,12.0,127.0
7817,48.0,0,29,11.0,96.0
7818,36.0,30,29,12.0,127.0
7819,53.0,0,59,10.0,96.0
7820,65.0,0,29,4.0,95.0
7821,46.0,0,29,4.0,95.0
7822,46.0,0,29,11.0,96.0
7823,55.0,0,29,10.0,96.0
7824,34.0,30,29,12.0,127.0
7825,56.0,0,29,10.0,96.0
7826,44.0,0,29,11.0,96.0
7827,32.0,30,29,12.0,127.0
7828,82.0,30,239,7.0,111.0
7829,43.0,0,29,11.0,96.0
7830,51.0,0,29,4.0,95.0
7831,63.0,0,29,4.0,95.0
7832,31.0,30,29,12.0,127.0
7833,34.0,30,29,12.0,127.0
7834,58.0,0,59,10.0,96.0
7835,46.0,0,29,11.0,96.0
7836,39.0,30,29,12.0,127.0
7837,58.0,0,29,4.0,95.0
7838,67.0,0,29,4.0,95.0
7839,51.0,0,29,11.0,96.0
7840,50.0,0,29,11.0,96.0
7841,38.0,30,29,12.0,127.0
7842,55.0,0,62,10.0,96.0
7843,36.0,0,29,12.0,127.0
7844,48.0,0,29,11.0,96.0
7845,34.0,30,29,12.0,127.0
7846,75.0,0,179,7.0,96.0
7847,46.0,0,29,11.0,96.0
7848,44.0,30,29,11.0,96.0
7849,72.0,0,29,7.0,96.0
7850,32.0,0,29,12.0,127.0
7851,70.0,0,89,4.0,95.0
7852,58.0,0,89,4.0,95.0
7853,31.0,0,29,12.0,127.0
7854,43.0,30,29,11.0,96.0
7855,29.0,0,29,12.0,127.0
7856,74.0,30,29,7.0,96.0
7857,41.0,0,29,11.0,96.0
7858,32.0,30,29,12.0,127.0
7859,56.0,30,179,10.0,96.0
7860,44.0,0,29,11.0,96.0
7861,58.0,0,89,4.0,95.0
7862,70.0,0,89,4.0,95.0
7863,44.0,0,29,11.0,96.0
7864,32.0,0,29,12.0,127.0
7865,75.0,0,29,7.0,96.0
7866,44.0,30,29,11.0,96.0
7867,32.0,0,29,12.0,127.0
7868,53.0,30,62,10.0,96.0
7869,44.0,0,29,11.0,96.0
7870,77.0,0,29,7.0,96.0
7871,32.0,0,29,12.0,127.0
7872,44.0,30,29,11.0,96.0
7873,32.0,0,29,12.0,127.0
7874,70.0,0,89,4.0,95.0
7875,74.0,30,29,7.0,96.0
7876,34.0,0,29,12.0,127.0
7877,58.0,30,89,4.0,95.0
7878,46.0,0,29,11.0,96.0
7879,32.0,30,29,12.0,127.0
7880,44.0,0,29,11.0,96.0
7881,31.0,0,29,12.0,127.0
7882,43.0,30,29,11.0,96.0
7883,46.0,0,29,11.0,96.0
7884,58.0,0,179,10.0,96.0
7885,34.0,30,29,12.0,127.0
7886,39.0,0,29,12.0,127.0
7887,51.0,0,29,11.0,96.0
7888,38.0,0,29,12.0,127.0
7889,50.0,30,29,11.0,96.0
7890,55.0,30,62,10.0,96.0
7891,36.0,0,29,12.0,127.0
7892,48.0,30,29,11.0,96.0
7893,75.0,0,179,7.0,96.0
7894,50.0,30,29,11.0,96.0
7895,38.0,0,29,12.0,127.0
7896,51.0,0,29,11.0,96.0
7897,39.0,30,29,12.0,127.0
7898,80.0,0,29,7.0,96.0
7899,48.0,30,29,11.0,96.0
7900,36.0,0,29,12.0,127.0
7901,38.0,0,29,12.0,127.0
7902,77.0,0,29,7.0,96.0
7903,50.0,30,29,11.0,96.0
7904,51.0,30,29,11.0,96.0
7905,39.0,0,29,12.0,127.0
7906,56.0,0,179,10.0,96.0
7907,79.0,0,29,7.0,96.0
7908,41.0,0,29,12.0,127.0
7909,53.0,30,29,11.0,96.0
7910,39.0,30,29,12.0,127.0
7911,51.0,0,29,11.0,96.0
7912,57.0,0,62,10.0,96.0
7913,80.0,30,29,7.0,96.0
7914,50.0,0,29,11.0,96.0
7915,38.0,0,29,12.0,127.0
7916,46.0,30,29,11.0,96.0
7917,34.0,0,29,12.0,127.0
7918,77.0,0,29,7.0,96.0
7919,36.0,0,29,12.0,127.0
7920,48.0,30,29,11.0,96.0
7921,38.0,30,29,12.0,127.0
7922,50.0,0,29,11.0,96.0
7923,58.0,0,119,10.0,96.0
7924,79.0,0,29,7.0,96.0
7925,51.0,0,29,11.0,96.0
7926,39.0,30,29,12.0,127.0
7927,38.0,0,29,12.0,127.0
7928,50.0,30,29,11.0,96.0
7929,39.0,30,29,12.0,127.0
7930,80.0,0,29,7.0,96.0
7931,51.0,0,29,11.0,96.0
7932,53.0,0,29,11.0,96.0
7933,70.0,0,239,8.0,112.0
7934,41.0,30,29,12.0,127.0
7935,55.0,0,29,11.0,96.0
7936,43.0,30,29,12.0,127.0
7937,82.0,0,29,7.0,96.0
7938,44.0,0,29,12.0,127.0
7939,56.0,30,29,11.0,96.0
7940,63.0,0,59,8.0,96.0
7941,43.0,0,29,12.0,127.0
7942,80.0,0,29,7.0,96.0
7943,55.0,30,29,11.0,96.0
7944,53.0,30,29,11.0,96.0
7945,41.0,0,29,12.0,127.0
7946,79.0,0,29,7.0,96.0
7947,52.0,0,29,11.0,96.0
7948,40.0,30,29,12.0,127.0
7949,53.0,30,29,11.0,96.0
7950,41.0,0,29,12.0,127.0
7951,43.0,0,29,12.0,127.0
7952,55.0,30,29,11.0,96.0
7953,80.0,0,29,7.0,96.0
7954,58.0,0,239,10.0,112.0
7955,41.0,30,29,12.0,127.0
7956,53.0,0,29,11.0,96.0
7957,52.0,0,29,11.0,96.0
7958,40.0,30,29,12.0,127.0
7959,82.0,0,29,7.0,96.0
7960,55.0,0,59,10.0,96.0
7961,36.0,0,29,12.0,127.0
7962,48.0,30,29,11.0,96.0
7963,79.0,0,29,7.0,96.0
7964,50.0,30,29,11.0,96.0
7965,38.0,0,29,12.0,127.0
7966,40.0,30,29,12.0,127.0
7967,52.0,0,29,11.0,96.0
7968,53.0,0,29,11.0,96.0
7969,80.0,0,29,7.0,96.0
7970,41.0,30,29,12.0,127.0
7971,52.0,0,29,11.0,96.0
7972,40.0,30,29,12.0,127.0
7973,53.0,30,29,11.0,96.0
7974,82.0,0,29,7.0,96.0
7975,41.0,0,29,12.0,127.0
7976,72.0,0,239,8.0,112.0
7977,55.0,0,29,11.0,96.0
7978,43.0,30,29,12.0,127.0
7979,44.0,0,29,12.0,127.0
7980,56.0,0,29,11.0,96.0
7981,84.0,0,29,7.0,96.0
7982,43.0,30,29,12.0,127.0
7983,55.0,0,29,11.0,96.0
7984,44.0,0,29,12.0,127.0
7985,79.0,0,29,7.0,96.0
7986,56.0,30,29,11.0,96.0
7987,53.0,30,29,11.0,96.0
7988,65.0,30,119,8.0,96.0
7989,41.0,0,29,12.0,127.0
7990,82.0,30,29,7.0,96.0
7991,43.0,0,59,12.0,127.0
7992,55.0,0,59,11.0,96.0
7993,67.0,60,29,8.0,96.0
7994,84.0,0,29,7.0,96.0
7995,51.0,0,59,11.0,96.0
7996,68.0,30,29,8.0,96.0
7997,61.0,0,239,10.0,112.0
7998,39.0,0,59,12.0,127.0
7999,85.0,30,29,7.0,96.0
8000,70.0,0,29,8.0,96.0
8001,68.0,30,29,8.0,96.0
8002,82.0,30,29,7.0,96.0
8003,70.0,0,29,8.0,96.0
8004,67.0,30,29,8.0,96.0
8005,84.0,30,29,7.0,96.0
8006,68.0,0,29,8.0,96.0
8007,67.0,30,29,8.0,96.0
8008,55.0,0,179,10.0,96.0
8009,68.0,0,29,8.0,96.0
8010,60.0,0,29,10.0,96.0
8011,86.0,30,29,7.0,96.0
8012,58.0,0,29,10.0,96.0
8013,63.0,0,239,11.0,112.0
8014,70.0,30,29,8.0,96.0
8015,51.0,0,239,12.0,127.0
8016,56.0,0,29,10.0,96.0
8017,72.0,0,29,8.0,96.0
8018,87.0,0,29,7.0,96.0
8019,65.0,0,29,8.0,103.0
8020,56.0,30,29,10.0,96.0
8021,89.0,0,29,7.0,111.0
8022,55.0,0,29,10.0,96.0
8023,67.0,30,29,8.0,110.0
8024,53.0,30,29,10.0,96.0
8025,68.0,0,29,8.0,118.0
8026,51.0,0,59,10.0,127.0
8027,91.0,0,59,7.0,127.0
8028,70.0,30,59,8.0,127.0
8029,44.0,30,179,12.0,127.0
8030,56.0,0,179,11.0,127.0
8031,70.0,0,29,8.0,127.0
8032,55.0,0,29,10.0,127.0
8033,55.0,60,29,11.0,112.0
8034,43.0,0,29,12.0,127.0
8035,72.0,0,29,8.0,127.0
8036,56.0,30,29,10.0,127.0
8037,53.0,0,29,11.0,112.0
8038,51.0,0,119,6.0,127.0
8039,41.0,0,29,12.0,127.0
8040,74.0,30,29,8.0,127.0
8041,75.0,0,29,7.0,127.0
8042,58.0,0,29,10.0,127.0
8043,75.0,0,29,8.0,127.0
8044,60.0,30,29,10.0,127.0
8045,77.0,30,29,8.0,127.0
8046,62.0,0,29,10.0,127.0
8047,63.0,0,359,2.0,127.0
8048,63.0,0,359,4.0,127.0
8049,75.0,0,359,2.0,127.0
8050,63.0,0,29,10.0,127.0
8051,75.0,0,359,1.0,127.0
8052,51.0,0,359,4.0,127.0
8053,39.0,0,359,3.0,127.0
8054,51.0,0,359,3.0,127.0
8055,63.0,0,359,5.0,127.0
8056,79.0,30,29,8.0,127.0
8057,75.0,0,359,5.0,127.0
8058,80.0,0,29,8.0,127.0
8059,65.0,30,29,10.0,127.0
8060,67.0,0,29,10.0,127.0
8061,82.0,30,29,8.0,127.0
8062,84.0,30,29,8.0,127.0
8063,68.0,0,29,10.0,127.0
8064,67.0,30,29,10.0,127.0
8065,75.0,0,179,7.0,127.0
8066,39.0,0,239,12.0,127.0
8067,82.0,0,29,8.0,127.0
8068,46.0,0,119,6.0,127.0
8069,51.0,0,239,11.0,127.0
8070,80.0,0,29,8.0,127.0
8071,65.0,0,29,10.0,127.0
8072,79.0,30,29,8.0,127.0
8073,63.0,0,29,10.0,127.0
8074,62.0,30,29,10.0,127.0
8075,77.0,0,29,8.0,127.0
8076,58.0,0,239,5.0,127.0
8077,70.0,0,239,5.0,127.0
8078,46.0,0,239,3.0,127.0
8079,58.0,0,239,3.0,127.0
8080,58.0,0,239,4.0,127.0
8081,70.0,0,239,4.0,127.0
8082,82.0,0,239,1.0,127.0
8083,70.0,0,239,2.0,127.0
8084,82.0,0,239,2.0,127.0
8085,75.0,30,29,8.0,127.0
8086,70.0,0,239,0.0,127.0
8087,60.0,0,29,10.0,127.0
8088,77.0,0,29,8.0,127.0
8089,62.0,30,29,10.0,127.0
8090,60.0,0,29,10.0,127.0
8091,75.0,30,29,8.0,127.0
8092,58.0,30,29,10.0,127.0
8093,74.0,0,29,8.0,127.0
8094,72.0,30,29,8.0,127.0
8095,56.0,0,29,10.0,127.0
8096,70.0,30,239,7.0,127.0
8097,38.0,0,239,12.0,127.0
8098,46.0,0,119,6.0,127.0
8099,50.0,0,239,11.0,127.0
8100,70.0,0,29,8.0,127.0
8101,55.0,0,29,10.0,127.0
8102,53.0,30,29,10.0,127.0
8103,68.0,0,29,8.0,127.0
8104,51.0,0,29,10.0,127.0
8105,67.0,30,29,8.0,127.0
8106,70.0,0,239,1.0,127.0
8107,58.0,0,239,5.0,127.0
8108,70.0,0,239,5.0,127.0
8109,50.0,30,29,10.0,127.0
8110,70.0,0,239,2.0,127.0
8111,58.0,0,239,2.0,127.0
8112,58.0,0,239,4.0,127.0
8113,46.0,0,239,4.0,127.0
8114,65.0,0,29,8.0,127.0
8115,34.0,0,239,3.0,127.0
8116,46.0,0,239,3.0,127.0
8117,70.0,0,239,0.0,127.0
8118,51.0,0,59,10.0,127.0
8119,67.0,0,59,8.0,127.0
8120,63.0,60,29,10.0,127.0
8121,32.0,0,239,12.0,127.0
8122,51.0,0,119,6.0,127.0
8123,63.0,30,29,10.0,127.0
8124,44.0,30,239,11.0,127.0
8125,82.0,0,239,7.0,127.0
8126,58.0,0,29,10.0,127.0
8127,75.0,0,179,2.0,127.0
8128,63.0,0,179,4.0,127.0
8129,58.0,30,29,10.0,127.0
8130,51.0,0,179,4.0,127.0
8131,63.0,30,179,2.0,127.0
8132,75.0,0,179,0.0,127.0
8133,51.0,0,179,3.0,127.0
8134,39.0,0,179,3.0,127.0
8135,63.0,0,179,5.0,127.0
8136,75.0,0,179,5.0,127.0
8137,75.0,0,179,1.0,127.0
8138,70.0,0,29,10.0,127.0
8139,79.0,30,29,1.0,127.0
8140,67.0,0,29,2.0,127.0
8141,70.0,0,29,0.0,127.0
8142,60.0,0,29,3.0,127.0
8143,48.0,0,29,3.0,127.0
8144,79.0,0,29,0.0,127.0
8145,70.0,0,29,2.0,127.0
8146,63.0,0,59,4.0,127.0
8147,67.0,0,59,4.0,127.0
8148,70.0,0,59,5.0,127.0
8149,58.0,0,59,5.0,127.0
8150,70.0,30,29,10.0,127.0
8151,50.0,0,29,3.0,127.0
8152,77.0,0,29,1.0,127.0
8153,77.0,0,29,0.0,127.0
8154,68.0,0,29,0.0,127.0
8155,62.0,0,29,3.0,127.0
8156,68.0,0,29,2.0,127.0
8157,65.0,30,29,2.0,127.0
8158,58.0,0,59,5.0,127.0
8159,70.0,0,59,5.0,127.0
8160,58.0,0,59,4.0,127.0
8161,65.0,0,59,4.0,127.0
8162,58.0,0,59,10.0,127.0
8163,67.0,0,29,0.0,127.0
8164,70.0,0,29,8.0,127.0
8165,75.0,60,29,0.0,127.0
8166,75.0,0,29,1.0,127.0
8167,67.0,0,29,2.0,127.0
8168,63.0,0,29,3.0,127.0
8169,51.0,0,29,3.0,127.0
8170,63.0,0,29,2.0,127.0
8171,31.0,0,239,12.0,127.0
8172,70.0,30,29,8.0,127.0
8173,70.0,0,59,5.0,127.0
8174,58.0,0,59,5.0,127.0
8175,65.0,0,59,4.0,127.0
8176,46.0,0,119,6.0,127.0
8177,58.0,0,59,4.0,127.0
8178,82.0,30,239,7.0,127.0
8179,43.0,0,239,11.0,127.0
8180,74.0,0,29,1.0,127.0
8181,53.0,30,29,3.0,127.0
8182,65.0,0,29,3.0,127.0
8183,62.0,0,29,2.0,127.0
8184,65.0,0,29,2.0,127.0
8185,65.0,0,29,0.0,127.0
8186,65.0,0,29,8.0,127.0
8187,74.0,0,29,0.0,127.0
8188,65.0,0,59,4.0,127.0
8189,58.0,0,59,4.0,127.0
8190,58.0,0,59,5.0,127.0
8191,65.0,30,29,8.0,127.0
8192,70.0,0,59,5.0,127.0
8193,77.0,0,29,8.0,127.0
8194,65.0,0,29,2.0,127.0
8195,77.0,0,29,1.0,127.0
8196,77.0,0,29,0.0,127.0
8197,68.0,0,29,2.0,127.0
8198,50.0,0,29,3.0,127.0
8199,62.0,0,29,3.0,127.0
8200,70.0,30,29,0.0,127.0
8201,70.0,0,59,5.0,127.0
8202,58.0,0,59,5.0,127.0
8203,65.0,0,59,4.0,127.0
8204,58.0,0,59,4.0,127.0
8205,77.0,30,29,8.0,127.0
8206,63.0,60,29,10.0,127.0
8207,63.0,30,29,10.0,127.0
8208,82.0,0,239,7.0,127.0
8209,46.0,0,119,6.0,127.0
8210,32.0,0,239,12.0,127.0
8211,44.0,0,239,11.0,127.0
8212,58.0,0,29,10.0,127.0
8213,75.0,0,179,0.0,127.0
8214,70.0,0,179,0.0,127.0
8215,58.0,0,179,5.0,127.0
8216,63.0,0,179,2.0,127.0
8217,63.0,0,179,3.0,127.0
8218,51.0,0,179,3.0,127.0
8219,67.0,0,179,2.0,127.0
8220,70.0,0,179,5.0,127.0
8221,58.0,30,29,10.0,127.0
8222,63.0,30,179,4.0,127.0
8223,55.0,0,179,4.0,127.0
8224,75.0,0,179,1.0,127.0
8225,79.0,0,29,1.0,127.0
8226,82.0,30,29,1.0,127.0
8227,79.0,0,29,0.0,127.0
8228,70.0,0,29,2.0,127.0
8229,67.0,0,29,2.0,127.0
8230,70.0,0,29,10.0,127.0
8231,63.0,0,29,3.0,127.0
8232,55.0,0,29,3.0,127.0
8233,70.0,0,29,0.0,127.0
8234,55.0,0,59,4.0,127.0
8235,67.0,0,59,4.0,127.0
8236,67.0,0,59,5.0,127.0
8237,79.0,0,59,5.0,127.0
8238,70.0,30,29,10.0,127.0
8239,68.0,0,29,0.0,127.0
8240,55.0,0,29,3.0,127.0
8241,59.0,0,29,3.0,127.0
8242,77.0,0,29,1.0,127.0
8243,80.0,0,29,1.0,127.0
8244,77.0,0,29,0.0,127.0
8245,65.0,0,29,2.0,127.0
8246,68.0,0,29,2.0,127.0
8247,67.0,0,59,4.0,127.0
8248,67.0,0,59,5.0,127.0
8249,55.0,30,59,4.0,127.0
8250,71.0,0,59,10.0,127.0
8251,79.0,0,59,5.0,127.0
8252,79.0,0,299,8.0,127.0
8253,75.0,0,29,0.0,127.0
8254,63.0,0,29,2.0,127.0
8255,67.0,0,29,2.0,127.0
8256,75.0,0,29,1.0,127.0
8257,57.0,0,29,3.0,127.0
8258,79.0,0,29,1.0,127.0
8259,77.0,60,29,8.0,127.0
8260,60.0,0,29,3.0,127.0
8261,67.0,0,29,0.0,127.0
8262,31.0,0,239,12.0,127.0
8263,79.0,0,59,5.0,127.0
8264,43.0,30,239,11.0,127.0
8265,77.0,30,29,8.0,127.0
8266,87.0,0,239,7.0,127.0
8267,55.0,0,59,4.0,127.0
8268,67.0,0,59,4.0,127.0
8269,67.0,0,59,5.0,127.0
8270,62.0,30,29,3.0,127.0
8271,59.0,0,29,3.0,127.0
8272,65.0,0,29,0.0,127.0
8273,74.0,0,29,0.0,127.0
8274,74.0,0,29,1.0,127.0
8275,77.0,0,29,1.0,127.0
8276,65.0,0,29,8.0,127.0
8277,62.0,0,29,2.0,127.0
8278,65.0,0,29,2.0,127.0
8279,65.0,30,29,8.0,127.0
8280,67.0,0,59,4.0,127.0
8281,55.0,0,59,4.0,127.0
8282,67.0,0,59,5.0,127.0
8283,79.0,0,59,5.0,127.0
8284,68.0,0,29,2.0,127.0
8285,80.0,0,29,0.0,127.0
8286,77.0,0,29,0.0,127.0
8287,59.0,0,29,3.0,127.0
8288,77.0,0,29,1.0,127.0
8289,77.0,30,29,8.0,127.0
8290,55.0,0,29,3.0,127.0
8291,65.0,0,29,2.0,127.0
8292,80.0,0,29,1.0,127.0
8293,77.0,30,29,8.0,127.0
8294,67.0,0,59,4.0,127.0
8295,67.0,0,59,5.0,127.0
8296,79.0,0,59,5.0,127.0
8297,55.0,0,59,4.0,127.0
8298,75.0,0,29,1.0,127.0
8299,60.0,0,29,3.0,127.0
8300,79.0,30,29,1.0,127.0
8301,63.0,0,29,3.0,127.0
8302,67.0,0,29,2.0,127.0
8303,63.0,0,29,2.0,127.0
8304,79.0,0,29,0.0,127.0
8305,75.0,0,29,0.0,127.0
8306,75.0,0,59,8.0,127.0
8307,55.0,0,59,4.0,127.0
8308,67.0,0,59,4.0,127.0
8309,67.0,0,29,10.0,127.0
8310,65.0,60,29,2.0,127.0
8311,62.0,0,29,2.0,127.0
8312,62.0,0,29,3.0,127.0
8313,77.0,0,29,0.0,127.0
8314,74.0,0,29,0.0,127.0
8315,65.0,0,29,3.0,127.0
8316,77.0,0,29,1.0,127.0
8317,74.0,0,29,1.0,127.0
8318,47.0,0,239,11.0,127.0
8319,86.0,0,239,7.0,127.0
8320,67.0,30,29,10.0,127.0
8321,35.0,0,239,12.0,127.0
8322,51.0,0,59,4.0,127.0
8323,63.0,0,59,4.0,127.0
8324,72.0,0,29,1.0,127.0
8325,60.0,0,29,2.0,127.0
8326,72.0,0,29,0.0,127.0
8327,75.0,0,29,0.0,127.0
8328,63.0,0,29,3.0,127.0
8329,67.0,0,29,3.0,127.0
8330,75.0,0,29,1.0,127.0
8331,63.0,0,29,2.0,127.0
8332,55.0,30,29,10.0,127.0
8333,63.0,0,59,4.0,127.0
8334,67.0,0,179,5.0,127.0
8335,79.0,0,179,5.0,127.0
8336,51.0,0,59,4.0,127.0
8337,55.0,30,29,10.0,127.0
8338,79.0,0,29,0.0,127.0
8339,63.0,0,29,2.0,127.0
8340,79.0,0,29,1.0,127.0
8341,67.0,0,29,2.0,127.0
8342,67.0,0,29,10.0,127.0
8343,51.0,0,29,3.0,127.0
8344,75.0,0,29,0.0,127.0
8345,75.0,0,29,1.0,127.0
8346,48.0,0,29,3.0,127.0
8347,67.0,30,29,10.0,127.0
8348,63.0,0,59,4.0,127.0
8349,51.0,0,119,6.0,127.0
8350,48.0,0,119,11.0,127.0
8351,51.0,0,59,4.0,127.0
8352,36.0,0,119,12.0,127.0
8353,75.0,0,59,5.0,127.0
8354,63.0,30,59,5.0,127.0
8355,73.0,0,59,1.0,127.0
8356,77.0,0,59,1.0,127.0
8357,56.0,0,59,3.0,127.0
8358,53.0,0,59,3.0,127.0
8359,77.0,0,59,0.0,127.0
8360,73.0,0,59,0.0,127.0
8361,68.0,0,59,10.0,127.0
8362,65.0,30,59,2.0,127.0
8363,75.0,0,59,5.0,127.0
8364,63.0,0,59,5.0,127.0
8365,61.0,0,59,2.0,127.0
8366,63.0,0,59,4.0,127.0
8367,51.0,0,59,4.0,127.0
8368,68.0,0,29,8.0,127.0
8369,75.0,0,59,0.0,127.0
8370,72.0,0,59,0.0,127.0
8371,63.0,0,59,2.0,127.0
8372,53.0,0,119,11.0,127.0
8373,60.0,0,59,2.0,127.0
8374,84.0,0,239,7.0,127.0
8375,41.0,0,119,12.0,127.0
8376,68.0,30,29,8.0,127.0
8377,51.0,0,119,6.0,127.0
8378,63.0,0,59,5.0,127.0
8379,75.0,0,59,1.0,127.0
8380,72.0,0,59,1.0,127.0
8381,56.0,0,59,3.0,127.0
8382,53.0,0,59,3.0,127.0
8383,51.0,60,59,4.0,127.0
8384,63.0,0,59,4.0,127.0
8385,75.0,0,59,5.0,127.0
8386,58.0,0,29,8.0,127.0
8387,70.0,0,59,1.0,127.0
8388,70.0,0,59,0.0,127.0
8389,58.0,0,59,2.0,127.0
8390,73.0,0,59,0.0,127.0
8391,61.0,0,59,2.0,127.0
8392,55.0,0,59,3.0,127.0
8393,58.0,0,59,3.0,127.0
8394,75.0,0,59,5.0,127.0
8395,63.0,0,59,5.0,127.0
8396,63.0,0,59,4.0,127.0
8397,51.0,0,59,4.0,127.0
8398,58.0,30,29,8.0,127.0
8399,73.0,0,59,1.0,127.0
8400,70.0,0,29,8.0,127.0
8401,73.0,0,59,0.0,127.0
8402,77.0,0,59,0.0,127.0
8403,70.0,30,29,8.0,127.0
8404,65.0,30,59,2.0,127.0
8405,77.0,0,59,1.0,127.0
8406,51.0,0,59,4.0,127.0
8407,63.0,0,59,4.0,127.0
8408,43.0,30,119,12.0,127.0
8409,55.0,0,59,3.0,127.0
8410,58.0,0,59,3.0,127.0
8411,73.0,0,59,1.0,127.0
8412,51.0,0,119,6.0,127.0
8413,55.0,0,119,11.0,127.0
8414,61.0,0,59,2.0,127.0
8415,75.0,0,59,5.0,127.0
8416,63.0,0,59,5.0,127.0
8417,75.0,0,59,1.0,127.0
8418,72.0,0,59,1.0,127.0
8419,63.0,0,59,2.0,127.0
8420,51.0,0,59,4.0,127.0
8421,63.0,0,59,5.0,127.0
8422,75.0,0,59,5.0,127.0
8423,72.0,0,59,8.0,127.0
8424,60.0,0,59,2.0,127.0
8425,72.0,0,59,0.0,127.0
8426,75.0,0,59,0.0,127.0
8427,63.0,0,59,4.0,127.0
8428,56.0,0,59,3.0,127.0
8429,60.0,0,59,3.0,127.0
8430,63.0,0,29,10.0,127.0
8431,70.0,0,59,1.0,127.0
8432,73.0,0,59,1.0,127.0
8433,51.0,30,119,6.0,127.0
8434,56.0,0,119,11.0,127.0
8435,61.0,0,59,2.0,127.0
8436,73.0,0,59,0.0,127.0
8437,70.0,0,59,0.0,127.0
8438,58.0,0,59,2.0,127.0
8439,61.0,60,59,3.0,127.0
8440,44.0,0,119,12.0,127.0
8441,82.0,0,239,7.0,127.0
8442,58.0,0,59,3.0,127.0
8443,63.0,30,29,10.0,127.0
8444,51.0,0,29,10.0,127.0
8445,51.0,30,29,10.0,127.0
8446,63.0,0,59,3.0,127.0
8447,60.0,0,59,3.0,127.0
8448,72.0,0,59,0.0,127.0
8449,60.0,0,59,2.0,127.0
8450,68.0,0,59,0.0,127.0
8451,72.0,0,59,1.0,127.0
8452,68.0,0,59,1.0,127.0
8453,56.0,0,59,2.0,127.0
8454,63.0,0,29,10.0,127.0
8455,72.0,0,59,0.0,127.0
8456,60.0,0,59,3.0,127.0
8457,56.0,30,59,3.0,127.0
8458,63.0,30,29,10.0,127.0
8459,75.0,0,59,0.0,127.0
8460,75.0,0,59,1.0,127.0
8461,72.0,0,59,1.0,127.0
8462,32.0,30,119,12.0,127.0
8463,60.0,0,59,2.0,127.0
8464,63.0,0,59,2.0,127.0
8465,44.0,0,119,11.0,127.0
8466,55.0,0,59,3.0,127.0
8467,58.0,0,59,2.0,127.0
8468,51.0,0,59,3.0,127.0
8469,61.0,0,59,2.0,127.0
8470,55.0,0,59,10.0,127.0
8471,73.0,0,59,1.0,127.0
8472,70.0,0,59,1.0,127.0
8473,70.0,0,59,0.0,127.0
8474,73.0,30,59,0.0,127.0
8475,70.0,0,29,8.0,127.0
8476,68.0,0,59,0.0,127.0
8477,72.0,0,59,0.0,127.0
8478,39.0,0,119,12.0,127.0
8479,72.0,60,59,1.0,127.0
8480,55.0,0,59,3.0,127.0
8481,68.0,0,59,1.0,127.0
8482,51.0,0,59,3.0,127.0
8483,51.0,0,119,11.0,127.0
8484,80.0,0,239,7.0,127.0
8485,56.0,0,59,2.0,127.0
8486,60.0,0,59,2.0,127.0
8487,70.0,30,29,8.0,127.0
8488,58.0,0,29,8.0,127.0
8489,58.0,30,29,8.0,127.0
8490,70.0,0,59,0.0,127.0
8491,67.0,0,59,0.0,127.0
8492,67.0,0,59,1.0,127.0
8493,55.0,0,59,3.0,127.0
8494,52.0,0,59,3.0,127.0
8495,58.0,0,59,2.0,127.0
8496,55.0,0,59,2.0,127.0
8497,70.0,0,59,1.0,127.0
8498,70.0,0,29,8.0,127.0
8499,67.0,0,29,10.0,127.0
8500,61.0,0,59,2.0,127.0
8501,70.0,0,29,8.0,127.0
8502,79.0,30,119,7.0,127.0
8503,58.0,0,59,2.0,127.0
8504,70.0,0,59,0.0,127.0
8505,55.0,0,59,3.0,127.0
8506,52.0,0,59,3.0,127.0
8507,73.0,0,59,0.0,127.0
8508,40.0,0,119,12.0,127.0
8509,67.0,30,29,10.0,127.0
8510,73.0,0,59,1.0,127.0
8511,70.0,30,59,1.0,127.0
8512,52.0,0,119,11.0,127.0
8513,80.0,0,29,7.0,127.0
8514,68.0,0,29,8.0,127.0
8515,60.0,0,29,10.0,127.0
8516,72.0,0,59,1.0,127.0
8517,56.0,0,59,2.0,127.0
8518,53.0,0,59,11.0,127.0
8519,60.0,30,59,2.0,127.0
8520,60.0,0,29,10.0,127.0
8521,68.0,0,59,1.0,127.0
8522,68.0,30,29,8.0,127.0
8523,80.0,0,29,7.0,127.0
8524,56.0,0,59,3.0,127.0
8525,53.0,0,59,3.0,127.0
8526,68.0,0,59,0.0,127.0
8527,72.0,0,59,0.0,127.0
8528,41.0,0,59,12.0,127.0
8529,82.0,0,29,7.0,127.0
8530,62.0,0,29,10.0,127.0
8531,70.0,0,29,8.0,127.0
8532,68.0,0,59,2.0,127.0
8533,70.0,0,59,2.0,127.0
8534,41.0,30,59,12.0,127.0
8535,74.0,0,59,1.0,127.0
8536,46.0,0,59,6.0,127.0
8537,82.0,30,29,7.0,127.0
8538,70.0,0,59,1.0,127.0
8539,74.0,0,59,0.0,127.0
8540,53.0,0,59,3.0,127.0
8541,56.0,0,59,3.0,127.0
8542,53.0,0,59,11.0,127.0
8543,70.0,0,29,8.0,127.0
8544,70.0,0,59,0.0,127.0
8545,62.0,0,29,10.0,127.0
8546,82.0,0,29,7.0,127.0
8547,70.0,0,29,8.0,127.0
8548,63.0,0,29,10.0,127.0
8549,54.0,0,59,3.0,127.0
8550,46.0,0,59,6.0,127.0
8551,82.0,30,29,7.0,127.0
8552,66.0,0,59,2.0,127.0
8553,70.0,0,59,2.0,127.0
8554,70.0,0,59,0.0,127.0
8555,75.0,0,59,0.0,127.0
8556,54.0,0,59,11.0,127.0
8557,42.0,0,59,12.0,127.0
8558,70.0,0,59,1.0,127.0
8559,70.0,0,119,5.0,127.0
8560,58.0,30,59,3.0,127.0
8561,63.0,0,29,10.0,127.0
8562,46.0,0,119,4.0,127.0
8563,58.0,0,119,5.0,127.0
8564,70.0,0,29,8.0,127.0
8565,75.0,0,59,1.0,127.0
8566,58.0,0,119,4.0,127.0
8567,70.0,0,29,8.0,127.0
8568,82.0,0,29,7.0,127.0
8569,65.0,0,29,10.0,127.0
8570,70.0,0,59,5.0,127.0
8571,65.0,0,29,10.0,127.0
8572,50.0,0,59,3.0,127.0
8573,62.0,0,59,3.0,127.0
8574,38.0,0,59,12.0,127.0
8575,77.0,0,59,1.0,127.0
8576,58.0,0,59,4.0,127.0
8577,46.0,0,59,4.0,127.0
8578,58.0,30,59,5.0,127.0
8579,70.0,0,59,2.0,127.0
8580,77.0,0,59,0.0,127.0
8581,70.0,0,59,1.0,127.0
8582,46.0,0,59,6.0,127.0
8583,70.0,0,59,0.0,127.0
8584,50.0,0,59,11.0,127.0
8585,82.0,30,29,7.0,127.0
8586,68.0,0,59,2.0,127.0
8587,70.0,0,29,8.0,127.0
8588,70.0,0,29,8.0,127.0
8589,51.0,0,29,6.0,127.0
8590,66.0,0,29,10.0,127.0
8591,82.0,30,29,7.0,127.0
8592,39.0,0,59,12.0,127.0
8593,51.0,0,59,3.0,127.0
8594,70.0,0,59,2.0,127.0
8595,54.0,0,29,10.0,127.0
8596,66.0,0,59,2.0,127.0
8597,78.0,0,59,0.0,127.0
8598,70.0,0,59,0.0,127.0
8599,70.0,0,59,5.0,127.0
8600,63.0,0,59,3.0,127.0
8601,87.0,0,29,7.0,127.0
8602,78.0,0,59,1.0,127.0
8603,70.0,0,59,1.0,127.0
8604,51.0,0,59,11.0,127.0
8605,51.0,0,29,6.0,127.0
8606,75.0,30,29,8.0,127.0
8607,58.0,0,59,5.0,127.0
8608,46.0,0,59,4.0,127.0
8609,58.0,0,59,4.0,127.0
8610,51.0,0,29,6.0,127.0
8611,55.0,0,29,10.0,127.0
8612,75.0,0,29,8.0,127.0
8613,87.0,0,29,7.0,127.0
8614,49.0,0,59,11.0,127.0
8615,75.0,0,59,5.0,127.0
8616,75.0,0,59,2.0,127.0
8617,63.0,0,59,4.0,127.0
8618,67.0,0,59,2.0,127.0
8619,75.0,0,29,8.0,127.0
8620,87.0,0,29,7.0,127.0
8621,51.0,0,59,4.0,127.0
8622,51.0,0,29,6.0,127.0
8623,79.0,0,59,1.0,127.0
8624,61.0,0,59,3.0,127.0
8625,75.0,30,59,1.0,127.0
8626,63.0,0,59,5.0,127.0
8627,37.0,0,59,12.0,127.0
8628,49.0,0,59,3.0,127.0
8629,79.0,0,59,0.0,127.0
8630,70.0,0,59,0.0,127.0
8631,55.0,30,29,10.0,127.0
8632,87.0,0,29,7.0,127.0
8633,51.0,0,29,6.0,127.0
8634,75.0,0,29,8.0,127.0
8635,56.0,0,29,10.0,127.0
8636,75.0,0,59,2.0,127.0
8637,68.0,30,59,2.0,127.0
8638,87.0,0,29,7.0,127.0
8639,80.0,0,59,0.0,127.0
8640,48.0,0,59,11.0,127.0
8641,75.0,0,59,0.0,127.0
8642,80.0,0,59,1.0,127.0
8643,60.0,0,59,3.0,127.0
8644,75.0,0,59,5.0,127.0
8645,75.0,0,59,1.0,127.0
8646,56.0,30,29,10.0,127.0
8647,51.0,0,29,6.0,127.0
8648,75.0,0,29,8.0,127.0
8649,48.0,0,59,3.0,127.0
8650,51.0,0,59,4.0,127.0
8651,63.0,0,59,5.0,127.0
8652,63.0,0,59,4.0,127.0
8653,36.0,0,59,12.0,127.0
8654,87.0,0,29,7.0,127.0
8655,51.0,0,29,6.0,127.0
8656,75.0,0,29,8.0,127.0
8657,57.0,0,29,10.0,127.0
8658,47.0,0,59,11.0,127.0
8659,47.0,30,59,3.0,127.0
8660,59.0,0,59,3.0,127.0
8661,75.0,0,59,5.0,127.0
8662,63.0,0,59,5.0,127.0
8663,75.0,0,59,2.0,127.0
8664,69.0,0,59,2.0,127.0
8665,51.0,0,59,4.0,127.0
8666,75.0,0,59,0.0,127.0
8667,75.0,0,29,8.0,127.0
8668,87.0,0,29,7.0,127.0
8669,75.0,0,59,1.0,127.0
8670,81.0,0,59,1.0,127.0
8671,57.0,0,29,10.0,127.0
8672,35.0,0,59,12.0,127.0
8673,63.0,0,59,4.0,127.0
8674,51.0,30,29,6.0,127.0
8675,46.0,0,32,11.0,127.0
8676,34.0,0,32,12.0,127.0
8677,74.0,0,59,8.0,127.0
8678,86.0,0,59,7.0,127.0
8679,58.0,0,59,10.0,127.0
8680,33.0,0,32,12.0,127.0
8681,45.0,30,32,11.0,127.0
8682,46.0,0,32,11.0,127.0
8683,34.0,30,32,12.0,127.0
8684,74.0,0,119,2.0,127.0
8685,46.0,0,119,6.0,127.0
8686,74.0,0,119,0.0,127.0
8687,82.0,0,119,1.0,127.0
8688,74.0,30,119,1.0,127.0
8689,58.0,0,119,3.0,127.0
8690,46.0,0,119,3.0,127.0
8691,70.0,0,119,2.0,127.0
8692,45.0,30,32,11.0,127.0
8693,33.0,0,32,12.0,127.0
8694,34.0,30,32,12.0,127.0
8695,46.0,0,32,11.0,127.0
8696,58.0,0,59,10.0,127.0
8697,74.0,0,59,8.0,127.0
8698,45.0,0,32,11.0,127.0
8699,33.0,30,32,12.0,127.0
8700,34.0,30,32,12.0,127.0
8701,46.0,0,32,11.0,127.0
8702,58.0,0,239,5.0,127.0
8703,33.0,30,29,12.0,127.0
8704,46.0,0,239,4.0,127.0
8705,45.0,0,29,11.0,127.0
8706,70.0,0,239,5.0,127.0
8707,58.0,0,239,4.0,127.0
8708,46.0,0,32,11.0,127.0
8709,34.0,0,32,12.0,127.0
8710,67.0,0,59,8.0,127.0
8711,51.0,0,59,10.0,127.0
8712,45.0,0,32,11.0,127.0
8713,33.0,30,32,12.0,127.0
8714,46.0,0,32,11.0,127.0
8715,34.0,30,32,12.0,127.0
8716,46.0,0,119,6.0,127.0
8717,63.0,0,119,4.0,127.0
8718,75.0,0,119,5.0,127.0
8719,63.0,0,119,5.0,127.0
8720,51.0,30,119,4.0,127.0
8721,45.0,30,32,11.0,127.0
8722,33.0,0,32,12.0,127.0
8723,34.0,30,32,12.0,127.0
8724,46.0,0,32,11.0,127.0
8725,79.0,0,59,7.0,127.0
8726,63.0,0,59,10.0,127.0
8727,79.0,0,59,8.0,127.0
8728,33.0,0,32,12.0,127.0
8729,45.0,30,32,11.0,127.0
8730,46.0,0,32,11.0,127.0
8731,34.0,30,32,12.0,127.0
8732,45.0,0,29,11.0,127.0
8733,67.0,0,239,2.0,127.0
8734,63.0,0,119,5.0,127.0
8735,63.0,0,119,4.0,127.0
8736,51.0,0,119,4.0,127.0
8737,63.0,0,239,2.0,127.0
8738,33.0,30,29,12.0,127.0
8739,46.0,0,32,11.0,127.0
8740,34.0,30,32,12.0,127.0
8741,72.0,0,59,7.0,127.0
8742,68.0,0,59,2.0,127.0
8743,72.0,0,59,2.0,127.0
8744,33.0,0,32,12.0,127.0
8745,45.0,30,32,11.0,127.0
8746,46.0,0,32,11.0,127.0
8747,34.0,30,32,12.0,127.0
8748,46.0,0,119,6.0,127.0
8749,45.0,0,32,11.0,127.0
8750,33.0,30,32,12.0,127.0
8751,46.0,0,32,11.0,127.0
8752,34.0,30,32,12.0,127.0
8753,84.0,0,59,7.0,127.0
8754,72.0,0,59,8.0,127.0
8755,56.0,0,59,2.0,127.0
8756,60.0,0,59,2.0,127.0
8757,56.0,0,59,10.0,127.0
8758,45.0,0,32,11.0,127.0
8759,33.0,30,32,12.0,127.0
8760,46.0,0,32,11.0,127.0
8761,34.0,30,32,12.0,127.0
8762,56.0,0,239,3.0,127.0
8763,33.0,30,29,12.0,127.0
8764,60.0,0,239,3.0,127.0
8765,45.0,0,29,11.0,127.0
8766,46.0,0,32,11.0,127.0
8767,34.0,30,32,12.0,127.0
8768,65.0,0,59,8.0,127.0
8769,65.0,0,59,3.0,127.0
8770,50.0,0,59,10.0,127.0
8771,62.0,0,59,3.0,127.0
8772,45.0,0,32,11.0,127.0
8773,33.0,30,32,12.0,127.0
8774,46.0,0,32,11.0,127.0
8775,34.0,30,32,12.0,127.0
8776,46.0,0,119,6.0,127.0
8777,33.0,0,32,12.0,127.0
8778,45.0,30,32,11.0,127.0
8779,46.0,0,32,11.0,127.0
8780,34.0,0,32,12.0,127.0
8781,62.0,0,59,10.0,127.0
8782,77.0,30,59,7.0,127.0
8783,77.0,0,59,8.0,127.0
8784,53.0,0,59,3.0,127.0
8785,50.0,0,59,3.0,127.0
8786,33.0,0,32,12.0,127.0
8787,45.0,30,32,11.0,127.0
8788,34.0,30,32,12.0,127.0
8789,46.0,0,32,11.0,127.0
8790,33.0,0,29,12.0,127.0
8791,77.0,0,239,1.0,127.0
8792,45.0,30,29,11.0,127.0
8793,74.0,0,239,1.0,127.0
8794,82.0,0,29,1.0,127.0
8795,70.0,0,29,7.0,127.0
8796,79.0,30,29,1.0,127.0
8797,34.0,0,32,12.0,127.0
8798,46.0,0,32,11.0,127.0
8799,45.0,0,32,11.0,127.0
8800,33.0,30,32,12.0,127.0
8801,58.0,0,29,3.0,127.0
8802,55.0,0,29,3.0,127.0
8803,70.0,0,29,2.0,127.0
8804,70.0,0,29,1.0,127.0
8805,67.0,0,29,1.0,127.0
8806,67.0,0,29,2.0,127.0
8807,55.0,0,29,10.0,127.0
8808,82.0,0,29,7.0,127.0
8809,70.0,0,29,8.0,127.0
8810,46.0,30,32,11.0,127.0
8811,34.0,0,32,12.0,127.0
8812,45.0,30,32,11.0,127.0
8813,33.0,0,32,12.0,127.0
8814,60.0,0,29,3.0,127.0
8815,63.0,0,29,3.0,127.0
8816,72.0,0,29,2.0,127.0
8817,75.0,0,29,2.0,127.0
8818,48.0,0,29,10.0,127.0
8819,63.0,0,29,8.0,127.0
8820,34.0,0,32,12.0,127.0
8821,46.0,0,32,11.0,127.0
8822,70.0,30,59,0.0,127.0
8823,33.0,30,32,12.0,127.0
8824,45.0,0,32,11.0,127.0
8825,51.0,0,29,3.0,127.0
8826,48.0,0,29,3.0,127.0
8827,75.0,0,29,7.0,127.0
8828,75.0,0,29,8.0,127.0
8829,72.0,0,29,1.0,127.0
8830,75.0,0,29,1.0,127.0
8831,60.0,0,29,10.0,127.0
8832,63.0,0,29,2.0,127.0
8833,60.0,0,29,2.0,127.0
8834,75.0,0,29,0.0,127.0
8835,46.0,30,32,11.0,127.0
8836,34.0,0,32,12.0,127.0
8837,45.0,0,29,11.0,127.0
8838,63.0,0,29,0.0,127.0
8839,33.0,30,29,12.0,127.0
8840,77.0,0,29,1.0,127.0
8841,80.0,0,29,1.0,127.0
8842,68.0,0,29,7.0,127.0
8843,46.0,0,32,11.0,127.0
8844,34.0,30,32,12.0,127.0
8845,45.0,30,32,11.0,127.0
8846,33.0,0,32,12.0,127.0
8847,80.0,0,29,7.0,127.0
8848,53.0,0,29,3.0,127.0
8849,65.0,0,29,2.0,127.0
8850,68.0,0,29,2.0,127.0
8851,68.0,0,29,8.0,127.0
8852,56.0,0,29,3.0,127.0
8853,65.0,0,29,1.0,127.0
8854,65.0,0,29,10.0,127.0
8855,68.0,0,29,1.0,127.0
8856,34.0,30,32,12.0,127.0
8857,46.0,0,32,11.0,127.0
8858,45.0,30,32,11.0,127.0
8859,33.0,0,32,12.0,127.0
8860,62.0,0,29,8.0,127.0
8861,70.0,0,29,2.0,127.0
8862,62.0,0,29,3.0,127.0
8863,58.0,0,29,3.0,127.0
8864,74.0,0,29,2.0,127.0
8865,58.0,0,29,10.0,127.0
8866,34.0,30,32,12.0,127.0
8867,46.0,0,32,11.0,127.0
8868,68.0,0,59,0.0,127.0
8869,45.0,0,32,11.0,127.0
8870,33.0,30,32,12.0,127.0
8871,62.0,0,29,2.0,127.0
8872,74.0,0,29,0.0,127.0
8873,70.0,0,29,10.0,127.0
8874,74.0,0,29,1.0,127.0
8875,74.0,30,29,7.0,127.0
8876,46.0,0,29,3.0,127.0
8877,50.0,0,29,3.0,127.0
8878,74.0,0,29,8.0,127.0
8879,58.0,0,29,2.0,127.0
8880,46.0,0,32,11.0,127.0
8881,34.0,0,32,12.0,127.0
8882,62.0,0,29,0.0,127.0
8883,45.0,0,29,11.0,127.0
8884,33.0,30,29,12.0,127.0
8885,63.0,0,29,10.0,127.0
8886,67.0,30,29,8.0,127.0
8887,67.0,0,29,7.0,127.0
8888,79.0,0,29,1.0,127.0
8889,34.0,0,32,12.0,127.0
8890,46.0,0,59,11.0,127.0
8891,33.0,30,32,12.0,127.0
8892,67.0,0,29,1.0,127.0
8893,79.0,0,29,7.0,127.0
8894,51.0,0,29,10.0,127.0
8895,55.0,0,29,8.0,127.0
8896,34.0,0,32,12.0,127.0
8897,46.0,0,119,6.0,127.0
8898,70.0,0,119,5.0,127.0
8899,58.0,0,119,5.0,127.0
8900,58.0,0,119,4.0,127.0
8901,46.0,0,119,4.0,127.0
8902,33.0,30,32,12.0,127.0
8903,58.0,0,62,11.0,127.0
8904,58.0,30,62,3.0,127.0
8905,72.0,0,29,7.0,127.0
8906,57.0,0,29,10.0,127.0
8907,60.0,0,29,8.0,127.0
8908,34.0,0,32,12.0,127.0
8909,33.0,30,32,12.0,127.0
8910,57.0,0,62,3.0,127.0
8911,57.0,0,62,11.0,127.0
8912,67.0,0,122,2.0,127.0
8913,65.0,0,29,8.0,127.0
8914,62.0,0,29,10.0,127.0
8915,65.0,0,29,7.0,127.0
8916,34.0,30,32,12.0,127.0
8917,58.0,0,119,5.0,127.0
8918,58.0,0,119,4.0,127.0
8919,33.0,30,29,12.0,127.0
8920,46.0,30,119,4.0,127.0
8921,70.0,0,119,5.0,127.0
8922,46.0,0,119,6.0,127.0
8923,72.0,0,122,2.0,127.0
8924,56.0,0,62,11.0,127.0
8925,56.0,0,62,3.0,127.0
8926,75.0,0,29,7.0,127.0
8927,58.0,0,29,8.0,127.0
8928,55.0,0,29,10.0,127.0
8929,34.0,0,32,12.0,127.0
8930,70.0,0,62,2.0,127.0
8931,65.0,0,122,2.0,127.0
8932,33.0,30,32,12.0,127.0
8933,55.0,0,62,3.0,127.0
8934,82.0,0,62,1.0,127.0
8935,77.0,0,122,1.0,127.0
8936,55.0,0,62,11.0,127.0
8937,69.0,0,29,7.0,127.0
8938,63.0,30,29,8.0,127.0
8939,60.0,0,29,10.0,127.0
8940,34.0,0,32,12.0,127.0
8941,46.0,0,119,4.0,127.0
8942,70.0,0,119,5.0,127.0
8943,58.0,0,119,5.0,127.0
8944,46.0,30,119,6.0,127.0
8945,54.0,0,59,11.0,127.0
8946,58.0,0,119,4.0,127.0
8947,69.0,0,59,0.0,127.0
8948,81.0,0,62,1.0,127.0
8949,69.0,0,62,2.0,127.0
8950,33.0,30,32,12.0,127.0
8951,54.0,0,62,3.0,127.0
8952,65.0,0,29,10.0,127.0
8953,62.0,0,29,7.0,127.0
8954,68.0,0,29,8.0,127.0
8955,34.0,0,32,12.0,127.0
8956,74.0,0,59,0.0,127.0
8957,60.0,0,119,3.0,127.0
8958,33.0,30,32,12.0,127.0
8959,75.0,0,122,1.0,127.0
8960,63.0,0,122,2.0,127.0
8961,68.0,0,62,2.0,127.0
8962,74.0,0,29,7.0,127.0
8963,53.0,0,29,10.0,127.0
8964,56.0,0,29,8.0,127.0
8965,34.0,0,32,12.0,127.0
8966,46.0,0,119,6.0,127.0
8967,33.0,30,29,12.0,127.0
8968,58.0,30,119,5.0,127.0
8969,46.0,0,119,4.0,127.0
8970,70.0,0,119,5.0,127.0
8971,58.0,0,119,4.0,127.0
8972,74.0,0,62,2.0,127.0
8973,53.0,0,122,3.0,127.0
8974,80.0,0,122,1.0,127.0
8975,53.0,0,122,11.0,127.0
8976,63.0,0,29,10.0,127.0
8977,67.0,0,29,8.0,127.0
8978,60.0,0,29,7.0,127.0
8979,34.0,0,32,12.0,127.0
8980,51.0,0,59,11.0,127.0
8981,67.0,0,59,2.0,127.0
8982,74.0,30,119,0.0,127.0
8983,51.0,0,59,3.0,127.0
8984,58.0,0,119,3.0,127.0
8985,33.0,30,32,12.0,127.0
8986,62.0,0,122,2.0,127.0
8987,74.0,0,122,1.0,127.0
8988,60.0,0,29,8.0,127.0
8989,56.0,30,29,10.0,127.0
8990,72.0,0,29,7.0,127.0
8991,34.0,0,32,12.0,127.0
8992,79.0,0,119,0.0,127.0
8993,60.0,0,59,2.0,127.0
8994,46.0,0,119,6.0,127.0
8995,46.0,30,119,4.0,127.0
8996,58.0,0,119,4.0,127.0
8997,58.0,0,119,5.0,127.0
8998,70.0,0,119,5.0,127.0
8999,79.0,0,122,1.0,127.0
9000,51.0,0,62,11.0,127.0
9001,51.0,0,62,3.0,127.0
9002,33.0,30,32,12.0,127.0
9003,62.0,30,29,10.0,127.0
9004,65.0,0,29,7.0,127.0
9005,65.0,0,29,8.0,127.0
9006,34.0,0,32,12.0,127.0
9007,56.0,0,119,3.0,127.0
9008,72.0,0,119,2.0,127.0
9009,72.0,0,119,0.0,127.0
9010,72.0,0,122,1.0,127.0
9011,50.0,0,62,3.0,127.0
9012,50.0,0,62,11.0,127.0
9013,33.0,30,32,12.0,127.0
9014,70.0,0,29,8.0,127.0
9015,58.0,0,29,7.0,127.0
9016,67.0,0,29,10.0,127.0
9017,34.0,0,32,12.0,127.0
9018,46.0,0,119,4.0,127.0
9019,65.0,0,119,2.0,127.0
9020,70.0,0,119,5.0,127.0
9021,46.0,0,119,6.0,127.0
9022,58.0,0,119,5.0,127.0
9023,33.0,30,29,12.0,127.0
9024,58.0,0,119,4.0,127.0
9025,77.0,0,119,0.0,127.0
9026,49.0,30,62,3.0,127.0
9027,77.0,0,122,1.0,127.0
9028,49.0,0,62,11.0,127.0
9029,34.0,0,32,12.0,127.0
9030,60.0,0,59,10.0,127.0
9031,55.0,0,119,3.0,127.0
9032,63.0,0,59,8.0,127.0
9033,68.0,30,59,7.0,127.0
9034,70.0,0,122,0.0,127.0
9035,33.0,30,32,12.0,127.0
9036,70.0,0,122,1.0,127.0
9037,70.0,0,122,2.0,127.0
9038,48.0,0,62,3.0,127.0
9039,48.0,0,62,11.0,127.0
9040,34.0,0,32,12.0,127.0
9041,47.0,0,59,11.0,127.0
9042,65.0,0,59,10.0,127.0
9043,58.0,0,119,4.0,127.0
9044,46.0,0,119,4.0,127.0
9045,68.0,30,59,8.0,127.0
9046,68.0,0,59,2.0,127.0
9047,63.0,0,119,2.0,127.0
9048,58.0,0,119,5.0,127.0
9049,75.0,0,119,1.0,127.0
9050,68.0,0,59,1.0,127.0
9051,75.0,0,119,0.0,127.0
9052,68.0,0,59,0.0,127.0
9053,63.0,0,59,7.0,127.0
9054,46.0,0,119,6.0,127.0
9055,53.0,0,59,3.0,127.0
9056,70.0,0,119,5.0,127.0
9057,33.0,30,32,12.0,127.0
9058,47.0,0,62,3.0,127.0
9059,68.0,0,29,2.0,127.0
9060,53.0,0,29,3.0,127.0
9061,46.0,0,29,3.0,127.0
9062,74.0,0,29,1.0,127.0
9063,68.0,0,29,1.0,127.0
9064,62.0,0,29,2.0,127.0
9065,34.0,0,32,12.0,127.0
9066,46.0,30,32,11.0,127.0
9067,74.0,0,59,8.0,127.0
9068,56.0,0,59,7.0,127.0
9069,68.0,0,59,0.0,127.0
9070,74.0,0,59,0.0,127.0
9071,65.0,0,59,10.0,127.0
9072,45.0,0,32,11.0,127.0
9073,33.0,30,32,12.0,127.0
9074,58.0,0,29,3.0,127.0
9075,65.0,0,29,2.0,127.0
9076,68.0,0,29,2.0,127.0
9077,68.0,30,29,1.0,127.0
9078,74.0,0,29,1.0,127.0
9079,46.0,0,29,3.0,127.0
9080,34.0,0,32,12.0,127.0
9081,46.0,0,32,11.0,127.0
9082,68.0,0,59,0.0,127.0
9083,53.0,0,59,10.0,127.0
9084,68.0,0,59,7.0,127.0
9085,46.0,0,119,4.0,127.0
9086,58.0,0,119,5.0,127.0
9087,74.0,0,59,0.0,127.0
9088,45.0,30,29,11.0,127.0
9089,58.0,0,119,4.0,127.0
9090,46.0,0,119,6.0,127.0
9091,56.0,0,59,8.0,127.0
9092,33.0,0,29,12.0,127.0
9093,70.0,0,119,5.0,127.0
9094,46.0,0,29,6.0,127.0
9095,46.0,0,32,11.0,127.0
9096,34.0,0,32,12.0,127.0
9097,58.0,0,59,3.0,127.0
9098,53.0,0,59,10.0,127.0
9099,65.0,0,59,4.0,127.0
9100,58.0,0,59,4.0,127.0
9101,70.0,0,59,5.0,127.0
9102,74.0,0,59,1.0,127.0
9103,46.0,0,29,6.0,127.0
9104,74.0,0,59,0.0,127.0
9105,56.0,0,59,7.0,127.0
9106,68.0,0,59,1.0,127.0
9107,68.0,0,59,0.0,127.0
9108,65.0,0,59,2.0,127.0
9109,68.0,30,59,2.0,127.0
9110,62.0,0,59,8.0,127.0
9111,33.0,0,32,12.0,127.0
9112,45.0,30,32,11.0,127.0
9113,46.0,0,29,6.0,127.0
9114,46.0,0,32,11.0,127.0
9115,34.0,0,32,12.0,127.0
9116,74.0,0,59,1.0,127.0
9117,46.0,0,59,3.0,127.0
9118,77.0,0,59,1.0,127.0
9119,77.0,0,59,0.0,127.0
9120,74.0,30,59,0.0,127.0
9121,46.0,0,29,6.0,127.0
9122,58.0,0,59,4.0,127.0
9123,68.0,0,59,2.0,127.0
9124,74.0,0,59,2.0,127.0
9125,68.0,0,59,7.0,127.0
9126,56.0,0,59,8.0,127.0
9127,46.0,0,59,4.0,127.0
9128,50.0,0,59,10.0,127.0
9129,58.0,0,59,5.0,127.0
9130,33.0,30,32,12.0,127.0
9131,45.0,0,32,11.0,127.0
9132,46.0,30,29,6.0,127.0
9133,34.0,0,32,12.0,127.0
9134,46.0,0,32,11.0,127.0
9135,74.0,0,59,2.0,127.0
9136,74.0,0,59,1.0,127.0
9137,62.0,0,59,8.0,127.0
9138,46.0,30,29,6.0,127.0
9139,65.0,0,59,4.0,127.0
9140,58.0,0,59,4.0,127.0
9141,70.0,0,59,5.0,127.0
9142,77.0,0,59,1.0,127.0
9143,80.0,0,59,0.0,127.0
9144,77.0,0,59,0.0,127.0
9145,58.0,0,59,3.0,127.0
9146,68.0,0,59,2.0,127.0
9147,56.0,0,59,10.0,127.0
9148,65.0,0,59,7.0,127.0
9149,33.0,0,32,12.0,127.0
9150,45.0,0,32,11.0,127.0
9151,46.0,0,29,6.0,127.0
9152,34.0,30,32,12.0,127.0
9153,46.0,0,32,11.0,127.0
9154,46.0,0,59,3.0,127.0
9155,77.0,0,59,2.0,127.0
9156,53.0,0,59,10.0,127.0
9157,58.0,0,59,5.0,127.0
9158,46.0,0,59,4.0,127.0
9159,56.0,0,59,8.0,127.0
9160,46.0,30,29,6.0,127.0
9161,74.0,0,59,2.0,127.0
9162,33.0,0,29,12.0,127.0
9163,80.0,0,59,0.0,127.0
9164,77.0,0,59,0.0,127.0
9165,80.0,0,59,1.0,127.0
9166,45.0,0,29,11.0,127.0
9167,77.0,0,59,1.0,127.0
9168,62.0,0,59,7.0,127.0
9169,58.0,0,59,4.0,127.0
9170,46.0,30,29,6.0,127.0
9171,34.0,0,32,12.0,127.0
9172,46.0,0,32,11.0,127.0
9173,70.0,0,59,5.0,127.0
9174,46.0,0,29,6.0,127.0
9175,65.0,0,59,8.0,127.0
9176,58.0,0,59,4.0,127.0
9177,56.0,0,59,10.0,127.0
9178,74.0,0,59,7.0,127.0
9179,80.0,0,59,0.0,127.0
9180,77.0,0,59,0.0,127.0
9181,77.0,0,59,2.0,127.0
9182,74.0,0,59,2.0,127.0
9183,80.0,0,59,1.0,127.0
9184,77.0,0,59,1.0,127.0
9185,65.0,0,59,4.0,127.0
9186,58.0,0,59,3.0,127.0
9187,33.0,30,32,12.0,127.0
9188,45.0,0,32,11.0,127.0
9189,46.0,30,29,6.0,127.0
9190,46.0,0,32,11.0,127.0
9191,34.0,0,32,12.0,127.0
9192,46.0,0,29,6.0,127.0
9193,77.0,0,59,0.0,127.0
9194,46.0,0,59,4.0,127.0
9195,58.0,0,59,4.0,127.0
9196,86.0,0,59,1.0,127.0
9197,58.0,0,59,5.0,127.0
9198,46.0,0,59,3.0,127.0
9199,80.0,0,59,1.0,127.0
9200,53.0,0,59,10.0,127.0
9201,62.0,0,59,8.0,127.0
9202,68.0,0,59,7.0,127.0
9203,80.0,0,59,0.0,127.0
9204,45.0,0,32,11.0,127.0
9205,33.0,30,32,12.0,127.0
9206,46.0,0,29,6.0,127.0
9207,34.0,0,32,12.0,127.0
9208,46.0,0,32,11.0,127.0
9209,62.0,0,59,10.0,127.0
9210,77.0,0,59,0.0,127.0
9211,80.0,0,59,0.0,127.0
9212,46.0,0,29,6.0,127.0
9213,70.0,0,59,5.0,127.0
9214,70.0,0,59,2.0,127.0
9215,68.0,0,59,8.0,127.0
9216,86.0,30,59,1.0,127.0
9217,80.0,0,59,1.0,127.0
9218,58.0,0,59,4.0,127.0
9219,65.0,0,59,4.0,127.0
9220,58.0,0,59,3.0,127.0
9221,65.0,0,59,7.0,127.0
9222,45.0,0,32,11.0,127.0
9223,33.0,30,32,12.0,127.0
9224,46.0,0,29,6.0,127.0
9225,34.0,0,32,12.0,127.0
9226,46.0,0,32,11.0,127.0
9227,80.0,0,59,1.0,127.0
9228,56.0,0,59,10.0,127.0
9229,86.0,30,59,1.0,127.0
9230,45.0,0,29,11.0,127.0
9231,46.0,0,29,6.0,127.0
9232,46.0,0,59,3.0,127.0
9233,80.0,0,59,0.0,127.0
9234,58.0,0,59,5.0,127.0
9235,58.0,0,59,4.0,127.0
9236,46.0,0,59,4.0,127.0
9237,77.0,0,59,0.0,127.0
9238,33.0,30,29,12.0,127.0
9239,62.0,0,59,8.0,127.0
9240,77.0,0,59,7.0,127.0
9241,58.0,0,59,2.0,127.0
9242,46.0,0,29,6.0,127.0
9243,34.0,0,32,12.0,127.0
9244,46.0,0,32,11.0,127.0
9245,70.0,30,59,5.0,127.0
9246,68.0,0,59,8.0,127.0
9247,74.0,0,59,2.0,127.0
9248,77.0,0,59,0.0,127.0
9249,65.0,0,59,10.0,127.0
9250,65.0,0,59,4.0,127.0
9251,80.0,0,59,1.0,127.0
9252,80.0,0,59,0.0,127.0
9253,86.0,0,59,1.0,127.0
9254,58.0,0,59,3.0,127.0
9255,74.0,0,59,7.0,127.0
9256,58.0,0,59,4.0,127.0
9257,46.0,0,29,6.0,127.0
9258,45.0,0,32,11.0,127.0
9259,33.0,30,32,12.0,127.0
9260,46.0,0,29,6.0,127.0
9261,34.0,0,32,12.0,127.0
9262,46.0,0,32,11.0,127.0
9263,80.0,0,59,0.0,127.0
9264,58.0,0,59,5.0,127.0
9265,77.0,0,59,0.0,127.0
9266,46.0,30,29,6.0,127.0
9267,62.0,0,59,2.0,127.0
9268,46.0,0,59,3.0,127.0
9269,80.0,0,59,7.0,127.0
9270,62.0,0,59,10.0,127.0
9271,46.0,0,59,4.0,127.0
9272,58.0,30,59,4.0,127.0
9273,80.0,0,59,1.0,127.0
9274,86.0,0,59,1.0,127.0
9275,65.0,0,59,8.0,127.0
9276,33.0,0,32,12.0,127.0
9277,45.0,0,32,11.0,127.0
9278,46.0,0,29,6.0,127.0
9279,34.0,0,32,12.0,127.0
9280,46.0,0,32,11.0,127.0
9281,80.0,30,59,1.0,127.0
9282,86.0,0,59,1.0,127.0
9283,80.0,0,59,0.0,127.0
9284,77.0,0,59,0.0,127.0
9285,77.0,0,59,7.0,127.0
9286,70.0,0,59,5.0,127.0
9287,58.0,0,59,4.0,127.0
9288,74.0,0,59,8.0,127.0
9289,77.0,0,59,2.0,127.0
9290,65.0,0,59,4.0,127.0
9291,46.0,0,29,6.0,127.0
9292,68.0,0,59,10.0,127.0
9293,58.0,0,59,3.0,127.0
9294,33.0,0,32,12.0,127.0
9295,45.0,30,32,11.0,127.0
9296,46.0,0,29,6.0,127.0
9297,34.0,0,32,12.0,127.0
9298,46.0,30,32,11.0,127.0
9299,80.0,0,59,0.0,127.0
9300,86.0,0,59,7.0,127.0
9301,45.0,0,29,11.0,127.0
9302,68.0,0,59,8.0,127.0
9303,65.0,0,59,2.0,127.0
9304,46.0,0,59,4.0,127.0
9305,58.0,0,59,4.0,127.0
9306,33.0,30,29,12.0,127.0
9307,80.0,0,59,1.0,127.0
9308,86.0,0,59,1.0,127.0
9309,65.0,0,59,10.0,127.0
9310,58.0,0,59,5.0,127.0
9311,46.0,0,29,6.0,127.0
9312,46.0,0,59,3.0,127.0
9313,77.0,0,59,0.0,127.0
9314,46.0,0,29,6.0,127.0
9315,34.0,0,32,12.0,127.0
9316,46.0,0,32,11.0,127.0
9317,80.0,0,59,0.0,127.0
9318,86.0,30,59,1.0,127.0
9319,46.0,0,29,6.0,127.0
9320,74.0,0,59,10.0,127.0
9321,77.0,0,59,0.0,127.0
9322,58.0,0,59,3.0,127.0
9323,77.0,0,59,8.0,127.0
9324,65.0,0,59,4.0,127.0
9325,70.0,0,59,5.0,127.0
9326,80.0,0,59,1.0,127.0
9327,80.0,0,59,7.0,127.0
9328,80.0,0,59,2.0,127.0
9329,77.0,0,59,2.0,127.0
9330,58.0,0,59,4.0,127.0
9331,45.0,30,32,11.0,127.0
9332,33.0,0,32,12.0,127.0
9333,46.0,0,29,6.0,127.0
9334,34.0,0,32,12.0,127.0
9335,46.0,0,32,11.0,127.0
9336,58.0,0,59,5.0,127.0
9337,80.0,0,59,2.0,127.0
9338,80.0,0,59,0.0,127.0
9339,77.0,0,59,0.0,127.0
9340,77.0,0,59,2.0,127.0
9341,89.0,0,59,7.0,127.0
9342,58.0,0,59,4.0,127.0
9343,74.0,0,59,8.0,127.0
9344,80.0,0,59,1.0,127.0
9345,86.0,30,59,1.0,127.0
9346,46.0,0,59,4.0,127.0
9347,46.0,0,29,6.0,127.0
9348,56.0,0,59,10.0,127.0
9349,46.0,0,59,3.0,127.0
9350,45.0,30,32,11.0,127.0
9351,33.0,0,32,12.0,127.0
9352,46.0,0,29,6.0,127.0
9353,46.0,0,32,11.0,127.0
9354,34.0,30,32,12.0,127.0
9355,80.0,0,59,0.0,127.0
9356,77.0,0,59,2.0,127.0
9357,86.0,0,59,1.0,127.0
9358,80.0,0,59,1.0,127.0
9359,80.0,0,59,2.0,127.0
9360,80.0,0,59,8.0,127.0
9361,53.0,0,59,10.0,127.0
9362,70.0,0,59,5.0,127.0
9363,46.0,0,29,6.0,127.0
9364,58.0,0,59,3.0,127.0
9365,89.0,0,59,7.0,127.0
9366,58.0,0,59,4.0,127.0
9367,65.0,0,59,4.0,127.0
9368,77.0,0,59,0.0,127.0
9369,33.0,0,32,12.0,127.0
9370,45.0,30,32,11.0,127.0
9371,46.0,0,29,6.0,127.0
9372,34.0,0,32,12.0,127.0
9373,46.0,0,32,11.0,127.0
9374,86.0,0,59,1.0,127.0
9375,80.0,0,59,1.0,127.0
9376,58.0,0,59,4.0,127.0
9377,46.0,0,59,4.0,127.0
9378,46.0,0,59,3.0,127.0
9379,58.0,0,59,5.0,127.0
9380,80.0,0,59,8.0,127.0
9381,80.0,0,59,2.0,127.0
9382,77.0,0,59,2.0,127.0
9383,46.0,0,29,6.0,127.0
9384,45.0,0,29,11.0,127.0
9385,33.0,30,29,12.0,127.0
9386,50.0,0,59,10.0,127.0
9387,80.0,0,59,0.0,127.0
9388,89.0,30,59,7.0,127.0
9389,77.0,0,59,0.0,127.0
9390,89.0,0,29,7.0,127.0
9391,80.0,0,29,8.0,127.0
9392,62.0,0,29,10.0,127.0
9393,89.0,0,29,7.0,127.0
9394,80.0,30,29,8.0,127.0
9395,77.0,0,59,0.0,127.0
9396,46.0,0,59,6.0,127.0
9397,74.0,0,59,1.0,127.0
9398,80.0,0,59,2.0,127.0
9399,62.0,0,29,10.0,127.0
9400,62.0,0,59,3.0,127.0
9401,58.0,0,59,3.0,127.0
9402,77.0,0,59,2.0,127.0
9403,34.0,0,62,12.0,127.0
9404,46.0,0,62,11.0,127.0
9405,80.0,0,29,8.0,127.0
9406,63.0,0,29,10.0,127.0
9407,89.0,0,29,7.0,127.0
9408,75.0,0,59,1.0,127.0
9409,63.0,0,59,3.0,127.0
9410,59.0,0,59,3.0,127.0
9411,75.0,0,59,2.0,127.0
9412,63.0,0,29,10.0,127.0
9413,75.0,0,59,0.0,127.0
9414,80.0,30,29,8.0,127.0
9415,89.0,0,29,7.0,127.0
9416,47.0,0,62,11.0,127.0
9417,35.0,0,62,12.0,127.0
9418,62.0,0,29,10.0,127.0
9419,89.0,0,29,7.0,127.0
9420,80.0,0,29,8.0,127.0
9421,62.0,0,29,10.0,127.0
9422,74.0,0,59,0.0,127.0
9423,74.0,0,59,2.0,127.0
9424,62.0,0,59,3.0,127.0
9425,58.0,0,59,3.0,127.0
9426,80.0,30,29,8.0,127.0
9427,89.0,0,29,7.0,127.0
9428,46.0,30,59,6.0,127.0
9429,74.0,0,59,1.0,127.0
9430,46.0,0,62,11.0,127.0
9431,34.0,0,62,12.0,127.0
9432,63.0,0,29,10.0,127.0
9433,89.0,0,29,7.0,127.0
9434,80.0,0,29,8.0,127.0
9435,75.0,0,59,2.0,127.0
9436,63.0,0,29,10.0,127.0
9437,63.0,0,59,3.0,127.0
9438,75.0,0,59,0.0,127.0
9439,89.0,30,29,7.0,127.0
9440,47.0,0,59,11.0,127.0
9441,80.0,0,29,8.0,127.0
9442,59.0,0,59,3.0,127.0
9443,75.0,30,59,1.0,127.0
9444,35.0,0,59,12.0,127.0
9445,89.0,0,29,7.0,127.0
9446,80.0,0,29,8.0,127.0
9447,62.0,0,29,10.0,127.0
9448,58.0,30,59,3.0,127.0
9449,80.0,0,29,8.0,127.0
9450,74.0,0,59,0.0,127.0
9451,46.0,0,59,6.0,127.0
9452,89.0,0,29,7.0,127.0
9453,74.0,0,59,1.0,127.0
9454,74.0,0,59,2.0,127.0
9455,62.0,0,59,3.0,127.0
9456,62.0,30,29,10.0,127.0
9457,34.0,0,62,12.0,127.0
9458,46.0,0,62,11.0,127.0
9459,63.0,0,29,10.0,127.0
9460,89.0,30,29,7.0,127.0
9461,80.0,0,29,8.0,127.0
9462,75.0,0,59,0.0,127.0
9463,75.0,0,59,1.0,127.0
9464,63.0,0,29,10.0,127.0
9465,80.0,0,29,8.0,127.0
9466,89.0,30,29,7.0,127.0
9467,75.0,0,59,2.0,127.0
9468,59.0,0,59,3.0,127.0
9469,63.0,0,59,3.0,127.0
9470,35.0,0,62,12.0,127.0
9471,47.0,0,62,11.0,127.0
9472,62.0,0,29,10.0,127.0
9473,80.0,0,29,8.0,127.0
9474,89.0,0,29,7.0,127.0
9475,74.0,0,59,2.0,127.0
9476,58.0,0,59,3.0,127.0
9477,62.0,0,59,3.0,127.0
9478,74.0,0,59,1.0,127.0
9479,74.0,0,59,0.0,127.0
9480,80.0,30,29,8.0,127.0
9481,46.0,30,59,6.0,127.0
9482,62.0,0,29,10.0,127.0
9483,89.0,0,29,7.0,127.0
9484,46.0,0,62,11.0,127.0
9485,34.0,0,62,12.0,127.0
9486,89.0,0,29,7.0,127.0
9487,80.0,0,29,8.0,127.0
9488,63.0,0,29,10.0,127.0
9489,47.0,0,59,11.0,127.0
9490,89.0,0,29,7.0,127.0
9491,75.0,0,59,0.0,127.0
9492,59.0,0,59,3.0,127.0
9493,63.0,0,29,10.0,127.0
9494,63.0,0,59,3.0,127.0
9495,80.0,30,29,8.0,127.0
9496,35.0,0,59,12.0,127.0
9497,75.0,0,59,1.0,127.0
9498,75.0,30,59,2.0,127.0
9499,62.0,0,59,10.0,127.0
9500,89.0,0,59,7.0,127.0
9501,46.0,0,59,6.0,127.0
9502,80.0,0,59,8.0,127.0
9503,68.0,30,599,4.0,127.0
9504,74.0,0,119,2.0,127.0
9505,70.0,30,539,2.0,127.0
9506,65.0,0,599,4.0,127.0
9507,80.0,0,599,1.0,127.0
9508,74.0,30,119,1.0,127.0
9509,58.0,0,119,3.0,127.0
9510,62.0,0,119,3.0,127.0
9511,34.0,0,119,12.0,127.0
9512,46.0,0,119,11.0,127.0
9513,80.0,0,599,0.0,127.0
9514,74.0,0,119,0.0,127.0
9515,77.0,0,599,5.0,127.0
9516,46.0,0,59,12.0,127.0
9517,58.0,60,59,11.0,127.0
9518,68.0,0,119,8.0,127.0
9519,62.0,60,119,10.0,127.0
9520,80.0,0,119,7.0,127.0
9521,46.0,60,59,12.0,127.0
9522,68.0,0,119,8.0,127.0
9523,58.0,0,59,11.0,127.0
9524,62.0,0,119,10.0,127.0
9525,82.0,60,119,7.0,127.0
9526,62.0,0,119,10.0,127.0
9527,68.0,60,119,8.0,127.0
9528,58.0,60,59,11.0,127.0
9529,46.0,0,59,12.0,127.0
9530,83.0,0,119,7.0,127.0
9531,46.0,30,29,6.0,127.0
9532,70.0,0,29,5.0,127.0
9533,58.0,0,29,5.0,127.0
9534,58.0,0,59,11.0,127.0
9535,46.0,0,59,12.0,127.0
9536,44.0,60,29,12.0,127.0
9537,56.0,0,29,11.0,127.0
9538,58.0,0,119,5.0,127.0
9539,55.0,30,29,11.0,127.0
9540,70.0,30,119,5.0,127.0
9541,46.0,0,119,6.0,127.0
9542,43.0,0,29,12.0,127.0
9543,41.0,0,29,12.0,127.0
9544,53.0,0,29,11.0,127.0
9545,51.0,0,29,11.0,127.0
9546,39.0,30,29,12.0,127.0
9547,50.0,0,29,11.0,127.0
9548,38.0,30,29,12.0,127.0
9549,70.0,0,29,5.0,127.0
9550,46.0,0,29,6.0,127.0
9551,62.0,60,299,10.0,127.0
9552,36.0,0,29,12.0,127.0
9553,58.0,0,29,5.0,127.0
9554,48.0,30,29,11.0,127.0
9555,34.0,0,59,12.0,127.0
9556,46.0,0,59,11.0,127.0
9557,48.0,60,29,11.0,127.0
9558,36.0,0,29,12.0,127.0
9559,58.0,0,239,4.0,127.0
9560,70.0,0,119,5.0,127.0
9561,74.0,0,239,0.0,127.0
9562,68.0,0,239,0.0,127.0
9563,65.0,30,239,2.0,127.0
9564,58.0,0,239,3.0,127.0
9565,68.0,0,239,2.0,127.0
9566,38.0,0,29,12.0,127.0
9567,65.0,0,239,4.0,127.0
9568,62.0,0,239,3.0,127.0
9569,46.0,0,239,4.0,127.0
9570,58.0,0,119,5.0,127.0
9571,74.0,0,239,1.0,127.0
9572,80.0,0,239,1.0,127.0
9573,46.0,0,119,6.0,127.0
9574,50.0,30,29,11.0,127.0
9575,51.0,0,29,11.0,127.0
9576,39.0,0,29,12.0,127.0
9577,41.0,30,29,12.0,127.0
9578,53.0,0,29,11.0,127.0
9579,55.0,30,29,11.0,127.0
9580,43.0,0,29,12.0,127.0
9581,58.0,0,239,10.0,127.0
9582,44.0,0,29,12.0,127.0
9583,65.0,30,239,10.0,127.0
9584,56.0,0,29,11.0,127.0
9585,68.0,0,539,8.0,127.0
9586,58.0,0,29,5.0,127.0
9587,70.0,0,29,5.0,127.0
9588,46.0,30,29,6.0,127.0
9589,84.0,0,539,7.0,127.0
9590,74.0,0,299,2.0,127.0
9591,65.0,0,299,3.0,127.0
9592,62.0,0,299,3.0,127.0
9593,58.0,0,299,4.0,127.0
9594,65.0,0,299,4.0,127.0
9595,68.0,30,179,8.0,127.0
9596,65.0,0,179,10.0,127.0
9597,58.0,0,179,10.0,127.0
9598,80.0,0,299,0.0,127.0
9599,74.0,0,299,0.0,127.0
9600,68.0,30,299,4.0,127.0
9601,46.0,0,179,12.0,127.0
9602,80.0,0,299,1.0,127.0
9603,77.0,0,299,1.0,127.0
9604,46.0,0,179,6.0,127.0
9605,74.0,0,179,7.0,127.0
9606,70.0,0,179,5.0,127.0
9607,77.0,0,299,2.0,127.0
9608,58.0,0,179,5.0,127.0
9609,58.0,0,179,11.0,127.0
9610,75.0,180,59,1.0,48.0
9611,58.0,0,119,4.0,48.0
9612,67.0,0,119,2.0,48.0
9613,58.0,0,119,3.0,48.0
9614,70.0,60,119,2.0,48.0
9615,79.0,0,122,1.0,48.0
9616,51.0,0,122,3.0,48.0
9617,58.0,0,104,3.0,48.0
9618,55.0,0,106,3.0,48.0
9619,75.0,0,106,1.0,48.0
9620,67.0,0,106,2.0,48.0
9621,65.0,0,14,2.0,48.0
9622,58.0,0,14,3.0,48.0
9623,58.0,0,119,4.0,48.0
9624,74.0,105,14,1.0,48.0
9625,70.0,120,119,2.0,48.0
9626,65.0,0,179,2.0,48.0
9627,58.0,15,179,4.0,48.0
9628,70.0,0,182,2.0,48.0
9629,58.0,0,182,3.0,48.0
9630,74.0,0,182,1.0,48.0
9631,56.0,0,32,3.0,48.0
9632,72.0,0,32,2.0,48.0
9633,65.0,180,59,2.0,48.0
9634,70.0,30,29,2.0,48.0
9635,77.0,0,59,1.0,48.0
9636,55.0,0,29,3.0,48.0
9637,60.0,0,59,3.0,48.0
9638,68.0,0,119,2.0,48.0
9639,65.0,0,119,2.0,48.0
9640,60.0,0,122,3.0,48.0
9641,53.0,30,122,3.0,48.0
9642,80.0,0,122,1.0,48.0
9643,68.0,0,106,2.0,96.0
9644,77.0,0,106,1.0,96.0
9645,59.0,0,106,3.0,96.0
9646,62.0,120,106,3.0,96.0
9647,60.0,0,14,3.0,48.0
9648,67.0,105,14,2.0,48.0
9649,75.0,0,14,1.0,48.0
9650,63.0,0,14,3.0,48.0
9651,67.0,15,179,2.0,48.0
9652,63.0,0,179,3.0,48.0
9653,75.0,0,182,1.0,48.0
9654,60.0,0,182,3.0,48.0
9655,58.0,0,32,3.0,48.0
9656,67.0,0,59,2.0,48.0
9657,79.0,0,59,1.0,48.0
9658,56.0,30,29,3.0,48.0
9659,63.0,180,59,3.0,48.0
9660,70.0,0,89,2.0,48.0
9661,82.0,0,89,1.0,48.0
9662,55.0,0,122,3.0,48.0
9663,63.0,30,122,3.0,48.0
9664,82.0,120,89,1.0,72.0
9665,70.0,0,89,2.0,71.0
9666,65.0,0,106,3.0,71.0
9667,62.0,0,106,3.0,71.0
9668,68.0,0,106,2.0,71.0
9669,67.0,0,14,2.0,92.0
9670,67.0,105,14,3.0,92.0
9671,63.0,0,14,3.0,92.0
9672,70.0,0,179,2.0,95.0
9673,67.0,15,179,2.0,95.0
9674,82.0,0,179,1.0,96.0
9675,67.0,0,179,3.0,95.0
9676,63.0,0,179,3.0,95.0
9677,63.0,180,59,4.0,48.0
9678,75.0,0,59,2.0,61.0
9679,70.0,0,59,2.0,61.0
9680,61.0,0,59,3.0,59.0
9681,63.0,0,59,3.0,59.0
9682,79.0,0,62,1.0,60.0
9683,68.0,0,59,2.0,48.0
9684,75.0,0,62,2.0,48.0
9685,63.0,0,62,3.0,48.0
9686,60.0,0,62,3.0,48.0
9687,80.0,0,62,1.0,48.0
9688,63.0,60,62,4.0,48.0
9689,70.0,0,59,2.0,48.0
9690,68.0,0,59,2.0,48.0
9691,68.0,0,62,4.0,48.0
9692,77.0,0,62,1.0,48.0
9693,65.0,60,62,3.0,48.0
9694,62.0,0,62,3.0,48.0
9695,63.0,60,59,3.0,48.0
9696,67.0,0,59,2.0,48.0
9697,70.0,0,62,2.0,48.0
9698,67.0,0,62,4.0,48.0
9699,67.0,0,62,3.0,48.0
9700,79.0,0,62,1.0,48.0
9701,60.0,0,59,3.0,48.0
9702,63.0,0,59,4.0,48.0
9703,63.0,0,59,3.0,48.0
9704,75.0,30,29,2.0,48.0
9705,75.0,0,62,1.0,48.0
9706,58.0,30,59,3.0,48.0
9707,69.0,60,164,2.0,48.0
9708,58.0,0,119,4.0,48.0
9709,46.0,60,59,3.0,48.0
9710,70.0,45,14,2.0,48.0
9711,79.0,0,122,1.0,48.0
9712,63.0,0,122,4.0,48.0
9713,63.0,0,122,3.0,48.0
9714,67.0,0,122,4.0,48.0
9715,75.0,0,122,2.0,48.0
9716,58.0,0,59,3.0,48.0
9717,74.0,0,59,2.0,48.0
9718,58.0,15,59,4.0,48.0
9719,77.0,0,59,1.0,60.0
9720,62.0,0,59,3.0,48.0
9721,65.0,0,59,4.0,48.0
9722,70.0,0,59,2.0,48.0
9723,63.0,0,59,7.0,48.0
9724,55.0,60,59,10.0,48.0
9725,58.0,0,59,8.0,48.0
9726,67.0,0,122,7.0,48.0
9727,58.0,0,122,8.0,48.0
9728,39.0,0,122,11.0,48.0
9729,27.0,0,122,12.0,80.0
9730,55.0,60,122,10.0,48.0
9731,33.0,0,106,12.0,80.0
9732,63.0,0,106,4.0,48.0
9733,45.0,0,106,11.0,48.0
9734,66.0,0,106,4.0,48.0
9735,51.0,0,106,4.0,48.0
9736,54.0,0,106,10.0,48.0
9737,63.0,120,106,7.0,48.0
9738,60.0,0,106,8.0,48.0
9739,65.0,0,14,4.0,48.0
9740,53.0,5,14,10.0,48.0
9741,58.0,0,14,4.0,48.0
9742,46.0,0,14,11.0,48.0
9743,46.0,0,14,4.0,48.0
9744,34.0,0,14,12.0,80.0
9745,58.0,0,14,8.0,48.0
9746,62.0,100,19,7.0,48.0
9747,70.0,60,29,2.0,48.0
9748,72.0,30,29,2.0,48.0
9749,46.0,0,119,4.0,48.0
9750,58.0,0,119,4.0,48.0
9751,65.0,0,119,4.0,48.0
9752,74.0,30,22,2.0,48.0
9753,75.0,30,22,2.0,48.0
9754,53.0,0,179,10.0,48.0
9755,46.0,0,182,11.0,48.0
9756,34.0,0,182,12.0,80.0
9757,62.0,15,182,7.0,48.0
9758,58.0,0,182,8.0,48.0
9759,77.0,0,22,2.0,48.0
9760,44.0,0,32,11.0,48.0
9761,32.0,30,32,12.0,80.0
9762,60.0,0,32,8.0,48.0
9763,79.0,0,22,2.0,48.0
9764,65.0,0,59,7.0,48.0
9765,53.0,0,59,10.0,48.0
9766,31.0,0,29,12.0,80.0
9767,43.0,0,29,11.0,48.0
9768,58.0,30,32,8.0,48.0
9769,80.0,0,59,2.0,48.0
9770,41.0,0,122,11.0,48.0
9771,60.0,30,122,10.0,48.0
9772,29.0,0,122,12.0,80.0
9773,56.0,0,122,8.0,48.0
9774,68.0,0,122,7.0,48.0
9775,47.0,0,106,11.0,96.0
9776,56.0,0,106,10.0,96.0
9777,65.0,0,106,7.0,96.0
9778,65.0,0,106,4.0,96.0
9779,68.0,0,106,4.0,96.0
9780,50.0,120,106,4.0,96.0
9781,62.0,0,106,8.0,96.0
9782,35.0,0,106,12.0,127.0
9783,36.0,0,14,12.0,80.0
9784,67.0,5,14,4.0,48.0
9785,63.0,0,14,4.0,48.0
9786,63.0,100,19,7.0,48.0
9787,55.0,0,14,10.0,48.0
9788,60.0,0,14,8.0,48.0
9789,51.0,0,14,4.0,48.0
9790,48.0,0,14,11.0,48.0
9791,75.0,60,32,1.0,48.0
9792,51.0,0,119,4.0,48.0
9793,67.0,0,119,4.0,48.0
9794,74.0,30,29,1.0,48.0
9795,63.0,15,119,4.0,48.0
9796,75.0,30,22,1.0,48.0
9797,77.0,30,22,1.0,48.0
9798,55.0,0,179,10.0,48.0
9799,63.0,0,182,7.0,48.0
9800,60.0,0,182,8.0,48.0
9801,48.0,0,182,11.0,48.0
9802,36.0,0,182,12.0,80.0
9803,79.0,0,22,1.0,48.0
9804,34.0,0,32,12.0,80.0
9805,46.0,0,32,11.0,48.0
9806,80.0,0,22,1.0,48.0
9807,44.0,30,29,11.0,48.0
9808,67.0,0,59,7.0,48.0
9809,63.0,0,59,8.0,48.0
9810,58.0,30,59,10.0,48.0
9811,32.0,0,29,12.0,80.0
9812,70.0,0,119,7.0,48.0
9813,82.0,0,119,1.0,48.0
9814,51.0,0,119,4.0,48.0
9815,63.0,0,122,8.0,48.0
9816,31.0,30,122,12.0,80.0
9817,58.0,0,122,10.0,48.0
9818,43.0,0,122,11.0,48.0
9819,80.0,120,104,2.0,48.0
9820,77.0,0,104,2.0,48.0
9821,68.0,0,106,8.0,72.0
9822,50.0,0,106,11.0,71.0
9823,50.0,0,106,4.0,71.0
9824,68.0,0,106,4.0,71.0
9825,38.0,0,106,12.0,103.0
9826,65.0,0,106,10.0,72.0
9827,70.0,0,119,4.0,71.0
9828,51.0,0,14,4.0,92.0
9829,39.0,0,14,12.0,124.0
9830,82.0,0,119,1.0,72.0
9831,63.0,105,14,10.0,93.0
9832,70.0,0,119,7.0,71.0
9833,75.0,0,14,2.0,90.0
9834,79.0,0,14,2.0,90.0
9835,51.0,0,14,11.0,92.0
9836,67.0,0,14,8.0,93.0
9837,67.0,0,14,4.0,92.0
9838,79.0,0,179,2.0,96.0
9839,82.0,0,179,1.0,96.0
9840,70.0,0,179,7.0,96.0
9841,63.0,15,179,10.0,96.0
9842,70.0,0,179,4.0,95.0
9843,67.0,0,179,4.0,95.0
9844,75.0,0,179,2.0,96.0
9845,51.0,0,179,4.0,95.0
9846,39.0,0,182,12.0,127.0
9847,67.0,180,2,8.0,60.0
9848,51.0,0,182,11.0,127.0
9849,37.0,0,59,12.0,93.0
9850,49.0,0,59,11.0,61.0
9851,70.0,0,62,4.0,60.0
9852,82.0,0,62,1.0,60.0
9853,70.0,0,62,7.0,60.0
9854,80.0,0,59,1.0,48.0
9855,79.0,0,119,2.0,60.0
9856,63.0,0,119,4.0,60.0
9857,75.0,0,119,2.0,60.0
9858,68.0,0,59,4.0,48.0
9859,67.0,0,119,4.0,60.0
9860,63.0,0,119,10.0,60.0
9861,68.0,60,59,7.0,48.0
9862,48.0,0,62,11.0,48.0
9863,36.0,0,62,12.0,80.0
9864,38.0,60,62,12.0,80.0
9865,68.0,0,62,7.0,48.0
9866,50.0,0,62,11.0,48.0
9867,80.0,0,62,1.0,48.0
9868,68.0,0,62,4.0,48.0
9869,65.0,0,119,4.0,48.0
9870,58.0,0,119,4.0,48.0
9871,67.0,0,59,4.0,48.0
9872,58.0,0,119,10.0,48.0
9873,70.0,0,119,2.0,48.0
9874,77.0,0,119,2.0,48.0
9875,65.0,0,119,8.0,48.0
9876,79.0,0,59,1.0,48.0
9877,67.0,0,59,7.0,48.0
9878,39.0,0,62,12.0,80.0
9879,51.0,60,62,11.0,48.0
9880,36.0,0,59,12.0,80.0
9881,67.0,0,59,4.0,48.0
9882,63.0,0,59,4.0,48.0
9883,51.0,0,59,4.0,48.0
9884,48.0,0,59,11.0,48.0
9885,34.0,0,29,12.0,80.0
9886,46.0,0,29,11.0,48.0
9887,58.0,60,29,11.0,48.0
9888,46.0,0,29,12.0,80.0
9889,69.0,0,164,2.0,48.0
9890,57.0,0,166,10.0,48.0
9891,70.0,0,14,2.0,56.0
9892,63.0,0,179,8.0,48.0
9893,58.0,45,14,10.0,48.0
9894,79.0,60,182,1.0,48.0
9895,75.0,0,182,2.0,48.0
9896,67.0,0,182,7.0,48.0
9897,63.0,0,122,4.0,47.0
9898,51.0,60,122,4.0,47.0
9899,67.0,0,122,4.0,47.0
9900,34.0,0,29,12.0,80.0
9901,46.0,0,29,11.0,48.0
9902,58.0,0,29,10.0,48.0
9903,62.0,0,59,8.0,48.0
9904,77.0,0,59,1.0,48.0
9905,65.0,15,59,7.0,48.0
9906,70.0,0,59,2.0,48.0
9907,74.0,0,59,2.0,48.0
9908,70.0,0,14,1.0,48.0
9909,58.0,90,14,7.0,48.0
9910,46.0,0,119,4.0,64.0
9911,65.0,0,119,4.0,64.0
9912,58.0,0,119,4.0,64.0
9913,53.0,0,19,2.0,48.0
9914,58.0,0,32,7.0,48.0
9915,70.0,0,32,1.0,48.0
9916,56.0,20,19,2.0,48.0
9917,46.0,0,59,13.0,48.0
9918,34.0,0,59,13.0,48.0
9919,68.0,10,29,7.0,48.0
9920,58.0,10,19,2.0,48.0
9921,80.0,0,29,1.0,48.0
9922,62.0,20,19,2.0,48.0
9923,58.0,20,19,2.0,48.0
9924,79.0,10,14,1.0,48.0
9925,67.0,0,14,7.0,48.0
9926,62.0,0,59,8.0,48.0
9927,58.0,0,59,10.0,48.0
9928,56.0,0,59,8.0,48.0
9929,56.0,10,19,2.0,48.0
9930,53.0,20,19,2.0,48.0
9931,67.0,0,32,7.0,48.0
9932,79.0,0,32,1.0,48.0
9933,56.0,20,19,2.0,48.0
9934,38.0,0,59,13.0,48.0
9935,65.0,10,29,7.0,48.0
9936,77.0,0,29,1.0,48.0
9937,58.0,10,19,2.0,48.0
9938,50.0,0,59,13.0,48.0
9939,62.0,0,19,2.0,48.0
9940,58.0,20,19,2.0,48.0
9941,63.0,10,14,7.0,48.0
9942,75.0,0,14,1.0,48.0
9943,56.0,20,59,8.0,48.0
9944,58.0,0,59,10.0,48.0
9945,56.0,10,19,2.0,48.0
9946,62.0,0,59,8.0,48.0
9947,53.0,0,19,2.0,48.0
9948,56.0,20,19,2.0,48.0
9949,53.0,0,59,13.0,48.0
9950,58.0,20,19,2.0,48.0
9951,41.0,0,59,13.0,48.0
9952,75.0,0,62,1.0,48.0
9953,63.0,20,62,7.0,48.0
9954,62.0,0,19,2.0,48.0
9955,62.0,0,29,7.0,48.0
9956,74.0,0,29,1.0,48.0
9957,58.0,20,19,2.0,48.0
9958,63.0,0,14,7.0,48.0
9959,75.0,10,14,1.0,48.0
9960,46.0,30,359,4.0,48.0
9961,58.0,0,359,4.0,48.0
9962,56.0,10,19,2.0,48.0
9963,58.0,0,59,10.0,48.0
9964,62.0,20,59,8.0,48.0
9965,56.0,0,59,8.0,48.0
9966,65.0,0,14,7.0,48.0
9967,77.0,0,14,1.0,48.0
9968,53.0,0,19,2.0,48.0
9969,56.0,20,19,2.0,48.0
9970,79.0,10,14,1.0,48.0
9971,67.0,0,14,7.0,48.0
9972,58.0,0,59,13.0,48.0
9973,46.0,20,59,6.0,32.0
9974,58.0,10,19,2.0,48.0
9975,46.0,0,59,13.0,48.0
9976,80.0,20,14,1.0,48.0
9977,68.0,0,14,7.0,48.0
9978,62.0,0,19,2.0,48.0
9979,58.0,20,19,2.0,48.0
9980,70.0,10,14,7.0,48.0
9981,46.0,0,104,4.0,48.0
9982,58.0,0,104,4.0,48.0
9983,82.0,0,14,1.0,48.0
9984,58.0,0,14,4.0,48.0
9985,46.0,5,14,4.0,48.0
9986,46.0,0,59,6.0,32.0
9987,62.0,0,59,8.0,48.0
9988,56.0,10,19,2.0,48.0
9989,56.0,0,59,8.0,48.0
9990,58.0,0,59,10.0,48.0
9991,56.0,15,19,2.0,48.0
9992,83.0,0,32,1.0,48.0
9993,71.0,0,32,7.0,48.0
9994,58.0,20,19,2.0,48.0
9995,84.0,0,29,1.0,48.0
9996,62.0,10,19,2.0,48.0
9997,34.0,0,59,13.0,48.0
9998,46.0,0,59,13.0,48.0
9999,72.0,10,29,7.0,48.0
10000,65.0,0,19,2.0,48.0
10001,62.0,20,19,2.0,48.0
10002,70.0,10,14,7.0,48.0
10003,82.0,0,14,1.0,48.0
10004,58.0,10,19,2.0,48.0
10005,58.0,0,59,10.0,48.0
10006,56.0,0,59,8.0,48.0
10007,62.0,20,59,8.0,48.0
10008,56.0,0,19,2.0,48.0
10009,70.0,0,32,7.0,48.0
10010,82.0,20,32,1.0,48.0
10011,58.0,20,19,2.0,48.0
10012,80.0,10,29,1.0,48.0
10013,50.0,0,59,13.0,48.0
10014,62.0,10,19,2.0,48.0
10015,38.0,0,59,13.0,48.0
10016,68.0,0,29,7.0,48.0
10017,65.0,0,19,2.0,48.0
10018,62.0,20,19,2.0,48.0
10019,67.0,10,14,7.0,48.0
10020,79.0,0,14,1.0,48.0
10021,56.0,20,59,8.0,48.0
10022,62.0,0,59,8.0,48.0
10023,58.0,0,59,10.0,48.0
10024,58.0,10,19,2.0,48.0
10025,56.0,0,19,2.0,48.0
10026,58.0,20,19,2.0,48.0
10027,54.0,0,59,13.0,48.0
10028,41.0,0,59,13.0,48.0
10029,62.0,20,19,2.0,48.0
10030,67.0,20,62,7.0,48.0
10031,79.0,0,62,1.0,48.0
10032,65.0,0,19,2.0,48.0
10033,65.0,0,29,7.0,48.0
10034,77.0,20,29,1.0,48.0
10035,62.0,20,19,2.0,48.0
10036,64.0,10,14,7.0,48.0
10037,76.0,0,14,1.0,48.0
10038,62.0,0,59,8.0,48.0
10039,56.0,0,59,8.0,48.0
10040,58.0,10,19,2.0,48.0
10041,58.0,0,59,10.0,48.0
10042,46.0,0,359,4.0,48.0
10043,58.0,0,359,4.0,48.0
10044,77.0,0,14,1.0,48.0
10045,65.0,0,14,7.0,48.0
10046,65.0,20,19,2.0,48.0
10047,62.0,20,19,2.0,48.0
10048,66.0,0,14,7.0,48.0
10049,78.0,10,14,1.0,48.0
10050,58.0,10,19,2.0,48.0
10051,46.0,0,59,6.0,32.0
10052,44.0,0,59,13.0,48.0
10053,32.0,0,59,13.0,48.0
10054,67.0,0,14,7.0,48.0
10055,79.0,0,14,1.0,48.0
10056,65.0,0,19,2.0,48.0
10057,62.0,20,19,2.0,48.0
10058,46.0,0,104,4.0,48.0
10059,58.0,0,104,4.0,48.0
10060,80.0,10,14,1.0,48.0
10061,68.0,0,14,7.0,48.0
10062,56.0,0,59,10.0,48.0
10063,46.0,0,59,6.0,32.0
10064,62.0,0,59,10.0,48.0
10065,65.0,0,59,8.0,48.0
10066,58.0,20,59,8.0,48.0
10067,58.0,10,19,2.0,48.0
10068,58.0,0,14,4.0,48.0
10069,46.0,5,14,4.0,48.0
10070,58.0,0,19,2.0,48.0
10071,63.0,20,19,2.0,48.0
10072,67.0,20,19,2.0,48.0
10073,43.0,0,59,13.0,48.0
10074,31.0,0,59,13.0,48.0
10075,70.0,0,19,2.0,48.0
10076,75.0,20,19,2.0,48.0
10077,58.0,0,59,8.0,49.0
10078,79.0,10,19,2.0,48.0
10079,63.0,0,59,10.0,50.0
10080,62.0,10,29,3.0,51.0
10081,67.0,20,59,8.0,49.0
10082,55.0,0,59,10.0,50.0
10083,74.0,0,29,0.0,50.0
10084,69.0,0,122,7.0,48.0
10085,81.0,0,122,1.0,48.0
10086,82.0,0,19,2.0,48.0
10087,79.0,20,19,2.0,48.0
10088,46.0,0,59,6.0,32.0
10089,70.0,0,59,7.0,52.0
10090,75.0,20,19,2.0,48.0
10091,43.0,0,59,13.0,52.0
10092,55.0,0,59,13.0,48.0
10093,82.0,0,59,1.0,48.0
10094,74.0,0,62,0.0,51.0
10095,62.0,20,62,3.0,52.0
10096,70.0,0,19,2.0,48.0
10097,75.0,0,29,0.0,53.0
10098,63.0,20,29,3.0,54.0
10099,67.0,20,19,2.0,48.0
10100,70.0,0,29,7.0,55.0
10101,46.0,0,59,6.0,32.0
10102,63.0,0,59,10.0,54.0
10103,63.0,15,239,4.0,48.0
10104,82.0,10,29,1.0,48.0
10105,63.0,10,19,2.0,48.0
10106,58.0,0,59,8.0,53.0
10107,67.0,0,59,8.0,53.0
10108,51.0,0,239,4.0,48.0
10109,60.0,0,19,2.0,48.0
10110,65.0,20,19,2.0,48.0
10111,44.0,0,59,13.0,48.0
10112,32.0,0,59,13.0,56.0
10113,68.0,20,19,2.0,48.0
10114,72.0,0,19,2.0,48.0
10115,77.0,20,19,2.0,48.0
10116,80.0,10,19,2.0,48.0
10117,62.0,10,29,3.0,59.0
10118,74.0,0,29,0.0,58.0
10119,60.0,20,59,8.0,57.0
10120,65.0,0,59,8.0,57.0
10121,63.0,0,59,10.0,58.0
10122,83.0,0,122,1.0,48.0
10123,71.0,20,122,7.0,56.0
10124,84.0,0,19,2.0,48.0
10125,80.0,20,19,2.0,48.0
10126,72.0,0,59,7.0,60.0
10127,77.0,20,19,2.0,48.0
10128,44.0,0,59,13.0,60.0
10129,56.0,0,59,13.0,48.0
10130,84.0,20,59,1.0,48.0
10131,46.0,0,59,6.0,32.0
10132,62.0,0,62,3.0,60.0
10133,74.0,0,62,0.0,59.0
10134,72.0,0,19,2.0,48.0
10135,75.0,0,29,0.0,61.0
10136,63.0,20,29,3.0,62.0
10137,68.0,20,19,2.0,48.0
10138,51.0,0,239,4.0,52.0
10139,65.0,0,239,4.0,52.0
10140,63.0,0,239,4.0,52.0
10141,46.0,0,59,6.0,32.0
10142,72.0,0,29,7.0,63.0
10143,84.0,10,29,1.0,48.0
10144,63.0,0,59,10.0,62.0
10145,60.0,0,59,8.0,61.0
10146,65.0,10,19,2.0,48.0
10147,65.0,0,59,8.0,61.0
10148,67.0,0,19,2.0,48.0
10149,70.0,20,19,2.0,48.0
10150,46.0,0,59,13.0,48.0
10151,58.0,0,59,13.0,48.0
10152,57.0,0,14,3.0,53.0
10153,69.0,5,14,0.0,54.0
10154,75.0,20,19,2.0,48.0
10155,79.0,0,19,2.0,48.0
10156,57.0,0,32,3.0,55.0
10157,69.0,0,32,0.0,56.0
10158,77.0,20,19,2.0,48.0
10159,58.0,0,29,3.0,59.0
10160,51.0,0,119,4.0,48.0
10161,67.0,0,59,8.0,56.0
10162,63.0,0,119,4.0,48.0
10163,58.0,0,59,8.0,56.0
10164,46.0,15,59,6.0,40.0
10165,70.0,10,29,0.0,60.0
10166,75.0,10,19,2.0,48.0
10167,63.0,0,59,10.0,51.0
10168,79.0,20,122,1.0,48.0
10169,75.0,0,122,1.0,48.0
10170,67.0,0,122,7.0,48.0
10171,63.0,0,122,2.0,48.0
10172,67.0,0,122,4.0,48.0
10173,74.0,0,19,2.0,48.0
10174,72.0,20,19,2.0,48.0
10175,69.0,5,14,0.0,58.0
10176,57.0,0,14,3.0,59.0
10177,34.0,0,59,13.0,56.0
10178,46.0,20,59,13.0,48.0
10179,70.0,20,19,2.0,48.0
10180,68.0,15,19,2.0,48.0
10181,57.0,0,32,3.0,57.0
10182,82.0,0,92,1.0,48.0
10183,74.0,0,92,1.0,48.0
10184,70.0,0,92,7.0,63.0
10185,62.0,0,92,2.0,48.0
10186,69.0,0,32,0.0,56.0
10187,67.0,20,19,2.0,48.0
10188,65.0,10,0,2.0,48.0
10189,70.0,0,29,0.0,52.0
10190,58.0,0,29,3.0,53.0
10191,62.0,0,59,10.0,53.0
10192,65.0,0,59,8.0,56.0
10193,58.0,0,59,8.0,56.0
10194,65.0,0,119,4.0,63.0
10195,58.0,0,119,4.0,63.0
10196,68.0,0,29,7.0,53.0
10197,77.0,0,29,1.0,48.0
10198,46.0,0,119,4.0,63.0
10199,46.0,0,59,6.0,40.0
10200,80.0,10,29,1.0,48.0
10201,67.0,0,29,7.0,48.0
10202,63.0,0,29,8.0,48.0
10203,63.0,0,29,10.0,48.0
10204,51.0,0,59,13.0,48.0
10205,67.0,0,59,2.0,48.0
10206,63.0,0,59,2.0,48.0
10207,39.0,0,59,13.0,48.0
10208,75.0,0,59,1.0,48.0
10209,79.0,0,59,1.0,48.0
10210,51.0,20,59,4.0,48.0
10211,67.0,0,59,4.0,48.0
10212,63.0,0,59,4.0,48.0
10213,46.0,0,59,6.0,32.0
10214,58.0,30,32,10.0,50.0
10215,70.0,0,32,7.0,50.0
10216,70.0,0,32,8.0,50.0
10217,69.0,0,32,7.0,52.0
10218,57.0,0,32,10.0,52.0
10219,69.0,30,32,8.0,52.0
10220,58.0,0,59,3.0,49.0
10221,58.0,0,59,4.0,48.0
10222,46.0,0,59,4.0,48.0
10223,70.0,0,59,0.0,48.0
10224,70.0,0,32,8.0,54.0
10225,70.0,30,32,7.0,54.0
10226,58.0,0,32,10.0,54.0
10227,56.0,0,32,10.0,56.0
10228,68.0,30,32,8.0,56.0
10229,68.0,0,32,7.0,56.0
10230,46.0,0,59,4.0,50.0
10231,58.0,0,59,4.0,50.0
10232,55.0,30,32,10.0,58.0
10233,67.0,0,32,7.0,58.0
10234,67.0,0,32,8.0,58.0
10235,65.0,0,32,8.0,60.0
10236,65.0,0,32,7.0,60.0
10237,53.0,0,32,10.0,60.0
10238,63.0,0,29,8.0,62.0
10239,51.0,30,29,10.0,62.0
10240,58.0,0,59,4.0,53.0
10241,46.0,30,59,4.0,53.0
10242,63.0,0,32,7.0,62.0
10243,60.0,0,14,2.0,48.0
10244,70.0,0,14,1.0,48.0
10245,46.0,0,19,11.0,48.0
10246,56.0,0,19,2.0,48.0
10247,58.0,0,19,2.0,48.0
10248,50.0,20,19,11.0,48.0
10249,53.0,0,14,3.0,48.0
10250,46.0,0,14,3.0,48.0
10251,58.0,0,59,10.0,48.0
10252,34.0,0,59,13.0,48.0
10253,53.0,0,19,11.0,48.0
10254,62.0,0,59,8.0,48.0
10255,62.0,10,19,2.0,48.0
10256,62.0,0,59,7.0,48.0
10257,53.0,0,14,3.0,48.0
10258,56.0,20,14,3.0,48.0
10259,65.0,0,19,2.0,48.0
10260,56.0,0,19,11.0,48.0
10261,68.0,10,59,2.0,64.0
10262,80.0,0,59,1.0,64.0
10263,53.0,0,19,11.0,48.0
10264,62.0,20,19,2.0,48.0
10265,80.0,0,14,1.0,48.0
10266,53.0,0,14,3.0,48.0
10267,46.0,0,14,3.0,48.0
10268,67.0,10,14,2.0,48.0
10269,50.0,0,19,11.0,48.0
10270,58.0,10,19,2.0,48.0
10271,67.0,20,14,2.0,48.0
10272,56.0,0,14,3.0,48.0
10273,53.0,0,14,3.0,48.0
10274,79.0,0,14,1.0,48.0
10275,46.0,0,19,11.0,48.0
10276,56.0,0,19,2.0,48.0
10277,50.0,0,19,11.0,48.0
10278,58.0,20,19,2.0,48.0
10279,53.0,0,14,3.0,48.0
10280,46.0,10,14,3.0,48.0
10281,65.0,0,29,2.0,64.0
10282,53.0,10,19,11.0,48.0
10283,62.0,0,19,2.0,48.0
10284,56.0,0,14,3.0,48.0
10285,53.0,0,14,3.0,48.0
10286,56.0,20,19,11.0,48.0
10287,65.0,0,29,2.0,48.0
10288,77.0,0,59,1.0,64.0
10289,62.0,20,19,2.0,48.0
10290,53.0,0,19,11.0,48.0
10291,46.0,10,14,3.0,48.0
10292,75.0,0,14,1.0,48.0
10293,63.0,0,14,2.0,48.0
10294,53.0,0,14,3.0,48.0
10295,50.0,0,19,11.0,48.0
10296,58.0,10,19,2.0,48.0
10297,63.0,0,14,2.0,48.0
10298,75.0,0,14,1.0,48.0
10299,46.0,0,19,11.0,48.0
10300,56.0,20,19,2.0,48.0
10301,46.0,0,9,12.0,80.0
10302,58.0,0,9,10.0,48.0
10303,58.0,30,269,4.0,48.0
10304,46.0,0,269,4.0,48.0
10305,50.0,0,19,11.0,48.0
10306,58.0,20,19,2.0,48.0
10307,62.0,0,10,2.0,65.0
10308,70.0,0,14,4.0,48.0
10309,58.0,0,14,4.0,48.0
10310,65.0,0,14,4.0,48.0
10311,46.0,0,9,12.0,80.0
10312,58.0,0,9,10.0,48.0
10313,58.0,0,7,8.0,48.0
10314,70.0,5,7,7.0,48.0
10315,53.0,10,19,11.0,48.0
10316,53.0,0,59,3.0,48.0
10317,56.0,0,59,3.0,48.0
10318,58.0,15,9,10.0,48.0
10319,46.0,0,9,12.0,80.0
10320,65.0,0,14,4.0,48.0
10321,70.0,0,14,4.0,48.0
10322,68.0,0,14,4.0,48.0
10323,62.0,0,39,2.0,48.0
10324,65.0,0,19,2.0,48.0
10325,56.0,0,19,11.0,48.0
10326,70.0,0,22,7.0,48.0
10327,58.0,0,22,8.0,48.0
10328,46.0,20,9,12.0,80.0
10329,74.0,10,59,1.0,64.0
10330,58.0,0,9,10.0,48.0
10331,53.0,0,19,11.0,48.0
10332,62.0,0,19,2.0,48.0
10333,75.0,0,14,1.0,48.0
10334,63.0,0,14,2.0,48.0
10335,58.0,0,14,4.0,48.0
10336,65.0,10,14,4.0,48.0
10337,70.0,0,14,4.0,48.0
10338,46.0,10,9,12.0,80.0
10339,58.0,0,9,10.0,48.0
10340,62.0,5,7,8.0,48.0
10341,74.0,0,7,7.0,48.0
10342,50.0,0,19,11.0,48.0
10343,58.0,0,19,2.0,48.0
10344,44.0,0,9,12.0,80.0
10345,56.0,0,9,10.0,48.0
10346,70.0,0,14,4.0,48.0
10347,65.0,0,14,4.0,48.0
10348,68.0,0,14,4.0,48.0
10349,77.0,0,14,1.0,48.0
10350,65.0,15,14,2.0,48.0
10351,46.0,0,19,11.0,48.0
10352,56.0,0,19,2.0,48.0
10353,62.0,0,22,8.0,48.0
10354,74.0,0,22,7.0,48.0
10355,55.0,0,9,10.0,48.0
10356,43.0,20,9,12.0,80.0
10357,58.0,0,19,2.0,48.0
10358,50.0,0,19,11.0,48.0
10359,67.0,0,14,2.0,48.0
10360,79.0,0,14,1.0,48.0
10361,70.0,0,14,4.0,48.0
10362,65.0,0,14,4.0,48.0
10363,58.0,10,14,4.0,48.0
10364,53.0,0,9,10.0,48.0
10365,41.0,10,9,12.0,80.0
10366,65.0,0,7,8.0,48.0
10367,77.0,5,7,7.0,48.0
10368,53.0,0,19,11.0,48.0
10369,46.0,0,59,6.0,32.0
10370,62.0,0,19,2.0,48.0
10371,39.0,0,9,12.0,80.0
10372,51.0,0,9,10.0,48.0
10373,65.0,0,14,4.0,48.0
10374,68.0,0,14,4.0,48.0
10375,68.0,0,14,2.0,48.0
10376,80.0,0,14,1.0,48.0
10377,70.0,0,14,4.0,48.0
10378,65.0,0,19,2.0,48.0
10379,56.0,0,19,11.0,48.0
10380,65.0,15,22,8.0,48.0
10381,77.0,0,22,7.0,48.0
10382,50.0,20,9,10.0,48.0
10383,38.0,0,9,12.0,80.0
10384,53.0,0,19,11.0,48.0
10385,62.0,0,19,2.0,48.0
10386,58.0,0,14,4.0,48.0
10387,70.0,0,14,4.0,48.0
10388,70.0,0,14,2.0,48.0
10389,82.0,10,14,1.0,48.0
10390,65.0,0,14,4.0,48.0
10391,60.0,0,9,10.0,48.0
10392,36.0,0,9,12.0,80.0
10393,68.0,0,7,8.0,48.0
10394,80.0,5,7,7.0,48.0
10395,50.0,10,19,11.0,48.0
10396,46.0,0,59,6.0,32.0
10397,58.0,0,19,2.0,48.0
10398,71.0,0,14,2.0,48.0
10399,83.0,0,14,1.0,48.0
10400,56.0,0,19,2.0,48.0
10401,46.0,0,19,11.0,48.0
10402,50.0,20,19,11.0,48.0
10403,58.0,0,19,2.0,48.0
10404,53.0,0,14,3.0,48.0
10405,46.0,10,14,3.0,48.0
10406,34.0,0,59,12.0,80.0
10407,58.0,0,59,10.0,48.0
10408,80.0,0,59,7.0,48.0
10409,62.0,0,19,2.0,48.0
10410,53.0,10,19,11.0,48.0
10411,68.0,0,59,8.0,48.0
10412,53.0,0,14,3.0,48.0
10413,56.0,0,14,3.0,48.0
10414,56.0,20,19,11.0,48.0
10415,65.0,0,19,2.0,48.0
10416,72.0,0,59,2.0,64.0
10417,84.0,0,59,1.0,64.0
10418,53.0,20,19,11.0,48.0
10419,62.0,0,19,2.0,48.0
10420,70.0,0,14,2.0,48.0
10421,82.0,0,14,1.0,48.0
10422,46.0,10,14,3.0,48.0
10423,53.0,0,14,3.0,48.0
10424,58.0,10,19,2.0,48.0
10425,50.0,0,19,11.0,48.0
10426,82.0,20,14,1.0,48.0
10427,70.0,0,14,2.0,48.0
10428,56.0,0,14,3.0,48.0
10429,53.0,0,14,3.0,48.0
10430,56.0,0,19,2.0,48.0
10431,46.0,0,19,11.0,48.0
10432,58.0,0,19,2.0,48.0
10433,50.0,20,19,11.0,48.0
10434,53.0,10,14,3.0,48.0
10435,46.0,0,14,3.0,48.0
10436,53.0,0,19,11.0,48.0
10437,62.0,10,19,2.0,48.0
10438,53.0,20,14,3.0,48.0
10439,56.0,0,14,3.0,48.0
10440,65.0,0,19,2.0,48.0
10441,56.0,0,19,11.0,48.0
10442,68.0,0,59,2.0,64.0
10443,80.0,0,59,1.0,64.0
10444,53.0,0,19,11.0,48.0
10445,62.0,20,19,2.0,48.0
10446,67.0,10,14,2.0,48.0
10447,53.0,0,14,3.0,48.0
10448,46.0,0,14,3.0,48.0
10449,79.0,0,14,1.0,48.0
10450,58.0,0,19,2.0,48.0
10451,50.0,10,19,11.0,48.0
10452,79.0,0,14,1.0,48.0
10453,67.0,0,14,2.0,48.0
10454,56.0,0,19,2.0,48.0
10455,46.0,20,19,11.0,48.0
10456,46.0,0,269,4.0,48.0
10457,58.0,15,269,4.0,48.0
10458,56.0,0,9,10.0,48.0
10459,44.0,0,9,12.0,80.0
10460,58.0,0,19,2.0,48.0
10461,50.0,20,19,11.0,48.0
10462,58.0,0,14,4.0,48.0
10463,65.0,0,14,4.0,48.0
10464,70.0,0,14,4.0,48.0
10465,56.0,0,9,10.0,48.0
10466,44.0,10,9,12.0,80.0
10467,62.0,0,7,8.0,48.0
10468,74.0,5,7,7.0,48.0
10469,62.0,0,19,2.0,48.0
10470,53.0,0,19,11.0,48.0
10471,53.0,0,59,3.0,48.0
10472,56.0,0,59,3.0,48.0
10473,65.0,10,29,2.0,64.0
10474,44.0,0,9,12.0,80.0
10475,56.0,0,9,10.0,48.0
10476,65.0,0,14,4.0,48.0
10477,68.0,0,14,4.0,48.0
10478,70.0,0,14,4.0,48.0
10479,56.0,0,19,11.0,48.0
10480,62.0,0,22,8.0,48.0
10481,74.0,15,22,7.0,48.0
10482,77.0,0,59,1.0,64.0
10483,65.0,0,29,2.0,48.0
10484,44.0,0,9,12.0,80.0
10485,56.0,0,9,10.0,48.0
10486,62.0,0,19,2.0,48.0
10487,53.0,20,19,11.0,48.0
10488,76.0,0,14,1.0,48.0
10489,64.0,0,14,2.0,48.0
10490,65.0,0,14,4.0,48.0
10491,58.0,0,14,4.0,48.0
10492,70.0,10,14,4.0,48.0
10493,43.0,0,9,12.0,80.0
10494,55.0,10,9,10.0,48.0
10495,77.0,5,7,7.0,48.0
10496,65.0,0,7,8.0,48.0
10497,58.0,0,19,2.0,48.0
10498,50.0,0,19,11.0,48.0
10499,53.0,0,9,10.0,48.0
10500,41.0,0,9,12.0,80.0
10501,68.0,0,14,4.0,48.0
10502,77.0,15,14,1.0,48.0
10503,65.0,0,14,2.0,48.0
10504,70.0,0,14,4.0,48.0
10505,65.0,0,14,4.0,48.0
10506,56.0,0,19,2.0,48.0
10507,46.0,0,19,11.0,48.0
10508,65.0,0,22,8.0,48.0
10509,77.0,0,22,7.0,48.0
10510,62.0,0,9,10.0,48.0
10511,39.0,0,9,12.0,80.0
10512,58.0,0,19,2.0,48.0
10513,50.0,20,19,11.0,48.0
10514,70.0,0,14,4.0,48.0
10515,58.0,0,14,4.0,48.0
10516,66.0,0,14,2.0,48.0
10517,78.0,10,14,1.0,48.0
10518,65.0,0,14,4.0,48.0
10519,60.0,0,9,10.0,48.0
10520,38.0,10,9,12.0,80.0
10521,70.0,0,7,8.0,48.0
10522,82.0,5,7,7.0,48.0
10523,62.0,0,19,2.0,48.0
10524,53.0,0,19,11.0,48.0
10525,46.0,0,59,6.0,32.0
10526,36.0,0,9,12.0,80.0
10527,58.0,0,9,10.0,48.0
10528,70.0,0,14,4.0,48.0
10529,68.0,0,14,4.0,48.0
10530,65.0,0,14,4.0,48.0
10531,67.0,0,14,2.0,48.0
10532,79.0,0,14,1.0,48.0
10533,44.0,0,19,11.0,48.0
10534,65.0,15,19,2.0,48.0
10535,82.0,0,22,7.0,48.0
10536,70.0,0,22,8.0,48.0
10537,34.0,20,9,12.0,80.0
10538,56.0,0,9,10.0,48.0
10539,62.0,0,19,2.0,48.0
10540,50.0,0,19,11.0,48.0
10541,58.0,0,14,4.0,48.0
10542,80.0,10,14,1.0,48.0
10543,70.0,0,14,4.0,48.0
10544,68.0,0,14,2.0,48.0
10545,65.0,0,14,4.0,48.0
10546,32.0,0,9,12.0,80.0
10547,55.0,0,9,10.0,48.0
10548,74.0,0,7,8.0,48.0
10549,86.0,5,7,7.0,48.0
10550,46.0,0,59,6.0,32.0
10551,53.0,10,19,11.0,48.0
10552,58.0,0,19,2.0,48.0
10553,69.0,0,14,2.0,48.0
10554,81.0,0,14,1.0,48.0
10555,43.0,0,19,11.0,48.0
10556,55.0,0,19,2.0,48.0
10557,58.0,0,19,2.0,48.0
10558,46.0,20,19,11.0,48.0
10559,87.0,0,7,7.0,48.0
10560,75.0,5,7,8.0,48.0
10561,55.0,0,29,3.0,48.0
10562,63.0,10,19,2.0,49.0
10563,51.0,0,29,3.0,48.0
10564,31.0,15,59,12.0,80.0
10565,67.0,0,59,4.0,48.0
10566,70.0,0,59,4.0,48.0
10567,63.0,0,59,4.0,48.0
10568,53.0,0,59,10.0,48.0
10569,51.0,0,19,11.0,49.0
10570,67.0,0,19,2.0,50.0
10571,55.0,15,19,11.0,50.0
10572,87.0,0,22,7.0,48.0
10573,75.0,0,22,8.0,48.0
10574,82.0,0,59,1.0,49.0
10575,70.0,10,59,2.0,49.0
10576,58.0,0,29,3.0,48.0
10577,55.0,0,29,3.0,48.0
10578,51.0,0,19,11.0,50.0
10579,63.0,20,19,2.0,50.0
10580,70.0,0,14,2.0,51.0
10581,82.0,10,14,1.0,51.0
10582,70.0,5,7,8.0,48.0
10583,82.0,0,7,7.0,48.0
10584,51.0,0,29,3.0,48.0
10585,46.0,10,19,11.0,51.0
10586,58.0,0,19,2.0,51.0
10587,55.0,0,29,3.0,48.0
10588,74.0,0,14,0.0,52.0
10589,74.0,0,14,1.0,52.0
10590,43.0,15,19,11.0,52.0
10591,55.0,0,19,2.0,52.0
10592,82.0,0,22,7.0,48.0
10593,70.0,0,22,8.0,48.0
10594,67.0,20,9,10.0,49.0
10595,43.0,0,9,12.0,81.0
10596,58.0,0,19,2.0,52.0
10597,46.0,0,19,11.0,52.0
10598,39.0,10,9,12.0,81.0
10599,63.0,0,9,10.0,49.0
10600,79.0,5,7,7.0,48.0
10601,67.0,0,7,8.0,48.0
10602,63.0,10,29,4.0,48.0
10603,51.0,0,19,11.0,53.0
10604,51.0,0,29,4.0,48.0
10605,46.0,0,59,6.0,34.0
10606,67.0,0,29,4.0,48.0
10607,63.0,0,19,2.0,53.0
10608,34.0,0,9,12.0,82.0
10609,58.0,0,9,10.0,50.0
10610,55.0,0,19,11.0,54.0
10611,67.0,0,19,2.0,54.0
10612,67.0,15,22,8.0,48.0
10613,79.0,0,22,7.0,48.0
10614,75.0,0,59,0.0,53.0
10615,39.0,0,9,12.0,83.0
10616,75.0,0,59,1.0,53.0
10617,63.0,0,9,10.0,51.0
10618,70.0,0,29,4.0,48.0
10619,63.0,0,29,4.0,48.0
10620,67.0,0,29,4.0,48.0
10621,75.0,0,7,7.0,48.0
10622,63.0,20,19,2.0,54.0
10623,51.0,0,19,11.0,54.0
10624,75.0,0,14,1.0,55.0
10625,75.0,0,14,0.0,55.0
10626,55.0,0,9,10.0,52.0
10627,31.0,10,9,12.0,84.0
10628,63.0,5,7,8.0,48.0
10629,63.0,0,29,4.0,48.0
10630,51.0,0,29,4.0,48.0
10631,46.0,0,59,6.0,36.0
10632,46.0,0,19,11.0,55.0
10633,58.0,0,19,2.0,55.0
10634,67.0,10,29,4.0,48.0
10635,83.0,0,14,1.0,56.0
10636,71.0,0,14,2.0,56.0
10637,44.0,15,19,11.0,56.0
10638,56.0,0,19,2.0,56.0
10639,60.0,0,19,2.0,56.0
10640,48.0,20,19,11.0,56.0
10641,75.0,5,7,8.0,48.0
10642,87.0,0,7,7.0,48.0
10643,56.0,0,59,10.0,53.0
10644,32.0,0,59,12.0,85.0
10645,53.0,0,19,11.0,57.0
10646,53.0,0,29,3.0,53.0
10647,48.0,10,29,3.0,53.0
10648,65.0,10,19,2.0,57.0
10649,68.0,15,19,2.0,58.0
10650,56.0,0,19,11.0,58.0
10651,87.0,0,22,7.0,48.0
10652,75.0,0,22,8.0,48.0
10653,56.0,0,29,3.0,54.0
10654,84.0,0,59,1.0,57.0
10655,72.0,0,59,2.0,57.0
10656,53.0,0,29,3.0,54.0
10657,53.0,20,19,11.0,58.0
10658,65.0,0,19,2.0,58.0
10659,72.0,0,14,2.0,59.0
10660,84.0,0,14,1.0,59.0
10661,84.0,5,7,7.0,48.0
10662,72.0,0,7,8.0,48.0
10663,53.0,10,29,3.0,55.0
10664,48.0,0,29,3.0,55.0
10665,48.0,0,19,11.0,59.0
10666,60.0,10,19,2.0,59.0
10667,74.0,0,14,0.0,60.0
10668,74.0,0,14,1.0,60.0
10669,56.0,15,19,2.0,60.0
10670,44.0,0,19,11.0,60.0
10671,84.0,0,22,7.0,48.0
10672,72.0,0,22,8.0,48.0
10673,44.0,0,9,12.0,91.0
10674,68.0,0,9,10.0,59.0
10675,60.0,20,19,2.0,60.0
10676,48.0,0,19,11.0,60.0
10677,41.0,0,9,12.0,92.0
10678,65.0,0,9,10.0,60.0
10679,68.0,0,7,8.0,48.0
10680,80.0,5,7,7.0,48.0
10681,63.0,0,29,4.0,48.0
10682,65.0,0,29,4.0,48.0
10683,51.0,10,29,4.0,48.0
10684,65.0,0,19,2.0,61.0
10685,53.0,10,19,11.0,61.0
10686,46.0,0,59,6.0,40.0
10687,36.0,0,9,12.0,93.0
10688,60.0,0,9,10.0,61.0
10689,56.0,0,19,11.0,62.0
10690,68.0,0,19,2.0,62.0
10691,80.0,0,22,7.0,48.0
10692,68.0,15,22,8.0,48.0
10693,65.0,0,9,10.0,62.0
10694,68.0,0,29,4.0,48.0
10695,41.0,20,9,12.0,94.0
10696,65.0,0,29,4.0,48.0
10697,75.0,0,59,1.0,61.0
10698,75.0,0,59,0.0,61.0
10699,63.0,0,29,4.0,48.0
10700,53.0,0,19,11.0,62.0
10701,65.0,0,19,2.0,62.0
10702,75.0,0,14,0.0,63.0
10703,75.0,0,14,1.0,63.0
10704,56.0,10,9,10.0,63.0
10705,32.0,0,9,12.0,95.0
10706,65.0,0,7,8.0,48.0
10707,77.0,5,7,7.0,48.0
10708,51.0,10,29,4.0,48.0
10709,65.0,0,29,4.0,48.0
10710,63.0,0,29,4.0,48.0
10711,60.0,0,19,2.0,63.0
10712,48.0,0,19,11.0,63.0
10713,46.0,0,59,6.0,41.0
10714,81.0,0,14,1.0,48.0
10715,69.0,0,14,2.0,48.0
10716,46.0,0,19,11.0,48.0
10717,55.0,0,19,2.0,48.0
10718,58.0,0,19,2.0,50.0
10719,51.0,20,19,11.0,48.0
10720,87.0,5,7,7.0,48.0
10721,75.0,0,7,8.0,48.0
10722,63.0,10,19,2.0,53.0
10723,34.0,0,59,12.0,80.0
10724,58.0,0,59,10.0,48.0
10725,55.0,0,19,11.0,48.0
10726,58.0,15,19,11.0,48.0
10727,67.0,0,19,2.0,56.0
10728,87.0,0,22,7.0,48.0
10729,75.0,0,22,8.0,49.0
10730,82.0,10,59,1.0,52.0
10731,70.0,0,59,2.0,52.0
10732,63.0,20,19,2.0,58.0
10733,55.0,0,19,11.0,48.0
10734,82.0,0,14,1.0,60.0
10735,70.0,10,14,2.0,60.0
10736,82.0,5,7,7.0,48.0
10737,70.0,0,7,8.0,54.0
10738,46.0,0,59,6.0,44.0
10739,51.0,10,19,11.0,48.0
10740,58.0,0,19,2.0,61.0
10741,51.0,0,122,4.0,48.0
10742,67.0,0,122,4.0,48.0
10743,51.0,0,122,3.0,48.0
10744,55.0,0,122,3.0,48.0
10745,75.0,0,122,0.0,48.0
10746,67.0,0,122,0.0,48.0
10747,63.0,15,122,4.0,48.0
10748,75.0,0,122,1.0,48.0
10749,69.0,0,14,2.0,64.0
10750,81.0,0,14,1.0,64.0
10751,46.0,0,19,11.0,48.0
10752,56.0,0,19,2.0,64.0
10753,34.0,0,19,12.0,80.0
10754,58.0,0,19,10.0,48.0
10755,58.0,20,19,11.0,48.0
10756,58.0,0,19,2.0,62.0
10757,74.0,0,7,8.0,53.0
10758,86.0,5,7,7.0,48.0
10759,62.0,0,19,2.0,59.0
10760,46.0,10,19,11.0,48.0
10761,58.0,0,19,10.0,48.0
10762,34.0,0,19,12.0,80.0
10763,65.0,0,19,2.0,56.0
10764,46.0,15,19,11.0,48.0
10765,34.0,0,19,12.0,80.0
10766,58.0,0,19,10.0,48.0
10767,74.0,0,22,8.0,52.0
10768,86.0,0,22,7.0,48.0
10769,70.0,0,59,2.0,60.0
10770,82.0,10,59,1.0,61.0
10771,58.0,0,92,3.0,64.0
10772,74.0,0,92,1.0,64.0
10773,74.0,0,92,0.0,64.0
10774,50.0,0,92,3.0,64.0
10775,70.0,0,92,0.0,64.0
10776,34.0,0,19,12.0,80.0
10777,58.0,0,19,10.0,48.0
10778,62.0,0,19,2.0,54.0
10779,46.0,20,19,11.0,48.0
10780,70.0,0,14,2.0,52.0
10781,82.0,0,14,1.0,53.0
10782,70.0,0,106,4.0,63.0
10783,70.0,0,7,8.0,49.0
10784,82.0,5,7,7.0,48.0
10785,46.0,0,59,6.0,46.0
10786,56.0,0,29,3.0,52.0
10787,58.0,0,19,10.0,48.0
10788,68.0,0,29,0.0,52.0
10789,68.0,0,14,4.0,50.0
10790,65.0,15,119,4.0,63.0
10791,46.0,0,119,4.0,63.0
10792,77.0,10,29,0.0,52.0
10793,53.0,0,29,3.0,52.0
10794,46.0,0,19,11.0,48.0
10795,56.0,0,19,2.0,51.0
10796,34.0,10,19,12.0,80.0
10797,77.0,0,32,1.0,53.0
10798,87.0,0,9,7.0,48.0
10799,79.0,20,9,7.0,55.0
10800,82.0,20,9,7.0,63.0
10801,39.0,0,59,12.0,80.0
10802,75.0,0,59,0.0,48.0
10803,75.0,0,59,8.0,48.0
10804,51.0,0,59,3.0,48.0
10805,55.0,0,59,3.0,48.0
10806,63.0,0,59,10.0,48.0
10807,75.0,0,59,1.0,48.0
10808,46.0,0,59,6.0,48.0
10809,55.0,15,59,2.0,48.0
10810,63.0,0,59,4.0,48.0
10811,67.0,0,59,4.0,48.0
10812,63.0,0,59,2.0,48.0
10813,51.0,0,59,11.0,48.0
10814,67.0,0,59,0.0,48.0
10815,51.0,0,59,4.0,48.0
10816,75.0,0,9,7.0,71.0
10817,75.0,20,9,8.0,48.0
10818,79.0,20,9,8.0,58.0
10819,79.0,0,9,7.0,79.0
10820,70.0,20,9,8.0,69.0
10821,70.0,0,9,7.0,86.0
10822,75.0,0,9,8.0,79.0
10823,75.0,20,9,7.0,94.0
10824,67.0,0,9,7.0,102.0
10825,67.0,20,9,8.0,90.0
10826,70.0,20,9,8.0,101.0
10827,70.0,0,9,7.0,110.0
10828,63.0,0,9,7.0,127.0
10829,55.0,0,19,10.0,127.0
10830,58.0,0,19,8.0,127.0
10831,67.0,0,9,7.0,127.0
10832,58.0,20,19,8.0,127.0
10833,55.0,0,19,10.0,127.0
10834,58.0,0,9,7.0,127.0
10835,63.0,0,59,4.0,127.0
10836,51.0,20,59,11.0,127.0
10837,51.0,0,59,3.0,127.0
10838,58.0,20,19,8.0,127.0
10839,63.0,0,59,2.0,127.0
10840,39.0,0,59,12.0,127.0
10841,55.0,0,19,10.0,127.0
10842,63.0,0,19,8.0,127.0
10843,63.0,0,19,7.0,127.0
10844,58.0,0,19,10.0,127.0
10845,58.0,0,19,10.0,127.0
10846,63.0,20,19,8.0,127.0
10847,55.0,0,19,7.0,127.0
10848,58.0,0,19,7.0,127.0
10849,58.0,0,19,10.0,127.0
10850,63.0,20,19,8.0,127.0
10851,63.0,0,19,8.0,127.0
10852,58.0,0,19,10.0,127.0
10853,63.0,0,19,7.0,127.0
10854,70.0,0,29,0.0,127.0
10855,70.0,0,29,1.0,127.0
10856,58.0,0,29,4.0,127.0
10857,46.0,0,29,4.0,127.0
10858,58.0,0,29,5.0,127.0
10859,70.0,0,29,5.0,127.0
10860,82.0,0,29,1.0,127.0
10861,63.0,20,19,8.0,127.0
10862,67.0,0,19,7.0,127.0
10863,58.0,0,19,10.0,127.0
10864,70.0,0,19,7.0,127.0
10865,58.0,20,19,10.0,127.0
10866,63.0,0,19,8.0,127.0
10867,46.0,20,59,6.0,127.0
10868,75.0,0,19,7.0,127.0
10869,63.0,0,19,8.0,127.0
10870,58.0,0,19,10.0,127.0
10871,58.0,20,19,10.0,127.0
10872,63.0,0,19,8.0,127.0
10873,79.0,0,19,7.0,127.0
10874,43.0,20,179,12.0,127.0
10875,67.0,0,179,4.0,127.0
10876,82.0,0,19,7.0,127.0
10877,55.0,0,179,3.0,127.0
10878,46.0,0,59,6.0,127.0
10879,55.0,0,179,11.0,127.0
10880,63.0,0,19,8.0,127.0
10881,58.0,20,19,10.0,127.0
10882,67.0,0,179,2.0,127.0
10883,58.0,0,19,8.0,127.0
10884,82.0,0,19,7.0,127.0
10885,55.0,0,19,10.0,127.0
10886,82.0,0,19,7.0,127.0
10887,58.0,20,19,8.0,127.0
10888,55.0,0,19,10.0,127.0
10889,82.0,0,19,7.0,127.0
10890,39.0,0,59,12.0,127.0
10891,63.0,0,59,2.0,127.0
10892,55.0,20,19,10.0,127.0
10893,51.0,0,59,11.0,127.0
10894,58.0,0,19,8.0,127.0
10895,63.0,0,59,4.0,127.0
10896,51.0,20,59,3.0,127.0
10897,58.0,0,19,7.0,127.0
10898,58.0,0,19,8.0,127.0
10899,53.0,20,19,10.0,127.0
10900,62.0,20,19,7.0,127.0
10901,53.0,0,19,10.0,127.0
10902,58.0,0,19,8.0,127.0
10903,58.0,0,179,5.0,127.0
10904,82.0,0,179,1.0,127.0
10905,53.0,0,19,10.0,127.0
10906,70.0,0,179,5.0,127.0
10907,58.0,0,19,8.0,127.0
10908,46.0,0,179,4.0,127.0
10909,70.0,0,179,0.0,127.0
10910,58.0,0,179,4.0,127.0
10911,65.0,20,19,7.0,127.0
10912,70.0,20,179,1.0,127.0
10913,68.0,0,19,7.0,127.0
10914,58.0,0,19,8.0,127.0
10915,53.0,0,19,10.0,127.0
10916,70.0,20,29,5.0,127.0
10917,46.0,0,29,4.0,127.0
10918,70.0,0,29,1.0,127.0
10919,82.0,0,29,1.0,127.0
10920,58.0,0,29,5.0,127.0
10921,70.0,0,29,0.0,127.0
10922,58.0,0,29,4.0,127.0
10923,58.0,0,19,8.0,127.0
10924,53.0,20,19,10.0,127.0
10925,70.0,0,19,7.0,127.0
10926,58.0,20,19,8.0,127.0
10927,74.0,0,19,7.0,127.0
10928,46.0,0,59,6.0,127.0
10929,53.0,0,19,10.0,127.0
10930,53.0,0,19,10.0,127.0
10931,77.0,0,19,7.0,127.0
10932,58.0,0,19,8.0,127.0
10933,58.0,0,19,8.0,127.0
10934,53.0,20,19,10.0,127.0
10935,80.0,0,19,7.0,127.0
10936,50.0,0,179,3.0,127.0
10937,50.0,0,179,11.0,127.0
10938,46.0,20,59,6.0,127.0
10939,62.0,0,179,2.0,127.0
10940,62.0,0,179,4.0,127.0
10941,38.0,0,179,12.0,127.0
10942,53.0,0,19,10.0,127.0
10943,58.0,20,19,8.0,127.0
10944,82.0,0,19,7.0,127.0
10945,82.0,0,19,7.0,127.0
10946,56.0,0,19,10.0,127.0
10947,62.0,0,19,8.0,127.0
10948,56.0,20,19,10.0,127.0
10949,62.0,0,19,8.0,127.0
10950,82.0,0,19,7.0,127.0
10951,53.0,0,59,11.0,127.0
10952,82.0,0,19,7.0,127.0
10953,62.0,0,19,8.0,127.0
10954,65.0,0,59,2.0,127.0
10955,56.0,20,19,10.0,127.0
10956,41.0,20,59,12.0,127.0
10957,53.0,0,59,3.0,127.0
10958,65.0,0,59,4.0,127.0
10959,65.0,0,19,8.0,127.0
10960,58.0,0,19,10.0,127.0
10961,82.0,20,19,7.0,127.0
10962,74.0,0,19,7.0,127.0
10963,65.0,0,19,8.0,127.0
10964,58.0,20,19,10.0,127.0
10965,58.0,0,179,5.0,127.0
10966,58.0,0,179,4.0,127.0
10967,77.0,0,19,7.0,127.0
10968,82.0,0,179,1.0,127.0
10969,70.0,0,179,1.0,127.0
10970,70.0,0,179,0.0,127.0
10971,46.0,0,179,4.0,127.0
10972,70.0,0,179,5.0,127.0
10973,65.0,0,19,8.0,127.0
10974,58.0,20,19,10.0,127.0
10975,70.0,0,19,7.0,127.0
10976,65.0,0,19,8.0,127.0
10977,58.0,0,19,10.0,127.0
10978,58.0,0,29,5.0,127.0
10979,70.0,0,29,5.0,127.0
10980,70.0,0,29,0.0,127.0
10981,58.0,0,29,4.0,127.0
10982,46.0,0,29,4.0,127.0
10983,82.0,0,29,1.0,127.0
10984,70.0,0,29,1.0,127.0
10985,58.0,0,19,10.0,127.0
10986,65.0,20,19,8.0,127.0
10987,74.0,0,19,7.0,127.0
10988,58.0,0,19,10.0,127.0
10989,65.0,20,19,7.0,127.0
10990,46.0,20,59,6.0,127.0
10991,65.0,0,19,8.0,127.0
10992,65.0,0,19,8.0,127.0
10993,70.0,0,19,7.0,127.0
10994,58.0,0,19,10.0,127.0
10995,62.0,0,19,7.0,127.0
10996,58.0,0,19,10.0,127.0
10997,65.0,20,19,8.0,127.0
10998,56.0,0,179,11.0,127.0
10999,56.0,0,179,3.0,127.0
11000,68.0,0,179,2.0,127.0
11001,65.0,0,19,8.0,127.0
11002,44.0,0,179,12.0,127.0
11003,58.0,20,19,10.0,127.0
11004,68.0,0,179,4.0,127.0
11005,46.0,0,59,6.0,127.0
11006,65.0,0,19,7.0,127.0
11007,56.0,0,19,10.0,127.0
11008,62.0,0,19,8.0,127.0
11009,58.0,0,19,7.0,127.0
11010,62.0,20,19,8.0,127.0
11011,56.0,0,19,10.0,127.0
11012,58.0,0,19,7.0,127.0
11013,65.0,0,59,4.0,127.0
11014,53.0,20,59,3.0,127.0
11015,56.0,20,19,10.0,127.0
11016,65.0,0,59,2.0,127.0
11017,58.0,0,19,7.0,127.0
11018,62.0,0,19,8.0,127.0
11019,53.0,0,59,11.0,127.0
11020,41.0,0,59,12.0,127.0
11021,55.0,0,19,10.0,127.0
11022,58.0,0,19,7.0,127.0
11023,63.0,0,19,8.0,127.0
11024,55.0,0,19,10.0,127.0
11025,63.0,0,19,7.0,127.0
11026,58.0,20,19,8.0,127.0
11027,58.0,0,179,4.0,127.0
11028,70.0,0,179,0.0,127.0
11029,46.0,0,179,4.0,127.0
11030,82.0,0,179,1.0,127.0
11031,58.0,0,19,8.0,127.0
11032,70.0,20,179,1.0,127.0
11033,70.0,0,179,5.0,127.0
11034,58.0,0,179,5.0,127.0
11035,55.0,20,19,10.0,127.0
11036,67.0,0,19,7.0,127.0
11037,70.0,0,19,7.0,127.0
11038,58.0,0,19,8.0,127.0
11039,55.0,0,19,10.0,127.0
11040,82.0,0,29,1.0,127.0
11041,46.0,0,29,4.0,127.0
11042,70.0,20,29,5.0,127.0
11043,58.0,0,29,5.0,127.0
11044,70.0,0,29,1.0,127.0
11045,70.0,0,29,0.0,127.0
11046,58.0,0,29,4.0,127.0
11047,58.0,0,19,8.0,127.0
11048,55.0,0,19,10.0,127.0
11049,75.0,20,19,7.0,127.0
11050,79.0,20,19,7.0,127.0
11051,58.0,0,19,8.0,127.0
11052,46.0,0,59,6.0,127.0
11053,55.0,0,19,10.0,127.0
11054,82.0,20,19,7.0,127.0
11055,58.0,0,19,8.0,127.0
11056,55.0,0,19,10.0,127.0
11057,55.0,20,19,10.0,127.0
11058,82.0,0,19,7.0,127.0
11059,58.0,0,19,8.0,127.0
11060,51.0,0,179,3.0,127.0
11061,46.0,0,59,6.0,127.0
11062,55.0,0,19,10.0,127.0
11063,39.0,0,179,12.0,127.0
11064,51.0,0,179,11.0,127.0
11065,63.0,0,179,2.0,127.0
11066,82.0,0,19,7.0,127.0
11067,63.0,20,179,4.0,127.0
11068,58.0,20,19,8.0,127.0
11069,62.0,0,19,8.0,127.0
11070,82.0,0,19,7.0,127.0
11071,58.0,0,19,10.0,127.0
11072,58.0,0,19,10.0,127.0
11073,82.0,0,19,7.0,127.0
11074,62.0,20,19,8.0,127.0
11075,82.0,20,19,7.0,127.0
11076,67.0,0,59,2.0,127.0
11077,58.0,0,19,10.0,127.0
11078,43.0,20,59,12.0,127.0
11079,62.0,0,19,8.0,127.0
11080,67.0,0,59,4.0,127.0
11081,55.0,0,59,3.0,127.0
11082,55.0,0,59,11.0,127.0
11083,63.0,20,19,7.0,127.0
11084,67.0,0,19,8.0,127.0
11085,63.0,0,19,10.0,127.0
11086,46.0,0,149,4.0,127.0
11087,70.0,0,149,1.0,127.0
11088,82.0,0,149,1.0,127.0
11089,58.0,0,149,4.0,127.0
11090,70.0,0,149,0.0,127.0
11091,67.0,0,19,7.0,127.0
11092,67.0,20,19,8.0,127.0
11093,63.0,0,19,10.0,127.0
11094,70.0,10,29,0.0,127.0
11095,46.0,0,59,6.0,127.0
11096,58.0,0,59,3.0,127.0
11097,70.0,10,19,7.0,127.0
11098,75.0,0,29,0.0,127.0
11099,46.0,0,29,4.0,127.0
11100,58.0,0,179,5.0,127.0
11101,70.0,0,179,5.0,127.0
11102,79.0,0,29,1.0,127.0
11103,75.0,0,29,1.0,127.0
11104,63.0,0,19,10.0,127.0
11105,70.0,0,59,2.0,127.0
11106,58.0,0,59,11.0,127.0
11107,46.0,0,59,12.0,127.0
11108,67.0,0,19,8.0,127.0
11109,63.0,0,29,4.0,127.0
11110,70.0,0,59,4.0,127.0
11111,63.0,0,19,10.0,127.0
11112,75.0,0,19,7.0,127.0
11113,67.0,0,19,8.0,127.0
11114,75.0,0,29,1.0,127.0
11115,70.0,0,29,0.0,127.0
11116,75.0,20,29,0.0,127.0
11117,63.0,0,29,4.0,127.0
11118,46.0,0,29,4.0,127.0
11119,79.0,0,29,1.0,127.0
11120,79.0,0,19,7.0,127.0
11121,67.0,0,19,8.0,127.0
11122,63.0,20,19,10.0,127.0
11123,67.0,0,19,8.0,127.0
11124,46.0,0,29,4.0,127.0
11125,75.0,0,29,1.0,127.0
11126,67.0,0,59,5.0,127.0
11127,75.0,0,59,5.0,127.0
11128,79.0,10,29,1.0,127.0
11129,63.0,0,19,10.0,127.0
11130,82.0,10,19,7.0,127.0
11131,75.0,0,29,0.0,127.0
11132,70.0,0,29,0.0,127.0
11133,63.0,0,29,4.0,127.0
11134,62.0,0,19,7.0,127.0
11135,65.0,0,19,10.0,127.0
11136,68.0,20,19,8.0,127.0
11137,65.0,20,19,10.0,127.0
11138,65.0,0,19,7.0,127.0
11139,68.0,0,19,8.0,127.0
11140,46.0,0,59,6.0,127.0
11141,70.0,0,29,0.0,127.0
11142,58.0,0,59,11.0,127.0
11143,74.0,0,29,1.0,127.0
11144,74.0,0,29,0.0,127.0
11145,65.0,10,29,4.0,127.0
11146,80.0,0,29,1.0,127.0
11147,58.0,0,59,3.0,127.0
11148,65.0,0,19,10.0,127.0
11149,46.0,0,29,4.0,127.0
11150,70.0,0,59,4.0,127.0
11151,46.0,0,59,12.0,127.0
11152,70.0,0,19,7.0,127.0
11153,70.0,0,59,2.0,127.0
11154,68.0,10,19,8.0,127.0
11155,68.0,20,19,8.0,127.0
11156,74.0,0,19,7.0,127.0
11157,65.0,0,19,10.0,127.0
11158,74.0,0,29,0.0,127.0
11159,65.0,0,29,4.0,127.0
11160,74.0,0,29,1.0,127.0
11161,80.0,0,29,1.0,127.0
11162,46.0,0,29,4.0,127.0
11163,70.0,0,29,0.0,127.0
11164,68.0,20,19,8.0,127.0
11165,65.0,0,19,10.0,127.0
11166,77.0,0,19,7.0,127.0
11167,70.0,0,59,5.0,127.0
11168,77.0,0,59,5.0,127.0
11169,80.0,0,29,1.0,127.0
11170,65.0,0,19,10.0,127.0
11171,68.0,10,19,8.0,127.0
11172,74.0,10,29,1.0,127.0
11173,70.0,0,29,0.0,127.0
11174,74.0,0,29,0.0,127.0
11175,65.0,0,29,4.0,127.0
11176,46.0,0,29,4.0,127.0
11177,82.0,0,19,7.0,127.0
11178,63.0,0,19,7.0,127.0
11179,63.0,0,19,10.0,127.0
11180,67.0,0,19,8.0,127.0
11181,63.0,0,19,10.0,127.0
11182,67.0,0,19,8.0,127.0
11183,67.0,20,19,7.0,127.0
11184,70.0,0,19,7.0,127.0
11185,63.0,0,19,10.0,127.0
11186,67.0,10,19,8.0,127.0
11187,75.0,0,29,0.0,127.0
11188,79.0,0,29,1.0,127.0
11189,75.0,10,29,1.0,127.0
11190,67.0,0,59,5.0,127.0
11191,46.0,0,29,4.0,127.0
11192,63.0,0,29,4.0,127.0
11193,70.0,0,29,0.0,127.0
11194,75.0,0,59,5.0,127.0
11195,75.0,0,19,7.0,127.0
11196,67.0,0,19,8.0,127.0
11197,63.0,0,19,10.0,127.0
11198,63.0,0,29,4.0,127.0
11199,46.0,0,29,4.0,127.0
11200,79.0,0,29,1.0,127.0
11201,75.0,0,29,0.0,127.0
11202,75.0,20,29,1.0,127.0
11203,58.0,0,29,5.0,127.0
11204,70.0,0,29,5.0,127.0
11205,70.0,0,29,0.0,127.0
11206,67.0,20,19,8.0,127.0
11207,63.0,0,19,10.0,127.0
11208,79.0,0,19,7.0,127.0
11209,82.0,0,19,7.0,127.0
11210,46.0,0,119,6.0,127.0
11211,75.0,0,29,1.0,127.0
11212,79.0,0,29,1.0,127.0
11213,67.0,0,19,8.0,127.0
11214,46.0,0,29,4.0,127.0
11215,63.0,0,29,4.0,127.0
11216,58.0,0,29,5.0,127.0
11217,70.0,0,29,5.0,127.0
11218,63.0,10,19,10.0,127.0
11219,75.0,10,29,0.0,127.0
11220,70.0,0,29,0.0,127.0
11221,63.0,0,19,10.0,127.0
11222,67.0,0,19,8.0,127.0
11223,82.0,20,19,7.0,127.0
11224,46.0,0,29,4.0,127.0
11225,70.0,0,29,0.0,127.0
11226,75.0,0,29,1.0,127.0
11227,79.0,0,29,1.0,127.0
11228,75.0,0,29,0.0,127.0
11229,70.0,0,29,5.0,127.0
11230,58.0,0,29,5.0,127.0
11231,63.0,0,29,4.0,127.0
11232,67.0,0,19,8.0,127.0
11233,82.0,0,19,7.0,127.0
11234,63.0,20,19,10.0,127.0
11235,58.0,0,29,5.0,127.0
11236,70.0,0,179,4.0,127.0
11237,58.0,10,29,4.0,127.0
11238,46.0,0,29,4.0,127.0
11239,67.0,10,19,8.0,127.0
11240,63.0,0,19,10.0,127.0
11241,70.0,0,29,5.0,127.0
11242,70.0,0,179,2.0,127.0
11243,75.0,0,29,1.0,127.0
11244,82.0,0,19,7.0,127.0
11245,46.0,20,179,12.0,127.0
11246,58.0,0,179,11.0,127.0
11247,58.0,0,179,3.0,127.0
11248,70.0,0,29,0.0,127.0
11249,75.0,0,29,0.0,127.0
11250,64.0,0,19,8.0,127.0
11251,58.0,0,19,10.0,127.0
11252,82.0,0,19,7.0,127.0
11253,46.0,0,29,4.0,127.0
11254,58.0,0,29,5.0,127.0
11255,70.0,0,29,5.0,127.0
11256,76.0,0,29,0.0,127.0
11257,70.0,0,29,0.0,127.0
11258,58.0,0,29,4.0,127.0
11259,76.0,0,29,1.0,127.0
11260,64.0,20,19,8.0,127.0
11261,82.0,0,19,7.0,127.0
11262,58.0,0,19,10.0,127.0
11263,58.0,0,19,10.0,127.0
11264,70.0,0,29,0.0,127.0
11265,58.0,0,29,4.0,127.0
11266,46.0,10,29,4.0,127.0
11267,76.0,0,29,0.0,127.0
11268,67.0,20,59,4.0,127.0
11269,46.0,0,59,6.0,127.0
11270,55.0,0,59,3.0,127.0
11271,76.0,0,29,1.0,127.0
11272,64.0,0,19,8.0,127.0
11273,82.0,10,19,7.0,127.0
11274,70.0,0,29,5.0,127.0
11275,58.0,0,29,5.0,127.0
11276,43.0,0,59,12.0,127.0
11277,67.0,0,59,2.0,127.0
11278,55.0,0,59,11.0,127.0
11279,46.0,0,14,6.0,127.0
11280,65.0,0,19,8.0,127.0
11281,82.0,0,19,7.0,127.0
11282,58.0,0,19,10.0,127.0
11283,58.0,0,29,4.0,127.0
11284,77.0,0,29,1.0,127.0
11285,58.0,0,29,5.0,127.0
11286,46.0,0,29,4.0,127.0
11287,70.0,0,29,5.0,127.0
11288,46.0,15,14,6.0,127.0
11289,77.0,0,29,0.0,127.0
11290,70.0,0,29,0.0,127.0
11291,70.0,0,32,2.0,127.0
11292,58.0,20,32,11.0,127.0
11293,58.0,0,32,3.0,127.0
11294,70.0,0,32,4.0,127.0
11295,46.0,0,32,12.0,127.0
11296,65.0,0,19,8.0,127.0
11297,58.0,0,19,10.0,127.0
11298,70.0,0,19,8.0,127.0
11299,82.0,5,19,7.0,127.0
11300,46.0,0,14,6.0,127.0
11301,44.0,0,29,12.0,127.0
11302,58.0,10,19,10.0,127.0
11303,70.0,0,19,8.0,127.0
11304,58.0,0,29,4.0,127.0
11305,46.0,0,29,4.0,127.0
11306,70.0,0,29,5.0,127.0
11307,65.0,0,19,8.0,127.0
11308,77.0,0,29,0.0,127.0
11309,70.0,0,29,0.0,127.0
11310,82.0,0,19,7.0,127.0
11311,56.0,10,29,11.0,127.0
11312,68.0,0,29,2.0,127.0
11313,68.0,0,29,4.0,127.0
11314,58.0,0,29,5.0,127.0
11315,56.0,0,29,3.0,127.0
11316,77.0,0,29,1.0,127.0
11317,46.0,5,14,6.0,127.0
11318,46.0,0,14,6.0,127.0
11319,70.0,0,19,8.0,127.0
11320,62.0,0,19,8.0,127.0
11321,58.0,0,19,10.0,127.0
11322,82.0,15,19,7.0,127.0
11323,65.0,0,29,2.0,127.0
11324,53.0,0,29,11.0,127.0
11325,65.0,0,29,4.0,127.0
11326,46.0,0,29,4.0,127.0
11327,58.0,0,29,4.0,127.0
11328,74.0,0,29,1.0,127.0
11329,53.0,0,29,3.0,127.0
11330,41.0,0,29,12.0,127.0
11331,46.0,15,14,6.0,127.0
11332,70.0,0,29,0.0,127.0
11333,74.0,0,29,0.0,127.0
11334,58.0,0,29,5.0,127.0
11335,70.0,0,29,5.0,127.0
11336,82.0,5,19,7.0,127.0
11337,70.0,0,19,8.0,127.0
11338,62.0,0,19,8.0,127.0
11339,58.0,0,19,10.0,127.0
11340,46.0,0,14,6.0,127.0
11341,46.0,5,14,6.0,127.0
11342,74.0,10,29,1.0,127.0
11343,70.0,0,29,5.0,127.0
11344,70.0,0,19,8.0,127.0
11345,58.0,0,19,10.0,127.0
11346,70.0,0,29,0.0,127.0
11347,74.0,0,29,0.0,127.0
11348,58.0,0,29,5.0,127.0
11349,62.0,10,19,8.0,127.0
11350,82.0,0,19,7.0,127.0
11351,58.0,0,29,4.0,127.0
11352,46.0,0,29,4.0,127.0
11353,46.0,0,14,6.0,127.0
11354,70.0,15,19,8.0,127.0
11355,63.0,0,19,8.0,127.0
11356,82.0,0,19,7.0,127.0
11357,58.0,0,19,10.0,127.0
11358,70.0,0,29,5.0,127.0
11359,58.0,0,29,5.0,127.0
11360,75.0,0,29,1.0,127.0
11361,70.0,0,29,0.0,127.0
11362,75.0,0,29,0.0,127.0
11363,46.0,0,29,4.0,127.0
11364,46.0,15,14,6.0,127.0
11365,58.0,0,29,4.0,127.0
11366,68.0,0,32,2.0,127.0
11367,56.0,0,32,3.0,127.0
11368,56.0,0,32,11.0,127.0
11369,44.0,0,32,12.0,127.0
11370,68.0,0,32,4.0,127.0
11371,58.0,5,19,10.0,127.0
11372,63.0,0,19,8.0,127.0
11373,82.0,0,19,7.0,127.0
11374,70.0,0,19,8.0,127.0
11375,46.0,0,14,6.0,127.0
11376,82.0,0,19,7.0,127.0
11377,43.0,0,29,12.0,127.0
11378,58.0,0,29,5.0,127.0
11379,70.0,0,29,5.0,127.0
11380,67.0,0,29,2.0,127.0
11381,75.0,0,29,1.0,127.0
11382,67.0,10,29,4.0,127.0
11383,55.0,0,29,3.0,127.0
11384,63.0,0,19,8.0,127.0
11385,58.0,0,29,4.0,127.0
11386,46.0,0,29,4.0,127.0
11387,58.0,10,19,10.0,127.0
11388,70.0,0,19,8.0,127.0
11389,75.0,0,29,0.0,127.0
11390,70.0,0,29,0.0,127.0
11391,46.0,5,14,6.0,127.0
11392,55.0,0,29,11.0,127.0
11393,46.0,0,14,6.0,127.0
11394,82.0,0,19,7.0,127.0
11395,66.0,0,19,8.0,127.0
11396,58.0,0,19,10.0,127.0
11397,46.0,0,29,4.0,127.0
11398,46.0,15,14,6.0,127.0
11399,58.0,0,29,4.0,127.0
11400,63.0,15,29,4.0,127.0
11401,58.0,0,29,5.0,127.0
11402,69.0,0,29,0.0,127.0
11403,70.0,0,29,5.0,127.0
11404,39.0,0,29,12.0,127.0
11405,78.0,0,29,1.0,127.0
11406,63.0,0,29,2.0,127.0
11407,51.0,0,29,11.0,127.0
11408,69.0,0,29,1.0,127.0
11409,51.0,0,29,3.0,127.0
11410,82.0,5,19,7.0,127.0
11411,66.0,0,19,8.0,127.0
11412,58.0,0,19,10.0,127.0
11413,46.0,0,14,6.0,127.0
11414,58.0,10,19,10.0,127.0
11415,66.0,0,19,8.0,127.0
11416,46.0,5,14,6.0,127.0
11417,82.0,0,19,7.0,127.0
11418,58.0,0,29,5.0,127.0
11419,70.0,0,29,5.0,127.0
11420,78.0,0,29,1.0,127.0
11421,69.0,10,29,1.0,127.0
11422,58.0,0,29,4.0,127.0
11423,46.0,0,29,4.0,127.0
11424,69.0,0,29,0.0,127.0
11425,70.0,0,19,8.0,127.0
11426,63.0,0,19,8.0,127.0
11427,58.0,0,19,10.0,127.0
11428,82.0,0,19,7.0,127.0
11429,58.0,0,29,4.0,127.0
11430,46.0,0,29,4.0,127.0
11431,70.0,0,29,0.0,127.0
11432,70.0,0,29,1.0,127.0
11433,75.0,0,29,1.0,127.0
11434,82.0,0,19,7.0,127.0
11435,70.0,0,19,8.0,127.0
11436,63.0,20,19,8.0,127.0
11437,58.0,0,19,10.0,127.0
11438,70.0,0,29,0.0,127.0
11439,75.0,0,29,0.0,127.0
11440,75.0,0,29,1.0,127.0
11441,82.0,0,29,1.0,127.0
11442,46.0,10,29,4.0,127.0
11443,58.0,0,29,4.0,127.0
11444,82.0,0,19,7.0,127.0
11445,46.0,0,59,6.0,127.0
11446,58.0,10,19,10.0,127.0
11447,70.0,0,19,8.0,127.0
11448,63.0,0,19,8.0,127.0
11449,58.0,0,19,10.0,127.0
11450,82.0,20,19,7.0,127.0
11451,70.0,0,19,8.0,127.0
11452,63.0,0,19,8.0,127.0
11453,46.0,0,29,4.0,127.0
11454,75.0,0,29,0.0,127.0
11455,75.0,0,29,1.0,127.0
11456,82.0,0,29,1.0,127.0
11457,58.0,0,29,4.0,127.0
11458,70.0,0,29,0.0,127.0
11459,63.0,0,19,8.0,127.0
11460,58.0,0,19,10.0,127.0
11461,82.0,20,19,7.0,127.0
11462,70.0,0,19,8.0,127.0
11463,75.0,10,29,0.0,127.0
11464,58.0,15,119,5.0,127.0
11465,46.0,0,59,6.0,127.0
11466,70.0,0,29,0.0,127.0
11467,82.0,0,29,1.0,127.0
11468,70.0,0,119,5.0,127.0
11469,63.0,0,19,8.0,127.0
11470,75.0,0,29,1.0,127.0
11471,46.0,0,29,4.0,127.0
11472,58.0,0,29,4.0,127.0
11473,82.0,10,19,7.0,127.0
11474,70.0,0,19,8.0,127.0
11475,58.0,0,19,10.0,127.0
11476,67.0,0,122,2.0,127.0
11477,43.0,0,122,12.0,127.0
11478,55.0,0,122,11.0,127.0
11479,67.0,0,122,4.0,127.0
11480,55.0,0,122,3.0,127.0
11481,82.0,0,19,7.0,127.0
11482,58.0,20,19,10.0,127.0
11483,62.0,0,19,8.0,127.0
11484,70.0,0,19,8.0,127.0
11485,62.0,0,19,8.0,127.0
11486,70.0,20,19,8.0,127.0
11487,82.0,0,19,7.0,127.0
11488,58.0,0,19,10.0,127.0
11489,74.0,0,59,1.0,127.0
11490,53.0,0,59,11.0,127.0
11491,46.0,0,59,6.0,127.0
11492,62.0,0,19,8.0,127.0
11493,70.0,0,19,8.0,127.0
11494,65.0,0,59,4.0,127.0
11495,46.0,0,59,4.0,127.0
11496,58.0,0,59,4.0,127.0
11497,58.0,0,59,5.0,127.0
11498,70.0,0,59,5.0,127.0
11499,82.0,0,59,1.0,127.0
11500,53.0,0,59,3.0,127.0
11501,65.0,0,59,2.0,127.0
11502,74.0,0,59,0.0,127.0
11503,70.0,0,59,0.0,127.0
11504,82.0,20,19,7.0,127.0
11505,58.0,0,19,10.0,127.0
11506,41.0,0,59,12.0,127.0
11507,46.0,0,9,11.0,127.0
11508,46.0,20,9,3.0,127.0
11509,34.0,0,9,12.0,127.0
11510,70.0,0,19,8.0,127.0
11511,58.0,0,19,10.0,127.0
11512,82.0,0,19,7.0,127.0
11513,62.0,0,19,8.0,127.0
11514,46.0,20,9,11.0,127.0
11515,46.0,0,9,3.0,127.0
11516,34.0,0,9,12.0,127.0
11517,58.0,0,32,2.0,127.0
11518,58.0,0,32,4.0,127.0
11519,82.0,0,19,7.0,127.0
11520,62.0,0,19,8.0,127.0
11521,70.0,0,19,8.0,127.0
11522,58.0,0,19,10.0,127.0
11523,45.0,0,9,3.0,127.0
11524,33.0,0,9,12.0,127.0
11525,45.0,0,9,11.0,127.0
11526,57.0,10,29,2.0,127.0
11527,62.0,0,19,8.0,127.0
11528,82.0,0,19,7.0,127.0
11529,70.0,10,19,8.0,127.0
11530,57.0,0,29,4.0,127.0
11531,58.0,0,19,10.0,127.0
11532,34.0,0,9,12.0,127.0
11533,46.0,0,9,3.0,127.0
11534,46.0,0,9,11.0,127.0
11535,58.0,0,14,2.0,127.0
11536,58.0,20,14,4.0,127.0
11537,70.0,0,19,8.0,127.0
11538,82.0,0,19,7.0,127.0
11539,58.0,0,19,10.0,127.0
11540,46.0,0,9,3.0,127.0
11541,46.0,20,9,11.0,127.0
11542,34.0,0,9,12.0,127.0
11543,58.0,0,19,10.0,127.0
11544,70.0,0,19,8.0,127.0
11545,82.0,0,19,7.0,127.0
11546,60.0,0,14,2.0,127.0
11547,60.0,10,14,4.0,127.0
11548,45.0,0,9,3.0,127.0
11549,45.0,0,9,11.0,127.0
11550,33.0,10,9,12.0,127.0
11551,46.0,0,59,6.0,127.0
11552,58.0,0,19,10.0,127.0
11553,70.0,0,19,8.0,127.0
11554,82.0,0,19,7.0,127.0
11555,46.0,0,9,3.0,127.0
11556,34.0,0,9,12.0,127.0
11557,46.0,0,9,11.0,127.0
11558,62.0,0,14,2.0,127.0
11559,62.0,0,14,4.0,127.0
11560,58.0,0,19,10.0,127.0
11561,70.0,0,19,8.0,127.0
11562,82.0,20,19,7.0,127.0
11563,46.0,0,9,11.0,127.0
11564,70.0,0,29,0.0,127.0
11565,46.0,20,9,3.0,127.0
11566,34.0,0,9,12.0,127.0
11567,70.0,0,29,1.0,127.0
11568,82.0,0,29,1.0,127.0
11569,58.0,0,29,5.0,127.0
11570,70.0,0,29,5.0,127.0
11571,58.0,0,32,4.0,127.0
11572,46.0,0,32,4.0,127.0
11573,82.0,0,19,7.0,127.0
11574,70.0,0,19,8.0,127.0
11575,58.0,0,19,10.0,127.0
11576,63.0,10,14,4.0,127.0
11577,63.0,0,14,2.0,127.0
11578,48.0,0,9,3.0,127.0
11579,48.0,10,9,11.0,127.0
11580,36.0,0,9,12.0,127.0
11581,70.0,0,19,8.0,127.0
11582,58.0,0,19,10.0,127.0
11583,82.0,0,19,7.0,127.0
11584,38.0,0,9,12.0,127.0
11585,50.0,0,9,3.0,127.0
11586,50.0,20,9,11.0,127.0
11587,65.0,0,14,4.0,127.0
11588,65.0,0,14,2.0,127.0
11589,82.0,0,19,7.0,127.0
11590,70.0,0,19,8.0,127.0
11591,58.0,0,19,10.0,127.0
11592,50.0,0,9,3.0,127.0
11593,38.0,0,9,12.0,127.0
11594,50.0,0,9,11.0,127.0
11595,70.0,20,19,8.0,127.0
11596,58.0,0,19,10.0,127.0
11597,82.0,0,19,7.0,127.0
11598,67.0,0,14,2.0,127.0
11599,67.0,10,14,4.0,127.0
11600,51.0,0,9,11.0,127.0
11601,39.0,0,9,12.0,127.0
11602,51.0,10,9,3.0,127.0
11603,82.0,0,19,7.0,127.0
11604,58.0,0,19,10.0,127.0
11605,70.0,0,19,8.0,127.0
11606,53.0,0,9,3.0,127.0
11607,53.0,0,9,11.0,127.0
11608,41.0,0,9,12.0,127.0
11609,68.0,0,14,4.0,127.0
11610,68.0,20,14,2.0,127.0
11611,58.0,0,19,10.0,127.0
11612,82.0,0,19,7.0,127.0
11613,70.0,0,19,8.0,127.0
11614,41.0,0,9,12.0,127.0
11615,53.0,0,9,11.0,127.0
11616,53.0,0,9,3.0,127.0
11617,82.0,0,19,7.0,127.0
11618,58.0,20,19,10.0,127.0
11619,70.0,0,19,8.0,127.0
11620,67.0,10,14,4.0,127.0
11621,67.0,0,14,2.0,127.0
11622,43.0,0,9,12.0,127.0
11623,55.0,0,9,3.0,127.0
11624,55.0,0,9,11.0,127.0
11625,70.0,10,19,8.0,127.0
11626,58.0,0,19,10.0,127.0
11627,82.0,0,19,7.0,127.0
11628,82.0,0,19,7.0,127.0
11629,65.0,0,19,10.0,127.0
11630,77.0,0,19,8.0,127.0
11631,56.0,0,29,3.0,127.0
11632,68.0,0,29,2.0,127.0
11633,56.0,0,29,11.0,127.0
11634,68.0,0,29,4.0,127.0
11635,44.0,20,29,12.0,127.0
11636,65.0,0,19,10.0,127.0
11637,77.0,20,19,7.0,127.0
11638,77.0,0,19,8.0,127.0
11639,70.0,0,179,0.0,127.0
11640,46.0,0,59,6.0,127.0
11641,79.0,20,19,8.0,127.0
11642,58.0,0,179,4.0,127.0
11643,46.0,0,179,4.0,127.0
11644,70.0,0,179,5.0,127.0
11645,82.0,0,179,1.0,127.0
11646,74.0,0,19,7.0,127.0
11647,67.0,0,19,10.0,127.0
11648,58.0,0,179,5.0,127.0
11649,70.0,0,179,1.0,127.0
11650,80.0,0,19,8.0,127.0
11651,68.0,0,19,10.0,127.0
11652,70.0,0,19,7.0,127.0
11653,70.0,0,29,5.0,127.0
11654,70.0,0,29,0.0,127.0
11655,58.0,0,29,5.0,127.0
11656,77.0,0,29,0.0,127.0
11657,56.0,0,29,11.0,127.0
11658,56.0,0,29,3.0,127.0
11659,44.0,20,29,12.0,127.0
11660,68.0,0,29,4.0,127.0
11661,82.0,0,29,1.0,127.0
11662,46.0,0,29,4.0,127.0
11663,58.0,0,29,4.0,127.0
11664,68.0,0,29,2.0,127.0
11665,70.0,0,29,1.0,127.0
11666,65.0,0,19,7.0,127.0
11667,80.0,0,19,8.0,127.0
11668,68.0,20,19,10.0,127.0
11669,79.0,0,19,8.0,127.0
11670,46.0,0,59,6.0,127.0
11671,67.0,20,19,10.0,127.0
11672,62.0,0,19,7.0,127.0
11673,77.0,0,19,8.0,127.0
11674,65.0,0,19,10.0,127.0
11675,58.0,0,19,7.0,127.0
11676,56.0,0,29,11.0,127.0
11677,44.0,0,29,12.0,127.0
11678,68.0,0,29,4.0,127.0
11679,68.0,0,29,2.0,127.0
11680,56.0,0,29,3.0,127.0
11681,62.0,0,19,7.0,127.0
11682,65.0,20,19,10.0,127.0
11683,77.0,0,19,8.0,127.0
11684,65.0,0,19,7.0,127.0
11685,75.0,20,19,8.0,127.0
11686,58.0,0,59,4.0,127.0
11687,63.0,0,19,10.0,127.0
11688,46.0,0,59,6.0,127.0
11689,46.0,0,9,3.0,127.0
11690,34.0,0,9,12.0,127.0
11691,46.0,0,9,11.0,127.0
11692,74.0,0,19,8.0,127.0
11693,70.0,0,19,7.0,127.0
11694,62.0,20,19,10.0,127.0
11695,34.0,0,9,12.0,127.0
11696,46.0,0,9,11.0,127.0
11697,46.0,20,9,3.0,127.0
11698,58.0,0,32,2.0,127.0
11699,74.0,0,19,7.0,127.0
11700,74.0,0,19,8.0,127.0
11701,62.0,0,19,10.0,127.0
11702,33.0,0,9,12.0,127.0
11703,45.0,0,9,11.0,127.0
11704,45.0,0,9,3.0,127.0
11705,57.0,0,29,2.0,127.0
11706,72.0,10,19,8.0,127.0
11707,57.0,10,29,4.0,127.0
11708,58.0,0,59,4.0,127.0
11709,77.0,0,19,7.0,127.0
11710,60.0,0,19,10.0,127.0
11711,34.0,0,9,12.0,127.0
11712,46.0,0,9,3.0,127.0
11713,46.0,0,9,11.0,127.0
11714,58.0,0,14,2.0,127.0
11715,58.0,20,19,10.0,127.0
11716,70.0,0,19,8.0,127.0
11717,82.0,0,19,7.0,127.0
11718,46.0,0,9,3.0,127.0
11719,46.0,0,9,11.0,127.0
11720,34.0,0,9,12.0,127.0
11721,58.0,0,19,10.0,127.0
11722,82.0,20,19,7.0,127.0
11723,70.0,0,19,8.0,127.0
11724,60.0,0,14,4.0,127.0
11725,60.0,10,14,2.0,127.0
11726,48.0,0,9,11.0,127.0
11727,48.0,10,9,3.0,127.0
11728,36.0,0,9,12.0,127.0
11729,82.0,0,19,7.0,127.0
11730,58.0,0,19,10.0,127.0
11731,58.0,0,59,4.0,127.0
11732,46.0,0,179,4.0,127.0
11733,70.0,0,179,5.0,127.0
11734,58.0,20,179,5.0,127.0
11735,77.0,0,179,0.0,127.0
11736,70.0,0,179,0.0,127.0
11737,82.0,0,179,1.0,127.0
11738,70.0,0,19,8.0,127.0
11739,70.0,0,179,1.0,127.0
11740,46.0,0,59,6.0,127.0
11741,50.0,0,9,11.0,127.0
11742,50.0,0,9,3.0,127.0
11743,38.0,0,9,12.0,127.0
11744,62.0,0,14,2.0,127.0
11745,62.0,0,14,4.0,127.0
11746,70.0,20,19,8.0,127.0
11747,82.0,0,19,7.0,127.0
11748,58.0,0,19,10.0,127.0
11749,50.0,20,9,3.0,127.0
11750,38.0,0,9,12.0,127.0
11751,50.0,0,9,11.0,127.0
11752,58.0,0,19,10.0,127.0
11753,82.0,0,19,7.0,127.0
11754,70.0,0,19,8.0,127.0
11755,63.0,10,14,2.0,127.0
11756,63.0,0,14,4.0,127.0
11757,39.0,0,9,12.0,127.0
11758,51.0,10,9,3.0,127.0
11759,51.0,0,9,11.0,127.0
11760,82.0,0,19,7.0,127.0
11761,70.0,0,59,0.0,127.0
11762,77.0,0,59,0.0,127.0
11763,70.0,0,19,8.0,127.0
11764,58.0,0,19,10.0,127.0
11765,70.0,0,59,1.0,127.0
11766,82.0,0,59,1.0,127.0
11767,46.0,0,59,4.0,127.0
11768,70.0,0,59,5.0,127.0
11769,58.0,0,59,5.0,127.0
11770,58.0,0,59,4.0,127.0
11771,53.0,0,9,11.0,127.0
11772,53.0,0,9,3.0,127.0
11773,41.0,0,9,12.0,127.0
11774,65.0,0,14,4.0,127.0
11775,65.0,0,14,2.0,127.0
11776,58.0,0,19,10.0,127.0
11777,82.0,0,19,7.0,127.0
11778,70.0,0,19,8.0,127.0
11779,41.0,20,9,12.0,127.0
11780,53.0,0,9,11.0,127.0
11781,53.0,0,9,3.0,127.0
11782,82.0,0,19,7.0,127.0
11783,58.0,0,19,10.0,127.0
11784,70.0,0,19,8.0,127.0
11785,67.0,10,14,4.0,127.0
11786,67.0,0,14,2.0,127.0
11787,43.0,0,9,12.0,127.0
11788,55.0,10,9,3.0,127.0
11789,55.0,0,9,11.0,127.0
11790,77.0,0,59,0.0,127.0
11791,82.0,0,19,7.0,127.0
11792,70.0,0,19,8.0,127.0
11793,58.0,0,19,10.0,127.0
11794,70.0,0,59,1.0,127.0
11795,70.0,0,59,5.0,127.0
11796,58.0,0,59,5.0,127.0
11797,82.0,0,59,1.0,127.0
11798,46.0,0,59,4.0,127.0
11799,58.0,20,59,4.0,127.0
11800,70.0,0,59,0.0,127.0
11801,56.0,0,9,11.0,127.0
11802,44.0,0,9,12.0,127.0
11803,56.0,0,9,3.0,127.0
11804,68.0,0,14,2.0,127.0
11805,68.0,0,14,4.0,127.0
11806,70.0,0,19,8.0,127.0
11807,58.0,0,19,10.0,127.0
11808,82.0,0,19,7.0,127.0
11809,56.0,0,9,11.0,127.0
11810,44.0,0,9,12.0,127.0
11811,56.0,0,9,3.0,127.0
11812,58.0,20,19,10.0,127.0
11813,70.0,0,19,8.0,127.0
11814,82.0,0,19,7.0,127.0
11815,67.0,0,14,4.0,127.0
11816,67.0,10,14,2.0,127.0
11817,55.0,0,9,11.0,127.0
11818,55.0,0,9,3.0,127.0
11819,43.0,0,9,12.0,127.0
11820,70.0,0,19,8.0,127.0
11821,58.0,0,59,4.0,127.0
11822,46.0,0,59,4.0,127.0
11823,58.0,0,19,10.0,127.0
11824,82.0,0,59,1.0,127.0
11825,70.0,20,59,1.0,127.0
11826,58.0,0,59,5.0,127.0
11827,70.0,0,59,5.0,127.0
11828,70.0,0,59,0.0,127.0
11829,77.0,0,59,0.0,127.0
11830,82.0,10,19,7.0,127.0
11831,82.0,0,19,7.0,127.0
11832,58.0,0,19,10.0,127.0
11833,70.0,0,19,8.0,127.0
11834,65.0,0,19,10.0,127.0
11835,82.0,0,19,7.0,127.0
11836,77.0,20,19,8.0,127.0
11837,82.0,0,19,7.0,127.0
11838,77.0,0,19,8.0,127.0
11839,70.0,0,59,1.0,127.0
11840,82.0,0,59,1.0,127.0
11841,70.0,20,59,5.0,127.0
11842,70.0,0,59,0.0,127.0
11843,46.0,0,59,4.0,127.0
11844,58.0,0,59,4.0,127.0
11845,46.0,0,59,6.0,127.0
11846,58.0,0,59,5.0,127.0
11847,65.0,20,19,10.0,127.0
11848,70.0,0,19,8.0,127.0
11849,58.0,0,19,10.0,127.0
11850,82.0,20,19,7.0,127.0
11851,65.0,0,19,10.0,127.0
11852,82.0,0,19,7.0,127.0
11853,77.0,20,19,8.0,127.0
11854,65.0,20,19,10.0,127.0
11855,70.0,0,59,1.0,127.0
11856,77.0,0,19,8.0,127.0
11857,58.0,0,59,5.0,127.0
11858,70.0,0,59,5.0,127.0
11859,82.0,0,19,7.0,127.0
11860,82.0,0,59,1.0,127.0
11861,46.0,0,59,4.0,127.0
11862,58.0,0,59,4.0,127.0
11863,70.0,0,59,0.0,127.0
11864,46.0,0,59,6.0,127.0
11865,82.0,0,19,7.0,127.0
11866,58.0,0,19,10.0,127.0
11867,70.0,0,19,8.0,127.0
11868,77.0,0,19,8.0,127.0
11869,65.0,20,19,10.0,127.0
11870,82.0,0,19,7.0,127.0
11871,46.0,20,59,6.0,127.0
11872,77.0,20,19,8.0,127.0
11873,82.0,0,19,7.0,127.0
11874,65.0,0,19,10.0,127.0
11875,68.0,0,182,4.0,127.0
11876,56.0,0,182,3.0,127.0
11877,68.0,0,182,2.0,127.0
11878,56.0,0,182,11.0,127.0
11879,44.0,0,182,12.0,127.0
11880,77.0,0,182,0.0,127.0
11881,66.0,0,19,10.0,127.0
11882,82.0,0,19,7.0,127.0
11883,78.0,20,19,8.0,127.0
11884,66.0,0,19,10.0,127.0
11885,82.0,0,19,7.0,127.0
11886,78.0,20,19,8.0,127.0
11887,45.0,0,59,12.0,127.0
11888,66.0,0,19,10.0,127.0
11889,57.0,0,59,3.0,127.0
11890,57.0,0,59,11.0,127.0
11891,82.0,20,19,7.0,127.0
11892,69.0,0,59,2.0,127.0
11893,69.0,0,59,4.0,127.0
11894,78.0,0,19,8.0,127.0
11895,78.0,0,59,0.0,127.0
11896,67.0,0,19,10.0,127.0
11897,79.0,0,19,8.0,127.0
11898,82.0,0,19,7.0,127.0
11899,63.0,20,19,10.0,127.0
11900,63.0,0,19,7.0,127.0
11901,79.0,0,19,8.0,127.0
11902,67.0,0,19,7.0,127.0
11903,79.0,0,59,0.0,127.0
11904,70.0,0,179,0.0,127.0
11905,70.0,0,179,1.0,127.0
11906,63.0,0,19,10.0,127.0
11907,70.0,0,179,5.0,127.0
11908,79.0,20,19,8.0,127.0
11909,58.0,0,179,5.0,127.0
11910,46.0,0,179,4.0,127.0
11911,51.0,0,59,6.0,127.0
11912,82.0,0,179,1.0,127.0
11913,58.0,0,179,4.0,127.0
11914,70.0,0,19,7.0,127.0
11915,79.0,0,19,8.0,127.0
11916,63.0,0,19,10.0,127.0
11917,63.0,0,19,10.0,127.0
11918,79.0,20,19,8.0,127.0
11919,75.0,0,19,7.0,127.0
11920,79.0,0,19,7.0,127.0
11921,63.0,20,19,10.0,127.0
11922,63.0,0,59,4.0,127.0
11923,51.0,0,59,4.0,127.0
11924,79.0,0,59,1.0,127.0
11925,75.0,0,59,1.0,127.0
11926,51.0,0,59,6.0,127.0
11927,70.0,20,59,0.0,127.0
11928,63.0,0,59,5.0,127.0
11929,79.0,0,19,8.0,127.0
11930,75.0,0,59,5.0,127.0
11931,75.0,0,59,0.0,127.0
11932,63.0,0,19,10.0,127.0
11933,79.0,20,19,8.0,127.0
11934,82.0,0,19,7.0,127.0
11935,87.0,0,19,7.0,127.0
11936,79.0,20,19,8.0,127.0
11937,63.0,0,19,10.0,127.0
11938,51.0,0,59,6.0,127.0
11939,63.0,20,19,10.0,127.0
11940,79.0,0,19,8.0,127.0
11941,87.0,0,19,7.0,127.0
11942,70.0,0,179,2.0,127.0
11943,58.0,20,182,3.0,127.0
11944,70.0,0,182,4.0,127.0
11945,46.0,0,182,12.0,127.0
11946,58.0,0,182,11.0,127.0
11947,58.0,0,19,10.0,127.0
11948,75.0,0,19,8.0,127.0
11949,87.0,0,19,7.0,127.0
11950,75.0,20,19,8.0,127.0
11951,87.0,0,19,7.0,127.0
11952,58.0,0,19,10.0,127.0
11953,58.0,20,19,10.0,127.0
11954,55.0,0,59,3.0,127.0
11955,43.0,0,59,12.0,127.0
11956,75.0,0,19,8.0,127.0
11957,67.0,20,59,4.0,127.0
11958,55.0,0,59,11.0,127.0
11959,87.0,0,19,7.0,127.0
11960,67.0,0,59,2.0,127.0
11961,79.0,0,122,1.0,127.0
11962,70.0,0,122,0.0,127.0
11963,75.0,0,19,8.0,127.0
11964,56.0,0,19,10.0,127.0
11965,87.0,0,19,7.0,127.0
11966,63.0,0,19,7.0,127.0
11967,56.0,0,19,10.0,127.0
11968,75.0,20,19,8.0,127.0
11969,80.0,0,59,1.0,127.0
11970,75.0,0,179,1.0,127.0
11971,68.0,0,19,7.0,127.0
11972,75.0,20,19,8.0,127.0
11973,56.0,0,19,10.0,127.0
11974,72.0,0,59,0.0,127.0
11975,75.0,0,179,5.0,127.0
11976,51.0,0,179,4.0,127.0
11977,63.0,0,179,4.0,127.0
11978,75.0,0,179,0.0,127.0
11979,63.0,0,179,5.0,127.0
11980,56.0,0,19,10.0,127.0
11981,75.0,0,19,8.0,127.0
11982,72.0,0,19,7.0,127.0
11983,75.0,0,19,7.0,127.0
11984,56.0,0,19,10.0,127.0
11985,75.0,20,19,8.0,127.0
11986,68.0,0,59,0.0,127.0
11987,51.0,0,59,6.0,127.0
11988,51.0,0,59,4.0,127.0
11989,63.0,0,59,4.0,127.0
11990,75.0,20,19,8.0,127.0
11991,56.0,0,19,10.0,127.0
11992,75.0,0,59,0.0,127.0
11993,63.0,0,59,5.0,127.0
11994,75.0,20,59,5.0,127.0
11995,80.0,0,19,7.0,127.0
11996,75.0,0,59,1.0,127.0
11997,80.0,0,59,1.0,127.0
11998,75.0,0,19,8.0,127.0
11999,56.0,0,19,10.0,127.0
12000,84.0,0,19,7.0,127.0
12001,87.0,20,19,7.0,127.0
12002,80.0,0,19,8.0,127.0
12003,60.0,0,19,10.0,127.0
12004,51.0,0,59,6.0,127.0
12005,65.0,0,179,2.0,127.0
12006,80.0,0,19,8.0,127.0
12007,87.0,0,19,7.0,127.0
12008,60.0,20,19,10.0,127.0
12009,53.0,0,182,11.0,127.0
12010,41.0,0,182,12.0,127.0
12011,53.0,20,182,3.0,127.0
12012,80.0,0,62,1.0,127.0
12013,65.0,0,182,4.0,127.0
12014,56.0,0,19,10.0,127.0
12015,77.0,0,19,8.0,127.0
12016,87.0,0,19,7.0,127.0
12017,87.0,0,19,7.0,127.0
12018,56.0,0,19,10.0,127.0
12019,77.0,20,19,8.0,127.0
12020,48.0,0,59,12.0,127.0
12021,72.0,0,59,2.0,127.0
12022,56.0,0,19,10.0,127.0
12023,77.0,0,19,8.0,127.0
12024,63.0,0,119,4.0,127.0
12025,87.0,20,19,7.0,127.0
12026,60.0,0,59,3.0,127.0
12027,72.0,20,59,4.0,127.0
12028,60.0,0,59,11.0,127.0
12029,77.0,0,62,1.0,127.0
12030,68.0,0,122,0.0,127.0
12031,87.0,0,19,7.0,127.0
12032,55.0,0,19,10.0,127.0
12033,79.0,20,19,8.0,127.0
12034,75.0,0,149,1.0,127.0
12035,79.0,0,29,1.0,127.0
12036,75.0,0,149,5.0,127.0
12037,63.0,0,149,5.0,127.0
12038,70.0,0,29,0.0,127.0
12039,75.0,20,149,0.0,127.0
12040,51.0,0,149,4.0,127.0
12041,58.0,0,19,10.0,127.0
12042,67.0,0,19,8.0,127.0
12043,63.0,0,19,10.0,127.0
12044,82.0,0,19,7.0,127.0
12045,70.0,20,19,8.0,127.0
12046,63.0,0,19,10.0,127.0
12047,79.0,0,29,1.0,127.0
12048,75.0,0,29,1.0,127.0
12049,58.0,0,19,10.0,127.0
12050,75.0,0,29,0.0,127.0
12051,46.0,0,29,4.0,127.0
12052,58.0,10,29,5.0,127.0
12053,70.0,0,29,5.0,127.0
12054,82.0,0,19,7.0,127.0
12055,58.0,0,29,4.0,127.0
12056,70.0,0,19,8.0,127.0
12057,67.0,10,19,8.0,127.0
12058,51.0,0,59,6.0,127.0
12059,70.0,0,29,0.0,127.0
12060,70.0,0,19,8.0,127.0
12061,63.0,0,19,10.0,127.0
12062,58.0,20,19,10.0,127.0
12063,67.0,0,19,8.0,127.0
12064,82.0,0,19,7.0,127.0
12065,46.0,0,29,4.0,127.0
12066,75.0,0,29,0.0,127.0
12067,70.0,0,29,0.0,127.0
12068,79.0,0,29,1.0,127.0
12069,75.0,0,29,1.0,127.0
12070,58.0,0,29,4.0,127.0
12071,58.0,0,29,5.0,127.0
12072,70.0,0,29,5.0,127.0
12073,67.0,0,19,8.0,127.0
12074,82.0,0,19,7.0,127.0
12075,70.0,20,19,8.0,127.0
12076,63.0,0,19,10.0,127.0
12077,58.0,0,19,10.0,127.0
12078,58.0,10,29,4.0,127.0
12079,75.0,0,29,0.0,127.0
12080,70.0,0,29,0.0,127.0
12081,46.0,0,29,4.0,127.0
12082,67.0,0,19,8.0,127.0
12083,82.0,0,19,7.0,127.0
12084,79.0,0,29,1.0,127.0
12085,70.0,10,19,8.0,127.0
12086,58.0,0,29,5.0,127.0
12087,75.0,0,29,1.0,127.0
12088,63.0,0,19,10.0,127.0
12089,58.0,0,19,10.0,127.0
12090,70.0,0,29,5.0,127.0
12091,63.0,0,122,2.0,127.0
12092,51.0,0,122,11.0,127.0
12093,63.0,0,122,4.0,127.0
12094,51.0,0,122,3.0,127.0
12095,39.0,0,122,12.0,127.0
12096,62.0,0,19,10.0,127.0
12097,70.0,0,19,8.0,127.0
12098,58.0,0,19,10.0,127.0
12099,82.0,0,19,7.0,127.0
12100,68.0,0,19,8.0,127.0
12101,70.0,0,19,8.0,127.0
12102,58.0,0,19,10.0,127.0
12103,82.0,0,19,7.0,127.0
12104,68.0,0,19,8.0,127.0
12105,62.0,20,19,10.0,127.0
12106,82.0,0,19,7.0,127.0
12107,58.0,10,19,10.0,127.0
12108,62.0,0,19,10.0,127.0
12109,58.0,0,29,4.0,127.0
12110,46.0,0,29,4.0,127.0
12111,58.0,0,29,5.0,127.0
12112,74.0,0,29,0.0,127.0
12113,70.0,0,19,8.0,127.0
12114,80.0,0,29,1.0,127.0
12115,70.0,0,29,5.0,127.0
12116,46.0,0,59,6.0,127.0
12117,70.0,0,29,0.0,127.0
12118,68.0,0,19,8.0,127.0
12119,74.0,10,29,1.0,127.0
12120,68.0,0,19,8.0,127.0
12121,70.0,20,19,8.0,127.0
12122,58.0,0,19,10.0,127.0
12123,62.0,0,19,10.0,127.0
12124,82.0,0,19,7.0,127.0
12125,58.0,0,29,5.0,127.0
12126,46.0,0,29,4.0,127.0
12127,80.0,0,29,1.0,127.0
12128,74.0,0,29,1.0,127.0
12129,74.0,0,29,0.0,127.0
12130,70.0,0,29,0.0,127.0
12131,70.0,0,29,5.0,127.0
12132,58.0,0,29,4.0,127.0
12133,55.0,0,92,3.0,127.0
12134,43.0,20,92,12.0,127.0
12135,67.0,0,92,2.0,127.0
12136,55.0,0,92,11.0,127.0
12137,67.0,0,92,4.0,127.0
12138,58.0,0,19,10.0,127.0
12139,62.0,20,19,10.0,127.0
12140,68.0,0,19,8.0,127.0
12141,70.0,0,19,8.0,127.0
12142,82.0,0,19,7.0,127.0
12143,70.0,0,19,8.0,127.0
12144,68.0,0,19,8.0,127.0
12145,70.0,0,29,0.0,127.0
12146,74.0,0,29,0.0,127.0
12147,53.0,0,29,3.0,127.0
12148,70.0,0,29,5.0,127.0
12149,58.0,0,19,10.0,127.0
12150,62.0,10,19,10.0,127.0
12151,82.0,0,19,7.0,127.0
12152,53.0,0,29,11.0,127.0
12153,41.0,0,29,12.0,127.0
12154,58.0,0,29,4.0,127.0
12155,46.0,10,29,4.0,127.0
12156,65.0,0,29,4.0,127.0
12157,58.0,0,29,5.0,127.0
12158,74.0,0,29,1.0,127.0
12159,65.0,0,29,2.0,127.0
12160,80.0,0,29,1.0,127.0
12161,55.0,0,19,2.0,127.0
12162,63.0,0,39,2.0,127.0
12163,58.0,20,19,2.0,48.0
12164,79.0,0,59,1.0,127.0
12165,70.0,20,59,0.0,127.0
12166,75.0,0,59,0.0,127.0
12167,67.0,0,59,5.0,127.0
12168,39.0,0,59,12.0,127.0
12169,58.0,0,59,10.0,127.0
12170,63.0,20,19,2.0,48.0
12171,51.0,0,59,3.0,127.0
12172,51.0,0,59,6.0,127.0
12173,82.0,0,59,7.0,127.0
12174,70.0,0,59,8.0,127.0
12175,58.0,0,59,4.0,127.0
12176,51.0,0,59,4.0,127.0
12177,63.0,0,59,5.0,127.0
12178,51.0,0,59,11.0,127.0
12179,63.0,0,59,10.0,127.0
12180,63.0,0,59,4.0,127.0
12181,75.0,0,59,1.0,127.0
12182,67.0,0,59,8.0,127.0
12183,67.0,0,19,2.0,48.0
12184,63.0,20,19,2.0,48.0
12185,87.0,20,59,7.0,48.0
12186,67.0,0,59,8.0,48.0
12187,51.0,0,59,10.0,48.0
12188,58.0,20,19,2.0,48.0
12189,55.0,20,19,2.0,48.0
12190,58.0,20,19,2.0,48.0
12191,63.0,20,19,2.0,48.0
12192,67.0,0,59,2.0,48.0
12193,63.0,20,19,2.0,48.0
12194,55.0,0,59,10.0,48.0
12195,58.0,20,19,2.0,48.0
12196,58.0,0,119,3.0,48.0
12197,70.0,0,59,8.0,48.0
12198,82.0,20,59,7.0,48.0
12199,67.0,0,62,2.0,48.0
12200,70.0,0,122,1.0,48.0
12201,55.0,0,122,3.0,48.0
12202,55.0,0,19,2.0,48.0
12203,58.0,20,19,2.0,48.0
12204,63.0,20,19,2.0,48.0
12205,51.0,0,59,11.0,48.0
12206,39.0,0,59,12.0,48.0
12207,67.0,15,19,2.0,48.0
12208,63.0,20,19,2.0,48.0
12209,58.0,20,19,2.0,48.0
12210,79.0,0,59,7.0,48.0
12211,63.0,0,119,3.0,48.0
12212,58.0,0,59,10.0,48.0
12213,75.0,0,59,8.0,48.0
12214,70.0,0,122,2.0,48.0
12215,58.0,20,122,3.0,48.0
12216,75.0,0,122,1.0,48.0
12217,55.0,0,19,2.0,48.0
12218,58.0,20,19,2.0,48.0
12219,63.0,20,19,2.0,48.0
12220,58.0,0,134,4.0,48.0
12221,70.0,5,134,4.0,48.0
12222,67.0,0,19,2.0,48.0
12223,55.0,0,29,4.0,48.0
12224,67.0,0,29,4.0,48.0
12225,63.0,20,19,2.0,48.0
12226,63.0,20,59,10.0,48.0
12227,51.0,0,29,4.0,48.0
12228,67.0,0,119,3.0,48.0
12229,58.0,10,19,2.0,48.0
12230,79.0,20,119,1.0,48.0
12231,63.0,10,29,4.0,48.0
12232,75.0,0,59,7.0,48.0
12233,79.0,0,59,8.0,48.0
12234,75.0,0,122,2.0,48.0
12235,63.0,0,122,3.0,48.0
12236,56.0,0,19,2.0,48.0
12237,80.0,0,22,8.0,48.0
12238,62.0,20,19,2.0,48.0
12239,82.0,0,19,8.0,48.0
12240,84.0,20,9,8.0,49.0
12241,65.0,0,19,2.0,49.0
12242,74.0,0,59,7.0,48.0
12243,65.0,0,59,10.0,48.0
12244,34.0,0,59,12.0,48.0
12245,46.0,0,59,11.0,48.0
12246,82.0,20,9,8.0,50.0
12247,68.0,0,19,2.0,50.0
12248,80.0,0,9,8.0,50.0
12249,65.0,20,19,2.0,50.0
12250,79.0,20,9,8.0,51.0
12251,62.0,0,19,2.0,51.0
12252,41.0,0,9,12.0,48.0
12253,77.0,0,9,7.0,48.0
12254,65.0,0,9,10.0,48.0
12255,77.0,20,9,8.0,52.0
12256,53.0,0,9,11.0,48.0
12257,79.0,0,9,8.0,52.0
12258,67.0,20,9,10.0,48.0
12259,79.0,0,9,7.0,48.0
12260,43.0,0,9,12.0,48.0
12261,55.0,0,9,11.0,48.0
12262,68.0,20,9,10.0,49.0
12263,80.0,0,9,8.0,53.0
12264,56.0,0,9,11.0,49.0
12265,80.0,0,9,7.0,49.0
12266,44.0,0,9,12.0,49.0
12267,56.0,0,59,2.0,52.0
12268,43.0,0,9,12.0,50.0
12269,79.0,0,9,8.0,54.0
12270,67.0,20,9,10.0,50.0
12271,79.0,0,9,7.0,50.0
12272,55.0,0,9,11.0,50.0
12273,77.0,0,9,8.0,54.0
12274,53.0,0,9,11.0,51.0
12275,65.0,0,9,10.0,51.0
12276,77.0,0,9,7.0,51.0
12277,41.0,20,9,12.0,51.0
12278,75.0,0,9,7.0,52.0
12279,63.0,0,9,10.0,52.0
12280,51.0,20,9,11.0,52.0
12281,75.0,0,9,8.0,55.0
12282,39.0,0,9,12.0,52.0
12283,58.0,0,239,4.0,48.0
12284,46.0,0,242,4.0,48.0
12285,38.0,20,9,12.0,53.0
12286,62.0,0,9,10.0,53.0
12287,74.0,0,9,7.0,53.0
12288,50.0,0,9,11.0,53.0
12289,74.0,0,9,8.0,56.0
12290,74.0,0,139,0.0,48.0
12291,75.0,0,9,8.0,56.0
12292,51.0,0,9,11.0,54.0
12293,39.0,0,9,12.0,54.0
12294,63.0,0,9,10.0,54.0
12295,75.0,0,9,7.0,54.0
12296,75.0,20,9,0.0,54.0
12297,77.0,20,9,8.0,57.0
12298,53.0,0,9,11.0,55.0
12299,41.0,0,9,12.0,55.0
12300,77.0,0,9,0.0,55.0
12301,65.0,0,9,10.0,55.0
12302,77.0,0,9,7.0,55.0
12303,65.0,0,299,3.0,48.0
12304,58.0,0,299,3.0,48.0
12305,75.0,0,9,7.0,56.0
12306,75.0,0,9,8.0,58.0
12307,51.0,0,9,11.0,56.0
12308,75.0,0,9,0.0,56.0
12309,63.0,20,9,10.0,56.0
12310,39.0,0,9,12.0,56.0
12311,74.0,0,9,0.0,56.0
12312,38.0,0,9,12.0,56.0
12313,74.0,0,9,7.0,56.0
12314,62.0,0,9,10.0,56.0
12315,74.0,20,9,8.0,58.0
12316,50.0,0,9,11.0,56.0
12317,36.0,0,9,12.0,57.0
12318,72.0,0,9,7.0,57.0
12319,72.0,0,9,8.0,59.0
12320,48.0,0,9,11.0,57.0
12321,60.0,20,9,10.0,57.0
12322,72.0,0,9,0.0,57.0
12323,46.0,0,59,3.0,58.0
12324,58.0,0,59,3.0,58.0
12325,70.0,0,9,7.0,58.0
12326,70.0,0,9,8.0,60.0
12327,70.0,0,9,0.0,58.0
12328,58.0,0,9,10.0,58.0
12329,46.0,20,9,11.0,58.0
12330,34.0,0,9,12.0,58.0
12331,60.0,0,9,10.0,59.0
12332,72.0,0,9,8.0,60.0
12333,36.0,0,9,12.0,59.0
12334,48.0,0,9,11.0,59.0
12335,72.0,0,9,7.0,59.0
12336,72.0,20,9,0.0,59.0
12337,34.0,20,9,12.0,60.0
12338,70.0,0,9,7.0,60.0
12339,70.0,0,9,0.0,60.0
12340,58.0,0,9,10.0,60.0
12341,46.0,0,9,11.0,60.0
12342,70.0,0,9,8.0,61.0
12343,58.0,0,59,3.0,60.0
12344,46.0,0,59,3.0,60.0
12345,68.0,0,9,8.0,62.0
12346,68.0,0,9,7.0,61.0
12347,68.0,0,9,0.0,61.0
12348,56.0,0,9,10.0,61.0
12349,32.0,20,9,12.0,61.0
12350,44.0,0,9,11.0,61.0
12351,67.0,0,9,7.0,62.0
12352,55.0,0,9,10.0,62.0
12353,31.0,0,9,12.0,62.0
12354,43.0,0,9,11.0,62.0
12355,67.0,0,9,0.0,62.0
12356,67.0,20,9,8.0,62.0
12357,65.0,0,9,8.0,63.0
12358,65.0,0,9,0.0,63.0
12359,65.0,0,9,7.0,63.0
12360,53.0,20,9,10.0,63.0
12361,41.0,0,9,11.0,63.0
12362,29.0,0,9,12.0,63.0
12363,80.0,20,479,1.0,48.0
12364,65.0,0,239,4.0,56.0
12365,58.0,0,239,4.0,56.0
12366,46.0,0,59,3.0,62.0
12367,58.0,0,59,3.0,62.0
12368,74.0,0,479,2.0,48.0
12369,55.0,0,19,2.0,48.0
12370,79.0,0,29,1.0,48.0
12371,63.0,0,29,3.0,48.0
12372,75.0,0,29,2.0,48.0
12373,51.0,0,29,3.0,48.0
12374,58.0,20,19,2.0,48.0
12375,63.0,0,9,2.0,48.0
12376,55.0,10,29,3.0,48.0
12377,63.0,0,59,7.0,48.0
12378,63.0,20,59,8.0,48.0
12379,67.0,0,29,1.0,48.0
12380,63.0,0,59,0.0,48.0
12381,51.0,0,59,10.0,48.0
12382,51.0,0,29,3.0,48.0
12383,63.0,10,19,2.0,48.0
12384,63.0,0,19,2.0,48.0
12385,67.0,20,19,2.0,48.0
12386,63.0,20,9,2.0,48.0
12387,67.0,0,29,1.0,48.0
12388,55.0,0,29,3.0,48.0
12389,51.0,0,29,3.0,48.0
12390,63.0,0,29,2.0,48.0
12391,58.0,10,19,2.0,48.0
12392,55.0,0,29,3.0,48.0
12393,51.0,0,29,3.0,48.0
12394,51.0,0,59,10.0,48.0
12395,39.0,0,119,11.0,48.0
12396,27.0,0,119,12.0,48.0
12397,63.0,0,119,4.0,48.0
12398,67.0,0,59,8.0,48.0
12399,87.0,0,59,7.0,48.0
12400,67.0,10,29,1.0,48.0
12401,55.0,0,122,4.0,48.0
12402,55.0,0,19,2.0,48.0
12403,55.0,0,29,3.0,48.0
12404,63.0,0,32,2.0,48.0
12405,67.0,20,32,1.0,48.0
12406,51.0,0,32,3.0,48.0
12407,58.0,20,19,2.0,48.0
12408,70.0,10,29,1.0,48.0
12409,55.0,0,29,3.0,48.0
12410,67.0,0,29,2.0,48.0
12411,63.0,10,19,2.0,48.0
12412,58.0,0,29,3.0,48.0
12413,70.0,0,14,1.0,48.0
12414,55.0,0,14,3.0,48.0
12415,58.0,0,14,3.0,48.0
12416,67.0,20,19,2.0,48.0
12417,63.0,20,19,2.0,48.0
12418,67.0,10,14,2.0,48.0
12419,58.0,0,14,3.0,48.0
12420,55.0,0,14,3.0,48.0
12421,70.0,0,14,1.0,48.0
12422,70.0,0,59,8.0,48.0
12423,82.0,0,59,7.0,48.0
12424,58.0,10,19,2.0,48.0
12425,55.0,0,59,10.0,48.0
12426,55.0,0,19,2.0,48.0
12427,58.0,0,29,3.0,48.0
12428,55.0,0,32,3.0,48.0
12429,70.0,0,32,1.0,48.0
12430,67.0,0,32,2.0,48.0
12431,58.0,0,19,2.0,48.0
12432,70.0,20,19,4.0,48.0
12433,58.0,0,19,4.0,48.0
12434,70.0,0,29,2.0,48.0
12435,39.0,0,59,12.0,48.0
12436,75.0,0,29,1.0,48.0
12437,51.0,20,59,11.0,48.0
12438,63.0,10,29,3.0,48.0
12439,58.0,10,19,4.0,48.0
12440,70.0,0,19,4.0,48.0
12441,58.0,0,29,3.0,48.0
12442,63.0,0,19,2.0,48.0
12443,58.0,0,14,3.0,48.0
12444,63.0,0,14,3.0,48.0
12445,75.0,0,14,1.0,48.0
12446,70.0,0,14,2.0,48.0
12447,67.0,0,19,2.0,48.0
12448,70.0,0,19,4.0,48.0
12449,58.0,20,19,4.0,48.0
12450,63.0,0,19,2.0,48.0
12451,58.0,20,19,4.0,48.0
12452,70.0,0,19,4.0,48.0
12453,75.0,10,14,1.0,48.0
12454,63.0,0,14,3.0,48.0
12455,70.0,0,14,2.0,48.0
12456,58.0,0,14,3.0,48.0
12457,75.0,0,59,8.0,48.0
12458,79.0,0,59,7.0,48.0
12459,70.0,0,19,4.0,48.0
12460,58.0,0,19,4.0,48.0
12461,58.0,0,59,10.0,48.0
12462,58.0,10,19,2.0,48.0
12463,55.0,20,19,2.0,48.0
12464,70.0,0,22,4.0,48.0
12465,58.0,0,22,4.0,48.0
12466,63.0,0,29,3.0,48.0
12467,70.0,0,32,2.0,48.0
12468,58.0,0,32,3.0,48.0
12469,75.0,0,32,1.0,48.0
12470,58.0,20,19,2.0,48.0
12471,67.0,0,19,4.0,48.0
12472,55.0,0,19,4.0,48.0
12473,67.0,0,9,4.0,48.0
12474,55.0,10,9,4.0,48.0
12475,63.0,0,19,2.0,48.0
12476,75.0,10,29,2.0,48.0
12477,51.0,0,59,11.0,48.0
12478,63.0,0,29,3.0,48.0
12479,39.0,0,59,12.0,48.0
12480,79.0,0,29,1.0,48.0
12481,67.0,0,29,3.0,48.0
12482,63.0,0,14,3.0,48.0
12483,67.0,20,14,3.0,48.0
12484,79.0,0,14,1.0,48.0
12485,75.0,0,14,2.0,48.0
12486,67.0,0,19,2.0,48.0
12487,67.0,0,22,4.0,48.0
12488,55.0,0,22,4.0,48.0
12489,51.0,0,19,4.0,48.0
12490,63.0,20,19,4.0,48.0
12491,63.0,0,19,2.0,48.0
12492,67.0,0,14,3.0,48.0
12493,75.0,10,14,2.0,48.0
12494,79.0,0,14,1.0,48.0
12495,63.0,0,14,3.0,48.0
12496,51.0,0,9,4.0,48.0
12497,63.0,10,9,4.0,48.0
12498,75.0,0,59,7.0,48.0
12499,63.0,0,59,10.0,48.0
12500,58.0,0,19,2.0,48.0
12501,79.0,0,59,8.0,48.0
12502,56.0,0,19,2.0,48.0
12503,80.0,0,22,8.0,48.0
12504,68.0,0,22,10.0,48.0
12505,70.0,0,19,10.0,48.0
12506,62.0,0,19,2.0,48.0
12507,82.0,20,19,8.0,48.0
12508,72.0,0,9,10.0,49.0
12509,84.0,20,9,8.0,49.0
12510,34.0,0,59,12.0,48.0
12511,46.0,0,59,11.0,48.0
12512,65.0,0,19,2.0,49.0
12513,82.0,0,9,8.0,50.0
12514,70.0,20,9,10.0,50.0
12515,68.0,0,19,2.0,50.0
12516,68.0,20,9,10.0,50.0
12517,80.0,0,9,8.0,50.0
12518,65.0,0,19,2.0,50.0
12519,67.0,20,9,10.0,51.0
12520,79.0,0,9,8.0,51.0
12521,62.0,0,19,2.0,51.0
12522,77.0,20,9,8.0,52.0
12523,65.0,0,9,10.0,52.0
12524,63.0,0,9,10.0,52.0
12525,75.0,20,9,8.0,52.0
12526,62.0,20,9,10.0,53.0
12527,74.0,0,9,8.0,53.0
12528,56.0,0,59,2.0,52.0
12529,72.0,0,9,8.0,54.0
12530,60.0,20,9,10.0,54.0
12531,58.0,0,9,10.0,54.0
12532,70.0,20,9,8.0,54.0
12533,68.0,20,9,8.0,55.0
12534,56.0,0,9,10.0,55.0
12535,65.0,0,239,3.0,48.0
12536,58.0,0,239,3.0,48.0
12537,74.0,0,239,7.0,48.0
12538,58.0,0,239,4.0,48.0
12539,46.0,20,239,4.0,48.0
12540,74.0,0,122,0.0,48.0
12541,80.0,0,242,1.0,48.0
12542,74.0,0,242,2.0,48.0
12543,55.0,0,9,10.0,56.0
12544,39.0,0,19,12.0,56.0
12545,51.0,0,19,11.0,56.0
12546,73.0,0,22,0.0,53.0
12547,73.0,0,22,7.0,55.0
12548,51.0,0,9,10.0,56.0
12549,39.0,0,9,11.0,56.0
12550,27.0,20,9,12.0,56.0
12551,75.0,0,19,0.0,54.0
12552,75.0,0,19,7.0,56.0
12553,77.0,0,9,0.0,55.0
12554,41.0,0,9,11.0,57.0
12555,29.0,20,9,12.0,57.0
12556,53.0,0,9,10.0,57.0
12557,77.0,0,9,7.0,57.0
12558,51.0,0,59,3.0,56.0
12559,63.0,0,59,3.0,56.0
12560,55.0,0,9,10.0,58.0
12561,75.0,20,9,0.0,56.0
12562,43.0,0,9,11.0,58.0
12563,31.0,0,9,12.0,58.0
12564,75.0,0,9,7.0,57.0
12565,67.0,0,79,8.0,56.0
12566,73.0,0,9,8.0,58.0
12567,31.0,0,9,12.0,58.0
12568,74.0,0,9,7.0,58.0
12569,55.0,0,9,10.0,58.0
12570,43.0,0,9,11.0,58.0
12571,73.0,20,9,0.0,56.0
12572,32.0,0,9,12.0,59.0
12573,56.0,0,9,10.0,59.0
12574,72.0,0,9,8.0,59.0
12575,44.0,20,9,11.0,59.0
12576,72.0,0,9,0.0,57.0
12577,72.0,0,9,7.0,59.0
12578,34.0,20,9,12.0,60.0
12579,58.0,0,9,10.0,60.0
12580,70.0,0,9,8.0,60.0
12581,70.0,0,9,0.0,58.0
12582,46.0,0,9,11.0,60.0
12583,70.0,0,9,7.0,59.0
12584,60.0,0,9,10.0,60.0
12585,48.0,0,9,11.0,60.0
12586,68.0,20,9,7.0,60.0
12587,68.0,0,9,0.0,59.0
12588,68.0,0,9,8.0,60.0
12589,36.0,0,9,12.0,60.0
12590,37.0,0,9,12.0,61.0
12591,67.0,0,9,8.0,61.0
12592,67.0,20,9,7.0,61.0
12593,67.0,0,9,0.0,60.0
12594,61.0,0,9,10.0,61.0
12595,49.0,0,9,11.0,61.0
12596,65.0,0,9,8.0,62.0
12597,63.0,0,9,10.0,62.0
12598,65.0,0,9,7.0,61.0
12599,39.0,0,9,12.0,62.0
12600,51.0,20,9,11.0,62.0
12601,65.0,0,9,0.0,61.0
12602,41.0,0,9,12.0,62.0
12603,65.0,0,9,10.0,62.0
12604,63.0,0,9,8.0,62.0
12605,63.0,0,9,7.0,62.0
12606,53.0,20,9,11.0,62.0
12607,63.0,0,9,0.0,62.0
12608,61.0,0,9,7.0,63.0
12609,61.0,0,9,8.0,63.0
12610,61.0,0,9,0.0,63.0
12611,67.0,0,9,10.0,63.0
12612,55.0,20,9,11.0,63.0
12613,43.0,0,9,12.0,63.0
12614,82.0,0,242,1.0,56.0
12615,73.0,0,242,2.0,56.0
12616,67.0,0,242,4.0,56.0
12617,68.0,0,14,10.0,48.0
12618,60.0,0,14,8.0,48.0
12619,60.0,0,14,7.0,48.0
12620,56.0,0,29,11.0,48.0
12621,44.0,20,29,12.0,48.0
12622,63.0,0,14,7.0,48.0
12623,51.0,30,14,10.0,48.0
12624,63.0,0,14,8.0,48.0
12625,60.0,0,14,8.0,48.0
12626,68.0,0,49,4.0,48.0
12627,72.0,0,59,2.0,48.0
12628,60.0,0,59,0.0,48.0
12629,80.0,0,59,1.0,48.0
12630,27.0,0,14,12.0,48.0
12631,39.0,30,14,11.0,48.0
12632,72.0,30,89,7.0,48.0
12633,60.0,0,89,8.0,48.0
12634,51.0,0,89,10.0,48.0
12635,32.0,30,29,12.0,48.0
12636,44.0,0,29,11.0,48.0
12637,63.0,0,89,8.0,48.0
12638,63.0,0,14,7.0,48.0
12639,60.0,0,14,8.0,48.0
12640,51.0,0,14,10.0,48.0
12641,63.0,30,14,8.0,48.0
12642,27.0,0,14,12.0,48.0
12643,39.0,30,14,11.0,48.0
12644,60.0,0,89,8.0,48.0
12645,68.0,30,89,7.0,48.0
12646,63.0,0,89,8.0,48.0
12647,51.0,0,89,10.0,48.0
12648,34.0,30,29,12.0,48.0
12649,46.0,0,29,11.0,48.0
12650,51.0,0,14,10.0,48.0
12651,63.0,0,14,7.0,48.0
12652,63.0,0,14,8.0,48.0
12653,60.0,30,14,8.0,48.0
12654,75.0,0,29,2.0,48.0
12655,63.0,0,29,3.0,48.0
12656,75.0,0,29,2.0,48.0
12657,63.0,30,29,3.0,48.0
12658,39.0,0,14,11.0,48.0
12659,27.0,30,14,12.0,48.0
12660,63.0,0,29,3.0,48.0
12661,75.0,0,29,2.0,48.0
12662,61.0,0,89,8.0,48.0
12663,51.0,0,89,10.0,48.0
12664,67.0,0,89,7.0,48.0
12665,63.0,0,89,8.0,48.0
12666,34.0,0,29,12.0,48.0
12667,46.0,30,29,11.0,48.0
12668,63.0,0,14,8.0,48.0
12669,51.0,0,14,10.0,48.0
12670,63.0,30,14,7.0,48.0
12671,61.0,0,14,8.0,48.0
12672,65.0,0,62,3.0,48.0
12673,77.0,0,62,2.0,65.0
12674,63.0,0,29,3.0,48.0
12675,75.0,30,29,2.0,48.0
12676,39.0,0,14,11.0,48.0
12677,27.0,30,14,12.0,48.0
12678,70.0,0,89,7.0,48.0
12679,63.0,0,89,8.0,48.0
12680,43.0,30,29,11.0,48.0
12681,51.0,0,89,10.0,48.0
12682,31.0,0,29,12.0,48.0
12683,61.0,0,89,8.0,48.0
12684,51.0,0,14,10.0,48.0
12685,63.0,0,14,7.0,48.0
12686,63.0,0,14,8.0,48.0
12687,61.0,30,14,8.0,48.0
12688,39.0,30,14,11.0,48.0
12689,27.0,0,14,12.0,48.0
12690,61.0,0,89,8.0,48.0
12691,63.0,0,89,8.0,48.0
12692,31.0,30,29,12.0,48.0
12693,73.0,0,89,7.0,48.0
12694,43.0,0,29,11.0,48.0
12695,51.0,30,89,10.0,48.0
12696,63.0,30,14,8.0,48.0
12697,63.0,0,14,7.0,48.0
12698,61.0,0,14,8.0,48.0
12699,51.0,0,14,10.0,48.0
12700,27.0,0,14,12.0,48.0
12701,39.0,30,14,11.0,48.0
12702,61.0,0,62,8.0,48.0
12703,51.0,0,89,10.0,48.0
12704,63.0,0,89,8.0,48.0
12705,60.0,30,29,8.0,48.0
12706,44.0,0,29,11.0,48.0
12707,32.0,0,29,12.0,48.0
12708,70.0,30,89,7.0,48.0
12709,51.0,0,14,10.0,48.0
12710,63.0,0,14,7.0,48.0
12711,63.0,0,14,8.0,48.0
12712,60.0,0,14,8.0,48.0
12713,63.0,0,1019,4.0,56.0
12714,51.0,20,1019,4.0,56.0
12715,75.0,0,32,2.0,48.0
12716,63.0,30,32,3.0,48.0
12717,51.0,0,29,4.0,48.0
12718,63.0,0,29,4.0,48.0
12719,77.0,0,32,2.0,56.0
12720,65.0,30,32,3.0,56.0
12721,39.0,30,14,11.0,48.0
12722,27.0,0,14,12.0,48.0
12723,63.0,0,29,3.0,48.0
12724,75.0,0,29,2.0,48.0
12725,32.0,0,14,12.0,48.0
12726,44.0,0,14,11.0,48.0
12727,63.0,0,29,4.0,48.0
12728,51.0,30,29,4.0,48.0
12729,63.0,0,89,8.0,48.0
12730,60.0,0,89,8.0,48.0
12731,68.0,0,89,7.0,48.0
12732,51.0,0,89,10.0,48.0
12733,63.0,30,14,7.0,48.0
12734,56.0,0,14,11.0,48.0
12735,44.0,0,14,12.0,48.0
12736,56.0,0,14,10.0,48.0
12737,60.0,0,29,8.0,48.0
12738,63.0,0,29,8.0,48.0
12739,75.0,0,32,2.0,48.0
12740,63.0,0,32,3.0,48.0
12741,51.0,0,14,11.0,48.0
12742,68.0,0,14,7.0,48.0
12743,60.0,0,14,10.0,48.0
12744,39.0,0,14,12.0,48.0
12745,63.0,0,29,4.0,48.0
12746,51.0,0,29,4.0,48.0
12747,60.0,0,29,8.0,48.0
12748,63.0,0,29,8.0,48.0
12749,77.0,0,32,2.0,56.0
12750,65.0,30,32,3.0,56.0
12751,72.0,30,14,7.0,48.0
12752,48.0,0,14,11.0,48.0
12753,63.0,0,14,10.0,48.0
12754,36.0,0,14,12.0,48.0
12755,60.0,0,29,8.0,48.0
12756,63.0,0,29,8.0,48.0
12757,63.0,0,29,3.0,48.0
12758,75.0,0,29,2.0,48.0
12759,68.0,0,19,10.0,48.0
12760,60.0,0,19,8.0,48.0
12761,63.0,0,19,8.0,48.0
12762,44.0,0,29,11.0,48.0
12763,32.0,0,29,12.0,48.0
12764,60.0,0,22,8.0,48.0
12765,56.0,20,22,10.0,48.0
12766,60.0,0,19,10.0,48.0
12767,63.0,20,19,8.0,48.0
12768,75.0,0,59,2.0,48.0
12769,63.0,0,59,2.0,48.0
12770,51.0,30,59,4.0,48.0
12771,63.0,0,59,4.0,48.0
12772,75.0,0,59,7.0,48.0
12773,48.0,20,29,11.0,48.0
12774,36.0,0,29,12.0,48.0
12775,56.0,0,22,10.0,48.0
12776,60.0,20,22,8.0,48.0
12777,60.0,0,19,10.0,48.0
12778,63.0,20,19,8.0,48.0
12779,49.0,20,29,11.0,48.0
12780,37.0,0,29,12.0,48.0
12781,55.0,0,22,10.0,48.0
12782,58.0,20,22,8.0,48.0
12783,63.0,20,19,8.0,48.0
12784,63.0,0,59,2.0,48.0
12785,75.0,0,59,2.0,48.0
12786,75.0,0,59,7.0,48.0
12787,58.0,0,19,10.0,48.0
12788,43.0,20,29,11.0,48.0
12789,31.0,0,29,12.0,48.0
12790,58.0,0,22,10.0,48.0
12791,61.0,20,22,8.0,48.0
12792,63.0,20,19,8.0,48.0
12793,61.0,0,19,10.0,48.0
12794,44.0,0,29,11.0,48.0
12795,32.0,20,29,12.0,48.0
12796,60.0,20,22,8.0,48.0
12797,56.0,0,22,10.0,48.0
12798,63.0,20,19,8.0,48.0
12799,60.0,0,19,10.0,48.0
12800,48.0,20,29,11.0,48.0
12801,36.0,0,29,12.0,48.0
12802,56.0,0,22,10.0,48.0
12803,60.0,20,22,8.0,48.0
12804,60.0,0,19,10.0,48.0
12805,63.0,20,19,8.0,48.0
12806,39.0,0,29,12.0,48.0
12807,51.0,20,29,11.0,48.0
12808,60.0,0,22,8.0,48.0
12809,56.0,20,22,10.0,48.0
12810,63.0,20,19,8.0,48.0
12811,60.0,0,19,10.0,48.0
12812,44.0,20,29,11.0,48.0
12813,32.0,0,29,12.0,48.0
12814,56.0,0,22,10.0,48.0
12815,60.0,20,22,8.0,48.0
12816,75.0,0,239,7.0,48.0
12817,75.0,0,239,2.0,48.0
12818,63.0,20,19,8.0,48.0
12819,60.0,0,19,10.0,48.0
12820,63.0,0,239,2.0,48.0
12821,45.0,0,29,11.0,48.0
12822,33.0,0,29,12.0,48.0
12823,57.0,20,22,10.0,48.0
12824,60.0,0,22,8.0,48.0
12825,63.0,0,59,2.0,48.0
12826,75.0,20,59,2.0,48.0
12827,60.0,20,19,10.0,48.0
12828,78.0,0,59,7.0,48.0
12829,63.0,0,19,8.0,48.0
12830,63.0,0,59,4.0,48.0
12831,51.0,0,59,4.0,48.0
12832,36.0,20,29,12.0,48.0
12833,48.0,0,29,11.0,48.0
12834,60.0,20,22,10.0,48.0
12835,63.0,0,22,8.0,48.0
12836,66.0,0,19,8.0,48.0
12837,63.0,20,19,10.0,48.0
12838,51.0,0,29,11.0,48.0
12839,39.0,0,29,12.0,48.0
12840,60.0,0,22,10.0,48.0
12841,63.0,20,22,8.0,48.0
12842,51.0,20,59,4.0,48.0
12843,63.0,0,59,4.0,48.0
12844,66.0,0,19,8.0,48.0
12845,75.0,0,59,2.0,48.0
12846,63.0,0,59,2.0,48.0
12847,78.0,0,59,7.0,48.0
12848,63.0,20,19,10.0,48.0
12849,34.0,0,29,12.0,48.0
12850,46.0,20,29,11.0,48.0
12851,60.0,0,22,10.0,48.0
12852,63.0,20,22,8.0,48.0
12853,66.0,20,19,8.0,48.0
12854,63.0,0,19,10.0,48.0
12855,33.0,0,29,12.0,48.0
12856,45.0,20,29,11.0,48.0
12857,60.0,0,22,10.0,48.0
12858,63.0,20,22,8.0,48.0
12859,66.0,20,19,8.0,48.0
12860,63.0,0,19,10.0,48.0
12861,36.0,0,29,12.0,48.0
12862,48.0,20,29,11.0,48.0
12863,60.0,0,22,10.0,48.0
12864,63.0,20,22,8.0,48.0
12865,66.0,0,19,8.0,48.0
12866,63.0,20,19,10.0,48.0
12867,39.0,20,29,12.0,48.0
12868,51.0,0,29,11.0,48.0
12869,60.0,20,22,10.0,48.0
12870,63.0,0,22,8.0,48.0
12871,63.0,0,19,10.0,48.0
12872,66.0,20,19,8.0,48.0
12873,45.0,20,29,11.0,48.0
12874,33.0,0,29,12.0,48.0
12875,63.0,20,22,8.0,48.0
12876,60.0,0,22,10.0,48.0
12877,51.0,0,239,4.0,48.0
12878,63.0,0,239,2.0,48.0
12879,75.0,0,239,2.0,48.0
12880,78.0,0,239,7.0,48.0
12881,66.0,20,19,8.0,48.0
12882,63.0,0,239,4.0,48.0
12883,63.0,0,19,10.0,48.0
12884,34.0,0,29,12.0,48.0
12885,46.0,0,29,11.0,48.0
12886,58.0,0,22,10.0,50.0
12887,63.0,20,22,8.0,50.0
12888,63.0,0,19,10.0,52.0
12889,63.0,0,59,4.0,48.0
12890,66.0,20,19,8.0,52.0
12891,78.0,0,59,2.0,48.0
12892,66.0,0,59,2.0,48.0
12893,63.0,20,59,1.0,48.0
12894,75.0,0,59,1.0,48.0
12895,82.0,0,59,7.0,48.0
12896,51.0,0,59,4.0,48.0
12897,39.0,20,29,12.0,53.0
12898,51.0,0,29,11.0,53.0
12899,63.0,20,22,8.0,56.0
12900,58.0,0,22,10.0,56.0
12901,66.0,20,19,8.0,58.0
12902,63.0,0,19,10.0,58.0
12903,42.0,0,29,12.0,59.0
12904,54.0,0,29,11.0,59.0
12905,63.0,20,22,8.0,62.0
12906,58.0,0,22,10.0,62.0
12907,66.0,20,59,2.0,60.0
12908,78.0,0,59,2.0,60.0
12909,63.0,0,19,10.0,64.0
12910,66.0,20,19,8.0,64.0
12911,75.0,0,59,1.0,60.0
12912,51.0,0,59,4.0,60.0
12913,63.0,0,59,1.0,60.0
12914,63.0,0,59,4.0,60.0
12915,82.0,0,59,7.0,60.0
12916,47.0,0,29,11.0,65.0
12917,35.0,20,29,12.0,65.0
12918,59.0,20,22,10.0,68.0
12919,63.0,0,22,8.0,68.0
12920,63.0,0,19,10.0,70.0
12921,66.0,20,19,8.0,70.0
12922,46.0,20,29,11.0,71.0
12923,34.0,0,29,12.0,71.0
12924,58.0,0,22,10.0,74.0
12925,63.0,20,22,8.0,74.0
12926,63.0,20,19,10.0,76.0
12927,66.0,0,19,8.0,76.0
12928,51.0,20,29,11.0,77.0
12929,39.0,0,29,12.0,77.0
12930,66.0,0,22,8.0,80.0
12931,63.0,20,22,10.0,80.0
12932,66.0,20,19,10.0,82.0
12933,70.0,0,19,8.0,82.0
12934,54.0,0,29,11.0,83.0
12935,42.0,20,29,12.0,83.0
12936,63.0,0,22,10.0,86.0
12937,66.0,20,22,8.0,86.0
12938,70.0,20,19,8.0,88.0
12939,66.0,0,19,10.0,88.0
12940,34.0,0,29,12.0,89.0
12941,46.0,20,29,11.0,89.0
12942,66.0,20,22,8.0,92.0
12943,63.0,0,22,10.0,92.0
12944,82.0,0,239,7.0,72.0
12945,75.0,0,239,1.0,72.0
12946,63.0,0,239,1.0,72.0
12947,78.0,0,239,2.0,72.0
12948,66.0,0,239,2.0,72.0
12949,51.0,0,239,4.0,72.0
12950,63.0,0,239,4.0,72.0
12951,70.0,20,19,8.0,94.0
12952,66.0,0,19,10.0,94.0
12953,47.0,0,29,11.0,95.0
12954,35.0,0,29,12.0,95.0
12955,66.0,20,22,8.0,96.0
12956,63.0,0,22,10.0,96.0
12957,75.0,0,59,1.0,96.0
12958,78.0,0,59,1.0,96.0
12959,75.0,20,19,8.0,96.0
12960,66.0,0,19,10.0,96.0
12961,66.0,0,59,4.0,96.0
12962,51.0,0,59,4.0,96.0
12963,63.0,0,59,4.0,96.0
12964,66.0,20,59,2.0,96.0
12965,78.0,0,59,2.0,96.0
12966,47.0,0,59,3.0,96.0
12967,59.0,0,59,3.0,96.0
12968,87.0,0,59,7.0,96.0
12969,63.0,0,59,5.0,97.0
12970,75.0,0,59,5.0,97.0
12971,51.0,0,59,6.0,96.0
12972,51.0,20,29,11.0,95.0
12973,39.0,0,29,12.0,95.0
12974,66.0,20,22,8.0,96.0
12975,63.0,0,22,10.0,96.0
12976,75.0,20,19,8.0,96.0
12977,66.0,0,19,10.0,96.0
12978,42.0,20,29,12.0,95.0
12979,54.0,0,29,11.0,95.0
12980,66.0,20,22,8.0,96.0
12981,63.0,0,22,10.0,96.0
12982,47.0,0,59,3.0,96.0
12983,75.0,0,59,1.0,96.0
12984,78.0,0,59,1.0,96.0
12985,75.0,0,19,8.0,96.0
12986,87.0,0,59,7.0,96.0
12987,66.0,0,59,2.0,96.0
12988,78.0,0,59,2.0,96.0
12989,51.0,0,59,6.0,96.0
12990,51.0,0,59,4.0,96.0
12991,63.0,0,59,4.0,96.0
12992,59.0,0,59,3.0,96.0
12993,63.0,0,59,5.0,97.0
12994,75.0,0,59,5.0,97.0
12995,66.0,0,59,4.0,96.0
12996,66.0,20,19,10.0,96.0
12997,47.0,20,29,11.0,95.0
12998,35.0,0,29,12.0,95.0
12999,63.0,0,22,10.0,96.0
13000,66.0,20,22,8.0,96.0
13001,66.0,20,19,10.0,96.0
13002,75.0,0,19,8.0,96.0
13003,36.0,0,29,12.0,95.0
13004,48.0,0,29,11.0,95.0
13005,69.0,20,22,8.0,96.0
13006,66.0,0,22,10.0,96.0
13007,69.0,0,19,10.0,96.0
13008,78.0,20,19,8.0,96.0
13009,51.0,0,59,6.0,96.0
13010,42.0,20,29,12.0,95.0
13011,54.0,0,29,11.0,95.0
13012,66.0,0,22,10.0,96.0
13013,69.0,20,22,8.0,96.0
13014,78.0,20,19,8.0,96.0
13015,69.0,0,19,10.0,96.0
13016,45.0,0,29,12.0,95.0
13017,57.0,20,29,11.0,95.0
13018,69.0,0,22,8.0,96.0
13019,66.0,20,22,10.0,96.0
13020,69.0,20,19,10.0,96.0
13021,78.0,0,19,8.0,96.0
13022,48.0,20,29,11.0,95.0
13023,36.0,0,29,12.0,95.0
13024,66.0,0,22,10.0,96.0
13025,69.0,20,22,8.0,96.0
13026,69.0,0,19,10.0,96.0
13027,63.0,0,239,5.0,97.0
13028,75.0,0,239,5.0,97.0
13029,78.0,20,19,8.0,96.0
13030,87.0,0,239,7.0,96.0
13031,60.0,0,239,3.0,96.0
13032,48.0,0,239,3.0,96.0
13033,66.0,0,239,4.0,96.0
13034,51.0,0,239,4.0,96.0
13035,75.0,0,239,1.0,96.0
13036,78.0,20,239,1.0,96.0
13037,66.0,0,239,2.0,96.0
13038,78.0,0,239,2.0,96.0
13039,63.0,0,239,4.0,96.0
13040,49.0,0,29,11.0,96.0
13041,37.0,0,29,12.0,96.0
13042,69.0,0,22,10.0,97.0
13043,78.0,20,22,8.0,97.0
13044,81.0,20,19,8.0,98.0
13045,66.0,0,19,10.0,98.0
13046,49.0,0,59,3.0,96.0
13047,61.0,0,59,3.0,96.0
13048,90.0,0,59,7.0,96.0
13049,66.0,0,59,2.0,96.0
13050,90.0,0,59,0.0,96.0
13051,69.0,20,59,2.0,96.0
13052,85.0,0,59,0.0,96.0
13053,78.0,0,59,1.0,96.0
13054,81.0,0,59,1.0,96.0
13055,54.0,20,29,11.0,98.0
13056,42.0,0,29,12.0,98.0
13057,69.0,0,22,10.0,101.0
13058,78.0,20,22,8.0,101.0
13059,81.0,0,19,8.0,102.0
13060,66.0,20,19,10.0,102.0
13061,57.0,20,29,11.0,102.0
13062,45.0,0,29,12.0,102.0
13063,78.0,20,22,8.0,104.0
13064,69.0,0,22,10.0,104.0
13065,69.0,0,59,2.0,103.0
13066,61.0,0,59,3.0,103.0
13067,66.0,0,59,2.0,103.0
13068,49.0,0,59,3.0,103.0
13069,78.0,0,59,1.0,103.0
13070,81.0,0,59,1.0,103.0
13071,90.0,0,59,0.0,103.0
13072,85.0,0,59,0.0,103.0
13073,90.0,0,59,7.0,103.0
13074,66.0,0,19,10.0,106.0
13075,81.0,20,19,8.0,106.0
13076,49.0,20,29,12.0,106.0
13077,61.0,0,29,11.0,106.0
13078,78.0,20,22,8.0,108.0
13079,69.0,0,22,10.0,108.0
13080,81.0,20,19,8.0,109.0
13081,66.0,0,19,10.0,109.0
13082,90.0,0,19,7.0,111.0
13083,81.0,0,19,8.0,111.0
13084,62.0,0,19,10.0,111.0
13085,50.0,0,29,11.0,110.0
13086,38.0,0,29,12.0,110.0
13087,69.0,0,19,10.0,112.0
13088,84.0,0,19,8.0,112.0
13089,90.0,20,19,7.0,112.0
13090,69.0,0,19,10.0,113.0
13091,84.0,20,19,8.0,113.0
13092,90.0,0,19,7.0,113.0
13093,69.0,20,19,10.0,114.0
13094,84.0,0,19,8.0,114.0
13095,90.0,0,19,7.0,114.0
13096,54.0,0,29,11.0,114.0
13097,42.0,0,29,12.0,114.0
13098,69.0,0,19,10.0,116.0
13099,84.0,0,19,8.0,116.0
13100,90.0,20,19,7.0,116.0
13101,69.0,20,19,10.0,117.0
13102,90.0,0,19,7.0,117.0
13103,84.0,0,19,8.0,117.0
13104,69.0,0,19,10.0,118.0
13105,84.0,0,19,8.0,118.0
13106,90.0,0,19,7.0,118.0
13107,57.0,20,29,11.0,118.0
13108,45.0,0,29,12.0,118.0
13109,84.0,0,19,8.0,119.0
13110,69.0,0,19,10.0,119.0
13111,90.0,20,19,7.0,119.0
13112,69.0,20,19,10.0,121.0
13113,84.0,0,19,8.0,121.0
13114,90.0,0,19,7.0,121.0
13115,90.0,20,19,7.0,122.0
13116,84.0,0,19,8.0,122.0
13117,69.0,0,19,10.0,122.0
13118,50.0,0,29,12.0,122.0
13119,62.0,0,29,11.0,122.0
13120,90.0,0,19,7.0,123.0
13121,84.0,20,19,8.0,123.0
13122,69.0,0,19,10.0,123.0
13123,90.0,0,19,7.0,124.0
13124,90.0,0,239,0.0,111.0
13125,81.0,0,239,1.0,111.0
13126,72.0,0,239,2.0,111.0
13127,69.0,0,19,10.0,124.0
13128,66.0,0,239,2.0,111.0
13129,78.0,20,239,1.0,111.0
13130,84.0,0,239,0.0,111.0
13131,62.0,0,239,3.0,111.0
13132,50.0,0,239,3.0,111.0
13133,84.0,20,19,8.0,124.0
13134,91.0,0,19,7.0,127.0
13135,67.0,0,19,10.0,127.0
13136,82.0,20,19,8.0,127.0
13137,62.0,20,19,10.0,127.0
13138,91.0,0,19,7.0,127.0
13139,74.0,0,19,10.0,127.0
13140,82.0,0,19,8.0,127.0
13141,50.0,0,59,11.0,127.0
13142,91.0,0,19,7.0,127.0
13143,82.0,20,19,8.0,127.0
13144,74.0,0,19,10.0,127.0
13145,62.0,0,19,10.0,127.0
13146,38.0,0,59,12.0,127.0
13147,62.0,0,19,10.0,127.0
13148,74.0,20,19,10.0,127.0
13149,91.0,0,19,7.0,127.0
13150,82.0,0,19,8.0,127.0
13151,91.0,0,19,7.0,127.0
13152,82.0,20,19,8.0,127.0
13153,74.0,0,19,10.0,127.0
13154,62.0,0,19,10.0,127.0
13155,55.0,0,59,11.0,127.0
13156,82.0,0,19,8.0,127.0
13157,62.0,20,19,10.0,127.0
13158,74.0,0,19,10.0,127.0
13159,43.0,0,59,12.0,127.0
13160,91.0,0,19,7.0,127.0
13161,74.0,0,19,10.0,127.0
13162,91.0,0,19,7.0,127.0
13163,82.0,0,19,8.0,127.0
13164,62.0,0,19,10.0,127.0
13165,82.0,20,19,8.0,127.0
13166,74.0,0,19,10.0,127.0
13167,62.0,0,19,10.0,127.0
13168,91.0,0,19,7.0,127.0
13169,82.0,0,19,8.0,127.0
13170,46.0,0,59,12.0,127.0
13171,91.0,0,19,7.0,127.0
13172,50.0,0,179,3.0,127.0
13173,62.0,0,179,3.0,127.0
13174,62.0,20,19,10.0,127.0
13175,74.0,0,19,10.0,127.0
13176,58.0,20,59,11.0,127.0
13177,74.0,0,19,10.0,127.0
13178,82.0,0,19,8.0,127.0
13179,91.0,0,19,7.0,127.0
13180,62.0,0,19,10.0,127.0
13181,46.0,0,29,3.0,127.0
13182,58.0,0,29,3.0,127.0
13183,82.0,20,19,8.0,127.0
13184,91.0,0,19,7.0,127.0
13185,74.0,0,19,10.0,127.0
13186,62.0,0,19,10.0,127.0
13187,55.0,0,29,3.0,127.0
13188,43.0,10,29,3.0,127.0
13189,62.0,0,59,11.0,127.0
13190,74.0,0,19,10.0,127.0
13191,67.0,0,239,5.0,127.0
13192,67.0,0,239,4.0,127.0
13193,55.0,0,239,4.0,127.0
13194,74.0,0,239,1.0,127.0
13195,62.0,10,19,10.0,127.0
13196,50.0,20,59,12.0,127.0
13197,70.0,0,239,2.0,127.0
13198,67.0,0,239,2.0,127.0
13199,91.0,0,19,7.0,127.0
13200,82.0,0,239,0.0,127.0
13201,91.0,0,239,0.0,127.0
13202,79.0,0,239,1.0,127.0
13203,82.0,0,19,8.0,127.0
13204,79.0,0,239,5.0,127.0
13205,72.0,0,19,10.0,127.0
13206,62.0,0,19,10.0,127.0
13207,81.0,0,19,8.0,127.0
13208,91.0,0,19,7.0,127.0
13209,81.0,0,19,8.0,127.0
13210,62.0,20,19,10.0,127.0
13211,72.0,0,19,10.0,127.0
13212,91.0,0,19,7.0,127.0
13213,50.0,0,59,11.0,127.0
13214,91.0,20,19,7.0,127.0
13215,62.0,0,19,10.0,127.0
13216,72.0,0,19,10.0,127.0
13217,38.0,20,59,12.0,127.0
13218,81.0,0,19,8.0,127.0
13219,81.0,20,19,8.0,127.0
13220,91.0,0,19,7.0,127.0
13221,72.0,0,19,10.0,127.0
13222,62.0,0,19,10.0,127.0
13223,91.0,0,19,7.0,127.0
13224,81.0,20,19,8.0,127.0
13225,72.0,0,19,10.0,127.0
13226,62.0,0,19,10.0,127.0
13227,81.0,0,19,8.0,127.0
13228,50.0,0,119,3.0,127.0
13229,50.0,0,59,12.0,127.0
13230,62.0,0,119,3.0,127.0
13231,81.0,0,119,0.0,127.0
13232,91.0,0,119,0.0,127.0
13233,67.0,0,119,2.0,127.0
13234,62.0,0,19,10.0,127.0
13235,69.0,0,119,2.0,127.0
13236,74.0,0,119,1.0,127.0
13237,79.0,0,119,1.0,127.0
13238,91.0,0,19,7.0,127.0
13239,62.0,0,59,11.0,127.0
13240,72.0,20,19,10.0,127.0
13241,81.0,0,19,8.0,127.0
13242,72.0,0,19,10.0,127.0
13243,62.0,0,19,10.0,127.0
13244,90.0,0,19,7.0,127.0
13245,72.0,0,19,10.0,127.0
13246,62.0,0,19,10.0,127.0
13247,81.0,20,19,8.0,127.0
13248,90.0,0,19,7.0,127.0
13249,50.0,20,59,11.0,127.0
13250,62.0,0,19,10.0,127.0
13251,38.0,0,59,12.0,127.0
13252,72.0,0,19,10.0,127.0
13253,90.0,20,19,7.0,127.0
13254,81.0,0,19,8.0,127.0
13255,90.0,0,19,7.0,127.0
13256,72.0,0,19,10.0,127.0
13257,62.0,20,19,10.0,127.0
13258,81.0,0,19,8.0,127.0
13259,81.0,0,19,8.0,127.0
13260,90.0,20,19,7.0,127.0
13261,62.0,0,19,10.0,127.0
13262,72.0,0,19,10.0,127.0
13263,50.0,0,59,12.0,127.0
13264,72.0,20,19,10.0,127.0
13265,62.0,0,19,10.0,127.0
13266,62.0,0,59,11.0,127.0
13267,74.0,0,119,1.0,127.0
13268,81.0,0,119,0.0,127.0
13269,50.0,0,119,3.0,127.0
13270,62.0,0,119,3.0,127.0
13271,66.0,0,119,2.0,127.0
13272,90.0,0,19,7.0,127.0
13273,78.0,0,119,1.0,127.0
13274,90.0,0,119,0.0,127.0
13275,69.0,0,119,2.0,127.0
13276,81.0,0,19,8.0,127.0
13277,43.0,0,19,11.0,127.0
13278,43.0,20,19,11.0,48.0
13279,70.0,0,59,10.0,127.0
13280,70.0,0,59,2.0,127.0
13281,43.0,0,59,3.0,127.0
13282,91.0,0,59,0.0,127.0
13283,82.0,20,59,0.0,127.0
13284,67.0,0,59,2.0,127.0
13285,55.0,0,59,3.0,127.0
13286,79.0,0,59,1.0,127.0
13287,74.0,0,59,1.0,127.0
13288,43.0,20,19,11.0,48.0
13289,91.0,0,59,7.0,127.0
13290,31.0,0,59,12.0,127.0
13291,79.0,0,59,8.0,127.0
13292,62.0,0,59,10.0,127.0
13293,70.0,0,14,8.0,48.0
13294,67.0,0,14,10.0,48.0
13295,74.0,0,14,7.0,48.0
13296,43.0,20,19,11.0,48.0
13297,43.0,20,19,11.0,48.0
13298,70.0,0,14,8.0,48.0
13299,74.0,0,14,7.0,48.0
13300,67.0,10,14,10.0,48.0
13301,43.0,10,19,11.0,48.0
13302,86.0,0,14,0.0,48.0
13303,62.0,0,14,3.0,48.0
13304,43.0,20,19,11.0,48.0
13305,43.0,20,19,11.0,48.0
13306,86.0,10,14,0.0,48.0
13307,62.0,0,14,3.0,48.0
13308,43.0,10,19,11.0,48.0
13309,62.0,0,14,10.0,48.0
13310,70.0,20,14,7.0,48.0
13311,67.0,0,14,8.0,48.0
13312,43.0,0,19,11.0,48.0
13313,43.0,20,19,11.0,48.0
13314,67.0,0,14,8.0,48.0
13315,70.0,0,14,7.0,48.0
13316,62.0,10,14,10.0,48.0
13317,43.0,10,19,11.0,48.0
13318,63.0,0,14,3.0,48.0
13319,87.0,20,14,0.0,48.0
13320,43.0,0,19,11.0,48.0
13321,43.0,20,19,11.0,48.0
13322,87.0,0,14,0.0,48.0
13323,63.0,10,14,3.0,48.0
13324,43.0,10,19,11.0,48.0
13325,31.0,0,59,12.0,48.0
13326,60.0,0,14,10.0,48.0
13327,63.0,20,14,10.0,48.0
13328,66.0,0,14,8.0,48.0
13329,69.0,0,14,7.0,48.0
13330,43.0,0,19,11.0,48.0
13331,43.0,20,19,11.0,48.0
13332,69.0,0,14,7.0,48.0
13333,63.0,10,14,10.0,48.0
13334,60.0,0,14,10.0,48.0
13335,66.0,0,14,8.0,48.0
13336,43.0,10,19,11.0,48.0
13337,54.0,20,14,3.0,48.0
13338,78.0,0,14,0.0,48.0
13339,43.0,0,19,11.0,48.0
13340,43.0,20,19,11.0,48.0
13341,78.0,10,14,0.0,48.0
13342,54.0,0,14,3.0,48.0
13343,43.0,10,19,11.0,48.0
13344,57.0,0,14,10.0,48.0
13345,69.0,20,14,8.0,48.0
13346,72.0,0,14,7.0,48.0
13347,54.0,0,14,10.0,48.0
13348,43.0,0,19,11.0,48.0
13349,43.0,20,19,11.0,48.0
13350,54.0,0,14,10.0,48.0
13351,69.0,0,14,8.0,48.0
13352,57.0,10,14,10.0,48.0
13353,72.0,0,14,7.0,48.0
13354,43.0,10,19,11.0,48.0
13355,87.0,0,14,0.0,48.0
13356,63.0,0,14,3.0,48.0
13357,43.0,20,19,11.0,48.0
13358,43.0,20,19,11.0,48.0
13359,63.0,10,14,3.0,48.0
13360,87.0,0,14,0.0,48.0
13361,43.0,10,19,11.0,48.0
13362,31.0,0,59,12.0,48.0
13363,54.0,0,14,10.0,48.0
13364,57.0,0,14,10.0,48.0
13365,75.0,0,14,7.0,48.0
13366,72.0,20,14,8.0,48.0
13367,43.0,0,19,11.0,48.0
13368,43.0,20,19,11.0,48.0
13369,54.0,10,14,10.0,48.0
13370,72.0,0,14,8.0,48.0
13371,75.0,0,14,7.0,48.0
13372,57.0,0,14,10.0,48.0
13373,43.0,10,19,11.0,48.0
13374,54.0,20,14,3.0,48.0
13375,78.0,0,14,0.0,48.0
13376,43.0,0,19,11.0,48.0
13377,43.0,20,19,11.0,48.0
13378,78.0,10,14,0.0,48.0
13379,54.0,0,14,3.0,48.0
13380,43.0,10,19,11.0,48.0
13381,63.0,20,14,10.0,48.0
13382,66.0,0,14,8.0,48.0
13383,60.0,0,14,10.0,48.0
13384,69.0,0,14,7.0,48.0
13385,43.0,0,19,11.0,48.0
13386,43.0,20,19,11.0,48.0
13387,63.0,0,14,10.0,48.0
13388,60.0,0,14,10.0,48.0
13389,66.0,10,14,8.0,48.0
13390,69.0,0,14,7.0,48.0
13391,43.0,10,19,11.0,48.0
13392,89.0,0,14,0.0,48.0
13393,65.0,0,14,3.0,48.0
13394,43.0,20,19,11.0,48.0
13395,43.0,20,19,11.0,49.0
13396,89.0,10,14,0.0,50.0
13397,65.0,0,14,3.0,50.0
13398,43.0,10,19,11.0,50.0
13399,31.0,0,59,12.0,48.0
13400,71.0,0,14,7.0,52.0
13401,65.0,0,14,10.0,52.0
13402,62.0,0,14,8.0,52.0
13403,68.0,20,14,10.0,52.0
13404,43.0,0,19,11.0,52.0
13405,43.0,20,19,11.0,53.0
13406,62.0,0,14,8.0,54.0
13407,71.0,0,14,7.0,54.0
13408,68.0,0,14,10.0,54.0
13409,65.0,10,14,10.0,54.0
13410,43.0,10,19,11.0,54.0
13411,83.0,0,14,0.0,56.0
13412,59.0,0,14,3.0,56.0
13413,43.0,20,19,11.0,56.0
13414,43.0,20,19,11.0,57.0
13415,59.0,0,14,3.0,58.0
13416,83.0,10,14,0.0,58.0
13417,43.0,10,19,11.0,58.0
13418,59.0,0,14,10.0,60.0
13419,77.0,0,14,7.0,60.0
13420,62.0,20,14,10.0,60.0
13421,74.0,0,14,8.0,60.0
13422,43.0,0,19,11.0,60.0
13423,43.0,20,19,11.0,61.0
13424,59.0,0,14,10.0,62.0
13425,77.0,10,14,7.0,62.0
13426,74.0,0,14,8.0,62.0
13427,62.0,0,14,10.0,62.0
13428,43.0,10,19,11.0,62.0
13429,65.0,0,14,3.0,64.0
13430,89.0,0,14,0.0,64.0
13431,43.0,20,19,11.0,64.0
13432,43.0,20,19,11.0,63.0
13433,89.0,10,14,0.0,62.0
13434,65.0,0,14,3.0,62.0
13435,31.0,0,59,12.0,64.0
13436,43.0,10,19,11.0,62.0
13437,77.0,0,14,8.0,60.0
13438,62.0,0,14,10.0,60.0
13439,59.0,0,14,10.0,60.0
13440,80.0,0,14,7.0,60.0
13441,43.0,20,19,11.0,60.0
13442,43.0,20,19,11.0,59.0
13443,59.0,0,14,10.0,58.0
13444,77.0,0,14,8.0,58.0
13445,62.0,0,14,10.0,58.0
13446,80.0,10,14,7.0,58.0
13447,43.0,10,19,11.0,58.0
13448,59.0,20,14,3.0,56.0
13449,83.0,0,14,0.0,56.0
13450,43.0,0,19,11.0,56.0
13451,43.0,20,19,11.0,55.0
13452,59.0,10,14,3.0,54.0
13453,83.0,0,14,0.0,54.0
13454,43.0,10,19,11.0,54.0
13455,65.0,0,14,10.0,52.0
13456,68.0,0,14,10.0,52.0
13457,71.0,0,14,7.0,52.0
13458,62.0,0,14,8.0,52.0
13459,43.0,20,19,11.0,52.0
13460,43.0,20,19,11.0,51.0
13461,62.0,0,14,8.0,50.0
13462,68.0,0,14,10.0,50.0
13463,65.0,0,14,10.0,50.0
13464,71.0,10,14,7.0,50.0
13465,43.0,10,19,11.0,50.0
13466,86.0,20,14,0.0,48.0
13467,62.0,0,14,3.0,48.0
13468,43.0,0,19,11.0,48.0
13469,43.0,20,19,11.0,48.0
13470,62.0,10,14,3.0,48.0
13471,86.0,0,14,0.0,48.0
13472,43.0,10,19,11.0,48.0
13473,31.0,0,59,12.0,48.0
13474,65.0,0,14,8.0,48.0
13475,59.0,0,14,10.0,48.0
13476,74.0,20,14,7.0,48.0
13477,68.0,0,14,10.0,48.0
13478,43.0,0,19,11.0,48.0
13479,43.0,20,19,11.0,48.0
13480,74.0,0,14,7.0,48.0
13481,65.0,10,14,8.0,48.0
13482,68.0,0,14,10.0,48.0
13483,59.0,0,14,10.0,48.0
13484,43.0,10,19,11.0,48.0
13485,84.0,0,14,0.0,48.0
13486,60.0,0,14,3.0,48.0
13487,43.0,20,19,11.0,48.0
13488,43.0,20,19,11.0,48.0
13489,84.0,10,14,0.0,48.0
13490,60.0,0,14,3.0,48.0
13491,43.0,10,19,11.0,48.0
13492,31.0,0,59,12.0,48.0
13493,67.0,20,14,10.0,48.0
13494,60.0,0,14,10.0,48.0
13495,72.0,0,14,7.0,48.0
13496,63.0,0,14,8.0,48.0
13497,43.0,0,19,11.0,48.0
13498,43.0,20,19,11.0,48.0
13499,67.0,0,14,10.0,48.0
13500,60.0,10,14,10.0,48.0
13501,72.0,0,14,7.0,48.0
13502,63.0,0,14,8.0,48.0
13503,43.0,10,19,11.0,48.0
13504,63.0,0,14,3.0,48.0
13505,87.0,20,14,0.0,48.0
13506,43.0,0,19,11.0,48.0
13507,43.0,20,19,11.0,48.0
13508,87.0,0,14,0.0,48.0
13509,63.0,10,14,3.0,48.0
13510,31.0,0,59,12.0,48.0
13511,43.0,10,19,11.0,48.0
13512,56.0,0,14,10.0,48.0
13513,60.0,20,14,10.0,48.0
13514,75.0,0,14,7.0,48.0
13515,66.0,0,14,8.0,48.0
13516,43.0,0,19,11.0,48.0
13517,43.0,20,19,11.0,48.0
13518,60.0,0,14,10.0,48.0
13519,56.0,0,14,10.0,48.0
13520,75.0,10,14,7.0,48.0
13521,66.0,0,14,8.0,48.0
13522,43.0,10,19,11.0,48.0
13523,54.0,0,14,3.0,48.0
13524,78.0,0,14,0.0,48.0
13525,43.0,0,19,11.0,48.0
13526,43.0,20,19,11.0,48.0
13527,54.0,10,14,3.0,48.0
13528,78.0,0,14,0.0,48.0
13529,43.0,10,19,11.0,48.0
13530,31.0,20,59,12.0,48.0
13531,60.0,20,14,10.0,48.0
13532,57.0,0,14,10.0,48.0
13533,66.0,0,14,7.0,48.0
13534,63.0,0,14,8.0,48.0
13535,43.0,0,19,11.0,48.0
13536,43.0,20,19,11.0,48.0
13537,60.0,0,14,10.0,48.0
13538,57.0,0,14,10.0,48.0
13539,63.0,0,14,8.0,48.0
13540,66.0,10,14,7.0,48.0
13541,43.0,10,19,11.0,48.0
13542,79.0,0,14,0.0,48.0
13543,55.0,0,14,3.0,48.0
13544,43.0,0,19,11.0,48.0
13545,43.0,20,19,11.0,49.0
13546,55.0,0,14,3.0,50.0
13547,79.0,10,14,0.0,50.0
13548,43.0,10,19,11.0,50.0
13549,31.0,20,59,12.0,48.0
13550,58.0,0,14,10.0,52.0
13551,62.0,20,14,8.0,52.0
13552,67.0,0,14,7.0,52.0
13553,43.0,0,19,11.0,52.0
13554,43.0,20,19,11.0,53.0
13555,58.0,0,14,10.0,54.0
13556,67.0,0,14,7.0,54.0
13557,62.0,10,14,8.0,54.0
13558,43.0,10,19,11.0,54.0
13559,62.0,20,14,3.0,56.0
13560,86.0,0,14,0.0,56.0
13561,43.0,0,19,11.0,56.0
13562,43.0,20,19,11.0,57.0
13563,62.0,0,14,3.0,58.0
13564,86.0,10,14,0.0,58.0
13565,43.0,10,19,11.0,58.0
13566,31.0,0,59,12.0,55.0
13567,74.0,20,14,7.0,60.0
13568,65.0,0,14,10.0,60.0
13569,69.0,0,14,8.0,60.0
13570,59.0,0,14,10.0,60.0
13571,43.0,0,19,11.0,60.0
13572,43.0,20,19,11.0,61.0
13573,59.0,0,14,10.0,62.0
13574,69.0,0,14,8.0,62.0
13575,65.0,0,14,10.0,62.0
13576,74.0,10,14,7.0,62.0
13577,43.0,10,19,11.0,62.0
13578,63.0,0,14,3.0,64.0
13579,87.0,0,14,0.0,64.0
13580,43.0,0,19,11.0,64.0
13581,43.0,20,19,11.0,63.0
13582,87.0,0,14,0.0,62.0
13583,63.0,10,14,3.0,62.0
13584,31.0,20,59,12.0,64.0
13585,43.0,10,19,11.0,62.0
13586,60.0,20,14,10.0,60.0
13587,67.0,0,14,8.0,60.0
13588,63.0,0,14,10.0,60.0
13589,75.0,0,14,7.0,60.0
13590,43.0,0,19,11.0,60.0
13591,43.0,20,19,11.0,59.0
13592,75.0,10,14,7.0,58.0
13593,67.0,0,14,8.0,58.0
13594,63.0,0,14,10.0,58.0
13595,60.0,0,14,10.0,58.0
13596,43.0,10,19,11.0,58.0
13597,54.0,0,14,3.0,56.0
13598,78.0,20,14,0.0,56.0
13599,43.0,0,19,11.0,56.0
13600,43.0,20,19,11.0,55.0
13601,54.0,0,14,3.0,54.0
13602,78.0,10,14,0.0,54.0
13603,43.0,10,19,11.0,54.0
13604,31.0,0,59,12.0,57.0
13605,66.0,0,14,7.0,52.0
13606,63.0,0,14,8.0,52.0
13607,60.0,0,14,10.0,52.0
13608,57.0,0,14,10.0,52.0
13609,43.0,20,19,11.0,52.0
13610,43.0,20,19,11.0,51.0
13611,63.0,0,14,8.0,50.0
13612,66.0,10,14,7.0,50.0
13613,57.0,0,14,10.0,50.0
13614,60.0,0,14,10.0,50.0
13615,43.0,10,19,11.0,50.0
13616,79.0,0,14,0.0,48.0
13617,55.0,20,14,3.0,50.0
13618,43.0,0,19,11.0,48.0
13619,43.0,20,19,11.0,47.0
13620,55.0,10,14,3.0,48.0
13621,79.0,0,14,0.0,46.0
13622,31.0,0,59,12.0,48.0
13623,43.0,10,19,11.0,46.0
13624,62.0,0,14,8.0,44.0
13625,67.0,0,14,7.0,44.0
13626,58.0,0,14,10.0,44.0
13627,43.0,20,19,11.0,44.0
13628,43.0,20,19,11.0,43.0
13629,62.0,10,14,8.0,42.0
13630,67.0,0,14,7.0,42.0
13631,58.0,0,14,10.0,42.0
13632,43.0,10,19,11.0,42.0
13633,67.0,0,14,3.0,41.0
13634,91.0,0,14,0.0,40.0
13635,43.0,0,19,11.0,40.0
13636,43.0,20,19,11.0,39.0
13637,91.0,0,14,0.0,38.0
13638,67.0,10,14,3.0,39.0
13639,31.0,20,59,12.0,41.0
13640,43.0,10,19,11.0,38.0
13641,68.0,0,14,7.0,36.0
13642,62.0,0,14,8.0,36.0
13643,59.0,0,14,10.0,36.0
13644,53.0,0,14,10.0,36.0
13645,43.0,20,19,11.0,36.0
13646,43.0,20,19,11.0,35.0
13647,68.0,0,14,7.0,34.0
13648,62.0,10,14,8.0,34.0
13649,53.0,0,14,10.0,34.0
13650,59.0,0,14,10.0,34.0
13651,43.0,10,19,11.0,34.0
13652,91.0,20,14,0.0,32.0
13653,67.0,0,14,3.0,32.0
13654,43.0,0,19,11.0,32.0
13655,43.0,20,19,11.0,32.0
13656,91.0,0,14,0.0,32.0
13657,67.0,10,14,3.0,32.0
13658,43.0,10,19,11.0,32.0
13659,31.0,0,59,12.0,33.0
13660,52.0,0,14,10.0,32.0
13661,67.0,0,14,7.0,32.0
13662,55.0,0,14,10.0,32.0
13663,72.0,20,14,8.0,32.0
13664,43.0,0,19,11.0,32.0
13665,43.0,20,19,11.0,32.0
13666,52.0,10,14,10.0,32.0
13667,55.0,0,14,10.0,32.0
13668,67.0,0,14,7.0,32.0
13669,72.0,0,14,8.0,32.0
13670,43.0,10,19,11.0,32.0
13671,90.0,20,14,0.0,32.0
13672,66.0,0,14,3.0,32.0
13673,43.0,0,19,11.0,32.0
13674,43.0,20,19,11.0,32.0
13675,90.0,0,14,0.0,32.0
13676,66.0,10,14,3.0,32.0
13677,31.0,0,59,12.0,32.0
13678,43.0,10,19,11.0,32.0
13679,57.0,20,14,7.0,32.0
13680,60.0,0,14,8.0,32.0
13681,55.0,0,14,10.0,32.0
13682,51.0,0,14,10.0,32.0
13683,66.0,0,14,7.0,32.0
13684,43.0,0,19,11.0,32.0
13685,43.0,20,19,11.0,32.0
13686,51.0,0,14,10.0,32.0
13687,60.0,0,14,8.0,32.0
13688,57.0,0,14,7.0,32.0
13689,55.0,10,14,10.0,32.0
13690,66.0,0,14,7.0,32.0
13691,43.0,10,19,11.0,32.0
13692,67.0,0,14,7.0,127.0
13693,55.0,0,14,10.0,127.0
13694,67.0,0,14,8.0,127.0
13695,50.0,0,14,10.0,127.0
13696,58.0,0,14,8.0,127.0
13697,67.0,15,14,10.0,127.0
13698,79.0,0,14,7.0,127.0
13699,31.0,0,29,12.0,127.0
13700,43.0,0,29,11.0,127.0
13701,79.0,0,14,8.0,127.0
13702,67.0,0,14,10.0,127.0
13703,79.0,0,14,7.0,127.0
13704,79.0,15,14,8.0,127.0
13705,55.0,0,29,11.0,127.0
13706,43.0,0,29,12.0,127.0
13707,79.0,15,14,8.0,127.0
13708,79.0,0,14,7.0,127.0
13709,67.0,0,14,10.0,127.0
13710,79.0,0,14,8.0,127.0
13711,67.0,0,14,10.0,127.0
13712,79.0,0,14,7.0,127.0
13713,79.0,15,14,7.0,127.0
13714,55.0,15,29,11.0,127.0
13715,43.0,0,29,12.0,127.0
13716,67.0,0,14,10.0,127.0
13717,79.0,0,14,8.0,127.0
13718,79.0,0,14,8.0,127.0
13719,67.0,0,14,10.0,127.0
13720,79.0,15,14,7.0,127.0
13721,67.0,0,14,10.0,127.0
13722,43.0,0,29,12.0,127.0
13723,55.0,0,29,11.0,127.0
13724,79.0,15,14,8.0,127.0
13725,79.0,0,14,7.0,127.0
13726,79.0,0,14,8.0,127.0
13727,67.0,0,14,10.0,127.0
13728,79.0,0,14,7.0,127.0
13729,79.0,0,14,7.0,127.0
13730,55.0,15,29,11.0,127.0
13731,43.0,0,29,12.0,127.0
13732,79.0,15,14,8.0,127.0
13733,67.0,0,14,10.0,127.0
13734,67.0,0,14,10.0,127.0
13735,79.0,0,14,7.0,127.0
13736,79.0,15,14,8.0,127.0
13737,43.0,0,29,12.0,127.0
13738,79.0,0,14,8.0,127.0
13739,67.0,0,14,10.0,127.0
13740,79.0,15,14,7.0,127.0
13741,55.0,0,29,11.0,127.0
13742,79.0,0,14,7.0,127.0
13743,67.0,0,14,10.0,127.0
13744,79.0,0,14,8.0,127.0
13745,67.0,15,14,10.0,127.0
13746,79.0,0,14,8.0,127.0
13747,43.0,0,29,12.0,127.0
13748,79.0,0,14,7.0,127.0
13749,55.0,15,29,11.0,127.0
13750,79.0,0,14,7.0,127.0
13751,67.0,15,14,10.0,127.0
13752,79.0,0,14,8.0,127.0
13753,55.0,0,29,11.0,127.0
13754,43.0,0,29,12.0,127.0
13755,79.0,0,14,7.0,127.0
13756,79.0,15,14,8.0,127.0
13757,67.0,0,14,10.0,127.0
13758,67.0,15,14,10.0,127.0
13759,79.0,0,14,7.0,127.0
13760,79.0,0,14,8.0,127.0
13761,55.0,0,29,11.0,127.0
13762,91.0,0,269,0.0,127.0
13763,79.0,0,269,0.0,127.0
13764,79.0,0,14,8.0,127.0
13765,79.0,0,269,1.0,127.0
13766,79.0,15,14,7.0,127.0
13767,55.0,0,269,3.0,127.0
13768,67.0,0,14,10.0,127.0
13769,79.0,0,269,2.0,127.0
13770,67.0,20,269,2.0,127.0
13771,43.0,0,29,12.0,127.0
13772,65.0,0,14,10.0,127.0
13773,77.0,0,14,8.0,127.0
13774,77.0,0,14,7.0,127.0
13775,55.0,0,299,4.0,127.0
13776,77.0,0,14,7.0,127.0
13777,65.0,15,14,10.0,127.0
13778,77.0,0,29,1.0,127.0
13779,67.0,0,299,4.0,127.0
13780,89.0,0,29,0.0,127.0
13781,41.0,0,29,12.0,127.0
13782,77.0,0,14,8.0,127.0
13783,77.0,0,29,2.0,127.0
13784,53.0,0,29,11.0,127.0
13785,53.0,15,29,3.0,127.0
13786,79.0,0,299,5.0,127.0
13787,67.0,0,299,5.0,127.0
13788,75.0,0,14,7.0,127.0
13789,63.0,0,14,10.0,127.0
13790,75.0,0,14,8.0,127.0
13791,75.0,0,29,2.0,127.0
13792,75.0,15,14,7.0,127.0
13793,75.0,0,29,1.0,127.0
13794,51.0,0,29,3.0,127.0
13795,39.0,15,29,12.0,127.0
13796,63.0,0,14,10.0,127.0
13797,75.0,0,14,8.0,127.0
13798,87.0,0,29,0.0,127.0
13799,51.0,0,29,11.0,127.0
13800,74.0,0,14,8.0,127.0
13801,62.0,0,14,10.0,127.0
13802,74.0,0,14,7.0,127.0
13803,50.0,0,29,11.0,127.0
13804,74.0,0,29,1.0,127.0
13805,74.0,0,14,8.0,127.0
13806,38.0,0,29,12.0,127.0
13807,74.0,0,29,2.0,127.0
13808,50.0,15,29,3.0,127.0
13809,86.0,0,29,0.0,127.0
13810,74.0,0,14,7.0,127.0
13811,62.0,15,14,10.0,127.0
13812,63.0,0,14,10.0,127.0
13813,75.0,0,14,8.0,127.0
13814,75.0,0,14,7.0,127.0
13815,75.0,0,29,1.0,127.0
13816,75.0,15,14,8.0,127.0
13817,39.0,0,29,12.0,127.0
13818,51.0,0,29,3.0,127.0
13819,87.0,0,29,0.0,127.0
13820,75.0,0,14,7.0,127.0
13821,51.0,15,29,11.0,127.0
13822,63.0,0,14,10.0,127.0
13823,75.0,0,29,2.0,127.0
13824,74.0,0,14,8.0,127.0
13825,62.0,0,14,10.0,127.0
13826,74.0,0,14,7.0,127.0
13827,74.0,0,29,1.0,127.0
13828,74.0,0,29,2.0,127.0
13829,50.0,15,29,11.0,127.0
13830,86.0,0,29,0.0,127.0
13831,74.0,0,14,8.0,127.0
13832,55.0,0,59,4.0,127.0
13833,67.0,0,59,4.0,127.0
13834,38.0,0,29,12.0,127.0
13835,50.0,0,29,3.0,127.0
13836,62.0,15,14,10.0,127.0
13837,79.0,0,59,5.0,127.0
13838,67.0,0,59,5.0,127.0
13839,74.0,0,14,7.0,127.0
13840,72.0,0,14,7.0,127.0
13841,60.0,0,14,10.0,127.0
13842,72.0,0,14,8.0,127.0
13843,36.0,0,29,12.0,127.0
13844,60.0,15,14,10.0,127.0
13845,84.0,15,29,0.0,127.0
13846,72.0,0,14,8.0,127.0
13847,72.0,0,29,1.0,127.0
13848,72.0,0,14,7.0,127.0
13849,72.0,0,29,2.0,127.0
13850,48.0,0,29,11.0,127.0
13851,48.0,0,29,3.0,127.0
13852,70.0,0,14,8.0,127.0
13853,58.0,0,14,10.0,127.0
13854,70.0,0,14,7.0,127.0
13855,70.0,15,29,1.0,127.0
13856,46.0,0,29,3.0,127.0
13857,58.0,0,14,10.0,127.0
13858,70.0,15,14,7.0,127.0
13859,34.0,0,29,12.0,127.0
13860,82.0,0,29,0.0,127.0
13861,70.0,0,14,8.0,127.0
13862,70.0,0,29,2.0,127.0
13863,46.0,0,29,11.0,127.0
13864,72.0,0,14,8.0,127.0
13865,60.0,0,14,10.0,127.0
13866,72.0,0,14,7.0,127.0
13867,72.0,0,14,7.0,127.0
13868,72.0,15,14,8.0,127.0
13869,60.0,0,14,10.0,127.0
13870,36.0,0,29,12.0,127.0
13871,48.0,0,29,11.0,127.0
13872,72.0,0,29,2.0,127.0
13873,84.0,15,29,0.0,127.0
13874,48.0,0,29,3.0,127.0
13875,72.0,0,29,1.0,127.0
13876,70.0,0,14,8.0,127.0
13877,70.0,0,14,7.0,127.0
13878,58.0,15,14,10.0,127.0
13879,70.0,0,29,2.0,127.0
13880,70.0,15,14,8.0,127.0
13881,58.0,0,29,11.0,127.0
13882,58.0,0,14,10.0,127.0
13883,70.0,0,14,7.0,127.0
13884,82.0,0,29,0.0,127.0
13885,82.0,0,29,1.0,127.0
13886,46.0,0,29,12.0,127.0
13887,58.0,0,29,3.0,127.0
13888,57.0,0,14,10.0,127.0
13889,69.0,0,14,7.0,127.0
13890,69.0,0,14,8.0,127.0
13891,57.0,15,14,10.0,127.0
13892,69.0,0,29,2.0,127.0
13893,69.0,0,14,8.0,127.0
13894,45.0,0,29,12.0,127.0
13895,57.0,15,29,11.0,127.0
13896,69.0,0,14,7.0,127.0
13897,81.0,0,29,0.0,127.0
13898,81.0,0,29,1.0,127.0
13899,57.0,0,29,3.0,127.0
13900,67.0,0,14,8.0,127.0
13901,67.0,0,14,7.0,127.0
13902,55.0,0,14,10.0,127.0
13903,67.0,0,14,7.0,127.0
13904,79.0,15,29,0.0,127.0
13905,55.0,0,29,3.0,127.0
13906,67.0,0,29,2.0,127.0
13907,55.0,0,29,11.0,127.0
13908,67.0,15,14,8.0,127.0
13909,55.0,0,14,10.0,127.0
13910,79.0,0,29,1.0,127.0
13911,43.0,0,29,12.0,127.0
13912,56.0,0,14,10.0,127.0
13913,68.0,0,14,8.0,127.0
13914,68.0,0,14,7.0,127.0
13915,44.0,0,29,12.0,127.0
13916,56.0,0,29,11.0,127.0
13917,68.0,0,14,7.0,127.0
13918,80.0,0,29,1.0,127.0
13919,80.0,0,29,0.0,127.0
13920,68.0,0,29,2.0,127.0
13921,56.0,15,14,10.0,127.0
13922,56.0,15,29,3.0,127.0
13923,68.0,0,14,8.0,127.0
13924,67.0,0,14,10.0,127.0
13925,67.0,0,14,7.0,127.0
13926,67.0,0,14,8.0,127.0
13927,79.0,0,29,1.0,127.0
13928,55.0,15,29,3.0,127.0
13929,67.0,0,14,8.0,127.0
13930,67.0,0,29,2.0,127.0
13931,67.0,15,14,10.0,127.0
13932,79.0,0,29,0.0,127.0
13933,67.0,0,14,7.0,127.0
13934,55.0,0,29,11.0,127.0
13935,43.0,0,29,12.0,127.0
13936,65.0,0,14,10.0,127.0
13937,65.0,0,14,7.0,127.0
13938,65.0,15,14,8.0,127.0
13939,53.0,0,29,11.0,127.0
13940,77.0,0,29,0.0,127.0
13941,65.0,0,14,7.0,127.0
13942,65.0,0,29,2.0,127.0
13943,41.0,0,29,12.0,127.0
13944,65.0,0,14,8.0,127.0
13945,53.0,0,29,3.0,127.0
13946,65.0,15,14,10.0,127.0
13947,77.0,0,29,1.0,127.0
13948,63.0,0,14,10.0,127.0
13949,63.0,0,14,8.0,127.0
13950,63.0,0,14,7.0,127.0
13951,75.0,15,29,1.0,127.0
13952,51.0,0,29,3.0,127.0
13953,75.0,0,29,0.0,127.0
13954,39.0,0,29,12.0,127.0
13955,63.0,0,14,10.0,127.0
13956,63.0,0,29,2.0,127.0
13957,63.0,0,14,7.0,127.0
13958,63.0,15,14,8.0,127.0
13959,51.0,0,29,11.0,127.0
13960,62.0,0,14,8.0,127.0
13961,62.0,0,14,7.0,127.0
13962,62.0,0,14,10.0,127.0
13963,62.0,15,14,7.0,127.0
13964,50.0,0,29,11.0,127.0
13965,38.0,0,29,12.0,127.0
13966,50.0,15,29,3.0,127.0
13967,62.0,0,14,10.0,127.0
13968,74.0,0,29,1.0,127.0
13969,62.0,0,14,8.0,127.0
13970,62.0,0,29,2.0,127.0
13971,63.0,0,14,7.0,127.0
13972,63.0,0,14,8.0,127.0
13973,63.0,15,14,10.0,127.0
13974,75.0,0,29,1.0,127.0
13975,51.0,0,29,11.0,127.0
13976,51.0,0,29,3.0,127.0
13977,74.0,0,59,0.0,127.0
13978,63.0,0,14,7.0,127.0
13979,63.0,0,14,10.0,127.0
13980,39.0,0,29,12.0,127.0
13981,63.0,0,29,2.0,127.0
13982,63.0,15,14,8.0,127.0
13983,65.0,0,14,8.0,127.0
13984,65.0,0,14,7.0,127.0
13985,65.0,0,14,10.0,127.0
13986,65.0,15,14,7.0,127.0
13987,41.0,0,29,12.0,127.0
13988,65.0,0,14,10.0,127.0
13989,65.0,0,29,2.0,127.0
13990,65.0,0,14,8.0,127.0
13991,89.0,0,29,0.0,127.0
13992,53.0,15,29,3.0,127.0
13993,53.0,0,29,11.0,127.0
13994,77.0,0,29,1.0,127.0
13995,77.0,0,29,0.0,127.0
13996,63.0,15,14,7.0,127.0
13997,63.0,0,14,8.0,127.0
13998,63.0,0,14,10.0,127.0
13999,51.0,0,29,3.0,127.0
14000,63.0,0,14,10.0,127.0
14001,75.0,0,29,0.0,127.0
14002,87.0,0,29,0.0,127.0
14003,51.0,0,29,11.0,127.0
14004,63.0,0,29,2.0,127.0
14005,75.0,0,29,1.0,127.0
14006,63.0,0,14,8.0,127.0
14007,63.0,15,14,7.0,127.0
14008,39.0,0,29,12.0,127.0
14009,62.0,0,14,7.0,127.0
14010,62.0,0,14,8.0,127.0
14011,62.0,0,14,10.0,127.0
14012,62.0,15,14,7.0,127.0
14013,74.0,0,29,1.0,127.0
14014,62.0,0,14,8.0,127.0
14015,62.0,0,14,10.0,127.0
14016,74.0,0,29,0.0,127.0
14017,86.0,0,29,0.0,127.0
14018,50.0,0,29,11.0,127.0
14019,62.0,15,29,2.0,127.0
14020,50.0,0,29,3.0,127.0
14021,38.0,0,29,12.0,127.0
14022,58.0,0,14,8.0,127.0
14023,58.0,0,14,7.0,127.0
14024,58.0,0,14,10.0,127.0
14025,58.0,0,29,2.0,127.0
14026,82.0,0,29,0.0,127.0
14027,58.0,15,14,8.0,127.0
14028,58.0,0,14,7.0,127.0
14029,46.0,0,29,11.0,127.0
14030,70.0,0,29,1.0,127.0
14031,58.0,0,14,10.0,127.0
14032,46.0,0,29,3.0,127.0
14033,34.0,15,29,12.0,127.0
14034,60.0,0,14,8.0,127.0
14035,60.0,0,14,10.0,127.0
14036,60.0,0,14,7.0,127.0
14037,72.0,0,29,1.0,127.0
14038,60.0,0,14,10.0,127.0
14039,60.0,0,14,7.0,127.0
14040,48.0,15,29,3.0,127.0
14041,60.0,0,29,2.0,127.0
14042,84.0,0,29,0.0,127.0
14043,60.0,15,14,8.0,127.0
14044,36.0,0,29,12.0,127.0
14045,48.0,0,29,11.0,127.0
14046,62.0,0,14,8.0,127.0
14047,62.0,0,14,10.0,127.0
14048,62.0,0,14,7.0,127.0
14049,62.0,0,29,2.0,127.0
14050,62.0,15,14,7.0,127.0
14051,50.0,0,29,11.0,127.0
14052,62.0,0,14,10.0,127.0
14053,38.0,15,29,12.0,127.0
14054,50.0,0,29,3.0,127.0
14055,86.0,0,29,0.0,127.0
14056,62.0,0,14,8.0,127.0
14057,74.0,0,29,1.0,127.0
14058,63.0,0,14,7.0,127.0
14059,63.0,15,14,7.0,127.0
14060,58.0,15,14,7.0,127.0
14061,51.0,15,59,11.0,127.0
14062,87.0,0,59,0.0,127.0
14063,58.0,15,14,7.0,127.0
14064,75.0,0,59,1.0,127.0
14065,63.0,0,59,10.0,127.0
14066,51.0,0,59,3.0,127.0
14067,63.0,0,59,2.0,127.0
14068,63.0,0,59,8.0,127.0
14069,39.0,0,59,12.0,127.0
14070,63.0,15,14,7.0,127.0
14071,63.0,15,14,7.0,127.0
14072,67.0,0,14,7.0,127.0
14073,63.0,0,29,4.0,127.0
14074,51.0,0,29,3.0,127.0
14075,43.0,15,29,3.0,127.0
14076,67.0,15,14,7.0,127.0
14077,55.0,0,29,4.0,127.0
14078,70.0,0,14,7.0,127.0
14079,70.0,15,14,7.0,127.0
14080,67.0,15,14,7.0,127.0
14081,67.0,15,14,7.0,127.0
14082,63.0,15,14,7.0,127.0
14083,63.0,15,14,7.0,127.0
14084,51.0,15,89,3.0,127.0
14085,63.0,0,89,4.0,127.0
14086,67.0,0,92,4.0,127.0
14087,55.0,0,92,3.0,127.0
14088,58.0,0,14,7.0,127.0
14089,63.0,0,29,4.0,127.0
14090,55.0,15,29,4.0,127.0
14091,43.0,0,29,3.0,127.0
14092,58.0,15,14,7.0,127.0
14093,51.0,0,29,3.0,127.0
14094,65.0,0,14,7.0,127.0
14095,65.0,15,14,7.0,127.0
14096,58.0,15,14,7.0,127.0
14097,46.0,0,59,11.0,127.0
14098,34.0,0,59,12.0,127.0
14099,58.0,0,59,4.0,127.0
14100,53.0,0,59,3.0,127.0
14101,58.0,15,14,7.0,127.0
14102,65.0,0,59,4.0,127.0
14103,46.0,15,59,3.0,127.0
14104,65.0,15,14,7.0,127.0
14105,65.0,15,14,7.0,127.0
14106,68.0,0,14,7.0,127.0
14107,46.0,15,29,3.0,127.0
14108,65.0,0,29,4.0,127.0
14109,68.0,15,14,7.0,127.0
14110,53.0,0,29,3.0,127.0
14111,58.0,0,29,4.0,127.0
14112,70.0,0,14,7.0,127.0
14113,70.0,15,14,7.0,127.0
14114,68.0,15,14,7.0,127.0
14115,68.0,15,14,7.0,127.0
14116,65.0,15,14,7.0,127.0
14117,65.0,0,89,4.0,127.0
14118,65.0,15,14,7.0,127.0
14119,53.0,15,89,3.0,127.0
14120,56.0,0,92,3.0,127.0
14121,68.0,0,92,4.0,127.0
14122,58.0,0,14,7.0,127.0
14123,46.0,15,29,3.0,127.0
14124,53.0,0,29,3.0,127.0
14125,58.0,0,29,4.0,127.0
14126,58.0,15,14,7.0,127.0
14127,65.0,0,29,4.0,127.0
14128,67.0,0,14,7.0,127.0
14129,63.0,0,14,8.0,127.0
14130,67.0,0,14,7.0,127.0
14131,51.0,0,29,3.0,127.0
14132,43.0,0,29,3.0,127.0
14133,63.0,15,14,8.0,127.0
14134,55.0,0,29,4.0,127.0
14135,63.0,15,29,4.0,127.0
14136,58.0,0,14,8.0,127.0
14137,63.0,0,14,7.0,127.0
14138,55.0,0,29,4.0,127.0
14139,63.0,0,29,4.0,127.0
14140,39.0,0,59,12.0,127.0
14141,58.0,0,14,8.0,127.0
14142,51.0,0,29,3.0,127.0
14143,43.0,15,29,3.0,127.0
14144,63.0,15,14,7.0,127.0
14145,51.0,0,59,11.0,127.0
14146,67.0,0,14,7.0,127.0
14147,63.0,15,14,8.0,127.0
14148,55.0,0,29,4.0,127.0
14149,51.0,0,29,3.0,127.0
14150,63.0,0,29,4.0,127.0
14151,63.0,15,14,8.0,127.0
14152,43.0,0,29,3.0,127.0
14153,67.0,0,14,7.0,127.0
14154,70.0,0,14,7.0,127.0
14155,67.0,0,14,8.0,127.0
14156,63.0,0,29,4.0,127.0
14157,67.0,15,14,8.0,127.0
14158,55.0,0,29,4.0,127.0
14159,58.0,0,29,4.0,127.0
14160,75.0,15,29,2.0,127.0
14161,51.0,0,29,3.0,127.0
14162,43.0,0,29,3.0,127.0
14163,67.0,0,29,2.0,127.0
14164,70.0,0,14,7.0,127.0
14165,70.0,0,14,8.0,127.0
14166,75.0,0,14,7.0,127.0
14167,70.0,15,14,8.0,127.0
14168,75.0,0,14,7.0,127.0
14169,70.0,15,14,7.0,127.0
14170,67.0,0,14,8.0,127.0
14171,70.0,15,14,7.0,127.0
14172,67.0,0,14,8.0,127.0
14173,67.0,15,14,7.0,127.0
14174,63.0,0,14,8.0,127.0
14175,67.0,15,14,7.0,127.0
14176,63.0,0,14,8.0,127.0
14177,51.0,0,89,3.0,127.0
14178,63.0,0,89,4.0,127.0
14179,67.0,0,92,4.0,127.0
14180,70.0,0,92,2.0,127.0
14181,79.0,0,92,2.0,127.0
14182,55.0,15,92,3.0,127.0
14183,58.0,0,14,8.0,127.0
14184,63.0,0,14,7.0,127.0
14185,63.0,0,14,7.0,127.0
14186,51.0,0,29,3.0,127.0
14187,43.0,0,29,3.0,127.0
14188,75.0,0,29,2.0,127.0
14189,58.0,15,29,4.0,127.0
14190,55.0,0,29,4.0,127.0
14191,63.0,0,29,4.0,127.0
14192,58.0,15,14,8.0,127.0
14193,67.0,0,29,2.0,127.0
14194,65.0,0,14,7.0,127.0
14195,62.0,0,14,8.0,127.0
14196,65.0,15,14,7.0,127.0
14197,65.0,15,29,4.0,127.0
14198,53.0,0,29,3.0,127.0
14199,46.0,0,29,3.0,127.0
14200,62.0,0,14,8.0,127.0
14201,58.0,0,29,4.0,127.0
14202,62.0,0,14,8.0,127.0
14203,65.0,0,14,7.0,127.0
14204,46.0,0,59,11.0,127.0
14205,62.0,15,14,8.0,127.0
14206,46.0,15,29,3.0,127.0
14207,34.0,0,59,12.0,127.0
14208,53.0,0,29,3.0,127.0
14209,58.0,0,29,4.0,127.0
14210,65.0,0,29,4.0,127.0
14211,65.0,0,59,2.0,127.0
14212,74.0,0,59,2.0,127.0
14213,65.0,0,14,7.0,127.0
14214,65.0,0,14,8.0,127.0
14215,68.0,0,14,7.0,127.0
14216,65.0,15,14,8.0,127.0
14217,58.0,0,29,4.0,127.0
14218,65.0,0,29,4.0,127.0
14219,53.0,0,29,3.0,127.0
14220,46.0,15,29,3.0,127.0
14221,68.0,0,14,7.0,127.0
14222,74.0,0,14,7.0,127.0
14223,68.0,0,14,8.0,127.0
14224,65.0,0,29,4.0,127.0
14225,58.0,0,29,4.0,127.0
14226,74.0,15,14,7.0,127.0
14227,68.0,0,29,2.0,127.0
14228,68.0,0,14,8.0,127.0
14229,53.0,15,29,3.0,127.0
14230,46.0,0,29,3.0,127.0
14231,77.0,0,29,2.0,127.0
14232,77.0,15,14,7.0,127.0
14233,74.0,0,14,8.0,127.0
14234,74.0,15,14,8.0,127.0
14235,77.0,0,14,7.0,127.0
14236,74.0,15,14,7.0,127.0
14237,68.0,0,14,8.0,127.0
14238,74.0,15,14,7.0,127.0
14239,68.0,0,14,8.0,127.0
14240,68.0,0,14,7.0,127.0
14241,65.0,15,14,8.0,127.0
14242,68.0,0,14,7.0,127.0
14243,65.0,15,14,8.0,127.0
14244,65.0,0,89,4.0,127.0
14245,58.0,0,89,4.0,127.0
14246,53.0,0,89,3.0,127.0
14247,74.0,0,92,2.0,127.0
14248,68.0,0,92,4.0,127.0
14249,80.0,0,92,2.0,127.0
14250,56.0,0,92,3.0,127.0
14251,62.0,0,14,8.0,127.0
14252,65.0,0,14,7.0,127.0
14253,68.0,0,29,2.0,127.0
14254,53.0,0,29,3.0,127.0
14255,58.0,0,29,4.0,127.0
14256,65.0,0,29,4.0,127.0
14257,62.0,0,14,8.0,127.0
14258,77.0,15,29,2.0,127.0
14259,46.0,0,29,3.0,127.0
14260,65.0,15,14,7.0,127.0
14261,67.0,0,14,7.0,127.0
14262,63.0,0,14,8.0,127.0
14263,58.0,0,14,10.0,127.0
14264,58.0,0,14,10.0,127.0
14265,67.0,0,14,7.0,127.0
14266,63.0,15,14,8.0,127.0
14267,51.0,0,29,3.0,127.0
14268,75.0,0,29,2.0,127.0
14269,67.0,0,29,2.0,127.0
14270,63.0,0,29,4.0,127.0
14271,55.0,15,29,4.0,127.0
14272,55.0,0,32,3.0,127.0
14273,79.0,0,32,2.0,127.0
14274,63.0,15,14,8.0,127.0
14275,58.0,0,14,4.0,127.0
14276,67.0,0,14,7.0,127.0
14277,58.0,0,14,10.0,127.0
14278,67.0,0,29,2.0,127.0
14279,63.0,0,14,8.0,127.0
14280,75.0,0,29,2.0,127.0
14281,58.0,0,14,10.0,127.0
14282,55.0,0,29,4.0,127.0
14283,63.0,0,29,4.0,127.0
14284,51.0,0,59,11.0,127.0
14285,39.0,0,59,12.0,127.0
14286,75.0,0,59,5.0,127.0
14287,63.0,0,59,5.0,127.0
14288,51.0,0,59,6.0,127.0
14289,67.0,15,14,7.0,127.0
14290,51.0,0,29,3.0,127.0
14291,43.0,0,29,3.0,127.0
14292,67.0,0,14,8.0,127.0
14293,58.0,0,14,4.0,127.0
14294,70.0,0,14,7.0,127.0
14295,63.0,0,14,10.0,127.0
14296,43.0,15,14,3.0,127.0
14297,51.0,0,14,3.0,127.0
14298,75.0,0,29,2.0,127.0
14299,67.0,0,29,2.0,127.0
14300,63.0,0,29,4.0,127.0
14301,70.0,15,14,7.0,127.0
14302,67.0,0,14,8.0,127.0
14303,63.0,0,14,10.0,127.0
14304,55.0,0,29,4.0,127.0
14305,58.0,0,14,4.0,127.0
14306,75.0,0,14,7.0,127.0
14307,51.0,0,14,3.0,127.0
14308,67.0,0,14,10.0,127.0
14309,43.0,0,14,3.0,127.0
14310,70.0,15,14,8.0,127.0
14311,75.0,0,14,7.0,127.0
14312,79.0,0,29,1.0,127.0
14313,67.0,15,14,10.0,127.0
14314,67.0,0,29,2.0,127.0
14315,75.0,0,29,2.0,127.0
14316,70.0,0,14,8.0,127.0
14317,63.0,0,29,4.0,127.0
14318,55.0,0,29,4.0,127.0
14319,87.0,0,29,0.0,127.0
14320,82.0,0,29,0.0,127.0
14321,82.0,0,29,1.0,127.0
14322,70.0,0,14,10.0,127.0
14323,75.0,0,14,8.0,127.0
14324,79.0,0,14,7.0,127.0
14325,75.0,0,14,8.0,127.0
14326,79.0,0,14,7.0,127.0
14327,63.0,0,29,4.0,127.0
14328,51.0,0,29,3.0,127.0
14329,70.0,15,14,10.0,127.0
14330,55.0,15,32,3.0,127.0
14331,67.0,0,32,4.0,127.0
14332,67.0,0,14,10.0,127.0
14333,70.0,0,14,8.0,127.0
14334,75.0,0,14,7.0,127.0
14335,63.0,0,29,4.0,127.0
14336,55.0,15,29,4.0,127.0
14337,58.0,0,29,4.0,127.0
14338,43.0,0,29,3.0,127.0
14339,39.0,0,29,12.0,127.0
14340,51.0,0,29,11.0,127.0
14341,75.0,0,14,7.0,127.0
14342,51.0,0,29,3.0,127.0
14343,67.0,15,14,10.0,127.0
14344,70.0,0,14,8.0,127.0
14345,43.0,0,14,3.0,127.0
14346,70.0,0,14,7.0,127.0
14347,63.0,0,14,4.0,127.0
14348,63.0,0,14,10.0,127.0
14349,58.0,0,14,4.0,127.0
14350,51.0,0,14,3.0,127.0
14351,67.0,15,14,8.0,127.0
14352,55.0,0,14,4.0,127.0
14353,51.0,0,29,11.0,127.0
14354,70.0,0,14,7.0,127.0
14355,67.0,15,14,8.0,127.0
14356,63.0,0,14,10.0,127.0
14357,82.0,0,89,0.0,127.0
14358,39.0,0,29,12.0,127.0
14359,79.0,0,89,1.0,127.0
14360,82.0,0,89,1.0,127.0
14361,79.0,0,92,2.0,127.0
14362,70.0,0,92,2.0,127.0
14363,91.0,0,92,0.0,127.0
14364,63.0,0,14,8.0,127.0
14365,58.0,0,14,10.0,127.0
14366,43.0,0,14,3.0,127.0
14367,58.0,0,14,4.0,127.0
14368,51.0,0,14,3.0,127.0
14369,63.0,0,14,4.0,127.0
14370,55.0,0,14,4.0,127.0
14371,67.0,0,14,7.0,127.0
14372,63.0,0,14,8.0,127.0
14373,75.0,0,29,2.0,127.0
14374,39.0,0,29,12.0,127.0
14375,67.0,15,14,7.0,127.0
14376,67.0,0,29,2.0,127.0
14377,58.0,0,14,10.0,127.0
14378,87.0,0,29,0.0,127.0
14379,82.0,0,29,0.0,127.0
14380,51.0,0,29,11.0,127.0
14381,82.0,15,29,1.0,127.0
14382,79.0,0,29,1.0,127.0
14383,68.0,0,14,7.0,127.0
14384,58.0,0,14,4.0,127.0
14385,62.0,0,14,10.0,127.0
14386,46.0,0,14,3.0,127.0
14387,65.0,0,14,8.0,127.0
14388,65.0,0,14,2.0,127.0
14389,74.0,15,14,2.0,127.0
14390,53.0,0,14,3.0,127.0
14391,65.0,0,14,4.0,127.0
14392,62.0,15,14,10.0,127.0
14393,65.0,0,14,8.0,127.0
14394,68.0,0,14,7.0,127.0
14395,65.0,0,14,8.0,127.0
14396,68.0,15,14,2.0,127.0
14397,46.0,0,14,3.0,127.0
14398,53.0,0,14,3.0,127.0
14399,65.0,0,14,4.0,127.0
14400,58.0,0,14,4.0,127.0
14401,77.0,0,14,2.0,127.0
14402,62.0,0,14,10.0,127.0
14403,68.0,0,14,7.0,127.0
14404,86.0,0,59,0.0,127.0
14405,62.0,0,14,10.0,127.0
14406,65.0,15,14,8.0,127.0
14407,46.0,0,59,11.0,127.0
14408,68.0,0,14,7.0,127.0
14409,34.0,0,59,12.0,127.0
14410,46.0,0,59,6.0,127.0
14411,82.0,0,59,1.0,127.0
14412,80.0,0,59,1.0,127.0
14413,82.0,0,59,0.0,127.0
14414,70.0,0,59,5.0,127.0
14415,58.0,0,59,5.0,127.0
14416,65.0,0,14,10.0,127.0
14417,68.0,0,14,2.0,127.0
14418,53.0,0,14,3.0,127.0
14419,46.0,0,14,3.0,127.0
14420,68.0,0,14,8.0,127.0
14421,74.0,0,14,7.0,127.0
14422,77.0,0,14,2.0,127.0
14423,58.0,15,14,4.0,127.0
14424,65.0,0,14,4.0,127.0
14425,74.0,0,14,7.0,127.0
14426,65.0,15,14,10.0,127.0
14427,68.0,0,14,8.0,127.0
14428,77.0,0,14,7.0,127.0
14429,68.0,0,14,10.0,127.0
14430,46.0,0,14,3.0,127.0
14431,65.0,0,14,4.0,127.0
14432,58.0,0,14,4.0,127.0
14433,68.0,0,14,2.0,127.0
14434,74.0,0,14,8.0,127.0
14435,53.0,0,14,3.0,127.0
14436,77.0,0,14,2.0,127.0
14437,74.0,0,14,8.0,127.0
14438,82.0,15,29,1.0,127.0
14439,82.0,0,29,0.0,127.0
14440,77.0,0,14,7.0,127.0
14441,89.0,0,29,0.0,127.0
14442,80.0,0,29,1.0,127.0
14443,68.0,15,14,10.0,127.0
14444,77.0,0,14,8.0,127.0
14445,70.0,0,14,10.0,127.0
14446,80.0,0,14,7.0,127.0
14447,77.0,15,14,8.0,127.0
14448,65.0,0,29,4.0,127.0
14449,70.0,0,14,10.0,127.0
14450,53.0,0,29,3.0,127.0
14451,80.0,0,14,7.0,127.0
14452,56.0,0,32,3.0,127.0
14453,68.0,0,32,4.0,127.0
14454,77.0,0,14,7.0,127.0
14455,68.0,15,14,10.0,127.0
14456,74.0,0,14,8.0,127.0
14457,77.0,0,14,7.0,127.0
14458,46.0,0,29,11.0,127.0
14459,58.0,0,29,4.0,127.0
14460,34.0,0,29,12.0,127.0
14461,65.0,0,29,4.0,127.0
14462,68.0,0,14,10.0,127.0
14463,74.0,15,14,8.0,127.0
14464,53.0,0,29,3.0,127.0
14465,46.0,0,29,3.0,127.0
14466,53.0,0,14,3.0,127.0
14467,74.0,0,14,7.0,127.0
14468,68.0,0,14,8.0,127.0
14469,58.0,0,14,4.0,127.0
14470,65.0,0,14,4.0,127.0
14471,65.0,15,14,10.0,127.0
14472,46.0,0,14,3.0,127.0
14473,34.0,0,29,12.0,127.0
14474,86.0,0,89,0.0,127.0
14475,65.0,15,14,10.0,127.0
14476,68.0,0,14,8.0,127.0
14477,46.0,0,29,11.0,127.0
14478,74.0,0,14,7.0,127.0
14479,82.0,0,89,1.0,127.0
14480,80.0,0,89,1.0,127.0
14481,80.0,15,92,2.0,127.0
14482,74.0,0,92,2.0,127.0
14483,92.0,0,92,0.0,127.0
14484,53.0,0,14,3.0,127.0
14485,58.0,0,14,4.0,127.0
14486,62.0,0,14,10.0,127.0
14487,65.0,0,14,4.0,127.0
14488,68.0,0,14,7.0,127.0
14489,46.0,0,14,3.0,127.0
14490,65.0,15,14,8.0,127.0
14491,65.0,15,14,8.0,127.0
14492,82.0,0,29,0.0,127.0
14493,89.0,0,29,0.0,127.0
14494,68.0,0,29,2.0,127.0
14495,77.0,0,29,2.0,127.0
14496,62.0,0,14,10.0,127.0
14497,82.0,0,29,1.0,127.0
14498,80.0,0,29,1.0,127.0
14499,46.0,0,29,11.0,127.0
14500,34.0,0,29,12.0,127.0
14501,68.0,0,14,7.0,127.0
14502,67.0,0,14,7.0,127.0
14503,79.0,0,14,1.0,127.0
14504,63.0,0,14,8.0,127.0
14505,82.0,0,14,1.0,127.0
14506,82.0,0,29,0.0,127.0
14507,55.0,0,29,3.0,127.0
14508,82.0,0,14,7.0,127.0
14509,63.0,0,29,5.0,127.0
14510,87.0,0,29,0.0,127.0
14511,63.0,0,29,4.0,127.0
14512,70.0,15,14,8.0,127.0
14513,75.0,0,29,5.0,127.0
14514,75.0,0,29,2.0,127.0
14515,67.0,0,29,2.0,127.0
14516,51.0,15,32,3.0,127.0
14517,82.0,0,14,7.0,127.0
14518,70.0,0,14,2.0,127.0
14519,70.0,0,14,8.0,127.0
14520,79.0,0,14,2.0,127.0
14521,79.0,0,14,1.0,127.0
14522,82.0,0,14,1.0,127.0
14523,55.0,15,29,3.0,127.0
14524,39.0,0,59,12.0,127.0
14525,51.0,0,59,6.0,127.0
14526,58.0,0,29,3.0,127.0
14527,51.0,0,59,11.0,127.0
14528,87.0,0,29,0.0,127.0
14529,82.0,0,14,7.0,127.0
14530,70.0,0,29,5.0,127.0
14531,58.0,0,29,5.0,127.0
14532,58.0,0,59,10.0,127.0
14533,63.0,0,29,4.0,127.0
14534,82.0,0,29,0.0,127.0
14535,70.0,15,14,8.0,127.0
14536,70.0,0,14,8.0,127.0
14537,70.0,0,14,2.0,127.0
14538,55.0,0,14,3.0,127.0
14539,58.0,0,14,3.0,127.0
14540,79.0,0,14,2.0,127.0
14541,82.0,0,14,7.0,127.0
14542,82.0,0,14,1.0,127.0
14543,79.0,0,14,1.0,127.0
14544,70.0,0,29,5.0,127.0
14545,58.0,0,29,5.0,127.0
14546,82.0,15,29,0.0,127.0
14547,63.0,0,29,4.0,127.0
14548,70.0,15,14,8.0,127.0
14549,82.0,0,14,7.0,127.0
14550,87.0,0,29,0.0,127.0
14551,79.0,0,14,1.0,127.0
14552,70.0,0,14,8.0,127.0
14553,82.0,0,14,1.0,127.0
14554,55.0,0,14,3.0,127.0
14555,58.0,0,14,3.0,127.0
14556,79.0,0,14,2.0,127.0
14557,82.0,0,14,7.0,127.0
14558,70.0,0,14,2.0,127.0
14559,82.0,0,14,7.0,127.0
14560,70.0,15,14,8.0,127.0
14561,58.0,0,119,4.0,127.0
14562,63.0,0,29,10.0,127.0
14563,82.0,0,29,0.0,127.0
14564,87.0,0,29,0.0,127.0
14565,63.0,15,29,4.0,127.0
14566,70.0,0,29,5.0,127.0
14567,58.0,0,29,5.0,127.0
14568,51.0,0,29,11.0,127.0
14569,39.0,0,29,12.0,127.0
14570,70.0,0,14,8.0,127.0
14571,82.0,0,14,7.0,127.0
14572,70.0,0,14,8.0,127.0
14573,82.0,15,14,7.0,127.0
14574,82.0,0,14,7.0,127.0
14575,70.0,15,14,8.0,127.0
14576,82.0,0,14,7.0,127.0
14577,70.0,15,14,8.0,127.0
14578,82.0,15,14,7.0,127.0
14579,70.0,0,14,8.0,127.0
14580,58.0,0,89,3.0,127.0
14581,70.0,15,14,8.0,127.0
14582,82.0,0,14,7.0,127.0
14583,75.0,0,89,1.0,127.0
14584,82.0,0,89,0.0,127.0
14585,82.0,0,89,1.0,127.0
14586,43.0,0,92,12.0,127.0
14587,55.0,0,92,11.0,127.0
14588,67.0,0,92,10.0,127.0
14589,63.0,0,92,3.0,127.0
14590,87.0,0,92,0.0,127.0
14591,75.0,15,92,2.0,127.0
14592,67.0,0,92,2.0,127.0
14593,82.0,0,14,7.0,127.0
14594,70.0,0,14,8.0,127.0
14595,82.0,0,29,1.0,127.0
14596,79.0,0,29,1.0,127.0
14597,63.0,0,29,4.0,127.0
14598,82.0,0,29,0.0,127.0
14599,91.0,0,29,0.0,127.0
14600,58.0,0,119,4.0,127.0
14601,70.0,0,239,4.0,127.0
14602,55.0,0,29,3.0,127.0
14603,70.0,15,29,2.0,127.0
14604,39.0,0,29,12.0,127.0
14605,63.0,0,29,10.0,127.0
14606,70.0,15,14,8.0,127.0
14607,58.0,0,29,3.0,127.0
14608,82.0,0,14,7.0,127.0
14609,79.0,0,29,2.0,127.0
14610,51.0,0,29,11.0,127.0
14611,70.0,0,14,8.0,127.0
14612,82.0,0,14,7.0,127.0
14613,56.0,0,14,3.0,127.0
14614,58.0,0,14,3.0,127.0
14615,77.0,0,29,2.0,127.0
14616,68.0,0,29,2.0,127.0
14617,70.0,0,14,8.0,127.0
14618,82.0,0,29,0.0,127.0
14619,92.0,0,29,0.0,127.0
14620,65.0,0,29,4.0,127.0
14621,82.0,0,29,1.0,127.0
14622,58.0,0,149,5.0,127.0
14623,70.0,0,149,5.0,127.0
14624,80.0,0,29,1.0,127.0
14625,82.0,15,14,7.0,127.0
14626,82.0,0,14,7.0,127.0
14627,70.0,0,14,8.0,127.0
14628,56.0,0,14,3.0,127.0
14629,58.0,0,14,3.0,127.0
14630,77.0,0,29,1.0,127.0
14631,62.0,15,59,10.0,127.0
14632,82.0,0,14,7.0,127.0
14633,70.0,0,29,2.0,127.0
14634,46.0,0,59,6.0,127.0
14635,50.0,0,59,11.0,127.0
14636,65.0,0,29,4.0,127.0
14637,65.0,0,29,2.0,127.0
14638,38.0,0,59,12.0,127.0
14639,70.0,15,29,5.0,127.0
14640,70.0,15,14,8.0,127.0
14641,89.0,0,29,0.0,127.0
14642,58.0,0,29,5.0,127.0
14643,82.0,0,29,1.0,127.0
14644,82.0,0,29,0.0,127.0
14645,58.0,0,14,3.0,127.0
14646,56.0,0,14,3.0,127.0
14647,70.0,0,14,8.0,127.0
14648,82.0,0,14,7.0,127.0
14649,70.0,0,29,2.0,127.0
14650,82.0,15,14,7.0,127.0
14651,77.0,15,29,1.0,127.0
14652,89.0,0,29,0.0,127.0
14653,82.0,0,29,0.0,127.0
14654,82.0,0,29,1.0,127.0
14655,58.0,0,29,5.0,127.0
14656,70.0,0,29,5.0,127.0
14657,70.0,0,14,8.0,127.0
14658,65.0,0,29,2.0,127.0
14659,65.0,0,29,4.0,127.0
14660,56.0,0,14,3.0,127.0
14661,58.0,0,14,3.0,127.0
14662,82.0,0,14,7.0,127.0
14663,70.0,0,14,8.0,127.0
14664,77.0,0,29,1.0,127.0
14665,70.0,0,29,2.0,127.0
14666,65.0,0,29,4.0,127.0
14667,65.0,0,29,2.0,127.0
14668,82.0,0,29,1.0,127.0
14669,41.0,0,29,12.0,127.0
14670,82.0,0,14,7.0,127.0
14671,58.0,0,29,5.0,127.0
14672,70.0,15,14,8.0,127.0
14673,65.0,0,29,10.0,127.0
14674,53.0,0,29,11.0,127.0
14675,89.0,0,29,0.0,127.0
14676,70.0,15,29,5.0,127.0
14677,82.0,0,29,0.0,127.0
14678,70.0,0,14,8.0,127.0
14679,82.0,0,14,7.0,127.0
14680,70.0,15,14,8.0,127.0
14681,82.0,0,14,7.0,127.0
14682,82.0,15,14,7.0,127.0
14683,70.0,0,14,8.0,127.0
14684,82.0,15,14,7.0,127.0
14685,70.0,0,14,8.0,127.0
14686,70.0,0,14,8.0,127.0
14687,82.0,15,14,7.0,127.0
14688,82.0,0,14,7.0,127.0
14689,70.0,15,14,8.0,127.0
14690,58.0,0,89,3.0,127.0
14691,70.0,0,89,2.0,127.0
14692,82.0,0,89,0.0,127.0
14693,74.0,0,89,1.0,127.0
14694,82.0,0,89,1.0,127.0
14695,44.0,0,92,12.0,127.0
14696,68.0,0,92,10.0,127.0
14697,65.0,0,92,3.0,127.0
14698,58.0,0,92,4.0,127.0
14699,56.0,0,92,11.0,127.0
14700,62.0,0,92,2.0,127.0
14701,86.0,15,92,0.0,127.0
14702,70.0,0,14,8.0,127.0
14703,82.0,0,14,7.0,127.0
14704,53.0,0,29,11.0,127.0
14705,77.0,0,29,1.0,127.0
14706,82.0,0,29,1.0,127.0
14707,65.0,0,29,10.0,127.0
14708,82.0,15,14,7.0,127.0
14709,56.0,0,29,3.0,127.0
14710,70.0,0,29,2.0,127.0
14711,65.0,0,29,2.0,127.0
14712,89.0,0,29,0.0,127.0
14713,70.0,0,14,8.0,127.0
14714,41.0,0,29,12.0,127.0
14715,65.0,0,29,4.0,127.0
14716,70.0,0,239,4.0,127.0
14717,58.0,15,29,3.0,127.0
14718,82.0,0,29,0.0,127.0
14719,70.0,0,14,8.0,127.0
14720,58.0,0,14,3.0,127.0
14721,55.0,0,14,3.0,127.0
14722,82.0,0,14,0.0,127.0
14723,82.0,15,14,7.0,127.0
14724,63.0,0,14,4.0,127.0
14725,79.0,0,14,1.0,127.0
14726,82.0,0,14,1.0,127.0
14727,91.0,0,14,0.0,127.0
14728,70.0,0,29,4.0,127.0
14729,51.0,0,29,11.0,127.0
14730,46.0,0,29,4.0,127.0
14731,39.0,0,29,12.0,127.0
14732,67.0,0,29,2.0,127.0
14733,70.0,0,29,2.0,127.0
14734,63.0,0,29,10.0,127.0
14735,82.0,15,14,7.0,127.0
14736,70.0,0,14,8.0,127.0
14737,58.0,15,14,3.0,127.0
14738,82.0,0,14,1.0,127.0
14739,91.0,0,14,0.0,127.0
14740,82.0,0,14,0.0,127.0
14741,55.0,0,14,3.0,127.0
14742,63.0,0,14,4.0,127.0
14743,70.0,0,14,8.0,127.0
14744,82.0,0,14,7.0,127.0
14745,79.0,0,14,1.0,127.0
14746,67.0,0,29,2.0,127.0
14747,51.0,0,59,6.0,127.0
14748,70.0,0,29,2.0,127.0
14749,39.0,0,29,12.0,127.0
14750,46.0,0,29,4.0,127.0
14751,70.0,0,179,5.0,127.0
14752,58.0,0,179,5.0,127.0
14753,51.0,0,29,11.0,127.0
14754,70.0,15,14,8.0,127.0
14755,82.0,0,14,7.0,127.0
14756,63.0,0,29,10.0,127.0
14757,70.0,0,29,4.0,127.0
14758,55.0,0,14,3.0,127.0
14759,82.0,0,14,7.0,127.0
14760,58.0,0,14,3.0,127.0
14761,91.0,0,14,0.0,127.0
14762,82.0,0,14,0.0,127.0
14763,63.0,0,14,4.0,127.0
14764,79.0,0,14,1.0,127.0
14765,82.0,0,14,1.0,127.0
14766,70.0,0,14,8.0,127.0
14767,67.0,0,29,2.0,127.0
14768,70.0,0,29,2.0,127.0
14769,51.0,15,29,11.0,127.0
14770,82.0,15,14,7.0,127.0
14771,70.0,0,14,8.0,127.0
14772,63.0,0,29,10.0,127.0
14773,39.0,0,29,12.0,127.0
14774,70.0,0,29,4.0,127.0
14775,46.0,0,29,4.0,127.0
14776,82.0,0,14,1.0,127.0
14777,70.0,0,14,8.0,127.0
14778,79.0,0,14,1.0,127.0
14779,58.0,0,14,3.0,127.0
14780,55.0,0,14,3.0,127.0
14781,63.0,0,14,4.0,127.0
14782,82.0,0,14,7.0,127.0
14783,82.0,0,14,0.0,127.0
14784,91.0,0,14,0.0,127.0
14785,70.0,15,14,8.0,127.0
14786,70.0,15,29,2.0,127.0
14787,46.0,0,29,4.0,127.0
14788,70.0,0,29,4.0,127.0
14789,63.0,0,29,10.0,127.0
14790,58.0,0,59,5.0,127.0
14791,70.0,0,59,5.0,127.0
14792,51.0,0,29,11.0,127.0
14793,67.0,0,29,2.0,127.0
14794,82.0,0,14,7.0,127.0
14795,39.0,0,29,12.0,127.0
14796,82.0,0,14,7.0,127.0
14797,70.0,0,14,8.0,127.0
14798,82.0,0,29,0.0,127.0
14799,70.0,0,29,4.0,127.0
14800,70.0,0,29,2.0,127.0
14801,70.0,15,14,8.0,127.0
14802,58.0,0,29,3.0,127.0
14803,46.0,15,29,4.0,127.0
14804,82.0,0,29,1.0,127.0
14805,82.0,0,14,7.0,127.0
14806,75.0,0,32,1.0,127.0
14807,63.0,0,32,2.0,127.0
14808,87.0,0,32,0.0,127.0
14809,63.0,0,32,3.0,127.0
14810,67.0,0,32,10.0,127.0
14811,67.0,0,32,4.0,127.0
14812,43.0,0,32,12.0,127.0
14813,55.0,0,32,11.0,127.0
14814,82.0,0,14,7.0,127.0
14815,70.0,0,14,8.0,127.0
14816,63.0,0,29,4.0,127.0
14817,46.0,0,29,4.0,127.0
14818,82.0,0,29,0.0,127.0
14819,58.0,0,29,3.0,127.0
14820,91.0,0,29,0.0,127.0
14821,70.0,0,29,4.0,127.0
14822,58.0,0,59,5.0,127.0
14823,39.0,0,29,12.0,127.0
14824,51.0,0,29,11.0,127.0
14825,55.0,15,29,3.0,127.0
14826,67.0,0,29,2.0,127.0
14827,70.0,0,29,2.0,127.0
14828,63.0,0,29,10.0,127.0
14829,70.0,15,14,8.0,127.0
14830,51.0,0,59,6.0,127.0
14831,82.0,0,14,7.0,127.0
14832,70.0,0,59,5.0,127.0
14833,82.0,0,29,1.0,127.0
14834,79.0,0,29,1.0,127.0
14835,70.0,0,14,8.0,127.0
14836,39.0,15,14,12.0,127.0
14837,67.0,0,14,2.0,127.0
14838,51.0,0,14,11.0,127.0
14839,70.0,0,14,2.0,127.0
14840,91.0,0,14,0.0,127.0
14841,58.0,0,14,3.0,127.0
14842,55.0,0,14,3.0,127.0
14843,63.0,0,14,4.0,127.0
14844,79.0,0,14,1.0,127.0
14845,82.0,0,14,7.0,127.0
14846,63.0,0,14,10.0,127.0
14847,46.0,0,29,4.0,127.0
14848,82.0,0,29,0.0,127.0
14849,82.0,15,14,7.0,127.0
14850,70.0,0,29,4.0,127.0
14851,70.0,0,14,8.0,127.0
14852,82.0,0,29,1.0,127.0
14853,70.0,0,14,2.0,127.0
14854,91.0,15,14,0.0,127.0
14855,63.0,0,14,4.0,127.0
14856,79.0,0,14,1.0,127.0
14857,55.0,0,14,3.0,127.0
14858,58.0,0,14,3.0,127.0
14859,82.0,0,14,7.0,127.0
14860,39.0,0,14,12.0,127.0
14861,51.0,0,14,11.0,127.0
14862,67.0,0,14,2.0,127.0
14863,63.0,0,14,10.0,127.0
14864,70.0,0,14,8.0,127.0
14865,58.0,0,59,5.0,127.0
14866,70.0,0,14,8.0,127.0
14867,70.0,0,29,4.0,127.0
14868,46.0,0,29,4.0,127.0
14869,82.0,0,29,0.0,127.0
14870,82.0,15,14,7.0,127.0
14871,82.0,0,29,1.0,127.0
14872,70.0,0,59,5.0,127.0
14873,92.0,0,14,0.0,127.0
14874,82.0,0,14,7.0,127.0
14875,56.0,0,14,3.0,127.0
14876,38.0,0,14,12.0,127.0
14877,58.0,0,14,3.0,127.0
14878,68.0,0,14,2.0,127.0
14879,80.0,0,14,1.0,127.0
14880,62.0,0,14,10.0,127.0
14881,58.0,0,14,4.0,127.0
14882,70.0,0,14,8.0,127.0
14883,50.0,15,14,11.0,127.0
14884,82.0,0,29,0.0,127.0
14885,70.0,0,29,4.0,127.0
14886,46.0,0,29,4.0,127.0
14887,70.0,0,14,8.0,127.0
14888,70.0,0,29,2.0,127.0
14889,82.0,0,29,1.0,127.0
14890,82.0,15,14,7.0,127.0
14891,65.0,0,14,10.0,127.0
14892,77.0,0,14,1.0,127.0
14893,65.0,0,14,4.0,127.0
14894,65.0,0,14,2.0,127.0
14895,89.0,0,14,0.0,127.0
14896,82.0,0,14,7.0,127.0
14897,70.0,0,14,8.0,127.0
14898,56.0,0,14,3.0,127.0
14899,58.0,0,14,3.0,127.0
14900,53.0,0,14,11.0,127.0
14901,41.0,0,14,12.0,127.0
14902,70.0,15,29,2.0,127.0
14903,70.0,0,59,5.0,127.0
14904,58.0,0,59,5.0,127.0
14905,46.0,0,29,4.0,127.0
14906,82.0,0,29,0.0,127.0
14907,46.0,0,59,6.0,127.0
14908,82.0,15,14,7.0,127.0
14909,70.0,0,29,4.0,127.0
14910,70.0,0,14,8.0,127.0
14911,82.0,0,29,1.0,127.0
14912,89.0,0,14,0.0,127.0
14913,65.0,0,14,2.0,127.0
14914,82.0,15,14,7.0,127.0
14915,70.0,0,14,8.0,127.0
14916,65.0,0,14,4.0,127.0
14917,77.0,0,14,1.0,127.0
14918,41.0,0,14,12.0,127.0
14919,65.0,0,14,10.0,127.0
14920,53.0,0,14,11.0,127.0
14921,58.0,0,14,3.0,127.0
14922,56.0,0,14,3.0,127.0
14923,46.0,0,29,4.0,127.0
14924,70.0,0,29,2.0,127.0
14925,82.0,0,29,1.0,127.0
14926,82.0,0,29,0.0,127.0
14927,70.0,0,29,4.0,127.0
14928,70.0,15,14,8.0,127.0
14929,82.0,0,14,7.0,127.0
14930,65.0,0,14,10.0,127.0
14931,65.0,0,14,4.0,127.0
14932,65.0,15,14,2.0,127.0
14933,41.0,0,14,12.0,127.0
14934,53.0,0,14,11.0,127.0
14935,82.0,0,14,7.0,127.0
14936,70.0,0,14,8.0,127.0
14937,56.0,0,14,3.0,127.0
14938,89.0,0,14,0.0,127.0
14939,58.0,0,14,3.0,127.0
14940,77.0,0,14,1.0,127.0
14941,46.0,0,29,4.0,127.0
14942,70.0,0,29,4.0,127.0
14943,82.0,0,29,0.0,127.0
14944,82.0,0,14,7.0,127.0
14945,70.0,0,29,2.0,127.0
14946,70.0,0,59,5.0,127.0
14947,58.0,0,59,5.0,127.0
14948,70.0,15,14,8.0,127.0
14949,82.0,0,29,1.0,127.0
14950,70.0,0,14,8.0,127.0
14951,82.0,0,14,7.0,127.0
14952,82.0,15,14,7.0,127.0
14953,70.0,0,14,8.0,127.0
14954,82.0,0,29,1.0,127.0
14955,46.0,0,29,4.0,127.0
14956,70.0,0,29,2.0,127.0
14957,82.0,0,29,0.0,127.0
14958,58.0,0,29,3.0,127.0
14959,70.0,0,29,4.0,127.0
14960,65.0,0,32,3.0,127.0
14961,56.0,0,32,11.0,127.0
14962,62.0,0,32,2.0,127.0
14963,86.0,0,32,0.0,127.0
14964,68.0,0,32,10.0,127.0
14965,68.0,0,32,4.0,127.0
14966,44.0,0,32,12.0,127.0
14967,74.0,15,32,1.0,127.0
14968,70.0,0,14,8.0,127.0
14969,82.0,0,14,7.0,127.0
14970,70.0,0,29,2.0,127.0
14971,65.0,0,29,2.0,127.0
14972,65.0,0,29,10.0,127.0
14973,46.0,0,29,4.0,127.0
14974,70.0,15,14,8.0,127.0
14975,46.0,0,59,6.0,127.0
14976,58.0,15,29,3.0,127.0
14977,41.0,0,29,12.0,127.0
14978,56.0,0,29,3.0,127.0
14979,82.0,0,29,0.0,127.0
14980,65.0,0,29,4.0,127.0
14981,89.0,0,29,0.0,127.0
14982,82.0,0,14,7.0,127.0
14983,53.0,0,29,11.0,127.0
14984,70.0,0,59,5.0,127.0
14985,82.0,0,29,1.0,127.0
14986,77.0,0,29,1.0,127.0
14987,70.0,0,29,4.0,127.0
14988,58.0,0,59,5.0,127.0
14989,82.0,0,14,7.0,127.0
14990,56.0,0,14,3.0,127.0
14991,58.0,0,14,3.0,127.0
14992,89.0,0,14,0.0,127.0
14993,53.0,0,14,11.0,127.0
14994,65.0,0,14,4.0,127.0
14995,65.0,0,14,10.0,127.0
14996,65.0,0,14,2.0,127.0
14997,41.0,0,14,12.0,127.0
14998,70.0,0,14,8.0,127.0
14999,77.0,0,14,1.0,127.0
15000,70.0,0,29,4.0,127.0
15001,46.0,0,29,4.0,127.0
15002,82.0,0,29,1.0,127.0
15003,70.0,0,29,2.0,127.0
15004,82.0,15,29,0.0,127.0
15005,70.0,15,14,8.0,127.0
15006,82.0,0,14,7.0,127.0
15007,58.0,0,14,3.0,127.0
15008,77.0,0,14,1.0,127.0
15009,70.0,0,14,8.0,127.0
15010,41.0,0,14,12.0,127.0
15011,65.0,0,14,4.0,127.0
15012,53.0,15,14,11.0,127.0
15013,65.0,0,14,2.0,127.0
15014,82.0,0,14,7.0,127.0
15015,89.0,0,14,0.0,127.0
15016,65.0,0,14,10.0,127.0
15017,56.0,0,14,3.0,127.0
15018,70.0,0,29,2.0,127.0
15019,58.0,0,59,5.0,127.0
15020,82.0,0,29,0.0,127.0
15021,70.0,0,29,4.0,127.0
15022,70.0,0,59,5.0,127.0
15023,70.0,0,14,8.0,127.0
15024,46.0,0,29,4.0,127.0
15025,82.0,15,14,7.0,127.0
15026,82.0,0,29,1.0,127.0
15027,63.0,0,14,4.0,127.0
15028,63.0,0,14,10.0,127.0
15029,58.0,0,14,3.0,127.0
15030,55.0,0,14,3.0,127.0
15031,67.0,0,14,2.0,127.0
15032,39.0,0,14,12.0,127.0
15033,82.0,0,14,7.0,127.0
15034,51.0,0,14,11.0,127.0
15035,70.0,0,14,8.0,127.0
15036,70.0,0,14,8.0,127.0
15037,70.0,0,29,2.0,127.0
15038,82.0,15,14,7.0,127.0
15039,46.0,15,29,4.0,127.0
15040,70.0,0,29,4.0,127.0
15041,82.0,0,29,0.0,127.0
15042,91.0,0,29,0.0,127.0
15043,82.0,0,29,1.0,127.0
15044,79.0,0,29,1.0,127.0
15045,55.0,0,14,3.0,127.0
15046,63.0,0,14,4.0,127.0
15047,39.0,0,14,12.0,127.0
15048,70.0,0,14,8.0,127.0
15049,58.0,0,14,3.0,127.0
15050,63.0,0,14,10.0,127.0
15051,82.0,0,14,7.0,127.0
15052,51.0,0,14,11.0,127.0
15053,67.0,0,14,2.0,127.0
15054,46.0,0,29,4.0,127.0
15055,91.0,15,29,0.0,127.0
15056,70.0,0,29,2.0,127.0
15057,58.0,0,59,5.0,127.0
15058,70.0,0,59,5.0,127.0
15059,70.0,0,29,4.0,127.0
15060,82.0,0,14,7.0,127.0
15061,82.0,0,29,1.0,127.0
15062,79.0,0,29,1.0,127.0
15063,82.0,0,29,0.0,127.0
15064,51.0,0,59,6.0,127.0
15065,70.0,15,14,8.0,127.0
15066,67.0,0,14,4.0,127.0
15067,55.0,0,14,11.0,127.0
15068,70.0,0,14,8.0,127.0
15069,55.0,0,14,3.0,127.0
15070,58.0,0,14,3.0,127.0
15071,43.0,0,14,12.0,127.0
15072,67.0,0,14,10.0,127.0
15073,82.0,0,14,7.0,127.0
15074,63.0,0,14,2.0,127.0
15075,70.0,0,29,2.0,127.0
15076,87.0,0,29,0.0,127.0
15077,82.0,0,29,0.0,127.0
15078,75.0,15,29,1.0,127.0
15079,82.0,0,29,1.0,127.0
15080,70.0,0,14,8.0,127.0
15081,82.0,15,14,7.0,127.0
15082,70.0,0,29,4.0,127.0
15083,46.0,0,29,4.0,127.0
15084,82.0,0,14,7.0,127.0
15085,63.0,0,14,4.0,127.0
15086,67.0,0,14,2.0,127.0
15087,51.0,0,14,11.0,127.0
15088,63.0,0,14,10.0,127.0
15089,58.0,0,14,3.0,127.0
15090,55.0,0,14,3.0,127.0
15091,39.0,0,14,12.0,127.0
15092,70.0,0,14,8.0,127.0
15093,70.0,15,14,8.0,127.0
15094,70.0,0,29,2.0,127.0
15095,82.0,0,14,7.0,127.0
15096,79.0,0,29,1.0,127.0
15097,82.0,0,29,0.0,127.0
15098,46.0,0,29,4.0,127.0
15099,70.0,15,29,4.0,127.0
15100,91.0,0,29,0.0,127.0
15101,58.0,0,59,5.0,127.0
15102,70.0,0,59,5.0,127.0
15103,82.0,0,29,1.0,127.0
15104,51.0,0,59,6.0,127.0
15105,58.0,0,14,3.0,127.0
15106,50.0,0,14,11.0,127.0
15107,56.0,0,14,3.0,127.0
15108,82.0,0,14,7.0,127.0
15109,70.0,0,14,8.0,127.0
15110,38.0,0,14,12.0,127.0
15111,62.0,0,14,10.0,127.0
15112,68.0,0,14,2.0,127.0
15113,58.0,0,14,4.0,127.0
15114,82.0,0,29,0.0,127.0
15115,70.0,0,29,2.0,127.0
15116,92.0,0,29,0.0,127.0
15117,82.0,0,29,1.0,127.0
15118,46.0,0,29,4.0,127.0
15119,70.0,0,29,4.0,127.0
15120,80.0,15,29,1.0,127.0
15121,82.0,0,14,7.0,127.0
15122,70.0,15,14,8.0,127.0
15123,70.0,0,14,8.0,127.0
15124,53.0,0,14,11.0,127.0
15125,41.0,0,14,12.0,127.0
15126,65.0,0,14,2.0,127.0
15127,65.0,0,14,4.0,127.0
15128,56.0,0,14,3.0,127.0
15129,58.0,15,14,3.0,127.0
15130,82.0,0,14,7.0,127.0
15131,65.0,0,14,10.0,127.0
15132,89.0,0,29,0.0,127.0
15133,82.0,0,29,0.0,127.0
15134,70.0,0,29,2.0,127.0
15135,82.0,15,14,7.0,127.0
15136,46.0,0,59,6.0,127.0
15137,70.0,0,14,8.0,127.0
15138,58.0,0,59,5.0,127.0
15139,77.0,0,29,1.0,127.0
15140,70.0,0,59,5.0,127.0
15141,70.0,0,29,4.0,127.0
15142,46.0,0,29,4.0,127.0
15143,82.0,0,29,1.0,127.0
15144,82.0,0,14,7.0,127.0
15145,56.0,0,14,3.0,127.0
15146,44.0,0,14,12.0,127.0
15147,58.0,0,14,3.0,127.0
15148,68.0,0,14,4.0,127.0
15149,70.0,0,14,8.0,127.0
15150,56.0,0,14,11.0,127.0
15151,62.0,0,14,2.0,127.0
15152,68.0,0,14,10.0,127.0
15153,82.0,0,29,1.0,127.0
15154,74.0,15,29,1.0,127.0
15155,70.0,15,14,8.0,127.0
15156,70.0,0,29,4.0,127.0
15157,46.0,0,29,4.0,127.0
15158,86.0,0,29,0.0,127.0
15159,82.0,0,29,0.0,127.0
15160,70.0,0,29,2.0,127.0
15161,82.0,0,14,7.0,127.0
15162,70.0,0,14,8.0,127.0
15163,65.0,0,14,10.0,127.0
15164,65.0,0,14,2.0,127.0
15165,82.0,0,14,7.0,127.0
15166,65.0,0,14,4.0,127.0
15167,41.0,0,14,12.0,127.0
15168,53.0,0,14,11.0,127.0
15169,56.0,0,14,3.0,127.0
15170,58.0,0,14,3.0,127.0
15171,46.0,0,59,6.0,127.0
15172,77.0,0,29,1.0,127.0
15173,70.0,0,14,8.0,127.0
15174,70.0,0,29,4.0,127.0
15175,82.0,0,29,0.0,127.0
15176,89.0,15,29,0.0,127.0
15177,70.0,0,29,2.0,127.0
15178,82.0,0,29,1.0,127.0
15179,46.0,0,29,4.0,127.0
15180,82.0,15,14,7.0,127.0
15181,58.0,0,59,5.0,127.0
15182,70.0,0,59,5.0,127.0
15183,63.0,0,14,4.0,127.0
15184,67.0,0,14,2.0,127.0
15185,63.0,0,14,10.0,127.0
15186,51.0,0,14,11.0,127.0
15187,39.0,0,14,12.0,127.0
15188,58.0,0,14,3.0,127.0
15189,55.0,0,14,3.0,127.0
15190,70.0,0,14,8.0,127.0
15191,82.0,0,14,7.0,127.0
15192,70.0,0,29,4.0,127.0
15193,46.0,15,29,4.0,127.0
15194,70.0,0,14,8.0,127.0
15195,70.0,0,29,2.0,127.0
15196,82.0,15,14,7.0,127.0
15197,82.0,0,29,1.0,127.0
15198,79.0,0,29,1.0,127.0
15199,82.0,0,29,0.0,127.0
15200,91.0,0,29,0.0,127.0
15201,63.0,0,14,10.0,127.0
15202,63.0,0,14,4.0,127.0
15203,55.0,0,14,3.0,127.0
15204,70.0,0,14,8.0,127.0
15205,82.0,0,14,7.0,127.0
15206,39.0,0,14,12.0,127.0
15207,67.0,0,14,2.0,127.0
15208,58.0,0,14,3.0,127.0
15209,51.0,0,14,11.0,127.0
15210,70.0,0,29,4.0,127.0
15211,58.0,0,59,5.0,127.0
15212,70.0,0,59,5.0,127.0
15213,51.0,0,59,6.0,127.0
15214,70.0,0,29,2.0,127.0
15215,70.0,15,14,8.0,127.0
15216,82.0,0,29,0.0,127.0
15217,91.0,15,29,0.0,127.0
15218,82.0,0,29,1.0,127.0
15219,79.0,0,29,1.0,127.0
15220,82.0,0,14,7.0,127.0
15221,46.0,0,29,4.0,127.0
15222,63.0,0,14,2.0,127.0
15223,55.0,0,14,11.0,127.0
15224,67.0,0,14,10.0,127.0
15225,43.0,0,14,12.0,127.0
15226,58.0,0,14,3.0,127.0
15227,67.0,0,14,4.0,127.0
15228,82.0,15,14,7.0,127.0
15229,70.0,0,14,8.0,127.0
15230,55.0,0,14,3.0,127.0
15231,82.0,0,29,1.0,127.0
15232,70.0,0,29,2.0,127.0
15233,82.0,0,29,0.0,127.0
15234,82.0,0,14,7.0,127.0
15235,46.0,0,29,4.0,127.0
15236,70.0,0,29,4.0,127.0
15237,70.0,15,14,8.0,127.0
15238,87.0,0,29,0.0,127.0
15239,75.0,0,29,1.0,127.0
15240,55.0,0,14,3.0,127.0
15241,39.0,0,14,12.0,127.0
15242,58.0,0,14,3.0,127.0
15243,67.0,0,14,2.0,127.0
15244,82.0,0,14,7.0,127.0
15245,63.0,0,14,10.0,127.0
15246,70.0,0,14,8.0,127.0
15247,51.0,0,14,11.0,127.0
15248,63.0,0,14,4.0,127.0
15249,46.0,0,29,4.0,127.0
15250,79.0,0,29,1.0,127.0
15251,70.0,0,29,2.0,127.0
15252,70.0,0,14,8.0,127.0
15253,82.0,15,14,7.0,127.0
15254,58.0,0,59,5.0,127.0
15255,70.0,0,59,5.0,127.0
15256,82.0,0,29,0.0,127.0
15257,51.0,0,59,6.0,127.0
15258,91.0,15,29,0.0,127.0
15259,70.0,0,29,4.0,127.0
15260,82.0,0,29,1.0,127.0
15261,70.0,0,14,8.0,127.0
15262,58.0,0,14,4.0,127.0
15263,50.0,0,14,11.0,127.0
15264,56.0,0,14,3.0,127.0
15265,38.0,0,14,12.0,127.0
15266,62.0,0,14,10.0,127.0
15267,68.0,0,14,2.0,127.0
15268,58.0,0,14,3.0,127.0
15269,82.0,0,14,7.0,127.0
15270,46.0,0,29,4.0,127.0
15271,82.0,15,14,7.0,127.0
15272,70.0,0,14,8.0,127.0
15273,80.0,0,29,1.0,127.0
15274,82.0,0,29,1.0,127.0
15275,70.0,0,29,4.0,127.0
15276,82.0,0,29,0.0,127.0
15277,70.0,0,29,2.0,127.0
15278,92.0,15,29,0.0,127.0
15279,58.0,0,14,3.0,127.0
15280,65.0,0,14,10.0,127.0
15281,65.0,0,14,4.0,127.0
15282,53.0,0,14,11.0,127.0
15283,56.0,0,14,3.0,127.0
15284,65.0,0,14,2.0,127.0
15285,82.0,0,14,7.0,127.0
15286,70.0,0,14,8.0,127.0
15287,41.0,0,14,12.0,127.0
15288,70.0,0,29,2.0,127.0
15289,82.0,0,14,7.0,127.0
15290,82.0,0,29,1.0,127.0
15291,77.0,0,29,1.0,127.0
15292,82.0,0,29,0.0,127.0
15293,89.0,15,29,0.0,127.0
15294,58.0,0,59,5.0,127.0
15295,70.0,0,59,5.0,127.0
15296,70.0,15,14,8.0,127.0
15297,46.0,0,59,6.0,127.0
15298,46.0,0,29,4.0,127.0
15299,70.0,0,29,4.0,127.0
15300,68.0,0,14,10.0,127.0
15301,44.0,0,14,12.0,127.0
15302,82.0,0,14,7.0,127.0
15303,56.0,0,14,11.0,127.0
15304,56.0,0,14,3.0,127.0
15305,58.0,0,14,3.0,127.0
15306,70.0,0,14,8.0,127.0
15307,62.0,0,14,2.0,127.0
15308,68.0,0,14,4.0,127.0
15309,70.0,0,29,4.0,127.0
15310,70.0,0,29,2.0,127.0
15311,82.0,0,29,0.0,127.0
15312,82.0,15,14,7.0,127.0
15313,86.0,0,29,0.0,127.0
15314,70.0,0,14,8.0,127.0
15315,82.0,0,29,1.0,127.0
15316,74.0,0,29,1.0,127.0
15317,46.0,15,29,4.0,127.0
15318,41.0,0,14,12.0,127.0
15319,70.0,0,14,8.0,127.0
15320,56.0,0,14,3.0,127.0
15321,65.0,0,14,10.0,127.0
15322,65.0,0,14,4.0,127.0
15323,65.0,0,14,2.0,127.0
15324,82.0,15,14,7.0,127.0
15325,53.0,0,14,11.0,127.0
15326,58.0,0,14,3.0,127.0
15327,89.0,0,29,0.0,127.0
15328,82.0,0,29,0.0,127.0
15329,46.0,0,29,4.0,127.0
15330,70.0,0,59,5.0,127.0
15331,82.0,15,14,7.0,127.0
15332,70.0,0,29,4.0,127.0
15333,70.0,0,29,2.0,127.0
15334,82.0,0,29,1.0,127.0
15335,77.0,0,29,1.0,127.0
15336,70.0,0,14,8.0,127.0
15337,58.0,0,59,5.0,127.0
15338,46.0,0,59,6.0,127.0
15339,67.0,0,29,10.0,127.0
15340,55.0,0,29,3.0,127.0
15341,82.0,0,29,7.0,127.0
15342,58.0,0,29,3.0,127.0
15343,79.0,0,29,8.0,127.0
15344,39.0,0,29,12.0,127.0
15345,82.0,0,29,0.0,127.0
15346,79.0,0,29,1.0,127.0
15347,82.0,0,29,1.0,127.0
15348,70.0,0,29,2.0,127.0
15349,67.0,0,29,2.0,127.0
15350,51.0,0,29,11.0,127.0
15351,91.0,0,29,0.0,127.0
15352,63.0,30,14,8.0,127.0
15353,51.0,0,14,10.0,127.0
15354,63.0,0,14,7.0,127.0
15355,70.0,0,59,5.0,127.0
15356,46.0,15,59,4.0,127.0
15357,63.0,0,59,4.0,127.0
15358,51.0,0,29,11.0,127.0
15359,63.0,0,29,2.0,127.0
15360,51.0,0,59,6.0,127.0
15361,51.0,0,29,3.0,127.0
15362,39.0,0,29,12.0,127.0
15363,70.0,0,59,4.0,127.0
15364,58.0,0,59,5.0,127.0
15365,75.0,0,29,1.0,127.0
15366,75.0,0,29,0.0,127.0
15367,51.0,0,14,10.0,127.0
15368,63.0,15,14,8.0,127.0
15369,63.0,0,14,7.0,127.0
15370,65.0,0,14,8.0,127.0
15371,53.0,0,14,10.0,127.0
15372,65.0,0,14,7.0,127.0
15373,53.0,0,29,3.0,127.0
15374,53.0,0,29,11.0,127.0
15375,53.0,0,14,10.0,127.0
15376,77.0,0,29,1.0,127.0
15377,65.0,0,14,7.0,127.0
15378,65.0,15,29,2.0,127.0
15379,41.0,0,29,12.0,127.0
15380,65.0,15,14,8.0,127.0
15381,77.0,0,29,0.0,127.0
15382,67.0,0,14,7.0,127.0
15383,55.0,0,14,10.0,127.0
15384,67.0,0,14,8.0,127.0
15385,55.0,0,29,11.0,127.0
15386,79.0,0,29,0.0,127.0
15387,55.0,0,29,3.0,127.0
15388,79.0,0,29,1.0,127.0
15389,43.0,0,29,12.0,127.0
15390,67.0,0,14,7.0,127.0
15391,67.0,15,14,8.0,127.0
15392,55.0,0,14,10.0,127.0
15393,67.0,15,29,2.0,127.0
15394,68.0,15,14,8.0,127.0
15395,56.0,0,14,10.0,127.0
15396,68.0,0,14,7.0,127.0
15397,80.0,0,29,0.0,127.0
15398,68.0,0,29,2.0,127.0
15399,56.0,0,29,11.0,127.0
15400,56.0,0,29,3.0,127.0
15401,56.0,0,14,10.0,127.0
15402,44.0,0,29,12.0,127.0
15403,80.0,0,29,1.0,127.0
15404,68.0,15,14,7.0,127.0
15405,68.0,0,14,8.0,127.0
15406,55.0,0,14,10.0,127.0
15407,67.0,15,14,7.0,127.0
15408,67.0,0,14,8.0,127.0
15409,55.0,0,29,11.0,127.0
15410,63.0,0,59,5.0,127.0
15411,75.0,0,59,5.0,127.0
15412,55.0,0,29,3.0,127.0
15413,79.0,0,29,0.0,127.0
15414,67.0,15,14,7.0,127.0
15415,63.0,0,59,4.0,127.0
15416,43.0,0,29,12.0,127.0
15417,79.0,0,29,1.0,127.0
15418,67.0,0,14,8.0,127.0
15419,51.0,0,59,4.0,127.0
15420,67.0,0,29,2.0,127.0
15421,51.0,0,59,6.0,127.0
15422,55.0,0,14,10.0,127.0
15423,68.0,0,14,8.0,127.0
15424,68.0,0,14,7.0,127.0
15425,56.0,0,14,10.0,127.0
15426,56.0,0,29,3.0,127.0
15427,80.0,0,29,0.0,127.0
15428,44.0,0,29,12.0,127.0
15429,56.0,0,14,10.0,127.0
15430,68.0,15,14,8.0,127.0
15431,80.0,0,29,1.0,127.0
15432,56.0,0,29,11.0,127.0
15433,68.0,15,29,2.0,127.0
15434,68.0,0,14,7.0,127.0
15435,57.0,0,14,10.0,127.0
15436,69.0,0,14,8.0,127.0
15437,69.0,15,14,7.0,127.0
15438,57.0,0,14,10.0,127.0
15439,69.0,0,29,2.0,127.0
15440,81.0,0,29,1.0,127.0
15441,45.0,0,29,12.0,127.0
15442,69.0,15,14,8.0,127.0
15443,69.0,0,14,7.0,127.0
15444,81.0,0,29,0.0,127.0
15445,57.0,0,29,11.0,127.0
15446,57.0,0,29,3.0,127.0
15447,70.0,0,14,8.0,127.0
15448,70.0,0,14,7.0,127.0
15449,58.0,0,14,10.0,127.0
15450,82.0,0,29,1.0,127.0
15451,46.0,0,29,12.0,127.0
15452,70.0,15,14,8.0,127.0
15453,58.0,0,29,11.0,127.0
15454,70.0,0,29,2.0,127.0
15455,70.0,0,14,7.0,127.0
15456,58.0,0,14,10.0,127.0
15457,58.0,15,29,3.0,127.0
15458,82.0,0,29,0.0,127.0
15459,57.0,15,14,10.0,127.0
15460,69.0,0,14,8.0,127.0
15461,69.0,0,14,7.0,127.0
15462,69.0,0,14,7.0,127.0
15463,45.0,0,29,12.0,127.0
15464,51.0,0,59,4.0,127.0
15465,57.0,0,29,11.0,127.0
15466,69.0,0,29,1.0,127.0
15467,63.0,0,59,4.0,127.0
15468,69.0,0,14,8.0,127.0
15469,81.0,0,29,0.0,127.0
15470,51.0,0,59,6.0,127.0
15471,63.0,0,59,5.0,127.0
15472,75.0,0,59,5.0,127.0
15473,69.0,0,29,2.0,127.0
15474,57.0,15,14,10.0,127.0
15475,57.0,0,29,3.0,127.0
15476,58.0,0,14,10.0,127.0
15477,70.0,0,14,8.0,127.0
15478,70.0,0,14,7.0,127.0
15479,70.0,0,14,7.0,127.0
15480,70.0,0,29,2.0,127.0
15481,70.0,0,29,1.0,127.0
15482,46.0,0,29,12.0,127.0
15483,70.0,0,14,8.0,127.0
15484,82.0,15,29,0.0,127.0
15485,58.0,0,29,11.0,127.0
15486,58.0,15,14,10.0,127.0
15487,58.0,0,29,3.0,127.0
15488,71.0,0,14,8.0,127.0
15489,59.0,0,14,10.0,127.0
15490,71.0,0,14,7.0,127.0
15491,47.0,0,29,12.0,127.0
15492,71.0,0,29,2.0,127.0
15493,59.0,0,14,10.0,127.0
15494,71.0,0,14,8.0,127.0
15495,83.0,15,29,0.0,127.0
15496,71.0,0,29,1.0,127.0
15497,59.0,0,29,11.0,127.0
15498,59.0,0,29,3.0,127.0
15499,71.0,15,14,7.0,127.0
15500,72.0,0,14,7.0,127.0
15501,60.0,0,14,10.0,127.0
15502,72.0,0,14,8.0,127.0
15503,84.0,0,29,0.0,127.0
15504,48.0,0,29,12.0,127.0
15505,72.0,0,29,1.0,127.0
15506,60.0,15,14,10.0,127.0
15507,72.0,0,29,2.0,127.0
15508,60.0,15,29,11.0,127.0
15509,60.0,0,29,3.0,127.0
15510,72.0,0,14,8.0,127.0
15511,72.0,0,14,7.0,127.0
15512,59.0,0,14,10.0,127.0
15513,71.0,0,14,7.0,127.0
15514,71.0,0,14,8.0,127.0
15515,51.0,0,59,4.0,127.0
15516,71.0,0,14,7.0,127.0
15517,83.0,0,29,0.0,127.0
15518,71.0,0,14,8.0,127.0
15519,47.0,0,29,12.0,127.0
15520,58.0,0,29,3.0,127.0
15521,51.0,0,59,6.0,127.0
15522,63.0,0,59,5.0,127.0
15523,71.0,0,29,1.0,127.0
15524,59.0,0,29,11.0,127.0
15525,59.0,15,14,10.0,127.0
15526,63.0,0,59,4.0,127.0
15527,75.0,0,59,5.0,127.0
15528,71.0,15,29,2.0,127.0
15529,72.0,0,14,7.0,127.0
15530,72.0,0,14,8.0,127.0
15531,60.0,0,14,10.0,127.0
15532,72.0,0,14,8.0,127.0
15533,72.0,15,14,7.0,127.0
15534,48.0,0,29,12.0,127.0
15535,60.0,0,29,11.0,127.0
15536,84.0,0,29,0.0,127.0
15537,60.0,0,14,10.0,127.0
15538,72.0,0,29,2.0,127.0
15539,60.0,15,29,3.0,127.0
15540,72.0,0,29,1.0,127.0
15541,74.0,0,14,7.0,127.0
15542,62.0,0,14,10.0,127.0
15543,74.0,0,14,8.0,127.0
15544,62.0,15,29,11.0,127.0
15545,62.0,0,29,3.0,127.0
15546,74.0,15,14,8.0,127.0
15547,74.0,0,14,7.0,127.0
15548,74.0,0,29,1.0,127.0
15549,86.0,0,29,0.0,127.0
15550,62.0,0,14,10.0,127.0
15551,50.0,0,29,12.0,127.0
15552,74.0,0,29,2.0,127.0
15553,75.0,0,14,8.0,127.0
15554,63.0,15,14,10.0,127.0
15555,75.0,0,14,7.0,127.0
15556,51.0,0,29,12.0,127.0
15557,75.0,0,14,7.0,127.0
15558,75.0,15,14,8.0,127.0
15559,63.0,0,14,10.0,127.0
15560,63.0,0,29,11.0,127.0
15561,60.0,0,14,10.0,127.0
15562,72.0,15,14,8.0,127.0
15563,72.0,0,14,7.0,127.0
15564,63.0,0,59,3.0,127.0
15565,75.0,0,59,5.0,127.0
15566,63.0,0,59,5.0,127.0
15567,72.0,15,14,8.0,127.0
15568,51.0,0,59,6.0,127.0
15569,48.0,0,29,12.0,127.0
15570,60.0,0,14,10.0,127.0
15571,75.0,0,59,2.0,127.0
15572,63.0,0,59,4.0,127.0
15573,51.0,0,59,4.0,127.0
15574,75.0,0,59,1.0,127.0
15575,72.0,0,14,7.0,127.0
15576,60.0,0,29,11.0,127.0
15577,87.0,0,59,0.0,127.0
15578,71.0,0,14,8.0,127.0
15579,59.0,0,14,10.0,127.0
15580,71.0,0,14,7.0,127.0
15581,71.0,15,14,7.0,127.0
15582,71.0,0,14,8.0,127.0
15583,59.0,0,29,11.0,127.0
15584,59.0,0,14,10.0,127.0
15585,47.0,15,29,12.0,127.0
15586,60.0,0,14,10.0,127.0
15587,72.0,0,14,8.0,127.0
15588,72.0,15,14,7.0,127.0
15589,72.0,0,59,1.0,127.0
15590,84.0,0,59,1.0,127.0
15591,48.0,0,59,3.0,127.0
15592,84.0,0,59,0.0,127.0
15593,72.0,0,14,7.0,127.0
15594,48.0,0,29,12.0,127.0
15595,60.0,0,29,11.0,127.0
15596,60.0,0,59,3.0,127.0
15597,72.0,0,14,8.0,127.0
15598,60.0,15,14,10.0,127.0
15599,72.0,0,59,2.0,127.0
15600,67.0,0,14,8.0,127.0
15601,55.0,0,14,10.0,127.0
15602,67.0,0,14,7.0,127.0
15603,67.0,15,14,8.0,127.0
15604,67.0,0,14,7.0,127.0
15605,43.0,0,29,12.0,127.0
15606,55.0,0,14,10.0,127.0
15607,55.0,0,29,11.0,127.0
15608,68.0,0,14,7.0,127.0
15609,68.0,0,14,8.0,127.0
15610,56.0,0,14,10.0,127.0
15611,75.0,15,59,5.0,127.0
15612,63.0,0,59,5.0,127.0
15613,68.0,0,14,7.0,127.0
15614,68.0,15,14,8.0,127.0
15615,63.0,0,59,4.0,127.0
15616,51.0,0,59,4.0,127.0
15617,51.0,0,59,6.0,127.0
15618,44.0,15,29,12.0,127.0
15619,56.0,0,14,10.0,127.0
15620,56.0,0,29,11.0,127.0
15621,72.0,0,14,8.0,127.0
15622,60.0,0,14,10.0,127.0
15623,72.0,0,14,7.0,127.0
15624,60.0,0,14,10.0,127.0
15625,72.0,15,14,8.0,127.0
15626,60.0,0,29,11.0,127.0
15627,48.0,0,29,12.0,127.0
15628,72.0,0,14,7.0,127.0
15629,68.0,15,14,7.0,127.0
15630,56.0,0,14,10.0,127.0
15631,68.0,0,14,8.0,127.0
15632,44.0,0,59,3.0,127.0
15633,56.0,0,29,11.0,127.0
15634,56.0,0,14,10.0,127.0
15635,68.0,15,14,7.0,127.0
15636,68.0,15,59,1.0,127.0
15637,80.0,0,59,0.0,127.0
15638,44.0,0,29,12.0,127.0
15639,80.0,0,59,1.0,127.0
15640,56.0,0,59,3.0,127.0
15641,68.0,0,14,8.0,127.0
15642,68.0,0,59,2.0,127.0
15643,52.0,0,14,10.0,127.0
15644,64.0,15,14,7.0,127.0
15645,64.0,0,14,8.0,127.0
15646,64.0,15,14,7.0,127.0
15647,40.0,0,29,12.0,127.0
15648,52.0,0,29,11.0,127.0
15649,52.0,0,14,10.0,127.0
15650,64.0,0,14,8.0,127.0
15651,65.0,15,14,8.0,127.0
15652,53.0,0,14,10.0,127.0
15653,65.0,0,14,7.0,127.0
15654,53.0,0,29,11.0,127.0
15655,65.0,15,14,8.0,127.0
15656,53.0,0,14,10.0,127.0
15657,41.0,0,29,12.0,127.0
15658,65.0,0,14,7.0,127.0
15659,68.0,0,14,8.0,127.0
15660,56.0,0,14,10.0,127.0
15661,68.0,15,14,7.0,127.0
15662,68.0,0,14,7.0,127.0
15663,56.0,0,29,11.0,127.0
15664,44.0,0,29,12.0,127.0
15665,68.0,15,14,8.0,127.0
15666,56.0,0,14,10.0,127.0
15667,65.0,0,14,7.0,127.0
15668,53.0,0,14,10.0,127.0
15669,65.0,0,14,8.0,127.0
15670,53.0,0,29,11.0,127.0
15671,65.0,0,59,1.0,127.0
15672,77.0,0,59,1.0,127.0
15673,53.0,0,14,10.0,127.0
15674,41.0,0,59,3.0,127.0
15675,53.0,0,59,3.0,127.0
15676,65.0,15,14,8.0,127.0
15677,65.0,0,59,2.0,127.0
15678,77.0,0,59,0.0,127.0
15679,41.0,15,29,12.0,127.0
15680,65.0,0,14,7.0,127.0
15681,69.0,0,14,7.0,127.0
15682,69.0,15,14,8.0,127.0
15683,57.0,0,14,10.0,127.0
15684,45.0,0,29,12.0,127.0
15685,69.0,15,14,7.0,127.0
15686,57.0,0,14,10.0,127.0
15687,57.0,0,29,11.0,127.0
15688,69.0,0,14,8.0,127.0
15689,70.0,0,14,7.0,127.0
15690,70.0,0,14,8.0,127.0
15691,58.0,0,14,10.0,127.0
15692,58.0,0,59,5.0,127.0
15693,70.0,0,59,5.0,127.0
15694,46.0,0,59,4.0,127.0
15695,58.0,15,29,11.0,127.0
15696,46.0,0,59,6.0,127.0
15697,70.0,0,14,7.0,127.0
15698,46.0,0,29,12.0,127.0
15699,58.0,15,14,10.0,127.0
15700,58.0,0,59,4.0,127.0
15701,70.0,0,14,8.0,127.0
15702,62.0,0,14,10.0,127.0
15703,74.0,0,14,7.0,127.0
15704,74.0,0,14,8.0,127.0
15705,62.0,15,14,10.0,127.0
15706,62.0,0,29,11.0,127.0
15707,74.0,0,14,8.0,127.0
15708,50.0,0,29,12.0,127.0
15709,74.0,0,14,7.0,127.0
15710,70.0,0,14,7.0,127.0
15711,70.0,0,14,8.0,127.0
15712,58.0,0,14,10.0,127.0
15713,46.0,0,59,6.0,127.0
15714,58.0,0,14,10.0,127.0
15715,82.0,0,59,1.0,127.0
15716,46.0,15,59,4.0,127.0
15717,70.0,0,59,1.0,127.0
15718,46.0,0,59,3.0,127.0
15719,46.0,0,29,12.0,127.0
15720,82.0,0,59,0.0,127.0
15721,58.0,0,59,4.0,127.0
15722,58.0,0,59,3.0,127.0
15723,70.0,0,59,2.0,127.0
15724,58.0,0,59,5.0,127.0
15725,70.0,0,59,5.0,127.0
15726,58.0,15,29,11.0,127.0
15727,70.0,15,14,7.0,127.0
15728,70.0,0,14,8.0,127.0
15729,71.0,0,14,8.0,127.0
15730,71.0,0,14,7.0,127.0
15731,59.0,15,14,10.0,127.0
15732,71.0,15,14,8.0,127.0
15733,71.0,0,14,7.0,127.0
15734,59.0,0,14,10.0,127.0
15735,47.0,0,29,12.0,127.0
15736,59.0,0,29,11.0,127.0
15737,72.0,0,14,7.0,127.0
15738,60.0,15,14,10.0,127.0
15739,72.0,0,14,8.0,127.0
15740,51.0,0,59,6.0,127.0
15741,72.0,0,14,7.0,127.0
15742,48.0,0,29,12.0,127.0
15743,60.0,0,14,10.0,127.0
15744,75.0,0,59,5.0,127.0
15745,63.0,0,59,5.0,127.0
15746,63.0,0,59,4.0,127.0
15747,51.0,0,59,4.0,127.0
15748,60.0,0,29,11.0,127.0
15749,72.0,15,14,8.0,127.0
15750,75.0,0,14,7.0,127.0
15751,75.0,0,14,8.0,127.0
15752,63.0,15,14,10.0,127.0
15753,63.0,15,14,10.0,127.0
15754,51.0,0,29,12.0,127.0
15755,75.0,0,14,7.0,127.0
15756,75.0,0,14,8.0,127.0
15757,63.0,0,29,11.0,127.0
15758,72.0,0,14,7.0,127.0
15759,60.0,0,14,10.0,127.0
15760,72.0,0,14,8.0,127.0
15761,84.0,0,59,1.0,127.0
15762,60.0,0,14,10.0,127.0
15763,72.0,15,14,7.0,127.0
15764,72.0,0,14,8.0,127.0
15765,48.0,15,29,12.0,127.0
15766,72.0,0,59,2.0,127.0
15767,84.0,0,59,0.0,127.0
15768,48.0,0,59,3.0,127.0
15769,60.0,0,59,3.0,127.0
15770,72.0,0,59,1.0,127.0
15771,60.0,0,29,11.0,127.0
15772,67.0,0,14,7.0,127.0
15773,55.0,15,14,10.0,127.0
15774,67.0,0,14,8.0,127.0
15775,67.0,0,14,7.0,127.0
15776,43.0,0,29,12.0,127.0
15777,67.0,0,14,8.0,127.0
15778,55.0,15,14,10.0,127.0
15779,55.0,0,29,11.0,127.0
15780,68.0,0,14,7.0,127.0
15781,68.0,0,14,8.0,127.0
15782,56.0,0,14,10.0,127.0
15783,56.0,0,14,10.0,127.0
15784,44.0,0,29,12.0,127.0
15785,68.0,15,14,8.0,127.0
15786,68.0,0,14,7.0,127.0
15787,56.0,15,29,11.0,127.0
15788,51.0,0,59,4.0,127.0
15789,63.0,0,59,4.0,127.0
15790,75.0,0,59,5.0,127.0
15791,63.0,0,59,5.0,127.0
15792,51.0,0,59,6.0,127.0
15793,72.0,0,14,8.0,127.0
15794,60.0,0,14,10.0,127.0
15795,72.0,0,14,7.0,127.0
15796,60.0,15,14,10.0,127.0
15797,60.0,0,29,11.0,127.0
15798,72.0,0,14,7.0,127.0
15799,72.0,0,14,8.0,127.0
15800,48.0,0,29,12.0,127.0
15801,56.0,0,14,10.0,127.0
15802,68.0,0,14,8.0,127.0
15803,68.0,0,14,7.0,127.0
15804,56.0,0,59,3.0,127.0
15805,44.0,0,59,3.0,127.0
15806,80.0,0,59,1.0,127.0
15807,44.0,0,29,12.0,127.0
15808,56.0,0,14,10.0,127.0
15809,68.0,0,59,1.0,127.0
15810,68.0,0,59,2.0,127.0
15811,56.0,15,29,11.0,127.0
15812,68.0,0,14,8.0,127.0
15813,80.0,15,59,0.0,127.0
15814,68.0,15,14,7.0,127.0
15815,64.0,0,14,8.0,127.0
15816,52.0,0,14,10.0,127.0
15817,64.0,0,14,7.0,127.0
15818,40.0,0,29,12.0,127.0
15819,64.0,0,14,8.0,127.0
15820,52.0,15,29,11.0,127.0
15821,64.0,0,14,7.0,127.0
15822,52.0,15,14,10.0,127.0
15823,65.0,0,14,7.0,127.0
15824,65.0,0,14,8.0,127.0
15825,53.0,0,14,10.0,127.0
15826,41.0,0,29,12.0,127.0
15827,65.0,0,14,7.0,127.0
15828,53.0,15,29,11.0,127.0
15829,65.0,15,14,8.0,127.0
15830,53.0,0,14,10.0,127.0
15831,68.0,0,14,8.0,127.0
15832,68.0,0,14,7.0,127.0
15833,56.0,0,14,10.0,127.0
15834,68.0,15,14,7.0,127.0
15835,68.0,0,14,8.0,127.0
15836,56.0,0,14,10.0,127.0
15837,56.0,0,29,11.0,127.0
15838,44.0,0,29,12.0,127.0
15839,65.0,0,14,7.0,127.0
15840,53.0,15,14,10.0,127.0
15841,65.0,0,14,8.0,127.0
15842,77.0,0,59,1.0,127.0
15843,41.0,0,59,3.0,127.0
15844,53.0,15,59,3.0,127.0
15845,65.0,0,59,2.0,127.0
15846,65.0,15,14,8.0,127.0
15847,65.0,0,59,1.0,127.0
15848,41.0,0,29,12.0,127.0
15849,65.0,0,14,7.0,127.0
15850,53.0,0,14,10.0,127.0
15851,53.0,0,29,11.0,127.0
15852,77.0,0,59,0.0,127.0
15853,69.0,15,14,8.0,127.0
15854,57.0,0,14,10.0,127.0
15855,69.0,0,14,7.0,127.0
15856,33.0,0,29,12.0,127.0
15857,69.0,0,14,7.0,127.0
15858,45.0,0,29,11.0,127.0
15859,69.0,15,14,8.0,127.0
15860,57.0,0,14,10.0,127.0
15861,70.0,0,14,8.0,127.0
15862,58.0,0,14,10.0,127.0
15863,70.0,0,14,7.0,127.0
15864,70.0,0,14,7.0,127.0
15865,46.0,0,59,6.0,127.0
15866,70.0,15,14,8.0,127.0
15867,58.0,0,14,10.0,127.0
15868,34.0,0,29,12.0,127.0
15869,58.0,0,59,5.0,127.0
15870,70.0,0,59,5.0,127.0
15871,46.0,0,59,4.0,127.0
15872,58.0,0,59,4.0,127.0
15873,46.0,15,29,11.0,127.0
15874,62.0,0,14,10.0,127.0
15875,74.0,0,14,8.0,127.0
15876,74.0,0,14,7.0,127.0
15877,74.0,15,14,8.0,127.0
15878,38.0,0,29,12.0,127.0
15879,62.0,0,14,10.0,127.0
15880,50.0,0,29,11.0,127.0
15881,74.0,0,14,7.0,127.0
15882,58.0,15,14,10.0,127.0
15883,70.0,0,14,8.0,127.0
15884,70.0,0,14,7.0,127.0
15885,70.0,0,59,1.0,127.0
15886,82.0,0,59,1.0,127.0
15887,46.0,0,59,4.0,127.0
15888,58.0,0,59,5.0,127.0
15889,70.0,0,59,5.0,127.0
15890,34.0,0,29,12.0,127.0
15891,46.0,15,59,6.0,127.0
15892,46.0,0,59,3.0,127.0
15893,58.0,0,59,3.0,127.0
15894,70.0,15,14,7.0,127.0
15895,46.0,0,29,11.0,127.0
15896,70.0,0,59,2.0,127.0
15897,58.0,0,59,4.0,127.0
15898,82.0,0,59,0.0,127.0
15899,70.0,0,14,8.0,127.0
15900,58.0,0,14,10.0,127.0
15901,51.0,0,14,3.0,127.0
15902,75.0,0,14,1.0,127.0
15903,51.0,0,14,11.0,127.0
15904,63.0,0,14,2.0,127.0
15905,39.0,0,14,12.0,127.0
15906,75.0,0,29,7.0,127.0
15907,87.0,0,29,0.0,127.0
15908,75.0,0,29,8.0,127.0
15909,70.0,0,14,1.0,127.0
15910,58.0,0,14,8.0,127.0
15911,58.0,0,14,7.0,127.0
15912,46.0,30,14,11.0,127.0
15913,70.0,0,14,0.0,127.0
15914,34.0,0,14,12.0,127.0
15915,46.0,0,14,3.0,127.0
15916,58.0,0,14,10.0,127.0
15917,58.0,0,14,2.0,127.0
15918,63.0,0,59,4.0,127.0
15919,51.0,15,59,6.0,127.0
15920,58.0,15,14,8.0,127.0
15921,51.0,0,59,4.0,127.0
15922,75.0,0,59,5.0,127.0
15923,63.0,0,59,5.0,127.0
15924,58.0,0,14,7.0,127.0
15925,39.0,0,14,12.0,127.0
15926,63.0,15,14,8.0,127.0
15927,51.0,0,14,3.0,127.0
15928,51.0,0,14,11.0,127.0
15929,63.0,0,14,2.0,127.0
15930,75.0,0,14,1.0,127.0
15931,75.0,0,14,0.0,127.0
15932,63.0,0,14,10.0,127.0
15933,63.0,0,14,7.0,127.0
15934,63.0,0,14,8.0,127.0
15935,63.0,15,14,7.0,127.0
15936,34.0,15,14,12.0,127.0
15937,58.0,0,14,8.0,127.0
15938,70.0,0,14,1.0,127.0
15939,58.0,0,14,2.0,127.0
15940,58.0,0,14,10.0,127.0
15941,46.0,0,14,3.0,127.0
15942,46.0,0,14,11.0,127.0
15943,58.0,0,14,7.0,127.0
15944,70.0,0,14,0.0,127.0
15945,58.0,15,14,8.0,127.0
15946,58.0,0,14,7.0,127.0
15947,63.0,0,14,8.0,127.0
15948,51.0,0,14,11.0,127.0
15949,75.0,0,14,1.0,127.0
15950,39.0,0,14,12.0,127.0
15951,75.0,0,14,0.0,127.0
15952,63.0,0,14,10.0,127.0
15953,51.0,15,14,3.0,127.0
15954,63.0,0,14,7.0,127.0
15955,63.0,0,14,2.0,127.0
15956,63.0,15,14,8.0,127.0
15957,63.0,0,14,7.0,127.0
15958,46.0,0,14,11.0,127.0
15959,34.0,15,14,12.0,127.0
15960,58.0,0,14,8.0,127.0
15961,58.0,0,14,10.0,127.0
15962,46.0,0,14,3.0,127.0
15963,58.0,0,14,2.0,127.0
15964,58.0,0,14,7.0,127.0
15965,70.0,0,14,1.0,127.0
15966,70.0,0,14,0.0,127.0
15967,58.0,0,14,7.0,127.0
15968,58.0,15,14,8.0,127.0
15969,79.0,0,14,0.0,127.0
15970,55.0,0,14,11.0,127.0
15971,55.0,0,14,4.0,127.0
15972,67.0,0,14,2.0,127.0
15973,55.0,15,14,3.0,127.0
15974,67.0,0,14,4.0,127.0
15975,79.0,0,14,1.0,127.0
15976,67.0,0,14,7.0,127.0
15977,55.0,0,14,10.0,127.0
15978,67.0,0,14,8.0,127.0
15979,43.0,0,14,12.0,127.0
15980,67.0,15,14,7.0,127.0
15981,67.0,0,14,8.0,127.0
15982,63.0,0,14,7.0,127.0
15983,51.0,15,14,3.0,127.0
15984,63.0,0,14,2.0,127.0
15985,51.0,0,14,11.0,127.0
15986,75.0,0,14,1.0,127.0
15987,75.0,0,14,0.0,127.0
15988,63.0,0,14,4.0,127.0
15989,63.0,0,14,8.0,127.0
15990,51.0,0,14,10.0,127.0
15991,39.0,0,14,12.0,127.0
15992,51.0,0,14,4.0,127.0
15993,63.0,15,14,8.0,127.0
15994,63.0,0,14,7.0,127.0
15995,67.0,0,14,4.0,127.0
15996,67.0,0,14,7.0,127.0
15997,55.0,0,14,3.0,127.0
15998,55.0,0,14,11.0,127.0
15999,55.0,0,14,4.0,127.0
16000,55.0,0,14,10.0,127.0
16001,79.0,0,14,0.0,127.0
16002,79.0,0,14,1.0,127.0
16003,67.0,0,14,2.0,127.0
16004,43.0,0,14,12.0,127.0
16005,67.0,0,14,8.0,127.0
16006,67.0,15,14,7.0,127.0
16007,67.0,0,14,8.0,127.0
16008,63.0,0,14,4.0,127.0
16009,51.0,0,14,4.0,127.0
16010,75.0,0,14,0.0,127.0
16011,39.0,0,14,12.0,127.0
16012,51.0,15,14,11.0,127.0
16013,63.0,0,14,8.0,127.0
16014,51.0,0,14,10.0,127.0
16015,51.0,0,14,3.0,127.0
16016,75.0,0,14,1.0,127.0
16017,63.0,0,14,2.0,127.0
16018,63.0,0,14,7.0,127.0
16019,63.0,15,59,5.0,127.0
16020,51.0,0,59,6.0,127.0
16021,75.0,0,59,5.0,127.0
16022,63.0,15,14,8.0,127.0
16023,63.0,0,14,7.0,127.0
16024,67.0,0,14,2.0,127.0
16025,55.0,0,14,3.0,127.0
16026,43.0,0,14,12.0,127.0
16027,79.0,0,14,0.0,127.0
16028,67.0,0,14,7.0,127.0
16029,79.0,0,14,1.0,127.0
16030,55.0,0,14,11.0,127.0
16031,67.0,15,14,8.0,127.0
16032,55.0,0,14,10.0,127.0
16033,67.0,15,14,7.0,127.0
16034,67.0,0,14,8.0,127.0
16035,39.0,0,14,12.0,127.0
16036,75.0,0,14,1.0,127.0
16037,75.0,15,14,0.0,127.0
16038,51.0,0,14,10.0,127.0
16039,63.0,0,14,2.0,127.0
16040,63.0,0,14,7.0,127.0
16041,51.0,0,14,11.0,127.0
16042,63.0,0,14,8.0,127.0
16043,51.0,0,14,3.0,127.0
16044,63.0,15,14,7.0,127.0
16045,63.0,0,14,8.0,127.0
16046,67.0,15,14,7.0,127.0
16047,79.0,0,14,1.0,127.0
16048,67.0,0,14,2.0,127.0
16049,43.0,0,14,12.0,127.0
16050,55.0,0,14,10.0,127.0
16051,55.0,0,14,11.0,127.0
16052,67.0,0,14,8.0,127.0
16053,55.0,0,14,3.0,127.0
16054,79.0,0,14,0.0,127.0
16055,67.0,0,14,8.0,127.0
16056,67.0,15,14,7.0,127.0
16057,63.0,0,14,2.0,127.0
16058,51.0,0,14,11.0,127.0
16059,75.0,0,14,0.0,127.0
16060,39.0,0,14,12.0,127.0
16061,75.0,15,14,1.0,127.0
16062,63.0,0,14,7.0,127.0
16063,63.0,0,14,8.0,127.0
16064,51.0,0,14,3.0,127.0
16065,51.0,0,14,10.0,127.0
16066,63.0,15,14,7.0,127.0
16067,63.0,0,14,8.0,127.0
16068,82.0,0,14,1.0,127.0
16069,58.0,0,14,3.0,127.0
16070,46.0,0,14,3.0,127.0
16071,58.0,0,14,4.0,127.0
16072,34.0,0,14,12.0,127.0
16073,82.0,0,14,0.0,127.0
16074,70.0,0,14,2.0,127.0
16075,70.0,0,14,4.0,127.0
16076,58.0,0,14,8.0,127.0
16077,70.0,0,14,7.0,127.0
16078,58.0,0,14,10.0,127.0
16079,46.0,15,14,11.0,127.0
16080,70.0,15,14,7.0,127.0
16081,58.0,0,14,8.0,127.0
16082,55.0,0,14,10.0,127.0
16083,43.0,0,14,11.0,127.0
16084,67.0,0,14,4.0,127.0
16085,55.0,15,14,8.0,127.0
16086,55.0,0,14,3.0,127.0
16087,55.0,0,14,4.0,127.0
16088,31.0,0,14,12.0,127.0
16089,43.0,0,14,3.0,127.0
16090,79.0,0,14,0.0,127.0
16091,79.0,0,14,1.0,127.0
16092,67.0,0,14,2.0,127.0
16093,67.0,0,14,7.0,127.0
16094,67.0,0,14,7.0,127.0
16095,55.0,15,14,8.0,127.0
16096,58.0,0,14,8.0,127.0
16097,70.0,0,14,7.0,127.0
16098,70.0,0,29,2.0,127.0
16099,46.0,0,29,11.0,127.0
16100,58.0,0,14,8.0,127.0
16101,70.0,15,14,7.0,127.0
16102,82.0,0,29,1.0,127.0
16103,58.0,0,29,3.0,127.0
16104,82.0,0,29,0.0,127.0
16105,46.0,0,29,3.0,127.0
16106,70.0,0,29,4.0,127.0
16107,58.0,0,29,4.0,127.0
16108,58.0,15,29,10.0,127.0
16109,34.0,0,29,12.0,127.0
16110,67.0,0,14,7.0,127.0
16111,55.0,0,14,8.0,127.0
16112,43.0,0,29,3.0,127.0
16113,55.0,0,14,8.0,127.0
16114,67.0,15,14,7.0,127.0
16115,55.0,0,29,3.0,127.0
16116,51.0,0,59,6.0,127.0
16117,43.0,0,29,11.0,127.0
16118,79.0,15,29,1.0,127.0
16119,55.0,0,29,4.0,127.0
16120,79.0,0,29,0.0,127.0
16121,67.0,0,29,2.0,127.0
16122,31.0,0,29,12.0,127.0
16123,67.0,0,29,4.0,127.0
16124,55.0,0,29,10.0,127.0
16125,75.0,0,14,7.0,127.0
16126,63.0,15,14,8.0,127.0
16127,75.0,0,29,1.0,127.0
16128,63.0,0,29,5.0,127.0
16129,75.0,0,14,7.0,127.0
16130,63.0,15,14,8.0,127.0
16131,63.0,0,29,4.0,127.0
16132,75.0,0,29,2.0,127.0
16133,63.0,0,29,2.0,127.0
16134,51.0,0,29,3.0,127.0
16135,51.0,0,29,11.0,127.0
16136,51.0,0,29,4.0,127.0
16137,87.0,0,29,0.0,127.0
16138,63.0,0,29,10.0,127.0
16139,39.0,0,29,12.0,127.0
16140,58.0,0,14,8.0,127.0
16141,70.0,0,14,7.0,127.0
16142,58.0,0,14,8.0,127.0
16143,58.0,15,29,5.0,127.0
16144,58.0,0,29,4.0,127.0
16145,70.0,0,29,2.0,127.0
16146,58.0,0,29,2.0,127.0
16147,46.0,0,29,4.0,127.0
16148,82.0,0,29,0.0,127.0
16149,46.0,0,29,11.0,127.0
16150,58.0,0,29,10.0,127.0
16151,70.0,0,29,1.0,127.0
16152,70.0,15,14,7.0,127.0
16153,34.0,0,29,12.0,127.0
16154,46.0,0,29,3.0,127.0
16155,75.0,0,14,7.0,127.0
16156,63.0,0,14,8.0,127.0
16157,51.0,0,29,4.0,127.0
16158,63.0,0,29,4.0,127.0
16159,39.0,0,29,12.0,127.0
16160,63.0,0,14,8.0,127.0
16161,87.0,0,29,0.0,127.0
16162,75.0,0,29,2.0,127.0
16163,63.0,0,29,10.0,127.0
16164,51.0,15,29,11.0,127.0
16165,75.0,15,14,7.0,127.0
16166,75.0,0,29,1.0,127.0
16167,51.0,0,29,3.0,127.0
16168,63.0,0,29,2.0,127.0
16169,63.0,0,29,5.0,127.0
16170,70.0,15,14,7.0,127.0
16171,58.0,0,14,8.0,127.0
16172,58.0,0,29,2.0,127.0
16173,70.0,0,14,7.0,127.0
16174,58.0,0,29,10.0,127.0
16175,46.0,0,29,11.0,127.0
16176,51.0,0,59,6.0,127.0
16177,70.0,0,29,2.0,127.0
16178,58.0,0,29,4.0,127.0
16179,70.0,0,29,1.0,127.0
16180,58.0,0,29,5.0,127.0
16181,46.0,0,29,3.0,127.0
16182,34.0,0,29,12.0,127.0
16183,46.0,0,29,4.0,127.0
16184,58.0,15,14,8.0,127.0
16185,82.0,0,29,0.0,127.0
16186,79.0,0,14,7.0,127.0
16187,67.0,0,14,8.0,127.0
16188,67.0,0,29,5.0,127.0
16189,55.0,0,29,3.0,127.0
16190,91.0,0,29,0.0,127.0
16191,79.0,0,29,0.0,127.0
16192,55.0,0,29,4.0,127.0
16193,67.0,0,29,4.0,127.0
16194,67.0,15,29,2.0,127.0
16195,67.0,0,14,8.0,127.0
16196,79.0,15,14,7.0,127.0
16197,55.0,0,29,11.0,127.0
16198,43.0,0,29,12.0,127.0
16199,79.0,0,29,1.0,127.0
16200,67.0,0,29,10.0,127.0
16201,79.0,0,29,2.0,127.0
16202,75.0,0,14,7.0,127.0
16203,63.0,0,14,8.0,127.0
16204,63.0,0,29,10.0,127.0
16205,75.0,15,14,7.0,127.0
16206,75.0,0,29,1.0,127.0
16207,63.0,0,14,8.0,127.0
16208,39.0,0,29,12.0,127.0
16209,51.0,15,29,3.0,127.0
16210,51.0,0,29,11.0,127.0
16211,63.0,0,29,5.0,127.0
16212,63.0,0,29,4.0,127.0
16213,63.0,0,29,2.0,127.0
16214,75.0,0,29,0.0,127.0
16215,87.0,0,29,0.0,127.0
16216,75.0,0,29,2.0,127.0
16217,51.0,0,29,4.0,127.0
16218,67.0,0,14,8.0,127.0
16219,79.0,0,14,7.0,127.0
16220,79.0,0,29,0.0,127.0
16221,79.0,0,14,7.0,127.0
16222,43.0,0,29,12.0,127.0
16223,67.0,0,29,5.0,127.0
16224,91.0,0,29,0.0,127.0
16225,67.0,0,29,10.0,127.0
16226,55.0,0,29,3.0,127.0
16227,67.0,0,29,2.0,127.0
16228,79.0,0,29,2.0,127.0
16229,79.0,0,29,1.0,127.0
16230,67.0,0,29,4.0,127.0
16231,55.0,0,29,11.0,127.0
16232,67.0,15,14,8.0,127.0
16233,55.0,15,29,4.0,127.0
16234,63.0,0,14,8.0,127.0
16235,75.0,0,14,7.0,127.0
16236,75.0,0,14,7.0,127.0
16237,51.0,0,29,11.0,127.0
16238,75.0,0,29,1.0,127.0
16239,51.0,0,59,6.0,127.0
16240,75.0,0,29,2.0,127.0
16241,51.0,0,29,3.0,127.0
16242,63.0,0,29,2.0,127.0
16243,51.0,0,29,4.0,127.0
16244,63.0,0,29,4.0,127.0
16245,87.0,0,29,0.0,127.0
16246,63.0,0,29,10.0,127.0
16247,39.0,0,29,12.0,127.0
16248,63.0,15,14,8.0,127.0
16249,75.0,0,29,0.0,127.0
16250,63.0,15,29,5.0,127.0
16251,70.0,0,14,8.0,127.0
16252,82.0,0,14,7.0,127.0
16253,82.0,15,14,7.0,127.0
16254,67.0,0,29,2.0,127.0
16255,79.0,15,29,2.0,127.0
16256,70.0,0,29,10.0,127.0
16257,79.0,0,29,1.0,127.0
16258,46.0,0,29,12.0,127.0
16259,70.0,0,14,8.0,127.0
16260,58.0,0,29,4.0,127.0
16261,70.0,0,29,4.0,127.0
16262,58.0,0,29,3.0,127.0
16263,70.0,0,29,5.0,127.0
16264,79.0,0,29,0.0,127.0
16265,91.0,0,29,0.0,127.0
16266,58.0,0,29,11.0,127.0
16267,79.0,0,14,7.0,127.0
16268,67.0,0,14,8.0,127.0
16269,63.0,0,29,2.0,127.0
16270,67.0,0,29,10.0,127.0
16271,67.0,0,29,5.0,127.0
16272,43.0,0,29,12.0,127.0
16273,67.0,0,29,4.0,127.0
16274,55.0,0,29,4.0,127.0
16275,55.0,0,29,3.0,127.0
16276,75.0,0,29,2.0,127.0
16277,75.0,0,29,0.0,127.0
16278,87.0,0,29,0.0,127.0
16279,55.0,15,29,11.0,127.0
16280,67.0,15,14,8.0,127.0
16281,75.0,0,29,1.0,127.0
16282,79.0,0,14,7.0,127.0
16283,82.0,15,14,7.0,127.0
16284,70.0,0,14,8.0,127.0
16285,46.0,0,29,12.0,127.0
16286,70.0,15,14,8.0,127.0
16287,79.0,0,29,1.0,127.0
16288,82.0,0,14,7.0,127.0
16289,58.0,0,29,3.0,127.0
16290,67.0,0,29,2.0,127.0
16291,70.0,0,29,10.0,127.0
16292,91.0,0,29,0.0,127.0
16293,79.0,0,29,0.0,127.0
16294,79.0,0,29,2.0,127.0
16295,58.0,0,29,11.0,127.0
16296,70.0,0,29,5.0,127.0
16297,58.0,0,29,4.0,127.0
16298,70.0,0,29,4.0,127.0
16299,67.0,0,14,8.0,127.0
16300,79.0,0,14,7.0,127.0
16301,55.0,15,29,11.0,127.0
16302,51.0,0,59,6.0,127.0
16303,87.0,0,29,0.0,127.0
16304,67.0,0,29,5.0,127.0
16305,75.0,0,29,0.0,127.0
16306,79.0,15,14,7.0,127.0
16307,43.0,0,29,12.0,127.0
16308,75.0,0,29,2.0,127.0
16309,67.0,0,29,4.0,127.0
16310,75.0,0,29,1.0,127.0
16311,55.0,0,29,4.0,127.0
16312,63.0,0,29,2.0,127.0
16313,67.0,0,14,8.0,127.0
16314,55.0,0,29,3.0,127.0
16315,67.0,0,29,10.0,127.0
16316,87.0,0,14,7.0,127.0
16317,75.0,0,14,8.0,127.0
16318,79.0,0,29,1.0,127.0
16319,58.0,0,29,4.0,127.0
16320,70.0,0,29,4.0,127.0
16321,87.0,15,14,7.0,127.0
16322,75.0,0,29,5.0,127.0
16323,63.0,0,29,5.0,127.0
16324,63.0,0,29,3.0,127.0
16325,91.0,0,29,0.0,127.0
16326,79.0,0,29,0.0,127.0
16327,79.0,0,29,2.0,127.0
16328,67.0,0,29,2.0,127.0
16329,63.0,0,29,11.0,127.0
16330,75.0,0,14,8.0,127.0
16331,75.0,0,29,10.0,127.0
16332,51.0,15,29,12.0,127.0
16333,82.0,0,14,7.0,127.0
16334,70.0,0,14,8.0,127.0
16335,75.0,0,29,1.0,127.0
16336,67.0,0,29,4.0,127.0
16337,82.0,15,14,7.0,127.0
16338,55.0,0,29,4.0,127.0
16339,70.0,0,14,8.0,127.0
16340,46.0,0,29,12.0,127.0
16341,58.0,0,29,3.0,127.0
16342,87.0,0,29,0.0,127.0
16343,63.0,0,29,2.0,127.0
16344,75.0,0,29,2.0,127.0
16345,70.0,15,29,10.0,127.0
16346,58.0,0,29,11.0,127.0
16347,58.0,0,29,5.0,127.0
16348,75.0,0,29,0.0,127.0
16349,70.0,0,29,5.0,127.0
16350,75.0,0,14,8.0,127.0
16351,51.0,0,14,12.0,127.0
16352,63.0,0,14,3.0,127.0
16353,87.0,0,14,7.0,127.0
16354,75.0,0,14,10.0,127.0
16355,63.0,0,14,11.0,127.0
16356,79.0,0,14,8.0,127.0
16357,87.0,15,14,7.0,127.0
16358,75.0,0,14,10.0,127.0
16359,51.0,0,14,12.0,127.0
16360,63.0,0,14,3.0,127.0
16361,63.0,15,14,11.0,127.0
16362,87.0,0,14,7.0,127.0
16363,79.0,0,14,8.0,127.0
16364,87.0,15,14,7.0,127.0
16365,79.0,0,14,8.0,127.0
16366,51.0,0,59,6.0,127.0
16367,74.0,0,14,10.0,127.0
16368,62.0,0,14,11.0,127.0
16369,79.0,0,14,8.0,127.0
16370,62.0,0,14,3.0,127.0
16371,50.0,0,14,12.0,127.0
16372,87.0,15,14,7.0,127.0
16373,87.0,0,14,7.0,127.0
16374,79.0,15,14,8.0,127.0
16375,48.0,0,14,12.0,127.0
16376,60.0,0,14,11.0,127.0
16377,79.0,0,14,8.0,127.0
16378,72.0,0,14,10.0,127.0
16379,87.0,0,14,7.0,127.0
16380,60.0,15,14,3.0,127.0
16381,87.0,15,14,7.0,127.0
16382,79.0,0,14,8.0,127.0
16383,87.0,0,14,7.0,127.0
16384,58.0,15,14,3.0,127.0
16385,70.0,0,14,10.0,127.0
16386,58.0,0,14,11.0,127.0
16387,79.0,0,14,8.0,127.0
16388,46.0,0,14,12.0,127.0
16389,87.0,15,14,7.0,127.0
16390,79.0,0,14,8.0,127.0
16391,87.0,0,14,7.0,127.0
16392,56.0,0,14,11.0,127.0
16393,44.0,0,14,12.0,127.0
16394,79.0,15,14,8.0,127.0
16395,68.0,0,14,10.0,127.0
16396,56.0,0,14,3.0,127.0
16397,87.0,15,14,7.0,127.0
16398,79.0,0,14,8.0,127.0
16399,55.0,0,14,11.0,127.0
16400,55.0,0,14,3.0,127.0
16401,43.0,0,14,12.0,127.0
16402,87.0,0,14,7.0,127.0
16403,79.0,0,14,8.0,127.0
16404,67.0,0,14,10.0,127.0
16405,46.0,15,19,6.0,127.0
16406,87.0,0,14,7.0,127.0
16407,79.0,15,14,8.0,127.0
16408,46.0,5,19,6.0,127.0
16409,41.0,0,14,12.0,127.0
16410,53.0,0,14,3.0,127.0
16411,87.0,10,14,7.0,127.0
16412,65.0,0,14,10.0,127.0
16413,79.0,0,14,8.0,127.0
16414,53.0,0,14,11.0,127.0
16415,91.0,0,239,0.0,127.0
16416,51.0,0,239,4.0,127.0
16417,79.0,0,14,8.0,127.0
16418,87.0,0,239,0.0,127.0
16419,46.0,10,19,6.0,127.0
16420,87.0,5,14,7.0,127.0
16421,75.0,0,239,5.0,127.0
16422,63.0,0,239,4.0,127.0
16423,67.0,15,239,4.0,127.0
16424,63.0,0,239,5.0,127.0
16425,79.0,0,239,1.0,127.0
16426,79.0,0,239,2.0,127.0
16427,75.0,0,239,1.0,127.0
16428,63.0,0,239,2.0,127.0
16429,87.0,0,14,7.0,127.0
16430,51.0,0,14,11.0,127.0
16431,79.0,0,14,8.0,127.0
16432,63.0,0,14,10.0,127.0
16433,39.0,0,14,12.0,127.0
16434,51.0,0,14,3.0,127.0
16435,87.0,15,14,8.0,127.0
16436,91.0,0,14,7.0,127.0
16437,75.0,0,14,8.0,127.0
16438,87.0,0,14,8.0,127.0
16439,91.0,0,14,7.0,127.0
16440,75.0,15,14,8.0,127.0
16441,51.0,0,14,11.0,127.0
16442,51.0,0,14,3.0,127.0
16443,63.0,0,14,10.0,127.0
16444,39.0,0,14,12.0,127.0
16445,91.0,15,14,7.0,127.0
16446,75.0,0,14,8.0,127.0
16447,51.0,0,59,6.0,127.0
16448,87.0,0,14,8.0,127.0
16449,75.0,15,14,8.0,127.0
16450,87.0,0,14,8.0,127.0
16451,91.0,0,14,7.0,127.0
16452,50.0,0,14,3.0,127.0
16453,50.0,0,14,11.0,127.0
16454,38.0,0,14,12.0,127.0
16455,62.0,0,14,10.0,127.0
16456,75.0,0,14,8.0,127.0
16457,87.0,15,14,8.0,127.0
16458,91.0,0,14,7.0,127.0
16459,60.0,0,14,10.0,127.0
16460,75.0,0,14,8.0,127.0
16461,87.0,0,14,8.0,127.0
16462,48.0,15,14,3.0,127.0
16463,36.0,0,14,12.0,127.0
16464,91.0,0,14,7.0,127.0
16465,48.0,0,14,11.0,127.0
16466,87.0,0,14,8.0,127.0
16467,75.0,0,14,8.0,127.0
16468,91.0,15,14,7.0,127.0
16469,46.0,0,14,11.0,127.0
16470,58.0,0,14,10.0,127.0
16471,46.0,0,14,3.0,127.0
16472,87.0,0,14,8.0,127.0
16473,75.0,0,14,8.0,127.0
16474,91.0,0,14,7.0,127.0
16475,34.0,15,14,12.0,127.0
16476,91.0,0,14,7.0,127.0
16477,87.0,15,14,8.0,127.0
16478,75.0,0,14,8.0,127.0
16479,44.0,0,14,3.0,127.0
16480,32.0,0,14,12.0,127.0
16481,87.0,0,14,8.0,127.0
16482,91.0,0,14,7.0,127.0
16483,44.0,0,14,11.0,127.0
16484,75.0,15,14,8.0,127.0
16485,56.0,0,14,10.0,127.0
16486,91.0,0,14,7.0,127.0
16487,75.0,0,14,8.0,127.0
16488,87.0,15,14,8.0,127.0
16489,75.0,0,14,8.0,127.0
16490,43.0,0,14,11.0,127.0
16491,87.0,0,14,8.0,127.0
16492,31.0,15,14,12.0,127.0
16493,55.0,0,14,10.0,127.0
16494,91.0,0,14,7.0,127.0
16495,43.0,0,14,3.0,127.0
16496,46.0,0,19,6.0,127.0
16497,75.0,0,14,8.0,127.0
16498,87.0,0,14,8.0,127.0
16499,91.0,15,14,7.0,127.0
16500,46.0,5,19,6.0,127.0
16501,91.0,0,14,7.0,127.0
16502,87.0,10,14,8.0,127.0
16503,41.0,0,14,11.0,127.0
16504,41.0,0,14,3.0,127.0
16505,53.0,0,14,10.0,127.0
16506,29.0,0,14,12.0,127.0
16507,75.0,0,14,8.0,127.0
16508,75.0,0,14,8.0,127.0
16509,87.0,5,14,8.0,127.0
16510,87.0,0,239,0.0,127.0
16511,67.0,0,239,4.0,127.0
16512,91.0,0,239,0.0,127.0
16513,63.0,0,239,5.0,127.0
16514,63.0,0,239,4.0,127.0
16515,51.0,0,239,4.0,127.0
16516,75.0,0,239,1.0,127.0
16517,79.0,0,239,1.0,127.0
16518,46.0,10,19,6.0,127.0
16519,63.0,15,239,2.0,127.0
16520,79.0,0,239,2.0,127.0
16521,75.0,0,239,5.0,127.0
16522,91.0,0,14,7.0,127.0
16523,79.0,0,14,2.0,127.0
16524,39.0,0,14,3.0,127.0
16525,75.0,0,14,8.0,127.0
16526,63.0,0,14,2.0,127.0
16527,39.0,0,14,11.0,127.0
16528,27.0,0,14,12.0,127.0
16529,91.0,0,14,7.0,127.0
16530,51.0,0,14,10.0,127.0
16531,87.0,0,14,8.0,127.0
16532,91.0,0,14,7.0,127.0
16533,51.0,0,29,6.0,127.0
16534,75.0,15,14,8.0,127.0
16535,87.0,0,14,8.0,127.0
16536,87.0,15,14,8.0,127.0
16537,75.0,0,14,8.0,127.0
16538,51.0,0,14,10.0,127.0
16539,39.0,0,14,11.0,127.0
16540,27.0,0,14,12.0,127.0
16541,39.0,0,14,3.0,127.0
16542,63.0,0,14,2.0,127.0
16543,91.0,0,14,7.0,127.0
16544,87.0,0,14,8.0,127.0
16545,91.0,0,14,7.0,127.0
16546,46.0,0,29,6.0,127.0
16547,51.0,0,59,4.0,127.0
16548,67.0,0,59,4.0,127.0
16549,63.0,0,59,5.0,127.0
16550,75.0,0,59,5.0,127.0
16551,63.0,15,59,4.0,127.0
16552,75.0,15,14,8.0,127.0
16553,41.0,0,14,3.0,127.0
16554,65.0,0,14,2.0,127.0
16555,41.0,0,14,11.0,127.0
16556,87.0,0,14,8.0,127.0
16557,75.0,0,14,8.0,127.0
16558,29.0,0,14,12.0,127.0
16559,53.0,0,14,10.0,127.0
16560,91.0,0,14,7.0,127.0
16561,91.0,0,14,7.0,127.0
16562,75.0,0,14,8.0,127.0
16563,51.0,0,29,6.0,127.0
16564,87.0,15,14,8.0,127.0
16565,31.0,0,14,12.0,127.0
16566,75.0,0,14,8.0,127.0
16567,43.0,0,14,3.0,127.0
16568,87.0,0,14,8.0,127.0
16569,55.0,0,14,10.0,127.0
16570,67.0,0,14,2.0,127.0
16571,91.0,0,14,7.0,127.0
16572,43.0,15,14,11.0,127.0
16573,51.0,15,59,4.0,127.0
16574,75.0,0,14,8.0,127.0
16575,63.0,0,59,4.0,127.0
16576,67.0,0,59,4.0,127.0
16577,87.0,0,14,8.0,127.0
16578,75.0,0,59,5.0,127.0
16579,63.0,0,59,5.0,127.0
16580,91.0,15,14,7.0,127.0
16581,46.0,0,29,6.0,127.0
16582,68.0,0,14,2.0,127.0
16583,75.0,0,14,8.0,127.0
16584,32.0,15,14,12.0,127.0
16585,91.0,0,14,7.0,127.0
16586,87.0,0,14,8.0,127.0
16587,56.0,0,14,10.0,127.0
16588,44.0,0,14,11.0,127.0
16589,44.0,0,14,3.0,127.0
16590,91.0,15,14,7.0,127.0
16591,51.0,0,29,6.0,127.0
16592,75.0,0,14,8.0,127.0
16593,87.0,0,14,8.0,127.0
16594,70.0,0,14,2.0,127.0
16595,46.0,0,14,11.0,127.0
16596,46.0,0,14,3.0,127.0
16597,91.0,0,14,7.0,127.0
16598,34.0,0,14,12.0,127.0
16599,87.0,0,14,8.0,127.0
16600,75.0,0,14,8.0,127.0
16601,58.0,0,14,10.0,127.0
16602,75.0,0,59,5.0,127.0
16603,63.0,0,59,5.0,127.0
16604,51.0,0,59,4.0,127.0
16605,67.0,0,59,4.0,127.0
16606,87.0,0,14,8.0,127.0
16607,75.0,15,14,8.0,127.0
16608,63.0,0,59,4.0,127.0
16609,46.0,15,29,6.0,127.0
16610,91.0,0,14,7.0,127.0
16611,36.0,0,14,12.0,127.0
16612,75.0,0,14,8.0,127.0
16613,87.0,0,14,8.0,127.0
16614,72.0,0,14,2.0,127.0
16615,48.0,0,14,3.0,127.0
16616,91.0,15,14,7.0,127.0
16617,60.0,0,14,10.0,127.0
16618,48.0,0,14,11.0,127.0
16619,91.0,0,14,7.0,127.0
16620,51.0,0,29,6.0,127.0
16621,75.0,0,14,8.0,127.0
16622,87.0,15,14,8.0,127.0
16623,75.0,0,14,8.0,127.0
16624,87.0,0,14,8.0,127.0
16625,38.0,0,14,12.0,127.0
16626,50.0,0,14,3.0,127.0
16627,74.0,0,14,2.0,127.0
16628,91.0,0,14,7.0,127.0
16629,62.0,0,14,10.0,127.0
16630,50.0,15,14,11.0,127.0
16631,91.0,0,239,0.0,127.0
16632,46.0,0,29,6.0,127.0
16633,51.0,0,59,4.0,127.0
16634,63.0,0,59,4.0,127.0
16635,67.0,0,59,4.0,127.0
16636,75.0,0,239,1.0,127.0
16637,87.0,0,239,0.0,127.0
16638,87.0,0,14,8.0,127.0
16639,75.0,0,14,8.0,127.0
16640,79.0,0,239,1.0,127.0
16641,91.0,15,14,7.0,127.0
16642,63.0,0,59,5.0,127.0
16643,75.0,0,59,5.0,127.0
16644,87.0,0,14,8.0,127.0
16645,51.0,0,14,11.0,127.0
16646,75.0,0,14,8.0,127.0
16647,75.0,0,14,2.0,127.0
16648,51.0,0,14,3.0,127.0
16649,91.0,0,14,7.0,127.0
16650,39.0,0,14,12.0,127.0
16651,63.0,0,14,10.0,127.0
16652,87.0,0,14,8.0,127.0
16653,91.0,15,29,0.0,127.0
16654,91.0,15,14,7.0,127.0
16655,79.0,0,29,1.0,127.0
16656,75.0,0,29,1.0,127.0
16657,87.0,0,29,0.0,127.0
16658,51.0,0,29,6.0,127.0
16659,75.0,0,14,8.0,127.0
16660,63.0,15,14,2.0,127.0
16661,39.0,0,14,12.0,127.0
16662,75.0,0,14,0.0,127.0
16663,51.0,0,14,3.0,127.0
16664,63.0,0,14,10.0,127.0
16665,87.0,0,14,8.0,127.0
16666,75.0,0,14,8.0,127.0
16667,91.0,0,14,7.0,127.0
16668,51.0,0,14,11.0,127.0
16669,67.0,0,59,4.0,127.0
16670,63.0,0,59,4.0,127.0
16671,63.0,0,59,5.0,127.0
16672,46.0,0,29,6.0,127.0
16673,51.0,0,59,4.0,127.0
16674,87.0,0,14,8.0,127.0
16675,75.0,15,14,8.0,127.0
16676,75.0,0,29,1.0,127.0
16677,75.0,0,59,5.0,127.0
16678,91.0,0,14,7.0,127.0
16679,65.0,0,14,10.0,127.0
16680,41.0,0,14,12.0,127.0
16681,91.0,0,14,7.0,127.0
16682,77.0,0,14,0.0,127.0
16683,53.0,0,14,3.0,127.0
16684,53.0,0,14,11.0,127.0
16685,65.0,0,14,2.0,127.0
16686,87.0,0,14,8.0,127.0
16687,75.0,15,14,8.0,127.0
16688,91.0,15,14,7.0,127.0
16689,75.0,0,14,8.0,127.0
16690,87.0,0,14,8.0,127.0
16691,77.0,0,29,1.0,127.0
16692,51.0,0,29,6.0,127.0
16693,67.0,0,14,2.0,127.0
16694,43.0,0,14,12.0,127.0
16695,55.0,0,14,3.0,127.0
16696,75.0,0,14,8.0,127.0
16697,79.0,0,14,0.0,127.0
16698,67.0,15,14,10.0,127.0
16699,55.0,0,14,11.0,127.0
16700,87.0,0,14,8.0,127.0
16701,91.0,0,14,7.0,127.0
16702,63.0,0,59,5.0,127.0
16703,79.0,0,29,1.0,127.0
16704,67.0,0,59,4.0,127.0
16705,51.0,0,59,4.0,127.0
16706,75.0,0,14,8.0,127.0
16707,91.0,15,14,7.0,127.0
16708,87.0,0,14,8.0,127.0
16709,63.0,0,59,4.0,127.0
16710,75.0,0,59,5.0,127.0
16711,46.0,0,29,6.0,127.0
16712,80.0,0,14,0.0,127.0
16713,75.0,0,14,8.0,127.0
16714,87.0,0,14,8.0,127.0
16715,44.0,0,14,12.0,127.0
16716,91.0,0,14,7.0,127.0
16717,56.0,0,14,3.0,127.0
16718,56.0,0,14,11.0,127.0
16719,68.0,0,14,2.0,127.0
16720,68.0,0,14,10.0,127.0
16721,51.0,0,29,6.0,127.0
16722,87.0,0,14,8.0,127.0
16723,75.0,0,14,8.0,127.0
16724,91.0,15,14,7.0,127.0
16725,80.0,0,29,1.0,127.0
16726,58.0,0,14,11.0,127.0
16727,91.0,0,14,7.0,127.0
16728,58.0,0,14,3.0,127.0
16729,46.0,0,14,12.0,127.0
16730,70.0,0,14,2.0,127.0
16731,70.0,0,14,10.0,127.0
16732,82.0,0,14,0.0,127.0
16733,75.0,0,14,8.0,127.0
16734,87.0,0,14,8.0,127.0
16735,75.0,15,59,5.0,127.0
16736,63.0,0,59,5.0,127.0
16737,91.0,0,14,7.0,127.0
16738,46.0,15,29,6.0,127.0
16739,75.0,0,14,8.0,127.0
16740,67.0,0,59,4.0,127.0
16741,82.0,0,29,1.0,127.0
16742,63.0,0,59,4.0,127.0
16743,51.0,0,59,4.0,127.0
16744,87.0,15,14,8.0,127.0
16745,75.0,0,14,8.0,127.0
16746,87.0,0,14,8.0,127.0
16747,72.0,0,14,10.0,127.0
16748,60.0,0,14,11.0,127.0
16749,48.0,0,14,12.0,127.0
16750,72.0,15,14,2.0,127.0
16751,91.0,0,14,7.0,127.0
16752,84.0,0,14,0.0,127.0
16753,60.0,0,14,3.0,127.0
16754,91.0,0,14,7.0,127.0
16755,51.0,0,29,6.0,127.0
16756,75.0,0,14,8.0,127.0
16757,84.0,0,29,1.0,127.0
16758,87.0,15,14,8.0,127.0
16759,86.0,0,14,0.0,127.0
16760,62.0,0,14,3.0,127.0
16761,87.0,0,14,8.0,127.0
16762,62.0,0,14,11.0,127.0
16763,74.0,0,14,2.0,127.0
16764,91.0,0,14,7.0,127.0
16765,75.0,0,14,8.0,127.0
16766,50.0,0,14,12.0,127.0
16767,74.0,0,14,10.0,127.0
16768,87.0,0,14,8.0,127.0
16769,75.0,0,14,8.0,127.0
16770,51.0,0,59,4.0,127.0
16771,91.0,15,14,7.0,127.0
16772,75.0,0,59,5.0,127.0
16773,63.0,0,59,5.0,127.0
16774,63.0,0,59,4.0,127.0
16775,46.0,0,29,6.0,127.0
16776,67.0,0,59,4.0,127.0
16777,86.0,15,29,1.0,127.0
16778,75.0,0,119,8.0,127.0
16779,87.0,0,119,8.0,127.0
16780,51.0,0,119,4.0,127.0
16781,63.0,0,119,4.0,127.0
16782,67.0,0,119,4.0,127.0
16783,63.0,0,119,11.0,127.0
16784,75.0,15,119,1.0,127.0
16785,91.0,0,119,7.0,127.0
16786,75.0,0,119,2.0,127.0
16787,87.0,0,119,0.0,127.0
16788,63.0,0,119,10.0,127.0
16789,75.0,0,119,10.0,127.0
16790,63.0,0,119,3.0,127.0
16791,51.0,0,119,6.0,127.0
16792,63.0,0,119,5.0,127.0
16793,75.0,0,119,5.0,127.0
16794,51.0,0,119,12.0,127.0
16795,63.0,0,119,8.0,127.0
16796,55.0,0,119,8.0,127.0
16797,79.0,0,119,8.0,127.0
16798,70.0,0,119,7.0,127.0
16799,63.0,0,119,7.0,127.0
16800,55.0,120,119,7.0,127.0
16801,70.0,0,119,8.0,127.0
16802,79.0,0,119,7.0,127.0
16803,58.0,0,119,3.0,127.0
16804,51.0,0,119,11.0,127.0
16805,75.0,0,119,2.0,127.0
16806,63.0,0,119,5.0,127.0
16807,51.0,0,119,6.0,127.0
16808,67.0,0,119,2.0,127.0
16809,51.0,0,119,4.0,127.0
16810,63.0,120,119,4.0,127.0
16811,67.0,0,119,4.0,127.0
16812,82.0,0,119,0.0,127.0
16813,87.0,0,119,0.0,127.0
16814,55.0,0,119,3.0,127.0
16815,75.0,0,119,5.0,127.0
16816,39.0,0,119,12.0,127.0
16817,63.0,0,119,10.0,127.0
16818,75.0,0,119,1.0,127.0
16819,79.0,0,119,1.0,127.0
16820,63.0,0,119,8.0,127.0
16821,55.0,120,119,8.0,127.0
16822,79.0,0,119,8.0,127.0
16823,70.0,0,119,8.0,127.0
16824,63.0,0,119,7.0,127.0
16825,70.0,0,119,7.0,127.0
16826,82.0,0,119,7.0,127.0
16827,55.0,0,119,7.0,127.0
16828,51.0,0,59,11.0,127.0
16829,63.0,0,59,10.0,127.0
16830,75.0,0,59,1.0,127.0
16831,79.0,0,59,1.0,127.0
16832,39.0,0,59,12.0,127.0
16833,63.0,0,59,4.0,127.0
16834,58.0,0,59,3.0,127.0
16835,55.0,0,59,3.0,127.0
16836,51.0,0,59,4.0,127.0
16837,87.0,0,59,0.0,127.0
16838,82.0,0,59,0.0,127.0
16839,51.0,0,59,6.0,127.0
16840,63.0,0,59,5.0,127.0
16841,75.0,0,59,5.0,127.0
16842,67.0,0,59,4.0,127.0
16843,67.0,0,59,2.0,127.0
16844,75.0,120,59,2.0,127.0
16845,79.0,0,59,7.0,127.0
16846,70.0,60,59,7.0,127.0
16847,63.0,0,59,8.0,127.0
16848,70.0,0,59,8.0,127.0
16849,55.0,0,59,8.0,127.0
16850,79.0,0,59,8.0,127.0
16851,55.0,0,59,7.0,127.0
16852,63.0,0,59,7.0,127.0
16853,55.0,0,59,3.0,127.0
16854,58.0,0,59,3.0,127.0
16855,51.0,60,59,6.0,127.0
16856,79.0,0,59,1.0,127.0
16857,75.0,0,59,1.0,127.0
16858,82.0,0,59,0.0,127.0
16859,87.0,0,59,0.0,127.0
16860,75.0,0,59,5.0,127.0
16861,67.0,0,59,10.0,127.0
16862,67.0,0,59,2.0,127.0
16863,75.0,0,59,2.0,127.0
16864,51.0,0,59,4.0,127.0
16865,63.0,0,59,4.0,127.0
16866,55.0,0,59,11.0,127.0
16867,67.0,0,59,4.0,127.0
16868,43.0,0,59,12.0,127.0
16869,63.0,0,59,5.0,127.0
16870,55.0,0,59,8.0,127.0
16871,79.0,0,59,8.0,127.0
16872,55.0,0,59,7.0,127.0
16873,82.0,0,59,7.0,127.0
16874,70.0,0,59,7.0,127.0
16875,63.0,0,59,7.0,127.0
16876,63.0,0,59,8.0,127.0
16877,70.0,60,59,8.0,127.0
16878,55.0,0,59,3.0,127.0
16879,58.0,0,59,3.0,127.0
16880,70.0,0,59,10.0,127.0
16881,75.0,0,59,1.0,127.0
16882,46.0,0,59,12.0,127.0
16883,79.0,0,59,1.0,127.0
16884,67.0,0,59,2.0,127.0
16885,75.0,0,59,2.0,127.0
16886,67.0,0,59,4.0,127.0
16887,51.0,0,59,6.0,127.0
16888,75.0,0,59,5.0,127.0
16889,63.0,60,59,5.0,127.0
16890,82.0,0,59,0.0,127.0
16891,87.0,0,59,0.0,127.0
16892,63.0,0,59,4.0,127.0
16893,51.0,0,59,4.0,127.0
16894,58.0,0,59,11.0,127.0
16895,82.0,60,59,7.0,127.0
16896,55.0,0,59,7.0,127.0
16897,70.0,0,59,7.0,127.0
16898,63.0,0,59,7.0,127.0
16899,55.0,0,59,8.0,127.0
16900,79.0,0,59,8.0,127.0
16901,70.0,0,59,8.0,127.0
16902,63.0,0,59,8.0,127.0
16903,51.0,0,59,6.0,127.0
16904,82.0,0,59,0.0,127.0
16905,87.0,0,59,0.0,127.0
16906,75.0,0,59,2.0,127.0
16907,43.0,0,59,12.0,127.0
16908,55.0,0,59,11.0,127.0
16909,67.0,0,59,10.0,127.0
16910,63.0,0,59,5.0,127.0
16911,67.0,0,59,4.0,127.0
16912,63.0,0,59,4.0,127.0
16913,51.0,0,59,4.0,127.0
16914,75.0,0,59,1.0,127.0
16915,75.0,0,59,5.0,127.0
16916,79.0,0,59,1.0,127.0
16917,55.0,60,59,3.0,127.0
16918,58.0,0,59,3.0,127.0
16919,67.0,0,59,2.0,127.0
16920,82.0,0,59,7.0,127.0
16921,79.0,0,59,8.0,127.0
16922,63.0,60,59,7.0,127.0
16923,63.0,0,59,8.0,127.0
16924,55.0,0,59,7.0,127.0
16925,70.0,0,59,7.0,127.0
16926,55.0,0,59,8.0,127.0
16927,70.0,0,59,8.0,127.0
16928,63.0,0,59,5.0,127.0
16929,75.0,0,59,5.0,127.0
16930,51.0,0,59,4.0,127.0
16931,63.0,0,59,4.0,127.0
16932,67.0,0,59,4.0,127.0
16933,55.0,0,59,3.0,127.0
16934,82.0,0,59,0.0,127.0
16935,58.0,60,59,3.0,127.0
16936,79.0,0,59,1.0,127.0
16937,75.0,0,59,1.0,127.0
16938,75.0,0,59,2.0,127.0
16939,67.0,0,59,2.0,127.0
16940,51.0,0,59,6.0,127.0
16941,87.0,0,59,0.0,127.0
16942,39.0,0,119,12.0,127.0
16943,63.0,0,119,10.0,127.0
16944,51.0,0,119,11.0,127.0
16945,63.0,0,59,7.0,127.0
16946,82.0,0,59,7.0,127.0
16947,55.0,120,59,7.0,127.0
16948,70.0,0,59,7.0,127.0
16949,55.0,0,59,8.0,127.0
16950,63.0,0,59,8.0,127.0
16951,70.0,0,59,8.0,127.0
16952,79.0,0,59,8.0,127.0
16953,70.0,0,59,2.0,127.0
16954,79.0,120,59,2.0,127.0
16955,63.0,0,59,3.0,127.0
16956,51.0,0,59,3.0,127.0
16957,51.0,0,59,6.0,127.0
16958,67.0,0,59,5.0,127.0
16959,51.0,0,59,4.0,127.0
16960,63.0,0,59,4.0,127.0
16961,91.0,0,59,0.0,127.0
16962,87.0,0,59,0.0,127.0
16963,82.0,0,59,1.0,127.0
16964,79.0,0,59,1.0,127.0
16965,67.0,0,59,4.0,127.0
16966,70.0,0,59,5.0,127.0
16967,39.0,0,119,12.0,127.0
16968,63.0,0,119,10.0,127.0
16969,51.0,0,119,11.0,127.0
16970,70.0,120,59,7.0,127.0
16971,79.0,0,59,7.0,127.0
16972,63.0,0,59,8.0,127.0
16973,79.0,0,59,8.0,127.0
16974,70.0,0,59,8.0,127.0
16975,87.0,0,59,7.0,127.0
16976,67.0,0,59,5.0,127.0
16977,70.0,0,59,5.0,127.0
16978,91.0,0,59,0.0,127.0
16979,87.0,0,59,0.0,127.0
16980,79.0,0,59,1.0,127.0
16981,82.0,120,59,1.0,127.0
16982,51.0,0,59,3.0,127.0
16983,58.0,0,59,4.0,127.0
16984,70.0,0,59,2.0,127.0
16985,79.0,0,59,2.0,127.0
16986,63.0,0,59,3.0,127.0
16987,51.0,0,59,4.0,127.0
16988,51.0,0,59,6.0,127.0
16989,63.0,0,59,4.0,127.0
16990,63.0,0,119,10.0,127.0
16991,63.0,0,59,8.0,127.0
16992,51.0,0,119,11.0,127.0
16993,39.0,0,119,12.0,127.0
16994,70.0,0,59,8.0,127.0
16995,70.0,0,59,7.0,127.0
16996,79.0,0,59,7.0,127.0
16997,87.0,60,59,7.0,127.0
16998,79.0,0,59,8.0,127.0
16999,79.0,0,59,2.0,127.0
17000,70.0,0,59,2.0,127.0
17001,63.0,0,59,3.0,127.0
17002,70.0,0,59,5.0,127.0
17003,67.0,0,59,5.0,127.0
17004,51.0,0,59,3.0,127.0
17005,82.0,0,59,1.0,127.0
17006,79.0,0,59,1.0,127.0
17007,91.0,0,59,0.0,127.0
17008,51.0,0,59,4.0,127.0
17009,58.0,0,59,4.0,127.0
17010,87.0,60,59,0.0,127.0
17011,63.0,0,59,4.0,127.0
17012,51.0,0,59,6.0,127.0
17013,87.0,60,59,7.0,127.0
17014,79.0,0,59,7.0,127.0
17015,70.0,0,59,7.0,127.0
17016,79.0,0,59,8.0,127.0
17017,63.0,0,59,8.0,127.0
17018,63.0,0,119,11.0,127.0
17019,51.0,0,119,12.0,127.0
17020,75.0,0,119,10.0,127.0
17021,70.0,0,59,8.0,127.0
17022,82.0,0,59,1.0,127.0
17023,51.0,0,59,3.0,127.0
17024,63.0,0,59,3.0,127.0
17025,91.0,0,59,0.0,127.0
17026,87.0,0,59,0.0,127.0
17027,58.0,0,59,4.0,127.0
17028,63.0,0,59,4.0,127.0
17029,79.0,0,59,1.0,127.0
17030,51.0,0,59,6.0,127.0
17031,79.0,0,59,2.0,127.0
17032,70.0,0,59,2.0,127.0
17033,67.0,0,59,5.0,127.0
17034,70.0,0,59,5.0,127.0
17035,51.0,0,59,4.0,127.0
17036,63.0,0,59,8.0,127.0
17037,79.0,0,59,8.0,127.0
17038,58.0,60,119,11.0,127.0
17039,70.0,0,119,10.0,127.0
17040,70.0,60,59,8.0,127.0
17041,70.0,0,59,7.0,127.0
17042,79.0,0,59,7.0,127.0
17043,87.0,0,59,7.0,127.0
17044,46.0,0,119,12.0,127.0
17045,82.0,0,59,1.0,127.0
17046,67.0,0,59,5.0,127.0
17047,79.0,0,59,1.0,127.0
17048,51.0,0,59,4.0,127.0
17049,79.0,0,59,2.0,127.0
17050,70.0,0,59,2.0,127.0
17051,70.0,0,59,5.0,127.0
17052,63.0,0,59,4.0,127.0
17053,58.0,0,59,4.0,127.0
17054,51.0,0,59,6.0,127.0
17055,51.0,0,59,3.0,127.0
17056,63.0,0,59,3.0,127.0
17057,91.0,0,59,0.0,127.0
17058,87.0,0,59,0.0,127.0
17059,87.0,0,59,7.0,127.0
17060,63.0,0,59,8.0,127.0
17061,79.0,60,59,7.0,127.0
17062,70.0,0,59,8.0,127.0
17063,67.0,0,119,10.0,127.0
17064,55.0,0,119,11.0,127.0
17065,79.0,0,59,8.0,127.0
17066,43.0,60,119,12.0,127.0
17067,70.0,0,59,7.0,127.0
17068,51.0,0,14,6.0,127.0
17069,51.0,0,29,3.0,127.0
17070,63.0,0,29,3.0,127.0
17071,79.0,0,29,2.0,127.0
17072,70.0,0,29,2.0,127.0
17073,51.0,15,14,6.0,127.0
17074,51.0,15,14,6.0,127.0
17075,39.0,0,59,12.0,127.0
17076,51.0,0,29,3.0,127.0
17077,79.0,0,59,8.0,127.0
17078,63.0,0,29,2.0,127.0
17079,87.0,0,59,7.0,127.0
17080,63.0,0,59,8.0,127.0
17081,70.0,0,59,8.0,127.0
17082,79.0,0,59,7.0,127.0
17083,82.0,0,59,1.0,127.0
17084,51.0,0,59,11.0,127.0
17085,70.0,60,59,7.0,127.0
17086,79.0,0,59,1.0,127.0
17087,51.0,15,14,6.0,127.0
17088,63.0,0,59,10.0,127.0
17089,87.0,0,59,0.0,127.0
17090,91.0,0,59,0.0,127.0
17091,51.0,0,14,6.0,127.0
17092,53.0,0,29,3.0,127.0
17093,51.0,15,14,6.0,127.0
17094,65.0,15,29,2.0,127.0
17095,51.0,0,14,6.0,127.0
17096,51.0,15,14,6.0,127.0
17097,55.0,15,29,3.0,127.0
17098,67.0,0,29,2.0,127.0
17099,51.0,15,14,6.0,127.0
17100,56.0,0,29,3.0,127.0
17101,68.0,0,29,2.0,127.0
17102,51.0,15,14,6.0,127.0
17103,51.0,15,14,6.0,127.0
17104,51.0,15,14,6.0,127.0
17105,58.0,0,29,3.0,127.0
17106,70.0,0,29,2.0,127.0
17107,51.0,0,14,6.0,127.0
17108,51.0,15,14,6.0,127.0
17109,72.0,0,29,2.0,127.0
17110,60.0,15,29,3.0,127.0
17111,51.0,0,14,6.0,127.0
17112,62.0,0,29,3.0,127.0
17113,51.0,15,14,6.0,127.0
17114,74.0,15,29,2.0,127.0
17115,51.0,15,14,6.0,127.0
17116,51.0,0,269,4.0,127.0
17117,75.0,0,269,5.0,127.0
17118,75.0,0,29,2.0,127.0
17119,63.0,0,29,3.0,127.0
17120,63.0,0,269,4.0,127.0
17121,51.0,15,14,6.0,127.0
17122,63.0,0,269,5.0,127.0
17123,75.0,0,14,7.0,127.0
17124,63.0,15,14,8.0,127.0
17125,51.0,0,14,10.0,127.0
17126,51.0,0,14,6.0,127.0
17127,51.0,0,29,11.0,127.0
17128,75.0,0,29,5.0,127.0
17129,63.0,0,29,2.0,127.0
17130,51.0,15,14,10.0,127.0
17131,75.0,0,14,7.0,127.0
17132,75.0,0,29,1.0,127.0
17133,39.0,0,29,12.0,127.0
17134,67.0,0,29,4.0,127.0
17135,63.0,0,29,4.0,127.0
17136,63.0,0,14,8.0,127.0
17137,75.0,0,29,0.0,127.0
17138,51.0,0,29,4.0,127.0
17139,51.0,0,29,3.0,127.0
17140,51.0,0,14,6.0,127.0
17141,63.0,0,29,5.0,127.0
17142,51.0,0,14,6.0,127.0
17143,65.0,0,14,8.0,127.0
17144,53.0,0,14,10.0,127.0
17145,77.0,0,14,7.0,127.0
17146,77.0,0,29,0.0,127.0
17147,53.0,0,29,11.0,127.0
17148,53.0,15,14,10.0,127.0
17149,75.0,0,29,5.0,127.0
17150,63.0,15,29,5.0,127.0
17151,41.0,0,29,12.0,127.0
17152,51.0,0,29,4.0,127.0
17153,63.0,0,29,4.0,127.0
17154,65.0,0,29,2.0,127.0
17155,51.0,0,14,6.0,127.0
17156,53.0,0,29,3.0,127.0
17157,65.0,0,14,8.0,127.0
17158,77.0,0,29,1.0,127.0
17159,77.0,0,14,7.0,127.0
17160,67.0,0,29,4.0,127.0
17161,55.0,15,14,10.0,127.0
17162,67.0,0,14,8.0,127.0
17163,51.0,0,14,6.0,127.0
17164,79.0,0,14,7.0,127.0
17165,79.0,0,14,7.0,127.0
17166,67.0,0,14,8.0,127.0
17167,79.0,0,29,1.0,127.0
17168,55.0,0,29,3.0,127.0
17169,43.0,0,29,12.0,127.0
17170,51.0,15,14,6.0,127.0
17171,67.0,0,29,2.0,127.0
17172,63.0,0,29,5.0,127.0
17173,51.0,0,29,4.0,127.0
17174,67.0,0,29,4.0,127.0
17175,75.0,0,29,5.0,127.0
17176,79.0,0,29,0.0,127.0
17177,63.0,0,29,4.0,127.0
17178,55.0,0,29,11.0,127.0
17179,55.0,0,14,10.0,127.0
17180,56.0,0,14,10.0,127.0
17181,68.0,0,14,8.0,127.0
17182,80.0,0,14,7.0,127.0
17183,51.0,0,14,6.0,127.0
17184,68.0,0,14,8.0,127.0
17185,80.0,0,29,1.0,127.0
17186,56.0,15,29,3.0,127.0
17187,63.0,0,29,4.0,127.0
17188,44.0,0,29,12.0,127.0
17189,63.0,0,29,5.0,127.0
17190,51.0,0,29,4.0,127.0
17191,75.0,0,29,5.0,127.0
17192,68.0,0,29,2.0,127.0
17193,56.0,0,29,11.0,127.0
17194,56.0,0,14,10.0,127.0
17195,67.0,0,29,4.0,127.0
17196,80.0,0,29,0.0,127.0
17197,80.0,15,14,7.0,127.0
17198,51.0,0,14,6.0,127.0
17199,82.0,0,14,7.0,127.0
17200,70.0,0,14,8.0,127.0
17201,51.0,0,14,6.0,127.0
17202,58.0,0,14,10.0,127.0
17203,82.0,0,29,1.0,127.0
17204,51.0,0,14,6.0,127.0
17205,63.0,0,29,5.0,127.0
17206,70.0,15,29,2.0,127.0
17207,46.0,0,29,12.0,127.0
17208,75.0,0,29,5.0,127.0
17209,67.0,0,29,4.0,127.0
17210,58.0,0,29,3.0,127.0
17211,51.0,0,29,4.0,127.0
17212,63.0,0,29,4.0,127.0
17213,58.0,0,14,10.0,127.0
17214,82.0,0,29,0.0,127.0
17215,70.0,15,14,8.0,127.0
17216,58.0,0,29,11.0,127.0
17217,82.0,0,14,7.0,127.0
17218,60.0,0,14,10.0,127.0
17219,84.0,0,14,7.0,127.0
17220,72.0,0,14,8.0,127.0
17221,51.0,0,14,6.0,127.0
17222,48.0,0,29,12.0,127.0
17223,63.0,15,29,4.0,127.0
17224,51.0,0,29,4.0,127.0
17225,84.0,0,29,1.0,127.0
17226,60.0,0,29,3.0,127.0
17227,84.0,0,29,0.0,127.0
17228,84.0,0,14,7.0,127.0
17229,51.0,0,14,6.0,127.0
17230,72.0,15,14,8.0,127.0
17231,60.0,0,14,10.0,127.0
17232,60.0,0,29,11.0,127.0
17233,75.0,0,29,5.0,127.0
17234,63.0,0,29,5.0,127.0
17235,72.0,0,29,2.0,127.0
17236,67.0,0,29,4.0,127.0
17237,62.0,0,14,10.0,127.0
17238,86.0,0,14,7.0,127.0
17239,51.0,0,14,6.0,127.0
17240,74.0,0,14,8.0,127.0
17241,62.0,0,29,11.0,127.0
17242,75.0,15,29,5.0,127.0
17243,63.0,0,29,5.0,127.0
17244,67.0,0,29,4.0,127.0
17245,51.0,15,14,6.0,127.0
17246,51.0,0,29,4.0,127.0
17247,50.0,0,29,12.0,127.0
17248,74.0,0,29,2.0,127.0
17249,86.0,0,14,7.0,127.0
17250,74.0,0,14,8.0,127.0
17251,86.0,0,29,0.0,127.0
17252,62.0,0,14,10.0,127.0
17253,62.0,0,29,3.0,127.0
17254,86.0,0,29,1.0,127.0
17255,63.0,0,29,4.0,127.0
17256,87.0,0,59,7.0,127.0
17257,75.0,0,59,8.0,127.0
17258,67.0,0,59,4.0,127.0
17259,51.0,0,59,12.0,127.0
17260,63.0,0,59,8.0,127.0
17261,55.0,0,59,8.0,127.0
17262,63.0,0,59,3.0,127.0
17263,51.0,0,59,3.0,127.0
17264,75.0,0,59,2.0,127.0
17265,63.0,0,59,4.0,127.0
17266,82.0,15,59,0.0,127.0
17267,75.0,0,59,1.0,127.0
17268,51.0,0,59,4.0,127.0
17269,63.0,0,59,10.0,127.0
17270,51.0,0,59,6.0,127.0
17271,87.0,0,59,0.0,127.0
17272,79.0,0,59,1.0,127.0
17273,63.0,0,59,5.0,127.0
17274,63.0,0,59,11.0,127.0
17275,75.0,0,59,5.0,127.0
17276,67.0,0,59,4.0,127.0
17277,63.0,0,59,4.0,127.0
17278,79.0,0,59,2.0,127.0
17279,70.0,0,59,2.0,127.0
17280,51.0,0,59,6.0,127.0
17281,63.0,0,59,8.0,127.0
17282,51.0,0,59,4.0,127.0
17283,79.0,0,59,1.0,127.0
17284,79.0,0,59,8.0,127.0
17285,82.0,240,59,1.0,127.0
17286,55.0,0,59,8.0,127.0
17287,70.0,0,59,8.0,127.0
17288,39.0,0,59,12.0,127.0
17289,75.0,0,59,10.0,127.0
17290,91.0,0,59,0.0,127.0
17291,63.0,0,59,5.0,127.0
17292,75.0,0,59,5.0,127.0
17293,55.0,0,59,7.0,127.0
17294,70.0,0,59,7.0,127.0
17295,51.0,0,59,11.0,127.0
17296,63.0,0,59,7.0,127.0
17297,51.0,0,59,3.0,127.0
17298,63.0,0,59,3.0,127.0
17299,82.0,0,59,0.0,127.0
17300,82.0,0,59,7.0,127.0
17301,67.0,0,59,2.0,127.0
17302,75.0,0,59,2.0,127.0
17303,51.0,0,119,4.0,127.0
17304,79.0,0,119,1.0,127.0
17305,63.0,0,119,4.0,127.0
17306,75.0,240,119,5.0,127.0
17307,63.0,0,119,5.0,127.0
17308,87.0,0,119,0.0,127.0
17309,82.0,0,119,0.0,127.0
17310,63.0,0,119,10.0,127.0
17311,63.0,0,119,3.0,127.0
17312,51.0,0,119,3.0,127.0
17313,39.0,0,119,12.0,127.0
17314,51.0,0,119,6.0,127.0
17315,55.0,0,119,8.0,127.0
17316,63.0,0,119,8.0,127.0
17317,75.0,0,119,8.0,127.0
17318,75.0,0,119,7.0,127.0
17319,63.0,0,119,7.0,127.0
17320,55.0,0,119,7.0,127.0
17321,75.0,0,119,1.0,127.0
17322,51.0,0,119,11.0,127.0
