,note,step,duration,channel,velocity
0,84.0,3,120,10.0,0.0
1,69.0,3,240,10.0,0.0
2,89.0,1,600,0.0,0.0
3,60.0,0,600,6.0,0.0
4,84.0,12,120,11.0,0.0
5,69.0,27,240,11.0,0.0
6,60.0,0,600,4.0,0.0
7,77.0,1,600,1.0,0.0
8,77.0,0,600,2.0,0.0
9,48.0,1,600,5.0,0.0
10,53.0,1,600,12.0,0.0
11,60.0,3,600,3.0,0.0
12,41.0,2,600,13.0,0.0
13,29.0,16,600,14.0,0.0
14,41.0,45,120,15.0,0.0
15,81.0,3,60,10.0,0.0
16,81.0,57,60,11.0,0.0
17,82.0,0,60,10.0,0.0
18,82.0,0,60,11.0,0.0
19,84.0,3,30,10.0,0.0
20,84.0,57,30,11.0,0.0
21,81.0,3,30,10.0,0.0
22,81.0,267,30,11.0,0.0
23,77.0,1,240,10.0,0.0
24,77.0,1,240,11.0,0.0
25,72.0,1,30,10.0,0.0
26,84.0,0,0,0.0,0.0
27,72.0,1,0,6.0,0.0
28,60.0,1,45,6.0,0.0
29,72.0,1,30,11.0,0.0
30,60.0,4,45,4.0,0.0
31,81.0,0,0,1.0,0.0
32,72.0,1,30,1.0,0.0
33,69.0,2,0,2.0,0.0
34,72.0,0,30,2.0,0.0
35,48.0,23,45,5.0,0.0
36,57.0,1,30,12.0,0.0
37,57.0,0,0,3.0,0.0
38,53.0,3,30,3.0,0.0
39,41.0,2,30,13.0,0.0
40,29.0,3,30,14.0,0.0
41,41.0,15,60,15.0,0.0
42,77.0,1,30,10.0,0.0
43,89.0,2,30,0.0,0.0
44,84.0,0,30,0.0,0.0
45,72.0,1,45,6.0,0.0
46,60.0,0,45,6.0,0.0
47,60.0,4,45,4.0,0.0
48,77.0,1,30,11.0,0.0
49,77.0,0,30,1.0,0.0
50,81.0,1,30,1.0,0.0
51,77.0,3,30,2.0,0.0
52,69.0,0,30,2.0,0.0
53,48.0,23,45,5.0,0.0
54,57.0,1,30,12.0,0.0
55,53.0,0,30,3.0,0.0
56,57.0,3,30,3.0,0.0
57,41.0,2,30,13.0,0.0
58,29.0,3,30,14.0,0.0
59,41.0,45,60,15.0,0.0
60,77.0,1,60,10.0,0.0
61,84.0,0,120,0.0,0.0
62,89.0,2,60,0.0,0.0
63,72.0,1,120,6.0,0.0
64,60.0,0,120,6.0,0.0
65,77.0,1,60,11.0,0.0
66,77.0,1,60,1.0,0.0
67,70.0,0,120,2.0,0.0
68,77.0,2,60,2.0,0.0
69,58.0,0,55,12.0,0.0
70,43.0,2,55,13.0,0.0
71,31.0,51,55,14.0,0.0
72,76.0,1,60,10.0,0.0
73,88.0,1,60,0.0,0.0
74,76.0,0,60,11.0,0.0
75,76.0,2,60,2.0,0.0
76,70.0,0,55,12.0,0.0
77,43.0,0,55,13.0,0.0
78,31.0,6,55,14.0,0.0
79,76.0,1,30,10.0,0.0
80,84.0,0,30,0.0,0.0
81,88.0,2,30,0.0,0.0
82,72.0,1,45,6.0,0.0
83,60.0,0,45,6.0,0.0
84,64.0,1,30,11.0,0.0
85,60.0,1,0,4.0,0.0
86,82.0,0,0,1.0,0.0
87,76.0,1,0,1.0,0.0
88,64.0,3,30,2.0,0.0
89,72.0,0,30,2.0,0.0
90,48.0,2,0,5.0,0.0
91,58.0,1,30,12.0,0.0
92,55.0,0,0,3.0,0.0
93,58.0,0,0,3.0,0.0
94,43.0,2,30,13.0,0.0
95,31.0,3,30,14.0,0.0
96,48.0,15,0,15.0,0.0
97,77.0,1,30,10.0,0.0
98,84.0,2,30,0.0,0.0
99,89.0,0,30,0.0,0.0
100,72.0,0,45,6.0,0.0
101,60.0,1,45,6.0,0.0
102,65.0,1,30,11.0,0.0
103,60.0,4,45,4.0,0.0
104,77.0,1,30,1.0,0.0
105,65.0,3,30,2.0,0.0
106,74.0,0,30,2.0,0.0
107,48.0,23,45,5.0,0.0
108,57.0,1,30,12.0,0.0
109,53.0,3,30,3.0,0.0
110,57.0,0,30,3.0,0.0
111,53.0,2,30,13.0,0.0
112,41.0,3,30,14.0,0.0
113,48.0,15,0,15.0,0.0
114,79.0,1,30,10.0,0.0
115,91.0,2,30,0.0,0.0
116,84.0,0,30,0.0,0.0
117,60.0,0,45,6.0,0.0
118,72.0,1,45,6.0,0.0
119,60.0,4,45,4.0,0.0
120,67.0,1,30,11.0,0.0
121,79.0,1,30,1.0,0.0
122,76.0,3,30,2.0,0.0
123,67.0,0,30,2.0,0.0
124,48.0,23,45,5.0,0.0
125,55.0,1,30,12.0,0.0
126,55.0,0,30,3.0,0.0
127,52.0,3,30,3.0,0.0
128,52.0,2,30,13.0,0.0
129,40.0,3,30,14.0,0.0
130,48.0,15,0,15.0,0.0
131,81.0,1,30,10.0,0.0
132,89.0,2,30,0.0,0.0
133,84.0,0,30,0.0,0.0
134,72.0,1,45,6.0,0.0
135,60.0,0,45,6.0,0.0
136,69.0,1,30,11.0,0.0
137,60.0,4,45,4.0,0.0
138,81.0,1,30,1.0,0.0
139,77.0,3,30,2.0,0.0
140,69.0,0,30,2.0,0.0
141,48.0,23,45,5.0,0.0
142,53.0,1,30,12.0,0.0
143,53.0,0,30,3.0,0.0
144,50.0,3,30,3.0,0.0
145,50.0,2,30,13.0,0.0
146,38.0,3,30,14.0,0.0
147,48.0,15,0,15.0,0.0
148,82.0,1,120,10.0,0.0
149,88.0,1,120,0.0,0.0
150,84.0,0,120,0.0,0.0
151,72.0,1,120,6.0,0.0
152,60.0,0,120,6.0,0.0
153,60.0,1,120,4.0,0.0
154,70.0,0,120,11.0,0.0
155,79.0,0,120,1.0,0.0
156,82.0,1,120,1.0,0.0
157,70.0,0,120,2.0,0.0
158,79.0,2,120,2.0,0.0
159,48.0,1,120,5.0,0.0
160,52.0,1,120,12.0,0.0
161,52.0,0,120,3.0,0.0
162,48.0,3,120,3.0,0.0
163,48.0,2,120,13.0,0.0
164,36.0,1,120,14.0,0.0
165,48.0,350,120,15.0,0.0
166,64.0,2,595,2.0,0.0
167,70.0,60,120,2.0,0.0
168,48.0,0,595,3.0,0.0
169,55.0,1,595,3.0,0.0
170,67.0,60,60,2.0,0.0
171,69.0,60,60,2.0,0.0
172,70.0,60,60,2.0,0.0
173,71.0,233,60,2.0,0.0
174,67.0,2,235,4.0,0.0
175,76.0,1,355,1.0,0.0
176,72.0,113,240,2.0,0.0
177,60.0,2,235,5.0,0.0
178,67.0,1,115,4.0,0.0
179,70.0,0,115,2.0,0.0
180,64.0,2,115,2.0,0.0
181,60.0,2,115,5.0,0.0
182,55.0,61,115,3.0,0.0
183,48.0,0,115,3.0,0.0
184,69.0,2,120,4.0,0.0
185,77.0,4,115,1.0,0.0
186,69.0,54,60,2.0,0.0
187,65.0,2,120,5.0,0.0
188,57.0,114,120,3.0,0.0
189,72.0,2,60,2.0,0.0
190,65.0,1,120,4.0,0.0
191,77.0,1,120,1.0,0.0
192,72.0,0,120,1.0,0.0
193,60.0,2,120,2.0,0.0
194,65.0,0,0,2.0,0.0
195,57.0,2,120,5.0,0.0
196,53.0,0,0,3.0,0.0
197,45.0,109,120,3.0,0.0
198,67.0,1,115,4.0,0.0
199,76.0,1,115,1.0,0.0
200,79.0,0,115,1.0,0.0
201,64.0,0,115,2.0,0.0
202,67.0,2,115,2.0,0.0
203,60.0,2,115,5.0,0.0
204,55.0,237,115,3.0,0.0
205,48.0,0,115,3.0,0.0
206,67.0,1,240,4.0,0.0
207,76.0,1,240,1.0,0.0
208,79.0,0,240,1.0,0.0
209,67.0,2,240,2.0,0.0
210,64.0,0,240,2.0,0.0
211,60.0,2,240,5.0,0.0
212,55.0,112,240,3.0,0.0
213,48.0,0,240,3.0,0.0
214,88.0,2,120,0.0,0.0
215,89.0,2,120,0.0,0.0
216,69.0,1,120,4.0,0.0
217,81.0,1,120,1.0,0.0
218,77.0,0,120,1.0,0.0
219,69.0,2,120,2.0,0.0
220,65.0,0,120,2.0,0.0
221,65.0,2,120,5.0,0.0
222,57.0,111,120,3.0,0.0
223,53.0,0,120,3.0,0.0
224,82.0,3,120,10.0,0.0
225,70.0,57,120,11.0,0.0
226,60.0,4,300,12.0,0.0
227,48.0,0,300,12.0,0.0
228,48.0,2,300,13.0,0.0
229,36.0,16,300,14.0,0.0
230,79.0,3,60,10.0,0.0
231,67.0,52,60,11.0,0.0
232,81.0,3,55,10.0,0.0
233,69.0,32,55,11.0,0.0
234,82.0,3,30,10.0,0.0
235,70.0,35,30,11.0,0.0
236,83.0,1,30,10.0,0.0
237,71.0,9,30,11.0,0.0
238,50.0,2,23,12.0,0.0
239,50.0,2,30,13.0,0.0
240,38.0,17,30,14.0,0.0
241,50.0,30,23,12.0,0.0
242,84.0,3,235,10.0,0.0
243,91.0,0,360,0.0,0.0
244,72.0,2,235,11.0,0.0
245,79.0,0,360,1.0,0.0
246,82.0,3,360,1.0,0.0
247,72.0,1,235,2.0,0.0
248,84.0,0,235,2.0,0.0
249,48.0,23,360,5.0,0.0
250,51.0,8,23,12.0,0.0
251,55.0,3,30,3.0,0.0
252,51.0,2,30,13.0,0.0
253,39.0,17,30,14.0,0.0
254,48.0,16,120,15.0,0.0
255,51.0,30,23,12.0,0.0
256,52.0,8,23,12.0,0.0
257,55.0,3,30,3.0,0.0
258,52.0,2,30,13.0,0.0
259,40.0,17,30,14.0,0.0
260,52.0,14,23,12.0,0.0
261,53.0,8,23,12.0,0.0
262,57.0,3,30,3.0,0.0
263,53.0,2,30,13.0,0.0
264,41.0,17,30,14.0,0.0
265,53.0,30,23,12.0,0.0
266,55.0,8,23,12.0,0.0
267,58.0,3,30,3.0,0.0
268,55.0,2,30,13.0,0.0
269,43.0,11,30,14.0,0.0
270,55.0,30,23,12.0,0.0
271,82.0,3,115,10.0,0.0
272,70.0,2,115,11.0,0.0
273,82.0,1,115,2.0,0.0
274,70.0,0,115,2.0,0.0
275,57.0,8,23,12.0,0.0
276,60.0,3,30,3.0,0.0
277,57.0,2,30,13.0,0.0
278,45.0,17,30,14.0,0.0
279,57.0,30,23,12.0,0.0
280,58.0,8,23,12.0,0.0
281,62.0,3,30,3.0,0.0
282,58.0,2,30,13.0,0.0
283,46.0,11,30,14.0,0.0
284,58.0,0,23,12.0,0.0
285,81.0,3,30,10.0,0.0
286,84.0,1,0,0.0,0.0
287,89.0,0,60,0.0,0.0
288,60.0,1,0,6.0,0.0
289,72.0,0,0,6.0,0.0
290,60.0,1,0,4.0,0.0
291,69.0,5,30,11.0,0.0
292,77.0,0,60,1.0,0.0
293,81.0,1,60,1.0,0.0
294,81.0,0,60,2.0,0.0
295,69.0,2,60,2.0,0.0
296,48.0,1,60,5.0,0.0
297,60.0,22,30,12.0,0.0
298,57.0,3,60,3.0,0.0
299,53.0,0,60,3.0,0.0
300,60.0,2,60,13.0,0.0
301,48.0,1,60,14.0,0.0
302,48.0,105,60,15.0,0.0
303,84.0,1,30,10.0,0.0
304,72.0,0,30,11.0,0.0
305,65.0,1,30,12.0,0.0
306,77.0,1,60,10.0,0.0
307,89.0,1,60,0.0,0.0
308,84.0,0,60,0.0,0.0
309,60.0,0,60,6.0,0.0
310,72.0,1,60,6.0,0.0
311,65.0,1,60,11.0,0.0
312,65.0,0,60,4.0,0.0
313,77.0,1,60,1.0,0.0
314,81.0,0,60,1.0,0.0
315,77.0,0,60,2.0,0.0
316,69.0,2,60,2.0,0.0
317,57.0,1,60,5.0,0.0
318,57.0,0,60,12.0,0.0
319,48.0,1,60,12.0,0.0
320,53.0,0,60,3.0,0.0
321,57.0,3,60,3.0,0.0
322,48.0,2,60,13.0,0.0
323,36.0,1,60,14.0,0.0
324,48.0,75,60,15.0,0.0
325,81.0,3,30,10.0,0.0
326,84.0,0,60,0.0,0.0
327,91.0,1,60,0.0,0.0
328,72.0,0,60,6.0,0.0
329,60.0,1,60,6.0,0.0
330,69.0,27,30,11.0,0.0
331,67.0,0,60,4.0,0.0
332,79.0,0,60,1.0,0.0
333,82.0,1,60,1.0,0.0
334,79.0,0,60,2.0,0.0
335,70.0,2,60,2.0,0.0
336,60.0,1,60,5.0,0.0
337,58.0,0,60,12.0,0.0
338,48.0,1,60,12.0,0.0
339,55.0,0,60,3.0,0.0
340,58.0,3,60,3.0,0.0
341,48.0,2,60,13.0,0.0
342,36.0,1,60,14.0,0.0
343,48.0,71,60,15.0,0.0
344,79.0,1,30,10.0,0.0
345,67.0,1,30,11.0,0.0
346,77.0,11,345,10.0,0.0
347,89.0,0,120,0.0,0.0
348,84.0,0,120,0.0,0.0
349,65.0,1,120,6.0,0.0
350,65.0,5,23,11.0,0.0
351,65.0,1,120,4.0,0.0
352,81.0,1,120,1.0,0.0
353,77.0,0,120,1.0,0.0
354,69.0,2,120,2.0,0.0
355,77.0,0,120,2.0,0.0
356,57.0,2,120,5.0,0.0
357,57.0,25,23,12.0,0.0
358,57.0,0,120,3.0,0.0
359,53.0,6,120,3.0,0.0
360,53.0,2,415,13.0,0.0
361,41.0,17,415,14.0,0.0
362,41.0,11,120,15.0,0.0
363,65.0,5,23,11.0,0.0
364,57.0,25,23,12.0,0.0
365,69.0,5,23,11.0,0.0
366,60.0,25,23,12.0,0.0
367,69.0,5,23,11.0,0.0
368,60.0,1,23,12.0,0.0
369,65.0,5,23,11.0,0.0
370,57.0,25,23,12.0,0.0
371,65.0,5,23,11.0,0.0
372,57.0,25,23,12.0,0.0
373,69.0,5,23,11.0,0.0
374,60.0,25,23,12.0,0.0
375,69.0,5,23,11.0,0.0
376,60.0,25,23,12.0,0.0
377,65.0,5,23,11.0,0.0
378,57.0,25,23,12.0,0.0
379,65.0,5,23,11.0,0.0
380,57.0,25,23,12.0,0.0
381,69.0,5,23,11.0,0.0
382,60.0,14,23,12.0,0.0
383,69.0,5,23,11.0,0.0
384,60.0,25,23,12.0,0.0
385,81.0,11,315,10.0,0.0
386,65.0,5,23,11.0,0.0
387,57.0,25,23,12.0,0.0
388,65.0,5,23,11.0,0.0
389,57.0,6,23,12.0,0.0
390,69.0,5,23,11.0,0.0
391,60.0,25,23,12.0,0.0
392,53.0,2,55,13.0,0.0
393,41.0,17,55,14.0,0.0
394,69.0,5,23,11.0,0.0
395,60.0,6,23,12.0,0.0
396,65.0,5,23,11.0,0.0
397,57.0,25,23,12.0,0.0
398,53.0,2,55,13.0,0.0
399,41.0,17,55,14.0,0.0
400,65.0,5,23,11.0,0.0
401,57.0,6,23,12.0,0.0
402,69.0,5,23,11.0,0.0
403,60.0,25,23,12.0,0.0
404,53.0,2,55,13.0,0.0
405,41.0,17,55,14.0,0.0
406,69.0,5,23,11.0,0.0
407,60.0,6,23,12.0,0.0
408,65.0,5,23,11.0,0.0
409,57.0,25,23,12.0,0.0
410,53.0,2,55,13.0,0.0
411,41.0,6,55,14.0,0.0
412,65.0,5,23,11.0,0.0
413,57.0,6,23,12.0,0.0
414,69.0,5,23,11.0,0.0
415,60.0,22,23,12.0,0.0
416,53.0,2,55,13.0,0.0
417,41.0,6,55,14.0,0.0
418,77.0,3,23,10.0,0.0
419,84.0,1,30,0.0,0.0
420,89.0,0,30,0.0,0.0
421,77.0,1,30,6.0,0.0
422,65.0,0,30,6.0,0.0
423,69.0,5,23,11.0,0.0
424,81.0,0,30,1.0,0.0
425,69.0,0,30,2.0,0.0
426,72.0,2,30,2.0,0.0
427,60.0,0,23,12.0,0.0
428,53.0,0,30,3.0,0.0
429,57.0,0,30,3.0,0.0
430,77.0,11,345,10.0,0.0
431,89.0,0,120,0.0,0.0
432,86.0,1,120,0.0,0.0
433,65.0,0,120,6.0,0.0
434,77.0,1,120,6.0,0.0
435,65.0,5,23,11.0,0.0
436,65.0,1,0,4.0,0.0
437,82.0,1,120,1.0,0.0
438,77.0,1,0,1.0,0.0
439,70.0,2,120,2.0,0.0
440,74.0,0,120,2.0,0.0
441,53.0,0,0,5.0,0.0
442,58.0,25,23,12.0,0.0
443,50.0,6,120,3.0,0.0
444,62.0,0,120,3.0,0.0
445,50.0,2,415,13.0,0.0
446,38.0,17,415,14.0,0.0
447,41.0,11,0,15.0,0.0
448,65.0,5,23,11.0,0.0
449,58.0,25,23,12.0,0.0
450,70.0,5,23,11.0,0.0
451,62.0,25,23,12.0,0.0
452,70.0,5,23,11.0,0.0
453,62.0,0,23,12.0,0.0
454,65.0,5,23,11.0,0.0
455,58.0,25,23,12.0,0.0
456,65.0,5,23,11.0,0.0
457,58.0,25,23,12.0,0.0
458,70.0,5,23,11.0,0.0
459,62.0,25,23,12.0,0.0
460,70.0,5,23,11.0,0.0
461,62.0,25,23,12.0,0.0
462,65.0,5,23,11.0,0.0
463,58.0,25,23,12.0,0.0
464,65.0,5,23,11.0,0.0
465,58.0,25,23,12.0,0.0
466,70.0,5,23,11.0,0.0
467,62.0,14,23,12.0,0.0
468,70.0,5,23,11.0,0.0
469,62.0,25,23,12.0,0.0
470,82.0,11,315,10.0,0.0
471,65.0,5,23,11.0,0.0
472,58.0,25,23,12.0,0.0
473,65.0,5,23,11.0,0.0
474,58.0,6,23,12.0,0.0
475,70.0,5,23,11.0,0.0
476,62.0,25,23,12.0,0.0
477,50.0,2,55,13.0,0.0
478,38.0,17,55,14.0,0.0
479,70.0,5,23,11.0,0.0
480,62.0,6,23,12.0,0.0
481,65.0,5,23,11.0,0.0
482,58.0,25,23,12.0,0.0
483,50.0,2,55,13.0,0.0
484,38.0,17,55,14.0,0.0
485,65.0,5,23,11.0,0.0
486,58.0,6,23,12.0,0.0
487,70.0,5,23,11.0,0.0
488,62.0,25,23,12.0,0.0
489,50.0,2,55,13.0,0.0
490,38.0,17,55,14.0,0.0
491,70.0,5,23,11.0,0.0
492,62.0,6,23,12.0,0.0
493,65.0,5,23,11.0,0.0
494,58.0,25,23,12.0,0.0
495,50.0,2,55,13.0,0.0
496,38.0,6,55,14.0,0.0
497,65.0,5,23,11.0,0.0
498,58.0,6,23,12.0,0.0
499,70.0,5,23,11.0,0.0
500,62.0,22,23,12.0,0.0
501,50.0,0,55,13.0,0.0
502,38.0,6,55,14.0,0.0
503,77.0,3,23,10.0,0.0
504,86.0,1,30,0.0,0.0
505,65.0,0,30,6.0,0.0
506,65.0,1,30,4.0,0.0
507,70.0,5,23,11.0,0.0
508,77.0,0,30,1.0,0.0
509,82.0,1,30,1.0,0.0
510,70.0,2,30,2.0,0.0
511,53.0,2,30,5.0,0.0
512,62.0,0,23,12.0,0.0
513,50.0,0,30,3.0,0.0
514,62.0,0,30,3.0,0.0
515,77.0,11,345,10.0,0.0
516,89.0,0,0,0.0,0.0
517,86.0,0,120,0.0,0.0
518,77.0,1,0,6.0,0.0
519,65.0,1,120,6.0,0.0
520,67.0,1,120,4.0,0.0
521,65.0,5,23,11.0,0.0
522,77.0,1,120,1.0,0.0
523,79.0,0,120,1.0,0.0
524,67.0,2,120,2.0,0.0
525,74.0,0,0,2.0,0.0
526,65.0,2,120,5.0,0.0
527,55.0,25,23,12.0,0.0
528,58.0,0,120,3.0,0.0
529,46.0,6,120,3.0,0.0
530,46.0,2,415,13.0,0.0
531,34.0,17,415,14.0,0.0
532,41.0,11,0,15.0,0.0
533,65.0,5,23,11.0,0.0
534,55.0,25,23,12.0,0.0
535,67.0,5,23,11.0,0.0
536,62.0,25,23,12.0,0.0
537,67.0,5,23,11.0,0.0
538,62.0,0,23,12.0,0.0
539,65.0,5,23,11.0,0.0
540,55.0,25,23,12.0,0.0
541,65.0,5,23,11.0,0.0
542,55.0,25,23,12.0,0.0
543,67.0,5,23,11.0,0.0
544,62.0,25,23,12.0,0.0
545,67.0,5,23,11.0,0.0
546,62.0,25,23,12.0,0.0
547,65.0,5,23,11.0,0.0
548,55.0,25,23,12.0,0.0
549,65.0,5,23,11.0,0.0
550,55.0,25,23,12.0,0.0
551,67.0,5,23,11.0,0.0
552,62.0,14,23,12.0,0.0
553,67.0,5,23,11.0,0.0
554,62.0,25,23,12.0,0.0
555,86.0,11,315,10.0,0.0
556,65.0,5,23,11.0,0.0
557,55.0,25,23,12.0,0.0
558,65.0,5,23,11.0,0.0
559,55.0,6,23,12.0,0.0
560,67.0,5,23,11.0,0.0
561,62.0,25,23,12.0,0.0
562,46.0,2,55,13.0,0.0
563,34.0,17,55,14.0,0.0
564,67.0,5,23,11.0,0.0
565,62.0,6,23,12.0,0.0
566,65.0,5,23,11.0,0.0
567,55.0,25,23,12.0,0.0
568,46.0,2,55,13.0,0.0
569,34.0,17,55,14.0,0.0
570,65.0,5,23,11.0,0.0
571,55.0,6,23,12.0,0.0
572,67.0,5,23,11.0,0.0
573,62.0,25,23,12.0,0.0
574,46.0,2,55,13.0,0.0
575,34.0,17,55,14.0,0.0
576,67.0,5,23,11.0,0.0
577,62.0,6,23,12.0,0.0
578,65.0,5,23,11.0,0.0
579,55.0,25,23,12.0,0.0
580,46.0,2,55,13.0,0.0
581,34.0,6,55,14.0,0.0
582,65.0,5,23,11.0,0.0
583,55.0,6,23,12.0,0.0
584,67.0,5,23,11.0,0.0
585,62.0,22,23,12.0,0.0
586,46.0,0,55,13.0,0.0
587,34.0,6,55,14.0,0.0
588,77.0,3,23,10.0,0.0
589,86.0,0,30,0.0,0.0
590,89.0,0,30,0.0,0.0
591,65.0,1,30,6.0,0.0
592,77.0,0,30,6.0,0.0
593,67.0,1,30,4.0,0.0
594,67.0,5,23,11.0,0.0
595,77.0,1,30,1.0,0.0
596,79.0,0,30,1.0,0.0
597,74.0,0,30,2.0,0.0
598,65.0,2,30,5.0,0.0
599,62.0,1,23,12.0,0.0
600,46.0,0,30,3.0,0.0
601,41.0,11,30,15.0,0.0
602,76.0,11,225,10.0,0.0
603,84.0,0,240,0.0,0.0
604,88.0,0,240,0.0,0.0
605,60.0,0,240,6.0,0.0
606,72.0,1,240,6.0,0.0
607,67.0,5,23,11.0,0.0
608,79.0,0,240,1.0,0.0
609,67.0,2,0,2.0,0.0
610,70.0,0,240,2.0,0.0
611,60.0,0,240,5.0,0.0
612,64.0,25,23,12.0,0.0
613,58.0,0,0,3.0,0.0
614,55.0,17,240,3.0,0.0
615,48.0,2,235,13.0,0.0
616,36.0,0,235,14.0,0.0
617,48.0,11,120,15.0,0.0
618,67.0,5,23,11.0,0.0
619,64.0,25,23,12.0,0.0
620,72.0,5,23,11.0,0.0
621,60.0,25,23,12.0,0.0
622,72.0,5,23,11.0,0.0
623,60.0,14,23,12.0,0.0
624,64.0,5,23,11.0,0.0
625,55.0,25,23,12.0,0.0
626,64.0,5,23,11.0,0.0
627,55.0,25,23,12.0,0.0
628,67.0,5,23,11.0,0.0
629,60.0,14,23,12.0,0.0
630,67.0,5,23,11.0,0.0
631,60.0,1,23,12.0,0.0
632,84.0,1,60,10.0,0.0
633,88.0,1,60,0.0,0.0
634,84.0,0,60,0.0,0.0
635,60.0,1,60,6.0,0.0
636,72.0,0,60,6.0,0.0
637,67.0,1,0,4.0,0.0
638,72.0,5,23,11.0,0.0
639,76.0,1,0,1.0,0.0
640,79.0,1,60,1.0,0.0
641,70.0,2,60,2.0,0.0
642,67.0,2,0,2.0,0.0
643,60.0,2,60,5.0,0.0
644,55.0,25,23,12.0,0.0
645,58.0,3,60,3.0,0.0
646,55.0,0,60,3.0,0.0
647,48.0,2,60,13.0,0.0
648,36.0,1,60,14.0,0.0
649,48.0,11,60,15.0,0.0
650,72.0,4,23,11.0,0.0
651,55.0,0,23,12.0,0.0
652,67.0,5,23,11.0,0.0
653,52.0,25,23,12.0,0.0
654,67.0,5,23,11.0,0.0
655,52.0,25,23,12.0,0.0
656,72.0,1,60,10.0,0.0
657,88.0,0,60,0.0,0.0
658,84.0,1,60,0.0,0.0
659,72.0,1,60,6.0,0.0
660,60.0,0,60,6.0,0.0
661,64.0,5,23,11.0,0.0
662,67.0,1,60,4.0,0.0
663,79.0,1,60,1.0,0.0
664,76.0,0,60,1.0,0.0
665,67.0,2,60,2.0,0.0
666,70.0,0,60,2.0,0.0
667,60.0,2,60,5.0,0.0
668,58.0,25,23,12.0,0.0
669,55.0,3,60,3.0,0.0
670,58.0,0,60,3.0,0.0
671,48.0,2,60,13.0,0.0
672,36.0,1,60,14.0,0.0
673,48.0,11,60,15.0,0.0
674,64.0,4,23,11.0,0.0
675,58.0,0,23,12.0,0.0
676,67.0,5,23,11.0,0.0
677,55.0,25,23,12.0,0.0
678,67.0,5,23,11.0,0.0
679,55.0,25,23,12.0,0.0
680,82.0,1,60,10.0,0.0
681,88.0,0,60,0.0,0.0
682,84.0,1,60,0.0,0.0
683,60.0,1,60,6.0,0.0
684,72.0,0,60,6.0,0.0
685,60.0,5,23,11.0,0.0
686,67.0,1,60,4.0,0.0
687,79.0,1,60,1.0,0.0
688,82.0,0,60,1.0,0.0
689,67.0,0,60,2.0,0.0
690,70.0,2,60,2.0,0.0
691,60.0,2,60,5.0,0.0
692,52.0,25,23,12.0,0.0
693,55.0,0,60,3.0,0.0
694,58.0,3,60,3.0,0.0
695,48.0,2,60,13.0,0.0
696,36.0,1,60,14.0,0.0
697,48.0,11,60,15.0,0.0
698,60.0,4,23,11.0,0.0
699,52.0,0,23,12.0,0.0
700,64.0,5,23,11.0,0.0
701,55.0,25,23,12.0,0.0
702,64.0,5,23,11.0,0.0
703,55.0,25,23,12.0,0.0
704,79.0,1,60,10.0,0.0
705,88.0,1,60,0.0,0.0
706,84.0,0,60,0.0,0.0
707,72.0,1,60,6.0,0.0
708,60.0,0,60,6.0,0.0
709,67.0,1,60,4.0,0.0
710,67.0,5,23,11.0,0.0
711,76.0,0,60,1.0,0.0
712,79.0,1,60,1.0,0.0
713,64.0,2,60,2.0,0.0
714,67.0,0,60,2.0,0.0
715,60.0,2,60,5.0,0.0
716,58.0,25,23,12.0,0.0
717,55.0,3,60,3.0,0.0
718,52.0,0,60,3.0,0.0
719,48.0,2,60,13.0,0.0
720,36.0,1,60,14.0,0.0
721,48.0,11,60,15.0,0.0
722,67.0,4,23,11.0,0.0
723,58.0,0,23,12.0,0.0
724,64.0,5,23,11.0,0.0
725,55.0,25,23,12.0,0.0
726,64.0,5,23,11.0,0.0
727,55.0,25,23,12.0,0.0
728,77.0,0,345,10.0,0.0
729,89.0,1,680,0.0,0.0
730,84.0,0,680,0.0,0.0
731,65.0,0,680,6.0,0.0
732,77.0,1,680,6.0,0.0
733,65.0,1,680,4.0,0.0
734,65.0,5,23,11.0,0.0
735,81.0,0,680,1.0,0.0
736,77.0,1,680,1.0,0.0
737,69.0,0,680,2.0,0.0
738,65.0,1,680,2.0,0.0
739,53.0,2,680,5.0,0.0
740,57.0,14,23,12.0,0.0
741,57.0,2,680,3.0,0.0
742,53.0,0,680,3.0,0.0
743,53.0,2,415,13.0,0.0
744,41.0,17,415,14.0,0.0
745,41.0,11,30,15.0,0.0
746,65.0,5,23,11.0,0.0
747,57.0,14,23,12.0,0.0
748,41.0,11,30,15.0,0.0
749,69.0,5,23,11.0,0.0
750,60.0,14,23,12.0,0.0
751,41.0,11,30,15.0,0.0
752,69.0,5,23,11.0,0.0
753,60.0,14,23,12.0,0.0
754,41.0,11,30,15.0,0.0
755,65.0,5,23,11.0,0.0
756,57.0,14,23,12.0,0.0
757,41.0,11,30,15.0,0.0
758,65.0,5,23,11.0,0.0
759,57.0,14,23,12.0,0.0
760,41.0,11,30,15.0,0.0
761,69.0,5,23,11.0,0.0
762,60.0,14,23,12.0,0.0
763,69.0,5,23,11.0,0.0
764,60.0,14,23,12.0,0.0
765,41.0,11,0,15.0,0.0
766,65.0,5,23,11.0,0.0
767,57.0,14,23,12.0,0.0
768,41.0,11,0,15.0,0.0
769,65.0,5,23,11.0,0.0
770,57.0,14,23,12.0,0.0
771,41.0,11,0,15.0,0.0
772,69.0,5,23,11.0,0.0
773,60.0,14,23,12.0,0.0
774,69.0,5,23,11.0,0.0
775,60.0,14,23,12.0,0.0
776,41.0,11,0,15.0,0.0
777,81.0,6,315,10.0,0.0
778,65.0,5,23,11.0,0.0
779,57.0,25,23,12.0,0.0
780,41.0,11,0,15.0,0.0
781,65.0,5,23,11.0,0.0
782,57.0,6,23,12.0,0.0
783,69.0,5,23,11.0,0.0
784,60.0,25,23,12.0,0.0
785,53.0,2,55,13.0,0.0
786,41.0,6,55,14.0,0.0
787,69.0,5,23,11.0,0.0
788,60.0,6,23,12.0,0.0
789,65.0,5,23,11.0,0.0
790,57.0,25,23,12.0,0.0
791,53.0,2,55,13.0,0.0
792,41.0,17,55,14.0,0.0
793,65.0,5,23,11.0,0.0
794,57.0,6,23,12.0,0.0
795,69.0,5,23,11.0,0.0
796,60.0,25,23,12.0,0.0
797,53.0,2,55,13.0,0.0
798,41.0,17,55,14.0,0.0
799,69.0,5,23,11.0,0.0
800,60.0,6,23,12.0,0.0
801,65.0,5,23,11.0,0.0
802,57.0,25,23,12.0,0.0
803,53.0,2,55,13.0,0.0
804,41.0,6,55,14.0,0.0
805,65.0,5,23,11.0,0.0
806,57.0,6,23,12.0,0.0
807,69.0,1,23,11.0,0.0
808,60.0,20,23,12.0,0.0
809,53.0,2,55,13.0,0.0
810,41.0,6,55,14.0,0.0
811,77.0,0,23,10.0,0.0
812,89.0,1,20,0.0,0.0
813,84.0,0,20,0.0,0.0
814,65.0,0,20,6.0,0.0
815,77.0,1,20,6.0,0.0
816,65.0,1,20,4.0,0.0
817,69.0,1,23,11.0,0.0
818,81.0,1,20,1.0,0.0
819,77.0,0,20,1.0,0.0
820,69.0,0,20,2.0,0.0
821,65.0,1,20,2.0,0.0
822,53.0,2,20,5.0,0.0
823,60.0,6,23,12.0,0.0
824,57.0,2,20,3.0,0.0
825,53.0,0,20,3.0,0.0
826,77.0,0,345,10.0,0.0
827,89.0,1,680,0.0,0.0
828,86.0,0,680,0.0,0.0
829,65.0,1,680,6.0,0.0
830,77.0,0,680,6.0,0.0
831,65.0,5,23,11.0,0.0
832,65.0,1,680,4.0,0.0
833,82.0,1,680,1.0,0.0
834,77.0,0,680,1.0,0.0
835,65.0,0,680,2.0,0.0
836,70.0,1,680,2.0,0.0
837,53.0,2,680,5.0,0.0
838,58.0,14,23,12.0,0.0
839,50.0,2,680,3.0,0.0
840,58.0,0,680,3.0,0.0
841,50.0,2,415,13.0,0.0
842,38.0,17,415,14.0,0.0
843,41.0,11,0,15.0,0.0
844,65.0,5,23,11.0,0.0
845,58.0,14,23,12.0,0.0
846,41.0,11,30,15.0,0.0
847,70.0,5,23,11.0,0.0
848,62.0,14,23,12.0,0.0
849,41.0,11,30,15.0,0.0
850,70.0,5,23,11.0,0.0
851,62.0,14,23,12.0,0.0
852,41.0,11,30,15.0,0.0
853,65.0,5,23,11.0,0.0
854,58.0,14,23,12.0,0.0
855,65.0,5,23,11.0,0.0
856,58.0,14,23,12.0,0.0
857,41.0,11,0,15.0,0.0
858,70.0,5,23,11.0,0.0
859,62.0,14,23,12.0,0.0
860,41.0,11,0,15.0,0.0
861,70.0,5,23,11.0,0.0
862,62.0,14,23,12.0,0.0
863,41.0,11,0,15.0,0.0
864,65.0,5,23,11.0,0.0
865,58.0,14,23,12.0,0.0
866,41.0,11,0,15.0,0.0
867,65.0,5,23,11.0,0.0
868,58.0,14,23,12.0,0.0
869,41.0,11,0,15.0,0.0
870,70.0,5,23,11.0,0.0
871,62.0,14,23,12.0,0.0
872,41.0,11,0,15.0,0.0
873,70.0,5,23,11.0,0.0
874,62.0,14,23,12.0,0.0
875,41.0,11,30,15.0,0.0
876,82.0,6,315,10.0,0.0
877,65.0,5,23,11.0,0.0
878,58.0,25,23,12.0,0.0
879,41.0,11,120,15.0,0.0
880,65.0,5,23,11.0,0.0
881,58.0,6,23,12.0,0.0
882,70.0,5,23,11.0,0.0
883,62.0,25,23,12.0,0.0
884,50.0,2,55,13.0,0.0
885,38.0,6,55,14.0,0.0
886,70.0,5,23,11.0,0.0
887,62.0,6,23,12.0,0.0
888,65.0,5,23,11.0,0.0
889,58.0,25,23,12.0,0.0
890,50.0,2,55,13.0,0.0
891,38.0,17,55,14.0,0.0
892,65.0,5,23,11.0,0.0
893,58.0,6,23,12.0,0.0
894,70.0,5,23,11.0,0.0
895,62.0,25,23,12.0,0.0
896,50.0,2,55,13.0,0.0
897,38.0,17,55,14.0,0.0
898,70.0,5,23,11.0,0.0
899,62.0,6,23,12.0,0.0
900,65.0,5,23,11.0,0.0
901,58.0,25,23,12.0,0.0
902,50.0,2,55,13.0,0.0
903,38.0,6,55,14.0,0.0
904,65.0,5,23,11.0,0.0
905,58.0,6,23,12.0,0.0
906,70.0,1,23,11.0,0.0
907,62.0,20,23,12.0,0.0
908,50.0,2,55,13.0,0.0
909,38.0,6,55,14.0,0.0
910,74.0,0,23,10.0,0.0
911,86.0,1,20,0.0,0.0
912,89.0,0,20,0.0,0.0
913,65.0,1,20,6.0,0.0
914,77.0,0,20,6.0,0.0
915,65.0,1,20,4.0,0.0
916,70.0,1,23,11.0,0.0
917,77.0,1,20,1.0,0.0
918,82.0,0,20,1.0,0.0
919,65.0,1,20,2.0,0.0
920,70.0,0,20,2.0,0.0
921,53.0,2,20,5.0,0.0
922,62.0,6,23,12.0,0.0
923,58.0,0,20,3.0,0.0
924,50.0,2,20,3.0,0.0
925,74.0,8,345,10.0,0.0
926,86.0,1,680,0.0,0.0
927,65.0,2,680,6.0,0.0
928,65.0,3,350,4.0,0.0
929,62.0,5,23,11.0,0.0
930,74.0,0,680,1.0,0.0
931,82.0,1,680,1.0,0.0
932,68.0,1,680,2.0,0.0
933,74.0,0,680,2.0,0.0
934,53.0,4,350,5.0,0.0
935,56.0,14,23,12.0,0.0
936,56.0,0,680,3.0,0.0
937,53.0,2,680,3.0,0.0
938,41.0,2,415,13.0,0.0
939,29.0,17,415,14.0,0.0
940,41.0,11,0,15.0,0.0
941,62.0,5,23,11.0,0.0
942,56.0,14,23,12.0,0.0
943,41.0,11,0,15.0,0.0
944,70.0,5,23,11.0,0.0
945,62.0,14,23,12.0,0.0
946,41.0,11,30,15.0,0.0
947,70.0,5,23,11.0,0.0
948,62.0,14,23,12.0,0.0
949,62.0,5,23,11.0,0.0
950,56.0,14,23,12.0,0.0
951,41.0,11,0,15.0,0.0
952,62.0,5,23,11.0,0.0
953,56.0,14,23,12.0,0.0
954,41.0,11,30,15.0,0.0
955,70.0,5,23,11.0,0.0
956,62.0,14,23,12.0,0.0
957,70.0,5,23,11.0,0.0
958,62.0,14,23,12.0,0.0
959,41.0,11,0,15.0,0.0
960,62.0,5,23,11.0,0.0
961,56.0,14,23,12.0,0.0
962,41.0,11,30,15.0,0.0
963,62.0,5,23,11.0,0.0
964,56.0,14,23,12.0,0.0
965,70.0,5,23,11.0,0.0
966,62.0,14,23,12.0,0.0
967,41.0,11,0,15.0,0.0
968,70.0,1,23,11.0,0.0
969,62.0,14,23,12.0,0.0
970,41.0,0,0,15.0,0.0
971,82.0,6,315,10.0,0.0
972,65.0,0,350,4.0,0.0
973,62.0,5,23,11.0,0.0
974,53.0,2,350,5.0,0.0
975,56.0,25,23,12.0,0.0
976,41.0,11,120,15.0,0.0
977,62.0,5,23,11.0,0.0
978,56.0,6,23,12.0,0.0
979,70.0,5,23,11.0,0.0
980,62.0,25,23,12.0,0.0
981,41.0,2,55,13.0,0.0
982,29.0,6,55,14.0,0.0
983,70.0,5,23,11.0,0.0
984,62.0,6,23,12.0,0.0
985,62.0,5,23,11.0,0.0
986,56.0,25,23,12.0,0.0
987,41.0,2,55,13.0,0.0
988,29.0,17,55,14.0,0.0
989,62.0,5,23,11.0,0.0
990,56.0,6,23,12.0,0.0
991,70.0,5,23,11.0,0.0
992,62.0,25,23,12.0,0.0
993,41.0,2,55,13.0,0.0
994,29.0,17,55,14.0,0.0
995,70.0,5,23,11.0,0.0
996,62.0,6,23,12.0,0.0
997,62.0,5,23,11.0,0.0
998,56.0,25,23,12.0,0.0
999,41.0,2,55,13.0,0.0
1000,29.0,6,55,14.0,0.0
1001,62.0,5,23,11.0,0.0
1002,56.0,6,23,12.0,0.0
1003,70.0,3,23,11.0,0.0
1004,62.0,20,23,12.0,0.0
1005,41.0,2,55,13.0,0.0
1006,29.0,6,55,14.0,0.0
1007,74.0,1,23,10.0,0.0
1008,86.0,1,20,0.0,0.0
1009,65.0,1,20,6.0,0.0
1010,70.0,1,23,11.0,0.0
1011,74.0,1,20,1.0,0.0
1012,82.0,0,20,1.0,0.0
1013,74.0,0,20,2.0,0.0
1014,68.0,1,20,2.0,0.0
1015,62.0,6,23,12.0,0.0
1016,56.0,0,20,3.0,0.0
1017,53.0,2,20,3.0,0.0
1018,41.0,11,30,15.0,0.0
1019,74.0,8,345,10.0,0.0
1020,86.0,1,680,0.0,0.0
1021,65.0,2,680,6.0,0.0
1022,62.0,5,23,11.0,0.0
1023,65.0,3,350,4.0,0.0
1024,82.0,1,680,1.0,0.0
1025,74.0,0,680,1.0,0.0
1026,68.0,0,680,2.0,0.0
1027,74.0,1,680,2.0,0.0
1028,53.0,4,350,5.0,0.0
1029,56.0,14,23,12.0,0.0
1030,53.0,0,680,3.0,0.0
1031,56.0,2,680,3.0,0.0
1032,41.0,2,415,13.0,0.0
1033,29.0,17,415,14.0,0.0
1034,41.0,11,30,15.0,0.0
1035,62.0,5,23,11.0,0.0
1036,56.0,14,23,12.0,0.0
1037,41.0,11,30,15.0,0.0
1038,70.0,5,23,11.0,0.0
1039,62.0,14,23,12.0,0.0
1040,41.0,11,30,15.0,0.0
1041,70.0,5,23,11.0,0.0
1042,62.0,14,23,12.0,0.0
1043,41.0,11,30,15.0,0.0
1044,62.0,5,23,11.0,0.0
1045,56.0,14,23,12.0,0.0
1046,41.0,11,30,15.0,0.0
1047,62.0,5,23,11.0,0.0
1048,56.0,14,23,12.0,0.0
1049,70.0,5,23,11.0,0.0
1050,62.0,14,23,12.0,0.0
1051,41.0,11,0,15.0,0.0
1052,70.0,5,23,11.0,0.0
1053,62.0,14,23,12.0,0.0
1054,41.0,11,30,15.0,0.0
1055,62.0,5,23,11.0,0.0
1056,56.0,14,23,12.0,0.0
1057,41.0,11,30,15.0,0.0
1058,62.0,5,23,11.0,0.0
1059,56.0,14,23,12.0,0.0
1060,70.0,5,23,11.0,0.0
1061,62.0,14,23,12.0,0.0
1062,41.0,11,0,15.0,0.0
1063,70.0,1,23,11.0,0.0
1064,62.0,14,23,12.0,0.0
1065,41.0,0,0,15.0,0.0
1066,82.0,6,315,10.0,0.0
1067,62.0,5,23,11.0,0.0
1068,65.0,1,350,4.0,0.0
1069,53.0,2,350,5.0,0.0
1070,56.0,25,23,12.0,0.0
1071,41.0,11,0,15.0,0.0
1072,62.0,5,23,11.0,0.0
1073,56.0,6,23,12.0,0.0
1074,70.0,5,23,11.0,0.0
1075,62.0,25,23,12.0,0.0
1076,41.0,2,55,13.0,0.0
1077,29.0,6,55,14.0,0.0
1078,70.0,5,23,11.0,0.0
1079,62.0,6,23,12.0,0.0
1080,62.0,5,23,11.0,0.0
1081,56.0,25,23,12.0,0.0
1082,41.0,2,55,13.0,0.0
1083,29.0,17,55,14.0,0.0
1084,62.0,5,23,11.0,0.0
1085,56.0,6,23,12.0,0.0
1086,70.0,5,23,11.0,0.0
1087,62.0,25,23,12.0,0.0
1088,41.0,2,55,13.0,0.0
1089,29.0,17,55,14.0,0.0
1090,70.0,5,23,11.0,0.0
1091,62.0,6,23,12.0,0.0
1092,62.0,5,23,11.0,0.0
1093,56.0,25,23,12.0,0.0
1094,41.0,2,55,13.0,0.0
1095,29.0,6,55,14.0,0.0
1096,62.0,5,23,11.0,0.0
1097,56.0,6,23,12.0,0.0
1098,70.0,3,23,11.0,0.0
1099,62.0,20,23,12.0,0.0
1100,41.0,2,55,13.0,0.0
1101,29.0,6,55,14.0,0.0
1102,74.0,0,23,10.0,0.0
1103,86.0,1,20,0.0,0.0
1104,65.0,1,20,6.0,0.0
1105,70.0,1,23,11.0,0.0
1106,74.0,0,20,1.0,0.0
1107,82.0,1,20,1.0,0.0
1108,68.0,1,20,2.0,0.0
1109,74.0,0,20,2.0,0.0
1110,62.0,6,23,12.0,0.0
1111,56.0,0,20,3.0,0.0
1112,53.0,2,20,3.0,0.0
1113,41.0,11,30,15.0,0.0
1114,74.0,0,225,10.0,0.0
1115,86.0,1,230,0.0,0.0
1116,65.0,1,230,6.0,0.0
1117,62.0,5,23,11.0,0.0
1118,65.0,1,230,4.0,0.0
1119,82.0,0,230,1.0,0.0
1120,74.0,1,230,1.0,0.0
1121,74.0,1,230,2.0,0.0
1122,68.0,0,230,2.0,0.0
1123,53.0,2,230,5.0,0.0
1124,56.0,14,23,12.0,0.0
1125,56.0,0,230,3.0,0.0
1126,53.0,2,230,3.0,0.0
1127,41.0,2,235,13.0,0.0
1128,29.0,6,235,14.0,0.0
1129,41.0,11,30,15.0,0.0
1130,62.0,5,23,11.0,0.0
1131,56.0,14,23,12.0,0.0
1132,70.0,5,23,11.0,0.0
1133,62.0,14,23,12.0,0.0
1134,41.0,11,0,15.0,0.0
1135,70.0,5,23,11.0,0.0
1136,62.0,14,23,12.0,0.0
1137,62.0,5,23,11.0,0.0
1138,56.0,14,23,12.0,0.0
1139,41.0,11,0,15.0,0.0
1140,62.0,5,23,11.0,0.0
1141,56.0,14,23,12.0,0.0
1142,70.0,5,23,11.0,0.0
1143,62.0,14,23,12.0,0.0
1144,41.0,11,0,15.0,0.0
1145,70.0,1,23,11.0,0.0
1146,62.0,6,23,12.0,0.0
1147,41.0,6,0,15.0,0.0
1148,82.0,6,75,10.0,0.0
1149,86.0,1,80,0.0,0.0
1150,65.0,1,80,6.0,0.0
1151,65.0,1,80,4.0,0.0
1152,62.0,5,23,11.0,0.0
1153,74.0,0,80,1.0,0.0
1154,82.0,1,80,1.0,0.0
1155,74.0,0,80,2.0,0.0
1156,68.0,1,80,2.0,0.0
1157,53.0,2,80,5.0,0.0
1158,56.0,25,23,12.0,0.0
1159,53.0,2,80,3.0,0.0
1160,56.0,0,80,3.0,0.0
1161,41.0,2,85,13.0,0.0
1162,29.0,6,85,14.0,0.0
1163,62.0,5,23,11.0,0.0
1164,56.0,14,23,12.0,0.0
1165,70.0,1,23,11.0,0.0
1166,62.0,6,23,12.0,0.0
1167,74.0,0,23,10.0,0.0
1168,86.0,1,20,0.0,0.0
1169,65.0,1,20,6.0,0.0
1170,65.0,1,20,4.0,0.0
1171,70.0,1,23,11.0,0.0
1172,82.0,1,20,1.0,0.0
1173,74.0,0,20,1.0,0.0
1174,68.0,0,20,2.0,0.0
1175,74.0,1,20,2.0,0.0
1176,53.0,2,20,5.0,0.0
1177,62.0,4,23,12.0,0.0
1178,56.0,0,20,3.0,0.0
1179,53.0,2,20,3.0,0.0
1180,41.0,2,23,13.0,0.0
1181,29.0,8,23,14.0,0.0
1182,41.0,6,0,15.0,0.0
1183,74.0,0,225,10.0,0.0
1184,86.0,1,230,0.0,0.0
1185,65.0,1,230,6.0,0.0
1186,65.0,1,230,4.0,0.0
1187,62.0,5,23,11.0,0.0
1188,82.0,0,230,1.0,0.0
1189,74.0,1,230,1.0,0.0
1190,74.0,1,230,2.0,0.0
1191,68.0,0,230,2.0,0.0
1192,53.0,2,230,5.0,0.0
1193,56.0,14,23,12.0,0.0
1194,53.0,0,230,3.0,0.0
1195,56.0,2,230,3.0,0.0
1196,41.0,2,235,13.0,0.0
1197,29.0,6,235,14.0,0.0
1198,41.0,11,0,15.0,0.0
1199,62.0,5,23,11.0,0.0
1200,56.0,14,23,12.0,0.0
1201,41.0,11,0,15.0,0.0
1202,70.0,5,23,11.0,0.0
1203,62.0,14,23,12.0,0.0
1204,41.0,11,0,15.0,0.0
1205,70.0,5,23,11.0,0.0
1206,62.0,14,23,12.0,0.0
1207,41.0,11,30,15.0,0.0
1208,62.0,5,23,11.0,0.0
1209,56.0,14,23,12.0,0.0
1210,62.0,5,23,11.0,0.0
1211,56.0,14,23,12.0,0.0
1212,41.0,11,0,15.0,0.0
1213,70.0,5,23,11.0,0.0
1214,62.0,14,23,12.0,0.0
1215,70.0,1,23,11.0,0.0
1216,62.0,6,23,12.0,0.0
1217,41.0,6,0,15.0,0.0
1218,82.0,6,75,10.0,0.0
1219,86.0,1,80,0.0,0.0
1220,65.0,1,80,6.0,0.0
1221,62.0,5,23,11.0,0.0
1222,65.0,1,80,4.0,0.0
1223,74.0,1,80,1.0,0.0
1224,82.0,0,80,1.0,0.0
1225,74.0,0,80,2.0,0.0
1226,68.0,1,80,2.0,0.0
1227,53.0,2,80,5.0,0.0
1228,56.0,25,23,12.0,0.0
1229,56.0,0,80,3.0,0.0
1230,53.0,2,80,3.0,0.0
1231,41.0,2,85,13.0,0.0
1232,29.0,6,85,14.0,0.0
1233,41.0,11,0,15.0,0.0
1234,62.0,5,23,11.0,0.0
1235,56.0,14,23,12.0,0.0
1236,70.0,1,23,11.0,0.0
1237,62.0,6,23,12.0,0.0
1238,74.0,1,23,10.0,0.0
1239,86.0,1,20,0.0,0.0
1240,65.0,1,20,6.0,0.0
1241,65.0,0,20,4.0,0.0
1242,70.0,1,23,11.0,0.0
1243,82.0,1,20,1.0,0.0
1244,74.0,0,20,1.0,0.0
1245,74.0,1,20,2.0,0.0
1246,68.0,0,20,2.0,0.0
1247,53.0,2,20,5.0,0.0
1248,62.0,4,23,12.0,0.0
1249,53.0,0,20,3.0,0.0
1250,56.0,2,20,3.0,0.0
1251,41.0,2,23,13.0,0.0
1252,29.0,8,23,14.0,0.0
1253,41.0,6,0,15.0,0.0
1254,74.0,1,60,10.0,0.0
1255,86.0,1,60,0.0,0.0
1256,65.0,1,60,6.0,0.0
1257,62.0,1,60,11.0,0.0
1258,65.0,0,60,4.0,0.0
1259,82.0,0,60,1.0,0.0
1260,74.0,1,60,1.0,0.0
1261,74.0,2,60,2.0,0.0
1262,68.0,0,60,2.0,0.0
1263,53.0,1,60,5.0,0.0
1264,56.0,1,60,12.0,0.0
1265,53.0,0,60,3.0,0.0
1266,56.0,3,60,3.0,0.0
1267,41.0,2,60,13.0,0.0
1268,29.0,1,60,14.0,0.0
1269,41.0,45,0,15.0,0.0
1270,82.0,1,60,10.0,0.0
1271,86.0,1,60,0.0,0.0
1272,65.0,1,60,6.0,0.0
1273,65.0,0,60,4.0,0.0
1274,70.0,1,60,11.0,0.0
1275,62.0,0,60,11.0,0.0
1276,82.0,1,60,1.0,0.0
1277,74.0,0,60,1.0,0.0
1278,74.0,2,60,2.0,0.0
1279,68.0,0,60,2.0,0.0
1280,53.0,1,60,5.0,0.0
1281,56.0,1,60,12.0,0.0
1282,53.0,0,60,3.0,0.0
1283,56.0,3,60,3.0,0.0
1284,41.0,2,60,13.0,0.0
1285,29.0,1,60,14.0,0.0
1286,41.0,105,60,15.0,0.0
1287,74.0,1,60,10.0,0.0
1288,86.0,1,60,0.0,0.0
1289,65.0,1,60,6.0,0.0
1290,65.0,1,60,4.0,0.0
1291,62.0,0,60,11.0,0.0
1292,82.0,0,60,1.0,0.0
1293,74.0,1,60,1.0,0.0
1294,74.0,0,60,2.0,0.0
1295,68.0,2,60,2.0,0.0
1296,53.0,1,60,5.0,0.0
1297,56.0,1,60,12.0,0.0
1298,56.0,3,60,3.0,0.0
1299,53.0,0,60,3.0,0.0
1300,41.0,2,60,13.0,0.0
1301,29.0,1,60,14.0,0.0
1302,41.0,225,60,15.0,0.0
1303,82.0,1,60,10.0,0.0
1304,86.0,1,60,0.0,0.0
1305,65.0,1,60,6.0,0.0
1306,70.0,0,60,11.0,0.0
1307,62.0,0,60,11.0,0.0
1308,65.0,1,60,4.0,0.0
1309,82.0,0,60,1.0,0.0
1310,74.0,1,60,1.0,0.0
1311,74.0,2,60,2.0,0.0
1312,68.0,0,60,2.0,0.0
1313,53.0,1,60,5.0,0.0
1314,56.0,1,60,12.0,0.0
1315,56.0,0,60,3.0,0.0
1316,53.0,3,60,3.0,0.0
1317,41.0,2,60,13.0,0.0
1318,29.0,1,60,14.0,0.0
1319,41.0,105,60,15.0,0.0
1320,74.0,1,60,10.0,0.0
1321,86.0,1,60,0.0,0.0
1322,65.0,1,60,6.0,0.0
1323,62.0,0,60,11.0,0.0
1324,65.0,1,60,4.0,0.0
1325,74.0,0,60,1.0,0.0
1326,82.0,1,60,1.0,0.0
1327,74.0,0,60,2.0,0.0
1328,68.0,2,60,2.0,0.0
1329,53.0,1,60,5.0,0.0
1330,56.0,1,60,12.0,0.0
1331,56.0,3,60,3.0,0.0
1332,53.0,0,60,3.0,0.0
1333,41.0,2,60,13.0,0.0
1334,29.0,1,60,14.0,0.0
1335,41.0,705,60,15.0,0.0
1336,61.0,3,60,10.0,0.0
1337,57.0,5,60,11.0,0.0
1338,55.0,0,60,12.0,0.0
1339,52.0,232,60,12.0,0.0
1340,69.0,3,60,10.0,0.0
1341,61.0,5,60,11.0,0.0
1342,52.0,112,60,12.0,0.0
1343,55.0,0,60,12.0,0.0
1344,61.0,3,60,10.0,0.0
1345,57.0,5,60,11.0,0.0
1346,55.0,0,60,12.0,0.0
1347,52.0,232,60,12.0,0.0
1348,69.0,3,60,10.0,0.0
1349,61.0,5,60,11.0,0.0
1350,55.0,112,60,12.0,0.0
1351,52.0,0,60,12.0,0.0
1352,61.0,3,60,10.0,0.0
1353,57.0,5,60,11.0,0.0
1354,52.0,0,60,12.0,0.0
1355,55.0,1,60,12.0,0.0
1356,57.0,240,60,3.0,0.0
1357,67.0,120,60,3.0,0.0
1358,57.0,201,60,3.0,0.0
1359,69.0,3,30,10.0,0.0
1360,57.0,36,30,11.0,0.0
1361,61.0,4,120,12.0,0.0
1362,67.0,59,60,3.0,0.0
1363,64.0,2,120,13.0,0.0
1364,52.0,46,120,14.0,0.0
1365,69.0,3,120,10.0,0.0
1366,57.0,6,120,11.0,0.0
1367,62.0,4,120,12.0,0.0
1368,66.0,51,60,3.0,0.0
1369,62.0,2,120,13.0,0.0
1370,50.0,46,120,14.0,0.0
1371,71.0,3,60,10.0,0.0
1372,59.0,5,60,11.0,0.0
1373,73.0,3,60,10.0,0.0
1374,61.0,6,60,11.0,0.0
1375,62.0,46,60,3.0,0.0
1376,74.0,3,55,10.0,0.0
1377,62.0,32,55,11.0,0.0
1378,69.0,3,30,10.0,0.0
1379,57.0,36,30,11.0,0.0
1380,57.0,111,60,3.0,0.0
1381,69.0,3,120,10.0,0.0
1382,57.0,6,120,11.0,0.0
1383,61.0,0,120,12.0,0.0
1384,64.0,4,120,12.0,0.0
1385,55.0,51,60,3.0,0.0
1386,57.0,2,120,13.0,0.0
1387,45.0,46,120,14.0,0.0
1388,73.0,3,60,10.0,0.0
1389,61.0,5,60,11.0,0.0
1390,74.0,3,60,10.0,0.0
1391,62.0,6,60,11.0,0.0
1392,52.0,46,60,3.0,0.0
1393,76.0,3,55,10.0,0.0
1394,64.0,32,55,11.0,0.0
1395,69.0,3,30,10.0,0.0
1396,57.0,36,30,11.0,0.0
1397,49.0,111,60,3.0,0.0
1398,69.0,3,120,10.0,0.0
1399,57.0,6,120,11.0,0.0
1400,66.0,4,120,12.0,0.0
1401,62.0,0,120,12.0,0.0
1402,54.0,51,60,3.0,0.0
1403,50.0,2,120,13.0,0.0
1404,38.0,46,120,14.0,0.0
1405,74.0,3,60,10.0,0.0
1406,62.0,5,60,11.0,0.0
1407,76.0,3,60,10.0,0.0
1408,64.0,6,60,11.0,0.0
1409,50.0,51,60,3.0,0.0
1410,78.0,3,60,10.0,0.0
1411,66.0,57,60,11.0,0.0
1412,79.0,3,60,10.0,0.0
1413,67.0,6,60,11.0,0.0
1414,45.0,46,60,3.0,0.0
1415,78.0,3,55,10.0,0.0
1416,66.0,71,55,11.0,0.0
1417,76.0,3,115,10.0,0.0
1418,64.0,10,115,11.0,0.0
1419,61.0,4,120,12.0,0.0
1420,64.0,0,120,12.0,0.0
1421,45.0,46,60,3.0,0.0
1422,45.0,2,120,13.0,0.0
1423,33.0,55,120,14.0,0.0
1424,81.0,3,295,10.0,0.0
1425,69.0,11,295,11.0,0.0
1426,48.0,120,60,3.0,0.0
1427,60.0,4,120,12.0,0.0
1428,54.0,59,60,3.0,0.0
1429,45.0,2,120,13.0,0.0
1430,33.0,41,120,14.0,0.0
1431,50.0,4,120,12.0,0.0
1432,47.0,51,60,3.0,0.0
1433,47.0,2,120,13.0,0.0
1434,35.0,46,120,14.0,0.0
1435,79.0,3,60,10.0,0.0
1436,67.0,5,60,11.0,0.0
1437,74.0,3,60,10.0,0.0
1438,62.0,6,60,11.0,0.0
1439,50.0,46,60,3.0,0.0
1440,76.0,3,55,10.0,0.0
1441,64.0,71,55,11.0,0.0
1442,77.0,3,180,10.0,0.0
1443,65.0,6,180,11.0,0.0
1444,62.0,4,120,12.0,0.0
1445,55.0,59,60,3.0,0.0
1446,59.0,2,120,13.0,0.0
1447,47.0,46,120,14.0,0.0
1448,55.0,4,120,12.0,0.0
1449,48.0,51,60,3.0,0.0
1450,60.0,2,120,13.0,0.0
1451,48.0,46,120,14.0,0.0
1452,76.0,3,60,10.0,0.0
1453,64.0,5,60,11.0,0.0
1454,72.0,3,60,10.0,0.0
1455,60.0,6,60,11.0,0.0
1456,60.0,46,60,3.0,0.0
1457,74.0,3,55,10.0,0.0
1458,62.0,71,55,11.0,0.0
1459,75.0,3,120,10.0,0.0
1460,63.0,5,120,11.0,0.0
1461,57.0,4,120,12.0,0.0
1462,60.0,51,60,3.0,0.0
1463,54.0,2,120,13.0,0.0
1464,42.0,106,120,14.0,0.0
1465,50.0,1,120,12.0,0.0
1466,59.0,3,120,3.0,0.0
1467,55.0,2,120,13.0,0.0
1468,43.0,46,120,14.0,0.0
1469,74.0,3,60,10.0,0.0
1470,62.0,5,60,11.0,0.0
1471,71.0,3,60,10.0,0.0
1472,59.0,57,60,11.0,0.0
1473,72.0,3,60,10.0,0.0
1474,60.0,57,60,11.0,0.0
1475,74.0,3,60,10.0,0.0
1476,62.0,57,60,11.0,0.0
1477,71.0,3,60,10.0,0.0
1478,59.0,57,60,11.0,0.0
1479,67.0,3,60,10.0,0.0
1480,55.0,57,60,11.0,0.0
1481,71.0,3,60,10.0,0.0
1482,59.0,57,60,11.0,0.0
1483,74.0,3,60,10.0,0.0
1484,62.0,57,60,11.0,0.0
1485,77.0,3,60,10.0,0.0
1486,65.0,28,60,11.0,0.0
1487,76.0,3,60,10.0,0.0
1488,79.0,3,30,0.0,0.0
1489,64.0,52,60,11.0,0.0
1490,67.0,5,30,1.0,0.0
1491,55.0,21,30,3.0,0.0
1492,74.0,3,55,10.0,0.0
1493,79.0,3,120,0.0,0.0
1494,62.0,63,55,11.0,0.0
1495,67.0,5,120,1.0,0.0
1496,55.0,51,120,3.0,0.0
1497,72.0,1,120,10.0,0.0
1498,60.0,1,120,11.0,0.0
1499,64.0,1,120,12.0,0.0
1500,60.0,2,120,13.0,0.0
1501,48.0,47,120,14.0,0.0
1502,81.0,2,60,0.0,0.0
1503,69.0,4,60,1.0,0.0
1504,57.0,3,60,3.0,0.0
1505,83.0,3,60,0.0,0.0
1506,71.0,5,60,1.0,0.0
1507,60.0,4,120,12.0,0.0
1508,59.0,47,60,3.0,0.0
1509,55.0,2,120,13.0,0.0
1510,43.0,17,120,14.0,0.0
1511,84.0,3,55,0.0,0.0
1512,72.0,5,55,1.0,0.0
1513,60.0,4,55,3.0,0.0
1514,72.0,3,120,10.0,0.0
1515,79.0,3,30,0.0,0.0
1516,64.0,5,120,11.0,0.0
1517,67.0,5,30,1.0,0.0
1518,55.0,4,120,12.0,0.0
1519,55.0,81,30,3.0,0.0
1520,52.0,2,120,13.0,0.0
1521,40.0,47,120,14.0,0.0
1522,79.0,3,120,0.0,0.0
1523,67.0,5,120,1.0,0.0
1524,55.0,51,120,3.0,0.0
1525,67.0,1,120,10.0,0.0
1526,62.0,1,120,11.0,0.0
1527,59.0,1,120,12.0,0.0
1528,53.0,2,120,13.0,0.0
1529,41.0,47,120,14.0,0.0
1530,83.0,2,60,0.0,0.0
1531,71.0,4,60,1.0,0.0
1532,59.0,3,60,3.0,0.0
1533,71.0,3,120,10.0,0.0
1534,84.0,3,60,0.0,0.0
1535,72.0,5,60,1.0,0.0
1536,62.0,4,120,12.0,0.0
1537,60.0,47,60,3.0,0.0
1538,50.0,2,120,13.0,0.0
1539,38.0,17,120,14.0,0.0
1540,86.0,3,55,0.0,0.0
1541,74.0,1,55,1.0,0.0
1542,62.0,4,55,3.0,0.0
1543,74.0,3,120,10.0,0.0
1544,79.0,3,30,0.0,0.0
1545,67.0,1,0,11.0,0.0
1546,67.0,5,30,1.0,0.0
1547,65.0,4,120,12.0,0.0
1548,55.0,81,30,3.0,0.0
1549,47.0,2,120,13.0,0.0
1550,35.0,47,120,14.0,0.0
1551,79.0,3,120,0.0,0.0
1552,67.0,5,120,1.0,0.0
1553,55.0,51,120,3.0,0.0
1554,67.0,1,120,10.0,0.0
1555,67.0,5,0,11.0,0.0
1556,60.0,1,120,12.0,0.0
1557,52.0,2,120,13.0,0.0
1558,40.0,47,120,14.0,0.0
1559,84.0,2,60,0.0,0.0
1560,72.0,4,60,1.0,0.0
1561,60.0,3,60,3.0,0.0
1562,72.0,1,120,10.0,0.0
1563,86.0,3,60,0.0,0.0
1564,67.0,1,0,11.0,0.0
1565,74.0,5,60,1.0,0.0
1566,64.0,1,120,12.0,0.0
1567,62.0,51,60,3.0,0.0
1568,48.0,2,120,13.0,0.0
1569,36.0,47,120,14.0,0.0
1570,88.0,2,60,0.0,0.0
1571,76.0,4,60,1.0,0.0
1572,64.0,3,60,3.0,0.0
1573,76.0,3,120,10.0,0.0
1574,89.0,3,60,0.0,0.0
1575,77.0,5,60,1.0,0.0
1576,60.0,4,120,12.0,0.0
1577,65.0,47,60,3.0,0.0
1578,88.0,3,55,0.0,0.0
1579,76.0,1,55,1.0,0.0
1580,64.0,4,55,3.0,0.0
1581,74.0,3,120,10.0,0.0
1582,86.0,3,115,0.0,0.0
1583,67.0,1,0,11.0,0.0
1584,74.0,1,115,1.0,0.0
1585,59.0,4,120,12.0,0.0
1586,62.0,4,115,3.0,0.0
1587,43.0,2,0,13.0,0.0
1588,31.0,102,0,14.0,0.0
1589,71.0,3,120,10.0,0.0
1590,91.0,3,295,0.0,0.0
1591,67.0,1,0,11.0,0.0
1592,79.0,5,295,1.0,0.0
1593,62.0,4,120,12.0,0.0
1594,67.0,56,295,3.0,0.0
1595,59.0,2,120,13.0,0.0
1596,47.0,106,120,14.0,0.0
1597,74.0,3,120,10.0,0.0
1598,59.0,5,120,11.0,0.0
1599,55.0,4,120,12.0,0.0
1600,55.0,2,120,13.0,0.0
1601,43.0,42,120,14.0,0.0
1602,72.0,1,120,10.0,0.0
1603,60.0,1,120,11.0,0.0
1604,57.0,1,120,12.0,0.0
1605,57.0,2,120,13.0,0.0
1606,45.0,47,120,14.0,0.0
1607,90.0,2,60,0.0,0.0
1608,78.0,4,60,1.0,0.0
1609,66.0,3,60,3.0,0.0
1610,69.0,3,120,10.0,0.0
1611,86.0,3,60,0.0,0.0
1612,57.0,1,120,11.0,0.0
1613,74.0,5,60,1.0,0.0
1614,50.0,4,120,12.0,0.0
1615,62.0,47,60,3.0,0.0
1616,62.0,2,120,13.0,0.0
1617,50.0,106,120,14.0,0.0
1618,88.0,3,55,0.0,0.0
1619,76.0,1,55,1.0,0.0
1620,64.0,4,55,3.0,0.0
1621,74.0,3,120,10.0,0.0
1622,89.0,3,180,0.0,0.0
1623,62.0,5,120,11.0,0.0
1624,77.0,5,180,1.0,0.0
1625,59.0,4,120,12.0,0.0
1626,65.0,51,180,3.0,0.0
1627,59.0,2,120,13.0,0.0
1628,47.0,47,120,14.0,0.0
1629,71.0,1,120,10.0,0.0
1630,59.0,1,120,11.0,0.0
1631,55.0,1,120,12.0,0.0
1632,55.0,2,120,13.0,0.0
1633,43.0,47,120,14.0,0.0
1634,88.0,2,60,0.0,0.0
1635,76.0,4,60,1.0,0.0
1636,64.0,3,60,3.0,0.0
1637,67.0,3,120,10.0,0.0
1638,84.0,3,60,0.0,0.0
1639,55.0,1,120,11.0,0.0
1640,72.0,5,60,1.0,0.0
1641,48.0,1,120,5.0,0.0
1642,52.0,4,120,12.0,0.0
1643,60.0,47,60,3.0,0.0
1644,60.0,2,120,13.0,0.0
1645,48.0,106,120,14.0,0.0
1646,86.0,3,55,0.0,0.0
1647,74.0,1,55,1.0,0.0
1648,62.0,3,55,3.0,0.0
1649,72.0,3,120,10.0,0.0
1650,87.0,0,1200,0.0,0.0
1651,84.0,2,1200,0.0,0.0
1652,60.0,0,0,4.0,0.0
1653,72.0,3,1200,1.0,0.0
1654,75.0,0,1200,1.0,0.0
1655,48.0,4,120,12.0,0.0
1656,60.0,17,1200,3.0,0.0
1657,57.0,2,120,13.0,0.0
1658,45.0,12,120,14.0,0.0
1659,60.0,5,0,11.0,0.0
1660,63.0,16,23,11.0,0.0
1661,42.0,2,30,13.0,0.0
1662,30.0,12,30,14.0,0.0
1663,63.0,30,23,11.0,0.0
1664,60.0,0,23,11.0,0.0
1665,60.0,16,23,11.0,0.0
1666,63.0,0,23,11.0,0.0
1667,45.0,2,30,13.0,0.0
1668,33.0,12,30,14.0,0.0
1669,60.0,30,23,11.0,0.0
1670,63.0,0,23,11.0,0.0
1671,63.0,0,23,11.0,0.0
1672,60.0,16,23,11.0,0.0
1673,48.0,2,30,13.0,0.0
1674,36.0,12,30,14.0,0.0
1675,60.0,0,23,11.0,0.0
1676,63.0,30,23,11.0,0.0
1677,60.0,16,23,11.0,0.0
1678,63.0,0,23,11.0,0.0
1679,51.0,2,30,13.0,0.0
1680,39.0,12,30,14.0,0.0
1681,63.0,0,23,11.0,0.0
1682,60.0,30,23,11.0,0.0
1683,63.0,16,23,11.0,0.0
1684,60.0,0,23,11.0,0.0
1685,54.0,2,30,13.0,0.0
1686,42.0,12,30,14.0,0.0
1687,63.0,0,23,11.0,0.0
1688,60.0,30,23,11.0,0.0
1689,60.0,16,23,11.0,0.0
1690,63.0,0,23,11.0,0.0
1691,57.0,2,30,13.0,0.0
1692,45.0,12,30,14.0,0.0
1693,63.0,30,23,11.0,0.0
1694,60.0,0,23,11.0,0.0
1695,69.0,8,30,10.0,0.0
1696,60.0,0,23,11.0,0.0
1697,63.0,4,23,11.0,0.0
1698,57.0,18,30,12.0,0.0
1699,60.0,2,60,13.0,0.0
1700,48.0,12,60,14.0,0.0
1701,60.0,0,23,11.0,0.0
1702,63.0,16,23,11.0,0.0
1703,72.0,8,30,10.0,0.0
1704,63.0,4,23,11.0,0.0
1705,60.0,0,23,11.0,0.0
1706,60.0,18,30,12.0,0.0
1707,63.0,30,23,11.0,0.0
1708,60.0,0,23,11.0,0.0
1709,75.0,8,30,10.0,0.0
1710,60.0,0,23,11.0,0.0
1711,63.0,4,23,11.0,0.0
1712,63.0,18,30,12.0,0.0
1713,60.0,30,23,11.0,0.0
1714,63.0,0,23,11.0,0.0
1715,78.0,8,30,10.0,0.0
1716,60.0,0,23,11.0,0.0
1717,63.0,4,23,11.0,0.0
1718,66.0,18,30,12.0,0.0
1719,63.0,0,23,11.0,0.0
1720,60.0,30,23,11.0,0.0
1721,81.0,8,30,10.0,0.0
1722,60.0,4,23,11.0,0.0
1723,63.0,0,23,11.0,0.0
1724,69.0,18,30,12.0,0.0
1725,63.0,30,23,11.0,0.0
1726,60.0,0,23,11.0,0.0
1727,84.0,8,30,10.0,0.0
1728,63.0,0,23,11.0,0.0
1729,60.0,4,23,11.0,0.0
1730,72.0,18,30,12.0,0.0
1731,60.0,0,23,11.0,0.0
1732,63.0,30,23,11.0,0.0
1733,87.0,8,60,10.0,0.0
1734,63.0,30,23,11.0,0.0
1735,60.0,0,23,11.0,0.0
1736,75.0,18,60,12.0,0.0
1737,60.0,4,23,11.0,0.0
1738,63.0,0,23,11.0,0.0
1739,63.0,0,23,11.0,0.0
1740,60.0,30,23,11.0,0.0
1741,60.0,30,23,11.0,0.0
1742,63.0,0,23,11.0,0.0
1743,60.0,30,23,11.0,0.0
1744,63.0,0,23,11.0,0.0
1745,60.0,30,23,11.0,0.0
1746,63.0,0,23,11.0,0.0
1747,60.0,30,23,11.0,0.0
1748,63.0,0,23,11.0,0.0
1749,60.0,30,23,11.0,0.0
1750,63.0,0,23,11.0,0.0
1751,84.0,8,60,10.0,0.0
1752,60.0,0,23,11.0,0.0
1753,63.0,30,23,11.0,0.0
1754,72.0,18,60,12.0,0.0
1755,63.0,4,23,11.0,0.0
1756,60.0,0,23,11.0,0.0
1757,60.0,30,23,11.0,0.0
1758,63.0,0,23,11.0,0.0
1759,60.0,5,23,11.0,0.0
1760,63.0,0,23,11.0,0.0
1761,81.0,1,60,10.0,0.0
1762,87.0,3,60,0.0,0.0
1763,60.0,0,90,6.0,0.0
1764,72.0,1,90,6.0,0.0
1765,60.0,30,23,11.0,0.0
1766,63.0,0,23,11.0,0.0
1767,60.0,4,90,4.0,0.0
1768,75.0,4,60,1.0,0.0
1769,48.0,2,0,5.0,0.0
1770,69.0,1,60,12.0,0.0
1771,63.0,0,0,3.0,0.0
1772,60.0,3,60,3.0,0.0
1773,48.0,2,60,13.0,0.0
1774,36.0,12,60,14.0,0.0
1775,48.0,11,90,15.0,0.0
1776,60.0,0,23,11.0,0.0
1777,63.0,4,23,11.0,0.0
1778,63.0,6,23,11.0,0.0
1779,60.0,0,23,11.0,0.0
1780,60.0,0,23,11.0,0.0
1781,63.0,30,23,11.0,0.0
1782,60.0,30,23,11.0,0.0
1783,63.0,0,23,11.0,0.0
1784,60.0,30,23,11.0,0.0
1785,63.0,0,23,11.0,0.0
1786,60.0,30,23,11.0,0.0
1787,63.0,0,23,11.0,0.0
1788,60.0,30,23,11.0,0.0
1789,63.0,0,23,11.0,0.0
1790,84.0,3,60,0.0,0.0
1791,72.0,1,90,6.0,0.0
1792,60.0,0,90,6.0,0.0
1793,60.0,4,90,4.0,0.0
1794,60.0,0,23,11.0,0.0
1795,63.0,30,23,11.0,0.0
1796,72.0,5,60,1.0,0.0
1797,48.0,8,90,5.0,0.0
1798,57.0,0,60,3.0,0.0
1799,60.0,3,60,3.0,0.0
1800,45.0,2,60,13.0,0.0
1801,33.0,12,60,14.0,0.0
1802,48.0,11,90,15.0,0.0
1803,63.0,0,23,11.0,0.0
1804,60.0,5,23,11.0,0.0
1805,60.0,6,23,11.0,0.0
1806,63.0,0,23,11.0,0.0
1807,63.0,30,23,11.0,0.0
1808,60.0,0,23,11.0,0.0
1809,87.0,2,1080,0.0,0.0
1810,60.0,10,90,6.0,0.0
1811,72.0,0,90,6.0,0.0
1812,60.0,0,23,11.0,0.0
1813,63.0,16,23,11.0,0.0
1814,72.0,0,1080,1.0,0.0
1815,75.0,3,1080,1.0,0.0
1816,48.0,2,1080,5.0,0.0
1817,63.0,0,1080,3.0,0.0
1818,42.0,2,30,13.0,0.0
1819,30.0,12,30,14.0,0.0
1820,48.0,11,90,15.0,0.0
1821,63.0,30,23,11.0,0.0
1822,60.0,0,23,11.0,0.0
1823,60.0,6,23,11.0,0.0
1824,63.0,0,23,11.0,0.0
1825,45.0,2,30,13.0,0.0
1826,33.0,1,30,14.0,0.0
1827,60.0,30,23,11.0,0.0
1828,63.0,0,23,11.0,0.0
1829,60.0,16,23,11.0,0.0
1830,63.0,0,23,11.0,0.0
1831,48.0,2,30,13.0,0.0
1832,36.0,12,30,14.0,0.0
1833,60.0,30,23,11.0,0.0
1834,63.0,0,23,11.0,0.0
1835,63.0,0,23,11.0,0.0
1836,60.0,16,23,11.0,0.0
1837,51.0,2,30,13.0,0.0
1838,39.0,12,30,14.0,0.0
1839,63.0,30,23,11.0,0.0
1840,60.0,0,23,11.0,0.0
1841,63.0,0,23,11.0,0.0
1842,60.0,16,23,11.0,0.0
1843,54.0,2,30,13.0,0.0
1844,42.0,12,30,14.0,0.0
1845,60.0,0,23,11.0,0.0
1846,63.0,30,23,11.0,0.0
1847,63.0,16,23,11.0,0.0
1848,60.0,0,23,11.0,0.0
1849,57.0,2,30,13.0,0.0
1850,45.0,12,30,14.0,0.0
1851,60.0,0,23,11.0,0.0
1852,63.0,30,23,11.0,0.0
1853,69.0,8,30,10.0,0.0
1854,63.0,4,23,11.0,0.0
1855,60.0,0,23,11.0,0.0
1856,57.0,18,30,12.0,0.0
1857,60.0,2,60,13.0,0.0
1858,48.0,12,60,14.0,0.0
1859,60.0,0,23,11.0,0.0
1860,63.0,16,23,11.0,0.0
1861,72.0,8,30,10.0,0.0
1862,60.0,4,23,11.0,0.0
1863,63.0,0,23,11.0,0.0
1864,60.0,18,30,12.0,0.0
1865,60.0,0,23,11.0,0.0
1866,63.0,30,23,11.0,0.0
1867,75.0,8,30,10.0,0.0
1868,63.0,4,23,11.0,0.0
1869,60.0,0,23,11.0,0.0
1870,63.0,18,30,12.0,0.0
1871,63.0,30,23,11.0,0.0
1872,60.0,0,23,11.0,0.0
1873,78.0,8,30,10.0,0.0
1874,60.0,4,23,11.0,0.0
1875,63.0,0,23,11.0,0.0
1876,66.0,18,30,12.0,0.0
1877,63.0,0,23,11.0,0.0
1878,60.0,30,23,11.0,0.0
1879,81.0,8,30,10.0,0.0
1880,60.0,4,23,11.0,0.0
1881,63.0,0,23,11.0,0.0
1882,69.0,18,30,12.0,0.0
1883,63.0,0,23,11.0,0.0
1884,60.0,30,23,11.0,0.0
1885,84.0,8,30,10.0,0.0
1886,63.0,0,23,11.0,0.0
1887,60.0,4,23,11.0,0.0
1888,72.0,18,30,12.0,0.0
1889,63.0,0,23,11.0,0.0
1890,60.0,30,23,11.0,0.0
1891,87.0,8,60,10.0,0.0
1892,60.0,0,23,11.0,0.0
1893,63.0,30,23,11.0,0.0
1894,75.0,18,60,12.0,0.0
1895,63.0,0,23,11.0,0.0
1896,60.0,4,23,11.0,0.0
1897,63.0,30,23,11.0,0.0
1898,60.0,0,23,11.0,0.0
1899,60.0,0,23,11.0,0.0
1900,63.0,30,23,11.0,0.0
1901,60.0,30,23,11.0,0.0
1902,63.0,0,23,11.0,0.0
1903,60.0,30,23,11.0,0.0
1904,63.0,0,23,11.0,0.0
1905,63.0,0,23,11.0,0.0
1906,60.0,30,23,11.0,0.0
1907,63.0,0,23,11.0,0.0
1908,60.0,30,23,11.0,0.0
1909,84.0,8,60,10.0,0.0
1910,63.0,30,23,11.0,0.0
1911,60.0,0,23,11.0,0.0
1912,72.0,18,60,12.0,0.0
1913,63.0,4,23,11.0,0.0
1914,60.0,0,23,11.0,0.0
1915,60.0,30,23,11.0,0.0
1916,63.0,0,23,11.0,0.0
1917,60.0,0,23,11.0,0.0
1918,63.0,5,23,11.0,0.0
1919,81.0,1,60,10.0,0.0
1920,84.0,0,0,0.0,0.0
1921,87.0,0,60,0.0,0.0
1922,60.0,1,90,6.0,0.0
1923,72.0,0,90,6.0,0.0
1924,60.0,1,0,4.0,0.0
1925,63.0,0,23,11.0,0.0
1926,60.0,30,23,11.0,0.0
1927,72.0,0,60,1.0,0.0
1928,75.0,4,60,1.0,0.0
1929,48.0,8,90,5.0,0.0
1930,69.0,1,60,12.0,0.0
1931,63.0,3,60,3.0,0.0
1932,60.0,17,0,3.0,0.0
1933,60.0,2,60,13.0,0.0
1934,48.0,12,60,14.0,0.0
1935,48.0,11,90,15.0,0.0
1936,63.0,0,23,11.0,0.0
1937,60.0,4,23,11.0,0.0
1938,60.0,6,23,11.0,0.0
1939,63.0,0,23,11.0,0.0
1940,63.0,30,23,11.0,0.0
1941,60.0,0,23,11.0,0.0
1942,60.0,30,23,11.0,0.0
1943,63.0,0,23,11.0,0.0
1944,60.0,0,23,11.0,0.0
1945,63.0,30,23,11.0,0.0
1946,63.0,0,23,11.0,0.0
1947,60.0,30,23,11.0,0.0
1948,63.0,30,23,11.0,0.0
1949,60.0,0,23,11.0,0.0
1950,84.0,3,60,0.0,0.0
1951,72.0,1,90,6.0,0.0
1952,60.0,0,90,6.0,0.0
1953,60.0,0,23,11.0,0.0
1954,63.0,30,23,11.0,0.0
1955,60.0,4,90,4.0,0.0
1956,72.0,5,60,1.0,0.0
1957,48.0,8,90,5.0,0.0
1958,60.0,3,60,3.0,0.0
1959,57.0,2,60,13.0,0.0
1960,45.0,12,60,14.0,0.0
1961,48.0,11,90,15.0,0.0
1962,60.0,0,23,11.0,0.0
1963,63.0,5,23,11.0,0.0
1964,60.0,0,23,11.0,0.0
1965,63.0,6,23,11.0,0.0
1966,63.0,0,23,11.0,0.0
1967,60.0,30,23,11.0,0.0
1968,77.0,8,60,10.0,0.0
1969,86.0,0,360,0.0,0.0
1970,89.0,3,360,0.0,0.0
1971,65.0,30,23,11.0,0.0
1972,62.0,0,23,11.0,0.0
1973,77.0,0,360,1.0,0.0
1974,65.0,4,60,12.0,0.0
1975,62.0,17,360,3.0,0.0
1976,56.0,2,60,13.0,0.0
1977,44.0,12,60,14.0,0.0
1978,65.0,4,23,11.0,0.0
1979,62.0,0,23,11.0,0.0
1980,62.0,30,23,11.0,0.0
1981,65.0,0,23,11.0,0.0
1982,62.0,0,23,11.0,0.0
1983,65.0,30,23,11.0,0.0
1984,62.0,0,23,11.0,0.0
1985,65.0,30,23,11.0,0.0
1986,65.0,0,23,11.0,0.0
1987,62.0,30,23,11.0,0.0
1988,62.0,0,23,11.0,0.0
1989,65.0,30,23,11.0,0.0
1990,65.0,30,23,11.0,0.0
1991,62.0,0,23,11.0,0.0
1992,74.0,8,60,10.0,0.0
1993,62.0,0,23,11.0,0.0
1994,65.0,30,23,11.0,0.0
1995,62.0,18,60,12.0,0.0
1996,62.0,4,23,11.0,0.0
1997,65.0,0,23,11.0,0.0
1998,62.0,0,23,11.0,0.0
1999,65.0,30,23,11.0,0.0
2000,65.0,0,23,11.0,0.0
2001,62.0,5,23,11.0,0.0
2002,71.0,1,60,10.0,0.0
2003,86.0,3,60,0.0,0.0
2004,89.0,0,60,0.0,0.0
2005,62.0,0,23,11.0,0.0
2006,65.0,30,23,11.0,0.0
2007,74.0,5,0,1.0,0.0
2008,77.0,0,60,1.0,0.0
2009,59.0,1,60,12.0,0.0
2010,65.0,0,0,3.0,0.0
2011,62.0,0,60,3.0,0.0
2012,62.0,2,60,13.0,0.0
2013,50.0,12,60,14.0,0.0
2014,62.0,4,23,11.0,0.0
2015,65.0,0,23,11.0,0.0
2016,65.0,0,23,11.0,0.0
2017,62.0,30,23,11.0,0.0
2018,62.0,30,23,11.0,0.0
2019,65.0,0,23,11.0,0.0
2020,65.0,30,23,11.0,0.0
2021,62.0,0,23,11.0,0.0
2022,65.0,30,23,11.0,0.0
2023,62.0,0,23,11.0,0.0
2024,65.0,0,23,11.0,0.0
2025,62.0,30,23,11.0,0.0
2026,62.0,30,23,11.0,0.0
2027,65.0,0,23,11.0,0.0
2028,86.0,3,60,0.0,0.0
2029,65.0,0,23,11.0,0.0
2030,62.0,30,23,11.0,0.0
2031,74.0,5,60,1.0,0.0
2032,62.0,3,60,3.0,0.0
2033,59.0,2,60,13.0,0.0
2034,47.0,12,60,14.0,0.0
2035,65.0,5,23,11.0,0.0
2036,62.0,0,23,11.0,0.0
2037,62.0,0,23,11.0,0.0
2038,65.0,30,23,11.0,0.0
2039,65.0,30,23,11.0,0.0
2040,62.0,0,23,11.0,0.0
2041,79.0,1,60,10.0,0.0
2042,88.0,0,60,0.0,0.0
2043,91.0,0,60,0.0,0.0
2044,67.0,5,23,11.0,0.0
2045,67.0,4,90,4.0,0.0
2046,76.0,0,60,1.0,0.0
2047,79.0,1,60,1.0,0.0
2048,64.0,0,60,2.0,0.0
2049,67.0,4,60,2.0,0.0
2050,67.0,19,90,5.0,0.0
2051,64.0,25,23,12.0,0.0
2052,67.0,3,60,3.0,0.0
2053,64.0,0,60,3.0,0.0
2054,55.0,2,60,13.0,0.0
2055,43.0,12,60,14.0,0.0
2056,67.0,4,23,11.0,0.0
2057,64.0,3,23,12.0,0.0
2058,67.0,5,23,11.0,0.0
2059,64.0,2,23,12.0,0.0
2060,67.0,5,23,11.0,0.0
2061,64.0,25,23,12.0,0.0
2062,67.0,5,23,11.0,0.0
2063,64.0,25,23,12.0,0.0
2064,67.0,5,23,11.0,0.0
2065,64.0,25,23,12.0,0.0
2066,67.0,5,23,11.0,0.0
2067,64.0,25,23,12.0,0.0
2068,67.0,5,23,11.0,0.0
2069,64.0,25,23,12.0,0.0
2070,76.0,1,60,10.0,0.0
2071,64.0,5,23,11.0,0.0
2072,61.0,25,23,12.0,0.0
2073,58.0,2,60,13.0,0.0
2074,46.0,12,60,14.0,0.0
2075,64.0,4,23,11.0,0.0
2076,61.0,11,23,12.0,0.0
2077,64.0,5,23,11.0,0.0
2078,61.0,25,23,12.0,0.0
2079,64.0,5,23,11.0,0.0
2080,61.0,25,23,12.0,0.0
2081,80.0,1,60,10.0,0.0
2082,92.0,0,60,0.0,0.0
2083,89.0,0,60,0.0,0.0
2084,65.0,4,90,4.0,0.0
2085,68.0,5,23,11.0,0.0
2086,80.0,1,60,1.0,0.0
2087,77.0,0,60,1.0,0.0
2088,65.0,4,60,2.0,0.0
2089,68.0,0,60,2.0,0.0
2090,53.0,19,90,5.0,0.0
2091,65.0,25,23,12.0,0.0
2092,56.0,0,60,3.0,0.0
2093,53.0,3,60,3.0,0.0
2094,53.0,2,60,13.0,0.0
2095,41.0,12,60,14.0,0.0
2096,68.0,4,23,11.0,0.0
2097,65.0,3,23,12.0,0.0
2098,68.0,5,23,11.0,0.0
2099,65.0,2,23,12.0,0.0
2100,68.0,5,23,11.0,0.0
2101,65.0,25,23,12.0,0.0
2102,68.0,5,23,11.0,0.0
2103,65.0,25,23,12.0,0.0
2104,68.0,5,23,11.0,0.0
2105,65.0,25,23,12.0,0.0
2106,68.0,5,23,11.0,0.0
2107,65.0,25,23,12.0,0.0
2108,68.0,5,23,11.0,0.0
2109,65.0,25,23,12.0,0.0
2110,77.0,1,60,10.0,0.0
2111,65.0,5,23,11.0,0.0
2112,62.0,25,23,12.0,0.0
2113,56.0,2,60,13.0,0.0
2114,44.0,12,60,14.0,0.0
2115,65.0,4,23,11.0,0.0
2116,62.0,11,23,12.0,0.0
2117,65.0,5,23,11.0,0.0
2118,62.0,25,23,12.0,0.0
2119,65.0,5,23,11.0,0.0
2120,62.0,25,23,12.0,0.0
2121,81.0,1,60,10.0,0.0
2122,90.0,3,60,0.0,0.0
2123,93.0,0,60,0.0,0.0
2124,72.0,0,90,6.0,0.0
2125,60.0,1,90,6.0,0.0
2126,60.0,4,90,4.0,0.0
2127,69.0,5,23,11.0,0.0
2128,78.0,0,60,1.0,0.0
2129,81.0,1,60,1.0,0.0
2130,69.0,4,60,2.0,0.0
2131,66.0,0,60,2.0,0.0
2132,48.0,8,90,5.0,0.0
2133,66.0,25,23,12.0,0.0
2134,63.0,3,60,3.0,0.0
2135,60.0,0,60,3.0,0.0
2136,51.0,2,60,13.0,0.0
2137,39.0,12,60,14.0,0.0
2138,48.0,11,90,15.0,0.0
2139,69.0,4,23,11.0,0.0
2140,66.0,0,23,12.0,0.0
2141,69.0,5,23,11.0,0.0
2142,66.0,1,23,12.0,0.0
2143,69.0,5,23,11.0,0.0
2144,66.0,25,23,12.0,0.0
2145,69.0,5,23,11.0,0.0
2146,66.0,25,23,12.0,0.0
2147,69.0,5,23,11.0,0.0
2148,66.0,25,23,12.0,0.0
2149,69.0,5,23,11.0,0.0
2150,66.0,25,23,12.0,0.0
2151,69.0,5,23,11.0,0.0
2152,66.0,25,23,12.0,0.0
2153,78.0,1,60,10.0,0.0
2154,66.0,5,23,11.0,0.0
2155,57.0,25,23,12.0,0.0
2156,60.0,2,60,13.0,0.0
2157,48.0,12,60,14.0,0.0
2158,66.0,4,23,11.0,0.0
2159,57.0,11,23,12.0,0.0
2160,66.0,5,23,11.0,0.0
2161,57.0,25,23,12.0,0.0
2162,66.0,5,23,11.0,0.0
2163,57.0,25,23,12.0,0.0
2164,83.0,1,60,10.0,0.0
2165,79.0,3,60,0.0,0.0
2166,91.0,0,60,0.0,0.0
2167,65.0,1,90,6.0,0.0
2168,71.0,5,23,11.0,0.0
2169,67.0,4,90,4.0,0.0
2170,79.0,1,60,1.0,0.0
2171,83.0,0,60,1.0,0.0
2172,67.0,0,60,2.0,0.0
2173,71.0,4,60,2.0,0.0
2174,67.0,8,90,5.0,0.0
2175,67.0,25,23,12.0,0.0
2176,59.0,3,60,3.0,0.0
2177,62.0,0,60,3.0,0.0
2178,50.0,2,60,13.0,0.0
2179,38.0,12,60,14.0,0.0
2180,41.0,11,90,15.0,0.0
2181,71.0,4,23,11.0,0.0
2182,67.0,0,23,12.0,0.0
2183,71.0,5,23,11.0,0.0
2184,67.0,1,23,12.0,0.0
2185,71.0,5,23,11.0,0.0
2186,67.0,25,23,12.0,0.0
2187,71.0,5,23,11.0,0.0
2188,67.0,25,23,12.0,0.0
2189,71.0,5,23,11.0,0.0
2190,67.0,25,23,12.0,0.0
2191,71.0,5,23,11.0,0.0
2192,67.0,25,23,12.0,0.0
2193,71.0,5,23,11.0,0.0
2194,67.0,25,23,12.0,0.0
2195,79.0,1,60,10.0,0.0
2196,91.0,0,60,0.0,0.0
2197,79.0,3,60,0.0,0.0
2198,67.0,5,23,11.0,0.0
2199,83.0,1,60,1.0,0.0
2200,79.0,0,60,1.0,0.0
2201,67.0,4,60,2.0,0.0
2202,71.0,0,60,2.0,0.0
2203,62.0,0,23,12.0,0.0
2204,59.0,25,23,12.0,0.0
2205,59.0,3,60,3.0,0.0
2206,62.0,0,60,3.0,0.0
2207,59.0,2,60,13.0,0.0
2208,47.0,12,60,14.0,0.0
2209,67.0,4,23,11.0,0.0
2210,59.0,0,23,12.0,0.0
2211,62.0,0,23,12.0,0.0
2212,67.0,5,23,11.0,0.0
2213,59.0,25,23,12.0,0.0
2214,62.0,0,23,12.0,0.0
2215,67.0,5,23,11.0,0.0
2216,62.0,0,23,12.0,0.0
2217,59.0,25,23,12.0,0.0
2218,83.0,1,60,10.0,0.0
2219,86.0,0,60,0.0,0.0
2220,91.0,0,60,0.0,0.0
2221,65.0,1,90,6.0,0.0
2222,71.0,5,23,11.0,0.0
2223,67.0,4,90,4.0,0.0
2224,79.0,0,60,1.0,0.0
2225,83.0,1,60,1.0,0.0
2226,74.0,4,60,2.0,0.0
2227,71.0,0,60,2.0,0.0
2228,67.0,8,90,5.0,0.0
2229,67.0,25,23,12.0,0.0
2230,62.0,3,60,3.0,0.0
2231,59.0,0,60,3.0,0.0
2232,50.0,2,60,13.0,0.0
2233,38.0,12,60,14.0,0.0
2234,41.0,11,90,15.0,0.0
2235,71.0,4,23,11.0,0.0
2236,67.0,3,23,12.0,0.0
2237,71.0,5,23,11.0,0.0
2238,67.0,1,23,12.0,0.0
2239,71.0,5,23,11.0,0.0
2240,67.0,25,23,12.0,0.0
2241,71.0,5,23,11.0,0.0
2242,67.0,25,23,12.0,0.0
2243,71.0,5,23,11.0,0.0
2244,67.0,25,23,12.0,0.0
2245,71.0,5,23,11.0,0.0
2246,67.0,25,23,12.0,0.0
2247,71.0,5,23,11.0,0.0
2248,67.0,25,23,12.0,0.0
2249,79.0,1,60,10.0,0.0
2250,91.0,0,60,0.0,0.0
2251,86.0,3,60,0.0,0.0
2252,65.0,1,90,6.0,0.0
2253,67.0,5,23,11.0,0.0
2254,67.0,4,90,4.0,0.0
2255,79.0,1,60,1.0,0.0
2256,83.0,0,60,1.0,0.0
2257,71.0,0,60,2.0,0.0
2258,74.0,4,60,2.0,0.0
2259,67.0,8,90,5.0,0.0
2260,59.0,0,23,12.0,0.0
2261,62.0,25,23,12.0,0.0
2262,59.0,0,60,3.0,0.0
2263,62.0,3,60,3.0,0.0
2264,53.0,2,60,13.0,0.0
2265,41.0,12,60,14.0,0.0
2266,41.0,11,90,15.0,0.0
2267,67.0,4,23,11.0,0.0
2268,59.0,0,23,12.0,0.0
2269,62.0,0,23,12.0,0.0
2270,67.0,5,23,11.0,0.0
2271,59.0,1,23,12.0,0.0
2272,62.0,0,23,12.0,0.0
2273,67.0,5,23,11.0,0.0
2274,62.0,25,23,12.0,0.0
2275,59.0,0,23,12.0,0.0
2276,84.0,1,60,10.0,0.0
2277,91.0,3,60,0.0,0.0
2278,88.0,0,60,0.0,0.0
2279,60.0,0,90,6.0,0.0
2280,72.0,1,90,6.0,0.0
2281,72.0,5,23,11.0,0.0
2282,67.0,4,90,4.0,0.0
2283,84.0,0,60,1.0,0.0
2284,79.0,1,60,1.0,0.0
2285,72.0,4,60,2.0,0.0
2286,76.0,0,60,2.0,0.0
2287,67.0,8,90,5.0,0.0
2288,60.0,25,23,12.0,0.0
2289,64.0,0,60,3.0,0.0
2290,60.0,3,60,3.0,0.0
2291,52.0,2,60,13.0,0.0
2292,40.0,12,60,14.0,0.0
2293,48.0,11,90,15.0,0.0
2294,72.0,4,23,11.0,0.0
2295,60.0,0,23,12.0,0.0
2296,72.0,5,23,11.0,0.0
2297,60.0,1,23,12.0,0.0
2298,72.0,5,23,11.0,0.0
2299,60.0,25,23,12.0,0.0
2300,72.0,5,23,11.0,0.0
2301,60.0,25,23,12.0,0.0
2302,72.0,5,23,11.0,0.0
2303,60.0,25,23,12.0,0.0
2304,72.0,5,23,11.0,0.0
2305,60.0,25,23,12.0,0.0
2306,72.0,5,23,11.0,0.0
2307,60.0,25,23,12.0,0.0
2308,81.0,1,60,10.0,0.0
2309,93.0,0,60,0.0,0.0
2310,81.0,0,60,0.0,0.0
2311,72.0,1,90,6.0,0.0
2312,60.0,0,90,6.0,0.0
2313,69.0,4,90,4.0,0.0
2314,69.0,5,23,11.0,0.0
2315,81.0,1,60,1.0,0.0
2316,81.0,0,60,2.0,0.0
2317,69.0,4,60,2.0,0.0
2318,57.0,8,90,5.0,0.0
2319,57.0,25,23,12.0,0.0
2320,57.0,3,60,3.0,0.0
2321,57.0,2,60,13.0,0.0
2322,45.0,12,60,14.0,0.0
2323,48.0,11,90,15.0,0.0
2324,69.0,4,23,11.0,0.0
2325,57.0,3,23,12.0,0.0
2326,69.0,5,23,11.0,0.0
2327,57.0,1,23,12.0,0.0
2328,69.0,5,23,11.0,0.0
2329,57.0,25,23,12.0,0.0
2330,77.0,1,60,10.0,0.0
2331,89.0,3,60,0.0,0.0
2332,77.0,0,60,0.0,0.0
2333,60.0,0,90,6.0,0.0
2334,72.0,1,90,6.0,0.0
2335,65.0,4,90,4.0,0.0
2336,65.0,5,23,11.0,0.0
2337,77.0,1,60,1.0,0.0
2338,77.0,0,60,2.0,0.0
2339,65.0,4,60,2.0,0.0
2340,53.0,8,90,5.0,0.0
2341,53.0,25,23,12.0,0.0
2342,65.0,3,60,3.0,0.0
2343,53.0,0,60,3.0,0.0
2344,53.0,2,60,13.0,0.0
2345,41.0,12,60,14.0,0.0
2346,41.0,11,90,15.0,0.0
2347,65.0,4,23,11.0,0.0
2348,53.0,0,23,12.0,0.0
2349,65.0,5,23,11.0,0.0
2350,53.0,1,23,12.0,0.0
2351,65.0,5,23,11.0,0.0
2352,53.0,25,23,12.0,0.0
2353,65.0,5,23,11.0,0.0
2354,53.0,25,23,12.0,0.0
2355,65.0,5,23,11.0,0.0
2356,53.0,25,23,12.0,0.0
2357,65.0,5,23,11.0,0.0
2358,53.0,25,23,12.0,0.0
2359,65.0,5,23,11.0,0.0
2360,53.0,25,23,12.0,0.0
2361,74.0,1,60,10.0,0.0
2362,74.0,0,60,0.0,0.0
2363,86.0,3,60,0.0,0.0
2364,60.0,0,90,6.0,0.0
2365,72.0,13,90,6.0,0.0
2366,62.0,5,23,11.0,0.0
2367,74.0,1,60,1.0,0.0
2368,74.0,4,60,2.0,0.0
2369,62.0,0,60,2.0,0.0
2370,50.0,25,23,12.0,0.0
2371,62.0,0,60,3.0,0.0
2372,50.0,3,60,3.0,0.0
2373,50.0,2,60,13.0,0.0
2374,38.0,12,60,14.0,0.0
2375,41.0,11,90,15.0,0.0
2376,62.0,4,23,11.0,0.0
2377,50.0,0,23,12.0,0.0
2378,62.0,5,23,11.0,0.0
2379,50.0,1,23,12.0,0.0
2380,62.0,5,23,11.0,0.0
2381,50.0,25,23,12.0,0.0
2382,79.0,1,60,10.0,0.0
2383,79.0,0,60,0.0,0.0
2384,91.0,3,60,0.0,0.0
2385,79.0,1,90,6.0,0.0
2386,67.0,5,23,11.0,0.0
2387,67.0,4,90,4.0,0.0
2388,79.0,1,60,1.0,0.0
2389,67.0,4,60,2.0,0.0
2390,79.0,0,60,2.0,0.0
2391,67.0,19,90,5.0,0.0
2392,55.0,25,23,12.0,0.0
2393,55.0,3,60,3.0,0.0
2394,67.0,0,60,3.0,0.0
2395,55.0,2,60,13.0,0.0
2396,43.0,12,60,14.0,0.0
2397,67.0,4,23,11.0,0.0
2398,55.0,0,23,12.0,0.0
2399,67.0,5,23,11.0,0.0
2400,55.0,1,23,12.0,0.0
2401,67.0,5,23,11.0,0.0
2402,55.0,25,23,12.0,0.0
2403,67.0,5,23,11.0,0.0
2404,55.0,25,23,12.0,0.0
2405,67.0,5,23,11.0,0.0
2406,55.0,25,23,12.0,0.0
2407,67.0,5,23,11.0,0.0
2408,55.0,25,23,12.0,0.0
2409,67.0,5,23,11.0,0.0
2410,55.0,25,23,12.0,0.0
2411,67.0,1,60,10.0,0.0
2412,79.0,3,60,0.0,0.0
2413,79.0,1,90,6.0,0.0
2414,67.0,4,90,4.0,0.0
2415,55.0,5,23,11.0,0.0
2416,67.0,1,60,1.0,0.0
2417,67.0,4,60,2.0,0.0
2418,67.0,19,90,5.0,0.0
2419,55.0,25,23,12.0,0.0
2420,43.0,3,60,3.0,0.0
2421,55.0,0,60,3.0,0.0
2422,43.0,2,60,13.0,0.0
2423,31.0,12,60,14.0,0.0
2424,55.0,4,23,11.0,0.0
2425,55.0,0,23,12.0,0.0
2426,55.0,5,23,11.0,0.0
2427,55.0,1,23,12.0,0.0
2428,55.0,5,23,11.0,0.0
2429,55.0,79,23,12.0,0.0
2430,76.0,3,80,10.0,0.0
2431,88.0,0,85,0.0,0.0
2432,84.0,1,85,0.0,0.0
2433,60.0,0,85,6.0,0.0
2434,72.0,1,85,6.0,0.0
2435,60.0,1,85,4.0,0.0
2436,67.0,3,80,11.0,0.0
2437,76.0,1,85,1.0,0.0
2438,72.0,0,85,1.0,0.0
2439,64.0,0,85,2.0,0.0
2440,67.0,2,85,2.0,0.0
2441,48.0,2,85,5.0,0.0
2442,60.0,0,80,12.0,0.0
2443,64.0,0,85,3.0,0.0
2444,60.0,6,85,3.0,0.0
2445,48.0,0,80,13.0,0.0
2446,36.0,0,80,14.0,0.0
2447,48.0,13,85,15.0,0.0
2448,76.0,3,23,10.0,0.0
2449,88.0,0,25,0.0,0.0
2450,84.0,0,25,0.0,0.0
2451,60.0,0,25,6.0,0.0
2452,72.0,1,25,6.0,0.0
2453,60.0,1,25,4.0,0.0
2454,67.0,1,23,11.0,0.0
2455,76.0,0,25,1.0,0.0
2456,72.0,1,25,1.0,0.0
2457,64.0,1,25,2.0,0.0
2458,67.0,0,25,2.0,0.0
2459,48.0,2,25,5.0,0.0
2460,60.0,1,23,12.0,0.0
2461,60.0,0,25,3.0,0.0
2462,64.0,1,25,3.0,0.0
2463,48.0,2,23,13.0,0.0
2464,36.0,3,23,14.0,0.0
2465,48.0,50,25,15.0,0.0
2466,74.0,1,60,10.0,0.0
2467,83.0,2,60,0.0,0.0
2468,86.0,0,60,0.0,0.0
2469,72.0,0,90,6.0,0.0
2470,60.0,1,90,6.0,0.0
2471,60.0,4,90,4.0,0.0
2472,68.0,1,60,11.0,0.0
2473,74.0,0,60,1.0,0.0
2474,71.0,1,60,1.0,0.0
2475,65.0,0,60,2.0,0.0
2476,68.0,3,60,2.0,0.0
2477,48.0,8,90,5.0,0.0
2478,59.0,1,60,12.0,0.0
2479,59.0,0,60,3.0,0.0
2480,62.0,3,60,3.0,0.0
2481,41.0,2,60,13.0,0.0
2482,29.0,18,60,14.0,0.0
2483,41.0,95,90,15.0,0.0
2484,77.0,3,80,10.0,0.0
2485,89.0,1,85,0.0,0.0
2486,86.0,0,85,0.0,0.0
2487,60.0,1,85,6.0,0.0
2488,72.0,0,85,6.0,0.0
2489,60.0,0,85,4.0,0.0
2490,68.0,3,80,11.0,0.0
2491,77.0,1,85,1.0,0.0
2492,74.0,0,85,1.0,0.0
2493,68.0,0,85,2.0,0.0
2494,65.0,2,85,2.0,0.0
2495,48.0,2,85,5.0,0.0
2496,59.0,1,80,12.0,0.0
2497,62.0,0,85,3.0,0.0
2498,59.0,0,85,3.0,0.0
2499,41.0,0,80,13.0,0.0
2500,29.0,6,80,14.0,0.0
2501,41.0,13,85,15.0,0.0
2502,77.0,3,23,10.0,0.0
2503,89.0,0,25,0.0,0.0
2504,86.0,1,25,0.0,0.0
2505,72.0,1,25,6.0,0.0
2506,60.0,0,25,6.0,0.0
2507,60.0,1,25,4.0,0.0
2508,68.0,0,23,11.0,0.0
2509,77.0,0,25,1.0,0.0
2510,74.0,1,25,1.0,0.0
2511,68.0,0,25,2.0,0.0
2512,65.0,1,25,2.0,0.0
2513,48.0,2,25,5.0,0.0
2514,59.0,1,23,12.0,0.0
2515,59.0,0,25,3.0,0.0
2516,62.0,1,25,3.0,0.0
2517,41.0,2,23,13.0,0.0
2518,29.0,3,23,14.0,0.0
2519,41.0,50,25,15.0,0.0
2520,76.0,1,60,10.0,0.0
2521,84.0,2,60,0.0,0.0
2522,88.0,0,60,0.0,0.0
2523,72.0,1,90,6.0,0.0
2524,60.0,0,90,6.0,0.0
2525,60.0,4,90,4.0,0.0
2526,67.0,1,60,11.0,0.0
2527,72.0,1,60,1.0,0.0
2528,76.0,0,60,1.0,0.0
2529,67.0,0,60,2.0,0.0
2530,64.0,3,60,2.0,0.0
2531,48.0,8,90,5.0,0.0
2532,60.0,1,60,12.0,0.0
2533,64.0,3,60,3.0,0.0
2534,60.0,0,60,3.0,0.0
2535,48.0,2,60,13.0,0.0
2536,36.0,18,60,14.0,0.0
2537,48.0,95,90,15.0,0.0
2538,81.0,3,80,10.0,0.0
2539,93.0,0,85,0.0,0.0
2540,89.0,1,85,0.0,0.0
2541,72.0,0,85,6.0,0.0
2542,60.0,1,85,6.0,0.0
2543,69.0,3,80,11.0,0.0
2544,60.0,0,85,4.0,0.0
2545,81.0,0,85,1.0,0.0
2546,77.0,1,85,1.0,0.0
2547,65.0,2,85,2.0,0.0
2548,69.0,0,85,2.0,0.0
2549,48.0,0,85,5.0,0.0
2550,60.0,1,80,12.0,0.0
2551,57.0,0,85,3.0,0.0
2552,53.0,6,85,3.0,0.0
2553,41.0,2,80,13.0,0.0
2554,29.0,0,80,14.0,0.0
2555,41.0,13,85,15.0,0.0
2556,81.0,3,23,10.0,0.0
2557,93.0,0,25,0.0,0.0
2558,89.0,1,25,0.0,0.0
2559,72.0,1,25,6.0,0.0
2560,60.0,0,25,6.0,0.0
2561,60.0,1,25,4.0,0.0
2562,71.0,0,23,11.0,0.0
2563,81.0,1,25,1.0,0.0
2564,77.0,0,25,1.0,0.0
2565,69.0,1,25,2.0,0.0
2566,65.0,0,25,2.0,0.0
2567,48.0,2,25,5.0,0.0
2568,62.0,1,23,12.0,0.0
2569,57.0,1,25,3.0,0.0
2570,53.0,0,25,3.0,0.0
2571,41.0,2,23,13.0,0.0
2572,29.0,3,23,14.0,0.0
2573,41.0,50,25,15.0,0.0
2574,79.0,1,60,10.0,0.0
2575,91.0,0,60,0.0,0.0
2576,88.0,2,60,0.0,0.0
2577,60.0,1,90,6.0,0.0
2578,72.0,0,90,6.0,0.0
2579,60.0,4,90,4.0,0.0
2580,72.0,1,60,11.0,0.0
2581,76.0,0,60,1.0,0.0
2582,79.0,1,60,1.0,0.0
2583,64.0,3,60,2.0,0.0
2584,67.0,0,60,2.0,0.0
2585,48.0,8,90,5.0,0.0
2586,64.0,1,60,12.0,0.0
2587,55.0,0,60,3.0,0.0
2588,52.0,3,60,3.0,0.0
2589,48.0,2,60,13.0,0.0
2590,36.0,18,60,14.0,0.0
2591,48.0,95,90,15.0,0.0
2592,81.0,3,80,10.0,0.0
2593,93.0,0,85,0.0,0.0
2594,89.0,1,85,0.0,0.0
2595,72.0,1,85,6.0,0.0
2596,60.0,0,85,6.0,0.0
2597,69.0,3,80,11.0,0.0
2598,60.0,0,85,4.0,0.0
2599,77.0,0,85,1.0,0.0
2600,81.0,1,85,1.0,0.0
2601,69.0,0,85,2.0,0.0
2602,65.0,2,85,2.0,0.0
2603,48.0,0,85,5.0,0.0
2604,60.0,1,80,12.0,0.0
2605,57.0,0,85,3.0,0.0
2606,53.0,0,85,3.0,0.0
2607,41.0,2,80,13.0,0.0
2608,29.0,6,80,14.0,0.0
2609,41.0,13,85,15.0,0.0
2610,81.0,3,23,10.0,0.0
2611,89.0,1,25,0.0,0.0
2612,93.0,0,25,0.0,0.0
2613,60.0,0,25,6.0,0.0
2614,72.0,1,25,6.0,0.0
2615,60.0,1,25,4.0,0.0
2616,71.0,0,23,11.0,0.0
2617,81.0,1,25,1.0,0.0
2618,77.0,0,25,1.0,0.0
2619,65.0,0,25,2.0,0.0
2620,69.0,1,25,2.0,0.0
2621,48.0,2,25,5.0,0.0
2622,62.0,1,23,12.0,0.0
2623,57.0,1,25,3.0,0.0
2624,53.0,0,25,3.0,0.0
2625,41.0,2,23,13.0,0.0
2626,29.0,3,23,14.0,0.0
2627,41.0,50,25,15.0,0.0
2628,79.0,1,60,10.0,0.0
2629,91.0,2,60,0.0,0.0
2630,88.0,0,60,0.0,0.0
2631,72.0,0,90,6.0,0.0
2632,60.0,1,90,6.0,0.0
2633,72.0,1,60,11.0,0.0
2634,60.0,4,90,4.0,0.0
2635,79.0,1,60,1.0,0.0
2636,76.0,0,60,1.0,0.0
2637,67.0,0,60,2.0,0.0
2638,64.0,3,60,2.0,0.0
2639,48.0,8,90,5.0,0.0
2640,64.0,1,60,12.0,0.0
2641,55.0,3,60,3.0,0.0
2642,52.0,0,60,3.0,0.0
2643,48.0,2,60,13.0,0.0
2644,36.0,18,60,14.0,0.0
2645,48.0,136,90,15.0,0.0
2646,91.0,3,120,0.0,0.0
2647,79.0,237,120,1.0,0.0
2648,90.0,3,240,0.0,0.0
2649,78.0,117,240,1.0,0.0
2650,91.0,2,120,0.0,0.0
2651,64.0,1,120,11.0,0.0
2652,79.0,116,120,1.0,0.0
2653,55.0,0,1440,3.0,0.0
2654,89.0,2,240,0.0,0.0
2655,62.0,57,120,11.0,0.0
2656,77.0,56,240,1.0,0.0
2657,77.0,3,60,10.0,0.0
2658,72.0,60,60,10.0,0.0
2659,59.0,1,120,11.0,0.0
2660,74.0,1,60,10.0,0.0
2661,76.0,60,60,10.0,0.0
2662,88.0,2,120,0.0,0.0
2663,60.0,1,120,11.0,0.0
2664,76.0,5,120,1.0,0.0
2665,67.0,111,120,3.0,0.0
2666,72.0,1,60,10.0,0.0
2667,86.0,2,240,0.0,0.0
2668,74.0,5,240,1.0,0.0
2669,65.0,51,240,3.0,0.0
2670,74.0,60,60,10.0,0.0
2671,69.0,60,60,10.0,0.0
2672,62.0,1,120,11.0,0.0
2673,71.0,1,60,10.0,0.0
2674,72.0,60,60,10.0,0.0
2675,84.0,2,120,0.0,0.0
2676,64.0,1,120,11.0,0.0
2677,67.0,0,840,4.0,0.0
2678,72.0,1,120,1.0,0.0
2679,79.0,0,120,2.0,0.0
2680,67.0,4,120,2.0,0.0
2681,67.0,2,840,5.0,0.0
2682,64.0,114,120,3.0,0.0
2683,67.0,1,60,10.0,0.0
2684,83.0,2,240,0.0,0.0
2685,71.0,1,240,1.0,0.0
2686,77.0,4,240,2.0,0.0
2687,65.0,0,240,2.0,0.0
2688,62.0,54,240,3.0,0.0
2689,65.0,60,60,11.0,0.0
2690,71.0,1,120,10.0,0.0
2691,60.0,57,60,11.0,0.0
2692,62.0,1,60,11.0,0.0
2693,72.0,1,120,10.0,0.0
2694,84.0,2,120,0.0,0.0
2695,64.0,57,60,11.0,0.0
2696,72.0,1,120,1.0,0.0
2697,76.0,0,120,2.0,0.0
2698,64.0,4,120,2.0,0.0
2699,60.0,114,120,3.0,0.0
2700,60.0,1,60,11.0,0.0
2701,86.0,2,240,0.0,0.0
2702,74.0,1,240,1.0,0.0
2703,74.0,4,240,2.0,0.0
2704,62.0,0,240,2.0,0.0
2705,59.0,54,240,3.0,0.0
2706,62.0,60,60,11.0,0.0
2707,74.0,1,120,10.0,0.0
2708,57.0,57,60,11.0,0.0
2709,59.0,1,60,11.0,0.0
2710,76.0,1,120,10.0,0.0
2711,88.0,2,120,0.0,0.0
2712,84.0,2,360,0.0,0.0
2713,60.0,57,60,11.0,0.0
2714,76.0,3,120,1.0,0.0
2715,72.0,0,115,2.0,0.0
2716,60.0,0,115,2.0,0.0
2717,58.0,111,120,3.0,0.0
2718,55.0,0,120,3.0,0.0
2719,55.0,1,60,11.0,0.0
2720,89.0,4,235,0.0,0.0
2721,69.0,4,120,4.0,0.0
2722,77.0,1,240,1.0,0.0
2723,60.0,4,240,2.0,0.0
2724,72.0,0,240,2.0,0.0
2725,65.0,53,120,5.0,0.0
2726,57.0,51,240,3.0,0.0
2727,53.0,0,240,3.0,0.0
2728,81.0,3,60,10.0,0.0
2729,69.0,0,60,11.0,0.0
2730,76.0,3,60,10.0,0.0
2731,64.0,53,60,11.0,0.0
2732,77.0,1,60,10.0,0.0
2733,65.0,1,60,11.0,0.0
2734,79.0,3,60,10.0,0.0
2735,86.0,2,120,0.0,0.0
2736,89.0,0,120,0.0,0.0
2737,67.0,6,60,11.0,0.0
2738,81.0,1,120,1.0,0.0
2739,69.0,0,120,2.0,0.0
2740,65.0,4,120,2.0,0.0
2741,50.0,0,120,3.0,0.0
2742,65.0,51,60,3.0,0.0
2743,81.0,1,60,10.0,0.0
2744,69.0,1,60,11.0,0.0
2745,62.0,111,60,3.0,0.0
2746,84.0,0,240,0.0,0.0
2747,88.0,2,240,0.0,0.0
2748,79.0,1,240,1.0,0.0
2749,64.0,0,240,2.0,0.0
2750,67.0,4,240,2.0,0.0
2751,55.0,0,240,3.0,0.0
2752,67.0,51,240,3.0,0.0
2753,81.0,3,60,10.0,0.0
2754,69.0,57,60,11.0,0.0
2755,78.0,3,60,10.0,0.0
2756,66.0,57,60,11.0,0.0
2757,79.0,1,60,10.0,0.0
2758,67.0,1,60,11.0,0.0
2759,81.0,3,60,10.0,0.0
2760,86.0,0,115,0.0,0.0
2761,83.0,3,115,0.0,0.0
2762,69.0,53,60,11.0,0.0
2763,77.0,1,115,1.0,0.0
2764,62.0,0,115,2.0,0.0
2765,71.0,0,115,2.0,0.0
2766,43.0,76,115,3.0,0.0
2767,55.0,0,115,3.0,0.0
2768,79.0,3,60,10.0,0.0
2769,67.0,1,60,11.0,0.0
2770,76.0,3,80,10.0,0.0
2771,88.0,1,85,0.0,0.0
2772,84.0,0,85,0.0,0.0
2773,72.0,1,85,6.0,0.0
2774,60.0,0,85,6.0,0.0
2775,60.0,1,85,4.0,0.0
2776,67.0,3,80,11.0,0.0
2777,72.0,1,85,1.0,0.0
2778,76.0,0,85,1.0,0.0
2779,67.0,2,85,2.0,0.0
2780,64.0,0,85,2.0,0.0
2781,48.0,0,85,5.0,0.0
2782,60.0,0,80,12.0,0.0
2783,64.0,0,85,3.0,0.0
2784,60.0,0,85,3.0,0.0
2785,48.0,2,80,13.0,0.0
2786,36.0,6,80,14.0,0.0
2787,48.0,13,85,15.0,0.0
2788,76.0,3,23,10.0,0.0
2789,88.0,0,25,0.0,0.0
2790,84.0,1,25,0.0,0.0
2791,72.0,1,25,6.0,0.0
2792,60.0,0,25,6.0,0.0
2793,67.0,0,23,11.0,0.0
2794,60.0,1,25,4.0,0.0
2795,72.0,0,25,1.0,0.0
2796,76.0,1,25,1.0,0.0
2797,67.0,1,25,2.0,0.0
2798,64.0,0,25,2.0,0.0
2799,48.0,2,25,5.0,0.0
2800,60.0,1,23,12.0,0.0
2801,64.0,0,25,3.0,0.0
2802,60.0,1,25,3.0,0.0
2803,48.0,2,23,13.0,0.0
2804,36.0,3,23,14.0,0.0
2805,48.0,50,25,15.0,0.0
2806,74.0,1,60,10.0,0.0
2807,86.0,0,60,0.0,0.0
2808,83.0,2,60,0.0,0.0
2809,60.0,0,90,6.0,0.0
2810,72.0,1,90,6.0,0.0
2811,68.0,1,60,11.0,0.0
2812,60.0,4,90,4.0,0.0
2813,71.0,1,60,1.0,0.0
2814,74.0,0,60,1.0,0.0
2815,65.0,3,60,2.0,0.0
2816,68.0,0,60,2.0,0.0
2817,48.0,8,90,5.0,0.0
2818,59.0,1,60,12.0,0.0
2819,62.0,3,60,3.0,0.0
2820,59.0,0,60,3.0,0.0
2821,41.0,2,60,13.0,0.0
2822,29.0,18,60,14.0,0.0
2823,41.0,95,90,15.0,0.0
2824,77.0,3,80,10.0,0.0
2825,89.0,0,85,0.0,0.0
2826,86.0,1,85,0.0,0.0
2827,72.0,1,85,6.0,0.0
2828,60.0,0,85,6.0,0.0
2829,68.0,3,80,11.0,0.0
2830,60.0,1,85,4.0,0.0
2831,77.0,1,85,1.0,0.0
2832,74.0,0,85,1.0,0.0
2833,68.0,0,85,2.0,0.0
2834,65.0,2,85,2.0,0.0
2835,48.0,2,85,5.0,0.0
2836,59.0,0,80,12.0,0.0
2837,59.0,0,85,3.0,0.0
2838,62.0,6,85,3.0,0.0
2839,41.0,0,80,13.0,0.0
2840,29.0,0,80,14.0,0.0
2841,41.0,13,85,15.0,0.0
2842,77.0,3,23,10.0,0.0
2843,89.0,0,25,0.0,0.0
2844,86.0,1,25,0.0,0.0
2845,72.0,0,25,6.0,0.0
2846,60.0,1,25,6.0,0.0
2847,68.0,0,23,11.0,0.0
2848,60.0,1,25,4.0,0.0
2849,77.0,1,25,1.0,0.0
2850,74.0,0,25,1.0,0.0
2851,65.0,1,25,2.0,0.0
2852,68.0,0,25,2.0,0.0
2853,48.0,2,25,5.0,0.0
2854,59.0,1,23,12.0,0.0
2855,62.0,1,25,3.0,0.0
2856,59.0,0,25,3.0,0.0
2857,41.0,2,23,13.0,0.0
2858,29.0,3,23,14.0,0.0
2859,41.0,50,25,15.0,0.0
2860,76.0,1,60,10.0,0.0
2861,88.0,2,60,0.0,0.0
2862,84.0,0,60,0.0,0.0
2863,72.0,0,90,6.0,0.0
2864,60.0,1,90,6.0,0.0
2865,67.0,1,60,11.0,0.0
2866,60.0,4,90,4.0,0.0
2867,72.0,0,60,1.0,0.0
2868,76.0,1,60,1.0,0.0
2869,67.0,3,60,2.0,0.0
2870,64.0,0,60,2.0,0.0
2871,48.0,8,90,5.0,0.0
2872,60.0,1,60,12.0,0.0
2873,64.0,0,60,3.0,0.0
2874,60.0,3,60,3.0,0.0
2875,48.0,2,60,13.0,0.0
2876,36.0,18,60,14.0,0.0
2877,48.0,95,90,15.0,0.0
2878,81.0,3,80,10.0,0.0
2879,93.0,1,85,0.0,0.0
2880,89.0,0,85,0.0,0.0
2881,72.0,1,85,6.0,0.0
2882,60.0,0,85,6.0,0.0
2883,69.0,3,80,11.0,0.0
2884,60.0,1,85,4.0,0.0
2885,77.0,1,85,1.0,0.0
2886,81.0,0,85,1.0,0.0
2887,69.0,0,85,2.0,0.0
2888,65.0,2,85,2.0,0.0
2889,48.0,0,85,5.0,0.0
2890,60.0,0,80,12.0,0.0
2891,57.0,6,85,3.0,0.0
2892,53.0,0,85,3.0,0.0
2893,41.0,2,80,13.0,0.0
2894,29.0,0,80,14.0,0.0
2895,41.0,13,85,15.0,0.0
2896,81.0,3,23,10.0,0.0
2897,89.0,1,25,0.0,0.0
2898,93.0,0,25,0.0,0.0
2899,72.0,0,25,6.0,0.0
2900,60.0,1,25,6.0,0.0
2901,60.0,1,25,4.0,0.0
2902,71.0,0,23,11.0,0.0
2903,81.0,0,25,1.0,0.0
2904,77.0,1,25,1.0,0.0
2905,69.0,1,25,2.0,0.0
2906,65.0,0,25,2.0,0.0
2907,48.0,2,25,5.0,0.0
2908,62.0,1,23,12.0,0.0
2909,57.0,1,25,3.0,0.0
2910,53.0,0,25,3.0,0.0
2911,41.0,2,23,13.0,0.0
2912,29.0,3,23,14.0,0.0
2913,41.0,50,25,15.0,0.0
2914,79.0,1,60,10.0,0.0
2915,91.0,0,60,0.0,0.0
2916,88.0,2,60,0.0,0.0
2917,60.0,0,90,6.0,0.0
2918,72.0,1,90,6.0,0.0
2919,60.0,4,90,4.0,0.0
2920,72.0,1,60,11.0,0.0
2921,76.0,1,60,1.0,0.0
2922,79.0,0,60,1.0,0.0
2923,64.0,0,60,2.0,0.0
2924,67.0,3,60,2.0,0.0
2925,48.0,8,90,5.0,0.0
2926,64.0,1,60,12.0,0.0
2927,52.0,3,60,3.0,0.0
2928,55.0,0,60,3.0,0.0
2929,48.0,2,60,13.0,0.0
2930,36.0,18,60,14.0,0.0
2931,48.0,95,90,15.0,0.0
2932,81.0,3,80,10.0,0.0
2933,89.0,0,85,0.0,0.0
2934,93.0,1,85,0.0,0.0
2935,60.0,0,85,6.0,0.0
2936,72.0,1,85,6.0,0.0
2937,69.0,3,80,11.0,0.0
2938,60.0,1,85,4.0,0.0
2939,77.0,0,85,1.0,0.0
2940,81.0,1,85,1.0,0.0
2941,65.0,0,85,2.0,0.0
2942,69.0,2,85,2.0,0.0
2943,48.0,2,85,5.0,0.0
2944,60.0,0,80,12.0,0.0
2945,53.0,0,85,3.0,0.0
2946,57.0,0,85,3.0,0.0
2947,41.0,0,80,13.0,0.0
2948,29.0,6,80,14.0,0.0
2949,41.0,13,85,15.0,0.0
2950,81.0,3,23,10.0,0.0
2951,93.0,0,25,0.0,0.0
2952,89.0,1,25,0.0,0.0
2953,60.0,1,25,6.0,0.0
2954,72.0,0,25,6.0,0.0
2955,71.0,0,23,11.0,0.0
2956,60.0,1,25,4.0,0.0
2957,77.0,1,25,1.0,0.0
2958,81.0,0,25,1.0,0.0
2959,65.0,1,25,2.0,0.0
2960,69.0,0,25,2.0,0.0
2961,48.0,2,25,5.0,0.0
2962,62.0,1,23,12.0,0.0
2963,53.0,1,25,3.0,0.0
2964,57.0,0,25,3.0,0.0
2965,41.0,2,23,13.0,0.0
2966,29.0,3,23,14.0,0.0
2967,41.0,50,25,15.0,0.0
2968,79.0,1,60,10.0,0.0
2969,88.0,2,60,0.0,0.0
2970,91.0,0,60,0.0,0.0
2971,60.0,0,90,6.0,0.0
2972,72.0,1,90,6.0,0.0
2973,60.0,4,90,4.0,0.0
2974,72.0,1,60,11.0,0.0
2975,79.0,0,60,1.0,0.0
2976,76.0,1,60,1.0,0.0
2977,67.0,3,60,2.0,0.0
2978,64.0,0,60,2.0,0.0
2979,48.0,8,90,5.0,0.0
2980,64.0,1,60,12.0,0.0
2981,55.0,0,60,3.0,0.0
2982,52.0,3,60,3.0,0.0
2983,48.0,2,60,13.0,0.0
2984,36.0,18,60,14.0,0.0
2985,48.0,143,90,15.0,0.0
2986,67.0,1,120,12.0,0.0
2987,67.0,3,120,3.0,0.0
2988,67.0,236,120,13.0,0.0
2989,66.0,1,240,12.0,0.0
2990,66.0,3,240,3.0,0.0
2991,66.0,111,240,13.0,0.0
2992,67.0,2,1560,4.0,0.0
2993,76.0,5,120,11.0,0.0
2994,67.0,1,1560,5.0,0.0
2995,67.0,1,120,12.0,0.0
2996,67.0,3,120,3.0,0.0
2997,55.0,0,1560,3.0,0.0
2998,67.0,106,120,13.0,0.0
2999,74.0,2,115,11.0,0.0
3000,65.0,1,240,12.0,0.0
3001,65.0,3,240,3.0,0.0
3002,65.0,48,240,13.0,0.0
3003,86.0,60,60,10.0,0.0
3004,81.0,60,60,10.0,0.0
3005,74.0,5,120,11.0,0.0
3006,83.0,3,60,10.0,0.0
3007,84.0,60,60,10.0,0.0
3008,72.0,2,120,11.0,0.0
3009,79.0,3,120,2.0,0.0
3010,67.0,0,120,2.0,0.0
3011,64.0,1,120,12.0,0.0
3012,64.0,3,120,3.0,0.0
3013,64.0,108,120,13.0,0.0
3014,79.0,3,60,10.0,0.0
3015,65.0,3,240,2.0,0.0
3016,77.0,0,240,2.0,0.0
3017,62.0,1,240,12.0,0.0
3018,62.0,3,240,3.0,0.0
3019,62.0,48,240,13.0,0.0
3020,77.0,60,60,10.0,0.0
3021,72.0,60,60,10.0,0.0
3022,65.0,2,120,11.0,0.0
3023,74.0,3,60,10.0,0.0
3024,76.0,60,60,10.0,0.0
3025,91.0,2,120,0.0,0.0
3026,64.0,1,120,11.0,0.0
3027,79.0,1,120,1.0,0.0
3028,76.0,0,120,2.0,0.0
3029,64.0,3,120,2.0,0.0
3030,60.0,1,120,12.0,0.0
3031,60.0,3,120,3.0,0.0
3032,60.0,111,120,13.0,0.0
3033,72.0,1,60,10.0,0.0
3034,89.0,2,240,0.0,0.0
3035,77.0,1,240,1.0,0.0
3036,74.0,3,240,2.0,0.0
3037,62.0,0,240,2.0,0.0
3038,59.0,1,240,12.0,0.0
3039,59.0,3,240,3.0,0.0
3040,59.0,51,240,13.0,0.0
3041,74.0,60,60,11.0,0.0
3042,74.0,1,120,10.0,0.0
3043,69.0,57,60,11.0,0.0
3044,71.0,1,60,11.0,0.0
3045,76.0,1,120,10.0,0.0
3046,88.0,2,120,0.0,0.0
3047,72.0,57,60,11.0,0.0
3048,76.0,1,120,1.0,0.0
3049,72.0,0,120,2.0,0.0
3050,60.0,3,120,2.0,0.0
3051,60.0,1,120,12.0,0.0
3052,60.0,3,120,3.0,0.0
3053,60.0,111,120,13.0,0.0
3054,67.0,1,60,11.0,0.0
3055,86.0,2,240,0.0,0.0
3056,74.0,1,240,1.0,0.0
3057,71.0,3,240,2.0,0.0
3058,59.0,0,240,2.0,0.0
3059,62.0,1,240,12.0,0.0
3060,62.0,3,240,3.0,0.0
3061,62.0,51,240,13.0,0.0
3062,65.0,60,60,11.0,0.0
3063,77.0,1,120,10.0,0.0
3064,60.0,57,60,11.0,0.0
3065,62.0,1,60,11.0,0.0
3066,79.0,1,120,10.0,0.0
3067,82.0,2,120,0.0,0.0
3068,84.0,3,115,0.0,0.0
3069,64.0,53,60,11.0,0.0
3070,72.0,1,115,1.0,0.0
3071,58.0,0,120,2.0,0.0
3072,70.0,2,120,2.0,0.0
3073,64.0,1,120,12.0,0.0
3074,64.0,3,120,3.0,0.0
3075,64.0,108,120,13.0,0.0
3076,60.0,0,60,11.0,0.0
3077,84.0,0,240,0.0,0.0
3078,81.0,2,240,0.0,0.0
3079,69.0,4,120,4.0,0.0
3080,72.0,1,240,1.0,0.0
3081,69.0,0,240,2.0,0.0
3082,57.0,3,240,2.0,0.0
3083,65.0,53,120,5.0,0.0
3084,65.0,1,240,12.0,0.0
3085,65.0,3,240,3.0,0.0
3086,53.0,0,240,3.0,0.0
3087,65.0,48,240,13.0,0.0
3088,81.0,3,60,10.0,0.0
3089,69.0,0,60,11.0,0.0
3090,76.0,3,60,10.0,0.0
3091,64.0,57,60,11.0,0.0
3092,77.0,1,60,10.0,0.0
3093,65.0,1,60,11.0,0.0
3094,79.0,3,60,10.0,0.0
3095,89.0,2,120,0.0,0.0
3096,86.0,0,120,0.0,0.0
3097,67.0,57,60,11.0,0.0
3098,81.0,1,120,1.0,0.0
3099,69.0,0,120,2.0,0.0
3100,77.0,3,120,2.0,0.0
3101,62.0,1,120,12.0,0.0
3102,50.0,0,120,3.0,0.0
3103,62.0,3,120,3.0,0.0
3104,62.0,108,120,13.0,0.0
3105,81.0,1,60,10.0,0.0
3106,69.0,1,60,11.0,0.0
3107,84.0,0,240,0.0,0.0
3108,88.0,2,240,0.0,0.0
3109,79.0,1,240,1.0,0.0
3110,67.0,3,240,2.0,0.0
3111,76.0,0,240,2.0,0.0
3112,67.0,1,240,12.0,0.0
3113,67.0,0,240,3.0,0.0
3114,67.0,48,240,13.0,0.0
3115,81.0,3,60,10.0,0.0
3116,69.0,57,60,11.0,0.0
3117,78.0,3,60,10.0,0.0
3118,66.0,57,60,11.0,0.0
3119,79.0,1,60,10.0,0.0
3120,67.0,1,60,11.0,0.0
3121,81.0,3,60,10.0,0.0
3122,86.0,0,120,0.0,0.0
3123,83.0,3,120,0.0,0.0
3124,69.0,52,60,11.0,0.0
3125,77.0,1,120,1.0,0.0
3126,74.0,0,120,2.0,0.0
3127,71.0,3,120,2.0,0.0
3128,55.0,1,120,12.0,0.0
3129,55.0,3,0,3.0,0.0
3130,43.0,0,120,3.0,0.0
3131,55.0,56,120,13.0,0.0
3132,83.0,3,55,10.0,0.0
3133,71.0,3,55,11.0,0.0
3134,84.0,3,115,10.0,0.0
3135,76.0,3,120,0.0,0.0
3136,84.0,0,120,0.0,0.0
3137,72.0,3,115,11.0,0.0
3138,76.0,1,120,1.0,0.0
3139,64.0,0,120,2.0,0.0
3140,72.0,3,120,2.0,0.0
3141,60.0,4,60,12.0,0.0
3142,48.0,3,120,3.0,0.0
3143,60.0,0,120,3.0,0.0
3144,60.0,43,60,13.0,0.0
3145,48.0,54,120,14.0,0.0
3146,59.0,1,60,12.0,0.0
3147,59.0,2,60,13.0,0.0
3148,76.0,3,180,10.0,0.0
3149,72.0,5,180,11.0,0.0
3150,60.0,4,60,12.0,0.0
3151,60.0,56,60,13.0,0.0
3152,59.0,4,60,12.0,0.0
3153,59.0,48,60,13.0,0.0
3154,57.0,4,60,12.0,0.0
3155,57.0,43,60,13.0,0.0
3156,77.0,3,55,10.0,0.0
3157,74.0,10,55,11.0,0.0
3158,55.0,4,60,12.0,0.0
3159,55.0,48,60,13.0,0.0
3160,74.0,1,60,10.0,0.0
3161,89.0,2,60,0.0,0.0
3162,71.0,1,60,11.0,0.0
3163,77.0,4,60,1.0,0.0
3164,55.0,1,60,12.0,0.0
3165,65.0,52,60,3.0,0.0
3166,55.0,2,120,13.0,0.0
3167,43.0,47,120,14.0,0.0
3168,88.0,3,60,0.0,0.0
3169,76.0,5,60,1.0,0.0
3170,64.0,3,60,3.0,0.0
3171,77.0,1,180,10.0,0.0
3172,89.0,3,60,0.0,0.0
3173,74.0,1,180,11.0,0.0
3174,77.0,5,60,1.0,0.0
3175,77.0,3,180,2.0,0.0
3176,74.0,0,180,2.0,0.0
3177,62.0,1,180,12.0,0.0
3178,65.0,0,180,12.0,0.0
3179,65.0,52,60,3.0,0.0
3180,88.0,3,60,0.0,0.0
3181,76.0,5,60,1.0,0.0
3182,64.0,51,60,3.0,0.0
3183,86.0,2,60,0.0,0.0
3184,74.0,1,60,1.0,0.0
3185,62.0,46,60,3.0,0.0
3186,79.0,1,55,10.0,0.0
3187,84.0,2,55,0.0,0.0
3188,76.0,1,55,11.0,0.0
3189,72.0,5,55,1.0,0.0
3190,79.0,3,60,2.0,0.0
3191,76.0,0,60,2.0,0.0
3192,67.0,0,60,12.0,0.0
3193,64.0,18,60,12.0,0.0
3194,60.0,1,55,3.0,0.0
3195,76.0,1,60,10.0,0.0
3196,84.0,0,60,0.0,0.0
3197,60.0,1,90,6.0,0.0
3198,72.0,0,90,6.0,0.0
3199,60.0,4,90,4.0,0.0
3200,72.0,5,23,11.0,0.0
3201,72.0,1,60,1.0,0.0
3202,76.0,0,60,2.0,0.0
3203,72.0,4,60,2.0,0.0
3204,48.0,19,90,5.0,0.0
3205,60.0,0,23,12.0,0.0
3206,64.0,25,23,12.0,0.0
3207,60.0,3,60,3.0,0.0
3208,48.0,2,60,13.0,0.0
3209,36.0,12,60,14.0,0.0
3210,48.0,11,120,15.0,0.0
3211,64.0,0,23,11.0,0.0
3212,55.0,4,23,11.0,0.0
3213,64.0,3,23,12.0,0.0
3214,60.0,0,23,12.0,0.0
3215,55.0,5,23,11.0,0.0
3216,64.0,0,23,11.0,0.0
3217,64.0,0,23,12.0,0.0
3218,60.0,1,23,12.0,0.0
3219,47.0,2,60,13.0,0.0
3220,35.0,1,60,14.0,0.0
3221,55.0,0,23,11.0,0.0
3222,64.0,5,23,11.0,0.0
3223,60.0,11,23,12.0,0.0
3224,64.0,0,23,12.0,0.0
3225,88.0,1,180,10.0,0.0
3226,88.0,3,121,0.0,0.0
3227,60.0,0,175,6.0,0.0
3228,72.0,1,175,6.0,0.0
3229,55.0,0,23,11.0,0.0
3230,64.0,5,23,11.0,0.0
3231,60.0,2,175,4.0,0.0
3232,76.0,1,121,1.0,0.0
3233,76.0,4,121,2.0,0.0
3234,48.0,10,175,5.0,0.0
3235,48.0,0,23,12.0,0.0
3236,60.0,25,23,12.0,0.0
3237,64.0,2,121,3.0,0.0
3238,48.0,2,60,13.0,0.0
3239,36.0,12,60,14.0,0.0
3240,64.0,5,23,11.0,0.0
3241,55.0,0,23,11.0,0.0
3242,48.0,0,23,12.0,0.0
3243,60.0,11,23,12.0,0.0
3244,55.0,0,23,11.0,0.0
3245,64.0,5,23,11.0,0.0
3246,60.0,25,23,12.0,0.0
3247,48.0,0,23,12.0,0.0
3248,47.0,2,60,13.0,0.0
3249,35.0,12,60,14.0,0.0
3250,55.0,5,23,11.0,0.0
3251,64.0,0,23,11.0,0.0
3252,60.0,1,23,12.0,0.0
3253,48.0,0,23,12.0,0.0
3254,64.0,0,23,11.0,0.0
3255,55.0,5,23,11.0,0.0
3256,60.0,0,23,12.0,0.0
3257,48.0,25,23,12.0,0.0
3258,45.0,2,60,13.0,0.0
3259,33.0,12,60,14.0,0.0
3260,55.0,1,23,11.0,0.0
3261,64.0,0,23,11.0,0.0
3262,60.0,0,23,12.0,0.0
3263,48.0,1,23,12.0,0.0
3264,84.0,1,55,10.0,0.0
3265,84.0,1,60,0.0,0.0
3266,72.0,0,55,6.0,0.0
3267,60.0,1,55,6.0,0.0
3268,60.0,3,55,4.0,0.0
3269,55.0,5,23,11.0,0.0
3270,64.0,0,23,11.0,0.0
3271,72.0,1,60,1.0,0.0
3272,72.0,4,60,2.0,0.0
3273,48.0,2,55,5.0,0.0
3274,60.0,0,23,12.0,0.0
3275,48.0,24,23,12.0,0.0
3276,60.0,3,60,3.0,0.0
3277,43.0,2,60,13.0,0.0
3278,31.0,9,60,14.0,0.0
3279,55.0,0,23,11.0,0.0
3280,64.0,1,23,11.0,0.0
3281,60.0,0,23,12.0,0.0
3282,48.0,0,23,12.0,0.0
3283,83.0,3,23,10.0,0.0
3284,83.0,0,120,0.0,0.0
3285,79.0,1,120,6.0,0.0
3286,67.0,1,120,4.0,0.0
3287,59.0,5,23,11.0,0.0
3288,71.0,1,120,1.0,0.0
3289,67.0,0,120,2.0,0.0
3290,71.0,2,120,2.0,0.0
3291,67.0,2,120,5.0,0.0
3292,55.0,11,23,12.0,0.0
3293,55.0,0,120,3.0,0.0
3294,59.0,14,120,3.0,0.0
3295,43.0,2,30,13.0,0.0
3296,31.0,9,30,14.0,0.0
3297,83.0,3,23,10.0,0.0
3298,59.0,5,23,11.0,0.0
3299,55.0,22,23,12.0,0.0
3300,89.0,3,23,10.0,0.0
3301,71.0,5,23,11.0,0.0
3302,55.0,11,23,12.0,0.0
3303,50.0,2,30,13.0,0.0
3304,38.0,9,30,14.0,0.0
3305,89.0,3,23,10.0,0.0
3306,71.0,5,23,11.0,0.0
3307,55.0,1,23,12.0,0.0
3308,86.0,3,23,10.0,0.0
3309,71.0,5,23,11.0,0.0
3310,55.0,11,23,12.0,0.0
3311,55.0,2,30,13.0,0.0
3312,43.0,9,30,14.0,0.0
3313,86.0,3,23,10.0,0.0
3314,71.0,5,23,11.0,0.0
3315,55.0,22,23,12.0,0.0
3316,83.0,3,23,10.0,0.0
3317,83.0,0,30,0.0,0.0
3318,71.0,5,23,11.0,0.0
3319,67.0,4,45,4.0,0.0
3320,71.0,1,30,1.0,0.0
3321,79.0,0,30,2.0,0.0
3322,67.0,4,30,2.0,0.0
3323,67.0,1,45,5.0,0.0
3324,55.0,3,23,12.0,0.0
3325,59.0,3,30,3.0,0.0
3326,55.0,0,30,3.0,0.0
3327,55.0,2,30,13.0,0.0
3328,43.0,4,30,14.0,0.0
3329,83.0,3,23,10.0,0.0
3330,71.0,5,23,11.0,0.0
3331,55.0,22,23,12.0,0.0
3332,79.0,3,23,10.0,0.0
3333,84.0,0,30,0.0,0.0
3334,91.0,0,30,0.0,0.0
3335,67.0,4,45,4.0,0.0
3336,72.0,5,23,11.0,0.0
3337,79.0,0,30,1.0,0.0
3338,72.0,1,30,1.0,0.0
3339,67.0,4,30,2.0,0.0
3340,79.0,0,30,2.0,0.0
3341,67.0,1,45,5.0,0.0
3342,57.0,3,23,12.0,0.0
3343,60.0,3,30,3.0,0.0
3344,57.0,0,30,3.0,0.0
3345,57.0,2,30,13.0,0.0
3346,45.0,4,30,14.0,0.0
3347,79.0,3,23,10.0,0.0
3348,72.0,5,23,11.0,0.0
3349,57.0,22,23,12.0,0.0
3350,77.0,3,23,10.0,0.0
3351,86.0,0,30,0.0,0.0
3352,89.0,0,30,0.0,0.0
3353,67.0,4,45,4.0,0.0
3354,74.0,5,23,11.0,0.0
3355,74.0,1,30,1.0,0.0
3356,77.0,0,30,1.0,0.0
3357,65.0,0,30,2.0,0.0
3358,77.0,4,30,2.0,0.0
3359,67.0,1,45,5.0,0.0
3360,59.0,3,23,12.0,0.0
3361,62.0,0,30,3.0,0.0
3362,59.0,3,30,3.0,0.0
3363,59.0,2,30,13.0,0.0
3364,47.0,4,30,14.0,0.0
3365,77.0,3,23,10.0,0.0
3366,74.0,5,23,11.0,0.0
3367,59.0,22,23,12.0,0.0
3368,76.0,3,23,10.0,0.0
3369,88.0,3,60,0.0,0.0
3370,72.0,0,90,6.0,0.0
3371,60.0,1,90,6.0,0.0
3372,60.0,4,90,4.0,0.0
3373,76.0,5,23,11.0,0.0
3374,76.0,1,60,1.0,0.0
3375,76.0,4,60,2.0,0.0
3376,64.0,0,60,2.0,0.0
3377,48.0,5,90,5.0,0.0
3378,60.0,11,23,12.0,0.0
3379,64.0,0,60,3.0,0.0
3380,60.0,14,60,3.0,0.0
3381,60.0,2,30,13.0,0.0
3382,48.0,9,30,14.0,0.0
3383,48.0,8,120,15.0,0.0
3384,76.0,3,23,10.0,0.0
3385,76.0,5,23,11.0,0.0
3386,60.0,0,23,12.0,0.0
3387,88.0,3,23,10.0,0.0
3388,88.0,5,23,11.0,0.0
3389,48.0,1,23,12.0,0.0
3390,48.0,2,30,13.0,0.0
3391,36.0,9,30,14.0,0.0
3392,88.0,3,23,10.0,0.0
3393,88.0,5,23,11.0,0.0
3394,48.0,14,23,12.0,0.0
3395,84.0,3,23,10.0,0.0
3396,84.0,5,23,11.0,0.0
3397,52.0,11,23,12.0,0.0
3398,52.0,2,30,13.0,0.0
3399,40.0,9,30,14.0,0.0
3400,84.0,3,23,10.0,0.0
3401,84.0,5,23,11.0,0.0
3402,52.0,22,23,12.0,0.0
3403,79.0,3,23,10.0,0.0
3404,79.0,0,30,0.0,0.0
3405,91.0,0,30,0.0,0.0
3406,60.0,4,45,4.0,0.0
3407,79.0,5,23,11.0,0.0
3408,76.0,0,30,1.0,0.0
3409,79.0,1,30,1.0,0.0
3410,72.0,0,30,2.0,0.0
3411,64.0,4,30,2.0,0.0
3412,48.0,1,45,5.0,0.0
3413,55.0,3,23,12.0,0.0
3414,64.0,3,30,3.0,0.0
3415,60.0,0,30,3.0,0.0
3416,55.0,2,30,13.0,0.0
3417,43.0,4,30,14.0,0.0
3418,79.0,3,23,10.0,0.0
3419,79.0,5,23,11.0,0.0
3420,55.0,22,23,12.0,0.0
3421,76.0,3,23,10.0,0.0
3422,88.0,0,30,0.0,0.0
3423,79.0,3,30,0.0,0.0
3424,76.0,5,23,11.0,0.0
3425,60.0,4,45,4.0,0.0
3426,76.0,1,30,1.0,0.0
3427,72.0,4,30,2.0,0.0
3428,64.0,0,30,2.0,0.0
3429,48.0,1,45,5.0,0.0
3430,60.0,0,23,12.0,0.0
3431,64.0,0,30,3.0,0.0
3432,60.0,3,30,3.0,0.0
3433,60.0,2,30,13.0,0.0
3434,48.0,4,30,14.0,0.0
3435,76.0,3,23,10.0,0.0
3436,76.0,5,23,11.0,0.0
3437,60.0,22,23,12.0,0.0
3438,72.0,3,23,10.0,0.0
3439,84.0,3,30,0.0,0.0
3440,79.0,0,30,0.0,0.0
3441,60.0,4,45,4.0,0.0
3442,72.0,5,23,11.0,0.0
3443,72.0,1,30,1.0,0.0
3444,64.0,0,30,2.0,0.0
3445,72.0,4,30,2.0,0.0
3446,48.0,1,45,5.0,0.0
3447,64.0,0,23,12.0,0.0
3448,60.0,3,30,3.0,0.0
3449,48.0,0,30,3.0,0.0
3450,64.0,2,30,13.0,0.0
3451,52.0,4,30,14.0,0.0
3452,72.0,3,23,10.0,0.0
3453,72.0,5,23,11.0,0.0
3454,64.0,22,23,12.0,0.0
3455,71.0,3,23,10.0,0.0
3456,79.0,0,60,0.0,0.0
3457,83.0,0,60,0.0,0.0
3458,79.0,1,90,6.0,0.0
3459,67.0,4,90,4.0,0.0
3460,71.0,5,23,11.0,0.0
3461,71.0,1,60,1.0,0.0
3462,65.0,4,60,2.0,0.0
3463,71.0,0,60,2.0,0.0
3464,67.0,5,90,5.0,0.0
3465,55.0,11,23,12.0,0.0
3466,59.0,0,60,3.0,0.0
3467,55.0,14,60,3.0,0.0
3468,43.0,2,30,13.0,0.0
3469,31.0,9,30,14.0,0.0
3470,71.0,3,23,10.0,0.0
3471,71.0,5,23,11.0,0.0
3472,55.0,3,23,12.0,0.0
3473,77.0,3,23,10.0,0.0
3474,77.0,5,23,11.0,0.0
3475,55.0,1,23,12.0,0.0
3476,50.0,2,30,13.0,0.0
3477,38.0,9,30,14.0,0.0
3478,77.0,3,23,10.0,0.0
3479,77.0,5,23,11.0,0.0
3480,55.0,22,23,12.0,0.0
3481,74.0,3,23,10.0,0.0
3482,74.0,5,23,11.0,0.0
3483,55.0,11,23,12.0,0.0
3484,55.0,2,30,13.0,0.0
3485,43.0,9,30,14.0,0.0
3486,74.0,3,23,10.0,0.0
3487,74.0,5,23,11.0,0.0
3488,55.0,22,23,12.0,0.0
3489,71.0,3,23,10.0,0.0
3490,83.0,0,30,0.0,0.0
3491,71.0,5,23,11.0,0.0
3492,67.0,4,45,4.0,0.0
3493,71.0,1,30,1.0,0.0
3494,79.0,4,30,2.0,0.0
3495,67.0,0,30,2.0,0.0
3496,67.0,1,45,5.0,0.0
3497,55.0,3,23,12.0,0.0
3498,59.0,3,30,3.0,0.0
3499,55.0,0,30,3.0,0.0
3500,55.0,2,30,13.0,0.0
3501,43.0,4,30,14.0,0.0
3502,71.0,3,23,10.0,0.0
3503,71.0,5,23,11.0,0.0
3504,55.0,22,23,12.0,0.0
3505,67.0,3,23,10.0,0.0
3506,91.0,3,30,0.0,0.0
3507,84.0,0,30,0.0,0.0
3508,67.0,5,23,11.0,0.0
3509,67.0,4,45,4.0,0.0
3510,72.0,1,30,1.0,0.0
3511,79.0,0,30,1.0,0.0
3512,67.0,0,30,2.0,0.0
3513,79.0,4,30,2.0,0.0
3514,67.0,1,45,5.0,0.0
3515,57.0,0,23,12.0,0.0
3516,60.0,3,30,3.0,0.0
3517,57.0,0,30,3.0,0.0
3518,57.0,2,30,13.0,0.0
3519,45.0,4,30,14.0,0.0
3520,67.0,3,23,10.0,0.0
3521,67.0,5,23,11.0,0.0
3522,57.0,22,23,12.0,0.0
3523,65.0,3,23,10.0,0.0
3524,89.0,0,30,0.0,0.0
3525,86.0,0,30,0.0,0.0
3526,67.0,4,45,4.0,0.0
3527,65.0,5,23,11.0,0.0
3528,74.0,0,30,1.0,0.0
3529,77.0,1,30,1.0,0.0
3530,65.0,4,30,2.0,0.0
3531,77.0,0,30,2.0,0.0
3532,67.0,1,45,5.0,0.0
3533,59.0,3,23,12.0,0.0
3534,59.0,0,30,3.0,0.0
3535,62.0,3,30,3.0,0.0
3536,59.0,2,30,13.0,0.0
3537,47.0,4,30,14.0,0.0
3538,65.0,3,23,10.0,0.0
3539,65.0,5,23,11.0,0.0
3540,59.0,22,23,12.0,0.0
3541,64.0,3,23,10.0,0.0
3542,88.0,0,1440,0.0,0.0
3543,60.0,1,1440,6.0,0.0
3544,72.0,0,1440,6.0,0.0
3545,64.0,5,23,11.0,0.0
3546,67.0,1,1440,4.0,0.0
3547,76.0,1,1440,1.0,0.0
3548,84.0,0,1440,1.0,0.0
3549,76.0,0,1440,2.0,0.0
3550,72.0,2,1440,2.0,0.0
3551,60.0,2,1440,5.0,0.0
3552,60.0,11,23,12.0,0.0
3553,60.0,0,1440,3.0,0.0
3554,64.0,6,1440,3.0,0.0
3555,60.0,2,30,13.0,0.0
3556,48.0,1,30,14.0,0.0
3557,64.0,3,23,10.0,0.0
3558,64.0,5,23,11.0,0.0
3559,60.0,14,23,12.0,0.0
3560,48.0,8,0,15.0,0.0
3561,55.0,3,23,10.0,0.0
3562,55.0,5,23,11.0,0.0
3563,67.0,11,23,12.0,0.0
3564,67.0,2,30,13.0,0.0
3565,55.0,1,30,14.0,0.0
3566,55.0,3,23,10.0,0.0
3567,55.0,5,23,11.0,0.0
3568,67.0,14,23,12.0,0.0
3569,48.0,8,0,15.0,0.0
3570,60.0,3,23,10.0,0.0
3571,60.0,5,23,11.0,0.0
3572,64.0,11,23,12.0,0.0
3573,64.0,2,30,13.0,0.0
3574,52.0,1,30,14.0,0.0
3575,48.0,8,0,15.0,0.0
3576,60.0,3,23,10.0,0.0
3577,60.0,5,23,11.0,0.0
3578,64.0,14,23,12.0,0.0
3579,48.0,8,0,15.0,0.0
3580,64.0,3,23,10.0,0.0
3581,64.0,5,23,11.0,0.0
3582,72.0,11,23,12.0,0.0
3583,60.0,2,30,13.0,0.0
3584,48.0,1,30,14.0,0.0
3585,64.0,3,23,10.0,0.0
3586,64.0,5,23,11.0,0.0
3587,72.0,14,23,12.0,0.0
3588,48.0,8,0,15.0,0.0
3589,67.0,3,23,10.0,0.0
3590,67.0,5,23,11.0,0.0
3591,67.0,11,23,12.0,0.0
3592,55.0,2,30,13.0,0.0
3593,43.0,1,30,14.0,0.0
3594,48.0,8,0,15.0,0.0
3595,67.0,3,23,10.0,0.0
3596,67.0,5,23,11.0,0.0
3597,67.0,14,23,12.0,0.0
3598,60.0,3,23,10.0,0.0
3599,60.0,5,23,11.0,0.0
3600,76.0,11,23,12.0,0.0
3601,64.0,2,30,13.0,0.0
3602,52.0,1,30,14.0,0.0
3603,48.0,8,0,15.0,0.0
3604,60.0,3,23,10.0,0.0
3605,60.0,5,23,11.0,0.0
3606,76.0,14,23,12.0,0.0
3607,48.0,8,30,15.0,0.0
3608,64.0,3,23,10.0,0.0
3609,64.0,5,23,11.0,0.0
3610,72.0,11,23,12.0,0.0
3611,60.0,2,30,13.0,0.0
3612,48.0,1,30,14.0,0.0
3613,64.0,3,23,10.0,0.0
3614,64.0,5,23,11.0,0.0
3615,72.0,14,23,12.0,0.0
3616,48.0,8,0,15.0,0.0
3617,67.0,3,23,10.0,0.0
3618,67.0,5,23,11.0,0.0
3619,67.0,11,23,12.0,0.0
3620,55.0,2,30,13.0,0.0
3621,43.0,1,30,14.0,0.0
3622,48.0,8,0,15.0,0.0
3623,67.0,3,23,10.0,0.0
3624,67.0,5,23,11.0,0.0
3625,67.0,14,23,12.0,0.0
3626,72.0,3,23,10.0,0.0
3627,72.0,5,23,11.0,0.0
3628,64.0,11,23,12.0,0.0
3629,52.0,2,30,13.0,0.0
3630,40.0,1,30,14.0,0.0
3631,48.0,8,0,15.0,0.0
3632,72.0,3,23,10.0,0.0
3633,72.0,5,23,11.0,0.0
3634,64.0,14,23,12.0,0.0
3635,48.0,8,0,15.0,0.0
3636,64.0,3,23,10.0,0.0
3637,64.0,5,23,11.0,0.0
3638,72.0,11,23,12.0,0.0
3639,60.0,2,30,13.0,0.0
3640,48.0,1,30,14.0,0.0
3641,48.0,8,0,15.0,0.0
3642,64.0,3,23,10.0,0.0
3643,64.0,5,23,11.0,0.0
3644,72.0,14,23,12.0,0.0
3645,48.0,8,0,15.0,0.0
3646,67.0,3,23,10.0,0.0
3647,67.0,5,23,11.0,0.0
3648,67.0,11,23,12.0,0.0
3649,55.0,2,30,13.0,0.0
3650,43.0,1,30,14.0,0.0
3651,48.0,8,0,15.0,0.0
3652,67.0,3,23,10.0,0.0
3653,67.0,5,23,11.0,0.0
3654,67.0,14,23,12.0,0.0
3655,48.0,8,0,15.0,0.0
3656,72.0,3,23,10.0,0.0
3657,72.0,5,23,11.0,0.0
3658,64.0,11,23,12.0,0.0
3659,52.0,2,30,13.0,0.0
3660,40.0,1,30,14.0,0.0
3661,72.0,3,23,10.0,0.0
3662,72.0,5,23,11.0,0.0
3663,64.0,14,23,12.0,0.0
3664,48.0,8,0,15.0,0.0
3665,76.0,3,23,10.0,0.0
3666,76.0,5,23,11.0,0.0
3667,60.0,11,23,12.0,0.0
3668,48.0,2,30,13.0,0.0
3669,36.0,1,30,14.0,0.0
3670,48.0,8,0,15.0,0.0
3671,76.0,3,23,10.0,0.0
3672,76.0,5,23,11.0,0.0
3673,60.0,14,23,12.0,0.0
3674,48.0,8,30,15.0,0.0
3675,67.0,3,23,10.0,0.0
3676,67.0,5,23,11.0,0.0
3677,67.0,11,23,12.0,0.0
3678,55.0,2,30,13.0,0.0
3679,43.0,1,30,14.0,0.0
3680,48.0,8,30,15.0,0.0
3681,67.0,3,23,10.0,0.0
3682,67.0,5,23,11.0,0.0
3683,67.0,14,23,12.0,0.0
3684,72.0,3,23,10.0,0.0
3685,72.0,5,23,11.0,0.0
3686,64.0,11,23,12.0,0.0
3687,52.0,2,30,13.0,0.0
3688,40.0,1,30,14.0,0.0
3689,48.0,8,0,15.0,0.0
3690,72.0,3,23,10.0,0.0
3691,72.0,5,23,11.0,0.0
3692,64.0,14,23,12.0,0.0
3693,48.0,8,30,15.0,0.0
3694,76.0,3,23,10.0,0.0
3695,76.0,5,23,11.0,0.0
3696,60.0,11,23,12.0,0.0
3697,48.0,2,30,13.0,0.0
3698,36.0,1,30,14.0,0.0
3699,48.0,8,30,15.0,0.0
3700,76.0,3,23,10.0,0.0
3701,76.0,5,23,11.0,0.0
3702,60.0,14,23,12.0,0.0
3703,48.0,8,30,15.0,0.0
3704,79.0,3,23,10.0,0.0
3705,79.0,5,23,11.0,0.0
3706,55.0,11,23,12.0,0.0
3707,31.0,2,30,13.0,0.0
3708,31.0,1,30,14.0,0.0
3709,48.0,8,30,15.0,0.0
3710,79.0,3,23,10.0,0.0
3711,79.0,5,23,11.0,0.0
3712,55.0,14,23,12.0,0.0
3713,48.0,8,30,15.0,0.0
3714,72.0,3,23,10.0,0.0
3715,72.0,5,23,11.0,0.0
3716,64.0,11,23,12.0,0.0
3717,52.0,2,30,13.0,0.0
3718,52.0,1,30,14.0,0.0
3719,48.0,8,30,15.0,0.0
3720,72.0,3,23,10.0,0.0
3721,72.0,5,23,11.0,0.0
3722,64.0,14,23,12.0,0.0
3723,48.0,8,30,15.0,0.0
3724,76.0,3,23,10.0,0.0
3725,76.0,5,23,11.0,0.0
3726,60.0,11,23,12.0,0.0
3727,48.0,2,30,13.0,0.0
3728,48.0,1,30,14.0,0.0
3729,48.0,8,30,15.0,0.0
3730,76.0,3,23,10.0,0.0
3731,76.0,5,23,11.0,0.0
3732,60.0,14,23,12.0,0.0
3733,48.0,8,30,15.0,0.0
3734,79.0,3,23,10.0,0.0
3735,79.0,5,23,11.0,0.0
3736,55.0,11,23,12.0,0.0
3737,43.0,2,30,13.0,0.0
3738,43.0,1,30,14.0,0.0
3739,48.0,8,30,15.0,0.0
3740,79.0,3,23,10.0,0.0
3741,79.0,5,23,11.0,0.0
3742,55.0,14,23,12.0,0.0
3743,48.0,8,30,15.0,0.0
3744,84.0,3,23,10.0,0.0
3745,84.0,5,23,11.0,0.0
3746,52.0,11,23,12.0,0.0
3747,40.0,2,30,13.0,0.0
3748,40.0,1,30,14.0,0.0
3749,48.0,8,30,15.0,0.0
3750,84.0,3,23,10.0,0.0
3751,84.0,5,23,11.0,0.0
3752,52.0,14,23,12.0,0.0
3753,48.0,8,30,15.0,0.0
3754,72.0,3,23,10.0,0.0
3755,72.0,5,23,11.0,0.0
3756,60.0,11,23,12.0,0.0
3757,48.0,2,30,13.0,0.0
3758,48.0,1,30,14.0,0.0
3759,72.0,3,23,10.0,0.0
3760,72.0,5,23,11.0,0.0
3761,60.0,14,23,12.0,0.0
3762,48.0,8,0,15.0,0.0
3763,76.0,3,23,10.0,0.0
3764,76.0,5,23,11.0,0.0
3765,55.0,11,23,12.0,0.0
3766,43.0,2,30,13.0,0.0
3767,43.0,1,30,14.0,0.0
3768,48.0,8,0,15.0,0.0
3769,76.0,3,23,10.0,0.0
3770,76.0,5,23,11.0,0.0
3771,55.0,14,23,12.0,0.0
3772,79.0,3,23,10.0,0.0
3773,79.0,5,23,11.0,0.0
3774,52.0,11,23,12.0,0.0
3775,40.0,2,30,13.0,0.0
3776,40.0,1,30,14.0,0.0
3777,48.0,8,0,15.0,0.0
3778,79.0,3,23,10.0,0.0
3779,79.0,5,23,11.0,0.0
3780,52.0,1,23,12.0,0.0
3781,48.0,105,30,15.0,0.0
3782,84.0,1,120,10.0,0.0
3783,84.0,1,120,0.0,0.0
3784,60.0,0,120,6.0,0.0
3785,72.0,1,120,6.0,0.0
3786,60.0,0,120,4.0,0.0
3787,84.0,1,120,11.0,0.0
3788,84.0,1,120,1.0,0.0
3789,72.0,0,120,1.0,0.0
3790,72.0,2,120,2.0,0.0
3791,48.0,1,120,5.0,0.0
3792,48.0,1,120,12.0,0.0
3793,48.0,3,120,3.0,0.0
3794,60.0,0,120,3.0,0.0
3795,36.0,2,120,13.0,0.0
3796,36.0,1,120,14.0,0.0
3797,48.0,75,120,15.0,0.0
3798,84.0,3,30,10.0,0.0
3799,84.0,5,30,11.0,0.0
3800,60.0,4,30,12.0,0.0
3801,48.0,2,30,13.0,0.0
3802,48.0,46,30,14.0,0.0
3803,72.0,3,30,10.0,0.0
3804,72.0,5,30,11.0,0.0
3805,48.0,4,30,12.0,0.0
3806,36.0,2,30,13.0,0.0
3807,36.0,46,30,14.0,0.0
3808,84.0,3,30,10.0,0.0
3809,84.0,5,30,11.0,0.0
3810,60.0,4,30,12.0,0.0
3811,48.0,2,30,13.0,0.0
3812,48.0,136,30,14.0,0.0
3813,72.0,1,120,10.0,0.0
3814,84.0,1,120,0.0,0.0
3815,60.0,0,120,6.0,0.0
3816,72.0,1,120,6.0,0.0
3817,72.0,0,120,11.0,0.0
3818,60.0,1,120,4.0,0.0
3819,72.0,1,120,1.0,0.0
3820,84.0,0,120,1.0,0.0
3821,72.0,0,120,2.0,0.0
3822,60.0,2,120,2.0,0.0
3823,48.0,1,120,5.0,0.0
3824,48.0,1,120,12.0,0.0
3825,60.0,3,120,3.0,0.0
3826,48.0,0,120,3.0,0.0
3827,36.0,2,120,13.0,0.0
3828,36.0,1,120,14.0,0.0
3829,48.0,75,120,15.0,0.0
3830,84.0,3,30,10.0,0.0
3831,84.0,5,30,11.0,0.0
3832,60.0,4,30,12.0,0.0
3833,48.0,2,30,13.0,0.0
3834,48.0,46,30,14.0,0.0
3835,72.0,3,30,10.0,0.0
3836,72.0,5,30,11.0,0.0
3837,48.0,4,30,12.0,0.0
3838,36.0,2,30,13.0,0.0
3839,36.0,46,30,14.0,0.0
3840,84.0,3,30,10.0,0.0
3841,84.0,5,30,11.0,0.0
3842,60.0,4,30,12.0,0.0
3843,48.0,2,30,13.0,0.0
3844,48.0,136,30,14.0,0.0
3845,72.0,1,120,10.0,0.0
3846,84.0,1,120,0.0,0.0
3847,60.0,1,120,6.0,0.0
3848,72.0,0,120,6.0,0.0
3849,60.0,1,120,4.0,0.0
3850,72.0,0,120,11.0,0.0
3851,84.0,1,120,1.0,0.0
3852,72.0,0,120,1.0,0.0
3853,72.0,0,120,2.0,0.0
3854,60.0,2,120,2.0,0.0
3855,48.0,1,120,5.0,0.0
3856,48.0,1,120,12.0,0.0
3857,60.0,0,120,3.0,0.0
3858,48.0,3,120,3.0,0.0
3859,36.0,2,120,13.0,0.0
3860,36.0,1,120,14.0,0.0
3861,48.0,75,120,15.0,0.0
3862,84.0,3,30,10.0,0.0
3863,84.0,5,30,11.0,0.0
3864,60.0,4,30,12.0,0.0
3865,48.0,2,30,13.0,0.0
3866,48.0,46,30,14.0,0.0
3867,72.0,3,30,10.0,0.0
3868,72.0,5,30,11.0,0.0
3869,48.0,4,30,12.0,0.0
3870,36.0,2,30,13.0,0.0
3871,36.0,46,30,14.0,0.0
3872,84.0,3,30,10.0,0.0
3873,84.0,5,30,11.0,0.0
3874,60.0,4,30,12.0,0.0
3875,48.0,2,30,13.0,0.0
3876,48.0,136,30,14.0,0.0
3877,72.0,1,120,10.0,0.0
3878,84.0,1,120,0.0,0.0
3879,60.0,0,120,6.0,0.0
3880,72.0,1,120,6.0,0.0
3881,60.0,0,120,4.0,0.0
3882,72.0,1,120,11.0,0.0
3883,84.0,0,120,1.0,0.0
3884,72.0,1,120,1.0,0.0
3885,60.0,0,120,2.0,0.0
3886,72.0,2,120,2.0,0.0
3887,48.0,1,120,5.0,0.0
3888,48.0,1,120,12.0,0.0
3889,48.0,0,120,3.0,0.0
3890,60.0,3,120,3.0,0.0
3891,36.0,2,120,13.0,0.0
3892,36.0,1,120,14.0,0.0
3893,48.0,75,120,15.0,0.0
3894,84.0,3,30,10.0,0.0
3895,84.0,1,55,0.0,0.0
3896,88.0,0,55,0.0,0.0
3897,60.0,1,55,6.0,0.0
3898,72.0,0,55,6.0,0.0
3899,84.0,5,30,11.0,0.0
3900,60.0,1,55,4.0,0.0
3901,79.0,1,55,1.0,0.0
3902,82.0,0,55,1.0,0.0
3903,70.0,2,55,2.0,0.0
3904,79.0,0,55,2.0,0.0
3905,48.0,2,55,5.0,0.0
3906,60.0,4,30,12.0,0.0
3907,58.0,6,55,3.0,0.0
3908,55.0,0,55,3.0,0.0
3909,48.0,2,30,13.0,0.0
3910,48.0,12,30,14.0,0.0
3911,48.0,20,55,15.0,0.0
3912,72.0,3,30,10.0,0.0
3913,88.0,0,55,0.0,0.0
3914,84.0,1,55,0.0,0.0
3915,60.0,1,55,6.0,0.0
3916,72.0,0,55,6.0,0.0
3917,72.0,5,30,11.0,0.0
3918,60.0,1,55,4.0,0.0
3919,82.0,0,55,1.0,0.0
3920,79.0,1,55,1.0,0.0
3921,70.0,0,55,2.0,0.0
3922,79.0,2,55,2.0,0.0
3923,48.0,2,55,5.0,0.0
3924,48.0,4,30,12.0,0.0
3925,58.0,0,55,3.0,0.0
3926,55.0,6,55,3.0,0.0
3927,36.0,2,30,13.0,0.0
3928,36.0,12,30,14.0,0.0
3929,48.0,20,55,15.0,0.0
3930,84.0,3,30,10.0,0.0
3931,84.0,0,55,0.0,0.0
3932,88.0,1,55,0.0,0.0
3933,72.0,0,55,6.0,0.0
3934,60.0,1,55,6.0,0.0
3935,60.0,1,55,4.0,0.0
3936,84.0,5,30,11.0,0.0
3937,82.0,0,55,1.0,0.0
3938,79.0,1,55,1.0,0.0
3939,79.0,0,55,2.0,0.0
3940,70.0,2,55,2.0,0.0
3941,48.0,2,55,5.0,0.0
3942,60.0,4,30,12.0,0.0
3943,55.0,0,55,3.0,0.0
3944,58.0,6,55,3.0,0.0
3945,48.0,2,30,13.0,0.0
3946,48.0,12,30,14.0,0.0
3947,48.0,110,55,15.0,0.0
3948,84.0,3,120,10.0,0.0
3949,69.0,0,240,10.0,0.0
3950,84.0,0,600,0.0,0.0
3951,89.0,1,600,0.0,0.0
3952,84.0,12,120,11.0,0.0
3953,60.0,1,600,4.0,0.0
3954,69.0,27,240,11.0,0.0
3955,81.0,1,600,1.0,0.0
3956,77.0,0,600,1.0,0.0
3957,77.0,2,600,2.0,0.0
3958,48.0,1,600,5.0,0.0
3959,53.0,1,600,12.0,0.0
3960,60.0,0,600,3.0,0.0
3961,41.0,2,600,13.0,0.0
3962,41.0,45,120,15.0,0.0
3963,81.0,3,60,10.0,0.0
3964,81.0,57,60,11.0,0.0
3965,82.0,3,60,10.0,0.0
3966,82.0,0,60,11.0,0.0
3967,84.0,3,30,10.0,0.0
3968,84.0,57,30,11.0,0.0
3969,81.0,3,30,10.0,0.0
3970,81.0,267,30,11.0,0.0
3971,77.0,1,240,10.0,0.0
3972,77.0,0,240,11.0,0.0
3973,72.0,1,30,10.0,0.0
3974,84.0,2,30,0.0,0.0
3975,60.0,1,0,6.0,0.0
3976,72.0,0,0,6.0,0.0
3977,60.0,4,45,4.0,0.0
3978,72.0,1,30,11.0,0.0
3979,72.0,1,30,1.0,0.0
3980,81.0,0,30,1.0,0.0
3981,69.0,0,0,2.0,0.0
3982,72.0,3,30,2.0,0.0
3983,48.0,23,45,5.0,0.0
3984,57.0,1,30,12.0,0.0
3985,53.0,0,30,3.0,0.0
3986,57.0,3,0,3.0,0.0
3987,41.0,2,30,13.0,0.0
3988,29.0,16,0,14.0,0.0
3989,41.0,15,60,15.0,0.0
3990,77.0,1,30,10.0,0.0
3991,84.0,0,30,0.0,0.0
3992,89.0,2,30,0.0,0.0
3993,60.0,1,45,6.0,0.0
3994,72.0,0,45,6.0,0.0
3995,60.0,4,45,4.0,0.0
3996,77.0,1,30,11.0,0.0
3997,77.0,1,30,1.0,0.0
3998,81.0,0,30,1.0,0.0
3999,69.0,3,30,2.0,0.0
4000,77.0,0,30,2.0,0.0
4001,48.0,23,45,5.0,0.0
4002,57.0,1,30,12.0,0.0
4003,53.0,0,30,3.0,0.0
4004,57.0,3,30,3.0,0.0
4005,41.0,2,30,13.0,0.0
4006,29.0,3,30,14.0,0.0
4007,41.0,45,60,15.0,0.0
4008,77.0,1,60,10.0,0.0
4009,84.0,1,120,0.0,0.0
4010,89.0,2,60,0.0,0.0
4011,77.0,0,60,11.0,0.0
4012,60.0,0,120,4.0,0.0
4013,77.0,1,60,1.0,0.0
4014,70.0,0,120,2.0,0.0
4015,77.0,2,60,2.0,0.0
4016,58.0,1,55,12.0,0.0
4017,55.0,0,120,3.0,0.0
4018,43.0,2,55,13.0,0.0
4019,31.0,51,55,14.0,0.0
4020,88.0,0,60,0.0,0.0
4021,76.0,1,60,11.0,0.0
4022,76.0,2,60,2.0,0.0
4023,70.0,0,55,12.0,0.0
4024,43.0,0,55,13.0,0.0
4025,31.0,6,55,14.0,0.0
4026,76.0,1,0,10.0,0.0
4027,84.0,2,30,0.0,0.0
4028,88.0,0,30,0.0,0.0
4029,72.0,1,0,6.0,0.0
4030,60.0,0,0,6.0,0.0
4031,60.0,4,45,4.0,0.0
4032,64.0,1,30,11.0,0.0
4033,76.0,1,0,1.0,0.0
4034,82.0,0,0,1.0,0.0
4035,72.0,3,30,2.0,0.0
4036,64.0,0,30,2.0,0.0
4037,48.0,2,0,5.0,0.0
4038,58.0,1,30,12.0,0.0
4039,58.0,0,0,3.0,0.0
4040,55.0,3,30,3.0,0.0
4041,43.0,2,30,13.0,0.0
4042,31.0,3,30,14.0,0.0
4043,48.0,15,0,15.0,0.0
4044,77.0,1,30,10.0,0.0
4045,89.0,0,30,0.0,0.0
4046,84.0,2,30,0.0,0.0
4047,60.0,1,45,6.0,0.0
4048,72.0,0,45,6.0,0.0
4049,60.0,4,45,4.0,0.0
4050,65.0,1,30,11.0,0.0
4051,77.0,1,30,1.0,0.0
4052,65.0,0,30,2.0,0.0
4053,74.0,3,30,2.0,0.0
4054,48.0,23,45,5.0,0.0
4055,57.0,1,30,12.0,0.0
4056,53.0,3,30,3.0,0.0
4057,57.0,0,30,3.0,0.0
4058,53.0,2,30,13.0,0.0
4059,41.0,3,30,14.0,0.0
4060,79.0,1,30,10.0,0.0
4061,84.0,2,30,0.0,0.0
4062,91.0,0,30,0.0,0.0
4063,72.0,0,45,6.0,0.0
4064,60.0,1,45,6.0,0.0
4065,60.0,4,45,4.0,0.0
4066,67.0,1,30,11.0,0.0
4067,79.0,1,30,1.0,0.0
4068,76.0,3,30,2.0,0.0
4069,67.0,0,30,2.0,0.0
4070,48.0,23,45,5.0,0.0
4071,55.0,1,30,12.0,0.0
4072,52.0,0,30,3.0,0.0
4073,55.0,3,30,3.0,0.0
4074,52.0,2,30,13.0,0.0
4075,40.0,3,30,14.0,0.0
4076,48.0,15,0,15.0,0.0
4077,81.0,1,30,10.0,0.0
4078,84.0,2,30,0.0,0.0
4079,89.0,0,30,0.0,0.0
4080,72.0,1,45,6.0,0.0
4081,60.0,0,45,6.0,0.0
4082,69.0,1,30,11.0,0.0
4083,60.0,4,45,4.0,0.0
4084,81.0,1,30,1.0,0.0
4085,77.0,3,30,2.0,0.0
4086,69.0,0,30,2.0,0.0
4087,48.0,23,45,5.0,0.0
4088,53.0,1,30,12.0,0.0
4089,53.0,3,30,3.0,0.0
4090,50.0,0,30,3.0,0.0
4091,50.0,2,30,13.0,0.0
4092,38.0,3,30,14.0,0.0
4093,48.0,15,0,15.0,0.0
4094,82.0,1,120,10.0,0.0
4095,88.0,1,120,0.0,0.0
4096,84.0,0,120,0.0,0.0
4097,60.0,0,120,6.0,0.0
4098,72.0,1,120,6.0,0.0
4099,60.0,1,120,4.0,0.0
4100,70.0,0,120,11.0,0.0
4101,82.0,1,120,1.0,0.0
4102,79.0,0,120,1.0,0.0
4103,70.0,2,120,2.0,0.0
4104,79.0,0,120,2.0,0.0
4105,48.0,1,120,5.0,0.0
4106,52.0,1,120,12.0,0.0
4107,48.0,0,120,3.0,0.0
4108,52.0,3,120,3.0,0.0
4109,48.0,2,120,13.0,0.0
4110,36.0,1,120,14.0,0.0
4111,48.0,105,0,15.0,0.0
4112,64.0,2,595,2.0,0.0
4113,70.0,60,120,2.0,0.0
4114,48.0,0,595,3.0,0.0
4115,55.0,1,595,3.0,0.0
4116,67.0,60,60,2.0,0.0
4117,69.0,60,60,2.0,0.0
4118,70.0,60,60,2.0,0.0
4119,71.0,233,60,2.0,0.0
4120,67.0,2,235,4.0,0.0
4121,76.0,1,355,1.0,0.0
4122,72.0,113,240,2.0,0.0
4123,60.0,2,235,5.0,0.0
4124,67.0,1,115,4.0,0.0
4125,70.0,2,115,2.0,0.0
4126,64.0,0,115,2.0,0.0
4127,60.0,2,115,5.0,0.0
4128,55.0,0,115,3.0,0.0
4129,48.0,61,115,3.0,0.0
4130,69.0,2,120,4.0,0.0
4131,77.0,4,115,1.0,0.0
4132,69.0,54,60,2.0,0.0
4133,65.0,2,120,2.0,0.0
4134,65.0,2,120,5.0,0.0
4135,57.0,0,120,3.0,0.0
4136,72.0,0,60,2.0,0.0
4137,65.0,1,120,4.0,0.0
4138,72.0,1,120,1.0,0.0
4139,77.0,0,120,1.0,0.0
4140,65.0,2,120,2.0,0.0
4141,60.0,0,120,2.0,0.0
4142,57.0,2,120,5.0,0.0
4143,53.0,114,0,3.0,0.0
4144,45.0,109,120,3.0,0.0
4145,67.0,1,115,4.0,0.0
4146,76.0,1,115,1.0,0.0
4147,79.0,0,115,1.0,0.0
4148,64.0,2,115,2.0,0.0
4149,67.0,0,115,2.0,0.0
4150,60.0,2,115,5.0,0.0
4151,48.0,0,115,3.0,0.0
4152,55.0,237,115,3.0,0.0
4153,67.0,1,240,4.0,0.0
4154,76.0,0,240,1.0,0.0
4155,79.0,1,240,1.0,0.0
4156,64.0,0,240,2.0,0.0
4157,67.0,2,240,2.0,0.0
4158,60.0,2,240,5.0,0.0
4159,55.0,0,240,3.0,0.0
4160,48.0,112,240,3.0,0.0
4161,88.0,2,120,0.0,0.0
4162,89.0,2,120,0.0,0.0
4163,69.0,1,120,4.0,0.0
4164,77.0,1,120,1.0,0.0
4165,81.0,0,120,1.0,0.0
4166,69.0,0,120,2.0,0.0
4167,65.0,2,120,2.0,0.0
4168,65.0,2,120,5.0,0.0
4169,53.0,0,120,3.0,0.0
4170,57.0,111,120,3.0,0.0
4171,82.0,3,120,10.0,0.0
4172,70.0,57,120,11.0,0.0
4173,48.0,0,300,12.0,0.0
4174,60.0,4,300,12.0,0.0
4175,48.0,2,300,13.0,0.0
4176,36.0,6,300,14.0,0.0
4177,79.0,3,60,10.0,0.0
4178,67.0,52,60,11.0,0.0
4179,81.0,3,55,10.0,0.0
4180,69.0,32,55,11.0,0.0
4181,82.0,3,30,10.0,0.0
4182,70.0,35,30,11.0,0.0
4183,83.0,3,20,10.0,0.0
4184,71.0,8,20,11.0,0.0
4185,50.0,11,23,12.0,0.0
4186,50.0,2,30,13.0,0.0
4187,38.0,17,30,14.0,0.0
4188,50.0,30,23,12.0,0.0
4189,84.0,3,235,10.0,0.0
4190,91.0,0,360,0.0,0.0
4191,84.0,0,360,0.0,0.0
4192,72.0,1,360,6.0,0.0
4193,72.0,2,235,11.0,0.0
4194,60.0,1,360,4.0,0.0
4195,79.0,3,360,1.0,0.0
4196,82.0,0,360,1.0,0.0
4197,84.0,1,235,2.0,0.0
4198,72.0,0,235,2.0,0.0
4199,51.0,8,23,12.0,0.0
4200,55.0,3,30,3.0,0.0
4201,51.0,2,30,13.0,0.0
4202,39.0,17,30,14.0,0.0
4203,48.0,16,120,15.0,0.0
4204,51.0,30,23,12.0,0.0
4205,52.0,8,23,12.0,0.0
4206,55.0,3,30,3.0,0.0
4207,52.0,2,30,13.0,0.0
4208,40.0,17,30,14.0,0.0
4209,52.0,14,23,12.0,0.0
4210,53.0,8,23,12.0,0.0
4211,57.0,3,30,3.0,0.0
4212,53.0,2,30,13.0,0.0
4213,41.0,17,30,14.0,0.0
4214,53.0,30,23,12.0,0.0
4215,55.0,8,23,12.0,0.0
4216,58.0,3,30,3.0,0.0
4217,55.0,2,30,13.0,0.0
4218,43.0,11,30,14.0,0.0
4219,55.0,30,23,12.0,0.0
4220,82.0,3,115,10.0,0.0
4221,70.0,2,115,11.0,0.0
4222,82.0,0,115,2.0,0.0
4223,70.0,1,115,2.0,0.0
4224,57.0,8,23,12.0,0.0
4225,60.0,3,30,3.0,0.0
4226,57.0,2,30,13.0,0.0
4227,45.0,17,30,14.0,0.0
4228,57.0,30,23,12.0,0.0
4229,58.0,8,23,12.0,0.0
4230,62.0,3,30,3.0,0.0
4231,58.0,2,30,13.0,0.0
4232,46.0,11,30,14.0,0.0
4233,58.0,1,23,12.0,0.0
4234,81.0,3,30,10.0,0.0
4235,89.0,1,60,0.0,0.0
4236,84.0,0,60,0.0,0.0
4237,60.0,0,0,6.0,0.0
4238,72.0,1,60,6.0,0.0
4239,69.0,5,30,11.0,0.0
4240,60.0,0,60,4.0,0.0
4241,77.0,0,60,1.0,0.0
4242,81.0,1,60,1.0,0.0
4243,81.0,0,60,2.0,0.0
4244,69.0,2,60,2.0,0.0
4245,48.0,23,0,5.0,0.0
4246,60.0,22,30,12.0,0.0
4247,57.0,0,60,3.0,0.0
4248,53.0,3,60,3.0,0.0
4249,60.0,2,60,13.0,0.0
4250,48.0,1,60,14.0,0.0
4251,48.0,105,60,15.0,0.0
4252,84.0,1,30,10.0,0.0
4253,72.0,1,30,11.0,0.0
4254,65.0,1,30,12.0,0.0
4255,77.0,1,60,10.0,0.0
4256,89.0,1,60,0.0,0.0
4257,84.0,0,60,0.0,0.0
4258,72.0,1,60,6.0,0.0
4259,60.0,0,60,6.0,0.0
4260,65.0,0,60,11.0,0.0
4261,65.0,1,60,4.0,0.0
4262,81.0,0,60,1.0,0.0
4263,77.0,1,60,1.0,0.0
4264,77.0,0,60,2.0,0.0
4265,69.0,2,60,2.0,0.0
4266,57.0,1,60,5.0,0.0
4267,57.0,0,60,12.0,0.0
4268,48.0,1,60,12.0,0.0
4269,57.0,3,60,3.0,0.0
4270,53.0,0,60,3.0,0.0
4271,48.0,2,60,13.0,0.0
4272,36.0,1,60,14.0,0.0
4273,48.0,75,60,15.0,0.0
4274,81.0,3,30,10.0,0.0
4275,84.0,1,60,0.0,0.0
4276,91.0,0,60,0.0,0.0
4277,60.0,1,60,6.0,0.0
4278,72.0,0,60,6.0,0.0
4279,67.0,1,60,4.0,0.0
4280,69.0,27,30,11.0,0.0
4281,82.0,1,60,1.0,0.0
4282,79.0,0,60,1.0,0.0
4283,79.0,2,60,2.0,0.0
4284,70.0,0,60,2.0,0.0
4285,60.0,1,60,5.0,0.0
4286,48.0,1,60,12.0,0.0
4287,58.0,0,60,12.0,0.0
4288,58.0,0,60,3.0,0.0
4289,55.0,3,60,3.0,0.0
4290,48.0,2,60,13.0,0.0
4291,36.0,1,60,14.0,0.0
4292,48.0,71,60,15.0,0.0
4293,79.0,1,30,10.0,0.0
4294,67.0,0,30,11.0,0.0
4295,77.0,11,345,10.0,0.0
4296,89.0,0,120,0.0,0.0
4297,84.0,1,120,0.0,0.0
4298,65.0,1,120,6.0,0.0
4299,65.0,5,23,11.0,0.0
4300,65.0,1,120,4.0,0.0
4301,81.0,1,120,1.0,0.0
4302,77.0,0,120,1.0,0.0
4303,69.0,2,120,2.0,0.0
4304,77.0,0,120,2.0,0.0
4305,57.0,2,120,5.0,0.0
4306,57.0,25,23,12.0,0.0
4307,57.0,0,120,3.0,0.0
4308,53.0,6,120,3.0,0.0
4309,53.0,2,415,13.0,0.0
4310,41.0,17,415,14.0,0.0
4311,41.0,11,120,15.0,0.0
4312,65.0,5,23,11.0,0.0
4313,57.0,25,23,12.0,0.0
4314,69.0,5,23,11.0,0.0
4315,60.0,25,23,12.0,0.0
4316,69.0,5,23,11.0,0.0
4317,60.0,0,23,12.0,0.0
4318,65.0,5,23,11.0,0.0
4319,57.0,25,23,12.0,0.0
4320,65.0,5,23,11.0,0.0
4321,57.0,25,23,12.0,0.0
4322,69.0,5,23,11.0,0.0
4323,60.0,25,23,12.0,0.0
4324,69.0,5,23,11.0,0.0
4325,60.0,25,23,12.0,0.0
4326,65.0,5,23,11.0,0.0
4327,57.0,25,23,12.0,0.0
4328,65.0,5,23,11.0,0.0
4329,57.0,25,23,12.0,0.0
4330,69.0,5,23,11.0,0.0
4331,60.0,14,23,12.0,0.0
4332,69.0,5,23,11.0,0.0
4333,60.0,25,23,12.0,0.0
4334,81.0,11,315,10.0,0.0
4335,65.0,5,23,11.0,0.0
4336,57.0,25,23,12.0,0.0
4337,65.0,5,23,11.0,0.0
4338,57.0,6,23,12.0,0.0
4339,69.0,5,23,11.0,0.0
4340,60.0,25,23,12.0,0.0
4341,53.0,2,55,13.0,0.0
4342,41.0,17,55,14.0,0.0
4343,69.0,5,23,11.0,0.0
4344,60.0,6,23,12.0,0.0
4345,65.0,5,23,11.0,0.0
4346,57.0,25,23,12.0,0.0
4347,53.0,2,55,13.0,0.0
4348,41.0,17,55,14.0,0.0
4349,65.0,5,23,11.0,0.0
4350,57.0,6,23,12.0,0.0
4351,69.0,5,23,11.0,0.0
4352,60.0,25,23,12.0,0.0
4353,53.0,2,55,13.0,0.0
4354,41.0,17,55,14.0,0.0
4355,69.0,5,23,11.0,0.0
4356,60.0,6,23,12.0,0.0
4357,65.0,5,23,11.0,0.0
4358,57.0,25,23,12.0,0.0
4359,53.0,2,55,13.0,0.0
4360,41.0,6,55,14.0,0.0
4361,65.0,5,23,11.0,0.0
4362,57.0,6,23,12.0,0.0
4363,69.0,5,23,11.0,0.0
4364,60.0,22,23,12.0,0.0
4365,53.0,0,55,13.0,0.0
4366,41.0,6,55,14.0,0.0
4367,77.0,3,23,10.0,0.0
4368,89.0,1,30,0.0,0.0
4369,84.0,0,30,0.0,0.0
4370,77.0,0,30,6.0,0.0
4371,65.0,1,30,6.0,0.0
4372,69.0,5,23,11.0,0.0
4373,81.0,0,30,1.0,0.0
4374,77.0,1,30,1.0,0.0
4375,69.0,0,30,2.0,0.0
4376,72.0,2,30,2.0,0.0
4377,60.0,0,23,12.0,0.0
4378,53.0,0,30,3.0,0.0
4379,57.0,0,30,3.0,0.0
4380,77.0,11,345,10.0,0.0
4381,86.0,0,120,0.0,0.0
4382,89.0,0,120,0.0,0.0
4383,65.0,1,120,6.0,0.0
4384,77.0,0,120,6.0,0.0
4385,65.0,1,0,4.0,0.0
4386,65.0,5,23,11.0,0.0
4387,82.0,0,120,1.0,0.0
4388,77.0,1,120,1.0,0.0
4389,70.0,2,120,2.0,0.0
4390,74.0,0,120,2.0,0.0
4391,53.0,2,0,5.0,0.0
4392,58.0,25,23,12.0,0.0
4393,50.0,0,120,3.0,0.0
4394,62.0,6,120,3.0,0.0
4395,50.0,2,415,13.0,0.0
4396,38.0,17,415,14.0,0.0
4397,41.0,11,0,15.0,0.0
4398,65.0,5,23,11.0,0.0
4399,58.0,25,23,12.0,0.0
4400,70.0,5,23,11.0,0.0
4401,62.0,25,23,12.0,0.0
4402,70.0,5,23,11.0,0.0
4403,62.0,1,23,12.0,0.0
4404,65.0,5,23,11.0,0.0
4405,58.0,25,23,12.0,0.0
4406,65.0,5,23,11.0,0.0
4407,58.0,25,23,12.0,0.0
4408,70.0,5,23,11.0,0.0
4409,62.0,25,23,12.0,0.0
4410,70.0,5,23,11.0,0.0
4411,62.0,25,23,12.0,0.0
4412,65.0,5,23,11.0,0.0
4413,58.0,25,23,12.0,0.0
4414,65.0,5,23,11.0,0.0
4415,58.0,25,23,12.0,0.0
4416,70.0,5,23,11.0,0.0
4417,62.0,14,23,12.0,0.0
4418,70.0,5,23,11.0,0.0
4419,62.0,25,23,12.0,0.0
4420,82.0,11,315,10.0,0.0
4421,65.0,5,23,11.0,0.0
4422,58.0,25,23,12.0,0.0
4423,65.0,5,23,11.0,0.0
4424,58.0,6,23,12.0,0.0
4425,70.0,5,23,11.0,0.0
4426,62.0,25,23,12.0,0.0
4427,50.0,2,55,13.0,0.0
4428,38.0,17,55,14.0,0.0
4429,70.0,5,23,11.0,0.0
4430,62.0,6,23,12.0,0.0
4431,65.0,5,23,11.0,0.0
4432,58.0,25,23,12.0,0.0
4433,50.0,2,55,13.0,0.0
4434,38.0,17,55,14.0,0.0
4435,65.0,5,23,11.0,0.0
4436,58.0,6,23,12.0,0.0
4437,70.0,5,23,11.0,0.0
4438,62.0,25,23,12.0,0.0
4439,50.0,2,55,13.0,0.0
4440,38.0,17,55,14.0,0.0
4441,70.0,5,23,11.0,0.0
4442,62.0,6,23,12.0,0.0
4443,65.0,5,23,11.0,0.0
4444,58.0,25,23,12.0,0.0
4445,50.0,2,55,13.0,0.0
4446,38.0,6,55,14.0,0.0
4447,65.0,5,23,11.0,0.0
4448,58.0,6,23,12.0,0.0
4449,70.0,5,23,11.0,0.0
4450,62.0,22,23,12.0,0.0
4451,50.0,2,55,13.0,0.0
4452,38.0,0,55,14.0,0.0
4453,77.0,3,23,10.0,0.0
4454,65.0,1,30,6.0,0.0
4455,77.0,0,30,6.0,0.0
4456,70.0,5,23,11.0,0.0
4457,65.0,1,30,4.0,0.0
4458,82.0,1,30,1.0,0.0
4459,77.0,0,30,1.0,0.0
4460,70.0,2,30,2.0,0.0
4461,74.0,0,30,2.0,0.0
4462,53.0,0,30,5.0,0.0
4463,62.0,0,23,12.0,0.0
4464,62.0,0,30,3.0,0.0
4465,50.0,6,30,3.0,0.0
4466,77.0,11,345,10.0,0.0
4467,86.0,0,0,0.0,0.0
4468,89.0,1,0,0.0,0.0
4469,77.0,1,120,6.0,0.0
4470,65.0,0,120,6.0,0.0
4471,65.0,5,23,11.0,0.0
4472,67.0,1,120,4.0,0.0
4473,79.0,1,120,1.0,0.0
4474,77.0,0,120,1.0,0.0
4475,74.0,0,120,2.0,0.0
4476,67.0,2,120,2.0,0.0
4477,65.0,2,120,5.0,0.0
4478,55.0,25,23,12.0,0.0
4479,46.0,6,120,3.0,0.0
4480,58.0,0,120,3.0,0.0
4481,46.0,2,415,13.0,0.0
4482,34.0,17,415,14.0,0.0
4483,41.0,11,0,15.0,0.0
4484,65.0,5,23,11.0,0.0
4485,55.0,25,23,12.0,0.0
4486,67.0,5,23,11.0,0.0
4487,62.0,25,23,12.0,0.0
4488,67.0,5,23,11.0,0.0
4489,62.0,1,23,12.0,0.0
4490,65.0,5,23,11.0,0.0
4491,55.0,25,23,12.0,0.0
4492,65.0,5,23,11.0,0.0
4493,55.0,25,23,12.0,0.0
4494,67.0,5,23,11.0,0.0
4495,62.0,25,23,12.0,0.0
4496,67.0,5,23,11.0,0.0
4497,62.0,25,23,12.0,0.0
4498,65.0,5,23,11.0,0.0
4499,55.0,25,23,12.0,0.0
4500,65.0,5,23,11.0,0.0
4501,55.0,25,23,12.0,0.0
4502,67.0,5,23,11.0,0.0
4503,62.0,14,23,12.0,0.0
4504,67.0,5,23,11.0,0.0
4505,62.0,25,23,12.0,0.0
4506,86.0,11,315,10.0,0.0
4507,65.0,5,23,11.0,0.0
4508,55.0,25,23,12.0,0.0
4509,65.0,5,23,11.0,0.0
4510,55.0,6,23,12.0,0.0
4511,67.0,5,23,11.0,0.0
4512,62.0,25,23,12.0,0.0
4513,46.0,2,55,13.0,0.0
4514,34.0,17,55,14.0,0.0
4515,67.0,5,23,11.0,0.0
4516,62.0,6,23,12.0,0.0
4517,65.0,5,23,11.0,0.0
4518,55.0,25,23,12.0,0.0
4519,46.0,2,55,13.0,0.0
4520,34.0,17,55,14.0,0.0
4521,65.0,5,23,11.0,0.0
4522,55.0,6,23,12.0,0.0
4523,67.0,5,23,11.0,0.0
4524,62.0,25,23,12.0,0.0
4525,46.0,2,55,13.0,0.0
4526,34.0,17,55,14.0,0.0
4527,67.0,5,23,11.0,0.0
4528,62.0,6,23,12.0,0.0
4529,65.0,5,23,11.0,0.0
4530,55.0,25,23,12.0,0.0
4531,46.0,2,55,13.0,0.0
4532,34.0,6,55,14.0,0.0
4533,65.0,5,23,11.0,0.0
4534,55.0,6,23,12.0,0.0
4535,67.0,5,23,11.0,0.0
4536,62.0,22,23,12.0,0.0
4537,46.0,2,55,13.0,0.0
4538,34.0,0,55,14.0,0.0
4539,77.0,3,23,10.0,0.0
4540,89.0,0,30,0.0,0.0
4541,86.0,0,30,0.0,0.0
4542,77.0,1,30,6.0,0.0
4543,65.0,0,30,6.0,0.0
4544,67.0,1,30,4.0,0.0
4545,67.0,5,23,11.0,0.0
4546,77.0,1,30,1.0,0.0
4547,67.0,0,30,2.0,0.0
4548,74.0,2,30,2.0,0.0
4549,65.0,0,30,5.0,0.0
4550,62.0,1,23,12.0,0.0
4551,46.0,0,30,3.0,0.0
4552,58.0,6,30,3.0,0.0
4553,41.0,11,30,15.0,0.0
4554,76.0,11,225,10.0,0.0
4555,88.0,0,240,0.0,0.0
4556,84.0,0,240,0.0,0.0
4557,67.0,5,23,11.0,0.0
4558,79.0,0,0,1.0,0.0
4559,70.0,0,240,2.0,0.0
4560,67.0,2,240,2.0,0.0
4561,64.0,25,23,12.0,0.0
4562,58.0,0,240,3.0,0.0
4563,48.0,0,235,13.0,0.0
4564,36.0,0,235,14.0,0.0
4565,48.0,11,120,15.0,0.0
4566,67.0,5,23,11.0,0.0
4567,64.0,25,23,12.0,0.0
4568,72.0,5,23,11.0,0.0
4569,60.0,25,23,12.0,0.0
4570,72.0,5,23,11.0,0.0
4571,60.0,14,23,12.0,0.0
4572,64.0,5,23,11.0,0.0
4573,55.0,25,23,12.0,0.0
4574,64.0,5,23,11.0,0.0
4575,55.0,25,23,12.0,0.0
4576,67.0,5,23,11.0,0.0
4577,60.0,14,23,12.0,0.0
4578,67.0,5,23,11.0,0.0
4579,60.0,1,23,12.0,0.0
4580,84.0,1,60,10.0,0.0
4581,88.0,1,60,0.0,0.0
4582,84.0,0,60,0.0,0.0
4583,72.0,1,0,6.0,0.0
4584,60.0,0,0,6.0,0.0
4585,72.0,5,23,11.0,0.0
4586,67.0,1,0,4.0,0.0
4587,76.0,1,0,1.0,0.0
4588,79.0,1,60,1.0,0.0
4589,67.0,0,60,2.0,0.0
4590,70.0,2,60,2.0,0.0
4591,60.0,2,0,5.0,0.0
4592,55.0,25,23,12.0,0.0
4593,58.0,0,60,3.0,0.0
4594,55.0,17,0,3.0,0.0
4595,48.0,2,60,13.0,0.0
4596,36.0,1,60,14.0,0.0
4597,48.0,11,60,15.0,0.0
4598,72.0,4,23,11.0,0.0
4599,55.0,0,23,12.0,0.0
4600,67.0,5,23,11.0,0.0
4601,52.0,25,23,12.0,0.0
4602,67.0,5,23,11.0,0.0
4603,52.0,25,23,12.0,0.0
4604,72.0,1,60,10.0,0.0
4605,88.0,1,60,0.0,0.0
4606,84.0,0,60,0.0,0.0
4607,60.0,1,60,6.0,0.0
4608,72.0,0,60,6.0,0.0
4609,64.0,5,23,11.0,0.0
4610,67.0,1,60,4.0,0.0
4611,79.0,1,60,1.0,0.0
4612,76.0,0,60,1.0,0.0
4613,70.0,2,60,2.0,0.0
4614,67.0,0,60,2.0,0.0
4615,60.0,2,60,5.0,0.0
4616,58.0,25,23,12.0,0.0
4617,58.0,3,60,3.0,0.0
4618,55.0,0,60,3.0,0.0
4619,48.0,2,60,13.0,0.0
4620,36.0,1,60,14.0,0.0
4621,48.0,11,60,15.0,0.0
4622,64.0,4,23,11.0,0.0
4623,58.0,0,23,12.0,0.0
4624,67.0,5,23,11.0,0.0
4625,55.0,25,23,12.0,0.0
4626,67.0,5,23,11.0,0.0
4627,55.0,25,23,12.0,0.0
4628,82.0,1,60,10.0,0.0
4629,88.0,1,60,0.0,0.0
4630,84.0,0,60,0.0,0.0
4631,60.0,1,60,6.0,0.0
4632,72.0,0,60,6.0,0.0
4633,67.0,1,60,4.0,0.0
4634,60.0,5,23,11.0,0.0
4635,79.0,0,60,1.0,0.0
4636,82.0,1,60,1.0,0.0
4637,67.0,2,60,2.0,0.0
4638,70.0,0,60,2.0,0.0
4639,60.0,2,60,5.0,0.0
4640,52.0,25,23,12.0,0.0
4641,58.0,0,60,3.0,0.0
4642,55.0,3,60,3.0,0.0
4643,48.0,2,60,13.0,0.0
4644,36.0,1,60,14.0,0.0
4645,48.0,11,60,15.0,0.0
4646,60.0,4,23,11.0,0.0
4647,52.0,0,23,12.0,0.0
4648,64.0,5,23,11.0,0.0
4649,55.0,25,23,12.0,0.0
4650,64.0,5,23,11.0,0.0
4651,55.0,25,23,12.0,0.0
4652,79.0,1,60,10.0,0.0
4653,84.0,0,60,0.0,0.0
4654,88.0,1,60,0.0,0.0
4655,60.0,1,60,6.0,0.0
4656,72.0,0,60,6.0,0.0
4657,67.0,1,60,4.0,0.0
4658,67.0,5,23,11.0,0.0
4659,79.0,1,60,1.0,0.0
4660,76.0,0,60,1.0,0.0
4661,67.0,2,60,2.0,0.0
4662,64.0,0,60,2.0,0.0
4663,60.0,2,60,5.0,0.0
4664,58.0,25,23,12.0,0.0
4665,55.0,0,60,3.0,0.0
4666,52.0,3,60,3.0,0.0
4667,48.0,2,60,13.0,0.0
4668,36.0,1,60,14.0,0.0
4669,48.0,11,60,15.0,0.0
4670,67.0,4,23,11.0,0.0
4671,58.0,0,23,12.0,0.0
4672,64.0,5,23,11.0,0.0
4673,55.0,25,23,12.0,0.0
4674,64.0,5,23,11.0,0.0
4675,55.0,25,23,12.0,0.0
4676,77.0,0,345,10.0,0.0
4677,84.0,1,680,0.0,0.0
4678,89.0,0,680,0.0,0.0
4679,77.0,1,680,6.0,0.0
4680,65.0,0,680,6.0,0.0
4681,65.0,1,680,4.0,0.0
4682,65.0,5,23,11.0,0.0
4683,81.0,1,680,1.0,0.0
4684,77.0,0,680,1.0,0.0
4685,65.0,1,680,2.0,0.0
4686,69.0,0,680,2.0,0.0
4687,53.0,2,680,5.0,0.0
4688,57.0,14,23,12.0,0.0
4689,57.0,2,680,3.0,0.0
4690,53.0,0,680,3.0,0.0
4691,53.0,2,415,13.0,0.0
4692,41.0,17,415,14.0,0.0
4693,41.0,11,30,15.0,0.0
4694,65.0,5,23,11.0,0.0
4695,57.0,14,23,12.0,0.0
4696,41.0,11,30,15.0,0.0
4697,69.0,5,23,11.0,0.0
4698,60.0,14,23,12.0,0.0
4699,69.0,5,23,11.0,0.0
4700,60.0,14,23,12.0,0.0
4701,41.0,11,0,15.0,0.0
4702,65.0,5,23,11.0,0.0
4703,57.0,14,23,12.0,0.0
4704,65.0,5,23,11.0,0.0
4705,57.0,14,23,12.0,0.0
4706,41.0,11,0,15.0,0.0
4707,69.0,5,23,11.0,0.0
4708,60.0,14,23,12.0,0.0
4709,41.0,11,0,15.0,0.0
4710,69.0,5,23,11.0,0.0
4711,60.0,14,23,12.0,0.0
4712,41.0,11,0,15.0,0.0
4713,65.0,5,23,11.0,0.0
4714,57.0,14,23,12.0,0.0
4715,41.0,11,0,15.0,0.0
4716,65.0,5,23,11.0,0.0
4717,57.0,14,23,12.0,0.0
4718,41.0,11,30,15.0,0.0
4719,69.0,5,23,11.0,0.0
4720,60.0,14,23,12.0,0.0
4721,41.0,11,30,15.0,0.0
4722,69.0,5,23,11.0,0.0
4723,60.0,14,23,12.0,0.0
4724,81.0,6,315,10.0,0.0
4725,65.0,5,23,11.0,0.0
4726,57.0,25,23,12.0,0.0
4727,41.0,11,0,15.0,0.0
4728,65.0,5,23,11.0,0.0
4729,57.0,6,23,12.0,0.0
4730,69.0,5,23,11.0,0.0
4731,60.0,25,23,12.0,0.0
4732,53.0,2,55,13.0,0.0
4733,41.0,6,55,14.0,0.0
4734,69.0,5,23,11.0,0.0
4735,60.0,6,23,12.0,0.0
4736,65.0,5,23,11.0,0.0
4737,57.0,25,23,12.0,0.0
4738,53.0,2,55,13.0,0.0
4739,41.0,17,55,14.0,0.0
4740,65.0,5,23,11.0,0.0
4741,57.0,6,23,12.0,0.0
4742,69.0,5,23,11.0,0.0
4743,60.0,25,23,12.0,0.0
4744,53.0,2,55,13.0,0.0
4745,41.0,17,55,14.0,0.0
4746,69.0,5,23,11.0,0.0
4747,60.0,6,23,12.0,0.0
4748,65.0,5,23,11.0,0.0
4749,57.0,25,23,12.0,0.0
4750,53.0,2,55,13.0,0.0
4751,41.0,6,55,14.0,0.0
4752,65.0,5,23,11.0,0.0
4753,57.0,6,23,12.0,0.0
4754,69.0,1,23,11.0,0.0
4755,60.0,20,23,12.0,0.0
4756,53.0,2,55,13.0,0.0
4757,41.0,6,55,14.0,0.0
4758,77.0,0,23,10.0,0.0
4759,89.0,0,20,0.0,0.0
4760,84.0,1,20,0.0,0.0
4761,77.0,0,20,6.0,0.0
4762,65.0,1,20,6.0,0.0
4763,65.0,1,20,4.0,0.0
4764,69.0,1,23,11.0,0.0
4765,77.0,1,20,1.0,0.0
4766,81.0,0,20,1.0,0.0
4767,65.0,0,20,2.0,0.0
4768,69.0,1,20,2.0,0.0
4769,53.0,2,20,5.0,0.0
4770,60.0,6,23,12.0,0.0
4771,57.0,0,20,3.0,0.0
4772,53.0,2,20,3.0,0.0
4773,41.0,11,30,15.0,0.0
4774,77.0,11,345,10.0,0.0
4775,86.0,1,680,0.0,0.0
4776,89.0,0,680,0.0,0.0
4777,65.0,0,680,6.0,0.0
4778,77.0,1,680,6.0,0.0
4779,65.0,1,680,4.0,0.0
4780,65.0,5,23,11.0,0.0
4781,82.0,0,680,1.0,0.0
4782,77.0,1,680,1.0,0.0
4783,65.0,0,680,2.0,0.0
4784,70.0,1,680,2.0,0.0
4785,53.0,2,680,5.0,0.0
4786,58.0,14,23,12.0,0.0
4787,58.0,2,680,3.0,0.0
4788,50.0,0,680,3.0,0.0
4789,50.0,2,415,13.0,0.0
4790,38.0,17,415,14.0,0.0
4791,41.0,11,30,15.0,0.0
4792,65.0,5,23,11.0,0.0
4793,58.0,14,23,12.0,0.0
4794,41.0,11,30,15.0,0.0
4795,70.0,5,23,11.0,0.0
4796,62.0,14,23,12.0,0.0
4797,41.0,11,30,15.0,0.0
4798,70.0,5,23,11.0,0.0
4799,62.0,14,23,12.0,0.0
4800,41.0,11,30,15.0,0.0
4801,65.0,5,23,11.0,0.0
4802,58.0,14,23,12.0,0.0
4803,41.0,11,30,15.0,0.0
4804,65.0,5,23,11.0,0.0
4805,58.0,14,23,12.0,0.0
4806,70.0,5,23,11.0,0.0
4807,62.0,14,23,12.0,0.0
4808,41.0,11,0,15.0,0.0
4809,70.0,5,23,11.0,0.0
4810,62.0,14,23,12.0,0.0
4811,41.0,11,0,15.0,0.0
4812,65.0,5,23,11.0,0.0
4813,58.0,14,23,12.0,0.0
4814,41.0,11,0,15.0,0.0
4815,65.0,5,23,11.0,0.0
4816,58.0,14,23,12.0,0.0
4817,41.0,11,0,15.0,0.0
4818,70.0,5,23,11.0,0.0
4819,62.0,14,23,12.0,0.0
4820,41.0,0,30,15.0,0.0
4821,70.0,5,23,11.0,0.0
4822,62.0,14,23,12.0,0.0
4823,82.0,6,315,10.0,0.0
4824,65.0,5,23,11.0,0.0
4825,58.0,25,23,12.0,0.0
4826,41.0,11,0,15.0,0.0
4827,65.0,5,23,11.0,0.0
4828,58.0,6,23,12.0,0.0
4829,70.0,5,23,11.0,0.0
4830,62.0,25,23,12.0,0.0
4831,50.0,2,55,13.0,0.0
4832,38.0,6,55,14.0,0.0
4833,70.0,5,23,11.0,0.0
4834,62.0,6,23,12.0,0.0
4835,65.0,5,23,11.0,0.0
4836,58.0,25,23,12.0,0.0
4837,50.0,2,55,13.0,0.0
4838,38.0,17,55,14.0,0.0
4839,65.0,5,23,11.0,0.0
4840,58.0,6,23,12.0,0.0
4841,70.0,5,23,11.0,0.0
4842,62.0,25,23,12.0,0.0
4843,50.0,2,55,13.0,0.0
4844,38.0,17,55,14.0,0.0
4845,70.0,5,23,11.0,0.0
4846,62.0,6,23,12.0,0.0
4847,65.0,5,23,11.0,0.0
4848,58.0,25,23,12.0,0.0
4849,50.0,2,55,13.0,0.0
4850,38.0,6,55,14.0,0.0
4851,65.0,5,23,11.0,0.0
4852,58.0,6,23,12.0,0.0
4853,70.0,1,23,11.0,0.0
4854,62.0,20,23,12.0,0.0
4855,50.0,2,55,13.0,0.0
4856,38.0,6,55,14.0,0.0
4857,74.0,0,23,10.0,0.0
4858,86.0,1,20,0.0,0.0
4859,89.0,0,20,0.0,0.0
4860,77.0,0,20,6.0,0.0
4861,65.0,1,20,6.0,0.0
4862,70.0,1,23,11.0,0.0
4863,65.0,1,20,4.0,0.0
4864,82.0,1,20,1.0,0.0
4865,77.0,0,20,1.0,0.0
4866,70.0,1,20,2.0,0.0
4867,65.0,0,20,2.0,0.0
4868,53.0,2,20,5.0,0.0
4869,62.0,6,23,12.0,0.0
4870,58.0,2,20,3.0,0.0
4871,50.0,0,20,3.0,0.0
4872,41.0,11,30,15.0,0.0
4873,74.0,8,345,10.0,0.0
4874,86.0,1,680,0.0,0.0
4875,65.0,2,680,6.0,0.0
4876,65.0,3,350,4.0,0.0
4877,62.0,5,23,11.0,0.0
4878,74.0,0,680,1.0,0.0
4879,82.0,1,680,1.0,0.0
4880,74.0,0,680,2.0,0.0
4881,68.0,1,680,2.0,0.0
4882,53.0,4,350,5.0,0.0
4883,56.0,14,23,12.0,0.0
4884,53.0,2,680,3.0,0.0
4885,56.0,0,680,3.0,0.0
4886,41.0,2,415,13.0,0.0
4887,29.0,17,415,14.0,0.0
4888,41.0,11,30,15.0,0.0
4889,62.0,5,23,11.0,0.0
4890,56.0,14,23,12.0,0.0
4891,41.0,11,30,15.0,0.0
4892,70.0,5,23,11.0,0.0
4893,62.0,14,23,12.0,0.0
4894,70.0,5,23,11.0,0.0
4895,62.0,14,23,12.0,0.0
4896,41.0,11,0,15.0,0.0
4897,62.0,5,23,11.0,0.0
4898,56.0,14,23,12.0,0.0
4899,41.0,11,0,15.0,0.0
4900,62.0,5,23,11.0,0.0
4901,56.0,14,23,12.0,0.0
4902,41.0,11,30,15.0,0.0
4903,70.0,5,23,11.0,0.0
4904,62.0,14,23,12.0,0.0
4905,41.0,11,30,15.0,0.0
4906,70.0,5,23,11.0,0.0
4907,62.0,14,23,12.0,0.0
4908,62.0,5,23,11.0,0.0
4909,56.0,14,23,12.0,0.0
4910,41.0,11,0,15.0,0.0
4911,62.0,5,23,11.0,0.0
4912,56.0,14,23,12.0,0.0
4913,70.0,5,23,11.0,0.0
4914,62.0,14,23,12.0,0.0
4915,41.0,11,0,15.0,0.0
4916,70.0,1,23,11.0,0.0
4917,62.0,14,23,12.0,0.0
4918,41.0,0,0,15.0,0.0
4919,82.0,6,315,10.0,0.0
4920,62.0,5,23,11.0,0.0
4921,65.0,0,350,4.0,0.0
4922,53.0,2,350,5.0,0.0
4923,56.0,25,23,12.0,0.0
4924,41.0,11,0,15.0,0.0
4925,62.0,5,23,11.0,0.0
4926,56.0,6,23,12.0,0.0
4927,70.0,5,23,11.0,0.0
4928,62.0,25,23,12.0,0.0
4929,41.0,2,55,13.0,0.0
4930,29.0,6,55,14.0,0.0
4931,70.0,5,23,11.0,0.0
4932,62.0,6,23,12.0,0.0
4933,62.0,5,23,11.0,0.0
4934,56.0,25,23,12.0,0.0
4935,41.0,2,55,13.0,0.0
4936,29.0,17,55,14.0,0.0
4937,62.0,5,23,11.0,0.0
4938,56.0,6,23,12.0,0.0
4939,70.0,5,23,11.0,0.0
4940,62.0,25,23,12.0,0.0
4941,41.0,2,55,13.0,0.0
4942,29.0,17,55,14.0,0.0
4943,70.0,5,23,11.0,0.0
4944,62.0,6,23,12.0,0.0
4945,62.0,5,23,11.0,0.0
4946,56.0,25,23,12.0,0.0
4947,41.0,2,55,13.0,0.0
4948,29.0,6,55,14.0,0.0
4949,62.0,5,23,11.0,0.0
4950,56.0,6,23,12.0,0.0
4951,70.0,3,23,11.0,0.0
4952,62.0,20,23,12.0,0.0
4953,41.0,2,55,13.0,0.0
4954,29.0,6,55,14.0,0.0
4955,74.0,1,23,10.0,0.0
4956,86.0,1,20,0.0,0.0
4957,65.0,1,20,6.0,0.0
4958,70.0,1,23,11.0,0.0
4959,82.0,1,20,1.0,0.0
4960,74.0,0,20,1.0,0.0
4961,68.0,1,20,2.0,0.0
4962,74.0,0,20,2.0,0.0
4963,62.0,6,23,12.0,0.0
4964,56.0,2,20,3.0,0.0
4965,53.0,0,20,3.0,0.0
4966,41.0,11,30,15.0,0.0
4967,74.0,8,345,10.0,0.0
4968,86.0,1,680,0.0,0.0
4969,65.0,2,680,6.0,0.0
4970,62.0,5,23,11.0,0.0
4971,65.0,3,350,4.0,0.0
4972,82.0,1,680,1.0,0.0
4973,74.0,0,680,1.0,0.0
4974,68.0,1,680,2.0,0.0
4975,74.0,0,680,2.0,0.0
4976,53.0,4,350,5.0,0.0
4977,56.0,14,23,12.0,0.0
4978,56.0,0,680,3.0,0.0
4979,53.0,2,680,3.0,0.0
4980,41.0,2,415,13.0,0.0
4981,29.0,17,415,14.0,0.0
4982,62.0,5,23,11.0,0.0
4983,56.0,14,23,12.0,0.0
4984,41.0,11,0,15.0,0.0
4985,70.0,5,23,11.0,0.0
4986,62.0,14,23,12.0,0.0
4987,41.0,11,0,15.0,0.0
4988,70.0,5,23,11.0,0.0
4989,62.0,14,23,12.0,0.0
4990,41.0,11,0,15.0,0.0
4991,62.0,5,23,11.0,0.0
4992,56.0,14,23,12.0,0.0
4993,41.0,11,30,15.0,0.0
4994,62.0,5,23,11.0,0.0
4995,56.0,14,23,12.0,0.0
4996,41.0,11,30,15.0,0.0
4997,70.0,5,23,11.0,0.0
4998,62.0,14,23,12.0,0.0
4999,41.0,11,30,15.0,0.0
5000,70.0,5,23,11.0,0.0
5001,62.0,14,23,12.0,0.0
5002,62.0,5,23,11.0,0.0
5003,56.0,14,23,12.0,0.0
5004,41.0,11,0,15.0,0.0
5005,62.0,5,23,11.0,0.0
5006,56.0,14,23,12.0,0.0
5007,70.0,5,23,11.0,0.0
5008,62.0,14,23,12.0,0.0
5009,41.0,11,0,15.0,0.0
5010,70.0,1,23,11.0,0.0
5011,62.0,14,23,12.0,0.0
5012,41.0,11,30,15.0,0.0
5013,82.0,6,315,10.0,0.0
5014,62.0,5,23,11.0,0.0
5015,65.0,0,350,4.0,0.0
5016,53.0,2,350,5.0,0.0
5017,56.0,25,23,12.0,0.0
5018,41.0,11,120,15.0,0.0
5019,62.0,5,23,11.0,0.0
5020,56.0,6,23,12.0,0.0
5021,70.0,5,23,11.0,0.0
5022,62.0,25,23,12.0,0.0
5023,41.0,2,55,13.0,0.0
5024,29.0,6,55,14.0,0.0
5025,70.0,5,23,11.0,0.0
5026,62.0,6,23,12.0,0.0
5027,62.0,5,23,11.0,0.0
5028,56.0,25,23,12.0,0.0
5029,41.0,2,55,13.0,0.0
5030,29.0,17,55,14.0,0.0
5031,62.0,5,23,11.0,0.0
5032,56.0,6,23,12.0,0.0
5033,70.0,5,23,11.0,0.0
5034,62.0,25,23,12.0,0.0
5035,41.0,2,55,13.0,0.0
5036,29.0,17,55,14.0,0.0
5037,70.0,5,23,11.0,0.0
5038,62.0,6,23,12.0,0.0
5039,62.0,5,23,11.0,0.0
5040,56.0,25,23,12.0,0.0
5041,41.0,2,55,13.0,0.0
5042,29.0,6,55,14.0,0.0
5043,62.0,5,23,11.0,0.0
5044,56.0,6,23,12.0,0.0
5045,70.0,3,23,11.0,0.0
5046,62.0,20,23,12.0,0.0
5047,41.0,2,55,13.0,0.0
5048,29.0,6,55,14.0,0.0
5049,74.0,1,23,10.0,0.0
5050,86.0,1,20,0.0,0.0
5051,65.0,1,20,6.0,0.0
5052,70.0,1,23,11.0,0.0
5053,74.0,0,20,1.0,0.0
5054,82.0,1,20,1.0,0.0
5055,68.0,0,20,2.0,0.0
5056,74.0,1,20,2.0,0.0
5057,62.0,6,23,12.0,0.0
5058,53.0,0,20,3.0,0.0
5059,56.0,2,20,3.0,0.0
5060,74.0,0,225,10.0,0.0
5061,86.0,1,230,0.0,0.0
5062,65.0,1,230,6.0,0.0
5063,62.0,5,23,11.0,0.0
5064,65.0,1,230,4.0,0.0
5065,74.0,0,230,1.0,0.0
5066,82.0,1,230,1.0,0.0
5067,74.0,1,230,2.0,0.0
5068,68.0,0,230,2.0,0.0
5069,53.0,2,230,5.0,0.0
5070,56.0,14,23,12.0,0.0
5071,53.0,2,230,3.0,0.0
5072,56.0,0,230,3.0,0.0
5073,41.0,2,235,13.0,0.0
5074,29.0,6,235,14.0,0.0
5075,41.0,11,0,15.0,0.0
5076,62.0,5,23,11.0,0.0
5077,56.0,14,23,12.0,0.0
5078,41.0,11,30,15.0,0.0
5079,70.0,5,23,11.0,0.0
5080,62.0,14,23,12.0,0.0
5081,70.0,5,23,11.0,0.0
5082,62.0,14,23,12.0,0.0
5083,41.0,11,0,15.0,0.0
5084,62.0,5,23,11.0,0.0
5085,56.0,14,23,12.0,0.0
5086,62.0,5,23,11.0,0.0
5087,56.0,14,23,12.0,0.0
5088,41.0,11,0,15.0,0.0
5089,70.0,5,23,11.0,0.0
5090,62.0,14,23,12.0,0.0
5091,41.0,11,0,15.0,0.0
5092,70.0,1,23,11.0,0.0
5093,62.0,6,23,12.0,0.0
5094,82.0,6,75,10.0,0.0
5095,86.0,1,80,0.0,0.0
5096,65.0,1,80,6.0,0.0
5097,65.0,1,80,4.0,0.0
5098,62.0,5,23,11.0,0.0
5099,74.0,0,80,1.0,0.0
5100,82.0,1,80,1.0,0.0
5101,68.0,0,80,2.0,0.0
5102,74.0,1,80,2.0,0.0
5103,53.0,2,80,5.0,0.0
5104,56.0,25,23,12.0,0.0
5105,56.0,2,80,3.0,0.0
5106,53.0,0,80,3.0,0.0
5107,41.0,2,85,13.0,0.0
5108,29.0,6,85,14.0,0.0
5109,41.0,11,0,15.0,0.0
5110,62.0,5,23,11.0,0.0
5111,56.0,14,23,12.0,0.0
5112,70.0,1,23,11.0,0.0
5113,62.0,6,23,12.0,0.0
5114,74.0,0,23,10.0,0.0
5115,86.0,1,20,0.0,0.0
5116,65.0,1,20,6.0,0.0
5117,65.0,1,20,4.0,0.0
5118,70.0,1,23,11.0,0.0
5119,82.0,1,20,1.0,0.0
5120,74.0,0,20,1.0,0.0
5121,68.0,0,20,2.0,0.0
5122,74.0,1,20,2.0,0.0
5123,53.0,2,20,5.0,0.0
5124,62.0,4,23,12.0,0.0
5125,53.0,0,20,3.0,0.0
5126,56.0,2,20,3.0,0.0
5127,41.0,2,23,13.0,0.0
5128,29.0,8,23,14.0,0.0
5129,74.0,6,225,10.0,0.0
5130,86.0,1,230,0.0,0.0
5131,65.0,1,230,6.0,0.0
5132,65.0,1,230,4.0,0.0
5133,62.0,5,23,11.0,0.0
5134,74.0,0,230,1.0,0.0
5135,82.0,1,230,1.0,0.0
5136,68.0,1,230,2.0,0.0
5137,74.0,0,230,2.0,0.0
5138,53.0,2,230,5.0,0.0
5139,56.0,14,23,12.0,0.0
5140,53.0,0,230,3.0,0.0
5141,56.0,2,230,3.0,0.0
5142,41.0,2,235,13.0,0.0
5143,29.0,6,235,14.0,0.0
5144,41.0,11,0,15.0,0.0
5145,62.0,5,23,11.0,0.0
5146,56.0,14,23,12.0,0.0
5147,41.0,11,0,15.0,0.0
5148,70.0,5,23,11.0,0.0
5149,62.0,14,23,12.0,0.0
5150,70.0,5,23,11.0,0.0
5151,62.0,14,23,12.0,0.0
5152,41.0,11,0,15.0,0.0
5153,62.0,5,23,11.0,0.0
5154,56.0,14,23,12.0,0.0
5155,41.0,11,0,15.0,0.0
5156,62.0,5,23,11.0,0.0
5157,56.0,14,23,12.0,0.0
5158,41.0,11,0,15.0,0.0
5159,70.0,5,23,11.0,0.0
5160,62.0,14,23,12.0,0.0
5161,70.0,1,23,11.0,0.0
5162,62.0,6,23,12.0,0.0
5163,41.0,0,0,15.0,0.0
5164,82.0,6,75,10.0,0.0
5165,86.0,1,80,0.0,0.0
5166,65.0,1,80,6.0,0.0
5167,62.0,5,23,11.0,0.0
5168,65.0,1,80,4.0,0.0
5169,74.0,0,80,1.0,0.0
5170,82.0,1,80,1.0,0.0
5171,74.0,1,80,2.0,0.0
5172,68.0,0,80,2.0,0.0
5173,53.0,2,80,5.0,0.0
5174,56.0,25,23,12.0,0.0
5175,53.0,2,80,3.0,0.0
5176,56.0,0,80,3.0,0.0
5177,41.0,2,85,13.0,0.0
5178,29.0,6,85,14.0,0.0
5179,41.0,11,0,15.0,0.0
5180,62.0,5,23,11.0,0.0
5181,56.0,14,23,12.0,0.0
5182,70.0,1,23,11.0,0.0
5183,62.0,6,23,12.0,0.0
5184,74.0,1,23,10.0,0.0
5185,86.0,1,20,0.0,0.0
5186,65.0,1,20,6.0,0.0
5187,70.0,1,23,11.0,0.0
5188,65.0,0,20,4.0,0.0
5189,82.0,1,20,1.0,0.0
5190,74.0,0,20,1.0,0.0
5191,74.0,0,20,2.0,0.0
5192,68.0,1,20,2.0,0.0
5193,53.0,2,20,5.0,0.0
5194,62.0,4,23,12.0,0.0
5195,53.0,0,20,3.0,0.0
5196,56.0,2,20,3.0,0.0
5197,41.0,2,23,13.0,0.0
5198,29.0,8,23,14.0,0.0
5199,41.0,45,30,15.0,0.0
5200,74.0,1,60,10.0,0.0
5201,86.0,1,60,0.0,0.0
5202,65.0,1,60,6.0,0.0
5203,65.0,0,60,4.0,0.0
5204,62.0,1,60,11.0,0.0
5205,82.0,1,60,1.0,0.0
5206,74.0,0,60,1.0,0.0
5207,74.0,2,60,2.0,0.0
5208,68.0,0,60,2.0,0.0
5209,53.0,1,60,5.0,0.0
5210,56.0,1,60,12.0,0.0
5211,56.0,0,60,3.0,0.0
5212,53.0,3,60,3.0,0.0
5213,41.0,2,60,13.0,0.0
5214,29.0,1,60,14.0,0.0
5215,41.0,225,60,15.0,0.0
5216,82.0,1,60,10.0,0.0
5217,86.0,1,60,0.0,0.0
5218,65.0,1,60,6.0,0.0
5219,70.0,0,60,11.0,0.0
5220,65.0,1,60,4.0,0.0
5221,62.0,0,60,11.0,0.0
5222,82.0,0,60,1.0,0.0
5223,74.0,1,60,1.0,0.0
5224,74.0,2,60,2.0,0.0
5225,68.0,0,60,2.0,0.0
5226,53.0,1,60,5.0,0.0
5227,56.0,1,60,12.0,0.0
5228,53.0,0,60,3.0,0.0
5229,56.0,3,60,3.0,0.0
5230,41.0,2,60,13.0,0.0
5231,29.0,1,60,14.0,0.0
5232,41.0,105,60,15.0,0.0
5233,74.0,1,60,10.0,0.0
5234,86.0,1,60,0.0,0.0
5235,65.0,1,60,6.0,0.0
5236,62.0,0,60,11.0,0.0
5237,65.0,1,60,4.0,0.0
5238,74.0,1,60,1.0,0.0
5239,82.0,0,60,1.0,0.0
5240,68.0,0,60,2.0,0.0
5241,74.0,2,60,2.0,0.0
5242,53.0,1,60,5.0,0.0
5243,56.0,1,60,12.0,0.0
5244,56.0,3,60,3.0,0.0
5245,53.0,0,60,3.0,0.0
5246,41.0,2,60,13.0,0.0
5247,29.0,1,60,14.0,0.0
5248,41.0,225,60,15.0,0.0
5249,82.0,1,60,10.0,0.0
5250,86.0,1,60,0.0,0.0
5251,65.0,1,60,6.0,0.0
5252,65.0,0,60,4.0,0.0
5253,62.0,0,60,11.0,0.0
5254,70.0,1,60,11.0,0.0
5255,82.0,0,60,1.0,0.0
5256,74.0,1,60,1.0,0.0
5257,74.0,2,60,2.0,0.0
5258,68.0,0,60,2.0,0.0
5259,53.0,1,60,5.0,0.0
5260,56.0,1,60,12.0,0.0
5261,53.0,0,60,3.0,0.0
5262,56.0,3,60,3.0,0.0
5263,41.0,2,60,13.0,0.0
5264,29.0,1,60,14.0,0.0
5265,41.0,105,60,15.0,0.0
5266,74.0,1,60,10.0,0.0
5267,86.0,1,60,0.0,0.0
5268,65.0,1,60,6.0,0.0
5269,65.0,0,60,4.0,0.0
5270,62.0,1,60,11.0,0.0
5271,82.0,1,60,1.0,0.0
5272,74.0,0,60,1.0,0.0
5273,74.0,2,60,2.0,0.0
5274,68.0,0,60,2.0,0.0
5275,53.0,1,60,5.0,0.0
5276,56.0,1,60,12.0,0.0
5277,53.0,0,60,3.0,0.0
5278,56.0,3,60,3.0,0.0
5279,41.0,2,60,13.0,0.0
5280,29.0,1,60,14.0,0.0
5281,41.0,705,60,15.0,0.0
5282,61.0,3,60,10.0,0.0
5283,57.0,5,60,11.0,0.0
5284,52.0,0,60,12.0,0.0
5285,55.0,232,60,12.0,0.0
5286,69.0,3,60,10.0,0.0
5287,61.0,5,60,11.0,0.0
5288,52.0,0,60,12.0,0.0
5289,55.0,112,60,12.0,0.0
5290,61.0,3,60,10.0,0.0
5291,57.0,5,60,11.0,0.0
5292,55.0,0,60,12.0,0.0
5293,52.0,232,60,12.0,0.0
5294,69.0,3,60,10.0,0.0
5295,61.0,5,60,11.0,0.0
5296,55.0,0,60,12.0,0.0
5297,52.0,112,60,12.0,0.0
5298,61.0,3,60,10.0,0.0
5299,57.0,5,60,11.0,0.0
5300,55.0,0,60,12.0,0.0
5301,52.0,1,60,12.0,0.0
5302,57.0,240,60,3.0,0.0
5303,67.0,120,60,3.0,0.0
5304,57.0,201,60,3.0,0.0
5305,69.0,3,30,10.0,0.0
5306,57.0,36,30,11.0,0.0
5307,61.0,4,120,12.0,0.0
5308,67.0,59,60,3.0,0.0
5309,64.0,2,120,13.0,0.0
5310,52.0,46,120,14.0,0.0
5311,69.0,3,120,10.0,0.0
5312,57.0,6,120,11.0,0.0
5313,62.0,4,120,12.0,0.0
5314,66.0,51,60,3.0,0.0
5315,62.0,2,120,13.0,0.0
5316,50.0,46,120,14.0,0.0
5317,71.0,3,60,10.0,0.0
5318,59.0,5,60,11.0,0.0
5319,73.0,3,60,10.0,0.0
5320,61.0,6,60,11.0,0.0
5321,62.0,46,60,3.0,0.0
5322,74.0,3,55,10.0,0.0
5323,62.0,32,55,11.0,0.0
5324,69.0,3,30,10.0,0.0
5325,57.0,36,30,11.0,0.0
5326,57.0,111,60,3.0,0.0
5327,69.0,3,120,10.0,0.0
5328,57.0,6,120,11.0,0.0
5329,64.0,0,120,12.0,0.0
5330,61.0,4,120,12.0,0.0
5331,55.0,51,60,3.0,0.0
5332,57.0,2,120,13.0,0.0
5333,45.0,46,120,14.0,0.0
5334,73.0,3,60,10.0,0.0
5335,61.0,5,60,11.0,0.0
5336,74.0,3,60,10.0,0.0
5337,62.0,6,60,11.0,0.0
5338,52.0,46,60,3.0,0.0
5339,76.0,3,55,10.0,0.0
5340,64.0,32,55,11.0,0.0
5341,69.0,3,30,10.0,0.0
5342,57.0,36,30,11.0,0.0
5343,49.0,111,60,3.0,0.0
5344,69.0,3,120,10.0,0.0
5345,57.0,6,120,11.0,0.0
5346,62.0,0,120,12.0,0.0
5347,66.0,4,120,12.0,0.0
5348,54.0,51,60,3.0,0.0
5349,50.0,2,120,13.0,0.0
5350,38.0,46,120,14.0,0.0
5351,74.0,3,60,10.0,0.0
5352,62.0,5,60,11.0,0.0
5353,76.0,3,60,10.0,0.0
5354,64.0,6,60,11.0,0.0
5355,50.0,51,60,3.0,0.0
5356,78.0,3,60,10.0,0.0
5357,66.0,57,60,11.0,0.0
5358,79.0,3,60,10.0,0.0
5359,67.0,6,60,11.0,0.0
5360,45.0,46,60,3.0,0.0
5361,78.0,3,55,10.0,0.0
5362,66.0,71,55,11.0,0.0
5363,76.0,3,115,10.0,0.0
5364,64.0,10,115,11.0,0.0
5365,61.0,4,120,12.0,0.0
5366,64.0,0,120,12.0,0.0
5367,45.0,46,60,3.0,0.0
5368,45.0,2,120,13.0,0.0
5369,33.0,55,120,14.0,0.0
5370,81.0,3,295,10.0,0.0
5371,69.0,11,295,11.0,0.0
5372,48.0,120,60,3.0,0.0
5373,60.0,4,120,12.0,0.0
5374,54.0,59,60,3.0,0.0
5375,45.0,2,120,13.0,0.0
5376,33.0,41,120,14.0,0.0
5377,50.0,4,120,12.0,0.0
5378,47.0,51,60,3.0,0.0
5379,47.0,2,120,13.0,0.0
5380,35.0,46,120,14.0,0.0
5381,79.0,3,60,10.0,0.0
5382,67.0,5,60,11.0,0.0
5383,74.0,3,60,10.0,0.0
5384,62.0,6,60,11.0,0.0
5385,50.0,46,60,3.0,0.0
5386,76.0,3,55,10.0,0.0
5387,64.0,71,55,11.0,0.0
5388,77.0,3,180,10.0,0.0
5389,65.0,6,180,11.0,0.0
5390,62.0,4,120,12.0,0.0
5391,55.0,59,60,3.0,0.0
5392,59.0,2,120,13.0,0.0
5393,47.0,46,120,14.0,0.0
5394,55.0,4,120,12.0,0.0
5395,48.0,51,60,3.0,0.0
5396,60.0,2,120,13.0,0.0
5397,48.0,46,120,14.0,0.0
5398,76.0,3,60,10.0,0.0
5399,64.0,5,60,11.0,0.0
5400,72.0,3,60,10.0,0.0
5401,60.0,6,60,11.0,0.0
5402,60.0,46,60,3.0,0.0
5403,74.0,3,55,10.0,0.0
5404,62.0,71,55,11.0,0.0
5405,75.0,3,120,10.0,0.0
5406,63.0,5,120,11.0,0.0
5407,57.0,4,120,12.0,0.0
5408,60.0,51,60,3.0,0.0
5409,54.0,2,120,13.0,0.0
5410,42.0,106,120,14.0,0.0
5411,50.0,1,120,12.0,0.0
5412,59.0,3,120,3.0,0.0
5413,55.0,2,120,13.0,0.0
5414,43.0,46,120,14.0,0.0
5415,74.0,3,60,10.0,0.0
5416,62.0,5,60,11.0,0.0
5417,71.0,3,60,10.0,0.0
5418,59.0,57,60,11.0,0.0
5419,72.0,3,60,10.0,0.0
5420,60.0,57,60,11.0,0.0
5421,74.0,3,60,10.0,0.0
5422,62.0,57,60,11.0,0.0
5423,71.0,3,60,10.0,0.0
5424,59.0,57,60,11.0,0.0
5425,67.0,3,60,10.0,0.0
5426,55.0,57,60,11.0,0.0
5427,71.0,3,60,10.0,0.0
5428,59.0,57,60,11.0,0.0
5429,74.0,3,60,10.0,0.0
5430,62.0,57,60,11.0,0.0
5431,77.0,3,60,10.0,0.0
5432,65.0,28,60,11.0,0.0
5433,76.0,3,60,10.0,0.0
5434,79.0,3,30,0.0,0.0
5435,64.0,52,60,11.0,0.0
5436,67.0,5,30,1.0,0.0
5437,55.0,21,30,3.0,0.0
5438,74.0,3,55,10.0,0.0
5439,79.0,3,120,0.0,0.0
5440,62.0,63,55,11.0,0.0
5441,67.0,5,120,1.0,0.0
5442,55.0,51,120,3.0,0.0
5443,72.0,1,120,10.0,0.0
5444,60.0,1,120,11.0,0.0
5445,64.0,1,120,12.0,0.0
5446,60.0,2,120,13.0,0.0
5447,48.0,47,120,14.0,0.0
5448,81.0,2,60,0.0,0.0
5449,69.0,4,60,1.0,0.0
5450,57.0,3,60,3.0,0.0
5451,83.0,3,60,0.0,0.0
5452,71.0,5,60,1.0,0.0
5453,60.0,4,120,12.0,0.0
5454,59.0,47,60,3.0,0.0
5455,55.0,2,120,13.0,0.0
5456,43.0,17,120,14.0,0.0
5457,84.0,3,55,0.0,0.0
5458,72.0,5,55,1.0,0.0
5459,60.0,4,55,3.0,0.0
5460,72.0,3,120,10.0,0.0
5461,79.0,3,30,0.0,0.0
5462,64.0,5,120,11.0,0.0
5463,67.0,5,30,1.0,0.0
5464,55.0,4,120,12.0,0.0
5465,55.0,81,30,3.0,0.0
5466,52.0,2,120,13.0,0.0
5467,40.0,47,120,14.0,0.0
5468,79.0,3,120,0.0,0.0
5469,67.0,5,120,1.0,0.0
5470,55.0,51,120,3.0,0.0
5471,67.0,1,120,10.0,0.0
5472,62.0,1,120,11.0,0.0
5473,59.0,1,120,12.0,0.0
5474,53.0,2,120,13.0,0.0
5475,41.0,47,120,14.0,0.0
5476,83.0,2,60,0.0,0.0
5477,71.0,4,60,1.0,0.0
5478,59.0,3,60,3.0,0.0
5479,71.0,3,120,10.0,0.0
5480,84.0,3,60,0.0,0.0
5481,67.0,1,120,11.0,0.0
5482,72.0,5,60,1.0,0.0
5483,62.0,4,120,12.0,0.0
5484,60.0,47,60,3.0,0.0
5485,50.0,2,120,13.0,0.0
5486,38.0,17,120,14.0,0.0
5487,86.0,3,55,0.0,0.0
5488,74.0,1,55,1.0,0.0
5489,62.0,4,55,3.0,0.0
5490,74.0,3,120,10.0,0.0
5491,79.0,3,30,0.0,0.0
5492,67.0,5,120,11.0,0.0
5493,67.0,5,30,1.0,0.0
5494,65.0,4,120,12.0,0.0
5495,55.0,81,30,3.0,0.0
5496,47.0,2,120,13.0,0.0
5497,35.0,47,120,14.0,0.0
5498,79.0,3,120,0.0,0.0
5499,67.0,5,120,1.0,0.0
5500,55.0,51,120,3.0,0.0
5501,67.0,1,120,10.0,0.0
5502,67.0,1,120,11.0,0.0
5503,60.0,1,120,12.0,0.0
5504,52.0,2,120,13.0,0.0
5505,40.0,47,120,14.0,0.0
5506,84.0,2,60,0.0,0.0
5507,72.0,4,60,1.0,0.0
5508,60.0,3,60,3.0,0.0
5509,72.0,1,120,10.0,0.0
5510,86.0,3,60,0.0,0.0
5511,74.0,5,60,1.0,0.0
5512,64.0,1,120,12.0,0.0
5513,62.0,51,60,3.0,0.0
5514,48.0,2,120,13.0,0.0
5515,36.0,47,120,14.0,0.0
5516,88.0,2,60,0.0,0.0
5517,76.0,4,60,1.0,0.0
5518,64.0,3,60,3.0,0.0
5519,76.0,3,120,10.0,0.0
5520,89.0,3,60,0.0,0.0
5521,67.0,1,0,11.0,0.0
5522,77.0,5,60,1.0,0.0
5523,60.0,4,120,12.0,0.0
5524,65.0,47,60,3.0,0.0
5525,31.0,102,120,14.0,0.0
5526,88.0,3,55,0.0,0.0
5527,76.0,1,55,1.0,0.0
5528,64.0,4,55,3.0,0.0
5529,74.0,3,120,10.0,0.0
5530,86.0,3,115,0.0,0.0
5531,74.0,1,115,1.0,0.0
5532,59.0,4,120,12.0,0.0
5533,62.0,4,115,3.0,0.0
5534,43.0,2,0,13.0,0.0
5535,31.0,106,120,14.0,0.0
5536,71.0,3,120,10.0,0.0
5537,91.0,3,295,0.0,0.0
5538,67.0,1,0,11.0,0.0
5539,79.0,5,295,1.0,0.0
5540,62.0,4,120,12.0,0.0
5541,67.0,56,295,3.0,0.0
5542,59.0,2,120,13.0,0.0
5543,47.0,106,120,14.0,0.0
5544,74.0,3,120,10.0,0.0
5545,59.0,5,120,11.0,0.0
5546,55.0,4,120,12.0,0.0
5547,55.0,2,120,13.0,0.0
5548,43.0,42,120,14.0,0.0
5549,72.0,1,120,10.0,0.0
5550,60.0,1,120,11.0,0.0
5551,57.0,1,120,12.0,0.0
5552,57.0,2,120,13.0,0.0
5553,45.0,47,120,14.0,0.0
5554,90.0,2,60,0.0,0.0
5555,78.0,4,60,1.0,0.0
5556,66.0,3,60,3.0,0.0
5557,69.0,3,120,10.0,0.0
5558,86.0,3,60,0.0,0.0
5559,57.0,1,120,11.0,0.0
5560,74.0,5,60,1.0,0.0
5561,50.0,4,120,12.0,0.0
5562,62.0,47,60,3.0,0.0
5563,62.0,2,120,13.0,0.0
5564,50.0,106,120,14.0,0.0
5565,88.0,3,55,0.0,0.0
5566,76.0,1,55,1.0,0.0
5567,64.0,4,55,3.0,0.0
5568,74.0,3,120,10.0,0.0
5569,89.0,3,180,0.0,0.0
5570,62.0,5,120,11.0,0.0
5571,77.0,5,180,1.0,0.0
5572,59.0,4,120,12.0,0.0
5573,65.0,51,180,3.0,0.0
5574,59.0,2,120,13.0,0.0
5575,47.0,47,120,14.0,0.0
5576,71.0,1,120,10.0,0.0
5577,59.0,1,120,11.0,0.0
5578,55.0,1,120,12.0,0.0
5579,55.0,2,120,13.0,0.0
5580,43.0,47,120,14.0,0.0
5581,88.0,2,60,0.0,0.0
5582,76.0,4,60,1.0,0.0
5583,64.0,3,60,3.0,0.0
5584,67.0,3,120,10.0,0.0
5585,84.0,3,60,0.0,0.0
5586,55.0,0,120,11.0,0.0
5587,72.0,5,60,1.0,0.0
5588,52.0,4,120,12.0,0.0
5589,60.0,47,60,3.0,0.0
5590,60.0,2,120,13.0,0.0
5591,48.0,106,120,14.0,0.0
5592,86.0,3,55,0.0,0.0
5593,74.0,1,55,1.0,0.0
5594,62.0,3,55,3.0,0.0
5595,72.0,3,120,10.0,0.0
5596,84.0,2,1200,0.0,0.0
5597,87.0,0,1200,0.0,0.0
5598,60.0,5,120,11.0,0.0
5599,60.0,1,0,4.0,0.0
5600,72.0,0,1200,1.0,0.0
5601,75.0,3,1200,1.0,0.0
5602,48.0,1,0,5.0,0.0
5603,48.0,4,120,12.0,0.0
5604,60.0,17,1200,3.0,0.0
5605,57.0,2,120,13.0,0.0
5606,45.0,12,120,14.0,0.0
5607,63.0,16,23,11.0,0.0
5608,60.0,0,23,11.0,0.0
5609,42.0,2,30,13.0,0.0
5610,30.0,12,30,14.0,0.0
5611,63.0,30,23,11.0,0.0
5612,60.0,0,23,11.0,0.0
5613,60.0,0,23,11.0,0.0
5614,63.0,16,23,11.0,0.0
5615,45.0,2,30,13.0,0.0
5616,33.0,12,30,14.0,0.0
5617,60.0,0,23,11.0,0.0
5618,63.0,30,23,11.0,0.0
5619,60.0,16,23,11.0,0.0
5620,63.0,0,23,11.0,0.0
5621,48.0,2,30,13.0,0.0
5622,36.0,12,30,14.0,0.0
5623,63.0,30,23,11.0,0.0
5624,60.0,0,23,11.0,0.0
5625,60.0,16,23,11.0,0.0
5626,63.0,0,23,11.0,0.0
5627,51.0,2,30,13.0,0.0
5628,39.0,12,30,14.0,0.0
5629,60.0,30,23,11.0,0.0
5630,63.0,0,23,11.0,0.0
5631,60.0,16,23,11.0,0.0
5632,63.0,0,23,11.0,0.0
5633,54.0,2,30,13.0,0.0
5634,42.0,12,30,14.0,0.0
5635,60.0,0,23,11.0,0.0
5636,63.0,30,23,11.0,0.0
5637,60.0,16,23,11.0,0.0
5638,63.0,0,23,11.0,0.0
5639,57.0,2,30,13.0,0.0
5640,45.0,12,30,14.0,0.0
5641,63.0,0,23,11.0,0.0
5642,60.0,30,23,11.0,0.0
5643,69.0,8,30,10.0,0.0
5644,60.0,0,23,11.0,0.0
5645,63.0,4,23,11.0,0.0
5646,57.0,18,30,12.0,0.0
5647,60.0,2,60,13.0,0.0
5648,48.0,12,60,14.0,0.0
5649,60.0,0,23,11.0,0.0
5650,63.0,16,23,11.0,0.0
5651,72.0,8,30,10.0,0.0
5652,63.0,0,23,11.0,0.0
5653,60.0,4,23,11.0,0.0
5654,60.0,18,30,12.0,0.0
5655,63.0,0,23,11.0,0.0
5656,60.0,30,23,11.0,0.0
5657,75.0,8,30,10.0,0.0
5658,60.0,4,23,11.0,0.0
5659,63.0,0,23,11.0,0.0
5660,63.0,18,30,12.0,0.0
5661,63.0,30,23,11.0,0.0
5662,60.0,0,23,11.0,0.0
5663,78.0,8,30,10.0,0.0
5664,63.0,4,23,11.0,0.0
5665,60.0,0,23,11.0,0.0
5666,66.0,18,30,12.0,0.0
5667,63.0,30,23,11.0,0.0
5668,60.0,0,23,11.0,0.0
5669,81.0,8,30,10.0,0.0
5670,63.0,0,23,11.0,0.0
5671,60.0,4,23,11.0,0.0
5672,69.0,18,30,12.0,0.0
5673,63.0,30,23,11.0,0.0
5674,60.0,0,23,11.0,0.0
5675,84.0,8,30,10.0,0.0
5676,63.0,0,23,11.0,0.0
5677,60.0,4,23,11.0,0.0
5678,72.0,18,30,12.0,0.0
5679,63.0,30,23,11.0,0.0
5680,60.0,0,23,11.0,0.0
5681,87.0,8,60,10.0,0.0
5682,60.0,0,23,11.0,0.0
5683,63.0,30,23,11.0,0.0
5684,75.0,18,60,12.0,0.0
5685,63.0,4,23,11.0,0.0
5686,60.0,0,23,11.0,0.0
5687,60.0,30,23,11.0,0.0
5688,63.0,0,23,11.0,0.0
5689,63.0,30,23,11.0,0.0
5690,60.0,0,23,11.0,0.0
5691,60.0,30,23,11.0,0.0
5692,63.0,0,23,11.0,0.0
5693,60.0,0,23,11.0,0.0
5694,63.0,30,23,11.0,0.0
5695,63.0,30,23,11.0,0.0
5696,60.0,0,23,11.0,0.0
5697,63.0,30,23,11.0,0.0
5698,60.0,0,23,11.0,0.0
5699,84.0,8,60,10.0,0.0
5700,63.0,0,23,11.0,0.0
5701,60.0,30,23,11.0,0.0
5702,72.0,18,60,12.0,0.0
5703,63.0,4,23,11.0,0.0
5704,60.0,0,23,11.0,0.0
5705,60.0,30,23,11.0,0.0
5706,63.0,0,23,11.0,0.0
5707,63.0,0,23,11.0,0.0
5708,60.0,5,23,11.0,0.0
5709,81.0,1,60,10.0,0.0
5710,87.0,3,60,0.0,0.0
5711,60.0,1,90,6.0,0.0
5712,72.0,0,90,6.0,0.0
5713,60.0,4,90,4.0,0.0
5714,60.0,30,23,11.0,0.0
5715,63.0,0,23,11.0,0.0
5716,75.0,4,60,1.0,0.0
5717,48.0,2,0,5.0,0.0
5718,69.0,1,60,12.0,0.0
5719,63.0,0,0,3.0,0.0
5720,60.0,0,60,3.0,0.0
5721,48.0,2,60,13.0,0.0
5722,36.0,12,60,14.0,0.0
5723,48.0,11,90,15.0,0.0
5724,63.0,0,23,11.0,0.0
5725,60.0,4,23,11.0,0.0
5726,60.0,0,23,11.0,0.0
5727,63.0,6,23,11.0,0.0
5728,60.0,30,23,11.0,0.0
5729,63.0,0,23,11.0,0.0
5730,60.0,30,23,11.0,0.0
5731,63.0,0,23,11.0,0.0
5732,60.0,30,23,11.0,0.0
5733,63.0,0,23,11.0,0.0
5734,60.0,30,23,11.0,0.0
5735,63.0,0,23,11.0,0.0
5736,60.0,30,23,11.0,0.0
5737,63.0,0,23,11.0,0.0
5738,84.0,3,60,0.0,0.0
5739,72.0,1,90,6.0,0.0
5740,60.0,0,90,6.0,0.0
5741,60.0,0,23,11.0,0.0
5742,63.0,30,23,11.0,0.0
5743,60.0,4,90,4.0,0.0
5744,72.0,5,60,1.0,0.0
5745,48.0,8,90,5.0,0.0
5746,57.0,0,60,3.0,0.0
5747,60.0,3,60,3.0,0.0
5748,45.0,2,60,13.0,0.0
5749,33.0,12,60,14.0,0.0
5750,48.0,11,90,15.0,0.0
5751,63.0,0,23,11.0,0.0
5752,60.0,5,23,11.0,0.0
5753,63.0,6,23,11.0,0.0
5754,60.0,0,23,11.0,0.0
5755,60.0,30,23,11.0,0.0
5756,63.0,0,23,11.0,0.0
5757,84.0,0,1080,0.0,0.0
5758,87.0,2,1080,0.0,0.0
5759,60.0,10,90,6.0,0.0
5760,72.0,0,90,6.0,0.0
5761,63.0,0,23,11.0,0.0
5762,60.0,16,23,11.0,0.0
5763,63.0,0,1080,3.0,0.0
5764,60.0,17,1080,3.0,0.0
5765,42.0,2,30,13.0,0.0
5766,30.0,12,30,14.0,0.0
5767,48.0,11,90,15.0,0.0
5768,63.0,0,23,11.0,0.0
5769,60.0,30,23,11.0,0.0
5770,60.0,0,23,11.0,0.0
5771,63.0,6,23,11.0,0.0
5772,45.0,2,30,13.0,0.0
5773,33.0,1,30,14.0,0.0
5774,63.0,30,23,11.0,0.0
5775,60.0,0,23,11.0,0.0
5776,63.0,16,23,11.0,0.0
5777,60.0,0,23,11.0,0.0
5778,48.0,2,30,13.0,0.0
5779,36.0,12,30,14.0,0.0
5780,60.0,0,23,11.0,0.0
5781,63.0,30,23,11.0,0.0
5782,60.0,0,23,11.0,0.0
5783,63.0,16,23,11.0,0.0
5784,51.0,2,30,13.0,0.0
5785,39.0,12,30,14.0,0.0
5786,63.0,0,23,11.0,0.0
5787,60.0,30,23,11.0,0.0
5788,63.0,0,23,11.0,0.0
5789,60.0,16,23,11.0,0.0
5790,54.0,2,30,13.0,0.0
5791,42.0,12,30,14.0,0.0
5792,63.0,0,23,11.0,0.0
5793,60.0,30,23,11.0,0.0
5794,60.0,0,23,11.0,0.0
5795,63.0,16,23,11.0,0.0
5796,57.0,2,30,13.0,0.0
5797,45.0,12,30,14.0,0.0
5798,63.0,30,23,11.0,0.0
5799,60.0,0,23,11.0,0.0
5800,69.0,8,30,10.0,0.0
5801,63.0,0,23,11.0,0.0
5802,60.0,4,23,11.0,0.0
5803,57.0,18,30,12.0,0.0
5804,60.0,2,60,13.0,0.0
5805,48.0,12,60,14.0,0.0
5806,63.0,0,23,11.0,0.0
5807,60.0,16,23,11.0,0.0
5808,72.0,8,30,10.0,0.0
5809,63.0,4,23,11.0,0.0
5810,60.0,0,23,11.0,0.0
5811,60.0,18,30,12.0,0.0
5812,60.0,30,23,11.0,0.0
5813,63.0,0,23,11.0,0.0
5814,75.0,8,30,10.0,0.0
5815,60.0,4,23,11.0,0.0
5816,63.0,0,23,11.0,0.0
5817,63.0,18,30,12.0,0.0
5818,60.0,30,23,11.0,0.0
5819,63.0,0,23,11.0,0.0
5820,78.0,8,30,10.0,0.0
5821,63.0,4,23,11.0,0.0
5822,60.0,0,23,11.0,0.0
5823,66.0,18,30,12.0,0.0
5824,60.0,30,23,11.0,0.0
5825,63.0,0,23,11.0,0.0
5826,81.0,8,30,10.0,0.0
5827,60.0,4,23,11.0,0.0
5828,63.0,0,23,11.0,0.0
5829,69.0,18,30,12.0,0.0
5830,63.0,0,23,11.0,0.0
5831,60.0,30,23,11.0,0.0
5832,84.0,8,30,10.0,0.0
5833,60.0,4,23,11.0,0.0
5834,63.0,0,23,11.0,0.0
5835,72.0,18,30,12.0,0.0
5836,63.0,30,23,11.0,0.0
5837,60.0,0,23,11.0,0.0
5838,87.0,8,60,10.0,0.0
5839,60.0,0,23,11.0,0.0
5840,63.0,30,23,11.0,0.0
5841,75.0,18,60,12.0,0.0
5842,60.0,4,23,11.0,0.0
5843,63.0,0,23,11.0,0.0
5844,60.0,30,23,11.0,0.0
5845,63.0,0,23,11.0,0.0
5846,60.0,30,23,11.0,0.0
5847,63.0,0,23,11.0,0.0
5848,60.0,30,23,11.0,0.0
5849,63.0,0,23,11.0,0.0
5850,60.0,30,23,11.0,0.0
5851,63.0,0,23,11.0,0.0
5852,60.0,0,23,11.0,0.0
5853,63.0,30,23,11.0,0.0
5854,60.0,0,23,11.0,0.0
5855,63.0,30,23,11.0,0.0
5856,84.0,8,60,10.0,0.0
5857,60.0,0,23,11.0,0.0
5858,63.0,30,23,11.0,0.0
5859,72.0,18,60,12.0,0.0
5860,60.0,4,23,11.0,0.0
5861,63.0,0,23,11.0,0.0
5862,60.0,0,23,11.0,0.0
5863,63.0,30,23,11.0,0.0
5864,63.0,0,23,11.0,0.0
5865,60.0,5,23,11.0,0.0
5866,81.0,1,60,10.0,0.0
5867,84.0,0,60,0.0,0.0
5868,87.0,3,60,0.0,0.0
5869,72.0,1,90,6.0,0.0
5870,60.0,0,90,6.0,0.0
5871,63.0,30,23,11.0,0.0
5872,60.0,1,0,4.0,0.0
5873,60.0,0,23,11.0,0.0
5874,75.0,3,0,1.0,0.0
5875,72.0,0,0,1.0,0.0
5876,48.0,2,0,5.0,0.0
5877,69.0,1,60,12.0,0.0
5878,60.0,3,60,3.0,0.0
5879,63.0,0,60,3.0,0.0
5880,60.0,2,60,13.0,0.0
5881,48.0,12,60,14.0,0.0
5882,48.0,11,90,15.0,0.0
5883,63.0,0,23,11.0,0.0
5884,60.0,4,23,11.0,0.0
5885,60.0,6,23,11.0,0.0
5886,63.0,0,23,11.0,0.0
5887,60.0,0,23,11.0,0.0
5888,63.0,30,23,11.0,0.0
5889,60.0,0,23,11.0,0.0
5890,63.0,30,23,11.0,0.0
5891,63.0,30,23,11.0,0.0
5892,60.0,0,23,11.0,0.0
5893,63.0,0,23,11.0,0.0
5894,60.0,30,23,11.0,0.0
5895,60.0,30,23,11.0,0.0
5896,63.0,0,23,11.0,0.0
5897,84.0,3,60,0.0,0.0
5898,72.0,1,90,6.0,0.0
5899,60.0,0,90,6.0,0.0
5900,60.0,0,23,11.0,0.0
5901,60.0,4,90,4.0,0.0
5902,63.0,30,23,11.0,0.0
5903,72.0,5,60,1.0,0.0
5904,48.0,8,90,5.0,0.0
5905,60.0,3,60,3.0,0.0
5906,57.0,2,60,13.0,0.0
5907,45.0,12,60,14.0,0.0
5908,48.0,11,90,15.0,0.0
5909,63.0,0,23,11.0,0.0
5910,60.0,5,23,11.0,0.0
5911,63.0,6,23,11.0,0.0
5912,60.0,0,23,11.0,0.0
5913,63.0,0,23,11.0,0.0
5914,60.0,30,23,11.0,0.0
5915,77.0,8,60,10.0,0.0
5916,86.0,0,360,0.0,0.0
5917,65.0,0,23,11.0,0.0
5918,62.0,30,23,11.0,0.0
5919,77.0,0,360,1.0,0.0
5920,74.0,5,360,1.0,0.0
5921,65.0,4,60,12.0,0.0
5922,62.0,0,360,3.0,0.0
5923,65.0,17,360,3.0,0.0
5924,56.0,2,60,13.0,0.0
5925,44.0,12,60,14.0,0.0
5926,65.0,0,23,11.0,0.0
5927,62.0,4,23,11.0,0.0
5928,65.0,0,23,11.0,0.0
5929,62.0,30,23,11.0,0.0
5930,65.0,0,23,11.0,0.0
5931,62.0,30,23,11.0,0.0
5932,65.0,30,23,11.0,0.0
5933,62.0,0,23,11.0,0.0
5934,62.0,0,23,11.0,0.0
5935,65.0,30,23,11.0,0.0
5936,62.0,30,23,11.0,0.0
5937,65.0,0,23,11.0,0.0
5938,62.0,30,23,11.0,0.0
5939,65.0,0,23,11.0,0.0
5940,74.0,8,60,10.0,0.0
5941,62.0,30,23,11.0,0.0
5942,65.0,0,23,11.0,0.0
5943,62.0,18,60,12.0,0.0
5944,65.0,0,23,11.0,0.0
5945,62.0,4,23,11.0,0.0
5946,65.0,30,23,11.0,0.0
5947,62.0,0,23,11.0,0.0
5948,62.0,0,23,11.0,0.0
5949,65.0,5,23,11.0,0.0
5950,71.0,1,60,10.0,0.0
5951,89.0,3,0,0.0,0.0
5952,86.0,3,60,0.0,0.0
5953,62.0,30,23,11.0,0.0
5954,65.0,0,23,11.0,0.0
5955,77.0,0,60,1.0,0.0
5956,74.0,4,60,1.0,0.0
5957,59.0,1,60,12.0,0.0
5958,62.0,0,60,3.0,0.0
5959,65.0,3,60,3.0,0.0
5960,62.0,2,60,13.0,0.0
5961,50.0,12,60,14.0,0.0
5962,65.0,4,23,11.0,0.0
5963,62.0,0,23,11.0,0.0
5964,65.0,0,23,11.0,0.0
5965,62.0,30,23,11.0,0.0
5966,65.0,30,23,11.0,0.0
5967,62.0,0,23,11.0,0.0
5968,65.0,0,23,11.0,0.0
5969,62.0,30,23,11.0,0.0
5970,62.0,0,23,11.0,0.0
5971,65.0,30,23,11.0,0.0
5972,65.0,30,23,11.0,0.0
5973,62.0,0,23,11.0,0.0
5974,65.0,30,23,11.0,0.0
5975,62.0,0,23,11.0,0.0
5976,86.0,3,60,0.0,0.0
5977,65.0,0,23,11.0,0.0
5978,62.0,30,23,11.0,0.0
5979,74.0,5,60,1.0,0.0
5980,62.0,3,60,3.0,0.0
5981,59.0,2,60,13.0,0.0
5982,47.0,12,60,14.0,0.0
5983,62.0,0,23,11.0,0.0
5984,65.0,5,23,11.0,0.0
5985,62.0,30,23,11.0,0.0
5986,65.0,0,23,11.0,0.0
5987,62.0,30,23,11.0,0.0
5988,65.0,0,23,11.0,0.0
5989,79.0,1,60,10.0,0.0
5990,91.0,0,60,0.0,0.0
5991,88.0,0,60,0.0,0.0
5992,67.0,5,23,11.0,0.0
5993,67.0,4,90,4.0,0.0
5994,79.0,1,60,1.0,0.0
5995,76.0,0,60,1.0,0.0
5996,67.0,4,60,2.0,0.0
5997,64.0,0,60,2.0,0.0
5998,67.0,19,90,5.0,0.0
5999,64.0,25,23,12.0,0.0
6000,64.0,0,60,3.0,0.0
6001,67.0,3,60,3.0,0.0
6002,55.0,2,60,13.0,0.0
6003,43.0,12,60,14.0,0.0
6004,67.0,4,23,11.0,0.0
6005,64.0,3,23,12.0,0.0
6006,67.0,5,23,11.0,0.0
6007,64.0,2,23,12.0,0.0
6008,67.0,5,23,11.0,0.0
6009,64.0,25,23,12.0,0.0
6010,67.0,5,23,11.0,0.0
6011,64.0,25,23,12.0,0.0
6012,67.0,5,23,11.0,0.0
6013,64.0,25,23,12.0,0.0
6014,67.0,5,23,11.0,0.0
6015,64.0,25,23,12.0,0.0
6016,67.0,5,23,11.0,0.0
6017,64.0,25,23,12.0,0.0
6018,76.0,1,60,10.0,0.0
6019,64.0,5,23,11.0,0.0
6020,61.0,25,23,12.0,0.0
6021,58.0,2,60,13.0,0.0
6022,46.0,12,60,14.0,0.0
6023,64.0,4,23,11.0,0.0
6024,61.0,11,23,12.0,0.0
6025,64.0,5,23,11.0,0.0
6026,61.0,25,23,12.0,0.0
6027,64.0,5,23,11.0,0.0
6028,61.0,25,23,12.0,0.0
6029,80.0,1,60,10.0,0.0
6030,92.0,3,60,0.0,0.0
6031,89.0,0,60,0.0,0.0
6032,65.0,4,90,4.0,0.0
6033,68.0,5,23,11.0,0.0
6034,77.0,1,60,1.0,0.0
6035,80.0,0,60,1.0,0.0
6036,68.0,4,60,2.0,0.0
6037,65.0,0,60,2.0,0.0
6038,53.0,19,90,5.0,0.0
6039,65.0,25,23,12.0,0.0
6040,56.0,3,60,3.0,0.0
6041,53.0,0,60,3.0,0.0
6042,53.0,2,60,13.0,0.0
6043,41.0,12,60,14.0,0.0
6044,68.0,4,23,11.0,0.0
6045,65.0,0,23,12.0,0.0
6046,68.0,5,23,11.0,0.0
6047,65.0,2,23,12.0,0.0
6048,68.0,5,23,11.0,0.0
6049,65.0,25,23,12.0,0.0
6050,68.0,5,23,11.0,0.0
6051,65.0,25,23,12.0,0.0
6052,68.0,5,23,11.0,0.0
6053,65.0,25,23,12.0,0.0
6054,68.0,5,23,11.0,0.0
6055,65.0,25,23,12.0,0.0
6056,68.0,5,23,11.0,0.0
6057,65.0,25,23,12.0,0.0
6058,77.0,1,60,10.0,0.0
6059,65.0,5,23,11.0,0.0
6060,62.0,25,23,12.0,0.0
6061,56.0,2,60,13.0,0.0
6062,44.0,12,60,14.0,0.0
6063,65.0,4,23,11.0,0.0
6064,62.0,11,23,12.0,0.0
6065,65.0,5,23,11.0,0.0
6066,62.0,25,23,12.0,0.0
6067,65.0,5,23,11.0,0.0
6068,62.0,25,23,12.0,0.0
6069,81.0,1,60,10.0,0.0
6070,93.0,0,60,0.0,0.0
6071,90.0,0,60,0.0,0.0
6072,60.0,1,90,6.0,0.0
6073,72.0,0,90,6.0,0.0
6074,60.0,4,90,4.0,0.0
6075,69.0,5,23,11.0,0.0
6076,81.0,1,60,1.0,0.0
6077,78.0,0,60,1.0,0.0
6078,69.0,4,60,2.0,0.0
6079,66.0,0,60,2.0,0.0
6080,48.0,8,90,5.0,0.0
6081,66.0,25,23,12.0,0.0
6082,63.0,3,60,3.0,0.0
6083,60.0,0,60,3.0,0.0
6084,51.0,2,60,13.0,0.0
6085,39.0,12,60,14.0,0.0
6086,48.0,11,90,15.0,0.0
6087,69.0,4,23,11.0,0.0
6088,66.0,3,23,12.0,0.0
6089,69.0,5,23,11.0,0.0
6090,66.0,1,23,12.0,0.0
6091,69.0,5,23,11.0,0.0
6092,66.0,25,23,12.0,0.0
6093,69.0,5,23,11.0,0.0
6094,66.0,25,23,12.0,0.0
6095,69.0,5,23,11.0,0.0
6096,66.0,25,23,12.0,0.0
6097,69.0,5,23,11.0,0.0
6098,66.0,25,23,12.0,0.0
6099,69.0,5,23,11.0,0.0
6100,66.0,25,23,12.0,0.0
6101,78.0,1,60,10.0,0.0
6102,66.0,5,23,11.0,0.0
6103,57.0,25,23,12.0,0.0
6104,60.0,2,60,13.0,0.0
6105,48.0,12,60,14.0,0.0
6106,66.0,4,23,11.0,0.0
6107,57.0,11,23,12.0,0.0
6108,66.0,5,23,11.0,0.0
6109,57.0,25,23,12.0,0.0
6110,66.0,5,23,11.0,0.0
6111,57.0,25,23,12.0,0.0
6112,83.0,1,60,10.0,0.0
6113,79.0,0,60,0.0,0.0
6114,91.0,3,60,0.0,0.0
6115,65.0,1,90,6.0,0.0
6116,71.0,5,23,11.0,0.0
6117,67.0,4,90,4.0,0.0
6118,79.0,0,60,1.0,0.0
6119,83.0,1,60,1.0,0.0
6120,67.0,4,60,2.0,0.0
6121,71.0,0,60,2.0,0.0
6122,67.0,8,90,5.0,0.0
6123,67.0,25,23,12.0,0.0
6124,59.0,3,60,3.0,0.0
6125,62.0,0,60,3.0,0.0
6126,50.0,2,60,13.0,0.0
6127,38.0,12,60,14.0,0.0
6128,41.0,11,90,15.0,0.0
6129,71.0,4,23,11.0,0.0
6130,67.0,0,23,12.0,0.0
6131,71.0,5,23,11.0,0.0
6132,67.0,1,23,12.0,0.0
6133,71.0,5,23,11.0,0.0
6134,67.0,25,23,12.0,0.0
6135,71.0,5,23,11.0,0.0
6136,67.0,25,23,12.0,0.0
6137,71.0,5,23,11.0,0.0
6138,67.0,25,23,12.0,0.0
6139,71.0,5,23,11.0,0.0
6140,67.0,25,23,12.0,0.0
6141,71.0,5,23,11.0,0.0
6142,67.0,25,23,12.0,0.0
6143,79.0,1,60,10.0,0.0
6144,79.0,3,60,0.0,0.0
6145,91.0,0,60,0.0,0.0
6146,67.0,5,23,11.0,0.0
6147,83.0,1,60,1.0,0.0
6148,79.0,0,60,1.0,0.0
6149,71.0,0,60,2.0,0.0
6150,67.0,4,60,2.0,0.0
6151,59.0,25,23,12.0,0.0
6152,62.0,0,23,12.0,0.0
6153,59.0,3,60,3.0,0.0
6154,62.0,0,60,3.0,0.0
6155,59.0,2,60,13.0,0.0
6156,47.0,12,60,14.0,0.0
6157,67.0,4,23,11.0,0.0
6158,59.0,0,23,12.0,0.0
6159,62.0,0,23,12.0,0.0
6160,67.0,5,23,11.0,0.0
6161,62.0,25,23,12.0,0.0
6162,59.0,0,23,12.0,0.0
6163,67.0,5,23,11.0,0.0
6164,59.0,0,23,12.0,0.0
6165,62.0,25,23,12.0,0.0
6166,83.0,1,60,10.0,0.0
6167,91.0,0,60,0.0,0.0
6168,86.0,3,60,0.0,0.0
6169,65.0,1,90,6.0,0.0
6170,71.0,5,23,11.0,0.0
6171,67.0,4,90,4.0,0.0
6172,79.0,1,60,1.0,0.0
6173,83.0,0,60,1.0,0.0
6174,74.0,0,60,2.0,0.0
6175,71.0,4,60,2.0,0.0
6176,67.0,8,90,5.0,0.0
6177,67.0,25,23,12.0,0.0
6178,62.0,0,60,3.0,0.0
6179,59.0,3,60,3.0,0.0
6180,50.0,2,60,13.0,0.0
6181,38.0,12,60,14.0,0.0
6182,41.0,11,90,15.0,0.0
6183,71.0,4,23,11.0,0.0
6184,67.0,0,23,12.0,0.0
6185,71.0,5,23,11.0,0.0
6186,67.0,1,23,12.0,0.0
6187,71.0,5,23,11.0,0.0
6188,67.0,25,23,12.0,0.0
6189,71.0,5,23,11.0,0.0
6190,67.0,25,23,12.0,0.0
6191,71.0,5,23,11.0,0.0
6192,67.0,25,23,12.0,0.0
6193,71.0,5,23,11.0,0.0
6194,67.0,25,23,12.0,0.0
6195,71.0,5,23,11.0,0.0
6196,67.0,25,23,12.0,0.0
6197,79.0,1,60,10.0,0.0
6198,91.0,3,60,0.0,0.0
6199,86.0,0,60,0.0,0.0
6200,65.0,1,90,6.0,0.0
6201,67.0,5,23,11.0,0.0
6202,67.0,4,90,4.0,0.0
6203,83.0,0,60,1.0,0.0
6204,79.0,1,60,1.0,0.0
6205,74.0,0,60,2.0,0.0
6206,71.0,4,60,2.0,0.0
6207,67.0,8,90,5.0,0.0
6208,62.0,0,23,12.0,0.0
6209,59.0,25,23,12.0,0.0
6210,59.0,0,60,3.0,0.0
6211,62.0,3,60,3.0,0.0
6212,53.0,2,60,13.0,0.0
6213,41.0,12,60,14.0,0.0
6214,41.0,11,90,15.0,0.0
6215,67.0,4,23,11.0,0.0
6216,62.0,0,23,12.0,0.0
6217,59.0,0,23,12.0,0.0
6218,67.0,5,23,11.0,0.0
6219,62.0,1,23,12.0,0.0
6220,59.0,0,23,12.0,0.0
6221,67.0,5,23,11.0,0.0
6222,59.0,0,23,12.0,0.0
6223,62.0,25,23,12.0,0.0
6224,84.0,1,60,10.0,0.0
6225,88.0,0,60,0.0,0.0
6226,91.0,0,60,0.0,0.0
6227,72.0,0,90,6.0,0.0
6228,60.0,1,90,6.0,0.0
6229,67.0,4,90,4.0,0.0
6230,72.0,5,23,11.0,0.0
6231,79.0,0,60,1.0,0.0
6232,84.0,1,60,1.0,0.0
6233,76.0,4,60,2.0,0.0
6234,72.0,0,60,2.0,0.0
6235,67.0,8,90,5.0,0.0
6236,60.0,25,23,12.0,0.0
6237,60.0,0,60,3.0,0.0
6238,64.0,3,60,3.0,0.0
6239,52.0,2,60,13.0,0.0
6240,40.0,12,60,14.0,0.0
6241,48.0,11,90,15.0,0.0
6242,72.0,4,23,11.0,0.0
6243,60.0,3,23,12.0,0.0
6244,72.0,5,23,11.0,0.0
6245,60.0,1,23,12.0,0.0
6246,72.0,5,23,11.0,0.0
6247,60.0,25,23,12.0,0.0
6248,72.0,5,23,11.0,0.0
6249,60.0,25,23,12.0,0.0
6250,72.0,5,23,11.0,0.0
6251,60.0,25,23,12.0,0.0
6252,72.0,5,23,11.0,0.0
6253,60.0,25,23,12.0,0.0
6254,72.0,5,23,11.0,0.0
6255,60.0,25,23,12.0,0.0
6256,81.0,1,60,10.0,0.0
6257,93.0,0,60,0.0,0.0
6258,81.0,3,60,0.0,0.0
6259,60.0,1,90,6.0,0.0
6260,72.0,0,90,6.0,0.0
6261,69.0,5,23,11.0,0.0
6262,69.0,4,90,4.0,0.0
6263,81.0,1,60,1.0,0.0
6264,81.0,4,60,2.0,0.0
6265,69.0,0,60,2.0,0.0
6266,57.0,8,90,5.0,0.0
6267,57.0,25,23,12.0,0.0
6268,57.0,3,60,3.0,0.0
6269,57.0,2,60,13.0,0.0
6270,45.0,12,60,14.0,0.0
6271,48.0,11,90,15.0,0.0
6272,69.0,4,23,11.0,0.0
6273,57.0,0,23,12.0,0.0
6274,69.0,5,23,11.0,0.0
6275,57.0,1,23,12.0,0.0
6276,69.0,5,23,11.0,0.0
6277,57.0,25,23,12.0,0.0
6278,77.0,1,60,10.0,0.0
6279,89.0,3,60,0.0,0.0
6280,77.0,0,60,0.0,0.0
6281,72.0,1,90,6.0,0.0
6282,60.0,0,90,6.0,0.0
6283,65.0,5,23,11.0,0.0
6284,65.0,4,90,4.0,0.0
6285,77.0,1,60,1.0,0.0
6286,65.0,4,60,2.0,0.0
6287,77.0,0,60,2.0,0.0
6288,53.0,8,90,5.0,0.0
6289,53.0,25,23,12.0,0.0
6290,65.0,0,60,3.0,0.0
6291,53.0,3,60,3.0,0.0
6292,53.0,2,60,13.0,0.0
6293,41.0,12,60,14.0,0.0
6294,41.0,11,90,15.0,0.0
6295,65.0,4,23,11.0,0.0
6296,53.0,0,23,12.0,0.0
6297,65.0,5,23,11.0,0.0
6298,53.0,1,23,12.0,0.0
6299,65.0,5,23,11.0,0.0
6300,53.0,25,23,12.0,0.0
6301,65.0,5,23,11.0,0.0
6302,53.0,25,23,12.0,0.0
6303,65.0,5,23,11.0,0.0
6304,53.0,25,23,12.0,0.0
6305,65.0,5,23,11.0,0.0
6306,53.0,25,23,12.0,0.0
6307,65.0,5,23,11.0,0.0
6308,53.0,25,23,12.0,0.0
6309,74.0,1,60,10.0,0.0
6310,86.0,0,60,0.0,0.0
6311,74.0,3,60,0.0,0.0
6312,60.0,13,90,6.0,0.0
6313,72.0,0,90,6.0,0.0
6314,62.0,5,23,11.0,0.0
6315,74.0,1,60,1.0,0.0
6316,62.0,0,60,2.0,0.0
6317,74.0,4,60,2.0,0.0
6318,50.0,25,23,12.0,0.0
6319,62.0,0,60,3.0,0.0
6320,50.0,3,60,3.0,0.0
6321,50.0,2,60,13.0,0.0
6322,38.0,12,60,14.0,0.0
6323,41.0,11,90,15.0,0.0
6324,62.0,4,23,11.0,0.0
6325,50.0,0,23,12.0,0.0
6326,62.0,5,23,11.0,0.0
6327,50.0,1,23,12.0,0.0
6328,62.0,5,23,11.0,0.0
6329,50.0,25,23,12.0,0.0
6330,79.0,1,60,10.0,0.0
6331,79.0,0,60,0.0,0.0
6332,91.0,3,60,0.0,0.0
6333,79.0,1,90,6.0,0.0
6334,67.0,4,90,4.0,0.0
6335,67.0,5,23,11.0,0.0
6336,79.0,1,60,1.0,0.0
6337,67.0,4,60,2.0,0.0
6338,79.0,0,60,2.0,0.0
6339,67.0,19,90,5.0,0.0
6340,55.0,25,23,12.0,0.0
6341,55.0,3,60,3.0,0.0
6342,67.0,0,60,3.0,0.0
6343,55.0,2,60,13.0,0.0
6344,43.0,12,60,14.0,0.0
6345,67.0,4,23,11.0,0.0
6346,55.0,0,23,12.0,0.0
6347,67.0,5,23,11.0,0.0
6348,55.0,1,23,12.0,0.0
6349,67.0,5,23,11.0,0.0
6350,55.0,25,23,12.0,0.0
6351,67.0,5,23,11.0,0.0
6352,55.0,25,23,12.0,0.0
6353,67.0,5,23,11.0,0.0
6354,55.0,25,23,12.0,0.0
6355,67.0,5,23,11.0,0.0
6356,55.0,25,23,12.0,0.0
6357,67.0,5,23,11.0,0.0
6358,55.0,25,23,12.0,0.0
6359,67.0,1,60,10.0,0.0
6360,79.0,0,60,0.0,0.0
6361,79.0,1,90,6.0,0.0
6362,67.0,4,90,4.0,0.0
6363,55.0,5,23,11.0,0.0
6364,67.0,1,60,1.0,0.0
6365,67.0,4,60,2.0,0.0
6366,67.0,19,90,5.0,0.0
6367,55.0,25,23,12.0,0.0
6368,55.0,0,60,3.0,0.0
6369,43.0,3,60,3.0,0.0
6370,43.0,2,60,13.0,0.0
6371,31.0,12,60,14.0,0.0
6372,55.0,4,23,11.0,0.0
6373,55.0,3,23,12.0,0.0
6374,55.0,5,23,11.0,0.0
6375,55.0,1,23,12.0,0.0
6376,55.0,5,23,11.0,0.0
6377,55.0,79,23,12.0,0.0
6378,76.0,3,80,10.0,0.0
6379,84.0,1,85,0.0,0.0
6380,88.0,0,85,0.0,0.0
6381,72.0,1,85,6.0,0.0
6382,60.0,0,85,6.0,0.0
6383,67.0,3,80,11.0,0.0
6384,60.0,0,85,4.0,0.0
6385,76.0,1,85,1.0,0.0
6386,72.0,0,85,1.0,0.0
6387,67.0,0,85,2.0,0.0
6388,64.0,2,85,2.0,0.0
6389,48.0,0,85,5.0,0.0
6390,60.0,1,80,12.0,0.0
6391,64.0,0,85,3.0,0.0
6392,60.0,6,85,3.0,0.0
6393,48.0,2,80,13.0,0.0
6394,36.0,0,80,14.0,0.0
6395,48.0,13,85,15.0,0.0
6396,76.0,3,23,10.0,0.0
6397,84.0,0,25,0.0,0.0
6398,88.0,0,25,0.0,0.0
6399,72.0,1,25,6.0,0.0
6400,60.0,0,25,6.0,0.0
6401,67.0,1,23,11.0,0.0
6402,60.0,1,25,4.0,0.0
6403,72.0,0,25,1.0,0.0
6404,76.0,1,25,1.0,0.0
6405,64.0,1,25,2.0,0.0
6406,67.0,0,25,2.0,0.0
6407,48.0,2,25,5.0,0.0
6408,60.0,1,23,12.0,0.0
6409,60.0,1,25,3.0,0.0
6410,64.0,0,25,3.0,0.0
6411,48.0,2,23,13.0,0.0
6412,36.0,3,23,14.0,0.0
6413,48.0,50,25,15.0,0.0
6414,74.0,1,60,10.0,0.0
6415,86.0,0,60,0.0,0.0
6416,83.0,2,60,0.0,0.0
6417,72.0,1,90,6.0,0.0
6418,60.0,0,90,6.0,0.0
6419,60.0,4,90,4.0,0.0
6420,68.0,1,60,11.0,0.0
6421,74.0,0,60,1.0,0.0
6422,71.0,1,60,1.0,0.0
6423,68.0,0,60,2.0,0.0
6424,65.0,3,60,2.0,0.0
6425,48.0,8,90,5.0,0.0
6426,59.0,1,60,12.0,0.0
6427,62.0,0,60,3.0,0.0
6428,59.0,3,60,3.0,0.0
6429,41.0,2,60,13.0,0.0
6430,29.0,18,60,14.0,0.0
6431,41.0,95,90,15.0,0.0
6432,77.0,3,80,10.0,0.0
6433,89.0,1,85,0.0,0.0
6434,86.0,0,85,0.0,0.0
6435,60.0,0,85,6.0,0.0
6436,72.0,1,85,6.0,0.0
6437,68.0,3,80,11.0,0.0
6438,60.0,1,85,4.0,0.0
6439,74.0,1,85,1.0,0.0
6440,77.0,0,85,1.0,0.0
6441,65.0,0,85,2.0,0.0
6442,68.0,2,85,2.0,0.0
6443,48.0,0,85,5.0,0.0
6444,59.0,0,80,12.0,0.0
6445,59.0,6,85,3.0,0.0
6446,62.0,0,85,3.0,0.0
6447,41.0,2,80,13.0,0.0
6448,29.0,0,80,14.0,0.0
6449,41.0,13,85,15.0,0.0
6450,77.0,3,23,10.0,0.0
6451,86.0,1,25,0.0,0.0
6452,89.0,0,25,0.0,0.0
6453,72.0,1,25,6.0,0.0
6454,60.0,0,25,6.0,0.0
6455,68.0,0,23,11.0,0.0
6456,60.0,1,25,4.0,0.0
6457,77.0,0,25,1.0,0.0
6458,74.0,1,25,1.0,0.0
6459,65.0,1,25,2.0,0.0
6460,68.0,0,25,2.0,0.0
6461,48.0,2,25,5.0,0.0
6462,59.0,1,23,12.0,0.0
6463,62.0,0,25,3.0,0.0
6464,59.0,1,25,3.0,0.0
6465,41.0,2,23,13.0,0.0
6466,29.0,3,23,14.0,0.0
6467,41.0,50,25,15.0,0.0
6468,76.0,1,60,10.0,0.0
6469,88.0,2,60,0.0,0.0
6470,84.0,0,60,0.0,0.0
6471,60.0,1,90,6.0,0.0
6472,72.0,0,90,6.0,0.0
6473,60.0,4,90,4.0,0.0
6474,67.0,1,60,11.0,0.0
6475,72.0,1,60,1.0,0.0
6476,76.0,0,60,1.0,0.0
6477,67.0,3,60,2.0,0.0
6478,64.0,0,60,2.0,0.0
6479,48.0,8,90,5.0,0.0
6480,60.0,1,60,12.0,0.0
6481,60.0,3,60,3.0,0.0
6482,64.0,0,60,3.0,0.0
6483,48.0,2,60,13.0,0.0
6484,36.0,18,60,14.0,0.0
6485,48.0,95,90,15.0,0.0
6486,81.0,3,80,10.0,0.0
6487,93.0,0,85,0.0,0.0
6488,89.0,1,85,0.0,0.0
6489,72.0,0,85,6.0,0.0
6490,60.0,1,85,6.0,0.0
6491,60.0,0,85,4.0,0.0
6492,69.0,3,80,11.0,0.0
6493,81.0,0,85,1.0,0.0
6494,77.0,1,85,1.0,0.0
6495,65.0,2,85,2.0,0.0
6496,69.0,0,85,2.0,0.0
6497,48.0,0,85,5.0,0.0
6498,60.0,1,80,12.0,0.0
6499,53.0,6,85,3.0,0.0
6500,57.0,0,85,3.0,0.0
6501,41.0,2,80,13.0,0.0
6502,29.0,0,80,14.0,0.0
6503,41.0,13,85,15.0,0.0
6504,81.0,3,23,10.0,0.0
6505,93.0,1,25,0.0,0.0
6506,89.0,0,25,0.0,0.0
6507,72.0,0,25,6.0,0.0
6508,60.0,1,25,6.0,0.0
6509,71.0,0,23,11.0,0.0
6510,60.0,1,25,4.0,0.0
6511,81.0,1,25,1.0,0.0
6512,77.0,0,25,1.0,0.0
6513,65.0,1,25,2.0,0.0
6514,69.0,0,25,2.0,0.0
6515,48.0,2,25,5.0,0.0
6516,62.0,1,23,12.0,0.0
6517,57.0,0,25,3.0,0.0
6518,53.0,1,25,3.0,0.0
6519,41.0,2,23,13.0,0.0
6520,29.0,3,23,14.0,0.0
6521,41.0,50,25,15.0,0.0
6522,79.0,1,60,10.0,0.0
6523,91.0,2,60,0.0,0.0
6524,88.0,0,60,0.0,0.0
6525,72.0,1,90,6.0,0.0
6526,60.0,0,90,6.0,0.0
6527,72.0,1,60,11.0,0.0
6528,60.0,4,90,4.0,0.0
6529,79.0,1,60,1.0,0.0
6530,76.0,0,60,1.0,0.0
6531,67.0,0,60,2.0,0.0
6532,64.0,3,60,2.0,0.0
6533,48.0,8,90,5.0,0.0
6534,64.0,1,60,12.0,0.0
6535,52.0,0,60,3.0,0.0
6536,55.0,3,60,3.0,0.0
6537,48.0,2,60,13.0,0.0
6538,36.0,18,60,14.0,0.0
6539,48.0,95,90,15.0,0.0
6540,81.0,3,80,10.0,0.0
6541,93.0,1,85,0.0,0.0
6542,89.0,0,85,0.0,0.0
6543,72.0,1,85,6.0,0.0
6544,60.0,0,85,6.0,0.0
6545,69.0,3,80,11.0,0.0
6546,60.0,0,85,4.0,0.0
6547,81.0,1,85,1.0,0.0
6548,77.0,0,85,1.0,0.0
6549,69.0,2,85,2.0,0.0
6550,65.0,0,85,2.0,0.0
6551,48.0,2,85,5.0,0.0
6552,60.0,1,80,12.0,0.0
6553,53.0,6,85,3.0,0.0
6554,57.0,0,85,3.0,0.0
6555,41.0,0,80,13.0,0.0
6556,29.0,0,80,14.0,0.0
6557,41.0,13,85,15.0,0.0
6558,81.0,3,23,10.0,0.0
6559,89.0,0,25,0.0,0.0
6560,93.0,0,25,0.0,0.0
6561,72.0,1,25,6.0,0.0
6562,60.0,0,25,6.0,0.0
6563,71.0,1,23,11.0,0.0
6564,60.0,1,25,4.0,0.0
6565,81.0,1,25,1.0,0.0
6566,77.0,0,25,1.0,0.0
6567,65.0,0,25,2.0,0.0
6568,69.0,1,25,2.0,0.0
6569,48.0,2,25,5.0,0.0
6570,62.0,1,23,12.0,0.0
6571,57.0,0,25,3.0,0.0
6572,53.0,1,25,3.0,0.0
6573,41.0,2,23,13.0,0.0
6574,29.0,3,23,14.0,0.0
6575,41.0,50,25,15.0,0.0
6576,79.0,1,60,10.0,0.0
6577,91.0,0,60,0.0,0.0
6578,88.0,2,60,0.0,0.0
6579,60.0,1,90,6.0,0.0
6580,72.0,0,90,6.0,0.0
6581,72.0,1,60,11.0,0.0
6582,60.0,4,90,4.0,0.0
6583,79.0,0,60,1.0,0.0
6584,76.0,1,60,1.0,0.0
6585,64.0,0,60,2.0,0.0
6586,67.0,3,60,2.0,0.0
6587,48.0,8,90,5.0,0.0
6588,64.0,1,60,12.0,0.0
6589,52.0,3,60,3.0,0.0
6590,55.0,0,60,3.0,0.0
6591,48.0,2,60,13.0,0.0
6592,36.0,18,60,14.0,0.0
6593,48.0,136,90,15.0,0.0
6594,91.0,3,120,0.0,0.0
6595,79.0,237,120,1.0,0.0
6596,90.0,3,240,0.0,0.0
6597,78.0,117,240,1.0,0.0
6598,91.0,2,120,0.0,0.0
6599,64.0,1,120,11.0,0.0
6600,79.0,116,120,1.0,0.0
6601,55.0,0,1440,3.0,0.0
6602,89.0,2,240,0.0,0.0
6603,62.0,57,120,11.0,0.0
6604,77.0,56,240,1.0,0.0
6605,77.0,3,60,10.0,0.0
6606,72.0,60,60,10.0,0.0
6607,59.0,1,120,11.0,0.0
6608,74.0,1,60,10.0,0.0
6609,76.0,60,60,10.0,0.0
6610,88.0,2,120,0.0,0.0
6611,60.0,1,120,11.0,0.0
6612,76.0,5,120,1.0,0.0
6613,67.0,111,120,3.0,0.0
6614,72.0,1,60,10.0,0.0
6615,86.0,2,240,0.0,0.0
6616,74.0,5,240,1.0,0.0
6617,65.0,51,240,3.0,0.0
6618,74.0,60,60,10.0,0.0
6619,69.0,60,60,10.0,0.0
6620,62.0,1,120,11.0,0.0
6621,71.0,1,60,10.0,0.0
6622,72.0,60,60,10.0,0.0
6623,84.0,2,120,0.0,0.0
6624,64.0,1,120,11.0,0.0
6625,67.0,1,840,4.0,0.0
6626,72.0,1,120,1.0,0.0
6627,79.0,0,120,2.0,0.0
6628,67.0,4,120,2.0,0.0
6629,67.0,2,840,5.0,0.0
6630,64.0,114,120,3.0,0.0
6631,67.0,1,60,10.0,0.0
6632,83.0,2,240,0.0,0.0
6633,71.0,1,240,1.0,0.0
6634,65.0,0,240,2.0,0.0
6635,77.0,4,240,2.0,0.0
6636,62.0,54,240,3.0,0.0
6637,65.0,60,60,11.0,0.0
6638,71.0,1,120,10.0,0.0
6639,60.0,57,60,11.0,0.0
6640,62.0,1,60,11.0,0.0
6641,72.0,1,120,10.0,0.0
6642,84.0,2,120,0.0,0.0
6643,64.0,57,60,11.0,0.0
6644,72.0,1,120,1.0,0.0
6645,64.0,0,120,2.0,0.0
6646,76.0,4,120,2.0,0.0
6647,60.0,114,120,3.0,0.0
6648,60.0,1,60,11.0,0.0
6649,86.0,2,240,0.0,0.0
6650,74.0,1,240,1.0,0.0
6651,74.0,0,240,2.0,0.0
6652,62.0,4,240,2.0,0.0
6653,59.0,54,240,3.0,0.0
6654,62.0,60,60,11.0,0.0
6655,74.0,1,120,10.0,0.0
6656,57.0,57,60,11.0,0.0
6657,59.0,1,60,11.0,0.0
6658,76.0,1,120,10.0,0.0
6659,84.0,2,360,0.0,0.0
6660,88.0,2,120,0.0,0.0
6661,60.0,57,60,11.0,0.0
6662,76.0,3,120,1.0,0.0
6663,72.0,0,115,2.0,0.0
6664,60.0,0,115,2.0,0.0
6665,58.0,0,120,3.0,0.0
6666,55.0,111,120,3.0,0.0
6667,55.0,0,60,11.0,0.0
6668,89.0,4,235,0.0,0.0
6669,69.0,0,120,4.0,0.0
6670,77.0,1,240,1.0,0.0
6671,60.0,0,240,2.0,0.0
6672,72.0,4,240,2.0,0.0
6673,65.0,53,120,5.0,0.0
6674,57.0,51,240,3.0,0.0
6675,53.0,0,240,3.0,0.0
6676,81.0,3,60,10.0,0.0
6677,69.0,4,60,11.0,0.0
6678,76.0,3,60,10.0,0.0
6679,64.0,53,60,11.0,0.0
6680,77.0,1,60,10.0,0.0
6681,65.0,1,60,11.0,0.0
6682,79.0,3,60,10.0,0.0
6683,86.0,0,120,0.0,0.0
6684,89.0,2,120,0.0,0.0
6685,67.0,6,60,11.0,0.0
6686,81.0,1,120,1.0,0.0
6687,65.0,0,120,2.0,0.0
6688,69.0,4,120,2.0,0.0
6689,65.0,51,60,3.0,0.0
6690,50.0,111,120,3.0,0.0
6691,81.0,1,60,10.0,0.0
6692,69.0,1,60,11.0,0.0
6693,62.0,0,60,3.0,0.0
6694,84.0,0,240,0.0,0.0
6695,88.0,2,240,0.0,0.0
6696,79.0,1,240,1.0,0.0
6697,67.0,0,240,2.0,0.0
6698,64.0,4,240,2.0,0.0
6699,67.0,0,240,3.0,0.0
6700,81.0,3,60,10.0,0.0
6701,69.0,57,60,11.0,0.0
6702,78.0,3,60,10.0,0.0
6703,66.0,57,60,11.0,0.0
6704,79.0,1,60,10.0,0.0
6705,67.0,1,60,11.0,0.0
6706,81.0,3,60,10.0,0.0
6707,86.0,3,115,0.0,0.0
6708,83.0,0,115,0.0,0.0
6709,69.0,53,60,11.0,0.0
6710,77.0,1,115,1.0,0.0
6711,62.0,0,115,2.0,0.0
6712,71.0,0,115,2.0,0.0
6713,55.0,51,0,3.0,0.0
6714,43.0,0,115,3.0,0.0
6715,79.0,3,60,10.0,0.0
6716,76.0,3,80,10.0,0.0
6717,84.0,0,85,0.0,0.0
6718,88.0,1,85,0.0,0.0
6719,60.0,1,85,6.0,0.0
6720,72.0,0,85,6.0,0.0
6721,67.0,1,0,11.0,0.0
6722,60.0,0,85,4.0,0.0
6723,76.0,1,85,1.0,0.0
6724,72.0,0,85,1.0,0.0
6725,64.0,0,85,2.0,0.0
6726,67.0,2,85,2.0,0.0
6727,48.0,2,85,5.0,0.0
6728,60.0,1,80,12.0,0.0
6729,60.0,0,85,3.0,0.0
6730,64.0,0,85,3.0,0.0
6731,48.0,0,80,13.0,0.0
6732,36.0,6,80,14.0,0.0
6733,48.0,13,85,15.0,0.0
6734,76.0,3,23,10.0,0.0
6735,88.0,1,25,0.0,0.0
6736,84.0,0,25,0.0,0.0
6737,72.0,1,25,6.0,0.0
6738,60.0,0,25,6.0,0.0
6739,60.0,1,25,4.0,0.0
6740,67.0,0,23,11.0,0.0
6741,72.0,0,25,1.0,0.0
6742,76.0,1,25,1.0,0.0
6743,67.0,1,25,2.0,0.0
6744,64.0,0,25,2.0,0.0
6745,48.0,2,25,5.0,0.0
6746,60.0,1,23,12.0,0.0
6747,64.0,1,25,3.0,0.0
6748,60.0,0,25,3.0,0.0
6749,48.0,2,23,13.0,0.0
6750,36.0,3,23,14.0,0.0
6751,48.0,50,25,15.0,0.0
6752,74.0,1,60,10.0,0.0
6753,86.0,2,60,0.0,0.0
6754,83.0,0,60,0.0,0.0
6755,72.0,0,90,6.0,0.0
6756,60.0,1,90,6.0,0.0
6757,68.0,1,60,11.0,0.0
6758,60.0,4,90,4.0,0.0
6759,71.0,1,60,1.0,0.0
6760,74.0,0,60,1.0,0.0
6761,68.0,0,60,2.0,0.0
6762,65.0,3,60,2.0,0.0
6763,48.0,8,90,5.0,0.0
6764,59.0,1,60,12.0,0.0
6765,62.0,0,60,3.0,0.0
6766,59.0,3,60,3.0,0.0
6767,41.0,2,60,13.0,0.0
6768,29.0,18,60,14.0,0.0
6769,41.0,95,90,15.0,0.0
6770,77.0,3,80,10.0,0.0
6771,89.0,0,85,0.0,0.0
6772,86.0,1,85,0.0,0.0
6773,60.0,1,85,6.0,0.0
6774,72.0,0,85,6.0,0.0
6775,60.0,1,85,4.0,0.0
6776,68.0,3,80,11.0,0.0
6777,77.0,1,85,1.0,0.0
6778,74.0,0,85,1.0,0.0
6779,68.0,0,85,2.0,0.0
6780,65.0,2,85,2.0,0.0
6781,48.0,2,85,5.0,0.0
6782,59.0,0,80,12.0,0.0
6783,59.0,0,85,3.0,0.0
6784,62.0,0,85,3.0,0.0
6785,41.0,0,80,13.0,0.0
6786,29.0,6,80,14.0,0.0
6787,41.0,13,85,15.0,0.0
6788,77.0,3,23,10.0,0.0
6789,89.0,0,25,0.0,0.0
6790,86.0,0,25,0.0,0.0
6791,72.0,0,25,6.0,0.0
6792,60.0,1,25,6.0,0.0
6793,68.0,1,23,11.0,0.0
6794,60.0,1,25,4.0,0.0
6795,77.0,0,25,1.0,0.0
6796,74.0,1,25,1.0,0.0
6797,65.0,0,25,2.0,0.0
6798,68.0,1,25,2.0,0.0
6799,48.0,2,25,5.0,0.0
6800,59.0,1,23,12.0,0.0
6801,59.0,1,25,3.0,0.0
6802,62.0,0,25,3.0,0.0
6803,41.0,2,23,13.0,0.0
6804,29.0,3,23,14.0,0.0
6805,41.0,50,25,15.0,0.0
6806,76.0,1,60,10.0,0.0
6807,84.0,0,60,0.0,0.0
6808,88.0,2,60,0.0,0.0
6809,60.0,1,90,6.0,0.0
6810,72.0,0,90,6.0,0.0
6811,67.0,1,60,11.0,0.0
6812,60.0,4,90,4.0,0.0
6813,76.0,0,60,1.0,0.0
6814,72.0,1,60,1.0,0.0
6815,67.0,3,60,2.0,0.0
6816,64.0,0,60,2.0,0.0
6817,48.0,8,90,5.0,0.0
6818,60.0,1,60,12.0,0.0
6819,60.0,3,60,3.0,0.0
6820,64.0,0,60,3.0,0.0
6821,48.0,2,60,13.0,0.0
6822,36.0,18,60,14.0,0.0
6823,48.0,95,90,15.0,0.0
6824,81.0,3,80,10.0,0.0
6825,93.0,0,85,0.0,0.0
6826,89.0,1,85,0.0,0.0
6827,60.0,1,85,6.0,0.0
6828,72.0,0,85,6.0,0.0
6829,60.0,0,85,4.0,0.0
6830,69.0,3,80,11.0,0.0
6831,81.0,0,85,1.0,0.0
6832,77.0,1,85,1.0,0.0
6833,69.0,2,85,2.0,0.0
6834,65.0,0,85,2.0,0.0
6835,48.0,0,85,5.0,0.0
6836,60.0,1,80,12.0,0.0
6837,57.0,0,85,3.0,0.0
6838,53.0,0,85,3.0,0.0
6839,41.0,2,80,13.0,0.0
6840,29.0,6,80,14.0,0.0
6841,41.0,13,85,15.0,0.0
6842,81.0,3,23,10.0,0.0
6843,89.0,1,25,0.0,0.0
6844,93.0,0,25,0.0,0.0
6845,60.0,1,25,6.0,0.0
6846,72.0,0,25,6.0,0.0
6847,60.0,1,25,4.0,0.0
6848,71.0,0,23,11.0,0.0
6849,81.0,1,25,1.0,0.0
6850,77.0,0,25,1.0,0.0
6851,65.0,1,25,2.0,0.0
6852,69.0,0,25,2.0,0.0
6853,48.0,2,25,5.0,0.0
6854,62.0,1,23,12.0,0.0
6855,57.0,0,25,3.0,0.0
6856,53.0,1,25,3.0,0.0
6857,41.0,2,23,13.0,0.0
6858,29.0,3,23,14.0,0.0
6859,41.0,50,25,15.0,0.0
6860,79.0,1,60,10.0,0.0
6861,91.0,0,60,0.0,0.0
6862,88.0,2,60,0.0,0.0
6863,72.0,0,90,6.0,0.0
6864,60.0,1,90,6.0,0.0
6865,72.0,1,60,11.0,0.0
6866,60.0,4,90,4.0,0.0
6867,79.0,1,60,1.0,0.0
6868,76.0,0,60,1.0,0.0
6869,64.0,0,60,2.0,0.0
6870,67.0,3,60,2.0,0.0
6871,48.0,8,90,5.0,0.0
6872,64.0,1,60,12.0,0.0
6873,55.0,3,60,3.0,0.0
6874,52.0,0,60,3.0,0.0
6875,48.0,2,60,13.0,0.0
6876,36.0,18,60,14.0,0.0
6877,48.0,95,90,15.0,0.0
6878,81.0,3,80,10.0,0.0
6879,89.0,0,85,0.0,0.0
6880,93.0,1,85,0.0,0.0
6881,72.0,0,85,6.0,0.0
6882,60.0,1,85,6.0,0.0
6883,69.0,3,80,11.0,0.0
6884,60.0,1,85,4.0,0.0
6885,81.0,0,85,1.0,0.0
6886,77.0,1,85,1.0,0.0
6887,69.0,2,85,2.0,0.0
6888,65.0,0,85,2.0,0.0
6889,48.0,0,85,5.0,0.0
6890,60.0,0,80,12.0,0.0
6891,57.0,0,85,3.0,0.0
6892,53.0,0,85,3.0,0.0
6893,41.0,2,80,13.0,0.0
6894,29.0,6,80,14.0,0.0
6895,41.0,13,85,15.0,0.0
6896,81.0,3,23,10.0,0.0
6897,93.0,0,25,0.0,0.0
6898,89.0,0,25,0.0,0.0
6899,60.0,1,25,6.0,0.0
6900,72.0,0,25,6.0,0.0
6901,60.0,1,25,4.0,0.0
6902,71.0,1,23,11.0,0.0
6903,77.0,1,25,1.0,0.0
6904,81.0,0,25,1.0,0.0
6905,69.0,0,25,2.0,0.0
6906,65.0,1,25,2.0,0.0
6907,48.0,2,25,5.0,0.0
6908,62.0,1,23,12.0,0.0
6909,57.0,0,25,3.0,0.0
6910,53.0,1,25,3.0,0.0
6911,41.0,2,23,13.0,0.0
6912,29.0,3,23,14.0,0.0
6913,41.0,50,25,15.0,0.0
6914,79.0,1,60,10.0,0.0
6915,88.0,0,60,0.0,0.0
6916,91.0,2,60,0.0,0.0
6917,72.0,1,90,6.0,0.0
6918,60.0,0,90,6.0,0.0
6919,72.0,1,60,11.0,0.0
6920,60.0,4,90,4.0,0.0
6921,79.0,1,60,1.0,0.0
6922,76.0,0,60,1.0,0.0
6923,64.0,0,60,2.0,0.0
6924,67.0,3,60,2.0,0.0
6925,48.0,8,90,5.0,0.0
6926,64.0,1,60,12.0,0.0
6927,52.0,0,60,3.0,0.0
6928,55.0,3,60,3.0,0.0
6929,48.0,2,60,13.0,0.0
6930,36.0,18,60,14.0,0.0
6931,48.0,143,90,15.0,0.0
6932,67.0,1,120,12.0,0.0
6933,67.0,3,120,3.0,0.0
6934,67.0,236,120,13.0,0.0
6935,66.0,1,240,12.0,0.0
6936,66.0,3,240,3.0,0.0
6937,66.0,111,240,13.0,0.0
6938,67.0,2,1560,4.0,0.0
6939,76.0,5,120,11.0,0.0
6940,67.0,1,1560,5.0,0.0
6941,67.0,1,120,12.0,0.0
6942,67.0,3,120,3.0,0.0
6943,55.0,3,1560,3.0,0.0
6944,67.0,106,120,13.0,0.0
6945,74.0,2,115,11.0,0.0
6946,65.0,1,240,12.0,0.0
6947,65.0,3,240,3.0,0.0
6948,65.0,48,240,13.0,0.0
6949,86.0,60,60,10.0,0.0
6950,81.0,60,60,10.0,0.0
6951,74.0,5,120,11.0,0.0
6952,83.0,3,60,10.0,0.0
6953,84.0,60,60,10.0,0.0
6954,72.0,2,120,11.0,0.0
6955,79.0,0,120,2.0,0.0
6956,67.0,3,120,2.0,0.0
6957,64.0,1,120,12.0,0.0
6958,64.0,3,120,3.0,0.0
6959,64.0,108,120,13.0,0.0
6960,79.0,3,60,10.0,0.0
6961,77.0,0,240,2.0,0.0
6962,65.0,3,240,2.0,0.0
6963,62.0,1,240,12.0,0.0
6964,62.0,3,240,3.0,0.0
6965,62.0,48,240,13.0,0.0
6966,77.0,60,60,10.0,0.0
6967,72.0,60,60,10.0,0.0
6968,65.0,2,120,11.0,0.0
6969,74.0,3,60,10.0,0.0
6970,76.0,60,60,10.0,0.0
6971,91.0,2,120,0.0,0.0
6972,64.0,1,120,11.0,0.0
6973,79.0,1,120,1.0,0.0
6974,64.0,3,120,2.0,0.0
6975,76.0,0,120,2.0,0.0
6976,60.0,1,120,12.0,0.0
6977,60.0,3,120,3.0,0.0
6978,60.0,111,120,13.0,0.0
6979,72.0,1,60,10.0,0.0
6980,89.0,2,240,0.0,0.0
6981,77.0,1,240,1.0,0.0
6982,62.0,3,240,2.0,0.0
6983,74.0,0,240,2.0,0.0
6984,59.0,1,240,12.0,0.0
6985,59.0,3,240,3.0,0.0
6986,59.0,51,240,13.0,0.0
6987,74.0,60,60,11.0,0.0
6988,74.0,1,120,10.0,0.0
6989,69.0,57,60,11.0,0.0
6990,71.0,1,60,11.0,0.0
6991,76.0,1,120,10.0,0.0
6992,88.0,2,120,0.0,0.0
6993,72.0,57,60,11.0,0.0
6994,76.0,1,120,1.0,0.0
6995,72.0,0,120,2.0,0.0
6996,60.0,3,120,2.0,0.0
6997,60.0,1,120,12.0,0.0
6998,60.0,3,120,3.0,0.0
6999,60.0,111,120,13.0,0.0
7000,67.0,1,60,11.0,0.0
7001,86.0,2,240,0.0,0.0
7002,74.0,1,240,1.0,0.0
7003,59.0,0,240,2.0,0.0
7004,71.0,3,240,2.0,0.0
7005,62.0,1,240,12.0,0.0
7006,62.0,3,240,3.0,0.0
7007,62.0,51,240,13.0,0.0
7008,65.0,60,60,11.0,0.0
7009,77.0,1,120,10.0,0.0
7010,60.0,57,60,11.0,0.0
7011,62.0,1,60,11.0,0.0
7012,79.0,1,120,10.0,0.0
7013,82.0,2,120,0.0,0.0
7014,84.0,3,115,0.0,0.0
7015,64.0,53,60,11.0,0.0
7016,72.0,1,115,1.0,0.0
7017,58.0,0,120,2.0,0.0
7018,70.0,2,120,2.0,0.0
7019,64.0,1,120,12.0,0.0
7020,64.0,0,120,3.0,0.0
7021,64.0,108,120,13.0,0.0
7022,60.0,0,60,11.0,0.0
7023,84.0,0,240,0.0,0.0
7024,81.0,2,240,0.0,0.0
7025,69.0,0,120,4.0,0.0
7026,72.0,1,240,1.0,0.0
7027,69.0,3,240,2.0,0.0
7028,57.0,0,240,2.0,0.0
7029,65.0,53,120,5.0,0.0
7030,65.0,1,240,12.0,0.0
7031,53.0,3,240,3.0,0.0
7032,65.0,0,240,3.0,0.0
7033,65.0,48,240,13.0,0.0
7034,81.0,3,60,10.0,0.0
7035,69.0,4,60,11.0,0.0
7036,76.0,3,60,10.0,0.0
7037,64.0,57,60,11.0,0.0
7038,77.0,1,60,10.0,0.0
7039,65.0,1,60,11.0,0.0
7040,79.0,3,60,10.0,0.0
7041,86.0,2,120,0.0,0.0
7042,89.0,0,120,0.0,0.0
7043,67.0,57,60,11.0,0.0
7044,81.0,1,120,1.0,0.0
7045,77.0,0,120,2.0,0.0
7046,69.0,3,120,2.0,0.0
7047,62.0,1,120,12.0,0.0
7048,62.0,3,120,3.0,0.0
7049,50.0,0,120,3.0,0.0
7050,62.0,108,120,13.0,0.0
7051,81.0,1,60,10.0,0.0
7052,69.0,1,60,11.0,0.0
7053,88.0,2,240,0.0,0.0
7054,84.0,0,240,0.0,0.0
7055,79.0,1,240,1.0,0.0
7056,76.0,0,240,2.0,0.0
7057,67.0,3,240,2.0,0.0
7058,67.0,1,240,12.0,0.0
7059,67.0,3,240,3.0,0.0
7060,55.0,0,240,3.0,0.0
7061,67.0,48,240,13.0,0.0
7062,81.0,3,60,10.0,0.0
7063,69.0,57,60,11.0,0.0
7064,78.0,3,60,10.0,0.0
7065,66.0,57,60,11.0,0.0
7066,79.0,1,60,10.0,0.0
7067,67.0,1,60,11.0,0.0
7068,81.0,3,60,10.0,0.0
7069,86.0,0,120,0.0,0.0
7070,83.0,3,120,0.0,0.0
7071,69.0,52,60,11.0,0.0
7072,77.0,1,120,1.0,0.0
7073,71.0,0,120,2.0,0.0
7074,74.0,3,120,2.0,0.0
7075,55.0,1,120,12.0,0.0
7076,43.0,3,120,3.0,0.0
7077,55.0,0,120,3.0,0.0
7078,55.0,56,120,13.0,0.0
7079,83.0,3,55,10.0,0.0
7080,71.0,3,55,11.0,0.0
7081,84.0,3,115,10.0,0.0
7082,84.0,0,120,0.0,0.0
7083,76.0,3,120,0.0,0.0
7084,72.0,3,115,11.0,0.0
7085,76.0,1,120,1.0,0.0
7086,64.0,0,120,2.0,0.0
7087,72.0,3,120,2.0,0.0
7088,60.0,4,60,12.0,0.0
7089,48.0,0,120,3.0,0.0
7090,60.0,3,120,3.0,0.0
7091,60.0,43,60,13.0,0.0
7092,48.0,54,120,14.0,0.0
7093,59.0,1,60,12.0,0.0
7094,59.0,2,60,13.0,0.0
7095,76.0,3,180,10.0,0.0
7096,72.0,5,180,11.0,0.0
7097,60.0,4,60,12.0,0.0
7098,60.0,56,60,13.0,0.0
7099,59.0,4,60,12.0,0.0
7100,59.0,48,60,13.0,0.0
7101,57.0,4,60,12.0,0.0
7102,57.0,43,60,13.0,0.0
7103,77.0,3,55,10.0,0.0
7104,74.0,10,55,11.0,0.0
7105,55.0,4,60,12.0,0.0
7106,74.0,1,60,10.0,0.0
7107,89.0,2,60,0.0,0.0
7108,71.0,1,60,11.0,0.0
7109,77.0,4,60,1.0,0.0
7110,55.0,1,60,12.0,0.0
7111,65.0,52,60,3.0,0.0
7112,55.0,48,0,13.0,0.0
7113,43.0,47,120,14.0,0.0
7114,88.0,3,60,0.0,0.0
7115,76.0,5,60,1.0,0.0
7116,64.0,3,60,3.0,0.0
7117,77.0,1,180,10.0,0.0
7118,89.0,3,60,0.0,0.0
7119,74.0,1,180,11.0,0.0
7120,77.0,5,60,1.0,0.0
7121,74.0,3,180,2.0,0.0
7122,77.0,0,180,2.0,0.0
7123,62.0,0,180,12.0,0.0
7124,65.0,1,180,12.0,0.0
7125,65.0,52,60,3.0,0.0
7126,88.0,3,60,0.0,0.0
7127,76.0,5,60,1.0,0.0
7128,64.0,51,60,3.0,0.0
7129,86.0,2,60,0.0,0.0
7130,74.0,1,60,1.0,0.0
7131,62.0,46,60,3.0,0.0
7132,79.0,1,55,10.0,0.0
7133,84.0,2,55,0.0,0.0
7134,76.0,1,55,11.0,0.0
7135,72.0,5,55,1.0,0.0
7136,79.0,3,60,2.0,0.0
7137,64.0,0,60,12.0,0.0
7138,67.0,18,60,12.0,0.0
7139,60.0,1,55,3.0,0.0
7140,76.0,1,60,10.0,0.0
7141,84.0,0,60,0.0,0.0
7142,60.0,1,90,6.0,0.0
7143,72.0,0,90,6.0,0.0
7144,72.0,5,23,11.0,0.0
7145,60.0,4,90,4.0,0.0
7146,72.0,1,60,1.0,0.0
7147,76.0,0,0,2.0,0.0
7148,72.0,0,60,2.0,0.0
7149,48.0,19,90,5.0,0.0
7150,60.0,25,23,12.0,0.0
7151,64.0,0,23,12.0,0.0
7152,60.0,3,60,3.0,0.0
7153,48.0,2,60,13.0,0.0
7154,36.0,12,60,14.0,0.0
7155,48.0,11,120,15.0,0.0
7156,64.0,0,23,11.0,0.0
7157,55.0,4,23,11.0,0.0
7158,64.0,0,23,12.0,0.0
7159,60.0,3,23,12.0,0.0
7160,64.0,5,23,11.0,0.0
7161,55.0,0,23,11.0,0.0
7162,64.0,1,23,12.0,0.0
7163,60.0,0,23,12.0,0.0
7164,47.0,2,60,13.0,0.0
7165,35.0,1,60,14.0,0.0
7166,55.0,0,23,11.0,0.0
7167,64.0,5,23,11.0,0.0
7168,64.0,11,23,12.0,0.0
7169,60.0,0,23,12.0,0.0
7170,88.0,1,180,10.0,0.0
7171,88.0,0,180,0.0,0.0
7172,60.0,0,175,6.0,0.0
7173,72.0,1,175,6.0,0.0
7174,64.0,5,23,11.0,0.0
7175,60.0,2,175,4.0,0.0
7176,55.0,0,23,11.0,0.0
7177,76.0,1,180,1.0,0.0
7178,76.0,4,180,2.0,0.0
7179,48.0,2,175,5.0,0.0
7180,60.0,0,23,12.0,0.0
7181,48.0,25,23,12.0,0.0
7182,64.0,3,180,3.0,0.0
7183,48.0,2,60,13.0,0.0
7184,36.0,12,60,14.0,0.0
7185,55.0,5,23,11.0,0.0
7186,64.0,0,23,11.0,0.0
7187,60.0,11,23,12.0,0.0
7188,48.0,0,23,12.0,0.0
7189,64.0,5,23,11.0,0.0
7190,55.0,0,23,11.0,0.0
7191,48.0,25,23,12.0,0.0
7192,60.0,0,23,12.0,0.0
7193,47.0,2,60,13.0,0.0
7194,35.0,12,60,14.0,0.0
7195,55.0,0,23,11.0,0.0
7196,64.0,5,23,11.0,0.0
7197,60.0,11,23,12.0,0.0
7198,48.0,0,23,12.0,0.0
7199,55.0,0,23,11.0,0.0
7200,64.0,5,23,11.0,0.0
7201,48.0,25,23,12.0,0.0
7202,60.0,0,23,12.0,0.0
7203,45.0,2,60,13.0,0.0
7204,33.0,12,60,14.0,0.0
7205,64.0,0,23,11.0,0.0
7206,55.0,1,23,11.0,0.0
7207,60.0,1,23,12.0,0.0
7208,48.0,0,23,12.0,0.0
7209,84.0,1,55,10.0,0.0
7210,84.0,1,60,0.0,0.0
7211,72.0,1,55,6.0,0.0
7212,60.0,0,55,6.0,0.0
7213,55.0,0,23,11.0,0.0
7214,60.0,3,55,4.0,0.0
7215,64.0,5,23,11.0,0.0
7216,72.0,1,60,1.0,0.0
7217,72.0,4,60,2.0,0.0
7218,48.0,2,55,5.0,0.0
7219,60.0,24,23,12.0,0.0
7220,48.0,0,23,12.0,0.0
7221,60.0,3,60,3.0,0.0
7222,64.0,1,23,11.0,0.0
7223,55.0,0,23,11.0,0.0
7224,48.0,0,23,12.0,0.0
7225,60.0,0,23,12.0,0.0
7226,83.0,3,23,10.0,0.0
7227,83.0,0,120,0.0,0.0
7228,79.0,1,120,6.0,0.0
7229,59.0,5,23,11.0,0.0
7230,67.0,1,120,4.0,0.0
7231,71.0,1,120,1.0,0.0
7232,71.0,0,120,2.0,0.0
7233,67.0,2,120,2.0,0.0
7234,67.0,2,120,5.0,0.0
7235,55.0,11,23,12.0,0.0
7236,55.0,14,120,3.0,0.0
7237,59.0,0,120,3.0,0.0
7238,43.0,2,0,13.0,0.0
7239,31.0,9,0,14.0,0.0
7240,83.0,3,23,10.0,0.0
7241,59.0,5,23,11.0,0.0
7242,55.0,22,23,12.0,0.0
7243,89.0,3,23,10.0,0.0
7244,71.0,5,23,11.0,0.0
7245,55.0,11,23,12.0,0.0
7246,50.0,2,30,13.0,0.0
7247,38.0,9,30,14.0,0.0
7248,89.0,3,23,10.0,0.0
7249,71.0,5,23,11.0,0.0
7250,55.0,1,23,12.0,0.0
7251,86.0,3,23,10.0,0.0
7252,71.0,5,23,11.0,0.0
7253,55.0,11,23,12.0,0.0
7254,55.0,2,30,13.0,0.0
7255,43.0,9,30,14.0,0.0
7256,86.0,3,23,10.0,0.0
7257,71.0,5,23,11.0,0.0
7258,55.0,22,23,12.0,0.0
7259,83.0,3,23,10.0,0.0
7260,83.0,3,30,0.0,0.0
7261,71.0,5,23,11.0,0.0
7262,67.0,4,45,4.0,0.0
7263,71.0,1,30,1.0,0.0
7264,67.0,0,30,2.0,0.0
7265,79.0,4,30,2.0,0.0
7266,67.0,1,45,5.0,0.0
7267,55.0,0,23,12.0,0.0
7268,59.0,3,30,3.0,0.0
7269,55.0,0,30,3.0,0.0
7270,55.0,2,30,13.0,0.0
7271,43.0,4,30,14.0,0.0
7272,83.0,3,23,10.0,0.0
7273,71.0,5,23,11.0,0.0
7274,55.0,22,23,12.0,0.0
7275,79.0,3,23,10.0,0.0
7276,91.0,3,30,0.0,0.0
7277,84.0,0,30,0.0,0.0
7278,72.0,5,23,11.0,0.0
7279,67.0,4,45,4.0,0.0
7280,72.0,0,30,1.0,0.0
7281,79.0,1,30,1.0,0.0
7282,79.0,0,30,2.0,0.0
7283,67.0,4,30,2.0,0.0
7284,67.0,1,45,5.0,0.0
7285,57.0,0,23,12.0,0.0
7286,60.0,0,30,3.0,0.0
7287,57.0,3,30,3.0,0.0
7288,57.0,2,30,13.0,0.0
7289,45.0,4,30,14.0,0.0
7290,79.0,3,23,10.0,0.0
7291,72.0,5,23,11.0,0.0
7292,57.0,22,23,12.0,0.0
7293,77.0,3,23,10.0,0.0
7294,86.0,0,30,0.0,0.0
7295,89.0,3,30,0.0,0.0
7296,74.0,5,23,11.0,0.0
7297,67.0,4,45,4.0,0.0
7298,77.0,1,30,1.0,0.0
7299,74.0,0,30,1.0,0.0
7300,77.0,4,30,2.0,0.0
7301,65.0,0,30,2.0,0.0
7302,67.0,1,45,5.0,0.0
7303,59.0,0,23,12.0,0.0
7304,62.0,3,30,3.0,0.0
7305,59.0,0,30,3.0,0.0
7306,59.0,2,30,13.0,0.0
7307,47.0,4,30,14.0,0.0
7308,77.0,3,23,10.0,0.0
7309,74.0,5,23,11.0,0.0
7310,59.0,22,23,12.0,0.0
7311,76.0,3,23,10.0,0.0
7312,88.0,0,60,0.0,0.0
7313,72.0,0,90,6.0,0.0
7314,60.0,1,90,6.0,0.0
7315,60.0,4,90,4.0,0.0
7316,76.0,5,23,11.0,0.0
7317,76.0,1,60,1.0,0.0
7318,64.0,0,60,2.0,0.0
7319,76.0,4,60,2.0,0.0
7320,48.0,5,90,5.0,0.0
7321,60.0,11,23,12.0,0.0
7322,64.0,0,60,3.0,0.0
7323,60.0,14,60,3.0,0.0
7324,60.0,2,30,13.0,0.0
7325,48.0,9,30,14.0,0.0
7326,48.0,8,120,15.0,0.0
7327,76.0,3,23,10.0,0.0
7328,76.0,5,23,11.0,0.0
7329,60.0,3,23,12.0,0.0
7330,88.0,3,23,10.0,0.0
7331,88.0,5,23,11.0,0.0
7332,48.0,1,23,12.0,0.0
7333,48.0,2,30,13.0,0.0
7334,36.0,9,30,14.0,0.0
7335,88.0,3,23,10.0,0.0
7336,88.0,5,23,11.0,0.0
7337,48.0,14,23,12.0,0.0
7338,84.0,3,23,10.0,0.0
7339,84.0,5,23,11.0,0.0
7340,52.0,11,23,12.0,0.0
7341,52.0,2,30,13.0,0.0
7342,40.0,9,30,14.0,0.0
7343,84.0,3,23,10.0,0.0
7344,84.0,5,23,11.0,0.0
7345,52.0,22,23,12.0,0.0
7346,79.0,3,23,10.0,0.0
7347,91.0,0,30,0.0,0.0
7348,79.0,0,30,0.0,0.0
7349,79.0,5,23,11.0,0.0
7350,60.0,4,45,4.0,0.0
7351,79.0,0,30,1.0,0.0
7352,76.0,1,30,1.0,0.0
7353,72.0,4,30,2.0,0.0
7354,64.0,0,30,2.0,0.0
7355,48.0,1,45,5.0,0.0
7356,55.0,3,23,12.0,0.0
7357,64.0,3,30,3.0,0.0
7358,60.0,0,30,3.0,0.0
7359,55.0,2,30,13.0,0.0
7360,43.0,4,30,14.0,0.0
7361,79.0,3,23,10.0,0.0
7362,79.0,5,23,11.0,0.0
7363,55.0,22,23,12.0,0.0
7364,76.0,3,23,10.0,0.0
7365,79.0,3,30,0.0,0.0
7366,88.0,0,30,0.0,0.0
7367,60.0,4,45,4.0,0.0
7368,76.0,5,23,11.0,0.0
7369,76.0,1,30,1.0,0.0
7370,64.0,4,30,2.0,0.0
7371,72.0,0,30,2.0,0.0
7372,48.0,1,45,5.0,0.0
7373,60.0,0,23,12.0,0.0
7374,60.0,0,30,3.0,0.0
7375,64.0,3,30,3.0,0.0
7376,60.0,2,30,13.0,0.0
7377,48.0,4,30,14.0,0.0
7378,76.0,3,23,10.0,0.0
7379,76.0,5,23,11.0,0.0
7380,60.0,22,23,12.0,0.0
7381,72.0,3,23,10.0,0.0
7382,79.0,0,30,0.0,0.0
7383,84.0,3,30,0.0,0.0
7384,60.0,4,45,4.0,0.0
7385,72.0,5,23,11.0,0.0
7386,72.0,1,30,1.0,0.0
7387,64.0,4,30,2.0,0.0
7388,72.0,0,30,2.0,0.0
7389,48.0,1,45,5.0,0.0
7390,64.0,0,23,12.0,0.0
7391,60.0,3,30,3.0,0.0
7392,48.0,0,30,3.0,0.0
7393,64.0,2,30,13.0,0.0
7394,52.0,4,30,14.0,0.0
7395,72.0,3,23,10.0,0.0
7396,72.0,5,23,11.0,0.0
7397,64.0,22,23,12.0,0.0
7398,71.0,3,23,10.0,0.0
7399,83.0,3,60,0.0,0.0
7400,79.0,0,60,0.0,0.0
7401,79.0,1,90,6.0,0.0
7402,71.0,5,23,11.0,0.0
7403,67.0,4,90,4.0,0.0
7404,71.0,1,60,1.0,0.0
7405,71.0,0,60,2.0,0.0
7406,65.0,4,60,2.0,0.0
7407,67.0,5,90,5.0,0.0
7408,55.0,11,23,12.0,0.0
7409,55.0,0,60,3.0,0.0
7410,59.0,14,60,3.0,0.0
7411,43.0,2,30,13.0,0.0
7412,31.0,9,30,14.0,0.0
7413,71.0,3,23,10.0,0.0
7414,71.0,5,23,11.0,0.0
7415,55.0,0,23,12.0,0.0
7416,77.0,3,23,10.0,0.0
7417,77.0,5,23,11.0,0.0
7418,55.0,1,23,12.0,0.0
7419,50.0,2,30,13.0,0.0
7420,38.0,9,30,14.0,0.0
7421,77.0,3,23,10.0,0.0
7422,77.0,5,23,11.0,0.0
7423,55.0,22,23,12.0,0.0
7424,74.0,3,23,10.0,0.0
7425,74.0,5,23,11.0,0.0
7426,55.0,11,23,12.0,0.0
7427,55.0,2,30,13.0,0.0
7428,43.0,9,30,14.0,0.0
7429,74.0,3,23,10.0,0.0
7430,74.0,5,23,11.0,0.0
7431,55.0,22,23,12.0,0.0
7432,71.0,3,23,10.0,0.0
7433,83.0,0,30,0.0,0.0
7434,71.0,5,23,11.0,0.0
7435,67.0,4,45,4.0,0.0
7436,71.0,1,30,1.0,0.0
7437,67.0,4,30,2.0,0.0
7438,79.0,0,30,2.0,0.0
7439,67.0,1,45,5.0,0.0
7440,55.0,3,23,12.0,0.0
7441,59.0,3,30,3.0,0.0
7442,55.0,0,30,3.0,0.0
7443,55.0,2,30,13.0,0.0
7444,43.0,4,30,14.0,0.0
7445,71.0,3,23,10.0,0.0
7446,71.0,5,23,11.0,0.0
7447,55.0,22,23,12.0,0.0
7448,67.0,3,23,10.0,0.0
7449,91.0,0,30,0.0,0.0
7450,84.0,0,30,0.0,0.0
7451,67.0,4,45,4.0,0.0
7452,67.0,5,23,11.0,0.0
7453,79.0,1,30,1.0,0.0
7454,72.0,0,30,1.0,0.0
7455,67.0,0,30,2.0,0.0
7456,79.0,4,30,2.0,0.0
7457,67.0,1,45,5.0,0.0
7458,57.0,3,23,12.0,0.0
7459,57.0,3,30,3.0,0.0
7460,60.0,0,30,3.0,0.0
7461,57.0,2,30,13.0,0.0
7462,45.0,4,30,14.0,0.0
7463,67.0,3,23,10.0,0.0
7464,67.0,5,23,11.0,0.0
7465,57.0,22,23,12.0,0.0
7466,65.0,3,23,10.0,0.0
7467,86.0,3,30,0.0,0.0
7468,89.0,0,30,0.0,0.0
7469,67.0,4,45,4.0,0.0
7470,65.0,5,23,11.0,0.0
7471,77.0,0,30,1.0,0.0
7472,74.0,1,30,1.0,0.0
7473,77.0,0,30,2.0,0.0
7474,65.0,4,30,2.0,0.0
7475,67.0,1,45,5.0,0.0
7476,59.0,0,23,12.0,0.0
7477,59.0,3,30,3.0,0.0
7478,62.0,0,30,3.0,0.0
7479,59.0,2,30,13.0,0.0
7480,47.0,4,30,14.0,0.0
7481,65.0,3,23,10.0,0.0
7482,65.0,5,23,11.0,0.0
7483,59.0,22,23,12.0,0.0
7484,64.0,3,23,10.0,0.0
7485,88.0,0,1440,0.0,0.0
7486,72.0,1,1440,6.0,0.0
7487,67.0,1,1440,4.0,0.0
7488,64.0,5,23,11.0,0.0
7489,84.0,0,1440,1.0,0.0
7490,76.0,1,1440,1.0,0.0
7491,76.0,2,1440,2.0,0.0
7492,60.0,2,1440,5.0,0.0
7493,60.0,11,23,12.0,0.0
7494,64.0,6,1440,3.0,0.0
7495,60.0,0,1440,3.0,0.0
7496,60.0,2,30,13.0,0.0
7497,48.0,1,30,14.0,0.0
7498,64.0,3,23,10.0,0.0
7499,64.0,5,23,11.0,0.0
7500,60.0,14,23,12.0,0.0
7501,48.0,8,0,15.0,0.0
7502,55.0,3,23,10.0,0.0
7503,55.0,5,23,11.0,0.0
7504,67.0,11,23,12.0,0.0
7505,67.0,2,30,13.0,0.0
7506,55.0,1,30,14.0,0.0
7507,48.0,8,0,15.0,0.0
7508,55.0,3,23,10.0,0.0
7509,55.0,5,23,11.0,0.0
7510,67.0,14,23,12.0,0.0
7511,60.0,3,23,10.0,0.0
7512,60.0,5,23,11.0,0.0
7513,64.0,11,23,12.0,0.0
7514,64.0,2,30,13.0,0.0
7515,52.0,1,30,14.0,0.0
7516,48.0,8,0,15.0,0.0
7517,60.0,3,23,10.0,0.0
7518,60.0,5,23,11.0,0.0
7519,64.0,14,23,12.0,0.0
7520,64.0,3,23,10.0,0.0
7521,64.0,5,23,11.0,0.0
7522,72.0,11,23,12.0,0.0
7523,60.0,2,30,13.0,0.0
7524,48.0,1,30,14.0,0.0
7525,48.0,8,0,15.0,0.0
7526,64.0,3,23,10.0,0.0
7527,64.0,5,23,11.0,0.0
7528,72.0,14,23,12.0,0.0
7529,48.0,8,0,15.0,0.0
7530,67.0,3,23,10.0,0.0
7531,67.0,5,23,11.0,0.0
7532,67.0,11,23,12.0,0.0
7533,55.0,2,30,13.0,0.0
7534,43.0,1,30,14.0,0.0
7535,48.0,8,0,15.0,0.0
7536,67.0,3,23,10.0,0.0
7537,67.0,5,23,11.0,0.0
7538,67.0,14,23,12.0,0.0
7539,48.0,8,0,15.0,0.0
7540,60.0,3,23,10.0,0.0
7541,60.0,5,23,11.0,0.0
7542,76.0,11,23,12.0,0.0
7543,64.0,2,30,13.0,0.0
7544,52.0,1,30,14.0,0.0
7545,48.0,8,0,15.0,0.0
7546,60.0,3,23,10.0,0.0
7547,60.0,5,23,11.0,0.0
7548,76.0,14,23,12.0,0.0
7549,64.0,3,23,10.0,0.0
7550,64.0,5,23,11.0,0.0
7551,72.0,11,23,12.0,0.0
7552,60.0,2,30,13.0,0.0
7553,48.0,1,30,14.0,0.0
7554,48.0,8,0,15.0,0.0
7555,64.0,3,23,10.0,0.0
7556,64.0,5,23,11.0,0.0
7557,72.0,14,23,12.0,0.0
7558,48.0,8,30,15.0,0.0
7559,67.0,3,23,10.0,0.0
7560,67.0,5,23,11.0,0.0
7561,67.0,11,23,12.0,0.0
7562,55.0,2,30,13.0,0.0
7563,43.0,1,30,14.0,0.0
7564,67.0,3,23,10.0,0.0
7565,67.0,5,23,11.0,0.0
7566,67.0,14,23,12.0,0.0
7567,48.0,8,0,15.0,0.0
7568,72.0,3,23,10.0,0.0
7569,72.0,5,23,11.0,0.0
7570,64.0,11,23,12.0,0.0
7571,52.0,2,30,13.0,0.0
7572,40.0,1,30,14.0,0.0
7573,48.0,8,0,15.0,0.0
7574,72.0,3,23,10.0,0.0
7575,72.0,5,23,11.0,0.0
7576,64.0,14,23,12.0,0.0
7577,48.0,8,30,15.0,0.0
7578,64.0,3,23,10.0,0.0
7579,64.0,5,23,11.0,0.0
7580,72.0,11,23,12.0,0.0
7581,60.0,2,30,13.0,0.0
7582,48.0,1,30,14.0,0.0
7583,48.0,8,30,15.0,0.0
7584,64.0,3,23,10.0,0.0
7585,64.0,5,23,11.0,0.0
7586,72.0,14,23,12.0,0.0
7587,67.0,3,23,10.0,0.0
7588,67.0,5,23,11.0,0.0
7589,67.0,11,23,12.0,0.0
7590,55.0,2,30,13.0,0.0
7591,43.0,1,30,14.0,0.0
7592,48.0,8,0,15.0,0.0
7593,67.0,3,23,10.0,0.0
7594,67.0,5,23,11.0,0.0
7595,67.0,14,23,12.0,0.0
7596,48.0,8,30,15.0,0.0
7597,72.0,3,23,10.0,0.0
7598,72.0,5,23,11.0,0.0
7599,64.0,11,23,12.0,0.0
7600,52.0,2,30,13.0,0.0
7601,40.0,1,30,14.0,0.0
7602,72.0,3,23,10.0,0.0
7603,72.0,5,23,11.0,0.0
7604,64.0,14,23,12.0,0.0
7605,48.0,8,0,15.0,0.0
7606,76.0,3,23,10.0,0.0
7607,76.0,5,23,11.0,0.0
7608,60.0,11,23,12.0,0.0
7609,48.0,2,30,13.0,0.0
7610,36.0,1,30,14.0,0.0
7611,48.0,8,0,15.0,0.0
7612,76.0,3,23,10.0,0.0
7613,76.0,5,23,11.0,0.0
7614,60.0,14,23,12.0,0.0
7615,48.0,8,0,15.0,0.0
7616,67.0,3,23,10.0,0.0
7617,67.0,5,23,11.0,0.0
7618,67.0,11,23,12.0,0.0
7619,55.0,2,30,13.0,0.0
7620,43.0,1,30,14.0,0.0
7621,48.0,8,30,15.0,0.0
7622,67.0,3,23,10.0,0.0
7623,67.0,5,23,11.0,0.0
7624,67.0,14,23,12.0,0.0
7625,72.0,3,23,10.0,0.0
7626,72.0,5,23,11.0,0.0
7627,64.0,11,23,12.0,0.0
7628,52.0,2,30,13.0,0.0
7629,40.0,1,30,14.0,0.0
7630,48.0,8,0,15.0,0.0
7631,72.0,3,23,10.0,0.0
7632,72.0,5,23,11.0,0.0
7633,64.0,14,23,12.0,0.0
7634,48.0,8,0,15.0,0.0
7635,76.0,3,23,10.0,0.0
7636,76.0,5,23,11.0,0.0
7637,60.0,11,23,12.0,0.0
7638,48.0,2,30,13.0,0.0
7639,36.0,1,30,14.0,0.0
7640,76.0,3,23,10.0,0.0
7641,76.0,5,23,11.0,0.0
7642,60.0,14,23,12.0,0.0
7643,48.0,8,0,15.0,0.0
7644,79.0,3,23,10.0,0.0
7645,79.0,5,23,11.0,0.0
7646,55.0,11,23,12.0,0.0
7647,31.0,2,30,13.0,0.0
7648,31.0,1,30,14.0,0.0
7649,79.0,3,23,10.0,0.0
7650,79.0,5,23,11.0,0.0
7651,55.0,14,23,12.0,0.0
7652,48.0,8,0,15.0,0.0
7653,72.0,3,23,10.0,0.0
7654,72.0,5,23,11.0,0.0
7655,64.0,11,23,12.0,0.0
7656,52.0,2,30,13.0,0.0
7657,52.0,1,30,14.0,0.0
7658,48.0,8,30,15.0,0.0
7659,72.0,3,23,10.0,0.0
7660,72.0,5,23,11.0,0.0
7661,64.0,14,23,12.0,0.0
7662,48.0,8,30,15.0,0.0
7663,76.0,3,23,10.0,0.0
7664,76.0,5,23,11.0,0.0
7665,60.0,11,23,12.0,0.0
7666,48.0,2,30,13.0,0.0
7667,48.0,1,30,14.0,0.0
7668,76.0,3,23,10.0,0.0
7669,76.0,5,23,11.0,0.0
7670,60.0,14,23,12.0,0.0
7671,48.0,8,0,15.0,0.0
7672,79.0,3,23,10.0,0.0
7673,79.0,5,23,11.0,0.0
7674,55.0,11,23,12.0,0.0
7675,43.0,2,30,13.0,0.0
7676,43.0,1,30,14.0,0.0
7677,48.0,8,0,15.0,0.0
7678,79.0,3,23,10.0,0.0
7679,79.0,5,23,11.0,0.0
7680,55.0,14,23,12.0,0.0
7681,48.0,8,0,15.0,0.0
7682,84.0,3,23,10.0,0.0
7683,84.0,5,23,11.0,0.0
7684,52.0,11,23,12.0,0.0
7685,40.0,2,30,13.0,0.0
7686,40.0,1,30,14.0,0.0
7687,48.0,8,0,15.0,0.0
7688,84.0,3,23,10.0,0.0
7689,84.0,5,23,11.0,0.0
7690,52.0,14,23,12.0,0.0
7691,48.0,8,0,15.0,0.0
7692,72.0,3,23,10.0,0.0
7693,72.0,5,23,11.0,0.0
7694,60.0,11,23,12.0,0.0
7695,48.0,2,30,13.0,0.0
7696,48.0,1,30,14.0,0.0
7697,48.0,8,0,15.0,0.0
7698,72.0,3,23,10.0,0.0
7699,72.0,5,23,11.0,0.0
7700,60.0,14,23,12.0,0.0
7701,76.0,3,23,10.0,0.0
7702,76.0,5,23,11.0,0.0
7703,55.0,11,23,12.0,0.0
7704,43.0,2,30,13.0,0.0
7705,43.0,1,30,14.0,0.0
7706,48.0,8,0,15.0,0.0
7707,76.0,3,23,10.0,0.0
7708,76.0,5,23,11.0,0.0
7709,55.0,14,23,12.0,0.0
7710,48.0,8,0,15.0,0.0
7711,79.0,3,23,10.0,0.0
7712,79.0,5,23,11.0,0.0
7713,52.0,11,23,12.0,0.0
7714,40.0,2,30,13.0,0.0
7715,40.0,1,30,14.0,0.0
7716,48.0,8,0,15.0,0.0
7717,79.0,3,23,10.0,0.0
7718,79.0,5,23,11.0,0.0
7719,52.0,1,23,12.0,0.0
7720,48.0,105,30,15.0,0.0
7721,84.0,1,120,10.0,0.0
7722,84.0,1,120,0.0,0.0
7723,60.0,0,0,6.0,0.0
7724,72.0,0,120,6.0,0.0
7725,60.0,0,120,4.0,0.0
7726,84.0,1,120,11.0,0.0
7727,84.0,0,120,1.0,0.0
7728,72.0,1,120,1.0,0.0
7729,72.0,0,0,2.0,0.0
7730,48.0,1,120,5.0,0.0
7731,48.0,1,120,12.0,0.0
7732,48.0,0,120,3.0,0.0
7733,60.0,3,120,3.0,0.0
7734,36.0,2,120,13.0,0.0
7735,36.0,1,120,14.0,0.0
7736,48.0,75,120,15.0,0.0
7737,84.0,3,30,10.0,0.0
7738,84.0,5,30,11.0,0.0
7739,60.0,4,30,12.0,0.0
7740,48.0,2,30,13.0,0.0
7741,48.0,46,30,14.0,0.0
7742,72.0,3,30,10.0,0.0
7743,72.0,5,30,11.0,0.0
7744,48.0,4,30,12.0,0.0
7745,36.0,2,30,13.0,0.0
7746,36.0,46,30,14.0,0.0
7747,84.0,3,30,10.0,0.0
7748,84.0,5,30,11.0,0.0
7749,60.0,4,30,12.0,0.0
7750,48.0,2,30,13.0,0.0
7751,48.0,136,30,14.0,0.0
7752,72.0,1,120,10.0,0.0
7753,84.0,1,120,0.0,0.0
7754,72.0,0,120,6.0,0.0
7755,60.0,1,120,6.0,0.0
7756,60.0,1,120,4.0,0.0
7757,72.0,0,120,11.0,0.0
7758,84.0,0,120,1.0,0.0
7759,72.0,1,120,1.0,0.0
7760,60.0,0,120,2.0,0.0
7761,72.0,2,120,2.0,0.0
7762,48.0,1,120,5.0,0.0
7763,48.0,1,120,12.0,0.0
7764,60.0,0,120,3.0,0.0
7765,48.0,3,120,3.0,0.0
7766,36.0,2,120,13.0,0.0
7767,36.0,1,120,14.0,0.0
7768,48.0,75,120,15.0,0.0
7769,84.0,3,30,10.0,0.0
7770,84.0,5,30,11.0,0.0
7771,60.0,4,30,12.0,0.0
7772,48.0,2,30,13.0,0.0
7773,48.0,46,30,14.0,0.0
7774,72.0,3,30,10.0,0.0
7775,72.0,5,30,11.0,0.0
7776,48.0,4,30,12.0,0.0
7777,36.0,2,30,13.0,0.0
7778,36.0,46,30,14.0,0.0
7779,84.0,3,30,10.0,0.0
7780,84.0,5,30,11.0,0.0
7781,60.0,4,30,12.0,0.0
7782,48.0,2,30,13.0,0.0
7783,48.0,136,30,14.0,0.0
7784,72.0,1,120,10.0,0.0
7785,84.0,1,120,0.0,0.0
7786,60.0,1,120,6.0,0.0
7787,72.0,0,120,6.0,0.0
7788,60.0,1,120,4.0,0.0
7789,72.0,0,120,11.0,0.0
7790,84.0,0,120,1.0,0.0
7791,72.0,1,120,1.0,0.0
7792,60.0,2,120,2.0,0.0
7793,72.0,0,120,2.0,0.0
7794,48.0,1,120,5.0,0.0
7795,48.0,1,120,12.0,0.0
7796,48.0,3,120,3.0,0.0
7797,60.0,0,120,3.0,0.0
7798,36.0,2,120,13.0,0.0
7799,36.0,1,120,14.0,0.0
7800,48.0,75,120,15.0,0.0
7801,84.0,3,30,10.0,0.0
7802,84.0,5,30,11.0,0.0
7803,60.0,4,30,12.0,0.0
7804,48.0,2,30,13.0,0.0
7805,48.0,46,30,14.0,0.0
7806,72.0,3,30,10.0,0.0
7807,72.0,5,30,11.0,0.0
7808,48.0,4,30,12.0,0.0
7809,36.0,2,30,13.0,0.0
7810,36.0,46,30,14.0,0.0
7811,84.0,3,30,10.0,0.0
7812,84.0,5,30,11.0,0.0
7813,60.0,4,30,12.0,0.0
7814,48.0,2,30,13.0,0.0
7815,48.0,136,30,14.0,0.0
7816,72.0,1,120,10.0,0.0
7817,84.0,1,120,0.0,0.0
7818,72.0,0,120,6.0,0.0
7819,60.0,1,120,6.0,0.0
7820,60.0,0,120,4.0,0.0
7821,72.0,1,120,11.0,0.0
7822,84.0,1,120,1.0,0.0
7823,72.0,0,120,1.0,0.0
7824,72.0,2,120,2.0,0.0
7825,60.0,0,120,2.0,0.0
7826,48.0,1,120,5.0,0.0
7827,48.0,1,120,12.0,0.0
7828,48.0,0,120,3.0,0.0
7829,60.0,3,120,3.0,0.0
7830,36.0,2,120,13.0,0.0
7831,36.0,1,120,14.0,0.0
7832,48.0,75,120,15.0,0.0
7833,84.0,3,30,10.0,0.0
7834,84.0,1,55,0.0,0.0
7835,72.0,0,55,6.0,0.0
7836,60.0,1,55,6.0,0.0
7837,60.0,1,55,4.0,0.0
7838,84.0,5,30,11.0,0.0
7839,72.0,0,55,1.0,0.0
7840,84.0,1,55,1.0,0.0
7841,72.0,0,55,2.0,0.0
7842,60.0,2,55,2.0,0.0
7843,48.0,2,55,5.0,0.0
7844,60.0,4,30,12.0,0.0
7845,48.0,6,55,3.0,0.0
7846,48.0,2,30,13.0,0.0
7847,48.0,12,30,14.0,0.0
7848,48.0,20,55,15.0,0.0
7849,72.0,3,30,10.0,0.0
7850,84.0,1,55,0.0,0.0
7851,60.0,1,55,6.0,0.0
7852,72.0,0,55,6.0,0.0
7853,60.0,1,55,4.0,0.0
7854,72.0,5,30,11.0,0.0
7855,84.0,1,55,1.0,0.0
7856,72.0,0,55,1.0,0.0
7857,60.0,0,55,2.0,0.0
7858,72.0,2,55,2.0,0.0
7859,48.0,2,55,5.0,0.0
7860,48.0,4,30,12.0,0.0
7861,48.0,6,55,3.0,0.0
7862,36.0,2,30,13.0,0.0
7863,36.0,12,30,14.0,0.0
7864,48.0,20,55,15.0,0.0
7865,84.0,3,30,10.0,0.0
7866,84.0,1,55,0.0,0.0
7867,60.0,0,55,6.0,0.0
7868,72.0,1,55,6.0,0.0
7869,60.0,1,55,4.0,0.0
7870,84.0,5,30,11.0,0.0
7871,84.0,0,55,1.0,0.0
7872,72.0,1,55,1.0,0.0
7873,72.0,2,55,2.0,0.0
7874,60.0,0,55,2.0,0.0
7875,48.0,2,55,5.0,0.0
7876,60.0,4,30,12.0,0.0
7877,48.0,6,55,3.0,0.0
7878,48.0,2,30,13.0,0.0
7879,48.0,12,30,14.0,0.0
7880,48.0,110,55,15.0,0.0
7881,72.0,1,120,10.0,0.0
7882,84.0,1,120,0.0,0.0
7883,60.0,1,120,6.0,0.0
7884,72.0,0,120,6.0,0.0
7885,60.0,1,120,4.0,0.0
7886,72.0,0,120,11.0,0.0
7887,84.0,1,120,1.0,0.0
7888,72.0,0,120,1.0,0.0
7889,60.0,0,120,2.0,0.0
7890,72.0,2,120,2.0,0.0
7891,48.0,1,120,5.0,0.0
7892,48.0,1,120,12.0,0.0
7893,48.0,3,120,3.0,0.0
7894,36.0,2,120,13.0,0.0
7895,36.0,1,120,14.0,0.0
7896,48.0,83,120,15.0,0.0
7897,60.0,60,30,12.0,0.0
7898,48.0,60,30,12.0,0.0
7899,60.0,150,30,12.0,0.0
7900,48.0,90,120,12.0,0.0
7901,60.0,60,30,12.0,0.0
7902,48.0,60,30,12.0,0.0
7903,60.0,150,30,12.0,0.0
7904,64.0,3,720,10.0,0.0
7905,60.0,125,720,11.0,0.0
7906,48.0,90,120,12.0,0.0
7907,60.0,60,30,12.0,0.0
7908,48.0,60,30,12.0,0.0
7909,60.0,150,30,12.0,0.0
7910,48.0,90,120,12.0,0.0
7911,60.0,60,30,12.0,0.0
7912,48.0,60,30,12.0,0.0
7913,60.0,22,30,12.0,0.0
7914,55.0,0,1440,10.0,0.0
7915,65.0,3,1440,10.0,0.0
7916,62.0,20,1440,11.0,0.0
7917,59.0,0,1440,11.0,0.0
7918,48.0,1,120,12.0,0.0
7919,65.0,60,120,3.0,0.0
7920,62.0,29,60,3.0,0.0
7921,60.0,31,30,12.0,0.0
7922,64.0,29,60,3.0,0.0
7923,48.0,1,30,12.0,0.0
7924,65.0,59,30,3.0,0.0
7925,60.0,1,30,12.0,0.0
7926,62.0,146,30,3.0,0.0
7927,74.0,3,120,2.0,0.0
7928,48.0,1,120,12.0,0.0
7929,59.0,56,120,3.0,0.0
7930,71.0,33,60,2.0,0.0
7931,72.0,30,60,2.0,0.0
7932,60.0,27,30,12.0,0.0
7933,74.0,3,30,2.0,0.0
7934,48.0,57,30,12.0,0.0
7935,71.0,3,30,2.0,0.0
7936,60.0,146,30,12.0,0.0
7937,77.0,1,120,1.0,0.0
7938,67.0,3,120,2.0,0.0
7939,48.0,56,120,12.0,0.0
7940,74.0,34,60,1.0,0.0
7941,76.0,30,60,1.0,0.0
7942,60.0,26,30,12.0,0.0
7943,77.0,4,30,1.0,0.0
7944,48.0,56,30,12.0,0.0
7945,74.0,4,30,1.0,0.0
7946,60.0,143,30,12.0,0.0
7947,86.0,3,120,0.0,0.0
7948,71.0,4,120,1.0,0.0
7949,48.0,53,120,12.0,0.0
7950,83.0,37,60,0.0,0.0
7951,84.0,30,60,0.0,0.0
7952,60.0,23,30,12.0,0.0
7953,86.0,7,30,0.0,0.0
7954,48.0,53,30,12.0,0.0
7955,83.0,7,30,0.0,0.0
7956,60.0,22,30,12.0,0.0
7957,64.0,3,23,10.0,0.0
7958,88.0,1,1440,0.0,0.0
7959,67.0,1,1440,4.0,0.0
7960,64.0,5,23,11.0,0.0
7961,84.0,1,1440,1.0,0.0
7962,76.0,0,1440,1.0,0.0
7963,76.0,2,1440,2.0,0.0
7964,72.0,0,1440,2.0,0.0
7965,60.0,2,1440,5.0,0.0
7966,60.0,11,23,12.0,0.0
7967,64.0,0,1440,3.0,0.0
7968,60.0,2,30,13.0,0.0
7969,48.0,1,30,14.0,0.0
7970,48.0,8,30,15.0,0.0
7971,64.0,3,23,10.0,0.0
7972,64.0,5,23,11.0,0.0
7973,60.0,14,23,12.0,0.0
7974,55.0,3,23,10.0,0.0
7975,55.0,5,23,11.0,0.0
7976,67.0,11,23,12.0,0.0
7977,67.0,2,30,13.0,0.0
7978,55.0,1,30,14.0,0.0
7979,48.0,8,0,15.0,0.0
7980,55.0,3,23,10.0,0.0
7981,55.0,5,23,11.0,0.0
7982,67.0,14,23,12.0,0.0
7983,60.0,3,23,10.0,0.0
7984,60.0,5,23,11.0,0.0
7985,64.0,11,23,12.0,0.0
7986,64.0,2,30,13.0,0.0
7987,52.0,1,30,14.0,0.0
7988,48.0,8,0,15.0,0.0
7989,60.0,3,23,10.0,0.0
7990,60.0,5,23,11.0,0.0
7991,64.0,14,23,12.0,0.0
7992,48.0,8,30,15.0,0.0
7993,64.0,3,23,10.0,0.0
7994,64.0,5,23,11.0,0.0
7995,72.0,11,23,12.0,0.0
7996,60.0,2,30,13.0,0.0
7997,48.0,1,30,14.0,0.0
7998,48.0,8,30,15.0,0.0
7999,64.0,3,23,10.0,0.0
8000,64.0,5,23,11.0,0.0
8001,72.0,14,23,12.0,0.0
8002,48.0,8,30,15.0,0.0
8003,67.0,3,23,10.0,0.0
8004,67.0,5,23,11.0,0.0
8005,67.0,11,23,12.0,0.0
8006,55.0,2,30,13.0,0.0
8007,43.0,1,30,14.0,0.0
8008,67.0,3,23,10.0,0.0
8009,67.0,5,23,11.0,0.0
8010,67.0,14,23,12.0,0.0
8011,48.0,8,0,15.0,0.0
8012,60.0,3,23,10.0,0.0
8013,60.0,5,23,11.0,0.0
8014,76.0,11,23,12.0,0.0
8015,64.0,2,30,13.0,0.0
8016,52.0,1,30,14.0,0.0
8017,48.0,8,0,15.0,0.0
8018,60.0,3,23,10.0,0.0
8019,60.0,5,23,11.0,0.0
8020,76.0,14,23,12.0,0.0
8021,48.0,8,0,15.0,0.0
8022,64.0,3,23,10.0,0.0
8023,64.0,5,23,11.0,0.0
8024,72.0,11,23,12.0,0.0
8025,60.0,2,30,13.0,0.0
8026,48.0,1,30,14.0,0.0
8027,64.0,3,23,10.0,0.0
8028,64.0,5,23,11.0,0.0
8029,72.0,14,23,12.0,0.0
8030,48.0,8,0,15.0,0.0
8031,67.0,3,23,10.0,0.0
8032,67.0,5,23,11.0,0.0
8033,67.0,11,23,12.0,0.0
8034,55.0,2,30,13.0,0.0
8035,43.0,1,30,14.0,0.0
8036,48.0,8,0,15.0,0.0
8037,67.0,3,23,10.0,0.0
8038,67.0,5,23,11.0,0.0
8039,67.0,14,23,12.0,0.0
8040,72.0,3,23,10.0,0.0
8041,72.0,5,23,11.0,0.0
8042,64.0,11,23,12.0,0.0
8043,52.0,2,30,13.0,0.0
8044,40.0,1,30,14.0,0.0
8045,48.0,8,0,15.0,0.0
8046,72.0,3,23,10.0,0.0
8047,72.0,5,23,11.0,0.0
8048,64.0,14,23,12.0,0.0
8049,64.0,3,23,10.0,0.0
8050,64.0,5,23,11.0,0.0
8051,72.0,11,23,12.0,0.0
8052,60.0,2,30,13.0,0.0
8053,48.0,1,30,14.0,0.0
8054,48.0,8,0,15.0,0.0
8055,64.0,3,23,10.0,0.0
8056,64.0,5,23,11.0,0.0
8057,72.0,14,23,12.0,0.0
8058,48.0,8,30,15.0,0.0
8059,67.0,3,23,10.0,0.0
8060,67.0,5,23,11.0,0.0
8061,67.0,11,23,12.0,0.0
8062,55.0,2,30,13.0,0.0
8063,43.0,1,30,14.0,0.0
8064,48.0,8,30,15.0,0.0
8065,67.0,3,23,10.0,0.0
8066,67.0,5,23,11.0,0.0
8067,67.0,14,23,12.0,0.0
8068,48.0,8,30,15.0,0.0
8069,72.0,3,23,10.0,0.0
8070,72.0,5,23,11.0,0.0
8071,64.0,11,23,12.0,0.0
8072,52.0,2,30,13.0,0.0
8073,40.0,1,30,14.0,0.0
8074,72.0,3,23,10.0,0.0
8075,72.0,5,23,11.0,0.0
8076,64.0,14,23,12.0,0.0
8077,48.0,8,0,15.0,0.0
8078,76.0,3,23,10.0,0.0
8079,76.0,5,23,11.0,0.0
8080,60.0,11,23,12.0,0.0
8081,48.0,2,30,13.0,0.0
8082,36.0,1,30,14.0,0.0
8083,48.0,8,30,15.0,0.0
8084,76.0,3,23,10.0,0.0
8085,76.0,5,23,11.0,0.0
8086,60.0,14,23,12.0,0.0
8087,67.0,3,23,10.0,0.0
8088,67.0,5,23,11.0,0.0
8089,67.0,11,23,12.0,0.0
8090,55.0,2,30,13.0,0.0
8091,43.0,1,30,14.0,0.0
8092,48.0,8,0,15.0,0.0
8093,67.0,3,23,10.0,0.0
8094,67.0,5,23,11.0,0.0
8095,67.0,14,23,12.0,0.0
8096,48.0,8,0,15.0,0.0
8097,72.0,3,23,10.0,0.0
8098,72.0,5,23,11.0,0.0
8099,64.0,11,23,12.0,0.0
8100,52.0,2,30,13.0,0.0
8101,40.0,1,30,14.0,0.0
8102,48.0,8,0,15.0,0.0
8103,72.0,3,23,10.0,0.0
8104,72.0,5,23,11.0,0.0
8105,64.0,14,23,12.0,0.0
8106,48.0,8,30,15.0,0.0
8107,76.0,3,23,10.0,0.0
8108,76.0,5,23,11.0,0.0
8109,60.0,11,23,12.0,0.0
8110,48.0,2,30,13.0,0.0
8111,36.0,1,30,14.0,0.0
8112,76.0,3,23,10.0,0.0
8113,76.0,5,23,11.0,0.0
8114,60.0,14,23,12.0,0.0
8115,48.0,8,0,15.0,0.0
8116,79.0,3,23,10.0,0.0
8117,79.0,5,23,11.0,0.0
8118,55.0,11,23,12.0,0.0
8119,43.0,2,30,13.0,0.0
8120,31.0,1,30,14.0,0.0
8121,48.0,8,0,15.0,0.0
8122,79.0,3,23,10.0,0.0
8123,79.0,5,23,11.0,0.0
8124,55.0,14,23,12.0,0.0
8125,48.0,8,0,15.0,0.0
8126,72.0,3,23,10.0,0.0
8127,72.0,5,23,11.0,0.0
8128,64.0,11,23,12.0,0.0
8129,52.0,2,30,13.0,0.0
8130,52.0,1,30,14.0,0.0
8131,48.0,8,0,15.0,0.0
8132,72.0,3,23,10.0,0.0
8133,72.0,5,23,11.0,0.0
8134,64.0,14,23,12.0,0.0
8135,48.0,8,0,15.0,0.0
8136,76.0,3,23,10.0,0.0
8137,76.0,5,23,11.0,0.0
8138,60.0,11,23,12.0,0.0
8139,48.0,2,30,13.0,0.0
8140,48.0,1,30,14.0,0.0
8141,76.0,3,23,10.0,0.0
8142,76.0,5,23,11.0,0.0
8143,60.0,14,23,12.0,0.0
8144,48.0,8,0,15.0,0.0
8145,79.0,3,23,10.0,0.0
8146,79.0,5,23,11.0,0.0
8147,55.0,11,23,12.0,0.0
8148,43.0,2,30,13.0,0.0
8149,43.0,1,30,14.0,0.0
8150,79.0,3,23,10.0,0.0
8151,79.0,5,23,11.0,0.0
8152,55.0,14,23,12.0,0.0
8153,48.0,8,0,15.0,0.0
8154,84.0,3,23,10.0,0.0
8155,84.0,5,23,11.0,0.0
8156,52.0,11,23,12.0,0.0
8157,40.0,2,30,13.0,0.0
8158,40.0,1,30,14.0,0.0
8159,84.0,3,23,10.0,0.0
8160,84.0,5,23,11.0,0.0
8161,52.0,14,23,12.0,0.0
8162,48.0,8,0,15.0,0.0
8163,72.0,3,23,10.0,0.0
8164,72.0,5,23,11.0,0.0
8165,60.0,11,23,12.0,0.0
8166,48.0,2,30,13.0,0.0
8167,48.0,1,30,14.0,0.0
8168,48.0,8,0,15.0,0.0
8169,72.0,3,23,10.0,0.0
8170,72.0,5,23,11.0,0.0
8171,60.0,14,23,12.0,0.0
8172,48.0,8,0,15.0,0.0
8173,76.0,3,23,10.0,0.0
8174,76.0,5,23,11.0,0.0
8175,55.0,11,23,12.0,0.0
8176,43.0,2,30,13.0,0.0
8177,43.0,1,30,14.0,0.0
8178,48.0,8,0,15.0,0.0
8179,76.0,3,23,10.0,0.0
8180,76.0,5,23,11.0,0.0
8181,55.0,14,23,12.0,0.0
8182,48.0,8,0,15.0,0.0
8183,79.0,3,23,10.0,0.0
8184,79.0,5,23,11.0,0.0
8185,52.0,11,23,12.0,0.0
8186,40.0,2,30,13.0,0.0
8187,40.0,1,30,14.0,0.0
8188,79.0,3,23,10.0,0.0
8189,79.0,5,23,11.0,0.0
8190,52.0,0,23,12.0,0.0
8191,48.0,8,0,15.0,0.0
8192,84.0,1,60,10.0,0.0
8193,84.0,2,60,0.0,0.0
8194,72.0,1,0,6.0,0.0
8195,60.0,0,0,6.0,0.0
8196,72.0,1,60,11.0,0.0
8197,60.0,4,90,4.0,0.0
8198,72.0,1,60,1.0,0.0
8199,84.0,0,60,1.0,0.0
8200,60.0,0,60,2.0,0.0
8201,72.0,3,60,2.0,0.0
8202,48.0,8,90,5.0,0.0
8203,48.0,1,60,12.0,0.0
8204,60.0,6,0,3.0,0.0
8205,48.0,3,60,3.0,0.0
8206,36.0,2,60,13.0,0.0
8207,36.0,18,60,14.0,0.0
8208,48.0,45,0,15.0,0.0
8209,60.0,60,30,12.0,0.0
8210,48.0,60,30,12.0,0.0
8211,60.0,150,30,12.0,0.0
8212,48.0,90,120,12.0,0.0
8213,60.0,60,30,12.0,0.0
8214,48.0,60,30,12.0,0.0
8215,60.0,150,30,12.0,0.0
8216,63.0,20,2160,11.0,0.0
8217,48.0,90,120,12.0,0.0
8218,60.0,60,30,12.0,0.0
8219,48.0,60,30,12.0,0.0
8220,60.0,150,30,12.0,0.0
8221,48.0,90,120,12.0,0.0
8222,60.0,60,30,12.0,0.0
8223,48.0,60,30,12.0,0.0
8224,60.0,150,30,12.0,0.0
8225,57.0,0,1440,10.0,0.0
8226,66.0,3,1440,10.0,0.0
8227,48.0,1,120,12.0,0.0
8228,63.0,3,120,3.0,0.0
8229,36.0,57,120,13.0,0.0
8230,60.0,29,60,3.0,0.0
8231,60.0,4,30,12.0,0.0
8232,62.0,34,55,3.0,0.0
8233,48.0,22,30,13.0,0.0
8234,48.0,1,30,12.0,0.0
8235,63.0,3,30,3.0,0.0
8236,36.0,56,30,13.0,0.0
8237,60.0,1,30,12.0,0.0
8238,60.0,3,30,3.0,0.0
8239,48.0,143,30,13.0,0.0
8240,72.0,3,120,2.0,0.0
8241,48.0,1,120,12.0,0.0
8242,57.0,3,120,3.0,0.0
8243,36.0,53,120,13.0,0.0
8244,69.0,33,60,2.0,0.0
8245,70.0,35,55,2.0,0.0
8246,60.0,4,30,12.0,0.0
8247,48.0,18,30,13.0,0.0
8248,72.0,3,30,2.0,0.0
8249,48.0,4,30,12.0,0.0
8250,36.0,53,30,13.0,0.0
8251,69.0,3,30,2.0,0.0
8252,60.0,4,30,12.0,0.0
8253,48.0,142,30,13.0,0.0
8254,75.0,1,120,1.0,0.0
8255,63.0,3,120,2.0,0.0
8256,48.0,4,120,12.0,0.0
8257,36.0,52,120,13.0,0.0
8258,72.0,34,60,1.0,0.0
8259,74.0,35,55,1.0,0.0
8260,60.0,4,30,12.0,0.0
8261,48.0,17,30,13.0,0.0
8262,75.0,4,30,1.0,0.0
8263,48.0,4,30,12.0,0.0
8264,36.0,52,30,13.0,0.0
8265,72.0,4,30,1.0,0.0
8266,60.0,4,30,12.0,0.0
8267,48.0,139,30,13.0,0.0
8268,84.0,3,120,0.0,0.0
8269,69.0,4,120,1.0,0.0
8270,48.0,4,120,12.0,0.0
8271,36.0,49,120,13.0,0.0
8272,81.0,37,60,0.0,0.0
8273,82.0,35,55,0.0,0.0
8274,60.0,4,30,12.0,0.0
8275,48.0,14,30,13.0,0.0
8276,84.0,7,30,0.0,0.0
8277,48.0,4,30,12.0,0.0
8278,36.0,49,30,13.0,0.0
8279,81.0,7,30,0.0,0.0
8280,60.0,4,30,12.0,0.0
8281,48.0,18,30,13.0,0.0
8282,65.0,3,23,10.0,0.0
8283,82.0,0,1440,0.0,0.0
8284,86.0,0,1440,0.0,0.0
8285,77.0,1,1440,6.0,0.0
8286,65.0,0,1440,6.0,0.0
8287,65.0,1,1440,4.0,0.0
8288,62.0,5,23,11.0,0.0
8289,74.0,1,1440,1.0,0.0
8290,86.0,0,1440,1.0,0.0
8291,82.0,0,1440,2.0,0.0
8292,53.0,2,1440,5.0,0.0
8293,58.0,11,23,12.0,0.0
8294,62.0,51,1440,3.0,0.0
8295,58.0,2,30,13.0,0.0
8296,46.0,9,30,14.0,0.0
8297,65.0,3,23,10.0,0.0
8298,62.0,5,23,11.0,0.0
8299,58.0,22,23,12.0,0.0
8300,58.0,3,23,10.0,0.0
8301,58.0,5,23,11.0,0.0
8302,65.0,11,23,12.0,0.0
8303,65.0,2,30,13.0,0.0
8304,53.0,9,30,14.0,0.0
8305,58.0,3,23,10.0,0.0
8306,58.0,5,23,11.0,0.0
8307,65.0,22,23,12.0,0.0
8308,62.0,3,23,10.0,0.0
8309,62.0,5,23,11.0,0.0
8310,62.0,11,23,12.0,0.0
8311,62.0,2,30,13.0,0.0
8312,50.0,9,30,14.0,0.0
8313,62.0,3,23,10.0,0.0
8314,62.0,5,23,11.0,0.0
8315,62.0,22,23,12.0,0.0
8316,65.0,3,23,10.0,0.0
8317,65.0,5,23,11.0,0.0
8318,70.0,11,23,12.0,0.0
8319,58.0,2,30,13.0,0.0
8320,46.0,9,30,14.0,0.0
8321,65.0,3,23,10.0,0.0
8322,65.0,5,23,11.0,0.0
8323,70.0,22,23,12.0,0.0
8324,70.0,3,23,10.0,0.0
8325,70.0,5,23,11.0,0.0
8326,65.0,11,23,12.0,0.0
8327,53.0,2,30,13.0,0.0
8328,41.0,9,30,14.0,0.0
8329,70.0,3,23,10.0,0.0
8330,70.0,5,23,11.0,0.0
8331,65.0,22,23,12.0,0.0
8332,62.0,3,23,10.0,0.0
8333,62.0,5,23,11.0,0.0
8334,74.0,11,23,12.0,0.0
8335,62.0,2,30,13.0,0.0
8336,50.0,9,30,14.0,0.0
8337,62.0,3,23,10.0,0.0
8338,62.0,5,23,11.0,0.0
8339,74.0,22,23,12.0,0.0
8340,65.0,3,23,10.0,0.0
8341,65.0,5,23,11.0,0.0
8342,70.0,11,23,12.0,0.0
8343,58.0,2,30,13.0,0.0
8344,46.0,9,30,14.0,0.0
8345,65.0,3,23,10.0,0.0
8346,65.0,5,23,11.0,0.0
8347,70.0,22,23,12.0,0.0
8348,70.0,3,23,10.0,0.0
8349,70.0,5,23,11.0,0.0
8350,65.0,11,23,12.0,0.0
8351,53.0,2,30,13.0,0.0
8352,41.0,9,30,14.0,0.0
8353,70.0,3,23,10.0,0.0
8354,70.0,5,23,11.0,0.0
8355,65.0,22,23,12.0,0.0
8356,74.0,3,23,10.0,0.0
8357,74.0,5,23,11.0,0.0
8358,62.0,11,23,12.0,0.0
8359,50.0,2,30,13.0,0.0
8360,38.0,9,30,14.0,0.0
8361,74.0,3,23,10.0,0.0
8362,74.0,5,23,11.0,0.0
8363,62.0,22,23,12.0,0.0
8364,65.0,3,23,10.0,0.0
8365,65.0,5,23,11.0,0.0
8366,70.0,11,23,12.0,0.0
8367,58.0,2,30,13.0,0.0
8368,46.0,9,30,14.0,0.0
8369,65.0,3,23,10.0,0.0
8370,65.0,5,23,11.0,0.0
8371,70.0,22,23,12.0,0.0
8372,70.0,3,23,10.0,0.0
8373,70.0,5,23,11.0,0.0
8374,65.0,11,23,12.0,0.0
8375,53.0,2,30,13.0,0.0
8376,41.0,9,30,14.0,0.0
8377,70.0,3,23,10.0,0.0
8378,70.0,5,23,11.0,0.0
8379,65.0,22,23,12.0,0.0
8380,74.0,3,23,10.0,0.0
8381,74.0,5,23,11.0,0.0
8382,62.0,11,23,12.0,0.0
8383,50.0,2,30,13.0,0.0
8384,38.0,9,30,14.0,0.0
8385,74.0,3,23,10.0,0.0
8386,74.0,5,23,11.0,0.0
8387,62.0,22,23,12.0,0.0
8388,77.0,3,23,10.0,0.0
8389,77.0,5,23,11.0,0.0
8390,58.0,11,23,12.0,0.0
8391,46.0,2,30,13.0,0.0
8392,34.0,9,30,14.0,0.0
8393,77.0,3,23,10.0,0.0
8394,77.0,5,23,11.0,0.0
8395,58.0,22,23,12.0,0.0
8396,70.0,3,23,10.0,0.0
8397,70.0,5,23,11.0,0.0
8398,65.0,11,23,12.0,0.0
8399,53.0,2,30,13.0,0.0
8400,41.0,9,30,14.0,0.0
8401,70.0,3,23,10.0,0.0
8402,70.0,5,23,11.0,0.0
8403,65.0,22,23,12.0,0.0
8404,74.0,3,23,10.0,0.0
8405,74.0,5,23,11.0,0.0
8406,62.0,11,23,12.0,0.0
8407,50.0,2,30,13.0,0.0
8408,38.0,9,30,14.0,0.0
8409,74.0,3,23,10.0,0.0
8410,74.0,5,23,11.0,0.0
8411,62.0,22,23,12.0,0.0
8412,77.0,3,23,10.0,0.0
8413,77.0,5,23,11.0,0.0
8414,58.0,11,23,12.0,0.0
8415,46.0,2,30,13.0,0.0
8416,34.0,9,30,14.0,0.0
8417,77.0,3,23,10.0,0.0
8418,77.0,5,23,11.0,0.0
8419,58.0,22,23,12.0,0.0
8420,82.0,3,23,10.0,0.0
8421,70.0,5,23,11.0,0.0
8422,53.0,11,23,12.0,0.0
8423,41.0,2,30,13.0,0.0
8424,29.0,9,30,14.0,0.0
8425,82.0,3,23,10.0,0.0
8426,70.0,5,23,11.0,0.0
8427,53.0,22,23,12.0,0.0
8428,70.0,3,23,10.0,0.0
8429,65.0,5,23,11.0,0.0
8430,74.0,11,23,12.0,0.0
8431,62.0,2,30,13.0,0.0
8432,50.0,9,30,14.0,0.0
8433,70.0,3,23,10.0,0.0
8434,65.0,5,23,11.0,0.0
8435,74.0,22,23,12.0,0.0
8436,74.0,3,23,10.0,0.0
8437,70.0,5,23,11.0,0.0
8438,70.0,11,23,12.0,0.0
8439,58.0,2,30,13.0,0.0
8440,46.0,9,30,14.0,0.0
8441,74.0,3,23,10.0,0.0
8442,70.0,5,23,11.0,0.0
8443,70.0,22,23,12.0,0.0
8444,77.0,3,23,10.0,0.0
8445,74.0,5,23,11.0,0.0
8446,65.0,11,23,12.0,0.0
8447,53.0,2,30,13.0,0.0
8448,41.0,9,30,14.0,0.0
8449,77.0,3,23,10.0,0.0
8450,74.0,5,23,11.0,0.0
8451,65.0,22,23,12.0,0.0
8452,82.0,3,23,10.0,0.0
8453,77.0,5,23,11.0,0.0
8454,62.0,11,23,12.0,0.0
8455,50.0,2,30,13.0,0.0
8456,38.0,9,30,14.0,0.0
8457,82.0,3,23,10.0,0.0
8458,77.0,5,23,11.0,0.0
8459,62.0,22,23,12.0,0.0
8460,70.0,3,23,10.0,0.0
8461,65.0,5,23,11.0,0.0
8462,70.0,11,23,12.0,0.0
8463,58.0,2,30,13.0,0.0
8464,46.0,9,30,14.0,0.0
8465,70.0,3,23,10.0,0.0
8466,65.0,5,23,11.0,0.0
8467,70.0,22,23,12.0,0.0
8468,74.0,3,23,10.0,0.0
8469,70.0,5,23,11.0,0.0
8470,65.0,11,23,12.0,0.0
8471,53.0,2,30,13.0,0.0
8472,41.0,9,30,14.0,0.0
8473,74.0,3,23,10.0,0.0
8474,70.0,5,23,11.0,0.0
8475,65.0,22,23,12.0,0.0
8476,77.0,3,23,10.0,0.0
8477,65.0,5,23,11.0,0.0
8478,62.0,11,23,12.0,0.0
8479,50.0,2,30,13.0,0.0
8480,38.0,9,30,14.0,0.0
8481,77.0,3,23,10.0,0.0
8482,65.0,5,23,11.0,0.0
8483,62.0,1,23,12.0,0.0
8484,82.0,1,60,10.0,0.0
8485,82.0,2,60,0.0,0.0
8486,70.0,1,60,11.0,0.0
8487,82.0,0,60,1.0,0.0
8488,70.0,1,60,1.0,0.0
8489,82.0,0,60,2.0,0.0
8490,70.0,2,0,2.0,0.0
8491,58.0,1,60,12.0,0.0
8492,58.0,0,0,3.0,0.0
8493,46.0,0,60,3.0,0.0
8494,46.0,2,60,13.0,0.0
8495,34.0,148,60,14.0,0.0
8496,58.0,60,30,13.0,0.0
8497,46.0,60,30,13.0,0.0
8498,58.0,150,30,13.0,0.0
8499,46.0,90,120,13.0,0.0
8500,58.0,60,30,13.0,0.0
8501,46.0,60,30,13.0,0.0
8502,58.0,150,30,13.0,0.0
8503,64.0,1,1800,11.0,0.0
8504,46.0,90,120,13.0,0.0
8505,58.0,60,30,13.0,0.0
8506,46.0,60,30,13.0,0.0
8507,58.0,150,30,13.0,0.0
8508,46.0,90,120,13.0,0.0
8509,58.0,60,30,13.0,0.0
8510,46.0,60,30,13.0,0.0
8511,58.0,147,30,13.0,0.0
8512,57.0,1,1440,10.0,0.0
8513,67.0,3,1080,10.0,0.0
8514,61.0,113,1080,12.0,0.0
8515,67.0,3,120,3.0,0.0
8516,45.0,2,120,13.0,0.0
8517,33.0,55,120,14.0,0.0
8518,64.0,33,60,3.0,0.0
8519,65.0,33,60,3.0,0.0
8520,57.0,2,30,13.0,0.0
8521,45.0,25,30,14.0,0.0
8522,67.0,33,60,3.0,0.0
8523,45.0,2,30,13.0,0.0
8524,33.0,25,30,14.0,0.0
8525,64.0,116,60,3.0,0.0
8526,57.0,2,30,13.0,0.0
8527,45.0,25,30,14.0,0.0
8528,76.0,4,120,2.0,0.0
8529,61.0,3,120,3.0,0.0
8530,45.0,2,120,13.0,0.0
8531,33.0,51,120,14.0,0.0
8532,73.0,37,60,2.0,0.0
8533,74.0,37,60,2.0,0.0
8534,57.0,2,30,13.0,0.0
8535,45.0,21,30,14.0,0.0
8536,76.0,37,60,2.0,0.0
8537,45.0,2,30,13.0,0.0
8538,33.0,21,30,14.0,0.0
8539,73.0,119,60,2.0,0.0
8540,57.0,2,30,13.0,0.0
8541,45.0,21,30,14.0,0.0
8542,79.0,1,120,1.0,0.0
8543,67.0,7,120,2.0,0.0
8544,45.0,2,120,13.0,0.0
8545,33.0,50,120,14.0,0.0
8546,76.0,38,60,1.0,0.0
8547,77.0,38,60,1.0,0.0
8548,57.0,2,30,13.0,0.0
8549,45.0,20,30,14.0,0.0
8550,79.0,38,60,1.0,0.0
8551,45.0,2,30,13.0,0.0
8552,33.0,20,30,14.0,0.0
8553,76.0,4,60,1.0,0.0
8554,57.0,2,30,13.0,0.0
8555,45.0,16,30,14.0,0.0
8556,65.0,1,240,10.0,0.0
8557,89.0,3,120,0.0,0.0
8558,65.0,2,240,11.0,0.0
8559,77.0,1,120,1.0,0.0
8560,77.0,0,120,2.0,0.0
8561,69.0,4,120,2.0,0.0
8562,62.0,1,240,12.0,0.0
8563,62.0,3,120,3.0,0.0
8564,45.0,2,120,13.0,0.0
8565,33.0,47,120,14.0,0.0
8566,86.0,4,60,0.0,0.0
8567,74.0,0,60,2.0,0.0
8568,65.0,4,60,2.0,0.0
8569,65.0,33,60,3.0,0.0
8570,88.0,2,60,0.0,0.0
8571,67.0,0,60,2.0,0.0
8572,76.0,3,60,2.0,0.0
8573,64.0,33,60,3.0,0.0
8574,57.0,2,30,13.0,0.0
8575,45.0,16,30,14.0,0.0
8576,89.0,4,60,0.0,0.0
8577,62.0,2,120,11.0,0.0
8578,77.0,4,60,2.0,0.0
8579,69.0,0,60,2.0,0.0
8580,57.0,1,120,12.0,0.0
8581,62.0,33,60,3.0,0.0
8582,45.0,2,30,13.0,0.0
8583,33.0,17,30,14.0,0.0
8584,86.0,2,60,0.0,0.0
8585,65.0,0,60,2.0,0.0
8586,74.0,3,60,2.0,0.0
8587,64.0,14,60,3.0,0.0
8588,57.0,2,30,13.0,0.0
8589,45.0,16,30,14.0,0.0
8590,64.0,3,23,10.0,0.0
8591,61.0,5,23,11.0,0.0
8592,81.0,0,1440,2.0,0.0
8593,69.0,2,1440,2.0,0.0
8594,57.0,2,1440,5.0,0.0
8595,69.0,11,23,12.0,0.0
8596,45.0,51,1440,3.0,0.0
8597,57.0,0,1440,3.0,0.0
8598,57.0,2,30,13.0,0.0
8599,45.0,9,30,14.0,0.0
8600,64.0,3,23,10.0,0.0
8601,61.0,5,23,11.0,0.0
8602,69.0,22,23,12.0,0.0
8603,57.0,3,23,10.0,0.0
8604,57.0,5,23,11.0,0.0
8605,76.0,11,23,12.0,0.0
8606,64.0,2,30,13.0,0.0
8607,52.0,9,30,14.0,0.0
8608,57.0,3,23,10.0,0.0
8609,57.0,5,23,11.0,0.0
8610,76.0,22,23,12.0,0.0
8611,61.0,3,23,10.0,0.0
8612,61.0,5,23,11.0,0.0
8613,73.0,11,23,12.0,0.0
8614,61.0,2,30,13.0,0.0
8615,49.0,9,30,14.0,0.0
8616,61.0,3,23,10.0,0.0
8617,61.0,5,23,11.0,0.0
8618,73.0,22,23,12.0,0.0
8619,64.0,3,23,10.0,0.0
8620,64.0,5,23,11.0,0.0
8621,69.0,11,23,12.0,0.0
8622,57.0,2,30,13.0,0.0
8623,45.0,9,30,14.0,0.0
8624,64.0,3,23,10.0,0.0
8625,64.0,5,23,11.0,0.0
8626,69.0,22,23,12.0,0.0
8627,69.0,3,23,10.0,0.0
8628,69.0,5,23,11.0,0.0
8629,64.0,11,23,12.0,0.0
8630,52.0,2,30,13.0,0.0
8631,40.0,9,30,14.0,0.0
8632,69.0,3,23,10.0,0.0
8633,69.0,5,23,11.0,0.0
8634,64.0,22,23,12.0,0.0
8635,61.0,3,23,10.0,0.0
8636,61.0,5,23,11.0,0.0
8637,73.0,11,23,12.0,0.0
8638,61.0,2,30,13.0,0.0
8639,49.0,9,30,14.0,0.0
8640,61.0,3,23,10.0,0.0
8641,61.0,5,23,11.0,0.0
8642,73.0,22,23,12.0,0.0
8643,64.0,3,23,10.0,0.0
8644,64.0,5,23,11.0,0.0
8645,69.0,11,23,12.0,0.0
8646,57.0,2,30,13.0,0.0
8647,45.0,9,30,14.0,0.0
8648,64.0,3,23,10.0,0.0
8649,64.0,5,23,11.0,0.0
8650,69.0,22,23,12.0,0.0
8651,69.0,3,23,10.0,0.0
8652,69.0,5,23,11.0,0.0
8653,64.0,11,23,12.0,0.0
8654,52.0,2,30,13.0,0.0
8655,40.0,9,30,14.0,0.0
8656,69.0,3,23,10.0,0.0
8657,69.0,5,23,11.0,0.0
8658,64.0,22,23,12.0,0.0
8659,73.0,3,23,10.0,0.0
8660,73.0,5,23,11.0,0.0
8661,61.0,11,23,12.0,0.0
8662,49.0,2,30,13.0,0.0
8663,37.0,9,30,14.0,0.0
8664,73.0,3,23,10.0,0.0
8665,73.0,5,23,11.0,0.0
8666,61.0,22,23,12.0,0.0
8667,64.0,3,23,10.0,0.0
8668,64.0,5,23,11.0,0.0
8669,69.0,11,23,12.0,0.0
8670,57.0,2,30,13.0,0.0
8671,45.0,9,30,14.0,0.0
8672,64.0,3,23,10.0,0.0
8673,64.0,5,23,11.0,0.0
8674,69.0,22,23,12.0,0.0
8675,69.0,3,23,10.0,0.0
8676,69.0,5,23,11.0,0.0
8677,64.0,11,23,12.0,0.0
8678,52.0,2,30,13.0,0.0
8679,40.0,9,30,14.0,0.0
8680,69.0,3,23,10.0,0.0
8681,69.0,5,23,11.0,0.0
8682,64.0,22,23,12.0,0.0
8683,73.0,3,23,10.0,0.0
8684,73.0,5,23,11.0,0.0
8685,61.0,11,23,12.0,0.0
8686,49.0,2,30,13.0,0.0
8687,37.0,9,30,14.0,0.0
8688,73.0,3,23,10.0,0.0
8689,73.0,5,23,11.0,0.0
8690,61.0,22,23,12.0,0.0
8691,76.0,3,23,10.0,0.0
8692,76.0,5,23,11.0,0.0
8693,57.0,11,23,12.0,0.0
8694,45.0,2,30,13.0,0.0
8695,33.0,9,30,14.0,0.0
8696,76.0,3,23,10.0,0.0
8697,76.0,5,23,11.0,0.0
8698,57.0,22,23,12.0,0.0
8699,69.0,3,23,10.0,0.0
8700,69.0,5,23,11.0,0.0
8701,73.0,11,23,12.0,0.0
8702,61.0,2,30,13.0,0.0
8703,49.0,9,30,14.0,0.0
8704,69.0,3,23,10.0,0.0
8705,69.0,5,23,11.0,0.0
8706,73.0,22,23,12.0,0.0
8707,73.0,3,23,10.0,0.0
8708,73.0,5,23,11.0,0.0
8709,69.0,11,23,12.0,0.0
8710,57.0,2,30,13.0,0.0
8711,45.0,9,30,14.0,0.0
8712,73.0,3,23,10.0,0.0
8713,73.0,5,23,11.0,0.0
8714,69.0,22,23,12.0,0.0
8715,76.0,3,23,10.0,0.0
8716,76.0,5,23,11.0,0.0
8717,64.0,11,23,12.0,0.0
8718,52.0,2,30,13.0,0.0
8719,40.0,9,30,14.0,0.0
8720,76.0,3,23,10.0,0.0
8721,76.0,5,23,11.0,0.0
8722,64.0,22,23,12.0,0.0
8723,81.0,3,23,10.0,0.0
8724,81.0,5,23,11.0,0.0
8725,61.0,11,23,12.0,0.0
8726,49.0,2,30,13.0,0.0
8727,37.0,9,30,14.0,0.0
8728,81.0,3,23,10.0,0.0
8729,81.0,5,23,11.0,0.0
8730,61.0,22,23,12.0,0.0
8731,69.0,3,23,10.0,0.0
8732,69.0,5,23,11.0,0.0
8733,69.0,11,23,12.0,0.0
8734,57.0,2,30,13.0,0.0
8735,45.0,9,30,14.0,0.0
8736,69.0,3,23,10.0,0.0
8737,69.0,5,23,11.0,0.0
8738,69.0,22,23,12.0,0.0
8739,73.0,3,23,10.0,0.0
8740,73.0,5,23,11.0,0.0
8741,64.0,11,23,12.0,0.0
8742,52.0,2,30,13.0,0.0
8743,40.0,9,30,14.0,0.0
8744,73.0,3,23,10.0,0.0
8745,73.0,5,23,11.0,0.0
8746,64.0,22,23,12.0,0.0
8747,76.0,3,23,10.0,0.0
8748,76.0,5,23,11.0,0.0
8749,61.0,11,23,12.0,0.0
8750,49.0,2,30,13.0,0.0
8751,37.0,9,30,14.0,0.0
8752,76.0,3,23,10.0,0.0
8753,76.0,5,23,11.0,0.0
8754,61.0,22,23,12.0,0.0
8755,81.0,3,23,10.0,0.0
8756,81.0,5,23,11.0,0.0
8757,57.0,11,23,12.0,0.0
8758,45.0,2,30,13.0,0.0
8759,33.0,9,30,14.0,0.0
8760,81.0,3,23,10.0,0.0
8761,81.0,5,23,11.0,0.0
8762,57.0,22,23,12.0,0.0
8763,69.0,3,23,10.0,0.0
8764,69.0,5,23,11.0,0.0
8765,69.0,11,23,12.0,0.0
8766,57.0,2,30,13.0,0.0
8767,45.0,9,30,14.0,0.0
8768,69.0,3,23,10.0,0.0
8769,69.0,5,23,11.0,0.0
8770,69.0,22,23,12.0,0.0
8771,73.0,3,23,10.0,0.0
8772,73.0,5,23,11.0,0.0
8773,64.0,11,23,12.0,0.0
8774,52.0,2,30,13.0,0.0
8775,40.0,9,30,14.0,0.0
8776,73.0,3,23,10.0,0.0
8777,73.0,5,23,11.0,0.0
8778,64.0,22,23,12.0,0.0
8779,76.0,3,23,10.0,0.0
8780,76.0,5,23,11.0,0.0
8781,61.0,11,23,12.0,0.0
8782,49.0,2,30,13.0,0.0
8783,37.0,9,30,14.0,0.0
8784,76.0,3,23,10.0,0.0
8785,76.0,5,23,11.0,0.0
8786,61.0,0,23,12.0,0.0
8787,81.0,3,60,10.0,0.0
8788,69.0,0,60,10.0,0.0
8789,93.0,0,0,0.0,0.0
8790,81.0,1,0,0.0,0.0
8791,81.0,1,0,6.0,0.0
8792,69.0,0,0,6.0,0.0
8793,69.0,1,0,4.0,0.0
8794,69.0,5,60,11.0,0.0
8795,81.0,0,60,11.0,0.0
8796,81.0,0,0,1.0,0.0
8797,69.0,1,0,1.0,0.0
8798,81.0,2,120,2.0,0.0
8799,69.0,0,120,2.0,0.0
8800,57.0,2,120,5.0,0.0
8801,57.0,4,60,12.0,0.0
8802,57.0,0,120,3.0,0.0
8803,45.0,97,120,3.0,0.0
8804,45.0,2,60,13.0,0.0
8805,33.0,47,60,14.0,0.0
8806,57.0,2,34,13.0,0.0
8807,45.0,58,34,14.0,0.0
8808,45.0,2,34,13.0,0.0
8809,33.0,58,34,14.0,0.0
8810,57.0,2,34,13.0,0.0
8811,45.0,132,34,14.0,0.0
8812,69.0,0,120,10.0,0.0
8813,81.0,1,120,10.0,0.0
8814,81.0,0,120,0.0,0.0
8815,93.0,1,120,0.0,0.0
8816,81.0,0,120,6.0,0.0
8817,69.0,1,120,6.0,0.0
8818,57.0,0,120,11.0,0.0
8819,69.0,1,120,11.0,0.0
8820,69.0,0,120,4.0,0.0
8821,69.0,1,120,1.0,0.0
8822,81.0,0,120,1.0,0.0
8823,81.0,0,120,2.0,0.0
8824,69.0,2,120,2.0,0.0
8825,57.0,1,120,5.0,0.0
8826,57.0,1,120,12.0,0.0
8827,57.0,0,120,3.0,0.0
8828,45.0,3,120,3.0,0.0
8829,45.0,2,120,13.0,0.0
8830,33.0,80,120,14.0,0.0
8831,81.0,3,34,10.0,0.0
8832,93.0,2,60,0.0,0.0
8833,69.0,5,34,11.0,0.0
8834,69.0,19,34,12.0,0.0
8835,45.0,25,60,3.0,0.0
8836,69.0,3,34,10.0,0.0
8837,81.0,0,0,0.0,0.0
8838,93.0,2,60,0.0,0.0
8839,69.0,1,0,4.0,0.0
8840,57.0,5,34,11.0,0.0
8841,81.0,0,0,1.0,0.0
8842,69.0,1,0,1.0,0.0
8843,81.0,0,0,2.0,0.0
8844,69.0,2,0,2.0,0.0
8845,57.0,2,0,5.0,0.0
8846,57.0,19,34,12.0,0.0
8847,57.0,0,0,3.0,0.0
8848,45.0,0,60,3.0,0.0
8849,81.0,3,34,10.0,0.0
8850,81.0,0,0,0.0,0.0
8851,69.0,5,34,11.0,0.0
8852,69.0,1,0,4.0,0.0
8853,69.0,0,0,1.0,0.0
8854,81.0,1,0,1.0,0.0
8855,69.0,2,0,2.0,0.0
8856,81.0,0,60,2.0,0.0
8857,57.0,2,0,5.0,0.0
8858,69.0,19,34,12.0,0.0
8859,57.0,0,60,3.0,0.0
8860,69.0,1,120,10.0,0.0
8861,93.0,0,0,0.0,0.0
8862,81.0,0,120,0.0,0.0
8863,69.0,0,120,6.0,0.0
8864,81.0,1,120,6.0,0.0
8865,69.0,1,0,4.0,0.0
8866,57.0,0,120,11.0,0.0
8867,69.0,1,120,11.0,0.0
8868,69.0,1,0,1.0,0.0
8869,81.0,0,0,1.0,0.0
8870,81.0,2,120,2.0,0.0
8871,69.0,2,0,2.0,0.0
8872,57.0,2,0,5.0,0.0
8873,57.0,1,120,12.0,0.0
8874,57.0,3,120,3.0,0.0
8875,45.0,111,0,3.0,0.0
8876,45.0,2,120,13.0,0.0
8877,33.0,92,120,14.0,0.0
8878,57.0,2,34,13.0,0.0
8879,45.0,58,34,14.0,0.0
8880,45.0,2,34,13.0,0.0
8881,33.0,58,34,14.0,0.0
8882,57.0,2,34,13.0,0.0
8883,45.0,132,34,14.0,0.0
8884,81.0,0,120,10.0,0.0
8885,69.0,1,120,10.0,0.0
8886,93.0,1,120,0.0,0.0
8887,81.0,0,120,0.0,0.0
8888,69.0,1,120,6.0,0.0
8889,81.0,0,120,6.0,0.0
8890,57.0,0,120,11.0,0.0
8891,69.0,1,120,11.0,0.0
8892,69.0,0,120,4.0,0.0
8893,81.0,1,120,1.0,0.0
8894,69.0,0,120,1.0,0.0
8895,69.0,0,120,2.0,0.0
8896,81.0,2,120,2.0,0.0
8897,57.0,1,120,5.0,0.0
8898,57.0,1,120,12.0,0.0
8899,45.0,3,120,3.0,0.0
8900,57.0,0,120,3.0,0.0
8901,45.0,2,120,13.0,0.0
8902,33.0,80,120,14.0,0.0
8903,81.0,3,34,10.0,0.0
8904,81.0,0,60,0.0,0.0
8905,69.0,5,34,11.0,0.0
8906,69.0,0,60,1.0,0.0
8907,81.0,0,60,2.0,0.0
8908,69.0,2,60,2.0,0.0
8909,69.0,19,34,12.0,0.0
8910,69.0,3,34,10.0,0.0
8911,93.0,2,0,0.0,0.0
8912,69.0,1,0,4.0,0.0
8913,57.0,5,34,11.0,0.0
8914,81.0,1,0,1.0,0.0
8915,69.0,0,60,2.0,0.0
8916,81.0,2,60,2.0,0.0
8917,57.0,2,0,5.0,0.0
8918,57.0,19,34,12.0,0.0
8919,45.0,0,0,3.0,0.0
8920,57.0,25,0,3.0,0.0
8921,57.0,2,240,13.0,0.0
8922,45.0,9,240,14.0,0.0
8923,81.0,3,34,10.0,0.0
8924,81.0,2,0,0.0,0.0
8925,93.0,0,0,0.0,0.0
8926,69.0,1,0,4.0,0.0
8927,69.0,5,34,11.0,0.0
8928,69.0,1,0,1.0,0.0
8929,57.0,2,60,5.0,0.0
8930,69.0,19,34,12.0,0.0
8931,57.0,0,0,3.0,0.0
8932,45.0,25,0,3.0,0.0
8933,69.0,30,23,10.0,0.0
8934,81.0,1,120,0.0,0.0
8935,93.0,0,120,0.0,0.0
8936,81.0,0,120,6.0,0.0
8937,69.0,1,120,6.0,0.0
8938,69.0,1,0,4.0,0.0
8939,62.0,0,120,11.0,0.0
8940,65.0,0,120,11.0,0.0
8941,81.0,1,0,1.0,0.0
8942,69.0,0,0,1.0,0.0
8943,81.0,0,0,2.0,0.0
8944,69.0,2,0,2.0,0.0
8945,57.0,1,120,5.0,0.0
8946,57.0,0,120,12.0,0.0
8947,69.0,1,120,12.0,0.0
8948,57.0,14,0,3.0,0.0
8949,45.0,0,0,3.0,0.0
8950,81.0,30,23,10.0,0.0
8951,81.0,30,23,10.0,0.0
8952,81.0,8,23,10.0,0.0
8953,81.0,30,23,10.0,0.0
8954,53.0,2,60,13.0,0.0
8955,41.0,9,60,14.0,0.0
8956,81.0,19,23,10.0,0.0
8957,81.0,30,23,10.0,0.0
8958,55.0,2,60,13.0,0.0
8959,43.0,9,60,14.0,0.0
8960,81.0,19,23,10.0,0.0
8961,81.0,19,23,10.0,0.0
8962,57.0,2,30,13.0,0.0
8963,45.0,9,30,14.0,0.0
8964,81.0,30,23,10.0,0.0
8965,81.0,19,23,10.0,0.0
8966,53.0,2,30,13.0,0.0
8967,41.0,9,30,14.0,0.0
8968,81.0,30,23,10.0,0.0
8969,81.0,30,23,10.0,0.0
8970,50.0,2,360,13.0,0.0
8971,38.0,9,360,14.0,0.0
8972,81.0,30,23,10.0,0.0
8973,77.0,30,23,10.0,0.0
8974,77.0,30,23,10.0,0.0
8975,74.0,30,23,10.0,0.0
8976,86.0,0,240,0.0,0.0
8977,89.0,3,240,0.0,0.0
8978,77.0,1,240,1.0,0.0
8979,81.0,0,240,1.0,0.0
8980,69.0,4,240,2.0,0.0
8981,65.0,0,240,2.0,0.0
8982,62.0,3,240,3.0,0.0
8983,50.0,0,240,3.0,0.0
8984,74.0,30,23,10.0,0.0
8985,69.0,30,23,10.0,0.0
8986,69.0,30,23,10.0,0.0
8987,65.0,30,23,10.0,0.0
8988,65.0,30,23,10.0,0.0
8989,62.0,30,23,10.0,0.0
8990,62.0,8,23,10.0,0.0
8991,62.0,30,23,10.0,0.0
8992,58.0,2,120,13.0,0.0
8993,46.0,9,120,14.0,0.0
8994,62.0,30,23,10.0,0.0
8995,82.0,30,23,10.0,0.0
8996,82.0,19,23,10.0,0.0
8997,82.0,30,23,10.0,0.0
8998,55.0,2,60,13.0,0.0
8999,43.0,9,60,14.0,0.0
9000,82.0,19,23,10.0,0.0
9001,82.0,30,23,10.0,0.0
9002,57.0,2,60,13.0,0.0
9003,45.0,9,60,14.0,0.0
9004,82.0,19,23,10.0,0.0
9005,82.0,19,23,10.0,0.0
9006,58.0,2,30,13.0,0.0
9007,46.0,9,30,14.0,0.0
9008,82.0,30,23,10.0,0.0
9009,82.0,19,23,10.0,0.0
9010,55.0,2,30,13.0,0.0
9011,43.0,9,30,14.0,0.0
9012,82.0,30,23,10.0,0.0
9013,82.0,30,23,10.0,0.0
9014,50.0,2,360,13.0,0.0
9015,38.0,9,360,14.0,0.0
9016,82.0,30,23,10.0,0.0
9017,79.0,30,23,10.0,0.0
9018,79.0,30,23,10.0,0.0
9019,74.0,30,23,10.0,0.0
9020,86.0,0,240,0.0,0.0
9021,91.0,3,240,0.0,0.0
9022,79.0,1,240,1.0,0.0
9023,82.0,0,240,1.0,0.0
9024,70.0,4,240,2.0,0.0
9025,67.0,0,240,2.0,0.0
9026,62.0,3,240,3.0,0.0
9027,50.0,0,240,3.0,0.0
9028,74.0,30,23,10.0,0.0
9029,70.0,30,23,10.0,0.0
9030,70.0,30,23,10.0,0.0
9031,67.0,30,23,10.0,0.0
9032,67.0,30,23,10.0,0.0
9033,62.0,30,23,10.0,0.0
9034,62.0,8,23,10.0,0.0
9035,64.0,30,23,10.0,0.0
9036,61.0,2,120,13.0,0.0
9037,49.0,9,120,14.0,0.0
9038,64.0,30,23,10.0,0.0
9039,76.0,30,23,10.0,0.0
9040,76.0,19,23,10.0,0.0
9041,82.0,30,23,10.0,0.0
9042,88.0,3,240,0.0,0.0
9043,76.0,5,240,1.0,0.0
9044,64.0,14,240,3.0,0.0
9045,55.0,2,60,13.0,0.0
9046,43.0,9,60,14.0,0.0
9047,82.0,19,23,10.0,0.0
9048,81.0,30,23,10.0,0.0
9049,57.0,2,60,13.0,0.0
9050,45.0,9,60,14.0,0.0
9051,81.0,19,23,10.0,0.0
9052,79.0,19,23,10.0,0.0
9053,58.0,2,30,13.0,0.0
9054,46.0,9,30,14.0,0.0
9055,79.0,30,23,10.0,0.0
9056,82.0,19,23,10.0,0.0
9057,55.0,2,30,13.0,0.0
9058,43.0,9,30,14.0,0.0
9059,82.0,8,23,10.0,0.0
9060,73.0,30,23,10.0,0.0
9061,89.0,3,60,0.0,0.0
9062,77.0,5,60,1.0,0.0
9063,65.0,14,60,3.0,0.0
9064,57.0,2,120,13.0,0.0
9065,45.0,9,120,14.0,0.0
9066,73.0,8,23,10.0,0.0
9067,81.0,30,23,10.0,0.0
9068,81.0,19,23,10.0,0.0
9069,79.0,30,23,10.0,0.0
9070,85.0,3,240,0.0,0.0
9071,73.0,5,240,1.0,0.0
9072,61.0,14,240,3.0,0.0
9073,52.0,2,60,13.0,0.0
9074,40.0,9,60,14.0,0.0
9075,79.0,19,23,10.0,0.0
9076,77.0,30,23,10.0,0.0
9077,53.0,2,60,13.0,0.0
9078,41.0,9,60,14.0,0.0
9079,77.0,19,23,10.0,0.0
9080,76.0,19,23,10.0,0.0
9081,55.0,2,30,13.0,0.0
9082,43.0,9,30,14.0,0.0
9083,76.0,30,23,10.0,0.0
9084,79.0,19,23,10.0,0.0
9085,52.0,2,30,13.0,0.0
9086,40.0,9,30,14.0,0.0
9087,79.0,8,23,10.0,0.0
9088,69.0,30,23,10.0,0.0
9089,86.0,3,60,0.0,0.0
9090,74.0,5,60,1.0,0.0
9091,62.0,14,60,3.0,0.0
9092,53.0,2,120,13.0,0.0
9093,41.0,9,120,14.0,0.0
9094,69.0,8,23,10.0,0.0
9095,77.0,30,23,10.0,0.0
9096,77.0,19,23,10.0,0.0
9097,76.0,30,23,10.0,0.0
9098,88.0,3,240,0.0,0.0
9099,76.0,5,240,1.0,0.0
9100,64.0,14,240,3.0,0.0
9101,49.0,2,60,13.0,0.0
9102,37.0,9,60,14.0,0.0
9103,76.0,19,23,10.0,0.0
9104,74.0,30,23,10.0,0.0
9105,50.0,2,60,13.0,0.0
9106,38.0,9,60,14.0,0.0
9107,74.0,19,23,10.0,0.0
9108,73.0,19,23,10.0,0.0
9109,52.0,2,30,13.0,0.0
9110,40.0,9,30,14.0,0.0
9111,73.0,30,23,10.0,0.0
9112,76.0,19,23,10.0,0.0
9113,49.0,2,30,13.0,0.0
9114,37.0,9,30,14.0,0.0
9115,76.0,8,23,10.0,0.0
9116,65.0,30,23,10.0,0.0
9117,89.0,3,60,0.0,0.0
9118,77.0,5,60,1.0,0.0
9119,65.0,14,60,3.0,0.0
9120,50.0,2,120,13.0,0.0
9121,38.0,9,120,14.0,0.0
9122,65.0,8,23,10.0,0.0
9123,74.0,30,23,10.0,0.0
9124,74.0,19,23,10.0,0.0
9125,72.0,30,23,10.0,0.0
9126,90.0,3,240,0.0,0.0
9127,78.0,5,240,1.0,0.0
9128,66.0,14,240,3.0,0.0
9129,45.0,2,60,13.0,0.0
9130,33.0,9,60,14.0,0.0
9131,72.0,19,23,10.0,0.0
9132,70.0,30,23,10.0,0.0
9133,46.0,2,60,13.0,0.0
9134,34.0,9,60,14.0,0.0
9135,70.0,19,23,10.0,0.0
9136,69.0,19,23,10.0,0.0
9137,74.0,1,240,11.0,0.0
9138,74.0,2,240,2.0,0.0
9139,48.0,2,30,13.0,0.0
9140,36.0,9,30,14.0,0.0
9141,69.0,30,23,10.0,0.0
9142,72.0,19,23,10.0,0.0
9143,45.0,2,30,13.0,0.0
9144,33.0,9,30,14.0,0.0
9145,72.0,8,23,10.0,0.0
9146,70.0,30,23,10.0,0.0
9147,91.0,2,120,0.0,0.0
9148,79.0,1,120,1.0,0.0
9149,67.0,14,120,3.0,0.0
9150,43.0,2,55,13.0,0.0
9151,31.0,14,55,14.0,0.0
9152,70.0,14,23,10.0,0.0
9153,62.0,30,23,10.0,0.0
9154,58.0,0,23,10.0,0.0
9155,62.0,2,55,13.0,0.0
9156,50.0,0,55,14.0,0.0
9157,58.0,0,23,10.0,0.0
9158,62.0,8,23,10.0,0.0
9159,62.0,30,23,10.0,0.0
9160,58.0,0,23,10.0,0.0
9161,70.0,2,60,11.0,0.0
9162,70.0,2,60,2.0,0.0
9163,62.0,2,55,13.0,0.0
9164,50.0,14,55,14.0,0.0
9165,62.0,10,23,10.0,0.0
9166,58.0,0,23,10.0,0.0
9167,62.0,30,23,10.0,0.0
9168,58.0,0,23,10.0,0.0
9169,72.0,2,60,11.0,0.0
9170,72.0,2,60,2.0,0.0
9171,62.0,2,55,13.0,0.0
9172,50.0,14,55,14.0,0.0
9173,62.0,10,23,10.0,0.0
9174,58.0,0,23,10.0,0.0
9175,62.0,0,23,10.0,0.0
9176,58.0,10,23,10.0,0.0
9177,74.0,2,30,11.0,0.0
9178,74.0,18,30,2.0,0.0
9179,62.0,2,55,13.0,0.0
9180,50.0,14,55,14.0,0.0
9181,62.0,0,23,10.0,0.0
9182,58.0,14,23,10.0,0.0
9183,62.0,10,23,10.0,0.0
9184,58.0,0,23,10.0,0.0
9185,70.0,2,30,11.0,0.0
9186,70.0,18,30,2.0,0.0
9187,62.0,2,55,13.0,0.0
9188,50.0,14,55,14.0,0.0
9189,58.0,14,23,10.0,0.0
9190,62.0,0,23,10.0,0.0
9191,59.0,19,23,10.0,0.0
9192,86.0,3,120,0.0,0.0
9193,67.0,2,360,11.0,0.0
9194,74.0,5,120,1.0,0.0
9195,67.0,2,360,2.0,0.0
9196,62.0,14,120,3.0,0.0
9197,62.0,2,30,13.0,0.0
9198,50.0,9,30,14.0,0.0
9199,59.0,30,23,10.0,0.0
9200,62.0,19,23,10.0,0.0
9201,59.0,2,30,13.0,0.0
9202,47.0,9,30,14.0,0.0
9203,62.0,8,23,10.0,0.0
9204,67.0,19,23,10.0,0.0
9205,83.0,3,60,0.0,0.0
9206,67.0,0,240,4.0,0.0
9207,71.0,5,60,1.0,0.0
9208,67.0,16,240,5.0,0.0
9209,59.0,14,60,3.0,0.0
9210,55.0,2,30,13.0,0.0
9211,43.0,9,30,14.0,0.0
9212,67.0,8,23,10.0,0.0
9213,71.0,19,23,10.0,0.0
9214,84.0,3,60,0.0,0.0
9215,72.0,5,60,1.0,0.0
9216,60.0,14,60,3.0,0.0
9217,50.0,2,30,13.0,0.0
9218,38.0,9,30,14.0,0.0
9219,71.0,8,23,10.0,0.0
9220,74.0,8,23,10.0,0.0
9221,86.0,3,30,0.0,0.0
9222,74.0,5,30,1.0,0.0
9223,62.0,3,30,3.0,0.0
9224,47.0,2,30,13.0,0.0
9225,35.0,9,30,14.0,0.0
9226,74.0,30,23,10.0,0.0
9227,79.0,8,23,10.0,0.0
9228,83.0,3,30,0.0,0.0
9229,71.0,5,30,1.0,0.0
9230,59.0,3,30,3.0,0.0
9231,43.0,2,30,13.0,0.0
9232,31.0,9,30,14.0,0.0
9233,79.0,10,23,10.0,0.0
9234,63.0,30,23,10.0,0.0
9235,60.0,0,23,10.0,0.0
9236,75.0,2,120,11.0,0.0
9237,75.0,2,120,2.0,0.0
9238,43.0,2,55,13.0,0.0
9239,31.0,14,55,14.0,0.0
9240,63.0,14,23,10.0,0.0
9241,60.0,0,23,10.0,0.0
9242,63.0,0,23,10.0,0.0
9243,60.0,30,23,10.0,0.0
9244,63.0,2,55,13.0,0.0
9245,51.0,14,55,14.0,0.0
9246,63.0,0,23,10.0,0.0
9247,60.0,10,23,10.0,0.0
9248,63.0,0,23,10.0,0.0
9249,60.0,30,23,10.0,0.0
9250,72.0,2,60,11.0,0.0
9251,72.0,2,60,2.0,0.0
9252,63.0,2,55,13.0,0.0
9253,51.0,14,55,14.0,0.0
9254,63.0,10,23,10.0,0.0
9255,60.0,0,23,10.0,0.0
9256,63.0,0,23,10.0,0.0
9257,60.0,30,23,10.0,0.0
9258,74.0,2,60,11.0,0.0
9259,74.0,2,60,2.0,0.0
9260,63.0,2,55,13.0,0.0
9261,51.0,14,55,14.0,0.0
9262,63.0,0,23,10.0,0.0
9263,60.0,10,23,10.0,0.0
9264,63.0,10,23,10.0,0.0
9265,60.0,0,23,10.0,0.0
9266,75.0,2,30,11.0,0.0
9267,75.0,18,30,2.0,0.0
9268,63.0,2,55,13.0,0.0
9269,51.0,14,55,14.0,0.0
9270,60.0,14,23,10.0,0.0
9271,63.0,0,23,10.0,0.0
9272,63.0,0,23,10.0,0.0
9273,60.0,10,23,10.0,0.0
9274,72.0,2,30,11.0,0.0
9275,72.0,18,30,2.0,0.0
9276,63.0,2,55,13.0,0.0
9277,51.0,14,55,14.0,0.0
9278,63.0,0,23,10.0,0.0
9279,60.0,14,23,10.0,0.0
9280,60.0,19,23,10.0,0.0
9281,87.0,3,120,0.0,0.0
9282,67.0,0,360,11.0,0.0
9283,75.0,5,120,1.0,0.0
9284,67.0,2,360,2.0,0.0
9285,63.0,14,120,3.0,0.0
9286,63.0,2,30,13.0,0.0
9287,51.0,9,30,14.0,0.0
9288,60.0,30,23,10.0,0.0
9289,63.0,19,23,10.0,0.0
9290,60.0,2,30,13.0,0.0
9291,48.0,9,30,14.0,0.0
9292,63.0,8,23,10.0,0.0
9293,67.0,19,23,10.0,0.0
9294,84.0,3,60,0.0,0.0
9295,69.0,2,240,4.0,0.0
9296,72.0,5,60,1.0,0.0
9297,67.0,16,240,5.0,0.0
9298,60.0,14,60,3.0,0.0
9299,55.0,2,30,13.0,0.0
9300,43.0,9,30,14.0,0.0
9301,67.0,8,23,10.0,0.0
9302,72.0,19,23,10.0,0.0
9303,86.0,3,60,0.0,0.0
9304,74.0,5,60,1.0,0.0
9305,62.0,14,60,3.0,0.0
9306,51.0,2,30,13.0,0.0
9307,39.0,9,30,14.0,0.0
9308,72.0,8,23,10.0,0.0
9309,75.0,8,23,10.0,0.0
9310,87.0,3,30,0.0,0.0
9311,75.0,5,30,1.0,0.0
9312,63.0,3,30,3.0,0.0
9313,48.0,2,30,13.0,0.0
9314,36.0,9,30,14.0,0.0
9315,75.0,30,23,10.0,0.0
9316,79.0,8,23,10.0,0.0
9317,84.0,3,30,0.0,0.0
9318,72.0,5,30,1.0,0.0
9319,60.0,3,30,3.0,0.0
9320,43.0,2,30,13.0,0.0
9321,31.0,9,30,14.0,0.0
9322,79.0,10,23,10.0,0.0
9323,59.0,30,23,10.0,0.0
9324,77.0,2,120,11.0,0.0
9325,77.0,2,120,2.0,0.0
9326,43.0,2,55,13.0,0.0
9327,31.0,14,55,14.0,0.0
9328,59.0,14,23,10.0,0.0
9329,62.0,30,23,10.0,0.0
9330,59.0,2,55,13.0,0.0
9331,47.0,14,55,14.0,0.0
9332,62.0,10,23,10.0,0.0
9333,59.0,30,23,10.0,0.0
9334,74.0,2,60,11.0,0.0
9335,71.0,4,240,4.0,0.0
9336,74.0,7,60,2.0,0.0
9337,65.0,2,60,13.0,0.0
9338,53.0,9,60,14.0,0.0
9339,59.0,10,23,10.0,0.0
9340,60.0,30,23,10.0,0.0
9341,75.0,2,60,11.0,0.0
9342,75.0,7,60,2.0,0.0
9343,63.0,2,60,13.0,0.0
9344,51.0,9,60,14.0,0.0
9345,60.0,10,23,10.0,0.0
9346,62.0,10,23,10.0,0.0
9347,77.0,2,30,11.0,0.0
9348,77.0,7,30,2.0,0.0
9349,62.0,2,30,13.0,0.0
9350,50.0,9,30,14.0,0.0
9351,62.0,30,23,10.0,0.0
9352,59.0,10,23,10.0,0.0
9353,74.0,2,30,11.0,0.0
9354,74.0,7,30,2.0,0.0
9355,65.0,2,30,13.0,0.0
9356,53.0,9,30,14.0,0.0
9357,59.0,10,23,10.0,0.0
9358,60.0,30,23,10.0,0.0
9359,75.0,0,120,11.0,0.0
9360,72.0,2,120,4.0,0.0
9361,75.0,2,120,2.0,0.0
9362,67.0,16,0,5.0,0.0
9363,55.0,2,55,13.0,0.0
9364,43.0,14,55,14.0,0.0
9365,60.0,14,23,10.0,0.0
9366,67.0,30,23,10.0,0.0
9367,63.0,2,55,13.0,0.0
9368,51.0,14,55,14.0,0.0
9369,67.0,10,23,10.0,0.0
9370,62.0,30,23,10.0,0.0
9371,83.0,2,60,0.0,0.0
9372,71.0,2,60,11.0,0.0
9373,71.0,7,60,2.0,0.0
9374,65.0,16,240,5.0,0.0
9375,62.0,2,60,13.0,0.0
9376,50.0,9,60,14.0,0.0
9377,62.0,8,23,10.0,0.0
9378,63.0,30,23,10.0,0.0
9379,84.0,2,60,0.0,0.0
9380,72.0,2,60,11.0,0.0
9381,72.0,7,60,2.0,0.0
9382,60.0,2,60,13.0,0.0
9383,48.0,9,60,14.0,0.0
9384,63.0,8,23,10.0,0.0
9385,65.0,8,23,10.0,0.0
9386,86.0,2,30,0.0,0.0
9387,74.0,2,30,11.0,0.0
9388,74.0,7,30,2.0,0.0
9389,59.0,2,30,13.0,0.0
9390,47.0,9,30,14.0,0.0
9391,65.0,30,23,10.0,0.0
9392,62.0,8,23,10.0,0.0
9393,83.0,2,30,0.0,0.0
9394,71.0,2,30,11.0,0.0
9395,71.0,7,30,2.0,0.0
9396,62.0,2,30,13.0,0.0
9397,50.0,9,30,14.0,0.0
9398,62.0,10,23,10.0,0.0
9399,67.0,30,23,10.0,0.0
9400,84.0,1,120,0.0,0.0
9401,60.0,1,120,6.0,0.0
9402,72.0,0,120,6.0,0.0
9403,72.0,0,120,11.0,0.0
9404,67.0,4,0,4.0,0.0
9405,72.0,2,120,2.0,0.0
9406,67.0,0,120,5.0,0.0
9407,52.0,2,55,13.0,0.0
9408,40.0,14,55,14.0,0.0
9409,67.0,14,23,10.0,0.0
9410,64.0,30,23,10.0,0.0
9411,60.0,2,55,13.0,0.0
9412,48.0,6,55,14.0,0.0
9413,64.0,8,23,10.0,0.0
9414,64.0,30,23,10.0,0.0
9415,60.0,0,240,6.0,0.0
9416,67.0,1,60,11.0,0.0
9417,64.0,4,240,4.0,0.0
9418,79.0,1,60,1.0,0.0
9419,67.0,7,60,2.0,0.0
9420,64.0,16,240,5.0,0.0
9421,58.0,2,60,13.0,0.0
9422,46.0,9,60,14.0,0.0
9423,48.0,8,0,15.0,0.0
9424,64.0,10,23,10.0,0.0
9425,65.0,30,23,10.0,0.0
9426,68.0,1,60,11.0,0.0
9427,80.0,1,60,1.0,0.0
9428,68.0,7,60,2.0,0.0
9429,56.0,2,60,13.0,0.0
9430,44.0,1,60,14.0,0.0
9431,65.0,10,23,10.0,0.0
9432,67.0,10,23,10.0,0.0
9433,70.0,1,30,11.0,0.0
9434,82.0,1,30,1.0,0.0
9435,70.0,7,30,2.0,0.0
9436,55.0,2,30,13.0,0.0
9437,43.0,9,30,14.0,0.0
9438,67.0,30,23,10.0,0.0
9439,64.0,10,23,10.0,0.0
9440,67.0,1,30,11.0,0.0
9441,79.0,1,30,1.0,0.0
9442,67.0,7,30,2.0,0.0
9443,58.0,2,30,13.0,0.0
9444,46.0,9,30,14.0,0.0
9445,64.0,9,23,10.0,0.0
9446,65.0,30,23,10.0,0.0
9447,72.0,1,0,6.0,0.0
9448,60.0,1,120,6.0,0.0
9449,68.0,1,120,11.0,0.0
9450,65.0,0,120,4.0,0.0
9451,80.0,1,120,1.0,0.0
9452,68.0,2,120,2.0,0.0
9453,65.0,0,120,5.0,0.0
9454,48.0,2,55,13.0,0.0
9455,36.0,14,55,14.0,0.0
9456,65.0,14,23,10.0,0.0
9457,60.0,30,23,10.0,0.0
9458,56.0,2,55,13.0,0.0
9459,44.0,6,55,14.0,0.0
9460,60.0,9,23,10.0,0.0
9461,55.0,30,23,10.0,0.0
9462,60.0,1,300,6.0,0.0
9463,72.0,0,300,6.0,0.0
9464,64.0,2,60,11.0,0.0
9465,60.0,2,120,4.0,0.0
9466,76.0,7,60,2.0,0.0
9467,48.0,5,120,5.0,0.0
9468,55.0,2,60,13.0,0.0
9469,43.0,9,60,14.0,0.0
9470,48.0,8,0,15.0,0.0
9471,55.0,10,23,10.0,0.0
9472,56.0,30,23,10.0,0.0
9473,65.0,0,60,11.0,0.0
9474,77.0,2,60,2.0,0.0
9475,53.0,2,60,13.0,0.0
9476,41.0,1,60,14.0,0.0
9477,56.0,10,23,10.0,0.0
9478,58.0,33,60,10.0,0.0
9479,84.0,0,240,0.0,0.0
9480,67.0,2,30,11.0,0.0
9481,72.0,4,180,4.0,0.0
9482,84.0,1,240,1.0,0.0
9483,79.0,7,30,2.0,0.0
9484,72.0,8,180,5.0,0.0
9485,52.0,2,30,13.0,0.0
9486,40.0,16,30,14.0,0.0
9487,84.0,1,180,10.0,0.0
9488,64.0,2,30,11.0,0.0
9489,76.0,7,30,2.0,0.0
9490,55.0,2,30,13.0,0.0
9491,43.0,42,30,14.0,0.0
9492,65.0,5,23,11.0,0.0
9493,77.0,4,120,2.0,0.0
9494,60.0,25,23,12.0,0.0
9495,56.0,0,23,12.0,0.0
9496,65.0,1,120,3.0,0.0
9497,41.0,2,360,13.0,0.0
9498,29.0,12,360,14.0,0.0
9499,41.0,11,60,15.0,0.0
9500,65.0,5,23,11.0,0.0
9501,56.0,0,23,12.0,0.0
9502,60.0,1,23,12.0,0.0
9503,65.0,0,55,6.0,0.0
9504,77.0,1,55,6.0,0.0
9505,72.0,5,23,11.0,0.0
9506,65.0,2,55,4.0,0.0
9507,53.0,2,55,5.0,0.0
9508,56.0,0,23,12.0,0.0
9509,60.0,25,23,12.0,0.0
9510,41.0,16,55,15.0,0.0
9511,72.0,1,23,11.0,0.0
9512,56.0,0,23,12.0,0.0
9513,60.0,1,23,12.0,0.0
9514,80.0,1,60,10.0,0.0
9515,80.0,0,60,0.0,0.0
9516,77.0,1,55,6.0,0.0
9517,65.0,0,55,6.0,0.0
9518,65.0,2,55,4.0,0.0
9519,72.0,5,23,11.0,0.0
9520,80.0,1,60,1.0,0.0
9521,72.0,4,60,2.0,0.0
9522,53.0,2,55,5.0,0.0
9523,56.0,0,23,12.0,0.0
9524,60.0,25,23,12.0,0.0
9525,60.0,1,60,3.0,0.0
9526,41.0,16,55,15.0,0.0
9527,72.0,1,23,11.0,0.0
9528,56.0,1,23,12.0,0.0
9529,60.0,0,23,12.0,0.0
9530,82.0,1,60,10.0,0.0
9531,82.0,1,60,0.0,0.0
9532,77.0,1,55,6.0,0.0
9533,65.0,0,55,6.0,0.0
9534,65.0,2,55,4.0,0.0
9535,72.0,5,23,11.0,0.0
9536,82.0,1,60,1.0,0.0
9537,70.0,4,60,2.0,0.0
9538,53.0,2,55,5.0,0.0
9539,60.0,0,23,12.0,0.0
9540,56.0,25,23,12.0,0.0
9541,58.0,1,60,3.0,0.0
9542,41.0,16,55,15.0,0.0
9543,72.0,1,23,11.0,0.0
9544,56.0,0,23,12.0,0.0
9545,60.0,0,23,12.0,0.0
9546,84.0,1,30,10.0,0.0
9547,84.0,0,30,0.0,0.0
9548,65.0,0,55,6.0,0.0
9549,77.0,1,55,6.0,0.0
9550,65.0,3,55,4.0,0.0
9551,72.0,4,23,11.0,0.0
9552,84.0,1,30,1.0,0.0
9553,68.0,4,30,2.0,0.0
9554,53.0,8,55,5.0,0.0
9555,56.0,0,23,12.0,0.0
9556,60.0,3,23,12.0,0.0
9557,56.0,17,30,3.0,0.0
9558,41.0,16,55,15.0,0.0
9559,72.0,1,23,11.0,0.0
9560,56.0,0,23,12.0,0.0
9561,60.0,1,23,12.0,0.0
9562,80.0,1,30,10.0,0.0
9563,80.0,3,30,0.0,0.0
9564,65.0,0,55,6.0,0.0
9565,77.0,1,55,6.0,0.0
9566,72.0,4,23,11.0,0.0
9567,65.0,3,55,4.0,0.0
9568,80.0,1,30,1.0,0.0
9569,72.0,4,30,2.0,0.0
9570,53.0,8,55,5.0,0.0
9571,56.0,0,23,12.0,0.0
9572,60.0,0,23,12.0,0.0
9573,60.0,17,30,3.0,0.0
9574,41.0,2,55,15.0,0.0
9575,72.0,1,23,11.0,0.0
9576,56.0,0,23,12.0,0.0
9577,60.0,1,23,12.0,0.0
9578,77.0,1,360,10.0,0.0
9579,77.0,0,60,0.0,0.0
9580,72.0,5,23,11.0,0.0
9581,77.0,1,60,1.0,0.0
9582,65.0,4,60,2.0,0.0
9583,56.0,25,23,12.0,0.0
9584,53.0,17,60,3.0,0.0
9585,48.0,2,120,13.0,0.0
9586,36.0,1,120,14.0,0.0
9587,72.0,5,23,11.0,0.0
9588,56.0,3,23,12.0,0.0
9589,80.0,5,23,11.0,0.0
9590,60.0,25,23,12.0,0.0
9591,80.0,5,23,11.0,0.0
9592,60.0,1,23,12.0,0.0
9593,84.0,0,240,0.0,0.0
9594,89.0,1,240,0.0,0.0
9595,77.0,0,0,6.0,0.0
9596,65.0,1,0,6.0,0.0
9597,65.0,4,0,4.0,0.0
9598,77.0,5,23,11.0,0.0
9599,77.0,0,240,1.0,0.0
9600,80.0,1,240,1.0,0.0
9601,68.0,0,240,2.0,0.0
9602,72.0,2,240,2.0,0.0
9603,53.0,5,0,5.0,0.0
9604,65.0,25,23,12.0,0.0
9605,56.0,0,240,3.0,0.0
9606,60.0,17,240,3.0,0.0
9607,44.0,2,60,13.0,0.0
9608,32.0,12,60,14.0,0.0
9609,41.0,11,0,15.0,0.0
9610,77.0,5,23,11.0,0.0
9611,65.0,11,23,12.0,0.0
9612,72.0,5,23,11.0,0.0
9613,68.0,25,23,12.0,0.0
9614,46.0,2,60,13.0,0.0
9615,34.0,1,60,14.0,0.0
9616,72.0,5,23,11.0,0.0
9617,68.0,11,23,12.0,0.0
9618,68.0,5,23,11.0,0.0
9619,72.0,11,23,12.0,0.0
9620,48.0,2,30,13.0,0.0
9621,36.0,12,30,14.0,0.0
9622,68.0,5,23,11.0,0.0
9623,72.0,25,23,12.0,0.0
9624,65.0,5,23,11.0,0.0
9625,65.0,11,23,12.0,0.0
9626,44.0,2,30,13.0,0.0
9627,32.0,12,30,14.0,0.0
9628,65.0,4,23,11.0,0.0
9629,65.0,0,23,12.0,0.0
9630,85.0,1,60,10.0,0.0
9631,85.0,0,120,0.0,0.0
9632,77.0,1,0,6.0,0.0
9633,65.0,0,55,6.0,0.0
9634,65.0,2,55,4.0,0.0
9635,65.0,5,23,11.0,0.0
9636,73.0,1,120,1.0,0.0
9637,70.0,0,120,2.0,0.0
9638,53.0,2,0,5.0,0.0
9639,61.0,25,23,12.0,0.0
9640,58.0,0,23,12.0,0.0
9641,58.0,1,120,3.0,0.0
9642,61.0,0,120,3.0,0.0
9643,41.0,2,360,13.0,0.0
9644,29.0,12,360,14.0,0.0
9645,41.0,16,55,15.0,0.0
9646,73.0,1,23,11.0,0.0
9647,58.0,0,23,12.0,0.0
9648,61.0,1,23,12.0,0.0
9649,65.0,1,55,6.0,0.0
9650,77.0,0,55,6.0,0.0
9651,65.0,3,55,4.0,0.0
9652,73.0,5,23,11.0,0.0
9653,53.0,2,55,5.0,0.0
9654,58.0,0,23,12.0,0.0
9655,61.0,25,23,12.0,0.0
9656,41.0,16,55,15.0,0.0
9657,73.0,1,23,11.0,0.0
9658,61.0,0,23,12.0,0.0
9659,58.0,1,23,12.0,0.0
9660,82.0,1,60,10.0,0.0
9661,82.0,1,60,0.0,0.0
9662,77.0,1,55,6.0,0.0
9663,65.0,0,55,6.0,0.0
9664,65.0,2,55,4.0,0.0
9665,73.0,5,23,11.0,0.0
9666,82.0,1,60,1.0,0.0
9667,73.0,4,0,2.0,0.0
9668,53.0,2,55,5.0,0.0
9669,58.0,0,23,12.0,0.0
9670,61.0,25,23,12.0,0.0
9671,61.0,1,60,3.0,0.0
9672,41.0,16,55,15.0,0.0
9673,73.0,1,23,11.0,0.0
9674,58.0,0,23,12.0,0.0
9675,61.0,0,23,12.0,0.0
9676,84.0,1,60,10.0,0.0
9677,84.0,0,60,0.0,0.0
9678,77.0,0,55,6.0,0.0
9679,65.0,1,55,6.0,0.0
9680,73.0,5,23,11.0,0.0
9681,65.0,2,55,4.0,0.0
9682,84.0,1,60,1.0,0.0
9683,72.0,4,60,2.0,0.0
9684,53.0,2,55,5.0,0.0
9685,61.0,0,23,12.0,0.0
9686,58.0,25,23,12.0,0.0
9687,60.0,1,60,3.0,0.0
9688,41.0,16,55,15.0,0.0
9689,73.0,1,23,11.0,0.0
9690,58.0,1,23,12.0,0.0
9691,61.0,0,23,12.0,0.0
9692,85.0,1,30,10.0,0.0
9693,85.0,0,30,0.0,0.0
9694,65.0,0,55,6.0,0.0
9695,77.0,1,55,6.0,0.0
9696,73.0,4,23,11.0,0.0
9697,65.0,3,55,4.0,0.0
9698,85.0,1,30,1.0,0.0
9699,70.0,4,30,2.0,0.0
9700,53.0,8,55,5.0,0.0
9701,58.0,3,23,12.0,0.0
9702,61.0,0,23,12.0,0.0
9703,58.0,17,30,3.0,0.0
9704,41.0,16,55,15.0,0.0
9705,73.0,1,23,11.0,0.0
9706,61.0,0,23,12.0,0.0
9707,58.0,1,23,12.0,0.0
9708,82.0,1,30,10.0,0.0
9709,82.0,0,30,0.0,0.0
9710,65.0,0,55,6.0,0.0
9711,77.0,1,55,6.0,0.0
9712,65.0,3,55,4.0,0.0
9713,73.0,4,23,11.0,0.0
9714,82.0,1,30,1.0,0.0
9715,73.0,4,30,2.0,0.0
9716,53.0,8,55,5.0,0.0
9717,58.0,3,23,12.0,0.0
9718,61.0,0,23,12.0,0.0
9719,61.0,17,30,3.0,0.0
9720,41.0,2,55,15.0,0.0
9721,73.0,1,23,11.0,0.0
9722,58.0,0,23,12.0,0.0
9723,61.0,1,23,12.0,0.0
9724,77.0,1,360,10.0,0.0
9725,77.0,3,60,0.0,0.0
9726,73.0,5,23,11.0,0.0
9727,65.0,4,120,4.0,0.0
9728,77.0,1,60,1.0,0.0
9729,65.0,4,60,2.0,0.0
9730,53.0,5,120,5.0,0.0
9731,58.0,25,23,12.0,0.0
9732,53.0,17,60,3.0,0.0
9733,49.0,2,120,13.0,0.0
9734,37.0,1,120,14.0,0.0
9735,41.0,11,120,15.0,0.0
9736,73.0,5,23,11.0,0.0
9737,58.0,0,23,12.0,0.0
9738,82.0,5,23,11.0,0.0
9739,61.0,25,23,12.0,0.0
9740,82.0,5,23,11.0,0.0
9741,61.0,1,23,12.0,0.0
9742,89.0,1,240,0.0,0.0
9743,85.0,0,240,0.0,0.0
9744,77.0,0,0,6.0,0.0
9745,65.0,1,0,6.0,0.0
9746,77.0,5,23,11.0,0.0
9747,65.0,1,240,4.0,0.0
9748,77.0,1,240,1.0,0.0
9749,82.0,0,240,1.0,0.0
9750,53.0,2,240,5.0,0.0
9751,65.0,25,23,12.0,0.0
9752,61.0,0,240,3.0,0.0
9753,46.0,2,60,13.0,0.0
9754,34.0,12,60,14.0,0.0
9755,41.0,11,120,15.0,0.0
9756,77.0,5,23,11.0,0.0
9757,65.0,11,23,12.0,0.0
9758,73.0,5,23,11.0,0.0
9759,70.0,25,23,12.0,0.0
9760,48.0,2,60,13.0,0.0
9761,36.0,1,60,14.0,0.0
9762,73.0,5,23,11.0,0.0
9763,70.0,11,23,12.0,0.0
9764,70.0,5,23,11.0,0.0
9765,73.0,11,23,12.0,0.0
9766,49.0,2,30,13.0,0.0
9767,37.0,12,30,14.0,0.0
9768,70.0,5,23,11.0,0.0
9769,73.0,25,23,12.0,0.0
9770,65.0,5,23,11.0,0.0
9771,65.0,11,23,12.0,0.0
9772,46.0,2,30,13.0,0.0
9773,34.0,12,30,14.0,0.0
9774,65.0,4,23,11.0,0.0
9775,65.0,0,23,12.0,0.0
9776,85.0,1,60,10.0,0.0
9777,70.0,5,23,11.0,0.0
9778,70.0,2,0,2.0,0.0
9779,73.0,0,0,2.0,0.0
9780,55.0,0,23,12.0,0.0
9781,58.0,25,23,12.0,0.0
9782,58.0,17,0,3.0,0.0
9783,61.0,0,60,3.0,0.0
9784,41.0,2,55,13.0,0.0
9785,29.0,17,55,14.0,0.0
9786,70.0,4,23,11.0,0.0
9787,58.0,0,23,12.0,0.0
9788,55.0,4,23,12.0,0.0
9789,73.0,5,23,11.0,0.0
9790,58.0,0,23,12.0,0.0
9791,55.0,25,23,12.0,0.0
9792,53.0,2,55,13.0,0.0
9793,41.0,17,55,14.0,0.0
9794,73.0,5,23,11.0,0.0
9795,55.0,6,23,12.0,0.0
9796,58.0,0,23,12.0,0.0
9797,82.0,1,60,10.0,0.0
9798,85.0,0,240,0.0,0.0
9799,79.0,1,240,6.0,0.0
9800,67.0,1,240,4.0,0.0
9801,73.0,5,23,11.0,0.0
9802,73.0,2,60,2.0,0.0
9803,65.0,0,240,5.0,0.0
9804,55.0,25,23,12.0,0.0
9805,61.0,0,60,3.0,0.0
9806,53.0,2,55,13.0,0.0
9807,41.0,17,55,14.0,0.0
9808,41.0,11,120,15.0,0.0
9809,73.0,4,23,11.0,0.0
9810,55.0,4,23,12.0,0.0
9811,84.0,1,60,10.0,0.0
9812,72.0,5,23,11.0,0.0
9813,72.0,2,60,2.0,0.0
9814,56.0,25,23,12.0,0.0
9815,60.0,6,60,3.0,0.0
9816,53.0,2,55,13.0,0.0
9817,41.0,0,55,14.0,0.0
9818,72.0,4,23,11.0,0.0
9819,56.0,4,23,12.0,0.0
9820,85.0,1,30,10.0,0.0
9821,70.0,4,23,11.0,0.0
9822,70.0,4,30,2.0,0.0
9823,58.0,4,23,12.0,0.0
9824,58.0,17,30,3.0,0.0
9825,53.0,2,55,13.0,0.0
9826,41.0,17,55,14.0,0.0
9827,70.0,5,23,11.0,0.0
9828,58.0,6,23,12.0,0.0
9829,82.0,1,30,10.0,0.0
9830,73.0,4,23,11.0,0.0
9831,73.0,4,30,2.0,0.0
9832,55.0,4,23,12.0,0.0
9833,61.0,17,30,3.0,0.0
9834,53.0,2,55,13.0,0.0
9835,41.0,17,55,14.0,0.0
9836,73.0,5,23,11.0,0.0
9837,55.0,0,23,12.0,0.0
9838,84.0,1,60,10.0,0.0
9839,84.0,3,60,0.0,0.0
9840,91.0,1,0,0.0,0.0
9841,60.0,0,120,6.0,0.0
9842,67.0,5,23,11.0,0.0
9843,79.0,0,0,1.0,0.0
9844,82.0,3,0,1.0,0.0
9845,67.0,2,60,2.0,0.0
9846,60.0,0,120,5.0,0.0
9847,55.0,25,23,12.0,0.0
9848,55.0,17,60,3.0,0.0
9849,52.0,2,55,13.0,0.0
9850,40.0,0,55,14.0,0.0
9851,48.0,11,120,15.0,0.0
9852,67.0,4,23,11.0,0.0
9853,55.0,0,23,12.0,0.0
9854,70.0,5,23,11.0,0.0
9855,52.0,25,23,12.0,0.0
9856,48.0,2,55,13.0,0.0
9857,36.0,6,55,14.0,0.0
9858,70.0,5,23,11.0,0.0
9859,52.0,1,23,12.0,0.0
9860,79.0,1,60,10.0,0.0
9861,91.0,1,240,0.0,0.0
9862,88.0,0,240,0.0,0.0
9863,72.0,1,0,6.0,0.0
9864,60.0,1,240,6.0,0.0
9865,70.0,5,23,11.0,0.0
9866,67.0,4,0,4.0,0.0
9867,79.0,0,240,1.0,0.0
9868,82.0,3,240,1.0,0.0
9869,70.0,2,60,2.0,0.0
9870,60.0,0,240,5.0,0.0
9871,52.0,25,23,12.0,0.0
9872,58.0,17,60,3.0,0.0
9873,48.0,2,55,13.0,0.0
9874,36.0,0,55,14.0,0.0
9875,48.0,11,120,15.0,0.0
9876,70.0,4,23,11.0,0.0
9877,52.0,4,23,12.0,0.0
9878,80.0,1,60,10.0,0.0
9879,68.0,5,23,11.0,0.0
9880,68.0,2,60,2.0,0.0
9881,53.0,25,23,12.0,0.0
9882,56.0,0,60,3.0,0.0
9883,48.0,2,55,13.0,0.0
9884,36.0,6,55,14.0,0.0
9885,68.0,4,23,11.0,0.0
9886,53.0,4,23,12.0,0.0
9887,82.0,1,30,10.0,0.0
9888,67.0,4,23,11.0,0.0
9889,67.0,4,30,2.0,0.0
9890,55.0,4,23,12.0,0.0
9891,55.0,17,30,3.0,0.0
9892,48.0,2,55,13.0,0.0
9893,36.0,17,55,14.0,0.0
9894,67.0,5,23,11.0,0.0
9895,55.0,6,23,12.0,0.0
9896,79.0,1,30,10.0,0.0
9897,70.0,4,23,11.0,0.0
9898,70.0,4,30,2.0,0.0
9899,52.0,4,23,12.0,0.0
9900,58.0,17,30,3.0,0.0
9901,48.0,2,55,13.0,0.0
9902,36.0,17,55,14.0,0.0
9903,70.0,5,23,11.0,0.0
9904,52.0,0,23,12.0,0.0
9905,80.0,1,60,10.0,0.0
9906,89.0,0,60,0.0,0.0
9907,92.0,0,60,0.0,0.0
9908,65.0,0,120,6.0,0.0
9909,77.0,1,120,6.0,0.0
9910,60.0,5,23,11.0,0.0
9911,80.0,0,60,1.0,0.0
9912,77.0,1,60,1.0,0.0
9913,68.0,2,60,2.0,0.0
9914,65.0,0,120,5.0,0.0
9915,53.0,25,23,12.0,0.0
9916,56.0,17,60,3.0,0.0
9917,53.0,2,55,13.0,0.0
9918,41.0,0,55,14.0,0.0
9919,41.0,11,120,15.0,0.0
9920,60.0,4,23,11.0,0.0
9921,56.0,3,23,12.0,0.0
9922,68.0,5,23,11.0,0.0
9923,56.0,25,23,12.0,0.0
9924,48.0,2,55,13.0,0.0
9925,36.0,6,55,14.0,0.0
9926,68.0,5,23,11.0,0.0
9927,56.0,1,23,12.0,0.0
9928,75.0,1,60,10.0,0.0
9929,87.0,0,60,0.0,0.0
9930,75.0,0,60,0.0,0.0
9931,60.0,1,240,6.0,0.0
9932,72.0,0,240,6.0,0.0
9933,68.0,4,0,4.0,0.0
9934,66.0,5,23,11.0,0.0
9935,68.0,3,240,1.0,0.0
9936,78.0,2,60,2.0,0.0
9937,68.0,0,240,5.0,0.0
9938,56.0,25,23,12.0,0.0
9939,66.0,17,60,3.0,0.0
9940,48.0,2,55,13.0,0.0
9941,36.0,0,55,14.0,0.0
9942,48.0,11,120,15.0,0.0
9943,66.0,4,23,11.0,0.0
9944,56.0,4,23,12.0,0.0
9945,77.0,1,60,10.0,0.0
9946,89.0,0,60,0.0,0.0
9947,77.0,4,60,0.0,0.0
9948,65.0,5,23,11.0,0.0
9949,77.0,2,60,2.0,0.0
9950,56.0,25,23,12.0,0.0
9951,65.0,0,60,3.0,0.0
9952,48.0,2,55,13.0,0.0
9953,36.0,6,55,14.0,0.0
9954,65.0,4,23,11.0,0.0
9955,56.0,0,23,12.0,0.0
9956,78.0,1,30,10.0,0.0
9957,78.0,4,30,0.0,0.0
9958,90.0,0,30,0.0,0.0
9959,63.0,4,23,11.0,0.0
9960,75.0,4,30,2.0,0.0
9961,56.0,0,23,12.0,0.0
9962,63.0,17,30,3.0,0.0
9963,48.0,2,55,13.0,0.0
9964,36.0,17,55,14.0,0.0
9965,63.0,5,23,11.0,0.0
9966,56.0,6,23,12.0,0.0
9967,75.0,1,30,10.0,0.0
9968,87.0,0,30,0.0,0.0
9969,75.0,0,30,0.0,0.0
9970,66.0,4,23,11.0,0.0
9971,78.0,4,30,2.0,0.0
9972,56.0,4,23,12.0,0.0
9973,66.0,17,30,3.0,0.0
9974,48.0,2,55,13.0,0.0
9975,36.0,17,55,14.0,0.0
9976,66.0,5,23,11.0,0.0
9977,56.0,1,23,12.0,0.0
9978,77.0,1,60,10.0,0.0
9979,77.0,0,60,0.0,0.0
9980,89.0,0,60,0.0,0.0
9981,77.0,0,120,6.0,0.0
9982,65.0,1,120,6.0,0.0
9983,56.0,5,23,11.0,0.0
9984,68.0,1,0,4.0,0.0
9985,80.0,0,0,1.0,0.0
9986,68.0,1,60,1.0,0.0
9987,77.0,2,60,2.0,0.0
9988,56.0,25,23,12.0,0.0
9989,65.0,0,60,3.0,0.0
9990,49.0,2,55,13.0,0.0
9991,37.0,17,55,14.0,0.0
9992,41.0,11,120,15.0,0.0
9993,56.0,4,23,11.0,0.0
9994,56.0,3,23,12.0,0.0
9995,65.0,5,23,11.0,0.0
9996,49.0,25,23,12.0,0.0
9997,44.0,2,55,13.0,0.0
9998,32.0,6,55,14.0,0.0
9999,65.0,5,23,11.0,0.0
10000,49.0,1,23,12.0,0.0
10001,72.0,1,60,10.0,0.0
10002,84.0,4,60,0.0,0.0
10003,60.0,0,240,6.0,0.0
10004,72.0,1,240,6.0,0.0
10005,68.0,4,0,4.0,0.0
10006,63.0,5,23,11.0,0.0
10007,75.0,2,60,2.0,0.0
10008,68.0,0,0,5.0,0.0
10009,51.0,25,23,12.0,0.0
10010,63.0,17,60,3.0,0.0
10011,44.0,2,55,13.0,0.0
10012,32.0,0,55,14.0,0.0
10013,48.0,11,120,15.0,0.0
10014,63.0,4,23,11.0,0.0
10015,51.0,0,23,12.0,0.0
10016,73.0,1,60,10.0,0.0
10017,85.0,0,60,0.0,0.0
10018,61.0,5,23,11.0,0.0
10019,73.0,2,60,2.0,0.0
10020,53.0,25,23,12.0,0.0
10021,61.0,6,60,3.0,0.0
10022,44.0,2,55,13.0,0.0
10023,32.0,0,55,14.0,0.0
10024,61.0,4,23,11.0,0.0
10025,53.0,4,23,12.0,0.0
10026,75.0,1,30,10.0,0.0
10027,87.0,0,30,0.0,0.0
10028,60.0,4,23,11.0,0.0
10029,72.0,4,30,2.0,0.0
10030,54.0,4,23,12.0,0.0
10031,60.0,17,30,3.0,0.0
10032,44.0,2,55,13.0,0.0
10033,32.0,17,55,14.0,0.0
10034,60.0,5,23,11.0,0.0
10035,54.0,6,23,12.0,0.0
10036,72.0,1,30,10.0,0.0
10037,84.0,4,30,0.0,0.0
10038,63.0,4,23,11.0,0.0
10039,75.0,4,30,2.0,0.0
10040,51.0,0,23,12.0,0.0
10041,63.0,17,30,3.0,0.0
10042,44.0,0,55,13.0,0.0
10043,32.0,17,55,14.0,0.0
10044,63.0,5,23,11.0,0.0
10045,51.0,1,23,12.0,0.0
10046,73.0,1,60,10.0,0.0
10047,89.0,0,30,0.0,0.0
10048,85.0,3,30,0.0,0.0
10049,65.0,1,60,6.0,0.0
10050,77.0,0,60,6.0,0.0
10051,65.0,4,60,4.0,0.0
10052,68.0,5,23,11.0,0.0
10053,80.0,0,0,1.0,0.0
10054,68.0,3,0,1.0,0.0
10055,77.0,0,30,2.0,0.0
10056,73.0,4,30,2.0,0.0
10057,53.0,5,60,5.0,0.0
10058,56.0,0,23,12.0,0.0
10059,65.0,0,30,3.0,0.0
10060,61.0,17,30,3.0,0.0
10061,49.0,2,60,13.0,0.0
10062,37.0,1,60,14.0,0.0
10063,41.0,11,60,15.0,0.0
10064,68.0,4,23,11.0,0.0
10065,56.0,1,23,12.0,0.0
10066,66.0,5,23,11.0,0.0
10067,54.0,25,23,12.0,0.0
10068,51.0,2,60,13.0,0.0
10069,39.0,12,60,14.0,0.0
10070,66.0,5,23,11.0,0.0
10071,54.0,11,23,12.0,0.0
10072,77.0,1,60,10.0,0.0
10073,89.0,0,240,0.0,0.0
10074,85.0,1,240,0.0,0.0
10075,65.0,0,240,6.0,0.0
10076,77.0,1,240,6.0,0.0
10077,65.0,5,23,11.0,0.0
10078,65.0,1,240,4.0,0.0
10079,68.0,1,240,1.0,0.0
10080,80.0,0,240,1.0,0.0
10081,77.0,2,240,2.0,0.0
10082,73.0,0,240,2.0,0.0
10083,53.0,2,240,5.0,0.0
10084,53.0,11,23,12.0,0.0
10085,61.0,0,240,3.0,0.0
10086,65.0,17,240,3.0,0.0
10087,53.0,2,30,13.0,0.0
10088,41.0,12,30,14.0,0.0
10089,41.0,11,120,15.0,0.0
10090,65.0,4,23,11.0,0.0
10091,53.0,25,23,12.0,0.0
10092,78.0,1,60,10.0,0.0
10093,65.0,5,23,11.0,0.0
10094,53.0,11,23,12.0,0.0
10095,49.0,2,30,13.0,0.0
10096,37.0,12,30,14.0,0.0
10097,65.0,4,23,11.0,0.0
10098,53.0,14,23,12.0,0.0
10099,80.0,1,30,10.0,0.0
10100,65.0,4,23,11.0,0.0
10101,53.0,25,23,12.0,0.0
10102,44.0,0,115,13.0,0.0
10103,32.0,0,115,14.0,0.0
10104,65.0,5,23,11.0,0.0
10105,53.0,25,23,12.0,0.0
10106,77.0,1,30,10.0,0.0
10107,65.0,4,23,11.0,0.0
10108,53.0,25,23,12.0,0.0
10109,65.0,5,23,11.0,0.0
10110,53.0,0,23,12.0,0.0
10111,80.0,1,60,10.0,0.0
10112,77.0,5,23,11.0,0.0
10113,65.0,25,23,12.0,0.0
10114,49.0,2,60,13.0,0.0
10115,37.0,12,60,14.0,0.0
10116,77.0,4,23,11.0,0.0
10117,65.0,11,23,12.0,0.0
10118,75.0,5,23,11.0,0.0
10119,63.0,25,23,12.0,0.0
10120,51.0,2,60,13.0,0.0
10121,39.0,12,60,14.0,0.0
10122,75.0,5,23,11.0,0.0
10123,63.0,11,23,12.0,0.0
10124,77.0,1,60,10.0,0.0
10125,89.0,1,240,0.0,0.0
10126,85.0,0,240,0.0,0.0
10127,65.0,1,240,6.0,0.0
10128,77.0,0,240,6.0,0.0
10129,65.0,1,240,4.0,0.0
10130,73.0,5,23,11.0,0.0
10131,80.0,0,240,1.0,0.0
10132,68.0,1,240,1.0,0.0
10133,77.0,2,240,2.0,0.0
10134,73.0,0,240,2.0,0.0
10135,53.0,2,240,5.0,0.0
10136,61.0,11,23,12.0,0.0
10137,65.0,17,240,3.0,0.0
10138,61.0,0,240,3.0,0.0
10139,53.0,2,30,13.0,0.0
10140,41.0,12,30,14.0,0.0
10141,41.0,11,120,15.0,0.0
10142,73.0,4,23,11.0,0.0
10143,61.0,25,23,12.0,0.0
10144,78.0,1,60,10.0,0.0
10145,73.0,5,23,11.0,0.0
10146,61.0,11,23,12.0,0.0
10147,49.0,2,30,13.0,0.0
10148,37.0,12,30,14.0,0.0
10149,73.0,4,23,11.0,0.0
10150,61.0,14,23,12.0,0.0
10151,80.0,1,30,10.0,0.0
10152,73.0,4,23,11.0,0.0
10153,61.0,25,23,12.0,0.0
10154,44.0,0,115,13.0,0.0
10155,32.0,0,115,14.0,0.0
10156,73.0,5,23,11.0,0.0
10157,61.0,25,23,12.0,0.0
10158,77.0,1,30,10.0,0.0
10159,73.0,4,23,11.0,0.0
10160,61.0,25,23,12.0,0.0
10161,73.0,5,23,11.0,0.0
10162,61.0,0,23,12.0,0.0
10163,80.0,1,60,10.0,0.0
10164,77.0,5,23,11.0,0.0
10165,65.0,25,23,12.0,0.0
10166,49.0,2,60,13.0,0.0
10167,37.0,12,60,14.0,0.0
10168,77.0,4,23,11.0,0.0
10169,65.0,11,23,12.0,0.0
10170,75.0,5,23,11.0,0.0
10171,63.0,25,23,12.0,0.0
10172,51.0,2,60,13.0,0.0
10173,39.0,12,60,14.0,0.0
10174,75.0,5,23,11.0,0.0
10175,63.0,11,23,12.0,0.0
10176,77.0,1,60,10.0,0.0
10177,89.0,0,240,0.0,0.0
10178,85.0,1,240,0.0,0.0
10179,65.0,0,240,6.0,0.0
10180,77.0,1,240,6.0,0.0
10181,65.0,1,240,4.0,0.0
10182,73.0,5,23,11.0,0.0
10183,80.0,0,240,1.0,0.0
10184,68.0,1,240,1.0,0.0
10185,73.0,0,240,2.0,0.0
10186,77.0,2,240,2.0,0.0
10187,53.0,2,240,5.0,0.0
10188,61.0,11,23,12.0,0.0
10189,65.0,0,240,3.0,0.0
10190,61.0,0,240,3.0,0.0
10191,53.0,2,30,13.0,0.0
10192,41.0,12,30,14.0,0.0
10193,41.0,11,120,15.0,0.0
10194,73.0,4,23,11.0,0.0
10195,61.0,25,23,12.0,0.0
10196,78.0,1,60,10.0,0.0
10197,73.0,5,23,11.0,0.0
10198,61.0,11,23,12.0,0.0
10199,49.0,2,30,13.0,0.0
10200,37.0,12,30,14.0,0.0
10201,73.0,4,23,11.0,0.0
10202,61.0,14,23,12.0,0.0
10203,80.0,1,30,10.0,0.0
10204,73.0,4,23,11.0,0.0
10205,61.0,25,23,12.0,0.0
10206,44.0,0,115,13.0,0.0
10207,32.0,17,115,14.0,0.0
10208,73.0,5,23,11.0,0.0
10209,61.0,25,23,12.0,0.0
10210,77.0,1,30,10.0,0.0
10211,73.0,4,23,11.0,0.0
10212,61.0,25,23,12.0,0.0
10213,73.0,5,23,11.0,0.0
10214,61.0,0,23,12.0,0.0
10215,80.0,1,60,10.0,0.0
10216,77.0,5,23,11.0,0.0
10217,65.0,25,23,12.0,0.0
10218,49.0,2,60,13.0,0.0
10219,37.0,12,60,14.0,0.0
10220,77.0,4,23,11.0,0.0
10221,65.0,11,23,12.0,0.0
10222,75.0,5,23,11.0,0.0
10223,63.0,25,23,12.0,0.0
10224,51.0,2,60,13.0,0.0
10225,39.0,12,60,14.0,0.0
10226,75.0,5,23,11.0,0.0
10227,63.0,11,23,12.0,0.0
10228,77.0,1,60,10.0,0.0
10229,65.0,0,240,6.0,0.0
10230,73.0,5,23,11.0,0.0
10231,68.0,1,240,1.0,0.0
10232,80.0,0,240,1.0,0.0
10233,73.0,0,240,2.0,0.0
10234,77.0,2,240,2.0,0.0
10235,53.0,0,240,5.0,0.0
10236,61.0,11,23,12.0,0.0
10237,65.0,0,240,3.0,0.0
10238,61.0,0,240,3.0,0.0
10239,53.0,2,30,13.0,0.0
10240,41.0,12,30,14.0,0.0
10241,41.0,11,120,15.0,0.0
10242,73.0,4,23,11.0,0.0
10243,61.0,25,23,12.0,0.0
10244,78.0,1,60,10.0,0.0
10245,73.0,5,23,11.0,0.0
10246,61.0,11,23,12.0,0.0
10247,49.0,2,30,13.0,0.0
10248,37.0,12,30,14.0,0.0
10249,73.0,4,23,11.0,0.0
10250,61.0,14,23,12.0,0.0
10251,80.0,1,30,10.0,0.0
10252,73.0,4,23,11.0,0.0
10253,61.0,25,23,12.0,0.0
10254,44.0,2,115,13.0,0.0
10255,32.0,17,115,14.0,0.0
10256,73.0,5,23,11.0,0.0
10257,61.0,25,23,12.0,0.0
10258,77.0,1,30,10.0,0.0
10259,73.0,4,23,11.0,0.0
10260,61.0,25,23,12.0,0.0
10261,73.0,5,23,11.0,0.0
10262,61.0,0,23,12.0,0.0
10263,85.0,1,60,10.0,0.0
10264,85.0,0,0,0.0,0.0
10265,89.0,1,0,0.0,0.0
10266,77.0,1,0,6.0,0.0
10267,65.0,1,60,6.0,0.0
10268,77.0,5,23,11.0,0.0
10269,65.0,1,0,4.0,0.0
10270,82.0,0,60,1.0,0.0
10271,70.0,1,60,1.0,0.0
10272,73.0,2,60,2.0,0.0
10273,77.0,0,60,2.0,0.0
10274,53.0,2,60,5.0,0.0
10275,65.0,25,23,12.0,0.0
10276,58.0,0,60,3.0,0.0
10277,61.0,3,60,3.0,0.0
10278,46.0,2,60,13.0,0.0
10279,34.0,1,60,14.0,0.0
10280,41.0,11,60,15.0,0.0
10281,77.0,4,23,11.0,0.0
10282,65.0,0,23,12.0,0.0
10283,75.0,5,23,11.0,0.0
10284,63.0,25,23,12.0,0.0
10285,48.0,2,60,13.0,0.0
10286,36.0,12,60,14.0,0.0
10287,75.0,5,23,11.0,0.0
10288,63.0,11,23,12.0,0.0
10289,82.0,1,60,10.0,0.0
10290,85.0,0,240,0.0,0.0
10291,89.0,1,240,0.0,0.0
10292,77.0,0,240,6.0,0.0
10293,65.0,1,240,6.0,0.0
10294,73.0,5,23,11.0,0.0
10295,65.0,1,240,4.0,0.0
10296,82.0,0,240,1.0,0.0
10297,70.0,1,240,1.0,0.0
10298,73.0,0,240,2.0,0.0
10299,77.0,2,240,2.0,0.0
10300,53.0,2,240,5.0,0.0
10301,61.0,11,23,12.0,0.0
10302,61.0,0,240,3.0,0.0
10303,58.0,17,240,3.0,0.0
10304,49.0,2,30,13.0,0.0
10305,37.0,12,30,14.0,0.0
10306,41.0,11,120,15.0,0.0
10307,73.0,4,23,11.0,0.0
10308,61.0,25,23,12.0,0.0
10309,84.0,1,60,10.0,0.0
10310,73.0,5,23,11.0,0.0
10311,61.0,11,23,12.0,0.0
10312,46.0,2,30,13.0,0.0
10313,34.0,12,30,14.0,0.0
10314,73.0,4,23,11.0,0.0
10315,61.0,14,23,12.0,0.0
10316,85.0,1,30,10.0,0.0
10317,73.0,4,23,11.0,0.0
10318,61.0,25,23,12.0,0.0
10319,41.0,0,115,13.0,0.0
10320,29.0,0,115,14.0,0.0
10321,73.0,5,23,11.0,0.0
10322,61.0,25,23,12.0,0.0
10323,82.0,1,30,10.0,0.0
10324,73.0,4,23,11.0,0.0
10325,61.0,25,23,12.0,0.0
10326,73.0,5,23,11.0,0.0
10327,61.0,0,23,12.0,0.0
10328,85.0,1,60,10.0,0.0
10329,77.0,5,23,11.0,0.0
10330,65.0,25,23,12.0,0.0
10331,46.0,2,60,13.0,0.0
10332,34.0,12,60,14.0,0.0
10333,77.0,4,23,11.0,0.0
10334,65.0,11,23,12.0,0.0
10335,75.0,5,23,11.0,0.0
10336,63.0,25,23,12.0,0.0
10337,48.0,2,60,13.0,0.0
10338,36.0,12,60,14.0,0.0
10339,75.0,5,23,11.0,0.0
10340,63.0,11,23,12.0,0.0
10341,82.0,1,60,10.0,0.0
10342,85.0,0,240,0.0,0.0
10343,89.0,1,240,0.0,0.0
10344,65.0,1,240,6.0,0.0
10345,77.0,0,240,6.0,0.0
10346,73.0,5,23,11.0,0.0
10347,65.0,1,240,4.0,0.0
10348,82.0,0,240,1.0,0.0
10349,70.0,1,240,1.0,0.0
10350,73.0,0,240,2.0,0.0
10351,77.0,2,240,2.0,0.0
10352,53.0,0,240,5.0,0.0
10353,61.0,11,23,12.0,0.0
10354,58.0,0,240,3.0,0.0
10355,61.0,0,240,3.0,0.0
10356,49.0,2,30,13.0,0.0
10357,37.0,12,30,14.0,0.0
10358,41.0,11,120,15.0,0.0
10359,73.0,4,23,11.0,0.0
10360,61.0,25,23,12.0,0.0
10361,84.0,1,60,10.0,0.0
10362,73.0,5,23,11.0,0.0
10363,61.0,11,23,12.0,0.0
10364,46.0,2,30,13.0,0.0
10365,34.0,12,30,14.0,0.0
10366,73.0,4,23,11.0,0.0
10367,61.0,14,23,12.0,0.0
10368,85.0,1,30,10.0,0.0
10369,73.0,4,23,11.0,0.0
10370,61.0,25,23,12.0,0.0
10371,41.0,2,115,13.0,0.0
10372,29.0,17,115,14.0,0.0
10373,73.0,5,23,11.0,0.0
10374,61.0,25,23,12.0,0.0
10375,82.0,1,30,10.0,0.0
10376,73.0,4,23,11.0,0.0
10377,61.0,25,23,12.0,0.0
10378,73.0,5,23,11.0,0.0
10379,61.0,0,23,12.0,0.0
10380,85.0,1,60,10.0,0.0
10381,77.0,5,23,11.0,0.0
10382,65.0,25,23,12.0,0.0
10383,46.0,2,60,13.0,0.0
10384,34.0,12,60,14.0,0.0
10385,77.0,4,23,11.0,0.0
10386,65.0,11,23,12.0,0.0
10387,75.0,5,23,11.0,0.0
10388,63.0,25,23,12.0,0.0
10389,48.0,2,60,13.0,0.0
10390,36.0,12,60,14.0,0.0
10391,75.0,5,23,11.0,0.0
10392,63.0,11,23,12.0,0.0
10393,82.0,1,60,10.0,0.0
10394,89.0,0,240,0.0,0.0
10395,85.0,1,240,0.0,0.0
10396,77.0,0,240,6.0,0.0
10397,65.0,1,240,6.0,0.0
10398,65.0,1,240,4.0,0.0
10399,73.0,5,23,11.0,0.0
10400,70.0,1,240,1.0,0.0
10401,82.0,0,240,1.0,0.0
10402,77.0,2,240,2.0,0.0
10403,73.0,0,240,2.0,0.0
10404,53.0,0,240,5.0,0.0
10405,61.0,11,23,12.0,0.0
10406,61.0,17,240,3.0,0.0
10407,58.0,0,240,3.0,0.0
10408,49.0,2,30,13.0,0.0
10409,37.0,12,30,14.0,0.0
10410,41.0,11,120,15.0,0.0
10411,73.0,4,23,11.0,0.0
10412,61.0,25,23,12.0,0.0
10413,84.0,1,60,10.0,0.0
10414,73.0,5,23,11.0,0.0
10415,61.0,11,23,12.0,0.0
10416,46.0,2,30,13.0,0.0
10417,34.0,12,30,14.0,0.0
10418,73.0,4,23,11.0,0.0
10419,61.0,14,23,12.0,0.0
10420,85.0,1,30,10.0,0.0
10421,73.0,4,23,11.0,0.0
10422,61.0,25,23,12.0,0.0
10423,41.0,2,115,13.0,0.0
10424,29.0,0,115,14.0,0.0
10425,73.0,5,23,11.0,0.0
10426,61.0,25,23,12.0,0.0
10427,82.0,1,30,10.0,0.0
10428,73.0,4,23,11.0,0.0
10429,61.0,25,23,12.0,0.0
10430,73.0,5,23,11.0,0.0
10431,61.0,0,23,12.0,0.0
10432,85.0,1,60,10.0,0.0
10433,77.0,5,23,11.0,0.0
10434,65.0,25,23,12.0,0.0
10435,46.0,2,60,13.0,0.0
10436,34.0,12,60,14.0,0.0
10437,77.0,4,23,11.0,0.0
10438,65.0,11,23,12.0,0.0
10439,75.0,5,23,11.0,0.0
10440,63.0,25,23,12.0,0.0
10441,48.0,2,60,13.0,0.0
10442,36.0,12,60,14.0,0.0
10443,75.0,5,23,11.0,0.0
10444,63.0,11,23,12.0,0.0
10445,82.0,1,60,10.0,0.0
10446,85.0,0,240,0.0,0.0
10447,65.0,1,240,6.0,0.0
10448,77.0,0,240,6.0,0.0
10449,73.0,5,23,11.0,0.0
10450,82.0,1,240,1.0,0.0
10451,70.0,0,240,1.0,0.0
10452,73.0,0,240,2.0,0.0
10453,77.0,2,240,2.0,0.0
10454,53.0,2,240,5.0,0.0
10455,61.0,11,23,12.0,0.0
10456,61.0,0,240,3.0,0.0
10457,58.0,0,240,3.0,0.0
10458,49.0,2,30,13.0,0.0
10459,37.0,12,30,14.0,0.0
10460,41.0,11,120,15.0,0.0
10461,73.0,4,23,11.0,0.0
10462,61.0,25,23,12.0,0.0
10463,84.0,1,60,10.0,0.0
10464,73.0,5,23,11.0,0.0
10465,61.0,11,23,12.0,0.0
10466,46.0,2,30,13.0,0.0
10467,34.0,12,30,14.0,0.0
10468,73.0,4,23,11.0,0.0
10469,61.0,14,23,12.0,0.0
10470,85.0,1,30,10.0,0.0
10471,73.0,4,23,11.0,0.0
10472,61.0,25,23,12.0,0.0
10473,41.0,0,115,13.0,0.0
10474,29.0,17,115,14.0,0.0
10475,73.0,5,23,11.0,0.0
10476,61.0,25,23,12.0,0.0
10477,82.0,1,30,10.0,0.0
10478,73.0,4,23,11.0,0.0
10479,61.0,25,23,12.0,0.0
10480,73.0,5,23,11.0,0.0
10481,61.0,1,23,12.0,0.0
10482,86.0,1,60,10.0,0.0
10483,89.0,0,0,0.0,0.0
10484,86.0,0,60,0.0,0.0
10485,77.0,1,60,6.0,0.0
10486,65.0,0,60,6.0,0.0
10487,65.0,1,0,4.0,0.0
10488,77.0,5,23,11.0,0.0
10489,71.0,0,60,1.0,0.0
10490,83.0,1,60,1.0,0.0
10491,74.0,0,60,2.0,0.0
10492,71.0,2,60,2.0,0.0
10493,53.0,2,60,5.0,0.0
10494,65.0,25,23,12.0,0.0
10495,62.0,3,60,3.0,0.0
10496,59.0,0,60,3.0,0.0
10497,41.0,2,60,13.0,0.0
10498,41.0,1,60,14.0,0.0
10499,41.0,11,60,15.0,0.0
10500,77.0,4,23,11.0,0.0
10501,65.0,1,23,12.0,0.0
10502,76.0,5,23,11.0,0.0
10503,64.0,25,23,12.0,0.0
10504,43.0,2,60,13.0,0.0
10505,43.0,12,60,14.0,0.0
10506,76.0,5,23,11.0,0.0
10507,64.0,11,23,12.0,0.0
10508,83.0,1,60,10.0,0.0
10509,86.0,0,240,0.0,0.0
10510,89.0,1,240,0.0,0.0
10511,77.0,1,240,6.0,0.0
10512,65.0,0,240,6.0,0.0
10513,74.0,5,23,11.0,0.0
10514,68.0,1,240,4.0,0.0
10515,80.0,1,240,1.0,0.0
10516,77.0,0,240,1.0,0.0
10517,71.0,0,240,2.0,0.0
10518,74.0,2,240,2.0,0.0
10519,60.0,2,240,5.0,0.0
10520,62.0,11,23,12.0,0.0
10521,48.0,0,240,3.0,0.0
10522,36.0,17,240,3.0,0.0
10523,44.0,2,30,13.0,0.0
10524,44.0,12,30,14.0,0.0
10525,48.0,11,120,15.0,0.0
10526,74.0,4,23,11.0,0.0
10527,62.0,25,23,12.0,0.0
10528,84.0,1,60,10.0,0.0
10529,74.0,5,23,11.0,0.0
10530,62.0,11,23,12.0,0.0
10531,41.0,2,30,13.0,0.0
10532,41.0,12,30,14.0,0.0
10533,74.0,4,23,11.0,0.0
10534,62.0,14,23,12.0,0.0
10535,86.0,1,30,10.0,0.0
10536,74.0,4,23,11.0,0.0
10537,62.0,25,23,12.0,0.0
10538,36.0,0,115,13.0,0.0
10539,36.0,0,115,14.0,0.0
10540,74.0,5,23,11.0,0.0
10541,62.0,25,23,12.0,0.0
10542,83.0,1,30,10.0,0.0
10543,74.0,4,23,11.0,0.0
10544,62.0,25,23,12.0,0.0
10545,74.0,5,23,11.0,0.0
10546,62.0,0,23,12.0,0.0
10547,86.0,1,60,10.0,0.0
10548,77.0,5,23,11.0,0.0
10549,65.0,25,23,12.0,0.0
10550,41.0,2,60,13.0,0.0
10551,41.0,12,60,14.0,0.0
10552,77.0,4,23,11.0,0.0
10553,65.0,11,23,12.0,0.0
10554,76.0,5,23,11.0,0.0
10555,64.0,25,23,12.0,0.0
10556,43.0,2,60,13.0,0.0
10557,43.0,12,60,14.0,0.0
10558,76.0,5,23,11.0,0.0
10559,64.0,11,23,12.0,0.0
10560,83.0,1,60,10.0,0.0
10561,86.0,0,240,0.0,0.0
10562,89.0,1,240,0.0,0.0
10563,65.0,1,240,6.0,0.0
10564,77.0,0,240,6.0,0.0
10565,68.0,1,240,4.0,0.0
10566,74.0,5,23,11.0,0.0
10567,77.0,0,240,1.0,0.0
10568,80.0,1,240,1.0,0.0
10569,74.0,0,240,2.0,0.0
10570,71.0,2,240,2.0,0.0
10571,60.0,0,240,5.0,0.0
10572,62.0,11,23,12.0,0.0
10573,36.0,17,240,3.0,0.0
10574,48.0,0,240,3.0,0.0
10575,44.0,2,30,13.0,0.0
10576,44.0,12,30,14.0,0.0
10577,48.0,11,120,15.0,0.0
10578,74.0,4,23,11.0,0.0
10579,62.0,25,23,12.0,0.0
10580,84.0,1,60,10.0,0.0
10581,74.0,5,23,11.0,0.0
10582,62.0,11,23,12.0,0.0
10583,41.0,2,30,13.0,0.0
10584,41.0,12,30,14.0,0.0
10585,74.0,4,23,11.0,0.0
10586,62.0,14,23,12.0,0.0
10587,86.0,1,30,10.0,0.0
10588,74.0,4,23,11.0,0.0
10589,62.0,25,23,12.0,0.0
10590,36.0,2,115,13.0,0.0
10591,36.0,0,115,14.0,0.0
10592,74.0,5,23,11.0,0.0
10593,62.0,25,23,12.0,0.0
10594,83.0,1,30,10.0,0.0
10595,74.0,4,23,11.0,0.0
10596,62.0,25,23,12.0,0.0
10597,74.0,5,23,11.0,0.0
10598,62.0,0,23,12.0,0.0
10599,86.0,1,60,10.0,0.0
10600,77.0,5,23,11.0,0.0
10601,65.0,25,23,12.0,0.0
10602,41.0,2,60,13.0,0.0
10603,41.0,12,60,14.0,0.0
10604,77.0,4,23,11.0,0.0
10605,65.0,11,23,12.0,0.0
10606,76.0,5,23,11.0,0.0
10607,64.0,25,23,12.0,0.0
10608,43.0,2,60,13.0,0.0
10609,43.0,12,60,14.0,0.0
10610,76.0,5,23,11.0,0.0
10611,64.0,11,23,12.0,0.0
10612,83.0,1,60,10.0,0.0
10613,86.0,0,240,0.0,0.0
10614,89.0,0,240,0.0,0.0
10615,77.0,1,240,6.0,0.0
10616,65.0,0,240,6.0,0.0
10617,74.0,5,23,11.0,0.0
10618,68.0,1,240,4.0,0.0
10619,77.0,0,240,1.0,0.0
10620,80.0,1,240,1.0,0.0
10621,71.0,2,240,2.0,0.0
10622,74.0,0,240,2.0,0.0
10623,60.0,2,240,5.0,0.0
10624,62.0,11,23,12.0,0.0
10625,48.0,0,240,3.0,0.0
10626,36.0,0,240,3.0,0.0
10627,44.0,2,30,13.0,0.0
10628,44.0,12,30,14.0,0.0
10629,48.0,11,120,15.0,0.0
10630,74.0,4,23,11.0,0.0
10631,62.0,25,23,12.0,0.0
10632,84.0,1,60,10.0,0.0
10633,74.0,5,23,11.0,0.0
10634,62.0,11,23,12.0,0.0
10635,41.0,2,30,13.0,0.0
10636,41.0,12,30,14.0,0.0
10637,74.0,4,23,11.0,0.0
10638,62.0,14,23,12.0,0.0
10639,86.0,1,30,10.0,0.0
10640,74.0,4,23,11.0,0.0
10641,62.0,25,23,12.0,0.0
10642,36.0,0,115,13.0,0.0
10643,36.0,17,115,14.0,0.0
10644,74.0,5,23,11.0,0.0
10645,62.0,25,23,12.0,0.0
10646,83.0,1,30,10.0,0.0
10647,74.0,4,23,11.0,0.0
10648,62.0,25,23,12.0,0.0
10649,74.0,5,23,11.0,0.0
10650,62.0,1,23,12.0,0.0
10651,86.0,1,60,10.0,0.0
10652,77.0,5,23,11.0,0.0
10653,65.0,25,23,12.0,0.0
10654,41.0,2,60,13.0,0.0
10655,41.0,12,60,14.0,0.0
10656,77.0,4,23,11.0,0.0
10657,65.0,11,23,12.0,0.0
10658,76.0,5,23,11.0,0.0
10659,64.0,25,23,12.0,0.0
10660,43.0,2,60,13.0,0.0
10661,43.0,12,60,14.0,0.0
10662,76.0,5,23,11.0,0.0
10663,64.0,11,23,12.0,0.0
10664,83.0,1,60,10.0,0.0
10665,65.0,0,240,6.0,0.0
10666,77.0,1,240,6.0,0.0
10667,74.0,5,23,11.0,0.0
10668,68.0,1,240,4.0,0.0
10669,80.0,1,240,1.0,0.0
10670,77.0,0,240,1.0,0.0
10671,71.0,2,240,2.0,0.0
10672,74.0,0,240,2.0,0.0
10673,56.0,2,240,5.0,0.0
10674,62.0,11,23,12.0,0.0
10675,48.0,0,240,3.0,0.0
10676,36.0,0,240,3.0,0.0
10677,44.0,2,30,13.0,0.0
10678,44.0,12,30,14.0,0.0
10679,48.0,11,120,15.0,0.0
10680,74.0,4,23,11.0,0.0
10681,62.0,25,23,12.0,0.0
10682,84.0,1,60,10.0,0.0
10683,74.0,5,23,11.0,0.0
10684,62.0,11,23,12.0,0.0
10685,41.0,2,30,13.0,0.0
10686,41.0,12,30,14.0,0.0
10687,74.0,4,23,11.0,0.0
10688,62.0,14,23,12.0,0.0
10689,86.0,1,30,10.0,0.0
10690,74.0,4,23,11.0,0.0
10691,62.0,25,23,12.0,0.0
10692,36.0,0,115,13.0,0.0
10693,36.0,14,115,14.0,0.0
10694,74.0,5,23,11.0,0.0
10695,62.0,25,23,12.0,0.0
10696,83.0,1,30,10.0,0.0
10697,74.0,4,23,11.0,0.0
10698,62.0,25,23,12.0,0.0
10699,74.0,5,23,11.0,0.0
10700,62.0,0,23,12.0,0.0
10701,86.0,3,23,10.0,0.0
10702,89.0,0,0,0.0,0.0
10703,86.0,1,0,0.0,0.0
10704,65.0,1,60,6.0,0.0
10705,77.0,0,60,6.0,0.0
10706,74.0,5,23,11.0,0.0
10707,77.0,0,23,11.0,0.0
10708,65.0,1,60,4.0,0.0
10709,80.0,1,60,1.0,0.0
10710,77.0,0,60,1.0,0.0
10711,71.0,0,60,2.0,0.0
10712,74.0,2,60,2.0,0.0
10713,53.0,2,60,5.0,0.0
10714,62.0,0,23,12.0,0.0
10715,65.0,22,23,12.0,0.0
10716,53.0,3,60,3.0,0.0
10717,41.0,0,60,3.0,0.0
10718,41.0,2,60,13.0,0.0
10719,41.0,1,60,14.0,0.0
10720,41.0,8,60,15.0,0.0
10721,86.0,3,23,10.0,0.0
10722,74.0,0,23,11.0,0.0
10723,77.0,5,23,11.0,0.0
10724,62.0,0,23,12.0,0.0
10725,65.0,0,23,12.0,0.0
10726,83.0,3,23,10.0,0.0
10727,77.0,0,23,11.0,0.0
10728,74.0,5,23,11.0,0.0
10729,62.0,0,23,12.0,0.0
10730,65.0,22,23,12.0,0.0
10731,43.0,2,60,13.0,0.0
10732,43.0,9,60,14.0,0.0
10733,83.0,3,23,10.0,0.0
10734,77.0,0,23,11.0,0.0
10735,74.0,5,23,11.0,0.0
10736,65.0,11,23,12.0,0.0
10737,62.0,0,23,12.0,0.0
10738,84.0,3,23,10.0,0.0
10739,77.0,0,600,6.0,0.0
10740,77.0,0,23,11.0,0.0
10741,68.0,1,600,4.0,0.0
10742,74.0,5,23,11.0,0.0
10743,77.0,0,600,1.0,0.0
10744,60.0,2,600,5.0,0.0
10745,62.0,0,23,12.0,0.0
10746,65.0,11,23,12.0,0.0
10747,48.0,6,600,3.0,0.0
10748,36.0,0,600,3.0,0.0
10749,44.0,2,30,13.0,0.0
10750,44.0,1,30,14.0,0.0
10751,84.0,3,23,10.0,0.0
10752,74.0,0,23,11.0,0.0
10753,77.0,5,23,11.0,0.0
10754,62.0,0,23,12.0,0.0
10755,65.0,14,23,12.0,0.0
10756,48.0,8,0,15.0,0.0
10757,86.0,3,23,10.0,0.0
10758,77.0,0,23,11.0,0.0
10759,74.0,5,23,11.0,0.0
10760,62.0,11,23,12.0,0.0
10761,65.0,0,23,12.0,0.0
10762,41.0,2,30,13.0,0.0
10763,41.0,1,30,14.0,0.0
10764,48.0,8,0,15.0,0.0
10765,86.0,3,23,10.0,0.0
10766,77.0,0,23,11.0,0.0
10767,74.0,5,23,11.0,0.0
10768,65.0,0,23,12.0,0.0
10769,62.0,14,23,12.0,0.0
10770,48.0,8,0,15.0,0.0
10771,83.0,3,23,10.0,0.0
10772,77.0,0,23,11.0,0.0
10773,74.0,5,23,11.0,0.0
10774,62.0,11,23,12.0,0.0
10775,65.0,0,23,12.0,0.0
10776,36.0,2,30,13.0,0.0
10777,36.0,1,30,14.0,0.0
10778,48.0,8,0,15.0,0.0
10779,83.0,3,23,10.0,0.0
10780,77.0,0,23,11.0,0.0
10781,74.0,5,23,11.0,0.0
10782,65.0,0,23,12.0,0.0
10783,62.0,14,23,12.0,0.0
10784,48.0,8,30,15.0,0.0
10785,84.0,3,23,10.0,0.0
10786,74.0,0,23,11.0,0.0
10787,77.0,5,23,11.0,0.0
10788,62.0,0,23,12.0,0.0
10789,65.0,11,23,12.0,0.0
10790,44.0,2,30,13.0,0.0
10791,44.0,1,30,14.0,0.0
10792,48.0,8,30,15.0,0.0
10793,84.0,3,23,10.0,0.0
10794,74.0,0,23,11.0,0.0
10795,77.0,5,23,11.0,0.0
10796,65.0,14,23,12.0,0.0
10797,62.0,0,23,12.0,0.0
10798,48.0,8,30,15.0,0.0
10799,86.0,3,23,10.0,0.0
10800,74.0,5,23,11.0,0.0
10801,77.0,0,23,11.0,0.0
10802,62.0,11,23,12.0,0.0
10803,65.0,0,23,12.0,0.0
10804,41.0,2,30,13.0,0.0
10805,41.0,1,30,14.0,0.0
10806,48.0,8,30,15.0,0.0
10807,86.0,3,23,10.0,0.0
10808,74.0,5,23,11.0,0.0
10809,77.0,0,23,11.0,0.0
10810,65.0,14,23,12.0,0.0
10811,62.0,0,23,12.0,0.0
10812,48.0,8,30,15.0,0.0
10813,83.0,3,23,10.0,0.0
10814,77.0,5,23,11.0,0.0
10815,74.0,0,23,11.0,0.0
10816,62.0,0,23,12.0,0.0
10817,65.0,11,23,12.0,0.0
10818,43.0,2,30,13.0,0.0
10819,43.0,1,30,14.0,0.0
10820,48.0,8,30,15.0,0.0
10821,83.0,3,23,10.0,0.0
10822,77.0,0,23,11.0,0.0
10823,74.0,5,23,11.0,0.0
10824,65.0,0,23,12.0,0.0
10825,62.0,14,23,12.0,0.0
10826,48.0,8,30,15.0,0.0
10827,84.0,3,23,10.0,0.0
10828,74.0,0,23,11.0,0.0
10829,77.0,5,23,11.0,0.0
10830,65.0,0,23,12.0,0.0
10831,62.0,11,23,12.0,0.0
10832,44.0,2,30,13.0,0.0
10833,44.0,1,30,14.0,0.0
10834,84.0,3,23,10.0,0.0
10835,77.0,5,23,11.0,0.0
10836,74.0,0,23,11.0,0.0
10837,62.0,14,23,12.0,0.0
10838,65.0,0,23,12.0,0.0
10839,48.0,8,0,15.0,0.0
10840,86.0,3,23,10.0,0.0
10841,74.0,0,23,11.0,0.0
10842,77.0,5,23,11.0,0.0
10843,62.0,0,23,12.0,0.0
10844,65.0,11,23,12.0,0.0
10845,41.0,2,30,13.0,0.0
10846,41.0,1,30,14.0,0.0
10847,48.0,8,0,15.0,0.0
10848,86.0,3,23,10.0,0.0
10849,74.0,0,23,11.0,0.0
10850,77.0,5,23,11.0,0.0
10851,62.0,0,23,12.0,0.0
10852,65.0,14,23,12.0,0.0
10853,48.0,8,30,15.0,0.0
10854,83.0,3,23,10.0,0.0
10855,74.0,5,23,11.0,0.0
10856,77.0,0,23,11.0,0.0
10857,65.0,0,23,12.0,0.0
10858,62.0,11,23,12.0,0.0
10859,36.0,2,30,13.0,0.0
10860,36.0,1,30,14.0,0.0
10861,83.0,3,23,10.0,0.0
10862,77.0,0,23,11.0,0.0
10863,74.0,5,23,11.0,0.0
10864,65.0,14,23,12.0,0.0
10865,62.0,0,23,12.0,0.0
10866,48.0,8,0,15.0,0.0
10867,84.0,3,23,10.0,0.0
10868,74.0,5,23,11.0,0.0
10869,77.0,0,23,11.0,0.0
10870,62.0,11,23,12.0,0.0
10871,65.0,0,23,12.0,0.0
10872,44.0,2,30,13.0,0.0
10873,44.0,1,30,14.0,0.0
10874,48.0,8,0,15.0,0.0
10875,84.0,3,23,10.0,0.0
10876,77.0,0,23,11.0,0.0
10877,74.0,5,23,11.0,0.0
10878,65.0,1,23,12.0,0.0
10879,62.0,0,23,12.0,0.0
10880,48.0,8,30,15.0,0.0
10881,86.0,3,23,10.0,0.0
10882,86.0,0,0,0.0,0.0
10883,89.0,0,0,0.0,0.0
10884,77.0,0,60,6.0,0.0
10885,65.0,1,0,6.0,0.0
10886,65.0,1,60,4.0,0.0
10887,77.0,0,23,11.0,0.0
10888,74.0,5,23,11.0,0.0
10889,77.0,1,60,1.0,0.0
10890,80.0,1,0,1.0,0.0
10891,71.0,0,0,2.0,0.0
10892,74.0,2,0,2.0,0.0
10893,53.0,2,60,5.0,0.0
10894,62.0,0,23,12.0,0.0
10895,65.0,22,23,12.0,0.0
10896,41.0,0,60,3.0,0.0
10897,53.0,3,60,3.0,0.0
10898,41.0,2,60,13.0,0.0
10899,41.0,1,60,14.0,0.0
10900,41.0,8,60,15.0,0.0
10901,86.0,3,23,10.0,0.0
10902,77.0,5,23,11.0,0.0
10903,74.0,0,23,11.0,0.0
10904,62.0,0,23,12.0,0.0
10905,65.0,0,23,12.0,0.0
10906,83.0,3,23,10.0,0.0
10907,77.0,5,23,11.0,0.0
10908,74.0,0,23,11.0,0.0
10909,62.0,0,23,12.0,0.0
10910,65.0,22,23,12.0,0.0
10911,43.0,2,60,13.0,0.0
10912,43.0,9,60,14.0,0.0
10913,83.0,3,23,10.0,0.0
10914,77.0,5,23,11.0,0.0
10915,74.0,0,23,11.0,0.0
10916,65.0,11,23,12.0,0.0
10917,62.0,0,23,12.0,0.0
10918,84.0,3,23,10.0,0.0
10919,65.0,1,600,6.0,0.0
10920,77.0,0,600,6.0,0.0
10921,68.0,1,600,4.0,0.0
10922,74.0,5,23,11.0,0.0
10923,77.0,0,23,11.0,0.0
10924,80.0,0,600,1.0,0.0
10925,74.0,2,600,2.0,0.0
10926,71.0,0,600,2.0,0.0
10927,65.0,0,23,12.0,0.0
10928,62.0,11,23,12.0,0.0
10929,36.0,0,600,3.0,0.0
10930,48.0,6,600,3.0,0.0
10931,44.0,2,30,13.0,0.0
10932,44.0,1,30,14.0,0.0
10933,48.0,8,30,15.0,0.0
10934,84.0,3,23,10.0,0.0
10935,74.0,5,23,11.0,0.0
10936,77.0,0,23,11.0,0.0
10937,62.0,0,23,12.0,0.0
10938,65.0,14,23,12.0,0.0
10939,48.0,8,30,15.0,0.0
10940,86.0,3,23,10.0,0.0
10941,77.0,0,23,11.0,0.0
10942,74.0,5,23,11.0,0.0
10943,65.0,0,23,12.0,0.0
10944,62.0,11,23,12.0,0.0
10945,41.0,2,30,13.0,0.0
10946,41.0,1,30,14.0,0.0
10947,86.0,3,23,10.0,0.0
10948,77.0,5,23,11.0,0.0
10949,74.0,0,23,11.0,0.0
10950,62.0,0,23,12.0,0.0
10951,65.0,14,23,12.0,0.0
10952,48.0,8,0,15.0,0.0
10953,83.0,3,23,10.0,0.0
10954,77.0,5,23,11.0,0.0
10955,74.0,0,23,11.0,0.0
10956,62.0,11,23,12.0,0.0
10957,65.0,0,23,12.0,0.0
10958,36.0,2,30,13.0,0.0
10959,36.0,1,30,14.0,0.0
10960,48.0,8,0,15.0,0.0
10961,83.0,3,23,10.0,0.0
10962,74.0,5,23,11.0,0.0
10963,77.0,0,23,11.0,0.0
10964,65.0,0,23,12.0,0.0
10965,62.0,14,23,12.0,0.0
10966,84.0,3,23,10.0,0.0
10967,77.0,0,23,11.0,0.0
10968,74.0,5,23,11.0,0.0
10969,62.0,0,23,12.0,0.0
10970,65.0,11,23,12.0,0.0
10971,44.0,2,30,13.0,0.0
10972,44.0,1,30,14.0,0.0
10973,48.0,8,0,15.0,0.0
10974,84.0,3,23,10.0,0.0
10975,77.0,0,23,11.0,0.0
10976,74.0,5,23,11.0,0.0
10977,65.0,14,23,12.0,0.0
10978,62.0,0,23,12.0,0.0
10979,48.0,8,30,15.0,0.0
10980,86.0,3,23,10.0,0.0
10981,77.0,0,23,11.0,0.0
10982,74.0,5,23,11.0,0.0
10983,65.0,11,23,12.0,0.0
10984,62.0,0,23,12.0,0.0
10985,41.0,2,30,13.0,0.0
10986,41.0,1,30,14.0,0.0
10987,86.0,3,23,10.0,0.0
10988,74.0,0,23,11.0,0.0
10989,77.0,5,23,11.0,0.0
10990,62.0,14,23,12.0,0.0
10991,65.0,0,23,12.0,0.0
10992,48.0,8,0,15.0,0.0
10993,83.0,3,23,10.0,0.0
10994,74.0,5,23,11.0,0.0
10995,77.0,0,23,11.0,0.0
10996,65.0,11,23,12.0,0.0
10997,62.0,0,23,12.0,0.0
10998,43.0,2,30,13.0,0.0
10999,43.0,1,30,14.0,0.0
11000,48.0,8,0,15.0,0.0
11001,83.0,3,23,10.0,0.0
11002,74.0,0,23,11.0,0.0
11003,77.0,5,23,11.0,0.0
11004,62.0,0,23,12.0,0.0
11005,65.0,14,23,12.0,0.0
11006,48.0,8,0,15.0,0.0
11007,84.0,3,23,10.0,0.0
11008,77.0,0,23,11.0,0.0
11009,74.0,5,23,11.0,0.0
11010,65.0,0,23,12.0,0.0
11011,62.0,11,23,12.0,0.0
11012,44.0,2,30,13.0,0.0
11013,44.0,1,30,14.0,0.0
11014,48.0,8,30,15.0,0.0
11015,84.0,3,23,10.0,0.0
11016,74.0,5,23,11.0,0.0
11017,77.0,0,23,11.0,0.0
11018,65.0,0,23,12.0,0.0
11019,62.0,14,23,12.0,0.0
11020,48.0,8,30,15.0,0.0
11021,86.0,3,23,10.0,0.0
11022,74.0,0,23,11.0,0.0
11023,77.0,5,23,11.0,0.0
11024,62.0,0,23,12.0,0.0
11025,65.0,11,23,12.0,0.0
11026,41.0,2,30,13.0,0.0
11027,41.0,1,30,14.0,0.0
11028,86.0,3,23,10.0,0.0
11029,74.0,5,23,11.0,0.0
11030,77.0,0,23,11.0,0.0
11031,65.0,14,23,12.0,0.0
11032,62.0,0,23,12.0,0.0
11033,48.0,8,0,15.0,0.0
11034,83.0,3,23,10.0,0.0
11035,74.0,5,23,11.0,0.0
11036,77.0,0,23,11.0,0.0
11037,65.0,11,23,12.0,0.0
11038,62.0,0,23,12.0,0.0
11039,36.0,2,30,13.0,0.0
11040,36.0,1,30,14.0,0.0
11041,48.0,8,0,15.0,0.0
11042,83.0,3,23,10.0,0.0
11043,74.0,5,23,11.0,0.0
11044,77.0,0,23,11.0,0.0
11045,62.0,14,23,12.0,0.0
11046,65.0,0,23,12.0,0.0
11047,48.0,8,30,15.0,0.0
11048,84.0,3,23,10.0,0.0
11049,77.0,5,23,11.0,0.0
11050,74.0,0,23,11.0,0.0
11051,62.0,0,23,12.0,0.0
11052,65.0,11,23,12.0,0.0
11053,44.0,2,30,13.0,0.0
11054,44.0,1,30,14.0,0.0
11055,84.0,3,23,10.0,0.0
11056,77.0,5,23,11.0,0.0
11057,74.0,0,23,11.0,0.0
11058,65.0,1,23,12.0,0.0
11059,62.0,0,23,12.0,0.0
11060,48.0,8,0,15.0,0.0
11061,86.0,3,23,10.0,0.0
11062,89.0,0,0,0.0,0.0
11063,86.0,0,0,0.0,0.0
11064,72.0,0,45,6.0,0.0
11065,60.0,1,45,6.0,0.0
11066,68.0,4,45,4.0,0.0
11067,77.0,5,23,11.0,0.0
11068,77.0,1,0,1.0,0.0
11069,80.0,1,30,1.0,0.0
11070,74.0,0,30,2.0,0.0
11071,71.0,4,30,2.0,0.0
11072,60.0,2,0,5.0,0.0
11073,56.0,0,23,12.0,0.0
11074,36.0,8,30,3.0,0.0
11075,48.0,0,30,3.0,0.0
11076,36.0,2,120,13.0,0.0
11077,36.0,9,120,14.0,0.0
11078,48.0,1,45,15.0,0.0
11079,86.0,3,23,10.0,0.0
11080,77.0,4,23,11.0,0.0
11081,56.0,22,23,12.0,0.0
11082,86.0,3,23,10.0,0.0
11083,77.0,5,23,11.0,0.0
11084,65.0,22,23,12.0,0.0
11085,86.0,3,23,10.0,0.0
11086,77.0,5,23,11.0,0.0
11087,65.0,11,23,12.0,0.0
11088,77.0,3,23,10.0,0.0
11089,86.0,3,30,0.0,0.0
11090,89.0,0,30,0.0,0.0
11091,60.0,1,45,6.0,0.0
11092,72.0,0,45,6.0,0.0
11093,68.0,4,45,4.0,0.0
11094,68.0,5,23,11.0,0.0
11095,77.0,0,30,1.0,0.0
11096,80.0,1,30,1.0,0.0
11097,74.0,0,30,2.0,0.0
11098,65.0,4,30,2.0,0.0
11099,60.0,1,45,5.0,0.0
11100,56.0,0,23,12.0,0.0
11101,53.0,0,30,3.0,0.0
11102,56.0,8,30,3.0,0.0
11103,48.0,1,45,15.0,0.0
11104,77.0,3,23,10.0,0.0
11105,68.0,4,23,11.0,0.0
11106,56.0,22,23,12.0,0.0
11107,86.0,3,23,10.0,0.0
11108,77.0,5,23,11.0,0.0
11109,65.0,11,23,12.0,0.0
11110,48.0,2,30,13.0,0.0
11111,48.0,9,30,14.0,0.0
11112,86.0,3,23,10.0,0.0
11113,77.0,5,23,11.0,0.0
11114,65.0,41,23,12.0,0.0
11115,36.0,2,30,13.0,0.0
11116,36.0,58,30,14.0,0.0
11117,48.0,2,30,13.0,0.0
11118,48.0,39,30,14.0,0.0
11119,87.0,3,23,10.0,0.0
11120,90.0,0,30,0.0,0.0
11121,87.0,0,30,0.0,0.0
11122,60.0,0,45,6.0,0.0
11123,72.0,1,45,6.0,0.0
11124,78.0,5,23,11.0,0.0
11125,69.0,4,45,4.0,0.0
11126,78.0,0,30,1.0,0.0
11127,81.0,1,30,1.0,0.0
11128,66.0,4,30,2.0,0.0
11129,75.0,0,30,2.0,0.0
11130,69.0,1,45,5.0,0.0
11131,57.0,3,23,12.0,0.0
11132,57.0,8,30,3.0,0.0
11133,54.0,0,30,3.0,0.0
11134,36.0,2,120,13.0,0.0
11135,36.0,9,120,14.0,0.0
11136,48.0,1,45,15.0,0.0
11137,87.0,3,23,10.0,0.0
11138,78.0,4,23,11.0,0.0
11139,57.0,22,23,12.0,0.0
11140,87.0,3,23,10.0,0.0
11141,78.0,5,23,11.0,0.0
11142,66.0,22,23,12.0,0.0
11143,87.0,3,23,10.0,0.0
11144,78.0,5,23,11.0,0.0
11145,66.0,11,23,12.0,0.0
11146,78.0,3,23,10.0,0.0
11147,90.0,3,30,0.0,0.0
11148,87.0,0,30,0.0,0.0
11149,60.0,0,45,6.0,0.0
11150,72.0,1,45,6.0,0.0
11151,69.0,5,23,11.0,0.0
11152,69.0,4,45,4.0,0.0
11153,81.0,0,30,1.0,0.0
11154,78.0,1,30,1.0,0.0
11155,66.0,0,30,2.0,0.0
11156,75.0,4,30,2.0,0.0
11157,69.0,1,45,5.0,0.0
11158,57.0,0,23,12.0,0.0
11159,57.0,0,30,3.0,0.0
11160,54.0,8,30,3.0,0.0
11161,48.0,1,45,15.0,0.0
11162,78.0,3,23,10.0,0.0
11163,69.0,4,23,11.0,0.0
11164,57.0,22,23,12.0,0.0
11165,87.0,3,23,10.0,0.0
11166,78.0,5,23,11.0,0.0
11167,66.0,11,23,12.0,0.0
11168,48.0,2,30,13.0,0.0
11169,48.0,9,30,14.0,0.0
11170,87.0,3,23,10.0,0.0
11171,78.0,5,23,11.0,0.0
11172,66.0,41,23,12.0,0.0
11173,36.0,2,30,13.0,0.0
11174,36.0,58,30,14.0,0.0
11175,48.0,2,30,13.0,0.0
11176,48.0,39,30,14.0,0.0
11177,88.0,3,23,10.0,0.0
11178,91.0,0,30,0.0,0.0
11179,88.0,0,30,0.0,0.0
11180,72.0,0,45,6.0,0.0
11181,60.0,1,45,6.0,0.0
11182,70.0,4,45,4.0,0.0
11183,79.0,5,23,11.0,0.0
11184,79.0,0,30,1.0,0.0
11185,82.0,1,30,1.0,0.0
11186,76.0,0,30,2.0,0.0
11187,67.0,4,30,2.0,0.0
11188,67.0,1,45,5.0,0.0
11189,58.0,3,23,12.0,0.0
11190,55.0,0,30,3.0,0.0
11191,58.0,8,30,3.0,0.0
11192,36.0,2,120,13.0,0.0
11193,36.0,9,120,14.0,0.0
11194,48.0,1,45,15.0,0.0
11195,88.0,3,23,10.0,0.0
11196,79.0,4,23,11.0,0.0
11197,58.0,22,23,12.0,0.0
11198,88.0,3,23,10.0,0.0
11199,79.0,5,23,11.0,0.0
11200,67.0,22,23,12.0,0.0
11201,88.0,3,23,10.0,0.0
11202,79.0,5,23,11.0,0.0
11203,67.0,11,23,12.0,0.0
11204,79.0,3,23,10.0,0.0
11205,88.0,3,30,0.0,0.0
11206,91.0,0,30,0.0,0.0
11207,60.0,0,45,6.0,0.0
11208,72.0,1,45,6.0,0.0
11209,70.0,5,23,11.0,0.0
11210,70.0,4,45,4.0,0.0
11211,79.0,0,30,1.0,0.0
11212,82.0,1,30,1.0,0.0
11213,67.0,4,30,2.0,0.0
11214,76.0,0,30,2.0,0.0
11215,67.0,1,45,5.0,0.0
11216,58.0,0,23,12.0,0.0
11217,55.0,8,30,3.0,0.0
11218,58.0,0,30,3.0,0.0
11219,48.0,1,45,15.0,0.0
11220,79.0,3,23,10.0,0.0
11221,70.0,4,23,11.0,0.0
11222,58.0,22,23,12.0,0.0
11223,88.0,3,23,10.0,0.0
11224,79.0,5,23,11.0,0.0
11225,67.0,11,23,12.0,0.0
11226,48.0,2,30,13.0,0.0
11227,48.0,9,30,14.0,0.0
11228,88.0,3,23,10.0,0.0
11229,79.0,5,23,11.0,0.0
11230,67.0,41,23,12.0,0.0
11231,36.0,2,30,13.0,0.0
11232,36.0,58,30,14.0,0.0
11233,48.0,2,30,13.0,0.0
11234,48.0,39,30,14.0,0.0
11235,91.0,3,23,10.0,0.0
11236,91.0,0,30,0.0,0.0
11237,88.0,0,30,0.0,0.0
11238,60.0,1,45,6.0,0.0
11239,72.0,0,45,6.0,0.0
11240,70.0,4,45,4.0,0.0
11241,82.0,5,23,11.0,0.0
11242,79.0,0,30,1.0,0.0
11243,82.0,1,30,1.0,0.0
11244,70.0,4,30,2.0,0.0
11245,79.0,0,30,2.0,0.0
11246,67.0,1,45,5.0,0.0
11247,67.0,3,23,12.0,0.0
11248,58.0,0,30,3.0,0.0
11249,55.0,8,30,3.0,0.0
11250,36.0,2,120,13.0,0.0
11251,36.0,9,120,14.0,0.0
11252,48.0,8,60,15.0,0.0
11253,91.0,3,23,10.0,0.0
11254,82.0,5,23,11.0,0.0
11255,67.0,14,23,12.0,0.0
11256,91.0,3,23,10.0,0.0
11257,82.0,5,23,11.0,0.0
11258,70.0,22,23,12.0,0.0
11259,91.0,3,23,10.0,0.0
11260,82.0,5,23,11.0,0.0
11261,70.0,11,23,12.0,0.0
11262,82.0,3,23,10.0,0.0
11263,91.0,0,30,0.0,0.0
11264,88.0,0,30,0.0,0.0
11265,60.0,1,45,6.0,0.0
11266,72.0,0,45,6.0,0.0
11267,79.0,5,23,11.0,0.0
11268,70.0,4,45,4.0,0.0
11269,82.0,1,30,1.0,0.0
11270,79.0,0,30,1.0,0.0
11271,79.0,0,30,2.0,0.0
11272,70.0,4,30,2.0,0.0
11273,67.0,1,45,5.0,0.0
11274,67.0,3,23,12.0,0.0
11275,55.0,0,30,3.0,0.0
11276,58.0,8,30,3.0,0.0
11277,48.0,8,60,15.0,0.0
11278,82.0,3,23,10.0,0.0
11279,79.0,5,23,11.0,0.0
11280,67.0,14,23,12.0,0.0
11281,91.0,3,23,10.0,0.0
11282,82.0,5,23,11.0,0.0
11283,70.0,11,23,12.0,0.0
11284,48.0,2,30,13.0,0.0
11285,48.0,9,30,14.0,0.0
11286,91.0,3,23,10.0,0.0
11287,82.0,5,23,11.0,0.0
11288,70.0,41,23,12.0,0.0
11289,36.0,2,30,13.0,0.0
11290,36.0,58,30,14.0,0.0
11291,48.0,2,30,13.0,0.0
11292,48.0,39,30,14.0,0.0
11293,91.0,3,23,10.0,0.0
11294,91.0,3,60,0.0,0.0
11295,88.0,0,60,0.0,0.0
11296,60.0,0,45,6.0,0.0
11297,72.0,1,45,6.0,0.0
11298,67.0,4,45,4.0,0.0
11299,82.0,5,23,11.0,0.0
11300,82.0,1,60,1.0,0.0
11301,79.0,0,60,1.0,0.0
11302,70.0,0,60,2.0,0.0
11303,79.0,4,60,2.0,0.0
11304,60.0,1,45,5.0,0.0
11305,70.0,16,23,12.0,0.0
11306,48.0,3,60,3.0,0.0
11307,48.0,2,60,13.0,0.0
11308,36.0,1,60,14.0,0.0
11309,48.0,8,60,15.0,0.0
11310,91.0,3,23,10.0,0.0
11311,82.0,5,23,11.0,0.0
11312,70.0,0,23,12.0,0.0
11313,91.0,3,23,10.0,0.0
11314,82.0,5,23,11.0,0.0
11315,70.0,22,23,12.0,0.0
11316,50.0,3,60,3.0,0.0
11317,50.0,2,60,13.0,0.0
11318,38.0,9,60,14.0,0.0
11319,91.0,3,23,10.0,0.0
11320,82.0,5,23,11.0,0.0
11321,70.0,8,23,12.0,0.0
11322,82.0,3,23,10.0,0.0
11323,88.0,1,540,0.0,0.0
11324,91.0,0,540,0.0,0.0
11325,72.0,1,540,6.0,0.0
11326,60.0,0,540,6.0,0.0
11327,79.0,5,23,11.0,0.0
11328,67.0,1,540,4.0,0.0
11329,79.0,1,540,1.0,0.0
11330,82.0,0,540,1.0,0.0
11331,82.0,0,540,2.0,0.0
11332,79.0,2,540,2.0,0.0
11333,60.0,8,540,5.0,0.0
11334,67.0,22,23,12.0,0.0
11335,52.0,3,60,3.0,0.0
11336,52.0,2,60,13.0,0.0
11337,40.0,1,60,14.0,0.0
11338,82.0,3,23,10.0,0.0
11339,79.0,5,23,11.0,0.0
11340,67.0,8,23,12.0,0.0
11341,91.0,3,23,10.0,0.0
11342,82.0,5,23,11.0,0.0
11343,70.0,22,23,12.0,0.0
11344,53.0,3,60,3.0,0.0
11345,53.0,2,60,13.0,0.0
11346,41.0,1,60,14.0,0.0
11347,48.0,8,0,15.0,0.0
11348,91.0,3,23,10.0,0.0
11349,82.0,5,23,11.0,0.0
11350,70.0,8,23,12.0,0.0
11351,91.0,3,23,10.0,0.0
11352,82.0,5,23,11.0,0.0
11353,70.0,22,23,12.0,0.0
11354,55.0,3,60,3.0,0.0
11355,55.0,2,60,13.0,0.0
11356,43.0,1,60,14.0,0.0
11357,48.0,8,0,15.0,0.0
11358,91.0,3,23,10.0,0.0
11359,82.0,5,23,11.0,0.0
11360,70.0,8,23,12.0,0.0
11361,91.0,3,23,10.0,0.0
11362,82.0,5,23,11.0,0.0
11363,70.0,22,23,12.0,0.0
11364,57.0,3,60,3.0,0.0
11365,57.0,2,60,13.0,0.0
11366,45.0,1,60,14.0,0.0
11367,48.0,8,0,15.0,0.0
11368,91.0,3,23,10.0,0.0
11369,82.0,5,23,11.0,0.0
11370,70.0,8,23,12.0,0.0
11371,91.0,3,23,10.0,0.0
11372,82.0,5,23,11.0,0.0
11373,70.0,22,23,12.0,0.0
11374,58.0,3,60,3.0,0.0
11375,58.0,2,60,13.0,0.0
11376,46.0,1,60,14.0,0.0
11377,91.0,3,23,10.0,0.0
11378,82.0,5,23,11.0,0.0
11379,70.0,8,23,12.0,0.0
11380,91.0,3,23,10.0,0.0
11381,82.0,5,23,11.0,0.0
11382,70.0,22,23,12.0,0.0
11383,59.0,3,60,3.0,0.0
11384,59.0,2,60,13.0,0.0
11385,47.0,1,60,14.0,0.0
11386,48.0,8,0,15.0,0.0
11387,91.0,3,23,10.0,0.0
11388,82.0,5,23,11.0,0.0
11389,70.0,8,23,12.0,0.0
11390,91.0,3,23,10.0,0.0
11391,82.0,5,23,11.0,0.0
11392,70.0,8,23,12.0,0.0
11393,60.0,3,30,3.0,0.0
11394,60.0,2,30,13.0,0.0
11395,48.0,9,30,14.0,0.0
11396,48.0,8,0,15.0,0.0
11397,91.0,3,23,10.0,0.0
11398,82.0,5,23,11.0,0.0
11399,70.0,14,23,12.0,0.0
11400,91.0,3,23,10.0,0.0
11401,82.0,5,23,11.0,0.0
11402,70.0,8,23,12.0,0.0
11403,60.0,3,30,3.0,0.0
11404,60.0,2,30,13.0,0.0
11405,48.0,9,30,14.0,0.0
11406,48.0,8,60,15.0,0.0
11407,91.0,3,23,10.0,0.0
11408,82.0,5,23,11.0,0.0
11409,70.0,14,23,12.0,0.0
11410,91.0,3,23,10.0,0.0
11411,82.0,5,23,11.0,0.0
11412,70.0,8,23,12.0,0.0
11413,60.0,3,30,3.0,0.0
11414,60.0,2,30,13.0,0.0
11415,48.0,9,30,14.0,0.0
11416,91.0,3,23,10.0,0.0
11417,82.0,5,23,11.0,0.0
11418,70.0,0,23,12.0,0.0
11419,93.0,3,23,10.0,0.0
11420,89.0,0,55,0.0,0.0
11421,93.0,3,55,0.0,0.0
11422,60.0,0,60,6.0,0.0
11423,69.0,4,60,4.0,0.0
11424,81.0,0,23,11.0,0.0
11425,69.0,5,23,11.0,0.0
11426,77.0,0,55,1.0,0.0
11427,81.0,1,55,1.0,0.0
11428,77.0,0,55,2.0,0.0
11429,81.0,1,55,2.0,0.0
11430,65.0,8,60,5.0,0.0
11431,69.0,8,23,12.0,0.0
11432,60.0,3,30,3.0,0.0
11433,60.0,2,30,13.0,0.0
11434,48.0,9,30,14.0,0.0
11435,48.0,8,0,15.0,0.0
11436,93.0,3,23,10.0,0.0
11437,81.0,0,23,11.0,0.0
11438,69.0,0,23,11.0,0.0
11439,69.0,1,23,12.0,0.0
11440,93.0,3,23,10.0,0.0
11441,93.0,0,595,0.0,0.0
11442,89.0,0,595,0.0,0.0
11443,72.0,1,0,6.0,0.0
11444,69.0,4,600,4.0,0.0
11445,69.0,5,23,11.0,0.0
11446,81.0,0,23,11.0,0.0
11447,84.0,1,595,1.0,0.0
11448,81.0,0,595,1.0,0.0
11449,77.0,0,595,2.0,0.0
11450,81.0,1,595,2.0,0.0
11451,69.0,0,23,12.0,0.0
11452,65.0,14,23,12.0,0.0
11453,60.0,3,120,3.0,0.0
11454,60.0,2,120,13.0,0.0
11455,48.0,1,120,14.0,0.0
11456,48.0,8,0,15.0,0.0
11457,93.0,3,23,10.0,0.0
11458,81.0,0,23,11.0,0.0
11459,69.0,5,23,11.0,0.0
11460,69.0,14,23,12.0,0.0
11461,65.0,0,23,12.0,0.0
11462,48.0,8,0,15.0,0.0
11463,93.0,3,23,10.0,0.0
11464,81.0,0,23,11.0,0.0
11465,69.0,5,23,11.0,0.0
11466,65.0,0,23,12.0,0.0
11467,69.0,14,23,12.0,0.0
11468,48.0,8,30,15.0,0.0
11469,93.0,3,23,10.0,0.0
11470,81.0,5,23,11.0,0.0
11471,69.0,0,23,11.0,0.0
11472,69.0,8,23,12.0,0.0
11473,65.0,0,23,12.0,0.0
11474,48.0,8,30,15.0,0.0
11475,93.0,3,23,10.0,0.0
11476,69.0,0,23,11.0,0.0
11477,81.0,5,23,11.0,0.0
11478,69.0,22,23,12.0,0.0
11479,65.0,0,23,12.0,0.0
11480,57.0,3,60,3.0,0.0
11481,57.0,2,60,13.0,0.0
11482,45.0,9,60,14.0,0.0
11483,93.0,3,23,10.0,0.0
11484,69.0,5,23,11.0,0.0
11485,81.0,0,23,11.0,0.0
11486,69.0,8,23,12.0,0.0
11487,65.0,0,23,12.0,0.0
11488,93.0,3,23,10.0,0.0
11489,69.0,5,23,11.0,0.0
11490,81.0,0,23,11.0,0.0
11491,69.0,22,23,12.0,0.0
11492,65.0,0,23,12.0,0.0
11493,58.0,3,60,3.0,0.0
11494,58.0,2,60,13.0,0.0
11495,46.0,9,60,14.0,0.0
11496,93.0,3,23,10.0,0.0
11497,81.0,5,23,11.0,0.0
11498,69.0,0,23,11.0,0.0
11499,65.0,8,23,12.0,0.0
11500,69.0,0,23,12.0,0.0
11501,93.0,3,23,10.0,0.0
11502,81.0,0,23,11.0,0.0
11503,69.0,5,23,11.0,0.0
11504,69.0,0,23,12.0,0.0
11505,65.0,8,23,12.0,0.0
11506,60.0,3,30,3.0,0.0
11507,60.0,2,30,13.0,0.0
11508,48.0,9,30,14.0,0.0
11509,93.0,3,23,10.0,0.0
11510,69.0,0,23,11.0,0.0
11511,81.0,5,23,11.0,0.0
11512,65.0,22,23,12.0,0.0
11513,69.0,0,23,12.0,0.0
11514,93.0,3,23,10.0,0.0
11515,81.0,0,23,11.0,0.0
11516,69.0,5,23,11.0,0.0
11517,69.0,0,23,12.0,0.0
11518,65.0,8,23,12.0,0.0
11519,57.0,3,30,3.0,0.0
11520,57.0,2,30,13.0,0.0
11521,45.0,9,30,14.0,0.0
11522,93.0,3,23,10.0,0.0
11523,81.0,5,23,11.0,0.0
11524,69.0,0,23,11.0,0.0
11525,65.0,0,23,12.0,0.0
11526,69.0,1,23,12.0,0.0
11527,93.0,3,23,10.0,0.0
11528,60.0,0,0,6.0,0.0
11529,69.0,0,23,11.0,0.0
11530,81.0,5,23,11.0,0.0
11531,69.0,0,23,12.0,0.0
11532,65.0,22,23,12.0,0.0
11533,53.0,3,240,3.0,0.0
11534,53.0,2,240,13.0,0.0
11535,41.0,9,240,14.0,0.0
11536,93.0,3,23,10.0,0.0
11537,69.0,5,23,11.0,0.0
11538,81.0,0,23,11.0,0.0
11539,69.0,0,23,12.0,0.0
11540,65.0,22,23,12.0,0.0
11541,93.0,3,23,10.0,0.0
11542,69.0,0,23,11.0,0.0
11543,81.0,5,23,11.0,0.0
11544,69.0,0,23,12.0,0.0
11545,65.0,22,23,12.0,0.0
11546,93.0,3,23,10.0,0.0
11547,69.0,0,23,11.0,0.0
11548,81.0,5,23,11.0,0.0
11549,69.0,22,23,12.0,0.0
11550,65.0,0,23,12.0,0.0
11551,93.0,3,23,10.0,0.0
11552,81.0,5,23,11.0,0.0
11553,69.0,0,23,11.0,0.0
11554,69.0,22,23,12.0,0.0
11555,65.0,0,23,12.0,0.0
11556,93.0,3,23,10.0,0.0
11557,81.0,5,23,11.0,0.0
11558,69.0,0,23,11.0,0.0
11559,69.0,0,23,12.0,0.0
11560,65.0,22,23,12.0,0.0
11561,93.0,3,23,10.0,0.0
11562,81.0,0,23,11.0,0.0
11563,69.0,5,23,11.0,0.0
11564,65.0,22,23,12.0,0.0
11565,69.0,0,23,12.0,0.0
11566,93.0,3,23,10.0,0.0
11567,69.0,3,23,11.0,0.0
11568,81.0,0,23,11.0,0.0
11569,65.0,1,23,12.0,0.0
11570,69.0,0,23,12.0,0.0
11571,93.0,3,23,10.0,0.0
11572,84.0,0,115,0.0,0.0
11573,93.0,3,115,0.0,0.0
11574,72.0,1,0,6.0,0.0
11575,69.0,4,120,4.0,0.0
11576,69.0,0,23,11.0,0.0
11577,81.0,5,23,11.0,0.0
11578,81.0,0,115,1.0,0.0
11579,84.0,1,115,1.0,0.0
11580,81.0,1,115,2.0,0.0
11581,77.0,0,115,2.0,0.0
11582,65.0,2,0,5.0,0.0
11583,69.0,0,23,12.0,0.0
11584,65.0,8,23,12.0,0.0
11585,48.0,3,30,3.0,0.0
11586,48.0,2,30,13.0,0.0
11587,36.0,9,30,14.0,0.0
11588,48.0,8,120,15.0,0.0
11589,93.0,3,23,10.0,0.0
11590,81.0,5,23,11.0,0.0
11591,69.0,0,23,11.0,0.0
11592,65.0,22,23,12.0,0.0
11593,69.0,0,23,12.0,0.0
11594,93.0,3,23,10.0,0.0
11595,81.0,5,23,11.0,0.0
11596,69.0,0,23,11.0,0.0
11597,69.0,0,23,12.0,0.0
11598,65.0,8,23,12.0,0.0
11599,53.0,3,30,3.0,0.0
11600,53.0,2,30,13.0,0.0
11601,41.0,9,30,14.0,0.0
11602,93.0,3,23,10.0,0.0
11603,69.0,0,23,11.0,0.0
11604,81.0,0,23,11.0,0.0
11605,69.0,0,23,12.0,0.0
11606,65.0,1,23,12.0,0.0
11607,91.0,3,23,10.0,0.0
11608,84.0,3,235,0.0,0.0
11609,91.0,0,235,0.0,0.0
11610,60.0,1,0,6.0,0.0
11611,70.0,5,23,11.0,0.0
11612,70.0,4,240,4.0,0.0
11613,79.0,0,23,11.0,0.0
11614,79.0,1,235,1.0,0.0
11615,82.0,0,235,1.0,0.0
11616,70.0,0,235,2.0,0.0
11617,79.0,1,235,2.0,0.0
11618,67.0,16,240,5.0,0.0
11619,72.0,22,23,12.0,0.0
11620,53.0,3,60,3.0,0.0
11621,53.0,2,60,13.0,0.0
11622,41.0,9,60,14.0,0.0
11623,48.0,8,120,15.0,0.0
11624,91.0,3,23,10.0,0.0
11625,70.0,5,23,11.0,0.0
11626,79.0,0,23,11.0,0.0
11627,48.0,8,23,12.0,0.0
11628,60.0,0,23,12.0,0.0
11629,91.0,3,23,10.0,0.0
11630,70.0,0,23,11.0,0.0
11631,79.0,5,23,11.0,0.0
11632,48.0,0,23,12.0,0.0
11633,60.0,22,23,12.0,0.0
11634,52.0,3,55,3.0,0.0
11635,52.0,2,55,13.0,0.0
11636,40.0,6,55,14.0,0.0
11637,91.0,3,23,10.0,0.0
11638,79.0,5,23,11.0,0.0
11639,70.0,0,23,11.0,0.0
11640,60.0,3,23,12.0,0.0
11641,48.0,0,23,12.0,0.0
11642,91.0,3,23,10.0,0.0
11643,79.0,0,23,11.0,0.0
11644,70.0,5,23,11.0,0.0
11645,60.0,8,23,12.0,0.0
11646,48.0,0,23,12.0,0.0
11647,52.0,3,30,3.0,0.0
11648,52.0,2,30,13.0,0.0
11649,40.0,9,30,14.0,0.0
11650,91.0,3,23,10.0,0.0
11651,70.0,0,23,11.0,0.0
11652,79.0,5,23,11.0,0.0
11653,60.0,0,23,12.0,0.0
11654,48.0,22,23,12.0,0.0
11655,91.0,3,23,10.0,0.0
11656,79.0,0,23,11.0,0.0
11657,70.0,5,23,11.0,0.0
11658,48.0,0,23,12.0,0.0
11659,60.0,8,23,12.0,0.0
11660,53.0,3,30,3.0,0.0
11661,53.0,2,30,13.0,0.0
11662,41.0,9,30,14.0,0.0
11663,91.0,3,23,10.0,0.0
11664,70.0,0,23,11.0,0.0
11665,79.0,0,23,11.0,0.0
11666,60.0,1,23,12.0,0.0
11667,48.0,0,23,12.0,0.0
11668,89.0,3,23,10.0,0.0
11669,89.0,0,115,0.0,0.0
11670,84.0,0,115,0.0,0.0
11671,72.0,1,0,6.0,0.0
11672,69.0,0,23,11.0,0.0
11673,69.0,4,120,4.0,0.0
11674,77.0,5,23,11.0,0.0
11675,81.0,0,115,1.0,0.0
11676,77.0,1,115,1.0,0.0
11677,77.0,0,115,2.0,0.0
11678,69.0,1,115,2.0,0.0
11679,65.0,8,120,5.0,0.0
11680,48.0,0,23,12.0,0.0
11681,60.0,8,23,12.0,0.0
11682,55.0,3,30,3.0,0.0
11683,55.0,2,30,13.0,0.0
11684,43.0,9,30,14.0,0.0
11685,89.0,3,23,10.0,0.0
11686,77.0,0,23,11.0,0.0
11687,69.0,5,23,11.0,0.0
11688,48.0,22,23,12.0,0.0
11689,60.0,0,23,12.0,0.0
11690,89.0,3,23,10.0,0.0
11691,77.0,0,23,11.0,0.0
11692,69.0,5,23,11.0,0.0
11693,48.0,0,23,12.0,0.0
11694,60.0,8,23,12.0,0.0
11695,57.0,3,30,3.0,0.0
11696,57.0,2,30,13.0,0.0
11697,45.0,9,30,14.0,0.0
11698,89.0,3,23,10.0,0.0
11699,77.0,3,23,11.0,0.0
11700,69.0,0,23,11.0,0.0
11701,60.0,0,23,12.0,0.0
11702,48.0,1,23,12.0,0.0
11703,88.0,3,23,10.0,0.0
11704,84.0,3,355,0.0,0.0
11705,88.0,0,355,0.0,0.0
11706,72.0,1,0,6.0,0.0
11707,60.0,0,0,6.0,0.0
11708,67.0,4,360,4.0,0.0
11709,76.0,5,23,11.0,0.0
11710,67.0,0,23,11.0,0.0
11711,79.0,0,355,1.0,0.0
11712,76.0,1,355,1.0,0.0
11713,67.0,1,355,2.0,0.0
11714,76.0,0,355,2.0,0.0
11715,48.0,0,23,12.0,0.0
11716,60.0,22,23,12.0,0.0
11717,58.0,3,120,3.0,0.0
11718,58.0,2,120,13.0,0.0
11719,46.0,1,120,14.0,0.0
11720,48.0,8,0,15.0,0.0
11721,88.0,3,23,10.0,0.0
11722,67.0,5,23,11.0,0.0
11723,76.0,0,23,11.0,0.0
11724,60.0,0,23,12.0,0.0
11725,48.0,22,23,12.0,0.0
11726,88.0,3,23,10.0,0.0
11727,67.0,0,23,11.0,0.0
11728,76.0,5,23,11.0,0.0
11729,60.0,22,23,12.0,0.0
11730,48.0,0,23,12.0,0.0
11731,88.0,3,23,10.0,0.0
11732,76.0,0,23,11.0,0.0
11733,67.0,5,23,11.0,0.0
11734,60.0,0,23,12.0,0.0
11735,48.0,8,23,12.0,0.0
11736,88.0,3,23,10.0,0.0
11737,76.0,0,23,11.0,0.0
11738,67.0,5,23,11.0,0.0
11739,48.0,0,23,12.0,0.0
11740,60.0,22,23,12.0,0.0
11741,88.0,3,23,10.0,0.0
11742,67.0,0,23,11.0,0.0
11743,76.0,5,23,11.0,0.0
11744,60.0,22,23,12.0,0.0
11745,48.0,0,23,12.0,0.0
11746,88.0,3,23,10.0,0.0
11747,67.0,5,23,11.0,0.0
11748,76.0,0,23,11.0,0.0
11749,60.0,0,23,12.0,0.0
11750,48.0,22,23,12.0,0.0
11751,88.0,3,23,10.0,0.0
11752,76.0,5,23,11.0,0.0
11753,67.0,0,23,11.0,0.0
11754,60.0,0,23,12.0,0.0
11755,48.0,22,23,12.0,0.0
11756,88.0,3,23,10.0,0.0
11757,67.0,5,23,11.0,0.0
11758,76.0,0,23,11.0,0.0
11759,60.0,22,23,12.0,0.0
11760,48.0,0,23,12.0,0.0
11761,88.0,3,23,10.0,0.0
11762,76.0,5,23,11.0,0.0
11763,67.0,0,23,11.0,0.0
11764,48.0,0,23,12.0,0.0
11765,60.0,22,23,12.0,0.0
11766,88.0,3,23,10.0,0.0
11767,76.0,5,23,11.0,0.0
11768,67.0,0,23,11.0,0.0
11769,60.0,22,23,12.0,0.0
11770,48.0,0,23,12.0,0.0
11771,88.0,3,23,10.0,0.0
11772,76.0,0,23,11.0,0.0
11773,67.0,0,23,11.0,0.0
11774,60.0,1,23,12.0,0.0
11775,48.0,0,23,12.0,0.0
11776,91.0,3,23,10.0,0.0
11777,88.0,3,595,0.0,0.0
11778,91.0,0,595,0.0,0.0
11779,72.0,0,0,6.0,0.0
11780,60.0,1,0,6.0,0.0
11781,67.0,4,600,4.0,0.0
11782,70.0,5,23,11.0,0.0
11783,79.0,0,23,11.0,0.0
11784,84.0,0,595,1.0,0.0
11785,79.0,1,595,1.0,0.0
11786,79.0,1,595,2.0,0.0
11787,76.0,0,595,2.0,0.0
11788,60.0,16,0,5.0,0.0
11789,60.0,14,23,12.0,0.0
11790,48.0,0,23,12.0,0.0
11791,58.0,3,120,3.0,0.0
11792,58.0,2,120,13.0,0.0
11793,46.0,1,120,14.0,0.0
11794,48.0,8,30,15.0,0.0
11795,91.0,3,23,10.0,0.0
11796,70.0,0,23,11.0,0.0
11797,79.0,5,23,11.0,0.0
11798,60.0,14,23,12.0,0.0
11799,48.0,0,23,12.0,0.0
11800,48.0,8,30,15.0,0.0
11801,91.0,3,23,10.0,0.0
11802,70.0,5,23,11.0,0.0
11803,79.0,0,23,11.0,0.0
11804,48.0,0,23,12.0,0.0
11805,60.0,14,23,12.0,0.0
11806,48.0,8,30,15.0,0.0
11807,91.0,3,23,10.0,0.0
11808,79.0,5,23,11.0,0.0
11809,70.0,0,23,11.0,0.0
11810,48.0,0,23,12.0,0.0
11811,60.0,8,23,12.0,0.0
11812,48.0,8,30,15.0,0.0
11813,91.0,3,23,10.0,0.0
11814,79.0,0,23,11.0,0.0
11815,70.0,5,23,11.0,0.0
11816,48.0,0,23,12.0,0.0
11817,60.0,22,23,12.0,0.0
11818,55.0,3,60,3.0,0.0
11819,55.0,2,60,13.0,0.0
11820,43.0,9,60,14.0,0.0
11821,91.0,3,23,10.0,0.0
11822,70.0,5,23,11.0,0.0
11823,79.0,0,23,11.0,0.0
11824,48.0,0,23,12.0,0.0
11825,60.0,8,23,12.0,0.0
11826,91.0,3,23,10.0,0.0
11827,79.0,0,23,11.0,0.0
11828,70.0,5,23,11.0,0.0
11829,60.0,0,23,12.0,0.0
11830,48.0,22,23,12.0,0.0
11831,57.0,3,60,3.0,0.0
11832,57.0,2,60,13.0,0.0
11833,45.0,9,60,14.0,0.0
11834,91.0,3,23,10.0,0.0
11835,79.0,5,23,11.0,0.0
11836,70.0,0,23,11.0,0.0
11837,60.0,0,23,12.0,0.0
11838,48.0,8,23,12.0,0.0
11839,91.0,3,23,10.0,0.0
11840,79.0,0,23,11.0,0.0
11841,70.0,5,23,11.0,0.0
11842,60.0,0,23,12.0,0.0
11843,48.0,22,23,12.0,0.0
11844,58.0,3,60,3.0,0.0
11845,58.0,2,60,13.0,0.0
11846,46.0,9,60,14.0,0.0
11847,91.0,3,23,10.0,0.0
11848,70.0,0,23,11.0,0.0
11849,79.0,5,23,11.0,0.0
11850,48.0,8,23,12.0,0.0
11851,60.0,0,23,12.0,0.0
11852,91.0,3,23,10.0,0.0
11853,70.0,0,23,11.0,0.0
11854,79.0,5,23,11.0,0.0
11855,60.0,0,23,12.0,0.0
11856,48.0,22,23,12.0,0.0
11857,59.0,3,55,3.0,0.0
11858,59.0,2,55,13.0,0.0
11859,47.0,14,55,14.0,0.0
11860,91.0,3,23,10.0,0.0
11861,70.0,5,23,11.0,0.0
11862,79.0,0,23,11.0,0.0
11863,60.0,1,23,12.0,0.0
11864,48.0,0,23,12.0,0.0
11865,91.0,3,23,10.0,0.0
11866,72.0,2,0,6.0,0.0
11867,60.0,1,240,6.0,0.0
11868,79.0,0,23,11.0,0.0
11869,70.0,5,23,11.0,0.0
11870,48.0,22,23,12.0,0.0
11871,60.0,0,23,12.0,0.0
11872,60.0,3,240,3.0,0.0
11873,60.0,2,240,13.0,0.0
11874,48.0,9,240,14.0,0.0
11875,91.0,3,23,10.0,0.0
11876,70.0,5,23,11.0,0.0
11877,79.0,0,23,11.0,0.0
11878,60.0,22,23,12.0,0.0
11879,48.0,0,23,12.0,0.0
11880,91.0,3,23,10.0,0.0
11881,79.0,5,23,11.0,0.0
11882,70.0,0,23,11.0,0.0
11883,48.0,22,23,12.0,0.0
11884,60.0,0,23,12.0,0.0
11885,91.0,3,23,10.0,0.0
11886,79.0,0,23,11.0,0.0
11887,70.0,5,23,11.0,0.0
11888,60.0,22,23,12.0,0.0
11889,48.0,0,23,12.0,0.0
11890,91.0,3,23,10.0,0.0
11891,70.0,5,23,11.0,0.0
11892,79.0,0,23,11.0,0.0
11893,60.0,22,23,12.0,0.0
11894,48.0,0,23,12.0,0.0
11895,91.0,3,23,10.0,0.0
11896,79.0,0,23,11.0,0.0
11897,70.0,5,23,11.0,0.0
11898,48.0,22,23,12.0,0.0
11899,60.0,0,23,12.0,0.0
11900,91.0,3,23,10.0,0.0
11901,70.0,5,23,11.0,0.0
11902,79.0,0,23,11.0,0.0
11903,48.0,0,23,12.0,0.0
11904,60.0,22,23,12.0,0.0
11905,91.0,3,23,10.0,0.0
11906,79.0,0,23,11.0,0.0
11907,70.0,0,23,11.0,0.0
11908,48.0,1,23,12.0,0.0
11909,60.0,0,23,12.0,0.0
11910,91.0,3,23,10.0,0.0
11911,88.0,0,115,0.0,0.0
11912,91.0,0,115,0.0,0.0
11913,67.0,4,120,4.0,0.0
11914,79.0,0,23,11.0,0.0
11915,70.0,5,23,11.0,0.0
11916,84.0,0,115,1.0,0.0
11917,79.0,1,115,1.0,0.0
11918,76.0,0,115,2.0,0.0
11919,79.0,1,115,2.0,0.0
11920,60.0,2,120,5.0,0.0
11921,60.0,0,23,12.0,0.0
11922,48.0,22,23,12.0,0.0
11923,58.0,3,120,3.0,0.0
11924,58.0,2,120,13.0,0.0
11925,46.0,1,120,14.0,0.0
11926,48.0,8,120,15.0,0.0
11927,91.0,3,23,10.0,0.0
11928,70.0,5,23,11.0,0.0
11929,79.0,0,23,11.0,0.0
11930,60.0,0,23,12.0,0.0
11931,48.0,22,23,12.0,0.0
11932,91.0,3,23,10.0,0.0
11933,70.0,5,23,11.0,0.0
11934,79.0,0,23,11.0,0.0
11935,60.0,0,23,12.0,0.0
11936,48.0,22,23,12.0,0.0
11937,91.0,3,23,10.0,0.0
11938,79.0,3,23,11.0,0.0
11939,70.0,0,23,11.0,0.0
11940,48.0,1,23,12.0,0.0
11941,60.0,0,23,12.0,0.0
11942,93.0,3,23,10.0,0.0
11943,93.0,3,235,0.0,0.0
11944,89.0,0,235,0.0,0.0
11945,72.0,1,0,6.0,0.0
11946,60.0,0,0,6.0,0.0
11947,69.0,4,240,4.0,0.0
11948,72.0,5,23,11.0,0.0
11949,81.0,0,23,11.0,0.0
11950,84.0,0,235,1.0,0.0
11951,81.0,1,235,1.0,0.0
11952,77.0,0,235,2.0,0.0
11953,81.0,1,235,2.0,0.0
11954,65.0,16,240,5.0,0.0
11955,60.0,0,23,12.0,0.0
11956,48.0,8,23,12.0,0.0
11957,57.0,3,30,3.0,0.0
11958,57.0,2,30,13.0,0.0
11959,45.0,9,30,14.0,0.0
11960,48.0,8,120,15.0,0.0
11961,93.0,3,23,10.0,0.0
11962,81.0,0,23,11.0,0.0
11963,72.0,5,23,11.0,0.0
11964,48.0,8,23,12.0,0.0
11965,60.0,0,23,12.0,0.0
11966,60.0,3,30,3.0,0.0
11967,60.0,2,30,13.0,0.0
11968,48.0,9,30,14.0,0.0
11969,93.0,3,23,10.0,0.0
11970,72.0,5,23,11.0,0.0
11971,81.0,0,23,11.0,0.0
11972,60.0,0,23,12.0,0.0
11973,48.0,22,23,12.0,0.0
11974,93.0,3,23,10.0,0.0
11975,81.0,5,23,11.0,0.0
11976,72.0,0,23,11.0,0.0
11977,48.0,14,23,12.0,0.0
11978,60.0,0,23,12.0,0.0
11979,93.0,3,23,10.0,0.0
11980,72.0,5,23,11.0,0.0
11981,81.0,0,23,11.0,0.0
11982,60.0,22,23,12.0,0.0
11983,48.0,0,23,12.0,0.0
11984,53.0,3,60,3.0,0.0
11985,53.0,2,60,13.0,0.0
11986,41.0,9,60,14.0,0.0
11987,93.0,3,23,10.0,0.0
11988,72.0,5,23,11.0,0.0
11989,81.0,0,23,11.0,0.0
11990,48.0,8,23,12.0,0.0
11991,60.0,0,23,12.0,0.0
11992,93.0,3,23,10.0,0.0
11993,72.0,5,23,11.0,0.0
11994,81.0,0,23,11.0,0.0
11995,60.0,0,23,12.0,0.0
11996,48.0,22,23,12.0,0.0
11997,93.0,3,23,10.0,0.0
11998,72.0,0,23,11.0,0.0
11999,81.0,0,23,11.0,0.0
12000,60.0,1,23,12.0,0.0
12001,48.0,0,23,12.0,0.0
12002,91.0,3,23,10.0,0.0
12003,91.0,0,115,0.0,0.0
12004,88.0,3,115,0.0,0.0
12005,72.0,1,0,6.0,0.0
12006,60.0,0,0,6.0,0.0
12007,72.0,5,23,11.0,0.0
12008,79.0,0,23,11.0,0.0
12009,67.0,4,120,4.0,0.0
12010,84.0,0,115,1.0,0.0
12011,79.0,1,115,1.0,0.0
12012,76.0,0,115,2.0,0.0
12013,79.0,1,115,2.0,0.0
12014,60.0,8,120,5.0,0.0
12015,48.0,0,23,12.0,0.0
12016,60.0,8,23,12.0,0.0
12017,57.0,3,30,3.0,0.0
12018,57.0,2,30,13.0,0.0
12019,45.0,9,30,14.0,0.0
12020,48.0,45,120,15.0,0.0
12021,91.0,3,23,10.0,0.0
12022,72.0,5,23,11.0,0.0
12023,79.0,0,23,11.0,0.0
12024,48.0,0,23,12.0,0.0
12025,60.0,8,23,12.0,0.0
12026,55.0,3,30,3.0,0.0
12027,55.0,2,30,13.0,0.0
12028,43.0,9,30,14.0,0.0
12029,91.0,3,23,10.0,0.0
12030,72.0,0,23,11.0,0.0
12031,79.0,5,23,11.0,0.0
12032,60.0,22,23,12.0,0.0
12033,48.0,0,23,12.0,0.0
12034,91.0,3,23,10.0,0.0
12035,79.0,0,23,11.0,0.0
12036,72.0,0,23,11.0,0.0
12037,60.0,0,23,12.0,0.0
12038,48.0,1,23,12.0,0.0
12039,93.0,1,60,10.0,0.0
12040,93.0,0,60,0.0,0.0
12041,89.0,2,60,0.0,0.0
12042,65.0,13,120,6.0,0.0
12043,72.0,0,60,11.0,0.0
12044,69.0,1,60,4.0,0.0
12045,81.0,0,60,11.0,0.0
12046,84.0,0,60,1.0,0.0
12047,81.0,1,60,1.0,0.0
12048,77.0,2,60,2.0,0.0
12049,81.0,0,60,2.0,0.0
12050,65.0,1,60,5.0,0.0
12051,57.0,1,60,12.0,0.0
12052,53.0,3,60,3.0,0.0
12053,53.0,2,60,13.0,0.0
12054,41.0,48,60,14.0,0.0
12055,41.0,84,120,15.0,0.0
12056,84.0,2,98,0.0,0.0
12057,60.0,2,98,4.0,0.0
12058,72.0,2,98,2.0,0.0
12059,48.0,2,98,5.0,0.0
12060,57.0,112,98,3.0,0.0
12061,53.0,0,98,3.0,0.0
12062,84.0,2,98,0.0,0.0
12063,60.0,2,98,4.0,0.0
12064,72.0,2,98,2.0,0.0
12065,48.0,2,98,5.0,0.0
12066,53.0,134,98,3.0,0.0
12067,57.0,0,98,3.0,0.0
12068,84.0,4,120,0.0,0.0
12069,60.0,4,480,4.0,0.0
12070,72.0,56,120,2.0,0.0
12071,48.0,8,480,5.0,0.0
12072,53.0,22,600,3.0,0.0
12073,57.0,0,600,3.0,0.0
12074,81.0,4,60,0.0,0.0
12075,69.0,56,60,2.0,0.0
12076,41.0,16,120,15.0,0.0
12077,82.0,4,60,0.0,0.0
12078,70.0,10,60,2.0,0.0
12079,84.0,4,30,0.0,0.0
12080,72.0,56,30,2.0,0.0
12081,41.0,108,120,15.0,0.0
12082,81.0,4,30,0.0,0.0
12083,69.0,40,30,2.0,0.0
12084,77.0,2,240,0.0,0.0
12085,65.0,2,240,2.0,0.0
12086,41.0,106,120,15.0,0.0
12087,65.0,2,120,4.0,0.0
12088,53.0,2,120,5.0,0.0
12089,72.0,4,30,0.0,0.0
12090,69.0,4,120,4.0,0.0
12091,60.0,4,30,2.0,0.0
12092,57.0,54,120,5.0,0.0
12093,48.0,52,30,3.0,0.0
12094,77.0,4,30,0.0,0.0
12095,65.0,4,30,2.0,0.0
12096,53.0,24,30,3.0,0.0
12097,77.0,4,60,0.0,0.0
12098,72.0,1,480,4.0,0.0
12099,82.0,27,180,1.0,0.0
12100,65.0,4,60,2.0,0.0
12101,60.0,2,480,5.0,0.0
12102,53.0,52,60,3.0,0.0
12103,64.0,4,60,2.0,0.0
12104,52.0,22,60,3.0,0.0
12105,76.0,4,0,0.0,0.0
12106,60.0,0,30,2.0,0.0
12107,64.0,4,30,2.0,0.0
12108,52.0,0,30,3.0,0.0
12109,48.0,25,30,3.0,0.0
12110,77.0,4,30,0.0,0.0
12111,81.0,11,60,1.0,0.0
12112,65.0,4,30,2.0,0.0
12113,62.0,0,30,2.0,0.0
12114,53.0,0,30,3.0,0.0
12115,50.0,25,30,3.0,0.0
12116,79.0,3,30,0.0,0.0
12117,79.0,1,30,1.0,0.0
12118,64.0,4,30,2.0,0.0
12119,67.0,0,30,2.0,0.0
12120,55.0,52,30,3.0,0.0
12121,52.0,0,30,3.0,0.0
12122,41.0,16,0,15.0,0.0
12123,81.0,3,30,0.0,0.0
12124,77.0,1,30,1.0,0.0
12125,65.0,0,30,2.0,0.0
12126,69.0,4,30,2.0,0.0
12127,57.0,0,30,3.0,0.0
12128,53.0,36,30,3.0,0.0
12129,72.0,3,23,10.0,0.0
12130,79.0,0,120,0.0,0.0
12131,82.0,2,120,0.0,0.0
12132,60.0,5,23,11.0,0.0
12133,76.0,1,120,1.0,0.0
12134,70.0,0,120,1.0,0.0
12135,70.0,2,120,2.0,0.0
12136,67.0,0,120,2.0,0.0
12137,60.0,11,23,12.0,0.0
12138,55.0,0,120,3.0,0.0
12139,58.0,6,120,3.0,0.0
12140,58.0,2,30,13.0,0.0
12141,46.0,9,30,14.0,0.0
12142,41.0,8,120,15.0,0.0
12143,72.0,3,23,10.0,0.0
12144,60.0,5,23,11.0,0.0
12145,60.0,22,23,12.0,0.0
12146,74.0,3,23,10.0,0.0
12147,62.0,5,23,11.0,0.0
12148,60.0,11,23,12.0,0.0
12149,57.0,2,30,13.0,0.0
12150,45.0,9,30,14.0,0.0
12151,74.0,3,23,10.0,0.0
12152,62.0,5,23,11.0,0.0
12153,60.0,0,23,12.0,0.0
12154,76.0,3,23,10.0,0.0
12155,64.0,5,23,11.0,0.0
12156,58.0,11,23,12.0,0.0
12157,55.0,2,30,13.0,0.0
12158,43.0,9,30,14.0,0.0
12159,76.0,3,23,10.0,0.0
12160,64.0,5,23,11.0,0.0
12161,58.0,22,23,12.0,0.0
12162,77.0,3,23,10.0,0.0
12163,65.0,5,23,11.0,0.0
12164,57.0,11,23,12.0,0.0
12165,53.0,2,30,13.0,0.0
12166,41.0,9,30,14.0,0.0
12167,77.0,3,23,10.0,0.0
12168,65.0,5,23,11.0,0.0
12169,57.0,22,23,12.0,0.0
12170,79.0,3,23,10.0,0.0
12171,67.0,5,23,11.0,0.0
12172,55.0,11,23,12.0,0.0
12173,52.0,2,30,13.0,0.0
12174,40.0,9,30,14.0,0.0
12175,79.0,3,23,10.0,0.0
12176,67.0,5,23,11.0,0.0
12177,55.0,22,23,12.0,0.0
12178,81.0,3,23,10.0,0.0
12179,69.0,5,23,11.0,0.0
12180,53.0,11,23,12.0,0.0
12181,50.0,2,30,13.0,0.0
12182,38.0,9,30,14.0,0.0
12183,81.0,3,23,10.0,0.0
12184,69.0,5,23,11.0,0.0
12185,53.0,59,23,12.0,0.0
12186,82.0,3,60,10.0,0.0
12187,64.0,0,60,10.0,0.0
12188,72.0,0,60,10.0,0.0
12189,82.0,4,120,0.0,0.0
12190,60.0,4,475,4.0,0.0
12191,79.0,0,60,11.0,0.0
12192,70.0,5,60,11.0,0.0
12193,67.0,0,120,2.0,0.0
12194,70.0,56,120,2.0,0.0
12195,48.0,2,475,5.0,0.0
12196,52.0,4,60,12.0,0.0
12197,55.0,6,480,3.0,0.0
12198,52.0,0,480,3.0,0.0
12199,48.0,2,60,13.0,0.0
12200,36.0,47,60,14.0,0.0
12201,79.0,60,60,0.0,0.0
12202,67.0,4,360,2.0,0.0
12203,48.0,46,120,15.0,0.0
12204,81.0,4,60,0.0,0.0
12205,69.0,10,60,2.0,0.0
12206,82.0,4,60,0.0,0.0
12207,70.0,56,60,2.0,0.0
12208,48.0,103,120,15.0,0.0
12209,83.0,4,60,0.0,0.0
12210,71.0,10,60,2.0,0.0
12211,84.0,1,240,0.0,0.0
12212,79.0,1,120,1.0,0.0
12213,72.0,0,240,2.0,0.0
12214,48.0,49,120,15.0,0.0
12215,60.0,3,115,4.0,0.0
12216,77.0,54,60,1.0,0.0
12217,65.0,4,120,2.0,0.0
12218,48.0,2,115,5.0,0.0
12219,50.0,0,120,3.0,0.0
12220,53.0,55,120,3.0,0.0
12221,76.0,1,60,1.0,0.0
12222,82.0,1,120,0.0,0.0
12223,60.0,1,115,4.0,0.0
12224,74.0,54,60,1.0,0.0
12225,67.0,1,115,2.0,0.0
12226,70.0,0,115,2.0,0.0
12227,48.0,2,115,5.0,0.0
12228,52.0,0,115,3.0,0.0
12229,55.0,57,115,3.0,0.0
12230,72.0,1,55,1.0,0.0
12231,81.0,4,60,0.0,0.0
12232,60.0,2,235,4.0,0.0
12233,72.0,1,115,1.0,0.0
12234,65.0,9,115,2.0,0.0
12235,69.0,4,60,2.0,0.0
12236,48.0,2,235,5.0,0.0
12237,53.0,0,120,3.0,0.0
12238,57.0,47,60,3.0,0.0
12239,84.0,3,55,0.0,0.0
12240,72.0,0,55,2.0,0.0
12241,60.0,109,60,3.0,0.0
12242,77.0,1,120,0.0,0.0
12243,72.0,1,120,1.0,0.0
12244,65.0,4,120,2.0,0.0
12245,60.0,1,115,2.0,0.0
12246,53.0,6,120,3.0,0.0
12247,79.0,2,115,0.0,0.0
12248,60.0,1,115,4.0,0.0
12249,76.0,1,115,1.0,0.0
12250,64.0,0,115,2.0,0.0
12251,67.0,2,115,2.0,0.0
12252,48.0,2,115,5.0,0.0
12253,52.0,0,115,3.0,0.0
12254,55.0,11,115,3.0,0.0
12255,48.0,101,0,15.0,0.0
12256,79.0,1,240,0.0,0.0
12257,60.0,3,235,4.0,0.0
12258,76.0,1,240,1.0,0.0
12259,64.0,4,240,2.0,0.0
12260,67.0,0,240,2.0,0.0
12261,48.0,2,235,5.0,0.0
12262,52.0,0,240,3.0,0.0
12263,55.0,6,240,3.0,0.0
12264,48.0,106,120,15.0,0.0
12265,81.0,2,120,0.0,0.0
12266,65.0,1,120,4.0,0.0
12267,77.0,1,120,1.0,0.0
12268,65.0,0,120,2.0,0.0
12269,69.0,2,120,2.0,0.0
12270,53.0,2,120,5.0,0.0
12271,53.0,6,120,3.0,0.0
12272,57.0,0,120,3.0,0.0
12273,41.0,117,120,15.0,0.0
12274,55.0,79,480,3.0,0.0
12275,46.0,2,120,13.0,0.0
12276,34.0,58,120,14.0,0.0
12277,55.0,35,85,12.0,0.0
12278,43.0,2,60,13.0,0.0
12279,31.0,19,60,14.0,0.0
12280,45.0,2,60,13.0,0.0
12281,33.0,54,60,14.0,0.0
12282,55.0,4,30,12.0,0.0
12283,53.0,4,60,12.0,0.0
12284,46.0,2,60,13.0,0.0
12285,34.0,49,60,14.0,0.0
12286,52.0,9,55,12.0,0.0
12287,47.0,2,60,13.0,0.0
12288,35.0,114,60,14.0,0.0
12289,60.0,4,480,4.0,0.0
12290,48.0,1,480,5.0,0.0
12291,52.0,1,120,12.0,0.0
12292,48.0,2,240,13.0,0.0
12293,36.0,49,240,14.0,0.0
12294,64.0,35,85,11.0,0.0
12295,53.0,4,120,12.0,0.0
12296,64.0,5,30,11.0,0.0
12297,62.0,55,60,11.0,0.0
12298,55.0,9,115,12.0,0.0
12299,46.0,2,120,13.0,0.0
12300,34.0,58,120,14.0,0.0
12301,60.0,5,55,11.0,0.0
12302,84.0,4,210,0.0,0.0
12303,60.0,0,120,11.0,0.0
12304,72.0,1,360,1.0,0.0
12305,60.0,0,360,2.0,0.0
12306,72.0,25,210,2.0,0.0
12307,48.0,4,120,12.0,0.0
12308,45.0,2,60,13.0,0.0
12309,33.0,49,60,14.0,0.0
12310,48.0,2,60,13.0,0.0
12311,36.0,76,60,14.0,0.0
12312,72.0,1,90,10.0,0.0
12313,62.0,2,120,11.0,0.0
12314,50.0,4,120,12.0,0.0
12315,41.0,2,120,13.0,0.0
12316,29.0,46,120,14.0,0.0
12317,74.0,1,30,10.0,0.0
12318,86.0,2,30,0.0,0.0
12319,74.0,3,30,2.0,0.0
12320,72.0,1,60,10.0,0.0
12321,84.0,4,60,0.0,0.0
12322,64.0,3,115,11.0,0.0
12323,72.0,7,60,2.0,0.0
12324,52.0,1,115,12.0,0.0
12325,45.0,2,60,13.0,0.0
12326,33.0,41,60,14.0,0.0
12327,70.0,3,55,10.0,0.0
12328,82.0,2,60,0.0,0.0
12329,70.0,7,60,2.0,0.0
12330,43.0,2,60,13.0,0.0
12331,31.0,12,60,14.0,0.0
12332,69.0,1,240,10.0,0.0
12333,77.0,0,120,0.0,0.0
12334,81.0,1,120,0.0,0.0
12335,65.0,0,120,6.0,0.0
12336,77.0,1,120,6.0,0.0
12337,65.0,5,23,11.0,0.0
12338,65.0,1,120,4.0,0.0
12339,81.0,0,120,1.0,0.0
12340,77.0,1,120,1.0,0.0
12341,69.0,0,120,2.0,0.0
12342,77.0,2,120,2.0,0.0
12343,53.0,2,120,5.0,0.0
12344,53.0,25,23,12.0,0.0
12345,57.0,0,120,3.0,0.0
12346,53.0,6,120,3.0,0.0
12347,41.0,2,355,13.0,0.0
12348,29.0,17,355,14.0,0.0
12349,41.0,11,120,15.0,0.0
12350,65.0,5,23,11.0,0.0
12351,53.0,25,23,12.0,0.0
12352,69.0,5,23,11.0,0.0
12353,57.0,25,23,12.0,0.0
12354,69.0,5,23,11.0,0.0
12355,57.0,0,23,12.0,0.0
12356,65.0,5,23,11.0,0.0
12357,53.0,25,23,12.0,0.0
12358,65.0,5,23,11.0,0.0
12359,53.0,25,23,12.0,0.0
12360,69.0,4,23,11.0,0.0
12361,57.0,25,23,12.0,0.0
12362,81.0,1,0,10.0,0.0
12363,69.0,4,23,11.0,0.0
12364,57.0,25,23,12.0,0.0
12365,79.0,1,60,10.0,0.0
12366,65.0,5,23,11.0,0.0
12367,53.0,25,23,12.0,0.0
12368,65.0,4,23,11.0,0.0
12369,53.0,25,23,12.0,0.0
12370,77.0,6,50,10.0,0.0
12371,69.0,5,23,11.0,0.0
12372,57.0,19,23,12.0,0.0
12373,69.0,5,23,11.0,0.0
12374,57.0,6,23,12.0,0.0
12375,77.0,1,480,10.0,0.0
12376,65.0,5,23,11.0,0.0
12377,53.0,25,23,12.0,0.0
12378,45.0,2,325,13.0,0.0
12379,33.0,17,325,14.0,0.0
12380,65.0,5,23,11.0,0.0
12381,53.0,25,23,12.0,0.0
12382,72.0,5,23,11.0,0.0
12383,60.0,25,23,12.0,0.0
12384,72.0,5,23,11.0,0.0
12385,60.0,25,23,12.0,0.0
12386,65.0,5,23,11.0,0.0
12387,53.0,25,23,12.0,0.0
12388,65.0,5,23,11.0,0.0
12389,53.0,25,23,12.0,0.0
12390,72.0,5,23,11.0,0.0
12391,60.0,25,23,12.0,0.0
12392,72.0,5,23,11.0,0.0
12393,60.0,25,23,12.0,0.0
12394,65.0,5,23,11.0,0.0
12395,53.0,25,23,12.0,0.0
12396,65.0,5,23,11.0,0.0
12397,53.0,25,23,12.0,0.0
12398,72.0,5,23,11.0,0.0
12399,60.0,6,23,12.0,0.0
12400,89.0,0,30,0.0,0.0
12401,84.0,1,30,0.0,0.0
12402,77.0,0,30,6.0,0.0
12403,72.0,5,23,11.0,0.0
12404,72.0,0,30,1.0,0.0
12405,81.0,1,30,1.0,0.0
12406,69.0,2,30,2.0,0.0
12407,72.0,0,30,2.0,0.0
12408,53.0,2,30,5.0,0.0
12409,60.0,0,23,12.0,0.0
12410,57.0,6,30,3.0,0.0
12411,60.0,0,30,3.0,0.0
12412,41.0,0,23,13.0,0.0
12413,29.0,0,23,14.0,0.0
12414,86.0,1,120,0.0,0.0
12415,89.0,0,120,0.0,0.0
12416,65.0,1,0,6.0,0.0
12417,77.0,0,120,6.0,0.0
12418,65.0,1,0,4.0,0.0
12419,65.0,5,23,11.0,0.0
12420,82.0,0,120,1.0,0.0
12421,74.0,1,120,1.0,0.0
12422,70.0,0,120,2.0,0.0
12423,74.0,2,120,2.0,0.0
12424,53.0,2,120,5.0,0.0
12425,53.0,25,23,12.0,0.0
12426,62.0,0,120,3.0,0.0
12427,58.0,6,120,3.0,0.0
12428,41.0,2,355,13.0,0.0
12429,29.0,17,355,14.0,0.0
12430,41.0,11,0,15.0,0.0
12431,65.0,5,23,11.0,0.0
12432,53.0,25,23,12.0,0.0
12433,74.0,5,23,11.0,0.0
12434,62.0,25,23,12.0,0.0
12435,74.0,4,23,11.0,0.0
12436,62.0,0,23,12.0,0.0
12437,82.0,1,90,10.0,0.0
12438,65.0,5,23,11.0,0.0
12439,53.0,25,23,12.0,0.0
12440,65.0,5,23,11.0,0.0
12441,53.0,25,23,12.0,0.0
12442,74.0,4,23,11.0,0.0
12443,62.0,25,23,12.0,0.0
12444,81.0,1,30,10.0,0.0
12445,74.0,4,23,11.0,0.0
12446,62.0,25,23,12.0,0.0
12447,79.0,1,60,10.0,0.0
12448,65.0,5,23,11.0,0.0
12449,53.0,25,23,12.0,0.0
12450,65.0,4,23,11.0,0.0
12451,53.0,25,23,12.0,0.0
12452,77.0,6,50,10.0,0.0
12453,74.0,5,23,11.0,0.0
12454,62.0,19,23,12.0,0.0
12455,74.0,5,23,11.0,0.0
12456,62.0,6,23,12.0,0.0
12457,77.0,1,480,10.0,0.0
12458,65.0,5,23,11.0,0.0
12459,53.0,25,23,12.0,0.0
12460,46.0,2,325,13.0,0.0
12461,34.0,17,325,14.0,0.0
12462,65.0,5,23,11.0,0.0
12463,53.0,25,23,12.0,0.0
12464,74.0,5,23,11.0,0.0
12465,62.0,25,23,12.0,0.0
12466,74.0,5,23,11.0,0.0
12467,62.0,25,23,12.0,0.0
12468,65.0,5,23,11.0,0.0
12469,53.0,25,23,12.0,0.0
12470,65.0,5,23,11.0,0.0
12471,53.0,25,23,12.0,0.0
12472,74.0,5,23,11.0,0.0
12473,62.0,25,23,12.0,0.0
12474,74.0,5,23,11.0,0.0
12475,62.0,25,23,12.0,0.0
12476,65.0,5,23,11.0,0.0
12477,53.0,25,23,12.0,0.0
12478,65.0,5,23,11.0,0.0
12479,53.0,25,23,12.0,0.0
12480,74.0,5,23,11.0,0.0
12481,62.0,6,23,12.0,0.0
12482,86.0,0,30,0.0,0.0
12483,89.0,0,30,0.0,0.0
12484,77.0,0,30,6.0,0.0
12485,74.0,5,23,11.0,0.0
12486,82.0,1,30,1.0,0.0
12487,74.0,0,30,1.0,0.0
12488,70.0,0,30,2.0,0.0
12489,65.0,0,30,5.0,0.0
12490,62.0,1,23,12.0,0.0
12491,58.0,0,30,3.0,0.0
12492,41.0,2,23,13.0,0.0
12493,29.0,2,23,14.0,0.0
12494,89.0,0,120,0.0,0.0
12495,86.0,1,120,0.0,0.0
12496,65.0,1,0,6.0,0.0
12497,77.0,2,120,6.0,0.0
12498,65.0,5,23,11.0,0.0
12499,67.0,1,0,4.0,0.0
12500,74.0,1,120,1.0,0.0
12501,83.0,0,120,1.0,0.0
12502,71.0,0,120,2.0,0.0
12503,74.0,0,0,2.0,0.0
12504,65.0,2,720,5.0,0.0
12505,53.0,25,23,12.0,0.0
12506,62.0,6,0,3.0,0.0
12507,59.0,0,120,3.0,0.0
12508,41.0,2,355,13.0,0.0
12509,29.0,0,355,14.0,0.0
12510,41.0,11,0,15.0,0.0
12511,65.0,5,23,11.0,0.0
12512,53.0,25,23,12.0,0.0
12513,71.0,5,23,11.0,0.0
12514,59.0,25,23,12.0,0.0
12515,71.0,4,23,11.0,0.0
12516,59.0,0,23,12.0,0.0
12517,86.0,6,80,10.0,0.0
12518,65.0,5,23,11.0,0.0
12519,53.0,25,23,12.0,0.0
12520,65.0,5,23,11.0,0.0
12521,53.0,19,23,12.0,0.0
12522,71.0,5,23,11.0,0.0
12523,59.0,25,23,12.0,0.0
12524,81.0,1,30,10.0,0.0
12525,71.0,4,23,11.0,0.0
12526,59.0,25,23,12.0,0.0
12527,79.0,1,60,10.0,0.0
12528,65.0,5,23,11.0,0.0
12529,53.0,25,23,12.0,0.0
12530,65.0,4,23,11.0,0.0
12531,53.0,25,23,12.0,0.0
12532,77.0,1,180,10.0,0.0
12533,71.0,5,23,11.0,0.0
12534,59.0,25,23,12.0,0.0
12535,89.0,0,30,0.0,0.0
12536,77.0,0,30,6.0,0.0
12537,65.0,2,30,6.0,0.0
12538,71.0,5,23,11.0,0.0
12539,74.0,1,30,1.0,0.0
12540,83.0,0,30,1.0,0.0
12541,74.0,0,30,2.0,0.0
12542,71.0,2,30,2.0,0.0
12543,59.0,0,23,12.0,0.0
12544,41.0,11,30,15.0,0.0
12545,86.0,1,0,0.0,0.0
12546,89.0,0,120,0.0,0.0
12547,77.0,2,120,6.0,0.0
12548,65.0,0,120,6.0,0.0
12549,65.0,5,23,11.0,0.0
12550,83.0,1,120,1.0,0.0
12551,74.0,0,120,1.0,0.0
12552,71.0,4,120,2.0,0.0
12553,74.0,0,120,2.0,0.0
12554,53.0,25,23,12.0,0.0
12555,59.0,6,0,3.0,0.0
12556,62.0,0,0,3.0,0.0
12557,50.0,2,325,13.0,0.0
12558,38.0,17,325,14.0,0.0
12559,41.0,11,120,15.0,0.0
12560,65.0,5,23,11.0,0.0
12561,53.0,25,23,12.0,0.0
12562,71.0,5,23,11.0,0.0
12563,59.0,25,23,12.0,0.0
12564,71.0,4,23,11.0,0.0
12565,59.0,1,23,12.0,0.0
12566,83.0,6,80,10.0,0.0
12567,65.0,5,23,11.0,0.0
12568,53.0,25,23,12.0,0.0
12569,65.0,5,23,11.0,0.0
12570,53.0,19,23,12.0,0.0
12571,71.0,5,23,11.0,0.0
12572,59.0,25,23,12.0,0.0
12573,81.0,1,30,10.0,0.0
12574,71.0,4,23,11.0,0.0
12575,59.0,25,23,12.0,0.0
12576,79.0,1,60,10.0,0.0
12577,65.0,5,23,11.0,0.0
12578,53.0,25,23,12.0,0.0
12579,65.0,4,23,11.0,0.0
12580,53.0,25,23,12.0,0.0
12581,77.0,1,60,10.0,0.0
12582,71.0,5,23,11.0,0.0
12583,59.0,6,23,12.0,0.0
12584,86.0,1,30,0.0,0.0
12585,65.0,1,30,6.0,0.0
12586,77.0,0,30,6.0,0.0
12587,71.0,4,23,11.0,0.0
12588,74.0,1,30,1.0,0.0
12589,83.0,0,30,1.0,0.0
12590,74.0,0,30,2.0,0.0
12591,71.0,0,30,2.0,0.0
12592,59.0,0,23,12.0,0.0
12593,59.0,6,30,3.0,0.0
12594,62.0,0,30,3.0,0.0
12595,41.0,2,23,13.0,0.0
12596,29.0,0,23,14.0,0.0
12597,41.0,11,30,15.0,0.0
12598,79.0,1,120,10.0,0.0
12599,91.0,0,0,0.0,0.0
12600,88.0,0,120,0.0,0.0
12601,60.0,0,120,6.0,0.0
12602,72.0,2,120,6.0,0.0
12603,67.0,4,300,4.0,0.0
12604,67.0,5,23,11.0,0.0
12605,84.0,0,120,1.0,0.0
12606,76.0,1,120,1.0,0.0
12607,76.0,4,120,2.0,0.0
12608,72.0,0,120,2.0,0.0
12609,60.0,5,300,5.0,0.0
12610,55.0,25,23,12.0,0.0
12611,60.0,6,120,3.0,0.0
12612,64.0,0,120,3.0,0.0
12613,40.0,2,235,13.0,0.0
12614,28.0,17,235,14.0,0.0
12615,48.0,11,120,15.0,0.0
12616,67.0,5,23,11.0,0.0
12617,55.0,25,23,12.0,0.0
12618,72.0,5,23,11.0,0.0
12619,60.0,25,23,12.0,0.0
12620,72.0,4,23,11.0,0.0
12621,60.0,0,23,12.0,0.0
12622,84.0,6,80,10.0,0.0
12623,67.0,5,23,11.0,0.0
12624,55.0,25,23,12.0,0.0
12625,67.0,5,23,11.0,0.0
12626,55.0,19,23,12.0,0.0
12627,72.0,5,23,11.0,0.0
12628,60.0,25,23,12.0,0.0
12629,79.0,1,30,10.0,0.0
12630,72.0,4,23,11.0,0.0
12631,60.0,6,23,12.0,0.0
12632,77.0,1,60,10.0,0.0
12633,67.0,5,23,11.0,0.0
12634,55.0,25,23,12.0,0.0
12635,48.0,2,60,13.0,0.0
12636,36.0,12,60,14.0,0.0
12637,67.0,4,23,11.0,0.0
12638,55.0,2,23,12.0,0.0
12639,76.0,1,55,10.0,0.0
12640,72.0,5,23,11.0,0.0
12641,60.0,24,23,12.0,0.0
12642,72.0,2,30,6.0,0.0
12643,60.0,0,30,6.0,0.0
12644,72.0,5,23,11.0,0.0
12645,82.0,1,30,1.0,0.0
12646,79.0,0,30,1.0,0.0
12647,70.0,0,30,2.0,0.0
12648,60.0,0,23,12.0,0.0
12649,76.0,1,120,10.0,0.0
12650,88.0,1,0,0.0,0.0
12651,84.0,0,0,0.0,0.0
12652,60.0,0,60,6.0,0.0
12653,72.0,1,60,6.0,0.0
12654,67.0,1,60,4.0,0.0
12655,64.0,5,23,11.0,0.0
12656,82.0,1,60,1.0,0.0
12657,79.0,0,60,1.0,0.0
12658,76.0,4,0,2.0,0.0
12659,70.0,2,60,2.0,0.0
12660,60.0,2,60,5.0,0.0
12661,52.0,25,23,12.0,0.0
12662,55.0,0,0,3.0,0.0
12663,58.0,6,0,3.0,0.0
12664,36.0,2,60,13.0,0.0
12665,36.0,1,60,14.0,0.0
12666,48.0,11,0,15.0,0.0
12667,64.0,5,23,11.0,0.0
12668,52.0,1,23,12.0,0.0
12669,72.0,5,23,11.0,0.0
12670,60.0,25,23,12.0,0.0
12671,72.0,4,23,11.0,0.0
12672,60.0,25,23,12.0,0.0
12673,79.0,6,80,10.0,0.0
12674,88.0,0,60,0.0,0.0
12675,84.0,1,60,0.0,0.0
12676,60.0,0,60,6.0,0.0
12677,72.0,1,60,6.0,0.0
12678,67.0,1,60,4.0,0.0
12679,64.0,5,23,11.0,0.0
12680,82.0,0,60,1.0,0.0
12681,79.0,1,60,1.0,0.0
12682,76.0,2,60,2.0,0.0
12683,70.0,0,60,2.0,0.0
12684,60.0,2,60,5.0,0.0
12685,52.0,25,23,12.0,0.0
12686,58.0,0,60,3.0,0.0
12687,55.0,3,60,3.0,0.0
12688,46.0,2,60,13.0,0.0
12689,46.0,1,60,14.0,0.0
12690,48.0,5,60,15.0,0.0
12691,64.0,5,23,11.0,0.0
12692,52.0,0,23,12.0,0.0
12693,72.0,5,23,11.0,0.0
12694,60.0,25,23,12.0,0.0
12695,79.0,1,30,10.0,0.0
12696,72.0,4,23,11.0,0.0
12697,60.0,25,23,12.0,0.0
12698,77.0,1,60,10.0,0.0
12699,88.0,0,60,0.0,0.0
12700,84.0,0,60,0.0,0.0
12701,72.0,0,60,6.0,0.0
12702,60.0,1,60,6.0,0.0
12703,60.0,5,23,11.0,0.0
12704,67.0,1,60,4.0,0.0
12705,82.0,0,60,1.0,0.0
12706,79.0,1,60,1.0,0.0
12707,76.0,0,60,2.0,0.0
12708,70.0,2,60,2.0,0.0
12709,60.0,2,60,5.0,0.0
12710,48.0,25,23,12.0,0.0
12711,58.0,3,60,3.0,0.0
12712,55.0,0,60,3.0,0.0
12713,43.0,2,60,13.0,0.0
12714,43.0,1,60,14.0,0.0
12715,48.0,11,60,15.0,0.0
12716,60.0,4,23,11.0,0.0
12717,48.0,1,23,12.0,0.0
12718,76.0,3,55,10.0,0.0
12719,70.0,5,23,11.0,0.0
12720,58.0,22,23,12.0,0.0
12721,70.0,2,20,11.0,0.0
12722,58.0,28,20,12.0,0.0
12723,77.0,3,350,10.0,0.0
12724,89.0,0,680,0.0,0.0
12725,84.0,1,680,0.0,0.0
12726,77.0,0,680,6.0,0.0
12727,65.0,2,680,6.0,0.0
12728,65.0,3,50,4.0,0.0
12729,69.0,0,23,11.0,0.0
12730,65.0,5,23,11.0,0.0
12731,77.0,0,680,1.0,0.0
12732,81.0,1,680,1.0,0.0
12733,69.0,1,680,2.0,0.0
12734,72.0,0,680,2.0,0.0
12735,53.0,4,50,5.0,0.0
12736,60.0,14,23,12.0,0.0
12737,57.0,0,680,3.0,0.0
12738,60.0,2,680,3.0,0.0
12739,53.0,2,410,13.0,0.0
12740,41.0,22,410,14.0,0.0
12741,41.0,8,30,15.0,0.0
12742,69.0,0,23,11.0,0.0
12743,65.0,1,23,11.0,0.0
12744,60.0,14,23,12.0,0.0
12745,65.0,5,23,11.0,0.0
12746,69.0,0,23,11.0,0.0
12747,65.0,3,50,4.0,0.0
12748,53.0,4,50,5.0,0.0
12749,60.0,14,23,12.0,0.0
12750,41.0,11,0,15.0,0.0
12751,69.0,0,23,11.0,0.0
12752,65.0,1,23,11.0,0.0
12753,60.0,14,23,12.0,0.0
12754,41.0,8,0,15.0,0.0
12755,65.0,5,23,11.0,0.0
12756,65.0,3,50,4.0,0.0
12757,69.0,0,23,11.0,0.0
12758,53.0,4,50,5.0,0.0
12759,60.0,14,23,12.0,0.0
12760,41.0,8,30,15.0,0.0
12761,65.0,0,23,11.0,0.0
12762,69.0,1,23,11.0,0.0
12763,60.0,14,23,12.0,0.0
12764,41.0,11,30,15.0,0.0
12765,65.0,3,50,4.0,0.0
12766,65.0,0,23,11.0,0.0
12767,69.0,5,23,11.0,0.0
12768,53.0,4,50,5.0,0.0
12769,60.0,14,23,12.0,0.0
12770,65.0,1,23,11.0,0.0
12771,69.0,0,23,11.0,0.0
12772,60.0,14,23,12.0,0.0
12773,41.0,8,0,15.0,0.0
12774,69.0,5,23,11.0,0.0
12775,65.0,0,23,11.0,0.0
12776,65.0,3,50,4.0,0.0
12777,53.0,4,50,5.0,0.0
12778,60.0,14,23,12.0,0.0
12779,69.0,0,23,11.0,0.0
12780,65.0,1,23,11.0,0.0
12781,60.0,14,23,12.0,0.0
12782,41.0,8,0,15.0,0.0
12783,65.0,0,23,11.0,0.0
12784,69.0,5,23,11.0,0.0
12785,65.0,3,50,4.0,0.0
12786,53.0,4,50,5.0,0.0
12787,60.0,14,23,12.0,0.0
12788,41.0,11,0,15.0,0.0
12789,65.0,0,23,11.0,0.0
12790,69.0,1,23,11.0,0.0
12791,60.0,14,23,12.0,0.0
12792,41.0,5,0,15.0,0.0
12793,81.0,1,320,10.0,0.0
12794,65.0,5,23,11.0,0.0
12795,69.0,0,23,11.0,0.0
12796,65.0,1,350,4.0,0.0
12797,53.0,0,350,5.0,0.0
12798,60.0,25,23,12.0,0.0
12799,41.0,11,120,15.0,0.0
12800,65.0,5,23,11.0,0.0
12801,69.0,0,23,11.0,0.0
12802,60.0,1,23,12.0,0.0
12803,69.0,0,23,11.0,0.0
12804,65.0,5,23,11.0,0.0
12805,60.0,25,23,12.0,0.0
12806,53.0,2,50,13.0,0.0
12807,41.0,11,50,14.0,0.0
12808,65.0,5,23,11.0,0.0
12809,69.0,0,23,11.0,0.0
12810,60.0,1,23,12.0,0.0
12811,65.0,0,23,11.0,0.0
12812,69.0,5,23,11.0,0.0
12813,60.0,25,23,12.0,0.0
12814,53.0,2,50,13.0,0.0
12815,41.0,22,50,14.0,0.0
12816,69.0,5,23,11.0,0.0
12817,65.0,0,23,11.0,0.0
12818,60.0,1,23,12.0,0.0
12819,65.0,5,23,11.0,0.0
12820,69.0,0,23,11.0,0.0
12821,60.0,25,23,12.0,0.0
12822,53.0,2,50,13.0,0.0
12823,41.0,22,50,14.0,0.0
12824,69.0,0,23,11.0,0.0
12825,65.0,5,23,11.0,0.0
12826,60.0,1,23,12.0,0.0
12827,65.0,5,23,11.0,0.0
12828,69.0,0,23,11.0,0.0
12829,60.0,25,23,12.0,0.0
12830,53.0,2,50,13.0,0.0
12831,41.0,16,50,14.0,0.0
12832,65.0,5,23,11.0,0.0
12833,69.0,0,23,11.0,0.0
12834,60.0,1,23,12.0,0.0
12835,69.0,0,23,11.0,0.0
12836,65.0,3,23,11.0,0.0
12837,60.0,20,23,12.0,0.0
12838,53.0,2,50,13.0,0.0
12839,41.0,11,50,14.0,0.0
12840,77.0,0,23,10.0,0.0
12841,84.0,2,20,0.0,0.0
12842,89.0,0,20,0.0,0.0
12843,77.0,2,25,6.0,0.0
12844,65.0,0,25,6.0,0.0
12845,69.0,0,23,11.0,0.0
12846,65.0,1,23,11.0,0.0
12847,77.0,0,20,1.0,0.0
12848,81.0,1,20,1.0,0.0
12849,72.0,1,20,2.0,0.0
12850,69.0,0,20,2.0,0.0
12851,60.0,1,23,12.0,0.0
12852,57.0,2,20,3.0,0.0
12853,60.0,0,20,3.0,0.0
12854,77.0,3,350,10.0,0.0
12855,83.0,1,680,0.0,0.0
12856,89.0,0,680,0.0,0.0
12857,77.0,0,680,6.0,0.0
12858,65.0,2,680,6.0,0.0
12859,65.0,3,50,4.0,0.0
12860,71.0,5,23,11.0,0.0
12861,65.0,0,23,11.0,0.0
12862,80.0,0,680,1.0,0.0
12863,77.0,1,680,1.0,0.0
12864,71.0,0,680,2.0,0.0
12865,68.0,1,680,2.0,0.0
12866,53.0,4,50,5.0,0.0
12867,68.0,14,23,12.0,0.0
12868,62.0,0,680,3.0,0.0
12869,59.0,2,680,3.0,0.0
12870,50.0,2,410,13.0,0.0
12871,38.0,22,410,14.0,0.0
12872,41.0,11,0,15.0,0.0
12873,71.0,1,23,11.0,0.0
12874,65.0,0,23,11.0,0.0
12875,68.0,14,23,12.0,0.0
12876,41.0,8,0,15.0,0.0
12877,65.0,0,23,11.0,0.0
12878,65.0,3,50,4.0,0.0
12879,71.0,5,23,11.0,0.0
12880,53.0,4,50,5.0,0.0
12881,68.0,14,23,12.0,0.0
12882,65.0,1,23,11.0,0.0
12883,71.0,0,23,11.0,0.0
12884,68.0,14,23,12.0,0.0
12885,41.0,8,0,15.0,0.0
12886,71.0,0,23,11.0,0.0
12887,65.0,5,23,11.0,0.0
12888,65.0,3,50,4.0,0.0
12889,53.0,4,50,5.0,0.0
12890,68.0,14,23,12.0,0.0
12891,41.0,8,30,15.0,0.0
12892,65.0,1,23,11.0,0.0
12893,71.0,0,23,11.0,0.0
12894,68.0,14,23,12.0,0.0
12895,41.0,11,30,15.0,0.0
12896,65.0,3,50,4.0,0.0
12897,71.0,5,23,11.0,0.0
12898,65.0,0,23,11.0,0.0
12899,53.0,4,50,5.0,0.0
12900,68.0,14,23,12.0,0.0
12901,41.0,8,30,15.0,0.0
12902,65.0,0,23,11.0,0.0
12903,71.0,1,23,11.0,0.0
12904,68.0,14,23,12.0,0.0
12905,41.0,11,30,15.0,0.0
12906,65.0,0,23,11.0,0.0
12907,71.0,5,23,11.0,0.0
12908,65.0,3,50,4.0,0.0
12909,53.0,4,50,5.0,0.0
12910,68.0,14,23,12.0,0.0
12911,41.0,8,30,15.0,0.0
12912,71.0,0,23,11.0,0.0
12913,65.0,1,23,11.0,0.0
12914,68.0,14,23,12.0,0.0
12915,71.0,5,23,11.0,0.0
12916,65.0,3,50,4.0,0.0
12917,65.0,0,23,11.0,0.0
12918,53.0,4,50,5.0,0.0
12919,68.0,14,23,12.0,0.0
12920,41.0,11,0,15.0,0.0
12921,65.0,1,23,11.0,0.0
12922,71.0,0,23,11.0,0.0
12923,68.0,14,23,12.0,0.0
12924,41.0,5,0,15.0,0.0
12925,83.0,1,320,10.0,0.0
12926,65.0,5,23,11.0,0.0
12927,65.0,0,350,4.0,0.0
12928,71.0,0,23,11.0,0.0
12929,53.0,2,350,5.0,0.0
12930,68.0,25,23,12.0,0.0
12931,41.0,11,120,15.0,0.0
12932,71.0,0,23,11.0,0.0
12933,65.0,5,23,11.0,0.0
12934,68.0,1,23,12.0,0.0
12935,71.0,5,23,11.0,0.0
12936,65.0,0,23,11.0,0.0
12937,68.0,25,23,12.0,0.0
12938,50.0,2,55,13.0,0.0
12939,38.0,6,55,14.0,0.0
12940,65.0,5,23,11.0,0.0
12941,71.0,0,23,11.0,0.0
12942,68.0,6,23,12.0,0.0
12943,65.0,0,23,11.0,0.0
12944,71.0,5,23,11.0,0.0
12945,68.0,25,23,12.0,0.0
12946,50.0,2,55,13.0,0.0
12947,38.0,17,55,14.0,0.0
12948,65.0,0,23,11.0,0.0
12949,71.0,5,23,11.0,0.0
12950,68.0,6,23,12.0,0.0
12951,71.0,5,23,11.0,0.0
12952,65.0,0,23,11.0,0.0
12953,68.0,25,23,12.0,0.0
12954,50.0,2,55,13.0,0.0
12955,38.0,17,55,14.0,0.0
12956,71.0,5,23,11.0,0.0
12957,65.0,0,23,11.0,0.0
12958,68.0,6,23,12.0,0.0
12959,71.0,5,23,11.0,0.0
12960,65.0,0,23,11.0,0.0
12961,68.0,25,23,12.0,0.0
12962,50.0,2,55,13.0,0.0
12963,38.0,11,55,14.0,0.0
12964,65.0,0,23,11.0,0.0
12965,71.0,5,23,11.0,0.0
12966,68.0,6,23,12.0,0.0
12967,71.0,3,23,11.0,0.0
12968,65.0,0,23,11.0,0.0
12969,68.0,20,23,12.0,0.0
12970,50.0,2,55,13.0,0.0
12971,38.0,6,55,14.0,0.0
12972,77.0,1,23,10.0,0.0
12973,89.0,0,20,0.0,0.0
12974,83.0,2,20,0.0,0.0
12975,77.0,0,25,6.0,0.0
12976,65.0,0,25,6.0,0.0
12977,71.0,0,23,11.0,0.0
12978,65.0,1,23,11.0,0.0
12979,77.0,0,20,1.0,0.0
12980,80.0,1,20,1.0,0.0
12981,71.0,0,20,2.0,0.0
12982,68.0,1,20,2.0,0.0
12983,68.0,6,23,12.0,0.0
12984,59.0,0,20,3.0,0.0
12985,62.0,2,20,3.0,0.0
12986,41.0,11,30,15.0,0.0
12987,77.0,3,350,10.0,0.0
12988,86.0,1,680,0.0,0.0
12989,89.0,0,680,0.0,0.0
12990,77.0,0,680,6.0,0.0
12991,65.0,2,680,6.0,0.0
12992,74.0,0,23,11.0,0.0
12993,65.0,3,50,4.0,0.0
12994,65.0,5,23,11.0,0.0
12995,83.0,0,680,1.0,0.0
12996,74.0,1,680,1.0,0.0
12997,71.0,0,680,2.0,0.0
12998,80.0,1,680,2.0,0.0
12999,53.0,4,50,5.0,0.0
13000,68.0,0,23,12.0,0.0
13001,59.0,14,23,12.0,0.0
13002,53.0,0,680,3.0,0.0
13003,56.0,2,680,3.0,0.0
13004,41.0,2,410,13.0,0.0
13005,29.0,22,410,14.0,0.0
13006,74.0,1,23,11.0,0.0
13007,65.0,0,23,11.0,0.0
13008,59.0,14,23,12.0,0.0
13009,68.0,0,23,12.0,0.0
13010,41.0,8,0,15.0,0.0
13011,74.0,0,23,11.0,0.0
13012,65.0,5,23,11.0,0.0
13013,65.0,3,50,4.0,0.0
13014,53.0,4,50,5.0,0.0
13015,68.0,0,23,12.0,0.0
13016,59.0,14,23,12.0,0.0
13017,41.0,11,0,15.0,0.0
13018,65.0,0,23,11.0,0.0
13019,74.0,1,23,11.0,0.0
13020,59.0,0,23,12.0,0.0
13021,68.0,14,23,12.0,0.0
13022,41.0,8,0,15.0,0.0
13023,65.0,5,23,11.0,0.0
13024,74.0,0,23,11.0,0.0
13025,65.0,3,50,4.0,0.0
13026,53.0,4,50,5.0,0.0
13027,68.0,14,23,12.0,0.0
13028,59.0,0,23,12.0,0.0
13029,41.0,8,30,15.0,0.0
13030,65.0,1,23,11.0,0.0
13031,74.0,0,23,11.0,0.0
13032,68.0,0,23,12.0,0.0
13033,59.0,14,23,12.0,0.0
13034,41.0,11,30,15.0,0.0
13035,74.0,0,23,11.0,0.0
13036,65.0,5,23,11.0,0.0
13037,65.0,3,50,4.0,0.0
13038,53.0,4,50,5.0,0.0
13039,59.0,14,23,12.0,0.0
13040,68.0,0,23,12.0,0.0
13041,65.0,0,23,11.0,0.0
13042,74.0,1,23,11.0,0.0
13043,59.0,14,23,12.0,0.0
13044,68.0,0,23,12.0,0.0
13045,41.0,8,0,15.0,0.0
13046,74.0,5,23,11.0,0.0
13047,65.0,3,50,4.0,0.0
13048,65.0,0,23,11.0,0.0
13049,53.0,4,50,5.0,0.0
13050,68.0,14,23,12.0,0.0
13051,59.0,0,23,12.0,0.0
13052,41.0,11,0,15.0,0.0
13053,65.0,1,23,11.0,0.0
13054,74.0,0,23,11.0,0.0
13055,59.0,0,23,12.0,0.0
13056,68.0,14,23,12.0,0.0
13057,41.0,11,30,15.0,0.0
13058,65.0,3,50,4.0,0.0
13059,65.0,0,23,11.0,0.0
13060,74.0,5,23,11.0,0.0
13061,53.0,4,50,5.0,0.0
13062,59.0,14,23,12.0,0.0
13063,68.0,0,23,12.0,0.0
13064,74.0,1,23,11.0,0.0
13065,65.0,0,23,11.0,0.0
13066,68.0,0,23,12.0,0.0
13067,59.0,14,23,12.0,0.0
13068,41.0,5,0,15.0,0.0
13069,86.0,1,320,10.0,0.0
13070,65.0,5,23,11.0,0.0
13071,74.0,0,23,11.0,0.0
13072,65.0,1,350,4.0,0.0
13073,53.0,0,350,5.0,0.0
13074,59.0,0,23,12.0,0.0
13075,68.0,25,23,12.0,0.0
13076,41.0,11,0,15.0,0.0
13077,65.0,0,23,11.0,0.0
13078,74.0,5,23,11.0,0.0
13079,59.0,1,23,12.0,0.0
13080,68.0,0,23,12.0,0.0
13081,74.0,5,23,11.0,0.0
13082,65.0,0,23,11.0,0.0
13083,59.0,25,23,12.0,0.0
13084,68.0,0,23,12.0,0.0
13085,41.0,2,55,13.0,0.0
13086,29.0,6,55,14.0,0.0
13087,74.0,0,23,11.0,0.0
13088,65.0,5,23,11.0,0.0
13089,68.0,6,23,12.0,0.0
13090,59.0,0,23,12.0,0.0
13091,65.0,0,23,11.0,0.0
13092,74.0,5,23,11.0,0.0
13093,59.0,0,23,12.0,0.0
13094,68.0,25,23,12.0,0.0
13095,41.0,2,55,13.0,0.0
13096,29.0,17,55,14.0,0.0
13097,65.0,0,23,11.0,0.0
13098,74.0,5,23,11.0,0.0
13099,68.0,6,23,12.0,0.0
13100,59.0,0,23,12.0,0.0
13101,74.0,0,23,11.0,0.0
13102,65.0,5,23,11.0,0.0
13103,68.0,25,23,12.0,0.0
13104,59.0,0,23,12.0,0.0
13105,41.0,2,55,13.0,0.0
13106,29.0,17,55,14.0,0.0
13107,65.0,5,23,11.0,0.0
13108,74.0,0,23,11.0,0.0
13109,59.0,6,23,12.0,0.0
13110,68.0,0,23,12.0,0.0
13111,74.0,5,23,11.0,0.0
13112,65.0,0,23,11.0,0.0
13113,59.0,0,23,12.0,0.0
13114,68.0,25,23,12.0,0.0
13115,41.0,2,55,13.0,0.0
13116,29.0,11,55,14.0,0.0
13117,74.0,5,23,11.0,0.0
13118,65.0,0,23,11.0,0.0
13119,59.0,6,23,12.0,0.0
13120,68.0,0,23,12.0,0.0
13121,65.0,0,23,11.0,0.0
13122,74.0,3,23,11.0,0.0
13123,59.0,20,23,12.0,0.0
13124,68.0,0,23,12.0,0.0
13125,41.0,2,55,13.0,0.0
13126,29.0,6,55,14.0,0.0
13127,77.0,0,23,10.0,0.0
13128,86.0,0,20,0.0,0.0
13129,89.0,2,20,0.0,0.0
13130,65.0,2,25,6.0,0.0
13131,77.0,0,25,6.0,0.0
13132,65.0,0,23,11.0,0.0
13133,74.0,1,23,11.0,0.0
13134,83.0,0,20,1.0,0.0
13135,74.0,1,20,1.0,0.0
13136,71.0,0,20,2.0,0.0
13137,80.0,1,20,2.0,0.0
13138,59.0,6,23,12.0,0.0
13139,68.0,0,23,12.0,0.0
13140,53.0,0,20,3.0,0.0
13141,56.0,2,20,3.0,0.0
13142,77.0,6,350,10.0,0.0
13143,86.0,3,680,0.0,0.0
13144,89.0,0,680,0.0,0.0
13145,65.0,2,685,6.0,0.0
13146,77.0,0,685,6.0,0.0
13147,74.0,5,23,11.0,0.0
13148,65.0,3,410,4.0,0.0
13149,65.0,0,23,11.0,0.0
13150,83.0,0,680,1.0,0.0
13151,74.0,1,680,1.0,0.0
13152,80.0,1,680,2.0,0.0
13153,71.0,0,680,2.0,0.0
13154,53.0,4,410,5.0,0.0
13155,68.0,14,23,12.0,0.0
13156,59.0,0,23,12.0,0.0
13157,56.0,2,680,3.0,0.0
13158,53.0,0,680,3.0,0.0
13159,41.0,2,410,13.0,0.0
13160,29.0,22,410,14.0,0.0
13161,41.0,11,0,15.0,0.0
13162,65.0,5,23,11.0,0.0
13163,74.0,0,23,11.0,0.0
13164,68.0,14,23,12.0,0.0
13165,59.0,0,23,12.0,0.0
13166,41.0,11,0,15.0,0.0
13167,74.0,0,23,11.0,0.0
13168,65.0,5,23,11.0,0.0
13169,68.0,0,23,12.0,0.0
13170,59.0,14,23,12.0,0.0
13171,41.0,11,30,15.0,0.0
13172,74.0,0,23,11.0,0.0
13173,65.0,5,23,11.0,0.0
13174,59.0,14,23,12.0,0.0
13175,68.0,0,23,12.0,0.0
13176,74.0,0,23,11.0,0.0
13177,65.0,5,23,11.0,0.0
13178,59.0,0,23,12.0,0.0
13179,68.0,14,23,12.0,0.0
13180,41.0,11,0,15.0,0.0
13181,65.0,0,23,11.0,0.0
13182,74.0,5,23,11.0,0.0
13183,59.0,14,23,12.0,0.0
13184,68.0,0,23,12.0,0.0
13185,41.0,11,0,15.0,0.0
13186,65.0,5,23,11.0,0.0
13187,74.0,0,23,11.0,0.0
13188,59.0,14,23,12.0,0.0
13189,68.0,0,23,12.0,0.0
13190,41.0,11,0,15.0,0.0
13191,74.0,5,23,11.0,0.0
13192,65.0,0,23,11.0,0.0
13193,68.0,14,23,12.0,0.0
13194,59.0,0,23,12.0,0.0
13195,74.0,5,23,11.0,0.0
13196,65.0,0,23,11.0,0.0
13197,59.0,0,23,12.0,0.0
13198,68.0,14,23,12.0,0.0
13199,41.0,11,0,15.0,0.0
13200,74.0,0,23,11.0,0.0
13201,65.0,5,23,11.0,0.0
13202,68.0,0,23,12.0,0.0
13203,59.0,14,23,12.0,0.0
13204,41.0,11,30,15.0,0.0
13205,74.0,0,23,11.0,0.0
13206,65.0,5,23,11.0,0.0
13207,59.0,0,23,12.0,0.0
13208,68.0,14,23,12.0,0.0
13209,65.0,5,23,11.0,0.0
13210,74.0,0,23,11.0,0.0
13211,68.0,0,23,12.0,0.0
13212,59.0,14,23,12.0,0.0
13213,41.0,5,0,15.0,0.0
13214,86.0,1,320,10.0,0.0
13215,65.0,5,23,11.0,0.0
13216,74.0,0,23,11.0,0.0
13217,68.0,0,23,12.0,0.0
13218,59.0,22,23,12.0,0.0
13219,41.0,11,120,15.0,0.0
13220,74.0,0,23,11.0,0.0
13221,65.0,1,23,11.0,0.0
13222,59.0,1,23,12.0,0.0
13223,68.0,0,23,12.0,0.0
13224,65.0,5,23,11.0,0.0
13225,74.0,0,23,11.0,0.0
13226,65.0,3,50,4.0,0.0
13227,53.0,4,50,5.0,0.0
13228,59.0,0,23,12.0,0.0
13229,68.0,22,23,12.0,0.0
13230,41.0,2,55,13.0,0.0
13231,29.0,6,55,14.0,0.0
13232,74.0,0,23,11.0,0.0
13233,65.0,1,23,11.0,0.0
13234,59.0,6,23,12.0,0.0
13235,68.0,0,23,12.0,0.0
13236,65.0,3,50,4.0,0.0
13237,65.0,0,23,11.0,0.0
13238,74.0,5,23,11.0,0.0
13239,53.0,4,50,5.0,0.0
13240,68.0,0,23,12.0,0.0
13241,59.0,22,23,12.0,0.0
13242,41.0,2,55,13.0,0.0
13243,29.0,17,55,14.0,0.0
13244,74.0,0,23,11.0,0.0
13245,65.0,1,23,11.0,0.0
13246,68.0,6,23,12.0,0.0
13247,59.0,0,23,12.0,0.0
13248,65.0,5,23,11.0,0.0
13249,74.0,0,23,11.0,0.0
13250,65.0,3,50,4.0,0.0
13251,53.0,4,50,5.0,0.0
13252,68.0,22,23,12.0,0.0
13253,59.0,0,23,12.0,0.0
13254,41.0,2,55,13.0,0.0
13255,29.0,17,55,14.0,0.0
13256,74.0,0,23,11.0,0.0
13257,65.0,1,23,11.0,0.0
13258,68.0,6,23,12.0,0.0
13259,59.0,0,23,12.0,0.0
13260,65.0,5,23,11.0,0.0
13261,65.0,3,50,4.0,0.0
13262,74.0,0,23,11.0,0.0
13263,53.0,4,50,5.0,0.0
13264,59.0,22,23,12.0,0.0
13265,68.0,0,23,12.0,0.0
13266,41.0,2,55,13.0,0.0
13267,29.0,11,55,14.0,0.0
13268,74.0,0,23,11.0,0.0
13269,65.0,1,23,11.0,0.0
13270,59.0,0,23,12.0,0.0
13271,68.0,6,23,12.0,0.0
13272,65.0,0,50,4.0,0.0
13273,74.0,0,23,11.0,0.0
13274,65.0,1,23,11.0,0.0
13275,53.0,2,50,5.0,0.0
13276,59.0,20,23,12.0,0.0
13277,68.0,0,23,12.0,0.0
13278,41.0,2,55,13.0,0.0
13279,29.0,6,55,14.0,0.0
13280,77.0,1,23,10.0,0.0
13281,86.0,2,20,0.0,0.0
13282,89.0,0,20,0.0,0.0
13283,77.0,0,25,6.0,0.0
13284,65.0,0,25,6.0,0.0
13285,65.0,1,23,11.0,0.0
13286,74.0,0,23,11.0,0.0
13287,74.0,0,20,1.0,0.0
13288,83.0,1,20,1.0,0.0
13289,71.0,1,20,2.0,0.0
13290,80.0,0,20,2.0,0.0
13291,59.0,6,23,12.0,0.0
13292,68.0,0,23,12.0,0.0
13293,53.0,0,20,3.0,0.0
13294,56.0,2,20,3.0,0.0
13295,41.0,11,30,15.0,0.0
13296,77.0,1,230,10.0,0.0
13297,89.0,0,230,0.0,0.0
13298,86.0,1,230,0.0,0.0
13299,77.0,0,230,6.0,0.0
13300,65.0,1,230,6.0,0.0
13301,65.0,1,230,4.0,0.0
13302,74.0,0,23,11.0,0.0
13303,65.0,5,23,11.0,0.0
13304,83.0,0,230,1.0,0.0
13305,74.0,1,230,1.0,0.0
13306,80.0,1,230,2.0,0.0
13307,71.0,0,230,2.0,0.0
13308,53.0,2,230,5.0,0.0
13309,59.0,14,23,12.0,0.0
13310,68.0,0,23,12.0,0.0
13311,53.0,0,230,3.0,0.0
13312,56.0,2,230,3.0,0.0
13313,41.0,2,230,13.0,0.0
13314,29.0,11,230,14.0,0.0
13315,65.0,0,23,11.0,0.0
13316,74.0,5,23,11.0,0.0
13317,59.0,14,23,12.0,0.0
13318,68.0,0,23,12.0,0.0
13319,41.0,11,0,15.0,0.0
13320,65.0,5,23,11.0,0.0
13321,74.0,0,23,11.0,0.0
13322,68.0,0,23,12.0,0.0
13323,59.0,14,23,12.0,0.0
13324,41.0,11,0,15.0,0.0
13325,65.0,5,23,11.0,0.0
13326,74.0,0,23,11.0,0.0
13327,68.0,14,23,12.0,0.0
13328,59.0,0,23,12.0,0.0
13329,41.0,11,0,15.0,0.0
13330,74.0,5,23,11.0,0.0
13331,65.0,0,23,11.0,0.0
13332,59.0,14,23,12.0,0.0
13333,68.0,0,23,12.0,0.0
13334,65.0,0,23,11.0,0.0
13335,74.0,5,23,11.0,0.0
13336,68.0,14,23,12.0,0.0
13337,59.0,0,23,12.0,0.0
13338,41.0,11,0,15.0,0.0
13339,74.0,0,23,11.0,0.0
13340,65.0,5,23,11.0,0.0
13341,59.0,0,23,12.0,0.0
13342,68.0,14,23,12.0,0.0
13343,41.0,11,0,15.0,0.0
13344,74.0,0,23,11.0,0.0
13345,65.0,1,23,11.0,0.0
13346,68.0,1,23,12.0,0.0
13347,59.0,0,23,12.0,0.0
13348,86.0,2,80,10.0,0.0
13349,86.0,0,75,0.0,0.0
13350,89.0,3,75,0.0,0.0
13351,77.0,1,80,6.0,0.0
13352,65.0,0,80,6.0,0.0
13353,74.0,5,23,11.0,0.0
13354,65.0,1,80,4.0,0.0
13355,65.0,0,23,11.0,0.0
13356,83.0,0,75,1.0,0.0
13357,74.0,1,75,1.0,0.0
13358,80.0,0,75,2.0,0.0
13359,71.0,0,75,2.0,0.0
13360,53.0,4,80,5.0,0.0
13361,68.0,25,23,12.0,0.0
13362,59.0,0,23,12.0,0.0
13363,56.0,2,75,3.0,0.0
13364,53.0,0,75,3.0,0.0
13365,41.0,2,80,13.0,0.0
13366,29.0,11,80,14.0,0.0
13367,41.0,11,0,15.0,0.0
13368,74.0,5,23,11.0,0.0
13369,65.0,0,23,11.0,0.0
13370,68.0,15,23,12.0,0.0
13371,59.0,0,23,12.0,0.0
13372,74.0,0,23,11.0,0.0
13373,65.0,1,23,11.0,0.0
13374,59.0,0,23,12.0,0.0
13375,68.0,1,23,12.0,0.0
13376,77.0,0,23,10.0,0.0
13377,89.0,1,20,0.0,0.0
13378,86.0,0,20,0.0,0.0
13379,77.0,1,20,6.0,0.0
13380,65.0,0,20,6.0,0.0
13381,65.0,1,23,11.0,0.0
13382,65.0,1,20,4.0,0.0
13383,74.0,0,23,11.0,0.0
13384,74.0,1,20,1.0,0.0
13385,83.0,0,20,1.0,0.0
13386,80.0,1,20,2.0,0.0
13387,71.0,0,20,2.0,0.0
13388,53.0,2,20,5.0,0.0
13389,59.0,4,23,12.0,0.0
13390,68.0,0,23,12.0,0.0
13391,56.0,0,20,3.0,0.0
13392,53.0,2,20,3.0,0.0
13393,41.0,2,23,13.0,0.0
13394,29.0,8,23,14.0,0.0
13395,41.0,6,0,15.0,0.0
13396,77.0,1,230,10.0,0.0
13397,89.0,0,230,0.0,0.0
13398,86.0,1,230,0.0,0.0
13399,65.0,1,230,6.0,0.0
13400,77.0,0,230,6.0,0.0
13401,65.0,1,230,4.0,0.0
13402,65.0,0,23,11.0,0.0
13403,74.0,5,23,11.0,0.0
13404,83.0,1,230,1.0,0.0
13405,74.0,0,230,1.0,0.0
13406,71.0,1,230,2.0,0.0
13407,80.0,0,230,2.0,0.0
13408,53.0,2,230,5.0,0.0
13409,68.0,0,23,12.0,0.0
13410,59.0,14,23,12.0,0.0
13411,56.0,0,230,3.0,0.0
13412,53.0,2,230,3.0,0.0
13413,41.0,2,230,13.0,0.0
13414,29.0,11,230,14.0,0.0
13415,41.0,11,0,15.0,0.0
13416,65.0,0,23,11.0,0.0
13417,74.0,5,23,11.0,0.0
13418,68.0,0,23,12.0,0.0
13419,59.0,14,23,12.0,0.0
13420,41.0,11,0,15.0,0.0
13421,74.0,0,23,11.0,0.0
13422,65.0,5,23,11.0,0.0
13423,68.0,0,23,12.0,0.0
13424,59.0,14,23,12.0,0.0
13425,41.0,11,0,15.0,0.0
13426,74.0,0,23,11.0,0.0
13427,65.0,5,23,11.0,0.0
13428,59.0,0,23,12.0,0.0
13429,68.0,14,23,12.0,0.0
13430,41.0,11,30,15.0,0.0
13431,65.0,5,23,11.0,0.0
13432,74.0,0,23,11.0,0.0
13433,68.0,14,23,12.0,0.0
13434,59.0,0,23,12.0,0.0
13435,65.0,5,23,11.0,0.0
13436,74.0,0,23,11.0,0.0
13437,68.0,14,23,12.0,0.0
13438,59.0,0,23,12.0,0.0
13439,41.0,11,0,15.0,0.0
13440,74.0,0,23,11.0,0.0
13441,65.0,5,23,11.0,0.0
13442,68.0,14,23,12.0,0.0
13443,59.0,0,23,12.0,0.0
13444,41.0,11,0,15.0,0.0
13445,74.0,1,23,11.0,0.0
13446,65.0,0,23,11.0,0.0
13447,68.0,0,23,12.0,0.0
13448,59.0,1,23,12.0,0.0
13449,41.0,5,0,15.0,0.0
13450,86.0,1,80,10.0,0.0
13451,89.0,1,80,0.0,0.0
13452,86.0,0,80,0.0,0.0
13453,77.0,1,80,6.0,0.0
13454,65.0,0,80,6.0,0.0
13455,74.0,0,23,11.0,0.0
13456,65.0,5,23,11.0,0.0
13457,65.0,1,80,4.0,0.0
13458,74.0,1,80,1.0,0.0
13459,83.0,0,80,1.0,0.0
13460,80.0,0,80,2.0,0.0
13461,71.0,1,80,2.0,0.0
13462,53.0,2,80,5.0,0.0
13463,68.0,0,23,12.0,0.0
13464,59.0,25,23,12.0,0.0
13465,53.0,2,80,3.0,0.0
13466,56.0,0,80,3.0,0.0
13467,41.0,2,80,13.0,0.0
13468,29.0,11,80,14.0,0.0
13469,41.0,11,0,15.0,0.0
13470,74.0,0,23,11.0,0.0
13471,65.0,5,23,11.0,0.0
13472,68.0,0,23,12.0,0.0
13473,59.0,19,23,12.0,0.0
13474,65.0,1,23,11.0,0.0
13475,74.0,0,23,11.0,0.0
13476,59.0,0,23,12.0,0.0
13477,68.0,1,23,12.0,0.0
13478,77.0,0,23,10.0,0.0
13479,89.0,1,20,0.0,0.0
13480,86.0,0,20,0.0,0.0
13481,77.0,0,20,6.0,0.0
13482,65.0,1,20,6.0,0.0
13483,65.0,1,20,4.0,0.0
13484,74.0,1,23,11.0,0.0
13485,65.0,0,23,11.0,0.0
13486,83.0,0,20,1.0,0.0
13487,74.0,1,20,1.0,0.0
13488,80.0,0,20,2.0,0.0
13489,71.0,1,20,2.0,0.0
13490,53.0,2,20,5.0,0.0
13491,68.0,0,23,12.0,0.0
13492,59.0,4,23,12.0,0.0
13493,53.0,2,20,3.0,0.0
13494,56.0,0,20,3.0,0.0
13495,41.0,2,23,13.0,0.0
13496,29.0,8,23,14.0,0.0
13497,41.0,6,0,15.0,0.0
13498,77.0,1,60,10.0,0.0
13499,86.0,1,60,0.0,0.0
13500,89.0,0,60,0.0,0.0
13501,65.0,1,60,6.0,0.0
13502,77.0,0,60,6.0,0.0
13503,65.0,0,60,4.0,0.0
13504,74.0,1,60,11.0,0.0
13505,65.0,0,60,11.0,0.0
13506,83.0,1,60,1.0,0.0
13507,74.0,0,60,1.0,0.0
13508,71.0,2,60,2.0,0.0
13509,80.0,0,60,2.0,0.0
13510,53.0,1,60,5.0,0.0
13511,59.0,0,60,12.0,0.0
13512,68.0,1,60,12.0,0.0
13513,53.0,3,60,3.0,0.0
13514,56.0,0,60,3.0,0.0
13515,41.0,2,60,13.0,0.0
13516,29.0,1,60,14.0,0.0
13517,41.0,225,60,15.0,0.0
13518,86.0,1,60,10.0,0.0
13519,86.0,1,60,0.0,0.0
13520,65.0,1,60,6.0,0.0
13521,65.0,1,60,11.0,0.0
13522,74.0,0,60,11.0,0.0
13523,65.0,0,60,4.0,0.0
13524,77.0,0,60,1.0,0.0
13525,86.0,1,60,1.0,0.0
13526,71.0,0,60,2.0,0.0
13527,80.0,2,60,2.0,0.0
13528,53.0,1,60,5.0,0.0
13529,59.0,1,60,12.0,0.0
13530,56.0,0,60,3.0,0.0
13531,53.0,3,60,3.0,0.0
13532,41.0,2,60,13.0,0.0
13533,29.0,1,60,14.0,0.0
13534,41.0,105,60,15.0,0.0
13535,77.0,1,60,10.0,0.0
13536,77.0,1,60,0.0,0.0
13537,65.0,1,60,6.0,0.0
13538,65.0,1,60,4.0,0.0
13539,65.0,0,60,11.0,0.0
13540,74.0,0,60,1.0,0.0
13541,77.0,1,60,1.0,0.0
13542,71.0,0,60,2.0,0.0
13543,80.0,2,60,2.0,0.0
13544,53.0,1,60,5.0,0.0
13545,68.0,1,60,12.0,0.0
13546,56.0,0,60,3.0,0.0
13547,53.0,3,60,3.0,0.0
13548,41.0,2,60,13.0,0.0
13549,29.0,1,60,14.0,0.0
13550,41.0,225,60,15.0,0.0
13551,86.0,1,60,10.0,0.0
13552,86.0,1,60,0.0,0.0
13553,65.0,1,60,6.0,0.0
13554,74.0,1,60,11.0,0.0
13555,65.0,0,60,11.0,0.0
13556,65.0,0,60,4.0,0.0
13557,86.0,0,60,1.0,0.0
13558,77.0,1,60,1.0,0.0
13559,71.0,0,60,2.0,0.0
13560,80.0,2,60,2.0,0.0
13561,53.0,1,60,5.0,0.0
13562,59.0,1,60,12.0,0.0
13563,56.0,0,60,3.0,0.0
13564,53.0,3,60,3.0,0.0
13565,41.0,2,60,13.0,0.0
13566,29.0,1,60,14.0,0.0
13567,41.0,105,60,15.0,0.0
13568,77.0,1,60,10.0,0.0
13569,77.0,1,60,0.0,0.0
13570,65.0,1,60,6.0,0.0
13571,65.0,1,60,11.0,0.0
13572,65.0,0,60,4.0,0.0
13573,77.0,0,60,1.0,0.0
13574,74.0,1,60,1.0,0.0
13575,71.0,2,60,2.0,0.0
13576,80.0,0,60,2.0,0.0
13577,53.0,1,60,5.0,0.0
13578,68.0,1,60,12.0,0.0
13579,56.0,0,60,3.0,0.0
13580,53.0,3,60,3.0,0.0
13581,41.0,2,60,13.0,0.0
13582,29.0,1,60,14.0,0.0
13583,41.0,705,60,15.0,0.0
13584,64.0,3,60,10.0,0.0
13585,58.0,5,60,11.0,0.0
13586,53.0,0,60,12.0,0.0
13587,55.0,232,60,12.0,0.0
13588,73.0,3,60,10.0,0.0
13589,58.0,5,60,11.0,0.0
13590,53.0,0,60,12.0,0.0
13591,55.0,112,60,12.0,0.0
13592,64.0,1,60,10.0,0.0
13593,76.0,2,60,0.0,0.0
13594,53.0,0,60,4.0,0.0
13595,58.0,4,60,11.0,0.0
13596,41.0,1,60,5.0,0.0
13597,55.0,232,60,12.0,0.0
13598,53.0,0,60,12.0,0.0
13599,72.0,1,60,10.0,0.0
13600,84.0,2,60,0.0,0.0
13601,53.0,4,60,4.0,0.0
13602,58.0,0,60,11.0,0.0
13603,41.0,1,60,5.0,0.0
13604,55.0,112,60,12.0,0.0
13605,53.0,0,60,12.0,0.0
13606,63.0,1,60,10.0,0.0
13607,75.0,2,60,0.0,0.0
13608,60.0,2,60,11.0,0.0
13609,53.0,0,60,4.0,0.0
13610,65.0,2,60,2.0,0.0
13611,41.0,1,60,5.0,0.0
13612,57.0,1,60,12.0,0.0
13613,53.0,0,60,12.0,0.0
13614,53.0,236,60,3.0,0.0
13615,75.0,4,60,2.0,0.0
13616,63.0,116,60,3.0,0.0
13617,65.0,4,60,2.0,0.0
13618,53.0,201,60,3.0,0.0
13619,65.0,8,30,10.0,0.0
13620,75.0,4,60,2.0,0.0
13621,53.0,27,30,12.0,0.0
13622,63.0,111,60,3.0,0.0
13623,65.0,5,120,10.0,0.0
13624,53.0,1,120,12.0,0.0
13625,62.0,0,120,11.0,0.0
13626,58.0,5,120,11.0,0.0
13627,74.0,3,60,2.0,0.0
13628,62.0,51,60,3.0,0.0
13629,58.0,2,120,13.0,0.0
13630,46.0,46,120,14.0,0.0
13631,67.0,3,60,10.0,0.0
13632,55.0,4,60,12.0,0.0
13633,69.0,5,60,10.0,0.0
13634,70.0,3,60,2.0,0.0
13635,57.0,1,60,12.0,0.0
13636,58.0,46,60,3.0,0.0
13637,70.0,8,55,10.0,0.0
13638,58.0,27,55,12.0,0.0
13639,65.0,8,30,10.0,0.0
13640,65.0,4,60,2.0,0.0
13641,53.0,27,30,12.0,0.0
13642,53.0,111,60,3.0,0.0
13643,65.0,5,120,10.0,0.0
13644,53.0,1,120,12.0,0.0
13645,63.0,5,120,11.0,0.0
13646,60.0,0,120,11.0,0.0
13647,63.0,3,60,2.0,0.0
13648,51.0,51,60,3.0,0.0
13649,53.0,2,120,13.0,0.0
13650,41.0,46,120,14.0,0.0
13651,69.0,3,60,10.0,0.0
13652,57.0,4,60,12.0,0.0
13653,70.0,5,60,10.0,0.0
13654,60.0,3,60,2.0,0.0
13655,58.0,1,60,12.0,0.0
13656,48.0,46,60,3.0,0.0
13657,72.0,8,55,10.0,0.0
13658,60.0,27,55,12.0,0.0
13659,65.0,8,30,10.0,0.0
13660,57.0,4,60,2.0,0.0
13661,53.0,27,30,12.0,0.0
13662,45.0,111,60,3.0,0.0
13663,65.0,5,120,10.0,0.0
13664,53.0,1,120,12.0,0.0
13665,62.0,5,120,11.0,0.0
13666,58.0,0,120,11.0,0.0
13667,58.0,3,60,2.0,0.0
13668,46.0,51,60,3.0,0.0
13669,46.0,2,120,13.0,0.0
13670,34.0,46,120,14.0,0.0
13671,70.0,3,60,10.0,0.0
13672,58.0,4,60,12.0,0.0
13673,72.0,5,60,10.0,0.0
13674,65.0,3,60,2.0,0.0
13675,60.0,1,60,12.0,0.0
13676,53.0,51,60,3.0,0.0
13677,74.0,8,60,10.0,0.0
13678,62.0,52,60,12.0,0.0
13679,75.0,5,60,10.0,0.0
13680,70.0,3,60,2.0,0.0
13681,63.0,1,60,12.0,0.0
13682,58.0,46,60,3.0,0.0
13683,74.0,8,55,10.0,0.0
13684,62.0,62,55,12.0,0.0
13685,72.0,8,115,10.0,0.0
13686,57.0,0,120,11.0,0.0
13687,69.0,4,60,2.0,0.0
13688,60.0,9,115,12.0,0.0
13689,57.0,46,60,3.0,0.0
13690,53.0,2,120,13.0,0.0
13691,41.0,51,120,14.0,0.0
13692,77.0,5,300,10.0,0.0
13693,74.0,4,60,2.0,0.0
13694,65.0,1,300,12.0,0.0
13695,62.0,116,60,3.0,0.0
13696,55.0,9,120,11.0,0.0
13697,62.0,0,120,11.0,0.0
13698,71.0,4,60,2.0,0.0
13699,59.0,54,60,3.0,0.0
13700,55.0,2,120,13.0,0.0
13701,43.0,46,120,14.0,0.0
13702,60.0,5,120,11.0,0.0
13703,67.0,3,60,2.0,0.0
13704,55.0,51,60,3.0,0.0
13705,60.0,2,120,13.0,0.0
13706,48.0,46,120,14.0,0.0
13707,76.0,3,60,10.0,0.0
13708,64.0,4,60,12.0,0.0
13709,72.0,5,60,10.0,0.0
13710,72.0,3,60,2.0,0.0
13711,60.0,1,60,12.0,0.0
13712,60.0,46,60,3.0,0.0
13713,74.0,8,55,10.0,0.0
13714,62.0,62,55,12.0,0.0
13715,75.0,5,180,10.0,0.0
13716,60.0,9,120,11.0,0.0
13717,69.0,4,60,2.0,0.0
13718,63.0,1,180,12.0,0.0
13719,57.0,54,60,3.0,0.0
13720,53.0,2,120,13.0,0.0
13721,41.0,46,120,14.0,0.0
13722,58.0,5,120,11.0,0.0
13723,65.0,3,60,2.0,0.0
13724,53.0,51,60,3.0,0.0
13725,58.0,2,120,13.0,0.0
13726,46.0,46,120,14.0,0.0
13727,74.0,3,60,10.0,0.0
13728,62.0,4,60,12.0,0.0
13729,70.0,5,60,10.0,0.0
13730,70.0,3,60,2.0,0.0
13731,58.0,1,60,12.0,0.0
13732,58.0,46,60,3.0,0.0
13733,55.0,2,120,13.0,0.0
13734,43.0,106,120,14.0,0.0
13735,72.0,8,55,10.0,0.0
13736,60.0,9,55,12.0,0.0
13737,73.0,3,120,10.0,0.0
13738,67.0,0,120,11.0,0.0
13739,67.0,3,120,2.0,0.0
13740,61.0,1,120,12.0,0.0
13741,55.0,3,120,3.0,0.0
13742,52.0,2,120,13.0,0.0
13743,40.0,106,120,14.0,0.0
13744,55.0,2,0,11.0,0.0
13745,64.0,0,120,11.0,0.0
13746,60.0,2,120,13.0,0.0
13747,48.0,46,120,14.0,0.0
13748,67.0,3,60,10.0,0.0
13749,55.0,4,60,12.0,0.0
13750,69.0,8,60,10.0,0.0
13751,57.0,52,60,12.0,0.0
13752,70.0,8,60,10.0,0.0
13753,58.0,52,60,12.0,0.0
13754,64.0,8,60,10.0,0.0
13755,52.0,52,60,12.0,0.0
13756,65.0,8,60,10.0,0.0
13757,53.0,52,60,12.0,0.0
13758,67.0,8,60,10.0,0.0
13759,55.0,52,60,12.0,0.0
13760,60.0,8,60,10.0,0.0
13761,48.0,52,60,12.0,0.0
13762,64.0,8,60,10.0,0.0
13763,52.0,52,60,12.0,0.0
13764,67.0,8,60,10.0,0.0
13765,55.0,26,60,12.0,0.0
13766,72.0,8,60,10.0,0.0
13767,64.0,5,120,11.0,0.0
13768,55.0,0,120,11.0,0.0
13769,72.0,5,30,1.0,0.0
13770,60.0,52,60,12.0,0.0
13771,48.0,21,30,3.0,0.0
13772,67.0,2,120,13.0,0.0
13773,55.0,50,120,14.0,0.0
13774,70.0,3,60,10.0,0.0
13775,72.0,5,120,1.0,0.0
13776,58.0,4,60,12.0,0.0
13777,48.0,51,120,3.0,0.0
13778,69.0,3,120,10.0,0.0
13779,69.0,1,120,11.0,0.0
13780,57.0,1,120,12.0,0.0
13781,65.0,2,120,13.0,0.0
13782,53.0,50,120,14.0,0.0
13783,74.0,4,60,1.0,0.0
13784,50.0,3,60,3.0,0.0
13785,65.0,1,120,11.0,0.0
13786,76.0,5,60,1.0,0.0
13787,52.0,50,60,3.0,0.0
13788,60.0,2,120,13.0,0.0
13789,48.0,20,120,14.0,0.0
13790,77.0,4,55,1.0,0.0
13791,53.0,8,55,3.0,0.0
13792,72.0,3,120,10.0,0.0
13793,72.0,5,30,1.0,0.0
13794,65.0,4,120,12.0,0.0
13795,48.0,81,30,3.0,0.0
13796,57.0,2,120,13.0,0.0
13797,45.0,50,120,14.0,0.0
13798,72.0,5,120,1.0,0.0
13799,48.0,51,120,3.0,0.0
13800,64.0,3,120,10.0,0.0
13801,60.0,5,0,11.0,0.0
13802,67.0,1,120,12.0,0.0
13803,58.0,2,120,13.0,0.0
13804,46.0,50,120,14.0,0.0
13805,76.0,4,60,1.0,0.0
13806,52.0,3,60,3.0,0.0
13807,67.0,3,120,10.0,0.0
13808,60.0,1,0,11.0,0.0
13809,77.0,5,60,1.0,0.0
13810,58.0,4,120,12.0,0.0
13811,53.0,50,60,3.0,0.0
13812,55.0,2,120,13.0,0.0
13813,43.0,20,120,14.0,0.0
13814,79.0,1,55,1.0,0.0
13815,55.0,4,55,3.0,0.0
13816,72.0,3,120,10.0,0.0
13817,60.0,1,0,11.0,0.0
13818,72.0,5,30,1.0,0.0
13819,55.0,4,120,12.0,0.0
13820,48.0,81,30,3.0,0.0
13821,52.0,2,120,13.0,0.0
13822,40.0,50,120,14.0,0.0
13823,72.0,1,120,1.0,0.0
13824,60.0,4,120,2.0,0.0
13825,48.0,51,120,3.0,0.0
13826,65.0,3,120,10.0,0.0
13827,60.0,1,120,11.0,0.0
13828,60.0,1,120,12.0,0.0
13829,57.0,2,120,13.0,0.0
13830,45.0,50,120,14.0,0.0
13831,77.0,1,60,1.0,0.0
13832,65.0,3,60,2.0,0.0
13833,53.0,3,60,3.0,0.0
13834,79.0,1,60,1.0,0.0
13835,67.0,4,60,2.0,0.0
13836,57.0,1,120,12.0,0.0
13837,55.0,51,60,3.0,0.0
13838,53.0,2,120,13.0,0.0
13839,41.0,50,120,14.0,0.0
13840,81.0,1,60,1.0,0.0
13841,69.0,3,60,2.0,0.0
13842,57.0,3,60,3.0,0.0
13843,72.0,3,0,10.0,0.0
13844,60.0,1,0,11.0,0.0
13845,82.0,1,60,1.0,0.0
13846,70.0,4,60,2.0,0.0
13847,53.0,4,120,12.0,0.0
13848,58.0,50,60,3.0,0.0
13849,48.0,2,120,13.0,0.0
13850,36.0,105,120,14.0,0.0
13851,81.0,1,55,1.0,0.0
13852,69.0,3,55,2.0,0.0
13853,57.0,4,55,3.0,0.0
13854,60.0,1,0,11.0,0.0
13855,79.0,1,115,1.0,0.0
13856,67.0,3,115,2.0,0.0
13857,55.0,4,120,12.0,0.0
13858,55.0,4,115,3.0,0.0
13859,52.0,2,120,13.0,0.0
13860,40.0,106,120,14.0,0.0
13861,72.0,0,0,10.0,0.0
13862,60.0,1,0,11.0,0.0
13863,72.0,4,300,2.0,0.0
13864,60.0,4,120,12.0,0.0
13865,60.0,51,300,3.0,0.0
13866,57.0,2,120,13.0,0.0
13867,45.0,106,120,14.0,0.0
13868,69.0,3,120,10.0,0.0
13869,57.0,4,120,12.0,0.0
13870,54.0,2,120,13.0,0.0
13871,42.0,51,120,14.0,0.0
13872,66.0,3,120,10.0,0.0
13873,62.0,5,0,11.0,0.0
13874,54.0,1,120,12.0,0.0
13875,50.0,2,120,13.0,0.0
13876,38.0,51,120,14.0,0.0
13877,71.0,3,60,2.0,0.0
13878,59.0,3,60,3.0,0.0
13879,70.0,3,120,10.0,0.0
13880,62.0,1,120,11.0,0.0
13881,67.0,4,60,2.0,0.0
13882,58.0,4,120,12.0,0.0
13883,55.0,51,60,3.0,0.0
13884,55.0,2,120,13.0,0.0
13885,43.0,106,120,14.0,0.0
13886,69.0,0,55,2.0,0.0
13887,57.0,4,55,3.0,0.0
13888,67.0,3,120,10.0,0.0
13889,82.0,1,180,1.0,0.0
13890,70.0,4,180,2.0,0.0
13891,55.0,4,120,12.0,0.0
13892,58.0,51,180,3.0,0.0
13893,52.0,2,120,13.0,0.0
13894,40.0,50,120,14.0,0.0
13895,64.0,3,120,10.0,0.0
13896,60.0,5,0,11.0,0.0
13897,52.0,1,120,12.0,0.0
13898,48.0,2,120,13.0,0.0
13899,36.0,50,120,14.0,0.0
13900,81.0,1,60,1.0,0.0
13901,69.0,3,60,2.0,0.0
13902,57.0,3,60,3.0,0.0
13903,69.0,3,120,10.0,0.0
13904,60.0,1,120,11.0,0.0
13905,65.0,0,120,4.0,0.0
13906,77.0,1,60,1.0,0.0
13907,65.0,4,60,2.0,0.0
13908,53.0,1,120,5.0,0.0
13909,57.0,4,120,12.0,0.0
13910,53.0,50,60,3.0,0.0
13911,53.0,2,120,13.0,0.0
13912,41.0,106,120,14.0,0.0
13913,79.0,1,55,1.0,0.0
13914,67.0,0,55,2.0,0.0
13915,55.0,3,55,3.0,0.0
13916,68.0,3,120,10.0,0.0
13917,65.0,1,1200,4.0,0.0
13918,62.0,5,120,11.0,0.0
13919,80.0,1,1200,1.0,0.0
13920,77.0,0,1200,1.0,0.0
13921,65.0,0,1200,2.0,0.0
13922,68.0,2,1200,2.0,0.0
13923,53.0,2,1200,5.0,0.0
13924,65.0,4,120,12.0,0.0
13925,56.0,0,1200,3.0,0.0
13926,53.0,11,23,12.0,0.0
13927,56.0,0,23,12.0,0.0
13928,47.0,2,0,13.0,0.0
13929,35.0,17,0,14.0,0.0
13930,56.0,0,23,12.0,0.0
13931,53.0,30,23,12.0,0.0
13932,56.0,11,23,12.0,0.0
13933,53.0,0,23,12.0,0.0
13934,50.0,2,30,13.0,0.0
13935,38.0,17,30,14.0,0.0
13936,53.0,30,23,12.0,0.0
13937,56.0,0,23,12.0,0.0
13938,56.0,11,23,12.0,0.0
13939,53.0,0,23,12.0,0.0
13940,53.0,2,30,13.0,0.0
13941,41.0,17,30,14.0,0.0
13942,53.0,0,23,12.0,0.0
13943,56.0,30,23,12.0,0.0
13944,56.0,0,23,12.0,0.0
13945,53.0,11,23,12.0,0.0
13946,56.0,2,30,13.0,0.0
13947,44.0,17,30,14.0,0.0
13948,53.0,30,23,12.0,0.0
13949,56.0,0,23,12.0,0.0
13950,53.0,11,23,12.0,0.0
13951,56.0,0,23,12.0,0.0
13952,59.0,2,30,13.0,0.0
13953,47.0,17,30,14.0,0.0
13954,53.0,30,23,12.0,0.0
13955,56.0,0,23,12.0,0.0
13956,53.0,11,23,12.0,0.0
13957,56.0,0,23,12.0,0.0
13958,62.0,2,30,13.0,0.0
13959,50.0,17,30,14.0,0.0
13960,53.0,0,23,12.0,0.0
13961,56.0,29,23,12.0,0.0
13962,62.0,1,30,10.0,0.0
13963,74.0,30,30,0.0,0.0
13964,53.0,0,23,12.0,0.0
13965,56.0,0,23,12.0,0.0
13966,65.0,2,60,13.0,0.0
13967,53.0,16,60,14.0,0.0
13968,56.0,0,23,12.0,0.0
13969,53.0,11,23,12.0,0.0
13970,65.0,1,30,10.0,0.0
13971,77.0,30,30,0.0,0.0
13972,56.0,0,23,12.0,0.0
13973,53.0,0,23,12.0,0.0
13974,53.0,29,23,12.0,0.0
13975,56.0,0,23,12.0,0.0
13976,68.0,1,30,10.0,0.0
13977,80.0,0,30,0.0,0.0
13978,56.0,28,30,11.0,0.0
13979,53.0,0,23,12.0,0.0
13980,56.0,2,23,12.0,0.0
13981,56.0,0,23,12.0,0.0
13982,53.0,29,23,12.0,0.0
13983,71.0,1,30,10.0,0.0
13984,83.0,0,30,0.0,0.0
13985,59.0,28,30,11.0,0.0
13986,53.0,2,23,12.0,0.0
13987,56.0,0,23,12.0,0.0
13988,56.0,0,23,12.0,0.0
13989,53.0,29,23,12.0,0.0
13990,74.0,1,30,10.0,0.0
13991,86.0,0,30,0.0,0.0
13992,62.0,28,30,11.0,0.0
13993,56.0,0,23,12.0,0.0
13994,53.0,2,23,12.0,0.0
13995,56.0,29,23,12.0,0.0
13996,53.0,0,23,12.0,0.0
13997,77.0,1,30,10.0,0.0
13998,89.0,2,30,0.0,0.0
13999,65.0,28,30,11.0,0.0
14000,53.0,0,23,12.0,0.0
14001,56.0,0,23,12.0,0.0
14002,56.0,30,23,12.0,0.0
14003,53.0,0,23,12.0,0.0
14004,80.0,1,60,10.0,0.0
14005,92.0,0,60,0.0,0.0
14006,68.0,28,60,11.0,0.0
14007,53.0,0,23,12.0,0.0
14008,56.0,29,23,12.0,0.0
14009,53.0,0,23,12.0,0.0
14010,56.0,2,23,12.0,0.0
14011,56.0,0,23,12.0,0.0
14012,53.0,30,23,12.0,0.0
14013,53.0,30,23,12.0,0.0
14014,56.0,0,23,12.0,0.0
14015,56.0,0,23,12.0,0.0
14016,53.0,30,23,12.0,0.0
14017,53.0,0,23,12.0,0.0
14018,56.0,30,23,12.0,0.0
14019,56.0,30,23,12.0,0.0
14020,53.0,0,23,12.0,0.0
14021,53.0,0,23,12.0,0.0
14022,56.0,30,23,12.0,0.0
14023,77.0,1,60,10.0,0.0
14024,89.0,2,60,0.0,0.0
14025,65.0,28,60,11.0,0.0
14026,53.0,0,23,12.0,0.0
14027,56.0,29,23,12.0,0.0
14028,53.0,0,23,12.0,0.0
14029,56.0,0,23,12.0,0.0
14030,56.0,0,23,12.0,0.0
14031,53.0,30,23,12.0,0.0
14032,56.0,0,23,12.0,0.0
14033,53.0,2,23,12.0,0.0
14034,74.0,1,60,10.0,0.0
14035,86.0,0,60,0.0,0.0
14036,65.0,4,90,4.0,0.0
14037,62.0,1,60,11.0,0.0
14038,80.0,1,60,1.0,0.0
14039,68.0,4,60,2.0,0.0
14040,53.0,8,90,5.0,0.0
14041,53.0,29,23,12.0,0.0
14042,56.0,0,23,12.0,0.0
14043,53.0,22,0,3.0,0.0
14044,65.0,0,60,3.0,0.0
14045,53.0,2,60,13.0,0.0
14046,41.0,17,60,14.0,0.0
14047,41.0,16,90,15.0,0.0
14048,56.0,0,23,12.0,0.0
14049,53.0,2,23,12.0,0.0
14050,56.0,0,23,12.0,0.0
14051,53.0,2,23,12.0,0.0
14052,56.0,30,23,12.0,0.0
14053,53.0,0,23,12.0,0.0
14054,53.0,0,23,12.0,0.0
14055,56.0,30,23,12.0,0.0
14056,53.0,30,23,12.0,0.0
14057,56.0,0,23,12.0,0.0
14058,53.0,0,23,12.0,0.0
14059,56.0,30,23,12.0,0.0
14060,53.0,30,23,12.0,0.0
14061,56.0,0,23,12.0,0.0
14062,65.0,4,90,4.0,0.0
14063,77.0,1,60,1.0,0.0
14064,65.0,4,60,2.0,0.0
14065,53.0,8,90,5.0,0.0
14066,56.0,30,23,12.0,0.0
14067,53.0,0,23,12.0,0.0
14068,62.0,3,60,3.0,0.0
14069,50.0,0,60,3.0,0.0
14070,50.0,2,60,13.0,0.0
14071,38.0,17,60,14.0,0.0
14072,41.0,16,90,15.0,0.0
14073,56.0,3,23,12.0,0.0
14074,53.0,0,23,12.0,0.0
14075,56.0,2,23,12.0,0.0
14076,53.0,0,23,12.0,0.0
14077,53.0,0,23,12.0,0.0
14078,56.0,30,23,12.0,0.0
14079,65.0,1,1080,4.0,0.0
14080,80.0,1,1080,1.0,0.0
14081,77.0,0,1080,1.0,0.0
14082,65.0,2,1080,2.0,0.0
14083,56.0,11,23,12.0,0.0
14084,53.0,0,23,12.0,0.0
14085,56.0,0,1080,3.0,0.0
14086,47.0,2,30,13.0,0.0
14087,35.0,17,30,14.0,0.0
14088,41.0,16,90,15.0,0.0
14089,53.0,0,23,12.0,0.0
14090,56.0,30,23,12.0,0.0
14091,56.0,0,23,12.0,0.0
14092,53.0,11,23,12.0,0.0
14093,50.0,2,30,13.0,0.0
14094,38.0,1,30,14.0,0.0
14095,53.0,0,23,12.0,0.0
14096,56.0,30,23,12.0,0.0
14097,53.0,11,23,12.0,0.0
14098,56.0,0,23,12.0,0.0
14099,53.0,2,30,13.0,0.0
14100,41.0,17,30,14.0,0.0
14101,56.0,30,23,12.0,0.0
14102,53.0,0,23,12.0,0.0
14103,53.0,0,23,12.0,0.0
14104,56.0,11,23,12.0,0.0
14105,56.0,2,30,13.0,0.0
14106,44.0,17,30,14.0,0.0
14107,56.0,0,23,12.0,0.0
14108,53.0,30,23,12.0,0.0
14109,53.0,0,23,12.0,0.0
14110,56.0,11,23,12.0,0.0
14111,59.0,2,30,13.0,0.0
14112,47.0,17,30,14.0,0.0
14113,56.0,0,23,12.0,0.0
14114,53.0,30,23,12.0,0.0
14115,56.0,11,23,12.0,0.0
14116,53.0,0,23,12.0,0.0
14117,62.0,2,30,13.0,0.0
14118,50.0,17,30,14.0,0.0
14119,53.0,0,23,12.0,0.0
14120,56.0,29,23,12.0,0.0
14121,62.0,1,30,10.0,0.0
14122,74.0,0,30,0.0,0.0
14123,53.0,30,23,12.0,0.0
14124,56.0,0,23,12.0,0.0
14125,65.0,2,60,13.0,0.0
14126,53.0,16,60,14.0,0.0
14127,53.0,0,23,12.0,0.0
14128,56.0,11,23,12.0,0.0
14129,65.0,1,30,10.0,0.0
14130,77.0,0,30,0.0,0.0
14131,53.0,30,23,12.0,0.0
14132,56.0,0,23,12.0,0.0
14133,56.0,0,23,12.0,0.0
14134,53.0,29,23,12.0,0.0
14135,68.0,1,30,10.0,0.0
14136,80.0,2,30,0.0,0.0
14137,56.0,28,30,11.0,0.0
14138,53.0,0,23,12.0,0.0
14139,56.0,0,23,12.0,0.0
14140,56.0,29,23,12.0,0.0
14141,53.0,0,23,12.0,0.0
14142,71.0,1,30,10.0,0.0
14143,83.0,2,30,0.0,0.0
14144,59.0,28,30,11.0,0.0
14145,56.0,0,23,12.0,0.0
14146,53.0,0,23,12.0,0.0
14147,56.0,0,23,12.0,0.0
14148,53.0,29,23,12.0,0.0
14149,74.0,1,30,10.0,0.0
14150,86.0,0,30,0.0,0.0
14151,62.0,28,30,11.0,0.0
14152,56.0,0,23,12.0,0.0
14153,53.0,2,23,12.0,0.0
14154,53.0,29,23,12.0,0.0
14155,56.0,0,23,12.0,0.0
14156,77.0,1,30,10.0,0.0
14157,89.0,2,30,0.0,0.0
14158,65.0,28,30,11.0,0.0
14159,53.0,0,23,12.0,0.0
14160,56.0,0,23,12.0,0.0
14161,53.0,0,23,12.0,0.0
14162,56.0,30,23,12.0,0.0
14163,80.0,1,60,10.0,0.0
14164,92.0,0,60,0.0,0.0
14165,68.0,28,60,11.0,0.0
14166,56.0,29,23,12.0,0.0
14167,53.0,0,23,12.0,0.0
14168,56.0,2,23,12.0,0.0
14169,53.0,0,23,12.0,0.0
14170,53.0,0,23,12.0,0.0
14171,56.0,30,23,12.0,0.0
14172,53.0,30,23,12.0,0.0
14173,56.0,0,23,12.0,0.0
14174,56.0,0,23,12.0,0.0
14175,53.0,30,23,12.0,0.0
14176,56.0,30,23,12.0,0.0
14177,53.0,0,23,12.0,0.0
14178,56.0,30,23,12.0,0.0
14179,53.0,0,23,12.0,0.0
14180,53.0,0,23,12.0,0.0
14181,56.0,30,23,12.0,0.0
14182,77.0,1,60,10.0,0.0
14183,89.0,2,60,0.0,0.0
14184,65.0,28,60,11.0,0.0
14185,56.0,0,23,12.0,0.0
14186,53.0,29,23,12.0,0.0
14187,53.0,0,23,12.0,0.0
14188,56.0,0,23,12.0,0.0
14189,53.0,30,23,12.0,0.0
14190,56.0,0,23,12.0,0.0
14191,53.0,0,23,12.0,0.0
14192,56.0,2,23,12.0,0.0
14193,74.0,1,60,10.0,0.0
14194,86.0,0,60,0.0,0.0
14195,65.0,4,90,4.0,0.0
14196,62.0,1,60,11.0,0.0
14197,80.0,1,60,1.0,0.0
14198,68.0,0,0,2.0,0.0
14199,53.0,2,0,5.0,0.0
14200,56.0,0,23,12.0,0.0
14201,53.0,29,23,12.0,0.0
14202,53.0,22,0,3.0,0.0
14203,65.0,0,60,3.0,0.0
14204,53.0,2,60,13.0,0.0
14205,41.0,17,60,14.0,0.0
14206,41.0,16,90,15.0,0.0
14207,53.0,2,23,12.0,0.0
14208,56.0,0,23,12.0,0.0
14209,53.0,0,23,12.0,0.0
14210,56.0,2,23,12.0,0.0
14211,53.0,0,23,12.0,0.0
14212,56.0,30,23,12.0,0.0
14213,56.0,30,23,12.0,0.0
14214,53.0,0,23,12.0,0.0
14215,56.0,0,23,12.0,0.0
14216,53.0,30,23,12.0,0.0
14217,56.0,30,23,12.0,0.0
14218,53.0,0,23,12.0,0.0
14219,53.0,30,23,12.0,0.0
14220,56.0,0,23,12.0,0.0
14221,65.0,4,90,4.0,0.0
14222,77.0,1,60,1.0,0.0
14223,65.0,4,60,2.0,0.0
14224,53.0,8,90,5.0,0.0
14225,53.0,30,23,12.0,0.0
14226,56.0,0,23,12.0,0.0
14227,50.0,0,60,3.0,0.0
14228,62.0,3,60,3.0,0.0
14229,50.0,2,60,13.0,0.0
14230,38.0,17,60,14.0,0.0
14231,41.0,16,90,15.0,0.0
14232,53.0,3,23,12.0,0.0
14233,56.0,0,23,12.0,0.0
14234,56.0,0,23,12.0,0.0
14235,53.0,2,23,12.0,0.0
14236,56.0,0,23,12.0,0.0
14237,53.0,25,23,12.0,0.0
14238,82.0,1,60,10.0,0.0
14239,82.0,3,60,0.0,0.0
14240,70.0,5,23,11.0,0.0
14241,64.0,4,90,4.0,0.0
14242,76.0,1,60,1.0,0.0
14243,64.0,4,60,2.0,0.0
14244,64.0,19,90,5.0,0.0
14245,67.0,25,23,12.0,0.0
14246,49.0,3,60,3.0,0.0
14247,61.0,0,60,3.0,0.0
14248,49.0,2,60,13.0,0.0
14249,37.0,12,60,14.0,0.0
14250,58.0,4,23,11.0,0.0
14251,55.0,0,23,12.0,0.0
14252,58.0,5,23,11.0,0.0
14253,55.0,2,23,12.0,0.0
14254,58.0,5,23,11.0,0.0
14255,55.0,25,23,12.0,0.0
14256,58.0,5,23,11.0,0.0
14257,55.0,25,23,12.0,0.0
14258,58.0,5,23,11.0,0.0
14259,55.0,25,23,12.0,0.0
14260,58.0,5,23,11.0,0.0
14261,55.0,25,23,12.0,0.0
14262,58.0,5,23,11.0,0.0
14263,55.0,25,23,12.0,0.0
14264,79.0,1,60,10.0,0.0
14265,91.0,0,60,0.0,0.0
14266,58.0,5,23,11.0,0.0
14267,55.0,25,23,12.0,0.0
14268,58.0,4,23,11.0,0.0
14269,55.0,25,23,12.0,0.0
14270,58.0,5,23,11.0,0.0
14271,55.0,25,23,12.0,0.0
14272,58.0,5,23,11.0,0.0
14273,55.0,25,23,12.0,0.0
14274,76.0,1,60,10.0,0.0
14275,88.0,3,60,0.0,0.0
14276,67.0,4,90,4.0,0.0
14277,58.0,5,23,11.0,0.0
14278,82.0,1,60,1.0,0.0
14279,70.0,4,60,2.0,0.0
14280,67.0,19,90,5.0,0.0
14281,55.0,25,23,12.0,0.0
14282,49.0,0,60,3.0,0.0
14283,61.0,3,60,3.0,0.0
14284,61.0,2,60,13.0,0.0
14285,49.0,12,60,14.0,0.0
14286,58.0,4,23,11.0,0.0
14287,55.0,0,23,12.0,0.0
14288,58.0,5,23,11.0,0.0
14289,55.0,2,23,12.0,0.0
14290,58.0,5,23,11.0,0.0
14291,55.0,25,23,12.0,0.0
14292,58.0,5,23,11.0,0.0
14293,55.0,25,23,12.0,0.0
14294,58.0,5,23,11.0,0.0
14295,55.0,25,23,12.0,0.0
14296,58.0,5,23,11.0,0.0
14297,55.0,25,23,12.0,0.0
14298,58.0,5,23,11.0,0.0
14299,55.0,25,23,12.0,0.0
14300,58.0,5,23,11.0,0.0
14301,67.0,4,90,4.0,0.0
14302,79.0,1,60,1.0,0.0
14303,67.0,4,60,2.0,0.0
14304,67.0,19,90,5.0,0.0
14305,55.0,25,23,12.0,0.0
14306,46.0,3,60,3.0,0.0
14307,58.0,0,60,3.0,0.0
14308,58.0,2,60,13.0,0.0
14309,46.0,12,60,14.0,0.0
14310,58.0,5,23,11.0,0.0
14311,55.0,3,23,12.0,0.0
14312,58.0,5,23,11.0,0.0
14313,55.0,2,23,12.0,0.0
14314,58.0,5,23,11.0,0.0
14315,55.0,25,23,12.0,0.0
14316,84.0,1,60,10.0,0.0
14317,81.0,3,60,0.0,0.0
14318,84.0,0,60,0.0,0.0
14319,65.0,1,90,6.0,0.0
14320,69.0,4,90,4.0,0.0
14321,60.0,5,23,11.0,0.0
14322,81.0,1,60,1.0,0.0
14323,84.0,0,60,1.0,0.0
14324,69.0,0,60,2.0,0.0
14325,72.0,4,60,2.0,0.0
14326,69.0,8,90,5.0,0.0
14327,57.0,25,23,12.0,0.0
14328,60.0,0,60,3.0,0.0
14329,57.0,3,60,3.0,0.0
14330,57.0,2,60,13.0,0.0
14331,45.0,12,60,14.0,0.0
14332,41.0,11,90,15.0,0.0
14333,60.0,4,23,11.0,0.0
14334,57.0,0,23,12.0,0.0
14335,60.0,5,23,11.0,0.0
14336,57.0,1,23,12.0,0.0
14337,60.0,5,23,11.0,0.0
14338,57.0,25,23,12.0,0.0
14339,60.0,5,23,11.0,0.0
14340,57.0,25,23,12.0,0.0
14341,60.0,5,23,11.0,0.0
14342,57.0,25,23,12.0,0.0
14343,60.0,5,23,11.0,0.0
14344,57.0,25,23,12.0,0.0
14345,60.0,5,23,11.0,0.0
14346,57.0,25,23,12.0,0.0
14347,81.0,1,60,10.0,0.0
14348,57.0,5,23,11.0,0.0
14349,54.0,25,23,12.0,0.0
14350,60.0,2,60,13.0,0.0
14351,48.0,12,60,14.0,0.0
14352,57.0,4,23,11.0,0.0
14353,54.0,11,23,12.0,0.0
14354,57.0,5,23,11.0,0.0
14355,54.0,25,23,12.0,0.0
14356,57.0,5,23,11.0,0.0
14357,54.0,25,23,12.0,0.0
14358,85.0,1,60,10.0,0.0
14359,85.0,3,60,0.0,0.0
14360,82.0,0,60,0.0,0.0
14361,61.0,5,23,11.0,0.0
14362,67.0,4,90,4.0,0.0
14363,82.0,1,60,1.0,0.0
14364,73.0,0,60,1.0,0.0
14365,70.0,4,60,2.0,0.0
14366,73.0,0,60,2.0,0.0
14367,67.0,19,90,5.0,0.0
14368,58.0,25,23,12.0,0.0
14369,58.0,3,60,3.0,0.0
14370,55.0,0,60,3.0,0.0
14371,55.0,2,60,13.0,0.0
14372,43.0,12,60,14.0,0.0
14373,61.0,4,23,11.0,0.0
14374,58.0,0,23,12.0,0.0
14375,61.0,5,23,11.0,0.0
14376,58.0,2,23,12.0,0.0
14377,61.0,5,23,11.0,0.0
14378,58.0,25,23,12.0,0.0
14379,61.0,5,23,11.0,0.0
14380,58.0,25,23,12.0,0.0
14381,61.0,5,23,11.0,0.0
14382,58.0,25,23,12.0,0.0
14383,61.0,5,23,11.0,0.0
14384,58.0,25,23,12.0,0.0
14385,61.0,5,23,11.0,0.0
14386,58.0,25,23,12.0,0.0
14387,82.0,1,60,10.0,0.0
14388,58.0,5,23,11.0,0.0
14389,55.0,25,23,12.0,0.0
14390,58.0,2,60,13.0,0.0
14391,46.0,12,60,14.0,0.0
14392,58.0,4,23,11.0,0.0
14393,55.0,11,23,12.0,0.0
14394,58.0,5,23,11.0,0.0
14395,55.0,25,23,12.0,0.0
14396,58.0,5,23,11.0,0.0
14397,55.0,25,23,12.0,0.0
14398,86.0,1,60,10.0,0.0
14399,83.0,0,60,0.0,0.0
14400,86.0,3,60,0.0,0.0
14401,65.0,1,90,6.0,0.0
14402,59.0,0,23,11.0,0.0
14403,62.0,5,23,11.0,0.0
14404,65.0,4,90,4.0,0.0
14405,74.0,1,60,1.0,0.0
14406,83.0,0,60,1.0,0.0
14407,74.0,4,60,2.0,0.0
14408,71.0,0,60,2.0,0.0
14409,53.0,8,90,5.0,0.0
14410,56.0,0,23,12.0,0.0
14411,53.0,25,23,12.0,0.0
14412,56.0,3,60,3.0,0.0
14413,53.0,0,60,3.0,0.0
14414,41.0,2,60,13.0,0.0
14415,41.0,12,60,14.0,0.0
14416,41.0,11,90,15.0,0.0
14417,62.0,0,23,11.0,0.0
14418,59.0,4,23,11.0,0.0
14419,53.0,0,23,12.0,0.0
14420,56.0,0,23,12.0,0.0
14421,62.0,5,23,11.0,0.0
14422,59.0,0,23,11.0,0.0
14423,56.0,1,23,12.0,0.0
14424,53.0,0,23,12.0,0.0
14425,59.0,5,23,11.0,0.0
14426,62.0,0,23,11.0,0.0
14427,53.0,25,23,12.0,0.0
14428,56.0,0,23,12.0,0.0
14429,62.0,5,23,11.0,0.0
14430,59.0,0,23,11.0,0.0
14431,56.0,0,23,12.0,0.0
14432,53.0,25,23,12.0,0.0
14433,59.0,0,23,11.0,0.0
14434,62.0,5,23,11.0,0.0
14435,56.0,0,23,12.0,0.0
14436,53.0,25,23,12.0,0.0
14437,59.0,5,23,11.0,0.0
14438,62.0,0,23,11.0,0.0
14439,53.0,25,23,12.0,0.0
14440,56.0,0,23,12.0,0.0
14441,59.0,5,23,11.0,0.0
14442,62.0,0,23,11.0,0.0
14443,56.0,0,23,12.0,0.0
14444,53.0,25,23,12.0,0.0
14445,83.0,1,60,10.0,0.0
14446,59.0,5,23,11.0,0.0
14447,50.0,25,23,12.0,0.0
14448,44.0,2,60,13.0,0.0
14449,44.0,12,60,14.0,0.0
14450,59.0,4,23,11.0,0.0
14451,50.0,11,23,12.0,0.0
14452,59.0,5,23,11.0,0.0
14453,50.0,25,23,12.0,0.0
14454,59.0,5,23,11.0,0.0
14455,50.0,25,23,12.0,0.0
14456,88.0,1,60,10.0,0.0
14457,88.0,0,60,0.0,0.0
14458,84.0,0,60,0.0,0.0
14459,60.0,0,90,6.0,0.0
14460,72.0,1,90,6.0,0.0
14461,64.0,0,23,11.0,0.0
14462,60.0,4,90,4.0,0.0
14463,60.0,5,23,11.0,0.0
14464,76.0,0,60,1.0,0.0
14465,84.0,1,60,1.0,0.0
14466,72.0,4,60,2.0,0.0
14467,76.0,0,60,2.0,0.0
14468,48.0,8,90,5.0,0.0
14469,55.0,0,23,12.0,0.0
14470,52.0,25,23,12.0,0.0
14471,55.0,0,60,3.0,0.0
14472,52.0,3,60,3.0,0.0
14473,40.0,2,60,13.0,0.0
14474,40.0,12,60,14.0,0.0
14475,48.0,11,90,15.0,0.0
14476,60.0,0,23,11.0,0.0
14477,64.0,4,23,11.0,0.0
14478,52.0,3,23,12.0,0.0
14479,55.0,0,23,12.0,0.0
14480,64.0,0,23,11.0,0.0
14481,60.0,5,23,11.0,0.0
14482,52.0,1,23,12.0,0.0
14483,55.0,0,23,12.0,0.0
14484,64.0,0,23,11.0,0.0
14485,60.0,5,23,11.0,0.0
14486,55.0,25,23,12.0,0.0
14487,52.0,0,23,12.0,0.0
14488,64.0,5,23,11.0,0.0
14489,60.0,0,23,11.0,0.0
14490,55.0,0,23,12.0,0.0
14491,52.0,25,23,12.0,0.0
14492,64.0,5,23,11.0,0.0
14493,60.0,0,23,11.0,0.0
14494,52.0,25,23,12.0,0.0
14495,55.0,0,23,12.0,0.0
14496,64.0,5,23,11.0,0.0
14497,60.0,0,23,11.0,0.0
14498,52.0,0,23,12.0,0.0
14499,55.0,25,23,12.0,0.0
14500,60.0,0,23,11.0,0.0
14501,64.0,5,23,11.0,0.0
14502,55.0,25,23,12.0,0.0
14503,52.0,0,23,12.0,0.0
14504,84.0,1,60,10.0,0.0
14505,60.0,5,23,11.0,0.0
14506,52.0,25,23,12.0,0.0
14507,43.0,2,60,13.0,0.0
14508,43.0,12,60,14.0,0.0
14509,60.0,4,23,11.0,0.0
14510,52.0,11,23,12.0,0.0
14511,60.0,5,23,11.0,0.0
14512,52.0,25,23,12.0,0.0
14513,60.0,5,23,11.0,0.0
14514,52.0,25,23,12.0,0.0
14515,88.0,1,60,10.0,0.0
14516,84.0,3,60,0.0,0.0
14517,88.0,0,60,0.0,0.0
14518,60.0,0,90,6.0,0.0
14519,72.0,1,90,6.0,0.0
14520,60.0,5,23,11.0,0.0
14521,67.0,0,23,11.0,0.0
14522,60.0,4,90,4.0,0.0
14523,76.0,0,60,1.0,0.0
14524,84.0,1,60,1.0,0.0
14525,72.0,4,60,2.0,0.0
14526,76.0,0,60,2.0,0.0
14527,48.0,8,90,5.0,0.0
14528,64.0,0,23,12.0,0.0
14529,55.0,25,23,12.0,0.0
14530,52.0,3,60,3.0,0.0
14531,55.0,0,60,3.0,0.0
14532,46.0,2,60,13.0,0.0
14533,34.0,12,60,14.0,0.0
14534,48.0,11,90,15.0,0.0
14535,67.0,0,23,11.0,0.0
14536,60.0,4,23,11.0,0.0
14537,64.0,0,23,12.0,0.0
14538,55.0,0,23,12.0,0.0
14539,67.0,5,23,11.0,0.0
14540,60.0,0,23,11.0,0.0
14541,55.0,1,23,12.0,0.0
14542,64.0,0,23,12.0,0.0
14543,67.0,5,23,11.0,0.0
14544,60.0,0,23,11.0,0.0
14545,55.0,25,23,12.0,0.0
14546,64.0,0,23,12.0,0.0
14547,67.0,0,23,11.0,0.0
14548,60.0,5,23,11.0,0.0
14549,55.0,25,23,12.0,0.0
14550,64.0,0,23,12.0,0.0
14551,60.0,0,23,11.0,0.0
14552,67.0,5,23,11.0,0.0
14553,64.0,25,23,12.0,0.0
14554,55.0,0,23,12.0,0.0
14555,60.0,0,23,11.0,0.0
14556,67.0,5,23,11.0,0.0
14557,55.0,25,23,12.0,0.0
14558,64.0,0,23,12.0,0.0
14559,60.0,5,23,11.0,0.0
14560,67.0,0,23,11.0,0.0
14561,64.0,25,23,12.0,0.0
14562,55.0,0,23,12.0,0.0
14563,84.0,1,60,10.0,0.0
14564,88.0,0,60,0.0,0.0
14565,84.0,0,60,0.0,0.0
14566,72.0,1,90,6.0,0.0
14567,60.0,0,90,6.0,0.0
14568,60.0,0,23,11.0,0.0
14569,67.0,5,23,11.0,0.0
14570,60.0,4,90,4.0,0.0
14571,79.0,1,60,1.0,0.0
14572,76.0,0,60,1.0,0.0
14573,76.0,0,60,2.0,0.0
14574,72.0,4,60,2.0,0.0
14575,48.0,8,90,5.0,0.0
14576,64.0,0,23,12.0,0.0
14577,55.0,25,23,12.0,0.0
14578,52.0,3,60,3.0,0.0
14579,55.0,0,60,3.0,0.0
14580,48.0,2,60,13.0,0.0
14581,36.0,12,60,14.0,0.0
14582,48.0,11,90,15.0,0.0
14583,60.0,4,23,11.0,0.0
14584,67.0,0,23,11.0,0.0
14585,55.0,3,23,12.0,0.0
14586,64.0,0,23,12.0,0.0
14587,67.0,5,23,11.0,0.0
14588,60.0,0,23,11.0,0.0
14589,64.0,1,23,12.0,0.0
14590,55.0,0,23,12.0,0.0
14591,60.0,0,23,11.0,0.0
14592,67.0,5,23,11.0,0.0
14593,64.0,25,23,12.0,0.0
14594,55.0,0,23,12.0,0.0
14595,89.0,1,60,10.0,0.0
14596,84.0,0,60,0.0,0.0
14597,89.0,0,60,0.0,0.0
14598,65.0,1,90,6.0,0.0
14599,77.0,0,90,6.0,0.0
14600,65.0,4,90,4.0,0.0
14601,60.0,5,23,11.0,0.0
14602,69.0,0,23,11.0,0.0
14603,77.0,1,60,1.0,0.0
14604,81.0,0,60,1.0,0.0
14605,77.0,4,60,2.0,0.0
14606,72.0,0,60,2.0,0.0
14607,53.0,8,90,5.0,0.0
14608,57.0,25,23,12.0,0.0
14609,65.0,0,23,12.0,0.0
14610,57.0,0,60,3.0,0.0
14611,53.0,3,60,3.0,0.0
14612,45.0,2,60,13.0,0.0
14613,33.0,12,60,14.0,0.0
14614,41.0,11,90,15.0,0.0
14615,69.0,0,23,11.0,0.0
14616,60.0,4,23,11.0,0.0
14617,57.0,3,23,12.0,0.0
14618,65.0,0,23,12.0,0.0
14619,69.0,5,23,11.0,0.0
14620,60.0,0,23,11.0,0.0
14621,65.0,1,23,12.0,0.0
14622,57.0,0,23,12.0,0.0
14623,60.0,0,23,11.0,0.0
14624,69.0,5,23,11.0,0.0
14625,65.0,0,23,12.0,0.0
14626,57.0,25,23,12.0,0.0
14627,60.0,5,23,11.0,0.0
14628,69.0,0,23,11.0,0.0
14629,57.0,25,23,12.0,0.0
14630,65.0,0,23,12.0,0.0
14631,69.0,5,23,11.0,0.0
14632,60.0,0,23,11.0,0.0
14633,65.0,0,23,12.0,0.0
14634,57.0,25,23,12.0,0.0
14635,69.0,5,23,11.0,0.0
14636,60.0,0,23,11.0,0.0
14637,65.0,25,23,12.0,0.0
14638,57.0,0,23,12.0,0.0
14639,60.0,0,23,11.0,0.0
14640,69.0,5,23,11.0,0.0
14641,57.0,0,23,12.0,0.0
14642,65.0,25,23,12.0,0.0
14643,86.0,1,60,10.0,0.0
14644,86.0,0,60,0.0,0.0
14645,77.0,1,90,6.0,0.0
14646,65.0,0,90,6.0,0.0
14647,65.0,4,90,4.0,0.0
14648,74.0,5,23,11.0,0.0
14649,74.0,0,60,1.0,0.0
14650,86.0,1,60,1.0,0.0
14651,74.0,4,60,2.0,0.0
14652,53.0,8,90,5.0,0.0
14653,62.0,25,23,12.0,0.0
14654,62.0,0,60,3.0,0.0
14655,50.0,3,60,3.0,0.0
14656,50.0,2,60,13.0,0.0
14657,38.0,12,60,14.0,0.0
14658,41.0,11,90,15.0,0.0
14659,74.0,4,23,11.0,0.0
14660,62.0,3,23,12.0,0.0
14661,74.0,5,23,11.0,0.0
14662,62.0,1,23,12.0,0.0
14663,74.0,5,23,11.0,0.0
14664,62.0,25,23,12.0,0.0
14665,82.0,1,60,10.0,0.0
14666,82.0,0,60,0.0,0.0
14667,65.0,1,90,6.0,0.0
14668,77.0,0,90,6.0,0.0
14669,70.0,5,23,11.0,0.0
14670,65.0,4,90,4.0,0.0
14671,82.0,1,60,1.0,0.0
14672,70.0,0,60,1.0,0.0
14673,70.0,4,60,2.0,0.0
14674,53.0,8,90,5.0,0.0
14675,58.0,25,23,12.0,0.0
14676,58.0,0,60,3.0,0.0
14677,46.0,3,60,3.0,0.0
14678,46.0,2,60,13.0,0.0
14679,34.0,12,60,14.0,0.0
14680,41.0,11,90,15.0,0.0
14681,70.0,4,23,11.0,0.0
14682,58.0,3,23,12.0,0.0
14683,70.0,5,23,11.0,0.0
14684,58.0,1,23,12.0,0.0
14685,70.0,5,23,11.0,0.0
14686,58.0,25,23,12.0,0.0
14687,70.0,5,23,11.0,0.0
14688,58.0,25,23,12.0,0.0
14689,70.0,5,23,11.0,0.0
14690,58.0,25,23,12.0,0.0
14691,70.0,5,23,11.0,0.0
14692,58.0,25,23,12.0,0.0
14693,70.0,5,23,11.0,0.0
14694,58.0,25,23,12.0,0.0
14695,79.0,1,60,10.0,0.0
14696,79.0,3,60,0.0,0.0
14697,65.0,0,90,6.0,0.0
14698,77.0,1,90,6.0,0.0
14699,67.0,5,23,11.0,0.0
14700,65.0,4,90,4.0,0.0
14701,79.0,0,60,1.0,0.0
14702,67.0,1,60,1.0,0.0
14703,67.0,4,60,2.0,0.0
14704,53.0,8,90,5.0,0.0
14705,55.0,25,23,12.0,0.0
14706,55.0,0,60,3.0,0.0
14707,43.0,3,60,3.0,0.0
14708,43.0,2,60,13.0,0.0
14709,43.0,12,60,14.0,0.0
14710,41.0,11,90,15.0,0.0
14711,67.0,4,23,11.0,0.0
14712,55.0,0,23,12.0,0.0
14713,67.0,5,23,11.0,0.0
14714,55.0,1,23,12.0,0.0
14715,67.0,5,23,11.0,0.0
14716,55.0,25,23,12.0,0.0
14717,84.0,1,60,10.0,0.0
14718,84.0,3,60,0.0,0.0
14719,60.0,1,90,6.0,0.0
14720,72.0,0,90,6.0,0.0
14721,60.0,4,90,4.0,0.0
14722,72.0,5,23,11.0,0.0
14723,84.0,1,60,1.0,0.0
14724,72.0,0,60,1.0,0.0
14725,72.0,4,60,2.0,0.0
14726,48.0,8,90,5.0,0.0
14727,60.0,25,23,12.0,0.0
14728,48.0,0,60,3.0,0.0
14729,60.0,3,60,3.0,0.0
14730,48.0,2,60,13.0,0.0
14731,48.0,12,60,14.0,0.0
14732,48.0,11,90,15.0,0.0
14733,72.0,4,23,11.0,0.0
14734,60.0,0,23,12.0,0.0
14735,72.0,5,23,11.0,0.0
14736,60.0,1,23,12.0,0.0
14737,72.0,5,23,11.0,0.0
14738,60.0,25,23,12.0,0.0
14739,72.0,5,23,11.0,0.0
14740,60.0,25,23,12.0,0.0
14741,72.0,5,23,11.0,0.0
14742,60.0,25,23,12.0,0.0
14743,72.0,5,23,11.0,0.0
14744,60.0,25,23,12.0,0.0
14745,72.0,5,23,11.0,0.0
14746,60.0,25,23,12.0,0.0
14747,72.0,1,60,10.0,0.0
14748,84.0,3,60,0.0,0.0
14749,72.0,1,90,6.0,0.0
14750,60.0,0,90,6.0,0.0
14751,60.0,4,90,4.0,0.0
14752,60.0,5,23,11.0,0.0
14753,72.0,1,60,1.0,0.0
14754,72.0,4,60,2.0,0.0
14755,48.0,8,90,5.0,0.0
14756,48.0,25,23,12.0,0.0
14757,48.0,3,60,3.0,0.0
14758,36.0,2,60,13.0,0.0
14759,36.0,12,60,14.0,0.0
14760,48.0,11,90,15.0,0.0
14761,60.0,4,23,11.0,0.0
14762,48.0,0,23,12.0,0.0
14763,60.0,5,23,11.0,0.0
14764,48.0,1,23,12.0,0.0
14765,60.0,5,23,11.0,0.0
14766,48.0,82,23,12.0,0.0
14767,81.0,1,85,10.0,0.0
14768,81.0,0,85,0.0,0.0
14769,89.0,1,85,0.0,0.0
14770,77.0,1,85,6.0,0.0
14771,65.0,0,85,6.0,0.0
14772,72.0,2,80,11.0,0.0
14773,65.0,0,85,4.0,0.0
14774,77.0,1,85,1.0,0.0
14775,81.0,0,85,1.0,0.0
14776,65.0,2,85,2.0,0.0
14777,77.0,0,85,2.0,0.0
14778,53.0,2,85,5.0,0.0
14779,65.0,1,80,12.0,0.0
14780,60.0,0,85,3.0,0.0
14781,57.0,6,85,3.0,0.0
14782,53.0,0,80,13.0,0.0
14783,41.0,0,80,14.0,0.0
14784,41.0,13,85,15.0,0.0
14785,81.0,3,23,10.0,0.0
14786,81.0,0,25,0.0,0.0
14787,89.0,1,25,0.0,0.0
14788,77.0,1,25,6.0,0.0
14789,65.0,0,25,6.0,0.0
14790,65.0,1,25,4.0,0.0
14791,72.0,0,23,11.0,0.0
14792,81.0,1,25,1.0,0.0
14793,77.0,0,25,1.0,0.0
14794,65.0,1,25,2.0,0.0
14795,77.0,0,25,2.0,0.0
14796,53.0,2,25,5.0,0.0
14797,65.0,1,23,12.0,0.0
14798,57.0,1,25,3.0,0.0
14799,60.0,0,25,3.0,0.0
14800,53.0,2,23,13.0,0.0
14801,41.0,3,23,14.0,0.0
14802,41.0,50,25,15.0,0.0
14803,79.0,1,60,10.0,0.0
14804,79.0,2,60,0.0,0.0
14805,88.0,0,60,0.0,0.0
14806,77.0,0,90,6.0,0.0
14807,65.0,1,90,6.0,0.0
14808,73.0,1,60,11.0,0.0
14809,65.0,4,90,4.0,0.0
14810,79.0,1,60,1.0,0.0
14811,76.0,0,60,1.0,0.0
14812,64.0,3,60,2.0,0.0
14813,76.0,0,60,2.0,0.0
14814,53.0,8,90,5.0,0.0
14815,64.0,1,60,12.0,0.0
14816,58.0,3,60,3.0,0.0
14817,61.0,0,60,3.0,0.0
14818,46.0,2,60,13.0,0.0
14819,34.0,18,60,14.0,0.0
14820,41.0,98,90,15.0,0.0
14821,82.0,1,85,10.0,0.0
14822,82.0,1,85,0.0,0.0
14823,91.0,0,85,0.0,0.0
14824,65.0,1,85,6.0,0.0
14825,77.0,0,85,6.0,0.0
14826,65.0,1,85,4.0,0.0
14827,73.0,2,80,11.0,0.0
14828,82.0,0,85,1.0,0.0
14829,79.0,1,85,1.0,0.0
14830,76.0,2,85,2.0,0.0
14831,64.0,0,85,2.0,0.0
14832,53.0,2,85,5.0,0.0
14833,64.0,0,80,12.0,0.0
14834,61.0,6,85,3.0,0.0
14835,58.0,0,85,3.0,0.0
14836,46.0,0,80,13.0,0.0
14837,34.0,0,80,14.0,0.0
14838,41.0,13,85,15.0,0.0
14839,82.0,3,23,10.0,0.0
14840,82.0,1,25,0.0,0.0
14841,91.0,0,25,0.0,0.0
14842,65.0,0,25,6.0,0.0
14843,77.0,1,25,6.0,0.0
14844,73.0,0,23,11.0,0.0
14845,65.0,1,25,4.0,0.0
14846,82.0,1,25,1.0,0.0
14847,79.0,0,25,1.0,0.0
14848,64.0,0,25,2.0,0.0
14849,76.0,1,25,2.0,0.0
14850,53.0,2,25,5.0,0.0
14851,64.0,1,23,12.0,0.0
14852,58.0,1,25,3.0,0.0
14853,61.0,0,25,3.0,0.0
14854,46.0,2,23,13.0,0.0
14855,34.0,3,23,14.0,0.0
14856,41.0,50,25,15.0,0.0
14857,81.0,1,60,10.0,0.0
14858,81.0,0,60,0.0,0.0
14859,89.0,2,60,0.0,0.0
14860,77.0,1,90,6.0,0.0
14861,65.0,0,90,6.0,0.0
14862,65.0,4,90,4.0,0.0
14863,72.0,1,60,11.0,0.0
14864,81.0,0,60,1.0,0.0
14865,77.0,1,60,1.0,0.0
14866,65.0,0,60,2.0,0.0
14867,77.0,3,60,2.0,0.0
14868,53.0,8,90,5.0,0.0
14869,65.0,1,60,12.0,0.0
14870,57.0,0,60,3.0,0.0
14871,60.0,3,60,3.0,0.0
14872,53.0,2,60,13.0,0.0
14873,41.0,18,60,14.0,0.0
14874,41.0,98,90,15.0,0.0
14875,86.0,1,85,10.0,0.0
14876,82.0,0,85,0.0,0.0
14877,86.0,1,85,0.0,0.0
14878,65.0,0,85,6.0,0.0
14879,77.0,1,85,6.0,0.0
14880,65.0,0,85,4.0,0.0
14881,74.0,2,80,11.0,0.0
14882,82.0,0,85,1.0,0.0
14883,86.0,1,85,1.0,0.0
14884,62.0,2,85,2.0,0.0
14885,74.0,0,85,2.0,0.0
14886,53.0,2,85,5.0,0.0
14887,65.0,1,80,12.0,0.0
14888,58.0,6,85,3.0,0.0
14889,62.0,0,85,3.0,0.0
14890,46.0,0,80,13.0,0.0
14891,34.0,0,80,14.0,0.0
14892,41.0,13,85,15.0,0.0
14893,86.0,3,23,10.0,0.0
14894,82.0,0,25,0.0,0.0
14895,86.0,0,25,0.0,0.0
14896,77.0,1,25,6.0,0.0
14897,65.0,0,25,6.0,0.0
14898,76.0,1,23,11.0,0.0
14899,65.0,1,25,4.0,0.0
14900,86.0,0,25,1.0,0.0
14901,82.0,1,25,1.0,0.0
14902,76.0,0,25,2.0,0.0
14903,64.0,1,25,2.0,0.0
14904,53.0,2,25,5.0,0.0
14905,67.0,1,23,12.0,0.0
14906,58.0,1,25,3.0,0.0
14907,62.0,0,25,3.0,0.0
14908,46.0,2,23,13.0,0.0
14909,34.0,3,23,14.0,0.0
14910,41.0,50,25,15.0,0.0
14911,84.0,1,60,10.0,0.0
14912,84.0,0,60,0.0,0.0
14913,81.0,2,60,0.0,0.0
14914,77.0,1,90,6.0,0.0
14915,65.0,0,90,6.0,0.0
14916,65.0,4,90,4.0,0.0
14917,77.0,1,60,11.0,0.0
14918,81.0,0,60,1.0,0.0
14919,84.0,1,60,1.0,0.0
14920,65.0,0,60,2.0,0.0
14921,77.0,3,60,2.0,0.0
14922,53.0,8,90,5.0,0.0
14923,69.0,1,60,12.0,0.0
14924,60.0,0,60,3.0,0.0
14925,57.0,3,60,3.0,0.0
14926,53.0,2,60,13.0,0.0
14927,41.0,18,60,14.0,0.0
14928,41.0,98,90,15.0,0.0
14929,86.0,1,85,10.0,0.0
14930,86.0,1,85,0.0,0.0
14931,82.0,0,85,0.0,0.0
14932,77.0,1,85,6.0,0.0
14933,65.0,0,85,6.0,0.0
14934,65.0,0,85,4.0,0.0
14935,74.0,2,80,11.0,0.0
14936,86.0,1,85,1.0,0.0
14937,82.0,0,85,1.0,0.0
14938,62.0,0,85,2.0,0.0
14939,74.0,2,85,2.0,0.0
14940,53.0,0,85,5.0,0.0
14941,65.0,1,80,12.0,0.0
14942,62.0,6,85,3.0,0.0
14943,58.0,0,85,3.0,0.0
14944,46.0,2,80,13.0,0.0
14945,34.0,0,80,14.0,0.0
14946,41.0,13,85,15.0,0.0
14947,86.0,3,23,10.0,0.0
14948,82.0,0,25,0.0,0.0
14949,86.0,0,25,0.0,0.0
14950,65.0,1,25,6.0,0.0
14951,77.0,0,25,6.0,0.0
14952,76.0,1,23,11.0,0.0
14953,65.0,1,25,4.0,0.0
14954,86.0,0,25,1.0,0.0
14955,82.0,1,25,1.0,0.0
14956,76.0,1,25,2.0,0.0
14957,64.0,0,25,2.0,0.0
14958,53.0,2,25,5.0,0.0
14959,67.0,1,23,12.0,0.0
14960,62.0,0,25,3.0,0.0
14961,58.0,1,25,3.0,0.0
14962,46.0,2,23,13.0,0.0
14963,34.0,3,23,14.0,0.0
14964,41.0,50,25,15.0,0.0
14965,84.0,1,60,10.0,0.0
14966,81.0,0,60,0.0,0.0
14967,84.0,2,60,0.0,0.0
14968,65.0,1,90,6.0,0.0
14969,77.0,0,90,6.0,0.0
14970,77.0,1,60,11.0,0.0
14971,65.0,4,90,4.0,0.0
14972,81.0,1,60,1.0,0.0
14973,84.0,0,60,1.0,0.0
14974,77.0,3,60,2.0,0.0
14975,65.0,0,60,2.0,0.0
14976,53.0,8,90,5.0,0.0
14977,69.0,1,60,12.0,0.0
14978,60.0,0,60,3.0,0.0
14979,57.0,3,60,3.0,0.0
14980,53.0,2,60,13.0,0.0
14981,41.0,18,60,14.0,0.0
14982,41.0,139,90,15.0,0.0
14983,84.0,1,120,1.0,0.0
14984,72.0,239,120,2.0,0.0
14985,83.0,1,240,1.0,0.0
14986,71.0,118,240,2.0,0.0
14987,69.0,1,120,11.0,0.0
14988,84.0,1,120,1.0,0.0
14989,72.0,115,120,2.0,0.0
14990,67.0,57,120,11.0,0.0
14991,82.0,1,240,1.0,0.0
14992,70.0,55,240,2.0,0.0
14993,82.0,3,60,10.0,0.0
14994,77.0,60,60,10.0,0.0
14995,64.0,1,120,11.0,0.0
14996,79.0,3,60,10.0,0.0
14997,81.0,60,60,10.0,0.0
14998,65.0,0,120,11.0,0.0
14999,72.0,1,120,4.0,0.0
15000,81.0,1,120,1.0,0.0
15001,69.0,115,120,2.0,0.0
15002,77.0,3,60,10.0,0.0
15003,70.0,1,240,4.0,0.0
15004,79.0,1,240,1.0,0.0
15005,67.0,4,240,2.0,0.0
15006,79.0,60,60,10.0,0.0
15007,74.0,60,60,10.0,0.0
15008,67.0,0,120,11.0,0.0
15009,76.0,3,60,10.0,0.0
15010,77.0,60,60,10.0,0.0
15011,84.0,2,120,0.0,0.0
15012,69.0,0,120,4.0,0.0
15013,69.0,1,120,11.0,0.0
15014,77.0,1,120,1.0,0.0
15015,65.0,118,120,2.0,0.0
15016,60.0,51,0,3.0,0.0
15017,72.0,1,60,10.0,0.0
15018,82.0,2,240,0.0,0.0
15019,67.0,1,240,4.0,0.0
15020,76.0,1,240,1.0,0.0
15021,64.0,4,240,2.0,0.0
15022,67.0,54,240,3.0,0.0
15023,70.0,60,60,11.0,0.0
15024,76.0,1,120,10.0,0.0
15025,65.0,57,60,11.0,0.0
15026,67.0,0,60,11.0,0.0
15027,77.0,1,120,10.0,0.0
15028,81.0,2,120,0.0,0.0
15029,69.0,57,60,11.0,0.0
15030,65.0,0,120,4.0,0.0
15031,77.0,1,120,1.0,0.0
15032,65.0,4,120,2.0,0.0
15033,65.0,114,120,3.0,0.0
15034,65.0,1,60,11.0,0.0
15035,79.0,2,240,0.0,0.0
15036,67.0,0,240,4.0,0.0
15037,79.0,59,120,1.0,0.0
15038,67.0,4,240,2.0,0.0
15039,64.0,54,240,3.0,0.0
15040,67.0,1,60,11.0,0.0
15041,79.0,1,120,10.0,0.0
15042,62.0,57,60,11.0,0.0
15043,72.0,1,120,1.0,0.0
15044,64.0,1,60,11.0,0.0
15045,81.0,1,120,10.0,0.0
15046,81.0,2,120,0.0,0.0
15047,65.0,1,115,4.0,0.0
15048,65.0,55,60,11.0,0.0
15049,77.0,1,115,1.0,0.0
15050,69.0,4,120,2.0,0.0
15051,63.0,0,120,3.0,0.0
15052,60.0,2,60,11.0,0.0
15053,82.0,2,240,0.0,0.0
15054,65.0,0,120,4.0,0.0
15055,77.0,1,240,1.0,0.0
15056,65.0,0,240,2.0,0.0
15057,58.0,51,240,3.0,0.0
15058,62.0,0,240,3.0,0.0
15059,82.0,3,60,10.0,0.0
15060,70.0,57,60,11.0,0.0
15061,81.0,3,60,10.0,0.0
15062,69.0,57,60,11.0,0.0
15063,82.0,1,60,10.0,0.0
15064,70.0,1,60,11.0,0.0
15065,84.0,3,60,10.0,0.0
15066,86.0,2,120,0.0,0.0
15067,72.0,57,60,11.0,0.0
15068,82.0,1,120,1.0,0.0
15069,74.0,4,120,2.0,0.0
15070,70.0,4,0,2.0,0.0
15071,67.0,0,120,3.0,0.0
15072,55.0,111,120,3.0,0.0
15073,86.0,1,60,10.0,0.0
15074,74.0,1,60,11.0,0.0
15075,84.0,2,240,0.0,0.0
15076,81.0,1,240,1.0,0.0
15077,69.0,0,240,2.0,0.0
15078,72.0,2,240,2.0,0.0
15079,60.0,0,235,3.0,0.0
15080,86.0,3,60,10.0,0.0
15081,74.0,57,60,11.0,0.0
15082,83.0,3,60,10.0,0.0
15083,71.0,57,60,11.0,0.0
15084,69.0,1,120,4.0,0.0
15085,65.0,53,120,5.0,0.0
15086,84.0,1,60,10.0,0.0
15087,72.0,0,60,11.0,0.0
15088,86.0,3,60,10.0,0.0
15089,88.0,2,120,0.0,0.0
15090,74.0,57,60,11.0,0.0
15091,67.0,0,120,4.0,0.0
15092,79.0,1,120,1.0,0.0
15093,76.0,0,120,2.0,0.0
15094,67.0,2,120,2.0,0.0
15095,60.0,2,120,5.0,0.0
15096,48.0,0,120,3.0,0.0
15097,84.0,1,60,10.0,0.0
15098,81.0,3,80,10.0,0.0
15099,81.0,0,85,0.0,0.0
15100,89.0,1,85,0.0,0.0
15101,65.0,1,85,6.0,0.0
15102,77.0,0,85,6.0,0.0
15103,72.0,1,0,11.0,0.0
15104,65.0,1,85,4.0,0.0
15105,81.0,1,85,1.0,0.0
15106,77.0,0,85,1.0,0.0
15107,77.0,0,85,2.0,0.0
15108,65.0,2,85,2.0,0.0
15109,53.0,2,85,5.0,0.0
15110,65.0,0,80,12.0,0.0
15111,60.0,71,0,3.0,0.0
15112,57.0,0,85,3.0,0.0
15113,53.0,0,80,13.0,0.0
15114,41.0,6,80,14.0,0.0
15115,41.0,13,85,15.0,0.0
15116,81.0,3,23,10.0,0.0
15117,89.0,1,25,0.0,0.0
15118,81.0,0,25,0.0,0.0
15119,65.0,0,25,6.0,0.0
15120,77.0,1,25,6.0,0.0
15121,65.0,1,25,4.0,0.0
15122,72.0,0,23,11.0,0.0
15123,81.0,1,25,1.0,0.0
15124,77.0,0,25,1.0,0.0
15125,65.0,1,25,2.0,0.0
15126,77.0,0,25,2.0,0.0
15127,53.0,2,25,5.0,0.0
15128,65.0,1,23,12.0,0.0
15129,60.0,1,25,3.0,0.0
15130,57.0,0,25,3.0,0.0
15131,53.0,2,23,13.0,0.0
15132,41.0,3,23,14.0,0.0
15133,41.0,50,25,15.0,0.0
15134,79.0,1,60,10.0,0.0
15135,88.0,2,60,0.0,0.0
15136,79.0,0,60,0.0,0.0
15137,77.0,0,90,6.0,0.0
15138,65.0,1,90,6.0,0.0
15139,65.0,4,90,4.0,0.0
15140,73.0,1,60,11.0,0.0
15141,76.0,0,60,1.0,0.0
15142,79.0,1,60,1.0,0.0
15143,76.0,3,60,2.0,0.0
15144,64.0,0,60,2.0,0.0
15145,53.0,8,90,5.0,0.0
15146,64.0,1,60,12.0,0.0
15147,58.0,0,60,3.0,0.0
15148,61.0,3,60,3.0,0.0
15149,46.0,2,60,13.0,0.0
15150,34.0,18,60,14.0,0.0
15151,41.0,95,90,15.0,0.0
15152,82.0,3,80,10.0,0.0
15153,82.0,1,85,0.0,0.0
15154,91.0,0,85,0.0,0.0
15155,65.0,0,85,6.0,0.0
15156,77.0,1,85,6.0,0.0
15157,65.0,0,85,4.0,0.0
15158,73.0,3,80,11.0,0.0
15159,79.0,0,85,1.0,0.0
15160,82.0,1,85,1.0,0.0
15161,76.0,0,85,2.0,0.0
15162,64.0,2,85,2.0,0.0
15163,53.0,2,85,5.0,0.0
15164,64.0,1,80,12.0,0.0
15165,58.0,0,85,3.0,0.0
15166,61.0,0,85,3.0,0.0
15167,46.0,0,80,13.0,0.0
15168,34.0,6,80,14.0,0.0
15169,41.0,13,85,15.0,0.0
15170,82.0,3,23,10.0,0.0
15171,91.0,0,25,0.0,0.0
15172,82.0,0,25,0.0,0.0
15173,77.0,0,25,6.0,0.0
15174,65.0,1,25,6.0,0.0
15175,65.0,1,25,4.0,0.0
15176,73.0,1,23,11.0,0.0
15177,82.0,1,25,1.0,0.0
15178,79.0,0,25,1.0,0.0
15179,76.0,1,25,2.0,0.0
15180,64.0,0,25,2.0,0.0
15181,53.0,2,25,5.0,0.0
15182,64.0,1,23,12.0,0.0
15183,61.0,0,25,3.0,0.0
15184,58.0,1,25,3.0,0.0
15185,46.0,2,23,13.0,0.0
15186,34.0,3,23,14.0,0.0
15187,41.0,50,25,15.0,0.0
15188,81.0,1,60,10.0,0.0
15189,81.0,0,60,0.0,0.0
15190,89.0,2,60,0.0,0.0
15191,77.0,1,90,6.0,0.0
15192,65.0,0,90,6.0,0.0
15193,65.0,4,90,4.0,0.0
15194,72.0,1,60,11.0,0.0
15195,77.0,0,60,1.0,0.0
15196,81.0,1,60,1.0,0.0
15197,77.0,3,60,2.0,0.0
15198,65.0,0,60,2.0,0.0
15199,53.0,8,90,5.0,0.0
15200,65.0,1,60,12.0,0.0
15201,57.0,3,60,3.0,0.0
15202,60.0,0,60,3.0,0.0
15203,53.0,2,60,13.0,0.0
15204,41.0,18,60,14.0,0.0
15205,41.0,95,90,15.0,0.0
15206,86.0,3,80,10.0,0.0
15207,86.0,1,85,0.0,0.0
15208,82.0,0,85,0.0,0.0
15209,77.0,0,85,6.0,0.0
15210,65.0,1,85,6.0,0.0
15211,65.0,1,85,4.0,0.0
15212,74.0,3,80,11.0,0.0
15213,86.0,1,85,1.0,0.0
15214,82.0,0,85,1.0,0.0
15215,62.0,0,85,2.0,0.0
15216,74.0,2,85,2.0,0.0
15217,53.0,2,85,5.0,0.0
15218,65.0,0,80,12.0,0.0
15219,58.0,6,85,3.0,0.0
15220,62.0,0,85,3.0,0.0
15221,46.0,0,80,13.0,0.0
15222,34.0,0,80,14.0,0.0
15223,41.0,13,85,15.0,0.0
15224,86.0,3,23,10.0,0.0
15225,86.0,1,25,0.0,0.0
15226,82.0,0,25,0.0,0.0
15227,77.0,1,25,6.0,0.0
15228,65.0,0,25,6.0,0.0
15229,65.0,1,25,4.0,0.0
15230,76.0,0,23,11.0,0.0
15231,82.0,1,25,1.0,0.0
15232,86.0,0,25,1.0,0.0
15233,76.0,0,25,2.0,0.0
15234,64.0,1,25,2.0,0.0
15235,53.0,2,25,5.0,0.0
15236,67.0,1,23,12.0,0.0
15237,62.0,1,25,3.0,0.0
15238,58.0,0,25,3.0,0.0
15239,46.0,2,23,13.0,0.0
15240,34.0,3,23,14.0,0.0
15241,41.0,50,25,15.0,0.0
15242,84.0,1,60,10.0,0.0
15243,81.0,2,60,0.0,0.0
15244,84.0,0,60,0.0,0.0
15245,77.0,1,90,6.0,0.0
15246,65.0,0,90,6.0,0.0
15247,77.0,1,60,11.0,0.0
15248,65.0,4,90,4.0,0.0
15249,81.0,1,60,1.0,0.0
15250,84.0,0,60,1.0,0.0
15251,77.0,0,60,2.0,0.0
15252,65.0,3,60,2.0,0.0
15253,53.0,8,90,5.0,0.0
15254,69.0,1,60,12.0,0.0
15255,57.0,0,60,3.0,0.0
15256,60.0,3,60,3.0,0.0
15257,53.0,2,60,13.0,0.0
15258,41.0,18,60,14.0,0.0
15259,41.0,95,90,15.0,0.0
15260,86.0,3,80,10.0,0.0
15261,86.0,0,85,0.0,0.0
15262,82.0,1,85,0.0,0.0
15263,77.0,1,85,6.0,0.0
15264,65.0,0,85,6.0,0.0
15265,65.0,0,85,4.0,0.0
15266,74.0,3,80,11.0,0.0
15267,82.0,0,85,1.0,0.0
15268,86.0,1,85,1.0,0.0
15269,74.0,2,85,2.0,0.0
15270,62.0,0,85,2.0,0.0
15271,53.0,2,85,5.0,0.0
15272,65.0,1,80,12.0,0.0
15273,58.0,0,85,3.0,0.0
15274,62.0,6,85,3.0,0.0
15275,46.0,0,80,13.0,0.0
15276,34.0,0,80,14.0,0.0
15277,41.0,13,85,15.0,0.0
15278,86.0,3,23,10.0,0.0
15279,82.0,1,25,0.0,0.0
15280,86.0,0,25,0.0,0.0
15281,77.0,1,25,6.0,0.0
15282,65.0,0,25,6.0,0.0
15283,76.0,0,23,11.0,0.0
15284,65.0,1,25,4.0,0.0
15285,82.0,1,25,1.0,0.0
15286,86.0,0,25,1.0,0.0
15287,64.0,0,25,2.0,0.0
15288,76.0,1,25,2.0,0.0
15289,53.0,2,25,5.0,0.0
15290,67.0,1,23,12.0,0.0
15291,62.0,1,25,3.0,0.0
15292,58.0,0,25,3.0,0.0
15293,46.0,2,23,13.0,0.0
15294,34.0,3,23,14.0,0.0
15295,41.0,50,25,15.0,0.0
15296,84.0,1,60,10.0,0.0
15297,81.0,2,60,0.0,0.0
15298,84.0,0,60,0.0,0.0
15299,65.0,0,90,6.0,0.0
15300,77.0,1,90,6.0,0.0
15301,65.0,4,90,4.0,0.0
15302,77.0,1,60,11.0,0.0
15303,81.0,1,60,1.0,0.0
15304,84.0,0,60,1.0,0.0
15305,65.0,0,60,2.0,0.0
15306,77.0,3,60,2.0,0.0
15307,53.0,8,90,5.0,0.0
15308,69.0,1,60,12.0,0.0
15309,60.0,0,60,3.0,0.0
15310,57.0,3,60,3.0,0.0
15311,53.0,2,60,13.0,0.0
15312,41.0,18,60,14.0,0.0
15313,41.0,143,90,15.0,0.0
15314,60.0,4,120,12.0,0.0
15315,60.0,236,120,13.0,0.0
15316,59.0,4,240,12.0,0.0
15317,59.0,108,240,13.0,0.0
15318,69.0,8,120,10.0,0.0
15319,72.0,1,1435,1.0,0.0
15320,60.0,1,1440,5.0,0.0
15321,60.0,4,120,12.0,0.0
15322,48.0,0,1560,3.0,0.0
15323,60.0,103,120,13.0,0.0
15324,67.0,8,115,10.0,0.0
15325,58.0,4,240,12.0,0.0
15326,58.0,51,240,13.0,0.0
15327,79.0,60,60,11.0,0.0
15328,67.0,3,120,10.0,0.0
15329,74.0,57,60,11.0,0.0
15330,76.0,5,60,11.0,0.0
15331,69.0,3,120,10.0,0.0
15332,77.0,57,60,11.0,0.0
15333,84.0,1,120,1.0,0.0
15334,72.0,3,120,2.0,0.0
15335,57.0,1,120,12.0,0.0
15336,60.0,3,120,3.0,0.0
15337,57.0,111,120,13.0,0.0
15338,72.0,1,60,11.0,0.0
15339,82.0,1,240,1.0,0.0
15340,70.0,3,240,2.0,0.0
15341,55.0,1,240,12.0,0.0
15342,58.0,3,240,3.0,0.0
15343,55.0,51,240,13.0,0.0
15344,70.0,60,60,11.0,0.0
15345,79.0,3,120,10.0,0.0
15346,65.0,57,60,11.0,0.0
15347,67.0,1,60,11.0,0.0
15348,81.0,3,120,10.0,0.0
15349,69.0,57,60,11.0,0.0
15350,81.0,1,120,1.0,0.0
15351,69.0,3,120,2.0,0.0
15352,53.0,1,120,12.0,0.0
15353,57.0,3,120,3.0,0.0
15354,53.0,108,120,13.0,0.0
15355,65.0,1,60,11.0,0.0
15356,70.0,1,240,4.0,0.0
15357,79.0,1,240,1.0,0.0
15358,67.0,3,240,2.0,0.0
15359,52.0,1,240,12.0,0.0
15360,55.0,3,240,3.0,0.0
15361,52.0,48,240,13.0,0.0
15362,82.0,60,60,10.0,0.0
15363,77.0,60,60,10.0,0.0
15364,67.0,0,120,11.0,0.0
15365,79.0,3,60,10.0,0.0
15366,81.0,60,60,10.0,0.0
15367,89.0,2,120,0.0,0.0
15368,84.0,3,355,0.0,0.0
15369,69.0,1,120,11.0,0.0
15370,69.0,0,120,4.0,0.0
15371,77.0,1,120,1.0,0.0
15372,65.0,3,120,2.0,0.0
15373,60.0,1,355,2.0,0.0
15374,53.0,1,120,12.0,0.0
15375,53.0,3,120,3.0,0.0
15376,53.0,108,120,13.0,0.0
15377,77.0,1,60,10.0,0.0
15378,88.0,2,240,0.0,0.0
15379,67.0,1,240,4.0,0.0
15380,76.0,1,240,1.0,0.0
15381,64.0,2,240,2.0,0.0
15382,55.0,1,240,12.0,0.0
15383,55.0,3,240,3.0,0.0
15384,55.0,48,240,13.0,0.0
15385,79.0,60,60,10.0,0.0
15386,74.0,56,60,10.0,0.0
15387,70.0,0,120,11.0,0.0
15388,76.0,0,60,10.0,0.0
15389,77.0,60,60,10.0,0.0
15390,87.0,0,120,0.0,0.0
15391,84.0,2,120,0.0,0.0
15392,65.0,0,240,4.0,0.0
15393,72.0,1,120,11.0,0.0
15394,72.0,1,120,1.0,0.0
15395,75.0,0,120,1.0,0.0
15396,60.0,0,120,2.0,0.0
15397,63.0,3,120,2.0,0.0
15398,53.0,53,240,5.0,0.0
15399,57.0,1,120,12.0,0.0
15400,57.0,3,120,3.0,0.0
15401,57.0,108,120,13.0,0.0
15402,72.0,1,60,10.0,0.0
15403,82.0,3,235,0.0,0.0
15404,86.0,0,235,0.0,0.0
15405,74.0,1,235,1.0,0.0
15406,70.0,0,235,1.0,0.0
15407,62.0,0,235,2.0,0.0
15408,53.0,3,240,2.0,0.0
15409,58.0,1,240,12.0,0.0
15410,46.0,0,240,3.0,0.0
15411,58.0,3,240,3.0,0.0
15412,58.0,48,240,13.0,0.0
15413,74.0,3,60,10.0,0.0
15414,62.0,4,60,11.0,0.0
15415,69.0,3,60,10.0,0.0
15416,57.0,53,60,11.0,0.0
15417,70.0,3,60,10.0,0.0
15418,58.0,2,60,11.0,0.0
15419,72.0,3,60,10.0,0.0
15420,82.0,2,120,0.0,0.0
15421,86.0,0,120,0.0,0.0
15422,60.0,57,60,11.0,0.0
15423,70.0,0,120,1.0,0.0
15424,74.0,1,120,1.0,0.0
15425,62.0,0,120,2.0,0.0
15426,58.0,3,120,2.0,0.0
15427,55.0,1,120,12.0,0.0
15428,55.0,0,120,3.0,0.0
15429,43.0,3,120,3.0,0.0
15430,55.0,108,120,13.0,0.0
15431,74.0,1,60,10.0,0.0
15432,62.0,1,60,11.0,0.0
15433,84.0,2,240,0.0,0.0
15434,81.0,0,240,0.0,0.0
15435,72.0,1,240,1.0,0.0
15436,69.0,0,240,1.0,0.0
15437,60.0,2,240,2.0,0.0
15438,57.0,0,240,2.0,0.0
15439,60.0,1,240,12.0,0.0
15440,60.0,0,240,3.0,0.0
15441,60.0,48,240,13.0,0.0
15442,74.0,3,60,10.0,0.0
15443,62.0,57,60,11.0,0.0
15444,71.0,3,60,10.0,0.0
15445,59.0,57,60,11.0,0.0
15446,69.0,1,120,4.0,0.0
15447,65.0,1,120,5.0,0.0
15448,72.0,1,60,10.0,0.0
15449,60.0,0,60,11.0,0.0
15450,74.0,3,60,10.0,0.0
15451,88.0,3,115,0.0,0.0
15452,79.0,0,115,0.0,0.0
15453,67.0,0,120,4.0,0.0
15454,62.0,53,60,11.0,0.0
15455,67.0,1,115,1.0,0.0
15456,76.0,0,115,1.0,0.0
15457,64.0,3,115,2.0,0.0
15458,55.0,0,115,2.0,0.0
15459,60.0,61,120,5.0,0.0
15460,48.0,0,115,12.0,0.0
15461,36.0,3,115,3.0,0.0
15462,48.0,3,0,3.0,0.0
15463,48.0,0,115,13.0,0.0
15464,76.0,0,60,10.0,0.0
15465,64.0,1,60,11.0,0.0
15466,77.0,1,120,10.0,0.0
15467,81.0,2,120,0.0,0.0
15468,89.0,0,120,0.0,0.0
15469,65.0,0,120,4.0,0.0
15470,69.0,0,120,1.0,0.0
15471,77.0,1,120,1.0,0.0
15472,57.0,2,120,2.0,0.0
15473,65.0,0,120,2.0,0.0
15474,57.0,1,120,5.0,0.0
15475,65.0,4,60,12.0,0.0
15476,41.0,0,120,3.0,0.0
15477,53.0,3,120,3.0,0.0
15478,65.0,48,60,13.0,0.0
15479,41.0,54,120,14.0,0.0
15480,64.0,1,60,12.0,0.0
15481,64.0,2,60,13.0,0.0
15482,69.0,3,180,10.0,0.0
15483,65.0,1,0,11.0,0.0
15484,65.0,4,60,12.0,0.0
15485,65.0,56,60,13.0,0.0
15486,64.0,4,60,12.0,0.0
15487,64.0,48,60,13.0,0.0
15488,62.0,4,60,12.0,0.0
15489,62.0,48,60,13.0,0.0
15490,70.0,3,60,10.0,0.0
15491,67.0,0,60,11.0,0.0
15492,60.0,4,55,12.0,0.0
15493,60.0,53,55,13.0,0.0
15494,67.0,3,60,10.0,0.0
15495,64.0,1,60,11.0,0.0
15496,82.0,1,60,1.0,0.0
15497,70.0,3,60,2.0,0.0
15498,58.0,1,60,12.0,0.0
15499,58.0,3,60,3.0,0.0
15500,58.0,52,60,13.0,0.0
15501,36.0,50,120,14.0,0.0
15502,81.0,1,60,1.0,0.0
15503,69.0,4,60,2.0,0.0
15504,57.0,3,60,3.0,0.0
15505,57.0,2,60,13.0,0.0
15506,70.0,1,180,10.0,0.0
15507,82.0,2,180,0.0,0.0
15508,79.0,0,180,0.0,0.0
15509,67.0,1,180,11.0,0.0
15510,82.0,1,60,1.0,0.0
15511,70.0,4,60,2.0,0.0
15512,55.0,1,180,12.0,0.0
15513,58.0,0,180,12.0,0.0
15514,58.0,3,60,3.0,0.0
15515,58.0,52,60,13.0,0.0
15516,81.0,1,60,1.0,0.0
15517,69.0,4,60,2.0,0.0
15518,57.0,3,60,3.0,0.0
15519,57.0,48,60,13.0,0.0
15520,79.0,1,60,1.0,0.0
15521,67.0,3,60,2.0,0.0
15522,55.0,3,60,3.0,0.0
15523,55.0,48,60,13.0,0.0
15524,72.0,1,60,10.0,0.0
15525,81.0,0,60,0.0,0.0
15526,84.0,2,60,0.0,0.0
15527,69.0,1,60,11.0,0.0
15528,77.0,1,60,1.0,0.0
15529,60.0,0,60,12.0,0.0
15530,53.0,17,60,3.0,0.0
15531,53.0,1,55,13.0,0.0
15532,69.0,1,60,10.0,0.0
15533,77.0,0,60,0.0,0.0
15534,81.0,3,60,0.0,0.0
15535,65.0,7,120,6.0,0.0
15536,65.0,5,23,11.0,0.0
15537,65.0,4,90,4.0,0.0
15538,77.0,1,60,1.0,0.0
15539,65.0,2,0,2.0,0.0
15540,53.0,19,90,5.0,0.0
15541,53.0,25,23,12.0,0.0
15542,57.0,1,0,12.0,0.0
15543,53.0,3,60,3.0,0.0
15544,53.0,2,60,13.0,0.0
15545,41.0,12,60,14.0,0.0
15546,41.0,11,120,15.0,0.0
15547,57.0,4,23,11.0,0.0
15548,53.0,0,23,12.0,0.0
15549,57.0,5,23,11.0,0.0
15550,53.0,2,23,12.0,0.0
15551,52.0,3,60,3.0,0.0
15552,52.0,2,60,13.0,0.0
15553,40.0,1,60,14.0,0.0
15554,57.0,5,23,11.0,0.0
15555,53.0,1,23,12.0,0.0
15556,81.0,1,180,10.0,0.0
15557,93.0,0,180,0.0,0.0
15558,84.0,0,240,0.0,0.0
15559,57.0,5,23,11.0,0.0
15560,69.0,1,180,4.0,0.0
15561,81.0,1,180,1.0,0.0
15562,69.0,2,180,2.0,0.0
15563,81.0,0,180,2.0,0.0
15564,57.0,2,180,5.0,0.0
15565,53.0,25,23,12.0,0.0
15566,53.0,3,60,3.0,0.0
15567,53.0,2,60,13.0,0.0
15568,41.0,12,60,14.0,0.0
15569,57.0,5,23,11.0,0.0
15570,53.0,8,23,12.0,0.0
15571,57.0,5,23,11.0,0.0
15572,53.0,25,23,12.0,0.0
15573,52.0,3,60,3.0,0.0
15574,52.0,2,60,13.0,0.0
15575,40.0,12,60,14.0,0.0
15576,57.0,5,23,11.0,0.0
15577,53.0,8,23,12.0,0.0
15578,57.0,5,23,11.0,0.0
15579,53.0,25,23,12.0,0.0
15580,50.0,3,60,3.0,0.0
15581,50.0,2,60,13.0,0.0
15582,38.0,12,60,14.0,0.0
15583,57.0,4,23,11.0,0.0
15584,53.0,2,23,12.0,0.0
15585,77.0,1,55,10.0,0.0
15586,89.0,0,60,0.0,0.0
15587,65.0,1,60,4.0,0.0
15588,57.0,5,23,11.0,0.0
15589,77.0,1,60,1.0,0.0
15590,65.0,0,60,2.0,0.0
15591,77.0,2,60,2.0,0.0
15592,53.0,0,60,5.0,0.0
15593,53.0,24,23,12.0,0.0
15594,48.0,0,60,3.0,0.0
15595,48.0,2,55,13.0,0.0
15596,36.0,14,55,14.0,0.0
15597,57.0,5,23,11.0,0.0
15598,53.0,2,23,12.0,0.0
15599,76.0,3,23,10.0,0.0
15600,88.0,0,60,0.0,0.0
15601,84.0,0,60,0.0,0.0
15602,72.0,1,120,6.0,0.0
15603,60.0,0,120,6.0,0.0
15604,58.0,5,23,11.0,0.0
15605,60.0,4,120,4.0,0.0
15606,72.0,0,0,1.0,0.0
15607,76.0,1,60,1.0,0.0
15608,64.0,4,60,2.0,0.0
15609,76.0,0,60,2.0,0.0
15610,48.0,8,120,5.0,0.0
15611,55.0,11,23,12.0,0.0
15612,48.0,14,60,3.0,0.0
15613,48.0,2,30,13.0,0.0
15614,36.0,9,30,14.0,0.0
15615,48.0,8,120,15.0,0.0
15616,76.0,3,23,10.0,0.0
15617,58.0,5,23,11.0,0.0
15618,55.0,3,23,12.0,0.0
15619,82.0,3,23,10.0,0.0
15620,58.0,5,23,11.0,0.0
15621,55.0,11,23,12.0,0.0
15622,55.0,2,30,13.0,0.0
15623,43.0,9,30,14.0,0.0
15624,82.0,3,23,10.0,0.0
15625,58.0,5,23,11.0,0.0
15626,55.0,1,23,12.0,0.0
15627,79.0,3,23,10.0,0.0
15628,58.0,5,23,11.0,0.0
15629,55.0,11,23,12.0,0.0
15630,60.0,2,30,13.0,0.0
15631,48.0,9,30,14.0,0.0
15632,79.0,3,23,10.0,0.0
15633,58.0,5,23,11.0,0.0
15634,55.0,22,23,12.0,0.0
15635,76.0,3,23,10.0,0.0
15636,84.0,0,30,0.0,0.0
15637,88.0,0,30,0.0,0.0
15638,60.0,4,45,4.0,0.0
15639,58.0,5,23,11.0,0.0
15640,76.0,1,30,1.0,0.0
15641,79.0,0,30,1.0,0.0
15642,67.0,4,30,2.0,0.0
15643,76.0,0,30,2.0,0.0
15644,48.0,1,45,5.0,0.0
15645,55.0,3,23,12.0,0.0
15646,60.0,0,30,3.0,0.0
15647,48.0,3,30,3.0,0.0
15648,48.0,2,30,13.0,0.0
15649,36.0,4,30,14.0,0.0
15650,76.0,3,23,10.0,0.0
15651,58.0,5,23,11.0,0.0
15652,55.0,22,23,12.0,0.0
15653,72.0,3,23,10.0,0.0
15654,84.0,0,30,0.0,0.0
15655,58.0,5,23,11.0,0.0
15656,60.0,4,45,4.0,0.0
15657,84.0,0,30,1.0,0.0
15658,77.0,1,30,1.0,0.0
15659,72.0,0,30,2.0,0.0
15660,77.0,4,30,2.0,0.0
15661,48.0,1,45,5.0,0.0
15662,55.0,3,23,12.0,0.0
15663,62.0,0,30,3.0,0.0
15664,50.0,3,30,3.0,0.0
15665,50.0,2,30,13.0,0.0
15666,38.0,4,30,14.0,0.0
15667,72.0,3,23,10.0,0.0
15668,58.0,5,23,11.0,0.0
15669,55.0,22,23,12.0,0.0
15670,70.0,3,23,10.0,0.0
15671,91.0,0,30,0.0,0.0
15672,84.0,0,30,0.0,0.0
15673,58.0,5,23,11.0,0.0
15674,60.0,4,45,4.0,0.0
15675,82.0,0,30,1.0,0.0
15676,79.0,1,30,1.0,0.0
15677,79.0,4,30,2.0,0.0
15678,70.0,0,30,2.0,0.0
15679,48.0,1,45,5.0,0.0
15680,55.0,3,23,12.0,0.0
15681,52.0,0,30,3.0,0.0
15682,64.0,3,30,3.0,0.0
15683,52.0,2,30,13.0,0.0
15684,40.0,4,30,14.0,0.0
15685,70.0,3,23,10.0,0.0
15686,58.0,5,23,11.0,0.0
15687,55.0,22,23,12.0,0.0
15688,69.0,3,23,10.0,0.0
15689,84.0,0,60,0.0,0.0
15690,93.0,3,60,0.0,0.0
15691,65.0,0,120,6.0,0.0
15692,69.0,13,120,6.0,0.0
15693,57.0,5,23,11.0,0.0
15694,60.0,4,90,4.0,0.0
15695,77.0,1,60,1.0,0.0
15696,81.0,0,60,1.0,0.0
15697,69.0,0,60,2.0,0.0
15698,81.0,4,60,2.0,0.0
15699,48.0,5,90,5.0,0.0
15700,53.0,11,23,12.0,0.0
15701,57.0,14,60,3.0,0.0
15702,53.0,0,60,3.0,0.0
15703,53.0,2,30,13.0,0.0
15704,41.0,9,30,14.0,0.0
15705,41.0,8,120,15.0,0.0
15706,69.0,3,23,10.0,0.0
15707,57.0,5,23,11.0,0.0
15708,53.0,0,23,12.0,0.0
15709,81.0,3,23,10.0,0.0
15710,57.0,5,23,11.0,0.0
15711,53.0,2,23,12.0,0.0
15712,41.0,2,30,13.0,0.0
15713,29.0,9,30,14.0,0.0
15714,81.0,3,23,10.0,0.0
15715,57.0,5,23,11.0,0.0
15716,53.0,1,23,12.0,0.0
15717,77.0,3,23,10.0,0.0
15718,57.0,5,23,11.0,0.0
15719,53.0,11,23,12.0,0.0
15720,45.0,2,30,13.0,0.0
15721,33.0,9,30,14.0,0.0
15722,77.0,3,23,10.0,0.0
15723,57.0,5,23,11.0,0.0
15724,53.0,22,23,12.0,0.0
15725,72.0,3,23,10.0,0.0
15726,84.0,0,30,0.0,0.0
15727,57.0,5,23,11.0,0.0
15728,72.0,4,45,4.0,0.0
15729,72.0,1,30,1.0,0.0
15730,72.0,4,30,2.0,0.0
15731,60.0,1,45,5.0,0.0
15732,53.0,3,23,12.0,0.0
15733,48.0,3,30,3.0,0.0
15734,48.0,2,30,13.0,0.0
15735,36.0,4,30,14.0,0.0
15736,72.0,3,23,10.0,0.0
15737,57.0,5,23,11.0,0.0
15738,53.0,22,23,12.0,0.0
15739,69.0,3,23,10.0,0.0
15740,81.0,0,30,0.0,0.0
15741,57.0,5,23,11.0,0.0
15742,69.0,4,45,4.0,0.0
15743,81.0,0,30,1.0,0.0
15744,69.0,1,30,1.0,0.0
15745,69.0,4,30,2.0,0.0
15746,57.0,1,45,5.0,0.0
15747,53.0,3,23,12.0,0.0
15748,53.0,3,30,3.0,0.0
15749,53.0,2,30,13.0,0.0
15750,41.0,4,30,14.0,0.0
15751,69.0,3,23,10.0,0.0
15752,57.0,5,23,11.0,0.0
15753,53.0,22,23,12.0,0.0
15754,65.0,3,23,10.0,0.0
15755,84.0,0,30,0.0,0.0
15756,89.0,0,30,0.0,0.0
15757,65.0,4,45,4.0,0.0
15758,57.0,5,23,11.0,0.0
15759,77.0,1,30,1.0,0.0
15760,81.0,0,30,1.0,0.0
15761,77.0,0,30,2.0,0.0
15762,69.0,4,30,2.0,0.0
15763,53.0,1,45,5.0,0.0
15764,53.0,3,23,12.0,0.0
15765,57.0,3,30,3.0,0.0
15766,57.0,2,30,13.0,0.0
15767,45.0,4,30,14.0,0.0
15768,65.0,3,23,10.0,0.0
15769,57.0,5,23,11.0,0.0
15770,53.0,22,23,12.0,0.0
15771,64.0,3,23,10.0,0.0
15772,84.0,0,60,0.0,0.0
15773,88.0,0,60,0.0,0.0
15774,72.0,0,120,6.0,0.0
15775,60.0,13,120,6.0,0.0
15776,60.0,4,90,4.0,0.0
15777,58.0,5,23,11.0,0.0
15778,79.0,0,60,1.0,0.0
15779,82.0,1,60,1.0,0.0
15780,70.0,0,60,2.0,0.0
15781,76.0,4,60,2.0,0.0
15782,48.0,5,90,5.0,0.0
15783,55.0,11,23,12.0,0.0
15784,48.0,0,60,3.0,0.0
15785,60.0,14,60,3.0,0.0
15786,48.0,2,30,13.0,0.0
15787,36.0,9,30,14.0,0.0
15788,48.0,8,120,15.0,0.0
15789,64.0,3,23,10.0,0.0
15790,58.0,5,23,11.0,0.0
15791,55.0,3,23,12.0,0.0
15792,70.0,3,23,10.0,0.0
15793,58.0,5,23,11.0,0.0
15794,55.0,2,23,12.0,0.0
15795,55.0,2,30,13.0,0.0
15796,43.0,9,30,14.0,0.0
15797,70.0,3,23,10.0,0.0
15798,58.0,5,23,11.0,0.0
15799,55.0,1,23,12.0,0.0
15800,67.0,3,23,10.0,0.0
15801,58.0,5,23,11.0,0.0
15802,55.0,11,23,12.0,0.0
15803,60.0,2,30,13.0,0.0
15804,48.0,9,30,14.0,0.0
15805,67.0,3,23,10.0,0.0
15806,58.0,5,23,11.0,0.0
15807,55.0,22,23,12.0,0.0
15808,64.0,3,23,10.0,0.0
15809,88.0,0,30,0.0,0.0
15810,84.0,0,30,0.0,0.0
15811,60.0,4,45,4.0,0.0
15812,58.0,5,23,11.0,0.0
15813,72.0,0,30,1.0,0.0
15814,76.0,1,30,1.0,0.0
15815,64.0,0,30,2.0,0.0
15816,76.0,4,30,2.0,0.0
15817,48.0,1,45,5.0,0.0
15818,55.0,3,23,12.0,0.0
15819,52.0,0,30,3.0,0.0
15820,48.0,3,30,3.0,0.0
15821,60.0,2,30,13.0,0.0
15822,48.0,4,30,14.0,0.0
15823,64.0,3,23,10.0,0.0
15824,58.0,5,23,11.0,0.0
15825,55.0,22,23,12.0,0.0
15826,60.0,3,23,10.0,0.0
15827,84.0,3,30,0.0,0.0
15828,58.0,5,23,11.0,0.0
15829,60.0,4,45,4.0,0.0
15830,84.0,0,30,1.0,0.0
15831,77.0,1,30,1.0,0.0
15832,65.0,0,30,2.0,0.0
15833,72.0,4,30,2.0,0.0
15834,48.0,1,45,5.0,0.0
15835,55.0,0,23,12.0,0.0
15836,50.0,0,30,3.0,0.0
15837,53.0,3,30,3.0,0.0
15838,62.0,2,30,13.0,0.0
15839,50.0,4,30,14.0,0.0
15840,60.0,3,23,10.0,0.0
15841,58.0,5,23,11.0,0.0
15842,55.0,22,23,12.0,0.0
15843,58.0,3,23,10.0,0.0
15844,91.0,3,30,0.0,0.0
15845,60.0,4,45,4.0,0.0
15846,58.0,5,23,11.0,0.0
15847,79.0,1,30,1.0,0.0
15848,82.0,0,30,1.0,0.0
15849,70.0,0,30,2.0,0.0
15850,67.0,4,30,2.0,0.0
15851,48.0,1,45,5.0,0.0
15852,55.0,0,23,12.0,0.0
15853,55.0,3,30,3.0,0.0
15854,52.0,0,30,3.0,0.0
15855,64.0,2,30,13.0,0.0
15856,52.0,4,30,14.0,0.0
15857,58.0,3,23,10.0,0.0
15858,58.0,5,23,11.0,0.0
15859,55.0,22,23,12.0,0.0
15860,57.0,3,23,10.0,0.0
15861,93.0,0,1440,0.0,0.0
15862,65.0,0,1440,6.0,0.0
15863,77.0,1,1440,6.0,0.0
15864,65.0,1,1440,4.0,0.0
15865,57.0,5,23,11.0,0.0
15866,77.0,1,1440,1.0,0.0
15867,81.0,0,1440,1.0,0.0
15868,69.0,2,1440,2.0,0.0
15869,53.0,11,23,12.0,0.0
15870,57.0,6,1440,3.0,0.0
15871,53.0,0,1440,3.0,0.0
15872,65.0,2,30,13.0,0.0
15873,53.0,1,30,14.0,0.0
15874,57.0,3,23,10.0,0.0
15875,57.0,5,23,11.0,0.0
15876,53.0,14,23,12.0,0.0
15877,41.0,8,0,15.0,0.0
15878,60.0,3,23,10.0,0.0
15879,60.0,5,23,11.0,0.0
15880,72.0,11,23,12.0,0.0
15881,60.0,2,30,13.0,0.0
15882,48.0,1,30,14.0,0.0
15883,41.0,8,0,15.0,0.0
15884,60.0,3,23,10.0,0.0
15885,60.0,5,23,11.0,0.0
15886,72.0,14,23,12.0,0.0
15887,41.0,8,0,15.0,0.0
15888,65.0,3,23,10.0,0.0
15889,65.0,5,23,11.0,0.0
15890,69.0,11,23,12.0,0.0
15891,57.0,2,30,13.0,0.0
15892,45.0,1,30,14.0,0.0
15893,65.0,3,23,10.0,0.0
15894,65.0,5,23,11.0,0.0
15895,69.0,14,23,12.0,0.0
15896,41.0,8,0,15.0,0.0
15897,57.0,3,23,10.0,0.0
15898,57.0,5,23,11.0,0.0
15899,77.0,11,23,12.0,0.0
15900,65.0,2,30,13.0,0.0
15901,53.0,1,30,14.0,0.0
15902,41.0,8,0,15.0,0.0
15903,57.0,3,23,10.0,0.0
15904,57.0,5,23,11.0,0.0
15905,77.0,14,23,12.0,0.0
15906,41.0,8,0,15.0,0.0
15907,60.0,3,23,10.0,0.0
15908,60.0,5,23,11.0,0.0
15909,72.0,11,23,12.0,0.0
15910,60.0,2,30,13.0,0.0
15911,48.0,1,30,14.0,0.0
15912,41.0,8,0,15.0,0.0
15913,60.0,3,23,10.0,0.0
15914,60.0,5,23,11.0,0.0
15915,72.0,14,23,12.0,0.0
15916,41.0,8,0,15.0,0.0
15917,65.0,3,23,10.0,0.0
15918,65.0,5,23,11.0,0.0
15919,69.0,11,23,12.0,0.0
15920,57.0,2,30,13.0,0.0
15921,45.0,1,30,14.0,0.0
15922,41.0,8,0,15.0,0.0
15923,65.0,3,23,10.0,0.0
15924,65.0,5,23,11.0,0.0
15925,69.0,14,23,12.0,0.0
15926,41.0,8,0,15.0,0.0
15927,69.0,3,23,10.0,0.0
15928,69.0,5,23,11.0,0.0
15929,65.0,11,23,12.0,0.0
15930,53.0,2,30,13.0,0.0
15931,41.0,1,30,14.0,0.0
15932,41.0,8,30,15.0,0.0
15933,69.0,3,23,10.0,0.0
15934,69.0,5,23,11.0,0.0
15935,65.0,14,23,12.0,0.0
15936,41.0,8,30,15.0,0.0
15937,60.0,3,23,10.0,0.0
15938,60.0,5,23,11.0,0.0
15939,72.0,11,23,12.0,0.0
15940,60.0,2,30,13.0,0.0
15941,48.0,1,30,14.0,0.0
15942,41.0,8,30,15.0,0.0
15943,60.0,3,23,10.0,0.0
15944,60.0,5,23,11.0,0.0
15945,72.0,14,23,12.0,0.0
15946,65.0,3,23,10.0,0.0
15947,65.0,5,23,11.0,0.0
15948,69.0,11,23,12.0,0.0
15949,57.0,2,30,13.0,0.0
15950,45.0,1,30,14.0,0.0
15951,41.0,8,0,15.0,0.0
15952,65.0,3,23,10.0,0.0
15953,65.0,5,23,11.0,0.0
15954,69.0,14,23,12.0,0.0
15955,41.0,8,0,15.0,0.0
15956,69.0,3,23,10.0,0.0
15957,69.0,5,23,11.0,0.0
15958,65.0,11,23,12.0,0.0
15959,53.0,2,30,13.0,0.0
15960,41.0,1,30,14.0,0.0
15961,41.0,8,30,15.0,0.0
15962,69.0,3,23,10.0,0.0
15963,69.0,5,23,11.0,0.0
15964,65.0,14,23,12.0,0.0
15965,72.0,3,23,10.0,0.0
15966,72.0,5,23,11.0,0.0
15967,60.0,11,23,12.0,0.0
15968,48.0,2,30,13.0,0.0
15969,36.0,1,30,14.0,0.0
15970,41.0,8,0,15.0,0.0
15971,72.0,3,23,10.0,0.0
15972,72.0,5,23,11.0,0.0
15973,60.0,14,23,12.0,0.0
15974,65.0,3,23,10.0,0.0
15975,57.0,5,23,11.0,0.0
15976,69.0,11,23,12.0,0.0
15977,57.0,2,30,13.0,0.0
15978,45.0,1,30,14.0,0.0
15979,41.0,8,0,15.0,0.0
15980,65.0,3,23,10.0,0.0
15981,57.0,5,23,11.0,0.0
15982,69.0,14,23,12.0,0.0
15983,41.0,8,0,15.0,0.0
15984,69.0,3,23,10.0,0.0
15985,57.0,5,23,11.0,0.0
15986,65.0,11,23,12.0,0.0
15987,53.0,2,30,13.0,0.0
15988,41.0,1,30,14.0,0.0
15989,69.0,3,23,10.0,0.0
15990,57.0,5,23,11.0,0.0
15991,65.0,14,23,12.0,0.0
15992,41.0,8,0,15.0,0.0
15993,72.0,3,23,10.0,0.0
15994,60.0,5,23,11.0,0.0
15995,60.0,11,23,12.0,0.0
15996,48.0,2,30,13.0,0.0
15997,36.0,1,30,14.0,0.0
15998,41.0,8,0,15.0,0.0
15999,72.0,3,23,10.0,0.0
16000,60.0,5,23,11.0,0.0
16001,60.0,14,23,12.0,0.0
16002,77.0,3,23,10.0,0.0
16003,65.0,5,23,11.0,0.0
16004,57.0,11,23,12.0,0.0
16005,45.0,2,30,13.0,0.0
16006,33.0,1,30,14.0,0.0
16007,41.0,8,0,15.0,0.0
16008,77.0,3,23,10.0,0.0
16009,65.0,5,23,11.0,0.0
16010,57.0,14,23,12.0,0.0
16011,41.0,8,0,15.0,0.0
16012,72.0,3,23,10.0,0.0
16013,60.0,5,23,11.0,0.0
16014,65.0,11,23,12.0,0.0
16015,53.0,2,30,13.0,0.0
16016,41.0,1,30,14.0,0.0
16017,41.0,8,30,15.0,0.0
16018,72.0,3,23,10.0,0.0
16019,60.0,5,23,11.0,0.0
16020,65.0,14,23,12.0,0.0
16021,77.0,3,23,10.0,0.0
16022,65.0,5,23,11.0,0.0
16023,60.0,11,23,12.0,0.0
16024,48.0,2,30,13.0,0.0
16025,36.0,1,30,14.0,0.0
16026,41.0,8,0,15.0,0.0
16027,77.0,3,23,10.0,0.0
16028,65.0,5,23,11.0,0.0
16029,60.0,14,23,12.0,0.0
16030,81.0,3,23,10.0,0.0
16031,69.0,5,23,11.0,0.0
16032,57.0,11,23,12.0,0.0
16033,45.0,2,30,13.0,0.0
16034,33.0,1,30,14.0,0.0
16035,41.0,8,0,15.0,0.0
16036,81.0,3,23,10.0,0.0
16037,69.0,5,23,11.0,0.0
16038,57.0,14,23,12.0,0.0
16039,41.0,8,0,15.0,0.0
16040,84.0,3,23,10.0,0.0
16041,72.0,5,23,11.0,0.0
16042,53.0,11,23,12.0,0.0
16043,41.0,2,30,13.0,0.0
16044,29.0,1,30,14.0,0.0
16045,84.0,3,23,10.0,0.0
16046,72.0,5,23,11.0,0.0
16047,53.0,14,23,12.0,0.0
16048,41.0,8,0,15.0,0.0
16049,77.0,3,23,10.0,0.0
16050,65.0,5,23,11.0,0.0
16051,65.0,11,23,12.0,0.0
16052,53.0,2,30,13.0,0.0
16053,41.0,1,30,14.0,0.0
16054,77.0,3,23,10.0,0.0
16055,65.0,5,23,11.0,0.0
16056,65.0,14,23,12.0,0.0
16057,41.0,8,0,15.0,0.0
16058,81.0,3,23,10.0,0.0
16059,69.0,5,23,11.0,0.0
16060,60.0,11,23,12.0,0.0
16061,48.0,2,30,13.0,0.0
16062,36.0,1,30,14.0,0.0
16063,41.0,8,0,15.0,0.0
16064,81.0,3,23,10.0,0.0
16065,69.0,5,23,11.0,0.0
16066,60.0,14,23,12.0,0.0
16067,41.0,8,0,15.0,0.0
16068,84.0,3,23,10.0,0.0
16069,72.0,5,23,11.0,0.0
16070,57.0,11,23,12.0,0.0
16071,45.0,2,30,13.0,0.0
16072,33.0,1,30,14.0,0.0
16073,41.0,8,30,15.0,0.0
16074,84.0,3,23,10.0,0.0
16075,72.0,5,23,11.0,0.0
16076,57.0,14,23,12.0,0.0
16077,41.0,8,30,15.0,0.0
16078,89.0,3,23,10.0,0.0
16079,77.0,5,23,11.0,0.0
16080,53.0,11,23,12.0,0.0
16081,41.0,2,30,13.0,0.0
16082,29.0,1,30,14.0,0.0
16083,89.0,3,23,10.0,0.0
16084,77.0,5,23,11.0,0.0
16085,53.0,14,23,12.0,0.0
16086,41.0,8,0,15.0,0.0
16087,77.0,3,23,10.0,0.0
16088,65.0,5,23,11.0,0.0
16089,65.0,11,23,12.0,0.0
16090,53.0,2,30,13.0,0.0
16091,41.0,1,30,14.0,0.0
16092,41.0,8,0,15.0,0.0
16093,77.0,3,23,10.0,0.0
16094,65.0,5,23,11.0,0.0
16095,65.0,0,23,12.0,0.0
16096,41.0,8,0,15.0,0.0
16097,89.0,1,120,10.0,0.0
16098,77.0,1,120,0.0,0.0
16099,89.0,1,0,0.0,0.0
16100,65.0,0,120,6.0,0.0
16101,77.0,1,120,6.0,0.0
16102,77.0,0,120,11.0,0.0
16103,65.0,1,120,4.0,0.0
16104,77.0,0,120,1.0,0.0
16105,65.0,1,120,1.0,0.0
16106,65.0,2,120,2.0,0.0
16107,53.0,2,0,5.0,0.0
16108,53.0,1,120,12.0,0.0
16109,53.0,3,120,3.0,0.0
16110,41.0,0,120,3.0,0.0
16111,41.0,2,120,13.0,0.0
16112,29.0,1,120,14.0,0.0
16113,41.0,105,0,15.0,0.0
16114,89.0,3,30,10.0,0.0
16115,77.0,5,30,11.0,0.0
16116,65.0,4,30,12.0,0.0
16117,53.0,2,30,13.0,0.0
16118,41.0,46,30,14.0,0.0
16119,77.0,3,30,10.0,0.0
16120,65.0,5,30,11.0,0.0
16121,53.0,4,30,12.0,0.0
16122,41.0,2,30,13.0,0.0
16123,29.0,46,30,14.0,0.0
16124,89.0,3,30,10.0,0.0
16125,77.0,5,30,11.0,0.0
16126,65.0,4,30,12.0,0.0
16127,53.0,2,30,13.0,0.0
16128,41.0,136,30,14.0,0.0
16129,77.0,1,120,10.0,0.0
16130,89.0,1,120,0.0,0.0
16131,77.0,0,120,0.0,0.0
16132,77.0,1,120,6.0,0.0
16133,65.0,0,120,6.0,0.0
16134,65.0,1,120,11.0,0.0
16135,65.0,0,120,4.0,0.0
16136,77.0,0,120,1.0,0.0
16137,65.0,1,120,1.0,0.0
16138,77.0,0,120,2.0,0.0
16139,65.0,2,120,2.0,0.0
16140,53.0,1,120,5.0,0.0
16141,53.0,1,120,12.0,0.0
16142,53.0,0,120,3.0,0.0
16143,41.0,3,120,3.0,0.0
16144,41.0,2,120,13.0,0.0
16145,29.0,1,120,14.0,0.0
16146,41.0,75,120,15.0,0.0
16147,89.0,3,30,10.0,0.0
16148,77.0,5,30,11.0,0.0
16149,65.0,4,30,12.0,0.0
16150,53.0,2,30,13.0,0.0
16151,41.0,46,30,14.0,0.0
16152,77.0,3,30,10.0,0.0
16153,65.0,5,30,11.0,0.0
16154,53.0,4,30,12.0,0.0
16155,41.0,2,30,13.0,0.0
16156,29.0,46,30,14.0,0.0
16157,89.0,3,30,10.0,0.0
16158,77.0,5,30,11.0,0.0
16159,65.0,4,30,12.0,0.0
16160,53.0,2,30,13.0,0.0
16161,41.0,136,30,14.0,0.0
16162,77.0,1,120,10.0,0.0
16163,89.0,1,120,0.0,0.0
16164,77.0,0,120,0.0,0.0
16165,77.0,0,120,6.0,0.0
16166,65.0,1,120,6.0,0.0
16167,65.0,0,120,4.0,0.0
16168,65.0,1,120,11.0,0.0
16169,65.0,0,120,1.0,0.0
16170,77.0,1,120,1.0,0.0
16171,65.0,2,120,2.0,0.0
16172,77.0,0,120,2.0,0.0
16173,53.0,1,120,5.0,0.0
16174,53.0,1,120,12.0,0.0
16175,41.0,0,120,3.0,0.0
16176,53.0,3,120,3.0,0.0
16177,41.0,2,120,13.0,0.0
16178,29.0,1,120,14.0,0.0
16179,41.0,75,120,15.0,0.0
16180,89.0,3,30,10.0,0.0
16181,77.0,5,30,11.0,0.0
16182,65.0,4,30,12.0,0.0
16183,53.0,2,30,13.0,0.0
16184,41.0,46,30,14.0,0.0
16185,77.0,3,30,10.0,0.0
16186,65.0,5,30,11.0,0.0
16187,53.0,4,30,12.0,0.0
16188,41.0,2,30,13.0,0.0
16189,29.0,46,30,14.0,0.0
16190,89.0,3,30,10.0,0.0
16191,77.0,5,30,11.0,0.0
16192,65.0,4,30,12.0,0.0
16193,53.0,2,30,13.0,0.0
16194,41.0,136,30,14.0,0.0
16195,77.0,1,120,10.0,0.0
16196,89.0,1,120,0.0,0.0
16197,77.0,0,120,0.0,0.0
16198,77.0,0,120,6.0,0.0
16199,65.0,1,120,6.0,0.0
16200,65.0,0,120,11.0,0.0
16201,65.0,1,120,4.0,0.0
16202,77.0,0,120,1.0,0.0
16203,65.0,1,120,1.0,0.0
16204,77.0,2,120,2.0,0.0
16205,65.0,0,120,2.0,0.0
16206,53.0,1,120,5.0,0.0
16207,53.0,1,120,12.0,0.0
16208,53.0,0,120,3.0,0.0
16209,41.0,3,120,3.0,0.0
16210,41.0,2,120,13.0,0.0
16211,29.0,1,120,14.0,0.0
16212,41.0,75,120,15.0,0.0
16213,89.0,3,30,10.0,0.0
16214,89.0,0,60,0.0,0.0
16215,65.0,0,60,6.0,0.0
16216,77.0,5,30,11.0,0.0
16217,65.0,0,60,1.0,0.0
16218,65.0,4,30,12.0,0.0
16219,53.0,2,30,13.0,0.0
16220,41.0,17,30,14.0,0.0
16221,77.0,3,30,10.0,0.0
16222,77.0,1,0,0.0,0.0
16223,89.0,1,60,0.0,0.0
16224,77.0,1,0,6.0,0.0
16225,65.0,1,0,4.0,0.0
16226,65.0,5,30,11.0,0.0
16227,77.0,1,0,1.0,0.0
16228,77.0,0,0,2.0,0.0
16229,65.0,2,0,2.0,0.0
16230,53.0,2,0,5.0,0.0
16231,53.0,4,30,12.0,0.0
16232,53.0,0,0,3.0,0.0
16233,41.0,6,0,3.0,0.0
16234,41.0,2,30,13.0,0.0
16235,29.0,17,30,14.0,0.0
16236,41.0,15,0,15.0,0.0
16237,89.0,3,30,10.0,0.0
16238,77.0,0,0,0.0,0.0
16239,77.0,0,0,6.0,0.0
16240,65.0,1,0,6.0,0.0
16241,77.0,5,30,11.0,0.0
16242,65.0,1,0,4.0,0.0
16243,77.0,0,0,1.0,0.0
16244,65.0,1,0,1.0,0.0
16245,65.0,0,0,2.0,0.0
16246,77.0,2,0,2.0,0.0
16247,65.0,4,30,12.0,0.0
16248,53.0,0,60,3.0,0.0
16249,53.0,2,30,13.0,0.0
16250,41.0,17,30,14.0,0.0
16251,41.0,15,0,15.0,0.0
16252,77.0,1,96,10.0,0.0
16253,77.0,1,0,0.0,0.0
16254,89.0,0,0,0.0,0.0
16255,77.0,1,96,6.0,0.0
16256,65.0,0,96,6.0,0.0
16257,65.0,0,96,4.0,0.0
16258,65.0,1,96,11.0,0.0
16259,65.0,1,0,1.0,0.0
16260,77.0,0,0,1.0,0.0
16261,77.0,2,0,2.0,0.0
16262,65.0,0,0,2.0,0.0
16263,53.0,2,0,5.0,0.0
16264,53.0,1,96,12.0,0.0
16265,41.0,6,0,3.0,0.0
16266,53.0,3,96,3.0,0.0
16267,41.0,2,96,13.0,0.0
16268,29.0,1,96,14.0,0.0
16269,41.0,108,96,15.0,0.0
16270,65.0,60,30,3.0,0.0
16271,53.0,60,30,3.0,0.0
16272,65.0,150,30,3.0,0.0
16273,53.0,90,120,3.0,0.0
16274,65.0,60,30,3.0,0.0
16275,53.0,60,30,3.0,0.0
16276,65.0,150,30,3.0,0.0
16277,68.0,62,1440,11.0,0.0
16278,53.0,90,120,3.0,0.0
16279,65.0,60,30,3.0,0.0
16280,53.0,60,30,3.0,0.0
16281,65.0,149,30,3.0,0.0
16282,65.0,3,1080,10.0,0.0
16283,80.0,3,480,2.0,0.0
16284,49.0,1,120,12.0,0.0
16285,53.0,89,120,3.0,0.0
16286,61.0,1,30,12.0,0.0
16287,65.0,59,30,3.0,0.0
16288,49.0,1,30,12.0,0.0
16289,53.0,59,30,3.0,0.0
16290,61.0,1,30,12.0,0.0
16291,65.0,146,30,3.0,0.0
16292,49.0,1,120,12.0,0.0
16293,53.0,56,120,3.0,0.0
16294,77.0,33,60,2.0,0.0
16295,78.0,33,60,2.0,0.0
16296,61.0,27,30,12.0,0.0
16297,80.0,33,60,2.0,0.0
16298,49.0,27,30,12.0,0.0
16299,77.0,123,60,2.0,0.0
16300,61.0,27,30,12.0,0.0
16301,73.0,33,240,2.0,0.0
16302,49.0,90,120,12.0,0.0
16303,61.0,27,30,12.0,0.0
16304,68.0,33,60,2.0,0.0
16305,49.0,27,30,12.0,0.0
16306,73.0,0,55,2.0,0.0
16307,61.0,22,30,12.0,0.0
16308,63.0,0,360,10.0,0.0
16309,66.0,0,720,11.0,0.0
16310,73.0,60,60,2.0,0.0
16311,49.0,52,120,12.0,0.0
16312,72.0,3,0,2.0,0.0
16313,73.0,33,60,2.0,0.0
16314,61.0,27,30,12.0,0.0
16315,75.0,33,60,2.0,0.0
16316,49.0,27,30,12.0,0.0
16317,77.0,30,55,2.0,0.0
16318,61.0,22,30,12.0,0.0
16319,72.0,60,30,10.0,0.0
16320,78.0,3,120,2.0,0.0
16321,49.0,4,120,12.0,0.0
16322,49.0,2,120,13.0,0.0
16323,37.0,16,120,14.0,0.0
16324,73.0,35,30,10.0,0.0
16325,75.0,60,30,10.0,0.0
16326,78.0,3,98,0.0,0.0
16327,75.0,1,98,1.0,0.0
16328,68.0,4,98,2.0,0.0
16329,63.0,0,98,3.0,0.0
16330,66.0,51,98,3.0,0.0
16331,77.0,8,30,10.0,0.0
16332,61.0,1,30,12.0,0.0
16333,78.0,38,60,10.0,0.0
16334,78.0,3,98,0.0,0.0
16335,75.0,1,98,1.0,0.0
16336,68.0,4,98,2.0,0.0
16337,49.0,22,30,12.0,0.0
16338,66.0,0,98,3.0,0.0
16339,63.0,16,98,3.0,0.0
16340,61.0,1,30,12.0,0.0
16341,77.0,3,120,0.0,0.0
16342,56.0,62,0,11.0,0.0
16343,65.0,5,840,11.0,0.0
16344,73.0,1,120,1.0,0.0
16345,68.0,3,120,2.0,0.0
16346,75.0,55,60,2.0,0.0
16347,49.0,1,120,12.0,0.0
16348,61.0,0,120,3.0,0.0
16349,65.0,56,120,3.0,0.0
16350,73.0,1,55,2.0,0.0
16351,73.0,33,60,2.0,0.0
16352,75.0,33,60,2.0,0.0
16353,61.0,27,30,12.0,0.0
16354,77.0,33,60,2.0,0.0
16355,49.0,27,30,12.0,0.0
16356,78.0,30,55,2.0,0.0
16357,61.0,22,30,12.0,0.0
16358,73.0,60,30,10.0,0.0
16359,80.0,3,120,2.0,0.0
16360,49.0,22,120,12.0,0.0
16361,75.0,35,30,10.0,0.0
16362,77.0,60,30,10.0,0.0
16363,80.0,3,98,0.0,0.0
16364,77.0,1,98,1.0,0.0
16365,68.0,4,98,2.0,0.0
16366,73.0,0,98,2.0,0.0
16367,65.0,0,98,3.0,0.0
16368,61.0,51,98,3.0,0.0
16369,78.0,8,30,10.0,0.0
16370,61.0,1,30,12.0,0.0
16371,80.0,38,60,10.0,0.0
16372,80.0,3,98,0.0,0.0
16373,77.0,1,98,1.0,0.0
16374,68.0,4,98,2.0,0.0
16375,73.0,0,98,2.0,0.0
16376,49.0,22,30,12.0,0.0
16377,65.0,0,98,3.0,0.0
16378,61.0,55,98,3.0,0.0
16379,61.0,1,30,12.0,0.0
16380,80.0,3,720,0.0,0.0
16381,77.0,1,720,1.0,0.0
16382,73.0,0,720,2.0,0.0
16383,49.0,30,120,12.0,0.0
16384,65.0,33,720,3.0,0.0
16385,61.0,0,720,3.0,0.0
16386,49.0,2,30,13.0,0.0
16387,37.0,58,30,14.0,0.0
16388,51.0,2,30,13.0,0.0
16389,39.0,19,30,14.0,0.0
16390,49.0,4,30,12.0,0.0
16391,53.0,2,30,13.0,0.0
16392,41.0,54,30,14.0,0.0
16393,51.0,4,30,12.0,0.0
16394,54.0,2,30,13.0,0.0
16395,42.0,49,30,14.0,0.0
16396,61.0,5,30,11.0,0.0
16397,53.0,55,30,12.0,0.0
16398,63.0,5,30,11.0,0.0
16399,54.0,52,30,12.0,0.0
16400,73.0,3,30,10.0,0.0
16401,65.0,35,30,11.0,0.0
16402,56.0,22,60,12.0,0.0
16403,75.0,3,30,10.0,0.0
16404,66.0,57,30,11.0,0.0
16405,77.0,33,30,10.0,0.0
16406,68.0,27,60,11.0,0.0
16407,78.0,90,30,10.0,0.0
16408,80.0,61,60,10.0,0.0
16409,82.0,3,1440,0.0,0.0
16410,80.0,1,720,1.0,0.0
16411,68.0,4,0,2.0,0.0
16412,74.0,0,720,2.0,0.0
16413,65.0,0,720,3.0,0.0
16414,58.0,33,720,3.0,0.0
16415,46.0,2,30,13.0,0.0
16416,34.0,58,30,14.0,0.0
16417,48.0,2,30,13.0,0.0
16418,36.0,54,30,14.0,0.0
16419,58.0,4,30,12.0,0.0
16420,50.0,2,30,13.0,0.0
16421,38.0,54,30,14.0,0.0
16422,60.0,4,30,12.0,0.0
16423,51.0,2,30,13.0,0.0
16424,39.0,49,30,14.0,0.0
16425,58.0,5,30,11.0,0.0
16426,62.0,34,30,12.0,0.0
16427,53.0,2,60,13.0,0.0
16428,41.0,19,60,14.0,0.0
16429,60.0,5,30,11.0,0.0
16430,63.0,52,30,12.0,0.0
16431,70.0,3,30,10.0,0.0
16432,62.0,35,30,11.0,0.0
16433,65.0,22,60,12.0,0.0
16434,72.0,3,30,10.0,0.0
16435,63.0,57,30,11.0,0.0
16436,74.0,33,30,10.0,0.0
16437,65.0,27,60,11.0,0.0
16438,75.0,35,30,10.0,0.0
16439,77.0,64,60,10.0,0.0
16440,78.0,1,600,1.0,0.0
16441,70.0,4,0,2.0,0.0
16442,75.0,4,600,2.0,0.0
16443,66.0,0,600,3.0,0.0
16444,63.0,51,600,3.0,0.0
16445,51.0,2,30,13.0,0.0
16446,39.0,58,30,14.0,0.0
16447,53.0,2,30,13.0,0.0
16448,41.0,54,30,14.0,0.0
16449,51.0,4,30,12.0,0.0
16450,54.0,2,30,13.0,0.0
16451,42.0,54,30,14.0,0.0
16452,53.0,4,30,12.0,0.0
16453,56.0,2,30,13.0,0.0
16454,44.0,49,30,14.0,0.0
16455,63.0,5,30,11.0,0.0
16456,54.0,34,30,12.0,0.0
16457,58.0,2,60,13.0,0.0
16458,46.0,19,60,14.0,0.0
16459,65.0,5,30,11.0,0.0
16460,56.0,52,30,12.0,0.0
16461,75.0,3,30,10.0,0.0
16462,66.0,35,30,11.0,0.0
16463,58.0,22,60,12.0,0.0
16464,77.0,3,30,10.0,0.0
16465,68.0,57,30,11.0,0.0
16466,78.0,33,30,10.0,0.0
16467,70.0,27,60,11.0,0.0
16468,80.0,34,30,10.0,0.0
16469,82.0,61,60,10.0,0.0
16470,79.0,1,120,1.0,0.0
16471,76.0,0,120,2.0,0.0
16472,84.0,3,720,0.0,0.0
16473,60.0,1,2160,4.0,0.0
16474,82.0,0,720,1.0,0.0
16475,70.0,4,0,2.0,0.0
16476,76.0,4,600,2.0,0.0
16477,48.0,2,2160,5.0,0.0
16478,64.0,0,0,3.0,0.0
16479,67.0,33,0,3.0,0.0
16480,48.0,2,30,13.0,0.0
16481,36.0,58,30,14.0,0.0
16482,50.0,2,30,13.0,0.0
16483,38.0,54,30,14.0,0.0
16484,48.0,4,30,12.0,0.0
16485,52.0,2,30,13.0,0.0
16486,40.0,54,30,14.0,0.0
16487,50.0,4,30,12.0,0.0
16488,53.0,2,30,13.0,0.0
16489,41.0,49,30,14.0,0.0
16490,60.0,5,30,11.0,0.0
16491,52.0,34,30,12.0,0.0
16492,55.0,2,60,13.0,0.0
16493,43.0,19,60,14.0,0.0
16494,62.0,5,30,11.0,0.0
16495,53.0,52,30,12.0,0.0
16496,72.0,3,30,10.0,0.0
16497,64.0,35,30,11.0,0.0
16498,55.0,22,60,12.0,0.0
16499,74.0,3,30,10.0,0.0
16500,65.0,32,30,11.0,0.0
16501,76.0,33,30,10.0,0.0
16502,67.0,27,60,11.0,0.0
16503,77.0,35,30,10.0,0.0
16504,79.0,61,60,10.0,0.0
16505,72.0,1,120,1.0,0.0
16506,64.0,0,120,2.0,0.0
16507,67.0,0,0,2.0,0.0
16508,55.0,33,120,3.0,0.0
16509,52.0,0,120,3.0,0.0
16510,86.0,3,720,0.0,0.0
16511,74.0,1,720,1.0,0.0
16512,83.0,56,600,1.0,0.0
16513,65.0,4,720,2.0,0.0
16514,68.0,0,720,2.0,0.0
16515,56.0,0,720,3.0,0.0
16516,48.0,2,30,13.0,0.0
16517,36.0,58,30,14.0,0.0
16518,52.0,2,30,13.0,0.0
16519,40.0,54,30,14.0,0.0
16520,48.0,4,30,12.0,0.0
16521,53.0,2,30,13.0,0.0
16522,41.0,54,30,14.0,0.0
16523,52.0,4,30,12.0,0.0
16524,55.0,2,30,13.0,0.0
16525,43.0,49,30,14.0,0.0
16526,60.0,5,30,11.0,0.0
16527,53.0,34,30,12.0,0.0
16528,56.0,2,60,13.0,0.0
16529,44.0,19,60,14.0,0.0
16530,64.0,5,30,11.0,0.0
16531,55.0,52,30,12.0,0.0
16532,72.0,3,30,10.0,0.0
16533,65.0,35,30,11.0,0.0
16534,56.0,22,60,12.0,0.0
16535,76.0,3,30,10.0,0.0
16536,67.0,57,30,11.0,0.0
16537,77.0,33,30,10.0,0.0
16538,68.0,27,60,11.0,0.0
16539,79.0,34,30,10.0,0.0
16540,80.0,61,60,10.0,0.0
16541,80.0,0,120,1.0,0.0
16542,84.0,29,660,0.0,0.0
16543,72.0,1,720,1.0,0.0
16544,69.0,0,720,2.0,0.0
16545,65.0,2,720,2.0,0.0
16546,53.0,33,0,3.0,0.0
16547,48.0,2,30,13.0,0.0
16548,36.0,58,30,14.0,0.0
16549,52.0,2,30,13.0,0.0
16550,40.0,54,30,14.0,0.0
16551,48.0,4,30,12.0,0.0
16552,53.0,2,30,13.0,0.0
16553,41.0,54,30,14.0,0.0
16554,52.0,4,30,12.0,0.0
16555,55.0,2,30,13.0,0.0
16556,43.0,49,30,14.0,0.0
16557,60.0,5,30,11.0,0.0
16558,53.0,34,30,12.0,0.0
16559,57.0,2,60,13.0,0.0
16560,45.0,19,60,14.0,0.0
16561,64.0,5,30,11.0,0.0
16562,55.0,52,30,12.0,0.0
16563,72.0,3,30,10.0,0.0
16564,65.0,35,30,11.0,0.0
16565,57.0,22,60,12.0,0.0
16566,76.0,3,30,10.0,0.0
16567,67.0,57,30,11.0,0.0
16568,77.0,33,30,10.0,0.0
16569,69.0,27,60,11.0,0.0
16570,79.0,60,30,10.0,0.0
16571,81.0,31,30,10.0,0.0
16572,84.0,31,30,10.0,0.0
16573,89.0,2,60,0.0,0.0
16574,84.0,3,23,10.0,0.0
16575,84.0,1,180,0.0,0.0
16576,89.0,0,180,0.0,0.0
16577,77.0,0,180,6.0,0.0
16578,65.0,1,180,6.0,0.0
16579,72.0,5,23,11.0,0.0
16580,60.0,1,180,4.0,0.0
16581,81.0,0,0,1.0,0.0
16582,84.0,0,180,1.0,0.0
16583,72.0,2,120,2.0,0.0
16584,69.0,0,120,2.0,0.0
16585,48.0,2,180,5.0,0.0
16586,69.0,14,23,12.0,0.0
16587,65.0,0,23,12.0,0.0
16588,60.0,6,120,3.0,0.0
16589,57.0,0,0,3.0,0.0
16590,41.0,2,55,13.0,0.0
16591,29.0,6,55,14.0,0.0
16592,41.0,8,30,15.0,0.0
16593,84.0,3,23,10.0,0.0
16594,72.0,5,23,11.0,0.0
16595,69.0,0,23,12.0,0.0
16596,65.0,6,23,12.0,0.0
16597,41.0,8,30,15.0,0.0
16598,84.0,3,23,10.0,0.0
16599,72.0,5,23,11.0,0.0
16600,69.0,0,23,12.0,0.0
16601,65.0,14,23,12.0,0.0
16602,53.0,2,55,13.0,0.0
16603,41.0,0,55,14.0,0.0
16604,84.0,3,23,10.0,0.0
16605,72.0,5,23,11.0,0.0
16606,65.0,4,23,12.0,0.0
16607,69.0,0,23,12.0,0.0
16608,41.0,8,0,15.0,0.0
16609,81.0,3,23,10.0,0.0
16610,69.0,5,23,11.0,0.0
16611,69.0,2,60,2.0,0.0
16612,65.0,0,60,2.0,0.0
16613,65.0,22,23,12.0,0.0
16614,53.0,0,60,3.0,0.0
16615,57.0,0,60,3.0,0.0
16616,41.0,0,55,13.0,0.0
16617,29.0,6,55,14.0,0.0
16618,41.0,8,0,15.0,0.0
16619,81.0,3,23,10.0,0.0
16620,69.0,5,23,11.0,0.0
16621,65.0,0,23,12.0,0.0
16622,82.0,3,23,10.0,0.0
16623,70.0,5,23,11.0,0.0
16624,67.0,2,60,2.0,0.0
16625,70.0,0,60,2.0,0.0
16626,67.0,22,23,12.0,0.0
16627,55.0,0,60,3.0,0.0
16628,58.0,0,60,3.0,0.0
16629,41.0,2,55,13.0,0.0
16630,29.0,14,55,14.0,0.0
16631,82.0,3,23,10.0,0.0
16632,70.0,5,23,11.0,0.0
16633,67.0,4,23,12.0,0.0
16634,84.0,3,23,10.0,0.0
16635,72.0,5,23,11.0,0.0
16636,72.0,0,30,2.0,0.0
16637,69.0,4,30,2.0,0.0
16638,69.0,4,23,12.0,0.0
16639,57.0,14,30,3.0,0.0
16640,60.0,0,30,3.0,0.0
16641,41.0,2,55,13.0,0.0
16642,29.0,14,55,14.0,0.0
16643,84.0,3,23,10.0,0.0
16644,72.0,5,23,11.0,0.0
16645,69.0,6,23,12.0,0.0
16646,81.0,3,23,10.0,0.0
16647,69.0,5,23,11.0,0.0
16648,65.0,4,30,2.0,0.0
16649,69.0,0,30,2.0,0.0
16650,65.0,4,23,12.0,0.0
16651,53.0,0,30,3.0,0.0
16652,57.0,14,30,3.0,0.0
16653,41.0,2,55,13.0,0.0
16654,29.0,14,55,14.0,0.0
16655,81.0,3,23,10.0,0.0
16656,69.0,5,23,11.0,0.0
16657,65.0,6,23,12.0,0.0
16658,77.0,3,23,10.0,0.0
16659,89.0,0,180,0.0,0.0
16660,84.0,1,180,0.0,0.0
16661,77.0,1,180,6.0,0.0
16662,65.0,0,180,6.0,0.0
16663,72.0,5,23,11.0,0.0
16664,65.0,1,180,4.0,0.0
16665,81.0,0,180,1.0,0.0
16666,84.0,1,180,1.0,0.0
16667,72.0,2,120,2.0,0.0
16668,69.0,0,120,2.0,0.0
16669,65.0,0,180,5.0,0.0
16670,69.0,14,23,12.0,0.0
16671,57.0,0,120,3.0,0.0
16672,60.0,6,120,3.0,0.0
16673,41.0,2,55,13.0,0.0
16674,29.0,6,55,14.0,0.0
16675,77.0,3,23,10.0,0.0
16676,72.0,5,23,11.0,0.0
16677,69.0,6,23,12.0,0.0
16678,41.0,8,0,15.0,0.0
16679,77.0,3,23,10.0,0.0
16680,72.0,5,23,11.0,0.0
16681,69.0,14,23,12.0,0.0
16682,53.0,2,55,13.0,0.0
16683,41.0,0,55,14.0,0.0
16684,77.0,3,23,10.0,0.0
16685,72.0,5,23,11.0,0.0
16686,69.0,4,23,12.0,0.0
16687,41.0,8,0,15.0,0.0
16688,77.0,3,23,10.0,0.0
16689,69.0,5,23,11.0,0.0
16690,65.0,2,60,2.0,0.0
16691,69.0,0,60,2.0,0.0
16692,65.0,22,23,12.0,0.0
16693,53.0,0,60,3.0,0.0
16694,57.0,0,60,3.0,0.0
16695,41.0,2,55,13.0,0.0
16696,29.0,6,55,14.0,0.0
16697,41.0,8,0,15.0,0.0
16698,77.0,3,23,10.0,0.0
16699,69.0,5,23,11.0,0.0
16700,65.0,0,23,12.0,0.0
16701,77.0,3,23,10.0,0.0
16702,70.0,5,23,11.0,0.0
16703,70.0,2,60,2.0,0.0
16704,67.0,0,60,2.0,0.0
16705,67.0,22,23,12.0,0.0
16706,55.0,0,60,3.0,0.0
16707,58.0,0,60,3.0,0.0
16708,41.0,2,55,13.0,0.0
16709,29.0,14,55,14.0,0.0
16710,77.0,3,23,10.0,0.0
16711,70.0,5,23,11.0,0.0
16712,67.0,4,23,12.0,0.0
16713,72.0,3,23,10.0,0.0
16714,72.0,5,23,11.0,0.0
16715,69.0,4,30,2.0,0.0
16716,72.0,0,30,2.0,0.0
16717,69.0,4,23,12.0,0.0
16718,57.0,0,30,3.0,0.0
16719,60.0,14,30,3.0,0.0
16720,41.0,2,55,13.0,0.0
16721,29.0,14,55,14.0,0.0
16722,72.0,3,23,10.0,0.0
16723,72.0,5,23,11.0,0.0
16724,69.0,6,23,12.0,0.0
16725,77.0,3,23,10.0,0.0
16726,69.0,5,23,11.0,0.0
16727,65.0,4,30,2.0,0.0
16728,69.0,0,30,2.0,0.0
16729,65.0,4,23,12.0,0.0
16730,57.0,0,30,3.0,0.0
16731,53.0,14,30,3.0,0.0
16732,41.0,2,55,13.0,0.0
16733,29.0,14,55,14.0,0.0
16734,77.0,3,23,10.0,0.0
16735,69.0,5,23,11.0,0.0
16736,65.0,6,23,12.0,0.0
16737,77.0,3,23,10.0,0.0
16738,88.0,0,180,0.0,0.0
16739,91.0,0,180,0.0,0.0
16740,79.0,1,180,6.0,0.0
16741,67.0,1,180,4.0,0.0
16742,73.0,5,23,11.0,0.0
16743,85.0,1,180,1.0,0.0
16744,82.0,0,180,1.0,0.0
16745,70.0,2,120,2.0,0.0
16746,73.0,0,120,2.0,0.0
16747,67.0,0,180,5.0,0.0
16748,70.0,14,23,12.0,0.0
16749,61.0,0,120,3.0,0.0
16750,41.0,2,55,13.0,0.0
16751,29.0,6,55,14.0,0.0
16752,41.0,8,30,15.0,0.0
16753,77.0,3,23,10.0,0.0
16754,73.0,5,23,11.0,0.0
16755,70.0,6,23,12.0,0.0
16756,41.0,8,30,15.0,0.0
16757,76.0,3,23,10.0,0.0
16758,73.0,5,23,11.0,0.0
16759,70.0,14,23,12.0,0.0
16760,53.0,2,55,13.0,0.0
16761,41.0,0,55,14.0,0.0
16762,41.0,8,30,15.0,0.0
16763,76.0,3,23,10.0,0.0
16764,73.0,5,23,11.0,0.0
16765,70.0,4,23,12.0,0.0
16766,41.0,8,30,15.0,0.0
16767,76.0,3,23,10.0,0.0
16768,70.0,5,23,11.0,0.0
16769,67.0,0,60,2.0,0.0
16770,70.0,2,60,2.0,0.0
16771,67.0,22,23,12.0,0.0
16772,55.0,0,60,3.0,0.0
16773,58.0,6,0,3.0,0.0
16774,41.0,2,55,13.0,0.0
16775,29.0,0,55,14.0,0.0
16776,41.0,8,60,15.0,0.0
16777,76.0,3,23,10.0,0.0
16778,70.0,5,23,11.0,0.0
16779,67.0,1,23,12.0,0.0
16780,77.0,3,23,10.0,0.0
16781,72.0,5,23,11.0,0.0
16782,72.0,0,60,2.0,0.0
16783,69.0,2,60,2.0,0.0
16784,69.0,22,23,12.0,0.0
16785,57.0,0,60,3.0,0.0
16786,60.0,14,60,3.0,0.0
16787,41.0,2,55,13.0,0.0
16788,29.0,0,55,14.0,0.0
16789,77.0,3,23,10.0,0.0
16790,72.0,5,23,11.0,0.0
16791,69.0,4,23,12.0,0.0
16792,79.0,3,23,10.0,0.0
16793,70.0,5,23,11.0,0.0
16794,70.0,4,30,2.0,0.0
16795,67.0,0,30,2.0,0.0
16796,67.0,4,23,12.0,0.0
16797,58.0,0,30,3.0,0.0
16798,55.0,14,30,3.0,0.0
16799,41.0,2,55,13.0,0.0
16800,29.0,14,55,14.0,0.0
16801,79.0,3,23,10.0,0.0
16802,70.0,5,23,11.0,0.0
16803,67.0,6,23,12.0,0.0
16804,81.0,3,23,10.0,0.0
16805,69.0,5,23,11.0,0.0
16806,65.0,0,30,2.0,0.0
16807,69.0,4,30,2.0,0.0
16808,65.0,4,23,12.0,0.0
16809,57.0,14,30,3.0,0.0
16810,53.0,0,30,3.0,0.0
16811,41.0,2,55,13.0,0.0
16812,29.0,14,55,14.0,0.0
16813,81.0,3,23,10.0,0.0
16814,69.0,5,23,11.0,0.0
16815,65.0,6,23,12.0,0.0
16816,70.0,3,23,10.0,0.0
16817,82.0,0,23,10.0,0.0
16818,91.0,1,180,0.0,0.0
16819,88.0,0,180,0.0,0.0
16820,79.0,1,180,6.0,0.0
16821,67.0,1,180,4.0,0.0
16822,67.0,5,23,11.0,0.0
16823,82.0,1,180,1.0,0.0
16824,85.0,0,180,1.0,0.0
16825,70.0,2,120,2.0,0.0
16826,73.0,0,120,2.0,0.0
16827,67.0,0,180,5.0,0.0
16828,64.0,14,23,12.0,0.0
16829,61.0,0,120,3.0,0.0
16830,41.0,2,55,13.0,0.0
16831,29.0,6,55,14.0,0.0
16832,41.0,8,30,15.0,0.0
16833,82.0,3,23,10.0,0.0
16834,70.0,0,23,10.0,0.0
16835,73.0,5,23,11.0,0.0
16836,70.0,6,23,12.0,0.0
16837,41.0,8,30,15.0,0.0
16838,82.0,0,23,10.0,0.0
16839,70.0,3,23,10.0,0.0
16840,73.0,5,23,11.0,0.0
16841,70.0,14,23,12.0,0.0
16842,53.0,2,55,13.0,0.0
16843,41.0,0,55,14.0,0.0
16844,41.0,8,30,15.0,0.0
16845,82.0,3,23,10.0,0.0
16846,70.0,0,23,10.0,0.0
16847,73.0,5,23,11.0,0.0
16848,70.0,4,23,12.0,0.0
16849,82.0,0,23,10.0,0.0
16850,70.0,3,23,10.0,0.0
16851,70.0,5,23,11.0,0.0
16852,67.0,0,60,2.0,0.0
16853,70.0,2,60,2.0,0.0
16854,67.0,22,23,12.0,0.0
16855,58.0,6,0,3.0,0.0
16856,55.0,6,60,3.0,0.0
16857,41.0,2,55,13.0,0.0
16858,29.0,0,55,14.0,0.0
16859,41.0,8,0,15.0,0.0
16860,70.0,3,23,10.0,0.0
16861,82.0,0,23,10.0,0.0
16862,70.0,5,23,11.0,0.0
16863,67.0,0,23,12.0,0.0
16864,70.0,3,23,10.0,0.0
16865,82.0,0,23,10.0,0.0
16866,72.0,5,23,11.0,0.0
16867,69.0,2,60,2.0,0.0
16868,72.0,0,60,2.0,0.0
16869,69.0,22,23,12.0,0.0
16870,57.0,0,60,3.0,0.0
16871,60.0,0,60,3.0,0.0
16872,41.0,2,55,13.0,0.0
16873,29.0,14,55,14.0,0.0
16874,82.0,3,23,10.0,0.0
16875,70.0,0,23,10.0,0.0
16876,72.0,5,23,11.0,0.0
16877,69.0,4,23,12.0,0.0
16878,70.0,0,23,10.0,0.0
16879,82.0,3,23,10.0,0.0
16880,70.0,5,23,11.0,0.0
16881,67.0,0,30,2.0,0.0
16882,70.0,4,30,2.0,0.0
16883,67.0,4,23,12.0,0.0
16884,55.0,14,30,3.0,0.0
16885,58.0,0,30,3.0,0.0
16886,41.0,2,55,13.0,0.0
16887,29.0,14,55,14.0,0.0
16888,82.0,3,23,10.0,0.0
16889,70.0,0,23,10.0,0.0
16890,70.0,5,23,11.0,0.0
16891,67.0,6,23,12.0,0.0
16892,82.0,0,23,10.0,0.0
16893,70.0,3,23,10.0,0.0
16894,69.0,5,23,11.0,0.0
16895,65.0,0,30,2.0,0.0
16896,69.0,4,30,2.0,0.0
16897,65.0,4,23,12.0,0.0
16898,53.0,14,30,3.0,0.0
16899,57.0,0,30,3.0,0.0
16900,41.0,2,55,13.0,0.0
16901,29.0,14,55,14.0,0.0
16902,82.0,3,23,10.0,0.0
16903,70.0,0,23,10.0,0.0
16904,69.0,5,23,11.0,0.0
16905,65.0,6,23,12.0,0.0
16906,70.0,3,23,10.0,0.0
16907,82.0,0,23,10.0,0.0
16908,88.0,0,180,0.0,0.0
16909,91.0,0,180,0.0,0.0
16910,79.0,1,180,6.0,0.0
16911,67.0,5,23,11.0,0.0
16912,67.0,1,180,4.0,0.0
16913,85.0,0,180,1.0,0.0
16914,82.0,1,180,1.0,0.0
16915,73.0,2,120,2.0,0.0
16916,70.0,0,120,2.0,0.0
16917,67.0,2,180,5.0,0.0
16918,64.0,14,23,12.0,0.0
16919,61.0,0,120,3.0,0.0
16920,58.0,0,120,3.0,0.0
16921,41.0,2,55,13.0,0.0
16922,29.0,6,55,14.0,0.0
16923,41.0,8,30,15.0,0.0
16924,70.0,0,23,10.0,0.0
16925,82.0,3,23,10.0,0.0
16926,67.0,5,23,11.0,0.0
16927,64.0,6,23,12.0,0.0
16928,41.0,8,30,15.0,0.0
16929,70.0,0,23,10.0,0.0
16930,82.0,3,23,10.0,0.0
16931,73.0,5,23,11.0,0.0
16932,70.0,14,23,12.0,0.0
16933,53.0,2,55,13.0,0.0
16934,41.0,6,55,14.0,0.0
16935,41.0,8,30,15.0,0.0
16936,82.0,0,23,10.0,0.0
16937,70.0,3,23,10.0,0.0
16938,73.0,5,23,11.0,0.0
16939,70.0,4,23,12.0,0.0
16940,41.0,8,30,15.0,0.0
16941,79.0,3,23,10.0,0.0
16942,73.0,5,23,11.0,0.0
16943,70.0,0,60,2.0,0.0
16944,73.0,2,60,2.0,0.0
16945,70.0,22,23,12.0,0.0
16946,58.0,0,60,3.0,0.0
16947,61.0,6,60,3.0,0.0
16948,41.0,0,55,13.0,0.0
16949,29.0,0,55,14.0,0.0
16950,41.0,8,60,15.0,0.0
16951,79.0,3,23,10.0,0.0
16952,73.0,5,23,11.0,0.0
16953,70.0,1,23,12.0,0.0
16954,81.0,3,23,10.0,0.0
16955,72.0,5,23,11.0,0.0
16956,72.0,2,60,2.0,0.0
16957,69.0,0,60,2.0,0.0
16958,69.0,22,23,12.0,0.0
16959,60.0,0,60,3.0,0.0
16960,57.0,0,60,3.0,0.0
16961,41.0,2,55,13.0,0.0
16962,29.0,14,55,14.0,0.0
16963,81.0,3,23,10.0,0.0
16964,72.0,5,23,11.0,0.0
16965,69.0,4,23,12.0,0.0
16966,82.0,3,23,10.0,0.0
16967,70.0,5,23,11.0,0.0
16968,70.0,4,30,2.0,0.0
16969,67.0,0,30,2.0,0.0
16970,67.0,4,23,12.0,0.0
16971,58.0,0,30,3.0,0.0
16972,55.0,14,30,3.0,0.0
16973,41.0,2,55,13.0,0.0
16974,29.0,14,55,14.0,0.0
16975,82.0,3,23,10.0,0.0
16976,70.0,5,23,11.0,0.0
16977,67.0,6,23,12.0,0.0
16978,83.0,3,23,10.0,0.0
16979,71.0,5,23,11.0,0.0
16980,68.0,0,30,2.0,0.0
16981,71.0,4,30,2.0,0.0
16982,68.0,4,23,12.0,0.0
16983,56.0,14,30,3.0,0.0
16984,59.0,0,30,3.0,0.0
16985,41.0,2,55,13.0,0.0
16986,29.0,14,55,14.0,0.0
16987,83.0,3,23,10.0,0.0
16988,71.0,5,23,11.0,0.0
16989,68.0,6,23,12.0,0.0
16990,84.0,3,23,10.0,0.0
16991,89.0,0,180,0.0,0.0
16992,93.0,2,180,0.0,0.0
16993,72.0,1,180,4.0,0.0
16994,72.0,5,23,11.0,0.0
16995,84.0,0,180,1.0,0.0
16996,81.0,1,180,1.0,0.0
16997,69.0,0,30,2.0,0.0
16998,72.0,4,30,2.0,0.0
16999,69.0,2,180,5.0,0.0
17000,69.0,4,23,12.0,0.0
17001,60.0,0,30,3.0,0.0
17002,57.0,6,30,3.0,0.0
17003,41.0,2,55,13.0,0.0
17004,29.0,6,55,14.0,0.0
17005,41.0,8,30,15.0,0.0
17006,84.0,3,23,10.0,0.0
17007,72.0,5,23,11.0,0.0
17008,69.0,6,23,12.0,0.0
17009,84.0,3,23,10.0,0.0
17010,81.0,5,23,11.0,0.0
17011,72.0,2,60,2.0,0.0
17012,60.0,14,23,12.0,0.0
17013,60.0,0,60,3.0,0.0
17014,53.0,2,55,13.0,0.0
17015,41.0,6,55,14.0,0.0
17016,41.0,8,0,15.0,0.0
17017,84.0,3,23,10.0,0.0
17018,81.0,5,23,11.0,0.0
17019,60.0,4,23,12.0,0.0
17020,41.0,8,0,15.0,0.0
17021,84.0,3,23,10.0,0.0
17022,81.0,5,23,11.0,0.0
17023,74.0,2,60,2.0,0.0
17024,62.0,22,23,12.0,0.0
17025,62.0,6,60,3.0,0.0
17026,41.0,0,55,13.0,0.0
17027,29.0,0,55,14.0,0.0
17028,41.0,8,60,15.0,0.0
17029,84.0,3,23,10.0,0.0
17030,81.0,5,23,11.0,0.0
17031,62.0,0,23,12.0,0.0
17032,84.0,3,23,10.0,0.0
17033,81.0,5,23,11.0,0.0
17034,72.0,2,60,2.0,0.0
17035,60.0,22,23,12.0,0.0
17036,60.0,14,60,3.0,0.0
17037,41.0,2,55,13.0,0.0
17038,29.0,0,55,14.0,0.0
17039,84.0,3,23,10.0,0.0
17040,81.0,5,23,11.0,0.0
17041,60.0,1,23,12.0,0.0
17042,82.0,3,23,10.0,0.0
17043,91.0,0,60,0.0,0.0
17044,84.0,0,60,0.0,0.0
17045,72.0,3,0,6.0,0.0
17046,60.0,0,0,6.0,0.0
17047,79.0,5,23,11.0,0.0
17048,70.0,1,60,4.0,0.0
17049,82.0,1,60,1.0,0.0
17050,79.0,0,60,1.0,0.0
17051,74.0,2,60,2.0,0.0
17052,67.0,2,60,5.0,0.0
17053,62.0,22,23,12.0,0.0
17054,62.0,14,60,3.0,0.0
17055,41.0,0,55,13.0,0.0
17056,29.0,0,55,14.0,0.0
17057,82.0,3,23,10.0,0.0
17058,79.0,5,23,11.0,0.0
17059,62.0,1,23,12.0,0.0
17060,82.0,3,23,10.0,0.0
17061,79.0,5,23,11.0,0.0
17062,76.0,2,60,2.0,0.0
17063,64.0,22,23,12.0,0.0
17064,64.0,0,60,3.0,0.0
17065,41.0,2,55,13.0,0.0
17066,29.0,14,55,14.0,0.0
17067,82.0,3,23,10.0,0.0
17068,79.0,5,23,11.0,0.0
17069,64.0,4,23,12.0,0.0
17070,81.0,3,23,10.0,0.0
17071,93.0,1,60,0.0,0.0
17072,89.0,0,60,0.0,0.0
17073,72.0,1,60,6.0,0.0
17074,60.0,0,60,6.0,0.0
17075,77.0,5,23,11.0,0.0
17076,69.0,1,60,4.0,0.0
17077,81.0,1,60,1.0,0.0
17078,77.0,0,60,1.0,0.0
17079,77.0,2,60,2.0,0.0
17080,65.0,2,60,5.0,0.0
17081,65.0,22,23,12.0,0.0
17082,65.0,0,60,3.0,0.0
17083,41.0,0,55,13.0,0.0
17084,29.0,6,55,14.0,0.0
17085,41.0,8,60,15.0,0.0
17086,81.0,3,23,10.0,0.0
17087,77.0,5,23,11.0,0.0
17088,65.0,0,23,12.0,0.0
17089,84.0,3,23,10.0,0.0
17090,72.0,5,23,11.0,0.0
17091,60.0,22,23,12.0,0.0
17092,41.0,2,55,13.0,0.0
17093,29.0,14,55,14.0,0.0
17094,84.0,3,23,10.0,0.0
17095,72.0,5,23,11.0,0.0
17096,60.0,6,23,12.0,0.0
17097,77.0,3,23,10.0,0.0
17098,89.0,0,60,0.0,0.0
17099,84.0,1,60,0.0,0.0
17100,60.0,0,60,6.0,0.0
17101,72.0,1,60,6.0,0.0
17102,65.0,1,60,4.0,0.0
17103,72.0,5,23,11.0,0.0
17104,72.0,0,60,1.0,0.0
17105,77.0,1,60,1.0,0.0
17106,72.0,0,60,2.0,0.0
17107,77.0,2,60,2.0,0.0
17108,57.0,2,60,5.0,0.0
17109,60.0,22,23,12.0,0.0
17110,45.0,0,60,3.0,0.0
17111,57.0,6,60,3.0,0.0
17112,45.0,0,55,13.0,0.0
17113,33.0,0,55,14.0,0.0
17114,48.0,8,60,15.0,0.0
17115,77.0,3,23,10.0,0.0
17116,72.0,5,23,11.0,0.0
17117,60.0,0,23,12.0,0.0
17118,72.0,3,23,10.0,0.0
17119,69.0,5,23,11.0,0.0
17120,57.0,22,23,12.0,0.0
17121,45.0,2,55,13.0,0.0
17122,33.0,14,55,14.0,0.0
17123,72.0,3,23,10.0,0.0
17124,69.0,5,23,11.0,0.0
17125,57.0,6,23,12.0,0.0
17126,79.0,3,23,10.0,0.0
17127,88.0,0,60,0.0,0.0
17128,91.0,0,60,0.0,0.0
17129,72.0,1,60,6.0,0.0
17130,60.0,0,60,6.0,0.0
17131,67.0,1,60,4.0,0.0
17132,76.0,5,23,11.0,0.0
17133,76.0,0,60,1.0,0.0
17134,79.0,1,60,1.0,0.0
17135,79.0,2,60,2.0,0.0
17136,76.0,0,60,2.0,0.0
17137,60.0,2,60,5.0,0.0
17138,60.0,22,23,12.0,0.0
17139,48.0,0,60,3.0,0.0
17140,60.0,6,60,3.0,0.0
17141,48.0,0,55,13.0,0.0
17142,36.0,0,55,14.0,0.0
17143,48.0,8,60,15.0,0.0
17144,79.0,3,23,10.0,0.0
17145,76.0,5,23,11.0,0.0
17146,60.0,1,23,12.0,0.0
17147,76.0,3,23,10.0,0.0
17148,72.0,5,23,11.0,0.0
17149,48.0,22,23,12.0,0.0
17150,48.0,2,55,13.0,0.0
17151,36.0,14,55,14.0,0.0
17152,76.0,3,23,10.0,0.0
17153,72.0,5,23,11.0,0.0
17154,48.0,6,23,12.0,0.0
17155,69.0,0,23,10.0,0.0
17156,81.0,3,23,10.0,0.0
17157,89.0,1,60,0.0,0.0
17158,93.0,0,60,0.0,0.0
17159,60.0,0,60,6.0,0.0
17160,72.0,1,60,6.0,0.0
17161,69.0,1,60,4.0,0.0
17162,77.0,5,23,11.0,0.0
17163,81.0,0,60,1.0,0.0
17164,77.0,1,60,1.0,0.0
17165,77.0,0,60,2.0,0.0
17166,81.0,2,60,2.0,0.0
17167,65.0,0,60,5.0,0.0
17168,65.0,22,23,12.0,0.0
17169,41.0,0,60,3.0,0.0
17170,53.0,6,60,3.0,0.0
17171,41.0,2,55,13.0,0.0
17172,29.0,0,55,14.0,0.0
17173,41.0,8,60,15.0,0.0
17174,69.0,0,23,10.0,0.0
17175,81.0,3,23,10.0,0.0
17176,77.0,5,23,11.0,0.0
17177,65.0,0,23,12.0,0.0
17178,69.0,0,23,10.0,0.0
17179,84.0,3,23,10.0,0.0
17180,72.0,5,23,11.0,0.0
17181,60.0,22,23,12.0,0.0
17182,41.0,2,55,13.0,0.0
17183,29.0,14,55,14.0,0.0
17184,69.0,3,23,10.0,0.0
17185,84.0,0,23,10.0,0.0
17186,72.0,5,23,11.0,0.0
17187,60.0,6,23,12.0,0.0
17188,77.0,3,23,10.0,0.0
17189,84.0,0,60,0.0,0.0
17190,89.0,1,60,0.0,0.0
17191,72.0,1,60,6.0,0.0
17192,60.0,0,60,6.0,0.0
17193,65.0,1,60,4.0,0.0
17194,72.0,5,23,11.0,0.0
17195,77.0,1,60,1.0,0.0
17196,72.0,0,60,1.0,0.0
17197,72.0,2,60,2.0,0.0
17198,77.0,0,60,2.0,0.0
17199,57.0,2,60,5.0,0.0
17200,60.0,22,23,12.0,0.0
17201,57.0,0,60,3.0,0.0
17202,45.0,0,60,3.0,0.0
17203,45.0,0,55,13.0,0.0
17204,33.0,6,55,14.0,0.0
17205,48.0,8,60,15.0,0.0
17206,77.0,3,23,10.0,0.0
17207,72.0,5,23,11.0,0.0
17208,60.0,0,23,12.0,0.0
17209,72.0,3,23,10.0,0.0
17210,69.0,5,23,11.0,0.0
17211,57.0,22,23,12.0,0.0
17212,45.0,2,55,13.0,0.0
17213,33.0,14,55,14.0,0.0
17214,72.0,3,23,10.0,0.0
17215,69.0,5,23,11.0,0.0
17216,57.0,6,23,12.0,0.0
17217,79.0,3,23,10.0,0.0
17218,88.0,0,60,0.0,0.0
17219,91.0,0,60,0.0,0.0
17220,72.0,1,60,6.0,0.0
17221,60.0,0,60,6.0,0.0
17222,76.0,5,23,11.0,0.0
17223,67.0,1,60,4.0,0.0
17224,79.0,0,60,1.0,0.0
17225,76.0,1,60,1.0,0.0
17226,76.0,2,60,2.0,0.0
17227,79.0,0,60,2.0,0.0
17228,60.0,2,60,5.0,0.0
17229,60.0,22,23,12.0,0.0
17230,48.0,6,60,3.0,0.0
17231,60.0,0,60,3.0,0.0
17232,48.0,0,55,13.0,0.0
17233,36.0,0,55,14.0,0.0
17234,48.0,8,60,15.0,0.0
17235,79.0,3,23,10.0,0.0
17236,76.0,5,23,11.0,0.0
17237,60.0,1,23,12.0,0.0
17238,76.0,3,23,10.0,0.0
17239,72.0,5,23,11.0,0.0
17240,48.0,22,23,12.0,0.0
17241,48.0,2,55,13.0,0.0
17242,36.0,14,55,14.0,0.0
17243,76.0,3,23,10.0,0.0
17244,72.0,5,23,11.0,0.0
17245,48.0,6,23,12.0,0.0
17246,69.0,3,23,10.0,0.0
17247,81.0,0,23,10.0,0.0
17248,93.0,0,60,0.0,0.0
17249,89.0,1,60,0.0,0.0
17250,72.0,1,60,6.0,0.0
17251,60.0,0,60,6.0,0.0
17252,69.0,1,60,4.0,0.0
17253,77.0,5,23,11.0,0.0
17254,77.0,1,60,1.0,0.0
17255,81.0,0,60,1.0,0.0
17256,77.0,2,60,2.0,0.0
17257,81.0,0,60,2.0,0.0
17258,65.0,0,60,5.0,0.0
17259,65.0,22,23,12.0,0.0
17260,53.0,0,60,3.0,0.0
17261,41.0,6,60,3.0,0.0
17262,41.0,2,55,13.0,0.0
17263,29.0,0,55,14.0,0.0
17264,41.0,8,60,15.0,0.0
17265,81.0,0,23,10.0,0.0
17266,69.0,3,23,10.0,0.0
17267,77.0,5,23,11.0,0.0
17268,65.0,0,23,12.0,0.0
17269,84.0,0,23,10.0,0.0
17270,69.0,3,23,10.0,0.0
17271,72.0,5,23,11.0,0.0
17272,60.0,22,23,12.0,0.0
17273,41.0,2,55,13.0,0.0
17274,29.0,14,55,14.0,0.0
17275,84.0,0,23,10.0,0.0
17276,69.0,3,23,10.0,0.0
17277,72.0,5,23,11.0,0.0
17278,60.0,6,23,12.0,0.0
17279,77.0,3,23,10.0,0.0
17280,84.0,1,60,0.0,0.0
17281,89.0,0,60,0.0,0.0
17282,72.0,0,60,6.0,0.0
17283,60.0,1,60,6.0,0.0
17284,72.0,5,23,11.0,0.0
17285,65.0,1,60,4.0,0.0
17286,77.0,0,60,1.0,0.0
17287,72.0,1,60,1.0,0.0
17288,72.0,0,60,2.0,0.0
17289,77.0,2,60,2.0,0.0
17290,57.0,2,60,5.0,0.0
17291,60.0,22,23,12.0,0.0
17292,57.0,0,60,3.0,0.0
17293,45.0,6,60,3.0,0.0
17294,45.0,0,55,13.0,0.0
17295,33.0,0,55,14.0,0.0
17296,48.0,8,60,15.0,0.0
17297,77.0,3,23,10.0,0.0
17298,72.0,5,23,11.0,0.0
17299,60.0,0,23,12.0,0.0
17300,72.0,3,23,10.0,0.0
17301,69.0,5,23,11.0,0.0
17302,57.0,22,23,12.0,0.0
17303,45.0,2,55,13.0,0.0
17304,33.0,14,55,14.0,0.0
17305,72.0,3,23,10.0,0.0
17306,69.0,5,23,11.0,0.0
17307,57.0,6,23,12.0,0.0
17308,79.0,3,23,10.0,0.0
17309,91.0,0,60,0.0,0.0
17310,88.0,0,60,0.0,0.0
17311,60.0,0,60,6.0,0.0
17312,72.0,1,60,6.0,0.0
17313,67.0,1,60,4.0,0.0
17314,76.0,5,23,11.0,0.0
17315,79.0,1,60,1.0,0.0
17316,76.0,0,60,1.0,0.0
17317,79.0,2,60,2.0,0.0
17318,76.0,0,60,2.0,0.0
17319,60.0,2,60,5.0,0.0
17320,64.0,22,23,12.0,0.0
17321,48.0,6,60,3.0,0.0
17322,60.0,0,60,3.0,0.0
17323,48.0,0,55,13.0,0.0
17324,36.0,0,55,14.0,0.0
17325,48.0,8,60,15.0,0.0
17326,79.0,3,23,10.0,0.0
17327,76.0,5,23,11.0,0.0
17328,64.0,1,23,12.0,0.0
17329,76.0,3,23,10.0,0.0
17330,72.0,5,23,11.0,0.0
17331,60.0,22,23,12.0,0.0
17332,48.0,2,55,13.0,0.0
17333,36.0,324,55,14.0,0.0
17334,76.0,3,23,10.0,0.0
17335,72.0,5,23,11.0,0.0
17336,60.0,6,23,12.0,0.0
17337,82.0,1,335,10.0,0.0
17338,79.0,0,332,11.0,0.0
17339,70.0,0,332,11.0,0.0
17340,48.0,0,327,12.0,0.0
17341,60.0,0,327,12.0,0.0
17342,48.0,2,325,13.0,0.0
17343,36.0,1,325,14.0,0.0
17344,88.0,1,215,0.0,0.0
17345,91.0,0,215,0.0,0.0
17346,67.0,2,210,4.0,0.0
17347,82.0,0,215,1.0,0.0
17348,79.0,0,215,1.0,0.0
17349,76.0,5,215,2.0,0.0
17350,82.0,0,215,2.0,0.0
17351,60.0,0,210,5.0,0.0
17352,58.0,0,210,3.0,0.0
17353,55.0,0,210,3.0,0.0
17354,60.0,0,95,6.0,0.0
17355,72.0,0,95,6.0,0.0
17356,48.0,138,95,15.0,0.0
17357,82.0,3,240,10.0,0.0
17358,60.0,1,2880,4.0,0.0
17359,48.0,1,2880,5.0,0.0
17360,79.0,60,60,11.0,0.0
17361,74.0,57,60,11.0,0.0
17362,76.0,60,60,11.0,0.0
17363,81.0,60,180,10.0,0.0
17364,77.0,60,60,11.0,0.0
17365,72.0,57,60,11.0,0.0
17366,72.0,2,2520,0.0,0.0
17367,84.0,0,2520,0.0,0.0
17368,70.0,2,240,11.0,0.0
17369,67.0,0,240,2.0,0.0
17370,79.0,55,240,2.0,0.0
17371,79.0,60,60,10.0,0.0
17372,74.0,60,60,10.0,0.0
17373,76.0,3,60,10.0,0.0
17374,77.0,60,60,10.0,0.0
17375,69.0,60,180,11.0,0.0
17376,65.0,58,120,2.0,0.0
17377,77.0,0,120,2.0,0.0
17378,72.0,5,60,10.0,0.0
17379,70.0,3,240,10.0,0.0
17380,58.0,4,240,12.0,0.0
17381,67.0,9,60,11.0,0.0
17382,55.0,51,60,13.0,0.0
17383,62.0,9,60,11.0,0.0
17384,50.0,48,60,13.0,0.0
17385,64.0,5,60,11.0,0.0
17386,52.0,51,60,13.0,0.0
17387,69.0,8,180,10.0,0.0
17388,65.0,9,60,11.0,0.0
17389,57.0,52,180,12.0,0.0
17390,53.0,51,60,13.0,0.0
17391,60.0,9,60,11.0,0.0
17392,48.0,48,60,13.0,0.0
17393,58.0,5,240,11.0,0.0
17394,67.0,0,240,3.0,0.0
17395,58.0,3,240,3.0,0.0
17396,46.0,48,240,13.0,0.0
17397,67.0,8,60,10.0,0.0
17398,55.0,52,60,12.0,0.0
17399,62.0,8,60,10.0,0.0
17400,50.0,52,60,12.0,0.0
17401,64.0,3,60,10.0,0.0
17402,52.0,1,60,12.0,0.0
17403,65.0,8,60,10.0,0.0
17404,57.0,5,120,11.0,0.0
17405,53.0,52,60,12.0,0.0
17406,65.0,0,120,3.0,0.0
17407,57.0,3,120,3.0,0.0
17408,45.0,108,120,13.0,0.0
17409,60.0,3,60,10.0,0.0
17410,48.0,1,60,12.0,0.0
17411,58.0,5,240,11.0,0.0
17412,58.0,3,240,3.0,0.0
17413,67.0,0,240,3.0,0.0
17414,46.0,48,240,13.0,0.0
17415,67.0,8,60,10.0,0.0
17416,55.0,52,60,12.0,0.0
17417,62.0,8,60,10.0,0.0
17418,50.0,52,60,12.0,0.0
17419,64.0,3,60,10.0,0.0
17420,52.0,1,60,12.0,0.0
17421,65.0,8,60,10.0,0.0
17422,57.0,5,120,11.0,0.0
17423,53.0,52,60,12.0,0.0
17424,65.0,0,120,3.0,0.0
17425,57.0,3,120,3.0,0.0
17426,45.0,108,120,13.0,0.0
17427,60.0,3,60,10.0,0.0
17428,48.0,1,60,12.0,0.0
17429,58.0,5,240,11.0,0.0
17430,58.0,0,240,3.0,0.0
17431,67.0,3,240,3.0,0.0
17432,46.0,48,240,13.0,0.0
17433,67.0,8,60,10.0,0.0
17434,55.0,52,60,12.0,0.0
17435,62.0,8,60,10.0,0.0
17436,50.0,52,60,12.0,0.0
17437,64.0,3,60,10.0,0.0
17438,52.0,1,60,12.0,0.0
17439,65.0,8,60,10.0,0.0
17440,57.0,5,120,11.0,0.0
17441,53.0,52,60,12.0,0.0
17442,65.0,3,120,3.0,0.0
17443,57.0,0,120,3.0,0.0
17444,45.0,108,120,13.0,0.0
17445,60.0,3,60,10.0,0.0
17446,48.0,1,60,12.0,0.0
17447,58.0,2,240,11.0,0.0
17448,72.0,1,720,1.0,0.0
17449,84.0,0,720,1.0,0.0
17450,67.0,3,240,2.0,0.0
17451,67.0,3,240,3.0,0.0
17452,58.0,0,240,3.0,0.0
17453,46.0,48,240,13.0,0.0
17454,67.0,8,60,10.0,0.0
17455,55.0,52,60,12.0,0.0
17456,62.0,8,60,10.0,0.0
17457,50.0,52,60,12.0,0.0
17458,64.0,3,60,10.0,0.0
17459,52.0,1,60,12.0,0.0
17460,65.0,8,60,10.0,0.0
17461,57.0,2,120,11.0,0.0
17462,65.0,3,120,2.0,0.0
17463,53.0,52,60,12.0,0.0
17464,65.0,3,120,3.0,0.0
17465,57.0,0,120,3.0,0.0
17466,45.0,108,120,13.0,0.0
17467,60.0,3,60,10.0,0.0
17468,48.0,1,60,12.0,0.0
17469,58.0,2,240,11.0,0.0
17470,67.0,3,240,2.0,0.0
17471,67.0,0,240,3.0,0.0
17472,58.0,3,240,3.0,0.0
17473,46.0,48,240,13.0,0.0
17474,67.0,8,60,10.0,0.0
17475,55.0,52,60,12.0,0.0
17476,62.0,8,60,10.0,0.0
17477,50.0,52,60,12.0,0.0
17478,64.0,3,60,10.0,0.0
17479,52.0,1,60,12.0,0.0
17480,65.0,8,60,10.0,0.0
17481,69.0,2,120,2.0,0.0
17482,53.0,52,60,12.0,0.0
17483,60.0,0,120,3.0,0.0
17484,69.0,3,120,3.0,0.0
17485,48.0,18,120,13.0,0.0
17486,69.0,1,60,10.0,0.0
17487,57.0,1,60,12.0,0.0
17488,58.0,3,30,10.0,0.0
17489,79.0,1,240,0.0,0.0
17490,60.0,1,240,6.0,0.0
17491,72.0,0,240,6.0,0.0
17492,67.0,1,240,4.0,0.0
17493,55.0,6,30,11.0,0.0
17494,70.0,1,240,1.0,0.0
17495,79.0,0,240,1.0,0.0
17496,70.0,0,240,2.0,0.0
17497,79.0,2,240,2.0,0.0
17498,60.0,1,240,5.0,0.0
17499,53.0,3,30,3.0,0.0
17500,53.0,2,30,13.0,0.0
17501,41.0,16,30,14.0,0.0
17502,41.0,15,120,15.0,0.0
17503,67.0,3,30,10.0,0.0
17504,58.0,27,30,11.0,0.0
17505,67.0,3,30,10.0,0.0
17506,58.0,5,30,11.0,0.0
17507,53.0,22,30,12.0,0.0
17508,53.0,3,60,3.0,0.0
17509,53.0,2,60,13.0,0.0
17510,41.0,1,60,14.0,0.0
17511,67.0,3,30,10.0,0.0
17512,53.0,1,30,12.0,0.0
17513,67.0,3,30,10.0,0.0
17514,58.0,5,0,11.0,0.0
17515,50.0,3,60,3.0,0.0
17516,50.0,2,60,13.0,0.0
17517,38.0,16,60,14.0,0.0
17518,58.0,5,30,11.0,0.0
17519,50.0,22,0,12.0,0.0
17520,67.0,3,0,10.0,0.0
17521,58.0,5,30,11.0,0.0
17522,52.0,3,60,3.0,0.0
17523,52.0,2,60,13.0,0.0
17524,40.0,16,60,14.0,0.0
17525,67.0,3,0,10.0,0.0
17526,58.0,0,30,11.0,0.0
17527,52.0,22,0,12.0,0.0
17528,77.0,1,120,0.0,0.0
17529,60.0,0,120,6.0,0.0
17530,72.0,1,120,6.0,0.0
17531,65.0,1,120,4.0,0.0
17532,69.0,0,120,1.0,0.0
17533,77.0,1,120,1.0,0.0
17534,77.0,0,120,2.0,0.0
17535,69.0,2,120,2.0,0.0
17536,57.0,1,120,5.0,0.0
17537,53.0,3,60,3.0,0.0
17538,53.0,2,60,13.0,0.0
17539,41.0,16,60,14.0,0.0
17540,41.0,15,120,15.0,0.0
17541,65.0,3,0,10.0,0.0
17542,57.0,5,0,11.0,0.0
17543,53.0,22,0,12.0,0.0
17544,57.0,5,0,11.0,0.0
17545,48.0,22,30,12.0,0.0
17546,48.0,3,60,3.0,0.0
17547,48.0,2,60,13.0,0.0
17548,36.0,1,60,14.0,0.0
17549,57.0,3,0,10.0,0.0
17550,57.0,0,30,11.0,0.0
17551,48.0,1,30,12.0,0.0
17552,58.0,3,30,10.0,0.0
17553,79.0,1,240,0.0,0.0
17554,60.0,1,240,6.0,0.0
17555,72.0,0,240,6.0,0.0
17556,55.0,27,30,11.0,0.0
17557,67.0,0,240,4.0,0.0
17558,70.0,1,240,1.0,0.0
17559,79.0,0,240,1.0,0.0
17560,70.0,0,240,2.0,0.0
17561,79.0,2,240,2.0,0.0
17562,60.0,1,240,5.0,0.0
17563,41.0,15,120,15.0,0.0
17564,58.0,27,30,11.0,0.0
17565,67.0,3,0,10.0,0.0
17566,53.0,22,30,12.0,0.0
17567,53.0,3,60,3.0,0.0
17568,53.0,2,60,13.0,0.0
17569,41.0,1,60,14.0,0.0
17570,58.0,5,0,11.0,0.0
17571,53.0,1,30,12.0,0.0
17572,67.0,3,0,10.0,0.0
17573,58.0,5,0,11.0,0.0
17574,50.0,3,60,3.0,0.0
17575,50.0,2,60,13.0,0.0
17576,38.0,16,60,14.0,0.0
17577,67.0,3,0,10.0,0.0
17578,58.0,5,30,11.0,0.0
17579,50.0,22,0,12.0,0.0
17580,67.0,3,0,10.0,0.0
17581,52.0,3,60,3.0,0.0
17582,52.0,2,60,13.0,0.0
17583,40.0,16,60,14.0,0.0
17584,67.0,1,30,10.0,0.0
17585,58.0,5,0,11.0,0.0
17586,52.0,22,0,12.0,0.0
17587,65.0,3,30,10.0,0.0
17588,77.0,1,120,0.0,0.0
17589,72.0,1,120,6.0,0.0
17590,60.0,0,120,6.0,0.0
17591,65.0,0,120,4.0,0.0
17592,57.0,5,30,11.0,0.0
17593,69.0,0,120,1.0,0.0
17594,77.0,1,120,1.0,0.0
17595,77.0,0,120,2.0,0.0
17596,69.0,2,120,2.0,0.0
17597,57.0,1,120,5.0,0.0
17598,53.0,3,60,3.0,0.0
17599,53.0,2,60,13.0,0.0
17600,41.0,16,60,14.0,0.0
17601,41.0,15,120,15.0,0.0
17602,65.0,3,30,10.0,0.0
17603,57.0,5,30,11.0,0.0
17604,53.0,22,0,12.0,0.0
17605,57.0,5,30,11.0,0.0
17606,48.0,22,30,12.0,0.0
17607,48.0,3,60,3.0,0.0
17608,48.0,2,60,13.0,0.0
17609,36.0,1,60,14.0,0.0
17610,57.0,3,0,10.0,0.0
17611,57.0,1,30,11.0,0.0
17612,48.0,1,30,12.0,0.0
17613,58.0,3,30,10.0,0.0
17614,79.0,1,240,0.0,0.0
17615,67.0,1,240,4.0,0.0
17616,55.0,27,30,11.0,0.0
17617,70.0,0,240,1.0,0.0
17618,79.0,1,240,1.0,0.0
17619,70.0,0,240,2.0,0.0
17620,79.0,2,240,2.0,0.0
17621,60.0,1,240,5.0,0.0
17622,41.0,15,120,15.0,0.0
17623,67.0,3,30,10.0,0.0
17624,58.0,27,0,11.0,0.0
17625,53.0,22,30,12.0,0.0
17626,53.0,3,60,3.0,0.0
17627,53.0,2,60,13.0,0.0
17628,41.0,1,60,14.0,0.0
17629,67.0,3,0,10.0,0.0
17630,53.0,1,30,12.0,0.0
17631,67.0,3,30,10.0,0.0
17632,58.0,5,0,11.0,0.0
17633,50.0,3,60,3.0,0.0
17634,50.0,2,60,13.0,0.0
17635,38.0,16,60,14.0,0.0
17636,67.0,3,30,10.0,0.0
17637,50.0,22,0,12.0,0.0
17638,67.0,3,30,10.0,0.0
17639,58.0,5,0,11.0,0.0
17640,52.0,22,30,12.0,0.0
17641,52.0,3,60,3.0,0.0
17642,52.0,2,60,13.0,0.0
17643,40.0,16,60,14.0,0.0
17644,67.0,1,30,10.0,0.0
17645,58.0,0,30,11.0,0.0
17646,52.0,1,30,12.0,0.0
17647,65.0,3,30,10.0,0.0
17648,77.0,1,120,0.0,0.0
17649,72.0,1,0,6.0,0.0
17650,60.0,0,0,6.0,0.0
17651,65.0,1,120,4.0,0.0
17652,77.0,0,120,1.0,0.0
17653,69.0,1,120,1.0,0.0
17654,69.0,2,120,2.0,0.0
17655,77.0,0,120,2.0,0.0
17656,57.0,1,120,5.0,0.0
17657,53.0,22,30,12.0,0.0
17658,53.0,3,60,3.0,0.0
17659,53.0,2,60,13.0,0.0
17660,41.0,16,60,14.0,0.0
17661,65.0,3,30,10.0,0.0
17662,57.0,5,0,11.0,0.0
17663,53.0,1,30,12.0,0.0
17664,57.0,3,30,10.0,0.0
17665,57.0,5,30,11.0,0.0
17666,48.0,22,30,12.0,0.0
17667,48.0,3,60,3.0,0.0
17668,48.0,2,60,13.0,0.0
17669,36.0,1,60,14.0,0.0
17670,57.0,1,30,10.0,0.0
17671,57.0,0,30,11.0,0.0
17672,48.0,1,30,12.0,0.0
17673,58.0,3,30,10.0,0.0
17674,79.0,1,240,0.0,0.0
17675,72.0,0,240,6.0,0.0
17676,60.0,1,240,6.0,0.0
17677,55.0,27,30,11.0,0.0
17678,67.0,1,240,4.0,0.0
17679,79.0,0,240,1.0,0.0
17680,70.0,1,120,1.0,0.0
17681,79.0,2,240,2.0,0.0
17682,70.0,4,120,2.0,0.0
17683,60.0,2,240,5.0,0.0
17684,41.0,15,0,15.0,0.0
17685,67.0,3,30,10.0,0.0
17686,58.0,27,30,11.0,0.0
17687,67.0,1,30,10.0,0.0
17688,58.0,27,30,11.0,0.0
17689,53.0,2,23,12.0,0.0
17690,53.0,3,60,3.0,0.0
17691,53.0,2,60,13.0,0.0
17692,41.0,1,60,14.0,0.0
17693,53.0,2,23,12.0,0.0
17694,67.0,1,0,10.0,0.0
17695,58.0,1,0,11.0,0.0
17696,72.0,1,120,1.0,0.0
17697,72.0,0,120,2.0,0.0
17698,50.0,2,23,12.0,0.0
17699,50.0,3,60,3.0,0.0
17700,50.0,2,60,13.0,0.0
17701,38.0,16,60,14.0,0.0
17702,67.0,1,0,10.0,0.0
17703,50.0,2,23,12.0,0.0
17704,67.0,1,30,10.0,0.0
17705,58.0,6,0,11.0,0.0
17706,52.0,2,23,12.0,0.0
17707,52.0,3,60,3.0,0.0
17708,52.0,2,60,13.0,0.0
17709,40.0,16,60,14.0,0.0
17710,67.0,1,30,10.0,0.0
17711,58.0,0,30,11.0,0.0
17712,52.0,0,23,12.0,0.0
17713,81.0,0,120,0.0,0.0
17714,65.0,1,120,6.0,0.0
17715,57.0,27,30,11.0,0.0
17716,69.0,0,120,4.0,0.0
17717,69.0,0,120,1.0,0.0
17718,81.0,1,120,1.0,0.0
17719,69.0,2,120,2.0,0.0
17720,81.0,0,120,2.0,0.0
17721,53.0,2,23,12.0,0.0
17722,53.0,3,60,3.0,0.0
17723,53.0,2,60,13.0,0.0
17724,41.0,16,60,14.0,0.0
17725,41.0,8,120,15.0,0.0
17726,69.0,1,0,10.0,0.0
17727,57.0,6,30,11.0,0.0
17728,53.0,2,23,12.0,0.0
17729,57.0,1,30,10.0,0.0
17730,65.0,27,30,11.0,0.0
17731,48.0,2,23,12.0,0.0
17732,48.0,3,60,3.0,0.0
17733,48.0,2,60,13.0,0.0
17734,36.0,1,60,14.0,0.0
17735,57.0,1,30,10.0,0.0
17736,65.0,1,30,11.0,0.0
17737,48.0,1,23,12.0,0.0
17738,58.0,3,23,10.0,0.0
17739,82.0,1,240,0.0,0.0
17740,77.0,0,0,6.0,0.0
17741,70.0,1,240,4.0,0.0
17742,65.0,27,23,11.0,0.0
17743,74.0,0,240,1.0,0.0
17744,82.0,1,240,1.0,0.0
17745,82.0,4,120,2.0,0.0
17746,74.0,0,120,2.0,0.0
17747,65.0,2,0,5.0,0.0
17748,41.0,8,120,15.0,0.0
17749,70.0,3,23,10.0,0.0
17750,65.0,27,23,11.0,0.0
17751,70.0,3,23,10.0,0.0
17752,65.0,5,23,11.0,0.0
17753,50.0,22,23,12.0,0.0
17754,50.0,3,60,3.0,0.0
17755,50.0,2,60,13.0,0.0
17756,38.0,1,60,14.0,0.0
17757,70.0,3,23,10.0,0.0
17758,65.0,5,23,11.0,0.0
17759,50.0,4,23,12.0,0.0
17760,70.0,3,23,10.0,0.0
17761,65.0,5,23,11.0,0.0
17762,70.0,0,120,2.0,0.0
17763,65.0,2,120,2.0,0.0
17764,48.0,22,23,12.0,0.0
17765,48.0,3,60,3.0,0.0
17766,48.0,2,60,13.0,0.0
17767,36.0,9,60,14.0,0.0
17768,70.0,3,23,10.0,0.0
17769,65.0,5,23,11.0,0.0
17770,48.0,8,23,12.0,0.0
17771,70.0,3,23,10.0,0.0
17772,65.0,5,23,11.0,0.0
17773,50.0,22,23,12.0,0.0
17774,50.0,3,60,3.0,0.0
17775,50.0,2,60,13.0,0.0
17776,38.0,9,60,14.0,0.0
17777,70.0,3,23,10.0,0.0
17778,65.0,5,23,11.0,0.0
17779,50.0,0,23,12.0,0.0
17780,72.0,3,23,10.0,0.0
17781,84.0,1,120,0.0,0.0
17782,77.0,1,0,6.0,0.0
17783,65.0,0,0,6.0,0.0
17784,65.0,5,23,11.0,0.0
17785,65.0,1,120,4.0,0.0
17786,84.0,1,120,1.0,0.0
17787,72.0,0,120,1.0,0.0
17788,72.0,2,120,2.0,0.0
17789,63.0,0,120,2.0,0.0
17790,51.0,22,23,12.0,0.0
17791,51.0,3,60,3.0,0.0
17792,51.0,2,60,13.0,0.0
17793,39.0,9,60,14.0,0.0
17794,41.0,8,120,15.0,0.0
17795,72.0,3,23,10.0,0.0
17796,65.0,5,23,11.0,0.0
17797,51.0,8,23,12.0,0.0
17798,60.0,3,23,10.0,0.0
17799,65.0,5,23,11.0,0.0
17800,57.0,22,23,12.0,0.0
17801,45.0,3,60,3.0,0.0
17802,45.0,2,60,13.0,0.0
17803,33.0,1,60,14.0,0.0
17804,60.0,3,23,10.0,0.0
17805,65.0,5,23,11.0,0.0
17806,57.0,0,23,12.0,0.0
17807,62.0,3,23,10.0,0.0
17808,86.0,0,240,0.0,0.0
17809,65.0,1,240,6.0,0.0
17810,77.0,0,240,6.0,0.0
17811,58.0,27,23,11.0,0.0
17812,65.0,1,240,4.0,0.0
17813,86.0,1,240,1.0,0.0
17814,74.0,0,240,1.0,0.0
17815,62.0,4,120,2.0,0.0
17816,74.0,2,240,2.0,0.0
17817,53.0,2,0,5.0,0.0
17818,62.0,0,240,3.0,0.0
17819,41.0,8,120,15.0,0.0
17820,74.0,3,23,10.0,0.0
17821,70.0,27,23,11.0,0.0
17822,74.0,3,23,10.0,0.0
17823,70.0,5,23,11.0,0.0
17824,58.0,22,23,12.0,0.0
17825,58.0,3,60,3.0,0.0
17826,58.0,2,60,13.0,0.0
17827,46.0,1,60,14.0,0.0
17828,74.0,3,23,10.0,0.0
17829,70.0,5,23,11.0,0.0
17830,58.0,4,23,12.0,0.0
17831,74.0,3,23,10.0,0.0
17832,70.0,5,23,11.0,0.0
17833,70.0,0,120,2.0,0.0
17834,57.0,22,23,12.0,0.0
17835,57.0,3,60,3.0,0.0
17836,57.0,2,60,13.0,0.0
17837,45.0,9,60,14.0,0.0
17838,74.0,3,23,10.0,0.0
17839,70.0,5,23,11.0,0.0
17840,57.0,8,23,12.0,0.0
17841,74.0,3,23,10.0,0.0
17842,70.0,5,23,11.0,0.0
17843,58.0,22,23,12.0,0.0
17844,58.0,3,60,3.0,0.0
17845,58.0,2,60,13.0,0.0
17846,46.0,9,60,14.0,0.0
17847,74.0,3,23,10.0,0.0
17848,70.0,5,23,11.0,0.0
17849,58.0,1,23,12.0,0.0
17850,76.0,3,23,10.0,0.0
17851,76.0,0,120,0.0,0.0
17852,88.0,1,120,0.0,0.0
17853,72.0,1,120,6.0,0.0
17854,60.0,0,120,6.0,0.0
17855,60.0,1,120,4.0,0.0
17856,67.0,5,23,11.0,0.0
17857,76.0,1,120,1.0,0.0
17858,67.0,0,120,2.0,0.0
17859,76.0,2,120,2.0,0.0
17860,48.0,2,120,5.0,0.0
17861,60.0,22,23,12.0,0.0
17862,64.0,0,120,3.0,0.0
17863,60.0,3,60,3.0,0.0
17864,60.0,2,60,13.0,0.0
17865,48.0,9,60,14.0,0.0
17866,48.0,8,120,15.0,0.0
17867,76.0,3,23,10.0,0.0
17868,67.0,5,23,11.0,0.0
17869,60.0,8,23,12.0,0.0
17870,64.0,3,23,10.0,0.0
17871,60.0,5,23,11.0,0.0
17872,55.0,22,23,12.0,0.0
17873,55.0,3,60,3.0,0.0
17874,55.0,2,60,13.0,0.0
17875,43.0,1,60,14.0,0.0
17876,64.0,3,23,10.0,0.0
17877,60.0,5,23,11.0,0.0
17878,55.0,0,23,12.0,0.0
17879,65.0,3,23,10.0,0.0
17880,89.0,0,240,0.0,0.0
17881,77.0,0,120,0.0,0.0
17882,72.0,1,360,6.0,0.0
17883,60.0,0,360,6.0,0.0
17884,60.0,4,120,4.0,0.0
17885,60.0,27,23,11.0,0.0
17886,77.0,0,240,1.0,0.0
17887,77.0,2,240,2.0,0.0
17888,65.0,0,240,2.0,0.0
17889,48.0,2,120,5.0,0.0
17890,65.0,14,60,3.0,0.0
17891,48.0,8,120,15.0,0.0
17892,77.0,3,23,10.0,0.0
17893,69.0,13,23,11.0,0.0
17894,77.0,3,23,10.0,0.0
17895,60.0,5,23,11.0,0.0
17896,57.0,22,23,12.0,0.0
17897,57.0,3,60,3.0,0.0
17898,57.0,2,60,13.0,0.0
17899,45.0,1,60,14.0,0.0
17900,77.0,3,23,10.0,0.0
17901,60.0,5,23,11.0,0.0
17902,57.0,2,23,12.0,0.0
17903,77.0,3,23,10.0,0.0
17904,60.0,5,23,11.0,0.0
17905,65.0,1,120,4.0,0.0
17906,57.0,2,120,5.0,0.0
17907,55.0,22,23,12.0,0.0
17908,55.0,3,60,3.0,0.0
17909,55.0,2,60,13.0,0.0
17910,43.0,9,60,14.0,0.0
17911,77.0,3,23,10.0,0.0
17912,72.0,5,23,11.0,0.0
17913,55.0,8,23,12.0,0.0
17914,77.0,3,23,10.0,0.0
17915,72.0,5,23,11.0,0.0
17916,57.0,22,23,12.0,0.0
17917,57.0,3,60,3.0,0.0
17918,57.0,2,60,13.0,0.0
17919,45.0,9,60,14.0,0.0
17920,77.0,3,23,10.0,0.0
17921,72.0,5,23,11.0,0.0
17922,57.0,0,23,12.0,0.0
17923,79.0,3,23,10.0,0.0
17924,84.0,2,0,0.0,0.0
17925,91.0,0,120,0.0,0.0
17926,72.0,5,23,11.0,0.0
17927,67.0,1,120,4.0,0.0
17928,79.0,1,120,1.0,0.0
17929,72.0,1,0,1.0,0.0
17930,67.0,0,120,2.0,0.0
17931,79.0,2,120,2.0,0.0
17932,60.0,2,120,5.0,0.0
17933,58.0,22,23,12.0,0.0
17934,58.0,3,60,3.0,0.0
17935,58.0,2,60,13.0,0.0
17936,46.0,9,60,14.0,0.0
17937,79.0,3,23,10.0,0.0
17938,72.0,5,23,11.0,0.0
17939,58.0,8,23,12.0,0.0
17940,67.0,3,23,10.0,0.0
17941,72.0,5,23,11.0,0.0
17942,52.0,22,23,12.0,0.0
17943,52.0,3,60,3.0,0.0
17944,52.0,2,60,13.0,0.0
17945,40.0,9,60,14.0,0.0
17946,67.0,3,23,10.0,0.0
17947,72.0,5,23,11.0,0.0
17948,52.0,0,23,12.0,0.0
17949,69.0,3,23,10.0,0.0
17950,84.0,1,0,0.0,0.0
17951,77.0,0,240,6.0,0.0
17952,69.0,4,120,4.0,0.0
17953,72.0,27,23,11.0,0.0
17954,81.0,1,240,1.0,0.0
17955,72.0,0,240,1.0,0.0
17956,81.0,2,240,2.0,0.0
17957,69.0,0,240,2.0,0.0
17958,65.0,2,120,5.0,0.0
17959,41.0,8,120,15.0,0.0
17960,81.0,3,23,10.0,0.0
17961,77.0,13,23,11.0,0.0
17962,69.0,0,23,11.0,0.0
17963,81.0,3,23,10.0,0.0
17964,69.0,0,23,11.0,0.0
17965,77.0,5,23,11.0,0.0
17966,53.0,22,23,12.0,0.0
17967,53.0,14,0,3.0,0.0
17968,65.0,0,60,3.0,0.0
17969,53.0,2,60,13.0,0.0
17970,41.0,1,60,14.0,0.0
17971,81.0,3,23,10.0,0.0
17972,77.0,0,23,11.0,0.0
17973,69.0,5,23,11.0,0.0
17974,53.0,0,23,12.0,0.0
17975,81.0,3,23,10.0,0.0
17976,65.0,1,120,4.0,0.0
17977,77.0,0,23,11.0,0.0
17978,69.0,5,23,11.0,0.0
17979,53.0,2,120,5.0,0.0
17980,52.0,22,23,12.0,0.0
17981,52.0,3,60,3.0,0.0
17982,64.0,0,60,3.0,0.0
17983,52.0,2,60,13.0,0.0
17984,40.0,9,60,14.0,0.0
17985,81.0,3,23,10.0,0.0
17986,69.0,0,23,11.0,0.0
17987,77.0,5,23,11.0,0.0
17988,52.0,8,23,12.0,0.0
17989,81.0,3,23,10.0,0.0
17990,69.0,0,23,11.0,0.0
17991,77.0,5,23,11.0,0.0
17992,53.0,22,23,12.0,0.0
17993,65.0,3,60,3.0,0.0
17994,53.0,0,60,3.0,0.0
17995,53.0,2,60,13.0,0.0
17996,41.0,9,60,14.0,0.0
17997,81.0,3,23,10.0,0.0
17998,77.0,5,23,11.0,0.0
17999,69.0,0,23,11.0,0.0
18000,53.0,0,23,12.0,0.0
18001,82.0,3,23,10.0,0.0
18002,89.0,0,0,0.0,0.0
18003,65.0,1,0,6.0,0.0
18004,77.0,0,120,6.0,0.0
18005,77.0,5,23,11.0,0.0
18006,70.0,0,23,11.0,0.0
18007,82.0,1,120,1.0,0.0
18008,70.0,0,120,1.0,0.0
18009,70.0,18,60,2.0,0.0
18010,82.0,0,60,2.0,0.0
18011,53.0,8,120,5.0,0.0
18012,50.0,8,23,12.0,0.0
18013,50.0,0,30,3.0,0.0
18014,62.0,3,30,3.0,0.0
18015,50.0,2,30,13.0,0.0
18016,38.0,9,30,14.0,0.0
18017,82.0,3,23,10.0,0.0
18018,70.0,0,23,11.0,0.0
18019,77.0,5,23,11.0,0.0
18020,50.0,4,23,12.0,0.0
18021,70.0,3,23,10.0,0.0
18022,91.0,0,60,0.0,0.0
18023,77.0,0,23,11.0,0.0
18024,70.0,5,23,11.0,0.0
18025,77.0,2,60,2.0,0.0
18026,62.0,8,23,12.0,0.0
18027,50.0,0,30,3.0,0.0
18028,62.0,3,30,3.0,0.0
18029,50.0,2,30,13.0,0.0
18030,38.0,9,30,14.0,0.0
18031,70.0,3,23,10.0,0.0
18032,70.0,0,23,11.0,0.0
18033,77.0,5,23,11.0,0.0
18034,62.0,1,23,12.0,0.0
18035,71.0,3,23,10.0,0.0
18036,89.0,0,0,0.0,0.0
18037,92.0,0,600,0.0,0.0
18038,65.0,0,600,6.0,0.0
18039,77.0,1,600,6.0,0.0
18040,71.0,5,23,11.0,0.0
18041,65.0,1,0,4.0,0.0
18042,80.0,0,23,11.0,0.0
18043,80.0,1,600,1.0,0.0
18044,83.0,0,600,1.0,0.0
18045,80.0,2,600,2.0,0.0
18046,77.0,0,600,2.0,0.0
18047,53.0,2,600,5.0,0.0
18048,61.0,11,23,12.0,0.0
18049,49.0,0,600,3.0,0.0
18050,61.0,6,600,3.0,0.0
18051,49.0,2,30,13.0,0.0
18052,37.0,1,30,14.0,0.0
18053,41.0,8,0,15.0,0.0
18054,83.0,3,23,10.0,0.0
18055,80.0,5,23,11.0,0.0
18056,71.0,0,23,11.0,0.0
18057,61.0,14,23,12.0,0.0
18058,83.0,3,23,10.0,0.0
18059,71.0,0,23,11.0,0.0
18060,80.0,5,23,11.0,0.0
18061,61.0,11,23,12.0,0.0
18062,49.0,2,30,13.0,0.0
18063,37.0,1,30,14.0,0.0
18064,41.0,8,0,15.0,0.0
18065,83.0,3,23,10.0,0.0
18066,80.0,5,23,11.0,0.0
18067,71.0,0,23,11.0,0.0
18068,61.0,14,23,12.0,0.0
18069,41.0,8,0,15.0,0.0
18070,83.0,3,23,10.0,0.0
18071,80.0,0,23,11.0,0.0
18072,71.0,5,23,11.0,0.0
18073,61.0,11,23,12.0,0.0
18074,49.0,2,30,13.0,0.0
18075,37.0,1,30,14.0,0.0
18076,41.0,8,0,15.0,0.0
18077,83.0,3,23,10.0,0.0
18078,80.0,5,23,11.0,0.0
18079,71.0,0,23,11.0,0.0
18080,61.0,14,23,12.0,0.0
18081,41.0,8,30,15.0,0.0
18082,83.0,3,23,10.0,0.0
18083,80.0,0,23,11.0,0.0
18084,71.0,5,23,11.0,0.0
18085,61.0,11,23,12.0,0.0
18086,49.0,2,30,13.0,0.0
18087,37.0,1,30,14.0,0.0
18088,41.0,8,30,15.0,0.0
18089,83.0,3,23,10.0,0.0
18090,80.0,0,23,11.0,0.0
18091,71.0,5,23,11.0,0.0
18092,61.0,14,23,12.0,0.0
18093,83.0,3,23,10.0,0.0
18094,71.0,0,23,11.0,0.0
18095,80.0,5,23,11.0,0.0
18096,61.0,11,23,12.0,0.0
18097,49.0,2,30,13.0,0.0
18098,37.0,1,30,14.0,0.0
18099,41.0,8,0,15.0,0.0
18100,83.0,3,23,10.0,0.0
18101,80.0,0,23,11.0,0.0
18102,71.0,5,23,11.0,0.0
18103,61.0,14,23,12.0,0.0
18104,41.0,8,0,15.0,0.0
18105,83.0,3,23,10.0,0.0
18106,80.0,0,23,11.0,0.0
18107,71.0,5,23,11.0,0.0
18108,61.0,11,23,12.0,0.0
18109,49.0,2,30,13.0,0.0
18110,37.0,1,30,14.0,0.0
18111,83.0,3,23,10.0,0.0
18112,71.0,0,23,11.0,0.0
18113,80.0,5,23,11.0,0.0
18114,61.0,14,23,12.0,0.0
18115,41.0,8,0,15.0,0.0
18116,83.0,3,23,10.0,0.0
18117,71.0,5,23,11.0,0.0
18118,80.0,0,23,11.0,0.0
18119,61.0,11,23,12.0,0.0
18120,49.0,2,30,13.0,0.0
18121,37.0,1,30,14.0,0.0
18122,41.0,8,0,15.0,0.0
18123,83.0,3,23,10.0,0.0
18124,80.0,0,23,11.0,0.0
18125,71.0,5,23,11.0,0.0
18126,61.0,14,23,12.0,0.0
18127,41.0,8,0,15.0,0.0
18128,83.0,3,23,10.0,0.0
18129,80.0,0,23,11.0,0.0
18130,71.0,5,23,11.0,0.0
18131,61.0,11,23,12.0,0.0
18132,49.0,2,30,13.0,0.0
18133,37.0,1,30,14.0,0.0
18134,41.0,8,0,15.0,0.0
18135,83.0,3,23,10.0,0.0
18136,80.0,0,23,11.0,0.0
18137,71.0,5,23,11.0,0.0
18138,61.0,14,23,12.0,0.0
18139,41.0,8,0,15.0,0.0
18140,83.0,3,23,10.0,0.0
18141,71.0,5,23,11.0,0.0
18142,80.0,0,23,11.0,0.0
18143,61.0,11,23,12.0,0.0
18144,49.0,2,30,13.0,0.0
18145,37.0,1,30,14.0,0.0
18146,83.0,3,23,10.0,0.0
18147,71.0,5,23,11.0,0.0
18148,80.0,0,23,11.0,0.0
18149,61.0,14,23,12.0,0.0
18150,41.0,8,0,15.0,0.0
18151,83.0,3,23,10.0,0.0
18152,80.0,0,23,11.0,0.0
18153,71.0,5,23,11.0,0.0
18154,61.0,11,23,12.0,0.0
18155,49.0,2,30,13.0,0.0
18156,37.0,1,30,14.0,0.0
18157,41.0,8,0,15.0,0.0
18158,83.0,3,23,10.0,0.0
18159,80.0,5,23,11.0,0.0
18160,71.0,0,23,11.0,0.0
18161,61.0,1,23,12.0,0.0
18162,41.0,8,30,15.0,0.0
18163,84.0,3,23,10.0,0.0
18164,89.0,0,0,0.0,0.0
18165,72.0,5,23,11.0,0.0
18166,81.0,0,23,11.0,0.0
18167,81.0,0,120,1.0,0.0
18168,84.0,1,120,1.0,0.0
18169,65.0,2,120,5.0,0.0
18170,60.0,11,23,12.0,0.0
18171,48.0,6,120,3.0,0.0
18172,60.0,0,120,3.0,0.0
18173,48.0,2,30,13.0,0.0
18174,36.0,9,30,14.0,0.0
18175,48.0,8,120,15.0,0.0
18176,84.0,3,23,10.0,0.0
18177,72.0,5,23,11.0,0.0
18178,81.0,0,23,11.0,0.0
18179,60.0,22,23,12.0,0.0
18180,84.0,3,23,10.0,0.0
18181,72.0,0,23,11.0,0.0
18182,81.0,5,23,11.0,0.0
18183,60.0,11,23,12.0,0.0
18184,48.0,2,30,13.0,0.0
18185,36.0,9,30,14.0,0.0
18186,84.0,3,23,10.0,0.0
18187,72.0,0,23,11.0,0.0
18188,81.0,5,23,11.0,0.0
18189,60.0,1,23,12.0,0.0
18190,69.0,0,23,10.0,0.0
18191,81.0,3,23,10.0,0.0
18192,93.0,0,0,0.0,0.0
18193,89.0,1,60,0.0,0.0
18194,81.0,0,0,6.0,0.0
18195,69.0,1,0,6.0,0.0
18196,81.0,27,23,11.0,0.0
18197,69.0,0,23,11.0,0.0
18198,69.0,1,0,4.0,0.0
18199,77.0,0,60,1.0,0.0
18200,81.0,1,60,1.0,0.0
18201,77.0,0,0,2.0,0.0
18202,81.0,2,0,2.0,0.0
18203,65.0,1,60,5.0,0.0
18204,53.0,0,60,12.0,0.0
18205,60.0,1,60,12.0,0.0
18206,53.0,0,60,3.0,0.0
18207,57.0,3,60,3.0,0.0
18208,41.0,0,60,13.0,0.0
18209,48.0,2,60,13.0,0.0
18210,29.0,1,60,14.0,0.0
18211,41.0,8,60,15.0,0.0
18212,81.0,0,23,10.0,0.0
18213,69.0,3,23,10.0,0.0
18214,69.0,0,23,11.0,0.0
18215,81.0,5,23,11.0,0.0
18216,84.0,3,23,10.0,0.0
18217,69.0,27,23,11.0,0.0
18218,81.0,0,23,11.0,0.0
18219,84.0,3,23,10.0,0.0
18220,69.0,27,23,11.0,0.0
18221,81.0,0,23,11.0,0.0
18222,77.0,3,23,10.0,0.0
18223,89.0,2,60,0.0,0.0
18224,69.0,27,23,11.0,0.0
18225,65.0,1,60,4.0,0.0
18226,69.0,0,60,1.0,0.0
18227,77.0,1,60,1.0,0.0
18228,77.0,2,60,2.0,0.0
18229,69.0,0,60,2.0,0.0
18230,57.0,16,60,5.0,0.0
18231,77.0,3,23,10.0,0.0
18232,69.0,5,23,11.0,0.0
18233,79.0,3,23,10.0,0.0
18234,88.0,0,60,0.0,0.0
18235,91.0,2,60,0.0,0.0
18236,70.0,27,23,11.0,0.0
18237,67.0,1,60,4.0,0.0
18238,72.0,1,60,1.0,0.0
18239,79.0,0,60,1.0,0.0
18240,79.0,2,60,2.0,0.0
18241,72.0,0,60,2.0,0.0
18242,60.0,16,60,5.0,0.0
18243,79.0,3,23,10.0,0.0
18244,70.0,5,23,11.0,0.0
18245,81.0,3,23,10.0,0.0
18246,89.0,3,60,0.0,0.0
18247,93.0,0,60,0.0,0.0
18248,72.0,22,23,11.0,0.0
18249,69.0,4,45,4.0,0.0
18250,81.0,1,60,1.0,0.0
18251,77.0,0,60,1.0,0.0
18252,81.0,0,60,2.0,0.0
18253,77.0,18,60,2.0,0.0
18254,65.0,1,45,5.0,0.0
18255,81.0,3,23,10.0,0.0
18256,72.0,5,23,11.0,0.0
18257,77.0,3,23,10.0,0.0
18258,69.0,22,23,11.0,0.0
18259,65.0,4,45,4.0,0.0
18260,69.0,0,60,1.0,0.0
18261,69.0,18,60,2.0,0.0
18262,77.0,0,60,2.0,0.0
18263,57.0,1,45,5.0,0.0
18264,77.0,3,23,10.0,0.0
18265,69.0,5,23,11.0,0.0
18266,69.0,3,23,10.0,0.0
18267,81.0,0,23,10.0,0.0
18268,93.0,0,60,0.0,0.0
18269,89.0,3,0,0.0,0.0
18270,81.0,0,60,6.0,0.0
18271,69.0,1,60,6.0,0.0
18272,69.0,1,60,4.0,0.0
18273,69.0,27,23,11.0,0.0
18274,77.0,0,23,11.0,0.0
18275,77.0,1,0,1.0,0.0
18276,81.0,1,60,1.0,0.0
18277,77.0,0,60,2.0,0.0
18278,81.0,2,60,2.0,0.0
18279,65.0,1,60,5.0,0.0
18280,53.0,0,60,12.0,0.0
18281,60.0,1,60,12.0,0.0
18282,53.0,0,60,3.0,0.0
18283,57.0,3,60,3.0,0.0
18284,41.0,2,60,13.0,0.0
18285,48.0,0,60,13.0,0.0
18286,29.0,1,60,14.0,0.0
18287,41.0,8,60,15.0,0.0
18288,81.0,0,23,10.0,0.0
18289,69.0,3,23,10.0,0.0
18290,69.0,0,23,11.0,0.0
18291,77.0,5,23,11.0,0.0
18292,84.0,3,23,10.0,0.0
18293,81.0,27,23,11.0,0.0
18294,84.0,3,23,10.0,0.0
18295,81.0,27,23,11.0,0.0
18296,77.0,3,23,10.0,0.0
18297,89.0,2,60,0.0,0.0
18298,65.0,1,60,4.0,0.0
18299,69.0,27,23,11.0,0.0
18300,69.0,0,60,1.0,0.0
18301,77.0,1,60,1.0,0.0
18302,77.0,2,60,2.0,0.0
18303,69.0,0,60,2.0,0.0
18304,57.0,16,60,5.0,0.0
18305,77.0,3,23,10.0,0.0
18306,69.0,5,23,11.0,0.0
18307,79.0,3,23,10.0,0.0
18308,91.0,2,60,0.0,0.0
18309,88.0,0,60,0.0,0.0
18310,70.0,27,23,11.0,0.0
18311,67.0,1,60,4.0,0.0
18312,72.0,0,60,1.0,0.0
18313,79.0,1,60,1.0,0.0
18314,72.0,2,60,2.0,0.0
18315,79.0,0,60,2.0,0.0
18316,60.0,16,60,5.0,0.0
18317,79.0,3,23,10.0,0.0
18318,70.0,5,23,11.0,0.0
18319,81.0,3,23,10.0,0.0
18320,93.0,0,60,0.0,0.0
18321,69.0,4,45,4.0,0.0
18322,72.0,22,23,11.0,0.0
18323,81.0,0,60,1.0,0.0
18324,77.0,18,60,2.0,0.0
18325,81.0,0,60,2.0,0.0
18326,65.0,1,45,5.0,0.0
18327,81.0,3,23,10.0,0.0
18328,72.0,5,23,11.0,0.0
18329,77.0,3,23,10.0,0.0
18330,89.0,3,0,0.0,0.0
18331,69.0,22,23,11.0,0.0
18332,65.0,4,45,4.0,0.0
18333,77.0,1,0,1.0,0.0
18334,69.0,0,60,1.0,0.0
18335,69.0,0,60,2.0,0.0
18336,57.0,1,45,5.0,0.0
18337,77.0,3,23,10.0,0.0
18338,69.0,5,23,11.0,0.0
18339,69.0,3,23,10.0,0.0
18340,81.0,0,23,10.0,0.0
18341,93.0,0,60,0.0,0.0
18342,89.0,3,0,0.0,0.0
18343,69.0,1,60,6.0,0.0
18344,81.0,0,60,6.0,0.0
18345,69.0,27,23,11.0,0.0
18346,77.0,0,23,11.0,0.0
18347,69.0,1,60,4.0,0.0
18348,81.0,1,60,1.0,0.0
18349,77.0,1,0,1.0,0.0
18350,77.0,18,0,2.0,0.0
18351,81.0,2,60,2.0,0.0
18352,65.0,1,60,5.0,0.0
18353,53.0,0,60,12.0,0.0
18354,60.0,1,60,12.0,0.0
18355,53.0,3,60,3.0,0.0
18356,57.0,0,60,3.0,0.0
18357,48.0,2,60,13.0,0.0
18358,41.0,0,60,13.0,0.0
18359,29.0,1,60,14.0,0.0
18360,41.0,8,60,15.0,0.0
18361,81.0,0,23,10.0,0.0
18362,69.0,3,23,10.0,0.0
18363,77.0,0,23,11.0,0.0
18364,69.0,5,23,11.0,0.0
18365,84.0,3,23,10.0,0.0
18366,81.0,27,23,11.0,0.0
18367,84.0,3,23,10.0,0.0
18368,81.0,27,23,11.0,0.0
18369,77.0,3,23,10.0,0.0
18370,89.0,0,60,0.0,0.0
18371,69.0,5,23,11.0,0.0
18372,65.0,1,60,4.0,0.0
18373,77.0,0,60,1.0,0.0
18374,69.0,1,60,1.0,0.0
18375,69.0,0,60,2.0,0.0
18376,77.0,2,60,2.0,0.0
18377,57.0,5,60,5.0,0.0
18378,60.0,22,23,12.0,0.0
18379,57.0,2,60,13.0,0.0
18380,45.0,9,60,14.0,0.0
18381,77.0,3,23,10.0,0.0
18382,69.0,5,23,11.0,0.0
18383,60.0,2,23,12.0,0.0
18384,79.0,3,23,10.0,0.0
18385,91.0,2,60,0.0,0.0
18386,88.0,0,60,0.0,0.0
18387,70.0,5,23,11.0,0.0
18388,67.0,1,60,4.0,0.0
18389,72.0,1,60,1.0,0.0
18390,79.0,0,60,1.0,0.0
18391,79.0,0,60,2.0,0.0
18392,72.0,2,60,2.0,0.0
18393,60.0,5,60,5.0,0.0
18394,58.0,22,23,12.0,0.0
18395,55.0,2,60,13.0,0.0
18396,43.0,9,60,14.0,0.0
18397,79.0,3,23,10.0,0.0
18398,70.0,5,23,11.0,0.0
18399,58.0,0,23,12.0,0.0
18400,81.0,3,23,10.0,0.0
18401,93.0,0,60,0.0,0.0
18402,89.0,0,60,0.0,0.0
18403,72.0,5,23,11.0,0.0
18404,69.0,4,45,4.0,0.0
18405,77.0,1,60,1.0,0.0
18406,81.0,0,60,1.0,0.0
18407,77.0,18,60,2.0,0.0
18408,81.0,0,60,2.0,0.0
18409,65.0,1,45,5.0,0.0
18410,57.0,17,23,12.0,0.0
18411,53.0,2,45,13.0,0.0
18412,41.0,2,45,14.0,0.0
18413,81.0,3,23,10.0,0.0
18414,72.0,1,23,11.0,0.0
18415,57.0,3,23,12.0,0.0
18416,77.0,3,23,10.0,0.0
18417,89.0,0,60,0.0,0.0
18418,65.0,4,45,4.0,0.0
18419,69.0,5,23,11.0,0.0
18420,69.0,0,60,1.0,0.0
18421,77.0,1,60,1.0,0.0
18422,69.0,55,60,2.0,0.0
18423,77.0,0,60,2.0,0.0
18424,57.0,1,45,5.0,0.0
18425,60.0,17,23,12.0,0.0
18426,57.0,2,45,13.0,0.0
18427,45.0,2,45,14.0,0.0
18428,77.0,3,23,10.0,0.0
18429,69.0,1,23,11.0,0.0
18430,60.0,3,23,12.0,0.0
18431,72.0,0,60,10.0,0.0
18432,64.0,1,60,10.0,0.0
18433,79.0,0,60,10.0,0.0
18434,91.0,0,60,0.0,0.0
18435,88.0,1,60,0.0,0.0
18436,60.0,0,60,6.0,0.0
18437,72.0,1,60,6.0,0.0
18438,79.0,0,60,11.0,0.0
18439,72.0,0,60,11.0,0.0
18440,67.0,1,60,4.0,0.0
18441,64.0,0,60,11.0,0.0
18442,79.0,0,60,1.0,0.0
18443,72.0,1,60,1.0,0.0
18444,79.0,2,60,2.0,0.0
18445,76.0,0,60,2.0,0.0
18446,60.0,1,60,5.0,0.0
18447,48.0,0,60,12.0,0.0
18448,60.0,1,60,12.0,0.0
18449,48.0,3,60,3.0,0.0
18450,55.0,0,60,3.0,0.0
18451,48.0,2,60,13.0,0.0
18452,36.0,1,60,14.0,0.0
18453,48.0,105,60,15.0,0.0
18454,64.0,0,60,10.0,0.0
18455,72.0,1,60,10.0,0.0
18456,79.0,0,60,10.0,0.0
18457,91.0,0,60,0.0,0.0
18458,88.0,1,60,0.0,0.0
18459,60.0,1,60,6.0,0.0
18460,72.0,0,60,6.0,0.0
18461,64.0,1,60,11.0,0.0
18462,79.0,0,60,11.0,0.0
18463,72.0,0,60,11.0,0.0
18464,67.0,0,60,4.0,0.0
18465,72.0,0,60,1.0,0.0
18466,79.0,1,60,1.0,0.0
18467,79.0,2,60,2.0,0.0
18468,76.0,0,60,2.0,0.0
18469,60.0,1,60,5.0,0.0
18470,60.0,1,60,12.0,0.0
18471,48.0,0,60,12.0,0.0
18472,48.0,3,60,3.0,0.0
18473,55.0,0,60,3.0,0.0
18474,48.0,2,60,13.0,0.0
18475,36.0,1,60,14.0,0.0
18476,48.0,105,60,15.0,0.0
18477,72.0,0,60,10.0,0.0
18478,79.0,1,60,10.0,0.0
18479,64.0,0,60,10.0,0.0
18480,91.0,0,60,0.0,0.0
18481,88.0,1,60,0.0,0.0
18482,72.0,0,60,6.0,0.0
18483,60.0,1,60,6.0,0.0
18484,72.0,0,60,11.0,0.0
18485,67.0,1,60,4.0,0.0
18486,79.0,0,60,11.0,0.0
18487,64.0,0,60,11.0,0.0
18488,79.0,1,60,1.0,0.0
18489,72.0,0,60,1.0,0.0
18490,79.0,0,60,2.0,0.0
18491,76.0,2,60,2.0,0.0
18492,60.0,1,60,5.0,0.0
18493,48.0,0,60,12.0,0.0
18494,60.0,1,60,12.0,0.0
18495,55.0,0,60,3.0,0.0
18496,48.0,3,60,3.0,0.0
18497,48.0,2,60,13.0,0.0
18498,36.0,1,60,14.0,0.0
18499,48.0,68,60,15.0,0.0
18500,69.0,0,23,10.0,0.0
18501,81.0,3,23,10.0,0.0
18502,89.0,0,60,0.0,0.0
18503,93.0,1,60,0.0,0.0
18504,81.0,0,60,6.0,0.0
18505,69.0,1,60,6.0,0.0
18506,69.0,1,60,4.0,0.0
18507,69.0,0,23,11.0,0.0
18508,77.0,27,23,11.0,0.0
18509,77.0,0,60,1.0,0.0
18510,81.0,1,60,1.0,0.0
18511,77.0,2,60,2.0,0.0
18512,81.0,0,60,2.0,0.0
18513,65.0,1,60,5.0,0.0
18514,53.0,1,60,12.0,0.0
18515,60.0,0,60,12.0,0.0
18516,53.0,0,60,3.0,0.0
18517,57.0,3,60,3.0,0.0
18518,41.0,2,60,13.0,0.0
18519,48.0,0,60,13.0,0.0
18520,29.0,1,60,14.0,0.0
18521,41.0,8,60,15.0,0.0
18522,69.0,3,23,10.0,0.0
18523,81.0,0,23,10.0,0.0
18524,69.0,5,23,11.0,0.0
18525,77.0,0,23,11.0,0.0
18526,84.0,3,23,10.0,0.0
18527,81.0,27,23,11.0,0.0
18528,84.0,3,23,10.0,0.0
18529,81.0,27,23,11.0,0.0
18530,77.0,3,23,10.0,0.0
18531,89.0,2,60,0.0,0.0
18532,69.0,27,23,11.0,0.0
18533,65.0,1,60,4.0,0.0
18534,77.0,0,60,1.0,0.0
18535,69.0,1,60,1.0,0.0
18536,77.0,0,60,2.0,0.0
18537,69.0,2,60,2.0,0.0
18538,57.0,16,60,5.0,0.0
18539,77.0,3,23,10.0,0.0
18540,69.0,5,23,11.0,0.0
18541,79.0,3,23,10.0,0.0
18542,91.0,0,60,0.0,0.0
18543,88.0,2,60,0.0,0.0
18544,67.0,1,60,4.0,0.0
18545,70.0,27,23,11.0,0.0
18546,72.0,0,60,1.0,0.0
18547,79.0,1,60,1.0,0.0
18548,72.0,0,60,2.0,0.0
18549,79.0,2,60,2.0,0.0
18550,60.0,16,60,5.0,0.0
18551,79.0,3,23,10.0,0.0
18552,70.0,5,23,11.0,0.0
18553,81.0,3,23,10.0,0.0
18554,93.0,3,60,0.0,0.0
18555,69.0,4,45,4.0,0.0
18556,72.0,22,23,11.0,0.0
18557,81.0,1,60,1.0,0.0
18558,81.0,18,60,2.0,0.0
18559,77.0,0,60,2.0,0.0
18560,65.0,1,45,5.0,0.0
18561,81.0,3,23,10.0,0.0
18562,72.0,5,23,11.0,0.0
18563,77.0,3,23,10.0,0.0
18564,89.0,0,0,0.0,0.0
18565,65.0,4,45,4.0,0.0
18566,69.0,22,23,11.0,0.0
18567,69.0,0,60,1.0,0.0
18568,77.0,0,0,1.0,0.0
18569,69.0,18,60,2.0,0.0
18570,77.0,0,60,2.0,0.0
18571,57.0,1,45,5.0,0.0
18572,77.0,3,23,10.0,0.0
18573,69.0,5,23,11.0,0.0
18574,69.0,0,23,10.0,0.0
18575,81.0,3,23,10.0,0.0
18576,93.0,0,60,0.0,0.0
18577,89.0,1,60,0.0,0.0
18578,81.0,0,60,6.0,0.0
18579,69.0,1,60,6.0,0.0
18580,69.0,1,60,4.0,0.0
18581,69.0,27,23,11.0,0.0
18582,77.0,0,23,11.0,0.0
18583,81.0,1,60,1.0,0.0
18584,77.0,0,60,1.0,0.0
18585,81.0,0,60,2.0,0.0
18586,77.0,2,60,2.0,0.0
18587,65.0,1,60,5.0,0.0
18588,60.0,0,60,12.0,0.0
18589,53.0,1,60,12.0,0.0
18590,57.0,0,60,3.0,0.0
18591,53.0,3,60,3.0,0.0
18592,41.0,0,60,13.0,0.0
18593,48.0,2,60,13.0,0.0
18594,29.0,1,60,14.0,0.0
18595,41.0,8,60,15.0,0.0
18596,81.0,3,23,10.0,0.0
18597,69.0,0,23,10.0,0.0
18598,69.0,5,23,11.0,0.0
18599,77.0,0,23,11.0,0.0
18600,84.0,3,23,10.0,0.0
18601,81.0,27,23,11.0,0.0
18602,84.0,3,23,10.0,0.0
18603,81.0,27,23,11.0,0.0
18604,77.0,3,23,10.0,0.0
18605,89.0,2,60,0.0,0.0
18606,65.0,1,60,4.0,0.0
18607,69.0,27,23,11.0,0.0
18608,77.0,1,60,1.0,0.0
18609,69.0,0,60,1.0,0.0
18610,77.0,2,60,2.0,0.0
18611,69.0,0,60,2.0,0.0
18612,57.0,16,60,5.0,0.0
18613,77.0,3,23,10.0,0.0
18614,69.0,5,23,11.0,0.0
18615,79.0,3,23,10.0,0.0
18616,88.0,2,60,0.0,0.0
18617,91.0,0,60,0.0,0.0
18618,67.0,1,60,4.0,0.0
18619,70.0,27,23,11.0,0.0
18620,79.0,1,60,1.0,0.0
18621,72.0,0,60,1.0,0.0
18622,72.0,0,60,2.0,0.0
18623,79.0,2,60,2.0,0.0
18624,60.0,16,60,5.0,0.0
18625,79.0,3,23,10.0,0.0
18626,70.0,5,23,11.0,0.0
18627,81.0,3,23,10.0,0.0
18628,89.0,3,60,0.0,0.0
18629,93.0,0,60,0.0,0.0
18630,72.0,22,23,11.0,0.0
18631,69.0,4,45,4.0,0.0
18632,81.0,0,60,1.0,0.0
18633,77.0,1,60,1.0,0.0
18634,81.0,0,60,2.0,0.0
18635,77.0,18,60,2.0,0.0
18636,65.0,1,45,5.0,0.0
18637,81.0,3,23,10.0,0.0
18638,72.0,5,23,11.0,0.0
18639,77.0,3,23,10.0,0.0
18640,69.0,22,23,11.0,0.0
18641,65.0,4,45,4.0,0.0
18642,69.0,1,60,1.0,0.0
18643,77.0,0,60,1.0,0.0
18644,69.0,0,60,2.0,0.0
18645,57.0,1,45,5.0,0.0
18646,77.0,3,23,10.0,0.0
18647,69.0,5,23,11.0,0.0
18648,69.0,3,23,10.0,0.0
18649,81.0,0,23,10.0,0.0
18650,89.0,3,0,0.0,0.0
18651,93.0,1,60,0.0,0.0
18652,69.0,0,60,6.0,0.0
18653,81.0,1,60,6.0,0.0
18654,69.0,27,23,11.0,0.0
18655,69.0,1,60,4.0,0.0
18656,77.0,0,23,11.0,0.0
18657,77.0,0,60,1.0,0.0
18658,81.0,1,60,1.0,0.0
18659,77.0,18,0,2.0,0.0
18660,81.0,2,60,2.0,0.0
18661,65.0,1,60,5.0,0.0
18662,53.0,0,60,12.0,0.0
18663,60.0,1,60,12.0,0.0
18664,57.0,3,60,3.0,0.0
18665,53.0,0,60,3.0,0.0
18666,48.0,0,60,13.0,0.0
18667,41.0,2,60,13.0,0.0
18668,29.0,1,60,14.0,0.0
18669,41.0,8,60,15.0,0.0
18670,69.0,3,23,10.0,0.0
18671,81.0,0,23,10.0,0.0
18672,77.0,0,23,11.0,0.0
18673,69.0,5,23,11.0,0.0
18674,84.0,3,23,10.0,0.0
18675,81.0,27,23,11.0,0.0
18676,84.0,3,23,10.0,0.0
18677,81.0,27,23,11.0,0.0
18678,77.0,3,23,10.0,0.0
18679,89.0,2,60,0.0,0.0
18680,65.0,1,60,4.0,0.0
18681,69.0,5,23,11.0,0.0
18682,77.0,0,60,1.0,0.0
18683,69.0,1,60,1.0,0.0
18684,77.0,0,60,2.0,0.0
18685,69.0,2,60,2.0,0.0
18686,57.0,5,60,5.0,0.0
18687,60.0,22,23,12.0,0.0
18688,57.0,2,60,13.0,0.0
18689,45.0,9,60,14.0,0.0
18690,77.0,3,23,10.0,0.0
18691,69.0,5,23,11.0,0.0
18692,60.0,0,23,12.0,0.0
18693,79.0,3,23,10.0,0.0
18694,91.0,0,60,0.0,0.0
18695,88.0,0,60,0.0,0.0
18696,67.0,1,60,4.0,0.0
18697,70.0,5,23,11.0,0.0
18698,72.0,1,60,1.0,0.0
18699,79.0,0,60,1.0,0.0
18700,72.0,0,60,2.0,0.0
18701,79.0,2,60,2.0,0.0
18702,60.0,5,60,5.0,0.0
18703,58.0,22,23,12.0,0.0
18704,55.0,2,60,13.0,0.0
18705,43.0,9,60,14.0,0.0
18706,79.0,3,23,10.0,0.0
18707,70.0,5,23,11.0,0.0
18708,58.0,2,23,12.0,0.0
18709,81.0,3,23,10.0,0.0
18710,93.0,0,60,0.0,0.0
18711,89.0,0,60,0.0,0.0
18712,69.0,4,45,4.0,0.0
18713,72.0,5,23,11.0,0.0
18714,81.0,0,60,1.0,0.0
18715,77.0,18,60,2.0,0.0
18716,81.0,0,60,2.0,0.0
18717,65.0,1,45,5.0,0.0
18718,57.0,17,23,12.0,0.0
18719,53.0,2,45,13.0,0.0
18720,41.0,2,45,14.0,0.0
18721,81.0,3,23,10.0,0.0
18722,72.0,1,23,11.0,0.0
18723,57.0,3,23,12.0,0.0
18724,77.0,3,23,10.0,0.0
18725,89.0,0,60,0.0,0.0
18726,65.0,4,45,4.0,0.0
18727,69.0,5,23,11.0,0.0
18728,77.0,1,0,1.0,0.0
18729,69.0,1,60,1.0,0.0
18730,69.0,55,60,2.0,0.0
18731,77.0,0,60,2.0,0.0
18732,57.0,1,45,5.0,0.0
18733,60.0,17,23,12.0,0.0
18734,57.0,2,45,13.0,0.0
18735,45.0,2,45,14.0,0.0
18736,77.0,3,23,10.0,0.0
18737,69.0,1,23,11.0,0.0
18738,60.0,3,23,12.0,0.0
18739,72.0,1,60,10.0,0.0
18740,64.0,0,60,10.0,0.0
18741,79.0,0,60,10.0,0.0
18742,91.0,1,60,0.0,0.0
18743,88.0,0,60,0.0,0.0
18744,72.0,1,60,6.0,0.0
18745,60.0,0,60,6.0,0.0
18746,79.0,0,60,11.0,0.0
18747,64.0,0,60,11.0,0.0
18748,72.0,1,60,11.0,0.0
18749,67.0,0,60,4.0,0.0
18750,79.0,1,60,1.0,0.0
18751,72.0,0,60,1.0,0.0
18752,79.0,2,60,2.0,0.0
18753,76.0,0,60,2.0,0.0
18754,60.0,1,60,5.0,0.0
18755,48.0,1,60,12.0,0.0
18756,60.0,0,60,12.0,0.0
18757,55.0,3,60,3.0,0.0
18758,48.0,0,60,3.0,0.0
18759,48.0,2,60,13.0,0.0
18760,36.0,1,60,14.0,0.0
18761,48.0,105,60,15.0,0.0
18762,79.0,1,60,10.0,0.0
18763,64.0,0,60,10.0,0.0
18764,72.0,0,60,10.0,0.0
18765,91.0,1,60,0.0,0.0
18766,88.0,0,60,0.0,0.0
18767,72.0,0,60,6.0,0.0
18768,60.0,1,60,6.0,0.0
18769,64.0,0,60,11.0,0.0
18770,67.0,0,60,4.0,0.0
18771,79.0,1,60,11.0,0.0
18772,72.0,0,60,11.0,0.0
18773,72.0,0,60,1.0,0.0
18774,79.0,1,60,1.0,0.0
18775,76.0,0,60,2.0,0.0
18776,79.0,2,60,2.0,0.0
18777,60.0,1,60,5.0,0.0
18778,48.0,1,60,12.0,0.0
18779,60.0,0,60,12.0,0.0
18780,48.0,0,60,3.0,0.0
18781,55.0,3,60,3.0,0.0
18782,48.0,2,60,13.0,0.0
18783,36.0,1,60,14.0,0.0
18784,48.0,105,60,15.0,0.0
18785,72.0,0,60,10.0,0.0
18786,79.0,1,60,10.0,0.0
18787,64.0,0,60,10.0,0.0
18788,88.0,1,60,0.0,0.0
18789,91.0,0,60,0.0,0.0
18790,60.0,1,60,6.0,0.0
18791,72.0,0,60,6.0,0.0
18792,67.0,0,60,4.0,0.0
18793,64.0,0,60,11.0,0.0
18794,72.0,1,60,11.0,0.0
18795,79.0,0,60,11.0,0.0
18796,79.0,0,60,1.0,0.0
18797,72.0,1,60,1.0,0.0
18798,76.0,0,60,2.0,0.0
18799,79.0,2,60,2.0,0.0
18800,60.0,1,60,5.0,0.0
18801,60.0,0,60,12.0,0.0
18802,48.0,1,60,12.0,0.0
18803,55.0,3,60,3.0,0.0
18804,48.0,0,60,3.0,0.0
18805,48.0,2,60,13.0,0.0
18806,36.0,1,60,14.0,0.0
18807,48.0,465,60,15.0,0.0
18808,72.0,0,60,10.0,0.0
18809,65.0,0,60,10.0,0.0
18810,81.0,1,60,10.0,0.0
18811,93.0,0,60,0.0,0.0
18812,89.0,1,60,0.0,0.0
18813,60.0,0,60,6.0,0.0
18814,72.0,1,60,6.0,0.0
18815,69.0,0,60,4.0,0.0
18816,65.0,0,60,11.0,0.0
18817,81.0,1,60,11.0,0.0
18818,72.0,0,60,11.0,0.0
18819,81.0,0,60,1.0,0.0
18820,77.0,1,60,1.0,0.0
18821,81.0,2,60,2.0,0.0
18822,77.0,0,60,2.0,0.0
18823,65.0,1,60,5.0,0.0
18824,60.0,1,60,12.0,0.0
18825,53.0,0,60,12.0,0.0
18826,53.0,3,60,3.0,0.0
18827,57.0,0,60,3.0,0.0
18828,53.0,2,60,13.0,0.0
18829,41.0,1,60,14.0,0.0
18830,41.0,105,60,15.0,0.0
18831,81.0,0,60,10.0,0.0
18832,72.0,1,60,10.0,0.0
18833,65.0,0,60,10.0,0.0
18834,93.0,0,60,0.0,0.0
18835,89.0,1,60,0.0,0.0
18836,72.0,1,60,6.0,0.0
18837,60.0,0,60,6.0,0.0
18838,69.0,0,60,4.0,0.0
18839,72.0,1,60,11.0,0.0
18840,65.0,0,60,11.0,0.0
18841,81.0,0,60,11.0,0.0
18842,77.0,0,60,1.0,0.0
18843,81.0,1,60,1.0,0.0
18844,81.0,2,60,2.0,0.0
18845,77.0,0,60,2.0,0.0
18846,65.0,1,60,5.0,0.0
18847,60.0,0,60,12.0,0.0
18848,53.0,1,60,12.0,0.0
18849,53.0,0,60,3.0,0.0
18850,57.0,3,60,3.0,0.0
18851,53.0,2,60,13.0,0.0
18852,41.0,1,60,14.0,0.0
18853,41.0,105,60,15.0,0.0
18854,81.0,0,60,10.0,0.0
18855,65.0,1,60,10.0,0.0
18856,72.0,0,60,10.0,0.0
18857,93.0,0,60,0.0,0.0
18858,89.0,1,60,0.0,0.0
18859,72.0,1,60,6.0,0.0
18860,60.0,0,60,6.0,0.0
18861,72.0,0,60,11.0,0.0
18862,81.0,1,60,11.0,0.0
18863,69.0,0,60,4.0,0.0
18864,65.0,0,60,11.0,0.0
18865,77.0,0,60,1.0,0.0
18866,81.0,1,60,1.0,0.0
18867,81.0,2,60,2.0,0.0
18868,77.0,0,60,2.0,0.0
18869,65.0,1,60,5.0,0.0
18870,53.0,0,60,12.0,0.0
18871,60.0,1,60,12.0,0.0
18872,57.0,0,60,3.0,0.0
18873,53.0,3,60,3.0,0.0
18874,53.0,2,60,13.0,0.0
18875,41.0,1,60,14.0,0.0
18876,41.0,525,60,15.0,0.0
18877,64.0,0,120,10.0,0.0
18878,48.0,4,120,12.0,0.0
18879,48.0,2,120,13.0,0.0
18880,36.0,106,120,14.0,0.0
18881,55.0,3,0,10.0,0.0
18882,64.0,0,120,10.0,0.0
18883,58.0,5,0,11.0,0.0
18884,48.0,4,120,12.0,0.0
18885,48.0,2,120,13.0,0.0
18886,55.0,3,0,10.0,0.0
18887,64.0,3,120,10.0,0.0
18888,58.0,5,0,11.0,0.0
18889,48.0,4,120,12.0,0.0
18890,48.0,2,120,13.0,0.0
18891,36.0,106,0,14.0,0.0
18892,76.0,1,100,0.0,0.0
18893,60.0,0,100,6.0,0.0
18894,72.0,1,100,6.0,0.0
18895,60.0,1,100,4.0,0.0
18896,76.0,1,100,1.0,0.0
18897,70.0,2,100,2.0,0.0
18898,67.0,0,100,2.0,0.0
18899,48.0,2,100,5.0,0.0
18900,55.0,0,100,3.0,0.0
18901,58.0,26,100,3.0,0.0
18902,48.0,86,120,15.0,0.0
18903,76.0,1,100,0.0,0.0
18904,60.0,0,100,6.0,0.0
18905,72.0,1,100,6.0,0.0
18906,60.0,1,100,4.0,0.0
18907,76.0,1,100,1.0,0.0
18908,67.0,2,100,2.0,0.0
18909,70.0,0,100,2.0,0.0
18910,48.0,2,100,5.0,0.0
18911,58.0,0,100,3.0,0.0
18912,55.0,26,100,3.0,0.0
18913,48.0,86,120,15.0,0.0
18914,76.0,1,100,0.0,0.0
18915,60.0,1,100,6.0,0.0
18916,72.0,0,100,6.0,0.0
18917,60.0,1,100,4.0,0.0
18918,76.0,1,100,1.0,0.0
18919,67.0,0,100,2.0,0.0
18920,70.0,2,100,2.0,0.0
18921,48.0,2,100,5.0,0.0
18922,58.0,26,100,3.0,0.0
18923,55.0,0,100,3.0,0.0
18924,48.0,105,120,15.0,0.0
18925,65.0,0,120,10.0,0.0
18926,29.0,106,120,14.0,0.0
18927,57.0,3,0,10.0,0.0
18928,57.0,5,0,11.0,0.0
18929,48.0,4,0,12.0,0.0
18930,41.0,2,0,13.0,0.0
18931,57.0,3,0,10.0,0.0
18932,65.0,0,0,10.0,0.0
18933,57.0,5,120,11.0,0.0
18934,48.0,4,0,12.0,0.0
18935,41.0,2,120,13.0,0.0
18936,29.0,106,0,14.0,0.0
18937,77.0,1,100,0.0,0.0
18938,60.0,0,100,6.0,0.0
18939,72.0,1,100,6.0,0.0
18940,60.0,1,100,4.0,0.0
18941,77.0,1,100,1.0,0.0
18942,65.0,0,100,2.0,0.0
18943,69.0,2,100,2.0,0.0
18944,48.0,2,100,5.0,0.0
18945,57.0,26,100,3.0,0.0
18946,53.0,0,100,3.0,0.0
18947,41.0,86,120,15.0,0.0
18948,77.0,1,100,0.0,0.0
18949,60.0,0,100,6.0,0.0
18950,72.0,1,100,6.0,0.0
18951,60.0,1,100,4.0,0.0
18952,77.0,1,100,1.0,0.0
18953,65.0,2,100,2.0,0.0
18954,69.0,0,100,2.0,0.0
18955,48.0,2,100,5.0,0.0
18956,57.0,26,100,3.0,0.0
18957,53.0,0,100,3.0,0.0
18958,41.0,86,120,15.0,0.0
18959,77.0,1,100,0.0,0.0
18960,72.0,1,100,6.0,0.0
18961,60.0,0,100,6.0,0.0
18962,60.0,1,100,4.0,0.0
18963,77.0,1,100,1.0,0.0
18964,65.0,2,100,2.0,0.0
18965,69.0,0,100,2.0,0.0
18966,48.0,2,100,5.0,0.0
18967,53.0,26,100,3.0,0.0
18968,57.0,0,100,3.0,0.0
18969,41.0,105,120,15.0,0.0
18970,65.0,3,120,10.0,0.0
18971,57.0,5,120,11.0,0.0
18972,65.0,3,120,10.0,0.0
18973,57.0,5,120,11.0,0.0
18974,48.0,4,0,12.0,0.0
18975,41.0,2,0,13.0,0.0
18976,29.0,106,0,14.0,0.0
18977,77.0,1,100,0.0,0.0
18978,60.0,0,100,6.0,0.0
18979,72.0,1,100,6.0,0.0
18980,60.0,1,100,4.0,0.0
18981,77.0,1,100,1.0,0.0
18982,69.0,2,100,2.0,0.0
18983,65.0,0,100,2.0,0.0
18984,48.0,2,100,5.0,0.0
18985,57.0,26,100,3.0,0.0
18986,53.0,0,100,3.0,0.0
18987,77.0,1,100,0.0,0.0
18988,72.0,1,100,6.0,0.0
18989,60.0,0,100,6.0,0.0
18990,60.0,1,100,4.0,0.0
18991,77.0,1,100,1.0,0.0
18992,65.0,0,100,2.0,0.0
18993,69.0,2,100,2.0,0.0
18994,48.0,2,100,5.0,0.0
18995,53.0,26,100,3.0,0.0
18996,57.0,0,100,3.0,0.0
18997,41.0,86,0,15.0,0.0
18998,57.0,5,120,11.0,0.0
18999,41.0,2,120,13.0,0.0
19000,65.0,3,0,10.0,0.0
19001,57.0,5,120,11.0,0.0
19002,48.0,4,0,12.0,0.0
19003,41.0,2,120,13.0,0.0
19004,29.0,106,0,14.0,0.0
19005,77.0,1,100,0.0,0.0
19006,60.0,0,100,6.0,0.0
19007,72.0,1,100,6.0,0.0
19008,60.0,1,100,4.0,0.0
19009,77.0,1,100,1.0,0.0
19010,69.0,0,100,2.0,0.0
19011,65.0,2,100,2.0,0.0
19012,48.0,2,100,5.0,0.0
19013,53.0,0,100,3.0,0.0
19014,57.0,26,100,3.0,0.0
19015,41.0,86,120,15.0,0.0
19016,77.0,1,100,0.0,0.0
19017,72.0,0,100,6.0,0.0
19018,60.0,1,100,6.0,0.0
19019,60.0,1,100,4.0,0.0
19020,77.0,1,100,1.0,0.0
19021,65.0,2,100,2.0,0.0
19022,69.0,0,100,2.0,0.0
19023,48.0,2,100,5.0,0.0
19024,53.0,0,100,3.0,0.0
19025,57.0,26,100,3.0,0.0
19026,41.0,240,120,15.0,0.0
19027,77.0,1,350,0.0,0.0
19028,60.0,0,350,6.0,0.0
19029,72.0,1,350,6.0,0.0
19030,60.0,1,350,4.0,0.0
19031,77.0,1,350,1.0,0.0
19032,69.0,0,350,2.0,0.0
19033,65.0,2,350,2.0,0.0
19034,48.0,2,350,5.0,0.0
19035,53.0,0,350,3.0,0.0
19036,57.0,136,350,3.0,0.0
19037,41.0,216,120,15.0,0.0
19038,77.0,1,350,0.0,0.0
19039,72.0,1,350,6.0,0.0
19040,60.0,0,350,6.0,0.0
19041,60.0,1,350,4.0,0.0
19042,77.0,1,350,1.0,0.0
19043,69.0,0,350,2.0,0.0
19044,65.0,2,350,2.0,0.0
19045,48.0,2,350,5.0,0.0
19046,57.0,0,350,3.0,0.0
19047,53.0,62,350,3.0,0.0
19048,41.0,216,120,15.0,0.0
19049,72.0,3,120,10.0,0.0
19050,77.0,1,60,0.0,0.0
19051,72.0,0,60,6.0,0.0
19052,60.0,1,60,6.0,0.0
19053,72.0,5,120,11.0,0.0
19054,60.0,1,60,4.0,0.0
19055,77.0,0,60,1.0,0.0
19056,72.0,1,60,1.0,0.0
19057,69.0,2,60,2.0,0.0
19058,65.0,0,60,2.0,0.0
19059,48.0,2,60,5.0,0.0
19060,60.0,4,120,12.0,0.0
19061,57.0,0,60,3.0,0.0
19062,53.0,51,60,3.0,0.0
19063,48.0,2,120,13.0,0.0
19064,36.0,1,120,14.0,0.0
19065,41.0,45,120,15.0,0.0
19066,69.0,1,60,10.0,0.0
19067,77.0,1,60,0.0,0.0
19068,81.0,0,60,0.0,0.0
19069,60.0,0,60,6.0,0.0
19070,72.0,1,60,6.0,0.0
19071,60.0,0,60,4.0,0.0
19072,69.0,1,60,11.0,0.0
19073,69.0,0,60,1.0,0.0
19074,77.0,1,60,1.0,0.0
19075,65.0,2,60,2.0,0.0
19076,69.0,0,60,2.0,0.0
19077,48.0,1,60,5.0,0.0
19078,57.0,1,60,12.0,0.0
19079,57.0,0,60,3.0,0.0
19080,53.0,3,60,3.0,0.0
19081,45.0,2,60,13.0,0.0
19082,33.0,46,60,14.0,0.0
19083,70.0,3,60,10.0,0.0
19084,70.0,5,60,11.0,0.0
19085,58.0,4,60,12.0,0.0
19086,46.0,2,60,13.0,0.0
19087,34.0,1,60,14.0,0.0
19088,72.0,3,30,10.0,0.0
19089,81.0,0,60,0.0,0.0
19090,84.0,1,60,0.0,0.0
19091,60.0,1,60,6.0,0.0
19092,72.0,0,60,6.0,0.0
19093,72.0,5,30,11.0,0.0
19094,60.0,1,60,4.0,0.0
19095,77.0,1,60,1.0,0.0
19096,72.0,0,60,1.0,0.0
19097,65.0,0,60,2.0,0.0
19098,69.0,2,60,2.0,0.0
19099,48.0,2,60,5.0,0.0
19100,60.0,4,30,12.0,0.0
19101,53.0,0,60,3.0,0.0
19102,57.0,21,60,3.0,0.0
19103,48.0,2,30,13.0,0.0
19104,36.0,17,30,14.0,0.0
19105,41.0,15,0,15.0,0.0
19106,69.0,3,30,10.0,0.0
19107,69.0,5,30,11.0,0.0
19108,57.0,4,30,12.0,0.0
19109,45.0,2,30,13.0,0.0
19110,33.0,31,30,14.0,0.0
19111,65.0,1,120,10.0,0.0
19112,84.0,1,120,0.0,0.0
19113,89.0,0,120,0.0,0.0
19114,60.0,1,120,6.0,0.0
19115,72.0,0,120,6.0,0.0
19116,65.0,1,120,11.0,0.0
19117,60.0,0,120,4.0,0.0
19118,65.0,0,120,1.0,0.0
19119,77.0,1,120,1.0,0.0
19120,69.0,2,120,2.0,0.0
19121,65.0,0,120,2.0,0.0
19122,48.0,1,120,5.0,0.0
19123,53.0,1,120,12.0,0.0
19124,57.0,0,120,3.0,0.0
19125,53.0,3,120,3.0,0.0
19126,41.0,2,120,13.0,0.0
19127,29.0,1,120,14.0,0.0
19128,41.0,240,120,15.0,0.0
