tick,type,time,meta,track,numerator,denominator,clocks_per_click,notated_32nd_notes_per_beat,key,tempo,program,channel,control,value,note,velocity
0,track_name,0,1,0,,,,,,,,,,,,
0,track_name,0,1,8,,,,,,,,,,,,
0,program_change,0,0,7,,,,,,,47,6,,,,
0,track_name,0,1,7,,,,,,,,,,,,
0,control_change,0,0,6,,,,,,,,5,10,38,,
0,program_change,0,0,6,,,,,,,56,5,,,,
0,track_name,0,1,6,,,,,,,,,,,,
0,control_change,0,0,5,,,,,,,,4,10,91,,
0,program_change,0,0,8,,,,,,,48,7,,,,
0,program_change,0,0,5,,,,,,,60,4,,,,
0,control_change,0,0,4,,,,,,,,3,10,34,,
0,program_change,0,0,4,,,,,,,70,3,,,,
0,track_name,0,1,4,,,,,,,,,,,,
0,control_change,0,0,3,,,,,,,,2,10,99,,
0,program_change,0,0,3,,,,,,,71,2,,,,
0,track_name,0,1,3,,,,,,,,,,,,
0,control_change,0,0,2,,,,,,,,1,10,94,,
0,track_name,0,1,5,,,,,,,,,,,,
0,program_change,0,0,2,,,,,,,68,1,,,,
0,control_change,0,0,8,,,,,,,,7,10,29,,
0,track_name,0,1,9,,,,,,,,,,,,
0,track_name,0,1,15,,,,,,,,,,,,
0,end_of_track,0,1,14,,,,,,,,,,,,
0,track_name,0,1,14,,,,,,,,,,,,
0,end_of_track,0,1,13,,,,,,,,,,,,
0,track_name,0,1,13,,,,,,,,,,,,
0,control_change,0,0,12,,,,,,,,7,10,104,,
0,program_change,0,0,12,,,,,,,48,7,,,,
0,end_of_track,0,1,15,,,,,,,,,,,,
0,track_name,0,1,12,,,,,,,,,,,,
0,program_change,0,0,11,,,,,,,48,7,,,,
0,track_name,0,1,11,,,,,,,,,,,,
0,control_change,0,0,10,,,,,,,,7,10,65,,
0,program_change,0,0,10,,,,,,,48,7,,,,
0,track_name,0,1,10,,,,,,,,,,,,
0,control_change,0,0,9,,,,,,,,7,10,44,,
0,program_change,0,0,9,,,,,,,48,7,,,,
0,control_change,0,0,11,,,,,,,,7,10,87,,
0,track_name,0,1,2,,,,,,,,,,,,
0,end_of_track,0,1,16,,,,,,,,,,,,
0,control_change,0,0,1,,,,,,,,0,10,28,,
0,time_signature,0,1,0,1,4,24,8,,,,,,,,
0,key_signature,0,1,0,,,,,Eb,,,,,,,
0,set_tempo,0,1,0,,,,,,517241,,,,,,
0,marker,0,1,0,,,,,,,,,,,,
0,end_of_track,0,1,0,,,,,,,,,,,,
0,program_change,0,0,1,,,,,,,73,0,,,,
0,track_name,0,1,1,,,,,,,,,,,,
80,note_on,80,0,11,,,,,,,,7,,,51,32
80,note_on,80,0,8,,,,,,,,7,,,58,32
80,note_on,80,0,9,,,,,,,,7,,,55,32
80,note_on,80,0,10,,,,,,,,7,,,51,31
99,note_on,19,0,8,,,,,,,,7,,,58,0
99,note_on,19,0,11,,,,,,,,7,,,51,0
99,note_on,19,0,9,,,,,,,,7,,,55,0
99,note_on,19,0,10,,,,,,,,7,,,51,0
120,note_on,21,0,11,,,,,,,,7,,,51,32
120,note_on,21,0,9,,,,,,,,7,,,55,32
120,note_on,21,0,8,,,,,,,,7,,,58,32
120,note_on,21,0,10,,,,,,,,7,,,51,31
139,note_on,19,0,8,,,,,,,,7,,,58,0
139,note_on,19,0,10,,,,,,,,7,,,51,0
139,note_on,19,0,11,,,,,,,,7,,,51,0
139,note_on,19,0,9,,,,,,,,7,,,55,0
160,note_on,21,0,8,,,,,,,,7,,,60,32
160,note_on,21,0,10,,,,,,,,7,,,51,31
160,note_on,21,0,9,,,,,,,,7,,,56,32
160,note_on,21,0,11,,,,,,,,7,,,51,32
179,note_on,19,0,8,,,,,,,,7,,,60,0
179,note_on,19,0,11,,,,,,,,7,,,51,0
179,note_on,19,0,9,,,,,,,,7,,,56,0
179,note_on,19,0,10,,,,,,,,7,,,51,0
200,note_on,21,0,11,,,,,,,,7,,,51,32
200,note_on,21,0,10,,,,,,,,7,,,51,31
200,note_on,21,0,8,,,,,,,,7,,,58,32
200,note_on,21,0,9,,,,,,,,7,,,55,32
219,note_on,19,0,8,,,,,,,,7,,,58,0
219,note_on,19,0,10,,,,,,,,7,,,51,0
219,note_on,19,0,11,,,,,,,,7,,,51,0
219,note_on,19,0,9,,,,,,,,7,,,55,0
240,note_on,21,0,10,,,,,,,,7,,,51,31
240,note_on,21,0,9,,,,,,,,7,,,56,32
240,note_on,21,0,11,,,,,,,,7,,,51,32
240,note_on,21,0,8,,,,,,,,7,,,60,32
259,note_on,19,0,9,,,,,,,,7,,,56,0
259,note_on,19,0,8,,,,,,,,7,,,60,0
259,note_on,19,0,11,,,,,,,,7,,,51,0
259,note_on,19,0,10,,,,,,,,7,,,51,0
280,note_on,21,0,8,,,,,,,,7,,,58,32
280,note_on,21,0,11,,,,,,,,7,,,51,32
280,note_on,21,0,9,,,,,,,,7,,,55,32
280,note_on,21,0,10,,,,,,,,7,,,51,31
299,note_on,19,0,11,,,,,,,,7,,,51,0
299,note_on,19,0,10,,,,,,,,7,,,51,0
299,note_on,19,0,9,,,,,,,,7,,,55,0
299,note_on,19,0,8,,,,,,,,7,,,58,0
320,note_on,21,0,11,,,,,,,,7,,,51,32
320,note_on,21,0,9,,,,,,,,7,,,56,32
320,note_on,21,0,8,,,,,,,,7,,,60,32
320,note_on,21,0,10,,,,,,,,7,,,51,31
339,note_on,19,0,9,,,,,,,,7,,,56,0
339,note_on,19,0,11,,,,,,,,7,,,51,0
339,note_on,19,0,8,,,,,,,,7,,,60,0
339,note_on,19,0,10,,,,,,,,7,,,51,0
360,note_on,21,0,9,,,,,,,,7,,,55,32
360,note_on,21,0,11,,,,,,,,7,,,51,32
360,note_on,21,0,8,,,,,,,,7,,,58,32
360,note_on,21,0,10,,,,,,,,7,,,51,31
379,note_on,19,0,9,,,,,,,,7,,,55,0
379,note_on,19,0,11,,,,,,,,7,,,51,0
379,note_on,19,0,10,,,,,,,,7,,,51,0
379,note_on,19,0,8,,,,,,,,7,,,58,0
400,note_on,21,0,8,,,,,,,,7,,,60,32
400,note_on,21,0,11,,,,,,,,7,,,51,32
400,note_on,21,0,10,,,,,,,,7,,,51,31
400,note_on,21,0,9,,,,,,,,7,,,56,32
419,note_on,19,0,8,,,,,,,,7,,,60,0
419,note_on,19,0,10,,,,,,,,7,,,51,0
419,note_on,19,0,11,,,,,,,,7,,,51,0
419,note_on,19,0,9,,,,,,,,7,,,56,0
440,note_on,21,0,9,,,,,,,,7,,,55,32
440,note_on,21,0,8,,,,,,,,7,,,58,32
440,note_on,21,0,10,,,,,,,,7,,,51,31
440,note_on,21,0,11,,,,,,,,7,,,51,32
459,note_on,19,0,10,,,,,,,,7,,,51,0
459,note_on,19,0,11,,,,,,,,7,,,51,0
459,note_on,19,0,8,,,,,,,,7,,,58,0
459,note_on,19,0,9,,,,,,,,7,,,55,0
480,note_on,21,0,10,,,,,,,,7,,,51,31
480,note_on,21,0,9,,,,,,,,7,,,56,32
480,note_on,21,0,8,,,,,,,,7,,,60,32
480,note_on,21,0,11,,,,,,,,7,,,51,32
499,note_on,19,0,9,,,,,,,,7,,,56,0
499,note_on,19,0,11,,,,,,,,7,,,51,0
499,note_on,19,0,10,,,,,,,,7,,,51,0
499,note_on,19,0,8,,,,,,,,7,,,60,0
520,note_on,21,0,9,,,,,,,,7,,,55,32
520,note_on,21,0,11,,,,,,,,7,,,51,32
520,note_on,21,0,10,,,,,,,,7,,,51,31
520,note_on,21,0,8,,,,,,,,7,,,58,32
539,note_on,19,0,9,,,,,,,,7,,,55,0
539,note_on,19,0,11,,,,,,,,7,,,51,0
539,note_on,19,0,10,,,,,,,,7,,,51,0
539,note_on,19,0,8,,,,,,,,7,,,58,0
560,note_on,21,0,10,,,,,,,,7,,,53,31
560,note_on,21,0,9,,,,,,,,7,,,56,32
560,note_on,21,0,11,,,,,,,,7,,,51,32
560,note_on,21,0,8,,,,,,,,7,,,62,32
579,note_on,19,0,9,,,,,,,,7,,,56,0
579,note_on,19,0,10,,,,,,,,7,,,53,0
579,note_on,19,0,11,,,,,,,,7,,,51,0
579,note_on,19,0,8,,,,,,,,7,,,62,0
600,note_on,21,0,11,,,,,,,,7,,,51,32
600,note_on,21,0,9,,,,,,,,7,,,58,32
600,note_on,21,0,8,,,,,,,,7,,,63,32
600,note_on,21,0,10,,,,,,,,7,,,55,31
619,note_on,19,0,8,,,,,,,,7,,,63,0
619,note_on,19,0,11,,,,,,,,7,,,51,0
619,note_on,19,0,10,,,,,,,,7,,,55,0
619,note_on,19,0,9,,,,,,,,7,,,58,0
640,note_on,21,0,8,,,,,,,,7,,,65,32
640,note_on,21,0,11,,,,,,,,7,,,51,32
640,note_on,21,0,10,,,,,,,,7,,,63,31
640,note_on,21,0,9,,,,,,,,7,,,58,32
659,note_on,19,0,10,,,,,,,,7,,,63,0
659,note_on,19,0,11,,,,,,,,7,,,51,0
659,note_on,19,0,9,,,,,,,,7,,,58,0
659,note_on,19,0,8,,,,,,,,7,,,65,0
680,note_on,21,0,8,,,,,,,,7,,,66,32
680,note_on,21,0,9,,,,,,,,7,,,58,32
680,note_on,21,0,10,,,,,,,,7,,,62,31
680,note_on,21,0,11,,,,,,,,7,,,50,32
699,note_on,19,0,11,,,,,,,,7,,,50,0
699,note_on,19,0,9,,,,,,,,7,,,58,0
699,note_on,19,0,8,,,,,,,,7,,,66,0
699,note_on,19,0,10,,,,,,,,7,,,62,0
720,note_on,21,0,11,,,,,,,,7,,,51,32
720,note_on,21,0,9,,,,,,,,7,,,58,32
720,note_on,21,0,8,,,,,,,,7,,,67,32
720,note_on,21,0,10,,,,,,,,7,,,63,31
739,note_on,19,0,9,,,,,,,,7,,,58,0
739,note_on,19,0,10,,,,,,,,7,,,63,0
739,note_on,19,0,11,,,,,,,,7,,,51,0
739,note_on,19,0,8,,,,,,,,7,,,67,0
760,note_on,21,0,11,,,,,,,,7,,,50,32
760,note_on,21,0,10,,,,,,,,7,,,62,31
760,note_on,21,0,8,,,,,,,,7,,,68,32
760,note_on,21,0,9,,,,,,,,7,,,65,32
779,note_on,19,0,8,,,,,,,,7,,,68,0
779,note_on,19,0,11,,,,,,,,7,,,50,0
779,note_on,19,0,9,,,,,,,,7,,,65,0
779,note_on,19,0,10,,,,,,,,7,,,62,0
800,note_on,21,0,8,,,,,,,,7,,,69,32
800,note_on,21,0,11,,,,,,,,7,,,48,32
800,note_on,21,0,9,,,,,,,,7,,,63,32
800,note_on,21,0,10,,,,,,,,7,,,60,31
819,note_on,19,0,11,,,,,,,,7,,,48,0
819,note_on,19,0,9,,,,,,,,7,,,63,0
819,note_on,19,0,10,,,,,,,,7,,,60,0
819,note_on,19,0,8,,,,,,,,7,,,69,0
840,note_on,21,0,10,,,,,,,,7,,,58,31
840,note_on,21,0,11,,,,,,,,7,,,46,32
840,note_on,21,0,8,,,,,,,,7,,,70,32
840,note_on,840,0,2,,,,,,,,1,,,82,32
840,note_on,21,0,9,,,,,,,,7,,,62,32
859,note_on,19,0,2,,,,,,,,1,,,82,0
859,note_on,19,0,9,,,,,,,,7,,,62,0
859,note_on,19,0,10,,,,,,,,7,,,58,0
859,note_on,19,0,8,,,,,,,,7,,,70,0
859,note_on,19,0,11,,,,,,,,7,,,46,0
880,note_on,21,0,11,,,,,,,,7,,,62,32
880,note_on,21,0,2,,,,,,,,1,,,82,32
880,note_on,21,0,8,,,,,,,,7,,,70,32
880,note_on,21,0,9,,,,,,,,7,,,65,32
880,note_on,21,0,10,,,,,,,,7,,,62,31
899,note_on,19,0,11,,,,,,,,7,,,62,0
899,note_on,19,0,10,,,,,,,,7,,,62,0
899,note_on,19,0,2,,,,,,,,1,,,82,0
899,note_on,19,0,9,,,,,,,,7,,,65,0
899,note_on,19,0,8,,,,,,,,7,,,70,0
920,note_on,21,0,2,,,,,,,,1,,,82,32
920,note_on,21,0,10,,,,,,,,7,,,60,31
920,note_on,21,0,9,,,,,,,,7,,,63,32
920,note_on,21,0,8,,,,,,,,7,,,70,32
920,note_on,21,0,11,,,,,,,,7,,,60,32
939,note_on,19,0,10,,,,,,,,7,,,60,0
939,note_on,19,0,9,,,,,,,,7,,,63,0
939,note_on,19,0,8,,,,,,,,7,,,70,0
939,note_on,19,0,11,,,,,,,,7,,,60,0
939,note_on,19,0,2,,,,,,,,1,,,82,0
960,note_on,21,0,8,,,,,,,,7,,,70,32
960,note_on,21,0,10,,,,,,,,7,,,58,31
960,note_on,21,0,11,,,,,,,,7,,,58,32
960,note_on,21,0,2,,,,,,,,1,,,82,32
960,note_on,21,0,9,,,,,,,,7,,,62,32
979,note_on,19,0,9,,,,,,,,7,,,62,0
979,note_on,19,0,10,,,,,,,,7,,,58,0
979,note_on,19,0,11,,,,,,,,7,,,58,0
979,note_on,19,0,2,,,,,,,,1,,,82,0
979,note_on,19,0,8,,,,,,,,7,,,70,0
1000,note_on,21,0,10,,,,,,,,7,,,62,31
1000,note_on,21,0,11,,,,,,,,7,,,62,32
1000,note_on,21,0,2,,,,,,,,1,,,82,32
1000,note_on,21,0,9,,,,,,,,7,,,65,32
1000,note_on,21,0,8,,,,,,,,7,,,70,32
1019,note_on,19,0,8,,,,,,,,7,,,70,0
1019,note_on,19,0,9,,,,,,,,7,,,65,0
1019,note_on,19,0,11,,,,,,,,7,,,62,0
1019,note_on,19,0,10,,,,,,,,7,,,62,0
1019,note_on,19,0,2,,,,,,,,1,,,82,0
1040,note_on,21,0,8,,,,,,,,7,,,70,32
1040,note_on,21,0,11,,,,,,,,7,,,60,32
1040,note_on,21,0,2,,,,,,,,1,,,82,32
1040,note_on,21,0,10,,,,,,,,7,,,60,31
1040,note_on,21,0,9,,,,,,,,7,,,63,32
1059,note_on,19,0,2,,,,,,,,1,,,82,0
1059,note_on,19,0,9,,,,,,,,7,,,63,0
1059,note_on,19,0,10,,,,,,,,7,,,60,0
1059,note_on,19,0,11,,,,,,,,7,,,60,0
1059,note_on,19,0,8,,,,,,,,7,,,70,0
1080,note_on,21,0,11,,,,,,,,7,,,58,32
1080,note_on,21,0,9,,,,,,,,7,,,62,32
1080,note_on,21,0,8,,,,,,,,7,,,70,32
1080,note_on,21,0,2,,,,,,,,1,,,82,32
1080,note_on,21,0,10,,,,,,,,7,,,58,31
1099,note_on,19,0,9,,,,,,,,7,,,62,0
1099,note_on,19,0,11,,,,,,,,7,,,58,0
1099,note_on,19,0,10,,,,,,,,7,,,58,0
1120,note_on,40,0,8,,,,,,,,7,,,72,32
1120,note_on,40,0,2,,,,,,,,1,,,84,32
1120,note_on,21,0,9,,,,,,,,7,,,62,32
1120,note_on,21,0,11,,,,,,,,7,,,58,32
1120,note_on,21,0,10,,,,,,,,7,,,58,31
1122,note_on,2,0,2,,,,,,,,1,,,82,0
1122,note_on,2,0,8,,,,,,,,7,,,70,0
1139,note_on,19,0,9,,,,,,,,7,,,62,0
1139,note_on,19,0,11,,,,,,,,7,,,58,0
1139,note_on,19,0,10,,,,,,,,7,,,58,0
1140,note_on,18,0,2,,,,,,,,1,,,82,32
1140,note_on,18,0,8,,,,,,,,7,,,70,32
1142,note_on,2,0,2,,,,,,,,1,,,84,0
1142,note_on,2,0,8,,,,,,,,7,,,72,0
1160,note_on,18,0,2,,,,,,,,1,,,81,32
1160,note_on,18,0,8,,,,,,,,7,,,69,32
1160,note_on,21,0,10,,,,,,,,7,,,60,31
1160,note_on,21,0,9,,,,,,,,7,,,63,32
1160,note_on,21,0,11,,,,,,,,7,,,60,32
1162,note_on,2,0,8,,,,,,,,7,,,70,0
1162,note_on,2,0,2,,,,,,,,1,,,82,0
1179,note_on,19,0,11,,,,,,,,7,,,60,0
1179,note_on,19,0,10,,,,,,,,7,,,60,0
1179,note_on,19,0,9,,,,,,,,7,,,63,0
1180,note_on,18,0,2,,,,,,,,1,,,79,32
1180,note_on,18,0,8,,,,,,,,7,,,67,32
1182,note_on,2,0,2,,,,,,,,1,,,81,0
1182,note_on,2,0,8,,,,,,,,7,,,69,0
1199,note_on,17,0,2,,,,,,,,1,,,79,0
1199,note_on,17,0,8,,,,,,,,7,,,67,0
1200,note_on,1,0,2,,,,,,,,1,,,77,32
1200,note_on,21,0,11,,,,,,,,7,,,62,32
1200,note_on,21,0,10,,,,,,,,7,,,62,31
1200,note_on,21,0,9,,,,,,,,7,,,65,32
1219,note_on,19,0,9,,,,,,,,7,,,65,0
1219,note_on,19,0,11,,,,,,,,7,,,62,0
1219,note_on,19,0,10,,,,,,,,7,,,62,0
1220,note_on,21,0,8,,,,,,,,7,,,65,32
1240,note_on,21,0,9,,,,,,,,7,,,60,32
1240,note_on,21,0,11,,,,,,,,7,,,57,32
1240,note_on,21,0,10,,,,,,,,7,,,57,31
1259,note_on,19,0,9,,,,,,,,7,,,60,0
1259,note_on,19,0,11,,,,,,,,7,,,57,0
1259,note_on,19,0,10,,,,,,,,7,,,57,0
1280,note_on,21,0,11,,,,,,,,7,,,59,32
1280,note_on,21,0,9,,,,,,,,7,,,62,32
1280,note_on,21,0,10,,,,,,,,7,,,59,31
1299,note_on,19,0,11,,,,,,,,7,,,59,0
1299,note_on,19,0,9,,,,,,,,7,,,62,0
1299,note_on,19,0,10,,,,,,,,7,,,59,0
1319,note_on,99,0,8,,,,,,,,7,,,65,0
1319,note_on,119,0,2,,,,,,,,1,,,77,0
1320,note_on,21,0,11,,,,,,,,7,,,60,32
1320,note_on,21,0,9,,,,,,,,7,,,63,32
1320,note_on,1,0,2,,,,,,,,1,,,75,32
1320,note_on,21,0,10,,,,,,,,7,,,60,31
1339,note_on,19,0,9,,,,,,,,7,,,63,0
1339,note_on,19,0,11,,,,,,,,7,,,60,0
1339,note_on,19,0,10,,,,,,,,7,,,60,0
1340,note_on,21,0,8,,,,,,,,7,,,63,32
1360,note_on,21,0,9,,,,,,,,7,,,70,32
1360,note_on,21,0,11,,,,,,,,7,,,55,32
1360,note_on,21,0,10,,,,,,,,7,,,55,31
1379,note_on,19,0,11,,,,,,,,7,,,55,0
1379,note_on,19,0,10,,,,,,,,7,,,55,0
1379,note_on,19,0,9,,,,,,,,7,,,70,0
1400,note_on,21,0,11,,,,,,,,7,,,57,32
1400,note_on,21,0,10,,,,,,,,7,,,57,31
1400,note_on,21,0,9,,,,,,,,7,,,72,32
1419,note_on,19,0,9,,,,,,,,7,,,72,0
1419,note_on,19,0,11,,,,,,,,7,,,57,0
1419,note_on,19,0,10,,,,,,,,7,,,57,0
1439,note_on,119,0,2,,,,,,,,1,,,75,0
1439,note_on,99,0,8,,,,,,,,7,,,63,0
1440,note_on,1,0,2,,,,,,,,1,,,74,32
1440,note_on,1,0,8,,,,,,,,7,,,62,32
1440,note_on,21,0,11,,,,,,,,7,,,58,32
1440,note_on,21,0,9,,,,,,,,7,,,74,32
1440,note_on,21,0,10,,,,,,,,7,,,58,31
1459,note_on,19,0,11,,,,,,,,7,,,58,0
1459,note_on,19,0,9,,,,,,,,7,,,74,0
1459,note_on,19,0,10,,,,,,,,7,,,58,0
1480,note_on,21,0,11,,,,,,,,7,,,53,32
1480,note_on,40,0,2,,,,,,,,1,,,77,32
1480,note_on,40,0,8,,,,,,,,7,,,65,32
1480,note_on,21,0,9,,,,,,,,7,,,69,32
1480,note_on,21,0,10,,,,,,,,7,,,53,31
1482,note_on,2,0,2,,,,,,,,1,,,74,0
1482,note_on,2,0,8,,,,,,,,7,,,62,0
1499,note_on,19,0,9,,,,,,,,7,,,69,0
1499,note_on,19,0,10,,,,,,,,7,,,53,0
1499,note_on,19,0,11,,,,,,,,7,,,53,0
1519,note_on,37,0,2,,,,,,,,1,,,77,0
1519,note_on,37,0,8,,,,,,,,7,,,65,0
1520,note_on,1,0,8,,,,,,,,7,,,62,32
1520,note_on,21,0,11,,,,,,,,7,,,55,32
1520,note_on,1,0,2,,,,,,,,1,,,74,32
1520,note_on,21,0,9,,,,,,,,7,,,70,32
1520,note_on,21,0,10,,,,,,,,7,,,55,31
1539,note_on,19,0,11,,,,,,,,7,,,55,0
1539,note_on,19,0,10,,,,,,,,7,,,55,0
1539,note_on,19,0,2,,,,,,,,1,,,74,0
1539,note_on,19,0,8,,,,,,,,7,,,62,0
1539,note_on,19,0,9,,,,,,,,7,,,70,0
1560,note_on,21,0,9,,,,,,,,7,,,67,32
1560,note_on,21,0,10,,,,,,,,7,,,51,31
1560,note_on,21,0,8,,,,,,,,7,,,60,32
1560,note_on,21,0,11,,,,,,,,7,,,51,32
1560,note_on,21,0,2,,,,,,,,1,,,72,32
1579,note_on,19,0,9,,,,,,,,7,,,67,0
1579,note_on,19,0,11,,,,,,,,7,,,51,0
1579,note_on,19,0,10,,,,,,,,7,,,51,0
1600,note_on,40,0,2,,,,,,,,1,,,75,32
1600,note_on,21,0,11,,,,,,,,7,,,48,32
1600,note_on,40,0,8,,,,,,,,7,,,63,32
1600,note_on,21,0,9,,,,,,,,7,,,67,32
1600,note_on,21,0,10,,,,,,,,7,,,48,31
1602,note_on,2,0,8,,,,,,,,7,,,60,0
1602,note_on,2,0,2,,,,,,,,1,,,72,0
1619,note_on,19,0,11,,,,,,,,7,,,48,0
1619,note_on,19,0,10,,,,,,,,7,,,48,0
1619,note_on,19,0,9,,,,,,,,7,,,67,0
1639,note_on,37,0,8,,,,,,,,7,,,63,0
1639,note_on,37,0,2,,,,,,,,1,,,75,0
1640,note_on,21,0,10,,,,,,,,7,,,57,31
1640,note_on,21,0,9,,,,,,,,7,,,63,32
1640,note_on,1,0,2,,,,,,,,1,,,72,32
1640,note_on,21,0,11,,,,,,,,7,,,53,32
1640,note_on,1,0,8,,,,,,,,7,,,60,32
1659,note_on,19,0,11,,,,,,,,7,,,53,0
1659,note_on,19,0,8,,,,,,,,7,,,60,0
1659,note_on,19,0,9,,,,,,,,7,,,63,0
1659,note_on,19,0,10,,,,,,,,7,,,57,0
1659,note_on,19,0,2,,,,,,,,1,,,72,0
1680,note_on,21,0,11,,,,,,,,7,,,46,32
1680,note_on,21,0,2,,,,,,,,1,,,70,32
1680,note_on,21,0,8,,,,,,,,7,,,58,32
1680,note_on,21,0,9,,,,,,,,7,,,62,32
1680,note_on,21,0,10,,,,,,,,7,,,58,31
1699,note_on,19,0,11,,,,,,,,7,,,46,0
1699,note_on,19,0,8,,,,,,,,7,,,58,0
1699,note_on,19,0,9,,,,,,,,7,,,62,0
1699,note_on,19,0,10,,,,,,,,7,,,58,0
1699,note_on,19,0,2,,,,,,,,1,,,70,0
1720,note_on,1720,0,12,,,,,,,,7,,,34,48
1720,note_on,21,0,11,,,,,,,,7,,,46,32
1739,note_on,19,0,12,,,,,,,,7,,,34,0
1739,note_on,19,0,11,,,,,,,,7,,,46,0
1760,note_on,21,0,12,,,,,,,,7,,,34,48
1760,note_on,61,0,9,,,,,,,,7,,,55,32
1760,note_on,21,0,11,,,,,,,,7,,,46,32
1760,note_on,61,0,8,,,,,,,,7,,,58,32
1770,note_on,71,0,10,,,,,,,,7,,,51,31
1779,note_on,19,0,11,,,,,,,,7,,,46,0
1779,note_on,19,0,9,,,,,,,,7,,,55,0
1779,note_on,19,0,8,,,,,,,,7,,,58,0
1779,note_on,19,0,12,,,,,,,,7,,,34,0
1789,note_on,19,0,10,,,,,,,,7,,,51,0
1800,note_on,21,0,8,,,,,,,,7,,,58,32
1800,note_on,21,0,9,,,,,,,,7,,,55,32
1800,note_on,21,0,11,,,,,,,,7,,,46,32
1800,note_on,11,0,10,,,,,,,,7,,,51,31
1800,note_on,21,0,12,,,,,,,,7,,,34,48
1819,note_on,19,0,11,,,,,,,,7,,,46,0
1819,note_on,19,0,9,,,,,,,,7,,,55,0
1819,note_on,19,0,10,,,,,,,,7,,,51,0
1819,note_on,19,0,12,,,,,,,,7,,,34,0
1819,note_on,19,0,8,,,,,,,,7,,,58,0
1840,note_on,21,0,9,,,,,,,,7,,,56,32
1840,note_on,21,0,10,,,,,,,,7,,,51,31
1840,note_on,21,0,11,,,,,,,,7,,,46,32
1840,note_on,21,0,12,,,,,,,,7,,,34,48
1840,note_on,21,0,8,,,,,,,,7,,,60,32
1859,note_on,19,0,9,,,,,,,,7,,,56,0
1859,note_on,19,0,11,,,,,,,,7,,,46,0
1859,note_on,19,0,10,,,,,,,,7,,,51,0
1859,note_on,19,0,12,,,,,,,,7,,,34,0
1859,note_on,19,0,8,,,,,,,,7,,,60,0
1880,note_on,21,0,8,,,,,,,,7,,,58,32
1880,note_on,21,0,9,,,,,,,,7,,,55,32
1880,note_on,21,0,11,,,,,,,,7,,,46,32
1880,note_on,21,0,12,,,,,,,,7,,,34,48
1880,note_on,21,0,10,,,,,,,,7,,,51,31
1899,note_on,19,0,9,,,,,,,,7,,,55,0
1899,note_on,19,0,11,,,,,,,,7,,,46,0
1899,note_on,19,0,10,,,,,,,,7,,,51,0
1899,note_on,19,0,12,,,,,,,,7,,,34,0
1899,note_on,19,0,8,,,,,,,,7,,,58,0
1920,note_on,21,0,10,,,,,,,,7,,,51,31
1920,note_on,21,0,12,,,,,,,,7,,,34,48
1920,note_on,21,0,11,,,,,,,,7,,,46,32
1920,note_on,21,0,8,,,,,,,,7,,,60,32
1920,note_on,21,0,9,,,,,,,,7,,,56,32
1939,note_on,19,0,9,,,,,,,,7,,,56,0
1939,note_on,19,0,12,,,,,,,,7,,,34,0
1939,note_on,19,0,10,,,,,,,,7,,,51,0
1939,note_on,19,0,11,,,,,,,,7,,,46,0
1939,note_on,19,0,8,,,,,,,,7,,,60,0
1960,note_on,21,0,10,,,,,,,,7,,,51,31
1960,note_on,21,0,11,,,,,,,,7,,,46,32
1960,note_on,21,0,12,,,,,,,,7,,,34,48
1960,note_on,21,0,9,,,,,,,,7,,,55,32
1960,note_on,21,0,8,,,,,,,,7,,,58,32
1979,note_on,19,0,12,,,,,,,,7,,,34,0
1979,note_on,19,0,10,,,,,,,,7,,,51,0
1979,note_on,19,0,11,,,,,,,,7,,,46,0
1979,note_on,19,0,9,,,,,,,,7,,,55,0
1979,note_on,19,0,8,,,,,,,,7,,,58,0
2000,note_on,21,0,10,,,,,,,,7,,,51,31
2000,note_on,21,0,9,,,,,,,,7,,,56,32
2000,note_on,21,0,12,,,,,,,,7,,,34,48
2000,note_on,21,0,11,,,,,,,,7,,,46,32
2000,note_on,21,0,8,,,,,,,,7,,,60,32
2019,note_on,19,0,10,,,,,,,,7,,,51,0
2019,note_on,19,0,9,,,,,,,,7,,,56,0
2019,note_on,19,0,12,,,,,,,,7,,,34,0
2019,note_on,19,0,11,,,,,,,,7,,,46,0
2019,note_on,19,0,8,,,,,,,,7,,,60,0
2040,note_on,21,0,10,,,,,,,,7,,,51,31
2040,note_on,21,0,12,,,,,,,,7,,,34,48
2040,note_on,21,0,11,,,,,,,,7,,,46,32
2040,note_on,21,0,8,,,,,,,,7,,,58,32
2040,note_on,21,0,9,,,,,,,,7,,,55,32
2059,note_on,19,0,8,,,,,,,,7,,,58,0
2059,note_on,19,0,12,,,,,,,,7,,,34,0
2059,note_on,19,0,11,,,,,,,,7,,,46,0
2059,note_on,19,0,10,,,,,,,,7,,,51,0
2059,note_on,19,0,9,,,,,,,,7,,,55,0
2080,note_on,21,0,12,,,,,,,,7,,,34,48
2080,note_on,21,0,10,,,,,,,,7,,,51,31
2080,note_on,21,0,11,,,,,,,,7,,,46,32
2080,note_on,21,0,9,,,,,,,,7,,,56,32
2080,note_on,21,0,8,,,,,,,,7,,,60,32
2099,note_on,19,0,9,,,,,,,,7,,,56,0
2099,note_on,19,0,10,,,,,,,,7,,,51,0
2099,note_on,19,0,12,,,,,,,,7,,,34,0
2099,note_on,19,0,11,,,,,,,,7,,,46,0
2099,note_on,19,0,8,,,,,,,,7,,,60,0
2120,note_on,21,0,11,,,,,,,,7,,,46,32
2120,note_on,21,0,10,,,,,,,,7,,,51,31
2120,note_on,21,0,9,,,,,,,,7,,,55,32
2120,note_on,21,0,12,,,,,,,,7,,,34,48
2120,note_on,21,0,8,,,,,,,,7,,,58,32
2139,note_on,19,0,10,,,,,,,,7,,,51,0
2139,note_on,19,0,12,,,,,,,,7,,,34,0
2139,note_on,19,0,9,,,,,,,,7,,,55,0
2139,note_on,19,0,8,,,,,,,,7,,,58,0
2139,note_on,19,0,11,,,,,,,,7,,,46,0
2160,note_on,21,0,8,,,,,,,,7,,,60,32
2160,note_on,21,0,11,,,,,,,,7,,,46,32
2160,note_on,21,0,10,,,,,,,,7,,,51,31
2160,note_on,21,0,9,,,,,,,,7,,,56,32
2160,note_on,21,0,12,,,,,,,,7,,,34,48
2179,note_on,19,0,8,,,,,,,,7,,,60,0
2179,note_on,19,0,11,,,,,,,,7,,,46,0
2179,note_on,19,0,10,,,,,,,,7,,,51,0
2179,note_on,19,0,9,,,,,,,,7,,,56,0
2179,note_on,19,0,12,,,,,,,,7,,,34,0
2200,note_on,21,0,8,,,,,,,,7,,,58,32
2200,note_on,21,0,9,,,,,,,,7,,,55,32
2200,note_on,21,0,12,,,,,,,,7,,,34,48
2200,note_on,21,0,10,,,,,,,,7,,,51,31
2200,note_on,21,0,11,,,,,,,,7,,,46,32
2219,note_on,19,0,10,,,,,,,,7,,,51,0
2219,note_on,19,0,9,,,,,,,,7,,,55,0
2219,note_on,19,0,11,,,,,,,,7,,,46,0
2219,note_on,19,0,8,,,,,,,,7,,,58,0
2219,note_on,19,0,12,,,,,,,,7,,,34,0
2240,note_on,21,0,10,,,,,,,,7,,,53,31
2240,note_on,21,0,11,,,,,,,,7,,,56,32
2240,note_on,541,0,2,,,,,,,,1,,,74,32
2240,note_on,21,0,8,,,,,,,,7,,,62,32
2240,note_on,21,0,9,,,,,,,,7,,,58,32
2240,note_on,21,0,12,,,,,,,,7,,,44,48
2259,note_on,19,0,2,,,,,,,,1,,,74,0
2259,note_on,19,0,8,,,,,,,,7,,,62,0
2259,note_on,19,0,12,,,,,,,,7,,,44,0
2259,note_on,19,0,10,,,,,,,,7,,,53,0
2259,note_on,19,0,11,,,,,,,,7,,,56,0
2259,note_on,19,0,9,,,,,,,,7,,,58,0
2280,note_on,21,0,8,,,,,,,,7,,,63,32
2280,note_on,21,0,9,,,,,,,,7,,,58,32
2280,note_on,21,0,2,,,,,,,,1,,,75,32
2280,note_on,21,0,12,,,,,,,,7,,,43,48
2280,note_on,21,0,10,,,,,,,,7,,,55,31
2280,note_on,21,0,11,,,,,,,,7,,,55,32
2299,note_on,19,0,8,,,,,,,,7,,,63,0
2299,note_on,19,0,2,,,,,,,,1,,,75,0
2299,note_on,19,0,12,,,,,,,,7,,,43,0
2299,note_on,19,0,10,,,,,,,,7,,,55,0
2299,note_on,19,0,11,,,,,,,,7,,,55,0
2299,note_on,19,0,9,,,,,,,,7,,,58,0
2320,note_on,21,0,11,,,,,,,,7,,,50,32
2320,note_on,21,0,8,,,,,,,,7,,,65,32
2320,note_on,21,0,12,,,,,,,,7,,,38,48
2320,note_on,21,0,2,,,,,,,,1,,,77,32
2320,note_on,21,0,9,,,,,,,,7,,,58,32
2320,note_on,21,0,10,,,,,,,,7,,,56,31
2339,note_on,19,0,2,,,,,,,,1,,,77,0
2339,note_on,19,0,12,,,,,,,,7,,,38,0
2339,note_on,19,0,8,,,,,,,,7,,,65,0
2339,note_on,19,0,9,,,,,,,,7,,,58,0
2339,note_on,19,0,10,,,,,,,,7,,,56,0
2339,note_on,19,0,11,,,,,,,,7,,,50,0
2360,note_on,21,0,10,,,,,,,,7,,,50,31
2360,note_on,21,0,2,,,,,,,,1,,,78,32
2360,note_on,21,0,9,,,,,,,,7,,,58,32
2360,note_on,21,0,12,,,,,,,,7,,,38,48
2360,note_on,21,0,8,,,,,,,,7,,,66,32
2360,note_on,21,0,11,,,,,,,,7,,,50,32
2379,note_on,19,0,10,,,,,,,,7,,,50,0
2379,note_on,19,0,11,,,,,,,,7,,,50,0
2379,note_on,19,0,8,,,,,,,,7,,,66,0
2379,note_on,19,0,9,,,,,,,,7,,,58,0
2379,note_on,19,0,2,,,,,,,,1,,,78,0
2379,note_on,19,0,12,,,,,,,,7,,,38,0
2400,note_on,21,0,11,,,,,,,,7,,,51,32
2400,note_on,21,0,12,,,,,,,,7,,,39,48
2400,note_on,21,0,8,,,,,,,,7,,,67,32
2400,note_on,21,0,2,,,,,,,,1,,,79,32
2400,note_on,21,0,10,,,,,,,,7,,,51,31
2400,note_on,21,0,9,,,,,,,,7,,,58,32
2419,note_on,19,0,12,,,,,,,,7,,,39,0
2419,note_on,19,0,11,,,,,,,,7,,,51,0
2419,note_on,19,0,10,,,,,,,,7,,,51,0
2419,note_on,19,0,8,,,,,,,,7,,,67,0
2419,note_on,19,0,9,,,,,,,,7,,,58,0
2419,note_on,19,0,2,,,,,,,,1,,,79,0
2440,note_on,21,0,10,,,,,,,,7,,,58,31
2440,note_on,21,0,9,,,,,,,,7,,,65,32
2440,note_on,21,0,8,,,,,,,,7,,,68,32
2440,note_on,21,0,12,,,,,,,,7,,,38,48
2440,note_on,21,0,11,,,,,,,,7,,,50,32
2440,note_on,21,0,2,,,,,,,,1,,,80,32
2459,note_on,19,0,11,,,,,,,,7,,,50,0
2459,note_on,19,0,12,,,,,,,,7,,,38,0
2459,note_on,19,0,8,,,,,,,,7,,,68,0
2459,note_on,19,0,2,,,,,,,,1,,,80,0
2459,note_on,19,0,9,,,,,,,,7,,,65,0
2459,note_on,19,0,10,,,,,,,,7,,,58,0
2480,note_on,21,0,8,,,,,,,,7,,,69,32
2480,note_on,21,0,12,,,,,,,,7,,,36,48
2480,note_on,21,0,2,,,,,,,,1,,,81,32
2480,note_on,21,0,9,,,,,,,,7,,,63,32
2480,note_on,21,0,11,,,,,,,,7,,,48,32
2480,note_on,21,0,10,,,,,,,,7,,,60,31
2499,note_on,19,0,12,,,,,,,,7,,,36,0
2499,note_on,19,0,8,,,,,,,,7,,,69,0
2499,note_on,19,0,9,,,,,,,,7,,,63,0
2499,note_on,19,0,10,,,,,,,,7,,,60,0
2499,note_on,19,0,11,,,,,,,,7,,,48,0
2499,note_on,19,0,2,,,,,,,,1,,,81,0
2520,note_on,21,0,11,,,,,,,,7,,,46,32
2520,note_on,21,0,9,,,,,,,,7,,,62,32
2520,note_on,21,0,8,,,,,,,,7,,,70,32
2520,note_on,21,0,10,,,,,,,,7,,,62,31
2520,note_on,21,0,12,,,,,,,,7,,,34,48
2520,note_on,21,0,2,,,,,,,,1,,,82,32
2539,note_on,19,0,2,,,,,,,,1,,,82,0
2539,note_on,19,0,10,,,,,,,,7,,,62,0
2539,note_on,19,0,9,,,,,,,,7,,,62,0
2539,note_on,19,0,11,,,,,,,,7,,,46,0
2539,note_on,19,0,8,,,,,,,,7,,,70,0
2539,note_on,19,0,12,,,,,,,,7,,,34,0
2560,note_on,21,0,2,,,,,,,,1,,,82,32
2560,note_on,21,0,12,,,,,,,,7,,,50,48
2560,note_on,21,0,10,,,,,,,,7,,,65,31
2560,note_on,21,0,11,,,,,,,,7,,,62,32
2560,note_on,21,0,8,,,,,,,,7,,,70,32
2560,note_on,21,0,9,,,,,,,,7,,,77,32
2579,note_on,19,0,8,,,,,,,,7,,,70,0
2579,note_on,19,0,11,,,,,,,,7,,,62,0
2579,note_on,19,0,10,,,,,,,,7,,,65,0
2579,note_on,19,0,12,,,,,,,,7,,,50,0
2579,note_on,19,0,2,,,,,,,,1,,,82,0
2579,note_on,19,0,9,,,,,,,,7,,,77,0
2600,note_on,21,0,10,,,,,,,,7,,,63,31
2600,note_on,21,0,9,,,,,,,,7,,,75,32
2600,note_on,21,0,12,,,,,,,,7,,,48,48
2600,note_on,21,0,8,,,,,,,,7,,,70,32
2600,note_on,21,0,11,,,,,,,,7,,,60,32
2600,note_on,21,0,2,,,,,,,,1,,,82,32
2619,note_on,19,0,11,,,,,,,,7,,,60,0
2619,note_on,19,0,9,,,,,,,,7,,,75,0
2619,note_on,19,0,10,,,,,,,,7,,,63,0
2619,note_on,19,0,8,,,,,,,,7,,,70,0
2619,note_on,19,0,12,,,,,,,,7,,,48,0
2619,note_on,19,0,2,,,,,,,,1,,,82,0
2640,note_on,21,0,11,,,,,,,,7,,,58,32
2640,note_on,21,0,10,,,,,,,,7,,,62,31
2640,note_on,21,0,2,,,,,,,,1,,,82,32
2640,note_on,21,0,8,,,,,,,,7,,,70,32
2640,note_on,21,0,12,,,,,,,,7,,,46,48
2640,note_on,21,0,9,,,,,,,,7,,,74,32
2659,note_on,19,0,11,,,,,,,,7,,,58,0
2659,note_on,19,0,10,,,,,,,,7,,,62,0
2659,note_on,19,0,12,,,,,,,,7,,,46,0
2659,note_on,19,0,9,,,,,,,,7,,,74,0
2659,note_on,19,0,8,,,,,,,,7,,,70,0
2659,note_on,19,0,2,,,,,,,,1,,,82,0
2680,note_on,21,0,12,,,,,,,,7,,,50,48
2680,note_on,21,0,11,,,,,,,,7,,,62,32
2680,note_on,21,0,10,,,,,,,,7,,,65,31
2680,note_on,21,0,2,,,,,,,,1,,,82,32
2680,note_on,21,0,9,,,,,,,,7,,,77,32
2680,note_on,21,0,8,,,,,,,,7,,,70,32
2699,note_on,19,0,2,,,,,,,,1,,,82,0
2699,note_on,19,0,9,,,,,,,,7,,,77,0
2699,note_on,19,0,11,,,,,,,,7,,,62,0
2699,note_on,19,0,12,,,,,,,,7,,,50,0
2699,note_on,19,0,10,,,,,,,,7,,,65,0
2699,note_on,19,0,8,,,,,,,,7,,,70,0
2720,note_on,21,0,11,,,,,,,,7,,,60,32
2720,note_on,21,0,9,,,,,,,,7,,,75,32
2720,note_on,21,0,12,,,,,,,,7,,,48,48
2720,note_on,21,0,2,,,,,,,,1,,,82,32
2720,note_on,21,0,10,,,,,,,,7,,,63,31
2720,note_on,21,0,8,,,,,,,,7,,,70,32
2739,note_on,19,0,12,,,,,,,,7,,,48,0
2739,note_on,19,0,11,,,,,,,,7,,,60,0
2739,note_on,19,0,2,,,,,,,,1,,,82,0
2739,note_on,19,0,8,,,,,,,,7,,,70,0
2739,note_on,19,0,9,,,,,,,,7,,,75,0
2739,note_on,19,0,10,,,,,,,,7,,,63,0
2760,note_on,21,0,11,,,,,,,,7,,,58,32
2760,note_on,21,0,8,,,,,,,,7,,,70,32
2760,note_on,21,0,12,,,,,,,,7,,,46,48
2760,note_on,21,0,9,,,,,,,,7,,,74,32
2760,note_on,21,0,2,,,,,,,,1,,,82,32
2760,note_on,21,0,10,,,,,,,,7,,,62,31
2779,note_on,19,0,11,,,,,,,,7,,,58,0
2779,note_on,19,0,9,,,,,,,,7,,,74,0
2779,note_on,19,0,12,,,,,,,,7,,,46,0
2779,note_on,19,0,10,,,,,,,,7,,,62,0
2800,note_on,21,0,9,,,,,,,,7,,,74,32
2800,note_on,40,0,8,,,,,,,,7,,,72,32
2800,note_on,40,0,2,,,,,,,,1,,,84,32
2800,note_on,21,0,11,,,,,,,,7,,,58,32
2800,note_on,21,0,10,,,,,,,,7,,,62,31
2800,note_on,21,0,12,,,,,,,,7,,,46,48
2802,note_on,2,0,2,,,,,,,,1,,,82,0
2802,note_on,2,0,8,,,,,,,,7,,,70,0
2819,note_on,19,0,10,,,,,,,,7,,,62,0
2819,note_on,19,0,9,,,,,,,,7,,,74,0
2819,note_on,19,0,12,,,,,,,,7,,,46,0
2819,note_on,19,0,11,,,,,,,,7,,,58,0
2820,note_on,18,0,8,,,,,,,,7,,,70,32
2820,note_on,18,0,2,,,,,,,,1,,,82,32
2822,note_on,2,0,2,,,,,,,,1,,,84,0
2822,note_on,2,0,8,,,,,,,,7,,,72,0
2840,note_on,21,0,10,,,,,,,,7,,,63,31
2840,note_on,18,0,8,,,,,,,,7,,,69,32
2840,note_on,21,0,12,,,,,,,,7,,,48,48
2840,note_on,18,0,2,,,,,,,,1,,,81,32
2840,note_on,21,0,11,,,,,,,,7,,,60,32
2840,note_on,21,0,9,,,,,,,,7,,,75,32
2842,note_on,2,0,8,,,,,,,,7,,,70,0
2842,note_on,2,0,2,,,,,,,,1,,,82,0
2859,note_on,19,0,10,,,,,,,,7,,,63,0
2859,note_on,19,0,9,,,,,,,,7,,,75,0
2859,note_on,19,0,12,,,,,,,,7,,,48,0
2859,note_on,19,0,11,,,,,,,,7,,,60,0
2860,note_on,18,0,8,,,,,,,,7,,,67,32
2860,note_on,18,0,2,,,,,,,,1,,,79,32
2862,note_on,2,0,2,,,,,,,,1,,,81,0
2862,note_on,2,0,8,,,,,,,,7,,,69,0
2879,note_on,17,0,8,,,,,,,,7,,,67,0
2879,note_on,17,0,2,,,,,,,,1,,,79,0
2880,note_on,21,0,11,,,,,,,,7,,,62,32
2880,note_on,1,0,2,,,,,,,,1,,,77,32
2880,note_on,21,0,10,,,,,,,,7,,,65,31
2880,note_on,21,0,12,,,,,,,,7,,,50,48
2880,note_on,21,0,9,,,,,,,,7,,,77,32
2899,note_on,19,0,9,,,,,,,,7,,,77,0
2899,note_on,19,0,10,,,,,,,,7,,,65,0
2899,note_on,19,0,11,,,,,,,,7,,,62,0
2899,note_on,19,0,12,,,,,,,,7,,,50,0
2900,note_on,21,0,8,,,,,,,,7,,,65,32
2920,note_on,21,0,9,,,,,,,,7,,,72,32
2920,note_on,21,0,10,,,,,,,,7,,,60,31
2920,note_on,21,0,11,,,,,,,,7,,,57,32
2920,note_on,21,0,12,,,,,,,,7,,,45,48
2939,note_on,19,0,9,,,,,,,,7,,,72,0
2939,note_on,19,0,11,,,,,,,,7,,,57,0
2939,note_on,19,0,12,,,,,,,,7,,,45,0
2939,note_on,19,0,10,,,,,,,,7,,,60,0
2960,note_on,21,0,12,,,,,,,,7,,,47,48
2960,note_on,21,0,10,,,,,,,,7,,,62,31
2960,note_on,21,0,9,,,,,,,,7,,,74,32
2960,note_on,21,0,11,,,,,,,,7,,,59,32
2979,note_on,19,0,11,,,,,,,,7,,,59,0
2979,note_on,19,0,9,,,,,,,,7,,,74,0
2979,note_on,19,0,12,,,,,,,,7,,,47,0
2979,note_on,19,0,10,,,,,,,,7,,,62,0
2999,note_on,119,0,2,,,,,,,,1,,,77,0
2999,note_on,99,0,8,,,,,,,,7,,,65,0
3000,note_on,3000,0,1,,,,,,,,0,,,87,48
3000,note_on,21,0,12,,,,,,,,7,,,48,48
3000,note_on,21,0,10,,,,,,,,7,,,63,31
3000,note_on,3000,0,4,,,,,,,,3,,,63,48
3000,note_on,21,0,9,,,,,,,,7,,,75,32
3000,note_on,21,0,11,,,,,,,,7,,,60,32
3000,note_on,1,0,2,,,,,,,,1,,,75,32
3019,note_on,19,0,10,,,,,,,,7,,,63,0
3019,note_on,19,0,12,,,,,,,,7,,,48,0
3019,note_on,19,0,9,,,,,,,,7,,,75,0
3019,note_on,19,0,11,,,,,,,,7,,,60,0
3020,note_on,21,0,8,,,,,,,,7,,,63,32
3040,note_on,21,0,11,,,,,,,,7,,,55,32
3040,note_on,21,0,10,,,,,,,,7,,,58,31
3040,note_on,21,0,12,,,,,,,,7,,,43,48
3040,note_on,21,0,9,,,,,,,,7,,,70,32
3059,note_on,19,0,12,,,,,,,,7,,,43,0
3059,note_on,19,0,10,,,,,,,,7,,,58,0
3059,note_on,19,0,9,,,,,,,,7,,,70,0
3059,note_on,19,0,11,,,,,,,,7,,,55,0
3080,note_on,21,0,12,,,,,,,,7,,,45,48
3080,note_on,21,0,9,,,,,,,,7,,,72,32
3080,note_on,21,0,11,,,,,,,,7,,,57,32
3080,note_on,21,0,10,,,,,,,,7,,,60,31
3099,note_on,19,0,10,,,,,,,,7,,,60,0
3099,note_on,19,0,12,,,,,,,,7,,,45,0
3099,note_on,19,0,11,,,,,,,,7,,,57,0
3099,note_on,19,0,9,,,,,,,,7,,,72,0
3119,note_on,119,0,2,,,,,,,,1,,,75,0
3119,note_on,119,0,1,,,,,,,,0,,,87,0
3119,note_on,119,0,4,,,,,,,,3,,,63,0
3119,note_on,99,0,8,,,,,,,,7,,,63,0
3120,note_on,1,0,2,,,,,,,,1,,,74,32
3120,note_on,21,0,11,,,,,,,,7,,,58,32
3120,note_on,1,0,4,,,,,,,,3,,,62,48
3120,note_on,1,0,8,,,,,,,,7,,,62,32
3120,note_on,21,0,9,,,,,,,,7,,,74,32
3120,note_on,21,0,10,,,,,,,,7,,,62,31
3120,note_on,21,0,12,,,,,,,,7,,,46,48
3120,note_on,1,0,1,,,,,,,,0,,,86,48
3139,note_on,19,0,9,,,,,,,,7,,,74,0
3139,note_on,19,0,10,,,,,,,,7,,,62,0
3139,note_on,19,0,12,,,,,,,,7,,,46,0
3139,note_on,19,0,11,,,,,,,,7,,,58,0
3160,note_on,21,0,10,,,,,,,,7,,,57,31
3160,note_on,40,0,8,,,,,,,,7,,,65,32
3160,note_on,21,0,12,,,,,,,,7,,,41,48
3160,note_on,21,0,11,,,,,,,,7,,,53,32
3160,note_on,40,0,4,,,,,,,,3,,,65,48
3160,note_on,21,0,9,,,,,,,,7,,,69,32
3160,note_on,40,0,1,,,,,,,,0,,,89,48
3160,note_on,40,0,2,,,,,,,,1,,,77,32
3162,note_on,2,0,8,,,,,,,,7,,,62,0
3162,note_on,2,0,1,,,,,,,,0,,,86,0
3162,note_on,2,0,2,,,,,,,,1,,,74,0
3162,note_on,2,0,4,,,,,,,,3,,,62,0
3179,note_on,19,0,11,,,,,,,,7,,,53,0
3179,note_on,19,0,12,,,,,,,,7,,,41,0
3179,note_on,19,0,10,,,,,,,,7,,,57,0
3179,note_on,19,0,9,,,,,,,,7,,,69,0
3199,note_on,37,0,2,,,,,,,,1,,,77,0
3199,note_on,37,0,1,,,,,,,,0,,,89,0
3199,note_on,37,0,8,,,,,,,,7,,,65,0
3199,note_on,37,0,4,,,,,,,,3,,,65,0
3200,note_on,21,0,12,,,,,,,,7,,,43,48
3200,note_on,1,0,1,,,,,,,,0,,,86,48
3200,note_on,21,0,9,,,,,,,,7,,,70,32
3200,note_on,21,0,10,,,,,,,,7,,,58,31
3200,note_on,21,0,11,,,,,,,,7,,,55,32
3200,note_on,1,0,2,,,,,,,,1,,,74,32
3200,note_on,1,0,8,,,,,,,,7,,,62,32
3200,note_on,1,0,4,,,,,,,,3,,,62,48
3219,note_on,19,0,9,,,,,,,,7,,,70,0
3219,note_on,19,0,8,,,,,,,,7,,,62,0
3219,note_on,19,0,1,,,,,,,,0,,,86,0
3219,note_on,19,0,2,,,,,,,,1,,,74,0
3219,note_on,19,0,12,,,,,,,,7,,,43,0
3219,note_on,19,0,11,,,,,,,,7,,,55,0
3219,note_on,19,0,10,,,,,,,,7,,,58,0
3219,note_on,19,0,4,,,,,,,,3,,,62,0
3240,note_on,21,0,8,,,,,,,,7,,,60,32
3240,note_on,21,0,9,,,,,,,,7,,,67,32
3240,note_on,21,0,4,,,,,,,,3,,,60,48
3240,note_on,21,0,1,,,,,,,,0,,,84,48
3240,note_on,21,0,2,,,,,,,,1,,,72,32
3240,note_on,21,0,12,,,,,,,,7,,,39,48
3240,note_on,21,0,10,,,,,,,,7,,,55,31
3240,note_on,21,0,11,,,,,,,,7,,,51,32
3259,note_on,19,0,10,,,,,,,,7,,,55,0
3259,note_on,19,0,11,,,,,,,,7,,,51,0
3259,note_on,19,0,12,,,,,,,,7,,,39,0
3259,note_on,19,0,9,,,,,,,,7,,,67,0
3280,note_on,21,0,12,,,,,,,,7,,,36,48
3280,note_on,40,0,4,,,,,,,,3,,,63,48
3280,note_on,40,0,8,,,,,,,,7,,,63,32
3280,note_on,40,0,2,,,,,,,,1,,,75,32
3280,note_on,21,0,11,,,,,,,,7,,,48,32
3280,note_on,21,0,9,,,,,,,,7,,,67,32
3280,note_on,40,0,1,,,,,,,,0,,,87,48
3280,note_on,21,0,10,,,,,,,,7,,,55,31
3282,note_on,2,0,2,,,,,,,,1,,,72,0
3282,note_on,2,0,1,,,,,,,,0,,,84,0
3282,note_on,2,0,4,,,,,,,,3,,,60,0
3282,note_on,2,0,8,,,,,,,,7,,,60,0
3299,note_on,19,0,11,,,,,,,,7,,,48,0
3299,note_on,19,0,9,,,,,,,,7,,,67,0
3299,note_on,19,0,10,,,,,,,,7,,,55,0
3299,note_on,19,0,12,,,,,,,,7,,,36,0
3319,note_on,37,0,4,,,,,,,,3,,,63,0
3319,note_on,37,0,1,,,,,,,,0,,,87,0
3319,note_on,37,0,8,,,,,,,,7,,,63,0
3319,note_on,37,0,2,,,,,,,,1,,,75,0
3320,note_on,1,0,2,,,,,,,,1,,,72,32
3320,note_on,21,0,12,,,,,,,,7,,,41,48
3320,note_on,21,0,10,,,,,,,,7,,,57,31
3320,note_on,1,0,4,,,,,,,,3,,,60,48
3320,note_on,1,0,1,,,,,,,,0,,,84,48
3320,note_on,1,0,8,,,,,,,,7,,,60,32
3320,note_on,21,0,11,,,,,,,,7,,,53,32
3320,note_on,21,0,9,,,,,,,,7,,,63,32
3339,note_on,19,0,10,,,,,,,,7,,,57,0
3339,note_on,19,0,11,,,,,,,,7,,,53,0
3339,note_on,19,0,8,,,,,,,,7,,,60,0
3339,note_on,19,0,12,,,,,,,,7,,,41,0
3339,note_on,19,0,1,,,,,,,,0,,,84,0
3339,note_on,19,0,2,,,,,,,,1,,,72,0
3339,note_on,19,0,4,,,,,,,,3,,,60,0
3339,note_on,19,0,9,,,,,,,,7,,,63,0
3360,note_on,21,0,8,,,,,,,,7,,,58,32
3360,note_on,21,0,11,,,,,,,,7,,,46,32
3360,note_on,21,0,1,,,,,,,,0,,,82,48
3360,note_on,21,0,10,,,,,,,,7,,,58,31
3360,note_on,21,0,12,,,,,,,,7,,,34,48
3360,note_on,21,0,4,,,,,,,,3,,,58,48
3360,note_on,21,0,2,,,,,,,,1,,,70,32
3360,note_on,21,0,9,,,,,,,,7,,,62,32
3379,note_on,19,0,1,,,,,,,,0,,,82,0
3379,note_on,19,0,2,,,,,,,,1,,,70,0
3379,note_on,19,0,10,,,,,,,,7,,,58,0
3379,note_on,19,0,12,,,,,,,,7,,,34,0
3379,note_on,19,0,8,,,,,,,,7,,,58,0
3379,note_on,19,0,9,,,,,,,,7,,,62,0
3379,note_on,19,0,11,,,,,,,,7,,,46,0
3379,note_on,19,0,4,,,,,,,,3,,,58,0
3400,note_on,21,0,12,,,,,,,,7,,,34,48
3400,note_on,21,0,11,,,,,,,,7,,,46,32
3419,note_on,19,0,12,,,,,,,,7,,,34,0
3419,note_on,19,0,11,,,,,,,,7,,,46,0
3440,note_on,61,0,8,,,,,,,,7,,,58,32
3440,note_on,21,0,11,,,,,,,,7,,,46,32
3440,note_on,21,0,12,,,,,,,,7,,,34,48
3459,note_on,19,0,12,,,,,,,,7,,,34,0
3459,note_on,19,0,8,,,,,,,,7,,,58,0
3459,note_on,19,0,11,,,,,,,,7,,,46,0
3480,note_on,21,0,11,,,,,,,,7,,,46,32
3480,note_on,21,0,12,,,,,,,,7,,,34,48
3480,note_on,21,0,8,,,,,,,,7,,,58,32
3499,note_on,19,0,12,,,,,,,,7,,,34,0
3499,note_on,19,0,11,,,,,,,,7,,,46,0
3499,note_on,19,0,8,,,,,,,,7,,,58,0
3520,note_on,21,0,12,,,,,,,,7,,,35,48
3520,note_on,21,0,11,,,,,,,,7,,,47,32
3520,note_on,21,0,8,,,,,,,,7,,,59,32
3520,note_on,141,0,9,,,,,,,,7,,,68,32
3539,note_on,19,0,8,,,,,,,,7,,,59,0
3539,note_on,19,0,9,,,,,,,,7,,,68,0
3539,note_on,19,0,12,,,,,,,,7,,,35,0
3539,note_on,19,0,11,,,,,,,,7,,,47,0
3560,note_on,21,0,8,,,,,,,,7,,,58,32
3560,note_on,21,0,9,,,,,,,,7,,,63,32
3560,note_on,21,0,12,,,,,,,,7,,,34,48
3560,note_on,21,0,11,,,,,,,,7,,,46,32
3579,note_on,19,0,8,,,,,,,,7,,,58,0
3579,note_on,19,0,9,,,,,,,,7,,,63,0
3579,note_on,19,0,11,,,,,,,,7,,,46,0
3579,note_on,19,0,12,,,,,,,,7,,,34,0
3600,note_on,21,0,12,,,,,,,,7,,,35,48
3600,note_on,21,0,9,,,,,,,,7,,,68,32
3600,note_on,21,0,11,,,,,,,,7,,,47,32
3600,note_on,21,0,8,,,,,,,,7,,,59,32
3619,note_on,19,0,12,,,,,,,,7,,,35,0
3619,note_on,19,0,8,,,,,,,,7,,,59,0
3619,note_on,19,0,11,,,,,,,,7,,,47,0
3619,note_on,19,0,9,,,,,,,,7,,,68,0
3640,note_on,21,0,8,,,,,,,,7,,,58,32
3640,note_on,21,0,12,,,,,,,,7,,,34,48
3640,note_on,21,0,9,,,,,,,,7,,,63,32
3640,note_on,21,0,11,,,,,,,,7,,,46,32
3659,note_on,19,0,8,,,,,,,,7,,,58,0
3659,note_on,19,0,11,,,,,,,,7,,,46,0
3659,note_on,19,0,9,,,,,,,,7,,,63,0
3659,note_on,19,0,12,,,,,,,,7,,,34,0
3680,note_on,21,0,12,,,,,,,,7,,,35,48
3680,note_on,21,0,9,,,,,,,,7,,,68,32
3680,note_on,21,0,11,,,,,,,,7,,,47,32
3680,note_on,21,0,8,,,,,,,,7,,,59,32
3699,note_on,19,0,12,,,,,,,,7,,,35,0
3699,note_on,19,0,11,,,,,,,,7,,,47,0
3699,note_on,19,0,8,,,,,,,,7,,,59,0
3699,note_on,19,0,9,,,,,,,,7,,,68,0
3720,note_on,21,0,12,,,,,,,,7,,,34,48
3720,note_on,21,0,8,,,,,,,,7,,,58,32
3720,note_on,21,0,11,,,,,,,,7,,,46,32
3720,note_on,21,0,9,,,,,,,,7,,,63,32
3739,note_on,19,0,9,,,,,,,,7,,,63,0
3739,note_on,19,0,12,,,,,,,,7,,,34,0
3739,note_on,19,0,11,,,,,,,,7,,,46,0
3739,note_on,19,0,8,,,,,,,,7,,,58,0
3760,note_on,21,0,11,,,,,,,,7,,,47,32
3760,note_on,21,0,8,,,,,,,,7,,,59,32
3760,note_on,21,0,9,,,,,,,,7,,,68,32
3760,note_on,21,0,12,,,,,,,,7,,,35,48
3779,note_on,19,0,11,,,,,,,,7,,,47,0
3779,note_on,19,0,12,,,,,,,,7,,,35,0
3779,note_on,19,0,8,,,,,,,,7,,,59,0
3779,note_on,19,0,9,,,,,,,,7,,,68,0
3800,note_on,21,0,11,,,,,,,,7,,,46,32
3800,note_on,21,0,12,,,,,,,,7,,,34,48
3800,note_on,21,0,8,,,,,,,,7,,,58,32
3800,note_on,21,0,9,,,,,,,,7,,,63,32
3819,note_on,19,0,12,,,,,,,,7,,,34,0
3819,note_on,19,0,8,,,,,,,,7,,,58,0
3819,note_on,19,0,9,,,,,,,,7,,,63,0
3819,note_on,19,0,11,,,,,,,,7,,,46,0
3840,note_on,21,0,8,,,,,,,,7,,,59,32
3840,note_on,21,0,12,,,,,,,,7,,,35,48
3840,note_on,21,0,9,,,,,,,,7,,,68,32
3840,note_on,21,0,11,,,,,,,,7,,,47,32
3859,note_on,19,0,11,,,,,,,,7,,,47,0
3859,note_on,19,0,12,,,,,,,,7,,,35,0
3859,note_on,19,0,9,,,,,,,,7,,,68,0
3859,note_on,19,0,8,,,,,,,,7,,,59,0
3880,note_on,21,0,8,,,,,,,,7,,,59,32
3880,note_on,21,0,11,,,,,,,,7,,,47,32
3880,note_on,21,0,12,,,,,,,,7,,,35,48
3880,note_on,21,0,9,,,,,,,,7,,,68,32
3899,note_on,19,0,11,,,,,,,,7,,,47,0
3899,note_on,19,0,9,,,,,,,,7,,,68,0
3899,note_on,19,0,12,,,,,,,,7,,,35,0
3899,note_on,19,0,8,,,,,,,,7,,,59,0
3920,note_on,21,0,8,,,,,,,,7,,,60,32
3920,note_on,541,0,10,,,,,,,,7,,,63,33
3920,note_on,21,0,11,,,,,,,,7,,,48,32
3920,note_on,21,0,9,,,,,,,,7,,,68,32
3920,note_on,21,0,12,,,,,,,,7,,,36,48
3939,note_on,19,0,11,,,,,,,,7,,,48,0
3939,note_on,19,0,8,,,,,,,,7,,,60,0
3939,note_on,19,0,12,,,,,,,,7,,,36,0
3939,note_on,19,0,10,,,,,,,,7,,,63,0
3939,note_on,19,0,9,,,,,,,,7,,,68,0
3960,note_on,21,0,10,,,,,,,,7,,,63,33
3960,note_on,21,0,8,,,,,,,,7,,,60,32
3960,note_on,21,0,12,,,,,,,,7,,,36,48
3960,note_on,21,0,11,,,,,,,,7,,,48,32
3960,note_on,21,0,9,,,,,,,,7,,,68,32
3979,note_on,19,0,8,,,,,,,,7,,,60,0
3979,note_on,19,0,12,,,,,,,,7,,,36,0
3979,note_on,19,0,10,,,,,,,,7,,,63,0
3979,note_on,19,0,9,,,,,,,,7,,,68,0
3979,note_on,19,0,11,,,,,,,,7,,,48,0
4000,note_on,21,0,11,,,,,,,,7,,,49,32
4000,note_on,21,0,10,,,,,,,,7,,,68,33
4000,note_on,21,0,9,,,,,,,,7,,,65,32
4000,note_on,21,0,8,,,,,,,,7,,,61,32
4000,note_on,21,0,12,,,,,,,,7,,,37,48
4019,note_on,19,0,9,,,,,,,,7,,,65,0
4019,note_on,19,0,8,,,,,,,,7,,,61,0
4019,note_on,19,0,12,,,,,,,,7,,,37,0
4019,note_on,19,0,10,,,,,,,,7,,,68,0
4019,note_on,19,0,11,,,,,,,,7,,,49,0
4040,note_on,21,0,8,,,,,,,,7,,,60,32
4040,note_on,21,0,9,,,,,,,,7,,,68,32
4040,note_on,21,0,10,,,,,,,,7,,,63,33
4040,note_on,21,0,11,,,,,,,,7,,,48,32
4040,note_on,21,0,12,,,,,,,,7,,,36,48
4059,note_on,19,0,12,,,,,,,,7,,,36,0
4059,note_on,19,0,8,,,,,,,,7,,,60,0
4059,note_on,19,0,10,,,,,,,,7,,,63,0
4059,note_on,19,0,9,,,,,,,,7,,,68,0
4059,note_on,19,0,11,,,,,,,,7,,,48,0
4080,note_on,21,0,11,,,,,,,,7,,,49,32
4080,note_on,21,0,12,,,,,,,,7,,,37,48
4080,note_on,21,0,8,,,,,,,,7,,,61,32
4080,note_on,21,0,10,,,,,,,,7,,,68,33
4080,note_on,21,0,9,,,,,,,,7,,,65,32
4099,note_on,19,0,12,,,,,,,,7,,,37,0
4099,note_on,19,0,10,,,,,,,,7,,,68,0
4099,note_on,19,0,9,,,,,,,,7,,,65,0
4099,note_on,19,0,11,,,,,,,,7,,,49,0
4099,note_on,19,0,8,,,,,,,,7,,,61,0
4120,note_on,21,0,11,,,,,,,,7,,,48,32
4120,note_on,21,0,8,,,,,,,,7,,,60,32
4120,note_on,21,0,12,,,,,,,,7,,,36,48
4120,note_on,21,0,10,,,,,,,,7,,,63,33
4120,note_on,21,0,9,,,,,,,,7,,,68,32
4139,note_on,19,0,10,,,,,,,,7,,,63,0
4139,note_on,19,0,12,,,,,,,,7,,,36,0
4139,note_on,19,0,8,,,,,,,,7,,,60,0
4139,note_on,19,0,9,,,,,,,,7,,,68,0
4139,note_on,19,0,11,,,,,,,,7,,,48,0
4160,note_on,21,0,11,,,,,,,,7,,,49,32
4160,note_on,21,0,12,,,,,,,,7,,,37,48
4160,note_on,21,0,10,,,,,,,,7,,,68,33
4160,note_on,21,0,8,,,,,,,,7,,,61,32
4160,note_on,21,0,9,,,,,,,,7,,,65,32
4179,note_on,19,0,10,,,,,,,,7,,,68,0
4179,note_on,19,0,12,,,,,,,,7,,,37,0
4179,note_on,19,0,11,,,,,,,,7,,,49,0
4179,note_on,19,0,8,,,,,,,,7,,,61,0
4179,note_on,19,0,9,,,,,,,,7,,,65,0
4200,note_on,21,0,8,,,,,,,,7,,,60,32
4200,note_on,21,0,9,,,,,,,,7,,,68,32
4200,note_on,21,0,10,,,,,,,,7,,,63,33
4200,note_on,21,0,11,,,,,,,,7,,,48,32
4200,note_on,21,0,12,,,,,,,,7,,,36,48
4219,note_on,19,0,10,,,,,,,,7,,,63,0
4219,note_on,19,0,8,,,,,,,,7,,,60,0
4219,note_on,19,0,11,,,,,,,,7,,,48,0
4219,note_on,19,0,9,,,,,,,,7,,,68,0
4219,note_on,19,0,12,,,,,,,,7,,,36,0
4240,note_on,21,0,8,,,,,,,,7,,,61,32
4240,note_on,21,0,10,,,,,,,,7,,,68,33
4240,note_on,21,0,11,,,,,,,,7,,,49,32
4240,note_on,21,0,9,,,,,,,,7,,,65,32
4240,note_on,21,0,12,,,,,,,,7,,,37,48
4259,note_on,19,0,11,,,,,,,,7,,,49,0
4259,note_on,19,0,12,,,,,,,,7,,,37,0
4259,note_on,19,0,9,,,,,,,,7,,,65,0
4259,note_on,19,0,10,,,,,,,,7,,,68,0
4259,note_on,19,0,8,,,,,,,,7,,,61,0
4280,note_on,21,0,11,,,,,,,,7,,,48,32
4280,note_on,21,0,10,,,,,,,,7,,,63,33
4280,note_on,21,0,12,,,,,,,,7,,,36,48
4280,note_on,21,0,9,,,,,,,,7,,,68,32
4280,note_on,21,0,8,,,,,,,,7,,,60,32
4299,note_on,19,0,10,,,,,,,,7,,,63,0
4299,note_on,19,0,9,,,,,,,,7,,,68,0
4299,note_on,19,0,12,,,,,,,,7,,,36,0
4299,note_on,19,0,11,,,,,,,,7,,,48,0
4299,note_on,19,0,8,,,,,,,,7,,,60,0
4320,note_on,21,0,8,,,,,,,,7,,,61,32
4320,note_on,21,0,12,,,,,,,,7,,,37,48
4320,note_on,21,0,9,,,,,,,,7,,,65,32
4320,note_on,21,0,10,,,,,,,,7,,,68,33
4320,note_on,21,0,11,,,,,,,,7,,,49,32
4339,note_on,19,0,8,,,,,,,,7,,,61,0
4339,note_on,19,0,12,,,,,,,,7,,,37,0
4339,note_on,19,0,9,,,,,,,,7,,,65,0
4339,note_on,19,0,10,,,,,,,,7,,,68,0
4339,note_on,19,0,11,,,,,,,,7,,,49,0
4360,note_on,21,0,12,,,,,,,,7,,,37,48
4360,note_on,21,0,9,,,,,,,,7,,,68,32
4360,note_on,21,0,10,,,,,,,,7,,,65,33
4360,note_on,21,0,11,,,,,,,,7,,,49,32
4360,note_on,21,0,8,,,,,,,,7,,,61,32
4379,note_on,19,0,11,,,,,,,,7,,,49,0
4379,note_on,19,0,9,,,,,,,,7,,,68,0
4379,note_on,19,0,10,,,,,,,,7,,,65,0
4379,note_on,19,0,8,,,,,,,,7,,,61,0
4379,note_on,19,0,12,,,,,,,,7,,,37,0
4400,note_on,21,0,10,,,,,,,,7,,,66,33
4400,note_on,21,0,11,,,,,,,,7,,,48,32
4400,note_on,21,0,12,,,,,,,,7,,,36,48
4400,note_on,21,0,9,,,,,,,,7,,,68,32
4400,note_on,21,0,8,,,,,,,,7,,,60,32
4419,note_on,19,0,12,,,,,,,,7,,,36,0
4419,note_on,19,0,10,,,,,,,,7,,,66,0
4419,note_on,19,0,11,,,,,,,,7,,,48,0
4419,note_on,19,0,8,,,,,,,,7,,,60,0
4419,note_on,19,0,9,,,,,,,,7,,,68,0
4440,note_on,21,0,9,,,,,,,,7,,,68,32
4440,note_on,21,0,11,,,,,,,,7,,,48,32
4440,note_on,21,0,8,,,,,,,,7,,,60,32
4440,note_on,21,0,12,,,,,,,,7,,,36,48
4440,note_on,21,0,10,,,,,,,,7,,,66,33
4459,note_on,19,0,9,,,,,,,,7,,,68,0
4459,note_on,19,0,11,,,,,,,,7,,,48,0
4459,note_on,19,0,8,,,,,,,,7,,,60,0
4459,note_on,19,0,10,,,,,,,,7,,,66,0
4459,note_on,19,0,12,,,,,,,,7,,,36,0
4480,note_on,21,0,10,,,,,,,,7,,,65,33
4480,note_on,21,0,8,,,,,,,,7,,,61,32
4480,note_on,21,0,11,,,,,,,,7,,,49,32
4480,note_on,21,0,9,,,,,,,,7,,,68,32
4480,note_on,21,0,12,,,,,,,,7,,,37,48
4499,note_on,19,0,8,,,,,,,,7,,,61,0
4499,note_on,19,0,10,,,,,,,,7,,,65,0
4499,note_on,19,0,12,,,,,,,,7,,,37,0
4499,note_on,19,0,11,,,,,,,,7,,,49,0
4499,note_on,19,0,9,,,,,,,,7,,,68,0
4520,note_on,21,0,10,,,,,,,,7,,,68,33
4520,note_on,21,0,9,,,,,,,,7,,,70,32
4520,note_on,21,0,12,,,,,,,,7,,,37,48
4520,note_on,21,0,8,,,,,,,,7,,,61,32
4520,note_on,21,0,11,,,,,,,,7,,,49,32
4539,note_on,19,0,11,,,,,,,,7,,,49,0
4539,note_on,19,0,10,,,,,,,,7,,,68,0
4539,note_on,19,0,12,,,,,,,,7,,,37,0
4539,note_on,19,0,8,,,,,,,,7,,,61,0
4539,note_on,19,0,9,,,,,,,,7,,,70,0
4560,note_on,21,0,9,,,,,,,,7,,,70,32
4560,note_on,21,0,11,,,,,,,,7,,,49,32
4560,note_on,21,0,10,,,,,,,,7,,,68,33
4560,note_on,0,0,10,,,,,,,,7,,,68,33
4560,note_on,21,0,8,,,,,,,,7,,,61,32
4560,note_on,21,0,12,,,,,,,,7,,,37,48
4579,note_on,19,0,9,,,,,,,,7,,,70,0
4579,note_on,19,0,12,,,,,,,,7,,,37,0
4579,note_on,19,0,8,,,,,,,,7,,,61,0
4579,note_on,19,0,11,,,,,,,,7,,,49,0
4579,note_on,19,0,10,,,,,,,,7,,,68,0
4579,note_on,0,0,10,,,,,,,,7,,,68,0
4600,note_on,21,0,11,,,,,,,,7,,,50,32
4600,note_on,21,0,12,,,,,,,,7,,,38,48
4600,note_on,21,0,10,,,,,,,,7,,,65,33
4600,note_on,21,0,9,,,,,,,,7,,,70,32
4600,note_on,21,0,8,,,,,,,,7,,,62,32
4619,note_on,19,0,10,,,,,,,,7,,,65,0
4619,note_on,19,0,8,,,,,,,,7,,,62,0
4619,note_on,19,0,9,,,,,,,,7,,,70,0
4619,note_on,19,0,11,,,,,,,,7,,,50,0
4619,note_on,19,0,12,,,,,,,,7,,,38,0
4640,note_on,21,0,9,,,,,,,,7,,,70,32
4640,note_on,21,0,8,,,,,,,,7,,,62,32
4640,note_on,21,0,12,,,,,,,,7,,,38,48
4640,note_on,21,0,11,,,,,,,,7,,,50,32
4640,note_on,21,0,10,,,,,,,,7,,,68,33
4659,note_on,19,0,8,,,,,,,,7,,,62,0
4659,note_on,19,0,11,,,,,,,,7,,,50,0
4659,note_on,19,0,12,,,,,,,,7,,,38,0
4659,note_on,19,0,9,,,,,,,,7,,,70,0
4659,note_on,19,0,10,,,,,,,,7,,,68,0
4680,note_on,21,0,11,,,,,,,,7,,,50,32
4680,note_on,21,0,10,,,,,,,,7,,,68,33
4680,note_on,21,0,8,,,,,,,,7,,,62,32
4680,note_on,21,0,9,,,,,,,,7,,,70,32
4680,note_on,21,0,12,,,,,,,,7,,,38,48
4699,note_on,19,0,12,,,,,,,,7,,,38,0
4699,note_on,19,0,11,,,,,,,,7,,,50,0
4699,note_on,19,0,9,,,,,,,,7,,,70,0
4699,note_on,19,0,10,,,,,,,,7,,,68,0
4699,note_on,19,0,8,,,,,,,,7,,,62,0
4720,note_on,21,0,9,,,,,,,,7,,,70,32
4720,note_on,21,0,11,,,,,,,,7,,,51,32
4720,note_on,21,0,10,,,,,,,,7,,,67,33
4720,note_on,21,0,8,,,,,,,,7,,,63,32
4720,note_on,21,0,12,,,,,,,,7,,,39,48
4739,note_on,19,0,12,,,,,,,,7,,,39,0
4739,note_on,19,0,8,,,,,,,,7,,,63,0
4739,note_on,19,0,9,,,,,,,,7,,,70,0
4739,note_on,19,0,11,,,,,,,,7,,,51,0
4739,note_on,19,0,10,,,,,,,,7,,,67,0
4760,note_on,21,0,11,,,,,,,,7,,,51,32
4760,note_on,21,0,9,,,,,,,,7,,,72,32
4760,note_on,21,0,12,,,,,,,,7,,,39,48
4760,note_on,21,0,10,,,,,,,,7,,,70,33
4760,note_on,21,0,8,,,,,,,,7,,,63,32
4779,note_on,19,0,10,,,,,,,,7,,,70,0
4779,note_on,19,0,9,,,,,,,,7,,,72,0
4779,note_on,19,0,11,,,,,,,,7,,,51,0
4779,note_on,19,0,12,,,,,,,,7,,,39,0
4779,note_on,19,0,8,,,,,,,,7,,,63,0
4800,note_on,21,0,11,,,,,,,,7,,,51,32
4800,note_on,21,0,12,,,,,,,,7,,,39,48
4800,note_on,21,0,9,,,,,,,,7,,,72,32
4800,note_on,21,0,10,,,,,,,,7,,,70,33
4800,note_on,21,0,8,,,,,,,,7,,,63,32
4819,note_on,19,0,8,,,,,,,,7,,,63,0
4819,note_on,19,0,10,,,,,,,,7,,,70,0
4819,note_on,19,0,12,,,,,,,,7,,,39,0
4819,note_on,19,0,9,,,,,,,,7,,,72,0
4819,note_on,19,0,11,,,,,,,,7,,,51,0
4840,note_on,21,0,10,,,,,,,,7,,,67,33
4840,note_on,21,0,8,,,,,,,,7,,,64,32
4840,note_on,21,0,12,,,,,,,,7,,,40,48
4840,note_on,21,0,9,,,,,,,,7,,,72,32
4840,note_on,21,0,11,,,,,,,,7,,,52,32
4859,note_on,19,0,9,,,,,,,,7,,,72,0
4859,note_on,19,0,11,,,,,,,,7,,,52,0
4859,note_on,19,0,8,,,,,,,,7,,,64,0
4859,note_on,19,0,12,,,,,,,,7,,,40,0
4859,note_on,19,0,10,,,,,,,,7,,,67,0
4880,note_on,21,0,9,,,,,,,,7,,,72,32
4880,note_on,21,0,12,,,,,,,,7,,,40,48
4880,note_on,21,0,11,,,,,,,,7,,,52,32
4880,note_on,21,0,8,,,,,,,,7,,,64,32
4880,note_on,1501,0,1,,,,,,,,0,,,84,48
4880,note_on,21,0,10,,,,,,,,7,,,70,33
4899,note_on,19,0,1,,,,,,,,0,,,84,0
4899,note_on,19,0,12,,,,,,,,7,,,40,0
4899,note_on,19,0,11,,,,,,,,7,,,52,0
4899,note_on,19,0,10,,,,,,,,7,,,70,0
4899,note_on,19,0,9,,,,,,,,7,,,72,0
4899,note_on,19,0,8,,,,,,,,7,,,64,0
4920,note_on,21,0,10,,,,,,,,7,,,69,33
4920,note_on,21,0,8,,,,,,,,7,,,65,32
4920,note_on,21,0,1,,,,,,,,0,,,89,48
4920,note_on,21,0,11,,,,,,,,7,,,53,32
4920,note_on,21,0,9,,,,,,,,7,,,72,32
4920,note_on,21,0,12,,,,,,,,7,,,41,48
4939,note_on,19,0,8,,,,,,,,7,,,65,0
4939,note_on,19,0,10,,,,,,,,7,,,69,0
4939,note_on,19,0,11,,,,,,,,7,,,53,0
4939,note_on,19,0,1,,,,,,,,0,,,89,0
4939,note_on,19,0,9,,,,,,,,7,,,72,0
4939,note_on,19,0,12,,,,,,,,7,,,41,0
4960,note_on,21,0,1,,,,,,,,0,,,89,48
4960,note_on,21,0,10,,,,,,,,7,,,57,33
4960,note_on,21,0,8,,,,,,,,7,,,77,32
4960,note_on,21,0,9,,,,,,,,7,,,72,32
4979,note_on,19,0,9,,,,,,,,7,,,72,0
4979,note_on,19,0,10,,,,,,,,7,,,57,0
4979,note_on,19,0,8,,,,,,,,7,,,77,0
4979,note_on,19,0,1,,,,,,,,0,,,89,0
5000,note_on,21,0,8,,,,,,,,7,,,77,32
5000,note_on,21,0,9,,,,,,,,7,,,70,32
5000,note_on,21,0,10,,,,,,,,7,,,55,33
5000,note_on,21,0,1,,,,,,,,0,,,89,48
5019,note_on,19,0,9,,,,,,,,7,,,70,0
5019,note_on,19,0,8,,,,,,,,7,,,77,0
5019,note_on,19,0,10,,,,,,,,7,,,55,0
5019,note_on,19,0,1,,,,,,,,0,,,89,0
5040,note_on,21,0,1,,,,,,,,0,,,89,48
5040,note_on,21,0,10,,,,,,,,7,,,53,33
5040,note_on,101,0,12,,,,,,,,7,,,41,48
5040,note_on,21,0,8,,,,,,,,7,,,77,32
5040,note_on,21,0,9,,,,,,,,7,,,69,32
5040,note_on,101,0,11,,,,,,,,7,,,53,32
5059,note_on,19,0,11,,,,,,,,7,,,53,0
5059,note_on,19,0,8,,,,,,,,7,,,77,0
5059,note_on,19,0,12,,,,,,,,7,,,41,0
5059,note_on,19,0,1,,,,,,,,0,,,89,0
5059,note_on,19,0,9,,,,,,,,7,,,69,0
5059,note_on,19,0,10,,,,,,,,7,,,53,0
5080,note_on,21,0,1,,,,,,,,0,,,89,48
5080,note_on,21,0,9,,,,,,,,7,,,72,32
5080,note_on,21,0,10,,,,,,,,7,,,57,33
5080,note_on,21,0,8,,,,,,,,7,,,77,32
5099,note_on,19,0,9,,,,,,,,7,,,72,0
5099,note_on,19,0,1,,,,,,,,0,,,89,0
5099,note_on,19,0,8,,,,,,,,7,,,77,0
5099,note_on,19,0,10,,,,,,,,7,,,57,0
5120,note_on,21,0,8,,,,,,,,7,,,77,32
5120,note_on,21,0,9,,,,,,,,7,,,70,32
5120,note_on,21,0,10,,,,,,,,7,,,55,33
5120,note_on,21,0,1,,,,,,,,0,,,89,48
5139,note_on,19,0,8,,,,,,,,7,,,77,0
5139,note_on,19,0,1,,,,,,,,0,,,89,0
5139,note_on,19,0,10,,,,,,,,7,,,55,0
5139,note_on,19,0,9,,,,,,,,7,,,70,0
5160,note_on,21,0,1,,,,,,,,0,,,89,48
5160,note_on,21,0,8,,,,,,,,7,,,77,32
5160,note_on,101,0,11,,,,,,,,7,,,53,32
5160,note_on,21,0,10,,,,,,,,7,,,53,33
5160,note_on,101,0,12,,,,,,,,7,,,41,48
5160,note_on,21,0,9,,,,,,,,7,,,69,32
5179,note_on,19,0,9,,,,,,,,7,,,69,0
5179,note_on,19,0,11,,,,,,,,7,,,53,0
5179,note_on,19,0,10,,,,,,,,7,,,53,0
5179,note_on,19,0,12,,,,,,,,7,,,41,0
5200,note_on,40,0,1,,,,,,,,0,,,91,48
5200,note_on,21,0,10,,,,,,,,7,,,53,33
5200,note_on,40,0,8,,,,,,,,7,,,79,32
5200,note_on,21,0,9,,,,,,,,7,,,69,32
5202,note_on,2,0,1,,,,,,,,0,,,89,0
5202,note_on,2,0,8,,,,,,,,7,,,77,0
5219,note_on,19,0,9,,,,,,,,7,,,69,0
5219,note_on,19,0,10,,,,,,,,7,,,53,0
5220,note_on,18,0,8,,,,,,,,7,,,77,32
5220,note_on,18,0,1,,,,,,,,0,,,89,48
5222,note_on,2,0,8,,,,,,,,7,,,79,0
5222,note_on,2,0,1,,,,,,,,0,,,91,0
5240,note_on,18,0,8,,,,,,,,7,,,76,32
5240,note_on,18,0,1,,,,,,,,0,,,88,48
5240,note_on,21,0,9,,,,,,,,7,,,70,32
5240,note_on,21,0,10,,,,,,,,7,,,55,33
5242,note_on,2,0,1,,,,,,,,0,,,89,0
5242,note_on,2,0,8,,,,,,,,7,,,77,0
5259,note_on,19,0,9,,,,,,,,7,,,70,0
5259,note_on,19,0,10,,,,,,,,7,,,55,0
5260,note_on,18,0,1,,,,,,,,0,,,86,48
5260,note_on,18,0,8,,,,,,,,7,,,74,32
5262,note_on,2,0,8,,,,,,,,7,,,76,0
5262,note_on,2,0,1,,,,,,,,0,,,88,0
5279,note_on,17,0,8,,,,,,,,7,,,74,0
5280,note_on,21,0,10,,,,,,,,7,,,57,33
5280,note_on,101,0,11,,,,,,,,7,,,53,32
5280,note_on,21,0,9,,,,,,,,7,,,72,32
5280,note_on,101,0,12,,,,,,,,7,,,41,48
5280,note_on,18,0,1,,,,,,,,0,,,84,48
5282,note_on,2,0,1,,,,,,,,0,,,86,0
5299,note_on,19,0,12,,,,,,,,7,,,41,0
5299,note_on,19,0,10,,,,,,,,7,,,57,0
5299,note_on,19,0,9,,,,,,,,7,,,72,0
5299,note_on,19,0,11,,,,,,,,7,,,53,0
5300,note_on,21,0,8,,,,,,,,7,,,72,32
5320,note_on,21,0,9,,,,,,,,7,,,67,32
5320,note_on,21,0,10,,,,,,,,7,,,52,33
5339,note_on,19,0,10,,,,,,,,7,,,52,0
5339,note_on,19,0,9,,,,,,,,7,,,67,0
5360,note_on,21,0,10,,,,,,,,7,,,53,33
5360,note_on,21,0,9,,,,,,,,7,,,69,32
5379,note_on,19,0,10,,,,,,,,7,,,53,0
5379,note_on,19,0,9,,,,,,,,7,,,69,0
5399,note_on,117,0,1,,,,,,,,0,,,84,0
5399,note_on,99,0,8,,,,,,,,7,,,72,0
5400,note_on,1,0,1,,,,,,,,0,,,82,48
5400,note_on,21,0,9,,,,,,,,7,,,70,32
5400,note_on,101,0,12,,,,,,,,7,,,36,48
5400,note_on,101,0,11,,,,,,,,7,,,48,32
5400,note_on,21,0,10,,,,,,,,7,,,55,33
5419,note_on,19,0,10,,,,,,,,7,,,55,0
5419,note_on,19,0,11,,,,,,,,7,,,48,0
5419,note_on,19,0,9,,,,,,,,7,,,70,0
5419,note_on,19,0,12,,,,,,,,7,,,36,0
5420,note_on,21,0,8,,,,,,,,7,,,70,32
5440,note_on,21,0,9,,,,,,,,7,,,65,32
5440,note_on,21,0,10,,,,,,,,7,,,50,33
5459,note_on,19,0,9,,,,,,,,7,,,65,0
5459,note_on,19,0,10,,,,,,,,7,,,50,0
5480,note_on,21,0,9,,,,,,,,7,,,67,32
5480,note_on,21,0,10,,,,,,,,7,,,52,33
5499,note_on,19,0,9,,,,,,,,7,,,67,0
5499,note_on,19,0,10,,,,,,,,7,,,52,0
5519,note_on,99,0,8,,,,,,,,7,,,70,0
5519,note_on,119,0,1,,,,,,,,0,,,82,0
5520,note_on,101,0,11,,,,,,,,7,,,53,32
5520,note_on,1,0,1,,,,,,,,0,,,81,48
5520,note_on,21,0,10,,,,,,,,7,,,53,33
5520,note_on,1,0,8,,,,,,,,7,,,69,32
5520,note_on,101,0,12,,,,,,,,7,,,41,48
5520,note_on,21,0,9,,,,,,,,7,,,69,32
5539,note_on,19,0,12,,,,,,,,7,,,41,0
5539,note_on,19,0,11,,,,,,,,7,,,53,0
5560,note_on,40,0,8,,,,,,,,7,,,72,32
5560,note_on,40,0,10,,,,,,,,7,,,57,33
5560,note_on,40,0,1,,,,,,,,0,,,84,48
5560,note_on,40,0,9,,,,,,,,7,,,60,32
5562,note_on,2,0,9,,,,,,,,7,,,69,0
5562,note_on,2,0,1,,,,,,,,0,,,81,0
5562,note_on,2,0,10,,,,,,,,7,,,53,0
5562,note_on,2,0,8,,,,,,,,7,,,69,0
5599,note_on,37,0,9,,,,,,,,7,,,60,0
5599,note_on,37,0,1,,,,,,,,0,,,84,0
5599,note_on,37,0,10,,,,,,,,7,,,57,0
5599,note_on,37,0,8,,,,,,,,7,,,72,0
5600,note_on,1,0,1,,,,,,,,0,,,81,48
5600,note_on,1,0,9,,,,,,,,7,,,65,32
5600,note_on,1,0,10,,,,,,,,7,,,60,33
5600,note_on,1,0,8,,,,,,,,7,,,69,32
5619,note_on,19,0,1,,,,,,,,0,,,81,0
5619,note_on,19,0,8,,,,,,,,7,,,69,0
5619,note_on,19,0,10,,,,,,,,7,,,60,0
5619,note_on,19,0,9,,,,,,,,7,,,65,0
5640,note_on,101,0,11,,,,,,,,7,,,48,32
5640,note_on,21,0,1,,,,,,,,0,,,79,48
5640,note_on,21,0,9,,,,,,,,7,,,64,32
5640,note_on,21,0,10,,,,,,,,7,,,58,33
5640,note_on,21,0,8,,,,,,,,7,,,67,32
5640,note_on,101,0,12,,,,,,,,7,,,36,48
5659,note_on,19,0,12,,,,,,,,7,,,36,0
5659,note_on,19,0,11,,,,,,,,7,,,48,0
5680,note_on,40,0,10,,,,,,,,7,,,55,33
5680,note_on,40,0,1,,,,,,,,0,,,82,48
5680,note_on,40,0,9,,,,,,,,7,,,60,32
5680,note_on,40,0,8,,,,,,,,7,,,70,32
5682,note_on,2,0,1,,,,,,,,0,,,79,0
5682,note_on,2,0,8,,,,,,,,7,,,67,0
5682,note_on,2,0,10,,,,,,,,7,,,58,0
5682,note_on,2,0,9,,,,,,,,7,,,64,0
5719,note_on,37,0,9,,,,,,,,7,,,60,0
5719,note_on,37,0,1,,,,,,,,0,,,82,0
5719,note_on,37,0,8,,,,,,,,7,,,70,0
5719,note_on,37,0,10,,,,,,,,7,,,55,0
5720,note_on,1,0,10,,,,,,,,7,,,58,33
5720,note_on,1,0,9,,,,,,,,7,,,64,32
5720,note_on,1,0,8,,,,,,,,7,,,67,32
5720,note_on,1,0,1,,,,,,,,0,,,79,48
5739,note_on,19,0,10,,,,,,,,7,,,58,0
5739,note_on,19,0,9,,,,,,,,7,,,64,0
5739,note_on,19,0,8,,,,,,,,7,,,67,0
5739,note_on,19,0,1,,,,,,,,0,,,79,0
5760,note_on,21,0,1,,,,,,,,0,,,77,48
5760,note_on,101,0,11,,,,,,,,7,,,53,32
5760,note_on,21,0,10,,,,,,,,7,,,53,33
5760,note_on,21,0,9,,,,,,,,7,,,57,32
5760,note_on,101,0,12,,,,,,,,7,,,41,48
5760,note_on,21,0,8,,,,,,,,7,,,65,32
5779,note_on,19,0,11,,,,,,,,7,,,53,0
5779,note_on,19,0,10,,,,,,,,7,,,53,0
5779,note_on,19,0,12,,,,,,,,7,,,41,0
5779,note_on,19,0,8,,,,,,,,7,,,65,0
5779,note_on,19,0,1,,,,,,,,0,,,77,0
5779,note_on,19,0,9,,,,,,,,7,,,57,0
5800,note_on,21,0,8,,,,,,,,7,,,69,32
5800,note_on,21,0,10,,,,,,,,7,,,57,33
5819,note_on,19,0,8,,,,,,,,7,,,69,0
5819,note_on,19,0,10,,,,,,,,7,,,57,0
5840,note_on,21,0,8,,,,,,,,7,,,72,32
5840,note_on,21,0,10,,,,,,,,7,,,60,33
5859,note_on,19,0,8,,,,,,,,7,,,72,0
5859,note_on,19,0,10,,,,,,,,7,,,60,0
5880,note_on,21,0,10,,,,,,,,7,,,58,49
5999,note_on,119,0,10,,,,,,,,7,,,58,0
6000,note_on,221,0,9,,,,,,,,7,,,72,48
6000,note_on,1,0,10,,,,,,,,7,,,57,33
6040,note_on,40,0,10,,,,,,,,7,,,60,33
6042,note_on,2,0,10,,,,,,,,7,,,57,0
6079,note_on,37,0,10,,,,,,,,7,,,60,0
6080,note_on,1,0,10,,,,,,,,7,,,57,33
6099,note_on,19,0,10,,,,,,,,7,,,57,0
6119,note_on,119,0,9,,,,,,,,7,,,72,0
6120,note_on,341,0,12,,,,,,,,7,,,36,64
6120,note_on,1,0,9,,,,,,,,7,,,70,32
6120,note_on,21,0,10,,,,,,,,7,,,55,33
6120,note_on,261,0,8,,,,,,,,7,,,84,48
6120,note_on,341,0,11,,,,,,,,7,,,48,48
6160,note_on,40,0,9,,,,,,,,7,,,72,32
6160,note_on,40,0,10,,,,,,,,7,,,58,33
6162,note_on,2,0,10,,,,,,,,7,,,55,0
6162,note_on,2,0,9,,,,,,,,7,,,70,0
6199,note_on,37,0,10,,,,,,,,7,,,58,0
6199,note_on,37,0,9,,,,,,,,7,,,72,0
6200,note_on,1,0,9,,,,,,,,7,,,70,32
6200,note_on,1,0,10,,,,,,,,7,,,55,33
6219,note_on,19,0,10,,,,,,,,7,,,55,0
6219,note_on,19,0,9,,,,,,,,7,,,70,0
6239,note_on,119,0,11,,,,,,,,7,,,48,0
6239,note_on,119,0,12,,,,,,,,7,,,36,0
6239,note_on,119,0,8,,,,,,,,7,,,84,0
6240,note_on,2861,0,2,,,,,,,,1,,,72,48
6240,note_on,21,0,10,,,,,,,,7,,,53,33
6240,note_on,461,0,1,,,,,,,,0,,,84,48
6240,note_on,1,0,8,,,,,,,,7,,,84,48
6240,note_on,1,0,11,,,,,,,,7,,,53,32
6240,note_on,21,0,9,,,,,,,,7,,,69,32
6240,note_on,2861,0,4,,,,,,,,3,,,60,48
6240,note_on,1,0,12,,,,,,,,7,,,41,48
6259,note_on,19,0,12,,,,,,,,7,,,41,0
6259,note_on,19,0,11,,,,,,,,7,,,53,0
6280,note_on,40,0,9,,,,,,,,7,,,72,32
6280,note_on,21,0,12,,,,,,,,7,,,45,48
6280,note_on,40,0,10,,,,,,,,7,,,57,33
6280,note_on,21,0,11,,,,,,,,7,,,57,32
6282,note_on,2,0,9,,,,,,,,7,,,69,0
6282,note_on,2,0,10,,,,,,,,7,,,53,0
6299,note_on,19,0,11,,,,,,,,7,,,57,0
6299,note_on,19,0,12,,,,,,,,7,,,45,0
6319,note_on,37,0,9,,,,,,,,7,,,72,0
6319,note_on,37,0,10,,,,,,,,7,,,57,0
6320,note_on,21,0,12,,,,,,,,7,,,48,48
6320,note_on,21,0,11,,,,,,,,7,,,60,32
6320,note_on,1,0,10,,,,,,,,7,,,53,33
6320,note_on,1,0,9,,,,,,,,7,,,69,32
6339,note_on,19,0,10,,,,,,,,7,,,53,0
6339,note_on,19,0,12,,,,,,,,7,,,48,0
6339,note_on,19,0,11,,,,,,,,7,,,60,0
6339,note_on,19,0,9,,,,,,,,7,,,69,0
6359,note_on,119,0,8,,,,,,,,7,,,84,0
6359,note_on,119,0,1,,,,,,,,0,,,84,0
6359,note_on,119,0,4,,,,,,,,3,,,60,0
6359,note_on,119,0,2,,,,,,,,1,,,72,0
6360,note_on,1,0,4,,,,,,,,3,,,62,32
6360,note_on,21,0,10,,,,,,,,7,,,60,49
6360,note_on,1,0,1,,,,,,,,0,,,86,33
6360,note_on,1,0,2,,,,,,,,1,,,74,32
6379,note_on,19,0,1,,,,,,,,0,,,86,0
6399,note_on,39,0,2,,,,,,,,1,,,74,0
6399,note_on,39,0,4,,,,,,,,3,,,62,0
6479,note_on,119,0,10,,,,,,,,7,,,60,0
6480,note_on,141,0,9,,,,,,,,7,,,74,48
6480,note_on,1,0,10,,,,,,,,7,,,58,33
6520,note_on,40,0,10,,,,,,,,7,,,62,33
6522,note_on,2,0,10,,,,,,,,7,,,58,0
6559,note_on,37,0,10,,,,,,,,7,,,62,0
6560,note_on,1,0,10,,,,,,,,7,,,58,33
6579,note_on,19,0,10,,,,,,,,7,,,58,0
6599,note_on,119,0,9,,,,,,,,7,,,74,0
6600,note_on,261,0,12,,,,,,,,7,,,38,64
6600,note_on,261,0,11,,,,,,,,7,,,50,48
6600,note_on,241,0,8,,,,,,,,7,,,86,48
6600,note_on,1,0,9,,,,,,,,7,,,72,32
6600,note_on,21,0,10,,,,,,,,7,,,57,33
6640,note_on,40,0,10,,,,,,,,7,,,60,33
6640,note_on,40,0,9,,,,,,,,7,,,74,32
6642,note_on,2,0,10,,,,,,,,7,,,57,0
6642,note_on,2,0,9,,,,,,,,7,,,72,0
6679,note_on,37,0,9,,,,,,,,7,,,74,0
6679,note_on,37,0,10,,,,,,,,7,,,60,0
6680,note_on,1,0,9,,,,,,,,7,,,72,32
6680,note_on,1,0,10,,,,,,,,7,,,57,33
6699,note_on,19,0,9,,,,,,,,7,,,72,0
6699,note_on,19,0,10,,,,,,,,7,,,57,0
6719,note_on,119,0,8,,,,,,,,7,,,86,0
6719,note_on,119,0,11,,,,,,,,7,,,50,0
6719,note_on,119,0,12,,,,,,,,7,,,38,0
6720,note_on,1,0,12,,,,,,,,7,,,43,48
6720,note_on,1,0,8,,,,,,,,7,,,86,48
6720,note_on,341,0,1,,,,,,,,0,,,86,48
6720,note_on,1,0,11,,,,,,,,7,,,55,32
6720,note_on,21,0,9,,,,,,,,7,,,70,32
6720,note_on,321,0,2,,,,,,,,1,,,74,48
6720,note_on,321,0,4,,,,,,,,3,,,62,48
6720,note_on,21,0,10,,,,,,,,7,,,55,33
6760,note_on,40,0,10,,,,,,,,7,,,58,33
6760,note_on,40,0,11,,,,,,,,7,,,58,32
6760,note_on,40,0,9,,,,,,,,7,,,74,32
6760,note_on,40,0,12,,,,,,,,7,,,47,48
6762,note_on,2,0,12,,,,,,,,7,,,43,0
6762,note_on,2,0,11,,,,,,,,7,,,55,0
6762,note_on,2,0,10,,,,,,,,7,,,55,0
6762,note_on,2,0,9,,,,,,,,7,,,70,0
6779,note_on,17,0,12,,,,,,,,7,,,47,0
6799,note_on,37,0,9,,,,,,,,7,,,74,0
6799,note_on,37,0,11,,,,,,,,7,,,58,0
6799,note_on,37,0,10,,,,,,,,7,,,58,0
6800,note_on,21,0,12,,,,,,,,7,,,43,48
6800,note_on,1,0,10,,,,,,,,7,,,58,33
6800,note_on,1,0,11,,,,,,,,7,,,55,32
6800,note_on,1,0,9,,,,,,,,7,,,70,32
6819,note_on,19,0,12,,,,,,,,7,,,43,0
6819,note_on,19,0,9,,,,,,,,7,,,70,0
6819,note_on,19,0,10,,,,,,,,7,,,58,0
6819,note_on,19,0,11,,,,,,,,7,,,55,0
6839,note_on,119,0,2,,,,,,,,1,,,74,0
6839,note_on,119,0,1,,,,,,,,0,,,86,0
6839,note_on,119,0,8,,,,,,,,7,,,86,0
6839,note_on,119,0,4,,,,,,,,3,,,62,0
6840,note_on,1,0,2,,,,,,,,1,,,74,32
6840,note_on,1,0,4,,,,,,,,3,,,62,32
6840,note_on,21,0,11,,,,,,,,7,,,54,32
6840,note_on,1,0,8,,,,,,,,7,,,86,32
6840,note_on,21,0,10,,,,,,,,7,,,57,33
6840,note_on,21,0,12,,,,,,,,7,,,42,48
6840,note_on,1,0,1,,,,,,,,0,,,86,33
6840,note_on,21,0,9,,,,,,,,7,,,69,32
6859,note_on,19,0,4,,,,,,,,3,,,62,0
6859,note_on,19,0,11,,,,,,,,7,,,54,0
6859,note_on,19,0,12,,,,,,,,7,,,42,0
6859,note_on,19,0,8,,,,,,,,7,,,86,0
6859,note_on,19,0,10,,,,,,,,7,,,57,0
6859,note_on,19,0,1,,,,,,,,0,,,86,0
6859,note_on,19,0,9,,,,,,,,7,,,69,0
6879,note_on,39,0,2,,,,,,,,1,,,74,0
6880,note_on,21,0,10,,,,,,,,7,,,54,33
6880,note_on,21,0,8,,,,,,,,7,,,81,32
6880,note_on,21,0,12,,,,,,,,7,,,38,48
6880,note_on,21,0,4,,,,,,,,3,,,50,32
6880,note_on,21,0,9,,,,,,,,7,,,69,32
6880,note_on,21,0,11,,,,,,,,7,,,50,32
6899,note_on,19,0,9,,,,,,,,7,,,69,0
6899,note_on,19,0,4,,,,,,,,3,,,50,0
6899,note_on,19,0,11,,,,,,,,7,,,50,0
6899,note_on,19,0,8,,,,,,,,7,,,81,0
6899,note_on,19,0,10,,,,,,,,7,,,54,0
6899,note_on,19,0,12,,,,,,,,7,,,38,0
6920,note_on,61,0,1,,,,,,,,0,,,86,33
6920,note_on,21,0,9,,,,,,,,7,,,66,32
6920,note_on,21,0,8,,,,,,,,7,,,78,32
6920,note_on,41,0,2,,,,,,,,1,,,78,32
6920,note_on,0,0,2,,,,,,,,1,,,74,32
6920,note_on,21,0,11,,,,,,,,7,,,60,32
6920,note_on,21,0,4,,,,,,,,3,,,60,32
6920,note_on,21,0,10,,,,,,,,7,,,62,33
6920,note_on,21,0,12,,,,,,,,7,,,48,48
6939,note_on,19,0,10,,,,,,,,7,,,62,0
6939,note_on,19,0,1,,,,,,,,0,,,86,0
6939,note_on,19,0,4,,,,,,,,3,,,60,0
6939,note_on,19,0,9,,,,,,,,7,,,66,0
6939,note_on,0,0,2,,,,,,,,1,,,78,0
6939,note_on,19,0,2,,,,,,,,1,,,74,0
6939,note_on,19,0,8,,,,,,,,7,,,78,0
6939,note_on,19,0,12,,,,,,,,7,,,48,0
6939,note_on,19,0,11,,,,,,,,7,,,60,0
6960,note_on,21,0,8,,,,,,,,7,,,79,32
6960,note_on,21,0,9,,,,,,,,7,,,67,32
6960,note_on,21,0,10,,,,,,,,7,,,62,33
6960,note_on,21,0,12,,,,,,,,7,,,46,48
6960,note_on,0,0,2,,,,,,,,1,,,74,32
6960,note_on,21,0,2,,,,,,,,1,,,79,32
6960,note_on,21,0,1,,,,,,,,0,,,86,33
6960,note_on,21,0,4,,,,,,,,3,,,58,32
6960,note_on,21,0,11,,,,,,,,7,,,58,32
6979,note_on,19,0,9,,,,,,,,7,,,67,0
6979,note_on,19,0,1,,,,,,,,0,,,86,0
6979,note_on,19,0,8,,,,,,,,7,,,79,0
6979,note_on,0,0,2,,,,,,,,1,,,79,0
6979,note_on,19,0,11,,,,,,,,7,,,58,0
6979,note_on,19,0,2,,,,,,,,1,,,74,0
6979,note_on,19,0,4,,,,,,,,3,,,58,0
6979,note_on,19,0,10,,,,,,,,7,,,62,0
6979,note_on,19,0,12,,,,,,,,7,,,46,0
7000,note_on,21,0,8,,,,,,,,7,,,82,32
7000,note_on,21,0,11,,,,,,,,7,,,55,32
7000,note_on,0,0,2,,,,,,,,1,,,82,32
7000,note_on,21,0,2,,,,,,,,1,,,74,32
7000,note_on,21,0,4,,,,,,,,3,,,55,32
7000,note_on,21,0,10,,,,,,,,7,,,58,33
7000,note_on,21,0,1,,,,,,,,0,,,86,33
7000,note_on,21,0,9,,,,,,,,7,,,70,32
7000,note_on,21,0,12,,,,,,,,7,,,43,48
7019,note_on,19,0,11,,,,,,,,7,,,55,0
7019,note_on,19,0,1,,,,,,,,0,,,86,0
7019,note_on,19,0,10,,,,,,,,7,,,58,0
7019,note_on,19,0,2,,,,,,,,1,,,82,0
7019,note_on,19,0,8,,,,,,,,7,,,82,0
7019,note_on,19,0,9,,,,,,,,7,,,70,0
7019,note_on,19,0,4,,,,,,,,3,,,55,0
7019,note_on,0,0,2,,,,,,,,1,,,74,0
7019,note_on,19,0,12,,,,,,,,7,,,43,0
7040,note_on,21,0,8,,,,,,,,7,,,73,32
7040,note_on,21,0,4,,,,,,,,3,,,51,32
7040,note_on,21,0,10,,,,,,,,7,,,55,33
7040,note_on,21,0,11,,,,,,,,7,,,51,32
7040,note_on,21,0,2,,,,,,,,1,,,67,32
7040,note_on,0,0,2,,,,,,,,1,,,79,32
7040,note_on,21,0,12,,,,,,,,7,,,39,48
7040,note_on,21,0,9,,,,,,,,7,,,61,32
7040,note_on,21,0,1,,,,,,,,0,,,85,33
7059,note_on,19,0,1,,,,,,,,0,,,85,0
7059,note_on,19,0,9,,,,,,,,7,,,61,0
7059,note_on,19,0,10,,,,,,,,7,,,55,0
7059,note_on,19,0,8,,,,,,,,7,,,73,0
7059,note_on,19,0,4,,,,,,,,3,,,51,0
7059,note_on,19,0,11,,,,,,,,7,,,51,0
7059,note_on,19,0,12,,,,,,,,7,,,39,0
7059,note_on,19,0,2,,,,,,,,1,,,79,0
7059,note_on,0,0,2,,,,,,,,1,,,67,0
7080,note_on,21,0,1,,,,,,,,0,,,86,33
7080,note_on,21,0,9,,,,,,,,7,,,62,32
7080,note_on,21,0,11,,,,,,,,7,,,50,32
7080,note_on,21,0,8,,,,,,,,7,,,74,32
7080,note_on,21,0,10,,,,,,,,7,,,54,33
7080,note_on,21,0,2,,,,,,,,1,,,74,32
7080,note_on,0,0,2,,,,,,,,1,,,78,32
7080,note_on,21,0,12,,,,,,,,7,,,38,48
7080,note_on,21,0,4,,,,,,,,3,,,50,32
7099,note_on,19,0,1,,,,,,,,0,,,86,0
7099,note_on,19,0,8,,,,,,,,7,,,74,0
7099,note_on,19,0,4,,,,,,,,3,,,50,0
7099,note_on,19,0,2,,,,,,,,1,,,78,0
7099,note_on,0,0,2,,,,,,,,1,,,74,0
7099,note_on,19,0,11,,,,,,,,7,,,50,0
7099,note_on,19,0,9,,,,,,,,7,,,62,0
7099,note_on,19,0,12,,,,,,,,7,,,38,0
7099,note_on,19,0,10,,,,,,,,7,,,54,0
7120,note_on,21,0,11,,,,,,,,7,,,57,32
7120,note_on,21,0,10,,,,,,,,7,,,62,33
7120,note_on,21,0,9,,,,,,,,7,,,66,32
7120,note_on,21,0,12,,,,,,,,7,,,45,48
7120,note_on,21,0,8,,,,,,,,7,,,78,32
7120,note_on,21,0,4,,,,,,,,3,,,60,32
7120,note_on,0,0,4,,,,,,,,3,,,57,32
7139,note_on,19,0,8,,,,,,,,7,,,78,0
7139,note_on,19,0,9,,,,,,,,7,,,66,0
7139,note_on,19,0,4,,,,,,,,3,,,57,0
7139,note_on,0,0,4,,,,,,,,3,,,60,0
7139,note_on,19,0,10,,,,,,,,7,,,62,0
7139,note_on,19,0,11,,,,,,,,7,,,57,0
7139,note_on,19,0,12,,,,,,,,7,,,45,0
7160,note_on,0,0,1,,,,,,,,0,,,86,33
7160,note_on,0,0,4,,,,,,,,3,,,54,32
7160,note_on,61,0,2,,,,,,,,1,,,72,32
7160,note_on,61,0,1,,,,,,,,0,,,84,33
7160,note_on,21,0,10,,,,,,,,7,,,62,33
7160,note_on,21,0,12,,,,,,,,7,,,42,48
7160,note_on,21,0,9,,,,,,,,7,,,69,32
7160,note_on,21,0,8,,,,,,,,7,,,81,32
7160,note_on,0,0,2,,,,,,,,1,,,81,32
7160,note_on,21,0,11,,,,,,,,7,,,54,32
7160,note_on,21,0,4,,,,,,,,3,,,57,32
7179,note_on,19,0,11,,,,,,,,7,,,54,0
7179,note_on,19,0,8,,,,,,,,7,,,81,0
7179,note_on,19,0,9,,,,,,,,7,,,69,0
7179,note_on,19,0,2,,,,,,,,1,,,81,0
7179,note_on,0,0,2,,,,,,,,1,,,72,0
7179,note_on,0,0,1,,,,,,,,0,,,84,0
7179,note_on,19,0,1,,,,,,,,0,,,86,0
7179,note_on,19,0,4,,,,,,,,3,,,54,0
7179,note_on,0,0,4,,,,,,,,3,,,57,0
7179,note_on,19,0,12,,,,,,,,7,,,42,0
7179,note_on,19,0,10,,,,,,,,7,,,62,0
7200,note_on,0,0,1,,,,,,,,0,,,82,33
7200,note_on,21,0,1,,,,,,,,0,,,86,33
7200,note_on,21,0,8,,,,,,,,7,,,82,32
7200,note_on,21,0,11,,,,,,,,7,,,55,32
7200,note_on,21,0,2,,,,,,,,1,,,70,32
7200,note_on,0,0,2,,,,,,,,1,,,79,32
7200,note_on,21,0,12,,,,,,,,7,,,43,48
7200,note_on,21,0,4,,,,,,,,3,,,62,32
7200,note_on,0,0,4,,,,,,,,3,,,58,32
7200,note_on,21,0,9,,,,,,,,7,,,70,32
7200,note_on,21,0,10,,,,,,,,7,,,62,33
7219,note_on,0,0,1,,,,,,,,0,,,86,0
7219,note_on,19,0,1,,,,,,,,0,,,82,0
7219,note_on,19,0,8,,,,,,,,7,,,82,0
7219,note_on,19,0,2,,,,,,,,1,,,79,0
7219,note_on,0,0,2,,,,,,,,1,,,70,0
7219,note_on,19,0,4,,,,,,,,3,,,58,0
7219,note_on,0,0,4,,,,,,,,3,,,62,0
7219,note_on,19,0,12,,,,,,,,7,,,43,0
7219,note_on,19,0,10,,,,,,,,7,,,62,0
7219,note_on,19,0,9,,,,,,,,7,,,70,0
7219,note_on,19,0,11,,,,,,,,7,,,55,0
7240,note_on,21,0,10,,,,,,,,7,,,62,33
7240,note_on,0,0,4,,,,,,,,3,,,55,32
7240,note_on,21,0,12,,,,,,,,7,,,46,48
7240,note_on,0,0,2,,,,,,,,1,,,79,32
7240,note_on,21,0,2,,,,,,,,1,,,70,32
7240,note_on,21,0,8,,,,,,,,7,,,79,32
7240,note_on,21,0,11,,,,,,,,7,,,58,32
7240,note_on,21,0,4,,,,,,,,3,,,58,32
7240,note_on,21,0,9,,,,,,,,7,,,67,32
7240,note_on,0,0,1,,,,,,,,0,,,86,33
7240,note_on,21,0,1,,,,,,,,0,,,82,33
7259,note_on,0,0,1,,,,,,,,0,,,82,0
7259,note_on,19,0,10,,,,,,,,7,,,62,0
7259,note_on,19,0,4,,,,,,,,3,,,55,0
7259,note_on,0,0,4,,,,,,,,3,,,58,0
7259,note_on,19,0,12,,,,,,,,7,,,46,0
7259,note_on,19,0,1,,,,,,,,0,,,86,0
7259,note_on,19,0,2,,,,,,,,1,,,79,0
7259,note_on,19,0,9,,,,,,,,7,,,67,0
7259,note_on,19,0,8,,,,,,,,7,,,79,0
7259,note_on,0,0,2,,,,,,,,1,,,70,0
7259,note_on,19,0,11,,,,,,,,7,,,58,0
7280,note_on,21,0,11,,,,,,,,7,,,63,32
7280,note_on,21,0,1,,,,,,,,0,,,85,33
7280,note_on,21,0,4,,,,,,,,3,,,63,32
7280,note_on,0,0,4,,,,,,,,3,,,51,32
7280,note_on,21,0,12,,,,,,,,7,,,51,48
7280,note_on,21,0,10,,,,,,,,7,,,67,33
7280,note_on,0,0,2,,,,,,,,1,,,79,32
7280,note_on,21,0,2,,,,,,,,1,,,73,32
7280,note_on,21,0,9,,,,,,,,7,,,73,32
7280,note_on,0,0,1,,,,,,,,0,,,92,33
7280,note_on,21,0,8,,,,,,,,7,,,85,32
7299,note_on,19,0,10,,,,,,,,7,,,67,0
7299,note_on,19,0,11,,,,,,,,7,,,63,0
7299,note_on,19,0,1,,,,,,,,0,,,92,0
7299,note_on,0,0,1,,,,,,,,0,,,85,0
7299,note_on,19,0,4,,,,,,,,3,,,51,0
7299,note_on,0,0,4,,,,,,,,3,,,63,0
7299,note_on,19,0,9,,,,,,,,7,,,73,0
7299,note_on,19,0,12,,,,,,,,7,,,51,0
7299,note_on,19,0,8,,,,,,,,7,,,85,0
7299,note_on,19,0,2,,,,,,,,1,,,79,0
7299,note_on,0,0,2,,,,,,,,1,,,73,0
7320,note_on,21,0,1,,,,,,,,0,,,90,33
7320,note_on,21,0,12,,,,,,,,7,,,50,48
7320,note_on,21,0,9,,,,,,,,7,,,74,32
7320,note_on,21,0,2,,,,,,,,1,,,78,32
7320,note_on,0,0,2,,,,,,,,1,,,74,32
7320,note_on,0,0,1,,,,,,,,0,,,86,33
7320,note_on,0,0,4,,,,,,,,3,,,50,32
7320,note_on,21,0,10,,,,,,,,7,,,66,33
7320,note_on,21,0,4,,,,,,,,3,,,62,32
7320,note_on,21,0,11,,,,,,,,7,,,62,32
7320,note_on,21,0,8,,,,,,,,7,,,86,32
7339,note_on,0,0,4,,,,,,,,3,,,62,0
7339,note_on,19,0,12,,,,,,,,7,,,50,0
7339,note_on,19,0,4,,,,,,,,3,,,50,0
7339,note_on,19,0,11,,,,,,,,7,,,62,0
7339,note_on,19,0,10,,,,,,,,7,,,66,0
7339,note_on,19,0,9,,,,,,,,7,,,74,0
7339,note_on,0,0,2,,,,,,,,1,,,78,0
7339,note_on,0,0,1,,,,,,,,0,,,90,0
7339,note_on,19,0,2,,,,,,,,1,,,74,0
7339,note_on,19,0,8,,,,,,,,7,,,86,0
7339,note_on,19,0,1,,,,,,,,0,,,86,0
7360,note_on,21,0,11,,,,,,,,7,,,61,32
7360,note_on,21,0,10,,,,,,,,7,,,73,33
7360,note_on,21,0,8,,,,,,,,7,,,85,32
7360,note_on,21,0,9,,,,,,,,7,,,73,32
7360,note_on,21,0,12,,,,,,,,7,,,49,48
7379,note_on,19,0,10,,,,,,,,7,,,73,0
7379,note_on,19,0,8,,,,,,,,7,,,85,0
7379,note_on,19,0,11,,,,,,,,7,,,61,0
7379,note_on,19,0,12,,,,,,,,7,,,49,0
7379,note_on,19,0,9,,,,,,,,7,,,73,0
7400,note_on,21,0,11,,,,,,,,7,,,62,32
7400,note_on,21,0,9,,,,,,,,7,,,74,32
7400,note_on,21,0,12,,,,,,,,7,,,50,48
7400,note_on,21,0,10,,,,,,,,7,,,74,33
7400,note_on,21,0,8,,,,,,,,7,,,86,32
7419,note_on,19,0,10,,,,,,,,7,,,74,0
7419,note_on,19,0,12,,,,,,,,7,,,50,0
7419,note_on,19,0,8,,,,,,,,7,,,86,0
7419,note_on,19,0,9,,,,,,,,7,,,74,0
7419,note_on,19,0,11,,,,,,,,7,,,62,0
7440,note_on,21,0,10,,,,,,,,7,,,69,33
7440,note_on,21,0,12,,,,,,,,7,,,45,48
7440,note_on,21,0,8,,,,,,,,7,,,81,32
7440,note_on,21,0,9,,,,,,,,7,,,69,32
7440,note_on,21,0,11,,,,,,,,7,,,57,32
7459,note_on,19,0,9,,,,,,,,7,,,69,0
7459,note_on,19,0,8,,,,,,,,7,,,81,0
7459,note_on,19,0,10,,,,,,,,7,,,69,0
7459,note_on,19,0,12,,,,,,,,7,,,45,0
7459,note_on,19,0,11,,,,,,,,7,,,57,0
7480,note_on,21,0,8,,,,,,,,7,,,82,32
7480,note_on,21,0,10,,,,,,,,7,,,70,33
7480,note_on,21,0,9,,,,,,,,7,,,70,32
7480,note_on,21,0,11,,,,,,,,7,,,58,32
7480,note_on,21,0,12,,,,,,,,7,,,46,48
7499,note_on,19,0,10,,,,,,,,7,,,70,0
7499,note_on,19,0,9,,,,,,,,7,,,70,0
7499,note_on,19,0,8,,,,,,,,7,,,82,0
7499,note_on,19,0,11,,,,,,,,7,,,58,0
7499,note_on,19,0,12,,,,,,,,7,,,46,0
7520,note_on,21,0,9,,,,,,,,7,,,66,32
7520,note_on,21,0,8,,,,,,,,7,,,78,32
7520,note_on,21,0,11,,,,,,,,7,,,54,32
7520,note_on,21,0,12,,,,,,,,7,,,42,48
7520,note_on,21,0,10,,,,,,,,7,,,66,33
7539,note_on,19,0,12,,,,,,,,7,,,42,0
7539,note_on,19,0,11,,,,,,,,7,,,54,0
7539,note_on,19,0,10,,,,,,,,7,,,66,0
7539,note_on,19,0,8,,,,,,,,7,,,78,0
7539,note_on,19,0,9,,,,,,,,7,,,66,0
7560,note_on,21,0,8,,,,,,,,7,,,79,32
7560,note_on,21,0,12,,,,,,,,7,,,43,48
7560,note_on,21,0,10,,,,,,,,7,,,67,33
7560,note_on,21,0,11,,,,,,,,7,,,55,32
7560,note_on,21,0,9,,,,,,,,7,,,67,32
7579,note_on,19,0,8,,,,,,,,7,,,79,0
7579,note_on,19,0,10,,,,,,,,7,,,67,0
7579,note_on,19,0,12,,,,,,,,7,,,43,0
7579,note_on,19,0,11,,,,,,,,7,,,55,0
7579,note_on,19,0,9,,,,,,,,7,,,67,0
7600,note_on,21,0,12,,,,,,,,7,,,38,48
7600,note_on,21,0,11,,,,,,,,7,,,50,32
7600,note_on,21,0,9,,,,,,,,7,,,62,32
7600,note_on,21,0,10,,,,,,,,7,,,62,33
7600,note_on,21,0,8,,,,,,,,7,,,74,32
7619,note_on,19,0,12,,,,,,,,7,,,38,0
7619,note_on,19,0,11,,,,,,,,7,,,50,0
7619,note_on,19,0,8,,,,,,,,7,,,74,0
7619,note_on,19,0,10,,,,,,,,7,,,62,0
7619,note_on,19,0,9,,,,,,,,7,,,62,0
7640,note_on,21,0,10,,,,,,,,7,,,63,33
7640,note_on,21,0,11,,,,,,,,7,,,51,32
7640,note_on,21,0,12,,,,,,,,7,,,39,48
7640,note_on,21,0,8,,,,,,,,7,,,75,32
7640,note_on,21,0,9,,,,,,,,7,,,63,32
7659,note_on,19,0,10,,,,,,,,7,,,63,0
7659,note_on,19,0,12,,,,,,,,7,,,39,0
7659,note_on,19,0,8,,,,,,,,7,,,75,0
7659,note_on,19,0,11,,,,,,,,7,,,51,0
7659,note_on,19,0,9,,,,,,,,7,,,63,0
7680,note_on,21,0,12,,,,,,,,7,,,38,48
7680,note_on,21,0,8,,,,,,,,7,,,74,32
7680,note_on,21,0,11,,,,,,,,7,,,50,32
7680,note_on,21,0,10,,,,,,,,7,,,62,33
7680,note_on,21,0,9,,,,,,,,7,,,62,32
7699,note_on,19,0,11,,,,,,,,7,,,50,0
7699,note_on,19,0,10,,,,,,,,7,,,62,0
7699,note_on,19,0,8,,,,,,,,7,,,74,0
7699,note_on,19,0,12,,,,,,,,7,,,38,0
7699,note_on,19,0,9,,,,,,,,7,,,62,0
7720,note_on,21,0,12,,,,,,,,7,,,39,48
7720,note_on,21,0,9,,,,,,,,7,,,63,32
7720,note_on,21,0,8,,,,,,,,7,,,75,32
7720,note_on,21,0,10,,,,,,,,7,,,63,33
7720,note_on,21,0,11,,,,,,,,7,,,51,32
7739,note_on,19,0,9,,,,,,,,7,,,63,0
7739,note_on,19,0,10,,,,,,,,7,,,63,0
7739,note_on,19,0,12,,,,,,,,7,,,39,0
7739,note_on,19,0,11,,,,,,,,7,,,51,0
7739,note_on,19,0,8,,,,,,,,7,,,75,0
7760,note_on,21,0,11,,,,,,,,7,,,49,32
7760,note_on,21,0,12,,,,,,,,7,,,37,48
7760,note_on,21,0,8,,,,,,,,7,,,73,32
7760,note_on,21,0,9,,,,,,,,7,,,61,32
7760,note_on,21,0,10,,,,,,,,7,,,61,33
7779,note_on,19,0,11,,,,,,,,7,,,49,0
7779,note_on,19,0,8,,,,,,,,7,,,73,0
7779,note_on,19,0,9,,,,,,,,7,,,61,0
7779,note_on,19,0,10,,,,,,,,7,,,61,0
7779,note_on,19,0,12,,,,,,,,7,,,37,0
7800,note_on,21,0,9,,,,,,,,7,,,62,32
7800,note_on,21,0,10,,,,,,,,7,,,62,33
7800,note_on,21,0,8,,,,,,,,7,,,74,32
7800,note_on,21,0,11,,,,,,,,7,,,50,32
7800,note_on,21,0,12,,,,,,,,7,,,38,48
7819,note_on,19,0,9,,,,,,,,7,,,62,0
7819,note_on,19,0,12,,,,,,,,7,,,38,0
7819,note_on,19,0,8,,,,,,,,7,,,74,0
7819,note_on,19,0,10,,,,,,,,7,,,62,0
7819,note_on,19,0,11,,,,,,,,7,,,50,0
7840,note_on,21,0,8,,,,,,,,7,,,73,32
7840,note_on,21,0,9,,,,,,,,7,,,61,32
7840,note_on,21,0,12,,,,,,,,7,,,37,48
7840,note_on,21,0,10,,,,,,,,7,,,61,33
7840,note_on,21,0,11,,,,,,,,7,,,49,32
7859,note_on,19,0,11,,,,,,,,7,,,49,0
7859,note_on,19,0,9,,,,,,,,7,,,61,0
7859,note_on,19,0,12,,,,,,,,7,,,37,0
7859,note_on,19,0,10,,,,,,,,7,,,61,0
7859,note_on,19,0,8,,,,,,,,7,,,73,0
7880,note_on,21,0,9,,,,,,,,7,,,62,32
7880,note_on,21,0,8,,,,,,,,7,,,74,32
7880,note_on,21,0,11,,,,,,,,7,,,50,32
7880,note_on,21,0,12,,,,,,,,7,,,38,48
7880,note_on,21,0,10,,,,,,,,7,,,62,33
7899,note_on,19,0,12,,,,,,,,7,,,38,0
7899,note_on,19,0,8,,,,,,,,7,,,74,0
7899,note_on,19,0,9,,,,,,,,7,,,62,0
7899,note_on,19,0,11,,,,,,,,7,,,50,0
7899,note_on,19,0,10,,,,,,,,7,,,62,0
7920,note_on,21,0,9,,,,,,,,7,,,61,32
7920,note_on,21,0,8,,,,,,,,7,,,73,32
7920,note_on,21,0,11,,,,,,,,7,,,49,32
7920,note_on,21,0,10,,,,,,,,7,,,61,33
7920,note_on,21,0,12,,,,,,,,7,,,37,48
7939,note_on,19,0,11,,,,,,,,7,,,49,0
7939,note_on,19,0,10,,,,,,,,7,,,61,0
7939,note_on,19,0,9,,,,,,,,7,,,61,0
7939,note_on,19,0,8,,,,,,,,7,,,73,0
7939,note_on,19,0,12,,,,,,,,7,,,37,0
7960,note_on,21,0,11,,,,,,,,7,,,50,32
7960,note_on,21,0,9,,,,,,,,7,,,62,32
7960,note_on,21,0,12,,,,,,,,7,,,38,48
7960,note_on,21,0,10,,,,,,,,7,,,62,33
7960,note_on,21,0,8,,,,,,,,7,,,74,32
7979,note_on,19,0,12,,,,,,,,7,,,38,0
7979,note_on,19,0,9,,,,,,,,7,,,62,0
7979,note_on,19,0,10,,,,,,,,7,,,62,0
7979,note_on,19,0,8,,,,,,,,7,,,74,0
7979,note_on,19,0,11,,,,,,,,7,,,50,0
8000,note_on,21,0,11,,,,,,,,7,,,49,32
8000,note_on,21,0,9,,,,,,,,7,,,61,32
8000,note_on,21,0,8,,,,,,,,7,,,73,32
8000,note_on,21,0,10,,,,,,,,7,,,61,33
8000,note_on,21,0,12,,,,,,,,7,,,37,48
8019,note_on,19,0,11,,,,,,,,7,,,49,0
8019,note_on,19,0,8,,,,,,,,7,,,73,0
8019,note_on,19,0,12,,,,,,,,7,,,37,0
8019,note_on,19,0,10,,,,,,,,7,,,61,0
8019,note_on,19,0,9,,,,,,,,7,,,61,0
8040,note_on,21,0,8,,,,,,,,7,,,74,32
8040,note_on,21,0,12,,,,,,,,7,,,38,48
8040,note_on,21,0,11,,,,,,,,7,,,50,32
8040,note_on,21,0,9,,,,,,,,7,,,62,32
8040,note_on,21,0,10,,,,,,,,7,,,62,33
8059,note_on,19,0,11,,,,,,,,7,,,50,0
8059,note_on,19,0,8,,,,,,,,7,,,74,0
8059,note_on,19,0,10,,,,,,,,7,,,62,0
8059,note_on,19,0,9,,,,,,,,7,,,62,0
8059,note_on,19,0,12,,,,,,,,7,,,38,0
8080,note_on,21,0,9,,,,,,,,7,,,61,32
8080,note_on,21,0,8,,,,,,,,7,,,73,32
8080,note_on,21,0,12,,,,,,,,7,,,37,48
8080,note_on,21,0,10,,,,,,,,7,,,61,33
8080,note_on,21,0,11,,,,,,,,7,,,49,32
8099,note_on,19,0,10,,,,,,,,7,,,61,0
8099,note_on,19,0,11,,,,,,,,7,,,49,0
8099,note_on,19,0,8,,,,,,,,7,,,73,0
8099,note_on,19,0,9,,,,,,,,7,,,61,0
8099,note_on,19,0,12,,,,,,,,7,,,37,0
8120,note_on,21,0,11,,,,,,,,7,,,50,32
8120,note_on,21,0,10,,,,,,,,7,,,62,33
8120,note_on,21,0,9,,,,,,,,7,,,62,32
8120,note_on,21,0,12,,,,,,,,7,,,38,48
8120,note_on,21,0,8,,,,,,,,7,,,74,32
8139,note_on,19,0,10,,,,,,,,7,,,62,0
8139,note_on,19,0,9,,,,,,,,7,,,62,0
8139,note_on,19,0,11,,,,,,,,7,,,50,0
8139,note_on,19,0,12,,,,,,,,7,,,38,0
8139,note_on,19,0,8,,,,,,,,7,,,74,0
8160,note_on,21,0,12,,,,,,,,7,,,37,48
8160,note_on,21,0,8,,,,,,,,7,,,73,32
8160,note_on,21,0,9,,,,,,,,7,,,61,32
8160,note_on,21,0,10,,,,,,,,7,,,61,33
8160,note_on,21,0,11,,,,,,,,7,,,49,32
8179,note_on,19,0,9,,,,,,,,7,,,61,0
8179,note_on,19,0,8,,,,,,,,7,,,73,0
8179,note_on,19,0,10,,,,,,,,7,,,61,0
8179,note_on,19,0,11,,,,,,,,7,,,49,0
8179,note_on,19,0,12,,,,,,,,7,,,37,0
8200,note_on,21,0,12,,,,,,,,7,,,38,48
8200,note_on,21,0,8,,,,,,,,7,,,74,32
8200,note_on,21,0,11,,,,,,,,7,,,50,32
8200,note_on,21,0,10,,,,,,,,7,,,62,33
8200,note_on,21,0,9,,,,,,,,7,,,62,32
8219,note_on,19,0,8,,,,,,,,7,,,74,0
8219,note_on,19,0,12,,,,,,,,7,,,38,0
8219,note_on,19,0,11,,,,,,,,7,,,50,0
8219,note_on,19,0,10,,,,,,,,7,,,62,0
8219,note_on,19,0,9,,,,,,,,7,,,62,0
8240,note_on,21,0,9,,,,,,,,7,,,61,32
8240,note_on,21,0,11,,,,,,,,7,,,49,32
8240,note_on,21,0,10,,,,,,,,7,,,61,33
8240,note_on,21,0,12,,,,,,,,7,,,37,48
8240,note_on,21,0,8,,,,,,,,7,,,73,32
8259,note_on,19,0,9,,,,,,,,7,,,61,0
8259,note_on,19,0,11,,,,,,,,7,,,49,0
8259,note_on,19,0,10,,,,,,,,7,,,61,0
8259,note_on,19,0,12,,,,,,,,7,,,37,0
8259,note_on,19,0,8,,,,,,,,7,,,73,0
8280,note_on,21,0,10,,,,,,,,7,,,62,33
8280,note_on,21,0,8,,,,,,,,7,,,74,32
8280,note_on,21,0,12,,,,,,,,7,,,38,48
8280,note_on,21,0,9,,,,,,,,7,,,62,32
8280,note_on,21,0,11,,,,,,,,7,,,50,32
8299,note_on,19,0,12,,,,,,,,7,,,38,0
8299,note_on,19,0,8,,,,,,,,7,,,74,0
8299,note_on,19,0,11,,,,,,,,7,,,50,0
8299,note_on,19,0,10,,,,,,,,7,,,62,0
8299,note_on,19,0,9,,,,,,,,7,,,62,0
8320,note_on,21,0,10,,,,,,,,7,,,50,33
8339,note_on,19,0,10,,,,,,,,7,,,50,0
8360,note_on,21,0,10,,,,,,,,7,,,50,33
8379,note_on,19,0,10,,,,,,,,7,,,50,0
8400,note_on,21,0,10,,,,,,,,7,,,50,33
8419,note_on,19,0,10,,,,,,,,7,,,50,0
8440,note_on,21,0,10,,,,,,,,7,,,50,33
8459,note_on,19,0,10,,,,,,,,7,,,50,0
8480,note_on,21,0,10,,,,,,,,7,,,50,33
8499,note_on,19,0,10,,,,,,,,7,,,50,0
8520,note_on,21,0,10,,,,,,,,7,,,50,33
8539,note_on,19,0,10,,,,,,,,7,,,50,0
8560,note_on,21,0,10,,,,,,,,7,,,50,33
8579,note_on,19,0,10,,,,,,,,7,,,50,0
8600,note_on,21,0,10,,,,,,,,7,,,50,33
8619,note_on,19,0,10,,,,,,,,7,,,50,0
8640,note_on,21,0,10,,,,,,,,7,,,50,33
8659,note_on,19,0,10,,,,,,,,7,,,50,0
8680,note_on,21,0,10,,,,,,,,7,,,50,33
8699,note_on,19,0,10,,,,,,,,7,,,50,0
8720,note_on,21,0,10,,,,,,,,7,,,50,33
8739,note_on,19,0,10,,,,,,,,7,,,50,0
8760,note_on,461,0,11,,,,,,,,7,,,46,32
8760,note_on,461,0,12,,,,,,,,7,,,34,48
8779,note_on,19,0,12,,,,,,,,7,,,34,0
8779,note_on,19,0,11,,,,,,,,7,,,46,0
8800,note_on,21,0,11,,,,,,,,7,,,46,32
8800,note_on,21,0,12,,,,,,,,7,,,34,48
8819,note_on,19,0,11,,,,,,,,7,,,46,0
8819,note_on,19,0,12,,,,,,,,7,,,34,0
8840,note_on,21,0,11,,,,,,,,7,,,46,32
8840,note_on,21,0,12,,,,,,,,7,,,34,48
8859,note_on,19,0,12,,,,,,,,7,,,34,0
8859,note_on,19,0,11,,,,,,,,7,,,46,0
8880,note_on,21,0,12,,,,,,,,7,,,34,48
8880,note_on,21,0,11,,,,,,,,7,,,46,32
8899,note_on,19,0,12,,,,,,,,7,,,34,0
8899,note_on,19,0,11,,,,,,,,7,,,46,0
8920,note_on,21,0,11,,,,,,,,7,,,46,32
8920,note_on,21,0,12,,,,,,,,7,,,34,48
8939,note_on,19,0,12,,,,,,,,7,,,34,0
8939,note_on,19,0,11,,,,,,,,7,,,46,0
8960,note_on,21,0,11,,,,,,,,7,,,46,32
8960,note_on,21,0,12,,,,,,,,7,,,34,48
8979,note_on,19,0,11,,,,,,,,7,,,46,0
8979,note_on,19,0,12,,,,,,,,7,,,34,0
9000,note_on,21,0,12,,,,,,,,7,,,34,48
9000,note_on,21,0,11,,,,,,,,7,,,46,32
9019,note_on,19,0,11,,,,,,,,7,,,46,0
9019,note_on,19,0,12,,,,,,,,7,,,34,0
9040,note_on,21,0,11,,,,,,,,7,,,46,32
9040,note_on,21,0,12,,,,,,,,7,,,34,48
9059,note_on,19,0,11,,,,,,,,7,,,46,0
9059,note_on,19,0,12,,,,,,,,7,,,34,0
9080,note_on,21,0,11,,,,,,,,7,,,46,32
9080,note_on,21,0,12,,,,,,,,7,,,34,48
9099,note_on,19,0,11,,,,,,,,7,,,46,0
9099,note_on,19,0,12,,,,,,,,7,,,34,0
9120,note_on,21,0,12,,,,,,,,7,,,34,48
9120,note_on,21,0,11,,,,,,,,7,,,46,32
9139,note_on,19,0,11,,,,,,,,7,,,46,0
9139,note_on,19,0,12,,,,,,,,7,,,34,0
9160,note_on,21,0,11,,,,,,,,7,,,46,32
9160,note_on,21,0,12,,,,,,,,7,,,34,48
9179,note_on,19,0,12,,,,,,,,7,,,34,0
9179,note_on,19,0,11,,,,,,,,7,,,46,0
9200,note_on,461,0,10,,,,,,,,7,,,51,33
9200,note_on,901,0,8,,,,,,,,7,,,58,32
9200,note_on,901,0,9,,,,,,,,7,,,55,32
9200,note_on,21,0,12,,,,,,,,7,,,34,48
9200,note_on,21,0,11,,,,,,,,7,,,46,32
9219,note_on,19,0,12,,,,,,,,7,,,34,0
9219,note_on,19,0,10,,,,,,,,7,,,51,0
9219,note_on,19,0,9,,,,,,,,7,,,55,0
9219,note_on,19,0,8,,,,,,,,7,,,58,0
9219,note_on,19,0,11,,,,,,,,7,,,46,0
9240,note_on,21,0,12,,,,,,,,7,,,34,48
9240,note_on,21,0,10,,,,,,,,7,,,51,33
9240,note_on,21,0,11,,,,,,,,7,,,46,32
9240,note_on,21,0,8,,,,,,,,7,,,58,32
9240,note_on,21,0,9,,,,,,,,7,,,55,32
9259,note_on,19,0,11,,,,,,,,7,,,46,0
9259,note_on,19,0,9,,,,,,,,7,,,55,0
9259,note_on,19,0,12,,,,,,,,7,,,34,0
9259,note_on,19,0,10,,,,,,,,7,,,51,0
9259,note_on,19,0,8,,,,,,,,7,,,58,0
9280,note_on,21,0,10,,,,,,,,7,,,51,33
9280,note_on,21,0,12,,,,,,,,7,,,34,48
9280,note_on,21,0,8,,,,,,,,7,,,60,32
9280,note_on,21,0,11,,,,,,,,7,,,46,32
9280,note_on,21,0,9,,,,,,,,7,,,56,32
9299,note_on,19,0,9,,,,,,,,7,,,56,0
9299,note_on,19,0,12,,,,,,,,7,,,34,0
9299,note_on,19,0,8,,,,,,,,7,,,60,0
9299,note_on,19,0,10,,,,,,,,7,,,51,0
9299,note_on,19,0,11,,,,,,,,7,,,46,0
9320,note_on,21,0,12,,,,,,,,7,,,34,48
9320,note_on,21,0,8,,,,,,,,7,,,58,32
9320,note_on,21,0,9,,,,,,,,7,,,55,32
9320,note_on,21,0,11,,,,,,,,7,,,46,32
9320,note_on,21,0,10,,,,,,,,7,,,51,33
9339,note_on,19,0,8,,,,,,,,7,,,58,0
9339,note_on,19,0,10,,,,,,,,7,,,51,0
9339,note_on,19,0,9,,,,,,,,7,,,55,0
9339,note_on,19,0,11,,,,,,,,7,,,46,0
9339,note_on,19,0,12,,,,,,,,7,,,34,0
9360,note_on,21,0,9,,,,,,,,7,,,56,32
9360,note_on,21,0,11,,,,,,,,7,,,46,32
9360,note_on,21,0,10,,,,,,,,7,,,51,33
9360,note_on,21,0,8,,,,,,,,7,,,60,32
9360,note_on,21,0,12,,,,,,,,7,,,34,48
9379,note_on,19,0,12,,,,,,,,7,,,34,0
9379,note_on,19,0,10,,,,,,,,7,,,51,0
9379,note_on,19,0,8,,,,,,,,7,,,60,0
9379,note_on,19,0,11,,,,,,,,7,,,46,0
9379,note_on,19,0,9,,,,,,,,7,,,56,0
9400,note_on,21,0,10,,,,,,,,7,,,51,33
9400,note_on,21,0,8,,,,,,,,7,,,58,32
9400,note_on,21,0,11,,,,,,,,7,,,46,32
9400,note_on,21,0,9,,,,,,,,7,,,55,32
9400,note_on,21,0,12,,,,,,,,7,,,34,48
9419,note_on,19,0,12,,,,,,,,7,,,34,0
9419,note_on,19,0,10,,,,,,,,7,,,51,0
9419,note_on,19,0,11,,,,,,,,7,,,46,0
9419,note_on,19,0,8,,,,,,,,7,,,58,0
9419,note_on,19,0,9,,,,,,,,7,,,55,0
9440,note_on,21,0,10,,,,,,,,7,,,51,33
9440,note_on,21,0,11,,,,,,,,7,,,46,32
9440,note_on,21,0,8,,,,,,,,7,,,60,32
9440,note_on,21,0,12,,,,,,,,7,,,34,48
9440,note_on,21,0,9,,,,,,,,7,,,56,32
9459,note_on,19,0,10,,,,,,,,7,,,51,0
9459,note_on,19,0,11,,,,,,,,7,,,46,0
9459,note_on,19,0,12,,,,,,,,7,,,34,0
9459,note_on,19,0,9,,,,,,,,7,,,56,0
9459,note_on,19,0,8,,,,,,,,7,,,60,0
9480,note_on,21,0,11,,,,,,,,7,,,46,32
9480,note_on,21,0,10,,,,,,,,7,,,51,33
9480,note_on,21,0,12,,,,,,,,7,,,34,48
9480,note_on,21,0,9,,,,,,,,7,,,55,32
9480,note_on,21,0,8,,,,,,,,7,,,58,32
9499,note_on,19,0,12,,,,,,,,7,,,34,0
9499,note_on,19,0,11,,,,,,,,7,,,46,0
9499,note_on,19,0,9,,,,,,,,7,,,55,0
9499,note_on,19,0,10,,,,,,,,7,,,51,0
9499,note_on,19,0,8,,,,,,,,7,,,58,0
9520,note_on,21,0,12,,,,,,,,7,,,34,48
9520,note_on,21,0,9,,,,,,,,7,,,56,32
9520,note_on,21,0,8,,,,,,,,7,,,60,32
9520,note_on,21,0,11,,,,,,,,7,,,46,32
9520,note_on,21,0,10,,,,,,,,7,,,51,33
9539,note_on,19,0,9,,,,,,,,7,,,56,0
9539,note_on,19,0,8,,,,,,,,7,,,60,0
9539,note_on,19,0,11,,,,,,,,7,,,46,0
9539,note_on,19,0,12,,,,,,,,7,,,34,0
9539,note_on,19,0,10,,,,,,,,7,,,51,0
9560,note_on,21,0,8,,,,,,,,7,,,58,32
9560,note_on,21,0,9,,,,,,,,7,,,55,32
9560,note_on,21,0,11,,,,,,,,7,,,46,32
9560,note_on,21,0,10,,,,,,,,7,,,51,33
9560,note_on,21,0,12,,,,,,,,7,,,34,48
9579,note_on,19,0,11,,,,,,,,7,,,46,0
9579,note_on,19,0,9,,,,,,,,7,,,55,0
9579,note_on,19,0,10,,,,,,,,7,,,51,0
9579,note_on,19,0,8,,,,,,,,7,,,58,0
9579,note_on,19,0,12,,,,,,,,7,,,34,0
9600,note_on,21,0,11,,,,,,,,7,,,46,32
9600,note_on,21,0,9,,,,,,,,7,,,56,32
9600,note_on,21,0,10,,,,,,,,7,,,51,33
9600,note_on,21,0,12,,,,,,,,7,,,34,48
9600,note_on,21,0,8,,,,,,,,7,,,60,32
9619,note_on,19,0,9,,,,,,,,7,,,56,0
9619,note_on,19,0,11,,,,,,,,7,,,46,0
9619,note_on,19,0,8,,,,,,,,7,,,60,0
9619,note_on,19,0,10,,,,,,,,7,,,51,0
9619,note_on,19,0,12,,,,,,,,7,,,34,0
9640,note_on,21,0,10,,,,,,,,7,,,51,33
9640,note_on,21,0,11,,,,,,,,7,,,46,32
9640,note_on,21,0,9,,,,,,,,7,,,55,32
9640,note_on,21,0,8,,,,,,,,7,,,58,32
9640,note_on,21,0,12,,,,,,,,7,,,34,48
9659,note_on,19,0,9,,,,,,,,7,,,55,0
9659,note_on,19,0,8,,,,,,,,7,,,58,0
9659,note_on,19,0,11,,,,,,,,7,,,46,0
9659,note_on,19,0,10,,,,,,,,7,,,51,0
9659,note_on,19,0,12,,,,,,,,7,,,34,0
9680,note_on,0,0,4,,,,,,,,3,,,60,48
9680,note_on,21,0,8,,,,,,,,7,,,60,32
9680,note_on,21,0,11,,,,,,,,7,,,46,32
9680,note_on,21,0,10,,,,,,,,7,,,51,33
9680,note_on,2341,0,2,,,,,,,,1,,,72,49
9680,note_on,9680,0,3,,,,,,,,2,,,68,48
9680,note_on,21,0,9,,,,,,,,7,,,56,32
9680,note_on,2341,0,4,,,,,,,,3,,,56,48
9680,note_on,21,0,12,,,,,,,,7,,,34,48
9699,note_on,19,0,2,,,,,,,,1,,,72,0
9699,note_on,19,0,3,,,,,,,,2,,,68,0
9699,note_on,19,0,10,,,,,,,,7,,,51,0
9699,note_on,19,0,12,,,,,,,,7,,,34,0
9699,note_on,19,0,4,,,,,,,,3,,,60,0
9699,note_on,0,0,4,,,,,,,,3,,,56,0
9699,note_on,19,0,9,,,,,,,,7,,,56,0
9699,note_on,19,0,11,,,,,,,,7,,,46,0
9699,note_on,19,0,8,,,,,,,,7,,,60,0
9720,note_on,21,0,3,,,,,,,,2,,,67,48
9720,note_on,21,0,8,,,,,,,,7,,,58,32
9720,note_on,0,0,4,,,,,,,,3,,,58,48
9720,note_on,21,0,4,,,,,,,,3,,,55,48
9720,note_on,21,0,2,,,,,,,,1,,,70,49
9720,note_on,21,0,9,,,,,,,,7,,,55,32
9720,note_on,21,0,12,,,,,,,,7,,,34,48
9720,note_on,21,0,11,,,,,,,,7,,,46,32
9720,note_on,21,0,10,,,,,,,,7,,,51,33
9739,note_on,19,0,3,,,,,,,,2,,,67,0
9739,note_on,19,0,11,,,,,,,,7,,,46,0
9739,note_on,19,0,8,,,,,,,,7,,,58,0
9739,note_on,19,0,9,,,,,,,,7,,,55,0
9739,note_on,19,0,4,,,,,,,,3,,,58,0
9739,note_on,19,0,10,,,,,,,,7,,,51,0
9739,note_on,19,0,2,,,,,,,,1,,,70,0
9739,note_on,0,0,4,,,,,,,,3,,,55,0
9739,note_on,19,0,12,,,,,,,,7,,,34,0
9760,note_on,21,0,8,,,,,,,,7,,,60,32
9760,note_on,21,0,2,,,,,,,,1,,,72,49
9760,note_on,21,0,9,,,,,,,,7,,,56,32
9760,note_on,21,0,12,,,,,,,,7,,,34,48
9760,note_on,21,0,10,,,,,,,,7,,,51,33
9760,note_on,0,0,4,,,,,,,,3,,,60,48
9760,note_on,21,0,4,,,,,,,,3,,,56,48
9760,note_on,21,0,3,,,,,,,,2,,,68,48
9760,note_on,21,0,11,,,,,,,,7,,,46,32
9779,note_on,19,0,8,,,,,,,,7,,,60,0
9779,note_on,19,0,4,,,,,,,,3,,,60,0
9779,note_on,0,0,4,,,,,,,,3,,,56,0
9779,note_on,19,0,12,,,,,,,,7,,,34,0
9779,note_on,19,0,9,,,,,,,,7,,,56,0
9779,note_on,19,0,10,,,,,,,,7,,,51,0
9779,note_on,19,0,2,,,,,,,,1,,,72,0
9779,note_on,19,0,11,,,,,,,,7,,,46,0
9779,note_on,19,0,3,,,,,,,,2,,,68,0
9800,note_on,21,0,8,,,,,,,,7,,,58,32
9800,note_on,21,0,2,,,,,,,,1,,,70,49
9800,note_on,21,0,11,,,,,,,,7,,,46,32
9800,note_on,21,0,9,,,,,,,,7,,,55,32
9800,note_on,0,0,4,,,,,,,,3,,,58,48
9800,note_on,21,0,3,,,,,,,,2,,,67,48
9800,note_on,21,0,12,,,,,,,,7,,,34,48
9800,note_on,21,0,10,,,,,,,,7,,,51,33
9800,note_on,21,0,4,,,,,,,,3,,,55,48
9819,note_on,19,0,8,,,,,,,,7,,,58,0
9819,note_on,19,0,9,,,,,,,,7,,,55,0
9819,note_on,19,0,3,,,,,,,,2,,,67,0
9819,note_on,19,0,2,,,,,,,,1,,,70,0
9819,note_on,19,0,12,,,,,,,,7,,,34,0
9819,note_on,19,0,10,,,,,,,,7,,,51,0
9819,note_on,19,0,11,,,,,,,,7,,,46,0
9819,note_on,19,0,4,,,,,,,,3,,,58,0
9819,note_on,0,0,4,,,,,,,,3,,,55,0
9840,note_on,21,0,2,,,,,,,,1,,,72,49
9840,note_on,21,0,3,,,,,,,,2,,,68,48
9840,note_on,21,0,11,,,,,,,,7,,,46,32
9840,note_on,21,0,12,,,,,,,,7,,,34,48
9840,note_on,21,0,9,,,,,,,,7,,,56,32
9840,note_on,21,0,4,,,,,,,,3,,,56,48
9840,note_on,21,0,8,,,,,,,,7,,,60,32
9840,note_on,21,0,10,,,,,,,,7,,,51,33
9840,note_on,0,0,4,,,,,,,,3,,,60,48
9859,note_on,19,0,12,,,,,,,,7,,,34,0
9859,note_on,19,0,11,,,,,,,,7,,,46,0
9859,note_on,19,0,10,,,,,,,,7,,,51,0
9859,note_on,19,0,9,,,,,,,,7,,,56,0
9859,note_on,19,0,2,,,,,,,,1,,,72,0
9859,note_on,0,0,4,,,,,,,,3,,,56,0
9859,note_on,19,0,3,,,,,,,,2,,,68,0
9859,note_on,19,0,8,,,,,,,,7,,,60,0
9859,note_on,19,0,4,,,,,,,,3,,,60,0
9880,note_on,0,0,4,,,,,,,,3,,,58,48
9880,note_on,21,0,3,,,,,,,,2,,,67,48
9880,note_on,21,0,4,,,,,,,,3,,,55,48
9880,note_on,21,0,9,,,,,,,,7,,,55,32
9880,note_on,21,0,8,,,,,,,,7,,,58,32
9880,note_on,21,0,12,,,,,,,,7,,,34,48
9880,note_on,21,0,11,,,,,,,,7,,,46,32
9880,note_on,21,0,10,,,,,,,,7,,,51,33
9880,note_on,21,0,2,,,,,,,,1,,,70,49
9899,note_on,19,0,9,,,,,,,,7,,,55,0
9899,note_on,19,0,11,,,,,,,,7,,,46,0
9899,note_on,19,0,10,,,,,,,,7,,,51,0
9899,note_on,19,0,12,,,,,,,,7,,,34,0
9899,note_on,19,0,2,,,,,,,,1,,,70,0
9899,note_on,0,0,4,,,,,,,,3,,,55,0
9899,note_on,19,0,4,,,,,,,,3,,,58,0
9899,note_on,19,0,8,,,,,,,,7,,,58,0
9899,note_on,19,0,3,,,,,,,,2,,,67,0
9920,note_on,21,0,8,,,,,,,,7,,,62,32
9920,note_on,21,0,3,,,,,,,,2,,,68,48
9920,note_on,21,0,10,,,,,,,,7,,,53,33
9920,note_on,9920,0,5,,,,,,,,4,,,58,48
9920,note_on,0,0,4,,,,,,,,3,,,58,48
9920,note_on,21,0,4,,,,,,,,3,,,62,48
9920,note_on,21,0,11,,,,,,,,7,,,46,32
9920,note_on,0,0,5,,,,,,,,4,,,70,48
9920,note_on,21,0,9,,,,,,,,7,,,56,32
9920,note_on,21,0,12,,,,,,,,7,,,34,48
9920,note_on,21,0,2,,,,,,,,1,,,74,49
9939,note_on,19,0,12,,,,,,,,7,,,34,0
9939,note_on,19,0,8,,,,,,,,7,,,62,0
9939,note_on,19,0,4,,,,,,,,3,,,58,0
9939,note_on,19,0,10,,,,,,,,7,,,53,0
9939,note_on,19,0,2,,,,,,,,1,,,74,0
9939,note_on,19,0,3,,,,,,,,2,,,68,0
9939,note_on,0,0,4,,,,,,,,3,,,62,0
9939,note_on,19,0,9,,,,,,,,7,,,56,0
9939,note_on,19,0,11,,,,,,,,7,,,46,0
9939,note_on,0,0,5,,,,,,,,4,,,58,0
9939,note_on,19,0,5,,,,,,,,4,,,70,0
9960,note_on,21,0,3,,,,,,,,2,,,67,48
9960,note_on,21,0,10,,,,,,,,7,,,55,33
9960,note_on,21,0,12,,,,,,,,7,,,34,48
9960,note_on,21,0,4,,,,,,,,3,,,58,48
9960,note_on,0,0,5,,,,,,,,4,,,70,48
9960,note_on,21,0,9,,,,,,,,7,,,58,32
9960,note_on,21,0,8,,,,,,,,7,,,63,32
9960,note_on,21,0,5,,,,,,,,4,,,58,48
9960,note_on,21,0,11,,,,,,,,7,,,46,32
9960,note_on,0,0,4,,,,,,,,3,,,63,48
9960,note_on,21,0,2,,,,,,,,1,,,75,49
9979,note_on,19,0,4,,,,,,,,3,,,63,0
9979,note_on,19,0,10,,,,,,,,7,,,55,0
9979,note_on,19,0,12,,,,,,,,7,,,34,0
9979,note_on,0,0,5,,,,,,,,4,,,58,0
9979,note_on,19,0,11,,,,,,,,7,,,46,0
9979,note_on,19,0,8,,,,,,,,7,,,63,0
9979,note_on,19,0,2,,,,,,,,1,,,75,0
9979,note_on,19,0,3,,,,,,,,2,,,67,0
9979,note_on,0,0,4,,,,,,,,3,,,58,0
9979,note_on,19,0,5,,,,,,,,4,,,70,0
9979,note_on,19,0,9,,,,,,,,7,,,58,0
10000,note_on,21,0,5,,,,,,,,4,,,70,48
10000,note_on,0,0,5,,,,,,,,4,,,58,48
10000,note_on,21,0,3,,,,,,,,2,,,65,48
10000,note_on,21,0,10,,,,,,,,7,,,62,33
10000,note_on,21,0,9,,,,,,,,7,,,58,32
10000,note_on,21,0,11,,,,,,,,7,,,46,32
10000,note_on,0,0,2,,,,,,,,1,,,77,49
10000,note_on,21,0,2,,,,,,,,1,,,70,49
10000,note_on,21,0,8,,,,,,,,7,,,65,32
10000,note_on,21,0,12,,,,,,,,7,,,34,48
10019,note_on,19,0,9,,,,,,,,7,,,58,0
10019,note_on,19,0,10,,,,,,,,7,,,62,0
10019,note_on,0,0,5,,,,,,,,4,,,70,0
10019,note_on,19,0,5,,,,,,,,4,,,58,0
10019,note_on,19,0,11,,,,,,,,7,,,46,0
10019,note_on,19,0,12,,,,,,,,7,,,34,0
10019,note_on,19,0,3,,,,,,,,2,,,65,0
10019,note_on,19,0,8,,,,,,,,7,,,65,0
10019,note_on,19,0,2,,,,,,,,1,,,77,0
10019,note_on,0,0,2,,,,,,,,1,,,70,0
10040,note_on,21,0,12,,,,,,,,7,,,34,48
10040,note_on,21,0,11,,,,,,,,7,,,46,32
10040,note_on,21,0,9,,,,,,,,7,,,58,32
10040,note_on,0,0,2,,,,,,,,1,,,70,49
10040,note_on,21,0,2,,,,,,,,1,,,78,49
10040,note_on,21,0,10,,,,,,,,7,,,62,33
10040,note_on,21,0,5,,,,,,,,4,,,70,48
10040,note_on,21,0,8,,,,,,,,7,,,66,32
10040,note_on,0,0,5,,,,,,,,4,,,58,48
10040,note_on,21,0,3,,,,,,,,2,,,66,48
10059,note_on,19,0,12,,,,,,,,7,,,34,0
10059,note_on,19,0,11,,,,,,,,7,,,46,0
10059,note_on,19,0,5,,,,,,,,4,,,58,0
10059,note_on,0,0,5,,,,,,,,4,,,70,0
10059,note_on,0,0,2,,,,,,,,1,,,78,0
10059,note_on,19,0,3,,,,,,,,2,,,66,0
10059,note_on,19,0,2,,,,,,,,1,,,70,0
10059,note_on,19,0,8,,,,,,,,7,,,66,0
10059,note_on,19,0,10,,,,,,,,7,,,62,0
10059,note_on,19,0,9,,,,,,,,7,,,58,0
10080,note_on,21,0,11,,,,,,,,7,,,46,32
10080,note_on,21,0,12,,,,,,,,7,,,34,48
10080,note_on,21,0,8,,,,,,,,7,,,67,32
10080,note_on,21,0,3,,,,,,,,2,,,67,48
10080,note_on,21,0,10,,,,,,,,7,,,63,33
10080,note_on,0,0,5,,,,,,,,4,,,70,48
10080,note_on,21,0,5,,,,,,,,4,,,58,48
10080,note_on,21,0,9,,,,,,,,7,,,58,32
10080,note_on,21,0,2,,,,,,,,1,,,79,49
10080,note_on,0,0,2,,,,,,,,1,,,70,49
10099,note_on,19,0,12,,,,,,,,7,,,34,0
10099,note_on,19,0,8,,,,,,,,7,,,67,0
10099,note_on,19,0,10,,,,,,,,7,,,63,0
10099,note_on,0,0,2,,,,,,,,1,,,79,0
10099,note_on,19,0,11,,,,,,,,7,,,46,0
10099,note_on,19,0,5,,,,,,,,4,,,70,0
10099,note_on,0,0,5,,,,,,,,4,,,58,0
10099,note_on,19,0,9,,,,,,,,7,,,58,0
10099,note_on,19,0,3,,,,,,,,2,,,67,0
10099,note_on,19,0,2,,,,,,,,1,,,70,0
10120,note_on,21,0,10,,,,,,,,7,,,62,33
10120,note_on,0,0,5,,,,,,,,4,,,70,48
10120,note_on,21,0,3,,,,,,,,2,,,68,48
10120,note_on,21,0,9,,,,,,,,7,,,65,32
10120,note_on,21,0,12,,,,,,,,7,,,34,48
10120,note_on,0,0,9,,,,,,,,7,,,58,32
10120,note_on,21,0,11,,,,,,,,7,,,46,32
10120,note_on,21,0,5,,,,,,,,4,,,58,48
10120,note_on,21,0,8,,,,,,,,7,,,68,32
10120,note_on,21,0,2,,,,,,,,1,,,80,49
10120,note_on,0,0,2,,,,,,,,1,,,77,49
10139,note_on,19,0,8,,,,,,,,7,,,68,0
10139,note_on,19,0,3,,,,,,,,2,,,68,0
10139,note_on,19,0,11,,,,,,,,7,,,46,0
10139,note_on,0,0,9,,,,,,,,7,,,65,0
10139,note_on,19,0,9,,,,,,,,7,,,58,0
10139,note_on,0,0,5,,,,,,,,4,,,58,0
10139,note_on,19,0,5,,,,,,,,4,,,70,0
10139,note_on,19,0,2,,,,,,,,1,,,77,0
10139,note_on,19,0,10,,,,,,,,7,,,62,0
10139,note_on,19,0,12,,,,,,,,7,,,34,0
10139,note_on,0,0,2,,,,,,,,1,,,80,0
10160,note_on,21,0,2,,,,,,,,1,,,81,49
10160,note_on,21,0,8,,,,,,,,7,,,69,32
10160,note_on,21,0,9,,,,,,,,7,,,58,32
10160,note_on,0,0,9,,,,,,,,7,,,63,32
10160,note_on,21,0,12,,,,,,,,7,,,34,48
10160,note_on,21,0,10,,,,,,,,7,,,60,33
10160,note_on,21,0,3,,,,,,,,2,,,69,48
10160,note_on,0,0,5,,,,,,,,4,,,70,48
10160,note_on,21,0,5,,,,,,,,4,,,58,48
10160,note_on,0,0,2,,,,,,,,1,,,75,49
10160,note_on,21,0,11,,,,,,,,7,,,46,32
10179,note_on,19,0,9,,,,,,,,7,,,63,0
10179,note_on,19,0,10,,,,,,,,7,,,60,0
10179,note_on,19,0,8,,,,,,,,7,,,69,0
10179,note_on,19,0,2,,,,,,,,1,,,75,0
10179,note_on,0,0,2,,,,,,,,1,,,81,0
10179,note_on,0,0,9,,,,,,,,7,,,58,0
10179,note_on,19,0,11,,,,,,,,7,,,46,0
10179,note_on,19,0,3,,,,,,,,2,,,69,0
10179,note_on,19,0,12,,,,,,,,7,,,34,0
10179,note_on,0,0,5,,,,,,,,4,,,58,0
10179,note_on,19,0,5,,,,,,,,4,,,70,0
10200,note_on,21,0,2,,,,,,,,1,,,82,49
10200,note_on,0,0,5,,,,,,,,4,,,70,48
10200,note_on,21,0,9,,,,,,,,7,,,62,32
10200,note_on,0,0,9,,,,,,,,7,,,58,32
10200,note_on,21,0,8,,,,,,,,7,,,70,32
10200,note_on,21,0,11,,,,,,,,7,,,46,32
10200,note_on,21,0,12,,,,,,,,7,,,34,48
10200,note_on,0,0,2,,,,,,,,1,,,74,49
10200,note_on,21,0,5,,,,,,,,4,,,58,48
10200,note_on,21,0,3,,,,,,,,2,,,70,48
10200,note_on,21,0,10,,,,,,,,7,,,58,33
10219,note_on,0,0,9,,,,,,,,7,,,62,0
10219,note_on,19,0,9,,,,,,,,7,,,58,0
10219,note_on,19,0,10,,,,,,,,7,,,58,0
10219,note_on,0,0,5,,,,,,,,4,,,58,0
10219,note_on,19,0,3,,,,,,,,2,,,70,0
10219,note_on,19,0,5,,,,,,,,4,,,70,0
10219,note_on,19,0,12,,,,,,,,7,,,34,0
10219,note_on,19,0,2,,,,,,,,1,,,74,0
10219,note_on,0,0,2,,,,,,,,1,,,82,0
10219,note_on,19,0,8,,,,,,,,7,,,70,0
10219,note_on,19,0,11,,,,,,,,7,,,46,0
10240,note_on,21,0,3,,,,,,,,2,,,70,48
10240,note_on,21,0,11,,,,,,,,7,,,62,32
10240,note_on,21,0,2,,,,,,,,1,,,82,49
10240,note_on,0,0,2,,,,,,,,1,,,77,49
10240,note_on,21,0,12,,,,,,,,7,,,50,48
10240,note_on,21,0,10,,,,,,,,7,,,62,33
10240,note_on,21,0,9,,,,,,,,7,,,65,32
10240,note_on,21,0,8,,,,,,,,7,,,70,32
10259,note_on,19,0,9,,,,,,,,7,,,65,0
10259,note_on,19,0,12,,,,,,,,7,,,50,0
10259,note_on,19,0,10,,,,,,,,7,,,62,0
10259,note_on,0,0,2,,,,,,,,1,,,82,0
10259,note_on,19,0,2,,,,,,,,1,,,77,0
10259,note_on,19,0,3,,,,,,,,2,,,70,0
10259,note_on,19,0,11,,,,,,,,7,,,62,0
10259,note_on,19,0,8,,,,,,,,7,,,70,0
10280,note_on,21,0,2,,,,,,,,1,,,82,49
10280,note_on,21,0,10,,,,,,,,7,,,60,33
10280,note_on,21,0,3,,,,,,,,2,,,70,48
10280,note_on,21,0,11,,,,,,,,7,,,60,32
10280,note_on,21,0,12,,,,,,,,7,,,48,48
10280,note_on,0,0,2,,,,,,,,1,,,75,49
10280,note_on,21,0,8,,,,,,,,7,,,70,32
10280,note_on,21,0,9,,,,,,,,7,,,63,32
10299,note_on,19,0,2,,,,,,,,1,,,75,0
10299,note_on,19,0,11,,,,,,,,7,,,60,0
10299,note_on,19,0,10,,,,,,,,7,,,60,0
10299,note_on,19,0,12,,,,,,,,7,,,48,0
10299,note_on,19,0,8,,,,,,,,7,,,70,0
10299,note_on,0,0,2,,,,,,,,1,,,82,0
10299,note_on,19,0,9,,,,,,,,7,,,63,0
10299,note_on,19,0,3,,,,,,,,2,,,70,0
10320,note_on,21,0,10,,,,,,,,7,,,58,33
10320,note_on,21,0,2,,,,,,,,1,,,82,49
10320,note_on,0,0,2,,,,,,,,1,,,74,49
10320,note_on,21,0,9,,,,,,,,7,,,62,32
10320,note_on,21,0,11,,,,,,,,7,,,58,32
10320,note_on,21,0,12,,,,,,,,7,,,46,48
10320,note_on,21,0,8,,,,,,,,7,,,70,32
10320,note_on,21,0,3,,,,,,,,2,,,70,48
10339,note_on,19,0,3,,,,,,,,2,,,70,0
10339,note_on,19,0,2,,,,,,,,1,,,74,0
10339,note_on,19,0,12,,,,,,,,7,,,46,0
10339,note_on,19,0,9,,,,,,,,7,,,62,0
10339,note_on,19,0,8,,,,,,,,7,,,70,0
10339,note_on,0,0,2,,,,,,,,1,,,82,0
10339,note_on,19,0,10,,,,,,,,7,,,58,0
10339,note_on,19,0,11,,,,,,,,7,,,58,0
10360,note_on,21,0,10,,,,,,,,7,,,62,33
10360,note_on,21,0,2,,,,,,,,1,,,82,49
10360,note_on,21,0,12,,,,,,,,7,,,50,48
10360,note_on,0,0,2,,,,,,,,1,,,77,49
10360,note_on,21,0,9,,,,,,,,7,,,65,32
10360,note_on,21,0,8,,,,,,,,7,,,70,32
10360,note_on,21,0,3,,,,,,,,2,,,70,48
10360,note_on,21,0,11,,,,,,,,7,,,62,32
10379,note_on,19,0,8,,,,,,,,7,,,70,0
10379,note_on,0,0,2,,,,,,,,1,,,82,0
10379,note_on,19,0,2,,,,,,,,1,,,77,0
10379,note_on,19,0,9,,,,,,,,7,,,65,0
10379,note_on,19,0,10,,,,,,,,7,,,62,0
10379,note_on,19,0,12,,,,,,,,7,,,50,0
10379,note_on,19,0,11,,,,,,,,7,,,62,0
10379,note_on,19,0,3,,,,,,,,2,,,70,0
10400,note_on,21,0,11,,,,,,,,7,,,60,32
10400,note_on,21,0,10,,,,,,,,7,,,60,33
10400,note_on,21,0,9,,,,,,,,7,,,63,32
10400,note_on,21,0,2,,,,,,,,1,,,82,49
10400,note_on,21,0,3,,,,,,,,2,,,70,48
10400,note_on,21,0,12,,,,,,,,7,,,48,48
10400,note_on,0,0,2,,,,,,,,1,,,75,49
10400,note_on,21,0,8,,,,,,,,7,,,70,32
10419,note_on,0,0,2,,,,,,,,1,,,82,0
10419,note_on,19,0,8,,,,,,,,7,,,70,0
10419,note_on,19,0,9,,,,,,,,7,,,63,0
10419,note_on,19,0,12,,,,,,,,7,,,48,0
10419,note_on,19,0,10,,,,,,,,7,,,60,0
10419,note_on,19,0,11,,,,,,,,7,,,60,0
10419,note_on,19,0,2,,,,,,,,1,,,75,0
10419,note_on,19,0,3,,,,,,,,2,,,70,0
10440,note_on,21,0,12,,,,,,,,7,,,46,48
10440,note_on,21,0,2,,,,,,,,1,,,82,49
10440,note_on,0,0,2,,,,,,,,1,,,74,49
10440,note_on,21,0,8,,,,,,,,7,,,70,32
10440,note_on,21,0,9,,,,,,,,7,,,62,32
10440,note_on,21,0,3,,,,,,,,2,,,70,48
10440,note_on,21,0,10,,,,,,,,7,,,58,33
10440,note_on,21,0,11,,,,,,,,7,,,58,32
10459,note_on,19,0,9,,,,,,,,7,,,62,0
10459,note_on,19,0,11,,,,,,,,7,,,58,0
10459,note_on,19,0,2,,,,,,,,1,,,74,0
10459,note_on,19,0,10,,,,,,,,7,,,58,0
10459,note_on,19,0,12,,,,,,,,7,,,46,0
10480,note_on,21,0,12,,,,,,,,7,,,46,48
10480,note_on,21,0,11,,,,,,,,7,,,58,32
10480,note_on,21,0,2,,,,,,,,1,,,84,49
10480,note_on,0,0,2,,,,,,,,1,,,74,49
10480,note_on,40,0,8,,,,,,,,7,,,72,32
10480,note_on,21,0,10,,,,,,,,7,,,62,33
10480,note_on,21,0,9,,,,,,,,7,,,74,32
10480,note_on,40,0,3,,,,,,,,2,,,72,48
10482,note_on,2,0,3,,,,,,,,2,,,70,0
10482,note_on,2,0,8,,,,,,,,7,,,70,0
10482,note_on,2,0,2,,,,,,,,1,,,82,0
10499,note_on,17,0,2,,,,,,,,1,,,74,0
10499,note_on,19,0,10,,,,,,,,7,,,62,0
10499,note_on,19,0,12,,,,,,,,7,,,46,0
10499,note_on,19,0,11,,,,,,,,7,,,58,0
10499,note_on,19,0,9,,,,,,,,7,,,74,0
10500,note_on,18,0,8,,,,,,,,7,,,70,32
10500,note_on,18,0,3,,,,,,,,2,,,70,48
10500,note_on,1,0,2,,,,,,,,1,,,82,49
10502,note_on,2,0,2,,,,,,,,1,,,84,0
10502,note_on,2,0,8,,,,,,,,7,,,72,0
10502,note_on,2,0,3,,,,,,,,2,,,72,0
10520,note_on,21,0,11,,,,,,,,7,,,60,32
10520,note_on,21,0,12,,,,,,,,7,,,48,48
10520,note_on,18,0,3,,,,,,,,2,,,69,48
10520,note_on,21,0,10,,,,,,,,7,,,63,33
10520,note_on,21,0,9,,,,,,,,7,,,75,32
10520,note_on,18,0,8,,,,,,,,7,,,69,32
10520,note_on,18,0,2,,,,,,,,1,,,75,49
10520,note_on,0,0,2,,,,,,,,1,,,81,49
10522,note_on,2,0,3,,,,,,,,2,,,70,0
10522,note_on,2,0,2,,,,,,,,1,,,82,0
10522,note_on,2,0,8,,,,,,,,7,,,70,0
10539,note_on,19,0,9,,,,,,,,7,,,75,0
10539,note_on,19,0,11,,,,,,,,7,,,60,0
10539,note_on,19,0,10,,,,,,,,7,,,63,0
10539,note_on,17,0,2,,,,,,,,1,,,75,0
10539,note_on,19,0,12,,,,,,,,7,,,48,0
10540,note_on,18,0,3,,,,,,,,2,,,67,48
10540,note_on,18,0,8,,,,,,,,7,,,67,32
10540,note_on,1,0,2,,,,,,,,1,,,79,49
10542,note_on,2,0,2,,,,,,,,1,,,81,0
10542,note_on,2,0,3,,,,,,,,2,,,69,0
10542,note_on,2,0,8,,,,,,,,7,,,69,0
10559,note_on,17,0,2,,,,,,,,1,,,79,0
10559,note_on,17,0,8,,,,,,,,7,,,67,0
10560,note_on,1,0,2,,,,,,,,1,,,77,49
10560,note_on,21,0,9,,,,,,,,7,,,77,32
10560,note_on,18,0,3,,,,,,,,2,,,65,48
10560,note_on,21,0,11,,,,,,,,7,,,62,32
10560,note_on,21,0,12,,,,,,,,7,,,50,48
10560,note_on,21,0,10,,,,,,,,7,,,65,33
10562,note_on,2,0,3,,,,,,,,2,,,67,0
10579,note_on,19,0,11,,,,,,,,7,,,62,0
10579,note_on,19,0,10,,,,,,,,7,,,65,0
10579,note_on,19,0,12,,,,,,,,7,,,50,0
10579,note_on,19,0,9,,,,,,,,7,,,77,0
10580,note_on,21,0,8,,,,,,,,7,,,65,32
10600,note_on,21,0,9,,,,,,,,7,,,72,32
10600,note_on,21,0,10,,,,,,,,7,,,60,33
10600,note_on,21,0,12,,,,,,,,7,,,45,48
10600,note_on,40,0,2,,,,,,,,1,,,72,49
10600,note_on,21,0,11,,,,,,,,7,,,57,32
10619,note_on,19,0,9,,,,,,,,7,,,72,0
10619,note_on,19,0,12,,,,,,,,7,,,45,0
10619,note_on,19,0,10,,,,,,,,7,,,60,0
10619,note_on,19,0,2,,,,,,,,1,,,72,0
10619,note_on,19,0,11,,,,,,,,7,,,57,0
10640,note_on,21,0,11,,,,,,,,7,,,59,32
10640,note_on,21,0,2,,,,,,,,1,,,74,49
10640,note_on,21,0,9,,,,,,,,7,,,74,32
10640,note_on,21,0,12,,,,,,,,7,,,47,48
10640,note_on,21,0,10,,,,,,,,7,,,62,33
10659,note_on,19,0,9,,,,,,,,7,,,74,0
10659,note_on,19,0,10,,,,,,,,7,,,62,0
10659,note_on,19,0,11,,,,,,,,7,,,59,0
10659,note_on,19,0,2,,,,,,,,1,,,74,0
10659,note_on,19,0,12,,,,,,,,7,,,47,0
10679,note_on,117,0,3,,,,,,,,2,,,65,0
10679,note_on,20,0,2,,,,,,,,1,,,77,0
10679,note_on,99,0,8,,,,,,,,7,,,65,0
10680,note_on,21,0,12,,,,,,,,7,,,48,48
10680,note_on,21,0,11,,,,,,,,7,,,60,32
10680,note_on,21,0,10,,,,,,,,7,,,63,33
10680,note_on,1,0,2,,,,,,,,1,,,75,49
10680,note_on,1,0,3,,,,,,,,2,,,63,48
10680,note_on,21,0,9,,,,,,,,7,,,75,32
10699,note_on,19,0,9,,,,,,,,7,,,75,0
10699,note_on,19,0,10,,,,,,,,7,,,63,0
10699,note_on,19,0,11,,,,,,,,7,,,60,0
10699,note_on,19,0,12,,,,,,,,7,,,48,0
10700,note_on,21,0,8,,,,,,,,7,,,63,32
10720,note_on,21,0,9,,,,,,,,7,,,70,32
10720,note_on,40,0,2,,,,,,,,1,,,70,49
10720,note_on,21,0,10,,,,,,,,7,,,58,33
10720,note_on,21,0,12,,,,,,,,7,,,43,48
10720,note_on,21,0,11,,,,,,,,7,,,55,32
10739,note_on,19,0,11,,,,,,,,7,,,55,0
10739,note_on,19,0,9,,,,,,,,7,,,70,0
10739,note_on,19,0,10,,,,,,,,7,,,58,0
10739,note_on,19,0,12,,,,,,,,7,,,43,0
10739,note_on,19,0,2,,,,,,,,1,,,70,0
10760,note_on,21,0,11,,,,,,,,7,,,57,32
10760,note_on,21,0,10,,,,,,,,7,,,60,33
10760,note_on,21,0,12,,,,,,,,7,,,45,48
10760,note_on,21,0,2,,,,,,,,1,,,72,49
10760,note_on,21,0,9,,,,,,,,7,,,72,32
10779,note_on,19,0,9,,,,,,,,7,,,72,0
10779,note_on,19,0,2,,,,,,,,1,,,72,0
10779,note_on,19,0,10,,,,,,,,7,,,60,0
10779,note_on,19,0,12,,,,,,,,7,,,45,0
10779,note_on,19,0,11,,,,,,,,7,,,57,0
10799,note_on,99,0,8,,,,,,,,7,,,63,0
10799,note_on,20,0,2,,,,,,,,1,,,75,0
10799,note_on,119,0,3,,,,,,,,2,,,63,0
10800,note_on,21,0,10,,,,,,,,7,,,53,33
10800,note_on,21,0,11,,,,,,,,7,,,58,32
10800,note_on,21,0,12,,,,,,,,7,,,46,48
10800,note_on,1,0,2,,,,,,,,1,,,74,49
10800,note_on,1,0,8,,,,,,,,7,,,62,32
10800,note_on,21,0,9,,,,,,,,7,,,65,32
10800,note_on,1,0,3,,,,,,,,2,,,62,48
10819,note_on,19,0,9,,,,,,,,7,,,65,0
10819,note_on,19,0,10,,,,,,,,7,,,53,0
10819,note_on,19,0,11,,,,,,,,7,,,58,0
10819,note_on,19,0,12,,,,,,,,7,,,46,0
10840,note_on,21,0,9,,,,,,,,7,,,69,32
10840,note_on,21,0,12,,,,,,,,7,,,41,48
10840,note_on,40,0,3,,,,,,,,2,,,65,48
10840,note_on,21,0,11,,,,,,,,7,,,53,32
10840,note_on,21,0,10,,,,,,,,7,,,57,33
10840,note_on,40,0,2,,,,,,,,1,,,77,49
10840,note_on,40,0,8,,,,,,,,7,,,65,32
10842,note_on,2,0,8,,,,,,,,7,,,62,0
10842,note_on,2,0,3,,,,,,,,2,,,62,0
10842,note_on,2,0,2,,,,,,,,1,,,74,0
10859,note_on,19,0,12,,,,,,,,7,,,41,0
10859,note_on,19,0,9,,,,,,,,7,,,69,0
10859,note_on,19,0,11,,,,,,,,7,,,53,0
10859,note_on,19,0,10,,,,,,,,7,,,57,0
10879,note_on,37,0,2,,,,,,,,1,,,77,0
10879,note_on,37,0,3,,,,,,,,2,,,65,0
10879,note_on,37,0,8,,,,,,,,7,,,65,0
10880,note_on,1,0,3,,,,,,,,2,,,62,48
10880,note_on,1,0,2,,,,,,,,1,,,74,49
10880,note_on,21,0,9,,,,,,,,7,,,70,32
10880,note_on,21,0,10,,,,,,,,7,,,58,33
10880,note_on,1,0,8,,,,,,,,7,,,62,32
10880,note_on,21,0,12,,,,,,,,7,,,43,48
10880,note_on,21,0,11,,,,,,,,7,,,55,32
10899,note_on,19,0,9,,,,,,,,7,,,70,0
10899,note_on,19,0,8,,,,,,,,7,,,62,0
10899,note_on,19,0,3,,,,,,,,2,,,62,0
10899,note_on,19,0,11,,,,,,,,7,,,55,0
10899,note_on,19,0,12,,,,,,,,7,,,43,0
10899,note_on,19,0,2,,,,,,,,1,,,74,0
10899,note_on,19,0,10,,,,,,,,7,,,58,0
10920,note_on,21,0,12,,,,,,,,7,,,39,48
10920,note_on,21,0,8,,,,,,,,7,,,60,32
10920,note_on,21,0,9,,,,,,,,7,,,67,32
10920,note_on,21,0,2,,,,,,,,1,,,72,49
10920,note_on,21,0,3,,,,,,,,2,,,60,48
10920,note_on,21,0,10,,,,,,,,7,,,55,34
10920,note_on,21,0,11,,,,,,,,7,,,51,32
10939,note_on,19,0,12,,,,,,,,7,,,39,0
10939,note_on,19,0,10,,,,,,,,7,,,55,0
10939,note_on,19,0,9,,,,,,,,7,,,67,0
10939,note_on,19,0,11,,,,,,,,7,,,51,0
10960,note_on,21,0,10,,,,,,,,7,,,55,33
10960,note_on,21,0,12,,,,,,,,7,,,36,48
10960,note_on,21,0,11,,,,,,,,7,,,48,32
10960,note_on,40,0,8,,,,,,,,7,,,63,32
10960,note_on,40,0,2,,,,,,,,1,,,75,49
10960,note_on,40,0,3,,,,,,,,2,,,63,48
10960,note_on,21,0,9,,,,,,,,7,,,67,32
10962,note_on,2,0,8,,,,,,,,7,,,60,0
10962,note_on,2,0,3,,,,,,,,2,,,60,0
10962,note_on,2,0,2,,,,,,,,1,,,72,0
10979,note_on,19,0,10,,,,,,,,7,,,55,0
10979,note_on,19,0,9,,,,,,,,7,,,67,0
10979,note_on,19,0,12,,,,,,,,7,,,36,0
10979,note_on,19,0,11,,,,,,,,7,,,48,0
10999,note_on,37,0,3,,,,,,,,2,,,63,0
10999,note_on,37,0,8,,,,,,,,7,,,63,0
10999,note_on,37,0,2,,,,,,,,1,,,75,0
11000,note_on,1,0,8,,,,,,,,7,,,60,32
11000,note_on,1,0,3,,,,,,,,2,,,60,48
11000,note_on,1,0,2,,,,,,,,1,,,72,49
11000,note_on,21,0,10,,,,,,,,7,,,57,33
11000,note_on,21,0,11,,,,,,,,7,,,53,32
11000,note_on,21,0,12,,,,,,,,7,,,41,48
11000,note_on,21,0,9,,,,,,,,7,,,69,32
11019,note_on,19,0,3,,,,,,,,2,,,60,0
11019,note_on,19,0,10,,,,,,,,7,,,57,0
11019,note_on,19,0,12,,,,,,,,7,,,41,0
11019,note_on,19,0,11,,,,,,,,7,,,53,0
11019,note_on,19,0,2,,,,,,,,1,,,72,0
11019,note_on,19,0,8,,,,,,,,7,,,60,0
11019,note_on,19,0,9,,,,,,,,7,,,69,0
11040,note_on,21,0,12,,,,,,,,7,,,34,47
11040,note_on,21,0,8,,,,,,,,7,,,58,32
11040,note_on,21,0,2,,,,,,,,1,,,70,52
11040,note_on,3701,0,1,,,,,,,,0,,,82,51
11040,note_on,1061,0,4,,,,,,,,3,,,46,35
11040,note_on,0,0,4,,,,,,,,3,,,58,35
11040,note_on,21,0,3,,,,,,,,2,,,58,51
11040,note_on,21,0,9,,,,,,,,7,,,70,35
11040,note_on,21,0,10,,,,,,,,7,,,58,33
11040,note_on,21,0,11,,,,,,,,7,,,46,35
11059,note_on,19,0,9,,,,,,,,7,,,70,0
11059,note_on,0,0,4,,,,,,,,3,,,46,0
11059,note_on,19,0,4,,,,,,,,3,,,58,0
11059,note_on,19,0,3,,,,,,,,2,,,58,0
11059,note_on,19,0,8,,,,,,,,7,,,58,0
11059,note_on,19,0,12,,,,,,,,7,,,34,0
11059,note_on,19,0,11,,,,,,,,7,,,46,0
11059,note_on,19,0,2,,,,,,,,1,,,70,0
11059,note_on,19,0,10,,,,,,,,7,,,58,0
11059,note_on,19,0,1,,,,,,,,0,,,82,0
11080,note_on,21,0,2,,,,,,,,1,,,72,76
11080,note_on,21,0,3,,,,,,,,2,,,60,76
11080,note_on,21,0,8,,,,,,,,7,,,60,63
11080,note_on,21,0,11,,,,,,,,7,,,48,65
11080,note_on,21,0,12,,,,,,,,7,,,36,78
11080,note_on,21,0,10,,,,,,,,7,,,60,63
11080,note_on,21,0,1,,,,,,,,0,,,84,75
11080,note_on,0,0,4,,,,,,,,3,,,60,66
11080,note_on,21,0,4,,,,,,,,3,,,48,66
11080,note_on,21,0,9,,,,,,,,7,,,72,71
11099,note_on,19,0,12,,,,,,,,7,,,36,0
11099,note_on,19,0,3,,,,,,,,2,,,60,0
11099,note_on,19,0,1,,,,,,,,0,,,84,0
11099,note_on,19,0,2,,,,,,,,1,,,72,0
11099,note_on,19,0,4,,,,,,,,3,,,60,0
11099,note_on,19,0,11,,,,,,,,7,,,48,0
11099,note_on,19,0,10,,,,,,,,7,,,60,0
11099,note_on,19,0,8,,,,,,,,7,,,60,0
11099,note_on,19,0,9,,,,,,,,7,,,72,0
11099,note_on,0,0,4,,,,,,,,3,,,48,0
11120,note_on,21,0,3,,,,,,,,2,,,62,101
11120,note_on,21,0,1,,,,,,,,0,,,86,99
11120,note_on,21,0,9,,,,,,,,7,,,74,106
11120,note_on,21,0,8,,,,,,,,7,,,62,93
11120,note_on,21,0,2,,,,,,,,1,,,74,100
11120,note_on,21,0,10,,,,,,,,7,,,62,94
11120,note_on,0,0,4,,,,,,,,3,,,62,96
11120,note_on,21,0,4,,,,,,,,3,,,50,96
11120,note_on,21,0,11,,,,,,,,7,,,50,94
11120,note_on,21,0,12,,,,,,,,7,,,38,110
11139,note_on,0,0,4,,,,,,,,3,,,50,0
11139,note_on,19,0,10,,,,,,,,7,,,62,0
11139,note_on,19,0,11,,,,,,,,7,,,50,0
11139,note_on,19,0,1,,,,,,,,0,,,86,0
11139,note_on,19,0,2,,,,,,,,1,,,74,0
11139,note_on,19,0,3,,,,,,,,2,,,62,0
11139,note_on,19,0,9,,,,,,,,7,,,74,0
11139,note_on,19,0,8,,,,,,,,7,,,62,0
11139,note_on,19,0,12,,,,,,,,7,,,38,0
11139,note_on,19,0,4,,,,,,,,3,,,62,0
11160,note_on,21,0,1,,,,,,,,0,,,87,127
11160,note_on,21,0,8,,,,,,,,7,,,63,127
11160,note_on,21,0,3,,,,,,,,2,,,63,127
11160,note_on,21,0,9,,,,,,,,7,,,75,127
11160,note_on,21,0,10,,,,,,,,7,,,63,127
11160,note_on,941,0,5,,,,,,,,4,,,63,127
11160,note_on,21,0,11,,,,,,,,7,,,51,126
11160,note_on,0,0,5,,,,,,,,4,,,51,127
11160,note_on,21,0,12,,,,,,,,7,,,39,127
11160,note_on,0,0,4,,,,,,,,3,,,51,127
11160,note_on,0,0,6,,,,,,,,5,,,63,127
11160,note_on,11160,0,6,,,,,,,,5,,,75,127
11160,note_on,11160,0,7,,,,,,,,6,,,51,127
11160,note_on,21,0,2,,,,,,,,1,,,75,127
11160,note_on,21,0,4,,,,,,,,3,,,63,127
11199,note_on,0,0,5,,,,,,,,4,,,63,0
11199,note_on,39,0,9,,,,,,,,7,,,75,0
11199,note_on,39,0,12,,,,,,,,7,,,39,0
11199,note_on,39,0,8,,,,,,,,7,,,63,0
11199,note_on,39,0,3,,,,,,,,2,,,63,0
11199,note_on,0,0,6,,,,,,,,5,,,75,0
11199,note_on,39,0,7,,,,,,,,6,,,51,0
11199,note_on,39,0,1,,,,,,,,0,,,87,0
11199,note_on,39,0,6,,,,,,,,5,,,63,0
11199,note_on,39,0,10,,,,,,,,7,,,63,0
11199,note_on,0,0,4,,,,,,,,3,,,63,0
11199,note_on,39,0,4,,,,,,,,3,,,51,0
11199,note_on,39,0,5,,,,,,,,4,,,51,0
11199,note_on,39,0,2,,,,,,,,1,,,75,0
11199,note_on,39,0,11,,,,,,,,7,,,51,0
11200,note_on,0,0,3,,,,,,,,2,,,63,127
11200,note_on,1,0,3,,,,,,,,2,,,75,127
11200,note_on,1,0,7,,,,,,,,6,,,51,127
11200,note_on,0,0,4,,,,,,,,3,,,63,127
11200,note_on,1,0,4,,,,,,,,3,,,55,127
11200,note_on,1,0,11,,,,,,,,7,,,55,127
11200,note_on,1,0,1,,,,,,,,0,,,87,127
11200,note_on,0,0,5,,,,,,,,4,,,51,127
11200,note_on,1,0,8,,,,,,,,7,,,75,127
11200,note_on,1,0,9,,,,,,,,7,,,67,127
11200,note_on,0,0,9,,,,,,,,7,,,75,127
11200,note_on,1,0,2,,,,,,,,1,,,75,127
11200,note_on,1,0,10,,,,,,,,7,,,67,127
11200,note_on,1,0,5,,,,,,,,4,,,67,127
11200,note_on,0,0,8,,,,,,,,7,,,67,127
11200,note_on,0,0,5,,,,,,,,4,,,63,127
11200,note_on,1,0,6,,,,,,,,5,,,75,127
11200,note_on,1,0,12,,,,,,,,7,,,43,127
11200,note_on,0,0,6,,,,,,,,5,,,63,127
11239,note_on,0,0,6,,,,,,,,5,,,75,0
11239,note_on,39,0,2,,,,,,,,1,,,75,0
11239,note_on,39,0,11,,,,,,,,7,,,55,0
11239,note_on,39,0,9,,,,,,,,7,,,75,0
11239,note_on,39,0,7,,,,,,,,6,,,51,0
11239,note_on,0,0,9,,,,,,,,7,,,67,0
11239,note_on,39,0,6,,,,,,,,5,,,63,0
11239,note_on,0,0,3,,,,,,,,2,,,75,0
11239,note_on,39,0,5,,,,,,,,4,,,63,0
11239,note_on,0,0,8,,,,,,,,7,,,75,0
11239,note_on,39,0,8,,,,,,,,7,,,67,0
11239,note_on,39,0,4,,,,,,,,3,,,63,0
11239,note_on,0,0,4,,,,,,,,3,,,55,0
11239,note_on,0,0,5,,,,,,,,4,,,67,0
11239,note_on,39,0,1,,,,,,,,0,,,87,0
11239,note_on,0,0,5,,,,,,,,4,,,51,0
11239,note_on,39,0,10,,,,,,,,7,,,67,0
11239,note_on,39,0,12,,,,,,,,7,,,43,0
11239,note_on,39,0,3,,,,,,,,2,,,63,0
11240,note_on,1,0,9,,,,,,,,7,,,75,127
11240,note_on,0,0,9,,,,,,,,7,,,67,127
11240,note_on,1,0,7,,,,,,,,6,,,51,127
11240,note_on,0,0,5,,,,,,,,4,,,63,127
11240,note_on,1,0,1,,,,,,,,0,,,87,127
11240,note_on,1,0,8,,,,,,,,7,,,75,127
11240,note_on,1,0,3,,,,,,,,2,,,75,127
11240,note_on,1,0,2,,,,,,,,1,,,75,127
11240,note_on,1,0,5,,,,,,,,4,,,70,127
11240,note_on,0,0,3,,,,,,,,2,,,63,127
11240,note_on,1,0,6,,,,,,,,5,,,75,127
11240,note_on,1,0,4,,,,,,,,3,,,58,127
11240,note_on,0,0,4,,,,,,,,3,,,63,127
11240,note_on,1,0,11,,,,,,,,7,,,58,127
11240,note_on,0,0,5,,,,,,,,4,,,51,127
11240,note_on,1,0,10,,,,,,,,7,,,70,127
11240,note_on,1,0,12,,,,,,,,7,,,46,127
11240,note_on,0,0,8,,,,,,,,7,,,67,127
11240,note_on,0,0,6,,,,,,,,5,,,63,127
11279,note_on,39,0,9,,,,,,,,7,,,67,0
11279,note_on,39,0,6,,,,,,,,5,,,63,0
11279,note_on,0,0,6,,,,,,,,5,,,75,0
11279,note_on,0,0,4,,,,,,,,3,,,58,0
11279,note_on,39,0,11,,,,,,,,7,,,58,0
11279,note_on,39,0,10,,,,,,,,7,,,70,0
11279,note_on,39,0,2,,,,,,,,1,,,75,0
11279,note_on,0,0,5,,,,,,,,4,,,70,0
11279,note_on,0,0,3,,,,,,,,2,,,75,0
11279,note_on,39,0,5,,,,,,,,4,,,63,0
11279,note_on,39,0,12,,,,,,,,7,,,46,0
11279,note_on,0,0,9,,,,,,,,7,,,75,0
11279,note_on,39,0,1,,,,,,,,0,,,87,0
11279,note_on,39,0,7,,,,,,,,6,,,51,0
11279,note_on,39,0,8,,,,,,,,7,,,67,0
11279,note_on,0,0,8,,,,,,,,7,,,75,0
11279,note_on,0,0,5,,,,,,,,4,,,51,0
11279,note_on,39,0,3,,,,,,,,2,,,63,0
11279,note_on,39,0,4,,,,,,,,3,,,63,0
11280,note_on,1,0,12,,,,,,,,7,,,39,127
11280,note_on,1,0,10,,,,,,,,7,,,63,127
11280,note_on,0,0,6,,,,,,,,5,,,63,127
11280,note_on,1,0,6,,,,,,,,5,,,75,127
11280,note_on,1,0,7,,,,,,,,6,,,51,127
11280,note_on,1,0,11,,,,,,,,7,,,51,127
11280,note_on,1,0,4,,,,,,,,3,,,63,127
11280,note_on,0,0,9,,,,,,,,7,,,75,127
11280,note_on,0,0,3,,,,,,,,2,,,63,127
11280,note_on,0,0,4,,,,,,,,3,,,51,127
11280,note_on,0,0,8,,,,,,,,7,,,67,127
11280,note_on,1,0,1,,,,,,,,0,,,87,127
11280,note_on,1,0,9,,,,,,,,7,,,67,127
11280,note_on,1,0,3,,,,,,,,2,,,75,127
11280,note_on,1,0,2,,,,,,,,1,,,75,127
11280,note_on,1,0,5,,,,,,,,4,,,51,127
11280,note_on,1,0,8,,,,,,,,7,,,75,127
11280,note_on,0,0,5,,,,,,,,4,,,63,127
11319,note_on,39,0,3,,,,,,,,2,,,63,0
11319,note_on,39,0,4,,,,,,,,3,,,51,0
11319,note_on,0,0,4,,,,,,,,3,,,63,0
11319,note_on,39,0,12,,,,,,,,7,,,39,0
11319,note_on,0,0,8,,,,,,,,7,,,75,0
11319,note_on,39,0,8,,,,,,,,7,,,67,0
11319,note_on,0,0,3,,,,,,,,2,,,75,0
11319,note_on,39,0,10,,,,,,,,7,,,63,0
11319,note_on,0,0,5,,,,,,,,4,,,51,0
11319,note_on,39,0,1,,,,,,,,0,,,87,0
11319,note_on,39,0,7,,,,,,,,6,,,51,0
11319,note_on,39,0,11,,,,,,,,7,,,51,0
11319,note_on,39,0,2,,,,,,,,1,,,75,0
11319,note_on,39,0,9,,,,,,,,7,,,75,0
11319,note_on,0,0,9,,,,,,,,7,,,67,0
11319,note_on,39,0,6,,,,,,,,5,,,63,0
11319,note_on,0,0,6,,,,,,,,5,,,75,0
11319,note_on,39,0,5,,,,,,,,4,,,63,0
11320,note_on,1,0,11,,,,,,,,7,,,55,127
11320,note_on,1,0,12,,,,,,,,7,,,43,127
11320,note_on,0,0,4,,,,,,,,3,,,55,127
11320,note_on,1,0,4,,,,,,,,3,,,63,127
11320,note_on,1,0,6,,,,,,,,5,,,75,127
11320,note_on,0,0,6,,,,,,,,5,,,63,127
11320,note_on,0,0,5,,,,,,,,4,,,51,127
11320,note_on,1,0,5,,,,,,,,4,,,67,127
11320,note_on,1,0,1,,,,,,,,0,,,87,127
11320,note_on,0,0,5,,,,,,,,4,,,63,127
11320,note_on,1,0,7,,,,,,,,6,,,51,127
11320,note_on,0,0,9,,,,,,,,7,,,75,127
11320,note_on,1,0,9,,,,,,,,7,,,67,127
11320,note_on,1,0,10,,,,,,,,7,,,67,127
11320,note_on,1,0,8,,,,,,,,7,,,75,127
11320,note_on,0,0,8,,,,,,,,7,,,67,127
11320,note_on,1,0,2,,,,,,,,1,,,75,127
11320,note_on,0,0,3,,,,,,,,2,,,63,127
11320,note_on,1,0,3,,,,,,,,2,,,75,127
11359,note_on,39,0,7,,,,,,,,6,,,51,0
11359,note_on,39,0,3,,,,,,,,2,,,63,0
11359,note_on,0,0,9,,,,,,,,7,,,67,0
11359,note_on,39,0,11,,,,,,,,7,,,55,0
11359,note_on,39,0,12,,,,,,,,7,,,43,0
11359,note_on,39,0,10,,,,,,,,7,,,67,0
11359,note_on,0,0,5,,,,,,,,4,,,67,0
11359,note_on,0,0,5,,,,,,,,4,,,51,0
11359,note_on,39,0,5,,,,,,,,4,,,63,0
11359,note_on,39,0,1,,,,,,,,0,,,87,0
11359,note_on,39,0,9,,,,,,,,7,,,75,0
11359,note_on,39,0,2,,,,,,,,1,,,75,0
11359,note_on,0,0,3,,,,,,,,2,,,75,0
11359,note_on,0,0,4,,,,,,,,3,,,63,0
11359,note_on,39,0,4,,,,,,,,3,,,55,0
11359,note_on,0,0,6,,,,,,,,5,,,75,0
11359,note_on,39,0,6,,,,,,,,5,,,63,0
11359,note_on,39,0,8,,,,,,,,7,,,67,0
11359,note_on,0,0,8,,,,,,,,7,,,75,0
11360,note_on,1,0,2,,,,,,,,1,,,75,127
11360,note_on,1,0,7,,,,,,,,6,,,51,127
11360,note_on,0,0,4,,,,,,,,3,,,58,127
11360,note_on,1,0,4,,,,,,,,3,,,63,127
11360,note_on,1,0,5,,,,,,,,4,,,70,127
11360,note_on,0,0,5,,,,,,,,4,,,51,127
11360,note_on,0,0,5,,,,,,,,4,,,63,127
11360,note_on,0,0,8,,,,,,,,7,,,67,127
11360,note_on,0,0,9,,,,,,,,7,,,75,127
11360,note_on,1,0,3,,,,,,,,2,,,75,127
11360,note_on,1,0,12,,,,,,,,7,,,46,127
11360,note_on,1,0,6,,,,,,,,5,,,75,127
11360,note_on,1,0,10,,,,,,,,7,,,70,127
11360,note_on,0,0,3,,,,,,,,2,,,63,127
11360,note_on,1,0,11,,,,,,,,7,,,58,127
11360,note_on,1,0,1,,,,,,,,0,,,87,127
11360,note_on,1,0,9,,,,,,,,7,,,67,127
11360,note_on,1,0,8,,,,,,,,7,,,75,127
11360,note_on,0,0,6,,,,,,,,5,,,63,127
11399,note_on,39,0,3,,,,,,,,2,,,63,0
11399,note_on,0,0,3,,,,,,,,2,,,75,0
11399,note_on,39,0,12,,,,,,,,7,,,46,0
11399,note_on,39,0,10,,,,,,,,7,,,70,0
11399,note_on,39,0,8,,,,,,,,7,,,67,0
11399,note_on,0,0,9,,,,,,,,7,,,67,0
11399,note_on,39,0,4,,,,,,,,3,,,58,0
11399,note_on,0,0,8,,,,,,,,7,,,75,0
11399,note_on,39,0,1,,,,,,,,0,,,87,0
11399,note_on,39,0,9,,,,,,,,7,,,75,0
11399,note_on,0,0,4,,,,,,,,3,,,63,0
11399,note_on,0,0,5,,,,,,,,4,,,70,0
11399,note_on,39,0,11,,,,,,,,7,,,58,0
11399,note_on,39,0,6,,,,,,,,5,,,63,0
11399,note_on,0,0,5,,,,,,,,4,,,51,0
11399,note_on,39,0,5,,,,,,,,4,,,63,0
11399,note_on,0,0,6,,,,,,,,5,,,75,0
11399,note_on,39,0,2,,,,,,,,1,,,75,0
11399,note_on,39,0,7,,,,,,,,6,,,51,0
11400,note_on,0,0,6,,,,,,,,5,,,63,126
11400,note_on,0,0,8,,,,,,,,7,,,67,127
11400,note_on,1,0,11,,,,,,,,7,,,63,127
11400,note_on,1,0,2,,,,,,,,1,,,75,127
11400,note_on,1,0,3,,,,,,,,2,,,63,127
11400,note_on,1,0,10,,,,,,,,7,,,75,127
11400,note_on,0,0,3,,,,,,,,2,,,75,127
11400,note_on,1,0,6,,,,,,,,5,,,75,126
11400,note_on,1,0,12,,,,,,,,7,,,51,127
11400,note_on,1,0,8,,,,,,,,7,,,75,127
11400,note_on,1,0,7,,,,,,,,6,,,51,127
11400,note_on,0,0,5,,,,,,,,4,,,51,127
11400,note_on,1,0,1,,,,,,,,0,,,87,127
11400,note_on,1,0,5,,,,,,,,4,,,63,127
11400,note_on,1,0,4,,,,,,,,3,,,63,127
11400,note_on,1,0,9,,,,,,,,7,,,75,127
11400,note_on,0,0,9,,,,,,,,7,,,67,127
11400,note_on,0,0,4,,,,,,,,3,,,51,127
11419,note_on,19,0,7,,,,,,,,6,,,51,0
11420,note_on,1,0,7,,,,,,,,6,,,51,127
11439,note_on,39,0,8,,,,,,,,7,,,67,0
11439,note_on,39,0,4,,,,,,,,3,,,51,0
11439,note_on,39,0,11,,,,,,,,7,,,63,0
11439,note_on,19,0,7,,,,,,,,6,,,51,0
11439,note_on,39,0,12,,,,,,,,7,,,51,0
11439,note_on,39,0,10,,,,,,,,7,,,75,0
11440,note_on,1,0,12,,,,,,,,7,,,51,127
11440,note_on,40,0,2,,,,,,,,1,,,77,127
11440,note_on,40,0,1,,,,,,,,0,,,89,127
11440,note_on,40,0,5,,,,,,,,4,,,67,127
11440,note_on,40,0,3,,,,,,,,2,,,77,127
11440,note_on,1,0,7,,,,,,,,6,,,51,127
11440,note_on,40,0,9,,,,,,,,7,,,77,127
11440,note_on,0,0,4,,,,,,,,3,,,51,127
11440,note_on,1,0,4,,,,,,,,3,,,65,127
11440,note_on,1,0,10,,,,,,,,7,,,75,127
11440,note_on,1,0,11,,,,,,,,7,,,63,127
11440,note_on,1,0,8,,,,,,,,7,,,77,127
11440,note_on,0,0,3,,,,,,,,2,,,65,127
11442,note_on,0,0,3,,,,,,,,2,,,63,0
11442,note_on,2,0,8,,,,,,,,7,,,75,0
11442,note_on,2,0,4,,,,,,,,3,,,63,0
11442,note_on,2,0,2,,,,,,,,1,,,75,0
11442,note_on,2,0,9,,,,,,,,7,,,67,0
11442,note_on,2,0,3,,,,,,,,2,,,75,0
11442,note_on,2,0,1,,,,,,,,0,,,87,0
11442,note_on,0,0,9,,,,,,,,7,,,75,0
11459,note_on,19,0,7,,,,,,,,6,,,51,0
11460,note_on,18,0,3,,,,,,,,2,,,63,127
11460,note_on,18,0,1,,,,,,,,0,,,87,127
11460,note_on,0,0,3,,,,,,,,2,,,75,127
11460,note_on,18,0,2,,,,,,,,1,,,75,127
11460,note_on,18,0,8,,,,,,,,7,,,75,127
11460,note_on,18,0,4,,,,,,,,3,,,63,127
11460,note_on,1,0,7,,,,,,,,6,,,51,127
11460,note_on,18,0,9,,,,,,,,7,,,75,127
11462,note_on,2,0,8,,,,,,,,7,,,77,0
11462,note_on,0,0,3,,,,,,,,2,,,65,0
11462,note_on,2,0,3,,,,,,,,2,,,77,0
11462,note_on,2,0,4,,,,,,,,3,,,65,0
11462,note_on,2,0,1,,,,,,,,0,,,89,0
11462,note_on,2,0,2,,,,,,,,1,,,77,0
11462,note_on,2,0,9,,,,,,,,7,,,77,0
11479,note_on,39,0,12,,,,,,,,7,,,51,0
11479,note_on,39,0,5,,,,,,,,4,,,67,0
11479,note_on,39,0,10,,,,,,,,7,,,75,0
11479,note_on,19,0,7,,,,,,,,6,,,51,0
11479,note_on,17,0,4,,,,,,,,3,,,51,0
11479,note_on,39,0,11,,,,,,,,7,,,63,0
11480,note_on,18,0,8,,,,,,,,7,,,74,127
11480,note_on,18,0,3,,,,,,,,2,,,62,127
11480,note_on,0,0,3,,,,,,,,2,,,74,127
11480,note_on,1,0,11,,,,,,,,7,,,63,127
11480,note_on,1,0,4,,,,,,,,3,,,62,127
11480,note_on,1,0,7,,,,,,,,6,,,51,127
11480,note_on,18,0,1,,,,,,,,0,,,86,127
11480,note_on,0,0,4,,,,,,,,3,,,51,127
11480,note_on,18,0,9,,,,,,,,7,,,74,127
11480,note_on,1,0,12,,,,,,,,7,,,51,127
11480,note_on,1,0,10,,,,,,,,7,,,75,127
11480,note_on,1,0,5,,,,,,,,4,,,70,127
11480,note_on,18,0,2,,,,,,,,1,,,74,127
11482,note_on,2,0,4,,,,,,,,3,,,63,0
11482,note_on,2,0,9,,,,,,,,7,,,75,0
11482,note_on,0,0,3,,,,,,,,2,,,75,0
11482,note_on,2,0,8,,,,,,,,7,,,75,0
11482,note_on,2,0,1,,,,,,,,0,,,87,0
11482,note_on,2,0,2,,,,,,,,1,,,75,0
11482,note_on,2,0,3,,,,,,,,2,,,63,0
11499,note_on,19,0,7,,,,,,,,6,,,51,0
11500,note_on,1,0,7,,,,,,,,6,,,51,127
11500,note_on,18,0,2,,,,,,,,1,,,72,127
11500,note_on,18,0,1,,,,,,,,0,,,84,127
11500,note_on,18,0,4,,,,,,,,3,,,60,127
11500,note_on,0,0,3,,,,,,,,2,,,72,127
11500,note_on,18,0,3,,,,,,,,2,,,60,127
11500,note_on,18,0,8,,,,,,,,7,,,72,127
11500,note_on,18,0,9,,,,,,,,7,,,72,127
11502,note_on,2,0,1,,,,,,,,0,,,86,0
11502,note_on,2,0,4,,,,,,,,3,,,62,0
11502,note_on,2,0,9,,,,,,,,7,,,74,0
11502,note_on,2,0,3,,,,,,,,2,,,62,0
11502,note_on,0,0,3,,,,,,,,2,,,74,0
11502,note_on,2,0,2,,,,,,,,1,,,74,0
11502,note_on,2,0,8,,,,,,,,7,,,74,0
11519,note_on,17,0,4,,,,,,,,3,,,51,0
11519,note_on,39,0,5,,,,,,,,4,,,70,0
11519,note_on,19,0,7,,,,,,,,6,,,51,0
11519,note_on,17,0,8,,,,,,,,7,,,72,0
11519,note_on,17,0,9,,,,,,,,7,,,72,0
11519,note_on,39,0,11,,,,,,,,7,,,63,0
11519,note_on,39,0,10,,,,,,,,7,,,75,0
11519,note_on,39,0,12,,,,,,,,7,,,51,0
11519,note_on,0,0,5,,,,,,,,4,,,63,0
11520,note_on,18,0,1,,,,,,,,0,,,82,127
11520,note_on,18,0,2,,,,,,,,1,,,70,127
11520,note_on,1,0,5,,,,,,,,4,,,63,127
11520,note_on,1,0,9,,,,,,,,7,,,70,127
11520,note_on,1,0,10,,,,,,,,7,,,75,127
11520,note_on,1,0,11,,,,,,,,7,,,63,127
11520,note_on,1,0,7,,,,,,,,6,,,51,127
11520,note_on,0,0,4,,,,,,,,3,,,51,127
11520,note_on,1,0,4,,,,,,,,3,,,58,127
11520,note_on,1,0,12,,,,,,,,7,,,51,127
11520,note_on,18,0,3,,,,,,,,2,,,58,127
11520,note_on,0,0,3,,,,,,,,2,,,70,127
11522,note_on,2,0,2,,,,,,,,1,,,72,0
11522,note_on,2,0,4,,,,,,,,3,,,60,0
11522,note_on,2,0,1,,,,,,,,0,,,84,0
11522,note_on,0,0,3,,,,,,,,2,,,72,0
11522,note_on,2,0,3,,,,,,,,2,,,60,0
11539,note_on,19,0,7,,,,,,,,6,,,51,0
11540,note_on,1,0,7,,,,,,,,6,,,51,127
11540,note_on,21,0,8,,,,,,,,7,,,70,127
11559,note_on,159,0,6,,,,,,,,5,,,63,0
11559,note_on,19,0,7,,,,,,,,6,,,51,0
11559,note_on,0,0,6,,,,,,,,5,,,75,0
11559,note_on,39,0,5,,,,,,,,4,,,63,0
11559,note_on,39,0,12,,,,,,,,7,,,51,0
11559,note_on,39,0,10,,,,,,,,7,,,75,0
11559,note_on,0,0,5,,,,,,,,4,,,51,0
11559,note_on,37,0,4,,,,,,,,3,,,51,0
11559,note_on,39,0,11,,,,,,,,7,,,63,0
11560,note_on,1,0,11,,,,,,,,7,,,63,127
11560,note_on,1,0,5,,,,,,,,4,,,63,127
11560,note_on,0,0,5,,,,,,,,4,,,51,127
11560,note_on,1,0,4,,,,,,,,3,,,51,127
11560,note_on,1,0,10,,,,,,,,7,,,75,127
11560,note_on,1,0,6,,,,,,,,5,,,63,127
11560,note_on,0,0,6,,,,,,,,5,,,75,127
11560,note_on,1,0,7,,,,,,,,6,,,51,127
11560,note_on,1,0,12,,,,,,,,7,,,51,127
11579,note_on,19,0,7,,,,,,,,6,,,51,0
11580,note_on,1,0,7,,,,,,,,6,,,51,127
11599,note_on,39,0,4,,,,,,,,3,,,51,0
11599,note_on,39,0,10,,,,,,,,7,,,75,0
11599,note_on,19,0,7,,,,,,,,6,,,51,0
11599,note_on,39,0,11,,,,,,,,7,,,63,0
11599,note_on,39,0,12,,,,,,,,7,,,51,0
11599,note_on,39,0,5,,,,,,,,4,,,51,0
11599,note_on,0,0,5,,,,,,,,4,,,63,0
11599,note_on,39,0,6,,,,,,,,5,,,75,0
11599,note_on,0,0,6,,,,,,,,5,,,63,0
11600,note_on,1,0,4,,,,,,,,3,,,51,127
11600,note_on,0,0,5,,,,,,,,4,,,51,127
11600,note_on,1,0,5,,,,,,,,4,,,63,127
11600,note_on,1,0,10,,,,,,,,7,,,75,127
11600,note_on,1,0,6,,,,,,,,5,,,63,127
11600,note_on,0,0,6,,,,,,,,5,,,75,127
11600,note_on,1,0,11,,,,,,,,7,,,63,127
11600,note_on,1,0,7,,,,,,,,6,,,51,127
11600,note_on,1,0,12,,,,,,,,7,,,51,127
11619,note_on,19,0,7,,,,,,,,6,,,51,0
11620,note_on,1,0,7,,,,,,,,6,,,51,127
11639,note_on,0,0,4,,,,,,,,3,,,58,0
11639,note_on,117,0,2,,,,,,,,1,,,70,0
11639,note_on,119,0,9,,,,,,,,7,,,70,0
11639,note_on,39,0,10,,,,,,,,7,,,75,0
11639,note_on,0,0,5,,,,,,,,4,,,63,0
11639,note_on,39,0,4,,,,,,,,3,,,51,0
11639,note_on,0,0,6,,,,,,,,5,,,63,0
11639,note_on,99,0,8,,,,,,,,7,,,70,0
11639,note_on,39,0,6,,,,,,,,5,,,75,0
11639,note_on,117,0,3,,,,,,,,2,,,58,0
11639,note_on,39,0,12,,,,,,,,7,,,51,0
11639,note_on,19,0,7,,,,,,,,6,,,51,0
11639,note_on,39,0,5,,,,,,,,4,,,51,0
11639,note_on,39,0,11,,,,,,,,7,,,63,0
11639,note_on,0,0,3,,,,,,,,2,,,70,0
11639,note_on,117,0,1,,,,,,,,0,,,82,0
11640,note_on,1,0,4,,,,,,,,3,,,51,127
11640,note_on,1,0,8,,,,,,,,7,,,80,127
11640,note_on,1,0,7,,,,,,,,6,,,46,127
11640,note_on,1,0,6,,,,,,,,5,,,58,127
11640,note_on,1,0,10,,,,,,,,7,,,75,127
11640,note_on,0,0,6,,,,,,,,5,,,70,127
11640,note_on,0,0,5,,,,,,,,4,,,58,127
11640,note_on,1,0,1,,,,,,,,0,,,80,127
11640,note_on,0,0,5,,,,,,,,4,,,46,127
11640,note_on,1,0,5,,,,,,,,4,,,70,127
11640,note_on,1,0,2,,,,,,,,1,,,80,127
11640,note_on,1,0,9,,,,,,,,7,,,68,127
11640,note_on,1,0,12,,,,,,,,7,,,51,127
11640,note_on,1,0,11,,,,,,,,7,,,63,127
11640,note_on,1,0,3,,,,,,,,2,,,68,127
11679,note_on,39,0,7,,,,,,,,6,,,46,0
11680,note_on,40,0,11,,,,,,,,7,,,65,127
11680,note_on,40,0,4,,,,,,,,3,,,53,127
11680,note_on,40,0,10,,,,,,,,7,,,77,127
11680,note_on,40,0,12,,,,,,,,7,,,53,127
11682,note_on,2,0,11,,,,,,,,7,,,63,0
11682,note_on,2,0,10,,,,,,,,7,,,75,0
11682,note_on,2,0,4,,,,,,,,3,,,51,0
11682,note_on,2,0,12,,,,,,,,7,,,51,0
11700,note_on,18,0,4,,,,,,,,3,,,51,127
11700,note_on,18,0,10,,,,,,,,7,,,75,127
11700,note_on,18,0,11,,,,,,,,7,,,63,127
11700,note_on,18,0,12,,,,,,,,7,,,51,127
11702,note_on,2,0,12,,,,,,,,7,,,53,0
11702,note_on,2,0,10,,,,,,,,7,,,77,0
11702,note_on,2,0,4,,,,,,,,3,,,53,0
11702,note_on,2,0,11,,,,,,,,7,,,65,0
11720,note_on,18,0,12,,,,,,,,7,,,50,127
11720,note_on,18,0,11,,,,,,,,7,,,62,127
11720,note_on,18,0,10,,,,,,,,7,,,74,127
11720,note_on,18,0,4,,,,,,,,3,,,50,127
11722,note_on,2,0,11,,,,,,,,7,,,63,0
11722,note_on,2,0,4,,,,,,,,3,,,51,0
11722,note_on,2,0,10,,,,,,,,7,,,75,0
11722,note_on,2,0,12,,,,,,,,7,,,51,0
11740,note_on,18,0,11,,,,,,,,7,,,60,127
11740,note_on,18,0,4,,,,,,,,3,,,48,127
11740,note_on,18,0,12,,,,,,,,7,,,48,127
11740,note_on,18,0,10,,,,,,,,7,,,72,127
11742,note_on,2,0,10,,,,,,,,7,,,74,0
11742,note_on,2,0,11,,,,,,,,7,,,62,0
11742,note_on,2,0,4,,,,,,,,3,,,50,0
11742,note_on,2,0,12,,,,,,,,7,,,50,0
11759,note_on,119,0,9,,,,,,,,7,,,68,0
11759,note_on,119,0,2,,,,,,,,1,,,80,0
11759,note_on,17,0,12,,,,,,,,7,,,48,0
11759,note_on,119,0,3,,,,,,,,2,,,68,0
11759,note_on,119,0,5,,,,,,,,4,,,58,0
11759,note_on,119,0,1,,,,,,,,0,,,80,0
11759,note_on,0,0,5,,,,,,,,4,,,70,0
11759,note_on,0,0,6,,,,,,,,5,,,58,0
11759,note_on,119,0,6,,,,,,,,5,,,70,0
11759,note_on,119,0,8,,,,,,,,7,,,80,0
11759,note_on,0,0,5,,,,,,,,4,,,46,0
11760,note_on,1,0,6,,,,,,,,5,,,70,127
11760,note_on,1,0,12,,,,,,,,7,,,46,127
11760,note_on,18,0,10,,,,,,,,7,,,70,127
11760,note_on,0,0,6,,,,,,,,5,,,58,127
11760,note_on,1,0,1,,,,,,,,0,,,79,127
11760,note_on,1,0,3,,,,,,,,2,,,67,127
11760,note_on,81,0,7,,,,,,,,6,,,46,127
11760,note_on,0,0,5,,,,,,,,4,,,58,127
11760,note_on,0,0,5,,,,,,,,4,,,46,127
11760,note_on,1,0,5,,,,,,,,4,,,70,127
11760,note_on,1,0,9,,,,,,,,7,,,67,127
11760,note_on,18,0,11,,,,,,,,7,,,58,127
11760,note_on,0,0,4,,,,,,,,3,,,46,127
11760,note_on,1,0,8,,,,,,,,7,,,79,127
11760,note_on,1,0,2,,,,,,,,1,,,79,127
11760,note_on,18,0,4,,,,,,,,3,,,58,127
11762,note_on,2,0,10,,,,,,,,7,,,72,0
11762,note_on,2,0,11,,,,,,,,7,,,60,0
11762,note_on,2,0,4,,,,,,,,3,,,48,0
11799,note_on,39,0,7,,,,,,,,6,,,46,0
11800,note_on,40,0,2,,,,,,,,1,,,82,127
11800,note_on,40,0,1,,,,,,,,0,,,82,127
11800,note_on,40,0,9,,,,,,,,7,,,70,127
11800,note_on,40,0,8,,,,,,,,7,,,82,127
11800,note_on,40,0,3,,,,,,,,2,,,70,127
11802,note_on,2,0,1,,,,,,,,0,,,79,0
11802,note_on,2,0,2,,,,,,,,1,,,79,0
11802,note_on,2,0,9,,,,,,,,7,,,67,0
11802,note_on,2,0,8,,,,,,,,7,,,79,0
11802,note_on,2,0,3,,,,,,,,2,,,67,0
11839,note_on,37,0,8,,,,,,,,7,,,82,0
11839,note_on,37,0,1,,,,,,,,0,,,82,0
11839,note_on,37,0,9,,,,,,,,7,,,70,0
11839,note_on,37,0,2,,,,,,,,1,,,82,0
11839,note_on,37,0,3,,,,,,,,2,,,70,0
11840,note_on,1,0,9,,,,,,,,7,,,67,127
11840,note_on,1,0,3,,,,,,,,2,,,67,127
11840,note_on,1,0,2,,,,,,,,1,,,79,127
11840,note_on,1,0,1,,,,,,,,0,,,79,127
11840,note_on,1,0,8,,,,,,,,7,,,79,127
11859,note_on,19,0,9,,,,,,,,7,,,67,0
11859,note_on,19,0,2,,,,,,,,1,,,79,0
11859,note_on,19,0,3,,,,,,,,2,,,67,0
11859,note_on,19,0,8,,,,,,,,7,,,79,0
11859,note_on,19,0,1,,,,,,,,0,,,79,0
11879,note_on,117,0,4,,,,,,,,3,,,46,0
11879,note_on,0,0,4,,,,,,,,3,,,58,0
11879,note_on,119,0,6,,,,,,,,5,,,58,0
11879,note_on,117,0,10,,,,,,,,7,,,70,0
11879,note_on,0,0,5,,,,,,,,4,,,70,0
11879,note_on,119,0,5,,,,,,,,4,,,58,0
11879,note_on,117,0,11,,,,,,,,7,,,58,0
11879,note_on,119,0,12,,,,,,,,7,,,46,0
11879,note_on,0,0,6,,,,,,,,5,,,70,0
11879,note_on,0,0,5,,,,,,,,4,,,46,0
11880,note_on,1,0,10,,,,,,,,7,,,68,127
11880,note_on,1,0,6,,,,,,,,5,,,58,127
11880,note_on,21,0,9,,,,,,,,7,,,65,127
11880,note_on,21,0,2,,,,,,,,1,,,77,127
11880,note_on,0,0,5,,,,,,,,4,,,58,127
11880,note_on,0,0,5,,,,,,,,4,,,46,127
11880,note_on,1,0,5,,,,,,,,4,,,70,127
11880,note_on,0,0,6,,,,,,,,5,,,70,127
11880,note_on,21,0,8,,,,,,,,7,,,77,127
11880,note_on,1,0,11,,,,,,,,7,,,56,127
11880,note_on,1,0,4,,,,,,,,3,,,56,127
11880,note_on,81,0,7,,,,,,,,6,,,46,127
11880,note_on,21,0,3,,,,,,,,2,,,65,127
11880,note_on,1,0,12,,,,,,,,7,,,44,127
11880,note_on,21,0,1,,,,,,,,0,,,77,127
11919,note_on,39,0,7,,,,,,,,6,,,46,0
11920,note_on,40,0,9,,,,,,,,7,,,70,127
11920,note_on,40,0,3,,,,,,,,2,,,70,127
11920,note_on,40,0,2,,,,,,,,1,,,82,127
11920,note_on,40,0,1,,,,,,,,0,,,82,127
11920,note_on,40,0,8,,,,,,,,7,,,82,127
11922,note_on,2,0,1,,,,,,,,0,,,77,0
11922,note_on,2,0,2,,,,,,,,1,,,77,0
11922,note_on,2,0,8,,,,,,,,7,,,77,0
11922,note_on,2,0,9,,,,,,,,7,,,65,0
11922,note_on,2,0,3,,,,,,,,2,,,65,0
11959,note_on,37,0,3,,,,,,,,2,,,70,0
11959,note_on,37,0,1,,,,,,,,0,,,82,0
11959,note_on,37,0,2,,,,,,,,1,,,82,0
11959,note_on,37,0,9,,,,,,,,7,,,70,0
11959,note_on,37,0,8,,,,,,,,7,,,82,0
11960,note_on,1,0,2,,,,,,,,1,,,77,127
11960,note_on,1,0,9,,,,,,,,7,,,65,127
11960,note_on,1,0,8,,,,,,,,7,,,77,127
11960,note_on,1,0,3,,,,,,,,2,,,65,127
11960,note_on,1,0,1,,,,,,,,0,,,77,127
11979,note_on,19,0,9,,,,,,,,7,,,65,0
11979,note_on,19,0,2,,,,,,,,1,,,77,0
11979,note_on,19,0,1,,,,,,,,0,,,77,0
11979,note_on,19,0,3,,,,,,,,2,,,65,0
11979,note_on,19,0,8,,,,,,,,7,,,77,0
11999,note_on,119,0,4,,,,,,,,3,,,56,0
11999,note_on,0,0,5,,,,,,,,4,,,70,0
11999,note_on,0,0,5,,,,,,,,4,,,46,0
11999,note_on,119,0,10,,,,,,,,7,,,68,0
11999,note_on,119,0,11,,,,,,,,7,,,56,0
11999,note_on,119,0,5,,,,,,,,4,,,58,0
11999,note_on,0,0,6,,,,,,,,5,,,58,0
11999,note_on,119,0,12,,,,,,,,7,,,44,0
11999,note_on,119,0,6,,,,,,,,5,,,70,0
12000,note_on,21,0,3,,,,,,,,2,,,63,127
12000,note_on,0,0,5,,,,,,,,4,,,58,127
12000,note_on,21,0,2,,,,,,,,1,,,75,127
12000,note_on,1,0,4,,,,,,,,3,,,55,127
12000,note_on,21,0,9,,,,,,,,7,,,63,127
12000,note_on,21,0,8,,,,,,,,7,,,75,127
12000,note_on,1,0,12,,,,,,,,7,,,43,127
12000,note_on,81,0,7,,,,,,,,6,,,46,127
12000,note_on,1,0,5,,,,,,,,4,,,70,127
12000,note_on,0,0,6,,,,,,,,5,,,58,127
12000,note_on,1,0,11,,,,,,,,7,,,55,127
12000,note_on,1,0,10,,,,,,,,7,,,67,127
12000,note_on,21,0,1,,,,,,,,0,,,75,127
12000,note_on,1,0,6,,,,,,,,5,,,70,127
12000,note_on,0,0,5,,,,,,,,4,,,46,127
12019,note_on,19,0,3,,,,,,,,2,,,63,0
12019,note_on,19,0,1,,,,,,,,0,,,75,0
12019,note_on,19,0,9,,,,,,,,7,,,63,0
12019,note_on,19,0,8,,,,,,,,7,,,75,0
12019,note_on,19,0,2,,,,,,,,1,,,75,0
12039,note_on,39,0,7,,,,,,,,6,,,46,0
12040,note_on,21,0,3,,,,,,,,2,,,67,127
12040,note_on,40,0,11,,,,,,,,7,,,58,127
12040,note_on,21,0,9,,,,,,,,7,,,67,127
12040,note_on,21,0,1,,,,,,,,0,,,79,127
12040,note_on,40,0,12,,,,,,,,7,,,46,127
12040,note_on,40,0,10,,,,,,,,7,,,70,127
12040,note_on,21,0,8,,,,,,,,7,,,79,127
12040,note_on,21,0,2,,,,,,,,1,,,79,127
12040,note_on,40,0,4,,,,,,,,3,,,58,127
12042,note_on,2,0,12,,,,,,,,7,,,43,0
12042,note_on,2,0,10,,,,,,,,7,,,67,0
12042,note_on,2,0,11,,,,,,,,7,,,55,0
12042,note_on,2,0,4,,,,,,,,3,,,55,0
12059,note_on,19,0,1,,,,,,,,0,,,79,0
12059,note_on,19,0,9,,,,,,,,7,,,67,0
12059,note_on,19,0,8,,,,,,,,7,,,79,0
12059,note_on,19,0,3,,,,,,,,2,,,67,0
12059,note_on,19,0,2,,,,,,,,1,,,79,0
12079,note_on,37,0,10,,,,,,,,7,,,70,0
12079,note_on,37,0,4,,,,,,,,3,,,58,0
12079,note_on,37,0,11,,,,,,,,7,,,58,0
12079,note_on,37,0,12,,,,,,,,7,,,46,0
12080,note_on,21,0,9,,,,,,,,7,,,70,127
12080,note_on,1,0,11,,,,,,,,7,,,55,127
12080,note_on,21,0,1,,,,,,,,0,,,82,127
12080,note_on,21,0,8,,,,,,,,7,,,82,127
12080,note_on,21,0,3,,,,,,,,2,,,70,127
12080,note_on,21,0,2,,,,,,,,1,,,82,127
12080,note_on,1,0,4,,,,,,,,3,,,55,127
12080,note_on,1,0,12,,,,,,,,7,,,43,127
12080,note_on,1,0,10,,,,,,,,7,,,67,127
12099,note_on,19,0,10,,,,,,,,7,,,67,0
12099,note_on,19,0,8,,,,,,,,7,,,82,0
12099,note_on,19,0,1,,,,,,,,0,,,82,0
12099,note_on,19,0,11,,,,,,,,7,,,55,0
12099,note_on,19,0,2,,,,,,,,1,,,82,0
12099,note_on,19,0,12,,,,,,,,7,,,43,0
12099,note_on,19,0,9,,,,,,,,7,,,70,0
12099,note_on,19,0,4,,,,,,,,3,,,55,0
12099,note_on,19,0,3,,,,,,,,2,,,70,0
12119,note_on,119,0,6,,,,,,,,5,,,58,0
12119,note_on,119,0,5,,,,,,,,4,,,58,0
12119,note_on,0,0,5,,,,,,,,4,,,46,0
12119,note_on,0,0,6,,,,,,,,5,,,70,0
12119,note_on,0,0,5,,,,,,,,4,,,70,0
12120,note_on,21,0,8,,,,,,,,7,,,80,127
12120,note_on,21,0,11,,,,,,,,7,,,53,127
12120,note_on,0,0,5,,,,,,,,4,,,58,127
12120,note_on,0,0,5,,,,,,,,4,,,46,127
12120,note_on,1,0,5,,,,,,,,4,,,70,127
12120,note_on,21,0,4,,,,,,,,3,,,53,127
12120,note_on,21,0,1,,,,,,,,0,,,82,127
12120,note_on,21,0,2,,,,,,,,1,,,80,127
12120,note_on,21,0,10,,,,,,,,7,,,65,127
12120,note_on,1,0,6,,,,,,,,5,,,58,127
12120,note_on,21,0,12,,,,,,,,7,,,41,127
12120,note_on,21,0,3,,,,,,,,2,,,68,127
12120,note_on,0,0,6,,,,,,,,5,,,70,127
12120,note_on,81,0,7,,,,,,,,6,,,46,127
12120,note_on,21,0,9,,,,,,,,7,,,68,127
12159,note_on,39,0,7,,,,,,,,6,,,46,0
12160,note_on,40,0,11,,,,,,,,7,,,58,127
12160,note_on,40,0,10,,,,,,,,7,,,70,127
12160,note_on,40,0,4,,,,,,,,3,,,56,127
12160,note_on,40,0,12,,,,,,,,7,,,46,127
12162,note_on,2,0,10,,,,,,,,7,,,65,0
12162,note_on,2,0,4,,,,,,,,3,,,53,0
12162,note_on,2,0,12,,,,,,,,7,,,41,0
12162,note_on,2,0,11,,,,,,,,7,,,53,0
12199,note_on,37,0,10,,,,,,,,7,,,70,0
12199,note_on,37,0,11,,,,,,,,7,,,58,0
12199,note_on,37,0,12,,,,,,,,7,,,46,0
12199,note_on,37,0,4,,,,,,,,3,,,56,0
12200,note_on,1,0,12,,,,,,,,7,,,41,127
12200,note_on,1,0,11,,,,,,,,7,,,53,127
12200,note_on,1,0,10,,,,,,,,7,,,65,127
12200,note_on,1,0,4,,,,,,,,3,,,53,127
12219,note_on,19,0,11,,,,,,,,7,,,53,0
12219,note_on,19,0,10,,,,,,,,7,,,65,0
12219,note_on,19,0,12,,,,,,,,7,,,41,0
12219,note_on,19,0,4,,,,,,,,3,,,53,0
12239,note_on,119,0,5,,,,,,,,4,,,58,0
12239,note_on,0,0,5,,,,,,,,4,,,46,0
12239,note_on,119,0,2,,,,,,,,1,,,80,0
12239,note_on,0,0,6,,,,,,,,5,,,58,0
12239,note_on,119,0,6,,,,,,,,5,,,70,0
12239,note_on,119,0,9,,,,,,,,7,,,68,0
12239,note_on,119,0,1,,,,,,,,0,,,82,0
12239,note_on,119,0,3,,,,,,,,2,,,68,0
12239,note_on,0,0,5,,,,,,,,4,,,70,0
12239,note_on,119,0,8,,,,,,,,7,,,80,0
12240,note_on,21,0,10,,,,,,,,7,,,63,127
12240,note_on,1,0,5,,,,,,,,4,,,70,127
12240,note_on,1,0,3,,,,,,,,2,,,67,127
12240,note_on,1,0,9,,,,,,,,7,,,67,127
12240,note_on,1,0,8,,,,,,,,7,,,79,127
12240,note_on,0,0,5,,,,,,,,4,,,58,127
12240,note_on,0,0,5,,,,,,,,4,,,46,127
12240,note_on,21,0,4,,,,,,,,3,,,51,127
12240,note_on,1,0,1,,,,,,,,0,,,82,127
12240,note_on,1,0,6,,,,,,,,5,,,70,127
12240,note_on,0,0,6,,,,,,,,5,,,58,127
12240,note_on,21,0,11,,,,,,,,7,,,51,127
12240,note_on,21,0,12,,,,,,,,7,,,39,127
12240,note_on,81,0,7,,,,,,,,6,,,46,127
12240,note_on,1,0,2,,,,,,,,1,,,79,127
12259,note_on,19,0,4,,,,,,,,3,,,51,0
12259,note_on,19,0,12,,,,,,,,7,,,39,0
12259,note_on,19,0,11,,,,,,,,7,,,51,0
12259,note_on,19,0,10,,,,,,,,7,,,63,0
12279,note_on,39,0,7,,,,,,,,6,,,46,0
12280,note_on,40,0,3,,,,,,,,2,,,70,127
12280,note_on,21,0,10,,,,,,,,7,,,67,127
12280,note_on,40,0,9,,,,,,,,7,,,70,127
12280,note_on,40,0,2,,,,,,,,1,,,82,127
12280,note_on,21,0,11,,,,,,,,7,,,55,127
12280,note_on,21,0,12,,,,,,,,7,,,43,127
12280,note_on,40,0,8,,,,,,,,7,,,82,127
12280,note_on,21,0,4,,,,,,,,3,,,55,127
12282,note_on,2,0,2,,,,,,,,1,,,79,0
12282,note_on,2,0,8,,,,,,,,7,,,79,0
12282,note_on,2,0,9,,,,,,,,7,,,67,0
12282,note_on,2,0,3,,,,,,,,2,,,67,0
12299,note_on,19,0,12,,,,,,,,7,,,43,0
12299,note_on,19,0,4,,,,,,,,3,,,55,0
12299,note_on,19,0,11,,,,,,,,7,,,55,0
12299,note_on,19,0,10,,,,,,,,7,,,67,0
12319,note_on,37,0,3,,,,,,,,2,,,70,0
12319,note_on,37,0,9,,,,,,,,7,,,70,0
12319,note_on,37,0,8,,,,,,,,7,,,82,0
12319,note_on,37,0,2,,,,,,,,1,,,82,0
12320,note_on,21,0,10,,,,,,,,7,,,70,127
12320,note_on,21,0,12,,,,,,,,7,,,46,127
12320,note_on,1,0,3,,,,,,,,2,,,67,127
12320,note_on,1,0,9,,,,,,,,7,,,67,127
12320,note_on,1,0,2,,,,,,,,1,,,79,127
12320,note_on,21,0,11,,,,,,,,7,,,58,127
12320,note_on,1,0,8,,,,,,,,7,,,79,127
12320,note_on,21,0,4,,,,,,,,3,,,58,127
12339,note_on,19,0,4,,,,,,,,3,,,58,0
12339,note_on,19,0,10,,,,,,,,7,,,70,0
12339,note_on,19,0,12,,,,,,,,7,,,46,0
12339,note_on,19,0,9,,,,,,,,7,,,67,0
12339,note_on,19,0,2,,,,,,,,1,,,79,0
12339,note_on,19,0,11,,,,,,,,7,,,58,0
12339,note_on,19,0,8,,,,,,,,7,,,79,0
12339,note_on,19,0,3,,,,,,,,2,,,67,0
12359,note_on,119,0,6,,,,,,,,5,,,58,0
12359,note_on,0,0,6,,,,,,,,5,,,70,0
12359,note_on,0,0,5,,,,,,,,4,,,70,0
12359,note_on,119,0,1,,,,,,,,0,,,82,0
12359,note_on,0,0,5,,,,,,,,4,,,46,0
12359,note_on,119,0,5,,,,,,,,4,,,58,0
12360,note_on,21,0,12,,,,,,,,7,,,44,127
12360,note_on,21,0,4,,,,,,,,3,,,56,127
12360,note_on,21,0,9,,,,,,,,7,,,65,127
12360,note_on,1,0,5,,,,,,,,4,,,70,127
12360,note_on,81,0,7,,,,,,,,6,,,46,127
12360,note_on,21,0,2,,,,,,,,1,,,77,127
12360,note_on,1,0,6,,,,,,,,5,,,58,127
12360,note_on,0,0,6,,,,,,,,5,,,70,127
12360,note_on,21,0,10,,,,,,,,7,,,68,127
12360,note_on,21,0,11,,,,,,,,7,,,56,127
12360,note_on,0,0,5,,,,,,,,4,,,58,127
12360,note_on,0,0,5,,,,,,,,4,,,46,127
12360,note_on,21,0,3,,,,,,,,2,,,65,127
12360,note_on,21,0,8,,,,,,,,7,,,77,127
12360,note_on,1,0,1,,,,,,,,0,,,82,127
12399,note_on,39,0,7,,,,,,,,6,,,46,0
12400,note_on,40,0,2,,,,,,,,1,,,82,127
12400,note_on,40,0,3,,,,,,,,2,,,70,127
12400,note_on,40,0,9,,,,,,,,7,,,70,127
12400,note_on,40,0,8,,,,,,,,7,,,82,127
12402,note_on,2,0,3,,,,,,,,2,,,65,0
12402,note_on,2,0,8,,,,,,,,7,,,77,0
12402,note_on,2,0,2,,,,,,,,1,,,77,0
12402,note_on,2,0,9,,,,,,,,7,,,65,0
12439,note_on,37,0,3,,,,,,,,2,,,70,0
12439,note_on,37,0,8,,,,,,,,7,,,82,0
12439,note_on,37,0,9,,,,,,,,7,,,70,0
12439,note_on,37,0,2,,,,,,,,1,,,82,0
12440,note_on,1,0,3,,,,,,,,2,,,65,127
12440,note_on,1,0,8,,,,,,,,7,,,77,127
12440,note_on,1,0,9,,,,,,,,7,,,65,127
12440,note_on,1,0,2,,,,,,,,1,,,77,127
12459,note_on,19,0,8,,,,,,,,7,,,77,0
12459,note_on,19,0,2,,,,,,,,1,,,77,0
12459,note_on,19,0,9,,,,,,,,7,,,65,0
12459,note_on,19,0,3,,,,,,,,2,,,65,0
12479,note_on,119,0,4,,,,,,,,3,,,56,0
12479,note_on,119,0,12,,,,,,,,7,,,44,0
12479,note_on,0,0,5,,,,,,,,4,,,70,0
12479,note_on,0,0,5,,,,,,,,4,,,46,0
12479,note_on,0,0,6,,,,,,,,5,,,58,0
12479,note_on,119,0,10,,,,,,,,7,,,68,0
12479,note_on,119,0,6,,,,,,,,5,,,70,0
12479,note_on,119,0,5,,,,,,,,4,,,58,0
12479,note_on,119,0,11,,,,,,,,7,,,56,0
12479,note_on,119,0,1,,,,,,,,0,,,82,0
12480,note_on,21,0,3,,,,,,,,2,,,63,127
12480,note_on,1,0,4,,,,,,,,3,,,55,127
12480,note_on,1,0,6,,,,,,,,5,,,70,127
12480,note_on,0,0,6,,,,,,,,5,,,58,127
12480,note_on,21,0,2,,,,,,,,1,,,75,127
12480,note_on,1,0,11,,,,,,,,7,,,55,127
12480,note_on,0,0,5,,,,,,,,4,,,46,127
12480,note_on,1,0,1,,,,,,,,0,,,82,127
12480,note_on,1,0,12,,,,,,,,7,,,43,127
12480,note_on,21,0,8,,,,,,,,7,,,75,127
12480,note_on,1,0,10,,,,,,,,7,,,67,127
12480,note_on,0,0,5,,,,,,,,4,,,58,127
12480,note_on,21,0,9,,,,,,,,7,,,63,127
12480,note_on,1,0,5,,,,,,,,4,,,70,127
12480,note_on,81,0,7,,,,,,,,6,,,46,127
12499,note_on,19,0,8,,,,,,,,7,,,75,0
12499,note_on,19,0,2,,,,,,,,1,,,75,0
12499,note_on,19,0,3,,,,,,,,2,,,63,0
12499,note_on,19,0,1,,,,,,,,0,,,82,0
12499,note_on,19,0,9,,,,,,,,7,,,63,0
12519,note_on,39,0,6,,,,,,,,5,,,58,0
12519,note_on,39,0,7,,,,,,,,6,,,46,0
12519,note_on,0,0,6,,,,,,,,5,,,70,0
12519,note_on,0,0,5,,,,,,,,4,,,70,0
12519,note_on,39,0,5,,,,,,,,4,,,58,0
12519,note_on,0,0,5,,,,,,,,4,,,46,0
12520,note_on,1,0,7,,,,,,,,6,,,51,127
12520,note_on,21,0,2,,,,,,,,1,,,79,127
12520,note_on,1,0,5,,,,,,,,4,,,51,127
12520,note_on,0,0,5,,,,,,,,4,,,63,127
12520,note_on,40,0,12,,,,,,,,7,,,46,127
12520,note_on,1,0,6,,,,,,,,5,,,75,127
12520,note_on,21,0,9,,,,,,,,7,,,67,127
12520,note_on,40,0,10,,,,,,,,7,,,70,127
12520,note_on,0,0,6,,,,,,,,5,,,63,127
12520,note_on,21,0,8,,,,,,,,7,,,79,127
12520,note_on,21,0,1,,,,,,,,0,,,87,127
12520,note_on,40,0,4,,,,,,,,3,,,58,127
12520,note_on,40,0,11,,,,,,,,7,,,58,127
12520,note_on,21,0,3,,,,,,,,2,,,67,127
12522,note_on,2,0,10,,,,,,,,7,,,67,0
12522,note_on,2,0,12,,,,,,,,7,,,43,0
12522,note_on,2,0,11,,,,,,,,7,,,55,0
12522,note_on,2,0,4,,,,,,,,3,,,55,0
12539,note_on,19,0,1,,,,,,,,0,,,87,0
12539,note_on,19,0,8,,,,,,,,7,,,79,0
12539,note_on,19,0,2,,,,,,,,1,,,79,0
12539,note_on,19,0,9,,,,,,,,7,,,67,0
12539,note_on,19,0,3,,,,,,,,2,,,67,0
12559,note_on,0,0,6,,,,,,,,5,,,75,0
12559,note_on,37,0,4,,,,,,,,3,,,58,0
12559,note_on,37,0,10,,,,,,,,7,,,70,0
12559,note_on,0,0,5,,,,,,,,4,,,51,0
12559,note_on,39,0,6,,,,,,,,5,,,63,0
12559,note_on,37,0,11,,,,,,,,7,,,58,0
12559,note_on,39,0,7,,,,,,,,6,,,51,0
12559,note_on,37,0,12,,,,,,,,7,,,46,0
12559,note_on,39,0,5,,,,,,,,4,,,63,0
12560,note_on,1,0,7,,,,,,,,6,,,51,127
12560,note_on,21,0,9,,,,,,,,7,,,70,127
12560,note_on,1,0,12,,,,,,,,7,,,43,127
12560,note_on,21,0,2,,,,,,,,1,,,82,127
12560,note_on,1,0,4,,,,,,,,3,,,55,127
12560,note_on,21,0,8,,,,,,,,7,,,82,127
12560,note_on,1,0,11,,,,,,,,7,,,55,127
12560,note_on,21,0,1,,,,,,,,0,,,87,127
12560,note_on,1,0,5,,,,,,,,4,,,51,127
12560,note_on,21,0,3,,,,,,,,2,,,70,127
12560,note_on,0,0,5,,,,,,,,4,,,63,127
12560,note_on,1,0,6,,,,,,,,5,,,63,127
12560,note_on,0,0,6,,,,,,,,5,,,75,127
12560,note_on,1,0,10,,,,,,,,7,,,67,127
12579,note_on,19,0,11,,,,,,,,7,,,55,0
12579,note_on,19,0,8,,,,,,,,7,,,82,0
12579,note_on,19,0,9,,,,,,,,7,,,70,0
12579,note_on,19,0,10,,,,,,,,7,,,67,0
12579,note_on,19,0,1,,,,,,,,0,,,87,0
12579,note_on,19,0,12,,,,,,,,7,,,43,0
12579,note_on,19,0,2,,,,,,,,1,,,82,0
12579,note_on,19,0,4,,,,,,,,3,,,55,0
12579,note_on,19,0,3,,,,,,,,2,,,70,0
12599,note_on,39,0,5,,,,,,,,4,,,63,0
12599,note_on,0,0,5,,,,,,,,4,,,51,0
12599,note_on,39,0,6,,,,,,,,5,,,75,0
12599,note_on,0,0,6,,,,,,,,5,,,63,0
12599,note_on,39,0,7,,,,,,,,6,,,51,0
12600,note_on,21,0,8,,,,,,,,7,,,85,127
12600,note_on,21,0,1,,,,,,,,0,,,87,127
12600,note_on,21,0,11,,,,,,,,7,,,53,127
12600,note_on,21,0,4,,,,,,,,3,,,53,127
12600,note_on,21,0,3,,,,,,,,2,,,73,127
12600,note_on,0,0,3,,,,,,,,2,,,68,127
12600,note_on,21,0,12,,,,,,,,7,,,41,127
12600,note_on,0,0,5,,,,,,,,4,,,51,127
12600,note_on,0,0,6,,,,,,,,5,,,63,127
12600,note_on,1,0,6,,,,,,,,5,,,75,127
12600,note_on,21,0,10,,,,,,,,7,,,65,127
12600,note_on,21,0,9,,,,,,,,7,,,73,127
12600,note_on,21,0,2,,,,,,,,1,,,80,127
12600,note_on,1,0,7,,,,,,,,6,,,51,127
12600,note_on,1,0,5,,,,,,,,4,,,63,127
12639,note_on,39,0,7,,,,,,,,6,,,51,0
12640,note_on,40,0,12,,,,,,,,7,,,44,127
12640,note_on,40,0,10,,,,,,,,7,,,68,127
12640,note_on,40,0,11,,,,,,,,7,,,56,127
12640,note_on,40,0,4,,,,,,,,3,,,56,127
12642,note_on,2,0,11,,,,,,,,7,,,53,0
12642,note_on,2,0,4,,,,,,,,3,,,53,0
12642,note_on,2,0,10,,,,,,,,7,,,65,0
12642,note_on,2,0,12,,,,,,,,7,,,41,0
12679,note_on,37,0,10,,,,,,,,7,,,68,0
12679,note_on,37,0,11,,,,,,,,7,,,56,0
12679,note_on,37,0,12,,,,,,,,7,,,44,0
12679,note_on,37,0,4,,,,,,,,3,,,56,0
12680,note_on,1,0,10,,,,,,,,7,,,65,127
12680,note_on,1,0,11,,,,,,,,7,,,53,127
12680,note_on,1,0,12,,,,,,,,7,,,41,127
12680,note_on,1,0,4,,,,,,,,3,,,53,127
12699,note_on,19,0,10,,,,,,,,7,,,65,0
12699,note_on,19,0,12,,,,,,,,7,,,41,0
12699,note_on,19,0,4,,,,,,,,3,,,53,0
12699,note_on,19,0,11,,,,,,,,7,,,53,0
12719,note_on,119,0,6,,,,,,,,5,,,63,0
12719,note_on,0,0,6,,,,,,,,5,,,75,0
12719,note_on,0,0,3,,,,,,,,2,,,73,0
12719,note_on,119,0,1,,,,,,,,0,,,87,0
12719,note_on,119,0,2,,,,,,,,1,,,80,0
12719,note_on,119,0,8,,,,,,,,7,,,85,0
12719,note_on,119,0,9,,,,,,,,7,,,73,0
12719,note_on,119,0,5,,,,,,,,4,,,51,0
12719,note_on,0,0,5,,,,,,,,4,,,63,0
12719,note_on,119,0,3,,,,,,,,2,,,68,0
12720,note_on,0,0,5,,,,,,,,4,,,63,127
12720,note_on,21,0,12,,,,,,,,7,,,39,127
12720,note_on,81,0,7,,,,,,,,6,,,51,127
12720,note_on,1,0,6,,,,,,,,5,,,63,127
12720,note_on,21,0,4,,,,,,,,3,,,51,127
12720,note_on,1,0,2,,,,,,,,1,,,80,127
12720,note_on,1,0,8,,,,,,,,7,,,84,127
12720,note_on,0,0,6,,,,,,,,5,,,75,127
12720,note_on,1,0,1,,,,,,,,0,,,87,127
12720,note_on,21,0,11,,,,,,,,7,,,51,127
12720,note_on,0,0,3,,,,,,,,2,,,68,127
12720,note_on,1,0,3,,,,,,,,2,,,72,127
12720,note_on,21,0,10,,,,,,,,7,,,63,127
12720,note_on,1,0,5,,,,,,,,4,,,68,127
12720,note_on,0,0,5,,,,,,,,4,,,51,127
12720,note_on,1,0,9,,,,,,,,7,,,72,127
12759,note_on,39,0,7,,,,,,,,6,,,51,0
12760,note_on,40,0,3,,,,,,,,2,,,75,127
12760,note_on,40,0,11,,,,,,,,7,,,56,127
12760,note_on,40,0,12,,,,,,,,7,,,44,127
12760,note_on,40,0,10,,,,,,,,7,,,68,127
12760,note_on,40,0,9,,,,,,,,7,,,75,127
12760,note_on,40,0,4,,,,,,,,3,,,56,127
12760,note_on,40,0,8,,,,,,,,7,,,87,127
12762,note_on,2,0,10,,,,,,,,7,,,63,0
12762,note_on,2,0,3,,,,,,,,2,,,72,0
12762,note_on,2,0,12,,,,,,,,7,,,39,0
12762,note_on,2,0,4,,,,,,,,3,,,51,0
12762,note_on,2,0,11,,,,,,,,7,,,51,0
12762,note_on,2,0,8,,,,,,,,7,,,84,0
12762,note_on,2,0,9,,,,,,,,7,,,72,0
12799,note_on,37,0,3,,,,,,,,2,,,75,0
12799,note_on,37,0,9,,,,,,,,7,,,75,0
12799,note_on,37,0,8,,,,,,,,7,,,87,0
12799,note_on,37,0,4,,,,,,,,3,,,56,0
12799,note_on,37,0,12,,,,,,,,7,,,44,0
12799,note_on,37,0,11,,,,,,,,7,,,56,0
12799,note_on,37,0,10,,,,,,,,7,,,68,0
12800,note_on,1,0,11,,,,,,,,7,,,51,127
12800,note_on,1,0,12,,,,,,,,7,,,39,127
12800,note_on,1,0,9,,,,,,,,7,,,72,127
12800,note_on,1,0,8,,,,,,,,7,,,84,127
12800,note_on,1,0,3,,,,,,,,2,,,72,127
12800,note_on,1,0,10,,,,,,,,7,,,63,127
12800,note_on,1,0,4,,,,,,,,3,,,51,127
12819,note_on,19,0,11,,,,,,,,7,,,51,0
12819,note_on,19,0,8,,,,,,,,7,,,84,0
12819,note_on,19,0,4,,,,,,,,3,,,51,0
12819,note_on,19,0,10,,,,,,,,7,,,63,0
12819,note_on,19,0,12,,,,,,,,7,,,39,0
12819,note_on,19,0,9,,,,,,,,7,,,72,0
12819,note_on,19,0,3,,,,,,,,2,,,72,0
12839,note_on,119,0,6,,,,,,,,5,,,75,0
12839,note_on,0,0,6,,,,,,,,5,,,63,0
12839,note_on,119,0,1,,,,,,,,0,,,87,0
12839,note_on,119,0,5,,,,,,,,4,,,63,0
12839,note_on,0,0,5,,,,,,,,4,,,51,0
12839,note_on,0,0,5,,,,,,,,4,,,68,0
12839,note_on,20,0,3,,,,,,,,2,,,68,0
12839,note_on,119,0,2,,,,,,,,1,,,80,0
12840,note_on,21,0,8,,,,,,,,7,,,82,127
12840,note_on,1,0,5,,,,,,,,4,,,67,127
12840,note_on,0,0,5,,,,,,,,4,,,51,127
12840,note_on,0,0,5,,,,,,,,4,,,63,127
12840,note_on,21,0,9,,,,,,,,7,,,70,127
12840,note_on,0,0,3,,,,,,,,2,,,67,127
12840,note_on,1,0,2,,,,,,,,1,,,79,127
12840,note_on,1,0,3,,,,,,,,2,,,70,127
12840,note_on,21,0,12,,,,,,,,7,,,37,127
12840,note_on,0,0,6,,,,,,,,5,,,63,127
12840,note_on,1,0,6,,,,,,,,5,,,75,127
12840,note_on,21,0,11,,,,,,,,7,,,49,127
12840,note_on,21,0,4,,,,,,,,3,,,49,127
12840,note_on,81,0,7,,,,,,,,6,,,51,127
12840,note_on,21,0,10,,,,,,,,7,,,61,127
12840,note_on,1,0,1,,,,,,,,0,,,87,127
12879,note_on,39,0,7,,,,,,,,6,,,51,0
12880,note_on,40,0,3,,,,,,,,2,,,75,127
12880,note_on,40,0,9,,,,,,,,7,,,75,127
12880,note_on,40,0,8,,,,,,,,7,,,87,127
12882,note_on,2,0,9,,,,,,,,7,,,70,0
12882,note_on,2,0,8,,,,,,,,7,,,82,0
12882,note_on,2,0,3,,,,,,,,2,,,70,0
12919,note_on,37,0,9,,,,,,,,7,,,75,0
12919,note_on,37,0,8,,,,,,,,7,,,87,0
12919,note_on,37,0,3,,,,,,,,2,,,75,0
12920,note_on,1,0,3,,,,,,,,2,,,70,127
12920,note_on,1,0,9,,,,,,,,7,,,70,127
12920,note_on,1,0,8,,,,,,,,7,,,82,127
12939,note_on,19,0,8,,,,,,,,7,,,82,0
12939,note_on,19,0,3,,,,,,,,2,,,70,0
12939,note_on,19,0,9,,,,,,,,7,,,70,0
12959,note_on,119,0,11,,,,,,,,7,,,49,0
12959,note_on,119,0,2,,,,,,,,1,,,79,0
12959,note_on,20,0,3,,,,,,,,2,,,67,0
12959,note_on,119,0,6,,,,,,,,5,,,63,0
12959,note_on,0,0,6,,,,,,,,5,,,75,0
12959,note_on,119,0,1,,,,,,,,0,,,87,0
12959,note_on,119,0,12,,,,,,,,7,,,37,0
12959,note_on,119,0,10,,,,,,,,7,,,61,0
12959,note_on,119,0,4,,,,,,,,3,,,49,0
12959,note_on,0,0,5,,,,,,,,4,,,51,0
12959,note_on,0,0,5,,,,,,,,4,,,67,0
12959,note_on,119,0,5,,,,,,,,4,,,63,0
12960,note_on,1,0,10,,,,,,,,7,,,60,127
12960,note_on,21,0,9,,,,,,,,7,,,68,127
12960,note_on,1,0,5,,,,,,,,4,,,68,127
12960,note_on,0,0,5,,,,,,,,4,,,51,127
12960,note_on,0,0,5,,,,,,,,4,,,63,127
12960,note_on,1,0,4,,,,,,,,3,,,48,127
12960,note_on,1,0,3,,,,,,,,2,,,68,127
12960,note_on,1,0,11,,,,,,,,7,,,48,127
12960,note_on,1,0,12,,,,,,,,7,,,36,127
12960,note_on,21,0,8,,,,,,,,7,,,80,127
12960,note_on,1,0,2,,,,,,,,1,,,80,127
12960,note_on,1,0,1,,,,,,,,0,,,87,127
12960,note_on,0,0,6,,,,,,,,5,,,75,127
12960,note_on,81,0,7,,,,,,,,6,,,51,127
12960,note_on,1,0,6,,,,,,,,5,,,63,127
12979,note_on,19,0,8,,,,,,,,7,,,80,0
12979,note_on,19,0,3,,,,,,,,2,,,68,0
12979,note_on,19,0,9,,,,,,,,7,,,68,0
12999,note_on,39,0,7,,,,,,,,6,,,51,0
13000,note_on,21,0,8,,,,,,,,7,,,84,127
13000,note_on,40,0,4,,,,,,,,3,,,53,127
13000,note_on,40,0,12,,,,,,,,7,,,39,127
13000,note_on,40,0,11,,,,,,,,7,,,51,127
13000,note_on,21,0,3,,,,,,,,2,,,72,127
13000,note_on,21,0,9,,,,,,,,7,,,72,127
13000,note_on,40,0,10,,,,,,,,7,,,63,127
13002,note_on,2,0,11,,,,,,,,7,,,48,0
13002,note_on,2,0,10,,,,,,,,7,,,60,0
13002,note_on,2,0,12,,,,,,,,7,,,36,0
13002,note_on,2,0,4,,,,,,,,3,,,48,0
13019,note_on,19,0,3,,,,,,,,2,,,72,0
13019,note_on,19,0,8,,,,,,,,7,,,84,0
13019,note_on,19,0,9,,,,,,,,7,,,72,0
13039,note_on,37,0,12,,,,,,,,7,,,39,0
13039,note_on,37,0,11,,,,,,,,7,,,51,0
13039,note_on,37,0,10,,,,,,,,7,,,63,0
13039,note_on,37,0,4,,,,,,,,3,,,53,0
13040,note_on,1,0,12,,,,,,,,7,,,36,127
13040,note_on,21,0,8,,,,,,,,7,,,87,127
13040,note_on,1,0,10,,,,,,,,7,,,60,127
13040,note_on,1,0,4,,,,,,,,3,,,48,127
13040,note_on,21,0,3,,,,,,,,2,,,75,127
13040,note_on,21,0,9,,,,,,,,7,,,75,127
13040,note_on,1,0,11,,,,,,,,7,,,48,127
13059,note_on,19,0,8,,,,,,,,7,,,87,0
13059,note_on,19,0,3,,,,,,,,2,,,75,0
13059,note_on,19,0,10,,,,,,,,7,,,60,0
13059,note_on,19,0,4,,,,,,,,3,,,48,0
13059,note_on,19,0,9,,,,,,,,7,,,75,0
13059,note_on,19,0,12,,,,,,,,7,,,36,0
13059,note_on,19,0,11,,,,,,,,7,,,48,0
13079,note_on,0,0,5,,,,,,,,4,,,51,0
13079,note_on,119,0,2,,,,,,,,1,,,80,0
13079,note_on,119,0,6,,,,,,,,5,,,75,0
13079,note_on,119,0,5,,,,,,,,4,,,63,0
13079,note_on,0,0,5,,,,,,,,4,,,68,0
13079,note_on,119,0,1,,,,,,,,0,,,87,0
13079,note_on,0,0,6,,,,,,,,5,,,63,0
13080,note_on,0,0,3,,,,,,,,2,,,73,127
13080,note_on,21,0,11,,,,,,,,7,,,51,127
13080,note_on,1,0,2,,,,,,,,1,,,79,127
13080,note_on,21,0,10,,,,,,,,7,,,63,127
13080,note_on,21,0,8,,,,,,,,7,,,85,127
13080,note_on,21,0,9,,,,,,,,7,,,73,127
13080,note_on,21,0,12,,,,,,,,7,,,39,127
13080,note_on,81,0,7,,,,,,,,6,,,51,127
13080,note_on,0,0,5,,,,,,,,4,,,63,127
13080,note_on,0,0,5,,,,,,,,4,,,51,127
13080,note_on,1,0,5,,,,,,,,4,,,67,127
13080,note_on,1,0,6,,,,,,,,5,,,63,127
13080,note_on,0,0,6,,,,,,,,5,,,75,127
13080,note_on,1,0,1,,,,,,,,0,,,87,127
13080,note_on,21,0,3,,,,,,,,2,,,67,127
13080,note_on,21,0,4,,,,,,,,3,,,53,127
13099,note_on,19,0,12,,,,,,,,7,,,39,0
13099,note_on,19,0,11,,,,,,,,7,,,51,0
13099,note_on,19,0,10,,,,,,,,7,,,63,0
13099,note_on,19,0,4,,,,,,,,3,,,53,0
13119,note_on,39,0,7,,,,,,,,6,,,51,0
13120,note_on,21,0,4,,,,,,,,3,,,46,127
13120,note_on,21,0,11,,,,,,,,7,,,46,127
13120,note_on,21,0,12,,,,,,,,7,,,34,127
13120,note_on,21,0,10,,,,,,,,7,,,58,127
13139,note_on,19,0,10,,,,,,,,7,,,58,0
13139,note_on,19,0,4,,,,,,,,3,,,46,0
13139,note_on,19,0,12,,,,,,,,7,,,34,0
13139,note_on,19,0,11,,,,,,,,7,,,46,0
13160,note_on,21,0,11,,,,,,,,7,,,51,127
13160,note_on,21,0,10,,,,,,,,7,,,63,127
13160,note_on,21,0,12,,,,,,,,7,,,39,127
13160,note_on,21,0,4,,,,,,,,3,,,53,127
13179,note_on,19,0,12,,,,,,,,7,,,39,0
13179,note_on,19,0,10,,,,,,,,7,,,63,0
13179,note_on,19,0,11,,,,,,,,7,,,51,0
13179,note_on,19,0,4,,,,,,,,3,,,53,0
13199,note_on,0,0,5,,,,,,,,4,,,51,0
13199,note_on,0,0,5,,,,,,,,4,,,67,0
13199,note_on,119,0,3,,,,,,,,2,,,73,0
13199,note_on,0,0,6,,,,,,,,5,,,63,0
13199,note_on,0,0,3,,,,,,,,2,,,67,0
13199,note_on,119,0,6,,,,,,,,5,,,75,0
13199,note_on,119,0,5,,,,,,,,4,,,63,0
13199,note_on,119,0,9,,,,,,,,7,,,73,0
13199,note_on,119,0,1,,,,,,,,0,,,87,0
13199,note_on,119,0,2,,,,,,,,1,,,79,0
13199,note_on,119,0,8,,,,,,,,7,,,85,0
13200,note_on,21,0,10,,,,,,,,7,,,56,127
13200,note_on,1,0,2,,,,,,,,1,,,80,127
13200,note_on,21,0,12,,,,,,,,7,,,32,127
13200,note_on,0,0,5,,,,,,,,4,,,63,127
13200,note_on,0,0,5,,,,,,,,4,,,51,127
13200,note_on,1,0,5,,,,,,,,4,,,68,127
13200,note_on,21,0,11,,,,,,,,7,,,44,127
13200,note_on,1,0,8,,,,,,,,7,,,84,127
13200,note_on,81,0,7,,,,,,,,6,,,51,127
13200,note_on,1,0,3,,,,,,,,2,,,72,127
13200,note_on,1,0,6,,,,,,,,5,,,75,127
13200,note_on,21,0,4,,,,,,,,3,,,44,127
13200,note_on,0,0,6,,,,,,,,5,,,63,127
13200,note_on,1,0,9,,,,,,,,7,,,72,127
13200,note_on,1,0,1,,,,,,,,0,,,87,127
13219,note_on,19,0,6,,,,,,,,5,,,63,0
13219,note_on,0,0,5,,,,,,,,4,,,51,0
13219,note_on,19,0,5,,,,,,,,4,,,63,0
13219,note_on,19,0,12,,,,,,,,7,,,32,0
13219,note_on,19,0,1,,,,,,,,0,,,87,0
13219,note_on,19,0,11,,,,,,,,7,,,44,0
13219,note_on,19,0,10,,,,,,,,7,,,56,0
13219,note_on,19,0,2,,,,,,,,1,,,80,0
13219,note_on,19,0,3,,,,,,,,2,,,72,0
13219,note_on,0,0,6,,,,,,,,5,,,75,0
13219,note_on,0,0,5,,,,,,,,4,,,68,0
13219,note_on,19,0,4,,,,,,,,3,,,44,0
13239,note_on,39,0,7,,,,,,,,6,,,51,0
13240,note_on,21,0,3,,,,,,,,2,,,75,127
13240,note_on,40,0,9,,,,,,,,7,,,75,127
13240,note_on,21,0,5,,,,,,,,4,,,51,127
13240,note_on,21,0,4,,,,,,,,3,,,56,127
13240,note_on,21,0,10,,,,,,,,7,,,68,127
13240,note_on,21,0,11,,,,,,,,7,,,56,127
13240,note_on,1,0,7,,,,,,,,6,,,51,127
13240,note_on,0,0,5,,,,,,,,4,,,63,127
13240,note_on,0,0,3,,,,,,,,2,,,72,127
13240,note_on,21,0,1,,,,,,,,0,,,84,127
13240,note_on,0,0,6,,,,,,,,5,,,75,127
13240,note_on,21,0,6,,,,,,,,5,,,63,127
13240,note_on,40,0,8,,,,,,,,7,,,87,127
13240,note_on,21,0,2,,,,,,,,1,,,75,127
13240,note_on,0,0,2,,,,,,,,1,,,84,127
13240,note_on,21,0,12,,,,,,,,7,,,44,127
13240,note_on,0,0,1,,,,,,,,0,,,87,127
13242,note_on,2,0,9,,,,,,,,7,,,72,0
13242,note_on,2,0,8,,,,,,,,7,,,84,0
13259,note_on,19,0,5,,,,,,,,4,,,63,0
13259,note_on,0,0,5,,,,,,,,4,,,51,0
13259,note_on,19,0,1,,,,,,,,0,,,87,0
13259,note_on,0,0,3,,,,,,,,2,,,75,0
13259,note_on,19,0,2,,,,,,,,1,,,84,0
13259,note_on,0,0,1,,,,,,,,0,,,84,0
13259,note_on,19,0,12,,,,,,,,7,,,44,0
13259,note_on,19,0,10,,,,,,,,7,,,68,0
13259,note_on,0,0,6,,,,,,,,5,,,63,0
13259,note_on,19,0,11,,,,,,,,7,,,56,0
13259,note_on,19,0,6,,,,,,,,5,,,75,0
13259,note_on,0,0,2,,,,,,,,1,,,75,0
13259,note_on,19,0,3,,,,,,,,2,,,72,0
13259,note_on,19,0,4,,,,,,,,3,,,56,0
13279,note_on,37,0,8,,,,,,,,7,,,87,0
13279,note_on,39,0,7,,,,,,,,6,,,51,0
13279,note_on,37,0,9,,,,,,,,7,,,75,0
13280,note_on,1,0,9,,,,,,,,7,,,72,127
13280,note_on,21,0,2,,,,,,,,1,,,75,127
13280,note_on,0,0,2,,,,,,,,1,,,84,127
13280,note_on,21,0,11,,,,,,,,7,,,44,127
13280,note_on,0,0,1,,,,,,,,0,,,87,127
13280,note_on,21,0,6,,,,,,,,5,,,63,127
13280,note_on,0,0,6,,,,,,,,5,,,75,127
13280,note_on,21,0,12,,,,,,,,7,,,32,127
13280,note_on,21,0,1,,,,,,,,0,,,84,127
13280,note_on,21,0,3,,,,,,,,2,,,72,127
13280,note_on,0,0,3,,,,,,,,2,,,75,127
13280,note_on,21,0,4,,,,,,,,3,,,44,127
13280,note_on,0,0,5,,,,,,,,4,,,63,127
13280,note_on,21,0,5,,,,,,,,4,,,51,127
13280,note_on,1,0,8,,,,,,,,7,,,84,127
13280,note_on,1,0,7,,,,,,,,6,,,51,127
13280,note_on,21,0,10,,,,,,,,7,,,56,127
13299,note_on,19,0,4,,,,,,,,3,,,44,0
13299,note_on,19,0,1,,,,,,,,0,,,87,0
13299,note_on,19,0,9,,,,,,,,7,,,72,0
13299,note_on,0,0,6,,,,,,,,5,,,63,0
13299,note_on,19,0,11,,,,,,,,7,,,44,0
13299,note_on,19,0,2,,,,,,,,1,,,84,0
13299,note_on,0,0,2,,,,,,,,1,,,75,0
13299,note_on,19,0,12,,,,,,,,7,,,32,0
13299,note_on,19,0,3,,,,,,,,2,,,75,0
13299,note_on,0,0,3,,,,,,,,2,,,72,0
13299,note_on,0,0,5,,,,,,,,4,,,51,0
13299,note_on,19,0,5,,,,,,,,4,,,63,0
13299,note_on,19,0,8,,,,,,,,7,,,84,0
13299,note_on,19,0,10,,,,,,,,7,,,56,0
13299,note_on,19,0,6,,,,,,,,5,,,75,0
13299,note_on,0,0,1,,,,,,,,0,,,84,0
13317,note_on,18,0,1,,,,,,,,0,,,87,127
13319,note_on,39,0,7,,,,,,,,6,,,51,0
13320,note_on,21,0,9,,,,,,,,7,,,75,127
13320,note_on,0,0,5,,,,,,,,4,,,63,127
13320,note_on,21,0,12,,,,,,,,7,,,43,127
13320,note_on,21,0,5,,,,,,,,4,,,51,127
13320,note_on,0,0,6,,,,,,,,5,,,63,127
13320,note_on,21,0,8,,,,,,,,7,,,87,127
13320,note_on,21,0,6,,,,,,,,5,,,75,127
13320,note_on,3,0,1,,,,,,,,0,,,82,127
13320,note_on,21,0,10,,,,,,,,7,,,67,127
13320,note_on,21,0,2,,,,,,,,1,,,82,127
13320,note_on,21,0,3,,,,,,,,2,,,70,127
13320,note_on,0,0,3,,,,,,,,2,,,75,127
13320,note_on,0,0,2,,,,,,,,1,,,75,127
13320,note_on,21,0,11,,,,,,,,7,,,55,127
13320,note_on,1,0,7,,,,,,,,6,,,51,127
13320,note_on,21,0,4,,,,,,,,3,,,55,127
13336,note_on,16,0,1,,,,,,,,0,,,87,0
13339,note_on,19,0,12,,,,,,,,7,,,43,0
13339,note_on,19,0,2,,,,,,,,1,,,75,0
13339,note_on,19,0,6,,,,,,,,5,,,63,0
13339,note_on,19,0,11,,,,,,,,7,,,55,0
13339,note_on,19,0,8,,,,,,,,7,,,87,0
13339,note_on,19,0,4,,,,,,,,3,,,55,0
13339,note_on,3,0,1,,,,,,,,0,,,82,0
13339,note_on,19,0,9,,,,,,,,7,,,75,0
13339,note_on,0,0,2,,,,,,,,1,,,82,0
13339,note_on,0,0,6,,,,,,,,5,,,75,0
13339,note_on,19,0,10,,,,,,,,7,,,67,0
13339,note_on,0,0,3,,,,,,,,2,,,70,0
13339,note_on,19,0,3,,,,,,,,2,,,75,0
13339,note_on,0,0,5,,,,,,,,4,,,51,0
13339,note_on,19,0,5,,,,,,,,4,,,63,0
13359,note_on,39,0,7,,,,,,,,6,,,51,0
13360,note_on,21,0,6,,,,,,,,5,,,75,127
13360,note_on,0,0,3,,,,,,,,2,,,70,127
13360,note_on,0,0,6,,,,,,,,5,,,63,127
13360,note_on,1,0,7,,,,,,,,6,,,51,127
13360,note_on,21,0,12,,,,,,,,7,,,31,127
13360,note_on,21,0,3,,,,,,,,2,,,75,127
13360,note_on,21,0,8,,,,,,,,7,,,82,127
13360,note_on,21,0,2,,,,,,,,1,,,82,127
13360,note_on,21,0,11,,,,,,,,7,,,43,127
13360,note_on,21,0,1,,,,,,,,0,,,82,127
13360,note_on,0,0,1,,,,,,,,0,,,87,127
13360,note_on,21,0,4,,,,,,,,3,,,43,127
13360,note_on,21,0,5,,,,,,,,4,,,51,127
13360,note_on,21,0,10,,,,,,,,7,,,55,127
13360,note_on,0,0,5,,,,,,,,4,,,63,127
13360,note_on,21,0,9,,,,,,,,7,,,70,127
13360,note_on,0,0,2,,,,,,,,1,,,75,127
13379,note_on,19,0,4,,,,,,,,3,,,43,0
13379,note_on,0,0,3,,,,,,,,2,,,75,0
13379,note_on,19,0,10,,,,,,,,7,,,55,0
13379,note_on,19,0,3,,,,,,,,2,,,70,0
13379,note_on,0,0,2,,,,,,,,1,,,82,0
13379,note_on,19,0,11,,,,,,,,7,,,43,0
13379,note_on,0,0,5,,,,,,,,4,,,51,0
13379,note_on,19,0,5,,,,,,,,4,,,63,0
13379,note_on,19,0,9,,,,,,,,7,,,70,0
13379,note_on,0,0,1,,,,,,,,0,,,82,0
13379,note_on,19,0,12,,,,,,,,7,,,31,0
13379,note_on,19,0,8,,,,,,,,7,,,82,0
13379,note_on,19,0,1,,,,,,,,0,,,87,0
13379,note_on,19,0,2,,,,,,,,1,,,75,0
13379,note_on,0,0,6,,,,,,,,5,,,75,0
13379,note_on,19,0,6,,,,,,,,5,,,63,0
13399,note_on,39,0,7,,,,,,,,6,,,51,0
13400,note_on,21,0,5,,,,,,,,4,,,51,127
13400,note_on,0,0,3,,,,,,,,2,,,75,127
13400,note_on,21,0,6,,,,,,,,5,,,75,127
13400,note_on,21,0,3,,,,,,,,2,,,70,127
13400,note_on,0,0,6,,,,,,,,5,,,63,127
13400,note_on,0,0,5,,,,,,,,4,,,63,127
13400,note_on,0,0,2,,,,,,,,1,,,75,127
13400,note_on,21,0,2,,,,,,,,1,,,82,127
13400,note_on,21,0,4,,,,,,,,3,,,55,127
13400,note_on,21,0,9,,,,,,,,7,,,75,127
13400,note_on,21,0,11,,,,,,,,7,,,55,127
13400,note_on,1,0,7,,,,,,,,6,,,51,127
13400,note_on,21,0,8,,,,,,,,7,,,87,127
13400,note_on,21,0,1,,,,,,,,0,,,82,127
13400,note_on,0,0,1,,,,,,,,0,,,87,127
13400,note_on,21,0,12,,,,,,,,7,,,43,127
13400,note_on,21,0,10,,,,,,,,7,,,67,127
13419,note_on,19,0,8,,,,,,,,7,,,87,0
13419,note_on,19,0,2,,,,,,,,1,,,75,0
13419,note_on,19,0,9,,,,,,,,7,,,75,0
13419,note_on,19,0,12,,,,,,,,7,,,43,0
13419,note_on,19,0,1,,,,,,,,0,,,87,0
13419,note_on,0,0,1,,,,,,,,0,,,82,0
13419,note_on,0,0,2,,,,,,,,1,,,82,0
13419,note_on,19,0,5,,,,,,,,4,,,63,0
13419,note_on,19,0,11,,,,,,,,7,,,55,0
13419,note_on,0,0,3,,,,,,,,2,,,70,0
13419,note_on,19,0,3,,,,,,,,2,,,75,0
13419,note_on,19,0,10,,,,,,,,7,,,67,0
13419,note_on,19,0,4,,,,,,,,3,,,55,0
13419,note_on,0,0,6,,,,,,,,5,,,75,0
13419,note_on,19,0,6,,,,,,,,5,,,63,0
13419,note_on,0,0,5,,,,,,,,4,,,51,0
13439,note_on,39,0,7,,,,,,,,6,,,51,0
13440,note_on,21,0,3,,,,,,,,2,,,75,127
13440,note_on,21,0,11,,,,,,,,7,,,44,127
13440,note_on,0,0,3,,,,,,,,2,,,68,127
13440,note_on,0,0,2,,,,,,,,1,,,80,127
13440,note_on,21,0,2,,,,,,,,1,,,72,127
13440,note_on,21,0,10,,,,,,,,7,,,56,127
13440,note_on,21,0,9,,,,,,,,7,,,68,127
13440,note_on,0,0,5,,,,,,,,4,,,51,127
13440,note_on,21,0,12,,,,,,,,7,,,32,127
13440,note_on,21,0,8,,,,,,,,7,,,80,127
13440,note_on,21,0,1,,,,,,,,0,,,87,127
13440,note_on,0,0,1,,,,,,,,0,,,84,127
13440,note_on,21,0,5,,,,,,,,4,,,63,127
13440,note_on,0,0,5,,,,,,,,4,,,65,127
13440,note_on,21,0,4,,,,,,,,3,,,44,127
13440,note_on,0,0,6,,,,,,,,5,,,63,127
13440,note_on,21,0,6,,,,,,,,5,,,75,127
13440,note_on,1,0,7,,,,,,,,6,,,51,127
13459,note_on,0,0,3,,,,,,,,2,,,75,0
13459,note_on,19,0,3,,,,,,,,2,,,68,0
13459,note_on,19,0,5,,,,,,,,4,,,65,0
13459,note_on,0,0,5,,,,,,,,4,,,51,0
13459,note_on,0,0,5,,,,,,,,4,,,63,0
13459,note_on,19,0,12,,,,,,,,7,,,32,0
13459,note_on,19,0,2,,,,,,,,1,,,80,0
13459,note_on,19,0,1,,,,,,,,0,,,84,0
13459,note_on,19,0,4,,,,,,,,3,,,44,0
13459,note_on,19,0,11,,,,,,,,7,,,44,0
13459,note_on,19,0,6,,,,,,,,5,,,63,0
13459,note_on,0,0,2,,,,,,,,1,,,72,0
13459,note_on,0,0,6,,,,,,,,5,,,75,0
13459,note_on,0,0,1,,,,,,,,0,,,87,0
13459,note_on,19,0,9,,,,,,,,7,,,68,0
13459,note_on,19,0,10,,,,,,,,7,,,56,0
13459,note_on,19,0,8,,,,,,,,7,,,80,0
13479,note_on,39,0,7,,,,,,,,6,,,51,0
13480,note_on,21,0,3,,,,,,,,2,,,68,127
13480,note_on,21,0,1,,,,,,,,0,,,87,127
13480,note_on,0,0,1,,,,,,,,0,,,84,127
13480,note_on,0,0,6,,,,,,,,5,,,63,127
13480,note_on,21,0,6,,,,,,,,5,,,75,127
13480,note_on,1,0,7,,,,,,,,6,,,51,127
13480,note_on,21,0,2,,,,,,,,1,,,72,127
13480,note_on,0,0,2,,,,,,,,1,,,80,127
13480,note_on,21,0,8,,,,,,,,7,,,87,127
13480,note_on,21,0,10,,,,,,,,7,,,65,127
13480,note_on,0,0,3,,,,,,,,2,,,75,127
13480,note_on,21,0,9,,,,,,,,7,,,75,127
13480,note_on,21,0,4,,,,,,,,3,,,53,127
13480,note_on,21,0,12,,,,,,,,7,,,41,127
13480,note_on,0,0,5,,,,,,,,4,,,51,127
13480,note_on,21,0,5,,,,,,,,4,,,63,127
13480,note_on,21,0,11,,,,,,,,7,,,53,127
13480,note_on,0,0,5,,,,,,,,4,,,65,127
13499,note_on,19,0,12,,,,,,,,7,,,41,0
13499,note_on,19,0,10,,,,,,,,7,,,65,0
13499,note_on,0,0,2,,,,,,,,1,,,72,0
13499,note_on,19,0,2,,,,,,,,1,,,80,0
13499,note_on,19,0,11,,,,,,,,7,,,53,0
13499,note_on,19,0,9,,,,,,,,7,,,75,0
13499,note_on,19,0,8,,,,,,,,7,,,87,0
13499,note_on,19,0,1,,,,,,,,0,,,84,0
13499,note_on,0,0,1,,,,,,,,0,,,87,0
13499,note_on,0,0,6,,,,,,,,5,,,75,0
13499,note_on,19,0,6,,,,,,,,5,,,63,0
13499,note_on,19,0,4,,,,,,,,3,,,53,0
13499,note_on,19,0,3,,,,,,,,2,,,75,0
13499,note_on,0,0,3,,,,,,,,2,,,68,0
13499,note_on,19,0,5,,,,,,,,4,,,65,0
13499,note_on,0,0,5,,,,,,,,4,,,51,0
13499,note_on,0,0,5,,,,,,,,4,,,63,0
13519,note_on,39,0,7,,,,,,,,6,,,51,0
13520,note_on,0,0,5,,,,,,,,4,,,65,127
13520,note_on,21,0,1,,,,,,,,0,,,87,127
13520,note_on,0,0,1,,,,,,,,0,,,84,127
13520,note_on,0,0,5,,,,,,,,4,,,51,127
13520,note_on,21,0,5,,,,,,,,4,,,63,127
13520,note_on,21,0,9,,,,,,,,7,,,68,127
13520,note_on,21,0,11,,,,,,,,7,,,44,127
13520,note_on,0,0,2,,,,,,,,1,,,80,127
13520,note_on,21,0,10,,,,,,,,7,,,56,127
13520,note_on,21,0,8,,,,,,,,7,,,80,127
13520,note_on,0,0,6,,,,,,,,5,,,63,127
13520,note_on,21,0,12,,,,,,,,7,,,32,127
13520,note_on,21,0,6,,,,,,,,5,,,75,127
13520,note_on,21,0,2,,,,,,,,1,,,72,127
13520,note_on,21,0,4,,,,,,,,3,,,44,127
13520,note_on,21,0,3,,,,,,,,2,,,68,127
13520,note_on,0,0,3,,,,,,,,2,,,75,127
13520,note_on,1,0,7,,,,,,,,6,,,51,127
13539,note_on,19,0,4,,,,,,,,3,,,44,0
13539,note_on,19,0,9,,,,,,,,7,,,68,0
13539,note_on,19,0,5,,,,,,,,4,,,65,0
13539,note_on,0,0,5,,,,,,,,4,,,51,0
13539,note_on,0,0,3,,,,,,,,2,,,68,0
13539,note_on,19,0,2,,,,,,,,1,,,80,0
13539,note_on,0,0,2,,,,,,,,1,,,72,0
13539,note_on,0,0,5,,,,,,,,4,,,63,0
13539,note_on,0,0,1,,,,,,,,0,,,87,0
13539,note_on,19,0,11,,,,,,,,7,,,44,0
13539,note_on,19,0,10,,,,,,,,7,,,56,0
13539,note_on,19,0,12,,,,,,,,7,,,32,0
13539,note_on,19,0,6,,,,,,,,5,,,63,0
13539,note_on,19,0,1,,,,,,,,0,,,84,0
13539,note_on,0,0,6,,,,,,,,5,,,75,0
13539,note_on,19,0,8,,,,,,,,7,,,80,0
13539,note_on,19,0,3,,,,,,,,2,,,75,0
13559,note_on,39,0,7,,,,,,,,6,,,51,0
13560,note_on,0,0,5,,,,,,,,4,,,51,127
13560,note_on,0,0,5,,,,,,,,4,,,67,127
13560,note_on,0,0,1,,,,,,,,0,,,87,127
13560,note_on,1,0,7,,,,,,,,6,,,46,127
13560,note_on,21,0,4,,,,,,,,3,,,46,127
13560,note_on,21,0,9,,,,,,,,7,,,75,127
13560,note_on,0,0,3,,,,,,,,2,,,75,127
13560,note_on,21,0,5,,,,,,,,4,,,63,127
13560,note_on,21,0,1,,,,,,,,0,,,82,127
13560,note_on,21,0,11,,,,,,,,7,,,46,127
13560,note_on,0,0,2,,,,,,,,1,,,79,127
13560,note_on,21,0,10,,,,,,,,7,,,67,127
13560,note_on,21,0,6,,,,,,,,5,,,75,127
13560,note_on,21,0,12,,,,,,,,7,,,34,127
13560,note_on,0,0,6,,,,,,,,5,,,63,127
13560,note_on,21,0,8,,,,,,,,7,,,87,127
13560,note_on,21,0,3,,,,,,,,2,,,67,127
13560,note_on,21,0,2,,,,,,,,1,,,70,127
13579,note_on,19,0,10,,,,,,,,7,,,67,0
13579,note_on,0,0,5,,,,,,,,4,,,63,0
13579,note_on,0,0,5,,,,,,,,4,,,51,0
13579,note_on,19,0,5,,,,,,,,4,,,67,0
13579,note_on,0,0,2,,,,,,,,1,,,70,0
13579,note_on,19,0,2,,,,,,,,1,,,79,0
13579,note_on,19,0,6,,,,,,,,5,,,63,0
13579,note_on,19,0,8,,,,,,,,7,,,87,0
13579,note_on,19,0,1,,,,,,,,0,,,87,0
13579,note_on,0,0,3,,,,,,,,2,,,67,0
13579,note_on,19,0,3,,,,,,,,2,,,75,0
13579,note_on,0,0,1,,,,,,,,0,,,82,0
13579,note_on,19,0,9,,,,,,,,7,,,75,0
13579,note_on,0,0,6,,,,,,,,5,,,75,0
13579,note_on,19,0,12,,,,,,,,7,,,34,0
13579,note_on,19,0,7,,,,,,,,6,,,46,0
13579,note_on,19,0,4,,,,,,,,3,,,46,0
13579,note_on,19,0,11,,,,,,,,7,,,46,0
13580,note_on,1,0,7,,,,,,,,6,,,46,127
13599,note_on,19,0,7,,,,,,,,6,,,46,0
13600,note_on,0,0,1,,,,,,,,0,,,87,127
13600,note_on,21,0,1,,,,,,,,0,,,82,127
13600,note_on,21,0,6,,,,,,,,5,,,75,127
13600,note_on,0,0,6,,,,,,,,5,,,63,127
13600,note_on,21,0,8,,,,,,,,7,,,79,127
13600,note_on,21,0,4,,,,,,,,3,,,55,127
13600,note_on,21,0,2,,,,,,,,1,,,75,127
13600,note_on,21,0,3,,,,,,,,2,,,67,127
13600,note_on,21,0,10,,,,,,,,7,,,58,127
13600,note_on,1,0,7,,,,,,,,6,,,46,127
13600,note_on,21,0,9,,,,,,,,7,,,67,127
13600,note_on,0,0,2,,,,,,,,1,,,79,127
13600,note_on,21,0,5,,,,,,,,4,,,63,127
13600,note_on,0,0,5,,,,,,,,4,,,67,127
13600,note_on,0,0,5,,,,,,,,4,,,51,127
13600,note_on,0,0,3,,,,,,,,2,,,75,127
13600,note_on,21,0,11,,,,,,,,7,,,55,127
13600,note_on,21,0,12,,,,,,,,7,,,43,127
13619,note_on,19,0,10,,,,,,,,7,,,58,0
13619,note_on,19,0,3,,,,,,,,2,,,75,0
13619,note_on,19,0,12,,,,,,,,7,,,43,0
13619,note_on,0,0,1,,,,,,,,0,,,82,0
13619,note_on,0,0,3,,,,,,,,2,,,67,0
13619,note_on,0,0,2,,,,,,,,1,,,75,0
13619,note_on,19,0,4,,,,,,,,3,,,55,0
13619,note_on,0,0,6,,,,,,,,5,,,75,0
13619,note_on,19,0,7,,,,,,,,6,,,46,0
13619,note_on,19,0,6,,,,,,,,5,,,63,0
13619,note_on,19,0,2,,,,,,,,1,,,79,0
13619,note_on,19,0,1,,,,,,,,0,,,87,0
13619,note_on,19,0,9,,,,,,,,7,,,67,0
13619,note_on,19,0,5,,,,,,,,4,,,67,0
13619,note_on,0,0,5,,,,,,,,4,,,51,0
13619,note_on,0,0,5,,,,,,,,4,,,63,0
13619,note_on,19,0,11,,,,,,,,7,,,55,0
13619,note_on,19,0,8,,,,,,,,7,,,79,0
13620,note_on,1,0,7,,,,,,,,6,,,46,127
13639,note_on,19,0,7,,,,,,,,6,,,46,0
13640,note_on,21,0,8,,,,,,,,7,,,87,127
13640,note_on,21,0,4,,,,,,,,3,,,46,127
13640,note_on,0,0,2,,,,,,,,1,,,79,127
13640,note_on,1,0,7,,,,,,,,6,,,46,127
13640,note_on,0,0,5,,,,,,,,4,,,67,127
13640,note_on,21,0,11,,,,,,,,7,,,46,127
13640,note_on,21,0,2,,,,,,,,1,,,75,127
13640,note_on,21,0,1,,,,,,,,0,,,82,127
13640,note_on,0,0,1,,,,,,,,0,,,87,127
13640,note_on,0,0,5,,,,,,,,4,,,51,127
13640,note_on,21,0,10,,,,,,,,7,,,67,127
13640,note_on,21,0,6,,,,,,,,5,,,75,127
13640,note_on,0,0,6,,,,,,,,5,,,63,127
13640,note_on,21,0,3,,,,,,,,2,,,67,127
13640,note_on,0,0,3,,,,,,,,2,,,75,127
13640,note_on,21,0,9,,,,,,,,7,,,75,127
13640,note_on,21,0,5,,,,,,,,4,,,63,127
13640,note_on,21,0,12,,,,,,,,7,,,34,127
13659,note_on,19,0,4,,,,,,,,3,,,46,0
13659,note_on,19,0,10,,,,,,,,7,,,67,0
13659,note_on,19,0,3,,,,,,,,2,,,75,0
13659,note_on,0,0,3,,,,,,,,2,,,67,0
13659,note_on,19,0,2,,,,,,,,1,,,79,0
13659,note_on,19,0,1,,,,,,,,0,,,87,0
13659,note_on,0,0,1,,,,,,,,0,,,82,0
13659,note_on,19,0,9,,,,,,,,7,,,75,0
13659,note_on,19,0,11,,,,,,,,7,,,46,0
13659,note_on,19,0,8,,,,,,,,7,,,87,0
13659,note_on,19,0,5,,,,,,,,4,,,67,0
13659,note_on,0,0,5,,,,,,,,4,,,51,0
13659,note_on,0,0,5,,,,,,,,4,,,63,0
13659,note_on,0,0,2,,,,,,,,1,,,75,0
13659,note_on,19,0,12,,,,,,,,7,,,34,0
13659,note_on,19,0,7,,,,,,,,6,,,46,0
13659,note_on,0,0,6,,,,,,,,5,,,75,0
13659,note_on,19,0,6,,,,,,,,5,,,63,0
13660,note_on,1,0,7,,,,,,,,6,,,46,127
13679,note_on,19,0,7,,,,,,,,6,,,46,0
13680,note_on,0,0,1,,,,,,,,0,,,86,127
13680,note_on,21,0,1,,,,,,,,0,,,82,127
13680,note_on,21,0,10,,,,,,,,7,,,58,127
13680,note_on,21,0,5,,,,,,,,4,,,65,127
13680,note_on,0,0,5,,,,,,,,4,,,58,127
13680,note_on,0,0,5,,,,,,,,4,,,68,127
13680,note_on,21,0,3,,,,,,,,2,,,68,127
13680,note_on,0,0,3,,,,,,,,2,,,74,127
13680,note_on,21,0,4,,,,,,,,3,,,58,127
13680,note_on,1,0,7,,,,,,,,6,,,46,127
13680,note_on,0,0,2,,,,,,,,1,,,77,127
13680,note_on,0,0,6,,,,,,,,5,,,70,127
13680,note_on,21,0,8,,,,,,,,7,,,77,127
13680,note_on,21,0,2,,,,,,,,1,,,80,127
13680,note_on,21,0,6,,,,,,,,5,,,58,127
13680,note_on,21,0,9,,,,,,,,7,,,65,127
13680,note_on,21,0,11,,,,,,,,7,,,58,127
13680,note_on,21,0,12,,,,,,,,7,,,46,127
13699,note_on,19,0,1,,,,,,,,0,,,86,0
13699,note_on,19,0,10,,,,,,,,7,,,58,0
13699,note_on,19,0,8,,,,,,,,7,,,77,0
13699,note_on,19,0,9,,,,,,,,7,,,65,0
13699,note_on,0,0,1,,,,,,,,0,,,82,0
13699,note_on,19,0,4,,,,,,,,3,,,58,0
13699,note_on,19,0,12,,,,,,,,7,,,46,0
13699,note_on,19,0,5,,,,,,,,4,,,68,0
13699,note_on,0,0,5,,,,,,,,4,,,65,0
13699,note_on,19,0,11,,,,,,,,7,,,58,0
13699,note_on,19,0,3,,,,,,,,2,,,74,0
13699,note_on,19,0,2,,,,,,,,1,,,77,0
13699,note_on,0,0,2,,,,,,,,1,,,80,0
13699,note_on,0,0,3,,,,,,,,2,,,68,0
13699,note_on,0,0,5,,,,,,,,4,,,58,0
13699,note_on,19,0,7,,,,,,,,6,,,46,0
13700,note_on,1,0,7,,,,,,,,6,,,46,127
13719,note_on,39,0,6,,,,,,,,5,,,70,0
13719,note_on,0,0,6,,,,,,,,5,,,58,0
13719,note_on,19,0,7,,,,,,,,6,,,46,0
13720,note_on,21,0,12,,,,,,,,7,,,34,127
13720,note_on,1,0,6,,,,,,,,5,,,58,127
13720,note_on,21,0,8,,,,,,,,7,,,86,127
13720,note_on,0,0,6,,,,,,,,5,,,70,127
13720,note_on,21,0,3,,,,,,,,2,,,68,127
13720,note_on,0,0,3,,,,,,,,2,,,74,127
13720,note_on,21,0,11,,,,,,,,7,,,46,127
13720,note_on,21,0,10,,,,,,,,7,,,70,127
13720,note_on,21,0,1,,,,,,,,0,,,82,127
13720,note_on,0,0,2,,,,,,,,1,,,80,127
13720,note_on,21,0,4,,,,,,,,3,,,46,127
13720,note_on,21,0,5,,,,,,,,4,,,65,127
13720,note_on,0,0,5,,,,,,,,4,,,58,127
13720,note_on,1,0,7,,,,,,,,6,,,46,127
13720,note_on,21,0,2,,,,,,,,1,,,77,127
13720,note_on,21,0,9,,,,,,,,7,,,74,127
13720,note_on,0,0,1,,,,,,,,0,,,86,127
13720,note_on,0,0,5,,,,,,,,4,,,68,127
13739,note_on,0,0,2,,,,,,,,1,,,77,0
13739,note_on,19,0,2,,,,,,,,1,,,80,0
13739,note_on,0,0,5,,,,,,,,4,,,58,0
13739,note_on,19,0,1,,,,,,,,0,,,86,0
13739,note_on,19,0,12,,,,,,,,7,,,34,0
13739,note_on,0,0,1,,,,,,,,0,,,82,0
13739,note_on,19,0,11,,,,,,,,7,,,46,0
13739,note_on,19,0,9,,,,,,,,7,,,74,0
13739,note_on,0,0,5,,,,,,,,4,,,65,0
13739,note_on,19,0,8,,,,,,,,7,,,86,0
13739,note_on,0,0,3,,,,,,,,2,,,68,0
13739,note_on,19,0,3,,,,,,,,2,,,74,0
13739,note_on,19,0,5,,,,,,,,4,,,68,0
13739,note_on,19,0,7,,,,,,,,6,,,46,0
13739,note_on,19,0,4,,,,,,,,3,,,46,0
13739,note_on,19,0,10,,,,,,,,7,,,70,0
13740,note_on,1,0,7,,,,,,,,6,,,46,127
13759,note_on,19,0,7,,,,,,,,6,,,46,0
13759,note_on,39,0,6,,,,,,,,5,,,70,0
13759,note_on,0,0,6,,,,,,,,5,,,58,0
13760,note_on,21,0,2,,,,,,,,1,,,77,127
13760,note_on,21,0,5,,,,,,,,4,,,65,127
13760,note_on,0,0,5,,,,,,,,4,,,58,127
13760,note_on,21,0,11,,,,,,,,7,,,58,127
13760,note_on,0,0,5,,,,,,,,4,,,68,127
13760,note_on,21,0,4,,,,,,,,3,,,58,127
13760,note_on,0,0,2,,,,,,,,1,,,80,127
13760,note_on,1,0,6,,,,,,,,5,,,58,127
13760,note_on,21,0,3,,,,,,,,2,,,68,127
13760,note_on,0,0,3,,,,,,,,2,,,74,127
13760,note_on,21,0,1,,,,,,,,0,,,82,127
13760,note_on,1,0,7,,,,,,,,6,,,46,127
13760,note_on,21,0,12,,,,,,,,7,,,46,127
13760,note_on,0,0,1,,,,,,,,0,,,86,127
13760,note_on,21,0,10,,,,,,,,7,,,58,127
13760,note_on,0,0,6,,,,,,,,5,,,70,127
13760,note_on,21,0,9,,,,,,,,7,,,65,127
13760,note_on,21,0,8,,,,,,,,7,,,77,127
13779,note_on,19,0,8,,,,,,,,7,,,77,0
13779,note_on,19,0,1,,,,,,,,0,,,86,0
13779,note_on,19,0,7,,,,,,,,6,,,46,0
13779,note_on,0,0,5,,,,,,,,4,,,65,0
13779,note_on,0,0,5,,,,,,,,4,,,58,0
13779,note_on,19,0,10,,,,,,,,7,,,58,0
13779,note_on,0,0,1,,,,,,,,0,,,82,0
13779,note_on,19,0,5,,,,,,,,4,,,68,0
13779,note_on,19,0,3,,,,,,,,2,,,74,0
13779,note_on,0,0,2,,,,,,,,1,,,77,0
13779,note_on,19,0,12,,,,,,,,7,,,46,0
13779,note_on,19,0,4,,,,,,,,3,,,58,0
13779,note_on,19,0,2,,,,,,,,1,,,80,0
13779,note_on,19,0,11,,,,,,,,7,,,58,0
13779,note_on,19,0,9,,,,,,,,7,,,65,0
13779,note_on,0,0,3,,,,,,,,2,,,68,0
13780,note_on,1,0,7,,,,,,,,6,,,46,127
13799,note_on,19,0,7,,,,,,,,6,,,46,0
13799,note_on,0,0,6,,,,,,,,5,,,58,0
13799,note_on,39,0,6,,,,,,,,5,,,70,0
13800,note_on,0,0,8,,,,,,,,7,,,79,127
13800,note_on,21,0,5,,,,,,,,4,,,63,127
13800,note_on,21,0,9,,,,,,,,7,,,75,127
13800,note_on,0,0,5,,,,,,,,4,,,67,127
13800,note_on,21,0,8,,,,,,,,7,,,87,127
13800,note_on,0,0,2,,,,,,,,1,,,79,127
13800,note_on,21,0,2,,,,,,,,1,,,75,127
13800,note_on,0,0,5,,,,,,,,4,,,58,127
13800,note_on,0,0,1,,,,,,,,0,,,87,127
13800,note_on,1,0,7,,,,,,,,6,,,51,127
13800,note_on,21,0,1,,,,,,,,0,,,82,127
13800,note_on,21,0,10,,,,,,,,7,,,63,127
13800,note_on,1,0,6,,,,,,,,5,,,75,127
13800,note_on,21,0,11,,,,,,,,7,,,51,127
13800,note_on,21,0,3,,,,,,,,2,,,75,127
13800,note_on,0,0,3,,,,,,,,2,,,67,127
13800,note_on,0,0,9,,,,,,,,7,,,67,127
13800,note_on,21,0,12,,,,,,,,7,,,39,127
13800,note_on,21,0,4,,,,,,,,3,,,51,127
13800,note_on,0,0,6,,,,,,,,5,,,63,127
13819,note_on,0,0,9,,,,,,,,7,,,75,0
13819,note_on,19,0,4,,,,,,,,3,,,51,0
13819,note_on,19,0,9,,,,,,,,7,,,67,0
13819,note_on,0,0,3,,,,,,,,2,,,75,0
13819,note_on,0,0,2,,,,,,,,1,,,75,0
13819,note_on,0,0,1,,,,,,,,0,,,82,0
13819,note_on,19,0,2,,,,,,,,1,,,79,0
13819,note_on,19,0,10,,,,,,,,7,,,63,0
13819,note_on,19,0,3,,,,,,,,2,,,67,0
13819,note_on,19,0,8,,,,,,,,7,,,79,0
13819,note_on,19,0,12,,,,,,,,7,,,39,0
13819,note_on,19,0,1,,,,,,,,0,,,87,0
13819,note_on,0,0,8,,,,,,,,7,,,87,0
13819,note_on,19,0,11,,,,,,,,7,,,51,0
13819,note_on,0,0,6,,,,,,,,5,,,75,0
13819,note_on,19,0,6,,,,,,,,5,,,63,0
13819,note_on,19,0,5,,,,,,,,4,,,67,0
13819,note_on,0,0,5,,,,,,,,4,,,58,0
13819,note_on,0,0,5,,,,,,,,4,,,63,0
13839,note_on,39,0,7,,,,,,,,6,,,51,0
13840,note_on,21,0,8,,,,,,,,7,,,79,127
13840,note_on,21,0,10,,,,,,,,7,,,67,127
13840,note_on,21,0,12,,,,,,,,7,,,55,127
13840,note_on,21,0,11,,,,,,,,7,,,67,127
13840,note_on,21,0,9,,,,,,,,7,,,79,127
13879,note_on,39,0,12,,,,,,,,7,,,55,0
13879,note_on,39,0,8,,,,,,,,7,,,79,0
13879,note_on,39,0,10,,,,,,,,7,,,67,0
13879,note_on,39,0,11,,,,,,,,7,,,67,0
13879,note_on,39,0,9,,,,,,,,7,,,79,0
13920,note_on,41,0,8,,,,,,,,7,,,75,127
13920,note_on,41,0,12,,,,,,,,7,,,51,127
13920,note_on,41,0,11,,,,,,,,7,,,63,127
13920,note_on,41,0,9,,,,,,,,7,,,75,127
13920,note_on,41,0,10,,,,,,,,7,,,63,127
13939,note_on,19,0,10,,,,,,,,7,,,63,0
13939,note_on,19,0,8,,,,,,,,7,,,75,0
13939,note_on,19,0,12,,,,,,,,7,,,51,0
13939,note_on,19,0,11,,,,,,,,7,,,63,0
13939,note_on,19,0,9,,,,,,,,7,,,75,0
13960,note_on,21,0,8,,,,,,,,7,,,70,127
13960,note_on,21,0,12,,,,,,,,7,,,46,127
13960,note_on,21,0,10,,,,,,,,7,,,58,127
13960,note_on,21,0,9,,,,,,,,7,,,70,127
13960,note_on,21,0,11,,,,,,,,7,,,58,127
13999,note_on,39,0,11,,,,,,,,7,,,58,0
13999,note_on,39,0,8,,,,,,,,7,,,70,0
13999,note_on,39,0,9,,,,,,,,7,,,70,0
13999,note_on,39,0,10,,,,,,,,7,,,58,0
13999,note_on,39,0,12,,,,,,,,7,,,46,0
14040,note_on,41,0,8,,,,,,,,7,,,67,127
14040,note_on,41,0,12,,,,,,,,7,,,43,127
14040,note_on,41,0,11,,,,,,,,7,,,55,127
14040,note_on,41,0,9,,,,,,,,7,,,67,127
14040,note_on,41,0,10,,,,,,,,7,,,55,127
14059,note_on,19,0,12,,,,,,,,7,,,43,0
14059,note_on,19,0,10,,,,,,,,7,,,55,0
14059,note_on,19,0,8,,,,,,,,7,,,67,0
14059,note_on,19,0,11,,,,,,,,7,,,55,0
14059,note_on,19,0,9,,,,,,,,7,,,67,0
14080,note_on,21,0,10,,,,,,,,7,,,51,127
14080,note_on,21,0,11,,,,,,,,7,,,51,127
14080,note_on,21,0,12,,,,,,,,7,,,39,127
14080,note_on,21,0,8,,,,,,,,7,,,63,127
14100,note_on,41,0,9,,,,,,,,7,,,63,127
14119,note_on,39,0,8,,,,,,,,7,,,63,0
14119,note_on,39,0,12,,,,,,,,7,,,39,0
14119,note_on,39,0,10,,,,,,,,7,,,51,0
14119,note_on,39,0,11,,,,,,,,7,,,51,0
14139,note_on,39,0,9,,,,,,,,7,,,63,0
14160,note_on,41,0,10,,,,,,,,7,,,58,127
14160,note_on,21,0,9,,,,,,,,7,,,58,127
14160,note_on,41,0,11,,,,,,,,7,,,46,127
14160,note_on,41,0,8,,,,,,,,7,,,58,127
14160,note_on,41,0,12,,,,,,,,7,,,34,127
14179,note_on,19,0,10,,,,,,,,7,,,58,0
14179,note_on,19,0,9,,,,,,,,7,,,58,0
14199,note_on,39,0,8,,,,,,,,7,,,58,0
14199,note_on,39,0,11,,,,,,,,7,,,46,0
14199,note_on,39,0,12,,,,,,,,7,,,34,0
14240,note_on,61,0,9,,,,,,,,7,,,58,127
14240,note_on,41,0,8,,,,,,,,7,,,58,127
14240,note_on,41,0,12,,,,,,,,7,,,34,127
14240,note_on,41,0,11,,,,,,,,7,,,46,127
14240,note_on,61,0,10,,,,,,,,7,,,58,127
14250,note_on,10,0,12,,,,,,,,7,,,34,0
14250,note_on,0,0,11,,,,,,,,7,,,44,127
14250,note_on,0,0,10,,,,,,,,7,,,56,127
14250,note_on,10,0,11,,,,,,,,7,,,46,0
14250,note_on,0,0,8,,,,,,,,7,,,56,127
14250,note_on,10,0,8,,,,,,,,7,,,58,0
14250,note_on,10,0,9,,,,,,,,7,,,58,0
14250,note_on,0,0,9,,,,,,,,7,,,56,127
14250,note_on,0,0,12,,,,,,,,7,,,32,127
14250,note_on,10,0,10,,,,,,,,7,,,58,0
14260,note_on,10,0,10,,,,,,,,7,,,56,0
14260,note_on,0,0,10,,,,,,,,7,,,58,127
14260,note_on,0,0,8,,,,,,,,7,,,58,127
14260,note_on,10,0,8,,,,,,,,7,,,56,0
14260,note_on,0,0,9,,,,,,,,7,,,58,127
14260,note_on,10,0,9,,,,,,,,7,,,56,0
14260,note_on,0,0,12,,,,,,,,7,,,34,127
14260,note_on,0,0,11,,,,,,,,7,,,46,127
14260,note_on,10,0,11,,,,,,,,7,,,44,0
14260,note_on,10,0,12,,,,,,,,7,,,32,0
14270,note_on,0,0,11,,,,,,,,7,,,44,127
14270,note_on,10,0,10,,,,,,,,7,,,58,0
14270,note_on,0,0,10,,,,,,,,7,,,56,127
14270,note_on,0,0,8,,,,,,,,7,,,56,127
14270,note_on,10,0,8,,,,,,,,7,,,58,0
14270,note_on,0,0,12,,,,,,,,7,,,32,127
14270,note_on,10,0,9,,,,,,,,7,,,58,0
14270,note_on,10,0,11,,,,,,,,7,,,46,0
14270,note_on,10,0,12,,,,,,,,7,,,34,0
14270,note_on,0,0,9,,,,,,,,7,,,56,127
14280,note_on,10,0,12,,,,,,,,7,,,32,0
14280,note_on,0,0,12,,,,,,,,7,,,31,127
14280,note_on,10,0,9,,,,,,,,7,,,56,0
14280,note_on,0,0,9,,,,,,,,7,,,55,127
14280,note_on,10,0,10,,,,,,,,7,,,56,0
14280,note_on,0,0,10,,,,,,,,7,,,55,127
14280,note_on,0,0,8,,,,,,,,7,,,55,127
14280,note_on,10,0,8,,,,,,,,7,,,56,0
14280,note_on,10,0,11,,,,,,,,7,,,44,0
14280,note_on,0,0,11,,,,,,,,7,,,43,127
14319,note_on,39,0,10,,,,,,,,7,,,55,0
14319,note_on,39,0,11,,,,,,,,7,,,43,0
14319,note_on,39,0,12,,,,,,,,7,,,31,0
14319,note_on,39,0,9,,,,,,,,7,,,55,0
14319,note_on,39,0,8,,,,,,,,7,,,55,0
14320,note_on,501,0,4,,,,,,,,3,,,58,48
14320,note_on,0,0,4,,,,,,,,3,,,55,48
14320,note_on,501,0,5,,,,,,,,4,,,63,48
14320,note_on,501,0,3,,,,,,,,2,,,75,48
14320,note_on,0,0,3,,,,,,,,2,,,67,48
14320,note_on,0,0,2,,,,,,,,1,,,70,49
14320,note_on,501,0,2,,,,,,,,1,,,75,49
14359,note_on,39,0,3,,,,,,,,2,,,67,0
14359,note_on,0,0,2,,,,,,,,1,,,75,0
14359,note_on,39,0,2,,,,,,,,1,,,70,0
14359,note_on,0,0,4,,,,,,,,3,,,58,0
14359,note_on,39,0,4,,,,,,,,3,,,55,0
14359,note_on,39,0,5,,,,,,,,4,,,63,0
14359,note_on,0,0,3,,,,,,,,2,,,75,0
14360,note_on,1,0,5,,,,,,,,4,,,63,48
14360,note_on,0,0,4,,,,,,,,3,,,55,48
14360,note_on,0,0,3,,,,,,,,2,,,67,48
14360,note_on,1,0,4,,,,,,,,3,,,58,48
14360,note_on,1,0,3,,,,,,,,2,,,75,48
14360,note_on,1,0,2,,,,,,,,1,,,70,49
14360,note_on,0,0,2,,,,,,,,1,,,75,49
14399,note_on,0,0,4,,,,,,,,3,,,58,0
14399,note_on,0,0,3,,,,,,,,2,,,75,0
14399,note_on,39,0,3,,,,,,,,2,,,67,0
14399,note_on,0,0,2,,,,,,,,1,,,70,0
14399,note_on,39,0,2,,,,,,,,1,,,75,0
14399,note_on,39,0,5,,,,,,,,4,,,63,0
14399,note_on,39,0,4,,,,,,,,3,,,55,0
14400,note_on,1,0,3,,,,,,,,2,,,65,48
14400,note_on,1,0,4,,,,,,,,3,,,60,48
14400,note_on,0,0,4,,,,,,,,3,,,56,48
14400,note_on,1,0,5,,,,,,,,4,,,63,48
14400,note_on,1,0,2,,,,,,,,1,,,77,49
14400,note_on,0,0,2,,,,,,,,1,,,75,49
14400,note_on,0,0,3,,,,,,,,2,,,75,48
14439,note_on,39,0,4,,,,,,,,3,,,56,0
14439,note_on,39,0,5,,,,,,,,4,,,63,0
14439,note_on,0,0,4,,,,,,,,3,,,60,0
14439,note_on,0,0,3,,,,,,,,2,,,65,0
14439,note_on,0,0,2,,,,,,,,1,,,77,0
14439,note_on,39,0,2,,,,,,,,1,,,75,0
14439,note_on,39,0,3,,,,,,,,2,,,75,0
14440,note_on,0,0,3,,,,,,,,2,,,75,48
14440,note_on,621,0,1,,,,,,,,0,,,87,48
14440,note_on,0,0,2,,,,,,,,1,,,75,49
14440,note_on,0,0,1,,,,,,,,0,,,84,48
14440,note_on,1,0,5,,,,,,,,4,,,63,48
14440,note_on,1,0,2,,,,,,,,1,,,77,49
14440,note_on,1,0,4,,,,,,,,3,,,60,48
14440,note_on,0,0,4,,,,,,,,3,,,56,48
14440,note_on,1,0,3,,,,,,,,2,,,65,48
14479,note_on,0,0,4,,,,,,,,3,,,60,0
14479,note_on,39,0,2,,,,,,,,1,,,75,0
14479,note_on,39,0,4,,,,,,,,3,,,56,0
14479,note_on,39,0,1,,,,,,,,0,,,84,0
14479,note_on,0,0,1,,,,,,,,0,,,87,0
14479,note_on,0,0,2,,,,,,,,1,,,77,0
14479,note_on,0,0,3,,,,,,,,2,,,65,0
14479,note_on,39,0,3,,,,,,,,2,,,75,0
14479,note_on,39,0,5,,,,,,,,4,,,63,0
14480,note_on,0,0,1,,,,,,,,0,,,84,54
14480,note_on,0,0,2,,,,,,,,1,,,75,49
14480,note_on,1,0,5,,,,,,,,4,,,63,48
14480,note_on,1,0,1,,,,,,,,0,,,87,54
14480,note_on,1,0,3,,,,,,,,2,,,66,48
14480,note_on,0,0,3,,,,,,,,2,,,75,48
14480,note_on,1,0,2,,,,,,,,1,,,78,49
14480,note_on,1,0,4,,,,,,,,3,,,60,48
14480,note_on,0,0,4,,,,,,,,3,,,57,48
14519,note_on,0,0,2,,,,,,,,1,,,78,0
14519,note_on,39,0,2,,,,,,,,1,,,75,0
14519,note_on,39,0,4,,,,,,,,3,,,57,0
14519,note_on,39,0,3,,,,,,,,2,,,75,0
14519,note_on,39,0,5,,,,,,,,4,,,63,0
14519,note_on,39,0,1,,,,,,,,0,,,84,0
14519,note_on,0,0,1,,,,,,,,0,,,87,0
14519,note_on,0,0,4,,,,,,,,3,,,60,0
14519,note_on,0,0,3,,,,,,,,2,,,66,0
14520,note_on,1,0,2,,,,,,,,1,,,79,48
14520,note_on,0,0,2,,,,,,,,1,,,75,48
14520,note_on,1,0,4,,,,,,,,3,,,58,48
14520,note_on,0,0,3,,,,,,,,2,,,75,47
14520,note_on,0,0,1,,,,,,,,0,,,87,60
14520,note_on,1,0,1,,,,,,,,0,,,82,60
14520,note_on,1,0,5,,,,,,,,4,,,63,46
14520,note_on,1,0,3,,,,,,,,2,,,67,47
14559,note_on,0,0,1,,,,,,,,0,,,82,0
14559,note_on,39,0,1,,,,,,,,0,,,87,0
14559,note_on,39,0,5,,,,,,,,4,,,63,0
14559,note_on,39,0,4,,,,,,,,3,,,58,0
14559,note_on,39,0,3,,,,,,,,2,,,75,0
14559,note_on,0,0,3,,,,,,,,2,,,67,0
14559,note_on,0,0,2,,,,,,,,1,,,79,0
14559,note_on,39,0,2,,,,,,,,1,,,75,0
14560,note_on,241,0,8,,,,,,,,7,,,67,47
14560,note_on,1,0,1,,,,,,,,0,,,82,67
14560,note_on,0,0,2,,,,,,,,1,,,75,56
14560,note_on,241,0,10,,,,,,,,7,,,58,33
14560,note_on,0,0,5,,,,,,,,4,,,63,54
14560,note_on,0,0,1,,,,,,,,0,,,87,67
14560,note_on,1,0,5,,,,,,,,4,,,67,54
14560,note_on,1,0,4,,,,,,,,3,,,58,55
14560,note_on,1,0,2,,,,,,,,1,,,79,56
14560,note_on,241,0,12,,,,,,,,7,,,34,64
14560,note_on,241,0,11,,,,,,,,7,,,46,48
14560,note_on,0,0,3,,,,,,,,2,,,75,55
14560,note_on,1,0,3,,,,,,,,2,,,67,55
14560,note_on,241,0,9,,,,,,,,7,,,63,55
14599,note_on,0,0,1,,,,,,,,0,,,82,0
14599,note_on,39,0,4,,,,,,,,3,,,58,0
14599,note_on,39,0,10,,,,,,,,7,,,58,0
14599,note_on,39,0,8,,,,,,,,7,,,67,0
14599,note_on,0,0,3,,,,,,,,2,,,67,0
14599,note_on,39,0,3,,,,,,,,2,,,75,0
14599,note_on,39,0,1,,,,,,,,0,,,87,0
14599,note_on,39,0,12,,,,,,,,7,,,34,0
14599,note_on,39,0,9,,,,,,,,7,,,63,0
14599,note_on,0,0,2,,,,,,,,1,,,79,0
14599,note_on,0,0,5,,,,,,,,4,,,67,0
14599,note_on,39,0,2,,,,,,,,1,,,75,0
14599,note_on,39,0,11,,,,,,,,7,,,46,0
14599,note_on,39,0,5,,,,,,,,4,,,63,0
14600,note_on,1,0,11,,,,,,,,7,,,46,64
14600,note_on,1,0,10,,,,,,,,7,,,58,45
14600,note_on,1,0,12,,,,,,,,7,,,34,64
14600,note_on,0,0,5,,,,,,,,4,,,67,63
14600,note_on,1,0,3,,,,,,,,2,,,67,63
14600,note_on,0,0,3,,,,,,,,2,,,75,63
14600,note_on,1,0,1,,,,,,,,0,,,82,73
14600,note_on,1,0,5,,,,,,,,4,,,63,63
14600,note_on,1,0,8,,,,,,,,7,,,67,47
14600,note_on,1,0,9,,,,,,,,7,,,63,63
14600,note_on,1,0,2,,,,,,,,1,,,79,63
14600,note_on,1,0,4,,,,,,,,3,,,58,63
14600,note_on,0,0,2,,,,,,,,1,,,75,63
14600,note_on,0,0,1,,,,,,,,0,,,87,73
14639,note_on,39,0,11,,,,,,,,7,,,46,0
14639,note_on,39,0,5,,,,,,,,4,,,67,0
14639,note_on,39,0,12,,,,,,,,7,,,34,0
14639,note_on,0,0,5,,,,,,,,4,,,63,0
14639,note_on,0,0,1,,,,,,,,0,,,82,0
14639,note_on,39,0,10,,,,,,,,7,,,58,0
14639,note_on,39,0,1,,,,,,,,0,,,87,0
14639,note_on,39,0,4,,,,,,,,3,,,58,0
14639,note_on,39,0,8,,,,,,,,7,,,67,0
14639,note_on,0,0,2,,,,,,,,1,,,79,0
14639,note_on,39,0,2,,,,,,,,1,,,75,0
14639,note_on,39,0,3,,,,,,,,2,,,75,0
14639,note_on,0,0,3,,,,,,,,2,,,67,0
14639,note_on,39,0,9,,,,,,,,7,,,63,0
14640,note_on,1,0,3,,,,,,,,2,,,68,71
14640,note_on,1,0,4,,,,,,,,3,,,58,71
14640,note_on,1,0,1,,,,,,,,0,,,86,79
14640,note_on,1,0,11,,,,,,,,7,,,46,80
14640,note_on,1,0,8,,,,,,,,7,,,68,47
14640,note_on,1,0,9,,,,,,,,7,,,65,71
14640,note_on,1,0,10,,,,,,,,7,,,58,58
14640,note_on,1,0,2,,,,,,,,1,,,80,71
14640,note_on,0,0,2,,,,,,,,1,,,74,71
14640,note_on,1,0,12,,,,,,,,7,,,34,64
14640,note_on,1,0,5,,,,,,,,4,,,58,71
14640,note_on,0,0,5,,,,,,,,4,,,65,71
14640,note_on,0,0,1,,,,,,,,0,,,82,79
14640,note_on,0,0,3,,,,,,,,2,,,74,71
14679,note_on,39,0,5,,,,,,,,4,,,65,0
14679,note_on,39,0,9,,,,,,,,7,,,65,0
14679,note_on,39,0,1,,,,,,,,0,,,82,0
14679,note_on,39,0,4,,,,,,,,3,,,58,0
14679,note_on,0,0,5,,,,,,,,4,,,58,0
14679,note_on,0,0,1,,,,,,,,0,,,86,0
14679,note_on,39,0,11,,,,,,,,7,,,46,0
14679,note_on,39,0,8,,,,,,,,7,,,68,0
14679,note_on,39,0,3,,,,,,,,2,,,74,0
14679,note_on,39,0,10,,,,,,,,7,,,58,0
14679,note_on,39,0,2,,,,,,,,1,,,74,0
14679,note_on,39,0,12,,,,,,,,7,,,34,0
14679,note_on,0,0,3,,,,,,,,2,,,68,0
14679,note_on,0,0,2,,,,,,,,1,,,80,0
14680,note_on,1,0,12,,,,,,,,7,,,34,64
14680,note_on,1,0,8,,,,,,,,7,,,68,47
14680,note_on,1,0,4,,,,,,,,3,,,58,79
14680,note_on,0,0,1,,,,,,,,0,,,82,85
14680,note_on,1,0,1,,,,,,,,0,,,86,85
14680,note_on,0,0,3,,,,,,,,2,,,74,79
14680,note_on,1,0,3,,,,,,,,2,,,68,79
14680,note_on,1,0,9,,,,,,,,7,,,65,79
14680,note_on,0,0,5,,,,,,,,4,,,65,79
14680,note_on,1,0,5,,,,,,,,4,,,58,79
14680,note_on,1,0,10,,,,,,,,7,,,58,70
14680,note_on,0,0,2,,,,,,,,1,,,80,78
14680,note_on,1,0,2,,,,,,,,1,,,74,78
14680,note_on,1,0,11,,,,,,,,7,,,46,95
14719,note_on,39,0,2,,,,,,,,1,,,80,0
14719,note_on,39,0,10,,,,,,,,7,,,58,0
14719,note_on,39,0,3,,,,,,,,2,,,74,0
14719,note_on,39,0,1,,,,,,,,0,,,82,0
14719,note_on,0,0,1,,,,,,,,0,,,86,0
14719,note_on,39,0,4,,,,,,,,3,,,58,0
14719,note_on,0,0,3,,,,,,,,2,,,68,0
14719,note_on,0,0,2,,,,,,,,1,,,74,0
14719,note_on,0,0,5,,,,,,,,4,,,58,0
14719,note_on,39,0,8,,,,,,,,7,,,68,0
14719,note_on,39,0,11,,,,,,,,7,,,46,0
14719,note_on,39,0,5,,,,,,,,4,,,65,0
14719,note_on,39,0,9,,,,,,,,7,,,65,0
14719,note_on,39,0,12,,,,,,,,7,,,34,0
14720,note_on,1,0,9,,,,,,,,7,,,65,87
14720,note_on,1,0,1,,,,,,,,0,,,86,92
14720,note_on,0,0,1,,,,,,,,0,,,82,92
14720,note_on,1,0,8,,,,,,,,7,,,68,47
14720,note_on,0,0,2,,,,,,,,1,,,80,86
14720,note_on,1,0,2,,,,,,,,1,,,74,86
14720,note_on,1,0,12,,,,,,,,7,,,34,64
14720,note_on,1,0,11,,,,,,,,7,,,46,111
14720,note_on,1,0,3,,,,,,,,2,,,68,87
14720,note_on,1,0,4,,,,,,,,3,,,58,88
14720,note_on,0,0,3,,,,,,,,2,,,74,87
14720,note_on,1,0,10,,,,,,,,7,,,58,83
14720,note_on,0,0,5,,,,,,,,4,,,65,88
14720,note_on,1,0,5,,,,,,,,4,,,58,88
14759,note_on,39,0,5,,,,,,,,4,,,65,0
14759,note_on,39,0,2,,,,,,,,1,,,80,0
14759,note_on,0,0,2,,,,,,,,1,,,74,0
14759,note_on,39,0,10,,,,,,,,7,,,58,0
14759,note_on,39,0,8,,,,,,,,7,,,68,0
14759,note_on,39,0,4,,,,,,,,3,,,58,0
14759,note_on,0,0,1,,,,,,,,0,,,86,0
14759,note_on,39,0,3,,,,,,,,2,,,74,0
14759,note_on,39,0,12,,,,,,,,7,,,34,0
14759,note_on,39,0,1,,,,,,,,0,,,82,0
14759,note_on,39,0,11,,,,,,,,7,,,46,0
14759,note_on,39,0,9,,,,,,,,7,,,65,0
14759,note_on,0,0,3,,,,,,,,2,,,68,0
14759,note_on,0,0,5,,,,,,,,4,,,58,0
14760,note_on,1,0,4,,,,,,,,3,,,63,97
14760,note_on,1,0,5,,,,,,,,4,,,63,95
14760,note_on,0,0,5,,,,,,,,4,,,55,95
14760,note_on,921,0,7,,,,,,,,6,,,51,96
14760,note_on,1,0,12,,,,,,,,7,,,39,64
14760,note_on,1,0,1,,,,,,,,0,,,87,98
14760,note_on,1,0,9,,,,,,,,7,,,58,95
14760,note_on,1,0,2,,,,,,,,1,,,75,95
14760,note_on,1,0,3,,,,,,,,2,,,67,97
14760,note_on,0,0,2,,,,,,,,1,,,79,95
14760,note_on,1,0,10,,,,,,,,7,,,63,95
14760,note_on,0,0,1,,,,,,,,0,,,82,98
14760,note_on,1,0,11,,,,,,,,7,,,51,127
14760,note_on,1,0,8,,,,,,,,7,,,67,47
14760,note_on,0,0,3,,,,,,,,2,,,75,97
14779,note_on,0,0,2,,,,,,,,1,,,75,0
14779,note_on,0,0,1,,,,,,,,0,,,87,0
14779,note_on,19,0,9,,,,,,,,7,,,58,0
14779,note_on,19,0,2,,,,,,,,1,,,79,0
14779,note_on,19,0,1,,,,,,,,0,,,82,0
14779,note_on,19,0,12,,,,,,,,7,,,39,0
14779,note_on,19,0,11,,,,,,,,7,,,51,0
14779,note_on,19,0,5,,,,,,,,4,,,55,0
14779,note_on,19,0,10,,,,,,,,7,,,63,0
14779,note_on,0,0,3,,,,,,,,2,,,67,0
14779,note_on,0,0,5,,,,,,,,4,,,63,0
14779,note_on,19,0,3,,,,,,,,2,,,75,0
14779,note_on,19,0,8,,,,,,,,7,,,67,0
14779,note_on,19,0,4,,,,,,,,3,,,63,0
14799,note_on,39,0,7,,,,,,,,6,,,51,0
14800,note_on,0,0,3,,,,,,,,2,,,67,97
14800,note_on,21,0,3,,,,,,,,2,,,79,97
14800,note_on,21,0,8,,,,,,,,7,,,79,47
14800,note_on,0,0,5,,,,,,,,4,,,55,95
14800,note_on,21,0,9,,,,,,,,7,,,79,95
14800,note_on,21,0,4,,,,,,,,3,,,67,97
14800,note_on,21,0,1,,,,,,,,0,,,79,127
14800,note_on,0,0,1,,,,,,,,0,,,91,127
14800,note_on,981,0,6,,,,,,,,5,,,67,127
14800,note_on,0,0,6,,,,,,,,5,,,79,127
14800,note_on,21,0,2,,,,,,,,1,,,79,95
14800,note_on,21,0,10,,,,,,,,7,,,67,95
14800,note_on,21,0,12,,,,,,,,7,,,55,64
14800,note_on,21,0,5,,,,,,,,4,,,67,95
14800,note_on,21,0,11,,,,,,,,7,,,67,127
14839,note_on,0,0,3,,,,,,,,2,,,79,0
14839,note_on,39,0,8,,,,,,,,7,,,79,0
14839,note_on,39,0,12,,,,,,,,7,,,55,0
14839,note_on,39,0,10,,,,,,,,7,,,67,0
14839,note_on,39,0,3,,,,,,,,2,,,67,0
14839,note_on,39,0,6,,,,,,,,5,,,79,0
14839,note_on,0,0,6,,,,,,,,5,,,67,0
14839,note_on,39,0,2,,,,,,,,1,,,79,0
14839,note_on,39,0,4,,,,,,,,3,,,67,0
14839,note_on,39,0,9,,,,,,,,7,,,79,0
14839,note_on,39,0,5,,,,,,,,4,,,55,0
14839,note_on,39,0,11,,,,,,,,7,,,67,0
14839,note_on,39,0,1,,,,,,,,0,,,91,0
14839,note_on,0,0,1,,,,,,,,0,,,79,0
14839,note_on,0,0,5,,,,,,,,4,,,67,0
14880,note_on,41,0,9,,,,,,,,7,,,75,95
14880,note_on,41,0,11,,,,,,,,7,,,63,127
14880,note_on,0,0,1,,,,,,,,0,,,87,127
14880,note_on,41,0,2,,,,,,,,1,,,75,95
14880,note_on,41,0,3,,,,,,,,2,,,75,97
14880,note_on,0,0,3,,,,,,,,2,,,63,97
14880,note_on,41,0,5,,,,,,,,4,,,51,95
14880,note_on,0,0,5,,,,,,,,4,,,63,95
14880,note_on,41,0,6,,,,,,,,5,,,75,127
14880,note_on,81,0,7,,,,,,,,6,,,51,96
14880,note_on,41,0,1,,,,,,,,0,,,75,127
14880,note_on,41,0,4,,,,,,,,3,,,63,97
14880,note_on,41,0,10,,,,,,,,7,,,63,95
14880,note_on,41,0,8,,,,,,,,7,,,75,47
14880,note_on,41,0,12,,,,,,,,7,,,51,64
14880,note_on,0,0,6,,,,,,,,5,,,63,127
14899,note_on,0,0,3,,,,,,,,2,,,75,0
14899,note_on,19,0,4,,,,,,,,3,,,63,0
14899,note_on,19,0,11,,,,,,,,7,,,63,0
14899,note_on,19,0,10,,,,,,,,7,,,63,0
14899,note_on,0,0,6,,,,,,,,5,,,75,0
14899,note_on,19,0,6,,,,,,,,5,,,63,0
14899,note_on,19,0,12,,,,,,,,7,,,51,0
14899,note_on,19,0,3,,,,,,,,2,,,63,0
14899,note_on,0,0,5,,,,,,,,4,,,51,0
14899,note_on,0,0,1,,,,,,,,0,,,75,0
14899,note_on,19,0,1,,,,,,,,0,,,87,0
14899,note_on,19,0,9,,,,,,,,7,,,75,0
14899,note_on,19,0,5,,,,,,,,4,,,63,0
14899,note_on,19,0,8,,,,,,,,7,,,75,0
14899,note_on,19,0,2,,,,,,,,1,,,75,0
14919,note_on,39,0,7,,,,,,,,6,,,51,0
14920,note_on,0,0,6,,,,,,,,5,,,58,127
14920,note_on,0,0,5,,,,,,,,4,,,58,95
14920,note_on,21,0,12,,,,,,,,7,,,46,64
14920,note_on,21,0,10,,,,,,,,7,,,58,95
14920,note_on,21,0,8,,,,,,,,7,,,70,47
14920,note_on,21,0,4,,,,,,,,3,,,58,97
14920,note_on,21,0,5,,,,,,,,4,,,46,95
14920,note_on,21,0,3,,,,,,,,2,,,70,97
14920,note_on,21,0,9,,,,,,,,7,,,70,95
14920,note_on,21,0,2,,,,,,,,1,,,70,95
14920,note_on,21,0,6,,,,,,,,5,,,70,127
14920,note_on,21,0,11,,,,,,,,7,,,58,127
14920,note_on,21,0,1,,,,,,,,0,,,82,126
14920,note_on,0,0,3,,,,,,,,2,,,58,97
14959,note_on,39,0,9,,,,,,,,7,,,70,0
14959,note_on,39,0,12,,,,,,,,7,,,46,0
14959,note_on,39,0,5,,,,,,,,4,,,58,0
14959,note_on,0,0,6,,,,,,,,5,,,70,0
14959,note_on,39,0,6,,,,,,,,5,,,58,0
14959,note_on,0,0,5,,,,,,,,4,,,46,0
14959,note_on,39,0,4,,,,,,,,3,,,58,0
14959,note_on,39,0,11,,,,,,,,7,,,58,0
14959,note_on,39,0,10,,,,,,,,7,,,58,0
14959,note_on,39,0,1,,,,,,,,0,,,82,0
14959,note_on,39,0,3,,,,,,,,2,,,58,0
14959,note_on,0,0,3,,,,,,,,2,,,70,0
14959,note_on,39,0,8,,,,,,,,7,,,70,0
14959,note_on,39,0,2,,,,,,,,1,,,70,0
15000,note_on,81,0,7,,,,,,,,6,,,51,96
15000,note_on,41,0,1,,,,,,,,0,,,79,126
15000,note_on,41,0,6,,,,,,,,5,,,67,127
15000,note_on,41,0,8,,,,,,,,7,,,67,47
15000,note_on,41,0,5,,,,,,,,4,,,55,95
15000,note_on,41,0,9,,,,,,,,7,,,67,95
15000,note_on,41,0,3,,,,,,,,2,,,67,97
15000,note_on,41,0,11,,,,,,,,7,,,55,127
15000,note_on,41,0,4,,,,,,,,3,,,55,97
15000,note_on,41,0,12,,,,,,,,7,,,43,64
15000,note_on,41,0,10,,,,,,,,7,,,55,95
15000,note_on,41,0,2,,,,,,,,1,,,67,95
15019,note_on,19,0,8,,,,,,,,7,,,67,0
15019,note_on,19,0,5,,,,,,,,4,,,55,0
15019,note_on,19,0,11,,,,,,,,7,,,55,0
15019,note_on,19,0,10,,,,,,,,7,,,55,0
15019,note_on,19,0,9,,,,,,,,7,,,67,0
15019,note_on,19,0,6,,,,,,,,5,,,67,0
15019,note_on,19,0,3,,,,,,,,2,,,67,0
15019,note_on,19,0,4,,,,,,,,3,,,55,0
15019,note_on,19,0,12,,,,,,,,7,,,43,0
15019,note_on,19,0,2,,,,,,,,1,,,67,0
15019,note_on,19,0,1,,,,,,,,0,,,79,0
15039,note_on,39,0,7,,,,,,,,6,,,51,0
15040,note_on,21,0,8,,,,,,,,7,,,63,47
15040,note_on,0,0,3,,,,,,,,2,,,63,97
15040,note_on,21,0,3,,,,,,,,2,,,75,97
15040,note_on,21,0,12,,,,,,,,7,,,39,64
15040,note_on,21,0,9,,,,,,,,7,,,63,95
15040,note_on,21,0,1,,,,,,,,0,,,87,127
15040,note_on,0,0,5,,,,,,,,4,,,51,95
15040,note_on,21,0,2,,,,,,,,1,,,75,95
15040,note_on,21,0,4,,,,,,,,3,,,51,97
15040,note_on,21,0,10,,,,,,,,7,,,63,95
15040,note_on,21,0,5,,,,,,,,4,,,63,95
15040,note_on,21,0,11,,,,,,,,7,,,51,127
15040,note_on,21,0,6,,,,,,,,5,,,63,127
15079,note_on,39,0,3,,,,,,,,2,,,63,0
15079,note_on,39,0,6,,,,,,,,5,,,63,0
15079,note_on,39,0,8,,,,,,,,7,,,63,0
15079,note_on,0,0,5,,,,,,,,4,,,63,0
15079,note_on,39,0,5,,,,,,,,4,,,51,0
15079,note_on,0,0,3,,,,,,,,2,,,75,0
15079,note_on,39,0,2,,,,,,,,1,,,75,0
15079,note_on,39,0,1,,,,,,,,0,,,87,0
15079,note_on,39,0,11,,,,,,,,7,,,51,0
15079,note_on,39,0,4,,,,,,,,3,,,51,0
15079,note_on,39,0,9,,,,,,,,7,,,63,0
15079,note_on,39,0,10,,,,,,,,7,,,63,0
15079,note_on,39,0,12,,,,,,,,7,,,39,0
15120,note_on,41,0,5,,,,,,,,4,,,46,95
15120,note_on,0,0,5,,,,,,,,4,,,58,95
15120,note_on,41,0,9,,,,,,,,7,,,58,95
15120,note_on,81,0,7,,,,,,,,6,,,46,96
15120,note_on,41,0,8,,,,,,,,7,,,58,47
15120,note_on,41,0,11,,,,,,,,7,,,46,127
15120,note_on,0,0,3,,,,,,,,2,,,70,97
15120,note_on,41,0,6,,,,,,,,5,,,58,127
15120,note_on,41,0,1,,,,,,,,0,,,82,127
15120,note_on,41,0,4,,,,,,,,3,,,46,97
15120,note_on,41,0,10,,,,,,,,7,,,58,95
15120,note_on,41,0,12,,,,,,,,7,,,34,64
15120,note_on,41,0,2,,,,,,,,1,,,70,95
15120,note_on,41,0,3,,,,,,,,2,,,58,97
15139,note_on,19,0,3,,,,,,,,2,,,70,0
15139,note_on,19,0,2,,,,,,,,1,,,70,0
15139,note_on,19,0,6,,,,,,,,5,,,58,0
15139,note_on,19,0,1,,,,,,,,0,,,82,0
15139,note_on,0,0,3,,,,,,,,2,,,58,0
15139,note_on,19,0,9,,,,,,,,7,,,58,0
15159,note_on,39,0,7,,,,,,,,6,,,46,0
15159,note_on,39,0,11,,,,,,,,7,,,46,0
15159,note_on,39,0,10,,,,,,,,7,,,58,0
15159,note_on,0,0,5,,,,,,,,4,,,46,0
15159,note_on,39,0,5,,,,,,,,4,,,58,0
15159,note_on,39,0,12,,,,,,,,7,,,34,0
15159,note_on,39,0,8,,,,,,,,7,,,58,0
15159,note_on,39,0,4,,,,,,,,3,,,46,0
15200,note_on,41,0,12,,,,,,,,7,,,34,64
15200,note_on,61,0,1,,,,,,,,0,,,82,127
15200,note_on,0,0,6,,,,,,,,5,,,58,127
15200,note_on,41,0,5,,,,,,,,4,,,58,95
15200,note_on,0,0,5,,,,,,,,4,,,46,95
15200,note_on,41,0,7,,,,,,,,6,,,46,96
15200,note_on,41,0,4,,,,,,,,3,,,46,96
15200,note_on,61,0,6,,,,,,,,5,,,70,127
15200,note_on,41,0,10,,,,,,,,7,,,58,95
15200,note_on,61,0,3,,,,,,,,2,,,70,97
15200,note_on,41,0,8,,,,,,,,7,,,58,47
15200,note_on,41,0,11,,,,,,,,7,,,46,127
15200,note_on,61,0,9,,,,,,,,7,,,58,95
15210,note_on,10,0,8,,,,,,,,7,,,58,0
15210,note_on,10,0,1,,,,,,,,0,,,82,0
15210,note_on,0,0,1,,,,,,,,0,,,80,127
15210,note_on,0,0,10,,,,,,,,7,,,56,95
15210,note_on,0,0,4,,,,,,,,3,,,44,96
15210,note_on,0,0,9,,,,,,,,7,,,56,95
15210,note_on,10,0,3,,,,,,,,2,,,70,0
15210,note_on,10,0,9,,,,,,,,7,,,58,0
15210,note_on,10,0,11,,,,,,,,7,,,46,0
15210,note_on,0,0,11,,,,,,,,7,,,44,127
15210,note_on,0,0,12,,,,,,,,7,,,32,64
15210,note_on,10,0,12,,,,,,,,7,,,34,0
15210,note_on,10,0,4,,,,,,,,3,,,46,0
15210,note_on,0,0,3,,,,,,,,2,,,68,97
15210,note_on,10,0,10,,,,,,,,7,,,58,0
15210,note_on,0,0,8,,,,,,,,7,,,56,47
15220,note_on,10,0,8,,,,,,,,7,,,56,0
15220,note_on,10,0,9,,,,,,,,7,,,56,0
15220,note_on,0,0,1,,,,,,,,0,,,82,127
15220,note_on,10,0,1,,,,,,,,0,,,80,0
15220,note_on,0,0,9,,,,,,,,7,,,58,95
15220,note_on,0,0,8,,,,,,,,7,,,58,47
15220,note_on,0,0,12,,,,,,,,7,,,34,64
15220,note_on,10,0,11,,,,,,,,7,,,44,0
15220,note_on,0,0,4,,,,,,,,3,,,46,96
15220,note_on,0,0,11,,,,,,,,7,,,46,127
15220,note_on,0,0,10,,,,,,,,7,,,58,95
15220,note_on,10,0,10,,,,,,,,7,,,56,0
15220,note_on,10,0,3,,,,,,,,2,,,68,0
15220,note_on,0,0,3,,,,,,,,2,,,70,97
15220,note_on,10,0,4,,,,,,,,3,,,44,0
15220,note_on,10,0,12,,,,,,,,7,,,32,0
15230,note_on,10,0,8,,,,,,,,7,,,58,0
15230,note_on,10,0,3,,,,,,,,2,,,70,0
15230,note_on,10,0,11,,,,,,,,7,,,46,0
15230,note_on,10,0,9,,,,,,,,7,,,58,0
15230,note_on,0,0,9,,,,,,,,7,,,56,95
15230,note_on,0,0,3,,,,,,,,2,,,68,97
15230,note_on,0,0,8,,,,,,,,7,,,56,47
15230,note_on,0,0,11,,,,,,,,7,,,44,127
15230,note_on,0,0,4,,,,,,,,3,,,44,96
15230,note_on,10,0,4,,,,,,,,3,,,46,0
15230,note_on,10,0,10,,,,,,,,7,,,58,0
15230,note_on,0,0,10,,,,,,,,7,,,56,95
15230,note_on,0,0,1,,,,,,,,0,,,80,127
15230,note_on,10,0,12,,,,,,,,7,,,34,0
15230,note_on,10,0,1,,,,,,,,0,,,82,0
15230,note_on,0,0,12,,,,,,,,7,,,32,64
15239,note_on,39,0,5,,,,,,,,4,,,46,0
15239,note_on,0,0,5,,,,,,,,4,,,58,0
15239,note_on,39,0,6,,,,,,,,5,,,58,0
15239,note_on,0,0,6,,,,,,,,5,,,70,0
15239,note_on,39,0,7,,,,,,,,6,,,46,0
15240,note_on,10,0,8,,,,,,,,7,,,56,0
15240,note_on,0,0,8,,,,,,,,7,,,55,47
15240,note_on,10,0,11,,,,,,,,7,,,44,0
15240,note_on,0,0,10,,,,,,,,7,,,55,95
15240,note_on,10,0,9,,,,,,,,7,,,56,0
15240,note_on,0,0,9,,,,,,,,7,,,55,95
15240,note_on,10,0,10,,,,,,,,7,,,56,0
15240,note_on,10,0,12,,,,,,,,7,,,32,0
15240,note_on,0,0,12,,,,,,,,7,,,31,64
15240,note_on,0,0,11,,,,,,,,7,,,43,127
15240,note_on,0,0,4,,,,,,,,3,,,43,96
15240,note_on,10,0,3,,,,,,,,2,,,68,0
15240,note_on,0,0,3,,,,,,,,2,,,67,97
15240,note_on,1,0,6,,,,,,,,5,,,63,127
15240,note_on,10,0,1,,,,,,,,0,,,80,0
15240,note_on,0,0,1,,,,,,,,0,,,79,127
15240,note_on,10,0,4,,,,,,,,3,,,44,0
15240,note_on,0,0,5,,,,,,,,4,,,51,95
15240,note_on,1,0,5,,,,,,,,4,,,63,95
15259,note_on,19,0,3,,,,,,,,2,,,67,0
15259,note_on,19,0,1,,,,,,,,0,,,79,0
15279,note_on,39,0,4,,,,,,,,3,,,43,0
15279,note_on,39,0,6,,,,,,,,5,,,63,0
15279,note_on,39,0,10,,,,,,,,7,,,55,0
15279,note_on,39,0,12,,,,,,,,7,,,31,0
15279,note_on,39,0,11,,,,,,,,7,,,43,0
15279,note_on,39,0,5,,,,,,,,4,,,51,0
15279,note_on,0,0,5,,,,,,,,4,,,63,0
15279,note_on,39,0,9,,,,,,,,7,,,55,0
15279,note_on,39,0,8,,,,,,,,7,,,55,0
15280,note_on,1,0,4,,,,,,,,3,,,62,48
15280,note_on,0,0,4,,,,,,,,3,,,59,48
15280,note_on,141,0,2,,,,,,,,1,,,77,48
15280,note_on,21,0,3,,,,,,,,2,,,68,47
15299,note_on,19,0,2,,,,,,,,1,,,77,0
15299,note_on,0,0,4,,,,,,,,3,,,62,0
15299,note_on,19,0,3,,,,,,,,2,,,68,0
15299,note_on,19,0,4,,,,,,,,3,,,59,0
15320,note_on,21,0,4,,,,,,,,3,,,60,48
15320,note_on,21,0,3,,,,,,,,2,,,67,48
15320,note_on,21,0,2,,,,,,,,1,,,75,48
15320,note_on,0,0,4,,,,,,,,3,,,63,48
15339,note_on,0,0,4,,,,,,,,3,,,60,0
15339,note_on,19,0,4,,,,,,,,3,,,63,0
15339,note_on,19,0,2,,,,,,,,1,,,75,0
15339,note_on,19,0,3,,,,,,,,2,,,67,0
15360,note_on,21,0,3,,,,,,,,2,,,68,48
15360,note_on,21,0,4,,,,,,,,3,,,62,48
15360,note_on,21,0,2,,,,,,,,1,,,77,48
15360,note_on,0,0,4,,,,,,,,3,,,59,48
15379,note_on,19,0,4,,,,,,,,3,,,59,0
15379,note_on,19,0,2,,,,,,,,1,,,77,0
15379,note_on,0,0,4,,,,,,,,3,,,62,0
15379,note_on,19,0,3,,,,,,,,2,,,68,0
15400,note_on,21,0,4,,,,,,,,3,,,60,48
15400,note_on,0,0,4,,,,,,,,3,,,63,48
15400,note_on,21,0,2,,,,,,,,1,,,75,48
15400,note_on,21,0,3,,,,,,,,2,,,67,48
15419,note_on,0,0,4,,,,,,,,3,,,60,0
15419,note_on,19,0,3,,,,,,,,2,,,67,0
15419,note_on,19,0,4,,,,,,,,3,,,63,0
15419,note_on,19,0,2,,,,,,,,1,,,75,0
15440,note_on,21,0,3,,,,,,,,2,,,68,48
15440,note_on,21,0,4,,,,,,,,3,,,62,48
15440,note_on,0,0,4,,,,,,,,3,,,59,48
15440,note_on,21,0,2,,,,,,,,1,,,77,48
15459,note_on,19,0,4,,,,,,,,3,,,59,0
15459,note_on,19,0,2,,,,,,,,1,,,77,0
15459,note_on,0,0,4,,,,,,,,3,,,62,0
15459,note_on,19,0,3,,,,,,,,2,,,68,0
15480,note_on,21,0,3,,,,,,,,2,,,67,48
15480,note_on,21,0,4,,,,,,,,3,,,60,48
15480,note_on,0,0,4,,,,,,,,3,,,63,48
15480,note_on,21,0,2,,,,,,,,1,,,75,48
15499,note_on,0,0,4,,,,,,,,3,,,60,0
15499,note_on,19,0,4,,,,,,,,3,,,63,0
15499,note_on,19,0,2,,,,,,,,1,,,75,0
15499,note_on,19,0,3,,,,,,,,2,,,67,0
15520,note_on,241,0,9,,,,,,,,7,,,73,48
15520,note_on,241,0,10,,,,,,,,7,,,67,48
15520,note_on,241,0,8,,,,,,,,7,,,82,47
15520,note_on,241,0,11,,,,,,,,7,,,64,48
15539,note_on,19,0,11,,,,,,,,7,,,64,0
15539,note_on,19,0,8,,,,,,,,7,,,82,0
15539,note_on,19,0,10,,,,,,,,7,,,67,0
15539,note_on,19,0,9,,,,,,,,7,,,73,0
15560,note_on,21,0,9,,,,,,,,7,,,72,48
15560,note_on,21,0,11,,,,,,,,7,,,65,48
15560,note_on,21,0,8,,,,,,,,7,,,80,47
15560,note_on,21,0,10,,,,,,,,7,,,68,48
15579,note_on,19,0,11,,,,,,,,7,,,65,0
15579,note_on,19,0,10,,,,,,,,7,,,68,0
15579,note_on,19,0,8,,,,,,,,7,,,80,0
15579,note_on,19,0,9,,,,,,,,7,,,72,0
15600,note_on,21,0,9,,,,,,,,7,,,73,48
15600,note_on,21,0,11,,,,,,,,7,,,64,48
15600,note_on,21,0,8,,,,,,,,7,,,82,47
15600,note_on,21,0,10,,,,,,,,7,,,67,48
15619,note_on,19,0,10,,,,,,,,7,,,67,0
15619,note_on,19,0,11,,,,,,,,7,,,64,0
15619,note_on,19,0,8,,,,,,,,7,,,82,0
15619,note_on,19,0,9,,,,,,,,7,,,73,0
15640,note_on,21,0,9,,,,,,,,7,,,72,48
15640,note_on,21,0,11,,,,,,,,7,,,65,48
15640,note_on,21,0,10,,,,,,,,7,,,68,48
15640,note_on,21,0,8,,,,,,,,7,,,80,47
15659,note_on,19,0,10,,,,,,,,7,,,68,0
15659,note_on,19,0,8,,,,,,,,7,,,80,0
15659,note_on,19,0,11,,,,,,,,7,,,65,0
15659,note_on,19,0,9,,,,,,,,7,,,72,0
15680,note_on,21,0,10,,,,,,,,7,,,67,48
15680,note_on,21,0,9,,,,,,,,7,,,73,48
15680,note_on,21,0,8,,,,,,,,7,,,82,47
15680,note_on,21,0,11,,,,,,,,7,,,64,48
15699,note_on,19,0,9,,,,,,,,7,,,73,0
15699,note_on,19,0,10,,,,,,,,7,,,67,0
15699,note_on,19,0,11,,,,,,,,7,,,64,0
15699,note_on,19,0,8,,,,,,,,7,,,82,0
15720,note_on,21,0,9,,,,,,,,7,,,72,48
15720,note_on,21,0,10,,,,,,,,7,,,68,48
15720,note_on,21,0,11,,,,,,,,7,,,65,48
15720,note_on,21,0,8,,,,,,,,7,,,80,47
15739,note_on,19,0,11,,,,,,,,7,,,65,0
15739,note_on,19,0,10,,,,,,,,7,,,68,0
15739,note_on,19,0,8,,,,,,,,7,,,80,0
15739,note_on,19,0,9,,,,,,,,7,,,72,0
15760,note_on,0,0,4,,,,,,,,3,,,57,48
15760,note_on,261,0,4,,,,,,,,3,,,60,48
15760,note_on,261,0,3,,,,,,,,2,,,66,48
15760,note_on,261,0,2,,,,,,,,1,,,75,48
15779,note_on,0,0,4,,,,,,,,3,,,60,0
15779,note_on,19,0,2,,,,,,,,1,,,75,0
15779,note_on,19,0,3,,,,,,,,2,,,66,0
15779,note_on,19,0,4,,,,,,,,3,,,57,0
15800,note_on,21,0,3,,,,,,,,2,,,65,48
15800,note_on,21,0,2,,,,,,,,1,,,74,48
15800,note_on,21,0,4,,,,,,,,3,,,62,48
15800,note_on,0,0,4,,,,,,,,3,,,58,48
15819,note_on,0,0,4,,,,,,,,3,,,62,0
15819,note_on,19,0,2,,,,,,,,1,,,74,0
15819,note_on,19,0,4,,,,,,,,3,,,58,0
15819,note_on,19,0,3,,,,,,,,2,,,65,0
15840,note_on,21,0,4,,,,,,,,3,,,60,48
15840,note_on,0,0,4,,,,,,,,3,,,57,48
15840,note_on,21,0,3,,,,,,,,2,,,66,48
15840,note_on,21,0,2,,,,,,,,1,,,75,48
15859,note_on,19,0,2,,,,,,,,1,,,75,0
15859,note_on,19,0,4,,,,,,,,3,,,57,0
15859,note_on,19,0,3,,,,,,,,2,,,66,0
15859,note_on,0,0,4,,,,,,,,3,,,60,0
15880,note_on,21,0,3,,,,,,,,2,,,65,48
15880,note_on,21,0,4,,,,,,,,3,,,62,48
15880,note_on,0,0,4,,,,,,,,3,,,58,48
15880,note_on,21,0,2,,,,,,,,1,,,74,48
15899,note_on,19,0,3,,,,,,,,2,,,65,0
15899,note_on,0,0,4,,,,,,,,3,,,62,0
15899,note_on,19,0,4,,,,,,,,3,,,58,0
15899,note_on,19,0,2,,,,,,,,1,,,74,0
15920,note_on,0,0,4,,,,,,,,3,,,57,48
15920,note_on,21,0,4,,,,,,,,3,,,60,48
15920,note_on,21,0,2,,,,,,,,1,,,75,48
15920,note_on,21,0,3,,,,,,,,2,,,66,48
15939,note_on,19,0,2,,,,,,,,1,,,75,0
15939,note_on,0,0,4,,,,,,,,3,,,60,0
15939,note_on,19,0,4,,,,,,,,3,,,57,0
15939,note_on,19,0,3,,,,,,,,2,,,66,0
15960,note_on,21,0,3,,,,,,,,2,,,65,48
15960,note_on,21,0,2,,,,,,,,1,,,74,48
15960,note_on,21,0,4,,,,,,,,3,,,62,48
15960,note_on,0,0,4,,,,,,,,3,,,58,48
15979,note_on,0,0,4,,,,,,,,3,,,62,0
15979,note_on,19,0,4,,,,,,,,3,,,58,0
15979,note_on,19,0,2,,,,,,,,1,,,74,0
15979,note_on,19,0,3,,,,,,,,2,,,65,0
16000,note_on,261,0,11,,,,,,,,7,,,62,47
16000,note_on,261,0,10,,,,,,,,7,,,65,48
16000,note_on,261,0,8,,,,,,,,7,,,80,47
16000,note_on,261,0,9,,,,,,,,7,,,71,48
16019,note_on,19,0,8,,,,,,,,7,,,80,0
16019,note_on,19,0,9,,,,,,,,7,,,71,0
16019,note_on,19,0,10,,,,,,,,7,,,65,0
16019,note_on,19,0,11,,,,,,,,7,,,62,0
16040,note_on,21,0,9,,,,,,,,7,,,70,48
16040,note_on,21,0,10,,,,,,,,7,,,67,48
16040,note_on,21,0,11,,,,,,,,7,,,63,47
16040,note_on,21,0,8,,,,,,,,7,,,79,47
16059,note_on,19,0,11,,,,,,,,7,,,63,0
16059,note_on,19,0,10,,,,,,,,7,,,67,0
16059,note_on,19,0,9,,,,,,,,7,,,70,0
16059,note_on,19,0,8,,,,,,,,7,,,79,0
16080,note_on,21,0,9,,,,,,,,7,,,71,48
16080,note_on,21,0,8,,,,,,,,7,,,80,47
16080,note_on,21,0,11,,,,,,,,7,,,62,48
16080,note_on,21,0,10,,,,,,,,7,,,65,48
16099,note_on,19,0,10,,,,,,,,7,,,65,0
16099,note_on,19,0,9,,,,,,,,7,,,71,0
16099,note_on,19,0,8,,,,,,,,7,,,80,0
16099,note_on,19,0,11,,,,,,,,7,,,62,0
16120,note_on,21,0,11,,,,,,,,7,,,63,48
16120,note_on,21,0,9,,,,,,,,7,,,70,48
16120,note_on,21,0,8,,,,,,,,7,,,79,47
16120,note_on,21,0,10,,,,,,,,7,,,67,48
16139,note_on,19,0,9,,,,,,,,7,,,70,0
16139,note_on,19,0,11,,,,,,,,7,,,63,0
16139,note_on,19,0,8,,,,,,,,7,,,79,0
16139,note_on,19,0,10,,,,,,,,7,,,67,0
16160,note_on,21,0,10,,,,,,,,7,,,65,48
16160,note_on,21,0,8,,,,,,,,7,,,80,47
16160,note_on,21,0,9,,,,,,,,7,,,71,48
16160,note_on,21,0,11,,,,,,,,7,,,62,48
16179,note_on,19,0,11,,,,,,,,7,,,62,0
16179,note_on,19,0,8,,,,,,,,7,,,80,0
16179,note_on,19,0,10,,,,,,,,7,,,65,0
16179,note_on,19,0,9,,,,,,,,7,,,71,0
16200,note_on,21,0,9,,,,,,,,7,,,70,48
16200,note_on,21,0,8,,,,,,,,7,,,79,47
16200,note_on,21,0,11,,,,,,,,7,,,63,48
16200,note_on,21,0,10,,,,,,,,7,,,67,48
16219,note_on,19,0,11,,,,,,,,7,,,63,0
16219,note_on,19,0,9,,,,,,,,7,,,70,0
16219,note_on,19,0,10,,,,,,,,7,,,67,0
16219,note_on,19,0,8,,,,,,,,7,,,79,0
16240,note_on,261,0,4,,,,,,,,3,,,56,48
16240,note_on,981,0,1,,,,,,,,0,,,84,48
16240,note_on,0,0,3,,,,,,,,2,,,68,48
16240,note_on,961,0,5,,,,,,,,4,,,63,48
16240,note_on,261,0,2,,,,,,,,1,,,80,48
16240,note_on,261,0,3,,,,,,,,2,,,75,48
16259,note_on,19,0,2,,,,,,,,1,,,80,0
16259,note_on,19,0,1,,,,,,,,0,,,84,0
16259,note_on,0,0,3,,,,,,,,2,,,75,0
16259,note_on,19,0,5,,,,,,,,4,,,63,0
16259,note_on,19,0,3,,,,,,,,2,,,68,0
16259,note_on,19,0,4,,,,,,,,3,,,56,0
16280,note_on,21,0,1,,,,,,,,0,,,82,48
16280,note_on,21,0,5,,,,,,,,4,,,63,48
16280,note_on,21,0,4,,,,,,,,3,,,63,48
16280,note_on,21,0,3,,,,,,,,2,,,75,48
16280,note_on,0,0,3,,,,,,,,2,,,67,48
16280,note_on,21,0,2,,,,,,,,1,,,79,48
16299,note_on,19,0,4,,,,,,,,3,,,63,0
16299,note_on,19,0,5,,,,,,,,4,,,63,0
16299,note_on,19,0,2,,,,,,,,1,,,79,0
16299,note_on,19,0,3,,,,,,,,2,,,67,0
16299,note_on,19,0,1,,,,,,,,0,,,82,0
16299,note_on,0,0,3,,,,,,,,2,,,75,0
16320,note_on,21,0,2,,,,,,,,1,,,80,48
16320,note_on,21,0,3,,,,,,,,2,,,75,48
16320,note_on,21,0,4,,,,,,,,3,,,56,48
16320,note_on,21,0,5,,,,,,,,4,,,63,48
16320,note_on,21,0,1,,,,,,,,0,,,84,48
16320,note_on,0,0,3,,,,,,,,2,,,68,48
16339,note_on,19,0,3,,,,,,,,2,,,68,0
16339,note_on,19,0,5,,,,,,,,4,,,63,0
16339,note_on,0,0,3,,,,,,,,2,,,75,0
16339,note_on,19,0,2,,,,,,,,1,,,80,0
16339,note_on,19,0,4,,,,,,,,3,,,56,0
16339,note_on,19,0,1,,,,,,,,0,,,84,0
16360,note_on,21,0,4,,,,,,,,3,,,63,48
16360,note_on,21,0,5,,,,,,,,4,,,63,48
16360,note_on,0,0,3,,,,,,,,2,,,67,48
16360,note_on,21,0,2,,,,,,,,1,,,79,48
16360,note_on,21,0,3,,,,,,,,2,,,75,48
16360,note_on,21,0,1,,,,,,,,0,,,82,49
16379,note_on,19,0,2,,,,,,,,1,,,79,0
16379,note_on,0,0,3,,,,,,,,2,,,75,0
16379,note_on,19,0,1,,,,,,,,0,,,82,0
16379,note_on,19,0,5,,,,,,,,4,,,63,0
16379,note_on,19,0,4,,,,,,,,3,,,63,0
16379,note_on,19,0,3,,,,,,,,2,,,67,0
16400,note_on,21,0,2,,,,,,,,1,,,80,48
16400,note_on,0,0,3,,,,,,,,2,,,68,48
16400,note_on,21,0,4,,,,,,,,3,,,56,48
16400,note_on,21,0,1,,,,,,,,0,,,84,49
16400,note_on,21,0,5,,,,,,,,4,,,63,48
16400,note_on,21,0,3,,,,,,,,2,,,75,48
16419,note_on,19,0,3,,,,,,,,2,,,68,0
16419,note_on,19,0,1,,,,,,,,0,,,84,0
16419,note_on,0,0,3,,,,,,,,2,,,75,0
16419,note_on,19,0,4,,,,,,,,3,,,56,0
16419,note_on,19,0,5,,,,,,,,4,,,63,0
16419,note_on,19,0,2,,,,,,,,1,,,80,0
16440,note_on,21,0,1,,,,,,,,0,,,82,49
16440,note_on,0,0,3,,,,,,,,2,,,67,48
16440,note_on,21,0,4,,,,,,,,3,,,63,48
16440,note_on,21,0,5,,,,,,,,4,,,63,48
16440,note_on,21,0,3,,,,,,,,2,,,75,48
16440,note_on,21,0,2,,,,,,,,1,,,79,48
16459,note_on,19,0,5,,,,,,,,4,,,63,0
16459,note_on,19,0,3,,,,,,,,2,,,67,0
16459,note_on,0,0,3,,,,,,,,2,,,75,0
16459,note_on,19,0,4,,,,,,,,3,,,63,0
16459,note_on,19,0,1,,,,,,,,0,,,82,0
16459,note_on,19,0,2,,,,,,,,1,,,79,0
16480,note_on,261,0,11,,,,,,,,7,,,62,48
16480,note_on,261,0,8,,,,,,,,7,,,80,47
16480,note_on,261,0,9,,,,,,,,7,,,71,48
16480,note_on,261,0,10,,,,,,,,7,,,65,48
16499,note_on,19,0,8,,,,,,,,7,,,80,0
16499,note_on,19,0,11,,,,,,,,7,,,62,0
16499,note_on,19,0,10,,,,,,,,7,,,65,0
16499,note_on,19,0,9,,,,,,,,7,,,71,0
16520,note_on,21,0,10,,,,,,,,7,,,67,48
16520,note_on,21,0,11,,,,,,,,7,,,63,48
16520,note_on,21,0,8,,,,,,,,7,,,79,47
16520,note_on,21,0,9,,,,,,,,7,,,70,48
16539,note_on,19,0,11,,,,,,,,7,,,63,0
16539,note_on,19,0,8,,,,,,,,7,,,79,0
16539,note_on,19,0,9,,,,,,,,7,,,70,0
16539,note_on,19,0,10,,,,,,,,7,,,67,0
16560,note_on,21,0,8,,,,,,,,7,,,80,47
16560,note_on,21,0,11,,,,,,,,7,,,62,48
16560,note_on,21,0,9,,,,,,,,7,,,71,48
16560,note_on,21,0,10,,,,,,,,7,,,65,48
16579,note_on,19,0,11,,,,,,,,7,,,62,0
16579,note_on,19,0,10,,,,,,,,7,,,65,0
16579,note_on,19,0,8,,,,,,,,7,,,80,0
16579,note_on,19,0,9,,,,,,,,7,,,71,0
16600,note_on,21,0,10,,,,,,,,7,,,67,48
16600,note_on,21,0,9,,,,,,,,7,,,70,48
16600,note_on,21,0,11,,,,,,,,7,,,63,48
16600,note_on,21,0,8,,,,,,,,7,,,79,47
16619,note_on,19,0,10,,,,,,,,7,,,67,0
16619,note_on,19,0,9,,,,,,,,7,,,70,0
16619,note_on,19,0,8,,,,,,,,7,,,79,0
16619,note_on,19,0,11,,,,,,,,7,,,63,0
16640,note_on,21,0,9,,,,,,,,7,,,71,48
16640,note_on,21,0,8,,,,,,,,7,,,80,47
16640,note_on,21,0,10,,,,,,,,7,,,65,48
16640,note_on,21,0,11,,,,,,,,7,,,62,48
16659,note_on,19,0,9,,,,,,,,7,,,71,0
16659,note_on,19,0,8,,,,,,,,7,,,80,0
16659,note_on,19,0,10,,,,,,,,7,,,65,0
16659,note_on,19,0,11,,,,,,,,7,,,62,0
16680,note_on,21,0,9,,,,,,,,7,,,70,48
16680,note_on,21,0,11,,,,,,,,7,,,63,48
16680,note_on,21,0,8,,,,,,,,7,,,79,47
16680,note_on,21,0,10,,,,,,,,7,,,67,48
16699,note_on,19,0,11,,,,,,,,7,,,63,0
16699,note_on,19,0,9,,,,,,,,7,,,70,0
16699,note_on,19,0,8,,,,,,,,7,,,79,0
16699,note_on,19,0,10,,,,,,,,7,,,67,0
16720,note_on,261,0,4,,,,,,,,3,,,56,48
16720,note_on,261,0,2,,,,,,,,1,,,80,48
16720,note_on,261,0,5,,,,,,,,4,,,63,48
16720,note_on,0,0,3,,,,,,,,2,,,75,48
16720,note_on,261,0,1,,,,,,,,0,,,84,49
16720,note_on,261,0,3,,,,,,,,2,,,68,48
16739,note_on,19,0,1,,,,,,,,0,,,84,0
16739,note_on,19,0,2,,,,,,,,1,,,80,0
16739,note_on,0,0,3,,,,,,,,2,,,68,0
16739,note_on,19,0,4,,,,,,,,3,,,56,0
16739,note_on,19,0,3,,,,,,,,2,,,75,0
16739,note_on,19,0,5,,,,,,,,4,,,63,0
16760,note_on,21,0,5,,,,,,,,4,,,63,48
16760,note_on,21,0,1,,,,,,,,0,,,82,49
16760,note_on,21,0,2,,,,,,,,1,,,79,48
16760,note_on,21,0,4,,,,,,,,3,,,63,48
16760,note_on,21,0,3,,,,,,,,2,,,67,48
16760,note_on,0,0,3,,,,,,,,2,,,75,48
16779,note_on,0,0,3,,,,,,,,2,,,67,0
16779,note_on,19,0,5,,,,,,,,4,,,63,0
16779,note_on,19,0,1,,,,,,,,0,,,82,0
16779,note_on,19,0,3,,,,,,,,2,,,75,0
16779,note_on,19,0,2,,,,,,,,1,,,79,0
16779,note_on,19,0,4,,,,,,,,3,,,63,0
16800,note_on,0,0,3,,,,,,,,2,,,75,48
16800,note_on,21,0,3,,,,,,,,2,,,68,48
16800,note_on,21,0,4,,,,,,,,3,,,56,48
16800,note_on,21,0,1,,,,,,,,0,,,84,49
16800,note_on,21,0,2,,,,,,,,1,,,80,48
16800,note_on,21,0,5,,,,,,,,4,,,63,48
16819,note_on,19,0,5,,,,,,,,4,,,63,0
16819,note_on,0,0,3,,,,,,,,2,,,68,0
16819,note_on,19,0,4,,,,,,,,3,,,56,0
16819,note_on,19,0,3,,,,,,,,2,,,75,0
16819,note_on,19,0,2,,,,,,,,1,,,80,0
16819,note_on,19,0,1,,,,,,,,0,,,84,0
16840,note_on,21,0,2,,,,,,,,1,,,79,48
16840,note_on,21,0,3,,,,,,,,2,,,67,48
16840,note_on,21,0,4,,,,,,,,3,,,63,48
16840,note_on,21,0,1,,,,,,,,0,,,82,49
16840,note_on,21,0,5,,,,,,,,4,,,63,48
16840,note_on,0,0,3,,,,,,,,2,,,75,48
16859,note_on,19,0,3,,,,,,,,2,,,75,0
16859,note_on,19,0,1,,,,,,,,0,,,82,0
16859,note_on,19,0,2,,,,,,,,1,,,79,0
16859,note_on,19,0,5,,,,,,,,4,,,63,0
16859,note_on,19,0,4,,,,,,,,3,,,63,0
16859,note_on,0,0,3,,,,,,,,2,,,67,0
16880,note_on,21,0,5,,,,,,,,4,,,63,48
16880,note_on,21,0,2,,,,,,,,1,,,80,48
16880,note_on,21,0,3,,,,,,,,2,,,68,48
16880,note_on,0,0,3,,,,,,,,2,,,75,48
16880,note_on,21,0,1,,,,,,,,0,,,84,49
16880,note_on,21,0,4,,,,,,,,3,,,56,48
16899,note_on,19,0,2,,,,,,,,1,,,80,0
16899,note_on,19,0,5,,,,,,,,4,,,63,0
16899,note_on,0,0,3,,,,,,,,2,,,68,0
16899,note_on,19,0,3,,,,,,,,2,,,75,0
16899,note_on,19,0,1,,,,,,,,0,,,84,0
16899,note_on,19,0,4,,,,,,,,3,,,56,0
16920,note_on,21,0,3,,,,,,,,2,,,67,48
16920,note_on,21,0,5,,,,,,,,4,,,63,48
16920,note_on,0,0,3,,,,,,,,2,,,75,48
16920,note_on,21,0,1,,,,,,,,0,,,82,49
16920,note_on,21,0,4,,,,,,,,3,,,63,48
16920,note_on,21,0,2,,,,,,,,1,,,79,48
16939,note_on,0,0,3,,,,,,,,2,,,67,0
16939,note_on,19,0,3,,,,,,,,2,,,75,0
16939,note_on,19,0,2,,,,,,,,1,,,79,0
16939,note_on,19,0,4,,,,,,,,3,,,63,0
16939,note_on,19,0,1,,,,,,,,0,,,82,0
16939,note_on,19,0,5,,,,,,,,4,,,63,0
16960,note_on,0,0,5,,,,,,,,4,,,63,48
16960,note_on,21,0,5,,,,,,,,4,,,51,48
16960,note_on,21,0,3,,,,,,,,2,,,72,48
16960,note_on,0,0,3,,,,,,,,2,,,68,48
16960,note_on,0,0,2,,,,,,,,1,,,80,48
16960,note_on,261,0,9,,,,,,,,7,,,60,48
16960,note_on,21,0,2,,,,,,,,1,,,72,48
16960,note_on,0,0,1,,,,,,,,0,,,87,49
16960,note_on,21,0,1,,,,,,,,0,,,84,49
16960,note_on,21,0,4,,,,,,,,3,,,56,48
16960,note_on,261,0,10,,,,,,,,7,,,56,48
16960,note_on,261,0,11,,,,,,,,7,,,56,49
16960,note_on,261,0,8,,,,,,,,7,,,75,47
16960,note_on,1681,0,12,,,,,,,,7,,,44,64
16979,note_on,19,0,12,,,,,,,,7,,,44,0
16979,note_on,19,0,4,,,,,,,,3,,,56,0
16979,note_on,0,0,5,,,,,,,,4,,,51,0
16979,note_on,19,0,3,,,,,,,,2,,,68,0
16979,note_on,19,0,5,,,,,,,,4,,,63,0
16979,note_on,19,0,9,,,,,,,,7,,,60,0
16979,note_on,19,0,10,,,,,,,,7,,,56,0
16979,note_on,19,0,8,,,,,,,,7,,,75,0
16979,note_on,0,0,2,,,,,,,,1,,,72,0
16979,note_on,19,0,2,,,,,,,,1,,,80,0
16979,note_on,0,0,1,,,,,,,,0,,,84,0
16979,note_on,0,0,3,,,,,,,,2,,,72,0
16979,note_on,19,0,11,,,,,,,,7,,,56,0
16979,note_on,19,0,1,,,,,,,,0,,,87,0
17000,note_on,21,0,12,,,,,,,,7,,,39,64
17000,note_on,21,0,2,,,,,,,,1,,,70,48
17000,note_on,0,0,2,,,,,,,,1,,,79,48
17000,note_on,21,0,11,,,,,,,,7,,,51,49
17000,note_on,21,0,5,,,,,,,,4,,,51,48
17000,note_on,21,0,3,,,,,,,,2,,,70,48
17000,note_on,21,0,9,,,,,,,,7,,,58,48
17000,note_on,0,0,5,,,,,,,,4,,,63,48
17000,note_on,0,0,3,,,,,,,,2,,,67,48
17000,note_on,21,0,10,,,,,,,,7,,,55,48
17000,note_on,21,0,4,,,,,,,,3,,,51,48
17000,note_on,21,0,8,,,,,,,,7,,,75,47
17000,note_on,0,0,1,,,,,,,,0,,,82,49
17000,note_on,21,0,1,,,,,,,,0,,,87,49
17019,note_on,19,0,9,,,,,,,,7,,,58,0
17019,note_on,0,0,3,,,,,,,,2,,,70,0
17019,note_on,19,0,11,,,,,,,,7,,,51,0
17019,note_on,19,0,12,,,,,,,,7,,,39,0
17019,note_on,19,0,2,,,,,,,,1,,,79,0
17019,note_on,0,0,2,,,,,,,,1,,,70,0
17019,note_on,0,0,1,,,,,,,,0,,,87,0
17019,note_on,19,0,1,,,,,,,,0,,,82,0
17019,note_on,19,0,4,,,,,,,,3,,,51,0
17019,note_on,19,0,8,,,,,,,,7,,,75,0
17019,note_on,19,0,10,,,,,,,,7,,,55,0
17019,note_on,19,0,3,,,,,,,,2,,,67,0
17019,note_on,19,0,5,,,,,,,,4,,,63,0
17019,note_on,0,0,5,,,,,,,,4,,,51,0
17040,note_on,0,0,1,,,,,,,,0,,,87,49
17040,note_on,21,0,1,,,,,,,,0,,,84,49
17040,note_on,21,0,8,,,,,,,,7,,,75,47
17040,note_on,21,0,4,,,,,,,,3,,,56,48
17040,note_on,0,0,5,,,,,,,,4,,,63,48
17040,note_on,21,0,3,,,,,,,,2,,,72,48
17040,note_on,21,0,2,,,,,,,,1,,,72,48
17040,note_on,0,0,3,,,,,,,,2,,,68,48
17040,note_on,21,0,9,,,,,,,,7,,,60,48
17040,note_on,21,0,10,,,,,,,,7,,,56,48
17040,note_on,21,0,11,,,,,,,,7,,,56,49
17040,note_on,21,0,12,,,,,,,,7,,,44,64
17040,note_on,0,0,2,,,,,,,,1,,,80,48
17040,note_on,21,0,5,,,,,,,,4,,,51,48
17059,note_on,19,0,3,,,,,,,,2,,,68,0
17059,note_on,0,0,3,,,,,,,,2,,,72,0
17059,note_on,19,0,12,,,,,,,,7,,,44,0
17059,note_on,19,0,4,,,,,,,,3,,,56,0
17059,note_on,0,0,2,,,,,,,,1,,,72,0
17059,note_on,19,0,2,,,,,,,,1,,,80,0
17059,note_on,19,0,10,,,,,,,,7,,,56,0
17059,note_on,0,0,1,,,,,,,,0,,,84,0
17059,note_on,19,0,11,,,,,,,,7,,,56,0
17059,note_on,19,0,8,,,,,,,,7,,,75,0
17059,note_on,0,0,5,,,,,,,,4,,,51,0
17059,note_on,19,0,5,,,,,,,,4,,,63,0
17059,note_on,19,0,1,,,,,,,,0,,,87,0
17059,note_on,19,0,9,,,,,,,,7,,,60,0
17080,note_on,21,0,8,,,,,,,,7,,,75,47
17080,note_on,21,0,1,,,,,,,,0,,,82,49
17080,note_on,21,0,12,,,,,,,,7,,,39,64
17080,note_on,0,0,1,,,,,,,,0,,,87,49
17080,note_on,21,0,10,,,,,,,,7,,,55,48
17080,note_on,0,0,5,,,,,,,,4,,,63,48
17080,note_on,0,0,4,,,,,,,,3,,,55,48
17080,note_on,21,0,3,,,,,,,,2,,,70,48
17080,note_on,0,0,2,,,,,,,,1,,,79,48
17080,note_on,21,0,2,,,,,,,,1,,,70,48
17080,note_on,21,0,9,,,,,,,,7,,,58,48
17080,note_on,21,0,5,,,,,,,,4,,,51,48
17080,note_on,21,0,4,,,,,,,,3,,,58,48
17080,note_on,21,0,11,,,,,,,,7,,,51,49
17080,note_on,0,0,3,,,,,,,,2,,,67,48
17099,note_on,0,0,3,,,,,,,,2,,,70,0
17099,note_on,19,0,11,,,,,,,,7,,,51,0
17099,note_on,19,0,1,,,,,,,,0,,,87,0
17099,note_on,0,0,1,,,,,,,,0,,,82,0
17099,note_on,0,0,5,,,,,,,,4,,,51,0
17099,note_on,0,0,2,,,,,,,,1,,,70,0
17099,note_on,19,0,10,,,,,,,,7,,,55,0
17099,note_on,19,0,8,,,,,,,,7,,,75,0
17099,note_on,19,0,4,,,,,,,,3,,,55,0
17099,note_on,19,0,9,,,,,,,,7,,,58,0
17099,note_on,19,0,5,,,,,,,,4,,,63,0
17099,note_on,0,0,4,,,,,,,,3,,,58,0
17099,note_on,19,0,3,,,,,,,,2,,,67,0
17099,note_on,19,0,12,,,,,,,,7,,,39,0
17099,note_on,19,0,2,,,,,,,,1,,,79,0
17120,note_on,21,0,12,,,,,,,,7,,,44,64
17120,note_on,0,0,5,,,,,,,,4,,,63,48
17120,note_on,21,0,9,,,,,,,,7,,,60,48
17120,note_on,21,0,5,,,,,,,,4,,,51,48
17120,note_on,21,0,4,,,,,,,,3,,,56,48
17120,note_on,21,0,10,,,,,,,,7,,,56,48
17120,note_on,0,0,4,,,,,,,,3,,,60,48
17120,note_on,21,0,1,,,,,,,,0,,,84,49
17120,note_on,21,0,11,,,,,,,,7,,,56,49
17120,note_on,21,0,2,,,,,,,,1,,,72,48
17120,note_on,0,0,2,,,,,,,,1,,,80,48
17120,note_on,21,0,8,,,,,,,,7,,,75,47
17120,note_on,0,0,3,,,,,,,,2,,,68,48
17120,note_on,21,0,3,,,,,,,,2,,,72,48
17120,note_on,0,0,1,,,,,,,,0,,,87,49
17139,note_on,19,0,4,,,,,,,,3,,,60,0
17139,note_on,0,0,4,,,,,,,,3,,,56,0
17139,note_on,19,0,11,,,,,,,,7,,,56,0
17139,note_on,19,0,2,,,,,,,,1,,,80,0
17139,note_on,19,0,8,,,,,,,,7,,,75,0
17139,note_on,19,0,10,,,,,,,,7,,,56,0
17139,note_on,19,0,1,,,,,,,,0,,,87,0
17139,note_on,0,0,1,,,,,,,,0,,,84,0
17139,note_on,19,0,3,,,,,,,,2,,,68,0
17139,note_on,19,0,5,,,,,,,,4,,,63,0
17139,note_on,0,0,3,,,,,,,,2,,,72,0
17139,note_on,19,0,12,,,,,,,,7,,,44,0
17139,note_on,19,0,9,,,,,,,,7,,,60,0
17139,note_on,0,0,2,,,,,,,,1,,,72,0
17139,note_on,0,0,5,,,,,,,,4,,,51,0
17160,note_on,0,0,1,,,,,,,,0,,,87,49
17160,note_on,21,0,9,,,,,,,,7,,,58,48
17160,note_on,21,0,4,,,,,,,,3,,,58,48
17160,note_on,0,0,4,,,,,,,,3,,,55,48
17160,note_on,21,0,11,,,,,,,,7,,,51,49
17160,note_on,0,0,2,,,,,,,,1,,,79,48
17160,note_on,21,0,2,,,,,,,,1,,,70,48
17160,note_on,21,0,5,,,,,,,,4,,,51,48
17160,note_on,21,0,8,,,,,,,,7,,,75,47
17160,note_on,0,0,3,,,,,,,,2,,,67,48
17160,note_on,21,0,3,,,,,,,,2,,,70,48
17160,note_on,0,0,5,,,,,,,,4,,,63,48
17160,note_on,21,0,12,,,,,,,,7,,,39,64
17160,note_on,21,0,10,,,,,,,,7,,,51,48
17160,note_on,21,0,1,,,,,,,,0,,,82,49
17179,note_on,0,0,3,,,,,,,,2,,,70,0
17179,note_on,19,0,3,,,,,,,,2,,,67,0
17179,note_on,19,0,2,,,,,,,,1,,,79,0
17179,note_on,0,0,2,,,,,,,,1,,,70,0
17179,note_on,19,0,11,,,,,,,,7,,,51,0
17179,note_on,0,0,4,,,,,,,,3,,,58,0
17179,note_on,19,0,4,,,,,,,,3,,,55,0
17179,note_on,19,0,5,,,,,,,,4,,,63,0
17179,note_on,0,0,5,,,,,,,,4,,,51,0
17179,note_on,19,0,9,,,,,,,,7,,,58,0
17179,note_on,19,0,12,,,,,,,,7,,,39,0
17179,note_on,0,0,1,,,,,,,,0,,,82,0
17179,note_on,19,0,1,,,,,,,,0,,,87,0
17179,note_on,19,0,10,,,,,,,,7,,,51,0
17179,note_on,19,0,8,,,,,,,,7,,,75,0
17180,note_on,1,0,9,,,,,,,,7,,,58,48
17199,note_on,19,0,9,,,,,,,,7,,,58,0
17200,note_on,21,0,8,,,,,,,,7,,,79,47
17200,note_on,1,0,9,,,,,,,,7,,,58,48
17219,note_on,19,0,9,,,,,,,,7,,,58,0
17219,note_on,19,0,8,,,,,,,,7,,,79,0
17220,note_on,1,0,9,,,,,,,,7,,,58,48
17239,note_on,19,0,9,,,,,,,,7,,,58,0
17240,note_on,21,0,8,,,,,,,,7,,,74,47
17240,note_on,1,0,9,,,,,,,,7,,,59,48
17259,note_on,19,0,8,,,,,,,,7,,,74,0
17259,note_on,19,0,9,,,,,,,,7,,,59,0
17260,note_on,1,0,9,,,,,,,,7,,,59,48
17279,note_on,19,0,9,,,,,,,,7,,,59,0
17280,note_on,101,0,4,,,,,,,,3,,,56,48
17280,note_on,101,0,10,,,,,,,,7,,,56,48
17280,note_on,1,0,9,,,,,,,,7,,,60,48
17280,note_on,21,0,8,,,,,,,,7,,,75,47
17299,note_on,19,0,8,,,,,,,,7,,,75,0
17299,note_on,19,0,9,,,,,,,,7,,,60,0
17300,note_on,1,0,9,,,,,,,,7,,,60,48
17319,note_on,19,0,9,,,,,,,,7,,,60,0
17319,note_on,39,0,10,,,,,,,,7,,,56,0
17319,note_on,39,0,4,,,,,,,,3,,,56,0
17320,note_on,21,0,8,,,,,,,,7,,,71,47
17320,note_on,1,0,9,,,,,,,,7,,,62,48
17339,note_on,19,0,9,,,,,,,,7,,,62,0
17339,note_on,19,0,8,,,,,,,,7,,,71,0
17340,note_on,1,0,9,,,,,,,,7,,,62,48
17359,note_on,19,0,9,,,,,,,,7,,,62,0
17360,note_on,21,0,8,,,,,,,,7,,,72,47
17360,note_on,1,0,9,,,,,,,,7,,,63,48
17379,note_on,19,0,9,,,,,,,,7,,,63,0
17379,note_on,19,0,8,,,,,,,,7,,,72,0
17380,note_on,1,0,9,,,,,,,,7,,,63,48
17399,note_on,19,0,9,,,,,,,,7,,,63,0
17400,note_on,1,0,9,,,,,,,,7,,,65,48
17400,note_on,81,0,4,,,,,,,,3,,,53,48
17400,note_on,21,0,8,,,,,,,,7,,,68,47
17400,note_on,81,0,10,,,,,,,,7,,,51,48
17419,note_on,19,0,9,,,,,,,,7,,,65,0
17419,note_on,19,0,8,,,,,,,,7,,,68,0
17420,note_on,1,0,9,,,,,,,,7,,,65,48
17439,note_on,19,0,9,,,,,,,,7,,,65,0
17439,note_on,39,0,4,,,,,,,,3,,,53,0
17439,note_on,39,0,10,,,,,,,,7,,,51,0
17440,note_on,1,0,9,,,,,,,,7,,,60,48
17440,note_on,21,0,8,,,,,,,,7,,,80,47
17459,note_on,19,0,9,,,,,,,,7,,,60,0
17459,note_on,19,0,8,,,,,,,,7,,,80,0
17460,note_on,1,0,9,,,,,,,,7,,,60,48
17479,note_on,19,0,9,,,,,,,,7,,,60,0
17480,note_on,21,0,8,,,,,,,,7,,,76,47
17480,note_on,1,0,9,,,,,,,,7,,,61,48
17499,note_on,19,0,8,,,,,,,,7,,,76,0
17499,note_on,19,0,9,,,,,,,,7,,,61,0
17500,note_on,1,0,9,,,,,,,,7,,,61,48
17519,note_on,19,0,9,,,,,,,,7,,,61,0
17520,note_on,81,0,10,,,,,,,,7,,,58,48
17520,note_on,21,0,8,,,,,,,,7,,,77,47
17520,note_on,81,0,4,,,,,,,,3,,,58,48
17520,note_on,1,0,9,,,,,,,,7,,,62,48
17539,note_on,19,0,9,,,,,,,,7,,,62,0
17539,note_on,19,0,8,,,,,,,,7,,,77,0
17540,note_on,1,0,9,,,,,,,,7,,,62,48
17559,note_on,19,0,9,,,,,,,,7,,,62,0
17559,note_on,39,0,4,,,,,,,,3,,,58,0
17559,note_on,39,0,10,,,,,,,,7,,,58,0
17560,note_on,1,0,9,,,,,,,,7,,,63,48
17560,note_on,21,0,8,,,,,,,,7,,,73,47
17579,note_on,19,0,9,,,,,,,,7,,,63,0
17579,note_on,19,0,8,,,,,,,,7,,,73,0
17580,note_on,1,0,9,,,,,,,,7,,,63,48
17599,note_on,19,0,9,,,,,,,,7,,,63,0
17600,note_on,1,0,9,,,,,,,,7,,,65,48
17600,note_on,21,0,8,,,,,,,,7,,,74,47
17619,note_on,19,0,9,,,,,,,,7,,,65,0
17619,note_on,19,0,8,,,,,,,,7,,,74,0
17620,note_on,1,0,9,,,,,,,,7,,,65,48
17639,note_on,19,0,9,,,,,,,,7,,,65,0
17640,note_on,1,0,9,,,,,,,,7,,,67,48
17640,note_on,21,0,8,,,,,,,,7,,,70,47
17640,note_on,81,0,10,,,,,,,,7,,,51,48
17640,note_on,81,0,4,,,,,,,,3,,,55,48
17659,note_on,19,0,9,,,,,,,,7,,,67,0
17659,note_on,19,0,8,,,,,,,,7,,,70,0
17660,note_on,1,0,9,,,,,,,,7,,,67,48
17679,note_on,39,0,4,,,,,,,,3,,,55,0
17679,note_on,19,0,9,,,,,,,,7,,,67,0
17679,note_on,39,0,10,,,,,,,,7,,,51,0
17680,note_on,1,0,9,,,,,,,,7,,,61,48
17680,note_on,21,0,8,,,,,,,,7,,,82,47
17699,note_on,19,0,9,,,,,,,,7,,,61,0
17699,note_on,19,0,8,,,,,,,,7,,,82,0
17700,note_on,1,0,9,,,,,,,,7,,,61,48
17719,note_on,19,0,9,,,,,,,,7,,,61,0
17720,note_on,1,0,9,,,,,,,,7,,,62,48
17720,note_on,21,0,8,,,,,,,,7,,,78,47
17739,note_on,19,0,8,,,,,,,,7,,,78,0
17739,note_on,19,0,9,,,,,,,,7,,,62,0
17740,note_on,1,0,9,,,,,,,,7,,,62,48
17759,note_on,19,0,9,,,,,,,,7,,,62,0
17760,note_on,81,0,10,,,,,,,,7,,,60,48
17760,note_on,1,0,9,,,,,,,,7,,,63,48
17760,note_on,21,0,8,,,,,,,,7,,,79,47
17760,note_on,81,0,4,,,,,,,,3,,,60,48
17779,note_on,19,0,9,,,,,,,,7,,,63,0
17779,note_on,19,0,8,,,,,,,,7,,,79,0
17780,note_on,1,0,9,,,,,,,,7,,,63,48
17799,note_on,19,0,9,,,,,,,,7,,,63,0
17799,note_on,39,0,10,,,,,,,,7,,,60,0
17799,note_on,39,0,4,,,,,,,,3,,,60,0
17800,note_on,1,0,9,,,,,,,,7,,,65,48
17800,note_on,21,0,8,,,,,,,,7,,,74,47
17819,note_on,19,0,9,,,,,,,,7,,,65,0
17819,note_on,19,0,8,,,,,,,,7,,,74,0
17820,note_on,1,0,9,,,,,,,,7,,,65,48
17839,note_on,19,0,9,,,,,,,,7,,,65,0
17840,note_on,21,0,8,,,,,,,,7,,,75,47
17840,note_on,1,0,9,,,,,,,,7,,,67,48
17859,note_on,19,0,9,,,,,,,,7,,,67,0
17859,note_on,19,0,8,,,,,,,,7,,,75,0
17860,note_on,1,0,9,,,,,,,,7,,,67,48
17879,note_on,19,0,9,,,,,,,,7,,,67,0
17880,note_on,21,0,8,,,,,,,,7,,,72,47
17880,note_on,81,0,10,,,,,,,,7,,,56,48
17880,note_on,1,0,9,,,,,,,,7,,,68,48
17880,note_on,81,0,4,,,,,,,,3,,,56,48
17899,note_on,19,0,8,,,,,,,,7,,,72,0
17899,note_on,19,0,9,,,,,,,,7,,,68,0
17900,note_on,1,0,9,,,,,,,,7,,,68,48
17919,note_on,39,0,4,,,,,,,,3,,,56,0
17919,note_on,19,0,9,,,,,,,,7,,,68,0
17919,note_on,39,0,10,,,,,,,,7,,,56,0
17920,note_on,1,0,9,,,,,,,,7,,,64,48
17920,note_on,21,0,8,,,,,,,,7,,,67,47
17939,note_on,19,0,9,,,,,,,,7,,,64,0
17939,note_on,19,0,8,,,,,,,,7,,,67,0
17940,note_on,1,0,9,,,,,,,,7,,,64,48
17959,note_on,19,0,9,,,,,,,,7,,,64,0
17960,note_on,1,0,9,,,,,,,,7,,,65,48
17960,note_on,21,0,8,,,,,,,,7,,,68,47
17979,note_on,19,0,9,,,,,,,,7,,,65,0
17979,note_on,19,0,8,,,,,,,,7,,,68,0
17980,note_on,1,0,9,,,,,,,,7,,,65,48
17999,note_on,19,0,9,,,,,,,,7,,,65,0
18000,note_on,1,0,9,,,,,,,,7,,,62,48
18000,note_on,21,0,8,,,,,,,,7,,,65,47
18000,note_on,81,0,10,,,,,,,,7,,,58,48
18000,note_on,81,0,4,,,,,,,,3,,,58,48
18019,note_on,19,0,9,,,,,,,,7,,,62,0
18019,note_on,19,0,8,,,,,,,,7,,,65,0
18020,note_on,1,0,9,,,,,,,,7,,,62,48
18039,note_on,39,0,4,,,,,,,,3,,,58,0
18039,note_on,19,0,9,,,,,,,,7,,,62,0
18039,note_on,39,0,10,,,,,,,,7,,,58,0
18040,note_on,21,0,8,,,,,,,,7,,,62,47
18040,note_on,1,0,9,,,,,,,,7,,,80,48
18059,note_on,19,0,8,,,,,,,,7,,,62,0
18059,note_on,19,0,9,,,,,,,,7,,,80,0
18060,note_on,1,0,9,,,,,,,,7,,,80,48
18079,note_on,19,0,9,,,,,,,,7,,,80,0
18080,note_on,21,0,8,,,,,,,,7,,,70,47
18080,note_on,1,0,9,,,,,,,,7,,,74,48
18099,note_on,19,0,8,,,,,,,,7,,,70,0
18099,note_on,19,0,9,,,,,,,,7,,,74,0
18100,note_on,1,0,9,,,,,,,,7,,,74,48
18119,note_on,19,0,9,,,,,,,,7,,,74,0
18120,note_on,0,0,5,,,,,,,,4,,,51,48
18120,note_on,81,0,10,,,,,,,,7,,,63,48
18120,note_on,941,0,11,,,,,,,,7,,,51,49
18120,note_on,0,0,1,,,,,,,,0,,,87,49
18120,note_on,941,0,1,,,,,,,,0,,,82,49
18120,note_on,2881,0,7,,,,,,,,6,,,51,48
18120,note_on,1,0,9,,,,,,,,7,,,75,48
18120,note_on,21,0,8,,,,,,,,7,,,67,47
18120,note_on,0,0,2,,,,,,,,1,,,75,48
18120,note_on,941,0,2,,,,,,,,1,,,79,48
18120,note_on,81,0,4,,,,,,,,3,,,51,48
18120,note_on,0,0,3,,,,,,,,2,,,67,48
18120,note_on,941,0,3,,,,,,,,2,,,75,48
18120,note_on,2841,0,6,,,,,,,,5,,,75,50
18120,note_on,0,0,6,,,,,,,,5,,,63,50
18120,note_on,941,0,5,,,,,,,,4,,,63,48
18120,note_on,941,0,12,,,,,,,,7,,,39,64
18139,note_on,19,0,12,,,,,,,,7,,,39,0
18139,note_on,19,0,8,,,,,,,,7,,,67,0
18139,note_on,19,0,9,,,,,,,,7,,,75,0
18139,note_on,19,0,11,,,,,,,,7,,,51,0
18139,note_on,19,0,10,,,,,,,,7,,,63,0
18140,note_on,1,0,8,,,,,,,,7,,,67,47
18159,note_on,0,0,1,,,,,,,,0,,,82,0
18159,note_on,0,0,5,,,,,,,,4,,,63,0
18159,note_on,39,0,1,,,,,,,,0,,,87,0
18159,note_on,39,0,2,,,,,,,,1,,,75,0
18159,note_on,0,0,2,,,,,,,,1,,,79,0
18159,note_on,0,0,3,,,,,,,,2,,,75,0
18159,note_on,39,0,3,,,,,,,,2,,,67,0
18159,note_on,39,0,6,,,,,,,,5,,,63,0
18159,note_on,0,0,6,,,,,,,,5,,,75,0
18159,note_on,39,0,7,,,,,,,,6,,,51,0
18159,note_on,19,0,8,,,,,,,,7,,,67,0
18159,note_on,39,0,4,,,,,,,,3,,,51,0
18159,note_on,39,0,5,,,,,,,,4,,,51,0
18160,note_on,21,0,10,,,,,,,,7,,,67,48
18160,note_on,21,0,9,,,,,,,,7,,,70,48
18160,note_on,1,0,4,,,,,,,,3,,,58,48
18160,note_on,21,0,11,,,,,,,,7,,,55,49
18160,note_on,1,0,8,,,,,,,,7,,,70,47
18160,note_on,21,0,12,,,,,,,,7,,,43,64
18179,note_on,19,0,4,,,,,,,,3,,,58,0
18179,note_on,19,0,8,,,,,,,,7,,,70,0
18179,note_on,19,0,9,,,,,,,,7,,,70,0
18179,note_on,19,0,10,,,,,,,,7,,,67,0
18179,note_on,19,0,12,,,,,,,,7,,,43,0
18179,note_on,19,0,11,,,,,,,,7,,,55,0
18180,note_on,1,0,8,,,,,,,,7,,,70,47
18199,note_on,19,0,8,,,,,,,,7,,,70,0
18200,note_on,21,0,9,,,,,,,,7,,,65,48
18200,note_on,1,0,8,,,,,,,,7,,,71,47
18200,note_on,21,0,12,,,,,,,,7,,,38,64
18200,note_on,21,0,11,,,,,,,,7,,,50,49
18200,note_on,21,0,4,,,,,,,,3,,,59,48
18200,note_on,21,0,10,,,,,,,,7,,,62,48
18219,note_on,19,0,11,,,,,,,,7,,,50,0
18219,note_on,19,0,4,,,,,,,,3,,,59,0
18219,note_on,19,0,9,,,,,,,,7,,,65,0
18219,note_on,19,0,8,,,,,,,,7,,,71,0
18219,note_on,19,0,10,,,,,,,,7,,,62,0
18219,note_on,19,0,12,,,,,,,,7,,,38,0
18220,note_on,1,0,8,,,,,,,,7,,,71,47
18239,note_on,19,0,8,,,,,,,,7,,,71,0
18240,note_on,0,0,1,,,,,,,,0,,,84,49
18240,note_on,0,0,5,,,,,,,,4,,,63,48
18240,note_on,81,0,5,,,,,,,,4,,,51,48
18240,note_on,0,0,2,,,,,,,,1,,,79,48
18240,note_on,81,0,2,,,,,,,,1,,,75,48
18240,note_on,0,0,6,,,,,,,,5,,,75,50
18240,note_on,81,0,6,,,,,,,,5,,,63,50
18240,note_on,81,0,3,,,,,,,,2,,,72,48
18240,note_on,0,0,3,,,,,,,,2,,,67,48
18240,note_on,21,0,4,,,,,,,,3,,,51,48
18240,note_on,0,0,4,,,,,,,,3,,,60,48
18240,note_on,21,0,9,,,,,,,,7,,,67,48
18240,note_on,81,0,7,,,,,,,,6,,,51,48
18240,note_on,21,0,11,,,,,,,,7,,,51,49
18240,note_on,21,0,10,,,,,,,,7,,,63,48
18240,note_on,1,0,8,,,,,,,,7,,,72,47
18240,note_on,81,0,1,,,,,,,,0,,,87,49
18240,note_on,21,0,12,,,,,,,,7,,,39,64
18259,note_on,19,0,9,,,,,,,,7,,,67,0
18259,note_on,19,0,4,,,,,,,,3,,,60,0
18259,note_on,19,0,12,,,,,,,,7,,,39,0
18259,note_on,19,0,10,,,,,,,,7,,,63,0
18259,note_on,19,0,8,,,,,,,,7,,,72,0
18259,note_on,19,0,11,,,,,,,,7,,,51,0
18260,note_on,1,0,8,,,,,,,,7,,,72,47
18279,note_on,20,0,4,,,,,,,,3,,,51,0
18279,note_on,39,0,7,,,,,,,,6,,,51,0
18279,note_on,39,0,5,,,,,,,,4,,,63,0
18279,note_on,0,0,2,,,,,,,,1,,,75,0
18279,note_on,39,0,2,,,,,,,,1,,,79,0
18279,note_on,0,0,3,,,,,,,,2,,,72,0
18279,note_on,0,0,5,,,,,,,,4,,,51,0
18279,note_on,0,0,6,,,,,,,,5,,,63,0
18279,note_on,39,0,6,,,,,,,,5,,,75,0
18279,note_on,39,0,3,,,,,,,,2,,,67,0
18279,note_on,0,0,1,,,,,,,,0,,,87,0
18279,note_on,39,0,1,,,,,,,,0,,,84,0
18279,note_on,19,0,8,,,,,,,,7,,,72,0
18280,note_on,21,0,11,,,,,,,,7,,,47,49
18280,note_on,21,0,10,,,,,,,,7,,,59,48
18280,note_on,1,0,8,,,,,,,,7,,,74,47
18280,note_on,21,0,12,,,,,,,,7,,,35,64
18280,note_on,21,0,9,,,,,,,,7,,,67,48
18280,note_on,1,0,4,,,,,,,,3,,,62,48
18299,note_on,19,0,12,,,,,,,,7,,,35,0
18299,note_on,19,0,9,,,,,,,,7,,,67,0
18299,note_on,19,0,4,,,,,,,,3,,,62,0
18299,note_on,19,0,10,,,,,,,,7,,,59,0
18299,note_on,19,0,11,,,,,,,,7,,,47,0
18299,note_on,19,0,8,,,,,,,,7,,,74,0
18300,note_on,1,0,8,,,,,,,,7,,,74,47
18319,note_on,19,0,8,,,,,,,,7,,,74,0
18320,note_on,1,0,8,,,,,,,,7,,,75,47
18320,note_on,21,0,4,,,,,,,,3,,,63,48
18320,note_on,21,0,10,,,,,,,,7,,,60,48
18320,note_on,21,0,9,,,,,,,,7,,,67,48
18320,note_on,21,0,12,,,,,,,,7,,,36,64
18320,note_on,21,0,11,,,,,,,,7,,,48,49
18339,note_on,19,0,11,,,,,,,,7,,,48,0
18339,note_on,19,0,12,,,,,,,,7,,,36,0
18339,note_on,19,0,4,,,,,,,,3,,,63,0
18339,note_on,19,0,9,,,,,,,,7,,,67,0
18339,note_on,19,0,8,,,,,,,,7,,,75,0
18339,note_on,19,0,10,,,,,,,,7,,,60,0
18340,note_on,1,0,8,,,,,,,,7,,,75,47
18359,note_on,19,0,8,,,,,,,,7,,,75,0
18360,note_on,0,0,1,,,,,,,,0,,,84,49
18360,note_on,81,0,3,,,,,,,,2,,,56,48
18360,note_on,81,0,5,,,,,,,,4,,,65,48
18360,note_on,21,0,9,,,,,,,,7,,,60,48
18360,note_on,21,0,12,,,,,,,,7,,,32,64
18360,note_on,0,0,2,,,,,,,,1,,,77,48
18360,note_on,81,0,2,,,,,,,,1,,,72,48
18360,note_on,81,0,1,,,,,,,,0,,,89,49
18360,note_on,0,0,4,,,,,,,,3,,,65,48
18360,note_on,21,0,4,,,,,,,,3,,,44,48
18360,note_on,1,0,8,,,,,,,,7,,,77,47
18360,note_on,0,0,3,,,,,,,,2,,,72,48
18360,note_on,21,0,10,,,,,,,,7,,,56,48
18360,note_on,21,0,11,,,,,,,,7,,,44,49
18379,note_on,19,0,4,,,,,,,,3,,,65,0
18379,note_on,19,0,11,,,,,,,,7,,,44,0
18379,note_on,19,0,9,,,,,,,,7,,,60,0
18379,note_on,19,0,2,,,,,,,,1,,,77,0
18379,note_on,19,0,10,,,,,,,,7,,,56,0
18379,note_on,19,0,8,,,,,,,,7,,,77,0
18379,note_on,19,0,12,,,,,,,,7,,,32,0
18380,note_on,1,0,8,,,,,,,,7,,,77,47
18399,note_on,19,0,8,,,,,,,,7,,,77,0
18399,note_on,39,0,5,,,,,,,,4,,,65,0
18399,note_on,39,0,1,,,,,,,,0,,,84,0
18399,note_on,0,0,1,,,,,,,,0,,,89,0
18399,note_on,20,0,2,,,,,,,,1,,,72,0
18399,note_on,39,0,3,,,,,,,,2,,,72,0
18399,note_on,0,0,3,,,,,,,,2,,,56,0
18399,note_on,20,0,4,,,,,,,,3,,,44,0
18400,note_on,21,0,12,,,,,,,,7,,,44,64
18400,note_on,21,0,9,,,,,,,,7,,,72,48
18400,note_on,1,0,4,,,,,,,,3,,,60,48
18400,note_on,1,0,8,,,,,,,,7,,,72,47
18400,note_on,1,0,2,,,,,,,,1,,,72,48
18400,note_on,21,0,10,,,,,,,,7,,,68,48
18400,note_on,21,0,11,,,,,,,,7,,,56,49
18419,note_on,19,0,12,,,,,,,,7,,,44,0
18419,note_on,19,0,2,,,,,,,,1,,,72,0
18419,note_on,19,0,9,,,,,,,,7,,,72,0
18419,note_on,19,0,11,,,,,,,,7,,,56,0
18419,note_on,19,0,8,,,,,,,,7,,,72,0
18419,note_on,19,0,4,,,,,,,,3,,,60,0
18419,note_on,19,0,10,,,,,,,,7,,,68,0
18420,note_on,1,0,8,,,,,,,,7,,,72,47
18439,note_on,19,0,8,,,,,,,,7,,,72,0
18440,note_on,21,0,2,,,,,,,,1,,,73,48
18440,note_on,21,0,4,,,,,,,,3,,,61,48
18440,note_on,21,0,9,,,,,,,,7,,,67,48
18440,note_on,21,0,12,,,,,,,,7,,,40,64
18440,note_on,21,0,10,,,,,,,,7,,,64,48
18440,note_on,21,0,11,,,,,,,,7,,,52,49
18440,note_on,1,0,8,,,,,,,,7,,,73,47
18459,note_on,19,0,8,,,,,,,,7,,,73,0
18459,note_on,19,0,9,,,,,,,,7,,,67,0
18459,note_on,19,0,12,,,,,,,,7,,,40,0
18459,note_on,19,0,10,,,,,,,,7,,,64,0
18459,note_on,19,0,2,,,,,,,,1,,,73,0
18459,note_on,19,0,11,,,,,,,,7,,,52,0
18459,note_on,19,0,4,,,,,,,,3,,,61,0
18460,note_on,1,0,8,,,,,,,,7,,,73,47
18479,note_on,19,0,8,,,,,,,,7,,,73,0
18480,note_on,21,0,2,,,,,,,,1,,,68,48
18480,note_on,0,0,2,,,,,,,,1,,,74,48
18480,note_on,81,0,3,,,,,,,,2,,,74,48
18480,note_on,21,0,10,,,,,,,,7,,,65,48
18480,note_on,0,0,3,,,,,,,,2,,,65,48
18480,note_on,81,0,5,,,,,,,,4,,,65,48
18480,note_on,0,0,4,,,,,,,,3,,,62,48
18480,note_on,1,0,8,,,,,,,,7,,,74,47
18480,note_on,21,0,11,,,,,,,,7,,,53,49
18480,note_on,81,0,1,,,,,,,,0,,,80,49
18480,note_on,21,0,4,,,,,,,,3,,,53,48
18480,note_on,0,0,1,,,,,,,,0,,,86,49
18480,note_on,21,0,12,,,,,,,,7,,,41,64
18480,note_on,21,0,9,,,,,,,,7,,,68,48
18499,note_on,19,0,11,,,,,,,,7,,,53,0
18499,note_on,19,0,10,,,,,,,,7,,,65,0
18499,note_on,19,0,8,,,,,,,,7,,,74,0
18499,note_on,19,0,4,,,,,,,,3,,,62,0
18499,note_on,19,0,9,,,,,,,,7,,,68,0
18499,note_on,19,0,2,,,,,,,,1,,,74,0
18499,note_on,19,0,12,,,,,,,,7,,,41,0
18500,note_on,1,0,8,,,,,,,,7,,,74,47
18519,note_on,19,0,8,,,,,,,,7,,,74,0
18519,note_on,39,0,3,,,,,,,,2,,,65,0
18519,note_on,0,0,3,,,,,,,,2,,,74,0
18519,note_on,0,0,1,,,,,,,,0,,,80,0
18519,note_on,39,0,1,,,,,,,,0,,,86,0
18519,note_on,20,0,2,,,,,,,,1,,,68,0
18519,note_on,39,0,5,,,,,,,,4,,,65,0
18519,note_on,20,0,4,,,,,,,,3,,,53,0
18520,note_on,1,0,2,,,,,,,,1,,,76,48
18520,note_on,21,0,12,,,,,,,,7,,,37,64
18520,note_on,21,0,9,,,,,,,,7,,,56,48
18520,note_on,21,0,10,,,,,,,,7,,,61,48
18520,note_on,1,0,4,,,,,,,,3,,,64,48
18520,note_on,21,0,11,,,,,,,,7,,,49,49
18520,note_on,1,0,8,,,,,,,,7,,,76,47
18539,note_on,19,0,11,,,,,,,,7,,,49,0
18539,note_on,19,0,2,,,,,,,,1,,,76,0
18539,note_on,19,0,8,,,,,,,,7,,,76,0
18539,note_on,19,0,4,,,,,,,,3,,,64,0
18539,note_on,19,0,10,,,,,,,,7,,,61,0
18539,note_on,19,0,12,,,,,,,,7,,,37,0
18539,note_on,19,0,9,,,,,,,,7,,,56,0
18540,note_on,1,0,8,,,,,,,,7,,,76,47
18559,note_on,19,0,8,,,,,,,,7,,,76,0
18560,note_on,1,0,8,,,,,,,,7,,,77,47
18560,note_on,21,0,9,,,,,,,,7,,,68,48
18560,note_on,21,0,4,,,,,,,,3,,,65,48
18560,note_on,21,0,10,,,,,,,,7,,,62,48
18560,note_on,21,0,2,,,,,,,,1,,,77,48
18560,note_on,21,0,11,,,,,,,,7,,,50,49
18560,note_on,21,0,12,,,,,,,,7,,,38,64
18579,note_on,19,0,11,,,,,,,,7,,,50,0
18579,note_on,19,0,9,,,,,,,,7,,,68,0
18579,note_on,19,0,4,,,,,,,,3,,,65,0
18579,note_on,19,0,10,,,,,,,,7,,,62,0
18579,note_on,19,0,8,,,,,,,,7,,,77,0
18579,note_on,19,0,12,,,,,,,,7,,,38,0
18579,note_on,19,0,2,,,,,,,,1,,,77,0
18580,note_on,1,0,8,,,,,,,,7,,,77,47
18599,note_on,19,0,8,,,,,,,,7,,,77,0
18600,note_on,21,0,10,,,,,,,,7,,,58,47
18600,note_on,321,0,7,,,,,,,,6,,,46,47
18600,note_on,0,0,4,,,,,,,,3,,,67,47
18600,note_on,0,0,6,,,,,,,,5,,,70,49
18600,note_on,21,0,4,,,,,,,,3,,,46,47
18600,note_on,21,0,11,,,,,,,,7,,,46,48
18600,note_on,321,0,6,,,,,,,,5,,,58,49
18600,note_on,81,0,5,,,,,,,,4,,,67,46
18600,note_on,21,0,12,,,,,,,,7,,,34,63
18600,note_on,81,0,1,,,,,,,,0,,,91,48
18600,note_on,0,0,1,,,,,,,,0,,,86,48
18600,note_on,21,0,9,,,,,,,,7,,,62,47
18600,note_on,0,0,3,,,,,,,,2,,,74,46
18600,note_on,81,0,3,,,,,,,,2,,,67,46
18600,note_on,0,0,2,,,,,,,,1,,,79,49
18600,note_on,21,0,2,,,,,,,,1,,,74,49
18600,note_on,1,0,8,,,,,,,,7,,,79,46
18619,note_on,19,0,12,,,,,,,,7,,,34,0
18619,note_on,19,0,11,,,,,,,,7,,,46,0
18619,note_on,19,0,9,,,,,,,,7,,,62,0
18619,note_on,19,0,2,,,,,,,,1,,,79,0
18619,note_on,0,0,3,,,,,,,,2,,,67,0
18619,note_on,19,0,3,,,,,,,,2,,,74,0
18619,note_on,0,0,2,,,,,,,,1,,,74,0
18619,note_on,19,0,8,,,,,,,,7,,,79,0
18619,note_on,19,0,10,,,,,,,,7,,,58,0
18619,note_on,19,0,4,,,,,,,,3,,,67,0
18620,note_on,1,0,8,,,,,,,,7,,,79,49
18639,note_on,39,0,7,,,,,,,,6,,,46,0
18639,note_on,39,0,5,,,,,,,,4,,,67,0
18639,note_on,39,0,6,,,,,,,,5,,,70,0
18639,note_on,0,0,6,,,,,,,,5,,,58,0
18639,note_on,19,0,8,,,,,,,,7,,,79,0
18639,note_on,20,0,4,,,,,,,,3,,,46,0
18639,note_on,0,0,1,,,,,,,,0,,,91,0
18639,note_on,39,0,1,,,,,,,,0,,,86,0
18640,note_on,21,0,9,,,,,,,,7,,,67,53
18640,note_on,21,0,3,,,,,,,,2,,,61,53
18640,note_on,0,0,3,,,,,,,,2,,,73,53
18640,note_on,1,0,8,,,,,,,,7,,,73,53
18640,note_on,21,0,12,,,,,,,,7,,,46,69
18640,note_on,21,0,10,,,,,,,,7,,,70,53
18640,note_on,21,0,11,,,,,,,,7,,,58,55
18659,note_on,19,0,11,,,,,,,,7,,,58,0
18659,note_on,19,0,12,,,,,,,,7,,,46,0
18659,note_on,19,0,8,,,,,,,,7,,,73,0
18659,note_on,19,0,9,,,,,,,,7,,,67,0
18659,note_on,0,0,3,,,,,,,,2,,,61,0
18659,note_on,19,0,3,,,,,,,,2,,,73,0
18659,note_on,19,0,10,,,,,,,,7,,,70,0
18660,note_on,1,0,8,,,,,,,,7,,,73,56
18679,note_on,19,0,8,,,,,,,,7,,,73,0
18680,note_on,21,0,11,,,,,,,,7,,,54,61
18680,note_on,1,0,8,,,,,,,,7,,,74,59
18680,note_on,21,0,9,,,,,,,,7,,,58,60
18680,note_on,21,0,3,,,,,,,,2,,,62,60
18680,note_on,21,0,12,,,,,,,,7,,,42,76
18680,note_on,0,0,3,,,,,,,,2,,,74,60
18680,note_on,21,0,10,,,,,,,,7,,,66,60
18699,note_on,19,0,10,,,,,,,,7,,,66,0
18699,note_on,19,0,8,,,,,,,,7,,,74,0
18699,note_on,19,0,3,,,,,,,,2,,,74,0
18699,note_on,0,0,3,,,,,,,,2,,,62,0
18699,note_on,19,0,9,,,,,,,,7,,,58,0
18699,note_on,19,0,12,,,,,,,,7,,,42,0
18699,note_on,19,0,11,,,,,,,,7,,,54,0
18700,note_on,1,0,8,,,,,,,,7,,,74,63
18719,note_on,19,0,8,,,,,,,,7,,,74,0
18720,note_on,0,0,1,,,,,,,,0,,,87,68
18720,note_on,1,0,8,,,,,,,,7,,,75,66
18720,note_on,81,0,5,,,,,,,,4,,,67,66
18720,note_on,21,0,10,,,,,,,,7,,,67,66
18720,note_on,21,0,12,,,,,,,,7,,,43,82
18720,note_on,81,0,4,,,,,,,,3,,,55,67
18720,note_on,81,0,1,,,,,,,,0,,,82,68
18720,note_on,81,0,7,,,,,,,,6,,,46,67
18720,note_on,21,0,3,,,,,,,,2,,,75,66
18720,note_on,0,0,3,,,,,,,,2,,,63,66
18720,note_on,81,0,6,,,,,,,,5,,,70,69
18720,note_on,21,0,9,,,,,,,,7,,,70,66
18720,note_on,21,0,11,,,,,,,,7,,,55,68
18720,note_on,0,0,6,,,,,,,,5,,,58,69
18739,note_on,19,0,12,,,,,,,,7,,,43,0
18739,note_on,19,0,10,,,,,,,,7,,,67,0
18739,note_on,19,0,9,,,,,,,,7,,,70,0
18739,note_on,19,0,8,,,,,,,,7,,,75,0
18739,note_on,19,0,3,,,,,,,,2,,,63,0
18739,note_on,0,0,3,,,,,,,,2,,,75,0
18739,note_on,19,0,11,,,,,,,,7,,,55,0
18740,note_on,1,0,8,,,,,,,,7,,,75,69
18759,note_on,39,0,6,,,,,,,,5,,,58,0
18759,note_on,39,0,1,,,,,,,,0,,,87,0
18759,note_on,39,0,7,,,,,,,,6,,,46,0
18759,note_on,0,0,1,,,,,,,,0,,,82,0
18759,note_on,39,0,5,,,,,,,,4,,,67,0
18759,note_on,19,0,8,,,,,,,,7,,,75,0
18759,note_on,39,0,4,,,,,,,,3,,,55,0
18759,note_on,0,0,6,,,,,,,,5,,,70,0
18760,note_on,21,0,9,,,,,,,,7,,,58,73
18760,note_on,0,0,3,,,,,,,,2,,,65,73
18760,note_on,21,0,10,,,,,,,,7,,,62,73
18760,note_on,21,0,3,,,,,,,,2,,,77,73
18760,note_on,1,0,8,,,,,,,,7,,,77,73
18760,note_on,21,0,12,,,,,,,,7,,,38,89
18760,note_on,21,0,11,,,,,,,,7,,,50,74
18779,note_on,0,0,3,,,,,,,,2,,,77,0
18779,note_on,19,0,3,,,,,,,,2,,,65,0
18779,note_on,19,0,10,,,,,,,,7,,,62,0
18779,note_on,19,0,12,,,,,,,,7,,,38,0
18779,note_on,19,0,9,,,,,,,,7,,,58,0
18779,note_on,19,0,8,,,,,,,,7,,,77,0
18779,note_on,19,0,11,,,,,,,,7,,,50,0
18780,note_on,1,0,8,,,,,,,,7,,,77,76
18799,note_on,19,0,8,,,,,,,,7,,,77,0
18800,note_on,0,0,3,,,,,,,,2,,,67,80
18800,note_on,21,0,10,,,,,,,,7,,,63,79
18800,note_on,1,0,8,,,,,,,,7,,,79,80
18800,note_on,21,0,3,,,,,,,,2,,,79,80
18800,note_on,21,0,12,,,,,,,,7,,,39,96
18800,note_on,21,0,11,,,,,,,,7,,,51,80
18800,note_on,21,0,9,,,,,,,,7,,,70,80
18819,note_on,19,0,3,,,,,,,,2,,,67,0
18819,note_on,19,0,8,,,,,,,,7,,,79,0
18819,note_on,0,0,3,,,,,,,,2,,,79,0
18819,note_on,19,0,10,,,,,,,,7,,,63,0
18819,note_on,19,0,12,,,,,,,,7,,,39,0
18819,note_on,19,0,9,,,,,,,,7,,,70,0
18819,note_on,19,0,11,,,,,,,,7,,,51,0
18820,note_on,1,0,8,,,,,,,,7,,,79,83
18839,note_on,19,0,8,,,,,,,,7,,,79,0
18840,note_on,81,0,7,,,,,,,,6,,,51,88
18840,note_on,81,0,6,,,,,,,,5,,,75,88
18840,note_on,21,0,12,,,,,,,,7,,,36,102
18840,note_on,21,0,9,,,,,,,,7,,,63,86
18840,note_on,21,0,10,,,,,,,,7,,,60,86
18840,note_on,21,0,11,,,,,,,,7,,,48,87
18840,note_on,0,0,1,,,,,,,,0,,,87,87
18840,note_on,81,0,1,,,,,,,,0,,,84,87
18840,note_on,0,0,6,,,,,,,,5,,,63,88
18840,note_on,81,0,5,,,,,,,,4,,,51,86
18840,note_on,0,0,5,,,,,,,,4,,,63,86
18840,note_on,21,0,3,,,,,,,,2,,,68,86
18840,note_on,0,0,3,,,,,,,,2,,,80,86
18840,note_on,1,0,8,,,,,,,,7,,,80,86
18840,note_on,81,0,4,,,,,,,,3,,,48,87
18859,note_on,19,0,12,,,,,,,,7,,,36,0
18859,note_on,0,0,3,,,,,,,,2,,,68,0
18859,note_on,19,0,8,,,,,,,,7,,,80,0
18859,note_on,19,0,3,,,,,,,,2,,,80,0
18859,note_on,19,0,9,,,,,,,,7,,,63,0
18859,note_on,19,0,11,,,,,,,,7,,,48,0
18859,note_on,19,0,10,,,,,,,,7,,,60,0
18860,note_on,1,0,8,,,,,,,,7,,,80,90
18879,note_on,19,0,8,,,,,,,,7,,,80,0
18879,note_on,0,0,5,,,,,,,,4,,,51,0
18879,note_on,39,0,5,,,,,,,,4,,,63,0
18879,note_on,39,0,4,,,,,,,,3,,,48,0
18879,note_on,0,0,6,,,,,,,,5,,,75,0
18879,note_on,39,0,6,,,,,,,,5,,,63,0
18879,note_on,0,0,1,,,,,,,,0,,,84,0
18879,note_on,39,0,7,,,,,,,,6,,,51,0
18879,note_on,39,0,1,,,,,,,,0,,,87,0
18880,note_on,21,0,10,,,,,,,,7,,,55,93
18880,note_on,21,0,11,,,,,,,,7,,,43,93
18880,note_on,1,0,4,,,,,,,,3,,,43,93
18880,note_on,21,0,9,,,,,,,,7,,,72,93
18880,note_on,1,0,8,,,,,,,,7,,,80,93
18880,note_on,21,0,12,,,,,,,,7,,,31,109
18899,note_on,19,0,9,,,,,,,,7,,,72,0
18899,note_on,19,0,10,,,,,,,,7,,,55,0
18899,note_on,19,0,8,,,,,,,,7,,,80,0
18899,note_on,19,0,11,,,,,,,,7,,,43,0
18899,note_on,19,0,12,,,,,,,,7,,,31,0
18900,note_on,1,0,8,,,,,,,,7,,,80,96
18919,note_on,19,0,8,,,,,,,,7,,,80,0
18919,note_on,39,0,4,,,,,,,,3,,,43,0
18920,note_on,1,0,8,,,,,,,,7,,,80,100
18920,note_on,1,0,4,,,,,,,,3,,,44,100
18920,note_on,21,0,11,,,,,,,,7,,,44,100
18920,note_on,21,0,9,,,,,,,,7,,,72,99
18920,note_on,21,0,10,,,,,,,,7,,,56,99
18920,note_on,21,0,12,,,,,,,,7,,,32,115
18939,note_on,19,0,11,,,,,,,,7,,,44,0
18939,note_on,19,0,9,,,,,,,,7,,,72,0
18939,note_on,19,0,12,,,,,,,,7,,,32,0
18939,note_on,19,0,10,,,,,,,,7,,,56,0
18939,note_on,19,0,8,,,,,,,,7,,,80,0
18940,note_on,1,0,8,,,,,,,,7,,,80,103
18959,note_on,39,0,4,,,,,,,,3,,,44,0
18959,note_on,19,0,8,,,,,,,,7,,,80,0
18960,note_on,21,0,12,,,,,,,,7,,,29,122
18960,note_on,81,0,7,,,,,,,,6,,,46,108
18960,note_on,1,0,4,,,,,,,,3,,,41,106
18960,note_on,1,0,8,,,,,,,,7,,,80,107
18960,note_on,21,0,11,,,,,,,,7,,,41,106
18960,note_on,21,0,9,,,,,,,,7,,,74,106
18960,note_on,0,0,5,,,,,,,,4,,,58,106
18960,note_on,81,0,6,,,,,,,,5,,,58,108
18960,note_on,21,0,10,,,,,,,,7,,,53,106
18960,note_on,81,0,5,,,,,,,,4,,,46,106
18960,note_on,0,0,6,,,,,,,,5,,,70,108
18979,note_on,19,0,9,,,,,,,,7,,,74,0
18979,note_on,19,0,10,,,,,,,,7,,,53,0
18979,note_on,19,0,12,,,,,,,,7,,,29,0
18979,note_on,19,0,8,,,,,,,,7,,,80,0
18979,note_on,19,0,11,,,,,,,,7,,,41,0
18980,note_on,1,0,8,,,,,,,,7,,,80,110
18999,note_on,39,0,6,,,,,,,,5,,,70,0
18999,note_on,0,0,6,,,,,,,,5,,,58,0
18999,note_on,0,0,5,,,,,,,,4,,,46,0
18999,note_on,39,0,7,,,,,,,,6,,,46,0
18999,note_on,39,0,4,,,,,,,,3,,,41,0
18999,note_on,19,0,8,,,,,,,,7,,,80,0
18999,note_on,39,0,5,,,,,,,,4,,,58,0
19000,note_on,1,0,4,,,,,,,,3,,,49,113
19000,note_on,1,0,8,,,,,,,,7,,,80,113
19000,note_on,21,0,12,,,,,,,,7,,,37,127
19000,note_on,21,0,10,,,,,,,,7,,,61,112
19000,note_on,141,0,3,,,,,,,,2,,,68,113
19000,note_on,0,0,3,,,,,,,,2,,,70,113
19000,note_on,121,0,1,,,,,,,,0,,,82,112
19000,note_on,381,0,2,,,,,,,,1,,,80,113
19000,note_on,21,0,11,,,,,,,,7,,,49,112
19000,note_on,1,0,6,,,,,,,,5,,,58,115
19000,note_on,21,0,9,,,,,,,,7,,,65,113
19000,note_on,0,0,5,,,,,,,,4,,,58,113
19000,note_on,0,0,2,,,,,,,,1,,,70,113
19000,note_on,0,0,6,,,,,,,,5,,,70,115
19000,note_on,1,0,5,,,,,,,,4,,,46,113
19000,note_on,1,0,7,,,,,,,,6,,,46,114
19019,note_on,19,0,9,,,,,,,,7,,,65,0
19019,note_on,0,0,2,,,,,,,,1,,,80,0
19019,note_on,19,0,11,,,,,,,,7,,,49,0
19019,note_on,19,0,8,,,,,,,,7,,,80,0
19019,note_on,19,0,12,,,,,,,,7,,,37,0
19019,note_on,19,0,10,,,,,,,,7,,,61,0
19019,note_on,19,0,2,,,,,,,,1,,,70,0
19020,note_on,1,0,8,,,,,,,,7,,,80,117
19039,note_on,0,0,5,,,,,,,,4,,,46,0
19039,note_on,39,0,7,,,,,,,,6,,,46,0
19039,note_on,39,0,3,,,,,,,,2,,,70,0
19039,note_on,39,0,6,,,,,,,,5,,,70,0
19039,note_on,39,0,1,,,,,,,,0,,,82,0
19039,note_on,0,0,3,,,,,,,,2,,,68,0
19039,note_on,19,0,8,,,,,,,,7,,,80,0
19039,note_on,39,0,5,,,,,,,,4,,,58,0
19039,note_on,0,0,6,,,,,,,,5,,,58,0
19039,note_on,39,0,4,,,,,,,,3,,,49,0
19040,note_on,1,0,8,,,,,,,,7,,,80,120
19040,note_on,0,0,3,,,,,,,,2,,,70,120
19040,note_on,21,0,2,,,,,,,,1,,,80,119
19040,note_on,0,0,2,,,,,,,,1,,,70,119
19040,note_on,1,0,3,,,,,,,,2,,,68,120
19040,note_on,21,0,11,,,,,,,,7,,,50,119
19040,note_on,21,0,9,,,,,,,,7,,,65,119
19040,note_on,1,0,5,,,,,,,,4,,,46,119
19040,note_on,0,0,5,,,,,,,,4,,,58,119
19040,note_on,0,0,6,,,,,,,,5,,,70,121
19040,note_on,1,0,6,,,,,,,,5,,,58,121
19040,note_on,21,0,10,,,,,,,,7,,,62,119
19040,note_on,21,0,12,,,,,,,,7,,,38,127
19040,note_on,1,0,4,,,,,,,,3,,,50,120
19040,note_on,1,0,1,,,,,,,,0,,,82,119
19040,note_on,1,0,7,,,,,,,,6,,,46,121
19059,note_on,19,0,8,,,,,,,,7,,,80,0
19059,note_on,0,0,2,,,,,,,,1,,,80,0
19059,note_on,19,0,2,,,,,,,,1,,,70,0
19059,note_on,19,0,11,,,,,,,,7,,,50,0
19059,note_on,19,0,10,,,,,,,,7,,,62,0
19059,note_on,19,0,12,,,,,,,,7,,,38,0
19059,note_on,19,0,9,,,,,,,,7,,,65,0
19060,note_on,1,0,8,,,,,,,,7,,,80,123
19079,note_on,19,0,8,,,,,,,,7,,,80,0
19079,note_on,39,0,3,,,,,,,,2,,,70,0
19079,note_on,39,0,5,,,,,,,,4,,,58,0
19079,note_on,0,0,5,,,,,,,,4,,,46,0
19079,note_on,39,0,1,,,,,,,,0,,,82,0
19079,note_on,0,0,3,,,,,,,,2,,,68,0
19079,note_on,39,0,4,,,,,,,,3,,,50,0
19079,note_on,39,0,7,,,,,,,,6,,,46,0
19079,note_on,0,0,6,,,,,,,,5,,,58,0
19079,note_on,39,0,6,,,,,,,,5,,,70,0
19080,note_on,1,0,3,,,,,,,,2,,,62,127
19080,note_on,21,0,11,,,,,,,,7,,,46,127
19080,note_on,1,0,5,,,,,,,,4,,,58,127
19080,note_on,0,0,6,,,,,,,,5,,,70,127
19080,note_on,1,0,6,,,,,,,,5,,,58,127
19080,note_on,0,0,5,,,,,,,,4,,,46,127
19080,note_on,1,0,7,,,,,,,,6,,,46,127
19080,note_on,21,0,10,,,,,,,,7,,,58,127
19080,note_on,21,0,12,,,,,,,,7,,,34,127
19080,note_on,1,0,4,,,,,,,,3,,,46,127
19080,note_on,1,0,1,,,,,,,,0,,,82,127
19080,note_on,0,0,2,,,,,,,,1,,,80,126
19080,note_on,21,0,2,,,,,,,,1,,,70,126
19080,note_on,21,0,9,,,,,,,,7,,,62,127
19080,note_on,0,0,3,,,,,,,,2,,,74,127
19080,note_on,1,0,8,,,,,,,,7,,,80,127
19099,note_on,19,0,9,,,,,,,,7,,,62,0
19099,note_on,19,0,7,,,,,,,,6,,,46,0
19099,note_on,19,0,2,,,,,,,,1,,,80,0
19099,note_on,0,0,2,,,,,,,,1,,,70,0
19099,note_on,19,0,8,,,,,,,,7,,,80,0
19100,note_on,1,0,8,,,,,,,,7,,,80,127
19100,note_on,1,0,7,,,,,,,,6,,,46,127
19100,note_on,1,0,9,,,,,,,,7,,,62,127
19119,note_on,39,0,4,,,,,,,,3,,,46,0
19119,note_on,19,0,9,,,,,,,,7,,,62,0
19119,note_on,39,0,1,,,,,,,,0,,,82,0
19119,note_on,19,0,7,,,,,,,,6,,,46,0
19119,note_on,39,0,12,,,,,,,,7,,,34,0
19119,note_on,39,0,10,,,,,,,,7,,,58,0
19119,note_on,0,0,5,,,,,,,,4,,,58,0
19119,note_on,39,0,6,,,,,,,,5,,,70,0
19119,note_on,0,0,6,,,,,,,,5,,,58,0
19119,note_on,39,0,11,,,,,,,,7,,,46,0
19119,note_on,39,0,5,,,,,,,,4,,,46,0
19119,note_on,0,0,3,,,,,,,,2,,,62,0
19119,note_on,19,0,8,,,,,,,,7,,,80,0
19119,note_on,39,0,3,,,,,,,,2,,,74,0
19120,note_on,1,0,6,,,,,,,,5,,,70,127
19120,note_on,1,0,10,,,,,,,,7,,,65,127
19120,note_on,1,0,7,,,,,,,,6,,,46,127
19120,note_on,1,0,12,,,,,,,,7,,,41,127
19120,note_on,21,0,2,,,,,,,,1,,,74,126
19120,note_on,0,0,5,,,,,,,,4,,,58,127
19120,note_on,1,0,5,,,,,,,,4,,,46,127
19120,note_on,1,0,1,,,,,,,,0,,,86,127
19120,note_on,1,0,3,,,,,,,,2,,,62,127
19120,note_on,0,0,1,,,,,,,,0,,,82,127
19120,note_on,1,0,11,,,,,,,,7,,,53,127
19120,note_on,1,0,8,,,,,,,,7,,,80,127
19120,note_on,0,0,2,,,,,,,,1,,,70,126
19120,note_on,1,0,4,,,,,,,,3,,,53,127
19120,note_on,1,0,9,,,,,,,,7,,,68,127
19120,note_on,0,0,3,,,,,,,,2,,,74,127
19120,note_on,0,0,6,,,,,,,,5,,,58,127
19139,note_on,19,0,2,,,,,,,,1,,,70,0
19139,note_on,0,0,2,,,,,,,,1,,,74,0
19139,note_on,19,0,8,,,,,,,,7,,,80,0
19139,note_on,19,0,7,,,,,,,,6,,,46,0
19139,note_on,19,0,9,,,,,,,,7,,,68,0
19140,note_on,1,0,7,,,,,,,,6,,,46,127
19140,note_on,1,0,9,,,,,,,,7,,,68,127
19140,note_on,1,0,8,,,,,,,,7,,,80,127
19159,note_on,39,0,4,,,,,,,,3,,,53,0
19159,note_on,39,0,12,,,,,,,,7,,,41,0
19159,note_on,39,0,3,,,,,,,,2,,,74,0
19159,note_on,39,0,10,,,,,,,,7,,,65,0
19159,note_on,0,0,6,,,,,,,,5,,,70,0
19159,note_on,0,0,3,,,,,,,,2,,,62,0
19159,note_on,0,0,5,,,,,,,,4,,,46,0
19159,note_on,19,0,8,,,,,,,,7,,,80,0
19159,note_on,0,0,1,,,,,,,,0,,,86,0
19159,note_on,19,0,9,,,,,,,,7,,,68,0
19159,note_on,39,0,5,,,,,,,,4,,,58,0
19159,note_on,39,0,11,,,,,,,,7,,,53,0
19159,note_on,39,0,6,,,,,,,,5,,,58,0
19159,note_on,39,0,1,,,,,,,,0,,,82,0
19159,note_on,19,0,7,,,,,,,,6,,,46,0
19160,note_on,1,0,1,,,,,,,,0,,,86,127
19160,note_on,0,0,1,,,,,,,,0,,,82,127
19160,note_on,1,0,9,,,,,,,,7,,,65,127
19160,note_on,1,0,6,,,,,,,,5,,,70,127
19160,note_on,1,0,4,,,,,,,,3,,,50,127
19160,note_on,1,0,11,,,,,,,,7,,,50,127
19160,note_on,1,0,10,,,,,,,,7,,,62,127
19160,note_on,1,0,3,,,,,,,,2,,,62,127
19160,note_on,0,0,3,,,,,,,,2,,,74,127
19160,note_on,21,0,2,,,,,,,,1,,,70,126
19160,note_on,0,0,2,,,,,,,,1,,,74,126
19160,note_on,0,0,6,,,,,,,,5,,,58,127
19160,note_on,1,0,12,,,,,,,,7,,,38,127
19160,note_on,1,0,5,,,,,,,,4,,,46,127
19160,note_on,0,0,5,,,,,,,,4,,,58,127
19160,note_on,1,0,8,,,,,,,,7,,,80,127
19160,note_on,1,0,7,,,,,,,,6,,,46,127
19179,note_on,19,0,2,,,,,,,,1,,,74,0
19179,note_on,0,0,2,,,,,,,,1,,,70,0
19179,note_on,19,0,7,,,,,,,,6,,,46,0
19179,note_on,19,0,8,,,,,,,,7,,,80,0
19179,note_on,19,0,9,,,,,,,,7,,,65,0
19180,note_on,1,0,8,,,,,,,,7,,,80,127
19180,note_on,1,0,7,,,,,,,,6,,,46,127
19180,note_on,1,0,9,,,,,,,,7,,,65,127
19199,note_on,39,0,5,,,,,,,,4,,,58,0
19199,note_on,39,0,11,,,,,,,,7,,,50,0
19199,note_on,39,0,12,,,,,,,,7,,,38,0
19199,note_on,39,0,4,,,,,,,,3,,,50,0
19199,note_on,19,0,7,,,,,,,,6,,,46,0
19199,note_on,19,0,9,,,,,,,,7,,,65,0
19199,note_on,39,0,10,,,,,,,,7,,,62,0
19199,note_on,0,0,5,,,,,,,,4,,,46,0
19199,note_on,0,0,3,,,,,,,,2,,,62,0
19199,note_on,0,0,6,,,,,,,,5,,,70,0
19199,note_on,0,0,1,,,,,,,,0,,,86,0
19199,note_on,39,0,1,,,,,,,,0,,,82,0
19199,note_on,39,0,6,,,,,,,,5,,,58,0
19199,note_on,39,0,3,,,,,,,,2,,,74,0
19199,note_on,19,0,8,,,,,,,,7,,,80,0
19200,note_on,1,0,8,,,,,,,,7,,,80,127
19200,note_on,1,0,7,,,,,,,,6,,,46,127
19200,note_on,0,0,3,,,,,,,,2,,,74,127
19200,note_on,1,0,3,,,,,,,,2,,,62,127
19200,note_on,1,0,1,,,,,,,,0,,,82,127
19200,note_on,1,0,10,,,,,,,,7,,,58,127
19200,note_on,1,0,6,,,,,,,,5,,,70,127
19200,note_on,0,0,6,,,,,,,,5,,,58,127
19200,note_on,0,0,5,,,,,,,,4,,,58,127
19200,note_on,1,0,11,,,,,,,,7,,,46,127
19200,note_on,1,0,9,,,,,,,,7,,,62,127
19200,note_on,21,0,2,,,,,,,,1,,,74,126
19200,note_on,0,0,2,,,,,,,,1,,,70,126
19200,note_on,0,0,1,,,,,,,,0,,,86,127
19200,note_on,1,0,5,,,,,,,,4,,,46,127
19200,note_on,1,0,4,,,,,,,,3,,,46,127
19200,note_on,1,0,12,,,,,,,,7,,,34,127
19219,note_on,0,0,2,,,,,,,,1,,,74,0
19219,note_on,19,0,8,,,,,,,,7,,,80,0
19219,note_on,19,0,7,,,,,,,,6,,,46,0
19219,note_on,19,0,9,,,,,,,,7,,,62,0
19219,note_on,19,0,2,,,,,,,,1,,,70,0
19220,note_on,1,0,9,,,,,,,,7,,,62,127
19220,note_on,1,0,8,,,,,,,,7,,,80,127
19220,note_on,1,0,7,,,,,,,,6,,,46,127
19239,note_on,39,0,3,,,,,,,,2,,,74,0
19239,note_on,0,0,3,,,,,,,,2,,,62,0
19239,note_on,19,0,7,,,,,,,,6,,,46,0
19239,note_on,39,0,4,,,,,,,,3,,,46,0
19239,note_on,0,0,6,,,,,,,,5,,,70,0
19239,note_on,39,0,6,,,,,,,,5,,,58,0
19239,note_on,0,0,1,,,,,,,,0,,,82,0
19239,note_on,39,0,11,,,,,,,,7,,,46,0
19239,note_on,39,0,10,,,,,,,,7,,,58,0
19239,note_on,39,0,12,,,,,,,,7,,,34,0
19239,note_on,19,0,9,,,,,,,,7,,,62,0
19239,note_on,19,0,8,,,,,,,,7,,,80,0
19239,note_on,39,0,5,,,,,,,,4,,,58,0
19239,note_on,39,0,1,,,,,,,,0,,,86,0
19239,note_on,0,0,5,,,,,,,,4,,,46,0
19240,note_on,1,0,1,,,,,,,,0,,,89,127
19240,note_on,1,0,5,,,,,,,,4,,,65,127
19240,note_on,1,0,8,,,,,,,,7,,,80,127
19240,note_on,1,0,4,,,,,,,,3,,,62,127
19240,note_on,1,0,12,,,,,,,,7,,,50,127
19240,note_on,1,0,6,,,,,,,,5,,,70,127
19240,note_on,0,0,6,,,,,,,,5,,,58,127
19240,note_on,0,0,1,,,,,,,,0,,,82,127
19240,note_on,0,0,2,,,,,,,,1,,,70,126
19240,note_on,1,0,11,,,,,,,,7,,,62,127
19240,note_on,1,0,9,,,,,,,,7,,,77,127
19240,note_on,0,0,5,,,,,,,,4,,,58,127
19240,note_on,21,0,2,,,,,,,,1,,,77,126
19240,note_on,0,0,3,,,,,,,,2,,,77,127
19240,note_on,1,0,3,,,,,,,,2,,,65,127
19240,note_on,1,0,10,,,,,,,,7,,,74,127
19240,note_on,1,0,7,,,,,,,,6,,,46,127
19259,note_on,19,0,9,,,,,,,,7,,,77,0
19259,note_on,19,0,2,,,,,,,,1,,,70,0
19259,note_on,0,0,2,,,,,,,,1,,,77,0
19259,note_on,19,0,8,,,,,,,,7,,,80,0
19259,note_on,19,0,7,,,,,,,,6,,,46,0
19260,note_on,1,0,9,,,,,,,,7,,,77,127
19260,note_on,1,0,7,,,,,,,,6,,,46,127
19260,note_on,1,0,8,,,,,,,,7,,,80,127
19279,note_on,39,0,10,,,,,,,,7,,,74,0
19279,note_on,39,0,3,,,,,,,,2,,,77,0
19279,note_on,0,0,3,,,,,,,,2,,,65,0
19279,note_on,39,0,4,,,,,,,,3,,,62,0
19279,note_on,19,0,7,,,,,,,,6,,,46,0
19279,note_on,19,0,8,,,,,,,,7,,,80,0
19279,note_on,39,0,1,,,,,,,,0,,,82,0
19279,note_on,39,0,5,,,,,,,,4,,,58,0
19279,note_on,39,0,12,,,,,,,,7,,,50,0
19279,note_on,0,0,1,,,,,,,,0,,,89,0
19279,note_on,0,0,5,,,,,,,,4,,,65,0
19279,note_on,19,0,9,,,,,,,,7,,,77,0
19279,note_on,39,0,11,,,,,,,,7,,,62,0
19279,note_on,0,0,6,,,,,,,,5,,,70,0
19279,note_on,39,0,6,,,,,,,,5,,,58,0
19280,note_on,0,0,1,,,,,,,,0,,,82,127
19280,note_on,1,0,7,,,,,,,,6,,,46,127
19280,note_on,0,0,5,,,,,,,,4,,,58,127
19280,note_on,1,0,1,,,,,,,,0,,,89,127
19280,note_on,1,0,3,,,,,,,,2,,,65,127
19280,note_on,0,0,3,,,,,,,,2,,,77,127
19280,note_on,21,0,2,,,,,,,,1,,,70,126
19280,note_on,0,0,2,,,,,,,,1,,,77,126
19280,note_on,1,0,9,,,,,,,,7,,,74,127
19280,note_on,0,0,6,,,,,,,,5,,,58,127
19280,note_on,1,0,6,,,,,,,,5,,,70,127
19280,note_on,1,0,11,,,,,,,,7,,,58,127
19280,note_on,1,0,12,,,,,,,,7,,,46,127
19280,note_on,1,0,4,,,,,,,,3,,,58,127
19280,note_on,1,0,5,,,,,,,,4,,,65,127
19280,note_on,1,0,8,,,,,,,,7,,,80,127
19280,note_on,1,0,10,,,,,,,,7,,,70,127
19299,note_on,19,0,9,,,,,,,,7,,,74,0
19299,note_on,19,0,7,,,,,,,,6,,,46,0
19299,note_on,19,0,2,,,,,,,,1,,,77,0
19299,note_on,0,0,2,,,,,,,,1,,,70,0
19299,note_on,19,0,8,,,,,,,,7,,,80,0
19300,note_on,1,0,9,,,,,,,,7,,,74,127
19300,note_on,1,0,7,,,,,,,,6,,,46,127
19300,note_on,1,0,8,,,,,,,,7,,,80,127
19319,note_on,0,0,1,,,,,,,,0,,,89,0
19319,note_on,39,0,3,,,,,,,,2,,,77,0
19319,note_on,39,0,1,,,,,,,,0,,,82,0
19319,note_on,39,0,11,,,,,,,,7,,,58,0
19319,note_on,39,0,6,,,,,,,,5,,,58,0
19319,note_on,0,0,6,,,,,,,,5,,,70,0
19319,note_on,39,0,12,,,,,,,,7,,,46,0
19319,note_on,19,0,7,,,,,,,,6,,,46,0
19319,note_on,39,0,4,,,,,,,,3,,,58,0
19319,note_on,0,0,3,,,,,,,,2,,,65,0
19319,note_on,0,0,5,,,,,,,,4,,,65,0
19319,note_on,39,0,5,,,,,,,,4,,,58,0
19319,note_on,19,0,9,,,,,,,,7,,,74,0
19319,note_on,19,0,8,,,,,,,,7,,,80,0
19319,note_on,39,0,10,,,,,,,,7,,,70,0
19320,note_on,1,0,1,,,,,,,,0,,,82,127
19320,note_on,1,0,3,,,,,,,,2,,,65,127
19320,note_on,1,0,4,,,,,,,,3,,,46,127
19320,note_on,0,0,1,,,,,,,,0,,,89,127
19320,note_on,1,0,9,,,,,,,,7,,,65,127
19320,note_on,21,0,2,,,,,,,,1,,,77,126
19320,note_on,1,0,11,,,,,,,,7,,,46,127
19320,note_on,0,0,2,,,,,,,,1,,,70,126
19320,note_on,0,0,3,,,,,,,,2,,,77,127
19320,note_on,1,0,5,,,,,,,,4,,,58,127
19320,note_on,1,0,7,,,,,,,,6,,,46,127
19320,note_on,1,0,10,,,,,,,,7,,,58,127
19320,note_on,1,0,12,,,,,,,,7,,,34,127
19320,note_on,1,0,6,,,,,,,,5,,,70,127
19320,note_on,0,0,6,,,,,,,,5,,,58,127
19320,note_on,1,0,8,,,,,,,,7,,,80,127
19320,note_on,0,0,5,,,,,,,,4,,,65,127
19339,note_on,19,0,9,,,,,,,,7,,,65,0
19339,note_on,19,0,7,,,,,,,,6,,,46,0
19339,note_on,19,0,8,,,,,,,,7,,,80,0
19339,note_on,0,0,2,,,,,,,,1,,,77,0
19339,note_on,19,0,2,,,,,,,,1,,,70,0
19340,note_on,1,0,7,,,,,,,,6,,,46,127
19340,note_on,1,0,8,,,,,,,,7,,,80,127
19340,note_on,1,0,9,,,,,,,,7,,,65,127
19359,note_on,39,0,4,,,,,,,,3,,,46,0
19359,note_on,39,0,11,,,,,,,,7,,,46,0
19359,note_on,19,0,7,,,,,,,,6,,,46,0
19359,note_on,0,0,1,,,,,,,,0,,,82,0
19359,note_on,39,0,10,,,,,,,,7,,,58,0
19359,note_on,39,0,6,,,,,,,,5,,,58,0
19359,note_on,0,0,6,,,,,,,,5,,,70,0
19359,note_on,39,0,3,,,,,,,,2,,,77,0
19359,note_on,39,0,5,,,,,,,,4,,,65,0
19359,note_on,39,0,12,,,,,,,,7,,,34,0
19359,note_on,19,0,9,,,,,,,,7,,,65,0
19359,note_on,39,0,1,,,,,,,,0,,,89,0
19359,note_on,0,0,5,,,,,,,,4,,,58,0
19359,note_on,0,0,3,,,,,,,,2,,,65,0
19359,note_on,19,0,8,,,,,,,,7,,,80,0
19360,note_on,0,0,6,,,,,,,,5,,,58,127
19360,note_on,1,0,6,,,,,,,,5,,,70,127
19360,note_on,1,0,12,,,,,,,,7,,,53,127
19360,note_on,1,0,7,,,,,,,,6,,,46,127
19360,note_on,1,0,8,,,,,,,,7,,,80,127
19360,note_on,0,0,5,,,,,,,,4,,,65,127
19360,note_on,0,0,5,,,,,,,,4,,,68,127
19360,note_on,1,0,5,,,,,,,,4,,,58,127
19360,note_on,1,0,11,,,,,,,,7,,,65,127
19360,note_on,1,0,3,,,,,,,,2,,,77,127
19360,note_on,21,0,2,,,,,,,,1,,,80,126
19360,note_on,0,0,2,,,,,,,,1,,,77,126
19360,note_on,0,0,3,,,,,,,,2,,,68,127
19360,note_on,1,0,9,,,,,,,,7,,,80,127
19360,note_on,1,0,4,,,,,,,,3,,,65,127
19360,note_on,1,0,1,,,,,,,,0,,,92,127
19360,note_on,0,0,1,,,,,,,,0,,,82,127
19360,note_on,1,0,10,,,,,,,,7,,,65,127
19379,note_on,19,0,9,,,,,,,,7,,,80,0
19379,note_on,19,0,7,,,,,,,,6,,,46,0
19379,note_on,19,0,8,,,,,,,,7,,,80,0
19379,note_on,0,0,2,,,,,,,,1,,,80,0
19379,note_on,19,0,2,,,,,,,,1,,,77,0
19380,note_on,1,0,8,,,,,,,,7,,,80,127
19380,note_on,1,0,9,,,,,,,,7,,,80,127
19380,note_on,1,0,7,,,,,,,,6,,,46,127
19399,note_on,39,0,12,,,,,,,,7,,,53,0
19399,note_on,39,0,11,,,,,,,,7,,,65,0
19399,note_on,19,0,9,,,,,,,,7,,,80,0
19399,note_on,0,0,1,,,,,,,,0,,,92,0
19399,note_on,39,0,6,,,,,,,,5,,,58,0
19399,note_on,19,0,8,,,,,,,,7,,,80,0
19399,note_on,39,0,5,,,,,,,,4,,,65,0
19399,note_on,19,0,7,,,,,,,,6,,,46,0
19399,note_on,0,0,6,,,,,,,,5,,,70,0
19399,note_on,0,0,3,,,,,,,,2,,,77,0
19399,note_on,39,0,3,,,,,,,,2,,,68,0
19399,note_on,39,0,10,,,,,,,,7,,,65,0
19399,note_on,39,0,1,,,,,,,,0,,,82,0
19399,note_on,0,0,5,,,,,,,,4,,,68,0
19399,note_on,39,0,4,,,,,,,,3,,,65,0
19399,note_on,0,0,5,,,,,,,,4,,,58,0
19400,note_on,0,0,6,,,,,,,,5,,,58,127
19400,note_on,21,0,2,,,,,,,,1,,,77,126
19400,note_on,0,0,2,,,,,,,,1,,,80,126
19400,note_on,0,0,3,,,,,,,,2,,,68,127
19400,note_on,1,0,3,,,,,,,,2,,,77,127
19400,note_on,1,0,9,,,,,,,,7,,,77,127
19400,note_on,1,0,4,,,,,,,,3,,,62,127
19400,note_on,1,0,1,,,,,,,,0,,,82,127
19400,note_on,1,0,10,,,,,,,,7,,,62,127
19400,note_on,1,0,7,,,,,,,,6,,,46,127
19400,note_on,1,0,8,,,,,,,,7,,,80,127
19400,note_on,1,0,5,,,,,,,,4,,,58,127
19400,note_on,1,0,11,,,,,,,,7,,,62,127
19400,note_on,1,0,6,,,,,,,,5,,,70,127
19400,note_on,0,0,1,,,,,,,,0,,,92,127
19400,note_on,0,0,5,,,,,,,,4,,,65,127
19400,note_on,0,0,5,,,,,,,,4,,,68,127
19400,note_on,1,0,12,,,,,,,,7,,,50,127
19419,note_on,19,0,8,,,,,,,,7,,,80,0
19419,note_on,19,0,7,,,,,,,,6,,,46,0
19419,note_on,0,0,2,,,,,,,,1,,,77,0
19419,note_on,19,0,9,,,,,,,,7,,,77,0
19419,note_on,19,0,2,,,,,,,,1,,,80,0
19420,note_on,1,0,9,,,,,,,,7,,,77,127
19420,note_on,1,0,7,,,,,,,,6,,,46,127
19420,note_on,1,0,8,,,,,,,,7,,,80,127
19439,note_on,39,0,4,,,,,,,,3,,,62,0
19439,note_on,0,0,6,,,,,,,,5,,,70,0
19439,note_on,39,0,6,,,,,,,,5,,,58,0
19439,note_on,0,0,5,,,,,,,,4,,,65,0
19439,note_on,0,0,1,,,,,,,,0,,,82,0
19439,note_on,19,0,9,,,,,,,,7,,,77,0
19439,note_on,39,0,1,,,,,,,,0,,,92,0
19439,note_on,39,0,11,,,,,,,,7,,,62,0
19439,note_on,39,0,5,,,,,,,,4,,,68,0
19439,note_on,39,0,10,,,,,,,,7,,,62,0
19439,note_on,0,0,5,,,,,,,,4,,,58,0
19439,note_on,19,0,8,,,,,,,,7,,,80,0
19439,note_on,39,0,12,,,,,,,,7,,,50,0
19439,note_on,0,0,3,,,,,,,,2,,,77,0
19439,note_on,19,0,7,,,,,,,,6,,,46,0
19439,note_on,39,0,3,,,,,,,,2,,,68,0
19440,note_on,0,0,1,,,,,,,,0,,,92,127
19440,note_on,1,0,10,,,,,,,,7,,,58,127
19440,note_on,0,0,2,,,,,,,,1,,,80,126
19440,note_on,0,0,5,,,,,,,,4,,,65,127
19440,note_on,0,0,5,,,,,,,,4,,,68,127
19440,note_on,1,0,5,,,,,,,,4,,,58,127
19440,note_on,1,0,6,,,,,,,,5,,,70,127
19440,note_on,0,0,6,,,,,,,,5,,,58,127
19440,note_on,21,0,2,,,,,,,,1,,,77,126
19440,note_on,1,0,1,,,,,,,,0,,,82,127
19440,note_on,1,0,12,,,,,,,,7,,,46,127
19440,note_on,1,0,3,,,,,,,,2,,,77,127
19440,note_on,1,0,9,,,,,,,,7,,,74,127
19440,note_on,1,0,11,,,,,,,,7,,,58,127
19440,note_on,1,0,8,,,,,,,,7,,,80,127
19440,note_on,1,0,4,,,,,,,,3,,,58,127
19440,note_on,1,0,7,,,,,,,,6,,,46,127
19440,note_on,0,0,3,,,,,,,,2,,,68,127
19459,note_on,19,0,7,,,,,,,,6,,,46,0
19459,note_on,0,0,2,,,,,,,,1,,,77,0
19459,note_on,19,0,8,,,,,,,,7,,,80,0
19459,note_on,19,0,9,,,,,,,,7,,,74,0
19459,note_on,19,0,2,,,,,,,,1,,,80,0
19460,note_on,1,0,7,,,,,,,,6,,,46,127
19460,note_on,1,0,8,,,,,,,,7,,,80,127
19460,note_on,1,0,9,,,,,,,,7,,,74,127
19479,note_on,39,0,10,,,,,,,,7,,,58,0
19479,note_on,39,0,11,,,,,,,,7,,,58,0
19479,note_on,19,0,8,,,,,,,,7,,,80,0
19479,note_on,0,0,6,,,,,,,,5,,,70,0
19479,note_on,39,0,6,,,,,,,,5,,,58,0
19479,note_on,39,0,4,,,,,,,,3,,,58,0
19479,note_on,0,0,1,,,,,,,,0,,,82,0
19479,note_on,19,0,7,,,,,,,,6,,,46,0
19479,note_on,39,0,1,,,,,,,,0,,,92,0
19479,note_on,39,0,5,,,,,,,,4,,,65,0
19479,note_on,0,0,5,,,,,,,,4,,,68,0
19479,note_on,0,0,5,,,,,,,,4,,,58,0
19479,note_on,39,0,12,,,,,,,,7,,,46,0
19479,note_on,19,0,9,,,,,,,,7,,,74,0
19479,note_on,39,0,3,,,,,,,,2,,,68,0
19479,note_on,0,0,3,,,,,,,,2,,,77,0
19480,note_on,1,0,4,,,,,,,,3,,,60,127
19480,note_on,0,0,2,,,,,,,,1,,,79,126
19480,note_on,21,0,2,,,,,,,,1,,,75,126
19480,note_on,1,0,11,,,,,,,,7,,,60,127
19480,note_on,1,0,5,,,,,,,,4,,,58,127
19480,note_on,0,0,5,,,,,,,,4,,,63,127
19480,note_on,1,0,10,,,,,,,,7,,,60,127
19480,note_on,1,0,1,,,,,,,,0,,,82,127
19480,note_on,0,0,1,,,,,,,,0,,,91,127
19480,note_on,0,0,5,,,,,,,,4,,,67,127
19480,note_on,1,0,8,,,,,,,,7,,,79,127
19480,note_on,1,0,6,,,,,,,,5,,,70,127
19480,note_on,0,0,6,,,,,,,,5,,,58,127
19480,note_on,1,0,3,,,,,,,,2,,,75,127
19480,note_on,0,0,3,,,,,,,,2,,,67,127
19480,note_on,1,0,7,,,,,,,,6,,,46,127
19480,note_on,1,0,12,,,,,,,,7,,,48,127
19480,note_on,1,0,9,,,,,,,,7,,,75,127
19499,note_on,19,0,7,,,,,,,,6,,,46,0
19499,note_on,19,0,8,,,,,,,,7,,,79,0
19499,note_on,0,0,2,,,,,,,,1,,,75,0
19499,note_on,19,0,9,,,,,,,,7,,,75,0
19499,note_on,19,0,2,,,,,,,,1,,,79,0
19500,note_on,1,0,9,,,,,,,,7,,,75,127
19500,note_on,1,0,8,,,,,,,,7,,,79,127
19500,note_on,1,0,7,,,,,,,,6,,,46,127
19519,note_on,39,0,6,,,,,,,,5,,,58,0
19519,note_on,0,0,6,,,,,,,,5,,,70,0
19519,note_on,39,0,1,,,,,,,,0,,,91,0
19519,note_on,0,0,1,,,,,,,,0,,,82,0
19519,note_on,19,0,9,,,,,,,,7,,,75,0
19519,note_on,39,0,5,,,,,,,,4,,,67,0
19519,note_on,0,0,5,,,,,,,,4,,,63,0
19519,note_on,0,0,5,,,,,,,,4,,,58,0
19519,note_on,0,0,3,,,,,,,,2,,,75,0
19519,note_on,19,0,8,,,,,,,,7,,,79,0
19519,note_on,19,0,7,,,,,,,,6,,,46,0
19519,note_on,39,0,3,,,,,,,,2,,,67,0
19519,note_on,39,0,10,,,,,,,,7,,,60,0
19519,note_on,39,0,4,,,,,,,,3,,,60,0
19519,note_on,39,0,11,,,,,,,,7,,,60,0
19519,note_on,39,0,12,,,,,,,,7,,,48,0
19520,note_on,1,0,5,,,,,,,,4,,,58,127
19520,note_on,0,0,5,,,,,,,,4,,,65,127
19520,note_on,1,0,10,,,,,,,,7,,,62,127
19520,note_on,1,0,12,,,,,,,,7,,,50,127
19520,note_on,0,0,2,,,,,,,,1,,,77,126
19520,note_on,21,0,2,,,,,,,,1,,,70,126
19520,note_on,1,0,1,,,,,,,,0,,,82,127
19520,note_on,1,0,7,,,,,,,,6,,,46,127
19520,note_on,1,0,8,,,,,,,,7,,,77,127
19520,note_on,0,0,1,,,,,,,,0,,,89,127
19520,note_on,1,0,3,,,,,,,,2,,,68,127
19520,note_on,0,0,3,,,,,,,,2,,,65,127
19520,note_on,1,0,9,,,,,,,,7,,,77,127
19520,note_on,0,0,6,,,,,,,,5,,,58,127
19520,note_on,1,0,6,,,,,,,,5,,,70,127
19520,note_on,1,0,11,,,,,,,,7,,,62,127
19520,note_on,1,0,4,,,,,,,,3,,,62,127
19539,note_on,19,0,7,,,,,,,,6,,,46,0
19539,note_on,19,0,8,,,,,,,,7,,,77,0
19539,note_on,19,0,9,,,,,,,,7,,,77,0
19539,note_on,19,0,2,,,,,,,,1,,,77,0
19539,note_on,0,0,2,,,,,,,,1,,,70,0
19540,note_on,1,0,7,,,,,,,,6,,,46,127
19540,note_on,1,0,9,,,,,,,,7,,,77,127
19540,note_on,1,0,8,,,,,,,,7,,,77,127
19559,note_on,0,0,5,,,,,,,,4,,,58,0
19559,note_on,0,0,6,,,,,,,,5,,,70,0
19559,note_on,39,0,5,,,,,,,,4,,,65,0
19559,note_on,39,0,11,,,,,,,,7,,,62,0
19559,note_on,39,0,10,,,,,,,,7,,,62,0
19559,note_on,0,0,1,,,,,,,,0,,,82,0
19559,note_on,39,0,4,,,,,,,,3,,,62,0
19559,note_on,0,0,3,,,,,,,,2,,,68,0
19559,note_on,39,0,6,,,,,,,,5,,,58,0
19559,note_on,39,0,3,,,,,,,,2,,,65,0
19559,note_on,39,0,1,,,,,,,,0,,,89,0
19559,note_on,19,0,8,,,,,,,,7,,,77,0
19559,note_on,19,0,7,,,,,,,,6,,,46,0
19559,note_on,19,0,9,,,,,,,,7,,,77,0
19559,note_on,39,0,12,,,,,,,,7,,,50,0
19560,note_on,1,0,6,,,,,,,,5,,,75,127
19560,note_on,1,0,9,,,,,,,,7,,,67,127
19560,note_on,1,0,3,,,,,,,,2,,,67,127
19560,note_on,0,0,5,,,,,,,,4,,,55,127
19560,note_on,1,0,5,,,,,,,,4,,,63,127
19560,note_on,1,0,12,,,,,,,,7,,,51,112
19560,note_on,21,0,2,,,,,,,,1,,,67,126
19560,note_on,0,0,2,,,,,,,,1,,,75,126
19560,note_on,0,0,6,,,,,,,,5,,,63,127
19560,note_on,1,0,10,,,,,,,,7,,,63,127
19560,note_on,0,0,3,,,,,,,,2,,,63,127
19560,note_on,1,0,7,,,,,,,,6,,,51,127
19560,note_on,1,0,11,,,,,,,,7,,,63,127
19560,note_on,1,0,4,,,,,,,,3,,,63,127
19560,note_on,1,0,1,,,,,,,,0,,,87,127
19560,note_on,1,0,8,,,,,,,,7,,,75,127
19560,note_on,0,0,1,,,,,,,,0,,,82,127
19579,note_on,0,0,2,,,,,,,,1,,,67,0
19579,note_on,19,0,2,,,,,,,,1,,,75,0
19599,note_on,39,0,7,,,,,,,,6,,,51,0
19599,note_on,39,0,8,,,,,,,,7,,,75,0
19599,note_on,39,0,10,,,,,,,,7,,,63,0
19599,note_on,0,0,1,,,,,,,,0,,,87,0
19599,note_on,0,0,5,,,,,,,,4,,,63,0
19599,note_on,39,0,6,,,,,,,,5,,,63,0
19599,note_on,39,0,9,,,,,,,,7,,,67,0
19599,note_on,39,0,12,,,,,,,,7,,,51,0
19599,note_on,39,0,4,,,,,,,,3,,,63,0
19599,note_on,0,0,3,,,,,,,,2,,,67,0
19599,note_on,39,0,3,,,,,,,,2,,,63,0
19599,note_on,39,0,5,,,,,,,,4,,,55,0
19599,note_on,0,0,6,,,,,,,,5,,,75,0
19599,note_on,39,0,1,,,,,,,,0,,,82,0
19599,note_on,39,0,11,,,,,,,,7,,,63,0
19680,note_on,81,0,6,,,,,,,,5,,,70,96
19680,note_on,0,0,6,,,,,,,,5,,,58,96
19680,note_on,0,0,9,,,,,,,,7,,,65,97
19680,note_on,0,0,9,,,,,,,,7,,,58,97
19680,note_on,81,0,9,,,,,,,,7,,,74,97
19680,note_on,0,0,5,,,,,,,,4,,,65,97
19680,note_on,81,0,5,,,,,,,,4,,,58,97
19680,note_on,0,0,3,,,,,,,,2,,,65,96
19680,note_on,81,0,3,,,,,,,,2,,,74,127
19680,note_on,81,0,4,,,,,,,,3,,,46,96
19680,note_on,0,0,1,,,,,,,,0,,,86,96
19680,note_on,81,0,1,,,,,,,,0,,,89,96
19680,note_on,81,0,11,,,,,,,,7,,,46,127
19680,note_on,81,0,12,,,,,,,,7,,,34,112
19680,note_on,81,0,10,,,,,,,,7,,,58,95
19680,note_on,0,0,2,,,,,,,,1,,,77,97
19680,note_on,0,0,8,,,,,,,,7,,,77,95
19680,note_on,0,0,8,,,,,,,,7,,,70,95
19680,note_on,81,0,8,,,,,,,,7,,,62,95
19680,note_on,101,0,2,,,,,,,,1,,,74,97
19680,note_on,81,0,7,,,,,,,,6,,,46,97
19699,note_on,19,0,2,,,,,,,,1,,,77,0
19699,note_on,0,0,2,,,,,,,,1,,,74,0
19719,note_on,39,0,3,,,,,,,,2,,,65,0
19719,note_on,39,0,9,,,,,,,,7,,,65,0
19719,note_on,0,0,6,,,,,,,,5,,,70,0
19719,note_on,0,0,9,,,,,,,,7,,,58,0
19719,note_on,39,0,12,,,,,,,,7,,,34,0
19719,note_on,0,0,3,,,,,,,,2,,,74,0
19719,note_on,0,0,9,,,,,,,,7,,,74,0
19719,note_on,0,0,8,,,,,,,,7,,,62,0
19719,note_on,39,0,6,,,,,,,,5,,,58,0
19719,note_on,0,0,1,,,,,,,,0,,,89,0
19719,note_on,0,0,5,,,,,,,,4,,,58,0
19719,note_on,39,0,5,,,,,,,,4,,,65,0
19719,note_on,0,0,8,,,,,,,,7,,,70,0
19719,note_on,39,0,8,,,,,,,,7,,,77,0
19719,note_on,39,0,1,,,,,,,,0,,,86,0
19719,note_on,39,0,11,,,,,,,,7,,,46,0
19719,note_on,39,0,10,,,,,,,,7,,,58,0
19719,note_on,39,0,4,,,,,,,,3,,,46,0
19719,note_on,39,0,7,,,,,,,,6,,,46,0
19760,note_on,41,0,12,,,,,,,,7,,,34,112
19760,note_on,41,0,11,,,,,,,,7,,,46,127
19760,note_on,41,0,10,,,,,,,,7,,,58,95
19799,note_on,39,0,12,,,,,,,,7,,,34,0
19799,note_on,39,0,11,,,,,,,,7,,,46,0
19799,note_on,39,0,10,,,,,,,,7,,,58,0
19800,note_on,0,0,9,,,,,,,,7,,,70,97
19800,note_on,0,0,1,,,,,,,,0,,,89,96
19800,note_on,81,0,1,,,,,,,,0,,,80,96
19800,note_on,1,0,11,,,,,,,,7,,,46,127
19800,note_on,0,0,6,,,,,,,,5,,,70,96
19800,note_on,81,0,8,,,,,,,,7,,,80,95
19800,note_on,0,0,8,,,,,,,,7,,,70,95
19800,note_on,0,0,8,,,,,,,,7,,,62,95
19800,note_on,81,0,9,,,,,,,,7,,,62,97
19800,note_on,81,0,4,,,,,,,,3,,,46,96
19800,note_on,81,0,6,,,,,,,,5,,,58,96
19800,note_on,101,0,2,,,,,,,,1,,,80,97
19800,note_on,0,0,2,,,,,,,,1,,,77,97
19800,note_on,81,0,7,,,,,,,,6,,,46,97
19800,note_on,81,0,3,,,,,,,,2,,,74,127
19800,note_on,0,0,5,,,,,,,,4,,,58,97
19800,note_on,1,0,10,,,,,,,,7,,,58,95
19800,note_on,1,0,12,,,,,,,,7,,,34,112
19800,note_on,0,0,3,,,,,,,,2,,,65,96
19800,note_on,0,0,9,,,,,,,,7,,,77,97
19800,note_on,81,0,5,,,,,,,,4,,,65,97
19819,note_on,19,0,11,,,,,,,,7,,,46,0
19819,note_on,19,0,12,,,,,,,,7,,,34,0
19819,note_on,19,0,2,,,,,,,,1,,,77,0
19819,note_on,0,0,2,,,,,,,,1,,,80,0
19839,note_on,39,0,9,,,,,,,,7,,,77,0
19839,note_on,0,0,9,,,,,,,,7,,,70,0
19839,note_on,0,0,9,,,,,,,,7,,,62,0
19839,note_on,0,0,6,,,,,,,,5,,,58,0
19839,note_on,39,0,6,,,,,,,,5,,,70,0
19839,note_on,39,0,1,,,,,,,,0,,,89,0
19839,note_on,0,0,3,,,,,,,,2,,,74,0
19839,note_on,0,0,5,,,,,,,,4,,,65,0
19839,note_on,39,0,10,,,,,,,,7,,,58,0
19839,note_on,39,0,8,,,,,,,,7,,,62,0
19839,note_on,0,0,8,,,,,,,,7,,,70,0
19839,note_on,0,0,8,,,,,,,,7,,,80,0
19839,note_on,39,0,5,,,,,,,,4,,,58,0
19839,note_on,0,0,1,,,,,,,,0,,,80,0
19839,note_on,39,0,7,,,,,,,,6,,,46,0
19839,note_on,39,0,3,,,,,,,,2,,,65,0
19839,note_on,39,0,4,,,,,,,,3,,,46,0
19840,note_on,21,0,12,,,,,,,,7,,,35,64
19840,note_on,1,0,8,,,,,,,,7,,,59,47
19840,note_on,21,0,11,,,,,,,,7,,,47,48
19859,note_on,19,0,12,,,,,,,,7,,,35,0
19859,note_on,19,0,8,,,,,,,,7,,,59,0
19859,note_on,19,0,11,,,,,,,,7,,,47,0
19880,note_on,21,0,12,,,,,,,,7,,,34,64
19880,note_on,21,0,8,,,,,,,,7,,,58,47
19880,note_on,21,0,11,,,,,,,,7,,,46,48
19899,note_on,19,0,11,,,,,,,,7,,,46,0
19899,note_on,19,0,8,,,,,,,,7,,,58,0
19899,note_on,19,0,12,,,,,,,,7,,,34,0
19920,note_on,21,0,8,,,,,,,,7,,,59,47
19920,note_on,21,0,12,,,,,,,,7,,,35,64
19920,note_on,21,0,11,,,,,,,,7,,,47,49
19939,note_on,19,0,11,,,,,,,,7,,,47,0
19939,note_on,19,0,12,,,,,,,,7,,,35,0
19939,note_on,19,0,8,,,,,,,,7,,,59,0
19960,note_on,21,0,12,,,,,,,,7,,,34,64
19960,note_on,21,0,8,,,,,,,,7,,,58,47
19960,note_on,21,0,11,,,,,,,,7,,,46,49
19979,note_on,19,0,12,,,,,,,,7,,,34,0
19979,note_on,19,0,11,,,,,,,,7,,,46,0
19979,note_on,19,0,8,,,,,,,,7,,,58,0
20000,note_on,21,0,12,,,,,,,,7,,,35,64
20000,note_on,21,0,8,,,,,,,,7,,,59,47
20000,note_on,21,0,11,,,,,,,,7,,,47,49
20019,note_on,19,0,12,,,,,,,,7,,,35,0
20019,note_on,19,0,11,,,,,,,,7,,,47,0
20019,note_on,19,0,8,,,,,,,,7,,,59,0
20040,note_on,21,0,12,,,,,,,,7,,,34,48
20040,note_on,201,0,9,,,,,,,,7,,,63,32
20040,note_on,21,0,11,,,,,,,,7,,,46,32
20040,note_on,21,0,8,,,,,,,,7,,,58,32
20059,note_on,19,0,9,,,,,,,,7,,,63,0
20059,note_on,19,0,11,,,,,,,,7,,,46,0
20059,note_on,19,0,8,,,,,,,,7,,,58,0
20059,note_on,19,0,12,,,,,,,,7,,,34,0
20080,note_on,21,0,12,,,,,,,,7,,,35,48
20080,note_on,21,0,11,,,,,,,,7,,,47,32
20080,note_on,21,0,9,,,,,,,,7,,,68,32
20080,note_on,21,0,8,,,,,,,,7,,,59,32
20099,note_on,19,0,9,,,,,,,,7,,,68,0
20099,note_on,19,0,8,,,,,,,,7,,,59,0
20099,note_on,19,0,12,,,,,,,,7,,,35,0
20099,note_on,19,0,11,,,,,,,,7,,,47,0
20120,note_on,21,0,9,,,,,,,,7,,,63,32
20120,note_on,21,0,11,,,,,,,,7,,,46,32
20120,note_on,21,0,8,,,,,,,,7,,,58,32
20120,note_on,21,0,12,,,,,,,,7,,,34,48
20139,note_on,19,0,11,,,,,,,,7,,,46,0
20139,note_on,19,0,8,,,,,,,,7,,,58,0
20139,note_on,19,0,12,,,,,,,,7,,,34,0
20139,note_on,19,0,9,,,,,,,,7,,,63,0
20160,note_on,21,0,12,,,,,,,,7,,,35,48
20160,note_on,21,0,9,,,,,,,,7,,,68,32
20160,note_on,21,0,11,,,,,,,,7,,,47,32
20160,note_on,21,0,8,,,,,,,,7,,,59,32
20179,note_on,19,0,9,,,,,,,,7,,,68,0
20179,note_on,19,0,11,,,,,,,,7,,,47,0
20179,note_on,19,0,8,,,,,,,,7,,,59,0
20179,note_on,19,0,12,,,,,,,,7,,,35,0
20200,note_on,21,0,12,,,,,,,,7,,,35,48
20200,note_on,21,0,11,,,,,,,,7,,,47,32
20200,note_on,21,0,9,,,,,,,,7,,,68,32
20200,note_on,21,0,8,,,,,,,,7,,,59,32
20219,note_on,19,0,9,,,,,,,,7,,,68,0
20219,note_on,19,0,8,,,,,,,,7,,,59,0
20219,note_on,19,0,12,,,,,,,,7,,,35,0
20219,note_on,19,0,11,,,,,,,,7,,,47,0
20240,note_on,21,0,11,,,,,,,,7,,,48,32
20240,note_on,21,0,9,,,,,,,,7,,,68,32
20240,note_on,401,0,10,,,,,,,,7,,,63,33
20240,note_on,21,0,12,,,,,,,,7,,,36,48
20240,note_on,21,0,8,,,,,,,,7,,,60,32
20259,note_on,19,0,12,,,,,,,,7,,,36,0
20259,note_on,19,0,9,,,,,,,,7,,,68,0
20259,note_on,19,0,8,,,,,,,,7,,,60,0
20259,note_on,19,0,11,,,,,,,,7,,,48,0
20259,note_on,19,0,10,,,,,,,,7,,,63,0
20280,note_on,21,0,12,,,,,,,,7,,,36,48
20280,note_on,21,0,9,,,,,,,,7,,,68,32
20280,note_on,21,0,11,,,,,,,,7,,,48,32
20280,note_on,21,0,10,,,,,,,,7,,,63,33
20280,note_on,21,0,8,,,,,,,,7,,,60,32
20299,note_on,19,0,11,,,,,,,,7,,,48,0
20299,note_on,19,0,12,,,,,,,,7,,,36,0
20299,note_on,19,0,9,,,,,,,,7,,,68,0
20299,note_on,19,0,10,,,,,,,,7,,,63,0
20299,note_on,19,0,8,,,,,,,,7,,,60,0
20320,note_on,21,0,9,,,,,,,,7,,,65,32
20320,note_on,21,0,8,,,,,,,,7,,,61,32
20320,note_on,21,0,10,,,,,,,,7,,,68,33
20320,note_on,21,0,12,,,,,,,,7,,,37,48
20320,note_on,21,0,11,,,,,,,,7,,,49,32
20339,note_on,19,0,10,,,,,,,,7,,,68,0
20339,note_on,19,0,9,,,,,,,,7,,,65,0
20339,note_on,19,0,11,,,,,,,,7,,,49,0
20339,note_on,19,0,8,,,,,,,,7,,,61,0
20339,note_on,19,0,12,,,,,,,,7,,,37,0
20360,note_on,21,0,8,,,,,,,,7,,,60,32
20360,note_on,21,0,12,,,,,,,,7,,,36,48
20360,note_on,21,0,11,,,,,,,,7,,,48,32
20360,note_on,21,0,10,,,,,,,,7,,,63,33
20360,note_on,21,0,9,,,,,,,,7,,,68,32
20379,note_on,19,0,11,,,,,,,,7,,,48,0
20379,note_on,19,0,12,,,,,,,,7,,,36,0
20379,note_on,19,0,10,,,,,,,,7,,,63,0
20379,note_on,19,0,8,,,,,,,,7,,,60,0
20379,note_on,19,0,9,,,,,,,,7,,,68,0
20400,note_on,21,0,12,,,,,,,,7,,,37,48
20400,note_on,21,0,11,,,,,,,,7,,,49,32
20400,note_on,21,0,10,,,,,,,,7,,,68,33
20400,note_on,21,0,9,,,,,,,,7,,,65,32
20400,note_on,21,0,8,,,,,,,,7,,,61,32
20419,note_on,19,0,11,,,,,,,,7,,,49,0
20419,note_on,19,0,9,,,,,,,,7,,,65,0
20419,note_on,19,0,8,,,,,,,,7,,,61,0
20419,note_on,19,0,10,,,,,,,,7,,,68,0
20419,note_on,19,0,12,,,,,,,,7,,,37,0
20440,note_on,21,0,9,,,,,,,,7,,,68,32
20440,note_on,21,0,8,,,,,,,,7,,,60,32
20440,note_on,21,0,11,,,,,,,,7,,,48,32
20440,note_on,21,0,10,,,,,,,,7,,,63,33
20440,note_on,21,0,12,,,,,,,,7,,,36,48
20459,note_on,19,0,11,,,,,,,,7,,,48,0
20459,note_on,19,0,8,,,,,,,,7,,,60,0
20459,note_on,19,0,12,,,,,,,,7,,,36,0
20459,note_on,19,0,10,,,,,,,,7,,,63,0
20459,note_on,19,0,9,,,,,,,,7,,,68,0
20480,note_on,21,0,11,,,,,,,,7,,,49,32
20480,note_on,21,0,8,,,,,,,,7,,,61,32
20480,note_on,21,0,12,,,,,,,,7,,,37,48
20480,note_on,21,0,9,,,,,,,,7,,,65,32
20480,note_on,21,0,10,,,,,,,,7,,,68,33
20499,note_on,19,0,11,,,,,,,,7,,,49,0
20499,note_on,19,0,8,,,,,,,,7,,,61,0
20499,note_on,19,0,12,,,,,,,,7,,,37,0
20499,note_on,19,0,9,,,,,,,,7,,,65,0
20499,note_on,19,0,10,,,,,,,,7,,,68,0
20520,note_on,21,0,9,,,,,,,,7,,,68,32
20520,note_on,21,0,10,,,,,,,,7,,,63,33
20520,note_on,21,0,12,,,,,,,,7,,,36,48
20520,note_on,21,0,8,,,,,,,,7,,,60,32
20520,note_on,21,0,11,,,,,,,,7,,,48,32
20539,note_on,19,0,8,,,,,,,,7,,,60,0
20539,note_on,19,0,11,,,,,,,,7,,,48,0
20539,note_on,19,0,10,,,,,,,,7,,,63,0
20539,note_on,19,0,9,,,,,,,,7,,,68,0
20539,note_on,19,0,12,,,,,,,,7,,,36,0
20560,note_on,21,0,9,,,,,,,,7,,,65,32
20560,note_on,21,0,12,,,,,,,,7,,,37,48
20560,note_on,21,0,11,,,,,,,,7,,,49,32
20560,note_on,21,0,8,,,,,,,,7,,,61,32
20560,note_on,21,0,10,,,,,,,,7,,,68,33
20579,note_on,19,0,9,,,,,,,,7,,,65,0
20579,note_on,19,0,12,,,,,,,,7,,,37,0
20579,note_on,19,0,11,,,,,,,,7,,,49,0
20579,note_on,19,0,8,,,,,,,,7,,,61,0
20579,note_on,19,0,10,,,,,,,,7,,,68,0
20600,note_on,21,0,10,,,,,,,,7,,,63,33
20600,note_on,21,0,12,,,,,,,,7,,,36,48
20600,note_on,21,0,11,,,,,,,,7,,,48,32
20600,note_on,21,0,9,,,,,,,,7,,,68,32
20600,note_on,21,0,8,,,,,,,,7,,,60,32
20619,note_on,19,0,9,,,,,,,,7,,,68,0
20619,note_on,19,0,11,,,,,,,,7,,,48,0
20619,note_on,19,0,8,,,,,,,,7,,,60,0
20619,note_on,19,0,10,,,,,,,,7,,,63,0
20619,note_on,19,0,12,,,,,,,,7,,,36,0
20640,note_on,21,0,10,,,,,,,,7,,,68,33
20640,note_on,21,0,8,,,,,,,,7,,,61,32
20640,note_on,21,0,11,,,,,,,,7,,,49,32
20640,note_on,21,0,9,,,,,,,,7,,,65,32
20640,note_on,21,0,12,,,,,,,,7,,,37,48
20659,note_on,19,0,10,,,,,,,,7,,,68,0
20659,note_on,19,0,8,,,,,,,,7,,,61,0
20659,note_on,19,0,11,,,,,,,,7,,,49,0
20659,note_on,19,0,9,,,,,,,,7,,,65,0
20659,note_on,19,0,12,,,,,,,,7,,,37,0
20680,note_on,21,0,10,,,,,,,,7,,,65,33
20680,note_on,21,0,11,,,,,,,,7,,,49,32
20680,note_on,21,0,12,,,,,,,,7,,,37,48
20680,note_on,21,0,9,,,,,,,,7,,,68,32
20680,note_on,21,0,8,,,,,,,,7,,,61,32
20699,note_on,19,0,10,,,,,,,,7,,,65,0
20699,note_on,19,0,8,,,,,,,,7,,,61,0
20699,note_on,19,0,12,,,,,,,,7,,,37,0
20699,note_on,19,0,9,,,,,,,,7,,,68,0
20699,note_on,19,0,11,,,,,,,,7,,,49,0
20720,note_on,21,0,8,,,,,,,,7,,,60,32
20720,note_on,21,0,11,,,,,,,,7,,,48,32
20720,note_on,21,0,9,,,,,,,,7,,,68,32
20720,note_on,21,0,10,,,,,,,,7,,,66,33
20720,note_on,21,0,12,,,,,,,,7,,,36,48
20739,note_on,19,0,9,,,,,,,,7,,,68,0
20739,note_on,19,0,12,,,,,,,,7,,,36,0
20739,note_on,19,0,11,,,,,,,,7,,,48,0
20739,note_on,19,0,10,,,,,,,,7,,,66,0
20739,note_on,19,0,8,,,,,,,,7,,,60,0
20760,note_on,21,0,9,,,,,,,,7,,,68,32
20760,note_on,21,0,8,,,,,,,,7,,,60,32
20760,note_on,21,0,11,,,,,,,,7,,,48,32
20760,note_on,21,0,10,,,,,,,,7,,,66,33
20760,note_on,21,0,12,,,,,,,,7,,,36,48
20779,note_on,19,0,10,,,,,,,,7,,,66,0
20779,note_on,19,0,11,,,,,,,,7,,,48,0
20779,note_on,19,0,8,,,,,,,,7,,,60,0
20779,note_on,19,0,9,,,,,,,,7,,,68,0
20779,note_on,19,0,12,,,,,,,,7,,,36,0
20800,note_on,21,0,11,,,,,,,,7,,,49,32
20800,note_on,21,0,10,,,,,,,,7,,,65,33
20800,note_on,21,0,9,,,,,,,,7,,,68,32
20800,note_on,21,0,12,,,,,,,,7,,,37,48
20800,note_on,21,0,8,,,,,,,,7,,,61,32
20819,note_on,19,0,10,,,,,,,,7,,,65,0
20819,note_on,19,0,12,,,,,,,,7,,,37,0
20819,note_on,19,0,11,,,,,,,,7,,,49,0
20819,note_on,19,0,8,,,,,,,,7,,,61,0
20819,note_on,19,0,9,,,,,,,,7,,,68,0
20840,note_on,21,0,8,,,,,,,,7,,,61,32
20840,note_on,21,0,9,,,,,,,,7,,,70,32
20840,note_on,21,0,10,,,,,,,,7,,,68,33
20840,note_on,21,0,11,,,,,,,,7,,,49,32
20840,note_on,21,0,12,,,,,,,,7,,,37,48
20859,note_on,19,0,11,,,,,,,,7,,,49,0
20859,note_on,19,0,8,,,,,,,,7,,,61,0
20859,note_on,19,0,10,,,,,,,,7,,,68,0
20859,note_on,19,0,12,,,,,,,,7,,,37,0
20859,note_on,19,0,9,,,,,,,,7,,,70,0
20880,note_on,21,0,11,,,,,,,,7,,,49,32
20880,note_on,0,0,10,,,,,,,,7,,,68,33
20880,note_on,21,0,10,,,,,,,,7,,,68,33
20880,note_on,21,0,12,,,,,,,,7,,,37,48
20880,note_on,21,0,9,,,,,,,,7,,,70,32
20880,note_on,21,0,8,,,,,,,,7,,,61,32
20899,note_on,19,0,11,,,,,,,,7,,,49,0
20899,note_on,19,0,10,,,,,,,,7,,,68,0
20899,note_on,19,0,12,,,,,,,,7,,,37,0
20899,note_on,19,0,9,,,,,,,,7,,,70,0
20899,note_on,19,0,8,,,,,,,,7,,,61,0
20899,note_on,0,0,10,,,,,,,,7,,,68,0
20920,note_on,21,0,9,,,,,,,,7,,,70,32
20920,note_on,21,0,11,,,,,,,,7,,,50,32
20920,note_on,21,0,12,,,,,,,,7,,,38,48
20920,note_on,21,0,8,,,,,,,,7,,,62,32
20920,note_on,21,0,10,,,,,,,,7,,,65,33
20939,note_on,19,0,10,,,,,,,,7,,,65,0
20939,note_on,19,0,8,,,,,,,,7,,,62,0
20939,note_on,19,0,11,,,,,,,,7,,,50,0
20939,note_on,19,0,12,,,,,,,,7,,,38,0
20939,note_on,19,0,9,,,,,,,,7,,,70,0
20960,note_on,21,0,11,,,,,,,,7,,,50,32
20960,note_on,21,0,8,,,,,,,,7,,,62,32
20960,note_on,21,0,9,,,,,,,,7,,,70,32
20960,note_on,21,0,12,,,,,,,,7,,,38,48
20960,note_on,21,0,10,,,,,,,,7,,,68,33
20979,note_on,19,0,12,,,,,,,,7,,,38,0
20979,note_on,19,0,8,,,,,,,,7,,,62,0
20979,note_on,19,0,10,,,,,,,,7,,,68,0
20979,note_on,19,0,11,,,,,,,,7,,,50,0
20979,note_on,19,0,9,,,,,,,,7,,,70,0
21000,note_on,21,0,10,,,,,,,,7,,,68,33
21000,note_on,21,0,9,,,,,,,,7,,,70,32
21000,note_on,21,0,12,,,,,,,,7,,,38,48
21000,note_on,21,0,11,,,,,,,,7,,,50,32
21000,note_on,21,0,8,,,,,,,,7,,,62,32
21019,note_on,19,0,12,,,,,,,,7,,,38,0
21019,note_on,19,0,11,,,,,,,,7,,,50,0
21019,note_on,19,0,10,,,,,,,,7,,,68,0
21019,note_on,19,0,8,,,,,,,,7,,,62,0
21019,note_on,19,0,9,,,,,,,,7,,,70,0
21040,note_on,21,0,11,,,,,,,,7,,,51,32
21040,note_on,21,0,12,,,,,,,,7,,,39,48
21040,note_on,21,0,10,,,,,,,,7,,,67,33
21040,note_on,21,0,9,,,,,,,,7,,,70,32
21040,note_on,21,0,8,,,,,,,,7,,,63,32
21059,note_on,19,0,11,,,,,,,,7,,,51,0
21059,note_on,19,0,12,,,,,,,,7,,,39,0
21059,note_on,19,0,9,,,,,,,,7,,,70,0
21059,note_on,19,0,10,,,,,,,,7,,,67,0
21059,note_on,19,0,8,,,,,,,,7,,,63,0
21080,note_on,21,0,9,,,,,,,,7,,,72,32
21080,note_on,21,0,11,,,,,,,,7,,,51,32
21080,note_on,21,0,10,,,,,,,,7,,,70,33
21080,note_on,21,0,8,,,,,,,,7,,,63,32
21080,note_on,21,0,12,,,,,,,,7,,,39,48
21099,note_on,19,0,12,,,,,,,,7,,,39,0
21099,note_on,19,0,9,,,,,,,,7,,,72,0
21099,note_on,19,0,11,,,,,,,,7,,,51,0
21099,note_on,19,0,8,,,,,,,,7,,,63,0
21099,note_on,19,0,10,,,,,,,,7,,,70,0
21120,note_on,21,0,10,,,,,,,,7,,,70,33
21120,note_on,21,0,9,,,,,,,,7,,,72,32
21120,note_on,21,0,12,,,,,,,,7,,,39,48
21120,note_on,21,0,11,,,,,,,,7,,,51,32
21120,note_on,21,0,8,,,,,,,,7,,,63,32
21139,note_on,19,0,12,,,,,,,,7,,,39,0
21139,note_on,19,0,11,,,,,,,,7,,,51,0
21139,note_on,19,0,9,,,,,,,,7,,,72,0
21139,note_on,19,0,10,,,,,,,,7,,,70,0
21139,note_on,19,0,8,,,,,,,,7,,,63,0
21160,note_on,21,0,8,,,,,,,,7,,,64,32
21160,note_on,21,0,9,,,,,,,,7,,,72,32
21160,note_on,21,0,11,,,,,,,,7,,,52,32
21160,note_on,21,0,10,,,,,,,,7,,,67,33
21160,note_on,21,0,12,,,,,,,,7,,,40,48
21179,note_on,19,0,11,,,,,,,,7,,,52,0
21179,note_on,19,0,9,,,,,,,,7,,,72,0
21179,note_on,19,0,10,,,,,,,,7,,,67,0
21179,note_on,19,0,12,,,,,,,,7,,,40,0
21179,note_on,19,0,8,,,,,,,,7,,,64,0
21200,note_on,21,0,12,,,,,,,,7,,,40,48
21200,note_on,21,0,11,,,,,,,,7,,,52,32
21200,note_on,21,0,8,,,,,,,,7,,,64,32
21200,note_on,21,0,10,,,,,,,,7,,,70,33
21200,note_on,21,0,9,,,,,,,,7,,,72,32
21200,note_on,1361,0,1,,,,,,,,0,,,84,48
21219,note_on,19,0,8,,,,,,,,7,,,64,0
21219,note_on,19,0,9,,,,,,,,7,,,72,0
21219,note_on,19,0,12,,,,,,,,7,,,40,0
21219,note_on,19,0,10,,,,,,,,7,,,70,0
21219,note_on,19,0,11,,,,,,,,7,,,52,0
21219,note_on,19,0,1,,,,,,,,0,,,84,0
21240,note_on,21,0,1,,,,,,,,0,,,89,48
21240,note_on,21,0,11,,,,,,,,7,,,53,32
21240,note_on,21,0,9,,,,,,,,7,,,72,32
21240,note_on,21,0,8,,,,,,,,7,,,65,32
21240,note_on,21,0,12,,,,,,,,7,,,41,48
21240,note_on,21,0,10,,,,,,,,7,,,69,33
21259,note_on,19,0,1,,,,,,,,0,,,89,0
21259,note_on,19,0,9,,,,,,,,7,,,72,0
21259,note_on,19,0,11,,,,,,,,7,,,53,0
21259,note_on,19,0,8,,,,,,,,7,,,65,0
21259,note_on,19,0,12,,,,,,,,7,,,41,0
21259,note_on,19,0,10,,,,,,,,7,,,69,0
21280,note_on,21,0,10,,,,,,,,7,,,57,33
21280,note_on,21,0,8,,,,,,,,7,,,77,32
21280,note_on,21,0,9,,,,,,,,7,,,72,32
21280,note_on,21,0,1,,,,,,,,0,,,89,48
21299,note_on,19,0,8,,,,,,,,7,,,77,0
21299,note_on,19,0,9,,,,,,,,7,,,72,0
21299,note_on,19,0,10,,,,,,,,7,,,57,0
21299,note_on,19,0,1,,,,,,,,0,,,89,0
21320,note_on,21,0,8,,,,,,,,7,,,77,32
21320,note_on,21,0,1,,,,,,,,0,,,89,48
21320,note_on,21,0,9,,,,,,,,7,,,70,32
21320,note_on,21,0,10,,,,,,,,7,,,55,33
21339,note_on,19,0,8,,,,,,,,7,,,77,0
21339,note_on,19,0,1,,,,,,,,0,,,89,0
21339,note_on,19,0,10,,,,,,,,7,,,55,0
21339,note_on,19,0,9,,,,,,,,7,,,70,0
21360,note_on,101,0,11,,,,,,,,7,,,53,32
21360,note_on,101,0,12,,,,,,,,7,,,41,48
21360,note_on,21,0,8,,,,,,,,7,,,77,32
21360,note_on,21,0,1,,,,,,,,0,,,89,48
21360,note_on,21,0,9,,,,,,,,7,,,69,32
21360,note_on,21,0,10,,,,,,,,7,,,53,33
21379,note_on,19,0,11,,,,,,,,7,,,53,0
21379,note_on,19,0,8,,,,,,,,7,,,77,0
21379,note_on,19,0,12,,,,,,,,7,,,41,0
21379,note_on,19,0,9,,,,,,,,7,,,69,0
21379,note_on,19,0,1,,,,,,,,0,,,89,0
21379,note_on,19,0,10,,,,,,,,7,,,53,0
21400,note_on,21,0,10,,,,,,,,7,,,57,33
21400,note_on,21,0,9,,,,,,,,7,,,72,32
21400,note_on,21,0,8,,,,,,,,7,,,77,32
21400,note_on,21,0,1,,,,,,,,0,,,89,48
21419,note_on,19,0,10,,,,,,,,7,,,57,0
21419,note_on,19,0,9,,,,,,,,7,,,72,0
21419,note_on,19,0,1,,,,,,,,0,,,89,0
21419,note_on,19,0,8,,,,,,,,7,,,77,0
21440,note_on,21,0,9,,,,,,,,7,,,70,32
21440,note_on,21,0,10,,,,,,,,7,,,55,33
21440,note_on,21,0,1,,,,,,,,0,,,89,48
21440,note_on,21,0,8,,,,,,,,7,,,77,32
21459,note_on,19,0,8,,,,,,,,7,,,77,0
21459,note_on,19,0,1,,,,,,,,0,,,89,0
21459,note_on,19,0,10,,,,,,,,7,,,55,0
21459,note_on,19,0,9,,,,,,,,7,,,70,0
21480,note_on,21,0,10,,,,,,,,7,,,53,33
21480,note_on,101,0,11,,,,,,,,7,,,53,32
21480,note_on,21,0,8,,,,,,,,7,,,77,32
21480,note_on,21,0,9,,,,,,,,7,,,69,32
21480,note_on,101,0,12,,,,,,,,7,,,41,48
21480,note_on,21,0,1,,,,,,,,0,,,89,48
21499,note_on,19,0,9,,,,,,,,7,,,69,0
21499,note_on,19,0,10,,,,,,,,7,,,53,0
21499,note_on,19,0,12,,,,,,,,7,,,41,0
21499,note_on,19,0,11,,,,,,,,7,,,53,0
21520,note_on,40,0,1,,,,,,,,0,,,91,48
21520,note_on,21,0,10,,,,,,,,7,,,53,33
21520,note_on,21,0,9,,,,,,,,7,,,69,32
21520,note_on,40,0,8,,,,,,,,7,,,79,32
21522,note_on,2,0,1,,,,,,,,0,,,89,0
21522,note_on,2,0,8,,,,,,,,7,,,77,0
21539,note_on,19,0,9,,,,,,,,7,,,69,0
21539,note_on,19,0,10,,,,,,,,7,,,53,0
21540,note_on,18,0,1,,,,,,,,0,,,89,48
21540,note_on,18,0,8,,,,,,,,7,,,77,32
21542,note_on,2,0,1,,,,,,,,0,,,91,0
21542,note_on,2,0,8,,,,,,,,7,,,79,0
21560,note_on,21,0,10,,,,,,,,7,,,55,33
21560,note_on,21,0,9,,,,,,,,7,,,70,32
21560,note_on,18,0,1,,,,,,,,0,,,88,48
21560,note_on,18,0,8,,,,,,,,7,,,76,32
21562,note_on,2,0,8,,,,,,,,7,,,77,0
21562,note_on,2,0,1,,,,,,,,0,,,89,0
21579,note_on,19,0,10,,,,,,,,7,,,55,0
21579,note_on,19,0,9,,,,,,,,7,,,70,0
21580,note_on,18,0,8,,,,,,,,7,,,74,32
21580,note_on,18,0,1,,,,,,,,0,,,86,48
21582,note_on,2,0,8,,,,,,,,7,,,76,0
21582,note_on,2,0,1,,,,,,,,0,,,88,0
21599,note_on,17,0,8,,,,,,,,7,,,74,0
21600,note_on,18,0,1,,,,,,,,0,,,84,48
21600,note_on,101,0,11,,,,,,,,7,,,53,32
21600,note_on,21,0,10,,,,,,,,7,,,57,33
21600,note_on,21,0,9,,,,,,,,7,,,72,32
21600,note_on,101,0,12,,,,,,,,7,,,41,48
21602,note_on,2,0,1,,,,,,,,0,,,86,0
21619,note_on,19,0,9,,,,,,,,7,,,72,0
21619,note_on,19,0,10,,,,,,,,7,,,57,0
21619,note_on,19,0,11,,,,,,,,7,,,53,0
21619,note_on,19,0,12,,,,,,,,7,,,41,0
21620,note_on,21,0,8,,,,,,,,7,,,72,32
21640,note_on,21,0,10,,,,,,,,7,,,52,33
21640,note_on,21,0,9,,,,,,,,7,,,67,32
21659,note_on,19,0,9,,,,,,,,7,,,67,0
21659,note_on,19,0,10,,,,,,,,7,,,52,0
21680,note_on,21,0,10,,,,,,,,7,,,53,33
21680,note_on,21,0,9,,,,,,,,7,,,69,32
21699,note_on,19,0,9,,,,,,,,7,,,69,0
21699,note_on,19,0,10,,,,,,,,7,,,53,0
21719,note_on,99,0,8,,,,,,,,7,,,72,0
21719,note_on,117,0,1,,,,,,,,0,,,84,0
21720,note_on,101,0,12,,,,,,,,7,,,36,48
21720,note_on,1,0,1,,,,,,,,0,,,82,48
21720,note_on,21,0,9,,,,,,,,7,,,70,32
21720,note_on,21,0,10,,,,,,,,7,,,55,33
21720,note_on,101,0,11,,,,,,,,7,,,48,32
21739,note_on,19,0,9,,,,,,,,7,,,70,0
21739,note_on,19,0,12,,,,,,,,7,,,36,0
21739,note_on,19,0,10,,,,,,,,7,,,55,0
21739,note_on,19,0,11,,,,,,,,7,,,48,0
21740,note_on,21,0,8,,,,,,,,7,,,70,32
21760,note_on,21,0,9,,,,,,,,7,,,65,32
21760,note_on,21,0,10,,,,,,,,7,,,50,33
21779,note_on,19,0,9,,,,,,,,7,,,65,0
21779,note_on,19,0,10,,,,,,,,7,,,50,0
21800,note_on,21,0,9,,,,,,,,7,,,67,32
21800,note_on,21,0,10,,,,,,,,7,,,52,33
21819,note_on,19,0,9,,,,,,,,7,,,67,0
21819,note_on,19,0,10,,,,,,,,7,,,52,0
21839,note_on,99,0,8,,,,,,,,7,,,70,0
21839,note_on,119,0,1,,,,,,,,0,,,82,0
21840,note_on,101,0,12,,,,,,,,7,,,41,48
21840,note_on,21,0,10,,,,,,,,7,,,53,33
21840,note_on,21,0,9,,,,,,,,7,,,69,32
21840,note_on,101,0,11,,,,,,,,7,,,53,32
21840,note_on,1,0,1,,,,,,,,0,,,81,48
21840,note_on,1,0,8,,,,,,,,7,,,69,32
21859,note_on,19,0,12,,,,,,,,7,,,41,0
21859,note_on,19,0,11,,,,,,,,7,,,53,0
21880,note_on,40,0,9,,,,,,,,7,,,60,32
21880,note_on,40,0,1,,,,,,,,0,,,84,48
21880,note_on,40,0,8,,,,,,,,7,,,72,32
21880,note_on,40,0,10,,,,,,,,7,,,57,33
21882,note_on,2,0,9,,,,,,,,7,,,69,0
21882,note_on,2,0,1,,,,,,,,0,,,81,0
21882,note_on,2,0,8,,,,,,,,7,,,69,0
21882,note_on,2,0,10,,,,,,,,7,,,53,0
21919,note_on,37,0,9,,,,,,,,7,,,60,0
21919,note_on,37,0,8,,,,,,,,7,,,72,0
21919,note_on,37,0,10,,,,,,,,7,,,57,0
21919,note_on,37,0,1,,,,,,,,0,,,84,0
21920,note_on,1,0,10,,,,,,,,7,,,60,33
21920,note_on,1,0,9,,,,,,,,7,,,65,32
21920,note_on,1,0,1,,,,,,,,0,,,81,48
21920,note_on,1,0,8,,,,,,,,7,,,69,32
21939,note_on,19,0,9,,,,,,,,7,,,65,0
21939,note_on,19,0,10,,,,,,,,7,,,60,0
21939,note_on,19,0,1,,,,,,,,0,,,81,0
21939,note_on,19,0,8,,,,,,,,7,,,69,0
21960,note_on,21,0,8,,,,,,,,7,,,67,32
21960,note_on,21,0,9,,,,,,,,7,,,64,32
21960,note_on,21,0,10,,,,,,,,7,,,58,33
21960,note_on,101,0,11,,,,,,,,7,,,48,32
21960,note_on,21,0,1,,,,,,,,0,,,79,48
21960,note_on,101,0,12,,,,,,,,7,,,36,48
21979,note_on,19,0,12,,,,,,,,7,,,36,0
21979,note_on,19,0,11,,,,,,,,7,,,48,0
22000,note_on,40,0,9,,,,,,,,7,,,60,32
22000,note_on,40,0,10,,,,,,,,7,,,55,33
22000,note_on,40,0,1,,,,,,,,0,,,82,48
22000,note_on,40,0,8,,,,,,,,7,,,70,32
22002,note_on,2,0,1,,,,,,,,0,,,79,0
22002,note_on,2,0,8,,,,,,,,7,,,67,0
22002,note_on,2,0,9,,,,,,,,7,,,64,0
22002,note_on,2,0,10,,,,,,,,7,,,58,0
22039,note_on,37,0,9,,,,,,,,7,,,60,0
22039,note_on,37,0,1,,,,,,,,0,,,82,0
22039,note_on,37,0,10,,,,,,,,7,,,55,0
22039,note_on,37,0,8,,,,,,,,7,,,70,0
22040,note_on,1,0,8,,,,,,,,7,,,67,32
22040,note_on,1,0,9,,,,,,,,7,,,64,32
22040,note_on,1,0,10,,,,,,,,7,,,58,33
22040,note_on,1,0,1,,,,,,,,0,,,79,48
22059,note_on,19,0,10,,,,,,,,7,,,58,0
22059,note_on,19,0,8,,,,,,,,7,,,67,0
22059,note_on,19,0,1,,,,,,,,0,,,79,0
22059,note_on,19,0,9,,,,,,,,7,,,64,0
22080,note_on,21,0,8,,,,,,,,7,,,65,32
22080,note_on,21,0,1,,,,,,,,0,,,77,48
22080,note_on,101,0,11,,,,,,,,7,,,53,32
22080,note_on,21,0,9,,,,,,,,7,,,57,32
22080,note_on,101,0,12,,,,,,,,7,,,41,48
22080,note_on,21,0,10,,,,,,,,7,,,53,33
22099,note_on,19,0,11,,,,,,,,7,,,53,0
22099,note_on,19,0,10,,,,,,,,7,,,53,0
22099,note_on,19,0,8,,,,,,,,7,,,65,0
22099,note_on,19,0,12,,,,,,,,7,,,41,0
22099,note_on,19,0,1,,,,,,,,0,,,77,0
22099,note_on,19,0,9,,,,,,,,7,,,57,0
22120,note_on,21,0,10,,,,,,,,7,,,57,33
22120,note_on,21,0,8,,,,,,,,7,,,69,32
22139,note_on,19,0,10,,,,,,,,7,,,57,0
22139,note_on,19,0,8,,,,,,,,7,,,69,0
22160,note_on,21,0,10,,,,,,,,7,,,60,33
22160,note_on,21,0,8,,,,,,,,7,,,72,32
22179,note_on,19,0,10,,,,,,,,7,,,60,0
22179,note_on,19,0,8,,,,,,,,7,,,72,0
22200,note_on,21,0,10,,,,,,,,7,,,58,49
22319,note_on,119,0,10,,,,,,,,7,,,58,0
22320,note_on,221,0,9,,,,,,,,7,,,72,48
22320,note_on,1,0,10,,,,,,,,7,,,57,33
22360,note_on,40,0,10,,,,,,,,7,,,60,33
22362,note_on,2,0,10,,,,,,,,7,,,57,0
22399,note_on,37,0,10,,,,,,,,7,,,60,0
22400,note_on,1,0,10,,,,,,,,7,,,57,33
22419,note_on,19,0,10,,,,,,,,7,,,57,0
22439,note_on,119,0,9,,,,,,,,7,,,72,0
22440,note_on,341,0,12,,,,,,,,7,,,36,64
22440,note_on,21,0,10,,,,,,,,7,,,55,33
22440,note_on,341,0,11,,,,,,,,7,,,48,48
22440,note_on,261,0,8,,,,,,,,7,,,84,48
22440,note_on,1,0,9,,,,,,,,7,,,70,32
22480,note_on,40,0,9,,,,,,,,7,,,72,32
22480,note_on,40,0,10,,,,,,,,7,,,58,33
22482,note_on,2,0,10,,,,,,,,7,,,55,0
22482,note_on,2,0,9,,,,,,,,7,,,70,0
22519,note_on,37,0,10,,,,,,,,7,,,58,0
22519,note_on,37,0,9,,,,,,,,7,,,72,0
22520,note_on,1,0,9,,,,,,,,7,,,70,32
22520,note_on,1,0,10,,,,,,,,7,,,55,33
22539,note_on,19,0,9,,,,,,,,7,,,70,0
22539,note_on,19,0,10,,,,,,,,7,,,55,0
22559,note_on,119,0,8,,,,,,,,7,,,84,0
22559,note_on,119,0,11,,,,,,,,7,,,48,0
22559,note_on,119,0,12,,,,,,,,7,,,36,0
22560,note_on,2721,0,4,,,,,,,,3,,,60,48
22560,note_on,1,0,12,,,,,,,,7,,,41,48
22560,note_on,21,0,9,,,,,,,,7,,,69,32
22560,note_on,2741,0,2,,,,,,,,1,,,72,48
22560,note_on,1,0,11,,,,,,,,7,,,53,32
22560,note_on,461,0,1,,,,,,,,0,,,84,48
22560,note_on,1,0,8,,,,,,,,7,,,84,48
22560,note_on,21,0,10,,,,,,,,7,,,53,33
22579,note_on,19,0,11,,,,,,,,7,,,53,0
22579,note_on,19,0,12,,,,,,,,7,,,41,0
22600,note_on,21,0,11,,,,,,,,7,,,57,32
22600,note_on,40,0,10,,,,,,,,7,,,57,33
22600,note_on,40,0,9,,,,,,,,7,,,72,32
22600,note_on,21,0,12,,,,,,,,7,,,45,48
22602,note_on,2,0,10,,,,,,,,7,,,53,0
22602,note_on,2,0,9,,,,,,,,7,,,69,0
22619,note_on,19,0,11,,,,,,,,7,,,57,0
22619,note_on,19,0,12,,,,,,,,7,,,45,0
22639,note_on,37,0,9,,,,,,,,7,,,72,0
22639,note_on,37,0,10,,,,,,,,7,,,57,0
22640,note_on,21,0,11,,,,,,,,7,,,60,32
22640,note_on,21,0,12,,,,,,,,7,,,48,48
22640,note_on,1,0,10,,,,,,,,7,,,53,33
22640,note_on,1,0,9,,,,,,,,7,,,69,32
22659,note_on,19,0,12,,,,,,,,7,,,48,0
22659,note_on,19,0,10,,,,,,,,7,,,53,0
22659,note_on,19,0,11,,,,,,,,7,,,60,0
22659,note_on,19,0,9,,,,,,,,7,,,69,0
22679,note_on,119,0,8,,,,,,,,7,,,84,0
22679,note_on,119,0,1,,,,,,,,0,,,84,0
22679,note_on,119,0,2,,,,,,,,1,,,72,0
22679,note_on,119,0,4,,,,,,,,3,,,60,0
22680,note_on,1,0,2,,,,,,,,1,,,74,32
22680,note_on,21,0,10,,,,,,,,7,,,60,49
22680,note_on,1,0,4,,,,,,,,3,,,62,32
22680,note_on,1,0,1,,,,,,,,0,,,86,33
22699,note_on,19,0,1,,,,,,,,0,,,86,0
22719,note_on,39,0,4,,,,,,,,3,,,62,0
22719,note_on,39,0,2,,,,,,,,1,,,74,0
22799,note_on,119,0,10,,,,,,,,7,,,60,0
22800,note_on,1,0,10,,,,,,,,7,,,58,33
22800,note_on,141,0,9,,,,,,,,7,,,74,48
22840,note_on,40,0,10,,,,,,,,7,,,62,33
22842,note_on,2,0,10,,,,,,,,7,,,58,0
22879,note_on,37,0,10,,,,,,,,7,,,62,0
22880,note_on,1,0,10,,,,,,,,7,,,58,33
22899,note_on,19,0,10,,,,,,,,7,,,58,0
22919,note_on,119,0,9,,,,,,,,7,,,74,0
22920,note_on,261,0,11,,,,,,,,7,,,50,48
22920,note_on,241,0,8,,,,,,,,7,,,86,48
22920,note_on,1,0,9,,,,,,,,7,,,72,32
22920,note_on,261,0,12,,,,,,,,7,,,38,64
22920,note_on,21,0,10,,,,,,,,7,,,57,33
22960,note_on,40,0,9,,,,,,,,7,,,74,32
22960,note_on,40,0,10,,,,,,,,7,,,60,33
22962,note_on,2,0,9,,,,,,,,7,,,72,0
22962,note_on,2,0,10,,,,,,,,7,,,57,0
22999,note_on,37,0,10,,,,,,,,7,,,60,0
22999,note_on,37,0,9,,,,,,,,7,,,74,0
23000,note_on,1,0,9,,,,,,,,7,,,72,32
23000,note_on,1,0,10,,,,,,,,7,,,57,33
23019,note_on,19,0,10,,,,,,,,7,,,57,0
23019,note_on,19,0,9,,,,,,,,7,,,72,0
23039,note_on,119,0,12,,,,,,,,7,,,38,0
23039,note_on,119,0,11,,,,,,,,7,,,50,0
23039,note_on,119,0,8,,,,,,,,7,,,86,0
23040,note_on,1,0,12,,,,,,,,7,,,43,48
23040,note_on,21,0,9,,,,,,,,7,,,70,32
23040,note_on,1,0,8,,,,,,,,7,,,86,48
23040,note_on,341,0,1,,,,,,,,0,,,86,48
23040,note_on,21,0,10,,,,,,,,7,,,55,33
23040,note_on,321,0,2,,,,,,,,1,,,74,48
23040,note_on,1,0,11,,,,,,,,7,,,55,32
23040,note_on,321,0,4,,,,,,,,3,,,62,48
23080,note_on,40,0,12,,,,,,,,7,,,47,48
23080,note_on,40,0,9,,,,,,,,7,,,74,32
23080,note_on,40,0,11,,,,,,,,7,,,58,32
23080,note_on,40,0,10,,,,,,,,7,,,58,33
23082,note_on,2,0,11,,,,,,,,7,,,55,0
23082,note_on,2,0,10,,,,,,,,7,,,55,0
23082,note_on,2,0,9,,,,,,,,7,,,70,0
23082,note_on,2,0,12,,,,,,,,7,,,43,0
23099,note_on,17,0,12,,,,,,,,7,,,47,0
23119,note_on,37,0,10,,,,,,,,7,,,58,0
23119,note_on,37,0,9,,,,,,,,7,,,74,0
23119,note_on,37,0,11,,,,,,,,7,,,58,0
23120,note_on,1,0,10,,,,,,,,7,,,58,33
23120,note_on,21,0,12,,,,,,,,7,,,43,48
23120,note_on,1,0,9,,,,,,,,7,,,70,32
23120,note_on,1,0,11,,,,,,,,7,,,55,32
23139,note_on,19,0,9,,,,,,,,7,,,70,0
23139,note_on,19,0,12,,,,,,,,7,,,43,0
23139,note_on,19,0,10,,,,,,,,7,,,58,0
23139,note_on,19,0,11,,,,,,,,7,,,55,0
23159,note_on,119,0,4,,,,,,,,3,,,62,0
23159,note_on,119,0,2,,,,,,,,1,,,74,0
23159,note_on,119,0,1,,,,,,,,0,,,86,0
23159,note_on,119,0,8,,,,,,,,7,,,86,0
23160,note_on,21,0,10,,,,,,,,7,,,57,33
23160,note_on,1,0,1,,,,,,,,0,,,86,33
23160,note_on,1,0,2,,,,,,,,1,,,74,32
23160,note_on,1,0,8,,,,,,,,7,,,86,32
23160,note_on,21,0,9,,,,,,,,7,,,69,32
23160,note_on,1,0,4,,,,,,,,3,,,62,32
23160,note_on,21,0,11,,,,,,,,7,,,54,32
23160,note_on,21,0,12,,,,,,,,7,,,42,48
23179,note_on,19,0,11,,,,,,,,7,,,54,0
23179,note_on,19,0,9,,,,,,,,7,,,69,0
23179,note_on,19,0,4,,,,,,,,3,,,62,0
23179,note_on,19,0,10,,,,,,,,7,,,57,0
23179,note_on,19,0,12,,,,,,,,7,,,42,0
23179,note_on,19,0,8,,,,,,,,7,,,86,0
23179,note_on,19,0,1,,,,,,,,0,,,86,0
23199,note_on,39,0,2,,,,,,,,1,,,74,0
23200,note_on,21,0,4,,,,,,,,3,,,50,32
23200,note_on,21,0,11,,,,,,,,7,,,50,32
23200,note_on,21,0,8,,,,,,,,7,,,81,32
23200,note_on,21,0,12,,,,,,,,7,,,38,48
23200,note_on,21,0,9,,,,,,,,7,,,69,32
23200,note_on,21,0,10,,,,,,,,7,,,54,33
23219,note_on,19,0,9,,,,,,,,7,,,69,0
23219,note_on,19,0,10,,,,,,,,7,,,54,0
23219,note_on,19,0,4,,,,,,,,3,,,50,0
23219,note_on,19,0,12,,,,,,,,7,,,38,0
23219,note_on,19,0,8,,,,,,,,7,,,81,0
23219,note_on,19,0,11,,,,,,,,7,,,50,0
23240,note_on,0,0,2,,,,,,,,1,,,74,32
23240,note_on,21,0,10,,,,,,,,7,,,62,33
23240,note_on,61,0,1,,,,,,,,0,,,86,33
23240,note_on,21,0,8,,,,,,,,7,,,78,32
23240,note_on,41,0,2,,,,,,,,1,,,78,32
23240,note_on,21,0,4,,,,,,,,3,,,60,32
23240,note_on,21,0,12,,,,,,,,7,,,48,48
23240,note_on,21,0,9,,,,,,,,7,,,66,32
23240,note_on,21,0,11,,,,,,,,7,,,60,32
23259,note_on,0,0,2,,,,,,,,1,,,78,0
23259,note_on,19,0,2,,,,,,,,1,,,74,0
23259,note_on,19,0,9,,,,,,,,7,,,66,0
23259,note_on,19,0,8,,,,,,,,7,,,78,0
23259,note_on,19,0,11,,,,,,,,7,,,60,0
23259,note_on,19,0,10,,,,,,,,7,,,62,0
23259,note_on,19,0,1,,,,,,,,0,,,86,0
23259,note_on,19,0,4,,,,,,,,3,,,60,0
23259,note_on,19,0,12,,,,,,,,7,,,48,0
23280,note_on,21,0,10,,,,,,,,7,,,62,33
23280,note_on,21,0,12,,,,,,,,7,,,46,48
23280,note_on,0,0,2,,,,,,,,1,,,74,32
23280,note_on,21,0,1,,,,,,,,0,,,86,33
23280,note_on,21,0,9,,,,,,,,7,,,67,32
23280,note_on,21,0,8,,,,,,,,7,,,79,32
23280,note_on,21,0,2,,,,,,,,1,,,79,32
23280,note_on,21,0,4,,,,,,,,3,,,58,32
23280,note_on,21,0,11,,,,,,,,7,,,58,32
23299,note_on,19,0,1,,,,,,,,0,,,86,0
23299,note_on,19,0,11,,,,,,,,7,,,58,0
23299,note_on,19,0,9,,,,,,,,7,,,67,0
23299,note_on,19,0,4,,,,,,,,3,,,58,0
23299,note_on,19,0,8,,,,,,,,7,,,79,0
23299,note_on,19,0,2,,,,,,,,1,,,74,0
23299,note_on,0,0,2,,,,,,,,1,,,79,0
23299,note_on,19,0,12,,,,,,,,7,,,46,0
23299,note_on,19,0,10,,,,,,,,7,,,62,0
23320,note_on,21,0,1,,,,,,,,0,,,86,33
23320,note_on,21,0,11,,,,,,,,7,,,55,32
23320,note_on,21,0,12,,,,,,,,7,,,43,48
23320,note_on,21,0,8,,,,,,,,7,,,82,32
23320,note_on,21,0,10,,,,,,,,7,,,58,33
23320,note_on,21,0,2,,,,,,,,1,,,74,32
23320,note_on,21,0,9,,,,,,,,7,,,70,32
23320,note_on,21,0,4,,,,,,,,3,,,55,32
23320,note_on,0,0,2,,,,,,,,1,,,82,32
23339,note_on,19,0,4,,,,,,,,3,,,55,0
23339,note_on,19,0,8,,,,,,,,7,,,82,0
23339,note_on,19,0,1,,,,,,,,0,,,86,0
23339,note_on,19,0,12,,,,,,,,7,,,43,0
23339,note_on,19,0,11,,,,,,,,7,,,55,0
23339,note_on,19,0,9,,,,,,,,7,,,70,0
23339,note_on,19,0,10,,,,,,,,7,,,58,0
23339,note_on,19,0,2,,,,,,,,1,,,82,0
23339,note_on,0,0,2,,,,,,,,1,,,74,0
23360,note_on,21,0,11,,,,,,,,7,,,51,32
23360,note_on,21,0,1,,,,,,,,0,,,85,33
23360,note_on,0,0,2,,,,,,,,1,,,79,32
23360,note_on,21,0,4,,,,,,,,3,,,51,32
23360,note_on,21,0,2,,,,,,,,1,,,67,32
23360,note_on,21,0,10,,,,,,,,7,,,55,33
23360,note_on,21,0,12,,,,,,,,7,,,39,48
23360,note_on,21,0,8,,,,,,,,7,,,73,32
23360,note_on,21,0,9,,,,,,,,7,,,61,32
23379,note_on,19,0,8,,,,,,,,7,,,73,0
23379,note_on,19,0,2,,,,,,,,1,,,79,0
23379,note_on,0,0,2,,,,,,,,1,,,67,0
23379,note_on,19,0,1,,,,,,,,0,,,85,0
23379,note_on,19,0,11,,,,,,,,7,,,51,0
23379,note_on,19,0,4,,,,,,,,3,,,51,0
23379,note_on,19,0,10,,,,,,,,7,,,55,0
23379,note_on,19,0,9,,,,,,,,7,,,61,0
23379,note_on,19,0,12,,,,,,,,7,,,39,0
23400,note_on,21,0,11,,,,,,,,7,,,50,32
23400,note_on,0,0,2,,,,,,,,1,,,78,32
23400,note_on,21,0,10,,,,,,,,7,,,54,33
23400,note_on,21,0,1,,,,,,,,0,,,86,33
23400,note_on,21,0,12,,,,,,,,7,,,38,48
23400,note_on,21,0,2,,,,,,,,1,,,74,32
23400,note_on,21,0,8,,,,,,,,7,,,74,32
23400,note_on,21,0,9,,,,,,,,7,,,62,32
23400,note_on,21,0,4,,,,,,,,3,,,50,32
23419,note_on,19,0,11,,,,,,,,7,,,50,0
23419,note_on,19,0,2,,,,,,,,1,,,78,0
23419,note_on,0,0,2,,,,,,,,1,,,74,0
23419,note_on,19,0,9,,,,,,,,7,,,62,0
23419,note_on,19,0,12,,,,,,,,7,,,38,0
23419,note_on,19,0,4,,,,,,,,3,,,50,0
23419,note_on,19,0,10,,,,,,,,7,,,54,0
23419,note_on,19,0,1,,,,,,,,0,,,86,0
23419,note_on,19,0,8,,,,,,,,7,,,74,0
23440,note_on,21,0,4,,,,,,,,3,,,60,32
23440,note_on,21,0,10,,,,,,,,7,,,62,33
23440,note_on,21,0,8,,,,,,,,7,,,78,32
23440,note_on,21,0,12,,,,,,,,7,,,45,48
23440,note_on,21,0,9,,,,,,,,7,,,66,32
23440,note_on,21,0,11,,,,,,,,7,,,57,32
23440,note_on,0,0,4,,,,,,,,3,,,57,32
23459,note_on,0,0,4,,,,,,,,3,,,60,0
23459,note_on,19,0,4,,,,,,,,3,,,57,0
23459,note_on,19,0,9,,,,,,,,7,,,66,0
23459,note_on,19,0,12,,,,,,,,7,,,45,0
23459,note_on,19,0,8,,,,,,,,7,,,78,0
23459,note_on,19,0,10,,,,,,,,7,,,62,0
23459,note_on,19,0,11,,,,,,,,7,,,57,0
23480,note_on,21,0,4,,,,,,,,3,,,57,32
23480,note_on,21,0,8,,,,,,,,7,,,81,32
23480,note_on,0,0,1,,,,,,,,0,,,86,33
23480,note_on,61,0,1,,,,,,,,0,,,84,33
23480,note_on,61,0,2,,,,,,,,1,,,72,32
23480,note_on,0,0,4,,,,,,,,3,,,54,32
23480,note_on,0,0,2,,,,,,,,1,,,81,32
23480,note_on,21,0,11,,,,,,,,7,,,54,32
23480,note_on,21,0,12,,,,,,,,7,,,42,48
23480,note_on,21,0,9,,,,,,,,7,,,69,32
23480,note_on,21,0,10,,,,,,,,7,,,62,33
23499,note_on,19,0,9,,,,,,,,7,,,69,0
23499,note_on,19,0,2,,,,,,,,1,,,81,0
23499,note_on,19,0,12,,,,,,,,7,,,42,0
23499,note_on,19,0,8,,,,,,,,7,,,81,0
23499,note_on,0,0,2,,,,,,,,1,,,72,0
23499,note_on,19,0,10,,,,,,,,7,,,62,0
23499,note_on,19,0,1,,,,,,,,0,,,86,0
23499,note_on,0,0,1,,,,,,,,0,,,84,0
23499,note_on,0,0,4,,,,,,,,3,,,57,0
23499,note_on,19,0,4,,,,,,,,3,,,54,0
23499,note_on,19,0,11,,,,,,,,7,,,54,0
23520,note_on,21,0,10,,,,,,,,7,,,62,33
23520,note_on,21,0,8,,,,,,,,7,,,82,32
23520,note_on,21,0,1,,,,,,,,0,,,86,33
23520,note_on,0,0,1,,,,,,,,0,,,82,33
23520,note_on,0,0,2,,,,,,,,1,,,79,32
23520,note_on,0,0,4,,,,,,,,3,,,58,32
23520,note_on,21,0,2,,,,,,,,1,,,70,32
23520,note_on,21,0,4,,,,,,,,3,,,62,32
23520,note_on,21,0,12,,,,,,,,7,,,43,48
23520,note_on,21,0,9,,,,,,,,7,,,70,32
23520,note_on,21,0,11,,,,,,,,7,,,55,32
23539,note_on,19,0,2,,,,,,,,1,,,79,0
23539,note_on,19,0,12,,,,,,,,7,,,43,0
23539,note_on,19,0,8,,,,,,,,7,,,82,0
23539,note_on,19,0,9,,,,,,,,7,,,70,0
23539,note_on,0,0,1,,,,,,,,0,,,86,0
23539,note_on,19,0,11,,,,,,,,7,,,55,0
23539,note_on,0,0,4,,,,,,,,3,,,62,0
23539,note_on,19,0,4,,,,,,,,3,,,58,0
23539,note_on,19,0,1,,,,,,,,0,,,82,0
23539,note_on,0,0,2,,,,,,,,1,,,70,0
23539,note_on,19,0,10,,,,,,,,7,,,62,0
23560,note_on,21,0,11,,,,,,,,7,,,58,32
23560,note_on,21,0,10,,,,,,,,7,,,62,33
23560,note_on,0,0,4,,,,,,,,3,,,55,32
23560,note_on,21,0,12,,,,,,,,7,,,46,48
23560,note_on,21,0,8,,,,,,,,7,,,79,32
23560,note_on,0,0,1,,,,,,,,0,,,86,33
23560,note_on,21,0,4,,,,,,,,3,,,58,32
23560,note_on,21,0,9,,,,,,,,7,,,67,32
23560,note_on,0,0,2,,,,,,,,1,,,79,32
23560,note_on,21,0,2,,,,,,,,1,,,70,32
23560,note_on,21,0,1,,,,,,,,0,,,82,33
23579,note_on,19,0,1,,,,,,,,0,,,86,0
23579,note_on,0,0,1,,,,,,,,0,,,82,0
23579,note_on,19,0,10,,,,,,,,7,,,62,0
23579,note_on,19,0,4,,,,,,,,3,,,55,0
23579,note_on,0,0,2,,,,,,,,1,,,70,0
23579,note_on,0,0,4,,,,,,,,3,,,58,0
23579,note_on,19,0,9,,,,,,,,7,,,67,0
23579,note_on,19,0,12,,,,,,,,7,,,46,0
23579,note_on,19,0,8,,,,,,,,7,,,79,0
23579,note_on,19,0,11,,,,,,,,7,,,58,0
23579,note_on,19,0,2,,,,,,,,1,,,79,0
23600,note_on,21,0,4,,,,,,,,3,,,63,32
23600,note_on,0,0,4,,,,,,,,3,,,51,32
23600,note_on,21,0,9,,,,,,,,7,,,73,32
23600,note_on,21,0,12,,,,,,,,7,,,51,48
23600,note_on,21,0,11,,,,,,,,7,,,63,32
23600,note_on,21,0,8,,,,,,,,7,,,85,32
23600,note_on,0,0,2,,,,,,,,1,,,79,32
23600,note_on,21,0,1,,,,,,,,0,,,85,33
23600,note_on,21,0,10,,,,,,,,7,,,67,33
23600,note_on,0,0,1,,,,,,,,0,,,92,33
23600,note_on,21,0,2,,,,,,,,1,,,73,32
23619,note_on,0,0,2,,,,,,,,1,,,73,0
23619,note_on,19,0,4,,,,,,,,3,,,51,0
23619,note_on,0,0,4,,,,,,,,3,,,63,0
23619,note_on,19,0,9,,,,,,,,7,,,73,0
23619,note_on,19,0,1,,,,,,,,0,,,92,0
23619,note_on,0,0,1,,,,,,,,0,,,85,0
23619,note_on,19,0,10,,,,,,,,7,,,67,0
23619,note_on,19,0,12,,,,,,,,7,,,51,0
23619,note_on,19,0,11,,,,,,,,7,,,63,0
23619,note_on,19,0,2,,,,,,,,1,,,79,0
23619,note_on,19,0,8,,,,,,,,7,,,85,0
23640,note_on,21,0,9,,,,,,,,7,,,74,32
23640,note_on,21,0,12,,,,,,,,7,,,50,48
23640,note_on,21,0,8,,,,,,,,7,,,86,32
23640,note_on,0,0,1,,,,,,,,0,,,86,33
23640,note_on,21,0,1,,,,,,,,0,,,90,33
23640,note_on,21,0,10,,,,,,,,7,,,66,33
23640,note_on,21,0,11,,,,,,,,7,,,62,32
23640,note_on,21,0,2,,,,,,,,1,,,78,32
23640,note_on,0,0,2,,,,,,,,1,,,74,32
23640,note_on,0,0,4,,,,,,,,3,,,50,32
23640,note_on,21,0,4,,,,,,,,3,,,62,32
23659,note_on,19,0,1,,,,,,,,0,,,86,0
23659,note_on,0,0,1,,,,,,,,0,,,90,0
23659,note_on,19,0,8,,,,,,,,7,,,86,0
23659,note_on,19,0,11,,,,,,,,7,,,62,0
23659,note_on,0,0,2,,,,,,,,1,,,78,0
23659,note_on,19,0,12,,,,,,,,7,,,50,0
23659,note_on,0,0,4,,,,,,,,3,,,62,0
23659,note_on,19,0,4,,,,,,,,3,,,50,0
23659,note_on,19,0,9,,,,,,,,7,,,74,0
23659,note_on,19,0,2,,,,,,,,1,,,74,0
23659,note_on,19,0,10,,,,,,,,7,,,66,0
23680,note_on,21,0,11,,,,,,,,7,,,61,32
23680,note_on,21,0,9,,,,,,,,7,,,73,32
23680,note_on,21,0,8,,,,,,,,7,,,85,32
23680,note_on,21,0,10,,,,,,,,7,,,73,33
23680,note_on,21,0,12,,,,,,,,7,,,49,48
23699,note_on,19,0,12,,,,,,,,7,,,49,0
23699,note_on,19,0,8,,,,,,,,7,,,85,0
23699,note_on,19,0,10,,,,,,,,7,,,73,0
23699,note_on,19,0,11,,,,,,,,7,,,61,0
23699,note_on,19,0,9,,,,,,,,7,,,73,0
23720,note_on,21,0,12,,,,,,,,7,,,50,48
23720,note_on,21,0,11,,,,,,,,7,,,62,32
23720,note_on,21,0,9,,,,,,,,7,,,74,32
23720,note_on,21,0,8,,,,,,,,7,,,86,32
23720,note_on,21,0,10,,,,,,,,7,,,74,33
23739,note_on,19,0,10,,,,,,,,7,,,74,0
23739,note_on,19,0,11,,,,,,,,7,,,62,0
23739,note_on,19,0,8,,,,,,,,7,,,86,0
23739,note_on,19,0,12,,,,,,,,7,,,50,0
23739,note_on,19,0,9,,,,,,,,7,,,74,0
23760,note_on,21,0,11,,,,,,,,7,,,57,32
23760,note_on,21,0,10,,,,,,,,7,,,69,33
23760,note_on,21,0,12,,,,,,,,7,,,45,48
23760,note_on,21,0,8,,,,,,,,7,,,81,32
23760,note_on,21,0,9,,,,,,,,7,,,69,32
23779,note_on,19,0,8,,,,,,,,7,,,81,0
23779,note_on,19,0,12,,,,,,,,7,,,45,0
23779,note_on,19,0,11,,,,,,,,7,,,57,0
23779,note_on,19,0,10,,,,,,,,7,,,69,0
23779,note_on,19,0,9,,,,,,,,7,,,69,0
23800,note_on,21,0,10,,,,,,,,7,,,70,33
23800,note_on,21,0,12,,,,,,,,7,,,46,48
23800,note_on,21,0,11,,,,,,,,7,,,58,32
23800,note_on,21,0,8,,,,,,,,7,,,82,32
23800,note_on,21,0,9,,,,,,,,7,,,70,32
23819,note_on,19,0,12,,,,,,,,7,,,46,0
23819,note_on,19,0,9,,,,,,,,7,,,70,0
23819,note_on,19,0,11,,,,,,,,7,,,58,0
23819,note_on,19,0,10,,,,,,,,7,,,70,0
23819,note_on,19,0,8,,,,,,,,7,,,82,0
23840,note_on,21,0,11,,,,,,,,7,,,54,32
23840,note_on,21,0,8,,,,,,,,7,,,78,32
23840,note_on,21,0,12,,,,,,,,7,,,42,48
23840,note_on,21,0,9,,,,,,,,7,,,66,32
23840,note_on,21,0,10,,,,,,,,7,,,66,33
23859,note_on,19,0,8,,,,,,,,7,,,78,0
23859,note_on,19,0,12,,,,,,,,7,,,42,0
23859,note_on,19,0,11,,,,,,,,7,,,54,0
23859,note_on,19,0,10,,,,,,,,7,,,66,0
23859,note_on,19,0,9,,,,,,,,7,,,66,0
23880,note_on,21,0,9,,,,,,,,7,,,67,32
23880,note_on,21,0,10,,,,,,,,7,,,67,33
23880,note_on,21,0,11,,,,,,,,7,,,55,32
23880,note_on,21,0,8,,,,,,,,7,,,79,32
23880,note_on,21,0,12,,,,,,,,7,,,43,48
23899,note_on,19,0,9,,,,,,,,7,,,67,0
23899,note_on,19,0,8,,,,,,,,7,,,79,0
23899,note_on,19,0,11,,,,,,,,7,,,55,0
23899,note_on,19,0,12,,,,,,,,7,,,43,0
23899,note_on,19,0,10,,,,,,,,7,,,67,0
23920,note_on,21,0,9,,,,,,,,7,,,62,32
23920,note_on,21,0,8,,,,,,,,7,,,74,32
23920,note_on,21,0,12,,,,,,,,7,,,38,48
23920,note_on,21,0,11,,,,,,,,7,,,50,32
23920,note_on,21,0,10,,,,,,,,7,,,62,33
23939,note_on,19,0,10,,,,,,,,7,,,62,0
23939,note_on,19,0,11,,,,,,,,7,,,50,0
23939,note_on,19,0,9,,,,,,,,7,,,62,0
23939,note_on,19,0,8,,,,,,,,7,,,74,0
23939,note_on,19,0,12,,,,,,,,7,,,38,0
23960,note_on,21,0,12,,,,,,,,7,,,39,48
23960,note_on,21,0,11,,,,,,,,7,,,51,32
23960,note_on,21,0,8,,,,,,,,7,,,75,32
23960,note_on,21,0,10,,,,,,,,7,,,63,33
23960,note_on,21,0,9,,,,,,,,7,,,63,32
23979,note_on,19,0,12,,,,,,,,7,,,39,0
23979,note_on,19,0,11,,,,,,,,7,,,51,0
23979,note_on,19,0,8,,,,,,,,7,,,75,0
23979,note_on,19,0,9,,,,,,,,7,,,63,0
23979,note_on,19,0,10,,,,,,,,7,,,63,0
24000,note_on,21,0,8,,,,,,,,7,,,74,32
24000,note_on,21,0,12,,,,,,,,7,,,38,48
24000,note_on,21,0,10,,,,,,,,7,,,62,33
24000,note_on,21,0,9,,,,,,,,7,,,62,32
24000,note_on,21,0,11,,,,,,,,7,,,50,32
24019,note_on,19,0,11,,,,,,,,7,,,50,0
24019,note_on,19,0,8,,,,,,,,7,,,74,0
24019,note_on,19,0,10,,,,,,,,7,,,62,0
24019,note_on,19,0,9,,,,,,,,7,,,62,0
24019,note_on,19,0,12,,,,,,,,7,,,38,0
24040,note_on,21,0,9,,,,,,,,7,,,63,32
24040,note_on,21,0,11,,,,,,,,7,,,51,32
24040,note_on,21,0,10,,,,,,,,7,,,63,33
24040,note_on,21,0,8,,,,,,,,7,,,75,32
24040,note_on,21,0,12,,,,,,,,7,,,39,48
24059,note_on,19,0,12,,,,,,,,7,,,39,0
24059,note_on,19,0,9,,,,,,,,7,,,63,0
24059,note_on,19,0,11,,,,,,,,7,,,51,0
24059,note_on,19,0,8,,,,,,,,7,,,75,0
24059,note_on,19,0,10,,,,,,,,7,,,63,0
24080,note_on,21,0,8,,,,,,,,7,,,73,32
24080,note_on,21,0,11,,,,,,,,7,,,49,32
24080,note_on,21,0,10,,,,,,,,7,,,61,33
24080,note_on,21,0,12,,,,,,,,7,,,37,48
24080,note_on,21,0,9,,,,,,,,7,,,61,32
24099,note_on,19,0,8,,,,,,,,7,,,73,0
24099,note_on,19,0,11,,,,,,,,7,,,49,0
24099,note_on,19,0,10,,,,,,,,7,,,61,0
24099,note_on,19,0,9,,,,,,,,7,,,61,0
24099,note_on,19,0,12,,,,,,,,7,,,37,0
24120,note_on,21,0,9,,,,,,,,7,,,62,32
24120,note_on,21,0,11,,,,,,,,7,,,50,32
24120,note_on,21,0,8,,,,,,,,7,,,74,32
24120,note_on,21,0,12,,,,,,,,7,,,38,48
24120,note_on,21,0,10,,,,,,,,7,,,62,33
24139,note_on,19,0,10,,,,,,,,7,,,62,0
24139,note_on,19,0,12,,,,,,,,7,,,38,0
24139,note_on,19,0,9,,,,,,,,7,,,62,0
24139,note_on,19,0,8,,,,,,,,7,,,74,0
24139,note_on,19,0,11,,,,,,,,7,,,50,0
24160,note_on,21,0,8,,,,,,,,7,,,73,32
24160,note_on,21,0,11,,,,,,,,7,,,49,32
24160,note_on,21,0,10,,,,,,,,7,,,61,33
24160,note_on,21,0,12,,,,,,,,7,,,37,48
24160,note_on,21,0,9,,,,,,,,7,,,61,32
24179,note_on,19,0,8,,,,,,,,7,,,73,0
24179,note_on,19,0,10,,,,,,,,7,,,61,0
24179,note_on,19,0,11,,,,,,,,7,,,49,0
24179,note_on,19,0,9,,,,,,,,7,,,61,0
24179,note_on,19,0,12,,,,,,,,7,,,37,0
24200,note_on,21,0,10,,,,,,,,7,,,62,33
24200,note_on,21,0,12,,,,,,,,7,,,38,48
24200,note_on,21,0,11,,,,,,,,7,,,50,32
24200,note_on,21,0,9,,,,,,,,7,,,62,32
24200,note_on,21,0,8,,,,,,,,7,,,74,32
24219,note_on,19,0,12,,,,,,,,7,,,38,0
24219,note_on,19,0,8,,,,,,,,7,,,74,0
24219,note_on,19,0,9,,,,,,,,7,,,62,0
24219,note_on,19,0,11,,,,,,,,7,,,50,0
24219,note_on,19,0,10,,,,,,,,7,,,62,0
24240,note_on,21,0,8,,,,,,,,7,,,73,32
24240,note_on,21,0,12,,,,,,,,7,,,37,48
24240,note_on,21,0,9,,,,,,,,7,,,61,32
24240,note_on,21,0,10,,,,,,,,7,,,61,33
24240,note_on,21,0,11,,,,,,,,7,,,49,32
24259,note_on,19,0,8,,,,,,,,7,,,73,0
24259,note_on,19,0,12,,,,,,,,7,,,37,0
24259,note_on,19,0,11,,,,,,,,7,,,49,0
24259,note_on,19,0,9,,,,,,,,7,,,61,0
24259,note_on,19,0,10,,,,,,,,7,,,61,0
24280,note_on,21,0,8,,,,,,,,7,,,74,32
24280,note_on,21,0,11,,,,,,,,7,,,50,32
24280,note_on,21,0,9,,,,,,,,7,,,62,32
24280,note_on,21,0,10,,,,,,,,7,,,62,33
24280,note_on,21,0,12,,,,,,,,7,,,38,48
24299,note_on,19,0,9,,,,,,,,7,,,62,0
24299,note_on,19,0,12,,,,,,,,7,,,38,0
24299,note_on,19,0,11,,,,,,,,7,,,50,0
24299,note_on,19,0,10,,,,,,,,7,,,62,0
24299,note_on,19,0,8,,,,,,,,7,,,74,0
24320,note_on,21,0,9,,,,,,,,7,,,61,32
24320,note_on,21,0,8,,,,,,,,7,,,73,32
24320,note_on,21,0,10,,,,,,,,7,,,61,33
24320,note_on,21,0,11,,,,,,,,7,,,49,32
24320,note_on,21,0,12,,,,,,,,7,,,37,48
24339,note_on,19,0,12,,,,,,,,7,,,37,0
24339,note_on,19,0,9,,,,,,,,7,,,61,0
24339,note_on,19,0,11,,,,,,,,7,,,49,0
24339,note_on,19,0,10,,,,,,,,7,,,61,0
24339,note_on,19,0,8,,,,,,,,7,,,73,0
24360,note_on,21,0,9,,,,,,,,7,,,62,32
24360,note_on,21,0,10,,,,,,,,7,,,62,33
24360,note_on,21,0,12,,,,,,,,7,,,38,48
24360,note_on,21,0,8,,,,,,,,7,,,74,32
24360,note_on,21,0,11,,,,,,,,7,,,50,32
24379,note_on,19,0,10,,,,,,,,7,,,62,0
24379,note_on,19,0,12,,,,,,,,7,,,38,0
24379,note_on,19,0,8,,,,,,,,7,,,74,0
24379,note_on,19,0,9,,,,,,,,7,,,62,0
24379,note_on,19,0,11,,,,,,,,7,,,50,0
24400,note_on,21,0,8,,,,,,,,7,,,73,32
24400,note_on,21,0,10,,,,,,,,7,,,61,33
24400,note_on,21,0,9,,,,,,,,7,,,61,32
24400,note_on,21,0,12,,,,,,,,7,,,37,48
24400,note_on,21,0,11,,,,,,,,7,,,49,32
24419,note_on,19,0,10,,,,,,,,7,,,61,0
24419,note_on,19,0,8,,,,,,,,7,,,73,0
24419,note_on,19,0,9,,,,,,,,7,,,61,0
24419,note_on,19,0,11,,,,,,,,7,,,49,0
24419,note_on,19,0,12,,,,,,,,7,,,37,0
24440,note_on,21,0,12,,,,,,,,7,,,38,48
24440,note_on,21,0,9,,,,,,,,7,,,62,32
24440,note_on,21,0,10,,,,,,,,7,,,62,33
24440,note_on,21,0,11,,,,,,,,7,,,50,32
24440,note_on,21,0,8,,,,,,,,7,,,74,32
24459,note_on,19,0,9,,,,,,,,7,,,62,0
24459,note_on,19,0,12,,,,,,,,7,,,38,0
24459,note_on,19,0,11,,,,,,,,7,,,50,0
24459,note_on,19,0,10,,,,,,,,7,,,62,0
24459,note_on,19,0,8,,,,,,,,7,,,74,0
24480,note_on,21,0,12,,,,,,,,7,,,37,48
24480,note_on,21,0,11,,,,,,,,7,,,49,32
24480,note_on,21,0,10,,,,,,,,7,,,61,33
24480,note_on,21,0,8,,,,,,,,7,,,73,32
24480,note_on,21,0,9,,,,,,,,7,,,61,32
24499,note_on,19,0,11,,,,,,,,7,,,49,0
24499,note_on,19,0,8,,,,,,,,7,,,73,0
24499,note_on,19,0,12,,,,,,,,7,,,37,0
24499,note_on,19,0,10,,,,,,,,7,,,61,0
24499,note_on,19,0,9,,,,,,,,7,,,61,0
24520,note_on,21,0,11,,,,,,,,7,,,50,32
24520,note_on,21,0,8,,,,,,,,7,,,74,32
24520,note_on,21,0,10,,,,,,,,7,,,62,33
24520,note_on,21,0,12,,,,,,,,7,,,38,48
24520,note_on,21,0,9,,,,,,,,7,,,62,32
24539,note_on,19,0,8,,,,,,,,7,,,74,0
24539,note_on,19,0,10,,,,,,,,7,,,62,0
24539,note_on,19,0,12,,,,,,,,7,,,38,0
24539,note_on,19,0,11,,,,,,,,7,,,50,0
24539,note_on,19,0,9,,,,,,,,7,,,62,0
24560,note_on,21,0,12,,,,,,,,7,,,37,48
24560,note_on,21,0,11,,,,,,,,7,,,49,32
24560,note_on,21,0,10,,,,,,,,7,,,61,33
24560,note_on,21,0,9,,,,,,,,7,,,61,32
24560,note_on,21,0,8,,,,,,,,7,,,73,32
24579,note_on,19,0,8,,,,,,,,7,,,73,0
24579,note_on,19,0,9,,,,,,,,7,,,61,0
24579,note_on,19,0,12,,,,,,,,7,,,37,0
24579,note_on,19,0,11,,,,,,,,7,,,49,0
24579,note_on,19,0,10,,,,,,,,7,,,61,0
24600,note_on,21,0,8,,,,,,,,7,,,74,32
24600,note_on,21,0,9,,,,,,,,7,,,62,32
24600,note_on,21,0,12,,,,,,,,7,,,38,48
24600,note_on,21,0,11,,,,,,,,7,,,50,32
24600,note_on,21,0,10,,,,,,,,7,,,62,33
24619,note_on,19,0,9,,,,,,,,7,,,62,0
24619,note_on,19,0,11,,,,,,,,7,,,50,0
24619,note_on,19,0,12,,,,,,,,7,,,38,0
24619,note_on,19,0,10,,,,,,,,7,,,62,0
24619,note_on,19,0,8,,,,,,,,7,,,74,0
24640,note_on,21,0,10,,,,,,,,7,,,50,33
24659,note_on,19,0,10,,,,,,,,7,,,50,0
24680,note_on,21,0,10,,,,,,,,7,,,50,33
24699,note_on,19,0,10,,,,,,,,7,,,50,0
24720,note_on,21,0,10,,,,,,,,7,,,50,33
24739,note_on,19,0,10,,,,,,,,7,,,50,0
24760,note_on,21,0,10,,,,,,,,7,,,50,33
24779,note_on,19,0,10,,,,,,,,7,,,50,0
24800,note_on,21,0,10,,,,,,,,7,,,50,33
24819,note_on,19,0,10,,,,,,,,7,,,50,0
24840,note_on,21,0,10,,,,,,,,7,,,50,33
24859,note_on,19,0,10,,,,,,,,7,,,50,0
24880,note_on,21,0,10,,,,,,,,7,,,50,33
24899,note_on,19,0,10,,,,,,,,7,,,50,0
24920,note_on,21,0,10,,,,,,,,7,,,50,33
24939,note_on,19,0,10,,,,,,,,7,,,50,0
24960,note_on,21,0,10,,,,,,,,7,,,50,33
24979,note_on,19,0,10,,,,,,,,7,,,50,0
25000,note_on,21,0,10,,,,,,,,7,,,50,33
25019,note_on,19,0,10,,,,,,,,7,,,50,0
25040,note_on,21,0,10,,,,,,,,7,,,50,33
25059,note_on,19,0,10,,,,,,,,7,,,50,0
25080,note_on,461,0,12,,,,,,,,7,,,34,48
25080,note_on,461,0,11,,,,,,,,7,,,46,32
25099,note_on,19,0,12,,,,,,,,7,,,34,0
25099,note_on,19,0,11,,,,,,,,7,,,46,0
25120,note_on,21,0,12,,,,,,,,7,,,34,48
25120,note_on,21,0,11,,,,,,,,7,,,46,32
25139,note_on,19,0,12,,,,,,,,7,,,34,0
25139,note_on,19,0,11,,,,,,,,7,,,46,0
25160,note_on,21,0,11,,,,,,,,7,,,46,32
25160,note_on,21,0,12,,,,,,,,7,,,34,48
25179,note_on,19,0,12,,,,,,,,7,,,34,0
25179,note_on,19,0,11,,,,,,,,7,,,46,0
25200,note_on,21,0,11,,,,,,,,7,,,46,32
25200,note_on,21,0,12,,,,,,,,7,,,34,48
25219,note_on,19,0,11,,,,,,,,7,,,46,0
25219,note_on,19,0,12,,,,,,,,7,,,34,0
25240,note_on,21,0,11,,,,,,,,7,,,46,32
25240,note_on,21,0,12,,,,,,,,7,,,34,48
25259,note_on,19,0,12,,,,,,,,7,,,34,0
25259,note_on,19,0,11,,,,,,,,7,,,46,0
25280,note_on,21,0,12,,,,,,,,7,,,34,48
25280,note_on,21,0,11,,,,,,,,7,,,46,32
25299,note_on,19,0,12,,,,,,,,7,,,34,0
25299,note_on,19,0,11,,,,,,,,7,,,46,0
25320,note_on,21,0,12,,,,,,,,7,,,34,48
25320,note_on,21,0,11,,,,,,,,7,,,46,32
25339,note_on,19,0,12,,,,,,,,7,,,34,0
25339,note_on,19,0,11,,,,,,,,7,,,46,0
25360,note_on,21,0,11,,,,,,,,7,,,46,32
25360,note_on,21,0,12,,,,,,,,7,,,34,48
25379,note_on,19,0,11,,,,,,,,7,,,46,0
25379,note_on,19,0,12,,,,,,,,7,,,34,0
25400,note_on,21,0,11,,,,,,,,7,,,46,32
25400,note_on,21,0,12,,,,,,,,7,,,34,48
25419,note_on,19,0,11,,,,,,,,7,,,46,0
25419,note_on,19,0,12,,,,,,,,7,,,34,0
25440,note_on,21,0,11,,,,,,,,7,,,46,32
25440,note_on,21,0,12,,,,,,,,7,,,34,48
25459,note_on,19,0,11,,,,,,,,7,,,46,0
25459,note_on,19,0,12,,,,,,,,7,,,34,0
25480,note_on,21,0,11,,,,,,,,7,,,46,32
25480,note_on,21,0,12,,,,,,,,7,,,34,48
25499,note_on,19,0,12,,,,,,,,7,,,34,0
25499,note_on,19,0,11,,,,,,,,7,,,46,0
25520,note_on,901,0,8,,,,,,,,7,,,58,32
25520,note_on,461,0,10,,,,,,,,7,,,51,33
25520,note_on,21,0,11,,,,,,,,7,,,46,32
25520,note_on,21,0,12,,,,,,,,7,,,34,48
25520,note_on,901,0,9,,,,,,,,7,,,55,32
25539,note_on,19,0,11,,,,,,,,7,,,46,0
25539,note_on,19,0,10,,,,,,,,7,,,51,0
25539,note_on,19,0,12,,,,,,,,7,,,34,0
25539,note_on,19,0,8,,,,,,,,7,,,58,0
25539,note_on,19,0,9,,,,,,,,7,,,55,0
25560,note_on,21,0,11,,,,,,,,7,,,46,32
25560,note_on,21,0,8,,,,,,,,7,,,58,32
25560,note_on,21,0,10,,,,,,,,7,,,51,33
25560,note_on,21,0,9,,,,,,,,7,,,55,32
25560,note_on,21,0,12,,,,,,,,7,,,34,48
25579,note_on,19,0,9,,,,,,,,7,,,55,0
25579,note_on,19,0,12,,,,,,,,7,,,34,0
25579,note_on,19,0,10,,,,,,,,7,,,51,0
25579,note_on,19,0,11,,,,,,,,7,,,46,0
25579,note_on,19,0,8,,,,,,,,7,,,58,0
25600,note_on,21,0,9,,,,,,,,7,,,56,32
25600,note_on,21,0,12,,,,,,,,7,,,34,48
25600,note_on,21,0,11,,,,,,,,7,,,46,32
25600,note_on,21,0,8,,,,,,,,7,,,60,32
25600,note_on,21,0,10,,,,,,,,7,,,51,33
25619,note_on,19,0,12,,,,,,,,7,,,34,0
25619,note_on,19,0,8,,,,,,,,7,,,60,0
25619,note_on,19,0,11,,,,,,,,7,,,46,0
25619,note_on,19,0,9,,,,,,,,7,,,56,0
25619,note_on,19,0,10,,,,,,,,7,,,51,0
25640,note_on,21,0,9,,,,,,,,7,,,55,32
25640,note_on,21,0,8,,,,,,,,7,,,58,32
25640,note_on,21,0,12,,,,,,,,7,,,34,48
25640,note_on,21,0,11,,,,,,,,7,,,46,32
25640,note_on,21,0,10,,,,,,,,7,,,51,33
25659,note_on,19,0,10,,,,,,,,7,,,51,0
25659,note_on,19,0,8,,,,,,,,7,,,58,0
25659,note_on,19,0,11,,,,,,,,7,,,46,0
25659,note_on,19,0,12,,,,,,,,7,,,34,0
25659,note_on,19,0,9,,,,,,,,7,,,55,0
25680,note_on,21,0,8,,,,,,,,7,,,60,32
25680,note_on,21,0,10,,,,,,,,7,,,51,33
25680,note_on,21,0,9,,,,,,,,7,,,56,32
25680,note_on,21,0,11,,,,,,,,7,,,46,32
25680,note_on,21,0,12,,,,,,,,7,,,34,48
25699,note_on,19,0,11,,,,,,,,7,,,46,0
25699,note_on,19,0,10,,,,,,,,7,,,51,0
25699,note_on,19,0,8,,,,,,,,7,,,60,0
25699,note_on,19,0,9,,,,,,,,7,,,56,0
25699,note_on,19,0,12,,,,,,,,7,,,34,0
25720,note_on,21,0,8,,,,,,,,7,,,58,32
25720,note_on,21,0,10,,,,,,,,7,,,51,33
25720,note_on,21,0,9,,,,,,,,7,,,55,32
25720,note_on,21,0,11,,,,,,,,7,,,46,32
25720,note_on,21,0,12,,,,,,,,7,,,34,48
25739,note_on,19,0,10,,,,,,,,7,,,51,0
25739,note_on,19,0,11,,,,,,,,7,,,46,0
25739,note_on,19,0,12,,,,,,,,7,,,34,0
25739,note_on,19,0,8,,,,,,,,7,,,58,0
25739,note_on,19,0,9,,,,,,,,7,,,55,0
25760,note_on,21,0,11,,,,,,,,7,,,46,32
25760,note_on,21,0,9,,,,,,,,7,,,56,32
25760,note_on,21,0,10,,,,,,,,7,,,51,33
25760,note_on,21,0,12,,,,,,,,7,,,34,48
25760,note_on,21,0,8,,,,,,,,7,,,60,32
25779,note_on,19,0,8,,,,,,,,7,,,60,0
25779,note_on,19,0,9,,,,,,,,7,,,56,0
25779,note_on,19,0,10,,,,,,,,7,,,51,0
25779,note_on,19,0,12,,,,,,,,7,,,34,0
25779,note_on,19,0,11,,,,,,,,7,,,46,0
25800,note_on,21,0,11,,,,,,,,7,,,46,32
25800,note_on,21,0,10,,,,,,,,7,,,51,33
25800,note_on,21,0,9,,,,,,,,7,,,55,32
25800,note_on,21,0,12,,,,,,,,7,,,34,48
25800,note_on,21,0,8,,,,,,,,7,,,58,32
25819,note_on,19,0,11,,,,,,,,7,,,46,0
25819,note_on,19,0,9,,,,,,,,7,,,55,0
25819,note_on,19,0,10,,,,,,,,7,,,51,0
25819,note_on,19,0,12,,,,,,,,7,,,34,0
25819,note_on,19,0,8,,,,,,,,7,,,58,0
25840,note_on,21,0,8,,,,,,,,7,,,60,32
25840,note_on,21,0,10,,,,,,,,7,,,51,33
25840,note_on,21,0,12,,,,,,,,7,,,34,48
25840,note_on,21,0,11,,,,,,,,7,,,46,32
25840,note_on,21,0,9,,,,,,,,7,,,56,32
25859,note_on,19,0,8,,,,,,,,7,,,60,0
25859,note_on,19,0,10,,,,,,,,7,,,51,0
25859,note_on,19,0,9,,,,,,,,7,,,56,0
25859,note_on,19,0,11,,,,,,,,7,,,46,0
25859,note_on,19,0,12,,,,,,,,7,,,34,0
25880,note_on,21,0,8,,,,,,,,7,,,58,32
25880,note_on,21,0,11,,,,,,,,7,,,46,32
25880,note_on,21,0,9,,,,,,,,7,,,55,32
25880,note_on,21,0,10,,,,,,,,7,,,51,33
25880,note_on,21,0,12,,,,,,,,7,,,34,48
25899,note_on,19,0,11,,,,,,,,7,,,46,0
25899,note_on,19,0,9,,,,,,,,7,,,55,0
25899,note_on,19,0,10,,,,,,,,7,,,51,0
25899,note_on,19,0,8,,,,,,,,7,,,58,0
25899,note_on,19,0,12,,,,,,,,7,,,34,0
25920,note_on,21,0,8,,,,,,,,7,,,60,32
25920,note_on,21,0,12,,,,,,,,7,,,34,48
25920,note_on,21,0,10,,,,,,,,7,,,51,33
25920,note_on,21,0,9,,,,,,,,7,,,56,32
25920,note_on,21,0,11,,,,,,,,7,,,46,32
25939,note_on,19,0,10,,,,,,,,7,,,51,0
25939,note_on,19,0,9,,,,,,,,7,,,56,0
25939,note_on,19,0,11,,,,,,,,7,,,46,0
25939,note_on,19,0,12,,,,,,,,7,,,34,0
25939,note_on,19,0,8,,,,,,,,7,,,60,0
25960,note_on,21,0,12,,,,,,,,7,,,34,48
25960,note_on,21,0,11,,,,,,,,7,,,46,32
25960,note_on,21,0,8,,,,,,,,7,,,58,32
25960,note_on,21,0,9,,,,,,,,7,,,55,32
25960,note_on,21,0,10,,,,,,,,7,,,51,33
25979,note_on,19,0,10,,,,,,,,7,,,51,0
25979,note_on,19,0,12,,,,,,,,7,,,34,0
25979,note_on,19,0,8,,,,,,,,7,,,58,0
25979,note_on,19,0,9,,,,,,,,7,,,55,0
25979,note_on,19,0,11,,,,,,,,7,,,46,0
26000,note_on,21,0,9,,,,,,,,7,,,56,32
26000,note_on,2341,0,2,,,,,,,,1,,,72,49
26000,note_on,21,0,12,,,,,,,,7,,,34,48
26000,note_on,21,0,11,,,,,,,,7,,,46,32
26000,note_on,2341,0,4,,,,,,,,3,,,56,48
26000,note_on,6161,0,3,,,,,,,,2,,,68,48
26000,note_on,21,0,8,,,,,,,,7,,,60,32
26000,note_on,21,0,10,,,,,,,,7,,,51,33
26000,note_on,0,0,4,,,,,,,,3,,,60,48
26019,note_on,19,0,2,,,,,,,,1,,,72,0
26019,note_on,19,0,11,,,,,,,,7,,,46,0
26019,note_on,19,0,10,,,,,,,,7,,,51,0
26019,note_on,19,0,3,,,,,,,,2,,,68,0
26019,note_on,19,0,8,,,,,,,,7,,,60,0
26019,note_on,0,0,4,,,,,,,,3,,,56,0
26019,note_on,19,0,12,,,,,,,,7,,,34,0
26019,note_on,19,0,4,,,,,,,,3,,,60,0
26019,note_on,19,0,9,,,,,,,,7,,,56,0
26040,note_on,21,0,9,,,,,,,,7,,,55,32
26040,note_on,21,0,8,,,,,,,,7,,,58,32
26040,note_on,21,0,2,,,,,,,,1,,,70,49
26040,note_on,21,0,3,,,,,,,,2,,,67,48
26040,note_on,21,0,10,,,,,,,,7,,,51,33
26040,note_on,21,0,12,,,,,,,,7,,,34,48
26040,note_on,21,0,4,,,,,,,,3,,,55,48
26040,note_on,21,0,11,,,,,,,,7,,,46,32
26040,note_on,0,0,4,,,,,,,,3,,,58,48
26059,note_on,19,0,3,,,,,,,,2,,,67,0
26059,note_on,19,0,2,,,,,,,,1,,,70,0
26059,note_on,19,0,8,,,,,,,,7,,,58,0
26059,note_on,19,0,9,,,,,,,,7,,,55,0
26059,note_on,19,0,10,,,,,,,,7,,,51,0
26059,note_on,19,0,12,,,,,,,,7,,,34,0
26059,note_on,19,0,11,,,,,,,,7,,,46,0
26059,note_on,0,0,4,,,,,,,,3,,,55,0
26059,note_on,19,0,4,,,,,,,,3,,,58,0
26080,note_on,21,0,9,,,,,,,,7,,,56,32
26080,note_on,21,0,12,,,,,,,,7,,,34,48
26080,note_on,21,0,3,,,,,,,,2,,,68,48
26080,note_on,21,0,11,,,,,,,,7,,,46,32
26080,note_on,21,0,2,,,,,,,,1,,,72,49
26080,note_on,21,0,8,,,,,,,,7,,,60,32
26080,note_on,0,0,4,,,,,,,,3,,,60,48
26080,note_on,21,0,4,,,,,,,,3,,,56,48
26080,note_on,21,0,10,,,,,,,,7,,,51,33
26099,note_on,19,0,10,,,,,,,,7,,,51,0
26099,note_on,19,0,12,,,,,,,,7,,,34,0
26099,note_on,19,0,8,,,,,,,,7,,,60,0
26099,note_on,19,0,2,,,,,,,,1,,,72,0
26099,note_on,19,0,4,,,,,,,,3,,,60,0
26099,note_on,0,0,4,,,,,,,,3,,,56,0
26099,note_on,19,0,9,,,,,,,,7,,,56,0
26099,note_on,19,0,3,,,,,,,,2,,,68,0
26099,note_on,19,0,11,,,,,,,,7,,,46,0
26120,note_on,21,0,8,,,,,,,,7,,,58,32
26120,note_on,21,0,9,,,,,,,,7,,,55,32
26120,note_on,21,0,12,,,,,,,,7,,,34,48
26120,note_on,21,0,10,,,,,,,,7,,,51,33
26120,note_on,21,0,3,,,,,,,,2,,,67,48
26120,note_on,21,0,4,,,,,,,,3,,,55,48
26120,note_on,0,0,4,,,,,,,,3,,,58,48
26120,note_on,21,0,2,,,,,,,,1,,,70,49
26120,note_on,21,0,11,,,,,,,,7,,,46,32
26139,note_on,19,0,3,,,,,,,,2,,,67,0
26139,note_on,19,0,9,,,,,,,,7,,,55,0
26139,note_on,19,0,12,,,,,,,,7,,,34,0
26139,note_on,0,0,4,,,,,,,,3,,,55,0
26139,note_on,19,0,8,,,,,,,,7,,,58,0
26139,note_on,19,0,11,,,,,,,,7,,,46,0
26139,note_on,19,0,10,,,,,,,,7,,,51,0
26139,note_on,19,0,2,,,,,,,,1,,,70,0
26139,note_on,19,0,4,,,,,,,,3,,,58,0
26160,note_on,21,0,12,,,,,,,,7,,,34,48
26160,note_on,21,0,8,,,,,,,,7,,,60,32
26160,note_on,21,0,9,,,,,,,,7,,,56,32
26160,note_on,21,0,11,,,,,,,,7,,,46,32
26160,note_on,0,0,4,,,,,,,,3,,,60,48
26160,note_on,21,0,10,,,,,,,,7,,,51,33
26160,note_on,21,0,4,,,,,,,,3,,,56,48
26160,note_on,21,0,2,,,,,,,,1,,,72,49
26160,note_on,21,0,3,,,,,,,,2,,,68,48
26179,note_on,19,0,10,,,,,,,,7,,,51,0
26179,note_on,19,0,3,,,,,,,,2,,,68,0
26179,note_on,19,0,4,,,,,,,,3,,,60,0
26179,note_on,19,0,11,,,,,,,,7,,,46,0
26179,note_on,19,0,12,,,,,,,,7,,,34,0
26179,note_on,0,0,4,,,,,,,,3,,,56,0
26179,note_on,19,0,8,,,,,,,,7,,,60,0
26179,note_on,19,0,9,,,,,,,,7,,,56,0
26179,note_on,19,0,2,,,,,,,,1,,,72,0
26200,note_on,21,0,11,,,,,,,,7,,,46,32
26200,note_on,21,0,9,,,,,,,,7,,,55,32
26200,note_on,21,0,8,,,,,,,,7,,,58,32
26200,note_on,0,0,4,,,,,,,,3,,,58,48
26200,note_on,21,0,4,,,,,,,,3,,,55,48
26200,note_on,21,0,12,,,,,,,,7,,,34,48
26200,note_on,21,0,10,,,,,,,,7,,,51,33
26200,note_on,21,0,3,,,,,,,,2,,,67,48
26200,note_on,21,0,2,,,,,,,,1,,,70,49
26219,note_on,19,0,10,,,,,,,,7,,,51,0
26219,note_on,19,0,11,,,,,,,,7,,,46,0
26219,note_on,19,0,9,,,,,,,,7,,,55,0
26219,note_on,19,0,2,,,,,,,,1,,,70,0
26219,note_on,19,0,3,,,,,,,,2,,,67,0
26219,note_on,19,0,8,,,,,,,,7,,,58,0
26219,note_on,0,0,4,,,,,,,,3,,,55,0
26219,note_on,19,0,4,,,,,,,,3,,,58,0
26219,note_on,19,0,12,,,,,,,,7,,,34,0
26240,note_on,21,0,10,,,,,,,,7,,,53,33
26240,note_on,0,0,5,,,,,,,,4,,,70,48
26240,note_on,21,0,11,,,,,,,,7,,,46,32
26240,note_on,21,0,12,,,,,,,,7,,,34,48
26240,note_on,21,0,9,,,,,,,,7,,,56,32
26240,note_on,0,0,4,,,,,,,,3,,,58,48
26240,note_on,21,0,4,,,,,,,,3,,,62,48
26240,note_on,21,0,3,,,,,,,,2,,,68,48
26240,note_on,6401,0,5,,,,,,,,4,,,58,48
26240,note_on,21,0,2,,,,,,,,1,,,74,49
26240,note_on,21,0,8,,,,,,,,7,,,62,32
26259,note_on,19,0,3,,,,,,,,2,,,68,0
26259,note_on,19,0,10,,,,,,,,7,,,53,0
26259,note_on,19,0,9,,,,,,,,7,,,56,0
26259,note_on,19,0,2,,,,,,,,1,,,74,0
26259,note_on,19,0,12,,,,,,,,7,,,34,0
26259,note_on,19,0,4,,,,,,,,3,,,58,0
26259,note_on,0,0,4,,,,,,,,3,,,62,0
26259,note_on,0,0,5,,,,,,,,4,,,58,0
26259,note_on,19,0,5,,,,,,,,4,,,70,0
26259,note_on,19,0,8,,,,,,,,7,,,62,0
26259,note_on,19,0,11,,,,,,,,7,,,46,0
26280,note_on,21,0,8,,,,,,,,7,,,63,32
26280,note_on,21,0,4,,,,,,,,3,,,58,48
26280,note_on,0,0,5,,,,,,,,4,,,70,48
26280,note_on,21,0,11,,,,,,,,7,,,46,32
26280,note_on,21,0,9,,,,,,,,7,,,58,32
26280,note_on,0,0,4,,,,,,,,3,,,63,48
26280,note_on,21,0,3,,,,,,,,2,,,67,48
26280,note_on,21,0,10,,,,,,,,7,,,55,33
26280,note_on,21,0,2,,,,,,,,1,,,75,49
26280,note_on,21,0,5,,,,,,,,4,,,58,48
26280,note_on,21,0,12,,,,,,,,7,,,34,48
26299,note_on,19,0,8,,,,,,,,7,,,63,0
26299,note_on,19,0,12,,,,,,,,7,,,34,0
26299,note_on,0,0,4,,,,,,,,3,,,58,0
26299,note_on,19,0,4,,,,,,,,3,,,63,0
26299,note_on,19,0,10,,,,,,,,7,,,55,0
26299,note_on,0,0,5,,,,,,,,4,,,58,0
26299,note_on,19,0,2,,,,,,,,1,,,75,0
26299,note_on,19,0,9,,,,,,,,7,,,58,0
26299,note_on,19,0,3,,,,,,,,2,,,67,0
26299,note_on,19,0,5,,,,,,,,4,,,70,0
26299,note_on,19,0,11,,,,,,,,7,,,46,0
26320,note_on,0,0,2,,,,,,,,1,,,77,49
26320,note_on,21,0,2,,,,,,,,1,,,70,49
26320,note_on,21,0,5,,,,,,,,4,,,70,48
26320,note_on,21,0,10,,,,,,,,7,,,62,33
26320,note_on,21,0,9,,,,,,,,7,,,58,32
26320,note_on,21,0,8,,,,,,,,7,,,65,32
26320,note_on,21,0,12,,,,,,,,7,,,34,48
26320,note_on,0,0,5,,,,,,,,4,,,58,48
26320,note_on,21,0,3,,,,,,,,2,,,65,48
26320,note_on,21,0,11,,,,,,,,7,,,46,32
26339,note_on,19,0,11,,,,,,,,7,,,46,0
26339,note_on,19,0,5,,,,,,,,4,,,58,0
26339,note_on,0,0,5,,,,,,,,4,,,70,0
26339,note_on,19,0,10,,,,,,,,7,,,62,0
26339,note_on,19,0,3,,,,,,,,2,,,65,0
26339,note_on,19,0,9,,,,,,,,7,,,58,0
26339,note_on,0,0,2,,,,,,,,1,,,70,0
26339,note_on,19,0,12,,,,,,,,7,,,34,0
26339,note_on,19,0,2,,,,,,,,1,,,77,0
26339,note_on,19,0,8,,,,,,,,7,,,65,0
26360,note_on,21,0,11,,,,,,,,7,,,46,32
26360,note_on,21,0,8,,,,,,,,7,,,66,32
26360,note_on,21,0,2,,,,,,,,1,,,78,49
26360,note_on,0,0,2,,,,,,,,1,,,70,49
26360,note_on,21,0,5,,,,,,,,4,,,70,48
26360,note_on,0,0,5,,,,,,,,4,,,58,48
26360,note_on,21,0,10,,,,,,,,7,,,62,33
26360,note_on,21,0,9,,,,,,,,7,,,58,32
26360,note_on,21,0,3,,,,,,,,2,,,66,48
26360,note_on,21,0,12,,,,,,,,7,,,34,48
26379,note_on,19,0,10,,,,,,,,7,,,62,0
26379,note_on,19,0,2,,,,,,,,1,,,70,0
26379,note_on,19,0,9,,,,,,,,7,,,58,0
26379,note_on,19,0,11,,,,,,,,7,,,46,0
26379,note_on,19,0,5,,,,,,,,4,,,58,0
26379,note_on,0,0,2,,,,,,,,1,,,78,0
26379,note_on,19,0,3,,,,,,,,2,,,66,0
26379,note_on,19,0,12,,,,,,,,7,,,34,0
26379,note_on,19,0,8,,,,,,,,7,,,66,0
26379,note_on,0,0,5,,,,,,,,4,,,70,0
26400,note_on,21,0,5,,,,,,,,4,,,58,48
26400,note_on,21,0,3,,,,,,,,2,,,67,48
26400,note_on,21,0,11,,,,,,,,7,,,46,32
26400,note_on,21,0,9,,,,,,,,7,,,58,32
26400,note_on,21,0,12,,,,,,,,7,,,34,48
26400,note_on,21,0,10,,,,,,,,7,,,63,33
26400,note_on,21,0,8,,,,,,,,7,,,67,32
26400,note_on,0,0,5,,,,,,,,4,,,70,48
26400,note_on,21,0,2,,,,,,,,1,,,79,49
26400,note_on,0,0,2,,,,,,,,1,,,70,49
26419,note_on,19,0,8,,,,,,,,7,,,67,0
26419,note_on,19,0,3,,,,,,,,2,,,67,0
26419,note_on,19,0,5,,,,,,,,4,,,70,0
26419,note_on,19,0,11,,,,,,,,7,,,46,0
26419,note_on,19,0,9,,,,,,,,7,,,58,0
26419,note_on,0,0,2,,,,,,,,1,,,79,0
26419,note_on,19,0,12,,,,,,,,7,,,34,0
26419,note_on,19,0,2,,,,,,,,1,,,70,0
26419,note_on,0,0,5,,,,,,,,4,,,58,0
26419,note_on,19,0,10,,,,,,,,7,,,63,0
26440,note_on,21,0,5,,,,,,,,4,,,58,48
26440,note_on,21,0,3,,,,,,,,2,,,68,48
26440,note_on,21,0,8,,,,,,,,7,,,68,32
26440,note_on,21,0,11,,,,,,,,7,,,46,32
26440,note_on,0,0,9,,,,,,,,7,,,58,32
26440,note_on,21,0,9,,,,,,,,7,,,65,32
26440,note_on,21,0,12,,,,,,,,7,,,34,48
26440,note_on,0,0,2,,,,,,,,1,,,77,49
26440,note_on,21,0,2,,,,,,,,1,,,80,49
26440,note_on,21,0,10,,,,,,,,7,,,62,33
26440,note_on,0,0,5,,,,,,,,4,,,70,48
26459,note_on,19,0,11,,,,,,,,7,,,46,0
26459,note_on,19,0,9,,,,,,,,7,,,58,0
26459,note_on,0,0,9,,,,,,,,7,,,65,0
26459,note_on,0,0,2,,,,,,,,1,,,80,0
26459,note_on,19,0,12,,,,,,,,7,,,34,0
26459,note_on,19,0,8,,,,,,,,7,,,68,0
26459,note_on,19,0,10,,,,,,,,7,,,62,0
26459,note_on,0,0,5,,,,,,,,4,,,58,0
26459,note_on,19,0,3,,,,,,,,2,,,68,0
26459,note_on,19,0,2,,,,,,,,1,,,77,0
26459,note_on,19,0,5,,,,,,,,4,,,70,0
26480,note_on,21,0,11,,,,,,,,7,,,46,32
26480,note_on,21,0,8,,,,,,,,7,,,69,32
26480,note_on,21,0,3,,,,,,,,2,,,69,48
26480,note_on,0,0,9,,,,,,,,7,,,63,32
26480,note_on,21,0,9,,,,,,,,7,,,58,32
26480,note_on,21,0,10,,,,,,,,7,,,60,33
26480,note_on,0,0,5,,,,,,,,4,,,70,48
26480,note_on,21,0,5,,,,,,,,4,,,58,48
26480,note_on,21,0,12,,,,,,,,7,,,34,48
26480,note_on,0,0,2,,,,,,,,1,,,75,49
26480,note_on,21,0,2,,,,,,,,1,,,81,49
26499,note_on,19,0,9,,,,,,,,7,,,63,0
26499,note_on,0,0,5,,,,,,,,4,,,58,0
26499,note_on,19,0,5,,,,,,,,4,,,70,0
26499,note_on,19,0,12,,,,,,,,7,,,34,0
26499,note_on,19,0,3,,,,,,,,2,,,69,0
26499,note_on,0,0,2,,,,,,,,1,,,81,0
26499,note_on,19,0,8,,,,,,,,7,,,69,0
26499,note_on,19,0,11,,,,,,,,7,,,46,0
26499,note_on,19,0,10,,,,,,,,7,,,60,0
26499,note_on,0,0,9,,,,,,,,7,,,58,0
26499,note_on,19,0,2,,,,,,,,1,,,75,0
26520,note_on,21,0,11,,,,,,,,7,,,46,32
26520,note_on,21,0,2,,,,,,,,1,,,82,49
26520,note_on,0,0,9,,,,,,,,7,,,58,32
26520,note_on,21,0,8,,,,,,,,7,,,70,32
26520,note_on,21,0,10,,,,,,,,7,,,58,33
26520,note_on,21,0,3,,,,,,,,2,,,70,48
26520,note_on,0,0,5,,,,,,,,4,,,70,48
26520,note_on,21,0,5,,,,,,,,4,,,58,48
26520,note_on,21,0,9,,,,,,,,7,,,62,32
26520,note_on,0,0,2,,,,,,,,1,,,74,49
26520,note_on,21,0,12,,,,,,,,7,,,34,48
26539,note_on,19,0,8,,,,,,,,7,,,70,0
26539,note_on,0,0,9,,,,,,,,7,,,62,0
26539,note_on,19,0,11,,,,,,,,7,,,46,0
26539,note_on,19,0,9,,,,,,,,7,,,58,0
26539,note_on,19,0,10,,,,,,,,7,,,58,0
26539,note_on,0,0,2,,,,,,,,1,,,82,0
26539,note_on,0,0,5,,,,,,,,4,,,58,0
26539,note_on,19,0,3,,,,,,,,2,,,70,0
26539,note_on,19,0,5,,,,,,,,4,,,70,0
26539,note_on,19,0,12,,,,,,,,7,,,34,0
26539,note_on,19,0,2,,,,,,,,1,,,74,0
26560,note_on,21,0,8,,,,,,,,7,,,70,32
26560,note_on,21,0,2,,,,,,,,1,,,82,49
26560,note_on,21,0,9,,,,,,,,7,,,65,32
26560,note_on,21,0,12,,,,,,,,7,,,50,48
26560,note_on,21,0,10,,,,,,,,7,,,62,33
26560,note_on,21,0,11,,,,,,,,7,,,62,32
26560,note_on,21,0,3,,,,,,,,2,,,70,48
26560,note_on,0,0,2,,,,,,,,1,,,77,49
26579,note_on,19,0,9,,,,,,,,7,,,65,0
26579,note_on,19,0,10,,,,,,,,7,,,62,0
26579,note_on,19,0,8,,,,,,,,7,,,70,0
26579,note_on,0,0,2,,,,,,,,1,,,82,0
26579,note_on,19,0,2,,,,,,,,1,,,77,0
26579,note_on,19,0,3,,,,,,,,2,,,70,0
26579,note_on,19,0,11,,,,,,,,7,,,62,0
26579,note_on,19,0,12,,,,,,,,7,,,50,0
26600,note_on,21,0,10,,,,,,,,7,,,60,33
26600,note_on,21,0,2,,,,,,,,1,,,82,49
26600,note_on,21,0,3,,,,,,,,2,,,70,48
26600,note_on,21,0,11,,,,,,,,7,,,60,32
26600,note_on,21,0,9,,,,,,,,7,,,63,32
26600,note_on,21,0,12,,,,,,,,7,,,48,48
26600,note_on,21,0,8,,,,,,,,7,,,70,32
26600,note_on,0,0,2,,,,,,,,1,,,75,49
26619,note_on,19,0,8,,,,,,,,7,,,70,0
26619,note_on,19,0,11,,,,,,,,7,,,60,0
26619,note_on,19,0,12,,,,,,,,7,,,48,0
26619,note_on,19,0,10,,,,,,,,7,,,60,0
26619,note_on,19,0,3,,,,,,,,2,,,70,0
26619,note_on,19,0,9,,,,,,,,7,,,63,0
26619,note_on,0,0,2,,,,,,,,1,,,82,0
26619,note_on,19,0,2,,,,,,,,1,,,75,0
26640,note_on,21,0,9,,,,,,,,7,,,62,32
26640,note_on,21,0,11,,,,,,,,7,,,58,32
26640,note_on,21,0,12,,,,,,,,7,,,46,48
26640,note_on,21,0,3,,,,,,,,2,,,70,48
26640,note_on,21,0,8,,,,,,,,7,,,70,32
26640,note_on,21,0,10,,,,,,,,7,,,58,33
26640,note_on,0,0,2,,,,,,,,1,,,74,49
26640,note_on,21,0,2,,,,,,,,1,,,82,49
26659,note_on,19,0,3,,,,,,,,2,,,70,0
26659,note_on,19,0,2,,,,,,,,1,,,74,0
26659,note_on,19,0,8,,,,,,,,7,,,70,0
26659,note_on,19,0,9,,,,,,,,7,,,62,0
26659,note_on,0,0,2,,,,,,,,1,,,82,0
26659,note_on,19,0,11,,,,,,,,7,,,58,0
26659,note_on,19,0,10,,,,,,,,7,,,58,0
26659,note_on,19,0,12,,,,,,,,7,,,46,0
26680,note_on,21,0,12,,,,,,,,7,,,50,48
26680,note_on,21,0,10,,,,,,,,7,,,62,33
26680,note_on,21,0,3,,,,,,,,2,,,70,48
26680,note_on,21,0,9,,,,,,,,7,,,65,32
26680,note_on,21,0,8,,,,,,,,7,,,70,32
26680,note_on,0,0,2,,,,,,,,1,,,77,49
26680,note_on,21,0,2,,,,,,,,1,,,82,49
26680,note_on,21,0,11,,,,,,,,7,,,62,32
26699,note_on,19,0,8,,,,,,,,7,,,70,0
26699,note_on,19,0,10,,,,,,,,7,,,62,0
26699,note_on,19,0,3,,,,,,,,2,,,70,0
26699,note_on,19,0,2,,,,,,,,1,,,77,0
26699,note_on,19,0,11,,,,,,,,7,,,62,0
26699,note_on,0,0,2,,,,,,,,1,,,82,0
26699,note_on,19,0,9,,,,,,,,7,,,65,0
26699,note_on,19,0,12,,,,,,,,7,,,50,0
26720,note_on,21,0,12,,,,,,,,7,,,48,48
26720,note_on,21,0,11,,,,,,,,7,,,60,32
26720,note_on,21,0,3,,,,,,,,2,,,70,48
26720,note_on,21,0,9,,,,,,,,7,,,63,32
26720,note_on,21,0,8,,,,,,,,7,,,70,32
26720,note_on,21,0,2,,,,,,,,1,,,82,49
26720,note_on,0,0,2,,,,,,,,1,,,75,49
26720,note_on,21,0,10,,,,,,,,7,,,60,33
26739,note_on,19,0,3,,,,,,,,2,,,70,0
26739,note_on,19,0,8,,,,,,,,7,,,70,0
26739,note_on,0,0,2,,,,,,,,1,,,82,0
26739,note_on,19,0,2,,,,,,,,1,,,75,0
26739,note_on,19,0,9,,,,,,,,7,,,63,0
26739,note_on,19,0,10,,,,,,,,7,,,60,0
26739,note_on,19,0,12,,,,,,,,7,,,48,0
26739,note_on,19,0,11,,,,,,,,7,,,60,0
26760,note_on,21,0,2,,,,,,,,1,,,82,49
26760,note_on,0,0,2,,,,,,,,1,,,74,49
26760,note_on,21,0,3,,,,,,,,2,,,70,48
26760,note_on,21,0,10,,,,,,,,7,,,58,33
26760,note_on,21,0,9,,,,,,,,7,,,62,32
26760,note_on,21,0,12,,,,,,,,7,,,46,48
26760,note_on,21,0,8,,,,,,,,7,,,70,32
26760,note_on,21,0,11,,,,,,,,7,,,58,32
26779,note_on,19,0,12,,,,,,,,7,,,46,0
26779,note_on,19,0,11,,,,,,,,7,,,58,0
26779,note_on,19,0,2,,,,,,,,1,,,74,0
26779,note_on,19,0,9,,,,,,,,7,,,62,0
26779,note_on,19,0,10,,,,,,,,7,,,58,0
26800,note_on,21,0,12,,,,,,,,7,,,46,48
26800,note_on,21,0,10,,,,,,,,7,,,62,33
26800,note_on,40,0,3,,,,,,,,2,,,72,48
26800,note_on,21,0,2,,,,,,,,1,,,84,49
26800,note_on,21,0,9,,,,,,,,7,,,74,32
26800,note_on,21,0,11,,,,,,,,7,,,58,32
26800,note_on,40,0,8,,,,,,,,7,,,72,32
26800,note_on,0,0,2,,,,,,,,1,,,74,49
26802,note_on,2,0,8,,,,,,,,7,,,70,0
26802,note_on,2,0,2,,,,,,,,1,,,82,0
26802,note_on,2,0,3,,,,,,,,2,,,70,0
26819,note_on,19,0,10,,,,,,,,7,,,62,0
26819,note_on,17,0,2,,,,,,,,1,,,74,0
26819,note_on,19,0,12,,,,,,,,7,,,46,0
26819,note_on,19,0,9,,,,,,,,7,,,74,0
26819,note_on,19,0,11,,,,,,,,7,,,58,0
26820,note_on,18,0,8,,,,,,,,7,,,70,32
26820,note_on,1,0,2,,,,,,,,1,,,82,49
26820,note_on,18,0,3,,,,,,,,2,,,70,48
26822,note_on,2,0,3,,,,,,,,2,,,72,0
26822,note_on,2,0,2,,,,,,,,1,,,84,0
26822,note_on,2,0,8,,,,,,,,7,,,72,0
26840,note_on,21,0,12,,,,,,,,7,,,48,48
26840,note_on,21,0,10,,,,,,,,7,,,63,33
26840,note_on,0,0,2,,,,,,,,1,,,81,49
26840,note_on,18,0,3,,,,,,,,2,,,69,48
26840,note_on,21,0,9,,,,,,,,7,,,75,32
26840,note_on,21,0,11,,,,,,,,7,,,60,32
26840,note_on,18,0,8,,,,,,,,7,,,69,32
26840,note_on,18,0,2,,,,,,,,1,,,75,49
26842,note_on,2,0,8,,,,,,,,7,,,70,0
26842,note_on,2,0,2,,,,,,,,1,,,82,0
26842,note_on,2,0,3,,,,,,,,2,,,70,0
26859,note_on,19,0,11,,,,,,,,7,,,60,0
26859,note_on,19,0,9,,,,,,,,7,,,75,0
26859,note_on,17,0,2,,,,,,,,1,,,75,0
26859,note_on,19,0,10,,,,,,,,7,,,63,0
26859,note_on,19,0,12,,,,,,,,7,,,48,0
26860,note_on,18,0,3,,,,,,,,2,,,67,48
26860,note_on,18,0,8,,,,,,,,7,,,67,32
26860,note_on,1,0,2,,,,,,,,1,,,79,49
26862,note_on,2,0,3,,,,,,,,2,,,69,0
26862,note_on,2,0,2,,,,,,,,1,,,81,0
26862,note_on,2,0,8,,,,,,,,7,,,69,0
26879,note_on,17,0,2,,,,,,,,1,,,79,0
26879,note_on,17,0,8,,,,,,,,7,,,67,0
26880,note_on,21,0,11,,,,,,,,7,,,62,32
26880,note_on,21,0,10,,,,,,,,7,,,65,33
26880,note_on,18,0,3,,,,,,,,2,,,65,48
26880,note_on,1,0,2,,,,,,,,1,,,77,49
26880,note_on,21,0,9,,,,,,,,7,,,77,32
26880,note_on,21,0,12,,,,,,,,7,,,50,48
26882,note_on,2,0,3,,,,,,,,2,,,67,0
26899,note_on,19,0,12,,,,,,,,7,,,50,0
26899,note_on,19,0,9,,,,,,,,7,,,77,0
26899,note_on,19,0,11,,,,,,,,7,,,62,0
26899,note_on,19,0,10,,,,,,,,7,,,65,0
26900,note_on,21,0,8,,,,,,,,7,,,65,32
26920,note_on,21,0,12,,,,,,,,7,,,45,48
26920,note_on,21,0,11,,,,,,,,7,,,57,32
26920,note_on,21,0,9,,,,,,,,7,,,72,32
26920,note_on,21,0,10,,,,,,,,7,,,60,33
26920,note_on,40,0,2,,,,,,,,1,,,72,49
26939,note_on,19,0,10,,,,,,,,7,,,60,0
26939,note_on,19,0,9,,,,,,,,7,,,72,0
26939,note_on,19,0,2,,,,,,,,1,,,72,0
26939,note_on,19,0,12,,,,,,,,7,,,45,0
26939,note_on,19,0,11,,,,,,,,7,,,57,0
26960,note_on,21,0,10,,,,,,,,7,,,62,33
26960,note_on,21,0,9,,,,,,,,7,,,74,32
26960,note_on,21,0,2,,,,,,,,1,,,74,49
26960,note_on,21,0,12,,,,,,,,7,,,47,48
26960,note_on,21,0,11,,,,,,,,7,,,59,32
26979,note_on,19,0,11,,,,,,,,7,,,59,0
26979,note_on,19,0,2,,,,,,,,1,,,74,0
26979,note_on,19,0,9,,,,,,,,7,,,74,0
26979,note_on,19,0,10,,,,,,,,7,,,62,0
26979,note_on,19,0,12,,,,,,,,7,,,47,0
26999,note_on,117,0,3,,,,,,,,2,,,65,0
26999,note_on,99,0,8,,,,,,,,7,,,65,0
26999,note_on,20,0,2,,,,,,,,1,,,77,0
27000,note_on,1,0,2,,,,,,,,1,,,75,49
27000,note_on,1,0,3,,,,,,,,2,,,63,48
27000,note_on,21,0,12,,,,,,,,7,,,48,48
27000,note_on,21,0,11,,,,,,,,7,,,60,32
27000,note_on,21,0,9,,,,,,,,7,,,75,32
27000,note_on,21,0,10,,,,,,,,7,,,63,33
27019,note_on,19,0,9,,,,,,,,7,,,75,0
27019,note_on,19,0,11,,,,,,,,7,,,60,0
27019,note_on,19,0,12,,,,,,,,7,,,48,0
27019,note_on,19,0,10,,,,,,,,7,,,63,0
27020,note_on,21,0,8,,,,,,,,7,,,63,32
27040,note_on,21,0,11,,,,,,,,7,,,55,32
27040,note_on,21,0,9,,,,,,,,7,,,70,32
27040,note_on,21,0,10,,,,,,,,7,,,58,33
27040,note_on,40,0,2,,,,,,,,1,,,70,49
27040,note_on,21,0,12,,,,,,,,7,,,43,48
27059,note_on,19,0,10,,,,,,,,7,,,58,0
27059,note_on,19,0,9,,,,,,,,7,,,70,0
27059,note_on,19,0,2,,,,,,,,1,,,70,0
27059,note_on,19,0,11,,,,,,,,7,,,55,0
27059,note_on,19,0,12,,,,,,,,7,,,43,0
27080,note_on,21,0,10,,,,,,,,7,,,60,33
27080,note_on,21,0,12,,,,,,,,7,,,45,48
27080,note_on,21,0,9,,,,,,,,7,,,72,32
27080,note_on,21,0,11,,,,,,,,7,,,57,32
27080,note_on,21,0,2,,,,,,,,1,,,72,49
27099,note_on,19,0,12,,,,,,,,7,,,45,0
27099,note_on,19,0,9,,,,,,,,7,,,72,0
27099,note_on,19,0,11,,,,,,,,7,,,57,0
27099,note_on,19,0,2,,,,,,,,1,,,72,0
27099,note_on,19,0,10,,,,,,,,7,,,60,0
27119,note_on,99,0,8,,,,,,,,7,,,63,0
27119,note_on,119,0,3,,,,,,,,2,,,63,0
27119,note_on,20,0,2,,,,,,,,1,,,75,0
27120,note_on,1,0,8,,,,,,,,7,,,62,32
27120,note_on,21,0,9,,,,,,,,7,,,65,32
27120,note_on,1,0,2,,,,,,,,1,,,74,49
27120,note_on,21,0,11,,,,,,,,7,,,58,32
27120,note_on,21,0,12,,,,,,,,7,,,46,48
27120,note_on,1,0,3,,,,,,,,2,,,62,48
27120,note_on,21,0,10,,,,,,,,7,,,53,33
27139,note_on,19,0,9,,,,,,,,7,,,65,0
27139,note_on,19,0,10,,,,,,,,7,,,53,0
27139,note_on,19,0,11,,,,,,,,7,,,58,0
27139,note_on,19,0,12,,,,,,,,7,,,46,0
27160,note_on,40,0,3,,,,,,,,2,,,65,48
27160,note_on,40,0,8,,,,,,,,7,,,65,32
27160,note_on,21,0,12,,,,,,,,7,,,41,48
27160,note_on,40,0,2,,,,,,,,1,,,77,49
27160,note_on,21,0,10,,,,,,,,7,,,57,33
27160,note_on,21,0,9,,,,,,,,7,,,69,32
27160,note_on,21,0,11,,,,,,,,7,,,53,32
27162,note_on,2,0,8,,,,,,,,7,,,62,0
27162,note_on,2,0,3,,,,,,,,2,,,62,0
27162,note_on,2,0,2,,,,,,,,1,,,74,0
27179,note_on,19,0,9,,,,,,,,7,,,69,0
27179,note_on,19,0,11,,,,,,,,7,,,53,0
27179,note_on,19,0,12,,,,,,,,7,,,41,0
27179,note_on,19,0,10,,,,,,,,7,,,57,0
27199,note_on,37,0,2,,,,,,,,1,,,77,0
27199,note_on,37,0,8,,,,,,,,7,,,65,0
27199,note_on,37,0,3,,,,,,,,2,,,65,0
27200,note_on,1,0,8,,,,,,,,7,,,62,32
27200,note_on,1,0,2,,,,,,,,1,,,74,49
27200,note_on,21,0,9,,,,,,,,7,,,70,32
27200,note_on,21,0,12,,,,,,,,7,,,43,48
27200,note_on,21,0,11,,,,,,,,7,,,55,32
27200,note_on,1,0,3,,,,,,,,2,,,62,48
27200,note_on,21,0,10,,,,,,,,7,,,58,33
27219,note_on,19,0,11,,,,,,,,7,,,55,0
27219,note_on,19,0,9,,,,,,,,7,,,70,0
27219,note_on,19,0,8,,,,,,,,7,,,62,0
27219,note_on,19,0,3,,,,,,,,2,,,62,0
27219,note_on,19,0,2,,,,,,,,1,,,74,0
27219,note_on,19,0,10,,,,,,,,7,,,58,0
27219,note_on,19,0,12,,,,,,,,7,,,43,0
27240,note_on,21,0,10,,,,,,,,7,,,55,34
27240,note_on,21,0,11,,,,,,,,7,,,51,32
27240,note_on,21,0,9,,,,,,,,7,,,67,32
27240,note_on,21,0,8,,,,,,,,7,,,60,32
27240,note_on,21,0,2,,,,,,,,1,,,72,49
27240,note_on,21,0,12,,,,,,,,7,,,39,48
27240,note_on,21,0,3,,,,,,,,2,,,60,48
27259,note_on,19,0,9,,,,,,,,7,,,67,0
27259,note_on,19,0,12,,,,,,,,7,,,39,0
27259,note_on,19,0,10,,,,,,,,7,,,55,0
27259,note_on,19,0,11,,,,,,,,7,,,51,0
27280,note_on,40,0,3,,,,,,,,2,,,63,48
27280,note_on,21,0,9,,,,,,,,7,,,67,32
27280,note_on,21,0,11,,,,,,,,7,,,48,32
27280,note_on,40,0,8,,,,,,,,7,,,63,32
27280,note_on,40,0,2,,,,,,,,1,,,75,49
27280,note_on,21,0,10,,,,,,,,7,,,55,33
27280,note_on,21,0,12,,,,,,,,7,,,36,48
27282,note_on,2,0,2,,,,,,,,1,,,72,0
27282,note_on,2,0,8,,,,,,,,7,,,60,0
27282,note_on,2,0,3,,,,,,,,2,,,60,0
27299,note_on,19,0,9,,,,,,,,7,,,67,0
27299,note_on,19,0,12,,,,,,,,7,,,36,0
27299,note_on,19,0,11,,,,,,,,7,,,48,0
27299,note_on,19,0,10,,,,,,,,7,,,55,0
27319,note_on,37,0,8,,,,,,,,7,,,63,0
27319,note_on,37,0,3,,,,,,,,2,,,63,0
27319,note_on,37,0,2,,,,,,,,1,,,75,0
27320,note_on,21,0,11,,,,,,,,7,,,53,32
27320,note_on,21,0,12,,,,,,,,7,,,41,48
27320,note_on,21,0,10,,,,,,,,7,,,57,33
27320,note_on,1,0,3,,,,,,,,2,,,60,48
27320,note_on,1,0,2,,,,,,,,1,,,72,49
27320,note_on,1,0,8,,,,,,,,7,,,60,32
27320,note_on,21,0,9,,,,,,,,7,,,69,32
27339,note_on,19,0,11,,,,,,,,7,,,53,0
27339,note_on,19,0,3,,,,,,,,2,,,60,0
27339,note_on,19,0,12,,,,,,,,7,,,41,0
27339,note_on,19,0,10,,,,,,,,7,,,57,0
27339,note_on,19,0,2,,,,,,,,1,,,72,0
27339,note_on,19,0,9,,,,,,,,7,,,69,0
27339,note_on,19,0,8,,,,,,,,7,,,60,0
27360,note_on,21,0,2,,,,,,,,1,,,70,52
27360,note_on,21,0,11,,,,,,,,7,,,46,35
27360,note_on,21,0,10,,,,,,,,7,,,58,33
27360,note_on,21,0,3,,,,,,,,2,,,58,51
27360,note_on,21,0,12,,,,,,,,7,,,34,47
27360,note_on,1061,0,4,,,,,,,,3,,,46,35
27360,note_on,21,0,9,,,,,,,,7,,,70,35
27360,note_on,21,0,8,,,,,,,,7,,,58,32
27360,note_on,0,0,4,,,,,,,,3,,,58,35
27360,note_on,3701,0,1,,,,,,,,0,,,82,51
27379,note_on,19,0,8,,,,,,,,7,,,58,0
27379,note_on,19,0,1,,,,,,,,0,,,82,0
27379,note_on,19,0,9,,,,,,,,7,,,70,0
27379,note_on,19,0,11,,,,,,,,7,,,46,0
27379,note_on,19,0,2,,,,,,,,1,,,70,0
27379,note_on,19,0,10,,,,,,,,7,,,58,0
27379,note_on,0,0,4,,,,,,,,3,,,46,0
27379,note_on,19,0,4,,,,,,,,3,,,58,0
27379,note_on,19,0,3,,,,,,,,2,,,58,0
27379,note_on,19,0,12,,,,,,,,7,,,34,0
27400,note_on,21,0,11,,,,,,,,7,,,48,65
27400,note_on,21,0,10,,,,,,,,7,,,60,63
27400,note_on,21,0,12,,,,,,,,7,,,36,78
27400,note_on,21,0,2,,,,,,,,1,,,72,76
27400,note_on,21,0,3,,,,,,,,2,,,60,76
27400,note_on,21,0,8,,,,,,,,7,,,60,63
27400,note_on,21,0,9,,,,,,,,7,,,72,71
27400,note_on,21,0,1,,,,,,,,0,,,84,75
27400,note_on,0,0,4,,,,,,,,3,,,60,66
27400,note_on,21,0,4,,,,,,,,3,,,48,66
27419,note_on,19,0,12,,,,,,,,7,,,36,0
27419,note_on,19,0,11,,,,,,,,7,,,48,0
27419,note_on,19,0,10,,,,,,,,7,,,60,0
27419,note_on,0,0,4,,,,,,,,3,,,48,0
27419,note_on,19,0,4,,,,,,,,3,,,60,0
27419,note_on,19,0,9,,,,,,,,7,,,72,0
27419,note_on,19,0,2,,,,,,,,1,,,72,0
27419,note_on,19,0,3,,,,,,,,2,,,60,0
27419,note_on,19,0,1,,,,,,,,0,,,84,0
27419,note_on,19,0,8,,,,,,,,7,,,60,0
27440,note_on,21,0,3,,,,,,,,2,,,62,101
27440,note_on,21,0,12,,,,,,,,7,,,38,110
27440,note_on,21,0,8,,,,,,,,7,,,62,93
27440,note_on,21,0,10,,,,,,,,7,,,62,94
27440,note_on,21,0,4,,,,,,,,3,,,50,96
27440,note_on,0,0,4,,,,,,,,3,,,62,96
27440,note_on,21,0,2,,,,,,,,1,,,74,100
27440,note_on,21,0,1,,,,,,,,0,,,86,99
27440,note_on,21,0,11,,,,,,,,7,,,50,94
27440,note_on,21,0,9,,,,,,,,7,,,74,106
27459,note_on,19,0,11,,,,,,,,7,,,50,0
27459,note_on,19,0,12,,,,,,,,7,,,38,0
27459,note_on,19,0,3,,,,,,,,2,,,62,0
27459,note_on,0,0,4,,,,,,,,3,,,50,0
27459,note_on,19,0,4,,,,,,,,3,,,62,0
27459,note_on,19,0,2,,,,,,,,1,,,74,0
27459,note_on,19,0,10,,,,,,,,7,,,62,0
27459,note_on,19,0,1,,,,,,,,0,,,86,0
27459,note_on,19,0,9,,,,,,,,7,,,74,0
27459,note_on,19,0,8,,,,,,,,7,,,62,0
27480,note_on,21,0,12,,,,,,,,7,,,39,127
27480,note_on,21,0,3,,,,,,,,2,,,63,127
27480,note_on,7641,0,6,,,,,,,,5,,,75,127
27480,note_on,21,0,8,,,,,,,,7,,,63,127
27480,note_on,7641,0,7,,,,,,,,6,,,51,127
27480,note_on,0,0,5,,,,,,,,4,,,51,127
27480,note_on,21,0,11,,,,,,,,7,,,51,126
27480,note_on,21,0,1,,,,,,,,0,,,87,127
27480,note_on,0,0,6,,,,,,,,5,,,63,127
27480,note_on,941,0,5,,,,,,,,4,,,63,127
27480,note_on,21,0,10,,,,,,,,7,,,63,127
27480,note_on,21,0,2,,,,,,,,1,,,75,127
27480,note_on,21,0,9,,,,,,,,7,,,75,127
27480,note_on,0,0,4,,,,,,,,3,,,51,127
27480,note_on,21,0,4,,,,,,,,3,,,63,127
27519,note_on,39,0,11,,,,,,,,7,,,51,0
27519,note_on,39,0,1,,,,,,,,0,,,87,0
27519,note_on,39,0,5,,,,,,,,4,,,51,0
27519,note_on,0,0,5,,,,,,,,4,,,63,0
27519,note_on,39,0,6,,,,,,,,5,,,63,0
27519,note_on,39,0,3,,,,,,,,2,,,63,0
27519,note_on,0,0,6,,,,,,,,5,,,75,0
27519,note_on,39,0,12,,,,,,,,7,,,39,0
27519,note_on,39,0,10,,,,,,,,7,,,63,0
27519,note_on,39,0,9,,,,,,,,7,,,75,0
27519,note_on,39,0,8,,,,,,,,7,,,63,0
27519,note_on,39,0,7,,,,,,,,6,,,51,0
27519,note_on,0,0,4,,,,,,,,3,,,63,0
27519,note_on,39,0,2,,,,,,,,1,,,75,0
27519,note_on,39,0,4,,,,,,,,3,,,51,0
27520,note_on,1,0,12,,,,,,,,7,,,43,127
27520,note_on,0,0,8,,,,,,,,7,,,67,127
27520,note_on,0,0,6,,,,,,,,5,,,63,127
27520,note_on,1,0,6,,,,,,,,5,,,75,127
27520,note_on,0,0,3,,,,,,,,2,,,63,127
27520,note_on,1,0,3,,,,,,,,2,,,75,127
27520,note_on,0,0,5,,,,,,,,4,,,63,127
27520,note_on,0,0,5,,,,,,,,4,,,51,127
27520,note_on,1,0,5,,,,,,,,4,,,67,127
27520,note_on,0,0,4,,,,,,,,3,,,63,127
27520,note_on,1,0,4,,,,,,,,3,,,55,127
27520,note_on,1,0,10,,,,,,,,7,,,67,127
27520,note_on,0,0,9,,,,,,,,7,,,75,127
27520,note_on,1,0,1,,,,,,,,0,,,87,127
27520,note_on,1,0,2,,,,,,,,1,,,75,127
27520,note_on,1,0,7,,,,,,,,6,,,51,127
27520,note_on,1,0,9,,,,,,,,7,,,67,127
27520,note_on,1,0,11,,,,,,,,7,,,55,127
27520,note_on,1,0,8,,,,,,,,7,,,75,127
27559,note_on,39,0,10,,,,,,,,7,,,67,0
27559,note_on,39,0,7,,,,,,,,6,,,51,0
27559,note_on,39,0,12,,,,,,,,7,,,43,0
27559,note_on,0,0,6,,,,,,,,5,,,75,0
27559,note_on,39,0,6,,,,,,,,5,,,63,0
27559,note_on,0,0,9,,,,,,,,7,,,67,0
27559,note_on,39,0,8,,,,,,,,7,,,67,0
27559,note_on,0,0,3,,,,,,,,2,,,75,0
27559,note_on,39,0,3,,,,,,,,2,,,63,0
27559,note_on,0,0,8,,,,,,,,7,,,75,0
27559,note_on,39,0,5,,,,,,,,4,,,63,0
27559,note_on,39,0,4,,,,,,,,3,,,63,0
27559,note_on,39,0,1,,,,,,,,0,,,87,0
27559,note_on,39,0,2,,,,,,,,1,,,75,0
27559,note_on,39,0,11,,,,,,,,7,,,55,0
27559,note_on,0,0,4,,,,,,,,3,,,55,0
27559,note_on,0,0,5,,,,,,,,4,,,51,0
27559,note_on,39,0,9,,,,,,,,7,,,75,0
27559,note_on,0,0,5,,,,,,,,4,,,67,0
27560,note_on,1,0,9,,,,,,,,7,,,75,127
27560,note_on,1,0,5,,,,,,,,4,,,70,127
27560,note_on,0,0,5,,,,,,,,4,,,51,127
27560,note_on,0,0,5,,,,,,,,4,,,63,127
27560,note_on,0,0,9,,,,,,,,7,,,67,127
27560,note_on,1,0,12,,,,,,,,7,,,46,127
27560,note_on,1,0,6,,,,,,,,5,,,75,127
27560,note_on,1,0,7,,,,,,,,6,,,51,127
27560,note_on,1,0,1,,,,,,,,0,,,87,127
27560,note_on,1,0,2,,,,,,,,1,,,75,127
27560,note_on,0,0,6,,,,,,,,5,,,63,127
27560,note_on,1,0,3,,,,,,,,2,,,75,127
27560,note_on,1,0,8,,,,,,,,7,,,75,127
27560,note_on,0,0,8,,,,,,,,7,,,67,127
27560,note_on,1,0,10,,,,,,,,7,,,70,127
27560,note_on,1,0,11,,,,,,,,7,,,58,127
27560,note_on,0,0,3,,,,,,,,2,,,63,127
27560,note_on,0,0,4,,,,,,,,3,,,63,127
27560,note_on,1,0,4,,,,,,,,3,,,58,127
27599,note_on,39,0,6,,,,,,,,5,,,63,0
27599,note_on,0,0,4,,,,,,,,3,,,58,0
27599,note_on,0,0,9,,,,,,,,7,,,75,0
27599,note_on,0,0,3,,,,,,,,2,,,75,0
27599,note_on,0,0,5,,,,,,,,4,,,51,0
27599,note_on,39,0,12,,,,,,,,7,,,46,0
27599,note_on,0,0,5,,,,,,,,4,,,70,0
27599,note_on,39,0,7,,,,,,,,6,,,51,0
27599,note_on,39,0,2,,,,,,,,1,,,75,0
27599,note_on,0,0,6,,,,,,,,5,,,75,0
27599,note_on,39,0,9,,,,,,,,7,,,67,0
27599,note_on,39,0,1,,,,,,,,0,,,87,0
27599,note_on,39,0,5,,,,,,,,4,,,63,0
27599,note_on,39,0,11,,,,,,,,7,,,58,0
27599,note_on,39,0,8,,,,,,,,7,,,67,0
27599,note_on,0,0,8,,,,,,,,7,,,75,0
27599,note_on,39,0,10,,,,,,,,7,,,70,0
27599,note_on,39,0,4,,,,,,,,3,,,63,0
27599,note_on,39,0,3,,,,,,,,2,,,63,0
27600,note_on,1,0,5,,,,,,,,4,,,51,127
27600,note_on,0,0,5,,,,,,,,4,,,63,127
27600,note_on,1,0,6,,,,,,,,5,,,75,127
27600,note_on,0,0,6,,,,,,,,5,,,63,127
27600,note_on,1,0,4,,,,,,,,3,,,63,127
27600,note_on,0,0,4,,,,,,,,3,,,51,127
27600,note_on,1,0,2,,,,,,,,1,,,75,127
27600,note_on,1,0,10,,,,,,,,7,,,63,127
27600,note_on,1,0,7,,,,,,,,6,,,51,127
27600,note_on,1,0,12,,,,,,,,7,,,39,127
27600,note_on,0,0,3,,,,,,,,2,,,63,127
27600,note_on,0,0,8,,,,,,,,7,,,67,127
27600,note_on,1,0,8,,,,,,,,7,,,75,127
27600,note_on,1,0,11,,,,,,,,7,,,51,127
27600,note_on,1,0,1,,,,,,,,0,,,87,127
27600,note_on,0,0,9,,,,,,,,7,,,75,127
27600,note_on,1,0,9,,,,,,,,7,,,67,127
27600,note_on,1,0,3,,,,,,,,2,,,75,127
27639,note_on,0,0,5,,,,,,,,4,,,51,0
27639,note_on,39,0,10,,,,,,,,7,,,63,0
27639,note_on,0,0,8,,,,,,,,7,,,75,0
27639,note_on,39,0,8,,,,,,,,7,,,67,0
27639,note_on,39,0,11,,,,,,,,7,,,51,0
27639,note_on,39,0,5,,,,,,,,4,,,63,0
27639,note_on,39,0,7,,,,,,,,6,,,51,0
27639,note_on,39,0,1,,,,,,,,0,,,87,0
27639,note_on,39,0,6,,,,,,,,5,,,63,0
27639,note_on,39,0,3,,,,,,,,2,,,63,0
27639,note_on,39,0,9,,,,,,,,7,,,75,0
27639,note_on,0,0,9,,,,,,,,7,,,67,0
27639,note_on,0,0,3,,,,,,,,2,,,75,0
27639,note_on,39,0,4,,,,,,,,3,,,51,0
27639,note_on,39,0,2,,,,,,,,1,,,75,0
27639,note_on,0,0,4,,,,,,,,3,,,63,0
27639,note_on,0,0,6,,,,,,,,5,,,75,0
27639,note_on,39,0,12,,,,,,,,7,,,39,0
27640,note_on,1,0,3,,,,,,,,2,,,75,127
27640,note_on,1,0,5,,,,,,,,4,,,67,127
27640,note_on,1,0,10,,,,,,,,7,,,67,127
27640,note_on,1,0,12,,,,,,,,7,,,43,127
27640,note_on,0,0,5,,,,,,,,4,,,51,127
27640,note_on,0,0,8,,,,,,,,7,,,67,127
27640,note_on,1,0,1,,,,,,,,0,,,87,127
27640,note_on,0,0,4,,,,,,,,3,,,55,127
27640,note_on,1,0,9,,,,,,,,7,,,67,127
27640,note_on,1,0,6,,,,,,,,5,,,75,127
27640,note_on,0,0,6,,,,,,,,5,,,63,127
27640,note_on,1,0,4,,,,,,,,3,,,63,127
27640,note_on,0,0,9,,,,,,,,7,,,75,127
27640,note_on,1,0,2,,,,,,,,1,,,75,127
27640,note_on,0,0,5,,,,,,,,4,,,63,127
27640,note_on,1,0,8,,,,,,,,7,,,75,127
27640,note_on,1,0,7,,,,,,,,6,,,51,127
27640,note_on,0,0,3,,,,,,,,2,,,63,127
27640,note_on,1,0,11,,,,,,,,7,,,55,127
27679,note_on,39,0,11,,,,,,,,7,,,55,0
27679,note_on,39,0,1,,,,,,,,0,,,87,0
27679,note_on,0,0,6,,,,,,,,5,,,75,0
27679,note_on,39,0,6,,,,,,,,5,,,63,0
27679,note_on,39,0,4,,,,,,,,3,,,55,0
27679,note_on,0,0,4,,,,,,,,3,,,63,0
27679,note_on,39,0,5,,,,,,,,4,,,63,0
27679,note_on,0,0,9,,,,,,,,7,,,67,0
27679,note_on,39,0,7,,,,,,,,6,,,51,0
27679,note_on,39,0,12,,,,,,,,7,,,43,0
27679,note_on,39,0,8,,,,,,,,7,,,67,0
27679,note_on,0,0,8,,,,,,,,7,,,75,0
27679,note_on,39,0,10,,,,,,,,7,,,67,0
27679,note_on,0,0,5,,,,,,,,4,,,51,0
27679,note_on,0,0,5,,,,,,,,4,,,67,0
27679,note_on,39,0,9,,,,,,,,7,,,75,0
27679,note_on,39,0,2,,,,,,,,1,,,75,0
27679,note_on,0,0,3,,,,,,,,2,,,75,0
27679,note_on,39,0,3,,,,,,,,2,,,63,0
27680,note_on,0,0,4,,,,,,,,3,,,58,127
27680,note_on,1,0,4,,,,,,,,3,,,63,127
27680,note_on,0,0,8,,,,,,,,7,,,67,127
27680,note_on,0,0,6,,,,,,,,5,,,63,127
27680,note_on,1,0,6,,,,,,,,5,,,75,127
27680,note_on,1,0,8,,,,,,,,7,,,75,127
27680,note_on,1,0,1,,,,,,,,0,,,87,127
27680,note_on,1,0,7,,,,,,,,6,,,51,127
27680,note_on,1,0,10,,,,,,,,7,,,70,127
27680,note_on,0,0,9,,,,,,,,7,,,75,127
27680,note_on,1,0,12,,,,,,,,7,,,46,127
27680,note_on,1,0,11,,,,,,,,7,,,58,127
27680,note_on,1,0,2,,,,,,,,1,,,75,127
27680,note_on,0,0,3,,,,,,,,2,,,63,127
27680,note_on,1,0,5,,,,,,,,4,,,70,127
27680,note_on,0,0,5,,,,,,,,4,,,51,127
27680,note_on,0,0,5,,,,,,,,4,,,63,127
27680,note_on,1,0,9,,,,,,,,7,,,67,127
27680,note_on,1,0,3,,,,,,,,2,,,75,127
27719,note_on,0,0,3,,,,,,,,2,,,75,0
27719,note_on,39,0,3,,,,,,,,2,,,63,0
27719,note_on,39,0,9,,,,,,,,7,,,75,0
27719,note_on,39,0,12,,,,,,,,7,,,46,0
27719,note_on,39,0,6,,,,,,,,5,,,63,0
27719,note_on,39,0,1,,,,,,,,0,,,87,0
27719,note_on,39,0,10,,,,,,,,7,,,70,0
27719,note_on,39,0,11,,,,,,,,7,,,58,0
27719,note_on,39,0,4,,,,,,,,3,,,58,0
27719,note_on,0,0,9,,,,,,,,7,,,67,0
27719,note_on,0,0,6,,,,,,,,5,,,75,0
27719,note_on,0,0,4,,,,,,,,3,,,63,0
27719,note_on,39,0,7,,,,,,,,6,,,51,0
27719,note_on,39,0,2,,,,,,,,1,,,75,0
27719,note_on,39,0,8,,,,,,,,7,,,67,0
27719,note_on,0,0,5,,,,,,,,4,,,70,0
27719,note_on,0,0,5,,,,,,,,4,,,51,0
27719,note_on,39,0,5,,,,,,,,4,,,63,0
27719,note_on,0,0,8,,,,,,,,7,,,75,0
27720,note_on,0,0,4,,,,,,,,3,,,51,127
27720,note_on,1,0,12,,,,,,,,7,,,51,127
27720,note_on,1,0,7,,,,,,,,6,,,51,127
27720,note_on,1,0,4,,,,,,,,3,,,63,127
27720,note_on,1,0,10,,,,,,,,7,,,75,127
27720,note_on,1,0,8,,,,,,,,7,,,75,127
27720,note_on,0,0,9,,,,,,,,7,,,67,127
27720,note_on,1,0,9,,,,,,,,7,,,75,127
27720,note_on,0,0,8,,,,,,,,7,,,67,127
27720,note_on,0,0,6,,,,,,,,5,,,63,126
27720,note_on,1,0,6,,,,,,,,5,,,75,126
27720,note_on,1,0,5,,,,,,,,4,,,63,127
27720,note_on,0,0,5,,,,,,,,4,,,51,127
27720,note_on,1,0,3,,,,,,,,2,,,63,127
27720,note_on,1,0,2,,,,,,,,1,,,75,127
27720,note_on,1,0,11,,,,,,,,7,,,63,127
27720,note_on,1,0,1,,,,,,,,0,,,87,127
27720,note_on,0,0,3,,,,,,,,2,,,75,127
27739,note_on,19,0,7,,,,,,,,6,,,51,0
27740,note_on,1,0,7,,,,,,,,6,,,51,127
27759,note_on,39,0,10,,,,,,,,7,,,75,0
27759,note_on,39,0,11,,,,,,,,7,,,63,0
27759,note_on,39,0,4,,,,,,,,3,,,51,0
27759,note_on,19,0,7,,,,,,,,6,,,51,0
27759,note_on,39,0,12,,,,,,,,7,,,51,0
27759,note_on,39,0,8,,,,,,,,7,,,67,0
27760,note_on,1,0,4,,,,,,,,3,,,65,127
27760,note_on,1,0,12,,,,,,,,7,,,51,127
27760,note_on,1,0,8,,,,,,,,7,,,77,127
27760,note_on,1,0,7,,,,,,,,6,,,51,127
27760,note_on,40,0,2,,,,,,,,1,,,77,127
27760,note_on,0,0,3,,,,,,,,2,,,65,127
27760,note_on,40,0,9,,,,,,,,7,,,77,127
27760,note_on,1,0,11,,,,,,,,7,,,63,127
27760,note_on,1,0,10,,,,,,,,7,,,75,127
27760,note_on,40,0,1,,,,,,,,0,,,89,127
27760,note_on,0,0,4,,,,,,,,3,,,51,127
27760,note_on,40,0,3,,,,,,,,2,,,77,127
27760,note_on,40,0,5,,,,,,,,4,,,67,127
27762,note_on,2,0,3,,,,,,,,2,,,75,0
27762,note_on,0,0,3,,,,,,,,2,,,63,0
27762,note_on,2,0,9,,,,,,,,7,,,67,0
27762,note_on,0,0,9,,,,,,,,7,,,75,0
27762,note_on,2,0,2,,,,,,,,1,,,75,0
27762,note_on,2,0,1,,,,,,,,0,,,87,0
27762,note_on,2,0,8,,,,,,,,7,,,75,0
27762,note_on,2,0,4,,,,,,,,3,,,63,0
27779,note_on,19,0,7,,,,,,,,6,,,51,0
27780,note_on,18,0,8,,,,,,,,7,,,75,127
27780,note_on,18,0,3,,,,,,,,2,,,63,127
27780,note_on,1,0,7,,,,,,,,6,,,51,127
27780,note_on,18,0,1,,,,,,,,0,,,87,127
27780,note_on,18,0,2,,,,,,,,1,,,75,127
27780,note_on,18,0,9,,,,,,,,7,,,75,127
27780,note_on,0,0,3,,,,,,,,2,,,75,127
27780,note_on,18,0,4,,,,,,,,3,,,63,127
27782,note_on,0,0,3,,,,,,,,2,,,65,0
27782,note_on,2,0,1,,,,,,,,0,,,89,0
27782,note_on,2,0,2,,,,,,,,1,,,77,0
27782,note_on,2,0,4,,,,,,,,3,,,65,0
27782,note_on,2,0,9,,,,,,,,7,,,77,0
27782,note_on,2,0,3,,,,,,,,2,,,77,0
27782,note_on,2,0,8,,,,,,,,7,,,77,0
27799,note_on,19,0,7,,,,,,,,6,,,51,0
27799,note_on,39,0,12,,,,,,,,7,,,51,0
27799,note_on,17,0,4,,,,,,,,3,,,51,0
27799,note_on,39,0,11,,,,,,,,7,,,63,0
27799,note_on,39,0,10,,,,,,,,7,,,75,0
27799,note_on,39,0,5,,,,,,,,4,,,67,0
27800,note_on,18,0,8,,,,,,,,7,,,74,127
27800,note_on,0,0,4,,,,,,,,3,,,51,127
27800,note_on,1,0,4,,,,,,,,3,,,62,127
27800,note_on,1,0,11,,,,,,,,7,,,63,127
27800,note_on,1,0,10,,,,,,,,7,,,75,127
27800,note_on,18,0,9,,,,,,,,7,,,74,127
27800,note_on,1,0,12,,,,,,,,7,,,51,127
27800,note_on,18,0,1,,,,,,,,0,,,86,127
27800,note_on,0,0,3,,,,,,,,2,,,74,127
27800,note_on,18,0,2,,,,,,,,1,,,74,127
27800,note_on,1,0,5,,,,,,,,4,,,70,127
27800,note_on,1,0,7,,,,,,,,6,,,51,127
27800,note_on,18,0,3,,,,,,,,2,,,62,127
27802,note_on,2,0,3,,,,,,,,2,,,63,0
27802,note_on,2,0,2,,,,,,,,1,,,75,0
27802,note_on,2,0,9,,,,,,,,7,,,75,0
27802,note_on,2,0,4,,,,,,,,3,,,63,0
27802,note_on,2,0,8,,,,,,,,7,,,75,0
27802,note_on,0,0,3,,,,,,,,2,,,75,0
27802,note_on,2,0,1,,,,,,,,0,,,87,0
27819,note_on,19,0,7,,,,,,,,6,,,51,0
27820,note_on,18,0,8,,,,,,,,7,,,72,127
27820,note_on,18,0,4,,,,,,,,3,,,60,127
27820,note_on,1,0,7,,,,,,,,6,,,51,127
27820,note_on,18,0,3,,,,,,,,2,,,60,127
27820,note_on,0,0,3,,,,,,,,2,,,72,127
27820,note_on,18,0,9,,,,,,,,7,,,72,127
27820,note_on,18,0,2,,,,,,,,1,,,72,127
27820,note_on,18,0,1,,,,,,,,0,,,84,127
27822,note_on,2,0,8,,,,,,,,7,,,74,0
27822,note_on,2,0,4,,,,,,,,3,,,62,0
27822,note_on,2,0,2,,,,,,,,1,,,74,0
27822,note_on,2,0,9,,,,,,,,7,,,74,0
27822,note_on,0,0,3,,,,,,,,2,,,74,0
27822,note_on,2,0,3,,,,,,,,2,,,62,0
27822,note_on,2,0,1,,,,,,,,0,,,86,0
27839,note_on,39,0,5,,,,,,,,4,,,70,0
27839,note_on,17,0,9,,,,,,,,7,,,72,0
27839,note_on,0,0,5,,,,,,,,4,,,63,0
27839,note_on,39,0,12,,,,,,,,7,,,51,0
27839,note_on,19,0,7,,,,,,,,6,,,51,0
27839,note_on,17,0,8,,,,,,,,7,,,72,0
27839,note_on,39,0,10,,,,,,,,7,,,75,0
27839,note_on,39,0,11,,,,,,,,7,,,63,0
27839,note_on,17,0,4,,,,,,,,3,,,51,0
27840,note_on,0,0,3,,,,,,,,2,,,70,127
27840,note_on,18,0,3,,,,,,,,2,,,58,127
27840,note_on,18,0,1,,,,,,,,0,,,82,127
27840,note_on,1,0,7,,,,,,,,6,,,51,127
27840,note_on,1,0,5,,,,,,,,4,,,63,127
27840,note_on,1,0,11,,,,,,,,7,,,63,127
27840,note_on,1,0,10,,,,,,,,7,,,75,127
27840,note_on,1,0,12,,,,,,,,7,,,51,127
27840,note_on,1,0,9,,,,,,,,7,,,70,127
27840,note_on,1,0,4,,,,,,,,3,,,58,127
27840,note_on,0,0,4,,,,,,,,3,,,51,127
27840,note_on,18,0,2,,,,,,,,1,,,70,127
27842,note_on,2,0,1,,,,,,,,0,,,84,0
27842,note_on,2,0,4,,,,,,,,3,,,60,0
27842,note_on,2,0,3,,,,,,,,2,,,60,0
27842,note_on,0,0,3,,,,,,,,2,,,72,0
27842,note_on,2,0,2,,,,,,,,1,,,72,0
27859,note_on,19,0,7,,,,,,,,6,,,51,0
27860,note_on,21,0,8,,,,,,,,7,,,70,127
27860,note_on,1,0,7,,,,,,,,6,,,51,127
27879,note_on,19,0,7,,,,,,,,6,,,51,0
27879,note_on,39,0,10,,,,,,,,7,,,75,0
27879,note_on,39,0,12,,,,,,,,7,,,51,0
27879,note_on,39,0,5,,,,,,,,4,,,63,0
27879,note_on,0,0,5,,,,,,,,4,,,51,0
27879,note_on,37,0,4,,,,,,,,3,,,51,0
27879,note_on,159,0,6,,,,,,,,5,,,63,0
27879,note_on,39,0,11,,,,,,,,7,,,63,0
27879,note_on,0,0,6,,,,,,,,5,,,75,0
27880,note_on,1,0,11,,,,,,,,7,,,63,127
27880,note_on,1,0,10,,,,,,,,7,,,75,127
27880,note_on,1,0,7,,,,,,,,6,,,51,127
27880,note_on,0,0,5,,,,,,,,4,,,51,127
27880,note_on,1,0,5,,,,,,,,4,,,63,127
27880,note_on,0,0,6,,,,,,,,5,,,75,127
27880,note_on,1,0,6,,,,,,,,5,,,63,127
27880,note_on,1,0,12,,,,,,,,7,,,51,127
27880,note_on,1,0,4,,,,,,,,3,,,51,127
27899,note_on,19,0,7,,,,,,,,6,,,51,0
27900,note_on,1,0,7,,,,,,,,6,,,51,127
27919,note_on,39,0,6,,,,,,,,5,,,75,0
27919,note_on,39,0,10,,,,,,,,7,,,75,0
27919,note_on,0,0,6,,,,,,,,5,,,63,0
27919,note_on,39,0,4,,,,,,,,3,,,51,0
27919,note_on,39,0,5,,,,,,,,4,,,51,0
27919,note_on,0,0,5,,,,,,,,4,,,63,0
27919,note_on,39,0,11,,,,,,,,7,,,63,0
27919,note_on,39,0,12,,,,,,,,7,,,51,0
27919,note_on,19,0,7,,,,,,,,6,,,51,0
27920,note_on,1,0,4,,,,,,,,3,,,51,127
27920,note_on,1,0,6,,,,,,,,5,,,63,127
27920,note_on,0,0,6,,,,,,,,5,,,75,127
27920,note_on,1,0,10,,,,,,,,7,,,75,127
27920,note_on,1,0,5,,,,,,,,4,,,63,127
27920,note_on,0,0,5,,,,,,,,4,,,51,127
27920,note_on,1,0,12,,,,,,,,7,,,51,127
27920,note_on,1,0,7,,,,,,,,6,,,51,127
27920,note_on,1,0,11,,,,,,,,7,,,63,127
27939,note_on,19,0,7,,,,,,,,6,,,51,0
27940,note_on,1,0,7,,,,,,,,6,,,51,127
27959,note_on,39,0,4,,,,,,,,3,,,51,0
27959,note_on,39,0,12,,,,,,,,7,,,51,0
27959,note_on,99,0,8,,,,,,,,7,,,70,0
27959,note_on,0,0,4,,,,,,,,3,,,58,0
27959,note_on,117,0,2,,,,,,,,1,,,70,0
27959,note_on,119,0,9,,,,,,,,7,,,70,0
27959,note_on,39,0,11,,,,,,,,7,,,63,0
27959,note_on,39,0,6,,,,,,,,5,,,75,0
27959,note_on,0,0,6,,,,,,,,5,,,63,0
27959,note_on,117,0,1,,,,,,,,0,,,82,0
27959,note_on,39,0,10,,,,,,,,7,,,75,0
27959,note_on,39,0,5,,,,,,,,4,,,51,0
27959,note_on,117,0,3,,,,,,,,2,,,58,0
27959,note_on,0,0,3,,,,,,,,2,,,70,0
27959,note_on,0,0,5,,,,,,,,4,,,63,0
27959,note_on,19,0,7,,,,,,,,6,,,51,0
27960,note_on,1,0,6,,,,,,,,5,,,58,127
27960,note_on,1,0,3,,,,,,,,2,,,68,127
27960,note_on,1,0,12,,,,,,,,7,,,51,127
27960,note_on,1,0,7,,,,,,,,6,,,46,127
27960,note_on,0,0,6,,,,,,,,5,,,70,127
27960,note_on,1,0,10,,,,,,,,7,,,75,127
27960,note_on,1,0,8,,,,,,,,7,,,80,127
27960,note_on,1,0,4,,,,,,,,3,,,51,127
27960,note_on,1,0,2,,,,,,,,1,,,80,127
27960,note_on,0,0,5,,,,,,,,4,,,46,127
27960,note_on,1,0,1,,,,,,,,0,,,80,127
27960,note_on,1,0,5,,,,,,,,4,,,70,127
27960,note_on,1,0,9,,,,,,,,7,,,68,127
27960,note_on,1,0,11,,,,,,,,7,,,63,127
27960,note_on,0,0,5,,,,,,,,4,,,58,127
27999,note_on,39,0,7,,,,,,,,6,,,46,0
28000,note_on,40,0,4,,,,,,,,3,,,53,127
28000,note_on,40,0,12,,,,,,,,7,,,53,127
28000,note_on,40,0,11,,,,,,,,7,,,65,127
28000,note_on,40,0,10,,,,,,,,7,,,77,127
28002,note_on,2,0,10,,,,,,,,7,,,75,0
28002,note_on,2,0,12,,,,,,,,7,,,51,0
28002,note_on,2,0,4,,,,,,,,3,,,51,0
28002,note_on,2,0,11,,,,,,,,7,,,63,0
28020,note_on,18,0,12,,,,,,,,7,,,51,127
28020,note_on,18,0,10,,,,,,,,7,,,75,127
28020,note_on,18,0,4,,,,,,,,3,,,51,127
28020,note_on,18,0,11,,,,,,,,7,,,63,127
28022,note_on,2,0,4,,,,,,,,3,,,53,0
28022,note_on,2,0,11,,,,,,,,7,,,65,0
28022,note_on,2,0,12,,,,,,,,7,,,53,0
28022,note_on,2,0,10,,,,,,,,7,,,77,0
28040,note_on,18,0,10,,,,,,,,7,,,74,127
28040,note_on,18,0,4,,,,,,,,3,,,50,127
28040,note_on,18,0,12,,,,,,,,7,,,50,127
28040,note_on,18,0,11,,,,,,,,7,,,62,127
28042,note_on,2,0,4,,,,,,,,3,,,51,0
28042,note_on,2,0,12,,,,,,,,7,,,51,0
28042,note_on,2,0,11,,,,,,,,7,,,63,0
28042,note_on,2,0,10,,,,,,,,7,,,75,0
28060,note_on,18,0,4,,,,,,,,3,,,48,127
28060,note_on,18,0,12,,,,,,,,7,,,48,127
28060,note_on,18,0,11,,,,,,,,7,,,60,127
28060,note_on,18,0,10,,,,,,,,7,,,72,127
28062,note_on,2,0,11,,,,,,,,7,,,62,0
28062,note_on,2,0,4,,,,,,,,3,,,50,0
28062,note_on,2,0,12,,,,,,,,7,,,50,0
28062,note_on,2,0,10,,,,,,,,7,,,74,0
28079,note_on,119,0,1,,,,,,,,0,,,80,0
28079,note_on,119,0,9,,,,,,,,7,,,68,0
28079,note_on,0,0,5,,,,,,,,4,,,70,0
28079,note_on,0,0,6,,,,,,,,5,,,58,0
28079,note_on,119,0,5,,,,,,,,4,,,58,0
28079,note_on,119,0,3,,,,,,,,2,,,68,0
28079,note_on,0,0,5,,,,,,,,4,,,46,0
28079,note_on,119,0,8,,,,,,,,7,,,80,0
28079,note_on,119,0,6,,,,,,,,5,,,70,0
28079,note_on,17,0,12,,,,,,,,7,,,48,0
28079,note_on,119,0,2,,,,,,,,1,,,80,0
28080,note_on,0,0,4,,,,,,,,3,,,46,127
28080,note_on,1,0,9,,,,,,,,7,,,67,127
28080,note_on,1,0,2,,,,,,,,1,,,79,127
28080,note_on,1,0,6,,,,,,,,5,,,70,127
28080,note_on,0,0,6,,,,,,,,5,,,58,127
28080,note_on,1,0,1,,,,,,,,0,,,79,127
28080,note_on,81,0,7,,,,,,,,6,,,46,127
28080,note_on,1,0,5,,,,,,,,4,,,70,127
28080,note_on,1,0,12,,,,,,,,7,,,46,127
28080,note_on,1,0,3,,,,,,,,2,,,67,127
28080,note_on,0,0,5,,,,,,,,4,,,46,127
28080,note_on,1,0,8,,,,,,,,7,,,79,127
28080,note_on,0,0,5,,,,,,,,4,,,58,127
28080,note_on,18,0,4,,,,,,,,3,,,58,127
28080,note_on,18,0,11,,,,,,,,7,,,58,127
28080,note_on,18,0,10,,,,,,,,7,,,70,127
28082,note_on,2,0,11,,,,,,,,7,,,60,0
28082,note_on,2,0,10,,,,,,,,7,,,72,0
28082,note_on,2,0,4,,,,,,,,3,,,48,0
28119,note_on,39,0,7,,,,,,,,6,,,46,0
28120,note_on,40,0,9,,,,,,,,7,,,70,127
28120,note_on,40,0,1,,,,,,,,0,,,82,127
28120,note_on,40,0,8,,,,,,,,7,,,82,127
28120,note_on,40,0,3,,,,,,,,2,,,70,127
28120,note_on,40,0,2,,,,,,,,1,,,82,127
28122,note_on,2,0,3,,,,,,,,2,,,67,0
28122,note_on,2,0,1,,,,,,,,0,,,79,0
28122,note_on,2,0,8,,,,,,,,7,,,79,0
28122,note_on,2,0,9,,,,,,,,7,,,67,0
28122,note_on,2,0,2,,,,,,,,1,,,79,0
28159,note_on,37,0,1,,,,,,,,0,,,82,0
28159,note_on,37,0,9,,,,,,,,7,,,70,0
28159,note_on,37,0,8,,,,,,,,7,,,82,0
28159,note_on,37,0,3,,,,,,,,2,,,70,0
28159,note_on,37,0,2,,,,,,,,1,,,82,0
28160,note_on,1,0,3,,,,,,,,2,,,67,127
28160,note_on,1,0,1,,,,,,,,0,,,79,127
28160,note_on,1,0,2,,,,,,,,1,,,79,127
28160,note_on,1,0,9,,,,,,,,7,,,67,127
28160,note_on,1,0,8,,,,,,,,7,,,79,127
28179,note_on,19,0,2,,,,,,,,1,,,79,0
28179,note_on,19,0,1,,,,,,,,0,,,79,0
28179,note_on,19,0,9,,,,,,,,7,,,67,0
28179,note_on,19,0,8,,,,,,,,7,,,79,0
28179,note_on,19,0,3,,,,,,,,2,,,67,0
28199,note_on,117,0,10,,,,,,,,7,,,70,0
28199,note_on,119,0,6,,,,,,,,5,,,58,0
28199,note_on,117,0,4,,,,,,,,3,,,46,0
28199,note_on,119,0,12,,,,,,,,7,,,46,0
28199,note_on,0,0,4,,,,,,,,3,,,58,0
28199,note_on,0,0,6,,,,,,,,5,,,70,0
28199,note_on,0,0,5,,,,,,,,4,,,46,0
28199,note_on,117,0,11,,,,,,,,7,,,58,0
28199,note_on,119,0,5,,,,,,,,4,,,58,0
28199,note_on,0,0,5,,,,,,,,4,,,70,0
28200,note_on,1,0,11,,,,,,,,7,,,56,127
28200,note_on,1,0,10,,,,,,,,7,,,68,127
28200,note_on,21,0,3,,,,,,,,2,,,65,127
28200,note_on,21,0,8,,,,,,,,7,,,77,127
28200,note_on,1,0,4,,,,,,,,3,,,56,127
28200,note_on,21,0,9,,,,,,,,7,,,65,127
28200,note_on,21,0,1,,,,,,,,0,,,77,127
28200,note_on,81,0,7,,,,,,,,6,,,46,127
28200,note_on,1,0,6,,,,,,,,5,,,58,127
28200,note_on,0,0,6,,,,,,,,5,,,70,127
28200,note_on,1,0,5,,,,,,,,4,,,70,127
28200,note_on,0,0,5,,,,,,,,4,,,46,127
28200,note_on,1,0,12,,,,,,,,7,,,44,127
28200,note_on,0,0,5,,,,,,,,4,,,58,127
28200,note_on,21,0,2,,,,,,,,1,,,77,127
28239,note_on,39,0,7,,,,,,,,6,,,46,0
28240,note_on,40,0,8,,,,,,,,7,,,82,127
28240,note_on,40,0,9,,,,,,,,7,,,70,127
28240,note_on,40,0,1,,,,,,,,0,,,82,127
28240,note_on,40,0,2,,,,,,,,1,,,82,127
28240,note_on,40,0,3,,,,,,,,2,,,70,127
28242,note_on,2,0,1,,,,,,,,0,,,77,0
28242,note_on,2,0,3,,,,,,,,2,,,65,0
28242,note_on,2,0,8,,,,,,,,7,,,77,0
28242,note_on,2,0,2,,,,,,,,1,,,77,0
28242,note_on,2,0,9,,,,,,,,7,,,65,0
28279,note_on,37,0,9,,,,,,,,7,,,70,0
28279,note_on,37,0,1,,,,,,,,0,,,82,0
28279,note_on,37,0,3,,,,,,,,2,,,70,0
28279,note_on,37,0,2,,,,,,,,1,,,82,0
28279,note_on,37,0,8,,,,,,,,7,,,82,0
28280,note_on,1,0,1,,,,,,,,0,,,77,127
28280,note_on,1,0,8,,,,,,,,7,,,77,127
28280,note_on,1,0,3,,,,,,,,2,,,65,127
28280,note_on,1,0,9,,,,,,,,7,,,65,127
28280,note_on,1,0,2,,,,,,,,1,,,77,127
28299,note_on,19,0,2,,,,,,,,1,,,77,0
28299,note_on,19,0,3,,,,,,,,2,,,65,0
28299,note_on,19,0,8,,,,,,,,7,,,77,0
28299,note_on,19,0,9,,,,,,,,7,,,65,0
28299,note_on,19,0,1,,,,,,,,0,,,77,0
28319,note_on,119,0,12,,,,,,,,7,,,44,0
28319,note_on,0,0,6,,,,,,,,5,,,58,0
28319,note_on,0,0,5,,,,,,,,4,,,70,0
28319,note_on,0,0,5,,,,,,,,4,,,46,0
28319,note_on,119,0,5,,,,,,,,4,,,58,0
28319,note_on,119,0,4,,,,,,,,3,,,56,0
28319,note_on,119,0,10,,,,,,,,7,,,68,0
28319,note_on,119,0,11,,,,,,,,7,,,56,0
28319,note_on,119,0,6,,,,,,,,5,,,70,0
28320,note_on,1,0,6,,,,,,,,5,,,70,127
28320,note_on,0,0,6,,,,,,,,5,,,58,127
28320,note_on,81,0,7,,,,,,,,6,,,46,127
28320,note_on,21,0,9,,,,,,,,7,,,63,127
28320,note_on,1,0,10,,,,,,,,7,,,67,127
28320,note_on,1,0,4,,,,,,,,3,,,55,127
28320,note_on,1,0,5,,,,,,,,4,,,70,127
28320,note_on,21,0,3,,,,,,,,2,,,63,127
28320,note_on,1,0,11,,,,,,,,7,,,55,127
28320,note_on,21,0,1,,,,,,,,0,,,75,127
28320,note_on,0,0,5,,,,,,,,4,,,58,127
28320,note_on,21,0,8,,,,,,,,7,,,75,127
28320,note_on,0,0,5,,,,,,,,4,,,46,127
28320,note_on,1,0,12,,,,,,,,7,,,43,127
28320,note_on,21,0,2,,,,,,,,1,,,75,127
28339,note_on,19,0,1,,,,,,,,0,,,75,0
28339,note_on,19,0,8,,,,,,,,7,,,75,0
28339,note_on,19,0,9,,,,,,,,7,,,63,0
28339,note_on,19,0,3,,,,,,,,2,,,63,0
28339,note_on,19,0,2,,,,,,,,1,,,75,0
28359,note_on,39,0,7,,,,,,,,6,,,46,0
28360,note_on,40,0,12,,,,,,,,7,,,46,127
28360,note_on,21,0,9,,,,,,,,7,,,67,127
28360,note_on,40,0,10,,,,,,,,7,,,70,127
28360,note_on,21,0,8,,,,,,,,7,,,79,127
28360,note_on,21,0,3,,,,,,,,2,,,67,127
28360,note_on,40,0,4,,,,,,,,3,,,58,127
28360,note_on,40,0,11,,,,,,,,7,,,58,127
28360,note_on,21,0,2,,,,,,,,1,,,79,127
28360,note_on,21,0,1,,,,,,,,0,,,79,127
28362,note_on,2,0,10,,,,,,,,7,,,67,0
28362,note_on,2,0,4,,,,,,,,3,,,55,0
28362,note_on,2,0,12,,,,,,,,7,,,43,0
28362,note_on,2,0,11,,,,,,,,7,,,55,0
28379,note_on,19,0,1,,,,,,,,0,,,79,0
28379,note_on,19,0,2,,,,,,,,1,,,79,0
28379,note_on,19,0,3,,,,,,,,2,,,67,0
28379,note_on,19,0,8,,,,,,,,7,,,79,0
28379,note_on,19,0,9,,,,,,,,7,,,67,0
28399,note_on,37,0,12,,,,,,,,7,,,46,0
28399,note_on,37,0,10,,,,,,,,7,,,70,0
28399,note_on,37,0,4,,,,,,,,3,,,58,0
28399,note_on,37,0,11,,,,,,,,7,,,58,0
28400,note_on,21,0,2,,,,,,,,1,,,82,127
28400,note_on,21,0,8,,,,,,,,7,,,82,127
28400,note_on,1,0,11,,,,,,,,7,,,55,127
28400,note_on,21,0,1,,,,,,,,0,,,82,127
28400,note_on,1,0,10,,,,,,,,7,,,67,127
28400,note_on,21,0,3,,,,,,,,2,,,70,127
28400,note_on,1,0,4,,,,,,,,3,,,55,127
28400,note_on,1,0,12,,,,,,,,7,,,43,127
28400,note_on,21,0,9,,,,,,,,7,,,70,127
28419,note_on,19,0,11,,,,,,,,7,,,55,0
28419,note_on,19,0,8,,,,,,,,7,,,82,0
28419,note_on,19,0,1,,,,,,,,0,,,82,0
28419,note_on,19,0,3,,,,,,,,2,,,70,0
28419,note_on,19,0,2,,,,,,,,1,,,82,0
28419,note_on,19,0,9,,,,,,,,7,,,70,0
28419,note_on,19,0,10,,,,,,,,7,,,67,0
28419,note_on,19,0,12,,,,,,,,7,,,43,0
28419,note_on,19,0,4,,,,,,,,3,,,55,0
28439,note_on,0,0,5,,,,,,,,4,,,70,0
28439,note_on,119,0,6,,,,,,,,5,,,58,0
28439,note_on,0,0,6,,,,,,,,5,,,70,0
28439,note_on,119,0,5,,,,,,,,4,,,58,0
28439,note_on,0,0,5,,,,,,,,4,,,46,0
28440,note_on,0,0,5,,,,,,,,4,,,58,127
28440,note_on,21,0,8,,,,,,,,7,,,80,127
28440,note_on,21,0,10,,,,,,,,7,,,65,127
28440,note_on,1,0,6,,,,,,,,5,,,58,127
28440,note_on,21,0,9,,,,,,,,7,,,68,127
28440,note_on,0,0,6,,,,,,,,5,,,70,127
28440,note_on,0,0,5,,,,,,,,4,,,46,127
28440,note_on,21,0,11,,,,,,,,7,,,53,127
28440,note_on,1,0,5,,,,,,,,4,,,70,127
28440,note_on,21,0,1,,,,,,,,0,,,82,127
28440,note_on,81,0,7,,,,,,,,6,,,46,127
28440,note_on,21,0,2,,,,,,,,1,,,80,127
28440,note_on,21,0,4,,,,,,,,3,,,53,127
28440,note_on,21,0,12,,,,,,,,7,,,41,127
28440,note_on,21,0,3,,,,,,,,2,,,68,127
28479,note_on,39,0,7,,,,,,,,6,,,46,0
28480,note_on,40,0,12,,,,,,,,7,,,46,127
28480,note_on,40,0,10,,,,,,,,7,,,70,127
28480,note_on,40,0,11,,,,,,,,7,,,58,127
28480,note_on,40,0,4,,,,,,,,3,,,56,127
28482,note_on,2,0,10,,,,,,,,7,,,65,0
28482,note_on,2,0,12,,,,,,,,7,,,41,0
28482,note_on,2,0,11,,,,,,,,7,,,53,0
28482,note_on,2,0,4,,,,,,,,3,,,53,0
28519,note_on,37,0,4,,,,,,,,3,,,56,0
28519,note_on,37,0,11,,,,,,,,7,,,58,0
28519,note_on,37,0,10,,,,,,,,7,,,70,0
28519,note_on,37,0,12,,,,,,,,7,,,46,0
28520,note_on,1,0,4,,,,,,,,3,,,53,127
28520,note_on,1,0,10,,,,,,,,7,,,65,127
28520,note_on,1,0,11,,,,,,,,7,,,53,127
28520,note_on,1,0,12,,,,,,,,7,,,41,127
28539,note_on,19,0,11,,,,,,,,7,,,53,0
28539,note_on,19,0,12,,,,,,,,7,,,41,0
28539,note_on,19,0,4,,,,,,,,3,,,53,0
28539,note_on,19,0,10,,,,,,,,7,,,65,0
28559,note_on,119,0,8,,,,,,,,7,,,80,0
28559,note_on,119,0,1,,,,,,,,0,,,82,0
28559,note_on,119,0,5,,,,,,,,4,,,58,0
28559,note_on,0,0,5,,,,,,,,4,,,46,0
28559,note_on,0,0,5,,,,,,,,4,,,70,0
28559,note_on,119,0,6,,,,,,,,5,,,70,0
28559,note_on,119,0,2,,,,,,,,1,,,80,0
28559,note_on,119,0,9,,,,,,,,7,,,68,0
28559,note_on,119,0,3,,,,,,,,2,,,68,0
28559,note_on,0,0,6,,,,,,,,5,,,58,0
28560,note_on,1,0,8,,,,,,,,7,,,79,127
28560,note_on,0,0,5,,,,,,,,4,,,58,127
28560,note_on,0,0,5,,,,,,,,4,,,46,127
28560,note_on,1,0,5,,,,,,,,4,,,70,127
28560,note_on,21,0,12,,,,,,,,7,,,39,127
28560,note_on,1,0,9,,,,,,,,7,,,67,127
28560,note_on,81,0,7,,,,,,,,6,,,46,127
28560,note_on,1,0,2,,,,,,,,1,,,79,127
28560,note_on,21,0,10,,,,,,,,7,,,63,127
28560,note_on,1,0,3,,,,,,,,2,,,67,127
28560,note_on,21,0,4,,,,,,,,3,,,51,127
28560,note_on,1,0,6,,,,,,,,5,,,70,127
28560,note_on,21,0,11,,,,,,,,7,,,51,127
28560,note_on,0,0,6,,,,,,,,5,,,58,127
28560,note_on,1,0,1,,,,,,,,0,,,82,127
28579,note_on,19,0,11,,,,,,,,7,,,51,0
28579,note_on,19,0,12,,,,,,,,7,,,39,0
28579,note_on,19,0,4,,,,,,,,3,,,51,0
28579,note_on,19,0,10,,,,,,,,7,,,63,0
28599,note_on,39,0,7,,,,,,,,6,,,46,0
28600,note_on,40,0,9,,,,,,,,7,,,70,127
28600,note_on,40,0,3,,,,,,,,2,,,70,127
28600,note_on,21,0,4,,,,,,,,3,,,55,127
28600,note_on,21,0,12,,,,,,,,7,,,43,127
28600,note_on,21,0,11,,,,,,,,7,,,55,127
28600,note_on,21,0,10,,,,,,,,7,,,67,127
28600,note_on,40,0,8,,,,,,,,7,,,82,127
28600,note_on,40,0,2,,,,,,,,1,,,82,127
28602,note_on,2,0,2,,,,,,,,1,,,79,0
28602,note_on,2,0,3,,,,,,,,2,,,67,0
28602,note_on,2,0,9,,,,,,,,7,,,67,0
28602,note_on,2,0,8,,,,,,,,7,,,79,0
28619,note_on,19,0,10,,,,,,,,7,,,67,0
28619,note_on,19,0,12,,,,,,,,7,,,43,0
28619,note_on,19,0,11,,,,,,,,7,,,55,0
28619,note_on,19,0,4,,,,,,,,3,,,55,0
28639,note_on,37,0,9,,,,,,,,7,,,70,0
28639,note_on,37,0,3,,,,,,,,2,,,70,0
28639,note_on,37,0,8,,,,,,,,7,,,82,0
28639,note_on,37,0,2,,,,,,,,1,,,82,0
28640,note_on,21,0,12,,,,,,,,7,,,46,127
28640,note_on,21,0,11,,,,,,,,7,,,58,127
28640,note_on,1,0,9,,,,,,,,7,,,67,127
28640,note_on,1,0,3,,,,,,,,2,,,67,127
28640,note_on,21,0,4,,,,,,,,3,,,58,127
28640,note_on,1,0,8,,,,,,,,7,,,79,127
28640,note_on,1,0,2,,,,,,,,1,,,79,127
28640,note_on,21,0,10,,,,,,,,7,,,70,127
28659,note_on,19,0,3,,,,,,,,2,,,67,0
28659,note_on,19,0,2,,,,,,,,1,,,79,0
28659,note_on,19,0,11,,,,,,,,7,,,58,0
28659,note_on,19,0,12,,,,,,,,7,,,46,0
28659,note_on,19,0,10,,,,,,,,7,,,70,0
28659,note_on,19,0,4,,,,,,,,3,,,58,0
28659,note_on,19,0,8,,,,,,,,7,,,79,0
28659,note_on,19,0,9,,,,,,,,7,,,67,0
28679,note_on,0,0,5,,,,,,,,4,,,46,0
28679,note_on,119,0,1,,,,,,,,0,,,82,0
28679,note_on,0,0,5,,,,,,,,4,,,70,0
28679,note_on,119,0,6,,,,,,,,5,,,58,0
28679,note_on,119,0,5,,,,,,,,4,,,58,0
28679,note_on,0,0,6,,,,,,,,5,,,70,0
28680,note_on,1,0,1,,,,,,,,0,,,82,127
28680,note_on,21,0,2,,,,,,,,1,,,77,127
28680,note_on,21,0,8,,,,,,,,7,,,77,127
28680,note_on,21,0,3,,,,,,,,2,,,65,127
28680,note_on,21,0,11,,,,,,,,7,,,56,127
28680,note_on,21,0,12,,,,,,,,7,,,44,127
28680,note_on,0,0,5,,,,,,,,4,,,46,127
28680,note_on,0,0,6,,,,,,,,5,,,70,127
28680,note_on,21,0,9,,,,,,,,7,,,65,127
28680,note_on,1,0,6,,,,,,,,5,,,58,127
28680,note_on,1,0,5,,,,,,,,4,,,70,127
28680,note_on,21,0,10,,,,,,,,7,,,68,127
28680,note_on,81,0,7,,,,,,,,6,,,46,127
28680,note_on,0,0,5,,,,,,,,4,,,58,127
28680,note_on,21,0,4,,,,,,,,3,,,56,127
28719,note_on,39,0,7,,,,,,,,6,,,46,0
28720,note_on,40,0,2,,,,,,,,1,,,82,127
28720,note_on,40,0,9,,,,,,,,7,,,70,127
28720,note_on,40,0,3,,,,,,,,2,,,70,127
28720,note_on,40,0,8,,,,,,,,7,,,82,127
28722,note_on,2,0,2,,,,,,,,1,,,77,0
28722,note_on,2,0,3,,,,,,,,2,,,65,0
28722,note_on,2,0,8,,,,,,,,7,,,77,0
28722,note_on,2,0,9,,,,,,,,7,,,65,0
28759,note_on,37,0,2,,,,,,,,1,,,82,0
28759,note_on,37,0,8,,,,,,,,7,,,82,0
28759,note_on,37,0,3,,,,,,,,2,,,70,0
28759,note_on,37,0,9,,,,,,,,7,,,70,0
28760,note_on,1,0,2,,,,,,,,1,,,77,127
28760,note_on,1,0,3,,,,,,,,2,,,65,127
28760,note_on,1,0,8,,,,,,,,7,,,77,127
28760,note_on,1,0,9,,,,,,,,7,,,65,127
28779,note_on,19,0,9,,,,,,,,7,,,65,0
28779,note_on,19,0,2,,,,,,,,1,,,77,0
28779,note_on,19,0,8,,,,,,,,7,,,77,0
28779,note_on,19,0,3,,,,,,,,2,,,65,0
28799,note_on,119,0,4,,,,,,,,3,,,56,0
28799,note_on,119,0,10,,,,,,,,7,,,68,0
28799,note_on,119,0,11,,,,,,,,7,,,56,0
28799,note_on,0,0,6,,,,,,,,5,,,58,0
28799,note_on,119,0,6,,,,,,,,5,,,70,0
28799,note_on,119,0,1,,,,,,,,0,,,82,0
28799,note_on,119,0,12,,,,,,,,7,,,44,0
28799,note_on,119,0,5,,,,,,,,4,,,58,0
28799,note_on,0,0,5,,,,,,,,4,,,46,0
28799,note_on,0,0,5,,,,,,,,4,,,70,0
28800,note_on,1,0,1,,,,,,,,0,,,82,127
28800,note_on,1,0,4,,,,,,,,3,,,55,127
28800,note_on,1,0,11,,,,,,,,7,,,55,127
28800,note_on,0,0,5,,,,,,,,4,,,46,127
28800,note_on,1,0,10,,,,,,,,7,,,67,127
28800,note_on,0,0,6,,,,,,,,5,,,58,127
28800,note_on,0,0,5,,,,,,,,4,,,58,127
28800,note_on,21,0,8,,,,,,,,7,,,75,127
28800,note_on,21,0,2,,,,,,,,1,,,75,127
28800,note_on,21,0,9,,,,,,,,7,,,63,127
28800,note_on,21,0,3,,,,,,,,2,,,63,127
28800,note_on,1,0,12,,,,,,,,7,,,43,127
28800,note_on,81,0,7,,,,,,,,6,,,46,127
28800,note_on,1,0,5,,,,,,,,4,,,70,127
28800,note_on,1,0,6,,,,,,,,5,,,70,127
28819,note_on,19,0,8,,,,,,,,7,,,75,0
28819,note_on,19,0,9,,,,,,,,7,,,63,0
28819,note_on,19,0,1,,,,,,,,0,,,82,0
28819,note_on,19,0,2,,,,,,,,1,,,75,0
28819,note_on,19,0,3,,,,,,,,2,,,63,0
28839,note_on,0,0,5,,,,,,,,4,,,70,0
28839,note_on,0,0,6,,,,,,,,5,,,70,0
28839,note_on,39,0,7,,,,,,,,6,,,46,0
28839,note_on,39,0,6,,,,,,,,5,,,58,0
28839,note_on,0,0,5,,,,,,,,4,,,46,0
28839,note_on,39,0,5,,,,,,,,4,,,58,0
28840,note_on,1,0,6,,,,,,,,5,,,75,127
28840,note_on,0,0,6,,,,,,,,5,,,63,127
28840,note_on,40,0,12,,,,,,,,7,,,46,127
28840,note_on,1,0,7,,,,,,,,6,,,51,127
28840,note_on,21,0,9,,,,,,,,7,,,67,127
28840,note_on,0,0,5,,,,,,,,4,,,63,127
28840,note_on,1,0,5,,,,,,,,4,,,51,127
28840,note_on,21,0,1,,,,,,,,0,,,87,127
28840,note_on,40,0,10,,,,,,,,7,,,70,127
28840,note_on,40,0,4,,,,,,,,3,,,58,127
28840,note_on,21,0,3,,,,,,,,2,,,67,127
28840,note_on,21,0,8,,,,,,,,7,,,79,127
28840,note_on,40,0,11,,,,,,,,7,,,58,127
28840,note_on,21,0,2,,,,,,,,1,,,79,127
28842,note_on,2,0,12,,,,,,,,7,,,43,0
28842,note_on,2,0,10,,,,,,,,7,,,67,0
28842,note_on,2,0,4,,,,,,,,3,,,55,0
28842,note_on,2,0,11,,,,,,,,7,,,55,0
28859,note_on,19,0,2,,,,,,,,1,,,79,0
28859,note_on,19,0,3,,,,,,,,2,,,67,0
28859,note_on,19,0,8,,,,,,,,7,,,79,0
28859,note_on,19,0,9,,,,,,,,7,,,67,0
28859,note_on,19,0,1,,,,,,,,0,,,87,0
28879,note_on,0,0,6,,,,,,,,5,,,75,0
28879,note_on,37,0,4,,,,,,,,3,,,58,0
28879,note_on,37,0,11,,,,,,,,7,,,58,0
28879,note_on,37,0,10,,,,,,,,7,,,70,0
28879,note_on,39,0,5,,,,,,,,4,,,63,0
28879,note_on,0,0,5,,,,,,,,4,,,51,0
28879,note_on,39,0,6,,,,,,,,5,,,63,0
28879,note_on,37,0,12,,,,,,,,7,,,46,0
28879,note_on,39,0,7,,,,,,,,6,,,51,0
28880,note_on,21,0,1,,,,,,,,0,,,87,127
28880,note_on,1,0,7,,,,,,,,6,,,51,127
28880,note_on,21,0,8,,,,,,,,7,,,82,127
28880,note_on,21,0,3,,,,,,,,2,,,70,127
28880,note_on,1,0,12,,,,,,,,7,,,43,127
28880,note_on,0,0,6,,,,,,,,5,,,75,127
28880,note_on,1,0,4,,,,,,,,3,,,55,127
28880,note_on,21,0,9,,,,,,,,7,,,70,127
28880,note_on,0,0,5,,,,,,,,4,,,63,127
28880,note_on,1,0,5,,,,,,,,4,,,51,127
28880,note_on,1,0,11,,,,,,,,7,,,55,127
28880,note_on,21,0,2,,,,,,,,1,,,82,127
28880,note_on,1,0,6,,,,,,,,5,,,63,127
28880,note_on,1,0,10,,,,,,,,7,,,67,127
28899,note_on,19,0,4,,,,,,,,3,,,55,0
28899,note_on,19,0,12,,,,,,,,7,,,43,0
28899,note_on,19,0,11,,,,,,,,7,,,55,0
28899,note_on,19,0,8,,,,,,,,7,,,82,0
28899,note_on,19,0,1,,,,,,,,0,,,87,0
28899,note_on,19,0,9,,,,,,,,7,,,70,0
28899,note_on,19,0,10,,,,,,,,7,,,67,0
28899,note_on,19,0,2,,,,,,,,1,,,82,0
28899,note_on,19,0,3,,,,,,,,2,,,70,0
28919,note_on,39,0,6,,,,,,,,5,,,75,0
28919,note_on,0,0,6,,,,,,,,5,,,63,0
28919,note_on,39,0,5,,,,,,,,4,,,63,0
28919,note_on,39,0,7,,,,,,,,6,,,51,0
28919,note_on,0,0,5,,,,,,,,4,,,51,0
28920,note_on,1,0,6,,,,,,,,5,,,75,127
28920,note_on,21,0,11,,,,,,,,7,,,53,127
28920,note_on,21,0,9,,,,,,,,7,,,73,127
28920,note_on,21,0,4,,,,,,,,3,,,53,127
28920,note_on,21,0,10,,,,,,,,7,,,65,127
28920,note_on,0,0,6,,,,,,,,5,,,63,127
28920,note_on,21,0,8,,,,,,,,7,,,85,127
28920,note_on,0,0,5,,,,,,,,4,,,51,127
28920,note_on,21,0,1,,,,,,,,0,,,87,127
28920,note_on,21,0,2,,,,,,,,1,,,80,127
28920,note_on,21,0,3,,,,,,,,2,,,73,127
28920,note_on,1,0,7,,,,,,,,6,,,51,127
28920,note_on,1,0,5,,,,,,,,4,,,63,127
28920,note_on,21,0,12,,,,,,,,7,,,41,127
28920,note_on,0,0,3,,,,,,,,2,,,68,127
28959,note_on,39,0,7,,,,,,,,6,,,51,0
28960,note_on,40,0,4,,,,,,,,3,,,56,127
28960,note_on,40,0,11,,,,,,,,7,,,56,127
28960,note_on,40,0,12,,,,,,,,7,,,44,127
28960,note_on,40,0,10,,,,,,,,7,,,68,127
28962,note_on,2,0,10,,,,,,,,7,,,65,0
28962,note_on,2,0,4,,,,,,,,3,,,53,0
28962,note_on,2,0,12,,,,,,,,7,,,41,0
28962,note_on,2,0,11,,,,,,,,7,,,53,0
28999,note_on,37,0,12,,,,,,,,7,,,44,0
28999,note_on,37,0,11,,,,,,,,7,,,56,0
28999,note_on,37,0,10,,,,,,,,7,,,68,0
28999,note_on,37,0,4,,,,,,,,3,,,56,0
29000,note_on,1,0,10,,,,,,,,7,,,65,127
29000,note_on,1,0,4,,,,,,,,3,,,53,127
29000,note_on,1,0,12,,,,,,,,7,,,41,127
29000,note_on,1,0,11,,,,,,,,7,,,53,127
29019,note_on,19,0,11,,,,,,,,7,,,53,0
29019,note_on,19,0,10,,,,,,,,7,,,65,0
29019,note_on,19,0,4,,,,,,,,3,,,53,0
29019,note_on,19,0,12,,,,,,,,7,,,41,0
29039,note_on,119,0,2,,,,,,,,1,,,80,0
29039,note_on,119,0,6,,,,,,,,5,,,63,0
29039,note_on,119,0,1,,,,,,,,0,,,87,0
29039,note_on,119,0,9,,,,,,,,7,,,73,0
29039,note_on,0,0,6,,,,,,,,5,,,75,0
29039,note_on,0,0,3,,,,,,,,2,,,73,0
29039,note_on,119,0,3,,,,,,,,2,,,68,0
29039,note_on,119,0,8,,,,,,,,7,,,85,0
29039,note_on,119,0,5,,,,,,,,4,,,51,0
29039,note_on,0,0,5,,,,,,,,4,,,63,0
29040,note_on,0,0,6,,,,,,,,5,,,75,127
29040,note_on,1,0,3,,,,,,,,2,,,72,127
29040,note_on,1,0,9,,,,,,,,7,,,72,127
29040,note_on,0,0,3,,,,,,,,2,,,68,127
29040,note_on,1,0,8,,,,,,,,7,,,84,127
29040,note_on,21,0,10,,,,,,,,7,,,63,127
29040,note_on,1,0,2,,,,,,,,1,,,80,127
29040,note_on,1,0,6,,,,,,,,5,,,63,127
29040,note_on,1,0,5,,,,,,,,4,,,68,127
29040,note_on,0,0,5,,,,,,,,4,,,51,127
29040,note_on,21,0,4,,,,,,,,3,,,51,127
29040,note_on,21,0,12,,,,,,,,7,,,39,127
29040,note_on,1,0,1,,,,,,,,0,,,87,127
29040,note_on,21,0,11,,,,,,,,7,,,51,127
29040,note_on,0,0,5,,,,,,,,4,,,63,127
29040,note_on,81,0,7,,,,,,,,6,,,51,127
29079,note_on,39,0,7,,,,,,,,6,,,51,0
29080,note_on,40,0,3,,,,,,,,2,,,75,127
29080,note_on,40,0,4,,,,,,,,3,,,56,127
29080,note_on,40,0,9,,,,,,,,7,,,75,127
29080,note_on,40,0,8,,,,,,,,7,,,87,127
29080,note_on,40,0,10,,,,,,,,7,,,68,127
29080,note_on,40,0,11,,,,,,,,7,,,56,127
29080,note_on,40,0,12,,,,,,,,7,,,44,127
29082,note_on,2,0,4,,,,,,,,3,,,51,0
29082,note_on,2,0,11,,,,,,,,7,,,51,0
29082,note_on,2,0,8,,,,,,,,7,,,84,0
29082,note_on,2,0,3,,,,,,,,2,,,72,0
29082,note_on,2,0,10,,,,,,,,7,,,63,0
29082,note_on,2,0,9,,,,,,,,7,,,72,0
29082,note_on,2,0,12,,,,,,,,7,,,39,0
29119,note_on,37,0,9,,,,,,,,7,,,75,0
29119,note_on,37,0,8,,,,,,,,7,,,87,0
29119,note_on,37,0,11,,,,,,,,7,,,56,0
29119,note_on,37,0,10,,,,,,,,7,,,68,0
29119,note_on,37,0,12,,,,,,,,7,,,44,0
29119,note_on,37,0,4,,,,,,,,3,,,56,0
29119,note_on,37,0,3,,,,,,,,2,,,75,0
29120,note_on,1,0,10,,,,,,,,7,,,63,127
29120,note_on,1,0,8,,,,,,,,7,,,84,127
29120,note_on,1,0,3,,,,,,,,2,,,72,127
29120,note_on,1,0,4,,,,,,,,3,,,51,127
29120,note_on,1,0,9,,,,,,,,7,,,72,127
29120,note_on,1,0,12,,,,,,,,7,,,39,127
29120,note_on,1,0,11,,,,,,,,7,,,51,127
29139,note_on,19,0,12,,,,,,,,7,,,39,0
29139,note_on,19,0,9,,,,,,,,7,,,72,0
29139,note_on,19,0,8,,,,,,,,7,,,84,0
29139,note_on,19,0,10,,,,,,,,7,,,63,0
29139,note_on,19,0,3,,,,,,,,2,,,72,0
29139,note_on,19,0,11,,,,,,,,7,,,51,0
29139,note_on,19,0,4,,,,,,,,3,,,51,0
29159,note_on,0,0,5,,,,,,,,4,,,68,0
29159,note_on,0,0,5,,,,,,,,4,,,51,0
29159,note_on,119,0,1,,,,,,,,0,,,87,0
29159,note_on,20,0,3,,,,,,,,2,,,68,0
29159,note_on,0,0,6,,,,,,,,5,,,63,0
29159,note_on,119,0,6,,,,,,,,5,,,75,0
29159,note_on,119,0,5,,,,,,,,4,,,63,0
29159,note_on,119,0,2,,,,,,,,1,,,80,0
29160,note_on,21,0,11,,,,,,,,7,,,49,127
29160,note_on,1,0,3,,,,,,,,2,,,70,127
29160,note_on,0,0,3,,,,,,,,2,,,67,127
29160,note_on,0,0,5,,,,,,,,4,,,63,127
29160,note_on,0,0,5,,,,,,,,4,,,51,127
29160,note_on,1,0,5,,,,,,,,4,,,67,127
29160,note_on,21,0,4,,,,,,,,3,,,49,127
29160,note_on,21,0,10,,,,,,,,7,,,61,127
29160,note_on,1,0,1,,,,,,,,0,,,87,127
29160,note_on,21,0,12,,,,,,,,7,,,37,127
29160,note_on,81,0,7,,,,,,,,6,,,51,127
29160,note_on,1,0,2,,,,,,,,1,,,79,127
29160,note_on,21,0,9,,,,,,,,7,,,70,127
29160,note_on,1,0,6,,,,,,,,5,,,75,127
29160,note_on,21,0,8,,,,,,,,7,,,82,127
29160,note_on,0,0,6,,,,,,,,5,,,63,127
29199,note_on,39,0,7,,,,,,,,6,,,51,0
29200,note_on,40,0,3,,,,,,,,2,,,75,127
29200,note_on,40,0,8,,,,,,,,7,,,87,127
29200,note_on,40,0,9,,,,,,,,7,,,75,127
29202,note_on,2,0,9,,,,,,,,7,,,70,0
29202,note_on,2,0,8,,,,,,,,7,,,82,0
29202,note_on,2,0,3,,,,,,,,2,,,70,0
29239,note_on,37,0,9,,,,,,,,7,,,75,0
29239,note_on,37,0,3,,,,,,,,2,,,75,0
29239,note_on,37,0,8,,,,,,,,7,,,87,0
29240,note_on,1,0,9,,,,,,,,7,,,70,127
29240,note_on,1,0,3,,,,,,,,2,,,70,127
29240,note_on,1,0,8,,,,,,,,7,,,82,127
29259,note_on,19,0,9,,,,,,,,7,,,70,0
29259,note_on,19,0,3,,,,,,,,2,,,70,0
29259,note_on,19,0,8,,,,,,,,7,,,82,0
29279,note_on,20,0,3,,,,,,,,2,,,67,0
29279,note_on,119,0,4,,,,,,,,3,,,49,0
29279,note_on,119,0,12,,,,,,,,7,,,37,0
29279,note_on,119,0,1,,,,,,,,0,,,87,0
29279,note_on,119,0,11,,,,,,,,7,,,49,0
29279,note_on,119,0,10,,,,,,,,7,,,61,0
29279,note_on,119,0,2,,,,,,,,1,,,79,0
29279,note_on,0,0,5,,,,,,,,4,,,67,0
29279,note_on,119,0,6,,,,,,,,5,,,63,0
29279,note_on,0,0,6,,,,,,,,5,,,75,0
29279,note_on,0,0,5,,,,,,,,4,,,51,0
29279,note_on,119,0,5,,,,,,,,4,,,63,0
29280,note_on,1,0,12,,,,,,,,7,,,36,127
29280,note_on,1,0,6,,,,,,,,5,,,63,127
29280,note_on,1,0,5,,,,,,,,4,,,68,127
29280,note_on,1,0,4,,,,,,,,3,,,48,127
29280,note_on,0,0,6,,,,,,,,5,,,75,127
29280,note_on,81,0,7,,,,,,,,6,,,51,127
29280,note_on,21,0,8,,,,,,,,7,,,80,127
29280,note_on,1,0,1,,,,,,,,0,,,87,127
29280,note_on,21,0,9,,,,,,,,7,,,68,127
29280,note_on,1,0,11,,,,,,,,7,,,48,127
29280,note_on,0,0,5,,,,,,,,4,,,63,127
29280,note_on,1,0,10,,,,,,,,7,,,60,127
29280,note_on,0,0,5,,,,,,,,4,,,51,127
29280,note_on,1,0,3,,,,,,,,2,,,68,127
29280,note_on,1,0,2,,,,,,,,1,,,80,127
29299,note_on,19,0,8,,,,,,,,7,,,80,0
29299,note_on,19,0,3,,,,,,,,2,,,68,0
29299,note_on,19,0,9,,,,,,,,7,,,68,0
29319,note_on,39,0,7,,,,,,,,6,,,51,0
29320,note_on,21,0,3,,,,,,,,2,,,72,127
29320,note_on,21,0,9,,,,,,,,7,,,72,127
29320,note_on,40,0,4,,,,,,,,3,,,53,127
29320,note_on,40,0,12,,,,,,,,7,,,39,127
29320,note_on,21,0,8,,,,,,,,7,,,84,127
29320,note_on,40,0,10,,,,,,,,7,,,63,127
29320,note_on,40,0,11,,,,,,,,7,,,51,127
29322,note_on,2,0,10,,,,,,,,7,,,60,0
29322,note_on,2,0,11,,,,,,,,7,,,48,0
29322,note_on,2,0,4,,,,,,,,3,,,48,0
29322,note_on,2,0,12,,,,,,,,7,,,36,0
29339,note_on,19,0,8,,,,,,,,7,,,84,0
29339,note_on,19,0,9,,,,,,,,7,,,72,0
29339,note_on,19,0,3,,,,,,,,2,,,72,0
29359,note_on,37,0,11,,,,,,,,7,,,51,0
29359,note_on,37,0,10,,,,,,,,7,,,63,0
29359,note_on,37,0,4,,,,,,,,3,,,53,0
29359,note_on,37,0,12,,,,,,,,7,,,39,0
29360,note_on,1,0,11,,,,,,,,7,,,48,127
29360,note_on,1,0,10,,,,,,,,7,,,60,127
29360,note_on,21,0,3,,,,,,,,2,,,75,127
29360,note_on,21,0,9,,,,,,,,7,,,75,127
29360,note_on,21,0,8,,,,,,,,7,,,87,127
29360,note_on,1,0,12,,,,,,,,7,,,36,127
29360,note_on,1,0,4,,,,,,,,3,,,48,127
29379,note_on,19,0,11,,,,,,,,7,,,48,0
29379,note_on,19,0,8,,,,,,,,7,,,87,0
29379,note_on,19,0,12,,,,,,,,7,,,36,0
29379,note_on,19,0,3,,,,,,,,2,,,75,0
29379,note_on,19,0,10,,,,,,,,7,,,60,0
29379,note_on,19,0,4,,,,,,,,3,,,48,0
29379,note_on,19,0,9,,,,,,,,7,,,75,0
29399,note_on,119,0,1,,,,,,,,0,,,87,0
29399,note_on,119,0,2,,,,,,,,1,,,80,0
29399,note_on,0,0,5,,,,,,,,4,,,51,0
29399,note_on,119,0,5,,,,,,,,4,,,63,0
29399,note_on,0,0,5,,,,,,,,4,,,68,0
29399,note_on,0,0,6,,,,,,,,5,,,63,0
29399,note_on,119,0,6,,,,,,,,5,,,75,0
29400,note_on,21,0,9,,,,,,,,7,,,73,127
29400,note_on,1,0,5,,,,,,,,4,,,67,127
29400,note_on,21,0,11,,,,,,,,7,,,51,127
29400,note_on,21,0,12,,,,,,,,7,,,39,127
29400,note_on,0,0,6,,,,,,,,5,,,75,127
29400,note_on,1,0,6,,,,,,,,5,,,63,127
29400,note_on,81,0,7,,,,,,,,6,,,51,127
29400,note_on,1,0,2,,,,,,,,1,,,79,127
29400,note_on,0,0,5,,,,,,,,4,,,63,127
29400,note_on,21,0,10,,,,,,,,7,,,63,127
29400,note_on,21,0,4,,,,,,,,3,,,53,127
29400,note_on,0,0,5,,,,,,,,4,,,51,127
29400,note_on,0,0,3,,,,,,,,2,,,73,127
29400,note_on,21,0,3,,,,,,,,2,,,67,127
29400,note_on,21,0,8,,,,,,,,7,,,85,127
29400,note_on,1,0,1,,,,,,,,0,,,87,127
29419,note_on,19,0,4,,,,,,,,3,,,53,0
29419,note_on,19,0,11,,,,,,,,7,,,51,0
29419,note_on,19,0,12,,,,,,,,7,,,39,0
29419,note_on,19,0,10,,,,,,,,7,,,63,0
29439,note_on,39,0,7,,,,,,,,6,,,51,0
29440,note_on,21,0,11,,,,,,,,7,,,46,127
29440,note_on,21,0,4,,,,,,,,3,,,46,127
29440,note_on,21,0,12,,,,,,,,7,,,34,127
29440,note_on,21,0,10,,,,,,,,7,,,58,127
29459,note_on,19,0,11,,,,,,,,7,,,46,0
29459,note_on,19,0,10,,,,,,,,7,,,58,0
29459,note_on,19,0,4,,,,,,,,3,,,46,0
29459,note_on,19,0,12,,,,,,,,7,,,34,0
29480,note_on,21,0,11,,,,,,,,7,,,51,127
29480,note_on,21,0,4,,,,,,,,3,,,53,127
29480,note_on,21,0,12,,,,,,,,7,,,39,127
29480,note_on,21,0,10,,,,,,,,7,,,63,127
29499,note_on,19,0,4,,,,,,,,3,,,53,0
29499,note_on,19,0,11,,,,,,,,7,,,51,0
29499,note_on,19,0,12,,,,,,,,7,,,39,0
29499,note_on,19,0,10,,,,,,,,7,,,63,0
29519,note_on,119,0,8,,,,,,,,7,,,85,0
29519,note_on,0,0,5,,,,,,,,4,,,67,0
29519,note_on,119,0,3,,,,,,,,2,,,73,0
29519,note_on,0,0,3,,,,,,,,2,,,67,0
29519,note_on,0,0,5,,,,,,,,4,,,51,0
29519,note_on,0,0,6,,,,,,,,5,,,63,0
29519,note_on,119,0,9,,,,,,,,7,,,73,0
29519,note_on,119,0,1,,,,,,,,0,,,87,0
29519,note_on,119,0,2,,,,,,,,1,,,79,0
29519,note_on,119,0,5,,,,,,,,4,,,63,0
29519,note_on,119,0,6,,,,,,,,5,,,75,0
29520,note_on,0,0,6,,,,,,,,5,,,63,127
29520,note_on,1,0,6,,,,,,,,5,,,75,127
29520,note_on,21,0,4,,,,,,,,3,,,44,127
29520,note_on,1,0,1,,,,,,,,0,,,87,127
29520,note_on,21,0,10,,,,,,,,7,,,56,127
29520,note_on,1,0,8,,,,,,,,7,,,84,127
29520,note_on,1,0,2,,,,,,,,1,,,80,127
29520,note_on,1,0,3,,,,,,,,2,,,72,127
29520,note_on,21,0,12,,,,,,,,7,,,32,127
29520,note_on,1,0,9,,,,,,,,7,,,72,127
29520,note_on,0,0,5,,,,,,,,4,,,63,127
29520,note_on,21,0,11,,,,,,,,7,,,44,127
29520,note_on,81,0,7,,,,,,,,6,,,51,127
29520,note_on,0,0,5,,,,,,,,4,,,51,127
29520,note_on,1,0,5,,,,,,,,4,,,68,127
29539,note_on,19,0,6,,,,,,,,5,,,63,0
29539,note_on,0,0,6,,,,,,,,5,,,75,0
29539,note_on,19,0,12,,,,,,,,7,,,32,0
29539,note_on,19,0,4,,,,,,,,3,,,44,0
29539,note_on,19,0,1,,,,,,,,0,,,87,0
29539,note_on,19,0,11,,,,,,,,7,,,44,0
29539,note_on,0,0,5,,,,,,,,4,,,68,0
29539,note_on,0,0,5,,,,,,,,4,,,51,0
29539,note_on,19,0,5,,,,,,,,4,,,63,0
29539,note_on,19,0,3,,,,,,,,2,,,72,0
29539,note_on,19,0,10,,,,,,,,7,,,56,0
29539,note_on,19,0,2,,,,,,,,1,,,80,0
29559,note_on,39,0,7,,,,,,,,6,,,51,0
29560,note_on,1,0,7,,,,,,,,6,,,51,127
29560,note_on,21,0,12,,,,,,,,7,,,44,127
29560,note_on,21,0,2,,,,,,,,1,,,75,127
29560,note_on,21,0,6,,,,,,,,5,,,63,127
29560,note_on,0,0,2,,,,,,,,1,,,84,127
29560,note_on,21,0,11,,,,,,,,7,,,56,127
29560,note_on,21,0,4,,,,,,,,3,,,56,127
29560,note_on,0,0,1,,,,,,,,0,,,87,127
29560,note_on,21,0,1,,,,,,,,0,,,84,127
29560,note_on,21,0,5,,,,,,,,4,,,51,127
29560,note_on,40,0,8,,,,,,,,7,,,87,127
29560,note_on,0,0,3,,,,,,,,2,,,72,127
29560,note_on,0,0,6,,,,,,,,5,,,75,127
29560,note_on,40,0,9,,,,,,,,7,,,75,127
29560,note_on,21,0,3,,,,,,,,2,,,75,127
29560,note_on,21,0,10,,,,,,,,7,,,68,127
29560,note_on,0,0,5,,,,,,,,4,,,63,127
29562,note_on,2,0,9,,,,,,,,7,,,72,0
29562,note_on,2,0,8,,,,,,,,7,,,84,0
29579,note_on,19,0,10,,,,,,,,7,,,68,0
29579,note_on,0,0,5,,,,,,,,4,,,51,0
29579,note_on,19,0,4,,,,,,,,3,,,56,0
29579,note_on,0,0,1,,,,,,,,0,,,84,0
29579,note_on,19,0,1,,,,,,,,0,,,87,0
29579,note_on,0,0,2,,,,,,,,1,,,75,0
29579,note_on,19,0,5,,,,,,,,4,,,63,0
29579,note_on,19,0,2,,,,,,,,1,,,84,0
29579,note_on,19,0,11,,,,,,,,7,,,56,0
29579,note_on,0,0,3,,,,,,,,2,,,75,0
29579,note_on,19,0,12,,,,,,,,7,,,44,0
29579,note_on,19,0,3,,,,,,,,2,,,72,0
29579,note_on,19,0,6,,,,,,,,5,,,75,0
29579,note_on,0,0,6,,,,,,,,5,,,63,0
29599,note_on,37,0,9,,,,,,,,7,,,75,0
29599,note_on,39,0,7,,,,,,,,6,,,51,0
29599,note_on,37,0,8,,,,,,,,7,,,87,0
29600,note_on,21,0,3,,,,,,,,2,,,72,127
29600,note_on,21,0,5,,,,,,,,4,,,51,127
29600,note_on,0,0,6,,,,,,,,5,,,75,127
29600,note_on,21,0,6,,,,,,,,5,,,63,127
29600,note_on,0,0,3,,,,,,,,2,,,75,127
29600,note_on,1,0,9,,,,,,,,7,,,72,127
29600,note_on,0,0,2,,,,,,,,1,,,84,127
29600,note_on,21,0,2,,,,,,,,1,,,75,127
29600,note_on,1,0,8,,,,,,,,7,,,84,127
29600,note_on,21,0,11,,,,,,,,7,,,44,127
29600,note_on,21,0,10,,,,,,,,7,,,56,127
29600,note_on,21,0,1,,,,,,,,0,,,84,127
29600,note_on,0,0,1,,,,,,,,0,,,87,127
29600,note_on,1,0,7,,,,,,,,6,,,51,127
29600,note_on,0,0,5,,,,,,,,4,,,63,127
29600,note_on,21,0,12,,,,,,,,7,,,32,127
29600,note_on,21,0,4,,,,,,,,3,,,44,127
29619,note_on,19,0,4,,,,,,,,3,,,44,0
29619,note_on,0,0,5,,,,,,,,4,,,51,0
29619,note_on,19,0,5,,,,,,,,4,,,63,0
29619,note_on,19,0,6,,,,,,,,5,,,75,0
29619,note_on,19,0,2,,,,,,,,1,,,84,0
29619,note_on,19,0,11,,,,,,,,7,,,44,0
29619,note_on,19,0,8,,,,,,,,7,,,84,0
29619,note_on,19,0,12,,,,,,,,7,,,32,0
29619,note_on,19,0,3,,,,,,,,2,,,75,0
29619,note_on,0,0,3,,,,,,,,2,,,72,0
29619,note_on,0,0,6,,,,,,,,5,,,63,0
29619,note_on,19,0,10,,,,,,,,7,,,56,0
29619,note_on,0,0,2,,,,,,,,1,,,75,0
29619,note_on,19,0,1,,,,,,,,0,,,87,0
29619,note_on,0,0,1,,,,,,,,0,,,84,0
29619,note_on,19,0,9,,,,,,,,7,,,72,0
29639,note_on,39,0,7,,,,,,,,6,,,51,0
29640,note_on,21,0,1,,,,,,,,0,,,82,127
29640,note_on,21,0,9,,,,,,,,7,,,75,127
29640,note_on,0,0,6,,,,,,,,5,,,63,127
29640,note_on,21,0,10,,,,,,,,7,,,67,127
29640,note_on,21,0,8,,,,,,,,7,,,87,127
29640,note_on,21,0,11,,,,,,,,7,,,55,127
29640,note_on,0,0,5,,,,,,,,4,,,63,127
29640,note_on,0,0,2,,,,,,,,1,,,75,127
29640,note_on,1,0,7,,,,,,,,6,,,51,127
29640,note_on,0,0,1,,,,,,,,0,,,87,127
29640,note_on,21,0,5,,,,,,,,4,,,51,127
29640,note_on,0,0,3,,,,,,,,2,,,75,127
29640,note_on,21,0,12,,,,,,,,7,,,43,127
29640,note_on,21,0,3,,,,,,,,2,,,70,127
29640,note_on,21,0,4,,,,,,,,3,,,55,127
29640,note_on,21,0,2,,,,,,,,1,,,82,127
29640,note_on,21,0,6,,,,,,,,5,,,75,127
29659,note_on,0,0,3,,,,,,,,2,,,70,0
29659,note_on,19,0,3,,,,,,,,2,,,75,0
29659,note_on,19,0,4,,,,,,,,3,,,55,0
29659,note_on,19,0,6,,,,,,,,5,,,63,0
29659,note_on,0,0,1,,,,,,,,0,,,82,0
29659,note_on,19,0,11,,,,,,,,7,,,55,0
29659,note_on,19,0,9,,,,,,,,7,,,75,0
29659,note_on,19,0,10,,,,,,,,7,,,67,0
29659,note_on,0,0,6,,,,,,,,5,,,75,0
29659,note_on,19,0,1,,,,,,,,0,,,87,0
29659,note_on,19,0,5,,,,,,,,4,,,63,0
29659,note_on,19,0,8,,,,,,,,7,,,87,0
29659,note_on,0,0,2,,,,,,,,1,,,82,0
29659,note_on,19,0,2,,,,,,,,1,,,75,0
29659,note_on,19,0,12,,,,,,,,7,,,43,0
29659,note_on,0,0,5,,,,,,,,4,,,51,0
29679,note_on,39,0,7,,,,,,,,6,,,51,0
29680,note_on,0,0,2,,,,,,,,1,,,75,127
29680,note_on,0,0,5,,,,,,,,4,,,63,127
29680,note_on,21,0,10,,,,,,,,7,,,55,127
29680,note_on,21,0,5,,,,,,,,4,,,51,127
29680,note_on,21,0,4,,,,,,,,3,,,43,127
29680,note_on,0,0,1,,,,,,,,0,,,87,127
29680,note_on,1,0,7,,,,,,,,6,,,51,127
29680,note_on,21,0,3,,,,,,,,2,,,75,127
29680,note_on,21,0,2,,,,,,,,1,,,82,127
29680,note_on,0,0,3,,,,,,,,2,,,70,127
29680,note_on,21,0,6,,,,,,,,5,,,75,127
29680,note_on,0,0,6,,,,,,,,5,,,63,127
29680,note_on,21,0,8,,,,,,,,7,,,82,127
29680,note_on,21,0,11,,,,,,,,7,,,43,127
29680,note_on,21,0,1,,,,,,,,0,,,82,127
29680,note_on,21,0,9,,,,,,,,7,,,70,127
29680,note_on,21,0,12,,,,,,,,7,,,31,127
29699,note_on,19,0,6,,,,,,,,5,,,63,0
29699,note_on,19,0,4,,,,,,,,3,,,43,0
29699,note_on,19,0,10,,,,,,,,7,,,55,0
29699,note_on,0,0,6,,,,,,,,5,,,75,0
29699,note_on,19,0,5,,,,,,,,4,,,63,0
29699,note_on,0,0,1,,,,,,,,0,,,82,0
29699,note_on,19,0,12,,,,,,,,7,,,31,0
29699,note_on,0,0,5,,,,,,,,4,,,51,0
29699,note_on,0,0,3,,,,,,,,2,,,75,0
29699,note_on,19,0,9,,,,,,,,7,,,70,0
29699,note_on,19,0,8,,,,,,,,7,,,82,0
29699,note_on,19,0,1,,,,,,,,0,,,87,0
29699,note_on,19,0,11,,,,,,,,7,,,43,0
29699,note_on,19,0,2,,,,,,,,1,,,75,0
29699,note_on,0,0,2,,,,,,,,1,,,82,0
29699,note_on,19,0,3,,,,,,,,2,,,70,0
29719,note_on,39,0,7,,,,,,,,6,,,51,0
29720,note_on,21,0,8,,,,,,,,7,,,87,127
29720,note_on,21,0,11,,,,,,,,7,,,55,127
29720,note_on,0,0,5,,,,,,,,4,,,63,127
29720,note_on,21,0,5,,,,,,,,4,,,51,127
29720,note_on,21,0,4,,,,,,,,3,,,55,127
29720,note_on,0,0,6,,,,,,,,5,,,63,127
29720,note_on,1,0,7,,,,,,,,6,,,51,127
29720,note_on,21,0,12,,,,,,,,7,,,43,127
29720,note_on,0,0,2,,,,,,,,1,,,75,127
29720,note_on,21,0,2,,,,,,,,1,,,82,127
29720,note_on,21,0,1,,,,,,,,0,,,82,127
29720,note_on,0,0,1,,,,,,,,0,,,87,127
29720,note_on,21,0,9,,,,,,,,7,,,75,127
29720,note_on,0,0,3,,,,,,,,2,,,75,127
29720,note_on,21,0,3,,,,,,,,2,,,70,127
29720,note_on,21,0,6,,,,,,,,5,,,75,127
29720,note_on,21,0,10,,,,,,,,7,,,67,127
29739,note_on,0,0,6,,,,,,,,5,,,75,0
29739,note_on,19,0,6,,,,,,,,5,,,63,0
29739,note_on,19,0,11,,,,,,,,7,,,55,0
29739,note_on,19,0,10,,,,,,,,7,,,67,0
29739,note_on,19,0,9,,,,,,,,7,,,75,0
29739,note_on,19,0,5,,,,,,,,4,,,63,0
29739,note_on,19,0,12,,,,,,,,7,,,43,0
29739,note_on,0,0,1,,,,,,,,0,,,82,0
29739,note_on,0,0,2,,,,,,,,1,,,82,0
29739,note_on,19,0,2,,,,,,,,1,,,75,0
29739,note_on,19,0,3,,,,,,,,2,,,75,0
29739,note_on,0,0,3,,,,,,,,2,,,70,0
29739,note_on,19,0,1,,,,,,,,0,,,87,0
29739,note_on,19,0,4,,,,,,,,3,,,55,0
29739,note_on,0,0,5,,,,,,,,4,,,51,0
29739,note_on,19,0,8,,,,,,,,7,,,87,0
29759,note_on,39,0,7,,,,,,,,6,,,51,0
29760,note_on,0,0,3,,,,,,,,2,,,68,127
29760,note_on,21,0,2,,,,,,,,1,,,72,127
29760,note_on,21,0,12,,,,,,,,7,,,32,127
29760,note_on,21,0,10,,,,,,,,7,,,56,127
29760,note_on,21,0,8,,,,,,,,7,,,80,127
29760,note_on,0,0,2,,,,,,,,1,,,80,127
29760,note_on,21,0,6,,,,,,,,5,,,75,127
29760,note_on,21,0,5,,,,,,,,4,,,63,127
29760,note_on,21,0,4,,,,,,,,3,,,44,127
29760,note_on,21,0,1,,,,,,,,0,,,87,127
29760,note_on,0,0,1,,,,,,,,0,,,84,127
29760,note_on,21,0,11,,,,,,,,7,,,44,127
29760,note_on,0,0,5,,,,,,,,4,,,65,127
29760,note_on,0,0,5,,,,,,,,4,,,51,127
29760,note_on,1,0,7,,,,,,,,6,,,51,127
29760,note_on,21,0,3,,,,,,,,2,,,75,127
29760,note_on,0,0,6,,,,,,,,5,,,63,127
29760,note_on,21,0,9,,,,,,,,7,,,68,127
29779,note_on,19,0,4,,,,,,,,3,,,44,0
29779,note_on,19,0,9,,,,,,,,7,,,68,0
29779,note_on,19,0,8,,,,,,,,7,,,80,0
29779,note_on,19,0,5,,,,,,,,4,,,65,0
29779,note_on,19,0,2,,,,,,,,1,,,80,0
29779,note_on,0,0,2,,,,,,,,1,,,72,0
29779,note_on,19,0,3,,,,,,,,2,,,68,0
29779,note_on,0,0,5,,,,,,,,4,,,63,0
29779,note_on,0,0,3,,,,,,,,2,,,75,0
29779,note_on,19,0,12,,,,,,,,7,,,32,0
29779,note_on,19,0,11,,,,,,,,7,,,44,0
29779,note_on,19,0,1,,,,,,,,0,,,84,0
29779,note_on,19,0,10,,,,,,,,7,,,56,0
29779,note_on,0,0,5,,,,,,,,4,,,51,0
29779,note_on,19,0,6,,,,,,,,5,,,63,0
29779,note_on,0,0,6,,,,,,,,5,,,75,0
29779,note_on,0,0,1,,,,,,,,0,,,87,0
29799,note_on,39,0,7,,,,,,,,6,,,51,0
29800,note_on,21,0,5,,,,,,,,4,,,63,127
29800,note_on,0,0,5,,,,,,,,4,,,65,127
29800,note_on,0,0,1,,,,,,,,0,,,84,127
29800,note_on,0,0,3,,,,,,,,2,,,75,127
29800,note_on,21,0,3,,,,,,,,2,,,68,127
29800,note_on,0,0,5,,,,,,,,4,,,51,127
29800,note_on,21,0,1,,,,,,,,0,,,87,127
29800,note_on,1,0,7,,,,,,,,6,,,51,127
29800,note_on,21,0,4,,,,,,,,3,,,53,127
29800,note_on,21,0,9,,,,,,,,7,,,75,127
29800,note_on,0,0,6,,,,,,,,5,,,63,127
29800,note_on,21,0,11,,,,,,,,7,,,53,127
29800,note_on,21,0,6,,,,,,,,5,,,75,127
29800,note_on,21,0,12,,,,,,,,7,,,41,127
29800,note_on,21,0,8,,,,,,,,7,,,87,127
29800,note_on,21,0,10,,,,,,,,7,,,65,127
29800,note_on,0,0,2,,,,,,,,1,,,80,127
29800,note_on,21,0,2,,,,,,,,1,,,72,127
29819,note_on,19,0,5,,,,,,,,4,,,65,0
29819,note_on,0,0,6,,,,,,,,5,,,75,0
29819,note_on,0,0,2,,,,,,,,1,,,72,0
29819,note_on,19,0,2,,,,,,,,1,,,80,0
29819,note_on,19,0,6,,,,,,,,5,,,63,0
29819,note_on,0,0,5,,,,,,,,4,,,51,0
29819,note_on,19,0,12,,,,,,,,7,,,41,0
29819,note_on,0,0,5,,,,,,,,4,,,63,0
29819,note_on,19,0,3,,,,,,,,2,,,75,0
29819,note_on,0,0,1,,,,,,,,0,,,87,0
29819,note_on,19,0,11,,,,,,,,7,,,53,0
29819,note_on,0,0,3,,,,,,,,2,,,68,0
29819,note_on,19,0,9,,,,,,,,7,,,75,0
29819,note_on,19,0,8,,,,,,,,7,,,87,0
29819,note_on,19,0,10,,,,,,,,7,,,65,0
29819,note_on,19,0,4,,,,,,,,3,,,53,0
29819,note_on,19,0,1,,,,,,,,0,,,84,0
29839,note_on,39,0,7,,,,,,,,6,,,51,0
29840,note_on,21,0,3,,,,,,,,2,,,68,127
29840,note_on,0,0,3,,,,,,,,2,,,75,127
29840,note_on,1,0,7,,,,,,,,6,,,51,127
29840,note_on,21,0,10,,,,,,,,7,,,56,127
29840,note_on,21,0,2,,,,,,,,1,,,72,127
29840,note_on,21,0,8,,,,,,,,7,,,80,127
29840,note_on,0,0,2,,,,,,,,1,,,80,127
29840,note_on,0,0,6,,,,,,,,5,,,63,127
29840,note_on,21,0,12,,,,,,,,7,,,32,127
29840,note_on,0,0,5,,,,,,,,4,,,51,127
29840,note_on,21,0,11,,,,,,,,7,,,44,127
29840,note_on,21,0,9,,,,,,,,7,,,68,127
29840,note_on,21,0,5,,,,,,,,4,,,63,127
29840,note_on,21,0,4,,,,,,,,3,,,44,127
29840,note_on,21,0,6,,,,,,,,5,,,75,127
29840,note_on,21,0,1,,,,,,,,0,,,87,127
29840,note_on,0,0,1,,,,,,,,0,,,84,127
29840,note_on,0,0,5,,,,,,,,4,,,65,127
29859,note_on,19,0,1,,,,,,,,0,,,84,0
29859,note_on,19,0,2,,,,,,,,1,,,80,0
29859,note_on,0,0,2,,,,,,,,1,,,72,0
29859,note_on,19,0,4,,,,,,,,3,,,44,0
29859,note_on,19,0,11,,,,,,,,7,,,44,0
29859,note_on,0,0,6,,,,,,,,5,,,75,0
29859,note_on,19,0,6,,,,,,,,5,,,63,0
29859,note_on,19,0,9,,,,,,,,7,,,68,0
29859,note_on,19,0,10,,,,,,,,7,,,56,0
29859,note_on,0,0,1,,,,,,,,0,,,87,0
29859,note_on,19,0,8,,,,,,,,7,,,80,0
29859,note_on,19,0,3,,,,,,,,2,,,75,0
29859,note_on,0,0,3,,,,,,,,2,,,68,0
29859,note_on,19,0,5,,,,,,,,4,,,65,0
29859,note_on,0,0,5,,,,,,,,4,,,51,0
29859,note_on,0,0,5,,,,,,,,4,,,63,0
29859,note_on,19,0,12,,,,,,,,7,,,32,0
29879,note_on,39,0,7,,,,,,,,6,,,51,0
29880,note_on,21,0,3,,,,,,,,2,,,67,127
29880,note_on,0,0,3,,,,,,,,2,,,75,127
29880,note_on,21,0,10,,,,,,,,7,,,67,127
29880,note_on,0,0,6,,,,,,,,5,,,63,127
29880,note_on,0,0,5,,,,,,,,4,,,51,127
29880,note_on,21,0,9,,,,,,,,7,,,75,127
29880,note_on,21,0,5,,,,,,,,4,,,63,127
29880,note_on,0,0,1,,,,,,,,0,,,87,127
29880,note_on,21,0,1,,,,,,,,0,,,82,127
29880,note_on,21,0,12,,,,,,,,7,,,34,127
29880,note_on,21,0,11,,,,,,,,7,,,46,127
29880,note_on,21,0,6,,,,,,,,5,,,75,127
29880,note_on,21,0,8,,,,,,,,7,,,87,127
29880,note_on,0,0,5,,,,,,,,4,,,67,127
29880,note_on,21,0,2,,,,,,,,1,,,70,127
29880,note_on,0,0,2,,,,,,,,1,,,79,127
29880,note_on,1,0,7,,,,,,,,6,,,46,127
29880,note_on,21,0,4,,,,,,,,3,,,46,127
29899,note_on,0,0,6,,,,,,,,5,,,75,0
29899,note_on,19,0,7,,,,,,,,6,,,46,0
29899,note_on,19,0,11,,,,,,,,7,,,46,0
29899,note_on,0,0,5,,,,,,,,4,,,63,0
29899,note_on,0,0,5,,,,,,,,4,,,51,0
29899,note_on,19,0,5,,,,,,,,4,,,67,0
29899,note_on,19,0,9,,,,,,,,7,,,75,0
29899,note_on,19,0,1,,,,,,,,0,,,87,0
29899,note_on,19,0,12,,,,,,,,7,,,34,0
29899,note_on,0,0,2,,,,,,,,1,,,70,0
29899,note_on,0,0,3,,,,,,,,2,,,67,0
29899,note_on,19,0,3,,,,,,,,2,,,75,0
29899,note_on,0,0,1,,,,,,,,0,,,82,0
29899,note_on,19,0,8,,,,,,,,7,,,87,0
29899,note_on,19,0,4,,,,,,,,3,,,46,0
29899,note_on,19,0,10,,,,,,,,7,,,67,0
29899,note_on,19,0,6,,,,,,,,5,,,63,0
29899,note_on,19,0,2,,,,,,,,1,,,79,0
29900,note_on,1,0,7,,,,,,,,6,,,46,127
29919,note_on,19,0,7,,,,,,,,6,,,46,0
29920,note_on,1,0,7,,,,,,,,6,,,46,127
29920,note_on,0,0,5,,,,,,,,4,,,67,127
29920,note_on,21,0,1,,,,,,,,0,,,82,127
29920,note_on,21,0,11,,,,,,,,7,,,55,127
29920,note_on,21,0,12,,,,,,,,7,,,43,127
29920,note_on,21,0,3,,,,,,,,2,,,67,127
29920,note_on,21,0,8,,,,,,,,7,,,79,127
29920,note_on,21,0,5,,,,,,,,4,,,63,127
29920,note_on,21,0,10,,,,,,,,7,,,58,127
29920,note_on,21,0,2,,,,,,,,1,,,75,127
29920,note_on,0,0,2,,,,,,,,1,,,79,127
29920,note_on,0,0,5,,,,,,,,4,,,51,127
29920,note_on,0,0,1,,,,,,,,0,,,87,127
29920,note_on,0,0,6,,,,,,,,5,,,63,127
29920,note_on,21,0,6,,,,,,,,5,,,75,127
29920,note_on,21,0,9,,,,,,,,7,,,67,127
29920,note_on,0,0,3,,,,,,,,2,,,75,127
29920,note_on,21,0,4,,,,,,,,3,,,55,127
29939,note_on,19,0,1,,,,,,,,0,,,87,0
29939,note_on,19,0,3,,,,,,,,2,,,75,0
29939,note_on,0,0,5,,,,,,,,4,,,63,0
29939,note_on,0,0,5,,,,,,,,4,,,51,0
29939,note_on,19,0,5,,,,,,,,4,,,67,0
29939,note_on,0,0,1,,,,,,,,0,,,82,0
29939,note_on,19,0,4,,,,,,,,3,,,55,0
29939,note_on,19,0,9,,,,,,,,7,,,67,0
29939,note_on,19,0,10,,,,,,,,7,,,58,0
29939,note_on,19,0,11,,,,,,,,7,,,55,0
29939,note_on,19,0,8,,,,,,,,7,,,79,0
29939,note_on,19,0,7,,,,,,,,6,,,46,0
29939,note_on,19,0,6,,,,,,,,5,,,63,0
29939,note_on,19,0,2,,,,,,,,1,,,79,0
29939,note_on,0,0,2,,,,,,,,1,,,75,0
29939,note_on,0,0,6,,,,,,,,5,,,75,0
29939,note_on,0,0,3,,,,,,,,2,,,67,0
29939,note_on,19,0,12,,,,,,,,7,,,43,0
29940,note_on,1,0,7,,,,,,,,6,,,46,127
29959,note_on,19,0,7,,,,,,,,6,,,46,0
29960,note_on,0,0,5,,,,,,,,4,,,67,127
29960,note_on,21,0,8,,,,,,,,7,,,87,127
29960,note_on,21,0,5,,,,,,,,4,,,63,127
29960,note_on,0,0,2,,,,,,,,1,,,79,127
29960,note_on,21,0,6,,,,,,,,5,,,75,127
29960,note_on,0,0,6,,,,,,,,5,,,63,127
29960,note_on,21,0,9,,,,,,,,7,,,75,127
29960,note_on,0,0,5,,,,,,,,4,,,51,127
29960,note_on,21,0,12,,,,,,,,7,,,34,127
29960,note_on,1,0,7,,,,,,,,6,,,46,127
29960,note_on,21,0,1,,,,,,,,0,,,82,127
29960,note_on,0,0,1,,,,,,,,0,,,87,127
29960,note_on,0,0,3,,,,,,,,2,,,75,127
29960,note_on,21,0,3,,,,,,,,2,,,67,127
29960,note_on,21,0,4,,,,,,,,3,,,46,127
29960,note_on,21,0,2,,,,,,,,1,,,75,127
29960,note_on,21,0,10,,,,,,,,7,,,67,127
29960,note_on,21,0,11,,,,,,,,7,,,46,127
29979,note_on,19,0,12,,,,,,,,7,,,34,0
29979,note_on,0,0,3,,,,,,,,2,,,67,0
29979,note_on,19,0,10,,,,,,,,7,,,67,0
29979,note_on,19,0,3,,,,,,,,2,,,75,0
29979,note_on,19,0,2,,,,,,,,1,,,79,0
29979,note_on,19,0,6,,,,,,,,5,,,63,0
29979,note_on,19,0,5,,,,,,,,4,,,67,0
29979,note_on,0,0,5,,,,,,,,4,,,51,0
29979,note_on,19,0,8,,,,,,,,7,,,87,0
29979,note_on,19,0,9,,,,,,,,7,,,75,0
29979,note_on,19,0,11,,,,,,,,7,,,46,0
29979,note_on,19,0,7,,,,,,,,6,,,46,0
29979,note_on,19,0,1,,,,,,,,0,,,87,0
29979,note_on,0,0,1,,,,,,,,0,,,82,0
29979,note_on,19,0,4,,,,,,,,3,,,46,0
29979,note_on,0,0,2,,,,,,,,1,,,75,0
29979,note_on,0,0,6,,,,,,,,5,,,75,0
29979,note_on,0,0,5,,,,,,,,4,,,63,0
29980,note_on,1,0,7,,,,,,,,6,,,46,127
29999,note_on,19,0,7,,,,,,,,6,,,46,0
30000,note_on,0,0,5,,,,,,,,4,,,58,127
30000,note_on,1,0,7,,,,,,,,6,,,46,127
30000,note_on,21,0,6,,,,,,,,5,,,58,127
30000,note_on,0,0,6,,,,,,,,5,,,70,127
30000,note_on,21,0,4,,,,,,,,3,,,58,127
30000,note_on,0,0,1,,,,,,,,0,,,86,127
30000,note_on,21,0,2,,,,,,,,1,,,80,127
30000,note_on,0,0,3,,,,,,,,2,,,74,127
30000,note_on,21,0,12,,,,,,,,7,,,46,127
30000,note_on,21,0,5,,,,,,,,4,,,65,127
30000,note_on,21,0,10,,,,,,,,7,,,58,127
30000,note_on,21,0,8,,,,,,,,7,,,77,127
30000,note_on,21,0,11,,,,,,,,7,,,58,127
30000,note_on,21,0,9,,,,,,,,7,,,65,127
30000,note_on,21,0,3,,,,,,,,2,,,68,127
30000,note_on,0,0,2,,,,,,,,1,,,77,127
30000,note_on,21,0,1,,,,,,,,0,,,82,127
30000,note_on,0,0,5,,,,,,,,4,,,68,127
30019,note_on,0,0,3,,,,,,,,2,,,68,0
30019,note_on,19,0,4,,,,,,,,3,,,58,0
30019,note_on,19,0,10,,,,,,,,7,,,58,0
30019,note_on,19,0,1,,,,,,,,0,,,86,0
30019,note_on,0,0,5,,,,,,,,4,,,65,0
30019,note_on,19,0,11,,,,,,,,7,,,58,0
30019,note_on,0,0,5,,,,,,,,4,,,58,0
30019,note_on,0,0,1,,,,,,,,0,,,82,0
30019,note_on,19,0,7,,,,,,,,6,,,46,0
30019,note_on,19,0,12,,,,,,,,7,,,46,0
30019,note_on,19,0,2,,,,,,,,1,,,77,0
30019,note_on,0,0,2,,,,,,,,1,,,80,0
30019,note_on,19,0,8,,,,,,,,7,,,77,0
30019,note_on,19,0,9,,,,,,,,7,,,65,0
30019,note_on,19,0,3,,,,,,,,2,,,74,0
30019,note_on,19,0,5,,,,,,,,4,,,68,0
30020,note_on,1,0,7,,,,,,,,6,,,46,127
30039,note_on,0,0,6,,,,,,,,5,,,58,0
30039,note_on,39,0,6,,,,,,,,5,,,70,0
30039,note_on,19,0,7,,,,,,,,6,,,46,0
30040,note_on,0,0,3,,,,,,,,2,,,74,127
30040,note_on,21,0,10,,,,,,,,7,,,70,127
30040,note_on,21,0,12,,,,,,,,7,,,34,127
30040,note_on,0,0,2,,,,,,,,1,,,80,127
30040,note_on,21,0,4,,,,,,,,3,,,46,127
30040,note_on,1,0,7,,,,,,,,6,,,46,127
30040,note_on,21,0,1,,,,,,,,0,,,82,127
30040,note_on,0,0,1,,,,,,,,0,,,86,127
30040,note_on,21,0,3,,,,,,,,2,,,68,127
30040,note_on,21,0,11,,,,,,,,7,,,46,127
30040,note_on,1,0,6,,,,,,,,5,,,58,127
30040,note_on,21,0,2,,,,,,,,1,,,77,127
30040,note_on,21,0,9,,,,,,,,7,,,74,127
30040,note_on,21,0,8,,,,,,,,7,,,86,127
30040,note_on,0,0,5,,,,,,,,4,,,58,127
30040,note_on,0,0,5,,,,,,,,4,,,68,127
30040,note_on,0,0,6,,,,,,,,5,,,70,127
30040,note_on,21,0,5,,,,,,,,4,,,65,127
30059,note_on,19,0,3,,,,,,,,2,,,74,0
30059,note_on,0,0,5,,,,,,,,4,,,58,0
30059,note_on,0,0,3,,,,,,,,2,,,68,0
30059,note_on,19,0,1,,,,,,,,0,,,86,0
30059,note_on,19,0,12,,,,,,,,7,,,34,0
30059,note_on,19,0,5,,,,,,,,4,,,68,0
30059,note_on,19,0,7,,,,,,,,6,,,46,0
30059,note_on,19,0,8,,,,,,,,7,,,86,0
30059,note_on,19,0,4,,,,,,,,3,,,46,0
30059,note_on,19,0,9,,,,,,,,7,,,74,0
30059,note_on,19,0,11,,,,,,,,7,,,46,0
30059,note_on,0,0,2,,,,,,,,1,,,77,0
30059,note_on,19,0,10,,,,,,,,7,,,70,0
30059,note_on,19,0,2,,,,,,,,1,,,80,0
30059,note_on,0,0,5,,,,,,,,4,,,65,0
30059,note_on,0,0,1,,,,,,,,0,,,82,0
30060,note_on,1,0,7,,,,,,,,6,,,46,127
30079,note_on,0,0,6,,,,,,,,5,,,58,0
30079,note_on,39,0,6,,,,,,,,5,,,70,0
30079,note_on,19,0,7,,,,,,,,6,,,46,0
30080,note_on,21,0,10,,,,,,,,7,,,58,127
30080,note_on,21,0,8,,,,,,,,7,,,77,127
30080,note_on,21,0,12,,,,,,,,7,,,46,127
30080,note_on,21,0,9,,,,,,,,7,,,65,127
30080,note_on,21,0,11,,,,,,,,7,,,58,127
30080,note_on,0,0,1,,,,,,,,0,,,86,127
30080,note_on,21,0,1,,,,,,,,0,,,82,127
30080,note_on,21,0,3,,,,,,,,2,,,68,127
30080,note_on,1,0,6,,,,,,,,5,,,58,127
30080,note_on,0,0,6,,,,,,,,5,,,70,127
30080,note_on,0,0,3,,,,,,,,2,,,74,127
30080,note_on,21,0,4,,,,,,,,3,,,58,127
30080,note_on,1,0,7,,,,,,,,6,,,46,127
30080,note_on,21,0,5,,,,,,,,4,,,65,127
30080,note_on,21,0,2,,,,,,,,1,,,77,127
30080,note_on,0,0,2,,,,,,,,1,,,80,127
30080,note_on,0,0,5,,,,,,,,4,,,68,127
30080,note_on,0,0,5,,,,,,,,4,,,58,127
30099,note_on,19,0,3,,,,,,,,2,,,74,0
30099,note_on,19,0,10,,,,,,,,7,,,58,0
30099,note_on,19,0,7,,,,,,,,6,,,46,0
30099,note_on,19,0,11,,,,,,,,7,,,58,0
30099,note_on,19,0,8,,,,,,,,7,,,77,0
30099,note_on,19,0,2,,,,,,,,1,,,80,0
30099,note_on,0,0,1,,,,,,,,0,,,82,0
30099,note_on,19,0,12,,,,,,,,7,,,46,0
30099,note_on,19,0,5,,,,,,,,4,,,68,0
30099,note_on,0,0,5,,,,,,,,4,,,58,0
30099,note_on,0,0,3,,,,,,,,2,,,68,0
30099,note_on,19,0,9,,,,,,,,7,,,65,0
30099,note_on,0,0,5,,,,,,,,4,,,65,0
30099,note_on,0,0,2,,,,,,,,1,,,77,0
30099,note_on,19,0,4,,,,,,,,3,,,58,0
30099,note_on,19,0,1,,,,,,,,0,,,86,0
30100,note_on,1,0,7,,,,,,,,6,,,46,127
30119,note_on,0,0,6,,,,,,,,5,,,58,0
30119,note_on,39,0,6,,,,,,,,5,,,70,0
30119,note_on,19,0,7,,,,,,,,6,,,46,0
30120,note_on,21,0,2,,,,,,,,1,,,75,127
30120,note_on,21,0,8,,,,,,,,7,,,87,127
30120,note_on,21,0,9,,,,,,,,7,,,75,127
30120,note_on,0,0,9,,,,,,,,7,,,67,127
30120,note_on,0,0,8,,,,,,,,7,,,79,127
30120,note_on,0,0,2,,,,,,,,1,,,79,127
30120,note_on,1,0,6,,,,,,,,5,,,75,127
30120,note_on,1,0,7,,,,,,,,6,,,51,127
30120,note_on,21,0,3,,,,,,,,2,,,75,127
30120,note_on,0,0,3,,,,,,,,2,,,67,127
30120,note_on,0,0,5,,,,,,,,4,,,67,127
30120,note_on,21,0,12,,,,,,,,7,,,39,127
30120,note_on,0,0,5,,,,,,,,4,,,58,127
30120,note_on,21,0,5,,,,,,,,4,,,63,127
30120,note_on,21,0,4,,,,,,,,3,,,51,127
30120,note_on,21,0,1,,,,,,,,0,,,82,127
30120,note_on,21,0,11,,,,,,,,7,,,51,127
30120,note_on,0,0,6,,,,,,,,5,,,63,127
30120,note_on,21,0,10,,,,,,,,7,,,63,127
30120,note_on,0,0,1,,,,,,,,0,,,87,127
30139,note_on,19,0,1,,,,,,,,0,,,87,0
30139,note_on,0,0,1,,,,,,,,0,,,82,0
30139,note_on,19,0,11,,,,,,,,7,,,51,0
30139,note_on,19,0,9,,,,,,,,7,,,67,0
30139,note_on,0,0,9,,,,,,,,7,,,75,0
30139,note_on,19,0,4,,,,,,,,3,,,51,0
30139,note_on,0,0,2,,,,,,,,1,,,75,0
30139,note_on,19,0,3,,,,,,,,2,,,67,0
30139,note_on,19,0,10,,,,,,,,7,,,63,0
30139,note_on,19,0,2,,,,,,,,1,,,79,0
30139,note_on,19,0,6,,,,,,,,5,,,63,0
30139,note_on,0,0,6,,,,,,,,5,,,75,0
30139,note_on,19,0,5,,,,,,,,4,,,67,0
30139,note_on,0,0,5,,,,,,,,4,,,58,0
30139,note_on,0,0,5,,,,,,,,4,,,63,0
30139,note_on,19,0,12,,,,,,,,7,,,39,0
30139,note_on,0,0,3,,,,,,,,2,,,75,0
30139,note_on,19,0,8,,,,,,,,7,,,79,0
30139,note_on,0,0,8,,,,,,,,7,,,87,0
30159,note_on,39,0,7,,,,,,,,6,,,51,0
30160,note_on,21,0,8,,,,,,,,7,,,79,127
30160,note_on,21,0,10,,,,,,,,7,,,67,127
30160,note_on,21,0,11,,,,,,,,7,,,67,127
30160,note_on,21,0,9,,,,,,,,7,,,79,127
30160,note_on,21,0,12,,,,,,,,7,,,55,127
30199,note_on,39,0,8,,,,,,,,7,,,79,0
30199,note_on,39,0,9,,,,,,,,7,,,79,0
30199,note_on,39,0,10,,,,,,,,7,,,67,0
30199,note_on,39,0,11,,,,,,,,7,,,67,0
30199,note_on,39,0,12,,,,,,,,7,,,55,0
30240,note_on,41,0,11,,,,,,,,7,,,63,127
30240,note_on,41,0,12,,,,,,,,7,,,51,127
30240,note_on,41,0,8,,,,,,,,7,,,75,127
30240,note_on,41,0,9,,,,,,,,7,,,75,127
30240,note_on,41,0,10,,,,,,,,7,,,63,127
30259,note_on,19,0,11,,,,,,,,7,,,63,0
30259,note_on,19,0,12,,,,,,,,7,,,51,0
30259,note_on,19,0,9,,,,,,,,7,,,75,0
30259,note_on,19,0,8,,,,,,,,7,,,75,0
30259,note_on,19,0,10,,,,,,,,7,,,63,0
30280,note_on,21,0,10,,,,,,,,7,,,58,127
30280,note_on,21,0,9,,,,,,,,7,,,70,127
30280,note_on,21,0,8,,,,,,,,7,,,70,127
30280,note_on,21,0,11,,,,,,,,7,,,58,127
30280,note_on,21,0,12,,,,,,,,7,,,46,127
30319,note_on,39,0,8,,,,,,,,7,,,70,0
30319,note_on,39,0,9,,,,,,,,7,,,70,0
30319,note_on,39,0,12,,,,,,,,7,,,46,0
30319,note_on,39,0,10,,,,,,,,7,,,58,0
30319,note_on,39,0,11,,,,,,,,7,,,58,0
30360,note_on,41,0,9,,,,,,,,7,,,67,127
30360,note_on,41,0,11,,,,,,,,7,,,55,127
30360,note_on,41,0,12,,,,,,,,7,,,43,127
30360,note_on,41,0,8,,,,,,,,7,,,67,127
30360,note_on,41,0,10,,,,,,,,7,,,55,127
30379,note_on,19,0,9,,,,,,,,7,,,67,0
30379,note_on,19,0,12,,,,,,,,7,,,43,0
30379,note_on,19,0,10,,,,,,,,7,,,55,0
30379,note_on,19,0,8,,,,,,,,7,,,67,0
30379,note_on,19,0,11,,,,,,,,7,,,55,0
30400,note_on,21,0,12,,,,,,,,7,,,39,127
30400,note_on,21,0,8,,,,,,,,7,,,63,127
30400,note_on,21,0,11,,,,,,,,7,,,51,127
30400,note_on,21,0,10,,,,,,,,7,,,51,127
30420,note_on,41,0,9,,,,,,,,7,,,63,127
30439,note_on,39,0,11,,,,,,,,7,,,51,0
30439,note_on,39,0,10,,,,,,,,7,,,51,0
30439,note_on,39,0,12,,,,,,,,7,,,39,0
30439,note_on,39,0,8,,,,,,,,7,,,63,0
30459,note_on,39,0,9,,,,,,,,7,,,63,0
30480,note_on,21,0,9,,,,,,,,7,,,58,127
30480,note_on,41,0,10,,,,,,,,7,,,58,127
30480,note_on,41,0,12,,,,,,,,7,,,34,127
30480,note_on,41,0,8,,,,,,,,7,,,58,127
30480,note_on,41,0,11,,,,,,,,7,,,46,127
30499,note_on,19,0,9,,,,,,,,7,,,58,0
30499,note_on,19,0,10,,,,,,,,7,,,58,0
30519,note_on,39,0,12,,,,,,,,7,,,34,0
30519,note_on,39,0,11,,,,,,,,7,,,46,0
30519,note_on,39,0,8,,,,,,,,7,,,58,0
30560,note_on,61,0,10,,,,,,,,7,,,58,127
30560,note_on,61,0,9,,,,,,,,7,,,58,127
30560,note_on,41,0,12,,,,,,,,7,,,34,127
30560,note_on,41,0,8,,,,,,,,7,,,58,127
30560,note_on,41,0,11,,,,,,,,7,,,46,127
30570,note_on,10,0,9,,,,,,,,7,,,58,0
30570,note_on,0,0,9,,,,,,,,7,,,56,127
30570,note_on,0,0,11,,,,,,,,7,,,44,127
30570,note_on,0,0,10,,,,,,,,7,,,56,127
30570,note_on,10,0,10,,,,,,,,7,,,58,0
30570,note_on,10,0,8,,,,,,,,7,,,58,0
30570,note_on,10,0,12,,,,,,,,7,,,34,0
30570,note_on,0,0,12,,,,,,,,7,,,32,127
30570,note_on,0,0,8,,,,,,,,7,,,56,127
30570,note_on,10,0,11,,,,,,,,7,,,46,0
30580,note_on,10,0,8,,,,,,,,7,,,56,0
30580,note_on,0,0,10,,,,,,,,7,,,58,127
30580,note_on,0,0,9,,,,,,,,7,,,58,127
30580,note_on,10,0,11,,,,,,,,7,,,44,0
30580,note_on,10,0,10,,,,,,,,7,,,56,0
30580,note_on,0,0,8,,,,,,,,7,,,58,127
30580,note_on,10,0,12,,,,,,,,7,,,32,0
30580,note_on,0,0,12,,,,,,,,7,,,34,127
30580,note_on,0,0,11,,,,,,,,7,,,46,127
30580,note_on,10,0,9,,,,,,,,7,,,56,0
30590,note_on,10,0,8,,,,,,,,7,,,58,0
30590,note_on,10,0,10,,,,,,,,7,,,58,0
30590,note_on,10,0,9,,,,,,,,7,,,58,0
30590,note_on,0,0,9,,,,,,,,7,,,56,127
30590,note_on,0,0,11,,,,,,,,7,,,44,127
30590,note_on,10,0,12,,,,,,,,7,,,34,0
30590,note_on,0,0,12,,,,,,,,7,,,32,127
30590,note_on,10,0,11,,,,,,,,7,,,46,0
30590,note_on,0,0,8,,,,,,,,7,,,56,127
30590,note_on,0,0,10,,,,,,,,7,,,56,127
30600,note_on,0,0,11,,,,,,,,7,,,43,127
30600,note_on,0,0,10,,,,,,,,7,,,55,127
30600,note_on,10,0,12,,,,,,,,7,,,32,0
30600,note_on,0,0,12,,,,,,,,7,,,31,127
30600,note_on,10,0,11,,,,,,,,7,,,44,0
30600,note_on,0,0,8,,,,,,,,7,,,55,127
30600,note_on,0,0,9,,,,,,,,7,,,55,127
30600,note_on,10,0,9,,,,,,,,7,,,56,0
30600,note_on,10,0,10,,,,,,,,7,,,56,0
30600,note_on,10,0,8,,,,,,,,7,,,56,0
30639,note_on,39,0,9,,,,,,,,7,,,55,0
30639,note_on,39,0,12,,,,,,,,7,,,31,0
30639,note_on,39,0,8,,,,,,,,7,,,55,0
30639,note_on,39,0,11,,,,,,,,7,,,43,0
30639,note_on,39,0,10,,,,,,,,7,,,55,0
30640,note_on,501,0,2,,,,,,,,1,,,75,49
30640,note_on,501,0,5,,,,,,,,4,,,63,48
30640,note_on,0,0,2,,,,,,,,1,,,70,49
30640,note_on,0,0,3,,,,,,,,2,,,67,48
30640,note_on,501,0,3,,,,,,,,2,,,75,48
30640,note_on,0,0,4,,,,,,,,3,,,55,48
30640,note_on,501,0,4,,,,,,,,3,,,58,48
30679,note_on,39,0,4,,,,,,,,3,,,55,0
30679,note_on,39,0,2,,,,,,,,1,,,70,0
30679,note_on,0,0,2,,,,,,,,1,,,75,0
30679,note_on,0,0,4,,,,,,,,3,,,58,0
30679,note_on,39,0,5,,,,,,,,4,,,63,0
30679,note_on,39,0,3,,,,,,,,2,,,67,0
30679,note_on,0,0,3,,,,,,,,2,,,75,0
30680,note_on,1,0,3,,,,,,,,2,,,75,48
30680,note_on,0,0,3,,,,,,,,2,,,67,48
30680,note_on,0,0,2,,,,,,,,1,,,75,49
30680,note_on,0,0,4,,,,,,,,3,,,55,48
30680,note_on,1,0,2,,,,,,,,1,,,70,49
30680,note_on,1,0,4,,,,,,,,3,,,58,48
30680,note_on,1,0,5,,,,,,,,4,,,63,48
30719,note_on,39,0,4,,,,,,,,3,,,55,0
30719,note_on,0,0,4,,,,,,,,3,,,58,0
30719,note_on,0,0,3,,,,,,,,2,,,75,0
30719,note_on,39,0,3,,,,,,,,2,,,67,0
30719,note_on,0,0,2,,,,,,,,1,,,70,0
30719,note_on,39,0,2,,,,,,,,1,,,75,0
30719,note_on,39,0,5,,,,,,,,4,,,63,0
30720,note_on,0,0,3,,,,,,,,2,,,75,48
30720,note_on,1,0,3,,,,,,,,2,,,65,48
30720,note_on,0,0,2,,,,,,,,1,,,75,49
30720,note_on,1,0,2,,,,,,,,1,,,77,49
30720,note_on,1,0,5,,,,,,,,4,,,63,48
30720,note_on,1,0,4,,,,,,,,3,,,60,48
30720,note_on,0,0,4,,,,,,,,3,,,56,48
30759,note_on,0,0,3,,,,,,,,2,,,65,0
30759,note_on,39,0,3,,,,,,,,2,,,75,0
30759,note_on,39,0,4,,,,,,,,3,,,56,0
30759,note_on,0,0,2,,,,,,,,1,,,77,0
30759,note_on,0,0,4,,,,,,,,3,,,60,0
30759,note_on,39,0,5,,,,,,,,4,,,63,0
30759,note_on,39,0,2,,,,,,,,1,,,75,0
30760,note_on,1,0,2,,,,,,,,1,,,77,49
30760,note_on,0,0,2,,,,,,,,1,,,75,49
30760,note_on,1,0,4,,,,,,,,3,,,60,48
30760,note_on,621,0,1,,,,,,,,0,,,87,48
30760,note_on,0,0,4,,,,,,,,3,,,56,48
30760,note_on,1,0,5,,,,,,,,4,,,63,48
30760,note_on,1,0,3,,,,,,,,2,,,65,48
30760,note_on,0,0,3,,,,,,,,2,,,75,48
30760,note_on,0,0,1,,,,,,,,0,,,84,48
30799,note_on,0,0,2,,,,,,,,1,,,77,0
30799,note_on,39,0,5,,,,,,,,4,,,63,0
30799,note_on,39,0,1,,,,,,,,0,,,84,0
30799,note_on,0,0,1,,,,,,,,0,,,87,0
30799,note_on,39,0,2,,,,,,,,1,,,75,0
30799,note_on,39,0,3,,,,,,,,2,,,75,0
30799,note_on,39,0,4,,,,,,,,3,,,56,0
30799,note_on,0,0,4,,,,,,,,3,,,60,0
30799,note_on,0,0,3,,,,,,,,2,,,65,0
30800,note_on,0,0,3,,,,,,,,2,,,75,48
30800,note_on,1,0,5,,,,,,,,4,,,63,48
30800,note_on,1,0,4,,,,,,,,3,,,60,48
30800,note_on,0,0,4,,,,,,,,3,,,57,48
30800,note_on,1,0,1,,,,,,,,0,,,87,54
30800,note_on,0,0,1,,,,,,,,0,,,84,54
30800,note_on,1,0,3,,,,,,,,2,,,66,48
30800,note_on,1,0,2,,,,,,,,1,,,78,49
30800,note_on,0,0,2,,,,,,,,1,,,75,49
30839,note_on,0,0,1,,,,,,,,0,,,87,0
30839,note_on,39,0,5,,,,,,,,4,,,63,0
30839,note_on,0,0,3,,,,,,,,2,,,66,0
30839,note_on,39,0,2,,,,,,,,1,,,75,0
30839,note_on,0,0,2,,,,,,,,1,,,78,0
30839,note_on,39,0,1,,,,,,,,0,,,84,0
30839,note_on,39,0,4,,,,,,,,3,,,57,0
30839,note_on,39,0,3,,,,,,,,2,,,75,0
30839,note_on,0,0,4,,,,,,,,3,,,60,0
30840,note_on,0,0,2,,,,,,,,1,,,75,48
30840,note_on,1,0,4,,,,,,,,3,,,58,48
30840,note_on,0,0,1,,,,,,,,0,,,87,60
30840,note_on,0,0,3,,,,,,,,2,,,75,47
30840,note_on,1,0,1,,,,,,,,0,,,82,60
30840,note_on,1,0,5,,,,,,,,4,,,63,46
30840,note_on,1,0,3,,,,,,,,2,,,67,47
30840,note_on,1,0,2,,,,,,,,1,,,79,48
30879,note_on,0,0,1,,,,,,,,0,,,82,0
30879,note_on,0,0,3,,,,,,,,2,,,67,0
30879,note_on,39,0,3,,,,,,,,2,,,75,0
30879,note_on,39,0,5,,,,,,,,4,,,63,0
30879,note_on,39,0,2,,,,,,,,1,,,75,0
30879,note_on,0,0,2,,,,,,,,1,,,79,0
30879,note_on,39,0,4,,,,,,,,3,,,58,0
30879,note_on,39,0,1,,,,,,,,0,,,87,0
30880,note_on,0,0,3,,,,,,,,2,,,75,55
30880,note_on,1,0,3,,,,,,,,2,,,67,55
30880,note_on,1,0,4,,,,,,,,3,,,58,55
30880,note_on,241,0,12,,,,,,,,7,,,34,64
30880,note_on,241,0,8,,,,,,,,7,,,67,47
30880,note_on,0,0,1,,,,,,,,0,,,87,67
30880,note_on,1,0,1,,,,,,,,0,,,82,67
30880,note_on,241,0,10,,,,,,,,7,,,58,33
30880,note_on,0,0,2,,,,,,,,1,,,75,56
30880,note_on,241,0,11,,,,,,,,7,,,46,48
30880,note_on,0,0,5,,,,,,,,4,,,63,54
30880,note_on,1,0,5,,,,,,,,4,,,67,54
30880,note_on,1,0,2,,,,,,,,1,,,79,56
30880,note_on,241,0,9,,,,,,,,7,,,63,55
30919,note_on,0,0,5,,,,,,,,4,,,67,0
30919,note_on,39,0,5,,,,,,,,4,,,63,0
30919,note_on,39,0,4,,,,,,,,3,,,58,0
30919,note_on,39,0,3,,,,,,,,2,,,75,0
30919,note_on,39,0,10,,,,,,,,7,,,58,0
30919,note_on,39,0,2,,,,,,,,1,,,75,0
30919,note_on,0,0,1,,,,,,,,0,,,82,0
30919,note_on,39,0,1,,,,,,,,0,,,87,0
30919,note_on,0,0,2,,,,,,,,1,,,79,0
30919,note_on,39,0,9,,,,,,,,7,,,63,0
30919,note_on,39,0,12,,,,,,,,7,,,34,0
30919,note_on,0,0,3,,,,,,,,2,,,67,0
30919,note_on,39,0,8,,,,,,,,7,,,67,0
30919,note_on,39,0,11,,,,,,,,7,,,46,0
30920,note_on,1,0,11,,,,,,,,7,,,46,64
30920,note_on,0,0,5,,,,,,,,4,,,67,63
30920,note_on,0,0,2,,,,,,,,1,,,75,63
30920,note_on,1,0,12,,,,,,,,7,,,34,64
30920,note_on,1,0,8,,,,,,,,7,,,67,47
30920,note_on,1,0,1,,,,,,,,0,,,82,73
30920,note_on,1,0,3,,,,,,,,2,,,67,63
30920,note_on,0,0,1,,,,,,,,0,,,87,73
30920,note_on,1,0,2,,,,,,,,1,,,79,63
30920,note_on,1,0,9,,,,,,,,7,,,63,63
30920,note_on,1,0,5,,,,,,,,4,,,63,63
30920,note_on,1,0,10,,,,,,,,7,,,58,45
30920,note_on,1,0,4,,,,,,,,3,,,58,63
30920,note_on,0,0,3,,,,,,,,2,,,75,63
30959,note_on,39,0,11,,,,,,,,7,,,46,0
30959,note_on,39,0,2,,,,,,,,1,,,75,0
30959,note_on,0,0,2,,,,,,,,1,,,79,0
30959,note_on,39,0,5,,,,,,,,4,,,67,0
30959,note_on,39,0,4,,,,,,,,3,,,58,0
30959,note_on,0,0,3,,,,,,,,2,,,67,0
30959,note_on,39,0,12,,,,,,,,7,,,34,0
30959,note_on,39,0,8,,,,,,,,7,,,67,0
30959,note_on,39,0,9,,,,,,,,7,,,63,0
30959,note_on,39,0,1,,,,,,,,0,,,87,0
30959,note_on,39,0,10,,,,,,,,7,,,58,0
30959,note_on,0,0,1,,,,,,,,0,,,82,0
30959,note_on,39,0,3,,,,,,,,2,,,75,0
30959,note_on,0,0,5,,,,,,,,4,,,63,0
30960,note_on,0,0,2,,,,,,,,1,,,74,71
30960,note_on,1,0,2,,,,,,,,1,,,80,71
30960,note_on,1,0,5,,,,,,,,4,,,58,71
30960,note_on,0,0,1,,,,,,,,0,,,82,79
30960,note_on,1,0,10,,,,,,,,7,,,58,58
30960,note_on,1,0,9,,,,,,,,7,,,65,71
30960,note_on,1,0,8,,,,,,,,7,,,68,47
30960,note_on,1,0,12,,,,,,,,7,,,34,64
30960,note_on,0,0,3,,,,,,,,2,,,74,71
30960,note_on,1,0,1,,,,,,,,0,,,86,79
30960,note_on,1,0,3,,,,,,,,2,,,68,71
30960,note_on,1,0,11,,,,,,,,7,,,46,80
30960,note_on,0,0,5,,,,,,,,4,,,65,71
30960,note_on,1,0,4,,,,,,,,3,,,58,71
30999,note_on,39,0,12,,,,,,,,7,,,34,0
30999,note_on,39,0,4,,,,,,,,3,,,58,0
30999,note_on,0,0,1,,,,,,,,0,,,86,0
30999,note_on,39,0,1,,,,,,,,0,,,82,0
30999,note_on,39,0,11,,,,,,,,7,,,46,0
30999,note_on,39,0,5,,,,,,,,4,,,65,0
30999,note_on,39,0,10,,,,,,,,7,,,58,0
30999,note_on,0,0,3,,,,,,,,2,,,68,0
30999,note_on,39,0,9,,,,,,,,7,,,65,0
30999,note_on,0,0,5,,,,,,,,4,,,58,0
30999,note_on,39,0,3,,,,,,,,2,,,74,0
30999,note_on,39,0,2,,,,,,,,1,,,74,0
30999,note_on,0,0,2,,,,,,,,1,,,80,0
30999,note_on,39,0,8,,,,,,,,7,,,68,0
31000,note_on,1,0,9,,,,,,,,7,,,65,79
31000,note_on,0,0,3,,,,,,,,2,,,74,79
31000,note_on,1,0,3,,,,,,,,2,,,68,79
31000,note_on,1,0,12,,,,,,,,7,,,34,64
31000,note_on,1,0,11,,,,,,,,7,,,46,95
31000,note_on,0,0,2,,,,,,,,1,,,80,78
31000,note_on,1,0,2,,,,,,,,1,,,74,78
31000,note_on,1,0,4,,,,,,,,3,,,58,79
31000,note_on,0,0,1,,,,,,,,0,,,82,85
31000,note_on,1,0,5,,,,,,,,4,,,58,79
31000,note_on,1,0,1,,,,,,,,0,,,86,85
31000,note_on,1,0,8,,,,,,,,7,,,68,47
31000,note_on,0,0,5,,,,,,,,4,,,65,79
31000,note_on,1,0,10,,,,,,,,7,,,58,70
31039,note_on,39,0,1,,,,,,,,0,,,82,0
31039,note_on,0,0,3,,,,,,,,2,,,68,0
31039,note_on,39,0,12,,,,,,,,7,,,34,0
31039,note_on,0,0,5,,,,,,,,4,,,58,0
31039,note_on,39,0,3,,,,,,,,2,,,74,0
31039,note_on,39,0,9,,,,,,,,7,,,65,0
31039,note_on,39,0,11,,,,,,,,7,,,46,0
31039,note_on,39,0,5,,,,,,,,4,,,65,0
31039,note_on,39,0,10,,,,,,,,7,,,58,0
31039,note_on,0,0,2,,,,,,,,1,,,74,0
31039,note_on,39,0,2,,,,,,,,1,,,80,0
31039,note_on,39,0,8,,,,,,,,7,,,68,0
31039,note_on,0,0,1,,,,,,,,0,,,86,0
31039,note_on,39,0,4,,,,,,,,3,,,58,0
31040,note_on,1,0,4,,,,,,,,3,,,58,88
31040,note_on,1,0,10,,,,,,,,7,,,58,83
31040,note_on,1,0,3,,,,,,,,2,,,68,87
31040,note_on,0,0,3,,,,,,,,2,,,74,87
31040,note_on,1,0,1,,,,,,,,0,,,86,92
31040,note_on,1,0,11,,,,,,,,7,,,46,111
31040,note_on,1,0,12,,,,,,,,7,,,34,64
31040,note_on,0,0,2,,,,,,,,1,,,80,86
31040,note_on,1,0,5,,,,,,,,4,,,58,88
31040,note_on,0,0,5,,,,,,,,4,,,65,88
31040,note_on,1,0,8,,,,,,,,7,,,68,47
31040,note_on,1,0,2,,,,,,,,1,,,74,86
31040,note_on,1,0,9,,,,,,,,7,,,65,87
31040,note_on,0,0,1,,,,,,,,0,,,82,92
31079,note_on,39,0,2,,,,,,,,1,,,80,0
31079,note_on,39,0,3,,,,,,,,2,,,74,0
31079,note_on,0,0,3,,,,,,,,2,,,68,0
31079,note_on,0,0,2,,,,,,,,1,,,74,0
31079,note_on,39,0,11,,,,,,,,7,,,46,0
31079,note_on,39,0,9,,,,,,,,7,,,65,0
31079,note_on,39,0,1,,,,,,,,0,,,82,0
31079,note_on,0,0,1,,,,,,,,0,,,86,0
31079,note_on,39,0,10,,,,,,,,7,,,58,0
31079,note_on,39,0,4,,,,,,,,3,,,58,0
31079,note_on,39,0,5,,,,,,,,4,,,65,0
31079,note_on,0,0,5,,,,,,,,4,,,58,0
31079,note_on,39,0,8,,,,,,,,7,,,68,0
31079,note_on,39,0,12,,,,,,,,7,,,34,0
31080,note_on,0,0,5,,,,,,,,4,,,55,95
31080,note_on,921,0,7,,,,,,,,6,,,51,96
31080,note_on,1,0,8,,,,,,,,7,,,67,47
31080,note_on,1,0,9,,,,,,,,7,,,58,95
31080,note_on,0,0,1,,,,,,,,0,,,82,98
31080,note_on,1,0,1,,,,,,,,0,,,87,98
31080,note_on,0,0,2,,,,,,,,1,,,79,95
31080,note_on,1,0,2,,,,,,,,1,,,75,95
31080,note_on,1,0,4,,,,,,,,3,,,63,97
31080,note_on,1,0,5,,,,,,,,4,,,63,95
31080,note_on,1,0,10,,,,,,,,7,,,63,95
31080,note_on,1,0,12,,,,,,,,7,,,39,64
31080,note_on,1,0,11,,,,,,,,7,,,51,127
31080,note_on,1,0,3,,,,,,,,2,,,67,97
31080,note_on,0,0,3,,,,,,,,2,,,75,97
31099,note_on,19,0,11,,,,,,,,7,,,51,0
31099,note_on,19,0,9,,,,,,,,7,,,58,0
31099,note_on,19,0,8,,,,,,,,7,,,67,0
31099,note_on,0,0,1,,,,,,,,0,,,87,0
31099,note_on,19,0,1,,,,,,,,0,,,82,0
31099,note_on,0,0,2,,,,,,,,1,,,75,0
31099,note_on,19,0,12,,,,,,,,7,,,39,0
31099,note_on,0,0,3,,,,,,,,2,,,67,0
31099,note_on,19,0,2,,,,,,,,1,,,79,0
31099,note_on,19,0,10,,,,,,,,7,,,63,0
31099,note_on,19,0,5,,,,,,,,4,,,55,0
31099,note_on,0,0,5,,,,,,,,4,,,63,0
31099,note_on,19,0,4,,,,,,,,3,,,63,0
31099,note_on,19,0,3,,,,,,,,2,,,75,0
31119,note_on,39,0,7,,,,,,,,6,,,51,0
31120,note_on,21,0,9,,,,,,,,7,,,79,95
31120,note_on,21,0,10,,,,,,,,7,,,67,95
31120,note_on,21,0,11,,,,,,,,7,,,67,127
31120,note_on,21,0,5,,,,,,,,4,,,67,95
31120,note_on,0,0,5,,,,,,,,4,,,55,95
31120,note_on,21,0,2,,,,,,,,1,,,79,95
31120,note_on,21,0,8,,,,,,,,7,,,79,47
31120,note_on,0,0,6,,,,,,,,5,,,79,127
31120,note_on,981,0,6,,,,,,,,5,,,67,127
31120,note_on,21,0,12,,,,,,,,7,,,55,64
31120,note_on,21,0,4,,,,,,,,3,,,67,97
31120,note_on,21,0,1,,,,,,,,0,,,79,127
31120,note_on,0,0,1,,,,,,,,0,,,91,127
31120,note_on,21,0,3,,,,,,,,2,,,79,97
31120,note_on,0,0,3,,,,,,,,2,,,67,97
31159,note_on,0,0,5,,,,,,,,4,,,67,0
31159,note_on,39,0,5,,,,,,,,4,,,55,0
31159,note_on,0,0,6,,,,,,,,5,,,67,0
31159,note_on,0,0,3,,,,,,,,2,,,79,0
31159,note_on,39,0,3,,,,,,,,2,,,67,0
31159,note_on,39,0,11,,,,,,,,7,,,67,0
31159,note_on,39,0,4,,,,,,,,3,,,67,0
31159,note_on,0,0,1,,,,,,,,0,,,79,0
31159,note_on,39,0,2,,,,,,,,1,,,79,0
31159,note_on,39,0,1,,,,,,,,0,,,91,0
31159,note_on,39,0,8,,,,,,,,7,,,79,0
31159,note_on,39,0,12,,,,,,,,7,,,55,0
31159,note_on,39,0,9,,,,,,,,7,,,79,0
31159,note_on,39,0,6,,,,,,,,5,,,79,0
31159,note_on,39,0,10,,,,,,,,7,,,67,0
31200,note_on,81,0,7,,,,,,,,6,,,51,96
31200,note_on,41,0,9,,,,,,,,7,,,75,95
31200,note_on,41,0,5,,,,,,,,4,,,51,95
31200,note_on,0,0,5,,,,,,,,4,,,63,95
31200,note_on,41,0,6,,,,,,,,5,,,75,127
31200,note_on,41,0,12,,,,,,,,7,,,51,64
31200,note_on,41,0,1,,,,,,,,0,,,75,127
31200,note_on,0,0,1,,,,,,,,0,,,87,127
31200,note_on,41,0,8,,,,,,,,7,,,75,47
31200,note_on,41,0,11,,,,,,,,7,,,63,127
31200,note_on,41,0,2,,,,,,,,1,,,75,95
31200,note_on,0,0,6,,,,,,,,5,,,63,127
31200,note_on,41,0,3,,,,,,,,2,,,75,97
31200,note_on,41,0,10,,,,,,,,7,,,63,95
31200,note_on,0,0,3,,,,,,,,2,,,63,97
31200,note_on,41,0,4,,,,,,,,3,,,63,97
31219,note_on,19,0,1,,,,,,,,0,,,87,0
31219,note_on,0,0,1,,,,,,,,0,,,75,0
31219,note_on,19,0,11,,,,,,,,7,,,63,0
31219,note_on,19,0,3,,,,,,,,2,,,63,0
31219,note_on,0,0,3,,,,,,,,2,,,75,0
31219,note_on,19,0,6,,,,,,,,5,,,63,0
31219,note_on,19,0,12,,,,,,,,7,,,51,0
31219,note_on,0,0,6,,,,,,,,5,,,75,0
31219,note_on,19,0,5,,,,,,,,4,,,63,0
31219,note_on,0,0,5,,,,,,,,4,,,51,0
31219,note_on,19,0,10,,,,,,,,7,,,63,0
31219,note_on,19,0,9,,,,,,,,7,,,75,0
31219,note_on,19,0,8,,,,,,,,7,,,75,0
31219,note_on,19,0,2,,,,,,,,1,,,75,0
31219,note_on,19,0,4,,,,,,,,3,,,63,0
31239,note_on,39,0,7,,,,,,,,6,,,51,0
31240,note_on,21,0,10,,,,,,,,7,,,58,95
31240,note_on,21,0,6,,,,,,,,5,,,70,127
31240,note_on,0,0,6,,,,,,,,5,,,58,127
31240,note_on,21,0,8,,,,,,,,7,,,70,47
31240,note_on,21,0,4,,,,,,,,3,,,58,97
31240,note_on,21,0,1,,,,,,,,0,,,82,126
31240,note_on,21,0,5,,,,,,,,4,,,46,95
31240,note_on,21,0,11,,,,,,,,7,,,58,127
31240,note_on,21,0,3,,,,,,,,2,,,70,97
31240,note_on,0,0,3,,,,,,,,2,,,58,97
31240,note_on,21,0,2,,,,,,,,1,,,70,95
31240,note_on,21,0,9,,,,,,,,7,,,70,95
31240,note_on,21,0,12,,,,,,,,7,,,46,64
31240,note_on,0,0,5,,,,,,,,4,,,58,95
31279,note_on,39,0,1,,,,,,,,0,,,82,0
31279,note_on,39,0,6,,,,,,,,5,,,58,0
31279,note_on,39,0,2,,,,,,,,1,,,70,0
31279,note_on,0,0,5,,,,,,,,4,,,46,0
31279,note_on,39,0,8,,,,,,,,7,,,70,0
31279,note_on,39,0,5,,,,,,,,4,,,58,0
31279,note_on,39,0,12,,,,,,,,7,,,46,0
31279,note_on,39,0,9,,,,,,,,7,,,70,0
31279,note_on,0,0,3,,,,,,,,2,,,70,0
31279,note_on,39,0,4,,,,,,,,3,,,58,0
31279,note_on,39,0,3,,,,,,,,2,,,58,0
31279,note_on,39,0,11,,,,,,,,7,,,58,0
31279,note_on,0,0,6,,,,,,,,5,,,70,0
31279,note_on,39,0,10,,,,,,,,7,,,58,0
31320,note_on,41,0,6,,,,,,,,5,,,67,127
31320,note_on,81,0,7,,,,,,,,6,,,51,96
31320,note_on,41,0,1,,,,,,,,0,,,79,126
31320,note_on,41,0,5,,,,,,,,4,,,55,95
31320,note_on,41,0,8,,,,,,,,7,,,67,47
31320,note_on,41,0,10,,,,,,,,7,,,55,95
31320,note_on,41,0,4,,,,,,,,3,,,55,97
31320,note_on,41,0,12,,,,,,,,7,,,43,64
31320,note_on,41,0,11,,,,,,,,7,,,55,127
31320,note_on,41,0,9,,,,,,,,7,,,67,95
31320,note_on,41,0,3,,,,,,,,2,,,67,97
31320,note_on,41,0,2,,,,,,,,1,,,67,95
31339,note_on,19,0,1,,,,,,,,0,,,79,0
31339,note_on,19,0,9,,,,,,,,7,,,67,0
31339,note_on,19,0,3,,,,,,,,2,,,67,0
31339,note_on,19,0,2,,,,,,,,1,,,67,0
31339,note_on,19,0,6,,,,,,,,5,,,67,0
31339,note_on,19,0,5,,,,,,,,4,,,55,0
31339,note_on,19,0,10,,,,,,,,7,,,55,0
31339,note_on,19,0,12,,,,,,,,7,,,43,0
31339,note_on,19,0,8,,,,,,,,7,,,67,0
31339,note_on,19,0,4,,,,,,,,3,,,55,0
31339,note_on,19,0,11,,,,,,,,7,,,55,0
31359,note_on,39,0,7,,,,,,,,6,,,51,0
31360,note_on,21,0,9,,,,,,,,7,,,63,95
31360,note_on,21,0,8,,,,,,,,7,,,63,47
31360,note_on,21,0,3,,,,,,,,2,,,75,97
31360,note_on,0,0,3,,,,,,,,2,,,63,97
31360,note_on,21,0,2,,,,,,,,1,,,75,95
31360,note_on,21,0,4,,,,,,,,3,,,51,97
31360,note_on,0,0,5,,,,,,,,4,,,51,95
31360,note_on,21,0,1,,,,,,,,0,,,87,127
31360,note_on,21,0,10,,,,,,,,7,,,63,95
31360,note_on,21,0,5,,,,,,,,4,,,63,95
31360,note_on,21,0,6,,,,,,,,5,,,63,127
31360,note_on,21,0,12,,,,,,,,7,,,39,64
31360,note_on,21,0,11,,,,,,,,7,,,51,127
31399,note_on,39,0,5,,,,,,,,4,,,51,0
31399,note_on,39,0,10,,,,,,,,7,,,63,0
31399,note_on,0,0,5,,,,,,,,4,,,63,0
31399,note_on,39,0,12,,,,,,,,7,,,39,0
31399,note_on,39,0,8,,,,,,,,7,,,63,0
31399,note_on,39,0,2,,,,,,,,1,,,75,0
31399,note_on,39,0,3,,,,,,,,2,,,63,0
31399,note_on,0,0,3,,,,,,,,2,,,75,0
31399,note_on,39,0,4,,,,,,,,3,,,51,0
31399,note_on,39,0,6,,,,,,,,5,,,63,0
31399,note_on,39,0,1,,,,,,,,0,,,87,0
31399,note_on,39,0,11,,,,,,,,7,,,51,0
31399,note_on,39,0,9,,,,,,,,7,,,63,0
31440,note_on,41,0,8,,,,,,,,7,,,58,47
31440,note_on,41,0,4,,,,,,,,3,,,46,97
31440,note_on,41,0,12,,,,,,,,7,,,34,64
31440,note_on,0,0,5,,,,,,,,4,,,58,95
31440,note_on,41,0,5,,,,,,,,4,,,46,95
31440,note_on,41,0,11,,,,,,,,7,,,46,127
31440,note_on,81,0,7,,,,,,,,6,,,46,96
31440,note_on,41,0,9,,,,,,,,7,,,58,95
31440,note_on,41,0,1,,,,,,,,0,,,82,127
31440,note_on,41,0,3,,,,,,,,2,,,58,97
31440,note_on,0,0,3,,,,,,,,2,,,70,97
31440,note_on,41,0,6,,,,,,,,5,,,58,127
31440,note_on,41,0,2,,,,,,,,1,,,70,95
31440,note_on,41,0,10,,,,,,,,7,,,58,95
31459,note_on,19,0,2,,,,,,,,1,,,70,0
31459,note_on,19,0,9,,,,,,,,7,,,58,0
31459,note_on,19,0,3,,,,,,,,2,,,70,0
31459,note_on,0,0,3,,,,,,,,2,,,58,0
31459,note_on,19,0,1,,,,,,,,0,,,82,0
31459,note_on,19,0,6,,,,,,,,5,,,58,0
31479,note_on,39,0,10,,,,,,,,7,,,58,0
31479,note_on,39,0,5,,,,,,,,4,,,58,0
31479,note_on,0,0,5,,,,,,,,4,,,46,0
31479,note_on,39,0,8,,,,,,,,7,,,58,0
31479,note_on,39,0,11,,,,,,,,7,,,46,0
31479,note_on,39,0,7,,,,,,,,6,,,46,0
31479,note_on,39,0,12,,,,,,,,7,,,34,0
31479,note_on,39,0,4,,,,,,,,3,,,46,0
31520,note_on,61,0,1,,,,,,,,0,,,82,127
31520,note_on,41,0,12,,,,,,,,7,,,34,64
31520,note_on,41,0,11,,,,,,,,7,,,46,127
31520,note_on,41,0,10,,,,,,,,7,,,58,95
31520,note_on,41,0,5,,,,,,,,4,,,58,95
31520,note_on,0,0,6,,,,,,,,5,,,58,127
31520,note_on,61,0,6,,,,,,,,5,,,70,127
31520,note_on,61,0,3,,,,,,,,2,,,70,97
31520,note_on,61,0,9,,,,,,,,7,,,58,95
31520,note_on,41,0,7,,,,,,,,6,,,46,96
31520,note_on,0,0,5,,,,,,,,4,,,46,95
31520,note_on,41,0,4,,,,,,,,3,,,46,48
31520,note_on,41,0,8,,,,,,,,7,,,58,47
31530,note_on,0,0,11,,,,,,,,7,,,44,127
31530,note_on,10,0,11,,,,,,,,7,,,46,0
31530,note_on,10,0,1,,,,,,,,0,,,82,0
31530,note_on,10,0,4,,,,,,,,3,,,46,0
31530,note_on,0,0,4,,,,,,,,3,,,44,48
31530,note_on,10,0,8,,,,,,,,7,,,58,0
31530,note_on,0,0,10,,,,,,,,7,,,56,95
31530,note_on,10,0,10,,,,,,,,7,,,58,0
31530,note_on,0,0,9,,,,,,,,7,,,56,95
31530,note_on,10,0,3,,,,,,,,2,,,70,0
31530,note_on,0,0,3,,,,,,,,2,,,68,97
31530,note_on,10,0,9,,,,,,,,7,,,58,0
31530,note_on,0,0,1,,,,,,,,0,,,80,127
31530,note_on,0,0,12,,,,,,,,7,,,32,64
31530,note_on,10,0,12,,,,,,,,7,,,34,0
31530,note_on,0,0,8,,,,,,,,7,,,56,47
31540,note_on,0,0,9,,,,,,,,7,,,58,95
31540,note_on,0,0,1,,,,,,,,0,,,82,127
31540,note_on,0,0,11,,,,,,,,7,,,46,127
31540,note_on,10,0,11,,,,,,,,7,,,44,0
31540,note_on,0,0,4,,,,,,,,3,,,46,48
31540,note_on,10,0,9,,,,,,,,7,,,56,0
31540,note_on,0,0,3,,,,,,,,2,,,70,97
31540,note_on,10,0,4,,,,,,,,3,,,44,0
31540,note_on,10,0,3,,,,,,,,2,,,68,0
31540,note_on,0,0,10,,,,,,,,7,,,58,95
31540,note_on,10,0,12,,,,,,,,7,,,32,0
31540,note_on,0,0,8,,,,,,,,7,,,58,47
31540,note_on,10,0,8,,,,,,,,7,,,56,0
31540,note_on,0,0,12,,,,,,,,7,,,34,64
31540,note_on,10,0,1,,,,,,,,0,,,80,0
31540,note_on,10,0,10,,,,,,,,7,,,56,0
31550,note_on,10,0,1,,,,,,,,0,,,82,0
31550,note_on,10,0,9,,,,,,,,7,,,58,0
31550,note_on,0,0,9,,,,,,,,7,,,56,95
31550,note_on,0,0,10,,,,,,,,7,,,56,95
31550,note_on,0,0,1,,,,,,,,0,,,80,127
31550,note_on,10,0,10,,,,,,,,7,,,58,0
31550,note_on,10,0,4,,,,,,,,3,,,46,0
31550,note_on,0,0,11,,,,,,,,7,,,44,127
31550,note_on,10,0,11,,,,,,,,7,,,46,0
31550,note_on,0,0,8,,,,,,,,7,,,56,47
31550,note_on,10,0,8,,,,,,,,7,,,58,0
31550,note_on,0,0,12,,,,,,,,7,,,32,64
31550,note_on,10,0,12,,,,,,,,7,,,34,0
31550,note_on,10,0,3,,,,,,,,2,,,70,0
31550,note_on,0,0,3,,,,,,,,2,,,68,97
31550,note_on,0,0,4,,,,,,,,3,,,44,48
31559,note_on,0,0,5,,,,,,,,4,,,58,0
31559,note_on,39,0,6,,,,,,,,5,,,58,0
31559,note_on,39,0,7,,,,,,,,6,,,46,0
31559,note_on,0,0,6,,,,,,,,5,,,70,0
31559,note_on,39,0,5,,,,,,,,4,,,46,0
31560,note_on,10,0,3,,,,,,,,2,,,68,0
31560,note_on,0,0,11,,,,,,,,7,,,43,127
31560,note_on,10,0,9,,,,,,,,7,,,56,0
31560,note_on,10,0,10,,,,,,,,7,,,56,0
31560,note_on,0,0,10,,,,,,,,7,,,55,95
31560,note_on,10,0,11,,,,,,,,7,,,44,0
31560,note_on,0,0,8,,,,,,,,7,,,55,47
31560,note_on,10,0,8,,,,,,,,7,,,56,0
31560,note_on,0,0,12,,,,,,,,7,,,31,64
31560,note_on,10,0,12,,,,,,,,7,,,32,0
31560,note_on,10,0,1,,,,,,,,0,,,80,0
31560,note_on,0,0,1,,,,,,,,0,,,79,127
31560,note_on,0,0,4,,,,,,,,3,,,43,48
31560,note_on,10,0,4,,,,,,,,3,,,44,0
31560,note_on,1,0,6,,,,,,,,5,,,63,127
31560,note_on,0,0,3,,,,,,,,2,,,67,97
31560,note_on,0,0,9,,,,,,,,7,,,55,95
31560,note_on,1,0,5,,,,,,,,4,,,63,95
31560,note_on,0,0,5,,,,,,,,4,,,51,95
31579,note_on,19,0,1,,,,,,,,0,,,79,0
31579,note_on,19,0,3,,,,,,,,2,,,67,0
31599,note_on,39,0,8,,,,,,,,7,,,55,0
31599,note_on,39,0,4,,,,,,,,3,,,43,0
31599,note_on,39,0,5,,,,,,,,4,,,51,0
31599,note_on,39,0,12,,,,,,,,7,,,31,0
31599,note_on,39,0,6,,,,,,,,5,,,63,0
31599,note_on,39,0,11,,,,,,,,7,,,43,0
31599,note_on,39,0,9,,,,,,,,7,,,55,0
31599,note_on,39,0,10,,,,,,,,7,,,55,0
31599,note_on,0,0,5,,,,,,,,4,,,63,0
31600,note_on,21,0,3,,,,,,,,2,,,68,47
31600,note_on,1,0,4,,,,,,,,3,,,62,48
31600,note_on,0,0,4,,,,,,,,3,,,59,48
31600,note_on,141,0,2,,,,,,,,1,,,77,48
31619,note_on,19,0,3,,,,,,,,2,,,68,0
31619,note_on,19,0,4,,,,,,,,3,,,59,0
31619,note_on,19,0,2,,,,,,,,1,,,77,0
31619,note_on,0,0,4,,,,,,,,3,,,62,0
31640,note_on,21,0,4,,,,,,,,3,,,60,48
31640,note_on,0,0,4,,,,,,,,3,,,63,48
31640,note_on,21,0,2,,,,,,,,1,,,75,48
31640,note_on,21,0,3,,,,,,,,2,,,67,48
31659,note_on,19,0,2,,,,,,,,1,,,75,0
31659,note_on,19,0,4,,,,,,,,3,,,63,0
31659,note_on,0,0,4,,,,,,,,3,,,60,0
31659,note_on,19,0,3,,,,,,,,2,,,67,0
31680,note_on,0,0,4,,,,,,,,3,,,59,48
31680,note_on,21,0,2,,,,,,,,1,,,77,48
31680,note_on,21,0,4,,,,,,,,3,,,62,48
31680,note_on,21,0,3,,,,,,,,2,,,68,48
31699,note_on,0,0,4,,,,,,,,3,,,62,0
31699,note_on,19,0,2,,,,,,,,1,,,77,0
31699,note_on,19,0,3,,,,,,,,2,,,68,0
31699,note_on,19,0,4,,,,,,,,3,,,59,0
31720,note_on,0,0,4,,,,,,,,3,,,63,48
31720,note_on,21,0,4,,,,,,,,3,,,60,48
31720,note_on,21,0,2,,,,,,,,1,,,75,48
31720,note_on,21,0,3,,,,,,,,2,,,67,48
31739,note_on,19,0,3,,,,,,,,2,,,67,0
31739,note_on,19,0,2,,,,,,,,1,,,75,0
31739,note_on,0,0,4,,,,,,,,3,,,60,0
31739,note_on,19,0,4,,,,,,,,3,,,63,0
31760,note_on,21,0,2,,,,,,,,1,,,77,48
31760,note_on,0,0,4,,,,,,,,3,,,59,48
31760,note_on,21,0,4,,,,,,,,3,,,62,48
31760,note_on,21,0,3,,,,,,,,2,,,68,48
31779,note_on,19,0,4,,,,,,,,3,,,59,0
31779,note_on,19,0,2,,,,,,,,1,,,77,0
31779,note_on,0,0,4,,,,,,,,3,,,62,0
31779,note_on,19,0,3,,,,,,,,2,,,68,0
31800,note_on,0,0,4,,,,,,,,3,,,63,48
31800,note_on,21,0,4,,,,,,,,3,,,60,48
31800,note_on,21,0,2,,,,,,,,1,,,75,48
31800,note_on,21,0,3,,,,,,,,2,,,67,48
31819,note_on,19,0,3,,,,,,,,2,,,67,0
31819,note_on,19,0,4,,,,,,,,3,,,63,0
31819,note_on,0,0,4,,,,,,,,3,,,60,0
31819,note_on,19,0,2,,,,,,,,1,,,75,0
31840,note_on,241,0,9,,,,,,,,7,,,73,48
31840,note_on,241,0,10,,,,,,,,7,,,67,48
31840,note_on,241,0,11,,,,,,,,7,,,64,48
31840,note_on,241,0,8,,,,,,,,7,,,82,47
31859,note_on,19,0,9,,,,,,,,7,,,73,0
31859,note_on,19,0,10,,,,,,,,7,,,67,0
31859,note_on,19,0,8,,,,,,,,7,,,82,0
31859,note_on,19,0,11,,,,,,,,7,,,64,0
31880,note_on,21,0,9,,,,,,,,7,,,72,48
31880,note_on,21,0,11,,,,,,,,7,,,65,48
31880,note_on,21,0,8,,,,,,,,7,,,80,47
31880,note_on,21,0,10,,,,,,,,7,,,68,48
31899,note_on,19,0,11,,,,,,,,7,,,65,0
31899,note_on,19,0,8,,,,,,,,7,,,80,0
31899,note_on,19,0,9,,,,,,,,7,,,72,0
31899,note_on,19,0,10,,,,,,,,7,,,68,0
31920,note_on,21,0,10,,,,,,,,7,,,67,48
31920,note_on,21,0,8,,,,,,,,7,,,82,47
31920,note_on,21,0,11,,,,,,,,7,,,64,48
31920,note_on,21,0,9,,,,,,,,7,,,73,48
31939,note_on,19,0,9,,,,,,,,7,,,73,0
31939,note_on,19,0,10,,,,,,,,7,,,67,0
31939,note_on,19,0,11,,,,,,,,7,,,64,0
31939,note_on,19,0,8,,,,,,,,7,,,82,0
31960,note_on,21,0,8,,,,,,,,7,,,80,47
31960,note_on,21,0,9,,,,,,,,7,,,72,48
31960,note_on,21,0,10,,,,,,,,7,,,68,48
31960,note_on,21,0,11,,,,,,,,7,,,65,48
31979,note_on,19,0,9,,,,,,,,7,,,72,0
31979,note_on,19,0,10,,,,,,,,7,,,68,0
31979,note_on,19,0,11,,,,,,,,7,,,65,0
31979,note_on,19,0,8,,,,,,,,7,,,80,0
32000,note_on,21,0,8,,,,,,,,7,,,82,47
32000,note_on,21,0,9,,,,,,,,7,,,73,48
32000,note_on,21,0,11,,,,,,,,7,,,64,48
32000,note_on,21,0,10,,,,,,,,7,,,67,48
32019,note_on,19,0,10,,,,,,,,7,,,67,0
32019,note_on,19,0,8,,,,,,,,7,,,82,0
32019,note_on,19,0,9,,,,,,,,7,,,73,0
32019,note_on,19,0,11,,,,,,,,7,,,64,0
32040,note_on,21,0,11,,,,,,,,7,,,65,48
32040,note_on,21,0,10,,,,,,,,7,,,68,48
32040,note_on,21,0,9,,,,,,,,7,,,72,48
32040,note_on,21,0,8,,,,,,,,7,,,80,47
32059,note_on,19,0,10,,,,,,,,7,,,68,0
32059,note_on,19,0,9,,,,,,,,7,,,72,0
32059,note_on,19,0,8,,,,,,,,7,,,80,0
32059,note_on,19,0,11,,,,,,,,7,,,65,0
32080,note_on,261,0,4,,,,,,,,3,,,60,48
32080,note_on,261,0,3,,,,,,,,2,,,66,48
32080,note_on,0,0,4,,,,,,,,3,,,57,48
32080,note_on,261,0,2,,,,,,,,1,,,75,48
32099,note_on,19,0,4,,,,,,,,3,,,57,0
32099,note_on,0,0,4,,,,,,,,3,,,60,0
32099,note_on,19,0,3,,,,,,,,2,,,66,0
32099,note_on,19,0,2,,,,,,,,1,,,75,0
32120,note_on,21,0,2,,,,,,,,1,,,74,48
32120,note_on,21,0,3,,,,,,,,2,,,65,48
32120,note_on,0,0,4,,,,,,,,3,,,58,48
32120,note_on,21,0,4,,,,,,,,3,,,62,48
32139,note_on,0,0,4,,,,,,,,3,,,62,0
32139,note_on,19,0,3,,,,,,,,2,,,65,0
32139,note_on,19,0,4,,,,,,,,3,,,58,0
32139,note_on,19,0,2,,,,,,,,1,,,74,0
32160,note_on,21,0,4,,,,,,,,3,,,60,48
32160,note_on,0,0,4,,,,,,,,3,,,57,48
32160,note_on,21,0,3,,,,,,,,2,,,66,48
32160,note_on,21,0,2,,,,,,,,1,,,75,48
32179,note_on,19,0,3,,,,,,,,2,,,66,0
32179,note_on,19,0,2,,,,,,,,1,,,75,0
32179,note_on,0,0,4,,,,,,,,3,,,60,0
32179,note_on,19,0,4,,,,,,,,3,,,57,0
32200,note_on,0,0,4,,,,,,,,3,,,58,48
32200,note_on,21,0,4,,,,,,,,3,,,62,48
32200,note_on,21,0,3,,,,,,,,2,,,65,48
32200,note_on,21,0,2,,,,,,,,1,,,74,48
32219,note_on,19,0,2,,,,,,,,1,,,74,0
32219,note_on,0,0,4,,,,,,,,3,,,62,0
32219,note_on,19,0,3,,,,,,,,2,,,65,0
32219,note_on,19,0,4,,,,,,,,3,,,58,0
32240,note_on,21,0,4,,,,,,,,3,,,60,48
32240,note_on,0,0,4,,,,,,,,3,,,57,48
32240,note_on,21,0,3,,,,,,,,2,,,66,48
32240,note_on,21,0,2,,,,,,,,1,,,75,48
32259,note_on,19,0,3,,,,,,,,2,,,66,0
32259,note_on,19,0,4,,,,,,,,3,,,57,0
32259,note_on,0,0,4,,,,,,,,3,,,60,0
32259,note_on,19,0,2,,,,,,,,1,,,75,0
32280,note_on,21,0,3,,,,,,,,2,,,65,48
32280,note_on,21,0,2,,,,,,,,1,,,74,48
32280,note_on,21,0,4,,,,,,,,3,,,62,48
32280,note_on,0,0,4,,,,,,,,3,,,58,48
32299,note_on,19,0,4,,,,,,,,3,,,58,0
32299,note_on,0,0,4,,,,,,,,3,,,62,0
32299,note_on,19,0,3,,,,,,,,2,,,65,0
32299,note_on,19,0,2,,,,,,,,1,,,74,0
32320,note_on,261,0,10,,,,,,,,7,,,65,48
32320,note_on,261,0,9,,,,,,,,7,,,71,48
32320,note_on,261,0,11,,,,,,,,7,,,62,47
32320,note_on,261,0,8,,,,,,,,7,,,80,47
32339,note_on,19,0,9,,,,,,,,7,,,71,0
32339,note_on,19,0,10,,,,,,,,7,,,65,0
32339,note_on,19,0,8,,,,,,,,7,,,80,0
32339,note_on,19,0,11,,,,,,,,7,,,62,0
32360,note_on,21,0,10,,,,,,,,7,,,67,48
32360,note_on,21,0,9,,,,,,,,7,,,70,48
32360,note_on,21,0,11,,,,,,,,7,,,63,47
32360,note_on,21,0,8,,,,,,,,7,,,79,47
32379,note_on,19,0,10,,,,,,,,7,,,67,0
32379,note_on,19,0,9,,,,,,,,7,,,70,0
32379,note_on,19,0,8,,,,,,,,7,,,79,0
32379,note_on,19,0,11,,,,,,,,7,,,63,0
32400,note_on,21,0,10,,,,,,,,7,,,65,48
32400,note_on,21,0,9,,,,,,,,7,,,71,48
32400,note_on,21,0,8,,,,,,,,7,,,80,47
32400,note_on,21,0,11,,,,,,,,7,,,62,48
32419,note_on,19,0,9,,,,,,,,7,,,71,0
32419,note_on,19,0,10,,,,,,,,7,,,65,0
32419,note_on,19,0,11,,,,,,,,7,,,62,0
32419,note_on,19,0,8,,,,,,,,7,,,80,0
32440,note_on,21,0,10,,,,,,,,7,,,67,48
32440,note_on,21,0,11,,,,,,,,7,,,63,48
32440,note_on,21,0,9,,,,,,,,7,,,70,48
32440,note_on,21,0,8,,,,,,,,7,,,79,47
32459,note_on,19,0,11,,,,,,,,7,,,63,0
32459,note_on,19,0,9,,,,,,,,7,,,70,0
32459,note_on,19,0,8,,,,,,,,7,,,79,0
32459,note_on,19,0,10,,,,,,,,7,,,67,0
32480,note_on,21,0,8,,,,,,,,7,,,80,47
32480,note_on,21,0,9,,,,,,,,7,,,71,48
32480,note_on,21,0,10,,,,,,,,7,,,65,48
32480,note_on,21,0,11,,,,,,,,7,,,62,48
32499,note_on,19,0,9,,,,,,,,7,,,71,0
32499,note_on,19,0,10,,,,,,,,7,,,65,0
32499,note_on,19,0,11,,,,,,,,7,,,62,0
32499,note_on,19,0,8,,,,,,,,7,,,80,0
32520,note_on,21,0,8,,,,,,,,7,,,79,47
32520,note_on,21,0,11,,,,,,,,7,,,63,48
32520,note_on,21,0,9,,,,,,,,7,,,70,48
32520,note_on,21,0,10,,,,,,,,7,,,67,48
32539,note_on,19,0,8,,,,,,,,7,,,79,0
32539,note_on,19,0,11,,,,,,,,7,,,63,0
32539,note_on,19,0,10,,,,,,,,7,,,67,0
32539,note_on,19,0,9,,,,,,,,7,,,70,0
32560,note_on,261,0,4,,,,,,,,3,,,56,48
32560,note_on,261,0,3,,,,,,,,2,,,75,48
32560,note_on,261,0,2,,,,,,,,1,,,80,48
32560,note_on,0,0,3,,,,,,,,2,,,68,48
32560,note_on,981,0,1,,,,,,,,0,,,84,48
32560,note_on,961,0,5,,,,,,,,4,,,63,48
32579,note_on,19,0,1,,,,,,,,0,,,84,0
32579,note_on,0,0,3,,,,,,,,2,,,75,0
32579,note_on,19,0,2,,,,,,,,1,,,80,0
32579,note_on,19,0,5,,,,,,,,4,,,63,0
32579,note_on,19,0,3,,,,,,,,2,,,68,0
32579,note_on,19,0,4,,,,,,,,3,,,56,0
32600,note_on,0,0,3,,,,,,,,2,,,67,48
32600,note_on,21,0,4,,,,,,,,3,,,63,48
32600,note_on,21,0,2,,,,,,,,1,,,79,48
32600,note_on,21,0,5,,,,,,,,4,,,63,48
32600,note_on,21,0,3,,,,,,,,2,,,75,48
32600,note_on,21,0,1,,,,,,,,0,,,82,48
32619,note_on,19,0,4,,,,,,,,3,,,63,0
32619,note_on,19,0,5,,,,,,,,4,,,63,0
32619,note_on,19,0,1,,,,,,,,0,,,82,0
32619,note_on,0,0,3,,,,,,,,2,,,75,0
32619,note_on,19,0,3,,,,,,,,2,,,67,0
32619,note_on,19,0,2,,,,,,,,1,,,79,0
32640,note_on,21,0,5,,,,,,,,4,,,63,48
32640,note_on,21,0,3,,,,,,,,2,,,75,48
32640,note_on,0,0,3,,,,,,,,2,,,68,48
32640,note_on,21,0,2,,,,,,,,1,,,80,48
32640,note_on,21,0,4,,,,,,,,3,,,56,48
32640,note_on,21,0,1,,,,,,,,0,,,84,48
32659,note_on,19,0,2,,,,,,,,1,,,80,0
32659,note_on,19,0,4,,,,,,,,3,,,56,0
32659,note_on,19,0,5,,,,,,,,4,,,63,0
32659,note_on,19,0,1,,,,,,,,0,,,84,0
32659,note_on,0,0,3,,,,,,,,2,,,75,0
32659,note_on,19,0,3,,,,,,,,2,,,68,0
32680,note_on,21,0,4,,,,,,,,3,,,63,48
32680,note_on,21,0,2,,,,,,,,1,,,79,48
32680,note_on,0,0,3,,,,,,,,2,,,67,48
32680,note_on,21,0,3,,,,,,,,2,,,75,48
32680,note_on,21,0,1,,,,,,,,0,,,82,49
32680,note_on,21,0,5,,,,,,,,4,,,63,48
32699,note_on,19,0,5,,,,,,,,4,,,63,0
32699,note_on,19,0,1,,,,,,,,0,,,82,0
32699,note_on,19,0,4,,,,,,,,3,,,63,0
32699,note_on,19,0,2,,,,,,,,1,,,79,0
32699,note_on,19,0,3,,,,,,,,2,,,67,0
32699,note_on,0,0,3,,,,,,,,2,,,75,0
32720,note_on,21,0,5,,,,,,,,4,,,63,48
32720,note_on,21,0,2,,,,,,,,1,,,80,48
32720,note_on,21,0,3,,,,,,,,2,,,75,48
32720,note_on,21,0,4,,,,,,,,3,,,56,48
32720,note_on,0,0,3,,,,,,,,2,,,68,48
32720,note_on,21,0,1,,,,,,,,0,,,84,49
32739,note_on,19,0,4,,,,,,,,3,,,56,0
32739,note_on,19,0,1,,,,,,,,0,,,84,0
32739,note_on,19,0,2,,,,,,,,1,,,80,0
32739,note_on,19,0,3,,,,,,,,2,,,68,0
32739,note_on,0,0,3,,,,,,,,2,,,75,0
32739,note_on,19,0,5,,,,,,,,4,,,63,0
32760,note_on,0,0,3,,,,,,,,2,,,67,48
32760,note_on,21,0,1,,,,,,,,0,,,82,49
32760,note_on,21,0,3,,,,,,,,2,,,75,48
32760,note_on,21,0,5,,,,,,,,4,,,63,48
32760,note_on,21,0,2,,,,,,,,1,,,79,48
32760,note_on,21,0,4,,,,,,,,3,,,63,48
32779,note_on,19,0,4,,,,,,,,3,,,63,0
32779,note_on,0,0,3,,,,,,,,2,,,75,0
32779,note_on,19,0,2,,,,,,,,1,,,79,0
32779,note_on,19,0,3,,,,,,,,2,,,67,0
32779,note_on,19,0,1,,,,,,,,0,,,82,0
32779,note_on,19,0,5,,,,,,,,4,,,63,0
32800,note_on,261,0,11,,,,,,,,7,,,62,48
32800,note_on,261,0,8,,,,,,,,7,,,80,47
32800,note_on,261,0,10,,,,,,,,7,,,65,48
32800,note_on,261,0,9,,,,,,,,7,,,71,48
32819,note_on,19,0,10,,,,,,,,7,,,65,0
32819,note_on,19,0,11,,,,,,,,7,,,62,0
32819,note_on,19,0,8,,,,,,,,7,,,80,0
32819,note_on,19,0,9,,,,,,,,7,,,71,0
32840,note_on,21,0,8,,,,,,,,7,,,79,47
32840,note_on,21,0,10,,,,,,,,7,,,67,48
32840,note_on,21,0,11,,,,,,,,7,,,63,48
32840,note_on,21,0,9,,,,,,,,7,,,70,48
32859,note_on,19,0,8,,,,,,,,7,,,79,0
32859,note_on,19,0,10,,,,,,,,7,,,67,0
32859,note_on,19,0,11,,,,,,,,7,,,63,0
32859,note_on,19,0,9,,,,,,,,7,,,70,0
32880,note_on,21,0,10,,,,,,,,7,,,65,48
32880,note_on,21,0,8,,,,,,,,7,,,80,47
32880,note_on,21,0,9,,,,,,,,7,,,71,48
32880,note_on,21,0,11,,,,,,,,7,,,62,48
32899,note_on,19,0,9,,,,,,,,7,,,71,0
32899,note_on,19,0,11,,,,,,,,7,,,62,0
32899,note_on,19,0,8,,,,,,,,7,,,80,0
32899,note_on,19,0,10,,,,,,,,7,,,65,0
32920,note_on,21,0,8,,,,,,,,7,,,79,47
32920,note_on,21,0,10,,,,,,,,7,,,67,48
32920,note_on,21,0,11,,,,,,,,7,,,63,48
32920,note_on,21,0,9,,,,,,,,7,,,70,48
32939,note_on,19,0,8,,,,,,,,7,,,79,0
32939,note_on,19,0,10,,,,,,,,7,,,67,0
32939,note_on,19,0,11,,,,,,,,7,,,63,0
32939,note_on,19,0,9,,,,,,,,7,,,70,0
32960,note_on,21,0,8,,,,,,,,7,,,80,47
32960,note_on,21,0,10,,,,,,,,7,,,65,48
32960,note_on,21,0,11,,,,,,,,7,,,62,48
32960,note_on,21,0,9,,,,,,,,7,,,71,48
32979,note_on,19,0,11,,,,,,,,7,,,62,0
32979,note_on,19,0,9,,,,,,,,7,,,71,0
32979,note_on,19,0,8,,,,,,,,7,,,80,0
32979,note_on,19,0,10,,,,,,,,7,,,65,0
33000,note_on,21,0,9,,,,,,,,7,,,70,48
33000,note_on,21,0,11,,,,,,,,7,,,63,48
33000,note_on,21,0,8,,,,,,,,7,,,79,47
33000,note_on,21,0,10,,,,,,,,7,,,67,48
33019,note_on,19,0,9,,,,,,,,7,,,70,0
33019,note_on,19,0,8,,,,,,,,7,,,79,0
33019,note_on,19,0,11,,,,,,,,7,,,63,0
33019,note_on,19,0,10,,,,,,,,7,,,67,0
33040,note_on,261,0,4,,,,,,,,3,,,56,48
33040,note_on,261,0,5,,,,,,,,4,,,63,48
33040,note_on,261,0,1,,,,,,,,0,,,84,49
33040,note_on,0,0,3,,,,,,,,2,,,75,48
33040,note_on,261,0,2,,,,,,,,1,,,80,48
33040,note_on,261,0,3,,,,,,,,2,,,68,48
33059,note_on,19,0,5,,,,,,,,4,,,63,0
33059,note_on,19,0,3,,,,,,,,2,,,75,0
33059,note_on,19,0,4,,,,,,,,3,,,56,0
33059,note_on,19,0,1,,,,,,,,0,,,84,0
33059,note_on,0,0,3,,,,,,,,2,,,68,0
33059,note_on,19,0,2,,,,,,,,1,,,80,0
33080,note_on,21,0,5,,,,,,,,4,,,63,48
33080,note_on,21,0,1,,,,,,,,0,,,82,49
33080,note_on,0,0,3,,,,,,,,2,,,75,48
33080,note_on,21,0,3,,,,,,,,2,,,67,48
33080,note_on,21,0,4,,,,,,,,3,,,63,48
33080,note_on,21,0,2,,,,,,,,1,,,79,48
33099,note_on,0,0,3,,,,,,,,2,,,67,0
33099,note_on,19,0,5,,,,,,,,4,,,63,0
33099,note_on,19,0,3,,,,,,,,2,,,75,0
33099,note_on,19,0,4,,,,,,,,3,,,63,0
33099,note_on,19,0,1,,,,,,,,0,,,82,0
33099,note_on,19,0,2,,,,,,,,1,,,79,0
33120,note_on,21,0,5,,,,,,,,4,,,63,48
33120,note_on,21,0,2,,,,,,,,1,,,80,48
33120,note_on,21,0,1,,,,,,,,0,,,84,49
33120,note_on,21,0,3,,,,,,,,2,,,68,48
33120,note_on,21,0,4,,,,,,,,3,,,56,48
33120,note_on,0,0,3,,,,,,,,2,,,75,48
33139,note_on,19,0,2,,,,,,,,1,,,80,0
33139,note_on,19,0,5,,,,,,,,4,,,63,0
33139,note_on,19,0,1,,,,,,,,0,,,84,0
33139,note_on,19,0,4,,,,,,,,3,,,56,0
33139,note_on,0,0,3,,,,,,,,2,,,68,0
33139,note_on,19,0,3,,,,,,,,2,,,75,0
33160,note_on,21,0,1,,,,,,,,0,,,82,49
33160,note_on,21,0,3,,,,,,,,2,,,67,48
33160,note_on,0,0,3,,,,,,,,2,,,75,48
33160,note_on,21,0,2,,,,,,,,1,,,79,48
33160,note_on,21,0,5,,,,,,,,4,,,63,48
33160,note_on,21,0,4,,,,,,,,3,,,63,48
33179,note_on,19,0,1,,,,,,,,0,,,82,0
33179,note_on,19,0,5,,,,,,,,4,,,63,0
33179,note_on,0,0,3,,,,,,,,2,,,67,0
33179,note_on,19,0,4,,,,,,,,3,,,63,0
33179,note_on,19,0,3,,,,,,,,2,,,75,0
33179,note_on,19,0,2,,,,,,,,1,,,79,0
33200,note_on,0,0,3,,,,,,,,2,,,75,48
33200,note_on,21,0,1,,,,,,,,0,,,84,49
33200,note_on,21,0,2,,,,,,,,1,,,80,48
33200,note_on,21,0,5,,,,,,,,4,,,63,48
33200,note_on,21,0,3,,,,,,,,2,,,68,48
33200,note_on,21,0,4,,,,,,,,3,,,56,48
33219,note_on,19,0,4,,,,,,,,3,,,56,0
33219,note_on,19,0,5,,,,,,,,4,,,63,0
33219,note_on,0,0,3,,,,,,,,2,,,68,0
33219,note_on,19,0,2,,,,,,,,1,,,80,0
33219,note_on,19,0,3,,,,,,,,2,,,75,0
33219,note_on,19,0,1,,,,,,,,0,,,84,0
33240,note_on,21,0,3,,,,,,,,2,,,67,48
33240,note_on,21,0,2,,,,,,,,1,,,79,48
33240,note_on,0,0,3,,,,,,,,2,,,75,48
33240,note_on,21,0,5,,,,,,,,4,,,63,48
33240,note_on,21,0,4,,,,,,,,3,,,63,48
33240,note_on,21,0,1,,,,,,,,0,,,82,49
33259,note_on,19,0,3,,,,,,,,2,,,75,0
33259,note_on,19,0,5,,,,,,,,4,,,63,0
33259,note_on,0,0,3,,,,,,,,2,,,67,0
33259,note_on,19,0,4,,,,,,,,3,,,63,0
33259,note_on,19,0,2,,,,,,,,1,,,79,0
33259,note_on,19,0,1,,,,,,,,0,,,82,0
33280,note_on,21,0,2,,,,,,,,1,,,72,48
33280,note_on,261,0,9,,,,,,,,7,,,60,48
33280,note_on,261,0,11,,,,,,,,7,,,56,49
33280,note_on,1681,0,12,,,,,,,,7,,,44,64
33280,note_on,21,0,1,,,,,,,,0,,,84,49
33280,note_on,21,0,3,,,,,,,,2,,,72,48
33280,note_on,0,0,2,,,,,,,,1,,,80,48
33280,note_on,261,0,10,,,,,,,,7,,,56,48
33280,note_on,0,0,5,,,,,,,,4,,,63,48
33280,note_on,21,0,5,,,,,,,,4,,,51,48
33280,note_on,0,0,1,,,,,,,,0,,,87,49
33280,note_on,261,0,8,,,,,,,,7,,,75,47
33280,note_on,21,0,4,,,,,,,,3,,,56,48
33280,note_on,0,0,3,,,,,,,,2,,,68,48
33299,note_on,19,0,10,,,,,,,,7,,,56,0
33299,note_on,0,0,3,,,,,,,,2,,,72,0
33299,note_on,19,0,9,,,,,,,,7,,,60,0
33299,note_on,19,0,8,,,,,,,,7,,,75,0
33299,note_on,19,0,3,,,,,,,,2,,,68,0
33299,note_on,19,0,4,,,,,,,,3,,,56,0
33299,note_on,0,0,2,,,,,,,,1,,,72,0
33299,note_on,0,0,1,,,,,,,,0,,,84,0
33299,note_on,19,0,1,,,,,,,,0,,,87,0
33299,note_on,19,0,2,,,,,,,,1,,,80,0
33299,note_on,0,0,5,,,,,,,,4,,,51,0
33299,note_on,19,0,12,,,,,,,,7,,,44,0
33299,note_on,19,0,11,,,,,,,,7,,,56,0
33299,note_on,19,0,5,,,,,,,,4,,,63,0
33320,note_on,21,0,1,,,,,,,,0,,,87,49
33320,note_on,0,0,1,,,,,,,,0,,,82,49
33320,note_on,21,0,4,,,,,,,,3,,,51,48
33320,note_on,21,0,9,,,,,,,,7,,,58,48
33320,note_on,21,0,11,,,,,,,,7,,,51,49
33320,note_on,21,0,12,,,,,,,,7,,,39,64
33320,note_on,0,0,3,,,,,,,,2,,,67,48
33320,note_on,0,0,5,,,,,,,,4,,,63,48
33320,note_on,21,0,5,,,,,,,,4,,,51,48
33320,note_on,21,0,2,,,,,,,,1,,,70,48
33320,note_on,0,0,2,,,,,,,,1,,,79,48
33320,note_on,21,0,3,,,,,,,,2,,,70,48
33320,note_on,21,0,10,,,,,,,,7,,,55,48
33320,note_on,21,0,8,,,,,,,,7,,,75,47
33339,note_on,19,0,10,,,,,,,,7,,,55,0
33339,note_on,0,0,3,,,,,,,,2,,,70,0
33339,note_on,19,0,3,,,,,,,,2,,,67,0
33339,note_on,19,0,8,,,,,,,,7,,,75,0
33339,note_on,0,0,2,,,,,,,,1,,,70,0
33339,note_on,19,0,1,,,,,,,,0,,,82,0
33339,note_on,19,0,9,,,,,,,,7,,,58,0
33339,note_on,19,0,2,,,,,,,,1,,,79,0
33339,note_on,19,0,5,,,,,,,,4,,,63,0
33339,note_on,0,0,5,,,,,,,,4,,,51,0
33339,note_on,19,0,4,,,,,,,,3,,,51,0
33339,note_on,19,0,11,,,,,,,,7,,,51,0
33339,note_on,0,0,1,,,,,,,,0,,,87,0
33339,note_on,19,0,12,,,,,,,,7,,,39,0
33360,note_on,21,0,3,,,,,,,,2,,,72,48
33360,note_on,21,0,10,,,,,,,,7,,,56,48
33360,note_on,21,0,4,,,,,,,,3,,,56,48
33360,note_on,21,0,9,,,,,,,,7,,,60,48
33360,note_on,21,0,12,,,,,,,,7,,,44,64
33360,note_on,0,0,5,,,,,,,,4,,,63,48
33360,note_on,21,0,5,,,,,,,,4,,,51,48
33360,note_on,21,0,2,,,,,,,,1,,,72,48
33360,note_on,0,0,3,,,,,,,,2,,,68,48
33360,note_on,0,0,2,,,,,,,,1,,,80,48
33360,note_on,0,0,1,,,,,,,,0,,,87,49
33360,note_on,21,0,8,,,,,,,,7,,,75,47
33360,note_on,21,0,1,,,,,,,,0,,,84,49
33360,note_on,21,0,11,,,,,,,,7,,,56,49
33379,note_on,19,0,2,,,,,,,,1,,,80,0
33379,note_on,19,0,11,,,,,,,,7,,,56,0
33379,note_on,0,0,2,,,,,,,,1,,,72,0
33379,note_on,19,0,5,,,,,,,,4,,,63,0
33379,note_on,0,0,5,,,,,,,,4,,,51,0
33379,note_on,19,0,8,,,,,,,,7,,,75,0
33379,note_on,19,0,10,,,,,,,,7,,,56,0
33379,note_on,19,0,12,,,,,,,,7,,,44,0
33379,note_on,19,0,3,,,,,,,,2,,,68,0
33379,note_on,19,0,9,,,,,,,,7,,,60,0
33379,note_on,0,0,1,,,,,,,,0,,,84,0
33379,note_on,0,0,3,,,,,,,,2,,,72,0
33379,note_on,19,0,1,,,,,,,,0,,,87,0
33379,note_on,19,0,4,,,,,,,,3,,,56,0
33400,note_on,21,0,4,,,,,,,,3,,,58,48
33400,note_on,0,0,1,,,,,,,,0,,,87,49
33400,note_on,21,0,10,,,,,,,,7,,,55,48
33400,note_on,21,0,8,,,,,,,,7,,,75,47
33400,note_on,21,0,1,,,,,,,,0,,,82,49
33400,note_on,0,0,2,,,,,,,,1,,,79,48
33400,note_on,21,0,2,,,,,,,,1,,,70,48
33400,note_on,21,0,12,,,,,,,,7,,,39,64
33400,note_on,0,0,3,,,,,,,,2,,,67,48
33400,note_on,21,0,3,,,,,,,,2,,,70,48
33400,note_on,0,0,4,,,,,,,,3,,,55,48
33400,note_on,21,0,9,,,,,,,,7,,,58,48
33400,note_on,21,0,5,,,,,,,,4,,,51,48
33400,note_on,21,0,11,,,,,,,,7,,,51,49
33400,note_on,0,0,5,,,,,,,,4,,,63,48
33419,note_on,19,0,11,,,,,,,,7,,,51,0
33419,note_on,0,0,3,,,,,,,,2,,,70,0
33419,note_on,19,0,4,,,,,,,,3,,,55,0
33419,note_on,19,0,8,,,,,,,,7,,,75,0
33419,note_on,19,0,3,,,,,,,,2,,,67,0
33419,note_on,0,0,4,,,,,,,,3,,,58,0
33419,note_on,0,0,1,,,,,,,,0,,,82,0
33419,note_on,19,0,12,,,,,,,,7,,,39,0
33419,note_on,19,0,10,,,,,,,,7,,,55,0
33419,note_on,19,0,1,,,,,,,,0,,,87,0
33419,note_on,0,0,2,,,,,,,,1,,,70,0
33419,note_on,19,0,9,,,,,,,,7,,,58,0
33419,note_on,19,0,2,,,,,,,,1,,,79,0
33419,note_on,19,0,5,,,,,,,,4,,,63,0
33419,note_on,0,0,5,,,,,,,,4,,,51,0
33440,note_on,21,0,8,,,,,,,,7,,,75,47
33440,note_on,21,0,10,,,,,,,,7,,,56,48
33440,note_on,0,0,2,,,,,,,,1,,,80,48
33440,note_on,21,0,2,,,,,,,,1,,,72,48
33440,note_on,21,0,11,,,,,,,,7,,,56,49
33440,note_on,0,0,3,,,,,,,,2,,,68,48
33440,note_on,21,0,12,,,,,,,,7,,,44,64
33440,note_on,21,0,5,,,,,,,,4,,,51,48
33440,note_on,21,0,3,,,,,,,,2,,,72,48
33440,note_on,0,0,4,,,,,,,,3,,,60,48
33440,note_on,21,0,4,,,,,,,,3,,,56,48
33440,note_on,0,0,1,,,,,,,,0,,,87,49
33440,note_on,21,0,1,,,,,,,,0,,,84,49
33440,note_on,21,0,9,,,,,,,,7,,,60,48
33440,note_on,0,0,5,,,,,,,,4,,,63,48
33459,note_on,0,0,4,,,,,,,,3,,,56,0
33459,note_on,19,0,8,,,,,,,,7,,,75,0
33459,note_on,0,0,1,,,,,,,,0,,,84,0
33459,note_on,19,0,1,,,,,,,,0,,,87,0
33459,note_on,19,0,10,,,,,,,,7,,,56,0
33459,note_on,0,0,2,,,,,,,,1,,,72,0
33459,note_on,19,0,2,,,,,,,,1,,,80,0
33459,note_on,19,0,9,,,,,,,,7,,,60,0
33459,note_on,0,0,5,,,,,,,,4,,,51,0
33459,note_on,0,0,3,,,,,,,,2,,,72,0
33459,note_on,19,0,11,,,,,,,,7,,,56,0
33459,note_on,19,0,5,,,,,,,,4,,,63,0
33459,note_on,19,0,12,,,,,,,,7,,,44,0
33459,note_on,19,0,4,,,,,,,,3,,,60,0
33459,note_on,19,0,3,,,,,,,,2,,,68,0
33480,note_on,21,0,3,,,,,,,,2,,,70,48
33480,note_on,0,0,3,,,,,,,,2,,,67,48
33480,note_on,21,0,11,,,,,,,,7,,,51,49
33480,note_on,0,0,1,,,,,,,,0,,,87,49
33480,note_on,21,0,8,,,,,,,,7,,,75,47
33480,note_on,21,0,1,,,,,,,,0,,,82,49
33480,note_on,21,0,2,,,,,,,,1,,,70,48
33480,note_on,21,0,9,,,,,,,,7,,,58,48
33480,note_on,0,0,2,,,,,,,,1,,,79,48
33480,note_on,21,0,4,,,,,,,,3,,,58,48
33480,note_on,21,0,10,,,,,,,,7,,,51,48
33480,note_on,21,0,12,,,,,,,,7,,,39,64
33480,note_on,0,0,4,,,,,,,,3,,,55,48
33480,note_on,21,0,5,,,,,,,,4,,,51,48
33480,note_on,0,0,5,,,,,,,,4,,,63,48
33499,note_on,0,0,4,,,,,,,,3,,,58,0
33499,note_on,19,0,10,,,,,,,,7,,,51,0
33499,note_on,19,0,11,,,,,,,,7,,,51,0
33499,note_on,19,0,8,,,,,,,,7,,,75,0
33499,note_on,0,0,3,,,,,,,,2,,,70,0
33499,note_on,0,0,5,,,,,,,,4,,,51,0
33499,note_on,19,0,5,,,,,,,,4,,,63,0
33499,note_on,19,0,3,,,,,,,,2,,,67,0
33499,note_on,19,0,12,,,,,,,,7,,,39,0
33499,note_on,19,0,1,,,,,,,,0,,,87,0
33499,note_on,0,0,1,,,,,,,,0,,,82,0
33499,note_on,0,0,2,,,,,,,,1,,,70,0
33499,note_on,19,0,2,,,,,,,,1,,,79,0
33499,note_on,19,0,9,,,,,,,,7,,,58,0
33499,note_on,19,0,4,,,,,,,,3,,,55,0
33500,note_on,1,0,9,,,,,,,,7,,,58,48
33519,note_on,19,0,9,,,,,,,,7,,,58,0
33520,note_on,1,0,9,,,,,,,,7,,,58,48
33520,note_on,21,0,8,,,,,,,,7,,,79,47
33539,note_on,19,0,8,,,,,,,,7,,,79,0
33539,note_on,19,0,9,,,,,,,,7,,,58,0
33540,note_on,1,0,9,,,,,,,,7,,,58,48
33559,note_on,19,0,9,,,,,,,,7,,,58,0
33560,note_on,21,0,8,,,,,,,,7,,,74,47
33560,note_on,1,0,9,,,,,,,,7,,,59,48
33579,note_on,19,0,9,,,,,,,,7,,,59,0
33579,note_on,19,0,8,,,,,,,,7,,,74,0
33580,note_on,1,0,9,,,,,,,,7,,,59,48
33599,note_on,19,0,9,,,,,,,,7,,,59,0
33600,note_on,101,0,4,,,,,,,,3,,,56,48
33600,note_on,1,0,9,,,,,,,,7,,,60,48
33600,note_on,101,0,10,,,,,,,,7,,,56,48
33600,note_on,21,0,8,,,,,,,,7,,,75,47
33619,note_on,19,0,9,,,,,,,,7,,,60,0
33619,note_on,19,0,8,,,,,,,,7,,,75,0
33620,note_on,1,0,9,,,,,,,,7,,,60,48
33639,note_on,19,0,9,,,,,,,,7,,,60,0
33639,note_on,39,0,10,,,,,,,,7,,,56,0
33639,note_on,39,0,4,,,,,,,,3,,,56,0
33640,note_on,1,0,9,,,,,,,,7,,,62,48
33640,note_on,21,0,8,,,,,,,,7,,,71,47
33659,note_on,19,0,9,,,,,,,,7,,,62,0
33659,note_on,19,0,8,,,,,,,,7,,,71,0
33660,note_on,1,0,9,,,,,,,,7,,,62,48
33679,note_on,19,0,9,,,,,,,,7,,,62,0
33680,note_on,1,0,9,,,,,,,,7,,,63,48
33680,note_on,21,0,8,,,,,,,,7,,,72,47
33699,note_on,19,0,9,,,,,,,,7,,,63,0
33699,note_on,19,0,8,,,,,,,,7,,,72,0
33700,note_on,1,0,9,,,,,,,,7,,,63,48
33719,note_on,19,0,9,,,,,,,,7,,,63,0
33720,note_on,81,0,10,,,,,,,,7,,,51,48
33720,note_on,21,0,8,,,,,,,,7,,,68,47
33720,note_on,81,0,4,,,,,,,,3,,,53,48
33720,note_on,1,0,9,,,,,,,,7,,,65,48
33739,note_on,19,0,9,,,,,,,,7,,,65,0
33739,note_on,19,0,8,,,,,,,,7,,,68,0
33740,note_on,1,0,9,,,,,,,,7,,,65,48
33759,note_on,39,0,10,,,,,,,,7,,,51,0
33759,note_on,39,0,4,,,,,,,,3,,,53,0
33759,note_on,19,0,9,,,,,,,,7,,,65,0
33760,note_on,21,0,8,,,,,,,,7,,,80,47
33760,note_on,1,0,9,,,,,,,,7,,,60,48
33779,note_on,19,0,8,,,,,,,,7,,,80,0
33779,note_on,19,0,9,,,,,,,,7,,,60,0
33780,note_on,1,0,9,,,,,,,,7,,,60,48
33799,note_on,19,0,9,,,,,,,,7,,,60,0
33800,note_on,1,0,9,,,,,,,,7,,,61,48
33800,note_on,21,0,8,,,,,,,,7,,,76,47
33819,note_on,19,0,9,,,,,,,,7,,,61,0
33819,note_on,19,0,8,,,,,,,,7,,,76,0
33820,note_on,1,0,9,,,,,,,,7,,,61,48
33839,note_on,19,0,9,,,,,,,,7,,,61,0
33840,note_on,21,0,8,,,,,,,,7,,,77,47
33840,note_on,81,0,10,,,,,,,,7,,,58,48
33840,note_on,81,0,4,,,,,,,,3,,,58,48
33840,note_on,1,0,9,,,,,,,,7,,,62,48
33859,note_on,19,0,9,,,,,,,,7,,,62,0
33859,note_on,19,0,8,,,,,,,,7,,,77,0
33860,note_on,1,0,9,,,,,,,,7,,,62,48
33879,note_on,19,0,9,,,,,,,,7,,,62,0
33879,note_on,39,0,4,,,,,,,,3,,,58,0
33879,note_on,39,0,10,,,,,,,,7,,,58,0
33880,note_on,21,0,8,,,,,,,,7,,,73,47
33880,note_on,1,0,9,,,,,,,,7,,,63,48
33899,note_on,19,0,9,,,,,,,,7,,,63,0
33899,note_on,19,0,8,,,,,,,,7,,,73,0
33900,note_on,1,0,9,,,,,,,,7,,,63,48
33919,note_on,19,0,9,,,,,,,,7,,,63,0
33920,note_on,1,0,9,,,,,,,,7,,,65,48
33920,note_on,21,0,8,,,,,,,,7,,,74,47
33939,note_on,19,0,9,,,,,,,,7,,,65,0
33939,note_on,19,0,8,,,,,,,,7,,,74,0
33940,note_on,1,0,9,,,,,,,,7,,,65,48
33959,note_on,19,0,9,,,,,,,,7,,,65,0
33960,note_on,21,0,8,,,,,,,,7,,,70,47
33960,note_on,81,0,10,,,,,,,,7,,,51,48
33960,note_on,81,0,4,,,,,,,,3,,,55,48
33960,note_on,1,0,9,,,,,,,,7,,,67,48
33979,note_on,19,0,8,,,,,,,,7,,,70,0
33979,note_on,19,0,9,,,,,,,,7,,,67,0
33980,note_on,1,0,9,,,,,,,,7,,,67,48
33999,note_on,39,0,4,,,,,,,,3,,,55,0
33999,note_on,39,0,10,,,,,,,,7,,,51,0
33999,note_on,19,0,9,,,,,,,,7,,,67,0
34000,note_on,21,0,8,,,,,,,,7,,,82,47
34000,note_on,1,0,9,,,,,,,,7,,,61,48
34019,note_on,19,0,9,,,,,,,,7,,,61,0
34019,note_on,19,0,8,,,,,,,,7,,,82,0
34020,note_on,1,0,9,,,,,,,,7,,,61,48
34039,note_on,19,0,9,,,,,,,,7,,,61,0
34040,note_on,1,0,9,,,,,,,,7,,,62,48
34040,note_on,21,0,8,,,,,,,,7,,,78,47
34059,note_on,19,0,9,,,,,,,,7,,,62,0
34059,note_on,19,0,8,,,,,,,,7,,,78,0
34060,note_on,1,0,9,,,,,,,,7,,,62,48
34079,note_on,19,0,9,,,,,,,,7,,,62,0
34080,note_on,1,0,9,,,,,,,,7,,,63,48
34080,note_on,81,0,10,,,,,,,,7,,,60,48
34080,note_on,21,0,8,,,,,,,,7,,,79,47
34080,note_on,81,0,4,,,,,,,,3,,,60,48
34099,note_on,19,0,9,,,,,,,,7,,,63,0
34099,note_on,19,0,8,,,,,,,,7,,,79,0
34100,note_on,1,0,9,,,,,,,,7,,,63,48
34119,note_on,39,0,10,,,,,,,,7,,,60,0
34119,note_on,19,0,9,,,,,,,,7,,,63,0
34119,note_on,39,0,4,,,,,,,,3,,,60,0
34120,note_on,1,0,9,,,,,,,,7,,,65,48
34120,note_on,21,0,8,,,,,,,,7,,,74,47
34139,note_on,19,0,8,,,,,,,,7,,,74,0
34139,note_on,19,0,9,,,,,,,,7,,,65,0
34140,note_on,1,0,9,,,,,,,,7,,,65,48
34159,note_on,19,0,9,,,,,,,,7,,,65,0
34160,note_on,1,0,9,,,,,,,,7,,,67,48
34160,note_on,21,0,8,,,,,,,,7,,,75,47
34179,note_on,19,0,8,,,,,,,,7,,,75,0
34179,note_on,19,0,9,,,,,,,,7,,,67,0
34180,note_on,1,0,9,,,,,,,,7,,,67,48
34199,note_on,19,0,9,,,,,,,,7,,,67,0
34200,note_on,1,0,9,,,,,,,,7,,,68,48
34200,note_on,21,0,8,,,,,,,,7,,,72,47
34200,note_on,81,0,10,,,,,,,,7,,,56,48
34200,note_on,81,0,4,,,,,,,,3,,,56,48
34219,note_on,19,0,8,,,,,,,,7,,,72,0
34219,note_on,19,0,9,,,,,,,,7,,,68,0
34220,note_on,1,0,9,,,,,,,,7,,,68,48
34239,note_on,19,0,9,,,,,,,,7,,,68,0
34239,note_on,39,0,4,,,,,,,,3,,,56,0
34239,note_on,39,0,10,,,,,,,,7,,,56,0
34240,note_on,21,0,8,,,,,,,,7,,,67,47
34240,note_on,1,0,9,,,,,,,,7,,,64,48
34259,note_on,19,0,8,,,,,,,,7,,,67,0
34259,note_on,19,0,9,,,,,,,,7,,,64,0
34260,note_on,1,0,9,,,,,,,,7,,,64,48
34279,note_on,19,0,9,,,,,,,,7,,,64,0
34280,note_on,21,0,8,,,,,,,,7,,,68,47
34280,note_on,1,0,9,,,,,,,,7,,,65,48
34299,note_on,19,0,9,,,,,,,,7,,,65,0
34299,note_on,19,0,8,,,,,,,,7,,,68,0
34300,note_on,1,0,9,,,,,,,,7,,,65,48
34319,note_on,19,0,9,,,,,,,,7,,,65,0
34320,note_on,1,0,9,,,,,,,,7,,,62,48
34320,note_on,81,0,4,,,,,,,,3,,,58,48
34320,note_on,81,0,10,,,,,,,,7,,,58,48
34320,note_on,21,0,8,,,,,,,,7,,,65,47
34339,note_on,19,0,8,,,,,,,,7,,,65,0
34339,note_on,19,0,9,,,,,,,,7,,,62,0
34340,note_on,1,0,9,,,,,,,,7,,,62,48
34359,note_on,39,0,4,,,,,,,,3,,,58,0
34359,note_on,19,0,9,,,,,,,,7,,,62,0
34359,note_on,39,0,10,,,,,,,,7,,,58,0
34360,note_on,1,0,9,,,,,,,,7,,,80,48
34360,note_on,21,0,8,,,,,,,,7,,,62,47
34379,note_on,19,0,9,,,,,,,,7,,,80,0
34379,note_on,19,0,8,,,,,,,,7,,,62,0
34380,note_on,1,0,9,,,,,,,,7,,,80,48
34399,note_on,19,0,9,,,,,,,,7,,,80,0
34400,note_on,21,0,8,,,,,,,,7,,,70,47
34400,note_on,1,0,9,,,,,,,,7,,,74,48
34419,note_on,19,0,8,,,,,,,,7,,,70,0
34419,note_on,19,0,9,,,,,,,,7,,,74,0
34420,note_on,1,0,9,,,,,,,,7,,,74,48
34439,note_on,19,0,9,,,,,,,,7,,,74,0
34440,note_on,941,0,1,,,,,,,,0,,,82,49
34440,note_on,941,0,12,,,,,,,,7,,,39,64
34440,note_on,21,0,8,,,,,,,,7,,,67,47
34440,note_on,941,0,2,,,,,,,,1,,,79,48
34440,note_on,941,0,11,,,,,,,,7,,,51,49
34440,note_on,0,0,2,,,,,,,,1,,,75,48
34440,note_on,2841,0,6,,,,,,,,5,,,75,50
34440,note_on,0,0,6,,,,,,,,5,,,63,50
34440,note_on,941,0,3,,,,,,,,2,,,75,48
34440,note_on,0,0,3,,,,,,,,2,,,67,48
34440,note_on,81,0,4,,,,,,,,3,,,51,48
34440,note_on,81,0,10,,,,,,,,7,,,63,48
34440,note_on,0,0,1,,,,,,,,0,,,87,49
34440,note_on,2881,0,7,,,,,,,,6,,,51,48
34440,note_on,1,0,9,,,,,,,,7,,,75,48
34440,note_on,941,0,5,,,,,,,,4,,,63,48
34440,note_on,0,0,5,,,,,,,,4,,,51,48
34459,note_on,19,0,9,,,,,,,,7,,,75,0
34459,note_on,19,0,10,,,,,,,,7,,,63,0
34459,note_on,19,0,12,,,,,,,,7,,,39,0
34459,note_on,19,0,8,,,,,,,,7,,,67,0
34459,note_on,19,0,11,,,,,,,,7,,,51,0
34460,note_on,1,0,8,,,,,,,,7,,,67,47
34479,note_on,0,0,1,,,,,,,,0,,,82,0
34479,note_on,39,0,7,,,,,,,,6,,,51,0
34479,note_on,39,0,2,,,,,,,,1,,,75,0
34479,note_on,39,0,6,,,,,,,,5,,,63,0
34479,note_on,0,0,5,,,,,,,,4,,,63,0
34479,note_on,39,0,4,,,,,,,,3,,,51,0
34479,note_on,39,0,1,,,,,,,,0,,,87,0
34479,note_on,39,0,3,,,,,,,,2,,,67,0
34479,note_on,0,0,3,,,,,,,,2,,,75,0
34479,note_on,19,0,8,,,,,,,,7,,,67,0
34479,note_on,0,0,2,,,,,,,,1,,,79,0
34479,note_on,39,0,5,,,,,,,,4,,,51,0
34479,note_on,0,0,6,,,,,,,,5,,,75,0
34480,note_on,1,0,8,,,,,,,,7,,,70,47
34480,note_on,21,0,11,,,,,,,,7,,,55,49
34480,note_on,21,0,10,,,,,,,,7,,,67,48
34480,note_on,21,0,9,,,,,,,,7,,,70,48
34480,note_on,1,0,4,,,,,,,,3,,,58,48
34480,note_on,21,0,12,,,,,,,,7,,,43,64
34499,note_on,19,0,4,,,,,,,,3,,,58,0
34499,note_on,19,0,11,,,,,,,,7,,,55,0
34499,note_on,19,0,12,,,,,,,,7,,,43,0
34499,note_on,19,0,10,,,,,,,,7,,,67,0
34499,note_on,19,0,8,,,,,,,,7,,,70,0
34499,note_on,19,0,9,,,,,,,,7,,,70,0
34500,note_on,1,0,8,,,,,,,,7,,,70,47
34519,note_on,19,0,8,,,,,,,,7,,,70,0
34520,note_on,21,0,4,,,,,,,,3,,,59,48
34520,note_on,1,0,8,,,,,,,,7,,,71,47
34520,note_on,21,0,11,,,,,,,,7,,,50,49
34520,note_on,21,0,12,,,,,,,,7,,,38,64
34520,note_on,21,0,10,,,,,,,,7,,,62,48
34520,note_on,21,0,9,,,,,,,,7,,,65,48
34539,note_on,19,0,12,,,,,,,,7,,,38,0
34539,note_on,19,0,4,,,,,,,,3,,,59,0
34539,note_on,19,0,11,,,,,,,,7,,,50,0
34539,note_on,19,0,9,,,,,,,,7,,,65,0
34539,note_on,19,0,8,,,,,,,,7,,,71,0
34539,note_on,19,0,10,,,,,,,,7,,,62,0
34540,note_on,1,0,8,,,,,,,,7,,,71,47
34559,note_on,19,0,8,,,,,,,,7,,,71,0
34560,note_on,21,0,4,,,,,,,,3,,,51,48
34560,note_on,21,0,11,,,,,,,,7,,,51,49
34560,note_on,21,0,12,,,,,,,,7,,,39,64
34560,note_on,0,0,3,,,,,,,,2,,,67,48
34560,note_on,81,0,2,,,,,,,,1,,,75,48
34560,note_on,0,0,2,,,,,,,,1,,,79,48
34560,note_on,0,0,5,,,,,,,,4,,,63,48
34560,note_on,81,0,5,,,,,,,,4,,,51,48
34560,note_on,0,0,1,,,,,,,,0,,,84,49
34560,note_on,81,0,1,,,,,,,,0,,,87,49
34560,note_on,1,0,8,,,,,,,,7,,,72,47
34560,note_on,21,0,9,,,,,,,,7,,,67,48
34560,note_on,21,0,10,,,,,,,,7,,,63,48
34560,note_on,81,0,7,,,,,,,,6,,,51,48
34560,note_on,0,0,4,,,,,,,,3,,,60,48
34560,note_on,81,0,6,,,,,,,,5,,,63,50
34560,note_on,0,0,6,,,,,,,,5,,,75,50
34560,note_on,81,0,3,,,,,,,,2,,,72,48
34579,note_on,19,0,10,,,,,,,,7,,,63,0
34579,note_on,19,0,4,,,,,,,,3,,,60,0
34579,note_on,19,0,8,,,,,,,,7,,,72,0
34579,note_on,19,0,9,,,,,,,,7,,,67,0
34579,note_on,19,0,11,,,,,,,,7,,,51,0
34579,note_on,19,0,12,,,,,,,,7,,,39,0
34580,note_on,1,0,8,,,,,,,,7,,,72,47
34599,note_on,39,0,7,,,,,,,,6,,,51,0
34599,note_on,39,0,6,,,,,,,,5,,,75,0
34599,note_on,39,0,3,,,,,,,,2,,,67,0
34599,note_on,0,0,3,,,,,,,,2,,,72,0
34599,note_on,19,0,8,,,,,,,,7,,,72,0
34599,note_on,39,0,2,,,,,,,,1,,,79,0
34599,note_on,0,0,2,,,,,,,,1,,,75,0
34599,note_on,39,0,1,,,,,,,,0,,,84,0
34599,note_on,0,0,1,,,,,,,,0,,,87,0
34599,note_on,20,0,4,,,,,,,,3,,,51,0
34599,note_on,0,0,6,,,,,,,,5,,,63,0
34599,note_on,39,0,5,,,,,,,,4,,,63,0
34599,note_on,0,0,5,,,,,,,,4,,,51,0
34600,note_on,21,0,12,,,,,,,,7,,,35,64
34600,note_on,21,0,10,,,,,,,,7,,,59,48
34600,note_on,21,0,9,,,,,,,,7,,,67,48
34600,note_on,1,0,4,,,,,,,,3,,,62,48
34600,note_on,1,0,8,,,,,,,,7,,,74,47
34600,note_on,21,0,11,,,,,,,,7,,,47,49
34619,note_on,19,0,8,,,,,,,,7,,,74,0
34619,note_on,19,0,10,,,,,,,,7,,,59,0
34619,note_on,19,0,4,,,,,,,,3,,,62,0
34619,note_on,19,0,12,,,,,,,,7,,,35,0
34619,note_on,19,0,9,,,,,,,,7,,,67,0
34619,note_on,19,0,11,,,,,,,,7,,,47,0
34620,note_on,1,0,8,,,,,,,,7,,,74,47
34639,note_on,19,0,8,,,,,,,,7,,,74,0
34640,note_on,21,0,10,,,,,,,,7,,,60,48
34640,note_on,21,0,9,,,,,,,,7,,,67,48
34640,note_on,1,0,8,,,,,,,,7,,,75,47
34640,note_on,21,0,11,,,,,,,,7,,,48,49
34640,note_on,21,0,12,,,,,,,,7,,,36,64
34640,note_on,21,0,4,,,,,,,,3,,,63,48
34659,note_on,19,0,11,,,,,,,,7,,,48,0
34659,note_on,19,0,9,,,,,,,,7,,,67,0
34659,note_on,19,0,12,,,,,,,,7,,,36,0
34659,note_on,19,0,4,,,,,,,,3,,,63,0
34659,note_on,19,0,10,,,,,,,,7,,,60,0
34659,note_on,19,0,8,,,,,,,,7,,,75,0
34660,note_on,1,0,8,,,,,,,,7,,,75,47
34679,note_on,19,0,8,,,,,,,,7,,,75,0
34680,note_on,21,0,12,,,,,,,,7,,,32,64
34680,note_on,1,0,8,,,,,,,,7,,,77,47
34680,note_on,21,0,10,,,,,,,,7,,,56,48
34680,note_on,0,0,2,,,,,,,,1,,,77,48
34680,note_on,81,0,2,,,,,,,,1,,,72,48
34680,note_on,0,0,3,,,,,,,,2,,,72,48
34680,note_on,81,0,1,,,,,,,,0,,,89,49
34680,note_on,81,0,3,,,,,,,,2,,,56,48
34680,note_on,21,0,9,,,,,,,,7,,,60,48
34680,note_on,0,0,4,,,,,,,,3,,,65,48
34680,note_on,0,0,1,,,,,,,,0,,,84,49
34680,note_on,81,0,5,,,,,,,,4,,,65,48
34680,note_on,21,0,11,,,,,,,,7,,,44,49
34680,note_on,21,0,4,,,,,,,,3,,,44,48
34699,note_on,19,0,4,,,,,,,,3,,,65,0
34699,note_on,19,0,11,,,,,,,,7,,,44,0
34699,note_on,19,0,8,,,,,,,,7,,,77,0
34699,note_on,19,0,10,,,,,,,,7,,,56,0
34699,note_on,19,0,2,,,,,,,,1,,,77,0
34699,note_on,19,0,9,,,,,,,,7,,,60,0
34699,note_on,19,0,12,,,,,,,,7,,,32,0
34700,note_on,1,0,8,,,,,,,,7,,,77,47
34719,note_on,0,0,1,,,,,,,,0,,,89,0
34719,note_on,20,0,4,,,,,,,,3,,,44,0
34719,note_on,39,0,3,,,,,,,,2,,,72,0
34719,note_on,0,0,3,,,,,,,,2,,,56,0
34719,note_on,19,0,8,,,,,,,,7,,,77,0
34719,note_on,20,0,2,,,,,,,,1,,,72,0
34719,note_on,39,0,5,,,,,,,,4,,,65,0
34719,note_on,39,0,1,,,,,,,,0,,,84,0
34720,note_on,21,0,11,,,,,,,,7,,,56,49
34720,note_on,1,0,4,,,,,,,,3,,,60,48
34720,note_on,21,0,12,,,,,,,,7,,,44,64
34720,note_on,1,0,8,,,,,,,,7,,,72,47
34720,note_on,21,0,10,,,,,,,,7,,,68,48
34720,note_on,1,0,2,,,,,,,,1,,,72,48
34720,note_on,21,0,9,,,,,,,,7,,,72,48
34739,note_on,19,0,8,,,,,,,,7,,,72,0
34739,note_on,19,0,2,,,,,,,,1,,,72,0
34739,note_on,19,0,10,,,,,,,,7,,,68,0
34739,note_on,19,0,4,,,,,,,,3,,,60,0
34739,note_on,19,0,11,,,,,,,,7,,,56,0
34739,note_on,19,0,9,,,,,,,,7,,,72,0
34739,note_on,19,0,12,,,,,,,,7,,,44,0
34740,note_on,1,0,8,,,,,,,,7,,,72,47
34759,note_on,19,0,8,,,,,,,,7,,,72,0
34760,note_on,21,0,10,,,,,,,,7,,,64,48
34760,note_on,21,0,9,,,,,,,,7,,,67,48
34760,note_on,21,0,12,,,,,,,,7,,,40,64
34760,note_on,1,0,8,,,,,,,,7,,,73,47
34760,note_on,21,0,4,,,,,,,,3,,,61,48
34760,note_on,21,0,11,,,,,,,,7,,,52,49
34760,note_on,21,0,2,,,,,,,,1,,,73,48
34779,note_on,19,0,11,,,,,,,,7,,,52,0
34779,note_on,19,0,12,,,,,,,,7,,,40,0
34779,note_on,19,0,10,,,,,,,,7,,,64,0
34779,note_on,19,0,2,,,,,,,,1,,,73,0
34779,note_on,19,0,9,,,,,,,,7,,,67,0
34779,note_on,19,0,4,,,,,,,,3,,,61,0
34779,note_on,19,0,8,,,,,,,,7,,,73,0
34780,note_on,1,0,8,,,,,,,,7,,,73,47
34799,note_on,19,0,8,,,,,,,,7,,,73,0
34800,note_on,21,0,11,,,,,,,,7,,,53,49
34800,note_on,0,0,2,,,,,,,,1,,,74,48
34800,note_on,21,0,10,,,,,,,,7,,,65,48
34800,note_on,21,0,4,,,,,,,,3,,,53,48
34800,note_on,1,0,8,,,,,,,,7,,,74,47
34800,note_on,21,0,12,,,,,,,,7,,,41,64
34800,note_on,21,0,9,,,,,,,,7,,,68,48
34800,note_on,21,0,2,,,,,,,,1,,,68,48
34800,note_on,81,0,1,,,,,,,,0,,,80,49
34800,note_on,0,0,1,,,,,,,,0,,,86,49
34800,note_on,0,0,3,,,,,,,,2,,,65,48
34800,note_on,81,0,3,,,,,,,,2,,,74,48
34800,note_on,81,0,5,,,,,,,,4,,,65,48
34800,note_on,0,0,4,,,,,,,,3,,,62,48
34819,note_on,19,0,12,,,,,,,,7,,,41,0
34819,note_on,19,0,9,,,,,,,,7,,,68,0
34819,note_on,19,0,10,,,,,,,,7,,,65,0
34819,note_on,19,0,11,,,,,,,,7,,,53,0
34819,note_on,19,0,4,,,,,,,,3,,,62,0
34819,note_on,19,0,2,,,,,,,,1,,,74,0
34819,note_on,19,0,8,,,,,,,,7,,,74,0
34820,note_on,1,0,8,,,,,,,,7,,,74,47
34839,note_on,20,0,2,,,,,,,,1,,,68,0
34839,note_on,20,0,4,,,,,,,,3,,,53,0
34839,note_on,39,0,5,,,,,,,,4,,,65,0
34839,note_on,0,0,1,,,,,,,,0,,,80,0
34839,note_on,19,0,8,,,,,,,,7,,,74,0
34839,note_on,39,0,1,,,,,,,,0,,,86,0
34839,note_on,39,0,3,,,,,,,,2,,,65,0
34839,note_on,0,0,3,,,,,,,,2,,,74,0
34840,note_on,1,0,2,,,,,,,,1,,,76,48
34840,note_on,1,0,4,,,,,,,,3,,,64,48
34840,note_on,21,0,9,,,,,,,,7,,,56,48
34840,note_on,21,0,12,,,,,,,,7,,,37,64
34840,note_on,21,0,10,,,,,,,,7,,,61,48
34840,note_on,1,0,8,,,,,,,,7,,,76,47
34840,note_on,21,0,11,,,,,,,,7,,,49,49
34859,note_on,19,0,4,,,,,,,,3,,,64,0
34859,note_on,19,0,10,,,,,,,,7,,,61,0
34859,note_on,19,0,9,,,,,,,,7,,,56,0
34859,note_on,19,0,12,,,,,,,,7,,,37,0
34859,note_on,19,0,8,,,,,,,,7,,,76,0
34859,note_on,19,0,11,,,,,,,,7,,,49,0
34859,note_on,19,0,2,,,,,,,,1,,,76,0
34860,note_on,1,0,8,,,,,,,,7,,,76,47
34879,note_on,19,0,8,,,,,,,,7,,,76,0
34880,note_on,1,0,8,,,,,,,,7,,,77,47
34880,note_on,21,0,9,,,,,,,,7,,,68,48
34880,note_on,21,0,10,,,,,,,,7,,,62,48
34880,note_on,21,0,4,,,,,,,,3,,,65,48
34880,note_on,21,0,2,,,,,,,,1,,,77,48
34880,note_on,21,0,12,,,,,,,,7,,,38,64
34880,note_on,21,0,11,,,,,,,,7,,,50,49
34899,note_on,19,0,4,,,,,,,,3,,,65,0
34899,note_on,19,0,12,,,,,,,,7,,,38,0
34899,note_on,19,0,9,,,,,,,,7,,,68,0
34899,note_on,19,0,2,,,,,,,,1,,,77,0
34899,note_on,19,0,10,,,,,,,,7,,,62,0
34899,note_on,19,0,8,,,,,,,,7,,,77,0
34899,note_on,19,0,11,,,,,,,,7,,,50,0
34900,note_on,1,0,8,,,,,,,,7,,,77,47
34919,note_on,19,0,8,,,,,,,,7,,,77,0
34920,note_on,81,0,5,,,,,,,,4,,,67,46
34920,note_on,21,0,10,,,,,,,,7,,,58,47
34920,note_on,21,0,12,,,,,,,,7,,,34,63
34920,note_on,321,0,7,,,,,,,,6,,,46,47
34920,note_on,0,0,1,,,,,,,,0,,,86,48
34920,note_on,21,0,4,,,,,,,,3,,,46,47
34920,note_on,321,0,6,,,,,,,,5,,,58,49
34920,note_on,0,0,6,,,,,,,,5,,,70,49
34920,note_on,0,0,4,,,,,,,,3,,,67,47
34920,note_on,0,0,3,,,,,,,,2,,,74,46
34920,note_on,81,0,3,,,,,,,,2,,,67,46
34920,note_on,21,0,2,,,,,,,,1,,,74,49
34920,note_on,0,0,2,,,,,,,,1,,,79,49
34920,note_on,1,0,8,,,,,,,,7,,,79,46
34920,note_on,21,0,9,,,,,,,,7,,,62,47
34920,note_on,21,0,11,,,,,,,,7,,,46,48
34920,note_on,81,0,1,,,,,,,,0,,,91,48
34939,note_on,19,0,10,,,,,,,,7,,,58,0
34939,note_on,0,0,2,,,,,,,,1,,,74,0
34939,note_on,19,0,9,,,,,,,,7,,,62,0
34939,note_on,19,0,2,,,,,,,,1,,,79,0
34939,note_on,19,0,11,,,,,,,,7,,,46,0
34939,note_on,0,0,3,,,,,,,,2,,,67,0
34939,note_on,19,0,12,,,,,,,,7,,,34,0
34939,note_on,19,0,4,,,,,,,,3,,,67,0
34939,note_on,19,0,8,,,,,,,,7,,,79,0
34939,note_on,19,0,3,,,,,,,,2,,,74,0
34940,note_on,1,0,8,,,,,,,,7,,,79,49
34959,note_on,20,0,4,,,,,,,,3,,,46,0
34959,note_on,39,0,7,,,,,,,,6,,,46,0
34959,note_on,19,0,8,,,,,,,,7,,,79,0
34959,note_on,39,0,1,,,,,,,,0,,,86,0
34959,note_on,0,0,1,,,,,,,,0,,,91,0
34959,note_on,0,0,6,,,,,,,,5,,,58,0
34959,note_on,39,0,6,,,,,,,,5,,,70,0
34959,note_on,39,0,5,,,,,,,,4,,,67,0
34960,note_on,21,0,9,,,,,,,,7,,,67,53
34960,note_on,21,0,11,,,,,,,,7,,,58,55
34960,note_on,0,0,3,,,,,,,,2,,,73,53
34960,note_on,21,0,10,,,,,,,,7,,,70,53
34960,note_on,21,0,12,,,,,,,,7,,,46,69
34960,note_on,1,0,8,,,,,,,,7,,,73,53
34960,note_on,21,0,3,,,,,,,,2,,,61,53
34979,note_on,0,0,3,,,,,,,,2,,,61,0
34979,note_on,19,0,12,,,,,,,,7,,,46,0
34979,note_on,19,0,8,,,,,,,,7,,,73,0
34979,note_on,19,0,3,,,,,,,,2,,,73,0
34979,note_on,19,0,9,,,,,,,,7,,,67,0
34979,note_on,19,0,10,,,,,,,,7,,,70,0
34979,note_on,19,0,11,,,,,,,,7,,,58,0
34980,note_on,1,0,8,,,,,,,,7,,,73,56
34999,note_on,19,0,8,,,,,,,,7,,,73,0
35000,note_on,21,0,12,,,,,,,,7,,,42,76
35000,note_on,1,0,8,,,,,,,,7,,,74,59
35000,note_on,21,0,10,,,,,,,,7,,,66,60
35000,note_on,21,0,9,,,,,,,,7,,,58,60
35000,note_on,0,0,3,,,,,,,,2,,,74,60
35000,note_on,21,0,3,,,,,,,,2,,,62,60
35000,note_on,21,0,11,,,,,,,,7,,,54,61
35019,note_on,19,0,9,,,,,,,,7,,,58,0
35019,note_on,19,0,12,,,,,,,,7,,,42,0
35019,note_on,19,0,8,,,,,,,,7,,,74,0
35019,note_on,0,0,3,,,,,,,,2,,,62,0
35019,note_on,19,0,3,,,,,,,,2,,,74,0
35019,note_on,19,0,10,,,,,,,,7,,,66,0
35019,note_on,19,0,11,,,,,,,,7,,,54,0
35020,note_on,1,0,8,,,,,,,,7,,,74,63
35039,note_on,19,0,8,,,,,,,,7,,,74,0
35040,note_on,21,0,11,,,,,,,,7,,,55,68
35040,note_on,21,0,10,,,,,,,,7,,,67,66
35040,note_on,81,0,5,,,,,,,,4,,,67,66
35040,note_on,81,0,1,,,,,,,,0,,,82,68
35040,note_on,0,0,1,,,,,,,,0,,,87,68
35040,note_on,81,0,6,,,,,,,,5,,,70,69
35040,note_on,21,0,3,,,,,,,,2,,,75,66
35040,note_on,1,0,8,,,,,,,,7,,,75,66
35040,note_on,0,0,3,,,,,,,,2,,,63,66
35040,note_on,81,0,7,,,,,,,,6,,,46,67
35040,note_on,81,0,4,,,,,,,,3,,,55,67
35040,note_on,21,0,9,,,,,,,,7,,,70,66
35040,note_on,21,0,12,,,,,,,,7,,,43,82
35040,note_on,0,0,6,,,,,,,,5,,,58,69
35059,note_on,19,0,3,,,,,,,,2,,,63,0
35059,note_on,0,0,3,,,,,,,,2,,,75,0
35059,note_on,19,0,9,,,,,,,,7,,,70,0
35059,note_on,19,0,12,,,,,,,,7,,,43,0
35059,note_on,19,0,10,,,,,,,,7,,,67,0
35059,note_on,19,0,11,,,,,,,,7,,,55,0
35059,note_on,19,0,8,,,,,,,,7,,,75,0
35060,note_on,1,0,8,,,,,,,,7,,,75,69
35079,note_on,19,0,8,,,,,,,,7,,,75,0
35079,note_on,39,0,5,,,,,,,,4,,,67,0
35079,note_on,0,0,1,,,,,,,,0,,,82,0
35079,note_on,39,0,1,,,,,,,,0,,,87,0
35079,note_on,0,0,6,,,,,,,,5,,,70,0
35079,note_on,39,0,7,,,,,,,,6,,,46,0
35079,note_on,39,0,4,,,,,,,,3,,,55,0
35079,note_on,39,0,6,,,,,,,,5,,,58,0
35080,note_on,21,0,9,,,,,,,,7,,,58,73
35080,note_on,21,0,11,,,,,,,,7,,,50,74
35080,note_on,21,0,12,,,,,,,,7,,,38,89
35080,note_on,21,0,3,,,,,,,,2,,,77,73
35080,note_on,0,0,3,,,,,,,,2,,,65,73
35080,note_on,21,0,10,,,,,,,,7,,,62,73
35080,note_on,1,0,8,,,,,,,,7,,,77,73
35099,note_on,19,0,3,,,,,,,,2,,,65,0
35099,note_on,19,0,12,,,,,,,,7,,,38,0
35099,note_on,19,0,9,,,,,,,,7,,,58,0
35099,note_on,0,0,3,,,,,,,,2,,,77,0
35099,note_on,19,0,11,,,,,,,,7,,,50,0
35099,note_on,19,0,10,,,,,,,,7,,,62,0
35099,note_on,19,0,8,,,,,,,,7,,,77,0
35100,note_on,1,0,8,,,,,,,,7,,,77,76
35119,note_on,19,0,8,,,,,,,,7,,,77,0
35120,note_on,1,0,8,,,,,,,,7,,,79,80
35120,note_on,21,0,9,,,,,,,,7,,,70,80
35120,note_on,21,0,11,,,,,,,,7,,,51,80
35120,note_on,21,0,3,,,,,,,,2,,,79,80
35120,note_on,0,0,3,,,,,,,,2,,,67,80
35120,note_on,21,0,12,,,,,,,,7,,,39,96
35120,note_on,21,0,10,,,,,,,,7,,,63,79
35139,note_on,19,0,10,,,,,,,,7,,,63,0
35139,note_on,19,0,11,,,,,,,,7,,,51,0
35139,note_on,19,0,3,,,,,,,,2,,,67,0
35139,note_on,19,0,9,,,,,,,,7,,,70,0
35139,note_on,0,0,3,,,,,,,,2,,,79,0
35139,note_on,19,0,12,,,,,,,,7,,,39,0
35139,note_on,19,0,8,,,,,,,,7,,,79,0
35140,note_on,1,0,8,,,,,,,,7,,,79,83
35159,note_on,19,0,8,,,,,,,,7,,,79,0
35160,note_on,81,0,1,,,,,,,,0,,,84,87
35160,note_on,21,0,12,,,,,,,,7,,,36,102
35160,note_on,0,0,1,,,,,,,,0,,,87,87
35160,note_on,1,0,8,,,,,,,,7,,,80,86
35160,note_on,21,0,11,,,,,,,,7,,,48,87
35160,note_on,81,0,7,,,,,,,,6,,,51,88
35160,note_on,0,0,5,,,,,,,,4,,,63,86
35160,note_on,81,0,5,,,,,,,,4,,,51,86
35160,note_on,0,0,3,,,,,,,,2,,,80,86
35160,note_on,21,0,10,,,,,,,,7,,,60,86
35160,note_on,0,0,6,,,,,,,,5,,,63,88
35160,note_on,21,0,9,,,,,,,,7,,,63,86
35160,note_on,81,0,6,,,,,,,,5,,,75,88
35160,note_on,81,0,4,,,,,,,,3,,,48,87
35160,note_on,21,0,3,,,,,,,,2,,,68,86
35179,note_on,0,0,3,,,,,,,,2,,,68,0
35179,note_on,19,0,3,,,,,,,,2,,,80,0
35179,note_on,19,0,12,,,,,,,,7,,,36,0
35179,note_on,19,0,11,,,,,,,,7,,,48,0
35179,note_on,19,0,8,,,,,,,,7,,,80,0
35179,note_on,19,0,9,,,,,,,,7,,,63,0
35179,note_on,19,0,10,,,,,,,,7,,,60,0
35180,note_on,1,0,8,,,,,,,,7,,,80,90
35199,note_on,0,0,6,,,,,,,,5,,,75,0
35199,note_on,39,0,1,,,,,,,,0,,,87,0
35199,note_on,0,0,1,,,,,,,,0,,,84,0
35199,note_on,39,0,6,,,,,,,,5,,,63,0
35199,note_on,39,0,4,,,,,,,,3,,,48,0
35199,note_on,19,0,8,,,,,,,,7,,,80,0
35199,note_on,39,0,7,,,,,,,,6,,,51,0
35199,note_on,39,0,5,,,,,,,,4,,,63,0
35199,note_on,0,0,5,,,,,,,,4,,,51,0
35200,note_on,1,0,8,,,,,,,,7,,,80,93
35200,note_on,21,0,11,,,,,,,,7,,,43,93
35200,note_on,21,0,10,,,,,,,,7,,,55,93
35200,note_on,21,0,9,,,,,,,,7,,,72,93
35200,note_on,1,0,4,,,,,,,,3,,,43,93
35200,note_on,21,0,12,,,,,,,,7,,,31,109
35219,note_on,19,0,10,,,,,,,,7,,,55,0
35219,note_on,19,0,9,,,,,,,,7,,,72,0
35219,note_on,19,0,8,,,,,,,,7,,,80,0
35219,note_on,19,0,11,,,,,,,,7,,,43,0
35219,note_on,19,0,12,,,,,,,,7,,,31,0
35220,note_on,1,0,8,,,,,,,,7,,,80,96
35239,note_on,39,0,4,,,,,,,,3,,,43,0
35239,note_on,19,0,8,,,,,,,,7,,,80,0
35240,note_on,1,0,8,,,,,,,,7,,,80,100
35240,note_on,1,0,4,,,,,,,,3,,,44,100
35240,note_on,21,0,10,,,,,,,,7,,,56,99
35240,note_on,21,0,9,,,,,,,,7,,,72,99
35240,note_on,21,0,11,,,,,,,,7,,,44,100
35240,note_on,21,0,12,,,,,,,,7,,,32,115
35259,note_on,19,0,12,,,,,,,,7,,,32,0
35259,note_on,19,0,8,,,,,,,,7,,,80,0
35259,note_on,19,0,10,,,,,,,,7,,,56,0
35259,note_on,19,0,9,,,,,,,,7,,,72,0
35259,note_on,19,0,11,,,,,,,,7,,,44,0
35260,note_on,1,0,8,,,,,,,,7,,,80,103
35279,note_on,39,0,4,,,,,,,,3,,,44,0
35279,note_on,19,0,8,,,,,,,,7,,,80,0
35280,note_on,1,0,8,,,,,,,,7,,,80,107
35280,note_on,81,0,7,,,,,,,,6,,,46,108
35280,note_on,1,0,4,,,,,,,,3,,,41,106
35280,note_on,21,0,9,,,,,,,,7,,,74,106
35280,note_on,81,0,6,,,,,,,,5,,,58,108
35280,note_on,0,0,5,,,,,,,,4,,,58,106
35280,note_on,21,0,11,,,,,,,,7,,,41,106
35280,note_on,81,0,5,,,,,,,,4,,,46,106
35280,note_on,21,0,10,,,,,,,,7,,,53,106
35280,note_on,21,0,12,,,,,,,,7,,,29,122
35280,note_on,0,0,6,,,,,,,,5,,,70,108
35299,note_on,19,0,12,,,,,,,,7,,,29,0
35299,note_on,19,0,9,,,,,,,,7,,,74,0
35299,note_on,19,0,10,,,,,,,,7,,,53,0
35299,note_on,19,0,8,,,,,,,,7,,,80,0
35299,note_on,19,0,11,,,,,,,,7,,,41,0
35300,note_on,1,0,8,,,,,,,,7,,,80,110
35319,note_on,39,0,4,,,,,,,,3,,,41,0
35319,note_on,0,0,5,,,,,,,,4,,,46,0
35319,note_on,0,0,6,,,,,,,,5,,,58,0
35319,note_on,39,0,6,,,,,,,,5,,,70,0
35319,note_on,19,0,8,,,,,,,,7,,,80,0
35319,note_on,39,0,7,,,,,,,,6,,,46,0
35319,note_on,39,0,5,,,,,,,,4,,,58,0
35320,note_on,1,0,7,,,,,,,,6,,,46,114
35320,note_on,0,0,5,,,,,,,,4,,,58,113
35320,note_on,1,0,5,,,,,,,,4,,,46,113
35320,note_on,21,0,10,,,,,,,,7,,,61,112
35320,note_on,21,0,12,,,,,,,,7,,,37,127
35320,note_on,1,0,6,,,,,,,,5,,,58,115
35320,note_on,1,0,4,,,,,,,,3,,,49,113
35320,note_on,0,0,6,,,,,,,,5,,,70,115
35320,note_on,121,0,1,,,,,,,,0,,,82,112
35320,note_on,0,0,2,,,,,,,,1,,,70,113
35320,note_on,381,0,2,,,,,,,,1,,,80,113
35320,note_on,21,0,11,,,,,,,,7,,,49,112
35320,note_on,21,0,9,,,,,,,,7,,,65,113
35320,note_on,1,0,8,,,,,,,,7,,,80,113
35320,note_on,141,0,3,,,,,,,,2,,,68,113
35320,note_on,0,0,3,,,,,,,,2,,,70,113
35339,note_on,19,0,8,,,,,,,,7,,,80,0
35339,note_on,19,0,10,,,,,,,,7,,,61,0
35339,note_on,19,0,12,,,,,,,,7,,,37,0
35339,note_on,19,0,11,,,,,,,,7,,,49,0
35339,note_on,19,0,2,,,,,,,,1,,,70,0
35339,note_on,0,0,2,,,,,,,,1,,,80,0
35339,note_on,19,0,9,,,,,,,,7,,,65,0
35340,note_on,1,0,8,,,,,,,,7,,,80,117
35359,note_on,39,0,3,,,,,,,,2,,,70,0
35359,note_on,39,0,1,,,,,,,,0,,,82,0
35359,note_on,39,0,5,,,,,,,,4,,,58,0
35359,note_on,0,0,5,,,,,,,,4,,,46,0
35359,note_on,0,0,3,,,,,,,,2,,,68,0
35359,note_on,39,0,4,,,,,,,,3,,,49,0
35359,note_on,39,0,7,,,,,,,,6,,,46,0
35359,note_on,19,0,8,,,,,,,,7,,,80,0
35359,note_on,39,0,6,,,,,,,,5,,,70,0
35359,note_on,0,0,6,,,,,,,,5,,,58,0
35360,note_on,0,0,5,,,,,,,,4,,,58,119
35360,note_on,21,0,9,,,,,,,,7,,,65,119
35360,note_on,1,0,7,,,,,,,,6,,,46,121
35360,note_on,0,0,6,,,,,,,,5,,,70,121
35360,note_on,1,0,6,,,,,,,,5,,,58,121
35360,note_on,0,0,3,,,,,,,,2,,,70,120
35360,note_on,21,0,2,,,,,,,,1,,,80,119
35360,note_on,21,0,12,,,,,,,,7,,,38,127
35360,note_on,1,0,1,,,,,,,,0,,,82,119
35360,note_on,21,0,10,,,,,,,,7,,,62,119
35360,note_on,1,0,8,,,,,,,,7,,,80,120
35360,note_on,1,0,5,,,,,,,,4,,,46,119
35360,note_on,1,0,3,,,,,,,,2,,,68,120
35360,note_on,0,0,2,,,,,,,,1,,,70,119
35360,note_on,1,0,4,,,,,,,,3,,,50,120
35360,note_on,21,0,11,,,,,,,,7,,,50,119
35379,note_on,19,0,8,,,,,,,,7,,,80,0
35379,note_on,19,0,12,,,,,,,,7,,,38,0
35379,note_on,0,0,2,,,,,,,,1,,,80,0
35379,note_on,19,0,2,,,,,,,,1,,,70,0
35379,note_on,19,0,11,,,,,,,,7,,,50,0
35379,note_on,19,0,10,,,,,,,,7,,,62,0
35379,note_on,19,0,9,,,,,,,,7,,,65,0
35380,note_on,1,0,8,,,,,,,,7,,,80,123
35399,note_on,0,0,5,,,,,,,,4,,,46,0
35399,note_on,39,0,1,,,,,,,,0,,,82,0
35399,note_on,0,0,3,,,,,,,,2,,,68,0
35399,note_on,39,0,3,,,,,,,,2,,,70,0
35399,note_on,39,0,4,,,,,,,,3,,,50,0
35399,note_on,39,0,6,,,,,,,,5,,,70,0
35399,note_on,39,0,5,,,,,,,,4,,,58,0
35399,note_on,0,0,6,,,,,,,,5,,,58,0
35399,note_on,19,0,8,,,,,,,,7,,,80,0
35399,note_on,39,0,7,,,,,,,,6,,,46,0
35400,note_on,1,0,3,,,,,,,,2,,,62,127
35400,note_on,1,0,4,,,,,,,,3,,,46,127
35400,note_on,1,0,6,,,,,,,,5,,,58,127
35400,note_on,0,0,3,,,,,,,,2,,,74,127
35400,note_on,1,0,1,,,,,,,,0,,,82,127
35400,note_on,21,0,12,,,,,,,,7,,,34,127
35400,note_on,0,0,6,,,,,,,,5,,,70,127
35400,note_on,1,0,7,,,,,,,,6,,,46,127
35400,note_on,0,0,5,,,,,,,,4,,,46,127
35400,note_on,1,0,5,,,,,,,,4,,,58,127
35400,note_on,21,0,10,,,,,,,,7,,,58,127
35400,note_on,0,0,2,,,,,,,,1,,,80,126
35400,note_on,21,0,2,,,,,,,,1,,,70,126
35400,note_on,21,0,11,,,,,,,,7,,,46,127
35400,note_on,1,0,8,,,,,,,,7,,,80,127
35400,note_on,21,0,9,,,,,,,,7,,,62,127
35419,note_on,19,0,7,,,,,,,,6,,,46,0
35419,note_on,0,0,2,,,,,,,,1,,,70,0
35419,note_on,19,0,2,,,,,,,,1,,,80,0
35419,note_on,19,0,8,,,,,,,,7,,,80,0
35419,note_on,19,0,9,,,,,,,,7,,,62,0
35420,note_on,1,0,9,,,,,,,,7,,,62,127
35420,note_on,1,0,8,,,,,,,,7,,,80,127
35420,note_on,1,0,7,,,,,,,,6,,,46,127
35439,note_on,39,0,3,,,,,,,,2,,,74,0
35439,note_on,0,0,5,,,,,,,,4,,,58,0
35439,note_on,39,0,1,,,,,,,,0,,,82,0
35439,note_on,19,0,8,,,,,,,,7,,,80,0
35439,note_on,0,0,3,,,,,,,,2,,,62,0
35439,note_on,39,0,5,,,,,,,,4,,,46,0
35439,note_on,0,0,6,,,,,,,,5,,,58,0
35439,note_on,39,0,6,,,,,,,,5,,,70,0
35439,note_on,39,0,12,,,,,,,,7,,,34,0
35439,note_on,39,0,4,,,,,,,,3,,,46,0
35439,note_on,39,0,10,,,,,,,,7,,,58,0
35439,note_on,19,0,9,,,,,,,,7,,,62,0
35439,note_on,39,0,11,,,,,,,,7,,,46,0
35439,note_on,19,0,7,,,,,,,,6,,,46,0
35440,note_on,1,0,12,,,,,,,,7,,,41,127
35440,note_on,1,0,3,,,,,,,,2,,,62,127
35440,note_on,0,0,3,,,,,,,,2,,,74,127
35440,note_on,0,0,2,,,,,,,,1,,,70,126
35440,note_on,21,0,2,,,,,,,,1,,,74,126
35440,note_on,1,0,9,,,,,,,,7,,,68,127
35440,note_on,1,0,11,,,,,,,,7,,,53,127
35440,note_on,1,0,7,,,,,,,,6,,,46,127
35440,note_on,1,0,6,,,,,,,,5,,,70,127
35440,note_on,1,0,8,,,,,,,,7,,,80,127
35440,note_on,0,0,1,,,,,,,,0,,,82,127
35440,note_on,0,0,6,,,,,,,,5,,,58,127
35440,note_on,1,0,10,,,,,,,,7,,,65,127
35440,note_on,1,0,1,,,,,,,,0,,,86,127
35440,note_on,1,0,4,,,,,,,,3,,,53,127
35440,note_on,0,0,5,,,,,,,,4,,,58,127
35440,note_on,1,0,5,,,,,,,,4,,,46,127
35459,note_on,19,0,9,,,,,,,,7,,,68,0
35459,note_on,19,0,2,,,,,,,,1,,,70,0
35459,note_on,19,0,8,,,,,,,,7,,,80,0
35459,note_on,0,0,2,,,,,,,,1,,,74,0
35459,note_on,19,0,7,,,,,,,,6,,,46,0
35460,note_on,1,0,9,,,,,,,,7,,,68,127
35460,note_on,1,0,8,,,,,,,,7,,,80,127
35460,note_on,1,0,7,,,,,,,,6,,,46,127
35479,note_on,0,0,5,,,,,,,,4,,,46,0
35479,note_on,39,0,10,,,,,,,,7,,,65,0
35479,note_on,39,0,5,,,,,,,,4,,,58,0
35479,note_on,0,0,3,,,,,,,,2,,,62,0
35479,note_on,19,0,9,,,,,,,,7,,,68,0
35479,note_on,19,0,7,,,,,,,,6,,,46,0
35479,note_on,19,0,8,,,,,,,,7,,,80,0
35479,note_on,39,0,12,,,,,,,,7,,,41,0
35479,note_on,39,0,3,,,,,,,,2,,,74,0
35479,note_on,39,0,11,,,,,,,,7,,,53,0
35479,note_on,0,0,6,,,,,,,,5,,,70,0
35479,note_on,39,0,4,,,,,,,,3,,,53,0
35479,note_on,0,0,1,,,,,,,,0,,,86,0
35479,note_on,39,0,1,,,,,,,,0,,,82,0
35479,note_on,39,0,6,,,,,,,,5,,,58,0
35480,note_on,1,0,4,,,,,,,,3,,,50,127
35480,note_on,0,0,3,,,,,,,,2,,,74,127
35480,note_on,1,0,7,,,,,,,,6,,,46,127
35480,note_on,1,0,10,,,,,,,,7,,,62,127
35480,note_on,1,0,9,,,,,,,,7,,,65,127
35480,note_on,1,0,3,,,,,,,,2,,,62,127
35480,note_on,1,0,11,,,,,,,,7,,,50,127
35480,note_on,0,0,2,,,,,,,,1,,,74,126
35480,note_on,1,0,6,,,,,,,,5,,,70,127
35480,note_on,21,0,2,,,,,,,,1,,,70,126
35480,note_on,0,0,1,,,,,,,,0,,,82,127
35480,note_on,1,0,1,,,,,,,,0,,,86,127
35480,note_on,0,0,6,,,,,,,,5,,,58,127
35480,note_on,1,0,8,,,,,,,,7,,,80,127
35480,note_on,1,0,5,,,,,,,,4,,,46,127
35480,note_on,1,0,12,,,,,,,,7,,,38,127
35480,note_on,0,0,5,,,,,,,,4,,,58,127
35499,note_on,19,0,9,,,,,,,,7,,,65,0
35499,note_on,19,0,7,,,,,,,,6,,,46,0
35499,note_on,0,0,2,,,,,,,,1,,,70,0
35499,note_on,19,0,8,,,,,,,,7,,,80,0
35499,note_on,19,0,2,,,,,,,,1,,,74,0
35500,note_on,1,0,9,,,,,,,,7,,,65,127
35500,note_on,1,0,7,,,,,,,,6,,,46,127
35500,note_on,1,0,8,,,,,,,,7,,,80,127
35519,note_on,39,0,11,,,,,,,,7,,,50,0
35519,note_on,39,0,1,,,,,,,,0,,,82,0
35519,note_on,19,0,8,,,,,,,,7,,,80,0
35519,note_on,19,0,9,,,,,,,,7,,,65,0
35519,note_on,0,0,6,,,,,,,,5,,,70,0
35519,note_on,39,0,5,,,,,,,,4,,,58,0
35519,note_on,0,0,5,,,,,,,,4,,,46,0
35519,note_on,39,0,3,,,,,,,,2,,,74,0
35519,note_on,0,0,3,,,,,,,,2,,,62,0
35519,note_on,39,0,10,,,,,,,,7,,,62,0
35519,note_on,39,0,4,,,,,,,,3,,,50,0
35519,note_on,19,0,7,,,,,,,,6,,,46,0
35519,note_on,39,0,6,,,,,,,,5,,,58,0
35519,note_on,39,0,12,,,,,,,,7,,,38,0
35519,note_on,0,0,1,,,,,,,,0,,,86,0
35520,note_on,1,0,7,,,,,,,,6,,,46,127
35520,note_on,1,0,12,,,,,,,,7,,,34,127
35520,note_on,1,0,4,,,,,,,,3,,,46,127
35520,note_on,1,0,11,,,,,,,,7,,,46,127
35520,note_on,1,0,1,,,,,,,,0,,,82,127
35520,note_on,0,0,1,,,,,,,,0,,,86,127
35520,note_on,1,0,8,,,,,,,,7,,,80,127
35520,note_on,0,0,6,,,,,,,,5,,,58,127
35520,note_on,0,0,3,,,,,,,,2,,,74,127
35520,note_on,21,0,2,,,,,,,,1,,,74,126
35520,note_on,0,0,2,,,,,,,,1,,,70,126
35520,note_on,1,0,3,,,,,,,,2,,,62,127
35520,note_on,1,0,10,,,,,,,,7,,,58,127
35520,note_on,1,0,9,,,,,,,,7,,,62,127
35520,note_on,1,0,6,,,,,,,,5,,,70,127
35520,note_on,1,0,5,,,,,,,,4,,,46,127
35520,note_on,0,0,5,,,,,,,,4,,,58,127
35539,note_on,19,0,7,,,,,,,,6,,,46,0
35539,note_on,19,0,8,,,,,,,,7,,,80,0
35539,note_on,19,0,2,,,,,,,,1,,,70,0
35539,note_on,19,0,9,,,,,,,,7,,,62,0
35539,note_on,0,0,2,,,,,,,,1,,,74,0
35540,note_on,1,0,9,,,,,,,,7,,,62,127
35540,note_on,1,0,8,,,,,,,,7,,,80,127
35540,note_on,1,0,7,,,,,,,,6,,,46,127
35559,note_on,39,0,5,,,,,,,,4,,,58,0
35559,note_on,39,0,6,,,,,,,,5,,,58,0
35559,note_on,39,0,12,,,,,,,,7,,,34,0
35559,note_on,39,0,10,,,,,,,,7,,,58,0
35559,note_on,19,0,7,,,,,,,,6,,,46,0
35559,note_on,0,0,5,,,,,,,,4,,,46,0
35559,note_on,0,0,3,,,,,,,,2,,,62,0
35559,note_on,19,0,9,,,,,,,,7,,,62,0
35559,note_on,39,0,11,,,,,,,,7,,,46,0
35559,note_on,0,0,1,,,,,,,,0,,,82,0
35559,note_on,0,0,6,,,,,,,,5,,,70,0
35559,note_on,39,0,3,,,,,,,,2,,,74,0
35559,note_on,39,0,4,,,,,,,,3,,,46,0
35559,note_on,19,0,8,,,,,,,,7,,,80,0
35559,note_on,39,0,1,,,,,,,,0,,,86,0
35560,note_on,0,0,2,,,,,,,,1,,,70,126
35560,note_on,21,0,2,,,,,,,,1,,,77,126
35560,note_on,1,0,8,,,,,,,,7,,,80,127
35560,note_on,0,0,6,,,,,,,,5,,,58,127
35560,note_on,0,0,1,,,,,,,,0,,,82,127
35560,note_on,0,0,5,,,,,,,,4,,,58,127
35560,note_on,1,0,5,,,,,,,,4,,,65,127
35560,note_on,1,0,12,,,,,,,,7,,,50,127
35560,note_on,1,0,9,,,,,,,,7,,,77,127
35560,note_on,1,0,10,,,,,,,,7,,,74,127
35560,note_on,1,0,11,,,,,,,,7,,,62,127
35560,note_on,1,0,6,,,,,,,,5,,,70,127
35560,note_on,1,0,4,,,,,,,,3,,,62,127
35560,note_on,1,0,7,,,,,,,,6,,,46,127
35560,note_on,1,0,1,,,,,,,,0,,,89,127
35560,note_on,0,0,3,,,,,,,,2,,,77,127
35560,note_on,1,0,3,,,,,,,,2,,,65,127
35579,note_on,19,0,2,,,,,,,,1,,,70,0
35579,note_on,0,0,2,,,,,,,,1,,,77,0
35579,note_on,19,0,7,,,,,,,,6,,,46,0
35579,note_on,19,0,8,,,,,,,,7,,,80,0
35579,note_on,19,0,9,,,,,,,,7,,,77,0
35580,note_on,1,0,7,,,,,,,,6,,,46,127
35580,note_on,1,0,9,,,,,,,,7,,,77,127
35580,note_on,1,0,8,,,,,,,,7,,,80,127
35599,note_on,19,0,8,,,,,,,,7,,,80,0
35599,note_on,39,0,5,,,,,,,,4,,,58,0
35599,note_on,39,0,6,,,,,,,,5,,,58,0
35599,note_on,0,0,6,,,,,,,,5,,,70,0
35599,note_on,39,0,11,,,,,,,,7,,,62,0
35599,note_on,19,0,7,,,,,,,,6,,,46,0
35599,note_on,39,0,4,,,,,,,,3,,,62,0
35599,note_on,39,0,12,,,,,,,,7,,,50,0
35599,note_on,39,0,10,,,,,,,,7,,,74,0
35599,note_on,19,0,9,,,,,,,,7,,,77,0
35599,note_on,0,0,1,,,,,,,,0,,,89,0
35599,note_on,39,0,1,,,,,,,,0,,,82,0
35599,note_on,0,0,3,,,,,,,,2,,,65,0
35599,note_on,39,0,3,,,,,,,,2,,,77,0
35599,note_on,0,0,5,,,,,,,,4,,,65,0
35600,note_on,1,0,4,,,,,,,,3,,,58,127
35600,note_on,0,0,6,,,,,,,,5,,,58,127
35600,note_on,1,0,6,,,,,,,,5,,,70,127
35600,note_on,0,0,5,,,,,,,,4,,,58,127
35600,note_on,1,0,11,,,,,,,,7,,,58,127
35600,note_on,1,0,9,,,,,,,,7,,,74,127
35600,note_on,0,0,1,,,,,,,,0,,,82,127
35600,note_on,1,0,1,,,,,,,,0,,,89,127
35600,note_on,0,0,3,,,,,,,,2,,,77,127
35600,note_on,1,0,3,,,,,,,,2,,,65,127
35600,note_on,1,0,10,,,,,,,,7,,,70,127
35600,note_on,0,0,2,,,,,,,,1,,,77,126
35600,note_on,1,0,5,,,,,,,,4,,,65,127
35600,note_on,1,0,12,,,,,,,,7,,,46,127
35600,note_on,1,0,8,,,,,,,,7,,,80,127
35600,note_on,1,0,7,,,,,,,,6,,,46,127
35600,note_on,21,0,2,,,,,,,,1,,,70,126
35619,note_on,19,0,7,,,,,,,,6,,,46,0
35619,note_on,0,0,2,,,,,,,,1,,,70,0
35619,note_on,19,0,2,,,,,,,,1,,,77,0
35619,note_on,19,0,8,,,,,,,,7,,,80,0
35619,note_on,19,0,9,,,,,,,,7,,,74,0
35620,note_on,1,0,8,,,,,,,,7,,,80,127
35620,note_on,1,0,9,,,,,,,,7,,,74,127
35620,note_on,1,0,7,,,,,,,,6,,,46,127
35639,note_on,39,0,10,,,,,,,,7,,,70,0
35639,note_on,39,0,3,,,,,,,,2,,,77,0
35639,note_on,0,0,3,,,,,,,,2,,,65,0
35639,note_on,39,0,1,,,,,,,,0,,,82,0
35639,note_on,0,0,1,,,,,,,,0,,,89,0
35639,note_on,39,0,11,,,,,,,,7,,,58,0
35639,note_on,39,0,6,,,,,,,,5,,,58,0
35639,note_on,0,0,6,,,,,,,,5,,,70,0
35639,note_on,19,0,7,,,,,,,,6,,,46,0
35639,note_on,39,0,4,,,,,,,,3,,,58,0
35639,note_on,19,0,9,,,,,,,,7,,,74,0
35639,note_on,19,0,8,,,,,,,,7,,,80,0
35639,note_on,0,0,5,,,,,,,,4,,,65,0
35639,note_on,39,0,5,,,,,,,,4,,,58,0
35639,note_on,39,0,12,,,,,,,,7,,,46,0
35640,note_on,1,0,1,,,,,,,,0,,,82,127
35640,note_on,1,0,7,,,,,,,,6,,,46,127
35640,note_on,0,0,3,,,,,,,,2,,,77,127
35640,note_on,1,0,3,,,,,,,,2,,,65,127
35640,note_on,1,0,10,,,,,,,,7,,,58,127
35640,note_on,1,0,9,,,,,,,,7,,,65,127
35640,note_on,1,0,6,,,,,,,,5,,,70,127
35640,note_on,0,0,6,,,,,,,,5,,,58,127
35640,note_on,1,0,4,,,,,,,,3,,,46,127
35640,note_on,1,0,5,,,,,,,,4,,,58,127
35640,note_on,0,0,5,,,,,,,,4,,,65,127
35640,note_on,21,0,2,,,,,,,,1,,,77,126
35640,note_on,0,0,2,,,,,,,,1,,,70,126
35640,note_on,1,0,11,,,,,,,,7,,,46,127
35640,note_on,0,0,1,,,,,,,,0,,,89,127
35640,note_on,1,0,12,,,,,,,,7,,,34,127
35640,note_on,1,0,8,,,,,,,,7,,,80,127
35659,note_on,19,0,9,,,,,,,,7,,,65,0
35659,note_on,19,0,2,,,,,,,,1,,,70,0
35659,note_on,0,0,2,,,,,,,,1,,,77,0
35659,note_on,19,0,8,,,,,,,,7,,,80,0
35659,note_on,19,0,7,,,,,,,,6,,,46,0
35660,note_on,1,0,8,,,,,,,,7,,,80,127
35660,note_on,1,0,9,,,,,,,,7,,,65,127
35660,note_on,1,0,7,,,,,,,,6,,,46,127
35679,note_on,39,0,12,,,,,,,,7,,,34,0
35679,note_on,19,0,8,,,,,,,,7,,,80,0
35679,note_on,19,0,7,,,,,,,,6,,,46,0
35679,note_on,0,0,3,,,,,,,,2,,,65,0
35679,note_on,39,0,10,,,,,,,,7,,,58,0
35679,note_on,39,0,11,,,,,,,,7,,,46,0
35679,note_on,0,0,1,,,,,,,,0,,,82,0
35679,note_on,39,0,1,,,,,,,,0,,,89,0
35679,note_on,0,0,5,,,,,,,,4,,,58,0
35679,note_on,39,0,5,,,,,,,,4,,,65,0
35679,note_on,39,0,3,,,,,,,,2,,,77,0
35679,note_on,39,0,4,,,,,,,,3,,,46,0
35679,note_on,19,0,9,,,,,,,,7,,,65,0
35679,note_on,0,0,6,,,,,,,,5,,,70,0
35679,note_on,39,0,6,,,,,,,,5,,,58,0
35680,note_on,1,0,4,,,,,,,,3,,,65,127
35680,note_on,1,0,5,,,,,,,,4,,,58,127
35680,note_on,1,0,6,,,,,,,,5,,,70,127
35680,note_on,0,0,6,,,,,,,,5,,,58,127
35680,note_on,0,0,3,,,,,,,,2,,,68,127
35680,note_on,1,0,3,,,,,,,,2,,,77,127
35680,note_on,1,0,12,,,,,,,,7,,,53,127
35680,note_on,21,0,2,,,,,,,,1,,,80,127
35680,note_on,0,0,2,,,,,,,,1,,,77,127
35680,note_on,0,0,5,,,,,,,,4,,,68,127
35680,note_on,1,0,1,,,,,,,,0,,,92,127
35680,note_on,1,0,9,,,,,,,,7,,,80,127
35680,note_on,1,0,10,,,,,,,,7,,,65,127
35680,note_on,0,0,5,,,,,,,,4,,,65,127
35680,note_on,1,0,7,,,,,,,,6,,,46,127
35680,note_on,1,0,11,,,,,,,,7,,,65,127
35680,note_on,1,0,8,,,,,,,,7,,,80,127
35680,note_on,0,0,1,,,,,,,,0,,,82,127
35699,note_on,19,0,2,,,,,,,,1,,,77,0
35699,note_on,19,0,7,,,,,,,,6,,,46,0
35699,note_on,19,0,9,,,,,,,,7,,,80,0
35699,note_on,19,0,8,,,,,,,,7,,,80,0
35699,note_on,0,0,2,,,,,,,,1,,,80,0
35700,note_on,1,0,7,,,,,,,,6,,,46,127
35700,note_on,1,0,9,,,,,,,,7,,,80,127
35700,note_on,1,0,8,,,,,,,,7,,,80,127
35719,note_on,39,0,10,,,,,,,,7,,,65,0
35719,note_on,39,0,5,,,,,,,,4,,,65,0
35719,note_on,39,0,4,,,,,,,,3,,,65,0
35719,note_on,0,0,6,,,,,,,,5,,,70,0
35719,note_on,19,0,9,,,,,,,,7,,,80,0
35719,note_on,0,0,5,,,,,,,,4,,,68,0
35719,note_on,39,0,1,,,,,,,,0,,,82,0
35719,note_on,0,0,1,,,,,,,,0,,,92,0
35719,note_on,39,0,11,,,,,,,,7,,,65,0
35719,note_on,19,0,8,,,,,,,,7,,,80,0
35719,note_on,39,0,6,,,,,,,,5,,,58,0
35719,note_on,0,0,5,,,,,,,,4,,,58,0
35719,note_on,39,0,12,,,,,,,,7,,,53,0
35719,note_on,19,0,7,,,,,,,,6,,,46,0
35719,note_on,0,0,3,,,,,,,,2,,,77,0
35719,note_on,39,0,3,,,,,,,,2,,,68,0
35720,note_on,1,0,7,,,,,,,,6,,,46,127
35720,note_on,0,0,1,,,,,,,,0,,,92,127
35720,note_on,1,0,1,,,,,,,,0,,,82,127
35720,note_on,21,0,2,,,,,,,,1,,,77,127
35720,note_on,1,0,12,,,,,,,,7,,,50,127
35720,note_on,1,0,4,,,,,,,,3,,,62,127
35720,note_on,1,0,9,,,,,,,,7,,,77,127
35720,note_on,0,0,6,,,,,,,,5,,,58,127
35720,note_on,1,0,6,,,,,,,,5,,,70,127
35720,note_on,0,0,3,,,,,,,,2,,,68,127
35720,note_on,1,0,3,,,,,,,,2,,,77,127
35720,note_on,0,0,2,,,,,,,,1,,,80,127
35720,note_on,1,0,10,,,,,,,,7,,,62,127
35720,note_on,1,0,8,,,,,,,,7,,,80,127
35720,note_on,0,0,5,,,,,,,,4,,,68,127
35720,note_on,1,0,11,,,,,,,,7,,,62,127
35720,note_on,1,0,5,,,,,,,,4,,,58,127
35720,note_on,0,0,5,,,,,,,,4,,,65,127
35739,note_on,0,0,2,,,,,,,,1,,,77,0
35739,note_on,19,0,9,,,,,,,,7,,,77,0
35739,note_on,19,0,2,,,,,,,,1,,,80,0
35739,note_on,19,0,8,,,,,,,,7,,,80,0
35739,note_on,19,0,7,,,,,,,,6,,,46,0
35740,note_on,1,0,7,,,,,,,,6,,,46,127
35740,note_on,1,0,9,,,,,,,,7,,,77,127
35740,note_on,1,0,8,,,,,,,,7,,,80,127
35759,note_on,19,0,9,,,,,,,,7,,,77,0
35759,note_on,0,0,6,,,,,,,,5,,,70,0
35759,note_on,39,0,4,,,,,,,,3,,,62,0
35759,note_on,39,0,3,,,,,,,,2,,,68,0
35759,note_on,0,0,5,,,,,,,,4,,,58,0
35759,note_on,0,0,5,,,,,,,,4,,,65,0
35759,note_on,19,0,8,,,,,,,,7,,,80,0
35759,note_on,39,0,12,,,,,,,,7,,,50,0
35759,note_on,39,0,6,,,,,,,,5,,,58,0
35759,note_on,19,0,7,,,,,,,,6,,,46,0
35759,note_on,39,0,11,,,,,,,,7,,,62,0
35759,note_on,39,0,10,,,,,,,,7,,,62,0
35759,note_on,0,0,3,,,,,,,,2,,,77,0
35759,note_on,39,0,1,,,,,,,,0,,,92,0
35759,note_on,0,0,1,,,,,,,,0,,,82,0
35759,note_on,39,0,5,,,,,,,,4,,,68,0
35760,note_on,1,0,4,,,,,,,,3,,,58,127
35760,note_on,1,0,11,,,,,,,,7,,,58,127
35760,note_on,1,0,7,,,,,,,,6,,,46,127
35760,note_on,0,0,6,,,,,,,,5,,,58,127
35760,note_on,1,0,6,,,,,,,,5,,,70,127
35760,note_on,1,0,1,,,,,,,,0,,,82,127
35760,note_on,0,0,1,,,,,,,,0,,,92,127
35760,note_on,1,0,12,,,,,,,,7,,,46,127
35760,note_on,0,0,2,,,,,,,,1,,,80,127
35760,note_on,1,0,8,,,,,,,,7,,,80,127
35760,note_on,1,0,9,,,,,,,,7,,,74,127
35760,note_on,0,0,3,,,,,,,,2,,,68,127
35760,note_on,1,0,3,,,,,,,,2,,,77,127
35760,note_on,1,0,10,,,,,,,,7,,,58,127
35760,note_on,0,0,5,,,,,,,,4,,,65,127
35760,note_on,21,0,2,,,,,,,,1,,,77,127
35760,note_on,1,0,5,,,,,,,,4,,,58,127
35760,note_on,0,0,5,,,,,,,,4,,,68,127
35779,note_on,19,0,2,,,,,,,,1,,,80,0
35779,note_on,19,0,8,,,,,,,,7,,,80,0
35779,note_on,0,0,2,,,,,,,,1,,,77,0
35779,note_on,19,0,9,,,,,,,,7,,,74,0
35779,note_on,19,0,7,,,,,,,,6,,,46,0
35780,note_on,1,0,8,,,,,,,,7,,,80,127
35780,note_on,1,0,9,,,,,,,,7,,,74,127
35780,note_on,1,0,7,,,,,,,,6,,,46,127
35799,note_on,39,0,11,,,,,,,,7,,,58,0
35799,note_on,39,0,1,,,,,,,,0,,,92,0
35799,note_on,0,0,5,,,,,,,,4,,,68,0
35799,note_on,0,0,5,,,,,,,,4,,,58,0
35799,note_on,39,0,3,,,,,,,,2,,,68,0
35799,note_on,0,0,3,,,,,,,,2,,,77,0
35799,note_on,0,0,1,,,,,,,,0,,,82,0
35799,note_on,39,0,5,,,,,,,,4,,,65,0
35799,note_on,39,0,10,,,,,,,,7,,,58,0
35799,note_on,19,0,8,,,,,,,,7,,,80,0
35799,note_on,39,0,6,,,,,,,,5,,,58,0
35799,note_on,39,0,4,,,,,,,,3,,,58,0
35799,note_on,0,0,6,,,,,,,,5,,,70,0
35799,note_on,19,0,7,,,,,,,,6,,,46,0
35799,note_on,19,0,9,,,,,,,,7,,,74,0
35799,note_on,39,0,12,,,,,,,,7,,,46,0
35800,note_on,1,0,11,,,,,,,,7,,,60,127
35800,note_on,0,0,3,,,,,,,,2,,,67,127
35800,note_on,1,0,9,,,,,,,,7,,,75,127
35800,note_on,21,0,2,,,,,,,,1,,,75,127
35800,note_on,1,0,7,,,,,,,,6,,,46,127
35800,note_on,1,0,4,,,,,,,,3,,,60,127
35800,note_on,0,0,5,,,,,,,,4,,,67,127
35800,note_on,0,0,1,,,,,,,,0,,,91,127
35800,note_on,1,0,1,,,,,,,,0,,,82,127
35800,note_on,0,0,5,,,,,,,,4,,,63,127
35800,note_on,0,0,6,,,,,,,,5,,,58,127
35800,note_on,1,0,5,,,,,,,,4,,,58,127
35800,note_on,1,0,6,,,,,,,,5,,,70,127
35800,note_on,1,0,10,,,,,,,,7,,,60,127
35800,note_on,1,0,12,,,,,,,,7,,,48,127
35800,note_on,0,0,2,,,,,,,,1,,,79,127
35800,note_on,1,0,3,,,,,,,,2,,,75,127
35800,note_on,1,0,8,,,,,,,,7,,,79,127
35819,note_on,19,0,8,,,,,,,,7,,,79,0
35819,note_on,19,0,2,,,,,,,,1,,,79,0
35819,note_on,19,0,9,,,,,,,,7,,,75,0
35819,note_on,0,0,2,,,,,,,,1,,,75,0
35819,note_on,19,0,7,,,,,,,,6,,,46,0
35820,note_on,1,0,9,,,,,,,,7,,,75,127
35820,note_on,1,0,8,,,,,,,,7,,,79,127
35820,note_on,1,0,7,,,,,,,,6,,,46,127
35839,note_on,39,0,3,,,,,,,,2,,,67,0
35839,note_on,19,0,8,,,,,,,,7,,,79,0
35839,note_on,0,0,3,,,,,,,,2,,,75,0
35839,note_on,39,0,5,,,,,,,,4,,,67,0
35839,note_on,39,0,4,,,,,,,,3,,,60,0
35839,note_on,39,0,6,,,,,,,,5,,,58,0
35839,note_on,0,0,5,,,,,,,,4,,,63,0
35839,note_on,39,0,12,,,,,,,,7,,,48,0
35839,note_on,19,0,7,,,,,,,,6,,,46,0
35839,note_on,39,0,1,,,,,,,,0,,,91,0
35839,note_on,0,0,1,,,,,,,,0,,,82,0
35839,note_on,39,0,11,,,,,,,,7,,,60,0
35839,note_on,0,0,6,,,,,,,,5,,,70,0
35839,note_on,19,0,9,,,,,,,,7,,,75,0
35839,note_on,39,0,10,,,,,,,,7,,,60,0
35839,note_on,0,0,5,,,,,,,,4,,,58,0
35840,note_on,1,0,10,,,,,,,,7,,,62,127
35840,note_on,1,0,7,,,,,,,,6,,,46,127
35840,note_on,0,0,5,,,,,,,,4,,,58,127
35840,note_on,1,0,12,,,,,,,,7,,,50,127
35840,note_on,1,0,5,,,,,,,,4,,,65,127
35840,note_on,1,0,8,,,,,,,,7,,,77,127
35840,note_on,1,0,4,,,,,,,,3,,,62,127
35840,note_on,1,0,11,,,,,,,,7,,,62,127
35840,note_on,0,0,3,,,,,,,,2,,,65,127
35840,note_on,0,0,1,,,,,,,,0,,,82,127
35840,note_on,0,0,6,,,,,,,,5,,,58,127
35840,note_on,0,0,2,,,,,,,,1,,,77,127
35840,note_on,21,0,2,,,,,,,,1,,,70,127
35840,note_on,1,0,6,,,,,,,,5,,,70,127
35840,note_on,1,0,9,,,,,,,,7,,,77,127
35840,note_on,1,0,1,,,,,,,,0,,,89,127
35840,note_on,1,0,3,,,,,,,,2,,,68,127
35859,note_on,19,0,9,,,,,,,,7,,,77,0
35859,note_on,0,0,2,,,,,,,,1,,,70,0
35859,note_on,19,0,7,,,,,,,,6,,,46,0
35859,note_on,19,0,2,,,,,,,,1,,,77,0
35859,note_on,19,0,8,,,,,,,,7,,,77,0
35860,note_on,1,0,7,,,,,,,,6,,,46,127
35860,note_on,1,0,9,,,,,,,,7,,,77,127
35860,note_on,1,0,8,,,,,,,,7,,,77,127
35879,note_on,19,0,9,,,,,,,,7,,,77,0
35879,note_on,0,0,3,,,,,,,,2,,,68,0
35879,note_on,39,0,12,,,,,,,,7,,,50,0
35879,note_on,0,0,5,,,,,,,,4,,,65,0
35879,note_on,39,0,5,,,,,,,,4,,,58,0
35879,note_on,39,0,10,,,,,,,,7,,,62,0
35879,note_on,19,0,7,,,,,,,,6,,,46,0
35879,note_on,19,0,8,,,,,,,,7,,,77,0
35879,note_on,39,0,4,,,,,,,,3,,,62,0
35879,note_on,39,0,6,,,,,,,,5,,,58,0
35879,note_on,0,0,6,,,,,,,,5,,,70,0
35879,note_on,0,0,1,,,,,,,,0,,,89,0
35879,note_on,39,0,1,,,,,,,,0,,,82,0
35879,note_on,39,0,3,,,,,,,,2,,,65,0
35879,note_on,39,0,11,,,,,,,,7,,,62,0
35880,note_on,0,0,1,,,,,,,,0,,,82,127
35880,note_on,1,0,12,,,,,,,,7,,,51,112
35880,note_on,1,0,10,,,,,,,,7,,,63,127
35880,note_on,1,0,1,,,,,,,,0,,,87,127
35880,note_on,1,0,5,,,,,,,,4,,,55,127
35880,note_on,0,0,5,,,,,,,,4,,,63,127
35880,note_on,1,0,9,,,,,,,,7,,,67,127
35880,note_on,1,0,8,,,,,,,,7,,,75,127
35880,note_on,0,0,2,,,,,,,,1,,,67,127
35880,note_on,1,0,7,,,,,,,,6,,,51,48
35880,note_on,1,0,4,,,,,,,,3,,,63,127
35880,note_on,1,0,6,,,,,,,,5,,,75,127
35880,note_on,0,0,6,,,,,,,,5,,,63,127
35880,note_on,1,0,11,,,,,,,,7,,,63,96
35880,note_on,21,0,2,,,,,,,,1,,,75,100
35899,note_on,19,0,2,,,,,,,,1,,,67,0
35899,note_on,0,0,2,,,,,,,,1,,,75,0
35919,note_on,39,0,5,,,,,,,,4,,,63,0
35919,note_on,0,0,5,,,,,,,,4,,,55,0
35919,note_on,39,0,7,,,,,,,,6,,,51,0
35919,note_on,39,0,10,,,,,,,,7,,,63,0
35919,note_on,39,0,12,,,,,,,,7,,,51,0
35919,note_on,39,0,4,,,,,,,,3,,,63,0
35919,note_on,39,0,6,,,,,,,,5,,,63,0
35919,note_on,0,0,6,,,,,,,,5,,,75,0
35919,note_on,0,0,1,,,,,,,,0,,,87,0
35919,note_on,39,0,8,,,,,,,,7,,,75,0
35919,note_on,39,0,9,,,,,,,,7,,,67,0
35919,note_on,39,0,11,,,,,,,,7,,,63,0
35919,note_on,39,0,1,,,,,,,,0,,,82,0
36000,note_on,81,0,8,,,,,,,,7,,,62,100
36000,note_on,0,0,8,,,,,,,,7,,,77,100
36000,note_on,0,0,8,,,,,,,,7,,,70,100
36000,note_on,0,0,6,,,,,,,,5,,,70,127
36000,note_on,81,0,9,,,,,,,,7,,,74,96
36000,note_on,81,0,4,,,,,,,,3,,,46,96
36000,note_on,0,0,9,,,,,,,,7,,,58,96
36000,note_on,0,0,9,,,,,,,,7,,,65,96
36000,note_on,0,0,5,,,,,,,,4,,,65,96
36000,note_on,81,0,7,,,,,,,,6,,,46,48
36000,note_on,0,0,2,,,,,,,,1,,,74,100
36000,note_on,81,0,12,,,,,,,,7,,,34,112
36000,note_on,81,0,10,,,,,,,,7,,,58,98
36000,note_on,81,0,1,,,,,,,,0,,,86,96
36000,note_on,0,0,1,,,,,,,,0,,,89,96
36000,note_on,81,0,5,,,,,,,,4,,,58,96
36000,note_on,81,0,6,,,,,,,,5,,,58,127
36000,note_on,101,0,2,,,,,,,,1,,,77,100
36000,note_on,81,0,11,,,,,,,,7,,,46,96
36019,note_on,0,0,2,,,,,,,,1,,,77,0
36019,note_on,19,0,2,,,,,,,,1,,,74,0
36039,note_on,39,0,11,,,,,,,,7,,,46,0
36039,note_on,39,0,9,,,,,,,,7,,,65,0
36039,note_on,39,0,1,,,,,,,,0,,,89,0
36039,note_on,0,0,9,,,,,,,,7,,,74,0
36039,note_on,39,0,10,,,,,,,,7,,,58,0
36039,note_on,39,0,12,,,,,,,,7,,,34,0
36039,note_on,0,0,1,,,,,,,,0,,,86,0
36039,note_on,0,0,9,,,,,,,,7,,,58,0
36039,note_on,39,0,8,,,,,,,,7,,,70,0
36039,note_on,39,0,7,,,,,,,,6,,,46,0
36039,note_on,39,0,4,,,,,,,,3,,,46,0
36039,note_on,0,0,8,,,,,,,,7,,,62,0
36039,note_on,39,0,5,,,,,,,,4,,,65,0
36039,note_on,0,0,5,,,,,,,,4,,,58,0
36039,note_on,0,0,8,,,,,,,,7,,,77,0
36039,note_on,0,0,6,,,,,,,,5,,,58,0
36039,note_on,39,0,6,,,,,,,,5,,,70,0
36120,note_on,81,0,9,,,,,,,,7,,,75,96
36120,note_on,0,0,2,,,,,,,,1,,,75,100
36120,note_on,101,0,2,,,,,,,,1,,,67,100
36120,note_on,81,0,8,,,,,,,,7,,,55,100
36120,note_on,81,0,7,,,,,,,,6,,,51,48
36120,note_on,81,0,6,,,,,,,,5,,,63,127
36120,note_on,81,0,4,,,,,,,,3,,,51,96
36120,note_on,0,0,5,,,,,,,,4,,,55,96
36120,note_on,0,0,8,,,,,,,,7,,,75,100
36120,note_on,81,0,1,,,,,,,,0,,,79,96
36120,note_on,0,0,8,,,,,,,,7,,,63,100
36120,note_on,81,0,12,,,,,,,,7,,,39,112
36120,note_on,0,0,1,,,,,,,,0,,,87,96
36120,note_on,81,0,11,,,,,,,,7,,,51,96
36120,note_on,81,0,5,,,,,,,,4,,,63,96
36120,note_on,0,0,9,,,,,,,,7,,,63,96
36120,note_on,0,0,9,,,,,,,,7,,,55,96
36120,note_on,81,0,10,,,,,,,,7,,,63,98
36139,note_on,19,0,2,,,,,,,,1,,,75,0
36139,note_on,0,0,2,,,,,,,,1,,,67,0
36159,note_on,39,0,6,,,,,,,,5,,,63,0
36159,note_on,0,0,8,,,,,,,,7,,,63,0
36159,note_on,39,0,10,,,,,,,,7,,,63,0
36159,note_on,39,0,12,,,,,,,,7,,,39,0
36159,note_on,39,0,5,,,,,,,,4,,,55,0
36159,note_on,39,0,8,,,,,,,,7,,,75,0
36159,note_on,0,0,8,,,,,,,,7,,,55,0
36159,note_on,39,0,11,,,,,,,,7,,,51,0
36159,note_on,0,0,9,,,,,,,,7,,,55,0
36159,note_on,39,0,9,,,,,,,,7,,,63,0
36159,note_on,0,0,5,,,,,,,,4,,,63,0
36159,note_on,39,0,1,,,,,,,,0,,,87,0
36159,note_on,39,0,7,,,,,,,,6,,,51,0
36159,note_on,39,0,4,,,,,,,,3,,,51,0
36159,note_on,0,0,1,,,,,,,,0,,,79,0
36159,note_on,0,0,9,,,,,,,,7,,,75,0
36160,note_on,1,0,12,,,,,,,,7,,,46,112
36160,note_on,1,0,10,,,,,,,,7,,,70,98
36160,note_on,1,0,11,,,,,,,,7,,,58,96
36160,note_on,1,0,4,,,,,,,,3,,,58,96
36199,note_on,39,0,12,,,,,,,,7,,,46,0
36199,note_on,39,0,11,,,,,,,,7,,,58,0
36199,note_on,39,0,4,,,,,,,,3,,,58,0
36199,note_on,39,0,10,,,,,,,,7,,,70,0
36200,note_on,1,0,10,,,,,,,,7,,,67,98
36200,note_on,1,0,11,,,,,,,,7,,,55,96
36200,note_on,1,0,12,,,,,,,,7,,,43,112
36200,note_on,1,0,4,,,,,,,,3,,,55,96
36239,note_on,39,0,10,,,,,,,,7,,,67,0
36239,note_on,39,0,11,,,,,,,,7,,,55,0
36239,note_on,39,0,12,,,,,,,,7,,,43,0
36239,note_on,39,0,4,,,,,,,,3,,,55,0
36240,note_on,1,0,10,,,,,,,,7,,,63,98
36240,note_on,1,0,11,,,,,,,,7,,,51,96
36240,note_on,1,0,12,,,,,,,,7,,,39,112
36240,note_on,1,0,4,,,,,,,,3,,,51,96
36279,note_on,39,0,12,,,,,,,,7,,,39,0
36279,note_on,39,0,4,,,,,,,,3,,,51,0
36279,note_on,39,0,11,,,,,,,,7,,,51,0
36279,note_on,39,0,10,,,,,,,,7,,,63,0
36320,note_on,161,0,5,,,,,,,,4,,,55,48
36320,note_on,0,0,5,,,,,,,,4,,,51,48
36320,note_on,0,0,5,,,,,,,,4,,,58,48
36359,note_on,0,0,5,,,,,,,,4,,,55,0
36359,note_on,39,0,5,,,,,,,,4,,,58,0
36359,note_on,0,0,5,,,,,,,,4,,,51,0
36360,note_on,1,0,5,,,,,,,,4,,,58,96
36360,note_on,0,0,5,,,,,,,,4,,,55,96
36360,note_on,0,0,5,,,,,,,,4,,,51,96
36559,note_on,0,0,5,,,,,,,,4,,,58,0
36559,note_on,0,0,5,,,,,,,,4,,,55,0
36559,note_on,199,0,5,,,,,,,,4,,,51,0
36560,note_on,0,0,5,,,,,,,,4,,,63,48
36560,note_on,1,0,5,,,,,,,,4,,,58,48
36560,note_on,0,0,5,,,,,,,,4,,,55,48
36599,note_on,0,0,5,,,,,,,,4,,,63,0
36599,note_on,0,0,5,,,,,,,,4,,,58,0
36599,note_on,39,0,5,,,,,,,,4,,,55,0
36600,note_on,1,0,5,,,,,,,,4,,,58,48
36600,note_on,0,0,5,,,,,,,,4,,,63,48
36600,note_on,0,0,5,,,,,,,,4,,,55,48
36679,note_on,0,0,5,,,,,,,,4,,,58,0
36679,note_on,79,0,5,,,,,,,,4,,,55,0
36679,note_on,0,0,5,,,,,,,,4,,,63,0
36680,note_on,0,0,5,,,,,,,,4,,,58,48
36680,note_on,1,0,5,,,,,,,,4,,,67,48
36680,note_on,0,0,5,,,,,,,,4,,,63,48
36719,note_on,39,0,5,,,,,,,,4,,,58,0
36719,note_on,0,0,5,,,,,,,,4,,,63,0
36719,note_on,0,0,5,,,,,,,,4,,,67,0
36720,note_on,1,0,5,,,,,,,,4,,,67,48
36720,note_on,0,0,5,,,,,,,,4,,,63,48
36720,note_on,0,0,5,,,,,,,,4,,,58,48
36799,note_on,0,0,5,,,,,,,,4,,,67,0
36799,note_on,79,0,5,,,,,,,,4,,,58,0
36799,note_on,0,0,5,,,,,,,,4,,,63,0
36800,note_on,0,0,5,,,,,,,,4,,,70,48
36800,note_on,0,0,5,,,,,,,,4,,,63,48
36800,note_on,1,0,5,,,,,,,,4,,,67,48
36839,note_on,39,0,5,,,,,,,,4,,,63,0
36839,note_on,0,0,5,,,,,,,,4,,,70,0
36839,note_on,0,0,5,,,,,,,,4,,,67,0
36840,note_on,0,0,5,,,,,,,,4,,,70,48
36840,note_on,1,0,5,,,,,,,,4,,,67,48
36840,note_on,0,0,5,,,,,,,,4,,,63,48
36919,note_on,0,0,5,,,,,,,,4,,,67,0
36919,note_on,0,0,5,,,,,,,,4,,,63,0
36919,note_on,79,0,5,,,,,,,,4,,,70,0
36920,note_on,1,0,5,,,,,,,,4,,,63,48
36920,note_on,0,0,5,,,,,,,,4,,,67,48
36920,note_on,0,0,5,,,,,,,,4,,,58,48
36959,note_on,39,0,5,,,,,,,,4,,,67,0
36959,note_on,0,0,5,,,,,,,,4,,,58,0
36959,note_on,0,0,5,,,,,,,,4,,,63,0
36960,note_on,1,0,5,,,,,,,,4,,,55,48
36960,note_on,0,0,5,,,,,,,,4,,,63,48
36999,note_on,39,0,5,,,,,,,,4,,,55,0
37000,note_on,1,0,5,,,,,,,,4,,,58,48
37019,note_on,19,0,5,,,,,,,,4,,,58,0
37020,note_on,1,0,5,,,,,,,,4,,,55,48
37039,note_on,19,0,5,,,,,,,,4,,,55,0
37039,note_on,0,0,5,,,,,,,,4,,,63,0
37040,note_on,0,0,5,,,,,,,,4,,,67,48
37040,note_on,1,0,5,,,,,,,,4,,,51,48
37079,note_on,39,0,5,,,,,,,,4,,,67,0
37079,note_on,0,0,5,,,,,,,,4,,,51,0
37080,note_on,1,0,5,,,,,,,,4,,,46,48
37080,note_on,0,0,5,,,,,,,,4,,,65,48
37119,note_on,39,0,5,,,,,,,,4,,,65,0
37119,note_on,0,0,5,,,,,,,,4,,,46,0
37120,note_on,981,0,2,,,,,,,,1,,,79,48
37120,note_on,841,0,12,,,,,,,,7,,,39,47
37120,note_on,961,0,8,,,,,,,,7,,,67,49
37120,note_on,0,0,2,,,,,,,,1,,,75,48
37120,note_on,841,0,11,,,,,,,,7,,,51,33
37120,note_on,961,0,9,,,,,,,,7,,,63,47
37120,note_on,841,0,10,,,,,,,,7,,,58,48
37159,note_on,39,0,2,,,,,,,,1,,,75,0
37159,note_on,0,0,2,,,,,,,,1,,,79,0
37159,note_on,39,0,9,,,,,,,,7,,,63,0
37159,note_on,39,0,8,,,,,,,,7,,,67,0
37159,note_on,39,0,12,,,,,,,,7,,,39,0
37159,note_on,39,0,11,,,,,,,,7,,,51,0
37159,note_on,39,0,10,,,,,,,,7,,,58,0
37160,note_on,1,0,11,,,,,,,,7,,,51,33
37160,note_on,1,0,9,,,,,,,,7,,,63,47
37160,note_on,1,0,2,,,,,,,,1,,,79,48
37160,note_on,0,0,2,,,,,,,,1,,,75,48
37160,note_on,1,0,8,,,,,,,,7,,,67,49
37160,note_on,1,0,12,,,,,,,,7,,,39,47
37160,note_on,1,0,10,,,,,,,,7,,,58,48
37199,note_on,39,0,11,,,,,,,,7,,,51,0
37199,note_on,39,0,2,,,,,,,,1,,,75,0
37199,note_on,0,0,2,,,,,,,,1,,,79,0
37199,note_on,39,0,9,,,,,,,,7,,,63,0
37199,note_on,39,0,12,,,,,,,,7,,,39,0
37199,note_on,39,0,10,,,,,,,,7,,,58,0
37199,note_on,39,0,8,,,,,,,,7,,,67,0
37200,note_on,1,0,2,,,,,,,,1,,,77,48
37200,note_on,0,0,2,,,,,,,,1,,,74,48
37200,note_on,1,0,8,,,,,,,,7,,,65,49
37200,note_on,1,0,12,,,,,,,,7,,,34,47
37200,note_on,1,0,9,,,,,,,,7,,,62,47
37200,note_on,1,0,11,,,,,,,,7,,,46,33
37200,note_on,1,0,10,,,,,,,,7,,,58,48
37239,note_on,39,0,8,,,,,,,,7,,,65,0
37239,note_on,0,0,2,,,,,,,,1,,,77,0
37239,note_on,39,0,12,,,,,,,,7,,,34,0
37239,note_on,39,0,10,,,,,,,,7,,,58,0
37239,note_on,39,0,9,,,,,,,,7,,,62,0
37239,note_on,39,0,2,,,,,,,,1,,,74,0
37239,note_on,39,0,11,,,,,,,,7,,,46,0
37280,note_on,161,0,5,,,,,,,,4,,,51,47
37299,note_on,19,0,5,,,,,,,,4,,,51,0
37320,note_on,21,0,5,,,,,,,,4,,,51,50
37360,note_on,40,0,5,,,,,,,,4,,,46,53
37362,note_on,2,0,5,,,,,,,,4,,,51,0
37399,note_on,37,0,5,,,,,,,,4,,,46,0
37400,note_on,0,0,5,,,,,,,,4,,,55,56
37400,note_on,1,0,5,,,,,,,,4,,,58,56
37419,note_on,19,0,5,,,,,,,,4,,,55,0
37419,note_on,0,0,5,,,,,,,,4,,,58,0
37440,note_on,0,0,5,,,,,,,,4,,,55,60
37440,note_on,21,0,5,,,,,,,,4,,,58,60
37479,note_on,39,0,5,,,,,,,,4,,,55,0
37480,note_on,1,0,5,,,,,,,,4,,,55,63
37480,note_on,0,0,5,,,,,,,,4,,,51,63
37482,note_on,2,0,5,,,,,,,,4,,,58,0
37519,note_on,37,0,5,,,,,,,,4,,,51,0
37519,note_on,0,0,5,,,,,,,,4,,,55,0
37520,note_on,1,0,5,,,,,,,,4,,,67,66
37520,note_on,0,0,5,,,,,,,,4,,,58,66
37520,note_on,0,0,5,,,,,,,,4,,,63,66
37539,note_on,0,0,5,,,,,,,,4,,,67,0
37539,note_on,0,0,5,,,,,,,,4,,,63,0
37539,note_on,19,0,5,,,,,,,,4,,,58,0
37560,note_on,0,0,5,,,,,,,,4,,,58,69
37560,note_on,21,0,5,,,,,,,,4,,,67,69
37560,note_on,0,0,5,,,,,,,,4,,,63,69
37599,note_on,0,0,5,,,,,,,,4,,,63,0
37599,note_on,39,0,5,,,,,,,,4,,,58,0
37600,note_on,0,0,5,,,,,,,,4,,,58,72
37600,note_on,0,0,5,,,,,,,,4,,,55,72
37600,note_on,1,0,5,,,,,,,,4,,,63,72
37602,note_on,2,0,5,,,,,,,,4,,,67,0
37639,note_on,37,0,5,,,,,,,,4,,,63,0
37639,note_on,0,0,5,,,,,,,,4,,,58,0
37639,note_on,0,0,5,,,,,,,,4,,,55,0
37640,note_on,1,0,5,,,,,,,,4,,,70,76
37640,note_on,0,0,5,,,,,,,,4,,,63,76
37640,note_on,0,0,5,,,,,,,,4,,,67,76
37659,note_on,19,0,5,,,,,,,,4,,,63,0
37659,note_on,0,0,5,,,,,,,,4,,,67,0
37659,note_on,0,0,5,,,,,,,,4,,,70,0
37680,note_on,21,0,5,,,,,,,,4,,,70,79
37680,note_on,0,0,5,,,,,,,,4,,,67,79
37680,note_on,0,0,5,,,,,,,,4,,,63,79
37719,note_on,39,0,5,,,,,,,,4,,,63,0
37720,note_on,1,0,5,,,,,,,,4,,,63,82
37720,note_on,0,0,5,,,,,,,,4,,,58,82
37722,note_on,2,0,5,,,,,,,,4,,,67,0
37759,note_on,37,0,5,,,,,,,,4,,,70,0
37759,note_on,0,0,5,,,,,,,,4,,,58,0
37759,note_on,0,0,5,,,,,,,,4,,,63,0
37760,note_on,0,0,5,,,,,,,,4,,,67,85
37760,note_on,1,0,5,,,,,,,,4,,,70,85
37779,note_on,19,0,5,,,,,,,,4,,,67,0
37800,note_on,21,0,5,,,,,,,,4,,,67,88
37839,note_on,0,0,5,,,,,,,,4,,,70,0
37839,note_on,39,0,5,,,,,,,,4,,,67,0
37840,note_on,1,0,5,,,,,,,,4,,,58,92
37859,note_on,19,0,5,,,,,,,,4,,,58,0
37860,note_on,1,0,5,,,,,,,,4,,,55,93
37879,note_on,19,0,5,,,,,,,,4,,,55,0
37880,note_on,0,0,5,,,,,,,,4,,,51,97
37880,note_on,0,0,5,,,,,,,,4,,,70,97
37880,note_on,1,0,5,,,,,,,,4,,,67,97
37919,note_on,39,0,5,,,,,,,,4,,,51,0
37919,note_on,0,0,5,,,,,,,,4,,,70,0
37919,note_on,0,0,5,,,,,,,,4,,,67,0
37920,note_on,1,0,5,,,,,,,,4,,,46,97
37920,note_on,0,0,5,,,,,,,,4,,,72,97
37920,note_on,0,0,5,,,,,,,,4,,,68,97
37959,note_on,0,0,5,,,,,,,,4,,,72,0
37959,note_on,39,0,5,,,,,,,,4,,,68,0
37959,note_on,0,0,5,,,,,,,,4,,,46,0
38000,note_on,0,0,5,,,,,,,,4,,,74,97
38000,note_on,41,0,5,,,,,,,,4,,,46,97
38000,note_on,0,0,5,,,,,,,,4,,,65,97
38039,note_on,0,0,5,,,,,,,,4,,,46,0
38039,note_on,0,0,5,,,,,,,,4,,,65,0
38039,note_on,39,0,5,,,,,,,,4,,,74,0
38040,note_on,1,0,5,,,,,,,,4,,,63,97
38040,note_on,0,0,5,,,,,,,,4,,,39,97
38040,note_on,0,0,5,,,,,,,,4,,,75,97
38079,note_on,39,0,5,,,,,,,,4,,,39,0
38079,note_on,0,0,5,,,,,,,,4,,,75,0
38079,note_on,0,0,5,,,,,,,,4,,,63,0
38080,note_on,841,0,2,,,,,,,,1,,,80,48
38080,note_on,0,0,2,,,,,,,,1,,,72,48
38080,note_on,841,0,8,,,,,,,,7,,,72,49
38080,note_on,1801,0,4,,,,,,,,3,,,60,48
38080,note_on,841,0,10,,,,,,,,7,,,58,49
38080,note_on,841,0,12,,,,,,,,7,,,34,48
38080,note_on,841,0,9,,,,,,,,7,,,68,47
38080,note_on,841,0,11,,,,,,,,7,,,46,33
38119,note_on,39,0,10,,,,,,,,7,,,58,0
38119,note_on,39,0,12,,,,,,,,7,,,34,0
38119,note_on,39,0,9,,,,,,,,7,,,68,0
38119,note_on,39,0,11,,,,,,,,7,,,46,0
38119,note_on,39,0,2,,,,,,,,1,,,72,0
38119,note_on,0,0,2,,,,,,,,1,,,80,0
38119,note_on,39,0,8,,,,,,,,7,,,72,0
38119,note_on,39,0,4,,,,,,,,3,,,60,0
38120,note_on,1,0,11,,,,,,,,7,,,46,33
38120,note_on,0,0,2,,,,,,,,1,,,74,48
38120,note_on,1,0,2,,,,,,,,1,,,77,48
38120,note_on,1,0,4,,,,,,,,3,,,58,48
38120,note_on,0,0,4,,,,,,,,3,,,62,48
38120,note_on,1,0,12,,,,,,,,7,,,34,48
38120,note_on,1,0,9,,,,,,,,7,,,65,47
38120,note_on,1,0,10,,,,,,,,7,,,58,49
38120,note_on,1,0,8,,,,,,,,7,,,74,49
38159,note_on,0,0,4,,,,,,,,3,,,58,0
38159,note_on,39,0,12,,,,,,,,7,,,34,0
38159,note_on,39,0,11,,,,,,,,7,,,46,0
38159,note_on,39,0,9,,,,,,,,7,,,65,0
38159,note_on,39,0,10,,,,,,,,7,,,58,0
38159,note_on,39,0,4,,,,,,,,3,,,62,0
38159,note_on,39,0,2,,,,,,,,1,,,74,0
38159,note_on,0,0,2,,,,,,,,1,,,77,0
38159,note_on,39,0,8,,,,,,,,7,,,74,0
38160,note_on,1,0,8,,,,,,,,7,,,75,49
38160,note_on,1,0,2,,,,,,,,1,,,79,48
38160,note_on,1,0,4,,,,,,,,3,,,51,48
38160,note_on,1,0,11,,,,,,,,7,,,51,33
38160,note_on,1,0,12,,,,,,,,7,,,39,48
38160,note_on,0,0,4,,,,,,,,3,,,63,48
38160,note_on,0,0,2,,,,,,,,1,,,75,48
38160,note_on,1,0,10,,,,,,,,7,,,58,49
38160,note_on,1,0,9,,,,,,,,7,,,67,47
38199,note_on,39,0,12,,,,,,,,7,,,39,0
38199,note_on,39,0,8,,,,,,,,7,,,75,0
38199,note_on,39,0,10,,,,,,,,7,,,58,0
38199,note_on,39,0,9,,,,,,,,7,,,67,0
38199,note_on,39,0,11,,,,,,,,7,,,51,0
38199,note_on,0,0,4,,,,,,,,3,,,51,0
38199,note_on,39,0,2,,,,,,,,1,,,75,0
38199,note_on,0,0,2,,,,,,,,1,,,79,0
38199,note_on,39,0,4,,,,,,,,3,,,63,0
38240,note_on,0,0,5,,,,,,,,4,,,58,48
38240,note_on,0,0,5,,,,,,,,4,,,51,48
38240,note_on,161,0,5,,,,,,,,4,,,55,48
38279,note_on,39,0,5,,,,,,,,4,,,58,0
38279,note_on,0,0,5,,,,,,,,4,,,51,0
38279,note_on,0,0,5,,,,,,,,4,,,55,0
38280,note_on,0,0,5,,,,,,,,4,,,55,96
38280,note_on,0,0,5,,,,,,,,4,,,51,96
38280,note_on,1,0,5,,,,,,,,4,,,58,96
38479,note_on,199,0,5,,,,,,,,4,,,51,0
38479,note_on,0,0,5,,,,,,,,4,,,55,0
38479,note_on,0,0,5,,,,,,,,4,,,58,0
38480,note_on,0,0,5,,,,,,,,4,,,63,48
38480,note_on,0,0,5,,,,,,,,4,,,55,48
38480,note_on,1,0,5,,,,,,,,4,,,58,48
38519,note_on,0,0,5,,,,,,,,4,,,63,0
38519,note_on,39,0,5,,,,,,,,4,,,55,0
38519,note_on,0,0,5,,,,,,,,4,,,58,0
38520,note_on,0,0,5,,,,,,,,4,,,63,48
38520,note_on,1,0,5,,,,,,,,4,,,58,48
38520,note_on,0,0,5,,,,,,,,4,,,55,48
38599,note_on,0,0,5,,,,,,,,4,,,63,0
38599,note_on,79,0,5,,,,,,,,4,,,55,0
38599,note_on,0,0,5,,,,,,,,4,,,58,0
38600,note_on,1,0,5,,,,,,,,4,,,67,48
38600,note_on,0,0,5,,,,,,,,4,,,63,48
38600,note_on,0,0,5,,,,,,,,4,,,58,48
38639,note_on,39,0,5,,,,,,,,4,,,58,0
38639,note_on,0,0,5,,,,,,,,4,,,63,0
38639,note_on,0,0,5,,,,,,,,4,,,67,0
38640,note_on,1,0,5,,,,,,,,4,,,67,48
38640,note_on,0,0,5,,,,,,,,4,,,63,48
38640,note_on,0,0,5,,,,,,,,4,,,58,48
38719,note_on,79,0,5,,,,,,,,4,,,58,0
38719,note_on,0,0,5,,,,,,,,4,,,63,0
38719,note_on,0,0,5,,,,,,,,4,,,67,0
38720,note_on,1,0,5,,,,,,,,4,,,67,48
38720,note_on,0,0,5,,,,,,,,4,,,70,48
38720,note_on,0,0,5,,,,,,,,4,,,63,48
38759,note_on,39,0,5,,,,,,,,4,,,63,0
38759,note_on,0,0,5,,,,,,,,4,,,70,0
38759,note_on,0,0,5,,,,,,,,4,,,67,0
38760,note_on,1,0,5,,,,,,,,4,,,67,48
38760,note_on,0,0,5,,,,,,,,4,,,70,48
38760,note_on,0,0,5,,,,,,,,4,,,63,48
38839,note_on,0,0,5,,,,,,,,4,,,67,0
38839,note_on,0,0,5,,,,,,,,4,,,63,0
38839,note_on,79,0,5,,,,,,,,4,,,70,0
38840,note_on,0,0,5,,,,,,,,4,,,58,48
38840,note_on,1,0,5,,,,,,,,4,,,63,48
38840,note_on,0,0,5,,,,,,,,4,,,67,48
38879,note_on,39,0,5,,,,,,,,4,,,67,0
38879,note_on,0,0,5,,,,,,,,4,,,58,0
38879,note_on,0,0,5,,,,,,,,4,,,63,0
38880,note_on,0,0,5,,,,,,,,4,,,63,48
38880,note_on,1,0,5,,,,,,,,4,,,55,48
38919,note_on,39,0,5,,,,,,,,4,,,55,0
38920,note_on,1,0,5,,,,,,,,4,,,58,48
38939,note_on,19,0,5,,,,,,,,4,,,58,0
38940,note_on,1,0,5,,,,,,,,4,,,55,48
38959,note_on,19,0,5,,,,,,,,4,,,55,0
38959,note_on,0,0,5,,,,,,,,4,,,63,0
38960,note_on,0,0,5,,,,,,,,4,,,67,48
38960,note_on,1,0,5,,,,,,,,4,,,51,48
38999,note_on,0,0,5,,,,,,,,4,,,51,0
38999,note_on,39,0,5,,,,,,,,4,,,67,0
39000,note_on,0,0,5,,,,,,,,4,,,65,48
39000,note_on,1,0,5,,,,,,,,4,,,46,48
39039,note_on,0,0,5,,,,,,,,4,,,46,0
39039,note_on,39,0,5,,,,,,,,4,,,65,0
39040,note_on,841,0,9,,,,,,,,7,,,63,47
39040,note_on,841,0,12,,,,,,,,7,,,39,49
39040,note_on,841,0,10,,,,,,,,7,,,58,49
39040,note_on,841,0,11,,,,,,,,7,,,51,33
39040,note_on,0,0,1,,,,,,,,0,,,79,48
39040,note_on,841,0,8,,,,,,,,7,,,67,49
39040,note_on,2881,0,1,,,,,,,,0,,,75,48
39079,note_on,39,0,8,,,,,,,,7,,,67,0
39079,note_on,39,0,12,,,,,,,,7,,,39,0
39079,note_on,0,0,1,,,,,,,,0,,,75,0
39079,note_on,39,0,1,,,,,,,,0,,,79,0
39079,note_on,39,0,11,,,,,,,,7,,,51,0
39079,note_on,39,0,10,,,,,,,,7,,,58,0
39079,note_on,39,0,9,,,,,,,,7,,,63,0
39080,note_on,1,0,11,,,,,,,,7,,,51,33
39080,note_on,0,0,1,,,,,,,,0,,,75,48
39080,note_on,1,0,1,,,,,,,,0,,,79,48
39080,note_on,1,0,12,,,,,,,,7,,,39,50
39080,note_on,1,0,10,,,,,,,,7,,,58,49
39080,note_on,1,0,9,,,,,,,,7,,,63,47
39080,note_on,1,0,8,,,,,,,,7,,,67,49
39119,note_on,39,0,8,,,,,,,,7,,,67,0
39119,note_on,39,0,10,,,,,,,,7,,,58,0
39119,note_on,39,0,9,,,,,,,,7,,,63,0
39119,note_on,39,0,11,,,,,,,,7,,,51,0
39119,note_on,39,0,12,,,,,,,,7,,,39,0
39119,note_on,39,0,1,,,,,,,,0,,,75,0
39119,note_on,0,0,1,,,,,,,,0,,,79,0
39120,note_on,1,0,12,,,,,,,,7,,,34,51
39120,note_on,0,0,1,,,,,,,,0,,,74,48
39120,note_on,1,0,1,,,,,,,,0,,,77,48
39120,note_on,1,0,9,,,,,,,,7,,,62,47
39120,note_on,1,0,11,,,,,,,,7,,,46,33
39120,note_on,1,0,10,,,,,,,,7,,,58,49
39120,note_on,1,0,8,,,,,,,,7,,,65,49
39159,note_on,39,0,9,,,,,,,,7,,,62,0
39159,note_on,39,0,8,,,,,,,,7,,,65,0
39159,note_on,39,0,11,,,,,,,,7,,,46,0
39159,note_on,39,0,12,,,,,,,,7,,,34,0
39159,note_on,0,0,1,,,,,,,,0,,,77,0
39159,note_on,39,0,1,,,,,,,,0,,,74,0
39159,note_on,39,0,10,,,,,,,,7,,,58,0
39200,note_on,161,0,5,,,,,,,,4,,,51,49
39219,note_on,19,0,5,,,,,,,,4,,,51,0
39240,note_on,21,0,5,,,,,,,,4,,,51,52
39280,note_on,40,0,5,,,,,,,,4,,,46,55
39282,note_on,2,0,5,,,,,,,,4,,,51,0
39319,note_on,37,0,5,,,,,,,,4,,,46,0
39320,note_on,1,0,5,,,,,,,,4,,,58,58
39320,note_on,0,0,5,,,,,,,,4,,,55,58
39339,note_on,19,0,5,,,,,,,,4,,,55,0
39339,note_on,0,0,5,,,,,,,,4,,,58,0
39360,note_on,21,0,5,,,,,,,,4,,,58,61
39360,note_on,0,0,5,,,,,,,,4,,,55,61
39399,note_on,39,0,5,,,,,,,,4,,,55,0
39400,note_on,1,0,5,,,,,,,,4,,,55,65
39400,note_on,0,0,5,,,,,,,,4,,,51,65
39402,note_on,2,0,5,,,,,,,,4,,,58,0
39439,note_on,0,0,5,,,,,,,,4,,,55,0
39439,note_on,37,0,5,,,,,,,,4,,,51,0
39440,note_on,1,0,5,,,,,,,,4,,,67,68
39440,note_on,0,0,5,,,,,,,,4,,,63,68
39440,note_on,0,0,5,,,,,,,,4,,,58,68
39459,note_on,0,0,5,,,,,,,,4,,,63,0
39459,note_on,19,0,5,,,,,,,,4,,,58,0
39459,note_on,0,0,5,,,,,,,,4,,,67,0
39480,note_on,0,0,5,,,,,,,,4,,,63,71
39480,note_on,21,0,5,,,,,,,,4,,,67,71
39480,note_on,0,0,5,,,,,,,,4,,,58,71
39519,note_on,39,0,5,,,,,,,,4,,,58,0
39519,note_on,0,0,5,,,,,,,,4,,,63,0
39520,note_on,0,0,5,,,,,,,,4,,,55,74
39520,note_on,1,0,5,,,,,,,,4,,,63,74
39520,note_on,0,0,5,,,,,,,,4,,,58,74
39522,note_on,2,0,5,,,,,,,,4,,,67,0
39559,note_on,0,0,5,,,,,,,,4,,,55,0
39559,note_on,0,0,5,,,,,,,,4,,,58,0
39559,note_on,37,0,5,,,,,,,,4,,,63,0
39560,note_on,0,0,5,,,,,,,,4,,,67,77
39560,note_on,1,0,5,,,,,,,,4,,,70,77
39560,note_on,0,0,5,,,,,,,,4,,,63,77
39579,note_on,0,0,5,,,,,,,,4,,,67,0
39579,note_on,19,0,5,,,,,,,,4,,,63,0
39579,note_on,0,0,5,,,,,,,,4,,,70,0
39600,note_on,0,0,5,,,,,,,,4,,,67,80
39600,note_on,21,0,5,,,,,,,,4,,,70,80
39600,note_on,0,0,5,,,,,,,,4,,,63,80
39639,note_on,39,0,5,,,,,,,,4,,,63,0
39640,note_on,1,0,5,,,,,,,,4,,,63,84
39640,note_on,0,0,5,,,,,,,,4,,,58,84
39642,note_on,2,0,5,,,,,,,,4,,,67,0
39679,note_on,37,0,5,,,,,,,,4,,,70,0
39679,note_on,0,0,5,,,,,,,,4,,,63,0
39679,note_on,0,0,5,,,,,,,,4,,,58,0
39680,note_on,0,0,5,,,,,,,,4,,,67,87
39680,note_on,1,0,5,,,,,,,,4,,,70,87
39699,note_on,19,0,5,,,,,,,,4,,,67,0
39720,note_on,21,0,5,,,,,,,,4,,,67,90
39759,note_on,39,0,5,,,,,,,,4,,,67,0
39759,note_on,0,0,5,,,,,,,,4,,,70,0
39760,note_on,1,0,5,,,,,,,,4,,,58,93
39779,note_on,19,0,5,,,,,,,,4,,,58,0
39780,note_on,1,0,5,,,,,,,,4,,,55,95
39799,note_on,19,0,5,,,,,,,,4,,,55,0
39800,note_on,0,0,5,,,,,,,,4,,,51,96
39800,note_on,0,0,5,,,,,,,,4,,,70,96
39800,note_on,1,0,5,,,,,,,,4,,,67,96
39839,note_on,39,0,5,,,,,,,,4,,,51,0
39839,note_on,0,0,5,,,,,,,,4,,,70,0
39839,note_on,0,0,5,,,,,,,,4,,,67,0
39840,note_on,1,0,5,,,,,,,,4,,,46,96
39840,note_on,0,0,5,,,,,,,,4,,,72,96
39840,note_on,0,0,5,,,,,,,,4,,,68,96
39879,note_on,0,0,5,,,,,,,,4,,,46,0
39879,note_on,39,0,5,,,,,,,,4,,,68,0
39879,note_on,0,0,5,,,,,,,,4,,,72,0
39880,note_on,721,0,8,,,,,,,,7,,,68,49
39880,note_on,721,0,10,,,,,,,,7,,,58,49
39880,note_on,721,0,11,,,,,,,,7,,,46,33
39880,note_on,721,0,12,,,,,,,,7,,,34,47
39880,note_on,721,0,9,,,,,,,,7,,,65,47
39919,note_on,39,0,11,,,,,,,,7,,,46,0
39919,note_on,39,0,12,,,,,,,,7,,,34,0
39919,note_on,39,0,10,,,,,,,,7,,,58,0
39919,note_on,39,0,8,,,,,,,,7,,,68,0
39919,note_on,39,0,9,,,,,,,,7,,,65,0
39920,note_on,41,0,5,,,,,,,,4,,,46,96
39920,note_on,0,0,5,,,,,,,,4,,,65,96
39920,note_on,0,0,5,,,,,,,,4,,,74,96
39920,note_on,1,0,10,,,,,,,,7,,,58,49
39920,note_on,1,0,9,,,,,,,,7,,,65,47
39920,note_on,1,0,12,,,,,,,,7,,,34,47
39920,note_on,1,0,11,,,,,,,,7,,,46,33
39920,note_on,1,0,8,,,,,,,,7,,,68,49
39959,note_on,39,0,5,,,,,,,,4,,,74,0
39959,note_on,0,0,5,,,,,,,,4,,,65,0
39959,note_on,39,0,9,,,,,,,,7,,,65,0
39959,note_on,0,0,5,,,,,,,,4,,,46,0
39959,note_on,39,0,11,,,,,,,,7,,,46,0
39959,note_on,39,0,12,,,,,,,,7,,,34,0
39959,note_on,39,0,8,,,,,,,,7,,,68,0
39959,note_on,39,0,10,,,,,,,,7,,,58,0
39960,note_on,0,0,5,,,,,,,,4,,,75,96
39960,note_on,0,0,5,,,,,,,,4,,,63,96
39960,note_on,1,0,5,,,,,,,,4,,,39,96
39960,note_on,1,0,8,,,,,,,,7,,,67,49
39960,note_on,1,0,9,,,,,,,,7,,,63,47
39960,note_on,1,0,10,,,,,,,,7,,,58,49
39960,note_on,1,0,12,,,,,,,,7,,,39,47
39960,note_on,1,0,11,,,,,,,,7,,,51,33
39999,note_on,0,0,5,,,,,,,,4,,,63,0
39999,note_on,39,0,8,,,,,,,,7,,,67,0
39999,note_on,0,0,5,,,,,,,,4,,,39,0
39999,note_on,39,0,5,,,,,,,,4,,,75,0
39999,note_on,39,0,10,,,,,,,,7,,,58,0
39999,note_on,39,0,9,,,,,,,,7,,,63,0
39999,note_on,39,0,12,,,,,,,,7,,,39,0
39999,note_on,39,0,11,,,,,,,,7,,,51,0
40040,note_on,41,0,9,,,,,,,,7,,,63,95
40040,note_on,41,0,10,,,,,,,,7,,,51,96
40040,note_on,0,0,3,,,,,,,,2,,,63,95
40040,note_on,4161,0,3,,,,,,,,2,,,75,95
40040,note_on,41,0,8,,,,,,,,7,,,63,95
40040,note_on,881,0,1,,,,,,,,0,,,87,96
40059,note_on,19,0,8,,,,,,,,7,,,63,0
40059,note_on,19,0,10,,,,,,,,7,,,51,0
40059,note_on,19,0,9,,,,,,,,7,,,63,0
40079,note_on,39,0,1,,,,,,,,0,,,87,0
40079,note_on,0,0,3,,,,,,,,2,,,75,0
40079,note_on,39,0,3,,,,,,,,2,,,63,0
40080,note_on,21,0,8,,,,,,,,7,,,68,95
40080,note_on,21,0,10,,,,,,,,7,,,56,96
40080,note_on,0,0,3,,,,,,,,2,,,75,95
40080,note_on,1,0,3,,,,,,,,2,,,63,95
40080,note_on,1,0,1,,,,,,,,0,,,87,96
40080,note_on,21,0,9,,,,,,,,7,,,68,95
40120,note_on,40,0,9,,,,,,,,7,,,63,95
40120,note_on,40,0,8,,,,,,,,7,,,63,95
40120,note_on,40,0,10,,,,,,,,7,,,51,96
40122,note_on,2,0,9,,,,,,,,7,,,68,0
40122,note_on,2,0,10,,,,,,,,7,,,56,0
40122,note_on,2,0,8,,,,,,,,7,,,68,0
40159,note_on,37,0,10,,,,,,,,7,,,51,0
40159,note_on,79,0,3,,,,,,,,2,,,75,0
40159,note_on,0,0,3,,,,,,,,2,,,63,0
40159,note_on,79,0,1,,,,,,,,0,,,87,0
40159,note_on,37,0,8,,,,,,,,7,,,63,0
40159,note_on,37,0,9,,,,,,,,7,,,63,0
40160,note_on,1,0,1,,,,,,,,0,,,87,96
40160,note_on,161,0,12,,,,,,,,7,,,44,100
40160,note_on,1,0,9,,,,,,,,7,,,72,95
40160,note_on,1,0,10,,,,,,,,7,,,60,96
40160,note_on,0,0,5,,,,,,,,4,,,51,96
40160,note_on,161,0,5,,,,,,,,4,,,63,96
40160,note_on,1,0,8,,,,,,,,7,,,72,95
40160,note_on,1,0,3,,,,,,,,2,,,75,95
40160,note_on,0,0,3,,,,,,,,2,,,63,95
40160,note_on,161,0,11,,,,,,,,7,,,56,96
40179,note_on,19,0,9,,,,,,,,7,,,72,0
40179,note_on,19,0,8,,,,,,,,7,,,72,0
40179,note_on,19,0,10,,,,,,,,7,,,60,0
40199,note_on,39,0,12,,,,,,,,7,,,44,0
40199,note_on,39,0,3,,,,,,,,2,,,63,0
40199,note_on,0,0,3,,,,,,,,2,,,75,0
40199,note_on,0,0,5,,,,,,,,4,,,63,0
40199,note_on,39,0,5,,,,,,,,4,,,51,0
40199,note_on,39,0,1,,,,,,,,0,,,87,0
40199,note_on,39,0,11,,,,,,,,7,,,56,0
40200,note_on,0,0,5,,,,,,,,4,,,63,96
40200,note_on,1,0,5,,,,,,,,4,,,51,96
40200,note_on,21,0,9,,,,,,,,7,,,70,95
40200,note_on,21,0,8,,,,,,,,7,,,70,95
40200,note_on,1,0,1,,,,,,,,0,,,87,96
40200,note_on,21,0,10,,,,,,,,7,,,58,96
40200,note_on,1,0,3,,,,,,,,2,,,63,95
40200,note_on,0,0,3,,,,,,,,2,,,75,95
40240,note_on,40,0,10,,,,,,,,7,,,51,96
40240,note_on,40,0,8,,,,,,,,7,,,63,95
40240,note_on,40,0,9,,,,,,,,7,,,63,95
40242,note_on,2,0,10,,,,,,,,7,,,58,0
40242,note_on,2,0,8,,,,,,,,7,,,70,0
40242,note_on,2,0,9,,,,,,,,7,,,70,0
40279,note_on,79,0,5,,,,,,,,4,,,63,0
40279,note_on,37,0,10,,,,,,,,7,,,51,0
40279,note_on,37,0,8,,,,,,,,7,,,63,0
40279,note_on,79,0,1,,,,,,,,0,,,87,0
40279,note_on,37,0,9,,,,,,,,7,,,63,0
40279,note_on,0,0,3,,,,,,,,2,,,63,0
40279,note_on,0,0,5,,,,,,,,4,,,51,0
40279,note_on,79,0,3,,,,,,,,2,,,75,0
40280,note_on,0,0,5,,,,,,,,4,,,51,96
40280,note_on,1,0,5,,,,,,,,4,,,63,96
40280,note_on,81,0,11,,,,,,,,7,,,55,96
40280,note_on,81,0,12,,,,,,,,7,,,43,100
40280,note_on,1,0,1,,,,,,,,0,,,87,96
40280,note_on,1,0,10,,,,,,,,7,,,61,96
40280,note_on,1,0,3,,,,,,,,2,,,75,95
40280,note_on,1,0,8,,,,,,,,7,,,73,95
40280,note_on,0,0,3,,,,,,,,2,,,63,95
40280,note_on,1,0,9,,,,,,,,7,,,73,95
40299,note_on,19,0,8,,,,,,,,7,,,73,0
40299,note_on,19,0,9,,,,,,,,7,,,73,0
40299,note_on,19,0,10,,,,,,,,7,,,61,0
40319,note_on,0,0,5,,,,,,,,4,,,63,0
40319,note_on,39,0,1,,,,,,,,0,,,87,0
40319,note_on,39,0,12,,,,,,,,7,,,43,0
40319,note_on,0,0,3,,,,,,,,2,,,75,0
40319,note_on,39,0,11,,,,,,,,7,,,55,0
40319,note_on,39,0,3,,,,,,,,2,,,63,0
40319,note_on,39,0,5,,,,,,,,4,,,51,0
40320,note_on,1,0,1,,,,,,,,0,,,87,96
40320,note_on,21,0,10,,,,,,,,7,,,55,96
40320,note_on,21,0,8,,,,,,,,7,,,67,95
40320,note_on,1,0,5,,,,,,,,4,,,51,96
40320,note_on,21,0,9,,,,,,,,7,,,67,95
40320,note_on,1,0,3,,,,,,,,2,,,75,95
40320,note_on,0,0,5,,,,,,,,4,,,63,96
40320,note_on,0,0,3,,,,,,,,2,,,63,95
40360,note_on,40,0,8,,,,,,,,7,,,63,95
40360,note_on,40,0,9,,,,,,,,7,,,63,95
40360,note_on,40,0,10,,,,,,,,7,,,51,96
40362,note_on,2,0,10,,,,,,,,7,,,55,0
40362,note_on,2,0,9,,,,,,,,7,,,67,0
40362,note_on,2,0,8,,,,,,,,7,,,67,0
40399,note_on,0,0,5,,,,,,,,4,,,51,0
40399,note_on,79,0,5,,,,,,,,4,,,63,0
40399,note_on,37,0,9,,,,,,,,7,,,63,0
40399,note_on,37,0,10,,,,,,,,7,,,51,0
40399,note_on,0,0,3,,,,,,,,2,,,75,0
40399,note_on,37,0,8,,,,,,,,7,,,63,0
40399,note_on,79,0,1,,,,,,,,0,,,87,0
40399,note_on,79,0,3,,,,,,,,2,,,63,0
40400,note_on,1,0,9,,,,,,,,7,,,70,95
40400,note_on,1,0,3,,,,,,,,2,,,63,95
40400,note_on,0,0,3,,,,,,,,2,,,75,95
40400,note_on,1,0,1,,,,,,,,0,,,87,96
40400,note_on,81,0,11,,,,,,,,7,,,61,96
40400,note_on,0,0,4,,,,,,,,3,,,55,96
40400,note_on,1,0,8,,,,,,,,7,,,70,95
40400,note_on,2201,0,4,,,,,,,,3,,,63,96
40400,note_on,81,0,12,,,,,,,,7,,,49,100
40400,note_on,1,0,5,,,,,,,,4,,,63,96
40400,note_on,0,0,5,,,,,,,,4,,,51,96
40400,note_on,1,0,10,,,,,,,,7,,,58,96
40419,note_on,19,0,8,,,,,,,,7,,,70,0
40419,note_on,19,0,9,,,,,,,,7,,,70,0
40419,note_on,19,0,10,,,,,,,,7,,,58,0
40439,note_on,0,0,3,,,,,,,,2,,,63,0
40439,note_on,39,0,3,,,,,,,,2,,,75,0
40439,note_on,39,0,11,,,,,,,,7,,,61,0
40439,note_on,39,0,4,,,,,,,,3,,,55,0
40439,note_on,0,0,5,,,,,,,,4,,,63,0
40439,note_on,39,0,5,,,,,,,,4,,,51,0
40439,note_on,39,0,1,,,,,,,,0,,,87,0
40439,note_on,0,0,4,,,,,,,,3,,,63,0
40439,note_on,39,0,12,,,,,,,,7,,,49,0
40440,note_on,0,0,5,,,,,,,,4,,,51,96
40440,note_on,1,0,5,,,,,,,,4,,,63,96
40440,note_on,21,0,9,,,,,,,,7,,,68,95
40440,note_on,1,0,1,,,,,,,,0,,,87,96
40440,note_on,1,0,3,,,,,,,,2,,,75,95
40440,note_on,21,0,8,,,,,,,,7,,,68,95
40440,note_on,21,0,10,,,,,,,,7,,,56,96
40440,note_on,1,0,12,,,,,,,,7,,,48,100
40440,note_on,1,0,4,,,,,,,,3,,,63,96
40440,note_on,1,0,11,,,,,,,,7,,,60,96
40479,note_on,39,0,8,,,,,,,,7,,,68,0
40479,note_on,39,0,10,,,,,,,,7,,,56,0
40479,note_on,39,0,12,,,,,,,,7,,,48,0
40479,note_on,39,0,9,,,,,,,,7,,,68,0
40479,note_on,39,0,11,,,,,,,,7,,,60,0
40480,note_on,40,0,4,,,,,,,,3,,,60,96
40480,note_on,1,0,12,,,,,,,,7,,,44,100
40480,note_on,40,0,3,,,,,,,,2,,,72,95
40480,note_on,40,0,1,,,,,,,,0,,,84,96
40480,note_on,1,0,11,,,,,,,,7,,,56,96
40482,note_on,2,0,4,,,,,,,,3,,,63,0
40482,note_on,2,0,3,,,,,,,,2,,,75,0
40482,note_on,2,0,1,,,,,,,,0,,,87,0
40519,note_on,39,0,11,,,,,,,,7,,,56,0
40519,note_on,39,0,12,,,,,,,,7,,,44,0
40519,note_on,79,0,5,,,,,,,,4,,,51,0
40519,note_on,0,0,5,,,,,,,,4,,,63,0
40520,note_on,38,0,1,,,,,,,,0,,,82,96
40520,note_on,38,0,4,,,,,,,,3,,,58,96
40520,note_on,41,0,9,,,,,,,,7,,,60,95
40520,note_on,1,0,5,,,,,,,,4,,,51,96
40520,note_on,41,0,8,,,,,,,,7,,,72,95
40520,note_on,0,0,5,,,,,,,,4,,,63,96
40520,note_on,41,0,10,,,,,,,,7,,,48,96
40520,note_on,2321,0,2,,,,,,,,1,,,72,96
40520,note_on,38,0,3,,,,,,,,2,,,70,95
40522,note_on,2,0,1,,,,,,,,0,,,84,0
40522,note_on,2,0,4,,,,,,,,3,,,60,0
40522,note_on,2,0,3,,,,,,,,2,,,72,0
40539,note_on,19,0,8,,,,,,,,7,,,72,0
40539,note_on,19,0,10,,,,,,,,7,,,48,0
40539,note_on,19,0,9,,,,,,,,7,,,60,0
40559,note_on,39,0,2,,,,,,,,1,,,72,0
40559,note_on,0,0,5,,,,,,,,4,,,51,0
40559,note_on,39,0,5,,,,,,,,4,,,63,0
40560,note_on,38,0,3,,,,,,,,2,,,68,95
40560,note_on,38,0,1,,,,,,,,0,,,80,96
40560,note_on,0,0,5,,,,,,,,4,,,63,96
40560,note_on,38,0,4,,,,,,,,3,,,56,96
40560,note_on,21,0,9,,,,,,,,7,,,65,95
40560,note_on,21,0,8,,,,,,,,7,,,77,95
40560,note_on,1,0,5,,,,,,,,4,,,51,96
40560,note_on,21,0,10,,,,,,,,7,,,53,96
40560,note_on,1,0,2,,,,,,,,1,,,72,96
40562,note_on,2,0,1,,,,,,,,0,,,82,0
40562,note_on,2,0,3,,,,,,,,2,,,70,0
40562,note_on,2,0,4,,,,,,,,3,,,58,0
40599,note_on,0,0,5,,,,,,,,4,,,51,0
40599,note_on,37,0,4,,,,,,,,3,,,56,0
40599,note_on,37,0,3,,,,,,,,2,,,68,0
40599,note_on,37,0,1,,,,,,,,0,,,80,0
40599,note_on,39,0,5,,,,,,,,4,,,63,0
40600,note_on,40,0,9,,,,,,,,7,,,60,95
40600,note_on,40,0,10,,,,,,,,7,,,48,96
40600,note_on,40,0,8,,,,,,,,7,,,72,95
40602,note_on,2,0,8,,,,,,,,7,,,77,0
40602,note_on,2,0,9,,,,,,,,7,,,65,0
40602,note_on,2,0,10,,,,,,,,7,,,53,0
40639,note_on,37,0,10,,,,,,,,7,,,48,0
40639,note_on,79,0,2,,,,,,,,1,,,72,0
40639,note_on,37,0,9,,,,,,,,7,,,60,0
40639,note_on,37,0,8,,,,,,,,7,,,72,0
40640,note_on,1,0,9,,,,,,,,7,,,68,95
40640,note_on,1,0,2,,,,,,,,1,,,72,96
40640,note_on,41,0,4,,,,,,,,3,,,60,96
40640,note_on,0,0,3,,,,,,,,2,,,60,95
40640,note_on,121,0,11,,,,,,,,7,,,53,96
40640,note_on,41,0,3,,,,,,,,2,,,72,95
40640,note_on,41,0,1,,,,,,,,0,,,84,96
40640,note_on,1,0,8,,,,,,,,7,,,80,95
40640,note_on,1,0,10,,,,,,,,7,,,56,96
40640,note_on,121,0,12,,,,,,,,7,,,41,100
40659,note_on,19,0,9,,,,,,,,7,,,68,0
40659,note_on,19,0,8,,,,,,,,7,,,80,0
40659,note_on,19,0,10,,,,,,,,7,,,56,0
40679,note_on,0,0,3,,,,,,,,2,,,72,0
40679,note_on,39,0,3,,,,,,,,2,,,60,0
40679,note_on,39,0,4,,,,,,,,3,,,60,0
40679,note_on,39,0,12,,,,,,,,7,,,41,0
40679,note_on,39,0,1,,,,,,,,0,,,84,0
40679,note_on,39,0,11,,,,,,,,7,,,53,0
40679,note_on,39,0,2,,,,,,,,1,,,72,0
40680,note_on,21,0,9,,,,,,,,7,,,67,95
40680,note_on,21,0,10,,,,,,,,7,,,55,96
40680,note_on,0,0,3,,,,,,,,2,,,72,95
40680,note_on,21,0,8,,,,,,,,7,,,79,95
40680,note_on,1,0,4,,,,,,,,3,,,60,96
40680,note_on,1,0,3,,,,,,,,2,,,60,95
40680,note_on,1,0,1,,,,,,,,0,,,84,96
40680,note_on,1,0,2,,,,,,,,1,,,72,96
40720,note_on,40,0,9,,,,,,,,7,,,60,95
40720,note_on,40,0,10,,,,,,,,7,,,48,96
40720,note_on,40,0,8,,,,,,,,7,,,72,95
40722,note_on,2,0,9,,,,,,,,7,,,67,0
40722,note_on,2,0,8,,,,,,,,7,,,79,0
40722,note_on,2,0,10,,,,,,,,7,,,55,0
40759,note_on,37,0,9,,,,,,,,7,,,60,0
40759,note_on,79,0,2,,,,,,,,1,,,72,0
40759,note_on,37,0,8,,,,,,,,7,,,72,0
40759,note_on,79,0,1,,,,,,,,0,,,84,0
40759,note_on,79,0,4,,,,,,,,3,,,60,0
40759,note_on,37,0,10,,,,,,,,7,,,48,0
40759,note_on,79,0,3,,,,,,,,2,,,72,0
40759,note_on,0,0,3,,,,,,,,2,,,60,0
40760,note_on,1,0,10,,,,,,,,7,,,58,96
40760,note_on,81,0,11,,,,,,,,7,,,52,96
40760,note_on,1,0,3,,,,,,,,2,,,72,95
40760,note_on,81,0,12,,,,,,,,7,,,40,100
40760,note_on,1,0,2,,,,,,,,1,,,72,96
40760,note_on,1,0,8,,,,,,,,7,,,82,95
40760,note_on,0,0,3,,,,,,,,2,,,60,95
40760,note_on,1,0,4,,,,,,,,3,,,60,96
40760,note_on,1,0,1,,,,,,,,0,,,84,96
40760,note_on,1,0,9,,,,,,,,7,,,70,95
40779,note_on,19,0,8,,,,,,,,7,,,82,0
40779,note_on,19,0,9,,,,,,,,7,,,70,0
40779,note_on,19,0,10,,,,,,,,7,,,58,0
40799,note_on,39,0,3,,,,,,,,2,,,60,0
40799,note_on,0,0,3,,,,,,,,2,,,72,0
40799,note_on,39,0,2,,,,,,,,1,,,72,0
40799,note_on,39,0,12,,,,,,,,7,,,40,0
40799,note_on,39,0,11,,,,,,,,7,,,52,0
40799,note_on,39,0,1,,,,,,,,0,,,84,0
40799,note_on,39,0,4,,,,,,,,3,,,60,0
40800,note_on,21,0,10,,,,,,,,7,,,52,96
40800,note_on,21,0,9,,,,,,,,7,,,64,95
40800,note_on,21,0,8,,,,,,,,7,,,76,95
40800,note_on,1,0,2,,,,,,,,1,,,72,96
40800,note_on,0,0,3,,,,,,,,2,,,60,95
40800,note_on,1,0,3,,,,,,,,2,,,72,95
40800,note_on,1,0,4,,,,,,,,3,,,60,96
40800,note_on,1,0,1,,,,,,,,0,,,84,96
40820,note_on,20,0,9,,,,,,,,7,,,60,95
40840,note_on,40,0,8,,,,,,,,7,,,72,95
40840,note_on,40,0,10,,,,,,,,7,,,48,96
40842,note_on,2,0,8,,,,,,,,7,,,76,0
40842,note_on,2,0,10,,,,,,,,7,,,52,0
40842,note_on,22,0,9,,,,,,,,7,,,64,0
40859,note_on,17,0,9,,,,,,,,7,,,60,0
40860,note_on,1,0,9,,,,,,,,7,,,67,95
40879,note_on,19,0,9,,,,,,,,7,,,67,0
40879,note_on,79,0,1,,,,,,,,0,,,84,0
40879,note_on,79,0,4,,,,,,,,3,,,60,0
40879,note_on,37,0,8,,,,,,,,7,,,72,0
40879,note_on,0,0,3,,,,,,,,2,,,72,0
40879,note_on,79,0,3,,,,,,,,2,,,60,0
40879,note_on,79,0,2,,,,,,,,1,,,72,0
40879,note_on,37,0,10,,,,,,,,7,,,48,0
40880,note_on,1,0,1,,,,,,,,0,,,84,96
40880,note_on,1,0,2,,,,,,,,1,,,72,96
40880,note_on,1,0,4,,,,,,,,3,,,52,96
40880,note_on,0,0,4,,,,,,,,3,,,60,96
40880,note_on,1,0,10,,,,,,,,7,,,55,96
40880,note_on,81,0,12,,,,,,,,7,,,46,100
40880,note_on,1,0,8,,,,,,,,7,,,79,95
40880,note_on,81,0,11,,,,,,,,7,,,58,96
40880,note_on,1,0,3,,,,,,,,2,,,60,95
40880,note_on,0,0,3,,,,,,,,2,,,72,95
40899,note_on,19,0,12,,,,,,,,7,,,46,0
40899,note_on,19,0,10,,,,,,,,7,,,55,0
40899,note_on,19,0,8,,,,,,,,7,,,79,0
40919,note_on,0,0,3,,,,,,,,2,,,60,0
40919,note_on,39,0,4,,,,,,,,3,,,60,0
40919,note_on,0,0,4,,,,,,,,3,,,52,0
40919,note_on,39,0,3,,,,,,,,2,,,72,0
40919,note_on,39,0,11,,,,,,,,7,,,58,0
40919,note_on,39,0,1,,,,,,,,0,,,84,0
40919,note_on,39,0,2,,,,,,,,1,,,72,0
40920,note_on,21,0,10,,,,,,,,7,,,53,96
40920,note_on,1,0,11,,,,,,,,7,,,56,96
40920,note_on,21,0,12,,,,,,,,7,,,44,100
40920,note_on,41,0,9,,,,,,,,7,,,65,95
40920,note_on,1,0,4,,,,,,,,3,,,60,96
40920,note_on,1,0,1,,,,,,,,0,,,84,96
40920,note_on,1,0,2,,,,,,,,1,,,72,96
40920,note_on,21,0,8,,,,,,,,7,,,77,95
40920,note_on,1,0,3,,,,,,,,2,,,72,95
40959,note_on,39,0,2,,,,,,,,1,,,72,0
40959,note_on,39,0,10,,,,,,,,7,,,53,0
40959,note_on,39,0,9,,,,,,,,7,,,65,0
40959,note_on,39,0,8,,,,,,,,7,,,77,0
40959,note_on,39,0,11,,,,,,,,7,,,56,0
40959,note_on,39,0,12,,,,,,,,7,,,44,0
40960,note_on,40,0,1,,,,,,,,0,,,80,96
40960,note_on,1,0,12,,,,,,,,7,,,41,100
40960,note_on,40,0,3,,,,,,,,2,,,68,95
40960,note_on,40,0,4,,,,,,,,3,,,56,96
40960,note_on,1,0,11,,,,,,,,7,,,53,96
40962,note_on,2,0,4,,,,,,,,3,,,60,0
40962,note_on,2,0,1,,,,,,,,0,,,84,0
40962,note_on,2,0,3,,,,,,,,2,,,72,0
40999,note_on,39,0,12,,,,,,,,7,,,41,0
40999,note_on,39,0,11,,,,,,,,7,,,53,0
41000,note_on,38,0,1,,,,,,,,0,,,79,96
41000,note_on,38,0,4,,,,,,,,3,,,55,96
41000,note_on,38,0,3,,,,,,,,2,,,67,95
41002,note_on,2,0,1,,,,,,,,0,,,80,0
41002,note_on,2,0,3,,,,,,,,2,,,68,0
41002,note_on,2,0,4,,,,,,,,3,,,56,0
41040,note_on,38,0,1,,,,,,,,0,,,77,96
41040,note_on,38,0,4,,,,,,,,3,,,53,96
41040,note_on,38,0,3,,,,,,,,2,,,65,95
41042,note_on,2,0,1,,,,,,,,0,,,79,0
41042,note_on,2,0,3,,,,,,,,2,,,67,0
41042,note_on,2,0,4,,,,,,,,3,,,55,0
41079,note_on,37,0,1,,,,,,,,0,,,77,0
41079,note_on,37,0,3,,,,,,,,2,,,65,0
41079,note_on,37,0,4,,,,,,,,3,,,53,0
41120,note_on,41,0,4,,,,,,,,3,,,65,48
41120,note_on,41,0,1,,,,,,,,0,,,89,47
41120,note_on,161,0,2,,,,,,,,1,,,77,48
41159,note_on,39,0,4,,,,,,,,3,,,65,0
41159,note_on,39,0,1,,,,,,,,0,,,89,0
41159,note_on,39,0,2,,,,,,,,1,,,77,0
41160,note_on,1,0,4,,,,,,,,3,,,65,48
41160,note_on,1,0,1,,,,,,,,0,,,89,47
41160,note_on,1,0,2,,,,,,,,1,,,77,48
41200,note_on,40,0,2,,,,,,,,1,,,74,48
41200,note_on,40,0,1,,,,,,,,0,,,86,47
41200,note_on,40,0,4,,,,,,,,3,,,62,48
41202,note_on,2,0,4,,,,,,,,3,,,65,0
41202,note_on,2,0,2,,,,,,,,1,,,77,0
41202,note_on,2,0,1,,,,,,,,0,,,89,0
41240,note_on,38,0,2,,,,,,,,1,,,72,48
41240,note_on,38,0,1,,,,,,,,0,,,84,47
41240,note_on,38,0,4,,,,,,,,3,,,60,48
41242,note_on,2,0,1,,,,,,,,0,,,86,0
41242,note_on,2,0,2,,,,,,,,1,,,74,0
41242,note_on,2,0,4,,,,,,,,3,,,62,0
41280,note_on,38,0,1,,,,,,,,0,,,82,47
41280,note_on,38,0,2,,,,,,,,1,,,70,48
41280,note_on,38,0,4,,,,,,,,3,,,58,48
41282,note_on,2,0,1,,,,,,,,0,,,84,0
41282,note_on,2,0,2,,,,,,,,1,,,72,0
41282,note_on,2,0,4,,,,,,,,3,,,60,0
41320,note_on,38,0,1,,,,,,,,0,,,86,47
41320,note_on,38,0,2,,,,,,,,1,,,74,48
41320,note_on,38,0,4,,,,,,,,3,,,62,48
41322,note_on,2,0,4,,,,,,,,3,,,58,0
41322,note_on,2,0,1,,,,,,,,0,,,82,0
41322,note_on,2,0,2,,,,,,,,1,,,70,0
41360,note_on,38,0,4,,,,,,,,3,,,60,48
41360,note_on,38,0,1,,,,,,,,0,,,84,47
41360,note_on,38,0,2,,,,,,,,1,,,72,48
41362,note_on,2,0,1,,,,,,,,0,,,86,0
41362,note_on,2,0,4,,,,,,,,3,,,62,0
41362,note_on,2,0,2,,,,,,,,1,,,74,0
41400,note_on,38,0,2,,,,,,,,1,,,75,48
41400,note_on,38,0,4,,,,,,,,3,,,63,48
41400,note_on,38,0,1,,,,,,,,0,,,87,47
41402,note_on,2,0,4,,,,,,,,3,,,60,0
41402,note_on,2,0,1,,,,,,,,0,,,84,0
41402,note_on,2,0,2,,,,,,,,1,,,72,0
41440,note_on,38,0,2,,,,,,,,1,,,69,48
41440,note_on,38,0,4,,,,,,,,3,,,57,48
41440,note_on,38,0,1,,,,,,,,0,,,81,47
41442,note_on,2,0,2,,,,,,,,1,,,75,0
41442,note_on,2,0,4,,,,,,,,3,,,63,0
41442,note_on,2,0,1,,,,,,,,0,,,87,0
41480,note_on,38,0,2,,,,,,,,1,,,72,48
41480,note_on,38,0,4,,,,,,,,3,,,60,48
41480,note_on,38,0,1,,,,,,,,0,,,84,47
41482,note_on,2,0,4,,,,,,,,3,,,57,0
41482,note_on,2,0,1,,,,,,,,0,,,81,0
41482,note_on,2,0,2,,,,,,,,1,,,69,0
41520,note_on,38,0,2,,,,,,,,1,,,65,48
41520,note_on,38,0,4,,,,,,,,3,,,53,48
41520,note_on,38,0,1,,,,,,,,0,,,77,47
41522,note_on,2,0,2,,,,,,,,1,,,72,0
41522,note_on,2,0,4,,,,,,,,3,,,60,0
41522,note_on,2,0,1,,,,,,,,0,,,84,0
41560,note_on,38,0,1,,,,,,,,0,,,87,47
41560,note_on,38,0,4,,,,,,,,3,,,63,48
41560,note_on,38,0,2,,,,,,,,1,,,75,48
41562,note_on,2,0,2,,,,,,,,1,,,65,0
41562,note_on,2,0,1,,,,,,,,0,,,77,0
41562,note_on,2,0,4,,,,,,,,3,,,53,0
41600,note_on,38,0,1,,,,,,,,0,,,86,47
41600,note_on,38,0,4,,,,,,,,3,,,62,48
41600,note_on,38,0,2,,,,,,,,1,,,74,48
41602,note_on,2,0,2,,,,,,,,1,,,75,0
41602,note_on,2,0,4,,,,,,,,3,,,63,0
41602,note_on,2,0,1,,,,,,,,0,,,87,0
41640,note_on,38,0,1,,,,,,,,0,,,89,47
41640,note_on,38,0,2,,,,,,,,1,,,77,48
41640,note_on,38,0,4,,,,,,,,3,,,65,48
41642,note_on,2,0,4,,,,,,,,3,,,62,0
41642,note_on,2,0,2,,,,,,,,1,,,74,0
41642,note_on,2,0,1,,,,,,,,0,,,86,0
41680,note_on,38,0,4,,,,,,,,3,,,62,48
41680,note_on,38,0,1,,,,,,,,0,,,86,47
41680,note_on,38,0,2,,,,,,,,1,,,74,48
41682,note_on,2,0,4,,,,,,,,3,,,65,0
41682,note_on,2,0,2,,,,,,,,1,,,77,0
41682,note_on,2,0,1,,,,,,,,0,,,89,0
41720,note_on,38,0,1,,,,,,,,0,,,84,47
41720,note_on,38,0,2,,,,,,,,1,,,72,48
41720,note_on,38,0,4,,,,,,,,3,,,60,48
41722,note_on,2,0,4,,,,,,,,3,,,62,0
41722,note_on,2,0,2,,,,,,,,1,,,74,0
41722,note_on,2,0,1,,,,,,,,0,,,86,0
41760,note_on,38,0,2,,,,,,,,1,,,70,48
41760,note_on,38,0,1,,,,,,,,0,,,82,47
41760,note_on,38,0,4,,,,,,,,3,,,58,48
41762,note_on,2,0,1,,,,,,,,0,,,84,0
41762,note_on,2,0,4,,,,,,,,3,,,60,0
41762,note_on,2,0,2,,,,,,,,1,,,72,0
41800,note_on,38,0,4,,,,,,,,3,,,62,48
41800,note_on,38,0,2,,,,,,,,1,,,74,48
41800,note_on,38,0,1,,,,,,,,0,,,86,47
41802,note_on,2,0,2,,,,,,,,1,,,70,0
41802,note_on,2,0,1,,,,,,,,0,,,82,0
41802,note_on,2,0,4,,,,,,,,3,,,58,0
41840,note_on,38,0,1,,,,,,,,0,,,84,47
41840,note_on,38,0,4,,,,,,,,3,,,60,48
41840,note_on,38,0,2,,,,,,,,1,,,72,48
41842,note_on,2,0,4,,,,,,,,3,,,62,0
41842,note_on,2,0,2,,,,,,,,1,,,74,0
41842,note_on,2,0,1,,,,,,,,0,,,86,0
41880,note_on,38,0,4,,,,,,,,3,,,63,48
41880,note_on,38,0,2,,,,,,,,1,,,75,48
41880,note_on,38,0,1,,,,,,,,0,,,87,47
41882,note_on,2,0,2,,,,,,,,1,,,72,0
41882,note_on,2,0,4,,,,,,,,3,,,60,0
41882,note_on,2,0,1,,,,,,,,0,,,84,0
41920,note_on,38,0,4,,,,,,,,3,,,57,48
41920,note_on,38,0,2,,,,,,,,1,,,69,48
41920,note_on,38,0,1,,,,,,,,0,,,81,47
41922,note_on,2,0,1,,,,,,,,0,,,87,0
41922,note_on,2,0,2,,,,,,,,1,,,75,0
41922,note_on,2,0,4,,,,,,,,3,,,63,0
41960,note_on,38,0,2,,,,,,,,1,,,72,48
41960,note_on,38,0,4,,,,,,,,3,,,60,48
41960,note_on,38,0,1,,,,,,,,0,,,84,47
41962,note_on,2,0,1,,,,,,,,0,,,81,0
41962,note_on,2,0,4,,,,,,,,3,,,57,0
41962,note_on,2,0,2,,,,,,,,1,,,69,0
42000,note_on,38,0,4,,,,,,,,3,,,53,48
42000,note_on,38,0,2,,,,,,,,1,,,65,48
42000,note_on,38,0,1,,,,,,,,0,,,77,47
42002,note_on,2,0,1,,,,,,,,0,,,84,0
42002,note_on,2,0,4,,,,,,,,3,,,60,0
42002,note_on,2,0,2,,,,,,,,1,,,72,0
42040,note_on,38,0,1,,,,,,,,0,,,87,47
42040,note_on,38,0,2,,,,,,,,1,,,75,48
42040,note_on,38,0,4,,,,,,,,3,,,63,48
42042,note_on,2,0,4,,,,,,,,3,,,53,0
42042,note_on,2,0,2,,,,,,,,1,,,65,0
42042,note_on,2,0,1,,,,,,,,0,,,77,0
42080,note_on,38,0,1,,,,,,,,0,,,86,47
42080,note_on,38,0,4,,,,,,,,3,,,62,48
42080,note_on,38,0,2,,,,,,,,1,,,74,48
42082,note_on,2,0,2,,,,,,,,1,,,75,0
42082,note_on,2,0,1,,,,,,,,0,,,87,0
42082,note_on,2,0,4,,,,,,,,3,,,63,0
42120,note_on,38,0,2,,,,,,,,1,,,77,48
42120,note_on,38,0,1,,,,,,,,0,,,89,47
42120,note_on,38,0,4,,,,,,,,3,,,65,48
42122,note_on,2,0,1,,,,,,,,0,,,86,0
42122,note_on,2,0,4,,,,,,,,3,,,62,0
42122,note_on,2,0,2,,,,,,,,1,,,74,0
42160,note_on,38,0,2,,,,,,,,1,,,74,48
42160,note_on,38,0,4,,,,,,,,3,,,62,48
42160,note_on,38,0,1,,,,,,,,0,,,86,47
42162,note_on,2,0,4,,,,,,,,3,,,65,0
42162,note_on,2,0,1,,,,,,,,0,,,89,0
42162,note_on,2,0,2,,,,,,,,1,,,77,0
42200,note_on,38,0,4,,,,,,,,3,,,60,48
42200,note_on,38,0,1,,,,,,,,0,,,84,47
42200,note_on,38,0,2,,,,,,,,1,,,72,48
42202,note_on,2,0,2,,,,,,,,1,,,74,0
42202,note_on,2,0,4,,,,,,,,3,,,62,0
42202,note_on,2,0,1,,,,,,,,0,,,86,0
42240,note_on,38,0,2,,,,,,,,1,,,70,48
42240,note_on,38,0,1,,,,,,,,0,,,82,47
42240,note_on,38,0,4,,,,,,,,3,,,58,48
42242,note_on,2,0,4,,,,,,,,3,,,60,0
42242,note_on,2,0,1,,,,,,,,0,,,84,0
42242,note_on,2,0,2,,,,,,,,1,,,72,0
42279,note_on,37,0,4,,,,,,,,3,,,58,0
42279,note_on,37,0,2,,,,,,,,1,,,70,0
42279,note_on,37,0,1,,,,,,,,0,,,82,0
42280,note_on,1321,0,8,,,,,,,,7,,,70,48
42280,note_on,1321,0,10,,,,,,,,7,,,58,49
42319,note_on,39,0,10,,,,,,,,7,,,58,0
42320,note_on,40,0,8,,,,,,,,7,,,68,48
42320,note_on,1,0,10,,,,,,,,7,,,56,49
42322,note_on,2,0,8,,,,,,,,7,,,70,0
42359,note_on,39,0,10,,,,,,,,7,,,56,0
42360,note_on,38,0,8,,,,,,,,7,,,72,48
42360,note_on,1,0,10,,,,,,,,7,,,60,49
42362,note_on,2,0,8,,,,,,,,7,,,68,0
42399,note_on,39,0,10,,,,,,,,7,,,60,0
42400,note_on,38,0,8,,,,,,,,7,,,68,48
42400,note_on,1,0,10,,,,,,,,7,,,56,49
42402,note_on,2,0,8,,,,,,,,7,,,72,0
42439,note_on,39,0,10,,,,,,,,7,,,56,0
42440,note_on,38,0,8,,,,,,,,7,,,67,48
42440,note_on,1,0,10,,,,,,,,7,,,55,49
42442,note_on,2,0,8,,,,,,,,7,,,68,0
42479,note_on,39,0,10,,,,,,,,7,,,55,0
42480,note_on,1,0,10,,,,,,,,7,,,53,49
42480,note_on,38,0,8,,,,,,,,7,,,65,48
42482,note_on,2,0,8,,,,,,,,7,,,67,0
42509,note_on,29,0,10,,,,,,,,7,,,53,0
42510,note_on,28,0,8,,,,,,,,7,,,65,0
42520,note_on,1521,0,12,,,,,,,,7,,,43,48
42520,note_on,1521,0,11,,,,,,,,7,,,55,48
42520,note_on,1561,0,9,,,,,,,,7,,,67,48
42560,note_on,40,0,12,,,,,,,,7,,,41,48
42560,note_on,40,0,11,,,,,,,,7,,,53,48
42560,note_on,40,0,9,,,,,,,,7,,,65,48
42562,note_on,2,0,11,,,,,,,,7,,,55,0
42562,note_on,2,0,9,,,,,,,,7,,,67,0
42562,note_on,2,0,12,,,,,,,,7,,,43,0
42600,note_on,38,0,11,,,,,,,,7,,,56,48
42600,note_on,38,0,9,,,,,,,,7,,,68,48
42600,note_on,38,0,12,,,,,,,,7,,,44,48
42602,note_on,2,0,9,,,,,,,,7,,,65,0
42602,note_on,2,0,11,,,,,,,,7,,,53,0
42602,note_on,2,0,12,,,,,,,,7,,,41,0
42640,note_on,38,0,11,,,,,,,,7,,,53,48
42640,note_on,38,0,12,,,,,,,,7,,,41,48
42640,note_on,38,0,9,,,,,,,,7,,,65,48
42642,note_on,2,0,9,,,,,,,,7,,,68,0
42642,note_on,2,0,12,,,,,,,,7,,,44,0
42642,note_on,2,0,11,,,,,,,,7,,,56,0
42680,note_on,38,0,9,,,,,,,,7,,,63,48
42680,note_on,38,0,12,,,,,,,,7,,,39,48
42680,note_on,38,0,11,,,,,,,,7,,,51,48
42682,note_on,2,0,11,,,,,,,,7,,,53,0
42682,note_on,2,0,12,,,,,,,,7,,,41,0
42682,note_on,2,0,9,,,,,,,,7,,,65,0
42720,note_on,38,0,12,,,,,,,,7,,,38,48
42720,note_on,38,0,11,,,,,,,,7,,,50,48
42720,note_on,38,0,9,,,,,,,,7,,,62,48
42722,note_on,2,0,11,,,,,,,,7,,,51,0
42722,note_on,2,0,12,,,,,,,,7,,,39,0
42722,note_on,2,0,9,,,,,,,,7,,,63,0
42749,note_on,27,0,12,,,,,,,,7,,,38,0
42749,note_on,27,0,9,,,,,,,,7,,,62,0
42749,note_on,27,0,11,,,,,,,,7,,,50,0
42760,note_on,250,0,8,,,,,,,,7,,,77,48
42760,note_on,251,0,10,,,,,,,,7,,,65,47
42799,note_on,39,0,10,,,,,,,,7,,,65,0
42800,note_on,40,0,8,,,,,,,,7,,,74,48
42800,note_on,1,0,10,,,,,,,,7,,,62,47
42802,note_on,2,0,8,,,,,,,,7,,,77,0
42839,note_on,39,0,10,,,,,,,,7,,,62,0
42840,note_on,1,0,10,,,,,,,,7,,,58,47
42840,note_on,38,0,8,,,,,,,,7,,,70,48
42842,note_on,2,0,8,,,,,,,,7,,,74,0
42869,note_on,29,0,10,,,,,,,,7,,,58,0
42870,note_on,28,0,8,,,,,,,,7,,,70,0
42880,note_on,131,0,11,,,,,,,,7,,,56,52
42880,note_on,131,0,9,,,,,,,,7,,,68,51
42880,note_on,131,0,12,,,,,,,,7,,,44,47
42919,note_on,39,0,11,,,,,,,,7,,,56,0
42920,note_on,1,0,11,,,,,,,,7,,,53,57
42920,note_on,40,0,12,,,,,,,,7,,,41,53
42920,note_on,40,0,9,,,,,,,,7,,,65,55
42922,note_on,2,0,9,,,,,,,,7,,,68,0
42922,note_on,2,0,12,,,,,,,,7,,,44,0
42959,note_on,39,0,11,,,,,,,,7,,,53,0
42960,note_on,1,0,11,,,,,,,,7,,,50,61
42960,note_on,38,0,12,,,,,,,,7,,,38,59
42960,note_on,38,0,9,,,,,,,,7,,,62,59
42962,note_on,2,0,12,,,,,,,,7,,,41,0
42962,note_on,2,0,9,,,,,,,,7,,,65,0
42989,note_on,29,0,11,,,,,,,,7,,,50,0
42989,note_on,27,0,9,,,,,,,,7,,,62,0
42989,note_on,27,0,12,,,,,,,,7,,,38,0
43000,note_on,131,0,10,,,,,,,,7,,,65,50
43000,note_on,130,0,8,,,,,,,,7,,,77,53
43039,note_on,39,0,10,,,,,,,,7,,,65,0
43040,note_on,40,0,8,,,,,,,,7,,,74,61
43040,note_on,1,0,10,,,,,,,,7,,,62,57
43042,note_on,2,0,8,,,,,,,,7,,,77,0
43079,note_on,39,0,10,,,,,,,,7,,,62,0
43080,note_on,38,0,8,,,,,,,,7,,,70,68
43080,note_on,1,0,10,,,,,,,,7,,,58,63
43082,note_on,2,0,8,,,,,,,,7,,,74,0
43109,note_on,29,0,10,,,,,,,,7,,,58,0
43110,note_on,28,0,8,,,,,,,,7,,,70,0
43120,note_on,131,0,12,,,,,,,,7,,,44,83
43120,note_on,131,0,9,,,,,,,,7,,,68,75
43120,note_on,131,0,11,,,,,,,,7,,,56,80
43159,note_on,39,0,11,,,,,,,,7,,,56,0
43160,note_on,40,0,9,,,,,,,,7,,,65,79
43160,note_on,40,0,12,,,,,,,,7,,,41,89
43160,note_on,1,0,11,,,,,,,,7,,,53,85
43162,note_on,2,0,9,,,,,,,,7,,,68,0
43162,note_on,2,0,12,,,,,,,,7,,,44,0
43199,note_on,39,0,11,,,,,,,,7,,,53,0
43200,note_on,38,0,9,,,,,,,,7,,,62,83
43200,note_on,1,0,11,,,,,,,,7,,,50,89
43200,note_on,38,0,12,,,,,,,,7,,,38,95
43202,note_on,2,0,9,,,,,,,,7,,,65,0
43202,note_on,2,0,12,,,,,,,,7,,,41,0
43229,note_on,29,0,11,,,,,,,,7,,,50,0
43229,note_on,27,0,9,,,,,,,,7,,,62,0
43229,note_on,27,0,12,,,,,,,,7,,,38,0
43240,note_on,11,0,12,,,,,,,,7,,,46,95
43240,note_on,130,0,8,,,,,,,,7,,,70,97
43240,note_on,131,0,10,,,,,,,,7,,,58,96
43240,note_on,11,0,11,,,,,,,,7,,,58,96
43240,note_on,11,0,9,,,,,,,,7,,,70,87
43240,note_on,2641,0,5,,,,,,,,4,,,58,48
43279,note_on,39,0,11,,,,,,,,7,,,58,0
43279,note_on,39,0,10,,,,,,,,7,,,58,0
43279,note_on,39,0,5,,,,,,,,4,,,58,0
43280,note_on,0,0,5,,,,,,,,4,,,58,48
43280,note_on,40,0,8,,,,,,,,7,,,67,98
43280,note_on,1,0,10,,,,,,,,7,,,55,96
43280,note_on,40,0,9,,,,,,,,7,,,67,91
43280,note_on,1,0,11,,,,,,,,7,,,55,96
43280,note_on,40,0,12,,,,,,,,7,,,43,95
43280,note_on,1,0,5,,,,,,,,4,,,55,48
43282,note_on,2,0,9,,,,,,,,7,,,70,0
43282,note_on,2,0,8,,,,,,,,7,,,70,0
43282,note_on,2,0,12,,,,,,,,7,,,46,0
43319,note_on,39,0,11,,,,,,,,7,,,55,0
43319,note_on,39,0,5,,,,,,,,4,,,58,0
43319,note_on,39,0,10,,,,,,,,7,,,55,0
43319,note_on,0,0,5,,,,,,,,4,,,55,0
43320,note_on,0,0,5,,,,,,,,4,,,55,96
43320,note_on,38,0,9,,,,,,,,7,,,63,95
43320,note_on,1,0,11,,,,,,,,7,,,51,96
43320,note_on,38,0,12,,,,,,,,7,,,39,95
43320,note_on,1,0,10,,,,,,,,7,,,51,96
43320,note_on,1,0,5,,,,,,,,4,,,58,96
43320,note_on,38,0,8,,,,,,,,7,,,63,98
43320,note_on,0,0,5,,,,,,,,4,,,51,96
43322,note_on,2,0,8,,,,,,,,7,,,67,0
43322,note_on,2,0,9,,,,,,,,7,,,67,0
43322,note_on,2,0,12,,,,,,,,7,,,43,0
43359,note_on,37,0,9,,,,,,,,7,,,63,0
43359,note_on,37,0,12,,,,,,,,7,,,39,0
43359,note_on,39,0,11,,,,,,,,7,,,51,0
43359,note_on,39,0,10,,,,,,,,7,,,51,0
43362,note_on,40,0,8,,,,,,,,7,,,63,0
43519,note_on,199,0,5,,,,,,,,4,,,51,0
43519,note_on,0,0,5,,,,,,,,4,,,58,0
43519,note_on,0,0,5,,,,,,,,4,,,55,0
43520,note_on,0,0,5,,,,,,,,4,,,55,48
43520,note_on,0,0,5,,,,,,,,4,,,63,48
43520,note_on,1,0,5,,,,,,,,4,,,58,48
43559,note_on,39,0,5,,,,,,,,4,,,55,0
43559,note_on,0,0,5,,,,,,,,4,,,63,0
43559,note_on,0,0,5,,,,,,,,4,,,58,0
43560,note_on,0,0,5,,,,,,,,4,,,55,48
43560,note_on,0,0,5,,,,,,,,4,,,63,48
43560,note_on,1,0,5,,,,,,,,4,,,58,48
43639,note_on,0,0,5,,,,,,,,4,,,58,0
43639,note_on,0,0,5,,,,,,,,4,,,63,0
43639,note_on,79,0,5,,,,,,,,4,,,55,0
43640,note_on,0,0,5,,,,,,,,4,,,58,48
43640,note_on,1,0,5,,,,,,,,4,,,67,48
43640,note_on,0,0,5,,,,,,,,4,,,63,48
43679,note_on,0,0,5,,,,,,,,4,,,63,0
43679,note_on,0,0,5,,,,,,,,4,,,67,0
43679,note_on,39,0,5,,,,,,,,4,,,58,0
43680,note_on,1,0,5,,,,,,,,4,,,67,48
43680,note_on,0,0,5,,,,,,,,4,,,58,48
43680,note_on,0,0,5,,,,,,,,4,,,63,48
43759,note_on,79,0,5,,,,,,,,4,,,58,0
43759,note_on,0,0,5,,,,,,,,4,,,63,0
43759,note_on,0,0,5,,,,,,,,4,,,67,0
43760,note_on,1,0,5,,,,,,,,4,,,67,48
43760,note_on,0,0,5,,,,,,,,4,,,63,48
43760,note_on,0,0,5,,,,,,,,4,,,70,48
43799,note_on,0,0,5,,,,,,,,4,,,70,0
43799,note_on,39,0,5,,,,,,,,4,,,63,0
43799,note_on,0,0,5,,,,,,,,4,,,67,0
43800,note_on,1,0,5,,,,,,,,4,,,67,48
43800,note_on,0,0,5,,,,,,,,4,,,70,48
43800,note_on,0,0,5,,,,,,,,4,,,63,48
43879,note_on,79,0,5,,,,,,,,4,,,70,0
43879,note_on,0,0,5,,,,,,,,4,,,63,0
43879,note_on,0,0,5,,,,,,,,4,,,67,0
43880,note_on,1,0,5,,,,,,,,4,,,63,48
43880,note_on,0,0,5,,,,,,,,4,,,58,48
43880,note_on,0,0,5,,,,,,,,4,,,67,48
43919,note_on,0,0,5,,,,,,,,4,,,63,0
43919,note_on,39,0,5,,,,,,,,4,,,67,0
43919,note_on,0,0,5,,,,,,,,4,,,58,0
43920,note_on,1,0,5,,,,,,,,4,,,55,48
43920,note_on,0,0,5,,,,,,,,4,,,63,48
43959,note_on,39,0,5,,,,,,,,4,,,55,0
43960,note_on,1,0,5,,,,,,,,4,,,58,48
43979,note_on,19,0,5,,,,,,,,4,,,58,0
43980,note_on,1,0,5,,,,,,,,4,,,55,48
43999,note_on,19,0,5,,,,,,,,4,,,55,0
43999,note_on,0,0,5,,,,,,,,4,,,63,0
44000,note_on,1,0,5,,,,,,,,4,,,51,48
44000,note_on,0,0,5,,,,,,,,4,,,67,48
44039,note_on,0,0,5,,,,,,,,4,,,51,0
44039,note_on,39,0,5,,,,,,,,4,,,67,0
44040,note_on,0,0,5,,,,,,,,4,,,65,48
44040,note_on,1,0,5,,,,,,,,4,,,46,48
44079,note_on,0,0,5,,,,,,,,4,,,46,0
44079,note_on,39,0,5,,,,,,,,4,,,65,0
44080,note_on,721,0,9,,,,,,,,7,,,63,47
44080,note_on,0,0,2,,,,,,,,1,,,75,48
44080,note_on,718,0,8,,,,,,,,7,,,67,48
44080,note_on,1801,0,2,,,,,,,,1,,,79,48
44080,note_on,721,0,10,,,,,,,,7,,,58,47
44080,note_on,721,0,11,,,,,,,,7,,,51,48
44080,note_on,721,0,12,,,,,,,,7,,,39,49
44119,note_on,39,0,8,,,,,,,,7,,,67,0
44119,note_on,39,0,10,,,,,,,,7,,,58,0
44119,note_on,39,0,2,,,,,,,,1,,,75,0
44119,note_on,39,0,11,,,,,,,,7,,,51,0
44119,note_on,39,0,12,,,,,,,,7,,,39,0
44119,note_on,0,0,2,,,,,,,,1,,,79,0
44119,note_on,39,0,9,,,,,,,,7,,,63,0
44120,note_on,1,0,9,,,,,,,,7,,,63,47
44120,note_on,1,0,11,,,,,,,,7,,,51,48
44120,note_on,1,0,12,,,,,,,,7,,,39,50
44120,note_on,1,0,8,,,,,,,,7,,,67,48
44120,note_on,1,0,10,,,,,,,,7,,,58,47
44120,note_on,0,0,2,,,,,,,,1,,,75,48
44120,note_on,1,0,2,,,,,,,,1,,,79,48
44159,note_on,39,0,10,,,,,,,,7,,,58,0
44159,note_on,39,0,11,,,,,,,,7,,,51,0
44159,note_on,39,0,12,,,,,,,,7,,,39,0
44159,note_on,0,0,2,,,,,,,,1,,,79,0
44159,note_on,39,0,2,,,,,,,,1,,,75,0
44159,note_on,39,0,9,,,,,,,,7,,,63,0
44159,note_on,39,0,8,,,,,,,,7,,,67,0
44160,note_on,1,0,8,,,,,,,,7,,,65,48
44160,note_on,1,0,11,,,,,,,,7,,,46,48
44160,note_on,1,0,12,,,,,,,,7,,,34,50
44160,note_on,0,0,2,,,,,,,,1,,,74,48
44160,note_on,1,0,2,,,,,,,,1,,,77,48
44160,note_on,1,0,9,,,,,,,,7,,,62,47
44160,note_on,1,0,10,,,,,,,,7,,,58,47
44199,note_on,0,0,2,,,,,,,,1,,,77,0
44199,note_on,39,0,9,,,,,,,,7,,,62,0
44199,note_on,39,0,12,,,,,,,,7,,,34,0
44199,note_on,39,0,11,,,,,,,,7,,,46,0
44199,note_on,39,0,2,,,,,,,,1,,,74,0
44199,note_on,39,0,10,,,,,,,,7,,,58,0
44199,note_on,39,0,8,,,,,,,,7,,,65,0
44240,note_on,161,0,5,,,,,,,,4,,,51,47
44259,note_on,19,0,5,,,,,,,,4,,,51,0
44280,note_on,21,0,5,,,,,,,,4,,,51,52
44320,note_on,40,0,5,,,,,,,,4,,,46,56
44322,note_on,2,0,5,,,,,,,,4,,,51,0
44359,note_on,37,0,5,,,,,,,,4,,,46,0
44360,note_on,0,0,5,,,,,,,,4,,,55,61
44360,note_on,1,0,5,,,,,,,,4,,,58,61
44379,note_on,0,0,5,,,,,,,,4,,,58,0
44379,note_on,19,0,5,,,,,,,,4,,,55,0
44400,note_on,21,0,5,,,,,,,,4,,,58,66
44400,note_on,0,0,5,,,,,,,,4,,,55,66
44439,note_on,39,0,5,,,,,,,,4,,,55,0
44440,note_on,1,0,5,,,,,,,,4,,,55,71
44440,note_on,0,0,5,,,,,,,,4,,,51,71
44442,note_on,2,0,5,,,,,,,,4,,,58,0
44479,note_on,37,0,5,,,,,,,,4,,,51,0
44479,note_on,0,0,5,,,,,,,,4,,,55,0
44480,note_on,1,0,5,,,,,,,,4,,,67,76
44480,note_on,0,0,5,,,,,,,,4,,,58,76
44480,note_on,0,0,5,,,,,,,,4,,,63,76
44499,note_on,0,0,5,,,,,,,,4,,,58,0
44499,note_on,19,0,5,,,,,,,,4,,,63,0
44499,note_on,0,0,5,,,,,,,,4,,,67,0
44520,note_on,0,0,5,,,,,,,,4,,,67,80
44520,note_on,21,0,5,,,,,,,,4,,,63,80
44520,note_on,0,0,5,,,,,,,,4,,,58,80
44559,note_on,39,0,5,,,,,,,,4,,,58,0
44559,note_on,0,0,5,,,,,,,,4,,,63,0
44560,note_on,0,0,5,,,,,,,,4,,,58,85
44560,note_on,0,0,5,,,,,,,,4,,,55,85
44560,note_on,1,0,5,,,,,,,,4,,,63,85
44562,note_on,2,0,5,,,,,,,,4,,,67,0
44599,note_on,0,0,5,,,,,,,,4,,,58,0
44599,note_on,37,0,5,,,,,,,,4,,,63,0
44599,note_on,0,0,5,,,,,,,,4,,,55,0
44600,note_on,1,0,5,,,,,,,,4,,,63,90
44600,note_on,0,0,5,,,,,,,,4,,,61,90
44600,note_on,0,0,5,,,,,,,,4,,,70,90
44619,note_on,19,0,5,,,,,,,,4,,,61,0
44619,note_on,0,0,5,,,,,,,,4,,,70,0
44619,note_on,0,0,5,,,,,,,,4,,,63,0
44640,note_on,0,0,5,,,,,,,,4,,,70,96
44640,note_on,21,0,5,,,,,,,,4,,,61,96
44640,note_on,0,0,5,,,,,,,,4,,,63,96
44879,note_on,0,0,5,,,,,,,,4,,,61,0
44879,note_on,239,0,5,,,,,,,,4,,,70,0
44879,note_on,0,0,5,,,,,,,,4,,,63,0
44880,note_on,0,0,5,,,,,,,,4,,,63,48
44880,note_on,1,0,5,,,,,,,,4,,,68,48
44880,note_on,0,0,5,,,,,,,,4,,,60,48
44959,note_on,79,0,5,,,,,,,,4,,,60,0
44959,note_on,0,0,5,,,,,,,,4,,,63,0
44959,note_on,0,0,5,,,,,,,,4,,,68,0
44960,note_on,0,0,5,,,,,,,,4,,,63,48
44960,note_on,1,0,5,,,,,,,,4,,,67,48
44960,note_on,0,0,5,,,,,,,,4,,,58,48
44999,note_on,0,0,5,,,,,,,,4,,,67,0
44999,note_on,39,0,5,,,,,,,,4,,,58,0
44999,note_on,0,0,5,,,,,,,,4,,,63,0
45000,note_on,0,0,5,,,,,,,,4,,,56,48
45000,note_on,1,0,5,,,,,,,,4,,,63,48
45000,note_on,0,0,5,,,,,,,,4,,,65,48
45039,note_on,39,0,5,,,,,,,,4,,,56,0
45039,note_on,0,0,5,,,,,,,,4,,,63,0
45039,note_on,0,0,5,,,,,,,,4,,,65,0
45080,note_on,881,0,9,,,,,,,,7,,,60,47
45080,note_on,881,0,10,,,,,,,,7,,,51,47
45080,note_on,0,0,3,,,,,,,,2,,,63,48
45080,note_on,881,0,11,,,,,,,,7,,,44,48
45080,note_on,881,0,12,,,,,,,,7,,,32,48
45080,note_on,881,0,8,,,,,,,,7,,,65,48
45080,note_on,4001,0,3,,,,,,,,2,,,75,48
45119,note_on,39,0,9,,,,,,,,7,,,60,0
45119,note_on,39,0,10,,,,,,,,7,,,51,0
45119,note_on,0,0,3,,,,,,,,2,,,75,0
45119,note_on,39,0,3,,,,,,,,2,,,63,0
45120,note_on,40,0,11,,,,,,,,7,,,45,96
45120,note_on,1,0,9,,,,,,,,7,,,60,96
45120,note_on,1,0,3,,,,,,,,2,,,75,97
45120,note_on,40,0,8,,,,,,,,7,,,66,96
45120,note_on,40,0,12,,,,,,,,7,,,33,96
45120,note_on,1,0,10,,,,,,,,7,,,51,95
45120,note_on,0,0,3,,,,,,,,2,,,63,97
45122,note_on,2,0,12,,,,,,,,7,,,32,0
45122,note_on,2,0,11,,,,,,,,7,,,44,0
45122,note_on,2,0,8,,,,,,,,7,,,65,0
45360,note_on,238,0,11,,,,,,,,7,,,46,48
45360,note_on,240,0,9,,,,,,,,7,,,58,47
45360,note_on,238,0,8,,,,,,,,7,,,67,48
45360,note_on,238,0,12,,,,,,,,7,,,34,48
45362,note_on,2,0,12,,,,,,,,7,,,33,0
45362,note_on,2,0,9,,,,,,,,7,,,60,0
45362,note_on,2,0,11,,,,,,,,7,,,45,0
45362,note_on,2,0,8,,,,,,,,7,,,66,0
45439,note_on,319,0,10,,,,,,,,7,,,51,0
45439,note_on,319,0,3,,,,,,,,2,,,63,0
45439,note_on,0,0,3,,,,,,,,2,,,75,0
45439,note_on,77,0,11,,,,,,,,7,,,46,0
45440,note_on,1,0,10,,,,,,,,7,,,53,47
45440,note_on,78,0,8,,,,,,,,7,,,68,48
45440,note_on,78,0,9,,,,,,,,7,,,62,47
45440,note_on,1,0,11,,,,,,,,7,,,47,48
45440,note_on,78,0,12,,,,,,,,7,,,35,48
45440,note_on,1,0,3,,,,,,,,2,,,74,48
45440,note_on,0,0,3,,,,,,,,2,,,62,48
45442,note_on,2,0,9,,,,,,,,7,,,58,0
45442,note_on,2,0,12,,,,,,,,7,,,34,0
45442,note_on,2,0,8,,,,,,,,7,,,67,0
45479,note_on,39,0,10,,,,,,,,7,,,53,0
45479,note_on,0,0,3,,,,,,,,2,,,74,0
45479,note_on,39,0,3,,,,,,,,2,,,62,0
45480,note_on,0,0,3,,,,,,,,2,,,63,48
45480,note_on,1,0,3,,,,,,,,2,,,75,48
45480,note_on,40,0,11,,,,,,,,7,,,48,48
45480,note_on,38,0,9,,,,,,,,7,,,63,47
45480,note_on,38,0,12,,,,,,,,7,,,36,48
45480,note_on,1,0,10,,,,,,,,7,,,51,47
45480,note_on,38,0,8,,,,,,,,7,,,67,48
45482,note_on,2,0,11,,,,,,,,7,,,47,0
45482,note_on,2,0,9,,,,,,,,7,,,62,0
45482,note_on,2,0,8,,,,,,,,7,,,68,0
45482,note_on,2,0,12,,,,,,,,7,,,35,0
45519,note_on,37,0,9,,,,,,,,7,,,63,0
45519,note_on,0,0,3,,,,,,,,2,,,75,0
45519,note_on,39,0,3,,,,,,,,2,,,63,0
45519,note_on,37,0,11,,,,,,,,7,,,48,0
45519,note_on,37,0,12,,,,,,,,7,,,36,0
45519,note_on,39,0,10,,,,,,,,7,,,51,0
45519,note_on,37,0,8,,,,,,,,7,,,67,0
45560,note_on,521,0,5,,,,,,,,4,,,70,32
45560,note_on,0,0,5,,,,,,,,4,,,63,32
45560,note_on,0,0,5,,,,,,,,4,,,61,32
45599,note_on,39,0,5,,,,,,,,4,,,63,0
45599,note_on,0,0,5,,,,,,,,4,,,61,0
45599,note_on,0,0,5,,,,,,,,4,,,70,0
45600,note_on,1,0,5,,,,,,,,4,,,61,63
45600,note_on,0,0,5,,,,,,,,4,,,63,63
45600,note_on,0,0,5,,,,,,,,4,,,70,63
45839,note_on,239,0,5,,,,,,,,4,,,70,0
45839,note_on,0,0,5,,,,,,,,4,,,63,0
45839,note_on,0,0,5,,,,,,,,4,,,61,0
45840,note_on,0,0,5,,,,,,,,4,,,60,32
45840,note_on,0,0,5,,,,,,,,4,,,63,32
45840,note_on,1,0,5,,,,,,,,4,,,68,32
45919,note_on,0,0,5,,,,,,,,4,,,63,0
45919,note_on,79,0,5,,,,,,,,4,,,60,0
45919,note_on,0,0,5,,,,,,,,4,,,68,0
45920,note_on,0,0,5,,,,,,,,4,,,58,32
45920,note_on,0,0,5,,,,,,,,4,,,63,32
45920,note_on,1,0,5,,,,,,,,4,,,67,32
45959,note_on,39,0,5,,,,,,,,4,,,58,0
45959,note_on,0,0,5,,,,,,,,4,,,63,0
45959,note_on,0,0,5,,,,,,,,4,,,67,0
45960,note_on,1,0,5,,,,,,,,4,,,65,32
45960,note_on,0,0,5,,,,,,,,4,,,63,32
45960,note_on,0,0,5,,,,,,,,4,,,56,32
45999,note_on,0,0,5,,,,,,,,4,,,63,0
45999,note_on,39,0,5,,,,,,,,4,,,56,0
45999,note_on,0,0,5,,,,,,,,4,,,65,0
46040,note_on,0,0,3,,,,,,,,2,,,75,48
46040,note_on,521,0,3,,,,,,,,2,,,63,48
46040,note_on,521,0,12,,,,,,,,7,,,32,32
46040,note_on,521,0,8,,,,,,,,7,,,65,31
46040,note_on,521,0,11,,,,,,,,7,,,44,48
46040,note_on,521,0,9,,,,,,,,7,,,60,33
46040,note_on,521,0,10,,,,,,,,7,,,51,32
46080,note_on,40,0,12,,,,,,,,7,,,33,32
46080,note_on,40,0,8,,,,,,,,7,,,66,31
46080,note_on,40,0,11,,,,,,,,7,,,45,48
46082,note_on,2,0,12,,,,,,,,7,,,32,0
46082,note_on,2,0,8,,,,,,,,7,,,65,0
46082,note_on,2,0,11,,,,,,,,7,,,44,0
46279,note_on,239,0,10,,,,,,,,7,,,51,0
46279,note_on,197,0,12,,,,,,,,7,,,33,0
46279,note_on,0,0,3,,,,,,,,2,,,63,0
46279,note_on,197,0,8,,,,,,,,7,,,66,0
46279,note_on,239,0,9,,,,,,,,7,,,60,0
46279,note_on,239,0,3,,,,,,,,2,,,75,0
46279,note_on,197,0,11,,,,,,,,7,,,45,0
46280,note_on,1,0,10,,,,,,,,7,,,51,32
46280,note_on,1,0,12,,,,,,,,7,,,33,32
46280,note_on,1,0,11,,,,,,,,7,,,45,48
46280,note_on,0,0,3,,,,,,,,2,,,63,48
46280,note_on,1,0,9,,,,,,,,7,,,60,31
46280,note_on,1,0,8,,,,,,,,7,,,66,31
46280,note_on,1,0,3,,,,,,,,2,,,75,48
46320,note_on,40,0,12,,,,,,,,7,,,34,32
46320,note_on,40,0,9,,,,,,,,7,,,61,31
46320,note_on,40,0,11,,,,,,,,7,,,46,48
46320,note_on,40,0,8,,,,,,,,7,,,67,31
46322,note_on,2,0,9,,,,,,,,7,,,60,0
46322,note_on,2,0,11,,,,,,,,7,,,45,0
46322,note_on,2,0,8,,,,,,,,7,,,66,0
46322,note_on,2,0,12,,,,,,,,7,,,33,0
46479,note_on,157,0,8,,,,,,,,7,,,67,0
46479,note_on,199,0,3,,,,,,,,2,,,63,0
46479,note_on,0,0,3,,,,,,,,2,,,75,0
46479,note_on,157,0,11,,,,,,,,7,,,46,0
46479,note_on,199,0,10,,,,,,,,7,,,51,0
46479,note_on,157,0,9,,,,,,,,7,,,61,0
46479,note_on,157,0,12,,,,,,,,7,,,34,0
46520,note_on,521,0,5,,,,,,,,4,,,46,30
46520,note_on,0,0,5,,,,,,,,4,,,67,30
46520,note_on,0,0,5,,,,,,,,4,,,63,30
46559,note_on,39,0,5,,,,,,,,4,,,63,0
46560,note_on,1,0,5,,,,,,,,4,,,68,96
46560,note_on,0,0,5,,,,,,,,4,,,63,96
46560,note_on,0,0,5,,,,,,,,4,,,47,96
46562,note_on,2,0,5,,,,,,,,4,,,67,0
46562,note_on,0,0,5,,,,,,,,4,,,46,0
47039,note_on,477,0,5,,,,,,,,4,,,63,0
47039,note_on,0,0,5,,,,,,,,4,,,68,0
47039,note_on,0,0,5,,,,,,,,4,,,47,0
47040,note_on,1,0,5,,,,,,,,4,,,46,33
47040,note_on,0,0,5,,,,,,,,4,,,62,33
47040,note_on,0,0,5,,,,,,,,4,,,68,33
47159,note_on,0,0,5,,,,,,,,4,,,46,0
47159,note_on,0,0,5,,,,,,,,4,,,62,0
47159,note_on,119,0,5,,,,,,,,4,,,68,0
47160,note_on,1,0,5,,,,,,,,4,,,46,33
47160,note_on,0,0,5,,,,,,,,4,,,62,33
47160,note_on,0,0,5,,,,,,,,4,,,68,33
47279,note_on,119,0,5,,,,,,,,4,,,68,0
47279,note_on,0,0,5,,,,,,,,4,,,46,0
47279,note_on,0,0,5,,,,,,,,4,,,62,0
47280,note_on,1,0,5,,,,,,,,4,,,46,33
47280,note_on,0,0,5,,,,,,,,4,,,62,33
47280,note_on,0,0,5,,,,,,,,4,,,68,33
47320,note_on,841,0,12,,,,,,,,7,,,34,31
47320,note_on,841,0,8,,,,,,,,7,,,65,31
47320,note_on,841,0,9,,,,,,,,7,,,62,31
47320,note_on,841,0,11,,,,,,,,7,,,46,32
47320,note_on,0,0,2,,,,,,,,1,,,74,48
47320,note_on,3121,0,2,,,,,,,,1,,,77,48
47320,note_on,841,0,10,,,,,,,,7,,,58,32
47359,note_on,39,0,12,,,,,,,,7,,,34,0
47359,note_on,0,0,2,,,,,,,,1,,,77,0
47359,note_on,39,0,2,,,,,,,,1,,,74,0
47359,note_on,39,0,9,,,,,,,,7,,,62,0
47359,note_on,39,0,11,,,,,,,,7,,,46,0
47359,note_on,39,0,10,,,,,,,,7,,,58,0
47359,note_on,39,0,8,,,,,,,,7,,,65,0
47360,note_on,0,0,2,,,,,,,,1,,,74,48
47360,note_on,1,0,12,,,,,,,,7,,,34,31
47360,note_on,1,0,11,,,,,,,,7,,,46,32
47360,note_on,1,0,10,,,,,,,,7,,,58,32
47360,note_on,1,0,8,,,,,,,,7,,,65,31
47360,note_on,1,0,9,,,,,,,,7,,,62,31
47360,note_on,1,0,2,,,,,,,,1,,,77,48
47399,note_on,39,0,2,,,,,,,,1,,,74,0
47399,note_on,39,0,8,,,,,,,,7,,,65,0
47399,note_on,119,0,5,,,,,,,,4,,,68,0
47399,note_on,39,0,10,,,,,,,,7,,,58,0
47399,note_on,0,0,5,,,,,,,,4,,,62,0
47399,note_on,39,0,11,,,,,,,,7,,,46,0
47399,note_on,0,0,5,,,,,,,,4,,,46,0
47399,note_on,39,0,12,,,,,,,,7,,,34,0
47399,note_on,0,0,2,,,,,,,,1,,,77,0
47399,note_on,39,0,9,,,,,,,,7,,,62,0
47400,note_on,1,0,8,,,,,,,,7,,,67,31
47400,note_on,1,0,10,,,,,,,,7,,,58,32
47400,note_on,1,0,2,,,,,,,,1,,,79,48
47400,note_on,0,0,2,,,,,,,,1,,,75,48
47400,note_on,1,0,11,,,,,,,,7,,,51,33
47400,note_on,1,0,5,,,,,,,,4,,,67,33
47400,note_on,0,0,5,,,,,,,,4,,,63,33
47400,note_on,0,0,5,,,,,,,,4,,,51,33
47400,note_on,1,0,9,,,,,,,,7,,,63,31
47400,note_on,1,0,12,,,,,,,,7,,,39,31
47439,note_on,39,0,11,,,,,,,,7,,,51,0
47439,note_on,39,0,9,,,,,,,,7,,,63,0
47439,note_on,39,0,5,,,,,,,,4,,,51,0
47439,note_on,0,0,5,,,,,,,,4,,,63,0
47439,note_on,39,0,8,,,,,,,,7,,,67,0
47439,note_on,0,0,5,,,,,,,,4,,,67,0
47439,note_on,0,0,2,,,,,,,,1,,,79,0
47439,note_on,39,0,2,,,,,,,,1,,,75,0
47439,note_on,39,0,10,,,,,,,,7,,,58,0
47439,note_on,39,0,12,,,,,,,,7,,,39,0
47480,note_on,41,0,5,,,,,,,,4,,,63,96
47480,note_on,0,0,5,,,,,,,,4,,,51,96
47480,note_on,1001,0,3,,,,,,,,2,,,63,95
47480,note_on,41,0,2,,,,,,,,1,,,75,96
47480,note_on,41,0,9,,,,,,,,7,,,63,96
47480,note_on,41,0,8,,,,,,,,7,,,63,95
47480,note_on,5201,0,1,,,,,,,,0,,,87,96
47480,note_on,41,0,10,,,,,,,,7,,,51,96
47480,note_on,0,0,3,,,,,,,,2,,,75,95
47499,note_on,19,0,10,,,,,,,,7,,,51,0
47499,note_on,19,0,9,,,,,,,,7,,,63,0
47499,note_on,19,0,8,,,,,,,,7,,,63,0
47519,note_on,39,0,3,,,,,,,,2,,,75,0
47519,note_on,0,0,5,,,,,,,,4,,,63,0
47519,note_on,39,0,5,,,,,,,,4,,,51,0
47519,note_on,39,0,2,,,,,,,,1,,,75,0
47519,note_on,39,0,1,,,,,,,,0,,,87,0
47519,note_on,0,0,3,,,,,,,,2,,,63,0
47520,note_on,21,0,9,,,,,,,,7,,,68,96
47520,note_on,1,0,1,,,,,,,,0,,,87,96
47520,note_on,21,0,10,,,,,,,,7,,,56,96
47520,note_on,1,0,5,,,,,,,,4,,,63,96
47520,note_on,21,0,8,,,,,,,,7,,,68,95
47520,note_on,0,0,5,,,,,,,,4,,,51,96
47520,note_on,1,0,2,,,,,,,,1,,,75,96
47520,note_on,1,0,3,,,,,,,,2,,,63,95
47520,note_on,0,0,3,,,,,,,,2,,,75,95
47560,note_on,40,0,8,,,,,,,,7,,,63,95
47560,note_on,40,0,9,,,,,,,,7,,,63,96
47560,note_on,40,0,10,,,,,,,,7,,,51,96
47562,note_on,2,0,8,,,,,,,,7,,,68,0
47562,note_on,2,0,10,,,,,,,,7,,,56,0
47562,note_on,2,0,9,,,,,,,,7,,,68,0
47599,note_on,0,0,3,,,,,,,,2,,,63,0
47599,note_on,37,0,8,,,,,,,,7,,,63,0
47599,note_on,79,0,5,,,,,,,,4,,,51,0
47599,note_on,0,0,5,,,,,,,,4,,,63,0
47599,note_on,79,0,1,,,,,,,,0,,,87,0
47599,note_on,79,0,3,,,,,,,,2,,,75,0
47599,note_on,37,0,10,,,,,,,,7,,,51,0
47599,note_on,37,0,9,,,,,,,,7,,,63,0
47599,note_on,79,0,2,,,,,,,,1,,,75,0
47600,note_on,1,0,2,,,,,,,,1,,,75,96
47600,note_on,1,0,5,,,,,,,,4,,,51,96
47600,note_on,1,0,1,,,,,,,,0,,,87,96
47600,note_on,1,0,10,,,,,,,,7,,,60,96
47600,note_on,1,0,9,,,,,,,,7,,,72,96
47600,note_on,161,0,11,,,,,,,,7,,,56,95
47600,note_on,161,0,12,,,,,,,,7,,,44,96
47600,note_on,0,0,3,,,,,,,,2,,,63,95
47600,note_on,1,0,3,,,,,,,,2,,,75,95
47600,note_on,1,0,8,,,,,,,,7,,,72,95
47600,note_on,0,0,5,,,,,,,,4,,,63,96
47619,note_on,19,0,10,,,,,,,,7,,,60,0
47619,note_on,19,0,9,,,,,,,,7,,,72,0
47619,note_on,19,0,8,,,,,,,,7,,,72,0
47639,note_on,39,0,12,,,,,,,,7,,,44,0
47639,note_on,39,0,11,,,,,,,,7,,,56,0
47639,note_on,39,0,3,,,,,,,,2,,,63,0
47639,note_on,0,0,3,,,,,,,,2,,,75,0
47639,note_on,39,0,5,,,,,,,,4,,,63,0
47639,note_on,0,0,5,,,,,,,,4,,,51,0
47639,note_on,39,0,2,,,,,,,,1,,,75,0
47639,note_on,39,0,1,,,,,,,,0,,,87,0
47640,note_on,21,0,8,,,,,,,,7,,,70,95
47640,note_on,21,0,10,,,,,,,,7,,,58,96
47640,note_on,1,0,1,,,,,,,,0,,,87,96
47640,note_on,0,0,3,,,,,,,,2,,,75,95
47640,note_on,1,0,5,,,,,,,,4,,,51,96
47640,note_on,1,0,3,,,,,,,,2,,,63,95
47640,note_on,21,0,9,,,,,,,,7,,,70,95
47640,note_on,0,0,5,,,,,,,,4,,,63,96
47680,note_on,40,0,9,,,,,,,,7,,,63,95
47680,note_on,40,0,8,,,,,,,,7,,,63,95
47680,note_on,40,0,10,,,,,,,,7,,,51,96
47682,note_on,2,0,9,,,,,,,,7,,,70,0
47682,note_on,2,0,10,,,,,,,,7,,,58,0
47682,note_on,2,0,8,,,,,,,,7,,,70,0
47719,note_on,37,0,9,,,,,,,,7,,,63,0
47719,note_on,79,0,1,,,,,,,,0,,,87,0
47719,note_on,37,0,8,,,,,,,,7,,,63,0
47719,note_on,37,0,10,,,,,,,,7,,,51,0
47719,note_on,0,0,3,,,,,,,,2,,,63,0
47719,note_on,79,0,5,,,,,,,,4,,,63,0
47719,note_on,0,0,5,,,,,,,,4,,,51,0
47719,note_on,79,0,3,,,,,,,,2,,,75,0
47720,note_on,1,0,3,,,,,,,,2,,,75,95
47720,note_on,81,0,11,,,,,,,,7,,,55,96
47720,note_on,1,0,9,,,,,,,,7,,,73,95
47720,note_on,81,0,12,,,,,,,,7,,,43,100
47720,note_on,1,0,5,,,,,,,,4,,,63,96
47720,note_on,1,0,1,,,,,,,,0,,,87,96
47720,note_on,0,0,5,,,,,,,,4,,,51,96
47720,note_on,1,0,10,,,,,,,,7,,,61,96
47720,note_on,0,0,3,,,,,,,,2,,,63,95
47720,note_on,1,0,8,,,,,,,,7,,,73,95
47739,note_on,19,0,9,,,,,,,,7,,,73,0
47739,note_on,19,0,10,,,,,,,,7,,,61,0
47739,note_on,19,0,8,,,,,,,,7,,,73,0
47759,note_on,0,0,3,,,,,,,,2,,,75,0
47759,note_on,0,0,5,,,,,,,,4,,,63,0
47759,note_on,39,0,1,,,,,,,,0,,,87,0
47759,note_on,39,0,5,,,,,,,,4,,,51,0
47759,note_on,39,0,11,,,,,,,,7,,,55,0
47759,note_on,39,0,3,,,,,,,,2,,,63,0
47759,note_on,39,0,12,,,,,,,,7,,,43,0
47760,note_on,21,0,8,,,,,,,,7,,,67,95
47760,note_on,1,0,5,,,,,,,,4,,,51,96
47760,note_on,0,0,5,,,,,,,,4,,,63,96
47760,note_on,0,0,3,,,,,,,,2,,,75,95
47760,note_on,1,0,3,,,,,,,,2,,,63,95
47760,note_on,21,0,9,,,,,,,,7,,,67,95
47760,note_on,1,0,1,,,,,,,,0,,,87,96
47760,note_on,21,0,10,,,,,,,,7,,,55,96
47800,note_on,40,0,10,,,,,,,,7,,,51,96
47800,note_on,40,0,8,,,,,,,,7,,,63,95
47800,note_on,40,0,9,,,,,,,,7,,,63,95
47802,note_on,2,0,10,,,,,,,,7,,,55,0
47802,note_on,2,0,8,,,,,,,,7,,,67,0
47802,note_on,2,0,9,,,,,,,,7,,,67,0
47839,note_on,79,0,5,,,,,,,,4,,,63,0
47839,note_on,79,0,3,,,,,,,,2,,,75,0
47839,note_on,0,0,3,,,,,,,,2,,,63,0
47839,note_on,0,0,5,,,,,,,,4,,,51,0
47839,note_on,37,0,8,,,,,,,,7,,,63,0
47839,note_on,79,0,1,,,,,,,,0,,,87,0
47839,note_on,37,0,9,,,,,,,,7,,,63,0
47839,note_on,37,0,10,,,,,,,,7,,,51,0
47840,note_on,1,0,1,,,,,,,,0,,,87,96
47840,note_on,1,0,8,,,,,,,,7,,,70,95
47840,note_on,0,0,5,,,,,,,,4,,,51,96
47840,note_on,81,0,11,,,,,,,,7,,,61,96
47840,note_on,1,0,9,,,,,,,,7,,,70,95
47840,note_on,1,0,5,,,,,,,,4,,,63,96
47840,note_on,81,0,12,,,,,,,,7,,,49,100
47840,note_on,1,0,10,,,,,,,,7,,,58,96
47840,note_on,0,0,4,,,,,,,,3,,,55,96
47840,note_on,5561,0,4,,,,,,,,3,,,63,96
47840,note_on,1,0,3,,,,,,,,2,,,75,95
47840,note_on,0,0,3,,,,,,,,2,,,63,95
47859,note_on,19,0,10,,,,,,,,7,,,58,0
47859,note_on,19,0,8,,,,,,,,7,,,70,0
47859,note_on,19,0,9,,,,,,,,7,,,70,0
47879,note_on,39,0,12,,,,,,,,7,,,49,0
47879,note_on,0,0,3,,,,,,,,2,,,75,0
47879,note_on,39,0,1,,,,,,,,0,,,87,0
47879,note_on,39,0,3,,,,,,,,2,,,63,0
47879,note_on,39,0,5,,,,,,,,4,,,51,0
47879,note_on,39,0,11,,,,,,,,7,,,61,0
47879,note_on,39,0,4,,,,,,,,3,,,55,0
47879,note_on,0,0,5,,,,,,,,4,,,63,0
47879,note_on,0,0,4,,,,,,,,3,,,63,0
47880,note_on,21,0,10,,,,,,,,7,,,56,96
47880,note_on,1,0,1,,,,,,,,0,,,87,96
47880,note_on,21,0,8,,,,,,,,7,,,68,95
47880,note_on,21,0,9,,,,,,,,7,,,68,95
47880,note_on,1,0,12,,,,,,,,7,,,48,100
47880,note_on,0,0,5,,,,,,,,4,,,51,96
47880,note_on,1,0,5,,,,,,,,4,,,63,96
47880,note_on,1,0,11,,,,,,,,7,,,60,96
47880,note_on,1,0,3,,,,,,,,2,,,75,95
47880,note_on,1,0,4,,,,,,,,3,,,63,96
47919,note_on,39,0,12,,,,,,,,7,,,48,0
47919,note_on,39,0,8,,,,,,,,7,,,68,0
47919,note_on,39,0,9,,,,,,,,7,,,68,0
47919,note_on,39,0,11,,,,,,,,7,,,60,0
47919,note_on,39,0,10,,,,,,,,7,,,56,0
47920,note_on,40,0,4,,,,,,,,3,,,60,96
47920,note_on,1,0,12,,,,,,,,7,,,44,100
47920,note_on,40,0,1,,,,,,,,0,,,84,96
47920,note_on,40,0,3,,,,,,,,2,,,72,95
47920,note_on,1,0,11,,,,,,,,7,,,56,96
47922,note_on,2,0,1,,,,,,,,0,,,87,0
47922,note_on,2,0,4,,,,,,,,3,,,63,0
47922,note_on,2,0,3,,,,,,,,2,,,75,0
47959,note_on,79,0,5,,,,,,,,4,,,51,0
47959,note_on,39,0,11,,,,,,,,7,,,56,0
47959,note_on,39,0,12,,,,,,,,7,,,44,0
47959,note_on,0,0,5,,,,,,,,4,,,63,0
47960,note_on,41,0,10,,,,,,,,7,,,48,96
47960,note_on,38,0,3,,,,,,,,2,,,70,95
47960,note_on,321,0,2,,,,,,,,1,,,72,96
47960,note_on,41,0,8,,,,,,,,7,,,72,95
47960,note_on,41,0,9,,,,,,,,7,,,60,95
47960,note_on,1,0,5,,,,,,,,4,,,51,96
47960,note_on,0,0,5,,,,,,,,4,,,63,96
47960,note_on,38,0,4,,,,,,,,3,,,58,96
47960,note_on,38,0,1,,,,,,,,0,,,82,96
47962,note_on,2,0,1,,,,,,,,0,,,84,0
47962,note_on,2,0,4,,,,,,,,3,,,60,0
47962,note_on,2,0,3,,,,,,,,2,,,72,0
47979,note_on,19,0,8,,,,,,,,7,,,72,0
47979,note_on,19,0,10,,,,,,,,7,,,48,0
47979,note_on,19,0,9,,,,,,,,7,,,60,0
47999,note_on,0,0,5,,,,,,,,4,,,51,0
47999,note_on,39,0,5,,,,,,,,4,,,63,0
47999,note_on,39,0,2,,,,,,,,1,,,72,0
48000,note_on,38,0,1,,,,,,,,0,,,80,96
48000,note_on,0,0,5,,,,,,,,4,,,63,96
48000,note_on,1,0,5,,,,,,,,4,,,51,96
48000,note_on,38,0,4,,,,,,,,3,,,56,96
48000,note_on,21,0,10,,,,,,,,7,,,53,96
48000,note_on,38,0,3,,,,,,,,2,,,68,95
48000,note_on,21,0,8,,,,,,,,7,,,77,95
48000,note_on,1,0,2,,,,,,,,1,,,72,96
48000,note_on,21,0,9,,,,,,,,7,,,65,95
48002,note_on,2,0,3,,,,,,,,2,,,70,0
48002,note_on,2,0,1,,,,,,,,0,,,82,0
48002,note_on,2,0,4,,,,,,,,3,,,58,0
48039,note_on,37,0,4,,,,,,,,3,,,56,0
48039,note_on,0,0,5,,,,,,,,4,,,51,0
48039,note_on,37,0,3,,,,,,,,2,,,68,0
48039,note_on,37,0,1,,,,,,,,0,,,80,0
48039,note_on,39,0,5,,,,,,,,4,,,63,0
48040,note_on,40,0,9,,,,,,,,7,,,60,95
48040,note_on,40,0,8,,,,,,,,7,,,72,95
48040,note_on,40,0,10,,,,,,,,7,,,48,96
48042,note_on,2,0,9,,,,,,,,7,,,65,0
48042,note_on,2,0,8,,,,,,,,7,,,77,0
48042,note_on,2,0,10,,,,,,,,7,,,53,0
48079,note_on,79,0,2,,,,,,,,1,,,72,0
48079,note_on,37,0,9,,,,,,,,7,,,60,0
48079,note_on,37,0,8,,,,,,,,7,,,72,0
48079,note_on,37,0,10,,,,,,,,7,,,48,0
48080,note_on,41,0,1,,,,,,,,0,,,84,96
48080,note_on,1,0,9,,,,,,,,7,,,68,95
48080,note_on,41,0,3,,,,,,,,2,,,72,95
48080,note_on,1,0,8,,,,,,,,7,,,80,95
48080,note_on,121,0,11,,,,,,,,7,,,53,96
48080,note_on,0,0,3,,,,,,,,2,,,60,95
48080,note_on,121,0,12,,,,,,,,7,,,41,100
48080,note_on,41,0,4,,,,,,,,3,,,60,96
48080,note_on,1,0,10,,,,,,,,7,,,56,96
48080,note_on,1,0,2,,,,,,,,1,,,72,96
48099,note_on,19,0,8,,,,,,,,7,,,80,0
48099,note_on,19,0,10,,,,,,,,7,,,56,0
48099,note_on,19,0,9,,,,,,,,7,,,68,0
48119,note_on,39,0,1,,,,,,,,0,,,84,0
48119,note_on,39,0,12,,,,,,,,7,,,41,0
48119,note_on,39,0,4,,,,,,,,3,,,60,0
48119,note_on,39,0,2,,,,,,,,1,,,72,0
48119,note_on,39,0,11,,,,,,,,7,,,53,0
48119,note_on,39,0,3,,,,,,,,2,,,60,0
48119,note_on,0,0,3,,,,,,,,2,,,72,0
48120,note_on,21,0,9,,,,,,,,7,,,67,95
48120,note_on,0,0,3,,,,,,,,2,,,72,95
48120,note_on,1,0,1,,,,,,,,0,,,84,96
48120,note_on,1,0,2,,,,,,,,1,,,72,96
48120,note_on,21,0,8,,,,,,,,7,,,79,95
48120,note_on,1,0,4,,,,,,,,3,,,60,96
48120,note_on,1,0,3,,,,,,,,2,,,60,95
48120,note_on,21,0,10,,,,,,,,7,,,55,96
48160,note_on,40,0,10,,,,,,,,7,,,48,96
48160,note_on,40,0,9,,,,,,,,7,,,60,95
48160,note_on,40,0,8,,,,,,,,7,,,72,95
48162,note_on,2,0,9,,,,,,,,7,,,67,0
48162,note_on,2,0,8,,,,,,,,7,,,79,0
48162,note_on,2,0,10,,,,,,,,7,,,55,0
48199,note_on,79,0,1,,,,,,,,0,,,84,0
48199,note_on,37,0,9,,,,,,,,7,,,60,0
48199,note_on,0,0,3,,,,,,,,2,,,60,0
48199,note_on,79,0,3,,,,,,,,2,,,72,0
48199,note_on,37,0,10,,,,,,,,7,,,48,0
48199,note_on,79,0,2,,,,,,,,1,,,72,0
48199,note_on,79,0,4,,,,,,,,3,,,60,0
48199,note_on,37,0,8,,,,,,,,7,,,72,0
48200,note_on,1,0,3,,,,,,,,2,,,72,95
48200,note_on,1,0,10,,,,,,,,7,,,58,96
48200,note_on,1,0,2,,,,,,,,1,,,72,96
48200,note_on,81,0,12,,,,,,,,7,,,40,100
48200,note_on,1,0,1,,,,,,,,0,,,84,96
48200,note_on,0,0,3,,,,,,,,2,,,60,95
48200,note_on,1,0,4,,,,,,,,3,,,60,96
48200,note_on,1,0,9,,,,,,,,7,,,70,95
48200,note_on,81,0,11,,,,,,,,7,,,52,96
48200,note_on,1,0,8,,,,,,,,7,,,82,95
48219,note_on,19,0,9,,,,,,,,7,,,70,0
48219,note_on,19,0,8,,,,,,,,7,,,82,0
48219,note_on,19,0,10,,,,,,,,7,,,58,0
48239,note_on,39,0,12,,,,,,,,7,,,40,0
48239,note_on,39,0,4,,,,,,,,3,,,60,0
48239,note_on,39,0,11,,,,,,,,7,,,52,0
48239,note_on,39,0,2,,,,,,,,1,,,72,0
48239,note_on,39,0,3,,,,,,,,2,,,60,0
48239,note_on,0,0,3,,,,,,,,2,,,72,0
48239,note_on,39,0,1,,,,,,,,0,,,84,0
48240,note_on,1,0,2,,,,,,,,1,,,72,96
48240,note_on,21,0,9,,,,,,,,7,,,64,95
48240,note_on,1,0,1,,,,,,,,0,,,84,96
48240,note_on,21,0,10,,,,,,,,7,,,52,96
48240,note_on,1,0,4,,,,,,,,3,,,60,96
48240,note_on,21,0,8,,,,,,,,7,,,76,95
48240,note_on,1,0,3,,,,,,,,2,,,72,95
48240,note_on,0,0,3,,,,,,,,2,,,60,95
48260,note_on,20,0,9,,,,,,,,7,,,60,95
48280,note_on,40,0,10,,,,,,,,7,,,48,96
48280,note_on,40,0,8,,,,,,,,7,,,72,95
48282,note_on,2,0,8,,,,,,,,7,,,76,0
48282,note_on,2,0,10,,,,,,,,7,,,52,0
48282,note_on,22,0,9,,,,,,,,7,,,64,0
48299,note_on,17,0,9,,,,,,,,7,,,60,0
48300,note_on,1,0,9,,,,,,,,7,,,67,95
48319,note_on,79,0,4,,,,,,,,3,,,60,0
48319,note_on,79,0,1,,,,,,,,0,,,84,0
48319,note_on,0,0,3,,,,,,,,2,,,72,0
48319,note_on,37,0,8,,,,,,,,7,,,72,0
48319,note_on,19,0,9,,,,,,,,7,,,67,0
48319,note_on,37,0,10,,,,,,,,7,,,48,0
48319,note_on,79,0,2,,,,,,,,1,,,72,0
48319,note_on,79,0,3,,,,,,,,2,,,60,0
48320,note_on,1,0,4,,,,,,,,3,,,52,96
48320,note_on,1,0,2,,,,,,,,1,,,72,96
48320,note_on,81,0,11,,,,,,,,7,,,58,96
48320,note_on,1,0,1,,,,,,,,0,,,84,96
48320,note_on,81,0,12,,,,,,,,7,,,46,100
48320,note_on,1,0,10,,,,,,,,7,,,55,96
48320,note_on,1,0,8,,,,,,,,7,,,79,95
48320,note_on,1,0,3,,,,,,,,2,,,60,95
48320,note_on,0,0,4,,,,,,,,3,,,60,96
48320,note_on,0,0,3,,,,,,,,2,,,72,95
48339,note_on,19,0,8,,,,,,,,7,,,79,0
48339,note_on,19,0,12,,,,,,,,7,,,46,0
48339,note_on,19,0,10,,,,,,,,7,,,55,0
48359,note_on,0,0,4,,,,,,,,3,,,52,0
48359,note_on,39,0,2,,,,,,,,1,,,72,0
48359,note_on,0,0,3,,,,,,,,2,,,60,0
48359,note_on,39,0,3,,,,,,,,2,,,72,0
48359,note_on,39,0,11,,,,,,,,7,,,58,0
48359,note_on,39,0,4,,,,,,,,3,,,60,0
48359,note_on,39,0,1,,,,,,,,0,,,84,0
48360,note_on,1,0,2,,,,,,,,1,,,72,96
48360,note_on,1,0,3,,,,,,,,2,,,72,95
48360,note_on,1,0,11,,,,,,,,7,,,56,96
48360,note_on,41,0,9,,,,,,,,7,,,65,95
48360,note_on,1,0,4,,,,,,,,3,,,60,96
48360,note_on,1,0,1,,,,,,,,0,,,84,96
48360,note_on,21,0,10,,,,,,,,7,,,53,96
48360,note_on,21,0,8,,,,,,,,7,,,77,95
48360,note_on,21,0,12,,,,,,,,7,,,44,100
48399,note_on,39,0,2,,,,,,,,1,,,72,0
48399,note_on,39,0,8,,,,,,,,7,,,77,0
48399,note_on,39,0,11,,,,,,,,7,,,56,0
48399,note_on,39,0,10,,,,,,,,7,,,53,0
48399,note_on,39,0,12,,,,,,,,7,,,44,0
48399,note_on,39,0,9,,,,,,,,7,,,65,0
48400,note_on,1,0,12,,,,,,,,7,,,41,100
48400,note_on,1,0,11,,,,,,,,7,,,53,96
48400,note_on,40,0,4,,,,,,,,3,,,56,96
48400,note_on,40,0,3,,,,,,,,2,,,68,95
48400,note_on,40,0,1,,,,,,,,0,,,80,96
48402,note_on,2,0,3,,,,,,,,2,,,72,0
48402,note_on,2,0,4,,,,,,,,3,,,60,0
48402,note_on,2,0,1,,,,,,,,0,,,84,0
48439,note_on,39,0,11,,,,,,,,7,,,53,0
48439,note_on,39,0,12,,,,,,,,7,,,41,0
48440,note_on,38,0,4,,,,,,,,3,,,55,96
48440,note_on,38,0,3,,,,,,,,2,,,67,95
48440,note_on,38,0,1,,,,,,,,0,,,79,96
48442,note_on,2,0,1,,,,,,,,0,,,80,0
48442,note_on,2,0,4,,,,,,,,3,,,56,0
48442,note_on,2,0,3,,,,,,,,2,,,68,0
48480,note_on,38,0,3,,,,,,,,2,,,65,95
48480,note_on,38,0,4,,,,,,,,3,,,53,96
48480,note_on,38,0,1,,,,,,,,0,,,77,96
48482,note_on,2,0,1,,,,,,,,0,,,79,0
48482,note_on,2,0,4,,,,,,,,3,,,55,0
48482,note_on,2,0,3,,,,,,,,2,,,67,0
48519,note_on,37,0,4,,,,,,,,3,,,53,0
48519,note_on,37,0,1,,,,,,,,0,,,77,0
48519,note_on,37,0,3,,,,,,,,2,,,65,0
48560,note_on,161,0,2,,,,,,,,1,,,77,48
48560,note_on,41,0,1,,,,,,,,0,,,89,47
48560,note_on,41,0,4,,,,,,,,3,,,65,48
48599,note_on,39,0,4,,,,,,,,3,,,65,0
48599,note_on,39,0,2,,,,,,,,1,,,77,0
48599,note_on,39,0,1,,,,,,,,0,,,89,0
48600,note_on,1,0,1,,,,,,,,0,,,89,47
48600,note_on,1,0,2,,,,,,,,1,,,77,48
48600,note_on,1,0,4,,,,,,,,3,,,65,48
48640,note_on,40,0,4,,,,,,,,3,,,62,48
48640,note_on,40,0,2,,,,,,,,1,,,74,48
48640,note_on,40,0,1,,,,,,,,0,,,86,47
48642,note_on,2,0,2,,,,,,,,1,,,77,0
48642,note_on,2,0,1,,,,,,,,0,,,89,0
48642,note_on,2,0,4,,,,,,,,3,,,65,0
48680,note_on,38,0,1,,,,,,,,0,,,84,47
48680,note_on,38,0,4,,,,,,,,3,,,60,48
48680,note_on,38,0,2,,,,,,,,1,,,72,48
48682,note_on,2,0,2,,,,,,,,1,,,74,0
48682,note_on,2,0,4,,,,,,,,3,,,62,0
48682,note_on,2,0,1,,,,,,,,0,,,86,0
48720,note_on,38,0,2,,,,,,,,1,,,70,48
48720,note_on,38,0,1,,,,,,,,0,,,82,47
48720,note_on,38,0,4,,,,,,,,3,,,58,48
48722,note_on,2,0,4,,,,,,,,3,,,60,0
48722,note_on,2,0,2,,,,,,,,1,,,72,0
48722,note_on,2,0,1,,,,,,,,0,,,84,0
48760,note_on,38,0,1,,,,,,,,0,,,86,47
48760,note_on,38,0,2,,,,,,,,1,,,74,48
48760,note_on,38,0,4,,,,,,,,3,,,62,48
48762,note_on,2,0,4,,,,,,,,3,,,58,0
48762,note_on,2,0,2,,,,,,,,1,,,70,0
48762,note_on,2,0,1,,,,,,,,0,,,82,0
48800,note_on,38,0,2,,,,,,,,1,,,72,48
48800,note_on,38,0,4,,,,,,,,3,,,60,48
48800,note_on,38,0,1,,,,,,,,0,,,84,47
48802,note_on,2,0,4,,,,,,,,3,,,62,0
48802,note_on,2,0,2,,,,,,,,1,,,74,0
48802,note_on,2,0,1,,,,,,,,0,,,86,0
48840,note_on,38,0,1,,,,,,,,0,,,87,47
48840,note_on,38,0,2,,,,,,,,1,,,75,48
48840,note_on,38,0,4,,,,,,,,3,,,63,48
48842,note_on,2,0,1,,,,,,,,0,,,84,0
48842,note_on,2,0,2,,,,,,,,1,,,72,0
48842,note_on,2,0,4,,,,,,,,3,,,60,0
48880,note_on,38,0,4,,,,,,,,3,,,57,48
48880,note_on,38,0,2,,,,,,,,1,,,69,48
48880,note_on,38,0,1,,,,,,,,0,,,81,47
48882,note_on,2,0,4,,,,,,,,3,,,63,0
48882,note_on,2,0,1,,,,,,,,0,,,87,0
48882,note_on,2,0,2,,,,,,,,1,,,75,0
48920,note_on,38,0,4,,,,,,,,3,,,60,48
48920,note_on,38,0,1,,,,,,,,0,,,84,47
48920,note_on,38,0,2,,,,,,,,1,,,72,48
48922,note_on,2,0,4,,,,,,,,3,,,57,0
48922,note_on,2,0,2,,,,,,,,1,,,69,0
48922,note_on,2,0,1,,,,,,,,0,,,81,0
48960,note_on,38,0,1,,,,,,,,0,,,77,47
48960,note_on,38,0,4,,,,,,,,3,,,53,48
48960,note_on,38,0,2,,,,,,,,1,,,65,48
48962,note_on,2,0,1,,,,,,,,0,,,84,0
48962,note_on,2,0,4,,,,,,,,3,,,60,0
48962,note_on,2,0,2,,,,,,,,1,,,72,0
49000,note_on,38,0,1,,,,,,,,0,,,87,47
49000,note_on,38,0,4,,,,,,,,3,,,63,48
49000,note_on,38,0,2,,,,,,,,1,,,75,48
49002,note_on,2,0,2,,,,,,,,1,,,65,0
49002,note_on,2,0,1,,,,,,,,0,,,77,0
49002,note_on,2,0,4,,,,,,,,3,,,53,0
49040,note_on,38,0,4,,,,,,,,3,,,62,48
49040,note_on,38,0,1,,,,,,,,0,,,86,47
49040,note_on,38,0,2,,,,,,,,1,,,74,48
49042,note_on,2,0,2,,,,,,,,1,,,75,0
49042,note_on,2,0,1,,,,,,,,0,,,87,0
49042,note_on,2,0,4,,,,,,,,3,,,63,0
49080,note_on,38,0,4,,,,,,,,3,,,65,48
49080,note_on,38,0,1,,,,,,,,0,,,89,47
49080,note_on,38,0,2,,,,,,,,1,,,77,48
49082,note_on,2,0,1,,,,,,,,0,,,86,0
49082,note_on,2,0,2,,,,,,,,1,,,74,0
49082,note_on,2,0,4,,,,,,,,3,,,62,0
49120,note_on,38,0,4,,,,,,,,3,,,62,48
49120,note_on,38,0,2,,,,,,,,1,,,74,48
49120,note_on,38,0,1,,,,,,,,0,,,86,47
49122,note_on,2,0,4,,,,,,,,3,,,65,0
49122,note_on,2,0,2,,,,,,,,1,,,77,0
49122,note_on,2,0,1,,,,,,,,0,,,89,0
49160,note_on,38,0,4,,,,,,,,3,,,60,48
49160,note_on,38,0,1,,,,,,,,0,,,84,47
49160,note_on,38,0,2,,,,,,,,1,,,72,48
49162,note_on,2,0,4,,,,,,,,3,,,62,0
49162,note_on,2,0,1,,,,,,,,0,,,86,0
49162,note_on,2,0,2,,,,,,,,1,,,74,0
49200,note_on,38,0,4,,,,,,,,3,,,58,48
49200,note_on,38,0,1,,,,,,,,0,,,82,47
49200,note_on,38,0,2,,,,,,,,1,,,70,48
49202,note_on,2,0,1,,,,,,,,0,,,84,0
49202,note_on,2,0,2,,,,,,,,1,,,72,0
49202,note_on,2,0,4,,,,,,,,3,,,60,0
49240,note_on,38,0,1,,,,,,,,0,,,86,47
49240,note_on,38,0,2,,,,,,,,1,,,74,48
49240,note_on,38,0,4,,,,,,,,3,,,62,48
49242,note_on,2,0,1,,,,,,,,0,,,82,0
49242,note_on,2,0,4,,,,,,,,3,,,58,0
49242,note_on,2,0,2,,,,,,,,1,,,70,0
49280,note_on,38,0,1,,,,,,,,0,,,84,47
49280,note_on,38,0,2,,,,,,,,1,,,72,48
49280,note_on,38,0,4,,,,,,,,3,,,60,48
49282,note_on,2,0,2,,,,,,,,1,,,74,0
49282,note_on,2,0,1,,,,,,,,0,,,86,0
49282,note_on,2,0,4,,,,,,,,3,,,62,0
49320,note_on,38,0,2,,,,,,,,1,,,75,48
49320,note_on,38,0,1,,,,,,,,0,,,87,47
49320,note_on,38,0,4,,,,,,,,3,,,63,48
49322,note_on,2,0,4,,,,,,,,3,,,60,0
49322,note_on,2,0,2,,,,,,,,1,,,72,0
49322,note_on,2,0,1,,,,,,,,0,,,84,0
49360,note_on,38,0,2,,,,,,,,1,,,69,48
49360,note_on,38,0,4,,,,,,,,3,,,57,48
49360,note_on,38,0,1,,,,,,,,0,,,81,47
49362,note_on,2,0,1,,,,,,,,0,,,87,0
49362,note_on,2,0,4,,,,,,,,3,,,63,0
49362,note_on,2,0,2,,,,,,,,1,,,75,0
49400,note_on,38,0,1,,,,,,,,0,,,84,47
49400,note_on,38,0,4,,,,,,,,3,,,60,48
49400,note_on,38,0,2,,,,,,,,1,,,72,48
49402,note_on,2,0,1,,,,,,,,0,,,81,0
49402,note_on,2,0,4,,,,,,,,3,,,57,0
49402,note_on,2,0,2,,,,,,,,1,,,69,0
49440,note_on,38,0,4,,,,,,,,3,,,53,48
49440,note_on,38,0,1,,,,,,,,0,,,77,47
49440,note_on,38,0,2,,,,,,,,1,,,65,48
49442,note_on,2,0,4,,,,,,,,3,,,60,0
49442,note_on,2,0,1,,,,,,,,0,,,84,0
49442,note_on,2,0,2,,,,,,,,1,,,72,0
49480,note_on,38,0,4,,,,,,,,3,,,63,48
49480,note_on,38,0,1,,,,,,,,0,,,87,47
49480,note_on,38,0,2,,,,,,,,1,,,75,48
49482,note_on,2,0,2,,,,,,,,1,,,65,0
49482,note_on,2,0,1,,,,,,,,0,,,77,0
49482,note_on,2,0,4,,,,,,,,3,,,53,0
49520,note_on,38,0,2,,,,,,,,1,,,74,48
49520,note_on,38,0,1,,,,,,,,0,,,86,47
49520,note_on,38,0,4,,,,,,,,3,,,62,48
49522,note_on,2,0,2,,,,,,,,1,,,75,0
49522,note_on,2,0,1,,,,,,,,0,,,87,0
49522,note_on,2,0,4,,,,,,,,3,,,63,0
49560,note_on,38,0,4,,,,,,,,3,,,65,48
49560,note_on,38,0,2,,,,,,,,1,,,77,48
49560,note_on,38,0,1,,,,,,,,0,,,89,47
49562,note_on,2,0,4,,,,,,,,3,,,62,0
49562,note_on,2,0,2,,,,,,,,1,,,74,0
49562,note_on,2,0,1,,,,,,,,0,,,86,0
49600,note_on,38,0,4,,,,,,,,3,,,62,48
49600,note_on,38,0,1,,,,,,,,0,,,86,47
49600,note_on,38,0,2,,,,,,,,1,,,74,48
49602,note_on,2,0,1,,,,,,,,0,,,89,0
49602,note_on,2,0,2,,,,,,,,1,,,77,0
49602,note_on,2,0,4,,,,,,,,3,,,65,0
49640,note_on,38,0,1,,,,,,,,0,,,84,47
49640,note_on,38,0,4,,,,,,,,3,,,60,48
49640,note_on,38,0,2,,,,,,,,1,,,72,48
49642,note_on,2,0,4,,,,,,,,3,,,62,0
49642,note_on,2,0,1,,,,,,,,0,,,86,0
49642,note_on,2,0,2,,,,,,,,1,,,74,0
49680,note_on,38,0,2,,,,,,,,1,,,70,48
49680,note_on,38,0,4,,,,,,,,3,,,58,48
49680,note_on,38,0,1,,,,,,,,0,,,82,47
49682,note_on,2,0,1,,,,,,,,0,,,84,0
49682,note_on,2,0,4,,,,,,,,3,,,60,0
49682,note_on,2,0,2,,,,,,,,1,,,72,0
49719,note_on,37,0,2,,,,,,,,1,,,70,0
49719,note_on,37,0,4,,,,,,,,3,,,58,0
49719,note_on,37,0,1,,,,,,,,0,,,82,0
49720,note_on,1321,0,10,,,,,,,,7,,,58,49
49720,note_on,1321,0,8,,,,,,,,7,,,70,48
49759,note_on,39,0,10,,,,,,,,7,,,58,0
49760,note_on,1,0,10,,,,,,,,7,,,56,49
49760,note_on,40,0,8,,,,,,,,7,,,68,48
49762,note_on,2,0,8,,,,,,,,7,,,70,0
49799,note_on,39,0,10,,,,,,,,7,,,56,0
49800,note_on,38,0,8,,,,,,,,7,,,72,48
49800,note_on,1,0,10,,,,,,,,7,,,60,49
49802,note_on,2,0,8,,,,,,,,7,,,68,0
49839,note_on,39,0,10,,,,,,,,7,,,60,0
49840,note_on,1,0,10,,,,,,,,7,,,56,49
49840,note_on,38,0,8,,,,,,,,7,,,68,48
49842,note_on,2,0,8,,,,,,,,7,,,72,0
49879,note_on,39,0,10,,,,,,,,7,,,56,0
49880,note_on,38,0,8,,,,,,,,7,,,67,48
49880,note_on,1,0,10,,,,,,,,7,,,55,49
49882,note_on,2,0,8,,,,,,,,7,,,68,0
49919,note_on,39,0,10,,,,,,,,7,,,55,0
49920,note_on,38,0,8,,,,,,,,7,,,65,48
49920,note_on,1,0,10,,,,,,,,7,,,53,49
49922,note_on,2,0,8,,,,,,,,7,,,67,0
49949,note_on,29,0,10,,,,,,,,7,,,53,0
49950,note_on,28,0,8,,,,,,,,7,,,65,0
49960,note_on,1561,0,9,,,,,,,,7,,,67,48
49960,note_on,1521,0,11,,,,,,,,7,,,55,48
49960,note_on,1521,0,12,,,,,,,,7,,,43,48
50000,note_on,40,0,12,,,,,,,,7,,,41,48
50000,note_on,40,0,9,,,,,,,,7,,,65,48
50000,note_on,40,0,11,,,,,,,,7,,,53,48
50002,note_on,2,0,9,,,,,,,,7,,,67,0
50002,note_on,2,0,11,,,,,,,,7,,,55,0
50002,note_on,2,0,12,,,,,,,,7,,,43,0
50040,note_on,38,0,12,,,,,,,,7,,,44,48
50040,note_on,38,0,11,,,,,,,,7,,,56,48
50040,note_on,38,0,9,,,,,,,,7,,,68,48
50042,note_on,2,0,9,,,,,,,,7,,,65,0
50042,note_on,2,0,12,,,,,,,,7,,,41,0
50042,note_on,2,0,11,,,,,,,,7,,,53,0
50080,note_on,38,0,9,,,,,,,,7,,,65,48
50080,note_on,38,0,12,,,,,,,,7,,,41,48
50080,note_on,38,0,11,,,,,,,,7,,,53,48
50082,note_on,2,0,9,,,,,,,,7,,,68,0
50082,note_on,2,0,12,,,,,,,,7,,,44,0
50082,note_on,2,0,11,,,,,,,,7,,,56,0
50120,note_on,38,0,12,,,,,,,,7,,,39,48
50120,note_on,38,0,11,,,,,,,,7,,,51,48
50120,note_on,38,0,9,,,,,,,,7,,,63,48
50122,note_on,2,0,12,,,,,,,,7,,,41,0
50122,note_on,2,0,9,,,,,,,,7,,,65,0
50122,note_on,2,0,11,,,,,,,,7,,,53,0
50160,note_on,38,0,11,,,,,,,,7,,,50,48
50160,note_on,38,0,9,,,,,,,,7,,,62,48
50160,note_on,38,0,12,,,,,,,,7,,,38,48
50162,note_on,2,0,11,,,,,,,,7,,,51,0
50162,note_on,2,0,12,,,,,,,,7,,,39,0
50162,note_on,2,0,9,,,,,,,,7,,,63,0
50189,note_on,27,0,9,,,,,,,,7,,,62,0
50189,note_on,27,0,12,,,,,,,,7,,,38,0
50189,note_on,27,0,11,,,,,,,,7,,,50,0
50200,note_on,250,0,8,,,,,,,,7,,,77,48
50200,note_on,251,0,10,,,,,,,,7,,,65,47
50239,note_on,39,0,10,,,,,,,,7,,,65,0
50240,note_on,1,0,10,,,,,,,,7,,,62,47
50240,note_on,40,0,8,,,,,,,,7,,,74,48
50242,note_on,2,0,8,,,,,,,,7,,,77,0
50279,note_on,39,0,10,,,,,,,,7,,,62,0
50280,note_on,38,0,8,,,,,,,,7,,,70,48
50280,note_on,1,0,10,,,,,,,,7,,,58,47
50282,note_on,2,0,8,,,,,,,,7,,,74,0
50309,note_on,29,0,10,,,,,,,,7,,,58,0
50310,note_on,28,0,8,,,,,,,,7,,,70,0
50320,note_on,131,0,11,,,,,,,,7,,,56,52
50320,note_on,131,0,9,,,,,,,,7,,,68,51
50320,note_on,131,0,12,,,,,,,,7,,,44,47
50359,note_on,39,0,11,,,,,,,,7,,,56,0
50360,note_on,40,0,12,,,,,,,,7,,,41,53
50360,note_on,40,0,9,,,,,,,,7,,,65,55
50360,note_on,1,0,11,,,,,,,,7,,,53,57
50362,note_on,2,0,9,,,,,,,,7,,,68,0
50362,note_on,2,0,12,,,,,,,,7,,,44,0
50399,note_on,39,0,11,,,,,,,,7,,,53,0
50400,note_on,38,0,9,,,,,,,,7,,,62,59
50400,note_on,38,0,12,,,,,,,,7,,,38,59
50400,note_on,1,0,11,,,,,,,,7,,,50,61
50402,note_on,2,0,9,,,,,,,,7,,,65,0
50402,note_on,2,0,12,,,,,,,,7,,,41,0
50429,note_on,27,0,12,,,,,,,,7,,,38,0
50429,note_on,27,0,9,,,,,,,,7,,,62,0
50429,note_on,29,0,11,,,,,,,,7,,,50,0
50440,note_on,130,0,8,,,,,,,,7,,,77,53
50440,note_on,131,0,10,,,,,,,,7,,,65,50
50479,note_on,39,0,10,,,,,,,,7,,,65,0
50480,note_on,40,0,8,,,,,,,,7,,,74,61
50480,note_on,1,0,10,,,,,,,,7,,,62,57
50482,note_on,2,0,8,,,,,,,,7,,,77,0
50519,note_on,39,0,10,,,,,,,,7,,,62,0
50520,note_on,1,0,10,,,,,,,,7,,,58,63
50520,note_on,38,0,8,,,,,,,,7,,,70,68
50522,note_on,2,0,8,,,,,,,,7,,,74,0
50549,note_on,29,0,10,,,,,,,,7,,,58,0
50550,note_on,28,0,8,,,,,,,,7,,,70,0
50560,note_on,131,0,9,,,,,,,,7,,,68,75
50560,note_on,131,0,12,,,,,,,,7,,,44,83
50560,note_on,131,0,11,,,,,,,,7,,,56,80
50599,note_on,39,0,11,,,,,,,,7,,,56,0
50600,note_on,40,0,9,,,,,,,,7,,,65,79
50600,note_on,40,0,12,,,,,,,,7,,,41,89
50600,note_on,1,0,11,,,,,,,,7,,,53,85
50602,note_on,2,0,9,,,,,,,,7,,,68,0
50602,note_on,2,0,12,,,,,,,,7,,,44,0
50639,note_on,39,0,11,,,,,,,,7,,,53,0
50640,note_on,38,0,12,,,,,,,,7,,,38,95
50640,note_on,1,0,11,,,,,,,,7,,,50,89
50640,note_on,38,0,9,,,,,,,,7,,,62,83
50642,note_on,2,0,9,,,,,,,,7,,,65,0
50642,note_on,2,0,12,,,,,,,,7,,,41,0
50669,note_on,29,0,11,,,,,,,,7,,,50,0
50669,note_on,27,0,12,,,,,,,,7,,,38,0
50669,note_on,27,0,9,,,,,,,,7,,,62,0
50680,note_on,11,0,9,,,,,,,,7,,,70,87
50680,note_on,11,0,11,,,,,,,,7,,,58,96
50680,note_on,131,0,10,,,,,,,,7,,,58,96
50680,note_on,11,0,12,,,,,,,,7,,,46,95
50680,note_on,130,0,8,,,,,,,,7,,,70,97
50680,note_on,2641,0,5,,,,,,,,4,,,58,48
50719,note_on,39,0,5,,,,,,,,4,,,58,0
50719,note_on,39,0,10,,,,,,,,7,,,58,0
50719,note_on,39,0,11,,,,,,,,7,,,58,0
50720,note_on,40,0,12,,,,,,,,7,,,43,95
50720,note_on,1,0,10,,,,,,,,7,,,55,96
50720,note_on,40,0,8,,,,,,,,7,,,67,98
50720,note_on,1,0,11,,,,,,,,7,,,55,96
50720,note_on,0,0,5,,,,,,,,4,,,58,48
50720,note_on,1,0,5,,,,,,,,4,,,55,48
50720,note_on,40,0,9,,,,,,,,7,,,67,91
50722,note_on,2,0,8,,,,,,,,7,,,70,0
50722,note_on,2,0,9,,,,,,,,7,,,70,0
50722,note_on,2,0,12,,,,,,,,7,,,46,0
50759,note_on,39,0,5,,,,,,,,4,,,58,0
50759,note_on,0,0,5,,,,,,,,4,,,55,0
50759,note_on,39,0,11,,,,,,,,7,,,55,0
50759,note_on,39,0,10,,,,,,,,7,,,55,0
50760,note_on,38,0,8,,,,,,,,7,,,63,98
50760,note_on,1,0,5,,,,,,,,4,,,58,96
50760,note_on,0,0,5,,,,,,,,4,,,55,96
50760,note_on,1,0,10,,,,,,,,7,,,51,96
50760,note_on,1,0,11,,,,,,,,7,,,51,96
50760,note_on,0,0,5,,,,,,,,4,,,51,96
50760,note_on,38,0,9,,,,,,,,7,,,63,95
50760,note_on,38,0,12,,,,,,,,7,,,39,95
50762,note_on,2,0,12,,,,,,,,7,,,43,0
50762,note_on,2,0,8,,,,,,,,7,,,67,0
50762,note_on,2,0,9,,,,,,,,7,,,67,0
50799,note_on,37,0,12,,,,,,,,7,,,39,0
50799,note_on,37,0,9,,,,,,,,7,,,63,0
50799,note_on,39,0,10,,,,,,,,7,,,51,0
50799,note_on,39,0,11,,,,,,,,7,,,51,0
50802,note_on,40,0,8,,,,,,,,7,,,63,0
50959,note_on,0,0,5,,,,,,,,4,,,58,0
50959,note_on,199,0,5,,,,,,,,4,,,51,0
50959,note_on,0,0,5,,,,,,,,4,,,55,0
50960,note_on,1,0,5,,,,,,,,4,,,58,48
50960,note_on,0,0,5,,,,,,,,4,,,63,48
50960,note_on,0,0,5,,,,,,,,4,,,55,48
50999,note_on,39,0,5,,,,,,,,4,,,55,0
50999,note_on,0,0,5,,,,,,,,4,,,63,0
50999,note_on,0,0,5,,,,,,,,4,,,58,0
51000,note_on,0,0,5,,,,,,,,4,,,55,48
51000,note_on,1,0,5,,,,,,,,4,,,58,48
51000,note_on,0,0,5,,,,,,,,4,,,63,48
51079,note_on,79,0,5,,,,,,,,4,,,55,0
51079,note_on,0,0,5,,,,,,,,4,,,63,0
51079,note_on,0,0,5,,,,,,,,4,,,58,0
51080,note_on,0,0,5,,,,,,,,4,,,58,48
51080,note_on,0,0,5,,,,,,,,4,,,63,48
51080,note_on,1,0,5,,,,,,,,4,,,67,48
51119,note_on,0,0,5,,,,,,,,4,,,63,0
51119,note_on,39,0,5,,,,,,,,4,,,58,0
51119,note_on,0,0,5,,,,,,,,4,,,67,0
51120,note_on,0,0,5,,,,,,,,4,,,63,48
51120,note_on,0,0,5,,,,,,,,4,,,58,48
51120,note_on,1,0,5,,,,,,,,4,,,67,48
51199,note_on,79,0,5,,,,,,,,4,,,58,0
51199,note_on,0,0,5,,,,,,,,4,,,63,0
51199,note_on,0,0,5,,,,,,,,4,,,67,0
51200,note_on,1,0,5,,,,,,,,4,,,67,48
51200,note_on,0,0,5,,,,,,,,4,,,70,48
51200,note_on,0,0,5,,,,,,,,4,,,63,48
51239,note_on,39,0,5,,,,,,,,4,,,63,0
51239,note_on,0,0,5,,,,,,,,4,,,70,0
51239,note_on,0,0,5,,,,,,,,4,,,67,0
51240,note_on,1,0,5,,,,,,,,4,,,67,48
51240,note_on,0,0,5,,,,,,,,4,,,63,48
51240,note_on,0,0,5,,,,,,,,4,,,70,48
51319,note_on,79,0,5,,,,,,,,4,,,70,0
51319,note_on,0,0,5,,,,,,,,4,,,63,0
51319,note_on,0,0,5,,,,,,,,4,,,67,0
51320,note_on,0,0,5,,,,,,,,4,,,58,48
51320,note_on,1,0,5,,,,,,,,4,,,63,48
51320,note_on,0,0,5,,,,,,,,4,,,67,48
51359,note_on,0,0,5,,,,,,,,4,,,63,0
51359,note_on,0,0,5,,,,,,,,4,,,58,0
51359,note_on,39,0,5,,,,,,,,4,,,67,0
51360,note_on,1,0,5,,,,,,,,4,,,55,48
51360,note_on,0,0,5,,,,,,,,4,,,63,48
51399,note_on,39,0,5,,,,,,,,4,,,55,0
51400,note_on,1,0,5,,,,,,,,4,,,58,48
51419,note_on,19,0,5,,,,,,,,4,,,58,0
51420,note_on,1,0,5,,,,,,,,4,,,55,48
51439,note_on,19,0,5,,,,,,,,4,,,55,0
51439,note_on,0,0,5,,,,,,,,4,,,63,0
51440,note_on,1,0,5,,,,,,,,4,,,51,48
51440,note_on,0,0,5,,,,,,,,4,,,67,48
51479,note_on,39,0,5,,,,,,,,4,,,67,0
51479,note_on,0,0,5,,,,,,,,4,,,51,0
51480,note_on,0,0,5,,,,,,,,4,,,65,48
51480,note_on,1,0,5,,,,,,,,4,,,46,48
51519,note_on,39,0,5,,,,,,,,4,,,65,0
51519,note_on,0,0,5,,,,,,,,4,,,46,0
51520,note_on,721,0,10,,,,,,,,7,,,58,47
51520,note_on,721,0,11,,,,,,,,7,,,51,48
51520,note_on,0,0,2,,,,,,,,1,,,75,48
51520,note_on,1801,0,2,,,,,,,,1,,,79,48
51520,note_on,721,0,9,,,,,,,,7,,,63,47
51520,note_on,718,0,8,,,,,,,,7,,,67,48
51520,note_on,721,0,12,,,,,,,,7,,,39,49
51559,note_on,39,0,10,,,,,,,,7,,,58,0
51559,note_on,39,0,9,,,,,,,,7,,,63,0
51559,note_on,39,0,2,,,,,,,,1,,,75,0
51559,note_on,0,0,2,,,,,,,,1,,,79,0
51559,note_on,39,0,8,,,,,,,,7,,,67,0
51559,note_on,39,0,12,,,,,,,,7,,,39,0
51559,note_on,39,0,11,,,,,,,,7,,,51,0
51560,note_on,1,0,2,,,,,,,,1,,,79,48
51560,note_on,0,0,2,,,,,,,,1,,,75,48
51560,note_on,1,0,8,,,,,,,,7,,,67,48
51560,note_on,1,0,12,,,,,,,,7,,,39,50
51560,note_on,1,0,11,,,,,,,,7,,,51,48
51560,note_on,1,0,9,,,,,,,,7,,,63,47
51560,note_on,1,0,10,,,,,,,,7,,,58,47
51599,note_on,39,0,11,,,,,,,,7,,,51,0
51599,note_on,39,0,12,,,,,,,,7,,,39,0
51599,note_on,0,0,2,,,,,,,,1,,,79,0
51599,note_on,39,0,2,,,,,,,,1,,,75,0
51599,note_on,39,0,9,,,,,,,,7,,,63,0
51599,note_on,39,0,10,,,,,,,,7,,,58,0
51599,note_on,39,0,8,,,,,,,,7,,,67,0
51600,note_on,1,0,9,,,,,,,,7,,,62,47
51600,note_on,1,0,10,,,,,,,,7,,,58,47
51600,note_on,1,0,11,,,,,,,,7,,,46,48
51600,note_on,0,0,2,,,,,,,,1,,,74,48
51600,note_on,1,0,2,,,,,,,,1,,,77,48
51600,note_on,1,0,8,,,,,,,,7,,,65,48
51600,note_on,1,0,12,,,,,,,,7,,,34,50
51639,note_on,39,0,10,,,,,,,,7,,,58,0
51639,note_on,39,0,9,,,,,,,,7,,,62,0
51639,note_on,0,0,2,,,,,,,,1,,,77,0
51639,note_on,39,0,2,,,,,,,,1,,,74,0
51639,note_on,39,0,12,,,,,,,,7,,,34,0
51639,note_on,39,0,11,,,,,,,,7,,,46,0
51639,note_on,39,0,8,,,,,,,,7,,,65,0
51680,note_on,161,0,5,,,,,,,,4,,,51,47
51699,note_on,19,0,5,,,,,,,,4,,,51,0
51720,note_on,21,0,5,,,,,,,,4,,,51,52
51760,note_on,40,0,5,,,,,,,,4,,,46,56
51762,note_on,2,0,5,,,,,,,,4,,,51,0
51799,note_on,37,0,5,,,,,,,,4,,,46,0
51800,note_on,1,0,5,,,,,,,,4,,,58,61
51800,note_on,0,0,5,,,,,,,,4,,,55,61
51819,note_on,19,0,5,,,,,,,,4,,,55,0
51819,note_on,0,0,5,,,,,,,,4,,,58,0
51840,note_on,0,0,5,,,,,,,,4,,,55,66
51840,note_on,21,0,5,,,,,,,,4,,,58,66
51879,note_on,39,0,5,,,,,,,,4,,,55,0
51880,note_on,0,0,5,,,,,,,,4,,,51,71
51880,note_on,1,0,5,,,,,,,,4,,,55,71
51882,note_on,2,0,5,,,,,,,,4,,,58,0
51919,note_on,37,0,5,,,,,,,,4,,,51,0
51919,note_on,0,0,5,,,,,,,,4,,,55,0
51920,note_on,1,0,5,,,,,,,,4,,,67,76
51920,note_on,0,0,5,,,,,,,,4,,,58,76
51920,note_on,0,0,5,,,,,,,,4,,,63,76
51939,note_on,19,0,5,,,,,,,,4,,,63,0
51939,note_on,0,0,5,,,,,,,,4,,,58,0
51939,note_on,0,0,5,,,,,,,,4,,,67,0
51960,note_on,21,0,5,,,,,,,,4,,,63,80
51960,note_on,0,0,5,,,,,,,,4,,,58,80
51960,note_on,0,0,5,,,,,,,,4,,,67,80
51999,note_on,39,0,5,,,,,,,,4,,,58,0
51999,note_on,0,0,5,,,,,,,,4,,,63,0
52000,note_on,1,0,5,,,,,,,,4,,,63,85
52000,note_on,0,0,5,,,,,,,,4,,,55,85
52000,note_on,0,0,5,,,,,,,,4,,,58,85
52002,note_on,2,0,5,,,,,,,,4,,,67,0
52039,note_on,0,0,5,,,,,,,,4,,,58,0
52039,note_on,37,0,5,,,,,,,,4,,,63,0
52039,note_on,0,0,5,,,,,,,,4,,,55,0
52040,note_on,1,0,5,,,,,,,,4,,,63,90
52040,note_on,0,0,5,,,,,,,,4,,,61,90
52040,note_on,0,0,5,,,,,,,,4,,,70,90
52059,note_on,0,0,5,,,,,,,,4,,,70,0
52059,note_on,19,0,5,,,,,,,,4,,,61,0
52059,note_on,0,0,5,,,,,,,,4,,,63,0
52080,note_on,0,0,5,,,,,,,,4,,,63,96
52080,note_on,21,0,5,,,,,,,,4,,,61,96
52080,note_on,0,0,5,,,,,,,,4,,,70,96
52319,note_on,0,0,5,,,,,,,,4,,,61,0
52319,note_on,239,0,5,,,,,,,,4,,,70,0
52319,note_on,0,0,5,,,,,,,,4,,,63,0
52320,note_on,1,0,5,,,,,,,,4,,,68,48
52320,note_on,0,0,5,,,,,,,,4,,,60,48
52320,note_on,0,0,5,,,,,,,,4,,,63,48
52399,note_on,0,0,5,,,,,,,,4,,,68,0
52399,note_on,0,0,5,,,,,,,,4,,,63,0
52399,note_on,79,0,5,,,,,,,,4,,,60,0
52400,note_on,0,0,5,,,,,,,,4,,,63,48
52400,note_on,1,0,5,,,,,,,,4,,,67,48
52400,note_on,0,0,5,,,,,,,,4,,,58,48
52439,note_on,0,0,5,,,,,,,,4,,,63,0
52439,note_on,39,0,5,,,,,,,,4,,,58,0
52439,note_on,0,0,5,,,,,,,,4,,,67,0
52440,note_on,0,0,5,,,,,,,,4,,,65,48
52440,note_on,1,0,5,,,,,,,,4,,,63,48
52440,note_on,0,0,5,,,,,,,,4,,,56,48
52479,note_on,0,0,5,,,,,,,,4,,,65,0
52479,note_on,39,0,5,,,,,,,,4,,,56,0
52479,note_on,0,0,5,,,,,,,,4,,,63,0
52520,note_on,881,0,11,,,,,,,,7,,,44,48
52520,note_on,881,0,8,,,,,,,,7,,,65,48
52520,note_on,881,0,12,,,,,,,,7,,,32,48
52520,note_on,881,0,10,,,,,,,,7,,,51,47
52520,note_on,0,0,3,,,,,,,,2,,,63,48
52520,note_on,4001,0,3,,,,,,,,2,,,75,48
52520,note_on,881,0,9,,,,,,,,7,,,60,47
52559,note_on,0,0,3,,,,,,,,2,,,75,0
52559,note_on,39,0,3,,,,,,,,2,,,63,0
52559,note_on,39,0,9,,,,,,,,7,,,60,0
52559,note_on,39,0,10,,,,,,,,7,,,51,0
52560,note_on,40,0,8,,,,,,,,7,,,66,96
52560,note_on,1,0,9,,,,,,,,7,,,60,96
52560,note_on,40,0,12,,,,,,,,7,,,33,96
52560,note_on,1,0,10,,,,,,,,7,,,51,95
52560,note_on,40,0,11,,,,,,,,7,,,45,96
52560,note_on,1,0,3,,,,,,,,2,,,75,97
52560,note_on,0,0,3,,,,,,,,2,,,63,97
52562,note_on,2,0,11,,,,,,,,7,,,44,0
52562,note_on,2,0,8,,,,,,,,7,,,65,0
52562,note_on,2,0,12,,,,,,,,7,,,32,0
52800,note_on,240,0,9,,,,,,,,7,,,58,47
52800,note_on,238,0,12,,,,,,,,7,,,34,96
52800,note_on,238,0,11,,,,,,,,7,,,46,48
52800,note_on,238,0,8,,,,,,,,7,,,67,48
52802,note_on,2,0,8,,,,,,,,7,,,66,0
52802,note_on,2,0,12,,,,,,,,7,,,33,0
52802,note_on,2,0,11,,,,,,,,7,,,45,0
52802,note_on,2,0,9,,,,,,,,7,,,60,0
52879,note_on,319,0,3,,,,,,,,2,,,63,0
52879,note_on,319,0,10,,,,,,,,7,,,51,0
52879,note_on,0,0,3,,,,,,,,2,,,75,0
52879,note_on,77,0,11,,,,,,,,7,,,46,0
52880,note_on,78,0,8,,,,,,,,7,,,68,48
52880,note_on,1,0,10,,,,,,,,7,,,53,47
52880,note_on,1,0,11,,,,,,,,7,,,47,48
52880,note_on,0,0,3,,,,,,,,2,,,62,48
52880,note_on,78,0,12,,,,,,,,7,,,35,96
52880,note_on,1,0,3,,,,,,,,2,,,74,48
52880,note_on,78,0,9,,,,,,,,7,,,62,47
52882,note_on,2,0,8,,,,,,,,7,,,67,0
52882,note_on,2,0,9,,,,,,,,7,,,58,0
52882,note_on,2,0,12,,,,,,,,7,,,34,0
52919,note_on,39,0,10,,,,,,,,7,,,53,0
52919,note_on,0,0,3,,,,,,,,2,,,74,0
52919,note_on,39,0,3,,,,,,,,2,,,62,0
52920,note_on,40,0,11,,,,,,,,7,,,48,48
52920,note_on,38,0,12,,,,,,,,7,,,36,96
52920,note_on,0,0,3,,,,,,,,2,,,63,48
52920,note_on,1,0,10,,,,,,,,7,,,51,47
52920,note_on,38,0,8,,,,,,,,7,,,67,48
52920,note_on,38,0,9,,,,,,,,7,,,63,47
52920,note_on,1,0,3,,,,,,,,2,,,75,48
52922,note_on,2,0,12,,,,,,,,7,,,35,0
52922,note_on,2,0,11,,,,,,,,7,,,47,0
52922,note_on,2,0,9,,,,,,,,7,,,62,0
52922,note_on,2,0,8,,,,,,,,7,,,68,0
52959,note_on,37,0,8,,,,,,,,7,,,67,0
52959,note_on,0,0,3,,,,,,,,2,,,75,0
52959,note_on,39,0,3,,,,,,,,2,,,63,0
52959,note_on,39,0,10,,,,,,,,7,,,51,0
52959,note_on,37,0,9,,,,,,,,7,,,63,0
52959,note_on,37,0,12,,,,,,,,7,,,36,0
52959,note_on,37,0,11,,,,,,,,7,,,48,0
53000,note_on,0,0,5,,,,,,,,4,,,61,32
53000,note_on,521,0,5,,,,,,,,4,,,70,32
53000,note_on,0,0,5,,,,,,,,4,,,63,32
53039,note_on,0,0,5,,,,,,,,4,,,61,0
53039,note_on,0,0,5,,,,,,,,4,,,70,0
53039,note_on,39,0,5,,,,,,,,4,,,63,0
53040,note_on,0,0,5,,,,,,,,4,,,63,63
53040,note_on,0,0,5,,,,,,,,4,,,70,63
53040,note_on,1,0,5,,,,,,,,4,,,61,63
53279,note_on,239,0,5,,,,,,,,4,,,70,0
53279,note_on,0,0,5,,,,,,,,4,,,63,0
53279,note_on,0,0,5,,,,,,,,4,,,61,0
53280,note_on,1,0,5,,,,,,,,4,,,68,32
53280,note_on,0,0,5,,,,,,,,4,,,63,32
53280,note_on,0,0,5,,,,,,,,4,,,60,32
53359,note_on,79,0,5,,,,,,,,4,,,60,0
53359,note_on,0,0,5,,,,,,,,4,,,68,0
53359,note_on,0,0,5,,,,,,,,4,,,63,0
53360,note_on,0,0,5,,,,,,,,4,,,58,32
53360,note_on,0,0,5,,,,,,,,4,,,63,32
53360,note_on,1,0,5,,,,,,,,4,,,67,32
53399,note_on,0,0,5,,,,,,,,4,,,63,0
53399,note_on,39,0,5,,,,,,,,4,,,58,0
53399,note_on,0,0,5,,,,,,,,4,,,67,0
53400,note_on,1,0,5,,,,,,,,4,,,65,32
53400,note_on,0,0,5,,,,,,,,4,,,63,32
53400,note_on,0,0,5,,,,,,,,4,,,56,32
53439,note_on,39,0,5,,,,,,,,4,,,56,0
53439,note_on,0,0,5,,,,,,,,4,,,63,0
53439,note_on,0,0,5,,,,,,,,4,,,65,0
53480,note_on,521,0,9,,,,,,,,7,,,60,33
53480,note_on,521,0,11,,,,,,,,7,,,44,48
53480,note_on,521,0,8,,,,,,,,7,,,65,31
53480,note_on,521,0,10,,,,,,,,7,,,51,32
53480,note_on,0,0,3,,,,,,,,2,,,75,48
53480,note_on,521,0,3,,,,,,,,2,,,63,48
53480,note_on,521,0,12,,,,,,,,7,,,32,32
53520,note_on,40,0,8,,,,,,,,7,,,66,31
53520,note_on,40,0,12,,,,,,,,7,,,33,32
53520,note_on,40,0,11,,,,,,,,7,,,45,48
53522,note_on,2,0,8,,,,,,,,7,,,65,0
53522,note_on,2,0,11,,,,,,,,7,,,44,0
53522,note_on,2,0,12,,,,,,,,7,,,32,0
53719,note_on,239,0,9,,,,,,,,7,,,60,0
53719,note_on,197,0,8,,,,,,,,7,,,66,0
53719,note_on,239,0,10,,,,,,,,7,,,51,0
53719,note_on,197,0,12,,,,,,,,7,,,33,0
53719,note_on,0,0,3,,,,,,,,2,,,63,0
53719,note_on,197,0,11,,,,,,,,7,,,45,0
53719,note_on,239,0,3,,,,,,,,2,,,75,0
53720,note_on,1,0,9,,,,,,,,7,,,60,31
53720,note_on,1,0,10,,,,,,,,7,,,51,32
53720,note_on,0,0,3,,,,,,,,2,,,63,48
53720,note_on,1,0,3,,,,,,,,2,,,75,48
53720,note_on,1,0,8,,,,,,,,7,,,66,31
53720,note_on,1,0,11,,,,,,,,7,,,45,48
53720,note_on,1,0,12,,,,,,,,7,,,33,32
53760,note_on,40,0,11,,,,,,,,7,,,46,48
53760,note_on,40,0,9,,,,,,,,7,,,61,31
53760,note_on,40,0,8,,,,,,,,7,,,67,31
53760,note_on,40,0,12,,,,,,,,7,,,34,32
53762,note_on,2,0,8,,,,,,,,7,,,66,0
53762,note_on,2,0,9,,,,,,,,7,,,60,0
53762,note_on,2,0,11,,,,,,,,7,,,45,0
53762,note_on,2,0,12,,,,,,,,7,,,33,0
53919,note_on,157,0,9,,,,,,,,7,,,61,0
53919,note_on,157,0,11,,,,,,,,7,,,46,0
53919,note_on,0,0,3,,,,,,,,2,,,75,0
53919,note_on,157,0,8,,,,,,,,7,,,67,0
53919,note_on,199,0,3,,,,,,,,2,,,63,0
53919,note_on,157,0,12,,,,,,,,7,,,34,0
53919,note_on,199,0,10,,,,,,,,7,,,51,0
53960,note_on,521,0,5,,,,,,,,4,,,46,30
53960,note_on,0,0,5,,,,,,,,4,,,67,30
53960,note_on,0,0,5,,,,,,,,4,,,63,30
53999,note_on,39,0,5,,,,,,,,4,,,63,0
54000,note_on,1,0,5,,,,,,,,4,,,68,96
54000,note_on,0,0,5,,,,,,,,4,,,47,96
54000,note_on,0,0,5,,,,,,,,4,,,63,96
54002,note_on,2,0,5,,,,,,,,4,,,67,0
54002,note_on,0,0,5,,,,,,,,4,,,46,0
54399,note_on,397,0,5,,,,,,,,4,,,63,0
54399,note_on,0,0,5,,,,,,,,4,,,47,0
54399,note_on,0,0,5,,,,,,,,4,,,68,0
54400,note_on,481,0,11,,,,,,,,7,,,47,32
54400,note_on,481,0,8,,,,,,,,7,,,59,31
54400,note_on,481,0,12,,,,,,,,7,,,35,32
54419,note_on,19,0,11,,,,,,,,7,,,47,0
54419,note_on,19,0,8,,,,,,,,7,,,59,0
54419,note_on,19,0,12,,,,,,,,7,,,35,0
54440,note_on,21,0,11,,,,,,,,7,,,48,32
54440,note_on,21,0,12,,,,,,,,7,,,36,32
54440,note_on,21,0,8,,,,,,,,7,,,60,31
54459,note_on,19,0,8,,,,,,,,7,,,60,0
54459,note_on,19,0,12,,,,,,,,7,,,36,0
54459,note_on,19,0,11,,,,,,,,7,,,48,0
54480,note_on,21,0,11,,,,,,,,7,,,47,32
54480,note_on,21,0,8,,,,,,,,7,,,59,31
54480,note_on,21,0,12,,,,,,,,7,,,35,32
54499,note_on,19,0,11,,,,,,,,7,,,47,0
54499,note_on,19,0,12,,,,,,,,7,,,35,0
54499,note_on,19,0,8,,,,,,,,7,,,59,0
54520,note_on,21,0,12,,,,,,,,7,,,36,32
54520,note_on,21,0,11,,,,,,,,7,,,48,32
54520,note_on,21,0,8,,,,,,,,7,,,60,31
54539,note_on,19,0,8,,,,,,,,7,,,60,0
54539,note_on,19,0,11,,,,,,,,7,,,48,0
54539,note_on,19,0,12,,,,,,,,7,,,36,0
54560,note_on,21,0,8,,,,,,,,7,,,59,31
54560,note_on,21,0,11,,,,,,,,7,,,47,32
54560,note_on,21,0,12,,,,,,,,7,,,35,32
54579,note_on,19,0,11,,,,,,,,7,,,47,0
54579,note_on,19,0,12,,,,,,,,7,,,35,0
54579,note_on,19,0,8,,,,,,,,7,,,59,0
54600,note_on,21,0,8,,,,,,,,7,,,60,31
54600,note_on,21,0,12,,,,,,,,7,,,36,32
54600,note_on,21,0,11,,,,,,,,7,,,48,32
54619,note_on,19,0,8,,,,,,,,7,,,60,0
54619,note_on,19,0,12,,,,,,,,7,,,36,0
54619,note_on,19,0,11,,,,,,,,7,,,48,0
54640,note_on,21,0,8,,,,,,,,7,,,59,31
54640,note_on,21,0,12,,,,,,,,7,,,35,32
54640,note_on,21,0,11,,,,,,,,7,,,47,32
54659,note_on,19,0,11,,,,,,,,7,,,47,0
54659,note_on,19,0,12,,,,,,,,7,,,35,0
54659,note_on,19,0,8,,,,,,,,7,,,59,0
54680,note_on,21,0,12,,,,,,,,7,,,36,32
54680,note_on,21,0,11,,,,,,,,7,,,48,32
54680,note_on,21,0,8,,,,,,,,7,,,60,31
54699,note_on,19,0,12,,,,,,,,7,,,36,0
54699,note_on,19,0,11,,,,,,,,7,,,48,0
54699,note_on,19,0,8,,,,,,,,7,,,60,0
54720,note_on,21,0,8,,,,,,,,7,,,59,31
54720,note_on,21,0,12,,,,,,,,7,,,35,32
54720,note_on,21,0,11,,,,,,,,7,,,47,32
54739,note_on,19,0,12,,,,,,,,7,,,35,0
54739,note_on,19,0,8,,,,,,,,7,,,59,0
54739,note_on,19,0,11,,,,,,,,7,,,47,0
54760,note_on,21,0,11,,,,,,,,7,,,48,32
54760,note_on,21,0,8,,,,,,,,7,,,60,31
54760,note_on,21,0,12,,,,,,,,7,,,36,32
54779,note_on,19,0,11,,,,,,,,7,,,48,0
54779,note_on,19,0,8,,,,,,,,7,,,60,0
54779,note_on,19,0,12,,,,,,,,7,,,36,0
54800,note_on,21,0,8,,,,,,,,7,,,62,31
54800,note_on,21,0,12,,,,,,,,7,,,38,32
54800,note_on,881,0,9,,,,,,,,7,,,58,33
54800,note_on,21,0,11,,,,,,,,7,,,50,32
54800,note_on,881,0,10,,,,,,,,7,,,55,31
54819,note_on,19,0,12,,,,,,,,7,,,38,0
54819,note_on,19,0,8,,,,,,,,7,,,62,0
54819,note_on,19,0,9,,,,,,,,7,,,58,0
54819,note_on,19,0,11,,,,,,,,7,,,50,0
54819,note_on,19,0,10,,,,,,,,7,,,55,0
54840,note_on,21,0,8,,,,,,,,7,,,63,31
54840,note_on,21,0,11,,,,,,,,7,,,51,32
54840,note_on,21,0,9,,,,,,,,7,,,58,33
54840,note_on,21,0,10,,,,,,,,7,,,55,31
54840,note_on,21,0,12,,,,,,,,7,,,39,32
54859,note_on,19,0,11,,,,,,,,7,,,51,0
54859,note_on,19,0,12,,,,,,,,7,,,39,0
54859,note_on,19,0,8,,,,,,,,7,,,63,0
54859,note_on,19,0,9,,,,,,,,7,,,58,0
54859,note_on,19,0,10,,,,,,,,7,,,55,0
54880,note_on,21,0,11,,,,,,,,7,,,51,32
54880,note_on,21,0,9,,,,,,,,7,,,60,33
54880,note_on,21,0,8,,,,,,,,7,,,63,31
54880,note_on,21,0,10,,,,,,,,7,,,56,31
54899,note_on,19,0,10,,,,,,,,7,,,56,0
54899,note_on,19,0,11,,,,,,,,7,,,51,0
54899,note_on,19,0,9,,,,,,,,7,,,60,0
54899,note_on,19,0,8,,,,,,,,7,,,63,0
54920,note_on,21,0,8,,,,,,,,7,,,63,31
54920,note_on,21,0,9,,,,,,,,7,,,58,33
54920,note_on,21,0,10,,,,,,,,7,,,55,31
54920,note_on,21,0,11,,,,,,,,7,,,51,32
54939,note_on,19,0,10,,,,,,,,7,,,55,0
54939,note_on,19,0,8,,,,,,,,7,,,63,0
54939,note_on,19,0,9,,,,,,,,7,,,58,0
54939,note_on,19,0,11,,,,,,,,7,,,51,0
54960,note_on,21,0,8,,,,,,,,7,,,63,31
54960,note_on,21,0,10,,,,,,,,7,,,56,31
54960,note_on,21,0,11,,,,,,,,7,,,51,32
54960,note_on,21,0,9,,,,,,,,7,,,60,33
54979,note_on,19,0,11,,,,,,,,7,,,51,0
54979,note_on,19,0,9,,,,,,,,7,,,60,0
54979,note_on,19,0,8,,,,,,,,7,,,63,0
54979,note_on,19,0,10,,,,,,,,7,,,56,0
55000,note_on,21,0,11,,,,,,,,7,,,51,32
55000,note_on,21,0,8,,,,,,,,7,,,63,31
55000,note_on,21,0,9,,,,,,,,7,,,58,33
55000,note_on,21,0,10,,,,,,,,7,,,55,31
55019,note_on,19,0,9,,,,,,,,7,,,58,0
55019,note_on,19,0,10,,,,,,,,7,,,55,0
55019,note_on,19,0,11,,,,,,,,7,,,51,0
55019,note_on,19,0,8,,,,,,,,7,,,63,0
55040,note_on,21,0,8,,,,,,,,7,,,63,31
55040,note_on,21,0,9,,,,,,,,7,,,60,33
55040,note_on,21,0,10,,,,,,,,7,,,56,31
55040,note_on,21,0,11,,,,,,,,7,,,51,32
55059,note_on,19,0,9,,,,,,,,7,,,60,0
55059,note_on,19,0,10,,,,,,,,7,,,56,0
55059,note_on,19,0,8,,,,,,,,7,,,63,0
55059,note_on,19,0,11,,,,,,,,7,,,51,0
55080,note_on,21,0,11,,,,,,,,7,,,51,32
55080,note_on,21,0,10,,,,,,,,7,,,55,31
55080,note_on,21,0,8,,,,,,,,7,,,63,31
55080,note_on,21,0,9,,,,,,,,7,,,58,33
55099,note_on,19,0,9,,,,,,,,7,,,58,0
55099,note_on,19,0,8,,,,,,,,7,,,63,0
55099,note_on,19,0,10,,,,,,,,7,,,55,0
55099,note_on,19,0,11,,,,,,,,7,,,51,0
55120,note_on,21,0,8,,,,,,,,7,,,63,31
55120,note_on,21,0,9,,,,,,,,7,,,60,33
55120,note_on,21,0,11,,,,,,,,7,,,51,32
55120,note_on,21,0,10,,,,,,,,7,,,56,31
55139,note_on,19,0,11,,,,,,,,7,,,51,0
55139,note_on,19,0,8,,,,,,,,7,,,63,0
55139,note_on,19,0,9,,,,,,,,7,,,60,0
55139,note_on,19,0,10,,,,,,,,7,,,56,0
55160,note_on,21,0,8,,,,,,,,7,,,63,31
55160,note_on,21,0,9,,,,,,,,7,,,58,33
55160,note_on,21,0,10,,,,,,,,7,,,55,31
55160,note_on,21,0,11,,,,,,,,7,,,51,32
55179,note_on,19,0,8,,,,,,,,7,,,63,0
55179,note_on,19,0,10,,,,,,,,7,,,55,0
55179,note_on,19,0,11,,,,,,,,7,,,51,0
55179,note_on,19,0,9,,,,,,,,7,,,58,0
55200,note_on,21,0,10,,,,,,,,7,,,56,31
55200,note_on,21,0,11,,,,,,,,7,,,51,32
55200,note_on,21,0,9,,,,,,,,7,,,60,33
55200,note_on,21,0,8,,,,,,,,7,,,63,31
55219,note_on,19,0,11,,,,,,,,7,,,51,0
55219,note_on,19,0,8,,,,,,,,7,,,63,0
55219,note_on,19,0,10,,,,,,,,7,,,56,0
55219,note_on,19,0,9,,,,,,,,7,,,60,0
55240,note_on,21,0,8,,,,,,,,7,,,63,31
55240,note_on,21,0,9,,,,,,,,7,,,58,33
55240,note_on,21,0,10,,,,,,,,7,,,55,31
55240,note_on,21,0,11,,,,,,,,7,,,51,32
55259,note_on,19,0,10,,,,,,,,7,,,55,0
55259,note_on,19,0,9,,,,,,,,7,,,58,0
55259,note_on,19,0,8,,,,,,,,7,,,63,0
55259,note_on,19,0,11,,,,,,,,7,,,51,0
55280,note_on,21,0,8,,,,,,,,7,,,62,31
55280,note_on,21,0,10,,,,,,,,7,,,53,31
55280,note_on,21,0,11,,,,,,,,7,,,51,32
55280,note_on,21,0,9,,,,,,,,7,,,56,33
55299,note_on,19,0,11,,,,,,,,7,,,51,0
55299,note_on,19,0,8,,,,,,,,7,,,62,0
55299,note_on,19,0,10,,,,,,,,7,,,53,0
55299,note_on,19,0,9,,,,,,,,7,,,56,0
55320,note_on,21,0,10,,,,,,,,7,,,55,31
55320,note_on,21,0,8,,,,,,,,7,,,63,31
55320,note_on,21,0,9,,,,,,,,7,,,58,33
55320,note_on,21,0,11,,,,,,,,7,,,51,32
55339,note_on,19,0,11,,,,,,,,7,,,51,0
55339,note_on,19,0,8,,,,,,,,7,,,63,0
55339,note_on,19,0,9,,,,,,,,7,,,58,0
55339,note_on,19,0,10,,,,,,,,7,,,55,0
55360,note_on,21,0,10,,,,,,,,7,,,63,31
55360,note_on,21,0,8,,,,,,,,7,,,65,31
55360,note_on,21,0,9,,,,,,,,7,,,58,33
55360,note_on,21,0,11,,,,,,,,7,,,51,32
55379,note_on,19,0,9,,,,,,,,7,,,58,0
55379,note_on,19,0,11,,,,,,,,7,,,51,0
55379,note_on,19,0,8,,,,,,,,7,,,65,0
55379,note_on,19,0,10,,,,,,,,7,,,63,0
55400,note_on,21,0,9,,,,,,,,7,,,58,33
55400,note_on,21,0,10,,,,,,,,7,,,62,31
55400,note_on,21,0,8,,,,,,,,7,,,66,31
55400,note_on,21,0,11,,,,,,,,7,,,50,32
55419,note_on,19,0,9,,,,,,,,7,,,58,0
55419,note_on,19,0,10,,,,,,,,7,,,62,0
55419,note_on,19,0,8,,,,,,,,7,,,66,0
55419,note_on,19,0,11,,,,,,,,7,,,50,0
55440,note_on,21,0,11,,,,,,,,7,,,51,32
55440,note_on,21,0,10,,,,,,,,7,,,63,31
55440,note_on,21,0,8,,,,,,,,7,,,67,31
55440,note_on,21,0,9,,,,,,,,7,,,58,33
55459,note_on,19,0,8,,,,,,,,7,,,67,0
55459,note_on,19,0,10,,,,,,,,7,,,63,0
55459,note_on,19,0,11,,,,,,,,7,,,51,0
55459,note_on,19,0,9,,,,,,,,7,,,58,0
55480,note_on,21,0,10,,,,,,,,7,,,62,31
55480,note_on,21,0,9,,,,,,,,7,,,65,33
55480,note_on,21,0,11,,,,,,,,7,,,50,32
55480,note_on,21,0,8,,,,,,,,7,,,68,31
55499,note_on,19,0,10,,,,,,,,7,,,62,0
55499,note_on,19,0,9,,,,,,,,7,,,65,0
55499,note_on,19,0,8,,,,,,,,7,,,68,0
55499,note_on,19,0,11,,,,,,,,7,,,50,0
55520,note_on,21,0,10,,,,,,,,7,,,60,31
55520,note_on,21,0,9,,,,,,,,7,,,63,33
55520,note_on,21,0,8,,,,,,,,7,,,69,31
55520,note_on,21,0,11,,,,,,,,7,,,48,32
55539,note_on,19,0,11,,,,,,,,7,,,48,0
55539,note_on,19,0,8,,,,,,,,7,,,69,0
55539,note_on,19,0,10,,,,,,,,7,,,60,0
55539,note_on,19,0,9,,,,,,,,7,,,63,0
55560,note_on,21,0,10,,,,,,,,7,,,58,31
55560,note_on,3921,0,2,,,,,,,,1,,,82,32
55560,note_on,21,0,9,,,,,,,,7,,,62,33
55560,note_on,21,0,11,,,,,,,,7,,,46,32
55560,note_on,21,0,8,,,,,,,,7,,,70,31
55579,note_on,19,0,11,,,,,,,,7,,,46,0
55579,note_on,19,0,8,,,,,,,,7,,,70,0
55579,note_on,19,0,10,,,,,,,,7,,,58,0
55579,note_on,19,0,2,,,,,,,,1,,,82,0
55579,note_on,19,0,9,,,,,,,,7,,,62,0
55600,note_on,21,0,2,,,,,,,,1,,,82,32
55600,note_on,21,0,11,,,,,,,,7,,,62,32
55600,note_on,21,0,10,,,,,,,,7,,,62,31
55600,note_on,21,0,8,,,,,,,,7,,,70,31
55600,note_on,21,0,9,,,,,,,,7,,,65,33
55619,note_on,19,0,2,,,,,,,,1,,,82,0
55619,note_on,19,0,10,,,,,,,,7,,,62,0
55619,note_on,19,0,9,,,,,,,,7,,,65,0
55619,note_on,19,0,11,,,,,,,,7,,,62,0
55619,note_on,19,0,8,,,,,,,,7,,,70,0
55620,note_on,1,0,9,,,,,,,,7,,,63,33
55639,note_on,19,0,9,,,,,,,,7,,,63,0
55640,note_on,21,0,10,,,,,,,,7,,,60,31
55640,note_on,21,0,8,,,,,,,,7,,,70,31
55640,note_on,21,0,2,,,,,,,,1,,,82,32
55640,note_on,21,0,11,,,,,,,,7,,,60,32
55659,note_on,19,0,11,,,,,,,,7,,,60,0
55659,note_on,19,0,2,,,,,,,,1,,,82,0
55659,note_on,19,0,10,,,,,,,,7,,,60,0
55659,note_on,19,0,8,,,,,,,,7,,,70,0
55680,note_on,21,0,11,,,,,,,,7,,,58,32
55680,note_on,21,0,8,,,,,,,,7,,,70,31
55680,note_on,21,0,10,,,,,,,,7,,,58,31
55680,note_on,41,0,9,,,,,,,,7,,,62,33
55680,note_on,21,0,2,,,,,,,,1,,,82,32
55699,note_on,19,0,9,,,,,,,,7,,,62,0
55699,note_on,19,0,2,,,,,,,,1,,,82,0
55699,note_on,19,0,10,,,,,,,,7,,,58,0
55699,note_on,19,0,11,,,,,,,,7,,,58,0
55699,note_on,19,0,8,,,,,,,,7,,,70,0
55720,note_on,21,0,2,,,,,,,,1,,,82,32
55720,note_on,21,0,10,,,,,,,,7,,,62,31
55720,note_on,21,0,8,,,,,,,,7,,,70,31
55720,note_on,21,0,9,,,,,,,,7,,,65,33
55720,note_on,21,0,11,,,,,,,,7,,,62,32
55739,note_on,19,0,11,,,,,,,,7,,,62,0
55739,note_on,19,0,10,,,,,,,,7,,,62,0
55739,note_on,19,0,8,,,,,,,,7,,,70,0
55739,note_on,19,0,9,,,,,,,,7,,,65,0
55739,note_on,19,0,2,,,,,,,,1,,,82,0
55760,note_on,21,0,11,,,,,,,,7,,,60,32
55760,note_on,21,0,9,,,,,,,,7,,,63,33
55760,note_on,21,0,8,,,,,,,,7,,,70,31
55760,note_on,21,0,2,,,,,,,,1,,,82,32
55760,note_on,21,0,10,,,,,,,,7,,,60,31
55779,note_on,19,0,10,,,,,,,,7,,,60,0
55779,note_on,19,0,9,,,,,,,,7,,,63,0
55779,note_on,19,0,11,,,,,,,,7,,,60,0
55779,note_on,19,0,2,,,,,,,,1,,,82,0
55779,note_on,19,0,8,,,,,,,,7,,,70,0
55800,note_on,21,0,10,,,,,,,,7,,,58,31
55800,note_on,21,0,9,,,,,,,,7,,,62,33
55800,note_on,21,0,11,,,,,,,,7,,,58,32
55800,note_on,21,0,8,,,,,,,,7,,,70,31
55800,note_on,21,0,2,,,,,,,,1,,,82,32
55819,note_on,19,0,11,,,,,,,,7,,,58,0
55819,note_on,19,0,10,,,,,,,,7,,,58,0
55819,note_on,19,0,9,,,,,,,,7,,,62,0
55840,note_on,21,0,10,,,,,,,,7,,,58,31
55840,note_on,40,0,2,,,,,,,,1,,,84,32
55840,note_on,21,0,9,,,,,,,,7,,,62,33
55840,note_on,40,0,8,,,,,,,,7,,,72,31
55840,note_on,21,0,11,,,,,,,,7,,,58,32
55842,note_on,2,0,2,,,,,,,,1,,,82,0
55842,note_on,2,0,8,,,,,,,,7,,,70,0
55859,note_on,19,0,10,,,,,,,,7,,,58,0
55859,note_on,19,0,9,,,,,,,,7,,,62,0
55859,note_on,19,0,11,,,,,,,,7,,,58,0
55860,note_on,18,0,2,,,,,,,,1,,,82,32
55860,note_on,18,0,8,,,,,,,,7,,,70,31
55862,note_on,2,0,2,,,,,,,,1,,,84,0
55862,note_on,2,0,8,,,,,,,,7,,,72,0
55880,note_on,18,0,8,,,,,,,,7,,,69,31
55880,note_on,21,0,11,,,,,,,,7,,,60,32
55880,note_on,18,0,2,,,,,,,,1,,,81,32
55880,note_on,21,0,9,,,,,,,,7,,,63,33
55880,note_on,21,0,10,,,,,,,,7,,,60,31
55882,note_on,2,0,2,,,,,,,,1,,,82,0
55882,note_on,2,0,8,,,,,,,,7,,,70,0
55899,note_on,19,0,11,,,,,,,,7,,,60,0
55899,note_on,19,0,9,,,,,,,,7,,,63,0
55899,note_on,19,0,10,,,,,,,,7,,,60,0
55900,note_on,18,0,2,,,,,,,,1,,,79,32
55900,note_on,18,0,8,,,,,,,,7,,,67,31
55902,note_on,2,0,2,,,,,,,,1,,,81,0
55902,note_on,2,0,8,,,,,,,,7,,,69,0
55919,note_on,17,0,8,,,,,,,,7,,,67,0
55919,note_on,17,0,2,,,,,,,,1,,,79,0
55920,note_on,21,0,10,,,,,,,,7,,,62,31
55920,note_on,21,0,9,,,,,,,,7,,,65,33
55920,note_on,21,0,11,,,,,,,,7,,,62,32
55920,note_on,1,0,2,,,,,,,,1,,,77,32
55939,note_on,19,0,9,,,,,,,,7,,,65,0
55939,note_on,19,0,10,,,,,,,,7,,,62,0
55939,note_on,19,0,11,,,,,,,,7,,,62,0
55940,note_on,21,0,8,,,,,,,,7,,,65,31
55960,note_on,21,0,10,,,,,,,,7,,,57,31
55960,note_on,21,0,11,,,,,,,,7,,,57,32
55960,note_on,21,0,9,,,,,,,,7,,,60,33
55979,note_on,19,0,9,,,,,,,,7,,,60,0
55979,note_on,19,0,10,,,,,,,,7,,,57,0
55979,note_on,19,0,11,,,,,,,,7,,,57,0
56000,note_on,21,0,11,,,,,,,,7,,,59,32
56000,note_on,21,0,10,,,,,,,,7,,,59,31
56000,note_on,21,0,9,,,,,,,,7,,,62,33
56019,note_on,19,0,11,,,,,,,,7,,,59,0
56019,note_on,19,0,9,,,,,,,,7,,,62,0
56019,note_on,19,0,10,,,,,,,,7,,,59,0
56039,note_on,99,0,8,,,,,,,,7,,,65,0
56039,note_on,119,0,2,,,,,,,,1,,,77,0
56040,note_on,1,0,2,,,,,,,,1,,,75,32
56040,note_on,21,0,10,,,,,,,,7,,,60,31
56040,note_on,21,0,9,,,,,,,,7,,,63,33
56040,note_on,21,0,11,,,,,,,,7,,,60,32
56059,note_on,19,0,9,,,,,,,,7,,,63,0
56059,note_on,19,0,11,,,,,,,,7,,,60,0
56059,note_on,19,0,10,,,,,,,,7,,,60,0
56060,note_on,21,0,8,,,,,,,,7,,,63,31
56080,note_on,21,0,10,,,,,,,,7,,,55,31
56080,note_on,21,0,11,,,,,,,,7,,,55,32
56080,note_on,21,0,9,,,,,,,,7,,,70,33
56099,note_on,19,0,11,,,,,,,,7,,,55,0
56099,note_on,19,0,9,,,,,,,,7,,,70,0
56099,note_on,19,0,10,,,,,,,,7,,,55,0
56120,note_on,21,0,9,,,,,,,,7,,,72,33
56120,note_on,21,0,11,,,,,,,,7,,,57,32
56120,note_on,21,0,10,,,,,,,,7,,,57,31
56139,note_on,19,0,9,,,,,,,,7,,,72,0
56139,note_on,19,0,11,,,,,,,,7,,,57,0
56139,note_on,19,0,10,,,,,,,,7,,,57,0
56159,note_on,119,0,2,,,,,,,,1,,,75,0
56159,note_on,99,0,8,,,,,,,,7,,,63,0
56160,note_on,1,0,2,,,,,,,,1,,,74,32
56160,note_on,21,0,10,,,,,,,,7,,,58,31
56160,note_on,21,0,11,,,,,,,,7,,,58,32
56160,note_on,1,0,8,,,,,,,,7,,,62,31
56160,note_on,21,0,9,,,,,,,,7,,,74,33
56179,note_on,19,0,11,,,,,,,,7,,,58,0
56179,note_on,19,0,10,,,,,,,,7,,,58,0
56179,note_on,19,0,9,,,,,,,,7,,,74,0
56200,note_on,40,0,8,,,,,,,,7,,,65,31
56200,note_on,21,0,10,,,,,,,,7,,,53,31
56200,note_on,21,0,11,,,,,,,,7,,,53,32
56200,note_on,21,0,9,,,,,,,,7,,,69,33
56200,note_on,40,0,2,,,,,,,,1,,,77,32
56202,note_on,2,0,2,,,,,,,,1,,,74,0
56202,note_on,2,0,8,,,,,,,,7,,,62,0
56219,note_on,19,0,9,,,,,,,,7,,,69,0
56219,note_on,19,0,11,,,,,,,,7,,,53,0
56219,note_on,19,0,10,,,,,,,,7,,,53,0
56239,note_on,37,0,2,,,,,,,,1,,,77,0
56239,note_on,37,0,8,,,,,,,,7,,,65,0
56240,note_on,1,0,8,,,,,,,,7,,,62,31
56240,note_on,21,0,10,,,,,,,,7,,,55,31
56240,note_on,21,0,9,,,,,,,,7,,,70,33
56240,note_on,21,0,11,,,,,,,,7,,,55,32
56240,note_on,1,0,2,,,,,,,,1,,,74,32
56259,note_on,19,0,10,,,,,,,,7,,,55,0
56259,note_on,19,0,2,,,,,,,,1,,,74,0
56259,note_on,19,0,11,,,,,,,,7,,,55,0
56259,note_on,19,0,8,,,,,,,,7,,,62,0
56259,note_on,19,0,9,,,,,,,,7,,,70,0
56280,note_on,21,0,11,,,,,,,,7,,,51,32
56280,note_on,21,0,8,,,,,,,,7,,,60,31
56280,note_on,21,0,2,,,,,,,,1,,,72,32
56280,note_on,21,0,10,,,,,,,,7,,,51,31
56280,note_on,21,0,9,,,,,,,,7,,,67,33
56299,note_on,19,0,10,,,,,,,,7,,,51,0
56299,note_on,19,0,11,,,,,,,,7,,,51,0
56299,note_on,19,0,9,,,,,,,,7,,,67,0
56320,note_on,40,0,8,,,,,,,,7,,,63,31
56320,note_on,40,0,2,,,,,,,,1,,,75,32
56320,note_on,21,0,11,,,,,,,,7,,,48,32
56320,note_on,21,0,10,,,,,,,,7,,,48,31
56320,note_on,21,0,9,,,,,,,,7,,,67,33
56322,note_on,2,0,8,,,,,,,,7,,,60,0
56322,note_on,2,0,2,,,,,,,,1,,,72,0
56339,note_on,19,0,9,,,,,,,,7,,,67,0
56339,note_on,19,0,10,,,,,,,,7,,,48,0
56339,note_on,19,0,11,,,,,,,,7,,,48,0
56359,note_on,37,0,8,,,,,,,,7,,,63,0
56359,note_on,37,0,2,,,,,,,,1,,,75,0
56360,note_on,1,0,2,,,,,,,,1,,,72,32
56360,note_on,21,0,10,,,,,,,,7,,,57,31
56360,note_on,21,0,11,,,,,,,,7,,,53,32
56360,note_on,1,0,8,,,,,,,,7,,,60,31
56360,note_on,21,0,9,,,,,,,,7,,,63,33
56379,note_on,19,0,10,,,,,,,,7,,,57,0
56379,note_on,19,0,9,,,,,,,,7,,,63,0
56379,note_on,19,0,8,,,,,,,,7,,,60,0
56379,note_on,19,0,11,,,,,,,,7,,,53,0
56379,note_on,19,0,2,,,,,,,,1,,,72,0
56400,note_on,21,0,9,,,,,,,,7,,,62,33
56400,note_on,21,0,8,,,,,,,,7,,,58,31
56400,note_on,21,0,2,,,,,,,,1,,,70,32
56400,note_on,21,0,10,,,,,,,,7,,,58,31
56400,note_on,21,0,11,,,,,,,,7,,,46,32
56419,note_on,19,0,10,,,,,,,,7,,,58,0
56419,note_on,19,0,9,,,,,,,,7,,,62,0
56419,note_on,19,0,11,,,,,,,,7,,,46,0
56419,note_on,19,0,2,,,,,,,,1,,,70,0
56419,note_on,19,0,8,,,,,,,,7,,,58,0
56440,note_on,21,0,11,,,,,,,,7,,,46,32
56440,note_on,1581,0,12,,,,,,,,7,,,34,32
56459,note_on,19,0,11,,,,,,,,7,,,46,0
56479,note_on,39,0,12,,,,,,,,7,,,34,0
56480,note_on,1,0,12,,,,,,,,7,,,34,32
56480,note_on,61,0,10,,,,,,,,7,,,51,31
56480,note_on,61,0,8,,,,,,,,7,,,58,31
56480,note_on,21,0,11,,,,,,,,7,,,46,32
56480,note_on,61,0,9,,,,,,,,7,,,55,33
56499,note_on,19,0,10,,,,,,,,7,,,51,0
56499,note_on,19,0,9,,,,,,,,7,,,55,0
56499,note_on,19,0,11,,,,,,,,7,,,46,0
56499,note_on,19,0,8,,,,,,,,7,,,58,0
56519,note_on,39,0,12,,,,,,,,7,,,34,0
56520,note_on,1,0,12,,,,,,,,7,,,34,32
56520,note_on,21,0,11,,,,,,,,7,,,46,32
56520,note_on,21,0,9,,,,,,,,7,,,55,33
56520,note_on,21,0,8,,,,,,,,7,,,58,31
56520,note_on,21,0,10,,,,,,,,7,,,51,31
56539,note_on,19,0,11,,,,,,,,7,,,46,0
56539,note_on,19,0,9,,,,,,,,7,,,55,0
56539,note_on,19,0,10,,,,,,,,7,,,51,0
56539,note_on,19,0,8,,,,,,,,7,,,58,0
56559,note_on,39,0,12,,,,,,,,7,,,34,0
56560,note_on,21,0,9,,,,,,,,7,,,56,33
56560,note_on,21,0,10,,,,,,,,7,,,51,31
56560,note_on,1,0,12,,,,,,,,7,,,34,32
56560,note_on,21,0,11,,,,,,,,7,,,46,32
56560,note_on,21,0,8,,,,,,,,7,,,60,31
56579,note_on,19,0,8,,,,,,,,7,,,60,0
56579,note_on,19,0,9,,,,,,,,7,,,56,0
56579,note_on,19,0,11,,,,,,,,7,,,46,0
56579,note_on,19,0,10,,,,,,,,7,,,51,0
56599,note_on,39,0,12,,,,,,,,7,,,34,0
56600,note_on,21,0,11,,,,,,,,7,,,46,32
56600,note_on,21,0,8,,,,,,,,7,,,58,31
56600,note_on,21,0,9,,,,,,,,7,,,55,33
56600,note_on,21,0,10,,,,,,,,7,,,51,31
56600,note_on,1,0,12,,,,,,,,7,,,34,32
56619,note_on,19,0,8,,,,,,,,7,,,58,0
56619,note_on,19,0,11,,,,,,,,7,,,46,0
56619,note_on,19,0,10,,,,,,,,7,,,51,0
56619,note_on,19,0,9,,,,,,,,7,,,55,0
56639,note_on,39,0,12,,,,,,,,7,,,34,0
56640,note_on,1,0,12,,,,,,,,7,,,34,32
56640,note_on,21,0,9,,,,,,,,7,,,56,33
56640,note_on,21,0,8,,,,,,,,7,,,60,31
56640,note_on,21,0,10,,,,,,,,7,,,51,31
56640,note_on,21,0,11,,,,,,,,7,,,46,32
56659,note_on,19,0,8,,,,,,,,7,,,60,0
56659,note_on,19,0,9,,,,,,,,7,,,56,0
56659,note_on,19,0,11,,,,,,,,7,,,46,0
56659,note_on,19,0,10,,,,,,,,7,,,51,0
56679,note_on,39,0,12,,,,,,,,7,,,34,0
56680,note_on,21,0,11,,,,,,,,7,,,46,32
56680,note_on,21,0,8,,,,,,,,7,,,58,31
56680,note_on,1,0,12,,,,,,,,7,,,34,32
56680,note_on,21,0,9,,,,,,,,7,,,55,33
56680,note_on,21,0,10,,,,,,,,7,,,51,31
56699,note_on,19,0,8,,,,,,,,7,,,58,0
56699,note_on,19,0,10,,,,,,,,7,,,51,0
56699,note_on,19,0,9,,,,,,,,7,,,55,0
56699,note_on,19,0,11,,,,,,,,7,,,46,0
56719,note_on,39,0,12,,,,,,,,7,,,34,0
56720,note_on,21,0,11,,,,,,,,7,,,46,32
56720,note_on,1,0,12,,,,,,,,7,,,34,32
56720,note_on,21,0,9,,,,,,,,7,,,56,33
56720,note_on,21,0,8,,,,,,,,7,,,60,31
56720,note_on,21,0,10,,,,,,,,7,,,51,31
56739,note_on,19,0,11,,,,,,,,7,,,46,0
56739,note_on,19,0,9,,,,,,,,7,,,56,0
56739,note_on,19,0,10,,,,,,,,7,,,51,0
56739,note_on,19,0,8,,,,,,,,7,,,60,0
56759,note_on,39,0,12,,,,,,,,7,,,34,0
56760,note_on,21,0,11,,,,,,,,7,,,46,32
56760,note_on,21,0,9,,,,,,,,7,,,55,33
56760,note_on,1,0,12,,,,,,,,7,,,34,32
56760,note_on,21,0,8,,,,,,,,7,,,58,31
56760,note_on,21,0,10,,,,,,,,7,,,51,31
56779,note_on,19,0,11,,,,,,,,7,,,46,0
56779,note_on,19,0,10,,,,,,,,7,,,51,0
56779,note_on,19,0,9,,,,,,,,7,,,55,0
56779,note_on,19,0,8,,,,,,,,7,,,58,0
56799,note_on,39,0,12,,,,,,,,7,,,34,0
56800,note_on,1,0,12,,,,,,,,7,,,34,32
56800,note_on,21,0,11,,,,,,,,7,,,46,32
56800,note_on,21,0,8,,,,,,,,7,,,60,31
56800,note_on,21,0,10,,,,,,,,7,,,51,31
56800,note_on,21,0,9,,,,,,,,7,,,56,33
56819,note_on,19,0,9,,,,,,,,7,,,56,0
56819,note_on,19,0,11,,,,,,,,7,,,46,0
56819,note_on,19,0,8,,,,,,,,7,,,60,0
56819,note_on,19,0,10,,,,,,,,7,,,51,0
56839,note_on,39,0,12,,,,,,,,7,,,34,0
56840,note_on,21,0,10,,,,,,,,7,,,51,31
56840,note_on,1,0,12,,,,,,,,7,,,34,32
56840,note_on,21,0,11,,,,,,,,7,,,46,32
56840,note_on,21,0,9,,,,,,,,7,,,55,33
56840,note_on,21,0,8,,,,,,,,7,,,58,31
56859,note_on,19,0,9,,,,,,,,7,,,55,0
56859,note_on,19,0,8,,,,,,,,7,,,58,0
56859,note_on,19,0,11,,,,,,,,7,,,46,0
56859,note_on,19,0,10,,,,,,,,7,,,51,0
56879,note_on,39,0,12,,,,,,,,7,,,34,0
56880,note_on,21,0,9,,,,,,,,7,,,56,33
56880,note_on,21,0,8,,,,,,,,7,,,60,31
56880,note_on,21,0,11,,,,,,,,7,,,46,32
56880,note_on,1,0,12,,,,,,,,7,,,34,32
56880,note_on,21,0,10,,,,,,,,7,,,51,31
56899,note_on,19,0,11,,,,,,,,7,,,46,0
56899,note_on,19,0,9,,,,,,,,7,,,56,0
56899,note_on,19,0,10,,,,,,,,7,,,51,0
56899,note_on,19,0,8,,,,,,,,7,,,60,0
56919,note_on,39,0,12,,,,,,,,7,,,34,0
56920,note_on,21,0,9,,,,,,,,7,,,55,33
56920,note_on,21,0,8,,,,,,,,7,,,58,31
56920,note_on,21,0,10,,,,,,,,7,,,51,31
56920,note_on,1,0,12,,,,,,,,7,,,34,32
56920,note_on,21,0,11,,,,,,,,7,,,46,32
56939,note_on,19,0,9,,,,,,,,7,,,55,0
56939,note_on,19,0,8,,,,,,,,7,,,58,0
56939,note_on,19,0,11,,,,,,,,7,,,46,0
56939,note_on,19,0,10,,,,,,,,7,,,51,0
56959,note_on,39,0,12,,,,,,,,7,,,34,0
56960,note_on,21,0,11,,,,,,,,7,,,56,32
56960,note_on,541,0,2,,,,,,,,1,,,74,32
56960,note_on,21,0,9,,,,,,,,7,,,58,33
56960,note_on,1,0,12,,,,,,,,7,,,44,32
56960,note_on,21,0,8,,,,,,,,7,,,62,31
56960,note_on,21,0,10,,,,,,,,7,,,53,31
56979,note_on,19,0,11,,,,,,,,7,,,56,0
56979,note_on,19,0,8,,,,,,,,7,,,62,0
56979,note_on,19,0,2,,,,,,,,1,,,74,0
56979,note_on,19,0,9,,,,,,,,7,,,58,0
56979,note_on,19,0,10,,,,,,,,7,,,53,0
56999,note_on,39,0,12,,,,,,,,7,,,44,0
57000,note_on,21,0,10,,,,,,,,7,,,55,31
57000,note_on,1,0,12,,,,,,,,7,,,43,32
57000,note_on,21,0,9,,,,,,,,7,,,58,33
57000,note_on,21,0,11,,,,,,,,7,,,55,32
57000,note_on,21,0,2,,,,,,,,1,,,75,32
57000,note_on,21,0,8,,,,,,,,7,,,63,31
57019,note_on,19,0,2,,,,,,,,1,,,75,0
57019,note_on,19,0,11,,,,,,,,7,,,55,0
57019,note_on,19,0,10,,,,,,,,7,,,55,0
57019,note_on,19,0,8,,,,,,,,7,,,63,0
57019,note_on,19,0,9,,,,,,,,7,,,58,0
57039,note_on,39,0,12,,,,,,,,7,,,43,0
57040,note_on,21,0,9,,,,,,,,7,,,58,33
57040,note_on,21,0,11,,,,,,,,7,,,50,32
57040,note_on,21,0,8,,,,,,,,7,,,65,31
57040,note_on,21,0,2,,,,,,,,1,,,77,32
57040,note_on,21,0,10,,,,,,,,7,,,56,31
57040,note_on,1,0,12,,,,,,,,7,,,38,32
57059,note_on,19,0,8,,,,,,,,7,,,65,0
57059,note_on,19,0,10,,,,,,,,7,,,56,0
57059,note_on,19,0,11,,,,,,,,7,,,50,0
57059,note_on,19,0,9,,,,,,,,7,,,58,0
57059,note_on,19,0,2,,,,,,,,1,,,77,0
57079,note_on,39,0,12,,,,,,,,7,,,38,0
57080,note_on,21,0,11,,,,,,,,7,,,50,32
57080,note_on,21,0,10,,,,,,,,7,,,50,31
57080,note_on,1,0,12,,,,,,,,7,,,38,32
57080,note_on,21,0,9,,,,,,,,7,,,58,33
57080,note_on,21,0,8,,,,,,,,7,,,66,31
57080,note_on,21,0,2,,,,,,,,1,,,78,32
57099,note_on,19,0,9,,,,,,,,7,,,58,0
57099,note_on,19,0,11,,,,,,,,7,,,50,0
57099,note_on,19,0,8,,,,,,,,7,,,66,0
57099,note_on,19,0,10,,,,,,,,7,,,50,0
57099,note_on,19,0,2,,,,,,,,1,,,78,0
57119,note_on,39,0,12,,,,,,,,7,,,38,0
57120,note_on,1,0,12,,,,,,,,7,,,39,32
57120,note_on,21,0,2,,,,,,,,1,,,79,32
57120,note_on,21,0,9,,,,,,,,7,,,58,33
57120,note_on,21,0,11,,,,,,,,7,,,51,32
57120,note_on,21,0,10,,,,,,,,7,,,51,31
57120,note_on,21,0,8,,,,,,,,7,,,67,31
57139,note_on,19,0,10,,,,,,,,7,,,51,0
57139,note_on,19,0,8,,,,,,,,7,,,67,0
57139,note_on,19,0,9,,,,,,,,7,,,58,0
57139,note_on,19,0,2,,,,,,,,1,,,79,0
57139,note_on,19,0,11,,,,,,,,7,,,51,0
57159,note_on,39,0,12,,,,,,,,7,,,39,0
57160,note_on,1,0,12,,,,,,,,7,,,38,32
57160,note_on,21,0,9,,,,,,,,7,,,65,33
57160,note_on,21,0,11,,,,,,,,7,,,50,32
57160,note_on,21,0,10,,,,,,,,7,,,58,31
57160,note_on,21,0,2,,,,,,,,1,,,80,32
57160,note_on,21,0,8,,,,,,,,7,,,68,31
57179,note_on,19,0,2,,,,,,,,1,,,80,0
57179,note_on,19,0,9,,,,,,,,7,,,65,0
57179,note_on,19,0,8,,,,,,,,7,,,68,0
57179,note_on,19,0,10,,,,,,,,7,,,58,0
57179,note_on,19,0,11,,,,,,,,7,,,50,0
57199,note_on,39,0,12,,,,,,,,7,,,38,0
57200,note_on,1,0,12,,,,,,,,7,,,36,32
57200,note_on,21,0,9,,,,,,,,7,,,63,33
57200,note_on,21,0,8,,,,,,,,7,,,69,31
57200,note_on,21,0,2,,,,,,,,1,,,81,32
57200,note_on,21,0,10,,,,,,,,7,,,60,31
57200,note_on,21,0,11,,,,,,,,7,,,48,32
57219,note_on,19,0,8,,,,,,,,7,,,69,0
57219,note_on,19,0,11,,,,,,,,7,,,48,0
57219,note_on,19,0,10,,,,,,,,7,,,60,0
57219,note_on,19,0,2,,,,,,,,1,,,81,0
57219,note_on,19,0,9,,,,,,,,7,,,63,0
57239,note_on,39,0,12,,,,,,,,7,,,36,0
57240,note_on,1,0,12,,,,,,,,7,,,34,32
57240,note_on,21,0,11,,,,,,,,7,,,46,32
57240,note_on,21,0,8,,,,,,,,7,,,70,31
57240,note_on,21,0,9,,,,,,,,7,,,62,33
57240,note_on,21,0,10,,,,,,,,7,,,62,31
57240,note_on,21,0,2,,,,,,,,1,,,82,32
57259,note_on,19,0,9,,,,,,,,7,,,62,0
57259,note_on,19,0,2,,,,,,,,1,,,82,0
57259,note_on,19,0,11,,,,,,,,7,,,46,0
57259,note_on,19,0,10,,,,,,,,7,,,62,0
57259,note_on,19,0,8,,,,,,,,7,,,70,0
57279,note_on,39,0,12,,,,,,,,7,,,34,0
57280,note_on,1,0,12,,,,,,,,7,,,50,32
57280,note_on,21,0,9,,,,,,,,7,,,77,33
57280,note_on,21,0,11,,,,,,,,7,,,62,32
57280,note_on,21,0,8,,,,,,,,7,,,70,31
57280,note_on,21,0,10,,,,,,,,7,,,65,31
57280,note_on,21,0,2,,,,,,,,1,,,82,32
57299,note_on,19,0,9,,,,,,,,7,,,77,0
57299,note_on,19,0,10,,,,,,,,7,,,65,0
57299,note_on,19,0,2,,,,,,,,1,,,82,0
57299,note_on,19,0,11,,,,,,,,7,,,62,0
57299,note_on,19,0,8,,,,,,,,7,,,70,0
57319,note_on,39,0,12,,,,,,,,7,,,50,0
57320,note_on,21,0,11,,,,,,,,7,,,60,32
57320,note_on,21,0,2,,,,,,,,1,,,82,32
57320,note_on,21,0,10,,,,,,,,7,,,63,31
57320,note_on,21,0,9,,,,,,,,7,,,75,33
57320,note_on,1,0,12,,,,,,,,7,,,48,32
57320,note_on,21,0,8,,,,,,,,7,,,70,31
57339,note_on,19,0,8,,,,,,,,7,,,70,0
57339,note_on,19,0,11,,,,,,,,7,,,60,0
57339,note_on,19,0,10,,,,,,,,7,,,63,0
57339,note_on,19,0,2,,,,,,,,1,,,82,0
57339,note_on,19,0,9,,,,,,,,7,,,75,0
57359,note_on,39,0,12,,,,,,,,7,,,48,0
57360,note_on,21,0,2,,,,,,,,1,,,82,32
57360,note_on,1,0,12,,,,,,,,7,,,46,32
57360,note_on,21,0,8,,,,,,,,7,,,70,31
57360,note_on,21,0,11,,,,,,,,7,,,58,32
57360,note_on,21,0,10,,,,,,,,7,,,62,31
57360,note_on,21,0,9,,,,,,,,7,,,74,33
57379,note_on,19,0,10,,,,,,,,7,,,62,0
57379,note_on,19,0,11,,,,,,,,7,,,58,0
57379,note_on,19,0,8,,,,,,,,7,,,70,0
57379,note_on,19,0,2,,,,,,,,1,,,82,0
57379,note_on,19,0,9,,,,,,,,7,,,74,0
57399,note_on,39,0,12,,,,,,,,7,,,46,0
57400,note_on,21,0,11,,,,,,,,7,,,62,32
57400,note_on,21,0,2,,,,,,,,1,,,82,32
57400,note_on,21,0,9,,,,,,,,7,,,77,33
57400,note_on,1,0,12,,,,,,,,7,,,50,32
57400,note_on,21,0,10,,,,,,,,7,,,65,31
57400,note_on,21,0,8,,,,,,,,7,,,70,31
57419,note_on,19,0,2,,,,,,,,1,,,82,0
57419,note_on,19,0,10,,,,,,,,7,,,65,0
57419,note_on,19,0,8,,,,,,,,7,,,70,0
57419,note_on,19,0,9,,,,,,,,7,,,77,0
57419,note_on,19,0,11,,,,,,,,7,,,62,0
57439,note_on,39,0,12,,,,,,,,7,,,50,0
57440,note_on,21,0,9,,,,,,,,7,,,75,33
57440,note_on,1,0,12,,,,,,,,7,,,48,32
57440,note_on,21,0,10,,,,,,,,7,,,63,31
57440,note_on,21,0,2,,,,,,,,1,,,82,32
57440,note_on,21,0,11,,,,,,,,7,,,60,32
57440,note_on,21,0,8,,,,,,,,7,,,70,31
57459,note_on,19,0,10,,,,,,,,7,,,63,0
57459,note_on,19,0,2,,,,,,,,1,,,82,0
57459,note_on,19,0,9,,,,,,,,7,,,75,0
57459,note_on,19,0,11,,,,,,,,7,,,60,0
57459,note_on,19,0,8,,,,,,,,7,,,70,0
57479,note_on,39,0,12,,,,,,,,7,,,48,0
57480,note_on,21,0,2,,,,,,,,1,,,82,32
57480,note_on,21,0,11,,,,,,,,7,,,58,32
57480,note_on,1,0,12,,,,,,,,7,,,46,32
57480,note_on,21,0,9,,,,,,,,7,,,74,33
57480,note_on,21,0,10,,,,,,,,7,,,62,31
57480,note_on,21,0,8,,,,,,,,7,,,70,31
57499,note_on,19,0,11,,,,,,,,7,,,58,0
57499,note_on,19,0,9,,,,,,,,7,,,74,0
57499,note_on,19,0,10,,,,,,,,7,,,62,0
57519,note_on,39,0,12,,,,,,,,7,,,46,0
57520,note_on,21,0,10,,,,,,,,7,,,62,31
57520,note_on,40,0,2,,,,,,,,1,,,84,32
57520,note_on,21,0,11,,,,,,,,7,,,58,32
57520,note_on,40,0,8,,,,,,,,7,,,72,31
57520,note_on,21,0,9,,,,,,,,7,,,74,33
57520,note_on,1,0,12,,,,,,,,7,,,46,32
57522,note_on,2,0,2,,,,,,,,1,,,82,0
57522,note_on,2,0,8,,,,,,,,7,,,70,0
57539,note_on,19,0,10,,,,,,,,7,,,62,0
57539,note_on,19,0,9,,,,,,,,7,,,74,0
57539,note_on,19,0,11,,,,,,,,7,,,58,0
57540,note_on,18,0,8,,,,,,,,7,,,70,31
57540,note_on,18,0,2,,,,,,,,1,,,82,32
57542,note_on,2,0,2,,,,,,,,1,,,84,0
57542,note_on,2,0,8,,,,,,,,7,,,72,0
57559,note_on,39,0,12,,,,,,,,7,,,46,0
57560,note_on,18,0,2,,,,,,,,1,,,81,32
57560,note_on,21,0,9,,,,,,,,7,,,75,33
57560,note_on,21,0,10,,,,,,,,7,,,63,31
57560,note_on,18,0,8,,,,,,,,7,,,69,31
57560,note_on,1,0,12,,,,,,,,7,,,48,32
57560,note_on,21,0,11,,,,,,,,7,,,60,32
57562,note_on,2,0,8,,,,,,,,7,,,70,0
57562,note_on,2,0,2,,,,,,,,1,,,82,0
57579,note_on,19,0,10,,,,,,,,7,,,63,0
57579,note_on,19,0,9,,,,,,,,7,,,75,0
57579,note_on,19,0,11,,,,,,,,7,,,60,0
57580,note_on,18,0,8,,,,,,,,7,,,67,31
57580,note_on,18,0,2,,,,,,,,1,,,79,32
57582,note_on,2,0,2,,,,,,,,1,,,81,0
57582,note_on,2,0,8,,,,,,,,7,,,69,0
57599,note_on,17,0,2,,,,,,,,1,,,79,0
57599,note_on,17,0,8,,,,,,,,7,,,67,0
57599,note_on,39,0,12,,,,,,,,7,,,48,0
57600,note_on,21,0,10,,,,,,,,7,,,65,31
57600,note_on,1,0,12,,,,,,,,7,,,50,32
57600,note_on,21,0,9,,,,,,,,7,,,77,33
57600,note_on,1,0,2,,,,,,,,1,,,77,32
57600,note_on,21,0,11,,,,,,,,7,,,62,32
57619,note_on,19,0,9,,,,,,,,7,,,77,0
57619,note_on,19,0,10,,,,,,,,7,,,65,0
57619,note_on,19,0,11,,,,,,,,7,,,62,0
57620,note_on,21,0,8,,,,,,,,7,,,65,31
57639,note_on,39,0,12,,,,,,,,7,,,50,0
57640,note_on,21,0,10,,,,,,,,7,,,60,31
57640,note_on,1,0,12,,,,,,,,7,,,45,32
57640,note_on,21,0,11,,,,,,,,7,,,57,32
57640,note_on,21,0,9,,,,,,,,7,,,72,33
57659,note_on,19,0,10,,,,,,,,7,,,60,0
57659,note_on,19,0,9,,,,,,,,7,,,72,0
57659,note_on,19,0,11,,,,,,,,7,,,57,0
57679,note_on,39,0,12,,,,,,,,7,,,45,0
57680,note_on,1,0,12,,,,,,,,7,,,47,32
57680,note_on,21,0,9,,,,,,,,7,,,74,33
57680,note_on,21,0,11,,,,,,,,7,,,59,32
57680,note_on,21,0,10,,,,,,,,7,,,62,31
57699,note_on,19,0,11,,,,,,,,7,,,59,0
57699,note_on,19,0,9,,,,,,,,7,,,74,0
57699,note_on,19,0,10,,,,,,,,7,,,62,0
57719,note_on,119,0,2,,,,,,,,1,,,77,0
57719,note_on,39,0,12,,,,,,,,7,,,47,0
57719,note_on,99,0,8,,,,,,,,7,,,65,0
57720,note_on,21,0,9,,,,,,,,7,,,75,33
57720,note_on,21,0,10,,,,,,,,7,,,63,31
57720,note_on,21,0,11,,,,,,,,7,,,60,32
57720,note_on,1,0,12,,,,,,,,7,,,48,32
57720,note_on,8001,0,4,,,,,,,,3,,,63,49
57720,note_on,8001,0,1,,,,,,,,0,,,87,48
57720,note_on,1,0,2,,,,,,,,1,,,75,32
57739,note_on,19,0,10,,,,,,,,7,,,63,0
57739,note_on,19,0,11,,,,,,,,7,,,60,0
57739,note_on,19,0,9,,,,,,,,7,,,75,0
57740,note_on,21,0,8,,,,,,,,7,,,63,31
57759,note_on,39,0,12,,,,,,,,7,,,48,0
57760,note_on,21,0,9,,,,,,,,7,,,70,33
57760,note_on,21,0,10,,,,,,,,7,,,58,31
57760,note_on,21,0,11,,,,,,,,7,,,55,32
57760,note_on,1,0,12,,,,,,,,7,,,43,32
57779,note_on,19,0,11,,,,,,,,7,,,55,0
57779,note_on,19,0,10,,,,,,,,7,,,58,0
57779,note_on,19,0,9,,,,,,,,7,,,70,0
57799,note_on,39,0,12,,,,,,,,7,,,43,0
57800,note_on,21,0,11,,,,,,,,7,,,57,32
57800,note_on,21,0,10,,,,,,,,7,,,60,31
57800,note_on,1,0,12,,,,,,,,7,,,45,32
57800,note_on,21,0,9,,,,,,,,7,,,72,33
57819,note_on,19,0,10,,,,,,,,7,,,60,0
57819,note_on,19,0,9,,,,,,,,7,,,72,0
57819,note_on,19,0,11,,,,,,,,7,,,57,0
57839,note_on,119,0,1,,,,,,,,0,,,87,0
57839,note_on,119,0,4,,,,,,,,3,,,63,0
57839,note_on,39,0,12,,,,,,,,7,,,45,0
57839,note_on,119,0,2,,,,,,,,1,,,75,0
57839,note_on,99,0,8,,,,,,,,7,,,63,0
57840,note_on,1,0,1,,,,,,,,0,,,86,48
57840,note_on,1,0,12,,,,,,,,7,,,46,32
57840,note_on,21,0,9,,,,,,,,7,,,74,33
57840,note_on,1,0,2,,,,,,,,1,,,74,32
57840,note_on,21,0,11,,,,,,,,7,,,58,32
57840,note_on,21,0,10,,,,,,,,7,,,62,31
57840,note_on,1,0,4,,,,,,,,3,,,62,49
57840,note_on,1,0,8,,,,,,,,7,,,62,31
57859,note_on,19,0,10,,,,,,,,7,,,62,0
57859,note_on,19,0,9,,,,,,,,7,,,74,0
57859,note_on,19,0,11,,,,,,,,7,,,58,0
57879,note_on,39,0,12,,,,,,,,7,,,46,0
57880,note_on,21,0,10,,,,,,,,7,,,57,31
57880,note_on,40,0,1,,,,,,,,0,,,89,48
57880,note_on,21,0,9,,,,,,,,7,,,69,33
57880,note_on,1,0,12,,,,,,,,7,,,41,32
57880,note_on,21,0,11,,,,,,,,7,,,53,32
57880,note_on,40,0,2,,,,,,,,1,,,77,32
57880,note_on,40,0,4,,,,,,,,3,,,65,49
57880,note_on,40,0,8,,,,,,,,7,,,65,31
57882,note_on,2,0,8,,,,,,,,7,,,62,0
57882,note_on,2,0,4,,,,,,,,3,,,62,0
57882,note_on,2,0,1,,,,,,,,0,,,86,0
57882,note_on,2,0,2,,,,,,,,1,,,74,0
57899,note_on,19,0,11,,,,,,,,7,,,53,0
57899,note_on,19,0,10,,,,,,,,7,,,57,0
57899,note_on,19,0,9,,,,,,,,7,,,69,0
57919,note_on,37,0,2,,,,,,,,1,,,77,0
57919,note_on,39,0,12,,,,,,,,7,,,41,0
57919,note_on,37,0,4,,,,,,,,3,,,65,0
57919,note_on,37,0,1,,,,,,,,0,,,89,0
57919,note_on,37,0,8,,,,,,,,7,,,65,0
57920,note_on,1,0,12,,,,,,,,7,,,43,31
57920,note_on,1,0,4,,,,,,,,3,,,62,49
57920,note_on,21,0,9,,,,,,,,7,,,70,33
57920,note_on,21,0,11,,,,,,,,7,,,55,32
57920,note_on,21,0,10,,,,,,,,7,,,58,31
57920,note_on,1,0,1,,,,,,,,0,,,86,48
57920,note_on,1,0,2,,,,,,,,1,,,74,32
57920,note_on,1,0,8,,,,,,,,7,,,62,31
57939,note_on,19,0,8,,,,,,,,7,,,62,0
57939,note_on,19,0,11,,,,,,,,7,,,55,0
57939,note_on,19,0,9,,,,,,,,7,,,70,0
57939,note_on,19,0,4,,,,,,,,3,,,62,0
57939,note_on,19,0,10,,,,,,,,7,,,58,0
57939,note_on,19,0,1,,,,,,,,0,,,86,0
57939,note_on,19,0,2,,,,,,,,1,,,74,0
57959,note_on,39,0,12,,,,,,,,7,,,43,0
57960,note_on,1,0,12,,,,,,,,7,,,39,32
57960,note_on,21,0,10,,,,,,,,7,,,55,31
57960,note_on,21,0,9,,,,,,,,7,,,67,33
57960,note_on,21,0,4,,,,,,,,3,,,60,49
57960,note_on,21,0,1,,,,,,,,0,,,84,48
57960,note_on,21,0,8,,,,,,,,7,,,60,31
57960,note_on,21,0,11,,,,,,,,7,,,51,32
57960,note_on,21,0,2,,,,,,,,1,,,72,32
57979,note_on,19,0,10,,,,,,,,7,,,55,0
57979,note_on,19,0,11,,,,,,,,7,,,51,0
57979,note_on,19,0,9,,,,,,,,7,,,67,0
57999,note_on,39,0,12,,,,,,,,7,,,39,0
58000,note_on,40,0,2,,,,,,,,1,,,75,32
58000,note_on,40,0,1,,,,,,,,0,,,87,48
58000,note_on,21,0,11,,,,,,,,7,,,48,32
58000,note_on,21,0,10,,,,,,,,7,,,55,31
58000,note_on,40,0,8,,,,,,,,7,,,63,31
58000,note_on,40,0,4,,,,,,,,3,,,63,49
58000,note_on,21,0,9,,,,,,,,7,,,67,33
58000,note_on,1,0,12,,,,,,,,7,,,36,32
58002,note_on,2,0,8,,,,,,,,7,,,60,0
58002,note_on,2,0,4,,,,,,,,3,,,60,0
58002,note_on,2,0,1,,,,,,,,0,,,84,0
58002,note_on,2,0,2,,,,,,,,1,,,72,0
58019,note_on,19,0,10,,,,,,,,7,,,55,0
58019,note_on,19,0,11,,,,,,,,7,,,48,0
58019,note_on,19,0,9,,,,,,,,7,,,67,0
58039,note_on,37,0,1,,,,,,,,0,,,87,0
58039,note_on,39,0,12,,,,,,,,7,,,36,0
58039,note_on,37,0,4,,,,,,,,3,,,63,0
58039,note_on,37,0,2,,,,,,,,1,,,75,0
58039,note_on,37,0,8,,,,,,,,7,,,63,0
58040,note_on,21,0,9,,,,,,,,7,,,63,33
58040,note_on,21,0,11,,,,,,,,7,,,53,32
58040,note_on,1,0,12,,,,,,,,7,,,41,32
58040,note_on,1,0,8,,,,,,,,7,,,60,31
58040,note_on,1,0,1,,,,,,,,0,,,84,48
58040,note_on,1,0,4,,,,,,,,3,,,60,49
58040,note_on,21,0,10,,,,,,,,7,,,57,31
58040,note_on,1,0,2,,,,,,,,1,,,72,32
58059,note_on,19,0,2,,,,,,,,1,,,72,0
58059,note_on,19,0,9,,,,,,,,7,,,63,0
58059,note_on,19,0,1,,,,,,,,0,,,84,0
58059,note_on,19,0,11,,,,,,,,7,,,53,0
58059,note_on,19,0,4,,,,,,,,3,,,60,0
58059,note_on,19,0,8,,,,,,,,7,,,60,0
58059,note_on,19,0,10,,,,,,,,7,,,57,0
58079,note_on,39,0,12,,,,,,,,7,,,41,0
58080,note_on,21,0,1,,,,,,,,0,,,82,48
58080,note_on,21,0,10,,,,,,,,7,,,58,31
58080,note_on,21,0,11,,,,,,,,7,,,46,32
58080,note_on,21,0,2,,,,,,,,1,,,70,32
58080,note_on,1,0,12,,,,,,,,7,,,34,32
58080,note_on,21,0,9,,,,,,,,7,,,62,33
58080,note_on,21,0,4,,,,,,,,3,,,58,49
58080,note_on,21,0,8,,,,,,,,7,,,58,31
58099,note_on,19,0,11,,,,,,,,7,,,46,0
58099,note_on,19,0,4,,,,,,,,3,,,58,0
58099,note_on,19,0,8,,,,,,,,7,,,58,0
58099,note_on,19,0,2,,,,,,,,1,,,70,0
58099,note_on,19,0,1,,,,,,,,0,,,82,0
58099,note_on,19,0,10,,,,,,,,7,,,58,0
58099,note_on,19,0,9,,,,,,,,7,,,62,0
58119,note_on,39,0,12,,,,,,,,7,,,34,0
58120,note_on,21,0,11,,,,,,,,7,,,46,32
58120,note_on,1,0,12,,,,,,,,7,,,34,32
58139,note_on,19,0,11,,,,,,,,7,,,46,0
58159,note_on,39,0,12,,,,,,,,7,,,34,0
58160,note_on,1,0,12,,,,,,,,7,,,34,32
58160,note_on,21,0,11,,,,,,,,7,,,46,32
58160,note_on,61,0,8,,,,,,,,7,,,58,31
58179,note_on,19,0,8,,,,,,,,7,,,58,0
58179,note_on,19,0,11,,,,,,,,7,,,46,0
58199,note_on,39,0,12,,,,,,,,7,,,34,0
58200,note_on,21,0,11,,,,,,,,7,,,46,32
58200,note_on,1,0,12,,,,,,,,7,,,34,32
58200,note_on,21,0,8,,,,,,,,7,,,58,32
58219,note_on,19,0,12,,,,,,,,7,,,34,0
58219,note_on,19,0,11,,,,,,,,7,,,46,0
58219,note_on,19,0,8,,,,,,,,7,,,58,0
58240,note_on,141,0,9,,,,,,,,7,,,68,32
58240,note_on,21,0,8,,,,,,,,7,,,59,32
58240,note_on,21,0,11,,,,,,,,7,,,47,32
58240,note_on,21,0,12,,,,,,,,7,,,35,32
58259,note_on,19,0,8,,,,,,,,7,,,59,0
58259,note_on,19,0,9,,,,,,,,7,,,68,0
58259,note_on,19,0,12,,,,,,,,7,,,35,0
58259,note_on,19,0,11,,,,,,,,7,,,47,0
58280,note_on,21,0,8,,,,,,,,7,,,58,32
58280,note_on,21,0,12,,,,,,,,7,,,34,32
58280,note_on,21,0,9,,,,,,,,7,,,63,32
58280,note_on,21,0,11,,,,,,,,7,,,46,32
58299,note_on,19,0,9,,,,,,,,7,,,63,0
58299,note_on,19,0,12,,,,,,,,7,,,34,0
58299,note_on,19,0,11,,,,,,,,7,,,46,0
58299,note_on,19,0,8,,,,,,,,7,,,58,0
58320,note_on,21,0,12,,,,,,,,7,,,35,32
58320,note_on,21,0,8,,,,,,,,7,,,59,32
58320,note_on,21,0,9,,,,,,,,7,,,68,32
58320,note_on,21,0,11,,,,,,,,7,,,47,32
58339,note_on,19,0,11,,,,,,,,7,,,47,0
58339,note_on,19,0,9,,,,,,,,7,,,68,0
58339,note_on,19,0,12,,,,,,,,7,,,35,0
58339,note_on,19,0,8,,,,,,,,7,,,59,0
58360,note_on,21,0,12,,,,,,,,7,,,34,32
58360,note_on,21,0,8,,,,,,,,7,,,58,32
58360,note_on,21,0,9,,,,,,,,7,,,63,32
58360,note_on,21,0,11,,,,,,,,7,,,46,32
58379,note_on,19,0,12,,,,,,,,7,,,34,0
58379,note_on,19,0,8,,,,,,,,7,,,58,0
58379,note_on,19,0,9,,,,,,,,7,,,63,0
58379,note_on,19,0,11,,,,,,,,7,,,46,0
58400,note_on,21,0,12,,,,,,,,7,,,35,32
58400,note_on,21,0,8,,,,,,,,7,,,59,32
58400,note_on,21,0,9,,,,,,,,7,,,68,32
58400,note_on,21,0,11,,,,,,,,7,,,47,32
58419,note_on,19,0,9,,,,,,,,7,,,68,0
58419,note_on,19,0,11,,,,,,,,7,,,47,0
58419,note_on,19,0,12,,,,,,,,7,,,35,0
58419,note_on,19,0,8,,,,,,,,7,,,59,0
58440,note_on,21,0,9,,,,,,,,7,,,63,32
58440,note_on,21,0,12,,,,,,,,7,,,34,32
58440,note_on,21,0,11,,,,,,,,7,,,46,32
58440,note_on,21,0,8,,,,,,,,7,,,58,32
58459,note_on,19,0,8,,,,,,,,7,,,58,0
58459,note_on,19,0,12,,,,,,,,7,,,34,0
58459,note_on,19,0,11,,,,,,,,7,,,46,0
58459,note_on,19,0,9,,,,,,,,7,,,63,0
58480,note_on,21,0,9,,,,,,,,7,,,68,32
58480,note_on,21,0,12,,,,,,,,7,,,35,32
58480,note_on,21,0,8,,,,,,,,7,,,59,32
58480,note_on,21,0,11,,,,,,,,7,,,47,32
58499,note_on,19,0,11,,,,,,,,7,,,47,0
58499,note_on,19,0,12,,,,,,,,7,,,35,0
58499,note_on,19,0,9,,,,,,,,7,,,68,0
58499,note_on,19,0,8,,,,,,,,7,,,59,0
58520,note_on,21,0,12,,,,,,,,7,,,34,32
58520,note_on,21,0,11,,,,,,,,7,,,46,32
58520,note_on,21,0,9,,,,,,,,7,,,63,32
58520,note_on,21,0,8,,,,,,,,7,,,58,32
58539,note_on,19,0,11,,,,,,,,7,,,46,0
58539,note_on,19,0,12,,,,,,,,7,,,34,0
58539,note_on,19,0,9,,,,,,,,7,,,63,0
58539,note_on,19,0,8,,,,,,,,7,,,58,0
58560,note_on,21,0,11,,,,,,,,7,,,47,32
58560,note_on,21,0,12,,,,,,,,7,,,35,32
58560,note_on,21,0,8,,,,,,,,7,,,59,32
58560,note_on,21,0,9,,,,,,,,7,,,68,32
58579,note_on,19,0,11,,,,,,,,7,,,47,0
58579,note_on,19,0,9,,,,,,,,7,,,68,0
58579,note_on,19,0,12,,,,,,,,7,,,35,0
58579,note_on,19,0,8,,,,,,,,7,,,59,0
58600,note_on,21,0,12,,,,,,,,7,,,35,32
58600,note_on,21,0,9,,,,,,,,7,,,68,32
58600,note_on,21,0,8,,,,,,,,7,,,59,32
58600,note_on,21,0,11,,,,,,,,7,,,47,32
58619,note_on,19,0,11,,,,,,,,7,,,47,0
58619,note_on,19,0,12,,,,,,,,7,,,35,0
58619,note_on,19,0,8,,,,,,,,7,,,59,0
58619,note_on,19,0,9,,,,,,,,7,,,68,0
58640,note_on,21,0,11,,,,,,,,7,,,48,32
58640,note_on,541,0,10,,,,,,,,7,,,63,33
58640,note_on,21,0,8,,,,,,,,7,,,60,32
58640,note_on,21,0,12,,,,,,,,7,,,36,32
58640,note_on,21,0,9,,,,,,,,7,,,68,32
58659,note_on,19,0,10,,,,,,,,7,,,63,0
58659,note_on,19,0,12,,,,,,,,7,,,36,0
58659,note_on,19,0,8,,,,,,,,7,,,60,0
58659,note_on,19,0,9,,,,,,,,7,,,68,0
58659,note_on,19,0,11,,,,,,,,7,,,48,0
58680,note_on,21,0,8,,,,,,,,7,,,60,32
58680,note_on,21,0,12,,,,,,,,7,,,36,32
58680,note_on,21,0,9,,,,,,,,7,,,68,32
58680,note_on,21,0,11,,,,,,,,7,,,48,32
58680,note_on,21,0,10,,,,,,,,7,,,63,33
58699,note_on,19,0,8,,,,,,,,7,,,60,0
58699,note_on,19,0,10,,,,,,,,7,,,63,0
58699,note_on,19,0,12,,,,,,,,7,,,36,0
58699,note_on,19,0,9,,,,,,,,7,,,68,0
58699,note_on,19,0,11,,,,,,,,7,,,48,0
58720,note_on,21,0,9,,,,,,,,7,,,65,32
58720,note_on,21,0,11,,,,,,,,7,,,49,32
58720,note_on,21,0,8,,,,,,,,7,,,61,32
58720,note_on,21,0,12,,,,,,,,7,,,37,32
58720,note_on,21,0,10,,,,,,,,7,,,68,33
58739,note_on,19,0,8,,,,,,,,7,,,61,0
58739,note_on,19,0,11,,,,,,,,7,,,49,0
58739,note_on,19,0,12,,,,,,,,7,,,37,0
58739,note_on,19,0,9,,,,,,,,7,,,65,0
58739,note_on,19,0,10,,,,,,,,7,,,68,0
58760,note_on,21,0,11,,,,,,,,7,,,48,32
58760,note_on,21,0,9,,,,,,,,7,,,68,32
58760,note_on,21,0,8,,,,,,,,7,,,60,32
58760,note_on,21,0,10,,,,,,,,7,,,63,33
58760,note_on,21,0,12,,,,,,,,7,,,36,32
58779,note_on,19,0,8,,,,,,,,7,,,60,0
58779,note_on,19,0,9,,,,,,,,7,,,68,0
58779,note_on,19,0,10,,,,,,,,7,,,63,0
58779,note_on,19,0,12,,,,,,,,7,,,36,0
58779,note_on,19,0,11,,,,,,,,7,,,48,0
58800,note_on,21,0,12,,,,,,,,7,,,37,32
58800,note_on,21,0,10,,,,,,,,7,,,68,33
58800,note_on,21,0,11,,,,,,,,7,,,49,32
58800,note_on,21,0,9,,,,,,,,7,,,65,32
58800,note_on,21,0,8,,,,,,,,7,,,61,32
58819,note_on,19,0,10,,,,,,,,7,,,68,0
58819,note_on,19,0,11,,,,,,,,7,,,49,0
58819,note_on,19,0,12,,,,,,,,7,,,37,0
58819,note_on,19,0,9,,,,,,,,7,,,65,0
58819,note_on,19,0,8,,,,,,,,7,,,61,0
58840,note_on,21,0,12,,,,,,,,7,,,36,32
58840,note_on,21,0,9,,,,,,,,7,,,68,32
58840,note_on,21,0,11,,,,,,,,7,,,48,32
58840,note_on,21,0,10,,,,,,,,7,,,63,33
58840,note_on,21,0,8,,,,,,,,7,,,60,32
58859,note_on,19,0,8,,,,,,,,7,,,60,0
58859,note_on,19,0,10,,,,,,,,7,,,63,0
58859,note_on,19,0,11,,,,,,,,7,,,48,0
58859,note_on,19,0,9,,,,,,,,7,,,68,0
58859,note_on,19,0,12,,,,,,,,7,,,36,0
58880,note_on,21,0,10,,,,,,,,7,,,68,33
58880,note_on,21,0,11,,,,,,,,7,,,49,32
58880,note_on,21,0,12,,,,,,,,7,,,37,32
58880,note_on,21,0,8,,,,,,,,7,,,61,32
58880,note_on,21,0,9,,,,,,,,7,,,65,32
58899,note_on,19,0,11,,,,,,,,7,,,49,0
58899,note_on,19,0,10,,,,,,,,7,,,68,0
58899,note_on,19,0,8,,,,,,,,7,,,61,0
58899,note_on,19,0,9,,,,,,,,7,,,65,0
58899,note_on,19,0,12,,,,,,,,7,,,37,0
58920,note_on,21,0,12,,,,,,,,7,,,36,32
58920,note_on,21,0,9,,,,,,,,7,,,68,32
58920,note_on,21,0,10,,,,,,,,7,,,63,33
58920,note_on,21,0,8,,,,,,,,7,,,60,32
58920,note_on,21,0,11,,,,,,,,7,,,48,32
58939,note_on,19,0,10,,,,,,,,7,,,63,0
58939,note_on,19,0,8,,,,,,,,7,,,60,0
58939,note_on,19,0,12,,,,,,,,7,,,36,0
58939,note_on,19,0,11,,,,,,,,7,,,48,0
58939,note_on,19,0,9,,,,,,,,7,,,68,0
58960,note_on,21,0,8,,,,,,,,7,,,61,32
58960,note_on,21,0,9,,,,,,,,7,,,65,32
58960,note_on,21,0,11,,,,,,,,7,,,49,32
58960,note_on,21,0,12,,,,,,,,7,,,37,32
58960,note_on,21,0,10,,,,,,,,7,,,68,33
58979,note_on,19,0,10,,,,,,,,7,,,68,0
58979,note_on,19,0,8,,,,,,,,7,,,61,0
58979,note_on,19,0,12,,,,,,,,7,,,37,0
58979,note_on,19,0,11,,,,,,,,7,,,49,0
58979,note_on,19,0,9,,,,,,,,7,,,65,0
59000,note_on,21,0,10,,,,,,,,7,,,63,33
59000,note_on,21,0,9,,,,,,,,7,,,68,32
59000,note_on,21,0,12,,,,,,,,7,,,36,32
59000,note_on,21,0,8,,,,,,,,7,,,60,32
59000,note_on,21,0,11,,,,,,,,7,,,48,32
59019,note_on,19,0,11,,,,,,,,7,,,48,0
59019,note_on,19,0,12,,,,,,,,7,,,36,0
59019,note_on,19,0,8,,,,,,,,7,,,60,0
59019,note_on,19,0,10,,,,,,,,7,,,63,0
59019,note_on,19,0,9,,,,,,,,7,,,68,0
59040,note_on,21,0,8,,,,,,,,7,,,61,32
59040,note_on,21,0,12,,,,,,,,7,,,37,32
59040,note_on,21,0,11,,,,,,,,7,,,49,32
59040,note_on,21,0,9,,,,,,,,7,,,65,32
59040,note_on,21,0,10,,,,,,,,7,,,68,33
59059,note_on,19,0,12,,,,,,,,7,,,37,0
59059,note_on,19,0,9,,,,,,,,7,,,65,0
59059,note_on,19,0,10,,,,,,,,7,,,68,0
59059,note_on,19,0,11,,,,,,,,7,,,49,0
59059,note_on,19,0,8,,,,,,,,7,,,61,0
59080,note_on,21,0,12,,,,,,,,7,,,37,32
59080,note_on,21,0,11,,,,,,,,7,,,49,32
59080,note_on,21,0,9,,,,,,,,7,,,68,32
59080,note_on,21,0,8,,,,,,,,7,,,61,32
59080,note_on,21,0,10,,,,,,,,7,,,65,33
59099,note_on,19,0,10,,,,,,,,7,,,65,0
59099,note_on,19,0,11,,,,,,,,7,,,49,0
59099,note_on,19,0,8,,,,,,,,7,,,61,0
59099,note_on,19,0,9,,,,,,,,7,,,68,0
59099,note_on,19,0,12,,,,,,,,7,,,37,0
59120,note_on,21,0,9,,,,,,,,7,,,68,32
59120,note_on,21,0,8,,,,,,,,7,,,60,32
59120,note_on,21,0,10,,,,,,,,7,,,66,33
59120,note_on,21,0,12,,,,,,,,7,,,36,32
59120,note_on,21,0,11,,,,,,,,7,,,48,32
59139,note_on,19,0,8,,,,,,,,7,,,60,0
59139,note_on,19,0,10,,,,,,,,7,,,66,0
59139,note_on,19,0,12,,,,,,,,7,,,36,0
59139,note_on,19,0,9,,,,,,,,7,,,68,0
59139,note_on,19,0,11,,,,,,,,7,,,48,0
59160,note_on,21,0,9,,,,,,,,7,,,68,32
59160,note_on,21,0,10,,,,,,,,7,,,66,33
59160,note_on,21,0,12,,,,,,,,7,,,36,32
59160,note_on,21,0,11,,,,,,,,7,,,48,32
59160,note_on,21,0,8,,,,,,,,7,,,60,32
59179,note_on,19,0,8,,,,,,,,7,,,60,0
59179,note_on,19,0,12,,,,,,,,7,,,36,0
59179,note_on,19,0,10,,,,,,,,7,,,66,0
59179,note_on,19,0,9,,,,,,,,7,,,68,0
59179,note_on,19,0,11,,,,,,,,7,,,48,0
59200,note_on,21,0,9,,,,,,,,7,,,68,32
59200,note_on,21,0,8,,,,,,,,7,,,61,32
59200,note_on,21,0,12,,,,,,,,7,,,37,32
59200,note_on,21,0,10,,,,,,,,7,,,65,33
59200,note_on,21,0,11,,,,,,,,7,,,49,32
59219,note_on,19,0,11,,,,,,,,7,,,49,0
59219,note_on,19,0,12,,,,,,,,7,,,37,0
59219,note_on,19,0,8,,,,,,,,7,,,61,0
59219,note_on,19,0,9,,,,,,,,7,,,68,0
59219,note_on,19,0,10,,,,,,,,7,,,65,0
59240,note_on,21,0,9,,,,,,,,7,,,70,32
59240,note_on,21,0,11,,,,,,,,7,,,49,32
59240,note_on,21,0,10,,,,,,,,7,,,68,33
59240,note_on,21,0,12,,,,,,,,7,,,37,32
59240,note_on,21,0,8,,,,,,,,7,,,61,32
59259,note_on,19,0,10,,,,,,,,7,,,68,0
59259,note_on,19,0,9,,,,,,,,7,,,70,0
59259,note_on,19,0,11,,,,,,,,7,,,49,0
59259,note_on,19,0,8,,,,,,,,7,,,61,0
59259,note_on,19,0,12,,,,,,,,7,,,37,0
59280,note_on,21,0,9,,,,,,,,7,,,70,32
59280,note_on,21,0,11,,,,,,,,7,,,49,32
59280,note_on,21,0,8,,,,,,,,7,,,61,32
59280,note_on,21,0,12,,,,,,,,7,,,37,32
59280,note_on,21,0,10,,,,,,,,7,,,68,33
59280,note_on,0,0,10,,,,,,,,7,,,68,33
59299,note_on,19,0,11,,,,,,,,7,,,49,0
59299,note_on,19,0,8,,,,,,,,7,,,61,0
59299,note_on,19,0,9,,,,,,,,7,,,70,0
59299,note_on,19,0,10,,,,,,,,7,,,68,0
59299,note_on,0,0,10,,,,,,,,7,,,68,0
59299,note_on,19,0,12,,,,,,,,7,,,37,0
59320,note_on,21,0,12,,,,,,,,7,,,38,32
59320,note_on,21,0,8,,,,,,,,7,,,62,32
59320,note_on,21,0,11,,,,,,,,7,,,50,32
59320,note_on,21,0,9,,,,,,,,7,,,70,32
59320,note_on,21,0,10,,,,,,,,7,,,65,33
59339,note_on,19,0,9,,,,,,,,7,,,70,0
59339,note_on,19,0,8,,,,,,,,7,,,62,0
59339,note_on,19,0,11,,,,,,,,7,,,50,0
59339,note_on,19,0,12,,,,,,,,7,,,38,0
59339,note_on,19,0,10,,,,,,,,7,,,65,0
59360,note_on,21,0,9,,,,,,,,7,,,70,32
59360,note_on,21,0,10,,,,,,,,7,,,68,33
59360,note_on,21,0,8,,,,,,,,7,,,62,32
59360,note_on,21,0,12,,,,,,,,7,,,38,32
59360,note_on,21,0,11,,,,,,,,7,,,50,32
59379,note_on,19,0,9,,,,,,,,7,,,70,0
59379,note_on,19,0,8,,,,,,,,7,,,62,0
59379,note_on,19,0,12,,,,,,,,7,,,38,0
59379,note_on,19,0,11,,,,,,,,7,,,50,0
59379,note_on,19,0,10,,,,,,,,7,,,68,0
59400,note_on,21,0,9,,,,,,,,7,,,70,32
59400,note_on,21,0,11,,,,,,,,7,,,50,32
59400,note_on,21,0,12,,,,,,,,7,,,38,32
59400,note_on,21,0,8,,,,,,,,7,,,62,32
59400,note_on,21,0,10,,,,,,,,7,,,68,33
59419,note_on,19,0,10,,,,,,,,7,,,68,0
59419,note_on,19,0,11,,,,,,,,7,,,50,0
59419,note_on,19,0,8,,,,,,,,7,,,62,0
59419,note_on,19,0,9,,,,,,,,7,,,70,0
59419,note_on,19,0,12,,,,,,,,7,,,38,0
59440,note_on,21,0,8,,,,,,,,7,,,63,32
59440,note_on,21,0,11,,,,,,,,7,,,51,32
59440,note_on,21,0,10,,,,,,,,7,,,67,33
59440,note_on,21,0,12,,,,,,,,7,,,39,32
59440,note_on,21,0,9,,,,,,,,7,,,70,32
59459,note_on,19,0,8,,,,,,,,7,,,63,0
59459,note_on,19,0,9,,,,,,,,7,,,70,0
59459,note_on,19,0,11,,,,,,,,7,,,51,0
59459,note_on,19,0,12,,,,,,,,7,,,39,0
59459,note_on,19,0,10,,,,,,,,7,,,67,0
59480,note_on,21,0,12,,,,,,,,7,,,39,32
59480,note_on,21,0,11,,,,,,,,7,,,51,32
59480,note_on,21,0,9,,,,,,,,7,,,72,32
59480,note_on,21,0,8,,,,,,,,7,,,63,32
59480,note_on,21,0,10,,,,,,,,7,,,70,33
59499,note_on,19,0,8,,,,,,,,7,,,63,0
59499,note_on,19,0,11,,,,,,,,7,,,51,0
59499,note_on,19,0,10,,,,,,,,7,,,70,0
59499,note_on,19,0,12,,,,,,,,7,,,39,0
59499,note_on,19,0,9,,,,,,,,7,,,72,0
59520,note_on,21,0,12,,,,,,,,7,,,39,32
59520,note_on,21,0,10,,,,,,,,7,,,70,33
59520,note_on,21,0,9,,,,,,,,7,,,72,32
59520,note_on,21,0,8,,,,,,,,7,,,63,32
59520,note_on,21,0,11,,,,,,,,7,,,51,32
59539,note_on,19,0,9,,,,,,,,7,,,72,0
59539,note_on,19,0,10,,,,,,,,7,,,70,0
59539,note_on,19,0,8,,,,,,,,7,,,63,0
59539,note_on,19,0,12,,,,,,,,7,,,39,0
59539,note_on,19,0,11,,,,,,,,7,,,51,0
59560,note_on,21,0,8,,,,,,,,7,,,64,32
59560,note_on,21,0,12,,,,,,,,7,,,40,32
59560,note_on,21,0,10,,,,,,,,7,,,67,33
59560,note_on,21,0,9,,,,,,,,7,,,72,32
59560,note_on,21,0,11,,,,,,,,7,,,52,32
59579,note_on,19,0,8,,,,,,,,7,,,64,0
59579,note_on,19,0,12,,,,,,,,7,,,40,0
59579,note_on,19,0,11,,,,,,,,7,,,52,0
59579,note_on,19,0,9,,,,,,,,7,,,72,0
59579,note_on,19,0,10,,,,,,,,7,,,67,0
59600,note_on,1501,0,1,,,,,,,,0,,,84,48
59600,note_on,21,0,9,,,,,,,,7,,,72,32
59600,note_on,21,0,12,,,,,,,,7,,,40,32
59600,note_on,21,0,11,,,,,,,,7,,,52,32
59600,note_on,21,0,10,,,,,,,,7,,,70,33
59600,note_on,21,0,8,,,,,,,,7,,,64,32
59619,note_on,19,0,11,,,,,,,,7,,,52,0
59619,note_on,19,0,1,,,,,,,,0,,,84,0
59619,note_on,19,0,9,,,,,,,,7,,,72,0
59619,note_on,19,0,10,,,,,,,,7,,,70,0
59619,note_on,19,0,12,,,,,,,,7,,,40,0
59619,note_on,19,0,8,,,,,,,,7,,,64,0
59640,note_on,21,0,1,,,,,,,,0,,,89,48
59640,note_on,21,0,9,,,,,,,,7,,,72,32
59640,note_on,21,0,12,,,,,,,,7,,,41,32
59640,note_on,21,0,8,,,,,,,,7,,,65,32
59640,note_on,21,0,10,,,,,,,,7,,,69,33
59640,note_on,21,0,11,,,,,,,,7,,,53,32
59659,note_on,19,0,9,,,,,,,,7,,,72,0
59659,note_on,19,0,8,,,,,,,,7,,,65,0
59659,note_on,19,0,1,,,,,,,,0,,,89,0
59659,note_on,19,0,10,,,,,,,,7,,,69,0
59659,note_on,19,0,12,,,,,,,,7,,,41,0
59659,note_on,19,0,11,,,,,,,,7,,,53,0
59680,note_on,21,0,8,,,,,,,,7,,,77,32
59680,note_on,21,0,10,,,,,,,,7,,,57,33
59680,note_on,21,0,1,,,,,,,,0,,,89,48
59680,note_on,21,0,9,,,,,,,,7,,,72,32
59699,note_on,19,0,1,,,,,,,,0,,,89,0
59699,note_on,19,0,10,,,,,,,,7,,,57,0
59699,note_on,19,0,9,,,,,,,,7,,,72,0
59699,note_on,19,0,8,,,,,,,,7,,,77,0
59720,note_on,21,0,9,,,,,,,,7,,,70,32
59720,note_on,21,0,10,,,,,,,,7,,,55,33
59720,note_on,21,0,1,,,,,,,,0,,,89,48
59720,note_on,21,0,8,,,,,,,,7,,,77,32
59739,note_on,19,0,9,,,,,,,,7,,,70,0
59739,note_on,19,0,10,,,,,,,,7,,,55,0
59739,note_on,19,0,1,,,,,,,,0,,,89,0
59739,note_on,19,0,8,,,,,,,,7,,,77,0
59760,note_on,101,0,11,,,,,,,,7,,,53,32
59760,note_on,101,0,12,,,,,,,,7,,,41,32
59760,note_on,21,0,8,,,,,,,,7,,,77,32
59760,note_on,21,0,9,,,,,,,,7,,,69,32
59760,note_on,21,0,10,,,,,,,,7,,,53,33
59760,note_on,21,0,1,,,,,,,,0,,,89,48
59779,note_on,19,0,11,,,,,,,,7,,,53,0
59779,note_on,19,0,9,,,,,,,,7,,,69,0
59779,note_on,19,0,1,,,,,,,,0,,,89,0
59779,note_on,19,0,8,,,,,,,,7,,,77,0
59779,note_on,19,0,10,,,,,,,,7,,,53,0
59779,note_on,19,0,12,,,,,,,,7,,,41,0
59800,note_on,21,0,1,,,,,,,,0,,,89,48
59800,note_on,21,0,10,,,,,,,,7,,,57,33
59800,note_on,21,0,8,,,,,,,,7,,,77,32
59800,note_on,21,0,9,,,,,,,,7,,,72,32
59819,note_on,19,0,1,,,,,,,,0,,,89,0
59819,note_on,19,0,8,,,,,,,,7,,,77,0
59819,note_on,19,0,10,,,,,,,,7,,,57,0
59819,note_on,19,0,9,,,,,,,,7,,,72,0
59840,note_on,21,0,8,,,,,,,,7,,,77,32
59840,note_on,21,0,9,,,,,,,,7,,,70,32
59840,note_on,21,0,1,,,,,,,,0,,,89,48
59840,note_on,21,0,10,,,,,,,,7,,,55,33
59859,note_on,19,0,9,,,,,,,,7,,,70,0
59859,note_on,19,0,10,,,,,,,,7,,,55,0
59859,note_on,19,0,1,,,,,,,,0,,,89,0
59859,note_on,19,0,8,,,,,,,,7,,,77,0
59880,note_on,21,0,9,,,,,,,,7,,,69,32
59880,note_on,101,0,12,,,,,,,,7,,,41,32
59880,note_on,21,0,10,,,,,,,,7,,,53,33
59880,note_on,101,0,11,,,,,,,,7,,,53,32
59880,note_on,21,0,8,,,,,,,,7,,,77,32
59880,note_on,21,0,1,,,,,,,,0,,,89,48
59899,note_on,19,0,11,,,,,,,,7,,,53,0
59899,note_on,19,0,9,,,,,,,,7,,,69,0
59899,note_on,19,0,10,,,,,,,,7,,,53,0
59899,note_on,19,0,12,,,,,,,,7,,,41,0
59920,note_on,40,0,1,,,,,,,,0,,,91,48
59920,note_on,40,0,8,,,,,,,,7,,,79,32
59920,note_on,21,0,10,,,,,,,,7,,,53,33
59920,note_on,21,0,9,,,,,,,,7,,,69,32
59922,note_on,2,0,1,,,,,,,,0,,,89,0
59922,note_on,2,0,8,,,,,,,,7,,,77,0
59939,note_on,19,0,10,,,,,,,,7,,,53,0
59939,note_on,19,0,9,,,,,,,,7,,,69,0
59940,note_on,18,0,1,,,,,,,,0,,,89,48
59940,note_on,18,0,8,,,,,,,,7,,,77,32
59942,note_on,2,0,1,,,,,,,,0,,,91,0
59942,note_on,2,0,8,,,,,,,,7,,,79,0
59960,note_on,18,0,8,,,,,,,,7,,,76,32
59960,note_on,21,0,9,,,,,,,,7,,,70,32
59960,note_on,18,0,1,,,,,,,,0,,,88,48
59960,note_on,21,0,10,,,,,,,,7,,,55,33
59962,note_on,2,0,8,,,,,,,,7,,,77,0
59962,note_on,2,0,1,,,,,,,,0,,,89,0
59979,note_on,19,0,10,,,,,,,,7,,,55,0
59979,note_on,19,0,9,,,,,,,,7,,,70,0
59980,note_on,18,0,8,,,,,,,,7,,,74,32
59980,note_on,18,0,1,,,,,,,,0,,,86,48
59982,note_on,2,0,1,,,,,,,,0,,,88,0
59982,note_on,2,0,8,,,,,,,,7,,,76,0
59999,note_on,17,0,8,,,,,,,,7,,,74,0
60000,note_on,21,0,10,,,,,,,,7,,,57,33
60000,note_on,18,0,1,,,,,,,,0,,,84,48
60000,note_on,101,0,11,,,,,,,,7,,,53,32
60000,note_on,21,0,9,,,,,,,,7,,,72,32
60000,note_on,101,0,12,,,,,,,,7,,,41,32
60002,note_on,2,0,1,,,,,,,,0,,,86,0
60019,note_on,19,0,11,,,,,,,,7,,,53,0
60019,note_on,19,0,12,,,,,,,,7,,,41,0
60019,note_on,19,0,10,,,,,,,,7,,,57,0
60019,note_on,19,0,9,,,,,,,,7,,,72,0
60020,note_on,21,0,8,,,,,,,,7,,,72,32
60040,note_on,21,0,10,,,,,,,,7,,,52,33
60040,note_on,21,0,9,,,,,,,,7,,,67,32
60059,note_on,19,0,9,,,,,,,,7,,,67,0
60059,note_on,19,0,10,,,,,,,,7,,,52,0
60080,note_on,21,0,9,,,,,,,,7,,,69,32
60080,note_on,21,0,10,,,,,,,,7,,,53,33
60099,note_on,19,0,10,,,,,,,,7,,,53,0
60099,note_on,19,0,9,,,,,,,,7,,,69,0
60119,note_on,99,0,8,,,,,,,,7,,,72,0
60119,note_on,117,0,1,,,,,,,,0,,,84,0
60120,note_on,101,0,11,,,,,,,,7,,,48,32
60120,note_on,101,0,12,,,,,,,,7,,,36,32
60120,note_on,21,0,10,,,,,,,,7,,,55,33
60120,note_on,21,0,9,,,,,,,,7,,,70,32
60120,note_on,1,0,1,,,,,,,,0,,,82,48
60139,note_on,19,0,10,,,,,,,,7,,,55,0
60139,note_on,19,0,11,,,,,,,,7,,,48,0
60139,note_on,19,0,12,,,,,,,,7,,,36,0
60139,note_on,19,0,9,,,,,,,,7,,,70,0
60140,note_on,21,0,8,,,,,,,,7,,,70,32
60160,note_on,21,0,9,,,,,,,,7,,,65,32
60160,note_on,21,0,10,,,,,,,,7,,,50,33
60179,note_on,19,0,10,,,,,,,,7,,,50,0
60179,note_on,19,0,9,,,,,,,,7,,,65,0
60200,note_on,21,0,10,,,,,,,,7,,,52,33
60200,note_on,21,0,9,,,,,,,,7,,,67,32
60219,note_on,19,0,9,,,,,,,,7,,,67,0
60219,note_on,19,0,10,,,,,,,,7,,,52,0
60239,note_on,99,0,8,,,,,,,,7,,,70,0
60239,note_on,119,0,1,,,,,,,,0,,,82,0
60240,note_on,21,0,9,,,,,,,,7,,,69,32
60240,note_on,1,0,1,,,,,,,,0,,,81,48
60240,note_on,1,0,8,,,,,,,,7,,,69,32
60240,note_on,21,0,10,,,,,,,,7,,,53,33
60240,note_on,101,0,12,,,,,,,,7,,,41,32
60240,note_on,101,0,11,,,,,,,,7,,,53,32
60259,note_on,19,0,12,,,,,,,,7,,,41,0
60259,note_on,19,0,11,,,,,,,,7,,,53,0
60280,note_on,40,0,8,,,,,,,,7,,,72,32
60280,note_on,40,0,1,,,,,,,,0,,,84,48
60280,note_on,40,0,10,,,,,,,,7,,,57,33
60280,note_on,40,0,9,,,,,,,,7,,,60,32
60282,note_on,2,0,8,,,,,,,,7,,,69,0
60282,note_on,2,0,10,,,,,,,,7,,,53,0
60282,note_on,2,0,1,,,,,,,,0,,,81,0
60282,note_on,2,0,9,,,,,,,,7,,,69,0
60319,note_on,37,0,9,,,,,,,,7,,,60,0
60319,note_on,37,0,10,,,,,,,,7,,,57,0
60319,note_on,37,0,8,,,,,,,,7,,,72,0
60319,note_on,37,0,1,,,,,,,,0,,,84,0
60320,note_on,1,0,8,,,,,,,,7,,,69,32
60320,note_on,1,0,1,,,,,,,,0,,,81,48
60320,note_on,1,0,9,,,,,,,,7,,,65,32
60320,note_on,1,0,10,,,,,,,,7,,,60,33
60339,note_on,19,0,1,,,,,,,,0,,,81,0
60339,note_on,19,0,8,,,,,,,,7,,,69,0
60339,note_on,19,0,10,,,,,,,,7,,,60,0
60339,note_on,19,0,9,,,,,,,,7,,,65,0
60360,note_on,21,0,8,,,,,,,,7,,,67,32
60360,note_on,21,0,10,,,,,,,,7,,,58,33
60360,note_on,21,0,1,,,,,,,,0,,,79,48
60360,note_on,101,0,11,,,,,,,,7,,,48,32
60360,note_on,21,0,9,,,,,,,,7,,,64,32
60360,note_on,101,0,12,,,,,,,,7,,,36,32
60379,note_on,19,0,12,,,,,,,,7,,,36,0
60379,note_on,19,0,11,,,,,,,,7,,,48,0
60400,note_on,40,0,10,,,,,,,,7,,,55,33
60400,note_on,40,0,8,,,,,,,,7,,,70,32
60400,note_on,40,0,9,,,,,,,,7,,,60,32
60400,note_on,40,0,1,,,,,,,,0,,,82,48
60402,note_on,2,0,9,,,,,,,,7,,,64,0
60402,note_on,2,0,1,,,,,,,,0,,,79,0
60402,note_on,2,0,10,,,,,,,,7,,,58,0
60402,note_on,2,0,8,,,,,,,,7,,,67,0
60439,note_on,37,0,8,,,,,,,,7,,,70,0
60439,note_on,37,0,9,,,,,,,,7,,,60,0
60439,note_on,37,0,1,,,,,,,,0,,,82,0
60439,note_on,37,0,10,,,,,,,,7,,,55,0
60440,note_on,1,0,8,,,,,,,,7,,,67,32
60440,note_on,1,0,9,,,,,,,,7,,,64,32
60440,note_on,1,0,1,,,,,,,,0,,,79,48
60440,note_on,1,0,10,,,,,,,,7,,,58,33
60459,note_on,19,0,8,,,,,,,,7,,,67,0
60459,note_on,19,0,10,,,,,,,,7,,,58,0
60459,note_on,19,0,1,,,,,,,,0,,,79,0
60459,note_on,19,0,9,,,,,,,,7,,,64,0
60480,note_on,21,0,10,,,,,,,,7,,,53,33
60480,note_on,101,0,11,,,,,,,,7,,,53,32
60480,note_on,21,0,8,,,,,,,,7,,,65,32
60480,note_on,101,0,12,,,,,,,,7,,,41,32
60480,note_on,21,0,9,,,,,,,,7,,,57,32
60480,note_on,21,0,1,,,,,,,,0,,,77,48
60499,note_on,19,0,10,,,,,,,,7,,,53,0
60499,note_on,19,0,11,,,,,,,,7,,,53,0
60499,note_on,19,0,9,,,,,,,,7,,,57,0
60499,note_on,19,0,12,,,,,,,,7,,,41,0
60499,note_on,19,0,1,,,,,,,,0,,,77,0
60499,note_on,19,0,8,,,,,,,,7,,,65,0
60520,note_on,21,0,10,,,,,,,,7,,,57,33
60520,note_on,21,0,8,,,,,,,,7,,,69,32
60539,note_on,19,0,10,,,,,,,,7,,,57,0
60539,note_on,19,0,8,,,,,,,,7,,,69,0
60560,note_on,21,0,10,,,,,,,,7,,,60,33
60560,note_on,21,0,8,,,,,,,,7,,,72,32
60579,note_on,19,0,10,,,,,,,,7,,,60,0
60579,note_on,19,0,8,,,,,,,,7,,,72,0
60600,note_on,21,0,10,,,,,,,,7,,,58,49
60719,note_on,119,0,10,,,,,,,,7,,,58,0
60720,note_on,1,0,10,,,,,,,,7,,,57,33
60720,note_on,221,0,9,,,,,,,,7,,,72,48
60760,note_on,40,0,10,,,,,,,,7,,,60,33
60762,note_on,2,0,10,,,,,,,,7,,,57,0
60799,note_on,37,0,10,,,,,,,,7,,,60,0
60800,note_on,1,0,10,,,,,,,,7,,,57,33
60819,note_on,19,0,10,,,,,,,,7,,,57,0
60839,note_on,119,0,9,,,,,,,,7,,,72,0
60840,note_on,261,0,8,,,,,,,,7,,,84,48
60840,note_on,21,0,10,,,,,,,,7,,,55,33
60840,note_on,1,0,9,,,,,,,,7,,,70,32
60840,note_on,341,0,11,,,,,,,,7,,,48,48
60840,note_on,341,0,12,,,,,,,,7,,,36,50
60880,note_on,40,0,10,,,,,,,,7,,,58,33
60880,note_on,40,0,9,,,,,,,,7,,,72,32
60882,note_on,2,0,9,,,,,,,,7,,,70,0
60882,note_on,2,0,10,,,,,,,,7,,,55,0
60919,note_on,37,0,10,,,,,,,,7,,,58,0
60919,note_on,37,0,9,,,,,,,,7,,,72,0
60920,note_on,1,0,10,,,,,,,,7,,,55,33
60920,note_on,1,0,9,,,,,,,,7,,,70,32
60939,note_on,19,0,9,,,,,,,,7,,,70,0
60939,note_on,19,0,10,,,,,,,,7,,,55,0
60959,note_on,119,0,11,,,,,,,,7,,,48,0
60959,note_on,119,0,12,,,,,,,,7,,,36,0
60959,note_on,119,0,8,,,,,,,,7,,,84,0
60960,note_on,1,0,11,,,,,,,,7,,,53,32
60960,note_on,1,0,12,,,,,,,,7,,,41,32
60960,note_on,461,0,1,,,,,,,,0,,,84,48
60960,note_on,2861,0,2,,,,,,,,1,,,72,48
60960,note_on,21,0,10,,,,,,,,7,,,53,33
60960,note_on,2861,0,4,,,,,,,,3,,,60,48
60960,note_on,21,0,9,,,,,,,,7,,,69,32
60960,note_on,1,0,8,,,,,,,,7,,,84,48
60979,note_on,19,0,11,,,,,,,,7,,,53,0
60979,note_on,19,0,12,,,,,,,,7,,,41,0
61000,note_on,21,0,12,,,,,,,,7,,,45,32
61000,note_on,21,0,11,,,,,,,,7,,,57,32
61000,note_on,40,0,10,,,,,,,,7,,,57,33
61000,note_on,40,0,9,,,,,,,,7,,,72,32
61002,note_on,2,0,9,,,,,,,,7,,,69,0
61002,note_on,2,0,10,,,,,,,,7,,,53,0
61019,note_on,19,0,11,,,,,,,,7,,,57,0
61019,note_on,19,0,12,,,,,,,,7,,,45,0
61039,note_on,37,0,9,,,,,,,,7,,,72,0
61039,note_on,37,0,10,,,,,,,,7,,,57,0
61040,note_on,1,0,9,,,,,,,,7,,,69,32
61040,note_on,21,0,12,,,,,,,,7,,,48,32
61040,note_on,1,0,10,,,,,,,,7,,,53,33
61040,note_on,21,0,11,,,,,,,,7,,,60,32
61059,note_on,19,0,9,,,,,,,,7,,,69,0
61059,note_on,19,0,12,,,,,,,,7,,,48,0
61059,note_on,19,0,10,,,,,,,,7,,,53,0
61059,note_on,19,0,11,,,,,,,,7,,,60,0
61079,note_on,119,0,8,,,,,,,,7,,,84,0
61079,note_on,119,0,1,,,,,,,,0,,,84,0
61079,note_on,119,0,4,,,,,,,,3,,,60,0
61079,note_on,119,0,2,,,,,,,,1,,,72,0
61080,note_on,1,0,4,,,,,,,,3,,,62,32
61080,note_on,1,0,1,,,,,,,,0,,,86,33
61080,note_on,21,0,10,,,,,,,,7,,,60,49
61080,note_on,1,0,2,,,,,,,,1,,,74,32
61099,note_on,19,0,1,,,,,,,,0,,,86,0
61119,note_on,39,0,4,,,,,,,,3,,,62,0
61119,note_on,39,0,2,,,,,,,,1,,,74,0
61199,note_on,119,0,10,,,,,,,,7,,,60,0
61200,note_on,1,0,10,,,,,,,,7,,,58,33
61200,note_on,141,0,9,,,,,,,,7,,,74,48
61240,note_on,40,0,10,,,,,,,,7,,,62,33
61242,note_on,2,0,10,,,,,,,,7,,,58,0
61279,note_on,37,0,10,,,,,,,,7,,,62,0
61280,note_on,1,0,10,,,,,,,,7,,,58,33
61299,note_on,19,0,10,,,,,,,,7,,,58,0
61319,note_on,119,0,9,,,,,,,,7,,,74,0
61320,note_on,261,0,11,,,,,,,,7,,,50,49
61320,note_on,21,0,10,,,,,,,,7,,,57,33
61320,note_on,261,0,12,,,,,,,,7,,,38,49
61320,note_on,241,0,8,,,,,,,,7,,,86,48
61320,note_on,1,0,9,,,,,,,,7,,,72,32
61360,note_on,40,0,9,,,,,,,,7,,,74,32
61360,note_on,40,0,10,,,,,,,,7,,,60,33
61362,note_on,2,0,9,,,,,,,,7,,,72,0
61362,note_on,2,0,10,,,,,,,,7,,,57,0
61399,note_on,37,0,9,,,,,,,,7,,,74,0
61399,note_on,37,0,10,,,,,,,,7,,,60,0
61400,note_on,1,0,10,,,,,,,,7,,,57,33
61400,note_on,1,0,9,,,,,,,,7,,,72,32
61419,note_on,19,0,10,,,,,,,,7,,,57,0
61419,note_on,19,0,9,,,,,,,,7,,,72,0
61439,note_on,119,0,12,,,,,,,,7,,,38,0
61439,note_on,119,0,11,,,,,,,,7,,,50,0
61439,note_on,119,0,8,,,,,,,,7,,,86,0
61440,note_on,341,0,1,,,,,,,,0,,,86,48
61440,note_on,1,0,8,,,,,,,,7,,,86,48
61440,note_on,21,0,10,,,,,,,,7,,,55,33
61440,note_on,1,0,12,,,,,,,,7,,,43,32
61440,note_on,1,0,11,,,,,,,,7,,,55,32
61440,note_on,321,0,4,,,,,,,,3,,,62,48
61440,note_on,321,0,2,,,,,,,,1,,,74,48
61440,note_on,21,0,9,,,,,,,,7,,,70,32
61480,note_on,40,0,11,,,,,,,,7,,,58,32
61480,note_on,40,0,10,,,,,,,,7,,,58,33
61480,note_on,40,0,12,,,,,,,,7,,,46,32
61480,note_on,40,0,9,,,,,,,,7,,,74,32
61482,note_on,2,0,10,,,,,,,,7,,,55,0
61482,note_on,2,0,11,,,,,,,,7,,,55,0
61482,note_on,2,0,9,,,,,,,,7,,,70,0
61482,note_on,2,0,12,,,,,,,,7,,,43,0
61519,note_on,37,0,12,,,,,,,,7,,,46,0
61519,note_on,37,0,11,,,,,,,,7,,,58,0
61519,note_on,37,0,9,,,,,,,,7,,,74,0
61519,note_on,37,0,10,,,,,,,,7,,,58,0
61520,note_on,1,0,9,,,,,,,,7,,,70,32
61520,note_on,1,0,12,,,,,,,,7,,,43,32
61520,note_on,1,0,10,,,,,,,,7,,,58,33
61520,note_on,1,0,11,,,,,,,,7,,,55,32
61539,note_on,19,0,11,,,,,,,,7,,,55,0
61539,note_on,19,0,12,,,,,,,,7,,,43,0
61539,note_on,19,0,10,,,,,,,,7,,,58,0
61539,note_on,19,0,9,,,,,,,,7,,,70,0
61559,note_on,119,0,1,,,,,,,,0,,,86,0
61559,note_on,119,0,8,,,,,,,,7,,,86,0
61559,note_on,119,0,2,,,,,,,,1,,,74,0
61559,note_on,119,0,4,,,,,,,,3,,,62,0
61560,note_on,1,0,1,,,,,,,,0,,,86,33
61560,note_on,21,0,12,,,,,,,,7,,,42,32
61560,note_on,1,0,2,,,,,,,,1,,,74,32
61560,note_on,21,0,11,,,,,,,,7,,,54,32
61560,note_on,21,0,10,,,,,,,,7,,,57,33
61560,note_on,1,0,4,,,,,,,,3,,,62,32
61560,note_on,1,0,8,,,,,,,,7,,,86,32
61560,note_on,21,0,9,,,,,,,,7,,,69,32
61579,note_on,19,0,11,,,,,,,,7,,,54,0
61579,note_on,19,0,10,,,,,,,,7,,,57,0
61579,note_on,19,0,8,,,,,,,,7,,,86,0
61579,note_on,19,0,12,,,,,,,,7,,,42,0
61579,note_on,19,0,9,,,,,,,,7,,,69,0
61579,note_on,19,0,4,,,,,,,,3,,,62,0
61579,note_on,19,0,1,,,,,,,,0,,,86,0
61599,note_on,39,0,2,,,,,,,,1,,,74,0
61600,note_on,21,0,8,,,,,,,,7,,,81,32
61600,note_on,21,0,9,,,,,,,,7,,,69,32
61600,note_on,21,0,10,,,,,,,,7,,,54,33
61600,note_on,21,0,4,,,,,,,,3,,,50,32
61600,note_on,21,0,11,,,,,,,,7,,,50,32
61600,note_on,21,0,12,,,,,,,,7,,,38,32
61619,note_on,19,0,8,,,,,,,,7,,,81,0
61619,note_on,19,0,9,,,,,,,,7,,,69,0
61619,note_on,19,0,11,,,,,,,,7,,,50,0
61619,note_on,19,0,12,,,,,,,,7,,,38,0
61619,note_on,19,0,10,,,,,,,,7,,,54,0
61619,note_on,19,0,4,,,,,,,,3,,,50,0
61620,note_on,1,0,12,,,,,,,,7,,,48,32
61639,note_on,19,0,12,,,,,,,,7,,,48,0
61640,note_on,0,0,2,,,,,,,,1,,,74,32
61640,note_on,61,0,1,,,,,,,,0,,,86,33
61640,note_on,21,0,4,,,,,,,,3,,,60,32
61640,note_on,41,0,2,,,,,,,,1,,,78,32
61640,note_on,21,0,9,,,,,,,,7,,,66,32
61640,note_on,21,0,8,,,,,,,,7,,,78,32
61640,note_on,21,0,10,,,,,,,,7,,,62,33
61640,note_on,21,0,11,,,,,,,,7,,,60,32
61659,note_on,0,0,2,,,,,,,,1,,,78,0
61659,note_on,19,0,2,,,,,,,,1,,,74,0
61659,note_on,19,0,8,,,,,,,,7,,,78,0
61659,note_on,19,0,11,,,,,,,,7,,,60,0
61659,note_on,19,0,9,,,,,,,,7,,,66,0
61659,note_on,19,0,4,,,,,,,,3,,,60,0
61659,note_on,19,0,1,,,,,,,,0,,,86,0
61659,note_on,19,0,10,,,,,,,,7,,,62,0
61680,note_on,21,0,2,,,,,,,,1,,,79,32
61680,note_on,21,0,4,,,,,,,,3,,,58,32
61680,note_on,41,0,12,,,,,,,,7,,,46,32
61680,note_on,21,0,9,,,,,,,,7,,,67,32
61680,note_on,0,0,2,,,,,,,,1,,,74,32
61680,note_on,21,0,11,,,,,,,,7,,,58,32
61680,note_on,21,0,10,,,,,,,,7,,,62,33
61680,note_on,21,0,8,,,,,,,,7,,,79,32
61680,note_on,21,0,1,,,,,,,,0,,,86,33
61699,note_on,19,0,10,,,,,,,,7,,,62,0
61699,note_on,0,0,2,,,,,,,,1,,,79,0
61699,note_on,19,0,8,,,,,,,,7,,,79,0
61699,note_on,19,0,11,,,,,,,,7,,,58,0
61699,note_on,19,0,4,,,,,,,,3,,,58,0
61699,note_on,19,0,2,,,,,,,,1,,,74,0
61699,note_on,19,0,1,,,,,,,,0,,,86,0
61699,note_on,19,0,9,,,,,,,,7,,,67,0
61699,note_on,19,0,12,,,,,,,,7,,,46,0
61720,note_on,0,0,2,,,,,,,,1,,,82,32
61720,note_on,21,0,2,,,,,,,,1,,,74,32
61720,note_on,21,0,12,,,,,,,,7,,,43,32
61720,note_on,21,0,1,,,,,,,,0,,,86,33
61720,note_on,21,0,10,,,,,,,,7,,,58,33
61720,note_on,21,0,8,,,,,,,,7,,,82,32
61720,note_on,21,0,9,,,,,,,,7,,,70,32
61720,note_on,21,0,11,,,,,,,,7,,,55,32
61720,note_on,21,0,4,,,,,,,,3,,,55,32
61739,note_on,19,0,8,,,,,,,,7,,,82,0
61739,note_on,19,0,9,,,,,,,,7,,,70,0
61739,note_on,19,0,12,,,,,,,,7,,,43,0
61739,note_on,19,0,4,,,,,,,,3,,,55,0
61739,note_on,19,0,11,,,,,,,,7,,,55,0
61739,note_on,0,0,2,,,,,,,,1,,,74,0
61739,note_on,19,0,2,,,,,,,,1,,,82,0
61739,note_on,19,0,1,,,,,,,,0,,,86,0
61739,note_on,19,0,10,,,,,,,,7,,,58,0
61760,note_on,21,0,12,,,,,,,,7,,,39,32
61760,note_on,21,0,4,,,,,,,,3,,,51,32
61760,note_on,21,0,10,,,,,,,,7,,,55,33
61760,note_on,0,0,2,,,,,,,,1,,,79,32
61760,note_on,21,0,8,,,,,,,,7,,,73,32
61760,note_on,21,0,1,,,,,,,,0,,,85,33
61760,note_on,21,0,2,,,,,,,,1,,,67,32
61760,note_on,21,0,9,,,,,,,,7,,,61,32
61760,note_on,21,0,11,,,,,,,,7,,,51,32
61779,note_on,19,0,12,,,,,,,,7,,,39,0
61779,note_on,19,0,8,,,,,,,,7,,,73,0
61779,note_on,19,0,9,,,,,,,,7,,,61,0
61779,note_on,19,0,11,,,,,,,,7,,,51,0
61779,note_on,19,0,2,,,,,,,,1,,,79,0
61779,note_on,19,0,10,,,,,,,,7,,,55,0
61779,note_on,19,0,4,,,,,,,,3,,,51,0
61779,note_on,19,0,1,,,,,,,,0,,,85,0
61779,note_on,0,0,2,,,,,,,,1,,,67,0
61800,note_on,21,0,10,,,,,,,,7,,,54,33
61800,note_on,21,0,9,,,,,,,,7,,,62,32
61800,note_on,21,0,4,,,,,,,,3,,,50,32
61800,note_on,21,0,11,,,,,,,,7,,,50,32
61800,note_on,0,0,2,,,,,,,,1,,,78,32
61800,note_on,21,0,1,,,,,,,,0,,,86,33
61800,note_on,21,0,8,,,,,,,,7,,,74,32
61800,note_on,21,0,12,,,,,,,,7,,,38,32
61800,note_on,21,0,2,,,,,,,,1,,,74,32
61819,note_on,19,0,10,,,,,,,,7,,,54,0
61819,note_on,19,0,1,,,,,,,,0,,,86,0
61819,note_on,19,0,8,,,,,,,,7,,,74,0
61819,note_on,19,0,9,,,,,,,,7,,,62,0
61819,note_on,19,0,11,,,,,,,,7,,,50,0
61819,note_on,0,0,2,,,,,,,,1,,,74,0
61819,note_on,19,0,2,,,,,,,,1,,,78,0
61819,note_on,19,0,4,,,,,,,,3,,,50,0
61819,note_on,19,0,12,,,,,,,,7,,,38,0
61840,note_on,0,0,4,,,,,,,,3,,,57,32
61840,note_on,21,0,9,,,,,,,,7,,,66,32
61840,note_on,21,0,4,,,,,,,,3,,,60,32
61840,note_on,21,0,12,,,,,,,,7,,,45,32
61840,note_on,21,0,8,,,,,,,,7,,,78,32
61840,note_on,21,0,11,,,,,,,,7,,,57,32
61840,note_on,21,0,10,,,,,,,,7,,,62,33
61859,note_on,0,0,4,,,,,,,,3,,,60,0
61859,note_on,19,0,4,,,,,,,,3,,,57,0
61859,note_on,19,0,11,,,,,,,,7,,,57,0
61859,note_on,19,0,10,,,,,,,,7,,,62,0
61859,note_on,19,0,8,,,,,,,,7,,,78,0
61859,note_on,19,0,9,,,,,,,,7,,,66,0
61859,note_on,19,0,12,,,,,,,,7,,,45,0
61880,note_on,21,0,11,,,,,,,,7,,,54,32
61880,note_on,21,0,8,,,,,,,,7,,,81,32
61880,note_on,61,0,1,,,,,,,,0,,,84,33
61880,note_on,0,0,1,,,,,,,,0,,,86,33
61880,note_on,0,0,2,,,,,,,,1,,,81,32
61880,note_on,61,0,2,,,,,,,,1,,,72,32
61880,note_on,21,0,10,,,,,,,,7,,,62,33
61880,note_on,21,0,4,,,,,,,,3,,,57,32
61880,note_on,0,0,4,,,,,,,,3,,,54,32
61880,note_on,21,0,9,,,,,,,,7,,,69,32
61880,note_on,21,0,12,,,,,,,,7,,,42,32
61899,note_on,19,0,9,,,,,,,,7,,,69,0
61899,note_on,19,0,10,,,,,,,,7,,,62,0
61899,note_on,19,0,2,,,,,,,,1,,,81,0
61899,note_on,0,0,2,,,,,,,,1,,,72,0
61899,note_on,19,0,12,,,,,,,,7,,,42,0
61899,note_on,19,0,11,,,,,,,,7,,,54,0
61899,note_on,19,0,8,,,,,,,,7,,,81,0
61899,note_on,19,0,4,,,,,,,,3,,,54,0
61899,note_on,0,0,4,,,,,,,,3,,,57,0
61899,note_on,19,0,1,,,,,,,,0,,,86,0
61899,note_on,0,0,1,,,,,,,,0,,,84,0
61920,note_on,0,0,2,,,,,,,,1,,,79,32
61920,note_on,21,0,2,,,,,,,,1,,,70,32
61920,note_on,21,0,8,,,,,,,,7,,,82,32
61920,note_on,21,0,1,,,,,,,,0,,,86,33
61920,note_on,0,0,1,,,,,,,,0,,,82,33
61920,note_on,21,0,12,,,,,,,,7,,,43,32
61920,note_on,21,0,10,,,,,,,,7,,,62,33
61920,note_on,21,0,11,,,,,,,,7,,,55,32
61920,note_on,0,0,4,,,,,,,,3,,,58,32
61920,note_on,21,0,4,,,,,,,,3,,,62,32
61920,note_on,21,0,9,,,,,,,,7,,,70,32
61939,note_on,19,0,12,,,,,,,,7,,,43,0
61939,note_on,19,0,11,,,,,,,,7,,,55,0
61939,note_on,0,0,1,,,,,,,,0,,,86,0
61939,note_on,19,0,9,,,,,,,,7,,,70,0
61939,note_on,19,0,1,,,,,,,,0,,,82,0
61939,note_on,19,0,4,,,,,,,,3,,,58,0
61939,note_on,19,0,2,,,,,,,,1,,,79,0
61939,note_on,0,0,2,,,,,,,,1,,,70,0
61939,note_on,0,0,4,,,,,,,,3,,,62,0
61939,note_on,19,0,10,,,,,,,,7,,,62,0
61939,note_on,19,0,8,,,,,,,,7,,,82,0
61960,note_on,21,0,2,,,,,,,,1,,,70,32
61960,note_on,0,0,2,,,,,,,,1,,,79,32
61960,note_on,21,0,12,,,,,,,,7,,,46,32
61960,note_on,21,0,9,,,,,,,,7,,,67,32
61960,note_on,21,0,8,,,,,,,,7,,,79,32
61960,note_on,21,0,11,,,,,,,,7,,,58,32
61960,note_on,21,0,1,,,,,,,,0,,,82,33
61960,note_on,0,0,1,,,,,,,,0,,,86,33
61960,note_on,21,0,10,,,,,,,,7,,,62,33
61960,note_on,0,0,4,,,,,,,,3,,,55,32
61960,note_on,21,0,4,,,,,,,,3,,,58,32
61979,note_on,19,0,11,,,,,,,,7,,,58,0
61979,note_on,0,0,2,,,,,,,,1,,,70,0
61979,note_on,19,0,2,,,,,,,,1,,,79,0
61979,note_on,19,0,4,,,,,,,,3,,,55,0
61979,note_on,19,0,9,,,,,,,,7,,,67,0
61979,note_on,0,0,1,,,,,,,,0,,,82,0
61979,note_on,19,0,1,,,,,,,,0,,,86,0
61979,note_on,19,0,8,,,,,,,,7,,,79,0
61979,note_on,19,0,12,,,,,,,,7,,,46,0
61979,note_on,0,0,4,,,,,,,,3,,,58,0
61979,note_on,19,0,10,,,,,,,,7,,,62,0
62000,note_on,21,0,9,,,,,,,,7,,,73,32
62000,note_on,0,0,2,,,,,,,,1,,,79,32
62000,note_on,21,0,10,,,,,,,,7,,,67,33
62000,note_on,21,0,11,,,,,,,,7,,,63,32
62000,note_on,21,0,4,,,,,,,,3,,,63,32
62000,note_on,0,0,4,,,,,,,,3,,,51,32
62000,note_on,0,0,1,,,,,,,,0,,,92,33
62000,note_on,21,0,8,,,,,,,,7,,,85,32
62000,note_on,21,0,2,,,,,,,,1,,,73,32
62000,note_on,21,0,1,,,,,,,,0,,,85,33
62000,note_on,21,0,12,,,,,,,,7,,,51,32
62019,note_on,19,0,8,,,,,,,,7,,,85,0
62019,note_on,19,0,12,,,,,,,,7,,,51,0
62019,note_on,19,0,2,,,,,,,,1,,,79,0
62019,note_on,0,0,2,,,,,,,,1,,,73,0
62019,note_on,0,0,1,,,,,,,,0,,,85,0
62019,note_on,19,0,4,,,,,,,,3,,,51,0
62019,note_on,0,0,4,,,,,,,,3,,,63,0
62019,note_on,19,0,10,,,,,,,,7,,,67,0
62019,note_on,19,0,11,,,,,,,,7,,,63,0
62019,note_on,19,0,9,,,,,,,,7,,,73,0
62019,note_on,19,0,1,,,,,,,,0,,,92,0
62040,note_on,21,0,4,,,,,,,,3,,,62,32
62040,note_on,0,0,4,,,,,,,,3,,,50,32
62040,note_on,21,0,11,,,,,,,,7,,,62,32
62040,note_on,0,0,1,,,,,,,,0,,,86,33
62040,note_on,21,0,12,,,,,,,,7,,,50,32
62040,note_on,21,0,10,,,,,,,,7,,,66,33
62040,note_on,21,0,1,,,,,,,,0,,,90,33
62040,note_on,21,0,9,,,,,,,,7,,,74,32
62040,note_on,0,0,2,,,,,,,,1,,,74,32
62040,note_on,21,0,2,,,,,,,,1,,,78,32
62040,note_on,21,0,8,,,,,,,,7,,,86,32
62059,note_on,19,0,11,,,,,,,,7,,,62,0
62059,note_on,0,0,2,,,,,,,,1,,,78,0
62059,note_on,19,0,4,,,,,,,,3,,,50,0
62059,note_on,0,0,4,,,,,,,,3,,,62,0
62059,note_on,19,0,9,,,,,,,,7,,,74,0
62059,note_on,19,0,10,,,,,,,,7,,,66,0
62059,note_on,19,0,8,,,,,,,,7,,,86,0
62059,note_on,19,0,2,,,,,,,,1,,,74,0
62059,note_on,19,0,12,,,,,,,,7,,,50,0
62059,note_on,19,0,1,,,,,,,,0,,,86,0
62059,note_on,0,0,1,,,,,,,,0,,,90,0
62080,note_on,21,0,12,,,,,,,,7,,,49,32
62080,note_on,21,0,10,,,,,,,,7,,,73,33
62080,note_on,21,0,11,,,,,,,,7,,,61,32
62080,note_on,21,0,8,,,,,,,,7,,,85,32
62080,note_on,21,0,9,,,,,,,,7,,,73,32
62099,note_on,19,0,12,,,,,,,,7,,,49,0
62099,note_on,19,0,11,,,,,,,,7,,,61,0
62099,note_on,19,0,8,,,,,,,,7,,,85,0
62099,note_on,19,0,10,,,,,,,,7,,,73,0
62099,note_on,19,0,9,,,,,,,,7,,,73,0
62120,note_on,21,0,9,,,,,,,,7,,,74,32
62120,note_on,21,0,11,,,,,,,,7,,,62,32
62120,note_on,21,0,12,,,,,,,,7,,,50,32
62120,note_on,21,0,8,,,,,,,,7,,,86,32
62120,note_on,21,0,10,,,,,,,,7,,,74,33
62139,note_on,19,0,9,,,,,,,,7,,,74,0
62139,note_on,19,0,11,,,,,,,,7,,,62,0
62139,note_on,19,0,12,,,,,,,,7,,,50,0
62139,note_on,19,0,10,,,,,,,,7,,,74,0
62139,note_on,19,0,8,,,,,,,,7,,,86,0
62160,note_on,21,0,10,,,,,,,,7,,,69,33
62160,note_on,21,0,9,,,,,,,,7,,,69,32
62160,note_on,21,0,8,,,,,,,,7,,,81,32
62160,note_on,21,0,11,,,,,,,,7,,,57,32
62160,note_on,21,0,12,,,,,,,,7,,,45,32
62179,note_on,19,0,12,,,,,,,,7,,,45,0
62179,note_on,19,0,9,,,,,,,,7,,,69,0
62179,note_on,19,0,10,,,,,,,,7,,,69,0
62179,note_on,19,0,11,,,,,,,,7,,,57,0
62179,note_on,19,0,8,,,,,,,,7,,,81,0
62200,note_on,21,0,9,,,,,,,,7,,,70,32
62200,note_on,21,0,12,,,,,,,,7,,,46,32
62200,note_on,21,0,10,,,,,,,,7,,,70,33
62200,note_on,21,0,11,,,,,,,,7,,,58,32
62200,note_on,21,0,8,,,,,,,,7,,,82,32
62219,note_on,19,0,12,,,,,,,,7,,,46,0
62219,note_on,19,0,8,,,,,,,,7,,,82,0
62219,note_on,19,0,10,,,,,,,,7,,,70,0
62219,note_on,19,0,11,,,,,,,,7,,,58,0
62219,note_on,19,0,9,,,,,,,,7,,,70,0
62240,note_on,21,0,8,,,,,,,,7,,,78,32
62240,note_on,21,0,9,,,,,,,,7,,,66,32
62240,note_on,21,0,10,,,,,,,,7,,,66,33
62240,note_on,21,0,11,,,,,,,,7,,,54,32
62240,note_on,21,0,12,,,,,,,,7,,,42,32
62259,note_on,19,0,10,,,,,,,,7,,,66,0
62259,note_on,19,0,9,,,,,,,,7,,,66,0
62259,note_on,19,0,11,,,,,,,,7,,,54,0
62259,note_on,19,0,12,,,,,,,,7,,,42,0
62259,note_on,19,0,8,,,,,,,,7,,,78,0
62280,note_on,21,0,11,,,,,,,,7,,,55,32
62280,note_on,21,0,9,,,,,,,,7,,,67,32
62280,note_on,21,0,10,,,,,,,,7,,,67,33
62280,note_on,21,0,12,,,,,,,,7,,,43,32
62280,note_on,21,0,8,,,,,,,,7,,,79,32
62299,note_on,19,0,8,,,,,,,,7,,,79,0
62299,note_on,19,0,10,,,,,,,,7,,,67,0
62299,note_on,19,0,11,,,,,,,,7,,,55,0
62299,note_on,19,0,12,,,,,,,,7,,,43,0
62299,note_on,19,0,9,,,,,,,,7,,,67,0
62320,note_on,21,0,9,,,,,,,,7,,,62,32
62320,note_on,21,0,8,,,,,,,,7,,,74,32
62320,note_on,21,0,11,,,,,,,,7,,,50,32
62320,note_on,21,0,12,,,,,,,,7,,,38,32
62320,note_on,21,0,10,,,,,,,,7,,,62,33
62339,note_on,19,0,8,,,,,,,,7,,,74,0
62339,note_on,19,0,11,,,,,,,,7,,,50,0
62339,note_on,19,0,10,,,,,,,,7,,,62,0
62339,note_on,19,0,12,,,,,,,,7,,,38,0
62339,note_on,19,0,9,,,,,,,,7,,,62,0
62360,note_on,21,0,10,,,,,,,,7,,,63,33
62360,note_on,21,0,8,,,,,,,,7,,,75,32
62360,note_on,21,0,11,,,,,,,,7,,,51,32
62360,note_on,21,0,9,,,,,,,,7,,,63,32
62360,note_on,21,0,12,,,,,,,,7,,,39,32
62379,note_on,19,0,10,,,,,,,,7,,,63,0
62379,note_on,19,0,9,,,,,,,,7,,,63,0
62379,note_on,19,0,8,,,,,,,,7,,,75,0
62379,note_on,19,0,11,,,,,,,,7,,,51,0
62379,note_on,19,0,12,,,,,,,,7,,,39,0
62400,note_on,21,0,9,,,,,,,,7,,,62,32
62400,note_on,21,0,8,,,,,,,,7,,,74,32
62400,note_on,21,0,12,,,,,,,,7,,,38,32
62400,note_on,21,0,11,,,,,,,,7,,,50,32
62400,note_on,21,0,10,,,,,,,,7,,,62,33
62419,note_on,19,0,12,,,,,,,,7,,,38,0
62419,note_on,19,0,8,,,,,,,,7,,,74,0
62419,note_on,19,0,9,,,,,,,,7,,,62,0
62419,note_on,19,0,11,,,,,,,,7,,,50,0
62419,note_on,19,0,10,,,,,,,,7,,,62,0
62440,note_on,21,0,12,,,,,,,,7,,,39,32
62440,note_on,21,0,9,,,,,,,,7,,,63,32
62440,note_on,21,0,11,,,,,,,,7,,,51,32
62440,note_on,21,0,8,,,,,,,,7,,,75,32
62440,note_on,21,0,10,,,,,,,,7,,,63,33
62459,note_on,19,0,9,,,,,,,,7,,,63,0
62459,note_on,19,0,11,,,,,,,,7,,,51,0
62459,note_on,19,0,12,,,,,,,,7,,,39,0
62459,note_on,19,0,10,,,,,,,,7,,,63,0
62459,note_on,19,0,8,,,,,,,,7,,,75,0
62480,note_on,21,0,10,,,,,,,,7,,,61,33
62480,note_on,21,0,12,,,,,,,,7,,,37,32
62480,note_on,21,0,11,,,,,,,,7,,,49,32
62480,note_on,21,0,8,,,,,,,,7,,,73,32
62480,note_on,21,0,9,,,,,,,,7,,,61,32
62499,note_on,19,0,8,,,,,,,,7,,,73,0
62499,note_on,19,0,10,,,,,,,,7,,,61,0
62499,note_on,19,0,12,,,,,,,,7,,,37,0
62499,note_on,19,0,9,,,,,,,,7,,,61,0
62499,note_on,19,0,11,,,,,,,,7,,,49,0
62520,note_on,21,0,9,,,,,,,,7,,,62,32
62520,note_on,21,0,11,,,,,,,,7,,,50,32
62520,note_on,21,0,8,,,,,,,,7,,,74,32
62520,note_on,21,0,10,,,,,,,,7,,,62,33
62520,note_on,21,0,12,,,,,,,,7,,,38,32
62539,note_on,19,0,11,,,,,,,,7,,,50,0
62539,note_on,19,0,10,,,,,,,,7,,,62,0
62539,note_on,19,0,8,,,,,,,,7,,,74,0
62539,note_on,19,0,12,,,,,,,,7,,,38,0
62539,note_on,19,0,9,,,,,,,,7,,,62,0
62560,note_on,21,0,12,,,,,,,,7,,,37,32
62560,note_on,21,0,9,,,,,,,,7,,,61,32
62560,note_on,21,0,10,,,,,,,,7,,,61,33
62560,note_on,21,0,11,,,,,,,,7,,,49,32
62560,note_on,21,0,8,,,,,,,,7,,,73,32
62579,note_on,19,0,12,,,,,,,,7,,,37,0
62579,note_on,19,0,9,,,,,,,,7,,,61,0
62579,note_on,19,0,10,,,,,,,,7,,,61,0
62579,note_on,19,0,8,,,,,,,,7,,,73,0
62579,note_on,19,0,11,,,,,,,,7,,,49,0
62600,note_on,21,0,12,,,,,,,,7,,,38,32
62600,note_on,21,0,11,,,,,,,,7,,,50,32
62600,note_on,21,0,8,,,,,,,,7,,,74,32
62600,note_on,21,0,9,,,,,,,,7,,,62,32
62600,note_on,21,0,10,,,,,,,,7,,,62,33
62619,note_on,19,0,11,,,,,,,,7,,,50,0
62619,note_on,19,0,9,,,,,,,,7,,,62,0
62619,note_on,19,0,10,,,,,,,,7,,,62,0
62619,note_on,19,0,12,,,,,,,,7,,,38,0
62619,note_on,19,0,8,,,,,,,,7,,,74,0
62640,note_on,21,0,8,,,,,,,,7,,,73,32
62640,note_on,21,0,12,,,,,,,,7,,,37,32
62640,note_on,21,0,9,,,,,,,,7,,,61,32
62640,note_on,21,0,10,,,,,,,,7,,,61,33
62640,note_on,21,0,11,,,,,,,,7,,,49,32
62659,note_on,19,0,10,,,,,,,,7,,,61,0
62659,note_on,19,0,11,,,,,,,,7,,,49,0
62659,note_on,19,0,12,,,,,,,,7,,,37,0
62659,note_on,19,0,8,,,,,,,,7,,,73,0
62659,note_on,19,0,9,,,,,,,,7,,,61,0
62680,note_on,21,0,12,,,,,,,,7,,,38,32
62680,note_on,21,0,10,,,,,,,,7,,,62,33
62680,note_on,21,0,11,,,,,,,,7,,,50,32
62680,note_on,21,0,8,,,,,,,,7,,,74,32
62680,note_on,21,0,9,,,,,,,,7,,,62,32
62699,note_on,19,0,10,,,,,,,,7,,,62,0
62699,note_on,19,0,11,,,,,,,,7,,,50,0
62699,note_on,19,0,12,,,,,,,,7,,,38,0
62699,note_on,19,0,8,,,,,,,,7,,,74,0
62699,note_on,19,0,9,,,,,,,,7,,,62,0
62720,note_on,21,0,8,,,,,,,,7,,,73,32
62720,note_on,21,0,9,,,,,,,,7,,,61,32
62720,note_on,21,0,12,,,,,,,,7,,,37,32
62720,note_on,21,0,10,,,,,,,,7,,,61,33
62720,note_on,21,0,11,,,,,,,,7,,,49,32
62739,note_on,19,0,10,,,,,,,,7,,,61,0
62739,note_on,19,0,9,,,,,,,,7,,,61,0
62739,note_on,19,0,11,,,,,,,,7,,,49,0
62739,note_on,19,0,12,,,,,,,,7,,,37,0
62739,note_on,19,0,8,,,,,,,,7,,,73,0
62760,note_on,21,0,10,,,,,,,,7,,,62,33
62760,note_on,21,0,12,,,,,,,,7,,,38,32
62760,note_on,21,0,11,,,,,,,,7,,,50,32
62760,note_on,21,0,9,,,,,,,,7,,,62,32
62760,note_on,21,0,8,,,,,,,,7,,,74,32
62779,note_on,19,0,12,,,,,,,,7,,,38,0
62779,note_on,19,0,11,,,,,,,,7,,,50,0
62779,note_on,19,0,10,,,,,,,,7,,,62,0
62779,note_on,19,0,8,,,,,,,,7,,,74,0
62779,note_on,19,0,9,,,,,,,,7,,,62,0
62800,note_on,21,0,10,,,,,,,,7,,,61,33
62800,note_on,21,0,9,,,,,,,,7,,,61,32
62800,note_on,21,0,11,,,,,,,,7,,,49,32
62800,note_on,21,0,12,,,,,,,,7,,,37,32
62800,note_on,21,0,8,,,,,,,,7,,,73,32
62819,note_on,19,0,12,,,,,,,,7,,,37,0
62819,note_on,19,0,8,,,,,,,,7,,,73,0
62819,note_on,19,0,11,,,,,,,,7,,,49,0
62819,note_on,19,0,9,,,,,,,,7,,,61,0
62819,note_on,19,0,10,,,,,,,,7,,,61,0
62840,note_on,21,0,9,,,,,,,,7,,,62,32
62840,note_on,21,0,11,,,,,,,,7,,,50,32
62840,note_on,21,0,12,,,,,,,,7,,,38,32
62840,note_on,21,0,8,,,,,,,,7,,,74,32
62840,note_on,21,0,10,,,,,,,,7,,,62,33
62859,note_on,19,0,10,,,,,,,,7,,,62,0
62859,note_on,19,0,9,,,,,,,,7,,,62,0
62859,note_on,19,0,11,,,,,,,,7,,,50,0
62859,note_on,19,0,12,,,,,,,,7,,,38,0
62859,note_on,19,0,8,,,,,,,,7,,,74,0
62880,note_on,21,0,9,,,,,,,,7,,,61,32
62880,note_on,21,0,11,,,,,,,,7,,,49,32
62880,note_on,21,0,10,,,,,,,,7,,,61,33
62880,note_on,21,0,8,,,,,,,,7,,,73,32
62880,note_on,21,0,12,,,,,,,,7,,,37,32
62899,note_on,19,0,11,,,,,,,,7,,,49,0
62899,note_on,19,0,9,,,,,,,,7,,,61,0
62899,note_on,19,0,12,,,,,,,,7,,,37,0
62899,note_on,19,0,8,,,,,,,,7,,,73,0
62899,note_on,19,0,10,,,,,,,,7,,,61,0
62920,note_on,21,0,11,,,,,,,,7,,,50,32
62920,note_on,21,0,12,,,,,,,,7,,,38,32
62920,note_on,21,0,8,,,,,,,,7,,,74,32
62920,note_on,21,0,10,,,,,,,,7,,,62,33
62920,note_on,21,0,9,,,,,,,,7,,,62,32
62939,note_on,19,0,9,,,,,,,,7,,,62,0
62939,note_on,19,0,11,,,,,,,,7,,,50,0
62939,note_on,19,0,12,,,,,,,,7,,,38,0
62939,note_on,19,0,8,,,,,,,,7,,,74,0
62939,note_on,19,0,10,,,,,,,,7,,,62,0
62960,note_on,21,0,10,,,,,,,,7,,,61,33
62960,note_on,21,0,11,,,,,,,,7,,,49,32
62960,note_on,21,0,12,,,,,,,,7,,,37,32
62960,note_on,21,0,9,,,,,,,,7,,,61,32
62960,note_on,21,0,8,,,,,,,,7,,,73,32
62979,note_on,19,0,8,,,,,,,,7,,,73,0
62979,note_on,19,0,10,,,,,,,,7,,,61,0
62979,note_on,19,0,12,,,,,,,,7,,,37,0
62979,note_on,19,0,9,,,,,,,,7,,,61,0
62979,note_on,19,0,11,,,,,,,,7,,,49,0
63000,note_on,21,0,10,,,,,,,,7,,,62,33
63000,note_on,21,0,12,,,,,,,,7,,,38,32
63000,note_on,21,0,11,,,,,,,,7,,,50,32
63000,note_on,21,0,9,,,,,,,,7,,,62,32
63000,note_on,21,0,8,,,,,,,,7,,,74,32
63019,note_on,19,0,11,,,,,,,,7,,,50,0
63019,note_on,19,0,10,,,,,,,,7,,,62,0
63019,note_on,19,0,8,,,,,,,,7,,,74,0
63019,note_on,19,0,9,,,,,,,,7,,,62,0
63019,note_on,19,0,12,,,,,,,,7,,,38,0
63040,note_on,21,0,10,,,,,,,,7,,,50,33
63059,note_on,19,0,10,,,,,,,,7,,,50,0
63080,note_on,21,0,10,,,,,,,,7,,,50,33
63099,note_on,19,0,10,,,,,,,,7,,,50,0
63120,note_on,21,0,10,,,,,,,,7,,,50,33
63139,note_on,19,0,10,,,,,,,,7,,,50,0
63160,note_on,21,0,10,,,,,,,,7,,,50,33
63179,note_on,19,0,10,,,,,,,,7,,,50,0
63200,note_on,21,0,10,,,,,,,,7,,,50,33
63219,note_on,19,0,10,,,,,,,,7,,,50,0
63240,note_on,21,0,10,,,,,,,,7,,,50,33
63259,note_on,19,0,10,,,,,,,,7,,,50,0
63280,note_on,21,0,10,,,,,,,,7,,,50,33
63299,note_on,19,0,10,,,,,,,,7,,,50,0
63320,note_on,21,0,10,,,,,,,,7,,,50,33
63339,note_on,19,0,10,,,,,,,,7,,,50,0
63360,note_on,21,0,10,,,,,,,,7,,,50,33
63379,note_on,19,0,10,,,,,,,,7,,,50,0
63400,note_on,21,0,10,,,,,,,,7,,,50,33
63419,note_on,19,0,10,,,,,,,,7,,,50,0
63440,note_on,21,0,10,,,,,,,,7,,,50,33
63459,note_on,19,0,10,,,,,,,,7,,,50,0
63480,note_on,461,0,11,,,,,,,,7,,,46,32
63480,note_on,461,0,12,,,,,,,,7,,,34,32
63499,note_on,19,0,11,,,,,,,,7,,,46,0
63519,note_on,39,0,12,,,,,,,,7,,,34,0
63520,note_on,21,0,11,,,,,,,,7,,,46,32
63520,note_on,1,0,12,,,,,,,,7,,,34,32
63539,note_on,19,0,11,,,,,,,,7,,,46,0
63559,note_on,39,0,12,,,,,,,,7,,,34,0
63560,note_on,1,0,12,,,,,,,,7,,,34,32
63560,note_on,21,0,11,,,,,,,,7,,,46,32
63579,note_on,19,0,11,,,,,,,,7,,,46,0
63599,note_on,39,0,12,,,,,,,,7,,,34,0
63600,note_on,21,0,11,,,,,,,,7,,,46,32
63600,note_on,1,0,12,,,,,,,,7,,,34,32
63619,note_on,19,0,11,,,,,,,,7,,,46,0
63639,note_on,39,0,12,,,,,,,,7,,,34,0
63640,note_on,21,0,11,,,,,,,,7,,,46,32
63640,note_on,1,0,12,,,,,,,,7,,,34,32
63659,note_on,19,0,11,,,,,,,,7,,,46,0
63679,note_on,39,0,12,,,,,,,,7,,,34,0
63680,note_on,1,0,12,,,,,,,,7,,,34,32
63680,note_on,21,0,11,,,,,,,,7,,,46,32
63699,note_on,19,0,11,,,,,,,,7,,,46,0
63719,note_on,39,0,12,,,,,,,,7,,,34,0
63720,note_on,1,0,12,,,,,,,,7,,,34,32
63720,note_on,21,0,11,,,,,,,,7,,,46,32
63739,note_on,19,0,11,,,,,,,,7,,,46,0
63759,note_on,39,0,12,,,,,,,,7,,,34,0
63760,note_on,21,0,11,,,,,,,,7,,,46,32
63760,note_on,1,0,12,,,,,,,,7,,,34,32
63779,note_on,19,0,11,,,,,,,,7,,,46,0
63799,note_on,39,0,12,,,,,,,,7,,,34,0
63800,note_on,1,0,12,,,,,,,,7,,,34,32
63800,note_on,21,0,11,,,,,,,,7,,,46,32
63819,note_on,19,0,11,,,,,,,,7,,,46,0
63839,note_on,39,0,12,,,,,,,,7,,,34,0
63840,note_on,21,0,11,,,,,,,,7,,,46,32
63840,note_on,1,0,12,,,,,,,,7,,,34,32
63859,note_on,19,0,11,,,,,,,,7,,,46,0
63879,note_on,39,0,12,,,,,,,,7,,,34,0
63880,note_on,21,0,11,,,,,,,,7,,,46,32
63880,note_on,1,0,12,,,,,,,,7,,,34,32
63899,note_on,19,0,11,,,,,,,,7,,,46,0
63919,note_on,39,0,12,,,,,,,,7,,,34,0
63920,note_on,1,0,12,,,,,,,,7,,,34,32
63920,note_on,461,0,10,,,,,,,,7,,,51,33
63920,note_on,21,0,11,,,,,,,,7,,,46,32
63920,note_on,901,0,8,,,,,,,,7,,,58,32
63920,note_on,901,0,9,,,,,,,,7,,,55,32
63939,note_on,19,0,10,,,,,,,,7,,,51,0
63939,note_on,19,0,8,,,,,,,,7,,,58,0
63939,note_on,19,0,9,,,,,,,,7,,,55,0
63939,note_on,19,0,11,,,,,,,,7,,,46,0
63959,note_on,39,0,12,,,,,,,,7,,,34,0
63960,note_on,21,0,11,,,,,,,,7,,,46,32
63960,note_on,21,0,8,,,,,,,,7,,,58,32
63960,note_on,21,0,9,,,,,,,,7,,,55,32
63960,note_on,21,0,10,,,,,,,,7,,,51,33
63960,note_on,1,0,12,,,,,,,,7,,,34,32
63979,note_on,19,0,9,,,,,,,,7,,,55,0
63979,note_on,19,0,11,,,,,,,,7,,,46,0
63979,note_on,19,0,8,,,,,,,,7,,,58,0
63979,note_on,19,0,10,,,,,,,,7,,,51,0
63999,note_on,39,0,12,,,,,,,,7,,,34,0
64000,note_on,21,0,9,,,,,,,,7,,,56,32
64000,note_on,21,0,11,,,,,,,,7,,,46,32
64000,note_on,21,0,8,,,,,,,,7,,,60,32
64000,note_on,21,0,10,,,,,,,,7,,,51,33
64000,note_on,1,0,12,,,,,,,,7,,,34,32
64019,note_on,19,0,10,,,,,,,,7,,,51,0
64019,note_on,19,0,11,,,,,,,,7,,,46,0
64019,note_on,19,0,8,,,,,,,,7,,,60,0
64019,note_on,19,0,9,,,,,,,,7,,,56,0
64039,note_on,39,0,12,,,,,,,,7,,,34,0
64040,note_on,1,0,12,,,,,,,,7,,,34,32
64040,note_on,21,0,8,,,,,,,,7,,,58,32
64040,note_on,21,0,9,,,,,,,,7,,,55,32
64040,note_on,21,0,11,,,,,,,,7,,,46,32
64040,note_on,21,0,10,,,,,,,,7,,,51,33
64059,note_on,19,0,8,,,,,,,,7,,,58,0
64059,note_on,19,0,9,,,,,,,,7,,,55,0
64059,note_on,19,0,11,,,,,,,,7,,,46,0
64059,note_on,19,0,10,,,,,,,,7,,,51,0
64079,note_on,39,0,12,,,,,,,,7,,,34,0
64080,note_on,1,0,12,,,,,,,,7,,,34,32
64080,note_on,21,0,8,,,,,,,,7,,,60,32
64080,note_on,21,0,11,,,,,,,,7,,,46,32
64080,note_on,21,0,9,,,,,,,,7,,,56,32
64080,note_on,21,0,10,,,,,,,,7,,,51,33
64099,note_on,19,0,10,,,,,,,,7,,,51,0
64099,note_on,19,0,9,,,,,,,,7,,,56,0
64099,note_on,19,0,8,,,,,,,,7,,,60,0
64099,note_on,19,0,11,,,,,,,,7,,,46,0
64119,note_on,39,0,12,,,,,,,,7,,,34,0
64120,note_on,21,0,10,,,,,,,,7,,,51,33
64120,note_on,21,0,9,,,,,,,,7,,,55,32
64120,note_on,21,0,8,,,,,,,,7,,,58,32
64120,note_on,1,0,12,,,,,,,,7,,,34,32
64120,note_on,21,0,11,,,,,,,,7,,,46,32
64139,note_on,19,0,9,,,,,,,,7,,,55,0
64139,note_on,19,0,11,,,,,,,,7,,,46,0
64139,note_on,19,0,8,,,,,,,,7,,,58,0
64139,note_on,19,0,10,,,,,,,,7,,,51,0
64159,note_on,39,0,12,,,,,,,,7,,,34,0
64160,note_on,21,0,11,,,,,,,,7,,,46,32
64160,note_on,21,0,10,,,,,,,,7,,,51,33
64160,note_on,21,0,9,,,,,,,,7,,,56,32
64160,note_on,21,0,8,,,,,,,,7,,,60,32
64160,note_on,1,0,12,,,,,,,,7,,,34,32
64179,note_on,19,0,10,,,,,,,,7,,,51,0
64179,note_on,19,0,11,,,,,,,,7,,,46,0
64179,note_on,19,0,9,,,,,,,,7,,,56,0
64179,note_on,19,0,8,,,,,,,,7,,,60,0
64199,note_on,39,0,12,,,,,,,,7,,,34,0
64200,note_on,21,0,11,,,,,,,,7,,,46,32
64200,note_on,21,0,9,,,,,,,,7,,,55,32
64200,note_on,1,0,12,,,,,,,,7,,,34,32
64200,note_on,21,0,10,,,,,,,,7,,,51,33
64200,note_on,21,0,8,,,,,,,,7,,,58,32
64219,note_on,19,0,11,,,,,,,,7,,,46,0
64219,note_on,19,0,10,,,,,,,,7,,,51,0
64219,note_on,19,0,9,,,,,,,,7,,,55,0
64219,note_on,19,0,8,,,,,,,,7,,,58,0
64239,note_on,39,0,12,,,,,,,,7,,,34,0
64240,note_on,21,0,9,,,,,,,,7,,,56,32
64240,note_on,21,0,10,,,,,,,,7,,,51,33
64240,note_on,21,0,8,,,,,,,,7,,,60,32
64240,note_on,1,0,12,,,,,,,,7,,,34,32
64240,note_on,21,0,11,,,,,,,,7,,,46,32
64259,note_on,19,0,8,,,,,,,,7,,,60,0
64259,note_on,19,0,10,,,,,,,,7,,,51,0
64259,note_on,19,0,9,,,,,,,,7,,,56,0
64259,note_on,19,0,11,,,,,,,,7,,,46,0
64279,note_on,39,0,12,,,,,,,,7,,,34,0
64280,note_on,21,0,8,,,,,,,,7,,,58,32
64280,note_on,21,0,9,,,,,,,,7,,,55,32
64280,note_on,21,0,10,,,,,,,,7,,,51,33
64280,note_on,1,0,12,,,,,,,,7,,,34,32
64280,note_on,21,0,11,,,,,,,,7,,,46,32
64299,note_on,19,0,11,,,,,,,,7,,,46,0
64299,note_on,19,0,10,,,,,,,,7,,,51,0
64299,note_on,19,0,9,,,,,,,,7,,,55,0
64299,note_on,19,0,8,,,,,,,,7,,,58,0
64319,note_on,39,0,12,,,,,,,,7,,,34,0
64320,note_on,1,0,12,,,,,,,,7,,,34,32
64320,note_on,21,0,8,,,,,,,,7,,,60,32
64320,note_on,21,0,9,,,,,,,,7,,,56,32
64320,note_on,21,0,11,,,,,,,,7,,,46,32
64320,note_on,21,0,10,,,,,,,,7,,,51,33
64339,note_on,19,0,10,,,,,,,,7,,,51,0
64339,note_on,19,0,8,,,,,,,,7,,,60,0
64339,note_on,19,0,11,,,,,,,,7,,,46,0
64339,note_on,19,0,9,,,,,,,,7,,,56,0
64359,note_on,39,0,12,,,,,,,,7,,,34,0
64360,note_on,1,0,12,,,,,,,,7,,,34,32
64360,note_on,21,0,10,,,,,,,,7,,,51,33
64360,note_on,21,0,8,,,,,,,,7,,,58,32
64360,note_on,21,0,11,,,,,,,,7,,,46,32
64360,note_on,21,0,9,,,,,,,,7,,,55,32
64379,note_on,19,0,8,,,,,,,,7,,,58,0
64379,note_on,19,0,9,,,,,,,,7,,,55,0
64379,note_on,19,0,11,,,,,,,,7,,,46,0
64379,note_on,19,0,10,,,,,,,,7,,,51,0
64399,note_on,39,0,12,,,,,,,,7,,,34,0
64400,note_on,1,0,12,,,,,,,,7,,,34,32
64400,note_on,10481,0,3,,,,,,,,2,,,68,48
64400,note_on,21,0,9,,,,,,,,7,,,56,32
64400,note_on,2341,0,2,,,,,,,,1,,,72,49
64400,note_on,21,0,8,,,,,,,,7,,,60,32
64400,note_on,21,0,11,,,,,,,,7,,,46,32
64400,note_on,0,0,4,,,,,,,,3,,,60,48
64400,note_on,21,0,10,,,,,,,,7,,,51,33
64400,note_on,2341,0,4,,,,,,,,3,,,56,48
64419,note_on,19,0,3,,,,,,,,2,,,68,0
64419,note_on,19,0,10,,,,,,,,7,,,51,0
64419,note_on,19,0,8,,,,,,,,7,,,60,0
64419,note_on,19,0,11,,,,,,,,7,,,46,0
64419,note_on,19,0,9,,,,,,,,7,,,56,0
64419,note_on,0,0,4,,,,,,,,3,,,56,0
64419,note_on,19,0,4,,,,,,,,3,,,60,0
64419,note_on,19,0,2,,,,,,,,1,,,72,0
64439,note_on,39,0,12,,,,,,,,7,,,34,0
64440,note_on,21,0,10,,,,,,,,7,,,51,33
64440,note_on,21,0,2,,,,,,,,1,,,70,49
64440,note_on,21,0,8,,,,,,,,7,,,58,32
64440,note_on,21,0,3,,,,,,,,2,,,67,48
64440,note_on,1,0,12,,,,,,,,7,,,34,32
64440,note_on,21,0,9,,,,,,,,7,,,55,32
64440,note_on,21,0,4,,,,,,,,3,,,55,48
64440,note_on,0,0,4,,,,,,,,3,,,58,48
64440,note_on,21,0,11,,,,,,,,7,,,46,32
64459,note_on,19,0,8,,,,,,,,7,,,58,0
64459,note_on,19,0,9,,,,,,,,7,,,55,0
64459,note_on,19,0,10,,,,,,,,7,,,51,0
64459,note_on,19,0,2,,,,,,,,1,,,70,0
64459,note_on,19,0,11,,,,,,,,7,,,46,0
64459,note_on,19,0,3,,,,,,,,2,,,67,0
64459,note_on,19,0,4,,,,,,,,3,,,58,0
64459,note_on,0,0,4,,,,,,,,3,,,55,0
64479,note_on,39,0,12,,,,,,,,7,,,34,0
64480,note_on,21,0,2,,,,,,,,1,,,72,49
64480,note_on,21,0,4,,,,,,,,3,,,56,48
64480,note_on,21,0,9,,,,,,,,7,,,56,32
64480,note_on,21,0,3,,,,,,,,2,,,68,48
64480,note_on,0,0,4,,,,,,,,3,,,60,48
64480,note_on,21,0,11,,,,,,,,7,,,46,32
64480,note_on,1,0,12,,,,,,,,7,,,34,32
64480,note_on,21,0,10,,,,,,,,7,,,51,33
64480,note_on,21,0,8,,,,,,,,7,,,60,32
64499,note_on,19,0,8,,,,,,,,7,,,60,0
64499,note_on,19,0,2,,,,,,,,1,,,72,0
64499,note_on,19,0,4,,,,,,,,3,,,60,0
64499,note_on,19,0,3,,,,,,,,2,,,68,0
64499,note_on,19,0,11,,,,,,,,7,,,46,0
64499,note_on,19,0,10,,,,,,,,7,,,51,0
64499,note_on,19,0,9,,,,,,,,7,,,56,0
64499,note_on,0,0,4,,,,,,,,3,,,56,0
64519,note_on,39,0,12,,,,,,,,7,,,34,0
64520,note_on,21,0,11,,,,,,,,7,,,46,32
64520,note_on,21,0,10,,,,,,,,7,,,51,33
64520,note_on,21,0,8,,,,,,,,7,,,58,32
64520,note_on,1,0,12,,,,,,,,7,,,34,32
64520,note_on,21,0,2,,,,,,,,1,,,70,49
64520,note_on,21,0,4,,,,,,,,3,,,55,48
64520,note_on,0,0,4,,,,,,,,3,,,58,48
64520,note_on,21,0,9,,,,,,,,7,,,55,32
64520,note_on,21,0,3,,,,,,,,2,,,67,48
64539,note_on,19,0,10,,,,,,,,7,,,51,0
64539,note_on,19,0,2,,,,,,,,1,,,70,0
64539,note_on,19,0,8,,,,,,,,7,,,58,0
64539,note_on,19,0,11,,,,,,,,7,,,46,0
64539,note_on,19,0,4,,,,,,,,3,,,58,0
64539,note_on,19,0,9,,,,,,,,7,,,55,0
64539,note_on,19,0,3,,,,,,,,2,,,67,0
64539,note_on,0,0,4,,,,,,,,3,,,55,0
64559,note_on,39,0,12,,,,,,,,7,,,34,0
64560,note_on,1,0,12,,,,,,,,7,,,34,32
64560,note_on,0,0,4,,,,,,,,3,,,60,48
64560,note_on,21,0,4,,,,,,,,3,,,56,48
64560,note_on,21,0,2,,,,,,,,1,,,72,49
64560,note_on,21,0,3,,,,,,,,2,,,68,48
64560,note_on,21,0,10,,,,,,,,7,,,51,33
64560,note_on,21,0,8,,,,,,,,7,,,60,32
64560,note_on,21,0,11,,,,,,,,7,,,46,32
64560,note_on,21,0,9,,,,,,,,7,,,56,32
64579,note_on,19,0,8,,,,,,,,7,,,60,0
64579,note_on,19,0,3,,,,,,,,2,,,68,0
64579,note_on,19,0,11,,,,,,,,7,,,46,0
64579,note_on,19,0,4,,,,,,,,3,,,60,0
64579,note_on,19,0,2,,,,,,,,1,,,72,0
64579,note_on,0,0,4,,,,,,,,3,,,56,0
64579,note_on,19,0,10,,,,,,,,7,,,51,0
64579,note_on,19,0,9,,,,,,,,7,,,56,0
64599,note_on,39,0,12,,,,,,,,7,,,34,0
64600,note_on,21,0,11,,,,,,,,7,,,46,32
64600,note_on,21,0,3,,,,,,,,2,,,67,48
64600,note_on,21,0,4,,,,,,,,3,,,55,48
64600,note_on,0,0,4,,,,,,,,3,,,58,48
64600,note_on,1,0,12,,,,,,,,7,,,34,32
64600,note_on,21,0,9,,,,,,,,7,,,55,32
64600,note_on,21,0,10,,,,,,,,7,,,51,33
64600,note_on,21,0,2,,,,,,,,1,,,70,49
64600,note_on,21,0,8,,,,,,,,7,,,58,32
64619,note_on,19,0,2,,,,,,,,1,,,70,0
64619,note_on,19,0,9,,,,,,,,7,,,55,0
64619,note_on,19,0,11,,,,,,,,7,,,46,0
64619,note_on,19,0,4,,,,,,,,3,,,58,0
64619,note_on,19,0,3,,,,,,,,2,,,67,0
64619,note_on,19,0,8,,,,,,,,7,,,58,0
64619,note_on,0,0,4,,,,,,,,3,,,55,0
64619,note_on,19,0,10,,,,,,,,7,,,51,0
64639,note_on,39,0,12,,,,,,,,7,,,34,0
64640,note_on,21,0,3,,,,,,,,2,,,68,48
64640,note_on,21,0,2,,,,,,,,1,,,74,49
64640,note_on,21,0,10,,,,,,,,7,,,53,33
64640,note_on,21,0,8,,,,,,,,7,,,62,32
64640,note_on,21,0,11,,,,,,,,7,,,46,32
64640,note_on,0,0,4,,,,,,,,3,,,58,48
64640,note_on,0,0,5,,,,,,,,4,,,70,48
64640,note_on,10241,0,5,,,,,,,,4,,,58,48
64640,note_on,21,0,9,,,,,,,,7,,,56,32
64640,note_on,21,0,4,,,,,,,,3,,,62,48
64640,note_on,1,0,12,,,,,,,,7,,,34,32
64659,note_on,19,0,4,,,,,,,,3,,,58,0
64659,note_on,0,0,4,,,,,,,,3,,,62,0
64659,note_on,19,0,11,,,,,,,,7,,,46,0
64659,note_on,19,0,2,,,,,,,,1,,,74,0
64659,note_on,19,0,5,,,,,,,,4,,,70,0
64659,note_on,19,0,3,,,,,,,,2,,,68,0
64659,note_on,19,0,9,,,,,,,,7,,,56,0
64659,note_on,19,0,8,,,,,,,,7,,,62,0
64659,note_on,19,0,10,,,,,,,,7,,,53,0
64659,note_on,0,0,5,,,,,,,,4,,,58,0
64679,note_on,39,0,12,,,,,,,,7,,,34,0
64680,note_on,21,0,10,,,,,,,,7,,,55,33
64680,note_on,21,0,2,,,,,,,,1,,,75,49
64680,note_on,0,0,4,,,,,,,,3,,,63,48
64680,note_on,21,0,4,,,,,,,,3,,,58,48
64680,note_on,21,0,8,,,,,,,,7,,,63,32
64680,note_on,21,0,5,,,,,,,,4,,,58,48
64680,note_on,0,0,5,,,,,,,,4,,,70,48
64680,note_on,21,0,11,,,,,,,,7,,,46,32
64680,note_on,21,0,9,,,,,,,,7,,,58,32
64680,note_on,21,0,3,,,,,,,,2,,,67,48
64680,note_on,1,0,12,,,,,,,,7,,,34,32
64699,note_on,19,0,9,,,,,,,,7,,,58,0
64699,note_on,19,0,10,,,,,,,,7,,,55,0
64699,note_on,19,0,5,,,,,,,,4,,,70,0
64699,note_on,0,0,5,,,,,,,,4,,,58,0
64699,note_on,19,0,8,,,,,,,,7,,,63,0
64699,note_on,19,0,11,,,,,,,,7,,,46,0
64699,note_on,19,0,4,,,,,,,,3,,,63,0
64699,note_on,0,0,4,,,,,,,,3,,,58,0
64699,note_on,19,0,3,,,,,,,,2,,,67,0
64699,note_on,19,0,2,,,,,,,,1,,,75,0
64719,note_on,39,0,12,,,,,,,,7,,,34,0
64720,note_on,21,0,10,,,,,,,,7,,,62,33
64720,note_on,21,0,5,,,,,,,,4,,,70,48
64720,note_on,21,0,3,,,,,,,,2,,,65,48
64720,note_on,21,0,2,,,,,,,,1,,,70,49
64720,note_on,0,0,5,,,,,,,,4,,,58,48
64720,note_on,0,0,2,,,,,,,,1,,,77,49
64720,note_on,21,0,8,,,,,,,,7,,,65,32
64720,note_on,21,0,11,,,,,,,,7,,,46,32
64720,note_on,21,0,9,,,,,,,,7,,,58,32
64720,note_on,1,0,12,,,,,,,,7,,,34,32
64739,note_on,19,0,2,,,,,,,,1,,,77,0
64739,note_on,0,0,2,,,,,,,,1,,,70,0
64739,note_on,19,0,11,,,,,,,,7,,,46,0
64739,note_on,19,0,3,,,,,,,,2,,,65,0
64739,note_on,19,0,9,,,,,,,,7,,,58,0
64739,note_on,19,0,5,,,,,,,,4,,,58,0
64739,note_on,0,0,5,,,,,,,,4,,,70,0
64739,note_on,19,0,10,,,,,,,,7,,,62,0
64739,note_on,19,0,8,,,,,,,,7,,,65,0
64759,note_on,39,0,12,,,,,,,,7,,,34,0
64760,note_on,1,0,12,,,,,,,,7,,,34,32
64760,note_on,21,0,2,,,,,,,,1,,,78,49
64760,note_on,0,0,2,,,,,,,,1,,,70,49
64760,note_on,21,0,10,,,,,,,,7,,,62,33
64760,note_on,0,0,5,,,,,,,,4,,,58,48
64760,note_on,21,0,5,,,,,,,,4,,,70,48
64760,note_on,21,0,9,,,,,,,,7,,,58,32
64760,note_on,21,0,8,,,,,,,,7,,,66,32
64760,note_on,21,0,3,,,,,,,,2,,,66,48
64760,note_on,21,0,11,,,,,,,,7,,,46,32
64779,note_on,19,0,9,,,,,,,,7,,,58,0
64779,note_on,19,0,10,,,,,,,,7,,,62,0
64779,note_on,0,0,5,,,,,,,,4,,,70,0
64779,note_on,19,0,5,,,,,,,,4,,,58,0
64779,note_on,19,0,3,,,,,,,,2,,,66,0
64779,note_on,19,0,11,,,,,,,,7,,,46,0
64779,note_on,19,0,8,,,,,,,,7,,,66,0
64779,note_on,19,0,2,,,,,,,,1,,,70,0
64779,note_on,0,0,2,,,,,,,,1,,,78,0
64799,note_on,39,0,12,,,,,,,,7,,,34,0
64800,note_on,21,0,9,,,,,,,,7,,,58,32
64800,note_on,21,0,2,,,,,,,,1,,,79,49
64800,note_on,21,0,10,,,,,,,,7,,,63,33
64800,note_on,21,0,5,,,,,,,,4,,,58,48
64800,note_on,0,0,5,,,,,,,,4,,,70,48
64800,note_on,21,0,8,,,,,,,,7,,,67,32
64800,note_on,21,0,3,,,,,,,,2,,,67,48
64800,note_on,0,0,2,,,,,,,,1,,,70,49
64800,note_on,1,0,12,,,,,,,,7,,,34,32
64800,note_on,21,0,11,,,,,,,,7,,,46,32
64819,note_on,19,0,3,,,,,,,,2,,,67,0
64819,note_on,19,0,10,,,,,,,,7,,,63,0
64819,note_on,0,0,5,,,,,,,,4,,,58,0
64819,note_on,19,0,11,,,,,,,,7,,,46,0
64819,note_on,19,0,2,,,,,,,,1,,,70,0
64819,note_on,19,0,5,,,,,,,,4,,,70,0
64819,note_on,19,0,8,,,,,,,,7,,,67,0
64819,note_on,19,0,9,,,,,,,,7,,,58,0
64819,note_on,0,0,2,,,,,,,,1,,,79,0
64839,note_on,39,0,12,,,,,,,,7,,,34,0
64840,note_on,21,0,11,,,,,,,,7,,,46,32
64840,note_on,0,0,9,,,,,,,,7,,,58,32
64840,note_on,21,0,9,,,,,,,,7,,,65,32
64840,note_on,21,0,3,,,,,,,,2,,,68,48
64840,note_on,0,0,5,,,,,,,,4,,,70,48
64840,note_on,21,0,5,,,,,,,,4,,,58,48
64840,note_on,21,0,8,,,,,,,,7,,,68,32
64840,note_on,1,0,12,,,,,,,,7,,,34,32
64840,note_on,0,0,2,,,,,,,,1,,,77,49
64840,note_on,21,0,10,,,,,,,,7,,,62,33
64840,note_on,21,0,2,,,,,,,,1,,,80,49
64859,note_on,19,0,5,,,,,,,,4,,,70,0
64859,note_on,19,0,8,,,,,,,,7,,,68,0
64859,note_on,19,0,9,,,,,,,,7,,,58,0
64859,note_on,0,0,5,,,,,,,,4,,,58,0
64859,note_on,19,0,10,,,,,,,,7,,,62,0
64859,note_on,19,0,2,,,,,,,,1,,,77,0
64859,note_on,19,0,3,,,,,,,,2,,,68,0
64859,note_on,0,0,2,,,,,,,,1,,,80,0
64859,note_on,19,0,11,,,,,,,,7,,,46,0
64859,note_on,0,0,9,,,,,,,,7,,,65,0
64879,note_on,39,0,12,,,,,,,,7,,,34,0
64880,note_on,0,0,5,,,,,,,,4,,,70,48
64880,note_on,21,0,11,,,,,,,,7,,,46,32
64880,note_on,0,0,9,,,,,,,,7,,,63,32
64880,note_on,0,0,2,,,,,,,,1,,,75,49
64880,note_on,1,0,12,,,,,,,,7,,,34,32
64880,note_on,21,0,3,,,,,,,,2,,,69,48
64880,note_on,21,0,2,,,,,,,,1,,,81,49
64880,note_on,21,0,5,,,,,,,,4,,,58,48
64880,note_on,21,0,10,,,,,,,,7,,,60,33
64880,note_on,21,0,9,,,,,,,,7,,,58,32
64880,note_on,21,0,8,,,,,,,,7,,,69,32
64899,note_on,19,0,5,,,,,,,,4,,,70,0
64899,note_on,0,0,5,,,,,,,,4,,,58,0
64899,note_on,19,0,8,,,,,,,,7,,,69,0
64899,note_on,19,0,10,,,,,,,,7,,,60,0
64899,note_on,19,0,9,,,,,,,,7,,,63,0
64899,note_on,19,0,11,,,,,,,,7,,,46,0
64899,note_on,19,0,3,,,,,,,,2,,,69,0
64899,note_on,19,0,2,,,,,,,,1,,,75,0
64899,note_on,0,0,2,,,,,,,,1,,,81,0
64899,note_on,0,0,9,,,,,,,,7,,,58,0
64919,note_on,39,0,12,,,,,,,,7,,,34,0
64920,note_on,21,0,9,,,,,,,,7,,,62,32
64920,note_on,1,0,12,,,,,,,,7,,,34,32
64920,note_on,21,0,8,,,,,,,,7,,,70,32
64920,note_on,0,0,5,,,,,,,,4,,,70,48
64920,note_on,21,0,2,,,,,,,,1,,,82,49
64920,note_on,0,0,2,,,,,,,,1,,,74,49
64920,note_on,21,0,5,,,,,,,,4,,,58,48
64920,note_on,21,0,3,,,,,,,,2,,,70,48
64920,note_on,0,0,9,,,,,,,,7,,,58,32
64920,note_on,21,0,11,,,,,,,,7,,,46,32
64920,note_on,21,0,10,,,,,,,,7,,,58,33
64939,note_on,19,0,3,,,,,,,,2,,,70,0
64939,note_on,0,0,2,,,,,,,,1,,,82,0
64939,note_on,19,0,2,,,,,,,,1,,,74,0
64939,note_on,0,0,9,,,,,,,,7,,,62,0
64939,note_on,19,0,9,,,,,,,,7,,,58,0
64939,note_on,19,0,11,,,,,,,,7,,,46,0
64939,note_on,19,0,5,,,,,,,,4,,,70,0
64939,note_on,0,0,5,,,,,,,,4,,,58,0
64939,note_on,19,0,8,,,,,,,,7,,,70,0
64939,note_on,19,0,10,,,,,,,,7,,,58,0
64959,note_on,39,0,12,,,,,,,,7,,,34,0
64960,note_on,1,0,12,,,,,,,,7,,,50,32
64960,note_on,21,0,9,,,,,,,,7,,,65,32
64960,note_on,21,0,2,,,,,,,,1,,,82,49
64960,note_on,21,0,10,,,,,,,,7,,,62,33
64960,note_on,21,0,3,,,,,,,,2,,,70,48
64960,note_on,0,0,2,,,,,,,,1,,,77,49
64960,note_on,21,0,11,,,,,,,,7,,,62,32
64960,note_on,21,0,8,,,,,,,,7,,,70,32
64979,note_on,19,0,9,,,,,,,,7,,,65,0
64979,note_on,19,0,8,,,,,,,,7,,,70,0
64979,note_on,19,0,2,,,,,,,,1,,,77,0
64979,note_on,19,0,11,,,,,,,,7,,,62,0
64979,note_on,19,0,3,,,,,,,,2,,,70,0
64979,note_on,19,0,10,,,,,,,,7,,,62,0
64979,note_on,0,0,2,,,,,,,,1,,,82,0
64999,note_on,39,0,12,,,,,,,,7,,,50,0
65000,note_on,21,0,11,,,,,,,,7,,,60,32
65000,note_on,21,0,3,,,,,,,,2,,,70,48
65000,note_on,21,0,9,,,,,,,,7,,,63,32
65000,note_on,0,0,2,,,,,,,,1,,,75,49
65000,note_on,21,0,8,,,,,,,,7,,,70,32
65000,note_on,1,0,12,,,,,,,,7,,,48,32
65000,note_on,21,0,2,,,,,,,,1,,,82,49
65000,note_on,21,0,10,,,,,,,,7,,,60,33
65019,note_on,0,0,2,,,,,,,,1,,,82,0
65019,note_on,19,0,2,,,,,,,,1,,,75,0
65019,note_on,19,0,8,,,,,,,,7,,,70,0
65019,note_on,19,0,11,,,,,,,,7,,,60,0
65019,note_on,19,0,10,,,,,,,,7,,,60,0
65019,note_on,19,0,3,,,,,,,,2,,,70,0
65019,note_on,19,0,9,,,,,,,,7,,,63,0
65039,note_on,39,0,12,,,,,,,,7,,,48,0
65040,note_on,21,0,3,,,,,,,,2,,,70,48
65040,note_on,21,0,11,,,,,,,,7,,,58,32
65040,note_on,1,0,12,,,,,,,,7,,,46,32
65040,note_on,21,0,10,,,,,,,,7,,,58,33
65040,note_on,21,0,9,,,,,,,,7,,,62,32
65040,note_on,21,0,8,,,,,,,,7,,,70,32
65040,note_on,21,0,2,,,,,,,,1,,,82,49
65040,note_on,0,0,2,,,,,,,,1,,,74,49
65059,note_on,19,0,9,,,,,,,,7,,,62,0
65059,note_on,19,0,10,,,,,,,,7,,,58,0
65059,note_on,19,0,2,,,,,,,,1,,,74,0
65059,note_on,19,0,11,,,,,,,,7,,,58,0
65059,note_on,0,0,2,,,,,,,,1,,,82,0
65059,note_on,19,0,8,,,,,,,,7,,,70,0
65059,note_on,19,0,3,,,,,,,,2,,,70,0
65079,note_on,39,0,12,,,,,,,,7,,,46,0
65080,note_on,21,0,8,,,,,,,,7,,,70,32
65080,note_on,1,0,12,,,,,,,,7,,,50,32
65080,note_on,21,0,2,,,,,,,,1,,,82,49
65080,note_on,21,0,3,,,,,,,,2,,,70,48
65080,note_on,21,0,10,,,,,,,,7,,,62,33
65080,note_on,0,0,2,,,,,,,,1,,,77,49
65080,note_on,21,0,9,,,,,,,,7,,,65,32
65080,note_on,21,0,11,,,,,,,,7,,,62,32
65099,note_on,19,0,8,,,,,,,,7,,,70,0
65099,note_on,19,0,11,,,,,,,,7,,,62,0
65099,note_on,0,0,2,,,,,,,,1,,,82,0
65099,note_on,19,0,9,,,,,,,,7,,,65,0
65099,note_on,19,0,10,,,,,,,,7,,,62,0
65099,note_on,19,0,2,,,,,,,,1,,,77,0
65099,note_on,19,0,3,,,,,,,,2,,,70,0
65119,note_on,39,0,12,,,,,,,,7,,,50,0
65120,note_on,21,0,2,,,,,,,,1,,,82,49
65120,note_on,21,0,11,,,,,,,,7,,,60,32
65120,note_on,21,0,3,,,,,,,,2,,,70,48
65120,note_on,21,0,10,,,,,,,,7,,,60,33
65120,note_on,1,0,12,,,,,,,,7,,,48,32
65120,note_on,21,0,9,,,,,,,,7,,,63,32
65120,note_on,21,0,8,,,,,,,,7,,,70,32
65120,note_on,0,0,2,,,,,,,,1,,,75,49
65139,note_on,19,0,9,,,,,,,,7,,,63,0
65139,note_on,19,0,11,,,,,,,,7,,,60,0
65139,note_on,0,0,2,,,,,,,,1,,,82,0
65139,note_on,19,0,3,,,,,,,,2,,,70,0
65139,note_on,19,0,10,,,,,,,,7,,,60,0
65139,note_on,19,0,8,,,,,,,,7,,,70,0
65139,note_on,19,0,2,,,,,,,,1,,,75,0
65159,note_on,39,0,12,,,,,,,,7,,,48,0
65160,note_on,21,0,2,,,,,,,,1,,,82,49
65160,note_on,0,0,2,,,,,,,,1,,,74,49
65160,note_on,21,0,3,,,,,,,,2,,,70,48
65160,note_on,21,0,11,,,,,,,,7,,,58,32
65160,note_on,1,0,12,,,,,,,,7,,,46,32
65160,note_on,21,0,8,,,,,,,,7,,,70,32
65160,note_on,21,0,9,,,,,,,,7,,,62,32
65160,note_on,21,0,10,,,,,,,,7,,,58,33
65179,note_on,19,0,2,,,,,,,,1,,,74,0
65179,note_on,19,0,11,,,,,,,,7,,,58,0
65179,note_on,19,0,10,,,,,,,,7,,,58,0
65179,note_on,19,0,9,,,,,,,,7,,,62,0
65199,note_on,39,0,12,,,,,,,,7,,,46,0
65200,note_on,0,0,2,,,,,,,,1,,,74,49
65200,note_on,21,0,10,,,,,,,,7,,,62,33
65200,note_on,21,0,11,,,,,,,,7,,,58,32
65200,note_on,40,0,8,,,,,,,,7,,,72,32
65200,note_on,40,0,3,,,,,,,,2,,,72,48
65200,note_on,1,0,12,,,,,,,,7,,,46,32
65200,note_on,21,0,2,,,,,,,,1,,,84,49
65200,note_on,21,0,9,,,,,,,,7,,,74,32
65202,note_on,2,0,2,,,,,,,,1,,,82,0
65202,note_on,2,0,8,,,,,,,,7,,,70,0
65202,note_on,2,0,3,,,,,,,,2,,,70,0
65219,note_on,17,0,2,,,,,,,,1,,,74,0
65219,note_on,19,0,9,,,,,,,,7,,,74,0
65219,note_on,19,0,10,,,,,,,,7,,,62,0
65219,note_on,19,0,11,,,,,,,,7,,,58,0
65220,note_on,1,0,2,,,,,,,,1,,,82,49
65220,note_on,18,0,3,,,,,,,,2,,,70,48
65220,note_on,18,0,8,,,,,,,,7,,,70,32
65222,note_on,2,0,8,,,,,,,,7,,,72,0
65222,note_on,2,0,2,,,,,,,,1,,,84,0
65222,note_on,2,0,3,,,,,,,,2,,,72,0
65239,note_on,39,0,12,,,,,,,,7,,,46,0
65240,note_on,18,0,8,,,,,,,,7,,,69,32
65240,note_on,21,0,10,,,,,,,,7,,,63,33
65240,note_on,18,0,2,,,,,,,,1,,,75,49
65240,note_on,1,0,12,,,,,,,,7,,,48,32
65240,note_on,21,0,9,,,,,,,,7,,,75,32
65240,note_on,18,0,3,,,,,,,,2,,,69,48
65240,note_on,21,0,11,,,,,,,,7,,,60,32
65240,note_on,0,0,2,,,,,,,,1,,,81,49
65242,note_on,2,0,2,,,,,,,,1,,,82,0
65242,note_on,2,0,8,,,,,,,,7,,,70,0
65242,note_on,2,0,3,,,,,,,,2,,,70,0
65259,note_on,19,0,11,,,,,,,,7,,,60,0
65259,note_on,17,0,2,,,,,,,,1,,,75,0
65259,note_on,19,0,10,,,,,,,,7,,,63,0
65259,note_on,19,0,9,,,,,,,,7,,,75,0
65260,note_on,18,0,3,,,,,,,,2,,,67,48
65260,note_on,18,0,8,,,,,,,,7,,,67,32
65260,note_on,1,0,2,,,,,,,,1,,,79,49
65262,note_on,2,0,3,,,,,,,,2,,,69,0
65262,note_on,2,0,8,,,,,,,,7,,,69,0
65262,note_on,2,0,2,,,,,,,,1,,,81,0
65279,note_on,39,0,12,,,,,,,,7,,,48,0
65279,note_on,17,0,8,,,,,,,,7,,,67,0
65279,note_on,17,0,2,,,,,,,,1,,,79,0
65280,note_on,1,0,12,,,,,,,,7,,,50,32
65280,note_on,18,0,3,,,,,,,,2,,,65,48
65280,note_on,21,0,10,,,,,,,,7,,,65,33
65280,note_on,21,0,11,,,,,,,,7,,,62,32
65280,note_on,21,0,9,,,,,,,,7,,,77,32
65280,note_on,1,0,2,,,,,,,,1,,,77,49
65282,note_on,2,0,3,,,,,,,,2,,,67,0
65299,note_on,19,0,10,,,,,,,,7,,,65,0
65299,note_on,19,0,9,,,,,,,,7,,,77,0
65299,note_on,19,0,11,,,,,,,,7,,,62,0
65300,note_on,21,0,8,,,,,,,,7,,,65,32
65319,note_on,39,0,12,,,,,,,,7,,,50,0
65320,note_on,1,0,12,,,,,,,,7,,,45,32
65320,note_on,21,0,10,,,,,,,,7,,,60,33
65320,note_on,40,0,2,,,,,,,,1,,,72,49
65320,note_on,21,0,11,,,,,,,,7,,,57,32
65320,note_on,21,0,9,,,,,,,,7,,,72,32
65339,note_on,19,0,9,,,,,,,,7,,,72,0
65339,note_on,19,0,11,,,,,,,,7,,,57,0
65339,note_on,19,0,2,,,,,,,,1,,,72,0
65339,note_on,19,0,10,,,,,,,,7,,,60,0
65359,note_on,39,0,12,,,,,,,,7,,,45,0
65360,note_on,21,0,11,,,,,,,,7,,,59,32
65360,note_on,1,0,12,,,,,,,,7,,,47,32
65360,note_on,21,0,10,,,,,,,,7,,,62,33
65360,note_on,21,0,2,,,,,,,,1,,,74,49
65360,note_on,21,0,9,,,,,,,,7,,,74,32
65379,note_on,19,0,2,,,,,,,,1,,,74,0
65379,note_on,19,0,11,,,,,,,,7,,,59,0
65379,note_on,19,0,10,,,,,,,,7,,,62,0
65379,note_on,19,0,9,,,,,,,,7,,,74,0
65399,note_on,39,0,12,,,,,,,,7,,,47,0
65399,note_on,117,0,3,,,,,,,,2,,,65,0
65399,note_on,20,0,2,,,,,,,,1,,,77,0
65399,note_on,99,0,8,,,,,,,,7,,,65,0
65400,note_on,21,0,9,,,,,,,,7,,,75,32
65400,note_on,21,0,10,,,,,,,,7,,,63,33
65400,note_on,21,0,11,,,,,,,,7,,,60,32
65400,note_on,1,0,3,,,,,,,,2,,,63,48
65400,note_on,1,0,12,,,,,,,,7,,,48,32
65400,note_on,1,0,2,,,,,,,,1,,,75,49
65419,note_on,19,0,9,,,,,,,,7,,,75,0
65419,note_on,19,0,11,,,,,,,,7,,,60,0
65419,note_on,19,0,10,,,,,,,,7,,,63,0
65420,note_on,21,0,8,,,,,,,,7,,,63,32
65439,note_on,39,0,12,,,,,,,,7,,,48,0
65440,note_on,40,0,2,,,,,,,,1,,,70,49
65440,note_on,1,0,12,,,,,,,,7,,,43,32
65440,note_on,21,0,9,,,,,,,,7,,,70,32
65440,note_on,21,0,11,,,,,,,,7,,,55,32
65440,note_on,21,0,10,,,,,,,,7,,,58,33
65459,note_on,19,0,10,,,,,,,,7,,,58,0
65459,note_on,19,0,2,,,,,,,,1,,,70,0
65459,note_on,19,0,11,,,,,,,,7,,,55,0
65459,note_on,19,0,9,,,,,,,,7,,,70,0
65479,note_on,39,0,12,,,,,,,,7,,,43,0
65480,note_on,21,0,11,,,,,,,,7,,,57,32
65480,note_on,1,0,12,,,,,,,,7,,,45,32
65480,note_on,21,0,2,,,,,,,,1,,,72,49
65480,note_on,21,0,10,,,,,,,,7,,,60,33
65480,note_on,21,0,9,,,,,,,,7,,,72,32
65499,note_on,19,0,11,,,,,,,,7,,,57,0
65499,note_on,19,0,2,,,,,,,,1,,,72,0
65499,note_on,19,0,10,,,,,,,,7,,,60,0
65499,note_on,19,0,9,,,,,,,,7,,,72,0
65519,note_on,20,0,2,,,,,,,,1,,,75,0
65519,note_on,99,0,8,,,,,,,,7,,,63,0
65519,note_on,39,0,12,,,,,,,,7,,,45,0
65519,note_on,119,0,3,,,,,,,,2,,,63,0
65520,note_on,21,0,9,,,,,,,,7,,,65,32
65520,note_on,21,0,11,,,,,,,,7,,,58,32
65520,note_on,1,0,8,,,,,,,,7,,,62,32
65520,note_on,21,0,10,,,,,,,,7,,,53,33
65520,note_on,1,0,3,,,,,,,,2,,,62,48
65520,note_on,1,0,12,,,,,,,,7,,,46,32
65520,note_on,1,0,2,,,,,,,,1,,,74,49
65539,note_on,19,0,9,,,,,,,,7,,,65,0
65539,note_on,19,0,10,,,,,,,,7,,,53,0
65539,note_on,19,0,11,,,,,,,,7,,,58,0
65559,note_on,39,0,12,,,,,,,,7,,,46,0
65560,note_on,40,0,3,,,,,,,,2,,,65,48
65560,note_on,40,0,2,,,,,,,,1,,,77,49
65560,note_on,21,0,9,,,,,,,,7,,,69,32
65560,note_on,21,0,10,,,,,,,,7,,,57,33
65560,note_on,21,0,11,,,,,,,,7,,,53,32
65560,note_on,40,0,8,,,,,,,,7,,,65,32
65560,note_on,1,0,12,,,,,,,,7,,,41,32
65562,note_on,2,0,2,,,,,,,,1,,,74,0
65562,note_on,2,0,3,,,,,,,,2,,,62,0
65562,note_on,2,0,8,,,,,,,,7,,,62,0
65579,note_on,19,0,10,,,,,,,,7,,,57,0
65579,note_on,19,0,11,,,,,,,,7,,,53,0
65579,note_on,19,0,9,,,,,,,,7,,,69,0
65599,note_on,37,0,8,,,,,,,,7,,,65,0
65599,note_on,37,0,2,,,,,,,,1,,,77,0
65599,note_on,37,0,3,,,,,,,,2,,,65,0
65599,note_on,39,0,12,,,,,,,,7,,,41,0
65600,note_on,1,0,8,,,,,,,,7,,,62,32
65600,note_on,21,0,11,,,,,,,,7,,,55,32
65600,note_on,1,0,3,,,,,,,,2,,,62,48
65600,note_on,1,0,2,,,,,,,,1,,,74,49
65600,note_on,1,0,12,,,,,,,,7,,,43,32
65600,note_on,21,0,9,,,,,,,,7,,,70,32
65600,note_on,21,0,10,,,,,,,,7,,,58,33
65619,note_on,19,0,10,,,,,,,,7,,,58,0
65619,note_on,19,0,2,,,,,,,,1,,,74,0
65619,note_on,19,0,9,,,,,,,,7,,,70,0
65619,note_on,19,0,11,,,,,,,,7,,,55,0
65619,note_on,19,0,3,,,,,,,,2,,,62,0
65619,note_on,19,0,8,,,,,,,,7,,,62,0
65639,note_on,39,0,12,,,,,,,,7,,,43,0
65640,note_on,1,0,12,,,,,,,,7,,,39,32
65640,note_on,21,0,8,,,,,,,,7,,,60,32
65640,note_on,21,0,11,,,,,,,,7,,,51,32
65640,note_on,21,0,10,,,,,,,,7,,,55,34
65640,note_on,21,0,2,,,,,,,,1,,,72,49
65640,note_on,21,0,3,,,,,,,,2,,,60,48
65640,note_on,21,0,9,,,,,,,,7,,,67,32
65659,note_on,19,0,10,,,,,,,,7,,,55,0
65659,note_on,19,0,9,,,,,,,,7,,,67,0
65659,note_on,19,0,11,,,,,,,,7,,,51,0
65679,note_on,39,0,12,,,,,,,,7,,,39,0
65680,note_on,21,0,10,,,,,,,,7,,,55,33
65680,note_on,21,0,9,,,,,,,,7,,,67,32
65680,note_on,40,0,8,,,,,,,,7,,,63,32
65680,note_on,40,0,2,,,,,,,,1,,,75,49
65680,note_on,1,0,12,,,,,,,,7,,,36,32
65680,note_on,40,0,3,,,,,,,,2,,,63,48
65680,note_on,21,0,11,,,,,,,,7,,,48,32
65682,note_on,2,0,8,,,,,,,,7,,,60,0
65682,note_on,2,0,3,,,,,,,,2,,,60,0
65682,note_on,2,0,2,,,,,,,,1,,,72,0
65699,note_on,19,0,11,,,,,,,,7,,,48,0
65699,note_on,19,0,10,,,,,,,,7,,,55,0
65699,note_on,19,0,9,,,,,,,,7,,,67,0
65719,note_on,37,0,2,,,,,,,,1,,,75,0
65719,note_on,37,0,3,,,,,,,,2,,,63,0
65719,note_on,39,0,12,,,,,,,,7,,,36,0
65719,note_on,37,0,8,,,,,,,,7,,,63,0
65720,note_on,1,0,12,,,,,,,,7,,,41,32
65720,note_on,21,0,11,,,,,,,,7,,,53,32
65720,note_on,21,0,9,,,,,,,,7,,,69,32
65720,note_on,21,0,10,,,,,,,,7,,,57,33
65720,note_on,1,0,8,,,,,,,,7,,,60,32
65720,note_on,1,0,3,,,,,,,,2,,,60,48
65720,note_on,1,0,2,,,,,,,,1,,,72,49
65739,note_on,19,0,11,,,,,,,,7,,,53,0
65739,note_on,19,0,8,,,,,,,,7,,,60,0
65739,note_on,19,0,10,,,,,,,,7,,,57,0
65739,note_on,19,0,9,,,,,,,,7,,,69,0
65739,note_on,19,0,3,,,,,,,,2,,,60,0
65739,note_on,19,0,2,,,,,,,,1,,,72,0
65759,note_on,39,0,12,,,,,,,,7,,,41,0
65760,note_on,1061,0,4,,,,,,,,3,,,46,35
65760,note_on,21,0,8,,,,,,,,7,,,58,32
65760,note_on,0,0,4,,,,,,,,3,,,58,35
65760,note_on,3701,0,1,,,,,,,,0,,,82,51
65760,note_on,21,0,3,,,,,,,,2,,,58,51
65760,note_on,21,0,2,,,,,,,,1,,,70,52
65760,note_on,1,0,12,,,,,,,,7,,,34,33
65760,note_on,21,0,11,,,,,,,,7,,,46,33
65760,note_on,21,0,10,,,,,,,,7,,,58,33
65760,note_on,21,0,9,,,,,,,,7,,,70,35
65779,note_on,19,0,2,,,,,,,,1,,,70,0
65779,note_on,0,0,4,,,,,,,,3,,,46,0
65779,note_on,19,0,1,,,,,,,,0,,,82,0
65779,note_on,19,0,9,,,,,,,,7,,,70,0
65779,note_on,19,0,8,,,,,,,,7,,,58,0
65779,note_on,19,0,11,,,,,,,,7,,,46,0
65779,note_on,19,0,10,,,,,,,,7,,,58,0
65779,note_on,19,0,4,,,,,,,,3,,,58,0
65779,note_on,19,0,3,,,,,,,,2,,,58,0
65799,note_on,39,0,12,,,,,,,,7,,,34,0
65800,note_on,21,0,11,,,,,,,,7,,,48,63
65800,note_on,21,0,4,,,,,,,,3,,,48,66
65800,note_on,0,0,4,,,,,,,,3,,,60,66
65800,note_on,21,0,10,,,,,,,,7,,,60,63
65800,note_on,21,0,1,,,,,,,,0,,,84,75
65800,note_on,21,0,2,,,,,,,,1,,,72,76
65800,note_on,21,0,3,,,,,,,,2,,,60,76
65800,note_on,1,0,12,,,,,,,,7,,,36,64
65800,note_on,21,0,8,,,,,,,,7,,,60,63
65800,note_on,21,0,9,,,,,,,,7,,,72,71
65819,note_on,19,0,9,,,,,,,,7,,,72,0
65819,note_on,19,0,10,,,,,,,,7,,,60,0
65819,note_on,19,0,1,,,,,,,,0,,,84,0
65819,note_on,19,0,11,,,,,,,,7,,,48,0
65819,note_on,19,0,8,,,,,,,,7,,,60,0
65819,note_on,19,0,2,,,,,,,,1,,,72,0
65819,note_on,19,0,4,,,,,,,,3,,,60,0
65819,note_on,0,0,4,,,,,,,,3,,,48,0
65819,note_on,19,0,3,,,,,,,,2,,,60,0
65839,note_on,39,0,12,,,,,,,,7,,,36,0
65840,note_on,21,0,8,,,,,,,,7,,,62,93
65840,note_on,21,0,3,,,,,,,,2,,,62,101
65840,note_on,21,0,9,,,,,,,,7,,,74,106
65840,note_on,1,0,12,,,,,,,,7,,,38,95
65840,note_on,21,0,1,,,,,,,,0,,,86,99
65840,note_on,0,0,4,,,,,,,,3,,,62,96
65840,note_on,21,0,2,,,,,,,,1,,,74,100
65840,note_on,21,0,11,,,,,,,,7,,,50,94
65840,note_on,21,0,4,,,,,,,,3,,,50,96
65840,note_on,21,0,10,,,,,,,,7,,,62,94
65859,note_on,0,0,4,,,,,,,,3,,,50,0
65859,note_on,19,0,8,,,,,,,,7,,,62,0
65859,note_on,19,0,4,,,,,,,,3,,,62,0
65859,note_on,19,0,10,,,,,,,,7,,,62,0
65859,note_on,19,0,1,,,,,,,,0,,,86,0
65859,note_on,19,0,3,,,,,,,,2,,,62,0
65859,note_on,19,0,9,,,,,,,,7,,,74,0
65859,note_on,19,0,2,,,,,,,,1,,,74,0
65859,note_on,19,0,11,,,,,,,,7,,,50,0
65879,note_on,39,0,12,,,,,,,,7,,,38,0
65880,note_on,0,0,4,,,,,,,,3,,,51,127
65880,note_on,21,0,3,,,,,,,,2,,,63,127
65880,note_on,29721,0,7,,,,,,,,6,,,51,127
65880,note_on,21,0,8,,,,,,,,7,,,63,127
65880,note_on,21,0,2,,,,,,,,1,,,75,127
65880,note_on,0,0,6,,,,,,,,5,,,63,127
65880,note_on,21,0,9,,,,,,,,7,,,75,127
65880,note_on,941,0,5,,,,,,,,4,,,63,127
65880,note_on,21,0,1,,,,,,,,0,,,87,127
65880,note_on,21,0,11,,,,,,,,7,,,51,126
65880,note_on,1,0,12,,,,,,,,7,,,39,127
65880,note_on,21,0,4,,,,,,,,3,,,63,127
65880,note_on,21,0,10,,,,,,,,7,,,63,127
65880,note_on,29721,0,6,,,,,,,,5,,,75,127
65880,note_on,0,0,5,,,,,,,,4,,,51,127
65919,note_on,39,0,7,,,,,,,,6,,,51,0
65919,note_on,39,0,8,,,,,,,,7,,,63,0
65919,note_on,39,0,5,,,,,,,,4,,,51,0
65919,note_on,39,0,12,,,,,,,,7,,,39,0
65919,note_on,39,0,10,,,,,,,,7,,,63,0
65919,note_on,39,0,6,,,,,,,,5,,,63,0
65919,note_on,0,0,5,,,,,,,,4,,,63,0
65919,note_on,39,0,3,,,,,,,,2,,,63,0
65919,note_on,0,0,6,,,,,,,,5,,,75,0
65919,note_on,39,0,11,,,,,,,,7,,,51,0
65919,note_on,39,0,9,,,,,,,,7,,,75,0
65919,note_on,39,0,2,,,,,,,,1,,,75,0
65919,note_on,0,0,4,,,,,,,,3,,,63,0
65919,note_on,39,0,4,,,,,,,,3,,,51,0
65919,note_on,39,0,1,,,,,,,,0,,,87,0
65920,note_on,0,0,4,,,,,,,,3,,,63,127
65920,note_on,0,0,6,,,,,,,,5,,,63,127
65920,note_on,1,0,4,,,,,,,,3,,,55,127
65920,note_on,0,0,5,,,,,,,,4,,,63,127
65920,note_on,1,0,12,,,,,,,,7,,,43,127
65920,note_on,1,0,6,,,,,,,,5,,,75,127
65920,note_on,1,0,3,,,,,,,,2,,,75,127
65920,note_on,0,0,3,,,,,,,,2,,,63,127
65920,note_on,1,0,2,,,,,,,,1,,,75,127
65920,note_on,1,0,5,,,,,,,,4,,,67,127
65920,note_on,1,0,9,,,,,,,,7,,,67,127
65920,note_on,0,0,5,,,,,,,,4,,,51,127
65920,note_on,0,0,9,,,,,,,,7,,,75,127
65920,note_on,1,0,1,,,,,,,,0,,,87,127
65920,note_on,0,0,8,,,,,,,,7,,,67,127
65920,note_on,1,0,11,,,,,,,,7,,,55,126
65920,note_on,1,0,8,,,,,,,,7,,,75,127
65920,note_on,1,0,7,,,,,,,,6,,,51,127
65920,note_on,1,0,10,,,,,,,,7,,,67,127
65959,note_on,39,0,9,,,,,,,,7,,,75,0
65959,note_on,39,0,6,,,,,,,,5,,,63,0
65959,note_on,0,0,9,,,,,,,,7,,,67,0
65959,note_on,39,0,8,,,,,,,,7,,,67,0
65959,note_on,39,0,12,,,,,,,,7,,,43,0
65959,note_on,39,0,2,,,,,,,,1,,,75,0
65959,note_on,0,0,6,,,,,,,,5,,,75,0
65959,note_on,0,0,8,,,,,,,,7,,,75,0
65959,note_on,39,0,4,,,,,,,,3,,,63,0
65959,note_on,39,0,10,,,,,,,,7,,,67,0
65959,note_on,39,0,11,,,,,,,,7,,,55,0
65959,note_on,39,0,5,,,,,,,,4,,,63,0
65959,note_on,0,0,5,,,,,,,,4,,,51,0
65959,note_on,39,0,3,,,,,,,,2,,,63,0
65959,note_on,0,0,3,,,,,,,,2,,,75,0
65959,note_on,0,0,5,,,,,,,,4,,,67,0
65959,note_on,0,0,4,,,,,,,,3,,,55,0
65959,note_on,39,0,7,,,,,,,,6,,,51,0
65959,note_on,39,0,1,,,,,,,,0,,,87,0
65960,note_on,1,0,10,,,,,,,,7,,,70,127
65960,note_on,1,0,5,,,,,,,,4,,,70,127
65960,note_on,0,0,5,,,,,,,,4,,,51,127
65960,note_on,1,0,9,,,,,,,,7,,,75,127
65960,note_on,1,0,1,,,,,,,,0,,,87,127
65960,note_on,0,0,5,,,,,,,,4,,,63,127
65960,note_on,0,0,9,,,,,,,,7,,,67,127
65960,note_on,1,0,2,,,,,,,,1,,,75,127
65960,note_on,0,0,3,,,,,,,,2,,,63,127
65960,note_on,0,0,6,,,,,,,,5,,,63,127
65960,note_on,1,0,12,,,,,,,,7,,,46,127
65960,note_on,0,0,4,,,,,,,,3,,,63,127
65960,note_on,0,0,8,,,,,,,,7,,,67,127
65960,note_on,1,0,8,,,,,,,,7,,,75,127
65960,note_on,1,0,3,,,,,,,,2,,,75,127
65960,note_on,1,0,6,,,,,,,,5,,,75,127
65960,note_on,1,0,4,,,,,,,,3,,,58,127
65960,note_on,1,0,7,,,,,,,,6,,,51,127
65960,note_on,1,0,11,,,,,,,,7,,,58,126
65999,note_on,39,0,5,,,,,,,,4,,,63,0
65999,note_on,0,0,6,,,,,,,,5,,,75,0
65999,note_on,39,0,11,,,,,,,,7,,,58,0
65999,note_on,39,0,7,,,,,,,,6,,,51,0
65999,note_on,39,0,10,,,,,,,,7,,,70,0
65999,note_on,0,0,3,,,,,,,,2,,,75,0
65999,note_on,39,0,3,,,,,,,,2,,,63,0
65999,note_on,39,0,2,,,,,,,,1,,,75,0
65999,note_on,39,0,12,,,,,,,,7,,,46,0
65999,note_on,0,0,8,,,,,,,,7,,,75,0
65999,note_on,39,0,6,,,,,,,,5,,,63,0
65999,note_on,39,0,4,,,,,,,,3,,,63,0
65999,note_on,0,0,4,,,,,,,,3,,,58,0
65999,note_on,39,0,9,,,,,,,,7,,,67,0
65999,note_on,0,0,9,,,,,,,,7,,,75,0
65999,note_on,39,0,1,,,,,,,,0,,,87,0
65999,note_on,0,0,5,,,,,,,,4,,,70,0
65999,note_on,0,0,5,,,,,,,,4,,,51,0
65999,note_on,39,0,8,,,,,,,,7,,,67,0
66000,note_on,1,0,1,,,,,,,,0,,,87,127
66000,note_on,0,0,5,,,,,,,,4,,,63,127
66000,note_on,1,0,5,,,,,,,,4,,,51,127
66000,note_on,1,0,7,,,,,,,,6,,,51,127
66000,note_on,0,0,4,,,,,,,,3,,,51,127
66000,note_on,1,0,8,,,,,,,,7,,,75,127
66000,note_on,0,0,3,,,,,,,,2,,,63,127
66000,note_on,1,0,3,,,,,,,,2,,,75,127
66000,note_on,1,0,11,,,,,,,,7,,,51,126
66000,note_on,1,0,6,,,,,,,,5,,,75,127
66000,note_on,0,0,6,,,,,,,,5,,,63,127
66000,note_on,1,0,12,,,,,,,,7,,,39,127
66000,note_on,0,0,8,,,,,,,,7,,,67,127
66000,note_on,1,0,10,,,,,,,,7,,,63,127
66000,note_on,1,0,2,,,,,,,,1,,,75,127
66000,note_on,1,0,4,,,,,,,,3,,,63,127
66000,note_on,0,0,9,,,,,,,,7,,,75,127
66000,note_on,1,0,9,,,,,,,,7,,,67,127
66039,note_on,39,0,4,,,,,,,,3,,,51,0
66039,note_on,39,0,12,,,,,,,,7,,,39,0
66039,note_on,0,0,4,,,,,,,,3,,,63,0
66039,note_on,39,0,6,,,,,,,,5,,,63,0
66039,note_on,0,0,6,,,,,,,,5,,,75,0
66039,note_on,39,0,1,,,,,,,,0,,,87,0
66039,note_on,39,0,10,,,,,,,,7,,,63,0
66039,note_on,39,0,7,,,,,,,,6,,,51,0
66039,note_on,0,0,3,,,,,,,,2,,,75,0
66039,note_on,39,0,3,,,,,,,,2,,,63,0
66039,note_on,39,0,11,,,,,,,,7,,,51,0
66039,note_on,39,0,9,,,,,,,,7,,,75,0
66039,note_on,0,0,8,,,,,,,,7,,,75,0
66039,note_on,39,0,8,,,,,,,,7,,,67,0
66039,note_on,39,0,2,,,,,,,,1,,,75,0
66039,note_on,0,0,5,,,,,,,,4,,,51,0
66039,note_on,0,0,9,,,,,,,,7,,,67,0
66039,note_on,39,0,5,,,,,,,,4,,,63,0
66040,note_on,1,0,2,,,,,,,,1,,,75,127
66040,note_on,0,0,6,,,,,,,,5,,,63,127
66040,note_on,1,0,6,,,,,,,,5,,,75,127
66040,note_on,0,0,4,,,,,,,,3,,,55,127
66040,note_on,1,0,4,,,,,,,,3,,,63,127
66040,note_on,0,0,9,,,,,,,,7,,,75,127
66040,note_on,1,0,8,,,,,,,,7,,,75,127
66040,note_on,0,0,8,,,,,,,,7,,,67,127
66040,note_on,1,0,12,,,,,,,,7,,,43,127
66040,note_on,1,0,11,,,,,,,,7,,,55,126
66040,note_on,0,0,3,,,,,,,,2,,,63,127
66040,note_on,1,0,9,,,,,,,,7,,,67,127
66040,note_on,1,0,10,,,,,,,,7,,,67,127
66040,note_on,1,0,3,,,,,,,,2,,,75,127
66040,note_on,0,0,5,,,,,,,,4,,,51,127
66040,note_on,1,0,5,,,,,,,,4,,,67,127
66040,note_on,0,0,5,,,,,,,,4,,,63,127
66040,note_on,1,0,1,,,,,,,,0,,,87,127
66040,note_on,1,0,7,,,,,,,,6,,,51,127
66079,note_on,39,0,6,,,,,,,,5,,,63,0
66079,note_on,0,0,6,,,,,,,,5,,,75,0
66079,note_on,39,0,5,,,,,,,,4,,,63,0
66079,note_on,39,0,9,,,,,,,,7,,,75,0
66079,note_on,0,0,9,,,,,,,,7,,,67,0
66079,note_on,39,0,7,,,,,,,,6,,,51,0
66079,note_on,39,0,11,,,,,,,,7,,,55,0
66079,note_on,0,0,5,,,,,,,,4,,,67,0
66079,note_on,0,0,5,,,,,,,,4,,,51,0
66079,note_on,39,0,8,,,,,,,,7,,,67,0
66079,note_on,0,0,8,,,,,,,,7,,,75,0
66079,note_on,0,0,4,,,,,,,,3,,,63,0
66079,note_on,39,0,12,,,,,,,,7,,,43,0
66079,note_on,39,0,10,,,,,,,,7,,,67,0
66079,note_on,0,0,3,,,,,,,,2,,,75,0
66079,note_on,39,0,3,,,,,,,,2,,,63,0
66079,note_on,39,0,2,,,,,,,,1,,,75,0
66079,note_on,39,0,1,,,,,,,,0,,,87,0
66079,note_on,39,0,4,,,,,,,,3,,,55,0
66080,note_on,1,0,1,,,,,,,,0,,,87,127
66080,note_on,1,0,9,,,,,,,,7,,,67,127
66080,note_on,1,0,8,,,,,,,,7,,,75,127
66080,note_on,1,0,7,,,,,,,,6,,,51,127
66080,note_on,1,0,2,,,,,,,,1,,,75,127
66080,note_on,0,0,6,,,,,,,,5,,,63,127
66080,note_on,1,0,5,,,,,,,,4,,,70,127
66080,note_on,1,0,10,,,,,,,,7,,,70,127
66080,note_on,1,0,3,,,,,,,,2,,,75,127
66080,note_on,0,0,3,,,,,,,,2,,,63,127
66080,note_on,0,0,5,,,,,,,,4,,,63,127
66080,note_on,0,0,5,,,,,,,,4,,,51,127
66080,note_on,0,0,9,,,,,,,,7,,,75,127
66080,note_on,0,0,8,,,,,,,,7,,,67,127
66080,note_on,1,0,4,,,,,,,,3,,,63,127
66080,note_on,1,0,6,,,,,,,,5,,,75,127
66080,note_on,1,0,12,,,,,,,,7,,,46,127
66080,note_on,0,0,4,,,,,,,,3,,,58,127
66080,note_on,1,0,11,,,,,,,,7,,,58,126
66119,note_on,39,0,3,,,,,,,,2,,,63,0
66119,note_on,0,0,3,,,,,,,,2,,,75,0
66119,note_on,0,0,9,,,,,,,,7,,,67,0
66119,note_on,0,0,8,,,,,,,,7,,,75,0
66119,note_on,39,0,8,,,,,,,,7,,,67,0
66119,note_on,39,0,9,,,,,,,,7,,,75,0
66119,note_on,39,0,2,,,,,,,,1,,,75,0
66119,note_on,39,0,7,,,,,,,,6,,,51,0
66119,note_on,39,0,1,,,,,,,,0,,,87,0
66119,note_on,0,0,4,,,,,,,,3,,,63,0
66119,note_on,39,0,4,,,,,,,,3,,,58,0
66119,note_on,39,0,6,,,,,,,,5,,,63,0
66119,note_on,0,0,6,,,,,,,,5,,,75,0
66119,note_on,39,0,11,,,,,,,,7,,,58,0
66119,note_on,39,0,12,,,,,,,,7,,,46,0
66119,note_on,0,0,5,,,,,,,,4,,,70,0
66119,note_on,39,0,5,,,,,,,,4,,,63,0
66119,note_on,39,0,10,,,,,,,,7,,,70,0
66119,note_on,0,0,5,,,,,,,,4,,,51,0
66120,note_on,1,0,5,,,,,,,,4,,,63,127
66120,note_on,1,0,1,,,,,,,,0,,,87,127
66120,note_on,0,0,5,,,,,,,,4,,,51,127
66120,note_on,0,0,3,,,,,,,,2,,,75,127
66120,note_on,1,0,3,,,,,,,,2,,,63,127
66120,note_on,1,0,10,,,,,,,,7,,,75,127
66120,note_on,1,0,7,,,,,,,,6,,,51,127
66120,note_on,1,0,8,,,,,,,,7,,,75,127
66120,note_on,1,0,11,,,,,,,,7,,,63,126
66120,note_on,0,0,8,,,,,,,,7,,,67,127
66120,note_on,1,0,9,,,,,,,,7,,,75,127
66120,note_on,0,0,4,,,,,,,,3,,,51,127
66120,note_on,1,0,4,,,,,,,,3,,,63,127
66120,note_on,0,0,9,,,,,,,,7,,,67,127
66120,note_on,1,0,6,,,,,,,,5,,,75,126
66120,note_on,1,0,12,,,,,,,,7,,,51,127
66120,note_on,1,0,2,,,,,,,,1,,,75,127
66120,note_on,0,0,6,,,,,,,,5,,,63,126
66139,note_on,19,0,7,,,,,,,,6,,,51,0
66140,note_on,1,0,7,,,,,,,,6,,,51,127
66159,note_on,39,0,4,,,,,,,,3,,,51,0
66159,note_on,39,0,12,,,,,,,,7,,,51,0
66159,note_on,39,0,8,,,,,,,,7,,,67,0
66159,note_on,39,0,10,,,,,,,,7,,,75,0
66159,note_on,19,0,7,,,,,,,,6,,,51,0
66159,note_on,39,0,11,,,,,,,,7,,,63,0
66160,note_on,40,0,3,,,,,,,,2,,,77,127
66160,note_on,40,0,1,,,,,,,,0,,,89,127
66160,note_on,0,0,3,,,,,,,,2,,,65,127
66160,note_on,0,0,4,,,,,,,,3,,,51,127
66160,note_on,1,0,7,,,,,,,,6,,,51,127
66160,note_on,40,0,9,,,,,,,,7,,,77,127
66160,note_on,1,0,8,,,,,,,,7,,,77,127
66160,note_on,1,0,11,,,,,,,,7,,,63,126
66160,note_on,1,0,10,,,,,,,,7,,,75,127
66160,note_on,1,0,4,,,,,,,,3,,,65,127
66160,note_on,1,0,12,,,,,,,,7,,,51,127
66160,note_on,40,0,2,,,,,,,,1,,,77,127
66160,note_on,40,0,5,,,,,,,,4,,,67,127
66162,note_on,2,0,3,,,,,,,,2,,,75,0
66162,note_on,2,0,9,,,,,,,,7,,,67,0
66162,note_on,2,0,1,,,,,,,,0,,,87,0
66162,note_on,2,0,4,,,,,,,,3,,,63,0
66162,note_on,0,0,9,,,,,,,,7,,,75,0
66162,note_on,2,0,2,,,,,,,,1,,,75,0
66162,note_on,0,0,3,,,,,,,,2,,,63,0
66162,note_on,2,0,8,,,,,,,,7,,,75,0
66179,note_on,19,0,7,,,,,,,,6,,,51,0
66180,note_on,18,0,8,,,,,,,,7,,,75,127
66180,note_on,18,0,4,,,,,,,,3,,,63,127
66180,note_on,0,0,3,,,,,,,,2,,,75,127
66180,note_on,18,0,9,,,,,,,,7,,,75,127
66180,note_on,18,0,1,,,,,,,,0,,,87,127
66180,note_on,1,0,7,,,,,,,,6,,,51,127
66180,note_on,18,0,2,,,,,,,,1,,,75,127
66180,note_on,18,0,3,,,,,,,,2,,,63,127
66182,note_on,2,0,8,,,,,,,,7,,,77,0
66182,note_on,2,0,3,,,,,,,,2,,,77,0
66182,note_on,2,0,4,,,,,,,,3,,,65,0
66182,note_on,0,0,3,,,,,,,,2,,,65,0
66182,note_on,2,0,1,,,,,,,,0,,,89,0
66182,note_on,2,0,2,,,,,,,,1,,,77,0
66182,note_on,2,0,9,,,,,,,,7,,,77,0
66199,note_on,39,0,5,,,,,,,,4,,,67,0
66199,note_on,39,0,12,,,,,,,,7,,,51,0
66199,note_on,17,0,4,,,,,,,,3,,,51,0
66199,note_on,39,0,10,,,,,,,,7,,,75,0
66199,note_on,19,0,7,,,,,,,,6,,,51,0
66199,note_on,39,0,11,,,,,,,,7,,,63,0
66200,note_on,1,0,4,,,,,,,,3,,,62,127
66200,note_on,18,0,3,,,,,,,,2,,,62,127
66200,note_on,18,0,2,,,,,,,,1,,,74,127
66200,note_on,18,0,1,,,,,,,,0,,,86,127
66200,note_on,0,0,4,,,,,,,,3,,,51,127
66200,note_on,1,0,11,,,,,,,,7,,,63,126
66200,note_on,18,0,8,,,,,,,,7,,,74,127
66200,note_on,18,0,9,,,,,,,,7,,,74,127
66200,note_on,1,0,7,,,,,,,,6,,,51,127
66200,note_on,1,0,10,,,,,,,,7,,,75,127
66200,note_on,1,0,12,,,,,,,,7,,,51,127
66200,note_on,1,0,5,,,,,,,,4,,,70,127
66200,note_on,0,0,3,,,,,,,,2,,,74,127
66202,note_on,2,0,2,,,,,,,,1,,,75,0
66202,note_on,2,0,9,,,,,,,,7,,,75,0
66202,note_on,2,0,3,,,,,,,,2,,,63,0
66202,note_on,2,0,8,,,,,,,,7,,,75,0
66202,note_on,2,0,4,,,,,,,,3,,,63,0
66202,note_on,0,0,3,,,,,,,,2,,,75,0
66202,note_on,2,0,1,,,,,,,,0,,,87,0
66219,note_on,19,0,7,,,,,,,,6,,,51,0
66220,note_on,18,0,2,,,,,,,,1,,,72,127
66220,note_on,18,0,1,,,,,,,,0,,,84,127
66220,note_on,0,0,3,,,,,,,,2,,,72,127
66220,note_on,18,0,3,,,,,,,,2,,,60,127
66220,note_on,1,0,7,,,,,,,,6,,,51,127
66220,note_on,18,0,8,,,,,,,,7,,,72,127
66220,note_on,18,0,9,,,,,,,,7,,,72,127
66220,note_on,18,0,4,,,,,,,,3,,,60,127
66222,note_on,2,0,1,,,,,,,,0,,,86,0
66222,note_on,0,0,3,,,,,,,,2,,,74,0
66222,note_on,2,0,2,,,,,,,,1,,,74,0
66222,note_on,2,0,3,,,,,,,,2,,,62,0
66222,note_on,2,0,8,,,,,,,,7,,,74,0
66222,note_on,2,0,4,,,,,,,,3,,,62,0
66222,note_on,2,0,9,,,,,,,,7,,,74,0
66239,note_on,39,0,5,,,,,,,,4,,,70,0
66239,note_on,17,0,4,,,,,,,,3,,,51,0
66239,note_on,0,0,5,,,,,,,,4,,,63,0
66239,note_on,39,0,12,,,,,,,,7,,,51,0
66239,note_on,39,0,10,,,,,,,,7,,,75,0
66239,note_on,19,0,7,,,,,,,,6,,,51,0
66239,note_on,39,0,11,,,,,,,,7,,,63,0
66239,note_on,17,0,8,,,,,,,,7,,,72,0
66239,note_on,17,0,9,,,,,,,,7,,,72,0
66240,note_on,18,0,1,,,,,,,,0,,,82,127
66240,note_on,1,0,10,,,,,,,,7,,,75,127
66240,note_on,1,0,7,,,,,,,,6,,,51,127
66240,note_on,1,0,11,,,,,,,,7,,,63,126
66240,note_on,1,0,9,,,,,,,,7,,,70,127
66240,note_on,18,0,2,,,,,,,,1,,,70,127
66240,note_on,0,0,4,,,,,,,,3,,,51,127
66240,note_on,1,0,12,,,,,,,,7,,,51,127
66240,note_on,18,0,3,,,,,,,,2,,,58,127
66240,note_on,0,0,3,,,,,,,,2,,,70,127
66240,note_on,1,0,5,,,,,,,,4,,,63,127
66240,note_on,1,0,4,,,,,,,,3,,,58,127
66242,note_on,2,0,2,,,,,,,,1,,,72,0
66242,note_on,2,0,4,,,,,,,,3,,,60,0
66242,note_on,2,0,1,,,,,,,,0,,,84,0
66242,note_on,2,0,3,,,,,,,,2,,,60,0
66242,note_on,0,0,3,,,,,,,,2,,,72,0
66259,note_on,19,0,7,,,,,,,,6,,,51,0
66260,note_on,1,0,7,,,,,,,,6,,,51,127
66260,note_on,21,0,8,,,,,,,,7,,,70,127
66279,note_on,39,0,11,,,,,,,,7,,,63,0
66279,note_on,0,0,6,,,,,,,,5,,,75,0
66279,note_on,159,0,6,,,,,,,,5,,,63,0
66279,note_on,39,0,10,,,,,,,,7,,,75,0
66279,note_on,0,0,5,,,,,,,,4,,,51,0
66279,note_on,37,0,4,,,,,,,,3,,,51,0
66279,note_on,39,0,12,,,,,,,,7,,,51,0
66279,note_on,19,0,7,,,,,,,,6,,,51,0
66279,note_on,39,0,5,,,,,,,,4,,,63,0
66280,note_on,1,0,5,,,,,,,,4,,,63,127
66280,note_on,0,0,5,,,,,,,,4,,,51,127
66280,note_on,0,0,6,,,,,,,,5,,,75,127
66280,note_on,1,0,6,,,,,,,,5,,,63,127
66280,note_on,1,0,4,,,,,,,,3,,,51,127
66280,note_on,1,0,11,,,,,,,,7,,,63,126
66280,note_on,1,0,7,,,,,,,,6,,,51,127
66280,note_on,1,0,12,,,,,,,,7,,,51,127
66280,note_on,1,0,10,,,,,,,,7,,,75,127
66299,note_on,19,0,7,,,,,,,,6,,,51,0
66300,note_on,1,0,7,,,,,,,,6,,,51,127
66319,note_on,39,0,10,,,,,,,,7,,,75,0
66319,note_on,39,0,6,,,,,,,,5,,,75,0
66319,note_on,0,0,6,,,,,,,,5,,,63,0
66319,note_on,39,0,4,,,,,,,,3,,,51,0
66319,note_on,39,0,12,,,,,,,,7,,,51,0
66319,note_on,39,0,5,,,,,,,,4,,,51,0
66319,note_on,0,0,5,,,,,,,,4,,,63,0
66319,note_on,39,0,11,,,,,,,,7,,,63,0
66319,note_on,19,0,7,,,,,,,,6,,,51,0
66320,note_on,1,0,11,,,,,,,,7,,,63,126
66320,note_on,1,0,10,,,,,,,,7,,,75,127
66320,note_on,1,0,7,,,,,,,,6,,,51,127
66320,note_on,1,0,4,,,,,,,,3,,,51,127
66320,note_on,0,0,6,,,,,,,,5,,,75,127
66320,note_on,1,0,12,,,,,,,,7,,,51,127
66320,note_on,1,0,6,,,,,,,,5,,,63,127
66320,note_on,1,0,5,,,,,,,,4,,,63,127
66320,note_on,0,0,5,,,,,,,,4,,,51,127
66339,note_on,19,0,7,,,,,,,,6,,,51,0
66340,note_on,1,0,7,,,,,,,,6,,,51,127
66359,note_on,117,0,3,,,,,,,,2,,,58,0
66359,note_on,117,0,1,,,,,,,,0,,,82,0
66359,note_on,39,0,11,,,,,,,,7,,,63,0
66359,note_on,19,0,7,,,,,,,,6,,,51,0
66359,note_on,39,0,10,,,,,,,,7,,,75,0
66359,note_on,39,0,6,,,,,,,,5,,,75,0
66359,note_on,0,0,6,,,,,,,,5,,,63,0
66359,note_on,0,0,3,,,,,,,,2,,,70,0
66359,note_on,99,0,8,,,,,,,,7,,,70,0
66359,note_on,119,0,9,,,,,,,,7,,,70,0
66359,note_on,0,0,5,,,,,,,,4,,,63,0
66359,note_on,117,0,2,,,,,,,,1,,,70,0
66359,note_on,39,0,5,,,,,,,,4,,,51,0
66359,note_on,0,0,4,,,,,,,,3,,,58,0
66359,note_on,39,0,4,,,,,,,,3,,,51,0
66359,note_on,39,0,12,,,,,,,,7,,,51,0
66360,note_on,1,0,6,,,,,,,,5,,,58,127
66360,note_on,1,0,5,,,,,,,,4,,,70,127
66360,note_on,0,0,5,,,,,,,,4,,,46,127
66360,note_on,0,0,6,,,,,,,,5,,,70,127
66360,note_on,0,0,5,,,,,,,,4,,,58,127
66360,note_on,1,0,11,,,,,,,,7,,,63,126
66360,note_on,1,0,1,,,,,,,,0,,,80,127
66360,note_on,1,0,10,,,,,,,,7,,,75,127
66360,note_on,1,0,7,,,,,,,,6,,,46,127
66360,note_on,1,0,8,,,,,,,,7,,,80,127
66360,note_on,1,0,9,,,,,,,,7,,,68,127
66360,note_on,1,0,2,,,,,,,,1,,,80,127
66360,note_on,1,0,4,,,,,,,,3,,,51,127
66360,note_on,1,0,12,,,,,,,,7,,,51,127
66360,note_on,1,0,3,,,,,,,,2,,,68,127
66399,note_on,39,0,7,,,,,,,,6,,,46,0
66400,note_on,40,0,4,,,,,,,,3,,,53,127
66400,note_on,40,0,12,,,,,,,,7,,,53,127
66400,note_on,40,0,11,,,,,,,,7,,,65,126
66400,note_on,40,0,10,,,,,,,,7,,,77,127
66402,note_on,2,0,11,,,,,,,,7,,,63,0
66402,note_on,2,0,12,,,,,,,,7,,,51,0
66402,note_on,2,0,10,,,,,,,,7,,,75,0
66402,note_on,2,0,4,,,,,,,,3,,,51,0
66420,note_on,18,0,11,,,,,,,,7,,,63,126
66420,note_on,18,0,10,,,,,,,,7,,,75,127
66420,note_on,18,0,12,,,,,,,,7,,,51,127
66420,note_on,18,0,4,,,,,,,,3,,,51,127
66422,note_on,2,0,11,,,,,,,,7,,,65,0
66422,note_on,2,0,10,,,,,,,,7,,,77,0
66422,note_on,2,0,12,,,,,,,,7,,,53,0
66422,note_on,2,0,4,,,,,,,,3,,,53,0
66440,note_on,18,0,10,,,,,,,,7,,,74,127
66440,note_on,18,0,4,,,,,,,,3,,,50,127
66440,note_on,18,0,12,,,,,,,,7,,,50,127
66440,note_on,18,0,11,,,,,,,,7,,,62,126
66442,note_on,2,0,12,,,,,,,,7,,,51,0
66442,note_on,2,0,11,,,,,,,,7,,,63,0
66442,note_on,2,0,4,,,,,,,,3,,,51,0
66442,note_on,2,0,10,,,,,,,,7,,,75,0
66460,note_on,18,0,12,,,,,,,,7,,,48,127
66460,note_on,18,0,11,,,,,,,,7,,,60,126
66460,note_on,18,0,4,,,,,,,,3,,,48,127
66460,note_on,18,0,10,,,,,,,,7,,,72,127
66462,note_on,2,0,12,,,,,,,,7,,,50,0
66462,note_on,2,0,11,,,,,,,,7,,,62,0
66462,note_on,2,0,4,,,,,,,,3,,,50,0
66462,note_on,2,0,10,,,,,,,,7,,,74,0
66479,note_on,119,0,8,,,,,,,,7,,,80,0
66479,note_on,119,0,2,,,,,,,,1,,,80,0
66479,note_on,119,0,9,,,,,,,,7,,,68,0
66479,note_on,119,0,1,,,,,,,,0,,,80,0
66479,note_on,0,0,5,,,,,,,,4,,,46,0
66479,note_on,119,0,5,,,,,,,,4,,,58,0
66479,note_on,119,0,3,,,,,,,,2,,,68,0
66479,note_on,119,0,6,,,,,,,,5,,,70,0
66479,note_on,0,0,6,,,,,,,,5,,,58,0
66479,note_on,0,0,5,,,,,,,,4,,,70,0
66480,note_on,1,0,9,,,,,,,,7,,,67,127
66480,note_on,0,0,5,,,,,,,,4,,,58,127
66480,note_on,1,0,1,,,,,,,,0,,,79,127
66480,note_on,1,0,5,,,,,,,,4,,,70,127
66480,note_on,0,0,5,,,,,,,,4,,,46,127
66480,note_on,0,0,6,,,,,,,,5,,,58,127
66480,note_on,18,0,11,,,,,,,,7,,,58,126
66480,note_on,0,0,4,,,,,,,,3,,,46,127
66480,note_on,18,0,4,,,,,,,,3,,,58,127
66480,note_on,1,0,2,,,,,,,,1,,,79,127
66480,note_on,1,0,8,,,,,,,,7,,,79,127
66480,note_on,18,0,10,,,,,,,,7,,,70,127
66480,note_on,1,0,3,,,,,,,,2,,,67,127
66480,note_on,81,0,7,,,,,,,,6,,,46,127
66480,note_on,18,0,12,,,,,,,,7,,,46,127
66480,note_on,1,0,6,,,,,,,,5,,,70,127
66482,note_on,2,0,4,,,,,,,,3,,,48,0
66482,note_on,2,0,12,,,,,,,,7,,,48,0
66482,note_on,2,0,11,,,,,,,,7,,,60,0
66482,note_on,2,0,10,,,,,,,,7,,,72,0
66519,note_on,39,0,7,,,,,,,,6,,,46,0
66520,note_on,40,0,3,,,,,,,,2,,,70,127
66520,note_on,40,0,1,,,,,,,,0,,,82,127
66520,note_on,40,0,2,,,,,,,,1,,,82,127
66520,note_on,40,0,9,,,,,,,,7,,,70,127
66520,note_on,40,0,8,,,,,,,,7,,,82,127
66522,note_on,2,0,3,,,,,,,,2,,,67,0
66522,note_on,2,0,1,,,,,,,,0,,,79,0
66522,note_on,2,0,9,,,,,,,,7,,,67,0
66522,note_on,2,0,2,,,,,,,,1,,,79,0
66522,note_on,2,0,8,,,,,,,,7,,,79,0
66559,note_on,37,0,3,,,,,,,,2,,,70,0
66559,note_on,37,0,9,,,,,,,,7,,,70,0
66559,note_on,37,0,8,,,,,,,,7,,,82,0
66559,note_on,37,0,1,,,,,,,,0,,,82,0
66559,note_on,37,0,2,,,,,,,,1,,,82,0
66560,note_on,1,0,9,,,,,,,,7,,,67,127
66560,note_on,1,0,3,,,,,,,,2,,,67,127
66560,note_on,1,0,8,,,,,,,,7,,,79,127
66560,note_on,1,0,2,,,,,,,,1,,,79,127
66560,note_on,1,0,1,,,,,,,,0,,,79,127
66579,note_on,19,0,8,,,,,,,,7,,,79,0
66579,note_on,19,0,9,,,,,,,,7,,,67,0
66579,note_on,19,0,1,,,,,,,,0,,,79,0
66579,note_on,19,0,2,,,,,,,,1,,,79,0
66579,note_on,19,0,3,,,,,,,,2,,,67,0
66599,note_on,0,0,5,,,,,,,,4,,,46,0
66599,note_on,119,0,6,,,,,,,,5,,,58,0
66599,note_on,117,0,11,,,,,,,,7,,,58,0
66599,note_on,117,0,4,,,,,,,,3,,,46,0
66599,note_on,0,0,4,,,,,,,,3,,,58,0
66599,note_on,117,0,10,,,,,,,,7,,,70,0
66599,note_on,119,0,5,,,,,,,,4,,,58,0
66599,note_on,0,0,6,,,,,,,,5,,,70,0
66599,note_on,117,0,12,,,,,,,,7,,,46,0
66599,note_on,0,0,5,,,,,,,,4,,,70,0
66600,note_on,21,0,9,,,,,,,,7,,,65,127
66600,note_on,1,0,6,,,,,,,,5,,,58,127
66600,note_on,21,0,8,,,,,,,,7,,,77,127
66600,note_on,0,0,6,,,,,,,,5,,,70,127
66600,note_on,21,0,3,,,,,,,,2,,,65,127
66600,note_on,1,0,4,,,,,,,,3,,,56,127
66600,note_on,0,0,5,,,,,,,,4,,,58,127
66600,note_on,1,0,12,,,,,,,,7,,,44,127
66600,note_on,21,0,1,,,,,,,,0,,,77,127
66600,note_on,1,0,5,,,,,,,,4,,,70,127
66600,note_on,0,0,5,,,,,,,,4,,,46,127
66600,note_on,1,0,10,,,,,,,,7,,,68,127
66600,note_on,81,0,7,,,,,,,,6,,,46,127
66600,note_on,1,0,11,,,,,,,,7,,,56,126
66600,note_on,21,0,2,,,,,,,,1,,,77,127
66639,note_on,39,0,7,,,,,,,,6,,,46,0
66640,note_on,40,0,9,,,,,,,,7,,,70,127
66640,note_on,40,0,1,,,,,,,,0,,,82,127
66640,note_on,40,0,2,,,,,,,,1,,,82,127
66640,note_on,40,0,8,,,,,,,,7,,,82,127
66640,note_on,40,0,3,,,,,,,,2,,,70,127
66642,note_on,2,0,3,,,,,,,,2,,,65,0
66642,note_on,2,0,2,,,,,,,,1,,,77,0
66642,note_on,2,0,9,,,,,,,,7,,,65,0
66642,note_on,2,0,8,,,,,,,,7,,,77,0
66642,note_on,2,0,1,,,,,,,,0,,,77,0
66679,note_on,37,0,8,,,,,,,,7,,,82,0
66679,note_on,37,0,2,,,,,,,,1,,,82,0
66679,note_on,37,0,9,,,,,,,,7,,,70,0
66679,note_on,37,0,1,,,,,,,,0,,,82,0
66679,note_on,37,0,3,,,,,,,,2,,,70,0
66680,note_on,1,0,2,,,,,,,,1,,,77,127
66680,note_on,1,0,9,,,,,,,,7,,,65,127
66680,note_on,1,0,1,,,,,,,,0,,,77,127
66680,note_on,1,0,3,,,,,,,,2,,,65,127
66680,note_on,1,0,8,,,,,,,,7,,,77,127
66699,note_on,19,0,8,,,,,,,,7,,,77,0
66699,note_on,19,0,2,,,,,,,,1,,,77,0
66699,note_on,19,0,1,,,,,,,,0,,,77,0
66699,note_on,19,0,3,,,,,,,,2,,,65,0
66699,note_on,19,0,9,,,,,,,,7,,,65,0
66719,note_on,0,0,5,,,,,,,,4,,,46,0
66719,note_on,0,0,5,,,,,,,,4,,,70,0
66719,note_on,119,0,11,,,,,,,,7,,,56,0
66719,note_on,119,0,12,,,,,,,,7,,,44,0
66719,note_on,119,0,4,,,,,,,,3,,,56,0
66719,note_on,119,0,10,,,,,,,,7,,,68,0
66719,note_on,0,0,6,,,,,,,,5,,,58,0
66719,note_on,119,0,6,,,,,,,,5,,,70,0
66719,note_on,119,0,5,,,,,,,,4,,,58,0
66720,note_on,1,0,11,,,,,,,,7,,,55,126
66720,note_on,21,0,1,,,,,,,,0,,,75,127
66720,note_on,21,0,2,,,,,,,,1,,,75,127
66720,note_on,21,0,8,,,,,,,,7,,,75,127
66720,note_on,1,0,4,,,,,,,,3,,,55,127
66720,note_on,1,0,10,,,,,,,,7,,,67,127
66720,note_on,1,0,6,,,,,,,,5,,,70,127
66720,note_on,0,0,6,,,,,,,,5,,,58,127
66720,note_on,0,0,5,,,,,,,,4,,,58,127
66720,note_on,81,0,7,,,,,,,,6,,,46,127
66720,note_on,1,0,12,,,,,,,,7,,,43,127
66720,note_on,21,0,3,,,,,,,,2,,,63,127
66720,note_on,0,0,5,,,,,,,,4,,,46,127
66720,note_on,1,0,5,,,,,,,,4,,,70,127
66720,note_on,21,0,9,,,,,,,,7,,,63,127
66739,note_on,19,0,2,,,,,,,,1,,,75,0
66739,note_on,19,0,1,,,,,,,,0,,,75,0
66739,note_on,19,0,9,,,,,,,,7,,,63,0
66739,note_on,19,0,8,,,,,,,,7,,,75,0
66739,note_on,19,0,3,,,,,,,,2,,,63,0
66759,note_on,39,0,7,,,,,,,,6,,,46,0
66760,note_on,40,0,11,,,,,,,,7,,,58,126
66760,note_on,21,0,8,,,,,,,,7,,,79,127
66760,note_on,21,0,9,,,,,,,,7,,,67,127
66760,note_on,21,0,1,,,,,,,,0,,,79,127
66760,note_on,21,0,2,,,,,,,,1,,,79,127
66760,note_on,40,0,12,,,,,,,,7,,,46,127
66760,note_on,40,0,4,,,,,,,,3,,,58,127
66760,note_on,21,0,3,,,,,,,,2,,,67,127
66760,note_on,40,0,10,,,,,,,,7,,,70,127
66762,note_on,2,0,11,,,,,,,,7,,,55,0
66762,note_on,2,0,10,,,,,,,,7,,,67,0
66762,note_on,2,0,12,,,,,,,,7,,,43,0
66762,note_on,2,0,4,,,,,,,,3,,,55,0
66779,note_on,19,0,2,,,,,,,,1,,,79,0
66779,note_on,19,0,1,,,,,,,,0,,,79,0
66779,note_on,19,0,8,,,,,,,,7,,,79,0
66779,note_on,19,0,9,,,,,,,,7,,,67,0
66779,note_on,19,0,3,,,,,,,,2,,,67,0
66799,note_on,37,0,10,,,,,,,,7,,,70,0
66799,note_on,37,0,4,,,,,,,,3,,,58,0
66799,note_on,37,0,12,,,,,,,,7,,,46,0
66799,note_on,37,0,11,,,,,,,,7,,,58,0
66800,note_on,21,0,8,,,,,,,,7,,,82,127
66800,note_on,21,0,2,,,,,,,,1,,,82,127
66800,note_on,1,0,11,,,,,,,,7,,,55,126
66800,note_on,21,0,9,,,,,,,,7,,,70,127
66800,note_on,1,0,12,,,,,,,,7,,,43,127
66800,note_on,1,0,4,,,,,,,,3,,,55,127
66800,note_on,21,0,1,,,,,,,,0,,,82,127
66800,note_on,1,0,10,,,,,,,,7,,,67,127
66800,note_on,21,0,3,,,,,,,,2,,,70,127
66819,note_on,19,0,12,,,,,,,,7,,,43,0
66819,note_on,19,0,11,,,,,,,,7,,,55,0
66819,note_on,19,0,8,,,,,,,,7,,,82,0
66819,note_on,19,0,4,,,,,,,,3,,,55,0
66819,note_on,19,0,2,,,,,,,,1,,,82,0
66819,note_on,19,0,3,,,,,,,,2,,,70,0
66819,note_on,19,0,9,,,,,,,,7,,,70,0
66819,note_on,19,0,1,,,,,,,,0,,,82,0
66819,note_on,19,0,10,,,,,,,,7,,,67,0
66839,note_on,119,0,6,,,,,,,,5,,,58,0
66839,note_on,0,0,6,,,,,,,,5,,,70,0
66839,note_on,0,0,5,,,,,,,,4,,,70,0
66839,note_on,0,0,5,,,,,,,,4,,,46,0
66839,note_on,119,0,5,,,,,,,,4,,,58,0
66840,note_on,0,0,5,,,,,,,,4,,,46,127
66840,note_on,21,0,10,,,,,,,,7,,,65,127
66840,note_on,21,0,4,,,,,,,,3,,,53,127
66840,note_on,21,0,8,,,,,,,,7,,,80,127
66840,note_on,21,0,11,,,,,,,,7,,,53,126
66840,note_on,21,0,2,,,,,,,,1,,,80,127
66840,note_on,0,0,5,,,,,,,,4,,,58,127
66840,note_on,21,0,3,,,,,,,,2,,,68,127
66840,note_on,1,0,5,,,,,,,,4,,,70,127
66840,note_on,21,0,1,,,,,,,,0,,,82,127
66840,note_on,0,0,6,,,,,,,,5,,,70,127
66840,note_on,1,0,6,,,,,,,,5,,,58,127
66840,note_on,81,0,7,,,,,,,,6,,,46,127
66840,note_on,21,0,9,,,,,,,,7,,,68,127
66840,note_on,21,0,12,,,,,,,,7,,,41,127
66879,note_on,39,0,7,,,,,,,,6,,,46,0
66880,note_on,40,0,10,,,,,,,,7,,,70,127
66880,note_on,40,0,4,,,,,,,,3,,,56,127
66880,note_on,40,0,11,,,,,,,,7,,,58,126
66880,note_on,40,0,12,,,,,,,,7,,,46,127
66882,note_on,2,0,4,,,,,,,,3,,,53,0
66882,note_on,2,0,12,,,,,,,,7,,,41,0
66882,note_on,2,0,10,,,,,,,,7,,,65,0
66882,note_on,2,0,11,,,,,,,,7,,,53,0
66919,note_on,37,0,10,,,,,,,,7,,,70,0
66919,note_on,37,0,11,,,,,,,,7,,,58,0
66919,note_on,37,0,12,,,,,,,,7,,,46,0
66919,note_on,37,0,4,,,,,,,,3,,,56,0
66920,note_on,1,0,4,,,,,,,,3,,,53,127
66920,note_on,1,0,11,,,,,,,,7,,,53,126
66920,note_on,1,0,12,,,,,,,,7,,,41,127
66920,note_on,1,0,10,,,,,,,,7,,,65,127
66939,note_on,19,0,12,,,,,,,,7,,,41,0
66939,note_on,19,0,4,,,,,,,,3,,,53,0
66939,note_on,19,0,11,,,,,,,,7,,,53,0
66939,note_on,19,0,10,,,,,,,,7,,,65,0
66959,note_on,119,0,1,,,,,,,,0,,,82,0
66959,note_on,119,0,5,,,,,,,,4,,,58,0
66959,note_on,119,0,9,,,,,,,,7,,,68,0
66959,note_on,0,0,5,,,,,,,,4,,,46,0
66959,note_on,0,0,5,,,,,,,,4,,,70,0
66959,note_on,119,0,2,,,,,,,,1,,,80,0
66959,note_on,119,0,3,,,,,,,,2,,,68,0
66959,note_on,119,0,6,,,,,,,,5,,,70,0
66959,note_on,0,0,6,,,,,,,,5,,,58,0
66959,note_on,119,0,8,,,,,,,,7,,,80,0
66960,note_on,1,0,5,,,,,,,,4,,,70,127
66960,note_on,21,0,11,,,,,,,,7,,,51,126
66960,note_on,0,0,5,,,,,,,,4,,,58,127
66960,note_on,0,0,5,,,,,,,,4,,,46,127
66960,note_on,1,0,3,,,,,,,,2,,,67,127
66960,note_on,0,0,6,,,,,,,,5,,,58,127
66960,note_on,21,0,10,,,,,,,,7,,,63,127
66960,note_on,1,0,1,,,,,,,,0,,,82,127
66960,note_on,21,0,4,,,,,,,,3,,,51,127
66960,note_on,1,0,8,,,,,,,,7,,,79,127
66960,note_on,21,0,12,,,,,,,,7,,,39,127
66960,note_on,1,0,6,,,,,,,,5,,,70,127
66960,note_on,81,0,7,,,,,,,,6,,,46,127
66960,note_on,1,0,9,,,,,,,,7,,,67,127
66960,note_on,1,0,2,,,,,,,,1,,,79,127
66979,note_on,19,0,10,,,,,,,,7,,,63,0
66979,note_on,19,0,11,,,,,,,,7,,,51,0
66979,note_on,19,0,12,,,,,,,,7,,,39,0
66979,note_on,19,0,4,,,,,,,,3,,,51,0
66999,note_on,39,0,7,,,,,,,,6,,,46,0
67000,note_on,40,0,9,,,,,,,,7,,,70,127
67000,note_on,21,0,10,,,,,,,,7,,,67,127
67000,note_on,21,0,12,,,,,,,,7,,,43,127
67000,note_on,40,0,3,,,,,,,,2,,,70,127
67000,note_on,21,0,11,,,,,,,,7,,,55,126
67000,note_on,40,0,2,,,,,,,,1,,,82,127
67000,note_on,40,0,8,,,,,,,,7,,,82,127
67000,note_on,21,0,4,,,,,,,,3,,,55,127
67002,note_on,2,0,3,,,,,,,,2,,,67,0
67002,note_on,2,0,8,,,,,,,,7,,,79,0
67002,note_on,2,0,2,,,,,,,,1,,,79,0
67002,note_on,2,0,9,,,,,,,,7,,,67,0
67019,note_on,19,0,11,,,,,,,,7,,,55,0
67019,note_on,19,0,10,,,,,,,,7,,,67,0
67019,note_on,19,0,4,,,,,,,,3,,,55,0
67019,note_on,19,0,12,,,,,,,,7,,,43,0
67039,note_on,37,0,9,,,,,,,,7,,,70,0
67039,note_on,37,0,2,,,,,,,,1,,,82,0
67039,note_on,37,0,3,,,,,,,,2,,,70,0
67039,note_on,37,0,8,,,,,,,,7,,,82,0
67040,note_on,21,0,4,,,,,,,,3,,,58,127
67040,note_on,1,0,3,,,,,,,,2,,,67,127
67040,note_on,1,0,8,,,,,,,,7,,,79,127
67040,note_on,21,0,11,,,,,,,,7,,,58,126
67040,note_on,21,0,10,,,,,,,,7,,,70,127
67040,note_on,1,0,2,,,,,,,,1,,,79,127
67040,note_on,1,0,9,,,,,,,,7,,,67,127
67040,note_on,21,0,12,,,,,,,,7,,,46,127
67059,note_on,19,0,8,,,,,,,,7,,,79,0
67059,note_on,19,0,10,,,,,,,,7,,,70,0
67059,note_on,19,0,4,,,,,,,,3,,,58,0
67059,note_on,19,0,12,,,,,,,,7,,,46,0
67059,note_on,19,0,11,,,,,,,,7,,,58,0
67059,note_on,19,0,2,,,,,,,,1,,,79,0
67059,note_on,19,0,9,,,,,,,,7,,,67,0
67059,note_on,19,0,3,,,,,,,,2,,,67,0
67079,note_on,119,0,5,,,,,,,,4,,,58,0
67079,note_on,119,0,1,,,,,,,,0,,,82,0
67079,note_on,119,0,6,,,,,,,,5,,,58,0
67079,note_on,0,0,5,,,,,,,,4,,,70,0
67079,note_on,0,0,6,,,,,,,,5,,,70,0
67079,note_on,0,0,5,,,,,,,,4,,,46,0
67080,note_on,21,0,11,,,,,,,,7,,,56,126
67080,note_on,21,0,2,,,,,,,,1,,,77,127
67080,note_on,0,0,5,,,,,,,,4,,,58,127
67080,note_on,0,0,5,,,,,,,,4,,,46,127
67080,note_on,1,0,5,,,,,,,,4,,,70,127
67080,note_on,1,0,6,,,,,,,,5,,,58,127
67080,note_on,1,0,1,,,,,,,,0,,,82,127
67080,note_on,21,0,8,,,,,,,,7,,,77,127
67080,note_on,21,0,3,,,,,,,,2,,,65,127
67080,note_on,81,0,7,,,,,,,,6,,,46,127
67080,note_on,21,0,4,,,,,,,,3,,,56,127
67080,note_on,21,0,9,,,,,,,,7,,,65,127
67080,note_on,21,0,10,,,,,,,,7,,,68,127
67080,note_on,21,0,12,,,,,,,,7,,,44,127
67080,note_on,0,0,6,,,,,,,,5,,,70,127
67119,note_on,39,0,7,,,,,,,,6,,,46,0
67120,note_on,40,0,8,,,,,,,,7,,,82,127
67120,note_on,40,0,3,,,,,,,,2,,,70,127
67120,note_on,40,0,9,,,,,,,,7,,,70,127
67120,note_on,40,0,2,,,,,,,,1,,,82,127
67122,note_on,2,0,9,,,,,,,,7,,,65,0
67122,note_on,2,0,8,,,,,,,,7,,,77,0
67122,note_on,2,0,2,,,,,,,,1,,,77,0
67122,note_on,2,0,3,,,,,,,,2,,,65,0
67159,note_on,37,0,9,,,,,,,,7,,,70,0
67159,note_on,37,0,8,,,,,,,,7,,,82,0
67159,note_on,37,0,2,,,,,,,,1,,,82,0
67159,note_on,37,0,3,,,,,,,,2,,,70,0
67160,note_on,1,0,9,,,,,,,,7,,,65,127
67160,note_on,1,0,2,,,,,,,,1,,,77,127
67160,note_on,1,0,3,,,,,,,,2,,,65,127
67160,note_on,1,0,8,,,,,,,,7,,,77,127
67179,note_on,19,0,9,,,,,,,,7,,,65,0
67179,note_on,19,0,8,,,,,,,,7,,,77,0
67179,note_on,19,0,3,,,,,,,,2,,,65,0
67179,note_on,19,0,2,,,,,,,,1,,,77,0
67199,note_on,119,0,10,,,,,,,,7,,,68,0
67199,note_on,119,0,6,,,,,,,,5,,,70,0
67199,note_on,0,0,6,,,,,,,,5,,,58,0
67199,note_on,119,0,11,,,,,,,,7,,,56,0
67199,note_on,119,0,4,,,,,,,,3,,,56,0
67199,note_on,0,0,5,,,,,,,,4,,,70,0
67199,note_on,119,0,5,,,,,,,,4,,,58,0
67199,note_on,119,0,1,,,,,,,,0,,,82,0
67199,note_on,119,0,12,,,,,,,,7,,,44,0
67199,note_on,0,0,5,,,,,,,,4,,,46,0
67200,note_on,1,0,5,,,,,,,,4,,,70,127
67200,note_on,0,0,5,,,,,,,,4,,,46,127
67200,note_on,0,0,5,,,,,,,,4,,,58,127
67200,note_on,21,0,9,,,,,,,,7,,,63,127
67200,note_on,0,0,6,,,,,,,,5,,,58,127
67200,note_on,1,0,6,,,,,,,,5,,,70,127
67200,note_on,81,0,7,,,,,,,,6,,,46,127
67200,note_on,1,0,12,,,,,,,,7,,,43,127
67200,note_on,1,0,11,,,,,,,,7,,,55,126
67200,note_on,21,0,2,,,,,,,,1,,,75,127
67200,note_on,1,0,1,,,,,,,,0,,,82,127
67200,note_on,21,0,8,,,,,,,,7,,,75,127
67200,note_on,1,0,4,,,,,,,,3,,,55,127
67200,note_on,21,0,3,,,,,,,,2,,,63,127
67200,note_on,1,0,10,,,,,,,,7,,,67,127
67219,note_on,19,0,9,,,,,,,,7,,,63,0
67219,note_on,19,0,1,,,,,,,,0,,,82,0
67219,note_on,19,0,2,,,,,,,,1,,,75,0
67219,note_on,19,0,8,,,,,,,,7,,,75,0
67219,note_on,19,0,3,,,,,,,,2,,,63,0
67239,note_on,39,0,5,,,,,,,,4,,,58,0
67239,note_on,0,0,5,,,,,,,,4,,,46,0
67239,note_on,39,0,7,,,,,,,,6,,,46,0
67239,note_on,0,0,5,,,,,,,,4,,,70,0
67239,note_on,39,0,6,,,,,,,,5,,,58,0
67239,note_on,0,0,6,,,,,,,,5,,,70,0
67240,note_on,1,0,5,,,,,,,,4,,,51,127
67240,note_on,1,0,7,,,,,,,,6,,,51,127
67240,note_on,21,0,8,,,,,,,,7,,,79,127
67240,note_on,0,0,6,,,,,,,,5,,,63,127
67240,note_on,21,0,1,,,,,,,,0,,,87,127
67240,note_on,21,0,2,,,,,,,,1,,,79,127
67240,note_on,40,0,12,,,,,,,,7,,,46,127
67240,note_on,21,0,3,,,,,,,,2,,,67,127
67240,note_on,40,0,11,,,,,,,,7,,,58,126
67240,note_on,0,0,5,,,,,,,,4,,,63,127
67240,note_on,21,0,9,,,,,,,,7,,,67,127
67240,note_on,40,0,4,,,,,,,,3,,,58,127
67240,note_on,1,0,6,,,,,,,,5,,,75,127
67240,note_on,40,0,10,,,,,,,,7,,,70,127
67242,note_on,2,0,12,,,,,,,,7,,,43,0
67242,note_on,2,0,4,,,,,,,,3,,,55,0
67242,note_on,2,0,10,,,,,,,,7,,,67,0
67242,note_on,2,0,11,,,,,,,,7,,,55,0
67259,note_on,19,0,2,,,,,,,,1,,,79,0
67259,note_on,19,0,3,,,,,,,,2,,,67,0
67259,note_on,19,0,9,,,,,,,,7,,,67,0
67259,note_on,19,0,1,,,,,,,,0,,,87,0
67259,note_on,19,0,8,,,,,,,,7,,,79,0
67279,note_on,0,0,6,,,,,,,,5,,,75,0
67279,note_on,39,0,5,,,,,,,,4,,,63,0
67279,note_on,37,0,10,,,,,,,,7,,,70,0
67279,note_on,37,0,11,,,,,,,,7,,,58,0
67279,note_on,37,0,4,,,,,,,,3,,,58,0
67279,note_on,39,0,7,,,,,,,,6,,,51,0
67279,note_on,37,0,12,,,,,,,,7,,,46,0
67279,note_on,39,0,6,,,,,,,,5,,,63,0
67279,note_on,0,0,5,,,,,,,,4,,,51,0
67280,note_on,0,0,5,,,,,,,,4,,,63,127
67280,note_on,21,0,8,,,,,,,,7,,,82,127
67280,note_on,21,0,9,,,,,,,,7,,,70,127
67280,note_on,1,0,4,,,,,,,,3,,,55,127
67280,note_on,1,0,6,,,,,,,,5,,,63,127
67280,note_on,1,0,10,,,,,,,,7,,,67,127
67280,note_on,21,0,3,,,,,,,,2,,,70,127
67280,note_on,21,0,1,,,,,,,,0,,,87,127
67280,note_on,0,0,6,,,,,,,,5,,,75,127
67280,note_on,1,0,11,,,,,,,,7,,,55,126
67280,note_on,21,0,2,,,,,,,,1,,,82,127
67280,note_on,1,0,7,,,,,,,,6,,,51,127
67280,note_on,1,0,12,,,,,,,,7,,,43,127
67280,note_on,1,0,5,,,,,,,,4,,,51,127
67299,note_on,19,0,2,,,,,,,,1,,,82,0
67299,note_on,19,0,12,,,,,,,,7,,,43,0
67299,note_on,19,0,1,,,,,,,,0,,,87,0
67299,note_on,19,0,8,,,,,,,,7,,,82,0
67299,note_on,19,0,9,,,,,,,,7,,,70,0
67299,note_on,19,0,10,,,,,,,,7,,,67,0
67299,note_on,19,0,4,,,,,,,,3,,,55,0
67299,note_on,19,0,3,,,,,,,,2,,,70,0
67299,note_on,19,0,11,,,,,,,,7,,,55,0
67319,note_on,39,0,7,,,,,,,,6,,,51,0
67319,note_on,0,0,6,,,,,,,,5,,,63,0
67319,note_on,0,0,5,,,,,,,,4,,,51,0
67319,note_on,39,0,5,,,,,,,,4,,,63,0
67319,note_on,39,0,6,,,,,,,,5,,,75,0
67320,note_on,21,0,10,,,,,,,,7,,,65,127
67320,note_on,21,0,9,,,,,,,,7,,,73,127
67320,note_on,21,0,4,,,,,,,,3,,,53,127
67320,note_on,21,0,12,,,,,,,,7,,,41,127
67320,note_on,1,0,7,,,,,,,,6,,,51,127
67320,note_on,1,0,6,,,,,,,,5,,,75,127
67320,note_on,0,0,3,,,,,,,,2,,,68,127
67320,note_on,21,0,3,,,,,,,,2,,,73,127
67320,note_on,21,0,11,,,,,,,,7,,,53,126
67320,note_on,21,0,2,,,,,,,,1,,,80,127
67320,note_on,21,0,1,,,,,,,,0,,,87,127
67320,note_on,0,0,5,,,,,,,,4,,,51,127
67320,note_on,21,0,8,,,,,,,,7,,,85,127
67320,note_on,0,0,6,,,,,,,,5,,,63,127
67320,note_on,1,0,5,,,,,,,,4,,,63,127
67359,note_on,39,0,7,,,,,,,,6,,,51,0
67360,note_on,40,0,12,,,,,,,,7,,,44,127
67360,note_on,40,0,4,,,,,,,,3,,,56,127
67360,note_on,40,0,11,,,,,,,,7,,,56,126
67360,note_on,40,0,10,,,,,,,,7,,,68,127
67362,note_on,2,0,4,,,,,,,,3,,,53,0
67362,note_on,2,0,11,,,,,,,,7,,,53,0
67362,note_on,2,0,10,,,,,,,,7,,,65,0
67362,note_on,2,0,12,,,,,,,,7,,,41,0
67399,note_on,37,0,10,,,,,,,,7,,,68,0
67399,note_on,37,0,11,,,,,,,,7,,,56,0
67399,note_on,37,0,12,,,,,,,,7,,,44,0
67399,note_on,37,0,4,,,,,,,,3,,,56,0
67400,note_on,1,0,12,,,,,,,,7,,,41,127
67400,note_on,1,0,10,,,,,,,,7,,,65,127
67400,note_on,1,0,4,,,,,,,,3,,,53,127
67400,note_on,1,0,11,,,,,,,,7,,,53,126
67419,note_on,19,0,4,,,,,,,,3,,,53,0
67419,note_on,19,0,11,,,,,,,,7,,,53,0
67419,note_on,19,0,12,,,,,,,,7,,,41,0
67419,note_on,19,0,10,,,,,,,,7,,,65,0
67439,note_on,119,0,9,,,,,,,,7,,,73,0
67439,note_on,0,0,3,,,,,,,,2,,,73,0
67439,note_on,119,0,3,,,,,,,,2,,,68,0
67439,note_on,119,0,2,,,,,,,,1,,,80,0
67439,note_on,119,0,1,,,,,,,,0,,,87,0
67439,note_on,119,0,5,,,,,,,,4,,,51,0
67439,note_on,119,0,8,,,,,,,,7,,,85,0
67439,note_on,0,0,5,,,,,,,,4,,,63,0
67439,note_on,119,0,6,,,,,,,,5,,,63,0
67439,note_on,0,0,6,,,,,,,,5,,,75,0
67440,note_on,1,0,6,,,,,,,,5,,,63,127
67440,note_on,1,0,9,,,,,,,,7,,,72,127
67440,note_on,1,0,5,,,,,,,,4,,,68,127
67440,note_on,21,0,10,,,,,,,,7,,,63,127
67440,note_on,0,0,5,,,,,,,,4,,,51,127
67440,note_on,0,0,3,,,,,,,,2,,,68,127
67440,note_on,0,0,6,,,,,,,,5,,,75,127
67440,note_on,21,0,12,,,,,,,,7,,,39,127
67440,note_on,21,0,4,,,,,,,,3,,,51,127
67440,note_on,81,0,7,,,,,,,,6,,,51,127
67440,note_on,1,0,3,,,,,,,,2,,,72,127
67440,note_on,1,0,8,,,,,,,,7,,,84,127
67440,note_on,1,0,1,,,,,,,,0,,,87,127
67440,note_on,1,0,2,,,,,,,,1,,,80,127
67440,note_on,0,0,5,,,,,,,,4,,,63,127
67440,note_on,21,0,11,,,,,,,,7,,,51,126
67459,note_on,19,0,12,,,,,,,,7,,,39,0
67459,note_on,19,0,11,,,,,,,,7,,,51,0
67479,note_on,39,0,7,,,,,,,,6,,,51,0
67480,note_on,40,0,10,,,,,,,,7,,,68,127
67480,note_on,40,0,4,,,,,,,,3,,,56,127
67480,note_on,40,0,8,,,,,,,,7,,,87,127
67480,note_on,40,0,9,,,,,,,,7,,,75,127
67480,note_on,21,0,12,,,,,,,,7,,,44,127
67480,note_on,21,0,11,,,,,,,,7,,,56,126
67480,note_on,40,0,3,,,,,,,,2,,,75,127
67482,note_on,2,0,9,,,,,,,,7,,,72,0
67482,note_on,2,0,8,,,,,,,,7,,,84,0
67482,note_on,2,0,4,,,,,,,,3,,,51,0
67482,note_on,2,0,3,,,,,,,,2,,,72,0
67482,note_on,2,0,10,,,,,,,,7,,,63,0
67499,note_on,19,0,11,,,,,,,,7,,,56,0
67499,note_on,19,0,12,,,,,,,,7,,,44,0
67519,note_on,37,0,8,,,,,,,,7,,,87,0
67519,note_on,37,0,4,,,,,,,,3,,,56,0
67519,note_on,37,0,9,,,,,,,,7,,,75,0
67519,note_on,37,0,10,,,,,,,,7,,,68,0
67519,note_on,37,0,3,,,,,,,,2,,,75,0
67520,note_on,1,0,8,,,,,,,,7,,,84,127
67520,note_on,21,0,12,,,,,,,,7,,,39,127
67520,note_on,1,0,4,,,,,,,,3,,,51,127
67520,note_on,1,0,9,,,,,,,,7,,,72,127
67520,note_on,1,0,10,,,,,,,,7,,,63,127
67520,note_on,1,0,3,,,,,,,,2,,,72,127
67520,note_on,21,0,11,,,,,,,,7,,,51,126
67539,note_on,19,0,3,,,,,,,,2,,,72,0
67539,note_on,19,0,11,,,,,,,,7,,,51,0
67539,note_on,19,0,9,,,,,,,,7,,,72,0
67539,note_on,19,0,10,,,,,,,,7,,,63,0
67539,note_on,19,0,4,,,,,,,,3,,,51,0
67539,note_on,19,0,8,,,,,,,,7,,,84,0
67539,note_on,19,0,12,,,,,,,,7,,,39,0
67559,note_on,0,0,5,,,,,,,,4,,,68,0
67559,note_on,119,0,6,,,,,,,,5,,,75,0
67559,note_on,0,0,6,,,,,,,,5,,,63,0
67559,note_on,119,0,1,,,,,,,,0,,,87,0
67559,note_on,0,0,5,,,,,,,,4,,,51,0
67559,note_on,20,0,3,,,,,,,,2,,,68,0
67559,note_on,119,0,2,,,,,,,,1,,,80,0
67559,note_on,119,0,5,,,,,,,,4,,,63,0
67560,note_on,21,0,11,,,,,,,,7,,,49,126
67560,note_on,0,0,3,,,,,,,,2,,,67,127
67560,note_on,1,0,5,,,,,,,,4,,,67,127
67560,note_on,0,0,5,,,,,,,,4,,,51,127
67560,note_on,1,0,6,,,,,,,,5,,,75,127
67560,note_on,0,0,6,,,,,,,,5,,,63,127
67560,note_on,0,0,5,,,,,,,,4,,,63,127
67560,note_on,21,0,9,,,,,,,,7,,,70,127
67560,note_on,1,0,3,,,,,,,,2,,,70,127
67560,note_on,1,0,2,,,,,,,,1,,,79,127
67560,note_on,21,0,4,,,,,,,,3,,,49,127
67560,note_on,1,0,1,,,,,,,,0,,,87,127
67560,note_on,21,0,10,,,,,,,,7,,,61,127
67560,note_on,21,0,8,,,,,,,,7,,,82,127
67560,note_on,81,0,7,,,,,,,,6,,,51,127
67560,note_on,21,0,12,,,,,,,,7,,,37,127
67599,note_on,39,0,7,,,,,,,,6,,,51,0
67600,note_on,40,0,9,,,,,,,,7,,,75,127
67600,note_on,40,0,8,,,,,,,,7,,,87,127
67600,note_on,40,0,3,,,,,,,,2,,,75,127
67602,note_on,2,0,9,,,,,,,,7,,,70,0
67602,note_on,2,0,8,,,,,,,,7,,,82,0
67602,note_on,2,0,3,,,,,,,,2,,,70,0
67639,note_on,37,0,9,,,,,,,,7,,,75,0
67639,note_on,37,0,3,,,,,,,,2,,,75,0
67639,note_on,37,0,8,,,,,,,,7,,,87,0
67640,note_on,1,0,9,,,,,,,,7,,,70,127
67640,note_on,1,0,8,,,,,,,,7,,,82,127
67640,note_on,1,0,3,,,,,,,,2,,,70,127
67659,note_on,19,0,3,,,,,,,,2,,,70,0
67659,note_on,19,0,9,,,,,,,,7,,,70,0
67659,note_on,19,0,8,,,,,,,,7,,,82,0
67679,note_on,119,0,4,,,,,,,,3,,,49,0
67679,note_on,119,0,11,,,,,,,,7,,,49,0
67679,note_on,119,0,12,,,,,,,,7,,,37,0
67679,note_on,119,0,10,,,,,,,,7,,,61,0
67679,note_on,20,0,3,,,,,,,,2,,,67,0
67679,note_on,0,0,6,,,,,,,,5,,,75,0
67679,note_on,119,0,6,,,,,,,,5,,,63,0
67679,note_on,119,0,5,,,,,,,,4,,,63,0
67679,note_on,0,0,5,,,,,,,,4,,,51,0
67679,note_on,0,0,5,,,,,,,,4,,,67,0
67679,note_on,119,0,1,,,,,,,,0,,,87,0
67679,note_on,119,0,2,,,,,,,,1,,,79,0
67680,note_on,1,0,2,,,,,,,,1,,,80,127
67680,note_on,1,0,4,,,,,,,,3,,,48,127
67680,note_on,21,0,8,,,,,,,,7,,,80,127
67680,note_on,21,0,9,,,,,,,,7,,,68,127
67680,note_on,1,0,10,,,,,,,,7,,,60,127
67680,note_on,0,0,5,,,,,,,,4,,,51,127
67680,note_on,1,0,1,,,,,,,,0,,,87,127
67680,note_on,1,0,5,,,,,,,,4,,,68,127
67680,note_on,81,0,7,,,,,,,,6,,,51,127
67680,note_on,1,0,3,,,,,,,,2,,,68,127
67680,note_on,1,0,6,,,,,,,,5,,,63,127
67680,note_on,0,0,6,,,,,,,,5,,,75,127
67680,note_on,1,0,12,,,,,,,,7,,,36,127
67680,note_on,1,0,11,,,,,,,,7,,,48,126
67680,note_on,0,0,5,,,,,,,,4,,,63,127
67699,note_on,19,0,9,,,,,,,,7,,,68,0
67699,note_on,19,0,8,,,,,,,,7,,,80,0
67699,note_on,19,0,3,,,,,,,,2,,,68,0
67719,note_on,39,0,7,,,,,,,,6,,,51,0
67720,note_on,21,0,8,,,,,,,,7,,,84,127
67720,note_on,40,0,12,,,,,,,,7,,,39,127
67720,note_on,21,0,3,,,,,,,,2,,,72,127
67720,note_on,40,0,11,,,,,,,,7,,,51,126
67720,note_on,40,0,4,,,,,,,,3,,,53,127
67720,note_on,21,0,9,,,,,,,,7,,,72,127
67720,note_on,40,0,10,,,,,,,,7,,,63,127
67722,note_on,2,0,11,,,,,,,,7,,,48,0
67722,note_on,2,0,12,,,,,,,,7,,,36,0
67722,note_on,2,0,4,,,,,,,,3,,,48,0
67722,note_on,2,0,10,,,,,,,,7,,,60,0
67739,note_on,19,0,9,,,,,,,,7,,,72,0
67739,note_on,19,0,8,,,,,,,,7,,,84,0
67739,note_on,19,0,3,,,,,,,,2,,,72,0
67759,note_on,37,0,12,,,,,,,,7,,,39,0
67759,note_on,37,0,11,,,,,,,,7,,,51,0
67759,note_on,37,0,10,,,,,,,,7,,,63,0
67759,note_on,37,0,4,,,,,,,,3,,,53,0
67760,note_on,1,0,10,,,,,,,,7,,,60,127
67760,note_on,1,0,11,,,,,,,,7,,,48,126
67760,note_on,1,0,12,,,,,,,,7,,,36,127
67760,note_on,1,0,4,,,,,,,,3,,,48,127
67760,note_on,21,0,9,,,,,,,,7,,,75,127
67760,note_on,21,0,3,,,,,,,,2,,,75,127
67760,note_on,21,0,8,,,,,,,,7,,,87,127
67779,note_on,19,0,8,,,,,,,,7,,,87,0
67779,note_on,19,0,3,,,,,,,,2,,,75,0
67779,note_on,19,0,10,,,,,,,,7,,,60,0
67779,note_on,19,0,9,,,,,,,,7,,,75,0
67779,note_on,19,0,12,,,,,,,,7,,,36,0
67779,note_on,19,0,11,,,,,,,,7,,,48,0
67779,note_on,19,0,4,,,,,,,,3,,,48,0
67799,note_on,0,0,6,,,,,,,,5,,,63,0
67799,note_on,0,0,5,,,,,,,,4,,,51,0
67799,note_on,119,0,1,,,,,,,,0,,,87,0
67799,note_on,119,0,5,,,,,,,,4,,,63,0
67799,note_on,119,0,2,,,,,,,,1,,,80,0
67799,note_on,119,0,6,,,,,,,,5,,,75,0
67799,note_on,0,0,5,,,,,,,,4,,,68,0
67800,note_on,1,0,6,,,,,,,,5,,,63,127
67800,note_on,21,0,12,,,,,,,,7,,,39,127
67800,note_on,0,0,6,,,,,,,,5,,,75,127
67800,note_on,21,0,8,,,,,,,,7,,,85,127
67800,note_on,21,0,10,,,,,,,,7,,,63,127
67800,note_on,1,0,1,,,,,,,,0,,,87,127
67800,note_on,21,0,11,,,,,,,,7,,,51,126
67800,note_on,81,0,7,,,,,,,,6,,,51,127
67800,note_on,1,0,5,,,,,,,,4,,,67,127
67800,note_on,0,0,5,,,,,,,,4,,,63,127
67800,note_on,21,0,9,,,,,,,,7,,,73,127
67800,note_on,21,0,3,,,,,,,,2,,,67,127
67800,note_on,21,0,4,,,,,,,,3,,,53,127
67800,note_on,0,0,5,,,,,,,,4,,,51,127
67800,note_on,1,0,2,,,,,,,,1,,,79,127
67800,note_on,0,0,3,,,,,,,,2,,,73,127
67819,note_on,19,0,12,,,,,,,,7,,,39,0
67819,note_on,19,0,11,,,,,,,,7,,,51,0
67819,note_on,19,0,10,,,,,,,,7,,,63,0
67819,note_on,19,0,4,,,,,,,,3,,,53,0
67839,note_on,39,0,7,,,,,,,,6,,,51,0
67840,note_on,21,0,12,,,,,,,,7,,,34,127
67840,note_on,21,0,10,,,,,,,,7,,,58,127
67840,note_on,21,0,4,,,,,,,,3,,,46,127
67840,note_on,21,0,11,,,,,,,,7,,,46,126
67859,note_on,19,0,12,,,,,,,,7,,,34,0
67859,note_on,19,0,11,,,,,,,,7,,,46,0
67859,note_on,19,0,4,,,,,,,,3,,,46,0
67859,note_on,19,0,10,,,,,,,,7,,,58,0
67880,note_on,21,0,10,,,,,,,,7,,,63,127
67880,note_on,21,0,11,,,,,,,,7,,,51,126
67880,note_on,21,0,4,,,,,,,,3,,,53,127
67880,note_on,21,0,12,,,,,,,,7,,,39,127
67899,note_on,19,0,4,,,,,,,,3,,,53,0
67899,note_on,19,0,11,,,,,,,,7,,,51,0
67899,note_on,19,0,10,,,,,,,,7,,,63,0
67899,note_on,19,0,12,,,,,,,,7,,,39,0
67919,note_on,119,0,2,,,,,,,,1,,,79,0
67919,note_on,0,0,5,,,,,,,,4,,,51,0
67919,note_on,119,0,8,,,,,,,,7,,,85,0
67919,note_on,119,0,5,,,,,,,,4,,,63,0
67919,note_on,119,0,9,,,,,,,,7,,,73,0
67919,note_on,0,0,6,,,,,,,,5,,,63,0
67919,note_on,119,0,6,,,,,,,,5,,,75,0
67919,note_on,0,0,3,,,,,,,,2,,,67,0
67919,note_on,119,0,1,,,,,,,,0,,,87,0
67919,note_on,119,0,3,,,,,,,,2,,,73,0
67919,note_on,0,0,5,,,,,,,,4,,,67,0
67920,note_on,1,0,5,,,,,,,,4,,,68,127
67920,note_on,81,0,7,,,,,,,,6,,,51,127
67920,note_on,0,0,5,,,,,,,,4,,,51,127
67920,note_on,1,0,9,,,,,,,,7,,,72,127
67920,note_on,1,0,3,,,,,,,,2,,,72,127
67920,note_on,0,0,5,,,,,,,,4,,,63,127
67920,note_on,1,0,8,,,,,,,,7,,,84,127
67920,note_on,21,0,11,,,,,,,,7,,,44,126
67920,note_on,0,0,6,,,,,,,,5,,,63,127
67920,note_on,1,0,6,,,,,,,,5,,,75,127
67920,note_on,21,0,4,,,,,,,,3,,,44,127
67920,note_on,21,0,12,,,,,,,,7,,,32,127
67920,note_on,1,0,2,,,,,,,,1,,,80,127
67920,note_on,1,0,1,,,,,,,,0,,,87,127
67920,note_on,21,0,10,,,,,,,,7,,,56,127
67939,note_on,19,0,2,,,,,,,,1,,,80,0
67939,note_on,19,0,5,,,,,,,,4,,,63,0
67939,note_on,0,0,5,,,,,,,,4,,,51,0
67939,note_on,0,0,5,,,,,,,,4,,,68,0
67939,note_on,19,0,10,,,,,,,,7,,,56,0
67939,note_on,19,0,1,,,,,,,,0,,,87,0
67939,note_on,19,0,6,,,,,,,,5,,,63,0
67939,note_on,19,0,4,,,,,,,,3,,,44,0
67939,note_on,19,0,12,,,,,,,,7,,,32,0
67939,note_on,19,0,11,,,,,,,,7,,,44,0
67939,note_on,0,0,6,,,,,,,,5,,,75,0
67939,note_on,19,0,3,,,,,,,,2,,,72,0
67959,note_on,39,0,7,,,,,,,,6,,,51,0
67960,note_on,1,0,7,,,,,,,,6,,,51,127
67960,note_on,0,0,3,,,,,,,,2,,,72,127
67960,note_on,40,0,9,,,,,,,,7,,,75,127
67960,note_on,21,0,11,,,,,,,,7,,,56,126
67960,note_on,21,0,5,,,,,,,,4,,,51,127
67960,note_on,0,0,5,,,,,,,,4,,,63,127
67960,note_on,0,0,6,,,,,,,,5,,,75,127
67960,note_on,21,0,10,,,,,,,,7,,,68,127
67960,note_on,21,0,3,,,,,,,,2,,,75,127
67960,note_on,21,0,4,,,,,,,,3,,,56,127
67960,note_on,21,0,6,,,,,,,,5,,,63,127
67960,note_on,0,0,2,,,,,,,,1,,,84,127
67960,note_on,21,0,2,,,,,,,,1,,,75,127
67960,note_on,0,0,1,,,,,,,,0,,,87,127
67960,note_on,21,0,1,,,,,,,,0,,,84,127
67960,note_on,21,0,12,,,,,,,,7,,,44,127
67960,note_on,40,0,8,,,,,,,,7,,,87,127
67962,note_on,2,0,8,,,,,,,,7,,,84,0
67962,note_on,2,0,9,,,,,,,,7,,,72,0
67979,note_on,19,0,12,,,,,,,,7,,,44,0
67979,note_on,0,0,3,,,,,,,,2,,,75,0
67979,note_on,0,0,2,,,,,,,,1,,,75,0
67979,note_on,19,0,10,,,,,,,,7,,,68,0
67979,note_on,0,0,6,,,,,,,,5,,,63,0
67979,note_on,19,0,6,,,,,,,,5,,,75,0
67979,note_on,19,0,3,,,,,,,,2,,,72,0
67979,note_on,19,0,1,,,,,,,,0,,,87,0
67979,note_on,0,0,1,,,,,,,,0,,,84,0
67979,note_on,19,0,5,,,,,,,,4,,,63,0
67979,note_on,0,0,5,,,,,,,,4,,,51,0
67979,note_on,19,0,4,,,,,,,,3,,,56,0
67979,note_on,19,0,11,,,,,,,,7,,,56,0
67979,note_on,19,0,2,,,,,,,,1,,,84,0
67999,note_on,37,0,9,,,,,,,,7,,,75,0
67999,note_on,37,0,8,,,,,,,,7,,,87,0
67999,note_on,39,0,7,,,,,,,,6,,,51,0
68000,note_on,21,0,3,,,,,,,,2,,,72,127
68000,note_on,21,0,1,,,,,,,,0,,,84,127
68000,note_on,0,0,1,,,,,,,,0,,,87,127
68000,note_on,21,0,12,,,,,,,,7,,,32,127
68000,note_on,21,0,6,,,,,,,,5,,,63,127
68000,note_on,0,0,6,,,,,,,,5,,,75,127
68000,note_on,21,0,4,,,,,,,,3,,,44,127
68000,note_on,21,0,2,,,,,,,,1,,,75,127
68000,note_on,0,0,2,,,,,,,,1,,,84,127
68000,note_on,21,0,5,,,,,,,,4,,,51,127
68000,note_on,0,0,5,,,,,,,,4,,,63,127
68000,note_on,21,0,10,,,,,,,,7,,,56,127
68000,note_on,21,0,11,,,,,,,,7,,,44,126
68000,note_on,1,0,8,,,,,,,,7,,,84,127
68000,note_on,1,0,7,,,,,,,,6,,,51,127
68000,note_on,1,0,9,,,,,,,,7,,,72,127
68000,note_on,0,0,3,,,,,,,,2,,,75,127
68019,note_on,0,0,5,,,,,,,,4,,,51,0
68019,note_on,19,0,1,,,,,,,,0,,,87,0
68019,note_on,0,0,1,,,,,,,,0,,,84,0
68019,note_on,19,0,12,,,,,,,,7,,,32,0
68019,note_on,19,0,5,,,,,,,,4,,,63,0
68019,note_on,19,0,10,,,,,,,,7,,,56,0
68019,note_on,0,0,6,,,,,,,,5,,,63,0
68019,note_on,19,0,4,,,,,,,,3,,,44,0
68019,note_on,19,0,6,,,,,,,,5,,,75,0
68019,note_on,19,0,2,,,,,,,,1,,,84,0
68019,note_on,0,0,2,,,,,,,,1,,,75,0
68019,note_on,19,0,8,,,,,,,,7,,,84,0
68019,note_on,19,0,11,,,,,,,,7,,,44,0
68019,note_on,19,0,3,,,,,,,,2,,,75,0
68019,note_on,0,0,3,,,,,,,,2,,,72,0
68019,note_on,19,0,9,,,,,,,,7,,,72,0
68037,note_on,18,0,1,,,,,,,,0,,,87,127
68039,note_on,39,0,7,,,,,,,,6,,,51,0
68040,note_on,21,0,6,,,,,,,,5,,,75,127
68040,note_on,0,0,6,,,,,,,,5,,,63,127
68040,note_on,21,0,12,,,,,,,,7,,,43,127
68040,note_on,21,0,11,,,,,,,,7,,,55,126
68040,note_on,0,0,3,,,,,,,,2,,,75,127
68040,note_on,1,0,7,,,,,,,,6,,,51,127
68040,note_on,21,0,3,,,,,,,,2,,,70,127
68040,note_on,21,0,5,,,,,,,,4,,,51,127
68040,note_on,21,0,4,,,,,,,,3,,,55,127
68040,note_on,0,0,5,,,,,,,,4,,,63,127
68040,note_on,3,0,1,,,,,,,,0,,,82,127
68040,note_on,21,0,10,,,,,,,,7,,,67,127
68040,note_on,21,0,9,,,,,,,,7,,,75,127
68040,note_on,21,0,8,,,,,,,,7,,,87,127
68040,note_on,21,0,2,,,,,,,,1,,,82,127
68040,note_on,0,0,2,,,,,,,,1,,,75,127
68056,note_on,16,0,1,,,,,,,,0,,,87,0
68059,note_on,19,0,10,,,,,,,,7,,,67,0
68059,note_on,19,0,9,,,,,,,,7,,,75,0
68059,note_on,0,0,2,,,,,,,,1,,,82,0
68059,note_on,0,0,6,,,,,,,,5,,,75,0
68059,note_on,0,0,5,,,,,,,,4,,,51,0
68059,note_on,19,0,5,,,,,,,,4,,,63,0
68059,note_on,19,0,6,,,,,,,,5,,,63,0
68059,note_on,19,0,3,,,,,,,,2,,,75,0
68059,note_on,19,0,8,,,,,,,,7,,,87,0
68059,note_on,19,0,12,,,,,,,,7,,,43,0
68059,note_on,19,0,11,,,,,,,,7,,,55,0
68059,note_on,19,0,2,,,,,,,,1,,,75,0
68059,note_on,3,0,1,,,,,,,,0,,,82,0
68059,note_on,19,0,4,,,,,,,,3,,,55,0
68059,note_on,0,0,3,,,,,,,,2,,,70,0
68079,note_on,39,0,7,,,,,,,,6,,,51,0
68080,note_on,21,0,3,,,,,,,,2,,,75,127
68080,note_on,1,0,7,,,,,,,,6,,,51,127
68080,note_on,0,0,2,,,,,,,,1,,,75,127
68080,note_on,21,0,5,,,,,,,,4,,,51,127
68080,note_on,21,0,6,,,,,,,,5,,,75,127
68080,note_on,21,0,8,,,,,,,,7,,,82,127
68080,note_on,0,0,5,,,,,,,,4,,,63,127
68080,note_on,21,0,9,,,,,,,,7,,,70,127
68080,note_on,21,0,2,,,,,,,,1,,,82,127
68080,note_on,0,0,3,,,,,,,,2,,,70,127
68080,note_on,0,0,6,,,,,,,,5,,,63,127
68080,note_on,21,0,12,,,,,,,,7,,,31,127
68080,note_on,21,0,10,,,,,,,,7,,,55,127
68080,note_on,21,0,11,,,,,,,,7,,,43,126
68080,note_on,0,0,1,,,,,,,,0,,,87,127
68080,note_on,21,0,1,,,,,,,,0,,,82,127
68080,note_on,21,0,4,,,,,,,,3,,,43,127
68099,note_on,0,0,1,,,,,,,,0,,,82,0
68099,note_on,19,0,10,,,,,,,,7,,,55,0
68099,note_on,19,0,4,,,,,,,,3,,,43,0
68099,note_on,0,0,5,,,,,,,,4,,,51,0
68099,note_on,19,0,1,,,,,,,,0,,,87,0
68099,note_on,19,0,2,,,,,,,,1,,,75,0
68099,note_on,0,0,2,,,,,,,,1,,,82,0
68099,note_on,19,0,6,,,,,,,,5,,,63,0
68099,note_on,0,0,6,,,,,,,,5,,,75,0
68099,note_on,0,0,3,,,,,,,,2,,,75,0
68099,note_on,19,0,3,,,,,,,,2,,,70,0
68099,note_on,19,0,11,,,,,,,,7,,,43,0
68099,note_on,19,0,8,,,,,,,,7,,,82,0
68099,note_on,19,0,9,,,,,,,,7,,,70,0
68099,note_on,19,0,12,,,,,,,,7,,,31,0
68099,note_on,19,0,5,,,,,,,,4,,,63,0
68119,note_on,39,0,7,,,,,,,,6,,,51,0
68120,note_on,21,0,5,,,,,,,,4,,,51,127
68120,note_on,0,0,2,,,,,,,,1,,,75,127
68120,note_on,21,0,2,,,,,,,,1,,,82,127
68120,note_on,0,0,5,,,,,,,,4,,,63,127
68120,note_on,21,0,8,,,,,,,,7,,,87,127
68120,note_on,21,0,10,,,,,,,,7,,,67,127
68120,note_on,21,0,9,,,,,,,,7,,,75,127
68120,note_on,1,0,7,,,,,,,,6,,,51,127
68120,note_on,21,0,1,,,,,,,,0,,,82,127
68120,note_on,0,0,1,,,,,,,,0,,,87,127
68120,note_on,0,0,6,,,,,,,,5,,,63,127
68120,note_on,21,0,6,,,,,,,,5,,,75,127
68120,note_on,21,0,12,,,,,,,,7,,,43,127
68120,note_on,21,0,11,,,,,,,,7,,,55,126
68120,note_on,21,0,3,,,,,,,,2,,,70,127
68120,note_on,0,0,3,,,,,,,,2,,,75,127
68120,note_on,21,0,4,,,,,,,,3,,,55,127
68139,note_on,0,0,2,,,,,,,,1,,,82,0
68139,note_on,19,0,8,,,,,,,,7,,,87,0
68139,note_on,19,0,1,,,,,,,,0,,,87,0
68139,note_on,19,0,10,,,,,,,,7,,,67,0
68139,note_on,19,0,3,,,,,,,,2,,,75,0
68139,note_on,0,0,3,,,,,,,,2,,,70,0
68139,note_on,19,0,2,,,,,,,,1,,,75,0
68139,note_on,19,0,5,,,,,,,,4,,,63,0
68139,note_on,19,0,4,,,,,,,,3,,,55,0
68139,note_on,0,0,6,,,,,,,,5,,,75,0
68139,note_on,19,0,6,,,,,,,,5,,,63,0
68139,note_on,0,0,1,,,,,,,,0,,,82,0
68139,note_on,19,0,9,,,,,,,,7,,,75,0
68139,note_on,19,0,12,,,,,,,,7,,,43,0
68139,note_on,19,0,11,,,,,,,,7,,,55,0
68139,note_on,0,0,5,,,,,,,,4,,,51,0
68159,note_on,39,0,7,,,,,,,,6,,,51,0
68160,note_on,21,0,11,,,,,,,,7,,,44,126
68160,note_on,0,0,6,,,,,,,,5,,,63,127
68160,note_on,21,0,12,,,,,,,,7,,,32,127
68160,note_on,21,0,3,,,,,,,,2,,,75,127
68160,note_on,0,0,2,,,,,,,,1,,,80,127
68160,note_on,0,0,3,,,,,,,,2,,,68,127
68160,note_on,21,0,8,,,,,,,,7,,,80,127
68160,note_on,21,0,6,,,,,,,,5,,,75,127
68160,note_on,1,0,7,,,,,,,,6,,,51,127
68160,note_on,21,0,9,,,,,,,,7,,,68,127
68160,note_on,0,0,1,,,,,,,,0,,,84,127
68160,note_on,21,0,1,,,,,,,,0,,,87,127
68160,note_on,0,0,5,,,,,,,,4,,,65,127
68160,note_on,0,0,5,,,,,,,,4,,,51,127
68160,note_on,21,0,5,,,,,,,,4,,,63,127
68160,note_on,21,0,10,,,,,,,,7,,,56,127
68160,note_on,21,0,4,,,,,,,,3,,,44,127
68160,note_on,21,0,2,,,,,,,,1,,,72,127
68179,note_on,0,0,1,,,,,,,,0,,,87,0
68179,note_on,19,0,1,,,,,,,,0,,,84,0
68179,note_on,19,0,4,,,,,,,,3,,,44,0
68179,note_on,19,0,12,,,,,,,,7,,,32,0
68179,note_on,0,0,6,,,,,,,,5,,,75,0
68179,note_on,19,0,8,,,,,,,,7,,,80,0
68179,note_on,19,0,9,,,,,,,,7,,,68,0
68179,note_on,19,0,6,,,,,,,,5,,,63,0
68179,note_on,19,0,11,,,,,,,,7,,,44,0
68179,note_on,0,0,2,,,,,,,,1,,,72,0
68179,note_on,19,0,5,,,,,,,,4,,,65,0
68179,note_on,0,0,5,,,,,,,,4,,,51,0
68179,note_on,19,0,10,,,,,,,,7,,,56,0
68179,note_on,0,0,5,,,,,,,,4,,,63,0
68179,note_on,19,0,3,,,,,,,,2,,,68,0
68179,note_on,19,0,2,,,,,,,,1,,,80,0
68179,note_on,0,0,3,,,,,,,,2,,,75,0
68199,note_on,39,0,7,,,,,,,,6,,,51,0
68200,note_on,21,0,2,,,,,,,,1,,,72,127
68200,note_on,0,0,6,,,,,,,,5,,,63,127
68200,note_on,0,0,5,,,,,,,,4,,,51,127
68200,note_on,0,0,5,,,,,,,,4,,,65,127
68200,note_on,21,0,1,,,,,,,,0,,,87,127
68200,note_on,0,0,1,,,,,,,,0,,,84,127
68200,note_on,0,0,2,,,,,,,,1,,,80,127
68200,note_on,21,0,6,,,,,,,,5,,,75,127
68200,note_on,21,0,5,,,,,,,,4,,,63,127
68200,note_on,1,0,7,,,,,,,,6,,,51,127
68200,note_on,21,0,4,,,,,,,,3,,,53,127
68200,note_on,21,0,10,,,,,,,,7,,,65,127
68200,note_on,21,0,11,,,,,,,,7,,,53,126
68200,note_on,21,0,8,,,,,,,,7,,,87,127
68200,note_on,21,0,12,,,,,,,,7,,,41,127
68200,note_on,21,0,3,,,,,,,,2,,,68,127
68200,note_on,0,0,3,,,,,,,,2,,,75,127
68200,note_on,21,0,9,,,,,,,,7,,,75,127
68219,note_on,19,0,9,,,,,,,,7,,,75,0
68219,note_on,0,0,5,,,,,,,,4,,,51,0
68219,note_on,0,0,5,,,,,,,,4,,,63,0
68219,note_on,19,0,11,,,,,,,,7,,,53,0
68219,note_on,19,0,5,,,,,,,,4,,,65,0
68219,note_on,0,0,3,,,,,,,,2,,,68,0
68219,note_on,0,0,2,,,,,,,,1,,,72,0
68219,note_on,19,0,8,,,,,,,,7,,,87,0
68219,note_on,19,0,12,,,,,,,,7,,,41,0
68219,note_on,19,0,10,,,,,,,,7,,,65,0
68219,note_on,19,0,2,,,,,,,,1,,,80,0
68219,note_on,0,0,6,,,,,,,,5,,,75,0
68219,note_on,19,0,4,,,,,,,,3,,,53,0
68219,note_on,19,0,3,,,,,,,,2,,,75,0
68219,note_on,19,0,1,,,,,,,,0,,,84,0
68219,note_on,0,0,1,,,,,,,,0,,,87,0
68219,note_on,19,0,6,,,,,,,,5,,,63,0
68239,note_on,39,0,7,,,,,,,,6,,,51,0
68240,note_on,21,0,4,,,,,,,,3,,,44,127
68240,note_on,21,0,5,,,,,,,,4,,,63,127
68240,note_on,0,0,5,,,,,,,,4,,,51,127
68240,note_on,0,0,5,,,,,,,,4,,,65,127
68240,note_on,21,0,8,,,,,,,,7,,,80,127
68240,note_on,21,0,9,,,,,,,,7,,,68,127
68240,note_on,21,0,11,,,,,,,,7,,,44,126
68240,note_on,21,0,1,,,,,,,,0,,,87,127
68240,note_on,1,0,7,,,,,,,,6,,,51,127
68240,note_on,0,0,2,,,,,,,,1,,,80,127
68240,note_on,21,0,12,,,,,,,,7,,,32,127
68240,note_on,21,0,10,,,,,,,,7,,,56,127
68240,note_on,21,0,2,,,,,,,,1,,,72,127
68240,note_on,0,0,1,,,,,,,,0,,,84,127
68240,note_on,21,0,3,,,,,,,,2,,,68,127
68240,note_on,0,0,3,,,,,,,,2,,,75,127
68240,note_on,21,0,6,,,,,,,,5,,,75,127
68240,note_on,0,0,6,,,,,,,,5,,,63,127
68259,note_on,19,0,6,,,,,,,,5,,,63,0
68259,note_on,0,0,6,,,,,,,,5,,,75,0
68259,note_on,0,0,5,,,,,,,,4,,,63,0
68259,note_on,19,0,4,,,,,,,,3,,,44,0
68259,note_on,19,0,12,,,,,,,,7,,,32,0
68259,note_on,19,0,8,,,,,,,,7,,,80,0
68259,note_on,19,0,11,,,,,,,,7,,,44,0
68259,note_on,19,0,2,,,,,,,,1,,,80,0
68259,note_on,19,0,3,,,,,,,,2,,,75,0
68259,note_on,19,0,5,,,,,,,,4,,,65,0
68259,note_on,0,0,5,,,,,,,,4,,,51,0
68259,note_on,0,0,3,,,,,,,,2,,,68,0
68259,note_on,19,0,10,,,,,,,,7,,,56,0
68259,note_on,19,0,1,,,,,,,,0,,,84,0
68259,note_on,0,0,1,,,,,,,,0,,,87,0
68259,note_on,19,0,9,,,,,,,,7,,,68,0
68259,note_on,0,0,2,,,,,,,,1,,,72,0
68279,note_on,39,0,7,,,,,,,,6,,,51,0
68280,note_on,21,0,2,,,,,,,,1,,,70,127
68280,note_on,0,0,2,,,,,,,,1,,,79,127
68280,note_on,21,0,10,,,,,,,,7,,,67,127
68280,note_on,21,0,8,,,,,,,,7,,,87,127
68280,note_on,21,0,12,,,,,,,,7,,,34,127
68280,note_on,0,0,6,,,,,,,,5,,,63,127
68280,note_on,0,0,3,,,,,,,,2,,,75,127
68280,note_on,1,0,7,,,,,,,,6,,,46,127
68280,note_on,21,0,6,,,,,,,,5,,,75,127
68280,note_on,21,0,4,,,,,,,,3,,,46,127
68280,note_on,21,0,11,,,,,,,,7,,,46,126
68280,note_on,21,0,5,,,,,,,,4,,,63,127
68280,note_on,0,0,1,,,,,,,,0,,,87,127
68280,note_on,21,0,1,,,,,,,,0,,,82,127
68280,note_on,0,0,5,,,,,,,,4,,,51,127
68280,note_on,0,0,5,,,,,,,,4,,,67,127
68280,note_on,21,0,9,,,,,,,,7,,,75,127
68280,note_on,21,0,3,,,,,,,,2,,,67,127
68299,note_on,19,0,7,,,,,,,,6,,,46,0
68299,note_on,19,0,11,,,,,,,,7,,,46,0
68299,note_on,19,0,5,,,,,,,,4,,,67,0
68299,note_on,19,0,2,,,,,,,,1,,,79,0
68299,note_on,19,0,8,,,,,,,,7,,,87,0
68299,note_on,19,0,10,,,,,,,,7,,,67,0
68299,note_on,19,0,9,,,,,,,,7,,,75,0
68299,note_on,19,0,12,,,,,,,,7,,,34,0
68299,note_on,0,0,5,,,,,,,,4,,,51,0
68299,note_on,19,0,1,,,,,,,,0,,,87,0
68299,note_on,0,0,1,,,,,,,,0,,,82,0
68299,note_on,19,0,4,,,,,,,,3,,,46,0
68299,note_on,0,0,2,,,,,,,,1,,,70,0
68299,note_on,19,0,6,,,,,,,,5,,,63,0
68299,note_on,0,0,6,,,,,,,,5,,,75,0
68299,note_on,0,0,3,,,,,,,,2,,,67,0
68299,note_on,19,0,3,,,,,,,,2,,,75,0
68299,note_on,0,0,5,,,,,,,,4,,,63,0
68300,note_on,1,0,7,,,,,,,,6,,,46,127
68319,note_on,19,0,7,,,,,,,,6,,,46,0
68320,note_on,1,0,7,,,,,,,,6,,,46,127
68320,note_on,21,0,4,,,,,,,,3,,,55,127
68320,note_on,21,0,12,,,,,,,,7,,,43,127
68320,note_on,21,0,6,,,,,,,,5,,,75,127
68320,note_on,0,0,6,,,,,,,,5,,,63,127
68320,note_on,21,0,10,,,,,,,,7,,,58,127
68320,note_on,21,0,8,,,,,,,,7,,,79,127
68320,note_on,0,0,5,,,,,,,,4,,,51,127
68320,note_on,21,0,1,,,,,,,,0,,,82,127
68320,note_on,21,0,9,,,,,,,,7,,,67,127
68320,note_on,21,0,5,,,,,,,,4,,,63,127
68320,note_on,0,0,3,,,,,,,,2,,,75,127
68320,note_on,21,0,3,,,,,,,,2,,,67,127
68320,note_on,0,0,2,,,,,,,,1,,,79,127
68320,note_on,21,0,2,,,,,,,,1,,,75,127
68320,note_on,21,0,11,,,,,,,,7,,,55,126
68320,note_on,0,0,1,,,,,,,,0,,,87,127
68320,note_on,0,0,5,,,,,,,,4,,,67,127
68339,note_on,19,0,12,,,,,,,,7,,,43,0
68339,note_on,19,0,10,,,,,,,,7,,,58,0
68339,note_on,0,0,5,,,,,,,,4,,,51,0
68339,note_on,0,0,1,,,,,,,,0,,,82,0
68339,note_on,19,0,1,,,,,,,,0,,,87,0
68339,note_on,19,0,8,,,,,,,,7,,,79,0
68339,note_on,0,0,2,,,,,,,,1,,,75,0
68339,note_on,19,0,2,,,,,,,,1,,,79,0
68339,note_on,19,0,5,,,,,,,,4,,,67,0
68339,note_on,0,0,6,,,,,,,,5,,,75,0
68339,note_on,19,0,9,,,,,,,,7,,,67,0
68339,note_on,19,0,11,,,,,,,,7,,,55,0
68339,note_on,0,0,5,,,,,,,,4,,,63,0
68339,note_on,19,0,7,,,,,,,,6,,,46,0
68339,note_on,19,0,3,,,,,,,,2,,,75,0
68339,note_on,0,0,3,,,,,,,,2,,,67,0
68339,note_on,19,0,4,,,,,,,,3,,,55,0
68339,note_on,19,0,6,,,,,,,,5,,,63,0
68340,note_on,1,0,7,,,,,,,,6,,,46,127
68359,note_on,19,0,7,,,,,,,,6,,,46,0
68360,note_on,21,0,5,,,,,,,,4,,,63,127
68360,note_on,0,0,6,,,,,,,,5,,,63,127
68360,note_on,21,0,8,,,,,,,,7,,,87,127
68360,note_on,21,0,10,,,,,,,,7,,,67,127
68360,note_on,21,0,6,,,,,,,,5,,,75,127
68360,note_on,0,0,3,,,,,,,,2,,,75,127
68360,note_on,21,0,3,,,,,,,,2,,,67,127
68360,note_on,21,0,4,,,,,,,,3,,,46,127
68360,note_on,1,0,7,,,,,,,,6,,,46,127
68360,note_on,21,0,11,,,,,,,,7,,,46,126
68360,note_on,0,0,5,,,,,,,,4,,,67,127
68360,note_on,0,0,5,,,,,,,,4,,,51,127
68360,note_on,21,0,9,,,,,,,,7,,,75,127
68360,note_on,21,0,2,,,,,,,,1,,,75,127
68360,note_on,0,0,2,,,,,,,,1,,,79,127
68360,note_on,21,0,12,,,,,,,,7,,,34,127
68360,note_on,21,0,1,,,,,,,,0,,,82,127
68360,note_on,0,0,1,,,,,,,,0,,,87,127
68379,note_on,19,0,8,,,,,,,,7,,,87,0
68379,note_on,19,0,12,,,,,,,,7,,,34,0
68379,note_on,19,0,4,,,,,,,,3,,,46,0
68379,note_on,19,0,9,,,,,,,,7,,,75,0
68379,note_on,0,0,3,,,,,,,,2,,,67,0
68379,note_on,0,0,5,,,,,,,,4,,,63,0
68379,note_on,19,0,6,,,,,,,,5,,,63,0
68379,note_on,0,0,5,,,,,,,,4,,,51,0
68379,note_on,19,0,7,,,,,,,,6,,,46,0
68379,note_on,19,0,5,,,,,,,,4,,,67,0
68379,note_on,19,0,11,,,,,,,,7,,,46,0
68379,note_on,19,0,2,,,,,,,,1,,,79,0
68379,note_on,19,0,1,,,,,,,,0,,,87,0
68379,note_on,0,0,1,,,,,,,,0,,,82,0
68379,note_on,19,0,3,,,,,,,,2,,,75,0
68379,note_on,0,0,2,,,,,,,,1,,,75,0
68379,note_on,0,0,6,,,,,,,,5,,,75,0
68379,note_on,19,0,10,,,,,,,,7,,,67,0
68380,note_on,1,0,7,,,,,,,,6,,,46,127
68399,note_on,19,0,7,,,,,,,,6,,,46,0
68400,note_on,0,0,2,,,,,,,,1,,,77,127
68400,note_on,21,0,2,,,,,,,,1,,,80,127
68400,note_on,21,0,9,,,,,,,,7,,,65,127
68400,note_on,21,0,11,,,,,,,,7,,,58,126
68400,note_on,21,0,10,,,,,,,,7,,,58,127
68400,note_on,0,0,6,,,,,,,,5,,,70,127
68400,note_on,21,0,6,,,,,,,,5,,,58,127
68400,note_on,21,0,12,,,,,,,,7,,,46,127
68400,note_on,21,0,4,,,,,,,,3,,,58,127
68400,note_on,0,0,3,,,,,,,,2,,,74,127
68400,note_on,21,0,3,,,,,,,,2,,,68,127
68400,note_on,1,0,7,,,,,,,,6,,,46,127
68400,note_on,21,0,5,,,,,,,,4,,,65,127
68400,note_on,21,0,8,,,,,,,,7,,,77,127
68400,note_on,0,0,5,,,,,,,,4,,,68,127
68400,note_on,0,0,1,,,,,,,,0,,,86,127
68400,note_on,21,0,1,,,,,,,,0,,,82,127
68400,note_on,0,0,5,,,,,,,,4,,,58,127
68419,note_on,0,0,3,,,,,,,,2,,,68,0
68419,note_on,19,0,3,,,,,,,,2,,,74,0
68419,note_on,19,0,5,,,,,,,,4,,,68,0
68419,note_on,0,0,5,,,,,,,,4,,,58,0
68419,note_on,0,0,5,,,,,,,,4,,,65,0
68419,note_on,19,0,8,,,,,,,,7,,,77,0
68419,note_on,19,0,4,,,,,,,,3,,,58,0
68419,note_on,19,0,7,,,,,,,,6,,,46,0
68419,note_on,19,0,12,,,,,,,,7,,,46,0
68419,note_on,0,0,1,,,,,,,,0,,,82,0
68419,note_on,19,0,11,,,,,,,,7,,,58,0
68419,note_on,19,0,1,,,,,,,,0,,,86,0
68419,note_on,19,0,9,,,,,,,,7,,,65,0
68419,note_on,19,0,2,,,,,,,,1,,,77,0
68419,note_on,0,0,2,,,,,,,,1,,,80,0
68419,note_on,19,0,10,,,,,,,,7,,,58,0
68420,note_on,1,0,7,,,,,,,,6,,,46,127
68439,note_on,19,0,7,,,,,,,,6,,,46,0
68439,note_on,0,0,6,,,,,,,,5,,,58,0
68439,note_on,39,0,6,,,,,,,,5,,,70,0
68440,note_on,0,0,3,,,,,,,,2,,,74,127
68440,note_on,0,0,6,,,,,,,,5,,,70,127
68440,note_on,21,0,11,,,,,,,,7,,,46,126
68440,note_on,1,0,6,,,,,,,,5,,,58,127
68440,note_on,21,0,1,,,,,,,,0,,,82,127
68440,note_on,0,0,1,,,,,,,,0,,,86,127
68440,note_on,21,0,2,,,,,,,,1,,,77,127
68440,note_on,0,0,2,,,,,,,,1,,,80,127
68440,note_on,21,0,4,,,,,,,,3,,,46,127
68440,note_on,21,0,3,,,,,,,,2,,,68,127
68440,note_on,0,0,5,,,,,,,,4,,,68,127
68440,note_on,0,0,5,,,,,,,,4,,,58,127
68440,note_on,21,0,5,,,,,,,,4,,,65,127
68440,note_on,21,0,8,,,,,,,,7,,,86,127
68440,note_on,1,0,7,,,,,,,,6,,,46,127
68440,note_on,21,0,10,,,,,,,,7,,,70,127
68440,note_on,21,0,12,,,,,,,,7,,,34,127
68440,note_on,21,0,9,,,,,,,,7,,,74,127
68459,note_on,0,0,2,,,,,,,,1,,,77,0
68459,note_on,19,0,2,,,,,,,,1,,,80,0
68459,note_on,19,0,7,,,,,,,,6,,,46,0
68459,note_on,19,0,11,,,,,,,,7,,,46,0
68459,note_on,19,0,10,,,,,,,,7,,,70,0
68459,note_on,19,0,4,,,,,,,,3,,,46,0
68459,note_on,19,0,12,,,,,,,,7,,,34,0
68459,note_on,0,0,5,,,,,,,,4,,,58,0
68459,note_on,19,0,8,,,,,,,,7,,,86,0
68459,note_on,19,0,3,,,,,,,,2,,,74,0
68459,note_on,0,0,3,,,,,,,,2,,,68,0
68459,note_on,19,0,1,,,,,,,,0,,,86,0
68459,note_on,0,0,1,,,,,,,,0,,,82,0
68459,note_on,0,0,5,,,,,,,,4,,,65,0
68459,note_on,19,0,9,,,,,,,,7,,,74,0
68459,note_on,19,0,5,,,,,,,,4,,,68,0
68460,note_on,1,0,7,,,,,,,,6,,,46,127
68479,note_on,19,0,7,,,,,,,,6,,,46,0
68479,note_on,39,0,6,,,,,,,,5,,,70,0
68479,note_on,0,0,6,,,,,,,,5,,,58,0
68480,note_on,1,0,7,,,,,,,,6,,,46,127
68480,note_on,21,0,1,,,,,,,,0,,,82,127
68480,note_on,0,0,6,,,,,,,,5,,,70,127
68480,note_on,0,0,1,,,,,,,,0,,,86,127
68480,note_on,21,0,11,,,,,,,,7,,,58,126
68480,note_on,1,0,6,,,,,,,,5,,,58,127
68480,note_on,21,0,10,,,,,,,,7,,,58,127
68480,note_on,21,0,9,,,,,,,,7,,,65,127
68480,note_on,0,0,3,,,,,,,,2,,,74,127
68480,note_on,21,0,3,,,,,,,,2,,,68,127
68480,note_on,21,0,8,,,,,,,,7,,,77,127
68480,note_on,0,0,5,,,,,,,,4,,,68,127
68480,note_on,0,0,5,,,,,,,,4,,,58,127
68480,note_on,21,0,4,,,,,,,,3,,,58,127
68480,note_on,21,0,12,,,,,,,,7,,,46,127
68480,note_on,21,0,2,,,,,,,,1,,,77,127
68480,note_on,0,0,2,,,,,,,,1,,,80,127
68480,note_on,21,0,5,,,,,,,,4,,,65,127
68499,note_on,19,0,5,,,,,,,,4,,,68,0
68499,note_on,0,0,1,,,,,,,,0,,,82,0
68499,note_on,19,0,1,,,,,,,,0,,,86,0
68499,note_on,19,0,8,,,,,,,,7,,,77,0
68499,note_on,0,0,5,,,,,,,,4,,,65,0
68499,note_on,19,0,10,,,,,,,,7,,,58,0
68499,note_on,0,0,3,,,,,,,,2,,,68,0
68499,note_on,0,0,5,,,,,,,,4,,,58,0
68499,note_on,0,0,2,,,,,,,,1,,,77,0
68499,note_on,19,0,9,,,,,,,,7,,,65,0
68499,note_on,19,0,2,,,,,,,,1,,,80,0
68499,note_on,19,0,4,,,,,,,,3,,,58,0
68499,note_on,19,0,7,,,,,,,,6,,,46,0
68499,note_on,19,0,3,,,,,,,,2,,,74,0
68499,note_on,19,0,12,,,,,,,,7,,,46,0
68499,note_on,19,0,11,,,,,,,,7,,,58,0
68500,note_on,1,0,7,,,,,,,,6,,,46,127
68519,note_on,19,0,7,,,,,,,,6,,,46,0
68519,note_on,0,0,6,,,,,,,,5,,,58,0
68519,note_on,39,0,6,,,,,,,,5,,,70,0
68520,note_on,21,0,5,,,,,,,,4,,,63,127
68520,note_on,0,0,3,,,,,,,,2,,,67,127
68520,note_on,21,0,3,,,,,,,,2,,,75,127
68520,note_on,21,0,1,,,,,,,,0,,,82,127
68520,note_on,0,0,1,,,,,,,,0,,,87,127
68520,note_on,21,0,11,,,,,,,,7,,,51,126
68520,note_on,21,0,4,,,,,,,,3,,,51,127
68520,note_on,21,0,12,,,,,,,,7,,,39,127
68520,note_on,0,0,5,,,,,,,,4,,,58,127
68520,note_on,0,0,8,,,,,,,,7,,,79,127
68520,note_on,0,0,2,,,,,,,,1,,,79,127
68520,note_on,1,0,7,,,,,,,,6,,,51,127
68520,note_on,21,0,8,,,,,,,,7,,,87,127
68520,note_on,21,0,2,,,,,,,,1,,,75,127
68520,note_on,0,0,6,,,,,,,,5,,,63,127
68520,note_on,1,0,6,,,,,,,,5,,,75,127
68520,note_on,21,0,10,,,,,,,,7,,,63,127
68520,note_on,0,0,9,,,,,,,,7,,,67,127
68520,note_on,0,0,5,,,,,,,,4,,,67,127
68520,note_on,21,0,9,,,,,,,,7,,,75,127
68539,note_on,19,0,5,,,,,,,,4,,,67,0
68539,note_on,19,0,11,,,,,,,,7,,,51,0
68539,note_on,19,0,12,,,,,,,,7,,,39,0
68539,note_on,0,0,6,,,,,,,,5,,,75,0
68539,note_on,19,0,6,,,,,,,,5,,,63,0
68539,note_on,19,0,10,,,,,,,,7,,,63,0
68539,note_on,0,0,3,,,,,,,,2,,,75,0
68539,note_on,19,0,9,,,,,,,,7,,,67,0
68539,note_on,0,0,9,,,,,,,,7,,,75,0
68539,note_on,0,0,8,,,,,,,,7,,,87,0
68539,note_on,19,0,8,,,,,,,,7,,,79,0
68539,note_on,19,0,2,,,,,,,,1,,,79,0
68539,note_on,0,0,2,,,,,,,,1,,,75,0
68539,note_on,0,0,1,,,,,,,,0,,,82,0
68539,note_on,19,0,4,,,,,,,,3,,,51,0
68539,note_on,0,0,5,,,,,,,,4,,,63,0
68539,note_on,0,0,5,,,,,,,,4,,,58,0
68539,note_on,19,0,3,,,,,,,,2,,,67,0
68539,note_on,19,0,1,,,,,,,,0,,,87,0
68559,note_on,39,0,7,,,,,,,,6,,,51,0
68560,note_on,21,0,12,,,,,,,,7,,,55,127
68560,note_on,21,0,8,,,,,,,,7,,,79,127
68560,note_on,21,0,9,,,,,,,,7,,,79,127
68560,note_on,21,0,10,,,,,,,,7,,,67,127
68560,note_on,21,0,11,,,,,,,,7,,,67,126
68599,note_on,39,0,12,,,,,,,,7,,,55,0
68599,note_on,39,0,10,,,,,,,,7,,,67,0
68599,note_on,39,0,8,,,,,,,,7,,,79,0
68599,note_on,39,0,11,,,,,,,,7,,,67,0
68599,note_on,39,0,9,,,,,,,,7,,,79,0
68640,note_on,41,0,9,,,,,,,,7,,,75,127
68640,note_on,41,0,11,,,,,,,,7,,,63,126
68640,note_on,41,0,12,,,,,,,,7,,,51,127
68640,note_on,41,0,8,,,,,,,,7,,,75,127
68640,note_on,41,0,10,,,,,,,,7,,,63,127
68659,note_on,19,0,11,,,,,,,,7,,,63,0
68659,note_on,19,0,8,,,,,,,,7,,,75,0
68659,note_on,19,0,12,,,,,,,,7,,,51,0
68659,note_on,19,0,9,,,,,,,,7,,,75,0
68659,note_on,19,0,10,,,,,,,,7,,,63,0
68680,note_on,21,0,11,,,,,,,,7,,,58,126
68680,note_on,21,0,12,,,,,,,,7,,,46,127
68680,note_on,21,0,8,,,,,,,,7,,,70,127
68680,note_on,21,0,9,,,,,,,,7,,,70,127
68680,note_on,21,0,10,,,,,,,,7,,,58,127
68719,note_on,39,0,12,,,,,,,,7,,,46,0
68719,note_on,39,0,9,,,,,,,,7,,,70,0
68719,note_on,39,0,11,,,,,,,,7,,,58,0
68719,note_on,39,0,8,,,,,,,,7,,,70,0
68719,note_on,39,0,10,,,,,,,,7,,,58,0
68760,note_on,41,0,10,,,,,,,,7,,,55,127
68760,note_on,41,0,11,,,,,,,,7,,,55,126
68760,note_on,41,0,9,,,,,,,,7,,,67,127
68760,note_on,41,0,8,,,,,,,,7,,,67,127
68760,note_on,41,0,12,,,,,,,,7,,,43,127
68779,note_on,19,0,12,,,,,,,,7,,,43,0
68779,note_on,19,0,10,,,,,,,,7,,,55,0
68779,note_on,19,0,9,,,,,,,,7,,,67,0
68779,note_on,19,0,11,,,,,,,,7,,,55,0
68779,note_on,19,0,8,,,,,,,,7,,,67,0
68800,note_on,21,0,12,,,,,,,,7,,,39,127
68800,note_on,21,0,8,,,,,,,,7,,,63,127
68800,note_on,21,0,10,,,,,,,,7,,,51,127
68800,note_on,21,0,11,,,,,,,,7,,,51,126
68820,note_on,41,0,9,,,,,,,,7,,,63,127
68839,note_on,39,0,11,,,,,,,,7,,,51,0
68839,note_on,39,0,10,,,,,,,,7,,,51,0
68839,note_on,39,0,12,,,,,,,,7,,,39,0
68839,note_on,39,0,8,,,,,,,,7,,,63,0
68859,note_on,39,0,9,,,,,,,,7,,,63,0
68880,note_on,21,0,9,,,,,,,,7,,,58,127
68880,note_on,41,0,10,,,,,,,,7,,,58,127
68880,note_on,41,0,8,,,,,,,,7,,,58,127
68880,note_on,41,0,12,,,,,,,,7,,,34,127
68880,note_on,41,0,11,,,,,,,,7,,,46,126
68899,note_on,19,0,11,,,,,,,,7,,,46,0
68899,note_on,19,0,10,,,,,,,,7,,,58,0
68899,note_on,19,0,9,,,,,,,,7,,,58,0
68919,note_on,39,0,12,,,,,,,,7,,,34,0
68919,note_on,39,0,8,,,,,,,,7,,,58,0
68960,note_on,41,0,12,,,,,,,,7,,,34,127
68960,note_on,61,0,9,,,,,,,,7,,,58,127
68960,note_on,61,0,10,,,,,,,,7,,,58,127
68960,note_on,41,0,8,,,,,,,,7,,,58,127
68960,note_on,61,0,11,,,,,,,,7,,,46,126
68970,note_on,0,0,10,,,,,,,,7,,,56,127
68970,note_on,0,0,8,,,,,,,,7,,,56,127
68970,note_on,10,0,12,,,,,,,,7,,,34,0
68970,note_on,0,0,9,,,,,,,,7,,,56,127
68970,note_on,10,0,9,,,,,,,,7,,,58,0
68970,note_on,10,0,8,,,,,,,,7,,,58,0
68970,note_on,10,0,11,,,,,,,,7,,,46,0
68970,note_on,0,0,12,,,,,,,,7,,,32,127
68970,note_on,10,0,10,,,,,,,,7,,,58,0
68970,note_on,0,0,11,,,,,,,,7,,,44,126
68980,note_on,0,0,12,,,,,,,,7,,,34,127
68980,note_on,0,0,11,,,,,,,,7,,,46,126
68980,note_on,10,0,12,,,,,,,,7,,,32,0
68980,note_on,0,0,8,,,,,,,,7,,,58,127
68980,note_on,10,0,10,,,,,,,,7,,,56,0
68980,note_on,0,0,10,,,,,,,,7,,,58,127
68980,note_on,10,0,9,,,,,,,,7,,,56,0
68980,note_on,0,0,9,,,,,,,,7,,,58,127
68980,note_on,10,0,11,,,,,,,,7,,,44,0
68980,note_on,10,0,8,,,,,,,,7,,,56,0
68985,note_on,5,0,11,,,,,,,,7,,,44,126
68990,note_on,5,0,11,,,,,,,,7,,,46,0
68990,note_on,0,0,9,,,,,,,,7,,,56,127
68990,note_on,10,0,12,,,,,,,,7,,,34,0
68990,note_on,0,0,12,,,,,,,,7,,,32,127
68990,note_on,10,0,10,,,,,,,,7,,,58,0
68990,note_on,0,0,10,,,,,,,,7,,,56,127
68990,note_on,10,0,9,,,,,,,,7,,,58,0
68990,note_on,10,0,8,,,,,,,,7,,,58,0
68990,note_on,0,0,8,,,,,,,,7,,,56,127
68995,note_on,5,0,11,,,,,,,,7,,,44,0
69000,note_on,10,0,9,,,,,,,,7,,,56,0
69000,note_on,10,0,8,,,,,,,,7,,,56,0
69000,note_on,0,0,8,,,,,,,,7,,,55,127
69000,note_on,0,0,9,,,,,,,,7,,,55,127
69000,note_on,10,0,12,,,,,,,,7,,,32,0
69000,note_on,5,0,11,,,,,,,,7,,,43,126
69000,note_on,0,0,12,,,,,,,,7,,,31,127
69000,note_on,10,0,10,,,,,,,,7,,,56,0
69000,note_on,0,0,10,,,,,,,,7,,,55,127
69039,note_on,39,0,11,,,,,,,,7,,,43,0
69039,note_on,39,0,9,,,,,,,,7,,,55,0
69039,note_on,39,0,10,,,,,,,,7,,,55,0
69039,note_on,39,0,8,,,,,,,,7,,,55,0
69039,note_on,39,0,12,,,,,,,,7,,,31,0
69040,note_on,501,0,4,,,,,,,,3,,,58,48
69040,note_on,0,0,2,,,,,,,,1,,,70,49
69040,note_on,501,0,2,,,,,,,,1,,,75,49
69040,note_on,0,0,3,,,,,,,,2,,,67,48
69040,note_on,501,0,3,,,,,,,,2,,,75,48
69040,note_on,0,0,4,,,,,,,,3,,,55,48
69040,note_on,501,0,5,,,,,,,,4,,,63,48
69079,note_on,0,0,3,,,,,,,,2,,,75,0
69079,note_on,39,0,5,,,,,,,,4,,,63,0
69079,note_on,0,0,2,,,,,,,,1,,,75,0
69079,note_on,39,0,2,,,,,,,,1,,,70,0
69079,note_on,39,0,4,,,,,,,,3,,,55,0
69079,note_on,39,0,3,,,,,,,,2,,,67,0
69079,note_on,0,0,4,,,,,,,,3,,,58,0
69080,note_on,1,0,5,,,,,,,,4,,,63,48
69080,note_on,1,0,2,,,,,,,,1,,,70,49
69080,note_on,0,0,4,,,,,,,,3,,,55,48
69080,note_on,1,0,4,,,,,,,,3,,,58,48
69080,note_on,0,0,2,,,,,,,,1,,,75,49
69080,note_on,1,0,3,,,,,,,,2,,,75,48
69080,note_on,0,0,3,,,,,,,,2,,,67,48
69119,note_on,0,0,4,,,,,,,,3,,,58,0
69119,note_on,0,0,3,,,,,,,,2,,,75,0
69119,note_on,0,0,2,,,,,,,,1,,,70,0
69119,note_on,39,0,3,,,,,,,,2,,,67,0
69119,note_on,39,0,5,,,,,,,,4,,,63,0
69119,note_on,39,0,4,,,,,,,,3,,,55,0
69119,note_on,39,0,2,,,,,,,,1,,,75,0
69120,note_on,0,0,2,,,,,,,,1,,,75,49
69120,note_on,1,0,5,,,,,,,,4,,,63,48
69120,note_on,1,0,2,,,,,,,,1,,,77,49
69120,note_on,1,0,3,,,,,,,,2,,,65,48
69120,note_on,0,0,3,,,,,,,,2,,,75,48
69120,note_on,1,0,4,,,,,,,,3,,,60,48
69120,note_on,0,0,4,,,,,,,,3,,,56,48
69159,note_on,39,0,5,,,,,,,,4,,,63,0
69159,note_on,0,0,4,,,,,,,,3,,,60,0
69159,note_on,39,0,4,,,,,,,,3,,,56,0
69159,note_on,0,0,2,,,,,,,,1,,,77,0
69159,note_on,39,0,2,,,,,,,,1,,,75,0
69159,note_on,0,0,3,,,,,,,,2,,,65,0
69159,note_on,39,0,3,,,,,,,,2,,,75,0
69160,note_on,0,0,2,,,,,,,,1,,,75,49
69160,note_on,1,0,2,,,,,,,,1,,,77,49
69160,note_on,1,0,5,,,,,,,,4,,,63,48
69160,note_on,0,0,1,,,,,,,,0,,,84,48
69160,note_on,621,0,1,,,,,,,,0,,,87,48
69160,note_on,1,0,4,,,,,,,,3,,,60,48
69160,note_on,0,0,4,,,,,,,,3,,,56,48
69160,note_on,1,0,3,,,,,,,,2,,,65,48
69160,note_on,0,0,3,,,,,,,,2,,,75,48
69199,note_on,39,0,2,,,,,,,,1,,,75,0
69199,note_on,39,0,4,,,,,,,,3,,,56,0
69199,note_on,39,0,1,,,,,,,,0,,,84,0
69199,note_on,0,0,1,,,,,,,,0,,,87,0
69199,note_on,0,0,3,,,,,,,,2,,,65,0
69199,note_on,0,0,4,,,,,,,,3,,,60,0
69199,note_on,0,0,2,,,,,,,,1,,,77,0
69199,note_on,39,0,5,,,,,,,,4,,,63,0
69199,note_on,39,0,3,,,,,,,,2,,,75,0
69200,note_on,1,0,2,,,,,,,,1,,,78,49
69200,note_on,0,0,2,,,,,,,,1,,,75,49
69200,note_on,1,0,5,,,,,,,,4,,,63,48
69200,note_on,1,0,3,,,,,,,,2,,,66,48
69200,note_on,0,0,4,,,,,,,,3,,,57,48
69200,note_on,1,0,4,,,,,,,,3,,,60,48
69200,note_on,0,0,1,,,,,,,,0,,,84,54
69200,note_on,1,0,1,,,,,,,,0,,,87,54
69200,note_on,0,0,3,,,,,,,,2,,,75,48
69239,note_on,0,0,2,,,,,,,,1,,,78,0
69239,note_on,39,0,3,,,,,,,,2,,,75,0
69239,note_on,0,0,4,,,,,,,,3,,,60,0
69239,note_on,39,0,2,,,,,,,,1,,,75,0
69239,note_on,39,0,4,,,,,,,,3,,,57,0
69239,note_on,0,0,3,,,,,,,,2,,,66,0
69239,note_on,39,0,5,,,,,,,,4,,,63,0
69239,note_on,39,0,1,,,,,,,,0,,,84,0
69239,note_on,0,0,1,,,,,,,,0,,,87,0
69240,note_on,1,0,5,,,,,,,,4,,,63,47
69240,note_on,0,0,3,,,,,,,,2,,,75,47
69240,note_on,1,0,3,,,,,,,,2,,,67,47
69240,note_on,1,0,2,,,,,,,,1,,,79,48
69240,note_on,0,0,2,,,,,,,,1,,,75,48
69240,note_on,1,0,1,,,,,,,,0,,,82,60
69240,note_on,0,0,1,,,,,,,,0,,,87,60
69240,note_on,1,0,4,,,,,,,,3,,,58,50
69279,note_on,39,0,5,,,,,,,,4,,,63,0
69279,note_on,39,0,1,,,,,,,,0,,,87,0
69279,note_on,39,0,3,,,,,,,,2,,,75,0
69279,note_on,0,0,1,,,,,,,,0,,,82,0
69279,note_on,0,0,3,,,,,,,,2,,,67,0
69279,note_on,0,0,2,,,,,,,,1,,,79,0
69279,note_on,39,0,2,,,,,,,,1,,,75,0
69279,note_on,39,0,4,,,,,,,,3,,,58,0
69280,note_on,0,0,2,,,,,,,,1,,,75,56
69280,note_on,0,0,1,,,,,,,,0,,,87,67
69280,note_on,1,0,1,,,,,,,,0,,,82,67
69280,note_on,1,0,2,,,,,,,,1,,,79,56
69280,note_on,0,0,5,,,,,,,,4,,,63,61
69280,note_on,241,0,11,,,,,,,,7,,,46,47
69280,note_on,241,0,10,,,,,,,,7,,,58,33
69280,note_on,241,0,8,,,,,,,,7,,,67,43
69280,note_on,1,0,5,,,,,,,,4,,,67,61
69280,note_on,1,0,4,,,,,,,,3,,,58,63
69280,note_on,241,0,9,,,,,,,,7,,,63,55
69280,note_on,0,0,3,,,,,,,,2,,,75,60
69280,note_on,1,0,3,,,,,,,,2,,,67,60
69280,note_on,241,0,12,,,,,,,,7,,,34,34
69319,note_on,39,0,5,,,,,,,,4,,,63,0
69319,note_on,39,0,12,,,,,,,,7,,,34,0
69319,note_on,39,0,3,,,,,,,,2,,,75,0
69319,note_on,39,0,8,,,,,,,,7,,,67,0
69319,note_on,39,0,11,,,,,,,,7,,,46,0
69319,note_on,0,0,3,,,,,,,,2,,,67,0
69319,note_on,0,0,5,,,,,,,,4,,,67,0
69319,note_on,39,0,4,,,,,,,,3,,,58,0
69319,note_on,0,0,2,,,,,,,,1,,,79,0
69319,note_on,39,0,2,,,,,,,,1,,,75,0
69319,note_on,0,0,1,,,,,,,,0,,,82,0
69319,note_on,39,0,1,,,,,,,,0,,,87,0
69319,note_on,39,0,10,,,,,,,,7,,,58,0
69319,note_on,39,0,9,,,,,,,,7,,,63,0
69320,note_on,1,0,12,,,,,,,,7,,,34,46
69320,note_on,1,0,9,,,,,,,,7,,,63,63
69320,note_on,1,0,11,,,,,,,,7,,,46,47
69320,note_on,0,0,2,,,,,,,,1,,,75,63
69320,note_on,1,0,2,,,,,,,,1,,,79,63
69320,note_on,1,0,8,,,,,,,,7,,,67,50
69320,note_on,1,0,10,,,,,,,,7,,,58,45
69320,note_on,0,0,3,,,,,,,,2,,,75,73
69320,note_on,0,0,5,,,,,,,,4,,,67,74
69320,note_on,1,0,4,,,,,,,,3,,,58,76
69320,note_on,0,0,1,,,,,,,,0,,,87,73
69320,note_on,1,0,1,,,,,,,,0,,,82,73
69320,note_on,1,0,3,,,,,,,,2,,,67,73
69320,note_on,1,0,5,,,,,,,,4,,,63,74
69359,note_on,39,0,11,,,,,,,,7,,,46,0
69359,note_on,39,0,1,,,,,,,,0,,,87,0
69359,note_on,0,0,1,,,,,,,,0,,,82,0
69359,note_on,39,0,8,,,,,,,,7,,,67,0
69359,note_on,39,0,9,,,,,,,,7,,,63,0
69359,note_on,0,0,3,,,,,,,,2,,,67,0
69359,note_on,0,0,5,,,,,,,,4,,,63,0
69359,note_on,39,0,12,,,,,,,,7,,,34,0
69359,note_on,39,0,3,,,,,,,,2,,,75,0
69359,note_on,39,0,5,,,,,,,,4,,,67,0
69359,note_on,0,0,2,,,,,,,,1,,,79,0
69359,note_on,39,0,2,,,,,,,,1,,,75,0
69359,note_on,39,0,10,,,,,,,,7,,,58,0
69359,note_on,39,0,4,,,,,,,,3,,,58,0
69360,note_on,1,0,9,,,,,,,,7,,,65,71
69360,note_on,0,0,2,,,,,,,,1,,,74,71
69360,note_on,1,0,2,,,,,,,,1,,,80,71
69360,note_on,0,0,1,,,,,,,,0,,,82,79
69360,note_on,1,0,1,,,,,,,,0,,,86,79
69360,note_on,1,0,8,,,,,,,,7,,,68,56
69360,note_on,1,0,10,,,,,,,,7,,,58,58
69360,note_on,0,0,5,,,,,,,,4,,,65,88
69360,note_on,1,0,5,,,,,,,,4,,,58,88
69360,note_on,1,0,11,,,,,,,,7,,,46,47
69360,note_on,1,0,12,,,,,,,,7,,,34,58
69360,note_on,1,0,3,,,,,,,,2,,,68,86
69360,note_on,0,0,3,,,,,,,,2,,,74,86
69360,note_on,1,0,4,,,,,,,,3,,,58,89
69399,note_on,39,0,10,,,,,,,,7,,,58,0
69399,note_on,39,0,9,,,,,,,,7,,,65,0
69399,note_on,39,0,4,,,,,,,,3,,,58,0
69399,note_on,39,0,8,,,,,,,,7,,,68,0
69399,note_on,39,0,5,,,,,,,,4,,,65,0
69399,note_on,0,0,5,,,,,,,,4,,,58,0
69399,note_on,0,0,3,,,,,,,,2,,,68,0
69399,note_on,0,0,1,,,,,,,,0,,,86,0
69399,note_on,39,0,1,,,,,,,,0,,,82,0
69399,note_on,39,0,3,,,,,,,,2,,,74,0
69399,note_on,39,0,12,,,,,,,,7,,,34,0
69399,note_on,39,0,2,,,,,,,,1,,,74,0
69399,note_on,0,0,2,,,,,,,,1,,,80,0
69399,note_on,39,0,11,,,,,,,,7,,,46,0
69400,note_on,1,0,11,,,,,,,,7,,,46,47
69400,note_on,1,0,4,,,,,,,,3,,,58,102
69400,note_on,0,0,3,,,,,,,,2,,,74,99
69400,note_on,1,0,8,,,,,,,,7,,,68,62
69400,note_on,1,0,9,,,,,,,,7,,,65,79
69400,note_on,1,0,2,,,,,,,,1,,,74,78
69400,note_on,0,0,2,,,,,,,,1,,,80,78
69400,note_on,0,0,5,,,,,,,,4,,,65,102
69400,note_on,1,0,12,,,,,,,,7,,,34,70
69400,note_on,1,0,1,,,,,,,,0,,,86,85
69400,note_on,0,0,1,,,,,,,,0,,,82,85
69400,note_on,1,0,3,,,,,,,,2,,,68,99
69400,note_on,1,0,10,,,,,,,,7,,,58,70
69400,note_on,1,0,5,,,,,,,,4,,,58,102
69439,note_on,39,0,10,,,,,,,,7,,,58,0
69439,note_on,0,0,3,,,,,,,,2,,,68,0
69439,note_on,39,0,4,,,,,,,,3,,,58,0
69439,note_on,39,0,8,,,,,,,,7,,,68,0
69439,note_on,0,0,5,,,,,,,,4,,,58,0
69439,note_on,39,0,11,,,,,,,,7,,,46,0
69439,note_on,39,0,9,,,,,,,,7,,,65,0
69439,note_on,0,0,2,,,,,,,,1,,,74,0
69439,note_on,39,0,2,,,,,,,,1,,,80,0
69439,note_on,39,0,12,,,,,,,,7,,,34,0
69439,note_on,39,0,1,,,,,,,,0,,,82,0
69439,note_on,0,0,1,,,,,,,,0,,,86,0
69439,note_on,39,0,5,,,,,,,,4,,,65,0
69439,note_on,39,0,3,,,,,,,,2,,,74,0
69440,note_on,1,0,8,,,,,,,,7,,,68,69
69440,note_on,0,0,3,,,,,,,,2,,,74,112
69440,note_on,1,0,3,,,,,,,,2,,,68,112
69440,note_on,1,0,9,,,,,,,,7,,,65,87
69440,note_on,0,0,1,,,,,,,,0,,,82,92
69440,note_on,1,0,10,,,,,,,,7,,,58,83
69440,note_on,1,0,4,,,,,,,,3,,,58,115
69440,note_on,1,0,1,,,,,,,,0,,,86,92
69440,note_on,1,0,5,,,,,,,,4,,,58,115
69440,note_on,0,0,5,,,,,,,,4,,,65,115
69440,note_on,0,0,2,,,,,,,,1,,,80,86
69440,note_on,1,0,2,,,,,,,,1,,,74,86
69440,note_on,1,0,12,,,,,,,,7,,,34,82
69440,note_on,1,0,11,,,,,,,,7,,,46,47
69479,note_on,39,0,4,,,,,,,,3,,,58,0
69479,note_on,39,0,8,,,,,,,,7,,,68,0
69479,note_on,0,0,2,,,,,,,,1,,,74,0
69479,note_on,39,0,2,,,,,,,,1,,,80,0
69479,note_on,39,0,9,,,,,,,,7,,,65,0
69479,note_on,39,0,11,,,,,,,,7,,,46,0
69479,note_on,39,0,3,,,,,,,,2,,,74,0
69479,note_on,0,0,5,,,,,,,,4,,,58,0
69479,note_on,39,0,12,,,,,,,,7,,,34,0
69479,note_on,39,0,1,,,,,,,,0,,,82,0
69479,note_on,0,0,1,,,,,,,,0,,,86,0
69479,note_on,39,0,10,,,,,,,,7,,,58,0
69479,note_on,0,0,3,,,,,,,,2,,,68,0
69479,note_on,39,0,5,,,,,,,,4,,,65,0
69480,note_on,0,0,2,,,,,,,,1,,,79,95
69480,note_on,1,0,12,,,,,,,,7,,,39,95
69480,note_on,1,0,9,,,,,,,,7,,,58,95
69480,note_on,1,0,1,,,,,,,,0,,,87,98
69480,note_on,0,0,1,,,,,,,,0,,,82,98
69480,note_on,0,0,5,,,,,,,,4,,,55,127
69480,note_on,1,0,2,,,,,,,,1,,,75,95
69480,note_on,1,0,5,,,,,,,,4,,,63,127
69480,note_on,0,0,3,,,,,,,,2,,,75,127
69480,note_on,1,0,10,,,,,,,,7,,,63,95
69480,note_on,1,0,4,,,,,,,,3,,,63,127
69480,note_on,1,0,11,,,,,,,,7,,,51,95
69480,note_on,1,0,8,,,,,,,,7,,,67,75
69480,note_on,1,0,3,,,,,,,,2,,,67,127
69480,note_on,921,0,7,,,,,,,,6,,,51,96
69494,note_on,0,0,1,,,,,,,,0,,,87,0
69494,note_on,14,0,1,,,,,,,,0,,,82,0
69494,note_on,14,0,4,,,,,,,,3,,,63,0
69494,note_on,14,0,3,,,,,,,,2,,,75,0
69494,note_on,0,0,3,,,,,,,,2,,,67,0
69499,note_on,19,0,5,,,,,,,,4,,,55,0
69499,note_on,0,0,5,,,,,,,,4,,,63,0
69509,note_on,29,0,9,,,,,,,,7,,,58,0
69509,note_on,29,0,8,,,,,,,,7,,,67,0
69509,note_on,29,0,7,,,,,,,,6,,,51,0
69509,note_on,0,0,2,,,,,,,,1,,,75,0
69509,note_on,29,0,10,,,,,,,,7,,,63,0
69509,note_on,29,0,11,,,,,,,,7,,,51,0
69509,note_on,29,0,2,,,,,,,,1,,,79,0
69509,note_on,29,0,12,,,,,,,,7,,,39,0
69540,note_on,31,0,10,,,,,,,,7,,,67,127
69540,note_on,31,0,8,,,,,,,,7,,,79,85
69540,note_on,31,0,2,,,,,,,,1,,,79,127
69540,note_on,0,0,6,,,,,,,,5,,,67,127
69540,note_on,1001,0,6,,,,,,,,5,,,79,127
69540,note_on,31,0,11,,,,,,,,7,,,67,126
69540,note_on,46,0,3,,,,,,,,2,,,79,127
69540,note_on,0,0,1,,,,,,,,0,,,79,127
69540,note_on,46,0,1,,,,,,,,0,,,91,127
69540,note_on,0,0,3,,,,,,,,2,,,67,127
69540,note_on,31,0,12,,,,,,,,7,,,55,127
69540,note_on,31,0,9,,,,,,,,7,,,79,127
69540,note_on,41,0,5,,,,,,,,4,,,55,127
69540,note_on,0,0,5,,,,,,,,4,,,67,127
69540,note_on,46,0,4,,,,,,,,3,,,67,127
69569,note_on,29,0,3,,,,,,,,2,,,67,0
69569,note_on,0,0,3,,,,,,,,2,,,79,0
69569,note_on,29,0,8,,,,,,,,7,,,79,0
69569,note_on,29,0,6,,,,,,,,5,,,67,0
69569,note_on,29,0,10,,,,,,,,7,,,67,0
69569,note_on,0,0,6,,,,,,,,5,,,79,0
69569,note_on,0,0,1,,,,,,,,0,,,91,0
69569,note_on,29,0,1,,,,,,,,0,,,79,0
69569,note_on,29,0,12,,,,,,,,7,,,55,0
69569,note_on,29,0,5,,,,,,,,4,,,67,0
69569,note_on,0,0,5,,,,,,,,4,,,55,0
69569,note_on,29,0,4,,,,,,,,3,,,67,0
69569,note_on,29,0,2,,,,,,,,1,,,79,0
69569,note_on,29,0,11,,,,,,,,7,,,67,0
69569,note_on,29,0,9,,,,,,,,7,,,79,0
69600,note_on,0,0,1,,,,,,,,0,,,87,127
69600,note_on,31,0,1,,,,,,,,0,,,75,127
69600,note_on,0,0,6,,,,,,,,5,,,75,127
69600,note_on,31,0,6,,,,,,,,5,,,63,127
69600,note_on,31,0,12,,,,,,,,7,,,51,127
69600,note_on,31,0,8,,,,,,,,7,,,75,94
69600,note_on,31,0,11,,,,,,,,7,,,63,126
69600,note_on,31,0,3,,,,,,,,2,,,75,127
69600,note_on,0,0,3,,,,,,,,2,,,63,127
69600,note_on,91,0,7,,,,,,,,6,,,51,96
69600,note_on,31,0,9,,,,,,,,7,,,75,127
69600,note_on,31,0,5,,,,,,,,4,,,51,127
69600,note_on,31,0,2,,,,,,,,1,,,75,127
69600,note_on,31,0,10,,,,,,,,7,,,63,127
69600,note_on,0,0,5,,,,,,,,4,,,63,127
69600,note_on,31,0,4,,,,,,,,3,,,63,127
69629,note_on,29,0,6,,,,,,,,5,,,75,0
69629,note_on,0,0,1,,,,,,,,0,,,75,0
69629,note_on,29,0,1,,,,,,,,0,,,87,0
69629,note_on,29,0,8,,,,,,,,7,,,75,0
69629,note_on,0,0,6,,,,,,,,5,,,63,0
69629,note_on,29,0,12,,,,,,,,7,,,51,0
69629,note_on,29,0,11,,,,,,,,7,,,63,0
69629,note_on,29,0,4,,,,,,,,3,,,63,0
69629,note_on,0,0,5,,,,,,,,4,,,51,0
69629,note_on,29,0,2,,,,,,,,1,,,75,0
69629,note_on,0,0,3,,,,,,,,2,,,75,0
69629,note_on,29,0,9,,,,,,,,7,,,75,0
69629,note_on,29,0,3,,,,,,,,2,,,63,0
69629,note_on,29,0,7,,,,,,,,6,,,51,0
69629,note_on,29,0,10,,,,,,,,7,,,63,0
69629,note_on,29,0,5,,,,,,,,4,,,63,0
69660,note_on,0,0,3,,,,,,,,2,,,70,127
69660,note_on,31,0,5,,,,,,,,4,,,58,127
69660,note_on,0,0,5,,,,,,,,4,,,46,127
69660,note_on,31,0,8,,,,,,,,7,,,70,127
69660,note_on,31,0,3,,,,,,,,2,,,58,127
69660,note_on,31,0,11,,,,,,,,7,,,58,126
69660,note_on,31,0,6,,,,,,,,5,,,58,127
69660,note_on,0,0,6,,,,,,,,5,,,70,127
69660,note_on,31,0,12,,,,,,,,7,,,46,127
69660,note_on,31,0,4,,,,,,,,3,,,58,127
69660,note_on,31,0,2,,,,,,,,1,,,70,127
69660,note_on,31,0,9,,,,,,,,7,,,70,127
69660,note_on,31,0,10,,,,,,,,7,,,58,127
69660,note_on,31,0,1,,,,,,,,0,,,82,126
69689,note_on,29,0,4,,,,,,,,3,,,58,0
69689,note_on,29,0,2,,,,,,,,1,,,70,0
69689,note_on,29,0,5,,,,,,,,4,,,46,0
69689,note_on,0,0,5,,,,,,,,4,,,58,0
69689,note_on,29,0,3,,,,,,,,2,,,70,0
69689,note_on,29,0,8,,,,,,,,7,,,70,0
69689,note_on,0,0,3,,,,,,,,2,,,58,0
69689,note_on,29,0,1,,,,,,,,0,,,82,0
69689,note_on,29,0,6,,,,,,,,5,,,70,0
69689,note_on,29,0,9,,,,,,,,7,,,70,0
69689,note_on,0,0,6,,,,,,,,5,,,58,0
69689,note_on,29,0,12,,,,,,,,7,,,46,0
69689,note_on,29,0,10,,,,,,,,7,,,58,0
69689,note_on,29,0,11,,,,,,,,7,,,58,0
69720,note_on,31,0,8,,,,,,,,7,,,67,127
69720,note_on,31,0,1,,,,,,,,0,,,79,126
69720,note_on,31,0,6,,,,,,,,5,,,67,127
69720,note_on,31,0,12,,,,,,,,7,,,43,127
69720,note_on,31,0,11,,,,,,,,7,,,55,126
69720,note_on,31,0,2,,,,,,,,1,,,67,127
69720,note_on,31,0,4,,,,,,,,3,,,55,127
69720,note_on,31,0,10,,,,,,,,7,,,55,127
69720,note_on,91,0,7,,,,,,,,6,,,51,96
69720,note_on,31,0,3,,,,,,,,2,,,67,127
69720,note_on,31,0,9,,,,,,,,7,,,67,127
69720,note_on,31,0,5,,,,,,,,4,,,55,127
69749,note_on,29,0,5,,,,,,,,4,,,55,0
69749,note_on,29,0,3,,,,,,,,2,,,67,0
69749,note_on,29,0,2,,,,,,,,1,,,67,0
69749,note_on,29,0,8,,,,,,,,7,,,67,0
69749,note_on,29,0,9,,,,,,,,7,,,67,0
69749,note_on,29,0,1,,,,,,,,0,,,79,0
69749,note_on,29,0,4,,,,,,,,3,,,55,0
69749,note_on,29,0,12,,,,,,,,7,,,43,0
69749,note_on,29,0,10,,,,,,,,7,,,55,0
69749,note_on,29,0,7,,,,,,,,6,,,51,0
69749,note_on,29,0,11,,,,,,,,7,,,55,0
69749,note_on,29,0,6,,,,,,,,5,,,67,0
69780,note_on,31,0,10,,,,,,,,7,,,63,127
69780,note_on,31,0,6,,,,,,,,5,,,63,127
69780,note_on,31,0,12,,,,,,,,7,,,39,127
69780,note_on,31,0,9,,,,,,,,7,,,63,127
69780,note_on,0,0,3,,,,,,,,2,,,63,127
69780,note_on,31,0,3,,,,,,,,2,,,75,127
69780,note_on,31,0,4,,,,,,,,3,,,51,127
69780,note_on,31,0,1,,,,,,,,0,,,87,127
69780,note_on,31,0,2,,,,,,,,1,,,75,127
69780,note_on,31,0,11,,,,,,,,7,,,51,126
69780,note_on,31,0,8,,,,,,,,7,,,63,127
69780,note_on,31,0,5,,,,,,,,4,,,51,127
69780,note_on,0,0,5,,,,,,,,4,,,63,127
69809,note_on,29,0,4,,,,,,,,3,,,51,0
69809,note_on,29,0,11,,,,,,,,7,,,51,0
69809,note_on,29,0,12,,,,,,,,7,,,39,0
69809,note_on,29,0,6,,,,,,,,5,,,63,0
69809,note_on,29,0,9,,,,,,,,7,,,63,0
69809,note_on,29,0,1,,,,,,,,0,,,87,0
69809,note_on,29,0,10,,,,,,,,7,,,63,0
69809,note_on,29,0,5,,,,,,,,4,,,63,0
69809,note_on,0,0,5,,,,,,,,4,,,51,0
69809,note_on,0,0,3,,,,,,,,2,,,75,0
69809,note_on,29,0,3,,,,,,,,2,,,63,0
69809,note_on,29,0,8,,,,,,,,7,,,63,0
69809,note_on,29,0,2,,,,,,,,1,,,75,0
69840,note_on,0,0,5,,,,,,,,4,,,46,127
69840,note_on,31,0,2,,,,,,,,1,,,70,127
69840,note_on,31,0,11,,,,,,,,7,,,46,126
69840,note_on,31,0,9,,,,,,,,7,,,58,127
69840,note_on,31,0,6,,,,,,,,5,,,58,127
69840,note_on,31,0,5,,,,,,,,4,,,58,127
69840,note_on,31,0,3,,,,,,,,2,,,58,127
69840,note_on,0,0,3,,,,,,,,2,,,70,127
69840,note_on,91,0,7,,,,,,,,6,,,46,96
69840,note_on,31,0,12,,,,,,,,7,,,34,127
69840,note_on,31,0,10,,,,,,,,7,,,58,127
69840,note_on,31,0,4,,,,,,,,3,,,46,127
69840,note_on,31,0,8,,,,,,,,7,,,58,127
69840,note_on,31,0,1,,,,,,,,0,,,82,127
69854,note_on,14,0,7,,,,,,,,6,,,46,0
69855,note_on,1,0,7,,,,,,,,6,,,46,96
69869,note_on,29,0,9,,,,,,,,7,,,58,0
69869,note_on,29,0,5,,,,,,,,4,,,46,0
69869,note_on,0,0,5,,,,,,,,4,,,58,0
69869,note_on,29,0,8,,,,,,,,7,,,58,0
69869,note_on,29,0,3,,,,,,,,2,,,70,0
69869,note_on,29,0,10,,,,,,,,7,,,58,0
69869,note_on,29,0,1,,,,,,,,0,,,82,0
69869,note_on,29,0,11,,,,,,,,7,,,46,0
69869,note_on,14,0,7,,,,,,,,6,,,46,0
69869,note_on,0,0,3,,,,,,,,2,,,58,0
69869,note_on,29,0,4,,,,,,,,3,,,46,0
69869,note_on,29,0,6,,,,,,,,5,,,58,0
69869,note_on,29,0,12,,,,,,,,7,,,34,0
69869,note_on,29,0,2,,,,,,,,1,,,70,0
69870,note_on,1,0,7,,,,,,,,6,,,46,96
69884,note_on,14,0,7,,,,,,,,6,,,46,0
69885,note_on,1,0,7,,,,,,,,6,,,46,96
69899,note_on,14,0,7,,,,,,,,6,,,46,0
69900,note_on,31,0,11,,,,,,,,7,,,44,126
69900,note_on,1,0,7,,,,,,,,6,,,46,96
69900,note_on,0,0,6,,,,,,,,5,,,58,127
69900,note_on,31,0,6,,,,,,,,5,,,70,127
69900,note_on,31,0,10,,,,,,,,7,,,56,127
69900,note_on,31,0,12,,,,,,,,7,,,32,127
69900,note_on,31,0,2,,,,,,,,1,,,68,127
69900,note_on,31,0,5,,,,,,,,4,,,58,127
69900,note_on,31,0,1,,,,,,,,0,,,80,127
69900,note_on,31,0,4,,,,,,,,3,,,44,127
69900,note_on,31,0,9,,,,,,,,7,,,56,127
69900,note_on,31,0,3,,,,,,,,2,,,68,127
69900,note_on,31,0,8,,,,,,,,7,,,56,127
69900,note_on,0,0,5,,,,,,,,4,,,46,127
69914,note_on,14,0,7,,,,,,,,6,,,46,0
69915,note_on,1,0,7,,,,,,,,6,,,46,96
69929,note_on,29,0,2,,,,,,,,1,,,68,0
69929,note_on,29,0,4,,,,,,,,3,,,44,0
69929,note_on,29,0,3,,,,,,,,2,,,68,0
69929,note_on,29,0,5,,,,,,,,4,,,46,0
69929,note_on,0,0,5,,,,,,,,4,,,58,0
69929,note_on,29,0,6,,,,,,,,5,,,58,0
69929,note_on,29,0,8,,,,,,,,7,,,56,0
69929,note_on,29,0,12,,,,,,,,7,,,32,0
69929,note_on,14,0,7,,,,,,,,6,,,46,0
69929,note_on,0,0,6,,,,,,,,5,,,70,0
69929,note_on,29,0,10,,,,,,,,7,,,56,0
69929,note_on,29,0,11,,,,,,,,7,,,44,0
69929,note_on,29,0,9,,,,,,,,7,,,56,0
69929,note_on,29,0,1,,,,,,,,0,,,80,0
69930,note_on,1,0,7,,,,,,,,6,,,46,96
69944,note_on,14,0,7,,,,,,,,6,,,46,0
69945,note_on,1,0,7,,,,,,,,6,,,46,96
69959,note_on,14,0,7,,,,,,,,6,,,46,0
69960,note_on,31,0,9,,,,,,,,7,,,55,127
69960,note_on,31,0,5,,,,,,,,4,,,51,127
69960,note_on,0,0,5,,,,,,,,4,,,63,127
69960,note_on,31,0,11,,,,,,,,7,,,43,126
69960,note_on,31,0,8,,,,,,,,7,,,55,127
69960,note_on,31,0,3,,,,,,,,2,,,67,127
69960,note_on,31,0,2,,,,,,,,1,,,67,127
69960,note_on,31,0,1,,,,,,,,0,,,79,127
69960,note_on,31,0,10,,,,,,,,7,,,55,127
69960,note_on,31,0,6,,,,,,,,5,,,63,127
69960,note_on,31,0,4,,,,,,,,3,,,43,127
69960,note_on,31,0,12,,,,,,,,7,,,31,127
69979,note_on,19,0,1,,,,,,,,0,,,79,0
69979,note_on,19,0,3,,,,,,,,2,,,67,0
69989,note_on,29,0,9,,,,,,,,7,,,55,0
69999,note_on,39,0,12,,,,,,,,7,,,31,0
69999,note_on,39,0,10,,,,,,,,7,,,55,0
69999,note_on,39,0,4,,,,,,,,3,,,43,0
69999,note_on,39,0,2,,,,,,,,1,,,67,0
69999,note_on,0,0,5,,,,,,,,4,,,51,0
69999,note_on,39,0,8,,,,,,,,7,,,55,0
69999,note_on,39,0,11,,,,,,,,7,,,43,0
69999,note_on,39,0,6,,,,,,,,5,,,63,0
69999,note_on,39,0,5,,,,,,,,4,,,63,0
70000,note_on,1,0,2,,,,,,,,1,,,77,48
70000,note_on,21,0,3,,,,,,,,2,,,68,47
70000,note_on,1,0,4,,,,,,,,3,,,62,48
70000,note_on,0,0,4,,,,,,,,3,,,59,48
70019,note_on,19,0,3,,,,,,,,2,,,68,0
70019,note_on,19,0,4,,,,,,,,3,,,59,0
70019,note_on,0,0,4,,,,,,,,3,,,62,0
70019,note_on,19,0,2,,,,,,,,1,,,77,0
70040,note_on,21,0,2,,,,,,,,1,,,75,48
70040,note_on,21,0,4,,,,,,,,3,,,60,48
70040,note_on,0,0,4,,,,,,,,3,,,63,48
70040,note_on,21,0,3,,,,,,,,2,,,67,48
70059,note_on,19,0,2,,,,,,,,1,,,75,0
70059,note_on,19,0,3,,,,,,,,2,,,67,0
70059,note_on,19,0,4,,,,,,,,3,,,63,0
70059,note_on,0,0,4,,,,,,,,3,,,60,0
70080,note_on,21,0,3,,,,,,,,2,,,68,48
70080,note_on,21,0,4,,,,,,,,3,,,62,48
70080,note_on,21,0,2,,,,,,,,1,,,77,48
70080,note_on,0,0,4,,,,,,,,3,,,59,48
70099,note_on,19,0,2,,,,,,,,1,,,77,0
70099,note_on,19,0,3,,,,,,,,2,,,68,0
70099,note_on,0,0,4,,,,,,,,3,,,62,0
70099,note_on,19,0,4,,,,,,,,3,,,59,0
70120,note_on,21,0,3,,,,,,,,2,,,67,48
70120,note_on,21,0,4,,,,,,,,3,,,60,48
70120,note_on,0,0,4,,,,,,,,3,,,63,48
70120,note_on,21,0,2,,,,,,,,1,,,75,48
70139,note_on,19,0,3,,,,,,,,2,,,67,0
70139,note_on,19,0,4,,,,,,,,3,,,63,0
70139,note_on,0,0,4,,,,,,,,3,,,60,0
70139,note_on,19,0,2,,,,,,,,1,,,75,0
70160,note_on,21,0,2,,,,,,,,1,,,77,48
70160,note_on,21,0,4,,,,,,,,3,,,62,48
70160,note_on,0,0,4,,,,,,,,3,,,59,48
70160,note_on,21,0,3,,,,,,,,2,,,68,48
70179,note_on,19,0,3,,,,,,,,2,,,68,0
70179,note_on,19,0,4,,,,,,,,3,,,59,0
70179,note_on,0,0,4,,,,,,,,3,,,62,0
70179,note_on,19,0,2,,,,,,,,1,,,77,0
70200,note_on,21,0,3,,,,,,,,2,,,67,48
70200,note_on,21,0,4,,,,,,,,3,,,60,48
70200,note_on,0,0,4,,,,,,,,3,,,63,48
70200,note_on,21,0,2,,,,,,,,1,,,75,48
70219,note_on,19,0,4,,,,,,,,3,,,63,0
70219,note_on,0,0,4,,,,,,,,3,,,60,0
70219,note_on,19,0,2,,,,,,,,1,,,75,0
70219,note_on,19,0,3,,,,,,,,2,,,67,0
70240,note_on,241,0,10,,,,,,,,7,,,67,48
70240,note_on,241,0,11,,,,,,,,7,,,64,47
70240,note_on,241,0,8,,,,,,,,7,,,82,47
70240,note_on,251,0,9,,,,,,,,7,,,73,48
70259,note_on,19,0,11,,,,,,,,7,,,64,0
70259,note_on,19,0,10,,,,,,,,7,,,67,0
70259,note_on,19,0,9,,,,,,,,7,,,73,0
70259,note_on,19,0,8,,,,,,,,7,,,82,0
70280,note_on,21,0,8,,,,,,,,7,,,80,47
70280,note_on,21,0,10,,,,,,,,7,,,68,48
70280,note_on,21,0,9,,,,,,,,7,,,72,48
70280,note_on,21,0,11,,,,,,,,7,,,65,48
70299,note_on,19,0,8,,,,,,,,7,,,80,0
70299,note_on,19,0,11,,,,,,,,7,,,65,0
70299,note_on,19,0,10,,,,,,,,7,,,68,0
70299,note_on,19,0,9,,,,,,,,7,,,72,0
70320,note_on,21,0,10,,,,,,,,7,,,67,48
70320,note_on,21,0,8,,,,,,,,7,,,82,47
70320,note_on,21,0,9,,,,,,,,7,,,73,48
70320,note_on,21,0,11,,,,,,,,7,,,64,48
70339,note_on,19,0,8,,,,,,,,7,,,82,0
70339,note_on,19,0,9,,,,,,,,7,,,73,0
70339,note_on,19,0,11,,,,,,,,7,,,64,0
70339,note_on,19,0,10,,,,,,,,7,,,67,0
70360,note_on,21,0,8,,,,,,,,7,,,80,47
70360,note_on,21,0,9,,,,,,,,7,,,72,48
70360,note_on,21,0,10,,,,,,,,7,,,68,48
70360,note_on,21,0,11,,,,,,,,7,,,65,48
70379,note_on,19,0,9,,,,,,,,7,,,72,0
70379,note_on,19,0,8,,,,,,,,7,,,80,0
70379,note_on,19,0,11,,,,,,,,7,,,65,0
70379,note_on,19,0,10,,,,,,,,7,,,68,0
70400,note_on,21,0,10,,,,,,,,7,,,67,48
70400,note_on,21,0,11,,,,,,,,7,,,64,48
70400,note_on,21,0,8,,,,,,,,7,,,82,47
70400,note_on,21,0,9,,,,,,,,7,,,73,48
70419,note_on,19,0,11,,,,,,,,7,,,64,0
70419,note_on,19,0,9,,,,,,,,7,,,73,0
70419,note_on,19,0,8,,,,,,,,7,,,82,0
70419,note_on,19,0,10,,,,,,,,7,,,67,0
70440,note_on,21,0,8,,,,,,,,7,,,80,47
70440,note_on,21,0,11,,,,,,,,7,,,65,48
70440,note_on,21,0,10,,,,,,,,7,,,68,48
70440,note_on,21,0,9,,,,,,,,7,,,72,48
70459,note_on,19,0,8,,,,,,,,7,,,80,0
70459,note_on,19,0,11,,,,,,,,7,,,65,0
70459,note_on,19,0,9,,,,,,,,7,,,72,0
70459,note_on,19,0,10,,,,,,,,7,,,68,0
70480,note_on,261,0,4,,,,,,,,3,,,60,48
70480,note_on,261,0,2,,,,,,,,1,,,75,48
70480,note_on,261,0,3,,,,,,,,2,,,66,48
70480,note_on,0,0,4,,,,,,,,3,,,57,48
70499,note_on,19,0,4,,,,,,,,3,,,57,0
70499,note_on,0,0,4,,,,,,,,3,,,60,0
70499,note_on,19,0,3,,,,,,,,2,,,66,0
70499,note_on,19,0,2,,,,,,,,1,,,75,0
70520,note_on,21,0,3,,,,,,,,2,,,65,48
70520,note_on,21,0,2,,,,,,,,1,,,74,48
70520,note_on,0,0,4,,,,,,,,3,,,58,48
70520,note_on,21,0,4,,,,,,,,3,,,62,48
70539,note_on,19,0,2,,,,,,,,1,,,74,0
70539,note_on,19,0,4,,,,,,,,3,,,58,0
70539,note_on,0,0,4,,,,,,,,3,,,62,0
70539,note_on,19,0,3,,,,,,,,2,,,65,0
70560,note_on,21,0,3,,,,,,,,2,,,66,48
70560,note_on,21,0,4,,,,,,,,3,,,60,48
70560,note_on,0,0,4,,,,,,,,3,,,57,48
70560,note_on,21,0,2,,,,,,,,1,,,75,48
70579,note_on,0,0,4,,,,,,,,3,,,60,0
70579,note_on,19,0,4,,,,,,,,3,,,57,0
70579,note_on,19,0,2,,,,,,,,1,,,75,0
70579,note_on,19,0,3,,,,,,,,2,,,66,0
70600,note_on,21,0,2,,,,,,,,1,,,74,48
70600,note_on,21,0,4,,,,,,,,3,,,62,48
70600,note_on,0,0,4,,,,,,,,3,,,58,48
70600,note_on,21,0,3,,,,,,,,2,,,65,48
70619,note_on,19,0,4,,,,,,,,3,,,58,0
70619,note_on,0,0,4,,,,,,,,3,,,62,0
70619,note_on,19,0,2,,,,,,,,1,,,74,0
70619,note_on,19,0,3,,,,,,,,2,,,65,0
70640,note_on,21,0,2,,,,,,,,1,,,75,48
70640,note_on,0,0,4,,,,,,,,3,,,57,48
70640,note_on,21,0,3,,,,,,,,2,,,66,48
70640,note_on,21,0,4,,,,,,,,3,,,60,48
70659,note_on,19,0,3,,,,,,,,2,,,66,0
70659,note_on,19,0,2,,,,,,,,1,,,75,0
70659,note_on,0,0,4,,,,,,,,3,,,60,0
70659,note_on,19,0,4,,,,,,,,3,,,57,0
70680,note_on,21,0,3,,,,,,,,2,,,65,48
70680,note_on,21,0,4,,,,,,,,3,,,62,48
70680,note_on,0,0,4,,,,,,,,3,,,58,48
70680,note_on,21,0,2,,,,,,,,1,,,74,48
70699,note_on,0,0,4,,,,,,,,3,,,62,0
70699,note_on,19,0,4,,,,,,,,3,,,58,0
70699,note_on,19,0,3,,,,,,,,2,,,65,0
70699,note_on,19,0,2,,,,,,,,1,,,74,0
70720,note_on,261,0,9,,,,,,,,7,,,71,48
70720,note_on,261,0,8,,,,,,,,7,,,80,47
70724,note_on,265,0,10,,,,,,,,7,,,65,48
70726,note_on,267,0,11,,,,,,,,7,,,62,48
70739,note_on,19,0,9,,,,,,,,7,,,71,0
70739,note_on,19,0,8,,,,,,,,7,,,80,0
70743,note_on,19,0,10,,,,,,,,7,,,65,0
70745,note_on,19,0,11,,,,,,,,7,,,62,0
70754,note_on,9,0,11,,,,,,,,7,,,63,48
70760,note_on,21,0,9,,,,,,,,7,,,70,48
70760,note_on,17,0,10,,,,,,,,7,,,67,48
70760,note_on,21,0,8,,,,,,,,7,,,79,47
70773,note_on,19,0,11,,,,,,,,7,,,63,0
70779,note_on,19,0,8,,,,,,,,7,,,79,0
70779,note_on,19,0,9,,,,,,,,7,,,70,0
70779,note_on,19,0,10,,,,,,,,7,,,67,0
70800,note_on,21,0,10,,,,,,,,7,,,65,48
70800,note_on,27,0,11,,,,,,,,7,,,62,48
70800,note_on,21,0,8,,,,,,,,7,,,80,47
70800,note_on,21,0,9,,,,,,,,7,,,71,48
70819,note_on,19,0,11,,,,,,,,7,,,62,0
70819,note_on,19,0,8,,,,,,,,7,,,80,0
70819,note_on,19,0,9,,,,,,,,7,,,71,0
70819,note_on,19,0,10,,,,,,,,7,,,65,0
70839,note_on,20,0,11,,,,,,,,7,,,63,48
70840,note_on,21,0,8,,,,,,,,7,,,79,47
70840,note_on,21,0,9,,,,,,,,7,,,70,48
70840,note_on,21,0,10,,,,,,,,7,,,67,48
70858,note_on,19,0,11,,,,,,,,7,,,63,0
70859,note_on,19,0,10,,,,,,,,7,,,67,0
70859,note_on,19,0,8,,,,,,,,7,,,79,0
70859,note_on,19,0,9,,,,,,,,7,,,70,0
70879,note_on,21,0,11,,,,,,,,7,,,62,48
70880,note_on,21,0,8,,,,,,,,7,,,80,47
70880,note_on,21,0,10,,,,,,,,7,,,65,48
70880,note_on,21,0,9,,,,,,,,7,,,71,48
70898,note_on,19,0,11,,,,,,,,7,,,62,0
70899,note_on,19,0,9,,,,,,,,7,,,71,0
70899,note_on,19,0,8,,,,,,,,7,,,80,0
70899,note_on,19,0,10,,,,,,,,7,,,65,0
70920,note_on,21,0,10,,,,,,,,7,,,67,48
70920,note_on,22,0,11,,,,,,,,7,,,63,48
70920,note_on,21,0,9,,,,,,,,7,,,70,48
70920,note_on,21,0,8,,,,,,,,7,,,79,47
70939,note_on,19,0,10,,,,,,,,7,,,67,0
70939,note_on,19,0,9,,,,,,,,7,,,70,0
70939,note_on,19,0,8,,,,,,,,7,,,79,0
70939,note_on,19,0,11,,,,,,,,7,,,63,0
70960,note_on,981,0,1,,,,,,,,0,,,84,48
70960,note_on,0,0,3,,,,,,,,2,,,68,48
70960,note_on,261,0,3,,,,,,,,2,,,75,48
70960,note_on,261,0,4,,,,,,,,3,,,56,48
70960,note_on,261,0,2,,,,,,,,1,,,80,48
70960,note_on,961,0,5,,,,,,,,4,,,63,48
70979,note_on,19,0,1,,,,,,,,0,,,84,0
70979,note_on,19,0,2,,,,,,,,1,,,80,0
70979,note_on,19,0,5,,,,,,,,4,,,63,0
70979,note_on,19,0,3,,,,,,,,2,,,68,0
70979,note_on,0,0,3,,,,,,,,2,,,75,0
70979,note_on,19,0,4,,,,,,,,3,,,56,0
71000,note_on,21,0,4,,,,,,,,3,,,63,48
71000,note_on,21,0,2,,,,,,,,1,,,79,48
71000,note_on,21,0,5,,,,,,,,4,,,63,48
71000,note_on,21,0,3,,,,,,,,2,,,75,48
71000,note_on,0,0,3,,,,,,,,2,,,67,48
71000,note_on,21,0,1,,,,,,,,0,,,82,48
71019,note_on,19,0,2,,,,,,,,1,,,79,0
71019,note_on,19,0,3,,,,,,,,2,,,67,0
71019,note_on,0,0,3,,,,,,,,2,,,75,0
71019,note_on,19,0,4,,,,,,,,3,,,63,0
71019,note_on,19,0,1,,,,,,,,0,,,82,0
71019,note_on,19,0,5,,,,,,,,4,,,63,0
71040,note_on,21,0,3,,,,,,,,2,,,75,48
71040,note_on,21,0,4,,,,,,,,3,,,56,48
71040,note_on,0,0,3,,,,,,,,2,,,68,48
71040,note_on,21,0,5,,,,,,,,4,,,63,48
71040,note_on,21,0,2,,,,,,,,1,,,80,48
71040,note_on,21,0,1,,,,,,,,0,,,84,48
71059,note_on,19,0,5,,,,,,,,4,,,63,0
71059,note_on,19,0,3,,,,,,,,2,,,68,0
71059,note_on,19,0,2,,,,,,,,1,,,80,0
71059,note_on,19,0,1,,,,,,,,0,,,84,0
71059,note_on,0,0,3,,,,,,,,2,,,75,0
71059,note_on,19,0,4,,,,,,,,3,,,56,0
71080,note_on,21,0,5,,,,,,,,4,,,63,48
71080,note_on,21,0,1,,,,,,,,0,,,82,49
71080,note_on,21,0,2,,,,,,,,1,,,79,48
71080,note_on,0,0,3,,,,,,,,2,,,67,48
71080,note_on,21,0,3,,,,,,,,2,,,75,48
71080,note_on,21,0,4,,,,,,,,3,,,63,48
71099,note_on,19,0,3,,,,,,,,2,,,67,0
71099,note_on,19,0,5,,,,,,,,4,,,63,0
71099,note_on,19,0,2,,,,,,,,1,,,79,0
71099,note_on,19,0,4,,,,,,,,3,,,63,0
71099,note_on,0,0,3,,,,,,,,2,,,75,0
71099,note_on,19,0,1,,,,,,,,0,,,82,0
71120,note_on,21,0,1,,,,,,,,0,,,84,49
71120,note_on,21,0,5,,,,,,,,4,,,63,48
71120,note_on,0,0,3,,,,,,,,2,,,68,48
71120,note_on,21,0,3,,,,,,,,2,,,75,48
71120,note_on,21,0,4,,,,,,,,3,,,56,48
71120,note_on,21,0,2,,,,,,,,1,,,80,48
71139,note_on,19,0,3,,,,,,,,2,,,68,0
71139,note_on,0,0,3,,,,,,,,2,,,75,0
71139,note_on,19,0,1,,,,,,,,0,,,84,0
71139,note_on,19,0,5,,,,,,,,4,,,63,0
71139,note_on,19,0,2,,,,,,,,1,,,80,0
71139,note_on,19,0,4,,,,,,,,3,,,56,0
71160,note_on,21,0,5,,,,,,,,4,,,63,48
71160,note_on,21,0,2,,,,,,,,1,,,79,48
71160,note_on,21,0,3,,,,,,,,2,,,75,48
71160,note_on,21,0,4,,,,,,,,3,,,63,48
71160,note_on,21,0,1,,,,,,,,0,,,82,49
71160,note_on,0,0,3,,,,,,,,2,,,67,48
71179,note_on,19,0,3,,,,,,,,2,,,67,0
71179,note_on,0,0,3,,,,,,,,2,,,75,0
71179,note_on,19,0,1,,,,,,,,0,,,82,0
71179,note_on,19,0,2,,,,,,,,1,,,79,0
71179,note_on,19,0,5,,,,,,,,4,,,63,0
71179,note_on,19,0,4,,,,,,,,3,,,63,0
71200,note_on,261,0,9,,,,,,,,7,,,71,48
71200,note_on,261,0,10,,,,,,,,7,,,65,48
71200,note_on,261,0,8,,,,,,,,7,,,80,47
71206,note_on,267,0,11,,,,,,,,7,,,62,48
71219,note_on,19,0,10,,,,,,,,7,,,65,0
71219,note_on,19,0,8,,,,,,,,7,,,80,0
71219,note_on,19,0,9,,,,,,,,7,,,71,0
71225,note_on,19,0,11,,,,,,,,7,,,62,0
71236,note_on,11,0,11,,,,,,,,7,,,63,48
71240,note_on,21,0,10,,,,,,,,7,,,67,48
71240,note_on,21,0,9,,,,,,,,7,,,70,48
71240,note_on,21,0,8,,,,,,,,7,,,79,47
71255,note_on,19,0,11,,,,,,,,7,,,63,0
71259,note_on,19,0,10,,,,,,,,7,,,67,0
71259,note_on,19,0,8,,,,,,,,7,,,79,0
71259,note_on,19,0,9,,,,,,,,7,,,70,0
71280,note_on,21,0,9,,,,,,,,7,,,71,48
71280,note_on,21,0,10,,,,,,,,7,,,65,48
71280,note_on,25,0,11,,,,,,,,7,,,62,48
71280,note_on,21,0,8,,,,,,,,7,,,80,47
71299,note_on,19,0,11,,,,,,,,7,,,62,0
71299,note_on,19,0,9,,,,,,,,7,,,71,0
71299,note_on,19,0,10,,,,,,,,7,,,65,0
71299,note_on,19,0,8,,,,,,,,7,,,80,0
71319,note_on,20,0,11,,,,,,,,7,,,63,48
71320,note_on,21,0,9,,,,,,,,7,,,70,48
71320,note_on,21,0,10,,,,,,,,7,,,67,48
71320,note_on,21,0,8,,,,,,,,7,,,79,47
71338,note_on,19,0,11,,,,,,,,7,,,63,0
71339,note_on,19,0,9,,,,,,,,7,,,70,0
71339,note_on,19,0,8,,,,,,,,7,,,79,0
71339,note_on,19,0,10,,,,,,,,7,,,67,0
71360,note_on,21,0,10,,,,,,,,7,,,65,48
71360,note_on,21,0,9,,,,,,,,7,,,71,48
71360,note_on,21,0,8,,,,,,,,7,,,80,47
71361,note_on,23,0,11,,,,,,,,7,,,62,48
71379,note_on,19,0,10,,,,,,,,7,,,65,0
71379,note_on,19,0,9,,,,,,,,7,,,71,0
71379,note_on,19,0,8,,,,,,,,7,,,80,0
71380,note_on,19,0,11,,,,,,,,7,,,62,0
71400,note_on,21,0,9,,,,,,,,7,,,70,48
71400,note_on,21,0,8,,,,,,,,7,,,79,47
71400,note_on,21,0,10,,,,,,,,7,,,67,48
71400,note_on,20,0,11,,,,,,,,7,,,63,48
71419,note_on,19,0,9,,,,,,,,7,,,70,0
71419,note_on,19,0,10,,,,,,,,7,,,67,0
71419,note_on,19,0,8,,,,,,,,7,,,79,0
71419,note_on,19,0,11,,,,,,,,7,,,63,0
71440,note_on,261,0,5,,,,,,,,4,,,63,48
71440,note_on,261,0,4,,,,,,,,3,,,56,48
71440,note_on,261,0,2,,,,,,,,1,,,80,48
71440,note_on,261,0,3,,,,,,,,2,,,68,48
71440,note_on,0,0,3,,,,,,,,2,,,75,48
71440,note_on,261,0,1,,,,,,,,0,,,84,49
71459,note_on,19,0,1,,,,,,,,0,,,84,0
71459,note_on,19,0,5,,,,,,,,4,,,63,0
71459,note_on,19,0,3,,,,,,,,2,,,75,0
71459,note_on,0,0,3,,,,,,,,2,,,68,0
71459,note_on,19,0,4,,,,,,,,3,,,56,0
71459,note_on,19,0,2,,,,,,,,1,,,80,0
71480,note_on,21,0,5,,,,,,,,4,,,63,48
71480,note_on,21,0,4,,,,,,,,3,,,63,48
71480,note_on,21,0,3,,,,,,,,2,,,67,48
71480,note_on,0,0,3,,,,,,,,2,,,75,48
71480,note_on,21,0,1,,,,,,,,0,,,82,49
71480,note_on,21,0,2,,,,,,,,1,,,79,48
71499,note_on,19,0,1,,,,,,,,0,,,82,0
71499,note_on,19,0,5,,,,,,,,4,,,63,0
71499,note_on,0,0,3,,,,,,,,2,,,67,0
71499,note_on,19,0,3,,,,,,,,2,,,75,0
71499,note_on,19,0,2,,,,,,,,1,,,79,0
71499,note_on,19,0,4,,,,,,,,3,,,63,0
71520,note_on,21,0,3,,,,,,,,2,,,68,48
71520,note_on,21,0,2,,,,,,,,1,,,80,48
71520,note_on,21,0,1,,,,,,,,0,,,84,49
71520,note_on,21,0,5,,,,,,,,4,,,63,48
71520,note_on,0,0,3,,,,,,,,2,,,75,48
71520,note_on,21,0,4,,,,,,,,3,,,56,48
71539,note_on,19,0,4,,,,,,,,3,,,56,0
71539,note_on,19,0,5,,,,,,,,4,,,63,0
71539,note_on,19,0,3,,,,,,,,2,,,75,0
71539,note_on,19,0,1,,,,,,,,0,,,84,0
71539,note_on,19,0,2,,,,,,,,1,,,80,0
71539,note_on,0,0,3,,,,,,,,2,,,68,0
71560,note_on,21,0,1,,,,,,,,0,,,82,49
71560,note_on,21,0,4,,,,,,,,3,,,63,48
71560,note_on,21,0,2,,,,,,,,1,,,79,48
71560,note_on,21,0,3,,,,,,,,2,,,67,48
71560,note_on,21,0,5,,,,,,,,4,,,63,48
71560,note_on,0,0,3,,,,,,,,2,,,75,48
71579,note_on,0,0,3,,,,,,,,2,,,67,0
71579,note_on,19,0,5,,,,,,,,4,,,63,0
71579,note_on,19,0,4,,,,,,,,3,,,63,0
71579,note_on,19,0,3,,,,,,,,2,,,75,0
71579,note_on,19,0,2,,,,,,,,1,,,79,0
71579,note_on,19,0,1,,,,,,,,0,,,82,0
71600,note_on,21,0,1,,,,,,,,0,,,84,49
71600,note_on,21,0,4,,,,,,,,3,,,56,48
71600,note_on,0,0,3,,,,,,,,2,,,75,48
71600,note_on,21,0,2,,,,,,,,1,,,80,48
71600,note_on,21,0,3,,,,,,,,2,,,68,48
71600,note_on,21,0,5,,,,,,,,4,,,63,48
71619,note_on,0,0,3,,,,,,,,2,,,68,0
71619,note_on,19,0,4,,,,,,,,3,,,56,0
71619,note_on,19,0,2,,,,,,,,1,,,80,0
71619,note_on,19,0,1,,,,,,,,0,,,84,0
71619,note_on,19,0,5,,,,,,,,4,,,63,0
71619,note_on,19,0,3,,,,,,,,2,,,75,0
71640,note_on,0,0,3,,,,,,,,2,,,75,48
71640,note_on,21,0,2,,,,,,,,1,,,79,48
71640,note_on,21,0,1,,,,,,,,0,,,82,49
71640,note_on,21,0,4,,,,,,,,3,,,63,48
71640,note_on,21,0,5,,,,,,,,4,,,63,48
71640,note_on,21,0,3,,,,,,,,2,,,67,48
71659,note_on,19,0,5,,,,,,,,4,,,63,0
71659,note_on,0,0,3,,,,,,,,2,,,67,0
71659,note_on,19,0,3,,,,,,,,2,,,75,0
71659,note_on,19,0,1,,,,,,,,0,,,82,0
71659,note_on,19,0,2,,,,,,,,1,,,79,0
71659,note_on,19,0,4,,,,,,,,3,,,63,0
71680,note_on,21,0,4,,,,,,,,3,,,56,48
71680,note_on,21,0,2,,,,,,,,1,,,72,48
71680,note_on,21,0,1,,,,,,,,0,,,84,49
71680,note_on,0,0,1,,,,,,,,0,,,87,49
71680,note_on,0,0,5,,,,,,,,4,,,63,48
71680,note_on,21,0,5,,,,,,,,4,,,51,48
71680,note_on,261,0,11,,,,,,,,7,,,56,48
71680,note_on,261,0,9,,,,,,,,7,,,60,48
71680,note_on,261,0,8,,,,,,,,7,,,75,47
71680,note_on,1681,0,12,,,,,,,,7,,,44,95
71680,note_on,0,0,3,,,,,,,,2,,,68,48
71680,note_on,21,0,3,,,,,,,,2,,,72,48
71680,note_on,0,0,2,,,,,,,,1,,,80,48
71680,note_on,261,0,10,,,,,,,,7,,,56,48
71699,note_on,0,0,2,,,,,,,,1,,,72,0
71699,note_on,19,0,2,,,,,,,,1,,,80,0
71699,note_on,19,0,1,,,,,,,,0,,,87,0
71699,note_on,0,0,1,,,,,,,,0,,,84,0
71699,note_on,19,0,4,,,,,,,,3,,,56,0
71699,note_on,19,0,8,,,,,,,,7,,,75,0
71699,note_on,19,0,11,,,,,,,,7,,,56,0
71699,note_on,0,0,5,,,,,,,,4,,,51,0
71699,note_on,19,0,5,,,,,,,,4,,,63,0
71699,note_on,19,0,10,,,,,,,,7,,,56,0
71699,note_on,0,0,3,,,,,,,,2,,,72,0
71699,note_on,19,0,3,,,,,,,,2,,,68,0
71699,note_on,19,0,9,,,,,,,,7,,,60,0
71699,note_on,19,0,12,,,,,,,,7,,,44,0
71720,note_on,0,0,3,,,,,,,,2,,,67,48
71720,note_on,0,0,2,,,,,,,,1,,,79,48
71720,note_on,21,0,2,,,,,,,,1,,,70,48
71720,note_on,21,0,9,,,,,,,,7,,,58,48
71720,note_on,21,0,11,,,,,,,,7,,,51,48
71720,note_on,21,0,3,,,,,,,,2,,,70,48
71720,note_on,21,0,12,,,,,,,,7,,,39,95
71720,note_on,0,0,1,,,,,,,,0,,,82,49
71720,note_on,21,0,4,,,,,,,,3,,,51,48
71720,note_on,0,0,5,,,,,,,,4,,,63,48
71720,note_on,21,0,5,,,,,,,,4,,,51,48
71720,note_on,21,0,8,,,,,,,,7,,,75,47
71720,note_on,21,0,1,,,,,,,,0,,,87,49
71720,note_on,21,0,10,,,,,,,,7,,,55,48
71739,note_on,19,0,8,,,,,,,,7,,,75,0
71739,note_on,19,0,10,,,,,,,,7,,,55,0
71739,note_on,19,0,2,,,,,,,,1,,,79,0
71739,note_on,0,0,5,,,,,,,,4,,,51,0
71739,note_on,19,0,1,,,,,,,,0,,,82,0
71739,note_on,0,0,2,,,,,,,,1,,,70,0
71739,note_on,19,0,11,,,,,,,,7,,,51,0
71739,note_on,19,0,12,,,,,,,,7,,,39,0
71739,note_on,19,0,9,,,,,,,,7,,,58,0
71739,note_on,0,0,1,,,,,,,,0,,,87,0
71739,note_on,19,0,5,,,,,,,,4,,,63,0
71739,note_on,19,0,4,,,,,,,,3,,,51,0
71739,note_on,19,0,3,,,,,,,,2,,,67,0
71739,note_on,0,0,3,,,,,,,,2,,,70,0
71760,note_on,0,0,2,,,,,,,,1,,,80,48
71760,note_on,21,0,4,,,,,,,,3,,,56,48
71760,note_on,21,0,3,,,,,,,,2,,,72,48
71760,note_on,21,0,1,,,,,,,,0,,,84,49
71760,note_on,0,0,1,,,,,,,,0,,,87,49
71760,note_on,21,0,2,,,,,,,,1,,,72,48
71760,note_on,0,0,3,,,,,,,,2,,,68,48
71760,note_on,21,0,10,,,,,,,,7,,,56,48
71760,note_on,21,0,9,,,,,,,,7,,,60,48
71760,note_on,21,0,11,,,,,,,,7,,,56,48
71760,note_on,21,0,12,,,,,,,,7,,,44,95
71760,note_on,21,0,8,,,,,,,,7,,,75,47
71760,note_on,0,0,5,,,,,,,,4,,,63,48
71760,note_on,21,0,5,,,,,,,,4,,,51,48
71779,note_on,0,0,5,,,,,,,,4,,,51,0
71779,note_on,19,0,5,,,,,,,,4,,,63,0
71779,note_on,19,0,10,,,,,,,,7,,,56,0
71779,note_on,19,0,11,,,,,,,,7,,,56,0
71779,note_on,19,0,12,,,,,,,,7,,,44,0
71779,note_on,19,0,8,,,,,,,,7,,,75,0
71779,note_on,0,0,2,,,,,,,,1,,,72,0
71779,note_on,19,0,2,,,,,,,,1,,,80,0
71779,note_on,19,0,3,,,,,,,,2,,,68,0
71779,note_on,19,0,9,,,,,,,,7,,,60,0
71779,note_on,0,0,3,,,,,,,,2,,,72,0
71779,note_on,19,0,4,,,,,,,,3,,,56,0
71779,note_on,19,0,1,,,,,,,,0,,,87,0
71779,note_on,0,0,1,,,,,,,,0,,,84,0
71800,note_on,21,0,3,,,,,,,,2,,,70,48
71800,note_on,0,0,3,,,,,,,,2,,,67,48
71800,note_on,21,0,11,,,,,,,,7,,,51,48
71800,note_on,21,0,8,,,,,,,,7,,,75,47
71800,note_on,21,0,12,,,,,,,,7,,,39,95
71800,note_on,21,0,5,,,,,,,,4,,,51,48
71800,note_on,0,0,5,,,,,,,,4,,,63,48
71800,note_on,21,0,4,,,,,,,,3,,,58,48
71800,note_on,0,0,2,,,,,,,,1,,,79,48
71800,note_on,0,0,4,,,,,,,,3,,,55,48
71800,note_on,21,0,9,,,,,,,,7,,,58,48
71800,note_on,21,0,10,,,,,,,,7,,,55,48
71800,note_on,0,0,1,,,,,,,,0,,,87,49
71800,note_on,21,0,1,,,,,,,,0,,,82,49
71800,note_on,21,0,2,,,,,,,,1,,,70,48
71819,note_on,19,0,2,,,,,,,,1,,,79,0
71819,note_on,19,0,9,,,,,,,,7,,,58,0
71819,note_on,19,0,3,,,,,,,,2,,,67,0
71819,note_on,0,0,3,,,,,,,,2,,,70,0
71819,note_on,19,0,11,,,,,,,,7,,,51,0
71819,note_on,19,0,10,,,,,,,,7,,,55,0
71819,note_on,19,0,4,,,,,,,,3,,,55,0
71819,note_on,19,0,8,,,,,,,,7,,,75,0
71819,note_on,0,0,4,,,,,,,,3,,,58,0
71819,note_on,19,0,12,,,,,,,,7,,,39,0
71819,note_on,0,0,5,,,,,,,,4,,,51,0
71819,note_on,0,0,1,,,,,,,,0,,,82,0
71819,note_on,0,0,2,,,,,,,,1,,,70,0
71819,note_on,19,0,5,,,,,,,,4,,,63,0
71819,note_on,19,0,1,,,,,,,,0,,,87,0
71840,note_on,21,0,2,,,,,,,,1,,,72,48
71840,note_on,0,0,2,,,,,,,,1,,,80,48
71840,note_on,21,0,10,,,,,,,,7,,,56,48
71840,note_on,21,0,4,,,,,,,,3,,,56,48
71840,note_on,21,0,1,,,,,,,,0,,,84,49
71840,note_on,21,0,12,,,,,,,,7,,,44,95
71840,note_on,21,0,5,,,,,,,,4,,,51,48
71840,note_on,0,0,3,,,,,,,,2,,,68,48
71840,note_on,0,0,1,,,,,,,,0,,,87,49
71840,note_on,0,0,4,,,,,,,,3,,,60,48
71840,note_on,21,0,3,,,,,,,,2,,,72,48
71840,note_on,0,0,5,,,,,,,,4,,,63,48
71840,note_on,21,0,9,,,,,,,,7,,,60,48
71840,note_on,21,0,8,,,,,,,,7,,,75,47
71840,note_on,21,0,11,,,,,,,,7,,,56,48
71859,note_on,0,0,3,,,,,,,,2,,,72,0
71859,note_on,19,0,4,,,,,,,,3,,,60,0
71859,note_on,19,0,5,,,,,,,,4,,,63,0
71859,note_on,19,0,3,,,,,,,,2,,,68,0
71859,note_on,19,0,8,,,,,,,,7,,,75,0
71859,note_on,0,0,5,,,,,,,,4,,,51,0
71859,note_on,0,0,1,,,,,,,,0,,,84,0
71859,note_on,19,0,1,,,,,,,,0,,,87,0
71859,note_on,19,0,2,,,,,,,,1,,,80,0
71859,note_on,19,0,12,,,,,,,,7,,,44,0
71859,note_on,19,0,10,,,,,,,,7,,,56,0
71859,note_on,19,0,11,,,,,,,,7,,,56,0
71859,note_on,19,0,9,,,,,,,,7,,,60,0
71859,note_on,0,0,2,,,,,,,,1,,,72,0
71859,note_on,0,0,4,,,,,,,,3,,,56,0
71880,note_on,21,0,5,,,,,,,,4,,,51,48
71880,note_on,0,0,4,,,,,,,,3,,,55,48
71880,note_on,21,0,9,,,,,,,,7,,,58,48
71880,note_on,21,0,3,,,,,,,,2,,,70,48
71880,note_on,21,0,4,,,,,,,,3,,,58,48
71880,note_on,0,0,5,,,,,,,,4,,,63,48
71880,note_on,0,0,1,,,,,,,,0,,,87,49
71880,note_on,21,0,8,,,,,,,,7,,,75,47
71880,note_on,21,0,12,,,,,,,,7,,,39,95
71880,note_on,0,0,2,,,,,,,,1,,,79,48
71880,note_on,21,0,2,,,,,,,,1,,,70,48
71880,note_on,21,0,11,,,,,,,,7,,,51,48
71880,note_on,21,0,10,,,,,,,,7,,,51,48
71880,note_on,0,0,3,,,,,,,,2,,,67,48
71880,note_on,21,0,1,,,,,,,,0,,,82,49
71899,note_on,19,0,8,,,,,,,,7,,,75,0
71899,note_on,19,0,4,,,,,,,,3,,,55,0
71899,note_on,0,0,4,,,,,,,,3,,,58,0
71899,note_on,0,0,5,,,,,,,,4,,,51,0
71899,note_on,19,0,5,,,,,,,,4,,,63,0
71899,note_on,19,0,9,,,,,,,,7,,,58,0
71899,note_on,19,0,10,,,,,,,,7,,,51,0
71899,note_on,19,0,3,,,,,,,,2,,,67,0
71899,note_on,0,0,3,,,,,,,,2,,,70,0
71899,note_on,19,0,1,,,,,,,,0,,,87,0
71899,note_on,0,0,1,,,,,,,,0,,,82,0
71899,note_on,0,0,2,,,,,,,,1,,,70,0
71899,note_on,19,0,12,,,,,,,,7,,,39,0
71899,note_on,19,0,2,,,,,,,,1,,,79,0
71899,note_on,19,0,11,,,,,,,,7,,,51,0
71900,note_on,1,0,9,,,,,,,,7,,,58,48
71919,note_on,19,0,9,,,,,,,,7,,,58,0
71920,note_on,1,0,9,,,,,,,,7,,,58,48
71920,note_on,21,0,8,,,,,,,,7,,,79,47
71939,note_on,19,0,9,,,,,,,,7,,,58,0
71939,note_on,19,0,8,,,,,,,,7,,,79,0
71940,note_on,1,0,9,,,,,,,,7,,,58,48
71959,note_on,19,0,9,,,,,,,,7,,,58,0
71960,note_on,21,0,8,,,,,,,,7,,,74,47
71960,note_on,1,0,9,,,,,,,,7,,,59,48
71979,note_on,19,0,8,,,,,,,,7,,,74,0
71979,note_on,19,0,9,,,,,,,,7,,,59,0
71980,note_on,1,0,9,,,,,,,,7,,,59,48
71999,note_on,19,0,9,,,,,,,,7,,,59,0
72000,note_on,101,0,4,,,,,,,,3,,,56,48
72000,note_on,101,0,10,,,,,,,,7,,,56,48
72000,note_on,21,0,8,,,,,,,,7,,,75,47
72000,note_on,1,0,9,,,,,,,,7,,,60,48
72019,note_on,19,0,8,,,,,,,,7,,,75,0
72019,note_on,19,0,9,,,,,,,,7,,,60,0
72020,note_on,1,0,9,,,,,,,,7,,,60,48
72039,note_on,39,0,4,,,,,,,,3,,,56,0
72039,note_on,39,0,10,,,,,,,,7,,,56,0
72039,note_on,19,0,9,,,,,,,,7,,,60,0
72040,note_on,21,0,8,,,,,,,,7,,,71,47
72040,note_on,1,0,9,,,,,,,,7,,,62,48
72059,note_on,19,0,9,,,,,,,,7,,,62,0
72059,note_on,19,0,8,,,,,,,,7,,,71,0
72060,note_on,1,0,9,,,,,,,,7,,,62,48
72079,note_on,19,0,9,,,,,,,,7,,,62,0
72080,note_on,1,0,9,,,,,,,,7,,,63,48
72080,note_on,21,0,8,,,,,,,,7,,,72,47
72099,note_on,19,0,9,,,,,,,,7,,,63,0
72099,note_on,19,0,8,,,,,,,,7,,,72,0
72100,note_on,1,0,9,,,,,,,,7,,,63,48
72119,note_on,19,0,9,,,,,,,,7,,,63,0
72120,note_on,81,0,10,,,,,,,,7,,,51,48
72120,note_on,81,0,4,,,,,,,,3,,,53,48
72120,note_on,21,0,8,,,,,,,,7,,,68,47
72120,note_on,1,0,9,,,,,,,,7,,,65,48
72139,note_on,19,0,8,,,,,,,,7,,,68,0
72139,note_on,19,0,9,,,,,,,,7,,,65,0
72140,note_on,1,0,9,,,,,,,,7,,,65,48
72159,note_on,39,0,10,,,,,,,,7,,,51,0
72159,note_on,39,0,4,,,,,,,,3,,,53,0
72159,note_on,19,0,9,,,,,,,,7,,,65,0
72160,note_on,21,0,8,,,,,,,,7,,,80,47
72160,note_on,1,0,9,,,,,,,,7,,,60,48
72179,note_on,19,0,8,,,,,,,,7,,,80,0
72179,note_on,19,0,9,,,,,,,,7,,,60,0
72180,note_on,1,0,9,,,,,,,,7,,,60,48
72199,note_on,19,0,9,,,,,,,,7,,,60,0
72200,note_on,21,0,8,,,,,,,,7,,,76,47
72200,note_on,1,0,9,,,,,,,,7,,,61,48
72219,note_on,19,0,8,,,,,,,,7,,,76,0
72219,note_on,19,0,9,,,,,,,,7,,,61,0
72220,note_on,1,0,9,,,,,,,,7,,,61,48
72239,note_on,19,0,9,,,,,,,,7,,,61,0
72240,note_on,81,0,10,,,,,,,,7,,,58,48
72240,note_on,1,0,9,,,,,,,,7,,,62,48
72240,note_on,81,0,4,,,,,,,,3,,,58,48
72240,note_on,21,0,8,,,,,,,,7,,,77,47
72259,note_on,19,0,9,,,,,,,,7,,,62,0
72259,note_on,19,0,8,,,,,,,,7,,,77,0
72260,note_on,1,0,9,,,,,,,,7,,,62,48
72279,note_on,19,0,9,,,,,,,,7,,,62,0
72279,note_on,39,0,10,,,,,,,,7,,,58,0
72279,note_on,39,0,4,,,,,,,,3,,,58,0
72280,note_on,1,0,9,,,,,,,,7,,,63,48
72280,note_on,21,0,8,,,,,,,,7,,,73,47
72299,note_on,19,0,9,,,,,,,,7,,,63,0
72299,note_on,19,0,8,,,,,,,,7,,,73,0
72300,note_on,1,0,9,,,,,,,,7,,,63,48
72319,note_on,19,0,9,,,,,,,,7,,,63,0
72320,note_on,1,0,9,,,,,,,,7,,,65,48
72320,note_on,21,0,8,,,,,,,,7,,,74,47
72339,note_on,19,0,9,,,,,,,,7,,,65,0
72339,note_on,19,0,8,,,,,,,,7,,,74,0
72340,note_on,1,0,9,,,,,,,,7,,,65,48
72359,note_on,19,0,9,,,,,,,,7,,,65,0
72360,note_on,21,0,8,,,,,,,,7,,,70,47
72360,note_on,1,0,9,,,,,,,,7,,,67,48
72360,note_on,81,0,10,,,,,,,,7,,,51,48
72360,note_on,81,0,4,,,,,,,,3,,,55,48
72379,note_on,19,0,8,,,,,,,,7,,,70,0
72379,note_on,19,0,9,,,,,,,,7,,,67,0
72380,note_on,1,0,9,,,,,,,,7,,,67,48
72399,note_on,39,0,10,,,,,,,,7,,,51,0
72399,note_on,19,0,9,,,,,,,,7,,,67,0
72399,note_on,39,0,4,,,,,,,,3,,,55,0
72400,note_on,21,0,8,,,,,,,,7,,,82,47
72400,note_on,1,0,9,,,,,,,,7,,,61,48
72419,note_on,19,0,9,,,,,,,,7,,,61,0
72419,note_on,19,0,8,,,,,,,,7,,,82,0
72420,note_on,1,0,9,,,,,,,,7,,,61,48
72439,note_on,19,0,9,,,,,,,,7,,,61,0
72440,note_on,21,0,8,,,,,,,,7,,,78,47
72440,note_on,1,0,9,,,,,,,,7,,,62,48
72459,note_on,19,0,9,,,,,,,,7,,,62,0
72459,note_on,19,0,8,,,,,,,,7,,,78,0
72460,note_on,1,0,9,,,,,,,,7,,,62,48
72479,note_on,19,0,9,,,,,,,,7,,,62,0
72480,note_on,81,0,10,,,,,,,,7,,,60,48
72480,note_on,81,0,4,,,,,,,,3,,,60,48
72480,note_on,21,0,8,,,,,,,,7,,,79,47
72480,note_on,1,0,9,,,,,,,,7,,,63,48
72499,note_on,19,0,8,,,,,,,,7,,,79,0
72499,note_on,19,0,9,,,,,,,,7,,,63,0
72500,note_on,1,0,9,,,,,,,,7,,,63,48
72519,note_on,39,0,4,,,,,,,,3,,,60,0
72519,note_on,39,0,10,,,,,,,,7,,,60,0
72519,note_on,19,0,9,,,,,,,,7,,,63,0
72520,note_on,21,0,8,,,,,,,,7,,,74,47
72520,note_on,1,0,9,,,,,,,,7,,,65,48
72539,note_on,19,0,8,,,,,,,,7,,,74,0
72539,note_on,19,0,9,,,,,,,,7,,,65,0
72540,note_on,1,0,9,,,,,,,,7,,,65,48
72559,note_on,19,0,9,,,,,,,,7,,,65,0
72560,note_on,1,0,9,,,,,,,,7,,,67,48
72560,note_on,21,0,8,,,,,,,,7,,,75,47
72579,note_on,19,0,9,,,,,,,,7,,,67,0
72579,note_on,19,0,8,,,,,,,,7,,,75,0
72580,note_on,1,0,9,,,,,,,,7,,,67,48
72599,note_on,19,0,9,,,,,,,,7,,,67,0
72600,note_on,1,0,9,,,,,,,,7,,,68,48
72600,note_on,81,0,10,,,,,,,,7,,,56,48
72600,note_on,81,0,4,,,,,,,,3,,,56,48
72600,note_on,21,0,8,,,,,,,,7,,,72,47
72619,note_on,19,0,9,,,,,,,,7,,,68,0
72619,note_on,19,0,8,,,,,,,,7,,,72,0
72620,note_on,1,0,9,,,,,,,,7,,,68,48
72639,note_on,39,0,10,,,,,,,,7,,,56,0
72639,note_on,19,0,9,,,,,,,,7,,,68,0
72639,note_on,39,0,4,,,,,,,,3,,,56,0
72640,note_on,21,0,8,,,,,,,,7,,,67,47
72640,note_on,1,0,9,,,,,,,,7,,,64,48
72659,note_on,19,0,8,,,,,,,,7,,,67,0
72659,note_on,19,0,9,,,,,,,,7,,,64,0
72660,note_on,1,0,9,,,,,,,,7,,,64,48
72679,note_on,19,0,9,,,,,,,,7,,,64,0
72680,note_on,21,0,8,,,,,,,,7,,,68,47
72680,note_on,1,0,9,,,,,,,,7,,,65,48
72699,note_on,19,0,9,,,,,,,,7,,,65,0
72699,note_on,19,0,8,,,,,,,,7,,,68,0
72700,note_on,1,0,9,,,,,,,,7,,,65,48
72719,note_on,19,0,9,,,,,,,,7,,,65,0
72720,note_on,1,0,9,,,,,,,,7,,,74,48
72720,note_on,81,0,10,,,,,,,,7,,,58,48
72720,note_on,81,0,4,,,,,,,,3,,,58,48
72720,note_on,21,0,8,,,,,,,,7,,,65,47
72739,note_on,19,0,8,,,,,,,,7,,,65,0
72739,note_on,19,0,9,,,,,,,,7,,,74,0
72740,note_on,1,0,9,,,,,,,,7,,,74,48
72759,note_on,39,0,10,,,,,,,,7,,,58,0
72759,note_on,39,0,4,,,,,,,,3,,,58,0
72759,note_on,19,0,9,,,,,,,,7,,,74,0
72760,note_on,21,0,8,,,,,,,,7,,,62,47
72760,note_on,1,0,9,,,,,,,,7,,,80,48
72779,note_on,19,0,9,,,,,,,,7,,,80,0
72779,note_on,19,0,8,,,,,,,,7,,,62,0
72780,note_on,1,0,9,,,,,,,,7,,,80,48
72799,note_on,19,0,9,,,,,,,,7,,,80,0
72800,note_on,1,0,9,,,,,,,,7,,,74,48
72800,note_on,21,0,8,,,,,,,,7,,,70,47
72819,note_on,19,0,8,,,,,,,,7,,,70,0
72819,note_on,19,0,9,,,,,,,,7,,,74,0
72820,note_on,1,0,9,,,,,,,,7,,,74,48
72839,note_on,19,0,9,,,,,,,,7,,,74,0
72840,note_on,2841,0,6,,,,,,,,5,,,75,50
72840,note_on,941,0,12,,,,,,,,7,,,39,49
72840,note_on,0,0,5,,,,,,,,4,,,51,48
72840,note_on,941,0,5,,,,,,,,4,,,63,48
72840,note_on,1,0,9,,,,,,,,7,,,75,48
72840,note_on,0,0,2,,,,,,,,1,,,75,48
72840,note_on,941,0,2,,,,,,,,1,,,79,48
72840,note_on,21,0,8,,,,,,,,7,,,67,47
72840,note_on,81,0,4,,,,,,,,3,,,51,48
72840,note_on,0,0,1,,,,,,,,0,,,87,49
72840,note_on,941,0,1,,,,,,,,0,,,82,49
72840,note_on,81,0,10,,,,,,,,7,,,63,48
72840,note_on,0,0,3,,,,,,,,2,,,67,48
72840,note_on,941,0,3,,,,,,,,2,,,75,48
72840,note_on,2881,0,7,,,,,,,,6,,,51,48
72840,note_on,0,0,6,,,,,,,,5,,,63,50
72840,note_on,941,0,11,,,,,,,,7,,,51,48
72859,note_on,19,0,10,,,,,,,,7,,,63,0
72859,note_on,19,0,8,,,,,,,,7,,,67,0
72859,note_on,19,0,11,,,,,,,,7,,,51,0
72859,note_on,19,0,12,,,,,,,,7,,,39,0
72859,note_on,19,0,9,,,,,,,,7,,,75,0
72860,note_on,1,0,8,,,,,,,,7,,,67,47
72879,note_on,19,0,8,,,,,,,,7,,,67,0
72879,note_on,39,0,4,,,,,,,,3,,,51,0
72879,note_on,39,0,7,,,,,,,,6,,,51,0
72879,note_on,0,0,3,,,,,,,,2,,,75,0
72879,note_on,39,0,3,,,,,,,,2,,,67,0
72879,note_on,0,0,6,,,,,,,,5,,,75,0
72879,note_on,39,0,6,,,,,,,,5,,,63,0
72879,note_on,39,0,2,,,,,,,,1,,,75,0
72879,note_on,0,0,2,,,,,,,,1,,,79,0
72879,note_on,39,0,5,,,,,,,,4,,,51,0
72879,note_on,0,0,5,,,,,,,,4,,,63,0
72879,note_on,39,0,1,,,,,,,,0,,,87,0
72879,note_on,0,0,1,,,,,,,,0,,,82,0
72880,note_on,21,0,11,,,,,,,,7,,,54,48
72880,note_on,21,0,10,,,,,,,,7,,,67,48
72880,note_on,21,0,9,,,,,,,,7,,,70,48
72880,note_on,21,0,12,,,,,,,,7,,,43,49
72880,note_on,1,0,8,,,,,,,,7,,,70,47
72880,note_on,1,0,4,,,,,,,,3,,,58,48
72899,note_on,19,0,12,,,,,,,,7,,,43,0
72899,note_on,19,0,9,,,,,,,,7,,,70,0
72899,note_on,19,0,4,,,,,,,,3,,,58,0
72899,note_on,19,0,11,,,,,,,,7,,,54,0
72899,note_on,19,0,10,,,,,,,,7,,,67,0
72899,note_on,19,0,8,,,,,,,,7,,,70,0
72900,note_on,1,0,8,,,,,,,,7,,,70,47
72919,note_on,19,0,8,,,,,,,,7,,,70,0
72920,note_on,21,0,4,,,,,,,,3,,,59,48
72920,note_on,21,0,9,,,,,,,,7,,,65,48
72920,note_on,21,0,11,,,,,,,,7,,,50,48
72920,note_on,21,0,10,,,,,,,,7,,,62,48
72920,note_on,21,0,12,,,,,,,,7,,,38,49
72920,note_on,1,0,8,,,,,,,,7,,,71,47
72939,note_on,19,0,12,,,,,,,,7,,,38,0
72939,note_on,19,0,4,,,,,,,,3,,,59,0
72939,note_on,19,0,8,,,,,,,,7,,,71,0
72939,note_on,19,0,10,,,,,,,,7,,,62,0
72939,note_on,19,0,11,,,,,,,,7,,,50,0
72939,note_on,19,0,9,,,,,,,,7,,,65,0
72940,note_on,1,0,8,,,,,,,,7,,,71,47
72959,note_on,19,0,8,,,,,,,,7,,,71,0
72960,note_on,81,0,6,,,,,,,,5,,,63,50
72960,note_on,0,0,6,,,,,,,,5,,,75,50
72960,note_on,0,0,2,,,,,,,,1,,,79,48
72960,note_on,81,0,2,,,,,,,,1,,,75,48
72960,note_on,0,0,3,,,,,,,,2,,,67,48
72960,note_on,81,0,3,,,,,,,,2,,,72,48
72960,note_on,0,0,5,,,,,,,,4,,,63,48
72960,note_on,81,0,5,,,,,,,,4,,,51,48
72960,note_on,21,0,10,,,,,,,,7,,,63,48
72960,note_on,21,0,11,,,,,,,,7,,,51,48
72960,note_on,21,0,12,,,,,,,,7,,,39,49
72960,note_on,81,0,7,,,,,,,,6,,,51,48
72960,note_on,1,0,8,,,,,,,,7,,,72,47
72960,note_on,81,0,1,,,,,,,,0,,,87,49
72960,note_on,21,0,4,,,,,,,,3,,,51,48
72960,note_on,0,0,4,,,,,,,,3,,,60,48
72960,note_on,0,0,1,,,,,,,,0,,,84,49
72960,note_on,21,0,9,,,,,,,,7,,,67,48
72979,note_on,19,0,8,,,,,,,,7,,,72,0
72979,note_on,19,0,4,,,,,,,,3,,,60,0
72979,note_on,19,0,12,,,,,,,,7,,,39,0
72979,note_on,19,0,11,,,,,,,,7,,,51,0
72979,note_on,19,0,9,,,,,,,,7,,,67,0
72979,note_on,19,0,10,,,,,,,,7,,,63,0
72980,note_on,1,0,8,,,,,,,,7,,,72,47
72999,note_on,0,0,2,,,,,,,,1,,,75,0
72999,note_on,0,0,6,,,,,,,,5,,,63,0
72999,note_on,39,0,6,,,,,,,,5,,,75,0
72999,note_on,19,0,8,,,,,,,,7,,,72,0
72999,note_on,20,0,4,,,,,,,,3,,,51,0
72999,note_on,39,0,2,,,,,,,,1,,,79,0
72999,note_on,39,0,7,,,,,,,,6,,,51,0
72999,note_on,39,0,3,,,,,,,,2,,,67,0
72999,note_on,0,0,3,,,,,,,,2,,,72,0
72999,note_on,39,0,1,,,,,,,,0,,,84,0
72999,note_on,0,0,1,,,,,,,,0,,,87,0
72999,note_on,39,0,5,,,,,,,,4,,,63,0
72999,note_on,0,0,5,,,,,,,,4,,,51,0
73000,note_on,21,0,9,,,,,,,,7,,,67,48
73000,note_on,21,0,11,,,,,,,,7,,,47,48
73000,note_on,21,0,10,,,,,,,,7,,,59,48
73000,note_on,1,0,8,,,,,,,,7,,,74,47
73000,note_on,1,0,4,,,,,,,,3,,,62,48
73000,note_on,21,0,12,,,,,,,,7,,,35,49
73019,note_on,19,0,8,,,,,,,,7,,,74,0
73019,note_on,19,0,11,,,,,,,,7,,,47,0
73019,note_on,19,0,4,,,,,,,,3,,,62,0
73019,note_on,19,0,9,,,,,,,,7,,,67,0
73019,note_on,19,0,12,,,,,,,,7,,,35,0
73019,note_on,19,0,10,,,,,,,,7,,,59,0
73020,note_on,1,0,8,,,,,,,,7,,,74,47
73039,note_on,19,0,8,,,,,,,,7,,,74,0
73040,note_on,21,0,10,,,,,,,,7,,,60,48
73040,note_on,21,0,11,,,,,,,,7,,,48,48
73040,note_on,21,0,4,,,,,,,,3,,,63,48
73040,note_on,21,0,9,,,,,,,,7,,,67,48
73040,note_on,21,0,12,,,,,,,,7,,,36,49
73040,note_on,1,0,8,,,,,,,,7,,,75,47
73059,note_on,19,0,12,,,,,,,,7,,,36,0
73059,note_on,19,0,4,,,,,,,,3,,,63,0
73059,note_on,19,0,10,,,,,,,,7,,,60,0
73059,note_on,19,0,8,,,,,,,,7,,,75,0
73059,note_on,19,0,11,,,,,,,,7,,,48,0
73059,note_on,19,0,9,,,,,,,,7,,,67,0
73060,note_on,1,0,8,,,,,,,,7,,,75,47
73079,note_on,19,0,8,,,,,,,,7,,,75,0
73080,note_on,21,0,9,,,,,,,,7,,,60,48
73080,note_on,0,0,4,,,,,,,,3,,,65,48
73080,note_on,0,0,1,,,,,,,,0,,,84,49
73080,note_on,81,0,1,,,,,,,,0,,,89,49
73080,note_on,21,0,4,,,,,,,,3,,,44,48
73080,note_on,21,0,12,,,,,,,,7,,,32,49
73080,note_on,81,0,5,,,,,,,,4,,,65,48
73080,note_on,81,0,2,,,,,,,,1,,,72,48
73080,note_on,0,0,3,,,,,,,,2,,,72,48
73080,note_on,21,0,10,,,,,,,,7,,,56,48
73080,note_on,81,0,3,,,,,,,,2,,,56,48
73080,note_on,1,0,8,,,,,,,,7,,,77,47
73080,note_on,21,0,11,,,,,,,,7,,,44,48
73080,note_on,0,0,2,,,,,,,,1,,,77,48
73099,note_on,19,0,10,,,,,,,,7,,,56,0
73099,note_on,19,0,2,,,,,,,,1,,,77,0
73099,note_on,19,0,11,,,,,,,,7,,,44,0
73099,note_on,19,0,12,,,,,,,,7,,,32,0
73099,note_on,19,0,9,,,,,,,,7,,,60,0
73099,note_on,19,0,4,,,,,,,,3,,,65,0
73099,note_on,19,0,8,,,,,,,,7,,,77,0
73100,note_on,1,0,8,,,,,,,,7,,,77,47
73119,note_on,20,0,4,,,,,,,,3,,,44,0
73119,note_on,39,0,5,,,,,,,,4,,,65,0
73119,note_on,0,0,3,,,,,,,,2,,,56,0
73119,note_on,0,0,1,,,,,,,,0,,,89,0
73119,note_on,39,0,1,,,,,,,,0,,,84,0
73119,note_on,19,0,8,,,,,,,,7,,,77,0
73119,note_on,20,0,2,,,,,,,,1,,,72,0
73119,note_on,39,0,3,,,,,,,,2,,,72,0
73120,note_on,1,0,4,,,,,,,,3,,,60,48
73120,note_on,21,0,12,,,,,,,,7,,,44,49
73120,note_on,1,0,8,,,,,,,,7,,,72,47
73120,note_on,21,0,10,,,,,,,,7,,,68,48
73120,note_on,21,0,11,,,,,,,,7,,,56,48
73120,note_on,1,0,2,,,,,,,,1,,,72,48
73120,note_on,21,0,9,,,,,,,,7,,,72,48
73139,note_on,19,0,4,,,,,,,,3,,,60,0
73139,note_on,19,0,9,,,,,,,,7,,,72,0
73139,note_on,19,0,8,,,,,,,,7,,,72,0
73139,note_on,19,0,2,,,,,,,,1,,,72,0
73139,note_on,19,0,10,,,,,,,,7,,,68,0
73139,note_on,19,0,12,,,,,,,,7,,,44,0
73139,note_on,19,0,11,,,,,,,,7,,,56,0
73140,note_on,1,0,8,,,,,,,,7,,,72,47
73159,note_on,19,0,8,,,,,,,,7,,,72,0
73160,note_on,21,0,10,,,,,,,,7,,,64,48
73160,note_on,21,0,11,,,,,,,,7,,,52,48
73160,note_on,21,0,9,,,,,,,,7,,,67,48
73160,note_on,21,0,12,,,,,,,,7,,,40,49
73160,note_on,1,0,8,,,,,,,,7,,,73,47
73160,note_on,21,0,4,,,,,,,,3,,,61,48
73160,note_on,21,0,2,,,,,,,,1,,,73,48
73179,note_on,19,0,12,,,,,,,,7,,,40,0
73179,note_on,19,0,10,,,,,,,,7,,,64,0
73179,note_on,19,0,9,,,,,,,,7,,,67,0
73179,note_on,19,0,2,,,,,,,,1,,,73,0
73179,note_on,19,0,11,,,,,,,,7,,,52,0
73179,note_on,19,0,4,,,,,,,,3,,,61,0
73179,note_on,19,0,8,,,,,,,,7,,,73,0
73180,note_on,1,0,8,,,,,,,,7,,,73,47
73199,note_on,19,0,8,,,,,,,,7,,,73,0
73200,note_on,21,0,12,,,,,,,,7,,,41,49
73200,note_on,21,0,2,,,,,,,,1,,,68,48
73200,note_on,0,0,4,,,,,,,,3,,,62,48
73200,note_on,21,0,4,,,,,,,,3,,,53,48
73200,note_on,21,0,9,,,,,,,,7,,,68,48
73200,note_on,0,0,3,,,,,,,,2,,,65,48
73200,note_on,81,0,3,,,,,,,,2,,,74,48
73200,note_on,81,0,1,,,,,,,,0,,,80,49
73200,note_on,0,0,1,,,,,,,,0,,,86,49
73200,note_on,1,0,8,,,,,,,,7,,,74,47
73200,note_on,0,0,2,,,,,,,,1,,,74,48
73200,note_on,21,0,11,,,,,,,,7,,,53,48
73200,note_on,81,0,5,,,,,,,,4,,,65,48
73200,note_on,21,0,10,,,,,,,,7,,,65,48
73219,note_on,19,0,4,,,,,,,,3,,,62,0
73219,note_on,19,0,10,,,,,,,,7,,,65,0
73219,note_on,19,0,12,,,,,,,,7,,,41,0
73219,note_on,19,0,2,,,,,,,,1,,,74,0
73219,note_on,19,0,11,,,,,,,,7,,,53,0
73219,note_on,19,0,9,,,,,,,,7,,,68,0
73219,note_on,19,0,8,,,,,,,,7,,,74,0
73220,note_on,1,0,8,,,,,,,,7,,,74,47
73239,note_on,20,0,2,,,,,,,,1,,,68,0
73239,note_on,39,0,1,,,,,,,,0,,,86,0
73239,note_on,0,0,1,,,,,,,,0,,,80,0
73239,note_on,39,0,5,,,,,,,,4,,,65,0
73239,note_on,20,0,4,,,,,,,,3,,,53,0
73239,note_on,39,0,3,,,,,,,,2,,,65,0
73239,note_on,0,0,3,,,,,,,,2,,,74,0
73239,note_on,19,0,8,,,,,,,,7,,,74,0
73240,note_on,1,0,2,,,,,,,,1,,,76,48
73240,note_on,21,0,9,,,,,,,,7,,,56,48
73240,note_on,1,0,4,,,,,,,,3,,,64,48
73240,note_on,1,0,8,,,,,,,,7,,,76,47
73240,note_on,21,0,10,,,,,,,,7,,,61,48
73240,note_on,21,0,11,,,,,,,,7,,,49,48
73240,note_on,21,0,12,,,,,,,,7,,,37,49
73259,note_on,19,0,2,,,,,,,,1,,,76,0
73259,note_on,19,0,10,,,,,,,,7,,,61,0
73259,note_on,19,0,11,,,,,,,,7,,,49,0
73259,note_on,19,0,9,,,,,,,,7,,,56,0
73259,note_on,19,0,12,,,,,,,,7,,,37,0
73259,note_on,19,0,8,,,,,,,,7,,,76,0
73259,note_on,19,0,4,,,,,,,,3,,,64,0
73260,note_on,1,0,8,,,,,,,,7,,,76,47
73279,note_on,19,0,8,,,,,,,,7,,,76,0
73280,note_on,1,0,8,,,,,,,,7,,,77,47
73280,note_on,21,0,12,,,,,,,,7,,,38,49
73280,note_on,21,0,2,,,,,,,,1,,,77,48
73280,note_on,21,0,11,,,,,,,,7,,,50,48
73280,note_on,21,0,10,,,,,,,,7,,,62,48
73280,note_on,21,0,9,,,,,,,,7,,,68,48
73280,note_on,21,0,4,,,,,,,,3,,,65,48
73299,note_on,19,0,2,,,,,,,,1,,,77,0
73299,note_on,19,0,8,,,,,,,,7,,,77,0
73299,note_on,19,0,9,,,,,,,,7,,,68,0
73299,note_on,19,0,12,,,,,,,,7,,,38,0
73299,note_on,19,0,4,,,,,,,,3,,,65,0
73299,note_on,19,0,10,,,,,,,,7,,,62,0
73299,note_on,19,0,11,,,,,,,,7,,,50,0
73300,note_on,1,0,8,,,,,,,,7,,,77,47
73319,note_on,19,0,8,,,,,,,,7,,,77,0
73320,note_on,21,0,2,,,,,,,,1,,,74,49
73320,note_on,0,0,2,,,,,,,,1,,,79,49
73320,note_on,21,0,4,,,,,,,,3,,,46,47
73320,note_on,321,0,7,,,,,,,,6,,,46,47
73320,note_on,21,0,12,,,,,,,,7,,,34,49
73320,note_on,1,0,8,,,,,,,,7,,,79,46
73320,note_on,81,0,1,,,,,,,,0,,,91,48
73320,note_on,0,0,1,,,,,,,,0,,,86,48
73320,note_on,21,0,10,,,,,,,,7,,,58,47
73320,note_on,81,0,3,,,,,,,,2,,,67,46
73320,note_on,321,0,6,,,,,,,,5,,,58,49
73320,note_on,0,0,6,,,,,,,,5,,,70,49
73320,note_on,0,0,3,,,,,,,,2,,,74,46
73320,note_on,81,0,5,,,,,,,,4,,,67,46
73320,note_on,0,0,4,,,,,,,,3,,,67,47
73320,note_on,21,0,11,,,,,,,,7,,,46,48
73320,note_on,21,0,9,,,,,,,,7,,,62,47
73339,note_on,19,0,2,,,,,,,,1,,,79,0
73339,note_on,19,0,3,,,,,,,,2,,,74,0
73339,note_on,19,0,8,,,,,,,,7,,,79,0
73339,note_on,19,0,4,,,,,,,,3,,,67,0
73339,note_on,0,0,3,,,,,,,,2,,,67,0
73339,note_on,19,0,11,,,,,,,,7,,,46,0
73339,note_on,0,0,2,,,,,,,,1,,,74,0
73339,note_on,19,0,10,,,,,,,,7,,,58,0
73339,note_on,19,0,9,,,,,,,,7,,,62,0
73339,note_on,19,0,12,,,,,,,,7,,,34,0
73340,note_on,1,0,8,,,,,,,,7,,,79,49
73359,note_on,0,0,6,,,,,,,,5,,,58,0
73359,note_on,19,0,8,,,,,,,,7,,,79,0
73359,note_on,39,0,7,,,,,,,,6,,,46,0
73359,note_on,39,0,6,,,,,,,,5,,,70,0
73359,note_on,39,0,5,,,,,,,,4,,,67,0
73359,note_on,20,0,4,,,,,,,,3,,,46,0
73359,note_on,39,0,1,,,,,,,,0,,,86,0
73359,note_on,0,0,1,,,,,,,,0,,,91,0
73360,note_on,21,0,3,,,,,,,,2,,,61,53
73360,note_on,21,0,11,,,,,,,,7,,,58,55
73360,note_on,21,0,9,,,,,,,,7,,,67,53
73360,note_on,21,0,10,,,,,,,,7,,,70,53
73360,note_on,0,0,3,,,,,,,,2,,,73,53
73360,note_on,21,0,12,,,,,,,,7,,,46,55
73360,note_on,1,0,8,,,,,,,,7,,,73,53
73379,note_on,19,0,12,,,,,,,,7,,,46,0
73379,note_on,0,0,3,,,,,,,,2,,,61,0
73379,note_on,19,0,11,,,,,,,,7,,,58,0
73379,note_on,19,0,9,,,,,,,,7,,,67,0
73379,note_on,19,0,3,,,,,,,,2,,,73,0
73379,note_on,19,0,8,,,,,,,,7,,,73,0
73379,note_on,19,0,10,,,,,,,,7,,,70,0
73380,note_on,1,0,8,,,,,,,,7,,,73,56
73399,note_on,19,0,8,,,,,,,,7,,,73,0
73400,note_on,1,0,8,,,,,,,,7,,,74,59
73400,note_on,21,0,9,,,,,,,,7,,,58,60
73400,note_on,0,0,3,,,,,,,,2,,,74,60
73400,note_on,21,0,11,,,,,,,,7,,,54,61
73400,note_on,21,0,3,,,,,,,,2,,,62,60
73400,note_on,21,0,12,,,,,,,,7,,,42,62
73400,note_on,21,0,10,,,,,,,,7,,,66,60
73419,note_on,19,0,3,,,,,,,,2,,,74,0
73419,note_on,19,0,12,,,,,,,,7,,,42,0
73419,note_on,0,0,3,,,,,,,,2,,,62,0
73419,note_on,19,0,9,,,,,,,,7,,,58,0
73419,note_on,19,0,8,,,,,,,,7,,,74,0
73419,note_on,19,0,11,,,,,,,,7,,,54,0
73419,note_on,19,0,10,,,,,,,,7,,,66,0
73420,note_on,1,0,8,,,,,,,,7,,,74,63
73439,note_on,19,0,8,,,,,,,,7,,,74,0
73440,note_on,81,0,1,,,,,,,,0,,,82,68
73440,note_on,0,0,1,,,,,,,,0,,,87,68
73440,note_on,0,0,3,,,,,,,,2,,,63,66
73440,note_on,21,0,10,,,,,,,,7,,,67,66
73440,note_on,81,0,6,,,,,,,,5,,,70,69
73440,note_on,21,0,3,,,,,,,,2,,,75,66
73440,note_on,21,0,11,,,,,,,,7,,,55,67
73440,note_on,1,0,8,,,,,,,,7,,,75,66
73440,note_on,21,0,12,,,,,,,,7,,,43,68
73440,note_on,81,0,7,,,,,,,,6,,,46,67
73440,note_on,81,0,4,,,,,,,,3,,,55,67
73440,note_on,81,0,5,,,,,,,,4,,,67,66
73440,note_on,21,0,9,,,,,,,,7,,,70,66
73440,note_on,0,0,6,,,,,,,,5,,,58,69
73459,note_on,19,0,9,,,,,,,,7,,,70,0
73459,note_on,19,0,8,,,,,,,,7,,,75,0
73459,note_on,19,0,12,,,,,,,,7,,,43,0
73459,note_on,0,0,3,,,,,,,,2,,,75,0
73459,note_on,19,0,3,,,,,,,,2,,,63,0
73459,note_on,19,0,11,,,,,,,,7,,,55,0
73459,note_on,19,0,10,,,,,,,,7,,,67,0
73460,note_on,1,0,8,,,,,,,,7,,,75,69
73479,note_on,39,0,7,,,,,,,,6,,,46,0
73479,note_on,39,0,4,,,,,,,,3,,,55,0
73479,note_on,19,0,8,,,,,,,,7,,,75,0
73479,note_on,0,0,6,,,,,,,,5,,,70,0
73479,note_on,39,0,6,,,,,,,,5,,,58,0
73479,note_on,39,0,1,,,,,,,,0,,,87,0
73479,note_on,0,0,1,,,,,,,,0,,,82,0
73479,note_on,39,0,5,,,,,,,,4,,,67,0
73480,note_on,21,0,3,,,,,,,,2,,,77,73
73480,note_on,21,0,11,,,,,,,,7,,,50,74
73480,note_on,21,0,10,,,,,,,,7,,,62,73
73480,note_on,1,0,8,,,,,,,,7,,,77,73
73480,note_on,21,0,12,,,,,,,,7,,,38,74
73480,note_on,21,0,9,,,,,,,,7,,,58,73
73480,note_on,0,0,3,,,,,,,,2,,,65,73
73499,note_on,0,0,3,,,,,,,,2,,,77,0
73499,note_on,19,0,10,,,,,,,,7,,,62,0
73499,note_on,19,0,12,,,,,,,,7,,,38,0
73499,note_on,19,0,11,,,,,,,,7,,,50,0
73499,note_on,19,0,3,,,,,,,,2,,,65,0
73499,note_on,19,0,9,,,,,,,,7,,,58,0
73499,note_on,19,0,8,,,,,,,,7,,,77,0
73500,note_on,1,0,8,,,,,,,,7,,,77,76
73519,note_on,19,0,8,,,,,,,,7,,,77,0
73520,note_on,21,0,10,,,,,,,,7,,,63,79
73520,note_on,21,0,9,,,,,,,,7,,,70,80
73520,note_on,0,0,3,,,,,,,,2,,,67,80
73520,note_on,1,0,8,,,,,,,,7,,,79,80
73520,note_on,21,0,12,,,,,,,,7,,,39,81
73520,note_on,21,0,3,,,,,,,,2,,,79,80
73520,note_on,21,0,11,,,,,,,,7,,,51,80
73539,note_on,19,0,12,,,,,,,,7,,,39,0
73539,note_on,19,0,8,,,,,,,,7,,,79,0
73539,note_on,0,0,3,,,,,,,,2,,,79,0
73539,note_on,19,0,9,,,,,,,,7,,,70,0
73539,note_on,19,0,3,,,,,,,,2,,,67,0
73539,note_on,19,0,10,,,,,,,,7,,,63,0
73539,note_on,19,0,11,,,,,,,,7,,,51,0
73540,note_on,1,0,8,,,,,,,,7,,,79,83
73559,note_on,19,0,8,,,,,,,,7,,,79,0
73560,note_on,81,0,7,,,,,,,,6,,,51,88
73560,note_on,21,0,3,,,,,,,,2,,,68,86
73560,note_on,21,0,9,,,,,,,,7,,,63,86
73560,note_on,81,0,5,,,,,,,,4,,,51,86
73560,note_on,0,0,5,,,,,,,,4,,,63,86
73560,note_on,0,0,1,,,,,,,,0,,,87,87
73560,note_on,81,0,1,,,,,,,,0,,,84,87
73560,note_on,0,0,6,,,,,,,,5,,,63,88
73560,note_on,0,0,3,,,,,,,,2,,,80,86
73560,note_on,21,0,12,,,,,,,,7,,,36,87
73560,note_on,1,0,8,,,,,,,,7,,,80,86
73560,note_on,81,0,6,,,,,,,,5,,,75,88
73560,note_on,21,0,11,,,,,,,,7,,,48,86
73560,note_on,21,0,10,,,,,,,,7,,,60,86
73560,note_on,81,0,4,,,,,,,,3,,,48,87
73579,note_on,0,0,3,,,,,,,,2,,,68,0
73579,note_on,19,0,3,,,,,,,,2,,,80,0
73579,note_on,19,0,9,,,,,,,,7,,,63,0
73579,note_on,19,0,10,,,,,,,,7,,,60,0
73579,note_on,19,0,12,,,,,,,,7,,,36,0
73579,note_on,19,0,11,,,,,,,,7,,,48,0
73579,note_on,19,0,8,,,,,,,,7,,,80,0
73580,note_on,1,0,8,,,,,,,,7,,,80,90
73599,note_on,19,0,8,,,,,,,,7,,,80,0
73599,note_on,0,0,6,,,,,,,,5,,,75,0
73599,note_on,39,0,6,,,,,,,,5,,,63,0
73599,note_on,39,0,4,,,,,,,,3,,,48,0
73599,note_on,0,0,1,,,,,,,,0,,,84,0
73599,note_on,39,0,1,,,,,,,,0,,,87,0
73599,note_on,39,0,7,,,,,,,,6,,,51,0
73599,note_on,39,0,5,,,,,,,,4,,,63,0
73599,note_on,0,0,5,,,,,,,,4,,,51,0
73600,note_on,21,0,9,,,,,,,,7,,,72,93
73600,note_on,1,0,8,,,,,,,,7,,,80,93
73600,note_on,21,0,11,,,,,,,,7,,,43,93
73600,note_on,21,0,10,,,,,,,,7,,,55,93
73600,note_on,1,0,4,,,,,,,,3,,,43,93
73600,note_on,21,0,12,,,,,,,,7,,,31,93
73619,note_on,19,0,12,,,,,,,,7,,,31,0
73619,note_on,19,0,10,,,,,,,,7,,,55,0
73619,note_on,19,0,8,,,,,,,,7,,,80,0
73619,note_on,19,0,9,,,,,,,,7,,,72,0
73619,note_on,19,0,11,,,,,,,,7,,,43,0
73620,note_on,1,0,8,,,,,,,,7,,,80,96
73639,note_on,19,0,8,,,,,,,,7,,,80,0
73639,note_on,39,0,4,,,,,,,,3,,,43,0
73640,note_on,21,0,9,,,,,,,,7,,,72,99
73640,note_on,1,0,8,,,,,,,,7,,,80,100
73640,note_on,21,0,12,,,,,,,,7,,,32,100
73640,note_on,21,0,10,,,,,,,,7,,,56,99
73640,note_on,1,0,4,,,,,,,,3,,,44,100
73640,note_on,21,0,11,,,,,,,,7,,,44,99
73659,note_on,19,0,11,,,,,,,,7,,,44,0
73659,note_on,19,0,9,,,,,,,,7,,,72,0
73659,note_on,19,0,12,,,,,,,,7,,,32,0
73659,note_on,19,0,8,,,,,,,,7,,,80,0
73659,note_on,19,0,10,,,,,,,,7,,,56,0
73660,note_on,1,0,8,,,,,,,,7,,,80,103
73679,note_on,19,0,8,,,,,,,,7,,,80,0
73679,note_on,39,0,4,,,,,,,,3,,,44,0
73680,note_on,81,0,7,,,,,,,,6,,,46,108
73680,note_on,21,0,11,,,,,,,,7,,,41,105
73680,note_on,1,0,4,,,,,,,,3,,,41,106
73680,note_on,81,0,6,,,,,,,,5,,,58,108
73680,note_on,21,0,12,,,,,,,,7,,,29,106
73680,note_on,1,0,8,,,,,,,,7,,,80,107
73680,note_on,0,0,6,,,,,,,,5,,,70,108
73680,note_on,21,0,9,,,,,,,,7,,,74,106
73680,note_on,21,0,10,,,,,,,,7,,,53,106
73680,note_on,81,0,5,,,,,,,,4,,,46,106
73680,note_on,0,0,5,,,,,,,,4,,,58,106
73699,note_on,19,0,9,,,,,,,,7,,,74,0
73699,note_on,19,0,12,,,,,,,,7,,,29,0
73699,note_on,19,0,8,,,,,,,,7,,,80,0
73699,note_on,19,0,10,,,,,,,,7,,,53,0
73699,note_on,19,0,11,,,,,,,,7,,,41,0
73700,note_on,1,0,8,,,,,,,,7,,,80,110
73719,note_on,39,0,6,,,,,,,,5,,,70,0
73719,note_on,0,0,6,,,,,,,,5,,,58,0
73719,note_on,39,0,7,,,,,,,,6,,,46,0
73719,note_on,39,0,4,,,,,,,,3,,,41,0
73719,note_on,0,0,5,,,,,,,,4,,,46,0
73719,note_on,19,0,8,,,,,,,,7,,,80,0
73719,note_on,39,0,5,,,,,,,,4,,,58,0
73720,note_on,21,0,11,,,,,,,,7,,,49,112
73720,note_on,0,0,5,,,,,,,,4,,,58,113
73720,note_on,0,0,2,,,,,,,,1,,,70,113
73720,note_on,381,0,2,,,,,,,,1,,,80,113
73720,note_on,1,0,4,,,,,,,,3,,,49,113
73720,note_on,1,0,8,,,,,,,,7,,,80,113
73720,note_on,1,0,5,,,,,,,,4,,,46,113
73720,note_on,21,0,9,,,,,,,,7,,,65,113
73720,note_on,21,0,12,,,,,,,,7,,,37,112
73720,note_on,121,0,1,,,,,,,,0,,,82,112
73720,note_on,1,0,7,,,,,,,,6,,,46,114
73720,note_on,21,0,10,,,,,,,,7,,,61,112
73720,note_on,0,0,6,,,,,,,,5,,,70,115
73720,note_on,1,0,6,,,,,,,,5,,,58,115
73720,note_on,141,0,3,,,,,,,,2,,,68,113
73720,note_on,0,0,3,,,,,,,,2,,,70,113
73739,note_on,0,0,2,,,,,,,,1,,,80,0
73739,note_on,19,0,12,,,,,,,,7,,,37,0
73739,note_on,19,0,8,,,,,,,,7,,,80,0
73739,note_on,19,0,2,,,,,,,,1,,,70,0
73739,note_on,19,0,9,,,,,,,,7,,,65,0
73739,note_on,19,0,11,,,,,,,,7,,,49,0
73739,note_on,19,0,10,,,,,,,,7,,,61,0
73740,note_on,1,0,8,,,,,,,,7,,,80,117
73759,note_on,39,0,4,,,,,,,,3,,,49,0
73759,note_on,39,0,6,,,,,,,,5,,,70,0
73759,note_on,39,0,3,,,,,,,,2,,,70,0
73759,note_on,0,0,3,,,,,,,,2,,,68,0
73759,note_on,39,0,1,,,,,,,,0,,,82,0
73759,note_on,19,0,8,,,,,,,,7,,,80,0
73759,note_on,0,0,5,,,,,,,,4,,,46,0
73759,note_on,39,0,5,,,,,,,,4,,,58,0
73759,note_on,39,0,7,,,,,,,,6,,,46,0
73759,note_on,0,0,6,,,,,,,,5,,,58,0
73760,note_on,0,0,2,,,,,,,,1,,,70,119
73760,note_on,21,0,2,,,,,,,,1,,,80,119
73760,note_on,21,0,10,,,,,,,,7,,,62,119
73760,note_on,21,0,9,,,,,,,,7,,,65,119
73760,note_on,1,0,3,,,,,,,,2,,,68,120
73760,note_on,21,0,11,,,,,,,,7,,,50,118
73760,note_on,1,0,8,,,,,,,,7,,,80,120
73760,note_on,21,0,12,,,,,,,,7,,,38,119
73760,note_on,0,0,5,,,,,,,,4,,,58,119
73760,note_on,1,0,5,,,,,,,,4,,,46,119
73760,note_on,1,0,1,,,,,,,,0,,,82,119
73760,note_on,1,0,6,,,,,,,,5,,,58,121
73760,note_on,0,0,6,,,,,,,,5,,,70,121
73760,note_on,1,0,4,,,,,,,,3,,,50,120
73760,note_on,1,0,7,,,,,,,,6,,,46,121
73760,note_on,0,0,3,,,,,,,,2,,,70,120
73779,note_on,19,0,9,,,,,,,,7,,,65,0
73779,note_on,0,0,2,,,,,,,,1,,,80,0
73779,note_on,19,0,12,,,,,,,,7,,,38,0
73779,note_on,19,0,8,,,,,,,,7,,,80,0
73779,note_on,19,0,10,,,,,,,,7,,,62,0
73779,note_on,19,0,11,,,,,,,,7,,,50,0
73779,note_on,19,0,2,,,,,,,,1,,,70,0
73780,note_on,1,0,8,,,,,,,,7,,,80,123
73799,note_on,0,0,3,,,,,,,,2,,,68,0
73799,note_on,39,0,3,,,,,,,,2,,,70,0
73799,note_on,39,0,4,,,,,,,,3,,,50,0
73799,note_on,0,0,5,,,,,,,,4,,,46,0
73799,note_on,39,0,5,,,,,,,,4,,,58,0
73799,note_on,0,0,6,,,,,,,,5,,,58,0
73799,note_on,39,0,1,,,,,,,,0,,,82,0
73799,note_on,39,0,6,,,,,,,,5,,,70,0
73799,note_on,19,0,8,,,,,,,,7,,,80,0
73799,note_on,39,0,7,,,,,,,,6,,,46,0
73800,note_on,1,0,1,,,,,,,,0,,,82,127
73800,note_on,21,0,10,,,,,,,,7,,,58,127
73800,note_on,1,0,3,,,,,,,,2,,,62,127
73800,note_on,1,0,8,,,,,,,,7,,,80,127
73800,note_on,1,0,4,,,,,,,,3,,,46,127
73800,note_on,0,0,5,,,,,,,,4,,,46,127
73800,note_on,1,0,7,,,,,,,,6,,,46,127
73800,note_on,21,0,11,,,,,,,,7,,,46,127
73800,note_on,21,0,2,,,,,,,,1,,,70,126
73800,note_on,21,0,9,,,,,,,,7,,,62,127
73800,note_on,21,0,12,,,,,,,,7,,,34,127
73800,note_on,1,0,6,,,,,,,,5,,,58,127
73800,note_on,1,0,5,,,,,,,,4,,,58,127
73800,note_on,0,0,2,,,,,,,,1,,,80,126
73800,note_on,0,0,6,,,,,,,,5,,,70,127
73800,note_on,0,0,3,,,,,,,,2,,,74,127
73819,note_on,19,0,9,,,,,,,,7,,,62,0
73819,note_on,0,0,2,,,,,,,,1,,,70,0
73819,note_on,19,0,2,,,,,,,,1,,,80,0
73819,note_on,19,0,7,,,,,,,,6,,,46,0
73819,note_on,19,0,8,,,,,,,,7,,,80,0
73819,note_on,19,0,12,,,,,,,,7,,,34,0
73820,note_on,1,0,9,,,,,,,,7,,,62,127
73820,note_on,1,0,8,,,,,,,,7,,,80,127
73820,note_on,1,0,7,,,,,,,,6,,,46,127
73839,note_on,0,0,3,,,,,,,,2,,,62,0
73839,note_on,39,0,5,,,,,,,,4,,,46,0
73839,note_on,39,0,3,,,,,,,,2,,,74,0
73839,note_on,0,0,5,,,,,,,,4,,,58,0
73839,note_on,39,0,1,,,,,,,,0,,,82,0
73839,note_on,19,0,8,,,,,,,,7,,,80,0
73839,note_on,39,0,11,,,,,,,,7,,,46,0
73839,note_on,19,0,9,,,,,,,,7,,,62,0
73839,note_on,39,0,10,,,,,,,,7,,,58,0
73839,note_on,39,0,4,,,,,,,,3,,,46,0
73839,note_on,39,0,6,,,,,,,,5,,,70,0
73839,note_on,19,0,7,,,,,,,,6,,,46,0
73839,note_on,0,0,6,,,,,,,,5,,,58,0
73840,note_on,1,0,4,,,,,,,,3,,,53,127
73840,note_on,21,0,2,,,,,,,,1,,,74,126
73840,note_on,0,0,6,,,,,,,,5,,,58,127
73840,note_on,0,0,5,,,,,,,,4,,,58,127
73840,note_on,1,0,3,,,,,,,,2,,,62,127
73840,note_on,0,0,2,,,,,,,,1,,,70,126
73840,note_on,0,0,3,,,,,,,,2,,,74,127
73840,note_on,1,0,6,,,,,,,,5,,,70,127
73840,note_on,1,0,5,,,,,,,,4,,,46,127
73840,note_on,1,0,10,,,,,,,,7,,,65,127
73840,note_on,1,0,1,,,,,,,,0,,,86,127
73840,note_on,1,0,11,,,,,,,,7,,,53,127
73840,note_on,1,0,9,,,,,,,,7,,,68,127
73840,note_on,0,0,1,,,,,,,,0,,,82,127
73840,note_on,1,0,7,,,,,,,,6,,,46,127
73840,note_on,1,0,8,,,,,,,,7,,,80,127
73840,note_on,21,0,12,,,,,,,,7,,,41,127
73859,note_on,19,0,12,,,,,,,,7,,,41,0
73859,note_on,19,0,7,,,,,,,,6,,,46,0
73859,note_on,19,0,9,,,,,,,,7,,,68,0
73859,note_on,19,0,2,,,,,,,,1,,,70,0
73859,note_on,0,0,2,,,,,,,,1,,,74,0
73859,note_on,19,0,8,,,,,,,,7,,,80,0
73860,note_on,1,0,7,,,,,,,,6,,,46,127
73860,note_on,1,0,9,,,,,,,,7,,,68,127
73860,note_on,1,0,8,,,,,,,,7,,,80,127
73879,note_on,39,0,4,,,,,,,,3,,,53,0
73879,note_on,39,0,10,,,,,,,,7,,,65,0
73879,note_on,19,0,8,,,,,,,,7,,,80,0
73879,note_on,19,0,9,,,,,,,,7,,,68,0
73879,note_on,0,0,3,,,,,,,,2,,,62,0
73879,note_on,0,0,6,,,,,,,,5,,,70,0
73879,note_on,39,0,6,,,,,,,,5,,,58,0
73879,note_on,0,0,1,,,,,,,,0,,,86,0
73879,note_on,19,0,7,,,,,,,,6,,,46,0
73879,note_on,39,0,11,,,,,,,,7,,,53,0
73879,note_on,0,0,5,,,,,,,,4,,,46,0
73879,note_on,39,0,1,,,,,,,,0,,,82,0
73879,note_on,39,0,5,,,,,,,,4,,,58,0
73879,note_on,39,0,3,,,,,,,,2,,,74,0
73880,note_on,0,0,6,,,,,,,,5,,,58,127
73880,note_on,21,0,2,,,,,,,,1,,,70,126
73880,note_on,1,0,10,,,,,,,,7,,,62,127
73880,note_on,1,0,3,,,,,,,,2,,,62,127
73880,note_on,1,0,8,,,,,,,,7,,,80,127
73880,note_on,1,0,1,,,,,,,,0,,,86,127
73880,note_on,21,0,12,,,,,,,,7,,,38,127
73880,note_on,1,0,6,,,,,,,,5,,,70,127
73880,note_on,1,0,7,,,,,,,,6,,,46,127
73880,note_on,0,0,3,,,,,,,,2,,,74,127
73880,note_on,1,0,4,,,,,,,,3,,,50,127
73880,note_on,1,0,9,,,,,,,,7,,,65,127
73880,note_on,1,0,11,,,,,,,,7,,,50,127
73880,note_on,0,0,1,,,,,,,,0,,,82,127
73880,note_on,0,0,5,,,,,,,,4,,,58,127
73880,note_on,1,0,5,,,,,,,,4,,,46,127
73880,note_on,0,0,2,,,,,,,,1,,,74,126
73899,note_on,19,0,12,,,,,,,,7,,,38,0
73899,note_on,0,0,2,,,,,,,,1,,,70,0
73899,note_on,19,0,9,,,,,,,,7,,,65,0
73899,note_on,19,0,7,,,,,,,,6,,,46,0
73899,note_on,19,0,2,,,,,,,,1,,,74,0
73899,note_on,19,0,8,,,,,,,,7,,,80,0
73900,note_on,1,0,8,,,,,,,,7,,,80,127
73900,note_on,1,0,9,,,,,,,,7,,,65,127
73900,note_on,1,0,7,,,,,,,,6,,,46,127
73919,note_on,39,0,10,,,,,,,,7,,,62,0
73919,note_on,0,0,1,,,,,,,,0,,,86,0
73919,note_on,39,0,11,,,,,,,,7,,,50,0
73919,note_on,0,0,5,,,,,,,,4,,,46,0
73919,note_on,39,0,5,,,,,,,,4,,,58,0
73919,note_on,39,0,1,,,,,,,,0,,,82,0
73919,note_on,0,0,6,,,,,,,,5,,,70,0
73919,note_on,39,0,4,,,,,,,,3,,,50,0
73919,note_on,19,0,7,,,,,,,,6,,,46,0
73919,note_on,19,0,8,,,,,,,,7,,,80,0
73919,note_on,39,0,6,,,,,,,,5,,,58,0
73919,note_on,19,0,9,,,,,,,,7,,,65,0
73919,note_on,39,0,3,,,,,,,,2,,,74,0
73919,note_on,0,0,3,,,,,,,,2,,,62,0
73920,note_on,0,0,5,,,,,,,,4,,,58,127
73920,note_on,1,0,9,,,,,,,,7,,,62,127
73920,note_on,1,0,7,,,,,,,,6,,,46,127
73920,note_on,0,0,1,,,,,,,,0,,,86,127
73920,note_on,1,0,8,,,,,,,,7,,,80,127
73920,note_on,1,0,3,,,,,,,,2,,,62,127
73920,note_on,1,0,10,,,,,,,,7,,,58,127
73920,note_on,1,0,4,,,,,,,,3,,,46,127
73920,note_on,21,0,2,,,,,,,,1,,,74,126
73920,note_on,0,0,2,,,,,,,,1,,,70,126
73920,note_on,21,0,12,,,,,,,,7,,,34,127
73920,note_on,1,0,11,,,,,,,,7,,,46,127
73920,note_on,1,0,1,,,,,,,,0,,,82,127
73920,note_on,0,0,3,,,,,,,,2,,,74,127
73920,note_on,0,0,6,,,,,,,,5,,,58,127
73920,note_on,1,0,6,,,,,,,,5,,,70,127
73920,note_on,1,0,5,,,,,,,,4,,,46,127
73939,note_on,19,0,9,,,,,,,,7,,,62,0
73939,note_on,19,0,8,,,,,,,,7,,,80,0
73939,note_on,19,0,7,,,,,,,,6,,,46,0
73939,note_on,19,0,2,,,,,,,,1,,,70,0
73939,note_on,0,0,2,,,,,,,,1,,,74,0
73939,note_on,19,0,12,,,,,,,,7,,,34,0
73940,note_on,1,0,7,,,,,,,,6,,,46,127
73940,note_on,1,0,8,,,,,,,,7,,,80,127
73940,note_on,1,0,9,,,,,,,,7,,,62,127
73959,note_on,39,0,3,,,,,,,,2,,,74,0
73959,note_on,0,0,6,,,,,,,,5,,,70,0
73959,note_on,39,0,4,,,,,,,,3,,,46,0
73959,note_on,0,0,3,,,,,,,,2,,,62,0
73959,note_on,19,0,8,,,,,,,,7,,,80,0
73959,note_on,39,0,5,,,,,,,,4,,,58,0
73959,note_on,39,0,11,,,,,,,,7,,,46,0
73959,note_on,19,0,9,,,,,,,,7,,,62,0
73959,note_on,0,0,5,,,,,,,,4,,,46,0
73959,note_on,19,0,7,,,,,,,,6,,,46,0
73959,note_on,39,0,10,,,,,,,,7,,,58,0
73959,note_on,39,0,6,,,,,,,,5,,,58,0
73959,note_on,39,0,1,,,,,,,,0,,,86,0
73959,note_on,0,0,1,,,,,,,,0,,,82,0
73960,note_on,1,0,5,,,,,,,,4,,,65,127
73960,note_on,0,0,5,,,,,,,,4,,,58,127
73960,note_on,0,0,1,,,,,,,,0,,,82,127
73960,note_on,1,0,10,,,,,,,,7,,,74,127
73960,note_on,1,0,6,,,,,,,,5,,,70,127
73960,note_on,0,0,6,,,,,,,,5,,,58,127
73960,note_on,1,0,7,,,,,,,,6,,,46,127
73960,note_on,1,0,9,,,,,,,,7,,,77,127
73960,note_on,21,0,12,,,,,,,,7,,,50,127
73960,note_on,1,0,4,,,,,,,,3,,,62,127
73960,note_on,1,0,1,,,,,,,,0,,,89,127
73960,note_on,1,0,11,,,,,,,,7,,,62,127
73960,note_on,1,0,8,,,,,,,,7,,,80,127
73960,note_on,1,0,3,,,,,,,,2,,,65,127
73960,note_on,0,0,3,,,,,,,,2,,,77,127
73960,note_on,0,0,2,,,,,,,,1,,,70,126
73960,note_on,21,0,2,,,,,,,,1,,,77,126
73979,note_on,19,0,9,,,,,,,,7,,,77,0
73979,note_on,19,0,8,,,,,,,,7,,,80,0
73979,note_on,0,0,2,,,,,,,,1,,,77,0
73979,note_on,19,0,2,,,,,,,,1,,,70,0
73979,note_on,19,0,12,,,,,,,,7,,,50,0
73979,note_on,19,0,7,,,,,,,,6,,,46,0
73980,note_on,1,0,8,,,,,,,,7,,,80,127
73980,note_on,1,0,7,,,,,,,,6,,,46,127
73980,note_on,1,0,9,,,,,,,,7,,,77,127
73999,note_on,0,0,5,,,,,,,,4,,,65,0
73999,note_on,39,0,5,,,,,,,,4,,,58,0
73999,note_on,39,0,10,,,,,,,,7,,,74,0
73999,note_on,39,0,6,,,,,,,,5,,,58,0
73999,note_on,0,0,6,,,,,,,,5,,,70,0
73999,note_on,39,0,4,,,,,,,,3,,,62,0
73999,note_on,19,0,8,,,,,,,,7,,,80,0
73999,note_on,0,0,3,,,,,,,,2,,,65,0
73999,note_on,39,0,3,,,,,,,,2,,,77,0
73999,note_on,0,0,1,,,,,,,,0,,,89,0
73999,note_on,39,0,1,,,,,,,,0,,,82,0
73999,note_on,39,0,11,,,,,,,,7,,,62,0
73999,note_on,19,0,9,,,,,,,,7,,,77,0
73999,note_on,19,0,7,,,,,,,,6,,,46,0
74000,note_on,1,0,7,,,,,,,,6,,,46,127
74000,note_on,0,0,6,,,,,,,,5,,,58,127
74000,note_on,1,0,6,,,,,,,,5,,,70,127
74000,note_on,0,0,2,,,,,,,,1,,,77,126
74000,note_on,21,0,2,,,,,,,,1,,,70,126
74000,note_on,1,0,1,,,,,,,,0,,,89,127
74000,note_on,0,0,1,,,,,,,,0,,,82,127
74000,note_on,1,0,11,,,,,,,,7,,,58,127
74000,note_on,1,0,8,,,,,,,,7,,,80,127
74000,note_on,0,0,5,,,,,,,,4,,,58,127
74000,note_on,1,0,5,,,,,,,,4,,,65,127
74000,note_on,1,0,10,,,,,,,,7,,,70,127
74000,note_on,0,0,3,,,,,,,,2,,,77,127
74000,note_on,1,0,3,,,,,,,,2,,,65,127
74000,note_on,1,0,9,,,,,,,,7,,,74,127
74000,note_on,21,0,12,,,,,,,,7,,,46,127
74000,note_on,1,0,4,,,,,,,,3,,,58,127
74019,note_on,19,0,12,,,,,,,,7,,,46,0
74019,note_on,19,0,2,,,,,,,,1,,,77,0
74019,note_on,19,0,9,,,,,,,,7,,,74,0
74019,note_on,0,0,2,,,,,,,,1,,,70,0
74019,note_on,19,0,8,,,,,,,,7,,,80,0
74019,note_on,19,0,7,,,,,,,,6,,,46,0
74020,note_on,1,0,9,,,,,,,,7,,,74,127
74020,note_on,1,0,8,,,,,,,,7,,,80,127
74020,note_on,1,0,7,,,,,,,,6,,,46,127
74039,note_on,0,0,1,,,,,,,,0,,,89,0
74039,note_on,39,0,1,,,,,,,,0,,,82,0
74039,note_on,19,0,8,,,,,,,,7,,,80,0
74039,note_on,0,0,5,,,,,,,,4,,,65,0
74039,note_on,39,0,5,,,,,,,,4,,,58,0
74039,note_on,19,0,9,,,,,,,,7,,,74,0
74039,note_on,39,0,11,,,,,,,,7,,,58,0
74039,note_on,39,0,10,,,,,,,,7,,,70,0
74039,note_on,39,0,6,,,,,,,,5,,,58,0
74039,note_on,0,0,6,,,,,,,,5,,,70,0
74039,note_on,19,0,7,,,,,,,,6,,,46,0
74039,note_on,39,0,3,,,,,,,,2,,,77,0
74039,note_on,0,0,3,,,,,,,,2,,,65,0
74039,note_on,39,0,4,,,,,,,,3,,,58,0
74040,note_on,1,0,7,,,,,,,,6,,,46,127
74040,note_on,21,0,12,,,,,,,,7,,,34,127
74040,note_on,0,0,5,,,,,,,,4,,,65,127
74040,note_on,1,0,5,,,,,,,,4,,,58,127
74040,note_on,1,0,8,,,,,,,,7,,,80,127
74040,note_on,1,0,3,,,,,,,,2,,,65,127
74040,note_on,21,0,2,,,,,,,,1,,,77,126
74040,note_on,0,0,2,,,,,,,,1,,,70,126
74040,note_on,1,0,6,,,,,,,,5,,,70,127
74040,note_on,0,0,6,,,,,,,,5,,,58,127
74040,note_on,0,0,3,,,,,,,,2,,,77,127
74040,note_on,1,0,9,,,,,,,,7,,,65,127
74040,note_on,1,0,4,,,,,,,,3,,,46,127
74040,note_on,1,0,10,,,,,,,,7,,,58,127
74040,note_on,1,0,11,,,,,,,,7,,,46,127
74040,note_on,1,0,1,,,,,,,,0,,,82,127
74040,note_on,0,0,1,,,,,,,,0,,,89,127
74059,note_on,19,0,12,,,,,,,,7,,,34,0
74059,note_on,19,0,8,,,,,,,,7,,,80,0
74059,note_on,19,0,9,,,,,,,,7,,,65,0
74059,note_on,19,0,7,,,,,,,,6,,,46,0
74059,note_on,0,0,2,,,,,,,,1,,,77,0
74059,note_on,19,0,2,,,,,,,,1,,,70,0
74060,note_on,1,0,7,,,,,,,,6,,,46,127
74060,note_on,1,0,9,,,,,,,,7,,,65,127
74060,note_on,1,0,8,,,,,,,,7,,,80,127
74079,note_on,0,0,1,,,,,,,,0,,,82,0
74079,note_on,0,0,3,,,,,,,,2,,,65,0
74079,note_on,39,0,3,,,,,,,,2,,,77,0
74079,note_on,39,0,5,,,,,,,,4,,,65,0
74079,note_on,0,0,5,,,,,,,,4,,,58,0
74079,note_on,39,0,10,,,,,,,,7,,,58,0
74079,note_on,19,0,9,,,,,,,,7,,,65,0
74079,note_on,39,0,1,,,,,,,,0,,,89,0
74079,note_on,39,0,6,,,,,,,,5,,,58,0
74079,note_on,39,0,11,,,,,,,,7,,,46,0
74079,note_on,0,0,6,,,,,,,,5,,,70,0
74079,note_on,19,0,7,,,,,,,,6,,,46,0
74079,note_on,19,0,8,,,,,,,,7,,,80,0
74079,note_on,39,0,4,,,,,,,,3,,,46,0
74080,note_on,21,0,12,,,,,,,,7,,,53,127
74080,note_on,1,0,3,,,,,,,,2,,,77,127
74080,note_on,0,0,3,,,,,,,,2,,,68,127
74080,note_on,1,0,10,,,,,,,,7,,,65,127
74080,note_on,1,0,11,,,,,,,,7,,,65,127
74080,note_on,1,0,1,,,,,,,,0,,,92,127
74080,note_on,0,0,1,,,,,,,,0,,,82,127
74080,note_on,1,0,6,,,,,,,,5,,,70,127
74080,note_on,1,0,8,,,,,,,,7,,,80,127
74080,note_on,0,0,2,,,,,,,,1,,,77,126
74080,note_on,21,0,2,,,,,,,,1,,,80,126
74080,note_on,1,0,7,,,,,,,,6,,,46,127
74080,note_on,1,0,5,,,,,,,,4,,,58,127
74080,note_on,0,0,5,,,,,,,,4,,,68,127
74080,note_on,0,0,5,,,,,,,,4,,,65,127
74080,note_on,0,0,6,,,,,,,,5,,,58,127
74080,note_on,1,0,9,,,,,,,,7,,,80,127
74080,note_on,1,0,4,,,,,,,,3,,,65,127
74099,note_on,19,0,2,,,,,,,,1,,,77,0
74099,note_on,19,0,8,,,,,,,,7,,,80,0
74099,note_on,19,0,12,,,,,,,,7,,,53,0
74099,note_on,19,0,7,,,,,,,,6,,,46,0
74099,note_on,19,0,9,,,,,,,,7,,,80,0
74099,note_on,0,0,2,,,,,,,,1,,,80,0
74100,note_on,1,0,9,,,,,,,,7,,,80,127
74100,note_on,1,0,8,,,,,,,,7,,,80,127
74100,note_on,1,0,7,,,,,,,,6,,,46,127
74119,note_on,19,0,8,,,,,,,,7,,,80,0
74119,note_on,19,0,9,,,,,,,,7,,,80,0
74119,note_on,39,0,3,,,,,,,,2,,,68,0
74119,note_on,0,0,3,,,,,,,,2,,,77,0
74119,note_on,39,0,5,,,,,,,,4,,,65,0
74119,note_on,0,0,5,,,,,,,,4,,,68,0
74119,note_on,39,0,6,,,,,,,,5,,,58,0
74119,note_on,0,0,6,,,,,,,,5,,,70,0
74119,note_on,39,0,4,,,,,,,,3,,,65,0
74119,note_on,0,0,5,,,,,,,,4,,,58,0
74119,note_on,0,0,1,,,,,,,,0,,,92,0
74119,note_on,39,0,10,,,,,,,,7,,,65,0
74119,note_on,39,0,1,,,,,,,,0,,,82,0
74119,note_on,39,0,11,,,,,,,,7,,,65,0
74119,note_on,19,0,7,,,,,,,,6,,,46,0
74120,note_on,0,0,5,,,,,,,,4,,,68,127
74120,note_on,1,0,3,,,,,,,,2,,,77,127
74120,note_on,0,0,3,,,,,,,,2,,,68,127
74120,note_on,1,0,5,,,,,,,,4,,,58,127
74120,note_on,0,0,5,,,,,,,,4,,,65,127
74120,note_on,21,0,12,,,,,,,,7,,,50,127
74120,note_on,0,0,6,,,,,,,,5,,,58,127
74120,note_on,1,0,6,,,,,,,,5,,,70,127
74120,note_on,1,0,7,,,,,,,,6,,,46,127
74120,note_on,1,0,4,,,,,,,,3,,,62,127
74120,note_on,1,0,11,,,,,,,,7,,,62,127
74120,note_on,0,0,1,,,,,,,,0,,,92,127
74120,note_on,0,0,2,,,,,,,,1,,,80,126
74120,note_on,1,0,10,,,,,,,,7,,,62,127
74120,note_on,1,0,8,,,,,,,,7,,,80,127
74120,note_on,21,0,2,,,,,,,,1,,,77,126
74120,note_on,1,0,9,,,,,,,,7,,,77,127
74120,note_on,1,0,1,,,,,,,,0,,,82,127
74139,note_on,19,0,9,,,,,,,,7,,,77,0
74139,note_on,19,0,2,,,,,,,,1,,,80,0
74139,note_on,19,0,8,,,,,,,,7,,,80,0
74139,note_on,0,0,2,,,,,,,,1,,,77,0
74139,note_on,19,0,7,,,,,,,,6,,,46,0
74139,note_on,19,0,12,,,,,,,,7,,,50,0
74140,note_on,1,0,7,,,,,,,,6,,,46,127
74140,note_on,1,0,9,,,,,,,,7,,,77,127
74140,note_on,1,0,8,,,,,,,,7,,,80,127
74159,note_on,19,0,9,,,,,,,,7,,,77,0
74159,note_on,39,0,11,,,,,,,,7,,,62,0
74159,note_on,39,0,5,,,,,,,,4,,,68,0
74159,note_on,0,0,5,,,,,,,,4,,,65,0
74159,note_on,0,0,5,,,,,,,,4,,,58,0
74159,note_on,39,0,1,,,,,,,,0,,,92,0
74159,note_on,0,0,1,,,,,,,,0,,,82,0
74159,note_on,0,0,3,,,,,,,,2,,,77,0
74159,note_on,39,0,6,,,,,,,,5,,,58,0
74159,note_on,39,0,4,,,,,,,,3,,,62,0
74159,note_on,0,0,6,,,,,,,,5,,,70,0
74159,note_on,39,0,10,,,,,,,,7,,,62,0
74159,note_on,19,0,7,,,,,,,,6,,,46,0
74159,note_on,39,0,3,,,,,,,,2,,,68,0
74159,note_on,19,0,8,,,,,,,,7,,,80,0
74160,note_on,1,0,9,,,,,,,,7,,,74,127
74160,note_on,0,0,1,,,,,,,,0,,,92,127
74160,note_on,1,0,7,,,,,,,,6,,,46,127
74160,note_on,1,0,6,,,,,,,,5,,,70,127
74160,note_on,0,0,5,,,,,,,,4,,,68,127
74160,note_on,0,0,5,,,,,,,,4,,,65,127
74160,note_on,21,0,12,,,,,,,,7,,,46,127
74160,note_on,1,0,11,,,,,,,,7,,,58,127
74160,note_on,0,0,6,,,,,,,,5,,,58,127
74160,note_on,1,0,5,,,,,,,,4,,,58,127
74160,note_on,1,0,1,,,,,,,,0,,,82,127
74160,note_on,1,0,4,,,,,,,,3,,,58,127
74160,note_on,1,0,3,,,,,,,,2,,,77,127
74160,note_on,1,0,10,,,,,,,,7,,,58,127
74160,note_on,21,0,2,,,,,,,,1,,,77,126
74160,note_on,0,0,2,,,,,,,,1,,,80,126
74160,note_on,0,0,3,,,,,,,,2,,,68,127
74160,note_on,1,0,8,,,,,,,,7,,,80,127
74179,note_on,19,0,12,,,,,,,,7,,,46,0
74179,note_on,19,0,9,,,,,,,,7,,,74,0
74179,note_on,19,0,2,,,,,,,,1,,,80,0
74179,note_on,0,0,2,,,,,,,,1,,,77,0
74179,note_on,19,0,7,,,,,,,,6,,,46,0
74179,note_on,19,0,8,,,,,,,,7,,,80,0
74180,note_on,1,0,9,,,,,,,,7,,,74,127
74180,note_on,1,0,8,,,,,,,,7,,,80,127
74180,note_on,1,0,7,,,,,,,,6,,,46,127
74199,note_on,19,0,9,,,,,,,,7,,,74,0
74199,note_on,19,0,7,,,,,,,,6,,,46,0
74199,note_on,0,0,5,,,,,,,,4,,,58,0
74199,note_on,39,0,11,,,,,,,,7,,,58,0
74199,note_on,39,0,10,,,,,,,,7,,,58,0
74199,note_on,0,0,5,,,,,,,,4,,,68,0
74199,note_on,0,0,6,,,,,,,,5,,,70,0
74199,note_on,39,0,6,,,,,,,,5,,,58,0
74199,note_on,39,0,3,,,,,,,,2,,,68,0
74199,note_on,39,0,1,,,,,,,,0,,,92,0
74199,note_on,0,0,1,,,,,,,,0,,,82,0
74199,note_on,19,0,8,,,,,,,,7,,,80,0
74199,note_on,39,0,4,,,,,,,,3,,,58,0
74199,note_on,0,0,3,,,,,,,,2,,,77,0
74199,note_on,39,0,5,,,,,,,,4,,,65,0
74200,note_on,21,0,12,,,,,,,,7,,,48,127
74200,note_on,1,0,10,,,,,,,,7,,,60,127
74200,note_on,1,0,7,,,,,,,,6,,,46,127
74200,note_on,0,0,6,,,,,,,,5,,,58,127
74200,note_on,1,0,6,,,,,,,,5,,,70,127
74200,note_on,1,0,11,,,,,,,,7,,,60,127
74200,note_on,0,0,5,,,,,,,,4,,,67,127
74200,note_on,0,0,5,,,,,,,,4,,,63,127
74200,note_on,1,0,5,,,,,,,,4,,,58,127
74200,note_on,1,0,4,,,,,,,,3,,,60,127
74200,note_on,0,0,2,,,,,,,,1,,,79,126
74200,note_on,1,0,8,,,,,,,,7,,,79,127
74200,note_on,1,0,3,,,,,,,,2,,,75,127
74200,note_on,21,0,2,,,,,,,,1,,,75,126
74200,note_on,0,0,3,,,,,,,,2,,,67,127
74200,note_on,1,0,9,,,,,,,,7,,,75,127
74200,note_on,0,0,1,,,,,,,,0,,,91,127
74200,note_on,1,0,1,,,,,,,,0,,,82,127
74219,note_on,0,0,2,,,,,,,,1,,,75,0
74219,note_on,19,0,2,,,,,,,,1,,,79,0
74219,note_on,19,0,9,,,,,,,,7,,,75,0
74219,note_on,19,0,12,,,,,,,,7,,,48,0
74219,note_on,19,0,8,,,,,,,,7,,,79,0
74219,note_on,19,0,7,,,,,,,,6,,,46,0
74220,note_on,1,0,8,,,,,,,,7,,,79,127
74220,note_on,1,0,7,,,,,,,,6,,,46,127
74220,note_on,1,0,9,,,,,,,,7,,,75,127
74239,note_on,0,0,3,,,,,,,,2,,,75,0
74239,note_on,19,0,9,,,,,,,,7,,,75,0
74239,note_on,39,0,4,,,,,,,,3,,,60,0
74239,note_on,39,0,10,,,,,,,,7,,,60,0
74239,note_on,0,0,6,,,,,,,,5,,,70,0
74239,note_on,19,0,7,,,,,,,,6,,,46,0
74239,note_on,39,0,3,,,,,,,,2,,,67,0
74239,note_on,39,0,1,,,,,,,,0,,,91,0
74239,note_on,39,0,5,,,,,,,,4,,,67,0
74239,note_on,0,0,5,,,,,,,,4,,,63,0
74239,note_on,39,0,11,,,,,,,,7,,,60,0
74239,note_on,19,0,8,,,,,,,,7,,,79,0
74239,note_on,0,0,5,,,,,,,,4,,,58,0
74239,note_on,39,0,6,,,,,,,,5,,,58,0
74239,note_on,0,0,1,,,,,,,,0,,,82,0
74240,note_on,1,0,9,,,,,,,,7,,,77,127
74240,note_on,1,0,4,,,,,,,,3,,,62,127
74240,note_on,21,0,2,,,,,,,,1,,,70,126
74240,note_on,1,0,6,,,,,,,,5,,,58,127
74240,note_on,21,0,12,,,,,,,,7,,,50,127
74240,note_on,1,0,7,,,,,,,,6,,,46,127
74240,note_on,1,0,11,,,,,,,,7,,,62,127
74240,note_on,0,0,6,,,,,,,,5,,,70,127
74240,note_on,0,0,2,,,,,,,,1,,,77,126
74240,note_on,1,0,5,,,,,,,,4,,,58,127
74240,note_on,0,0,5,,,,,,,,4,,,65,127
74240,note_on,1,0,1,,,,,,,,0,,,82,127
74240,note_on,1,0,10,,,,,,,,7,,,62,127
74240,note_on,1,0,3,,,,,,,,2,,,65,127
74240,note_on,0,0,3,,,,,,,,2,,,68,127
74240,note_on,1,0,8,,,,,,,,7,,,77,127
74240,note_on,0,0,1,,,,,,,,0,,,89,127
74259,note_on,19,0,8,,,,,,,,7,,,77,0
74259,note_on,19,0,12,,,,,,,,7,,,50,0
74259,note_on,19,0,7,,,,,,,,6,,,46,0
74259,note_on,19,0,9,,,,,,,,7,,,77,0
74259,note_on,19,0,2,,,,,,,,1,,,77,0
74259,note_on,0,0,2,,,,,,,,1,,,70,0
74260,note_on,1,0,9,,,,,,,,7,,,77,127
74260,note_on,1,0,7,,,,,,,,6,,,46,127
74260,note_on,1,0,8,,,,,,,,7,,,77,127
74279,note_on,39,0,11,,,,,,,,7,,,62,0
74279,note_on,19,0,9,,,,,,,,7,,,77,0
74279,note_on,39,0,10,,,,,,,,7,,,62,0
74279,note_on,39,0,5,,,,,,,,4,,,65,0
74279,note_on,0,0,5,,,,,,,,4,,,58,0
74279,note_on,39,0,1,,,,,,,,0,,,89,0
74279,note_on,39,0,4,,,,,,,,3,,,62,0
74279,note_on,39,0,6,,,,,,,,5,,,70,0
74279,note_on,19,0,8,,,,,,,,7,,,77,0
74279,note_on,39,0,3,,,,,,,,2,,,68,0
74279,note_on,0,0,6,,,,,,,,5,,,58,0
74279,note_on,0,0,3,,,,,,,,2,,,65,0
74279,note_on,0,0,1,,,,,,,,0,,,82,0
74279,note_on,19,0,7,,,,,,,,6,,,46,0
74280,note_on,1,0,1,,,,,,,,0,,,87,127
74280,note_on,1,0,4,,,,,,,,3,,,63,127
74280,note_on,21,0,12,,,,,,,,7,,,51,127
74280,note_on,1,0,7,,,,,,,,6,,,51,121
74280,note_on,1,0,6,,,,,,,,5,,,75,127
74280,note_on,1,0,9,,,,,,,,7,,,67,127
74280,note_on,0,0,3,,,,,,,,2,,,63,127
74280,note_on,1,0,3,,,,,,,,2,,,67,127
74280,note_on,0,0,6,,,,,,,,5,,,63,127
74280,note_on,0,0,1,,,,,,,,0,,,82,127
74280,note_on,1,0,10,,,,,,,,7,,,63,127
74280,note_on,1,0,5,,,,,,,,4,,,51,127
74280,note_on,1,0,8,,,,,,,,7,,,75,127
74280,note_on,1,0,11,,,,,,,,7,,,63,127
74280,note_on,21,0,2,,,,,,,,1,,,65,126
74280,note_on,0,0,2,,,,,,,,1,,,68,126
74280,note_on,0,0,5,,,,,,,,4,,,63,127
74299,note_on,0,0,2,,,,,,,,1,,,65,0
74299,note_on,19,0,2,,,,,,,,1,,,68,0
74319,note_on,39,0,11,,,,,,,,7,,,63,0
74319,note_on,39,0,6,,,,,,,,5,,,63,0
74319,note_on,39,0,4,,,,,,,,3,,,63,0
74319,note_on,39,0,7,,,,,,,,6,,,51,0
74319,note_on,39,0,10,,,,,,,,7,,,63,0
74319,note_on,39,0,1,,,,,,,,0,,,82,0
74319,note_on,0,0,1,,,,,,,,0,,,87,0
74319,note_on,39,0,8,,,,,,,,7,,,75,0
74319,note_on,39,0,3,,,,,,,,2,,,63,0
74319,note_on,0,0,3,,,,,,,,2,,,67,0
74319,note_on,0,0,6,,,,,,,,5,,,75,0
74319,note_on,39,0,9,,,,,,,,7,,,67,0
74319,note_on,39,0,12,,,,,,,,7,,,51,0
74319,note_on,39,0,5,,,,,,,,4,,,63,0
74319,note_on,0,0,5,,,,,,,,4,,,51,0
74400,note_on,0,0,6,,,,,,,,5,,,70,96
74400,note_on,81,0,6,,,,,,,,5,,,58,96
74400,note_on,0,0,2,,,,,,,,1,,,75,97
74400,note_on,81,0,10,,,,,,,,7,,,58,98
74400,note_on,81,0,5,,,,,,,,4,,,46,127
74400,note_on,81,0,7,,,,,,,,6,,,46,121
74400,note_on,81,0,1,,,,,,,,0,,,89,127
74400,note_on,81,0,11,,,,,,,,7,,,46,127
74400,note_on,0,0,5,,,,,,,,4,,,58,127
74400,note_on,81,0,12,,,,,,,,7,,,34,127
74400,note_on,0,0,1,,,,,,,,0,,,86,127
74400,note_on,0,0,8,,,,,,,,7,,,70,96
74400,note_on,81,0,9,,,,,,,,7,,,74,96
74400,note_on,0,0,9,,,,,,,,7,,,58,96
74400,note_on,81,0,3,,,,,,,,2,,,65,96
74400,note_on,0,0,3,,,,,,,,2,,,74,96
74400,note_on,81,0,8,,,,,,,,7,,,77,127
74400,note_on,0,0,9,,,,,,,,7,,,65,96
74400,note_on,81,0,4,,,,,,,,3,,,46,97
74400,note_on,101,0,2,,,,,,,,1,,,67,97
74419,note_on,19,0,2,,,,,,,,1,,,75,0
74419,note_on,0,0,2,,,,,,,,1,,,67,0
74439,note_on,39,0,9,,,,,,,,7,,,65,0
74439,note_on,39,0,12,,,,,,,,7,,,34,0
74439,note_on,39,0,10,,,,,,,,7,,,58,0
74439,note_on,39,0,1,,,,,,,,0,,,86,0
74439,note_on,39,0,8,,,,,,,,7,,,70,0
74439,note_on,39,0,4,,,,,,,,3,,,46,0
74439,note_on,0,0,1,,,,,,,,0,,,89,0
74439,note_on,0,0,8,,,,,,,,7,,,77,0
74439,note_on,39,0,7,,,,,,,,6,,,46,0
74439,note_on,0,0,9,,,,,,,,7,,,74,0
74439,note_on,39,0,6,,,,,,,,5,,,70,0
74439,note_on,0,0,5,,,,,,,,4,,,46,0
74439,note_on,39,0,3,,,,,,,,2,,,74,0
74439,note_on,0,0,3,,,,,,,,2,,,65,0
74439,note_on,39,0,5,,,,,,,,4,,,58,0
74439,note_on,39,0,11,,,,,,,,7,,,46,0
74439,note_on,0,0,6,,,,,,,,5,,,58,0
74439,note_on,0,0,9,,,,,,,,7,,,58,0
74520,note_on,81,0,7,,,,,,,,6,,,51,31
74559,note_on,39,0,7,,,,,,,,6,,,51,0
74560,note_on,1,0,7,,,,,,,,6,,,46,31
74599,note_on,39,0,7,,,,,,,,6,,,46,0
74600,note_on,1,0,7,,,,,,,,6,,,51,31
74639,note_on,39,0,7,,,,,,,,6,,,51,0
74640,note_on,1,0,7,,,,,,,,6,,,46,31
74679,note_on,39,0,7,,,,,,,,6,,,46,0
74680,note_on,241,0,9,,,,,,,,7,,,56,30
74680,note_on,241,0,10,,,,,,,,7,,,53,31
74680,note_on,1,0,7,,,,,,,,6,,,51,31
74719,note_on,39,0,10,,,,,,,,7,,,53,0
74719,note_on,39,0,7,,,,,,,,6,,,51,0
74719,note_on,39,0,9,,,,,,,,7,,,56,0
74720,note_on,1,0,10,,,,,,,,7,,,53,34
74720,note_on,1,0,7,,,,,,,,6,,,46,31
74720,note_on,1,0,9,,,,,,,,7,,,56,33
74759,note_on,39,0,9,,,,,,,,7,,,56,0
74759,note_on,39,0,10,,,,,,,,7,,,53,0
74759,note_on,39,0,7,,,,,,,,6,,,46,0
74760,note_on,1,0,7,,,,,,,,6,,,51,31
74760,note_on,1,0,10,,,,,,,,7,,,53,38
74760,note_on,321,0,4,,,,,,,,3,,,61,32
74760,note_on,1,0,9,,,,,,,,7,,,56,36
74760,note_on,321,0,3,,,,,,,,2,,,73,33
74799,note_on,39,0,9,,,,,,,,7,,,56,0
74799,note_on,39,0,7,,,,,,,,6,,,51,0
74799,note_on,39,0,10,,,,,,,,7,,,53,0
74800,note_on,1,0,9,,,,,,,,7,,,56,39
74800,note_on,1,0,7,,,,,,,,6,,,46,31
74800,note_on,361,0,8,,,,,,,,7,,,61,31
74800,note_on,1,0,10,,,,,,,,7,,,53,42
74839,note_on,39,0,7,,,,,,,,6,,,46,0
74839,note_on,39,0,8,,,,,,,,7,,,61,0
74839,note_on,39,0,10,,,,,,,,7,,,53,0
74839,note_on,39,0,9,,,,,,,,7,,,56,0
74840,note_on,1,0,10,,,,,,,,7,,,53,47
74840,note_on,1,0,7,,,,,,,,6,,,51,31
74840,note_on,1,0,9,,,,,,,,7,,,56,42
74840,note_on,1,0,8,,,,,,,,7,,,61,39
74879,note_on,39,0,10,,,,,,,,7,,,53,0
74879,note_on,39,0,8,,,,,,,,7,,,61,0
74879,note_on,39,0,7,,,,,,,,6,,,51,0
74879,note_on,39,0,9,,,,,,,,7,,,56,0
74880,note_on,120,0,4,,,,,,,,3,,,62,40
74880,note_on,1,0,8,,,,,,,,7,,,62,47
74880,note_on,1,0,9,,,,,,,,7,,,56,45
74880,note_on,1,0,10,,,,,,,,7,,,53,44
74880,note_on,120,0,3,,,,,,,,2,,,74,40
74880,note_on,1,0,7,,,,,,,,6,,,46,31
74882,note_on,2,0,3,,,,,,,,2,,,73,0
74882,note_on,2,0,4,,,,,,,,3,,,61,0
74919,note_on,39,0,8,,,,,,,,7,,,62,0
74919,note_on,39,0,7,,,,,,,,6,,,46,0
74919,note_on,39,0,9,,,,,,,,7,,,56,0
74919,note_on,39,0,10,,,,,,,,7,,,53,0
74920,note_on,1,0,9,,,,,,,,7,,,56,42
74920,note_on,1,0,8,,,,,,,,7,,,62,42
74920,note_on,1,0,7,,,,,,,,6,,,51,31
74920,note_on,1,0,10,,,,,,,,7,,,53,40
74959,note_on,39,0,9,,,,,,,,7,,,56,0
74959,note_on,39,0,7,,,,,,,,6,,,51,0
74959,note_on,39,0,8,,,,,,,,7,,,62,0
74959,note_on,39,0,10,,,,,,,,7,,,53,0
74960,note_on,1,0,10,,,,,,,,7,,,53,36
74960,note_on,1,0,7,,,,,,,,6,,,46,31
74960,note_on,1,0,8,,,,,,,,7,,,62,36
74960,note_on,1,0,9,,,,,,,,7,,,56,37
74999,note_on,39,0,7,,,,,,,,6,,,46,0
74999,note_on,39,0,10,,,,,,,,7,,,53,0
74999,note_on,39,0,9,,,,,,,,7,,,56,0
74999,note_on,39,0,8,,,,,,,,7,,,62,0
75000,note_on,118,0,3,,,,,,,,2,,,75,33
75000,note_on,118,0,4,,,,,,,,3,,,63,32
75000,note_on,1,0,10,,,,,,,,7,,,51,33
75000,note_on,1,0,7,,,,,,,,6,,,51,31
75000,note_on,1,0,8,,,,,,,,7,,,63,30
75000,note_on,1,0,9,,,,,,,,7,,,55,32
75002,note_on,2,0,4,,,,,,,,3,,,62,0
75002,note_on,2,0,3,,,,,,,,2,,,74,0
75039,note_on,39,0,8,,,,,,,,7,,,63,0
75039,note_on,37,0,3,,,,,,,,2,,,75,0
75039,note_on,37,0,4,,,,,,,,3,,,63,0
75039,note_on,39,0,7,,,,,,,,6,,,51,0
75039,note_on,39,0,10,,,,,,,,7,,,51,0
75039,note_on,39,0,9,,,,,,,,7,,,55,0
75040,note_on,1,0,7,,,,,,,,6,,,46,31
75079,note_on,39,0,7,,,,,,,,6,,,46,0
75080,note_on,1,0,7,,,,,,,,6,,,51,31
75119,note_on,39,0,7,,,,,,,,6,,,51,0
75120,note_on,1,0,7,,,,,,,,6,,,46,31
75159,note_on,39,0,7,,,,,,,,6,,,46,0
75160,note_on,0,0,4,,,,,,,,3,,,53,32
75160,note_on,121,0,9,,,,,,,,7,,,68,31
75160,note_on,1,0,7,,,,,,,,6,,,51,31
75160,note_on,121,0,10,,,,,,,,7,,,65,31
75160,note_on,121,0,4,,,,,,,,3,,,56,32
75199,note_on,39,0,7,,,,,,,,6,,,51,0
75199,note_on,0,0,4,,,,,,,,3,,,56,0
75199,note_on,39,0,4,,,,,,,,3,,,53,0
75199,note_on,39,0,9,,,,,,,,7,,,68,0
75199,note_on,39,0,10,,,,,,,,7,,,65,0
75200,note_on,0,0,4,,,,,,,,3,,,53,32
75200,note_on,1,0,4,,,,,,,,3,,,56,32
75200,note_on,1,0,10,,,,,,,,7,,,65,35
75200,note_on,1,0,7,,,,,,,,6,,,46,31
75200,note_on,1,0,9,,,,,,,,7,,,68,34
75239,note_on,39,0,9,,,,,,,,7,,,68,0
75239,note_on,39,0,7,,,,,,,,6,,,46,0
75239,note_on,0,0,4,,,,,,,,3,,,56,0
75239,note_on,39,0,4,,,,,,,,3,,,53,0
75239,note_on,39,0,10,,,,,,,,7,,,65,0
75240,note_on,1,0,7,,,,,,,,6,,,51,31
75240,note_on,801,0,1,,,,,,,,0,,,85,34
75240,note_on,1,0,9,,,,,,,,7,,,68,37
75240,note_on,201,0,3,,,,,,,,2,,,61,33
75240,note_on,0,0,4,,,,,,,,3,,,53,32
75240,note_on,1,0,4,,,,,,,,3,,,56,32
75240,note_on,0,0,3,,,,,,,,2,,,73,33
75240,note_on,1,0,10,,,,,,,,7,,,65,39
75279,note_on,39,0,10,,,,,,,,7,,,65,0
75279,note_on,39,0,9,,,,,,,,7,,,68,0
75279,note_on,39,0,7,,,,,,,,6,,,51,0
75280,note_on,1,0,7,,,,,,,,6,,,46,31
75280,note_on,1,0,10,,,,,,,,7,,,65,43
75280,note_on,241,0,8,,,,,,,,7,,,73,30
75280,note_on,1,0,9,,,,,,,,7,,,68,40
75319,note_on,39,0,9,,,,,,,,7,,,68,0
75319,note_on,39,0,10,,,,,,,,7,,,65,0
75319,note_on,39,0,8,,,,,,,,7,,,73,0
75319,note_on,39,0,7,,,,,,,,6,,,46,0
75320,note_on,1,0,7,,,,,,,,6,,,51,31
75320,note_on,1,0,9,,,,,,,,7,,,68,43
75320,note_on,1,0,10,,,,,,,,7,,,65,47
75320,note_on,1,0,8,,,,,,,,7,,,73,39
75359,note_on,39,0,7,,,,,,,,6,,,51,0
75359,note_on,39,0,9,,,,,,,,7,,,68,0
75359,note_on,39,0,10,,,,,,,,7,,,65,0
75359,note_on,39,0,8,,,,,,,,7,,,73,0
75360,note_on,120,0,3,,,,,,,,2,,,62,40
75360,note_on,1,0,9,,,,,,,,7,,,68,47
75360,note_on,1,0,10,,,,,,,,7,,,65,45
75360,note_on,1,0,8,,,,,,,,7,,,74,49
75360,note_on,120,0,1,,,,,,,,0,,,86,49
75360,note_on,0,0,3,,,,,,,,2,,,74,40
75360,note_on,1,0,7,,,,,,,,6,,,46,31
75362,note_on,2,0,3,,,,,,,,2,,,73,0
75362,note_on,0,0,3,,,,,,,,2,,,61,0
75362,note_on,2,0,1,,,,,,,,0,,,85,0
75399,note_on,39,0,10,,,,,,,,7,,,65,0
75399,note_on,39,0,9,,,,,,,,7,,,68,0
75399,note_on,39,0,8,,,,,,,,7,,,74,0
75399,note_on,39,0,7,,,,,,,,6,,,46,0
75400,note_on,1,0,10,,,,,,,,7,,,65,40
75400,note_on,1,0,7,,,,,,,,6,,,51,31
75400,note_on,1,0,8,,,,,,,,7,,,74,44
75400,note_on,1,0,9,,,,,,,,7,,,68,42
75439,note_on,39,0,10,,,,,,,,7,,,65,0
75439,note_on,39,0,7,,,,,,,,6,,,51,0
75439,note_on,39,0,9,,,,,,,,7,,,68,0
75439,note_on,39,0,8,,,,,,,,7,,,74,0
75440,note_on,1,0,10,,,,,,,,7,,,65,36
75440,note_on,1,0,7,,,,,,,,6,,,46,31
75440,note_on,1,0,9,,,,,,,,7,,,68,37
75440,note_on,1,0,8,,,,,,,,7,,,74,38
75479,note_on,39,0,8,,,,,,,,7,,,74,0
75479,note_on,39,0,10,,,,,,,,7,,,65,0
75479,note_on,39,0,9,,,,,,,,7,,,68,0
75479,note_on,39,0,7,,,,,,,,6,,,46,0
75480,note_on,118,0,1,,,,,,,,0,,,87,34
75480,note_on,0,0,5,,,,,,,,4,,,63,47
75480,note_on,1041,0,5,,,,,,,,4,,,67,47
75480,note_on,1,0,8,,,,,,,,7,,,75,32
75480,note_on,0,0,3,,,,,,,,2,,,75,33
75480,note_on,118,0,3,,,,,,,,2,,,63,33
75480,note_on,1,0,7,,,,,,,,6,,,51,30
75480,note_on,0,0,4,,,,,,,,3,,,51,32
75480,note_on,1,0,10,,,,,,,,7,,,63,32
75480,note_on,1,0,9,,,,,,,,7,,,67,32
75480,note_on,240,0,4,,,,,,,,3,,,55,32
75482,note_on,2,0,4,,,,,,,,3,,,53,0
75482,note_on,0,0,4,,,,,,,,3,,,56,0
75482,note_on,2,0,1,,,,,,,,0,,,86,0
75482,note_on,2,0,3,,,,,,,,2,,,62,0
75482,note_on,0,0,3,,,,,,,,2,,,74,0
75519,note_on,0,0,5,,,,,,,,4,,,67,0
75519,note_on,37,0,1,,,,,,,,0,,,87,0
75519,note_on,39,0,5,,,,,,,,4,,,63,0
75519,note_on,39,0,9,,,,,,,,7,,,67,0
75519,note_on,37,0,3,,,,,,,,2,,,63,0
75519,note_on,0,0,3,,,,,,,,2,,,75,0
75519,note_on,39,0,8,,,,,,,,7,,,75,0
75519,note_on,37,0,4,,,,,,,,3,,,55,0
75519,note_on,39,0,7,,,,,,,,6,,,51,0
75519,note_on,0,0,4,,,,,,,,3,,,51,0
75519,note_on,39,0,10,,,,,,,,7,,,63,0
75520,note_on,1,0,7,,,,,,,,6,,,46,34
75520,note_on,0,0,5,,,,,,,,4,,,58,48
75520,note_on,1,0,5,,,,,,,,4,,,65,48
75559,note_on,39,0,5,,,,,,,,4,,,58,0
75559,note_on,0,0,5,,,,,,,,4,,,65,0
75559,note_on,39,0,7,,,,,,,,6,,,46,0
75560,note_on,1,0,7,,,,,,,,6,,,51,38
75560,note_on,1,0,5,,,,,,,,4,,,67,49
75560,note_on,0,0,5,,,,,,,,4,,,63,49
75599,note_on,39,0,7,,,,,,,,6,,,51,0
75599,note_on,0,0,5,,,,,,,,4,,,67,0
75599,note_on,39,0,5,,,,,,,,4,,,63,0
75600,note_on,1,0,5,,,,,,,,4,,,65,51
75600,note_on,1,0,7,,,,,,,,6,,,46,42
75600,note_on,0,0,5,,,,,,,,4,,,58,51
75639,note_on,39,0,5,,,,,,,,4,,,58,0
75639,note_on,39,0,7,,,,,,,,6,,,46,0
75639,note_on,0,0,5,,,,,,,,4,,,65,0
75640,note_on,1,0,7,,,,,,,,6,,,51,46
75640,note_on,1,0,5,,,,,,,,4,,,67,52
75640,note_on,0,0,5,,,,,,,,4,,,63,52
75679,note_on,39,0,7,,,,,,,,6,,,51,0
75679,note_on,39,0,5,,,,,,,,4,,,63,0
75679,note_on,0,0,5,,,,,,,,4,,,67,0
75680,note_on,1,0,7,,,,,,,,6,,,46,50
75680,note_on,1,0,5,,,,,,,,4,,,65,53
75680,note_on,0,0,5,,,,,,,,4,,,58,53
75719,note_on,39,0,7,,,,,,,,6,,,46,0
75719,note_on,0,0,5,,,,,,,,4,,,65,0
75719,note_on,39,0,5,,,,,,,,4,,,58,0
75720,note_on,0,0,5,,,,,,,,4,,,63,55
75720,note_on,1,0,7,,,,,,,,6,,,51,54
75720,note_on,1,0,5,,,,,,,,4,,,67,55
75759,note_on,39,0,7,,,,,,,,6,,,51,0
75759,note_on,0,0,5,,,,,,,,4,,,67,0
75759,note_on,39,0,5,,,,,,,,4,,,63,0
75760,note_on,1,0,7,,,,,,,,6,,,46,58
75760,note_on,0,0,2,,,,,,,,1,,,74,48
75760,note_on,0,0,5,,,,,,,,4,,,58,56
75760,note_on,1,0,5,,,,,,,,4,,,65,56
75760,note_on,1341,0,2,,,,,,,,1,,,77,48
75799,note_on,39,0,7,,,,,,,,6,,,46,0
75799,note_on,0,0,5,,,,,,,,4,,,65,0
75799,note_on,39,0,2,,,,,,,,1,,,74,0
75799,note_on,0,0,2,,,,,,,,1,,,77,0
75799,note_on,39,0,5,,,,,,,,4,,,58,0
75800,note_on,1,0,2,,,,,,,,1,,,79,53
75800,note_on,0,0,2,,,,,,,,1,,,75,53
75800,note_on,0,0,5,,,,,,,,4,,,63,57
75800,note_on,1,0,5,,,,,,,,4,,,67,57
75800,note_on,1,0,7,,,,,,,,6,,,51,62
75839,note_on,39,0,2,,,,,,,,1,,,75,0
75839,note_on,39,0,7,,,,,,,,6,,,51,0
75839,note_on,39,0,5,,,,,,,,4,,,63,0
75839,note_on,0,0,5,,,,,,,,4,,,67,0
75839,note_on,0,0,2,,,,,,,,1,,,79,0
75840,note_on,1,0,7,,,,,,,,6,,,46,65
75840,note_on,1,0,5,,,,,,,,4,,,65,59
75840,note_on,0,0,5,,,,,,,,4,,,58,59
75840,note_on,1,0,2,,,,,,,,1,,,77,57
75840,note_on,0,0,2,,,,,,,,1,,,74,57
75879,note_on,39,0,7,,,,,,,,6,,,46,0
75879,note_on,39,0,2,,,,,,,,1,,,74,0
75879,note_on,0,0,2,,,,,,,,1,,,77,0
75879,note_on,39,0,5,,,,,,,,4,,,58,0
75879,note_on,0,0,5,,,,,,,,4,,,65,0
75880,note_on,1,0,5,,,,,,,,4,,,67,60
75880,note_on,1,0,2,,,,,,,,1,,,79,61
75880,note_on,1,0,7,,,,,,,,6,,,51,69
75880,note_on,0,0,2,,,,,,,,1,,,75,61
75880,note_on,0,0,5,,,,,,,,4,,,63,60
75919,note_on,0,0,2,,,,,,,,1,,,79,0
75919,note_on,39,0,7,,,,,,,,6,,,51,0
75919,note_on,39,0,2,,,,,,,,1,,,75,0
75919,note_on,39,0,5,,,,,,,,4,,,63,0
75919,note_on,0,0,5,,,,,,,,4,,,67,0
75920,note_on,0,0,2,,,,,,,,1,,,74,65
75920,note_on,1,0,5,,,,,,,,4,,,65,61
75920,note_on,0,0,5,,,,,,,,4,,,58,61
75920,note_on,1,0,2,,,,,,,,1,,,77,65
75920,note_on,1,0,7,,,,,,,,6,,,46,73
75959,note_on,0,0,2,,,,,,,,1,,,77,0
75959,note_on,39,0,2,,,,,,,,1,,,74,0
75959,note_on,39,0,7,,,,,,,,6,,,46,0
75959,note_on,0,0,5,,,,,,,,4,,,65,0
75959,note_on,39,0,5,,,,,,,,4,,,58,0
75960,note_on,1,0,7,,,,,,,,6,,,51,77
75960,note_on,1,0,2,,,,,,,,1,,,79,69
75960,note_on,0,0,2,,,,,,,,1,,,75,69
75960,note_on,1,0,5,,,,,,,,4,,,67,64
75960,note_on,0,0,5,,,,,,,,4,,,63,64
75979,note_on,19,0,7,,,,,,,,6,,,51,0
75980,note_on,1,0,7,,,,,,,,6,,,46,79
75999,note_on,19,0,7,,,,,,,,6,,,46,0
75999,note_on,39,0,2,,,,,,,,1,,,75,0
75999,note_on,0,0,2,,,,,,,,1,,,79,0
75999,note_on,39,0,5,,,,,,,,4,,,63,0
75999,note_on,0,0,5,,,,,,,,4,,,67,0
76000,note_on,481,0,1,,,,,,,,0,,,74,72
76000,note_on,0,0,3,,,,,,,,2,,,62,70
76000,note_on,481,0,8,,,,,,,,7,,,86,71
76000,note_on,481,0,9,,,,,,,,7,,,77,72
76000,note_on,481,0,3,,,,,,,,2,,,65,70
76000,note_on,481,0,4,,,,,,,,3,,,46,71
76000,note_on,0,0,5,,,,,,,,4,,,58,69
76000,note_on,1561,0,11,,,,,,,,7,,,46,61
76000,note_on,1,0,5,,,,,,,,4,,,65,69
76000,note_on,0,0,4,,,,,,,,3,,,58,71
76000,note_on,1,0,2,,,,,,,,1,,,77,73
76000,note_on,1561,0,6,,,,,,,,5,,,70,72
76000,note_on,0,0,6,,,,,,,,5,,,58,72
76000,note_on,1,0,7,,,,,,,,6,,,51,81
76000,note_on,0,0,2,,,,,,,,1,,,74,73
76000,note_on,1561,0,12,,,,,,,,7,,,34,75
76000,note_on,481,0,10,,,,,,,,7,,,58,68
76019,note_on,19,0,9,,,,,,,,7,,,77,0
76019,note_on,19,0,7,,,,,,,,6,,,51,0
76019,note_on,19,0,8,,,,,,,,7,,,86,0
76019,note_on,19,0,10,,,,,,,,7,,,58,0
76020,note_on,1,0,7,,,,,,,,6,,,46,83
76020,note_on,1,0,9,,,,,,,,7,,,77,75
76020,note_on,1,0,8,,,,,,,,7,,,86,74
76020,note_on,1,0,10,,,,,,,,7,,,58,71
76039,note_on,39,0,1,,,,,,,,0,,,74,0
76039,note_on,0,0,3,,,,,,,,2,,,65,0
76039,note_on,39,0,3,,,,,,,,2,,,62,0
76039,note_on,39,0,11,,,,,,,,7,,,46,0
76039,note_on,19,0,8,,,,,,,,7,,,86,0
76039,note_on,0,0,2,,,,,,,,1,,,77,0
76039,note_on,39,0,2,,,,,,,,1,,,74,0
76039,note_on,39,0,6,,,,,,,,5,,,58,0
76039,note_on,19,0,10,,,,,,,,7,,,58,0
76039,note_on,39,0,4,,,,,,,,3,,,58,0
76039,note_on,0,0,4,,,,,,,,3,,,46,0
76039,note_on,0,0,6,,,,,,,,5,,,70,0
76039,note_on,19,0,9,,,,,,,,7,,,77,0
76039,note_on,39,0,5,,,,,,,,4,,,58,0
76039,note_on,39,0,12,,,,,,,,7,,,34,0
76039,note_on,0,0,5,,,,,,,,4,,,65,0
76039,note_on,19,0,7,,,,,,,,6,,,46,0
76040,note_on,1,0,6,,,,,,,,5,,,75,77
76040,note_on,0,0,6,,,,,,,,5,,,63,77
76040,note_on,1,0,2,,,,,,,,1,,,79,78
76040,note_on,0,0,2,,,,,,,,1,,,75,78
76040,note_on,1,0,5,,,,,,,,4,,,67,75
76040,note_on,1,0,11,,,,,,,,7,,,51,67
76040,note_on,0,0,5,,,,,,,,4,,,63,75
76040,note_on,1,0,7,,,,,,,,6,,,51,85
76040,note_on,1,0,10,,,,,,,,7,,,63,73
76040,note_on,1,0,1,,,,,,,,0,,,75,77
76040,note_on,1,0,12,,,,,,,,7,,,39,80
76040,note_on,1,0,8,,,,,,,,7,,,87,76
76040,note_on,0,0,3,,,,,,,,2,,,63,75
76040,note_on,1,0,3,,,,,,,,2,,,67,75
76040,note_on,0,0,4,,,,,,,,3,,,51,76
76040,note_on,1,0,9,,,,,,,,7,,,79,77
76040,note_on,1,0,4,,,,,,,,3,,,63,76
76040,note_on,0,0,5,,,,,,,,4,,,58,75
76059,note_on,19,0,10,,,,,,,,7,,,63,0
76059,note_on,19,0,8,,,,,,,,7,,,87,0
76059,note_on,19,0,9,,,,,,,,7,,,79,0
76059,note_on,19,0,7,,,,,,,,6,,,51,0
76060,note_on,1,0,7,,,,,,,,6,,,46,87
76060,note_on,1,0,10,,,,,,,,7,,,63,76
76060,note_on,1,0,9,,,,,,,,7,,,79,80
76060,note_on,1,0,8,,,,,,,,7,,,87,79
76079,note_on,0,0,2,,,,,,,,1,,,79,0
76079,note_on,39,0,2,,,,,,,,1,,,75,0
76079,note_on,0,0,5,,,,,,,,4,,,63,0
76079,note_on,0,0,5,,,,,,,,4,,,67,0
76079,note_on,39,0,12,,,,,,,,7,,,39,0
76079,note_on,39,0,4,,,,,,,,3,,,51,0
76079,note_on,19,0,7,,,,,,,,6,,,46,0
76079,note_on,39,0,3,,,,,,,,2,,,63,0
76079,note_on,0,0,3,,,,,,,,2,,,67,0
76079,note_on,39,0,1,,,,,,,,0,,,75,0
76079,note_on,0,0,4,,,,,,,,3,,,63,0
76079,note_on,19,0,8,,,,,,,,7,,,87,0
76079,note_on,39,0,5,,,,,,,,4,,,58,0
76079,note_on,0,0,6,,,,,,,,5,,,75,0
76079,note_on,39,0,11,,,,,,,,7,,,51,0
76079,note_on,19,0,9,,,,,,,,7,,,79,0
76079,note_on,19,0,10,,,,,,,,7,,,63,0
76079,note_on,39,0,6,,,,,,,,5,,,63,0
76080,note_on,1,0,1,,,,,,,,0,,,77,82
76080,note_on,1,0,3,,,,,,,,2,,,65,80
76080,note_on,0,0,3,,,,,,,,2,,,62,80
76080,note_on,1,0,11,,,,,,,,7,,,46,73
76080,note_on,1,0,7,,,,,,,,6,,,51,89
76080,note_on,1,0,10,,,,,,,,7,,,58,79
76080,note_on,1,0,2,,,,,,,,1,,,77,83
76080,note_on,0,0,2,,,,,,,,1,,,74,83
76080,note_on,1,0,12,,,,,,,,7,,,34,85
76080,note_on,0,0,4,,,,,,,,3,,,58,81
76080,note_on,0,0,5,,,,,,,,4,,,58,80
76080,note_on,1,0,5,,,,,,,,4,,,65,80
76080,note_on,1,0,9,,,,,,,,7,,,77,82
76080,note_on,0,0,6,,,,,,,,5,,,58,82
76080,note_on,1,0,6,,,,,,,,5,,,70,82
76080,note_on,1,0,4,,,,,,,,3,,,46,81
76080,note_on,1,0,8,,,,,,,,7,,,86,81
76099,note_on,19,0,10,,,,,,,,7,,,58,0
76099,note_on,19,0,7,,,,,,,,6,,,51,0
76099,note_on,19,0,9,,,,,,,,7,,,77,0
76099,note_on,19,0,8,,,,,,,,7,,,86,0
76100,note_on,1,0,10,,,,,,,,7,,,58,81
76100,note_on,1,0,9,,,,,,,,7,,,77,85
76100,note_on,1,0,8,,,,,,,,7,,,86,84
76100,note_on,1,0,7,,,,,,,,6,,,46,91
76119,note_on,39,0,12,,,,,,,,7,,,34,0
76119,note_on,0,0,6,,,,,,,,5,,,70,0
76119,note_on,39,0,6,,,,,,,,5,,,58,0
76119,note_on,39,0,11,,,,,,,,7,,,46,0
76119,note_on,0,0,4,,,,,,,,3,,,46,0
76119,note_on,39,0,4,,,,,,,,3,,,58,0
76119,note_on,39,0,5,,,,,,,,4,,,58,0
76119,note_on,0,0,5,,,,,,,,4,,,65,0
76119,note_on,0,0,2,,,,,,,,1,,,77,0
76119,note_on,19,0,7,,,,,,,,6,,,46,0
76119,note_on,39,0,2,,,,,,,,1,,,74,0
76119,note_on,39,0,3,,,,,,,,2,,,62,0
76119,note_on,19,0,8,,,,,,,,7,,,86,0
76119,note_on,19,0,9,,,,,,,,7,,,77,0
76119,note_on,19,0,10,,,,,,,,7,,,58,0
76119,note_on,39,0,1,,,,,,,,0,,,77,0
76119,note_on,0,0,3,,,,,,,,2,,,65,0
76120,note_on,1,0,2,,,,,,,,1,,,79,88
76120,note_on,0,0,2,,,,,,,,1,,,75,88
76120,note_on,0,0,6,,,,,,,,5,,,63,87
76120,note_on,1,0,6,,,,,,,,5,,,75,87
76120,note_on,1,0,1,,,,,,,,0,,,79,87
76120,note_on,0,0,4,,,,,,,,3,,,51,86
76120,note_on,1,0,8,,,,,,,,7,,,87,86
76120,note_on,1,0,7,,,,,,,,6,,,51,93
76120,note_on,1,0,3,,,,,,,,2,,,67,85
76120,note_on,0,0,3,,,,,,,,2,,,63,85
76120,note_on,1,0,9,,,,,,,,7,,,79,87
76120,note_on,1,0,5,,,,,,,,4,,,67,85
76120,note_on,0,0,5,,,,,,,,4,,,63,85
76120,note_on,1,0,4,,,,,,,,3,,,63,86
76120,note_on,1,0,12,,,,,,,,7,,,39,89
76120,note_on,0,0,5,,,,,,,,4,,,58,85
76120,note_on,1,0,10,,,,,,,,7,,,63,84
76120,note_on,1,0,11,,,,,,,,7,,,51,79
76139,note_on,19,0,9,,,,,,,,7,,,79,0
76139,note_on,19,0,10,,,,,,,,7,,,63,0
76139,note_on,19,0,8,,,,,,,,7,,,87,0
76139,note_on,19,0,7,,,,,,,,6,,,51,0
76140,note_on,1,0,10,,,,,,,,7,,,63,87
76140,note_on,1,0,8,,,,,,,,7,,,87,89
76140,note_on,1,0,7,,,,,,,,6,,,46,95
76140,note_on,1,0,9,,,,,,,,7,,,79,89
76159,note_on,0,0,3,,,,,,,,2,,,67,0
76159,note_on,0,0,6,,,,,,,,5,,,75,0
76159,note_on,39,0,6,,,,,,,,5,,,63,0
76159,note_on,39,0,4,,,,,,,,3,,,51,0
76159,note_on,39,0,11,,,,,,,,7,,,51,0
76159,note_on,0,0,4,,,,,,,,3,,,63,0
76159,note_on,0,0,5,,,,,,,,4,,,63,0
76159,note_on,39,0,3,,,,,,,,2,,,63,0
76159,note_on,19,0,7,,,,,,,,6,,,46,0
76159,note_on,19,0,8,,,,,,,,7,,,87,0
76159,note_on,19,0,10,,,,,,,,7,,,63,0
76159,note_on,39,0,5,,,,,,,,4,,,58,0
76159,note_on,0,0,5,,,,,,,,4,,,67,0
76159,note_on,19,0,9,,,,,,,,7,,,79,0
76159,note_on,39,0,12,,,,,,,,7,,,39,0
76159,note_on,39,0,2,,,,,,,,1,,,75,0
76159,note_on,39,0,1,,,,,,,,0,,,79,0
76159,note_on,0,0,2,,,,,,,,1,,,79,0
76160,note_on,1,0,11,,,,,,,,7,,,46,85
76160,note_on,0,0,4,,,,,,,,3,,,58,91
76160,note_on,1,0,9,,,,,,,,7,,,77,92
76160,note_on,1,0,5,,,,,,,,4,,,65,90
76160,note_on,0,0,3,,,,,,,,2,,,62,90
76160,note_on,1,0,3,,,,,,,,2,,,65,90
76160,note_on,0,0,5,,,,,,,,4,,,58,90
76160,note_on,1,0,2,,,,,,,,1,,,74,93
76160,note_on,1,0,4,,,,,,,,3,,,46,91
76160,note_on,1,0,7,,,,,,,,6,,,51,97
76160,note_on,1,0,10,,,,,,,,7,,,58,89
76160,note_on,1,0,12,,,,,,,,7,,,34,94
76160,note_on,1,0,8,,,,,,,,7,,,86,91
76160,note_on,1,0,1,,,,,,,,0,,,77,92
76160,note_on,0,0,2,,,,,,,,1,,,77,93
76160,note_on,1,0,6,,,,,,,,5,,,70,92
76160,note_on,0,0,6,,,,,,,,5,,,58,92
76179,note_on,19,0,7,,,,,,,,6,,,51,0
76179,note_on,19,0,9,,,,,,,,7,,,77,0
76179,note_on,19,0,8,,,,,,,,7,,,86,0
76179,note_on,19,0,10,,,,,,,,7,,,58,0
76180,note_on,1,0,9,,,,,,,,7,,,77,94
76180,note_on,1,0,10,,,,,,,,7,,,58,92
76180,note_on,1,0,8,,,,,,,,7,,,86,94
76180,note_on,1,0,7,,,,,,,,6,,,46,99
76199,note_on,19,0,9,,,,,,,,7,,,77,0
76199,note_on,39,0,6,,,,,,,,5,,,58,0
76199,note_on,39,0,3,,,,,,,,2,,,62,0
76199,note_on,39,0,5,,,,,,,,4,,,58,0
76199,note_on,0,0,5,,,,,,,,4,,,65,0
76199,note_on,39,0,4,,,,,,,,3,,,58,0
76199,note_on,0,0,4,,,,,,,,3,,,46,0
76199,note_on,19,0,10,,,,,,,,7,,,58,0
76199,note_on,0,0,3,,,,,,,,2,,,65,0
76199,note_on,0,0,6,,,,,,,,5,,,70,0
76199,note_on,19,0,7,,,,,,,,6,,,46,0
76199,note_on,39,0,12,,,,,,,,7,,,34,0
76199,note_on,19,0,8,,,,,,,,7,,,86,0
76199,note_on,39,0,11,,,,,,,,7,,,46,0
76199,note_on,39,0,1,,,,,,,,0,,,77,0
76199,note_on,0,0,2,,,,,,,,1,,,74,0
76199,note_on,39,0,2,,,,,,,,1,,,77,0
76200,note_on,0,0,2,,,,,,,,1,,,75,97
76200,note_on,1,0,12,,,,,,,,7,,,39,99
76200,note_on,1,0,5,,,,,,,,4,,,67,96
76200,note_on,1,0,8,,,,,,,,7,,,87,96
76200,note_on,1,0,1,,,,,,,,0,,,79,97
76200,note_on,1,0,10,,,,,,,,7,,,63,95
76200,note_on,1,0,7,,,,,,,,6,,,51,101
76200,note_on,1,0,2,,,,,,,,1,,,79,97
76200,note_on,1,0,9,,,,,,,,7,,,79,97
76200,note_on,0,0,3,,,,,,,,2,,,63,96
76200,note_on,0,0,5,,,,,,,,4,,,63,96
76200,note_on,1,0,4,,,,,,,,3,,,63,97
76200,note_on,0,0,6,,,,,,,,5,,,63,97
76200,note_on,1,0,3,,,,,,,,2,,,67,96
76200,note_on,1,0,6,,,,,,,,5,,,75,97
76200,note_on,0,0,5,,,,,,,,4,,,58,96
76200,note_on,0,0,4,,,,,,,,3,,,51,97
76200,note_on,1,0,11,,,,,,,,7,,,51,91
76219,note_on,19,0,7,,,,,,,,6,,,51,0
76219,note_on,19,0,8,,,,,,,,7,,,87,0
76219,note_on,19,0,10,,,,,,,,7,,,63,0
76219,note_on,19,0,9,,,,,,,,7,,,79,0
76220,note_on,1,0,7,,,,,,,,6,,,46,103
76220,note_on,1,0,9,,,,,,,,7,,,79,99
76220,note_on,1,0,8,,,,,,,,7,,,87,99
76220,note_on,1,0,10,,,,,,,,7,,,63,97
76239,note_on,39,0,11,,,,,,,,7,,,51,0
76239,note_on,0,0,5,,,,,,,,4,,,67,0
76239,note_on,39,0,4,,,,,,,,3,,,51,0
76239,note_on,19,0,8,,,,,,,,7,,,87,0
76239,note_on,0,0,5,,,,,,,,4,,,63,0
76239,note_on,39,0,5,,,,,,,,4,,,58,0
76239,note_on,19,0,7,,,,,,,,6,,,46,0
76239,note_on,0,0,6,,,,,,,,5,,,75,0
76239,note_on,39,0,3,,,,,,,,2,,,63,0
76239,note_on,0,0,3,,,,,,,,2,,,67,0
76239,note_on,39,0,1,,,,,,,,0,,,79,0
76239,note_on,0,0,4,,,,,,,,3,,,63,0
76239,note_on,39,0,6,,,,,,,,5,,,63,0
76239,note_on,39,0,2,,,,,,,,1,,,75,0
76239,note_on,19,0,10,,,,,,,,7,,,63,0
76239,note_on,39,0,12,,,,,,,,7,,,39,0
76239,note_on,19,0,9,,,,,,,,7,,,79,0
76239,note_on,0,0,2,,,,,,,,1,,,79,0
76240,note_on,1,0,3,,,,,,,,2,,,74,101
76240,note_on,0,0,3,,,,,,,,2,,,65,101
76240,note_on,1,0,11,,,,,,,,7,,,46,97
76240,note_on,1,0,10,,,,,,,,7,,,58,100
76240,note_on,1,0,4,,,,,,,,3,,,46,102
76240,note_on,1,0,9,,,,,,,,7,,,77,101
76240,note_on,0,0,5,,,,,,,,4,,,58,101
76240,note_on,0,0,6,,,,,,,,5,,,58,102
76240,note_on,1,0,6,,,,,,,,5,,,70,102
76240,note_on,1,0,2,,,,,,,,1,,,82,102
76240,note_on,1,0,7,,,,,,,,6,,,51,105
76240,note_on,0,0,4,,,,,,,,3,,,58,102
76240,note_on,1,0,12,,,,,,,,7,,,34,103
76240,note_on,1,0,5,,,,,,,,4,,,65,101
76240,note_on,0,0,2,,,,,,,,1,,,77,102
76240,note_on,1,0,8,,,,,,,,7,,,86,101
76240,note_on,1,0,1,,,,,,,,0,,,86,102
76259,note_on,19,0,10,,,,,,,,7,,,58,0
76259,note_on,19,0,8,,,,,,,,7,,,86,0
76259,note_on,19,0,7,,,,,,,,6,,,51,0
76259,note_on,19,0,9,,,,,,,,7,,,77,0
76260,note_on,1,0,9,,,,,,,,7,,,77,104
76260,note_on,1,0,10,,,,,,,,7,,,58,103
76260,note_on,1,0,8,,,,,,,,7,,,86,104
76260,note_on,1,0,7,,,,,,,,6,,,46,107
76279,note_on,19,0,7,,,,,,,,6,,,46,0
76279,note_on,19,0,9,,,,,,,,7,,,77,0
76279,note_on,39,0,5,,,,,,,,4,,,58,0
76279,note_on,0,0,5,,,,,,,,4,,,65,0
76279,note_on,39,0,11,,,,,,,,7,,,46,0
76279,note_on,19,0,8,,,,,,,,7,,,86,0
76279,note_on,0,0,3,,,,,,,,2,,,74,0
76279,note_on,39,0,2,,,,,,,,1,,,77,0
76279,note_on,19,0,10,,,,,,,,7,,,58,0
76279,note_on,0,0,2,,,,,,,,1,,,82,0
76279,note_on,39,0,3,,,,,,,,2,,,65,0
76279,note_on,39,0,6,,,,,,,,5,,,58,0
76279,note_on,39,0,1,,,,,,,,0,,,86,0
76279,note_on,39,0,12,,,,,,,,7,,,34,0
76279,note_on,39,0,4,,,,,,,,3,,,58,0
76279,note_on,0,0,4,,,,,,,,3,,,46,0
76279,note_on,0,0,6,,,,,,,,5,,,70,0
76280,note_on,1,0,9,,,,,,,,7,,,79,106
76280,note_on,1,0,12,,,,,,,,7,,,39,108
76280,note_on,1,0,3,,,,,,,,2,,,75,106
76280,note_on,0,0,3,,,,,,,,2,,,67,106
76280,note_on,1,0,10,,,,,,,,7,,,63,105
76280,note_on,0,0,5,,,,,,,,4,,,58,106
76280,note_on,0,0,5,,,,,,,,4,,,63,106
76280,note_on,1,0,5,,,,,,,,4,,,67,106
76280,note_on,1,0,7,,,,,,,,6,,,51,109
76280,note_on,0,0,6,,,,,,,,5,,,63,107
76280,note_on,1,0,6,,,,,,,,5,,,75,107
76280,note_on,1,0,11,,,,,,,,7,,,51,103
76280,note_on,1,0,2,,,,,,,,1,,,82,107
76280,note_on,0,0,2,,,,,,,,1,,,79,107
76280,note_on,1,0,4,,,,,,,,3,,,63,107
76280,note_on,0,0,4,,,,,,,,3,,,51,107
76280,note_on,1,0,1,,,,,,,,0,,,87,107
76280,note_on,1,0,8,,,,,,,,7,,,87,106
76299,note_on,19,0,8,,,,,,,,7,,,87,0
76299,note_on,19,0,9,,,,,,,,7,,,79,0
76299,note_on,19,0,7,,,,,,,,6,,,51,0
76299,note_on,19,0,10,,,,,,,,7,,,63,0
76300,note_on,1,0,9,,,,,,,,7,,,79,109
76300,note_on,1,0,8,,,,,,,,7,,,87,109
76300,note_on,1,0,10,,,,,,,,7,,,63,108
76300,note_on,1,0,7,,,,,,,,6,,,46,111
76319,note_on,39,0,3,,,,,,,,2,,,67,0
76319,note_on,39,0,12,,,,,,,,7,,,39,0
76319,note_on,19,0,8,,,,,,,,7,,,87,0
76319,note_on,39,0,11,,,,,,,,7,,,51,0
76319,note_on,0,0,3,,,,,,,,2,,,75,0
76319,note_on,19,0,9,,,,,,,,7,,,79,0
76319,note_on,39,0,1,,,,,,,,0,,,87,0
76319,note_on,39,0,4,,,,,,,,3,,,51,0
76319,note_on,0,0,6,,,,,,,,5,,,75,0
76319,note_on,0,0,5,,,,,,,,4,,,67,0
76319,note_on,39,0,5,,,,,,,,4,,,58,0
76319,note_on,0,0,4,,,,,,,,3,,,63,0
76319,note_on,19,0,7,,,,,,,,6,,,46,0
76319,note_on,39,0,2,,,,,,,,1,,,79,0
76319,note_on,39,0,6,,,,,,,,5,,,63,0
76319,note_on,19,0,10,,,,,,,,7,,,63,0
76319,note_on,0,0,5,,,,,,,,4,,,63,0
76319,note_on,0,0,2,,,,,,,,1,,,82,0
76320,note_on,1,0,1,,,,,,,,0,,,86,112
76320,note_on,1,0,10,,,,,,,,7,,,58,111
76320,note_on,1,0,11,,,,,,,,7,,,46,109
76320,note_on,1,0,6,,,,,,,,5,,,70,112
76320,note_on,1,0,7,,,,,,,,6,,,51,113
76320,note_on,0,0,6,,,,,,,,5,,,58,112
76320,note_on,0,0,3,,,,,,,,2,,,65,111
76320,note_on,1,0,3,,,,,,,,2,,,74,111
76320,note_on,1,0,9,,,,,,,,7,,,77,111
76320,note_on,0,0,2,,,,,,,,1,,,82,112
76320,note_on,1,0,8,,,,,,,,7,,,86,111
76320,note_on,1,0,12,,,,,,,,7,,,34,113
76320,note_on,1,0,5,,,,,,,,4,,,65,111
76320,note_on,0,0,4,,,,,,,,3,,,58,112
76320,note_on,1,0,2,,,,,,,,1,,,77,112
76320,note_on,0,0,5,,,,,,,,4,,,58,111
76320,note_on,1,0,4,,,,,,,,3,,,46,112
76339,note_on,19,0,10,,,,,,,,7,,,58,0
76339,note_on,19,0,7,,,,,,,,6,,,51,0
76339,note_on,19,0,8,,,,,,,,7,,,86,0
76339,note_on,19,0,9,,,,,,,,7,,,77,0
76340,note_on,1,0,8,,,,,,,,7,,,86,114
76340,note_on,1,0,7,,,,,,,,6,,,46,115
76340,note_on,1,0,9,,,,,,,,7,,,77,113
76340,note_on,1,0,10,,,,,,,,7,,,58,113
76359,note_on,39,0,6,,,,,,,,5,,,58,0
76359,note_on,39,0,12,,,,,,,,7,,,34,0
76359,note_on,39,0,4,,,,,,,,3,,,58,0
76359,note_on,19,0,10,,,,,,,,7,,,58,0
76359,note_on,0,0,4,,,,,,,,3,,,46,0
76359,note_on,0,0,6,,,,,,,,5,,,70,0
76359,note_on,39,0,3,,,,,,,,2,,,65,0
76359,note_on,39,0,11,,,,,,,,7,,,46,0
76359,note_on,19,0,8,,,,,,,,7,,,86,0
76359,note_on,19,0,7,,,,,,,,6,,,46,0
76359,note_on,39,0,2,,,,,,,,1,,,82,0
76359,note_on,19,0,9,,,,,,,,7,,,77,0
76359,note_on,0,0,2,,,,,,,,1,,,77,0
76359,note_on,0,0,5,,,,,,,,4,,,65,0
76359,note_on,39,0,5,,,,,,,,4,,,58,0
76359,note_on,39,0,1,,,,,,,,0,,,86,0
76359,note_on,0,0,3,,,,,,,,2,,,74,0
76360,note_on,1,0,1,,,,,,,,0,,,87,117
76360,note_on,1,0,4,,,,,,,,3,,,63,117
76360,note_on,0,0,4,,,,,,,,3,,,51,117
76360,note_on,1,0,8,,,,,,,,7,,,87,116
76360,note_on,0,0,2,,,,,,,,1,,,82,117
76360,note_on,1,0,2,,,,,,,,1,,,79,117
76360,note_on,0,0,3,,,,,,,,2,,,67,116
76360,note_on,0,0,5,,,,,,,,4,,,63,116
76360,note_on,1,0,12,,,,,,,,7,,,39,117
76360,note_on,1,0,7,,,,,,,,6,,,51,117
76360,note_on,1,0,9,,,,,,,,7,,,79,116
76360,note_on,1,0,3,,,,,,,,2,,,75,116
76360,note_on,1,0,5,,,,,,,,4,,,67,116
76360,note_on,1,0,10,,,,,,,,7,,,63,116
76360,note_on,1,0,11,,,,,,,,7,,,51,115
76360,note_on,0,0,6,,,,,,,,5,,,63,117
76360,note_on,0,0,5,,,,,,,,4,,,58,116
76360,note_on,1,0,6,,,,,,,,5,,,75,117
76379,note_on,19,0,9,,,,,,,,7,,,79,0
76379,note_on,19,0,10,,,,,,,,7,,,63,0
76379,note_on,19,0,8,,,,,,,,7,,,87,0
76379,note_on,19,0,7,,,,,,,,6,,,51,0
76380,note_on,1,0,7,,,,,,,,6,,,46,119
76380,note_on,1,0,9,,,,,,,,7,,,79,118
76380,note_on,1,0,8,,,,,,,,7,,,87,119
76380,note_on,1,0,10,,,,,,,,7,,,63,119
76399,note_on,39,0,1,,,,,,,,0,,,87,0
76399,note_on,0,0,2,,,,,,,,1,,,79,0
76399,note_on,39,0,5,,,,,,,,4,,,58,0
76399,note_on,39,0,2,,,,,,,,1,,,82,0
76399,note_on,39,0,11,,,,,,,,7,,,51,0
76399,note_on,19,0,7,,,,,,,,6,,,46,0
76399,note_on,0,0,5,,,,,,,,4,,,67,0
76399,note_on,0,0,3,,,,,,,,2,,,75,0
76399,note_on,0,0,5,,,,,,,,4,,,63,0
76399,note_on,39,0,3,,,,,,,,2,,,67,0
76399,note_on,39,0,12,,,,,,,,7,,,39,0
76399,note_on,0,0,6,,,,,,,,5,,,75,0
76399,note_on,19,0,10,,,,,,,,7,,,63,0
76399,note_on,39,0,6,,,,,,,,5,,,63,0
76399,note_on,19,0,8,,,,,,,,7,,,87,0
76399,note_on,39,0,4,,,,,,,,3,,,51,0
76399,note_on,0,0,4,,,,,,,,3,,,63,0
76399,note_on,19,0,9,,,,,,,,7,,,79,0
76400,note_on,1,0,6,,,,,,,,5,,,58,122
76400,note_on,0,0,6,,,,,,,,5,,,70,122
76400,note_on,0,0,2,,,,,,,,1,,,82,121
76400,note_on,1,0,10,,,,,,,,7,,,58,121
76400,note_on,1,0,2,,,,,,,,1,,,77,121
76400,note_on,1,0,11,,,,,,,,7,,,46,121
76400,note_on,1,0,4,,,,,,,,3,,,46,122
76400,note_on,0,0,4,,,,,,,,3,,,58,122
76400,note_on,1,0,5,,,,,,,,4,,,65,122
76400,note_on,0,0,5,,,,,,,,4,,,58,122
76400,note_on,1,0,9,,,,,,,,7,,,77,121
76400,note_on,1,0,12,,,,,,,,7,,,34,122
76400,note_on,1,0,8,,,,,,,,7,,,86,121
76400,note_on,1,0,3,,,,,,,,2,,,74,122
76400,note_on,1,0,7,,,,,,,,6,,,51,121
76400,note_on,1,0,1,,,,,,,,0,,,86,122
76400,note_on,0,0,3,,,,,,,,2,,,65,122
76419,note_on,19,0,9,,,,,,,,7,,,77,0
76419,note_on,19,0,8,,,,,,,,7,,,86,0
76419,note_on,19,0,7,,,,,,,,6,,,51,0
76419,note_on,19,0,10,,,,,,,,7,,,58,0
76420,note_on,1,0,8,,,,,,,,7,,,86,124
76420,note_on,1,0,7,,,,,,,,6,,,46,123
76420,note_on,1,0,10,,,,,,,,7,,,58,124
76420,note_on,1,0,9,,,,,,,,7,,,77,123
76439,note_on,0,0,5,,,,,,,,4,,,65,0
76439,note_on,39,0,11,,,,,,,,7,,,46,0
76439,note_on,19,0,9,,,,,,,,7,,,77,0
76439,note_on,19,0,7,,,,,,,,6,,,46,0
76439,note_on,39,0,2,,,,,,,,1,,,82,0
76439,note_on,19,0,10,,,,,,,,7,,,58,0
76439,note_on,19,0,8,,,,,,,,7,,,86,0
76439,note_on,39,0,6,,,,,,,,5,,,70,0
76439,note_on,39,0,3,,,,,,,,2,,,65,0
76439,note_on,0,0,3,,,,,,,,2,,,74,0
76439,note_on,39,0,1,,,,,,,,0,,,86,0
76439,note_on,39,0,5,,,,,,,,4,,,58,0
76439,note_on,39,0,4,,,,,,,,3,,,58,0
76439,note_on,39,0,12,,,,,,,,7,,,34,0
76439,note_on,0,0,4,,,,,,,,3,,,46,0
76439,note_on,0,0,2,,,,,,,,1,,,77,0
76439,note_on,0,0,6,,,,,,,,5,,,58,0
76440,note_on,1,0,11,,,,,,,,7,,,51,126
76440,note_on,1,0,7,,,,,,,,6,,,51,127
76440,note_on,1,0,8,,,,,,,,7,,,87,126
76440,note_on,1,0,5,,,,,,,,4,,,67,127
76440,note_on,0,0,5,,,,,,,,4,,,58,127
76440,note_on,1,0,3,,,,,,,,2,,,75,127
76440,note_on,0,0,3,,,,,,,,2,,,67,127
76440,note_on,1,0,9,,,,,,,,7,,,79,125
76440,note_on,0,0,6,,,,,,,,5,,,63,127
76440,note_on,1,0,4,,,,,,,,3,,,63,127
76440,note_on,1,0,1,,,,,,,,0,,,87,127
76440,note_on,0,0,5,,,,,,,,4,,,63,127
76440,note_on,1,0,10,,,,,,,,7,,,63,127
76440,note_on,1,0,6,,,,,,,,5,,,75,127
76440,note_on,1,0,12,,,,,,,,7,,,39,126
76440,note_on,1,0,2,,,,,,,,1,,,79,126
76440,note_on,0,0,2,,,,,,,,1,,,82,126
76440,note_on,0,0,4,,,,,,,,3,,,51,127
76479,note_on,39,0,12,,,,,,,,7,,,39,0
76479,note_on,39,0,3,,,,,,,,2,,,67,0
76479,note_on,39,0,11,,,,,,,,7,,,51,0
76479,note_on,0,0,6,,,,,,,,5,,,75,0
76479,note_on,39,0,6,,,,,,,,5,,,63,0
76479,note_on,39,0,9,,,,,,,,7,,,79,0
76479,note_on,39,0,1,,,,,,,,0,,,87,0
76479,note_on,39,0,5,,,,,,,,4,,,63,0
76479,note_on,39,0,4,,,,,,,,3,,,51,0
76479,note_on,0,0,5,,,,,,,,4,,,58,0
76479,note_on,0,0,5,,,,,,,,4,,,67,0
76479,note_on,0,0,3,,,,,,,,2,,,75,0
76479,note_on,39,0,10,,,,,,,,7,,,63,0
76479,note_on,0,0,2,,,,,,,,1,,,79,0
76479,note_on,39,0,7,,,,,,,,6,,,51,0
76479,note_on,39,0,2,,,,,,,,1,,,82,0
76479,note_on,39,0,8,,,,,,,,7,,,87,0
76479,note_on,0,0,4,,,,,,,,3,,,63,0
76560,note_on,81,0,5,,,,,,,,4,,,65,127
76560,note_on,0,0,5,,,,,,,,4,,,58,127
76560,note_on,0,0,2,,,,,,,,1,,,77,127
76560,note_on,81,0,2,,,,,,,,1,,,74,127
76560,note_on,81,0,12,,,,,,,,7,,,34,127
76560,note_on,0,0,3,,,,,,,,2,,,68,127
76560,note_on,81,0,7,,,,,,,,6,,,46,127
76560,note_on,81,0,3,,,,,,,,2,,,77,127
76560,note_on,81,0,1,,,,,,,,0,,,86,127
76560,note_on,81,0,6,,,,,,,,5,,,70,127
76560,note_on,0,0,8,,,,,,,,7,,,82,126
76560,note_on,0,0,4,,,,,,,,3,,,58,127
76560,note_on,81,0,4,,,,,,,,3,,,46,127
76560,note_on,81,0,11,,,,,,,,7,,,46,127
76560,note_on,0,0,8,,,,,,,,7,,,70,126
76560,note_on,81,0,8,,,,,,,,7,,,62,126
76560,note_on,0,0,6,,,,,,,,5,,,58,127
76560,note_on,0,0,9,,,,,,,,7,,,77,127
76560,note_on,0,0,9,,,,,,,,7,,,70,127
76560,note_on,81,0,9,,,,,,,,7,,,62,127
76560,note_on,81,0,10,,,,,,,,7,,,58,127
76599,note_on,39,0,10,,,,,,,,7,,,58,0
76599,note_on,0,0,3,,,,,,,,2,,,77,0
76599,note_on,39,0,3,,,,,,,,2,,,68,0
76599,note_on,39,0,8,,,,,,,,7,,,82,0
76599,note_on,39,0,7,,,,,,,,6,,,46,0
76599,note_on,0,0,8,,,,,,,,7,,,70,0
76599,note_on,0,0,8,,,,,,,,7,,,62,0
76599,note_on,0,0,2,,,,,,,,1,,,74,0
76599,note_on,39,0,2,,,,,,,,1,,,77,0
76599,note_on,39,0,11,,,,,,,,7,,,46,0
76599,note_on,39,0,9,,,,,,,,7,,,77,0
76599,note_on,39,0,6,,,,,,,,5,,,58,0
76599,note_on,0,0,6,,,,,,,,5,,,70,0
76599,note_on,39,0,4,,,,,,,,3,,,58,0
76599,note_on,0,0,4,,,,,,,,3,,,46,0
76599,note_on,0,0,9,,,,,,,,7,,,62,0
76599,note_on,39,0,5,,,,,,,,4,,,58,0
76599,note_on,0,0,5,,,,,,,,4,,,65,0
76599,note_on,39,0,12,,,,,,,,7,,,34,0
76599,note_on,39,0,1,,,,,,,,0,,,86,0
76599,note_on,0,0,9,,,,,,,,7,,,70,0
76680,note_on,0,0,8,,,,,,,,7,,,63,126
76680,note_on,0,0,8,,,,,,,,7,,,70,126
76680,note_on,81,0,1,,,,,,,,0,,,87,127
76680,note_on,81,0,4,,,,,,,,3,,,51,127
76680,note_on,0,0,8,,,,,,,,7,,,79,126
76680,note_on,0,0,9,,,,,,,,7,,,63,127
76680,note_on,0,0,9,,,,,,,,7,,,55,127
76680,note_on,81,0,2,,,,,,,,1,,,67,127
76680,note_on,0,0,2,,,,,,,,1,,,75,127
76680,note_on,81,0,9,,,,,,,,7,,,75,127
76680,note_on,81,0,8,,,,,,,,7,,,55,126
76680,note_on,0,0,10,,,,,,,,7,,,58,127
76680,note_on,0,0,10,,,,,,,,7,,,63,127
76680,note_on,81,0,11,,,,,,,,7,,,51,127
76680,note_on,81,0,7,,,,,,,,6,,,51,127
76680,note_on,0,0,5,,,,,,,,4,,,51,127
76680,note_on,81,0,10,,,,,,,,7,,,51,127
76680,note_on,0,0,3,,,,,,,,2,,,67,127
76680,note_on,81,0,5,,,,,,,,4,,,63,127
76680,note_on,81,0,12,,,,,,,,7,,,39,127
76680,note_on,0,0,6,,,,,,,,5,,,63,127
76680,note_on,81,0,6,,,,,,,,5,,,67,127
76680,note_on,81,0,3,,,,,,,,2,,,75,127
76719,note_on,39,0,12,,,,,,,,7,,,39,0
76719,end_of_track,0,1,12,,,,,,,,,,,,
76719,end_of_track,0,1,11,,,,,,,,,,,,
76719,note_on,39,0,11,,,,,,,,7,,,51,0
76719,note_on,39,0,2,,,,,,,,1,,,75,0
76719,note_on,0,0,2,,,,,,,,1,,,67,0
76719,note_on,39,0,3,,,,,,,,2,,,67,0
76719,end_of_track,0,1,8,,,,,,,,,,,,
76719,note_on,39,0,1,,,,,,,,0,,,87,0
76719,end_of_track,0,1,1,,,,,,,,,,,,
76719,end_of_track,0,1,9,,,,,,,,,,,,
76719,note_on,0,0,9,,,,,,,,7,,,75,0
76719,note_on,0,0,9,,,,,,,,7,,,55,0
76719,note_on,39,0,9,,,,,,,,7,,,63,0
76719,note_on,39,0,6,,,,,,,,5,,,63,0
76719,note_on,0,0,6,,,,,,,,5,,,67,0
76719,end_of_track,0,1,6,,,,,,,,,,,,
76719,note_on,39,0,5,,,,,,,,4,,,51,0
76719,note_on,0,0,5,,,,,,,,4,,,63,0
76719,end_of_track,0,1,5,,,,,,,,,,,,
76719,end_of_track,0,1,10,,,,,,,,,,,,
76719,note_on,0,0,10,,,,,,,,7,,,51,0
76719,note_on,0,0,10,,,,,,,,7,,,58,0
76719,note_on,39,0,10,,,,,,,,7,,,63,0
76719,end_of_track,0,1,4,,,,,,,,,,,,
76719,note_on,39,0,7,,,,,,,,6,,,51,0
76719,end_of_track,0,1,7,,,,,,,,,,,,
76719,end_of_track,0,1,3,,,,,,,,,,,,
76719,note_on,0,0,3,,,,,,,,2,,,75,0
76719,note_on,39,0,8,,,,,,,,7,,,79,0
76719,note_on,0,0,8,,,,,,,,7,,,55,0
76719,note_on,0,0,8,,,,,,,,7,,,63,0
76719,note_on,0,0,8,,,,,,,,7,,,70,0
76719,end_of_track,0,1,2,,,,,,,,,,,,
76719,note_on,39,0,4,,,,,,,,3,,,51,0
